EXTRACT: control_change channel=9 control=10 value=64 time=0
EXTRACT: note_on channel=9 note=35 velocity=120 time=0
EXTRACT: note_on channel=9 note=36 velocity=120 time=0
EXTRACT: control_change channel=0 control=7 value=69 time=0
EXTRACT: control_change channel=0 control=10 value=64 time=0
EXTRACT: program_change channel=0 program=0 time=0
EXTRACT: note_on channel=0 note=64 velocity=100 time=0
EXTRACT: control_change channel=1 control=7 value=49 time=0
EXTRACT: control_change channel=1 control=10 value=64 time=0
EXTRACT: program_change channel=1 program=48 time=0
EXTRACT: control_change channel=2 control=7 value=89 time=0
EXTRACT: control_change channel=2 control=10 value=64 time=0
EXTRACT: program_change channel=2 program=1 time=0
EXTRACT: note_on channel=2 note=64 velocity=100 time=0
EXTRACT: control_change channel=4 control=7 value=29 time=0
EXTRACT: control_change channel=4 control=10 value=64 time=0
EXTRACT: program_change channel=4 program=49 time=0
EXTRACT: control_change channel=3 control=7 value=69 time=0
EXTRACT: control_change channel=3 control=10 value=64 time=0
EXTRACT: program_change channel=3 program=73 time=0
EXTRACT: control_change channel=5 control=7 value=69 time=0
EXTRACT: control_change channel=5 control=10 value=64 time=0
EXTRACT: program_change channel=5 program=52 time=0
EXTRACT: note_off channel=9 note=36 velocity=100 time=0.125
EXTRACT: note_off channel=9 note=35 velocity=100 time=0
EXTRACT: note_on channel=9 note=82 velocity=50 time=0.259375
EXTRACT: note_on channel=0 note=71 velocity=100 time=0
EXTRACT: note_on channel=2 note=71 velocity=100 time=0
EXTRACT: note_off channel=9 note=82 velocity=40 time=0.125
EXTRACT: note_on channel=9 note=35 velocity=120 time=0.037500000000000006
EXTRACT: note_on channel=9 note=36 velocity=120 time=0
EXTRACT: note_off channel=9 note=36 velocity=100 time=0.125
EXTRACT: note_off channel=9 note=35 velocity=100 time=0
EXTRACT: note_on channel=9 note=85 velocity=120 time=0.078125
EXTRACT: note_on channel=9 note=39 velocity=120 time=0
EXTRACT: note_on channel=9 note=82 velocity=50 time=0
EXTRACT: note_on channel=9 note=54 velocity=100 time=0
EXTRACT: note_on channel=9 note=28 velocity=100 time=0
EXTRACT: note_on channel=0 note=76 velocity=100 time=0
EXTRACT: note_on channel=2 note=76 velocity=100 time=0
EXTRACT: note_off channel=9 note=28 velocity=80 time=0.125
EXTRACT: note_off channel=9 note=54 velocity=80 time=0
EXTRACT: note_off channel=9 note=82 velocity=40 time=0
EXTRACT: note_off channel=9 note=39 velocity=100 time=0
EXTRACT: note_off channel=9 note=85 velocity=100 time=0
EXTRACT: note_off channel=0 note=71 velocity=80 time=0.259375
EXTRACT: note_on channel=0 note=83 velocity=100 time=0
EXTRACT: note_off channel=2 note=71 velocity=80 time=0
EXTRACT: note_on channel=2 note=83 velocity=100 time=0
EXTRACT: note_on channel=9 note=82 velocity=50 time=0.1625
EXTRACT: note_off channel=9 note=82 velocity=40 time=0.125
EXTRACT: note_off channel=0 note=76 velocity=80 time=0.0171875
EXTRACT: note_off channel=2 note=76 velocity=80 time=0
EXTRACT: note_off channel=0 note=64 velocity=80 time=0.060937500000000006
EXTRACT: note_on channel=0 note=59 velocity=100 time=0
EXTRACT: note_off channel=2 note=64 velocity=80 time=0
EXTRACT: note_on channel=2 note=59 velocity=100 time=0
EXTRACT: note_on channel=9 note=82 velocity=50 time=0.18125000000000002
EXTRACT: note_off channel=9 note=82 velocity=40 time=0.125
EXTRACT: note_off channel=0 note=83 velocity=80 time=0.0171875
EXTRACT: note_off channel=2 note=83 velocity=80 time=0
EXTRACT: note_on channel=9 note=35 velocity=120 time=0.060937500000000006
EXTRACT: note_on channel=9 note=36 velocity=120 time=0
EXTRACT: note_on channel=9 note=82 velocity=50 time=0
EXTRACT: note_on channel=0 note=71 velocity=100 time=0
EXTRACT: note_on channel=2 note=71 velocity=100 time=0
EXTRACT: note_off channel=9 note=82 velocity=40 time=0.125
EXTRACT: note_off channel=9 note=36 velocity=100 time=0
EXTRACT: note_off channel=9 note=35 velocity=100 time=0
EXTRACT: note_on channel=9 note=85 velocity=120 time=0.240625
EXTRACT: note_on channel=9 note=39 velocity=120 time=0
EXTRACT: note_on channel=9 note=54 velocity=100 time=0
EXTRACT: note_on channel=9 note=28 velocity=100 time=0
EXTRACT: note_on channel=0 note=75 velocity=100 time=0
EXTRACT: note_on channel=2 note=75 velocity=100 time=0
EXTRACT: note_on channel=3 note=63 velocity=100 time=0
EXTRACT: note_off channel=9 note=28 velocity=80 time=0.125
EXTRACT: note_off channel=9 note=54 velocity=80 time=0
EXTRACT: note_off channel=9 note=39 velocity=100 time=0
EXTRACT: note_off channel=9 note=85 velocity=100 time=0
EXTRACT: note_off channel=0 note=71 velocity=80 time=0.09062500000000001
EXTRACT: note_off channel=2 note=71 velocity=80 time=0
EXTRACT: note_on channel=0 note=76 velocity=100 time=0.060937500000000006
EXTRACT: note_on channel=2 note=76 velocity=100 time=0
EXTRACT: note_on channel=3 note=64 velocity=100 time=0
EXTRACT: note_off channel=3 note=63 velocity=80 time=0.040625
EXTRACT: note_off channel=0 note=75 velocity=80 time=0.1015625
EXTRACT: note_off channel=2 note=75 velocity=80 time=0
EXTRACT: note_on channel=9 note=35 velocity=120 time=0.2234375
EXTRACT: note_on channel=9 note=36 velocity=120 time=0
EXTRACT: note_off channel=0 note=59 velocity=80 time=0
EXTRACT: note_on channel=0 note=61 velocity=100 time=0
EXTRACT: note_off channel=2 note=59 velocity=80 time=0
EXTRACT: note_on channel=2 note=61 velocity=100 time=0
EXTRACT: note_off channel=3 note=64 velocity=80 time=0.0203125
EXTRACT: note_off channel=9 note=36 velocity=100 time=0.1046875
EXTRACT: note_off channel=9 note=35 velocity=100 time=0
EXTRACT: note_off channel=0 note=76 velocity=80 time=0.05625
EXTRACT: note_off channel=2 note=76 velocity=80 time=0
EXTRACT: note_on channel=9 note=82 velocity=50 time=0.203125
EXTRACT: note_on channel=0 note=73 velocity=100 time=0
EXTRACT: note_on channel=2 note=73 velocity=100 time=0
EXTRACT: note_off channel=9 note=82 velocity=40 time=0.125
EXTRACT: note_on channel=9 note=35 velocity=120 time=0.037500000000000006
EXTRACT: note_on channel=9 note=36 velocity=120 time=0
EXTRACT: note_off channel=9 note=36 velocity=100 time=0.125
EXTRACT: note_off channel=9 note=35 velocity=100 time=0
EXTRACT: note_on channel=9 note=85 velocity=120 time=0.078125
EXTRACT: note_on channel=9 note=39 velocity=120 time=0
EXTRACT: note_on channel=9 note=82 velocity=50 time=0
EXTRACT: note_on channel=9 note=54 velocity=100 time=0
EXTRACT: note_on channel=9 note=28 velocity=100 time=0
EXTRACT: note_on channel=0 note=76 velocity=100 time=0
EXTRACT: note_on channel=2 note=76 velocity=100 time=0
EXTRACT: note_off channel=9 note=28 velocity=80 time=0.125
EXTRACT: note_off channel=9 note=54 velocity=80 time=0
EXTRACT: note_off channel=9 note=82 velocity=40 time=0
EXTRACT: note_off channel=9 note=39 velocity=100 time=0
EXTRACT: note_off channel=9 note=85 velocity=100 time=0
EXTRACT: note_on channel=3 note=64 velocity=100 time=0.05625
EXTRACT: note_off channel=0 note=73 velocity=80 time=0.1015625
EXTRACT: note_off channel=2 note=73 velocity=80 time=0
EXTRACT: note_off channel=3 note=64 velocity=80 time=0.0234375
EXTRACT: note_on channel=0 note=81 velocity=100 time=0.0140625
EXTRACT: note_on channel=2 note=81 velocity=100 time=0
EXTRACT: note_on channel=3 note=64 velocity=100 time=0
EXTRACT: note_off channel=3 note=64 velocity=80 time=0.125
EXTRACT: note_on channel=9 note=82 velocity=50 time=0.037500000000000006
EXTRACT: note_on channel=3 note=64 velocity=100 time=0
EXTRACT: note_off channel=0 note=76 velocity=80 time=0.0328125
EXTRACT: note_off channel=2 note=76 velocity=80 time=0
EXTRACT: note_off channel=9 note=82 velocity=40 time=0.06406250000000001
EXTRACT: note_off channel=0 note=61 velocity=80 time=0.078125
EXTRACT: note_on channel=0 note=57 velocity=100 time=0
EXTRACT: note_off channel=2 note=61 velocity=80 time=0
EXTRACT: note_on channel=2 note=57 velocity=100 time=0
EXTRACT: note_on channel=3 note=63 velocity=100 time=0
EXTRACT: note_off channel=3 note=64 velocity=80 time=0.0203125
EXTRACT: note_on channel=9 note=82 velocity=50 time=0.1453125
EXTRACT: note_off channel=9 note=82 velocity=40 time=0.0734375
EXTRACT: note_off channel=3 note=63 velocity=80 time=0.037500000000000006
EXTRACT: note_on channel=9 note=35 velocity=120 time=0.040625
EXTRACT: note_on channel=9 note=36 velocity=120 time=0
EXTRACT: note_on channel=9 note=82 velocity=50 time=0
EXTRACT: note_on channel=0 note=80 velocity=100 time=0
EXTRACT: note_on channel=2 note=80 velocity=100 time=0
EXTRACT: note_on channel=3 note=63 velocity=100 time=0
EXTRACT: note_off channel=0 note=81 velocity=80 time=0.040625
EXTRACT: note_off channel=2 note=81 velocity=80 time=0
EXTRACT: note_off channel=9 note=82 velocity=40 time=0.084375
EXTRACT: note_off channel=9 note=36 velocity=100 time=0
EXTRACT: note_off channel=9 note=35 velocity=100 time=0
EXTRACT: note_on channel=9 note=85 velocity=120 time=0.11406250000000001
EXTRACT: note_on channel=9 note=39 velocity=120 time=0
EXTRACT: note_on channel=9 note=54 velocity=100 time=0
EXTRACT: note_on channel=9 note=28 velocity=100 time=0
EXTRACT: note_on channel=0 note=78 velocity=100 time=0
EXTRACT: note_on channel=2 note=78 velocity=100 time=0
EXTRACT: note_on channel=3 note=64 velocity=100 time=0
EXTRACT: note_off channel=3 note=63 velocity=80 time=0.1
EXTRACT: note_off channel=9 note=28 velocity=80 time=0.025
EXTRACT: note_off channel=9 note=54 velocity=80 time=0
EXTRACT: note_off channel=9 note=39 velocity=100 time=0
EXTRACT: note_off channel=9 note=85 velocity=100 time=0
EXTRACT: note_off channel=0 note=80 velocity=80 time=0.06406250000000001
EXTRACT: note_off channel=2 note=80 velocity=80 time=0
EXTRACT: note_off channel=3 note=64 velocity=80 time=0.0203125
EXTRACT: note_on channel=0 note=76 velocity=100 time=0.08125
EXTRACT: note_on channel=2 note=76 velocity=100 time=0
EXTRACT: note_on channel=3 note=64 velocity=100 time=0
EXTRACT: note_off channel=0 note=78 velocity=80 time=0.0125
EXTRACT: note_off channel=2 note=78 velocity=80 time=0
EXTRACT: note_on channel=9 note=35 velocity=120 time=0.1625
EXTRACT: note_on channel=9 note=36 velocity=120 time=0
EXTRACT: note_off channel=0 note=57 velocity=80 time=0
EXTRACT: note_on channel=0 note=64 velocity=100 time=0
EXTRACT: note_off channel=2 note=57 velocity=80 time=0
EXTRACT: note_on channel=2 note=64 velocity=100 time=0
EXTRACT: note_off channel=9 note=36 velocity=100 time=0.125
EXTRACT: note_off channel=9 note=35 velocity=100 time=0
EXTRACT: note_off channel=0 note=76 velocity=80 time=0.15781250000000002
EXTRACT: note_off channel=2 note=76 velocity=80 time=0
EXTRACT: note_on channel=9 note=82 velocity=50 time=0.1015625
EXTRACT: note_on channel=0 note=71 velocity=100 time=0
EXTRACT: note_on channel=2 note=71 velocity=100 time=0
EXTRACT: note_off channel=9 note=82 velocity=40 time=0.125
EXTRACT: note_on channel=9 note=35 velocity=120 time=0.037500000000000006
EXTRACT: note_on channel=9 note=36 velocity=120 time=0
EXTRACT: note_off channel=9 note=36 velocity=100 time=0.125
EXTRACT: note_off channel=9 note=35 velocity=100 time=0
EXTRACT: note_on channel=9 note=85 velocity=120 time=0.078125
EXTRACT: note_on channel=9 note=39 velocity=120 time=0
EXTRACT: note_on channel=9 note=82 velocity=50 time=0
EXTRACT: note_on channel=9 note=54 velocity=100 time=0
EXTRACT: note_on channel=9 note=28 velocity=100 time=0
EXTRACT: note_on channel=0 note=76 velocity=100 time=0
EXTRACT: note_on channel=2 note=76 velocity=100 time=0
EXTRACT: note_off channel=3 note=64 velocity=80 time=0.0203125
EXTRACT: note_off channel=9 note=28 velocity=80 time=0.1046875
EXTRACT: note_off channel=9 note=54 velocity=80 time=0
EXTRACT: note_off channel=9 note=82 velocity=40 time=0
EXTRACT: note_off channel=9 note=39 velocity=100 time=0
EXTRACT: note_off channel=9 note=85 velocity=100 time=0
EXTRACT: note_off channel=0 note=71 velocity=80 time=0.259375
EXTRACT: note_on channel=0 note=83 velocity=100 time=0
EXTRACT: note_off channel=2 note=71 velocity=80 time=0
EXTRACT: note_on channel=2 note=83 velocity=100 time=0
EXTRACT: note_on channel=9 note=82 velocity=50 time=0.1625
EXTRACT: note_off channel=9 note=82 velocity=40 time=0.125
EXTRACT: note_off channel=0 note=76 velocity=80 time=0.0171875
EXTRACT: note_off channel=2 note=76 velocity=80 time=0
EXTRACT: note_off channel=0 note=64 velocity=80 time=0.060937500000000006
EXTRACT: note_on channel=0 note=59 velocity=100 time=0
EXTRACT: note_off channel=2 note=64 velocity=80 time=0
EXTRACT: note_on channel=2 note=59 velocity=100 time=0
EXTRACT: note_on channel=9 note=82 velocity=50 time=0.18125000000000002
EXTRACT: note_off channel=9 note=82 velocity=40 time=0.125
EXTRACT: note_off channel=0 note=83 velocity=80 time=0.0171875
EXTRACT: note_off channel=2 note=83 velocity=80 time=0
EXTRACT: note_on channel=9 note=35 velocity=120 time=0.060937500000000006
EXTRACT: note_on channel=9 note=36 velocity=120 time=0
EXTRACT: note_on channel=9 note=82 velocity=50 time=0
EXTRACT: note_on channel=0 note=71 velocity=100 time=0
EXTRACT: note_on channel=2 note=71 velocity=100 time=0
EXTRACT: note_off channel=9 note=82 velocity=40 time=0.125
EXTRACT: note_off channel=9 note=36 velocity=100 time=0
EXTRACT: note_off channel=9 note=35 velocity=100 time=0
EXTRACT: note_on channel=9 note=85 velocity=120 time=0.240625
EXTRACT: note_on channel=9 note=39 velocity=120 time=0
EXTRACT: note_on channel=9 note=54 velocity=100 time=0
EXTRACT: note_on channel=9 note=28 velocity=100 time=0
EXTRACT: note_on channel=0 note=75 velocity=100 time=0
EXTRACT: note_on channel=2 note=75 velocity=100 time=0
EXTRACT: note_off channel=9 note=28 velocity=80 time=0.125
EXTRACT: note_off channel=9 note=54 velocity=80 time=0
EXTRACT: note_off channel=9 note=39 velocity=100 time=0
EXTRACT: note_off channel=9 note=85 velocity=100 time=0
EXTRACT: note_off channel=0 note=71 velocity=80 time=0.19843750000000002
EXTRACT: note_off channel=2 note=71 velocity=80 time=0
EXTRACT: note_on channel=0 note=76 velocity=100 time=0.060937500000000006
EXTRACT: note_on channel=2 note=76 velocity=100 time=0
EXTRACT: note_on channel=3 note=64 velocity=100 time=0
EXTRACT: note_off channel=0 note=75 velocity=80 time=0.1421875
EXTRACT: note_off channel=2 note=75 velocity=80 time=0
EXTRACT: note_on channel=9 note=35 velocity=120 time=0.2234375
EXTRACT: note_on channel=9 note=36 velocity=120 time=0
EXTRACT: note_off channel=0 note=59 velocity=80 time=0
EXTRACT: note_on channel=0 note=61 velocity=100 time=0
EXTRACT: note_off channel=2 note=59 velocity=80 time=0
EXTRACT: note_on channel=2 note=61 velocity=100 time=0
EXTRACT: note_off channel=9 note=36 velocity=100 time=0.125
EXTRACT: note_off channel=9 note=35 velocity=100 time=0
EXTRACT: note_off channel=0 note=76 velocity=80 time=0.05625
EXTRACT: note_off channel=2 note=76 velocity=80 time=0
EXTRACT: note_on channel=9 note=82 velocity=50 time=0.203125
EXTRACT: note_on channel=0 note=73 velocity=100 time=0
EXTRACT: note_on channel=2 note=73 velocity=100 time=0
EXTRACT: note_off channel=3 note=64 velocity=80 time=0.040625
EXTRACT: note_off channel=9 note=82 velocity=40 time=0.084375
EXTRACT: note_on channel=9 note=35 velocity=120 time=0.037500000000000006
EXTRACT: note_on channel=9 note=36 velocity=120 time=0
EXTRACT: note_off channel=9 note=36 velocity=100 time=0.125
EXTRACT: note_off channel=9 note=35 velocity=100 time=0
EXTRACT: note_on channel=9 note=85 velocity=120 time=0.078125
EXTRACT: note_on channel=9 note=39 velocity=120 time=0
EXTRACT: note_on channel=9 note=82 velocity=50 time=0
EXTRACT: note_on channel=9 note=54 velocity=100 time=0
EXTRACT: note_on channel=9 note=28 velocity=100 time=0
EXTRACT: note_on channel=0 note=76 velocity=100 time=0
EXTRACT: note_on channel=2 note=76 velocity=100 time=0
EXTRACT: note_off channel=9 note=28 velocity=80 time=0.125
EXTRACT: note_off channel=9 note=54 velocity=80 time=0
EXTRACT: note_off channel=9 note=82 velocity=40 time=0
EXTRACT: note_off channel=9 note=39 velocity=100 time=0
EXTRACT: note_off channel=9 note=85 velocity=100 time=0
EXTRACT: note_off channel=0 note=73 velocity=80 time=0.15781250000000002
EXTRACT: note_off channel=2 note=73 velocity=80 time=0
EXTRACT: note_on channel=0 note=81 velocity=100 time=0.1015625
EXTRACT: note_on channel=2 note=81 velocity=100 time=0
EXTRACT: note_on channel=9 note=82 velocity=50 time=0.1625
EXTRACT: note_off channel=0 note=76 velocity=80 time=0.060937500000000006
EXTRACT: note_off channel=2 note=76 velocity=80 time=0
EXTRACT: note_off channel=9 note=82 velocity=40 time=0.06406250000000001
EXTRACT: note_off channel=0 note=61 velocity=80 time=0.078125
EXTRACT: note_on channel=0 note=57 velocity=100 time=0
EXTRACT: note_off channel=2 note=61 velocity=80 time=0
EXTRACT: note_on channel=2 note=57 velocity=100 time=0
EXTRACT: note_on channel=3 note=63 velocity=100 time=0
EXTRACT: note_on channel=9 note=82 velocity=50 time=0.045312500000000006
EXTRACT: note_off channel=9 note=82 velocity=40 time=0.125
EXTRACT: note_off channel=3 note=63 velocity=80 time=0.037500000000000006
EXTRACT: note_on channel=9 note=35 velocity=120 time=0.040625
EXTRACT: note_on channel=9 note=36 velocity=120 time=0
EXTRACT: note_on channel=9 note=82 velocity=50 time=0
EXTRACT: note_on channel=0 note=80 velocity=100 time=0
EXTRACT: note_on channel=2 note=80 velocity=100 time=0
EXTRACT: note_on channel=3 note=63 velocity=100 time=0
EXTRACT: note_off channel=0 note=81 velocity=80 time=0.040625
EXTRACT: note_off channel=2 note=81 velocity=80 time=0
EXTRACT: note_off channel=9 note=82 velocity=40 time=0.084375
EXTRACT: note_off channel=9 note=36 velocity=100 time=0
EXTRACT: note_off channel=9 note=35 velocity=100 time=0
EXTRACT: note_on channel=9 note=85 velocity=120 time=0.23750000000000002
EXTRACT: note_on channel=9 note=39 velocity=120 time=0
EXTRACT: note_on channel=9 note=54 velocity=100 time=0
EXTRACT: note_on channel=9 note=28 velocity=100 time=0
EXTRACT: note_on channel=0 note=78 velocity=100 time=0
EXTRACT: note_on channel=2 note=78 velocity=100 time=0
EXTRACT: note_on channel=3 note=64 velocity=100 time=0
EXTRACT: note_off channel=3 note=63 velocity=80 time=0.059375000000000004
EXTRACT: note_off channel=9 note=28 velocity=80 time=0.065625
EXTRACT: note_off channel=9 note=54 velocity=80 time=0
EXTRACT: note_off channel=9 note=39 velocity=100 time=0
EXTRACT: note_off channel=9 note=85 velocity=100 time=0
EXTRACT: note_off channel=0 note=80 velocity=80 time=0.12812500000000002
EXTRACT: note_off channel=2 note=80 velocity=80 time=0
EXTRACT: note_on channel=0 note=76 velocity=100 time=0.1015625
EXTRACT: note_on channel=2 note=76 velocity=100 time=0
EXTRACT: note_on channel=3 note=66 velocity=100 time=0
EXTRACT: note_off channel=3 note=64 velocity=80 time=0.060937500000000006
EXTRACT: note_off channel=0 note=78 velocity=80 time=0.05
EXTRACT: note_off channel=2 note=78 velocity=80 time=0
EXTRACT: note_on channel=9 note=35 velocity=120 time=0.1625
EXTRACT: note_on channel=9 note=36 velocity=120 time=0
EXTRACT: note_on channel=9 note=44 velocity=60 time=0
EXTRACT: note_off channel=0 note=57 velocity=80 time=0
EXTRACT: note_on channel=0 note=64 velocity=100 time=0
EXTRACT: note_off channel=2 note=57 velocity=80 time=0
EXTRACT: note_on channel=2 note=64 velocity=100 time=0
EXTRACT: note_off channel=9 note=44 velocity=50 time=0.125
EXTRACT: note_off channel=9 note=36 velocity=100 time=0
EXTRACT: note_off channel=9 note=35 velocity=100 time=0
EXTRACT: note_on channel=9 note=44 velocity=60 time=0.05625
EXTRACT: note_off channel=0 note=76 velocity=80 time=0.1015625
EXTRACT: note_off channel=2 note=76 velocity=80 time=0
EXTRACT: note_off channel=9 note=44 velocity=50 time=0.0234375
EXTRACT: note_on channel=9 note=82 velocity=50 time=0.078125
EXTRACT: note_on channel=9 note=44 velocity=60 time=0
EXTRACT: note_on channel=0 note=71 velocity=100 time=0
EXTRACT: note_on channel=2 note=71 velocity=100 time=0
EXTRACT: note_on channel=3 note=68 velocity=100 time=0
EXTRACT: note_off channel=3 note=66 velocity=80 time=0.08125
EXTRACT: note_off channel=9 note=44 velocity=50 time=0.043750000000000004
EXTRACT: note_off channel=9 note=82 velocity=40 time=0
EXTRACT: note_on channel=9 note=35 velocity=120 time=0.037500000000000006
EXTRACT: note_on channel=9 note=36 velocity=120 time=0
EXTRACT: note_on channel=9 note=44 velocity=60 time=0
EXTRACT: note_off channel=9 note=44 velocity=50 time=0.0921875
EXTRACT: note_off channel=9 note=36 velocity=100 time=0
EXTRACT: note_off channel=9 note=35 velocity=100 time=0
EXTRACT: note_on channel=9 note=85 velocity=120 time=0.078125
EXTRACT: note_on channel=9 note=39 velocity=120 time=0
EXTRACT: note_on channel=9 note=82 velocity=50 time=0
EXTRACT: note_on channel=9 note=54 velocity=100 time=0
EXTRACT: note_on channel=9 note=28 velocity=100 time=0
EXTRACT: note_on channel=9 note=44 velocity=60 time=0
EXTRACT: note_on channel=0 note=76 velocity=100 time=0
EXTRACT: note_on channel=2 note=76 velocity=100 time=0
EXTRACT: note_off channel=9 note=44 velocity=50 time=0.125
EXTRACT: note_off channel=9 note=28 velocity=80 time=0
EXTRACT: note_off channel=9 note=54 velocity=80 time=0
EXTRACT: note_off channel=9 note=82 velocity=40 time=0
EXTRACT: note_off channel=9 note=39 velocity=100 time=0
EXTRACT: note_off channel=9 note=85 velocity=100 time=0
EXTRACT: note_on channel=9 note=44 velocity=60 time=0.05625
EXTRACT: note_off channel=3 note=68 velocity=80 time=0.08125
EXTRACT: note_off channel=9 note=44 velocity=50 time=0.043750000000000004
EXTRACT: note_on channel=9 note=44 velocity=60 time=0.078125
EXTRACT: note_off channel=0 note=71 velocity=80 time=0
EXTRACT: note_on channel=0 note=83 velocity=100 time=0
EXTRACT: note_off channel=2 note=71 velocity=80 time=0
EXTRACT: note_on channel=2 note=83 velocity=100 time=0
EXTRACT: note_off channel=9 note=44 velocity=50 time=0.125
EXTRACT: note_on channel=9 note=82 velocity=50 time=0.037500000000000006
EXTRACT: note_on channel=9 note=44 velocity=60 time=0
EXTRACT: note_off channel=9 note=44 velocity=50 time=0.125
EXTRACT: note_off channel=9 note=82 velocity=40 time=0
EXTRACT: note_off channel=0 note=76 velocity=80 time=0.0171875
EXTRACT: note_off channel=2 note=76 velocity=80 time=0
EXTRACT: note_on channel=9 note=44 velocity=60 time=0.060937500000000006
EXTRACT: note_off channel=0 note=64 velocity=80 time=0
EXTRACT: note_on channel=0 note=59 velocity=100 time=0
EXTRACT: note_off channel=2 note=64 velocity=80 time=0
EXTRACT: note_on channel=2 note=59 velocity=100 time=0
EXTRACT: note_off channel=9 note=44 velocity=50 time=0.125
EXTRACT: note_on channel=9 note=82 velocity=50 time=0.05625
EXTRACT: note_on channel=9 note=44 velocity=60 time=0
EXTRACT: note_off channel=9 note=44 velocity=50 time=0.125
EXTRACT: note_off channel=9 note=82 velocity=40 time=0
EXTRACT: note_off channel=0 note=83 velocity=80 time=0.0171875
EXTRACT: note_off channel=2 note=83 velocity=80 time=0
EXTRACT: note_on channel=9 note=35 velocity=120 time=0.060937500000000006
EXTRACT: note_on channel=9 note=36 velocity=120 time=0
EXTRACT: note_on channel=9 note=82 velocity=50 time=0
EXTRACT: note_on channel=9 note=44 velocity=60 time=0
EXTRACT: note_on channel=0 note=71 velocity=100 time=0
EXTRACT: note_on channel=2 note=71 velocity=100 time=0
EXTRACT: note_off channel=9 note=44 velocity=50 time=0.125
EXTRACT: note_off channel=9 note=82 velocity=40 time=0
EXTRACT: note_off channel=9 note=36 velocity=100 time=0
EXTRACT: note_off channel=9 note=35 velocity=100 time=0
EXTRACT: note_on channel=9 note=44 velocity=60 time=0.037500000000000006
EXTRACT: note_off channel=9 note=44 velocity=50 time=0.125
EXTRACT: note_on channel=9 note=85 velocity=120 time=0.078125
EXTRACT: note_on channel=9 note=39 velocity=120 time=0
EXTRACT: note_on channel=9 note=54 velocity=100 time=0
EXTRACT: note_on channel=9 note=28 velocity=100 time=0
EXTRACT: note_on channel=9 note=44 velocity=60 time=0
EXTRACT: note_on channel=0 note=75 velocity=100 time=0
EXTRACT: note_on channel=2 note=75 velocity=100 time=0
EXTRACT: note_off channel=9 note=44 velocity=50 time=0.125
EXTRACT: note_off channel=9 note=28 velocity=80 time=0
EXTRACT: note_off channel=9 note=54 velocity=80 time=0
EXTRACT: note_off channel=9 note=39 velocity=100 time=0
EXTRACT: note_off channel=9 note=85 velocity=100 time=0
EXTRACT: note_on channel=9 note=44 velocity=60 time=0.05625
EXTRACT: note_off channel=9 note=44 velocity=50 time=0.125
EXTRACT: note_off channel=0 note=71 velocity=80 time=0.0171875
EXTRACT: note_off channel=2 note=71 velocity=80 time=0
EXTRACT: note_on channel=9 note=44 velocity=60 time=0.060937500000000006
EXTRACT: note_on channel=0 note=76 velocity=100 time=0
EXTRACT: note_on channel=2 note=76 velocity=100 time=0
EXTRACT: note_on channel=3 note=64 velocity=100 time=0
EXTRACT: note_off channel=9 note=44 velocity=50 time=0.125
EXTRACT: note_off channel=0 note=75 velocity=80 time=0.0171875
EXTRACT: note_off channel=2 note=75 velocity=80 time=0
EXTRACT: note_on channel=9 note=44 velocity=60 time=0.0203125
EXTRACT: note_off channel=9 note=44 velocity=50 time=0.0421875
EXTRACT: note_on channel=9 note=35 velocity=120 time=0.078125
EXTRACT: note_on channel=9 note=36 velocity=120 time=0
EXTRACT: note_on channel=9 note=44 velocity=60 time=0
EXTRACT: note_off channel=0 note=59 velocity=80 time=0
EXTRACT: note_on channel=0 note=61 velocity=100 time=0
EXTRACT: note_off channel=2 note=59 velocity=80 time=0
EXTRACT: note_on channel=2 note=61 velocity=100 time=0
EXTRACT: note_on channel=3 note=66 velocity=100 time=0
EXTRACT: note_off channel=3 note=64 velocity=80 time=0.1
EXTRACT: note_off channel=9 note=44 velocity=50 time=0.025
EXTRACT: note_off channel=9 note=36 velocity=100 time=0
EXTRACT: note_off channel=9 note=35 velocity=100 time=0
EXTRACT: note_on channel=9 note=44 velocity=60 time=0.05625
EXTRACT: note_off channel=0 note=76 velocity=80 time=0
EXTRACT: note_off channel=2 note=76 velocity=80 time=0
EXTRACT: note_on channel=3 note=68 velocity=100 time=0
EXTRACT: note_off channel=3 note=66 velocity=80 time=0.060937500000000006
EXTRACT: note_off channel=9 note=44 velocity=50 time=0.06406250000000001
EXTRACT: note_off channel=3 note=68 velocity=80 time=0.037500000000000006
EXTRACT: note_on channel=9 note=82 velocity=50 time=0.040625
EXTRACT: note_on channel=9 note=44 velocity=60 time=0
EXTRACT: note_on channel=0 note=73 velocity=100 time=0
EXTRACT: note_on channel=2 note=73 velocity=100 time=0
EXTRACT: note_on channel=3 note=68 velocity=100 time=0
EXTRACT: note_off channel=9 note=44 velocity=50 time=0.125
EXTRACT: note_off channel=9 note=82 velocity=40 time=0
EXTRACT: note_on channel=9 note=35 velocity=120 time=0.037500000000000006
EXTRACT: note_on channel=9 note=36 velocity=120 time=0
EXTRACT: note_on channel=9 note=44 velocity=60 time=0
EXTRACT: note_off channel=9 note=44 velocity=50 time=0.125
EXTRACT: note_off channel=9 note=36 velocity=100 time=0
EXTRACT: note_off channel=9 note=35 velocity=100 time=0
EXTRACT: note_off channel=3 note=68 velocity=80 time=0.0171875
EXTRACT: note_on channel=9 note=85 velocity=120 time=0.060937500000000006
EXTRACT: note_on channel=9 note=39 velocity=120 time=0
EXTRACT: note_on channel=9 note=82 velocity=50 time=0
EXTRACT: note_on channel=9 note=54 velocity=100 time=0
EXTRACT: note_on channel=9 note=28 velocity=100 time=0
EXTRACT: note_on channel=9 note=44 velocity=60 time=0
EXTRACT: note_on channel=0 note=76 velocity=100 time=0
EXTRACT: note_on channel=2 note=76 velocity=100 time=0
EXTRACT: note_on channel=3 note=68 velocity=100 time=0
EXTRACT: note_off channel=9 note=44 velocity=50 time=0.11093750000000001
EXTRACT: note_off channel=9 note=28 velocity=80 time=0
EXTRACT: note_off channel=9 note=54 velocity=80 time=0
EXTRACT: note_off channel=9 note=82 velocity=40 time=0
EXTRACT: note_off channel=9 note=39 velocity=100 time=0
EXTRACT: note_off channel=9 note=85 velocity=100 time=0
EXTRACT: note_on channel=9 note=44 velocity=60 time=0.05625
EXTRACT: note_off channel=0 note=73 velocity=80 time=0.1015625
EXTRACT: note_off channel=2 note=73 velocity=80 time=0
EXTRACT: note_off channel=9 note=44 velocity=50 time=0.0234375
EXTRACT: note_on channel=9 note=44 velocity=60 time=0.078125
EXTRACT: note_on channel=0 note=81 velocity=100 time=0
EXTRACT: note_on channel=2 note=81 velocity=100 time=0
EXTRACT: note_on channel=3 note=66 velocity=100 time=0
EXTRACT: note_off channel=3 note=68 velocity=80 time=0.060937500000000006
EXTRACT: note_off channel=9 note=44 velocity=50 time=0.06406250000000001
EXTRACT: note_on channel=9 note=82 velocity=50 time=0.037500000000000006
EXTRACT: note_on channel=9 note=44 velocity=60 time=0
EXTRACT: note_off channel=0 note=76 velocity=80 time=0.060937500000000006
EXTRACT: note_off channel=2 note=76 velocity=80 time=0
EXTRACT: note_off channel=9 note=44 velocity=50 time=0.06406250000000001
EXTRACT: note_off channel=9 note=82 velocity=40 time=0
EXTRACT: note_on channel=9 note=44 velocity=60 time=0.078125
EXTRACT: note_off channel=0 note=61 velocity=80 time=0
EXTRACT: note_on channel=0 note=57 velocity=100 time=0
EXTRACT: note_off channel=2 note=61 velocity=80 time=0
EXTRACT: note_on channel=2 note=57 velocity=100 time=0
EXTRACT: note_off channel=9 note=44 velocity=50 time=0.125
EXTRACT: note_on channel=9 note=82 velocity=50 time=0.05625
EXTRACT: note_on channel=9 note=44 velocity=60 time=0
EXTRACT: note_off channel=9 note=44 velocity=50 time=0.125
EXTRACT: note_off channel=9 note=82 velocity=40 time=0
EXTRACT: note_on channel=9 note=35 velocity=120 time=0.078125
EXTRACT: note_on channel=9 note=36 velocity=120 time=0
EXTRACT: note_on channel=9 note=82 velocity=50 time=0
EXTRACT: note_on channel=9 note=44 velocity=60 time=0
EXTRACT: note_on channel=0 note=80 velocity=100 time=0
EXTRACT: note_on channel=2 note=80 velocity=100 time=0
EXTRACT: note_off channel=0 note=81 velocity=80 time=0.040625
EXTRACT: note_off channel=2 note=81 velocity=80 time=0
EXTRACT: note_off channel=9 note=44 velocity=50 time=0.084375
EXTRACT: note_off channel=9 note=82 velocity=40 time=0
EXTRACT: note_off channel=9 note=36 velocity=100 time=0
EXTRACT: note_off channel=9 note=35 velocity=100 time=0
EXTRACT: note_on channel=9 note=44 velocity=60 time=0.037500000000000006
EXTRACT: note_off channel=3 note=66 velocity=80 time=0.1015625
EXTRACT: note_off channel=9 note=44 velocity=50 time=0.0234375
EXTRACT: note_on channel=9 note=85 velocity=120 time=0.078125
EXTRACT: note_on channel=9 note=39 velocity=120 time=0
EXTRACT: note_on channel=9 note=54 velocity=100 time=0
EXTRACT: note_on channel=9 note=28 velocity=100 time=0
EXTRACT: note_on channel=9 note=44 velocity=60 time=0
EXTRACT: note_on channel=0 note=78 velocity=100 time=0
EXTRACT: note_on channel=2 note=78 velocity=100 time=0
EXTRACT: note_on channel=3 note=66 velocity=100 time=0
EXTRACT: note_on channel=3 note=64 velocity=100 time=0.0546875
EXTRACT: note_off channel=9 note=44 velocity=50 time=0.004687500000000001
EXTRACT: note_off channel=9 note=28 velocity=80 time=0
EXTRACT: note_off channel=9 note=54 velocity=80 time=0
EXTRACT: note_off channel=9 note=39 velocity=100 time=0
EXTRACT: note_off channel=9 note=85 velocity=100 time=0
EXTRACT: note_on channel=9 note=44 velocity=60 time=0.05625
EXTRACT: note_off channel=0 note=80 velocity=80 time=0.1015625
EXTRACT: note_off channel=2 note=80 velocity=80 time=0
EXTRACT: note_off channel=9 note=44 velocity=50 time=0.0234375
EXTRACT: note_on channel=3 note=61 velocity=100 time=0.0171875
EXTRACT: note_off channel=3 note=66 velocity=80 time=0.0203125
EXTRACT: note_on channel=9 note=44 velocity=60 time=0.040625
EXTRACT: note_on channel=0 note=76 velocity=100 time=0
EXTRACT: note_on channel=2 note=76 velocity=100 time=0
EXTRACT: note_off channel=3 note=64 velocity=80 time=0.1015625
EXTRACT: note_off channel=9 note=44 velocity=50 time=0.0234375
EXTRACT: note_on channel=9 note=44 velocity=60 time=0.037500000000000006
EXTRACT: note_off channel=0 note=78 velocity=80 time=0.040625
EXTRACT: note_off channel=2 note=78 velocity=80 time=0
EXTRACT: note_off channel=9 note=44 velocity=50 time=0.084375
EXTRACT: note_on channel=9 note=35 velocity=120 time=0.078125
EXTRACT: note_on channel=9 note=36 velocity=120 time=0
EXTRACT: note_on channel=9 note=44 velocity=60 time=0
EXTRACT: note_off channel=0 note=57 velocity=80 time=0
EXTRACT: note_on channel=0 note=64 velocity=100 time=0
EXTRACT: note_off channel=2 note=57 velocity=80 time=0
EXTRACT: note_on channel=2 note=64 velocity=100 time=0
EXTRACT: note_off channel=3 note=61 velocity=80 time=0.0203125
EXTRACT: note_off channel=9 note=44 velocity=50 time=0.1046875
EXTRACT: note_off channel=9 note=36 velocity=100 time=0
EXTRACT: note_off channel=9 note=35 velocity=100 time=0
EXTRACT: note_on channel=9 note=44 velocity=60 time=0.05625
EXTRACT: note_off channel=0 note=76 velocity=80 time=0.1015625
EXTRACT: note_off channel=2 note=76 velocity=80 time=0
EXTRACT: note_off channel=9 note=44 velocity=50 time=0.0234375
EXTRACT: note_on channel=9 note=82 velocity=50 time=0.078125
EXTRACT: note_on channel=9 note=44 velocity=60 time=0
EXTRACT: note_on channel=0 note=71 velocity=100 time=0
EXTRACT: note_on channel=2 note=71 velocity=100 time=0
EXTRACT: note_off channel=9 note=44 velocity=50 time=0.125
EXTRACT: note_off channel=9 note=82 velocity=40 time=0
EXTRACT: note_on channel=9 note=35 velocity=120 time=0.037500000000000006
EXTRACT: note_on channel=9 note=36 velocity=120 time=0
EXTRACT: note_on channel=9 note=44 velocity=60 time=0
EXTRACT: note_off channel=9 note=44 velocity=50 time=0.125
EXTRACT: note_off channel=9 note=36 velocity=100 time=0
EXTRACT: note_off channel=9 note=35 velocity=100 time=0
EXTRACT: note_on channel=9 note=85 velocity=120 time=0.078125
EXTRACT: note_on channel=9 note=39 velocity=120 time=0
EXTRACT: note_on channel=9 note=82 velocity=50 time=0
EXTRACT: note_on channel=9 note=54 velocity=100 time=0
EXTRACT: note_on channel=9 note=28 velocity=100 time=0
EXTRACT: note_on channel=9 note=44 velocity=60 time=0
EXTRACT: note_on channel=0 note=76 velocity=100 time=0
EXTRACT: note_on channel=2 note=76 velocity=100 time=0
EXTRACT: note_on channel=3 note=64 velocity=100 time=0
EXTRACT: note_off channel=9 note=44 velocity=50 time=0.125
EXTRACT: note_off channel=9 note=28 velocity=80 time=0
EXTRACT: note_off channel=9 note=54 velocity=80 time=0
EXTRACT: note_off channel=9 note=82 velocity=40 time=0
EXTRACT: note_off channel=9 note=39 velocity=100 time=0
EXTRACT: note_off channel=9 note=85 velocity=100 time=0
EXTRACT: note_on channel=9 note=44 velocity=60 time=0.05625
EXTRACT: note_off channel=3 note=64 velocity=80 time=0.046875
EXTRACT: note_off channel=9 note=44 velocity=50 time=0.0234375
EXTRACT: note_on channel=9 note=44 velocity=60 time=0.078125
EXTRACT: note_off channel=0 note=71 velocity=80 time=0
EXTRACT: note_on channel=0 note=83 velocity=100 time=0
EXTRACT: note_off channel=2 note=71 velocity=80 time=0
EXTRACT: note_on channel=2 note=83 velocity=100 time=0
EXTRACT: note_off channel=9 note=44 velocity=50 time=0.125
EXTRACT: note_on channel=9 note=82 velocity=50 time=0.037500000000000006
EXTRACT: note_on channel=9 note=44 velocity=60 time=0
EXTRACT: note_off channel=9 note=44 velocity=50 time=0.125
EXTRACT: note_off channel=9 note=82 velocity=40 time=0
EXTRACT: note_off channel=0 note=76 velocity=80 time=0.0171875
EXTRACT: note_off channel=2 note=76 velocity=80 time=0
EXTRACT: note_on channel=9 note=44 velocity=60 time=0.060937500000000006
EXTRACT: note_off channel=0 note=64 velocity=80 time=0
EXTRACT: note_on channel=0 note=59 velocity=100 time=0
EXTRACT: note_off channel=2 note=64 velocity=80 time=0
EXTRACT: note_on channel=2 note=59 velocity=100 time=0
EXTRACT: note_on channel=3 note=64 velocity=100 time=0
EXTRACT: note_off channel=9 note=44 velocity=50 time=0.125
EXTRACT: note_on channel=9 note=82 velocity=50 time=0.0234375
EXTRACT: note_on channel=9 note=44 velocity=60 time=0
EXTRACT: note_off channel=3 note=64 velocity=80 time=0.12187500000000001
EXTRACT: note_off channel=9 note=44 velocity=50 time=0.003125
EXTRACT: note_off channel=9 note=82 velocity=40 time=0
EXTRACT: note_off channel=0 note=83 velocity=80 time=0.0171875
EXTRACT: note_off channel=2 note=83 velocity=80 time=0
EXTRACT: note_on channel=9 note=35 velocity=120 time=0.060937500000000006
EXTRACT: note_on channel=9 note=36 velocity=120 time=0
EXTRACT: note_on channel=9 note=82 velocity=50 time=0
EXTRACT: note_on channel=9 note=44 velocity=60 time=0
EXTRACT: note_on channel=0 note=71 velocity=100 time=0
EXTRACT: note_on channel=2 note=71 velocity=100 time=0
EXTRACT: note_on channel=3 note=64 velocity=100 time=0
EXTRACT: note_off channel=9 note=44 velocity=50 time=0.051562500000000004
EXTRACT: note_off channel=9 note=82 velocity=40 time=0
EXTRACT: note_off channel=9 note=36 velocity=100 time=0
EXTRACT: note_off channel=9 note=35 velocity=100 time=0
EXTRACT: note_on channel=9 note=44 velocity=60 time=0.037500000000000006
EXTRACT: note_off channel=9 note=44 velocity=50 time=0.125
EXTRACT: note_on channel=9 note=85 velocity=120 time=0.078125
EXTRACT: note_on channel=9 note=39 velocity=120 time=0
EXTRACT: note_on channel=9 note=54 velocity=100 time=0
EXTRACT: note_on channel=9 note=28 velocity=100 time=0
EXTRACT: note_on channel=9 note=44 velocity=60 time=0
EXTRACT: note_on channel=0 note=75 velocity=100 time=0
EXTRACT: note_on channel=2 note=75 velocity=100 time=0
EXTRACT: note_off channel=9 note=44 velocity=50 time=0.125
EXTRACT: note_off channel=9 note=28 velocity=80 time=0
EXTRACT: note_off channel=9 note=54 velocity=80 time=0
EXTRACT: note_off channel=9 note=39 velocity=100 time=0
EXTRACT: note_off channel=9 note=85 velocity=100 time=0
EXTRACT: note_on channel=9 note=44 velocity=60 time=0.05625
EXTRACT: note_off channel=9 note=44 velocity=50 time=0.125
EXTRACT: note_off channel=0 note=71 velocity=80 time=0.0171875
EXTRACT: note_off channel=2 note=71 velocity=80 time=0
EXTRACT: note_on channel=9 note=44 velocity=60 time=0.060937500000000006
EXTRACT: note_on channel=0 note=76 velocity=100 time=0
EXTRACT: note_on channel=2 note=76 velocity=100 time=0
EXTRACT: note_on channel=3 note=61 velocity=100 time=0
EXTRACT: note_off channel=3 note=64 velocity=80 time=0.060937500000000006
EXTRACT: note_off channel=9 note=44 velocity=50 time=0.06406250000000001
EXTRACT: note_off channel=0 note=75 velocity=80 time=0.0171875
EXTRACT: note_off channel=2 note=75 velocity=80 time=0
EXTRACT: note_on channel=9 note=44 velocity=60 time=0.0203125
EXTRACT: note_off channel=9 note=44 velocity=50 time=0.060937500000000006
EXTRACT: note_on channel=9 note=35 velocity=120 time=0.078125
EXTRACT: note_on channel=9 note=36 velocity=120 time=0
EXTRACT: note_on channel=9 note=44 velocity=60 time=0
EXTRACT: note_off channel=0 note=59 velocity=80 time=0
EXTRACT: note_on channel=0 note=57 velocity=100 time=0
EXTRACT: note_on channel=0 note=69 velocity=100 time=0
EXTRACT: note_off channel=2 note=59 velocity=80 time=0
EXTRACT: note_on channel=2 note=57 velocity=100 time=0
EXTRACT: note_on channel=2 note=69 velocity=100 time=0
EXTRACT: note_off channel=3 note=61 velocity=80 time=0.0390625
EXTRACT: note_off channel=9 note=44 velocity=50 time=0.0859375
EXTRACT: note_off channel=9 note=36 velocity=100 time=0
EXTRACT: note_off channel=9 note=35 velocity=100 time=0
EXTRACT: note_on channel=9 note=44 velocity=60 time=0.05625
EXTRACT: note_off channel=9 note=44 velocity=50 time=0.125
EXTRACT: note_on channel=9 note=82 velocity=50 time=0.078125
EXTRACT: note_on channel=9 note=44 velocity=60 time=0
EXTRACT: note_off channel=9 note=44 velocity=50 time=0.125
EXTRACT: note_off channel=9 note=82 velocity=40 time=0
EXTRACT: note_on channel=9 note=35 velocity=120 time=0.037500000000000006
EXTRACT: note_on channel=9 note=36 velocity=120 time=0
EXTRACT: note_on channel=9 note=44 velocity=60 time=0
EXTRACT: note_off channel=9 note=44 velocity=50 time=0.125
EXTRACT: note_off channel=9 note=36 velocity=100 time=0
EXTRACT: note_off channel=9 note=35 velocity=100 time=0
EXTRACT: note_on channel=9 note=85 velocity=120 time=0.078125
EXTRACT: note_on channel=9 note=39 velocity=120 time=0
EXTRACT: note_on channel=9 note=82 velocity=50 time=0
EXTRACT: note_on channel=9 note=54 velocity=100 time=0
EXTRACT: note_on channel=9 note=28 velocity=100 time=0
EXTRACT: note_on channel=9 note=44 velocity=60 time=0
EXTRACT: note_off channel=9 note=44 velocity=50 time=0.125
EXTRACT: note_off channel=9 note=28 velocity=80 time=0
EXTRACT: note_off channel=9 note=54 velocity=80 time=0
EXTRACT: note_off channel=9 note=82 velocity=40 time=0
EXTRACT: note_off channel=9 note=39 velocity=100 time=0
EXTRACT: note_off channel=9 note=85 velocity=100 time=0
EXTRACT: note_on channel=9 note=44 velocity=60 time=0.05625
EXTRACT: note_off channel=9 note=44 velocity=50 time=0.125
EXTRACT: note_on channel=9 note=44 velocity=60 time=0.078125
EXTRACT: note_off channel=9 note=44 velocity=50 time=0.125
EXTRACT: note_on channel=9 note=82 velocity=50 time=0.037500000000000006
EXTRACT: note_on channel=9 note=44 velocity=60 time=0
EXTRACT: note_off channel=9 note=44 velocity=50 time=0.125
EXTRACT: note_off channel=9 note=82 velocity=40 time=0
EXTRACT: note_on channel=9 note=44 velocity=60 time=0.078125
EXTRACT: note_off channel=9 note=44 velocity=50 time=0.125
EXTRACT: note_on channel=9 note=82 velocity=50 time=0.05625
EXTRACT: note_on channel=9 note=44 velocity=60 time=0
EXTRACT: note_off channel=9 note=44 velocity=50 time=0.125
EXTRACT: note_off channel=9 note=82 velocity=40 time=0
EXTRACT: note_on channel=9 note=35 velocity=120 time=0.078125
EXTRACT: note_on channel=9 note=36 velocity=120 time=0
EXTRACT: note_on channel=9 note=82 velocity=50 time=0
EXTRACT: note_on channel=9 note=44 velocity=60 time=0
EXTRACT: note_off channel=9 note=44 velocity=50 time=0.125
EXTRACT: note_off channel=9 note=82 velocity=40 time=0
EXTRACT: note_off channel=9 note=36 velocity=100 time=0
EXTRACT: note_off channel=9 note=35 velocity=100 time=0
EXTRACT: note_on channel=9 note=44 velocity=60 time=0.037500000000000006
EXTRACT: note_off channel=9 note=44 velocity=50 time=0.125
EXTRACT: note_on channel=9 note=85 velocity=120 time=0.078125
EXTRACT: note_on channel=9 note=39 velocity=120 time=0
EXTRACT: note_on channel=9 note=54 velocity=100 time=0
EXTRACT: note_on channel=9 note=28 velocity=100 time=0
EXTRACT: note_on channel=9 note=44 velocity=60 time=0
EXTRACT: note_off channel=9 note=44 velocity=50 time=0.125
EXTRACT: note_off channel=9 note=28 velocity=80 time=0
EXTRACT: note_off channel=9 note=54 velocity=80 time=0
EXTRACT: note_off channel=9 note=39 velocity=100 time=0
EXTRACT: note_off channel=9 note=85 velocity=100 time=0
EXTRACT: note_on channel=9 note=44 velocity=60 time=0.05625
EXTRACT: note_off channel=9 note=44 velocity=50 time=0.125
EXTRACT: note_on channel=9 note=44 velocity=60 time=0.078125
EXTRACT: note_off channel=9 note=44 velocity=50 time=0.125
EXTRACT: note_on channel=9 note=44 velocity=60 time=0.037500000000000006
EXTRACT: note_off channel=9 note=44 velocity=50 time=0.125
EXTRACT: note_off channel=0 note=69 velocity=80 time=0.037500000000000006
EXTRACT: note_off channel=2 note=69 velocity=80 time=0
EXTRACT: note_off channel=0 note=76 velocity=80 time=0.0203125
EXTRACT: note_off channel=2 note=76 velocity=80 time=0
EXTRACT: note_on channel=9 note=35 velocity=120 time=0.0203125
EXTRACT: note_on channel=9 note=36 velocity=120 time=0
EXTRACT: note_on channel=9 note=44 velocity=60 time=0
EXTRACT: note_off channel=0 note=57 velocity=80 time=0
EXTRACT: note_on channel=0 note=52 velocity=100 time=0
EXTRACT: note_off channel=2 note=57 velocity=80 time=0
EXTRACT: note_on channel=2 note=52 velocity=100 time=0
EXTRACT: note_off channel=9 note=44 velocity=50 time=0.125
EXTRACT: note_off channel=9 note=36 velocity=100 time=0
EXTRACT: note_off channel=9 note=35 velocity=100 time=0
EXTRACT: note_on channel=9 note=44 velocity=60 time=0.05625
EXTRACT: note_off channel=9 note=44 velocity=50 time=0.125
EXTRACT: note_on channel=9 note=82 velocity=50 time=0.078125
EXTRACT: note_on channel=9 note=44 velocity=60 time=0
EXTRACT: note_on channel=0 note=59 velocity=100 time=0
EXTRACT: note_on channel=2 note=59 velocity=100 time=0
EXTRACT: note_off channel=9 note=44 velocity=50 time=0.125
EXTRACT: note_off channel=9 note=82 velocity=40 time=0
EXTRACT: note_on channel=9 note=35 velocity=120 time=0.037500000000000006
EXTRACT: note_on channel=9 note=36 velocity=120 time=0
EXTRACT: note_on channel=9 note=44 velocity=60 time=0
EXTRACT: note_off channel=9 note=44 velocity=50 time=0.125
EXTRACT: note_off channel=9 note=36 velocity=100 time=0
EXTRACT: note_off channel=9 note=35 velocity=100 time=0
EXTRACT: note_on channel=9 note=85 velocity=120 time=0.078125
EXTRACT: note_on channel=9 note=39 velocity=120 time=0
EXTRACT: note_on channel=9 note=82 velocity=50 time=0
EXTRACT: note_on channel=9 note=54 velocity=100 time=0
EXTRACT: note_on channel=9 note=28 velocity=100 time=0
EXTRACT: note_on channel=9 note=44 velocity=60 time=0
EXTRACT: note_on channel=0 note=64 velocity=100 time=0
EXTRACT: note_on channel=2 note=64 velocity=100 time=0
EXTRACT: note_on channel=3 note=68 velocity=100 time=0
EXTRACT: note_off channel=9 note=44 velocity=50 time=0.125
EXTRACT: note_off channel=9 note=28 velocity=80 time=0
EXTRACT: note_off channel=9 note=54 velocity=80 time=0
EXTRACT: note_off channel=9 note=82 velocity=40 time=0
EXTRACT: note_off channel=9 note=39 velocity=100 time=0
EXTRACT: note_off channel=9 note=85 velocity=100 time=0
EXTRACT: note_on channel=9 note=44 velocity=60 time=0.05625
EXTRACT: note_off channel=9 note=44 velocity=50 time=0.1046875
EXTRACT: note_on channel=9 note=44 velocity=60 time=0.078125
EXTRACT: note_off channel=0 note=59 velocity=80 time=0
EXTRACT: note_on channel=0 note=71 velocity=100 time=0
EXTRACT: note_off channel=2 note=59 velocity=80 time=0
EXTRACT: note_on channel=2 note=71 velocity=100 time=0
EXTRACT: note_on channel=3 note=64 velocity=100 time=0
EXTRACT: note_off channel=9 note=44 velocity=50 time=0.125
EXTRACT: note_on channel=9 note=82 velocity=50 time=0.0203125
EXTRACT: note_on channel=9 note=44 velocity=60 time=0
EXTRACT: note_off channel=3 note=68 velocity=80 time=0
EXTRACT: note_off channel=9 note=44 velocity=50 time=0.125
EXTRACT: note_off channel=9 note=82 velocity=40 time=0
EXTRACT: note_off channel=0 note=64 velocity=80 time=0.0171875
EXTRACT: note_off channel=2 note=64 velocity=80 time=0
EXTRACT: note_on channel=9 note=44 velocity=60 time=0.060937500000000006
EXTRACT: note_off channel=0 note=52 velocity=80 time=0
EXTRACT: note_on channel=0 note=47 velocity=100 time=0
EXTRACT: note_off channel=2 note=52 velocity=80 time=0
EXTRACT: note_on channel=2 note=47 velocity=100 time=0
EXTRACT: note_on channel=3 note=61 velocity=100 time=0
EXTRACT: note_off channel=3 note=64 velocity=80 time=0.1
EXTRACT: note_off channel=9 note=44 velocity=50 time=0.009375000000000001
EXTRACT: note_on channel=9 note=82 velocity=50 time=0.05625
EXTRACT: note_on channel=9 note=44 velocity=60 time=0
EXTRACT: note_off channel=9 note=44 velocity=50 time=0.125
EXTRACT: note_off channel=9 note=82 velocity=40 time=0
EXTRACT: note_off channel=0 note=71 velocity=80 time=0.0171875
EXTRACT: note_off channel=2 note=71 velocity=80 time=0
EXTRACT: note_on channel=9 note=35 velocity=120 time=0.060937500000000006
EXTRACT: note_on channel=9 note=36 velocity=120 time=0
EXTRACT: note_on channel=9 note=82 velocity=50 time=0
EXTRACT: note_on channel=9 note=44 velocity=60 time=0
EXTRACT: note_on channel=0 note=59 velocity=100 time=0
EXTRACT: note_on channel=2 note=59 velocity=100 time=0
EXTRACT: note_on channel=3 note=59 velocity=100 time=0
EXTRACT: note_off channel=9 note=44 velocity=50 time=0.053125000000000006
EXTRACT: note_off channel=9 note=82 velocity=40 time=0
EXTRACT: note_off channel=9 note=36 velocity=100 time=0
EXTRACT: note_off channel=9 note=35 velocity=100 time=0
EXTRACT: note_off channel=3 note=61 velocity=80 time=0.0171875
EXTRACT: note_on channel=9 note=44 velocity=60 time=0.0203125
EXTRACT: note_off channel=9 note=44 velocity=50 time=0.125
EXTRACT: note_on channel=9 note=85 velocity=120 time=0.078125
EXTRACT: note_on channel=9 note=39 velocity=120 time=0
EXTRACT: note_on channel=9 note=54 velocity=100 time=0
EXTRACT: note_on channel=9 note=28 velocity=100 time=0
EXTRACT: note_on channel=9 note=44 velocity=60 time=0
EXTRACT: note_on channel=0 note=63 velocity=100 time=0
EXTRACT: note_on channel=2 note=63 velocity=100 time=0
EXTRACT: note_on channel=3 note=56 velocity=100 time=0
EXTRACT: note_off channel=9 note=44 velocity=50 time=0.0234375
EXTRACT: note_off channel=9 note=28 velocity=80 time=0
EXTRACT: note_off channel=9 note=54 velocity=80 time=0
EXTRACT: note_off channel=9 note=39 velocity=100 time=0
EXTRACT: note_off channel=9 note=85 velocity=100 time=0
EXTRACT: note_on channel=9 note=44 velocity=60 time=0.05625
EXTRACT: note_off channel=3 note=59 velocity=80 time=0.0203125
EXTRACT: note_off channel=9 note=44 velocity=50 time=0.1046875
EXTRACT: note_off channel=0 note=59 velocity=80 time=0.0171875
EXTRACT: note_off channel=2 note=59 velocity=80 time=0
EXTRACT: note_off channel=3 note=56 velocity=80 time=0.0203125
EXTRACT: note_on channel=9 note=44 velocity=60 time=0.040625
EXTRACT: note_on channel=0 note=64 velocity=100 time=0
EXTRACT: note_on channel=2 note=64 velocity=100 time=0
EXTRACT: note_on channel=3 note=56 velocity=100 time=0
EXTRACT: note_off channel=9 note=44 velocity=50 time=0.125
EXTRACT: note_off channel=0 note=63 velocity=80 time=0.0171875
EXTRACT: note_off channel=2 note=63 velocity=80 time=0
EXTRACT: note_on channel=9 note=44 velocity=60 time=0.0171875
EXTRACT: note_off channel=9 note=44 velocity=50 time=0.125
EXTRACT: note_on channel=9 note=35 velocity=120 time=0.078125
EXTRACT: note_on channel=9 note=36 velocity=120 time=0
EXTRACT: note_on channel=9 note=44 velocity=60 time=0
EXTRACT: note_off channel=0 note=47 velocity=80 time=0
EXTRACT: note_on channel=0 note=49 velocity=100 time=0
EXTRACT: note_off channel=2 note=47 velocity=80 time=0
EXTRACT: note_on channel=2 note=49 velocity=100 time=0
EXTRACT: note_off channel=9 note=44 velocity=50 time=0.125
EXTRACT: note_off channel=9 note=36 velocity=100 time=0
EXTRACT: note_off channel=9 note=35 velocity=100 time=0
EXTRACT: note_on channel=9 note=44 velocity=60 time=0.05625
EXTRACT: note_off channel=0 note=64 velocity=80 time=0
EXTRACT: note_off channel=2 note=64 velocity=80 time=0
EXTRACT: note_off channel=9 note=44 velocity=50 time=0.125
EXTRACT: note_on channel=9 note=82 velocity=50 time=0.078125
EXTRACT: note_on channel=9 note=44 velocity=60 time=0
EXTRACT: note_on channel=0 note=61 velocity=100 time=0
EXTRACT: note_on channel=2 note=61 velocity=100 time=0
EXTRACT: note_off channel=9 note=44 velocity=50 time=0.125
EXTRACT: note_off channel=9 note=82 velocity=40 time=0
EXTRACT: note_on channel=9 note=35 velocity=120 time=0.037500000000000006
EXTRACT: note_on channel=9 note=36 velocity=120 time=0
EXTRACT: note_on channel=9 note=44 velocity=60 time=0
EXTRACT: note_off channel=9 note=44 velocity=50 time=0.125
EXTRACT: note_off channel=9 note=36 velocity=100 time=0
EXTRACT: note_off channel=9 note=35 velocity=100 time=0
EXTRACT: note_on channel=9 note=85 velocity=120 time=0.078125
EXTRACT: note_on channel=9 note=39 velocity=120 time=0
EXTRACT: note_on channel=9 note=82 velocity=50 time=0
EXTRACT: note_on channel=9 note=54 velocity=100 time=0
EXTRACT: note_on channel=9 note=28 velocity=100 time=0
EXTRACT: note_on channel=9 note=44 velocity=60 time=0
EXTRACT: note_on channel=0 note=64 velocity=100 time=0
EXTRACT: note_on channel=2 note=64 velocity=100 time=0
EXTRACT: note_on channel=0 note=71 velocity=100 time=0.0390625
EXTRACT: note_on channel=2 note=71 velocity=100 time=0
EXTRACT: note_off channel=9 note=44 velocity=50 time=0.0859375
EXTRACT: note_off channel=9 note=28 velocity=80 time=0
EXTRACT: note_off channel=9 note=54 velocity=80 time=0
EXTRACT: note_off channel=9 note=82 velocity=40 time=0
EXTRACT: note_off channel=9 note=39 velocity=100 time=0
EXTRACT: note_off channel=9 note=85 velocity=100 time=0
EXTRACT: note_on channel=9 note=44 velocity=60 time=0.05625
EXTRACT: note_off channel=0 note=61 velocity=80 time=0.1015625
EXTRACT: note_off channel=2 note=61 velocity=80 time=0
EXTRACT: note_off channel=9 note=44 velocity=50 time=0.0234375
EXTRACT: note_off channel=3 note=56 velocity=80 time=0.037500000000000006
EXTRACT: note_on channel=9 note=44 velocity=60 time=0.040625
EXTRACT: note_on channel=0 note=69 velocity=100 time=0
EXTRACT: note_on channel=0 note=57 velocity=100 time=0
EXTRACT: note_on channel=2 note=69 velocity=100 time=0
EXTRACT: note_on channel=2 note=57 velocity=100 time=0
EXTRACT: note_off channel=9 note=44 velocity=50 time=0.125
EXTRACT: note_on channel=9 note=82 velocity=50 time=0.037500000000000006
EXTRACT: note_on channel=9 note=44 velocity=60 time=0
EXTRACT: note_off channel=0 note=64 velocity=80 time=0.060937500000000006
EXTRACT: note_off channel=2 note=64 velocity=80 time=0
EXTRACT: note_off channel=9 note=44 velocity=50 time=0.06406250000000001
EXTRACT: note_off channel=9 note=82 velocity=40 time=0
EXTRACT: note_off channel=0 note=71 velocity=80 time=0.05625
EXTRACT: note_off channel=2 note=71 velocity=80 time=0
EXTRACT: note_on channel=9 note=44 velocity=60 time=0.021875000000000002
EXTRACT: note_off channel=0 note=49 velocity=80 time=0
EXTRACT: note_off channel=2 note=49 velocity=80 time=0
EXTRACT: note_off channel=9 note=44 velocity=50 time=0.125
EXTRACT: note_on channel=9 note=82 velocity=50 time=0.05625
EXTRACT: note_on channel=9 note=44 velocity=60 time=0
EXTRACT: note_off channel=9 note=44 velocity=50 time=0.125
EXTRACT: note_off channel=9 note=82 velocity=40 time=0
EXTRACT: note_on channel=9 note=35 velocity=120 time=0.078125
EXTRACT: note_on channel=9 note=36 velocity=120 time=0
EXTRACT: note_on channel=9 note=82 velocity=50 time=0
EXTRACT: note_on channel=9 note=44 velocity=60 time=0
EXTRACT: note_on channel=0 note=68 velocity=100 time=0
EXTRACT: note_on channel=2 note=68 velocity=100 time=0
EXTRACT: note_off channel=0 note=69 velocity=80 time=0.040625
EXTRACT: note_off channel=2 note=69 velocity=80 time=0
EXTRACT: note_off channel=9 note=44 velocity=50 time=0.084375
EXTRACT: note_off channel=9 note=82 velocity=40 time=0
EXTRACT: note_off channel=9 note=36 velocity=100 time=0
EXTRACT: note_off channel=9 note=35 velocity=100 time=0
EXTRACT: note_on channel=9 note=44 velocity=60 time=0.037500000000000006
EXTRACT: note_off channel=9 note=44 velocity=50 time=0.125
EXTRACT: note_on channel=9 note=85 velocity=120 time=0.078125
EXTRACT: note_on channel=9 note=39 velocity=120 time=0
EXTRACT: note_on channel=9 note=54 velocity=100 time=0
EXTRACT: note_on channel=9 note=28 velocity=100 time=0
EXTRACT: note_on channel=9 note=44 velocity=60 time=0
EXTRACT: note_on channel=0 note=66 velocity=100 time=0
EXTRACT: note_on channel=2 note=66 velocity=100 time=0
EXTRACT: note_off channel=9 note=44 velocity=50 time=0.125
EXTRACT: note_off channel=9 note=28 velocity=80 time=0
EXTRACT: note_off channel=9 note=54 velocity=80 time=0
EXTRACT: note_off channel=9 note=39 velocity=100 time=0
EXTRACT: note_off channel=9 note=85 velocity=100 time=0
EXTRACT: note_on channel=9 note=44 velocity=60 time=0.05625
EXTRACT: note_off channel=0 note=68 velocity=80 time=0.1015625
EXTRACT: note_off channel=2 note=68 velocity=80 time=0
EXTRACT: note_off channel=9 note=44 velocity=50 time=0.0234375
EXTRACT: note_on channel=9 note=44 velocity=60 time=0.078125
EXTRACT: note_on channel=0 note=64 velocity=100 time=0
EXTRACT: note_on channel=2 note=64 velocity=100 time=0
EXTRACT: note_off channel=9 note=44 velocity=50 time=0.125
EXTRACT: note_on channel=9 note=44 velocity=60 time=0.037500000000000006
EXTRACT: note_off channel=0 note=66 velocity=80 time=0.040625
EXTRACT: note_off channel=2 note=66 velocity=80 time=0
EXTRACT: note_off channel=9 note=44 velocity=50 time=0.084375
EXTRACT: note_off channel=0 note=57 velocity=80 time=0.0171875
EXTRACT: note_off channel=2 note=57 velocity=80 time=0
EXTRACT: note_on channel=9 note=35 velocity=120 time=0.060937500000000006
EXTRACT: note_on channel=9 note=36 velocity=120 time=0
EXTRACT: note_on channel=9 note=44 velocity=60 time=0
EXTRACT: note_on channel=0 note=52 velocity=100 time=0
EXTRACT: note_on channel=2 note=52 velocity=100 time=0
EXTRACT: note_off channel=9 note=44 velocity=50 time=0.125
EXTRACT: note_off channel=9 note=36 velocity=100 time=0
EXTRACT: note_off channel=9 note=35 velocity=100 time=0
EXTRACT: note_on channel=9 note=44 velocity=60 time=0.05625
EXTRACT: note_off channel=0 note=64 velocity=80 time=0.1015625
EXTRACT: note_off channel=2 note=64 velocity=80 time=0
EXTRACT: note_off channel=9 note=44 velocity=50 time=0.0234375
EXTRACT: note_on channel=9 note=82 velocity=50 time=0.078125
EXTRACT: note_on channel=9 note=44 velocity=60 time=0
EXTRACT: note_on channel=0 note=59 velocity=100 time=0
EXTRACT: note_on channel=2 note=59 velocity=100 time=0
EXTRACT: note_off channel=9 note=44 velocity=50 time=0.125
EXTRACT: note_off channel=9 note=82 velocity=40 time=0
EXTRACT: note_on channel=9 note=35 velocity=120 time=0.037500000000000006
EXTRACT: note_on channel=9 note=36 velocity=120 time=0
EXTRACT: note_on channel=9 note=44 velocity=60 time=0
EXTRACT: note_off channel=9 note=44 velocity=50 time=0.125
EXTRACT: note_off channel=9 note=36 velocity=100 time=0
EXTRACT: note_off channel=9 note=35 velocity=100 time=0
EXTRACT: note_on channel=9 note=85 velocity=120 time=0.078125
EXTRACT: note_on channel=9 note=39 velocity=120 time=0
EXTRACT: note_on channel=9 note=82 velocity=50 time=0
EXTRACT: note_on channel=9 note=54 velocity=100 time=0
EXTRACT: note_on channel=9 note=28 velocity=100 time=0
EXTRACT: note_on channel=9 note=44 velocity=60 time=0
EXTRACT: note_on channel=0 note=64 velocity=100 time=0
EXTRACT: note_on channel=2 note=64 velocity=100 time=0
EXTRACT: note_on channel=3 note=68 velocity=100 time=0
EXTRACT: note_off channel=9 note=44 velocity=50 time=0.125
EXTRACT: note_off channel=9 note=28 velocity=80 time=0
EXTRACT: note_off channel=9 note=54 velocity=80 time=0
EXTRACT: note_off channel=9 note=82 velocity=40 time=0
EXTRACT: note_off channel=9 note=39 velocity=100 time=0
EXTRACT: note_off channel=9 note=85 velocity=100 time=0
EXTRACT: note_on channel=9 note=44 velocity=60 time=0.05625
EXTRACT: note_off channel=9 note=44 velocity=50 time=0.1
EXTRACT: note_on channel=9 note=44 velocity=60 time=0.078125
EXTRACT: note_off channel=0 note=59 velocity=80 time=0
EXTRACT: note_on channel=0 note=71 velocity=100 time=0
EXTRACT: note_off channel=2 note=59 velocity=80 time=0
EXTRACT: note_on channel=2 note=71 velocity=100 time=0
EXTRACT: note_on channel=3 note=64 velocity=100 time=0
EXTRACT: note_off channel=9 note=44 velocity=50 time=0.125
EXTRACT: note_on channel=9 note=82 velocity=50 time=0.028125
EXTRACT: note_on channel=9 note=44 velocity=60 time=0
EXTRACT: note_off channel=3 note=68 velocity=80 time=0
EXTRACT: note_off channel=9 note=44 velocity=50 time=0.125
EXTRACT: note_off channel=9 note=82 velocity=40 time=0
EXTRACT: note_off channel=0 note=64 velocity=80 time=0.0171875
EXTRACT: note_off channel=2 note=64 velocity=80 time=0
EXTRACT: note_on channel=9 note=44 velocity=60 time=0.060937500000000006
EXTRACT: note_off channel=0 note=52 velocity=80 time=0
EXTRACT: note_on channel=0 note=47 velocity=100 time=0
EXTRACT: note_off channel=2 note=52 velocity=80 time=0
EXTRACT: note_on channel=2 note=47 velocity=100 time=0
EXTRACT: note_on channel=3 note=61 velocity=100 time=0
EXTRACT: note_off channel=3 note=64 velocity=80 time=0.1
EXTRACT: note_off channel=9 note=44 velocity=50 time=0.0203125
EXTRACT: note_on channel=9 note=82 velocity=50 time=0.05625
EXTRACT: note_on channel=9 note=44 velocity=60 time=0
EXTRACT: note_off channel=9 note=44 velocity=50 time=0.125
EXTRACT: note_off channel=9 note=82 velocity=40 time=0
EXTRACT: note_off channel=0 note=71 velocity=80 time=0.0171875
EXTRACT: note_off channel=2 note=71 velocity=80 time=0
EXTRACT: note_on channel=9 note=35 velocity=120 time=0.060937500000000006
EXTRACT: note_on channel=9 note=36 velocity=120 time=0
EXTRACT: note_on channel=9 note=82 velocity=50 time=0
EXTRACT: note_on channel=9 note=44 velocity=60 time=0
EXTRACT: note_on channel=0 note=59 velocity=100 time=0
EXTRACT: note_on channel=2 note=59 velocity=100 time=0
EXTRACT: note_on channel=3 note=59 velocity=100 time=0
EXTRACT: note_off channel=9 note=44 velocity=50 time=0.0578125
EXTRACT: note_off channel=9 note=82 velocity=40 time=0
EXTRACT: note_off channel=9 note=36 velocity=100 time=0
EXTRACT: note_off channel=9 note=35 velocity=100 time=0
EXTRACT: note_off channel=3 note=61 velocity=80 time=0.0171875
EXTRACT: note_on channel=9 note=44 velocity=60 time=0.0203125
EXTRACT: note_off channel=9 note=44 velocity=50 time=0.125
EXTRACT: note_on channel=9 note=85 velocity=120 time=0.078125
EXTRACT: note_on channel=9 note=39 velocity=120 time=0
EXTRACT: note_on channel=9 note=54 velocity=100 time=0
EXTRACT: note_on channel=9 note=28 velocity=100 time=0
EXTRACT: note_on channel=9 note=44 velocity=60 time=0
EXTRACT: note_on channel=0 note=63 velocity=100 time=0
EXTRACT: note_on channel=2 note=63 velocity=100 time=0
EXTRACT: note_on channel=3 note=56 velocity=100 time=0
EXTRACT: note_off channel=9 note=44 velocity=50 time=0.00625
EXTRACT: note_off channel=9 note=28 velocity=80 time=0
EXTRACT: note_off channel=9 note=54 velocity=80 time=0
EXTRACT: note_off channel=9 note=39 velocity=100 time=0
EXTRACT: note_off channel=9 note=85 velocity=100 time=0
EXTRACT: note_on channel=9 note=44 velocity=60 time=0.05625
EXTRACT: note_off channel=3 note=59 velocity=80 time=0.0203125
EXTRACT: note_off channel=9 note=44 velocity=50 time=0.1046875
EXTRACT: note_off channel=0 note=59 velocity=80 time=0.0171875
EXTRACT: note_off channel=2 note=59 velocity=80 time=0
EXTRACT: note_off channel=3 note=56 velocity=80 time=0.0203125
EXTRACT: note_on channel=9 note=44 velocity=60 time=0.040625
EXTRACT: note_on channel=0 note=64 velocity=100 time=0
EXTRACT: note_on channel=2 note=64 velocity=100 time=0
EXTRACT: note_on channel=3 note=56 velocity=100 time=0
EXTRACT: note_off channel=9 note=44 velocity=50 time=0.125
EXTRACT: note_off channel=0 note=63 velocity=80 time=0.0171875
EXTRACT: note_off channel=2 note=63 velocity=80 time=0
EXTRACT: note_on channel=9 note=44 velocity=60 time=0.0203125
EXTRACT: note_off channel=9 note=44 velocity=50 time=0.1171875
EXTRACT: note_on channel=9 note=35 velocity=120 time=0.078125
EXTRACT: note_on channel=9 note=36 velocity=120 time=0
EXTRACT: note_on channel=9 note=44 velocity=60 time=0
EXTRACT: note_off channel=0 note=47 velocity=80 time=0
EXTRACT: note_on channel=0 note=49 velocity=100 time=0
EXTRACT: note_off channel=2 note=47 velocity=80 time=0
EXTRACT: note_on channel=2 note=49 velocity=100 time=0
EXTRACT: note_off channel=9 note=44 velocity=50 time=0.125
EXTRACT: note_off channel=9 note=36 velocity=100 time=0
EXTRACT: note_off channel=9 note=35 velocity=100 time=0
EXTRACT: note_on channel=9 note=44 velocity=60 time=0.05625
EXTRACT: note_off channel=0 note=64 velocity=80 time=0
EXTRACT: note_off channel=2 note=64 velocity=80 time=0
EXTRACT: note_off channel=9 note=44 velocity=50 time=0.125
EXTRACT: note_on channel=9 note=82 velocity=50 time=0.078125
EXTRACT: note_on channel=9 note=44 velocity=60 time=0
EXTRACT: note_on channel=0 note=61 velocity=100 time=0
EXTRACT: note_on channel=2 note=61 velocity=100 time=0
EXTRACT: note_off channel=9 note=44 velocity=50 time=0.125
EXTRACT: note_off channel=9 note=82 velocity=40 time=0
EXTRACT: note_on channel=9 note=35 velocity=120 time=0.037500000000000006
EXTRACT: note_on channel=9 note=36 velocity=120 time=0
EXTRACT: note_on channel=9 note=44 velocity=60 time=0
EXTRACT: note_off channel=9 note=44 velocity=50 time=0.125
EXTRACT: note_off channel=9 note=36 velocity=100 time=0
EXTRACT: note_off channel=9 note=35 velocity=100 time=0
EXTRACT: note_on channel=9 note=85 velocity=120 time=0.078125
EXTRACT: note_on channel=9 note=39 velocity=120 time=0
EXTRACT: note_on channel=9 note=82 velocity=50 time=0
EXTRACT: note_on channel=9 note=54 velocity=100 time=0
EXTRACT: note_on channel=9 note=28 velocity=100 time=0
EXTRACT: note_on channel=9 note=44 velocity=60 time=0
EXTRACT: note_on channel=0 note=64 velocity=100 time=0
EXTRACT: note_on channel=2 note=64 velocity=100 time=0
EXTRACT: note_on channel=0 note=71 velocity=100 time=0.0390625
EXTRACT: note_on channel=2 note=71 velocity=100 time=0
EXTRACT: note_off channel=9 note=44 velocity=50 time=0.0859375
EXTRACT: note_off channel=9 note=28 velocity=80 time=0
EXTRACT: note_off channel=9 note=54 velocity=80 time=0
EXTRACT: note_off channel=9 note=82 velocity=40 time=0
EXTRACT: note_off channel=9 note=39 velocity=100 time=0
EXTRACT: note_off channel=9 note=85 velocity=100 time=0
EXTRACT: note_on channel=9 note=44 velocity=60 time=0.05625
EXTRACT: note_off channel=0 note=61 velocity=80 time=0.1015625
EXTRACT: note_off channel=2 note=61 velocity=80 time=0
EXTRACT: note_off channel=9 note=44 velocity=50 time=0.0234375
EXTRACT: note_off channel=3 note=56 velocity=80 time=0.037500000000000006
EXTRACT: note_on channel=9 note=44 velocity=60 time=0.040625
EXTRACT: note_on channel=0 note=69 velocity=100 time=0
EXTRACT: note_on channel=0 note=57 velocity=100 time=0
EXTRACT: note_on channel=2 note=69 velocity=100 time=0
EXTRACT: note_on channel=2 note=57 velocity=100 time=0
EXTRACT: note_off channel=9 note=44 velocity=50 time=0.125
EXTRACT: note_on channel=9 note=82 velocity=50 time=0.037500000000000006
EXTRACT: note_on channel=9 note=44 velocity=60 time=0
EXTRACT: note_off channel=0 note=64 velocity=80 time=0.060937500000000006
EXTRACT: note_off channel=2 note=64 velocity=80 time=0
EXTRACT: note_off channel=9 note=44 velocity=50 time=0.06406250000000001
EXTRACT: note_off channel=9 note=82 velocity=40 time=0
EXTRACT: note_off channel=0 note=71 velocity=80 time=0.05625
EXTRACT: note_off channel=2 note=71 velocity=80 time=0
EXTRACT: note_on channel=9 note=44 velocity=60 time=0.021875000000000002
EXTRACT: note_off channel=0 note=49 velocity=80 time=0
EXTRACT: note_off channel=2 note=49 velocity=80 time=0
EXTRACT: note_off channel=9 note=44 velocity=50 time=0.125
EXTRACT: note_on channel=9 note=82 velocity=50 time=0.05625
EXTRACT: note_on channel=9 note=44 velocity=60 time=0
EXTRACT: note_off channel=9 note=44 velocity=50 time=0.125
EXTRACT: note_off channel=9 note=82 velocity=40 time=0
EXTRACT: note_on channel=9 note=35 velocity=120 time=0.078125
EXTRACT: note_on channel=9 note=36 velocity=120 time=0
EXTRACT: note_on channel=9 note=82 velocity=50 time=0
EXTRACT: note_on channel=9 note=44 velocity=60 time=0
EXTRACT: note_on channel=0 note=68 velocity=100 time=0
EXTRACT: note_on channel=2 note=68 velocity=100 time=0
EXTRACT: note_off channel=0 note=69 velocity=80 time=0.040625
EXTRACT: note_off channel=2 note=69 velocity=80 time=0
EXTRACT: note_off channel=9 note=44 velocity=50 time=0.084375
EXTRACT: note_off channel=9 note=82 velocity=40 time=0
EXTRACT: note_off channel=9 note=36 velocity=100 time=0
EXTRACT: note_off channel=9 note=35 velocity=100 time=0
EXTRACT: note_on channel=9 note=44 velocity=60 time=0.037500000000000006
EXTRACT: note_off channel=9 note=44 velocity=50 time=0.125
EXTRACT: note_on channel=9 note=85 velocity=120 time=0.078125
EXTRACT: note_on channel=9 note=39 velocity=120 time=0
EXTRACT: note_on channel=9 note=54 velocity=100 time=0
EXTRACT: note_on channel=9 note=28 velocity=100 time=0
EXTRACT: note_on channel=9 note=44 velocity=60 time=0
EXTRACT: note_on channel=0 note=66 velocity=100 time=0
EXTRACT: note_on channel=2 note=66 velocity=100 time=0
EXTRACT: note_off channel=9 note=44 velocity=50 time=0.125
EXTRACT: note_off channel=9 note=28 velocity=80 time=0
EXTRACT: note_off channel=9 note=54 velocity=80 time=0
EXTRACT: note_off channel=9 note=39 velocity=100 time=0
EXTRACT: note_off channel=9 note=85 velocity=100 time=0
EXTRACT: note_on channel=9 note=44 velocity=60 time=0.05625
EXTRACT: note_off channel=0 note=68 velocity=80 time=0.1015625
EXTRACT: note_off channel=2 note=68 velocity=80 time=0
EXTRACT: note_off channel=9 note=44 velocity=50 time=0.0234375
EXTRACT: note_on channel=9 note=44 velocity=60 time=0.078125
EXTRACT: note_on channel=0 note=64 velocity=100 time=0
EXTRACT: note_on channel=2 note=64 velocity=100 time=0
EXTRACT: note_off channel=9 note=44 velocity=50 time=0.125
EXTRACT: note_on channel=9 note=44 velocity=60 time=0.037500000000000006
EXTRACT: note_off channel=0 note=66 velocity=80 time=0.040625
EXTRACT: note_off channel=2 note=66 velocity=80 time=0
EXTRACT: note_off channel=9 note=44 velocity=50 time=0.084375
EXTRACT: note_off channel=0 note=57 velocity=80 time=0.0171875
EXTRACT: note_off channel=2 note=57 velocity=80 time=0
EXTRACT: note_on channel=9 note=35 velocity=120 time=0.060937500000000006
EXTRACT: note_on channel=9 note=36 velocity=120 time=0
EXTRACT: note_on channel=9 note=44 velocity=60 time=0
EXTRACT: note_on channel=0 note=52 velocity=100 time=0
EXTRACT: note_on channel=2 note=52 velocity=100 time=0
EXTRACT: note_on channel=3 note=63 velocity=100 time=0
EXTRACT: note_off channel=9 note=44 velocity=50 time=0.125
EXTRACT: note_off channel=9 note=36 velocity=100 time=0
EXTRACT: note_off channel=9 note=35 velocity=100 time=0
EXTRACT: note_on channel=9 note=44 velocity=60 time=0.05625
EXTRACT: note_off channel=0 note=64 velocity=80 time=0.065625
EXTRACT: note_off channel=2 note=64 velocity=80 time=0
EXTRACT: note_off channel=9 note=44 velocity=50 time=0.0234375
EXTRACT: note_on channel=9 note=82 velocity=50 time=0.078125
EXTRACT: note_on channel=9 note=44 velocity=60 time=0
EXTRACT: note_on channel=0 note=59 velocity=100 time=0
EXTRACT: note_on channel=2 note=59 velocity=100 time=0
EXTRACT: note_on channel=3 note=64 velocity=100 time=0
EXTRACT: note_off channel=3 note=63 velocity=80 time=0.0203125
EXTRACT: note_off channel=9 note=44 velocity=50 time=0.1046875
EXTRACT: note_off channel=9 note=82 velocity=40 time=0
EXTRACT: note_on channel=9 note=35 velocity=120 time=0.00625
EXTRACT: note_on channel=9 note=36 velocity=120 time=0
EXTRACT: note_on channel=9 note=44 velocity=60 time=0
EXTRACT: note_off channel=9 note=44 velocity=50 time=0.125
EXTRACT: note_off channel=9 note=36 velocity=100 time=0
EXTRACT: note_off channel=9 note=35 velocity=100 time=0
EXTRACT: note_off channel=3 note=64 velocity=80 time=0.0578125
EXTRACT: note_on channel=9 note=85 velocity=120 time=0.0203125
EXTRACT: note_on channel=9 note=39 velocity=120 time=0
EXTRACT: note_on channel=9 note=82 velocity=50 time=0
EXTRACT: note_on channel=9 note=54 velocity=100 time=0
EXTRACT: note_on channel=9 note=28 velocity=100 time=0
EXTRACT: note_on channel=9 note=44 velocity=60 time=0
EXTRACT: note_on channel=0 note=64 velocity=100 time=0
EXTRACT: note_on channel=2 note=64 velocity=100 time=0
EXTRACT: note_on channel=3 note=64 velocity=100 time=0
EXTRACT: note_off channel=9 note=44 velocity=50 time=0.125
EXTRACT: note_off channel=9 note=28 velocity=80 time=0
EXTRACT: note_off channel=9 note=54 velocity=80 time=0
EXTRACT: note_off channel=9 note=82 velocity=40 time=0
EXTRACT: note_off channel=9 note=39 velocity=100 time=0
EXTRACT: note_off channel=9 note=85 velocity=100 time=0
EXTRACT: note_on channel=9 note=44 velocity=60 time=0.029687500000000002
EXTRACT: note_off channel=9 note=44 velocity=50 time=0.125
EXTRACT: note_on channel=9 note=44 velocity=60 time=0.078125
EXTRACT: note_off channel=0 note=59 velocity=80 time=0
EXTRACT: note_on channel=0 note=71 velocity=100 time=0
EXTRACT: note_off channel=2 note=59 velocity=80 time=0
EXTRACT: note_on channel=2 note=71 velocity=100 time=0
EXTRACT: note_on channel=3 note=59 velocity=100 time=0
EXTRACT: note_off channel=3 note=64 velocity=80 time=0.1015625
EXTRACT: note_off channel=9 note=44 velocity=50 time=0.0234375
EXTRACT: note_on channel=9 note=82 velocity=50 time=0.03125
EXTRACT: note_on channel=9 note=44 velocity=60 time=0
EXTRACT: note_off channel=9 note=44 velocity=50 time=0.125
EXTRACT: note_off channel=9 note=82 velocity=40 time=0
EXTRACT: note_off channel=0 note=64 velocity=80 time=0.0171875
EXTRACT: note_off channel=2 note=64 velocity=80 time=0
EXTRACT: note_on channel=9 note=44 velocity=60 time=0.060937500000000006
EXTRACT: note_off channel=0 note=52 velocity=80 time=0
EXTRACT: note_on channel=0 note=47 velocity=100 time=0
EXTRACT: note_off channel=2 note=52 velocity=80 time=0
EXTRACT: note_on channel=2 note=47 velocity=100 time=0
EXTRACT: note_on channel=3 note=63 velocity=100 time=0
EXTRACT: note_off channel=3 note=59 velocity=80 time=0.1
EXTRACT: note_off channel=9 note=44 velocity=50 time=0.025
EXTRACT: note_on channel=9 note=82 velocity=50 time=0.040625
EXTRACT: note_on channel=9 note=44 velocity=60 time=0
EXTRACT: note_off channel=9 note=44 velocity=50 time=0.125
EXTRACT: note_off channel=9 note=82 velocity=40 time=0
EXTRACT: note_off channel=0 note=71 velocity=80 time=0.0171875
EXTRACT: note_off channel=2 note=71 velocity=80 time=0
EXTRACT: note_off channel=3 note=63 velocity=80 time=0.040625
EXTRACT: note_on channel=9 note=35 velocity=120 time=0.0203125
EXTRACT: note_on channel=9 note=36 velocity=120 time=0
EXTRACT: note_on channel=9 note=82 velocity=50 time=0
EXTRACT: note_on channel=9 note=44 velocity=60 time=0
EXTRACT: note_on channel=0 note=59 velocity=100 time=0
EXTRACT: note_on channel=2 note=59 velocity=100 time=0
EXTRACT: note_on channel=3 note=64 velocity=100 time=0
EXTRACT: note_off channel=9 note=44 velocity=50 time=0.125
EXTRACT: note_off channel=9 note=82 velocity=40 time=0
EXTRACT: note_off channel=9 note=36 velocity=100 time=0
EXTRACT: note_off channel=9 note=35 velocity=100 time=0
EXTRACT: note_on channel=9 note=44 velocity=60 time=0.034375
EXTRACT: note_off channel=9 note=44 velocity=50 time=0.125
EXTRACT: note_off channel=3 note=64 velocity=80 time=0.0171875
EXTRACT: note_on channel=9 note=85 velocity=120 time=0.060937500000000006
EXTRACT: note_on channel=9 note=39 velocity=120 time=0
EXTRACT: note_on channel=9 note=54 velocity=100 time=0
EXTRACT: note_on channel=9 note=28 velocity=100 time=0
EXTRACT: note_on channel=9 note=44 velocity=60 time=0
EXTRACT: note_on channel=0 note=63 velocity=100 time=0
EXTRACT: note_on channel=2 note=63 velocity=100 time=0
EXTRACT: note_on channel=3 note=64 velocity=100 time=0
EXTRACT: note_off channel=9 note=44 velocity=50 time=0.125
EXTRACT: note_off channel=9 note=28 velocity=80 time=0
EXTRACT: note_off channel=9 note=54 velocity=80 time=0
EXTRACT: note_off channel=9 note=39 velocity=100 time=0
EXTRACT: note_off channel=9 note=85 velocity=100 time=0
EXTRACT: note_on channel=9 note=44 velocity=60 time=0.0546875
EXTRACT: note_off channel=9 note=44 velocity=50 time=0.125
EXTRACT: note_off channel=0 note=59 velocity=80 time=0.0171875
EXTRACT: note_off channel=2 note=59 velocity=80 time=0
EXTRACT: note_on channel=9 note=44 velocity=60 time=0.060937500000000006
EXTRACT: note_on channel=0 note=64 velocity=100 time=0
EXTRACT: note_on channel=2 note=64 velocity=100 time=0
EXTRACT: note_off channel=3 note=64 velocity=80 time=0.08125
EXTRACT: note_off channel=9 note=44 velocity=50 time=0.043750000000000004
EXTRACT: note_off channel=0 note=63 velocity=80 time=0.0171875
EXTRACT: note_off channel=2 note=63 velocity=80 time=0
EXTRACT: note_on channel=9 note=44 velocity=60 time=0.0203125
EXTRACT: note_off channel=9 note=44 velocity=50 time=0.125
EXTRACT: note_on channel=9 note=35 velocity=120 time=0.078125
EXTRACT: note_on channel=9 note=36 velocity=120 time=0
EXTRACT: note_on channel=9 note=44 velocity=60 time=0
EXTRACT: note_off channel=0 note=47 velocity=80 time=0
EXTRACT: note_on channel=0 note=49 velocity=100 time=0
EXTRACT: note_off channel=2 note=47 velocity=80 time=0
EXTRACT: note_on channel=2 note=49 velocity=100 time=0
EXTRACT: note_on channel=3 note=63 velocity=100 time=0
EXTRACT: note_off channel=9 note=44 velocity=50 time=0.125
EXTRACT: note_off channel=9 note=36 velocity=100 time=0
EXTRACT: note_off channel=9 note=35 velocity=100 time=0
EXTRACT: note_on channel=9 note=44 velocity=60 time=0.05625
EXTRACT: note_off channel=0 note=64 velocity=80 time=0
EXTRACT: note_off channel=2 note=64 velocity=80 time=0
EXTRACT: note_off channel=9 note=44 velocity=50 time=0.125
EXTRACT: note_on channel=9 note=82 velocity=50 time=0.078125
EXTRACT: note_on channel=9 note=44 velocity=60 time=0
EXTRACT: note_on channel=0 note=61 velocity=100 time=0
EXTRACT: note_on channel=2 note=61 velocity=100 time=0
EXTRACT: note_on channel=3 note=64 velocity=100 time=0
EXTRACT: note_off channel=3 note=63 velocity=80 time=0.0203125
EXTRACT: note_off channel=9 note=44 velocity=50 time=0.028125
EXTRACT: note_off channel=9 note=82 velocity=40 time=0
EXTRACT: note_on channel=9 note=35 velocity=120 time=0.037500000000000006
EXTRACT: note_on channel=9 note=36 velocity=120 time=0
EXTRACT: note_on channel=9 note=44 velocity=60 time=0
EXTRACT: note_off channel=9 note=44 velocity=50 time=0.125
EXTRACT: note_off channel=9 note=36 velocity=100 time=0
EXTRACT: note_off channel=9 note=35 velocity=100 time=0
EXTRACT: note_off channel=3 note=64 velocity=80 time=0.0578125
EXTRACT: note_on channel=9 note=85 velocity=120 time=0.0203125
EXTRACT: note_on channel=9 note=39 velocity=120 time=0
EXTRACT: note_on channel=9 note=82 velocity=50 time=0
EXTRACT: note_on channel=9 note=54 velocity=100 time=0
EXTRACT: note_on channel=9 note=28 velocity=100 time=0
EXTRACT: note_on channel=9 note=44 velocity=60 time=0
EXTRACT: note_on channel=0 note=64 velocity=100 time=0
EXTRACT: note_on channel=2 note=64 velocity=100 time=0
EXTRACT: note_on channel=3 note=64 velocity=100 time=0
EXTRACT: note_on channel=0 note=71 velocity=100 time=0.0390625
EXTRACT: note_on channel=2 note=71 velocity=100 time=0
EXTRACT: note_off channel=9 note=44 velocity=50 time=0.0859375
EXTRACT: note_off channel=9 note=28 velocity=80 time=0
EXTRACT: note_off channel=9 note=54 velocity=80 time=0
EXTRACT: note_off channel=9 note=82 velocity=40 time=0
EXTRACT: note_off channel=9 note=39 velocity=100 time=0
EXTRACT: note_off channel=9 note=85 velocity=100 time=0
EXTRACT: note_on channel=9 note=44 velocity=60 time=0.0546875
EXTRACT: note_off channel=0 note=61 velocity=80 time=0.1015625
EXTRACT: note_off channel=2 note=61 velocity=80 time=0
EXTRACT: note_off channel=9 note=44 velocity=50 time=0.0234375
EXTRACT: note_on channel=9 note=44 velocity=60 time=0.078125
EXTRACT: note_on channel=0 note=69 velocity=100 time=0
EXTRACT: note_on channel=0 note=57 velocity=100 time=0
EXTRACT: note_on channel=2 note=69 velocity=100 time=0
EXTRACT: note_on channel=2 note=57 velocity=100 time=0
EXTRACT: note_on channel=3 note=59 velocity=100 time=0
EXTRACT: note_off channel=3 note=64 velocity=80 time=0.1015625
EXTRACT: note_off channel=9 note=44 velocity=50 time=0.0015625
EXTRACT: note_on channel=9 note=82 velocity=50 time=0.037500000000000006
EXTRACT: note_on channel=9 note=44 velocity=60 time=0
EXTRACT: note_off channel=0 note=64 velocity=80 time=0.060937500000000006
EXTRACT: note_off channel=2 note=64 velocity=80 time=0
EXTRACT: note_off channel=9 note=44 velocity=50 time=0.06406250000000001
EXTRACT: note_off channel=9 note=82 velocity=40 time=0
EXTRACT: note_off channel=0 note=71 velocity=80 time=0.05625
EXTRACT: note_off channel=2 note=71 velocity=80 time=0
EXTRACT: note_on channel=9 note=44 velocity=60 time=0.021875000000000002
EXTRACT: note_off channel=0 note=49 velocity=80 time=0
EXTRACT: note_off channel=2 note=49 velocity=80 time=0
EXTRACT: note_on channel=3 note=63 velocity=100 time=0
EXTRACT: note_off channel=3 note=59 velocity=80 time=0.1
EXTRACT: note_off channel=9 note=44 velocity=50 time=0.025
EXTRACT: note_on channel=9 note=82 velocity=50 time=0.05625
EXTRACT: note_on channel=9 note=44 velocity=60 time=0
EXTRACT: note_off channel=9 note=44 velocity=50 time=0.125
EXTRACT: note_off channel=9 note=82 velocity=40 time=0
EXTRACT: note_off channel=3 note=63 velocity=80 time=0.0578125
EXTRACT: note_on channel=9 note=35 velocity=120 time=0.0203125
EXTRACT: note_on channel=9 note=36 velocity=120 time=0
EXTRACT: note_on channel=9 note=82 velocity=50 time=0
EXTRACT: note_on channel=9 note=44 velocity=60 time=0
EXTRACT: note_on channel=0 note=68 velocity=100 time=0
EXTRACT: note_on channel=2 note=68 velocity=100 time=0
EXTRACT: note_on channel=3 note=64 velocity=100 time=0
EXTRACT: note_off channel=0 note=69 velocity=80 time=0.040625
EXTRACT: note_off channel=2 note=69 velocity=80 time=0
EXTRACT: note_off channel=9 note=44 velocity=50 time=0.084375
EXTRACT: note_off channel=9 note=82 velocity=40 time=0
EXTRACT: note_off channel=9 note=36 velocity=100 time=0
EXTRACT: note_off channel=9 note=35 velocity=100 time=0
EXTRACT: note_on channel=9 note=44 velocity=60 time=0.026562500000000003
EXTRACT: note_off channel=9 note=44 velocity=50 time=0.125
EXTRACT: note_off channel=3 note=64 velocity=80 time=0.0171875
EXTRACT: note_on channel=9 note=85 velocity=120 time=0.060937500000000006
EXTRACT: note_on channel=9 note=39 velocity=120 time=0
EXTRACT: note_on channel=9 note=54 velocity=100 time=0
EXTRACT: note_on channel=9 note=28 velocity=100 time=0
EXTRACT: note_on channel=9 note=44 velocity=60 time=0
EXTRACT: note_on channel=0 note=66 velocity=100 time=0
EXTRACT: note_on channel=2 note=66 velocity=100 time=0
EXTRACT: note_on channel=3 note=64 velocity=100 time=0
EXTRACT: note_off channel=9 note=44 velocity=50 time=0.026562500000000003
EXTRACT: note_off channel=9 note=28 velocity=80 time=0
EXTRACT: note_off channel=9 note=54 velocity=80 time=0
EXTRACT: note_off channel=9 note=39 velocity=100 time=0
EXTRACT: note_off channel=9 note=85 velocity=100 time=0
EXTRACT: note_on channel=9 note=44 velocity=60 time=0.05625
EXTRACT: note_off channel=0 note=68 velocity=80 time=0.1015625
EXTRACT: note_off channel=2 note=68 velocity=80 time=0
EXTRACT: note_off channel=9 note=44 velocity=50 time=0.0234375
EXTRACT: note_on channel=9 note=44 velocity=60 time=0.078125
EXTRACT: note_on channel=0 note=64 velocity=100 time=0
EXTRACT: note_on channel=2 note=64 velocity=100 time=0
EXTRACT: note_off channel=3 note=64 velocity=80 time=0.08125
EXTRACT: note_off channel=9 note=44 velocity=50 time=0.043750000000000004
EXTRACT: note_on channel=9 note=44 velocity=60 time=0.037500000000000006
EXTRACT: note_off channel=0 note=66 velocity=80 time=0.040625
EXTRACT: note_off channel=2 note=66 velocity=80 time=0
EXTRACT: note_off channel=9 note=44 velocity=50 time=0.084375
EXTRACT: note_off channel=0 note=57 velocity=80 time=0.0171875
EXTRACT: note_off channel=2 note=57 velocity=80 time=0
EXTRACT: note_on channel=9 note=35 velocity=120 time=0.060937500000000006
EXTRACT: note_on channel=9 note=36 velocity=120 time=0
EXTRACT: note_on channel=9 note=44 velocity=60 time=0
EXTRACT: note_on channel=0 note=52 velocity=100 time=0
EXTRACT: note_on channel=2 note=52 velocity=100 time=0
EXTRACT: note_on channel=3 note=64 velocity=100 time=0
EXTRACT: note_off channel=9 note=44 velocity=50 time=0.0171875
EXTRACT: note_off channel=9 note=36 velocity=100 time=0
EXTRACT: note_off channel=9 note=35 velocity=100 time=0
EXTRACT: note_on channel=9 note=44 velocity=60 time=0.05625
EXTRACT: note_off channel=0 note=64 velocity=80 time=0.1015625
EXTRACT: note_off channel=2 note=64 velocity=80 time=0
EXTRACT: note_off channel=9 note=44 velocity=50 time=0.0234375
EXTRACT: note_off channel=3 note=64 velocity=80 time=0.0578125
EXTRACT: note_on channel=9 note=82 velocity=50 time=0.0203125
EXTRACT: note_on channel=9 note=44 velocity=60 time=0
EXTRACT: note_on channel=0 note=59 velocity=100 time=0
EXTRACT: note_on channel=2 note=59 velocity=100 time=0
EXTRACT: note_off channel=9 note=44 velocity=50 time=0.125
EXTRACT: note_off channel=9 note=82 velocity=40 time=0
EXTRACT: note_on channel=9 note=35 velocity=120 time=0.037500000000000006
EXTRACT: note_on channel=9 note=36 velocity=120 time=0
EXTRACT: note_on channel=9 note=44 velocity=60 time=0
EXTRACT: note_off channel=9 note=44 velocity=50 time=0.125
EXTRACT: note_off channel=9 note=36 velocity=100 time=0
EXTRACT: note_off channel=9 note=35 velocity=100 time=0
EXTRACT: note_on channel=9 note=85 velocity=120 time=0.078125
EXTRACT: note_on channel=9 note=39 velocity=120 time=0
EXTRACT: note_on channel=9 note=82 velocity=50 time=0
EXTRACT: note_on channel=9 note=54 velocity=100 time=0
EXTRACT: note_on channel=9 note=28 velocity=100 time=0
EXTRACT: note_on channel=9 note=44 velocity=60 time=0
EXTRACT: note_on channel=0 note=64 velocity=100 time=0
EXTRACT: note_on channel=2 note=64 velocity=100 time=0
EXTRACT: note_off channel=9 note=44 velocity=50 time=0.125
EXTRACT: note_off channel=9 note=28 velocity=80 time=0
EXTRACT: note_off channel=9 note=54 velocity=80 time=0
EXTRACT: note_off channel=9 note=82 velocity=40 time=0
EXTRACT: note_off channel=9 note=39 velocity=100 time=0
EXTRACT: note_off channel=9 note=85 velocity=100 time=0
EXTRACT: note_on channel=9 note=44 velocity=60 time=0.05625
EXTRACT: note_off channel=9 note=44 velocity=50 time=0.125
EXTRACT: note_on channel=9 note=44 velocity=60 time=0.078125
EXTRACT: note_off channel=0 note=59 velocity=80 time=0
EXTRACT: note_on channel=0 note=71 velocity=100 time=0
EXTRACT: note_off channel=2 note=59 velocity=80 time=0
EXTRACT: note_on channel=2 note=71 velocity=100 time=0
EXTRACT: note_on channel=3 note=63 velocity=100 time=0
EXTRACT: note_off channel=9 note=44 velocity=50 time=0.125
EXTRACT: note_on channel=9 note=82 velocity=50 time=0.0203125
EXTRACT: note_on channel=9 note=44 velocity=60 time=0
EXTRACT: note_off channel=9 note=44 velocity=50 time=0.125
EXTRACT: note_off channel=9 note=82 velocity=40 time=0
EXTRACT: note_off channel=0 note=64 velocity=80 time=0.0171875
EXTRACT: note_off channel=2 note=64 velocity=80 time=0
EXTRACT: note_on channel=9 note=44 velocity=60 time=0.060937500000000006
EXTRACT: note_off channel=0 note=52 velocity=80 time=0
EXTRACT: note_on channel=0 note=47 velocity=100 time=0
EXTRACT: note_off channel=2 note=52 velocity=80 time=0
EXTRACT: note_on channel=2 note=47 velocity=100 time=0
EXTRACT: note_on channel=3 note=64 velocity=100 time=0
EXTRACT: note_off channel=3 note=63 velocity=80 time=0.07968750000000001
EXTRACT: note_off channel=9 note=44 velocity=50 time=0.045312500000000006
EXTRACT: note_on channel=9 note=82 velocity=50 time=0.040625
EXTRACT: note_on channel=9 note=44 velocity=60 time=0
EXTRACT: note_off channel=9 note=44 velocity=50 time=0.125
EXTRACT: note_off channel=9 note=82 velocity=40 time=0
EXTRACT: note_off channel=0 note=71 velocity=80 time=0.0171875
EXTRACT: note_off channel=2 note=71 velocity=80 time=0
EXTRACT: note_on channel=9 note=35 velocity=120 time=0.060937500000000006
EXTRACT: note_on channel=9 note=36 velocity=120 time=0
EXTRACT: note_on channel=9 note=82 velocity=50 time=0
EXTRACT: note_on channel=9 note=44 velocity=60 time=0
EXTRACT: note_on channel=0 note=59 velocity=100 time=0
EXTRACT: note_on channel=2 note=59 velocity=100 time=0
EXTRACT: note_off channel=9 note=44 velocity=50 time=0.125
EXTRACT: note_off channel=9 note=82 velocity=40 time=0
EXTRACT: note_off channel=9 note=36 velocity=100 time=0
EXTRACT: note_off channel=9 note=35 velocity=100 time=0
EXTRACT: note_on channel=9 note=44 velocity=60 time=0.037500000000000006
EXTRACT: note_off channel=9 note=44 velocity=50 time=0.125
EXTRACT: note_on channel=9 note=85 velocity=120 time=0.078125
EXTRACT: note_on channel=9 note=39 velocity=120 time=0
EXTRACT: note_on channel=9 note=54 velocity=100 time=0
EXTRACT: note_on channel=9 note=28 velocity=100 time=0
EXTRACT: note_on channel=9 note=44 velocity=60 time=0
EXTRACT: note_on channel=0 note=63 velocity=100 time=0
EXTRACT: note_on channel=2 note=63 velocity=100 time=0
EXTRACT: note_on channel=3 note=59 velocity=100 time=0
EXTRACT: note_off channel=3 note=64 velocity=80 time=0.07968750000000001
EXTRACT: note_off channel=9 note=44 velocity=50 time=0.045312500000000006
EXTRACT: note_off channel=9 note=28 velocity=80 time=0
EXTRACT: note_off channel=9 note=54 velocity=80 time=0
EXTRACT: note_off channel=9 note=39 velocity=100 time=0
EXTRACT: note_off channel=9 note=85 velocity=100 time=0
EXTRACT: note_on channel=9 note=44 velocity=60 time=0.05625
EXTRACT: note_off channel=9 note=44 velocity=50 time=0.037500000000000006
EXTRACT: note_off channel=0 note=59 velocity=80 time=0.0171875
EXTRACT: note_off channel=2 note=59 velocity=80 time=0
EXTRACT: note_on channel=9 note=44 velocity=60 time=0.060937500000000006
EXTRACT: note_on channel=0 note=64 velocity=100 time=0
EXTRACT: note_on channel=2 note=64 velocity=100 time=0
EXTRACT: note_on channel=3 note=57 velocity=100 time=0
EXTRACT: note_off channel=3 note=59 velocity=80 time=0.0203125
EXTRACT: note_off channel=9 note=44 velocity=50 time=0.1046875
EXTRACT: note_off channel=0 note=63 velocity=80 time=0.0171875
EXTRACT: note_off channel=2 note=63 velocity=80 time=0
EXTRACT: note_on channel=9 note=44 velocity=60 time=0.0203125
EXTRACT: note_off channel=9 note=44 velocity=50 time=0.059375000000000004
EXTRACT: note_on channel=9 note=35 velocity=120 time=0.078125
EXTRACT: note_on channel=9 note=36 velocity=120 time=0
EXTRACT: note_on channel=9 note=44 velocity=60 time=0
EXTRACT: note_off channel=0 note=47 velocity=80 time=0
EXTRACT: note_on channel=0 note=69 velocity=100 time=0
EXTRACT: note_on channel=0 note=57 velocity=100 time=0
EXTRACT: note_off channel=2 note=47 velocity=80 time=0
EXTRACT: note_on channel=2 note=69 velocity=100 time=0
EXTRACT: note_on channel=2 note=57 velocity=100 time=0
EXTRACT: note_off channel=9 note=44 velocity=50 time=0.125
EXTRACT: note_off channel=9 note=36 velocity=100 time=0
EXTRACT: note_off channel=9 note=35 velocity=100 time=0
EXTRACT: note_on channel=9 note=44 velocity=60 time=0.05625
EXTRACT: note_off channel=9 note=44 velocity=50 time=0.125
EXTRACT: note_on channel=9 note=82 velocity=50 time=0.078125
EXTRACT: note_on channel=9 note=44 velocity=60 time=0
EXTRACT: note_off channel=9 note=44 velocity=50 time=0.125
EXTRACT: note_off channel=9 note=82 velocity=40 time=0
EXTRACT: note_on channel=9 note=35 velocity=120 time=0.037500000000000006
EXTRACT: note_on channel=9 note=36 velocity=120 time=0
EXTRACT: note_on channel=9 note=44 velocity=60 time=0
EXTRACT: note_off channel=9 note=44 velocity=50 time=0.125
EXTRACT: note_off channel=9 note=36 velocity=100 time=0
EXTRACT: note_off channel=9 note=35 velocity=100 time=0
EXTRACT: note_on channel=9 note=85 velocity=120 time=0.078125
EXTRACT: note_on channel=9 note=39 velocity=120 time=0
EXTRACT: note_on channel=9 note=82 velocity=50 time=0
EXTRACT: note_on channel=9 note=54 velocity=100 time=0
EXTRACT: note_on channel=9 note=28 velocity=100 time=0
EXTRACT: note_on channel=9 note=44 velocity=60 time=0
EXTRACT: note_off channel=3 note=57 velocity=80 time=0.0203125
EXTRACT: note_off channel=9 note=44 velocity=50 time=0.1046875
EXTRACT: note_off channel=9 note=28 velocity=80 time=0
EXTRACT: note_off channel=9 note=54 velocity=80 time=0
EXTRACT: note_off channel=9 note=82 velocity=40 time=0
EXTRACT: note_off channel=9 note=39 velocity=100 time=0
EXTRACT: note_off channel=9 note=85 velocity=100 time=0
EXTRACT: note_on channel=9 note=44 velocity=60 time=0.05625
EXTRACT: note_off channel=9 note=44 velocity=50 time=0.125
EXTRACT: note_on channel=9 note=44 velocity=60 time=0.078125
EXTRACT: note_off channel=9 note=44 velocity=50 time=0.125
EXTRACT: note_on channel=9 note=82 velocity=50 time=0.037500000000000006
EXTRACT: note_on channel=9 note=44 velocity=60 time=0
EXTRACT: note_off channel=9 note=44 velocity=50 time=0.125
EXTRACT: note_off channel=9 note=82 velocity=40 time=0
EXTRACT: note_on channel=9 note=44 velocity=60 time=0.078125
EXTRACT: note_off channel=9 note=44 velocity=50 time=0.125
EXTRACT: note_on channel=9 note=82 velocity=50 time=0.05625
EXTRACT: note_on channel=9 note=44 velocity=60 time=0
EXTRACT: note_off channel=9 note=44 velocity=50 time=0.125
EXTRACT: note_off channel=9 note=82 velocity=40 time=0
EXTRACT: note_on channel=9 note=35 velocity=120 time=0.078125
EXTRACT: note_on channel=9 note=36 velocity=120 time=0
EXTRACT: note_on channel=9 note=82 velocity=50 time=0
EXTRACT: note_on channel=9 note=44 velocity=60 time=0
EXTRACT: note_off channel=9 note=44 velocity=50 time=0.125
EXTRACT: note_off channel=9 note=82 velocity=40 time=0
EXTRACT: note_off channel=9 note=36 velocity=100 time=0
EXTRACT: note_off channel=9 note=35 velocity=100 time=0
EXTRACT: note_on channel=9 note=44 velocity=60 time=0.037500000000000006
EXTRACT: note_off channel=9 note=44 velocity=50 time=0.125
EXTRACT: note_on channel=9 note=85 velocity=120 time=0.078125
EXTRACT: note_on channel=9 note=39 velocity=120 time=0
EXTRACT: note_on channel=9 note=54 velocity=100 time=0
EXTRACT: note_on channel=9 note=28 velocity=100 time=0
EXTRACT: note_on channel=9 note=44 velocity=60 time=0
EXTRACT: note_off channel=9 note=44 velocity=50 time=0.125
EXTRACT: note_off channel=9 note=28 velocity=80 time=0
EXTRACT: note_off channel=9 note=54 velocity=80 time=0
EXTRACT: note_off channel=9 note=39 velocity=100 time=0
EXTRACT: note_off channel=9 note=85 velocity=100 time=0
EXTRACT: note_on channel=9 note=44 velocity=60 time=0.05625
EXTRACT: note_off channel=9 note=44 velocity=50 time=0.125
EXTRACT: note_on channel=9 note=44 velocity=60 time=0.078125
EXTRACT: note_off channel=9 note=44 velocity=50 time=0.125
EXTRACT: note_on channel=9 note=44 velocity=60 time=0.037500000000000006
EXTRACT: note_off channel=9 note=44 velocity=50 time=0.125
EXTRACT: note_off channel=0 note=57 velocity=80 time=0.037500000000000006
EXTRACT: note_off channel=0 note=64 velocity=80 time=0
EXTRACT: note_off channel=2 note=57 velocity=80 time=0
EXTRACT: note_off channel=2 note=64 velocity=80 time=0
EXTRACT: note_on channel=9 note=35 velocity=120 time=0.040625
EXTRACT: note_on channel=9 note=36 velocity=120 time=0
EXTRACT: note_on channel=9 note=44 velocity=60 time=0
EXTRACT: note_off channel=0 note=69 velocity=80 time=0
EXTRACT: note_on channel=0 note=52 velocity=100 time=0
EXTRACT: note_off channel=2 note=69 velocity=80 time=0
EXTRACT: note_on channel=2 note=52 velocity=100 time=0
EXTRACT: note_on channel=3 note=68 velocity=100 time=0
EXTRACT: note_off channel=9 note=44 velocity=50 time=0.125
EXTRACT: note_off channel=9 note=36 velocity=100 time=0
EXTRACT: note_off channel=9 note=35 velocity=100 time=0
EXTRACT: note_on channel=9 note=44 velocity=60 time=0.05625
EXTRACT: note_off channel=3 note=68 velocity=80 time=0.08125
EXTRACT: note_off channel=9 note=44 velocity=50 time=0.043750000000000004
EXTRACT: note_on channel=9 note=82 velocity=50 time=0.043750000000000004
EXTRACT: note_on channel=9 note=44 velocity=60 time=0
EXTRACT: note_on channel=0 note=59 velocity=100 time=0
EXTRACT: note_on channel=2 note=59 velocity=100 time=0
EXTRACT: note_on channel=3 note=68 velocity=100 time=0
EXTRACT: note_off channel=9 note=44 velocity=50 time=0.125
EXTRACT: note_off channel=9 note=82 velocity=40 time=0
EXTRACT: note_on channel=9 note=35 velocity=120 time=0.037500000000000006
EXTRACT: note_on channel=9 note=36 velocity=120 time=0
EXTRACT: note_on channel=9 note=44 velocity=60 time=0
EXTRACT: note_off channel=9 note=44 velocity=50 time=0.07187500000000001
EXTRACT: note_off channel=9 note=36 velocity=100 time=0
EXTRACT: note_off channel=9 note=35 velocity=100 time=0
EXTRACT: note_off channel=3 note=68 velocity=80 time=0.037500000000000006
EXTRACT: note_on channel=9 note=85 velocity=120 time=0.040625
EXTRACT: note_on channel=9 note=39 velocity=120 time=0
EXTRACT: note_on channel=9 note=82 velocity=50 time=0
EXTRACT: note_on channel=9 note=54 velocity=100 time=0
EXTRACT: note_on channel=9 note=28 velocity=100 time=0
EXTRACT: note_on channel=9 note=44 velocity=60 time=0
EXTRACT: note_on channel=0 note=64 velocity=100 time=0
EXTRACT: note_on channel=2 note=64 velocity=100 time=0
EXTRACT: note_on channel=3 note=68 velocity=100 time=0
EXTRACT: note_off channel=9 note=44 velocity=50 time=0.125
EXTRACT: note_off channel=9 note=28 velocity=80 time=0
EXTRACT: note_off channel=9 note=54 velocity=80 time=0
EXTRACT: note_off channel=9 note=82 velocity=40 time=0
EXTRACT: note_off channel=9 note=39 velocity=100 time=0
EXTRACT: note_off channel=9 note=85 velocity=100 time=0
EXTRACT: note_on channel=9 note=44 velocity=60 time=0.0078125
EXTRACT: note_off channel=9 note=44 velocity=50 time=0.125
EXTRACT: note_on channel=9 note=44 velocity=60 time=0.078125
EXTRACT: note_off channel=0 note=59 velocity=80 time=0
EXTRACT: note_on channel=0 note=71 velocity=100 time=0
EXTRACT: note_off channel=2 note=59 velocity=80 time=0
EXTRACT: note_on channel=2 note=71 velocity=100 time=0
EXTRACT: note_off channel=3 note=68 velocity=80 time=0
EXTRACT: note_on channel=3 note=64 velocity=100 time=0
EXTRACT: note_off channel=9 note=44 velocity=50 time=0.125
EXTRACT: note_on channel=9 note=82 velocity=50 time=0.00625
EXTRACT: note_on channel=9 note=44 velocity=60 time=0
EXTRACT: note_off channel=9 note=44 velocity=50 time=0.125
EXTRACT: note_off channel=9 note=82 velocity=40 time=0
EXTRACT: note_off channel=0 note=64 velocity=80 time=0.0171875
EXTRACT: note_off channel=2 note=64 velocity=80 time=0
EXTRACT: note_on channel=9 note=44 velocity=60 time=0.060937500000000006
EXTRACT: note_off channel=0 note=52 velocity=80 time=0
EXTRACT: note_on channel=0 note=47 velocity=100 time=0
EXTRACT: note_off channel=2 note=52 velocity=80 time=0
EXTRACT: note_on channel=2 note=47 velocity=100 time=0
EXTRACT: note_on channel=3 note=69 velocity=100 time=0
EXTRACT: note_off channel=3 note=64 velocity=80 time=0.0390625
EXTRACT: note_off channel=9 note=44 velocity=50 time=0.0859375
EXTRACT: note_on channel=9 note=82 velocity=50 time=0.026562500000000003
EXTRACT: note_on channel=9 note=44 velocity=60 time=0
EXTRACT: note_off channel=9 note=44 velocity=50 time=0.125
EXTRACT: note_off channel=9 note=82 velocity=40 time=0
EXTRACT: note_off channel=0 note=71 velocity=80 time=0.0171875
EXTRACT: note_off channel=2 note=71 velocity=80 time=0
EXTRACT: note_on channel=9 note=35 velocity=120 time=0.060937500000000006
EXTRACT: note_on channel=9 note=36 velocity=120 time=0
EXTRACT: note_on channel=9 note=82 velocity=50 time=0
EXTRACT: note_on channel=9 note=44 velocity=60 time=0
EXTRACT: note_on channel=0 note=59 velocity=100 time=0
EXTRACT: note_on channel=2 note=59 velocity=100 time=0
EXTRACT: note_off channel=3 note=69 velocity=80 time=0
EXTRACT: note_on channel=3 note=68 velocity=100 time=0
EXTRACT: note_off channel=9 note=44 velocity=50 time=0.125
EXTRACT: note_off channel=9 note=82 velocity=40 time=0
EXTRACT: note_off channel=9 note=36 velocity=100 time=0
EXTRACT: note_off channel=9 note=35 velocity=100 time=0
EXTRACT: note_on channel=9 note=44 velocity=60 time=0.026562500000000003
EXTRACT: note_off channel=9 note=44 velocity=50 time=0.125
EXTRACT: note_on channel=9 note=85 velocity=120 time=0.078125
EXTRACT: note_on channel=9 note=39 velocity=120 time=0
EXTRACT: note_on channel=9 note=54 velocity=100 time=0
EXTRACT: note_on channel=9 note=28 velocity=100 time=0
EXTRACT: note_on channel=9 note=44 velocity=60 time=0
EXTRACT: note_on channel=0 note=63 velocity=100 time=0
EXTRACT: note_on channel=2 note=63 velocity=100 time=0
EXTRACT: note_on channel=3 note=66 velocity=100 time=0
EXTRACT: note_off channel=3 note=68 velocity=80 time=0.0390625
EXTRACT: note_off channel=9 note=44 velocity=50 time=0.0859375
EXTRACT: note_off channel=9 note=28 velocity=80 time=0
EXTRACT: note_off channel=9 note=54 velocity=80 time=0
EXTRACT: note_off channel=9 note=39 velocity=100 time=0
EXTRACT: note_off channel=9 note=85 velocity=100 time=0
EXTRACT: note_on channel=9 note=44 velocity=60 time=0.015625
EXTRACT: note_off channel=9 note=44 velocity=50 time=0.125
EXTRACT: note_off channel=0 note=59 velocity=80 time=0.0171875
EXTRACT: note_off channel=2 note=59 velocity=80 time=0
EXTRACT: note_on channel=9 note=44 velocity=60 time=0.060937500000000006
EXTRACT: note_on channel=0 note=64 velocity=100 time=0
EXTRACT: note_on channel=2 note=64 velocity=100 time=0
EXTRACT: note_on channel=3 note=64 velocity=100 time=0
EXTRACT: note_off channel=3 note=66 velocity=80 time=0.040625
EXTRACT: note_off channel=9 note=44 velocity=50 time=0.084375
EXTRACT: note_off channel=0 note=63 velocity=80 time=0.0171875
EXTRACT: note_off channel=2 note=63 velocity=80 time=0
EXTRACT: note_on channel=9 note=44 velocity=60 time=0.0125
EXTRACT: note_off channel=9 note=44 velocity=50 time=0.125
EXTRACT: note_off channel=3 note=64 velocity=80 time=0.037500000000000006
EXTRACT: note_on channel=9 note=35 velocity=120 time=0.040625
EXTRACT: note_on channel=9 note=36 velocity=120 time=0
EXTRACT: note_on channel=9 note=44 velocity=60 time=0
EXTRACT: note_off channel=0 note=47 velocity=80 time=0
EXTRACT: note_on channel=0 note=49 velocity=100 time=0
EXTRACT: note_off channel=2 note=47 velocity=80 time=0
EXTRACT: note_on channel=2 note=49 velocity=100 time=0
EXTRACT: note_on channel=3 note=64 velocity=100 time=0
EXTRACT: note_off channel=9 note=44 velocity=50 time=0.125
EXTRACT: note_off channel=9 note=36 velocity=100 time=0
EXTRACT: note_off channel=9 note=35 velocity=100 time=0
EXTRACT: note_on channel=9 note=44 velocity=60 time=0.004687500000000001
EXTRACT: note_off channel=0 note=64 velocity=80 time=0
EXTRACT: note_off channel=2 note=64 velocity=80 time=0
EXTRACT: note_off channel=9 note=44 velocity=50 time=0.125
EXTRACT: note_on channel=9 note=82 velocity=50 time=0.078125
EXTRACT: note_on channel=9 note=44 velocity=60 time=0
EXTRACT: note_on channel=0 note=61 velocity=100 time=0
EXTRACT: note_on channel=2 note=61 velocity=100 time=0
EXTRACT: note_off channel=9 note=44 velocity=50 time=0.125
EXTRACT: note_off channel=9 note=82 velocity=40 time=0
EXTRACT: note_on channel=9 note=35 velocity=120 time=0.037500000000000006
EXTRACT: note_on channel=9 note=36 velocity=120 time=0
EXTRACT: note_on channel=9 note=44 velocity=60 time=0
EXTRACT: note_off channel=9 note=44 velocity=50 time=0.125
EXTRACT: note_off channel=9 note=36 velocity=100 time=0
EXTRACT: note_off channel=9 note=35 velocity=100 time=0
EXTRACT: note_on channel=9 note=85 velocity=120 time=0.078125
EXTRACT: note_on channel=9 note=39 velocity=120 time=0
EXTRACT: note_on channel=9 note=82 velocity=50 time=0
EXTRACT: note_on channel=9 note=54 velocity=100 time=0
EXTRACT: note_on channel=9 note=28 velocity=100 time=0
EXTRACT: note_on channel=9 note=44 velocity=60 time=0
EXTRACT: note_on channel=0 note=64 velocity=100 time=0
EXTRACT: note_on channel=2 note=64 velocity=100 time=0
EXTRACT: note_on channel=0 note=71 velocity=100 time=0.0390625
EXTRACT: note_on channel=2 note=71 velocity=100 time=0
EXTRACT: note_off channel=9 note=44 velocity=50 time=0.0859375
EXTRACT: note_off channel=9 note=28 velocity=80 time=0
EXTRACT: note_off channel=9 note=54 velocity=80 time=0
EXTRACT: note_off channel=9 note=82 velocity=40 time=0
EXTRACT: note_off channel=9 note=39 velocity=100 time=0
EXTRACT: note_off channel=9 note=85 velocity=100 time=0
EXTRACT: note_on channel=9 note=44 velocity=60 time=0.05625
EXTRACT: note_off channel=0 note=61 velocity=80 time=0.1015625
EXTRACT: note_off channel=2 note=61 velocity=80 time=0
EXTRACT: note_off channel=9 note=44 velocity=50 time=0.0234375
EXTRACT: note_on channel=9 note=44 velocity=60 time=0.078125
EXTRACT: note_on channel=0 note=69 velocity=100 time=0
EXTRACT: note_on channel=0 note=57 velocity=100 time=0
EXTRACT: note_on channel=2 note=69 velocity=100 time=0
EXTRACT: note_on channel=2 note=57 velocity=100 time=0
EXTRACT: note_off channel=9 note=44 velocity=50 time=0.125
EXTRACT: note_on channel=9 note=82 velocity=50 time=0.037500000000000006
EXTRACT: note_on channel=9 note=44 velocity=60 time=0
EXTRACT: note_off channel=0 note=64 velocity=80 time=0.060937500000000006
EXTRACT: note_off channel=2 note=64 velocity=80 time=0
EXTRACT: note_off channel=9 note=44 velocity=50 time=0.06406250000000001
EXTRACT: note_off channel=9 note=82 velocity=40 time=0
EXTRACT: note_off channel=0 note=71 velocity=80 time=0.05625
EXTRACT: note_off channel=2 note=71 velocity=80 time=0
EXTRACT: note_on channel=9 note=44 velocity=60 time=0.021875000000000002
EXTRACT: note_off channel=0 note=49 velocity=80 time=0
EXTRACT: note_off channel=2 note=49 velocity=80 time=0
EXTRACT: note_off channel=3 note=64 velocity=80 time=0
EXTRACT: note_off channel=9 note=44 velocity=50 time=0.125
EXTRACT: note_on channel=9 note=82 velocity=50 time=0.05625
EXTRACT: note_on channel=9 note=44 velocity=60 time=0
EXTRACT: note_off channel=9 note=44 velocity=50 time=0.125
EXTRACT: note_off channel=9 note=82 velocity=40 time=0
EXTRACT: note_on channel=9 note=35 velocity=120 time=0.078125
EXTRACT: note_on channel=9 note=36 velocity=120 time=0
EXTRACT: note_on channel=9 note=82 velocity=50 time=0
EXTRACT: note_on channel=9 note=44 velocity=60 time=0
EXTRACT: note_on channel=0 note=68 velocity=100 time=0
EXTRACT: note_on channel=2 note=68 velocity=100 time=0
EXTRACT: note_off channel=0 note=69 velocity=80 time=0.040625
EXTRACT: note_off channel=2 note=69 velocity=80 time=0
EXTRACT: note_off channel=9 note=44 velocity=50 time=0.084375
EXTRACT: note_off channel=9 note=82 velocity=40 time=0
EXTRACT: note_off channel=9 note=36 velocity=100 time=0
EXTRACT: note_off channel=9 note=35 velocity=100 time=0
EXTRACT: note_on channel=9 note=44 velocity=60 time=0.037500000000000006
EXTRACT: note_off channel=9 note=44 velocity=50 time=0.125
EXTRACT: note_on channel=9 note=85 velocity=120 time=0.078125
EXTRACT: note_on channel=9 note=39 velocity=120 time=0
EXTRACT: note_on channel=9 note=54 velocity=100 time=0
EXTRACT: note_on channel=9 note=28 velocity=100 time=0
EXTRACT: note_on channel=9 note=44 velocity=60 time=0
EXTRACT: note_on channel=0 note=66 velocity=100 time=0
EXTRACT: note_on channel=2 note=66 velocity=100 time=0
EXTRACT: note_on channel=3 note=59 velocity=100 time=0
EXTRACT: note_off channel=9 note=44 velocity=50 time=0.125
EXTRACT: note_off channel=9 note=28 velocity=80 time=0
EXTRACT: note_off channel=9 note=54 velocity=80 time=0
EXTRACT: note_off channel=9 note=39 velocity=100 time=0
EXTRACT: note_off channel=9 note=85 velocity=100 time=0
EXTRACT: note_on channel=9 note=44 velocity=60 time=0.05625
EXTRACT: note_on channel=3 note=61 velocity=100 time=0
EXTRACT: note_off channel=3 note=59 velocity=80 time=0.015625
EXTRACT: note_off channel=0 note=68 velocity=80 time=0.040625
EXTRACT: note_off channel=2 note=68 velocity=80 time=0
EXTRACT: note_off channel=9 note=44 velocity=50 time=0.0234375
EXTRACT: note_on channel=9 note=44 velocity=60 time=0.078125
EXTRACT: note_on channel=0 note=64 velocity=100 time=0
EXTRACT: note_on channel=2 note=64 velocity=100 time=0
EXTRACT: note_on channel=3 note=64 velocity=100 time=0
EXTRACT: note_off channel=3 note=61 velocity=80 time=0.060937500000000006
EXTRACT: note_off channel=9 note=44 velocity=50 time=0.0625
EXTRACT: note_on channel=9 note=44 velocity=60 time=0.037500000000000006
EXTRACT: note_on channel=3 note=66 velocity=100 time=0
EXTRACT: note_off channel=0 note=66 velocity=80 time=0.040625
EXTRACT: note_off channel=2 note=66 velocity=80 time=0
EXTRACT: note_off channel=3 note=64 velocity=80 time=0
EXTRACT: note_off channel=9 note=44 velocity=50 time=0.084375
EXTRACT: note_off channel=0 note=57 velocity=80 time=0.0171875
EXTRACT: note_off channel=2 note=57 velocity=80 time=0
EXTRACT: note_on channel=9 note=35 velocity=120 time=0.035937500000000004
EXTRACT: note_on channel=9 note=36 velocity=120 time=0
EXTRACT: note_on channel=9 note=44 velocity=60 time=0
EXTRACT: note_on channel=0 note=52 velocity=100 time=0
EXTRACT: note_on channel=2 note=52 velocity=100 time=0
EXTRACT: note_on channel=3 note=68 velocity=100 time=0
EXTRACT: note_off channel=3 note=66 velocity=80 time=0.0390625
EXTRACT: note_off channel=9 note=44 velocity=50 time=0.0203125
EXTRACT: note_off channel=9 note=36 velocity=100 time=0
EXTRACT: note_off channel=9 note=35 velocity=100 time=0
EXTRACT: note_on channel=9 note=44 velocity=60 time=0.05625
EXTRACT: note_off channel=3 note=68 velocity=80 time=0.021875000000000002
EXTRACT: note_off channel=0 note=64 velocity=80 time=0.0203125
EXTRACT: note_off channel=2 note=64 velocity=80 time=0
EXTRACT: note_off channel=9 note=44 velocity=50 time=0.0234375
EXTRACT: note_on channel=9 note=82 velocity=50 time=0.078125
EXTRACT: note_on channel=9 note=44 velocity=60 time=0
EXTRACT: note_on channel=0 note=59 velocity=100 time=0
EXTRACT: note_on channel=2 note=59 velocity=100 time=0
EXTRACT: note_on channel=3 note=68 velocity=100 time=0
EXTRACT: note_off channel=9 note=44 velocity=50 time=0.125
EXTRACT: note_off channel=9 note=82 velocity=40 time=0
EXTRACT: note_on channel=9 note=35 velocity=120 time=0.037500000000000006
EXTRACT: note_on channel=9 note=36 velocity=120 time=0
EXTRACT: note_on channel=9 note=44 velocity=60 time=0
EXTRACT: note_off channel=9 note=44 velocity=50 time=0.0390625
EXTRACT: note_off channel=9 note=36 velocity=100 time=0
EXTRACT: note_off channel=9 note=35 velocity=100 time=0
EXTRACT: note_off channel=3 note=68 velocity=80 time=0.037500000000000006
EXTRACT: note_on channel=9 note=85 velocity=120 time=0.040625
EXTRACT: note_on channel=9 note=39 velocity=120 time=0
EXTRACT: note_on channel=9 note=82 velocity=50 time=0
EXTRACT: note_on channel=9 note=54 velocity=100 time=0
EXTRACT: note_on channel=9 note=28 velocity=100 time=0
EXTRACT: note_on channel=9 note=44 velocity=60 time=0
EXTRACT: note_on channel=0 note=64 velocity=100 time=0
EXTRACT: note_on channel=2 note=64 velocity=100 time=0
EXTRACT: note_on channel=3 note=68 velocity=100 time=0
EXTRACT: note_off channel=9 note=44 velocity=50 time=0.125
EXTRACT: note_off channel=9 note=28 velocity=80 time=0
EXTRACT: note_off channel=9 note=54 velocity=80 time=0
EXTRACT: note_off channel=9 note=82 velocity=40 time=0
EXTRACT: note_off channel=9 note=39 velocity=100 time=0
EXTRACT: note_off channel=9 note=85 velocity=100 time=0
EXTRACT: note_on channel=9 note=44 velocity=60 time=0.05625
EXTRACT: note_off channel=9 note=44 velocity=50 time=0.07968750000000001
EXTRACT: note_on channel=9 note=44 velocity=60 time=0.078125
EXTRACT: note_off channel=0 note=59 velocity=80 time=0
EXTRACT: note_on channel=0 note=71 velocity=100 time=0
EXTRACT: note_off channel=2 note=59 velocity=80 time=0
EXTRACT: note_on channel=2 note=71 velocity=100 time=0
EXTRACT: note_off channel=3 note=68 velocity=80 time=0
EXTRACT: note_on channel=3 note=64 velocity=100 time=0
EXTRACT: note_off channel=9 note=44 velocity=50 time=0.125
EXTRACT: note_on channel=9 note=82 velocity=50 time=0.037500000000000006
EXTRACT: note_on channel=9 note=44 velocity=60 time=0
EXTRACT: note_off channel=9 note=44 velocity=50 time=0.10312500000000001
EXTRACT: note_off channel=9 note=82 velocity=40 time=0
EXTRACT: note_off channel=0 note=64 velocity=80 time=0.0171875
EXTRACT: note_off channel=2 note=64 velocity=80 time=0
EXTRACT: note_on channel=9 note=44 velocity=60 time=0.060937500000000006
EXTRACT: note_off channel=0 note=52 velocity=80 time=0
EXTRACT: note_on channel=0 note=47 velocity=100 time=0
EXTRACT: note_off channel=2 note=52 velocity=80 time=0
EXTRACT: note_on channel=2 note=47 velocity=100 time=0
EXTRACT: note_on channel=3 note=69 velocity=100 time=0
EXTRACT: note_off channel=3 note=64 velocity=80 time=0.0390625
EXTRACT: note_off channel=9 note=44 velocity=50 time=0.0859375
EXTRACT: note_on channel=9 note=82 velocity=50 time=0.037500000000000006
EXTRACT: note_on channel=9 note=44 velocity=60 time=0
EXTRACT: note_off channel=9 note=44 velocity=50 time=0.125
EXTRACT: note_off channel=9 note=82 velocity=40 time=0
EXTRACT: note_off channel=0 note=71 velocity=80 time=0.0171875
EXTRACT: note_off channel=2 note=71 velocity=80 time=0
EXTRACT: note_on channel=9 note=35 velocity=120 time=0.060937500000000006
EXTRACT: note_on channel=9 note=36 velocity=120 time=0
EXTRACT: note_on channel=9 note=82 velocity=50 time=0
EXTRACT: note_on channel=9 note=44 velocity=60 time=0
EXTRACT: note_on channel=0 note=59 velocity=100 time=0
EXTRACT: note_on channel=2 note=59 velocity=100 time=0
EXTRACT: note_off channel=3 note=69 velocity=80 time=0
EXTRACT: note_on channel=3 note=68 velocity=100 time=0
EXTRACT: note_off channel=9 note=44 velocity=50 time=0.125
EXTRACT: note_off channel=9 note=82 velocity=40 time=0
EXTRACT: note_off channel=9 note=36 velocity=100 time=0
EXTRACT: note_off channel=9 note=35 velocity=100 time=0
EXTRACT: note_on channel=9 note=44 velocity=60 time=0.028125
EXTRACT: note_off channel=9 note=44 velocity=50 time=0.125
EXTRACT: note_on channel=9 note=85 velocity=120 time=0.078125
EXTRACT: note_on channel=9 note=39 velocity=120 time=0
EXTRACT: note_on channel=9 note=54 velocity=100 time=0
EXTRACT: note_on channel=9 note=28 velocity=100 time=0
EXTRACT: note_on channel=9 note=44 velocity=60 time=0
EXTRACT: note_on channel=0 note=63 velocity=100 time=0
EXTRACT: note_on channel=2 note=63 velocity=100 time=0
EXTRACT: note_on channel=3 note=66 velocity=100 time=0
EXTRACT: note_off channel=3 note=68 velocity=80 time=0.0390625
EXTRACT: note_off channel=9 note=44 velocity=50 time=0.0859375
EXTRACT: note_off channel=9 note=28 velocity=80 time=0
EXTRACT: note_off channel=9 note=54 velocity=80 time=0
EXTRACT: note_off channel=9 note=39 velocity=100 time=0
EXTRACT: note_off channel=9 note=85 velocity=100 time=0
EXTRACT: note_on channel=9 note=44 velocity=60 time=0.040625
EXTRACT: note_off channel=9 note=44 velocity=50 time=0.125
EXTRACT: note_off channel=0 note=59 velocity=80 time=0.0171875
EXTRACT: note_off channel=2 note=59 velocity=80 time=0
EXTRACT: note_on channel=9 note=44 velocity=60 time=0.060937500000000006
EXTRACT: note_on channel=0 note=64 velocity=100 time=0
EXTRACT: note_on channel=2 note=64 velocity=100 time=0
EXTRACT: note_on channel=3 note=64 velocity=100 time=0
EXTRACT: note_off channel=3 note=66 velocity=80 time=0.040625
EXTRACT: note_off channel=9 note=44 velocity=50 time=0.0203125
EXTRACT: note_off channel=0 note=63 velocity=80 time=0.0171875
EXTRACT: note_off channel=2 note=63 velocity=80 time=0
EXTRACT: note_on channel=9 note=44 velocity=60 time=0.0203125
EXTRACT: note_off channel=9 note=44 velocity=50 time=0.125
EXTRACT: note_off channel=3 note=64 velocity=80 time=0.037500000000000006
EXTRACT: note_on channel=9 note=35 velocity=120 time=0.040625
EXTRACT: note_on channel=9 note=36 velocity=120 time=0
EXTRACT: note_on channel=9 note=44 velocity=60 time=0
EXTRACT: note_off channel=0 note=47 velocity=80 time=0
EXTRACT: note_on channel=0 note=62 velocity=100 time=0
EXTRACT: note_on channel=0 note=54 velocity=100 time=0
EXTRACT: note_on channel=0 note=57 velocity=100 time=0
EXTRACT: note_off channel=2 note=47 velocity=80 time=0
EXTRACT: note_on channel=2 note=62 velocity=100 time=0
EXTRACT: note_on channel=2 note=54 velocity=100 time=0
EXTRACT: note_on channel=2 note=57 velocity=100 time=0
EXTRACT: note_on channel=3 note=66 velocity=100 time=0
EXTRACT: note_off channel=9 note=44 velocity=50 time=0.125
EXTRACT: note_off channel=9 note=36 velocity=100 time=0
EXTRACT: note_off channel=9 note=35 velocity=100 time=0
EXTRACT: note_on channel=9 note=44 velocity=60 time=0.05625
EXTRACT: note_off channel=9 note=44 velocity=50 time=0.1234375
EXTRACT: note_on channel=9 note=82 velocity=50 time=0.078125
EXTRACT: note_on channel=9 note=44 velocity=60 time=0
EXTRACT: note_off channel=9 note=44 velocity=50 time=0.125
EXTRACT: note_off channel=9 note=82 velocity=40 time=0
EXTRACT: note_on channel=9 note=35 velocity=120 time=0.037500000000000006
EXTRACT: note_on channel=9 note=36 velocity=120 time=0
EXTRACT: note_on channel=9 note=44 velocity=60 time=0
EXTRACT: note_off channel=9 note=44 velocity=50 time=0.125
EXTRACT: note_off channel=9 note=36 velocity=100 time=0
EXTRACT: note_off channel=9 note=35 velocity=100 time=0
EXTRACT: note_on channel=9 note=85 velocity=120 time=0.078125
EXTRACT: note_on channel=9 note=39 velocity=120 time=0
EXTRACT: note_on channel=9 note=82 velocity=50 time=0
EXTRACT: note_on channel=9 note=54 velocity=100 time=0
EXTRACT: note_on channel=9 note=28 velocity=100 time=0
EXTRACT: note_on channel=9 note=44 velocity=60 time=0
EXTRACT: note_off channel=9 note=44 velocity=50 time=0.125
EXTRACT: note_off channel=9 note=28 velocity=80 time=0
EXTRACT: note_off channel=9 note=54 velocity=80 time=0
EXTRACT: note_off channel=9 note=82 velocity=40 time=0
EXTRACT: note_off channel=9 note=39 velocity=100 time=0
EXTRACT: note_off channel=9 note=85 velocity=100 time=0
EXTRACT: note_on channel=9 note=44 velocity=60 time=0.05625
EXTRACT: note_off channel=9 note=44 velocity=50 time=0.125
EXTRACT: note_on channel=9 note=44 velocity=60 time=0.078125
EXTRACT: note_off channel=9 note=44 velocity=50 time=0.125
EXTRACT: note_on channel=9 note=82 velocity=50 time=0.037500000000000006
EXTRACT: note_on channel=9 note=44 velocity=60 time=0
EXTRACT: note_off channel=9 note=44 velocity=50 time=0.125
EXTRACT: note_off channel=9 note=82 velocity=40 time=0
EXTRACT: note_on channel=9 note=44 velocity=60 time=0.078125
EXTRACT: note_off channel=3 note=66 velocity=80 time=0
EXTRACT: note_off channel=9 note=44 velocity=50 time=0.125
EXTRACT: note_on channel=9 note=82 velocity=50 time=0.05625
EXTRACT: note_on channel=9 note=44 velocity=60 time=0
EXTRACT: note_off channel=9 note=44 velocity=50 time=0.125
EXTRACT: note_off channel=9 note=82 velocity=40 time=0
EXTRACT: note_on channel=9 note=35 velocity=120 time=0.078125
EXTRACT: note_on channel=9 note=36 velocity=120 time=0
EXTRACT: note_on channel=9 note=82 velocity=50 time=0
EXTRACT: note_on channel=9 note=44 velocity=60 time=0
EXTRACT: note_off channel=9 note=44 velocity=50 time=0.125
EXTRACT: note_off channel=9 note=82 velocity=40 time=0
EXTRACT: note_off channel=9 note=36 velocity=100 time=0
EXTRACT: note_off channel=9 note=35 velocity=100 time=0
EXTRACT: note_on channel=9 note=44 velocity=60 time=0.037500000000000006
EXTRACT: note_off channel=9 note=44 velocity=50 time=0.125
EXTRACT: note_on channel=9 note=85 velocity=120 time=0.078125
EXTRACT: note_on channel=9 note=39 velocity=120 time=0
EXTRACT: note_on channel=9 note=54 velocity=100 time=0
EXTRACT: note_on channel=9 note=28 velocity=100 time=0
EXTRACT: note_on channel=9 note=44 velocity=60 time=0
EXTRACT: note_on channel=3 note=61 velocity=100 time=0
EXTRACT: note_off channel=9 note=44 velocity=50 time=0.125
EXTRACT: note_off channel=9 note=28 velocity=80 time=0
EXTRACT: note_off channel=9 note=54 velocity=80 time=0
EXTRACT: note_off channel=9 note=39 velocity=100 time=0
EXTRACT: note_off channel=9 note=85 velocity=100 time=0
EXTRACT: note_on channel=9 note=44 velocity=60 time=0.05625
EXTRACT: note_off channel=9 note=44 velocity=50 time=0.0765625
EXTRACT: note_on channel=9 note=44 velocity=60 time=0.078125
EXTRACT: note_on channel=3 note=64 velocity=100 time=0
EXTRACT: note_off channel=3 note=61 velocity=80 time=0.040625
EXTRACT: note_off channel=9 note=44 velocity=50 time=0.084375
EXTRACT: note_on channel=9 note=44 velocity=60 time=0.0171875
EXTRACT: note_off channel=9 note=44 velocity=50 time=0.125
EXTRACT: note_off channel=0 note=64 velocity=80 time=0.0171875
EXTRACT: note_off channel=0 note=62 velocity=80 time=0
EXTRACT: note_off channel=2 note=64 velocity=80 time=0
EXTRACT: note_off channel=2 note=62 velocity=80 time=0
EXTRACT: note_off channel=0 note=57 velocity=80 time=0.0203125
EXTRACT: note_off channel=2 note=57 velocity=80 time=0
EXTRACT: note_on channel=9 note=35 velocity=120 time=0.040625
EXTRACT: note_on channel=9 note=36 velocity=120 time=0
EXTRACT: note_on channel=9 note=44 velocity=60 time=0
EXTRACT: note_off channel=0 note=54 velocity=80 time=0
EXTRACT: note_on channel=0 note=56 velocity=100 time=0
EXTRACT: note_on channel=0 note=59 velocity=100 time=0
EXTRACT: note_on channel=0 note=52 velocity=120 time=0
EXTRACT: note_on channel=0 note=40 velocity=100 time=0
EXTRACT: note_off channel=2 note=54 velocity=80 time=0
EXTRACT: note_on channel=2 note=56 velocity=100 time=0
EXTRACT: note_on channel=2 note=59 velocity=100 time=0
EXTRACT: note_on channel=2 note=52 velocity=120 time=0
EXTRACT: note_on channel=2 note=40 velocity=100 time=0
EXTRACT: note_on channel=3 note=68 velocity=100 time=0
EXTRACT: note_off channel=3 note=64 velocity=80 time=0.0203125
EXTRACT: note_off channel=9 note=44 velocity=50 time=0.1046875
EXTRACT: note_off channel=9 note=36 velocity=100 time=0
EXTRACT: note_off channel=9 note=35 velocity=100 time=0
EXTRACT: note_on channel=9 note=44 velocity=60 time=0.026562500000000003
EXTRACT: note_off channel=9 note=44 velocity=50 time=0.125
EXTRACT: note_on channel=9 note=82 velocity=50 time=0.078125
EXTRACT: note_on channel=9 note=44 velocity=60 time=0
EXTRACT: note_on channel=3 note=66 velocity=100 time=0
EXTRACT: note_off channel=3 note=68 velocity=80 time=0.0203125
EXTRACT: note_off channel=9 note=44 velocity=50 time=0.1046875
EXTRACT: note_off channel=9 note=82 velocity=40 time=0
EXTRACT: note_on channel=9 note=35 velocity=120 time=0.037500000000000006
EXTRACT: note_on channel=9 note=36 velocity=120 time=0
EXTRACT: note_on channel=9 note=44 velocity=60 time=0
EXTRACT: note_off channel=9 note=44 velocity=50 time=0.1203125
EXTRACT: note_off channel=9 note=36 velocity=100 time=0
EXTRACT: note_off channel=9 note=35 velocity=100 time=0
EXTRACT: note_off channel=3 note=66 velocity=80 time=0.0578125
EXTRACT: note_on channel=9 note=85 velocity=120 time=0.0203125
EXTRACT: note_on channel=9 note=39 velocity=120 time=0
EXTRACT: note_on channel=9 note=82 velocity=50 time=0
EXTRACT: note_on channel=9 note=54 velocity=100 time=0
EXTRACT: note_on channel=9 note=28 velocity=100 time=0
EXTRACT: note_on channel=9 note=44 velocity=60 time=0
EXTRACT: note_off channel=0 note=59 velocity=80 time=0
EXTRACT: note_off channel=0 note=56 velocity=80 time=0
EXTRACT: note_on channel=0 note=56 velocity=100 time=0
EXTRACT: note_on channel=0 note=59 velocity=100 time=0
EXTRACT: note_off channel=2 note=59 velocity=80 time=0
EXTRACT: note_off channel=2 note=56 velocity=80 time=0
EXTRACT: note_on channel=2 note=56 velocity=100 time=0
EXTRACT: note_on channel=2 note=59 velocity=100 time=0
EXTRACT: note_on channel=3 note=66 velocity=100 time=0
EXTRACT: note_off channel=9 note=44 velocity=50 time=0.125
EXTRACT: note_off channel=9 note=28 velocity=80 time=0
EXTRACT: note_off channel=9 note=54 velocity=80 time=0
EXTRACT: note_off channel=9 note=82 velocity=40 time=0
EXTRACT: note_off channel=9 note=39 velocity=100 time=0
EXTRACT: note_off channel=9 note=85 velocity=100 time=0
EXTRACT: note_on channel=9 note=44 velocity=60 time=0.015625
EXTRACT: note_off channel=9 note=44 velocity=50 time=0.125
EXTRACT: note_on channel=9 note=44 velocity=60 time=0.078125
EXTRACT: note_on channel=3 note=61 velocity=100 time=0
EXTRACT: note_off channel=3 note=66 velocity=80 time=0.0203125
EXTRACT: note_off channel=9 note=44 velocity=50 time=0.1046875
EXTRACT: note_on channel=9 note=82 velocity=50 time=0.0171875
EXTRACT: note_on channel=9 note=44 velocity=60 time=0
EXTRACT: note_off channel=9 note=44 velocity=50 time=0.125
EXTRACT: note_off channel=9 note=82 velocity=40 time=0
EXTRACT: note_on channel=9 note=44 velocity=60 time=0.078125
EXTRACT: note_on channel=0 note=54 velocity=100 time=0
EXTRACT: note_on channel=0 note=51 velocity=100 time=0
EXTRACT: note_on channel=0 note=47 velocity=120 time=0
EXTRACT: note_on channel=0 note=35 velocity=100 time=0
EXTRACT: note_on channel=2 note=54 velocity=100 time=0
EXTRACT: note_on channel=2 note=51 velocity=100 time=0
EXTRACT: note_on channel=2 note=47 velocity=120 time=0
EXTRACT: note_on channel=2 note=35 velocity=100 time=0
EXTRACT: note_on channel=3 note=66 velocity=100 time=0
EXTRACT: note_off channel=0 note=40 velocity=80 time=0.018750000000000003
EXTRACT: note_off channel=2 note=40 velocity=80 time=0
EXTRACT: note_off channel=3 note=61 velocity=80 time=0.0015625
EXTRACT: note_off channel=0 note=59 velocity=80 time=0.018750000000000003
EXTRACT: note_off channel=2 note=59 velocity=80 time=0
EXTRACT: note_off channel=0 note=52 velocity=120 time=0.0203125
EXTRACT: note_off channel=0 note=56 velocity=80 time=0
EXTRACT: note_off channel=2 note=52 velocity=120 time=0
EXTRACT: note_off channel=2 note=56 velocity=80 time=0
EXTRACT: note_off channel=9 note=44 velocity=50 time=0.065625
EXTRACT: note_on channel=9 note=82 velocity=50 time=0.05625
EXTRACT: note_on channel=9 note=44 velocity=60 time=0
EXTRACT: note_off channel=9 note=44 velocity=50 time=0.115625
EXTRACT: note_off channel=9 note=82 velocity=40 time=0
EXTRACT: note_on channel=9 note=35 velocity=120 time=0.078125
EXTRACT: note_on channel=9 note=36 velocity=120 time=0
EXTRACT: note_on channel=9 note=82 velocity=50 time=0
EXTRACT: note_on channel=9 note=44 velocity=60 time=0
EXTRACT: note_off channel=9 note=44 velocity=50 time=0.125
EXTRACT: note_off channel=9 note=82 velocity=40 time=0
EXTRACT: note_off channel=9 note=36 velocity=100 time=0
EXTRACT: note_off channel=9 note=35 velocity=100 time=0
EXTRACT: note_on channel=9 note=44 velocity=60 time=0.037500000000000006
EXTRACT: note_off channel=9 note=44 velocity=50 time=0.125
EXTRACT: note_off channel=0 note=54 velocity=80 time=0.037500000000000006
EXTRACT: note_off channel=2 note=54 velocity=80 time=0
EXTRACT: note_on channel=9 note=85 velocity=120 time=0.040625
EXTRACT: note_on channel=9 note=39 velocity=120 time=0
EXTRACT: note_on channel=9 note=54 velocity=100 time=0
EXTRACT: note_on channel=9 note=28 velocity=100 time=0
EXTRACT: note_on channel=9 note=44 velocity=60 time=0
EXTRACT: note_off channel=0 note=51 velocity=80 time=0
EXTRACT: note_on channel=0 note=51 velocity=100 time=0
EXTRACT: note_on channel=0 note=54 velocity=100 time=0
EXTRACT: note_off channel=2 note=51 velocity=80 time=0
EXTRACT: note_on channel=2 note=51 velocity=100 time=0
EXTRACT: note_on channel=2 note=54 velocity=100 time=0
EXTRACT: note_on channel=5 note=61 velocity=100 time=0
EXTRACT: note_off channel=9 note=44 velocity=50 time=0.125
EXTRACT: note_off channel=9 note=28 velocity=80 time=0
EXTRACT: note_off channel=9 note=54 velocity=80 time=0
EXTRACT: note_off channel=9 note=39 velocity=100 time=0
EXTRACT: note_off channel=9 note=85 velocity=100 time=0
EXTRACT: note_on channel=9 note=44 velocity=60 time=0.05625
EXTRACT: note_off channel=9 note=44 velocity=50 time=0.125
EXTRACT: note_off channel=5 note=61 velocity=80 time=0.0171875
EXTRACT: note_on channel=9 note=44 velocity=60 time=0.060937500000000006
EXTRACT: note_on channel=5 note=59 velocity=100 time=0
EXTRACT: note_off channel=3 note=66 velocity=80 time=0.12187500000000001
EXTRACT: note_off channel=9 note=44 velocity=50 time=0.003125
EXTRACT: note_on channel=9 note=44 velocity=60 time=0.037500000000000006
EXTRACT: note_off channel=9 note=44 velocity=50 time=0.125
EXTRACT: note_off channel=0 note=35 velocity=80 time=0.037500000000000006
EXTRACT: note_off channel=2 note=35 velocity=80 time=0
EXTRACT: note_on channel=9 note=35 velocity=120 time=0.040625
EXTRACT: note_on channel=9 note=36 velocity=120 time=0
EXTRACT: note_on channel=9 note=44 velocity=60 time=0
EXTRACT: note_off channel=0 note=47 velocity=120 time=0
EXTRACT: note_off channel=0 note=51 velocity=80 time=0
EXTRACT: note_on channel=0 note=49 velocity=120 time=0
EXTRACT: note_on channel=0 note=56 velocity=100 time=0
EXTRACT: note_on channel=0 note=52 velocity=100 time=0
EXTRACT: note_on channel=0 note=37 velocity=100 time=0
EXTRACT: note_off channel=2 note=47 velocity=120 time=0
EXTRACT: note_off channel=2 note=51 velocity=80 time=0
EXTRACT: note_on channel=2 note=49 velocity=120 time=0
EXTRACT: note_on channel=2 note=56 velocity=100 time=0
EXTRACT: note_on channel=2 note=52 velocity=100 time=0
EXTRACT: note_on channel=2 note=37 velocity=100 time=0
EXTRACT: note_on channel=3 note=66 velocity=100 time=0
EXTRACT: note_off channel=0 note=54 velocity=80 time=0.018750000000000003
EXTRACT: note_off channel=2 note=54 velocity=80 time=0
EXTRACT: note_off channel=9 note=44 velocity=50 time=0.065625
EXTRACT: note_off channel=9 note=36 velocity=100 time=0
EXTRACT: note_off channel=9 note=35 velocity=100 time=0
EXTRACT: note_on channel=9 note=44 velocity=60 time=0.05625
EXTRACT: note_off channel=9 note=44 velocity=50 time=0.0703125
EXTRACT: note_on channel=9 note=82 velocity=50 time=0.078125
EXTRACT: note_on channel=9 note=44 velocity=60 time=0
EXTRACT: note_on channel=3 note=64 velocity=100 time=0
EXTRACT: note_off channel=3 note=66 velocity=80 time=0.0203125
EXTRACT: note_off channel=9 note=44 velocity=50 time=0.1046875
EXTRACT: note_off channel=9 note=82 velocity=40 time=0
EXTRACT: note_on channel=9 note=35 velocity=120 time=0.037500000000000006
EXTRACT: note_on channel=9 note=36 velocity=120 time=0
EXTRACT: note_on channel=9 note=44 velocity=60 time=0
EXTRACT: note_off channel=9 note=44 velocity=50 time=0.0765625
EXTRACT: note_off channel=9 note=36 velocity=100 time=0
EXTRACT: note_off channel=9 note=35 velocity=100 time=0
EXTRACT: note_off channel=3 note=64 velocity=80 time=0.0578125
EXTRACT: note_on channel=9 note=85 velocity=120 time=0.0203125
EXTRACT: note_on channel=9 note=39 velocity=120 time=0
EXTRACT: note_on channel=9 note=82 velocity=50 time=0
EXTRACT: note_on channel=9 note=54 velocity=100 time=0
EXTRACT: note_on channel=9 note=28 velocity=100 time=0
EXTRACT: note_on channel=9 note=44 velocity=60 time=0
EXTRACT: note_off channel=0 note=56 velocity=80 time=0
EXTRACT: note_off channel=0 note=52 velocity=80 time=0
EXTRACT: note_on channel=0 note=56 velocity=100 time=0
EXTRACT: note_on channel=0 note=52 velocity=100 time=0
EXTRACT: note_off channel=2 note=56 velocity=80 time=0
EXTRACT: note_off channel=2 note=52 velocity=80 time=0
EXTRACT: note_on channel=2 note=56 velocity=100 time=0
EXTRACT: note_on channel=2 note=52 velocity=100 time=0
EXTRACT: note_on channel=3 note=64 velocity=100 time=0
EXTRACT: note_off channel=5 note=59 velocity=80 time=0.0203125
EXTRACT: note_off channel=9 note=44 velocity=50 time=0.1046875
EXTRACT: note_off channel=9 note=28 velocity=80 time=0
EXTRACT: note_off channel=9 note=54 velocity=80 time=0
EXTRACT: note_off channel=9 note=82 velocity=40 time=0
EXTRACT: note_off channel=9 note=39 velocity=100 time=0
EXTRACT: note_off channel=9 note=85 velocity=100 time=0
EXTRACT: note_on channel=9 note=44 velocity=60 time=0.05625
EXTRACT: note_off channel=9 note=44 velocity=50 time=0.1171875
EXTRACT: note_on channel=9 note=44 velocity=60 time=0.078125
EXTRACT: note_on channel=3 note=59 velocity=100 time=0
EXTRACT: note_off channel=3 note=64 velocity=80 time=0.0203125
EXTRACT: note_off channel=9 note=44 velocity=50 time=0.1046875
EXTRACT: note_on channel=9 note=82 velocity=50 time=0.021875000000000002
EXTRACT: note_on channel=9 note=44 velocity=60 time=0
EXTRACT: note_off channel=9 note=44 velocity=50 time=0.125
EXTRACT: note_off channel=9 note=82 velocity=40 time=0
EXTRACT: note_on channel=9 note=44 velocity=60 time=0.078125
EXTRACT: note_off channel=0 note=52 velocity=80 time=0
EXTRACT: note_off channel=0 note=49 velocity=120 time=0
EXTRACT: note_off channel=0 note=37 velocity=80 time=0
EXTRACT: note_on channel=0 note=45 velocity=120 time=0
EXTRACT: note_on channel=0 note=49 velocity=100 time=0
EXTRACT: note_on channel=0 note=52 velocity=100 time=0
EXTRACT: note_on channel=0 note=33 velocity=100 time=0
EXTRACT: note_off channel=2 note=52 velocity=80 time=0
EXTRACT: note_off channel=2 note=49 velocity=120 time=0
EXTRACT: note_off channel=2 note=37 velocity=80 time=0
EXTRACT: note_on channel=2 note=45 velocity=120 time=0
EXTRACT: note_on channel=2 note=49 velocity=100 time=0
EXTRACT: note_on channel=2 note=52 velocity=100 time=0
EXTRACT: note_on channel=2 note=33 velocity=100 time=0
EXTRACT: note_on channel=3 note=63 velocity=100 time=0
EXTRACT: note_off channel=0 note=56 velocity=80 time=0.018750000000000003
EXTRACT: note_off channel=2 note=56 velocity=80 time=0
EXTRACT: note_off channel=3 note=59 velocity=80 time=0.0015625
EXTRACT: note_off channel=9 note=44 velocity=50 time=0.1046875
EXTRACT: note_on channel=9 note=82 velocity=50 time=0.029687500000000002
EXTRACT: note_on channel=9 note=44 velocity=60 time=0
EXTRACT: note_off channel=9 note=44 velocity=50 time=0.125
EXTRACT: note_off channel=9 note=82 velocity=40 time=0
EXTRACT: note_on channel=9 note=35 velocity=120 time=0.078125
EXTRACT: note_on channel=9 note=36 velocity=120 time=0
EXTRACT: note_on channel=9 note=82 velocity=50 time=0
EXTRACT: note_on channel=9 note=44 velocity=60 time=0
EXTRACT: note_off channel=9 note=44 velocity=50 time=0.125
EXTRACT: note_off channel=9 note=82 velocity=40 time=0
EXTRACT: note_off channel=9 note=36 velocity=100 time=0
EXTRACT: note_off channel=9 note=35 velocity=100 time=0
EXTRACT: note_on channel=9 note=44 velocity=60 time=0.037500000000000006
EXTRACT: note_off channel=9 note=44 velocity=50 time=0.125
EXTRACT: note_on channel=9 note=85 velocity=120 time=0.078125
EXTRACT: note_on channel=9 note=39 velocity=120 time=0
EXTRACT: note_on channel=9 note=54 velocity=100 time=0
EXTRACT: note_on channel=9 note=28 velocity=100 time=0
EXTRACT: note_on channel=9 note=44 velocity=60 time=0
EXTRACT: note_off channel=0 note=49 velocity=80 time=0
EXTRACT: note_off channel=0 note=52 velocity=80 time=0
EXTRACT: note_on channel=0 note=49 velocity=100 time=0
EXTRACT: note_on channel=0 note=52 velocity=100 time=0
EXTRACT: note_off channel=2 note=49 velocity=80 time=0
EXTRACT: note_off channel=2 note=52 velocity=80 time=0
EXTRACT: note_on channel=2 note=49 velocity=100 time=0
EXTRACT: note_on channel=2 note=52 velocity=100 time=0
EXTRACT: note_on channel=3 note=64 velocity=100 time=0
EXTRACT: note_off channel=3 note=63 velocity=80 time=0.059375000000000004
EXTRACT: note_off channel=9 note=44 velocity=50 time=0.065625
EXTRACT: note_off channel=9 note=28 velocity=80 time=0
EXTRACT: note_off channel=9 note=54 velocity=80 time=0
EXTRACT: note_off channel=9 note=39 velocity=100 time=0
EXTRACT: note_off channel=9 note=85 velocity=100 time=0
EXTRACT: note_on channel=9 note=44 velocity=60 time=0.05625
EXTRACT: note_off channel=9 note=44 velocity=50 time=0.0765625
EXTRACT: note_on channel=9 note=44 velocity=60 time=0.078125
EXTRACT: note_off channel=3 note=64 velocity=80 time=0.1015625
EXTRACT: note_off channel=9 note=44 velocity=50 time=0.0234375
EXTRACT: note_on channel=9 note=44 velocity=60 time=0.037500000000000006
EXTRACT: note_on channel=3 note=64 velocity=100 time=0
EXTRACT: note_off channel=9 note=44 velocity=50 time=0.125
EXTRACT: note_on channel=9 note=35 velocity=120 time=0.078125
EXTRACT: note_on channel=9 note=36 velocity=120 time=0
EXTRACT: note_on channel=9 note=44 velocity=60 time=0
EXTRACT: note_off channel=0 note=52 velocity=80 time=0
EXTRACT: note_off channel=0 note=33 velocity=80 time=0
EXTRACT: note_off channel=0 note=49 velocity=80 time=0
EXTRACT: note_on channel=0 note=56 velocity=100 time=0
EXTRACT: note_on channel=0 note=59 velocity=100 time=0
EXTRACT: note_on channel=0 note=52 velocity=120 time=0
EXTRACT: note_on channel=0 note=40 velocity=100 time=0
EXTRACT: note_off channel=2 note=52 velocity=80 time=0
EXTRACT: note_off channel=2 note=33 velocity=80 time=0
EXTRACT: note_off channel=2 note=49 velocity=80 time=0
EXTRACT: note_on channel=2 note=56 velocity=100 time=0
EXTRACT: note_on channel=2 note=59 velocity=100 time=0
EXTRACT: note_on channel=2 note=52 velocity=120 time=0
EXTRACT: note_on channel=2 note=40 velocity=100 time=0
EXTRACT: note_on channel=3 note=68 velocity=100 time=0
EXTRACT: note_off channel=0 note=45 velocity=120 time=0.018750000000000003
EXTRACT: note_off channel=2 note=45 velocity=120 time=0
EXTRACT: note_off channel=3 note=64 velocity=80 time=0.0203125
EXTRACT: note_off channel=9 note=44 velocity=50 time=0.078125
EXTRACT: note_off channel=9 note=36 velocity=100 time=0
EXTRACT: note_off channel=9 note=35 velocity=100 time=0
EXTRACT: note_on channel=9 note=44 velocity=60 time=0.05625
EXTRACT: note_off channel=9 note=44 velocity=50 time=0.11093750000000001
EXTRACT: note_on channel=9 note=82 velocity=50 time=0.078125
EXTRACT: note_on channel=9 note=44 velocity=60 time=0
EXTRACT: note_on channel=3 note=66 velocity=100 time=0
EXTRACT: note_off channel=3 note=68 velocity=80 time=0.0203125
EXTRACT: note_off channel=9 note=44 velocity=50 time=0.1046875
EXTRACT: note_off channel=9 note=82 velocity=40 time=0
EXTRACT: note_on channel=9 note=35 velocity=120 time=0.0078125
EXTRACT: note_on channel=9 note=36 velocity=120 time=0
EXTRACT: note_on channel=9 note=44 velocity=60 time=0
EXTRACT: note_off channel=9 note=44 velocity=50 time=0.125
EXTRACT: note_off channel=9 note=36 velocity=100 time=0
EXTRACT: note_off channel=9 note=35 velocity=100 time=0
EXTRACT: note_off channel=3 note=66 velocity=80 time=0.0578125
EXTRACT: note_on channel=9 note=85 velocity=120 time=0.0203125
EXTRACT: note_on channel=9 note=39 velocity=120 time=0
EXTRACT: note_on channel=9 note=82 velocity=50 time=0
EXTRACT: note_on channel=9 note=54 velocity=100 time=0
EXTRACT: note_on channel=9 note=28 velocity=100 time=0
EXTRACT: note_on channel=9 note=44 velocity=60 time=0
EXTRACT: note_off channel=0 note=56 velocity=80 time=0
EXTRACT: note_off channel=0 note=59 velocity=80 time=0
EXTRACT: note_on channel=0 note=56 velocity=100 time=0
EXTRACT: note_on channel=0 note=59 velocity=100 time=0
EXTRACT: note_off channel=2 note=56 velocity=80 time=0
EXTRACT: note_off channel=2 note=59 velocity=80 time=0
EXTRACT: note_on channel=2 note=56 velocity=100 time=0
EXTRACT: note_on channel=2 note=59 velocity=100 time=0
EXTRACT: note_on channel=3 note=66 velocity=100 time=0
EXTRACT: note_off channel=9 note=44 velocity=50 time=0.125
EXTRACT: note_off channel=9 note=28 velocity=80 time=0
EXTRACT: note_off channel=9 note=54 velocity=80 time=0
EXTRACT: note_off channel=9 note=82 velocity=40 time=0
EXTRACT: note_off channel=9 note=39 velocity=100 time=0
EXTRACT: note_off channel=9 note=85 velocity=100 time=0
EXTRACT: note_on channel=9 note=44 velocity=60 time=0.040625
EXTRACT: note_off channel=9 note=44 velocity=50 time=0.125
EXTRACT: note_on channel=9 note=44 velocity=60 time=0.078125
EXTRACT: note_off channel=3 note=66 velocity=80 time=0.0203125
EXTRACT: note_off channel=9 note=44 velocity=50 time=0.1046875
EXTRACT: note_on channel=9 note=82 velocity=50 time=0.037500000000000006
EXTRACT: note_on channel=9 note=44 velocity=60 time=0
EXTRACT: note_on channel=3 note=64 velocity=100 time=0
EXTRACT: note_off channel=9 note=44 velocity=50 time=0.11875000000000001
EXTRACT: note_off channel=9 note=82 velocity=40 time=0
EXTRACT: note_on channel=9 note=44 velocity=60 time=0.078125
EXTRACT: note_on channel=0 note=54 velocity=100 time=0
EXTRACT: note_on channel=0 note=51 velocity=100 time=0
EXTRACT: note_on channel=0 note=47 velocity=120 time=0
EXTRACT: note_on channel=0 note=35 velocity=100 time=0
EXTRACT: note_on channel=2 note=54 velocity=100 time=0
EXTRACT: note_on channel=2 note=51 velocity=100 time=0
EXTRACT: note_on channel=2 note=47 velocity=120 time=0
EXTRACT: note_on channel=2 note=35 velocity=100 time=0
EXTRACT: note_on channel=3 note=66 velocity=100 time=0
EXTRACT: note_off channel=0 note=40 velocity=80 time=0.018750000000000003
EXTRACT: note_off channel=2 note=40 velocity=80 time=0
EXTRACT: note_off channel=0 note=59 velocity=80 time=0.0203125
EXTRACT: note_off channel=2 note=59 velocity=80 time=0
EXTRACT: note_off channel=0 note=52 velocity=120 time=0.0203125
EXTRACT: note_off channel=0 note=56 velocity=80 time=0
EXTRACT: note_off channel=2 note=52 velocity=120 time=0
EXTRACT: note_off channel=2 note=56 velocity=80 time=0
EXTRACT: note_off channel=3 note=64 velocity=80 time=0
EXTRACT: note_off channel=9 note=44 velocity=50 time=0.065625
EXTRACT: note_on channel=9 note=82 velocity=50 time=0.0015625
EXTRACT: note_on channel=9 note=44 velocity=60 time=0
EXTRACT: note_off channel=9 note=44 velocity=50 time=0.125
EXTRACT: note_off channel=9 note=82 velocity=40 time=0
EXTRACT: note_on channel=9 note=35 velocity=120 time=0.078125
EXTRACT: note_on channel=9 note=36 velocity=120 time=0
EXTRACT: note_on channel=9 note=82 velocity=50 time=0
EXTRACT: note_on channel=9 note=44 velocity=60 time=0
EXTRACT: note_off channel=9 note=44 velocity=50 time=0.125
EXTRACT: note_off channel=9 note=82 velocity=40 time=0
EXTRACT: note_off channel=9 note=36 velocity=100 time=0
EXTRACT: note_off channel=9 note=35 velocity=100 time=0
EXTRACT: note_on channel=9 note=44 velocity=60 time=0.037500000000000006
EXTRACT: note_off channel=9 note=44 velocity=50 time=0.125
EXTRACT: note_off channel=0 note=54 velocity=80 time=0.037500000000000006
EXTRACT: note_off channel=2 note=54 velocity=80 time=0
EXTRACT: note_on channel=9 note=85 velocity=120 time=0.040625
EXTRACT: note_on channel=9 note=39 velocity=120 time=0
EXTRACT: note_on channel=9 note=54 velocity=100 time=0
EXTRACT: note_on channel=9 note=28 velocity=100 time=0
EXTRACT: note_on channel=9 note=44 velocity=60 time=0
EXTRACT: note_off channel=0 note=51 velocity=80 time=0
EXTRACT: note_on channel=0 note=51 velocity=100 time=0
EXTRACT: note_on channel=0 note=54 velocity=100 time=0
EXTRACT: note_off channel=2 note=51 velocity=80 time=0
EXTRACT: note_on channel=2 note=51 velocity=100 time=0
EXTRACT: note_on channel=2 note=54 velocity=100 time=0
EXTRACT: note_on channel=5 note=61 velocity=100 time=0
EXTRACT: note_off channel=9 note=44 velocity=50 time=0.125
EXTRACT: note_off channel=9 note=28 velocity=80 time=0
EXTRACT: note_off channel=9 note=54 velocity=80 time=0
EXTRACT: note_off channel=9 note=39 velocity=100 time=0
EXTRACT: note_off channel=9 note=85 velocity=100 time=0
EXTRACT: note_on channel=9 note=44 velocity=60 time=0.05625
EXTRACT: note_off channel=9 note=44 velocity=50 time=0.125
EXTRACT: note_off channel=5 note=61 velocity=80 time=0.0171875
EXTRACT: note_on channel=9 note=44 velocity=60 time=0.060937500000000006
EXTRACT: note_on channel=5 note=59 velocity=100 time=0
EXTRACT: note_off channel=3 note=66 velocity=80 time=0.12187500000000001
EXTRACT: note_off channel=9 note=44 velocity=50 time=0.003125
EXTRACT: note_on channel=9 note=44 velocity=60 time=0.037500000000000006
EXTRACT: note_off channel=9 note=44 velocity=50 time=0.125
EXTRACT: note_off channel=0 note=35 velocity=80 time=0.037500000000000006
EXTRACT: note_off channel=2 note=35 velocity=80 time=0
EXTRACT: note_on channel=9 note=35 velocity=120 time=0.040625
EXTRACT: note_on channel=9 note=36 velocity=120 time=0
EXTRACT: note_on channel=9 note=44 velocity=60 time=0
EXTRACT: note_off channel=0 note=47 velocity=120 time=0
EXTRACT: note_off channel=0 note=51 velocity=80 time=0
EXTRACT: note_on channel=0 note=49 velocity=120 time=0
EXTRACT: note_on channel=0 note=56 velocity=100 time=0
EXTRACT: note_on channel=0 note=52 velocity=100 time=0
EXTRACT: note_on channel=0 note=37 velocity=100 time=0
EXTRACT: note_off channel=2 note=47 velocity=120 time=0
EXTRACT: note_off channel=2 note=51 velocity=80 time=0
EXTRACT: note_on channel=2 note=49 velocity=120 time=0
EXTRACT: note_on channel=2 note=56 velocity=100 time=0
EXTRACT: note_on channel=2 note=52 velocity=100 time=0
EXTRACT: note_on channel=2 note=37 velocity=100 time=0
EXTRACT: note_on channel=3 note=66 velocity=100 time=0
EXTRACT: note_off channel=0 note=54 velocity=80 time=0.018750000000000003
EXTRACT: note_off channel=2 note=54 velocity=80 time=0
EXTRACT: note_off channel=9 note=44 velocity=50 time=0.10625000000000001
EXTRACT: note_off channel=9 note=36 velocity=100 time=0
EXTRACT: note_off channel=9 note=35 velocity=100 time=0
EXTRACT: note_on channel=9 note=44 velocity=60 time=0.05625
EXTRACT: note_off channel=9 note=44 velocity=50 time=0.12187500000000001
EXTRACT: note_on channel=9 note=82 velocity=50 time=0.078125
EXTRACT: note_on channel=9 note=44 velocity=60 time=0
EXTRACT: note_on channel=3 note=64 velocity=100 time=0
EXTRACT: note_off channel=3 note=66 velocity=80 time=0.0203125
EXTRACT: note_off channel=9 note=44 velocity=50 time=0.1046875
EXTRACT: note_off channel=9 note=82 velocity=40 time=0
EXTRACT: note_on channel=9 note=35 velocity=120 time=0.03125
EXTRACT: note_on channel=9 note=36 velocity=120 time=0
EXTRACT: note_on channel=9 note=44 velocity=60 time=0
EXTRACT: note_off channel=9 note=44 velocity=50 time=0.125
EXTRACT: note_off channel=9 note=36 velocity=100 time=0
EXTRACT: note_off channel=9 note=35 velocity=100 time=0
EXTRACT: note_off channel=3 note=64 velocity=80 time=0.0578125
EXTRACT: note_on channel=9 note=85 velocity=120 time=0.0203125
EXTRACT: note_on channel=9 note=39 velocity=120 time=0
EXTRACT: note_on channel=9 note=82 velocity=50 time=0
EXTRACT: note_on channel=9 note=54 velocity=100 time=0
EXTRACT: note_on channel=9 note=28 velocity=100 time=0
EXTRACT: note_on channel=9 note=44 velocity=60 time=0
EXTRACT: note_off channel=0 note=56 velocity=80 time=0
EXTRACT: note_off channel=0 note=52 velocity=80 time=0
EXTRACT: note_on channel=0 note=56 velocity=100 time=0
EXTRACT: note_on channel=0 note=52 velocity=100 time=0
EXTRACT: note_off channel=2 note=56 velocity=80 time=0
EXTRACT: note_off channel=2 note=52 velocity=80 time=0
EXTRACT: note_on channel=2 note=56 velocity=100 time=0
EXTRACT: note_on channel=2 note=52 velocity=100 time=0
EXTRACT: note_on channel=3 note=64 velocity=100 time=0
EXTRACT: note_off channel=5 note=59 velocity=80 time=0.0203125
EXTRACT: note_off channel=9 note=44 velocity=50 time=0.1046875
EXTRACT: note_off channel=9 note=28 velocity=80 time=0
EXTRACT: note_off channel=9 note=54 velocity=80 time=0
EXTRACT: note_off channel=9 note=82 velocity=40 time=0
EXTRACT: note_off channel=9 note=39 velocity=100 time=0
EXTRACT: note_off channel=9 note=85 velocity=100 time=0
EXTRACT: note_on channel=9 note=44 velocity=60 time=0.046875
EXTRACT: note_off channel=9 note=44 velocity=50 time=0.125
EXTRACT: note_on channel=9 note=44 velocity=60 time=0.078125
EXTRACT: note_on channel=3 note=59 velocity=100 time=0
EXTRACT: note_off channel=3 note=64 velocity=80 time=0.0203125
EXTRACT: note_off channel=9 note=44 velocity=50 time=0.1046875
EXTRACT: note_on channel=9 note=82 velocity=50 time=0.025
EXTRACT: note_on channel=9 note=44 velocity=60 time=0
EXTRACT: note_off channel=9 note=44 velocity=50 time=0.125
EXTRACT: note_off channel=9 note=82 velocity=40 time=0
EXTRACT: note_on channel=9 note=44 velocity=60 time=0.078125
EXTRACT: note_off channel=0 note=52 velocity=80 time=0
EXTRACT: note_off channel=0 note=49 velocity=120 time=0
EXTRACT: note_off channel=0 note=37 velocity=80 time=0
EXTRACT: note_on channel=0 note=45 velocity=120 time=0
EXTRACT: note_on channel=0 note=49 velocity=100 time=0
EXTRACT: note_on channel=0 note=52 velocity=100 time=0
EXTRACT: note_on channel=0 note=33 velocity=100 time=0
EXTRACT: note_off channel=2 note=52 velocity=80 time=0
EXTRACT: note_off channel=2 note=49 velocity=120 time=0
EXTRACT: note_off channel=2 note=37 velocity=80 time=0
EXTRACT: note_on channel=2 note=45 velocity=120 time=0
EXTRACT: note_on channel=2 note=49 velocity=100 time=0
EXTRACT: note_on channel=2 note=52 velocity=100 time=0
EXTRACT: note_on channel=2 note=33 velocity=100 time=0
EXTRACT: note_on channel=3 note=63 velocity=100 time=0
EXTRACT: note_off channel=0 note=56 velocity=80 time=0.018750000000000003
EXTRACT: note_off channel=2 note=56 velocity=80 time=0
EXTRACT: note_off channel=3 note=59 velocity=80 time=0.0015625
EXTRACT: note_off channel=9 note=44 velocity=50 time=0.004687500000000001
EXTRACT: note_on channel=9 note=82 velocity=50 time=0.05625
EXTRACT: note_on channel=9 note=44 velocity=60 time=0
EXTRACT: note_off channel=9 note=44 velocity=50 time=0.125
EXTRACT: note_off channel=9 note=82 velocity=40 time=0
EXTRACT: note_on channel=9 note=35 velocity=120 time=0.078125
EXTRACT: note_on channel=9 note=36 velocity=120 time=0
EXTRACT: note_on channel=9 note=82 velocity=50 time=0
EXTRACT: note_on channel=9 note=44 velocity=60 time=0
EXTRACT: note_off channel=9 note=44 velocity=50 time=0.125
EXTRACT: note_off channel=9 note=82 velocity=40 time=0
EXTRACT: note_off channel=9 note=36 velocity=100 time=0
EXTRACT: note_off channel=9 note=35 velocity=100 time=0
EXTRACT: note_on channel=9 note=44 velocity=60 time=0.037500000000000006
EXTRACT: note_off channel=9 note=44 velocity=50 time=0.125
EXTRACT: note_on channel=9 note=85 velocity=120 time=0.078125
EXTRACT: note_on channel=9 note=39 velocity=120 time=0
EXTRACT: note_on channel=9 note=54 velocity=100 time=0
EXTRACT: note_on channel=9 note=28 velocity=100 time=0
EXTRACT: note_on channel=9 note=44 velocity=60 time=0
EXTRACT: note_off channel=0 note=49 velocity=80 time=0
EXTRACT: note_off channel=0 note=52 velocity=80 time=0
EXTRACT: note_on channel=0 note=49 velocity=100 time=0
EXTRACT: note_on channel=0 note=52 velocity=100 time=0
EXTRACT: note_off channel=2 note=49 velocity=80 time=0
EXTRACT: note_off channel=2 note=52 velocity=80 time=0
EXTRACT: note_on channel=2 note=49 velocity=100 time=0
EXTRACT: note_on channel=2 note=52 velocity=100 time=0
EXTRACT: note_on channel=3 note=64 velocity=100 time=0
EXTRACT: note_off channel=3 note=63 velocity=80 time=0.059375000000000004
EXTRACT: note_off channel=9 note=44 velocity=50 time=0.065625
EXTRACT: note_off channel=9 note=28 velocity=80 time=0
EXTRACT: note_off channel=9 note=54 velocity=80 time=0
EXTRACT: note_off channel=9 note=39 velocity=100 time=0
EXTRACT: note_off channel=9 note=85 velocity=100 time=0
EXTRACT: note_on channel=9 note=44 velocity=60 time=0.05625
EXTRACT: note_off channel=9 note=44 velocity=50 time=0.08750000000000001
EXTRACT: note_on channel=9 note=44 velocity=60 time=0.078125
EXTRACT: note_off channel=9 note=44 velocity=50 time=0.125
EXTRACT: note_on channel=9 note=44 velocity=60 time=0.037500000000000006
EXTRACT: note_off channel=9 note=44 velocity=50 time=0.125
EXTRACT: note_on channel=9 note=35 velocity=120 time=0.078125
EXTRACT: note_on channel=9 note=36 velocity=120 time=0
EXTRACT: note_on channel=9 note=44 velocity=60 time=0
EXTRACT: note_off channel=0 note=52 velocity=80 time=0
EXTRACT: note_off channel=0 note=33 velocity=80 time=0
EXTRACT: note_off channel=0 note=49 velocity=80 time=0
EXTRACT: note_on channel=0 note=56 velocity=100 time=0
EXTRACT: note_on channel=0 note=59 velocity=100 time=0
EXTRACT: note_on channel=0 note=52 velocity=120 time=0
EXTRACT: note_on channel=0 note=40 velocity=100 time=0
EXTRACT: note_off channel=2 note=52 velocity=80 time=0
EXTRACT: note_off channel=2 note=33 velocity=80 time=0
EXTRACT: note_off channel=2 note=49 velocity=80 time=0
EXTRACT: note_on channel=2 note=56 velocity=100 time=0
EXTRACT: note_on channel=2 note=59 velocity=100 time=0
EXTRACT: note_on channel=2 note=52 velocity=120 time=0
EXTRACT: note_on channel=2 note=40 velocity=100 time=0
EXTRACT: note_off channel=3 note=64 velocity=80 time=0
EXTRACT: note_on channel=3 note=68 velocity=100 time=0
EXTRACT: note_off channel=0 note=45 velocity=120 time=0.018750000000000003
EXTRACT: note_off channel=2 note=45 velocity=120 time=0
EXTRACT: note_off channel=9 note=44 velocity=50 time=0.10625000000000001
EXTRACT: note_off channel=9 note=36 velocity=100 time=0
EXTRACT: note_off channel=9 note=35 velocity=100 time=0
EXTRACT: note_on channel=9 note=44 velocity=60 time=0.05625
EXTRACT: note_off channel=9 note=44 velocity=50 time=0.10625000000000001
EXTRACT: note_on channel=9 note=82 velocity=50 time=0.078125
EXTRACT: note_on channel=9 note=44 velocity=60 time=0
EXTRACT: note_on channel=3 note=66 velocity=100 time=0
EXTRACT: note_off channel=3 note=68 velocity=80 time=0.0203125
EXTRACT: note_off channel=9 note=44 velocity=50 time=0.1046875
EXTRACT: note_off channel=9 note=82 velocity=40 time=0
EXTRACT: note_on channel=9 note=35 velocity=120 time=0.00625
EXTRACT: note_on channel=9 note=36 velocity=120 time=0
EXTRACT: note_on channel=9 note=44 velocity=60 time=0
EXTRACT: note_off channel=9 note=44 velocity=50 time=0.125
EXTRACT: note_off channel=9 note=36 velocity=100 time=0
EXTRACT: note_off channel=9 note=35 velocity=100 time=0
EXTRACT: note_off channel=3 note=66 velocity=80 time=0.0578125
EXTRACT: note_on channel=9 note=85 velocity=120 time=0.0203125
EXTRACT: note_on channel=9 note=39 velocity=120 time=0
EXTRACT: note_on channel=9 note=82 velocity=50 time=0
EXTRACT: note_on channel=9 note=54 velocity=100 time=0
EXTRACT: note_on channel=9 note=28 velocity=100 time=0
EXTRACT: note_on channel=9 note=44 velocity=60 time=0
EXTRACT: note_off channel=0 note=56 velocity=80 time=0
EXTRACT: note_off channel=0 note=59 velocity=80 time=0
EXTRACT: note_on channel=0 note=56 velocity=100 time=0
EXTRACT: note_on channel=0 note=59 velocity=100 time=0
EXTRACT: note_off channel=2 note=56 velocity=80 time=0
EXTRACT: note_off channel=2 note=59 velocity=80 time=0
EXTRACT: note_on channel=2 note=56 velocity=100 time=0
EXTRACT: note_on channel=2 note=59 velocity=100 time=0
EXTRACT: note_on channel=3 note=66 velocity=100 time=0
EXTRACT: note_off channel=9 note=44 velocity=50 time=0.125
EXTRACT: note_off channel=9 note=28 velocity=80 time=0
EXTRACT: note_off channel=9 note=54 velocity=80 time=0
EXTRACT: note_off channel=9 note=82 velocity=40 time=0
EXTRACT: note_off channel=9 note=39 velocity=100 time=0
EXTRACT: note_off channel=9 note=85 velocity=100 time=0
EXTRACT: note_on channel=9 note=44 velocity=60 time=0.015625
EXTRACT: note_off channel=9 note=44 velocity=50 time=0.125
EXTRACT: note_on channel=9 note=44 velocity=60 time=0.078125
EXTRACT: note_on channel=3 note=64 velocity=100 time=0
EXTRACT: note_off channel=3 note=66 velocity=80 time=0.0203125
EXTRACT: note_off channel=9 note=44 velocity=50 time=0.1046875
EXTRACT: note_on channel=9 note=82 velocity=50 time=0.021875000000000002
EXTRACT: note_on channel=9 note=44 velocity=60 time=0
EXTRACT: note_off channel=9 note=44 velocity=50 time=0.125
EXTRACT: note_off channel=9 note=82 velocity=40 time=0
EXTRACT: note_on channel=9 note=44 velocity=60 time=0.078125
EXTRACT: note_on channel=0 note=54 velocity=100 time=0
EXTRACT: note_on channel=0 note=51 velocity=100 time=0
EXTRACT: note_on channel=0 note=47 velocity=120 time=0
EXTRACT: note_on channel=0 note=35 velocity=100 time=0
EXTRACT: note_on channel=2 note=54 velocity=100 time=0
EXTRACT: note_on channel=2 note=51 velocity=100 time=0
EXTRACT: note_on channel=2 note=47 velocity=120 time=0
EXTRACT: note_on channel=2 note=35 velocity=100 time=0
EXTRACT: note_on channel=3 note=66 velocity=100 time=0
EXTRACT: note_off channel=0 note=40 velocity=80 time=0.018750000000000003
EXTRACT: note_off channel=2 note=40 velocity=80 time=0
EXTRACT: note_off channel=3 note=64 velocity=80 time=0.0015625
EXTRACT: note_off channel=0 note=59 velocity=80 time=0.018750000000000003
EXTRACT: note_off channel=2 note=59 velocity=80 time=0
EXTRACT: note_off channel=0 note=52 velocity=120 time=0.0203125
EXTRACT: note_off channel=0 note=56 velocity=80 time=0
EXTRACT: note_off channel=2 note=52 velocity=120 time=0
EXTRACT: note_off channel=2 note=56 velocity=80 time=0
EXTRACT: note_off channel=9 note=44 velocity=50 time=0.065625
EXTRACT: note_on channel=9 note=82 velocity=50 time=0.05625
EXTRACT: note_on channel=9 note=44 velocity=60 time=0
EXTRACT: note_off channel=9 note=44 velocity=50 time=0.12187500000000001
EXTRACT: note_off channel=9 note=82 velocity=40 time=0
EXTRACT: note_on channel=9 note=35 velocity=120 time=0.078125
EXTRACT: note_on channel=9 note=36 velocity=120 time=0
EXTRACT: note_on channel=9 note=82 velocity=50 time=0
EXTRACT: note_on channel=9 note=44 velocity=60 time=0
EXTRACT: note_off channel=9 note=44 velocity=50 time=0.125
EXTRACT: note_off channel=9 note=82 velocity=40 time=0
EXTRACT: note_off channel=9 note=36 velocity=100 time=0
EXTRACT: note_off channel=9 note=35 velocity=100 time=0
EXTRACT: note_on channel=9 note=44 velocity=60 time=0.037500000000000006
EXTRACT: note_off channel=9 note=44 velocity=50 time=0.125
EXTRACT: note_off channel=0 note=54 velocity=80 time=0.037500000000000006
EXTRACT: note_off channel=2 note=54 velocity=80 time=0
EXTRACT: note_on channel=9 note=85 velocity=120 time=0.040625
EXTRACT: note_on channel=9 note=39 velocity=120 time=0
EXTRACT: note_on channel=9 note=54 velocity=100 time=0
EXTRACT: note_on channel=9 note=28 velocity=100 time=0
EXTRACT: note_on channel=9 note=44 velocity=60 time=0
EXTRACT: note_off channel=0 note=51 velocity=80 time=0
EXTRACT: note_on channel=0 note=51 velocity=100 time=0
EXTRACT: note_on channel=0 note=54 velocity=100 time=0
EXTRACT: note_off channel=2 note=51 velocity=80 time=0
EXTRACT: note_on channel=2 note=51 velocity=100 time=0
EXTRACT: note_on channel=2 note=54 velocity=100 time=0
EXTRACT: note_on channel=5 note=61 velocity=100 time=0
EXTRACT: note_off channel=9 note=44 velocity=50 time=0.125
EXTRACT: note_off channel=9 note=28 velocity=80 time=0
EXTRACT: note_off channel=9 note=54 velocity=80 time=0
EXTRACT: note_off channel=9 note=39 velocity=100 time=0
EXTRACT: note_off channel=9 note=85 velocity=100 time=0
EXTRACT: note_on channel=9 note=44 velocity=60 time=0.05625
EXTRACT: note_off channel=9 note=44 velocity=50 time=0.125
EXTRACT: note_off channel=5 note=61 velocity=80 time=0.0171875
EXTRACT: note_on channel=9 note=44 velocity=60 time=0.060937500000000006
EXTRACT: note_on channel=5 note=59 velocity=100 time=0
EXTRACT: note_off channel=3 note=66 velocity=80 time=0.12187500000000001
EXTRACT: note_off channel=9 note=44 velocity=50 time=0.003125
EXTRACT: note_on channel=9 note=44 velocity=60 time=0.037500000000000006
EXTRACT: note_off channel=9 note=44 velocity=50 time=0.125
EXTRACT: note_off channel=0 note=35 velocity=80 time=0.037500000000000006
EXTRACT: note_off channel=2 note=35 velocity=80 time=0
EXTRACT: note_on channel=9 note=35 velocity=120 time=0.040625
EXTRACT: note_on channel=9 note=36 velocity=120 time=0
EXTRACT: note_on channel=9 note=44 velocity=60 time=0
EXTRACT: note_off channel=0 note=47 velocity=120 time=0
EXTRACT: note_off channel=0 note=51 velocity=80 time=0
EXTRACT: note_on channel=0 note=49 velocity=120 time=0
EXTRACT: note_on channel=0 note=56 velocity=100 time=0
EXTRACT: note_on channel=0 note=52 velocity=100 time=0
EXTRACT: note_on channel=0 note=37 velocity=100 time=0
EXTRACT: note_off channel=2 note=47 velocity=120 time=0
EXTRACT: note_off channel=2 note=51 velocity=80 time=0
EXTRACT: note_on channel=2 note=49 velocity=120 time=0
EXTRACT: note_on channel=2 note=56 velocity=100 time=0
EXTRACT: note_on channel=2 note=52 velocity=100 time=0
EXTRACT: note_on channel=2 note=37 velocity=100 time=0
EXTRACT: note_on channel=3 note=63 velocity=100 time=0
EXTRACT: note_off channel=0 note=54 velocity=80 time=0.018750000000000003
EXTRACT: note_off channel=2 note=54 velocity=80 time=0
EXTRACT: note_off channel=9 note=44 velocity=50 time=0.10625000000000001
EXTRACT: note_off channel=9 note=36 velocity=100 time=0
EXTRACT: note_off channel=9 note=35 velocity=100 time=0
EXTRACT: note_on channel=9 note=44 velocity=60 time=0.018750000000000003
EXTRACT: note_off channel=9 note=44 velocity=50 time=0.125
EXTRACT: note_on channel=9 note=82 velocity=50 time=0.078125
EXTRACT: note_on channel=9 note=44 velocity=60 time=0
EXTRACT: note_on channel=3 note=64 velocity=100 time=0
EXTRACT: note_off channel=3 note=63 velocity=80 time=0.0203125
EXTRACT: note_off channel=9 note=44 velocity=50 time=0.0015625
EXTRACT: note_off channel=9 note=82 velocity=40 time=0
EXTRACT: note_on channel=9 note=35 velocity=120 time=0.037500000000000006
EXTRACT: note_on channel=9 note=36 velocity=120 time=0
EXTRACT: note_on channel=9 note=44 velocity=60 time=0
EXTRACT: note_off channel=9 note=44 velocity=50 time=0.125
EXTRACT: note_off channel=9 note=36 velocity=100 time=0
EXTRACT: note_off channel=9 note=35 velocity=100 time=0
EXTRACT: note_off channel=3 note=64 velocity=80 time=0.0578125
EXTRACT: note_on channel=9 note=85 velocity=120 time=0.0203125
EXTRACT: note_on channel=9 note=39 velocity=120 time=0
EXTRACT: note_on channel=9 note=82 velocity=50 time=0
EXTRACT: note_on channel=9 note=54 velocity=100 time=0
EXTRACT: note_on channel=9 note=28 velocity=100 time=0
EXTRACT: note_on channel=9 note=44 velocity=60 time=0
EXTRACT: note_off channel=0 note=56 velocity=80 time=0
EXTRACT: note_off channel=0 note=52 velocity=80 time=0
EXTRACT: note_on channel=0 note=56 velocity=100 time=0
EXTRACT: note_on channel=0 note=52 velocity=100 time=0
EXTRACT: note_off channel=2 note=56 velocity=80 time=0
EXTRACT: note_off channel=2 note=52 velocity=80 time=0
EXTRACT: note_on channel=2 note=56 velocity=100 time=0
EXTRACT: note_on channel=2 note=52 velocity=100 time=0
EXTRACT: note_on channel=3 note=64 velocity=100 time=0
EXTRACT: note_on channel=5 note=56 velocity=100 time=0
EXTRACT: note_off channel=5 note=59 velocity=80 time=0.0203125
EXTRACT: note_off channel=9 note=44 velocity=50 time=0.1046875
EXTRACT: note_off channel=9 note=28 velocity=80 time=0
EXTRACT: note_off channel=9 note=54 velocity=80 time=0
EXTRACT: note_off channel=9 note=82 velocity=40 time=0
EXTRACT: note_off channel=9 note=39 velocity=100 time=0
EXTRACT: note_off channel=9 note=85 velocity=100 time=0
EXTRACT: note_on channel=9 note=44 velocity=60 time=0.028125
EXTRACT: note_off channel=9 note=44 velocity=50 time=0.125
EXTRACT: note_on channel=9 note=44 velocity=60 time=0.078125
EXTRACT: note_on channel=3 note=59 velocity=100 time=0
EXTRACT: note_on channel=5 note=54 velocity=100 time=0
EXTRACT: note_off channel=3 note=64 velocity=80 time=0.0203125
EXTRACT: note_off channel=5 note=56 velocity=80 time=0.0203125
EXTRACT: note_off channel=9 note=44 velocity=50 time=0.084375
EXTRACT: note_on channel=9 note=82 velocity=50 time=0.0015625
EXTRACT: note_on channel=9 note=44 velocity=60 time=0
EXTRACT: note_off channel=9 note=44 velocity=50 time=0.125
EXTRACT: note_off channel=9 note=82 velocity=40 time=0
EXTRACT: note_on channel=9 note=44 velocity=60 time=0.078125
EXTRACT: note_off channel=0 note=52 velocity=80 time=0
EXTRACT: note_off channel=0 note=49 velocity=120 time=0
EXTRACT: note_off channel=0 note=37 velocity=80 time=0
EXTRACT: note_on channel=0 note=45 velocity=120 time=0
EXTRACT: note_on channel=0 note=49 velocity=100 time=0
EXTRACT: note_on channel=0 note=52 velocity=100 time=0
EXTRACT: note_on channel=0 note=33 velocity=100 time=0
EXTRACT: note_off channel=2 note=52 velocity=80 time=0
EXTRACT: note_off channel=2 note=49 velocity=120 time=0
EXTRACT: note_off channel=2 note=37 velocity=80 time=0
EXTRACT: note_on channel=2 note=45 velocity=120 time=0
EXTRACT: note_on channel=2 note=49 velocity=100 time=0
EXTRACT: note_on channel=2 note=52 velocity=100 time=0
EXTRACT: note_on channel=2 note=33 velocity=100 time=0
EXTRACT: note_on channel=3 note=63 velocity=100 time=0
EXTRACT: note_off channel=0 note=56 velocity=80 time=0.018750000000000003
EXTRACT: note_off channel=2 note=56 velocity=80 time=0
EXTRACT: note_off channel=3 note=59 velocity=80 time=0.0015625
EXTRACT: note_off channel=9 note=44 velocity=50 time=0.1046875
EXTRACT: note_on channel=9 note=82 velocity=50 time=0.045312500000000006
EXTRACT: note_on channel=9 note=44 velocity=60 time=0
EXTRACT: note_off channel=9 note=44 velocity=50 time=0.125
EXTRACT: note_off channel=9 note=82 velocity=40 time=0
EXTRACT: note_on channel=9 note=35 velocity=120 time=0.078125
EXTRACT: note_on channel=9 note=36 velocity=120 time=0
EXTRACT: note_on channel=9 note=82 velocity=50 time=0
EXTRACT: note_on channel=9 note=44 velocity=60 time=0
EXTRACT: note_off channel=9 note=44 velocity=50 time=0.125
EXTRACT: note_off channel=9 note=82 velocity=40 time=0
EXTRACT: note_off channel=9 note=36 velocity=100 time=0
EXTRACT: note_off channel=9 note=35 velocity=100 time=0
EXTRACT: note_on channel=9 note=44 velocity=60 time=0.037500000000000006
EXTRACT: note_off channel=9 note=44 velocity=50 time=0.125
EXTRACT: note_on channel=9 note=85 velocity=120 time=0.078125
EXTRACT: note_on channel=9 note=39 velocity=120 time=0
EXTRACT: note_on channel=9 note=54 velocity=100 time=0
EXTRACT: note_on channel=9 note=28 velocity=100 time=0
EXTRACT: note_on channel=9 note=44 velocity=60 time=0
EXTRACT: note_off channel=0 note=49 velocity=80 time=0
EXTRACT: note_off channel=0 note=52 velocity=80 time=0
EXTRACT: note_on channel=0 note=49 velocity=100 time=0
EXTRACT: note_on channel=0 note=52 velocity=100 time=0
EXTRACT: note_off channel=2 note=49 velocity=80 time=0
EXTRACT: note_off channel=2 note=52 velocity=80 time=0
EXTRACT: note_on channel=2 note=49 velocity=100 time=0
EXTRACT: note_on channel=2 note=52 velocity=100 time=0
EXTRACT: note_on channel=3 note=64 velocity=100 time=0
EXTRACT: note_off channel=5 note=54 velocity=80 time=0.0203125
EXTRACT: note_off channel=3 note=63 velocity=80 time=0.0390625
EXTRACT: note_off channel=9 note=44 velocity=50 time=0.065625
EXTRACT: note_off channel=9 note=28 velocity=80 time=0
EXTRACT: note_off channel=9 note=54 velocity=80 time=0
EXTRACT: note_off channel=9 note=39 velocity=100 time=0
EXTRACT: note_off channel=9 note=85 velocity=100 time=0
EXTRACT: note_on channel=9 note=44 velocity=60 time=0.05625
EXTRACT: note_off channel=9 note=44 velocity=50 time=0.096875
EXTRACT: note_on channel=9 note=44 velocity=60 time=0.078125
EXTRACT: note_off channel=9 note=44 velocity=50 time=0.125
EXTRACT: note_on channel=9 note=44 velocity=60 time=0.037500000000000006
EXTRACT: note_off channel=9 note=44 velocity=50 time=0.125
EXTRACT: note_on channel=9 note=35 velocity=120 time=0.078125
EXTRACT: note_on channel=9 note=36 velocity=120 time=0
EXTRACT: note_on channel=9 note=44 velocity=60 time=0
EXTRACT: note_off channel=0 note=52 velocity=80 time=0
EXTRACT: note_off channel=0 note=33 velocity=80 time=0
EXTRACT: note_off channel=0 note=49 velocity=80 time=0
EXTRACT: note_on channel=0 note=54 velocity=100 time=0
EXTRACT: note_on channel=0 note=57 velocity=100 time=0
EXTRACT: note_on channel=0 note=61 velocity=100 time=0
EXTRACT: note_on channel=0 note=42 velocity=100 time=0
EXTRACT: note_off channel=2 note=52 velocity=80 time=0
EXTRACT: note_off channel=2 note=33 velocity=80 time=0
EXTRACT: note_off channel=2 note=49 velocity=80 time=0
EXTRACT: note_on channel=2 note=54 velocity=100 time=0
EXTRACT: note_on channel=2 note=57 velocity=100 time=0
EXTRACT: note_on channel=2 note=61 velocity=100 time=0
EXTRACT: note_on channel=2 note=42 velocity=100 time=0
EXTRACT: note_off channel=3 note=64 velocity=80 time=0
EXTRACT: note_off channel=0 note=45 velocity=120 time=0.018750000000000003
EXTRACT: note_off channel=2 note=45 velocity=120 time=0
EXTRACT: note_off channel=9 note=44 velocity=50 time=0.10625000000000001
EXTRACT: note_off channel=9 note=36 velocity=100 time=0
EXTRACT: note_off channel=9 note=35 velocity=100 time=0
EXTRACT: note_on channel=9 note=44 velocity=60 time=0.05625
EXTRACT: note_off channel=9 note=44 velocity=50 time=0.125
EXTRACT: note_on channel=9 note=82 velocity=50 time=0.078125
EXTRACT: note_on channel=9 note=44 velocity=60 time=0
EXTRACT: note_off channel=9 note=44 velocity=50 time=0.125
EXTRACT: note_off channel=9 note=82 velocity=40 time=0
EXTRACT: note_on channel=9 note=35 velocity=120 time=0.037500000000000006
EXTRACT: note_on channel=9 note=36 velocity=120 time=0
EXTRACT: note_on channel=9 note=44 velocity=60 time=0
EXTRACT: note_off channel=9 note=44 velocity=50 time=0.125
EXTRACT: note_off channel=9 note=36 velocity=100 time=0
EXTRACT: note_off channel=9 note=35 velocity=100 time=0
EXTRACT: note_on channel=9 note=85 velocity=120 time=0.078125
EXTRACT: note_on channel=9 note=39 velocity=120 time=0
EXTRACT: note_on channel=9 note=82 velocity=50 time=0
EXTRACT: note_on channel=9 note=54 velocity=100 time=0
EXTRACT: note_on channel=9 note=28 velocity=100 time=0
EXTRACT: note_on channel=9 note=44 velocity=60 time=0
EXTRACT: note_on channel=3 note=59 velocity=100 time=0
EXTRACT: note_off channel=9 note=44 velocity=50 time=0.125
EXTRACT: note_off channel=9 note=28 velocity=80 time=0
EXTRACT: note_off channel=9 note=54 velocity=80 time=0
EXTRACT: note_off channel=9 note=82 velocity=40 time=0
EXTRACT: note_off channel=9 note=39 velocity=100 time=0
EXTRACT: note_off channel=9 note=85 velocity=100 time=0
EXTRACT: note_on channel=9 note=44 velocity=60 time=0.05625
EXTRACT: note_off channel=9 note=44 velocity=50 time=0.037500000000000006
EXTRACT: note_on channel=9 note=44 velocity=60 time=0.078125
EXTRACT: note_on channel=3 note=64 velocity=100 time=0
EXTRACT: note_off channel=3 note=59 velocity=80 time=0.040625
EXTRACT: note_off channel=9 note=44 velocity=50 time=0.084375
EXTRACT: note_on channel=9 note=82 velocity=50 time=0.037500000000000006
EXTRACT: note_on channel=9 note=44 velocity=60 time=0
EXTRACT: note_off channel=9 note=44 velocity=50 time=0.12187500000000001
EXTRACT: note_off channel=9 note=82 velocity=40 time=0
EXTRACT: note_off channel=3 note=64 velocity=80 time=0.0578125
EXTRACT: note_on channel=9 note=44 velocity=60 time=0.0203125
EXTRACT: note_off channel=0 note=57 velocity=80 time=0
EXTRACT: note_off channel=0 note=42 velocity=80 time=0
EXTRACT: note_on channel=0 note=56 velocity=100 time=0
EXTRACT: note_on channel=0 note=59 velocity=100 time=0
EXTRACT: note_on channel=0 note=64 velocity=100 time=0
EXTRACT: note_on channel=0 note=44 velocity=100 time=0
EXTRACT: note_off channel=2 note=57 velocity=80 time=0
EXTRACT: note_off channel=2 note=42 velocity=80 time=0
EXTRACT: note_on channel=2 note=56 velocity=100 time=0
EXTRACT: note_on channel=2 note=59 velocity=100 time=0
EXTRACT: note_on channel=2 note=64 velocity=100 time=0
EXTRACT: note_on channel=2 note=44 velocity=100 time=0
EXTRACT: note_on channel=3 note=64 velocity=100 time=0
EXTRACT: note_off channel=0 note=61 velocity=80 time=0.018750000000000003
EXTRACT: note_off channel=2 note=61 velocity=80 time=0
EXTRACT: note_off channel=0 note=54 velocity=80 time=0.0203125
EXTRACT: note_off channel=2 note=54 velocity=80 time=0
EXTRACT: note_off channel=9 note=44 velocity=50 time=0.0859375
EXTRACT: note_on channel=9 note=82 velocity=50 time=0.05625
EXTRACT: note_on channel=9 note=44 velocity=60 time=0
EXTRACT: note_off channel=9 note=44 velocity=50 time=0.11875000000000001
EXTRACT: note_off channel=9 note=82 velocity=40 time=0
EXTRACT: note_on channel=9 note=35 velocity=120 time=0.078125
EXTRACT: note_on channel=9 note=36 velocity=120 time=0
EXTRACT: note_on channel=9 note=82 velocity=50 time=0
EXTRACT: note_on channel=9 note=44 velocity=60 time=0
EXTRACT: note_off channel=9 note=44 velocity=50 time=0.125
EXTRACT: note_off channel=9 note=82 velocity=40 time=0
EXTRACT: note_off channel=9 note=36 velocity=100 time=0
EXTRACT: note_off channel=9 note=35 velocity=100 time=0
EXTRACT: note_on channel=9 note=44 velocity=60 time=0.037500000000000006
EXTRACT: note_off channel=9 note=44 velocity=50 time=0.125
EXTRACT: note_on channel=9 note=85 velocity=120 time=0.078125
EXTRACT: note_on channel=9 note=39 velocity=120 time=0
EXTRACT: note_on channel=9 note=54 velocity=100 time=0
EXTRACT: note_on channel=9 note=28 velocity=100 time=0
EXTRACT: note_on channel=9 note=44 velocity=60 time=0
EXTRACT: note_on channel=3 note=59 velocity=100 time=0
EXTRACT: note_off channel=3 note=64 velocity=80 time=0.07968750000000001
EXTRACT: note_off channel=9 note=44 velocity=50 time=0.045312500000000006
EXTRACT: note_off channel=9 note=28 velocity=80 time=0
EXTRACT: note_off channel=9 note=54 velocity=80 time=0
EXTRACT: note_off channel=9 note=39 velocity=100 time=0
EXTRACT: note_off channel=9 note=85 velocity=100 time=0
EXTRACT: note_on channel=9 note=44 velocity=60 time=0.05625
EXTRACT: note_off channel=9 note=44 velocity=50 time=0.0890625
EXTRACT: note_on channel=9 note=44 velocity=60 time=0.078125
EXTRACT: note_off channel=3 note=59 velocity=80 time=0
EXTRACT: note_on channel=3 note=57 velocity=100 time=0
EXTRACT: note_off channel=9 note=44 velocity=50 time=0.125
EXTRACT: note_on channel=9 note=44 velocity=60 time=0.037500000000000006
EXTRACT: note_off channel=9 note=44 velocity=50 time=0.0859375
EXTRACT: note_on channel=9 note=35 velocity=120 time=0.078125
EXTRACT: note_on channel=9 note=36 velocity=120 time=0
EXTRACT: note_on channel=9 note=44 velocity=60 time=0
EXTRACT: note_off channel=0 note=56 velocity=80 time=0
EXTRACT: note_off channel=0 note=59 velocity=80 time=0
EXTRACT: note_off channel=0 note=64 velocity=80 time=0
EXTRACT: note_off channel=0 note=44 velocity=80 time=0
EXTRACT: note_on channel=0 note=64 velocity=100 time=0
EXTRACT: note_on channel=0 note=61 velocity=100 time=0
EXTRACT: note_on channel=0 note=57 velocity=100 time=0
EXTRACT: note_on channel=0 note=45 velocity=100 time=0
EXTRACT: note_off channel=2 note=56 velocity=80 time=0
EXTRACT: note_off channel=2 note=59 velocity=80 time=0
EXTRACT: note_off channel=2 note=64 velocity=80 time=0
EXTRACT: note_off channel=2 note=44 velocity=80 time=0
EXTRACT: note_on channel=2 note=64 velocity=100 time=0
EXTRACT: note_on channel=2 note=61 velocity=100 time=0
EXTRACT: note_on channel=2 note=57 velocity=100 time=0
EXTRACT: note_on channel=2 note=45 velocity=100 time=0
EXTRACT: note_off channel=9 note=44 velocity=50 time=0.125
EXTRACT: note_off channel=9 note=36 velocity=100 time=0
EXTRACT: note_off channel=9 note=35 velocity=100 time=0
EXTRACT: note_on channel=9 note=44 velocity=60 time=0.05625
EXTRACT: note_off channel=9 note=44 velocity=50 time=0.125
EXTRACT: note_on channel=9 note=82 velocity=50 time=0.078125
EXTRACT: note_on channel=9 note=44 velocity=60 time=0
EXTRACT: note_off channel=9 note=44 velocity=50 time=0.125
EXTRACT: note_off channel=9 note=82 velocity=40 time=0
EXTRACT: note_on channel=9 note=35 velocity=120 time=0.037500000000000006
EXTRACT: note_on channel=9 note=36 velocity=120 time=0
EXTRACT: note_on channel=9 note=44 velocity=60 time=0
EXTRACT: note_off channel=9 note=44 velocity=50 time=0.125
EXTRACT: note_off channel=9 note=36 velocity=100 time=0
EXTRACT: note_off channel=9 note=35 velocity=100 time=0
EXTRACT: note_on channel=9 note=85 velocity=120 time=0.078125
EXTRACT: note_on channel=9 note=39 velocity=120 time=0
EXTRACT: note_on channel=9 note=82 velocity=50 time=0
EXTRACT: note_on channel=9 note=54 velocity=100 time=0
EXTRACT: note_on channel=9 note=28 velocity=100 time=0
EXTRACT: note_on channel=9 note=44 velocity=60 time=0
EXTRACT: note_on channel=5 note=54 velocity=100 time=0
EXTRACT: note_on channel=5 note=66 velocity=100 time=0
EXTRACT: note_on channel=5 note=57 velocity=100 time=0
EXTRACT: note_on channel=5 note=61 velocity=100 time=0
EXTRACT: note_off channel=9 note=44 velocity=50 time=0.125
EXTRACT: note_off channel=9 note=28 velocity=80 time=0
EXTRACT: note_off channel=9 note=54 velocity=80 time=0
EXTRACT: note_off channel=9 note=82 velocity=40 time=0
EXTRACT: note_off channel=9 note=39 velocity=100 time=0
EXTRACT: note_off channel=9 note=85 velocity=100 time=0
EXTRACT: note_on channel=9 note=44 velocity=60 time=0.05625
EXTRACT: note_off channel=9 note=44 velocity=50 time=0.125
EXTRACT: note_off channel=5 note=61 velocity=80 time=0.0171875
EXTRACT: note_off channel=5 note=57 velocity=80 time=0
EXTRACT: note_off channel=5 note=66 velocity=80 time=0
EXTRACT: note_off channel=5 note=54 velocity=80 time=0
EXTRACT: note_on channel=9 note=44 velocity=60 time=0.015625
EXTRACT: note_on channel=5 note=54 velocity=100 time=0
EXTRACT: note_on channel=5 note=66 velocity=100 time=0
EXTRACT: note_on channel=5 note=57 velocity=100 time=0
EXTRACT: note_on channel=5 note=61 velocity=100 time=0
EXTRACT: note_off channel=9 note=44 velocity=50 time=0.125
EXTRACT: note_on channel=9 note=82 velocity=50 time=0.037500000000000006
EXTRACT: note_on channel=9 note=44 velocity=60 time=0
EXTRACT: note_off channel=9 note=44 velocity=50 time=0.034375
EXTRACT: note_off channel=9 note=82 velocity=40 time=0
EXTRACT: note_off channel=5 note=61 velocity=80 time=0.037500000000000006
EXTRACT: note_off channel=5 note=57 velocity=80 time=0
EXTRACT: note_off channel=5 note=66 velocity=80 time=0
EXTRACT: note_off channel=5 note=54 velocity=80 time=0.0203125
EXTRACT: note_on channel=9 note=44 velocity=60 time=0.0203125
EXTRACT: note_on channel=5 note=54 velocity=100 time=0
EXTRACT: note_on channel=5 note=66 velocity=100 time=0
EXTRACT: note_on channel=5 note=57 velocity=100 time=0
EXTRACT: note_on channel=5 note=61 velocity=100 time=0
EXTRACT: note_off channel=3 note=57 velocity=80 time=0.0203125
EXTRACT: note_off channel=9 note=44 velocity=50 time=0.1046875
EXTRACT: note_on channel=9 note=82 velocity=50 time=0.05625
EXTRACT: note_on channel=9 note=44 velocity=60 time=0
EXTRACT: note_off channel=9 note=44 velocity=50 time=0.046875
EXTRACT: note_off channel=9 note=82 velocity=40 time=0
EXTRACT: note_on channel=9 note=35 velocity=120 time=0.078125
EXTRACT: note_on channel=9 note=36 velocity=120 time=0
EXTRACT: note_on channel=9 note=82 velocity=50 time=0
EXTRACT: note_on channel=9 note=44 velocity=60 time=0
EXTRACT: note_off channel=9 note=44 velocity=50 time=0.125
EXTRACT: note_off channel=9 note=82 velocity=40 time=0
EXTRACT: note_off channel=9 note=36 velocity=100 time=0
EXTRACT: note_off channel=9 note=35 velocity=100 time=0
EXTRACT: note_on channel=9 note=44 velocity=60 time=0.037500000000000006
EXTRACT: note_off channel=5 note=61 velocity=80 time=0.1015625
EXTRACT: note_off channel=9 note=44 velocity=50 time=0.0234375
EXTRACT: note_off channel=5 note=57 velocity=80 time=0.0171875
EXTRACT: note_on channel=9 note=85 velocity=120 time=0.060937500000000006
EXTRACT: note_on channel=9 note=39 velocity=120 time=0
EXTRACT: note_on channel=9 note=54 velocity=100 time=0
EXTRACT: note_on channel=9 note=28 velocity=100 time=0
EXTRACT: note_on channel=9 note=44 velocity=60 time=0
EXTRACT: note_off channel=5 note=66 velocity=80 time=0
EXTRACT: note_on channel=5 note=68 velocity=100 time=0
EXTRACT: note_on channel=5 note=56 velocity=100 time=0
EXTRACT: note_on channel=5 note=59 velocity=100 time=0
EXTRACT: note_on channel=5 note=63 velocity=100 time=0
EXTRACT: note_off channel=5 note=54 velocity=80 time=0.018750000000000003
EXTRACT: note_off channel=9 note=44 velocity=50 time=0.10625000000000001
EXTRACT: note_off channel=9 note=28 velocity=80 time=0
EXTRACT: note_off channel=9 note=54 velocity=80 time=0
EXTRACT: note_off channel=9 note=39 velocity=100 time=0
EXTRACT: note_off channel=9 note=85 velocity=100 time=0
EXTRACT: note_on channel=9 note=44 velocity=60 time=0.05625
EXTRACT: note_off channel=5 note=56 velocity=80 time=0.025
EXTRACT: note_off channel=5 note=59 velocity=80 time=0
EXTRACT: note_off channel=9 note=44 velocity=50 time=0.0234375
EXTRACT: note_off channel=5 note=63 velocity=80 time=0.037500000000000006
EXTRACT: note_on channel=9 note=44 velocity=60 time=0.040625
EXTRACT: note_off channel=5 note=68 velocity=80 time=0
EXTRACT: note_on channel=5 note=52 velocity=100 time=0
EXTRACT: note_on channel=5 note=64 velocity=100 time=0
EXTRACT: note_on channel=5 note=56 velocity=100 time=0
EXTRACT: note_on channel=5 note=59 velocity=100 time=0
EXTRACT: note_off channel=9 note=44 velocity=50 time=0.125
EXTRACT: note_on channel=9 note=44 velocity=60 time=0.037500000000000006
EXTRACT: note_off channel=9 note=44 velocity=50 time=0.078125
EXTRACT: note_on channel=9 note=35 velocity=120 time=0.078125
EXTRACT: note_on channel=9 note=36 velocity=120 time=0
EXTRACT: note_on channel=9 note=44 velocity=60 time=0
EXTRACT: note_off channel=0 note=45 velocity=80 time=0
EXTRACT: note_off channel=0 note=57 velocity=80 time=0
EXTRACT: note_off channel=0 note=61 velocity=80 time=0
EXTRACT: note_off channel=0 note=64 velocity=80 time=0
EXTRACT: note_on channel=0 note=64 velocity=100 time=0
EXTRACT: note_on channel=0 note=61 velocity=100 time=0
EXTRACT: note_on channel=0 note=57 velocity=100 time=0
EXTRACT: note_on channel=0 note=45 velocity=100 time=0
EXTRACT: note_off channel=2 note=45 velocity=80 time=0
EXTRACT: note_off channel=2 note=57 velocity=80 time=0
EXTRACT: note_off channel=2 note=61 velocity=80 time=0
EXTRACT: note_off channel=2 note=64 velocity=80 time=0
EXTRACT: note_on channel=2 note=64 velocity=100 time=0
EXTRACT: note_on channel=2 note=61 velocity=100 time=0
EXTRACT: note_on channel=2 note=57 velocity=100 time=0
EXTRACT: note_on channel=2 note=45 velocity=100 time=0
EXTRACT: note_on channel=3 note=61 velocity=100 time=0
EXTRACT: note_off channel=5 note=59 velocity=80 time=0.0203125
EXTRACT: note_off channel=5 note=56 velocity=80 time=0.018750000000000003
EXTRACT: note_off channel=9 note=44 velocity=50 time=0.0859375
EXTRACT: note_off channel=9 note=36 velocity=100 time=0
EXTRACT: note_off channel=9 note=35 velocity=100 time=0
EXTRACT: note_on channel=9 note=44 velocity=60 time=0.05625
EXTRACT: note_off channel=9 note=44 velocity=50 time=0.125
EXTRACT: note_on channel=9 note=82 velocity=50 time=0.034375
EXTRACT: note_on channel=9 note=44 velocity=60 time=0
EXTRACT: note_on channel=3 note=63 velocity=100 time=0
EXTRACT: note_off channel=3 note=61 velocity=80 time=0.12187500000000001
EXTRACT: note_off channel=9 note=44 velocity=50 time=0.003125
EXTRACT: note_off channel=9 note=82 velocity=40 time=0
EXTRACT: note_on channel=9 note=35 velocity=120 time=0.037500000000000006
EXTRACT: note_on channel=9 note=36 velocity=120 time=0
EXTRACT: note_on channel=9 note=44 velocity=60 time=0
EXTRACT: note_off channel=9 note=44 velocity=50 time=0.037500000000000006
EXTRACT: note_off channel=9 note=36 velocity=100 time=0
EXTRACT: note_off channel=9 note=35 velocity=100 time=0
EXTRACT: note_on channel=9 note=85 velocity=120 time=0.078125
EXTRACT: note_on channel=9 note=39 velocity=120 time=0
EXTRACT: note_on channel=9 note=82 velocity=50 time=0
EXTRACT: note_on channel=9 note=54 velocity=100 time=0
EXTRACT: note_on channel=9 note=28 velocity=100 time=0
EXTRACT: note_on channel=9 note=44 velocity=60 time=0
EXTRACT: note_on channel=3 note=64 velocity=100 time=0
EXTRACT: note_off channel=3 note=63 velocity=80 time=0.0203125
EXTRACT: note_off channel=5 note=64 velocity=80 time=0
EXTRACT: note_off channel=5 note=52 velocity=80 time=0
EXTRACT: note_off channel=9 note=44 velocity=50 time=0.1046875
EXTRACT: note_off channel=9 note=28 velocity=80 time=0
EXTRACT: note_off channel=9 note=54 velocity=80 time=0
EXTRACT: note_off channel=9 note=82 velocity=40 time=0
EXTRACT: note_off channel=9 note=39 velocity=100 time=0
EXTRACT: note_off channel=9 note=85 velocity=100 time=0
EXTRACT: note_on channel=9 note=44 velocity=60 time=0.05625
EXTRACT: note_off channel=3 note=64 velocity=80 time=0.09062500000000001
EXTRACT: note_off channel=9 note=44 velocity=50 time=0.003125
EXTRACT: note_on channel=9 note=44 velocity=60 time=0.078125
EXTRACT: note_on channel=3 note=64 velocity=100 time=0
EXTRACT: note_off channel=9 note=44 velocity=50 time=0.125
EXTRACT: note_on channel=9 note=82 velocity=50 time=0.037500000000000006
EXTRACT: note_on channel=9 note=44 velocity=60 time=0
EXTRACT: note_off channel=9 note=44 velocity=50 time=0.1203125
EXTRACT: note_off channel=9 note=82 velocity=40 time=0
EXTRACT: note_on channel=9 note=44 velocity=60 time=0.078125
EXTRACT: note_off channel=0 note=45 velocity=80 time=0
EXTRACT: note_off channel=0 note=57 velocity=80 time=0
EXTRACT: note_off channel=0 note=61 velocity=80 time=0
EXTRACT: note_off channel=0 note=64 velocity=80 time=0
EXTRACT: note_on channel=0 note=56 velocity=100 time=0
EXTRACT: note_on channel=0 note=59 velocity=100 time=0
EXTRACT: note_on channel=0 note=64 velocity=100 time=0
EXTRACT: note_on channel=0 note=44 velocity=100 time=0
EXTRACT: note_off channel=2 note=45 velocity=80 time=0
EXTRACT: note_off channel=2 note=57 velocity=80 time=0
EXTRACT: note_off channel=2 note=61 velocity=80 time=0
EXTRACT: note_off channel=2 note=64 velocity=80 time=0
EXTRACT: note_on channel=2 note=56 velocity=100 time=0
EXTRACT: note_on channel=2 note=59 velocity=100 time=0
EXTRACT: note_on channel=2 note=64 velocity=100 time=0
EXTRACT: note_on channel=2 note=44 velocity=100 time=0
EXTRACT: note_off channel=9 note=44 velocity=50 time=0.125
EXTRACT: note_on channel=9 note=82 velocity=50 time=0.05625
EXTRACT: note_on channel=9 note=44 velocity=60 time=0
EXTRACT: note_off channel=9 note=44 velocity=50 time=0.125
EXTRACT: note_off channel=9 note=82 velocity=40 time=0
EXTRACT: note_on channel=9 note=35 velocity=120 time=0.078125
EXTRACT: note_on channel=9 note=36 velocity=120 time=0
EXTRACT: note_on channel=9 note=82 velocity=50 time=0
EXTRACT: note_on channel=9 note=44 velocity=60 time=0
EXTRACT: note_off channel=9 note=44 velocity=50 time=0.125
EXTRACT: note_off channel=9 note=82 velocity=40 time=0
EXTRACT: note_off channel=9 note=36 velocity=100 time=0
EXTRACT: note_off channel=9 note=35 velocity=100 time=0
EXTRACT: note_on channel=9 note=44 velocity=60 time=0.037500000000000006
EXTRACT: note_off channel=9 note=44 velocity=50 time=0.125
EXTRACT: note_on channel=9 note=85 velocity=120 time=0.078125
EXTRACT: note_on channel=9 note=39 velocity=120 time=0
EXTRACT: note_on channel=9 note=54 velocity=100 time=0
EXTRACT: note_on channel=9 note=28 velocity=100 time=0
EXTRACT: note_on channel=9 note=44 velocity=60 time=0
EXTRACT: note_on channel=3 note=59 velocity=100 time=0
EXTRACT: note_off channel=3 note=64 velocity=80 time=0.1203125
EXTRACT: note_off channel=9 note=44 velocity=50 time=0.004687500000000001
EXTRACT: note_off channel=9 note=28 velocity=80 time=0
EXTRACT: note_off channel=9 note=54 velocity=80 time=0
EXTRACT: note_off channel=9 note=39 velocity=100 time=0
EXTRACT: note_off channel=9 note=85 velocity=100 time=0
EXTRACT: note_on channel=9 note=44 velocity=60 time=0.05625
EXTRACT: note_off channel=9 note=44 velocity=50 time=0.060937500000000006
EXTRACT: note_off channel=3 note=59 velocity=80 time=0.0578125
EXTRACT: note_on channel=9 note=44 velocity=60 time=0.0203125
EXTRACT: note_on channel=3 note=57 velocity=100 time=0
EXTRACT: note_off channel=9 note=44 velocity=50 time=0.125
EXTRACT: note_on channel=9 note=44 velocity=60 time=0.037500000000000006
EXTRACT: note_off channel=9 note=44 velocity=50 time=0.08281250000000001
EXTRACT: note_on channel=9 note=35 velocity=120 time=0.078125
EXTRACT: note_on channel=9 note=36 velocity=120 time=0
EXTRACT: note_off channel=0 note=44 velocity=80 time=0
EXTRACT: note_off channel=0 note=64 velocity=80 time=0
EXTRACT: note_off channel=0 note=59 velocity=80 time=0
EXTRACT: note_off channel=0 note=56 velocity=80 time=0
EXTRACT: note_on channel=0 note=50 velocity=100 time=0
EXTRACT: note_on channel=0 note=54 velocity=100 time=0
EXTRACT: note_on channel=0 note=57 velocity=100 time=0
EXTRACT: note_on channel=0 note=38 velocity=100 time=0
EXTRACT: note_off channel=2 note=44 velocity=80 time=0
EXTRACT: note_off channel=2 note=64 velocity=80 time=0
EXTRACT: note_off channel=2 note=59 velocity=80 time=0
EXTRACT: note_off channel=2 note=56 velocity=80 time=0
EXTRACT: note_on channel=2 note=50 velocity=100 time=0
EXTRACT: note_on channel=2 note=54 velocity=100 time=0
EXTRACT: note_on channel=2 note=57 velocity=100 time=0
EXTRACT: note_on channel=2 note=38 velocity=100 time=0
EXTRACT: note_off channel=9 note=36 velocity=100 time=0.125
EXTRACT: note_off channel=9 note=35 velocity=100 time=0
EXTRACT: note_on channel=9 note=82 velocity=50 time=0.259375
EXTRACT: note_off channel=9 note=82 velocity=40 time=0.125
EXTRACT: note_on channel=9 note=35 velocity=120 time=0.037500000000000006
EXTRACT: note_on channel=9 note=36 velocity=120 time=0
EXTRACT: note_off channel=9 note=36 velocity=100 time=0.125
EXTRACT: note_off channel=9 note=35 velocity=100 time=0
EXTRACT: note_on channel=9 note=85 velocity=120 time=0.078125
EXTRACT: note_on channel=9 note=39 velocity=120 time=0
EXTRACT: note_on channel=9 note=82 velocity=50 time=0
EXTRACT: note_on channel=9 note=54 velocity=100 time=0
EXTRACT: note_on channel=9 note=28 velocity=100 time=0
EXTRACT: note_off channel=3 note=57 velocity=80 time=0.0390625
EXTRACT: note_off channel=9 note=28 velocity=80 time=0.0859375
EXTRACT: note_off channel=9 note=54 velocity=80 time=0
EXTRACT: note_off channel=9 note=82 velocity=40 time=0
EXTRACT: note_off channel=9 note=39 velocity=100 time=0
EXTRACT: note_off channel=9 note=85 velocity=100 time=0
EXTRACT: note_on channel=9 note=82 velocity=50 time=0.421875
EXTRACT: note_off channel=9 note=82 velocity=40 time=0.125
EXTRACT: note_on channel=9 note=82 velocity=50 time=0.259375
EXTRACT: note_off channel=9 note=82 velocity=40 time=0.125
EXTRACT: note_on channel=9 note=35 velocity=120 time=0.078125
EXTRACT: note_on channel=9 note=36 velocity=120 time=0
EXTRACT: note_on channel=9 note=82 velocity=50 time=0
EXTRACT: note_off channel=9 note=82 velocity=40 time=0.125
EXTRACT: note_off channel=9 note=36 velocity=100 time=0
EXTRACT: note_off channel=9 note=35 velocity=100 time=0
EXTRACT: note_on channel=9 note=85 velocity=120 time=0.240625
EXTRACT: note_on channel=9 note=39 velocity=120 time=0
EXTRACT: note_on channel=9 note=54 velocity=100 time=0
EXTRACT: note_on channel=9 note=28 velocity=100 time=0
EXTRACT: note_off channel=9 note=28 velocity=80 time=0.0234375
EXTRACT: note_off channel=9 note=54 velocity=80 time=0
EXTRACT: note_off channel=9 note=39 velocity=100 time=0
EXTRACT: note_off channel=9 note=85 velocity=100 time=0
EXTRACT: note_on channel=9 note=35 velocity=120 time=0.625
EXTRACT: note_on channel=9 note=36 velocity=120 time=0
EXTRACT: note_on channel=9 note=44 velocity=60 time=0
EXTRACT: note_off channel=0 note=38 velocity=80 time=0
EXTRACT: note_off channel=0 note=57 velocity=80 time=0
EXTRACT: note_off channel=0 note=54 velocity=80 time=0
EXTRACT: note_off channel=0 note=50 velocity=80 time=0
EXTRACT: note_on channel=0 note=52 velocity=100 time=0
EXTRACT: note_on channel=1 note=64 velocity=100 time=0
EXTRACT: note_on channel=1 note=52 velocity=100 time=0
EXTRACT: note_off channel=2 note=38 velocity=80 time=0
EXTRACT: note_off channel=2 note=57 velocity=80 time=0
EXTRACT: note_off channel=2 note=54 velocity=80 time=0
EXTRACT: note_off channel=2 note=50 velocity=80 time=0
EXTRACT: note_on channel=2 note=52 velocity=100 time=0
EXTRACT: note_on channel=4 note=64 velocity=100 time=0
EXTRACT: note_on channel=4 note=76 velocity=100 time=0
EXTRACT: note_off channel=9 note=44 velocity=50 time=0.125
EXTRACT: note_off channel=9 note=36 velocity=100 time=0
EXTRACT: note_off channel=9 note=35 velocity=100 time=0
EXTRACT: note_on channel=9 note=44 velocity=60 time=0.05625
EXTRACT: note_off channel=9 note=44 velocity=50 time=0.125
EXTRACT: note_on channel=9 note=82 velocity=50 time=0.078125
EXTRACT: note_on channel=9 note=44 velocity=60 time=0
EXTRACT: note_on channel=0 note=59 velocity=100 time=0
EXTRACT: note_on channel=2 note=59 velocity=100 time=0
EXTRACT: note_off channel=9 note=44 velocity=50 time=0.125
EXTRACT: note_off channel=9 note=82 velocity=40 time=0
EXTRACT: note_on channel=9 note=35 velocity=120 time=0.037500000000000006
EXTRACT: note_on channel=9 note=36 velocity=120 time=0
EXTRACT: note_on channel=9 note=44 velocity=60 time=0
EXTRACT: note_off channel=9 note=44 velocity=50 time=0.125
EXTRACT: note_off channel=9 note=36 velocity=100 time=0
EXTRACT: note_off channel=9 note=35 velocity=100 time=0
EXTRACT: note_on channel=9 note=85 velocity=120 time=0.078125
EXTRACT: note_on channel=9 note=39 velocity=120 time=0
EXTRACT: note_on channel=9 note=82 velocity=50 time=0
EXTRACT: note_on channel=9 note=54 velocity=100 time=0
EXTRACT: note_on channel=9 note=28 velocity=100 time=0
EXTRACT: note_on channel=9 note=44 velocity=60 time=0
EXTRACT: note_on channel=0 note=64 velocity=100 time=0
EXTRACT: note_on channel=2 note=64 velocity=100 time=0
EXTRACT: note_on channel=3 note=68 velocity=100 time=0
EXTRACT: note_off channel=9 note=44 velocity=50 time=0.125
EXTRACT: note_off channel=9 note=28 velocity=80 time=0
EXTRACT: note_off channel=9 note=54 velocity=80 time=0
EXTRACT: note_off channel=9 note=82 velocity=40 time=0
EXTRACT: note_off channel=9 note=39 velocity=100 time=0
EXTRACT: note_off channel=9 note=85 velocity=100 time=0
EXTRACT: note_on channel=9 note=44 velocity=60 time=0.05625
EXTRACT: note_off channel=9 note=44 velocity=50 time=0.037500000000000006
EXTRACT: note_on channel=9 note=44 velocity=60 time=0.078125
EXTRACT: note_off channel=0 note=59 velocity=80 time=0
EXTRACT: note_on channel=0 note=71 velocity=100 time=0
EXTRACT: note_off channel=2 note=59 velocity=80 time=0
EXTRACT: note_on channel=2 note=71 velocity=100 time=0
EXTRACT: note_on channel=3 note=64 velocity=100 time=0
EXTRACT: note_off channel=9 note=44 velocity=50 time=0.125
EXTRACT: note_on channel=9 note=82 velocity=50 time=0.037500000000000006
EXTRACT: note_on channel=9 note=44 velocity=60 time=0
EXTRACT: note_off channel=3 note=68 velocity=80 time=0
EXTRACT: note_off channel=9 note=44 velocity=50 time=0.078125
EXTRACT: note_off channel=9 note=82 velocity=40 time=0
EXTRACT: note_off channel=0 note=64 velocity=80 time=0.0171875
EXTRACT: note_off channel=2 note=64 velocity=80 time=0
EXTRACT: note_on channel=9 note=44 velocity=60 time=0.060937500000000006
EXTRACT: note_off channel=0 note=52 velocity=80 time=0
EXTRACT: note_on channel=0 note=47 velocity=100 time=0
EXTRACT: note_off channel=1 note=52 velocity=80 time=0
EXTRACT: note_off channel=1 note=64 velocity=80 time=0
EXTRACT: note_on channel=1 note=47 velocity=100 time=0
EXTRACT: note_on channel=1 note=59 velocity=100 time=0
EXTRACT: note_off channel=2 note=52 velocity=80 time=0
EXTRACT: note_on channel=2 note=47 velocity=100 time=0
EXTRACT: note_off channel=4 note=76 velocity=80 time=0
EXTRACT: note_off channel=4 note=64 velocity=80 time=0
EXTRACT: note_on channel=4 note=59 velocity=100 time=0
EXTRACT: note_on channel=4 note=71 velocity=100 time=0
EXTRACT: note_on channel=3 note=61 velocity=100 time=0
EXTRACT: note_off channel=3 note=64 velocity=80 time=0.1
EXTRACT: note_off channel=9 note=44 velocity=50 time=0.025
EXTRACT: note_on channel=9 note=82 velocity=50 time=0.00625
EXTRACT: note_on channel=9 note=44 velocity=60 time=0
EXTRACT: note_off channel=9 note=44 velocity=50 time=0.125
EXTRACT: note_off channel=9 note=82 velocity=40 time=0
EXTRACT: note_off channel=0 note=71 velocity=80 time=0.0171875
EXTRACT: note_off channel=2 note=71 velocity=80 time=0
EXTRACT: note_on channel=9 note=35 velocity=120 time=0.060937500000000006
EXTRACT: note_on channel=9 note=36 velocity=120 time=0
EXTRACT: note_on channel=9 note=82 velocity=50 time=0
EXTRACT: note_on channel=9 note=44 velocity=60 time=0
EXTRACT: note_on channel=0 note=59 velocity=100 time=0
EXTRACT: note_on channel=2 note=59 velocity=100 time=0
EXTRACT: note_on channel=3 note=59 velocity=100 time=0
EXTRACT: note_off channel=9 note=44 velocity=50 time=0.125
EXTRACT: note_off channel=9 note=82 velocity=40 time=0
EXTRACT: note_off channel=9 note=36 velocity=100 time=0
EXTRACT: note_off channel=9 note=35 velocity=100 time=0
EXTRACT: note_off channel=3 note=61 velocity=80 time=0.0171875
EXTRACT: note_on channel=9 note=44 velocity=60 time=0.0203125
EXTRACT: note_off channel=9 note=44 velocity=50 time=0.0890625
EXTRACT: note_on channel=9 note=85 velocity=120 time=0.078125
EXTRACT: note_on channel=9 note=39 velocity=120 time=0
EXTRACT: note_on channel=9 note=54 velocity=100 time=0
EXTRACT: note_on channel=9 note=28 velocity=100 time=0
EXTRACT: note_on channel=9 note=44 velocity=60 time=0
EXTRACT: note_on channel=0 note=63 velocity=100 time=0
EXTRACT: note_on channel=2 note=63 velocity=100 time=0
EXTRACT: note_on channel=3 note=56 velocity=100 time=0
EXTRACT: note_off channel=9 note=44 velocity=50 time=0.125
EXTRACT: note_off channel=9 note=28 velocity=80 time=0
EXTRACT: note_off channel=9 note=54 velocity=80 time=0
EXTRACT: note_off channel=9 note=39 velocity=100 time=0
EXTRACT: note_off channel=9 note=85 velocity=100 time=0
EXTRACT: note_on channel=9 note=44 velocity=60 time=0.05625
EXTRACT: note_off channel=3 note=59 velocity=80 time=0.004687500000000001
EXTRACT: note_off channel=9 note=44 velocity=50 time=0.1046875
EXTRACT: note_off channel=0 note=59 velocity=80 time=0.0171875
EXTRACT: note_off channel=2 note=59 velocity=80 time=0
EXTRACT: note_off channel=3 note=56 velocity=80 time=0.0203125
EXTRACT: note_on channel=9 note=44 velocity=60 time=0.040625
EXTRACT: note_on channel=0 note=64 velocity=100 time=0
EXTRACT: note_on channel=2 note=64 velocity=100 time=0
EXTRACT: note_on channel=3 note=56 velocity=100 time=0
EXTRACT: note_off channel=9 note=44 velocity=50 time=0.125
EXTRACT: note_off channel=0 note=63 velocity=80 time=0.0171875
EXTRACT: note_off channel=2 note=63 velocity=80 time=0
EXTRACT: note_on channel=9 note=44 velocity=60 time=0.0203125
EXTRACT: note_off channel=9 note=44 velocity=50 time=0.07500000000000001
EXTRACT: note_on channel=9 note=35 velocity=120 time=0.078125
EXTRACT: note_on channel=9 note=36 velocity=120 time=0
EXTRACT: note_on channel=9 note=44 velocity=60 time=0
EXTRACT: note_off channel=0 note=47 velocity=80 time=0
EXTRACT: note_on channel=0 note=49 velocity=100 time=0
EXTRACT: note_off channel=1 note=59 velocity=80 time=0
EXTRACT: note_off channel=1 note=47 velocity=80 time=0
EXTRACT: note_on channel=1 note=49 velocity=100 time=0
EXTRACT: note_on channel=1 note=61 velocity=100 time=0
EXTRACT: note_off channel=2 note=47 velocity=80 time=0
EXTRACT: note_on channel=2 note=49 velocity=100 time=0
EXTRACT: note_off channel=4 note=71 velocity=80 time=0
EXTRACT: note_off channel=4 note=59 velocity=80 time=0
EXTRACT: note_on channel=4 note=61 velocity=100 time=0
EXTRACT: note_on channel=4 note=73 velocity=100 time=0
EXTRACT: note_off channel=9 note=44 velocity=50 time=0.125
EXTRACT: note_off channel=9 note=36 velocity=100 time=0
EXTRACT: note_off channel=9 note=35 velocity=100 time=0
EXTRACT: note_on channel=9 note=44 velocity=60 time=0.05625
EXTRACT: note_off channel=0 note=64 velocity=80 time=0
EXTRACT: note_off channel=2 note=64 velocity=80 time=0
EXTRACT: note_off channel=9 note=44 velocity=50 time=0.125
EXTRACT: note_on channel=9 note=82 velocity=50 time=0.078125
EXTRACT: note_on channel=9 note=44 velocity=60 time=0
EXTRACT: note_on channel=0 note=61 velocity=100 time=0
EXTRACT: note_on channel=2 note=61 velocity=100 time=0
EXTRACT: note_off channel=9 note=44 velocity=50 time=0.125
EXTRACT: note_off channel=9 note=82 velocity=40 time=0
EXTRACT: note_on channel=9 note=35 velocity=120 time=0.037500000000000006
EXTRACT: note_on channel=9 note=36 velocity=120 time=0
EXTRACT: note_on channel=9 note=44 velocity=60 time=0
EXTRACT: note_off channel=9 note=44 velocity=50 time=0.125
EXTRACT: note_off channel=9 note=36 velocity=100 time=0
EXTRACT: note_off channel=9 note=35 velocity=100 time=0
EXTRACT: note_on channel=9 note=85 velocity=120 time=0.078125
EXTRACT: note_on channel=9 note=39 velocity=120 time=0
EXTRACT: note_on channel=9 note=82 velocity=50 time=0
EXTRACT: note_on channel=9 note=54 velocity=100 time=0
EXTRACT: note_on channel=9 note=28 velocity=100 time=0
EXTRACT: note_on channel=9 note=44 velocity=60 time=0
EXTRACT: note_on channel=0 note=64 velocity=100 time=0
EXTRACT: note_on channel=2 note=64 velocity=100 time=0
EXTRACT: note_on channel=5 note=64 velocity=100 time=0
EXTRACT: note_on channel=0 note=71 velocity=100 time=0.0390625
EXTRACT: note_on channel=2 note=71 velocity=100 time=0
EXTRACT: note_off channel=9 note=44 velocity=50 time=0.0859375
EXTRACT: note_off channel=9 note=28 velocity=80 time=0
EXTRACT: note_off channel=9 note=54 velocity=80 time=0
EXTRACT: note_off channel=9 note=82 velocity=40 time=0
EXTRACT: note_off channel=9 note=39 velocity=100 time=0
EXTRACT: note_off channel=9 note=85 velocity=100 time=0
EXTRACT: note_on channel=9 note=44 velocity=60 time=0.05625
EXTRACT: note_off channel=0 note=61 velocity=80 time=0.05
EXTRACT: note_off channel=2 note=61 velocity=80 time=0
EXTRACT: note_off channel=9 note=44 velocity=50 time=0.0234375
EXTRACT: note_off channel=3 note=56 velocity=80 time=0.037500000000000006
EXTRACT: note_on channel=9 note=44 velocity=60 time=0.040625
EXTRACT: note_on channel=0 note=69 velocity=100 time=0
EXTRACT: note_on channel=0 note=57 velocity=100 time=0
EXTRACT: note_on channel=2 note=69 velocity=100 time=0
EXTRACT: note_on channel=2 note=57 velocity=100 time=0
EXTRACT: note_off channel=5 note=64 velocity=80 time=0
EXTRACT: note_on channel=5 note=59 velocity=100 time=0
EXTRACT: note_off channel=9 note=44 velocity=50 time=0.125
EXTRACT: note_on channel=9 note=82 velocity=50 time=0.037500000000000006
EXTRACT: note_on channel=9 note=44 velocity=60 time=0
EXTRACT: note_off channel=0 note=64 velocity=80 time=0.0390625
EXTRACT: note_off channel=2 note=64 velocity=80 time=0
EXTRACT: note_off channel=9 note=44 velocity=50 time=0.06406250000000001
EXTRACT: note_off channel=9 note=82 velocity=40 time=0
EXTRACT: note_off channel=0 note=71 velocity=80 time=0.05625
EXTRACT: note_off channel=2 note=71 velocity=80 time=0
EXTRACT: note_on channel=9 note=44 velocity=60 time=0.021875000000000002
EXTRACT: note_off channel=0 note=49 velocity=80 time=0
EXTRACT: note_off channel=1 note=61 velocity=80 time=0
EXTRACT: note_off channel=1 note=49 velocity=80 time=0
EXTRACT: note_on channel=1 note=69 velocity=100 time=0
EXTRACT: note_on channel=1 note=57 velocity=100 time=0
EXTRACT: note_on channel=1 note=45 velocity=100 time=0
EXTRACT: note_off channel=2 note=49 velocity=80 time=0
EXTRACT: note_off channel=4 note=73 velocity=80 time=0
EXTRACT: note_off channel=4 note=61 velocity=80 time=0
EXTRACT: note_on channel=4 note=81 velocity=100 time=0
EXTRACT: note_on channel=4 note=69 velocity=100 time=0
EXTRACT: note_on channel=4 note=57 velocity=100 time=0
EXTRACT: note_off channel=9 note=44 velocity=50 time=0.125
EXTRACT: note_on channel=9 note=82 velocity=50 time=0.05625
EXTRACT: note_on channel=9 note=44 velocity=60 time=0
EXTRACT: note_on channel=3 note=61 velocity=100 time=0
EXTRACT: note_on channel=5 note=64 velocity=100 time=0
EXTRACT: note_off channel=5 note=59 velocity=80 time=0.08125
EXTRACT: note_off channel=9 note=44 velocity=50 time=0.043750000000000004
EXTRACT: note_off channel=9 note=82 velocity=40 time=0
EXTRACT: note_on channel=9 note=35 velocity=120 time=0.078125
EXTRACT: note_on channel=9 note=36 velocity=120 time=0
EXTRACT: note_on channel=9 note=82 velocity=50 time=0
EXTRACT: note_on channel=9 note=44 velocity=60 time=0
EXTRACT: note_on channel=0 note=68 velocity=100 time=0
EXTRACT: note_on channel=1 note=68 velocity=100 time=0
EXTRACT: note_on channel=2 note=68 velocity=100 time=0
EXTRACT: note_on channel=4 note=80 velocity=100 time=0
EXTRACT: note_on channel=3 note=64 velocity=100 time=0
EXTRACT: note_on channel=5 note=68 velocity=100 time=0
EXTRACT: note_off channel=0 note=69 velocity=80 time=0.040625
EXTRACT: note_off channel=2 note=69 velocity=80 time=0
EXTRACT: note_off channel=3 note=61 velocity=80 time=0.0203125
EXTRACT: note_off channel=5 note=64 velocity=80 time=0
EXTRACT: note_off channel=1 note=69 velocity=80 time=0.03125
EXTRACT: note_off channel=4 note=81 velocity=80 time=0
EXTRACT: note_off channel=9 note=44 velocity=50 time=0.003125
EXTRACT: note_off channel=9 note=82 velocity=40 time=0
EXTRACT: note_off channel=9 note=36 velocity=100 time=0
EXTRACT: note_off channel=9 note=35 velocity=100 time=0
EXTRACT: note_on channel=9 note=44 velocity=60 time=0.037500000000000006
EXTRACT: note_on channel=3 note=61 velocity=100 time=0
EXTRACT: note_on channel=5 note=64 velocity=100 time=0
EXTRACT: note_off channel=3 note=64 velocity=80 time=0.05
EXTRACT: note_off channel=5 note=68 velocity=80 time=0
EXTRACT: note_off channel=9 note=44 velocity=50 time=0.003125
EXTRACT: note_on channel=9 note=85 velocity=120 time=0.078125
EXTRACT: note_on channel=9 note=39 velocity=120 time=0
EXTRACT: note_on channel=9 note=54 velocity=100 time=0
EXTRACT: note_on channel=9 note=28 velocity=100 time=0
EXTRACT: note_on channel=9 note=44 velocity=60 time=0
EXTRACT: note_on channel=0 note=66 velocity=100 time=0
EXTRACT: note_on channel=1 note=66 velocity=100 time=0
EXTRACT: note_on channel=2 note=66 velocity=100 time=0
EXTRACT: note_on channel=4 note=78 velocity=100 time=0
EXTRACT: note_on channel=3 note=64 velocity=100 time=0
EXTRACT: note_on channel=5 note=68 velocity=100 time=0
EXTRACT: note_off channel=9 note=44 velocity=50 time=0.10312500000000001
EXTRACT: note_off channel=9 note=28 velocity=80 time=0
EXTRACT: note_off channel=9 note=54 velocity=80 time=0
EXTRACT: note_off channel=9 note=39 velocity=100 time=0
EXTRACT: note_off channel=9 note=85 velocity=100 time=0
EXTRACT: note_off channel=1 note=68 velocity=80 time=0.015625
EXTRACT: note_off channel=4 note=80 velocity=80 time=0
EXTRACT: note_off channel=3 note=61 velocity=80 time=0
EXTRACT: note_off channel=5 note=64 velocity=80 time=0
EXTRACT: note_on channel=9 note=44 velocity=60 time=0.040625
EXTRACT: note_off channel=0 note=68 velocity=80 time=0.078125
EXTRACT: note_off channel=2 note=68 velocity=80 time=0
EXTRACT: note_off channel=9 note=44 velocity=50 time=0.0234375
EXTRACT: note_off channel=3 note=64 velocity=80 time=0.037500000000000006
EXTRACT: note_off channel=5 note=68 velocity=80 time=0
EXTRACT: note_on channel=9 note=44 velocity=60 time=0.040625
EXTRACT: note_on channel=0 note=64 velocity=100 time=0
EXTRACT: note_on channel=1 note=64 velocity=100 time=0
EXTRACT: note_on channel=2 note=64 velocity=100 time=0
EXTRACT: note_on channel=4 note=76 velocity=100 time=0
EXTRACT: note_on channel=3 note=66 velocity=100 time=0
EXTRACT: note_on channel=5 note=69 velocity=100 time=0
EXTRACT: note_off channel=9 note=44 velocity=50 time=0.125
EXTRACT: note_off channel=1 note=66 velocity=80 time=0.0171875
EXTRACT: note_off channel=4 note=78 velocity=80 time=0
EXTRACT: note_on channel=9 note=44 velocity=60 time=0.0203125
EXTRACT: note_on channel=3 note=68 velocity=100 time=0
EXTRACT: note_on channel=5 note=71 velocity=100 time=0
EXTRACT: note_off channel=0 note=66 velocity=80 time=0.0015625
EXTRACT: note_off channel=2 note=66 velocity=80 time=0
EXTRACT: note_off channel=9 note=44 velocity=50 time=0.084375
EXTRACT: note_off channel=0 note=57 velocity=80 time=0.0171875
EXTRACT: note_off channel=2 note=57 velocity=80 time=0
EXTRACT: note_off channel=3 note=66 velocity=80 time=0.0203125
EXTRACT: note_off channel=5 note=69 velocity=80 time=0
EXTRACT: note_off channel=1 note=64 velocity=80 time=0.0203125
EXTRACT: note_off channel=4 note=76 velocity=80 time=0
EXTRACT: note_on channel=9 note=35 velocity=120 time=0.0203125
EXTRACT: note_on channel=9 note=36 velocity=120 time=0
EXTRACT: note_on channel=9 note=44 velocity=60 time=0
EXTRACT: note_on channel=0 note=52 velocity=100 time=0
EXTRACT: note_off channel=1 note=57 velocity=80 time=0
EXTRACT: note_off channel=1 note=45 velocity=80 time=0
EXTRACT: note_on channel=1 note=64 velocity=100 time=0
EXTRACT: note_on channel=1 note=52 velocity=100 time=0
EXTRACT: note_on channel=2 note=52 velocity=100 time=0
EXTRACT: note_off channel=4 note=69 velocity=80 time=0
EXTRACT: note_off channel=4 note=57 velocity=80 time=0
EXTRACT: note_on channel=4 note=76 velocity=100 time=0
EXTRACT: note_on channel=4 note=64 velocity=100 time=0
EXTRACT: note_off channel=5 note=71 velocity=80 time=0.0921875
EXTRACT: note_off channel=9 note=44 velocity=50 time=0.025
EXTRACT: note_off channel=9 note=36 velocity=100 time=0
EXTRACT: note_off channel=9 note=35 velocity=100 time=0
EXTRACT: note_on channel=9 note=44 velocity=60 time=0.05625
EXTRACT: note_off channel=0 note=64 velocity=80 time=0.1015625
EXTRACT: note_off channel=2 note=64 velocity=80 time=0
EXTRACT: note_off channel=9 note=44 velocity=50 time=0.0234375
EXTRACT: note_off channel=3 note=68 velocity=80 time=0.037500000000000006
EXTRACT: note_on channel=9 note=82 velocity=50 time=0.040625
EXTRACT: note_on channel=9 note=44 velocity=60 time=0
EXTRACT: note_on channel=0 note=59 velocity=100 time=0
EXTRACT: note_on channel=2 note=59 velocity=100 time=0
EXTRACT: note_off channel=9 note=44 velocity=50 time=0.125
EXTRACT: note_off channel=9 note=82 velocity=40 time=0
EXTRACT: note_on channel=9 note=35 velocity=120 time=0.037500000000000006
EXTRACT: note_on channel=9 note=36 velocity=120 time=0
EXTRACT: note_on channel=9 note=44 velocity=60 time=0
EXTRACT: note_on channel=3 note=64 velocity=100 time=0
EXTRACT: note_off channel=9 note=44 velocity=50 time=0.125
EXTRACT: note_off channel=9 note=36 velocity=100 time=0
EXTRACT: note_off channel=9 note=35 velocity=100 time=0
EXTRACT: note_on channel=9 note=85 velocity=120 time=0.078125
EXTRACT: note_on channel=9 note=39 velocity=120 time=0
EXTRACT: note_on channel=9 note=82 velocity=50 time=0
EXTRACT: note_on channel=9 note=54 velocity=100 time=0
EXTRACT: note_on channel=9 note=28 velocity=100 time=0
EXTRACT: note_on channel=9 note=44 velocity=60 time=0
EXTRACT: note_on channel=0 note=64 velocity=100 time=0
EXTRACT: note_on channel=2 note=64 velocity=100 time=0
EXTRACT: note_on channel=3 note=68 velocity=100 time=0
EXTRACT: note_off channel=9 note=44 velocity=50 time=0.015625
EXTRACT: note_off channel=9 note=28 velocity=80 time=0
EXTRACT: note_off channel=9 note=54 velocity=80 time=0
EXTRACT: note_off channel=9 note=82 velocity=40 time=0
EXTRACT: note_off channel=9 note=39 velocity=100 time=0
EXTRACT: note_off channel=9 note=85 velocity=100 time=0
EXTRACT: note_on channel=9 note=44 velocity=60 time=0.05625
EXTRACT: note_off channel=3 note=64 velocity=80 time=0
EXTRACT: note_off channel=9 note=44 velocity=50 time=0.125
EXTRACT: note_on channel=9 note=44 velocity=60 time=0.078125
EXTRACT: note_off channel=0 note=59 velocity=80 time=0
EXTRACT: note_on channel=0 note=71 velocity=100 time=0
EXTRACT: note_off channel=2 note=59 velocity=80 time=0
EXTRACT: note_on channel=2 note=71 velocity=100 time=0
EXTRACT: note_on channel=3 note=64 velocity=100 time=0
EXTRACT: note_off channel=9 note=44 velocity=50 time=0.06406250000000001
EXTRACT: note_on channel=9 note=82 velocity=50 time=0.037500000000000006
EXTRACT: note_on channel=9 note=44 velocity=60 time=0
EXTRACT: note_off channel=3 note=68 velocity=80 time=0
EXTRACT: note_off channel=9 note=44 velocity=50 time=0.125
EXTRACT: note_off channel=9 note=82 velocity=40 time=0
EXTRACT: note_off channel=0 note=64 velocity=80 time=0.0171875
EXTRACT: note_off channel=2 note=64 velocity=80 time=0
EXTRACT: note_on channel=9 note=44 velocity=60 time=0.05625
EXTRACT: note_off channel=0 note=52 velocity=80 time=0
EXTRACT: note_on channel=0 note=47 velocity=100 time=0
EXTRACT: note_off channel=1 note=52 velocity=80 time=0
EXTRACT: note_off channel=1 note=64 velocity=80 time=0
EXTRACT: note_on channel=1 note=47 velocity=100 time=0
EXTRACT: note_on channel=1 note=59 velocity=100 time=0
EXTRACT: note_off channel=2 note=52 velocity=80 time=0
EXTRACT: note_on channel=2 note=47 velocity=100 time=0
EXTRACT: note_off channel=4 note=64 velocity=80 time=0
EXTRACT: note_off channel=4 note=76 velocity=80 time=0
EXTRACT: note_on channel=4 note=59 velocity=100 time=0
EXTRACT: note_on channel=4 note=71 velocity=100 time=0
EXTRACT: note_on channel=3 note=61 velocity=100 time=0
EXTRACT: note_off channel=3 note=64 velocity=80 time=0.1
EXTRACT: note_off channel=9 note=44 velocity=50 time=0.025
EXTRACT: note_on channel=9 note=82 velocity=50 time=0.05625
EXTRACT: note_on channel=9 note=44 velocity=60 time=0
EXTRACT: note_off channel=9 note=44 velocity=50 time=0.115625
EXTRACT: note_off channel=9 note=82 velocity=40 time=0
EXTRACT: note_off channel=0 note=71 velocity=80 time=0.0171875
EXTRACT: note_off channel=2 note=71 velocity=80 time=0
EXTRACT: note_on channel=9 note=35 velocity=120 time=0.060937500000000006
EXTRACT: note_on channel=9 note=36 velocity=120 time=0
EXTRACT: note_on channel=9 note=82 velocity=50 time=0
EXTRACT: note_on channel=9 note=44 velocity=60 time=0
EXTRACT: note_on channel=0 note=59 velocity=100 time=0
EXTRACT: note_on channel=2 note=59 velocity=100 time=0
EXTRACT: note_on channel=3 note=59 velocity=100 time=0
EXTRACT: note_off channel=9 note=44 velocity=50 time=0.125
EXTRACT: note_off channel=9 note=82 velocity=40 time=0
EXTRACT: note_off channel=9 note=36 velocity=100 time=0
EXTRACT: note_off channel=9 note=35 velocity=100 time=0
EXTRACT: note_off channel=3 note=61 velocity=80 time=0
EXTRACT: note_on channel=9 note=44 velocity=60 time=0.0203125
EXTRACT: note_off channel=9 note=44 velocity=50 time=0.125
EXTRACT: note_on channel=9 note=85 velocity=120 time=0.078125
EXTRACT: note_on channel=9 note=39 velocity=120 time=0
EXTRACT: note_on channel=9 note=54 velocity=100 time=0
EXTRACT: note_on channel=9 note=28 velocity=100 time=0
EXTRACT: note_on channel=9 note=44 velocity=60 time=0
EXTRACT: note_on channel=0 note=63 velocity=100 time=0
EXTRACT: note_on channel=2 note=63 velocity=100 time=0
EXTRACT: note_on channel=3 note=56 velocity=100 time=0
EXTRACT: note_off channel=9 note=44 velocity=50 time=0.125
EXTRACT: note_off channel=9 note=28 velocity=80 time=0
EXTRACT: note_off channel=9 note=54 velocity=80 time=0
EXTRACT: note_off channel=9 note=39 velocity=100 time=0
EXTRACT: note_off channel=9 note=85 velocity=100 time=0
EXTRACT: note_on channel=9 note=44 velocity=60 time=0.028125
EXTRACT: note_off channel=3 note=59 velocity=80 time=0.0203125
EXTRACT: note_off channel=9 note=44 velocity=50 time=0.1046875
EXTRACT: note_off channel=0 note=59 velocity=80 time=0.0171875
EXTRACT: note_off channel=2 note=59 velocity=80 time=0
EXTRACT: note_off channel=3 note=56 velocity=80 time=0.0203125
EXTRACT: note_on channel=9 note=44 velocity=60 time=0.040625
EXTRACT: note_on channel=0 note=64 velocity=100 time=0
EXTRACT: note_on channel=2 note=64 velocity=100 time=0
EXTRACT: note_on channel=3 note=56 velocity=100 time=0
EXTRACT: note_off channel=9 note=44 velocity=50 time=0.125
EXTRACT: note_off channel=0 note=63 velocity=80 time=0.0171875
EXTRACT: note_off channel=2 note=63 velocity=80 time=0
EXTRACT: note_on channel=9 note=44 velocity=60 time=0.0203125
EXTRACT: note_on channel=3 note=54 velocity=100 time=0
EXTRACT: note_off channel=3 note=56 velocity=80 time=0.08750000000000001
EXTRACT: note_off channel=9 note=44 velocity=50 time=0.0234375
EXTRACT: note_on channel=9 note=35 velocity=120 time=0.078125
EXTRACT: note_on channel=9 note=36 velocity=120 time=0
EXTRACT: note_on channel=9 note=44 velocity=60 time=0
EXTRACT: note_off channel=0 note=47 velocity=80 time=0
EXTRACT: note_on channel=0 note=49 velocity=100 time=0
EXTRACT: note_off channel=1 note=59 velocity=80 time=0
EXTRACT: note_off channel=1 note=47 velocity=80 time=0
EXTRACT: note_on channel=1 note=49 velocity=100 time=0
EXTRACT: note_on channel=1 note=61 velocity=100 time=0
EXTRACT: note_off channel=2 note=47 velocity=80 time=0
EXTRACT: note_on channel=2 note=49 velocity=100 time=0
EXTRACT: note_off channel=4 note=71 velocity=80 time=0
EXTRACT: note_off channel=4 note=59 velocity=80 time=0
EXTRACT: note_on channel=4 note=61 velocity=100 time=0
EXTRACT: note_on channel=4 note=73 velocity=100 time=0
EXTRACT: note_on channel=3 note=52 velocity=100 time=0
EXTRACT: note_off channel=3 note=54 velocity=80 time=0.0390625
EXTRACT: note_off channel=9 note=44 velocity=50 time=0.0859375
EXTRACT: note_off channel=9 note=36 velocity=100 time=0
EXTRACT: note_off channel=9 note=35 velocity=100 time=0
EXTRACT: note_on channel=9 note=44 velocity=60 time=0.05625
EXTRACT: note_off channel=0 note=64 velocity=80 time=0
EXTRACT: note_off channel=2 note=64 velocity=80 time=0
EXTRACT: note_on channel=3 note=54 velocity=100 time=0
EXTRACT: note_off channel=3 note=52 velocity=80 time=0.08125
EXTRACT: note_off channel=9 note=44 velocity=50 time=0.043750000000000004
EXTRACT: note_on channel=9 note=82 velocity=50 time=0.078125
EXTRACT: note_on channel=9 note=44 velocity=60 time=0
EXTRACT: note_on channel=0 note=61 velocity=100 time=0
EXTRACT: note_on channel=2 note=61 velocity=100 time=0
EXTRACT: note_on channel=3 note=56 velocity=100 time=0
EXTRACT: note_off channel=3 note=54 velocity=80 time=0.08125
EXTRACT: note_off channel=9 note=44 velocity=50 time=0.043750000000000004
EXTRACT: note_off channel=9 note=82 velocity=40 time=0
EXTRACT: note_on channel=9 note=35 velocity=120 time=0.037500000000000006
EXTRACT: note_on channel=9 note=36 velocity=120 time=0
EXTRACT: note_on channel=9 note=44 velocity=60 time=0
EXTRACT: note_off channel=9 note=44 velocity=50 time=0.125
EXTRACT: note_off channel=9 note=36 velocity=100 time=0
EXTRACT: note_off channel=9 note=35 velocity=100 time=0
EXTRACT: note_on channel=9 note=85 velocity=120 time=0.078125
EXTRACT: note_on channel=9 note=39 velocity=120 time=0
EXTRACT: note_on channel=9 note=82 velocity=50 time=0
EXTRACT: note_on channel=9 note=54 velocity=100 time=0
EXTRACT: note_on channel=9 note=28 velocity=100 time=0
EXTRACT: note_on channel=9 note=44 velocity=60 time=0
EXTRACT: note_on channel=0 note=64 velocity=100 time=0
EXTRACT: note_on channel=2 note=64 velocity=100 time=0
EXTRACT: note_on channel=5 note=68 velocity=100 time=0
EXTRACT: note_on channel=5 note=64 velocity=100 time=0
EXTRACT: note_on channel=0 note=71 velocity=100 time=0.0390625
EXTRACT: note_on channel=2 note=71 velocity=100 time=0
EXTRACT: note_off channel=9 note=44 velocity=50 time=0.0859375
EXTRACT: note_off channel=9 note=28 velocity=80 time=0
EXTRACT: note_off channel=9 note=54 velocity=80 time=0
EXTRACT: note_off channel=9 note=82 velocity=40 time=0
EXTRACT: note_off channel=9 note=39 velocity=100 time=0
EXTRACT: note_off channel=9 note=85 velocity=100 time=0
EXTRACT: note_on channel=9 note=44 velocity=60 time=0.05625
EXTRACT: note_off channel=0 note=61 velocity=80 time=0.1015625
EXTRACT: note_off channel=2 note=61 velocity=80 time=0
EXTRACT: note_off channel=9 note=44 velocity=50 time=0.0234375
EXTRACT: note_on channel=9 note=44 velocity=60 time=0.078125
EXTRACT: note_on channel=0 note=69 velocity=100 time=0
EXTRACT: note_on channel=0 note=57 velocity=100 time=0
EXTRACT: note_on channel=2 note=69 velocity=100 time=0
EXTRACT: note_on channel=2 note=57 velocity=100 time=0
EXTRACT: note_on channel=5 note=66 velocity=100 time=0
EXTRACT: note_on channel=5 note=63 velocity=100 time=0
EXTRACT: note_off channel=5 note=64 velocity=80 time=0.0203125
EXTRACT: note_off channel=5 note=68 velocity=80 time=0.004687500000000001
EXTRACT: note_off channel=9 note=44 velocity=50 time=0.043750000000000004
EXTRACT: note_on channel=9 note=82 velocity=50 time=0.037500000000000006
EXTRACT: note_on channel=9 note=44 velocity=60 time=0
EXTRACT: note_off channel=0 note=64 velocity=80 time=0.060937500000000006
EXTRACT: note_off channel=2 note=64 velocity=80 time=0
EXTRACT: note_off channel=9 note=44 velocity=50 time=0.010937500000000001
EXTRACT: note_off channel=9 note=82 velocity=40 time=0
EXTRACT: note_off channel=0 note=71 velocity=80 time=0.05625
EXTRACT: note_off channel=2 note=71 velocity=80 time=0
EXTRACT: note_on channel=9 note=44 velocity=60 time=0.021875000000000002
EXTRACT: note_off channel=0 note=49 velocity=80 time=0
EXTRACT: note_off channel=1 note=61 velocity=80 time=0
EXTRACT: note_off channel=1 note=49 velocity=80 time=0
EXTRACT: note_on channel=1 note=69 velocity=100 time=0
EXTRACT: note_on channel=1 note=57 velocity=100 time=0
EXTRACT: note_on channel=1 note=45 velocity=100 time=0
EXTRACT: note_off channel=2 note=49 velocity=80 time=0
EXTRACT: note_off channel=4 note=73 velocity=80 time=0
EXTRACT: note_off channel=4 note=61 velocity=80 time=0
EXTRACT: note_on channel=4 note=81 velocity=100 time=0
EXTRACT: note_on channel=4 note=69 velocity=100 time=0
EXTRACT: note_on channel=4 note=57 velocity=100 time=0
EXTRACT: note_off channel=3 note=56 velocity=80 time=0.0203125
EXTRACT: note_off channel=9 note=44 velocity=50 time=0.1046875
EXTRACT: note_on channel=9 note=82 velocity=50 time=0.05625
EXTRACT: note_on channel=9 note=44 velocity=60 time=0
EXTRACT: note_off channel=9 note=44 velocity=50 time=0.125
EXTRACT: note_off channel=9 note=82 velocity=40 time=0
EXTRACT: note_on channel=9 note=35 velocity=120 time=0.078125
EXTRACT: note_on channel=9 note=36 velocity=120 time=0
EXTRACT: note_on channel=9 note=82 velocity=50 time=0
EXTRACT: note_on channel=9 note=44 velocity=60 time=0
EXTRACT: note_on channel=0 note=68 velocity=100 time=0
EXTRACT: note_on channel=1 note=68 velocity=100 time=0
EXTRACT: note_on channel=2 note=68 velocity=100 time=0
EXTRACT: note_on channel=4 note=80 velocity=100 time=0
EXTRACT: note_off channel=5 note=66 velocity=80 time=0
EXTRACT: note_off channel=5 note=63 velocity=80 time=0
EXTRACT: note_off channel=0 note=69 velocity=80 time=0.040625
EXTRACT: note_off channel=2 note=69 velocity=80 time=0
EXTRACT: note_off channel=1 note=69 velocity=80 time=0.08125
EXTRACT: note_off channel=4 note=81 velocity=80 time=0
EXTRACT: note_off channel=9 note=44 velocity=50 time=0.003125
EXTRACT: note_off channel=9 note=82 velocity=40 time=0
EXTRACT: note_off channel=9 note=36 velocity=100 time=0
EXTRACT: note_off channel=9 note=35 velocity=100 time=0
EXTRACT: note_on channel=9 note=44 velocity=60 time=0.037500000000000006
EXTRACT: note_off channel=9 note=44 velocity=50 time=0.125
EXTRACT: note_on channel=9 note=85 velocity=120 time=0.078125
EXTRACT: note_on channel=9 note=39 velocity=120 time=0
EXTRACT: note_on channel=9 note=54 velocity=100 time=0
EXTRACT: note_on channel=9 note=28 velocity=100 time=0
EXTRACT: note_on channel=9 note=44 velocity=60 time=0
EXTRACT: note_on channel=0 note=66 velocity=100 time=0
EXTRACT: note_on channel=1 note=66 velocity=100 time=0
EXTRACT: note_on channel=2 note=66 velocity=100 time=0
EXTRACT: note_on channel=4 note=78 velocity=100 time=0
EXTRACT: note_on channel=3 note=59 velocity=100 time=0
EXTRACT: note_off channel=9 note=44 velocity=50 time=0.125
EXTRACT: note_off channel=9 note=28 velocity=80 time=0
EXTRACT: note_off channel=9 note=54 velocity=80 time=0
EXTRACT: note_off channel=9 note=39 velocity=100 time=0
EXTRACT: note_off channel=9 note=85 velocity=100 time=0
EXTRACT: note_off channel=1 note=68 velocity=80 time=0.015625
EXTRACT: note_off channel=4 note=80 velocity=80 time=0
EXTRACT: note_on channel=9 note=44 velocity=60 time=0.040625
EXTRACT: note_on channel=3 note=61 velocity=100 time=0
EXTRACT: note_off channel=0 note=68 velocity=80 time=0.096875
EXTRACT: note_off channel=2 note=68 velocity=80 time=0
EXTRACT: note_off channel=3 note=59 velocity=80 time=0
EXTRACT: note_off channel=9 note=44 velocity=50 time=0.0234375
EXTRACT: note_on channel=9 note=44 velocity=60 time=0.0078125
EXTRACT: note_on channel=0 note=64 velocity=100 time=0
EXTRACT: note_on channel=1 note=64 velocity=100 time=0
EXTRACT: note_on channel=2 note=64 velocity=100 time=0
EXTRACT: note_on channel=4 note=76 velocity=100 time=0
EXTRACT: note_on channel=3 note=64 velocity=100 time=0
EXTRACT: note_off channel=3 note=61 velocity=80 time=0.1015625
EXTRACT: note_off channel=9 note=44 velocity=50 time=0.0234375
EXTRACT: note_off channel=1 note=66 velocity=80 time=0.0171875
EXTRACT: note_off channel=4 note=78 velocity=80 time=0
EXTRACT: note_on channel=9 note=44 velocity=60 time=0.00625
EXTRACT: note_off channel=0 note=66 velocity=80 time=0.040625
EXTRACT: note_off channel=2 note=66 velocity=80 time=0
EXTRACT: note_off channel=9 note=44 velocity=50 time=0.084375
EXTRACT: note_off channel=0 note=57 velocity=80 time=0.0171875
EXTRACT: note_off channel=2 note=57 velocity=80 time=0
EXTRACT: note_off channel=1 note=64 velocity=80 time=0.0328125
EXTRACT: note_off channel=4 note=76 velocity=80 time=0
EXTRACT: note_off channel=3 note=64 velocity=80 time=0
EXTRACT: note_on channel=9 note=35 velocity=120 time=0.0203125
EXTRACT: note_on channel=9 note=36 velocity=120 time=0
EXTRACT: note_on channel=9 note=44 velocity=60 time=0
EXTRACT: note_on channel=0 note=52 velocity=100 time=0
EXTRACT: note_off channel=1 note=57 velocity=80 time=0
EXTRACT: note_off channel=1 note=45 velocity=80 time=0
EXTRACT: note_on channel=1 note=64 velocity=100 time=0
EXTRACT: note_on channel=1 note=52 velocity=100 time=0
EXTRACT: note_on channel=2 note=52 velocity=100 time=0
EXTRACT: note_off channel=4 note=69 velocity=80 time=0
EXTRACT: note_off channel=4 note=57 velocity=80 time=0
EXTRACT: note_on channel=4 note=76 velocity=100 time=0
EXTRACT: note_on channel=4 note=64 velocity=100 time=0
EXTRACT: note_on channel=3 note=63 velocity=100 time=0
EXTRACT: note_off channel=9 note=44 velocity=50 time=0.125
EXTRACT: note_off channel=9 note=36 velocity=100 time=0
EXTRACT: note_off channel=9 note=35 velocity=100 time=0
EXTRACT: note_on channel=9 note=44 velocity=60 time=0.05625
EXTRACT: note_off channel=0 note=64 velocity=80 time=0.1015625
EXTRACT: note_off channel=2 note=64 velocity=80 time=0
EXTRACT: note_off channel=9 note=44 velocity=50 time=0.0234375
EXTRACT: note_on channel=9 note=82 velocity=50 time=0.078125
EXTRACT: note_on channel=9 note=44 velocity=60 time=0
EXTRACT: note_on channel=0 note=59 velocity=100 time=0
EXTRACT: note_on channel=2 note=59 velocity=100 time=0
EXTRACT: note_on channel=3 note=64 velocity=100 time=0
EXTRACT: note_off channel=3 note=63 velocity=80 time=0.0203125
EXTRACT: note_off channel=9 note=44 velocity=50 time=0.1046875
EXTRACT: note_off channel=9 note=82 velocity=40 time=0
EXTRACT: note_on channel=9 note=35 velocity=120 time=0.037500000000000006
EXTRACT: note_on channel=9 note=36 velocity=120 time=0
EXTRACT: note_on channel=9 note=44 velocity=60 time=0
EXTRACT: note_off channel=9 note=44 velocity=50 time=0.08125
EXTRACT: note_off channel=9 note=36 velocity=100 time=0
EXTRACT: note_off channel=9 note=35 velocity=100 time=0
EXTRACT: note_off channel=3 note=64 velocity=80 time=0.0578125
EXTRACT: note_on channel=9 note=85 velocity=120 time=0.0203125
EXTRACT: note_on channel=9 note=39 velocity=120 time=0
EXTRACT: note_on channel=9 note=82 velocity=50 time=0
EXTRACT: note_on channel=9 note=54 velocity=100 time=0
EXTRACT: note_on channel=9 note=28 velocity=100 time=0
EXTRACT: note_on channel=9 note=44 velocity=60 time=0
EXTRACT: note_on channel=0 note=64 velocity=100 time=0
EXTRACT: note_on channel=2 note=64 velocity=100 time=0
EXTRACT: note_on channel=3 note=64 velocity=100 time=0
EXTRACT: note_off channel=9 note=44 velocity=50 time=0.125
EXTRACT: note_off channel=9 note=28 velocity=80 time=0
EXTRACT: note_off channel=9 note=54 velocity=80 time=0
EXTRACT: note_off channel=9 note=82 velocity=40 time=0
EXTRACT: note_off channel=9 note=39 velocity=100 time=0
EXTRACT: note_off channel=9 note=85 velocity=100 time=0
EXTRACT: note_on channel=9 note=44 velocity=60 time=0.0125
EXTRACT: note_off channel=9 note=44 velocity=50 time=0.125
EXTRACT: note_on channel=9 note=44 velocity=60 time=0.078125
EXTRACT: note_off channel=0 note=59 velocity=80 time=0
EXTRACT: note_on channel=0 note=71 velocity=100 time=0
EXTRACT: note_off channel=2 note=59 velocity=80 time=0
EXTRACT: note_on channel=2 note=71 velocity=100 time=0
EXTRACT: note_on channel=3 note=59 velocity=100 time=0
EXTRACT: note_off channel=3 note=64 velocity=80 time=0.0203125
EXTRACT: note_off channel=9 note=44 velocity=50 time=0.0234375
EXTRACT: note_on channel=9 note=82 velocity=50 time=0.037500000000000006
EXTRACT: note_on channel=9 note=44 velocity=60 time=0
EXTRACT: note_off channel=9 note=44 velocity=50 time=0.125
EXTRACT: note_off channel=9 note=82 velocity=40 time=0
EXTRACT: note_off channel=0 note=64 velocity=80 time=0.0171875
EXTRACT: note_off channel=2 note=64 velocity=80 time=0
EXTRACT: note_on channel=9 note=44 velocity=60 time=0.060937500000000006
EXTRACT: note_off channel=0 note=52 velocity=80 time=0
EXTRACT: note_on channel=0 note=47 velocity=100 time=0
EXTRACT: note_off channel=1 note=52 velocity=80 time=0
EXTRACT: note_off channel=1 note=64 velocity=80 time=0
EXTRACT: note_on channel=1 note=47 velocity=100 time=0
EXTRACT: note_on channel=1 note=59 velocity=100 time=0
EXTRACT: note_off channel=2 note=52 velocity=80 time=0
EXTRACT: note_on channel=2 note=47 velocity=100 time=0
EXTRACT: note_off channel=4 note=64 velocity=80 time=0
EXTRACT: note_off channel=4 note=76 velocity=80 time=0
EXTRACT: note_on channel=4 note=59 velocity=100 time=0
EXTRACT: note_on channel=4 note=71 velocity=100 time=0
EXTRACT: note_on channel=3 note=63 velocity=100 time=0
EXTRACT: note_off channel=3 note=59 velocity=80 time=0.1
EXTRACT: note_off channel=9 note=44 velocity=50 time=0.025
EXTRACT: note_on channel=9 note=82 velocity=50 time=0.05625
EXTRACT: note_on channel=9 note=44 velocity=60 time=0
EXTRACT: note_off channel=9 note=44 velocity=50 time=0.10312500000000001
EXTRACT: note_off channel=9 note=82 velocity=40 time=0
EXTRACT: note_off channel=0 note=71 velocity=80 time=0.0171875
EXTRACT: note_off channel=2 note=71 velocity=80 time=0
EXTRACT: note_off channel=3 note=63 velocity=80 time=0.040625
EXTRACT: note_on channel=9 note=35 velocity=120 time=0.0203125
EXTRACT: note_on channel=9 note=36 velocity=120 time=0
EXTRACT: note_on channel=9 note=82 velocity=50 time=0
EXTRACT: note_on channel=9 note=44 velocity=60 time=0
EXTRACT: note_on channel=0 note=59 velocity=100 time=0
EXTRACT: note_on channel=2 note=59 velocity=100 time=0
EXTRACT: note_on channel=3 note=64 velocity=100 time=0
EXTRACT: note_off channel=9 note=44 velocity=50 time=0.125
EXTRACT: note_off channel=9 note=82 velocity=40 time=0
EXTRACT: note_off channel=9 note=36 velocity=100 time=0
EXTRACT: note_off channel=9 note=35 velocity=100 time=0
EXTRACT: note_on channel=9 note=44 velocity=60 time=0.015625
EXTRACT: note_off channel=9 note=44 velocity=50 time=0.125
EXTRACT: note_off channel=3 note=64 velocity=80 time=0.0171875
EXTRACT: note_on channel=9 note=85 velocity=120 time=0.060937500000000006
EXTRACT: note_on channel=9 note=39 velocity=120 time=0
EXTRACT: note_on channel=9 note=54 velocity=100 time=0
EXTRACT: note_on channel=9 note=28 velocity=100 time=0
EXTRACT: note_on channel=9 note=44 velocity=60 time=0
EXTRACT: note_on channel=0 note=63 velocity=100 time=0
EXTRACT: note_on channel=2 note=63 velocity=100 time=0
EXTRACT: note_on channel=3 note=64 velocity=100 time=0
EXTRACT: note_off channel=9 note=44 velocity=50 time=0.035937500000000004
EXTRACT: note_off channel=9 note=28 velocity=80 time=0
EXTRACT: note_off channel=9 note=54 velocity=80 time=0
EXTRACT: note_off channel=9 note=39 velocity=100 time=0
EXTRACT: note_off channel=9 note=85 velocity=100 time=0
EXTRACT: note_on channel=9 note=44 velocity=60 time=0.05625
EXTRACT: note_off channel=9 note=44 velocity=50 time=0.125
EXTRACT: note_off channel=0 note=59 velocity=80 time=0.0171875
EXTRACT: note_off channel=2 note=59 velocity=80 time=0
EXTRACT: note_on channel=9 note=44 velocity=60 time=0.060937500000000006
EXTRACT: note_on channel=0 note=64 velocity=100 time=0
EXTRACT: note_on channel=2 note=64 velocity=100 time=0
EXTRACT: note_off channel=3 note=64 velocity=80 time=0.08125
EXTRACT: note_off channel=9 note=44 velocity=50 time=0.043750000000000004
EXTRACT: note_off channel=0 note=63 velocity=80 time=0.0171875
EXTRACT: note_off channel=2 note=63 velocity=80 time=0
EXTRACT: note_on channel=9 note=44 velocity=60 time=0.0203125
EXTRACT: note_off channel=9 note=44 velocity=50 time=0.125
EXTRACT: note_on channel=9 note=35 velocity=120 time=0.078125
EXTRACT: note_on channel=9 note=36 velocity=120 time=0
EXTRACT: note_on channel=9 note=44 velocity=60 time=0
EXTRACT: note_off channel=0 note=47 velocity=80 time=0
EXTRACT: note_on channel=0 note=49 velocity=100 time=0
EXTRACT: note_off channel=1 note=59 velocity=80 time=0
EXTRACT: note_off channel=1 note=47 velocity=80 time=0
EXTRACT: note_on channel=1 note=49 velocity=100 time=0
EXTRACT: note_on channel=1 note=61 velocity=100 time=0
EXTRACT: note_off channel=2 note=47 velocity=80 time=0
EXTRACT: note_on channel=2 note=49 velocity=100 time=0
EXTRACT: note_off channel=4 note=71 velocity=80 time=0
EXTRACT: note_off channel=4 note=59 velocity=80 time=0
EXTRACT: note_on channel=4 note=61 velocity=100 time=0
EXTRACT: note_on channel=4 note=73 velocity=100 time=0
EXTRACT: note_on channel=3 note=63 velocity=100 time=0
EXTRACT: note_off channel=9 note=44 velocity=50 time=0.021875000000000002
EXTRACT: note_off channel=9 note=36 velocity=100 time=0
EXTRACT: note_off channel=9 note=35 velocity=100 time=0
EXTRACT: note_on channel=9 note=44 velocity=60 time=0.05625
EXTRACT: note_off channel=0 note=64 velocity=80 time=0
EXTRACT: note_off channel=2 note=64 velocity=80 time=0
EXTRACT: note_off channel=9 note=44 velocity=50 time=0.125
EXTRACT: note_on channel=9 note=82 velocity=50 time=0.078125
EXTRACT: note_on channel=9 note=44 velocity=60 time=0
EXTRACT: note_on channel=0 note=61 velocity=100 time=0
EXTRACT: note_on channel=2 note=61 velocity=100 time=0
EXTRACT: note_on channel=3 note=64 velocity=100 time=0
EXTRACT: note_off channel=3 note=63 velocity=80 time=0.0203125
EXTRACT: note_off channel=9 note=44 velocity=50 time=0.08281250000000001
EXTRACT: note_off channel=9 note=82 velocity=40 time=0
EXTRACT: note_on channel=9 note=35 velocity=120 time=0.037500000000000006
EXTRACT: note_on channel=9 note=36 velocity=120 time=0
EXTRACT: note_on channel=9 note=44 velocity=60 time=0
EXTRACT: note_off channel=9 note=44 velocity=50 time=0.125
EXTRACT: note_off channel=9 note=36 velocity=100 time=0
EXTRACT: note_off channel=9 note=35 velocity=100 time=0
EXTRACT: note_off channel=3 note=64 velocity=80 time=0.0578125
EXTRACT: note_on channel=9 note=85 velocity=120 time=0.0203125
EXTRACT: note_on channel=9 note=39 velocity=120 time=0
EXTRACT: note_on channel=9 note=82 velocity=50 time=0
EXTRACT: note_on channel=9 note=54 velocity=100 time=0
EXTRACT: note_on channel=9 note=28 velocity=100 time=0
EXTRACT: note_on channel=9 note=44 velocity=60 time=0
EXTRACT: note_on channel=0 note=64 velocity=100 time=0
EXTRACT: note_on channel=2 note=64 velocity=100 time=0
EXTRACT: note_on channel=3 note=64 velocity=100 time=0
EXTRACT: note_on channel=0 note=71 velocity=100 time=0.0390625
EXTRACT: note_on channel=2 note=71 velocity=100 time=0
EXTRACT: note_off channel=9 note=44 velocity=50 time=0.059375000000000004
EXTRACT: note_off channel=9 note=28 velocity=80 time=0
EXTRACT: note_off channel=9 note=54 velocity=80 time=0
EXTRACT: note_off channel=9 note=82 velocity=40 time=0
EXTRACT: note_off channel=9 note=39 velocity=100 time=0
EXTRACT: note_off channel=9 note=85 velocity=100 time=0
EXTRACT: note_on channel=9 note=44 velocity=60 time=0.05625
EXTRACT: note_off channel=0 note=61 velocity=80 time=0.1015625
EXTRACT: note_off channel=2 note=61 velocity=80 time=0
EXTRACT: note_off channel=9 note=44 velocity=50 time=0.0234375
EXTRACT: note_on channel=9 note=44 velocity=60 time=0.078125
EXTRACT: note_on channel=0 note=69 velocity=100 time=0
EXTRACT: note_on channel=0 note=57 velocity=100 time=0
EXTRACT: note_on channel=2 note=69 velocity=100 time=0
EXTRACT: note_on channel=2 note=57 velocity=100 time=0
EXTRACT: note_on channel=3 note=59 velocity=100 time=0
EXTRACT: note_off channel=3 note=64 velocity=80 time=0.060937500000000006
EXTRACT: note_off channel=9 note=44 velocity=50 time=0.0234375
EXTRACT: note_on channel=9 note=82 velocity=50 time=0.037500000000000006
EXTRACT: note_on channel=9 note=44 velocity=60 time=0
EXTRACT: note_off channel=0 note=64 velocity=80 time=0.060937500000000006
EXTRACT: note_off channel=2 note=64 velocity=80 time=0
EXTRACT: note_off channel=9 note=44 velocity=50 time=0.06406250000000001
EXTRACT: note_off channel=9 note=82 velocity=40 time=0
EXTRACT: note_off channel=0 note=71 velocity=80 time=0.05625
EXTRACT: note_off channel=2 note=71 velocity=80 time=0
EXTRACT: note_on channel=9 note=44 velocity=60 time=0.021875000000000002
EXTRACT: note_off channel=0 note=49 velocity=80 time=0
EXTRACT: note_off channel=1 note=61 velocity=80 time=0
EXTRACT: note_off channel=1 note=49 velocity=80 time=0
EXTRACT: note_on channel=1 note=69 velocity=100 time=0
EXTRACT: note_on channel=1 note=57 velocity=100 time=0
EXTRACT: note_on channel=1 note=45 velocity=100 time=0
EXTRACT: note_off channel=2 note=49 velocity=80 time=0
EXTRACT: note_off channel=4 note=73 velocity=80 time=0
EXTRACT: note_off channel=4 note=61 velocity=80 time=0
EXTRACT: note_on channel=4 note=81 velocity=100 time=0
EXTRACT: note_on channel=4 note=69 velocity=100 time=0
EXTRACT: note_on channel=4 note=57 velocity=100 time=0
EXTRACT: note_on channel=3 note=63 velocity=100 time=0
EXTRACT: note_off channel=3 note=59 velocity=80 time=0.1
EXTRACT: note_off channel=9 note=44 velocity=50 time=0.025
EXTRACT: note_on channel=9 note=82 velocity=50 time=0.045312500000000006
EXTRACT: note_on channel=9 note=44 velocity=60 time=0
EXTRACT: note_off channel=9 note=44 velocity=50 time=0.125
EXTRACT: note_off channel=9 note=82 velocity=40 time=0
EXTRACT: note_off channel=3 note=63 velocity=80 time=0.0578125
EXTRACT: note_on channel=9 note=35 velocity=120 time=0.0203125
EXTRACT: note_on channel=9 note=36 velocity=120 time=0
EXTRACT: note_on channel=9 note=82 velocity=50 time=0
EXTRACT: note_on channel=9 note=44 velocity=60 time=0
EXTRACT: note_on channel=0 note=68 velocity=100 time=0
EXTRACT: note_on channel=1 note=68 velocity=100 time=0
EXTRACT: note_on channel=2 note=68 velocity=100 time=0
EXTRACT: note_on channel=4 note=80 velocity=100 time=0
EXTRACT: note_on channel=3 note=66 velocity=100 time=0
EXTRACT: note_off channel=0 note=69 velocity=80 time=0.040625
EXTRACT: note_off channel=2 note=69 velocity=80 time=0
EXTRACT: note_off channel=1 note=69 velocity=80 time=0.08125
EXTRACT: note_off channel=4 note=81 velocity=80 time=0
EXTRACT: note_off channel=9 note=44 velocity=50 time=0.003125
EXTRACT: note_off channel=9 note=82 velocity=40 time=0
EXTRACT: note_off channel=9 note=36 velocity=100 time=0
EXTRACT: note_off channel=9 note=35 velocity=100 time=0
EXTRACT: note_on channel=9 note=44 velocity=60 time=0.037500000000000006
EXTRACT: note_off channel=9 note=44 velocity=50 time=0.09375
EXTRACT: note_off channel=3 note=66 velocity=80 time=0.0171875
EXTRACT: note_on channel=9 note=85 velocity=120 time=0.060937500000000006
EXTRACT: note_on channel=9 note=39 velocity=120 time=0
EXTRACT: note_on channel=9 note=54 velocity=100 time=0
EXTRACT: note_on channel=9 note=28 velocity=100 time=0
EXTRACT: note_on channel=9 note=44 velocity=60 time=0
EXTRACT: note_on channel=0 note=66 velocity=100 time=0
EXTRACT: note_on channel=1 note=66 velocity=100 time=0
EXTRACT: note_on channel=2 note=66 velocity=100 time=0
EXTRACT: note_on channel=4 note=78 velocity=100 time=0
EXTRACT: note_on channel=3 note=64 velocity=100 time=0
EXTRACT: note_off channel=9 note=44 velocity=50 time=0.125
EXTRACT: note_off channel=9 note=28 velocity=80 time=0
EXTRACT: note_off channel=9 note=54 velocity=80 time=0
EXTRACT: note_off channel=9 note=39 velocity=100 time=0
EXTRACT: note_off channel=9 note=85 velocity=100 time=0
EXTRACT: note_off channel=1 note=68 velocity=80 time=0.015625
EXTRACT: note_off channel=4 note=80 velocity=80 time=0
EXTRACT: note_on channel=9 note=44 velocity=60 time=0.0015625
EXTRACT: note_off channel=0 note=68 velocity=80 time=0.1015625
EXTRACT: note_off channel=2 note=68 velocity=80 time=0
EXTRACT: note_off channel=9 note=44 velocity=50 time=0.0234375
EXTRACT: note_on channel=9 note=44 velocity=60 time=0.078125
EXTRACT: note_on channel=0 note=64 velocity=100 time=0
EXTRACT: note_on channel=1 note=64 velocity=100 time=0
EXTRACT: note_on channel=2 note=64 velocity=100 time=0
EXTRACT: note_on channel=4 note=76 velocity=100 time=0
EXTRACT: note_off channel=3 note=64 velocity=80 time=0.08125
EXTRACT: note_off channel=9 note=44 velocity=50 time=0.043750000000000004
EXTRACT: note_off channel=1 note=66 velocity=80 time=0.0171875
EXTRACT: note_off channel=4 note=78 velocity=80 time=0
EXTRACT: note_on channel=9 note=44 velocity=60 time=0.0203125
EXTRACT: note_off channel=0 note=66 velocity=80 time=0.040625
EXTRACT: note_off channel=2 note=66 velocity=80 time=0
EXTRACT: note_off channel=9 note=44 velocity=50 time=0.084375
EXTRACT: note_off channel=0 note=57 velocity=80 time=0.0171875
EXTRACT: note_off channel=2 note=57 velocity=80 time=0
EXTRACT: note_off channel=1 note=64 velocity=80 time=0.040625
EXTRACT: note_off channel=4 note=76 velocity=80 time=0
EXTRACT: note_on channel=9 note=35 velocity=120 time=0.0203125
EXTRACT: note_on channel=9 note=36 velocity=120 time=0
EXTRACT: note_on channel=9 note=44 velocity=60 time=0
EXTRACT: note_on channel=0 note=52 velocity=100 time=0
EXTRACT: note_off channel=1 note=57 velocity=80 time=0
EXTRACT: note_off channel=1 note=45 velocity=80 time=0
EXTRACT: note_on channel=1 note=64 velocity=100 time=0
EXTRACT: note_on channel=1 note=52 velocity=100 time=0
EXTRACT: note_on channel=2 note=52 velocity=100 time=0
EXTRACT: note_off channel=4 note=69 velocity=80 time=0
EXTRACT: note_off channel=4 note=57 velocity=80 time=0
EXTRACT: note_on channel=4 note=76 velocity=100 time=0
EXTRACT: note_on channel=4 note=64 velocity=100 time=0
EXTRACT: note_on channel=3 note=64 velocity=100 time=0
EXTRACT: note_off channel=9 note=44 velocity=50 time=0.034375
EXTRACT: note_off channel=9 note=36 velocity=100 time=0
EXTRACT: note_off channel=9 note=35 velocity=100 time=0
EXTRACT: note_on channel=9 note=44 velocity=60 time=0.05625
EXTRACT: note_off channel=0 note=64 velocity=80 time=0.1015625
EXTRACT: note_off channel=2 note=64 velocity=80 time=0
EXTRACT: note_off channel=9 note=44 velocity=50 time=0.0234375
EXTRACT: note_off channel=3 note=64 velocity=80 time=0.0578125
EXTRACT: note_on channel=9 note=82 velocity=50 time=0.0203125
EXTRACT: note_on channel=9 note=44 velocity=60 time=0
EXTRACT: note_on channel=0 note=59 velocity=100 time=0
EXTRACT: note_on channel=2 note=59 velocity=100 time=0
EXTRACT: note_off channel=9 note=44 velocity=50 time=0.125
EXTRACT: note_off channel=9 note=82 velocity=40 time=0
EXTRACT: note_on channel=9 note=35 velocity=120 time=0.037500000000000006
EXTRACT: note_on channel=9 note=36 velocity=120 time=0
EXTRACT: note_on channel=9 note=44 velocity=60 time=0
EXTRACT: note_off channel=9 note=44 velocity=50 time=0.125
EXTRACT: note_off channel=9 note=36 velocity=100 time=0
EXTRACT: note_off channel=9 note=35 velocity=100 time=0
EXTRACT: note_on channel=9 note=85 velocity=120 time=0.078125
EXTRACT: note_on channel=9 note=39 velocity=120 time=0
EXTRACT: note_on channel=9 note=82 velocity=50 time=0
EXTRACT: note_on channel=9 note=54 velocity=100 time=0
EXTRACT: note_on channel=9 note=28 velocity=100 time=0
EXTRACT: note_on channel=9 note=44 velocity=60 time=0
EXTRACT: note_on channel=0 note=64 velocity=100 time=0
EXTRACT: note_on channel=2 note=64 velocity=100 time=0
EXTRACT: note_off channel=9 note=44 velocity=50 time=0.125
EXTRACT: note_off channel=9 note=28 velocity=80 time=0
EXTRACT: note_off channel=9 note=54 velocity=80 time=0
EXTRACT: note_off channel=9 note=82 velocity=40 time=0
EXTRACT: note_off channel=9 note=39 velocity=100 time=0
EXTRACT: note_off channel=9 note=85 velocity=100 time=0
EXTRACT: note_on channel=9 note=44 velocity=60 time=0.05625
EXTRACT: note_off channel=9 note=44 velocity=50 time=0.125
EXTRACT: note_on channel=9 note=44 velocity=60 time=0.078125
EXTRACT: note_off channel=0 note=59 velocity=80 time=0
EXTRACT: note_on channel=0 note=71 velocity=100 time=0
EXTRACT: note_off channel=2 note=59 velocity=80 time=0
EXTRACT: note_on channel=2 note=71 velocity=100 time=0
EXTRACT: note_on channel=3 note=63 velocity=100 time=0
EXTRACT: note_off channel=9 note=44 velocity=50 time=0.125
EXTRACT: note_on channel=9 note=82 velocity=50 time=0.0171875
EXTRACT: note_on channel=9 note=44 velocity=60 time=0
EXTRACT: note_off channel=9 note=44 velocity=50 time=0.125
EXTRACT: note_off channel=9 note=82 velocity=40 time=0
EXTRACT: note_off channel=0 note=64 velocity=80 time=0.0171875
EXTRACT: note_off channel=2 note=64 velocity=80 time=0
EXTRACT: note_on channel=9 note=44 velocity=60 time=0.060937500000000006
EXTRACT: note_off channel=0 note=52 velocity=80 time=0
EXTRACT: note_on channel=0 note=47 velocity=100 time=0
EXTRACT: note_off channel=1 note=52 velocity=80 time=0
EXTRACT: note_off channel=1 note=64 velocity=80 time=0
EXTRACT: note_on channel=1 note=47 velocity=100 time=0
EXTRACT: note_on channel=1 note=59 velocity=100 time=0
EXTRACT: note_off channel=2 note=52 velocity=80 time=0
EXTRACT: note_on channel=2 note=47 velocity=100 time=0
EXTRACT: note_off channel=4 note=64 velocity=80 time=0
EXTRACT: note_off channel=4 note=76 velocity=80 time=0
EXTRACT: note_on channel=4 note=59 velocity=100 time=0
EXTRACT: note_on channel=4 note=71 velocity=100 time=0
EXTRACT: note_on channel=3 note=64 velocity=100 time=0
EXTRACT: note_off channel=3 note=63 velocity=80 time=0.07968750000000001
EXTRACT: note_off channel=9 note=44 velocity=50 time=0.0125
EXTRACT: note_on channel=9 note=82 velocity=50 time=0.05625
EXTRACT: note_on channel=9 note=44 velocity=60 time=0
EXTRACT: note_off channel=9 note=44 velocity=50 time=0.125
EXTRACT: note_off channel=9 note=82 velocity=40 time=0
EXTRACT: note_off channel=0 note=71 velocity=80 time=0.0171875
EXTRACT: note_off channel=2 note=71 velocity=80 time=0
EXTRACT: note_on channel=9 note=35 velocity=120 time=0.060937500000000006
EXTRACT: note_on channel=9 note=36 velocity=120 time=0
EXTRACT: note_on channel=9 note=82 velocity=50 time=0
EXTRACT: note_on channel=9 note=44 velocity=60 time=0
EXTRACT: note_on channel=0 note=59 velocity=100 time=0
EXTRACT: note_on channel=2 note=59 velocity=100 time=0
EXTRACT: note_off channel=9 note=44 velocity=50 time=0.125
EXTRACT: note_off channel=9 note=82 velocity=40 time=0
EXTRACT: note_off channel=9 note=36 velocity=100 time=0
EXTRACT: note_off channel=9 note=35 velocity=100 time=0
EXTRACT: note_on channel=9 note=44 velocity=60 time=0.037500000000000006
EXTRACT: note_off channel=9 note=44 velocity=50 time=0.125
EXTRACT: note_on channel=9 note=85 velocity=120 time=0.078125
EXTRACT: note_on channel=9 note=39 velocity=120 time=0
EXTRACT: note_on channel=9 note=54 velocity=100 time=0
EXTRACT: note_on channel=9 note=28 velocity=100 time=0
EXTRACT: note_on channel=9 note=44 velocity=60 time=0
EXTRACT: note_on channel=0 note=63 velocity=100 time=0
EXTRACT: note_on channel=2 note=63 velocity=100 time=0
EXTRACT: note_on channel=3 note=59 velocity=100 time=0
EXTRACT: note_off channel=3 note=64 velocity=80 time=0.07968750000000001
EXTRACT: note_off channel=9 note=44 velocity=50 time=0.045312500000000006
EXTRACT: note_off channel=9 note=28 velocity=80 time=0
EXTRACT: note_off channel=9 note=54 velocity=80 time=0
EXTRACT: note_off channel=9 note=39 velocity=100 time=0
EXTRACT: note_off channel=9 note=85 velocity=100 time=0
EXTRACT: note_on channel=9 note=44 velocity=60 time=0.05625
EXTRACT: note_off channel=9 note=44 velocity=50 time=0.109375
EXTRACT: note_off channel=0 note=59 velocity=80 time=0.0171875
EXTRACT: note_off channel=2 note=59 velocity=80 time=0
EXTRACT: note_on channel=9 note=44 velocity=60 time=0.060937500000000006
EXTRACT: note_on channel=0 note=64 velocity=100 time=0
EXTRACT: note_on channel=2 note=64 velocity=100 time=0
EXTRACT: note_on channel=3 note=57 velocity=100 time=0
EXTRACT: note_off channel=3 note=59 velocity=80 time=0.0203125
EXTRACT: note_off channel=9 note=44 velocity=50 time=0.1046875
EXTRACT: note_off channel=0 note=63 velocity=80 time=0.0015625
EXTRACT: note_off channel=2 note=63 velocity=80 time=0
EXTRACT: note_on channel=9 note=44 velocity=60 time=0.0203125
EXTRACT: note_off channel=9 note=44 velocity=50 time=0.125
EXTRACT: note_on channel=9 note=35 velocity=120 time=0.078125
EXTRACT: note_on channel=9 note=36 velocity=120 time=0
EXTRACT: note_on channel=9 note=44 velocity=60 time=0
EXTRACT: note_off channel=0 note=47 velocity=80 time=0
EXTRACT: note_on channel=0 note=57 velocity=100 time=0
EXTRACT: note_on channel=0 note=69 velocity=100 time=0
EXTRACT: note_off channel=1 note=59 velocity=80 time=0
EXTRACT: note_off channel=1 note=47 velocity=80 time=0
EXTRACT: note_on channel=1 note=45 velocity=100 time=0
EXTRACT: note_on channel=1 note=57 velocity=100 time=0
EXTRACT: note_on channel=1 note=52 velocity=100 time=0
EXTRACT: note_off channel=2 note=47 velocity=80 time=0
EXTRACT: note_on channel=2 note=57 velocity=100 time=0
EXTRACT: note_on channel=2 note=69 velocity=100 time=0
EXTRACT: note_off channel=4 note=71 velocity=80 time=0
EXTRACT: note_off channel=4 note=59 velocity=80 time=0
EXTRACT: note_on channel=4 note=57 velocity=100 time=0
EXTRACT: note_on channel=4 note=69 velocity=100 time=0
EXTRACT: note_on channel=4 note=64 velocity=100 time=0
EXTRACT: note_off channel=9 note=44 velocity=50 time=0.125
EXTRACT: note_off channel=9 note=36 velocity=100 time=0
EXTRACT: note_off channel=9 note=35 velocity=100 time=0
EXTRACT: note_on channel=9 note=44 velocity=60 time=0.05625
EXTRACT: note_off channel=9 note=44 velocity=50 time=0.125
EXTRACT: note_on channel=9 note=82 velocity=50 time=0.078125
EXTRACT: note_on channel=9 note=44 velocity=60 time=0
EXTRACT: note_off channel=9 note=44 velocity=50 time=0.125
EXTRACT: note_off channel=9 note=82 velocity=40 time=0
EXTRACT: note_on channel=9 note=35 velocity=120 time=0.037500000000000006
EXTRACT: note_on channel=9 note=36 velocity=120 time=0
EXTRACT: note_on channel=9 note=44 velocity=60 time=0
EXTRACT: note_off channel=9 note=44 velocity=50 time=0.125
EXTRACT: note_off channel=9 note=36 velocity=100 time=0
EXTRACT: note_off channel=9 note=35 velocity=100 time=0
EXTRACT: note_on channel=9 note=85 velocity=120 time=0.078125
EXTRACT: note_on channel=9 note=39 velocity=120 time=0
EXTRACT: note_on channel=9 note=82 velocity=50 time=0
EXTRACT: note_on channel=9 note=54 velocity=100 time=0
EXTRACT: note_on channel=9 note=28 velocity=100 time=0
EXTRACT: note_on channel=9 note=44 velocity=60 time=0
EXTRACT: note_off channel=3 note=57 velocity=80 time=0.0203125
EXTRACT: note_off channel=9 note=44 velocity=50 time=0.1046875
EXTRACT: note_off channel=9 note=28 velocity=80 time=0
EXTRACT: note_off channel=9 note=54 velocity=80 time=0
EXTRACT: note_off channel=9 note=82 velocity=40 time=0
EXTRACT: note_off channel=9 note=39 velocity=100 time=0
EXTRACT: note_off channel=9 note=85 velocity=100 time=0
EXTRACT: note_on channel=9 note=44 velocity=60 time=0.05625
EXTRACT: note_off channel=9 note=44 velocity=50 time=0.125
EXTRACT: note_on channel=9 note=44 velocity=60 time=0.078125
EXTRACT: note_on channel=5 note=68 velocity=100 time=0
EXTRACT: note_on channel=5 note=64 velocity=100 time=0
EXTRACT: note_on channel=5 note=59 velocity=100 time=0
EXTRACT: note_off channel=9 note=44 velocity=50 time=0.125
EXTRACT: note_on channel=9 note=82 velocity=50 time=0.037500000000000006
EXTRACT: note_on channel=9 note=44 velocity=60 time=0
EXTRACT: note_off channel=9 note=44 velocity=50 time=0.0703125
EXTRACT: note_off channel=9 note=82 velocity=40 time=0
EXTRACT: note_on channel=9 note=44 velocity=60 time=0.078125
EXTRACT: note_off channel=9 note=44 velocity=50 time=0.125
EXTRACT: note_on channel=9 note=82 velocity=50 time=0.05625
EXTRACT: note_on channel=9 note=44 velocity=60 time=0
EXTRACT: note_off channel=9 note=44 velocity=50 time=0.125
EXTRACT: note_off channel=9 note=82 velocity=40 time=0
EXTRACT: note_on channel=9 note=35 velocity=120 time=0.078125
EXTRACT: note_on channel=9 note=36 velocity=120 time=0
EXTRACT: note_on channel=9 note=82 velocity=50 time=0
EXTRACT: note_on channel=9 note=44 velocity=60 time=0
EXTRACT: note_on channel=5 note=66 velocity=100 time=0
EXTRACT: note_on channel=5 note=69 velocity=100 time=0
EXTRACT: note_on channel=5 note=61 velocity=100 time=0
EXTRACT: note_off channel=5 note=59 velocity=80 time=0.1015625
EXTRACT: note_off channel=5 note=68 velocity=80 time=0.0203125
EXTRACT: note_off channel=9 note=44 velocity=50 time=0.003125
EXTRACT: note_off channel=9 note=82 velocity=40 time=0
EXTRACT: note_off channel=9 note=36 velocity=100 time=0
EXTRACT: note_off channel=9 note=35 velocity=100 time=0
EXTRACT: note_off channel=5 note=64 velocity=80 time=0.0171875
EXTRACT: note_on channel=9 note=44 velocity=60 time=0.0203125
EXTRACT: note_off channel=9 note=44 velocity=50 time=0.125
EXTRACT: note_on channel=9 note=85 velocity=120 time=0.078125
EXTRACT: note_on channel=9 note=39 velocity=120 time=0
EXTRACT: note_on channel=9 note=54 velocity=100 time=0
EXTRACT: note_on channel=9 note=28 velocity=100 time=0
EXTRACT: note_on channel=9 note=44 velocity=60 time=0
EXTRACT: note_off channel=9 note=44 velocity=50 time=0.125
EXTRACT: note_off channel=9 note=28 velocity=80 time=0
EXTRACT: note_off channel=9 note=54 velocity=80 time=0
EXTRACT: note_off channel=9 note=39 velocity=100 time=0
EXTRACT: note_off channel=9 note=85 velocity=100 time=0
EXTRACT: note_on channel=9 note=44 velocity=60 time=0.05625
EXTRACT: note_off channel=9 note=44 velocity=50 time=0.125
EXTRACT: note_on channel=9 note=44 velocity=60 time=0.078125
EXTRACT: note_off channel=9 note=44 velocity=50 time=0.125
EXTRACT: note_on channel=9 note=44 velocity=60 time=0.037500000000000006
EXTRACT: note_off channel=9 note=44 velocity=50 time=0.125
EXTRACT: note_off channel=1 note=57 velocity=80 time=0.0078125
EXTRACT: note_off channel=4 note=69 velocity=80 time=0
EXTRACT: note_off channel=0 note=64 velocity=80 time=0.0203125
EXTRACT: note_off channel=0 note=57 velocity=80 time=0
EXTRACT: note_off channel=1 note=45 velocity=80 time=0
EXTRACT: note_off channel=1 note=52 velocity=80 time=0
EXTRACT: note_off channel=2 note=64 velocity=80 time=0
EXTRACT: note_off channel=2 note=57 velocity=80 time=0
EXTRACT: note_off channel=4 note=57 velocity=80 time=0
EXTRACT: note_off channel=4 note=64 velocity=80 time=0
EXTRACT: note_on channel=9 note=35 velocity=120 time=0.040625
EXTRACT: note_on channel=9 note=36 velocity=120 time=0
EXTRACT: note_on channel=9 note=44 velocity=60 time=0
EXTRACT: note_off channel=0 note=69 velocity=80 time=0
EXTRACT: note_on channel=0 note=52 velocity=100 time=0
EXTRACT: note_on channel=1 note=64 velocity=100 time=0
EXTRACT: note_on channel=1 note=52 velocity=100 time=0
EXTRACT: note_off channel=2 note=69 velocity=80 time=0
EXTRACT: note_on channel=2 note=52 velocity=100 time=0
EXTRACT: note_on channel=4 note=76 velocity=100 time=0
EXTRACT: note_on channel=4 note=64 velocity=100 time=0
EXTRACT: note_on channel=3 note=68 velocity=100 time=0
EXTRACT: note_off channel=5 note=66 velocity=80 time=0.0203125
EXTRACT: note_off channel=5 note=69 velocity=80 time=0
EXTRACT: note_off channel=5 note=61 velocity=80 time=0
EXTRACT: note_off channel=9 note=44 velocity=50 time=0.1046875
EXTRACT: note_off channel=9 note=36 velocity=100 time=0
EXTRACT: note_off channel=9 note=35 velocity=100 time=0
EXTRACT: note_on channel=9 note=44 velocity=60 time=0.05625
EXTRACT: note_off channel=3 note=68 velocity=80 time=0.043750000000000004
EXTRACT: note_off channel=9 note=44 velocity=50 time=0.043750000000000004
EXTRACT: note_on channel=9 note=82 velocity=50 time=0.078125
EXTRACT: note_on channel=9 note=44 velocity=60 time=0
EXTRACT: note_on channel=0 note=59 velocity=100 time=0
EXTRACT: note_on channel=2 note=59 velocity=100 time=0
EXTRACT: note_on channel=3 note=68 velocity=100 time=0
EXTRACT: note_off channel=9 note=44 velocity=50 time=0.125
EXTRACT: note_off channel=9 note=82 velocity=40 time=0
EXTRACT: note_on channel=9 note=35 velocity=120 time=0.037500000000000006
EXTRACT: note_on channel=9 note=36 velocity=120 time=0
EXTRACT: note_on channel=9 note=44 velocity=60 time=0
EXTRACT: note_off channel=9 note=44 velocity=50 time=0.1171875
EXTRACT: note_off channel=9 note=36 velocity=100 time=0
EXTRACT: note_off channel=9 note=35 velocity=100 time=0
EXTRACT: note_off channel=3 note=68 velocity=80 time=0.037500000000000006
EXTRACT: note_on channel=9 note=85 velocity=120 time=0.040625
EXTRACT: note_on channel=9 note=39 velocity=120 time=0
EXTRACT: note_on channel=9 note=82 velocity=50 time=0
EXTRACT: note_on channel=9 note=54 velocity=100 time=0
EXTRACT: note_on channel=9 note=28 velocity=100 time=0
EXTRACT: note_on channel=9 note=44 velocity=60 time=0
EXTRACT: note_on channel=0 note=64 velocity=100 time=0
EXTRACT: note_on channel=2 note=64 velocity=100 time=0
EXTRACT: note_on channel=3 note=68 velocity=100 time=0
EXTRACT: note_off channel=9 note=44 velocity=50 time=0.125
EXTRACT: note_off channel=9 note=28 velocity=80 time=0
EXTRACT: note_off channel=9 note=54 velocity=80 time=0
EXTRACT: note_off channel=9 note=82 velocity=40 time=0
EXTRACT: note_off channel=9 note=39 velocity=100 time=0
EXTRACT: note_off channel=9 note=85 velocity=100 time=0
EXTRACT: note_on channel=9 note=44 velocity=60 time=0.0078125
EXTRACT: note_off channel=9 note=44 velocity=50 time=0.125
EXTRACT: note_on channel=9 note=44 velocity=60 time=0.078125
EXTRACT: note_off channel=0 note=59 velocity=80 time=0
EXTRACT: note_on channel=0 note=71 velocity=100 time=0
EXTRACT: note_off channel=2 note=59 velocity=80 time=0
EXTRACT: note_on channel=2 note=71 velocity=100 time=0
EXTRACT: note_off channel=3 note=68 velocity=80 time=0
EXTRACT: note_on channel=3 note=64 velocity=100 time=0
EXTRACT: note_off channel=9 note=44 velocity=50 time=0.125
EXTRACT: note_on channel=9 note=82 velocity=50 time=0.037500000000000006
EXTRACT: note_on channel=9 note=44 velocity=60 time=0
EXTRACT: note_off channel=9 note=44 velocity=50 time=0.10625000000000001
EXTRACT: note_off channel=9 note=82 velocity=40 time=0
EXTRACT: note_off channel=0 note=64 velocity=80 time=0.0171875
EXTRACT: note_off channel=2 note=64 velocity=80 time=0
EXTRACT: note_on channel=9 note=44 velocity=60 time=0.060937500000000006
EXTRACT: note_off channel=0 note=52 velocity=80 time=0
EXTRACT: note_on channel=0 note=47 velocity=100 time=0
EXTRACT: note_off channel=1 note=52 velocity=80 time=0
EXTRACT: note_off channel=1 note=64 velocity=80 time=0
EXTRACT: note_on channel=1 note=47 velocity=100 time=0
EXTRACT: note_on channel=1 note=59 velocity=100 time=0
EXTRACT: note_off channel=2 note=52 velocity=80 time=0
EXTRACT: note_on channel=2 note=47 velocity=100 time=0
EXTRACT: note_off channel=4 note=64 velocity=80 time=0
EXTRACT: note_off channel=4 note=76 velocity=80 time=0
EXTRACT: note_on channel=4 note=59 velocity=100 time=0
EXTRACT: note_on channel=4 note=71 velocity=100 time=0
EXTRACT: note_on channel=3 note=69 velocity=100 time=0
EXTRACT: note_off channel=3 note=64 velocity=80 time=0.0390625
EXTRACT: note_off channel=9 note=44 velocity=50 time=0.0859375
EXTRACT: note_on channel=9 note=82 velocity=50 time=0.0015625
EXTRACT: note_on channel=9 note=44 velocity=60 time=0
EXTRACT: note_off channel=9 note=44 velocity=50 time=0.125
EXTRACT: note_off channel=9 note=82 velocity=40 time=0
EXTRACT: note_off channel=0 note=71 velocity=80 time=0.0171875
EXTRACT: note_off channel=2 note=71 velocity=80 time=0
EXTRACT: note_on channel=9 note=35 velocity=120 time=0.060937500000000006
EXTRACT: note_on channel=9 note=36 velocity=120 time=0
EXTRACT: note_on channel=9 note=82 velocity=50 time=0
EXTRACT: note_on channel=9 note=44 velocity=60 time=0
EXTRACT: note_on channel=0 note=59 velocity=100 time=0
EXTRACT: note_on channel=2 note=59 velocity=100 time=0
EXTRACT: note_off channel=3 note=69 velocity=80 time=0
EXTRACT: note_on channel=3 note=68 velocity=100 time=0
EXTRACT: note_off channel=9 note=44 velocity=50 time=0.125
EXTRACT: note_off channel=9 note=82 velocity=40 time=0
EXTRACT: note_off channel=9 note=36 velocity=100 time=0
EXTRACT: note_off channel=9 note=35 velocity=100 time=0
EXTRACT: note_on channel=9 note=44 velocity=60 time=0.0234375
EXTRACT: note_off channel=9 note=44 velocity=50 time=0.125
EXTRACT: note_on channel=9 note=85 velocity=120 time=0.078125
EXTRACT: note_on channel=9 note=39 velocity=120 time=0
EXTRACT: note_on channel=9 note=54 velocity=100 time=0
EXTRACT: note_on channel=9 note=28 velocity=100 time=0
EXTRACT: note_on channel=9 note=44 velocity=60 time=0
EXTRACT: note_on channel=0 note=63 velocity=100 time=0
EXTRACT: note_on channel=2 note=63 velocity=100 time=0
EXTRACT: note_on channel=3 note=66 velocity=100 time=0
EXTRACT: note_off channel=3 note=68 velocity=80 time=0.0390625
EXTRACT: note_off channel=9 note=44 velocity=50 time=0.0859375
EXTRACT: note_off channel=9 note=28 velocity=80 time=0
EXTRACT: note_off channel=9 note=54 velocity=80 time=0
EXTRACT: note_off channel=9 note=39 velocity=100 time=0
EXTRACT: note_off channel=9 note=85 velocity=100 time=0
EXTRACT: note_on channel=9 note=44 velocity=60 time=0.03125
EXTRACT: note_off channel=9 note=44 velocity=50 time=0.125
EXTRACT: note_off channel=0 note=59 velocity=80 time=0.0171875
EXTRACT: note_off channel=2 note=59 velocity=80 time=0
EXTRACT: note_on channel=9 note=44 velocity=60 time=0.060937500000000006
EXTRACT: note_on channel=0 note=64 velocity=100 time=0
EXTRACT: note_on channel=2 note=64 velocity=100 time=0
EXTRACT: note_on channel=3 note=64 velocity=100 time=0
EXTRACT: note_off channel=3 note=66 velocity=80 time=0.040625
EXTRACT: note_off channel=9 note=44 velocity=50 time=0.015625
EXTRACT: note_off channel=0 note=63 velocity=80 time=0.0171875
EXTRACT: note_off channel=2 note=63 velocity=80 time=0
EXTRACT: note_on channel=9 note=44 velocity=60 time=0.0203125
EXTRACT: note_off channel=9 note=44 velocity=50 time=0.125
EXTRACT: note_off channel=3 note=64 velocity=80 time=0.037500000000000006
EXTRACT: note_on channel=9 note=35 velocity=120 time=0.040625
EXTRACT: note_on channel=9 note=36 velocity=120 time=0
EXTRACT: note_on channel=9 note=44 velocity=60 time=0
EXTRACT: note_off channel=0 note=47 velocity=80 time=0
EXTRACT: note_on channel=0 note=49 velocity=100 time=0
EXTRACT: note_off channel=1 note=59 velocity=80 time=0
EXTRACT: note_off channel=1 note=47 velocity=80 time=0
EXTRACT: note_on channel=1 note=49 velocity=100 time=0
EXTRACT: note_on channel=1 note=61 velocity=100 time=0
EXTRACT: note_off channel=2 note=47 velocity=80 time=0
EXTRACT: note_on channel=2 note=49 velocity=100 time=0
EXTRACT: note_off channel=4 note=71 velocity=80 time=0
EXTRACT: note_off channel=4 note=59 velocity=80 time=0
EXTRACT: note_on channel=4 note=61 velocity=100 time=0
EXTRACT: note_on channel=4 note=73 velocity=100 time=0
EXTRACT: note_on channel=3 note=64 velocity=100 time=0
EXTRACT: note_off channel=9 note=44 velocity=50 time=0.125
EXTRACT: note_off channel=9 note=36 velocity=100 time=0
EXTRACT: note_off channel=9 note=35 velocity=100 time=0
EXTRACT: note_on channel=9 note=44 velocity=60 time=0.0140625
EXTRACT: note_off channel=0 note=64 velocity=80 time=0
EXTRACT: note_off channel=2 note=64 velocity=80 time=0
EXTRACT: note_off channel=9 note=44 velocity=50 time=0.125
EXTRACT: note_on channel=9 note=82 velocity=50 time=0.078125
EXTRACT: note_on channel=9 note=44 velocity=60 time=0
EXTRACT: note_on channel=0 note=61 velocity=100 time=0
EXTRACT: note_on channel=2 note=61 velocity=100 time=0
EXTRACT: note_off channel=9 note=44 velocity=50 time=0.125
EXTRACT: note_off channel=9 note=82 velocity=40 time=0
EXTRACT: note_on channel=9 note=35 velocity=120 time=0.037500000000000006
EXTRACT: note_on channel=9 note=36 velocity=120 time=0
EXTRACT: note_on channel=9 note=44 velocity=60 time=0
EXTRACT: note_off channel=9 note=44 velocity=50 time=0.125
EXTRACT: note_off channel=9 note=36 velocity=100 time=0
EXTRACT: note_off channel=9 note=35 velocity=100 time=0
EXTRACT: note_on channel=9 note=85 velocity=120 time=0.078125
EXTRACT: note_on channel=9 note=39 velocity=120 time=0
EXTRACT: note_on channel=9 note=82 velocity=50 time=0
EXTRACT: note_on channel=9 note=54 velocity=100 time=0
EXTRACT: note_on channel=9 note=28 velocity=100 time=0
EXTRACT: note_on channel=9 note=44 velocity=60 time=0
EXTRACT: note_on channel=0 note=64 velocity=100 time=0
EXTRACT: note_on channel=2 note=64 velocity=100 time=0
EXTRACT: note_on channel=0 note=71 velocity=100 time=0.0390625
EXTRACT: note_on channel=2 note=71 velocity=100 time=0
EXTRACT: note_off channel=9 note=44 velocity=50 time=0.0859375
EXTRACT: note_off channel=9 note=28 velocity=80 time=0
EXTRACT: note_off channel=9 note=54 velocity=80 time=0
EXTRACT: note_off channel=9 note=82 velocity=40 time=0
EXTRACT: note_off channel=9 note=39 velocity=100 time=0
EXTRACT: note_off channel=9 note=85 velocity=100 time=0
EXTRACT: note_on channel=9 note=44 velocity=60 time=0.05625
EXTRACT: note_off channel=0 note=61 velocity=80 time=0.1015625
EXTRACT: note_off channel=2 note=61 velocity=80 time=0
EXTRACT: note_off channel=9 note=44 velocity=50 time=0.0234375
EXTRACT: note_on channel=9 note=44 velocity=60 time=0.078125
EXTRACT: note_on channel=0 note=69 velocity=100 time=0
EXTRACT: note_on channel=0 note=57 velocity=100 time=0
EXTRACT: note_on channel=2 note=69 velocity=100 time=0
EXTRACT: note_on channel=2 note=57 velocity=100 time=0
EXTRACT: note_on channel=5 note=68 velocity=100 time=0
EXTRACT: note_on channel=5 note=64 velocity=100 time=0
EXTRACT: note_on channel=5 note=59 velocity=100 time=0
EXTRACT: note_off channel=9 note=44 velocity=50 time=0.125
EXTRACT: note_on channel=9 note=82 velocity=50 time=0.037500000000000006
EXTRACT: note_on channel=9 note=44 velocity=60 time=0
EXTRACT: note_off channel=0 note=64 velocity=80 time=0.060937500000000006
EXTRACT: note_off channel=2 note=64 velocity=80 time=0
EXTRACT: note_off channel=9 note=44 velocity=50 time=0.06406250000000001
EXTRACT: note_off channel=9 note=82 velocity=40 time=0
EXTRACT: note_off channel=0 note=71 velocity=80 time=0.05625
EXTRACT: note_off channel=2 note=71 velocity=80 time=0
EXTRACT: note_on channel=9 note=44 velocity=60 time=0.021875000000000002
EXTRACT: note_off channel=0 note=49 velocity=80 time=0
EXTRACT: note_off channel=1 note=61 velocity=80 time=0
EXTRACT: note_off channel=1 note=49 velocity=80 time=0
EXTRACT: note_on channel=1 note=69 velocity=100 time=0
EXTRACT: note_on channel=1 note=57 velocity=100 time=0
EXTRACT: note_on channel=1 note=45 velocity=100 time=0
EXTRACT: note_off channel=2 note=49 velocity=80 time=0
EXTRACT: note_off channel=4 note=73 velocity=80 time=0
EXTRACT: note_off channel=4 note=61 velocity=80 time=0
EXTRACT: note_on channel=4 note=81 velocity=100 time=0
EXTRACT: note_on channel=4 note=69 velocity=100 time=0
EXTRACT: note_on channel=4 note=57 velocity=100 time=0
EXTRACT: note_off channel=3 note=64 velocity=80 time=0
EXTRACT: note_off channel=9 note=44 velocity=50 time=0.125
EXTRACT: note_on channel=9 note=82 velocity=50 time=0.05625
EXTRACT: note_on channel=9 note=44 velocity=60 time=0
EXTRACT: note_off channel=9 note=44 velocity=50 time=0.125
EXTRACT: note_off channel=9 note=82 velocity=40 time=0
EXTRACT: note_on channel=9 note=35 velocity=120 time=0.078125
EXTRACT: note_on channel=9 note=36 velocity=120 time=0
EXTRACT: note_on channel=9 note=82 velocity=50 time=0
EXTRACT: note_on channel=9 note=44 velocity=60 time=0
EXTRACT: note_on channel=0 note=68 velocity=100 time=0
EXTRACT: note_on channel=1 note=68 velocity=100 time=0
EXTRACT: note_on channel=2 note=68 velocity=100 time=0
EXTRACT: note_on channel=4 note=80 velocity=100 time=0
EXTRACT: note_off channel=0 note=69 velocity=80 time=0.040625
EXTRACT: note_off channel=2 note=69 velocity=80 time=0
EXTRACT: note_off channel=1 note=69 velocity=80 time=0.08125
EXTRACT: note_off channel=4 note=81 velocity=80 time=0
EXTRACT: note_off channel=9 note=44 velocity=50 time=0.003125
EXTRACT: note_off channel=9 note=82 velocity=40 time=0
EXTRACT: note_off channel=9 note=36 velocity=100 time=0
EXTRACT: note_off channel=9 note=35 velocity=100 time=0
EXTRACT: note_on channel=9 note=44 velocity=60 time=0.037500000000000006
EXTRACT: note_off channel=9 note=44 velocity=50 time=0.125
EXTRACT: note_on channel=9 note=85 velocity=120 time=0.078125
EXTRACT: note_on channel=9 note=39 velocity=120 time=0
EXTRACT: note_on channel=9 note=54 velocity=100 time=0
EXTRACT: note_on channel=9 note=28 velocity=100 time=0
EXTRACT: note_on channel=9 note=44 velocity=60 time=0
EXTRACT: note_on channel=0 note=66 velocity=100 time=0
EXTRACT: note_on channel=1 note=66 velocity=100 time=0
EXTRACT: note_on channel=2 note=66 velocity=100 time=0
EXTRACT: note_on channel=4 note=78 velocity=100 time=0
EXTRACT: note_on channel=3 note=59 velocity=100 time=0
EXTRACT: note_off channel=9 note=44 velocity=50 time=0.125
EXTRACT: note_off channel=9 note=28 velocity=80 time=0
EXTRACT: note_off channel=9 note=54 velocity=80 time=0
EXTRACT: note_off channel=9 note=39 velocity=100 time=0
EXTRACT: note_off channel=9 note=85 velocity=100 time=0
EXTRACT: note_off channel=1 note=68 velocity=80 time=0.015625
EXTRACT: note_off channel=4 note=80 velocity=80 time=0
EXTRACT: note_on channel=9 note=44 velocity=60 time=0.015625
EXTRACT: note_on channel=3 note=61 velocity=100 time=0
EXTRACT: note_off channel=3 note=59 velocity=80 time=0.060937500000000006
EXTRACT: note_off channel=0 note=68 velocity=80 time=0.040625
EXTRACT: note_off channel=2 note=68 velocity=80 time=0
EXTRACT: note_off channel=9 note=44 velocity=50 time=0.0234375
EXTRACT: note_on channel=9 note=44 velocity=60 time=0.018750000000000003
EXTRACT: note_on channel=0 note=64 velocity=100 time=0
EXTRACT: note_on channel=1 note=64 velocity=100 time=0
EXTRACT: note_on channel=2 note=64 velocity=100 time=0
EXTRACT: note_on channel=4 note=76 velocity=100 time=0
EXTRACT: note_on channel=3 note=64 velocity=100 time=0
EXTRACT: note_off channel=3 note=61 velocity=80 time=0.060937500000000006
EXTRACT: note_off channel=9 note=44 velocity=50 time=0.06406250000000001
EXTRACT: note_off channel=1 note=66 velocity=80 time=0.004687500000000001
EXTRACT: note_off channel=4 note=78 velocity=80 time=0
EXTRACT: note_on channel=9 note=44 velocity=60 time=0.0203125
EXTRACT: note_on channel=3 note=66 velocity=100 time=0
EXTRACT: note_off channel=0 note=66 velocity=80 time=0.040625
EXTRACT: note_off channel=2 note=66 velocity=80 time=0
EXTRACT: note_off channel=3 note=64 velocity=80 time=0
EXTRACT: note_off channel=9 note=44 velocity=50 time=0.084375
EXTRACT: note_off channel=0 note=57 velocity=80 time=0.0171875
EXTRACT: note_off channel=2 note=57 velocity=80 time=0
EXTRACT: note_off channel=1 note=64 velocity=80 time=0.0203125
EXTRACT: note_off channel=4 note=76 velocity=80 time=0
EXTRACT: note_on channel=9 note=35 velocity=120 time=0.0203125
EXTRACT: note_on channel=9 note=36 velocity=120 time=0
EXTRACT: note_on channel=9 note=44 velocity=60 time=0
EXTRACT: note_on channel=0 note=52 velocity=100 time=0
EXTRACT: note_off channel=1 note=57 velocity=80 time=0
EXTRACT: note_off channel=1 note=45 velocity=80 time=0
EXTRACT: note_on channel=1 note=64 velocity=100 time=0
EXTRACT: note_on channel=1 note=52 velocity=100 time=0
EXTRACT: note_on channel=2 note=52 velocity=100 time=0
EXTRACT: note_off channel=4 note=69 velocity=80 time=0
EXTRACT: note_off channel=4 note=57 velocity=80 time=0
EXTRACT: note_on channel=4 note=76 velocity=100 time=0
EXTRACT: note_on channel=4 note=64 velocity=100 time=0
EXTRACT: note_on channel=3 note=68 velocity=100 time=0
EXTRACT: note_off channel=5 note=59 velocity=80 time=0.0203125
EXTRACT: note_off channel=5 note=64 velocity=80 time=0
EXTRACT: note_off channel=5 note=68 velocity=80 time=0
EXTRACT: note_off channel=3 note=66 velocity=80 time=0.018750000000000003
EXTRACT: note_off channel=9 note=44 velocity=50 time=0.0859375
EXTRACT: note_off channel=9 note=36 velocity=100 time=0
EXTRACT: note_off channel=9 note=35 velocity=100 time=0
EXTRACT: note_on channel=9 note=44 velocity=60 time=0.05625
EXTRACT: note_off channel=3 note=68 velocity=80 time=0.035937500000000004
EXTRACT: note_off channel=0 note=64 velocity=80 time=0.0203125
EXTRACT: note_off channel=2 note=64 velocity=80 time=0
EXTRACT: note_off channel=9 note=44 velocity=50 time=0.0234375
EXTRACT: note_on channel=9 note=82 velocity=50 time=0.078125
EXTRACT: note_on channel=9 note=44 velocity=60 time=0
EXTRACT: note_on channel=0 note=59 velocity=100 time=0
EXTRACT: note_on channel=2 note=59 velocity=100 time=0
EXTRACT: note_on channel=3 note=68 velocity=100 time=0
EXTRACT: note_off channel=9 note=44 velocity=50 time=0.125
EXTRACT: note_off channel=9 note=82 velocity=40 time=0
EXTRACT: note_on channel=9 note=35 velocity=120 time=0.037500000000000006
EXTRACT: note_on channel=9 note=36 velocity=120 time=0
EXTRACT: note_on channel=9 note=44 velocity=60 time=0
EXTRACT: note_off channel=9 note=44 velocity=50 time=0.025
EXTRACT: note_off channel=9 note=36 velocity=100 time=0
EXTRACT: note_off channel=9 note=35 velocity=100 time=0
EXTRACT: note_off channel=3 note=68 velocity=80 time=0.037500000000000006
EXTRACT: note_on channel=9 note=85 velocity=120 time=0.040625
EXTRACT: note_on channel=9 note=39 velocity=120 time=0
EXTRACT: note_on channel=9 note=82 velocity=50 time=0
EXTRACT: note_on channel=9 note=54 velocity=100 time=0
EXTRACT: note_on channel=9 note=28 velocity=100 time=0
EXTRACT: note_on channel=9 note=44 velocity=60 time=0
EXTRACT: note_on channel=0 note=64 velocity=100 time=0
EXTRACT: note_on channel=2 note=64 velocity=100 time=0
EXTRACT: note_on channel=3 note=68 velocity=100 time=0
EXTRACT: note_off channel=9 note=44 velocity=50 time=0.125
EXTRACT: note_off channel=9 note=28 velocity=80 time=0
EXTRACT: note_off channel=9 note=54 velocity=80 time=0
EXTRACT: note_off channel=9 note=82 velocity=40 time=0
EXTRACT: note_off channel=9 note=39 velocity=100 time=0
EXTRACT: note_off channel=9 note=85 velocity=100 time=0
EXTRACT: note_on channel=9 note=44 velocity=60 time=0.05625
EXTRACT: note_off channel=9 note=44 velocity=50 time=0.09375
EXTRACT: note_on channel=9 note=44 velocity=60 time=0.078125
EXTRACT: note_off channel=0 note=59 velocity=80 time=0
EXTRACT: note_on channel=0 note=71 velocity=100 time=0
EXTRACT: note_off channel=2 note=59 velocity=80 time=0
EXTRACT: note_on channel=2 note=71 velocity=100 time=0
EXTRACT: note_off channel=3 note=68 velocity=80 time=0
EXTRACT: note_on channel=3 note=64 velocity=100 time=0
EXTRACT: note_off channel=9 note=44 velocity=50 time=0.125
EXTRACT: note_on channel=9 note=82 velocity=50 time=0.037500000000000006
EXTRACT: note_on channel=9 note=44 velocity=60 time=0
EXTRACT: note_off channel=9 note=44 velocity=50 time=0.11875000000000001
EXTRACT: note_off channel=9 note=82 velocity=40 time=0
EXTRACT: note_off channel=0 note=64 velocity=80 time=0.0171875
EXTRACT: note_off channel=2 note=64 velocity=80 time=0
EXTRACT: note_on channel=9 note=44 velocity=60 time=0.060937500000000006
EXTRACT: note_off channel=0 note=52 velocity=80 time=0
EXTRACT: note_on channel=0 note=47 velocity=100 time=0
EXTRACT: note_off channel=1 note=52 velocity=80 time=0
EXTRACT: note_off channel=1 note=64 velocity=80 time=0
EXTRACT: note_on channel=1 note=47 velocity=100 time=0
EXTRACT: note_on channel=1 note=59 velocity=100 time=0
EXTRACT: note_off channel=2 note=52 velocity=80 time=0
EXTRACT: note_on channel=2 note=47 velocity=100 time=0
EXTRACT: note_off channel=4 note=64 velocity=80 time=0
EXTRACT: note_off channel=4 note=76 velocity=80 time=0
EXTRACT: note_on channel=4 note=59 velocity=100 time=0
EXTRACT: note_on channel=4 note=71 velocity=100 time=0
EXTRACT: note_on channel=3 note=69 velocity=100 time=0
EXTRACT: note_off channel=3 note=64 velocity=80 time=0.0390625
EXTRACT: note_off channel=9 note=44 velocity=50 time=0.009375000000000001
EXTRACT: note_on channel=9 note=82 velocity=50 time=0.05625
EXTRACT: note_on channel=9 note=44 velocity=60 time=0
EXTRACT: note_off channel=9 note=44 velocity=50 time=0.125
EXTRACT: note_off channel=9 note=82 velocity=40 time=0
EXTRACT: note_off channel=0 note=71 velocity=80 time=0.0171875
EXTRACT: note_off channel=2 note=71 velocity=80 time=0
EXTRACT: note_on channel=9 note=35 velocity=120 time=0.060937500000000006
EXTRACT: note_on channel=9 note=36 velocity=120 time=0
EXTRACT: note_on channel=9 note=82 velocity=50 time=0
EXTRACT: note_on channel=9 note=44 velocity=60 time=0
EXTRACT: note_on channel=0 note=59 velocity=100 time=0
EXTRACT: note_on channel=2 note=59 velocity=100 time=0
EXTRACT: note_off channel=3 note=69 velocity=80 time=0
EXTRACT: note_on channel=3 note=68 velocity=100 time=0
EXTRACT: note_off channel=9 note=44 velocity=50 time=0.0015625
EXTRACT: note_off channel=9 note=82 velocity=40 time=0
EXTRACT: note_off channel=9 note=36 velocity=100 time=0
EXTRACT: note_off channel=9 note=35 velocity=100 time=0
EXTRACT: note_on channel=9 note=44 velocity=60 time=0.037500000000000006
EXTRACT: note_off channel=9 note=44 velocity=50 time=0.125
EXTRACT: note_on channel=9 note=85 velocity=120 time=0.078125
EXTRACT: note_on channel=9 note=39 velocity=120 time=0
EXTRACT: note_on channel=9 note=54 velocity=100 time=0
EXTRACT: note_on channel=9 note=28 velocity=100 time=0
EXTRACT: note_on channel=9 note=44 velocity=60 time=0
EXTRACT: note_on channel=0 note=63 velocity=100 time=0
EXTRACT: note_on channel=2 note=63 velocity=100 time=0
EXTRACT: note_on channel=3 note=66 velocity=100 time=0
EXTRACT: note_off channel=3 note=68 velocity=80 time=0.0390625
EXTRACT: note_off channel=9 note=44 velocity=50 time=0.03125
EXTRACT: note_off channel=9 note=28 velocity=80 time=0
EXTRACT: note_off channel=9 note=54 velocity=80 time=0
EXTRACT: note_off channel=9 note=39 velocity=100 time=0
EXTRACT: note_off channel=9 note=85 velocity=100 time=0
EXTRACT: note_on channel=9 note=44 velocity=60 time=0.05625
EXTRACT: note_off channel=9 note=44 velocity=50 time=0.125
EXTRACT: note_off channel=0 note=59 velocity=80 time=0.0171875
EXTRACT: note_off channel=2 note=59 velocity=80 time=0
EXTRACT: note_on channel=9 note=44 velocity=60 time=0.060937500000000006
EXTRACT: note_on channel=0 note=64 velocity=100 time=0
EXTRACT: note_on channel=2 note=64 velocity=100 time=0
EXTRACT: note_on channel=3 note=64 velocity=100 time=0
EXTRACT: note_off channel=3 note=66 velocity=80 time=0.040625
EXTRACT: note_off channel=9 note=44 velocity=50 time=0.0078125
EXTRACT: note_off channel=0 note=63 velocity=80 time=0.0171875
EXTRACT: note_off channel=2 note=63 velocity=80 time=0
EXTRACT: note_on channel=9 note=44 velocity=60 time=0.0203125
EXTRACT: note_off channel=9 note=44 velocity=50 time=0.125
EXTRACT: note_off channel=3 note=64 velocity=80 time=0.037500000000000006
EXTRACT: note_on channel=9 note=35 velocity=120 time=0.040625
EXTRACT: note_on channel=9 note=36 velocity=120 time=0
EXTRACT: note_on channel=9 note=44 velocity=60 time=0
EXTRACT: note_off channel=0 note=47 velocity=80 time=0
EXTRACT: note_on channel=0 note=54 velocity=100 time=0
EXTRACT: note_on channel=0 note=57 velocity=100 time=0
EXTRACT: note_on channel=0 note=62 velocity=100 time=0
EXTRACT: note_off channel=1 note=59 velocity=80 time=0
EXTRACT: note_off channel=1 note=47 velocity=80 time=0
EXTRACT: note_on channel=1 note=45 velocity=100 time=0
EXTRACT: note_on channel=1 note=54 velocity=100 time=0
EXTRACT: note_on channel=1 note=57 velocity=100 time=0
EXTRACT: note_off channel=2 note=47 velocity=80 time=0
EXTRACT: note_on channel=2 note=54 velocity=100 time=0
EXTRACT: note_on channel=2 note=57 velocity=100 time=0
EXTRACT: note_on channel=2 note=62 velocity=100 time=0
EXTRACT: note_off channel=4 note=71 velocity=80 time=0
EXTRACT: note_off channel=4 note=59 velocity=80 time=0
EXTRACT: note_on channel=4 note=66 velocity=100 time=0
EXTRACT: note_on channel=4 note=69 velocity=100 time=0
EXTRACT: note_on channel=4 note=57 velocity=100 time=0
EXTRACT: note_on channel=3 note=66 velocity=100 time=0
EXTRACT: note_off channel=9 note=44 velocity=50 time=0.125
EXTRACT: note_off channel=9 note=36 velocity=100 time=0
EXTRACT: note_off channel=9 note=35 velocity=100 time=0
EXTRACT: note_on channel=9 note=44 velocity=60 time=0.037500000000000006
EXTRACT: note_off channel=9 note=44 velocity=50 time=0.125
EXTRACT: note_on channel=9 note=82 velocity=50 time=0.078125
EXTRACT: note_on channel=9 note=44 velocity=60 time=0
EXTRACT: note_off channel=9 note=44 velocity=50 time=0.125
EXTRACT: note_off channel=9 note=82 velocity=40 time=0
EXTRACT: note_on channel=9 note=35 velocity=120 time=0.037500000000000006
EXTRACT: note_on channel=9 note=36 velocity=120 time=0
EXTRACT: note_on channel=9 note=44 velocity=60 time=0
EXTRACT: note_off channel=9 note=44 velocity=50 time=0.125
EXTRACT: note_off channel=9 note=36 velocity=100 time=0
EXTRACT: note_off channel=9 note=35 velocity=100 time=0
EXTRACT: note_on channel=9 note=85 velocity=120 time=0.078125
EXTRACT: note_on channel=9 note=39 velocity=120 time=0
EXTRACT: note_on channel=9 note=82 velocity=50 time=0
EXTRACT: note_on channel=9 note=54 velocity=100 time=0
EXTRACT: note_on channel=9 note=28 velocity=100 time=0
EXTRACT: note_on channel=9 note=44 velocity=60 time=0
EXTRACT: note_off channel=9 note=44 velocity=50 time=0.125
EXTRACT: note_off channel=9 note=28 velocity=80 time=0
EXTRACT: note_off channel=9 note=54 velocity=80 time=0
EXTRACT: note_off channel=9 note=82 velocity=40 time=0
EXTRACT: note_off channel=9 note=39 velocity=100 time=0
EXTRACT: note_off channel=9 note=85 velocity=100 time=0
EXTRACT: note_on channel=9 note=44 velocity=60 time=0.05625
EXTRACT: note_off channel=9 note=44 velocity=50 time=0.125
EXTRACT: note_on channel=9 note=44 velocity=60 time=0.078125
EXTRACT: note_on channel=5 note=59 velocity=100 time=0
EXTRACT: note_off channel=9 note=44 velocity=50 time=0.125
EXTRACT: note_on channel=9 note=82 velocity=50 time=0.037500000000000006
EXTRACT: note_on channel=9 note=44 velocity=60 time=0
EXTRACT: note_off channel=9 note=44 velocity=50 time=0.125
EXTRACT: note_off channel=9 note=82 velocity=40 time=0
EXTRACT: note_on channel=9 note=44 velocity=60 time=0.078125
EXTRACT: note_off channel=3 note=66 velocity=80 time=0
EXTRACT: note_off channel=9 note=44 velocity=50 time=0.125
EXTRACT: note_on channel=9 note=82 velocity=50 time=0.05625
EXTRACT: note_on channel=9 note=44 velocity=60 time=0
EXTRACT: note_off channel=9 note=44 velocity=50 time=0.125
EXTRACT: note_off channel=9 note=82 velocity=40 time=0
EXTRACT: note_on channel=9 note=35 velocity=120 time=0.078125
EXTRACT: note_on channel=9 note=36 velocity=120 time=0
EXTRACT: note_on channel=9 note=82 velocity=50 time=0
EXTRACT: note_on channel=9 note=44 velocity=60 time=0
EXTRACT: note_off channel=9 note=44 velocity=50 time=0.125
EXTRACT: note_off channel=9 note=82 velocity=40 time=0
EXTRACT: note_off channel=9 note=36 velocity=100 time=0
EXTRACT: note_off channel=9 note=35 velocity=100 time=0
EXTRACT: note_on channel=9 note=44 velocity=60 time=0.037500000000000006
EXTRACT: note_off channel=9 note=44 velocity=50 time=0.125
EXTRACT: note_on channel=9 note=85 velocity=120 time=0.078125
EXTRACT: note_on channel=9 note=39 velocity=120 time=0
EXTRACT: note_on channel=9 note=54 velocity=100 time=0
EXTRACT: note_on channel=9 note=28 velocity=100 time=0
EXTRACT: note_on channel=9 note=44 velocity=60 time=0
EXTRACT: note_on channel=3 note=61 velocity=100 time=0
EXTRACT: note_off channel=9 note=44 velocity=50 time=0.125
EXTRACT: note_off channel=9 note=28 velocity=80 time=0
EXTRACT: note_off channel=9 note=54 velocity=80 time=0
EXTRACT: note_off channel=9 note=39 velocity=100 time=0
EXTRACT: note_off channel=9 note=85 velocity=100 time=0
EXTRACT: note_on channel=9 note=44 velocity=60 time=0.05625
EXTRACT: note_off channel=9 note=44 velocity=50 time=0.11875000000000001
EXTRACT: note_on channel=9 note=44 velocity=60 time=0.078125
EXTRACT: note_on channel=3 note=64 velocity=100 time=0
EXTRACT: note_off channel=3 note=61 velocity=80 time=0.040625
EXTRACT: note_off channel=9 note=44 velocity=50 time=0.0078125
EXTRACT: note_on channel=9 note=44 velocity=60 time=0.037500000000000006
EXTRACT: note_off channel=9 note=44 velocity=50 time=0.125
EXTRACT: note_off channel=0 note=62 velocity=80 time=0.0171875
EXTRACT: note_off channel=0 note=64 velocity=80 time=0
EXTRACT: note_off channel=1 note=57 velocity=80 time=0
EXTRACT: note_off channel=2 note=62 velocity=80 time=0
EXTRACT: note_off channel=2 note=64 velocity=80 time=0
EXTRACT: note_off channel=4 note=69 velocity=80 time=0
EXTRACT: note_off channel=0 note=57 velocity=80 time=0.0203125
EXTRACT: note_off channel=1 note=54 velocity=80 time=0
EXTRACT: note_off channel=1 note=45 velocity=80 time=0
EXTRACT: note_off channel=2 note=57 velocity=80 time=0
EXTRACT: note_off channel=4 note=66 velocity=80 time=0
EXTRACT: note_off channel=4 note=57 velocity=80 time=0
EXTRACT: note_on channel=9 note=35 velocity=120 time=0.040625
EXTRACT: note_on channel=9 note=36 velocity=120 time=0
EXTRACT: note_on channel=9 note=44 velocity=60 time=0
EXTRACT: note_off channel=0 note=54 velocity=80 time=0
EXTRACT: note_on channel=0 note=56 velocity=100 time=0
EXTRACT: note_on channel=0 note=59 velocity=100 time=0
EXTRACT: note_on channel=0 note=52 velocity=120 time=0
EXTRACT: note_on channel=0 note=40 velocity=100 time=0
EXTRACT: note_on channel=1 note=64 velocity=100 time=0
EXTRACT: note_on channel=1 note=52 velocity=100 time=0
EXTRACT: note_off channel=2 note=54 velocity=80 time=0
EXTRACT: note_on channel=2 note=56 velocity=100 time=0
EXTRACT: note_on channel=2 note=59 velocity=100 time=0
EXTRACT: note_on channel=2 note=52 velocity=120 time=0
EXTRACT: note_on channel=2 note=40 velocity=100 time=0
EXTRACT: note_on channel=4 note=76 velocity=100 time=0
EXTRACT: note_on channel=4 note=64 velocity=100 time=0
EXTRACT: note_on channel=3 note=68 velocity=100 time=0
EXTRACT: note_off channel=3 note=64 velocity=80 time=0.0203125
EXTRACT: note_off channel=5 note=59 velocity=80 time=0
EXTRACT: note_off channel=9 note=44 velocity=50 time=0.1046875
EXTRACT: note_off channel=9 note=36 velocity=100 time=0
EXTRACT: note_off channel=9 note=35 velocity=100 time=0
EXTRACT: note_on channel=9 note=44 velocity=60 time=0.0421875
EXTRACT: note_off channel=9 note=44 velocity=50 time=0.125
EXTRACT: note_on channel=9 note=82 velocity=50 time=0.078125
EXTRACT: note_on channel=9 note=44 velocity=60 time=0
EXTRACT: note_on channel=3 note=66 velocity=100 time=0
EXTRACT: note_off channel=3 note=68 velocity=80 time=0.0203125
EXTRACT: note_off channel=9 note=44 velocity=50 time=0.1046875
EXTRACT: note_off channel=9 note=82 velocity=40 time=0
EXTRACT: note_on channel=9 note=35 velocity=120 time=0.037500000000000006
EXTRACT: note_on channel=9 note=36 velocity=120 time=0
EXTRACT: note_on channel=9 note=44 velocity=60 time=0
EXTRACT: note_off channel=9 note=44 velocity=50 time=0.084375
EXTRACT: note_off channel=9 note=36 velocity=100 time=0
EXTRACT: note_off channel=9 note=35 velocity=100 time=0
EXTRACT: note_off channel=3 note=66 velocity=80 time=0.0578125
EXTRACT: note_on channel=9 note=85 velocity=120 time=0.0203125
EXTRACT: note_on channel=9 note=39 velocity=120 time=0
EXTRACT: note_on channel=9 note=82 velocity=50 time=0
EXTRACT: note_on channel=9 note=54 velocity=100 time=0
EXTRACT: note_on channel=9 note=28 velocity=100 time=0
EXTRACT: note_on channel=9 note=44 velocity=60 time=0
EXTRACT: note_off channel=0 note=59 velocity=80 time=0
EXTRACT: note_off channel=0 note=56 velocity=80 time=0
EXTRACT: note_on channel=0 note=56 velocity=100 time=0
EXTRACT: note_on channel=0 note=59 velocity=100 time=0
EXTRACT: note_off channel=2 note=59 velocity=80 time=0
EXTRACT: note_off channel=2 note=56 velocity=80 time=0
EXTRACT: note_on channel=2 note=56 velocity=100 time=0
EXTRACT: note_on channel=2 note=59 velocity=100 time=0
EXTRACT: note_on channel=3 note=66 velocity=100 time=0
EXTRACT: note_off channel=9 note=44 velocity=50 time=0.125
EXTRACT: note_off channel=9 note=28 velocity=80 time=0
EXTRACT: note_off channel=9 note=54 velocity=80 time=0
EXTRACT: note_off channel=9 note=82 velocity=40 time=0
EXTRACT: note_off channel=9 note=39 velocity=100 time=0
EXTRACT: note_off channel=9 note=85 velocity=100 time=0
EXTRACT: note_on channel=9 note=44 velocity=60 time=0.05625
EXTRACT: note_off channel=9 note=44 velocity=50 time=0.1171875
EXTRACT: note_on channel=9 note=44 velocity=60 time=0.078125
EXTRACT: note_on channel=3 note=61 velocity=100 time=0
EXTRACT: note_off channel=3 note=66 velocity=80 time=0.0203125
EXTRACT: note_off channel=9 note=44 velocity=50 time=0.1046875
EXTRACT: note_on channel=9 note=82 velocity=50 time=0.009375000000000001
EXTRACT: note_on channel=9 note=44 velocity=60 time=0
EXTRACT: note_off channel=9 note=44 velocity=50 time=0.125
EXTRACT: note_off channel=9 note=82 velocity=40 time=0
EXTRACT: note_on channel=9 note=44 velocity=60 time=0.078125
EXTRACT: note_on channel=0 note=54 velocity=100 time=0
EXTRACT: note_on channel=0 note=51 velocity=100 time=0
EXTRACT: note_on channel=0 note=47 velocity=120 time=0
EXTRACT: note_on channel=0 note=35 velocity=100 time=0
EXTRACT: note_off channel=1 note=52 velocity=80 time=0
EXTRACT: note_off channel=1 note=64 velocity=80 time=0
EXTRACT: note_on channel=1 note=47 velocity=100 time=0
EXTRACT: note_on channel=1 note=59 velocity=100 time=0
EXTRACT: note_on channel=2 note=54 velocity=100 time=0
EXTRACT: note_on channel=2 note=51 velocity=100 time=0
EXTRACT: note_on channel=2 note=47 velocity=120 time=0
EXTRACT: note_on channel=2 note=35 velocity=100 time=0
EXTRACT: note_off channel=4 note=64 velocity=80 time=0
EXTRACT: note_off channel=4 note=76 velocity=80 time=0
EXTRACT: note_on channel=4 note=59 velocity=100 time=0
EXTRACT: note_on channel=4 note=71 velocity=100 time=0
EXTRACT: note_on channel=3 note=66 velocity=100 time=0
EXTRACT: note_off channel=0 note=40 velocity=80 time=0.018750000000000003
EXTRACT: note_off channel=2 note=40 velocity=80 time=0
EXTRACT: note_off channel=3 note=61 velocity=80 time=0.0015625
EXTRACT: note_off channel=0 note=59 velocity=80 time=0.018750000000000003
EXTRACT: note_off channel=2 note=59 velocity=80 time=0
EXTRACT: note_off channel=0 note=52 velocity=120 time=0.0203125
EXTRACT: note_off channel=0 note=56 velocity=80 time=0
EXTRACT: note_off channel=2 note=52 velocity=120 time=0
EXTRACT: note_off channel=2 note=56 velocity=80 time=0
EXTRACT: note_off channel=9 note=44 velocity=50 time=0.065625
EXTRACT: note_on channel=9 note=82 velocity=50 time=0.034375
EXTRACT: note_on channel=9 note=44 velocity=60 time=0
EXTRACT: note_off channel=9 note=44 velocity=50 time=0.125
EXTRACT: note_off channel=9 note=82 velocity=40 time=0
EXTRACT: note_on channel=9 note=35 velocity=120 time=0.078125
EXTRACT: note_on channel=9 note=36 velocity=120 time=0
EXTRACT: note_on channel=9 note=82 velocity=50 time=0
EXTRACT: note_on channel=9 note=44 velocity=60 time=0
EXTRACT: note_off channel=9 note=44 velocity=50 time=0.125
EXTRACT: note_off channel=9 note=82 velocity=40 time=0
EXTRACT: note_off channel=9 note=36 velocity=100 time=0
EXTRACT: note_off channel=9 note=35 velocity=100 time=0
EXTRACT: note_on channel=9 note=44 velocity=60 time=0.037500000000000006
EXTRACT: note_off channel=9 note=44 velocity=50 time=0.125
EXTRACT: note_off channel=0 note=54 velocity=80 time=0.037500000000000006
EXTRACT: note_off channel=2 note=54 velocity=80 time=0
EXTRACT: note_on channel=9 note=85 velocity=120 time=0.040625
EXTRACT: note_on channel=9 note=39 velocity=120 time=0
EXTRACT: note_on channel=9 note=54 velocity=100 time=0
EXTRACT: note_on channel=9 note=28 velocity=100 time=0
EXTRACT: note_on channel=9 note=44 velocity=60 time=0
EXTRACT: note_off channel=0 note=51 velocity=80 time=0
EXTRACT: note_on channel=0 note=51 velocity=100 time=0
EXTRACT: note_on channel=0 note=54 velocity=100 time=0
EXTRACT: note_off channel=2 note=51 velocity=80 time=0
EXTRACT: note_on channel=2 note=51 velocity=100 time=0
EXTRACT: note_on channel=2 note=54 velocity=100 time=0
EXTRACT: note_on channel=5 note=61 velocity=100 time=0
EXTRACT: note_off channel=9 note=44 velocity=50 time=0.125
EXTRACT: note_off channel=9 note=28 velocity=80 time=0
EXTRACT: note_off channel=9 note=54 velocity=80 time=0
EXTRACT: note_off channel=9 note=39 velocity=100 time=0
EXTRACT: note_off channel=9 note=85 velocity=100 time=0
EXTRACT: note_on channel=9 note=44 velocity=60 time=0.05625
EXTRACT: note_off channel=9 note=44 velocity=50 time=0.125
EXTRACT: note_off channel=5 note=61 velocity=80 time=0.0171875
EXTRACT: note_on channel=9 note=44 velocity=60 time=0.060937500000000006
EXTRACT: note_on channel=5 note=59 velocity=100 time=0
EXTRACT: note_off channel=3 note=66 velocity=80 time=0.12187500000000001
EXTRACT: note_off channel=9 note=44 velocity=50 time=0.003125
EXTRACT: note_on channel=9 note=44 velocity=60 time=0.037500000000000006
EXTRACT: note_off channel=9 note=44 velocity=50 time=0.034375
EXTRACT: note_off channel=0 note=35 velocity=80 time=0.037500000000000006
EXTRACT: note_off channel=2 note=35 velocity=80 time=0
EXTRACT: note_on channel=9 note=35 velocity=120 time=0.040625
EXTRACT: note_on channel=9 note=36 velocity=120 time=0
EXTRACT: note_on channel=9 note=44 velocity=60 time=0
EXTRACT: note_off channel=0 note=47 velocity=120 time=0
EXTRACT: note_off channel=0 note=51 velocity=80 time=0
EXTRACT: note_on channel=0 note=49 velocity=120 time=0
EXTRACT: note_on channel=0 note=56 velocity=100 time=0
EXTRACT: note_on channel=0 note=52 velocity=100 time=0
EXTRACT: note_on channel=0 note=37 velocity=100 time=0
EXTRACT: note_off channel=1 note=59 velocity=80 time=0
EXTRACT: note_off channel=1 note=47 velocity=80 time=0
EXTRACT: note_on channel=1 note=49 velocity=100 time=0
EXTRACT: note_on channel=1 note=61 velocity=100 time=0
EXTRACT: note_off channel=2 note=47 velocity=120 time=0
EXTRACT: note_off channel=2 note=51 velocity=80 time=0
EXTRACT: note_on channel=2 note=49 velocity=120 time=0
EXTRACT: note_on channel=2 note=56 velocity=100 time=0
EXTRACT: note_on channel=2 note=52 velocity=100 time=0
EXTRACT: note_on channel=2 note=37 velocity=100 time=0
EXTRACT: note_off channel=4 note=71 velocity=80 time=0
EXTRACT: note_off channel=4 note=59 velocity=80 time=0
EXTRACT: note_on channel=4 note=61 velocity=100 time=0
EXTRACT: note_on channel=4 note=73 velocity=100 time=0
EXTRACT: note_on channel=3 note=66 velocity=100 time=0
EXTRACT: note_off channel=0 note=54 velocity=80 time=0.018750000000000003
EXTRACT: note_off channel=2 note=54 velocity=80 time=0
EXTRACT: note_off channel=9 note=44 velocity=50 time=0.10625000000000001
EXTRACT: note_off channel=9 note=36 velocity=100 time=0
EXTRACT: note_off channel=9 note=35 velocity=100 time=0
EXTRACT: note_on channel=9 note=44 velocity=60 time=0.021875000000000002
EXTRACT: note_off channel=9 note=44 velocity=50 time=0.125
EXTRACT: note_on channel=9 note=82 velocity=50 time=0.078125
EXTRACT: note_on channel=9 note=44 velocity=60 time=0
EXTRACT: note_on channel=3 note=64 velocity=100 time=0
EXTRACT: note_off channel=3 note=66 velocity=80 time=0.0203125
EXTRACT: note_off channel=9 note=44 velocity=50 time=0.1046875
EXTRACT: note_off channel=9 note=82 velocity=40 time=0
EXTRACT: note_on channel=9 note=35 velocity=120 time=0.037500000000000006
EXTRACT: note_on channel=9 note=36 velocity=120 time=0
EXTRACT: note_on channel=9 note=44 velocity=60 time=0
EXTRACT: note_off channel=9 note=44 velocity=50 time=0.1125
EXTRACT: note_off channel=9 note=36 velocity=100 time=0
EXTRACT: note_off channel=9 note=35 velocity=100 time=0
EXTRACT: note_off channel=3 note=64 velocity=80 time=0.0578125
EXTRACT: note_on channel=9 note=85 velocity=120 time=0.0203125
EXTRACT: note_on channel=9 note=39 velocity=120 time=0
EXTRACT: note_on channel=9 note=82 velocity=50 time=0
EXTRACT: note_on channel=9 note=54 velocity=100 time=0
EXTRACT: note_on channel=9 note=28 velocity=100 time=0
EXTRACT: note_on channel=9 note=44 velocity=60 time=0
EXTRACT: note_off channel=0 note=56 velocity=80 time=0
EXTRACT: note_off channel=0 note=52 velocity=80 time=0
EXTRACT: note_on channel=0 note=56 velocity=100 time=0
EXTRACT: note_on channel=0 note=52 velocity=100 time=0
EXTRACT: note_off channel=2 note=56 velocity=80 time=0
EXTRACT: note_off channel=2 note=52 velocity=80 time=0
EXTRACT: note_on channel=2 note=56 velocity=100 time=0
EXTRACT: note_on channel=2 note=52 velocity=100 time=0
EXTRACT: note_on channel=3 note=64 velocity=100 time=0
EXTRACT: note_off channel=5 note=59 velocity=80 time=0.0203125
EXTRACT: note_off channel=9 note=44 velocity=50 time=0.1046875
EXTRACT: note_off channel=9 note=28 velocity=80 time=0
EXTRACT: note_off channel=9 note=54 velocity=80 time=0
EXTRACT: note_off channel=9 note=82 velocity=40 time=0
EXTRACT: note_off channel=9 note=39 velocity=100 time=0
EXTRACT: note_off channel=9 note=85 velocity=100 time=0
EXTRACT: note_on channel=9 note=44 velocity=60 time=0.0125
EXTRACT: note_off channel=9 note=44 velocity=50 time=0.125
EXTRACT: note_on channel=9 note=44 velocity=60 time=0.078125
EXTRACT: note_on channel=3 note=59 velocity=100 time=0
EXTRACT: note_off channel=3 note=64 velocity=80 time=0.0203125
EXTRACT: note_off channel=9 note=44 velocity=50 time=0.0125
EXTRACT: note_on channel=9 note=82 velocity=50 time=0.037500000000000006
EXTRACT: note_on channel=9 note=44 velocity=60 time=0
EXTRACT: note_off channel=9 note=44 velocity=50 time=0.125
EXTRACT: note_off channel=9 note=82 velocity=40 time=0
EXTRACT: note_on channel=9 note=44 velocity=60 time=0.078125
EXTRACT: note_off channel=0 note=52 velocity=80 time=0
EXTRACT: note_off channel=0 note=49 velocity=120 time=0
EXTRACT: note_off channel=0 note=37 velocity=80 time=0
EXTRACT: note_on channel=0 note=45 velocity=120 time=0
EXTRACT: note_on channel=0 note=49 velocity=100 time=0
EXTRACT: note_on channel=0 note=52 velocity=100 time=0
EXTRACT: note_on channel=0 note=33 velocity=100 time=0
EXTRACT: note_off channel=1 note=61 velocity=80 time=0
EXTRACT: note_off channel=1 note=49 velocity=80 time=0
EXTRACT: note_on channel=1 note=69 velocity=100 time=0
EXTRACT: note_on channel=1 note=57 velocity=100 time=0
EXTRACT: note_on channel=1 note=45 velocity=100 time=0
EXTRACT: note_off channel=2 note=52 velocity=80 time=0
EXTRACT: note_off channel=2 note=49 velocity=120 time=0
EXTRACT: note_off channel=2 note=37 velocity=80 time=0
EXTRACT: note_on channel=2 note=45 velocity=120 time=0
EXTRACT: note_on channel=2 note=49 velocity=100 time=0
EXTRACT: note_on channel=2 note=52 velocity=100 time=0
EXTRACT: note_on channel=2 note=33 velocity=100 time=0
EXTRACT: note_off channel=4 note=73 velocity=80 time=0
EXTRACT: note_off channel=4 note=61 velocity=80 time=0
EXTRACT: note_on channel=4 note=81 velocity=100 time=0
EXTRACT: note_on channel=4 note=69 velocity=100 time=0
EXTRACT: note_on channel=4 note=57 velocity=100 time=0
EXTRACT: note_on channel=3 note=63 velocity=100 time=0
EXTRACT: note_off channel=0 note=56 velocity=80 time=0.018750000000000003
EXTRACT: note_off channel=2 note=56 velocity=80 time=0
EXTRACT: note_off channel=3 note=59 velocity=80 time=0.0015625
EXTRACT: note_off channel=9 note=44 velocity=50 time=0.009375000000000001
EXTRACT: note_on channel=9 note=82 velocity=50 time=0.05625
EXTRACT: note_on channel=9 note=44 velocity=60 time=0
EXTRACT: note_off channel=9 note=44 velocity=50 time=0.125
EXTRACT: note_off channel=9 note=82 velocity=40 time=0
EXTRACT: note_on channel=9 note=35 velocity=120 time=0.078125
EXTRACT: note_on channel=9 note=36 velocity=120 time=0
EXTRACT: note_on channel=9 note=82 velocity=50 time=0
EXTRACT: note_on channel=9 note=44 velocity=60 time=0
EXTRACT: note_on channel=1 note=68 velocity=100 time=0
EXTRACT: note_on channel=4 note=80 velocity=100 time=0
EXTRACT: note_off channel=1 note=69 velocity=80 time=0.12187500000000001
EXTRACT: note_off channel=4 note=81 velocity=80 time=0
EXTRACT: note_off channel=9 note=44 velocity=50 time=0.003125
EXTRACT: note_off channel=9 note=82 velocity=40 time=0
EXTRACT: note_off channel=9 note=36 velocity=100 time=0
EXTRACT: note_off channel=9 note=35 velocity=100 time=0
EXTRACT: note_on channel=9 note=44 velocity=60 time=0.037500000000000006
EXTRACT: note_off channel=9 note=44 velocity=50 time=0.125
EXTRACT: note_on channel=9 note=85 velocity=120 time=0.078125
EXTRACT: note_on channel=9 note=39 velocity=120 time=0
EXTRACT: note_on channel=9 note=54 velocity=100 time=0
EXTRACT: note_on channel=9 note=28 velocity=100 time=0
EXTRACT: note_on channel=9 note=44 velocity=60 time=0
EXTRACT: note_off channel=0 note=49 velocity=80 time=0
EXTRACT: note_off channel=0 note=52 velocity=80 time=0
EXTRACT: note_on channel=0 note=49 velocity=100 time=0
EXTRACT: note_on channel=0 note=52 velocity=100 time=0
EXTRACT: note_on channel=1 note=66 velocity=100 time=0
EXTRACT: note_off channel=2 note=49 velocity=80 time=0
EXTRACT: note_off channel=2 note=52 velocity=80 time=0
EXTRACT: note_on channel=2 note=49 velocity=100 time=0
EXTRACT: note_on channel=2 note=52 velocity=100 time=0
EXTRACT: note_on channel=4 note=78 velocity=100 time=0
EXTRACT: note_on channel=3 note=64 velocity=100 time=0
EXTRACT: note_off channel=3 note=63 velocity=80 time=0.059375000000000004
EXTRACT: note_off channel=9 note=44 velocity=50 time=0.065625
EXTRACT: note_off channel=9 note=28 velocity=80 time=0
EXTRACT: note_off channel=9 note=54 velocity=80 time=0
EXTRACT: note_off channel=9 note=39 velocity=100 time=0
EXTRACT: note_off channel=9 note=85 velocity=100 time=0
EXTRACT: note_off channel=1 note=68 velocity=80 time=0.015625
EXTRACT: note_off channel=4 note=80 velocity=80 time=0
EXTRACT: note_on channel=9 note=44 velocity=60 time=0.040625
EXTRACT: note_off channel=9 note=44 velocity=50 time=0.125
EXTRACT: note_on channel=9 note=44 velocity=60 time=0.078125
EXTRACT: note_on channel=1 note=64 velocity=100 time=0
EXTRACT: note_on channel=4 note=76 velocity=100 time=0
EXTRACT: note_off channel=3 note=64 velocity=80 time=0.1015625
EXTRACT: note_off channel=9 note=44 velocity=50 time=0.0234375
EXTRACT: note_off channel=1 note=66 velocity=80 time=0.0171875
EXTRACT: note_off channel=4 note=78 velocity=80 time=0
EXTRACT: note_on channel=9 note=44 velocity=60 time=0.0203125
EXTRACT: note_on channel=3 note=64 velocity=100 time=0
EXTRACT: note_off channel=9 note=44 velocity=50 time=0.125
EXTRACT: note_off channel=1 note=64 velocity=80 time=0.0578125
EXTRACT: note_off channel=4 note=76 velocity=80 time=0
EXTRACT: note_on channel=9 note=35 velocity=120 time=0.0203125
EXTRACT: note_on channel=9 note=36 velocity=120 time=0
EXTRACT: note_on channel=9 note=44 velocity=60 time=0
EXTRACT: note_off channel=0 note=52 velocity=80 time=0
EXTRACT: note_off channel=0 note=33 velocity=80 time=0
EXTRACT: note_off channel=0 note=49 velocity=80 time=0
EXTRACT: note_on channel=0 note=56 velocity=100 time=0
EXTRACT: note_on channel=0 note=59 velocity=100 time=0
EXTRACT: note_on channel=0 note=52 velocity=120 time=0
EXTRACT: note_on channel=0 note=40 velocity=100 time=0
EXTRACT: note_off channel=1 note=57 velocity=80 time=0
EXTRACT: note_off channel=1 note=45 velocity=80 time=0
EXTRACT: note_on channel=1 note=64 velocity=100 time=0
EXTRACT: note_on channel=1 note=52 velocity=100 time=0
EXTRACT: note_off channel=2 note=52 velocity=80 time=0
EXTRACT: note_off channel=2 note=33 velocity=80 time=0
EXTRACT: note_off channel=2 note=49 velocity=80 time=0
EXTRACT: note_on channel=2 note=56 velocity=100 time=0
EXTRACT: note_on channel=2 note=59 velocity=100 time=0
EXTRACT: note_on channel=2 note=52 velocity=120 time=0
EXTRACT: note_on channel=2 note=40 velocity=100 time=0
EXTRACT: note_off channel=4 note=69 velocity=80 time=0
EXTRACT: note_off channel=4 note=57 velocity=80 time=0
EXTRACT: note_on channel=4 note=76 velocity=100 time=0
EXTRACT: note_on channel=4 note=64 velocity=100 time=0
EXTRACT: note_on channel=3 note=68 velocity=100 time=0
EXTRACT: note_off channel=0 note=45 velocity=120 time=0.018750000000000003
EXTRACT: note_off channel=2 note=45 velocity=120 time=0
EXTRACT: note_off channel=3 note=64 velocity=80 time=0.0078125
EXTRACT: note_off channel=9 note=44 velocity=50 time=0.0859375
EXTRACT: note_off channel=9 note=36 velocity=100 time=0
EXTRACT: note_off channel=9 note=35 velocity=100 time=0
EXTRACT: note_on channel=9 note=44 velocity=60 time=0.05625
EXTRACT: note_off channel=9 note=44 velocity=50 time=0.115625
EXTRACT: note_on channel=9 note=82 velocity=50 time=0.078125
EXTRACT: note_on channel=9 note=44 velocity=60 time=0
EXTRACT: note_on channel=3 note=66 velocity=100 time=0
EXTRACT: note_off channel=3 note=68 velocity=80 time=0.0203125
EXTRACT: note_off channel=9 note=44 velocity=50 time=0.1046875
EXTRACT: note_off channel=9 note=82 velocity=40 time=0
EXTRACT: note_on channel=9 note=35 velocity=120 time=0.015625
EXTRACT: note_on channel=9 note=36 velocity=120 time=0
EXTRACT: note_on channel=9 note=44 velocity=60 time=0
EXTRACT: note_off channel=9 note=44 velocity=50 time=0.125
EXTRACT: note_off channel=9 note=36 velocity=100 time=0
EXTRACT: note_off channel=9 note=35 velocity=100 time=0
EXTRACT: note_off channel=3 note=66 velocity=80 time=0.0578125
EXTRACT: note_on channel=9 note=85 velocity=120 time=0.0203125
EXTRACT: note_on channel=9 note=39 velocity=120 time=0
EXTRACT: note_on channel=9 note=82 velocity=50 time=0
EXTRACT: note_on channel=9 note=54 velocity=100 time=0
EXTRACT: note_on channel=9 note=28 velocity=100 time=0
EXTRACT: note_on channel=9 note=44 velocity=60 time=0
EXTRACT: note_off channel=0 note=56 velocity=80 time=0
EXTRACT: note_off channel=0 note=59 velocity=80 time=0
EXTRACT: note_on channel=0 note=56 velocity=100 time=0
EXTRACT: note_on channel=0 note=59 velocity=100 time=0
EXTRACT: note_off channel=2 note=56 velocity=80 time=0
EXTRACT: note_off channel=2 note=59 velocity=80 time=0
EXTRACT: note_on channel=2 note=56 velocity=100 time=0
EXTRACT: note_on channel=2 note=59 velocity=100 time=0
EXTRACT: note_on channel=3 note=66 velocity=100 time=0
EXTRACT: note_off channel=9 note=44 velocity=50 time=0.125
EXTRACT: note_off channel=9 note=28 velocity=80 time=0
EXTRACT: note_off channel=9 note=54 velocity=80 time=0
EXTRACT: note_off channel=9 note=82 velocity=40 time=0
EXTRACT: note_off channel=9 note=39 velocity=100 time=0
EXTRACT: note_off channel=9 note=85 velocity=100 time=0
EXTRACT: note_on channel=9 note=44 velocity=60 time=0.0234375
EXTRACT: note_off channel=9 note=44 velocity=50 time=0.125
EXTRACT: note_on channel=9 note=44 velocity=60 time=0.078125
EXTRACT: note_off channel=3 note=66 velocity=80 time=0.0203125
EXTRACT: note_off channel=9 note=44 velocity=50 time=0.1046875
EXTRACT: note_on channel=9 note=82 velocity=50 time=0.037500000000000006
EXTRACT: note_on channel=9 note=44 velocity=60 time=0
EXTRACT: note_on channel=3 note=71 velocity=100 time=0
EXTRACT: note_off channel=9 note=44 velocity=50 time=0.125
EXTRACT: note_off channel=9 note=82 velocity=40 time=0
EXTRACT: note_on channel=9 note=44 velocity=60 time=0.078125
EXTRACT: note_on channel=0 note=54 velocity=100 time=0
EXTRACT: note_on channel=0 note=51 velocity=100 time=0
EXTRACT: note_on channel=0 note=47 velocity=120 time=0
EXTRACT: note_on channel=0 note=35 velocity=100 time=0
EXTRACT: note_off channel=1 note=52 velocity=80 time=0
EXTRACT: note_off channel=1 note=64 velocity=80 time=0
EXTRACT: note_on channel=1 note=47 velocity=100 time=0
EXTRACT: note_on channel=1 note=59 velocity=100 time=0
EXTRACT: note_on channel=2 note=54 velocity=100 time=0
EXTRACT: note_on channel=2 note=51 velocity=100 time=0
EXTRACT: note_on channel=2 note=47 velocity=120 time=0
EXTRACT: note_on channel=2 note=35 velocity=100 time=0
EXTRACT: note_off channel=4 note=64 velocity=80 time=0
EXTRACT: note_off channel=4 note=76 velocity=80 time=0
EXTRACT: note_on channel=4 note=59 velocity=100 time=0
EXTRACT: note_on channel=4 note=71 velocity=100 time=0
EXTRACT: note_on channel=3 note=66 velocity=100 time=0
EXTRACT: note_off channel=0 note=40 velocity=80 time=0.018750000000000003
EXTRACT: note_off channel=2 note=40 velocity=80 time=0
EXTRACT: note_off channel=0 note=59 velocity=80 time=0.0203125
EXTRACT: note_off channel=2 note=59 velocity=80 time=0
EXTRACT: note_off channel=0 note=52 velocity=120 time=0.0203125
EXTRACT: note_off channel=0 note=56 velocity=80 time=0
EXTRACT: note_off channel=2 note=52 velocity=120 time=0
EXTRACT: note_off channel=2 note=56 velocity=80 time=0
EXTRACT: note_off channel=3 note=71 velocity=80 time=0
EXTRACT: note_off channel=9 note=44 velocity=50 time=0.029687500000000002
EXTRACT: note_on channel=9 note=82 velocity=50 time=0.05625
EXTRACT: note_on channel=9 note=44 velocity=60 time=0
EXTRACT: note_off channel=9 note=44 velocity=50 time=0.0390625
EXTRACT: note_off channel=9 note=82 velocity=40 time=0
EXTRACT: note_on channel=9 note=35 velocity=120 time=0.078125
EXTRACT: note_on channel=9 note=36 velocity=120 time=0
EXTRACT: note_on channel=9 note=82 velocity=50 time=0
EXTRACT: note_on channel=9 note=44 velocity=60 time=0
EXTRACT: note_off channel=9 note=44 velocity=50 time=0.125
EXTRACT: note_off channel=9 note=82 velocity=40 time=0
EXTRACT: note_off channel=9 note=36 velocity=100 time=0
EXTRACT: note_off channel=9 note=35 velocity=100 time=0
EXTRACT: note_on channel=9 note=44 velocity=60 time=0.037500000000000006
EXTRACT: note_off channel=9 note=44 velocity=50 time=0.125
EXTRACT: note_off channel=0 note=54 velocity=80 time=0.037500000000000006
EXTRACT: note_off channel=2 note=54 velocity=80 time=0
EXTRACT: note_on channel=9 note=85 velocity=120 time=0.040625
EXTRACT: note_on channel=9 note=39 velocity=120 time=0
EXTRACT: note_on channel=9 note=54 velocity=100 time=0
EXTRACT: note_on channel=9 note=28 velocity=100 time=0
EXTRACT: note_on channel=9 note=44 velocity=60 time=0
EXTRACT: note_off channel=0 note=51 velocity=80 time=0
EXTRACT: note_on channel=0 note=51 velocity=100 time=0
EXTRACT: note_on channel=0 note=54 velocity=100 time=0
EXTRACT: note_off channel=2 note=51 velocity=80 time=0
EXTRACT: note_on channel=2 note=51 velocity=100 time=0
EXTRACT: note_on channel=2 note=54 velocity=100 time=0
EXTRACT: note_on channel=5 note=61 velocity=100 time=0
EXTRACT: note_off channel=9 note=44 velocity=50 time=0.125
EXTRACT: note_off channel=9 note=28 velocity=80 time=0
EXTRACT: note_off channel=9 note=54 velocity=80 time=0
EXTRACT: note_off channel=9 note=39 velocity=100 time=0
EXTRACT: note_off channel=9 note=85 velocity=100 time=0
EXTRACT: note_on channel=9 note=44 velocity=60 time=0.05625
EXTRACT: note_off channel=9 note=44 velocity=50 time=0.125
EXTRACT: note_off channel=5 note=61 velocity=80 time=0.0171875
EXTRACT: note_on channel=9 note=44 velocity=60 time=0.060937500000000006
EXTRACT: note_on channel=5 note=59 velocity=100 time=0
EXTRACT: note_off channel=3 note=66 velocity=80 time=0.12187500000000001
EXTRACT: note_off channel=9 note=44 velocity=50 time=0.003125
EXTRACT: note_on channel=9 note=44 velocity=60 time=0.037500000000000006
EXTRACT: note_off channel=9 note=44 velocity=50 time=0.125
EXTRACT: note_off channel=0 note=35 velocity=80 time=0.037500000000000006
EXTRACT: note_off channel=2 note=35 velocity=80 time=0
EXTRACT: note_on channel=9 note=35 velocity=120 time=0.040625
EXTRACT: note_on channel=9 note=36 velocity=120 time=0
EXTRACT: note_on channel=9 note=44 velocity=60 time=0
EXTRACT: note_off channel=0 note=47 velocity=120 time=0
EXTRACT: note_off channel=0 note=51 velocity=80 time=0
EXTRACT: note_on channel=0 note=49 velocity=120 time=0
EXTRACT: note_on channel=0 note=56 velocity=100 time=0
EXTRACT: note_on channel=0 note=52 velocity=100 time=0
EXTRACT: note_on channel=0 note=37 velocity=100 time=0
EXTRACT: note_off channel=1 note=59 velocity=80 time=0
EXTRACT: note_off channel=1 note=47 velocity=80 time=0
EXTRACT: note_on channel=1 note=49 velocity=100 time=0
EXTRACT: note_on channel=1 note=61 velocity=100 time=0
EXTRACT: note_off channel=2 note=47 velocity=120 time=0
EXTRACT: note_off channel=2 note=51 velocity=80 time=0
EXTRACT: note_on channel=2 note=49 velocity=120 time=0
EXTRACT: note_on channel=2 note=56 velocity=100 time=0
EXTRACT: note_on channel=2 note=52 velocity=100 time=0
EXTRACT: note_on channel=2 note=37 velocity=100 time=0
EXTRACT: note_off channel=4 note=71 velocity=80 time=0
EXTRACT: note_off channel=4 note=59 velocity=80 time=0
EXTRACT: note_on channel=4 note=61 velocity=100 time=0
EXTRACT: note_on channel=4 note=73 velocity=100 time=0
EXTRACT: note_on channel=3 note=66 velocity=100 time=0
EXTRACT: note_off channel=0 note=54 velocity=80 time=0.018750000000000003
EXTRACT: note_off channel=2 note=54 velocity=80 time=0
EXTRACT: note_off channel=9 note=44 velocity=50 time=0.10625000000000001
EXTRACT: note_off channel=9 note=36 velocity=100 time=0
EXTRACT: note_off channel=9 note=35 velocity=100 time=0
EXTRACT: note_on channel=9 note=44 velocity=60 time=0.021875000000000002
EXTRACT: note_off channel=9 note=44 velocity=50 time=0.125
EXTRACT: note_on channel=9 note=82 velocity=50 time=0.078125
EXTRACT: note_on channel=9 note=44 velocity=60 time=0
EXTRACT: note_on channel=3 note=64 velocity=100 time=0
EXTRACT: note_off channel=3 note=66 velocity=80 time=0.0203125
EXTRACT: note_off channel=9 note=44 velocity=50 time=0.1046875
EXTRACT: note_off channel=9 note=82 velocity=40 time=0
EXTRACT: note_on channel=9 note=35 velocity=120 time=0.03125
EXTRACT: note_on channel=9 note=36 velocity=120 time=0
EXTRACT: note_on channel=9 note=44 velocity=60 time=0
EXTRACT: note_off channel=9 note=44 velocity=50 time=0.125
EXTRACT: note_off channel=9 note=36 velocity=100 time=0
EXTRACT: note_off channel=9 note=35 velocity=100 time=0
EXTRACT: note_off channel=3 note=64 velocity=80 time=0.0578125
EXTRACT: note_on channel=9 note=85 velocity=120 time=0.0203125
EXTRACT: note_on channel=9 note=39 velocity=120 time=0
EXTRACT: note_on channel=9 note=82 velocity=50 time=0
EXTRACT: note_on channel=9 note=54 velocity=100 time=0
EXTRACT: note_on channel=9 note=28 velocity=100 time=0
EXTRACT: note_on channel=9 note=44 velocity=60 time=0
EXTRACT: note_off channel=0 note=56 velocity=80 time=0
EXTRACT: note_off channel=0 note=52 velocity=80 time=0
EXTRACT: note_on channel=0 note=56 velocity=100 time=0
EXTRACT: note_on channel=0 note=52 velocity=100 time=0
EXTRACT: note_off channel=2 note=56 velocity=80 time=0
EXTRACT: note_off channel=2 note=52 velocity=80 time=0
EXTRACT: note_on channel=2 note=56 velocity=100 time=0
EXTRACT: note_on channel=2 note=52 velocity=100 time=0
EXTRACT: note_on channel=3 note=64 velocity=100 time=0
EXTRACT: note_off channel=5 note=59 velocity=80 time=0.0203125
EXTRACT: note_off channel=9 note=44 velocity=50 time=0.003125
EXTRACT: note_off channel=9 note=28 velocity=80 time=0
EXTRACT: note_off channel=9 note=54 velocity=80 time=0
EXTRACT: note_off channel=9 note=82 velocity=40 time=0
EXTRACT: note_off channel=9 note=39 velocity=100 time=0
EXTRACT: note_off channel=9 note=85 velocity=100 time=0
EXTRACT: note_on channel=9 note=44 velocity=60 time=0.05625
EXTRACT: note_off channel=9 note=44 velocity=50 time=0.125
EXTRACT: note_on channel=9 note=44 velocity=60 time=0.078125
EXTRACT: note_on channel=3 note=59 velocity=100 time=0
EXTRACT: note_off channel=3 note=64 velocity=80 time=0.0203125
EXTRACT: note_off channel=9 note=44 velocity=50 time=0.0078125
EXTRACT: note_on channel=9 note=82 velocity=50 time=0.037500000000000006
EXTRACT: note_on channel=9 note=44 velocity=60 time=0
EXTRACT: note_off channel=9 note=44 velocity=50 time=0.125
EXTRACT: note_off channel=9 note=82 velocity=40 time=0
EXTRACT: note_on channel=9 note=44 velocity=60 time=0.078125
EXTRACT: note_off channel=0 note=52 velocity=80 time=0
EXTRACT: note_off channel=0 note=49 velocity=120 time=0
EXTRACT: note_off channel=0 note=37 velocity=80 time=0
EXTRACT: note_on channel=0 note=45 velocity=120 time=0
EXTRACT: note_on channel=0 note=49 velocity=100 time=0
EXTRACT: note_on channel=0 note=52 velocity=100 time=0
EXTRACT: note_on channel=0 note=33 velocity=100 time=0
EXTRACT: note_off channel=1 note=61 velocity=80 time=0
EXTRACT: note_off channel=1 note=49 velocity=80 time=0
EXTRACT: note_on channel=1 note=57 velocity=100 time=0
EXTRACT: note_on channel=1 note=45 velocity=100 time=0
EXTRACT: note_on channel=1 note=63 velocity=100 time=0
EXTRACT: note_off channel=2 note=52 velocity=80 time=0
EXTRACT: note_off channel=2 note=49 velocity=120 time=0
EXTRACT: note_off channel=2 note=37 velocity=80 time=0
EXTRACT: note_on channel=2 note=45 velocity=120 time=0
EXTRACT: note_on channel=2 note=49 velocity=100 time=0
EXTRACT: note_on channel=2 note=52 velocity=100 time=0
EXTRACT: note_on channel=2 note=33 velocity=100 time=0
EXTRACT: note_off channel=4 note=73 velocity=80 time=0
EXTRACT: note_off channel=4 note=61 velocity=80 time=0
EXTRACT: note_on channel=4 note=69 velocity=100 time=0
EXTRACT: note_on channel=4 note=57 velocity=100 time=0
EXTRACT: note_on channel=4 note=75 velocity=100 time=0
EXTRACT: note_on channel=3 note=63 velocity=100 time=0
EXTRACT: note_off channel=0 note=56 velocity=80 time=0.018750000000000003
EXTRACT: note_off channel=2 note=56 velocity=80 time=0
EXTRACT: note_off channel=3 note=59 velocity=80 time=0.0015625
EXTRACT: note_off channel=9 note=44 velocity=50 time=0.0015625
EXTRACT: note_on channel=9 note=82 velocity=50 time=0.05625
EXTRACT: note_on channel=9 note=44 velocity=60 time=0
EXTRACT: note_off channel=9 note=44 velocity=50 time=0.125
EXTRACT: note_off channel=9 note=82 velocity=40 time=0
EXTRACT: note_on channel=9 note=35 velocity=120 time=0.078125
EXTRACT: note_on channel=9 note=36 velocity=120 time=0
EXTRACT: note_on channel=9 note=82 velocity=50 time=0
EXTRACT: note_on channel=9 note=44 velocity=60 time=0
EXTRACT: note_off channel=9 note=44 velocity=50 time=0.125
EXTRACT: note_off channel=9 note=82 velocity=40 time=0
EXTRACT: note_off channel=9 note=36 velocity=100 time=0
EXTRACT: note_off channel=9 note=35 velocity=100 time=0
EXTRACT: note_on channel=9 note=44 velocity=60 time=0.037500000000000006
EXTRACT: note_off channel=9 note=44 velocity=50 time=0.125
EXTRACT: note_on channel=9 note=85 velocity=120 time=0.078125
EXTRACT: note_on channel=9 note=39 velocity=120 time=0
EXTRACT: note_on channel=9 note=54 velocity=100 time=0
EXTRACT: note_on channel=9 note=28 velocity=100 time=0
EXTRACT: note_on channel=9 note=44 velocity=60 time=0
EXTRACT: note_off channel=0 note=49 velocity=80 time=0
EXTRACT: note_off channel=0 note=52 velocity=80 time=0
EXTRACT: note_on channel=0 note=49 velocity=100 time=0
EXTRACT: note_on channel=0 note=52 velocity=100 time=0
EXTRACT: note_on channel=1 note=64 velocity=100 time=0
EXTRACT: note_off channel=2 note=49 velocity=80 time=0
EXTRACT: note_off channel=2 note=52 velocity=80 time=0
EXTRACT: note_on channel=2 note=49 velocity=100 time=0
EXTRACT: note_on channel=2 note=52 velocity=100 time=0
EXTRACT: note_on channel=4 note=76 velocity=100 time=0
EXTRACT: note_on channel=3 note=64 velocity=100 time=0
EXTRACT: note_off channel=3 note=63 velocity=80 time=0.059375000000000004
EXTRACT: note_off channel=9 note=44 velocity=50 time=0.065625
EXTRACT: note_off channel=9 note=28 velocity=80 time=0
EXTRACT: note_off channel=9 note=54 velocity=80 time=0
EXTRACT: note_off channel=9 note=39 velocity=100 time=0
EXTRACT: note_off channel=9 note=85 velocity=100 time=0
EXTRACT: note_on channel=9 note=44 velocity=60 time=0.05625
EXTRACT: note_off channel=1 note=63 velocity=80 time=0.0890625
EXTRACT: note_off channel=4 note=75 velocity=80 time=0
EXTRACT: note_off channel=9 note=44 velocity=50 time=0.0234375
EXTRACT: note_on channel=9 note=44 velocity=60 time=0.078125
EXTRACT: note_off channel=9 note=44 velocity=50 time=0.125
EXTRACT: note_on channel=9 note=44 velocity=60 time=0.037500000000000006
EXTRACT: note_off channel=9 note=44 velocity=50 time=0.125
EXTRACT: note_on channel=9 note=35 velocity=120 time=0.078125
EXTRACT: note_on channel=9 note=36 velocity=120 time=0
EXTRACT: note_on channel=9 note=44 velocity=60 time=0
EXTRACT: note_off channel=0 note=52 velocity=80 time=0
EXTRACT: note_off channel=0 note=33 velocity=80 time=0
EXTRACT: note_off channel=0 note=49 velocity=80 time=0
EXTRACT: note_on channel=0 note=56 velocity=100 time=0
EXTRACT: note_on channel=0 note=59 velocity=100 time=0
EXTRACT: note_on channel=0 note=52 velocity=120 time=0
EXTRACT: note_on channel=0 note=40 velocity=100 time=0
EXTRACT: note_off channel=1 note=45 velocity=80 time=0
EXTRACT: note_off channel=1 note=57 velocity=80 time=0
EXTRACT: note_off channel=1 note=64 velocity=80 time=0
EXTRACT: note_on channel=1 note=64 velocity=100 time=0
EXTRACT: note_on channel=1 note=52 velocity=100 time=0
EXTRACT: note_off channel=2 note=52 velocity=80 time=0
EXTRACT: note_off channel=2 note=33 velocity=80 time=0
EXTRACT: note_off channel=2 note=49 velocity=80 time=0
EXTRACT: note_on channel=2 note=56 velocity=100 time=0
EXTRACT: note_on channel=2 note=59 velocity=100 time=0
EXTRACT: note_on channel=2 note=52 velocity=120 time=0
EXTRACT: note_on channel=2 note=40 velocity=100 time=0
EXTRACT: note_off channel=4 note=57 velocity=80 time=0
EXTRACT: note_off channel=4 note=69 velocity=80 time=0
EXTRACT: note_off channel=4 note=76 velocity=80 time=0
EXTRACT: note_on channel=4 note=76 velocity=100 time=0
EXTRACT: note_on channel=4 note=64 velocity=100 time=0
EXTRACT: note_off channel=3 note=64 velocity=80 time=0
EXTRACT: note_on channel=3 note=68 velocity=100 time=0
EXTRACT: note_off channel=0 note=45 velocity=120 time=0.018750000000000003
EXTRACT: note_off channel=2 note=45 velocity=120 time=0
EXTRACT: note_off channel=9 note=44 velocity=50 time=0.10625000000000001
EXTRACT: note_off channel=9 note=36 velocity=100 time=0
EXTRACT: note_off channel=9 note=35 velocity=100 time=0
EXTRACT: note_on channel=9 note=44 velocity=60 time=0.05625
EXTRACT: note_off channel=9 note=44 velocity=50 time=0.11093750000000001
EXTRACT: note_on channel=9 note=82 velocity=50 time=0.078125
EXTRACT: note_on channel=9 note=44 velocity=60 time=0
EXTRACT: note_on channel=3 note=66 velocity=100 time=0
EXTRACT: note_off channel=3 note=68 velocity=80 time=0.0203125
EXTRACT: note_off channel=9 note=44 velocity=50 time=0.1046875
EXTRACT: note_off channel=9 note=82 velocity=40 time=0
EXTRACT: note_on channel=9 note=35 velocity=120 time=0.0203125
EXTRACT: note_on channel=9 note=36 velocity=120 time=0
EXTRACT: note_on channel=9 note=44 velocity=60 time=0
EXTRACT: note_off channel=9 note=44 velocity=50 time=0.125
EXTRACT: note_off channel=9 note=36 velocity=100 time=0
EXTRACT: note_off channel=9 note=35 velocity=100 time=0
EXTRACT: note_off channel=3 note=66 velocity=80 time=0.0578125
EXTRACT: note_on channel=9 note=85 velocity=120 time=0.0203125
EXTRACT: note_on channel=9 note=39 velocity=120 time=0
EXTRACT: note_on channel=9 note=82 velocity=50 time=0
EXTRACT: note_on channel=9 note=54 velocity=100 time=0
EXTRACT: note_on channel=9 note=28 velocity=100 time=0
EXTRACT: note_on channel=9 note=44 velocity=60 time=0
EXTRACT: note_off channel=0 note=56 velocity=80 time=0
EXTRACT: note_off channel=0 note=59 velocity=80 time=0
EXTRACT: note_on channel=0 note=56 velocity=100 time=0
EXTRACT: note_on channel=0 note=59 velocity=100 time=0
EXTRACT: note_off channel=2 note=56 velocity=80 time=0
EXTRACT: note_off channel=2 note=59 velocity=80 time=0
EXTRACT: note_on channel=2 note=56 velocity=100 time=0
EXTRACT: note_on channel=2 note=59 velocity=100 time=0
EXTRACT: note_on channel=3 note=66 velocity=100 time=0
EXTRACT: note_off channel=9 note=44 velocity=50 time=0.125
EXTRACT: note_off channel=9 note=28 velocity=80 time=0
EXTRACT: note_off channel=9 note=54 velocity=80 time=0
EXTRACT: note_off channel=9 note=82 velocity=40 time=0
EXTRACT: note_off channel=9 note=39 velocity=100 time=0
EXTRACT: note_off channel=9 note=85 velocity=100 time=0
EXTRACT: note_on channel=9 note=44 velocity=60 time=0.05625
EXTRACT: note_off channel=9 note=44 velocity=50 time=0.125
EXTRACT: note_on channel=9 note=44 velocity=60 time=0.078125
EXTRACT: note_off channel=3 note=66 velocity=80 time=0.0203125
EXTRACT: note_off channel=9 note=44 velocity=50 time=0.1046875
EXTRACT: note_on channel=9 note=82 velocity=50 time=0.037500000000000006
EXTRACT: note_on channel=9 note=44 velocity=60 time=0
EXTRACT: note_on channel=3 note=64 velocity=100 time=0
EXTRACT: note_off channel=9 note=44 velocity=50 time=0.125
EXTRACT: note_off channel=9 note=82 velocity=40 time=0
EXTRACT: note_on channel=9 note=44 velocity=60 time=0.078125
EXTRACT: note_on channel=0 note=54 velocity=100 time=0
EXTRACT: note_on channel=0 note=51 velocity=100 time=0
EXTRACT: note_on channel=0 note=47 velocity=120 time=0
EXTRACT: note_on channel=0 note=35 velocity=100 time=0
EXTRACT: note_off channel=1 note=52 velocity=80 time=0
EXTRACT: note_off channel=1 note=64 velocity=80 time=0
EXTRACT: note_on channel=1 note=47 velocity=100 time=0
EXTRACT: note_on channel=1 note=59 velocity=100 time=0
EXTRACT: note_on channel=2 note=54 velocity=100 time=0
EXTRACT: note_on channel=2 note=51 velocity=100 time=0
EXTRACT: note_on channel=2 note=47 velocity=120 time=0
EXTRACT: note_on channel=2 note=35 velocity=100 time=0
EXTRACT: note_off channel=4 note=64 velocity=80 time=0
EXTRACT: note_off channel=4 note=76 velocity=80 time=0
EXTRACT: note_on channel=4 note=59 velocity=100 time=0
EXTRACT: note_on channel=4 note=71 velocity=100 time=0
EXTRACT: note_on channel=3 note=63 velocity=100 time=0
EXTRACT: note_off channel=0 note=40 velocity=80 time=0.018750000000000003
EXTRACT: note_off channel=2 note=40 velocity=80 time=0
EXTRACT: note_off channel=0 note=59 velocity=80 time=0.0203125
EXTRACT: note_off channel=2 note=59 velocity=80 time=0
EXTRACT: note_off channel=3 note=64 velocity=80 time=0
EXTRACT: note_off channel=0 note=52 velocity=120 time=0.0203125
EXTRACT: note_off channel=0 note=56 velocity=80 time=0
EXTRACT: note_off channel=2 note=52 velocity=120 time=0
EXTRACT: note_off channel=2 note=56 velocity=80 time=0
EXTRACT: note_off channel=9 note=44 velocity=50 time=0.0421875
EXTRACT: note_on channel=9 note=82 velocity=50 time=0.05625
EXTRACT: note_on channel=9 note=44 velocity=60 time=0
EXTRACT: note_on channel=3 note=61 velocity=100 time=0
EXTRACT: note_off channel=3 note=63 velocity=80 time=0.040625
EXTRACT: note_off channel=9 note=44 velocity=50 time=0.0390625
EXTRACT: note_off channel=9 note=82 velocity=40 time=0
EXTRACT: note_on channel=9 note=35 velocity=120 time=0.078125
EXTRACT: note_on channel=9 note=36 velocity=120 time=0
EXTRACT: note_on channel=9 note=82 velocity=50 time=0
EXTRACT: note_on channel=9 note=44 velocity=60 time=0
EXTRACT: note_off channel=9 note=44 velocity=50 time=0.125
EXTRACT: note_off channel=9 note=82 velocity=40 time=0
EXTRACT: note_off channel=9 note=36 velocity=100 time=0
EXTRACT: note_off channel=9 note=35 velocity=100 time=0
EXTRACT: note_on channel=9 note=44 velocity=60 time=0.037500000000000006
EXTRACT: note_off channel=9 note=44 velocity=50 time=0.125
EXTRACT: note_off channel=0 note=54 velocity=80 time=0.037500000000000006
EXTRACT: note_off channel=2 note=54 velocity=80 time=0
EXTRACT: note_on channel=9 note=85 velocity=120 time=0.040625
EXTRACT: note_on channel=9 note=39 velocity=120 time=0
EXTRACT: note_on channel=9 note=54 velocity=100 time=0
EXTRACT: note_on channel=9 note=28 velocity=100 time=0
EXTRACT: note_on channel=9 note=44 velocity=60 time=0
EXTRACT: note_off channel=0 note=51 velocity=80 time=0
EXTRACT: note_on channel=0 note=51 velocity=100 time=0
EXTRACT: note_on channel=0 note=54 velocity=100 time=0
EXTRACT: note_off channel=2 note=51 velocity=80 time=0
EXTRACT: note_on channel=2 note=51 velocity=100 time=0
EXTRACT: note_on channel=2 note=54 velocity=100 time=0
EXTRACT: note_on channel=5 note=61 velocity=100 time=0
EXTRACT: note_off channel=9 note=44 velocity=50 time=0.125
EXTRACT: note_off channel=9 note=28 velocity=80 time=0
EXTRACT: note_off channel=9 note=54 velocity=80 time=0
EXTRACT: note_off channel=9 note=39 velocity=100 time=0
EXTRACT: note_off channel=9 note=85 velocity=100 time=0
EXTRACT: note_on channel=9 note=44 velocity=60 time=0.05625
EXTRACT: note_off channel=3 note=61 velocity=80 time=0.040625
EXTRACT: note_off channel=9 note=44 velocity=50 time=0.084375
EXTRACT: note_off channel=5 note=61 velocity=80 time=0.0171875
EXTRACT: note_on channel=9 note=44 velocity=60 time=0.060937500000000006
EXTRACT: note_on channel=5 note=59 velocity=100 time=0
EXTRACT: note_off channel=9 note=44 velocity=50 time=0.125
EXTRACT: note_on channel=9 note=44 velocity=60 time=0.037500000000000006
EXTRACT: note_off channel=9 note=44 velocity=50 time=0.125
EXTRACT: note_off channel=0 note=35 velocity=80 time=0.037500000000000006
EXTRACT: note_off channel=2 note=35 velocity=80 time=0
EXTRACT: note_on channel=9 note=35 velocity=120 time=0.040625
EXTRACT: note_on channel=9 note=36 velocity=120 time=0
EXTRACT: note_on channel=9 note=44 velocity=60 time=0
EXTRACT: note_off channel=0 note=47 velocity=120 time=0
EXTRACT: note_off channel=0 note=51 velocity=80 time=0
EXTRACT: note_on channel=0 note=49 velocity=120 time=0
EXTRACT: note_on channel=0 note=56 velocity=100 time=0
EXTRACT: note_on channel=0 note=52 velocity=100 time=0
EXTRACT: note_on channel=0 note=37 velocity=100 time=0
EXTRACT: note_off channel=1 note=59 velocity=80 time=0
EXTRACT: note_off channel=1 note=47 velocity=80 time=0
EXTRACT: note_on channel=1 note=49 velocity=100 time=0
EXTRACT: note_on channel=1 note=61 velocity=100 time=0
EXTRACT: note_off channel=2 note=47 velocity=120 time=0
EXTRACT: note_off channel=2 note=51 velocity=80 time=0
EXTRACT: note_on channel=2 note=49 velocity=120 time=0
EXTRACT: note_on channel=2 note=56 velocity=100 time=0
EXTRACT: note_on channel=2 note=52 velocity=100 time=0
EXTRACT: note_on channel=2 note=37 velocity=100 time=0
EXTRACT: note_off channel=4 note=71 velocity=80 time=0
EXTRACT: note_off channel=4 note=59 velocity=80 time=0
EXTRACT: note_on channel=4 note=61 velocity=100 time=0
EXTRACT: note_on channel=4 note=73 velocity=100 time=0
EXTRACT: note_on channel=3 note=63 velocity=100 time=0
EXTRACT: note_off channel=0 note=54 velocity=80 time=0.018750000000000003
EXTRACT: note_off channel=2 note=54 velocity=80 time=0
EXTRACT: note_off channel=9 note=44 velocity=50 time=0.009375000000000001
EXTRACT: note_off channel=9 note=36 velocity=100 time=0
EXTRACT: note_off channel=9 note=35 velocity=100 time=0
EXTRACT: note_on channel=9 note=44 velocity=60 time=0.05625
EXTRACT: note_off channel=9 note=44 velocity=50 time=0.125
EXTRACT: note_on channel=9 note=82 velocity=50 time=0.078125
EXTRACT: note_on channel=9 note=44 velocity=60 time=0
EXTRACT: note_on channel=3 note=64 velocity=100 time=0
EXTRACT: note_off channel=3 note=63 velocity=80 time=0.0203125
EXTRACT: note_off channel=9 note=44 velocity=50 time=0.1046875
EXTRACT: note_off channel=9 note=82 velocity=40 time=0
EXTRACT: note_on channel=9 note=35 velocity=120 time=0.028125
EXTRACT: note_on channel=9 note=36 velocity=120 time=0
EXTRACT: note_on channel=9 note=44 velocity=60 time=0
EXTRACT: note_off channel=9 note=44 velocity=50 time=0.125
EXTRACT: note_off channel=9 note=36 velocity=100 time=0
EXTRACT: note_off channel=9 note=35 velocity=100 time=0
EXTRACT: note_off channel=3 note=64 velocity=80 time=0.0578125
EXTRACT: note_on channel=9 note=85 velocity=120 time=0.0203125
EXTRACT: note_on channel=9 note=39 velocity=120 time=0
EXTRACT: note_on channel=9 note=82 velocity=50 time=0
EXTRACT: note_on channel=9 note=54 velocity=100 time=0
EXTRACT: note_on channel=9 note=28 velocity=100 time=0
EXTRACT: note_on channel=9 note=44 velocity=60 time=0
EXTRACT: note_off channel=0 note=56 velocity=80 time=0
EXTRACT: note_off channel=0 note=52 velocity=80 time=0
EXTRACT: note_on channel=0 note=56 velocity=100 time=0
EXTRACT: note_on channel=0 note=52 velocity=100 time=0
EXTRACT: note_off channel=2 note=56 velocity=80 time=0
EXTRACT: note_off channel=2 note=52 velocity=80 time=0
EXTRACT: note_on channel=2 note=56 velocity=100 time=0
EXTRACT: note_on channel=2 note=52 velocity=100 time=0
EXTRACT: note_on channel=3 note=64 velocity=100 time=0
EXTRACT: note_on channel=5 note=56 velocity=100 time=0
EXTRACT: note_off channel=5 note=59 velocity=80 time=0.0203125
EXTRACT: note_off channel=9 note=44 velocity=50 time=0.1046875
EXTRACT: note_off channel=9 note=28 velocity=80 time=0
EXTRACT: note_off channel=9 note=54 velocity=80 time=0
EXTRACT: note_off channel=9 note=82 velocity=40 time=0
EXTRACT: note_off channel=9 note=39 velocity=100 time=0
EXTRACT: note_off channel=9 note=85 velocity=100 time=0
EXTRACT: note_on channel=9 note=44 velocity=60 time=0.0203125
EXTRACT: note_off channel=9 note=44 velocity=50 time=0.125
EXTRACT: note_on channel=9 note=44 velocity=60 time=0.078125
EXTRACT: note_on channel=3 note=59 velocity=100 time=0
EXTRACT: note_on channel=5 note=54 velocity=100 time=0
EXTRACT: note_off channel=3 note=64 velocity=80 time=0.0203125
EXTRACT: note_off channel=5 note=56 velocity=80 time=0.0203125
EXTRACT: note_off channel=9 note=44 velocity=50 time=0.009375000000000001
EXTRACT: note_on channel=9 note=82 velocity=50 time=0.037500000000000006
EXTRACT: note_on channel=9 note=44 velocity=60 time=0
EXTRACT: note_off channel=9 note=44 velocity=50 time=0.125
EXTRACT: note_off channel=9 note=82 velocity=40 time=0
EXTRACT: note_on channel=9 note=44 velocity=60 time=0.078125
EXTRACT: note_off channel=0 note=52 velocity=80 time=0
EXTRACT: note_off channel=0 note=49 velocity=120 time=0
EXTRACT: note_off channel=0 note=37 velocity=80 time=0
EXTRACT: note_on channel=0 note=45 velocity=120 time=0
EXTRACT: note_on channel=0 note=49 velocity=100 time=0
EXTRACT: note_on channel=0 note=52 velocity=100 time=0
EXTRACT: note_on channel=0 note=33 velocity=100 time=0
EXTRACT: note_off channel=1 note=61 velocity=80 time=0
EXTRACT: note_off channel=1 note=49 velocity=80 time=0
EXTRACT: note_on channel=1 note=69 velocity=100 time=0
EXTRACT: note_on channel=1 note=57 velocity=100 time=0
EXTRACT: note_on channel=1 note=45 velocity=100 time=0
EXTRACT: note_off channel=2 note=52 velocity=80 time=0
EXTRACT: note_off channel=2 note=49 velocity=120 time=0
EXTRACT: note_off channel=2 note=37 velocity=80 time=0
EXTRACT: note_on channel=2 note=45 velocity=120 time=0
EXTRACT: note_on channel=2 note=49 velocity=100 time=0
EXTRACT: note_on channel=2 note=52 velocity=100 time=0
EXTRACT: note_on channel=2 note=33 velocity=100 time=0
EXTRACT: note_off channel=4 note=73 velocity=80 time=0
EXTRACT: note_off channel=4 note=61 velocity=80 time=0
EXTRACT: note_on channel=4 note=81 velocity=100 time=0
EXTRACT: note_on channel=4 note=69 velocity=100 time=0
EXTRACT: note_on channel=4 note=57 velocity=100 time=0
EXTRACT: note_on channel=3 note=63 velocity=100 time=0
EXTRACT: note_off channel=0 note=56 velocity=80 time=0.018750000000000003
EXTRACT: note_off channel=2 note=56 velocity=80 time=0
EXTRACT: note_off channel=3 note=59 velocity=80 time=0.0015625
EXTRACT: note_off channel=9 note=44 velocity=50 time=0.03125
EXTRACT: note_on channel=9 note=82 velocity=50 time=0.05625
EXTRACT: note_on channel=9 note=44 velocity=60 time=0
EXTRACT: note_off channel=9 note=44 velocity=50 time=0.125
EXTRACT: note_off channel=9 note=82 velocity=40 time=0
EXTRACT: note_on channel=9 note=35 velocity=120 time=0.078125
EXTRACT: note_on channel=9 note=36 velocity=120 time=0
EXTRACT: note_on channel=9 note=82 velocity=50 time=0
EXTRACT: note_on channel=9 note=44 velocity=60 time=0
EXTRACT: note_on channel=1 note=68 velocity=100 time=0
EXTRACT: note_on channel=4 note=80 velocity=100 time=0
EXTRACT: note_off channel=1 note=69 velocity=80 time=0.12187500000000001
EXTRACT: note_off channel=4 note=81 velocity=80 time=0
EXTRACT: note_off channel=9 note=44 velocity=50 time=0.003125
EXTRACT: note_off channel=9 note=82 velocity=40 time=0
EXTRACT: note_off channel=9 note=36 velocity=100 time=0
EXTRACT: note_off channel=9 note=35 velocity=100 time=0
EXTRACT: note_on channel=9 note=44 velocity=60 time=0.037500000000000006
EXTRACT: note_off channel=9 note=44 velocity=50 time=0.125
EXTRACT: note_on channel=9 note=85 velocity=120 time=0.078125
EXTRACT: note_on channel=9 note=39 velocity=120 time=0
EXTRACT: note_on channel=9 note=54 velocity=100 time=0
EXTRACT: note_on channel=9 note=28 velocity=100 time=0
EXTRACT: note_on channel=9 note=44 velocity=60 time=0
EXTRACT: note_off channel=0 note=49 velocity=80 time=0
EXTRACT: note_off channel=0 note=52 velocity=80 time=0
EXTRACT: note_on channel=0 note=49 velocity=100 time=0
EXTRACT: note_on channel=0 note=52 velocity=100 time=0
EXTRACT: note_on channel=1 note=66 velocity=100 time=0
EXTRACT: note_off channel=2 note=49 velocity=80 time=0
EXTRACT: note_off channel=2 note=52 velocity=80 time=0
EXTRACT: note_on channel=2 note=49 velocity=100 time=0
EXTRACT: note_on channel=2 note=52 velocity=100 time=0
EXTRACT: note_on channel=4 note=78 velocity=100 time=0
EXTRACT: note_on channel=3 note=64 velocity=100 time=0
EXTRACT: note_off channel=5 note=54 velocity=80 time=0.0203125
EXTRACT: note_off channel=3 note=63 velocity=80 time=0.0390625
EXTRACT: note_off channel=9 note=44 velocity=50 time=0.065625
EXTRACT: note_off channel=9 note=28 velocity=80 time=0
EXTRACT: note_off channel=9 note=54 velocity=80 time=0
EXTRACT: note_off channel=9 note=39 velocity=100 time=0
EXTRACT: note_off channel=9 note=85 velocity=100 time=0
EXTRACT: note_off channel=1 note=68 velocity=80 time=0.010937500000000001
EXTRACT: note_off channel=4 note=80 velocity=80 time=0
EXTRACT: note_on channel=9 note=44 velocity=60 time=0.040625
EXTRACT: note_off channel=9 note=44 velocity=50 time=0.125
EXTRACT: note_on channel=9 note=44 velocity=60 time=0.078125
EXTRACT: note_on channel=1 note=64 velocity=100 time=0
EXTRACT: note_on channel=4 note=76 velocity=100 time=0
EXTRACT: note_off channel=9 note=44 velocity=50 time=0.125
EXTRACT: note_off channel=1 note=66 velocity=80 time=0.0171875
EXTRACT: note_off channel=4 note=78 velocity=80 time=0
EXTRACT: note_on channel=9 note=44 velocity=60 time=0.0203125
EXTRACT: note_off channel=9 note=44 velocity=50 time=0.125
EXTRACT: note_off channel=1 note=64 velocity=80 time=0.0578125
EXTRACT: note_off channel=4 note=76 velocity=80 time=0
EXTRACT: note_on channel=9 note=35 velocity=120 time=0.0203125
EXTRACT: note_on channel=9 note=36 velocity=120 time=0
EXTRACT: note_on channel=9 note=44 velocity=60 time=0
EXTRACT: note_off channel=0 note=52 velocity=80 time=0
EXTRACT: note_off channel=0 note=33 velocity=80 time=0
EXTRACT: note_off channel=0 note=49 velocity=80 time=0
EXTRACT: note_on channel=0 note=42 velocity=100 time=0
EXTRACT: note_on channel=0 note=54 velocity=100 time=0
EXTRACT: note_on channel=0 note=57 velocity=100 time=0
EXTRACT: note_on channel=0 note=61 velocity=100 time=0
EXTRACT: note_off channel=1 note=57 velocity=80 time=0
EXTRACT: note_off channel=1 note=45 velocity=80 time=0
EXTRACT: note_on channel=1 note=42 velocity=100 time=0
EXTRACT: note_on channel=1 note=54 velocity=100 time=0
EXTRACT: note_off channel=2 note=52 velocity=80 time=0
EXTRACT: note_off channel=2 note=33 velocity=80 time=0
EXTRACT: note_off channel=2 note=49 velocity=80 time=0
EXTRACT: note_on channel=2 note=42 velocity=100 time=0
EXTRACT: note_on channel=2 note=54 velocity=100 time=0
EXTRACT: note_on channel=2 note=57 velocity=100 time=0
EXTRACT: note_on channel=2 note=61 velocity=100 time=0
EXTRACT: note_off channel=4 note=69 velocity=80 time=0
EXTRACT: note_off channel=4 note=57 velocity=80 time=0
EXTRACT: note_on channel=4 note=54 velocity=100 time=0
EXTRACT: note_on channel=4 note=66 velocity=100 time=0
EXTRACT: note_off channel=3 note=64 velocity=80 time=0
EXTRACT: note_off channel=0 note=45 velocity=120 time=0.018750000000000003
EXTRACT: note_off channel=2 note=45 velocity=120 time=0
EXTRACT: note_off channel=9 note=44 velocity=50 time=0.10625000000000001
EXTRACT: note_off channel=9 note=36 velocity=100 time=0
EXTRACT: note_off channel=9 note=35 velocity=100 time=0
EXTRACT: note_on channel=9 note=44 velocity=60 time=0.05625
EXTRACT: note_off channel=9 note=44 velocity=50 time=0.125
EXTRACT: note_on channel=9 note=82 velocity=50 time=0.078125
EXTRACT: note_on channel=9 note=44 velocity=60 time=0
EXTRACT: note_off channel=9 note=44 velocity=50 time=0.125
EXTRACT: note_off channel=9 note=82 velocity=40 time=0
EXTRACT: note_on channel=9 note=35 velocity=120 time=0.037500000000000006
EXTRACT: note_on channel=9 note=36 velocity=120 time=0
EXTRACT: note_on channel=9 note=44 velocity=60 time=0
EXTRACT: note_off channel=9 note=44 velocity=50 time=0.125
EXTRACT: note_off channel=9 note=36 velocity=100 time=0
EXTRACT: note_off channel=9 note=35 velocity=100 time=0
EXTRACT: note_on channel=9 note=85 velocity=120 time=0.078125
EXTRACT: note_on channel=9 note=39 velocity=120 time=0
EXTRACT: note_on channel=9 note=82 velocity=50 time=0
EXTRACT: note_on channel=9 note=54 velocity=100 time=0
EXTRACT: note_on channel=9 note=28 velocity=100 time=0
EXTRACT: note_on channel=9 note=44 velocity=60 time=0
EXTRACT: note_on channel=3 note=59 velocity=100 time=0
EXTRACT: note_off channel=9 note=44 velocity=50 time=0.125
EXTRACT: note_off channel=9 note=28 velocity=80 time=0
EXTRACT: note_off channel=9 note=54 velocity=80 time=0
EXTRACT: note_off channel=9 note=82 velocity=40 time=0
EXTRACT: note_off channel=9 note=39 velocity=100 time=0
EXTRACT: note_off channel=9 note=85 velocity=100 time=0
EXTRACT: note_on channel=9 note=44 velocity=60 time=0.03125
EXTRACT: note_off channel=9 note=44 velocity=50 time=0.125
EXTRACT: note_on channel=9 note=44 velocity=60 time=0.078125
EXTRACT: note_on channel=3 note=64 velocity=100 time=0
EXTRACT: note_off channel=3 note=59 velocity=80 time=0.040625
EXTRACT: note_off channel=9 note=44 velocity=50 time=0.004687500000000001
EXTRACT: note_on channel=9 note=82 velocity=50 time=0.037500000000000006
EXTRACT: note_on channel=9 note=44 velocity=60 time=0
EXTRACT: note_off channel=9 note=44 velocity=50 time=0.125
EXTRACT: note_off channel=9 note=82 velocity=40 time=0
EXTRACT: note_off channel=3 note=64 velocity=80 time=0.0578125
EXTRACT: note_on channel=9 note=44 velocity=60 time=0.0203125
EXTRACT: note_off channel=0 note=42 velocity=80 time=0
EXTRACT: note_off channel=0 note=57 velocity=80 time=0
EXTRACT: note_on channel=0 note=56 velocity=100 time=0
EXTRACT: note_on channel=0 note=59 velocity=100 time=0
EXTRACT: note_on channel=0 note=64 velocity=100 time=0
EXTRACT: note_on channel=0 note=44 velocity=100 time=0
EXTRACT: note_off channel=1 note=54 velocity=80 time=0
EXTRACT: note_off channel=1 note=42 velocity=80 time=0
EXTRACT: note_on channel=1 note=44 velocity=100 time=0
EXTRACT: note_on channel=1 note=56 velocity=100 time=0
EXTRACT: note_off channel=2 note=42 velocity=80 time=0
EXTRACT: note_off channel=2 note=57 velocity=80 time=0
EXTRACT: note_on channel=2 note=56 velocity=100 time=0
EXTRACT: note_on channel=2 note=59 velocity=100 time=0
EXTRACT: note_on channel=2 note=64 velocity=100 time=0
EXTRACT: note_on channel=2 note=44 velocity=100 time=0
EXTRACT: note_off channel=4 note=66 velocity=80 time=0
EXTRACT: note_off channel=4 note=54 velocity=80 time=0
EXTRACT: note_on channel=4 note=56 velocity=100 time=0
EXTRACT: note_on channel=4 note=68 velocity=100 time=0
EXTRACT: note_on channel=3 note=64 velocity=100 time=0
EXTRACT: note_off channel=0 note=61 velocity=80 time=0.018750000000000003
EXTRACT: note_off channel=2 note=61 velocity=80 time=0
EXTRACT: note_off channel=0 note=54 velocity=80 time=0.0203125
EXTRACT: note_off channel=2 note=54 velocity=80 time=0
EXTRACT: note_off channel=9 note=44 velocity=50 time=0.0140625
EXTRACT: note_on channel=9 note=82 velocity=50 time=0.05625
EXTRACT: note_on channel=9 note=44 velocity=60 time=0
EXTRACT: note_off channel=9 note=44 velocity=50 time=0.125
EXTRACT: note_off channel=9 note=82 velocity=40 time=0
EXTRACT: note_on channel=9 note=35 velocity=120 time=0.078125
EXTRACT: note_on channel=9 note=36 velocity=120 time=0
EXTRACT: note_on channel=9 note=82 velocity=50 time=0
EXTRACT: note_on channel=9 note=44 velocity=60 time=0
EXTRACT: note_off channel=9 note=44 velocity=50 time=0.125
EXTRACT: note_off channel=9 note=82 velocity=40 time=0
EXTRACT: note_off channel=9 note=36 velocity=100 time=0
EXTRACT: note_off channel=9 note=35 velocity=100 time=0
EXTRACT: note_on channel=9 note=44 velocity=60 time=0.037500000000000006
EXTRACT: note_off channel=9 note=44 velocity=50 time=0.125
EXTRACT: note_on channel=9 note=85 velocity=120 time=0.078125
EXTRACT: note_on channel=9 note=39 velocity=120 time=0
EXTRACT: note_on channel=9 note=54 velocity=100 time=0
EXTRACT: note_on channel=9 note=28 velocity=100 time=0
EXTRACT: note_on channel=9 note=44 velocity=60 time=0
EXTRACT: note_on channel=3 note=68 velocity=100 time=0
EXTRACT: note_off channel=3 note=64 velocity=80 time=0.07968750000000001
EXTRACT: note_off channel=9 note=44 velocity=50 time=0.045312500000000006
EXTRACT: note_off channel=9 note=28 velocity=80 time=0
EXTRACT: note_off channel=9 note=54 velocity=80 time=0
EXTRACT: note_off channel=9 note=39 velocity=100 time=0
EXTRACT: note_off channel=9 note=85 velocity=100 time=0
EXTRACT: note_on channel=9 note=44 velocity=60 time=0.040625
EXTRACT: note_off channel=9 note=44 velocity=50 time=0.125
EXTRACT: note_on channel=9 note=44 velocity=60 time=0.078125
EXTRACT: note_off channel=3 note=68 velocity=80 time=0
EXTRACT: note_on channel=3 note=66 velocity=100 time=0
EXTRACT: note_off channel=9 note=44 velocity=50 time=0.125
EXTRACT: note_on channel=9 note=44 velocity=60 time=0.00625
EXTRACT: note_on channel=3 note=64 velocity=100 time=0
EXTRACT: note_off channel=3 note=66 velocity=80 time=0.08125
EXTRACT: note_off channel=9 note=44 velocity=50 time=0.043750000000000004
EXTRACT: note_on channel=9 note=35 velocity=120 time=0.078125
EXTRACT: note_on channel=9 note=36 velocity=120 time=0
EXTRACT: note_on channel=9 note=44 velocity=60 time=0
EXTRACT: note_off channel=0 note=56 velocity=80 time=0
EXTRACT: note_off channel=0 note=59 velocity=80 time=0
EXTRACT: note_off channel=0 note=64 velocity=80 time=0
EXTRACT: note_off channel=0 note=44 velocity=80 time=0
EXTRACT: note_on channel=0 note=45 velocity=100 time=0
EXTRACT: note_on channel=0 note=57 velocity=100 time=0
EXTRACT: note_on channel=0 note=61 velocity=100 time=0
EXTRACT: note_on channel=0 note=64 velocity=100 time=0
EXTRACT: note_off channel=1 note=56 velocity=80 time=0
EXTRACT: note_off channel=1 note=44 velocity=80 time=0
EXTRACT: note_on channel=1 note=45 velocity=100 time=0
EXTRACT: note_on channel=1 note=52 velocity=100 time=0
EXTRACT: note_on channel=1 note=57 velocity=100 time=0
EXTRACT: note_off channel=2 note=56 velocity=80 time=0
EXTRACT: note_off channel=2 note=59 velocity=80 time=0
EXTRACT: note_off channel=2 note=64 velocity=80 time=0
EXTRACT: note_off channel=2 note=44 velocity=80 time=0
EXTRACT: note_on channel=2 note=45 velocity=100 time=0
EXTRACT: note_on channel=2 note=57 velocity=100 time=0
EXTRACT: note_on channel=2 note=61 velocity=100 time=0
EXTRACT: note_on channel=2 note=64 velocity=100 time=0
EXTRACT: note_off channel=4 note=68 velocity=80 time=0
EXTRACT: note_off channel=4 note=56 velocity=80 time=0
EXTRACT: note_on channel=4 note=57 velocity=100 time=0
EXTRACT: note_on channel=4 note=64 velocity=100 time=0
EXTRACT: note_on channel=4 note=69 velocity=100 time=0
EXTRACT: note_on channel=3 note=66 velocity=100 time=0
EXTRACT: note_off channel=9 note=44 velocity=50 time=0.125
EXTRACT: note_off channel=9 note=36 velocity=100 time=0
EXTRACT: note_off channel=9 note=35 velocity=100 time=0
EXTRACT: note_on channel=9 note=44 velocity=60 time=0.05625
EXTRACT: note_off channel=3 note=64 velocity=80 time=0.0203125
EXTRACT: note_off channel=9 note=44 velocity=50 time=0.1046875
EXTRACT: note_on channel=9 note=82 velocity=50 time=0.078125
EXTRACT: note_on channel=9 note=44 velocity=60 time=0
EXTRACT: note_off channel=9 note=44 velocity=50 time=0.125
EXTRACT: note_off channel=9 note=82 velocity=40 time=0
EXTRACT: note_on channel=9 note=35 velocity=120 time=0.037500000000000006
EXTRACT: note_on channel=9 note=36 velocity=120 time=0
EXTRACT: note_on channel=9 note=44 velocity=60 time=0
EXTRACT: note_off channel=9 note=44 velocity=50 time=0.125
EXTRACT: note_off channel=9 note=36 velocity=100 time=0
EXTRACT: note_off channel=9 note=35 velocity=100 time=0
EXTRACT: note_on channel=9 note=85 velocity=120 time=0.078125
EXTRACT: note_on channel=9 note=39 velocity=120 time=0
EXTRACT: note_on channel=9 note=82 velocity=50 time=0
EXTRACT: note_on channel=9 note=54 velocity=100 time=0
EXTRACT: note_on channel=9 note=28 velocity=100 time=0
EXTRACT: note_on channel=9 note=44 velocity=60 time=0
EXTRACT: note_on channel=5 note=54 velocity=100 time=0
EXTRACT: note_on channel=5 note=66 velocity=100 time=0
EXTRACT: note_on channel=5 note=57 velocity=100 time=0
EXTRACT: note_on channel=5 note=61 velocity=100 time=0
EXTRACT: note_off channel=9 note=44 velocity=50 time=0.125
EXTRACT: note_off channel=9 note=28 velocity=80 time=0
EXTRACT: note_off channel=9 note=54 velocity=80 time=0
EXTRACT: note_off channel=9 note=82 velocity=40 time=0
EXTRACT: note_off channel=9 note=39 velocity=100 time=0
EXTRACT: note_off channel=9 note=85 velocity=100 time=0
EXTRACT: note_on channel=9 note=44 velocity=60 time=0.05625
EXTRACT: note_off channel=9 note=44 velocity=50 time=0.065625
EXTRACT: note_off channel=5 note=61 velocity=80 time=0.0171875
EXTRACT: note_off channel=5 note=57 velocity=80 time=0
EXTRACT: note_off channel=5 note=66 velocity=80 time=0
EXTRACT: note_off channel=5 note=54 velocity=80 time=0
EXTRACT: note_on channel=9 note=44 velocity=60 time=0.060937500000000006
EXTRACT: note_on channel=5 note=54 velocity=100 time=0
EXTRACT: note_on channel=5 note=66 velocity=100 time=0
EXTRACT: note_on channel=5 note=57 velocity=100 time=0
EXTRACT: note_on channel=5 note=61 velocity=100 time=0
EXTRACT: note_off channel=9 note=44 velocity=50 time=0.125
EXTRACT: note_on channel=9 note=82 velocity=50 time=0.037500000000000006
EXTRACT: note_on channel=9 note=44 velocity=60 time=0
EXTRACT: note_off channel=9 note=44 velocity=50 time=0.12187500000000001
EXTRACT: note_off channel=9 note=82 velocity=40 time=0
EXTRACT: note_off channel=5 note=61 velocity=80 time=0.037500000000000006
EXTRACT: note_off channel=5 note=57 velocity=80 time=0
EXTRACT: note_off channel=5 note=66 velocity=80 time=0
EXTRACT: note_off channel=5 note=54 velocity=80 time=0.0203125
EXTRACT: note_on channel=9 note=44 velocity=60 time=0.0203125
EXTRACT: note_on channel=5 note=54 velocity=100 time=0
EXTRACT: note_on channel=5 note=66 velocity=100 time=0
EXTRACT: note_on channel=5 note=57 velocity=100 time=0
EXTRACT: note_on channel=5 note=61 velocity=100 time=0
EXTRACT: note_off channel=9 note=44 velocity=50 time=0.125
EXTRACT: note_on channel=9 note=82 velocity=50 time=0.009375000000000001
EXTRACT: note_on channel=9 note=44 velocity=60 time=0
EXTRACT: note_off channel=9 note=44 velocity=50 time=0.125
EXTRACT: note_off channel=9 note=82 velocity=40 time=0
EXTRACT: note_on channel=9 note=35 velocity=120 time=0.078125
EXTRACT: note_on channel=9 note=36 velocity=120 time=0
EXTRACT: note_on channel=9 note=82 velocity=50 time=0
EXTRACT: note_on channel=9 note=44 velocity=60 time=0
EXTRACT: note_off channel=9 note=44 velocity=50 time=0.125
EXTRACT: note_off channel=9 note=82 velocity=40 time=0
EXTRACT: note_off channel=9 note=36 velocity=100 time=0
EXTRACT: note_off channel=9 note=35 velocity=100 time=0
EXTRACT: note_on channel=9 note=44 velocity=60 time=0.037500000000000006
EXTRACT: note_off channel=5 note=61 velocity=80 time=0.1015625
EXTRACT: note_off channel=9 note=44 velocity=50 time=0.0234375
EXTRACT: note_off channel=5 note=57 velocity=80 time=0.0171875
EXTRACT: note_on channel=9 note=85 velocity=120 time=0.060937500000000006
EXTRACT: note_on channel=9 note=39 velocity=120 time=0
EXTRACT: note_on channel=9 note=54 velocity=100 time=0
EXTRACT: note_on channel=9 note=28 velocity=100 time=0
EXTRACT: note_on channel=9 note=44 velocity=60 time=0
EXTRACT: note_off channel=5 note=66 velocity=80 time=0
EXTRACT: note_on channel=5 note=68 velocity=100 time=0
EXTRACT: note_on channel=5 note=56 velocity=100 time=0
EXTRACT: note_on channel=5 note=59 velocity=100 time=0
EXTRACT: note_on channel=5 note=63 velocity=100 time=0
EXTRACT: note_off channel=5 note=54 velocity=80 time=0.018750000000000003
EXTRACT: note_off channel=3 note=66 velocity=80 time=0.1015625
EXTRACT: note_off channel=9 note=44 velocity=50 time=0.004687500000000001
EXTRACT: note_off channel=9 note=28 velocity=80 time=0
EXTRACT: note_off channel=9 note=54 velocity=80 time=0
EXTRACT: note_off channel=9 note=39 velocity=100 time=0
EXTRACT: note_off channel=9 note=85 velocity=100 time=0
EXTRACT: note_on channel=9 note=44 velocity=60 time=0.035937500000000004
EXTRACT: note_off channel=5 note=56 velocity=80 time=0.1015625
EXTRACT: note_off channel=5 note=59 velocity=80 time=0
EXTRACT: note_off channel=9 note=44 velocity=50 time=0.0234375
EXTRACT: note_off channel=5 note=63 velocity=80 time=0.037500000000000006
EXTRACT: note_on channel=9 note=44 velocity=60 time=0.040625
EXTRACT: note_off channel=5 note=68 velocity=80 time=0
EXTRACT: note_on channel=5 note=52 velocity=100 time=0
EXTRACT: note_on channel=5 note=64 velocity=100 time=0
EXTRACT: note_on channel=5 note=56 velocity=100 time=0
EXTRACT: note_on channel=5 note=59 velocity=100 time=0
EXTRACT: note_off channel=9 note=44 velocity=50 time=0.0125
EXTRACT: note_on channel=9 note=44 velocity=60 time=0.037500000000000006
EXTRACT: note_off channel=9 note=44 velocity=50 time=0.125
EXTRACT: note_off channel=1 note=57 velocity=80 time=0.0171875
EXTRACT: note_off channel=4 note=69 velocity=80 time=0
EXTRACT: note_off channel=1 note=52 velocity=80 time=0.0203125
EXTRACT: note_off channel=1 note=45 velocity=80 time=0
EXTRACT: note_off channel=4 note=64 velocity=80 time=0
EXTRACT: note_off channel=4 note=57 velocity=80 time=0
EXTRACT: note_on channel=9 note=35 velocity=120 time=0.040625
EXTRACT: note_on channel=9 note=36 velocity=120 time=0
EXTRACT: note_on channel=9 note=44 velocity=60 time=0
EXTRACT: note_off channel=0 note=64 velocity=80 time=0
EXTRACT: note_off channel=0 note=61 velocity=80 time=0
EXTRACT: note_off channel=0 note=57 velocity=80 time=0
EXTRACT: note_off channel=0 note=45 velocity=80 time=0
EXTRACT: note_on channel=0 note=64 velocity=100 time=0
EXTRACT: note_on channel=0 note=45 velocity=100 time=0
EXTRACT: note_on channel=0 note=57 velocity=100 time=0
EXTRACT: note_on channel=0 note=61 velocity=100 time=0
EXTRACT: note_on channel=1 note=45 velocity=100 time=0
EXTRACT: note_on channel=1 note=57 velocity=100 time=0
EXTRACT: note_off channel=2 note=64 velocity=80 time=0
EXTRACT: note_off channel=2 note=61 velocity=80 time=0
EXTRACT: note_off channel=2 note=57 velocity=80 time=0
EXTRACT: note_off channel=2 note=45 velocity=80 time=0
EXTRACT: note_on channel=2 note=64 velocity=100 time=0
EXTRACT: note_on channel=2 note=45 velocity=100 time=0
EXTRACT: note_on channel=2 note=57 velocity=100 time=0
EXTRACT: note_on channel=2 note=61 velocity=100 time=0
EXTRACT: note_on channel=4 note=57 velocity=100 time=0
EXTRACT: note_on channel=4 note=69 velocity=100 time=0
EXTRACT: note_on channel=3 note=61 velocity=100 time=0
EXTRACT: note_off channel=5 note=59 velocity=80 time=0.0203125
EXTRACT: note_off channel=5 note=56 velocity=80 time=0.018750000000000003
EXTRACT: note_off channel=9 note=44 velocity=50 time=0.0859375
EXTRACT: note_off channel=9 note=36 velocity=100 time=0
EXTRACT: note_off channel=9 note=35 velocity=100 time=0
EXTRACT: note_on channel=9 note=44 velocity=60 time=0.045312500000000006
EXTRACT: note_off channel=9 note=44 velocity=50 time=0.125
EXTRACT: note_on channel=9 note=82 velocity=50 time=0.078125
EXTRACT: note_on channel=9 note=44 velocity=60 time=0
EXTRACT: note_on channel=3 note=63 velocity=100 time=0
EXTRACT: note_off channel=3 note=61 velocity=80 time=0.003125
EXTRACT: note_off channel=9 note=44 velocity=50 time=0.003125
EXTRACT: note_off channel=9 note=82 velocity=40 time=0
EXTRACT: note_on channel=9 note=35 velocity=120 time=0.037500000000000006
EXTRACT: note_on channel=9 note=36 velocity=120 time=0
EXTRACT: note_on channel=9 note=44 velocity=60 time=0
EXTRACT: note_off channel=9 note=44 velocity=50 time=0.125
EXTRACT: note_off channel=9 note=36 velocity=100 time=0
EXTRACT: note_off channel=9 note=35 velocity=100 time=0
EXTRACT: note_on channel=9 note=85 velocity=120 time=0.078125
EXTRACT: note_on channel=9 note=39 velocity=120 time=0
EXTRACT: note_on channel=9 note=82 velocity=50 time=0
EXTRACT: note_on channel=9 note=54 velocity=100 time=0
EXTRACT: note_on channel=9 note=28 velocity=100 time=0
EXTRACT: note_on channel=9 note=44 velocity=60 time=0
EXTRACT: note_on channel=3 note=64 velocity=100 time=0
EXTRACT: note_off channel=3 note=63 velocity=80 time=0.0203125
EXTRACT: note_off channel=5 note=64 velocity=80 time=0
EXTRACT: note_off channel=5 note=52 velocity=80 time=0
EXTRACT: note_off channel=9 note=44 velocity=50 time=0.1046875
EXTRACT: note_off channel=9 note=28 velocity=80 time=0
EXTRACT: note_off channel=9 note=54 velocity=80 time=0
EXTRACT: note_off channel=9 note=82 velocity=40 time=0
EXTRACT: note_off channel=9 note=39 velocity=100 time=0
EXTRACT: note_off channel=9 note=85 velocity=100 time=0
EXTRACT: note_on channel=9 note=44 velocity=60 time=0.0125
EXTRACT: note_off channel=3 note=64 velocity=80 time=0.12187500000000001
EXTRACT: note_off channel=9 note=44 velocity=50 time=0.003125
EXTRACT: note_on channel=9 note=44 velocity=60 time=0.078125
EXTRACT: note_on channel=3 note=64 velocity=100 time=0
EXTRACT: note_off channel=9 note=44 velocity=50 time=0.004687500000000001
EXTRACT: note_on channel=9 note=82 velocity=50 time=0.037500000000000006
EXTRACT: note_on channel=9 note=44 velocity=60 time=0
EXTRACT: note_off channel=9 note=44 velocity=50 time=0.125
EXTRACT: note_off channel=9 note=82 velocity=40 time=0
EXTRACT: note_on channel=9 note=44 velocity=60 time=0.078125
EXTRACT: note_off channel=0 note=61 velocity=80 time=0
EXTRACT: note_off channel=0 note=57 velocity=80 time=0
EXTRACT: note_off channel=0 note=45 velocity=80 time=0
EXTRACT: note_off channel=0 note=64 velocity=80 time=0
EXTRACT: note_on channel=0 note=56 velocity=100 time=0
EXTRACT: note_on channel=0 note=59 velocity=100 time=0
EXTRACT: note_on channel=0 note=64 velocity=100 time=0
EXTRACT: note_on channel=0 note=44 velocity=100 time=0
EXTRACT: note_off channel=1 note=57 velocity=80 time=0
EXTRACT: note_off channel=1 note=45 velocity=80 time=0
EXTRACT: note_on channel=1 note=44 velocity=100 time=0
EXTRACT: note_on channel=1 note=56 velocity=100 time=0
EXTRACT: note_off channel=2 note=61 velocity=80 time=0
EXTRACT: note_off channel=2 note=57 velocity=80 time=0
EXTRACT: note_off channel=2 note=45 velocity=80 time=0
EXTRACT: note_off channel=2 note=64 velocity=80 time=0
EXTRACT: note_on channel=2 note=56 velocity=100 time=0
EXTRACT: note_on channel=2 note=59 velocity=100 time=0
EXTRACT: note_on channel=2 note=64 velocity=100 time=0
EXTRACT: note_on channel=2 note=44 velocity=100 time=0
EXTRACT: note_off channel=4 note=69 velocity=80 time=0
EXTRACT: note_off channel=4 note=57 velocity=80 time=0
EXTRACT: note_on channel=4 note=56 velocity=100 time=0
EXTRACT: note_on channel=4 note=68 velocity=100 time=0
EXTRACT: note_off channel=9 note=44 velocity=50 time=0.125
EXTRACT: note_on channel=9 note=82 velocity=50 time=0.05625
EXTRACT: note_on channel=9 note=44 velocity=60 time=0
EXTRACT: note_off channel=9 note=44 velocity=50 time=0.125
EXTRACT: note_off channel=9 note=82 velocity=40 time=0
EXTRACT: note_on channel=9 note=35 velocity=120 time=0.078125
EXTRACT: note_on channel=9 note=36 velocity=120 time=0
EXTRACT: note_on channel=9 note=82 velocity=50 time=0
EXTRACT: note_on channel=9 note=44 velocity=60 time=0
EXTRACT: note_off channel=9 note=44 velocity=50 time=0.125
EXTRACT: note_off channel=9 note=82 velocity=40 time=0
EXTRACT: note_off channel=9 note=36 velocity=100 time=0
EXTRACT: note_off channel=9 note=35 velocity=100 time=0
EXTRACT: note_on channel=9 note=44 velocity=60 time=0.037500000000000006
EXTRACT: note_off channel=9 note=44 velocity=50 time=0.125
EXTRACT: note_on channel=9 note=85 velocity=120 time=0.078125
EXTRACT: note_on channel=9 note=39 velocity=120 time=0
EXTRACT: note_on channel=9 note=54 velocity=100 time=0
EXTRACT: note_on channel=9 note=28 velocity=100 time=0
EXTRACT: note_on channel=9 note=44 velocity=60 time=0
EXTRACT: note_on channel=3 note=59 velocity=100 time=0
EXTRACT: note_off channel=3 note=64 velocity=80 time=0.1203125
EXTRACT: note_off channel=9 note=44 velocity=50 time=0.004687500000000001
EXTRACT: note_off channel=9 note=28 velocity=80 time=0
EXTRACT: note_off channel=9 note=54 velocity=80 time=0
EXTRACT: note_off channel=9 note=39 velocity=100 time=0
EXTRACT: note_off channel=9 note=85 velocity=100 time=0
EXTRACT: note_on channel=9 note=44 velocity=60 time=0.05625
EXTRACT: note_off channel=9 note=44 velocity=50 time=0.025
EXTRACT: note_off channel=3 note=59 velocity=80 time=0.0578125
EXTRACT: note_on channel=9 note=44 velocity=60 time=0.0203125
EXTRACT: note_on channel=3 note=57 velocity=100 time=0
EXTRACT: note_off channel=9 note=44 velocity=50 time=0.125
EXTRACT: note_on channel=9 note=44 velocity=60 time=0.037500000000000006
EXTRACT: note_off channel=9 note=44 velocity=50 time=0.09062500000000001
EXTRACT: note_on channel=9 note=35 velocity=120 time=0.078125
EXTRACT: note_on channel=9 note=36 velocity=120 time=0
EXTRACT: note_on channel=9 note=44 velocity=60 time=0
EXTRACT: note_off channel=0 note=44 velocity=80 time=0
EXTRACT: note_off channel=0 note=64 velocity=80 time=0
EXTRACT: note_off channel=0 note=59 velocity=80 time=0
EXTRACT: note_off channel=0 note=56 velocity=80 time=0
EXTRACT: note_on channel=0 note=38 velocity=100 time=0
EXTRACT: note_on channel=0 note=50 velocity=100 time=0
EXTRACT: note_on channel=0 note=54 velocity=100 time=0
EXTRACT: note_on channel=0 note=57 velocity=100 time=0
EXTRACT: note_off channel=1 note=56 velocity=80 time=0
EXTRACT: note_off channel=1 note=44 velocity=80 time=0
EXTRACT: note_on channel=1 note=50 velocity=100 time=0
EXTRACT: note_on channel=1 note=57 velocity=100 time=0
EXTRACT: note_on channel=1 note=54 velocity=100 time=0
EXTRACT: note_off channel=2 note=44 velocity=80 time=0
EXTRACT: note_off channel=2 note=64 velocity=80 time=0
EXTRACT: note_off channel=2 note=59 velocity=80 time=0
EXTRACT: note_off channel=2 note=56 velocity=80 time=0
EXTRACT: note_on channel=2 note=38 velocity=100 time=0
EXTRACT: note_on channel=2 note=50 velocity=100 time=0
EXTRACT: note_on channel=2 note=54 velocity=100 time=0
EXTRACT: note_on channel=2 note=57 velocity=100 time=0
EXTRACT: note_off channel=4 note=68 velocity=80 time=0
EXTRACT: note_off channel=4 note=56 velocity=80 time=0
EXTRACT: note_on channel=4 note=62 velocity=100 time=0
EXTRACT: note_on channel=4 note=69 velocity=100 time=0
EXTRACT: note_on channel=4 note=66 velocity=100 time=0
EXTRACT: note_off channel=9 note=44 velocity=50 time=0.125
EXTRACT: note_off channel=9 note=36 velocity=100 time=0
EXTRACT: note_off channel=9 note=35 velocity=100 time=0
EXTRACT: note_on channel=9 note=44 velocity=60 time=0.05625
EXTRACT: note_off channel=9 note=44 velocity=50 time=0.125
EXTRACT: note_on channel=9 note=82 velocity=50 time=0.078125
EXTRACT: note_on channel=9 note=44 velocity=60 time=0
EXTRACT: note_off channel=9 note=44 velocity=50 time=0.125
EXTRACT: note_off channel=9 note=82 velocity=40 time=0
EXTRACT: note_on channel=9 note=35 velocity=120 time=0.037500000000000006
EXTRACT: note_on channel=9 note=36 velocity=120 time=0
EXTRACT: note_on channel=9 note=44 velocity=60 time=0
EXTRACT: note_off channel=9 note=44 velocity=50 time=0.125
EXTRACT: note_off channel=9 note=36 velocity=100 time=0
EXTRACT: note_off channel=9 note=35 velocity=100 time=0
EXTRACT: note_on channel=9 note=85 velocity=120 time=0.078125
EXTRACT: note_on channel=9 note=39 velocity=120 time=0
EXTRACT: note_on channel=9 note=82 velocity=50 time=0
EXTRACT: note_on channel=9 note=54 velocity=100 time=0
EXTRACT: note_on channel=9 note=28 velocity=100 time=0
EXTRACT: note_on channel=9 note=44 velocity=60 time=0
EXTRACT: note_off channel=3 note=57 velocity=80 time=0.0390625
EXTRACT: note_off channel=9 note=44 velocity=50 time=0.0859375
EXTRACT: note_off channel=9 note=28 velocity=80 time=0
EXTRACT: note_off channel=9 note=54 velocity=80 time=0
EXTRACT: note_off channel=9 note=82 velocity=40 time=0
EXTRACT: note_off channel=9 note=39 velocity=100 time=0
EXTRACT: note_off channel=9 note=85 velocity=100 time=0
EXTRACT: note_on channel=9 note=44 velocity=60 time=0.05625
EXTRACT: note_off channel=9 note=44 velocity=50 time=0.125
EXTRACT: note_on channel=9 note=44 velocity=60 time=0.078125
EXTRACT: note_off channel=9 note=44 velocity=50 time=0.125
EXTRACT: note_on channel=9 note=82 velocity=50 time=0.037500000000000006
EXTRACT: note_on channel=9 note=44 velocity=60 time=0
EXTRACT: note_off channel=9 note=44 velocity=50 time=0.125
EXTRACT: note_off channel=9 note=82 velocity=40 time=0
EXTRACT: note_on channel=9 note=44 velocity=60 time=0.078125
EXTRACT: note_off channel=9 note=44 velocity=50 time=0.125
EXTRACT: note_on channel=9 note=82 velocity=50 time=0.05625
EXTRACT: note_on channel=9 note=44 velocity=60 time=0
EXTRACT: note_off channel=9 note=44 velocity=50 time=0.125
EXTRACT: note_off channel=9 note=82 velocity=40 time=0
EXTRACT: note_on channel=9 note=35 velocity=120 time=0.078125
EXTRACT: note_on channel=9 note=36 velocity=120 time=0
EXTRACT: note_on channel=9 note=82 velocity=50 time=0
EXTRACT: note_on channel=9 note=44 velocity=60 time=0
EXTRACT: note_on channel=3 note=68 velocity=100 time=0
EXTRACT: note_off channel=9 note=44 velocity=50 time=0.125
EXTRACT: note_off channel=9 note=82 velocity=40 time=0
EXTRACT: note_off channel=9 note=36 velocity=100 time=0
EXTRACT: note_off channel=9 note=35 velocity=100 time=0
EXTRACT: note_on channel=9 note=44 velocity=60 time=0.037500000000000006
EXTRACT: note_off channel=9 note=44 velocity=50 time=0.125
EXTRACT: note_on channel=9 note=85 velocity=120 time=0.078125
EXTRACT: note_on channel=9 note=39 velocity=120 time=0
EXTRACT: note_on channel=9 note=54 velocity=100 time=0
EXTRACT: note_on channel=9 note=28 velocity=100 time=0
EXTRACT: note_on channel=9 note=44 velocity=60 time=0
EXTRACT: note_on channel=3 note=66 velocity=100 time=0
EXTRACT: note_off channel=3 note=68 velocity=80 time=0.1
EXTRACT: note_off channel=9 note=44 velocity=50 time=0.025
EXTRACT: note_off channel=9 note=28 velocity=80 time=0
EXTRACT: note_off channel=9 note=54 velocity=80 time=0
EXTRACT: note_off channel=9 note=39 velocity=100 time=0
EXTRACT: note_off channel=9 note=85 velocity=100 time=0
EXTRACT: note_on channel=9 note=44 velocity=60 time=0.0125
EXTRACT: note_off channel=9 note=44 velocity=50 time=0.125
EXTRACT: note_off channel=3 note=66 velocity=80 time=0.037500000000000006
EXTRACT: note_on channel=9 note=44 velocity=60 time=0.040625
EXTRACT: note_on channel=3 note=64 velocity=100 time=0
EXTRACT: note_off channel=9 note=44 velocity=50 time=0.125
EXTRACT: note_on channel=9 note=44 velocity=60 time=0.037500000000000006
EXTRACT: note_off channel=9 note=44 velocity=50 time=0.125
EXTRACT: note_off channel=1 note=57 velocity=80 time=0.0171875
EXTRACT: note_off channel=4 note=69 velocity=80 time=0
EXTRACT: note_off channel=0 note=57 velocity=80 time=0.0203125
EXTRACT: note_off channel=1 note=50 velocity=80 time=0
EXTRACT: note_off channel=1 note=54 velocity=80 time=0
EXTRACT: note_off channel=2 note=57 velocity=80 time=0
EXTRACT: note_off channel=4 note=62 velocity=80 time=0
EXTRACT: note_off channel=4 note=66 velocity=80 time=0
EXTRACT: note_on channel=9 note=35 velocity=120 time=0.040625
EXTRACT: note_on channel=9 note=36 velocity=120 time=0
EXTRACT: note_on channel=9 note=44 velocity=60 time=0
EXTRACT: note_off channel=0 note=54 velocity=80 time=0
EXTRACT: note_off channel=0 note=50 velocity=80 time=0
EXTRACT: note_off channel=0 note=38 velocity=80 time=0
EXTRACT: note_on channel=0 note=59 velocity=100 time=0
EXTRACT: note_on channel=0 note=57 velocity=100 time=0
EXTRACT: note_on channel=0 note=52 velocity=100 time=0
EXTRACT: note_on channel=1 note=45 velocity=100 time=0
EXTRACT: note_on channel=1 note=57 velocity=100 time=0
EXTRACT: note_off channel=2 note=54 velocity=80 time=0
EXTRACT: note_off channel=2 note=50 velocity=80 time=0
EXTRACT: note_off channel=2 note=38 velocity=80 time=0
EXTRACT: note_on channel=2 note=59 velocity=100 time=0
EXTRACT: note_on channel=2 note=57 velocity=100 time=0
EXTRACT: note_on channel=2 note=52 velocity=100 time=0
EXTRACT: note_on channel=4 note=57 velocity=100 time=0
EXTRACT: note_on channel=4 note=69 velocity=100 time=0
EXTRACT: note_on channel=3 note=63 velocity=100 time=0
EXTRACT: note_off channel=3 note=64 velocity=80 time=0.0203125
EXTRACT: note_off channel=9 note=44 velocity=50 time=0.1046875
EXTRACT: note_off channel=9 note=36 velocity=100 time=0
EXTRACT: note_off channel=9 note=35 velocity=100 time=0
EXTRACT: note_on channel=9 note=44 velocity=60 time=0.05625
EXTRACT: note_off channel=9 note=44 velocity=50 time=0.025
EXTRACT: note_on channel=9 note=82 velocity=50 time=0.078125
EXTRACT: note_on channel=9 note=44 velocity=60 time=0
EXTRACT: note_off channel=9 note=44 velocity=50 time=0.125
EXTRACT: note_off channel=9 note=82 velocity=40 time=0
EXTRACT: note_on channel=9 note=35 velocity=120 time=0.037500000000000006
EXTRACT: note_on channel=9 note=36 velocity=120 time=0
EXTRACT: note_on channel=9 note=44 velocity=60 time=0
EXTRACT: note_off channel=9 note=44 velocity=50 time=0.125
EXTRACT: note_off channel=9 note=36 velocity=100 time=0
EXTRACT: note_off channel=9 note=35 velocity=100 time=0
EXTRACT: note_on channel=9 note=85 velocity=120 time=0.078125
EXTRACT: note_on channel=9 note=39 velocity=120 time=0
EXTRACT: note_on channel=9 note=82 velocity=50 time=0
EXTRACT: note_on channel=9 note=54 velocity=100 time=0
EXTRACT: note_on channel=9 note=28 velocity=100 time=0
EXTRACT: note_on channel=9 note=44 velocity=60 time=0
EXTRACT: note_off channel=9 note=44 velocity=50 time=0.125
EXTRACT: note_off channel=9 note=28 velocity=80 time=0
EXTRACT: note_off channel=9 note=54 velocity=80 time=0
EXTRACT: note_off channel=9 note=82 velocity=40 time=0
EXTRACT: note_off channel=9 note=39 velocity=100 time=0
EXTRACT: note_off channel=9 note=85 velocity=100 time=0
EXTRACT: note_on channel=9 note=44 velocity=60 time=0.05625
EXTRACT: note_off channel=9 note=44 velocity=50 time=0.125
EXTRACT: note_off channel=3 note=63 velocity=80 time=0.0578125
EXTRACT: note_on channel=9 note=44 velocity=60 time=0.0203125
EXTRACT: note_off channel=0 note=52 velocity=80 time=0
EXTRACT: note_off channel=0 note=57 velocity=80 time=0
EXTRACT: note_off channel=0 note=59 velocity=80 time=0
EXTRACT: note_on channel=0 note=59 velocity=100 time=0
EXTRACT: note_on channel=0 note=57 velocity=100 time=0
EXTRACT: note_on channel=0 note=52 velocity=100 time=0
EXTRACT: note_off channel=2 note=52 velocity=80 time=0
EXTRACT: note_off channel=2 note=57 velocity=80 time=0
EXTRACT: note_off channel=2 note=59 velocity=80 time=0
EXTRACT: note_on channel=2 note=59 velocity=100 time=0
EXTRACT: note_on channel=2 note=57 velocity=100 time=0
EXTRACT: note_on channel=2 note=52 velocity=100 time=0
EXTRACT: note_on channel=3 note=64 velocity=100 time=0
EXTRACT: note_off channel=9 note=44 velocity=50 time=0.125
EXTRACT: note_on channel=9 note=82 velocity=50 time=0.037500000000000006
EXTRACT: note_on channel=9 note=44 velocity=60 time=0
EXTRACT: note_off channel=9 note=44 velocity=50 time=0.08125
EXTRACT: note_off channel=9 note=82 velocity=40 time=0
EXTRACT: note_on channel=9 note=44 velocity=60 time=0.078125
EXTRACT: note_off channel=9 note=44 velocity=50 time=0.125
EXTRACT: note_on channel=9 note=82 velocity=50 time=0.05625
EXTRACT: note_on channel=9 note=44 velocity=60 time=0
EXTRACT: note_off channel=9 note=44 velocity=50 time=0.125
EXTRACT: note_off channel=9 note=82 velocity=40 time=0
EXTRACT: note_on channel=9 note=35 velocity=120 time=0.078125
EXTRACT: note_on channel=9 note=36 velocity=120 time=0
EXTRACT: note_on channel=9 note=82 velocity=50 time=0
EXTRACT: note_on channel=9 note=44 velocity=60 time=0
EXTRACT: note_off channel=9 note=44 velocity=50 time=0.125
EXTRACT: note_off channel=9 note=82 velocity=40 time=0
EXTRACT: note_off channel=9 note=36 velocity=100 time=0
EXTRACT: note_off channel=9 note=35 velocity=100 time=0
EXTRACT: note_on channel=9 note=44 velocity=60 time=0.037500000000000006
EXTRACT: note_off channel=9 note=44 velocity=50 time=0.125
EXTRACT: note_off channel=0 note=52 velocity=80 time=0.0578125
EXTRACT: note_off channel=0 note=57 velocity=80 time=0
EXTRACT: note_off channel=0 note=59 velocity=80 time=0
EXTRACT: note_off channel=2 note=52 velocity=80 time=0
EXTRACT: note_off channel=2 note=57 velocity=80 time=0
EXTRACT: note_off channel=2 note=59 velocity=80 time=0
EXTRACT: note_on channel=9 note=85 velocity=120 time=0.0203125
EXTRACT: note_on channel=9 note=39 velocity=120 time=0
EXTRACT: note_on channel=9 note=54 velocity=100 time=0
EXTRACT: note_on channel=9 note=28 velocity=100 time=0
EXTRACT: note_on channel=9 note=44 velocity=60 time=0
EXTRACT: note_on channel=0 note=59 velocity=100 time=0
EXTRACT: note_on channel=0 note=57 velocity=100 time=0
EXTRACT: note_on channel=0 note=52 velocity=100 time=0
EXTRACT: note_on channel=2 note=59 velocity=100 time=0
EXTRACT: note_on channel=2 note=57 velocity=100 time=0
EXTRACT: note_on channel=2 note=52 velocity=100 time=0
EXTRACT: note_on channel=3 note=66 velocity=100 time=0
EXTRACT: note_off channel=3 note=64 velocity=80 time=0.1203125
EXTRACT: note_off channel=9 note=44 velocity=50 time=0.004687500000000001
EXTRACT: note_off channel=9 note=28 velocity=80 time=0
EXTRACT: note_off channel=9 note=54 velocity=80 time=0
EXTRACT: note_off channel=9 note=39 velocity=100 time=0
EXTRACT: note_off channel=9 note=85 velocity=100 time=0
EXTRACT: note_on channel=9 note=44 velocity=60 time=0.05625
EXTRACT: note_off channel=9 note=44 velocity=50 time=0.07968750000000001
EXTRACT: note_on channel=9 note=44 velocity=60 time=0.078125
EXTRACT: note_off channel=9 note=44 velocity=50 time=0.125
EXTRACT: note_on channel=9 note=44 velocity=60 time=0.037500000000000006
EXTRACT: note_off channel=9 note=44 velocity=50 time=0.125
EXTRACT: note_off channel=3 note=66 velocity=80 time=0.037500000000000006
EXTRACT: note_on channel=9 note=35 velocity=120 time=0.040625
EXTRACT: note_on channel=9 note=36 velocity=120 time=0
EXTRACT: note_on channel=9 note=44 velocity=60 time=0
EXTRACT: note_off channel=0 note=52 velocity=80 time=0
EXTRACT: note_off channel=0 note=57 velocity=80 time=0
EXTRACT: note_off channel=0 note=59 velocity=80 time=0
EXTRACT: note_on channel=0 note=59 velocity=100 time=0
EXTRACT: note_on channel=0 note=54 velocity=100 time=0
EXTRACT: note_off channel=1 note=57 velocity=80 time=0
EXTRACT: note_off channel=1 note=45 velocity=80 time=0
EXTRACT: note_on channel=1 note=47 velocity=100 time=0
EXTRACT: note_on channel=1 note=59 velocity=100 time=0
EXTRACT: note_off channel=2 note=52 velocity=80 time=0
EXTRACT: note_off channel=2 note=57 velocity=80 time=0
EXTRACT: note_off channel=2 note=59 velocity=80 time=0
EXTRACT: note_on channel=2 note=59 velocity=100 time=0
EXTRACT: note_on channel=2 note=54 velocity=100 time=0
EXTRACT: note_off channel=4 note=69 velocity=80 time=0
EXTRACT: note_off channel=4 note=57 velocity=80 time=0
EXTRACT: note_on channel=4 note=59 velocity=100 time=0
EXTRACT: note_on channel=4 note=71 velocity=100 time=0
EXTRACT: note_on channel=3 note=63 velocity=100 time=0
EXTRACT: note_off channel=9 note=44 velocity=50 time=0.0234375
EXTRACT: note_off channel=9 note=36 velocity=100 time=0
EXTRACT: note_off channel=9 note=35 velocity=100 time=0
EXTRACT: note_on channel=9 note=44 velocity=60 time=0.05625
EXTRACT: note_off channel=9 note=44 velocity=50 time=0.125
EXTRACT: note_on channel=9 note=82 velocity=50 time=0.078125
EXTRACT: note_on channel=9 note=44 velocity=60 time=0
EXTRACT: note_off channel=9 note=44 velocity=50 time=0.125
EXTRACT: note_off channel=9 note=82 velocity=40 time=0
EXTRACT: note_on channel=9 note=35 velocity=120 time=0.037500000000000006
EXTRACT: note_on channel=9 note=36 velocity=120 time=0
EXTRACT: note_on channel=9 note=44 velocity=60 time=0
EXTRACT: note_off channel=9 note=44 velocity=50 time=0.125
EXTRACT: note_off channel=9 note=36 velocity=100 time=0
EXTRACT: note_off channel=9 note=35 velocity=100 time=0
EXTRACT: note_on channel=9 note=85 velocity=120 time=0.078125
EXTRACT: note_on channel=9 note=39 velocity=120 time=0
EXTRACT: note_on channel=9 note=82 velocity=50 time=0
EXTRACT: note_on channel=9 note=54 velocity=100 time=0
EXTRACT: note_on channel=9 note=28 velocity=100 time=0
EXTRACT: note_on channel=9 note=44 velocity=60 time=0
EXTRACT: note_off channel=9 note=44 velocity=50 time=0.125
EXTRACT: note_off channel=9 note=28 velocity=80 time=0
EXTRACT: note_off channel=9 note=54 velocity=80 time=0
EXTRACT: note_off channel=9 note=82 velocity=40 time=0
EXTRACT: note_off channel=9 note=39 velocity=100 time=0
EXTRACT: note_off channel=9 note=85 velocity=100 time=0
EXTRACT: note_on channel=9 note=44 velocity=60 time=0.05625
EXTRACT: note_off channel=9 note=44 velocity=50 time=0.125
EXTRACT: note_off channel=3 note=63 velocity=80 time=0.0578125
EXTRACT: note_on channel=9 note=44 velocity=60 time=0.0203125
EXTRACT: note_off channel=0 note=54 velocity=80 time=0
EXTRACT: note_off channel=0 note=59 velocity=80 time=0
EXTRACT: note_on channel=0 note=59 velocity=100 time=0
EXTRACT: note_on channel=0 note=54 velocity=100 time=0
EXTRACT: note_off channel=2 note=54 velocity=80 time=0
EXTRACT: note_off channel=2 note=59 velocity=80 time=0
EXTRACT: note_on channel=2 note=59 velocity=100 time=0
EXTRACT: note_on channel=2 note=54 velocity=100 time=0
EXTRACT: note_on channel=3 note=64 velocity=100 time=0
EXTRACT: note_off channel=9 note=44 velocity=50 time=0.034375
EXTRACT: note_on channel=9 note=82 velocity=50 time=0.037500000000000006
EXTRACT: note_on channel=9 note=44 velocity=60 time=0
EXTRACT: note_off channel=9 note=44 velocity=50 time=0.125
EXTRACT: note_off channel=9 note=82 velocity=40 time=0
EXTRACT: note_on channel=9 note=44 velocity=60 time=0.078125
EXTRACT: note_off channel=9 note=44 velocity=50 time=0.125
EXTRACT: note_on channel=9 note=82 velocity=50 time=0.05625
EXTRACT: note_on channel=9 note=44 velocity=60 time=0
EXTRACT: note_off channel=9 note=44 velocity=50 time=0.125
EXTRACT: note_off channel=9 note=82 velocity=40 time=0
EXTRACT: note_on channel=9 note=35 velocity=120 time=0.078125
EXTRACT: note_on channel=9 note=36 velocity=120 time=0
EXTRACT: note_on channel=9 note=82 velocity=50 time=0
EXTRACT: note_on channel=9 note=44 velocity=60 time=0
EXTRACT: note_off channel=9 note=44 velocity=50 time=0.125
EXTRACT: note_off channel=9 note=82 velocity=40 time=0
EXTRACT: note_off channel=9 note=36 velocity=100 time=0
EXTRACT: note_off channel=9 note=35 velocity=100 time=0
EXTRACT: note_on channel=9 note=44 velocity=60 time=0.037500000000000006
EXTRACT: note_off channel=9 note=44 velocity=50 time=0.125
EXTRACT: note_off channel=0 note=54 velocity=80 time=0.037500000000000006
EXTRACT: note_off channel=2 note=54 velocity=80 time=0
EXTRACT: note_off channel=0 note=59 velocity=80 time=0.0203125
EXTRACT: note_off channel=2 note=59 velocity=80 time=0
EXTRACT: note_on channel=9 note=85 velocity=120 time=0.0203125
EXTRACT: note_on channel=9 note=39 velocity=120 time=0
EXTRACT: note_on channel=9 note=54 velocity=100 time=0
EXTRACT: note_on channel=9 note=28 velocity=100 time=0
EXTRACT: note_on channel=9 note=44 velocity=60 time=0
EXTRACT: note_on channel=0 note=59 velocity=100 time=0
EXTRACT: note_on channel=0 note=54 velocity=100 time=0
EXTRACT: note_on channel=2 note=59 velocity=100 time=0
EXTRACT: note_on channel=2 note=54 velocity=100 time=0
EXTRACT: note_on channel=3 note=66 velocity=100 time=0
EXTRACT: note_off channel=3 note=64 velocity=80 time=0.1203125
EXTRACT: note_off channel=9 note=44 velocity=50 time=0.004687500000000001
EXTRACT: note_off channel=9 note=28 velocity=80 time=0
EXTRACT: note_off channel=9 note=54 velocity=80 time=0
EXTRACT: note_off channel=9 note=39 velocity=100 time=0
EXTRACT: note_off channel=9 note=85 velocity=100 time=0
EXTRACT: note_on channel=9 note=44 velocity=60 time=0.00625
EXTRACT: note_off channel=9 note=44 velocity=50 time=0.125
EXTRACT: note_on channel=9 note=44 velocity=60 time=0.078125
EXTRACT: note_off channel=9 note=44 velocity=50 time=0.125
EXTRACT: note_on channel=9 note=44 velocity=60 time=0.037500000000000006
EXTRACT: note_off channel=9 note=44 velocity=50 time=0.125
EXTRACT: note_off channel=3 note=66 velocity=80 time=0.037500000000000006
EXTRACT: note_on channel=9 note=35 velocity=120 time=0.040625
EXTRACT: note_on channel=9 note=36 velocity=120 time=0
EXTRACT: note_on channel=9 note=44 velocity=60 time=0
EXTRACT: note_off channel=0 note=54 velocity=80 time=0
EXTRACT: note_off channel=0 note=59 velocity=80 time=0
EXTRACT: note_on channel=0 note=61 velocity=100 time=0
EXTRACT: note_on channel=0 note=56 velocity=100 time=0
EXTRACT: note_on channel=0 note=52 velocity=100 time=0
EXTRACT: note_off channel=1 note=59 velocity=80 time=0
EXTRACT: note_off channel=1 note=47 velocity=80 time=0
EXTRACT: note_on channel=1 note=49 velocity=100 time=0
EXTRACT: note_on channel=1 note=61 velocity=100 time=0
EXTRACT: note_off channel=2 note=54 velocity=80 time=0
EXTRACT: note_off channel=2 note=59 velocity=80 time=0
EXTRACT: note_on channel=2 note=61 velocity=100 time=0
EXTRACT: note_on channel=2 note=56 velocity=100 time=0
EXTRACT: note_on channel=2 note=52 velocity=100 time=0
EXTRACT: note_off channel=4 note=71 velocity=80 time=0
EXTRACT: note_off channel=4 note=59 velocity=80 time=0
EXTRACT: note_on channel=4 note=61 velocity=100 time=0
EXTRACT: note_on channel=4 note=73 velocity=100 time=0
EXTRACT: note_on channel=3 note=68 velocity=100 time=0
EXTRACT: note_off channel=9 note=44 velocity=50 time=0.125
EXTRACT: note_off channel=9 note=36 velocity=100 time=0
EXTRACT: note_off channel=9 note=35 velocity=100 time=0
EXTRACT: note_on channel=9 note=44 velocity=60 time=0.040625
EXTRACT: note_off channel=9 note=44 velocity=50 time=0.125
EXTRACT: note_on channel=9 note=82 velocity=50 time=0.078125
EXTRACT: note_on channel=9 note=44 velocity=60 time=0
EXTRACT: note_off channel=9 note=44 velocity=50 time=0.125
EXTRACT: note_off channel=9 note=82 velocity=40 time=0
EXTRACT: note_on channel=9 note=35 velocity=120 time=0.037500000000000006
EXTRACT: note_on channel=9 note=36 velocity=120 time=0
EXTRACT: note_on channel=9 note=44 velocity=60 time=0
EXTRACT: note_off channel=9 note=44 velocity=50 time=0.125
EXTRACT: note_off channel=9 note=36 velocity=100 time=0
EXTRACT: note_off channel=9 note=35 velocity=100 time=0
EXTRACT: note_on channel=9 note=85 velocity=120 time=0.078125
EXTRACT: note_on channel=9 note=39 velocity=120 time=0
EXTRACT: note_on channel=9 note=82 velocity=50 time=0
EXTRACT: note_on channel=9 note=54 velocity=100 time=0
EXTRACT: note_on channel=9 note=28 velocity=100 time=0
EXTRACT: note_on channel=9 note=44 velocity=60 time=0
EXTRACT: note_off channel=9 note=44 velocity=50 time=0.125
EXTRACT: note_off channel=9 note=28 velocity=80 time=0
EXTRACT: note_off channel=9 note=54 velocity=80 time=0
EXTRACT: note_off channel=9 note=82 velocity=40 time=0
EXTRACT: note_off channel=9 note=39 velocity=100 time=0
EXTRACT: note_off channel=9 note=85 velocity=100 time=0
EXTRACT: note_on channel=9 note=44 velocity=60 time=0.05625
EXTRACT: note_off channel=9 note=44 velocity=50 time=0.125
EXTRACT: note_off channel=3 note=68 velocity=80 time=0.0578125
EXTRACT: note_on channel=9 note=44 velocity=60 time=0.0203125
EXTRACT: note_off channel=0 note=52 velocity=80 time=0
EXTRACT: note_off channel=0 note=56 velocity=80 time=0
EXTRACT: note_off channel=0 note=61 velocity=80 time=0
EXTRACT: note_on channel=0 note=61 velocity=100 time=0
EXTRACT: note_on channel=0 note=56 velocity=100 time=0
EXTRACT: note_on channel=0 note=52 velocity=100 time=0
EXTRACT: note_off channel=2 note=52 velocity=80 time=0
EXTRACT: note_off channel=2 note=56 velocity=80 time=0
EXTRACT: note_off channel=2 note=61 velocity=80 time=0
EXTRACT: note_on channel=2 note=61 velocity=100 time=0
EXTRACT: note_on channel=2 note=56 velocity=100 time=0
EXTRACT: note_on channel=2 note=52 velocity=100 time=0
EXTRACT: note_on channel=3 note=66 velocity=100 time=0
EXTRACT: note_off channel=9 note=44 velocity=50 time=0.125
EXTRACT: note_on channel=9 note=82 velocity=50 time=0.03125
EXTRACT: note_on channel=9 note=44 velocity=60 time=0
EXTRACT: note_off channel=9 note=44 velocity=50 time=0.125
EXTRACT: note_off channel=9 note=82 velocity=40 time=0
EXTRACT: note_on channel=9 note=44 velocity=60 time=0.078125
EXTRACT: note_off channel=9 note=44 velocity=50 time=0.125
EXTRACT: note_on channel=9 note=82 velocity=50 time=0.05625
EXTRACT: note_on channel=9 note=44 velocity=60 time=0
EXTRACT: note_off channel=9 note=44 velocity=50 time=0.125
EXTRACT: note_off channel=9 note=82 velocity=40 time=0
EXTRACT: note_off channel=3 note=66 velocity=80 time=0.0171875
EXTRACT: note_on channel=9 note=35 velocity=120 time=0.060937500000000006
EXTRACT: note_on channel=9 note=36 velocity=120 time=0
EXTRACT: note_on channel=9 note=82 velocity=50 time=0
EXTRACT: note_on channel=9 note=44 velocity=60 time=0
EXTRACT: note_on channel=3 note=66 velocity=100 time=0
EXTRACT: note_off channel=9 note=44 velocity=50 time=0.125
EXTRACT: note_off channel=9 note=82 velocity=40 time=0
EXTRACT: note_off channel=9 note=36 velocity=100 time=0
EXTRACT: note_off channel=9 note=35 velocity=100 time=0
EXTRACT: note_on channel=9 note=44 velocity=60 time=0.037500000000000006
EXTRACT: note_off channel=9 note=44 velocity=50 time=0.125
EXTRACT: note_off channel=0 note=52 velocity=80 time=0.0578125
EXTRACT: note_off channel=0 note=56 velocity=80 time=0
EXTRACT: note_off channel=0 note=61 velocity=80 time=0
EXTRACT: note_off channel=2 note=52 velocity=80 time=0
EXTRACT: note_off channel=2 note=56 velocity=80 time=0
EXTRACT: note_off channel=2 note=61 velocity=80 time=0
EXTRACT: note_on channel=9 note=85 velocity=120 time=0.0203125
EXTRACT: note_on channel=9 note=39 velocity=120 time=0
EXTRACT: note_on channel=9 note=54 velocity=100 time=0
EXTRACT: note_on channel=9 note=28 velocity=100 time=0
EXTRACT: note_on channel=9 note=44 velocity=60 time=0
EXTRACT: note_on channel=0 note=61 velocity=100 time=0
EXTRACT: note_on channel=0 note=56 velocity=100 time=0
EXTRACT: note_on channel=0 note=52 velocity=100 time=0
EXTRACT: note_on channel=2 note=61 velocity=100 time=0
EXTRACT: note_on channel=2 note=56 velocity=100 time=0
EXTRACT: note_on channel=2 note=52 velocity=100 time=0
EXTRACT: note_off channel=9 note=44 velocity=50 time=0.025
EXTRACT: note_off channel=9 note=28 velocity=80 time=0
EXTRACT: note_off channel=9 note=54 velocity=80 time=0
EXTRACT: note_off channel=9 note=39 velocity=100 time=0
EXTRACT: note_off channel=9 note=85 velocity=100 time=0
EXTRACT: note_off channel=3 note=66 velocity=80 time=0.035937500000000004
EXTRACT: note_on channel=9 note=44 velocity=60 time=0.0203125
EXTRACT: note_on channel=3 note=68 velocity=100 time=0
EXTRACT: note_off channel=9 note=44 velocity=50 time=0.125
EXTRACT: note_on channel=9 note=44 velocity=60 time=0.078125
EXTRACT: note_off channel=9 note=44 velocity=50 time=0.125
EXTRACT: note_on channel=9 note=44 velocity=60 time=0.037500000000000006
EXTRACT: note_off channel=9 note=44 velocity=50 time=0.0921875
EXTRACT: note_on channel=9 note=35 velocity=120 time=0.078125
EXTRACT: note_on channel=9 note=36 velocity=120 time=0
EXTRACT: note_on channel=9 note=44 velocity=60 time=0
EXTRACT: note_off channel=0 note=52 velocity=80 time=0
EXTRACT: note_off channel=0 note=56 velocity=80 time=0
EXTRACT: note_off channel=0 note=61 velocity=80 time=0
EXTRACT: note_on channel=0 note=57 velocity=100 time=0
EXTRACT: note_on channel=0 note=54 velocity=100 time=0
EXTRACT: note_off channel=1 note=61 velocity=80 time=0
EXTRACT: note_off channel=1 note=49 velocity=80 time=0
EXTRACT: note_on channel=1 note=45 velocity=100 time=0
EXTRACT: note_on channel=1 note=57 velocity=100 time=0
EXTRACT: note_off channel=2 note=52 velocity=80 time=0
EXTRACT: note_off channel=2 note=56 velocity=80 time=0
EXTRACT: note_off channel=2 note=61 velocity=80 time=0
EXTRACT: note_on channel=2 note=57 velocity=100 time=0
EXTRACT: note_on channel=2 note=54 velocity=100 time=0
EXTRACT: note_off channel=4 note=73 velocity=80 time=0
EXTRACT: note_off channel=4 note=61 velocity=80 time=0
EXTRACT: note_on channel=4 note=57 velocity=100 time=0
EXTRACT: note_on channel=4 note=69 velocity=100 time=0
EXTRACT: note_on channel=3 note=69 velocity=100 time=0
EXTRACT: note_on channel=5 note=61 velocity=100 time=0
EXTRACT: note_on channel=5 note=69 velocity=100 time=0
EXTRACT: note_on channel=5 note=66 velocity=100 time=0
EXTRACT: note_off channel=3 note=68 velocity=80 time=0.0390625
EXTRACT: note_off channel=9 note=44 velocity=50 time=0.0859375
EXTRACT: note_off channel=9 note=36 velocity=100 time=0
EXTRACT: note_off channel=9 note=35 velocity=100 time=0
EXTRACT: note_on channel=9 note=44 velocity=60 time=0.05625
EXTRACT: note_off channel=9 note=44 velocity=50 time=0.06875
EXTRACT: note_on channel=9 note=82 velocity=50 time=0.078125
EXTRACT: note_on channel=9 note=44 velocity=60 time=0
EXTRACT: note_off channel=9 note=44 velocity=50 time=0.125
EXTRACT: note_off channel=9 note=82 velocity=40 time=0
EXTRACT: note_on channel=9 note=35 velocity=120 time=0.037500000000000006
EXTRACT: note_on channel=9 note=36 velocity=120 time=0
EXTRACT: note_on channel=9 note=44 velocity=60 time=0
EXTRACT: note_off channel=9 note=44 velocity=50 time=0.125
EXTRACT: note_off channel=9 note=36 velocity=100 time=0
EXTRACT: note_off channel=9 note=35 velocity=100 time=0
EXTRACT: note_off channel=5 note=69 velocity=80 time=0.037500000000000006
EXTRACT: note_on channel=9 note=85 velocity=120 time=0.040625
EXTRACT: note_on channel=9 note=39 velocity=120 time=0
EXTRACT: note_on channel=9 note=82 velocity=50 time=0
EXTRACT: note_on channel=9 note=54 velocity=100 time=0
EXTRACT: note_on channel=9 note=28 velocity=100 time=0
EXTRACT: note_on channel=9 note=44 velocity=60 time=0
EXTRACT: note_off channel=5 note=61 velocity=80 time=0
EXTRACT: note_on channel=5 note=59 velocity=100 time=0
EXTRACT: note_on channel=5 note=64 velocity=100 time=0
EXTRACT: note_on channel=5 note=68 velocity=100 time=0
EXTRACT: note_off channel=5 note=66 velocity=80 time=0.018750000000000003
EXTRACT: note_off channel=9 note=44 velocity=50 time=0.0125
EXTRACT: note_off channel=9 note=28 velocity=80 time=0
EXTRACT: note_off channel=9 note=54 velocity=80 time=0
EXTRACT: note_off channel=9 note=82 velocity=40 time=0
EXTRACT: note_off channel=9 note=39 velocity=100 time=0
EXTRACT: note_off channel=9 note=85 velocity=100 time=0
EXTRACT: note_on channel=9 note=44 velocity=60 time=0.05625
EXTRACT: note_off channel=9 note=44 velocity=50 time=0.125
EXTRACT: note_off channel=5 note=68 velocity=80 time=0.0171875
EXTRACT: note_off channel=5 note=64 velocity=80 time=0.0203125
EXTRACT: note_off channel=3 note=69 velocity=80 time=0.0203125
EXTRACT: note_off channel=5 note=59 velocity=80 time=0
EXTRACT: note_on channel=9 note=44 velocity=60 time=0.0203125
EXTRACT: note_off channel=0 note=54 velocity=80 time=0
EXTRACT: note_off channel=0 note=57 velocity=80 time=0
EXTRACT: note_on channel=0 note=57 velocity=100 time=0
EXTRACT: note_on channel=0 note=54 velocity=100 time=0
EXTRACT: note_off channel=2 note=54 velocity=80 time=0
EXTRACT: note_off channel=2 note=57 velocity=80 time=0
EXTRACT: note_on channel=2 note=57 velocity=100 time=0
EXTRACT: note_on channel=2 note=54 velocity=100 time=0
EXTRACT: note_on channel=5 note=64 velocity=100 time=0
EXTRACT: note_on channel=5 note=59 velocity=100 time=0
EXTRACT: note_on channel=5 note=68 velocity=100 time=0
EXTRACT: note_off channel=9 note=44 velocity=50 time=0.125
EXTRACT: note_on channel=9 note=82 velocity=50 time=0.037500000000000006
EXTRACT: note_on channel=9 note=44 velocity=60 time=0
EXTRACT: note_off channel=5 note=68 velocity=80 time=0.1015625
EXTRACT: note_off channel=9 note=44 velocity=50 time=0.003125
EXTRACT: note_off channel=9 note=82 velocity=40 time=0
EXTRACT: note_off channel=5 note=64 velocity=80 time=0.0171875
EXTRACT: note_off channel=5 note=59 velocity=80 time=0.0203125
EXTRACT: note_on channel=9 note=44 velocity=60 time=0.040625
EXTRACT: note_on channel=3 note=68 velocity=100 time=0
EXTRACT: note_on channel=5 note=64 velocity=100 time=0
EXTRACT: note_on channel=5 note=59 velocity=100 time=0
EXTRACT: note_off channel=9 note=44 velocity=50 time=0.125
EXTRACT: note_on channel=9 note=82 velocity=50 time=0.05625
EXTRACT: note_on channel=9 note=44 velocity=60 time=0
EXTRACT: note_off channel=9 note=44 velocity=50 time=0.125
EXTRACT: note_off channel=9 note=82 velocity=40 time=0
EXTRACT: note_off channel=5 note=59 velocity=80 time=0.0578125
EXTRACT: note_on channel=9 note=35 velocity=120 time=0.0203125
EXTRACT: note_on channel=9 note=36 velocity=120 time=0
EXTRACT: note_on channel=9 note=82 velocity=50 time=0
EXTRACT: note_on channel=9 note=44 velocity=60 time=0
EXTRACT: note_on channel=3 note=69 velocity=100 time=0
EXTRACT: note_on channel=5 note=66 velocity=100 time=0
EXTRACT: note_on channel=5 note=61 velocity=100 time=0
EXTRACT: note_off channel=3 note=68 velocity=80 time=0.040625
EXTRACT: note_off channel=5 note=64 velocity=80 time=0
EXTRACT: note_off channel=9 note=44 velocity=50 time=0.084375
EXTRACT: note_off channel=9 note=82 velocity=40 time=0
EXTRACT: note_off channel=9 note=36 velocity=100 time=0
EXTRACT: note_off channel=9 note=35 velocity=100 time=0
EXTRACT: note_on channel=9 note=44 velocity=60 time=0.037500000000000006
EXTRACT: note_off channel=9 note=44 velocity=50 time=0.0703125
EXTRACT: note_off channel=0 note=54 velocity=80 time=0.0578125
EXTRACT: note_off channel=0 note=57 velocity=80 time=0
EXTRACT: note_off channel=2 note=54 velocity=80 time=0
EXTRACT: note_off channel=2 note=57 velocity=80 time=0
EXTRACT: note_on channel=9 note=85 velocity=120 time=0.0203125
EXTRACT: note_on channel=9 note=39 velocity=120 time=0
EXTRACT: note_on channel=9 note=54 velocity=100 time=0
EXTRACT: note_on channel=9 note=28 velocity=100 time=0
EXTRACT: note_on channel=9 note=44 velocity=60 time=0
EXTRACT: note_on channel=0 note=57 velocity=100 time=0
EXTRACT: note_on channel=0 note=54 velocity=100 time=0
EXTRACT: note_on channel=2 note=57 velocity=100 time=0
EXTRACT: note_on channel=2 note=54 velocity=100 time=0
EXTRACT: note_on channel=3 note=71 velocity=100 time=0
EXTRACT: note_on channel=5 note=68 velocity=100 time=0
EXTRACT: note_on channel=5 note=64 velocity=100 time=0
EXTRACT: note_off channel=3 note=69 velocity=80 time=0.059375000000000004
EXTRACT: note_off channel=5 note=66 velocity=80 time=0
EXTRACT: note_off channel=5 note=61 velocity=80 time=0.0203125
EXTRACT: note_off channel=9 note=44 velocity=50 time=0.0140625
EXTRACT: note_off channel=9 note=28 velocity=80 time=0
EXTRACT: note_off channel=9 note=54 velocity=80 time=0
EXTRACT: note_off channel=9 note=39 velocity=100 time=0
EXTRACT: note_off channel=9 note=85 velocity=100 time=0
EXTRACT: note_on channel=9 note=44 velocity=60 time=0.05625
EXTRACT: note_off channel=3 note=71 velocity=80 time=0.015625
EXTRACT: note_off channel=5 note=68 velocity=80 time=0
EXTRACT: note_off channel=9 note=44 velocity=50 time=0.003125
EXTRACT: note_off channel=5 note=64 velocity=80 time=0.0171875
EXTRACT: note_on channel=9 note=44 velocity=60 time=0.060937500000000006
EXTRACT: note_on channel=3 note=71 velocity=100 time=0
EXTRACT: note_on channel=5 note=68 velocity=100 time=0
EXTRACT: note_on channel=5 note=64 velocity=100 time=0
EXTRACT: note_off channel=9 note=44 velocity=50 time=0.125
EXTRACT: note_on channel=9 note=44 velocity=60 time=0.037500000000000006
EXTRACT: note_off channel=9 note=44 velocity=50 time=0.05625
EXTRACT: note_off channel=1 note=57 velocity=80 time=0.037500000000000006
EXTRACT: note_off channel=4 note=69 velocity=80 time=0
EXTRACT: note_on channel=9 note=35 velocity=120 time=0.040625
EXTRACT: note_on channel=9 note=36 velocity=120 time=0
EXTRACT: note_on channel=9 note=44 velocity=60 time=0
EXTRACT: note_off channel=0 note=54 velocity=80 time=0
EXTRACT: note_off channel=0 note=57 velocity=80 time=0
EXTRACT: note_on channel=0 note=59 velocity=100 time=0
EXTRACT: note_on channel=0 note=57 velocity=100 time=0
EXTRACT: note_on channel=0 note=52 velocity=100 time=0
EXTRACT: note_off channel=1 note=45 velocity=80 time=0
EXTRACT: note_on channel=1 note=45 velocity=100 time=0
EXTRACT: note_on channel=1 note=57 velocity=100 time=0
EXTRACT: note_off channel=2 note=54 velocity=80 time=0
EXTRACT: note_off channel=2 note=57 velocity=80 time=0
EXTRACT: note_on channel=2 note=59 velocity=100 time=0
EXTRACT: note_on channel=2 note=57 velocity=100 time=0
EXTRACT: note_on channel=2 note=52 velocity=100 time=0
EXTRACT: note_off channel=4 note=57 velocity=80 time=0
EXTRACT: note_on channel=4 note=57 velocity=100 time=0
EXTRACT: note_on channel=4 note=69 velocity=100 time=0
EXTRACT: note_off channel=9 note=44 velocity=50 time=0.125
EXTRACT: note_off channel=9 note=36 velocity=100 time=0
EXTRACT: note_off channel=9 note=35 velocity=100 time=0
EXTRACT: note_on channel=9 note=44 velocity=60 time=0.05625
EXTRACT: note_off channel=9 note=44 velocity=50 time=0.125
EXTRACT: note_on channel=9 note=82 velocity=50 time=0.078125
EXTRACT: note_on channel=9 note=44 velocity=60 time=0
EXTRACT: note_off channel=9 note=44 velocity=50 time=0.125
EXTRACT: note_off channel=9 note=82 velocity=40 time=0
EXTRACT: note_on channel=9 note=35 velocity=120 time=0.037500000000000006
EXTRACT: note_on channel=9 note=36 velocity=120 time=0
EXTRACT: note_on channel=9 note=44 velocity=60 time=0
EXTRACT: note_off channel=9 note=44 velocity=50 time=0.125
EXTRACT: note_off channel=9 note=36 velocity=100 time=0
EXTRACT: note_off channel=9 note=35 velocity=100 time=0
EXTRACT: note_on channel=9 note=85 velocity=120 time=0.078125
EXTRACT: note_on channel=9 note=39 velocity=120 time=0
EXTRACT: note_on channel=9 note=82 velocity=50 time=0
EXTRACT: note_on channel=9 note=54 velocity=100 time=0
EXTRACT: note_on channel=9 note=28 velocity=100 time=0
EXTRACT: note_on channel=9 note=44 velocity=60 time=0
EXTRACT: note_on channel=3 note=68 velocity=100 time=0
EXTRACT: note_off channel=5 note=64 velocity=80 time=0.0203125
EXTRACT: note_off channel=3 note=71 velocity=80 time=0.018750000000000003
EXTRACT: note_off channel=5 note=68 velocity=80 time=0
EXTRACT: note_off channel=9 note=44 velocity=50 time=0.0859375
EXTRACT: note_off channel=9 note=28 velocity=80 time=0
EXTRACT: note_off channel=9 note=54 velocity=80 time=0
EXTRACT: note_off channel=9 note=82 velocity=40 time=0
EXTRACT: note_off channel=9 note=39 velocity=100 time=0
EXTRACT: note_off channel=9 note=85 velocity=100 time=0
EXTRACT: note_on channel=9 note=44 velocity=60 time=0.05625
EXTRACT: note_off channel=9 note=44 velocity=50 time=0.10625000000000001
EXTRACT: note_on channel=9 note=44 velocity=60 time=0.078125
EXTRACT: note_off channel=0 note=52 velocity=80 time=0
EXTRACT: note_off channel=0 note=57 velocity=80 time=0
EXTRACT: note_off channel=0 note=59 velocity=80 time=0
EXTRACT: note_on channel=0 note=59 velocity=100 time=0
EXTRACT: note_on channel=0 note=57 velocity=100 time=0
EXTRACT: note_on channel=0 note=52 velocity=100 time=0
EXTRACT: note_off channel=2 note=52 velocity=80 time=0
EXTRACT: note_off channel=2 note=57 velocity=80 time=0
EXTRACT: note_off channel=2 note=59 velocity=80 time=0
EXTRACT: note_on channel=2 note=59 velocity=100 time=0
EXTRACT: note_on channel=2 note=57 velocity=100 time=0
EXTRACT: note_on channel=2 note=52 velocity=100 time=0
EXTRACT: note_on channel=3 note=66 velocity=100 time=0
EXTRACT: note_off channel=3 note=68 velocity=80 time=0.0203125
EXTRACT: note_off channel=9 note=44 velocity=50 time=0.1046875
EXTRACT: note_on channel=9 note=82 velocity=50 time=0.0234375
EXTRACT: note_on channel=9 note=44 velocity=60 time=0
EXTRACT: note_off channel=9 note=44 velocity=50 time=0.125
EXTRACT: note_off channel=9 note=82 velocity=40 time=0
EXTRACT: note_on channel=9 note=44 velocity=60 time=0.078125
EXTRACT: note_on channel=1 note=49 velocity=100 time=0
EXTRACT: note_on channel=4 note=61 velocity=100 time=0
EXTRACT: note_off channel=9 note=44 velocity=50 time=0.125
EXTRACT: note_on channel=9 note=82 velocity=50 time=0.05625
EXTRACT: note_on channel=9 note=44 velocity=60 time=0
EXTRACT: note_off channel=9 note=44 velocity=50 time=0.125
EXTRACT: note_off channel=9 note=82 velocity=40 time=0
EXTRACT: note_on channel=9 note=35 velocity=120 time=0.078125
EXTRACT: note_on channel=9 note=36 velocity=120 time=0
EXTRACT: note_on channel=9 note=82 velocity=50 time=0
EXTRACT: note_on channel=9 note=44 velocity=60 time=0
EXTRACT: note_off channel=9 note=44 velocity=50 time=0.125
EXTRACT: note_off channel=9 note=82 velocity=40 time=0
EXTRACT: note_off channel=9 note=36 velocity=100 time=0
EXTRACT: note_off channel=9 note=35 velocity=100 time=0
EXTRACT: note_on channel=9 note=44 velocity=60 time=0.037500000000000006
EXTRACT: note_off channel=9 note=44 velocity=50 time=0.125
EXTRACT: note_off channel=0 note=52 velocity=80 time=0.0578125
EXTRACT: note_off channel=0 note=57 velocity=80 time=0
EXTRACT: note_off channel=0 note=59 velocity=80 time=0
EXTRACT: note_off channel=2 note=52 velocity=80 time=0
EXTRACT: note_off channel=2 note=57 velocity=80 time=0
EXTRACT: note_off channel=2 note=59 velocity=80 time=0
EXTRACT: note_on channel=9 note=85 velocity=120 time=0.0203125
EXTRACT: note_on channel=9 note=39 velocity=120 time=0
EXTRACT: note_on channel=9 note=54 velocity=100 time=0
EXTRACT: note_on channel=9 note=28 velocity=100 time=0
EXTRACT: note_on channel=9 note=44 velocity=60 time=0
EXTRACT: note_on channel=0 note=59 velocity=100 time=0
EXTRACT: note_on channel=0 note=57 velocity=100 time=0
EXTRACT: note_on channel=0 note=52 velocity=100 time=0
EXTRACT: note_on channel=1 note=52 velocity=100 time=0
EXTRACT: note_on channel=2 note=59 velocity=100 time=0
EXTRACT: note_on channel=2 note=57 velocity=100 time=0
EXTRACT: note_on channel=2 note=52 velocity=100 time=0
EXTRACT: note_on channel=4 note=64 velocity=100 time=0
EXTRACT: note_on channel=3 note=68 velocity=100 time=0
EXTRACT: note_on channel=5 note=64 velocity=100 time=0
EXTRACT: note_on channel=5 note=59 velocity=100 time=0
EXTRACT: note_off channel=3 note=66 velocity=80 time=0.0390625
EXTRACT: note_off channel=1 note=49 velocity=80 time=0.060937500000000006
EXTRACT: note_off channel=4 note=61 velocity=80 time=0
EXTRACT: note_off channel=9 note=44 velocity=50 time=0.025
EXTRACT: note_off channel=9 note=28 velocity=80 time=0
EXTRACT: note_off channel=9 note=54 velocity=80 time=0
EXTRACT: note_off channel=9 note=39 velocity=100 time=0
EXTRACT: note_off channel=9 note=85 velocity=100 time=0
EXTRACT: note_on channel=9 note=44 velocity=60 time=0.05625
EXTRACT: note_off channel=9 note=44 velocity=50 time=0.115625
EXTRACT: note_on channel=9 note=44 velocity=60 time=0.078125
EXTRACT: note_on channel=3 note=71 velocity=100 time=0
EXTRACT: note_on channel=5 note=66 velocity=100 time=0
EXTRACT: note_on channel=5 note=63 velocity=100 time=0
EXTRACT: note_off channel=3 note=68 velocity=80 time=0.1015625
EXTRACT: note_off channel=5 note=64 velocity=80 time=0
EXTRACT: note_off channel=5 note=59 velocity=80 time=0.0203125
EXTRACT: note_off channel=9 note=44 velocity=50 time=0.003125
EXTRACT: note_on channel=9 note=44 velocity=60 time=0.0203125
EXTRACT: note_off channel=9 note=44 velocity=50 time=0.125
EXTRACT: note_on channel=9 note=35 velocity=120 time=0.078125
EXTRACT: note_on channel=9 note=36 velocity=120 time=0
EXTRACT: note_on channel=9 note=44 velocity=60 time=0
EXTRACT: note_off channel=0 note=52 velocity=80 time=0
EXTRACT: note_off channel=0 note=57 velocity=80 time=0
EXTRACT: note_off channel=0 note=59 velocity=80 time=0
EXTRACT: note_on channel=0 note=59 velocity=100 time=0
EXTRACT: note_on channel=0 note=54 velocity=100 time=0
EXTRACT: note_off channel=1 note=57 velocity=80 time=0
EXTRACT: note_off channel=1 note=45 velocity=80 time=0
EXTRACT: note_off channel=1 note=52 velocity=80 time=0
EXTRACT: note_on channel=1 note=47 velocity=100 time=0
EXTRACT: note_on channel=1 note=59 velocity=100 time=0
EXTRACT: note_off channel=2 note=52 velocity=80 time=0
EXTRACT: note_off channel=2 note=57 velocity=80 time=0
EXTRACT: note_off channel=2 note=59 velocity=80 time=0
EXTRACT: note_on channel=2 note=59 velocity=100 time=0
EXTRACT: note_on channel=2 note=54 velocity=100 time=0
EXTRACT: note_off channel=4 note=69 velocity=80 time=0
EXTRACT: note_off channel=4 note=57 velocity=80 time=0
EXTRACT: note_off channel=4 note=64 velocity=80 time=0
EXTRACT: note_on channel=4 note=59 velocity=100 time=0
EXTRACT: note_on channel=4 note=71 velocity=100 time=0
EXTRACT: note_off channel=9 note=44 velocity=50 time=0.125
EXTRACT: note_off channel=9 note=36 velocity=100 time=0
EXTRACT: note_off channel=9 note=35 velocity=100 time=0
EXTRACT: note_on channel=9 note=44 velocity=60 time=0.05625
EXTRACT: note_off channel=9 note=44 velocity=50 time=0.125
EXTRACT: note_on channel=9 note=82 velocity=50 time=0.078125
EXTRACT: note_on channel=9 note=44 velocity=60 time=0
EXTRACT: note_off channel=9 note=44 velocity=50 time=0.125
EXTRACT: note_off channel=9 note=82 velocity=40 time=0
EXTRACT: note_on channel=9 note=35 velocity=120 time=0.037500000000000006
EXTRACT: note_on channel=9 note=36 velocity=120 time=0
EXTRACT: note_on channel=9 note=44 velocity=60 time=0
EXTRACT: note_off channel=9 note=44 velocity=50 time=0.125
EXTRACT: note_off channel=9 note=36 velocity=100 time=0
EXTRACT: note_off channel=9 note=35 velocity=100 time=0
EXTRACT: note_on channel=9 note=85 velocity=120 time=0.078125
EXTRACT: note_on channel=9 note=39 velocity=120 time=0
EXTRACT: note_on channel=9 note=82 velocity=50 time=0
EXTRACT: note_on channel=9 note=54 velocity=100 time=0
EXTRACT: note_on channel=9 note=28 velocity=100 time=0
EXTRACT: note_on channel=9 note=44 velocity=60 time=0
EXTRACT: note_on channel=3 note=68 velocity=100 time=0
EXTRACT: note_off channel=3 note=71 velocity=80 time=0.1203125
EXTRACT: note_off channel=5 note=66 velocity=80 time=0
EXTRACT: note_off channel=9 note=44 velocity=50 time=0.004687500000000001
EXTRACT: note_off channel=9 note=28 velocity=80 time=0
EXTRACT: note_off channel=9 note=54 velocity=80 time=0
EXTRACT: note_off channel=9 note=82 velocity=40 time=0
EXTRACT: note_off channel=9 note=39 velocity=100 time=0
EXTRACT: note_off channel=9 note=85 velocity=100 time=0
EXTRACT: note_off channel=5 note=63 velocity=80 time=0.035937500000000004
EXTRACT: note_on channel=9 note=44 velocity=60 time=0.009375000000000001
EXTRACT: note_off channel=9 note=44 velocity=50 time=0.125
EXTRACT: note_on channel=9 note=44 velocity=60 time=0.078125
EXTRACT: note_off channel=0 note=54 velocity=80 time=0
EXTRACT: note_off channel=0 note=59 velocity=80 time=0
EXTRACT: note_on channel=0 note=59 velocity=100 time=0
EXTRACT: note_on channel=0 note=54 velocity=100 time=0
EXTRACT: note_off channel=2 note=54 velocity=80 time=0
EXTRACT: note_off channel=2 note=59 velocity=80 time=0
EXTRACT: note_on channel=2 note=59 velocity=100 time=0
EXTRACT: note_on channel=2 note=54 velocity=100 time=0
EXTRACT: note_on channel=3 note=66 velocity=100 time=0
EXTRACT: note_off channel=3 note=68 velocity=80 time=0.0203125
EXTRACT: note_off channel=9 note=44 velocity=50 time=0.1046875
EXTRACT: note_on channel=9 note=82 velocity=50 time=0.028125
EXTRACT: note_on channel=9 note=44 velocity=60 time=0
EXTRACT: note_off channel=9 note=44 velocity=50 time=0.125
EXTRACT: note_off channel=9 note=82 velocity=40 time=0
EXTRACT: note_on channel=9 note=44 velocity=60 time=0.078125
EXTRACT: note_on channel=1 note=51 velocity=100 time=0
EXTRACT: note_on channel=4 note=63 velocity=100 time=0
EXTRACT: note_off channel=9 note=44 velocity=50 time=0.125
EXTRACT: note_on channel=9 note=82 velocity=50 time=0.05625
EXTRACT: note_on channel=9 note=44 velocity=60 time=0
EXTRACT: note_off channel=9 note=44 velocity=50 time=0.125
EXTRACT: note_off channel=9 note=82 velocity=40 time=0
EXTRACT: note_on channel=9 note=35 velocity=120 time=0.078125
EXTRACT: note_on channel=9 note=36 velocity=120 time=0
EXTRACT: note_on channel=9 note=82 velocity=50 time=0
EXTRACT: note_on channel=9 note=44 velocity=60 time=0
EXTRACT: note_off channel=9 note=44 velocity=50 time=0.125
EXTRACT: note_off channel=9 note=82 velocity=40 time=0
EXTRACT: note_off channel=9 note=36 velocity=100 time=0
EXTRACT: note_off channel=9 note=35 velocity=100 time=0
EXTRACT: note_on channel=9 note=44 velocity=60 time=0.037500000000000006
EXTRACT: note_off channel=9 note=44 velocity=50 time=0.125
EXTRACT: note_off channel=0 note=54 velocity=80 time=0.037500000000000006
EXTRACT: note_off channel=2 note=54 velocity=80 time=0
EXTRACT: note_off channel=0 note=59 velocity=80 time=0.0203125
EXTRACT: note_off channel=2 note=59 velocity=80 time=0
EXTRACT: note_on channel=9 note=85 velocity=120 time=0.0203125
EXTRACT: note_on channel=9 note=39 velocity=120 time=0
EXTRACT: note_on channel=9 note=54 velocity=100 time=0
EXTRACT: note_on channel=9 note=28 velocity=100 time=0
EXTRACT: note_on channel=9 note=44 velocity=60 time=0
EXTRACT: note_on channel=0 note=59 velocity=100 time=0
EXTRACT: note_on channel=0 note=54 velocity=100 time=0
EXTRACT: note_on channel=1 note=54 velocity=100 time=0
EXTRACT: note_on channel=2 note=59 velocity=100 time=0
EXTRACT: note_on channel=2 note=54 velocity=100 time=0
EXTRACT: note_on channel=4 note=66 velocity=100 time=0
EXTRACT: note_on channel=3 note=73 velocity=100 time=0
EXTRACT: note_on channel=5 note=68 velocity=100 time=0
EXTRACT: note_on channel=5 note=64 velocity=100 time=0
EXTRACT: note_off channel=3 note=66 velocity=80 time=0.0203125
EXTRACT: note_off channel=9 note=44 velocity=50 time=0.1046875
EXTRACT: note_off channel=9 note=28 velocity=80 time=0
EXTRACT: note_off channel=9 note=54 velocity=80 time=0
EXTRACT: note_off channel=9 note=39 velocity=100 time=0
EXTRACT: note_off channel=9 note=85 velocity=100 time=0
EXTRACT: note_off channel=1 note=51 velocity=80 time=0.015625
EXTRACT: note_off channel=4 note=63 velocity=80 time=0
EXTRACT: note_on channel=9 note=44 velocity=60 time=0.00625
EXTRACT: note_off channel=9 note=44 velocity=50 time=0.125
EXTRACT: note_off channel=5 note=64 velocity=80 time=0.0578125
EXTRACT: note_on channel=9 note=44 velocity=60 time=0.0203125
EXTRACT: note_on channel=3 note=71 velocity=100 time=0
EXTRACT: note_on channel=5 note=66 velocity=100 time=0
EXTRACT: note_on channel=5 note=63 velocity=100 time=0
EXTRACT: note_off channel=3 note=73 velocity=80 time=0.060937500000000006
EXTRACT: note_off channel=5 note=68 velocity=80 time=0
EXTRACT: note_off channel=9 note=44 velocity=50 time=0.06406250000000001
EXTRACT: note_on channel=9 note=44 velocity=60 time=0.037500000000000006
EXTRACT: note_off channel=9 note=44 velocity=50 time=0.1171875
EXTRACT: note_on channel=9 note=35 velocity=120 time=0.078125
EXTRACT: note_on channel=9 note=36 velocity=120 time=0
EXTRACT: note_on channel=9 note=44 velocity=60 time=0
EXTRACT: note_off channel=0 note=54 velocity=80 time=0
EXTRACT: note_off channel=0 note=59 velocity=80 time=0
EXTRACT: note_on channel=0 note=61 velocity=100 time=0
EXTRACT: note_on channel=0 note=56 velocity=100 time=0
EXTRACT: note_on channel=0 note=52 velocity=100 time=0
EXTRACT: note_off channel=1 note=59 velocity=80 time=0
EXTRACT: note_off channel=1 note=47 velocity=80 time=0
EXTRACT: note_off channel=1 note=54 velocity=80 time=0
EXTRACT: note_on channel=1 note=49 velocity=100 time=0
EXTRACT: note_on channel=1 note=61 velocity=100 time=0
EXTRACT: note_off channel=2 note=54 velocity=80 time=0
EXTRACT: note_off channel=2 note=59 velocity=80 time=0
EXTRACT: note_on channel=2 note=61 velocity=100 time=0
EXTRACT: note_on channel=2 note=56 velocity=100 time=0
EXTRACT: note_on channel=2 note=52 velocity=100 time=0
EXTRACT: note_off channel=4 note=71 velocity=80 time=0
EXTRACT: note_off channel=4 note=59 velocity=80 time=0
EXTRACT: note_off channel=4 note=66 velocity=80 time=0
EXTRACT: note_on channel=4 note=61 velocity=100 time=0
EXTRACT: note_on channel=4 note=73 velocity=100 time=0
EXTRACT: note_off channel=9 note=44 velocity=50 time=0.125
EXTRACT: note_off channel=9 note=36 velocity=100 time=0
EXTRACT: note_off channel=9 note=35 velocity=100 time=0
EXTRACT: note_on channel=9 note=44 velocity=60 time=0.05625
EXTRACT: note_off channel=9 note=44 velocity=50 time=0.125
EXTRACT: note_on channel=9 note=82 velocity=50 time=0.078125
EXTRACT: note_on channel=9 note=44 velocity=60 time=0
EXTRACT: note_off channel=9 note=44 velocity=50 time=0.125
EXTRACT: note_off channel=9 note=82 velocity=40 time=0
EXTRACT: note_on channel=9 note=35 velocity=120 time=0.037500000000000006
EXTRACT: note_on channel=9 note=36 velocity=120 time=0
EXTRACT: note_on channel=9 note=44 velocity=60 time=0
EXTRACT: note_off channel=9 note=44 velocity=50 time=0.125
EXTRACT: note_off channel=9 note=36 velocity=100 time=0
EXTRACT: note_off channel=9 note=35 velocity=100 time=0
EXTRACT: note_on channel=9 note=85 velocity=120 time=0.078125
EXTRACT: note_on channel=9 note=39 velocity=120 time=0
EXTRACT: note_on channel=9 note=82 velocity=50 time=0
EXTRACT: note_on channel=9 note=54 velocity=100 time=0
EXTRACT: note_on channel=9 note=28 velocity=100 time=0
EXTRACT: note_on channel=9 note=44 velocity=60 time=0
EXTRACT: note_on channel=3 note=68 velocity=100 time=0
EXTRACT: note_off channel=5 note=63 velocity=80 time=0.059375000000000004
EXTRACT: note_off channel=3 note=71 velocity=80 time=0.0203125
EXTRACT: note_off channel=5 note=66 velocity=80 time=0
EXTRACT: note_off channel=9 note=44 velocity=50 time=0.045312500000000006
EXTRACT: note_off channel=9 note=28 velocity=80 time=0
EXTRACT: note_off channel=9 note=54 velocity=80 time=0
EXTRACT: note_off channel=9 note=82 velocity=40 time=0
EXTRACT: note_off channel=9 note=39 velocity=100 time=0
EXTRACT: note_off channel=9 note=85 velocity=100 time=0
EXTRACT: note_on channel=9 note=44 velocity=60 time=0.05625
EXTRACT: note_on channel=3 note=66 velocity=100 time=0
EXTRACT: note_off channel=3 note=68 velocity=80 time=0.060937500000000006
EXTRACT: note_off channel=9 note=44 velocity=50 time=0.0546875
EXTRACT: note_on channel=9 note=44 velocity=60 time=0.078125
EXTRACT: note_off channel=0 note=52 velocity=80 time=0
EXTRACT: note_off channel=0 note=56 velocity=80 time=0
EXTRACT: note_off channel=0 note=61 velocity=80 time=0
EXTRACT: note_on channel=0 note=61 velocity=100 time=0
EXTRACT: note_on channel=0 note=56 velocity=100 time=0
EXTRACT: note_on channel=0 note=52 velocity=100 time=0
EXTRACT: note_off channel=2 note=52 velocity=80 time=0
EXTRACT: note_off channel=2 note=56 velocity=80 time=0
EXTRACT: note_off channel=2 note=61 velocity=80 time=0
EXTRACT: note_on channel=2 note=61 velocity=100 time=0
EXTRACT: note_on channel=2 note=56 velocity=100 time=0
EXTRACT: note_on channel=2 note=52 velocity=100 time=0
EXTRACT: note_on channel=3 note=68 velocity=100 time=0
EXTRACT: note_off channel=3 note=66 velocity=80 time=0.12187500000000001
EXTRACT: note_off channel=9 note=44 velocity=50 time=0.003125
EXTRACT: note_on channel=9 note=82 velocity=50 time=0.037500000000000006
EXTRACT: note_on channel=9 note=44 velocity=60 time=0
EXTRACT: note_on channel=3 note=66 velocity=100 time=0
EXTRACT: note_off channel=3 note=68 velocity=80 time=0.0859375
EXTRACT: note_off channel=9 note=44 velocity=50 time=0.0234375
EXTRACT: note_off channel=9 note=82 velocity=40 time=0
EXTRACT: note_on channel=9 note=44 velocity=60 time=0.078125
EXTRACT: note_on channel=1 note=52 velocity=100 time=0
EXTRACT: note_on channel=4 note=64 velocity=100 time=0
EXTRACT: note_off channel=9 note=44 velocity=50 time=0.125
EXTRACT: note_on channel=9 note=82 velocity=50 time=0.05625
EXTRACT: note_on channel=9 note=44 velocity=60 time=0
EXTRACT: note_off channel=9 note=44 velocity=50 time=0.125
EXTRACT: note_off channel=9 note=82 velocity=40 time=0
EXTRACT: note_on channel=9 note=35 velocity=120 time=0.078125
EXTRACT: note_on channel=9 note=36 velocity=120 time=0
EXTRACT: note_on channel=9 note=82 velocity=50 time=0
EXTRACT: note_on channel=9 note=44 velocity=60 time=0
EXTRACT: note_off channel=3 note=66 velocity=80 time=0
EXTRACT: note_on channel=3 note=68 velocity=100 time=0
EXTRACT: note_off channel=9 note=44 velocity=50 time=0.125
EXTRACT: note_off channel=9 note=82 velocity=40 time=0
EXTRACT: note_off channel=9 note=36 velocity=100 time=0
EXTRACT: note_off channel=9 note=35 velocity=100 time=0
EXTRACT: note_on channel=9 note=44 velocity=60 time=0.037500000000000006
EXTRACT: note_off channel=9 note=44 velocity=50 time=0.125
EXTRACT: note_off channel=0 note=52 velocity=80 time=0.0578125
EXTRACT: note_off channel=0 note=56 velocity=80 time=0
EXTRACT: note_off channel=0 note=61 velocity=80 time=0
EXTRACT: note_off channel=2 note=52 velocity=80 time=0
EXTRACT: note_off channel=2 note=56 velocity=80 time=0
EXTRACT: note_off channel=2 note=61 velocity=80 time=0
EXTRACT: note_on channel=9 note=85 velocity=120 time=0.0203125
EXTRACT: note_on channel=9 note=39 velocity=120 time=0
EXTRACT: note_on channel=9 note=54 velocity=100 time=0
EXTRACT: note_on channel=9 note=28 velocity=100 time=0
EXTRACT: note_on channel=9 note=44 velocity=60 time=0
EXTRACT: note_on channel=0 note=61 velocity=100 time=0
EXTRACT: note_on channel=0 note=56 velocity=100 time=0
EXTRACT: note_on channel=0 note=52 velocity=100 time=0
EXTRACT: note_on channel=1 note=56 velocity=100 time=0
EXTRACT: note_on channel=2 note=61 velocity=100 time=0
EXTRACT: note_on channel=2 note=56 velocity=100 time=0
EXTRACT: note_on channel=2 note=52 velocity=100 time=0
EXTRACT: note_on channel=4 note=68 velocity=100 time=0
EXTRACT: note_off channel=9 note=44 velocity=50 time=0.125
EXTRACT: note_off channel=9 note=28 velocity=80 time=0
EXTRACT: note_off channel=9 note=54 velocity=80 time=0
EXTRACT: note_off channel=9 note=39 velocity=100 time=0
EXTRACT: note_off channel=9 note=85 velocity=100 time=0
EXTRACT: note_off channel=1 note=52 velocity=80 time=0.009375000000000001
EXTRACT: note_off channel=4 note=64 velocity=80 time=0
EXTRACT: note_on channel=9 note=44 velocity=60 time=0.040625
EXTRACT: note_off channel=9 note=44 velocity=50 time=0.125
EXTRACT: note_on channel=9 note=44 velocity=60 time=0.004687500000000001
EXTRACT: note_off channel=3 note=68 velocity=80 time=0
EXTRACT: note_on channel=3 note=69 velocity=100 time=0
EXTRACT: note_off channel=9 note=44 velocity=50 time=0.125
EXTRACT: note_on channel=9 note=44 velocity=60 time=0.037500000000000006
EXTRACT: note_off channel=9 note=44 velocity=50 time=0.125
EXTRACT: note_on channel=9 note=35 velocity=120 time=0.078125
EXTRACT: note_on channel=9 note=36 velocity=120 time=0
EXTRACT: note_on channel=9 note=44 velocity=60 time=0
EXTRACT: note_off channel=0 note=52 velocity=80 time=0
EXTRACT: note_off channel=0 note=56 velocity=80 time=0
EXTRACT: note_off channel=0 note=61 velocity=80 time=0
EXTRACT: note_on channel=0 note=54 velocity=100 time=0
EXTRACT: note_on channel=0 note=57 velocity=100 time=0
EXTRACT: note_off channel=1 note=49 velocity=80 time=0
EXTRACT: note_off channel=1 note=56 velocity=80 time=0
EXTRACT: note_on channel=1 note=50 velocity=100 time=0
EXTRACT: note_on channel=1 note=62 velocity=100 time=0
EXTRACT: note_off channel=2 note=52 velocity=80 time=0
EXTRACT: note_off channel=2 note=56 velocity=80 time=0
EXTRACT: note_off channel=2 note=61 velocity=80 time=0
EXTRACT: note_on channel=2 note=54 velocity=100 time=0
EXTRACT: note_on channel=2 note=57 velocity=100 time=0
EXTRACT: note_off channel=4 note=61 velocity=80 time=0
EXTRACT: note_off channel=4 note=68 velocity=80 time=0
EXTRACT: note_on channel=4 note=62 velocity=100 time=0
EXTRACT: note_on channel=4 note=74 velocity=100 time=0
EXTRACT: note_off channel=1 note=61 velocity=80 time=0.018750000000000003
EXTRACT: note_off channel=4 note=73 velocity=80 time=0
EXTRACT: note_off channel=9 note=44 velocity=50 time=0.10625000000000001
EXTRACT: note_off channel=9 note=36 velocity=100 time=0
EXTRACT: note_off channel=9 note=35 velocity=100 time=0
EXTRACT: note_on channel=9 note=44 velocity=60 time=0.05625
EXTRACT: note_off channel=9 note=44 velocity=50 time=0.125
EXTRACT: note_on channel=9 note=82 velocity=50 time=0.078125
EXTRACT: note_on channel=9 note=44 velocity=60 time=0
EXTRACT: note_on channel=3 note=68 velocity=100 time=0
EXTRACT: note_off channel=3 note=69 velocity=80 time=0.060937500000000006
EXTRACT: note_off channel=9 note=44 velocity=50 time=0.06406250000000001
EXTRACT: note_off channel=9 note=82 velocity=40 time=0
EXTRACT: note_on channel=9 note=35 velocity=120 time=0.037500000000000006
EXTRACT: note_on channel=9 note=36 velocity=120 time=0
EXTRACT: note_on channel=9 note=44 velocity=60 time=0
EXTRACT: note_off channel=9 note=44 velocity=50 time=0.08281250000000001
EXTRACT: note_off channel=9 note=36 velocity=100 time=0
EXTRACT: note_off channel=9 note=35 velocity=100 time=0
EXTRACT: note_on channel=9 note=85 velocity=120 time=0.078125
EXTRACT: note_on channel=9 note=39 velocity=120 time=0
EXTRACT: note_on channel=9 note=82 velocity=50 time=0
EXTRACT: note_on channel=9 note=54 velocity=100 time=0
EXTRACT: note_on channel=9 note=28 velocity=100 time=0
EXTRACT: note_on channel=9 note=44 velocity=60 time=0
EXTRACT: note_off channel=9 note=44 velocity=50 time=0.125
EXTRACT: note_off channel=9 note=28 velocity=80 time=0
EXTRACT: note_off channel=9 note=54 velocity=80 time=0
EXTRACT: note_off channel=9 note=82 velocity=40 time=0
EXTRACT: note_off channel=9 note=39 velocity=100 time=0
EXTRACT: note_off channel=9 note=85 velocity=100 time=0
EXTRACT: note_on channel=9 note=44 velocity=60 time=0.05625
EXTRACT: note_off channel=9 note=44 velocity=50 time=0.125
EXTRACT: note_on channel=9 note=44 velocity=60 time=0.078125
EXTRACT: note_off channel=0 note=57 velocity=80 time=0
EXTRACT: note_off channel=0 note=54 velocity=80 time=0
EXTRACT: note_on channel=0 note=57 velocity=100 time=0
EXTRACT: note_on channel=0 note=54 velocity=100 time=0
EXTRACT: note_off channel=2 note=57 velocity=80 time=0
EXTRACT: note_off channel=2 note=54 velocity=80 time=0
EXTRACT: note_on channel=2 note=57 velocity=100 time=0
EXTRACT: note_on channel=2 note=54 velocity=100 time=0
EXTRACT: note_on channel=3 note=66 velocity=100 time=0
EXTRACT: note_off channel=3 note=68 velocity=80 time=0.040625
EXTRACT: note_off channel=9 note=44 velocity=50 time=0.084375
EXTRACT: note_on channel=9 note=82 velocity=50 time=0.037500000000000006
EXTRACT: note_on channel=9 note=44 velocity=60 time=0
EXTRACT: note_off channel=9 note=44 velocity=50 time=0.009375000000000001
EXTRACT: note_off channel=9 note=82 velocity=40 time=0
EXTRACT: note_on channel=9 note=44 velocity=60 time=0.078125
EXTRACT: note_off channel=9 note=44 velocity=50 time=0.125
EXTRACT: note_on channel=9 note=82 velocity=50 time=0.05625
EXTRACT: note_on channel=9 note=44 velocity=60 time=0
EXTRACT: note_off channel=9 note=44 velocity=50 time=0.125
EXTRACT: note_off channel=9 note=82 velocity=40 time=0
EXTRACT: note_on channel=9 note=35 velocity=120 time=0.078125
EXTRACT: note_on channel=9 note=36 velocity=120 time=0
EXTRACT: note_on channel=9 note=82 velocity=50 time=0
EXTRACT: note_on channel=9 note=44 velocity=60 time=0
EXTRACT: note_on channel=3 note=68 velocity=100 time=0
EXTRACT: note_off channel=3 note=66 velocity=80 time=0.040625
EXTRACT: note_off channel=9 note=44 velocity=50 time=0.084375
EXTRACT: note_off channel=9 note=82 velocity=40 time=0
EXTRACT: note_off channel=9 note=36 velocity=100 time=0
EXTRACT: note_off channel=9 note=35 velocity=100 time=0
EXTRACT: note_on channel=9 note=44 velocity=60 time=0.037500000000000006
EXTRACT: note_off channel=9 note=44 velocity=50 time=0.125
EXTRACT: note_off channel=0 note=54 velocity=80 time=0.0578125
EXTRACT: note_off channel=0 note=57 velocity=80 time=0
EXTRACT: note_off channel=2 note=54 velocity=80 time=0
EXTRACT: note_off channel=2 note=57 velocity=80 time=0
EXTRACT: note_on channel=9 note=85 velocity=120 time=0.0203125
EXTRACT: note_on channel=9 note=39 velocity=120 time=0
EXTRACT: note_on channel=9 note=54 velocity=100 time=0
EXTRACT: note_on channel=9 note=28 velocity=100 time=0
EXTRACT: note_on channel=9 note=44 velocity=60 time=0
EXTRACT: note_on channel=0 note=57 velocity=100 time=0
EXTRACT: note_on channel=0 note=54 velocity=100 time=0
EXTRACT: note_on channel=2 note=57 velocity=100 time=0
EXTRACT: note_on channel=2 note=54 velocity=100 time=0
EXTRACT: note_on channel=3 note=66 velocity=100 time=0
EXTRACT: note_off channel=9 note=44 velocity=50 time=0.125
EXTRACT: note_off channel=9 note=28 velocity=80 time=0
EXTRACT: note_off channel=9 note=54 velocity=80 time=0
EXTRACT: note_off channel=9 note=39 velocity=100 time=0
EXTRACT: note_off channel=9 note=85 velocity=100 time=0
EXTRACT: note_off channel=3 note=68 velocity=80 time=0.015625
EXTRACT: note_on channel=9 note=44 velocity=60 time=0.040625
EXTRACT: note_off channel=9 note=44 velocity=50 time=0.0625
EXTRACT: note_off channel=3 note=66 velocity=80 time=0.0578125
EXTRACT: note_on channel=9 note=44 velocity=60 time=0.0203125
EXTRACT: note_on channel=3 note=64 velocity=100 time=0
EXTRACT: note_off channel=9 note=44 velocity=50 time=0.125
EXTRACT: note_on channel=9 note=44 velocity=60 time=0.037500000000000006
EXTRACT: note_off channel=9 note=44 velocity=50 time=0.125
EXTRACT: note_on channel=9 note=35 velocity=120 time=0.078125
EXTRACT: note_on channel=9 note=36 velocity=120 time=0
EXTRACT: note_off channel=0 note=54 velocity=80 time=0
EXTRACT: note_off channel=0 note=57 velocity=80 time=0
EXTRACT: note_on channel=0 note=64 velocity=100 time=0
EXTRACT: note_off channel=1 note=50 velocity=80 time=0
EXTRACT: note_off channel=1 note=62 velocity=80 time=0
EXTRACT: note_off channel=2 note=54 velocity=80 time=0
EXTRACT: note_off channel=2 note=57 velocity=80 time=0
EXTRACT: note_on channel=2 note=64 velocity=100 time=0
EXTRACT: note_off channel=4 note=62 velocity=80 time=0
EXTRACT: note_off channel=4 note=74 velocity=80 time=0
EXTRACT: note_off channel=3 note=64 velocity=80 time=0.1
EXTRACT: note_off channel=9 note=36 velocity=100 time=0.025
EXTRACT: note_off channel=9 note=35 velocity=100 time=0
EXTRACT: note_on channel=9 note=82 velocity=50 time=0.259375
EXTRACT: note_on channel=0 note=71 velocity=100 time=0
EXTRACT: note_on channel=2 note=71 velocity=100 time=0
EXTRACT: note_off channel=9 note=82 velocity=40 time=0.125
EXTRACT: note_on channel=9 note=35 velocity=120 time=0.037500000000000006
EXTRACT: note_on channel=9 note=36 velocity=120 time=0
EXTRACT: note_off channel=9 note=36 velocity=100 time=0.125
EXTRACT: note_off channel=9 note=35 velocity=100 time=0
EXTRACT: note_on channel=9 note=85 velocity=120 time=0.078125
EXTRACT: note_on channel=9 note=39 velocity=120 time=0
EXTRACT: note_on channel=9 note=82 velocity=50 time=0
EXTRACT: note_on channel=9 note=54 velocity=100 time=0
EXTRACT: note_on channel=9 note=28 velocity=100 time=0
EXTRACT: note_on channel=0 note=76 velocity=100 time=0
EXTRACT: note_on channel=2 note=76 velocity=100 time=0
EXTRACT: note_off channel=9 note=28 velocity=80 time=0.125
EXTRACT: note_off channel=9 note=54 velocity=80 time=0
EXTRACT: note_off channel=9 note=82 velocity=40 time=0
EXTRACT: note_off channel=9 note=39 velocity=100 time=0
EXTRACT: note_off channel=9 note=85 velocity=100 time=0
EXTRACT: note_on channel=3 note=64 velocity=100 time=0.05625
EXTRACT: note_off channel=3 note=64 velocity=80 time=0.125
EXTRACT: note_off channel=0 note=71 velocity=80 time=0.018750000000000003
EXTRACT: note_on channel=0 note=83 velocity=100 time=0
EXTRACT: note_off channel=2 note=71 velocity=80 time=0
EXTRACT: note_on channel=2 note=83 velocity=100 time=0
EXTRACT: note_on channel=3 note=64 velocity=100 time=0
EXTRACT: note_off channel=3 note=64 velocity=80 time=0.125
EXTRACT: note_on channel=9 note=82 velocity=50 time=0.025
EXTRACT: note_on channel=3 note=64 velocity=100 time=0
EXTRACT: note_off channel=9 note=82 velocity=40 time=0.125
EXTRACT: note_off channel=0 note=76 velocity=80 time=0.010937500000000001
EXTRACT: note_off channel=2 note=76 velocity=80 time=0
EXTRACT: note_off channel=0 note=64 velocity=80 time=0.060937500000000006
EXTRACT: note_on channel=0 note=59 velocity=100 time=0
EXTRACT: note_off channel=2 note=64 velocity=80 time=0
EXTRACT: note_on channel=2 note=59 velocity=100 time=0
EXTRACT: note_on channel=3 note=63 velocity=100 time=0
EXTRACT: note_off channel=3 note=64 velocity=80 time=0.0203125
EXTRACT: note_on channel=9 note=82 velocity=50 time=0.029687500000000002
EXTRACT: note_off channel=9 note=82 velocity=40 time=0.125
EXTRACT: note_off channel=0 note=83 velocity=80 time=0.0078125
EXTRACT: note_off channel=2 note=83 velocity=80 time=0
EXTRACT: note_off channel=3 note=63 velocity=80 time=0.0203125
EXTRACT: note_on channel=9 note=35 velocity=120 time=0.040625
EXTRACT: note_on channel=9 note=36 velocity=120 time=0
EXTRACT: note_on channel=9 note=82 velocity=50 time=0
EXTRACT: note_on channel=0 note=71 velocity=100 time=0
EXTRACT: note_on channel=2 note=71 velocity=100 time=0
EXTRACT: note_on channel=3 note=63 velocity=100 time=0
EXTRACT: note_off channel=9 note=82 velocity=40 time=0.125
EXTRACT: note_off channel=9 note=36 velocity=100 time=0
EXTRACT: note_off channel=9 note=35 velocity=100 time=0
EXTRACT: note_on channel=9 note=85 velocity=120 time=0.08125
EXTRACT: note_on channel=9 note=39 velocity=120 time=0
EXTRACT: note_on channel=9 note=54 velocity=100 time=0
EXTRACT: note_on channel=9 note=28 velocity=100 time=0
EXTRACT: note_on channel=0 note=75 velocity=100 time=0
EXTRACT: note_on channel=2 note=75 velocity=100 time=0
EXTRACT: note_on channel=3 note=64 velocity=100 time=0
EXTRACT: note_off channel=3 note=63 velocity=80 time=0.1
EXTRACT: note_off channel=9 note=28 velocity=80 time=0.025
EXTRACT: note_off channel=9 note=54 velocity=80 time=0
EXTRACT: note_off channel=9 note=39 velocity=100 time=0
EXTRACT: note_off channel=9 note=85 velocity=100 time=0
EXTRACT: note_off channel=3 note=64 velocity=80 time=0.065625
EXTRACT: note_off channel=0 note=71 velocity=80 time=0.0203125
EXTRACT: note_off channel=2 note=71 velocity=80 time=0
EXTRACT: note_on channel=0 note=76 velocity=100 time=0.060937500000000006
EXTRACT: note_on channel=2 note=76 velocity=100 time=0
EXTRACT: note_on channel=3 note=64 velocity=100 time=0
EXTRACT: note_off channel=0 note=75 velocity=80 time=0.1421875
EXTRACT: note_off channel=2 note=75 velocity=80 time=0
EXTRACT: note_on channel=9 note=35 velocity=120 time=0.17500000000000002
EXTRACT: note_on channel=9 note=36 velocity=120 time=0
EXTRACT: note_off channel=0 note=59 velocity=80 time=0
EXTRACT: note_on channel=0 note=61 velocity=100 time=0
EXTRACT: note_off channel=2 note=59 velocity=80 time=0
EXTRACT: note_on channel=2 note=61 velocity=100 time=0
EXTRACT: note_off channel=9 note=36 velocity=100 time=0.125
EXTRACT: note_off channel=9 note=35 velocity=100 time=0
EXTRACT: note_off channel=0 note=76 velocity=80 time=0.05625
EXTRACT: note_off channel=2 note=76 velocity=80 time=0
EXTRACT: note_on channel=9 note=82 velocity=50 time=0.203125
EXTRACT: note_on channel=0 note=73 velocity=100 time=0
EXTRACT: note_on channel=2 note=73 velocity=100 time=0
EXTRACT: note_off channel=9 note=82 velocity=40 time=0.125
EXTRACT: note_on channel=9 note=35 velocity=120 time=0.037500000000000006
EXTRACT: note_on channel=9 note=36 velocity=120 time=0
EXTRACT: note_off channel=9 note=36 velocity=100 time=0.125
EXTRACT: note_off channel=9 note=35 velocity=100 time=0
EXTRACT: note_on channel=9 note=85 velocity=120 time=0.078125
EXTRACT: note_on channel=9 note=39 velocity=120 time=0
EXTRACT: note_on channel=9 note=82 velocity=50 time=0
EXTRACT: note_on channel=9 note=54 velocity=100 time=0
EXTRACT: note_on channel=9 note=28 velocity=100 time=0
EXTRACT: note_on channel=0 note=76 velocity=100 time=0
EXTRACT: note_on channel=2 note=76 velocity=100 time=0
EXTRACT: note_off channel=3 note=64 velocity=80 time=0.0203125
EXTRACT: note_off channel=9 note=28 velocity=80 time=0.1046875
EXTRACT: note_off channel=9 note=54 velocity=80 time=0
EXTRACT: note_off channel=9 note=82 velocity=40 time=0
EXTRACT: note_off channel=9 note=39 velocity=100 time=0
EXTRACT: note_off channel=9 note=85 velocity=100 time=0
EXTRACT: note_off channel=0 note=73 velocity=80 time=0.15781250000000002
EXTRACT: note_off channel=2 note=73 velocity=80 time=0
EXTRACT: note_on channel=0 note=81 velocity=100 time=0.1015625
EXTRACT: note_on channel=2 note=81 velocity=100 time=0
EXTRACT: note_on channel=9 note=82 velocity=50 time=0.1625
EXTRACT: note_off channel=0 note=76 velocity=80 time=0.060937500000000006
EXTRACT: note_off channel=2 note=76 velocity=80 time=0
EXTRACT: note_off channel=9 note=82 velocity=40 time=0.06406250000000001
EXTRACT: note_off channel=0 note=61 velocity=80 time=0.078125
EXTRACT: note_on channel=0 note=57 velocity=100 time=0
EXTRACT: note_off channel=2 note=61 velocity=80 time=0
EXTRACT: note_on channel=2 note=57 velocity=100 time=0
EXTRACT: note_on channel=9 note=82 velocity=50 time=0.18125000000000002
EXTRACT: note_off channel=9 note=82 velocity=40 time=0.125
EXTRACT: note_on channel=9 note=35 velocity=120 time=0.078125
EXTRACT: note_on channel=9 note=36 velocity=120 time=0
EXTRACT: note_on channel=9 note=82 velocity=50 time=0
EXTRACT: note_on channel=0 note=80 velocity=100 time=0
EXTRACT: note_on channel=2 note=80 velocity=100 time=0
EXTRACT: note_off channel=0 note=81 velocity=80 time=0.040625
EXTRACT: note_off channel=2 note=81 velocity=80 time=0
EXTRACT: note_off channel=9 note=82 velocity=40 time=0.084375
EXTRACT: note_off channel=9 note=36 velocity=100 time=0
EXTRACT: note_off channel=9 note=35 velocity=100 time=0
EXTRACT: note_on channel=9 note=85 velocity=120 time=0.240625
EXTRACT: note_on channel=9 note=39 velocity=120 time=0
EXTRACT: note_on channel=9 note=54 velocity=100 time=0
EXTRACT: note_on channel=9 note=28 velocity=100 time=0
EXTRACT: note_on channel=0 note=78 velocity=100 time=0
EXTRACT: note_on channel=2 note=78 velocity=100 time=0
EXTRACT: note_off channel=9 note=28 velocity=80 time=0.125
EXTRACT: note_off channel=9 note=54 velocity=80 time=0
EXTRACT: note_off channel=9 note=39 velocity=100 time=0
EXTRACT: note_off channel=9 note=85 velocity=100 time=0
EXTRACT: note_off channel=0 note=80 velocity=80 time=0.15781250000000002
EXTRACT: note_off channel=2 note=80 velocity=80 time=0
EXTRACT: note_on channel=0 note=76 velocity=100 time=0.1015625
EXTRACT: note_on channel=2 note=76 velocity=100 time=0
EXTRACT: note_off channel=0 note=78 velocity=80 time=0.203125
EXTRACT: note_off channel=2 note=78 velocity=80 time=0
EXTRACT: note_on channel=9 note=35 velocity=120 time=0.1625
EXTRACT: note_on channel=9 note=36 velocity=120 time=0
EXTRACT: note_off channel=0 note=57 velocity=80 time=0
EXTRACT: note_on channel=0 note=64 velocity=100 time=0
EXTRACT: note_off channel=2 note=57 velocity=80 time=0
EXTRACT: note_on channel=2 note=64 velocity=100 time=0
EXTRACT: note_off channel=9 note=36 velocity=100 time=0.125
EXTRACT: note_off channel=9 note=35 velocity=100 time=0
EXTRACT: note_off channel=0 note=76 velocity=80 time=0.15781250000000002
EXTRACT: note_off channel=2 note=76 velocity=80 time=0
EXTRACT: note_on channel=9 note=82 velocity=50 time=0.1015625
EXTRACT: note_on channel=0 note=71 velocity=100 time=0
EXTRACT: note_on channel=2 note=71 velocity=100 time=0
EXTRACT: note_off channel=9 note=82 velocity=40 time=0.125
EXTRACT: note_on channel=9 note=35 velocity=120 time=0.037500000000000006
EXTRACT: note_on channel=9 note=36 velocity=120 time=0
EXTRACT: note_off channel=9 note=36 velocity=100 time=0.125
EXTRACT: note_off channel=9 note=35 velocity=100 time=0
EXTRACT: note_on channel=9 note=85 velocity=120 time=0.078125
EXTRACT: note_on channel=9 note=39 velocity=120 time=0
EXTRACT: note_on channel=9 note=82 velocity=50 time=0
EXTRACT: note_on channel=9 note=54 velocity=100 time=0
EXTRACT: note_on channel=9 note=28 velocity=100 time=0
EXTRACT: note_on channel=0 note=76 velocity=100 time=0
EXTRACT: note_on channel=1 note=44 velocity=100 time=0
EXTRACT: note_on channel=2 note=76 velocity=100 time=0
EXTRACT: note_on channel=4 note=56 velocity=100 time=0
EXTRACT: note_off channel=9 note=28 velocity=80 time=0.125
EXTRACT: note_off channel=9 note=54 velocity=80 time=0
EXTRACT: note_off channel=9 note=82 velocity=40 time=0
EXTRACT: note_off channel=9 note=39 velocity=100 time=0
EXTRACT: note_off channel=9 note=85 velocity=100 time=0
EXTRACT: note_off channel=0 note=71 velocity=80 time=0.259375
EXTRACT: note_on channel=0 note=83 velocity=100 time=0
EXTRACT: note_off channel=2 note=71 velocity=80 time=0
EXTRACT: note_on channel=2 note=83 velocity=100 time=0
EXTRACT: note_on channel=9 note=82 velocity=50 time=0.1625
EXTRACT: note_on channel=3 note=63 velocity=100 time=0
EXTRACT: note_off channel=9 note=82 velocity=40 time=0.109375
EXTRACT: note_off channel=3 note=63 velocity=80 time=0
EXTRACT: note_off channel=0 note=76 velocity=80 time=0.0171875
EXTRACT: note_off channel=2 note=76 velocity=80 time=0
EXTRACT: note_off channel=0 note=64 velocity=80 time=0.060937500000000006
EXTRACT: note_on channel=0 note=59 velocity=100 time=0
EXTRACT: note_on channel=1 note=42 velocity=100 time=0
EXTRACT: note_off channel=2 note=64 velocity=80 time=0
EXTRACT: note_on channel=2 note=59 velocity=100 time=0
EXTRACT: note_on channel=4 note=54 velocity=100 time=0
EXTRACT: note_on channel=3 note=63 velocity=100 time=0
EXTRACT: note_off channel=1 note=44 velocity=80 time=0
EXTRACT: note_off channel=4 note=56 velocity=80 time=0
EXTRACT: note_on channel=9 note=82 velocity=50 time=0.0203125
EXTRACT: note_off channel=9 note=82 velocity=40 time=0.125
EXTRACT: note_off channel=0 note=83 velocity=80 time=0.0171875
EXTRACT: note_off channel=2 note=83 velocity=80 time=0
EXTRACT: note_off channel=3 note=63 velocity=80 time=0.0203125
EXTRACT: note_on channel=9 note=35 velocity=120 time=0.040625
EXTRACT: note_on channel=9 note=36 velocity=120 time=0
EXTRACT: note_on channel=9 note=82 velocity=50 time=0
EXTRACT: note_on channel=0 note=71 velocity=100 time=0
EXTRACT: note_on channel=2 note=71 velocity=100 time=0
EXTRACT: note_on channel=3 note=63 velocity=100 time=0
EXTRACT: note_off channel=9 note=82 velocity=40 time=0.125
EXTRACT: note_off channel=9 note=36 velocity=100 time=0
EXTRACT: note_off channel=9 note=35 velocity=100 time=0
EXTRACT: note_on channel=9 note=85 velocity=120 time=0.225
EXTRACT: note_on channel=9 note=39 velocity=120 time=0
EXTRACT: note_on channel=9 note=54 velocity=100 time=0
EXTRACT: note_on channel=9 note=28 velocity=100 time=0
EXTRACT: note_on channel=0 note=75 velocity=100 time=0
EXTRACT: note_on channel=1 note=39 velocity=100 time=0
EXTRACT: note_on channel=2 note=75 velocity=100 time=0
EXTRACT: note_on channel=4 note=51 velocity=100 time=0
EXTRACT: note_on channel=3 note=64 velocity=100 time=0
EXTRACT: note_off channel=3 note=63 velocity=80 time=0.059375000000000004
EXTRACT: note_off channel=1 note=42 velocity=80 time=0.040625
EXTRACT: note_off channel=4 note=54 velocity=80 time=0
EXTRACT: note_off channel=9 note=28 velocity=80 time=0.025
EXTRACT: note_off channel=9 note=54 velocity=80 time=0
EXTRACT: note_off channel=9 note=39 velocity=100 time=0
EXTRACT: note_off channel=9 note=85 velocity=100 time=0
EXTRACT: note_off channel=0 note=71 velocity=80 time=0.1765625
EXTRACT: note_off channel=2 note=71 velocity=80 time=0
EXTRACT: note_on channel=0 note=76 velocity=100 time=0.060937500000000006
EXTRACT: note_on channel=2 note=76 velocity=100 time=0
EXTRACT: note_on channel=3 note=66 velocity=100 time=0
EXTRACT: note_off channel=3 note=64 velocity=80 time=0.060937500000000006
EXTRACT: note_off channel=0 note=75 velocity=80 time=0.08125
EXTRACT: note_off channel=2 note=75 velocity=80 time=0
EXTRACT: note_on channel=9 note=35 velocity=120 time=0.21250000000000002
EXTRACT: note_on channel=9 note=36 velocity=120 time=0
EXTRACT: note_off channel=0 note=59 velocity=80 time=0
EXTRACT: note_on channel=0 note=57 velocity=100 time=0
EXTRACT: note_on channel=0 note=69 velocity=100 time=0
EXTRACT: note_on channel=1 note=38 velocity=100 time=0
EXTRACT: note_off channel=2 note=59 velocity=80 time=0
EXTRACT: note_on channel=2 note=57 velocity=100 time=0
EXTRACT: note_on channel=2 note=69 velocity=100 time=0
EXTRACT: note_on channel=4 note=50 velocity=100 time=0
EXTRACT: note_off channel=1 note=39 velocity=80 time=0.018750000000000003
EXTRACT: note_off channel=4 note=51 velocity=80 time=0
EXTRACT: note_off channel=9 note=36 velocity=100 time=0.10625000000000001
EXTRACT: note_off channel=9 note=35 velocity=100 time=0
EXTRACT: note_on channel=9 note=82 velocity=50 time=0.259375
EXTRACT: note_on channel=3 note=68 velocity=100 time=0
EXTRACT: note_off channel=3 note=66 velocity=80 time=0.08125
EXTRACT: note_off channel=9 note=82 velocity=40 time=0.043750000000000004
EXTRACT: note_on channel=9 note=35 velocity=120 time=0.037500000000000006
EXTRACT: note_on channel=9 note=36 velocity=120 time=0
EXTRACT: note_off channel=9 note=36 velocity=100 time=0.07968750000000001
EXTRACT: note_off channel=9 note=35 velocity=100 time=0
EXTRACT: note_on channel=9 note=85 velocity=120 time=0.078125
EXTRACT: note_on channel=9 note=39 velocity=120 time=0
EXTRACT: note_on channel=9 note=82 velocity=50 time=0
EXTRACT: note_on channel=9 note=54 velocity=100 time=0
EXTRACT: note_on channel=9 note=28 velocity=100 time=0
EXTRACT: note_off channel=9 note=28 velocity=80 time=0.125
EXTRACT: note_off channel=9 note=54 velocity=80 time=0
EXTRACT: note_off channel=9 note=82 velocity=40 time=0
EXTRACT: note_off channel=9 note=39 velocity=100 time=0
EXTRACT: note_off channel=9 note=85 velocity=100 time=0
EXTRACT: note_off channel=3 note=68 velocity=80 time=0.1375
EXTRACT: note_on channel=9 note=82 velocity=50 time=0.284375
EXTRACT: note_off channel=9 note=82 velocity=40 time=0.125
EXTRACT: note_on channel=9 note=82 velocity=50 time=0.259375
EXTRACT: note_off channel=9 note=82 velocity=40 time=0.125
EXTRACT: note_on channel=9 note=35 velocity=120 time=0.078125
EXTRACT: note_on channel=9 note=36 velocity=120 time=0
EXTRACT: note_on channel=9 note=82 velocity=50 time=0
EXTRACT: note_off channel=9 note=82 velocity=40 time=0.125
EXTRACT: note_off channel=9 note=36 velocity=100 time=0
EXTRACT: note_off channel=9 note=35 velocity=100 time=0
EXTRACT: note_on channel=9 note=85 velocity=120 time=0.240625
EXTRACT: note_on channel=9 note=39 velocity=120 time=0
EXTRACT: note_on channel=9 note=54 velocity=100 time=0
EXTRACT: note_on channel=9 note=28 velocity=100 time=0
EXTRACT: note_on channel=3 note=61 velocity=100 time=0
EXTRACT: note_off channel=9 note=28 velocity=80 time=0.125
EXTRACT: note_off channel=9 note=54 velocity=80 time=0
EXTRACT: note_off channel=9 note=39 velocity=100 time=0
EXTRACT: note_off channel=9 note=85 velocity=100 time=0
EXTRACT: note_on channel=3 note=64 velocity=100 time=0.15781250000000002
EXTRACT: note_on channel=3 note=64 velocity=100 time=0
EXTRACT: note_off channel=3 note=61 velocity=80 time=0.0203125
EXTRACT: note_off channel=0 note=69 velocity=80 time=0.17343750000000002
EXTRACT: note_off channel=2 note=69 velocity=80 time=0
EXTRACT: note_off channel=0 note=76 velocity=80 time=0.0203125
EXTRACT: note_off channel=2 note=76 velocity=80 time=0
EXTRACT: note_on channel=9 note=35 velocity=120 time=0.0203125
EXTRACT: note_on channel=9 note=36 velocity=120 time=0
EXTRACT: note_on channel=9 note=44 velocity=60 time=0
EXTRACT: note_off channel=0 note=57 velocity=80 time=0
EXTRACT: note_on channel=0 note=56 velocity=100 time=0
EXTRACT: note_on channel=0 note=59 velocity=100 time=0
EXTRACT: note_on channel=0 note=52 velocity=120 time=0
EXTRACT: note_on channel=0 note=40 velocity=100 time=0
EXTRACT: note_off channel=1 note=38 velocity=80 time=0
EXTRACT: note_on channel=1 note=64 velocity=100 time=0
EXTRACT: note_on channel=1 note=52 velocity=100 time=0
EXTRACT: note_off channel=2 note=57 velocity=80 time=0
EXTRACT: note_on channel=2 note=56 velocity=100 time=0
EXTRACT: note_on channel=2 note=59 velocity=100 time=0
EXTRACT: note_on channel=2 note=52 velocity=120 time=0
EXTRACT: note_on channel=2 note=40 velocity=100 time=0
EXTRACT: note_off channel=4 note=50 velocity=80 time=0
EXTRACT: note_on channel=4 note=76 velocity=100 time=0
EXTRACT: note_on channel=4 note=64 velocity=100 time=0
EXTRACT: note_on channel=3 note=68 velocity=100 time=0
EXTRACT: note_off channel=3 note=64 velocity=80 time=0.0203125
EXTRACT: note_off channel=3 note=64 velocity=80 time=0.07968750000000001
EXTRACT: note_off channel=9 note=44 velocity=50 time=0.025
EXTRACT: note_off channel=9 note=36 velocity=100 time=0
EXTRACT: note_off channel=9 note=35 velocity=100 time=0
EXTRACT: note_on channel=9 note=44 velocity=60 time=0.040625
EXTRACT: note_off channel=9 note=44 velocity=50 time=0.125
EXTRACT: note_on channel=9 note=82 velocity=50 time=0.078125
EXTRACT: note_on channel=9 note=44 velocity=60 time=0
EXTRACT: note_on channel=3 note=66 velocity=100 time=0
EXTRACT: note_off channel=3 note=68 velocity=80 time=0.0203125
EXTRACT: note_off channel=9 note=44 velocity=50 time=0.1046875
EXTRACT: note_off channel=9 note=82 velocity=40 time=0
EXTRACT: note_on channel=9 note=35 velocity=120 time=0.034375
EXTRACT: note_on channel=9 note=36 velocity=120 time=0
EXTRACT: note_on channel=9 note=44 velocity=60 time=0
EXTRACT: note_off channel=9 note=44 velocity=50 time=0.125
EXTRACT: note_off channel=9 note=36 velocity=100 time=0
EXTRACT: note_off channel=9 note=35 velocity=100 time=0
EXTRACT: note_off channel=3 note=66 velocity=80 time=0.0578125
EXTRACT: note_on channel=9 note=85 velocity=120 time=0.0203125
EXTRACT: note_on channel=9 note=39 velocity=120 time=0
EXTRACT: note_on channel=9 note=82 velocity=50 time=0
EXTRACT: note_on channel=9 note=54 velocity=100 time=0
EXTRACT: note_on channel=9 note=28 velocity=100 time=0
EXTRACT: note_on channel=9 note=44 velocity=60 time=0
EXTRACT: note_off channel=0 note=59 velocity=80 time=0
EXTRACT: note_off channel=0 note=56 velocity=80 time=0
EXTRACT: note_on channel=0 note=56 velocity=100 time=0
EXTRACT: note_on channel=0 note=59 velocity=100 time=0
EXTRACT: note_off channel=2 note=59 velocity=80 time=0
EXTRACT: note_off channel=2 note=56 velocity=80 time=0
EXTRACT: note_on channel=2 note=56 velocity=100 time=0
EXTRACT: note_on channel=2 note=59 velocity=100 time=0
EXTRACT: note_on channel=3 note=66 velocity=100 time=0
EXTRACT: note_off channel=9 note=44 velocity=50 time=0.125
EXTRACT: note_off channel=9 note=28 velocity=80 time=0
EXTRACT: note_off channel=9 note=54 velocity=80 time=0
EXTRACT: note_off channel=9 note=82 velocity=40 time=0
EXTRACT: note_off channel=9 note=39 velocity=100 time=0
EXTRACT: note_off channel=9 note=85 velocity=100 time=0
EXTRACT: note_on channel=9 note=44 velocity=60 time=0.045312500000000006
EXTRACT: note_off channel=9 note=44 velocity=50 time=0.125
EXTRACT: note_on channel=9 note=44 velocity=60 time=0.078125
EXTRACT: note_on channel=3 note=64 velocity=100 time=0
EXTRACT: note_off channel=3 note=66 velocity=80 time=0.0203125
EXTRACT: note_off channel=9 note=44 velocity=50 time=0.018750000000000003
EXTRACT: note_on channel=9 note=82 velocity=50 time=0.037500000000000006
EXTRACT: note_on channel=9 note=44 velocity=60 time=0
EXTRACT: note_off channel=9 note=44 velocity=50 time=0.125
EXTRACT: note_off channel=9 note=82 velocity=40 time=0
EXTRACT: note_on channel=9 note=44 velocity=60 time=0.078125
EXTRACT: note_on channel=0 note=54 velocity=100 time=0
EXTRACT: note_on channel=0 note=51 velocity=100 time=0
EXTRACT: note_on channel=0 note=47 velocity=120 time=0
EXTRACT: note_on channel=0 note=35 velocity=100 time=0
EXTRACT: note_off channel=1 note=52 velocity=80 time=0
EXTRACT: note_off channel=1 note=64 velocity=80 time=0
EXTRACT: note_on channel=1 note=47 velocity=100 time=0
EXTRACT: note_on channel=1 note=59 velocity=100 time=0
EXTRACT: note_on channel=2 note=54 velocity=100 time=0
EXTRACT: note_on channel=2 note=51 velocity=100 time=0
EXTRACT: note_on channel=2 note=47 velocity=120 time=0
EXTRACT: note_on channel=2 note=35 velocity=100 time=0
EXTRACT: note_off channel=4 note=64 velocity=80 time=0
EXTRACT: note_off channel=4 note=76 velocity=80 time=0
EXTRACT: note_on channel=4 note=59 velocity=100 time=0
EXTRACT: note_on channel=4 note=71 velocity=100 time=0
EXTRACT: note_on channel=3 note=66 velocity=100 time=0
EXTRACT: note_off channel=0 note=40 velocity=80 time=0.018750000000000003
EXTRACT: note_off channel=2 note=40 velocity=80 time=0
EXTRACT: note_off channel=3 note=64 velocity=80 time=0.0015625
EXTRACT: note_off channel=0 note=59 velocity=80 time=0.018750000000000003
EXTRACT: note_off channel=2 note=59 velocity=80 time=0
EXTRACT: note_off channel=0 note=52 velocity=120 time=0.0203125
EXTRACT: note_off channel=0 note=56 velocity=80 time=0
EXTRACT: note_off channel=2 note=52 velocity=120 time=0
EXTRACT: note_off channel=2 note=56 velocity=80 time=0
EXTRACT: note_off channel=9 note=44 velocity=50 time=0.065625
EXTRACT: note_on channel=9 note=82 velocity=50 time=0.015625
EXTRACT: note_on channel=9 note=44 velocity=60 time=0
EXTRACT: note_off channel=9 note=44 velocity=50 time=0.125
EXTRACT: note_off channel=9 note=82 velocity=40 time=0
EXTRACT: note_on channel=9 note=35 velocity=120 time=0.078125
EXTRACT: note_on channel=9 note=36 velocity=120 time=0
EXTRACT: note_on channel=9 note=82 velocity=50 time=0
EXTRACT: note_on channel=9 note=44 velocity=60 time=0
EXTRACT: note_off channel=9 note=44 velocity=50 time=0.125
EXTRACT: note_off channel=9 note=82 velocity=40 time=0
EXTRACT: note_off channel=9 note=36 velocity=100 time=0
EXTRACT: note_off channel=9 note=35 velocity=100 time=0
EXTRACT: note_on channel=9 note=44 velocity=60 time=0.037500000000000006
EXTRACT: note_off channel=9 note=44 velocity=50 time=0.125
EXTRACT: note_off channel=0 note=54 velocity=80 time=0.037500000000000006
EXTRACT: note_off channel=2 note=54 velocity=80 time=0
EXTRACT: note_on channel=9 note=85 velocity=120 time=0.040625
EXTRACT: note_on channel=9 note=39 velocity=120 time=0
EXTRACT: note_on channel=9 note=54 velocity=100 time=0
EXTRACT: note_on channel=9 note=28 velocity=100 time=0
EXTRACT: note_on channel=9 note=44 velocity=60 time=0
EXTRACT: note_off channel=0 note=51 velocity=80 time=0
EXTRACT: note_on channel=0 note=51 velocity=100 time=0
EXTRACT: note_on channel=0 note=54 velocity=100 time=0
EXTRACT: note_off channel=2 note=51 velocity=80 time=0
EXTRACT: note_on channel=2 note=51 velocity=100 time=0
EXTRACT: note_on channel=2 note=54 velocity=100 time=0
EXTRACT: note_on channel=5 note=61 velocity=100 time=0
EXTRACT: note_off channel=9 note=44 velocity=50 time=0.125
EXTRACT: note_off channel=9 note=28 velocity=80 time=0
EXTRACT: note_off channel=9 note=54 velocity=80 time=0
EXTRACT: note_off channel=9 note=39 velocity=100 time=0
EXTRACT: note_off channel=9 note=85 velocity=100 time=0
EXTRACT: note_on channel=9 note=44 velocity=60 time=0.05625
EXTRACT: note_off channel=9 note=44 velocity=50 time=0.125
EXTRACT: note_off channel=5 note=61 velocity=80 time=0.0171875
EXTRACT: note_on channel=9 note=44 velocity=60 time=0.060937500000000006
EXTRACT: note_on channel=5 note=59 velocity=100 time=0
EXTRACT: note_off channel=3 note=66 velocity=80 time=0.12187500000000001
EXTRACT: note_off channel=9 note=44 velocity=50 time=0.003125
EXTRACT: note_on channel=9 note=44 velocity=60 time=0.037500000000000006
EXTRACT: note_off channel=9 note=44 velocity=50 time=0.125
EXTRACT: note_off channel=0 note=35 velocity=80 time=0.037500000000000006
EXTRACT: note_off channel=2 note=35 velocity=80 time=0
EXTRACT: note_on channel=9 note=35 velocity=120 time=0.040625
EXTRACT: note_on channel=9 note=36 velocity=120 time=0
EXTRACT: note_on channel=9 note=44 velocity=60 time=0
EXTRACT: note_off channel=0 note=47 velocity=120 time=0
EXTRACT: note_off channel=0 note=51 velocity=80 time=0
EXTRACT: note_on channel=0 note=49 velocity=120 time=0
EXTRACT: note_on channel=0 note=56 velocity=100 time=0
EXTRACT: note_on channel=0 note=52 velocity=100 time=0
EXTRACT: note_on channel=0 note=37 velocity=100 time=0
EXTRACT: note_off channel=1 note=59 velocity=80 time=0
EXTRACT: note_off channel=1 note=47 velocity=80 time=0
EXTRACT: note_on channel=1 note=49 velocity=100 time=0
EXTRACT: note_on channel=1 note=61 velocity=100 time=0
EXTRACT: note_off channel=2 note=47 velocity=120 time=0
EXTRACT: note_off channel=2 note=51 velocity=80 time=0
EXTRACT: note_on channel=2 note=49 velocity=120 time=0
EXTRACT: note_on channel=2 note=56 velocity=100 time=0
EXTRACT: note_on channel=2 note=52 velocity=100 time=0
EXTRACT: note_on channel=2 note=37 velocity=100 time=0
EXTRACT: note_off channel=4 note=71 velocity=80 time=0
EXTRACT: note_off channel=4 note=59 velocity=80 time=0
EXTRACT: note_on channel=4 note=61 velocity=100 time=0
EXTRACT: note_on channel=4 note=73 velocity=100 time=0
EXTRACT: note_on channel=3 note=66 velocity=100 time=0
EXTRACT: note_off channel=0 note=54 velocity=80 time=0.018750000000000003
EXTRACT: note_off channel=2 note=54 velocity=80 time=0
EXTRACT: note_off channel=9 note=44 velocity=50 time=0.10625000000000001
EXTRACT: note_off channel=9 note=36 velocity=100 time=0
EXTRACT: note_off channel=9 note=35 velocity=100 time=0
EXTRACT: note_on channel=9 note=44 velocity=60 time=0.029687500000000002
EXTRACT: note_off channel=9 note=44 velocity=50 time=0.125
EXTRACT: note_on channel=9 note=82 velocity=50 time=0.078125
EXTRACT: note_on channel=9 note=44 velocity=60 time=0
EXTRACT: note_on channel=3 note=64 velocity=100 time=0
EXTRACT: note_off channel=3 note=66 velocity=80 time=0.0203125
EXTRACT: note_off channel=9 note=44 velocity=50 time=0.1046875
EXTRACT: note_off channel=9 note=82 velocity=40 time=0
EXTRACT: note_on channel=9 note=35 velocity=120 time=0.034375
EXTRACT: note_on channel=9 note=36 velocity=120 time=0
EXTRACT: note_on channel=9 note=44 velocity=60 time=0
EXTRACT: note_off channel=9 note=44 velocity=50 time=0.125
EXTRACT: note_off channel=9 note=36 velocity=100 time=0
EXTRACT: note_off channel=9 note=35 velocity=100 time=0
EXTRACT: note_off channel=3 note=64 velocity=80 time=0.0578125
EXTRACT: note_on channel=9 note=85 velocity=120 time=0.0203125
EXTRACT: note_on channel=9 note=39 velocity=120 time=0
EXTRACT: note_on channel=9 note=82 velocity=50 time=0
EXTRACT: note_on channel=9 note=54 velocity=100 time=0
EXTRACT: note_on channel=9 note=28 velocity=100 time=0
EXTRACT: note_on channel=9 note=44 velocity=60 time=0
EXTRACT: note_off channel=0 note=56 velocity=80 time=0
EXTRACT: note_off channel=0 note=52 velocity=80 time=0
EXTRACT: note_on channel=0 note=56 velocity=100 time=0
EXTRACT: note_on channel=0 note=52 velocity=100 time=0
EXTRACT: note_off channel=2 note=56 velocity=80 time=0
EXTRACT: note_off channel=2 note=52 velocity=80 time=0
EXTRACT: note_on channel=2 note=56 velocity=100 time=0
EXTRACT: note_on channel=2 note=52 velocity=100 time=0
EXTRACT: note_on channel=3 note=64 velocity=100 time=0
EXTRACT: note_off channel=5 note=59 velocity=80 time=0.0203125
EXTRACT: note_off channel=9 note=44 velocity=50 time=0.0140625
EXTRACT: note_off channel=9 note=28 velocity=80 time=0
EXTRACT: note_off channel=9 note=54 velocity=80 time=0
EXTRACT: note_off channel=9 note=82 velocity=40 time=0
EXTRACT: note_off channel=9 note=39 velocity=100 time=0
EXTRACT: note_off channel=9 note=85 velocity=100 time=0
EXTRACT: note_on channel=9 note=44 velocity=60 time=0.05625
EXTRACT: note_off channel=9 note=44 velocity=50 time=0.125
EXTRACT: note_on channel=9 note=44 velocity=60 time=0.078125
EXTRACT: note_on channel=3 note=59 velocity=100 time=0
EXTRACT: note_off channel=3 note=64 velocity=80 time=0.0203125
EXTRACT: note_off channel=9 note=44 velocity=50 time=0.0671875
EXTRACT: note_on channel=9 note=82 velocity=50 time=0.037500000000000006
EXTRACT: note_on channel=9 note=44 velocity=60 time=0
EXTRACT: note_off channel=9 note=44 velocity=50 time=0.125
EXTRACT: note_off channel=9 note=82 velocity=40 time=0
EXTRACT: note_on channel=9 note=44 velocity=60 time=0.078125
EXTRACT: note_off channel=0 note=52 velocity=80 time=0
EXTRACT: note_off channel=0 note=49 velocity=120 time=0
EXTRACT: note_off channel=0 note=37 velocity=80 time=0
EXTRACT: note_on channel=0 note=45 velocity=120 time=0
EXTRACT: note_on channel=0 note=49 velocity=100 time=0
EXTRACT: note_on channel=0 note=52 velocity=100 time=0
EXTRACT: note_on channel=0 note=33 velocity=100 time=0
EXTRACT: note_off channel=1 note=61 velocity=80 time=0
EXTRACT: note_off channel=1 note=49 velocity=80 time=0
EXTRACT: note_on channel=1 note=69 velocity=100 time=0
EXTRACT: note_on channel=1 note=57 velocity=100 time=0
EXTRACT: note_on channel=1 note=45 velocity=100 time=0
EXTRACT: note_off channel=2 note=52 velocity=80 time=0
EXTRACT: note_off channel=2 note=49 velocity=120 time=0
EXTRACT: note_off channel=2 note=37 velocity=80 time=0
EXTRACT: note_on channel=2 note=45 velocity=120 time=0
EXTRACT: note_on channel=2 note=49 velocity=100 time=0
EXTRACT: note_on channel=2 note=52 velocity=100 time=0
EXTRACT: note_on channel=2 note=33 velocity=100 time=0
EXTRACT: note_off channel=4 note=73 velocity=80 time=0
EXTRACT: note_off channel=4 note=61 velocity=80 time=0
EXTRACT: note_on channel=4 note=81 velocity=100 time=0
EXTRACT: note_on channel=4 note=69 velocity=100 time=0
EXTRACT: note_on channel=4 note=57 velocity=100 time=0
EXTRACT: note_on channel=3 note=63 velocity=100 time=0
EXTRACT: note_off channel=0 note=56 velocity=80 time=0.018750000000000003
EXTRACT: note_off channel=2 note=56 velocity=80 time=0
EXTRACT: note_off channel=3 note=59 velocity=80 time=0.0015625
EXTRACT: note_off channel=9 note=44 velocity=50 time=0.045312500000000006
EXTRACT: note_on channel=9 note=82 velocity=50 time=0.05625
EXTRACT: note_on channel=9 note=44 velocity=60 time=0
EXTRACT: note_off channel=9 note=44 velocity=50 time=0.125
EXTRACT: note_off channel=9 note=82 velocity=40 time=0
EXTRACT: note_on channel=9 note=35 velocity=120 time=0.078125
EXTRACT: note_on channel=9 note=36 velocity=120 time=0
EXTRACT: note_on channel=9 note=82 velocity=50 time=0
EXTRACT: note_on channel=9 note=44 velocity=60 time=0
EXTRACT: note_on channel=1 note=68 velocity=100 time=0
EXTRACT: note_on channel=4 note=80 velocity=100 time=0
EXTRACT: note_off channel=1 note=69 velocity=80 time=0.12187500000000001
EXTRACT: note_off channel=4 note=81 velocity=80 time=0
EXTRACT: note_off channel=9 note=44 velocity=50 time=0.003125
EXTRACT: note_off channel=9 note=82 velocity=40 time=0
EXTRACT: note_off channel=9 note=36 velocity=100 time=0
EXTRACT: note_off channel=9 note=35 velocity=100 time=0
EXTRACT: note_on channel=9 note=44 velocity=60 time=0.037500000000000006
EXTRACT: note_off channel=9 note=44 velocity=50 time=0.125
EXTRACT: note_on channel=9 note=85 velocity=120 time=0.078125
EXTRACT: note_on channel=9 note=39 velocity=120 time=0
EXTRACT: note_on channel=9 note=54 velocity=100 time=0
EXTRACT: note_on channel=9 note=28 velocity=100 time=0
EXTRACT: note_on channel=9 note=44 velocity=60 time=0
EXTRACT: note_off channel=0 note=49 velocity=80 time=0
EXTRACT: note_off channel=0 note=52 velocity=80 time=0
EXTRACT: note_on channel=0 note=49 velocity=100 time=0
EXTRACT: note_on channel=0 note=52 velocity=100 time=0
EXTRACT: note_on channel=1 note=66 velocity=100 time=0
EXTRACT: note_off channel=2 note=49 velocity=80 time=0
EXTRACT: note_off channel=2 note=52 velocity=80 time=0
EXTRACT: note_on channel=2 note=49 velocity=100 time=0
EXTRACT: note_on channel=2 note=52 velocity=100 time=0
EXTRACT: note_on channel=4 note=78 velocity=100 time=0
EXTRACT: note_on channel=3 note=64 velocity=100 time=0
EXTRACT: note_off channel=3 note=63 velocity=80 time=0.059375000000000004
EXTRACT: note_off channel=9 note=44 velocity=50 time=0.065625
EXTRACT: note_off channel=9 note=28 velocity=80 time=0
EXTRACT: note_off channel=9 note=54 velocity=80 time=0
EXTRACT: note_off channel=9 note=39 velocity=100 time=0
EXTRACT: note_off channel=9 note=85 velocity=100 time=0
EXTRACT: note_off channel=1 note=68 velocity=80 time=0.015625
EXTRACT: note_off channel=4 note=80 velocity=80 time=0
EXTRACT: note_on channel=9 note=44 velocity=60 time=0.003125
EXTRACT: note_off channel=9 note=44 velocity=50 time=0.125
EXTRACT: note_on channel=9 note=44 velocity=60 time=0.078125
EXTRACT: note_on channel=1 note=64 velocity=100 time=0
EXTRACT: note_on channel=4 note=76 velocity=100 time=0
EXTRACT: note_off channel=9 note=44 velocity=50 time=0.125
EXTRACT: note_off channel=1 note=66 velocity=80 time=0.0171875
EXTRACT: note_off channel=4 note=78 velocity=80 time=0
EXTRACT: note_on channel=9 note=44 velocity=60 time=0.0203125
EXTRACT: note_off channel=9 note=44 velocity=50 time=0.125
EXTRACT: note_off channel=1 note=64 velocity=80 time=0.0578125
EXTRACT: note_off channel=4 note=76 velocity=80 time=0
EXTRACT: note_on channel=9 note=35 velocity=120 time=0.0203125
EXTRACT: note_on channel=9 note=36 velocity=120 time=0
EXTRACT: note_on channel=9 note=44 velocity=60 time=0
EXTRACT: note_off channel=0 note=52 velocity=80 time=0
EXTRACT: note_off channel=0 note=33 velocity=80 time=0
EXTRACT: note_off channel=0 note=49 velocity=80 time=0
EXTRACT: note_on channel=0 note=56 velocity=100 time=0
EXTRACT: note_on channel=0 note=59 velocity=100 time=0
EXTRACT: note_on channel=0 note=52 velocity=120 time=0
EXTRACT: note_on channel=0 note=40 velocity=100 time=0
EXTRACT: note_off channel=1 note=57 velocity=80 time=0
EXTRACT: note_off channel=1 note=45 velocity=80 time=0
EXTRACT: note_on channel=1 note=64 velocity=100 time=0
EXTRACT: note_on channel=1 note=52 velocity=100 time=0
EXTRACT: note_off channel=2 note=52 velocity=80 time=0
EXTRACT: note_off channel=2 note=33 velocity=80 time=0
EXTRACT: note_off channel=2 note=49 velocity=80 time=0
EXTRACT: note_on channel=2 note=56 velocity=100 time=0
EXTRACT: note_on channel=2 note=59 velocity=100 time=0
EXTRACT: note_on channel=2 note=52 velocity=120 time=0
EXTRACT: note_on channel=2 note=40 velocity=100 time=0
EXTRACT: note_off channel=4 note=69 velocity=80 time=0
EXTRACT: note_off channel=4 note=57 velocity=80 time=0
EXTRACT: note_on channel=4 note=76 velocity=100 time=0
EXTRACT: note_on channel=4 note=64 velocity=100 time=0
EXTRACT: note_off channel=3 note=64 velocity=80 time=0
EXTRACT: note_off channel=0 note=45 velocity=120 time=0.018750000000000003
EXTRACT: note_off channel=2 note=45 velocity=120 time=0
EXTRACT: note_off channel=9 note=44 velocity=50 time=0.0328125
EXTRACT: note_off channel=9 note=36 velocity=100 time=0
EXTRACT: note_off channel=9 note=35 velocity=100 time=0
EXTRACT: note_on channel=9 note=44 velocity=60 time=0.05625
EXTRACT: note_on channel=3 note=68 velocity=100 time=0
EXTRACT: note_off channel=9 note=44 velocity=50 time=0.125
EXTRACT: note_on channel=9 note=82 velocity=50 time=0.078125
EXTRACT: note_on channel=9 note=44 velocity=60 time=0
EXTRACT: note_off channel=9 note=44 velocity=50 time=0.004687500000000001
EXTRACT: note_off channel=9 note=82 velocity=40 time=0
EXTRACT: note_on channel=9 note=35 velocity=120 time=0.037500000000000006
EXTRACT: note_on channel=9 note=36 velocity=120 time=0
EXTRACT: note_on channel=9 note=44 velocity=60 time=0
EXTRACT: note_on channel=3 note=66 velocity=100 time=0
EXTRACT: note_off channel=3 note=68 velocity=80 time=0.060937500000000006
EXTRACT: note_off channel=9 note=44 velocity=50 time=0.06406250000000001
EXTRACT: note_off channel=9 note=36 velocity=100 time=0
EXTRACT: note_off channel=9 note=35 velocity=100 time=0
EXTRACT: note_off channel=3 note=66 velocity=80 time=0.037500000000000006
EXTRACT: note_on channel=9 note=85 velocity=120 time=0.040625
EXTRACT: note_on channel=9 note=39 velocity=120 time=0
EXTRACT: note_on channel=9 note=82 velocity=50 time=0
EXTRACT: note_on channel=9 note=54 velocity=100 time=0
EXTRACT: note_on channel=9 note=28 velocity=100 time=0
EXTRACT: note_on channel=9 note=44 velocity=60 time=0
EXTRACT: note_off channel=0 note=56 velocity=80 time=0
EXTRACT: note_off channel=0 note=59 velocity=80 time=0
EXTRACT: note_on channel=0 note=56 velocity=100 time=0
EXTRACT: note_on channel=0 note=59 velocity=100 time=0
EXTRACT: note_off channel=2 note=56 velocity=80 time=0
EXTRACT: note_off channel=2 note=59 velocity=80 time=0
EXTRACT: note_on channel=2 note=56 velocity=100 time=0
EXTRACT: note_on channel=2 note=59 velocity=100 time=0
EXTRACT: note_on channel=3 note=66 velocity=100 time=0
EXTRACT: note_off channel=9 note=44 velocity=50 time=0.125
EXTRACT: note_off channel=9 note=28 velocity=80 time=0
EXTRACT: note_off channel=9 note=54 velocity=80 time=0
EXTRACT: note_off channel=9 note=82 velocity=40 time=0
EXTRACT: note_off channel=9 note=39 velocity=100 time=0
EXTRACT: note_off channel=9 note=85 velocity=100 time=0
EXTRACT: note_on channel=9 note=44 velocity=60 time=0.05625
EXTRACT: note_off channel=9 note=44 velocity=50 time=0.08750000000000001
EXTRACT: note_on channel=9 note=44 velocity=60 time=0.078125
EXTRACT: note_off channel=3 note=66 velocity=80 time=0.0203125
EXTRACT: note_off channel=9 note=44 velocity=50 time=0.1046875
EXTRACT: note_on channel=9 note=82 velocity=50 time=0.037500000000000006
EXTRACT: note_on channel=9 note=44 velocity=60 time=0
EXTRACT: note_on channel=3 note=64 velocity=100 time=0
EXTRACT: note_off channel=9 note=44 velocity=50 time=0.021875000000000002
EXTRACT: note_off channel=9 note=82 velocity=40 time=0
EXTRACT: note_on channel=9 note=44 velocity=60 time=0.078125
EXTRACT: note_on channel=0 note=54 velocity=100 time=0
EXTRACT: note_on channel=0 note=51 velocity=100 time=0
EXTRACT: note_on channel=0 note=47 velocity=120 time=0
EXTRACT: note_on channel=0 note=35 velocity=100 time=0
EXTRACT: note_off channel=1 note=52 velocity=80 time=0
EXTRACT: note_off channel=1 note=64 velocity=80 time=0
EXTRACT: note_on channel=1 note=47 velocity=100 time=0
EXTRACT: note_on channel=1 note=59 velocity=100 time=0
EXTRACT: note_on channel=2 note=54 velocity=100 time=0
EXTRACT: note_on channel=2 note=51 velocity=100 time=0
EXTRACT: note_on channel=2 note=47 velocity=120 time=0
EXTRACT: note_on channel=2 note=35 velocity=100 time=0
EXTRACT: note_off channel=4 note=64 velocity=80 time=0
EXTRACT: note_off channel=4 note=76 velocity=80 time=0
EXTRACT: note_on channel=4 note=59 velocity=100 time=0
EXTRACT: note_on channel=4 note=71 velocity=100 time=0
EXTRACT: note_on channel=3 note=63 velocity=100 time=0
EXTRACT: note_off channel=0 note=40 velocity=80 time=0.018750000000000003
EXTRACT: note_off channel=2 note=40 velocity=80 time=0
EXTRACT: note_off channel=0 note=59 velocity=80 time=0.0203125
EXTRACT: note_off channel=2 note=59 velocity=80 time=0
EXTRACT: note_off channel=0 note=52 velocity=120 time=0.0203125
EXTRACT: note_off channel=0 note=56 velocity=80 time=0
EXTRACT: note_off channel=2 note=52 velocity=120 time=0
EXTRACT: note_off channel=2 note=56 velocity=80 time=0
EXTRACT: note_off channel=3 note=64 velocity=80 time=0
EXTRACT: note_off channel=9 note=44 velocity=50 time=0.065625
EXTRACT: note_on channel=9 note=82 velocity=50 time=0.05625
EXTRACT: note_on channel=9 note=44 velocity=60 time=0
EXTRACT: note_on channel=3 note=61 velocity=100 time=0
EXTRACT: note_off channel=3 note=63 velocity=80 time=0.026562500000000003
EXTRACT: note_off channel=9 note=44 velocity=50 time=0.0234375
EXTRACT: note_off channel=9 note=82 velocity=40 time=0
EXTRACT: note_on channel=9 note=35 velocity=120 time=0.078125
EXTRACT: note_on channel=9 note=36 velocity=120 time=0
EXTRACT: note_on channel=9 note=82 velocity=50 time=0
EXTRACT: note_on channel=9 note=44 velocity=60 time=0
EXTRACT: note_off channel=9 note=44 velocity=50 time=0.125
EXTRACT: note_off channel=9 note=82 velocity=40 time=0
EXTRACT: note_off channel=9 note=36 velocity=100 time=0
EXTRACT: note_off channel=9 note=35 velocity=100 time=0
EXTRACT: note_on channel=9 note=44 velocity=60 time=0.037500000000000006
EXTRACT: note_off channel=9 note=44 velocity=50 time=0.125
EXTRACT: note_off channel=0 note=54 velocity=80 time=0.037500000000000006
EXTRACT: note_off channel=2 note=54 velocity=80 time=0
EXTRACT: note_on channel=9 note=85 velocity=120 time=0.040625
EXTRACT: note_on channel=9 note=39 velocity=120 time=0
EXTRACT: note_on channel=9 note=54 velocity=100 time=0
EXTRACT: note_on channel=9 note=28 velocity=100 time=0
EXTRACT: note_on channel=9 note=44 velocity=60 time=0
EXTRACT: note_off channel=0 note=51 velocity=80 time=0
EXTRACT: note_on channel=0 note=51 velocity=100 time=0
EXTRACT: note_on channel=0 note=54 velocity=100 time=0
EXTRACT: note_off channel=2 note=51 velocity=80 time=0
EXTRACT: note_on channel=2 note=51 velocity=100 time=0
EXTRACT: note_on channel=2 note=54 velocity=100 time=0
EXTRACT: note_on channel=5 note=61 velocity=100 time=0
EXTRACT: note_off channel=9 note=44 velocity=50 time=0.125
EXTRACT: note_off channel=9 note=28 velocity=80 time=0
EXTRACT: note_off channel=9 note=54 velocity=80 time=0
EXTRACT: note_off channel=9 note=39 velocity=100 time=0
EXTRACT: note_off channel=9 note=85 velocity=100 time=0
EXTRACT: note_on channel=9 note=44 velocity=60 time=0.05625
EXTRACT: note_off channel=9 note=44 velocity=50 time=0.125
EXTRACT: note_off channel=5 note=61 velocity=80 time=0.0171875
EXTRACT: note_on channel=9 note=44 velocity=60 time=0.060937500000000006
EXTRACT: note_on channel=5 note=59 velocity=100 time=0
EXTRACT: note_off channel=9 note=44 velocity=50 time=0.125
EXTRACT: note_on channel=9 note=44 velocity=60 time=0.037500000000000006
EXTRACT: note_off channel=9 note=44 velocity=50 time=0.125
EXTRACT: note_off channel=0 note=35 velocity=80 time=0.037500000000000006
EXTRACT: note_off channel=2 note=35 velocity=80 time=0
EXTRACT: note_off channel=3 note=61 velocity=80 time=0.0203125
EXTRACT: note_on channel=9 note=35 velocity=120 time=0.0203125
EXTRACT: note_on channel=9 note=36 velocity=120 time=0
EXTRACT: note_on channel=9 note=44 velocity=60 time=0
EXTRACT: note_off channel=0 note=47 velocity=120 time=0
EXTRACT: note_off channel=0 note=51 velocity=80 time=0
EXTRACT: note_on channel=0 note=49 velocity=120 time=0
EXTRACT: note_on channel=0 note=56 velocity=100 time=0
EXTRACT: note_on channel=0 note=52 velocity=100 time=0
EXTRACT: note_on channel=0 note=37 velocity=100 time=0
EXTRACT: note_off channel=1 note=59 velocity=80 time=0
EXTRACT: note_off channel=1 note=47 velocity=80 time=0
EXTRACT: note_on channel=1 note=49 velocity=100 time=0
EXTRACT: note_on channel=1 note=61 velocity=100 time=0
EXTRACT: note_off channel=2 note=47 velocity=120 time=0
EXTRACT: note_off channel=2 note=51 velocity=80 time=0
EXTRACT: note_on channel=2 note=49 velocity=120 time=0
EXTRACT: note_on channel=2 note=56 velocity=100 time=0
EXTRACT: note_on channel=2 note=52 velocity=100 time=0
EXTRACT: note_on channel=2 note=37 velocity=100 time=0
EXTRACT: note_off channel=4 note=71 velocity=80 time=0
EXTRACT: note_off channel=4 note=59 velocity=80 time=0
EXTRACT: note_on channel=4 note=61 velocity=100 time=0
EXTRACT: note_on channel=4 note=73 velocity=100 time=0
EXTRACT: note_on channel=3 note=63 velocity=100 time=0
EXTRACT: note_off channel=0 note=54 velocity=80 time=0.018750000000000003
EXTRACT: note_off channel=2 note=54 velocity=80 time=0
EXTRACT: note_off channel=9 note=44 velocity=50 time=0.10625000000000001
EXTRACT: note_off channel=9 note=36 velocity=100 time=0
EXTRACT: note_off channel=9 note=35 velocity=100 time=0
EXTRACT: note_on channel=9 note=44 velocity=60 time=0.0203125
EXTRACT: note_off channel=9 note=44 velocity=50 time=0.125
EXTRACT: note_on channel=9 note=82 velocity=50 time=0.078125
EXTRACT: note_on channel=9 note=44 velocity=60 time=0
EXTRACT: note_on channel=3 note=64 velocity=100 time=0
EXTRACT: note_off channel=3 note=63 velocity=80 time=0.0203125
EXTRACT: note_off channel=9 note=44 velocity=50 time=0.009375000000000001
EXTRACT: note_off channel=9 note=82 velocity=40 time=0
EXTRACT: note_on channel=9 note=35 velocity=120 time=0.037500000000000006
EXTRACT: note_on channel=9 note=36 velocity=120 time=0
EXTRACT: note_on channel=9 note=44 velocity=60 time=0
EXTRACT: note_off channel=9 note=44 velocity=50 time=0.125
EXTRACT: note_off channel=9 note=36 velocity=100 time=0
EXTRACT: note_off channel=9 note=35 velocity=100 time=0
EXTRACT: note_off channel=3 note=64 velocity=80 time=0.0578125
EXTRACT: note_on channel=9 note=85 velocity=120 time=0.0203125
EXTRACT: note_on channel=9 note=39 velocity=120 time=0
EXTRACT: note_on channel=9 note=82 velocity=50 time=0
EXTRACT: note_on channel=9 note=54 velocity=100 time=0
EXTRACT: note_on channel=9 note=28 velocity=100 time=0
EXTRACT: note_on channel=9 note=44 velocity=60 time=0
EXTRACT: note_off channel=0 note=56 velocity=80 time=0
EXTRACT: note_off channel=0 note=52 velocity=80 time=0
EXTRACT: note_on channel=0 note=56 velocity=100 time=0
EXTRACT: note_on channel=0 note=52 velocity=100 time=0
EXTRACT: note_off channel=2 note=56 velocity=80 time=0
EXTRACT: note_off channel=2 note=52 velocity=80 time=0
EXTRACT: note_on channel=2 note=56 velocity=100 time=0
EXTRACT: note_on channel=2 note=52 velocity=100 time=0
EXTRACT: note_on channel=3 note=64 velocity=100 time=0
EXTRACT: note_off channel=5 note=59 velocity=80 time=0.0203125
EXTRACT: note_off channel=9 note=44 velocity=50 time=0.1046875
EXTRACT: note_off channel=9 note=28 velocity=80 time=0
EXTRACT: note_off channel=9 note=54 velocity=80 time=0
EXTRACT: note_off channel=9 note=82 velocity=40 time=0
EXTRACT: note_off channel=9 note=39 velocity=100 time=0
EXTRACT: note_off channel=9 note=85 velocity=100 time=0
EXTRACT: note_on channel=9 note=44 velocity=60 time=0.026562500000000003
EXTRACT: note_off channel=9 note=44 velocity=50 time=0.125
EXTRACT: note_on channel=9 note=44 velocity=60 time=0.078125
EXTRACT: note_on channel=3 note=59 velocity=100 time=0
EXTRACT: note_off channel=3 note=64 velocity=80 time=0.0203125
EXTRACT: note_off channel=9 note=44 velocity=50 time=0.1046875
EXTRACT: note_on channel=9 note=82 velocity=50 time=0.0328125
EXTRACT: note_on channel=9 note=44 velocity=60 time=0
EXTRACT: note_off channel=9 note=44 velocity=50 time=0.125
EXTRACT: note_off channel=9 note=82 velocity=40 time=0
EXTRACT: note_on channel=9 note=44 velocity=60 time=0.078125
EXTRACT: note_off channel=0 note=52 velocity=80 time=0
EXTRACT: note_off channel=0 note=49 velocity=120 time=0
EXTRACT: note_off channel=0 note=37 velocity=80 time=0
EXTRACT: note_on channel=0 note=45 velocity=120 time=0
EXTRACT: note_on channel=0 note=49 velocity=100 time=0
EXTRACT: note_on channel=0 note=52 velocity=100 time=0
EXTRACT: note_on channel=0 note=33 velocity=100 time=0
EXTRACT: note_off channel=1 note=61 velocity=80 time=0
EXTRACT: note_off channel=1 note=49 velocity=80 time=0
EXTRACT: note_on channel=1 note=57 velocity=100 time=0
EXTRACT: note_on channel=1 note=45 velocity=100 time=0
EXTRACT: note_on channel=1 note=63 velocity=100 time=0
EXTRACT: note_off channel=2 note=52 velocity=80 time=0
EXTRACT: note_off channel=2 note=49 velocity=120 time=0
EXTRACT: note_off channel=2 note=37 velocity=80 time=0
EXTRACT: note_on channel=2 note=45 velocity=120 time=0
EXTRACT: note_on channel=2 note=49 velocity=100 time=0
EXTRACT: note_on channel=2 note=52 velocity=100 time=0
EXTRACT: note_on channel=2 note=33 velocity=100 time=0
EXTRACT: note_off channel=4 note=73 velocity=80 time=0
EXTRACT: note_off channel=4 note=61 velocity=80 time=0
EXTRACT: note_on channel=4 note=69 velocity=100 time=0
EXTRACT: note_on channel=4 note=57 velocity=100 time=0
EXTRACT: note_on channel=4 note=75 velocity=100 time=0
EXTRACT: note_on channel=3 note=63 velocity=100 time=0
EXTRACT: note_off channel=0 note=56 velocity=80 time=0.018750000000000003
EXTRACT: note_off channel=2 note=56 velocity=80 time=0
EXTRACT: note_off channel=3 note=59 velocity=80 time=0.0015625
EXTRACT: note_off channel=9 note=44 velocity=50 time=0.0328125
EXTRACT: note_on channel=9 note=82 velocity=50 time=0.05625
EXTRACT: note_on channel=9 note=44 velocity=60 time=0
EXTRACT: note_off channel=9 note=44 velocity=50 time=0.125
EXTRACT: note_off channel=9 note=82 velocity=40 time=0
EXTRACT: note_on channel=9 note=35 velocity=120 time=0.078125
EXTRACT: note_on channel=9 note=36 velocity=120 time=0
EXTRACT: note_on channel=9 note=82 velocity=50 time=0
EXTRACT: note_on channel=9 note=44 velocity=60 time=0
EXTRACT: note_off channel=9 note=44 velocity=50 time=0.125
EXTRACT: note_off channel=9 note=82 velocity=40 time=0
EXTRACT: note_off channel=9 note=36 velocity=100 time=0
EXTRACT: note_off channel=9 note=35 velocity=100 time=0
EXTRACT: note_on channel=9 note=44 velocity=60 time=0.037500000000000006
EXTRACT: note_off channel=9 note=44 velocity=50 time=0.125
EXTRACT: note_on channel=9 note=85 velocity=120 time=0.078125
EXTRACT: note_on channel=9 note=39 velocity=120 time=0
EXTRACT: note_on channel=9 note=54 velocity=100 time=0
EXTRACT: note_on channel=9 note=28 velocity=100 time=0
EXTRACT: note_on channel=9 note=44 velocity=60 time=0
EXTRACT: note_off channel=0 note=49 velocity=80 time=0
EXTRACT: note_off channel=0 note=52 velocity=80 time=0
EXTRACT: note_on channel=0 note=49 velocity=100 time=0
EXTRACT: note_on channel=0 note=52 velocity=100 time=0
EXTRACT: note_on channel=1 note=64 velocity=100 time=0
EXTRACT: note_off channel=2 note=49 velocity=80 time=0
EXTRACT: note_off channel=2 note=52 velocity=80 time=0
EXTRACT: note_on channel=2 note=49 velocity=100 time=0
EXTRACT: note_on channel=2 note=52 velocity=100 time=0
EXTRACT: note_on channel=4 note=76 velocity=100 time=0
EXTRACT: note_on channel=3 note=64 velocity=100 time=0
EXTRACT: note_off channel=3 note=63 velocity=80 time=0.059375000000000004
EXTRACT: note_off channel=9 note=44 velocity=50 time=0.003125
EXTRACT: note_off channel=9 note=28 velocity=80 time=0
EXTRACT: note_off channel=9 note=54 velocity=80 time=0
EXTRACT: note_off channel=9 note=39 velocity=100 time=0
EXTRACT: note_off channel=9 note=85 velocity=100 time=0
EXTRACT: note_on channel=9 note=44 velocity=60 time=0.05625
EXTRACT: note_off channel=1 note=63 velocity=80 time=0.1015625
EXTRACT: note_off channel=4 note=75 velocity=80 time=0
EXTRACT: note_off channel=9 note=44 velocity=50 time=0.0234375
EXTRACT: note_on channel=9 note=44 velocity=60 time=0.078125
EXTRACT: note_off channel=9 note=44 velocity=50 time=0.125
EXTRACT: note_on channel=9 note=44 velocity=60 time=0.037500000000000006
EXTRACT: note_off channel=9 note=44 velocity=50 time=0.125
EXTRACT: note_on channel=9 note=35 velocity=120 time=0.078125
EXTRACT: note_on channel=9 note=36 velocity=120 time=0
EXTRACT: note_on channel=9 note=44 velocity=60 time=0
EXTRACT: note_off channel=0 note=52 velocity=80 time=0
EXTRACT: note_off channel=0 note=33 velocity=80 time=0
EXTRACT: note_off channel=0 note=49 velocity=80 time=0
EXTRACT: note_on channel=0 note=56 velocity=100 time=0
EXTRACT: note_on channel=0 note=59 velocity=100 time=0
EXTRACT: note_on channel=0 note=52 velocity=120 time=0
EXTRACT: note_on channel=0 note=40 velocity=100 time=0
EXTRACT: note_off channel=1 note=45 velocity=80 time=0
EXTRACT: note_off channel=1 note=57 velocity=80 time=0
EXTRACT: note_off channel=1 note=64 velocity=80 time=0
EXTRACT: note_on channel=1 note=64 velocity=100 time=0
EXTRACT: note_on channel=1 note=52 velocity=100 time=0
EXTRACT: note_off channel=2 note=52 velocity=80 time=0
EXTRACT: note_off channel=2 note=33 velocity=80 time=0
EXTRACT: note_off channel=2 note=49 velocity=80 time=0
EXTRACT: note_on channel=2 note=56 velocity=100 time=0
EXTRACT: note_on channel=2 note=59 velocity=100 time=0
EXTRACT: note_on channel=2 note=52 velocity=120 time=0
EXTRACT: note_on channel=2 note=40 velocity=100 time=0
EXTRACT: note_off channel=4 note=57 velocity=80 time=0
EXTRACT: note_off channel=4 note=69 velocity=80 time=0
EXTRACT: note_off channel=4 note=76 velocity=80 time=0
EXTRACT: note_on channel=4 note=76 velocity=100 time=0
EXTRACT: note_on channel=4 note=64 velocity=100 time=0
EXTRACT: note_off channel=3 note=64 velocity=80 time=0
EXTRACT: note_on channel=3 note=68 velocity=100 time=0
EXTRACT: note_off channel=0 note=45 velocity=120 time=0.018750000000000003
EXTRACT: note_off channel=2 note=45 velocity=120 time=0
EXTRACT: note_off channel=9 note=44 velocity=50 time=0.10625000000000001
EXTRACT: note_off channel=9 note=36 velocity=100 time=0
EXTRACT: note_off channel=9 note=35 velocity=100 time=0
EXTRACT: note_on channel=9 note=44 velocity=60 time=0.05625
EXTRACT: note_off channel=9 note=44 velocity=50 time=0.09843750000000001
EXTRACT: note_on channel=9 note=82 velocity=50 time=0.078125
EXTRACT: note_on channel=9 note=44 velocity=60 time=0
EXTRACT: note_on channel=3 note=66 velocity=100 time=0
EXTRACT: note_off channel=3 note=68 velocity=80 time=0.0203125
EXTRACT: note_off channel=9 note=44 velocity=50 time=0.1046875
EXTRACT: note_off channel=9 note=82 velocity=40 time=0
EXTRACT: note_on channel=9 note=35 velocity=120 time=0.00625
EXTRACT: note_on channel=9 note=36 velocity=120 time=0
EXTRACT: note_on channel=9 note=44 velocity=60 time=0
EXTRACT: note_off channel=9 note=44 velocity=50 time=0.125
EXTRACT: note_off channel=9 note=36 velocity=100 time=0
EXTRACT: note_off channel=9 note=35 velocity=100 time=0
EXTRACT: note_off channel=3 note=66 velocity=80 time=0.0578125
EXTRACT: note_on channel=9 note=85 velocity=120 time=0.0203125
EXTRACT: note_on channel=9 note=39 velocity=120 time=0
EXTRACT: note_on channel=9 note=82 velocity=50 time=0
EXTRACT: note_on channel=9 note=54 velocity=100 time=0
EXTRACT: note_on channel=9 note=28 velocity=100 time=0
EXTRACT: note_on channel=9 note=44 velocity=60 time=0
EXTRACT: note_off channel=0 note=56 velocity=80 time=0
EXTRACT: note_off channel=0 note=59 velocity=80 time=0
EXTRACT: note_on channel=0 note=56 velocity=100 time=0
EXTRACT: note_on channel=0 note=59 velocity=100 time=0
EXTRACT: note_off channel=2 note=56 velocity=80 time=0
EXTRACT: note_off channel=2 note=59 velocity=80 time=0
EXTRACT: note_on channel=2 note=56 velocity=100 time=0
EXTRACT: note_on channel=2 note=59 velocity=100 time=0
EXTRACT: note_on channel=3 note=66 velocity=100 time=0
EXTRACT: note_off channel=9 note=44 velocity=50 time=0.125
EXTRACT: note_off channel=9 note=28 velocity=80 time=0
EXTRACT: note_off channel=9 note=54 velocity=80 time=0
EXTRACT: note_off channel=9 note=82 velocity=40 time=0
EXTRACT: note_off channel=9 note=39 velocity=100 time=0
EXTRACT: note_off channel=9 note=85 velocity=100 time=0
EXTRACT: note_on channel=9 note=44 velocity=60 time=0.05625
EXTRACT: note_off channel=9 note=44 velocity=50 time=0.1125
EXTRACT: note_on channel=9 note=44 velocity=60 time=0.078125
EXTRACT: note_on channel=3 note=71 velocity=100 time=0
EXTRACT: note_off channel=3 note=66 velocity=80 time=0.0203125
EXTRACT: note_off channel=9 note=44 velocity=50 time=0.1046875
EXTRACT: note_on channel=9 note=82 velocity=50 time=0.037500000000000006
EXTRACT: note_on channel=9 note=44 velocity=60 time=0
EXTRACT: note_off channel=9 note=44 velocity=50 time=0.125
EXTRACT: note_off channel=9 note=82 velocity=40 time=0
EXTRACT: note_on channel=9 note=44 velocity=60 time=0.078125
EXTRACT: note_on channel=0 note=54 velocity=100 time=0
EXTRACT: note_on channel=0 note=51 velocity=100 time=0
EXTRACT: note_on channel=0 note=47 velocity=120 time=0
EXTRACT: note_on channel=0 note=35 velocity=100 time=0
EXTRACT: note_off channel=1 note=52 velocity=80 time=0
EXTRACT: note_off channel=1 note=64 velocity=80 time=0
EXTRACT: note_on channel=1 note=47 velocity=100 time=0
EXTRACT: note_on channel=1 note=59 velocity=100 time=0
EXTRACT: note_on channel=2 note=54 velocity=100 time=0
EXTRACT: note_on channel=2 note=51 velocity=100 time=0
EXTRACT: note_on channel=2 note=47 velocity=120 time=0
EXTRACT: note_on channel=2 note=35 velocity=100 time=0
EXTRACT: note_off channel=4 note=64 velocity=80 time=0
EXTRACT: note_off channel=4 note=76 velocity=80 time=0
EXTRACT: note_on channel=4 note=59 velocity=100 time=0
EXTRACT: note_on channel=4 note=71 velocity=100 time=0
EXTRACT: note_on channel=3 note=66 velocity=100 time=0
EXTRACT: note_off channel=0 note=40 velocity=80 time=0.018750000000000003
EXTRACT: note_off channel=2 note=40 velocity=80 time=0
EXTRACT: note_off channel=3 note=71 velocity=80 time=0.0015625
EXTRACT: note_off channel=0 note=59 velocity=80 time=0.010937500000000001
EXTRACT: note_off channel=2 note=59 velocity=80 time=0
EXTRACT: note_off channel=0 note=52 velocity=120 time=0.0203125
EXTRACT: note_off channel=0 note=56 velocity=80 time=0
EXTRACT: note_off channel=2 note=52 velocity=120 time=0
EXTRACT: note_off channel=2 note=56 velocity=80 time=0
EXTRACT: note_off channel=9 note=44 velocity=50 time=0.065625
EXTRACT: note_on channel=9 note=82 velocity=50 time=0.05625
EXTRACT: note_on channel=9 note=44 velocity=60 time=0
EXTRACT: note_off channel=9 note=44 velocity=50 time=0.0140625
EXTRACT: note_off channel=9 note=82 velocity=40 time=0
EXTRACT: note_on channel=9 note=35 velocity=120 time=0.078125
EXTRACT: note_on channel=9 note=36 velocity=120 time=0
EXTRACT: note_on channel=9 note=82 velocity=50 time=0
EXTRACT: note_on channel=9 note=44 velocity=60 time=0
EXTRACT: note_off channel=9 note=44 velocity=50 time=0.125
EXTRACT: note_off channel=9 note=82 velocity=40 time=0
EXTRACT: note_off channel=9 note=36 velocity=100 time=0
EXTRACT: note_off channel=9 note=35 velocity=100 time=0
EXTRACT: note_on channel=9 note=44 velocity=60 time=0.037500000000000006
EXTRACT: note_off channel=9 note=44 velocity=50 time=0.125
EXTRACT: note_off channel=0 note=54 velocity=80 time=0.037500000000000006
EXTRACT: note_off channel=2 note=54 velocity=80 time=0
EXTRACT: note_on channel=9 note=85 velocity=120 time=0.040625
EXTRACT: note_on channel=9 note=39 velocity=120 time=0
EXTRACT: note_on channel=9 note=54 velocity=100 time=0
EXTRACT: note_on channel=9 note=28 velocity=100 time=0
EXTRACT: note_on channel=9 note=44 velocity=60 time=0
EXTRACT: note_off channel=0 note=51 velocity=80 time=0
EXTRACT: note_on channel=0 note=51 velocity=100 time=0
EXTRACT: note_on channel=0 note=54 velocity=100 time=0
EXTRACT: note_off channel=2 note=51 velocity=80 time=0
EXTRACT: note_on channel=2 note=51 velocity=100 time=0
EXTRACT: note_on channel=2 note=54 velocity=100 time=0
EXTRACT: note_on channel=5 note=61 velocity=100 time=0
EXTRACT: note_off channel=9 note=44 velocity=50 time=0.125
EXTRACT: note_off channel=9 note=28 velocity=80 time=0
EXTRACT: note_off channel=9 note=54 velocity=80 time=0
EXTRACT: note_off channel=9 note=39 velocity=100 time=0
EXTRACT: note_off channel=9 note=85 velocity=100 time=0
EXTRACT: note_on channel=9 note=44 velocity=60 time=0.05625
EXTRACT: note_off channel=9 note=44 velocity=50 time=0.125
EXTRACT: note_off channel=5 note=61 velocity=80 time=0.0171875
EXTRACT: note_on channel=9 note=44 velocity=60 time=0.060937500000000006
EXTRACT: note_on channel=5 note=59 velocity=100 time=0
EXTRACT: note_off channel=3 note=66 velocity=80 time=0.12187500000000001
EXTRACT: note_off channel=9 note=44 velocity=50 time=0.003125
EXTRACT: note_on channel=9 note=44 velocity=60 time=0.037500000000000006
EXTRACT: note_off channel=9 note=44 velocity=50 time=0.125
EXTRACT: note_off channel=0 note=35 velocity=80 time=0.037500000000000006
EXTRACT: note_off channel=2 note=35 velocity=80 time=0
EXTRACT: note_on channel=9 note=35 velocity=120 time=0.040625
EXTRACT: note_on channel=9 note=36 velocity=120 time=0
EXTRACT: note_on channel=9 note=44 velocity=60 time=0
EXTRACT: note_off channel=0 note=47 velocity=120 time=0
EXTRACT: note_off channel=0 note=51 velocity=80 time=0
EXTRACT: note_on channel=0 note=49 velocity=120 time=0
EXTRACT: note_on channel=0 note=56 velocity=100 time=0
EXTRACT: note_on channel=0 note=52 velocity=100 time=0
EXTRACT: note_on channel=0 note=37 velocity=100 time=0
EXTRACT: note_off channel=1 note=59 velocity=80 time=0
EXTRACT: note_off channel=1 note=47 velocity=80 time=0
EXTRACT: note_on channel=1 note=49 velocity=100 time=0
EXTRACT: note_on channel=1 note=61 velocity=100 time=0
EXTRACT: note_off channel=2 note=47 velocity=120 time=0
EXTRACT: note_off channel=2 note=51 velocity=80 time=0
EXTRACT: note_on channel=2 note=49 velocity=120 time=0
EXTRACT: note_on channel=2 note=56 velocity=100 time=0
EXTRACT: note_on channel=2 note=52 velocity=100 time=0
EXTRACT: note_on channel=2 note=37 velocity=100 time=0
EXTRACT: note_off channel=4 note=71 velocity=80 time=0
EXTRACT: note_off channel=4 note=59 velocity=80 time=0
EXTRACT: note_on channel=4 note=61 velocity=100 time=0
EXTRACT: note_on channel=4 note=73 velocity=100 time=0
EXTRACT: note_on channel=3 note=71 velocity=100 time=0
EXTRACT: note_off channel=0 note=54 velocity=80 time=0.018750000000000003
EXTRACT: note_off channel=2 note=54 velocity=80 time=0
EXTRACT: note_off channel=9 note=44 velocity=50 time=0.10625000000000001
EXTRACT: note_off channel=9 note=36 velocity=100 time=0
EXTRACT: note_off channel=9 note=35 velocity=100 time=0
EXTRACT: note_on channel=9 note=44 velocity=60 time=0.05625
EXTRACT: note_off channel=9 note=44 velocity=50 time=0.109375
EXTRACT: note_on channel=9 note=82 velocity=50 time=0.078125
EXTRACT: note_on channel=9 note=44 velocity=60 time=0
EXTRACT: note_on channel=3 note=69 velocity=100 time=0
EXTRACT: note_off channel=3 note=71 velocity=80 time=0.0203125
EXTRACT: note_off channel=9 note=44 velocity=50 time=0.1046875
EXTRACT: note_off channel=9 note=82 velocity=40 time=0
EXTRACT: note_on channel=9 note=35 velocity=120 time=0.018750000000000003
EXTRACT: note_on channel=9 note=36 velocity=120 time=0
EXTRACT: note_on channel=9 note=44 velocity=60 time=0
EXTRACT: note_off channel=9 note=44 velocity=50 time=0.125
EXTRACT: note_off channel=9 note=36 velocity=100 time=0
EXTRACT: note_off channel=9 note=35 velocity=100 time=0
EXTRACT: note_off channel=3 note=69 velocity=80 time=0.0578125
EXTRACT: note_on channel=9 note=85 velocity=120 time=0.0203125
EXTRACT: note_on channel=9 note=39 velocity=120 time=0
EXTRACT: note_on channel=9 note=82 velocity=50 time=0
EXTRACT: note_on channel=9 note=54 velocity=100 time=0
EXTRACT: note_on channel=9 note=28 velocity=100 time=0
EXTRACT: note_on channel=9 note=44 velocity=60 time=0
EXTRACT: note_off channel=0 note=56 velocity=80 time=0
EXTRACT: note_off channel=0 note=52 velocity=80 time=0
EXTRACT: note_on channel=0 note=56 velocity=100 time=0
EXTRACT: note_on channel=0 note=52 velocity=100 time=0
EXTRACT: note_off channel=2 note=56 velocity=80 time=0
EXTRACT: note_off channel=2 note=52 velocity=80 time=0
EXTRACT: note_on channel=2 note=56 velocity=100 time=0
EXTRACT: note_on channel=2 note=52 velocity=100 time=0
EXTRACT: note_on channel=3 note=68 velocity=100 time=0
EXTRACT: note_on channel=5 note=56 velocity=100 time=0
EXTRACT: note_off channel=5 note=59 velocity=80 time=0.0203125
EXTRACT: note_off channel=9 note=44 velocity=50 time=0.1046875
EXTRACT: note_off channel=9 note=28 velocity=80 time=0
EXTRACT: note_off channel=9 note=54 velocity=80 time=0
EXTRACT: note_off channel=9 note=82 velocity=40 time=0
EXTRACT: note_off channel=9 note=39 velocity=100 time=0
EXTRACT: note_off channel=9 note=85 velocity=100 time=0
EXTRACT: note_on channel=9 note=44 velocity=60 time=0.0140625
EXTRACT: note_off channel=9 note=44 velocity=50 time=0.125
EXTRACT: note_on channel=9 note=44 velocity=60 time=0.078125
EXTRACT: note_on channel=3 note=66 velocity=100 time=0
EXTRACT: note_on channel=5 note=54 velocity=100 time=0
EXTRACT: note_off channel=3 note=68 velocity=80 time=0.0203125
EXTRACT: note_off channel=5 note=56 velocity=80 time=0.0203125
EXTRACT: note_off channel=9 note=44 velocity=50 time=0.084375
EXTRACT: note_on channel=9 note=82 velocity=50 time=0.037500000000000006
EXTRACT: note_on channel=9 note=44 velocity=60 time=0
EXTRACT: note_off channel=9 note=44 velocity=50 time=0.1
EXTRACT: note_off channel=9 note=82 velocity=40 time=0
EXTRACT: note_off channel=3 note=66 velocity=80 time=0.037500000000000006
EXTRACT: note_on channel=9 note=44 velocity=60 time=0.040625
EXTRACT: note_off channel=0 note=52 velocity=80 time=0
EXTRACT: note_off channel=0 note=49 velocity=120 time=0
EXTRACT: note_off channel=0 note=37 velocity=80 time=0
EXTRACT: note_on channel=0 note=45 velocity=120 time=0
EXTRACT: note_on channel=0 note=49 velocity=100 time=0
EXTRACT: note_on channel=0 note=52 velocity=100 time=0
EXTRACT: note_on channel=0 note=33 velocity=100 time=0
EXTRACT: note_off channel=1 note=61 velocity=80 time=0
EXTRACT: note_off channel=1 note=49 velocity=80 time=0
EXTRACT: note_on channel=1 note=69 velocity=100 time=0
EXTRACT: note_on channel=1 note=57 velocity=100 time=0
EXTRACT: note_on channel=1 note=45 velocity=100 time=0
EXTRACT: note_off channel=2 note=52 velocity=80 time=0
EXTRACT: note_off channel=2 note=49 velocity=120 time=0
EXTRACT: note_off channel=2 note=37 velocity=80 time=0
EXTRACT: note_on channel=2 note=45 velocity=120 time=0
EXTRACT: note_on channel=2 note=49 velocity=100 time=0
EXTRACT: note_on channel=2 note=52 velocity=100 time=0
EXTRACT: note_on channel=2 note=33 velocity=100 time=0
EXTRACT: note_off channel=4 note=73 velocity=80 time=0
EXTRACT: note_off channel=4 note=61 velocity=80 time=0
EXTRACT: note_on channel=4 note=81 velocity=100 time=0
EXTRACT: note_on channel=4 note=69 velocity=100 time=0
EXTRACT: note_on channel=4 note=57 velocity=100 time=0
EXTRACT: note_on channel=3 note=66 velocity=100 time=0
EXTRACT: note_off channel=0 note=56 velocity=80 time=0.018750000000000003
EXTRACT: note_off channel=2 note=56 velocity=80 time=0
EXTRACT: note_off channel=9 note=44 velocity=50 time=0.10625000000000001
EXTRACT: note_on channel=9 note=82 velocity=50 time=0.05625
EXTRACT: note_on channel=9 note=44 velocity=60 time=0
EXTRACT: note_off channel=9 note=44 velocity=50 time=0.1125
EXTRACT: note_off channel=9 note=82 velocity=40 time=0
EXTRACT: note_on channel=9 note=35 velocity=120 time=0.078125
EXTRACT: note_on channel=9 note=36 velocity=120 time=0
EXTRACT: note_on channel=9 note=82 velocity=50 time=0
EXTRACT: note_on channel=9 note=44 velocity=60 time=0
EXTRACT: note_on channel=1 note=68 velocity=100 time=0
EXTRACT: note_on channel=4 note=80 velocity=100 time=0
EXTRACT: note_off channel=1 note=69 velocity=80 time=0.12187500000000001
EXTRACT: note_off channel=4 note=81 velocity=80 time=0
EXTRACT: note_off channel=9 note=44 velocity=50 time=0.003125
EXTRACT: note_off channel=9 note=82 velocity=40 time=0
EXTRACT: note_off channel=9 note=36 velocity=100 time=0
EXTRACT: note_off channel=9 note=35 velocity=100 time=0
EXTRACT: note_on channel=9 note=44 velocity=60 time=0.037500000000000006
EXTRACT: note_off channel=9 note=44 velocity=50 time=0.125
EXTRACT: note_on channel=9 note=85 velocity=120 time=0.078125
EXTRACT: note_on channel=9 note=39 velocity=120 time=0
EXTRACT: note_on channel=9 note=54 velocity=100 time=0
EXTRACT: note_on channel=9 note=28 velocity=100 time=0
EXTRACT: note_on channel=9 note=44 velocity=60 time=0
EXTRACT: note_off channel=0 note=49 velocity=80 time=0
EXTRACT: note_off channel=0 note=52 velocity=80 time=0
EXTRACT: note_on channel=0 note=49 velocity=100 time=0
EXTRACT: note_on channel=0 note=52 velocity=100 time=0
EXTRACT: note_on channel=1 note=66 velocity=100 time=0
EXTRACT: note_off channel=2 note=49 velocity=80 time=0
EXTRACT: note_off channel=2 note=52 velocity=80 time=0
EXTRACT: note_on channel=2 note=49 velocity=100 time=0
EXTRACT: note_on channel=2 note=52 velocity=100 time=0
EXTRACT: note_on channel=4 note=78 velocity=100 time=0
EXTRACT: note_on channel=3 note=64 velocity=100 time=0
EXTRACT: note_off channel=5 note=54 velocity=80 time=0.0203125
EXTRACT: note_off channel=3 note=66 velocity=80 time=0.0390625
EXTRACT: note_off channel=9 note=44 velocity=50 time=0.065625
EXTRACT: note_off channel=9 note=28 velocity=80 time=0
EXTRACT: note_off channel=9 note=54 velocity=80 time=0
EXTRACT: note_off channel=9 note=39 velocity=100 time=0
EXTRACT: note_off channel=9 note=85 velocity=100 time=0
EXTRACT: note_off channel=1 note=68 velocity=80 time=0.015625
EXTRACT: note_off channel=4 note=80 velocity=80 time=0
EXTRACT: note_on channel=9 note=44 velocity=60 time=0.040625
EXTRACT: note_off channel=9 note=44 velocity=50 time=0.1234375
EXTRACT: note_on channel=9 note=44 velocity=60 time=0.078125
EXTRACT: note_on channel=1 note=64 velocity=100 time=0
EXTRACT: note_on channel=4 note=76 velocity=100 time=0
EXTRACT: note_off channel=9 note=44 velocity=50 time=0.125
EXTRACT: note_off channel=1 note=66 velocity=80 time=0.0171875
EXTRACT: note_off channel=4 note=78 velocity=80 time=0
EXTRACT: note_on channel=9 note=44 velocity=60 time=0.0203125
EXTRACT: note_off channel=9 note=44 velocity=50 time=0.125
EXTRACT: note_off channel=1 note=64 velocity=80 time=0.0578125
EXTRACT: note_off channel=4 note=76 velocity=80 time=0
EXTRACT: note_on channel=9 note=35 velocity=120 time=0.0203125
EXTRACT: note_on channel=9 note=36 velocity=120 time=0
EXTRACT: note_on channel=9 note=44 velocity=60 time=0
EXTRACT: note_off channel=0 note=52 velocity=80 time=0
EXTRACT: note_off channel=0 note=33 velocity=80 time=0
EXTRACT: note_off channel=0 note=49 velocity=80 time=0
EXTRACT: note_on channel=0 note=54 velocity=100 time=0
EXTRACT: note_on channel=0 note=57 velocity=100 time=0
EXTRACT: note_on channel=0 note=61 velocity=100 time=0
EXTRACT: note_on channel=0 note=42 velocity=100 time=0
EXTRACT: note_off channel=1 note=57 velocity=80 time=0
EXTRACT: note_off channel=1 note=45 velocity=80 time=0
EXTRACT: note_on channel=1 note=42 velocity=100 time=0
EXTRACT: note_on channel=1 note=54 velocity=100 time=0
EXTRACT: note_off channel=2 note=52 velocity=80 time=0
EXTRACT: note_off channel=2 note=33 velocity=80 time=0
EXTRACT: note_off channel=2 note=49 velocity=80 time=0
EXTRACT: note_on channel=2 note=54 velocity=100 time=0
EXTRACT: note_on channel=2 note=57 velocity=100 time=0
EXTRACT: note_on channel=2 note=61 velocity=100 time=0
EXTRACT: note_on channel=2 note=42 velocity=100 time=0
EXTRACT: note_off channel=4 note=69 velocity=80 time=0
EXTRACT: note_off channel=4 note=57 velocity=80 time=0
EXTRACT: note_on channel=4 note=54 velocity=100 time=0
EXTRACT: note_on channel=4 note=66 velocity=100 time=0
EXTRACT: note_off channel=3 note=64 velocity=80 time=0
EXTRACT: note_off channel=0 note=45 velocity=120 time=0.018750000000000003
EXTRACT: note_off channel=2 note=45 velocity=120 time=0
EXTRACT: note_off channel=9 note=44 velocity=50 time=0.10625000000000001
EXTRACT: note_off channel=9 note=36 velocity=100 time=0
EXTRACT: note_off channel=9 note=35 velocity=100 time=0
EXTRACT: note_on channel=9 note=44 velocity=60 time=0.05625
EXTRACT: note_off channel=9 note=44 velocity=50 time=0.125
EXTRACT: note_on channel=9 note=82 velocity=50 time=0.078125
EXTRACT: note_on channel=9 note=44 velocity=60 time=0
EXTRACT: note_off channel=9 note=44 velocity=50 time=0.125
EXTRACT: note_off channel=9 note=82 velocity=40 time=0
EXTRACT: note_on channel=9 note=35 velocity=120 time=0.037500000000000006
EXTRACT: note_on channel=9 note=36 velocity=120 time=0
EXTRACT: note_on channel=9 note=44 velocity=60 time=0
EXTRACT: note_off channel=9 note=44 velocity=50 time=0.125
EXTRACT: note_off channel=9 note=36 velocity=100 time=0
EXTRACT: note_off channel=9 note=35 velocity=100 time=0
EXTRACT: note_on channel=9 note=85 velocity=120 time=0.078125
EXTRACT: note_on channel=9 note=39 velocity=120 time=0
EXTRACT: note_on channel=9 note=82 velocity=50 time=0
EXTRACT: note_on channel=9 note=54 velocity=100 time=0
EXTRACT: note_on channel=9 note=28 velocity=100 time=0
EXTRACT: note_on channel=9 note=44 velocity=60 time=0
EXTRACT: note_on channel=3 note=59 velocity=100 time=0
EXTRACT: note_off channel=9 note=44 velocity=50 time=0.125
EXTRACT: note_off channel=9 note=28 velocity=80 time=0
EXTRACT: note_off channel=9 note=54 velocity=80 time=0
EXTRACT: note_off channel=9 note=82 velocity=40 time=0
EXTRACT: note_off channel=9 note=39 velocity=100 time=0
EXTRACT: note_off channel=9 note=85 velocity=100 time=0
EXTRACT: note_on channel=9 note=44 velocity=60 time=0.05625
EXTRACT: note_off channel=9 note=44 velocity=50 time=0.09062500000000001
EXTRACT: note_on channel=9 note=44 velocity=60 time=0.078125
EXTRACT: note_on channel=3 note=64 velocity=100 time=0
EXTRACT: note_off channel=3 note=59 velocity=80 time=0.040625
EXTRACT: note_off channel=9 note=44 velocity=50 time=0.084375
EXTRACT: note_on channel=9 note=82 velocity=50 time=0.003125
EXTRACT: note_on channel=9 note=44 velocity=60 time=0
EXTRACT: note_off channel=9 note=44 velocity=50 time=0.125
EXTRACT: note_off channel=9 note=82 velocity=40 time=0
EXTRACT: note_off channel=3 note=64 velocity=80 time=0.0578125
EXTRACT: note_on channel=9 note=44 velocity=60 time=0.0203125
EXTRACT: note_off channel=0 note=57 velocity=80 time=0
EXTRACT: note_off channel=0 note=42 velocity=80 time=0
EXTRACT: note_on channel=0 note=56 velocity=100 time=0
EXTRACT: note_on channel=0 note=59 velocity=100 time=0
EXTRACT: note_on channel=0 note=64 velocity=100 time=0
EXTRACT: note_on channel=0 note=44 velocity=100 time=0
EXTRACT: note_off channel=1 note=54 velocity=80 time=0
EXTRACT: note_off channel=1 note=42 velocity=80 time=0
EXTRACT: note_on channel=1 note=44 velocity=100 time=0
EXTRACT: note_on channel=1 note=56 velocity=100 time=0
EXTRACT: note_off channel=2 note=57 velocity=80 time=0
EXTRACT: note_off channel=2 note=42 velocity=80 time=0
EXTRACT: note_on channel=2 note=56 velocity=100 time=0
EXTRACT: note_on channel=2 note=59 velocity=100 time=0
EXTRACT: note_on channel=2 note=64 velocity=100 time=0
EXTRACT: note_on channel=2 note=44 velocity=100 time=0
EXTRACT: note_off channel=4 note=66 velocity=80 time=0
EXTRACT: note_off channel=4 note=54 velocity=80 time=0
EXTRACT: note_on channel=4 note=56 velocity=100 time=0
EXTRACT: note_on channel=4 note=68 velocity=100 time=0
EXTRACT: note_on channel=3 note=64 velocity=100 time=0
EXTRACT: note_off channel=0 note=61 velocity=80 time=0.018750000000000003
EXTRACT: note_off channel=2 note=61 velocity=80 time=0
EXTRACT: note_off channel=0 note=54 velocity=80 time=0.0203125
EXTRACT: note_off channel=2 note=54 velocity=80 time=0
EXTRACT: note_off channel=9 note=44 velocity=50 time=0.0859375
EXTRACT: note_on channel=9 note=82 velocity=50 time=0.0125
EXTRACT: note_on channel=9 note=44 velocity=60 time=0
EXTRACT: note_off channel=9 note=44 velocity=50 time=0.125
EXTRACT: note_off channel=9 note=82 velocity=40 time=0
EXTRACT: note_on channel=9 note=35 velocity=120 time=0.078125
EXTRACT: note_on channel=9 note=36 velocity=120 time=0
EXTRACT: note_on channel=9 note=82 velocity=50 time=0
EXTRACT: note_on channel=9 note=44 velocity=60 time=0
EXTRACT: note_off channel=9 note=44 velocity=50 time=0.125
EXTRACT: note_off channel=9 note=82 velocity=40 time=0
EXTRACT: note_off channel=9 note=36 velocity=100 time=0
EXTRACT: note_off channel=9 note=35 velocity=100 time=0
EXTRACT: note_on channel=9 note=44 velocity=60 time=0.037500000000000006
EXTRACT: note_off channel=9 note=44 velocity=50 time=0.125
EXTRACT: note_on channel=9 note=85 velocity=120 time=0.078125
EXTRACT: note_on channel=9 note=39 velocity=120 time=0
EXTRACT: note_on channel=9 note=54 velocity=100 time=0
EXTRACT: note_on channel=9 note=28 velocity=100 time=0
EXTRACT: note_on channel=9 note=44 velocity=60 time=0
EXTRACT: note_on channel=3 note=59 velocity=100 time=0
EXTRACT: note_off channel=3 note=64 velocity=80 time=0.07968750000000001
EXTRACT: note_off channel=9 note=44 velocity=50 time=0.045312500000000006
EXTRACT: note_off channel=9 note=28 velocity=80 time=0
EXTRACT: note_off channel=9 note=54 velocity=80 time=0
EXTRACT: note_off channel=9 note=39 velocity=100 time=0
EXTRACT: note_off channel=9 note=85 velocity=100 time=0
EXTRACT: note_on channel=9 note=44 velocity=60 time=0.003125
EXTRACT: note_off channel=9 note=44 velocity=50 time=0.125
EXTRACT: note_on channel=9 note=44 velocity=60 time=0.078125
EXTRACT: note_off channel=3 note=59 velocity=80 time=0
EXTRACT: note_on channel=3 note=57 velocity=100 time=0
EXTRACT: note_off channel=9 note=44 velocity=50 time=0.125
EXTRACT: note_on channel=9 note=44 velocity=60 time=0.025
EXTRACT: note_off channel=9 note=44 velocity=50 time=0.125
EXTRACT: note_on channel=9 note=35 velocity=120 time=0.078125
EXTRACT: note_on channel=9 note=36 velocity=120 time=0
EXTRACT: note_on channel=9 note=44 velocity=60 time=0
EXTRACT: note_off channel=0 note=56 velocity=80 time=0
EXTRACT: note_off channel=0 note=59 velocity=80 time=0
EXTRACT: note_off channel=0 note=64 velocity=80 time=0
EXTRACT: note_off channel=0 note=44 velocity=80 time=0
EXTRACT: note_on channel=0 note=64 velocity=100 time=0
EXTRACT: note_on channel=0 note=61 velocity=100 time=0
EXTRACT: note_on channel=0 note=57 velocity=100 time=0
EXTRACT: note_on channel=0 note=45 velocity=100 time=0
EXTRACT: note_off channel=1 note=56 velocity=80 time=0
EXTRACT: note_off channel=1 note=44 velocity=80 time=0
EXTRACT: note_on channel=1 note=45 velocity=100 time=0
EXTRACT: note_on channel=1 note=52 velocity=100 time=0
EXTRACT: note_on channel=1 note=57 velocity=100 time=0
EXTRACT: note_off channel=2 note=56 velocity=80 time=0
EXTRACT: note_off channel=2 note=59 velocity=80 time=0
EXTRACT: note_off channel=2 note=64 velocity=80 time=0
EXTRACT: note_off channel=2 note=44 velocity=80 time=0
EXTRACT: note_on channel=2 note=64 velocity=100 time=0
EXTRACT: note_on channel=2 note=61 velocity=100 time=0
EXTRACT: note_on channel=2 note=57 velocity=100 time=0
EXTRACT: note_on channel=2 note=45 velocity=100 time=0
EXTRACT: note_off channel=4 note=68 velocity=80 time=0
EXTRACT: note_off channel=4 note=56 velocity=80 time=0
EXTRACT: note_on channel=4 note=57 velocity=100 time=0
EXTRACT: note_on channel=4 note=64 velocity=100 time=0
EXTRACT: note_on channel=4 note=69 velocity=100 time=0
EXTRACT: note_off channel=9 note=44 velocity=50 time=0.125
EXTRACT: note_off channel=9 note=36 velocity=100 time=0
EXTRACT: note_off channel=9 note=35 velocity=100 time=0
EXTRACT: note_on channel=9 note=44 velocity=60 time=0.05625
EXTRACT: note_off channel=9 note=44 velocity=50 time=0.125
EXTRACT: note_on channel=9 note=82 velocity=50 time=0.078125
EXTRACT: note_on channel=9 note=44 velocity=60 time=0
EXTRACT: note_off channel=9 note=44 velocity=50 time=0.125
EXTRACT: note_off channel=9 note=82 velocity=40 time=0
EXTRACT: note_on channel=9 note=35 velocity=120 time=0.037500000000000006
EXTRACT: note_on channel=9 note=36 velocity=120 time=0
EXTRACT: note_on channel=9 note=44 velocity=60 time=0
EXTRACT: note_off channel=9 note=44 velocity=50 time=0.125
EXTRACT: note_off channel=9 note=36 velocity=100 time=0
EXTRACT: note_off channel=9 note=35 velocity=100 time=0
EXTRACT: note_on channel=9 note=85 velocity=120 time=0.078125
EXTRACT: note_on channel=9 note=39 velocity=120 time=0
EXTRACT: note_on channel=9 note=82 velocity=50 time=0
EXTRACT: note_on channel=9 note=54 velocity=100 time=0
EXTRACT: note_on channel=9 note=28 velocity=100 time=0
EXTRACT: note_on channel=9 note=44 velocity=60 time=0
EXTRACT: note_on channel=5 note=54 velocity=100 time=0
EXTRACT: note_on channel=5 note=66 velocity=100 time=0
EXTRACT: note_on channel=5 note=57 velocity=100 time=0
EXTRACT: note_on channel=5 note=61 velocity=100 time=0
EXTRACT: note_off channel=9 note=44 velocity=50 time=0.125
EXTRACT: note_off channel=9 note=28 velocity=80 time=0
EXTRACT: note_off channel=9 note=54 velocity=80 time=0
EXTRACT: note_off channel=9 note=82 velocity=40 time=0
EXTRACT: note_off channel=9 note=39 velocity=100 time=0
EXTRACT: note_off channel=9 note=85 velocity=100 time=0
EXTRACT: note_on channel=9 note=44 velocity=60 time=0.05625
EXTRACT: note_off channel=9 note=44 velocity=50 time=0.08750000000000001
EXTRACT: note_off channel=5 note=61 velocity=80 time=0.0171875
EXTRACT: note_off channel=5 note=57 velocity=80 time=0
EXTRACT: note_off channel=5 note=66 velocity=80 time=0
EXTRACT: note_off channel=5 note=54 velocity=80 time=0
EXTRACT: note_on channel=9 note=44 velocity=60 time=0.060937500000000006
EXTRACT: note_on channel=5 note=54 velocity=100 time=0
EXTRACT: note_on channel=5 note=66 velocity=100 time=0
EXTRACT: note_on channel=5 note=57 velocity=100 time=0
EXTRACT: note_on channel=5 note=61 velocity=100 time=0
EXTRACT: note_off channel=9 note=44 velocity=50 time=0.125
EXTRACT: note_on channel=9 note=82 velocity=50 time=0.037500000000000006
EXTRACT: note_on channel=9 note=44 velocity=60 time=0
EXTRACT: note_off channel=9 note=44 velocity=50 time=0.1171875
EXTRACT: note_off channel=9 note=82 velocity=40 time=0
EXTRACT: note_off channel=5 note=61 velocity=80 time=0.037500000000000006
EXTRACT: note_off channel=5 note=57 velocity=80 time=0
EXTRACT: note_off channel=5 note=66 velocity=80 time=0
EXTRACT: note_off channel=5 note=54 velocity=80 time=0.0203125
EXTRACT: note_on channel=9 note=44 velocity=60 time=0.0203125
EXTRACT: note_on channel=5 note=54 velocity=100 time=0
EXTRACT: note_on channel=5 note=66 velocity=100 time=0
EXTRACT: note_on channel=5 note=57 velocity=100 time=0
EXTRACT: note_on channel=5 note=61 velocity=100 time=0
EXTRACT: note_off channel=3 note=57 velocity=80 time=0.0203125
EXTRACT: note_off channel=9 note=44 velocity=50 time=0.1046875
EXTRACT: note_on channel=9 note=82 velocity=50 time=0.05625
EXTRACT: note_on channel=9 note=44 velocity=60 time=0
EXTRACT: note_off channel=9 note=44 velocity=50 time=0.11406250000000001
EXTRACT: note_off channel=9 note=82 velocity=40 time=0
EXTRACT: note_on channel=9 note=35 velocity=120 time=0.078125
EXTRACT: note_on channel=9 note=36 velocity=120 time=0
EXTRACT: note_on channel=9 note=82 velocity=50 time=0
EXTRACT: note_on channel=9 note=44 velocity=60 time=0
EXTRACT: note_off channel=9 note=44 velocity=50 time=0.125
EXTRACT: note_off channel=9 note=82 velocity=40 time=0
EXTRACT: note_off channel=9 note=36 velocity=100 time=0
EXTRACT: note_off channel=9 note=35 velocity=100 time=0
EXTRACT: note_on channel=9 note=44 velocity=60 time=0.037500000000000006
EXTRACT: note_off channel=5 note=61 velocity=80 time=0.1015625
EXTRACT: note_off channel=9 note=44 velocity=50 time=0.0234375
EXTRACT: note_off channel=5 note=57 velocity=80 time=0.0171875
EXTRACT: note_on channel=9 note=85 velocity=120 time=0.060937500000000006
EXTRACT: note_on channel=9 note=39 velocity=120 time=0
EXTRACT: note_on channel=9 note=54 velocity=100 time=0
EXTRACT: note_on channel=9 note=28 velocity=100 time=0
EXTRACT: note_on channel=9 note=44 velocity=60 time=0
EXTRACT: note_off channel=5 note=66 velocity=80 time=0
EXTRACT: note_on channel=5 note=68 velocity=100 time=0
EXTRACT: note_on channel=5 note=56 velocity=100 time=0
EXTRACT: note_on channel=5 note=59 velocity=100 time=0
EXTRACT: note_on channel=5 note=63 velocity=100 time=0
EXTRACT: note_off channel=5 note=54 velocity=80 time=0.018750000000000003
EXTRACT: note_off channel=9 note=44 velocity=50 time=0.10625000000000001
EXTRACT: note_off channel=9 note=28 velocity=80 time=0
EXTRACT: note_off channel=9 note=54 velocity=80 time=0
EXTRACT: note_off channel=9 note=39 velocity=100 time=0
EXTRACT: note_off channel=9 note=85 velocity=100 time=0
EXTRACT: note_on channel=9 note=44 velocity=60 time=0.003125
EXTRACT: note_off channel=5 note=56 velocity=80 time=0.1015625
EXTRACT: note_off channel=5 note=59 velocity=80 time=0
EXTRACT: note_off channel=9 note=44 velocity=50 time=0.0234375
EXTRACT: note_off channel=5 note=63 velocity=80 time=0.037500000000000006
EXTRACT: note_on channel=9 note=44 velocity=60 time=0.040625
EXTRACT: note_off channel=5 note=68 velocity=80 time=0
EXTRACT: note_on channel=5 note=52 velocity=100 time=0
EXTRACT: note_on channel=5 note=64 velocity=100 time=0
EXTRACT: note_on channel=5 note=56 velocity=100 time=0
EXTRACT: note_on channel=5 note=59 velocity=100 time=0
EXTRACT: note_off channel=9 note=44 velocity=50 time=0.125
EXTRACT: note_on channel=9 note=44 velocity=60 time=0.035937500000000004
EXTRACT: note_off channel=9 note=44 velocity=50 time=0.125
EXTRACT: note_off channel=1 note=57 velocity=80 time=0.0171875
EXTRACT: note_off channel=4 note=69 velocity=80 time=0
EXTRACT: note_off channel=1 note=52 velocity=80 time=0.0203125
EXTRACT: note_off channel=1 note=45 velocity=80 time=0
EXTRACT: note_off channel=4 note=64 velocity=80 time=0
EXTRACT: note_off channel=4 note=57 velocity=80 time=0
EXTRACT: note_on channel=9 note=35 velocity=120 time=0.040625
EXTRACT: note_on channel=9 note=36 velocity=120 time=0
EXTRACT: note_on channel=9 note=44 velocity=60 time=0
EXTRACT: note_off channel=0 note=45 velocity=80 time=0
EXTRACT: note_off channel=0 note=57 velocity=80 time=0
EXTRACT: note_off channel=0 note=61 velocity=80 time=0
EXTRACT: note_off channel=0 note=64 velocity=80 time=0
EXTRACT: note_on channel=0 note=64 velocity=100 time=0
EXTRACT: note_on channel=0 note=61 velocity=100 time=0
EXTRACT: note_on channel=0 note=57 velocity=100 time=0
EXTRACT: note_on channel=0 note=45 velocity=100 time=0
EXTRACT: note_on channel=1 note=45 velocity=100 time=0
EXTRACT: note_on channel=1 note=57 velocity=100 time=0
EXTRACT: note_off channel=2 note=45 velocity=80 time=0
EXTRACT: note_off channel=2 note=57 velocity=80 time=0
EXTRACT: note_off channel=2 note=61 velocity=80 time=0
EXTRACT: note_off channel=2 note=64 velocity=80 time=0
EXTRACT: note_on channel=2 note=64 velocity=100 time=0
EXTRACT: note_on channel=2 note=61 velocity=100 time=0
EXTRACT: note_on channel=2 note=57 velocity=100 time=0
EXTRACT: note_on channel=2 note=45 velocity=100 time=0
EXTRACT: note_on channel=4 note=57 velocity=100 time=0
EXTRACT: note_on channel=4 note=69 velocity=100 time=0
EXTRACT: note_on channel=3 note=61 velocity=100 time=0
EXTRACT: note_off channel=5 note=59 velocity=80 time=0.0203125
EXTRACT: note_off channel=5 note=56 velocity=80 time=0.018750000000000003
EXTRACT: note_off channel=9 note=44 velocity=50 time=0.0859375
EXTRACT: note_off channel=9 note=36 velocity=100 time=0
EXTRACT: note_off channel=9 note=35 velocity=100 time=0
EXTRACT: note_on channel=9 note=44 velocity=60 time=0.05625
EXTRACT: note_off channel=9 note=44 velocity=50 time=0.1015625
EXTRACT: note_on channel=9 note=82 velocity=50 time=0.078125
EXTRACT: note_on channel=9 note=44 velocity=60 time=0
EXTRACT: note_on channel=3 note=63 velocity=100 time=0
EXTRACT: note_off channel=3 note=61 velocity=80 time=0.12187500000000001
EXTRACT: note_off channel=9 note=44 velocity=50 time=0.003125
EXTRACT: note_off channel=9 note=82 velocity=40 time=0
EXTRACT: note_on channel=9 note=35 velocity=120 time=0.037500000000000006
EXTRACT: note_on channel=9 note=36 velocity=120 time=0
EXTRACT: note_on channel=9 note=44 velocity=60 time=0
EXTRACT: note_off channel=9 note=44 velocity=50 time=0.1078125
EXTRACT: note_off channel=9 note=36 velocity=100 time=0
EXTRACT: note_off channel=9 note=35 velocity=100 time=0
EXTRACT: note_on channel=9 note=85 velocity=120 time=0.078125
EXTRACT: note_on channel=9 note=39 velocity=120 time=0
EXTRACT: note_on channel=9 note=82 velocity=50 time=0
EXTRACT: note_on channel=9 note=54 velocity=100 time=0
EXTRACT: note_on channel=9 note=28 velocity=100 time=0
EXTRACT: note_on channel=9 note=44 velocity=60 time=0
EXTRACT: note_on channel=3 note=64 velocity=100 time=0
EXTRACT: note_off channel=3 note=63 velocity=80 time=0.0203125
EXTRACT: note_off channel=5 note=64 velocity=80 time=0
EXTRACT: note_off channel=5 note=52 velocity=80 time=0
EXTRACT: note_off channel=9 note=44 velocity=50 time=0.1046875
EXTRACT: note_off channel=9 note=28 velocity=80 time=0
EXTRACT: note_off channel=9 note=54 velocity=80 time=0
EXTRACT: note_off channel=9 note=82 velocity=40 time=0
EXTRACT: note_off channel=9 note=39 velocity=100 time=0
EXTRACT: note_off channel=9 note=85 velocity=100 time=0
EXTRACT: note_on channel=9 note=44 velocity=60 time=0.0234375
EXTRACT: note_off channel=3 note=64 velocity=80 time=0.12187500000000001
EXTRACT: note_off channel=9 note=44 velocity=50 time=0.003125
EXTRACT: note_on channel=9 note=44 velocity=60 time=0.078125
EXTRACT: note_on channel=3 note=64 velocity=100 time=0
EXTRACT: note_off channel=9 note=44 velocity=50 time=0.125
EXTRACT: note_on channel=9 note=82 velocity=50 time=0.037500000000000006
EXTRACT: note_on channel=9 note=44 velocity=60 time=0
EXTRACT: note_off channel=9 note=44 velocity=50 time=0.11406250000000001
EXTRACT: note_off channel=9 note=82 velocity=40 time=0
EXTRACT: note_on channel=9 note=44 velocity=60 time=0.078125
EXTRACT: note_off channel=0 note=45 velocity=80 time=0
EXTRACT: note_off channel=0 note=57 velocity=80 time=0
EXTRACT: note_off channel=0 note=61 velocity=80 time=0
EXTRACT: note_off channel=0 note=64 velocity=80 time=0
EXTRACT: note_on channel=0 note=56 velocity=100 time=0
EXTRACT: note_on channel=0 note=59 velocity=100 time=0
EXTRACT: note_on channel=0 note=64 velocity=100 time=0
EXTRACT: note_on channel=0 note=44 velocity=100 time=0
EXTRACT: note_off channel=1 note=57 velocity=80 time=0
EXTRACT: note_off channel=1 note=45 velocity=80 time=0
EXTRACT: note_on channel=1 note=44 velocity=100 time=0
EXTRACT: note_on channel=1 note=56 velocity=100 time=0
EXTRACT: note_off channel=2 note=45 velocity=80 time=0
EXTRACT: note_off channel=2 note=57 velocity=80 time=0
EXTRACT: note_off channel=2 note=61 velocity=80 time=0
EXTRACT: note_off channel=2 note=64 velocity=80 time=0
EXTRACT: note_on channel=2 note=56 velocity=100 time=0
EXTRACT: note_on channel=2 note=59 velocity=100 time=0
EXTRACT: note_on channel=2 note=64 velocity=100 time=0
EXTRACT: note_on channel=2 note=44 velocity=100 time=0
EXTRACT: note_off channel=4 note=69 velocity=80 time=0
EXTRACT: note_off channel=4 note=57 velocity=80 time=0
EXTRACT: note_on channel=4 note=56 velocity=100 time=0
EXTRACT: note_on channel=4 note=68 velocity=100 time=0
EXTRACT: note_off channel=9 note=44 velocity=50 time=0.125
EXTRACT: note_on channel=9 note=82 velocity=50 time=0.05625
EXTRACT: note_on channel=9 note=44 velocity=60 time=0
EXTRACT: note_off channel=9 note=44 velocity=50 time=0.125
EXTRACT: note_off channel=9 note=82 velocity=40 time=0
EXTRACT: note_on channel=9 note=35 velocity=120 time=0.078125
EXTRACT: note_on channel=9 note=36 velocity=120 time=0
EXTRACT: note_on channel=9 note=82 velocity=50 time=0
EXTRACT: note_on channel=9 note=44 velocity=60 time=0
EXTRACT: note_off channel=9 note=44 velocity=50 time=0.125
EXTRACT: note_off channel=9 note=82 velocity=40 time=0
EXTRACT: note_off channel=9 note=36 velocity=100 time=0
EXTRACT: note_off channel=9 note=35 velocity=100 time=0
EXTRACT: note_on channel=9 note=44 velocity=60 time=0.037500000000000006
EXTRACT: note_off channel=9 note=44 velocity=50 time=0.125
EXTRACT: note_on channel=9 note=85 velocity=120 time=0.078125
EXTRACT: note_on channel=9 note=39 velocity=120 time=0
EXTRACT: note_on channel=9 note=54 velocity=100 time=0
EXTRACT: note_on channel=9 note=28 velocity=100 time=0
EXTRACT: note_on channel=9 note=44 velocity=60 time=0
EXTRACT: note_on channel=3 note=68 velocity=100 time=0
EXTRACT: note_off channel=3 note=64 velocity=80 time=0.1203125
EXTRACT: note_off channel=9 note=44 velocity=50 time=0.004687500000000001
EXTRACT: note_off channel=9 note=28 velocity=80 time=0
EXTRACT: note_off channel=9 note=54 velocity=80 time=0
EXTRACT: note_off channel=9 note=39 velocity=100 time=0
EXTRACT: note_off channel=9 note=85 velocity=100 time=0
EXTRACT: note_on channel=9 note=44 velocity=60 time=0.05625
EXTRACT: note_off channel=9 note=44 velocity=50 time=0.07187500000000001
EXTRACT: note_off channel=3 note=68 velocity=80 time=0.0578125
EXTRACT: note_on channel=9 note=44 velocity=60 time=0.0203125
EXTRACT: note_on channel=3 note=66 velocity=100 time=0
EXTRACT: note_off channel=9 note=44 velocity=50 time=0.125
EXTRACT: note_on channel=9 note=44 velocity=60 time=0.037500000000000006
EXTRACT: note_off channel=9 note=44 velocity=50 time=0.096875
EXTRACT: note_on channel=9 note=35 velocity=120 time=0.078125
EXTRACT: note_on channel=9 note=36 velocity=120 time=0
EXTRACT: note_on channel=9 note=44 velocity=60 time=0
EXTRACT: note_off channel=0 note=44 velocity=80 time=0
EXTRACT: note_off channel=0 note=64 velocity=80 time=0
EXTRACT: note_off channel=0 note=59 velocity=80 time=0
EXTRACT: note_off channel=0 note=56 velocity=80 time=0
EXTRACT: note_on channel=0 note=50 velocity=100 time=0
EXTRACT: note_on channel=0 note=54 velocity=100 time=0
EXTRACT: note_on channel=0 note=57 velocity=100 time=0
EXTRACT: note_on channel=0 note=38 velocity=100 time=0
EXTRACT: note_off channel=1 note=56 velocity=80 time=0
EXTRACT: note_off channel=1 note=44 velocity=80 time=0
EXTRACT: note_on channel=1 note=50 velocity=100 time=0
EXTRACT: note_on channel=1 note=57 velocity=100 time=0
EXTRACT: note_on channel=1 note=54 velocity=100 time=0
EXTRACT: note_off channel=2 note=44 velocity=80 time=0
EXTRACT: note_off channel=2 note=64 velocity=80 time=0
EXTRACT: note_off channel=2 note=59 velocity=80 time=0
EXTRACT: note_off channel=2 note=56 velocity=80 time=0
EXTRACT: note_on channel=2 note=50 velocity=100 time=0
EXTRACT: note_on channel=2 note=54 velocity=100 time=0
EXTRACT: note_on channel=2 note=57 velocity=100 time=0
EXTRACT: note_on channel=2 note=38 velocity=100 time=0
EXTRACT: note_off channel=4 note=68 velocity=80 time=0
EXTRACT: note_off channel=4 note=56 velocity=80 time=0
EXTRACT: note_on channel=4 note=62 velocity=100 time=0
EXTRACT: note_on channel=4 note=69 velocity=100 time=0
EXTRACT: note_on channel=4 note=66 velocity=100 time=0
EXTRACT: note_off channel=9 note=44 velocity=50 time=0.125
EXTRACT: note_off channel=9 note=36 velocity=100 time=0
EXTRACT: note_off channel=9 note=35 velocity=100 time=0
EXTRACT: note_on channel=9 note=44 velocity=60 time=0.05625
EXTRACT: note_off channel=9 note=44 velocity=50 time=0.125
EXTRACT: note_on channel=9 note=82 velocity=50 time=0.078125
EXTRACT: note_on channel=9 note=44 velocity=60 time=0
EXTRACT: note_off channel=9 note=44 velocity=50 time=0.125
EXTRACT: note_off channel=9 note=82 velocity=40 time=0
EXTRACT: note_on channel=9 note=35 velocity=120 time=0.037500000000000006
EXTRACT: note_on channel=9 note=36 velocity=120 time=0
EXTRACT: note_on channel=9 note=44 velocity=60 time=0
EXTRACT: note_off channel=9 note=44 velocity=50 time=0.125
EXTRACT: note_off channel=9 note=36 velocity=100 time=0
EXTRACT: note_off channel=9 note=35 velocity=100 time=0
EXTRACT: note_on channel=9 note=85 velocity=120 time=0.078125
EXTRACT: note_on channel=9 note=39 velocity=120 time=0
EXTRACT: note_on channel=9 note=82 velocity=50 time=0
EXTRACT: note_on channel=9 note=54 velocity=100 time=0
EXTRACT: note_on channel=9 note=28 velocity=100 time=0
EXTRACT: note_on channel=9 note=44 velocity=60 time=0
EXTRACT: note_off channel=9 note=44 velocity=50 time=0.125
EXTRACT: note_off channel=9 note=28 velocity=80 time=0
EXTRACT: note_off channel=9 note=54 velocity=80 time=0
EXTRACT: note_off channel=9 note=82 velocity=40 time=0
EXTRACT: note_off channel=9 note=39 velocity=100 time=0
EXTRACT: note_off channel=9 note=85 velocity=100 time=0
EXTRACT: note_on channel=9 note=44 velocity=60 time=0.05625
EXTRACT: note_off channel=9 note=44 velocity=50 time=0.125
EXTRACT: note_on channel=9 note=44 velocity=60 time=0.078125
EXTRACT: note_off channel=9 note=44 velocity=50 time=0.125
EXTRACT: note_on channel=9 note=82 velocity=50 time=0.037500000000000006
EXTRACT: note_on channel=9 note=44 velocity=60 time=0
EXTRACT: note_off channel=9 note=44 velocity=50 time=0.125
EXTRACT: note_off channel=9 note=82 velocity=40 time=0
EXTRACT: note_on channel=9 note=44 velocity=60 time=0.078125
EXTRACT: note_off channel=9 note=44 velocity=50 time=0.125
EXTRACT: note_on channel=9 note=82 velocity=50 time=0.05625
EXTRACT: note_on channel=9 note=44 velocity=60 time=0
EXTRACT: note_off channel=9 note=44 velocity=50 time=0.125
EXTRACT: note_off channel=9 note=82 velocity=40 time=0
EXTRACT: note_on channel=9 note=35 velocity=120 time=0.078125
EXTRACT: note_on channel=9 note=36 velocity=120 time=0
EXTRACT: note_on channel=9 note=82 velocity=50 time=0
EXTRACT: note_on channel=9 note=44 velocity=60 time=0
EXTRACT: note_off channel=9 note=44 velocity=50 time=0.125
EXTRACT: note_off channel=9 note=82 velocity=40 time=0
EXTRACT: note_off channel=9 note=36 velocity=100 time=0
EXTRACT: note_off channel=9 note=35 velocity=100 time=0
EXTRACT: note_on channel=9 note=44 velocity=60 time=0.037500000000000006
EXTRACT: note_off channel=9 note=44 velocity=50 time=0.125
EXTRACT: note_on channel=9 note=85 velocity=120 time=0.078125
EXTRACT: note_on channel=9 note=39 velocity=120 time=0
EXTRACT: note_on channel=9 note=54 velocity=100 time=0
EXTRACT: note_on channel=9 note=28 velocity=100 time=0
EXTRACT: note_on channel=9 note=44 velocity=60 time=0
EXTRACT: note_off channel=9 note=44 velocity=50 time=0.125
EXTRACT: note_off channel=9 note=28 velocity=80 time=0
EXTRACT: note_off channel=9 note=54 velocity=80 time=0
EXTRACT: note_off channel=9 note=39 velocity=100 time=0
EXTRACT: note_off channel=9 note=85 velocity=100 time=0
EXTRACT: note_on channel=9 note=44 velocity=60 time=0.05625
EXTRACT: note_off channel=9 note=44 velocity=50 time=0.125
EXTRACT: note_on channel=9 note=44 velocity=60 time=0.078125
EXTRACT: note_off channel=9 note=44 velocity=50 time=0.125
EXTRACT: note_on channel=9 note=44 velocity=60 time=0.037500000000000006
EXTRACT: note_off channel=3 note=66 velocity=80 time=0.12187500000000001
EXTRACT: note_off channel=9 note=44 velocity=50 time=0.003125
EXTRACT: note_off channel=1 note=57 velocity=80 time=0.0171875
EXTRACT: note_off channel=4 note=69 velocity=80 time=0
EXTRACT: note_off channel=1 note=50 velocity=80 time=0.0203125
EXTRACT: note_off channel=1 note=54 velocity=80 time=0
EXTRACT: note_off channel=4 note=62 velocity=80 time=0
EXTRACT: note_off channel=4 note=66 velocity=80 time=0
EXTRACT: note_off channel=0 note=38 velocity=80 time=0
EXTRACT: note_off channel=0 note=57 velocity=80 time=0
EXTRACT: note_off channel=0 note=54 velocity=80 time=0
EXTRACT: note_off channel=0 note=50 velocity=80 time=0
EXTRACT: note_on channel=0 note=42 velocity=100 time=0
EXTRACT: note_off channel=2 note=38 velocity=80 time=0
EXTRACT: note_off channel=2 note=57 velocity=80 time=0
EXTRACT: note_off channel=2 note=54 velocity=80 time=0
EXTRACT: note_off channel=2 note=50 velocity=80 time=0
EXTRACT: note_on channel=2 note=42 velocity=100 time=0
EXTRACT: note_on channel=0 note=57 velocity=100 time=0.43928527500000003
EXTRACT: note_on channel=2 note=57 velocity=100 time=0
EXTRACT: note_on channel=0 note=61 velocity=100 time=0.417856725
EXTRACT: note_on channel=2 note=61 velocity=100 time=0
EXTRACT: note_on channel=3 note=59 velocity=100 time=0
EXTRACT: note_off channel=0 note=57 velocity=80 time=0.0803570625
EXTRACT: note_off channel=2 note=57 velocity=80 time=0
EXTRACT: note_on channel=0 note=66 velocity=100 time=0.1160713125
EXTRACT: note_on channel=2 note=66 velocity=100 time=0
EXTRACT: note_on channel=3 note=64 velocity=100 time=0
EXTRACT: note_off channel=3 note=59 velocity=80 time=0.046428525
EXTRACT: note_off channel=0 note=61 velocity=80 time=0.1339284375
EXTRACT: note_off channel=2 note=61 velocity=80 time=0
EXTRACT: note_off channel=3 note=64 velocity=80 time=0.09285705
EXTRACT: note_off channel=0 note=42 velocity=80 time=0.0232142625
EXTRACT: note_on channel=0 note=59 velocity=100 time=0
EXTRACT: note_on channel=0 note=64 velocity=100 time=0
EXTRACT: note_on channel=0 note=56 velocity=100 time=0
EXTRACT: note_off channel=2 note=42 velocity=80 time=0
EXTRACT: note_on channel=2 note=59 velocity=100 time=0
EXTRACT: note_on channel=2 note=64 velocity=100 time=0
EXTRACT: note_on channel=2 note=56 velocity=100 time=0
EXTRACT: note_on channel=3 note=64 velocity=100 time=0
EXTRACT: note_off channel=0 note=66 velocity=80 time=0.003571425
EXTRACT: note_off channel=2 note=66 velocity=80 time=0
EXTRACT: note_on channel=0 note=71 velocity=100 time=0.6267850875000001
EXTRACT: note_on channel=2 note=71 velocity=100 time=0
EXTRACT: note_on channel=3 note=59 velocity=100 time=0
EXTRACT: note_off channel=3 note=64 velocity=80 time=0.0910713375
EXTRACT: note_on channel=3 note=57 velocity=100 time=0.1160713125
EXTRACT: note_off channel=3 note=59 velocity=80 time=0.0196428375
EXTRACT: note_off channel=0 note=64 velocity=80 time=0.0232142625
EXTRACT: note_off channel=0 note=56 velocity=80 time=0
EXTRACT: note_off channel=2 note=64 velocity=80 time=0
EXTRACT: note_off channel=2 note=56 velocity=80 time=0
EXTRACT: note_off channel=0 note=59 velocity=80 time=0.046428525
EXTRACT: note_off channel=2 note=59 velocity=80 time=0
EXTRACT: note_on channel=0 note=69 velocity=100 time=0.09285705
EXTRACT: note_on channel=2 note=69 velocity=100 time=0
EXTRACT: note_on channel=3 note=59 velocity=100 time=0
EXTRACT: note_off channel=3 note=57 velocity=80 time=0.09285705
EXTRACT: note_off channel=0 note=71 velocity=80 time=0.0232142625
EXTRACT: note_off channel=2 note=71 velocity=80 time=0
EXTRACT: note_on channel=3 note=57 velocity=100 time=0.0696427875
EXTRACT: note_off channel=3 note=59 velocity=80 time=0.07857135
EXTRACT: note_on channel=0 note=57 velocity=100 time=0.09285705
EXTRACT: note_on channel=2 note=57 velocity=100 time=0
EXTRACT: note_off channel=0 note=69 velocity=80 time=0.0232142625
EXTRACT: note_off channel=2 note=69 velocity=80 time=0
EXTRACT: note_on channel=0 note=64 velocity=100 time=0.4160710125
EXTRACT: note_on channel=2 note=64 velocity=100 time=0
EXTRACT: note_on channel=0 note=69 velocity=100 time=0.417856725
EXTRACT: note_on channel=2 note=69 velocity=100 time=0
EXTRACT: note_on channel=0 note=73 velocity=100 time=0.43928527500000003
EXTRACT: note_on channel=2 note=73 velocity=100 time=0
EXTRACT: note_off channel=3 note=57 velocity=80 time=0.4410709875
EXTRACT: note_off channel=0 note=69 velocity=80 time=2.5482117375
EXTRACT: note_off channel=0 note=57 velocity=80 time=0
EXTRACT: note_off channel=2 note=69 velocity=80 time=0
EXTRACT: note_off channel=2 note=57 velocity=80 time=0
EXTRACT: note_off channel=0 note=64 velocity=80 time=0.0232142625
EXTRACT: note_off channel=0 note=73 velocity=80 time=0
EXTRACT: note_off channel=2 note=64 velocity=80 time=0
EXTRACT: note_off channel=2 note=73 velocity=80 time=0
EXTRACT: control_change channel=9 control=7 value=0 time=2.5482117375
EXTRACT: note_on channel=9 note=35 velocity=120 time=0
EXTRACT: note_on channel=9 note=36 velocity=120 time=0
EXTRACT: note_on channel=9 note=44 velocity=60 time=0
EXTRACT: note_off channel=9 note=44 velocity=50 time=0.142857
EXTRACT: note_off channel=9 note=36 velocity=100 time=0
EXTRACT: note_off channel=9 note=35 velocity=100 time=0
EXTRACT: note_on channel=9 note=44 velocity=60 time=0.06428565
EXTRACT: note_off channel=9 note=44 velocity=50 time=0.142857
EXTRACT: note_on channel=9 note=82 velocity=50 time=0.08928562500000001
EXTRACT: note_on channel=9 note=44 velocity=60 time=0
EXTRACT: note_off channel=9 note=44 velocity=50 time=0.142857
EXTRACT: note_off channel=9 note=82 velocity=40 time=0
EXTRACT: note_on channel=9 note=35 velocity=120 time=0.0428571
EXTRACT: note_on channel=9 note=36 velocity=120 time=0
EXTRACT: note_on channel=9 note=44 velocity=60 time=0
EXTRACT: note_off channel=9 note=44 velocity=50 time=0.142857
EXTRACT: note_off channel=9 note=36 velocity=100 time=0
EXTRACT: note_off channel=9 note=35 velocity=100 time=0
EXTRACT: note_on channel=9 note=85 velocity=120 time=0.08928562500000001
EXTRACT: note_on channel=9 note=39 velocity=120 time=0
EXTRACT: note_on channel=9 note=82 velocity=50 time=0
EXTRACT: note_on channel=9 note=54 velocity=100 time=0
EXTRACT: note_on channel=9 note=28 velocity=100 time=0
EXTRACT: note_on channel=9 note=44 velocity=60 time=0
EXTRACT: note_off channel=9 note=44 velocity=50 time=0.142857
EXTRACT: note_off channel=9 note=28 velocity=80 time=0
EXTRACT: note_off channel=9 note=54 velocity=80 time=0
EXTRACT: note_off channel=9 note=82 velocity=40 time=0
EXTRACT: note_off channel=9 note=39 velocity=100 time=0
EXTRACT: note_off channel=9 note=85 velocity=100 time=0
EXTRACT: note_on channel=9 note=44 velocity=60 time=0.06428565
EXTRACT: note_off channel=9 note=44 velocity=50 time=0.142857
EXTRACT: note_on channel=9 note=44 velocity=60 time=0.08928562500000001
EXTRACT: note_off channel=9 note=44 velocity=50 time=0.142857
EXTRACT: note_on channel=9 note=82 velocity=50 time=0.0428571
EXTRACT: note_on channel=9 note=44 velocity=60 time=0
EXTRACT: note_off channel=9 note=44 velocity=50 time=0.142857
EXTRACT: note_off channel=9 note=82 velocity=40 time=0
EXTRACT: note_on channel=9 note=44 velocity=60 time=0.08928562500000001
EXTRACT: note_off channel=9 note=44 velocity=50 time=0.142857
EXTRACT: note_on channel=9 note=82 velocity=50 time=0.06428565
EXTRACT: note_on channel=9 note=44 velocity=60 time=0
EXTRACT: note_off channel=9 note=44 velocity=50 time=0.142857
EXTRACT: note_off channel=9 note=82 velocity=40 time=0
EXTRACT: note_on channel=9 note=35 velocity=120 time=0.08928562500000001
EXTRACT: note_on channel=9 note=36 velocity=120 time=0
EXTRACT: note_on channel=9 note=82 velocity=50 time=0
EXTRACT: note_on channel=9 note=44 velocity=60 time=0
EXTRACT: note_off channel=9 note=44 velocity=50 time=0.142857
EXTRACT: note_off channel=9 note=82 velocity=40 time=0
EXTRACT: note_off channel=9 note=36 velocity=100 time=0
EXTRACT: note_off channel=9 note=35 velocity=100 time=0
EXTRACT: note_on channel=9 note=44 velocity=60 time=0.0428571
EXTRACT: note_off channel=9 note=44 velocity=50 time=0.142857
EXTRACT: note_on channel=9 note=85 velocity=120 time=0.08928562500000001
EXTRACT: note_on channel=9 note=39 velocity=120 time=0
EXTRACT: note_on channel=9 note=54 velocity=100 time=0
EXTRACT: note_on channel=9 note=28 velocity=100 time=0
EXTRACT: note_on channel=9 note=44 velocity=60 time=0
EXTRACT: note_off channel=9 note=44 velocity=50 time=0.142857
EXTRACT: note_off channel=9 note=28 velocity=80 time=0
EXTRACT: note_off channel=9 note=54 velocity=80 time=0
EXTRACT: note_off channel=9 note=39 velocity=100 time=0
EXTRACT: note_off channel=9 note=85 velocity=100 time=0
EXTRACT: note_on channel=9 note=44 velocity=60 time=0.06428565
EXTRACT: note_off channel=9 note=44 velocity=50 time=0.142857
EXTRACT: note_on channel=9 note=44 velocity=60 time=0.08928562500000001
EXTRACT: note_off channel=9 note=44 velocity=50 time=0.142857
EXTRACT: note_on channel=9 note=44 velocity=60 time=0.0428571
EXTRACT: note_off channel=9 note=44 velocity=50 time=0.142857
