EXTRACT: program_change channel=4 program=74 time=0
EXTRACT: program_change channel=0 program=25 time=0
EXTRACT: note_on channel=0 note=57 velocity=80 time=0
EXTRACT: note_on channel=0 note=52 velocity=80 time=0
EXTRACT: note_on channel=0 note=45 velocity=80 time=0
EXTRACT: program_change channel=2 program=33 time=0
EXTRACT: program_change channel=6 program=48 time=0
EXTRACT: note_on channel=6 note=64 velocity=80 time=0
EXTRACT: note_on channel=6 note=61 velocity=80 time=0
EXTRACT: note_on channel=6 note=57 velocity=80 time=0
EXTRACT: program_change channel=8 program=26 time=0
EXTRACT: note_off channel=0 note=57 velocity=64 time=0.4166665
EXTRACT: note_off channel=0 note=52 velocity=64 time=0
EXTRACT: note_off channel=0 note=45 velocity=64 time=0
EXTRACT: note_on channel=0 note=57 velocity=80 time=0
EXTRACT: note_on channel=0 note=52 velocity=80 time=0
EXTRACT: note_on channel=0 note=45 velocity=80 time=0
EXTRACT: note_off channel=0 note=57 velocity=64 time=0.20833325
EXTRACT: note_off channel=0 note=52 velocity=64 time=0
EXTRACT: note_off channel=0 note=45 velocity=64 time=0
EXTRACT: note_on channel=0 note=57 velocity=80 time=0
EXTRACT: note_on channel=0 note=52 velocity=80 time=0
EXTRACT: note_on channel=0 note=45 velocity=80 time=0
EXTRACT: note_off channel=0 note=57 velocity=64 time=0.20833325
EXTRACT: note_off channel=0 note=52 velocity=64 time=0
EXTRACT: note_off channel=0 note=45 velocity=64 time=0
EXTRACT: note_on channel=0 note=57 velocity=80 time=0
EXTRACT: note_on channel=0 note=52 velocity=80 time=0
EXTRACT: note_on channel=0 note=45 velocity=80 time=0
EXTRACT: note_off channel=0 note=57 velocity=64 time=0.20833325
EXTRACT: note_off channel=0 note=52 velocity=64 time=0
EXTRACT: note_off channel=0 note=45 velocity=64 time=0
EXTRACT: note_on channel=0 note=57 velocity=80 time=0
EXTRACT: note_on channel=0 note=52 velocity=80 time=0
EXTRACT: note_on channel=0 note=45 velocity=80 time=0
EXTRACT: note_off channel=0 note=57 velocity=64 time=0.20833325
EXTRACT: note_off channel=0 note=52 velocity=64 time=0
EXTRACT: note_off channel=0 note=45 velocity=64 time=0
EXTRACT: note_on channel=0 note=59 velocity=80 time=0
EXTRACT: note_on channel=0 note=54 velocity=80 time=0
EXTRACT: note_on channel=0 note=47 velocity=80 time=0
EXTRACT: note_off channel=6 note=64 velocity=64 time=0
EXTRACT: note_off channel=6 note=61 velocity=64 time=0
EXTRACT: note_off channel=6 note=57 velocity=64 time=0
EXTRACT: note_on channel=6 note=66 velocity=80 time=0
EXTRACT: note_on channel=6 note=62 velocity=80 time=0
EXTRACT: note_on channel=6 note=59 velocity=80 time=0
EXTRACT: note_off channel=0 note=59 velocity=64 time=0.4166665
EXTRACT: note_off channel=0 note=54 velocity=64 time=0
EXTRACT: note_off channel=0 note=47 velocity=64 time=0
EXTRACT: note_on channel=0 note=59 velocity=80 time=0
EXTRACT: note_on channel=0 note=54 velocity=80 time=0
EXTRACT: note_on channel=0 note=47 velocity=80 time=0
EXTRACT: note_off channel=0 note=59 velocity=64 time=0.20833325
EXTRACT: note_off channel=0 note=54 velocity=64 time=0
EXTRACT: note_off channel=0 note=47 velocity=64 time=0
EXTRACT: note_on channel=0 note=59 velocity=80 time=0
EXTRACT: note_on channel=0 note=54 velocity=80 time=0
EXTRACT: note_on channel=0 note=47 velocity=80 time=0
EXTRACT: note_off channel=0 note=59 velocity=64 time=0.20833325
EXTRACT: note_off channel=0 note=54 velocity=64 time=0
EXTRACT: note_off channel=0 note=47 velocity=64 time=0
EXTRACT: note_on channel=0 note=59 velocity=80 time=0
EXTRACT: note_on channel=0 note=54 velocity=80 time=0
EXTRACT: note_on channel=0 note=47 velocity=80 time=0
EXTRACT: note_off channel=0 note=59 velocity=64 time=0.20833325
EXTRACT: note_off channel=0 note=54 velocity=64 time=0
EXTRACT: note_off channel=0 note=47 velocity=64 time=0
EXTRACT: note_on channel=0 note=59 velocity=80 time=0
EXTRACT: note_on channel=0 note=54 velocity=80 time=0
EXTRACT: note_on channel=0 note=47 velocity=80 time=0
EXTRACT: note_off channel=0 note=59 velocity=64 time=0.20833325
EXTRACT: note_off channel=0 note=54 velocity=64 time=0
EXTRACT: note_off channel=0 note=47 velocity=64 time=0
EXTRACT: note_on channel=0 note=62 velocity=80 time=0
EXTRACT: note_on channel=0 note=57 velocity=80 time=0
EXTRACT: note_on channel=0 note=50 velocity=80 time=0
EXTRACT: note_off channel=6 note=66 velocity=64 time=0
EXTRACT: note_off channel=6 note=62 velocity=64 time=0
EXTRACT: note_off channel=6 note=59 velocity=64 time=0
EXTRACT: note_on channel=6 note=69 velocity=80 time=0
EXTRACT: note_on channel=6 note=66 velocity=80 time=0
EXTRACT: note_on channel=6 note=62 velocity=80 time=0
EXTRACT: note_off channel=0 note=62 velocity=64 time=0.4166665
EXTRACT: note_off channel=0 note=57 velocity=64 time=0
EXTRACT: note_off channel=0 note=50 velocity=64 time=0
EXTRACT: note_on channel=0 note=62 velocity=80 time=0
EXTRACT: note_on channel=0 note=57 velocity=80 time=0
EXTRACT: note_on channel=0 note=50 velocity=80 time=0
EXTRACT: note_off channel=0 note=62 velocity=64 time=0.20833325
EXTRACT: note_off channel=0 note=57 velocity=64 time=0
EXTRACT: note_off channel=0 note=50 velocity=64 time=0
EXTRACT: note_on channel=0 note=62 velocity=80 time=0
EXTRACT: note_on channel=0 note=57 velocity=80 time=0
EXTRACT: note_on channel=0 note=50 velocity=80 time=0
EXTRACT: note_off channel=0 note=62 velocity=64 time=0.20833325
EXTRACT: note_off channel=0 note=57 velocity=64 time=0
EXTRACT: note_off channel=0 note=50 velocity=64 time=0
EXTRACT: note_on channel=0 note=62 velocity=80 time=0
EXTRACT: note_on channel=0 note=57 velocity=80 time=0
EXTRACT: note_on channel=0 note=50 velocity=80 time=0
EXTRACT: note_off channel=0 note=62 velocity=64 time=0.20833325
EXTRACT: note_off channel=0 note=57 velocity=64 time=0
EXTRACT: note_off channel=0 note=50 velocity=64 time=0
EXTRACT: note_on channel=0 note=62 velocity=80 time=0
EXTRACT: note_on channel=0 note=57 velocity=80 time=0
EXTRACT: note_on channel=0 note=50 velocity=80 time=0
EXTRACT: note_off channel=0 note=62 velocity=64 time=0.20833325
EXTRACT: note_off channel=0 note=57 velocity=64 time=0
EXTRACT: note_off channel=0 note=50 velocity=64 time=0
EXTRACT: note_on channel=0 note=62 velocity=80 time=0
EXTRACT: note_on channel=0 note=57 velocity=80 time=0
EXTRACT: note_on channel=0 note=50 velocity=80 time=0
EXTRACT: note_on channel=8 note=49 velocity=80 time=0
EXTRACT: note_off channel=8 note=49 velocity=64 time=0.20833325
EXTRACT: note_on channel=8 note=50 velocity=80 time=0
EXTRACT: note_off channel=0 note=62 velocity=64 time=0.20833325
EXTRACT: note_off channel=0 note=57 velocity=64 time=0
EXTRACT: note_off channel=0 note=50 velocity=64 time=0
EXTRACT: note_on channel=0 note=62 velocity=80 time=0
EXTRACT: note_on channel=0 note=57 velocity=80 time=0
EXTRACT: note_on channel=0 note=50 velocity=80 time=0
EXTRACT: note_off channel=8 note=50 velocity=64 time=0
EXTRACT: note_on channel=8 note=49 velocity=80 time=0
EXTRACT: note_off channel=0 note=62 velocity=64 time=0.20833325
EXTRACT: note_off channel=0 note=57 velocity=64 time=0
EXTRACT: note_off channel=0 note=50 velocity=64 time=0
EXTRACT: note_on channel=0 note=62 velocity=80 time=0
EXTRACT: note_on channel=0 note=57 velocity=80 time=0
EXTRACT: note_on channel=0 note=50 velocity=80 time=0
EXTRACT: note_off channel=0 note=62 velocity=64 time=0.20833325
EXTRACT: note_off channel=0 note=57 velocity=64 time=0
EXTRACT: note_off channel=0 note=50 velocity=64 time=0
EXTRACT: note_on channel=0 note=62 velocity=80 time=0
EXTRACT: note_on channel=0 note=57 velocity=80 time=0
EXTRACT: note_on channel=0 note=50 velocity=80 time=0
EXTRACT: note_off channel=0 note=62 velocity=64 time=0.20833325
EXTRACT: note_off channel=0 note=57 velocity=64 time=0
EXTRACT: note_off channel=0 note=50 velocity=64 time=0
EXTRACT: note_on channel=0 note=62 velocity=80 time=0
EXTRACT: note_on channel=0 note=57 velocity=80 time=0
EXTRACT: note_on channel=0 note=50 velocity=80 time=0
EXTRACT: note_off channel=0 note=62 velocity=64 time=0.20833325
EXTRACT: note_off channel=0 note=57 velocity=64 time=0
EXTRACT: note_off channel=0 note=50 velocity=64 time=0
EXTRACT: note_on channel=0 note=57 velocity=80 time=0
EXTRACT: note_on channel=0 note=52 velocity=80 time=0
EXTRACT: note_on channel=0 note=45 velocity=80 time=0
EXTRACT: note_off channel=6 note=69 velocity=64 time=0
EXTRACT: note_off channel=6 note=66 velocity=64 time=0
EXTRACT: note_off channel=6 note=62 velocity=64 time=0
EXTRACT: note_on channel=6 note=64 velocity=80 time=0
EXTRACT: note_on channel=6 note=61 velocity=80 time=0
EXTRACT: note_on channel=6 note=57 velocity=80 time=0
EXTRACT: note_off channel=8 note=49 velocity=64 time=0
EXTRACT: note_off channel=0 note=57 velocity=64 time=0.4166665
EXTRACT: note_off channel=0 note=52 velocity=64 time=0
EXTRACT: note_off channel=0 note=45 velocity=64 time=0
EXTRACT: note_on channel=0 note=57 velocity=80 time=0
EXTRACT: note_on channel=0 note=52 velocity=80 time=0
EXTRACT: note_on channel=0 note=45 velocity=80 time=0
EXTRACT: note_off channel=0 note=57 velocity=64 time=0.20833325
EXTRACT: note_off channel=0 note=52 velocity=64 time=0
EXTRACT: note_off channel=0 note=45 velocity=64 time=0
EXTRACT: note_on channel=0 note=57 velocity=80 time=0
EXTRACT: note_on channel=0 note=52 velocity=80 time=0
EXTRACT: note_on channel=0 note=45 velocity=80 time=0
EXTRACT: note_off channel=0 note=57 velocity=64 time=0.20833325
EXTRACT: note_off channel=0 note=52 velocity=64 time=0
EXTRACT: note_off channel=0 note=45 velocity=64 time=0
EXTRACT: note_on channel=0 note=57 velocity=80 time=0
EXTRACT: note_on channel=0 note=52 velocity=80 time=0
EXTRACT: note_on channel=0 note=45 velocity=80 time=0
EXTRACT: note_off channel=0 note=57 velocity=64 time=0.20833325
EXTRACT: note_off channel=0 note=52 velocity=64 time=0
EXTRACT: note_off channel=0 note=45 velocity=64 time=0
EXTRACT: note_on channel=0 note=57 velocity=80 time=0
EXTRACT: note_on channel=0 note=52 velocity=80 time=0
EXTRACT: note_on channel=0 note=45 velocity=80 time=0
EXTRACT: note_off channel=0 note=57 velocity=64 time=0.20833325
EXTRACT: note_off channel=0 note=52 velocity=64 time=0
EXTRACT: note_off channel=0 note=45 velocity=64 time=0
EXTRACT: note_on channel=0 note=59 velocity=80 time=0
EXTRACT: note_on channel=0 note=54 velocity=80 time=0
EXTRACT: note_on channel=0 note=47 velocity=80 time=0
EXTRACT: note_off channel=6 note=64 velocity=64 time=0
EXTRACT: note_off channel=6 note=61 velocity=64 time=0
EXTRACT: note_off channel=6 note=57 velocity=64 time=0
EXTRACT: note_on channel=6 note=66 velocity=80 time=0
EXTRACT: note_on channel=6 note=62 velocity=80 time=0
EXTRACT: note_on channel=6 note=59 velocity=80 time=0
EXTRACT: note_off channel=0 note=59 velocity=64 time=0.4166665
EXTRACT: note_off channel=0 note=54 velocity=64 time=0
EXTRACT: note_off channel=0 note=47 velocity=64 time=0
EXTRACT: note_on channel=0 note=59 velocity=80 time=0
EXTRACT: note_on channel=0 note=54 velocity=80 time=0
EXTRACT: note_on channel=0 note=47 velocity=80 time=0
EXTRACT: note_off channel=0 note=59 velocity=64 time=0.20833325
EXTRACT: note_off channel=0 note=54 velocity=64 time=0
EXTRACT: note_off channel=0 note=47 velocity=64 time=0
EXTRACT: note_on channel=0 note=59 velocity=80 time=0
EXTRACT: note_on channel=0 note=54 velocity=80 time=0
EXTRACT: note_on channel=0 note=47 velocity=80 time=0
EXTRACT: note_off channel=0 note=59 velocity=64 time=0.20833325
EXTRACT: note_off channel=0 note=54 velocity=64 time=0
EXTRACT: note_off channel=0 note=47 velocity=64 time=0
EXTRACT: note_on channel=0 note=59 velocity=80 time=0
EXTRACT: note_on channel=0 note=54 velocity=80 time=0
EXTRACT: note_on channel=0 note=47 velocity=80 time=0
EXTRACT: note_off channel=0 note=59 velocity=64 time=0.20833325
EXTRACT: note_off channel=0 note=54 velocity=64 time=0
EXTRACT: note_off channel=0 note=47 velocity=64 time=0
EXTRACT: note_on channel=0 note=59 velocity=80 time=0
EXTRACT: note_on channel=0 note=54 velocity=80 time=0
EXTRACT: note_on channel=0 note=47 velocity=80 time=0
EXTRACT: note_off channel=0 note=59 velocity=64 time=0.20833325
EXTRACT: note_off channel=0 note=54 velocity=64 time=0
EXTRACT: note_off channel=0 note=47 velocity=64 time=0
EXTRACT: note_on channel=0 note=62 velocity=80 time=0
EXTRACT: note_on channel=0 note=57 velocity=80 time=0
EXTRACT: note_on channel=0 note=50 velocity=80 time=0
EXTRACT: note_off channel=6 note=66 velocity=64 time=0
EXTRACT: note_off channel=6 note=62 velocity=64 time=0
EXTRACT: note_off channel=6 note=59 velocity=64 time=0
EXTRACT: note_on channel=6 note=69 velocity=80 time=0
EXTRACT: note_on channel=6 note=66 velocity=80 time=0
EXTRACT: note_on channel=6 note=62 velocity=80 time=0
EXTRACT: note_off channel=0 note=62 velocity=64 time=0.4166665
EXTRACT: note_off channel=0 note=57 velocity=64 time=0
EXTRACT: note_off channel=0 note=50 velocity=64 time=0
EXTRACT: note_on channel=0 note=62 velocity=80 time=0
EXTRACT: note_on channel=0 note=57 velocity=80 time=0
EXTRACT: note_on channel=0 note=50 velocity=80 time=0
EXTRACT: note_off channel=0 note=62 velocity=64 time=0.20833325
EXTRACT: note_off channel=0 note=57 velocity=64 time=0
EXTRACT: note_off channel=0 note=50 velocity=64 time=0
EXTRACT: note_on channel=0 note=62 velocity=80 time=0
EXTRACT: note_on channel=0 note=57 velocity=80 time=0
EXTRACT: note_on channel=0 note=50 velocity=80 time=0
EXTRACT: note_off channel=0 note=62 velocity=64 time=0.20833325
EXTRACT: note_off channel=0 note=57 velocity=64 time=0
EXTRACT: note_off channel=0 note=50 velocity=64 time=0
EXTRACT: note_on channel=0 note=62 velocity=80 time=0
EXTRACT: note_on channel=0 note=57 velocity=80 time=0
EXTRACT: note_on channel=0 note=50 velocity=80 time=0
EXTRACT: note_off channel=0 note=62 velocity=64 time=0.20833325
EXTRACT: note_off channel=0 note=57 velocity=64 time=0
EXTRACT: note_off channel=0 note=50 velocity=64 time=0
EXTRACT: note_on channel=0 note=62 velocity=80 time=0
EXTRACT: note_on channel=0 note=57 velocity=80 time=0
EXTRACT: note_on channel=0 note=50 velocity=80 time=0
EXTRACT: note_off channel=0 note=62 velocity=64 time=0.20833325
EXTRACT: note_off channel=0 note=57 velocity=64 time=0
EXTRACT: note_off channel=0 note=50 velocity=64 time=0
EXTRACT: note_on channel=0 note=62 velocity=80 time=0
EXTRACT: note_on channel=0 note=57 velocity=80 time=0
EXTRACT: note_on channel=0 note=50 velocity=80 time=0
EXTRACT: note_on channel=8 note=54 velocity=80 time=0
EXTRACT: note_off channel=0 note=62 velocity=64 time=0.4166665
EXTRACT: note_off channel=0 note=57 velocity=64 time=0
EXTRACT: note_off channel=0 note=50 velocity=64 time=0
EXTRACT: note_on channel=0 note=62 velocity=80 time=0
EXTRACT: note_on channel=0 note=57 velocity=80 time=0
EXTRACT: note_on channel=0 note=50 velocity=80 time=0
EXTRACT: note_off channel=8 note=54 velocity=64 time=0
EXTRACT: note_on channel=8 note=52 velocity=80 time=0
EXTRACT: note_off channel=0 note=62 velocity=64 time=0.20833325
EXTRACT: note_off channel=0 note=57 velocity=64 time=0
EXTRACT: note_off channel=0 note=50 velocity=64 time=0
EXTRACT: note_on channel=0 note=62 velocity=80 time=0
EXTRACT: note_on channel=0 note=57 velocity=80 time=0
EXTRACT: note_on channel=0 note=50 velocity=80 time=0
EXTRACT: note_off channel=0 note=62 velocity=64 time=0.20833325
EXTRACT: note_off channel=0 note=57 velocity=64 time=0
EXTRACT: note_off channel=0 note=50 velocity=64 time=0
EXTRACT: note_on channel=0 note=62 velocity=80 time=0
EXTRACT: note_on channel=0 note=57 velocity=80 time=0
EXTRACT: note_on channel=0 note=50 velocity=80 time=0
EXTRACT: note_off channel=8 note=52 velocity=64 time=0
EXTRACT: note_on channel=8 note=50 velocity=80 time=0
EXTRACT: note_off channel=0 note=62 velocity=64 time=0.20833325
EXTRACT: note_off channel=0 note=57 velocity=64 time=0
EXTRACT: note_off channel=0 note=50 velocity=64 time=0
EXTRACT: note_on channel=0 note=62 velocity=80 time=0
EXTRACT: note_on channel=0 note=57 velocity=80 time=0
EXTRACT: note_on channel=0 note=50 velocity=80 time=0
EXTRACT: note_off channel=0 note=62 velocity=64 time=0.20833325
EXTRACT: note_off channel=0 note=57 velocity=64 time=0
EXTRACT: note_off channel=0 note=50 velocity=64 time=0
EXTRACT: note_on channel=0 note=57 velocity=80 time=0
EXTRACT: note_on channel=0 note=52 velocity=80 time=0
EXTRACT: note_on channel=0 note=45 velocity=80 time=0
EXTRACT: note_off channel=6 note=69 velocity=64 time=0
EXTRACT: note_off channel=6 note=66 velocity=64 time=0
EXTRACT: note_off channel=6 note=62 velocity=64 time=0
EXTRACT: note_on channel=6 note=64 velocity=80 time=0
EXTRACT: note_on channel=6 note=61 velocity=80 time=0
EXTRACT: note_on channel=6 note=57 velocity=80 time=0
EXTRACT: note_off channel=8 note=50 velocity=64 time=0
EXTRACT: note_off channel=0 note=57 velocity=64 time=0.4166665
EXTRACT: note_off channel=0 note=52 velocity=64 time=0
EXTRACT: note_off channel=0 note=45 velocity=64 time=0
EXTRACT: note_on channel=0 note=57 velocity=80 time=0
EXTRACT: note_on channel=0 note=52 velocity=80 time=0
EXTRACT: note_on channel=0 note=45 velocity=80 time=0
EXTRACT: note_off channel=0 note=57 velocity=64 time=0.20833325
EXTRACT: note_off channel=0 note=52 velocity=64 time=0
EXTRACT: note_off channel=0 note=45 velocity=64 time=0
EXTRACT: note_on channel=0 note=57 velocity=80 time=0
EXTRACT: note_on channel=0 note=52 velocity=80 time=0
EXTRACT: note_on channel=0 note=45 velocity=80 time=0
EXTRACT: note_off channel=0 note=57 velocity=64 time=0.20833325
EXTRACT: note_off channel=0 note=52 velocity=64 time=0
EXTRACT: note_off channel=0 note=45 velocity=64 time=0
EXTRACT: note_on channel=0 note=57 velocity=80 time=0
EXTRACT: note_on channel=0 note=52 velocity=80 time=0
EXTRACT: note_on channel=0 note=45 velocity=80 time=0
EXTRACT: note_off channel=0 note=57 velocity=64 time=0.20833325
EXTRACT: note_off channel=0 note=52 velocity=64 time=0
EXTRACT: note_off channel=0 note=45 velocity=64 time=0
EXTRACT: note_on channel=0 note=57 velocity=80 time=0
EXTRACT: note_on channel=0 note=52 velocity=80 time=0
EXTRACT: note_on channel=0 note=45 velocity=80 time=0
EXTRACT: note_off channel=0 note=57 velocity=64 time=0.20833325
EXTRACT: note_off channel=0 note=52 velocity=64 time=0
EXTRACT: note_off channel=0 note=45 velocity=64 time=0
EXTRACT: note_on channel=0 note=59 velocity=80 time=0
EXTRACT: note_on channel=0 note=54 velocity=80 time=0
EXTRACT: note_on channel=0 note=47 velocity=80 time=0
EXTRACT: note_off channel=6 note=64 velocity=64 time=0
EXTRACT: note_off channel=6 note=61 velocity=64 time=0
EXTRACT: note_off channel=6 note=57 velocity=64 time=0
EXTRACT: note_on channel=6 note=66 velocity=80 time=0
EXTRACT: note_on channel=6 note=62 velocity=80 time=0
EXTRACT: note_on channel=6 note=59 velocity=80 time=0
EXTRACT: note_off channel=0 note=59 velocity=64 time=0.4166665
EXTRACT: note_off channel=0 note=54 velocity=64 time=0
EXTRACT: note_off channel=0 note=47 velocity=64 time=0
EXTRACT: note_on channel=0 note=59 velocity=80 time=0
EXTRACT: note_on channel=0 note=54 velocity=80 time=0
EXTRACT: note_on channel=0 note=47 velocity=80 time=0
EXTRACT: note_off channel=0 note=59 velocity=64 time=0.20833325
EXTRACT: note_off channel=0 note=54 velocity=64 time=0
EXTRACT: note_off channel=0 note=47 velocity=64 time=0
EXTRACT: note_on channel=0 note=59 velocity=80 time=0
EXTRACT: note_on channel=0 note=54 velocity=80 time=0
EXTRACT: note_on channel=0 note=47 velocity=80 time=0
EXTRACT: note_off channel=0 note=59 velocity=64 time=0.20833325
EXTRACT: note_off channel=0 note=54 velocity=64 time=0
EXTRACT: note_off channel=0 note=47 velocity=64 time=0
EXTRACT: note_on channel=0 note=59 velocity=80 time=0
EXTRACT: note_on channel=0 note=54 velocity=80 time=0
EXTRACT: note_on channel=0 note=47 velocity=80 time=0
EXTRACT: note_off channel=0 note=59 velocity=64 time=0.20833325
EXTRACT: note_off channel=0 note=54 velocity=64 time=0
EXTRACT: note_off channel=0 note=47 velocity=64 time=0
EXTRACT: note_on channel=0 note=59 velocity=80 time=0
EXTRACT: note_on channel=0 note=54 velocity=80 time=0
EXTRACT: note_on channel=0 note=47 velocity=80 time=0
EXTRACT: note_off channel=0 note=59 velocity=64 time=0.20833325
EXTRACT: note_off channel=0 note=54 velocity=64 time=0
EXTRACT: note_off channel=0 note=47 velocity=64 time=0
EXTRACT: note_on channel=0 note=62 velocity=80 time=0
EXTRACT: note_on channel=0 note=57 velocity=80 time=0
EXTRACT: note_on channel=0 note=50 velocity=80 time=0
EXTRACT: note_off channel=6 note=66 velocity=64 time=0
EXTRACT: note_off channel=6 note=62 velocity=64 time=0
EXTRACT: note_off channel=6 note=59 velocity=64 time=0
EXTRACT: note_on channel=6 note=69 velocity=80 time=0
EXTRACT: note_on channel=6 note=66 velocity=80 time=0
EXTRACT: note_on channel=6 note=62 velocity=80 time=0
EXTRACT: note_off channel=0 note=62 velocity=64 time=0.4166665
EXTRACT: note_off channel=0 note=57 velocity=64 time=0
EXTRACT: note_off channel=0 note=50 velocity=64 time=0
EXTRACT: note_on channel=0 note=62 velocity=80 time=0
EXTRACT: note_on channel=0 note=57 velocity=80 time=0
EXTRACT: note_on channel=0 note=50 velocity=80 time=0
EXTRACT: note_off channel=0 note=62 velocity=64 time=0.20833325
EXTRACT: note_off channel=0 note=57 velocity=64 time=0
EXTRACT: note_off channel=0 note=50 velocity=64 time=0
EXTRACT: note_on channel=0 note=62 velocity=80 time=0
EXTRACT: note_on channel=0 note=57 velocity=80 time=0
EXTRACT: note_on channel=0 note=50 velocity=80 time=0
EXTRACT: note_off channel=0 note=62 velocity=64 time=0.20833325
EXTRACT: note_off channel=0 note=57 velocity=64 time=0
EXTRACT: note_off channel=0 note=50 velocity=64 time=0
EXTRACT: note_on channel=0 note=62 velocity=80 time=0
EXTRACT: note_on channel=0 note=57 velocity=80 time=0
EXTRACT: note_on channel=0 note=50 velocity=80 time=0
EXTRACT: note_off channel=0 note=62 velocity=64 time=0.20833325
EXTRACT: note_off channel=0 note=57 velocity=64 time=0
EXTRACT: note_off channel=0 note=50 velocity=64 time=0
EXTRACT: note_on channel=0 note=62 velocity=80 time=0
EXTRACT: note_on channel=0 note=57 velocity=80 time=0
EXTRACT: note_on channel=0 note=50 velocity=80 time=0
EXTRACT: note_off channel=0 note=62 velocity=64 time=0.20833325
EXTRACT: note_off channel=0 note=57 velocity=64 time=0
EXTRACT: note_off channel=0 note=50 velocity=64 time=0
EXTRACT: note_on channel=0 note=62 velocity=80 time=0
EXTRACT: note_on channel=0 note=57 velocity=80 time=0
EXTRACT: note_on channel=0 note=50 velocity=80 time=0
EXTRACT: note_on channel=8 note=49 velocity=80 time=0
EXTRACT: note_off channel=8 note=49 velocity=64 time=0.20833325
EXTRACT: note_on channel=8 note=50 velocity=80 time=0
EXTRACT: note_off channel=0 note=62 velocity=64 time=0.20833325
EXTRACT: note_off channel=0 note=57 velocity=64 time=0
EXTRACT: note_off channel=0 note=50 velocity=64 time=0
EXTRACT: note_on channel=0 note=62 velocity=80 time=0
EXTRACT: note_on channel=0 note=57 velocity=80 time=0
EXTRACT: note_on channel=0 note=50 velocity=80 time=0
EXTRACT: note_off channel=8 note=50 velocity=64 time=0
EXTRACT: note_on channel=8 note=49 velocity=80 time=0
EXTRACT: note_off channel=0 note=62 velocity=64 time=0.20833325
EXTRACT: note_off channel=0 note=57 velocity=64 time=0
EXTRACT: note_off channel=0 note=50 velocity=64 time=0
EXTRACT: note_on channel=0 note=62 velocity=80 time=0
EXTRACT: note_on channel=0 note=57 velocity=80 time=0
EXTRACT: note_on channel=0 note=50 velocity=80 time=0
EXTRACT: note_off channel=0 note=62 velocity=64 time=0.20833325
EXTRACT: note_off channel=0 note=57 velocity=64 time=0
EXTRACT: note_off channel=0 note=50 velocity=64 time=0
EXTRACT: note_on channel=0 note=62 velocity=80 time=0
EXTRACT: note_on channel=0 note=57 velocity=80 time=0
EXTRACT: note_on channel=0 note=50 velocity=80 time=0
EXTRACT: note_off channel=0 note=62 velocity=64 time=0.20833325
EXTRACT: note_off channel=0 note=57 velocity=64 time=0
EXTRACT: note_off channel=0 note=50 velocity=64 time=0
EXTRACT: note_on channel=0 note=62 velocity=80 time=0
EXTRACT: note_on channel=0 note=57 velocity=80 time=0
EXTRACT: note_on channel=0 note=50 velocity=80 time=0
EXTRACT: note_off channel=0 note=62 velocity=64 time=0.20833325
EXTRACT: note_off channel=0 note=57 velocity=64 time=0
EXTRACT: note_off channel=0 note=50 velocity=64 time=0
EXTRACT: note_on channel=0 note=57 velocity=80 time=0
EXTRACT: note_on channel=0 note=52 velocity=80 time=0
EXTRACT: note_on channel=0 note=45 velocity=80 time=0
EXTRACT: note_off channel=6 note=69 velocity=64 time=0
EXTRACT: note_off channel=6 note=66 velocity=64 time=0
EXTRACT: note_off channel=6 note=62 velocity=64 time=0
EXTRACT: note_on channel=6 note=64 velocity=80 time=0
EXTRACT: note_on channel=6 note=61 velocity=80 time=0
EXTRACT: note_on channel=6 note=57 velocity=80 time=0
EXTRACT: note_off channel=8 note=49 velocity=64 time=0
EXTRACT: note_off channel=0 note=57 velocity=64 time=0.4166665
EXTRACT: note_off channel=0 note=52 velocity=64 time=0
EXTRACT: note_off channel=0 note=45 velocity=64 time=0
EXTRACT: note_on channel=0 note=57 velocity=80 time=0
EXTRACT: note_on channel=0 note=52 velocity=80 time=0
EXTRACT: note_on channel=0 note=45 velocity=80 time=0
EXTRACT: note_off channel=0 note=57 velocity=64 time=0.20833325
EXTRACT: note_off channel=0 note=52 velocity=64 time=0
EXTRACT: note_off channel=0 note=45 velocity=64 time=0
EXTRACT: note_on channel=0 note=57 velocity=80 time=0
EXTRACT: note_on channel=0 note=52 velocity=80 time=0
EXTRACT: note_on channel=0 note=45 velocity=80 time=0
EXTRACT: note_off channel=0 note=57 velocity=64 time=0.20833325
EXTRACT: note_off channel=0 note=52 velocity=64 time=0
EXTRACT: note_off channel=0 note=45 velocity=64 time=0
EXTRACT: note_on channel=0 note=57 velocity=80 time=0
EXTRACT: note_on channel=0 note=52 velocity=80 time=0
EXTRACT: note_on channel=0 note=45 velocity=80 time=0
EXTRACT: note_off channel=0 note=57 velocity=64 time=0.20833325
EXTRACT: note_off channel=0 note=52 velocity=64 time=0
EXTRACT: note_off channel=0 note=45 velocity=64 time=0
EXTRACT: note_on channel=0 note=57 velocity=80 time=0
EXTRACT: note_on channel=0 note=52 velocity=80 time=0
EXTRACT: note_on channel=0 note=45 velocity=80 time=0
EXTRACT: note_off channel=0 note=57 velocity=64 time=0.20833325
EXTRACT: note_off channel=0 note=52 velocity=64 time=0
EXTRACT: note_off channel=0 note=45 velocity=64 time=0
EXTRACT: note_on channel=0 note=59 velocity=80 time=0
EXTRACT: note_on channel=0 note=54 velocity=80 time=0
EXTRACT: note_on channel=0 note=47 velocity=80 time=0
EXTRACT: note_off channel=6 note=64 velocity=64 time=0
EXTRACT: note_off channel=6 note=61 velocity=64 time=0
EXTRACT: note_off channel=6 note=57 velocity=64 time=0
EXTRACT: note_on channel=6 note=66 velocity=80 time=0
EXTRACT: note_on channel=6 note=62 velocity=80 time=0
EXTRACT: note_on channel=6 note=59 velocity=80 time=0
EXTRACT: note_off channel=0 note=59 velocity=64 time=0.4166665
EXTRACT: note_off channel=0 note=54 velocity=64 time=0
EXTRACT: note_off channel=0 note=47 velocity=64 time=0
EXTRACT: note_on channel=0 note=59 velocity=80 time=0
EXTRACT: note_on channel=0 note=54 velocity=80 time=0
EXTRACT: note_on channel=0 note=47 velocity=80 time=0
EXTRACT: note_off channel=0 note=59 velocity=64 time=0.20833325
EXTRACT: note_off channel=0 note=54 velocity=64 time=0
EXTRACT: note_off channel=0 note=47 velocity=64 time=0
EXTRACT: note_on channel=0 note=59 velocity=80 time=0
EXTRACT: note_on channel=0 note=54 velocity=80 time=0
EXTRACT: note_on channel=0 note=47 velocity=80 time=0
EXTRACT: note_off channel=0 note=59 velocity=64 time=0.20833325
EXTRACT: note_off channel=0 note=54 velocity=64 time=0
EXTRACT: note_off channel=0 note=47 velocity=64 time=0
EXTRACT: note_on channel=0 note=59 velocity=80 time=0
EXTRACT: note_on channel=0 note=54 velocity=80 time=0
EXTRACT: note_on channel=0 note=47 velocity=80 time=0
EXTRACT: note_off channel=0 note=59 velocity=64 time=0.20833325
EXTRACT: note_off channel=0 note=54 velocity=64 time=0
EXTRACT: note_off channel=0 note=47 velocity=64 time=0
EXTRACT: note_on channel=0 note=59 velocity=80 time=0
EXTRACT: note_on channel=0 note=54 velocity=80 time=0
EXTRACT: note_on channel=0 note=47 velocity=80 time=0
EXTRACT: note_off channel=0 note=59 velocity=64 time=0.20833325
EXTRACT: note_off channel=0 note=54 velocity=64 time=0
EXTRACT: note_off channel=0 note=47 velocity=64 time=0
EXTRACT: note_on channel=0 note=62 velocity=80 time=0
EXTRACT: note_on channel=0 note=57 velocity=80 time=0
EXTRACT: note_on channel=0 note=50 velocity=80 time=0
EXTRACT: note_off channel=6 note=66 velocity=64 time=0
EXTRACT: note_off channel=6 note=62 velocity=64 time=0
EXTRACT: note_off channel=6 note=59 velocity=64 time=0
EXTRACT: note_on channel=6 note=69 velocity=80 time=0
EXTRACT: note_on channel=6 note=66 velocity=80 time=0
EXTRACT: note_on channel=6 note=62 velocity=80 time=0
EXTRACT: note_off channel=0 note=62 velocity=64 time=0.4166665
EXTRACT: note_off channel=0 note=57 velocity=64 time=0
EXTRACT: note_off channel=0 note=50 velocity=64 time=0
EXTRACT: note_on channel=0 note=62 velocity=80 time=0
EXTRACT: note_on channel=0 note=57 velocity=80 time=0
EXTRACT: note_on channel=0 note=50 velocity=80 time=0
EXTRACT: note_off channel=0 note=62 velocity=64 time=0.20833325
EXTRACT: note_off channel=0 note=57 velocity=64 time=0
EXTRACT: note_off channel=0 note=50 velocity=64 time=0
EXTRACT: note_on channel=0 note=62 velocity=80 time=0
EXTRACT: note_on channel=0 note=57 velocity=80 time=0
EXTRACT: note_on channel=0 note=50 velocity=80 time=0
EXTRACT: note_off channel=0 note=62 velocity=64 time=0.20833325
EXTRACT: note_off channel=0 note=57 velocity=64 time=0
EXTRACT: note_off channel=0 note=50 velocity=64 time=0
EXTRACT: note_on channel=0 note=62 velocity=80 time=0
EXTRACT: note_on channel=0 note=57 velocity=80 time=0
EXTRACT: note_on channel=0 note=50 velocity=80 time=0
EXTRACT: note_off channel=0 note=62 velocity=64 time=0.20833325
EXTRACT: note_off channel=0 note=57 velocity=64 time=0
EXTRACT: note_off channel=0 note=50 velocity=64 time=0
EXTRACT: note_on channel=0 note=62 velocity=80 time=0
EXTRACT: note_on channel=0 note=57 velocity=80 time=0
EXTRACT: note_on channel=0 note=50 velocity=80 time=0
EXTRACT: note_off channel=0 note=62 velocity=64 time=0.20833325
EXTRACT: note_off channel=0 note=57 velocity=64 time=0
EXTRACT: note_off channel=0 note=50 velocity=64 time=0
EXTRACT: note_on channel=0 note=62 velocity=80 time=0
EXTRACT: note_on channel=0 note=57 velocity=80 time=0
EXTRACT: note_on channel=0 note=50 velocity=80 time=0
EXTRACT: note_on channel=8 note=54 velocity=80 time=0
EXTRACT: note_off channel=0 note=62 velocity=64 time=0.4166665
EXTRACT: note_off channel=0 note=57 velocity=64 time=0
EXTRACT: note_off channel=0 note=50 velocity=64 time=0
EXTRACT: note_on channel=0 note=62 velocity=80 time=0
EXTRACT: note_on channel=0 note=57 velocity=80 time=0
EXTRACT: note_on channel=0 note=50 velocity=80 time=0
EXTRACT: note_off channel=8 note=54 velocity=64 time=0
EXTRACT: note_on channel=8 note=52 velocity=80 time=0
EXTRACT: note_off channel=0 note=62 velocity=64 time=0.20833325
EXTRACT: note_off channel=0 note=57 velocity=64 time=0
EXTRACT: note_off channel=0 note=50 velocity=64 time=0
EXTRACT: note_on channel=0 note=62 velocity=80 time=0
EXTRACT: note_on channel=0 note=57 velocity=80 time=0
EXTRACT: note_on channel=0 note=50 velocity=80 time=0
EXTRACT: note_off channel=0 note=62 velocity=64 time=0.20833325
EXTRACT: note_off channel=0 note=57 velocity=64 time=0
EXTRACT: note_off channel=0 note=50 velocity=64 time=0
EXTRACT: note_on channel=0 note=62 velocity=80 time=0
EXTRACT: note_on channel=0 note=57 velocity=80 time=0
EXTRACT: note_on channel=0 note=50 velocity=80 time=0
EXTRACT: note_off channel=8 note=52 velocity=64 time=0
EXTRACT: note_on channel=8 note=50 velocity=80 time=0
EXTRACT: note_off channel=0 note=62 velocity=64 time=0.20833325
EXTRACT: note_off channel=0 note=57 velocity=64 time=0
EXTRACT: note_off channel=0 note=50 velocity=64 time=0
EXTRACT: note_on channel=0 note=62 velocity=80 time=0
EXTRACT: note_on channel=0 note=57 velocity=80 time=0
EXTRACT: note_on channel=0 note=50 velocity=80 time=0
EXTRACT: note_on channel=4 note=64 velocity=80 time=0.20833325
EXTRACT: note_off channel=0 note=62 velocity=64 time=0
EXTRACT: note_off channel=0 note=57 velocity=64 time=0
EXTRACT: note_off channel=0 note=50 velocity=64 time=0
EXTRACT: note_on channel=0 note=54 velocity=80 time=0
EXTRACT: note_on channel=0 note=49 velocity=80 time=0
EXTRACT: note_on channel=0 note=42 velocity=80 time=0
EXTRACT: note_on channel=2 note=30 velocity=80 time=0
EXTRACT: note_off channel=6 note=69 velocity=64 time=0
EXTRACT: note_off channel=6 note=66 velocity=64 time=0
EXTRACT: note_off channel=6 note=62 velocity=64 time=0
EXTRACT: note_on channel=6 note=61 velocity=80 time=0
EXTRACT: note_on channel=6 note=57 velocity=80 time=0
EXTRACT: note_on channel=6 note=54 velocity=80 time=0
EXTRACT: note_off channel=8 note=50 velocity=64 time=0
EXTRACT: note_off channel=4 note=64 velocity=64 time=0.20833325
EXTRACT: note_on channel=4 note=64 velocity=80 time=0
EXTRACT: note_off channel=4 note=64 velocity=64 time=0.20833325
EXTRACT: note_on channel=4 note=64 velocity=80 time=0
EXTRACT: note_off channel=0 note=54 velocity=64 time=0
EXTRACT: note_off channel=0 note=49 velocity=64 time=0
EXTRACT: note_off channel=0 note=42 velocity=64 time=0
EXTRACT: note_on channel=0 note=54 velocity=80 time=0
EXTRACT: note_on channel=0 note=49 velocity=80 time=0
EXTRACT: note_on channel=0 note=42 velocity=80 time=0
EXTRACT: note_off channel=4 note=64 velocity=64 time=0.20833325
EXTRACT: note_on channel=4 note=64 velocity=80 time=0
EXTRACT: note_off channel=0 note=54 velocity=64 time=0
EXTRACT: note_off channel=0 note=49 velocity=64 time=0
EXTRACT: note_off channel=0 note=42 velocity=64 time=0
EXTRACT: note_on channel=0 note=54 velocity=80 time=0
EXTRACT: note_on channel=0 note=49 velocity=80 time=0
EXTRACT: note_on channel=0 note=42 velocity=80 time=0
EXTRACT: note_off channel=4 note=64 velocity=64 time=0.20833325
EXTRACT: note_on channel=4 note=61 velocity=80 time=0
EXTRACT: note_off channel=0 note=54 velocity=64 time=0
EXTRACT: note_off channel=0 note=49 velocity=64 time=0
EXTRACT: note_off channel=0 note=42 velocity=64 time=0
EXTRACT: note_on channel=0 note=54 velocity=80 time=0
EXTRACT: note_on channel=0 note=49 velocity=80 time=0
EXTRACT: note_on channel=0 note=42 velocity=80 time=0
EXTRACT: note_off channel=6 note=61 velocity=64 time=0
EXTRACT: note_off channel=6 note=57 velocity=64 time=0
EXTRACT: note_off channel=6 note=54 velocity=64 time=0
EXTRACT: note_off channel=0 note=54 velocity=64 time=0.20833325
EXTRACT: note_off channel=0 note=49 velocity=64 time=0
EXTRACT: note_off channel=0 note=42 velocity=64 time=0
EXTRACT: note_on channel=0 note=54 velocity=80 time=0
EXTRACT: note_on channel=0 note=49 velocity=80 time=0
EXTRACT: note_on channel=0 note=42 velocity=80 time=0
EXTRACT: note_on channel=6 note=57 velocity=80 time=0
EXTRACT: note_off channel=0 note=54 velocity=64 time=0.20833325
EXTRACT: note_off channel=0 note=49 velocity=64 time=0
EXTRACT: note_off channel=0 note=42 velocity=64 time=0
EXTRACT: note_on channel=0 note=54 velocity=80 time=0
EXTRACT: note_on channel=0 note=49 velocity=80 time=0
EXTRACT: note_on channel=0 note=42 velocity=80 time=0
EXTRACT: note_off channel=2 note=30 velocity=64 time=0
EXTRACT: note_on channel=2 note=30 velocity=80 time=0
EXTRACT: note_off channel=6 note=57 velocity=64 time=0
EXTRACT: note_on channel=6 note=61 velocity=80 time=0
EXTRACT: note_off channel=0 note=54 velocity=64 time=0.4166665
EXTRACT: note_off channel=0 note=49 velocity=64 time=0
EXTRACT: note_off channel=0 note=42 velocity=64 time=0
EXTRACT: note_on channel=0 note=54 velocity=80 time=0
EXTRACT: note_on channel=0 note=49 velocity=80 time=0
EXTRACT: note_on channel=0 note=42 velocity=80 time=0
EXTRACT: note_off channel=6 note=61 velocity=64 time=0
EXTRACT: note_on channel=6 note=57 velocity=80 time=0
EXTRACT: note_off channel=0 note=54 velocity=64 time=0.20833325
EXTRACT: note_off channel=0 note=49 velocity=64 time=0
EXTRACT: note_off channel=0 note=42 velocity=64 time=0
EXTRACT: note_on channel=0 note=54 velocity=80 time=0
EXTRACT: note_on channel=0 note=49 velocity=80 time=0
EXTRACT: note_on channel=0 note=42 velocity=80 time=0
EXTRACT: note_off channel=4 note=61 velocity=64 time=0.20833325
EXTRACT: note_off channel=0 note=54 velocity=64 time=0
EXTRACT: note_off channel=0 note=49 velocity=64 time=0
EXTRACT: note_off channel=0 note=42 velocity=64 time=0
EXTRACT: note_on channel=0 note=54 velocity=80 time=0
EXTRACT: note_on channel=0 note=49 velocity=80 time=0
EXTRACT: note_on channel=0 note=42 velocity=80 time=0
EXTRACT: note_off channel=6 note=57 velocity=64 time=0
EXTRACT: note_on channel=6 note=54 velocity=80 time=0
EXTRACT: note_on channel=4 note=57 velocity=80 time=0.20833325
EXTRACT: note_off channel=0 note=54 velocity=64 time=0
EXTRACT: note_off channel=0 note=49 velocity=64 time=0
EXTRACT: note_off channel=0 note=42 velocity=64 time=0
EXTRACT: note_on channel=0 note=54 velocity=80 time=0
EXTRACT: note_on channel=0 note=49 velocity=80 time=0
EXTRACT: note_on channel=0 note=42 velocity=80 time=0
EXTRACT: note_off channel=4 note=57 velocity=64 time=0.20833325
EXTRACT: note_on channel=4 note=64 velocity=80 time=0
EXTRACT: note_off channel=0 note=54 velocity=64 time=0
EXTRACT: note_off channel=0 note=49 velocity=64 time=0
EXTRACT: note_off channel=0 note=42 velocity=64 time=0
EXTRACT: note_on channel=0 note=62 velocity=80 time=0
EXTRACT: note_on channel=0 note=57 velocity=80 time=0
EXTRACT: note_on channel=0 note=50 velocity=80 time=0
EXTRACT: note_off channel=2 note=30 velocity=64 time=0
EXTRACT: note_on channel=2 note=38 velocity=80 time=0
EXTRACT: note_off channel=6 note=54 velocity=64 time=0
EXTRACT: note_on channel=6 note=57 velocity=80 time=0
EXTRACT: note_on channel=6 note=54 velocity=80 time=0
EXTRACT: note_on channel=6 note=50 velocity=80 time=0
EXTRACT: note_off channel=4 note=64 velocity=64 time=0.20833325
EXTRACT: note_on channel=4 note=64 velocity=80 time=0
EXTRACT: note_off channel=4 note=64 velocity=64 time=0.20833325
EXTRACT: note_on channel=4 note=64 velocity=80 time=0
EXTRACT: note_off channel=0 note=62 velocity=64 time=0
EXTRACT: note_off channel=0 note=57 velocity=64 time=0
EXTRACT: note_off channel=0 note=50 velocity=64 time=0
EXTRACT: note_on channel=0 note=62 velocity=80 time=0
EXTRACT: note_on channel=0 note=57 velocity=80 time=0
EXTRACT: note_on channel=0 note=50 velocity=80 time=0
EXTRACT: note_off channel=4 note=64 velocity=64 time=0.20833325
EXTRACT: note_on channel=4 note=64 velocity=80 time=0
EXTRACT: note_off channel=0 note=62 velocity=64 time=0
EXTRACT: note_off channel=0 note=57 velocity=64 time=0
EXTRACT: note_off channel=0 note=50 velocity=64 time=0
EXTRACT: note_on channel=0 note=62 velocity=80 time=0
EXTRACT: note_on channel=0 note=57 velocity=80 time=0
EXTRACT: note_on channel=0 note=50 velocity=80 time=0
EXTRACT: note_off channel=4 note=64 velocity=64 time=0.20833325
EXTRACT: note_on channel=4 note=61 velocity=80 time=0
EXTRACT: note_off channel=0 note=62 velocity=64 time=0
EXTRACT: note_off channel=0 note=57 velocity=64 time=0
EXTRACT: note_off channel=0 note=50 velocity=64 time=0
EXTRACT: note_on channel=0 note=62 velocity=80 time=0
EXTRACT: note_on channel=0 note=57 velocity=80 time=0
EXTRACT: note_on channel=0 note=50 velocity=80 time=0
EXTRACT: note_off channel=6 note=57 velocity=64 time=0
EXTRACT: note_off channel=6 note=54 velocity=64 time=0
EXTRACT: note_off channel=6 note=50 velocity=64 time=0
EXTRACT: note_off channel=0 note=62 velocity=64 time=0.20833325
EXTRACT: note_off channel=0 note=57 velocity=64 time=0
EXTRACT: note_off channel=0 note=50 velocity=64 time=0
EXTRACT: note_on channel=0 note=62 velocity=80 time=0
EXTRACT: note_on channel=0 note=57 velocity=80 time=0
EXTRACT: note_on channel=0 note=50 velocity=80 time=0
EXTRACT: note_on channel=6 note=57 velocity=80 time=0
EXTRACT: note_off channel=0 note=62 velocity=64 time=0.20833325
EXTRACT: note_off channel=0 note=57 velocity=64 time=0
EXTRACT: note_off channel=0 note=50 velocity=64 time=0
EXTRACT: note_on channel=0 note=62 velocity=80 time=0
EXTRACT: note_on channel=0 note=57 velocity=80 time=0
EXTRACT: note_on channel=0 note=50 velocity=80 time=0
EXTRACT: note_off channel=2 note=38 velocity=64 time=0
EXTRACT: note_on channel=2 note=38 velocity=80 time=0
EXTRACT: note_off channel=6 note=57 velocity=64 time=0
EXTRACT: note_on channel=6 note=61 velocity=80 time=0
EXTRACT: note_off channel=0 note=62 velocity=64 time=0.4166665
EXTRACT: note_off channel=0 note=57 velocity=64 time=0
EXTRACT: note_off channel=0 note=50 velocity=64 time=0
EXTRACT: note_on channel=0 note=62 velocity=80 time=0
EXTRACT: note_on channel=0 note=57 velocity=80 time=0
EXTRACT: note_on channel=0 note=50 velocity=80 time=0
EXTRACT: note_off channel=6 note=61 velocity=64 time=0
EXTRACT: note_on channel=6 note=57 velocity=80 time=0
EXTRACT: note_off channel=0 note=62 velocity=64 time=0.20833325
EXTRACT: note_off channel=0 note=57 velocity=64 time=0
EXTRACT: note_off channel=0 note=50 velocity=64 time=0
EXTRACT: note_on channel=0 note=62 velocity=80 time=0
EXTRACT: note_on channel=0 note=57 velocity=80 time=0
EXTRACT: note_on channel=0 note=50 velocity=80 time=0
EXTRACT: note_off channel=4 note=61 velocity=64 time=0.20833325
EXTRACT: note_off channel=0 note=62 velocity=64 time=0
EXTRACT: note_off channel=0 note=57 velocity=64 time=0
EXTRACT: note_off channel=0 note=50 velocity=64 time=0
EXTRACT: note_on channel=0 note=62 velocity=80 time=0
EXTRACT: note_on channel=0 note=57 velocity=80 time=0
EXTRACT: note_on channel=0 note=50 velocity=80 time=0
EXTRACT: note_off channel=6 note=57 velocity=64 time=0
EXTRACT: note_on channel=6 note=54 velocity=80 time=0
EXTRACT: note_on channel=4 note=57 velocity=80 time=0.20833325
EXTRACT: note_off channel=0 note=62 velocity=64 time=0
EXTRACT: note_off channel=0 note=57 velocity=64 time=0
EXTRACT: note_off channel=0 note=50 velocity=64 time=0
EXTRACT: note_on channel=0 note=62 velocity=80 time=0
EXTRACT: note_on channel=0 note=57 velocity=80 time=0
EXTRACT: note_on channel=0 note=50 velocity=80 time=0
EXTRACT: note_off channel=4 note=57 velocity=64 time=0.20833325
EXTRACT: note_on channel=4 note=64 velocity=80 time=0
EXTRACT: note_off channel=0 note=62 velocity=64 time=0
EXTRACT: note_off channel=0 note=57 velocity=64 time=0
EXTRACT: note_off channel=0 note=50 velocity=64 time=0
EXTRACT: note_on channel=0 note=54 velocity=80 time=0
EXTRACT: note_on channel=0 note=49 velocity=80 time=0
EXTRACT: note_on channel=0 note=42 velocity=80 time=0
EXTRACT: note_off channel=2 note=38 velocity=64 time=0
EXTRACT: note_on channel=2 note=30 velocity=80 time=0
EXTRACT: note_off channel=6 note=54 velocity=64 time=0
EXTRACT: note_on channel=6 note=61 velocity=80 time=0
EXTRACT: note_on channel=6 note=57 velocity=80 time=0
EXTRACT: note_on channel=6 note=54 velocity=80 time=0
EXTRACT: note_off channel=4 note=64 velocity=64 time=0.20833325
EXTRACT: note_on channel=4 note=64 velocity=80 time=0
EXTRACT: note_off channel=4 note=64 velocity=64 time=0.20833325
EXTRACT: note_on channel=4 note=64 velocity=80 time=0
EXTRACT: note_off channel=0 note=54 velocity=64 time=0
EXTRACT: note_off channel=0 note=49 velocity=64 time=0
EXTRACT: note_off channel=0 note=42 velocity=64 time=0
EXTRACT: note_on channel=0 note=54 velocity=80 time=0
EXTRACT: note_on channel=0 note=49 velocity=80 time=0
EXTRACT: note_on channel=0 note=42 velocity=80 time=0
EXTRACT: note_off channel=4 note=64 velocity=64 time=0.20833325
EXTRACT: note_on channel=4 note=64 velocity=80 time=0
EXTRACT: note_off channel=0 note=54 velocity=64 time=0
EXTRACT: note_off channel=0 note=49 velocity=64 time=0
EXTRACT: note_off channel=0 note=42 velocity=64 time=0
EXTRACT: note_on channel=0 note=54 velocity=80 time=0
EXTRACT: note_on channel=0 note=49 velocity=80 time=0
EXTRACT: note_on channel=0 note=42 velocity=80 time=0
EXTRACT: note_off channel=4 note=64 velocity=64 time=0.20833325
EXTRACT: note_on channel=4 note=61 velocity=80 time=0
EXTRACT: note_off channel=0 note=54 velocity=64 time=0
EXTRACT: note_off channel=0 note=49 velocity=64 time=0
EXTRACT: note_off channel=0 note=42 velocity=64 time=0
EXTRACT: note_on channel=0 note=54 velocity=80 time=0
EXTRACT: note_on channel=0 note=49 velocity=80 time=0
EXTRACT: note_on channel=0 note=42 velocity=80 time=0
EXTRACT: note_off channel=6 note=61 velocity=64 time=0
EXTRACT: note_off channel=6 note=57 velocity=64 time=0
EXTRACT: note_off channel=6 note=54 velocity=64 time=0
EXTRACT: note_off channel=0 note=54 velocity=64 time=0.20833325
EXTRACT: note_off channel=0 note=49 velocity=64 time=0
EXTRACT: note_off channel=0 note=42 velocity=64 time=0
EXTRACT: note_on channel=0 note=54 velocity=80 time=0
EXTRACT: note_on channel=0 note=49 velocity=80 time=0
EXTRACT: note_on channel=0 note=42 velocity=80 time=0
EXTRACT: note_on channel=6 note=57 velocity=80 time=0
EXTRACT: note_off channel=0 note=54 velocity=64 time=0.20833325
EXTRACT: note_off channel=0 note=49 velocity=64 time=0
EXTRACT: note_off channel=0 note=42 velocity=64 time=0
EXTRACT: note_on channel=0 note=54 velocity=80 time=0
EXTRACT: note_on channel=0 note=49 velocity=80 time=0
EXTRACT: note_on channel=0 note=42 velocity=80 time=0
EXTRACT: note_off channel=2 note=30 velocity=64 time=0
EXTRACT: note_on channel=2 note=30 velocity=80 time=0
EXTRACT: note_off channel=6 note=57 velocity=64 time=0
EXTRACT: note_on channel=6 note=61 velocity=80 time=0
EXTRACT: note_off channel=0 note=54 velocity=64 time=0.4166665
EXTRACT: note_off channel=0 note=49 velocity=64 time=0
EXTRACT: note_off channel=0 note=42 velocity=64 time=0
EXTRACT: note_on channel=0 note=54 velocity=80 time=0
EXTRACT: note_on channel=0 note=49 velocity=80 time=0
EXTRACT: note_on channel=0 note=42 velocity=80 time=0
EXTRACT: note_off channel=6 note=61 velocity=64 time=0
EXTRACT: note_on channel=6 note=57 velocity=80 time=0
EXTRACT: note_off channel=0 note=54 velocity=64 time=0.20833325
EXTRACT: note_off channel=0 note=49 velocity=64 time=0
EXTRACT: note_off channel=0 note=42 velocity=64 time=0
EXTRACT: note_on channel=0 note=54 velocity=80 time=0
EXTRACT: note_on channel=0 note=49 velocity=80 time=0
EXTRACT: note_on channel=0 note=42 velocity=80 time=0
EXTRACT: note_off channel=4 note=61 velocity=64 time=0.20833325
EXTRACT: note_off channel=0 note=54 velocity=64 time=0
EXTRACT: note_off channel=0 note=49 velocity=64 time=0
EXTRACT: note_off channel=0 note=42 velocity=64 time=0
EXTRACT: note_on channel=0 note=54 velocity=80 time=0
EXTRACT: note_on channel=0 note=49 velocity=80 time=0
EXTRACT: note_on channel=0 note=42 velocity=80 time=0
EXTRACT: note_off channel=6 note=57 velocity=64 time=0
EXTRACT: note_on channel=6 note=54 velocity=80 time=0
EXTRACT: note_on channel=4 note=59 velocity=80 time=0.20833325
EXTRACT: note_off channel=0 note=54 velocity=64 time=0
EXTRACT: note_off channel=0 note=49 velocity=64 time=0
EXTRACT: note_off channel=0 note=42 velocity=64 time=0
EXTRACT: note_on channel=0 note=54 velocity=80 time=0
EXTRACT: note_on channel=0 note=49 velocity=80 time=0
EXTRACT: note_on channel=0 note=42 velocity=80 time=0
EXTRACT: note_off channel=4 note=59 velocity=64 time=0.20833325
EXTRACT: note_on channel=4 note=57 velocity=80 time=0
EXTRACT: note_off channel=0 note=54 velocity=64 time=0
EXTRACT: note_off channel=0 note=49 velocity=64 time=0
EXTRACT: note_off channel=0 note=42 velocity=64 time=0
EXTRACT: note_on channel=0 note=62 velocity=80 time=0
EXTRACT: note_on channel=0 note=57 velocity=80 time=0
EXTRACT: note_on channel=0 note=50 velocity=80 time=0
EXTRACT: note_off channel=2 note=30 velocity=64 time=0
EXTRACT: note_on channel=2 note=38 velocity=80 time=0
EXTRACT: note_off channel=6 note=54 velocity=64 time=0
EXTRACT: note_on channel=6 note=57 velocity=80 time=0
EXTRACT: note_on channel=6 note=54 velocity=80 time=0
EXTRACT: note_on channel=6 note=50 velocity=80 time=0
EXTRACT: note_off channel=0 note=62 velocity=64 time=0.4166665
EXTRACT: note_off channel=0 note=57 velocity=64 time=0
EXTRACT: note_off channel=0 note=50 velocity=64 time=0
EXTRACT: note_on channel=0 note=62 velocity=80 time=0
EXTRACT: note_on channel=0 note=57 velocity=80 time=0
EXTRACT: note_on channel=0 note=50 velocity=80 time=0
EXTRACT: note_off channel=0 note=62 velocity=64 time=0.20833325
EXTRACT: note_off channel=0 note=57 velocity=64 time=0
EXTRACT: note_off channel=0 note=50 velocity=64 time=0
EXTRACT: note_on channel=0 note=62 velocity=80 time=0
EXTRACT: note_on channel=0 note=57 velocity=80 time=0
EXTRACT: note_on channel=0 note=50 velocity=80 time=0
EXTRACT: note_off channel=0 note=62 velocity=64 time=0.20833325
EXTRACT: note_off channel=0 note=57 velocity=64 time=0
EXTRACT: note_off channel=0 note=50 velocity=64 time=0
EXTRACT: note_on channel=0 note=62 velocity=80 time=0
EXTRACT: note_on channel=0 note=57 velocity=80 time=0
EXTRACT: note_on channel=0 note=50 velocity=80 time=0
EXTRACT: note_off channel=6 note=57 velocity=64 time=0
EXTRACT: note_off channel=6 note=54 velocity=64 time=0
EXTRACT: note_off channel=6 note=50 velocity=64 time=0
EXTRACT: note_off channel=0 note=62 velocity=64 time=0.20833325
EXTRACT: note_off channel=0 note=57 velocity=64 time=0
EXTRACT: note_off channel=0 note=50 velocity=64 time=0
EXTRACT: note_on channel=0 note=62 velocity=80 time=0
EXTRACT: note_on channel=0 note=57 velocity=80 time=0
EXTRACT: note_on channel=0 note=50 velocity=80 time=0
EXTRACT: note_on channel=6 note=57 velocity=80 time=0
EXTRACT: note_off channel=4 note=57 velocity=64 time=0.20833325
EXTRACT: note_off channel=0 note=62 velocity=64 time=0
EXTRACT: note_off channel=0 note=57 velocity=64 time=0
EXTRACT: note_off channel=0 note=50 velocity=64 time=0
EXTRACT: note_on channel=0 note=62 velocity=80 time=0
EXTRACT: note_on channel=0 note=57 velocity=80 time=0
EXTRACT: note_on channel=0 note=50 velocity=80 time=0
EXTRACT: note_off channel=2 note=38 velocity=64 time=0
EXTRACT: note_on channel=2 note=38 velocity=80 time=0
EXTRACT: note_off channel=6 note=57 velocity=64 time=0
EXTRACT: note_on channel=6 note=61 velocity=80 time=0
EXTRACT: note_off channel=0 note=62 velocity=64 time=0.4166665
EXTRACT: note_off channel=0 note=57 velocity=64 time=0
EXTRACT: note_off channel=0 note=50 velocity=64 time=0
EXTRACT: note_on channel=0 note=62 velocity=80 time=0
EXTRACT: note_on channel=0 note=57 velocity=80 time=0
EXTRACT: note_on channel=0 note=50 velocity=80 time=0
EXTRACT: note_off channel=6 note=61 velocity=64 time=0
EXTRACT: note_on channel=6 note=57 velocity=80 time=0
EXTRACT: note_off channel=0 note=62 velocity=64 time=0.20833325
EXTRACT: note_off channel=0 note=57 velocity=64 time=0
EXTRACT: note_off channel=0 note=50 velocity=64 time=0
EXTRACT: note_on channel=0 note=62 velocity=80 time=0
EXTRACT: note_on channel=0 note=57 velocity=80 time=0
EXTRACT: note_on channel=0 note=50 velocity=80 time=0
EXTRACT: note_off channel=0 note=62 velocity=64 time=0.20833325
EXTRACT: note_off channel=0 note=57 velocity=64 time=0
EXTRACT: note_off channel=0 note=50 velocity=64 time=0
EXTRACT: note_on channel=0 note=62 velocity=80 time=0
EXTRACT: note_on channel=0 note=57 velocity=80 time=0
EXTRACT: note_on channel=0 note=50 velocity=80 time=0
EXTRACT: note_off channel=6 note=57 velocity=64 time=0
EXTRACT: note_on channel=6 note=54 velocity=80 time=0
EXTRACT: note_on channel=4 note=57 velocity=80 time=0.20833325
EXTRACT: note_off channel=0 note=62 velocity=64 time=0
EXTRACT: note_off channel=0 note=57 velocity=64 time=0
EXTRACT: note_off channel=0 note=50 velocity=64 time=0
EXTRACT: note_on channel=0 note=62 velocity=80 time=0
EXTRACT: note_on channel=0 note=57 velocity=80 time=0
EXTRACT: note_on channel=0 note=50 velocity=80 time=0
EXTRACT: note_off channel=4 note=57 velocity=64 time=0.20833325
EXTRACT: note_on channel=4 note=64 velocity=80 time=0
EXTRACT: note_off channel=0 note=62 velocity=64 time=0
EXTRACT: note_off channel=0 note=57 velocity=64 time=0
EXTRACT: note_off channel=0 note=50 velocity=64 time=0
EXTRACT: note_on channel=0 note=54 velocity=80 time=0
EXTRACT: note_on channel=0 note=49 velocity=80 time=0
EXTRACT: note_on channel=0 note=42 velocity=80 time=0
EXTRACT: note_off channel=2 note=38 velocity=64 time=0
EXTRACT: note_on channel=2 note=30 velocity=80 time=0
EXTRACT: note_off channel=6 note=54 velocity=64 time=0
EXTRACT: note_on channel=6 note=61 velocity=80 time=0
EXTRACT: note_on channel=6 note=57 velocity=80 time=0
EXTRACT: note_on channel=6 note=54 velocity=80 time=0
EXTRACT: note_off channel=4 note=64 velocity=64 time=0.20833325
EXTRACT: note_on channel=4 note=64 velocity=80 time=0
EXTRACT: note_off channel=4 note=64 velocity=64 time=0.20833325
EXTRACT: note_on channel=4 note=64 velocity=80 time=0
EXTRACT: note_off channel=0 note=54 velocity=64 time=0
EXTRACT: note_off channel=0 note=49 velocity=64 time=0
EXTRACT: note_off channel=0 note=42 velocity=64 time=0
EXTRACT: note_on channel=0 note=54 velocity=80 time=0
EXTRACT: note_on channel=0 note=49 velocity=80 time=0
EXTRACT: note_on channel=0 note=42 velocity=80 time=0
EXTRACT: note_off channel=4 note=64 velocity=64 time=0.20833325
EXTRACT: note_on channel=4 note=64 velocity=80 time=0
EXTRACT: note_off channel=0 note=54 velocity=64 time=0
EXTRACT: note_off channel=0 note=49 velocity=64 time=0
EXTRACT: note_off channel=0 note=42 velocity=64 time=0
EXTRACT: note_on channel=0 note=54 velocity=80 time=0
EXTRACT: note_on channel=0 note=49 velocity=80 time=0
EXTRACT: note_on channel=0 note=42 velocity=80 time=0
EXTRACT: note_off channel=4 note=64 velocity=64 time=0.20833325
EXTRACT: note_on channel=4 note=61 velocity=80 time=0
EXTRACT: note_off channel=0 note=54 velocity=64 time=0
EXTRACT: note_off channel=0 note=49 velocity=64 time=0
EXTRACT: note_off channel=0 note=42 velocity=64 time=0
EXTRACT: note_on channel=0 note=54 velocity=80 time=0
EXTRACT: note_on channel=0 note=49 velocity=80 time=0
EXTRACT: note_on channel=0 note=42 velocity=80 time=0
EXTRACT: note_off channel=6 note=61 velocity=64 time=0
EXTRACT: note_off channel=6 note=57 velocity=64 time=0
EXTRACT: note_off channel=6 note=54 velocity=64 time=0
EXTRACT: note_off channel=0 note=54 velocity=64 time=0.20833325
EXTRACT: note_off channel=0 note=49 velocity=64 time=0
EXTRACT: note_off channel=0 note=42 velocity=64 time=0
EXTRACT: note_on channel=0 note=54 velocity=80 time=0
EXTRACT: note_on channel=0 note=49 velocity=80 time=0
EXTRACT: note_on channel=0 note=42 velocity=80 time=0
EXTRACT: note_on channel=6 note=57 velocity=80 time=0
EXTRACT: note_off channel=0 note=54 velocity=64 time=0.20833325
EXTRACT: note_off channel=0 note=49 velocity=64 time=0
EXTRACT: note_off channel=0 note=42 velocity=64 time=0
EXTRACT: note_on channel=0 note=54 velocity=80 time=0
EXTRACT: note_on channel=0 note=49 velocity=80 time=0
EXTRACT: note_on channel=0 note=42 velocity=80 time=0
EXTRACT: note_off channel=2 note=30 velocity=64 time=0
EXTRACT: note_on channel=2 note=30 velocity=80 time=0
EXTRACT: note_off channel=6 note=57 velocity=64 time=0
EXTRACT: note_on channel=6 note=61 velocity=80 time=0
EXTRACT: note_off channel=0 note=54 velocity=64 time=0.4166665
EXTRACT: note_off channel=0 note=49 velocity=64 time=0
EXTRACT: note_off channel=0 note=42 velocity=64 time=0
EXTRACT: note_on channel=0 note=54 velocity=80 time=0
EXTRACT: note_on channel=0 note=49 velocity=80 time=0
EXTRACT: note_on channel=0 note=42 velocity=80 time=0
EXTRACT: note_off channel=6 note=61 velocity=64 time=0
EXTRACT: note_on channel=6 note=57 velocity=80 time=0
EXTRACT: note_off channel=0 note=54 velocity=64 time=0.20833325
EXTRACT: note_off channel=0 note=49 velocity=64 time=0
EXTRACT: note_off channel=0 note=42 velocity=64 time=0
EXTRACT: note_on channel=0 note=54 velocity=80 time=0
EXTRACT: note_on channel=0 note=49 velocity=80 time=0
EXTRACT: note_on channel=0 note=42 velocity=80 time=0
EXTRACT: note_off channel=4 note=61 velocity=64 time=0.20833325
EXTRACT: note_off channel=0 note=54 velocity=64 time=0
EXTRACT: note_off channel=0 note=49 velocity=64 time=0
EXTRACT: note_off channel=0 note=42 velocity=64 time=0
EXTRACT: note_on channel=0 note=54 velocity=80 time=0
EXTRACT: note_on channel=0 note=49 velocity=80 time=0
EXTRACT: note_on channel=0 note=42 velocity=80 time=0
EXTRACT: note_off channel=6 note=57 velocity=64 time=0
EXTRACT: note_on channel=6 note=54 velocity=80 time=0
EXTRACT: note_on channel=4 note=57 velocity=80 time=0.20833325
EXTRACT: note_off channel=0 note=54 velocity=64 time=0
EXTRACT: note_off channel=0 note=49 velocity=64 time=0
EXTRACT: note_off channel=0 note=42 velocity=64 time=0
EXTRACT: note_on channel=0 note=54 velocity=80 time=0
EXTRACT: note_on channel=0 note=49 velocity=80 time=0
EXTRACT: note_on channel=0 note=42 velocity=80 time=0
EXTRACT: note_off channel=4 note=57 velocity=64 time=0.20833325
EXTRACT: note_on channel=4 note=64 velocity=80 time=0
EXTRACT: note_off channel=0 note=54 velocity=64 time=0
EXTRACT: note_off channel=0 note=49 velocity=64 time=0
EXTRACT: note_off channel=0 note=42 velocity=64 time=0
EXTRACT: note_on channel=0 note=62 velocity=80 time=0
EXTRACT: note_on channel=0 note=57 velocity=80 time=0
EXTRACT: note_on channel=0 note=50 velocity=80 time=0
EXTRACT: note_off channel=2 note=30 velocity=64 time=0
EXTRACT: note_on channel=2 note=38 velocity=80 time=0
EXTRACT: note_off channel=6 note=54 velocity=64 time=0
EXTRACT: note_on channel=6 note=57 velocity=80 time=0
EXTRACT: note_on channel=6 note=54 velocity=80 time=0
EXTRACT: note_on channel=6 note=50 velocity=80 time=0
EXTRACT: note_off channel=4 note=64 velocity=64 time=0.20833325
EXTRACT: note_on channel=4 note=64 velocity=80 time=0
EXTRACT: note_off channel=4 note=64 velocity=64 time=0.20833325
EXTRACT: note_on channel=4 note=64 velocity=80 time=0
EXTRACT: note_off channel=0 note=62 velocity=64 time=0
EXTRACT: note_off channel=0 note=57 velocity=64 time=0
EXTRACT: note_off channel=0 note=50 velocity=64 time=0
EXTRACT: note_on channel=0 note=62 velocity=80 time=0
EXTRACT: note_on channel=0 note=57 velocity=80 time=0
EXTRACT: note_on channel=0 note=50 velocity=80 time=0
EXTRACT: note_off channel=4 note=64 velocity=64 time=0.20833325
EXTRACT: note_on channel=4 note=64 velocity=80 time=0
EXTRACT: note_off channel=0 note=62 velocity=64 time=0
EXTRACT: note_off channel=0 note=57 velocity=64 time=0
EXTRACT: note_off channel=0 note=50 velocity=64 time=0
EXTRACT: note_on channel=0 note=62 velocity=80 time=0
EXTRACT: note_on channel=0 note=57 velocity=80 time=0
EXTRACT: note_on channel=0 note=50 velocity=80 time=0
EXTRACT: note_off channel=4 note=64 velocity=64 time=0.20833325
EXTRACT: note_on channel=4 note=61 velocity=80 time=0
EXTRACT: note_off channel=0 note=62 velocity=64 time=0
EXTRACT: note_off channel=0 note=57 velocity=64 time=0
EXTRACT: note_off channel=0 note=50 velocity=64 time=0
EXTRACT: note_on channel=0 note=62 velocity=80 time=0
EXTRACT: note_on channel=0 note=57 velocity=80 time=0
EXTRACT: note_on channel=0 note=50 velocity=80 time=0
EXTRACT: note_off channel=6 note=57 velocity=64 time=0
EXTRACT: note_off channel=6 note=54 velocity=64 time=0
EXTRACT: note_off channel=6 note=50 velocity=64 time=0
EXTRACT: note_off channel=0 note=62 velocity=64 time=0.20833325
EXTRACT: note_off channel=0 note=57 velocity=64 time=0
EXTRACT: note_off channel=0 note=50 velocity=64 time=0
EXTRACT: note_on channel=0 note=62 velocity=80 time=0
EXTRACT: note_on channel=0 note=57 velocity=80 time=0
EXTRACT: note_on channel=0 note=50 velocity=80 time=0
EXTRACT: note_on channel=6 note=57 velocity=80 time=0
EXTRACT: note_off channel=0 note=62 velocity=64 time=0.20833325
EXTRACT: note_off channel=0 note=57 velocity=64 time=0
EXTRACT: note_off channel=0 note=50 velocity=64 time=0
EXTRACT: note_on channel=0 note=62 velocity=80 time=0
EXTRACT: note_on channel=0 note=57 velocity=80 time=0
EXTRACT: note_on channel=0 note=50 velocity=80 time=0
EXTRACT: note_off channel=2 note=38 velocity=64 time=0
EXTRACT: note_on channel=2 note=38 velocity=80 time=0
EXTRACT: note_off channel=6 note=57 velocity=64 time=0
EXTRACT: note_on channel=6 note=61 velocity=80 time=0
EXTRACT: note_off channel=0 note=62 velocity=64 time=0.4166665
EXTRACT: note_off channel=0 note=57 velocity=64 time=0
EXTRACT: note_off channel=0 note=50 velocity=64 time=0
EXTRACT: note_on channel=0 note=62 velocity=80 time=0
EXTRACT: note_on channel=0 note=57 velocity=80 time=0
EXTRACT: note_on channel=0 note=50 velocity=80 time=0
EXTRACT: note_off channel=6 note=61 velocity=64 time=0
EXTRACT: note_on channel=6 note=57 velocity=80 time=0
EXTRACT: note_off channel=0 note=62 velocity=64 time=0.20833325
EXTRACT: note_off channel=0 note=57 velocity=64 time=0
EXTRACT: note_off channel=0 note=50 velocity=64 time=0
EXTRACT: note_on channel=0 note=62 velocity=80 time=0
EXTRACT: note_on channel=0 note=57 velocity=80 time=0
EXTRACT: note_on channel=0 note=50 velocity=80 time=0
EXTRACT: note_off channel=4 note=61 velocity=64 time=0.20833325
EXTRACT: note_off channel=0 note=62 velocity=64 time=0
EXTRACT: note_off channel=0 note=57 velocity=64 time=0
EXTRACT: note_off channel=0 note=50 velocity=64 time=0
EXTRACT: note_on channel=0 note=62 velocity=80 time=0
EXTRACT: note_on channel=0 note=57 velocity=80 time=0
EXTRACT: note_on channel=0 note=50 velocity=80 time=0
EXTRACT: note_off channel=6 note=57 velocity=64 time=0
EXTRACT: note_on channel=6 note=54 velocity=80 time=0
EXTRACT: note_on channel=4 note=57 velocity=80 time=0.20833325
EXTRACT: note_off channel=0 note=62 velocity=64 time=0
EXTRACT: note_off channel=0 note=57 velocity=64 time=0
EXTRACT: note_off channel=0 note=50 velocity=64 time=0
EXTRACT: note_on channel=0 note=62 velocity=80 time=0
EXTRACT: note_on channel=0 note=57 velocity=80 time=0
EXTRACT: note_on channel=0 note=50 velocity=80 time=0
EXTRACT: note_off channel=4 note=57 velocity=64 time=0.20833325
EXTRACT: note_on channel=4 note=64 velocity=80 time=0
EXTRACT: note_off channel=0 note=62 velocity=64 time=0
EXTRACT: note_off channel=0 note=57 velocity=64 time=0
EXTRACT: note_off channel=0 note=50 velocity=64 time=0
EXTRACT: note_on channel=0 note=54 velocity=80 time=0
EXTRACT: note_on channel=0 note=49 velocity=80 time=0
EXTRACT: note_on channel=0 note=42 velocity=80 time=0
EXTRACT: note_off channel=2 note=38 velocity=64 time=0
EXTRACT: note_on channel=2 note=30 velocity=80 time=0
EXTRACT: note_off channel=6 note=54 velocity=64 time=0
EXTRACT: note_on channel=6 note=61 velocity=80 time=0
EXTRACT: note_on channel=6 note=57 velocity=80 time=0
EXTRACT: note_on channel=6 note=54 velocity=80 time=0
EXTRACT: note_off channel=4 note=64 velocity=64 time=0.20833325
EXTRACT: note_on channel=4 note=64 velocity=80 time=0
EXTRACT: note_off channel=4 note=64 velocity=64 time=0.20833325
EXTRACT: note_on channel=4 note=64 velocity=80 time=0
EXTRACT: note_off channel=0 note=54 velocity=64 time=0
EXTRACT: note_off channel=0 note=49 velocity=64 time=0
EXTRACT: note_off channel=0 note=42 velocity=64 time=0
EXTRACT: note_on channel=0 note=54 velocity=80 time=0
EXTRACT: note_on channel=0 note=49 velocity=80 time=0
EXTRACT: note_on channel=0 note=42 velocity=80 time=0
EXTRACT: note_off channel=4 note=64 velocity=64 time=0.20833325
EXTRACT: note_on channel=4 note=64 velocity=80 time=0
EXTRACT: note_off channel=0 note=54 velocity=64 time=0
EXTRACT: note_off channel=0 note=49 velocity=64 time=0
EXTRACT: note_off channel=0 note=42 velocity=64 time=0
EXTRACT: note_on channel=0 note=54 velocity=80 time=0
EXTRACT: note_on channel=0 note=49 velocity=80 time=0
EXTRACT: note_on channel=0 note=42 velocity=80 time=0
EXTRACT: note_off channel=4 note=64 velocity=64 time=0.20833325
EXTRACT: note_on channel=4 note=61 velocity=80 time=0
EXTRACT: note_off channel=0 note=54 velocity=64 time=0
EXTRACT: note_off channel=0 note=49 velocity=64 time=0
EXTRACT: note_off channel=0 note=42 velocity=64 time=0
EXTRACT: note_on channel=0 note=54 velocity=80 time=0
EXTRACT: note_on channel=0 note=49 velocity=80 time=0
EXTRACT: note_on channel=0 note=42 velocity=80 time=0
EXTRACT: note_off channel=6 note=61 velocity=64 time=0
EXTRACT: note_off channel=6 note=57 velocity=64 time=0
EXTRACT: note_off channel=6 note=54 velocity=64 time=0
EXTRACT: note_off channel=0 note=54 velocity=64 time=0.20833325
EXTRACT: note_off channel=0 note=49 velocity=64 time=0
EXTRACT: note_off channel=0 note=42 velocity=64 time=0
EXTRACT: note_on channel=0 note=54 velocity=80 time=0
EXTRACT: note_on channel=0 note=49 velocity=80 time=0
EXTRACT: note_on channel=0 note=42 velocity=80 time=0
EXTRACT: note_on channel=6 note=57 velocity=80 time=0
EXTRACT: note_off channel=0 note=54 velocity=64 time=0.20833325
EXTRACT: note_off channel=0 note=49 velocity=64 time=0
EXTRACT: note_off channel=0 note=42 velocity=64 time=0
EXTRACT: note_on channel=0 note=54 velocity=80 time=0
EXTRACT: note_on channel=0 note=49 velocity=80 time=0
EXTRACT: note_on channel=0 note=42 velocity=80 time=0
EXTRACT: note_off channel=2 note=30 velocity=64 time=0
EXTRACT: note_on channel=2 note=30 velocity=80 time=0
EXTRACT: note_off channel=6 note=57 velocity=64 time=0
EXTRACT: note_on channel=6 note=61 velocity=80 time=0
EXTRACT: note_off channel=0 note=54 velocity=64 time=0.4166665
EXTRACT: note_off channel=0 note=49 velocity=64 time=0
EXTRACT: note_off channel=0 note=42 velocity=64 time=0
EXTRACT: note_on channel=0 note=54 velocity=80 time=0
EXTRACT: note_on channel=0 note=49 velocity=80 time=0
EXTRACT: note_on channel=0 note=42 velocity=80 time=0
EXTRACT: note_off channel=6 note=61 velocity=64 time=0
EXTRACT: note_on channel=6 note=57 velocity=80 time=0
EXTRACT: note_off channel=0 note=54 velocity=64 time=0.20833325
EXTRACT: note_off channel=0 note=49 velocity=64 time=0
EXTRACT: note_off channel=0 note=42 velocity=64 time=0
EXTRACT: note_on channel=0 note=54 velocity=80 time=0
EXTRACT: note_on channel=0 note=49 velocity=80 time=0
EXTRACT: note_on channel=0 note=42 velocity=80 time=0
EXTRACT: note_off channel=4 note=61 velocity=64 time=0.20833325
EXTRACT: note_off channel=0 note=54 velocity=64 time=0
EXTRACT: note_off channel=0 note=49 velocity=64 time=0
EXTRACT: note_off channel=0 note=42 velocity=64 time=0
EXTRACT: note_on channel=0 note=54 velocity=80 time=0
EXTRACT: note_on channel=0 note=49 velocity=80 time=0
EXTRACT: note_on channel=0 note=42 velocity=80 time=0
EXTRACT: note_off channel=6 note=57 velocity=64 time=0
EXTRACT: note_on channel=6 note=54 velocity=80 time=0
EXTRACT: note_on channel=4 note=59 velocity=80 time=0.20833325
EXTRACT: note_off channel=0 note=54 velocity=64 time=0
EXTRACT: note_off channel=0 note=49 velocity=64 time=0
EXTRACT: note_off channel=0 note=42 velocity=64 time=0
EXTRACT: note_on channel=0 note=54 velocity=80 time=0
EXTRACT: note_on channel=0 note=49 velocity=80 time=0
EXTRACT: note_on channel=0 note=42 velocity=80 time=0
EXTRACT: note_off channel=4 note=59 velocity=64 time=0.20833325
EXTRACT: note_on channel=4 note=57 velocity=80 time=0
EXTRACT: note_off channel=0 note=54 velocity=64 time=0
EXTRACT: note_off channel=0 note=49 velocity=64 time=0
EXTRACT: note_off channel=0 note=42 velocity=64 time=0
EXTRACT: note_on channel=0 note=62 velocity=80 time=0
EXTRACT: note_on channel=0 note=57 velocity=80 time=0
EXTRACT: note_on channel=0 note=50 velocity=80 time=0
EXTRACT: note_off channel=2 note=30 velocity=64 time=0
EXTRACT: note_on channel=2 note=38 velocity=80 time=0
EXTRACT: note_off channel=6 note=54 velocity=64 time=0
EXTRACT: note_on channel=6 note=57 velocity=80 time=0
EXTRACT: note_on channel=6 note=54 velocity=80 time=0
EXTRACT: note_on channel=6 note=50 velocity=80 time=0
EXTRACT: note_off channel=0 note=62 velocity=64 time=0.4166665
EXTRACT: note_off channel=0 note=57 velocity=64 time=0
EXTRACT: note_off channel=0 note=50 velocity=64 time=0
EXTRACT: note_on channel=0 note=62 velocity=80 time=0
EXTRACT: note_on channel=0 note=57 velocity=80 time=0
EXTRACT: note_on channel=0 note=50 velocity=80 time=0
EXTRACT: note_off channel=0 note=62 velocity=64 time=0.20833325
EXTRACT: note_off channel=0 note=57 velocity=64 time=0
EXTRACT: note_off channel=0 note=50 velocity=64 time=0
EXTRACT: note_on channel=0 note=62 velocity=80 time=0
EXTRACT: note_on channel=0 note=57 velocity=80 time=0
EXTRACT: note_on channel=0 note=50 velocity=80 time=0
EXTRACT: note_off channel=0 note=62 velocity=64 time=0.20833325
EXTRACT: note_off channel=0 note=57 velocity=64 time=0
EXTRACT: note_off channel=0 note=50 velocity=64 time=0
EXTRACT: note_on channel=0 note=62 velocity=80 time=0
EXTRACT: note_on channel=0 note=57 velocity=80 time=0
EXTRACT: note_on channel=0 note=50 velocity=80 time=0
EXTRACT: note_off channel=6 note=57 velocity=64 time=0
EXTRACT: note_off channel=6 note=54 velocity=64 time=0
EXTRACT: note_off channel=6 note=50 velocity=64 time=0
EXTRACT: note_off channel=0 note=62 velocity=64 time=0.20833325
EXTRACT: note_off channel=0 note=57 velocity=64 time=0
EXTRACT: note_off channel=0 note=50 velocity=64 time=0
EXTRACT: note_on channel=0 note=62 velocity=80 time=0
EXTRACT: note_on channel=0 note=57 velocity=80 time=0
EXTRACT: note_on channel=0 note=50 velocity=80 time=0
EXTRACT: note_on channel=6 note=57 velocity=80 time=0
EXTRACT: note_off channel=0 note=62 velocity=64 time=0.20833325
EXTRACT: note_off channel=0 note=57 velocity=64 time=0
EXTRACT: note_off channel=0 note=50 velocity=64 time=0
EXTRACT: note_on channel=0 note=62 velocity=80 time=0
EXTRACT: note_on channel=0 note=57 velocity=80 time=0
EXTRACT: note_on channel=0 note=50 velocity=80 time=0
EXTRACT: note_off channel=2 note=38 velocity=64 time=0
EXTRACT: note_on channel=2 note=38 velocity=80 time=0
EXTRACT: note_off channel=6 note=57 velocity=64 time=0
EXTRACT: note_on channel=6 note=61 velocity=80 time=0
EXTRACT: note_off channel=0 note=62 velocity=64 time=0.4166665
EXTRACT: note_off channel=0 note=57 velocity=64 time=0
EXTRACT: note_off channel=0 note=50 velocity=64 time=0
EXTRACT: note_on channel=0 note=62 velocity=80 time=0
EXTRACT: note_on channel=0 note=57 velocity=80 time=0
EXTRACT: note_on channel=0 note=50 velocity=80 time=0
EXTRACT: note_off channel=6 note=61 velocity=64 time=0
EXTRACT: note_on channel=6 note=57 velocity=80 time=0
EXTRACT: note_off channel=0 note=62 velocity=64 time=0.20833325
EXTRACT: note_off channel=0 note=57 velocity=64 time=0
EXTRACT: note_off channel=0 note=50 velocity=64 time=0
EXTRACT: note_on channel=0 note=62 velocity=80 time=0
EXTRACT: note_on channel=0 note=57 velocity=80 time=0
EXTRACT: note_on channel=0 note=50 velocity=80 time=0
EXTRACT: note_off channel=0 note=62 velocity=64 time=0.20833325
EXTRACT: note_off channel=0 note=57 velocity=64 time=0
EXTRACT: note_off channel=0 note=50 velocity=64 time=0
EXTRACT: note_on channel=0 note=62 velocity=80 time=0
EXTRACT: note_on channel=0 note=57 velocity=80 time=0
EXTRACT: note_on channel=0 note=50 velocity=80 time=0
EXTRACT: note_off channel=6 note=57 velocity=64 time=0
EXTRACT: note_on channel=6 note=54 velocity=80 time=0
EXTRACT: note_off channel=0 note=62 velocity=64 time=0.20833325
EXTRACT: note_off channel=0 note=57 velocity=64 time=0
EXTRACT: note_off channel=0 note=50 velocity=64 time=0
EXTRACT: note_on channel=0 note=62 velocity=80 time=0
EXTRACT: note_on channel=0 note=57 velocity=80 time=0
EXTRACT: note_on channel=0 note=50 velocity=80 time=0
EXTRACT: note_off channel=4 note=57 velocity=64 time=0.20833325
EXTRACT: note_off channel=0 note=62 velocity=64 time=0
EXTRACT: note_off channel=0 note=57 velocity=64 time=0
EXTRACT: note_off channel=0 note=50 velocity=64 time=0
EXTRACT: note_on channel=0 note=64 velocity=80 time=0
EXTRACT: note_on channel=0 note=59 velocity=80 time=0
EXTRACT: note_on channel=0 note=52 velocity=80 time=0
EXTRACT: note_off channel=2 note=38 velocity=64 time=0
EXTRACT: note_on channel=2 note=40 velocity=80 time=0
EXTRACT: note_off channel=6 note=54 velocity=64 time=0
EXTRACT: note_on channel=6 note=64 velocity=80 time=0
EXTRACT: note_on channel=6 note=68 velocity=80 time=0
EXTRACT: note_on channel=6 note=71 velocity=80 time=0
EXTRACT: note_on channel=4 note=64 velocity=80 time=0.4166665
EXTRACT: note_off channel=0 note=64 velocity=64 time=0
EXTRACT: note_off channel=0 note=59 velocity=64 time=0
EXTRACT: note_off channel=0 note=52 velocity=64 time=0
EXTRACT: note_on channel=0 note=64 velocity=80 time=0
EXTRACT: note_on channel=0 note=59 velocity=80 time=0
EXTRACT: note_on channel=0 note=52 velocity=80 time=0
EXTRACT: note_off channel=4 note=64 velocity=64 time=0.20833325
EXTRACT: note_on channel=4 note=64 velocity=80 time=0
EXTRACT: note_off channel=0 note=64 velocity=64 time=0
EXTRACT: note_off channel=0 note=59 velocity=64 time=0
EXTRACT: note_off channel=0 note=52 velocity=64 time=0
EXTRACT: note_on channel=0 note=64 velocity=80 time=0
EXTRACT: note_on channel=0 note=59 velocity=80 time=0
EXTRACT: note_on channel=0 note=52 velocity=80 time=0
EXTRACT: note_off channel=4 note=64 velocity=64 time=0.20833325
EXTRACT: note_on channel=4 note=64 velocity=80 time=0
EXTRACT: note_off channel=0 note=64 velocity=64 time=0
EXTRACT: note_off channel=0 note=59 velocity=64 time=0
EXTRACT: note_off channel=0 note=52 velocity=64 time=0
EXTRACT: note_on channel=0 note=64 velocity=80 time=0
EXTRACT: note_on channel=0 note=59 velocity=80 time=0
EXTRACT: note_on channel=0 note=52 velocity=80 time=0
EXTRACT: note_off channel=4 note=64 velocity=64 time=0.20833325
EXTRACT: note_on channel=4 note=64 velocity=80 time=0
EXTRACT: note_off channel=0 note=64 velocity=64 time=0
EXTRACT: note_off channel=0 note=59 velocity=64 time=0
EXTRACT: note_off channel=0 note=52 velocity=64 time=0
EXTRACT: note_on channel=0 note=64 velocity=80 time=0
EXTRACT: note_on channel=0 note=59 velocity=80 time=0
EXTRACT: note_on channel=0 note=52 velocity=80 time=0
EXTRACT: note_off channel=4 note=64 velocity=64 time=0.20833325
EXTRACT: note_on channel=4 note=64 velocity=80 time=0
EXTRACT: note_off channel=0 note=64 velocity=64 time=0
EXTRACT: note_off channel=0 note=59 velocity=64 time=0
EXTRACT: note_off channel=0 note=52 velocity=64 time=0
EXTRACT: note_on channel=0 note=64 velocity=80 time=0
EXTRACT: note_on channel=0 note=59 velocity=80 time=0
EXTRACT: note_on channel=0 note=52 velocity=80 time=0
EXTRACT: note_off channel=2 note=40 velocity=64 time=0
EXTRACT: note_on channel=2 note=40 velocity=80 time=0
EXTRACT: note_off channel=6 note=64 velocity=64 time=0
EXTRACT: note_off channel=6 note=68 velocity=64 time=0
EXTRACT: note_off channel=6 note=71 velocity=64 time=0
EXTRACT: note_on channel=6 note=71 velocity=80 time=0
EXTRACT: note_on channel=6 note=68 velocity=80 time=0
EXTRACT: note_on channel=6 note=64 velocity=80 time=0
EXTRACT: note_off channel=4 note=64 velocity=64 time=0.4166665
EXTRACT: note_on channel=4 note=66 velocity=80 time=0
EXTRACT: note_off channel=0 note=64 velocity=64 time=0
EXTRACT: note_off channel=0 note=59 velocity=64 time=0
EXTRACT: note_off channel=0 note=52 velocity=64 time=0
EXTRACT: note_on channel=0 note=64 velocity=80 time=0
EXTRACT: note_on channel=0 note=59 velocity=80 time=0
EXTRACT: note_on channel=0 note=52 velocity=80 time=0
EXTRACT: note_off channel=0 note=64 velocity=64 time=0.20833325
EXTRACT: note_off channel=0 note=59 velocity=64 time=0
EXTRACT: note_off channel=0 note=52 velocity=64 time=0
EXTRACT: note_on channel=0 note=64 velocity=80 time=0
EXTRACT: note_on channel=0 note=59 velocity=80 time=0
EXTRACT: note_on channel=0 note=52 velocity=80 time=0
EXTRACT: note_off channel=0 note=64 velocity=64 time=0.20833325
EXTRACT: note_off channel=0 note=59 velocity=64 time=0
EXTRACT: note_off channel=0 note=52 velocity=64 time=0
EXTRACT: note_on channel=0 note=64 velocity=80 time=0
EXTRACT: note_on channel=0 note=59 velocity=80 time=0
EXTRACT: note_on channel=0 note=52 velocity=80 time=0
EXTRACT: note_off channel=6 note=71 velocity=64 time=0
EXTRACT: note_off channel=6 note=68 velocity=64 time=0
EXTRACT: note_off channel=6 note=64 velocity=64 time=0
EXTRACT: note_on channel=6 note=64 velocity=80 time=0
EXTRACT: note_off channel=4 note=66 velocity=64 time=0.20833325
EXTRACT: note_on channel=4 note=68 velocity=80 time=0
EXTRACT: note_off channel=0 note=64 velocity=64 time=0
EXTRACT: note_off channel=0 note=59 velocity=64 time=0
EXTRACT: note_off channel=0 note=52 velocity=64 time=0
EXTRACT: note_on channel=0 note=64 velocity=80 time=0
EXTRACT: note_on channel=0 note=59 velocity=80 time=0
EXTRACT: note_on channel=0 note=52 velocity=80 time=0
EXTRACT: note_off channel=4 note=68 velocity=64 time=0.20833325
EXTRACT: note_on channel=4 note=69 velocity=80 time=0
EXTRACT: note_off channel=0 note=64 velocity=64 time=0
EXTRACT: note_off channel=0 note=59 velocity=64 time=0
EXTRACT: note_off channel=0 note=52 velocity=64 time=0
EXTRACT: note_on channel=0 note=62 velocity=80 time=0
EXTRACT: note_on channel=0 note=57 velocity=80 time=0
EXTRACT: note_on channel=0 note=50 velocity=80 time=0
EXTRACT: note_off channel=2 note=40 velocity=64 time=0
EXTRACT: note_on channel=2 note=38 velocity=80 time=0
EXTRACT: note_off channel=6 note=64 velocity=64 time=0
EXTRACT: note_on channel=6 note=66 velocity=80 time=0
EXTRACT: note_on channel=6 note=62 velocity=80 time=0
EXTRACT: note_on channel=6 note=69 velocity=80 time=0
EXTRACT: note_off channel=4 note=69 velocity=64 time=0.4166665
EXTRACT: note_on channel=4 note=62 velocity=80 time=0
EXTRACT: note_off channel=0 note=62 velocity=64 time=0
EXTRACT: note_off channel=0 note=57 velocity=64 time=0
EXTRACT: note_off channel=0 note=50 velocity=64 time=0
EXTRACT: note_on channel=0 note=62 velocity=80 time=0
EXTRACT: note_on channel=0 note=57 velocity=80 time=0
EXTRACT: note_on channel=0 note=50 velocity=80 time=0
EXTRACT: note_off channel=0 note=62 velocity=64 time=0.20833325
EXTRACT: note_off channel=0 note=57 velocity=64 time=0
EXTRACT: note_off channel=0 note=50 velocity=64 time=0
EXTRACT: note_on channel=0 note=62 velocity=80 time=0
EXTRACT: note_on channel=0 note=57 velocity=80 time=0
EXTRACT: note_on channel=0 note=50 velocity=80 time=0
EXTRACT: note_off channel=0 note=62 velocity=64 time=0.20833325
EXTRACT: note_off channel=0 note=57 velocity=64 time=0
EXTRACT: note_off channel=0 note=50 velocity=64 time=0
EXTRACT: note_on channel=0 note=62 velocity=80 time=0
EXTRACT: note_on channel=0 note=57 velocity=80 time=0
EXTRACT: note_on channel=0 note=50 velocity=80 time=0
EXTRACT: note_off channel=6 note=66 velocity=64 time=0
EXTRACT: note_off channel=6 note=62 velocity=64 time=0
EXTRACT: note_off channel=6 note=69 velocity=64 time=0
EXTRACT: note_on channel=6 note=66 velocity=80 time=0
EXTRACT: note_off channel=0 note=62 velocity=64 time=0.20833325
EXTRACT: note_off channel=0 note=57 velocity=64 time=0
EXTRACT: note_off channel=0 note=50 velocity=64 time=0
EXTRACT: note_on channel=0 note=62 velocity=80 time=0
EXTRACT: note_on channel=0 note=57 velocity=80 time=0
EXTRACT: note_on channel=0 note=50 velocity=80 time=0
EXTRACT: note_off channel=6 note=66 velocity=64 time=0
EXTRACT: note_on channel=6 note=69 velocity=80 time=0
EXTRACT: note_off channel=4 note=62 velocity=64 time=0.20833325
EXTRACT: note_off channel=0 note=62 velocity=64 time=0
EXTRACT: note_off channel=0 note=57 velocity=64 time=0
EXTRACT: note_off channel=0 note=50 velocity=64 time=0
EXTRACT: note_on channel=0 note=62 velocity=80 time=0
EXTRACT: note_on channel=0 note=57 velocity=80 time=0
EXTRACT: note_on channel=0 note=50 velocity=80 time=0
EXTRACT: note_off channel=2 note=38 velocity=64 time=0
EXTRACT: note_on channel=2 note=38 velocity=80 time=0
EXTRACT: note_off channel=6 note=69 velocity=64 time=0
EXTRACT: note_on channel=6 note=74 velocity=80 time=0
EXTRACT: note_off channel=0 note=62 velocity=64 time=0.4166665
EXTRACT: note_off channel=0 note=57 velocity=64 time=0
EXTRACT: note_off channel=0 note=50 velocity=64 time=0
EXTRACT: note_on channel=0 note=62 velocity=80 time=0
EXTRACT: note_on channel=0 note=57 velocity=80 time=0
EXTRACT: note_on channel=0 note=50 velocity=80 time=0
EXTRACT: note_off channel=6 note=74 velocity=64 time=0
EXTRACT: note_on channel=6 note=69 velocity=80 time=0
EXTRACT: note_off channel=0 note=62 velocity=64 time=0.20833325
EXTRACT: note_off channel=0 note=57 velocity=64 time=0
EXTRACT: note_off channel=0 note=50 velocity=64 time=0
EXTRACT: note_on channel=0 note=62 velocity=80 time=0
EXTRACT: note_on channel=0 note=57 velocity=80 time=0
EXTRACT: note_on channel=0 note=50 velocity=80 time=0
EXTRACT: note_off channel=0 note=62 velocity=64 time=0.20833325
EXTRACT: note_off channel=0 note=57 velocity=64 time=0
EXTRACT: note_off channel=0 note=50 velocity=64 time=0
EXTRACT: note_on channel=0 note=62 velocity=80 time=0
EXTRACT: note_on channel=0 note=57 velocity=80 time=0
EXTRACT: note_on channel=0 note=50 velocity=80 time=0
EXTRACT: note_off channel=6 note=69 velocity=64 time=0
EXTRACT: note_on channel=6 note=66 velocity=80 time=0
EXTRACT: note_off channel=0 note=62 velocity=64 time=0.20833325
EXTRACT: note_off channel=0 note=57 velocity=64 time=0
EXTRACT: note_off channel=0 note=50 velocity=64 time=0
EXTRACT: note_on channel=0 note=62 velocity=80 time=0
EXTRACT: note_on channel=0 note=57 velocity=80 time=0
EXTRACT: note_on channel=0 note=50 velocity=80 time=0
EXTRACT: note_off channel=0 note=62 velocity=64 time=0.20833325
EXTRACT: note_off channel=0 note=57 velocity=64 time=0
EXTRACT: note_off channel=0 note=50 velocity=64 time=0
EXTRACT: note_on channel=0 note=64 velocity=80 time=0
EXTRACT: note_on channel=0 note=59 velocity=80 time=0
EXTRACT: note_on channel=0 note=52 velocity=80 time=0
EXTRACT: note_off channel=2 note=38 velocity=64 time=0
EXTRACT: note_on channel=2 note=40 velocity=80 time=0
EXTRACT: note_off channel=6 note=66 velocity=64 time=0
EXTRACT: note_on channel=6 note=64 velocity=80 time=0
EXTRACT: note_on channel=6 note=68 velocity=80 time=0
EXTRACT: note_on channel=6 note=71 velocity=80 time=0
EXTRACT: note_on channel=4 note=64 velocity=80 time=0.4166665
EXTRACT: note_off channel=0 note=64 velocity=64 time=0
EXTRACT: note_off channel=0 note=59 velocity=64 time=0
EXTRACT: note_off channel=0 note=52 velocity=64 time=0
EXTRACT: note_on channel=0 note=64 velocity=80 time=0
EXTRACT: note_on channel=0 note=59 velocity=80 time=0
EXTRACT: note_on channel=0 note=52 velocity=80 time=0
EXTRACT: note_off channel=4 note=64 velocity=64 time=0.20833325
EXTRACT: note_on channel=4 note=64 velocity=80 time=0
EXTRACT: note_off channel=0 note=64 velocity=64 time=0
EXTRACT: note_off channel=0 note=59 velocity=64 time=0
EXTRACT: note_off channel=0 note=52 velocity=64 time=0
EXTRACT: note_on channel=0 note=64 velocity=80 time=0
EXTRACT: note_on channel=0 note=59 velocity=80 time=0
EXTRACT: note_on channel=0 note=52 velocity=80 time=0
EXTRACT: note_off channel=4 note=64 velocity=64 time=0.20833325
EXTRACT: note_on channel=4 note=64 velocity=80 time=0
EXTRACT: note_off channel=0 note=64 velocity=64 time=0
EXTRACT: note_off channel=0 note=59 velocity=64 time=0
EXTRACT: note_off channel=0 note=52 velocity=64 time=0
EXTRACT: note_on channel=0 note=64 velocity=80 time=0
EXTRACT: note_on channel=0 note=59 velocity=80 time=0
EXTRACT: note_on channel=0 note=52 velocity=80 time=0
EXTRACT: note_off channel=4 note=64 velocity=64 time=0.20833325
EXTRACT: note_on channel=4 note=64 velocity=80 time=0
EXTRACT: note_off channel=0 note=64 velocity=64 time=0
EXTRACT: note_off channel=0 note=59 velocity=64 time=0
EXTRACT: note_off channel=0 note=52 velocity=64 time=0
EXTRACT: note_on channel=0 note=64 velocity=80 time=0
EXTRACT: note_on channel=0 note=59 velocity=80 time=0
EXTRACT: note_on channel=0 note=52 velocity=80 time=0
EXTRACT: note_off channel=4 note=64 velocity=64 time=0.20833325
EXTRACT: note_on channel=4 note=64 velocity=80 time=0
EXTRACT: note_off channel=0 note=64 velocity=64 time=0
EXTRACT: note_off channel=0 note=59 velocity=64 time=0
EXTRACT: note_off channel=0 note=52 velocity=64 time=0
EXTRACT: note_on channel=0 note=64 velocity=80 time=0
EXTRACT: note_on channel=0 note=59 velocity=80 time=0
EXTRACT: note_on channel=0 note=52 velocity=80 time=0
EXTRACT: note_off channel=2 note=40 velocity=64 time=0
EXTRACT: note_on channel=2 note=40 velocity=80 time=0
EXTRACT: note_off channel=6 note=64 velocity=64 time=0
EXTRACT: note_off channel=6 note=68 velocity=64 time=0
EXTRACT: note_off channel=6 note=71 velocity=64 time=0
EXTRACT: note_on channel=6 note=71 velocity=80 time=0
EXTRACT: note_on channel=6 note=68 velocity=80 time=0
EXTRACT: note_on channel=6 note=64 velocity=80 time=0
EXTRACT: note_off channel=4 note=64 velocity=64 time=0.4166665
EXTRACT: note_on channel=4 note=66 velocity=80 time=0
EXTRACT: note_off channel=0 note=64 velocity=64 time=0
EXTRACT: note_off channel=0 note=59 velocity=64 time=0
EXTRACT: note_off channel=0 note=52 velocity=64 time=0
EXTRACT: note_on channel=0 note=64 velocity=80 time=0
EXTRACT: note_on channel=0 note=59 velocity=80 time=0
EXTRACT: note_on channel=0 note=52 velocity=80 time=0
EXTRACT: note_off channel=0 note=64 velocity=64 time=0.20833325
EXTRACT: note_off channel=0 note=59 velocity=64 time=0
EXTRACT: note_off channel=0 note=52 velocity=64 time=0
EXTRACT: note_on channel=0 note=64 velocity=80 time=0
EXTRACT: note_on channel=0 note=59 velocity=80 time=0
EXTRACT: note_on channel=0 note=52 velocity=80 time=0
EXTRACT: note_off channel=4 note=66 velocity=64 time=0.20833325
EXTRACT: note_on channel=4 note=68 velocity=80 time=0
EXTRACT: note_off channel=0 note=64 velocity=64 time=0
EXTRACT: note_off channel=0 note=59 velocity=64 time=0
EXTRACT: note_off channel=0 note=52 velocity=64 time=0
EXTRACT: note_on channel=0 note=64 velocity=80 time=0
EXTRACT: note_on channel=0 note=59 velocity=80 time=0
EXTRACT: note_on channel=0 note=52 velocity=80 time=0
EXTRACT: note_off channel=6 note=71 velocity=64 time=0
EXTRACT: note_off channel=6 note=68 velocity=64 time=0
EXTRACT: note_off channel=6 note=64 velocity=64 time=0
EXTRACT: note_on channel=6 note=64 velocity=80 time=0
EXTRACT: note_off channel=0 note=64 velocity=64 time=0.20833325
EXTRACT: note_off channel=0 note=59 velocity=64 time=0
EXTRACT: note_off channel=0 note=52 velocity=64 time=0
EXTRACT: note_on channel=0 note=64 velocity=80 time=0
EXTRACT: note_on channel=0 note=59 velocity=80 time=0
EXTRACT: note_on channel=0 note=52 velocity=80 time=0
EXTRACT: note_off channel=4 note=68 velocity=64 time=0.20833325
EXTRACT: note_on channel=4 note=69 velocity=80 time=0
EXTRACT: note_off channel=0 note=64 velocity=64 time=0
EXTRACT: note_off channel=0 note=59 velocity=64 time=0
EXTRACT: note_off channel=0 note=52 velocity=64 time=0
EXTRACT: note_on channel=0 note=62 velocity=80 time=0
EXTRACT: note_on channel=0 note=57 velocity=80 time=0
EXTRACT: note_on channel=0 note=50 velocity=80 time=0
EXTRACT: note_off channel=2 note=40 velocity=64 time=0
EXTRACT: note_on channel=2 note=38 velocity=80 time=0
EXTRACT: note_off channel=6 note=64 velocity=64 time=0
EXTRACT: note_on channel=6 note=66 velocity=80 time=0
EXTRACT: note_on channel=6 note=62 velocity=80 time=0
EXTRACT: note_on channel=6 note=69 velocity=80 time=0
EXTRACT: note_off channel=6 note=66 velocity=64 time=0.833333
EXTRACT: note_off channel=6 note=62 velocity=64 time=0
EXTRACT: note_off channel=6 note=69 velocity=64 time=0
EXTRACT: note_on channel=6 note=66 velocity=80 time=0
EXTRACT: note_off channel=6 note=66 velocity=64 time=0.20833325
EXTRACT: note_on channel=6 note=69 velocity=80 time=0
EXTRACT: note_off channel=4 note=69 velocity=64 time=0.20833325
EXTRACT: note_off channel=6 note=69 velocity=64 time=0
EXTRACT: note_on channel=6 note=74 velocity=80 time=0
EXTRACT: note_on channel=4 note=64 velocity=80 time=0.4166665
EXTRACT: note_off channel=4 note=64 velocity=64 time=0.4166665
EXTRACT: note_on channel=4 note=64 velocity=80 time=0
EXTRACT: note_off channel=4 note=64 velocity=64 time=0.4166665
EXTRACT: note_on channel=4 note=71 velocity=80 time=0
EXTRACT: note_off channel=0 note=62 velocity=64 time=0
EXTRACT: note_off channel=0 note=57 velocity=64 time=0
EXTRACT: note_off channel=0 note=50 velocity=64 time=0
EXTRACT: note_on channel=0 note=57 velocity=80 time=0
EXTRACT: note_on channel=0 note=52 velocity=80 time=0
EXTRACT: note_on channel=0 note=45 velocity=80 time=0
EXTRACT: note_off channel=2 note=38 velocity=64 time=0
EXTRACT: note_on channel=2 note=33 velocity=80 time=0
EXTRACT: note_off channel=6 note=74 velocity=64 time=0
EXTRACT: note_on channel=6 note=64 velocity=80 time=0
EXTRACT: note_on channel=6 note=61 velocity=80 time=0
EXTRACT: note_on channel=6 note=57 velocity=80 time=0
EXTRACT: note_off channel=0 note=57 velocity=64 time=0.4166665
EXTRACT: note_off channel=0 note=52 velocity=64 time=0
EXTRACT: note_off channel=0 note=45 velocity=64 time=0
EXTRACT: note_on channel=0 note=57 velocity=80 time=0
EXTRACT: note_on channel=0 note=52 velocity=80 time=0
EXTRACT: note_on channel=0 note=45 velocity=80 time=0
EXTRACT: note_off channel=0 note=57 velocity=64 time=0.20833325
EXTRACT: note_off channel=0 note=52 velocity=64 time=0
EXTRACT: note_off channel=0 note=45 velocity=64 time=0
EXTRACT: note_on channel=0 note=57 velocity=80 time=0
EXTRACT: note_on channel=0 note=52 velocity=80 time=0
EXTRACT: note_on channel=0 note=45 velocity=80 time=0
EXTRACT: note_off channel=0 note=57 velocity=64 time=0.20833325
EXTRACT: note_off channel=0 note=52 velocity=64 time=0
EXTRACT: note_off channel=0 note=45 velocity=64 time=0
EXTRACT: note_on channel=0 note=57 velocity=80 time=0
EXTRACT: note_on channel=0 note=52 velocity=80 time=0
EXTRACT: note_on channel=0 note=45 velocity=80 time=0
EXTRACT: note_off channel=6 note=64 velocity=64 time=0
EXTRACT: note_off channel=6 note=61 velocity=64 time=0
EXTRACT: note_off channel=6 note=57 velocity=64 time=0
EXTRACT: note_on channel=6 note=57 velocity=80 time=0
EXTRACT: note_off channel=0 note=57 velocity=64 time=0.20833325
EXTRACT: note_off channel=0 note=52 velocity=64 time=0
EXTRACT: note_off channel=0 note=45 velocity=64 time=0
EXTRACT: note_on channel=0 note=57 velocity=80 time=0
EXTRACT: note_on channel=0 note=52 velocity=80 time=0
EXTRACT: note_on channel=0 note=45 velocity=80 time=0
EXTRACT: note_off channel=4 note=71 velocity=64 time=0.20833325
EXTRACT: note_on channel=4 note=73 velocity=80 time=0
EXTRACT: note_off channel=0 note=57 velocity=64 time=0
EXTRACT: note_off channel=0 note=52 velocity=64 time=0
EXTRACT: note_off channel=0 note=45 velocity=64 time=0
EXTRACT: note_on channel=0 note=59 velocity=80 time=0
EXTRACT: note_on channel=0 note=54 velocity=80 time=0
EXTRACT: note_on channel=0 note=47 velocity=80 time=0
EXTRACT: note_off channel=2 note=33 velocity=64 time=0
EXTRACT: note_on channel=2 note=35 velocity=80 time=0
EXTRACT: note_off channel=6 note=57 velocity=64 time=0
EXTRACT: note_on channel=6 note=66 velocity=80 time=0
EXTRACT: note_on channel=6 note=59 velocity=80 time=0
EXTRACT: note_on channel=6 note=62 velocity=80 time=0
EXTRACT: note_off channel=0 note=59 velocity=64 time=0.4166665
EXTRACT: note_off channel=0 note=54 velocity=64 time=0
EXTRACT: note_off channel=0 note=47 velocity=64 time=0
EXTRACT: note_on channel=0 note=59 velocity=80 time=0
EXTRACT: note_on channel=0 note=54 velocity=80 time=0
EXTRACT: note_on channel=0 note=47 velocity=80 time=0
EXTRACT: note_off channel=0 note=59 velocity=64 time=0.20833325
EXTRACT: note_off channel=0 note=54 velocity=64 time=0
EXTRACT: note_off channel=0 note=47 velocity=64 time=0
EXTRACT: note_on channel=0 note=59 velocity=80 time=0
EXTRACT: note_on channel=0 note=54 velocity=80 time=0
EXTRACT: note_on channel=0 note=47 velocity=80 time=0
EXTRACT: note_off channel=0 note=59 velocity=64 time=0.20833325
EXTRACT: note_off channel=0 note=54 velocity=64 time=0
EXTRACT: note_off channel=0 note=47 velocity=64 time=0
EXTRACT: note_on channel=0 note=59 velocity=80 time=0
EXTRACT: note_on channel=0 note=54 velocity=80 time=0
EXTRACT: note_on channel=0 note=47 velocity=80 time=0
EXTRACT: note_off channel=6 note=66 velocity=64 time=0
EXTRACT: note_off channel=6 note=59 velocity=64 time=0
EXTRACT: note_off channel=6 note=62 velocity=64 time=0
EXTRACT: note_on channel=6 note=59 velocity=80 time=0
EXTRACT: note_off channel=0 note=59 velocity=64 time=0.20833325
EXTRACT: note_off channel=0 note=54 velocity=64 time=0
EXTRACT: note_off channel=0 note=47 velocity=64 time=0
EXTRACT: note_on channel=0 note=59 velocity=80 time=0
EXTRACT: note_on channel=0 note=54 velocity=80 time=0
EXTRACT: note_on channel=0 note=47 velocity=80 time=0
EXTRACT: note_off channel=4 note=73 velocity=64 time=0.20833325
EXTRACT: note_on channel=4 note=62 velocity=80 time=0
EXTRACT: note_off channel=0 note=59 velocity=64 time=0
EXTRACT: note_off channel=0 note=54 velocity=64 time=0
EXTRACT: note_off channel=0 note=47 velocity=64 time=0
EXTRACT: note_on channel=0 note=62 velocity=80 time=0
EXTRACT: note_on channel=0 note=57 velocity=80 time=0
EXTRACT: note_on channel=0 note=50 velocity=80 time=0
EXTRACT: note_off channel=2 note=35 velocity=64 time=0
EXTRACT: note_on channel=2 note=38 velocity=80 time=0
EXTRACT: note_off channel=6 note=59 velocity=64 time=0
EXTRACT: note_on channel=6 note=66 velocity=80 time=0
EXTRACT: note_on channel=6 note=62 velocity=80 time=0
EXTRACT: note_on channel=6 note=69 velocity=80 time=0
EXTRACT: note_off channel=0 note=62 velocity=64 time=0.4166665
EXTRACT: note_off channel=0 note=57 velocity=64 time=0
EXTRACT: note_off channel=0 note=50 velocity=64 time=0
EXTRACT: note_on channel=0 note=62 velocity=80 time=0
EXTRACT: note_on channel=0 note=57 velocity=80 time=0
EXTRACT: note_on channel=0 note=50 velocity=80 time=0
EXTRACT: note_off channel=0 note=62 velocity=64 time=0.20833325
EXTRACT: note_off channel=0 note=57 velocity=64 time=0
EXTRACT: note_off channel=0 note=50 velocity=64 time=0
EXTRACT: note_on channel=0 note=62 velocity=80 time=0
EXTRACT: note_on channel=0 note=57 velocity=80 time=0
EXTRACT: note_on channel=0 note=50 velocity=80 time=0
EXTRACT: note_off channel=0 note=62 velocity=64 time=0.20833325
EXTRACT: note_off channel=0 note=57 velocity=64 time=0
EXTRACT: note_off channel=0 note=50 velocity=64 time=0
EXTRACT: note_on channel=0 note=62 velocity=80 time=0
EXTRACT: note_on channel=0 note=57 velocity=80 time=0
EXTRACT: note_on channel=0 note=50 velocity=80 time=0
EXTRACT: note_off channel=6 note=66 velocity=64 time=0
EXTRACT: note_off channel=6 note=62 velocity=64 time=0
EXTRACT: note_off channel=6 note=69 velocity=64 time=0
EXTRACT: note_on channel=6 note=66 velocity=80 time=0
EXTRACT: note_off channel=0 note=62 velocity=64 time=0.20833325
EXTRACT: note_off channel=0 note=57 velocity=64 time=0
EXTRACT: note_off channel=0 note=50 velocity=64 time=0
EXTRACT: note_on channel=0 note=62 velocity=80 time=0
EXTRACT: note_on channel=0 note=57 velocity=80 time=0
EXTRACT: note_on channel=0 note=50 velocity=80 time=0
EXTRACT: note_off channel=6 note=66 velocity=64 time=0
EXTRACT: note_on channel=6 note=69 velocity=80 time=0
EXTRACT: note_off channel=4 note=62 velocity=64 time=0.20833325
EXTRACT: note_off channel=0 note=62 velocity=64 time=0
EXTRACT: note_off channel=0 note=57 velocity=64 time=0
EXTRACT: note_off channel=0 note=50 velocity=64 time=0
EXTRACT: note_on channel=0 note=62 velocity=80 time=0
EXTRACT: note_on channel=0 note=57 velocity=80 time=0
EXTRACT: note_on channel=0 note=50 velocity=80 time=0
EXTRACT: note_off channel=2 note=38 velocity=64 time=0
EXTRACT: note_on channel=2 note=38 velocity=80 time=0
EXTRACT: note_off channel=6 note=69 velocity=64 time=0
EXTRACT: note_on channel=6 note=74 velocity=80 time=0
EXTRACT: note_on channel=4 note=64 velocity=80 time=0.4166665
EXTRACT: note_off channel=0 note=62 velocity=64 time=0
EXTRACT: note_off channel=0 note=57 velocity=64 time=0
EXTRACT: note_off channel=0 note=50 velocity=64 time=0
EXTRACT: note_on channel=0 note=62 velocity=80 time=0
EXTRACT: note_on channel=0 note=57 velocity=80 time=0
EXTRACT: note_on channel=0 note=50 velocity=80 time=0
EXTRACT: note_off channel=6 note=74 velocity=64 time=0
EXTRACT: note_on channel=6 note=69 velocity=80 time=0
EXTRACT: note_off channel=4 note=64 velocity=64 time=0.20833325
EXTRACT: note_on channel=4 note=64 velocity=80 time=0
EXTRACT: note_off channel=0 note=62 velocity=64 time=0
EXTRACT: note_off channel=0 note=57 velocity=64 time=0
EXTRACT: note_off channel=0 note=50 velocity=64 time=0
EXTRACT: note_on channel=0 note=62 velocity=80 time=0
EXTRACT: note_on channel=0 note=57 velocity=80 time=0
EXTRACT: note_on channel=0 note=50 velocity=80 time=0
EXTRACT: note_off channel=4 note=64 velocity=64 time=0.20833325
EXTRACT: note_on channel=4 note=64 velocity=80 time=0
EXTRACT: note_off channel=0 note=62 velocity=64 time=0
EXTRACT: note_off channel=0 note=57 velocity=64 time=0
EXTRACT: note_off channel=0 note=50 velocity=64 time=0
EXTRACT: note_on channel=0 note=62 velocity=80 time=0
EXTRACT: note_on channel=0 note=57 velocity=80 time=0
EXTRACT: note_on channel=0 note=50 velocity=80 time=0
EXTRACT: note_off channel=6 note=69 velocity=64 time=0
EXTRACT: note_on channel=6 note=66 velocity=80 time=0
EXTRACT: note_off channel=4 note=64 velocity=64 time=0.20833325
EXTRACT: note_on channel=4 note=64 velocity=80 time=0
EXTRACT: note_off channel=0 note=62 velocity=64 time=0
EXTRACT: note_off channel=0 note=57 velocity=64 time=0
EXTRACT: note_off channel=0 note=50 velocity=64 time=0
EXTRACT: note_on channel=0 note=62 velocity=80 time=0
EXTRACT: note_on channel=0 note=57 velocity=80 time=0
EXTRACT: note_on channel=0 note=50 velocity=80 time=0
EXTRACT: note_off channel=4 note=64 velocity=64 time=0.20833325
EXTRACT: note_on channel=4 note=71 velocity=80 time=0
EXTRACT: note_off channel=0 note=62 velocity=64 time=0
EXTRACT: note_off channel=0 note=57 velocity=64 time=0
EXTRACT: note_off channel=0 note=50 velocity=64 time=0
EXTRACT: note_on channel=0 note=57 velocity=80 time=0
EXTRACT: note_on channel=0 note=52 velocity=80 time=0
EXTRACT: note_on channel=0 note=45 velocity=80 time=0
EXTRACT: note_off channel=2 note=38 velocity=64 time=0
EXTRACT: note_on channel=2 note=33 velocity=80 time=0
EXTRACT: note_off channel=6 note=66 velocity=64 time=0
EXTRACT: note_on channel=6 note=64 velocity=80 time=0
EXTRACT: note_on channel=6 note=61 velocity=80 time=0
EXTRACT: note_on channel=6 note=57 velocity=80 time=0
EXTRACT: note_off channel=0 note=57 velocity=64 time=0.4166665
EXTRACT: note_off channel=0 note=52 velocity=64 time=0
EXTRACT: note_off channel=0 note=45 velocity=64 time=0
EXTRACT: note_on channel=0 note=57 velocity=80 time=0
EXTRACT: note_on channel=0 note=52 velocity=80 time=0
EXTRACT: note_on channel=0 note=45 velocity=80 time=0
EXTRACT: note_off channel=0 note=57 velocity=64 time=0.20833325
EXTRACT: note_off channel=0 note=52 velocity=64 time=0
EXTRACT: note_off channel=0 note=45 velocity=64 time=0
EXTRACT: note_on channel=0 note=57 velocity=80 time=0
EXTRACT: note_on channel=0 note=52 velocity=80 time=0
EXTRACT: note_on channel=0 note=45 velocity=80 time=0
EXTRACT: note_off channel=0 note=57 velocity=64 time=0.20833325
EXTRACT: note_off channel=0 note=52 velocity=64 time=0
EXTRACT: note_off channel=0 note=45 velocity=64 time=0
EXTRACT: note_on channel=0 note=57 velocity=80 time=0
EXTRACT: note_on channel=0 note=52 velocity=80 time=0
EXTRACT: note_on channel=0 note=45 velocity=80 time=0
EXTRACT: note_off channel=6 note=64 velocity=64 time=0
EXTRACT: note_off channel=6 note=61 velocity=64 time=0
EXTRACT: note_off channel=6 note=57 velocity=64 time=0
EXTRACT: note_on channel=6 note=57 velocity=80 time=0
EXTRACT: note_off channel=0 note=57 velocity=64 time=0.20833325
EXTRACT: note_off channel=0 note=52 velocity=64 time=0
EXTRACT: note_off channel=0 note=45 velocity=64 time=0
EXTRACT: note_on channel=0 note=57 velocity=80 time=0
EXTRACT: note_on channel=0 note=52 velocity=80 time=0
EXTRACT: note_on channel=0 note=45 velocity=80 time=0
EXTRACT: note_off channel=4 note=71 velocity=64 time=0.20833325
EXTRACT: note_on channel=4 note=73 velocity=80 time=0
EXTRACT: note_off channel=0 note=57 velocity=64 time=0
EXTRACT: note_off channel=0 note=52 velocity=64 time=0
EXTRACT: note_off channel=0 note=45 velocity=64 time=0
EXTRACT: note_on channel=0 note=59 velocity=80 time=0
EXTRACT: note_on channel=0 note=54 velocity=80 time=0
EXTRACT: note_on channel=0 note=47 velocity=80 time=0
EXTRACT: note_off channel=2 note=33 velocity=64 time=0
EXTRACT: note_on channel=2 note=35 velocity=80 time=0
EXTRACT: note_off channel=6 note=57 velocity=64 time=0
EXTRACT: note_on channel=6 note=66 velocity=80 time=0
EXTRACT: note_on channel=6 note=59 velocity=80 time=0
EXTRACT: note_on channel=6 note=62 velocity=80 time=0
EXTRACT: note_off channel=0 note=59 velocity=64 time=0.4166665
EXTRACT: note_off channel=0 note=54 velocity=64 time=0
EXTRACT: note_off channel=0 note=47 velocity=64 time=0
EXTRACT: note_on channel=0 note=59 velocity=80 time=0
EXTRACT: note_on channel=0 note=54 velocity=80 time=0
EXTRACT: note_on channel=0 note=47 velocity=80 time=0
EXTRACT: note_off channel=0 note=59 velocity=64 time=0.20833325
EXTRACT: note_off channel=0 note=54 velocity=64 time=0
EXTRACT: note_off channel=0 note=47 velocity=64 time=0
EXTRACT: note_on channel=0 note=59 velocity=80 time=0
EXTRACT: note_on channel=0 note=54 velocity=80 time=0
EXTRACT: note_on channel=0 note=47 velocity=80 time=0
EXTRACT: note_off channel=0 note=59 velocity=64 time=0.20833325
EXTRACT: note_off channel=0 note=54 velocity=64 time=0
EXTRACT: note_off channel=0 note=47 velocity=64 time=0
EXTRACT: note_on channel=0 note=59 velocity=80 time=0
EXTRACT: note_on channel=0 note=54 velocity=80 time=0
EXTRACT: note_on channel=0 note=47 velocity=80 time=0
EXTRACT: note_off channel=6 note=66 velocity=64 time=0
EXTRACT: note_off channel=6 note=59 velocity=64 time=0
EXTRACT: note_off channel=6 note=62 velocity=64 time=0
EXTRACT: note_on channel=6 note=59 velocity=80 time=0
EXTRACT: note_off channel=0 note=59 velocity=64 time=0.20833325
EXTRACT: note_off channel=0 note=54 velocity=64 time=0
EXTRACT: note_off channel=0 note=47 velocity=64 time=0
EXTRACT: note_on channel=0 note=59 velocity=80 time=0
EXTRACT: note_on channel=0 note=54 velocity=80 time=0
EXTRACT: note_on channel=0 note=47 velocity=80 time=0
EXTRACT: note_off channel=4 note=73 velocity=64 time=0.20833325
EXTRACT: note_on channel=4 note=62 velocity=80 time=0
EXTRACT: note_off channel=0 note=59 velocity=64 time=0
EXTRACT: note_off channel=0 note=54 velocity=64 time=0
EXTRACT: note_off channel=0 note=47 velocity=64 time=0
EXTRACT: note_on channel=0 note=62 velocity=80 time=0
EXTRACT: note_on channel=0 note=57 velocity=80 time=0
EXTRACT: note_on channel=0 note=50 velocity=80 time=0
EXTRACT: note_off channel=2 note=35 velocity=64 time=0
EXTRACT: note_on channel=2 note=38 velocity=80 time=0
EXTRACT: note_off channel=6 note=59 velocity=64 time=0
EXTRACT: note_on channel=6 note=66 velocity=80 time=0
EXTRACT: note_on channel=6 note=62 velocity=80 time=0
EXTRACT: note_on channel=6 note=69 velocity=80 time=0
EXTRACT: note_off channel=0 note=62 velocity=64 time=0.4166665
EXTRACT: note_off channel=0 note=57 velocity=64 time=0
EXTRACT: note_off channel=0 note=50 velocity=64 time=0
EXTRACT: note_on channel=0 note=62 velocity=80 time=0
EXTRACT: note_on channel=0 note=57 velocity=80 time=0
EXTRACT: note_on channel=0 note=50 velocity=80 time=0
EXTRACT: note_off channel=0 note=62 velocity=64 time=0.20833325
EXTRACT: note_off channel=0 note=57 velocity=64 time=0
EXTRACT: note_off channel=0 note=50 velocity=64 time=0
EXTRACT: note_on channel=0 note=62 velocity=80 time=0
EXTRACT: note_on channel=0 note=57 velocity=80 time=0
EXTRACT: note_on channel=0 note=50 velocity=80 time=0
EXTRACT: note_off channel=0 note=62 velocity=64 time=0.20833325
EXTRACT: note_off channel=0 note=57 velocity=64 time=0
EXTRACT: note_off channel=0 note=50 velocity=64 time=0
EXTRACT: note_on channel=0 note=62 velocity=80 time=0
EXTRACT: note_on channel=0 note=57 velocity=80 time=0
EXTRACT: note_on channel=0 note=50 velocity=80 time=0
EXTRACT: note_off channel=6 note=66 velocity=64 time=0
EXTRACT: note_off channel=6 note=62 velocity=64 time=0
EXTRACT: note_off channel=6 note=69 velocity=64 time=0
EXTRACT: note_on channel=6 note=66 velocity=80 time=0
EXTRACT: note_off channel=0 note=62 velocity=64 time=0.20833325
EXTRACT: note_off channel=0 note=57 velocity=64 time=0
EXTRACT: note_off channel=0 note=50 velocity=64 time=0
EXTRACT: note_on channel=0 note=62 velocity=80 time=0
EXTRACT: note_on channel=0 note=57 velocity=80 time=0
EXTRACT: note_on channel=0 note=50 velocity=80 time=0
EXTRACT: note_off channel=6 note=66 velocity=64 time=0
EXTRACT: note_on channel=6 note=69 velocity=80 time=0
EXTRACT: note_off channel=4 note=62 velocity=64 time=0.20833325
EXTRACT: note_off channel=0 note=62 velocity=64 time=0
EXTRACT: note_off channel=0 note=57 velocity=64 time=0
EXTRACT: note_off channel=0 note=50 velocity=64 time=0
EXTRACT: note_on channel=0 note=62 velocity=80 time=0
EXTRACT: note_on channel=0 note=57 velocity=80 time=0
EXTRACT: note_on channel=0 note=50 velocity=80 time=0
EXTRACT: note_off channel=2 note=38 velocity=64 time=0
EXTRACT: note_on channel=2 note=38 velocity=80 time=0
EXTRACT: note_off channel=6 note=69 velocity=64 time=0
EXTRACT: note_on channel=6 note=74 velocity=80 time=0
EXTRACT: note_on channel=4 note=64 velocity=80 time=0.4166665
EXTRACT: note_off channel=0 note=62 velocity=64 time=0
EXTRACT: note_off channel=0 note=57 velocity=64 time=0
EXTRACT: note_off channel=0 note=50 velocity=64 time=0
EXTRACT: note_on channel=0 note=62 velocity=80 time=0
EXTRACT: note_on channel=0 note=57 velocity=80 time=0
EXTRACT: note_on channel=0 note=50 velocity=80 time=0
EXTRACT: note_off channel=6 note=74 velocity=64 time=0
EXTRACT: note_on channel=6 note=69 velocity=80 time=0
EXTRACT: note_off channel=0 note=62 velocity=64 time=0.20833325
EXTRACT: note_off channel=0 note=57 velocity=64 time=0
EXTRACT: note_off channel=0 note=50 velocity=64 time=0
EXTRACT: note_on channel=0 note=62 velocity=80 time=0
EXTRACT: note_on channel=0 note=57 velocity=80 time=0
EXTRACT: note_on channel=0 note=50 velocity=80 time=0
EXTRACT: note_off channel=4 note=64 velocity=64 time=0.20833325
EXTRACT: note_on channel=4 note=64 velocity=80 time=0
EXTRACT: note_off channel=0 note=62 velocity=64 time=0
EXTRACT: note_off channel=0 note=57 velocity=64 time=0
EXTRACT: note_off channel=0 note=50 velocity=64 time=0
EXTRACT: note_on channel=0 note=62 velocity=80 time=0
EXTRACT: note_on channel=0 note=57 velocity=80 time=0
EXTRACT: note_on channel=0 note=50 velocity=80 time=0
EXTRACT: note_off channel=6 note=69 velocity=64 time=0
EXTRACT: note_on channel=6 note=66 velocity=80 time=0
EXTRACT: note_off channel=0 note=62 velocity=64 time=0.20833325
EXTRACT: note_off channel=0 note=57 velocity=64 time=0
EXTRACT: note_off channel=0 note=50 velocity=64 time=0
EXTRACT: note_on channel=0 note=62 velocity=80 time=0
EXTRACT: note_on channel=0 note=57 velocity=80 time=0
EXTRACT: note_on channel=0 note=50 velocity=80 time=0
EXTRACT: note_off channel=4 note=64 velocity=64 time=0.20833325
EXTRACT: note_off channel=0 note=62 velocity=64 time=0
EXTRACT: note_off channel=0 note=57 velocity=64 time=0
EXTRACT: note_off channel=0 note=50 velocity=64 time=0
EXTRACT: note_on channel=0 note=57 velocity=80 time=0
EXTRACT: note_on channel=0 note=52 velocity=80 time=0
EXTRACT: note_on channel=0 note=45 velocity=80 time=0
EXTRACT: note_off channel=2 note=38 velocity=64 time=0
EXTRACT: note_on channel=2 note=33 velocity=80 time=0
EXTRACT: note_off channel=6 note=66 velocity=64 time=0
EXTRACT: note_on channel=6 note=64 velocity=80 time=0
EXTRACT: note_on channel=6 note=61 velocity=80 time=0
EXTRACT: note_on channel=6 note=57 velocity=80 time=0
EXTRACT: note_on channel=4 note=71 velocity=80 time=0.4166665
EXTRACT: note_off channel=0 note=57 velocity=64 time=0
EXTRACT: note_off channel=0 note=52 velocity=64 time=0
EXTRACT: note_off channel=0 note=45 velocity=64 time=0
EXTRACT: note_on channel=0 note=57 velocity=80 time=0
EXTRACT: note_on channel=0 note=52 velocity=80 time=0
EXTRACT: note_on channel=0 note=45 velocity=80 time=0
EXTRACT: note_off channel=4 note=71 velocity=64 time=0.20833325
EXTRACT: note_on channel=4 note=71 velocity=80 time=0
EXTRACT: note_off channel=0 note=57 velocity=64 time=0
EXTRACT: note_off channel=0 note=52 velocity=64 time=0
EXTRACT: note_off channel=0 note=45 velocity=64 time=0
EXTRACT: note_on channel=0 note=57 velocity=80 time=0
EXTRACT: note_on channel=0 note=52 velocity=80 time=0
EXTRACT: note_on channel=0 note=45 velocity=80 time=0
EXTRACT: note_off channel=4 note=71 velocity=64 time=0.20833325
EXTRACT: note_on channel=4 note=71 velocity=80 time=0
EXTRACT: note_off channel=0 note=57 velocity=64 time=0
EXTRACT: note_off channel=0 note=52 velocity=64 time=0
EXTRACT: note_off channel=0 note=45 velocity=64 time=0
EXTRACT: note_on channel=0 note=57 velocity=80 time=0
EXTRACT: note_on channel=0 note=52 velocity=80 time=0
EXTRACT: note_on channel=0 note=45 velocity=80 time=0
EXTRACT: note_off channel=6 note=64 velocity=64 time=0
EXTRACT: note_off channel=6 note=61 velocity=64 time=0
EXTRACT: note_off channel=6 note=57 velocity=64 time=0
EXTRACT: note_on channel=6 note=57 velocity=80 time=0
EXTRACT: note_off channel=4 note=71 velocity=64 time=0.20833325
EXTRACT: note_on channel=4 note=71 velocity=80 time=0
EXTRACT: note_off channel=0 note=57 velocity=64 time=0
EXTRACT: note_off channel=0 note=52 velocity=64 time=0
EXTRACT: note_off channel=0 note=45 velocity=64 time=0
EXTRACT: note_on channel=0 note=57 velocity=80 time=0
EXTRACT: note_on channel=0 note=52 velocity=80 time=0
EXTRACT: note_on channel=0 note=45 velocity=80 time=0
EXTRACT: note_off channel=4 note=71 velocity=64 time=0.20833325
EXTRACT: note_on channel=4 note=71 velocity=80 time=0
EXTRACT: note_off channel=0 note=57 velocity=64 time=0
EXTRACT: note_off channel=0 note=52 velocity=64 time=0
EXTRACT: note_off channel=0 note=45 velocity=64 time=0
EXTRACT: note_on channel=0 note=59 velocity=80 time=0
EXTRACT: note_on channel=0 note=54 velocity=80 time=0
EXTRACT: note_on channel=0 note=47 velocity=80 time=0
EXTRACT: note_off channel=2 note=33 velocity=64 time=0
EXTRACT: note_on channel=2 note=35 velocity=80 time=0
EXTRACT: note_off channel=6 note=57 velocity=64 time=0
EXTRACT: note_on channel=6 note=66 velocity=80 time=0
EXTRACT: note_on channel=6 note=59 velocity=80 time=0
EXTRACT: note_on channel=6 note=62 velocity=80 time=0
EXTRACT: note_off channel=4 note=71 velocity=64 time=0.4166665
EXTRACT: note_on channel=4 note=69 velocity=80 time=0
EXTRACT: note_off channel=0 note=59 velocity=64 time=0
EXTRACT: note_off channel=0 note=54 velocity=64 time=0
EXTRACT: note_off channel=0 note=47 velocity=64 time=0
EXTRACT: note_on channel=0 note=59 velocity=80 time=0
EXTRACT: note_on channel=0 note=54 velocity=80 time=0
EXTRACT: note_on channel=0 note=47 velocity=80 time=0
EXTRACT: note_off channel=0 note=59 velocity=64 time=0.20833325
EXTRACT: note_off channel=0 note=54 velocity=64 time=0
EXTRACT: note_off channel=0 note=47 velocity=64 time=0
EXTRACT: note_on channel=0 note=59 velocity=80 time=0
EXTRACT: note_on channel=0 note=54 velocity=80 time=0
EXTRACT: note_on channel=0 note=47 velocity=80 time=0
EXTRACT: note_off channel=4 note=69 velocity=64 time=0.20833325
EXTRACT: note_on channel=4 note=68 velocity=80 time=0
EXTRACT: note_off channel=0 note=59 velocity=64 time=0
EXTRACT: note_off channel=0 note=54 velocity=64 time=0
EXTRACT: note_off channel=0 note=47 velocity=64 time=0
EXTRACT: note_on channel=0 note=59 velocity=80 time=0
EXTRACT: note_on channel=0 note=54 velocity=80 time=0
EXTRACT: note_on channel=0 note=47 velocity=80 time=0
EXTRACT: note_off channel=6 note=66 velocity=64 time=0
EXTRACT: note_off channel=6 note=59 velocity=64 time=0
EXTRACT: note_off channel=6 note=62 velocity=64 time=0
EXTRACT: note_on channel=6 note=59 velocity=80 time=0
EXTRACT: note_off channel=0 note=59 velocity=64 time=0.20833325
EXTRACT: note_off channel=0 note=54 velocity=64 time=0
EXTRACT: note_off channel=0 note=47 velocity=64 time=0
EXTRACT: note_on channel=0 note=59 velocity=80 time=0
EXTRACT: note_on channel=0 note=54 velocity=80 time=0
EXTRACT: note_on channel=0 note=47 velocity=80 time=0
EXTRACT: note_off channel=4 note=68 velocity=64 time=0.20833325
EXTRACT: note_on channel=4 note=69 velocity=80 time=0
EXTRACT: note_off channel=0 note=59 velocity=64 time=0
EXTRACT: note_off channel=0 note=54 velocity=64 time=0
EXTRACT: note_off channel=0 note=47 velocity=64 time=0
EXTRACT: note_on channel=0 note=62 velocity=80 time=0
EXTRACT: note_on channel=0 note=57 velocity=80 time=0
EXTRACT: note_on channel=0 note=50 velocity=80 time=0
EXTRACT: note_off channel=2 note=35 velocity=64 time=0
EXTRACT: note_on channel=2 note=38 velocity=80 time=0
EXTRACT: note_off channel=6 note=59 velocity=64 time=0
EXTRACT: note_on channel=6 note=66 velocity=80 time=0
EXTRACT: note_on channel=6 note=62 velocity=80 time=0
EXTRACT: note_on channel=6 note=69 velocity=80 time=0
EXTRACT: note_off channel=4 note=69 velocity=64 time=0.4166665
EXTRACT: note_on channel=4 note=68 velocity=80 time=0
EXTRACT: note_off channel=0 note=62 velocity=64 time=0
EXTRACT: note_off channel=0 note=57 velocity=64 time=0
EXTRACT: note_off channel=0 note=50 velocity=64 time=0
EXTRACT: note_on channel=0 note=62 velocity=80 time=0
EXTRACT: note_on channel=0 note=57 velocity=80 time=0
EXTRACT: note_on channel=0 note=50 velocity=80 time=0
EXTRACT: note_off channel=0 note=62 velocity=64 time=0.20833325
EXTRACT: note_off channel=0 note=57 velocity=64 time=0
EXTRACT: note_off channel=0 note=50 velocity=64 time=0
EXTRACT: note_on channel=0 note=62 velocity=80 time=0
EXTRACT: note_on channel=0 note=57 velocity=80 time=0
EXTRACT: note_on channel=0 note=50 velocity=80 time=0
EXTRACT: note_off channel=4 note=68 velocity=64 time=0.20833325
EXTRACT: note_on channel=4 note=66 velocity=80 time=0
EXTRACT: note_off channel=0 note=62 velocity=64 time=0
EXTRACT: note_off channel=0 note=57 velocity=64 time=0
EXTRACT: note_off channel=0 note=50 velocity=64 time=0
EXTRACT: note_on channel=0 note=62 velocity=80 time=0
EXTRACT: note_on channel=0 note=57 velocity=80 time=0
EXTRACT: note_on channel=0 note=50 velocity=80 time=0
EXTRACT: note_off channel=6 note=66 velocity=64 time=0
EXTRACT: note_off channel=6 note=62 velocity=64 time=0
EXTRACT: note_off channel=6 note=69 velocity=64 time=0
EXTRACT: note_on channel=6 note=66 velocity=80 time=0
EXTRACT: note_off channel=0 note=62 velocity=64 time=0.20833325
EXTRACT: note_off channel=0 note=57 velocity=64 time=0
EXTRACT: note_off channel=0 note=50 velocity=64 time=0
EXTRACT: note_on channel=0 note=62 velocity=80 time=0
EXTRACT: note_on channel=0 note=57 velocity=80 time=0
EXTRACT: note_on channel=0 note=50 velocity=80 time=0
EXTRACT: note_off channel=6 note=66 velocity=64 time=0
EXTRACT: note_on channel=6 note=69 velocity=80 time=0
EXTRACT: note_off channel=4 note=66 velocity=64 time=0.20833325
EXTRACT: note_off channel=0 note=62 velocity=64 time=0
EXTRACT: note_off channel=0 note=57 velocity=64 time=0
EXTRACT: note_off channel=0 note=50 velocity=64 time=0
EXTRACT: note_on channel=0 note=62 velocity=80 time=0
EXTRACT: note_on channel=0 note=57 velocity=80 time=0
EXTRACT: note_on channel=0 note=50 velocity=80 time=0
EXTRACT: note_off channel=2 note=38 velocity=64 time=0
EXTRACT: note_on channel=2 note=38 velocity=80 time=0
EXTRACT: note_off channel=6 note=69 velocity=64 time=0
EXTRACT: note_on channel=6 note=74 velocity=80 time=0
EXTRACT: note_off channel=0 note=62 velocity=64 time=0.4166665
EXTRACT: note_off channel=0 note=57 velocity=64 time=0
EXTRACT: note_off channel=0 note=50 velocity=64 time=0
EXTRACT: note_on channel=0 note=62 velocity=80 time=0
EXTRACT: note_on channel=0 note=57 velocity=80 time=0
EXTRACT: note_on channel=0 note=50 velocity=80 time=0
EXTRACT: note_off channel=6 note=74 velocity=64 time=0
EXTRACT: note_on channel=6 note=69 velocity=80 time=0
EXTRACT: note_off channel=0 note=62 velocity=64 time=0.20833325
EXTRACT: note_off channel=0 note=57 velocity=64 time=0
EXTRACT: note_off channel=0 note=50 velocity=64 time=0
EXTRACT: note_on channel=0 note=62 velocity=80 time=0
EXTRACT: note_on channel=0 note=57 velocity=80 time=0
EXTRACT: note_on channel=0 note=50 velocity=80 time=0
EXTRACT: note_on channel=4 note=66 velocity=80 time=0.20833325
EXTRACT: note_off channel=0 note=62 velocity=64 time=0
EXTRACT: note_off channel=0 note=57 velocity=64 time=0
EXTRACT: note_off channel=0 note=50 velocity=64 time=0
EXTRACT: note_on channel=0 note=62 velocity=80 time=0
EXTRACT: note_on channel=0 note=57 velocity=80 time=0
EXTRACT: note_on channel=0 note=50 velocity=80 time=0
EXTRACT: note_off channel=6 note=69 velocity=64 time=0
EXTRACT: note_on channel=6 note=66 velocity=80 time=0
EXTRACT: note_off channel=4 note=66 velocity=64 time=0.20833325
EXTRACT: note_on channel=4 note=68 velocity=80 time=0
EXTRACT: note_off channel=0 note=62 velocity=64 time=0
EXTRACT: note_off channel=0 note=57 velocity=64 time=0
EXTRACT: note_off channel=0 note=50 velocity=64 time=0
EXTRACT: note_on channel=0 note=62 velocity=80 time=0
EXTRACT: note_on channel=0 note=57 velocity=80 time=0
EXTRACT: note_on channel=0 note=50 velocity=80 time=0
EXTRACT: note_off channel=4 note=68 velocity=64 time=0.20833325
EXTRACT: note_on channel=4 note=69 velocity=80 time=0
EXTRACT: note_off channel=0 note=62 velocity=64 time=0
EXTRACT: note_off channel=0 note=57 velocity=64 time=0
EXTRACT: note_off channel=0 note=50 velocity=64 time=0
EXTRACT: note_on channel=0 note=54 velocity=80 time=0
EXTRACT: note_on channel=0 note=49 velocity=80 time=0
EXTRACT: note_on channel=0 note=42 velocity=80 time=0
EXTRACT: note_off channel=2 note=38 velocity=64 time=0
EXTRACT: note_on channel=2 note=30 velocity=80 time=0
EXTRACT: note_off channel=6 note=66 velocity=64 time=0
EXTRACT: note_on channel=6 note=73 velocity=80 time=0
EXTRACT: note_on channel=6 note=69 velocity=80 time=0
EXTRACT: note_on channel=6 note=66 velocity=80 time=0
EXTRACT: note_off channel=4 note=69 velocity=64 time=0.4166665
EXTRACT: note_on channel=4 note=68 velocity=80 time=0
EXTRACT: note_off channel=0 note=54 velocity=64 time=0
EXTRACT: note_off channel=0 note=49 velocity=64 time=0
EXTRACT: note_off channel=0 note=42 velocity=64 time=0
EXTRACT: note_on channel=0 note=54 velocity=80 time=0
EXTRACT: note_on channel=0 note=49 velocity=80 time=0
EXTRACT: note_on channel=0 note=42 velocity=80 time=0
EXTRACT: note_off channel=0 note=54 velocity=64 time=0.20833325
EXTRACT: note_off channel=0 note=49 velocity=64 time=0
EXTRACT: note_off channel=0 note=42 velocity=64 time=0
EXTRACT: note_on channel=0 note=54 velocity=80 time=0
EXTRACT: note_on channel=0 note=49 velocity=80 time=0
EXTRACT: note_on channel=0 note=42 velocity=80 time=0
EXTRACT: note_off channel=0 note=54 velocity=64 time=0.20833325
EXTRACT: note_off channel=0 note=49 velocity=64 time=0
EXTRACT: note_off channel=0 note=42 velocity=64 time=0
EXTRACT: note_on channel=0 note=54 velocity=80 time=0
EXTRACT: note_on channel=0 note=49 velocity=80 time=0
EXTRACT: note_on channel=0 note=42 velocity=80 time=0
EXTRACT: note_off channel=6 note=73 velocity=64 time=0
EXTRACT: note_off channel=6 note=69 velocity=64 time=0
EXTRACT: note_off channel=6 note=66 velocity=64 time=0
EXTRACT: note_on channel=6 note=66 velocity=80 time=0
EXTRACT: note_off channel=4 note=68 velocity=64 time=0.20833325
EXTRACT: note_on channel=4 note=66 velocity=80 time=0
EXTRACT: note_off channel=0 note=54 velocity=64 time=0
EXTRACT: note_off channel=0 note=49 velocity=64 time=0
EXTRACT: note_off channel=0 note=42 velocity=64 time=0
EXTRACT: note_on channel=0 note=54 velocity=80 time=0
EXTRACT: note_on channel=0 note=49 velocity=80 time=0
EXTRACT: note_on channel=0 note=42 velocity=80 time=0
EXTRACT: note_off channel=4 note=66 velocity=64 time=0.20833325
EXTRACT: note_on channel=4 note=64 velocity=80 time=0
EXTRACT: note_off channel=0 note=54 velocity=64 time=0
EXTRACT: note_off channel=0 note=49 velocity=64 time=0
EXTRACT: note_off channel=0 note=42 velocity=64 time=0
EXTRACT: note_on channel=0 note=64 velocity=80 time=0
EXTRACT: note_on channel=0 note=59 velocity=80 time=0
EXTRACT: note_on channel=0 note=52 velocity=80 time=0
EXTRACT: note_off channel=2 note=30 velocity=64 time=0
EXTRACT: note_on channel=2 note=40 velocity=80 time=0
EXTRACT: note_off channel=6 note=66 velocity=64 time=0
EXTRACT: note_on channel=6 note=64 velocity=80 time=0
EXTRACT: note_on channel=6 note=68 velocity=80 time=0
EXTRACT: note_on channel=6 note=71 velocity=80 time=0
EXTRACT: note_off channel=0 note=64 velocity=64 time=0.4166665
EXTRACT: note_off channel=0 note=59 velocity=64 time=0
EXTRACT: note_off channel=0 note=52 velocity=64 time=0
EXTRACT: note_on channel=0 note=64 velocity=80 time=0
EXTRACT: note_on channel=0 note=59 velocity=80 time=0
EXTRACT: note_on channel=0 note=52 velocity=80 time=0
EXTRACT: note_off channel=0 note=64 velocity=64 time=0.20833325
EXTRACT: note_off channel=0 note=59 velocity=64 time=0
EXTRACT: note_off channel=0 note=52 velocity=64 time=0
EXTRACT: note_on channel=0 note=64 velocity=80 time=0
EXTRACT: note_on channel=0 note=59 velocity=80 time=0
EXTRACT: note_on channel=0 note=52 velocity=80 time=0
EXTRACT: note_off channel=4 note=64 velocity=64 time=0.20833325
EXTRACT: note_on channel=4 note=68 velocity=80 time=0
EXTRACT: note_off channel=0 note=64 velocity=64 time=0
EXTRACT: note_off channel=0 note=59 velocity=64 time=0
EXTRACT: note_off channel=0 note=52 velocity=64 time=0
EXTRACT: note_on channel=0 note=64 velocity=80 time=0
EXTRACT: note_on channel=0 note=59 velocity=80 time=0
EXTRACT: note_on channel=0 note=52 velocity=80 time=0
EXTRACT: note_off channel=6 note=64 velocity=64 time=0
EXTRACT: note_off channel=6 note=68 velocity=64 time=0
EXTRACT: note_off channel=6 note=71 velocity=64 time=0
EXTRACT: note_on channel=6 note=64 velocity=80 time=0
EXTRACT: note_off channel=0 note=64 velocity=64 time=0.20833325
EXTRACT: note_off channel=0 note=59 velocity=64 time=0
EXTRACT: note_off channel=0 note=52 velocity=64 time=0
EXTRACT: note_on channel=0 note=64 velocity=80 time=0
EXTRACT: note_on channel=0 note=59 velocity=80 time=0
EXTRACT: note_on channel=0 note=52 velocity=80 time=0
EXTRACT: note_off channel=4 note=68 velocity=64 time=0.20833325
EXTRACT: note_on channel=4 note=66 velocity=80 time=0
EXTRACT: note_off channel=0 note=64 velocity=64 time=0
EXTRACT: note_off channel=0 note=59 velocity=64 time=0
EXTRACT: note_off channel=0 note=52 velocity=64 time=0
EXTRACT: note_on channel=0 note=62 velocity=80 time=0
EXTRACT: note_on channel=0 note=57 velocity=80 time=0
EXTRACT: note_on channel=0 note=50 velocity=80 time=0
EXTRACT: note_off channel=2 note=40 velocity=64 time=0
EXTRACT: note_on channel=2 note=38 velocity=80 time=0
EXTRACT: note_off channel=6 note=64 velocity=64 time=0
EXTRACT: note_on channel=6 note=66 velocity=80 time=0
EXTRACT: note_on channel=6 note=62 velocity=80 time=0
EXTRACT: note_on channel=6 note=69 velocity=80 time=0
EXTRACT: note_off channel=0 note=62 velocity=64 time=0.4166665
EXTRACT: note_off channel=0 note=57 velocity=64 time=0
EXTRACT: note_off channel=0 note=50 velocity=64 time=0
EXTRACT: note_on channel=0 note=62 velocity=80 time=0
EXTRACT: note_on channel=0 note=57 velocity=80 time=0
EXTRACT: note_on channel=0 note=50 velocity=80 time=0
EXTRACT: note_off channel=0 note=62 velocity=64 time=0.20833325
EXTRACT: note_off channel=0 note=57 velocity=64 time=0
EXTRACT: note_off channel=0 note=50 velocity=64 time=0
EXTRACT: note_on channel=0 note=62 velocity=80 time=0
EXTRACT: note_on channel=0 note=57 velocity=80 time=0
EXTRACT: note_on channel=0 note=50 velocity=80 time=0
EXTRACT: note_off channel=0 note=62 velocity=64 time=0.20833325
EXTRACT: note_off channel=0 note=57 velocity=64 time=0
EXTRACT: note_off channel=0 note=50 velocity=64 time=0
EXTRACT: note_on channel=0 note=62 velocity=80 time=0
EXTRACT: note_on channel=0 note=57 velocity=80 time=0
EXTRACT: note_on channel=0 note=50 velocity=80 time=0
EXTRACT: note_off channel=6 note=66 velocity=64 time=0
EXTRACT: note_off channel=6 note=62 velocity=64 time=0
EXTRACT: note_off channel=6 note=69 velocity=64 time=0
EXTRACT: note_on channel=6 note=66 velocity=80 time=0
EXTRACT: note_off channel=0 note=62 velocity=64 time=0.20833325
EXTRACT: note_off channel=0 note=57 velocity=64 time=0
EXTRACT: note_off channel=0 note=50 velocity=64 time=0
EXTRACT: note_on channel=0 note=62 velocity=80 time=0
EXTRACT: note_on channel=0 note=57 velocity=80 time=0
EXTRACT: note_on channel=0 note=50 velocity=80 time=0
EXTRACT: note_off channel=6 note=66 velocity=64 time=0
EXTRACT: note_on channel=6 note=69 velocity=80 time=0
EXTRACT: note_off channel=4 note=66 velocity=64 time=0.20833325
EXTRACT: note_off channel=0 note=62 velocity=64 time=0
EXTRACT: note_off channel=0 note=57 velocity=64 time=0
EXTRACT: note_off channel=0 note=50 velocity=64 time=0
EXTRACT: note_on channel=0 note=62 velocity=80 time=0
EXTRACT: note_on channel=0 note=57 velocity=80 time=0
EXTRACT: note_on channel=0 note=50 velocity=80 time=0
EXTRACT: note_off channel=2 note=38 velocity=64 time=0
EXTRACT: note_on channel=2 note=38 velocity=80 time=0
EXTRACT: note_off channel=6 note=69 velocity=64 time=0
EXTRACT: note_on channel=6 note=74 velocity=80 time=0
EXTRACT: note_on channel=4 note=57 velocity=80 time=0.4166665
EXTRACT: note_off channel=0 note=62 velocity=64 time=0
EXTRACT: note_off channel=0 note=57 velocity=64 time=0
EXTRACT: note_off channel=0 note=50 velocity=64 time=0
EXTRACT: note_on channel=0 note=62 velocity=80 time=0
EXTRACT: note_on channel=0 note=57 velocity=80 time=0
EXTRACT: note_on channel=0 note=50 velocity=80 time=0
EXTRACT: note_off channel=0 note=62 velocity=64 time=0.20833325
EXTRACT: note_off channel=0 note=57 velocity=64 time=0
EXTRACT: note_off channel=0 note=50 velocity=64 time=0
EXTRACT: note_on channel=0 note=62 velocity=80 time=0
EXTRACT: note_on channel=0 note=57 velocity=80 time=0
EXTRACT: note_on channel=0 note=50 velocity=80 time=0
EXTRACT: note_off channel=4 note=57 velocity=64 time=0.20833325
EXTRACT: note_on channel=4 note=59 velocity=80 time=0
EXTRACT: note_off channel=0 note=62 velocity=64 time=0
EXTRACT: note_off channel=0 note=57 velocity=64 time=0
EXTRACT: note_off channel=0 note=50 velocity=64 time=0
EXTRACT: note_on channel=0 note=62 velocity=80 time=0
EXTRACT: note_on channel=0 note=57 velocity=80 time=0
EXTRACT: note_on channel=0 note=50 velocity=80 time=0
EXTRACT: note_off channel=0 note=62 velocity=64 time=0.20833325
EXTRACT: note_off channel=0 note=57 velocity=64 time=0
EXTRACT: note_off channel=0 note=50 velocity=64 time=0
EXTRACT: note_on channel=0 note=62 velocity=80 time=0
EXTRACT: note_on channel=0 note=57 velocity=80 time=0
EXTRACT: note_on channel=0 note=50 velocity=80 time=0
EXTRACT: note_off channel=4 note=59 velocity=64 time=0.20833325
EXTRACT: note_on channel=4 note=61 velocity=80 time=0
EXTRACT: note_off channel=0 note=62 velocity=64 time=0
EXTRACT: note_off channel=0 note=57 velocity=64 time=0
EXTRACT: note_off channel=0 note=50 velocity=64 time=0
EXTRACT: note_on channel=0 note=54 velocity=80 time=0
EXTRACT: note_on channel=0 note=49 velocity=80 time=0
EXTRACT: note_on channel=0 note=42 velocity=80 time=0
EXTRACT: note_off channel=2 note=38 velocity=64 time=0
EXTRACT: note_on channel=2 note=30 velocity=80 time=0
EXTRACT: note_off channel=6 note=74 velocity=64 time=0
EXTRACT: note_on channel=6 note=61 velocity=80 time=0
EXTRACT: note_on channel=6 note=57 velocity=80 time=0
EXTRACT: note_on channel=6 note=54 velocity=80 time=0
EXTRACT: note_off channel=0 note=54 velocity=64 time=0.4166665
EXTRACT: note_off channel=0 note=49 velocity=64 time=0
EXTRACT: note_off channel=0 note=42 velocity=64 time=0
EXTRACT: note_on channel=0 note=54 velocity=80 time=0
EXTRACT: note_on channel=0 note=49 velocity=80 time=0
EXTRACT: note_on channel=0 note=42 velocity=80 time=0
EXTRACT: note_off channel=0 note=54 velocity=64 time=0.20833325
EXTRACT: note_off channel=0 note=49 velocity=64 time=0
EXTRACT: note_off channel=0 note=42 velocity=64 time=0
EXTRACT: note_on channel=0 note=54 velocity=80 time=0
EXTRACT: note_on channel=0 note=49 velocity=80 time=0
EXTRACT: note_on channel=0 note=42 velocity=80 time=0
EXTRACT: note_off channel=0 note=54 velocity=64 time=0.20833325
EXTRACT: note_off channel=0 note=49 velocity=64 time=0
EXTRACT: note_off channel=0 note=42 velocity=64 time=0
EXTRACT: note_on channel=0 note=54 velocity=80 time=0
EXTRACT: note_on channel=0 note=49 velocity=80 time=0
EXTRACT: note_on channel=0 note=42 velocity=80 time=0
EXTRACT: note_off channel=6 note=61 velocity=64 time=0
EXTRACT: note_off channel=6 note=57 velocity=64 time=0
EXTRACT: note_off channel=6 note=54 velocity=64 time=0
EXTRACT: note_off channel=0 note=54 velocity=64 time=0.20833325
EXTRACT: note_off channel=0 note=49 velocity=64 time=0
EXTRACT: note_off channel=0 note=42 velocity=64 time=0
EXTRACT: note_on channel=0 note=54 velocity=80 time=0
EXTRACT: note_on channel=0 note=49 velocity=80 time=0
EXTRACT: note_on channel=0 note=42 velocity=80 time=0
EXTRACT: note_on channel=6 note=57 velocity=80 time=0
EXTRACT: note_off channel=0 note=54 velocity=64 time=0.20833325
EXTRACT: note_off channel=0 note=49 velocity=64 time=0
EXTRACT: note_off channel=0 note=42 velocity=64 time=0
EXTRACT: note_on channel=0 note=54 velocity=80 time=0
EXTRACT: note_on channel=0 note=49 velocity=80 time=0
EXTRACT: note_on channel=0 note=42 velocity=80 time=0
EXTRACT: note_off channel=2 note=30 velocity=64 time=0
EXTRACT: note_on channel=2 note=30 velocity=80 time=0
EXTRACT: note_off channel=6 note=57 velocity=64 time=0
EXTRACT: note_on channel=6 note=61 velocity=80 time=0
EXTRACT: note_off channel=0 note=54 velocity=64 time=0.4166665
EXTRACT: note_off channel=0 note=49 velocity=64 time=0
EXTRACT: note_off channel=0 note=42 velocity=64 time=0
EXTRACT: note_on channel=0 note=54 velocity=80 time=0
EXTRACT: note_on channel=0 note=49 velocity=80 time=0
EXTRACT: note_on channel=0 note=42 velocity=80 time=0
EXTRACT: note_off channel=6 note=61 velocity=64 time=0
EXTRACT: note_on channel=6 note=57 velocity=80 time=0
EXTRACT: note_off channel=0 note=54 velocity=64 time=0.20833325
EXTRACT: note_off channel=0 note=49 velocity=64 time=0
EXTRACT: note_off channel=0 note=42 velocity=64 time=0
EXTRACT: note_on channel=0 note=54 velocity=80 time=0
EXTRACT: note_on channel=0 note=49 velocity=80 time=0
EXTRACT: note_on channel=0 note=42 velocity=80 time=0
EXTRACT: note_off channel=0 note=54 velocity=64 time=0.20833325
EXTRACT: note_off channel=0 note=49 velocity=64 time=0
EXTRACT: note_off channel=0 note=42 velocity=64 time=0
EXTRACT: note_on channel=0 note=54 velocity=80 time=0
EXTRACT: note_on channel=0 note=49 velocity=80 time=0
EXTRACT: note_on channel=0 note=42 velocity=80 time=0
EXTRACT: note_off channel=6 note=57 velocity=64 time=0
EXTRACT: note_on channel=6 note=54 velocity=80 time=0
EXTRACT: note_off channel=0 note=54 velocity=64 time=0.20833325
EXTRACT: note_off channel=0 note=49 velocity=64 time=0
EXTRACT: note_off channel=0 note=42 velocity=64 time=0
EXTRACT: note_on channel=0 note=54 velocity=80 time=0
EXTRACT: note_on channel=0 note=49 velocity=80 time=0
EXTRACT: note_on channel=0 note=42 velocity=80 time=0
EXTRACT: note_off channel=4 note=61 velocity=64 time=0.20833325
EXTRACT: note_off channel=0 note=54 velocity=64 time=0
EXTRACT: note_off channel=0 note=49 velocity=64 time=0
EXTRACT: note_off channel=0 note=42 velocity=64 time=0
EXTRACT: note_on channel=0 note=62 velocity=80 time=0
EXTRACT: note_on channel=0 note=57 velocity=80 time=0
EXTRACT: note_on channel=0 note=50 velocity=80 time=0
EXTRACT: note_off channel=2 note=30 velocity=64 time=0
EXTRACT: note_on channel=2 note=38 velocity=80 time=0
EXTRACT: note_off channel=6 note=54 velocity=64 time=0
EXTRACT: note_on channel=6 note=57 velocity=80 time=0
EXTRACT: note_on channel=6 note=54 velocity=80 time=0
EXTRACT: note_on channel=6 note=50 velocity=80 time=0
EXTRACT: note_off channel=0 note=62 velocity=64 time=0.4166665
EXTRACT: note_off channel=0 note=57 velocity=64 time=0
EXTRACT: note_off channel=0 note=50 velocity=64 time=0
EXTRACT: note_on channel=0 note=62 velocity=80 time=0
EXTRACT: note_on channel=0 note=57 velocity=80 time=0
EXTRACT: note_on channel=0 note=50 velocity=80 time=0
EXTRACT: note_off channel=0 note=62 velocity=64 time=0.20833325
EXTRACT: note_off channel=0 note=57 velocity=64 time=0
EXTRACT: note_off channel=0 note=50 velocity=64 time=0
EXTRACT: note_on channel=0 note=62 velocity=80 time=0
EXTRACT: note_on channel=0 note=57 velocity=80 time=0
EXTRACT: note_on channel=0 note=50 velocity=80 time=0
EXTRACT: note_off channel=0 note=62 velocity=64 time=0.20833325
EXTRACT: note_off channel=0 note=57 velocity=64 time=0
EXTRACT: note_off channel=0 note=50 velocity=64 time=0
EXTRACT: note_on channel=0 note=62 velocity=80 time=0
EXTRACT: note_on channel=0 note=57 velocity=80 time=0
EXTRACT: note_on channel=0 note=50 velocity=80 time=0
EXTRACT: note_off channel=6 note=57 velocity=64 time=0
EXTRACT: note_off channel=6 note=54 velocity=64 time=0
EXTRACT: note_off channel=6 note=50 velocity=64 time=0
EXTRACT: note_off channel=0 note=62 velocity=64 time=0.20833325
EXTRACT: note_off channel=0 note=57 velocity=64 time=0
EXTRACT: note_off channel=0 note=50 velocity=64 time=0
EXTRACT: note_on channel=0 note=62 velocity=80 time=0
EXTRACT: note_on channel=0 note=57 velocity=80 time=0
EXTRACT: note_on channel=0 note=50 velocity=80 time=0
EXTRACT: note_on channel=6 note=57 velocity=80 time=0
EXTRACT: note_off channel=0 note=62 velocity=64 time=0.20833325
EXTRACT: note_off channel=0 note=57 velocity=64 time=0
EXTRACT: note_off channel=0 note=50 velocity=64 time=0
EXTRACT: note_on channel=0 note=62 velocity=80 time=0
EXTRACT: note_on channel=0 note=57 velocity=80 time=0
EXTRACT: note_on channel=0 note=50 velocity=80 time=0
EXTRACT: note_off channel=2 note=38 velocity=64 time=0
EXTRACT: note_on channel=2 note=38 velocity=80 time=0
EXTRACT: note_off channel=6 note=57 velocity=64 time=0
EXTRACT: note_on channel=6 note=61 velocity=80 time=0
EXTRACT: note_on channel=4 note=64 velocity=80 time=0.4166665
EXTRACT: note_off channel=0 note=62 velocity=64 time=0
EXTRACT: note_off channel=0 note=57 velocity=64 time=0
EXTRACT: note_off channel=0 note=50 velocity=64 time=0
EXTRACT: note_on channel=0 note=62 velocity=80 time=0
EXTRACT: note_on channel=0 note=57 velocity=80 time=0
EXTRACT: note_on channel=0 note=50 velocity=80 time=0
EXTRACT: note_off channel=6 note=61 velocity=64 time=0
EXTRACT: note_on channel=6 note=57 velocity=80 time=0
EXTRACT: note_off channel=0 note=62 velocity=64 time=0.20833325
EXTRACT: note_off channel=0 note=57 velocity=64 time=0
EXTRACT: note_off channel=0 note=50 velocity=64 time=0
EXTRACT: note_on channel=0 note=62 velocity=80 time=0
EXTRACT: note_on channel=0 note=57 velocity=80 time=0
EXTRACT: note_on channel=0 note=50 velocity=80 time=0
EXTRACT: note_off channel=4 note=64 velocity=64 time=0.20833325
EXTRACT: note_on channel=4 note=64 velocity=80 time=0
EXTRACT: note_off channel=0 note=62 velocity=64 time=0
EXTRACT: note_off channel=0 note=57 velocity=64 time=0
EXTRACT: note_off channel=0 note=50 velocity=64 time=0
EXTRACT: note_on channel=0 note=62 velocity=80 time=0
EXTRACT: note_on channel=0 note=57 velocity=80 time=0
EXTRACT: note_on channel=0 note=50 velocity=80 time=0
EXTRACT: note_off channel=6 note=57 velocity=64 time=0
EXTRACT: note_on channel=6 note=54 velocity=80 time=0
EXTRACT: note_off channel=0 note=62 velocity=64 time=0.20833325
EXTRACT: note_off channel=0 note=57 velocity=64 time=0
EXTRACT: note_off channel=0 note=50 velocity=64 time=0
EXTRACT: note_on channel=0 note=62 velocity=80 time=0
EXTRACT: note_on channel=0 note=57 velocity=80 time=0
EXTRACT: note_on channel=0 note=50 velocity=80 time=0
EXTRACT: note_off channel=4 note=64 velocity=64 time=0.20833325
EXTRACT: note_on channel=4 note=64 velocity=80 time=0
EXTRACT: note_off channel=0 note=62 velocity=64 time=0
EXTRACT: note_off channel=0 note=57 velocity=64 time=0
EXTRACT: note_off channel=0 note=50 velocity=64 time=0
EXTRACT: note_on channel=0 note=54 velocity=80 time=0
EXTRACT: note_on channel=0 note=49 velocity=80 time=0
EXTRACT: note_on channel=0 note=42 velocity=80 time=0
EXTRACT: note_off channel=2 note=38 velocity=64 time=0
EXTRACT: note_on channel=2 note=30 velocity=80 time=0
EXTRACT: note_off channel=6 note=54 velocity=64 time=0
EXTRACT: note_on channel=6 note=61 velocity=80 time=0
EXTRACT: note_on channel=6 note=57 velocity=80 time=0
EXTRACT: note_on channel=6 note=54 velocity=80 time=0
EXTRACT: note_off channel=4 note=64 velocity=64 time=0.20833325
EXTRACT: note_on channel=4 note=61 velocity=80 time=0
EXTRACT: note_off channel=4 note=61 velocity=64 time=0.20833325
EXTRACT: note_off channel=0 note=54 velocity=64 time=0
EXTRACT: note_off channel=0 note=49 velocity=64 time=0
EXTRACT: note_off channel=0 note=42 velocity=64 time=0
EXTRACT: note_on channel=0 note=54 velocity=80 time=0
EXTRACT: note_on channel=0 note=49 velocity=80 time=0
EXTRACT: note_on channel=0 note=42 velocity=80 time=0
EXTRACT: note_off channel=0 note=54 velocity=64 time=0.20833325
EXTRACT: note_off channel=0 note=49 velocity=64 time=0
EXTRACT: note_off channel=0 note=42 velocity=64 time=0
EXTRACT: note_on channel=0 note=54 velocity=80 time=0
EXTRACT: note_on channel=0 note=49 velocity=80 time=0
EXTRACT: note_on channel=0 note=42 velocity=80 time=0
EXTRACT: note_off channel=0 note=54 velocity=64 time=0.20833325
EXTRACT: note_off channel=0 note=49 velocity=64 time=0
EXTRACT: note_off channel=0 note=42 velocity=64 time=0
EXTRACT: note_on channel=0 note=54 velocity=80 time=0
EXTRACT: note_on channel=0 note=49 velocity=80 time=0
EXTRACT: note_on channel=0 note=42 velocity=80 time=0
EXTRACT: note_off channel=6 note=61 velocity=64 time=0
EXTRACT: note_off channel=6 note=57 velocity=64 time=0
EXTRACT: note_off channel=6 note=54 velocity=64 time=0
EXTRACT: note_off channel=0 note=54 velocity=64 time=0.20833325
EXTRACT: note_off channel=0 note=49 velocity=64 time=0
EXTRACT: note_off channel=0 note=42 velocity=64 time=0
EXTRACT: note_on channel=0 note=54 velocity=80 time=0
EXTRACT: note_on channel=0 note=49 velocity=80 time=0
EXTRACT: note_on channel=0 note=42 velocity=80 time=0
EXTRACT: note_on channel=6 note=57 velocity=80 time=0
EXTRACT: note_off channel=0 note=54 velocity=64 time=0.20833325
EXTRACT: note_off channel=0 note=49 velocity=64 time=0
EXTRACT: note_off channel=0 note=42 velocity=64 time=0
EXTRACT: note_on channel=0 note=54 velocity=80 time=0
EXTRACT: note_on channel=0 note=49 velocity=80 time=0
EXTRACT: note_on channel=0 note=42 velocity=80 time=0
EXTRACT: note_off channel=2 note=30 velocity=64 time=0
EXTRACT: note_on channel=2 note=30 velocity=80 time=0
EXTRACT: note_off channel=6 note=57 velocity=64 time=0
EXTRACT: note_on channel=6 note=61 velocity=80 time=0
EXTRACT: note_off channel=0 note=54 velocity=64 time=0.4166665
EXTRACT: note_off channel=0 note=49 velocity=64 time=0
EXTRACT: note_off channel=0 note=42 velocity=64 time=0
EXTRACT: note_on channel=0 note=54 velocity=80 time=0
EXTRACT: note_on channel=0 note=49 velocity=80 time=0
EXTRACT: note_on channel=0 note=42 velocity=80 time=0
EXTRACT: note_off channel=6 note=61 velocity=64 time=0
EXTRACT: note_on channel=6 note=57 velocity=80 time=0
EXTRACT: note_off channel=0 note=54 velocity=64 time=0.20833325
EXTRACT: note_off channel=0 note=49 velocity=64 time=0
EXTRACT: note_off channel=0 note=42 velocity=64 time=0
EXTRACT: note_on channel=0 note=54 velocity=80 time=0
EXTRACT: note_on channel=0 note=49 velocity=80 time=0
EXTRACT: note_on channel=0 note=42 velocity=80 time=0
EXTRACT: note_off channel=0 note=54 velocity=64 time=0.20833325
EXTRACT: note_off channel=0 note=49 velocity=64 time=0
EXTRACT: note_off channel=0 note=42 velocity=64 time=0
EXTRACT: note_on channel=0 note=54 velocity=80 time=0
EXTRACT: note_on channel=0 note=49 velocity=80 time=0
EXTRACT: note_on channel=0 note=42 velocity=80 time=0
EXTRACT: note_off channel=6 note=57 velocity=64 time=0
EXTRACT: note_on channel=6 note=54 velocity=80 time=0
EXTRACT: note_off channel=0 note=54 velocity=64 time=0.20833325
EXTRACT: note_off channel=0 note=49 velocity=64 time=0
EXTRACT: note_off channel=0 note=42 velocity=64 time=0
EXTRACT: note_on channel=0 note=54 velocity=80 time=0
EXTRACT: note_on channel=0 note=49 velocity=80 time=0
EXTRACT: note_on channel=0 note=42 velocity=80 time=0
EXTRACT: note_off channel=0 note=54 velocity=64 time=0.20833325
EXTRACT: note_off channel=0 note=49 velocity=64 time=0
EXTRACT: note_off channel=0 note=42 velocity=64 time=0
EXTRACT: note_on channel=0 note=62 velocity=80 time=0
EXTRACT: note_on channel=0 note=57 velocity=80 time=0
EXTRACT: note_on channel=0 note=50 velocity=80 time=0
EXTRACT: note_off channel=2 note=30 velocity=64 time=0
EXTRACT: note_on channel=2 note=38 velocity=80 time=0
EXTRACT: note_off channel=6 note=54 velocity=64 time=0
EXTRACT: note_on channel=6 note=57 velocity=80 time=0
EXTRACT: note_on channel=6 note=54 velocity=80 time=0
EXTRACT: note_on channel=6 note=50 velocity=80 time=0
EXTRACT: note_off channel=0 note=62 velocity=64 time=0.4166665
EXTRACT: note_off channel=0 note=57 velocity=64 time=0
EXTRACT: note_off channel=0 note=50 velocity=64 time=0
EXTRACT: note_on channel=0 note=62 velocity=80 time=0
EXTRACT: note_on channel=0 note=57 velocity=80 time=0
EXTRACT: note_on channel=0 note=50 velocity=80 time=0
EXTRACT: note_off channel=0 note=62 velocity=64 time=0.20833325
EXTRACT: note_off channel=0 note=57 velocity=64 time=0
EXTRACT: note_off channel=0 note=50 velocity=64 time=0
EXTRACT: note_on channel=0 note=62 velocity=80 time=0
EXTRACT: note_on channel=0 note=57 velocity=80 time=0
EXTRACT: note_on channel=0 note=50 velocity=80 time=0
EXTRACT: note_off channel=0 note=62 velocity=64 time=0.20833325
EXTRACT: note_off channel=0 note=57 velocity=64 time=0
EXTRACT: note_off channel=0 note=50 velocity=64 time=0
EXTRACT: note_on channel=0 note=62 velocity=80 time=0
EXTRACT: note_on channel=0 note=57 velocity=80 time=0
EXTRACT: note_on channel=0 note=50 velocity=80 time=0
EXTRACT: note_off channel=6 note=57 velocity=64 time=0
EXTRACT: note_off channel=6 note=54 velocity=64 time=0
EXTRACT: note_off channel=6 note=50 velocity=64 time=0
EXTRACT: note_off channel=0 note=62 velocity=64 time=0.20833325
EXTRACT: note_off channel=0 note=57 velocity=64 time=0
EXTRACT: note_off channel=0 note=50 velocity=64 time=0
EXTRACT: note_on channel=0 note=62 velocity=80 time=0
EXTRACT: note_on channel=0 note=57 velocity=80 time=0
EXTRACT: note_on channel=0 note=50 velocity=80 time=0
EXTRACT: note_on channel=6 note=57 velocity=80 time=0
EXTRACT: note_off channel=0 note=62 velocity=64 time=0.20833325
EXTRACT: note_off channel=0 note=57 velocity=64 time=0
EXTRACT: note_off channel=0 note=50 velocity=64 time=0
EXTRACT: note_on channel=0 note=62 velocity=80 time=0
EXTRACT: note_on channel=0 note=57 velocity=80 time=0
EXTRACT: note_on channel=0 note=50 velocity=80 time=0
EXTRACT: note_off channel=2 note=38 velocity=64 time=0
EXTRACT: note_on channel=2 note=38 velocity=80 time=0
EXTRACT: note_off channel=6 note=57 velocity=64 time=0
EXTRACT: note_on channel=6 note=61 velocity=80 time=0
EXTRACT: note_off channel=0 note=62 velocity=64 time=0.4166665
EXTRACT: note_off channel=0 note=57 velocity=64 time=0
EXTRACT: note_off channel=0 note=50 velocity=64 time=0
EXTRACT: note_on channel=0 note=62 velocity=80 time=0
EXTRACT: note_on channel=0 note=57 velocity=80 time=0
EXTRACT: note_on channel=0 note=50 velocity=80 time=0
EXTRACT: note_off channel=6 note=61 velocity=64 time=0
EXTRACT: note_on channel=6 note=57 velocity=80 time=0
EXTRACT: note_off channel=0 note=62 velocity=64 time=0.20833325
EXTRACT: note_off channel=0 note=57 velocity=64 time=0
EXTRACT: note_off channel=0 note=50 velocity=64 time=0
EXTRACT: note_on channel=0 note=62 velocity=80 time=0
EXTRACT: note_on channel=0 note=57 velocity=80 time=0
EXTRACT: note_on channel=0 note=50 velocity=80 time=0
EXTRACT: note_off channel=0 note=62 velocity=64 time=0.20833325
EXTRACT: note_off channel=0 note=57 velocity=64 time=0
EXTRACT: note_off channel=0 note=50 velocity=64 time=0
EXTRACT: note_on channel=0 note=62 velocity=80 time=0
EXTRACT: note_on channel=0 note=57 velocity=80 time=0
EXTRACT: note_on channel=0 note=50 velocity=80 time=0
EXTRACT: note_off channel=6 note=57 velocity=64 time=0
EXTRACT: note_on channel=6 note=54 velocity=80 time=0
EXTRACT: note_on channel=4 note=57 velocity=80 time=0.20833325
EXTRACT: note_off channel=0 note=62 velocity=64 time=0
EXTRACT: note_off channel=0 note=57 velocity=64 time=0
EXTRACT: note_off channel=0 note=50 velocity=64 time=0
EXTRACT: note_on channel=0 note=62 velocity=80 time=0
EXTRACT: note_on channel=0 note=57 velocity=80 time=0
EXTRACT: note_on channel=0 note=50 velocity=80 time=0
EXTRACT: note_off channel=4 note=57 velocity=64 time=0.20833325
EXTRACT: note_on channel=4 note=64 velocity=80 time=0
EXTRACT: note_off channel=0 note=62 velocity=64 time=0
EXTRACT: note_off channel=0 note=57 velocity=64 time=0
EXTRACT: note_off channel=0 note=50 velocity=64 time=0
EXTRACT: note_on channel=0 note=54 velocity=80 time=0
EXTRACT: note_on channel=0 note=49 velocity=80 time=0
EXTRACT: note_on channel=0 note=42 velocity=80 time=0
EXTRACT: note_off channel=2 note=38 velocity=64 time=0
EXTRACT: note_on channel=2 note=30 velocity=80 time=0
EXTRACT: note_off channel=6 note=54 velocity=64 time=0
EXTRACT: note_on channel=6 note=61 velocity=80 time=0
EXTRACT: note_on channel=6 note=57 velocity=80 time=0
EXTRACT: note_on channel=6 note=54 velocity=80 time=0
EXTRACT: note_off channel=4 note=64 velocity=64 time=0.20833325
EXTRACT: note_on channel=4 note=64 velocity=80 time=0
EXTRACT: note_off channel=4 note=64 velocity=64 time=0.20833325
EXTRACT: note_on channel=4 note=64 velocity=80 time=0
EXTRACT: note_off channel=0 note=54 velocity=64 time=0
EXTRACT: note_off channel=0 note=49 velocity=64 time=0
EXTRACT: note_off channel=0 note=42 velocity=64 time=0
EXTRACT: note_on channel=0 note=54 velocity=80 time=0
EXTRACT: note_on channel=0 note=49 velocity=80 time=0
EXTRACT: note_on channel=0 note=42 velocity=80 time=0
EXTRACT: note_off channel=4 note=64 velocity=64 time=0.20833325
EXTRACT: note_on channel=4 note=64 velocity=80 time=0
EXTRACT: note_off channel=0 note=54 velocity=64 time=0
EXTRACT: note_off channel=0 note=49 velocity=64 time=0
EXTRACT: note_off channel=0 note=42 velocity=64 time=0
EXTRACT: note_on channel=0 note=54 velocity=80 time=0
EXTRACT: note_on channel=0 note=49 velocity=80 time=0
EXTRACT: note_on channel=0 note=42 velocity=80 time=0
EXTRACT: note_off channel=4 note=64 velocity=64 time=0.20833325
EXTRACT: note_on channel=4 note=61 velocity=80 time=0
EXTRACT: note_off channel=0 note=54 velocity=64 time=0
EXTRACT: note_off channel=0 note=49 velocity=64 time=0
EXTRACT: note_off channel=0 note=42 velocity=64 time=0
EXTRACT: note_on channel=0 note=54 velocity=80 time=0
EXTRACT: note_on channel=0 note=49 velocity=80 time=0
EXTRACT: note_on channel=0 note=42 velocity=80 time=0
EXTRACT: note_off channel=6 note=61 velocity=64 time=0
EXTRACT: note_off channel=6 note=57 velocity=64 time=0
EXTRACT: note_off channel=6 note=54 velocity=64 time=0
EXTRACT: note_off channel=0 note=54 velocity=64 time=0.20833325
EXTRACT: note_off channel=0 note=49 velocity=64 time=0
EXTRACT: note_off channel=0 note=42 velocity=64 time=0
EXTRACT: note_on channel=0 note=54 velocity=80 time=0
EXTRACT: note_on channel=0 note=49 velocity=80 time=0
EXTRACT: note_on channel=0 note=42 velocity=80 time=0
EXTRACT: note_on channel=6 note=57 velocity=80 time=0
EXTRACT: note_off channel=0 note=54 velocity=64 time=0.20833325
EXTRACT: note_off channel=0 note=49 velocity=64 time=0
EXTRACT: note_off channel=0 note=42 velocity=64 time=0
EXTRACT: note_on channel=0 note=54 velocity=80 time=0
EXTRACT: note_on channel=0 note=49 velocity=80 time=0
EXTRACT: note_on channel=0 note=42 velocity=80 time=0
EXTRACT: note_off channel=2 note=30 velocity=64 time=0
EXTRACT: note_on channel=2 note=30 velocity=80 time=0
EXTRACT: note_off channel=6 note=57 velocity=64 time=0
EXTRACT: note_on channel=6 note=61 velocity=80 time=0
EXTRACT: note_off channel=0 note=54 velocity=64 time=0.4166665
EXTRACT: note_off channel=0 note=49 velocity=64 time=0
EXTRACT: note_off channel=0 note=42 velocity=64 time=0
EXTRACT: note_on channel=0 note=54 velocity=80 time=0
EXTRACT: note_on channel=0 note=49 velocity=80 time=0
EXTRACT: note_on channel=0 note=42 velocity=80 time=0
EXTRACT: note_off channel=6 note=61 velocity=64 time=0
EXTRACT: note_on channel=6 note=57 velocity=80 time=0
EXTRACT: note_off channel=0 note=54 velocity=64 time=0.20833325
EXTRACT: note_off channel=0 note=49 velocity=64 time=0
EXTRACT: note_off channel=0 note=42 velocity=64 time=0
EXTRACT: note_on channel=0 note=54 velocity=80 time=0
EXTRACT: note_on channel=0 note=49 velocity=80 time=0
EXTRACT: note_on channel=0 note=42 velocity=80 time=0
EXTRACT: note_off channel=4 note=61 velocity=64 time=0.20833325
EXTRACT: note_off channel=0 note=54 velocity=64 time=0
EXTRACT: note_off channel=0 note=49 velocity=64 time=0
EXTRACT: note_off channel=0 note=42 velocity=64 time=0
EXTRACT: note_on channel=0 note=54 velocity=80 time=0
EXTRACT: note_on channel=0 note=49 velocity=80 time=0
EXTRACT: note_on channel=0 note=42 velocity=80 time=0
EXTRACT: note_off channel=6 note=57 velocity=64 time=0
EXTRACT: note_on channel=6 note=54 velocity=80 time=0
EXTRACT: note_on channel=4 note=57 velocity=80 time=0.20833325
EXTRACT: note_off channel=0 note=54 velocity=64 time=0
EXTRACT: note_off channel=0 note=49 velocity=64 time=0
EXTRACT: note_off channel=0 note=42 velocity=64 time=0
EXTRACT: note_on channel=0 note=54 velocity=80 time=0
EXTRACT: note_on channel=0 note=49 velocity=80 time=0
EXTRACT: note_on channel=0 note=42 velocity=80 time=0
EXTRACT: note_off channel=4 note=57 velocity=64 time=0.20833325
EXTRACT: note_on channel=4 note=64 velocity=80 time=0
EXTRACT: note_off channel=0 note=54 velocity=64 time=0
EXTRACT: note_off channel=0 note=49 velocity=64 time=0
EXTRACT: note_off channel=0 note=42 velocity=64 time=0
EXTRACT: note_on channel=0 note=62 velocity=80 time=0
EXTRACT: note_on channel=0 note=57 velocity=80 time=0
EXTRACT: note_on channel=0 note=50 velocity=80 time=0
EXTRACT: note_off channel=2 note=30 velocity=64 time=0
EXTRACT: note_on channel=2 note=38 velocity=80 time=0
EXTRACT: note_off channel=6 note=54 velocity=64 time=0
EXTRACT: note_on channel=6 note=57 velocity=80 time=0
EXTRACT: note_on channel=6 note=54 velocity=80 time=0
EXTRACT: note_on channel=6 note=50 velocity=80 time=0
EXTRACT: note_off channel=4 note=64 velocity=64 time=0.20833325
EXTRACT: note_on channel=4 note=64 velocity=80 time=0
EXTRACT: note_off channel=4 note=64 velocity=64 time=0.20833325
EXTRACT: note_on channel=4 note=64 velocity=80 time=0
EXTRACT: note_off channel=0 note=62 velocity=64 time=0
EXTRACT: note_off channel=0 note=57 velocity=64 time=0
EXTRACT: note_off channel=0 note=50 velocity=64 time=0
EXTRACT: note_on channel=0 note=62 velocity=80 time=0
EXTRACT: note_on channel=0 note=57 velocity=80 time=0
EXTRACT: note_on channel=0 note=50 velocity=80 time=0
EXTRACT: note_off channel=4 note=64 velocity=64 time=0.20833325
EXTRACT: note_on channel=4 note=64 velocity=80 time=0
EXTRACT: note_off channel=0 note=62 velocity=64 time=0
EXTRACT: note_off channel=0 note=57 velocity=64 time=0
EXTRACT: note_off channel=0 note=50 velocity=64 time=0
EXTRACT: note_on channel=0 note=62 velocity=80 time=0
EXTRACT: note_on channel=0 note=57 velocity=80 time=0
EXTRACT: note_on channel=0 note=50 velocity=80 time=0
EXTRACT: note_off channel=4 note=64 velocity=64 time=0.20833325
EXTRACT: note_on channel=4 note=61 velocity=80 time=0
EXTRACT: note_off channel=0 note=62 velocity=64 time=0
EXTRACT: note_off channel=0 note=57 velocity=64 time=0
EXTRACT: note_off channel=0 note=50 velocity=64 time=0
EXTRACT: note_on channel=0 note=62 velocity=80 time=0
EXTRACT: note_on channel=0 note=57 velocity=80 time=0
EXTRACT: note_on channel=0 note=50 velocity=80 time=0
EXTRACT: note_off channel=6 note=57 velocity=64 time=0
EXTRACT: note_off channel=6 note=54 velocity=64 time=0
EXTRACT: note_off channel=6 note=50 velocity=64 time=0
EXTRACT: note_off channel=0 note=62 velocity=64 time=0.20833325
EXTRACT: note_off channel=0 note=57 velocity=64 time=0
EXTRACT: note_off channel=0 note=50 velocity=64 time=0
EXTRACT: note_on channel=0 note=62 velocity=80 time=0
EXTRACT: note_on channel=0 note=57 velocity=80 time=0
EXTRACT: note_on channel=0 note=50 velocity=80 time=0
EXTRACT: note_on channel=6 note=57 velocity=80 time=0
EXTRACT: note_off channel=0 note=62 velocity=64 time=0.20833325
EXTRACT: note_off channel=0 note=57 velocity=64 time=0
EXTRACT: note_off channel=0 note=50 velocity=64 time=0
EXTRACT: note_on channel=0 note=62 velocity=80 time=0
EXTRACT: note_on channel=0 note=57 velocity=80 time=0
EXTRACT: note_on channel=0 note=50 velocity=80 time=0
EXTRACT: note_off channel=2 note=38 velocity=64 time=0
EXTRACT: note_on channel=2 note=38 velocity=80 time=0
EXTRACT: note_off channel=6 note=57 velocity=64 time=0
EXTRACT: note_on channel=6 note=61 velocity=80 time=0
EXTRACT: note_off channel=0 note=62 velocity=64 time=0.4166665
EXTRACT: note_off channel=0 note=57 velocity=64 time=0
EXTRACT: note_off channel=0 note=50 velocity=64 time=0
EXTRACT: note_on channel=0 note=62 velocity=80 time=0
EXTRACT: note_on channel=0 note=57 velocity=80 time=0
EXTRACT: note_on channel=0 note=50 velocity=80 time=0
EXTRACT: note_off channel=6 note=61 velocity=64 time=0
EXTRACT: note_on channel=6 note=57 velocity=80 time=0
EXTRACT: note_off channel=0 note=62 velocity=64 time=0.20833325
EXTRACT: note_off channel=0 note=57 velocity=64 time=0
EXTRACT: note_off channel=0 note=50 velocity=64 time=0
EXTRACT: note_on channel=0 note=62 velocity=80 time=0
EXTRACT: note_on channel=0 note=57 velocity=80 time=0
EXTRACT: note_on channel=0 note=50 velocity=80 time=0
EXTRACT: note_off channel=4 note=61 velocity=64 time=0.20833325
EXTRACT: note_off channel=0 note=62 velocity=64 time=0
EXTRACT: note_off channel=0 note=57 velocity=64 time=0
EXTRACT: note_off channel=0 note=50 velocity=64 time=0
EXTRACT: note_on channel=0 note=62 velocity=80 time=0
EXTRACT: note_on channel=0 note=57 velocity=80 time=0
EXTRACT: note_on channel=0 note=50 velocity=80 time=0
EXTRACT: note_off channel=6 note=57 velocity=64 time=0
EXTRACT: note_on channel=6 note=54 velocity=80 time=0
EXTRACT: note_on channel=4 note=57 velocity=80 time=0.20833325
EXTRACT: note_off channel=0 note=62 velocity=64 time=0
EXTRACT: note_off channel=0 note=57 velocity=64 time=0
EXTRACT: note_off channel=0 note=50 velocity=64 time=0
EXTRACT: note_on channel=0 note=62 velocity=80 time=0
EXTRACT: note_on channel=0 note=57 velocity=80 time=0
EXTRACT: note_on channel=0 note=50 velocity=80 time=0
EXTRACT: note_off channel=4 note=57 velocity=64 time=0.20833325
EXTRACT: note_on channel=4 note=64 velocity=80 time=0
EXTRACT: note_off channel=0 note=62 velocity=64 time=0
EXTRACT: note_off channel=0 note=57 velocity=64 time=0
EXTRACT: note_off channel=0 note=50 velocity=64 time=0
EXTRACT: note_on channel=0 note=54 velocity=80 time=0
EXTRACT: note_on channel=0 note=49 velocity=80 time=0
EXTRACT: note_on channel=0 note=42 velocity=80 time=0
EXTRACT: note_off channel=2 note=38 velocity=64 time=0
EXTRACT: note_on channel=2 note=30 velocity=80 time=0
EXTRACT: note_off channel=6 note=54 velocity=64 time=0
EXTRACT: note_on channel=6 note=61 velocity=80 time=0
EXTRACT: note_on channel=6 note=57 velocity=80 time=0
EXTRACT: note_on channel=6 note=54 velocity=80 time=0
EXTRACT: note_off channel=4 note=64 velocity=64 time=0.20833325
EXTRACT: note_on channel=4 note=64 velocity=80 time=0
EXTRACT: note_off channel=4 note=64 velocity=64 time=0.20833325
EXTRACT: note_on channel=4 note=64 velocity=80 time=0
EXTRACT: note_off channel=0 note=54 velocity=64 time=0
EXTRACT: note_off channel=0 note=49 velocity=64 time=0
EXTRACT: note_off channel=0 note=42 velocity=64 time=0
EXTRACT: note_on channel=0 note=54 velocity=80 time=0
EXTRACT: note_on channel=0 note=49 velocity=80 time=0
EXTRACT: note_on channel=0 note=42 velocity=80 time=0
EXTRACT: note_off channel=4 note=64 velocity=64 time=0.20833325
EXTRACT: note_on channel=4 note=64 velocity=80 time=0
EXTRACT: note_off channel=0 note=54 velocity=64 time=0
EXTRACT: note_off channel=0 note=49 velocity=64 time=0
EXTRACT: note_off channel=0 note=42 velocity=64 time=0
EXTRACT: note_on channel=0 note=54 velocity=80 time=0
EXTRACT: note_on channel=0 note=49 velocity=80 time=0
EXTRACT: note_on channel=0 note=42 velocity=80 time=0
EXTRACT: note_off channel=4 note=64 velocity=64 time=0.20833325
EXTRACT: note_on channel=4 note=61 velocity=80 time=0
EXTRACT: note_off channel=0 note=54 velocity=64 time=0
EXTRACT: note_off channel=0 note=49 velocity=64 time=0
EXTRACT: note_off channel=0 note=42 velocity=64 time=0
EXTRACT: note_on channel=0 note=54 velocity=80 time=0
EXTRACT: note_on channel=0 note=49 velocity=80 time=0
EXTRACT: note_on channel=0 note=42 velocity=80 time=0
EXTRACT: note_off channel=6 note=61 velocity=64 time=0
EXTRACT: note_off channel=6 note=57 velocity=64 time=0
EXTRACT: note_off channel=6 note=54 velocity=64 time=0
EXTRACT: note_off channel=0 note=54 velocity=64 time=0.20833325
EXTRACT: note_off channel=0 note=49 velocity=64 time=0
EXTRACT: note_off channel=0 note=42 velocity=64 time=0
EXTRACT: note_on channel=0 note=54 velocity=80 time=0
EXTRACT: note_on channel=0 note=49 velocity=80 time=0
EXTRACT: note_on channel=0 note=42 velocity=80 time=0
EXTRACT: note_on channel=6 note=57 velocity=80 time=0
EXTRACT: note_off channel=0 note=54 velocity=64 time=0.20833325
EXTRACT: note_off channel=0 note=49 velocity=64 time=0
EXTRACT: note_off channel=0 note=42 velocity=64 time=0
EXTRACT: note_on channel=0 note=54 velocity=80 time=0
EXTRACT: note_on channel=0 note=49 velocity=80 time=0
EXTRACT: note_on channel=0 note=42 velocity=80 time=0
EXTRACT: note_off channel=2 note=30 velocity=64 time=0
EXTRACT: note_on channel=2 note=30 velocity=80 time=0
EXTRACT: note_off channel=6 note=57 velocity=64 time=0
EXTRACT: note_on channel=6 note=61 velocity=80 time=0
EXTRACT: note_off channel=0 note=54 velocity=64 time=0.4166665
EXTRACT: note_off channel=0 note=49 velocity=64 time=0
EXTRACT: note_off channel=0 note=42 velocity=64 time=0
EXTRACT: note_on channel=0 note=54 velocity=80 time=0
EXTRACT: note_on channel=0 note=49 velocity=80 time=0
EXTRACT: note_on channel=0 note=42 velocity=80 time=0
EXTRACT: note_off channel=6 note=61 velocity=64 time=0
EXTRACT: note_on channel=6 note=57 velocity=80 time=0
EXTRACT: note_off channel=0 note=54 velocity=64 time=0.20833325
EXTRACT: note_off channel=0 note=49 velocity=64 time=0
EXTRACT: note_off channel=0 note=42 velocity=64 time=0
EXTRACT: note_on channel=0 note=54 velocity=80 time=0
EXTRACT: note_on channel=0 note=49 velocity=80 time=0
EXTRACT: note_on channel=0 note=42 velocity=80 time=0
EXTRACT: note_off channel=4 note=61 velocity=64 time=0.20833325
EXTRACT: note_off channel=0 note=54 velocity=64 time=0
EXTRACT: note_off channel=0 note=49 velocity=64 time=0
EXTRACT: note_off channel=0 note=42 velocity=64 time=0
EXTRACT: note_on channel=0 note=54 velocity=80 time=0
EXTRACT: note_on channel=0 note=49 velocity=80 time=0
EXTRACT: note_on channel=0 note=42 velocity=80 time=0
EXTRACT: note_off channel=6 note=57 velocity=64 time=0
EXTRACT: note_on channel=6 note=54 velocity=80 time=0
EXTRACT: note_on channel=4 note=59 velocity=80 time=0.20833325
EXTRACT: note_off channel=0 note=54 velocity=64 time=0
EXTRACT: note_off channel=0 note=49 velocity=64 time=0
EXTRACT: note_off channel=0 note=42 velocity=64 time=0
EXTRACT: note_on channel=0 note=54 velocity=80 time=0
EXTRACT: note_on channel=0 note=49 velocity=80 time=0
EXTRACT: note_on channel=0 note=42 velocity=80 time=0
EXTRACT: note_off channel=4 note=59 velocity=64 time=0.20833325
EXTRACT: note_on channel=4 note=57 velocity=80 time=0
EXTRACT: note_off channel=0 note=54 velocity=64 time=0
EXTRACT: note_off channel=0 note=49 velocity=64 time=0
EXTRACT: note_off channel=0 note=42 velocity=64 time=0
EXTRACT: note_on channel=0 note=62 velocity=80 time=0
EXTRACT: note_on channel=0 note=57 velocity=80 time=0
EXTRACT: note_on channel=0 note=50 velocity=80 time=0
EXTRACT: note_off channel=2 note=30 velocity=64 time=0
EXTRACT: note_on channel=2 note=38 velocity=80 time=0
EXTRACT: note_off channel=6 note=54 velocity=64 time=0
EXTRACT: note_on channel=6 note=57 velocity=80 time=0
EXTRACT: note_on channel=6 note=54 velocity=80 time=0
EXTRACT: note_on channel=6 note=50 velocity=80 time=0
EXTRACT: note_off channel=0 note=62 velocity=64 time=0.4166665
EXTRACT: note_off channel=0 note=57 velocity=64 time=0
EXTRACT: note_off channel=0 note=50 velocity=64 time=0
EXTRACT: note_on channel=0 note=62 velocity=80 time=0
EXTRACT: note_on channel=0 note=57 velocity=80 time=0
EXTRACT: note_on channel=0 note=50 velocity=80 time=0
EXTRACT: note_off channel=0 note=62 velocity=64 time=0.20833325
EXTRACT: note_off channel=0 note=57 velocity=64 time=0
EXTRACT: note_off channel=0 note=50 velocity=64 time=0
EXTRACT: note_on channel=0 note=62 velocity=80 time=0
EXTRACT: note_on channel=0 note=57 velocity=80 time=0
EXTRACT: note_on channel=0 note=50 velocity=80 time=0
EXTRACT: note_off channel=0 note=62 velocity=64 time=0.20833325
EXTRACT: note_off channel=0 note=57 velocity=64 time=0
EXTRACT: note_off channel=0 note=50 velocity=64 time=0
EXTRACT: note_on channel=0 note=62 velocity=80 time=0
EXTRACT: note_on channel=0 note=57 velocity=80 time=0
EXTRACT: note_on channel=0 note=50 velocity=80 time=0
EXTRACT: note_off channel=6 note=57 velocity=64 time=0
EXTRACT: note_off channel=6 note=54 velocity=64 time=0
EXTRACT: note_off channel=6 note=50 velocity=64 time=0
EXTRACT: note_off channel=0 note=62 velocity=64 time=0.20833325
EXTRACT: note_off channel=0 note=57 velocity=64 time=0
EXTRACT: note_off channel=0 note=50 velocity=64 time=0
EXTRACT: note_on channel=0 note=62 velocity=80 time=0
EXTRACT: note_on channel=0 note=57 velocity=80 time=0
EXTRACT: note_on channel=0 note=50 velocity=80 time=0
EXTRACT: note_on channel=6 note=57 velocity=80 time=0
EXTRACT: note_off channel=4 note=57 velocity=64 time=0.20833325
EXTRACT: note_off channel=0 note=62 velocity=64 time=0
EXTRACT: note_off channel=0 note=57 velocity=64 time=0
EXTRACT: note_off channel=0 note=50 velocity=64 time=0
EXTRACT: note_on channel=0 note=62 velocity=80 time=0
EXTRACT: note_on channel=0 note=57 velocity=80 time=0
EXTRACT: note_on channel=0 note=50 velocity=80 time=0
EXTRACT: note_off channel=2 note=38 velocity=64 time=0
EXTRACT: note_on channel=2 note=38 velocity=80 time=0
EXTRACT: note_off channel=6 note=57 velocity=64 time=0
EXTRACT: note_on channel=6 note=61 velocity=80 time=0
EXTRACT: note_off channel=0 note=62 velocity=64 time=0.4166665
EXTRACT: note_off channel=0 note=57 velocity=64 time=0
EXTRACT: note_off channel=0 note=50 velocity=64 time=0
EXTRACT: note_on channel=0 note=62 velocity=80 time=0
EXTRACT: note_on channel=0 note=57 velocity=80 time=0
EXTRACT: note_on channel=0 note=50 velocity=80 time=0
EXTRACT: note_off channel=6 note=61 velocity=64 time=0
EXTRACT: note_on channel=6 note=57 velocity=80 time=0
EXTRACT: note_off channel=0 note=62 velocity=64 time=0.20833325
EXTRACT: note_off channel=0 note=57 velocity=64 time=0
EXTRACT: note_off channel=0 note=50 velocity=64 time=0
EXTRACT: note_on channel=0 note=62 velocity=80 time=0
EXTRACT: note_on channel=0 note=57 velocity=80 time=0
EXTRACT: note_on channel=0 note=50 velocity=80 time=0
EXTRACT: note_off channel=0 note=62 velocity=64 time=0.20833325
EXTRACT: note_off channel=0 note=57 velocity=64 time=0
EXTRACT: note_off channel=0 note=50 velocity=64 time=0
EXTRACT: note_on channel=0 note=62 velocity=80 time=0
EXTRACT: note_on channel=0 note=57 velocity=80 time=0
EXTRACT: note_on channel=0 note=50 velocity=80 time=0
EXTRACT: note_off channel=6 note=57 velocity=64 time=0
EXTRACT: note_on channel=6 note=54 velocity=80 time=0
EXTRACT: note_on channel=4 note=57 velocity=80 time=0.20833325
EXTRACT: note_off channel=0 note=62 velocity=64 time=0
EXTRACT: note_off channel=0 note=57 velocity=64 time=0
EXTRACT: note_off channel=0 note=50 velocity=64 time=0
EXTRACT: note_on channel=0 note=62 velocity=80 time=0
EXTRACT: note_on channel=0 note=57 velocity=80 time=0
EXTRACT: note_on channel=0 note=50 velocity=80 time=0
EXTRACT: note_off channel=4 note=57 velocity=64 time=0.20833325
EXTRACT: note_on channel=4 note=64 velocity=80 time=0
EXTRACT: note_off channel=0 note=62 velocity=64 time=0
EXTRACT: note_off channel=0 note=57 velocity=64 time=0
EXTRACT: note_off channel=0 note=50 velocity=64 time=0
EXTRACT: note_on channel=0 note=54 velocity=80 time=0
EXTRACT: note_on channel=0 note=49 velocity=80 time=0
EXTRACT: note_on channel=0 note=42 velocity=80 time=0
EXTRACT: note_off channel=2 note=38 velocity=64 time=0
EXTRACT: note_on channel=2 note=30 velocity=80 time=0
EXTRACT: note_off channel=6 note=54 velocity=64 time=0
EXTRACT: note_on channel=6 note=61 velocity=80 time=0
EXTRACT: note_on channel=6 note=57 velocity=80 time=0
EXTRACT: note_on channel=6 note=54 velocity=80 time=0
EXTRACT: note_off channel=4 note=64 velocity=64 time=0.20833325
EXTRACT: note_on channel=4 note=64 velocity=80 time=0
EXTRACT: note_off channel=4 note=64 velocity=64 time=0.20833325
EXTRACT: note_on channel=4 note=64 velocity=80 time=0
EXTRACT: note_off channel=0 note=54 velocity=64 time=0
EXTRACT: note_off channel=0 note=49 velocity=64 time=0
EXTRACT: note_off channel=0 note=42 velocity=64 time=0
EXTRACT: note_on channel=0 note=54 velocity=80 time=0
EXTRACT: note_on channel=0 note=49 velocity=80 time=0
EXTRACT: note_on channel=0 note=42 velocity=80 time=0
EXTRACT: note_off channel=4 note=64 velocity=64 time=0.20833325
EXTRACT: note_on channel=4 note=64 velocity=80 time=0
EXTRACT: note_off channel=0 note=54 velocity=64 time=0
EXTRACT: note_off channel=0 note=49 velocity=64 time=0
EXTRACT: note_off channel=0 note=42 velocity=64 time=0
EXTRACT: note_on channel=0 note=54 velocity=80 time=0
EXTRACT: note_on channel=0 note=49 velocity=80 time=0
EXTRACT: note_on channel=0 note=42 velocity=80 time=0
EXTRACT: note_off channel=4 note=64 velocity=64 time=0.20833325
EXTRACT: note_on channel=4 note=61 velocity=80 time=0
EXTRACT: note_off channel=0 note=54 velocity=64 time=0
EXTRACT: note_off channel=0 note=49 velocity=64 time=0
EXTRACT: note_off channel=0 note=42 velocity=64 time=0
EXTRACT: note_on channel=0 note=54 velocity=80 time=0
EXTRACT: note_on channel=0 note=49 velocity=80 time=0
EXTRACT: note_on channel=0 note=42 velocity=80 time=0
EXTRACT: note_off channel=6 note=61 velocity=64 time=0
EXTRACT: note_off channel=6 note=57 velocity=64 time=0
EXTRACT: note_off channel=6 note=54 velocity=64 time=0
EXTRACT: note_off channel=0 note=54 velocity=64 time=0.20833325
EXTRACT: note_off channel=0 note=49 velocity=64 time=0
EXTRACT: note_off channel=0 note=42 velocity=64 time=0
EXTRACT: note_on channel=0 note=54 velocity=80 time=0
EXTRACT: note_on channel=0 note=49 velocity=80 time=0
EXTRACT: note_on channel=0 note=42 velocity=80 time=0
EXTRACT: note_on channel=6 note=57 velocity=80 time=0
EXTRACT: note_off channel=0 note=54 velocity=64 time=0.20833325
EXTRACT: note_off channel=0 note=49 velocity=64 time=0
EXTRACT: note_off channel=0 note=42 velocity=64 time=0
EXTRACT: note_on channel=0 note=54 velocity=80 time=0
EXTRACT: note_on channel=0 note=49 velocity=80 time=0
EXTRACT: note_on channel=0 note=42 velocity=80 time=0
EXTRACT: note_off channel=2 note=30 velocity=64 time=0
EXTRACT: note_on channel=2 note=30 velocity=80 time=0
EXTRACT: note_off channel=6 note=57 velocity=64 time=0
EXTRACT: note_on channel=6 note=61 velocity=80 time=0
EXTRACT: note_off channel=0 note=54 velocity=64 time=0.4166665
EXTRACT: note_off channel=0 note=49 velocity=64 time=0
EXTRACT: note_off channel=0 note=42 velocity=64 time=0
EXTRACT: note_on channel=0 note=54 velocity=80 time=0
EXTRACT: note_on channel=0 note=49 velocity=80 time=0
EXTRACT: note_on channel=0 note=42 velocity=80 time=0
EXTRACT: note_off channel=6 note=61 velocity=64 time=0
EXTRACT: note_on channel=6 note=57 velocity=80 time=0
EXTRACT: note_off channel=0 note=54 velocity=64 time=0.20833325
EXTRACT: note_off channel=0 note=49 velocity=64 time=0
EXTRACT: note_off channel=0 note=42 velocity=64 time=0
EXTRACT: note_on channel=0 note=54 velocity=80 time=0
EXTRACT: note_on channel=0 note=49 velocity=80 time=0
EXTRACT: note_on channel=0 note=42 velocity=80 time=0
EXTRACT: note_off channel=4 note=61 velocity=64 time=0.20833325
EXTRACT: note_off channel=0 note=54 velocity=64 time=0
EXTRACT: note_off channel=0 note=49 velocity=64 time=0
EXTRACT: note_off channel=0 note=42 velocity=64 time=0
EXTRACT: note_on channel=0 note=54 velocity=80 time=0
EXTRACT: note_on channel=0 note=49 velocity=80 time=0
EXTRACT: note_on channel=0 note=42 velocity=80 time=0
EXTRACT: note_off channel=6 note=57 velocity=64 time=0
EXTRACT: note_on channel=6 note=54 velocity=80 time=0
EXTRACT: note_on channel=4 note=57 velocity=80 time=0.20833325
EXTRACT: note_off channel=0 note=54 velocity=64 time=0
EXTRACT: note_off channel=0 note=49 velocity=64 time=0
EXTRACT: note_off channel=0 note=42 velocity=64 time=0
EXTRACT: note_on channel=0 note=54 velocity=80 time=0
EXTRACT: note_on channel=0 note=49 velocity=80 time=0
EXTRACT: note_on channel=0 note=42 velocity=80 time=0
EXTRACT: note_off channel=4 note=57 velocity=64 time=0.20833325
EXTRACT: note_on channel=4 note=64 velocity=80 time=0
EXTRACT: note_off channel=0 note=54 velocity=64 time=0
EXTRACT: note_off channel=0 note=49 velocity=64 time=0
EXTRACT: note_off channel=0 note=42 velocity=64 time=0
EXTRACT: note_on channel=0 note=62 velocity=80 time=0
EXTRACT: note_on channel=0 note=57 velocity=80 time=0
EXTRACT: note_on channel=0 note=50 velocity=80 time=0
EXTRACT: note_off channel=2 note=30 velocity=64 time=0
EXTRACT: note_on channel=2 note=38 velocity=80 time=0
EXTRACT: note_off channel=6 note=54 velocity=64 time=0
EXTRACT: note_on channel=6 note=57 velocity=80 time=0
EXTRACT: note_on channel=6 note=54 velocity=80 time=0
EXTRACT: note_on channel=6 note=50 velocity=80 time=0
EXTRACT: note_off channel=4 note=64 velocity=64 time=0.20833325
EXTRACT: note_on channel=4 note=64 velocity=80 time=0
EXTRACT: note_off channel=4 note=64 velocity=64 time=0.20833325
EXTRACT: note_on channel=4 note=64 velocity=80 time=0
EXTRACT: note_off channel=0 note=62 velocity=64 time=0
EXTRACT: note_off channel=0 note=57 velocity=64 time=0
EXTRACT: note_off channel=0 note=50 velocity=64 time=0
EXTRACT: note_on channel=0 note=62 velocity=80 time=0
EXTRACT: note_on channel=0 note=57 velocity=80 time=0
EXTRACT: note_on channel=0 note=50 velocity=80 time=0
EXTRACT: note_off channel=4 note=64 velocity=64 time=0.20833325
EXTRACT: note_on channel=4 note=64 velocity=80 time=0
EXTRACT: note_off channel=0 note=62 velocity=64 time=0
EXTRACT: note_off channel=0 note=57 velocity=64 time=0
EXTRACT: note_off channel=0 note=50 velocity=64 time=0
EXTRACT: note_on channel=0 note=62 velocity=80 time=0
EXTRACT: note_on channel=0 note=57 velocity=80 time=0
EXTRACT: note_on channel=0 note=50 velocity=80 time=0
EXTRACT: note_off channel=4 note=64 velocity=64 time=0.20833325
EXTRACT: note_on channel=4 note=61 velocity=80 time=0
EXTRACT: note_off channel=0 note=62 velocity=64 time=0
EXTRACT: note_off channel=0 note=57 velocity=64 time=0
EXTRACT: note_off channel=0 note=50 velocity=64 time=0
EXTRACT: note_on channel=0 note=62 velocity=80 time=0
EXTRACT: note_on channel=0 note=57 velocity=80 time=0
EXTRACT: note_on channel=0 note=50 velocity=80 time=0
EXTRACT: note_off channel=6 note=57 velocity=64 time=0
EXTRACT: note_off channel=6 note=54 velocity=64 time=0
EXTRACT: note_off channel=6 note=50 velocity=64 time=0
EXTRACT: note_off channel=0 note=62 velocity=64 time=0.20833325
EXTRACT: note_off channel=0 note=57 velocity=64 time=0
EXTRACT: note_off channel=0 note=50 velocity=64 time=0
EXTRACT: note_on channel=0 note=62 velocity=80 time=0
EXTRACT: note_on channel=0 note=57 velocity=80 time=0
EXTRACT: note_on channel=0 note=50 velocity=80 time=0
EXTRACT: note_on channel=6 note=57 velocity=80 time=0
EXTRACT: note_off channel=0 note=62 velocity=64 time=0.20833325
EXTRACT: note_off channel=0 note=57 velocity=64 time=0
EXTRACT: note_off channel=0 note=50 velocity=64 time=0
EXTRACT: note_on channel=0 note=62 velocity=80 time=0
EXTRACT: note_on channel=0 note=57 velocity=80 time=0
EXTRACT: note_on channel=0 note=50 velocity=80 time=0
EXTRACT: note_off channel=2 note=38 velocity=64 time=0
EXTRACT: note_on channel=2 note=38 velocity=80 time=0
EXTRACT: note_off channel=6 note=57 velocity=64 time=0
EXTRACT: note_on channel=6 note=61 velocity=80 time=0
EXTRACT: note_off channel=0 note=62 velocity=64 time=0.4166665
EXTRACT: note_off channel=0 note=57 velocity=64 time=0
EXTRACT: note_off channel=0 note=50 velocity=64 time=0
EXTRACT: note_on channel=0 note=62 velocity=80 time=0
EXTRACT: note_on channel=0 note=57 velocity=80 time=0
EXTRACT: note_on channel=0 note=50 velocity=80 time=0
EXTRACT: note_off channel=6 note=61 velocity=64 time=0
EXTRACT: note_on channel=6 note=57 velocity=80 time=0
EXTRACT: note_off channel=0 note=62 velocity=64 time=0.20833325
EXTRACT: note_off channel=0 note=57 velocity=64 time=0
EXTRACT: note_off channel=0 note=50 velocity=64 time=0
EXTRACT: note_on channel=0 note=62 velocity=80 time=0
EXTRACT: note_on channel=0 note=57 velocity=80 time=0
EXTRACT: note_on channel=0 note=50 velocity=80 time=0
EXTRACT: note_off channel=4 note=61 velocity=64 time=0.20833325
EXTRACT: note_off channel=0 note=62 velocity=64 time=0
EXTRACT: note_off channel=0 note=57 velocity=64 time=0
EXTRACT: note_off channel=0 note=50 velocity=64 time=0
EXTRACT: note_on channel=0 note=62 velocity=80 time=0
EXTRACT: note_on channel=0 note=57 velocity=80 time=0
EXTRACT: note_on channel=0 note=50 velocity=80 time=0
EXTRACT: note_off channel=6 note=57 velocity=64 time=0
EXTRACT: note_on channel=6 note=54 velocity=80 time=0
EXTRACT: note_on channel=4 note=57 velocity=80 time=0.20833325
EXTRACT: note_off channel=0 note=62 velocity=64 time=0
EXTRACT: note_off channel=0 note=57 velocity=64 time=0
EXTRACT: note_off channel=0 note=50 velocity=64 time=0
EXTRACT: note_on channel=0 note=62 velocity=80 time=0
EXTRACT: note_on channel=0 note=57 velocity=80 time=0
EXTRACT: note_on channel=0 note=50 velocity=80 time=0
EXTRACT: note_off channel=4 note=57 velocity=64 time=0.20833325
EXTRACT: note_on channel=4 note=64 velocity=80 time=0
EXTRACT: note_off channel=0 note=62 velocity=64 time=0
EXTRACT: note_off channel=0 note=57 velocity=64 time=0
EXTRACT: note_off channel=0 note=50 velocity=64 time=0
EXTRACT: note_on channel=0 note=54 velocity=80 time=0
EXTRACT: note_on channel=0 note=49 velocity=80 time=0
EXTRACT: note_on channel=0 note=42 velocity=80 time=0
EXTRACT: note_off channel=2 note=38 velocity=64 time=0
EXTRACT: note_on channel=2 note=30 velocity=80 time=0
EXTRACT: note_off channel=6 note=54 velocity=64 time=0
EXTRACT: note_on channel=6 note=61 velocity=80 time=0
EXTRACT: note_on channel=6 note=57 velocity=80 time=0
EXTRACT: note_on channel=6 note=54 velocity=80 time=0
EXTRACT: note_off channel=4 note=64 velocity=64 time=0.20833325
EXTRACT: note_on channel=4 note=64 velocity=80 time=0
EXTRACT: note_off channel=4 note=64 velocity=64 time=0.20833325
EXTRACT: note_on channel=4 note=64 velocity=80 time=0
EXTRACT: note_off channel=0 note=54 velocity=64 time=0
EXTRACT: note_off channel=0 note=49 velocity=64 time=0
EXTRACT: note_off channel=0 note=42 velocity=64 time=0
EXTRACT: note_on channel=0 note=54 velocity=80 time=0
EXTRACT: note_on channel=0 note=49 velocity=80 time=0
EXTRACT: note_on channel=0 note=42 velocity=80 time=0
EXTRACT: note_off channel=4 note=64 velocity=64 time=0.20833325
EXTRACT: note_on channel=4 note=64 velocity=80 time=0
EXTRACT: note_off channel=0 note=54 velocity=64 time=0
EXTRACT: note_off channel=0 note=49 velocity=64 time=0
EXTRACT: note_off channel=0 note=42 velocity=64 time=0
EXTRACT: note_on channel=0 note=54 velocity=80 time=0
EXTRACT: note_on channel=0 note=49 velocity=80 time=0
EXTRACT: note_on channel=0 note=42 velocity=80 time=0
EXTRACT: note_off channel=4 note=64 velocity=64 time=0.20833325
EXTRACT: note_on channel=4 note=61 velocity=80 time=0
EXTRACT: note_off channel=0 note=54 velocity=64 time=0
EXTRACT: note_off channel=0 note=49 velocity=64 time=0
EXTRACT: note_off channel=0 note=42 velocity=64 time=0
EXTRACT: note_on channel=0 note=54 velocity=80 time=0
EXTRACT: note_on channel=0 note=49 velocity=80 time=0
EXTRACT: note_on channel=0 note=42 velocity=80 time=0
EXTRACT: note_off channel=6 note=61 velocity=64 time=0
EXTRACT: note_off channel=6 note=57 velocity=64 time=0
EXTRACT: note_off channel=6 note=54 velocity=64 time=0
EXTRACT: note_off channel=0 note=54 velocity=64 time=0.20833325
EXTRACT: note_off channel=0 note=49 velocity=64 time=0
EXTRACT: note_off channel=0 note=42 velocity=64 time=0
EXTRACT: note_on channel=0 note=54 velocity=80 time=0
EXTRACT: note_on channel=0 note=49 velocity=80 time=0
EXTRACT: note_on channel=0 note=42 velocity=80 time=0
EXTRACT: note_on channel=6 note=57 velocity=80 time=0
EXTRACT: note_off channel=0 note=54 velocity=64 time=0.20833325
EXTRACT: note_off channel=0 note=49 velocity=64 time=0
EXTRACT: note_off channel=0 note=42 velocity=64 time=0
EXTRACT: note_on channel=0 note=54 velocity=80 time=0
EXTRACT: note_on channel=0 note=49 velocity=80 time=0
EXTRACT: note_on channel=0 note=42 velocity=80 time=0
EXTRACT: note_off channel=2 note=30 velocity=64 time=0
EXTRACT: note_on channel=2 note=30 velocity=80 time=0
EXTRACT: note_off channel=6 note=57 velocity=64 time=0
EXTRACT: note_on channel=6 note=61 velocity=80 time=0
EXTRACT: note_off channel=0 note=54 velocity=64 time=0.4166665
EXTRACT: note_off channel=0 note=49 velocity=64 time=0
EXTRACT: note_off channel=0 note=42 velocity=64 time=0
EXTRACT: note_on channel=0 note=54 velocity=80 time=0
EXTRACT: note_on channel=0 note=49 velocity=80 time=0
EXTRACT: note_on channel=0 note=42 velocity=80 time=0
EXTRACT: note_off channel=6 note=61 velocity=64 time=0
EXTRACT: note_on channel=6 note=57 velocity=80 time=0
EXTRACT: note_off channel=0 note=54 velocity=64 time=0.20833325
EXTRACT: note_off channel=0 note=49 velocity=64 time=0
EXTRACT: note_off channel=0 note=42 velocity=64 time=0
EXTRACT: note_on channel=0 note=54 velocity=80 time=0
EXTRACT: note_on channel=0 note=49 velocity=80 time=0
EXTRACT: note_on channel=0 note=42 velocity=80 time=0
EXTRACT: note_off channel=4 note=61 velocity=64 time=0.20833325
EXTRACT: note_off channel=0 note=54 velocity=64 time=0
EXTRACT: note_off channel=0 note=49 velocity=64 time=0
EXTRACT: note_off channel=0 note=42 velocity=64 time=0
EXTRACT: note_on channel=0 note=54 velocity=80 time=0
EXTRACT: note_on channel=0 note=49 velocity=80 time=0
EXTRACT: note_on channel=0 note=42 velocity=80 time=0
EXTRACT: note_off channel=6 note=57 velocity=64 time=0
EXTRACT: note_on channel=6 note=54 velocity=80 time=0
EXTRACT: note_on channel=4 note=59 velocity=80 time=0.20833325
EXTRACT: note_off channel=0 note=54 velocity=64 time=0
EXTRACT: note_off channel=0 note=49 velocity=64 time=0
EXTRACT: note_off channel=0 note=42 velocity=64 time=0
EXTRACT: note_on channel=0 note=54 velocity=80 time=0
EXTRACT: note_on channel=0 note=49 velocity=80 time=0
EXTRACT: note_on channel=0 note=42 velocity=80 time=0
EXTRACT: note_off channel=4 note=59 velocity=64 time=0.20833325
EXTRACT: note_on channel=4 note=57 velocity=80 time=0
EXTRACT: note_off channel=0 note=54 velocity=64 time=0
EXTRACT: note_off channel=0 note=49 velocity=64 time=0
EXTRACT: note_off channel=0 note=42 velocity=64 time=0
EXTRACT: note_on channel=0 note=62 velocity=80 time=0
EXTRACT: note_on channel=0 note=57 velocity=80 time=0
EXTRACT: note_on channel=0 note=50 velocity=80 time=0
EXTRACT: note_off channel=2 note=30 velocity=64 time=0
EXTRACT: note_on channel=2 note=38 velocity=80 time=0
EXTRACT: note_off channel=6 note=54 velocity=64 time=0
EXTRACT: note_on channel=6 note=57 velocity=80 time=0
EXTRACT: note_on channel=6 note=54 velocity=80 time=0
EXTRACT: note_on channel=6 note=50 velocity=80 time=0
EXTRACT: note_off channel=0 note=62 velocity=64 time=0.4166665
EXTRACT: note_off channel=0 note=57 velocity=64 time=0
EXTRACT: note_off channel=0 note=50 velocity=64 time=0
EXTRACT: note_on channel=0 note=62 velocity=80 time=0
EXTRACT: note_on channel=0 note=57 velocity=80 time=0
EXTRACT: note_on channel=0 note=50 velocity=80 time=0
EXTRACT: note_off channel=0 note=62 velocity=64 time=0.20833325
EXTRACT: note_off channel=0 note=57 velocity=64 time=0
EXTRACT: note_off channel=0 note=50 velocity=64 time=0
EXTRACT: note_on channel=0 note=62 velocity=80 time=0
EXTRACT: note_on channel=0 note=57 velocity=80 time=0
EXTRACT: note_on channel=0 note=50 velocity=80 time=0
EXTRACT: note_off channel=0 note=62 velocity=64 time=0.20833325
EXTRACT: note_off channel=0 note=57 velocity=64 time=0
EXTRACT: note_off channel=0 note=50 velocity=64 time=0
EXTRACT: note_on channel=0 note=62 velocity=80 time=0
EXTRACT: note_on channel=0 note=57 velocity=80 time=0
EXTRACT: note_on channel=0 note=50 velocity=80 time=0
EXTRACT: note_off channel=6 note=57 velocity=64 time=0
EXTRACT: note_off channel=6 note=54 velocity=64 time=0
EXTRACT: note_off channel=6 note=50 velocity=64 time=0
EXTRACT: note_off channel=0 note=62 velocity=64 time=0.20833325
EXTRACT: note_off channel=0 note=57 velocity=64 time=0
EXTRACT: note_off channel=0 note=50 velocity=64 time=0
EXTRACT: note_on channel=0 note=62 velocity=80 time=0
EXTRACT: note_on channel=0 note=57 velocity=80 time=0
EXTRACT: note_on channel=0 note=50 velocity=80 time=0
EXTRACT: note_on channel=6 note=57 velocity=80 time=0
EXTRACT: note_off channel=0 note=62 velocity=64 time=0.20833325
EXTRACT: note_off channel=0 note=57 velocity=64 time=0
EXTRACT: note_off channel=0 note=50 velocity=64 time=0
EXTRACT: note_on channel=0 note=62 velocity=80 time=0
EXTRACT: note_on channel=0 note=57 velocity=80 time=0
EXTRACT: note_on channel=0 note=50 velocity=80 time=0
EXTRACT: note_off channel=2 note=38 velocity=64 time=0
EXTRACT: note_on channel=2 note=38 velocity=80 time=0
EXTRACT: note_off channel=6 note=57 velocity=64 time=0
EXTRACT: note_on channel=6 note=61 velocity=80 time=0
EXTRACT: note_off channel=0 note=62 velocity=64 time=0.4166665
EXTRACT: note_off channel=0 note=57 velocity=64 time=0
EXTRACT: note_off channel=0 note=50 velocity=64 time=0
EXTRACT: note_on channel=0 note=62 velocity=80 time=0
EXTRACT: note_on channel=0 note=57 velocity=80 time=0
EXTRACT: note_on channel=0 note=50 velocity=80 time=0
EXTRACT: note_off channel=6 note=61 velocity=64 time=0
EXTRACT: note_on channel=6 note=57 velocity=80 time=0
EXTRACT: note_off channel=0 note=62 velocity=64 time=0.20833325
EXTRACT: note_off channel=0 note=57 velocity=64 time=0
EXTRACT: note_off channel=0 note=50 velocity=64 time=0
EXTRACT: note_on channel=0 note=62 velocity=80 time=0
EXTRACT: note_on channel=0 note=57 velocity=80 time=0
EXTRACT: note_on channel=0 note=50 velocity=80 time=0
EXTRACT: note_off channel=0 note=62 velocity=64 time=0.20833325
EXTRACT: note_off channel=0 note=57 velocity=64 time=0
EXTRACT: note_off channel=0 note=50 velocity=64 time=0
EXTRACT: note_on channel=0 note=62 velocity=80 time=0
EXTRACT: note_on channel=0 note=57 velocity=80 time=0
EXTRACT: note_on channel=0 note=50 velocity=80 time=0
EXTRACT: note_off channel=6 note=57 velocity=64 time=0
EXTRACT: note_on channel=6 note=54 velocity=80 time=0
EXTRACT: note_off channel=0 note=62 velocity=64 time=0.20833325
EXTRACT: note_off channel=0 note=57 velocity=64 time=0
EXTRACT: note_off channel=0 note=50 velocity=64 time=0
EXTRACT: note_on channel=0 note=62 velocity=80 time=0
EXTRACT: note_on channel=0 note=57 velocity=80 time=0
EXTRACT: note_on channel=0 note=50 velocity=80 time=0
EXTRACT: note_off channel=4 note=57 velocity=64 time=0.20833325
EXTRACT: note_off channel=0 note=62 velocity=64 time=0
EXTRACT: note_off channel=0 note=57 velocity=64 time=0
EXTRACT: note_off channel=0 note=50 velocity=64 time=0
EXTRACT: note_on channel=0 note=64 velocity=80 time=0
EXTRACT: note_on channel=0 note=59 velocity=80 time=0
EXTRACT: note_on channel=0 note=52 velocity=80 time=0
EXTRACT: note_off channel=2 note=38 velocity=64 time=0
EXTRACT: note_on channel=2 note=40 velocity=80 time=0
EXTRACT: note_off channel=6 note=54 velocity=64 time=0
EXTRACT: note_on channel=6 note=64 velocity=80 time=0
EXTRACT: note_on channel=6 note=68 velocity=80 time=0
EXTRACT: note_on channel=6 note=71 velocity=80 time=0
EXTRACT: note_on channel=4 note=64 velocity=80 time=0.4166665
EXTRACT: note_off channel=0 note=64 velocity=64 time=0
EXTRACT: note_off channel=0 note=59 velocity=64 time=0
EXTRACT: note_off channel=0 note=52 velocity=64 time=0
EXTRACT: note_on channel=0 note=64 velocity=80 time=0
EXTRACT: note_on channel=0 note=59 velocity=80 time=0
EXTRACT: note_on channel=0 note=52 velocity=80 time=0
EXTRACT: note_off channel=4 note=64 velocity=64 time=0.20833325
EXTRACT: note_on channel=4 note=64 velocity=80 time=0
EXTRACT: note_off channel=0 note=64 velocity=64 time=0
EXTRACT: note_off channel=0 note=59 velocity=64 time=0
EXTRACT: note_off channel=0 note=52 velocity=64 time=0
EXTRACT: note_on channel=0 note=64 velocity=80 time=0
EXTRACT: note_on channel=0 note=59 velocity=80 time=0
EXTRACT: note_on channel=0 note=52 velocity=80 time=0
EXTRACT: note_off channel=4 note=64 velocity=64 time=0.20833325
EXTRACT: note_on channel=4 note=64 velocity=80 time=0
EXTRACT: note_off channel=0 note=64 velocity=64 time=0
EXTRACT: note_off channel=0 note=59 velocity=64 time=0
EXTRACT: note_off channel=0 note=52 velocity=64 time=0
EXTRACT: note_on channel=0 note=64 velocity=80 time=0
EXTRACT: note_on channel=0 note=59 velocity=80 time=0
EXTRACT: note_on channel=0 note=52 velocity=80 time=0
EXTRACT: note_off channel=4 note=64 velocity=64 time=0.20833325
EXTRACT: note_on channel=4 note=64 velocity=80 time=0
EXTRACT: note_off channel=0 note=64 velocity=64 time=0
EXTRACT: note_off channel=0 note=59 velocity=64 time=0
EXTRACT: note_off channel=0 note=52 velocity=64 time=0
EXTRACT: note_on channel=0 note=64 velocity=80 time=0
EXTRACT: note_on channel=0 note=59 velocity=80 time=0
EXTRACT: note_on channel=0 note=52 velocity=80 time=0
EXTRACT: note_off channel=4 note=64 velocity=64 time=0.20833325
EXTRACT: note_on channel=4 note=64 velocity=80 time=0
EXTRACT: note_off channel=0 note=64 velocity=64 time=0
EXTRACT: note_off channel=0 note=59 velocity=64 time=0
EXTRACT: note_off channel=0 note=52 velocity=64 time=0
EXTRACT: note_on channel=0 note=64 velocity=80 time=0
EXTRACT: note_on channel=0 note=59 velocity=80 time=0
EXTRACT: note_on channel=0 note=52 velocity=80 time=0
EXTRACT: note_off channel=2 note=40 velocity=64 time=0
EXTRACT: note_on channel=2 note=40 velocity=80 time=0
EXTRACT: note_off channel=6 note=64 velocity=64 time=0
EXTRACT: note_off channel=6 note=68 velocity=64 time=0
EXTRACT: note_off channel=6 note=71 velocity=64 time=0
EXTRACT: note_on channel=6 note=71 velocity=80 time=0
EXTRACT: note_on channel=6 note=68 velocity=80 time=0
EXTRACT: note_on channel=6 note=64 velocity=80 time=0
EXTRACT: note_off channel=4 note=64 velocity=64 time=0.4166665
EXTRACT: note_on channel=4 note=66 velocity=80 time=0
EXTRACT: note_off channel=0 note=64 velocity=64 time=0
EXTRACT: note_off channel=0 note=59 velocity=64 time=0
EXTRACT: note_off channel=0 note=52 velocity=64 time=0
EXTRACT: note_on channel=0 note=64 velocity=80 time=0
EXTRACT: note_on channel=0 note=59 velocity=80 time=0
EXTRACT: note_on channel=0 note=52 velocity=80 time=0
EXTRACT: note_off channel=0 note=64 velocity=64 time=0.20833325
EXTRACT: note_off channel=0 note=59 velocity=64 time=0
EXTRACT: note_off channel=0 note=52 velocity=64 time=0
EXTRACT: note_on channel=0 note=64 velocity=80 time=0
EXTRACT: note_on channel=0 note=59 velocity=80 time=0
EXTRACT: note_on channel=0 note=52 velocity=80 time=0
EXTRACT: note_off channel=0 note=64 velocity=64 time=0.20833325
EXTRACT: note_off channel=0 note=59 velocity=64 time=0
EXTRACT: note_off channel=0 note=52 velocity=64 time=0
EXTRACT: note_on channel=0 note=64 velocity=80 time=0
EXTRACT: note_on channel=0 note=59 velocity=80 time=0
EXTRACT: note_on channel=0 note=52 velocity=80 time=0
EXTRACT: note_off channel=6 note=71 velocity=64 time=0
EXTRACT: note_off channel=6 note=68 velocity=64 time=0
EXTRACT: note_off channel=6 note=64 velocity=64 time=0
EXTRACT: note_on channel=6 note=64 velocity=80 time=0
EXTRACT: note_off channel=4 note=66 velocity=64 time=0.20833325
EXTRACT: note_on channel=4 note=68 velocity=80 time=0
EXTRACT: note_off channel=0 note=64 velocity=64 time=0
EXTRACT: note_off channel=0 note=59 velocity=64 time=0
EXTRACT: note_off channel=0 note=52 velocity=64 time=0
EXTRACT: note_on channel=0 note=64 velocity=80 time=0
EXTRACT: note_on channel=0 note=59 velocity=80 time=0
EXTRACT: note_on channel=0 note=52 velocity=80 time=0
EXTRACT: note_off channel=4 note=68 velocity=64 time=0.20833325
EXTRACT: note_on channel=4 note=69 velocity=80 time=0
EXTRACT: note_off channel=0 note=64 velocity=64 time=0
EXTRACT: note_off channel=0 note=59 velocity=64 time=0
EXTRACT: note_off channel=0 note=52 velocity=64 time=0
EXTRACT: note_on channel=0 note=62 velocity=80 time=0
EXTRACT: note_on channel=0 note=57 velocity=80 time=0
EXTRACT: note_on channel=0 note=50 velocity=80 time=0
EXTRACT: note_off channel=2 note=40 velocity=64 time=0
EXTRACT: note_on channel=2 note=38 velocity=80 time=0
EXTRACT: note_off channel=6 note=64 velocity=64 time=0
EXTRACT: note_on channel=6 note=66 velocity=80 time=0
EXTRACT: note_on channel=6 note=62 velocity=80 time=0
EXTRACT: note_on channel=6 note=69 velocity=80 time=0
EXTRACT: note_off channel=4 note=69 velocity=64 time=0.4166665
EXTRACT: note_on channel=4 note=62 velocity=80 time=0
EXTRACT: note_off channel=0 note=62 velocity=64 time=0
EXTRACT: note_off channel=0 note=57 velocity=64 time=0
EXTRACT: note_off channel=0 note=50 velocity=64 time=0
EXTRACT: note_on channel=0 note=62 velocity=80 time=0
EXTRACT: note_on channel=0 note=57 velocity=80 time=0
EXTRACT: note_on channel=0 note=50 velocity=80 time=0
EXTRACT: note_off channel=0 note=62 velocity=64 time=0.20833325
EXTRACT: note_off channel=0 note=57 velocity=64 time=0
EXTRACT: note_off channel=0 note=50 velocity=64 time=0
EXTRACT: note_on channel=0 note=62 velocity=80 time=0
EXTRACT: note_on channel=0 note=57 velocity=80 time=0
EXTRACT: note_on channel=0 note=50 velocity=80 time=0
EXTRACT: note_off channel=0 note=62 velocity=64 time=0.20833325
EXTRACT: note_off channel=0 note=57 velocity=64 time=0
EXTRACT: note_off channel=0 note=50 velocity=64 time=0
EXTRACT: note_on channel=0 note=62 velocity=80 time=0
EXTRACT: note_on channel=0 note=57 velocity=80 time=0
EXTRACT: note_on channel=0 note=50 velocity=80 time=0
EXTRACT: note_off channel=6 note=66 velocity=64 time=0
EXTRACT: note_off channel=6 note=62 velocity=64 time=0
EXTRACT: note_off channel=6 note=69 velocity=64 time=0
EXTRACT: note_on channel=6 note=66 velocity=80 time=0
EXTRACT: note_off channel=0 note=62 velocity=64 time=0.20833325
EXTRACT: note_off channel=0 note=57 velocity=64 time=0
EXTRACT: note_off channel=0 note=50 velocity=64 time=0
EXTRACT: note_on channel=0 note=62 velocity=80 time=0
EXTRACT: note_on channel=0 note=57 velocity=80 time=0
EXTRACT: note_on channel=0 note=50 velocity=80 time=0
EXTRACT: note_off channel=6 note=66 velocity=64 time=0
EXTRACT: note_on channel=6 note=69 velocity=80 time=0
EXTRACT: note_off channel=4 note=62 velocity=64 time=0.20833325
EXTRACT: note_off channel=0 note=62 velocity=64 time=0
EXTRACT: note_off channel=0 note=57 velocity=64 time=0
EXTRACT: note_off channel=0 note=50 velocity=64 time=0
EXTRACT: note_on channel=0 note=62 velocity=80 time=0
EXTRACT: note_on channel=0 note=57 velocity=80 time=0
EXTRACT: note_on channel=0 note=50 velocity=80 time=0
EXTRACT: note_off channel=2 note=38 velocity=64 time=0
EXTRACT: note_on channel=2 note=38 velocity=80 time=0
EXTRACT: note_off channel=6 note=69 velocity=64 time=0
EXTRACT: note_on channel=6 note=74 velocity=80 time=0
EXTRACT: note_off channel=0 note=62 velocity=64 time=0.4166665
EXTRACT: note_off channel=0 note=57 velocity=64 time=0
EXTRACT: note_off channel=0 note=50 velocity=64 time=0
EXTRACT: note_on channel=0 note=62 velocity=80 time=0
EXTRACT: note_on channel=0 note=57 velocity=80 time=0
EXTRACT: note_on channel=0 note=50 velocity=80 time=0
EXTRACT: note_off channel=6 note=74 velocity=64 time=0
EXTRACT: note_on channel=6 note=69 velocity=80 time=0
EXTRACT: note_off channel=0 note=62 velocity=64 time=0.20833325
EXTRACT: note_off channel=0 note=57 velocity=64 time=0
EXTRACT: note_off channel=0 note=50 velocity=64 time=0
EXTRACT: note_on channel=0 note=62 velocity=80 time=0
EXTRACT: note_on channel=0 note=57 velocity=80 time=0
EXTRACT: note_on channel=0 note=50 velocity=80 time=0
EXTRACT: note_off channel=0 note=62 velocity=64 time=0.20833325
EXTRACT: note_off channel=0 note=57 velocity=64 time=0
EXTRACT: note_off channel=0 note=50 velocity=64 time=0
EXTRACT: note_on channel=0 note=62 velocity=80 time=0
EXTRACT: note_on channel=0 note=57 velocity=80 time=0
EXTRACT: note_on channel=0 note=50 velocity=80 time=0
EXTRACT: note_off channel=6 note=69 velocity=64 time=0
EXTRACT: note_on channel=6 note=66 velocity=80 time=0
EXTRACT: note_off channel=0 note=62 velocity=64 time=0.20833325
EXTRACT: note_off channel=0 note=57 velocity=64 time=0
EXTRACT: note_off channel=0 note=50 velocity=64 time=0
EXTRACT: note_on channel=0 note=62 velocity=80 time=0
EXTRACT: note_on channel=0 note=57 velocity=80 time=0
EXTRACT: note_on channel=0 note=50 velocity=80 time=0
EXTRACT: note_off channel=0 note=62 velocity=64 time=0.20833325
EXTRACT: note_off channel=0 note=57 velocity=64 time=0
EXTRACT: note_off channel=0 note=50 velocity=64 time=0
EXTRACT: note_on channel=0 note=64 velocity=80 time=0
EXTRACT: note_on channel=0 note=59 velocity=80 time=0
EXTRACT: note_on channel=0 note=52 velocity=80 time=0
EXTRACT: note_off channel=2 note=38 velocity=64 time=0
EXTRACT: note_on channel=2 note=40 velocity=80 time=0
EXTRACT: note_off channel=6 note=66 velocity=64 time=0
EXTRACT: note_on channel=6 note=64 velocity=80 time=0
EXTRACT: note_on channel=6 note=68 velocity=80 time=0
EXTRACT: note_on channel=6 note=71 velocity=80 time=0
EXTRACT: note_on channel=4 note=64 velocity=80 time=0.4166665
EXTRACT: note_off channel=0 note=64 velocity=64 time=0
EXTRACT: note_off channel=0 note=59 velocity=64 time=0
EXTRACT: note_off channel=0 note=52 velocity=64 time=0
EXTRACT: note_on channel=0 note=64 velocity=80 time=0
EXTRACT: note_on channel=0 note=59 velocity=80 time=0
EXTRACT: note_on channel=0 note=52 velocity=80 time=0
EXTRACT: note_off channel=4 note=64 velocity=64 time=0.20833325
EXTRACT: note_on channel=4 note=64 velocity=80 time=0
EXTRACT: note_off channel=0 note=64 velocity=64 time=0
EXTRACT: note_off channel=0 note=59 velocity=64 time=0
EXTRACT: note_off channel=0 note=52 velocity=64 time=0
EXTRACT: note_on channel=0 note=64 velocity=80 time=0
EXTRACT: note_on channel=0 note=59 velocity=80 time=0
EXTRACT: note_on channel=0 note=52 velocity=80 time=0
EXTRACT: note_off channel=4 note=64 velocity=64 time=0.20833325
EXTRACT: note_on channel=4 note=64 velocity=80 time=0
EXTRACT: note_off channel=0 note=64 velocity=64 time=0
EXTRACT: note_off channel=0 note=59 velocity=64 time=0
EXTRACT: note_off channel=0 note=52 velocity=64 time=0
EXTRACT: note_on channel=0 note=64 velocity=80 time=0
EXTRACT: note_on channel=0 note=59 velocity=80 time=0
EXTRACT: note_on channel=0 note=52 velocity=80 time=0
EXTRACT: note_off channel=4 note=64 velocity=64 time=0.20833325
EXTRACT: note_on channel=4 note=64 velocity=80 time=0
EXTRACT: note_off channel=0 note=64 velocity=64 time=0
EXTRACT: note_off channel=0 note=59 velocity=64 time=0
EXTRACT: note_off channel=0 note=52 velocity=64 time=0
EXTRACT: note_on channel=0 note=64 velocity=80 time=0
EXTRACT: note_on channel=0 note=59 velocity=80 time=0
EXTRACT: note_on channel=0 note=52 velocity=80 time=0
EXTRACT: note_off channel=4 note=64 velocity=64 time=0.20833325
EXTRACT: note_on channel=4 note=64 velocity=80 time=0
EXTRACT: note_off channel=0 note=64 velocity=64 time=0
EXTRACT: note_off channel=0 note=59 velocity=64 time=0
EXTRACT: note_off channel=0 note=52 velocity=64 time=0
EXTRACT: note_on channel=0 note=64 velocity=80 time=0
EXTRACT: note_on channel=0 note=59 velocity=80 time=0
EXTRACT: note_on channel=0 note=52 velocity=80 time=0
EXTRACT: note_off channel=2 note=40 velocity=64 time=0
EXTRACT: note_on channel=2 note=40 velocity=80 time=0
EXTRACT: note_off channel=6 note=64 velocity=64 time=0
EXTRACT: note_off channel=6 note=68 velocity=64 time=0
EXTRACT: note_off channel=6 note=71 velocity=64 time=0
EXTRACT: note_on channel=6 note=71 velocity=80 time=0
EXTRACT: note_on channel=6 note=68 velocity=80 time=0
EXTRACT: note_on channel=6 note=64 velocity=80 time=0
EXTRACT: note_off channel=4 note=64 velocity=64 time=0.4166665
EXTRACT: note_on channel=4 note=66 velocity=80 time=0
EXTRACT: note_off channel=0 note=64 velocity=64 time=0
EXTRACT: note_off channel=0 note=59 velocity=64 time=0
EXTRACT: note_off channel=0 note=52 velocity=64 time=0
EXTRACT: note_on channel=0 note=64 velocity=80 time=0
EXTRACT: note_on channel=0 note=59 velocity=80 time=0
EXTRACT: note_on channel=0 note=52 velocity=80 time=0
EXTRACT: note_off channel=0 note=64 velocity=64 time=0.20833325
EXTRACT: note_off channel=0 note=59 velocity=64 time=0
EXTRACT: note_off channel=0 note=52 velocity=64 time=0
EXTRACT: note_on channel=0 note=64 velocity=80 time=0
EXTRACT: note_on channel=0 note=59 velocity=80 time=0
EXTRACT: note_on channel=0 note=52 velocity=80 time=0
EXTRACT: note_off channel=4 note=66 velocity=64 time=0.20833325
EXTRACT: note_on channel=4 note=68 velocity=80 time=0
EXTRACT: note_off channel=0 note=64 velocity=64 time=0
EXTRACT: note_off channel=0 note=59 velocity=64 time=0
EXTRACT: note_off channel=0 note=52 velocity=64 time=0
EXTRACT: note_on channel=0 note=64 velocity=80 time=0
EXTRACT: note_on channel=0 note=59 velocity=80 time=0
EXTRACT: note_on channel=0 note=52 velocity=80 time=0
EXTRACT: note_off channel=6 note=71 velocity=64 time=0
EXTRACT: note_off channel=6 note=68 velocity=64 time=0
EXTRACT: note_off channel=6 note=64 velocity=64 time=0
EXTRACT: note_on channel=6 note=64 velocity=80 time=0
EXTRACT: note_off channel=0 note=64 velocity=64 time=0.20833325
EXTRACT: note_off channel=0 note=59 velocity=64 time=0
EXTRACT: note_off channel=0 note=52 velocity=64 time=0
EXTRACT: note_on channel=0 note=64 velocity=80 time=0
EXTRACT: note_on channel=0 note=59 velocity=80 time=0
EXTRACT: note_on channel=0 note=52 velocity=80 time=0
EXTRACT: note_off channel=4 note=68 velocity=64 time=0.20833325
EXTRACT: note_on channel=4 note=69 velocity=80 time=0
EXTRACT: note_off channel=0 note=64 velocity=64 time=0
EXTRACT: note_off channel=0 note=59 velocity=64 time=0
EXTRACT: note_off channel=0 note=52 velocity=64 time=0
EXTRACT: note_on channel=0 note=62 velocity=80 time=0
EXTRACT: note_on channel=0 note=57 velocity=80 time=0
EXTRACT: note_on channel=0 note=50 velocity=80 time=0
EXTRACT: note_off channel=2 note=40 velocity=64 time=0
EXTRACT: note_on channel=2 note=38 velocity=80 time=0
EXTRACT: note_off channel=6 note=64 velocity=64 time=0
EXTRACT: note_on channel=6 note=66 velocity=80 time=0
EXTRACT: note_on channel=6 note=62 velocity=80 time=0
EXTRACT: note_on channel=6 note=69 velocity=80 time=0
EXTRACT: note_off channel=6 note=66 velocity=64 time=0.833333
EXTRACT: note_off channel=6 note=62 velocity=64 time=0
EXTRACT: note_off channel=6 note=69 velocity=64 time=0
EXTRACT: note_on channel=6 note=66 velocity=80 time=0
EXTRACT: note_off channel=6 note=66 velocity=64 time=0.20833325
EXTRACT: note_on channel=6 note=69 velocity=80 time=0
EXTRACT: note_off channel=4 note=69 velocity=64 time=0.20833325
EXTRACT: note_off channel=6 note=69 velocity=64 time=0
EXTRACT: note_on channel=6 note=74 velocity=80 time=0
EXTRACT: note_on channel=4 note=64 velocity=80 time=0.4166665
EXTRACT: note_off channel=4 note=64 velocity=64 time=0.4166665
EXTRACT: note_on channel=4 note=64 velocity=80 time=0
EXTRACT: note_off channel=4 note=64 velocity=64 time=0.4166665
EXTRACT: note_on channel=4 note=71 velocity=80 time=0
EXTRACT: note_off channel=0 note=62 velocity=64 time=0
EXTRACT: note_off channel=0 note=57 velocity=64 time=0
EXTRACT: note_off channel=0 note=50 velocity=64 time=0
EXTRACT: note_on channel=0 note=57 velocity=80 time=0
EXTRACT: note_on channel=0 note=52 velocity=80 time=0
EXTRACT: note_on channel=0 note=45 velocity=80 time=0
EXTRACT: note_off channel=2 note=38 velocity=64 time=0
EXTRACT: note_on channel=2 note=33 velocity=80 time=0
EXTRACT: note_off channel=6 note=74 velocity=64 time=0
EXTRACT: note_on channel=6 note=64 velocity=80 time=0
EXTRACT: note_on channel=6 note=61 velocity=80 time=0
EXTRACT: note_on channel=6 note=57 velocity=80 time=0
EXTRACT: note_off channel=0 note=57 velocity=64 time=0.4166665
EXTRACT: note_off channel=0 note=52 velocity=64 time=0
EXTRACT: note_off channel=0 note=45 velocity=64 time=0
EXTRACT: note_on channel=0 note=57 velocity=80 time=0
EXTRACT: note_on channel=0 note=52 velocity=80 time=0
EXTRACT: note_on channel=0 note=45 velocity=80 time=0
EXTRACT: note_off channel=0 note=57 velocity=64 time=0.20833325
EXTRACT: note_off channel=0 note=52 velocity=64 time=0
EXTRACT: note_off channel=0 note=45 velocity=64 time=0
EXTRACT: note_on channel=0 note=57 velocity=80 time=0
EXTRACT: note_on channel=0 note=52 velocity=80 time=0
EXTRACT: note_on channel=0 note=45 velocity=80 time=0
EXTRACT: note_off channel=0 note=57 velocity=64 time=0.20833325
EXTRACT: note_off channel=0 note=52 velocity=64 time=0
EXTRACT: note_off channel=0 note=45 velocity=64 time=0
EXTRACT: note_on channel=0 note=57 velocity=80 time=0
EXTRACT: note_on channel=0 note=52 velocity=80 time=0
EXTRACT: note_on channel=0 note=45 velocity=80 time=0
EXTRACT: note_off channel=6 note=64 velocity=64 time=0
EXTRACT: note_off channel=6 note=61 velocity=64 time=0
EXTRACT: note_off channel=6 note=57 velocity=64 time=0
EXTRACT: note_on channel=6 note=57 velocity=80 time=0
EXTRACT: note_off channel=0 note=57 velocity=64 time=0.20833325
EXTRACT: note_off channel=0 note=52 velocity=64 time=0
EXTRACT: note_off channel=0 note=45 velocity=64 time=0
EXTRACT: note_on channel=0 note=57 velocity=80 time=0
EXTRACT: note_on channel=0 note=52 velocity=80 time=0
EXTRACT: note_on channel=0 note=45 velocity=80 time=0
EXTRACT: note_off channel=4 note=71 velocity=64 time=0.20833325
EXTRACT: note_on channel=4 note=73 velocity=80 time=0
EXTRACT: note_off channel=0 note=57 velocity=64 time=0
EXTRACT: note_off channel=0 note=52 velocity=64 time=0
EXTRACT: note_off channel=0 note=45 velocity=64 time=0
EXTRACT: note_on channel=0 note=59 velocity=80 time=0
EXTRACT: note_on channel=0 note=54 velocity=80 time=0
EXTRACT: note_on channel=0 note=47 velocity=80 time=0
EXTRACT: note_off channel=2 note=33 velocity=64 time=0
EXTRACT: note_on channel=2 note=35 velocity=80 time=0
EXTRACT: note_off channel=6 note=57 velocity=64 time=0
EXTRACT: note_on channel=6 note=66 velocity=80 time=0
EXTRACT: note_on channel=6 note=59 velocity=80 time=0
EXTRACT: note_on channel=6 note=62 velocity=80 time=0
EXTRACT: note_off channel=0 note=59 velocity=64 time=0.4166665
EXTRACT: note_off channel=0 note=54 velocity=64 time=0
EXTRACT: note_off channel=0 note=47 velocity=64 time=0
EXTRACT: note_on channel=0 note=59 velocity=80 time=0
EXTRACT: note_on channel=0 note=54 velocity=80 time=0
EXTRACT: note_on channel=0 note=47 velocity=80 time=0
EXTRACT: note_off channel=0 note=59 velocity=64 time=0.20833325
EXTRACT: note_off channel=0 note=54 velocity=64 time=0
EXTRACT: note_off channel=0 note=47 velocity=64 time=0
EXTRACT: note_on channel=0 note=59 velocity=80 time=0
EXTRACT: note_on channel=0 note=54 velocity=80 time=0
EXTRACT: note_on channel=0 note=47 velocity=80 time=0
EXTRACT: note_off channel=0 note=59 velocity=64 time=0.20833325
EXTRACT: note_off channel=0 note=54 velocity=64 time=0
EXTRACT: note_off channel=0 note=47 velocity=64 time=0
EXTRACT: note_on channel=0 note=59 velocity=80 time=0
EXTRACT: note_on channel=0 note=54 velocity=80 time=0
EXTRACT: note_on channel=0 note=47 velocity=80 time=0
EXTRACT: note_off channel=6 note=66 velocity=64 time=0
EXTRACT: note_off channel=6 note=59 velocity=64 time=0
EXTRACT: note_off channel=6 note=62 velocity=64 time=0
EXTRACT: note_on channel=6 note=59 velocity=80 time=0
EXTRACT: note_off channel=0 note=59 velocity=64 time=0.20833325
EXTRACT: note_off channel=0 note=54 velocity=64 time=0
EXTRACT: note_off channel=0 note=47 velocity=64 time=0
EXTRACT: note_on channel=0 note=59 velocity=80 time=0
EXTRACT: note_on channel=0 note=54 velocity=80 time=0
EXTRACT: note_on channel=0 note=47 velocity=80 time=0
EXTRACT: note_off channel=4 note=73 velocity=64 time=0.20833325
EXTRACT: note_on channel=4 note=62 velocity=80 time=0
EXTRACT: note_off channel=0 note=59 velocity=64 time=0
EXTRACT: note_off channel=0 note=54 velocity=64 time=0
EXTRACT: note_off channel=0 note=47 velocity=64 time=0
EXTRACT: note_on channel=0 note=62 velocity=80 time=0
EXTRACT: note_on channel=0 note=57 velocity=80 time=0
EXTRACT: note_on channel=0 note=50 velocity=80 time=0
EXTRACT: note_off channel=2 note=35 velocity=64 time=0
EXTRACT: note_on channel=2 note=38 velocity=80 time=0
EXTRACT: note_off channel=6 note=59 velocity=64 time=0
EXTRACT: note_on channel=6 note=66 velocity=80 time=0
EXTRACT: note_on channel=6 note=62 velocity=80 time=0
EXTRACT: note_on channel=6 note=69 velocity=80 time=0
EXTRACT: note_off channel=0 note=62 velocity=64 time=0.4166665
EXTRACT: note_off channel=0 note=57 velocity=64 time=0
EXTRACT: note_off channel=0 note=50 velocity=64 time=0
EXTRACT: note_on channel=0 note=62 velocity=80 time=0
EXTRACT: note_on channel=0 note=57 velocity=80 time=0
EXTRACT: note_on channel=0 note=50 velocity=80 time=0
EXTRACT: note_off channel=0 note=62 velocity=64 time=0.20833325
EXTRACT: note_off channel=0 note=57 velocity=64 time=0
EXTRACT: note_off channel=0 note=50 velocity=64 time=0
EXTRACT: note_on channel=0 note=62 velocity=80 time=0
EXTRACT: note_on channel=0 note=57 velocity=80 time=0
EXTRACT: note_on channel=0 note=50 velocity=80 time=0
EXTRACT: note_off channel=0 note=62 velocity=64 time=0.20833325
EXTRACT: note_off channel=0 note=57 velocity=64 time=0
EXTRACT: note_off channel=0 note=50 velocity=64 time=0
EXTRACT: note_on channel=0 note=62 velocity=80 time=0
EXTRACT: note_on channel=0 note=57 velocity=80 time=0
EXTRACT: note_on channel=0 note=50 velocity=80 time=0
EXTRACT: note_off channel=6 note=66 velocity=64 time=0
EXTRACT: note_off channel=6 note=62 velocity=64 time=0
EXTRACT: note_off channel=6 note=69 velocity=64 time=0
EXTRACT: note_on channel=6 note=66 velocity=80 time=0
EXTRACT: note_off channel=0 note=62 velocity=64 time=0.20833325
EXTRACT: note_off channel=0 note=57 velocity=64 time=0
EXTRACT: note_off channel=0 note=50 velocity=64 time=0
EXTRACT: note_on channel=0 note=62 velocity=80 time=0
EXTRACT: note_on channel=0 note=57 velocity=80 time=0
EXTRACT: note_on channel=0 note=50 velocity=80 time=0
EXTRACT: note_off channel=6 note=66 velocity=64 time=0
EXTRACT: note_on channel=6 note=69 velocity=80 time=0
EXTRACT: note_off channel=4 note=62 velocity=64 time=0.20833325
EXTRACT: note_off channel=0 note=62 velocity=64 time=0
EXTRACT: note_off channel=0 note=57 velocity=64 time=0
EXTRACT: note_off channel=0 note=50 velocity=64 time=0
EXTRACT: note_on channel=0 note=62 velocity=80 time=0
EXTRACT: note_on channel=0 note=57 velocity=80 time=0
EXTRACT: note_on channel=0 note=50 velocity=80 time=0
EXTRACT: note_off channel=2 note=38 velocity=64 time=0
EXTRACT: note_on channel=2 note=38 velocity=80 time=0
EXTRACT: note_off channel=6 note=69 velocity=64 time=0
EXTRACT: note_on channel=6 note=74 velocity=80 time=0
EXTRACT: note_on channel=4 note=64 velocity=80 time=0.4166665
EXTRACT: note_off channel=0 note=62 velocity=64 time=0
EXTRACT: note_off channel=0 note=57 velocity=64 time=0
EXTRACT: note_off channel=0 note=50 velocity=64 time=0
EXTRACT: note_on channel=0 note=62 velocity=80 time=0
EXTRACT: note_on channel=0 note=57 velocity=80 time=0
EXTRACT: note_on channel=0 note=50 velocity=80 time=0
EXTRACT: note_off channel=6 note=74 velocity=64 time=0
EXTRACT: note_on channel=6 note=69 velocity=80 time=0
EXTRACT: note_off channel=4 note=64 velocity=64 time=0.20833325
EXTRACT: note_on channel=4 note=64 velocity=80 time=0
EXTRACT: note_off channel=0 note=62 velocity=64 time=0
EXTRACT: note_off channel=0 note=57 velocity=64 time=0
EXTRACT: note_off channel=0 note=50 velocity=64 time=0
EXTRACT: note_on channel=0 note=62 velocity=80 time=0
EXTRACT: note_on channel=0 note=57 velocity=80 time=0
EXTRACT: note_on channel=0 note=50 velocity=80 time=0
EXTRACT: note_off channel=4 note=64 velocity=64 time=0.20833325
EXTRACT: note_on channel=4 note=64 velocity=80 time=0
EXTRACT: note_off channel=0 note=62 velocity=64 time=0
EXTRACT: note_off channel=0 note=57 velocity=64 time=0
EXTRACT: note_off channel=0 note=50 velocity=64 time=0
EXTRACT: note_on channel=0 note=62 velocity=80 time=0
EXTRACT: note_on channel=0 note=57 velocity=80 time=0
EXTRACT: note_on channel=0 note=50 velocity=80 time=0
EXTRACT: note_off channel=6 note=69 velocity=64 time=0
EXTRACT: note_on channel=6 note=66 velocity=80 time=0
EXTRACT: note_off channel=4 note=64 velocity=64 time=0.20833325
EXTRACT: note_on channel=4 note=64 velocity=80 time=0
EXTRACT: note_off channel=0 note=62 velocity=64 time=0
EXTRACT: note_off channel=0 note=57 velocity=64 time=0
EXTRACT: note_off channel=0 note=50 velocity=64 time=0
EXTRACT: note_on channel=0 note=62 velocity=80 time=0
EXTRACT: note_on channel=0 note=57 velocity=80 time=0
EXTRACT: note_on channel=0 note=50 velocity=80 time=0
EXTRACT: note_off channel=4 note=64 velocity=64 time=0.20833325
EXTRACT: note_on channel=4 note=71 velocity=80 time=0
EXTRACT: note_off channel=0 note=62 velocity=64 time=0
EXTRACT: note_off channel=0 note=57 velocity=64 time=0
EXTRACT: note_off channel=0 note=50 velocity=64 time=0
EXTRACT: note_on channel=0 note=57 velocity=80 time=0
EXTRACT: note_on channel=0 note=52 velocity=80 time=0
EXTRACT: note_on channel=0 note=45 velocity=80 time=0
EXTRACT: note_off channel=2 note=38 velocity=64 time=0
EXTRACT: note_on channel=2 note=33 velocity=80 time=0
EXTRACT: note_off channel=6 note=66 velocity=64 time=0
EXTRACT: note_on channel=6 note=64 velocity=80 time=0
EXTRACT: note_on channel=6 note=61 velocity=80 time=0
EXTRACT: note_on channel=6 note=57 velocity=80 time=0
EXTRACT: note_off channel=0 note=57 velocity=64 time=0.4166665
EXTRACT: note_off channel=0 note=52 velocity=64 time=0
EXTRACT: note_off channel=0 note=45 velocity=64 time=0
EXTRACT: note_on channel=0 note=57 velocity=80 time=0
EXTRACT: note_on channel=0 note=52 velocity=80 time=0
EXTRACT: note_on channel=0 note=45 velocity=80 time=0
EXTRACT: note_off channel=0 note=57 velocity=64 time=0.20833325
EXTRACT: note_off channel=0 note=52 velocity=64 time=0
EXTRACT: note_off channel=0 note=45 velocity=64 time=0
EXTRACT: note_on channel=0 note=57 velocity=80 time=0
EXTRACT: note_on channel=0 note=52 velocity=80 time=0
EXTRACT: note_on channel=0 note=45 velocity=80 time=0
EXTRACT: note_off channel=0 note=57 velocity=64 time=0.20833325
EXTRACT: note_off channel=0 note=52 velocity=64 time=0
EXTRACT: note_off channel=0 note=45 velocity=64 time=0
EXTRACT: note_on channel=0 note=57 velocity=80 time=0
EXTRACT: note_on channel=0 note=52 velocity=80 time=0
EXTRACT: note_on channel=0 note=45 velocity=80 time=0
EXTRACT: note_off channel=6 note=64 velocity=64 time=0
EXTRACT: note_off channel=6 note=61 velocity=64 time=0
EXTRACT: note_off channel=6 note=57 velocity=64 time=0
EXTRACT: note_on channel=6 note=57 velocity=80 time=0
EXTRACT: note_off channel=0 note=57 velocity=64 time=0.20833325
EXTRACT: note_off channel=0 note=52 velocity=64 time=0
EXTRACT: note_off channel=0 note=45 velocity=64 time=0
EXTRACT: note_on channel=0 note=57 velocity=80 time=0
EXTRACT: note_on channel=0 note=52 velocity=80 time=0
EXTRACT: note_on channel=0 note=45 velocity=80 time=0
EXTRACT: note_off channel=4 note=71 velocity=64 time=0.20833325
EXTRACT: note_on channel=4 note=73 velocity=80 time=0
EXTRACT: note_off channel=0 note=57 velocity=64 time=0
EXTRACT: note_off channel=0 note=52 velocity=64 time=0
EXTRACT: note_off channel=0 note=45 velocity=64 time=0
EXTRACT: note_on channel=0 note=59 velocity=80 time=0
EXTRACT: note_on channel=0 note=54 velocity=80 time=0
EXTRACT: note_on channel=0 note=47 velocity=80 time=0
EXTRACT: note_off channel=2 note=33 velocity=64 time=0
EXTRACT: note_on channel=2 note=35 velocity=80 time=0
EXTRACT: note_off channel=6 note=57 velocity=64 time=0
EXTRACT: note_on channel=6 note=66 velocity=80 time=0
EXTRACT: note_on channel=6 note=59 velocity=80 time=0
EXTRACT: note_on channel=6 note=62 velocity=80 time=0
EXTRACT: note_off channel=0 note=59 velocity=64 time=0.4166665
EXTRACT: note_off channel=0 note=54 velocity=64 time=0
EXTRACT: note_off channel=0 note=47 velocity=64 time=0
EXTRACT: note_on channel=0 note=59 velocity=80 time=0
EXTRACT: note_on channel=0 note=54 velocity=80 time=0
EXTRACT: note_on channel=0 note=47 velocity=80 time=0
EXTRACT: note_off channel=0 note=59 velocity=64 time=0.20833325
EXTRACT: note_off channel=0 note=54 velocity=64 time=0
EXTRACT: note_off channel=0 note=47 velocity=64 time=0
EXTRACT: note_on channel=0 note=59 velocity=80 time=0
EXTRACT: note_on channel=0 note=54 velocity=80 time=0
EXTRACT: note_on channel=0 note=47 velocity=80 time=0
EXTRACT: note_off channel=0 note=59 velocity=64 time=0.20833325
EXTRACT: note_off channel=0 note=54 velocity=64 time=0
EXTRACT: note_off channel=0 note=47 velocity=64 time=0
EXTRACT: note_on channel=0 note=59 velocity=80 time=0
EXTRACT: note_on channel=0 note=54 velocity=80 time=0
EXTRACT: note_on channel=0 note=47 velocity=80 time=0
EXTRACT: note_off channel=6 note=66 velocity=64 time=0
EXTRACT: note_off channel=6 note=59 velocity=64 time=0
EXTRACT: note_off channel=6 note=62 velocity=64 time=0
EXTRACT: note_on channel=6 note=59 velocity=80 time=0
EXTRACT: note_off channel=0 note=59 velocity=64 time=0.20833325
EXTRACT: note_off channel=0 note=54 velocity=64 time=0
EXTRACT: note_off channel=0 note=47 velocity=64 time=0
EXTRACT: note_on channel=0 note=59 velocity=80 time=0
EXTRACT: note_on channel=0 note=54 velocity=80 time=0
EXTRACT: note_on channel=0 note=47 velocity=80 time=0
EXTRACT: note_off channel=4 note=73 velocity=64 time=0.20833325
EXTRACT: note_on channel=4 note=62 velocity=80 time=0
EXTRACT: note_off channel=0 note=59 velocity=64 time=0
EXTRACT: note_off channel=0 note=54 velocity=64 time=0
EXTRACT: note_off channel=0 note=47 velocity=64 time=0
EXTRACT: note_on channel=0 note=62 velocity=80 time=0
EXTRACT: note_on channel=0 note=57 velocity=80 time=0
EXTRACT: note_on channel=0 note=50 velocity=80 time=0
EXTRACT: note_off channel=2 note=35 velocity=64 time=0
EXTRACT: note_on channel=2 note=38 velocity=80 time=0
EXTRACT: note_off channel=6 note=59 velocity=64 time=0
EXTRACT: note_on channel=6 note=66 velocity=80 time=0
EXTRACT: note_on channel=6 note=62 velocity=80 time=0
EXTRACT: note_on channel=6 note=69 velocity=80 time=0
EXTRACT: note_off channel=0 note=62 velocity=64 time=0.4166665
EXTRACT: note_off channel=0 note=57 velocity=64 time=0
EXTRACT: note_off channel=0 note=50 velocity=64 time=0
EXTRACT: note_on channel=0 note=62 velocity=80 time=0
EXTRACT: note_on channel=0 note=57 velocity=80 time=0
EXTRACT: note_on channel=0 note=50 velocity=80 time=0
EXTRACT: note_off channel=0 note=62 velocity=64 time=0.20833325
EXTRACT: note_off channel=0 note=57 velocity=64 time=0
EXTRACT: note_off channel=0 note=50 velocity=64 time=0
EXTRACT: note_on channel=0 note=62 velocity=80 time=0
EXTRACT: note_on channel=0 note=57 velocity=80 time=0
EXTRACT: note_on channel=0 note=50 velocity=80 time=0
EXTRACT: note_off channel=0 note=62 velocity=64 time=0.20833325
EXTRACT: note_off channel=0 note=57 velocity=64 time=0
EXTRACT: note_off channel=0 note=50 velocity=64 time=0
EXTRACT: note_on channel=0 note=62 velocity=80 time=0
EXTRACT: note_on channel=0 note=57 velocity=80 time=0
EXTRACT: note_on channel=0 note=50 velocity=80 time=0
EXTRACT: note_off channel=6 note=66 velocity=64 time=0
EXTRACT: note_off channel=6 note=62 velocity=64 time=0
EXTRACT: note_off channel=6 note=69 velocity=64 time=0
EXTRACT: note_on channel=6 note=66 velocity=80 time=0
EXTRACT: note_off channel=0 note=62 velocity=64 time=0.20833325
EXTRACT: note_off channel=0 note=57 velocity=64 time=0
EXTRACT: note_off channel=0 note=50 velocity=64 time=0
EXTRACT: note_on channel=0 note=62 velocity=80 time=0
EXTRACT: note_on channel=0 note=57 velocity=80 time=0
EXTRACT: note_on channel=0 note=50 velocity=80 time=0
EXTRACT: note_off channel=6 note=66 velocity=64 time=0
EXTRACT: note_on channel=6 note=69 velocity=80 time=0
EXTRACT: note_off channel=4 note=62 velocity=64 time=0.20833325
EXTRACT: note_off channel=0 note=62 velocity=64 time=0
EXTRACT: note_off channel=0 note=57 velocity=64 time=0
EXTRACT: note_off channel=0 note=50 velocity=64 time=0
EXTRACT: note_on channel=0 note=62 velocity=80 time=0
EXTRACT: note_on channel=0 note=57 velocity=80 time=0
EXTRACT: note_on channel=0 note=50 velocity=80 time=0
EXTRACT: note_off channel=2 note=38 velocity=64 time=0
EXTRACT: note_on channel=2 note=38 velocity=80 time=0
EXTRACT: note_off channel=6 note=69 velocity=64 time=0
EXTRACT: note_on channel=6 note=74 velocity=80 time=0
EXTRACT: note_on channel=4 note=64 velocity=80 time=0.4166665
EXTRACT: note_off channel=0 note=62 velocity=64 time=0
EXTRACT: note_off channel=0 note=57 velocity=64 time=0
EXTRACT: note_off channel=0 note=50 velocity=64 time=0
EXTRACT: note_on channel=0 note=62 velocity=80 time=0
EXTRACT: note_on channel=0 note=57 velocity=80 time=0
EXTRACT: note_on channel=0 note=50 velocity=80 time=0
EXTRACT: note_off channel=6 note=74 velocity=64 time=0
EXTRACT: note_on channel=6 note=69 velocity=80 time=0
EXTRACT: note_off channel=0 note=62 velocity=64 time=0.20833325
EXTRACT: note_off channel=0 note=57 velocity=64 time=0
EXTRACT: note_off channel=0 note=50 velocity=64 time=0
EXTRACT: note_on channel=0 note=62 velocity=80 time=0
EXTRACT: note_on channel=0 note=57 velocity=80 time=0
EXTRACT: note_on channel=0 note=50 velocity=80 time=0
EXTRACT: note_off channel=4 note=64 velocity=64 time=0.20833325
EXTRACT: note_on channel=4 note=64 velocity=80 time=0
EXTRACT: note_off channel=0 note=62 velocity=64 time=0
EXTRACT: note_off channel=0 note=57 velocity=64 time=0
EXTRACT: note_off channel=0 note=50 velocity=64 time=0
EXTRACT: note_on channel=0 note=62 velocity=80 time=0
EXTRACT: note_on channel=0 note=57 velocity=80 time=0
EXTRACT: note_on channel=0 note=50 velocity=80 time=0
EXTRACT: note_off channel=6 note=69 velocity=64 time=0
EXTRACT: note_on channel=6 note=66 velocity=80 time=0
EXTRACT: note_off channel=0 note=62 velocity=64 time=0.20833325
EXTRACT: note_off channel=0 note=57 velocity=64 time=0
EXTRACT: note_off channel=0 note=50 velocity=64 time=0
EXTRACT: note_on channel=0 note=62 velocity=80 time=0
EXTRACT: note_on channel=0 note=57 velocity=80 time=0
EXTRACT: note_on channel=0 note=50 velocity=80 time=0
EXTRACT: note_off channel=4 note=64 velocity=64 time=0.20833325
EXTRACT: note_off channel=0 note=62 velocity=64 time=0
EXTRACT: note_off channel=0 note=57 velocity=64 time=0
EXTRACT: note_off channel=0 note=50 velocity=64 time=0
EXTRACT: note_on channel=0 note=57 velocity=80 time=0
EXTRACT: note_on channel=0 note=52 velocity=80 time=0
EXTRACT: note_on channel=0 note=45 velocity=80 time=0
EXTRACT: note_off channel=2 note=38 velocity=64 time=0
EXTRACT: note_on channel=2 note=33 velocity=80 time=0
EXTRACT: note_off channel=6 note=66 velocity=64 time=0
EXTRACT: note_on channel=6 note=64 velocity=80 time=0
EXTRACT: note_on channel=6 note=61 velocity=80 time=0
EXTRACT: note_on channel=6 note=57 velocity=80 time=0
EXTRACT: note_on channel=4 note=71 velocity=80 time=0.4166665
EXTRACT: note_off channel=0 note=57 velocity=64 time=0
EXTRACT: note_off channel=0 note=52 velocity=64 time=0
EXTRACT: note_off channel=0 note=45 velocity=64 time=0
EXTRACT: note_on channel=0 note=57 velocity=80 time=0
EXTRACT: note_on channel=0 note=52 velocity=80 time=0
EXTRACT: note_on channel=0 note=45 velocity=80 time=0
EXTRACT: note_off channel=4 note=71 velocity=64 time=0.20833325
EXTRACT: note_on channel=4 note=71 velocity=80 time=0
EXTRACT: note_off channel=0 note=57 velocity=64 time=0
EXTRACT: note_off channel=0 note=52 velocity=64 time=0
EXTRACT: note_off channel=0 note=45 velocity=64 time=0
EXTRACT: note_on channel=0 note=57 velocity=80 time=0
EXTRACT: note_on channel=0 note=52 velocity=80 time=0
EXTRACT: note_on channel=0 note=45 velocity=80 time=0
EXTRACT: note_off channel=4 note=71 velocity=64 time=0.20833325
EXTRACT: note_on channel=4 note=71 velocity=80 time=0
EXTRACT: note_off channel=0 note=57 velocity=64 time=0
EXTRACT: note_off channel=0 note=52 velocity=64 time=0
EXTRACT: note_off channel=0 note=45 velocity=64 time=0
EXTRACT: note_on channel=0 note=57 velocity=80 time=0
EXTRACT: note_on channel=0 note=52 velocity=80 time=0
EXTRACT: note_on channel=0 note=45 velocity=80 time=0
EXTRACT: note_off channel=6 note=64 velocity=64 time=0
EXTRACT: note_off channel=6 note=61 velocity=64 time=0
EXTRACT: note_off channel=6 note=57 velocity=64 time=0
EXTRACT: note_on channel=6 note=57 velocity=80 time=0
EXTRACT: note_off channel=4 note=71 velocity=64 time=0.20833325
EXTRACT: note_on channel=4 note=71 velocity=80 time=0
EXTRACT: note_off channel=0 note=57 velocity=64 time=0
EXTRACT: note_off channel=0 note=52 velocity=64 time=0
EXTRACT: note_off channel=0 note=45 velocity=64 time=0
EXTRACT: note_on channel=0 note=57 velocity=80 time=0
EXTRACT: note_on channel=0 note=52 velocity=80 time=0
EXTRACT: note_on channel=0 note=45 velocity=80 time=0
EXTRACT: note_off channel=4 note=71 velocity=64 time=0.20833325
EXTRACT: note_on channel=4 note=71 velocity=80 time=0
EXTRACT: note_off channel=0 note=57 velocity=64 time=0
EXTRACT: note_off channel=0 note=52 velocity=64 time=0
EXTRACT: note_off channel=0 note=45 velocity=64 time=0
EXTRACT: note_on channel=0 note=59 velocity=80 time=0
EXTRACT: note_on channel=0 note=54 velocity=80 time=0
EXTRACT: note_on channel=0 note=47 velocity=80 time=0
EXTRACT: note_off channel=2 note=33 velocity=64 time=0
EXTRACT: note_on channel=2 note=35 velocity=80 time=0
EXTRACT: note_off channel=6 note=57 velocity=64 time=0
EXTRACT: note_on channel=6 note=66 velocity=80 time=0
EXTRACT: note_on channel=6 note=59 velocity=80 time=0
EXTRACT: note_on channel=6 note=62 velocity=80 time=0
EXTRACT: note_off channel=4 note=71 velocity=64 time=0.4166665
EXTRACT: note_on channel=4 note=69 velocity=80 time=0
EXTRACT: note_off channel=0 note=59 velocity=64 time=0
EXTRACT: note_off channel=0 note=54 velocity=64 time=0
EXTRACT: note_off channel=0 note=47 velocity=64 time=0
EXTRACT: note_on channel=0 note=59 velocity=80 time=0
EXTRACT: note_on channel=0 note=54 velocity=80 time=0
EXTRACT: note_on channel=0 note=47 velocity=80 time=0
EXTRACT: note_off channel=0 note=59 velocity=64 time=0.20833325
EXTRACT: note_off channel=0 note=54 velocity=64 time=0
EXTRACT: note_off channel=0 note=47 velocity=64 time=0
EXTRACT: note_on channel=0 note=59 velocity=80 time=0
EXTRACT: note_on channel=0 note=54 velocity=80 time=0
EXTRACT: note_on channel=0 note=47 velocity=80 time=0
EXTRACT: note_off channel=4 note=69 velocity=64 time=0.20833325
EXTRACT: note_on channel=4 note=68 velocity=80 time=0
EXTRACT: note_off channel=0 note=59 velocity=64 time=0
EXTRACT: note_off channel=0 note=54 velocity=64 time=0
EXTRACT: note_off channel=0 note=47 velocity=64 time=0
EXTRACT: note_on channel=0 note=59 velocity=80 time=0
EXTRACT: note_on channel=0 note=54 velocity=80 time=0
EXTRACT: note_on channel=0 note=47 velocity=80 time=0
EXTRACT: note_off channel=6 note=66 velocity=64 time=0
EXTRACT: note_off channel=6 note=59 velocity=64 time=0
EXTRACT: note_off channel=6 note=62 velocity=64 time=0
EXTRACT: note_on channel=6 note=59 velocity=80 time=0
EXTRACT: note_off channel=0 note=59 velocity=64 time=0.20833325
EXTRACT: note_off channel=0 note=54 velocity=64 time=0
EXTRACT: note_off channel=0 note=47 velocity=64 time=0
EXTRACT: note_on channel=0 note=59 velocity=80 time=0
EXTRACT: note_on channel=0 note=54 velocity=80 time=0
EXTRACT: note_on channel=0 note=47 velocity=80 time=0
EXTRACT: note_off channel=4 note=68 velocity=64 time=0.20833325
EXTRACT: note_on channel=4 note=69 velocity=80 time=0
EXTRACT: note_off channel=0 note=59 velocity=64 time=0
EXTRACT: note_off channel=0 note=54 velocity=64 time=0
EXTRACT: note_off channel=0 note=47 velocity=64 time=0
EXTRACT: note_on channel=0 note=62 velocity=80 time=0
EXTRACT: note_on channel=0 note=57 velocity=80 time=0
EXTRACT: note_on channel=0 note=50 velocity=80 time=0
EXTRACT: note_off channel=2 note=35 velocity=64 time=0
EXTRACT: note_on channel=2 note=38 velocity=80 time=0
EXTRACT: note_off channel=6 note=59 velocity=64 time=0
EXTRACT: note_on channel=6 note=66 velocity=80 time=0
EXTRACT: note_on channel=6 note=62 velocity=80 time=0
EXTRACT: note_on channel=6 note=69 velocity=80 time=0
EXTRACT: note_off channel=4 note=69 velocity=64 time=0.4166665
EXTRACT: note_on channel=4 note=68 velocity=80 time=0
EXTRACT: note_off channel=0 note=62 velocity=64 time=0
EXTRACT: note_off channel=0 note=57 velocity=64 time=0
EXTRACT: note_off channel=0 note=50 velocity=64 time=0
EXTRACT: note_on channel=0 note=62 velocity=80 time=0
EXTRACT: note_on channel=0 note=57 velocity=80 time=0
EXTRACT: note_on channel=0 note=50 velocity=80 time=0
EXTRACT: note_off channel=0 note=62 velocity=64 time=0.20833325
EXTRACT: note_off channel=0 note=57 velocity=64 time=0
EXTRACT: note_off channel=0 note=50 velocity=64 time=0
EXTRACT: note_on channel=0 note=62 velocity=80 time=0
EXTRACT: note_on channel=0 note=57 velocity=80 time=0
EXTRACT: note_on channel=0 note=50 velocity=80 time=0
EXTRACT: note_off channel=4 note=68 velocity=64 time=0.20833325
EXTRACT: note_on channel=4 note=66 velocity=80 time=0
EXTRACT: note_off channel=0 note=62 velocity=64 time=0
EXTRACT: note_off channel=0 note=57 velocity=64 time=0
EXTRACT: note_off channel=0 note=50 velocity=64 time=0
EXTRACT: note_on channel=0 note=62 velocity=80 time=0
EXTRACT: note_on channel=0 note=57 velocity=80 time=0
EXTRACT: note_on channel=0 note=50 velocity=80 time=0
EXTRACT: note_off channel=6 note=66 velocity=64 time=0
EXTRACT: note_off channel=6 note=62 velocity=64 time=0
EXTRACT: note_off channel=6 note=69 velocity=64 time=0
EXTRACT: note_on channel=6 note=66 velocity=80 time=0
EXTRACT: note_off channel=0 note=62 velocity=64 time=0.20833325
EXTRACT: note_off channel=0 note=57 velocity=64 time=0
EXTRACT: note_off channel=0 note=50 velocity=64 time=0
EXTRACT: note_on channel=0 note=62 velocity=80 time=0
EXTRACT: note_on channel=0 note=57 velocity=80 time=0
EXTRACT: note_on channel=0 note=50 velocity=80 time=0
EXTRACT: note_off channel=6 note=66 velocity=64 time=0
EXTRACT: note_on channel=6 note=69 velocity=80 time=0
EXTRACT: note_off channel=4 note=66 velocity=64 time=0.20833325
EXTRACT: note_off channel=0 note=62 velocity=64 time=0
EXTRACT: note_off channel=0 note=57 velocity=64 time=0
EXTRACT: note_off channel=0 note=50 velocity=64 time=0
EXTRACT: note_on channel=0 note=62 velocity=80 time=0
EXTRACT: note_on channel=0 note=57 velocity=80 time=0
EXTRACT: note_on channel=0 note=50 velocity=80 time=0
EXTRACT: note_off channel=2 note=38 velocity=64 time=0
EXTRACT: note_on channel=2 note=38 velocity=80 time=0
EXTRACT: note_off channel=6 note=69 velocity=64 time=0
EXTRACT: note_on channel=6 note=74 velocity=80 time=0
EXTRACT: note_off channel=0 note=62 velocity=64 time=0.4166665
EXTRACT: note_off channel=0 note=57 velocity=64 time=0
EXTRACT: note_off channel=0 note=50 velocity=64 time=0
EXTRACT: note_on channel=0 note=62 velocity=80 time=0
EXTRACT: note_on channel=0 note=57 velocity=80 time=0
EXTRACT: note_on channel=0 note=50 velocity=80 time=0
EXTRACT: note_off channel=6 note=74 velocity=64 time=0
EXTRACT: note_on channel=6 note=69 velocity=80 time=0
EXTRACT: note_off channel=0 note=62 velocity=64 time=0.20833325
EXTRACT: note_off channel=0 note=57 velocity=64 time=0
EXTRACT: note_off channel=0 note=50 velocity=64 time=0
EXTRACT: note_on channel=0 note=62 velocity=80 time=0
EXTRACT: note_on channel=0 note=57 velocity=80 time=0
EXTRACT: note_on channel=0 note=50 velocity=80 time=0
EXTRACT: note_on channel=4 note=66 velocity=80 time=0.20833325
EXTRACT: note_off channel=0 note=62 velocity=64 time=0
EXTRACT: note_off channel=0 note=57 velocity=64 time=0
EXTRACT: note_off channel=0 note=50 velocity=64 time=0
EXTRACT: note_on channel=0 note=62 velocity=80 time=0
EXTRACT: note_on channel=0 note=57 velocity=80 time=0
EXTRACT: note_on channel=0 note=50 velocity=80 time=0
EXTRACT: note_off channel=6 note=69 velocity=64 time=0
EXTRACT: note_on channel=6 note=66 velocity=80 time=0
EXTRACT: note_off channel=4 note=66 velocity=64 time=0.20833325
EXTRACT: note_on channel=4 note=68 velocity=80 time=0
EXTRACT: note_off channel=0 note=62 velocity=64 time=0
EXTRACT: note_off channel=0 note=57 velocity=64 time=0
EXTRACT: note_off channel=0 note=50 velocity=64 time=0
EXTRACT: note_on channel=0 note=62 velocity=80 time=0
EXTRACT: note_on channel=0 note=57 velocity=80 time=0
EXTRACT: note_on channel=0 note=50 velocity=80 time=0
EXTRACT: note_off channel=4 note=68 velocity=64 time=0.20833325
EXTRACT: note_on channel=4 note=69 velocity=80 time=0
EXTRACT: note_off channel=0 note=62 velocity=64 time=0
EXTRACT: note_off channel=0 note=57 velocity=64 time=0
EXTRACT: note_off channel=0 note=50 velocity=64 time=0
EXTRACT: note_on channel=0 note=54 velocity=80 time=0
EXTRACT: note_on channel=0 note=49 velocity=80 time=0
EXTRACT: note_on channel=0 note=42 velocity=80 time=0
EXTRACT: note_off channel=2 note=38 velocity=64 time=0
EXTRACT: note_on channel=2 note=30 velocity=80 time=0
EXTRACT: note_off channel=6 note=66 velocity=64 time=0
EXTRACT: note_on channel=6 note=73 velocity=80 time=0
EXTRACT: note_on channel=6 note=69 velocity=80 time=0
EXTRACT: note_on channel=6 note=66 velocity=80 time=0
EXTRACT: note_off channel=4 note=69 velocity=64 time=0.4166665
EXTRACT: note_on channel=4 note=68 velocity=80 time=0
EXTRACT: note_off channel=0 note=54 velocity=64 time=0
EXTRACT: note_off channel=0 note=49 velocity=64 time=0
EXTRACT: note_off channel=0 note=42 velocity=64 time=0
EXTRACT: note_on channel=0 note=54 velocity=80 time=0
EXTRACT: note_on channel=0 note=49 velocity=80 time=0
EXTRACT: note_on channel=0 note=42 velocity=80 time=0
EXTRACT: note_off channel=0 note=54 velocity=64 time=0.20833325
EXTRACT: note_off channel=0 note=49 velocity=64 time=0
EXTRACT: note_off channel=0 note=42 velocity=64 time=0
EXTRACT: note_on channel=0 note=54 velocity=80 time=0
EXTRACT: note_on channel=0 note=49 velocity=80 time=0
EXTRACT: note_on channel=0 note=42 velocity=80 time=0
EXTRACT: note_off channel=0 note=54 velocity=64 time=0.20833325
EXTRACT: note_off channel=0 note=49 velocity=64 time=0
EXTRACT: note_off channel=0 note=42 velocity=64 time=0
EXTRACT: note_on channel=0 note=54 velocity=80 time=0
EXTRACT: note_on channel=0 note=49 velocity=80 time=0
EXTRACT: note_on channel=0 note=42 velocity=80 time=0
EXTRACT: note_off channel=6 note=73 velocity=64 time=0
EXTRACT: note_off channel=6 note=69 velocity=64 time=0
EXTRACT: note_off channel=6 note=66 velocity=64 time=0
EXTRACT: note_on channel=6 note=66 velocity=80 time=0
EXTRACT: note_off channel=4 note=68 velocity=64 time=0.20833325
EXTRACT: note_on channel=4 note=66 velocity=80 time=0
EXTRACT: note_off channel=0 note=54 velocity=64 time=0
EXTRACT: note_off channel=0 note=49 velocity=64 time=0
EXTRACT: note_off channel=0 note=42 velocity=64 time=0
EXTRACT: note_on channel=0 note=54 velocity=80 time=0
EXTRACT: note_on channel=0 note=49 velocity=80 time=0
EXTRACT: note_on channel=0 note=42 velocity=80 time=0
EXTRACT: note_off channel=4 note=66 velocity=64 time=0.20833325
EXTRACT: note_on channel=4 note=64 velocity=80 time=0
EXTRACT: note_off channel=0 note=54 velocity=64 time=0
EXTRACT: note_off channel=0 note=49 velocity=64 time=0
EXTRACT: note_off channel=0 note=42 velocity=64 time=0
EXTRACT: note_on channel=0 note=64 velocity=80 time=0
EXTRACT: note_on channel=0 note=59 velocity=80 time=0
EXTRACT: note_on channel=0 note=52 velocity=80 time=0
EXTRACT: note_off channel=2 note=30 velocity=64 time=0
EXTRACT: note_on channel=2 note=40 velocity=80 time=0
EXTRACT: note_off channel=6 note=66 velocity=64 time=0
EXTRACT: note_on channel=6 note=64 velocity=80 time=0
EXTRACT: note_on channel=6 note=68 velocity=80 time=0
EXTRACT: note_on channel=6 note=71 velocity=80 time=0
EXTRACT: note_off channel=0 note=64 velocity=64 time=0.4166665
EXTRACT: note_off channel=0 note=59 velocity=64 time=0
EXTRACT: note_off channel=0 note=52 velocity=64 time=0
EXTRACT: note_on channel=0 note=64 velocity=80 time=0
EXTRACT: note_on channel=0 note=59 velocity=80 time=0
EXTRACT: note_on channel=0 note=52 velocity=80 time=0
EXTRACT: note_off channel=0 note=64 velocity=64 time=0.20833325
EXTRACT: note_off channel=0 note=59 velocity=64 time=0
EXTRACT: note_off channel=0 note=52 velocity=64 time=0
EXTRACT: note_on channel=0 note=64 velocity=80 time=0
EXTRACT: note_on channel=0 note=59 velocity=80 time=0
EXTRACT: note_on channel=0 note=52 velocity=80 time=0
EXTRACT: note_off channel=4 note=64 velocity=64 time=0.20833325
EXTRACT: note_on channel=4 note=68 velocity=80 time=0
EXTRACT: note_off channel=0 note=64 velocity=64 time=0
EXTRACT: note_off channel=0 note=59 velocity=64 time=0
EXTRACT: note_off channel=0 note=52 velocity=64 time=0
EXTRACT: note_on channel=0 note=64 velocity=80 time=0
EXTRACT: note_on channel=0 note=59 velocity=80 time=0
EXTRACT: note_on channel=0 note=52 velocity=80 time=0
EXTRACT: note_off channel=6 note=64 velocity=64 time=0
EXTRACT: note_off channel=6 note=68 velocity=64 time=0
EXTRACT: note_off channel=6 note=71 velocity=64 time=0
EXTRACT: note_on channel=6 note=64 velocity=80 time=0
EXTRACT: note_off channel=0 note=64 velocity=64 time=0.20833325
EXTRACT: note_off channel=0 note=59 velocity=64 time=0
EXTRACT: note_off channel=0 note=52 velocity=64 time=0
EXTRACT: note_on channel=0 note=64 velocity=80 time=0
EXTRACT: note_on channel=0 note=59 velocity=80 time=0
EXTRACT: note_on channel=0 note=52 velocity=80 time=0
EXTRACT: note_off channel=4 note=68 velocity=64 time=0.20833325
EXTRACT: note_on channel=4 note=66 velocity=80 time=0
EXTRACT: note_off channel=0 note=64 velocity=64 time=0
EXTRACT: note_off channel=0 note=59 velocity=64 time=0
EXTRACT: note_off channel=0 note=52 velocity=64 time=0
EXTRACT: note_on channel=0 note=62 velocity=80 time=0
EXTRACT: note_on channel=0 note=57 velocity=80 time=0
EXTRACT: note_on channel=0 note=50 velocity=80 time=0
EXTRACT: note_off channel=2 note=40 velocity=64 time=0
EXTRACT: note_on channel=2 note=38 velocity=80 time=0
EXTRACT: note_off channel=6 note=64 velocity=64 time=0
EXTRACT: note_on channel=6 note=66 velocity=80 time=0
EXTRACT: note_on channel=6 note=62 velocity=80 time=0
EXTRACT: note_on channel=6 note=69 velocity=80 time=0
EXTRACT: note_off channel=0 note=62 velocity=64 time=0.4166665
EXTRACT: note_off channel=0 note=57 velocity=64 time=0
EXTRACT: note_off channel=0 note=50 velocity=64 time=0
EXTRACT: note_on channel=0 note=62 velocity=80 time=0
EXTRACT: note_on channel=0 note=57 velocity=80 time=0
EXTRACT: note_on channel=0 note=50 velocity=80 time=0
EXTRACT: note_off channel=0 note=62 velocity=64 time=0.20833325
EXTRACT: note_off channel=0 note=57 velocity=64 time=0
EXTRACT: note_off channel=0 note=50 velocity=64 time=0
EXTRACT: note_on channel=0 note=62 velocity=80 time=0
EXTRACT: note_on channel=0 note=57 velocity=80 time=0
EXTRACT: note_on channel=0 note=50 velocity=80 time=0
EXTRACT: note_off channel=0 note=62 velocity=64 time=0.20833325
EXTRACT: note_off channel=0 note=57 velocity=64 time=0
EXTRACT: note_off channel=0 note=50 velocity=64 time=0
EXTRACT: note_on channel=0 note=62 velocity=80 time=0
EXTRACT: note_on channel=0 note=57 velocity=80 time=0
EXTRACT: note_on channel=0 note=50 velocity=80 time=0
EXTRACT: note_off channel=6 note=66 velocity=64 time=0
EXTRACT: note_off channel=6 note=62 velocity=64 time=0
EXTRACT: note_off channel=6 note=69 velocity=64 time=0
EXTRACT: note_on channel=6 note=66 velocity=80 time=0
EXTRACT: note_off channel=0 note=62 velocity=64 time=0.20833325
EXTRACT: note_off channel=0 note=57 velocity=64 time=0
EXTRACT: note_off channel=0 note=50 velocity=64 time=0
EXTRACT: note_on channel=0 note=62 velocity=80 time=0
EXTRACT: note_on channel=0 note=57 velocity=80 time=0
EXTRACT: note_on channel=0 note=50 velocity=80 time=0
EXTRACT: note_off channel=6 note=66 velocity=64 time=0
EXTRACT: note_on channel=6 note=69 velocity=80 time=0
EXTRACT: note_off channel=4 note=66 velocity=64 time=0.20833325
EXTRACT: note_off channel=0 note=62 velocity=64 time=0
EXTRACT: note_off channel=0 note=57 velocity=64 time=0
EXTRACT: note_off channel=0 note=50 velocity=64 time=0
EXTRACT: note_on channel=0 note=62 velocity=80 time=0
EXTRACT: note_on channel=0 note=57 velocity=80 time=0
EXTRACT: note_on channel=0 note=50 velocity=80 time=0
EXTRACT: note_off channel=2 note=38 velocity=64 time=0
EXTRACT: note_on channel=2 note=38 velocity=80 time=0
EXTRACT: note_off channel=6 note=69 velocity=64 time=0
EXTRACT: note_on channel=6 note=74 velocity=80 time=0
EXTRACT: note_on channel=4 note=57 velocity=80 time=0.4166665
EXTRACT: note_off channel=0 note=62 velocity=64 time=0
EXTRACT: note_off channel=0 note=57 velocity=64 time=0
EXTRACT: note_off channel=0 note=50 velocity=64 time=0
EXTRACT: note_on channel=0 note=62 velocity=80 time=0
EXTRACT: note_on channel=0 note=57 velocity=80 time=0
EXTRACT: note_on channel=0 note=50 velocity=80 time=0
EXTRACT: note_off channel=0 note=62 velocity=64 time=0.20833325
EXTRACT: note_off channel=0 note=57 velocity=64 time=0
EXTRACT: note_off channel=0 note=50 velocity=64 time=0
EXTRACT: note_on channel=0 note=62 velocity=80 time=0
EXTRACT: note_on channel=0 note=57 velocity=80 time=0
EXTRACT: note_on channel=0 note=50 velocity=80 time=0
EXTRACT: note_off channel=4 note=57 velocity=64 time=0.20833325
EXTRACT: note_on channel=4 note=59 velocity=80 time=0
EXTRACT: note_off channel=0 note=62 velocity=64 time=0
EXTRACT: note_off channel=0 note=57 velocity=64 time=0
EXTRACT: note_off channel=0 note=50 velocity=64 time=0
EXTRACT: note_on channel=0 note=62 velocity=80 time=0
EXTRACT: note_on channel=0 note=57 velocity=80 time=0
EXTRACT: note_on channel=0 note=50 velocity=80 time=0
EXTRACT: note_off channel=0 note=62 velocity=64 time=0.20833325
EXTRACT: note_off channel=0 note=57 velocity=64 time=0
EXTRACT: note_off channel=0 note=50 velocity=64 time=0
EXTRACT: note_on channel=0 note=62 velocity=80 time=0
EXTRACT: note_on channel=0 note=57 velocity=80 time=0
EXTRACT: note_on channel=0 note=50 velocity=80 time=0
EXTRACT: note_off channel=4 note=59 velocity=64 time=0.20833325
EXTRACT: note_on channel=4 note=61 velocity=80 time=0
EXTRACT: note_off channel=0 note=62 velocity=64 time=0
EXTRACT: note_off channel=0 note=57 velocity=64 time=0
EXTRACT: note_off channel=0 note=50 velocity=64 time=0
EXTRACT: note_on channel=0 note=54 velocity=80 time=0
EXTRACT: note_on channel=0 note=49 velocity=80 time=0
EXTRACT: note_on channel=0 note=42 velocity=80 time=0
EXTRACT: note_off channel=2 note=38 velocity=64 time=0
EXTRACT: note_on channel=2 note=30 velocity=80 time=0
EXTRACT: note_off channel=6 note=74 velocity=64 time=0
EXTRACT: note_on channel=6 note=61 velocity=80 time=0
EXTRACT: note_on channel=6 note=57 velocity=80 time=0
EXTRACT: note_on channel=6 note=54 velocity=80 time=0
EXTRACT: note_off channel=0 note=54 velocity=64 time=0.4166665
EXTRACT: note_off channel=0 note=49 velocity=64 time=0
EXTRACT: note_off channel=0 note=42 velocity=64 time=0
EXTRACT: note_on channel=0 note=54 velocity=80 time=0
EXTRACT: note_on channel=0 note=49 velocity=80 time=0
EXTRACT: note_on channel=0 note=42 velocity=80 time=0
EXTRACT: note_off channel=0 note=54 velocity=64 time=0.20833325
EXTRACT: note_off channel=0 note=49 velocity=64 time=0
EXTRACT: note_off channel=0 note=42 velocity=64 time=0
EXTRACT: note_on channel=0 note=54 velocity=80 time=0
EXTRACT: note_on channel=0 note=49 velocity=80 time=0
EXTRACT: note_on channel=0 note=42 velocity=80 time=0
EXTRACT: note_off channel=0 note=54 velocity=64 time=0.20833325
EXTRACT: note_off channel=0 note=49 velocity=64 time=0
EXTRACT: note_off channel=0 note=42 velocity=64 time=0
EXTRACT: note_on channel=0 note=54 velocity=80 time=0
EXTRACT: note_on channel=0 note=49 velocity=80 time=0
EXTRACT: note_on channel=0 note=42 velocity=80 time=0
EXTRACT: note_off channel=6 note=61 velocity=64 time=0
EXTRACT: note_off channel=6 note=57 velocity=64 time=0
EXTRACT: note_off channel=6 note=54 velocity=64 time=0
EXTRACT: note_off channel=0 note=54 velocity=64 time=0.20833325
EXTRACT: note_off channel=0 note=49 velocity=64 time=0
EXTRACT: note_off channel=0 note=42 velocity=64 time=0
EXTRACT: note_on channel=0 note=54 velocity=80 time=0
EXTRACT: note_on channel=0 note=49 velocity=80 time=0
EXTRACT: note_on channel=0 note=42 velocity=80 time=0
EXTRACT: note_on channel=6 note=57 velocity=80 time=0
EXTRACT: note_off channel=0 note=54 velocity=64 time=0.20833325
EXTRACT: note_off channel=0 note=49 velocity=64 time=0
EXTRACT: note_off channel=0 note=42 velocity=64 time=0
EXTRACT: note_on channel=0 note=54 velocity=80 time=0
EXTRACT: note_on channel=0 note=49 velocity=80 time=0
EXTRACT: note_on channel=0 note=42 velocity=80 time=0
EXTRACT: note_off channel=2 note=30 velocity=64 time=0
EXTRACT: note_on channel=2 note=30 velocity=80 time=0
EXTRACT: note_off channel=6 note=57 velocity=64 time=0
EXTRACT: note_on channel=6 note=61 velocity=80 time=0
EXTRACT: note_off channel=0 note=54 velocity=64 time=0.4166665
EXTRACT: note_off channel=0 note=49 velocity=64 time=0
EXTRACT: note_off channel=0 note=42 velocity=64 time=0
EXTRACT: note_on channel=0 note=54 velocity=80 time=0
EXTRACT: note_on channel=0 note=49 velocity=80 time=0
EXTRACT: note_on channel=0 note=42 velocity=80 time=0
EXTRACT: note_off channel=6 note=61 velocity=64 time=0
EXTRACT: note_on channel=6 note=57 velocity=80 time=0
EXTRACT: note_off channel=0 note=54 velocity=64 time=0.20833325
EXTRACT: note_off channel=0 note=49 velocity=64 time=0
EXTRACT: note_off channel=0 note=42 velocity=64 time=0
EXTRACT: note_on channel=0 note=54 velocity=80 time=0
EXTRACT: note_on channel=0 note=49 velocity=80 time=0
EXTRACT: note_on channel=0 note=42 velocity=80 time=0
EXTRACT: note_off channel=0 note=54 velocity=64 time=0.20833325
EXTRACT: note_off channel=0 note=49 velocity=64 time=0
EXTRACT: note_off channel=0 note=42 velocity=64 time=0
EXTRACT: note_on channel=0 note=54 velocity=80 time=0
EXTRACT: note_on channel=0 note=49 velocity=80 time=0
EXTRACT: note_on channel=0 note=42 velocity=80 time=0
EXTRACT: note_off channel=6 note=57 velocity=64 time=0
EXTRACT: note_on channel=6 note=54 velocity=80 time=0
EXTRACT: note_off channel=0 note=54 velocity=64 time=0.20833325
EXTRACT: note_off channel=0 note=49 velocity=64 time=0
EXTRACT: note_off channel=0 note=42 velocity=64 time=0
EXTRACT: note_on channel=0 note=54 velocity=80 time=0
EXTRACT: note_on channel=0 note=49 velocity=80 time=0
EXTRACT: note_on channel=0 note=42 velocity=80 time=0
EXTRACT: note_off channel=4 note=61 velocity=64 time=0.20833325
EXTRACT: note_off channel=0 note=54 velocity=64 time=0
EXTRACT: note_off channel=0 note=49 velocity=64 time=0
EXTRACT: note_off channel=0 note=42 velocity=64 time=0
EXTRACT: note_on channel=0 note=62 velocity=80 time=0
EXTRACT: note_on channel=0 note=57 velocity=80 time=0
EXTRACT: note_on channel=0 note=50 velocity=80 time=0
EXTRACT: note_off channel=2 note=30 velocity=64 time=0
EXTRACT: note_on channel=2 note=38 velocity=80 time=0
EXTRACT: note_off channel=6 note=54 velocity=64 time=0
EXTRACT: note_on channel=6 note=57 velocity=80 time=0
EXTRACT: note_on channel=6 note=54 velocity=80 time=0
EXTRACT: note_on channel=6 note=50 velocity=80 time=0
EXTRACT: note_off channel=0 note=62 velocity=64 time=0.4166665
EXTRACT: note_off channel=0 note=57 velocity=64 time=0
EXTRACT: note_off channel=0 note=50 velocity=64 time=0
EXTRACT: note_on channel=0 note=62 velocity=80 time=0
EXTRACT: note_on channel=0 note=57 velocity=80 time=0
EXTRACT: note_on channel=0 note=50 velocity=80 time=0
EXTRACT: note_off channel=0 note=62 velocity=64 time=0.20833325
EXTRACT: note_off channel=0 note=57 velocity=64 time=0
EXTRACT: note_off channel=0 note=50 velocity=64 time=0
EXTRACT: note_on channel=0 note=62 velocity=80 time=0
EXTRACT: note_on channel=0 note=57 velocity=80 time=0
EXTRACT: note_on channel=0 note=50 velocity=80 time=0
EXTRACT: note_off channel=0 note=62 velocity=64 time=0.20833325
EXTRACT: note_off channel=0 note=57 velocity=64 time=0
EXTRACT: note_off channel=0 note=50 velocity=64 time=0
EXTRACT: note_on channel=0 note=62 velocity=80 time=0
EXTRACT: note_on channel=0 note=57 velocity=80 time=0
EXTRACT: note_on channel=0 note=50 velocity=80 time=0
EXTRACT: note_off channel=6 note=57 velocity=64 time=0
EXTRACT: note_off channel=6 note=54 velocity=64 time=0
EXTRACT: note_off channel=6 note=50 velocity=64 time=0
EXTRACT: note_off channel=0 note=62 velocity=64 time=0.20833325
EXTRACT: note_off channel=0 note=57 velocity=64 time=0
EXTRACT: note_off channel=0 note=50 velocity=64 time=0
EXTRACT: note_on channel=0 note=62 velocity=80 time=0
EXTRACT: note_on channel=0 note=57 velocity=80 time=0
EXTRACT: note_on channel=0 note=50 velocity=80 time=0
EXTRACT: note_on channel=6 note=57 velocity=80 time=0
EXTRACT: note_off channel=0 note=62 velocity=64 time=0.20833325
EXTRACT: note_off channel=0 note=57 velocity=64 time=0
EXTRACT: note_off channel=0 note=50 velocity=64 time=0
EXTRACT: note_on channel=0 note=62 velocity=80 time=0
EXTRACT: note_on channel=0 note=57 velocity=80 time=0
EXTRACT: note_on channel=0 note=50 velocity=80 time=0
EXTRACT: note_off channel=2 note=38 velocity=64 time=0
EXTRACT: note_on channel=2 note=38 velocity=80 time=0
EXTRACT: note_off channel=6 note=57 velocity=64 time=0
EXTRACT: note_on channel=6 note=61 velocity=80 time=0
EXTRACT: note_on channel=4 note=64 velocity=80 time=0.4166665
EXTRACT: note_off channel=0 note=62 velocity=64 time=0
EXTRACT: note_off channel=0 note=57 velocity=64 time=0
EXTRACT: note_off channel=0 note=50 velocity=64 time=0
EXTRACT: note_on channel=0 note=62 velocity=80 time=0
EXTRACT: note_on channel=0 note=57 velocity=80 time=0
EXTRACT: note_on channel=0 note=50 velocity=80 time=0
EXTRACT: note_off channel=6 note=61 velocity=64 time=0
EXTRACT: note_on channel=6 note=57 velocity=80 time=0
EXTRACT: note_off channel=0 note=62 velocity=64 time=0.20833325
EXTRACT: note_off channel=0 note=57 velocity=64 time=0
EXTRACT: note_off channel=0 note=50 velocity=64 time=0
EXTRACT: note_on channel=0 note=62 velocity=80 time=0
EXTRACT: note_on channel=0 note=57 velocity=80 time=0
EXTRACT: note_on channel=0 note=50 velocity=80 time=0
EXTRACT: note_off channel=4 note=64 velocity=64 time=0.20833325
EXTRACT: note_on channel=4 note=64 velocity=80 time=0
EXTRACT: note_off channel=0 note=62 velocity=64 time=0
EXTRACT: note_off channel=0 note=57 velocity=64 time=0
EXTRACT: note_off channel=0 note=50 velocity=64 time=0
EXTRACT: note_on channel=0 note=62 velocity=80 time=0
EXTRACT: note_on channel=0 note=57 velocity=80 time=0
EXTRACT: note_on channel=0 note=50 velocity=80 time=0
EXTRACT: note_off channel=6 note=57 velocity=64 time=0
EXTRACT: note_on channel=6 note=54 velocity=80 time=0
EXTRACT: note_off channel=0 note=62 velocity=64 time=0.20833325
EXTRACT: note_off channel=0 note=57 velocity=64 time=0
EXTRACT: note_off channel=0 note=50 velocity=64 time=0
EXTRACT: note_on channel=0 note=62 velocity=80 time=0
EXTRACT: note_on channel=0 note=57 velocity=80 time=0
EXTRACT: note_on channel=0 note=50 velocity=80 time=0
EXTRACT: note_off channel=4 note=64 velocity=64 time=0.20833325
EXTRACT: note_on channel=4 note=64 velocity=80 time=0
EXTRACT: note_off channel=0 note=62 velocity=64 time=0
EXTRACT: note_off channel=0 note=57 velocity=64 time=0
EXTRACT: note_off channel=0 note=50 velocity=64 time=0
EXTRACT: note_on channel=0 note=54 velocity=80 time=0
EXTRACT: note_on channel=0 note=49 velocity=80 time=0
EXTRACT: note_on channel=0 note=42 velocity=80 time=0
EXTRACT: note_off channel=2 note=38 velocity=64 time=0
EXTRACT: note_on channel=2 note=30 velocity=80 time=0
EXTRACT: note_off channel=6 note=54 velocity=64 time=0
EXTRACT: note_on channel=6 note=61 velocity=80 time=0
EXTRACT: note_on channel=6 note=57 velocity=80 time=0
EXTRACT: note_on channel=6 note=54 velocity=80 time=0
EXTRACT: note_off channel=4 note=64 velocity=64 time=0.20833325
EXTRACT: note_on channel=4 note=61 velocity=80 time=0
EXTRACT: note_off channel=4 note=61 velocity=64 time=0.20833325
EXTRACT: note_off channel=0 note=54 velocity=64 time=0
EXTRACT: note_off channel=0 note=49 velocity=64 time=0
EXTRACT: note_off channel=0 note=42 velocity=64 time=0
EXTRACT: note_on channel=0 note=54 velocity=80 time=0
EXTRACT: note_on channel=0 note=49 velocity=80 time=0
EXTRACT: note_on channel=0 note=42 velocity=80 time=0
EXTRACT: note_off channel=0 note=54 velocity=64 time=0.20833325
EXTRACT: note_off channel=0 note=49 velocity=64 time=0
EXTRACT: note_off channel=0 note=42 velocity=64 time=0
EXTRACT: note_on channel=0 note=54 velocity=80 time=0
EXTRACT: note_on channel=0 note=49 velocity=80 time=0
EXTRACT: note_on channel=0 note=42 velocity=80 time=0
EXTRACT: note_off channel=0 note=54 velocity=64 time=0.20833325
EXTRACT: note_off channel=0 note=49 velocity=64 time=0
EXTRACT: note_off channel=0 note=42 velocity=64 time=0
EXTRACT: note_on channel=0 note=54 velocity=80 time=0
EXTRACT: note_on channel=0 note=49 velocity=80 time=0
EXTRACT: note_on channel=0 note=42 velocity=80 time=0
EXTRACT: note_off channel=6 note=61 velocity=64 time=0
EXTRACT: note_off channel=6 note=57 velocity=64 time=0
EXTRACT: note_off channel=6 note=54 velocity=64 time=0
EXTRACT: note_off channel=0 note=54 velocity=64 time=0.20833325
EXTRACT: note_off channel=0 note=49 velocity=64 time=0
EXTRACT: note_off channel=0 note=42 velocity=64 time=0
EXTRACT: note_on channel=0 note=54 velocity=80 time=0
EXTRACT: note_on channel=0 note=49 velocity=80 time=0
EXTRACT: note_on channel=0 note=42 velocity=80 time=0
EXTRACT: note_on channel=6 note=57 velocity=80 time=0
EXTRACT: note_off channel=0 note=54 velocity=64 time=0.20833325
EXTRACT: note_off channel=0 note=49 velocity=64 time=0
EXTRACT: note_off channel=0 note=42 velocity=64 time=0
EXTRACT: note_on channel=0 note=54 velocity=80 time=0
EXTRACT: note_on channel=0 note=49 velocity=80 time=0
EXTRACT: note_on channel=0 note=42 velocity=80 time=0
EXTRACT: note_off channel=2 note=30 velocity=64 time=0
EXTRACT: note_on channel=2 note=30 velocity=80 time=0
EXTRACT: note_off channel=6 note=57 velocity=64 time=0
EXTRACT: note_on channel=6 note=61 velocity=80 time=0
EXTRACT: note_off channel=0 note=54 velocity=64 time=0.4166665
EXTRACT: note_off channel=0 note=49 velocity=64 time=0
EXTRACT: note_off channel=0 note=42 velocity=64 time=0
EXTRACT: note_on channel=0 note=54 velocity=80 time=0
EXTRACT: note_on channel=0 note=49 velocity=80 time=0
EXTRACT: note_on channel=0 note=42 velocity=80 time=0
EXTRACT: note_off channel=6 note=61 velocity=64 time=0
EXTRACT: note_on channel=6 note=57 velocity=80 time=0
EXTRACT: note_off channel=0 note=54 velocity=64 time=0.20833325
EXTRACT: note_off channel=0 note=49 velocity=64 time=0
EXTRACT: note_off channel=0 note=42 velocity=64 time=0
EXTRACT: note_on channel=0 note=54 velocity=80 time=0
EXTRACT: note_on channel=0 note=49 velocity=80 time=0
EXTRACT: note_on channel=0 note=42 velocity=80 time=0
EXTRACT: note_off channel=0 note=54 velocity=64 time=0.20833325
EXTRACT: note_off channel=0 note=49 velocity=64 time=0
EXTRACT: note_off channel=0 note=42 velocity=64 time=0
EXTRACT: note_on channel=0 note=54 velocity=80 time=0
EXTRACT: note_on channel=0 note=49 velocity=80 time=0
EXTRACT: note_on channel=0 note=42 velocity=80 time=0
EXTRACT: note_off channel=6 note=57 velocity=64 time=0
EXTRACT: note_on channel=6 note=54 velocity=80 time=0
EXTRACT: note_off channel=0 note=54 velocity=64 time=0.20833325
EXTRACT: note_off channel=0 note=49 velocity=64 time=0
EXTRACT: note_off channel=0 note=42 velocity=64 time=0
EXTRACT: note_on channel=0 note=54 velocity=80 time=0
EXTRACT: note_on channel=0 note=49 velocity=80 time=0
EXTRACT: note_on channel=0 note=42 velocity=80 time=0
EXTRACT: note_off channel=0 note=54 velocity=64 time=0.20833325
EXTRACT: note_off channel=0 note=49 velocity=64 time=0
EXTRACT: note_off channel=0 note=42 velocity=64 time=0
EXTRACT: note_on channel=0 note=62 velocity=80 time=0
EXTRACT: note_on channel=0 note=57 velocity=80 time=0
EXTRACT: note_on channel=0 note=50 velocity=80 time=0
EXTRACT: note_off channel=2 note=30 velocity=64 time=0
EXTRACT: note_on channel=2 note=38 velocity=80 time=0
EXTRACT: note_off channel=6 note=54 velocity=64 time=0
EXTRACT: note_on channel=6 note=57 velocity=80 time=0
EXTRACT: note_on channel=6 note=54 velocity=80 time=0
EXTRACT: note_on channel=6 note=50 velocity=80 time=0
EXTRACT: note_off channel=0 note=62 velocity=64 time=0.4166665
EXTRACT: note_off channel=0 note=57 velocity=64 time=0
EXTRACT: note_off channel=0 note=50 velocity=64 time=0
EXTRACT: note_on channel=0 note=62 velocity=80 time=0
EXTRACT: note_on channel=0 note=57 velocity=80 time=0
EXTRACT: note_on channel=0 note=50 velocity=80 time=0
EXTRACT: note_off channel=0 note=62 velocity=64 time=0.20833325
EXTRACT: note_off channel=0 note=57 velocity=64 time=0
EXTRACT: note_off channel=0 note=50 velocity=64 time=0
EXTRACT: note_on channel=0 note=62 velocity=80 time=0
EXTRACT: note_on channel=0 note=57 velocity=80 time=0
EXTRACT: note_on channel=0 note=50 velocity=80 time=0
EXTRACT: note_off channel=0 note=62 velocity=64 time=0.20833325
EXTRACT: note_off channel=0 note=57 velocity=64 time=0
EXTRACT: note_off channel=0 note=50 velocity=64 time=0
EXTRACT: note_on channel=0 note=62 velocity=80 time=0
EXTRACT: note_on channel=0 note=57 velocity=80 time=0
EXTRACT: note_on channel=0 note=50 velocity=80 time=0
EXTRACT: note_off channel=6 note=57 velocity=64 time=0
EXTRACT: note_off channel=6 note=54 velocity=64 time=0
EXTRACT: note_off channel=6 note=50 velocity=64 time=0
EXTRACT: note_off channel=0 note=62 velocity=64 time=0.20833325
EXTRACT: note_off channel=0 note=57 velocity=64 time=0
EXTRACT: note_off channel=0 note=50 velocity=64 time=0
EXTRACT: note_on channel=0 note=62 velocity=80 time=0
EXTRACT: note_on channel=0 note=57 velocity=80 time=0
EXTRACT: note_on channel=0 note=50 velocity=80 time=0
EXTRACT: note_on channel=6 note=57 velocity=80 time=0
EXTRACT: note_off channel=0 note=62 velocity=64 time=0.20833325
EXTRACT: note_off channel=0 note=57 velocity=64 time=0
EXTRACT: note_off channel=0 note=50 velocity=64 time=0
EXTRACT: note_on channel=0 note=62 velocity=80 time=0
EXTRACT: note_on channel=0 note=57 velocity=80 time=0
EXTRACT: note_on channel=0 note=50 velocity=80 time=0
EXTRACT: note_off channel=2 note=38 velocity=64 time=0
EXTRACT: note_on channel=2 note=38 velocity=80 time=0
EXTRACT: note_off channel=6 note=57 velocity=64 time=0
EXTRACT: note_on channel=6 note=61 velocity=80 time=0
EXTRACT: note_off channel=0 note=62 velocity=64 time=0.4166665
EXTRACT: note_off channel=0 note=57 velocity=64 time=0
EXTRACT: note_off channel=0 note=50 velocity=64 time=0
EXTRACT: note_on channel=0 note=62 velocity=80 time=0
EXTRACT: note_on channel=0 note=57 velocity=80 time=0
EXTRACT: note_on channel=0 note=50 velocity=80 time=0
EXTRACT: note_off channel=6 note=61 velocity=64 time=0
EXTRACT: note_on channel=6 note=57 velocity=80 time=0
EXTRACT: note_off channel=0 note=62 velocity=64 time=0.20833325
EXTRACT: note_off channel=0 note=57 velocity=64 time=0
EXTRACT: note_off channel=0 note=50 velocity=64 time=0
EXTRACT: note_on channel=0 note=62 velocity=80 time=0
EXTRACT: note_on channel=0 note=57 velocity=80 time=0
EXTRACT: note_on channel=0 note=50 velocity=80 time=0
EXTRACT: note_off channel=0 note=62 velocity=64 time=0.20833325
EXTRACT: note_off channel=0 note=57 velocity=64 time=0
EXTRACT: note_off channel=0 note=50 velocity=64 time=0
EXTRACT: note_on channel=0 note=62 velocity=80 time=0
EXTRACT: note_on channel=0 note=57 velocity=80 time=0
EXTRACT: note_on channel=0 note=50 velocity=80 time=0
EXTRACT: note_off channel=6 note=57 velocity=64 time=0
EXTRACT: note_on channel=6 note=54 velocity=80 time=0
EXTRACT: note_off channel=0 note=62 velocity=64 time=0.20833325
EXTRACT: note_off channel=0 note=57 velocity=64 time=0
EXTRACT: note_off channel=0 note=50 velocity=64 time=0
EXTRACT: note_on channel=0 note=62 velocity=80 time=0
EXTRACT: note_on channel=0 note=57 velocity=80 time=0
EXTRACT: note_on channel=0 note=50 velocity=80 time=0
EXTRACT: note_off channel=0 note=62 velocity=64 time=0.20833325
EXTRACT: note_off channel=0 note=57 velocity=64 time=0
EXTRACT: note_off channel=0 note=50 velocity=64 time=0
EXTRACT: note_on channel=0 note=64 velocity=80 time=0
EXTRACT: note_on channel=0 note=59 velocity=80 time=0
EXTRACT: note_on channel=0 note=52 velocity=80 time=0
EXTRACT: note_off channel=2 note=38 velocity=64 time=0
EXTRACT: note_on channel=2 note=40 velocity=80 time=0
EXTRACT: note_off channel=6 note=54 velocity=64 time=0
EXTRACT: note_on channel=6 note=68 velocity=80 time=0
EXTRACT: note_on channel=6 note=71 velocity=80 time=0
EXTRACT: note_on channel=6 note=64 velocity=80 time=0
EXTRACT: note_on channel=4 note=71 velocity=80 time=0.4166665
EXTRACT: note_off channel=0 note=64 velocity=64 time=0
EXTRACT: note_off channel=0 note=59 velocity=64 time=0
EXTRACT: note_off channel=0 note=52 velocity=64 time=0
EXTRACT: note_on channel=0 note=64 velocity=80 time=0
EXTRACT: note_on channel=0 note=59 velocity=80 time=0
EXTRACT: note_on channel=0 note=52 velocity=80 time=0
EXTRACT: note_off channel=4 note=71 velocity=64 time=0.20833325
EXTRACT: note_on channel=4 note=71 velocity=80 time=0
EXTRACT: note_off channel=0 note=64 velocity=64 time=0
EXTRACT: note_off channel=0 note=59 velocity=64 time=0
EXTRACT: note_off channel=0 note=52 velocity=64 time=0
EXTRACT: note_on channel=0 note=64 velocity=80 time=0
EXTRACT: note_on channel=0 note=59 velocity=80 time=0
EXTRACT: note_on channel=0 note=52 velocity=80 time=0
EXTRACT: note_off channel=4 note=71 velocity=64 time=0.20833325
EXTRACT: note_on channel=4 note=71 velocity=80 time=0
EXTRACT: note_off channel=0 note=64 velocity=64 time=0
EXTRACT: note_off channel=0 note=59 velocity=64 time=0
EXTRACT: note_off channel=0 note=52 velocity=64 time=0
EXTRACT: note_on channel=0 note=64 velocity=80 time=0
EXTRACT: note_on channel=0 note=59 velocity=80 time=0
EXTRACT: note_on channel=0 note=52 velocity=80 time=0
EXTRACT: note_off channel=6 note=68 velocity=64 time=0
EXTRACT: note_off channel=6 note=71 velocity=64 time=0
EXTRACT: note_off channel=6 note=64 velocity=64 time=0
EXTRACT: note_on channel=6 note=64 velocity=80 time=0
EXTRACT: note_off channel=4 note=71 velocity=64 time=0.20833325
EXTRACT: note_on channel=4 note=71 velocity=80 time=0
EXTRACT: note_off channel=0 note=64 velocity=64 time=0
EXTRACT: note_off channel=0 note=59 velocity=64 time=0
EXTRACT: note_off channel=0 note=52 velocity=64 time=0
EXTRACT: note_on channel=0 note=64 velocity=80 time=0
EXTRACT: note_on channel=0 note=59 velocity=80 time=0
EXTRACT: note_on channel=0 note=52 velocity=80 time=0
EXTRACT: note_off channel=4 note=71 velocity=64 time=0.20833325
EXTRACT: note_on channel=4 note=71 velocity=80 time=0
EXTRACT: note_off channel=0 note=64 velocity=64 time=0
EXTRACT: note_off channel=0 note=59 velocity=64 time=0
EXTRACT: note_off channel=0 note=52 velocity=64 time=0
EXTRACT: note_on channel=0 note=64 velocity=80 time=0
EXTRACT: note_on channel=0 note=59 velocity=80 time=0
EXTRACT: note_on channel=0 note=52 velocity=80 time=0
EXTRACT: note_off channel=2 note=40 velocity=64 time=0
EXTRACT: note_on channel=2 note=40 velocity=80 time=0
EXTRACT: note_off channel=6 note=64 velocity=64 time=0
EXTRACT: note_on channel=6 note=64 velocity=80 time=0
EXTRACT: note_on channel=6 note=68 velocity=80 time=0
EXTRACT: note_on channel=6 note=71 velocity=80 time=0
EXTRACT: note_off channel=4 note=71 velocity=64 time=0.4166665
EXTRACT: note_on channel=4 note=69 velocity=80 time=0
EXTRACT: note_off channel=0 note=64 velocity=64 time=0
EXTRACT: note_off channel=0 note=59 velocity=64 time=0
EXTRACT: note_off channel=0 note=52 velocity=64 time=0
EXTRACT: note_on channel=0 note=64 velocity=80 time=0
EXTRACT: note_on channel=0 note=59 velocity=80 time=0
EXTRACT: note_on channel=0 note=52 velocity=80 time=0
EXTRACT: note_off channel=0 note=64 velocity=64 time=0.20833325
EXTRACT: note_off channel=0 note=59 velocity=64 time=0
EXTRACT: note_off channel=0 note=52 velocity=64 time=0
EXTRACT: note_on channel=0 note=64 velocity=80 time=0
EXTRACT: note_on channel=0 note=59 velocity=80 time=0
EXTRACT: note_on channel=0 note=52 velocity=80 time=0
EXTRACT: note_off channel=0 note=64 velocity=64 time=0.20833325
EXTRACT: note_off channel=0 note=59 velocity=64 time=0
EXTRACT: note_off channel=0 note=52 velocity=64 time=0
EXTRACT: note_on channel=0 note=64 velocity=80 time=0
EXTRACT: note_on channel=0 note=59 velocity=80 time=0
EXTRACT: note_on channel=0 note=52 velocity=80 time=0
EXTRACT: note_off channel=6 note=64 velocity=64 time=0
EXTRACT: note_off channel=6 note=68 velocity=64 time=0
EXTRACT: note_off channel=6 note=71 velocity=64 time=0
EXTRACT: note_on channel=6 note=64 velocity=80 time=0
EXTRACT: note_off channel=4 note=69 velocity=64 time=0.20833325
EXTRACT: note_on channel=4 note=68 velocity=80 time=0
EXTRACT: note_off channel=0 note=64 velocity=64 time=0
EXTRACT: note_off channel=0 note=59 velocity=64 time=0
EXTRACT: note_off channel=0 note=52 velocity=64 time=0
EXTRACT: note_on channel=0 note=64 velocity=80 time=0
EXTRACT: note_on channel=0 note=59 velocity=80 time=0
EXTRACT: note_on channel=0 note=52 velocity=80 time=0
EXTRACT: note_off channel=4 note=68 velocity=64 time=0.20833325
EXTRACT: note_on channel=4 note=68 velocity=80 time=0
EXTRACT: note_off channel=0 note=64 velocity=64 time=0
EXTRACT: note_off channel=0 note=59 velocity=64 time=0
EXTRACT: note_off channel=0 note=52 velocity=64 time=0
EXTRACT: note_on channel=0 note=62 velocity=80 time=0
EXTRACT: note_on channel=0 note=59 velocity=80 time=0
EXTRACT: note_on channel=0 note=54 velocity=80 time=0
EXTRACT: note_on channel=0 note=47 velocity=80 time=0
EXTRACT: note_off channel=2 note=40 velocity=64 time=0
EXTRACT: note_on channel=2 note=35 velocity=80 time=0
EXTRACT: note_off channel=6 note=64 velocity=64 time=0
EXTRACT: note_on channel=6 note=66 velocity=80 time=0
EXTRACT: note_on channel=6 note=62 velocity=80 time=0
EXTRACT: note_on channel=6 note=69 velocity=80 time=0
EXTRACT: note_off channel=4 note=68 velocity=64 time=0.4166665
EXTRACT: note_on channel=4 note=69 velocity=80 time=0
EXTRACT: note_off channel=0 note=62 velocity=64 time=0
EXTRACT: note_off channel=0 note=59 velocity=64 time=0
EXTRACT: note_off channel=0 note=54 velocity=64 time=0
EXTRACT: note_off channel=0 note=47 velocity=64 time=0
EXTRACT: note_on channel=0 note=62 velocity=80 time=0
EXTRACT: note_on channel=0 note=59 velocity=80 time=0
EXTRACT: note_on channel=0 note=54 velocity=80 time=0
EXTRACT: note_on channel=0 note=47 velocity=80 time=0
EXTRACT: note_off channel=0 note=62 velocity=64 time=0.20833325
EXTRACT: note_off channel=0 note=59 velocity=64 time=0
EXTRACT: note_off channel=0 note=54 velocity=64 time=0
EXTRACT: note_off channel=0 note=47 velocity=64 time=0
EXTRACT: note_on channel=0 note=62 velocity=80 time=0
EXTRACT: note_on channel=0 note=59 velocity=80 time=0
EXTRACT: note_on channel=0 note=54 velocity=80 time=0
EXTRACT: note_on channel=0 note=47 velocity=80 time=0
EXTRACT: note_off channel=0 note=62 velocity=64 time=0.20833325
EXTRACT: note_off channel=0 note=59 velocity=64 time=0
EXTRACT: note_off channel=0 note=54 velocity=64 time=0
EXTRACT: note_off channel=0 note=47 velocity=64 time=0
EXTRACT: note_on channel=0 note=62 velocity=80 time=0
EXTRACT: note_on channel=0 note=59 velocity=80 time=0
EXTRACT: note_on channel=0 note=54 velocity=80 time=0
EXTRACT: note_on channel=0 note=47 velocity=80 time=0
EXTRACT: note_off channel=6 note=66 velocity=64 time=0
EXTRACT: note_off channel=6 note=62 velocity=64 time=0
EXTRACT: note_off channel=6 note=69 velocity=64 time=0
EXTRACT: note_on channel=6 note=66 velocity=80 time=0
EXTRACT: note_off channel=0 note=62 velocity=64 time=0.20833325
EXTRACT: note_off channel=0 note=59 velocity=64 time=0
EXTRACT: note_off channel=0 note=54 velocity=64 time=0
EXTRACT: note_off channel=0 note=47 velocity=64 time=0
EXTRACT: note_on channel=0 note=62 velocity=80 time=0
EXTRACT: note_on channel=0 note=59 velocity=80 time=0
EXTRACT: note_on channel=0 note=54 velocity=80 time=0
EXTRACT: note_on channel=0 note=47 velocity=80 time=0
EXTRACT: note_off channel=6 note=66 velocity=64 time=0
EXTRACT: note_on channel=6 note=69 velocity=80 time=0
EXTRACT: note_off channel=4 note=69 velocity=64 time=0.20833325
EXTRACT: note_off channel=0 note=62 velocity=64 time=0
EXTRACT: note_off channel=0 note=59 velocity=64 time=0
EXTRACT: note_off channel=0 note=54 velocity=64 time=0
EXTRACT: note_off channel=0 note=47 velocity=64 time=0
EXTRACT: note_on channel=0 note=62 velocity=80 time=0
EXTRACT: note_on channel=0 note=59 velocity=80 time=0
EXTRACT: note_on channel=0 note=54 velocity=80 time=0
EXTRACT: note_on channel=0 note=47 velocity=80 time=0
EXTRACT: note_off channel=2 note=35 velocity=64 time=0
EXTRACT: note_on channel=2 note=35 velocity=80 time=0
EXTRACT: note_off channel=6 note=69 velocity=64 time=0
EXTRACT: note_on channel=6 note=74 velocity=80 time=0
EXTRACT: note_off channel=0 note=62 velocity=64 time=0.4166665
EXTRACT: note_off channel=0 note=59 velocity=64 time=0
EXTRACT: note_off channel=0 note=54 velocity=64 time=0
EXTRACT: note_off channel=0 note=47 velocity=64 time=0
EXTRACT: note_on channel=0 note=62 velocity=80 time=0
EXTRACT: note_on channel=0 note=59 velocity=80 time=0
EXTRACT: note_on channel=0 note=54 velocity=80 time=0
EXTRACT: note_on channel=0 note=47 velocity=80 time=0
EXTRACT: note_off channel=6 note=74 velocity=64 time=0
EXTRACT: note_on channel=6 note=69 velocity=80 time=0
EXTRACT: note_off channel=0 note=62 velocity=64 time=0.20833325
EXTRACT: note_off channel=0 note=59 velocity=64 time=0
EXTRACT: note_off channel=0 note=54 velocity=64 time=0
EXTRACT: note_off channel=0 note=47 velocity=64 time=0
EXTRACT: note_on channel=0 note=62 velocity=80 time=0
EXTRACT: note_on channel=0 note=59 velocity=80 time=0
EXTRACT: note_on channel=0 note=54 velocity=80 time=0
EXTRACT: note_on channel=0 note=47 velocity=80 time=0
EXTRACT: note_off channel=0 note=62 velocity=64 time=0.20833325
EXTRACT: note_off channel=0 note=59 velocity=64 time=0
EXTRACT: note_off channel=0 note=54 velocity=64 time=0
EXTRACT: note_off channel=0 note=47 velocity=64 time=0
EXTRACT: note_on channel=0 note=62 velocity=80 time=0
EXTRACT: note_on channel=0 note=59 velocity=80 time=0
EXTRACT: note_on channel=0 note=54 velocity=80 time=0
EXTRACT: note_on channel=0 note=47 velocity=80 time=0
EXTRACT: note_off channel=6 note=69 velocity=64 time=0
EXTRACT: note_on channel=6 note=66 velocity=80 time=0
EXTRACT: note_off channel=0 note=62 velocity=64 time=0.20833325
EXTRACT: note_off channel=0 note=59 velocity=64 time=0
EXTRACT: note_off channel=0 note=54 velocity=64 time=0
EXTRACT: note_off channel=0 note=47 velocity=64 time=0
EXTRACT: note_on channel=0 note=62 velocity=80 time=0
EXTRACT: note_on channel=0 note=59 velocity=80 time=0
EXTRACT: note_on channel=0 note=54 velocity=80 time=0
EXTRACT: note_on channel=0 note=47 velocity=80 time=0
EXTRACT: note_off channel=0 note=62 velocity=64 time=0.20833325
EXTRACT: note_off channel=0 note=59 velocity=64 time=0
EXTRACT: note_off channel=0 note=54 velocity=64 time=0
EXTRACT: note_off channel=0 note=47 velocity=64 time=0
EXTRACT: note_on channel=0 note=64 velocity=80 time=0
EXTRACT: note_on channel=0 note=59 velocity=80 time=0
EXTRACT: note_on channel=0 note=52 velocity=80 time=0
EXTRACT: note_off channel=2 note=35 velocity=64 time=0
EXTRACT: note_on channel=2 note=40 velocity=80 time=0
EXTRACT: note_off channel=6 note=66 velocity=64 time=0
EXTRACT: note_on channel=6 note=68 velocity=80 time=0
EXTRACT: note_on channel=6 note=71 velocity=80 time=0
EXTRACT: note_on channel=6 note=64 velocity=80 time=0
EXTRACT: note_on channel=4 note=71 velocity=80 time=0.4166665
EXTRACT: note_off channel=0 note=64 velocity=64 time=0
EXTRACT: note_off channel=0 note=59 velocity=64 time=0
EXTRACT: note_off channel=0 note=52 velocity=64 time=0
EXTRACT: note_on channel=0 note=64 velocity=80 time=0
EXTRACT: note_on channel=0 note=59 velocity=80 time=0
EXTRACT: note_on channel=0 note=52 velocity=80 time=0
EXTRACT: note_off channel=4 note=71 velocity=64 time=0.20833325
EXTRACT: note_on channel=4 note=71 velocity=80 time=0
EXTRACT: note_off channel=0 note=64 velocity=64 time=0
EXTRACT: note_off channel=0 note=59 velocity=64 time=0
EXTRACT: note_off channel=0 note=52 velocity=64 time=0
EXTRACT: note_on channel=0 note=64 velocity=80 time=0
EXTRACT: note_on channel=0 note=59 velocity=80 time=0
EXTRACT: note_on channel=0 note=52 velocity=80 time=0
EXTRACT: note_off channel=4 note=71 velocity=64 time=0.20833325
EXTRACT: note_on channel=4 note=71 velocity=80 time=0
EXTRACT: note_off channel=0 note=64 velocity=64 time=0
EXTRACT: note_off channel=0 note=59 velocity=64 time=0
EXTRACT: note_off channel=0 note=52 velocity=64 time=0
EXTRACT: note_on channel=0 note=64 velocity=80 time=0
EXTRACT: note_on channel=0 note=59 velocity=80 time=0
EXTRACT: note_on channel=0 note=52 velocity=80 time=0
EXTRACT: note_off channel=6 note=68 velocity=64 time=0
EXTRACT: note_off channel=6 note=71 velocity=64 time=0
EXTRACT: note_off channel=6 note=64 velocity=64 time=0
EXTRACT: note_on channel=6 note=64 velocity=80 time=0
EXTRACT: note_off channel=4 note=71 velocity=64 time=0.20833325
EXTRACT: note_on channel=4 note=71 velocity=80 time=0
EXTRACT: note_off channel=0 note=64 velocity=64 time=0
EXTRACT: note_off channel=0 note=59 velocity=64 time=0
EXTRACT: note_off channel=0 note=52 velocity=64 time=0
EXTRACT: note_on channel=0 note=64 velocity=80 time=0
EXTRACT: note_on channel=0 note=59 velocity=80 time=0
EXTRACT: note_on channel=0 note=52 velocity=80 time=0
EXTRACT: note_off channel=4 note=71 velocity=64 time=0.20833325
EXTRACT: note_on channel=4 note=71 velocity=80 time=0
EXTRACT: note_off channel=0 note=64 velocity=64 time=0
EXTRACT: note_off channel=0 note=59 velocity=64 time=0
EXTRACT: note_off channel=0 note=52 velocity=64 time=0
EXTRACT: note_on channel=0 note=64 velocity=80 time=0
EXTRACT: note_on channel=0 note=59 velocity=80 time=0
EXTRACT: note_on channel=0 note=52 velocity=80 time=0
EXTRACT: note_off channel=2 note=40 velocity=64 time=0
EXTRACT: note_on channel=2 note=40 velocity=80 time=0
EXTRACT: note_off channel=6 note=64 velocity=64 time=0
EXTRACT: note_on channel=6 note=64 velocity=80 time=0
EXTRACT: note_on channel=6 note=68 velocity=80 time=0
EXTRACT: note_on channel=6 note=71 velocity=80 time=0
EXTRACT: note_off channel=4 note=71 velocity=64 time=0.4166665
EXTRACT: note_on channel=4 note=69 velocity=80 time=0
EXTRACT: note_off channel=0 note=64 velocity=64 time=0
EXTRACT: note_off channel=0 note=59 velocity=64 time=0
EXTRACT: note_off channel=0 note=52 velocity=64 time=0
EXTRACT: note_on channel=0 note=64 velocity=80 time=0
EXTRACT: note_on channel=0 note=59 velocity=80 time=0
EXTRACT: note_on channel=0 note=52 velocity=80 time=0
EXTRACT: note_off channel=0 note=64 velocity=64 time=0.20833325
EXTRACT: note_off channel=0 note=59 velocity=64 time=0
EXTRACT: note_off channel=0 note=52 velocity=64 time=0
EXTRACT: note_on channel=0 note=64 velocity=80 time=0
EXTRACT: note_on channel=0 note=59 velocity=80 time=0
EXTRACT: note_on channel=0 note=52 velocity=80 time=0
EXTRACT: note_off channel=0 note=64 velocity=64 time=0.20833325
EXTRACT: note_off channel=0 note=59 velocity=64 time=0
EXTRACT: note_off channel=0 note=52 velocity=64 time=0
EXTRACT: note_on channel=0 note=64 velocity=80 time=0
EXTRACT: note_on channel=0 note=59 velocity=80 time=0
EXTRACT: note_on channel=0 note=52 velocity=80 time=0
EXTRACT: note_off channel=6 note=64 velocity=64 time=0
EXTRACT: note_off channel=6 note=68 velocity=64 time=0
EXTRACT: note_off channel=6 note=71 velocity=64 time=0
EXTRACT: note_on channel=6 note=64 velocity=80 time=0
EXTRACT: note_off channel=4 note=69 velocity=64 time=0.20833325
EXTRACT: note_on channel=4 note=68 velocity=80 time=0
EXTRACT: note_off channel=0 note=64 velocity=64 time=0
EXTRACT: note_off channel=0 note=59 velocity=64 time=0
EXTRACT: note_off channel=0 note=52 velocity=64 time=0
EXTRACT: note_on channel=0 note=64 velocity=80 time=0
EXTRACT: note_on channel=0 note=59 velocity=80 time=0
EXTRACT: note_on channel=0 note=52 velocity=80 time=0
EXTRACT: note_off channel=4 note=68 velocity=64 time=0.20833325
EXTRACT: note_on channel=4 note=69 velocity=80 time=0
EXTRACT: note_off channel=0 note=64 velocity=64 time=0
EXTRACT: note_off channel=0 note=59 velocity=64 time=0
EXTRACT: note_off channel=0 note=52 velocity=64 time=0
EXTRACT: note_on channel=0 note=62 velocity=80 time=0
EXTRACT: note_on channel=0 note=59 velocity=80 time=0
EXTRACT: note_on channel=0 note=54 velocity=80 time=0
EXTRACT: note_on channel=0 note=47 velocity=80 time=0
EXTRACT: note_off channel=2 note=40 velocity=64 time=0
EXTRACT: note_on channel=2 note=35 velocity=80 time=0
EXTRACT: note_off channel=6 note=64 velocity=64 time=0
EXTRACT: note_on channel=6 note=66 velocity=80 time=0
EXTRACT: note_on channel=6 note=62 velocity=80 time=0
EXTRACT: note_on channel=6 note=69 velocity=80 time=0
EXTRACT: note_off channel=4 note=69 velocity=64 time=0.20833325
EXTRACT: note_on channel=4 note=68 velocity=80 time=0
EXTRACT: note_off channel=4 note=68 velocity=64 time=0.20833325
EXTRACT: note_on channel=4 note=66 velocity=80 time=0
EXTRACT: note_off channel=0 note=62 velocity=64 time=0
EXTRACT: note_off channel=0 note=59 velocity=64 time=0
EXTRACT: note_off channel=0 note=54 velocity=64 time=0
EXTRACT: note_off channel=0 note=47 velocity=64 time=0
EXTRACT: note_on channel=0 note=62 velocity=80 time=0
EXTRACT: note_on channel=0 note=59 velocity=80 time=0
EXTRACT: note_on channel=0 note=54 velocity=80 time=0
EXTRACT: note_on channel=0 note=47 velocity=80 time=0
EXTRACT: note_off channel=0 note=62 velocity=64 time=0.20833325
EXTRACT: note_off channel=0 note=59 velocity=64 time=0
EXTRACT: note_off channel=0 note=54 velocity=64 time=0
EXTRACT: note_off channel=0 note=47 velocity=64 time=0
EXTRACT: note_on channel=0 note=62 velocity=80 time=0
EXTRACT: note_on channel=0 note=59 velocity=80 time=0
EXTRACT: note_on channel=0 note=54 velocity=80 time=0
EXTRACT: note_on channel=0 note=47 velocity=80 time=0
EXTRACT: note_off channel=0 note=62 velocity=64 time=0.20833325
EXTRACT: note_off channel=0 note=59 velocity=64 time=0
EXTRACT: note_off channel=0 note=54 velocity=64 time=0
EXTRACT: note_off channel=0 note=47 velocity=64 time=0
EXTRACT: note_on channel=0 note=62 velocity=80 time=0
EXTRACT: note_on channel=0 note=59 velocity=80 time=0
EXTRACT: note_on channel=0 note=54 velocity=80 time=0
EXTRACT: note_on channel=0 note=47 velocity=80 time=0
EXTRACT: note_off channel=6 note=66 velocity=64 time=0
EXTRACT: note_off channel=6 note=62 velocity=64 time=0
EXTRACT: note_off channel=6 note=69 velocity=64 time=0
EXTRACT: note_on channel=6 note=66 velocity=80 time=0
EXTRACT: note_off channel=0 note=62 velocity=64 time=0.20833325
EXTRACT: note_off channel=0 note=59 velocity=64 time=0
EXTRACT: note_off channel=0 note=54 velocity=64 time=0
EXTRACT: note_off channel=0 note=47 velocity=64 time=0
EXTRACT: note_on channel=0 note=62 velocity=80 time=0
EXTRACT: note_on channel=0 note=59 velocity=80 time=0
EXTRACT: note_on channel=0 note=54 velocity=80 time=0
EXTRACT: note_on channel=0 note=47 velocity=80 time=0
EXTRACT: note_off channel=6 note=66 velocity=64 time=0
EXTRACT: note_on channel=6 note=69 velocity=80 time=0
EXTRACT: note_off channel=4 note=66 velocity=64 time=0.20833325
EXTRACT: note_off channel=0 note=62 velocity=64 time=0
EXTRACT: note_off channel=0 note=59 velocity=64 time=0
EXTRACT: note_off channel=0 note=54 velocity=64 time=0
EXTRACT: note_off channel=0 note=47 velocity=64 time=0
EXTRACT: note_on channel=0 note=62 velocity=80 time=0
EXTRACT: note_on channel=0 note=59 velocity=80 time=0
EXTRACT: note_on channel=0 note=54 velocity=80 time=0
EXTRACT: note_on channel=0 note=47 velocity=80 time=0
EXTRACT: note_off channel=2 note=35 velocity=64 time=0
EXTRACT: note_on channel=2 note=35 velocity=80 time=0
EXTRACT: note_off channel=6 note=69 velocity=64 time=0
EXTRACT: note_on channel=6 note=74 velocity=80 time=0
EXTRACT: note_off channel=0 note=62 velocity=64 time=0.4166665
EXTRACT: note_off channel=0 note=59 velocity=64 time=0
EXTRACT: note_off channel=0 note=54 velocity=64 time=0
EXTRACT: note_off channel=0 note=47 velocity=64 time=0
EXTRACT: note_on channel=0 note=62 velocity=80 time=0
EXTRACT: note_on channel=0 note=59 velocity=80 time=0
EXTRACT: note_on channel=0 note=54 velocity=80 time=0
EXTRACT: note_on channel=0 note=47 velocity=80 time=0
EXTRACT: note_off channel=6 note=74 velocity=64 time=0
EXTRACT: note_on channel=6 note=69 velocity=80 time=0
EXTRACT: note_off channel=0 note=62 velocity=64 time=0.20833325
EXTRACT: note_off channel=0 note=59 velocity=64 time=0
EXTRACT: note_off channel=0 note=54 velocity=64 time=0
EXTRACT: note_off channel=0 note=47 velocity=64 time=0
EXTRACT: note_on channel=0 note=62 velocity=80 time=0
EXTRACT: note_on channel=0 note=59 velocity=80 time=0
EXTRACT: note_on channel=0 note=54 velocity=80 time=0
EXTRACT: note_on channel=0 note=47 velocity=80 time=0
EXTRACT: note_on channel=4 note=64 velocity=80 time=0.20833325
EXTRACT: note_off channel=0 note=62 velocity=64 time=0
EXTRACT: note_off channel=0 note=59 velocity=64 time=0
EXTRACT: note_off channel=0 note=54 velocity=64 time=0
EXTRACT: note_off channel=0 note=47 velocity=64 time=0
EXTRACT: note_on channel=0 note=62 velocity=80 time=0
EXTRACT: note_on channel=0 note=59 velocity=80 time=0
EXTRACT: note_on channel=0 note=54 velocity=80 time=0
EXTRACT: note_on channel=0 note=47 velocity=80 time=0
EXTRACT: note_off channel=6 note=69 velocity=64 time=0
EXTRACT: note_on channel=6 note=66 velocity=80 time=0
EXTRACT: note_off channel=0 note=62 velocity=64 time=0.20833325
EXTRACT: note_off channel=0 note=59 velocity=64 time=0
EXTRACT: note_off channel=0 note=54 velocity=64 time=0
EXTRACT: note_off channel=0 note=47 velocity=64 time=0
EXTRACT: note_on channel=0 note=62 velocity=80 time=0
EXTRACT: note_on channel=0 note=59 velocity=80 time=0
EXTRACT: note_on channel=0 note=54 velocity=80 time=0
EXTRACT: note_on channel=0 note=47 velocity=80 time=0
EXTRACT: note_off channel=4 note=64 velocity=64 time=0.20833325
EXTRACT: note_on channel=4 note=64 velocity=80 time=0
EXTRACT: note_off channel=0 note=62 velocity=64 time=0
EXTRACT: note_off channel=0 note=59 velocity=64 time=0
EXTRACT: note_off channel=0 note=54 velocity=64 time=0
EXTRACT: note_off channel=0 note=47 velocity=64 time=0
EXTRACT: note_on channel=0 note=64 velocity=80 time=0
EXTRACT: note_on channel=0 note=59 velocity=80 time=0
EXTRACT: note_on channel=0 note=52 velocity=80 time=0
EXTRACT: note_off channel=2 note=35 velocity=64 time=0
EXTRACT: note_on channel=2 note=40 velocity=80 time=0
EXTRACT: note_off channel=6 note=66 velocity=64 time=0
EXTRACT: note_on channel=6 note=68 velocity=80 time=0
EXTRACT: note_on channel=6 note=71 velocity=80 time=0
EXTRACT: note_on channel=6 note=64 velocity=80 time=0
EXTRACT: note_off channel=4 note=64 velocity=64 time=0.20833325
EXTRACT: note_on channel=4 note=71 velocity=80 time=0
EXTRACT: note_off channel=4 note=71 velocity=64 time=0.20833325
EXTRACT: note_on channel=4 note=71 velocity=80 time=0
EXTRACT: note_off channel=0 note=64 velocity=64 time=0
EXTRACT: note_off channel=0 note=59 velocity=64 time=0
EXTRACT: note_off channel=0 note=52 velocity=64 time=0
EXTRACT: note_on channel=0 note=64 velocity=80 time=0
EXTRACT: note_on channel=0 note=59 velocity=80 time=0
EXTRACT: note_on channel=0 note=52 velocity=80 time=0
EXTRACT: note_off channel=0 note=64 velocity=64 time=0.20833325
EXTRACT: note_off channel=0 note=59 velocity=64 time=0
EXTRACT: note_off channel=0 note=52 velocity=64 time=0
EXTRACT: note_on channel=0 note=64 velocity=80 time=0
EXTRACT: note_on channel=0 note=59 velocity=80 time=0
EXTRACT: note_on channel=0 note=52 velocity=80 time=0
EXTRACT: note_off channel=0 note=64 velocity=64 time=0.20833325
EXTRACT: note_off channel=0 note=59 velocity=64 time=0
EXTRACT: note_off channel=0 note=52 velocity=64 time=0
EXTRACT: note_on channel=0 note=64 velocity=80 time=0
EXTRACT: note_on channel=0 note=59 velocity=80 time=0
EXTRACT: note_on channel=0 note=52 velocity=80 time=0
EXTRACT: note_off channel=6 note=68 velocity=64 time=0
EXTRACT: note_off channel=6 note=71 velocity=64 time=0
EXTRACT: note_off channel=6 note=64 velocity=64 time=0
EXTRACT: note_on channel=6 note=64 velocity=80 time=0
EXTRACT: note_off channel=0 note=64 velocity=64 time=0.20833325
EXTRACT: note_off channel=0 note=59 velocity=64 time=0
EXTRACT: note_off channel=0 note=52 velocity=64 time=0
EXTRACT: note_on channel=0 note=64 velocity=80 time=0
EXTRACT: note_on channel=0 note=59 velocity=80 time=0
EXTRACT: note_on channel=0 note=52 velocity=80 time=0
EXTRACT: note_off channel=4 note=71 velocity=64 time=0.20833325
EXTRACT: note_on channel=4 note=64 velocity=80 time=0
EXTRACT: note_off channel=0 note=64 velocity=64 time=0
EXTRACT: note_off channel=0 note=59 velocity=64 time=0
EXTRACT: note_off channel=0 note=52 velocity=64 time=0
EXTRACT: note_on channel=0 note=64 velocity=80 time=0
EXTRACT: note_on channel=0 note=59 velocity=80 time=0
EXTRACT: note_on channel=0 note=52 velocity=80 time=0
EXTRACT: note_off channel=2 note=40 velocity=64 time=0
EXTRACT: note_on channel=2 note=40 velocity=80 time=0
EXTRACT: note_off channel=6 note=64 velocity=64 time=0
EXTRACT: note_on channel=6 note=64 velocity=80 time=0
EXTRACT: note_on channel=6 note=68 velocity=80 time=0
EXTRACT: note_on channel=6 note=71 velocity=80 time=0
EXTRACT: note_off channel=4 note=64 velocity=64 time=0.20833325
EXTRACT: note_on channel=4 note=71 velocity=80 time=0
EXTRACT: note_off channel=4 note=71 velocity=64 time=0.20833325
EXTRACT: note_on channel=4 note=71 velocity=80 time=0
EXTRACT: note_off channel=0 note=64 velocity=64 time=0
EXTRACT: note_off channel=0 note=59 velocity=64 time=0
EXTRACT: note_off channel=0 note=52 velocity=64 time=0
EXTRACT: note_on channel=0 note=64 velocity=80 time=0
EXTRACT: note_on channel=0 note=59 velocity=80 time=0
EXTRACT: note_on channel=0 note=52 velocity=80 time=0
EXTRACT: note_off channel=0 note=64 velocity=64 time=0.20833325
EXTRACT: note_off channel=0 note=59 velocity=64 time=0
EXTRACT: note_off channel=0 note=52 velocity=64 time=0
EXTRACT: note_on channel=0 note=64 velocity=80 time=0
EXTRACT: note_on channel=0 note=59 velocity=80 time=0
EXTRACT: note_on channel=0 note=52 velocity=80 time=0
EXTRACT: note_off channel=0 note=64 velocity=64 time=0.20833325
EXTRACT: note_off channel=0 note=59 velocity=64 time=0
EXTRACT: note_off channel=0 note=52 velocity=64 time=0
EXTRACT: note_on channel=0 note=64 velocity=80 time=0
EXTRACT: note_on channel=0 note=59 velocity=80 time=0
EXTRACT: note_on channel=0 note=52 velocity=80 time=0
EXTRACT: note_off channel=6 note=64 velocity=64 time=0
EXTRACT: note_off channel=6 note=68 velocity=64 time=0
EXTRACT: note_off channel=6 note=71 velocity=64 time=0
EXTRACT: note_on channel=6 note=64 velocity=80 time=0
EXTRACT: note_off channel=0 note=64 velocity=64 time=0.20833325
EXTRACT: note_off channel=0 note=59 velocity=64 time=0
EXTRACT: note_off channel=0 note=52 velocity=64 time=0
EXTRACT: note_on channel=0 note=64 velocity=80 time=0
EXTRACT: note_on channel=0 note=59 velocity=80 time=0
EXTRACT: note_on channel=0 note=52 velocity=80 time=0
EXTRACT: note_off channel=4 note=71 velocity=64 time=0.20833325
EXTRACT: note_on channel=4 note=64 velocity=80 time=0
EXTRACT: note_off channel=0 note=64 velocity=64 time=0
EXTRACT: note_off channel=0 note=59 velocity=64 time=0
EXTRACT: note_off channel=0 note=52 velocity=64 time=0
EXTRACT: note_on channel=0 note=62 velocity=80 time=0
EXTRACT: note_on channel=0 note=57 velocity=80 time=0
EXTRACT: note_on channel=0 note=50 velocity=80 time=0
EXTRACT: note_off channel=2 note=40 velocity=64 time=0
EXTRACT: note_on channel=2 note=38 velocity=80 time=0
EXTRACT: note_off channel=6 note=64 velocity=64 time=0
EXTRACT: note_on channel=6 note=69 velocity=80 time=0
EXTRACT: note_on channel=6 note=66 velocity=80 time=0
EXTRACT: note_on channel=6 note=62 velocity=80 time=0
EXTRACT: note_off channel=4 note=64 velocity=64 time=0.20833325
EXTRACT: note_on channel=4 note=73 velocity=80 time=0
EXTRACT: note_off channel=4 note=73 velocity=64 time=0.20833325
EXTRACT: note_on channel=4 note=73 velocity=80 time=0
EXTRACT: note_off channel=0 note=62 velocity=64 time=0
EXTRACT: note_off channel=0 note=57 velocity=64 time=0
EXTRACT: note_off channel=0 note=50 velocity=64 time=0
EXTRACT: note_on channel=0 note=62 velocity=80 time=0
EXTRACT: note_on channel=0 note=57 velocity=80 time=0
EXTRACT: note_on channel=0 note=50 velocity=80 time=0
EXTRACT: note_off channel=0 note=62 velocity=64 time=0.20833325
EXTRACT: note_off channel=0 note=57 velocity=64 time=0
EXTRACT: note_off channel=0 note=50 velocity=64 time=0
EXTRACT: note_on channel=0 note=62 velocity=80 time=0
EXTRACT: note_on channel=0 note=57 velocity=80 time=0
EXTRACT: note_on channel=0 note=50 velocity=80 time=0
EXTRACT: note_off channel=0 note=62 velocity=64 time=0.20833325
EXTRACT: note_off channel=0 note=57 velocity=64 time=0
EXTRACT: note_off channel=0 note=50 velocity=64 time=0
EXTRACT: note_on channel=0 note=62 velocity=80 time=0
EXTRACT: note_on channel=0 note=57 velocity=80 time=0
EXTRACT: note_on channel=0 note=50 velocity=80 time=0
EXTRACT: note_off channel=6 note=69 velocity=64 time=0
EXTRACT: note_off channel=6 note=66 velocity=64 time=0
EXTRACT: note_off channel=6 note=62 velocity=64 time=0
EXTRACT: note_on channel=6 note=62 velocity=80 time=0
EXTRACT: note_off channel=0 note=62 velocity=64 time=0.20833325
EXTRACT: note_off channel=0 note=57 velocity=64 time=0
EXTRACT: note_off channel=0 note=50 velocity=64 time=0
EXTRACT: note_on channel=0 note=62 velocity=80 time=0
EXTRACT: note_on channel=0 note=57 velocity=80 time=0
EXTRACT: note_on channel=0 note=50 velocity=80 time=0
EXTRACT: note_off channel=4 note=73 velocity=64 time=0.20833325
EXTRACT: note_on channel=4 note=64 velocity=80 time=0
EXTRACT: note_off channel=0 note=62 velocity=64 time=0
EXTRACT: note_off channel=0 note=57 velocity=64 time=0
EXTRACT: note_off channel=0 note=50 velocity=64 time=0
EXTRACT: note_on channel=0 note=62 velocity=80 time=0
EXTRACT: note_on channel=0 note=57 velocity=80 time=0
EXTRACT: note_on channel=0 note=50 velocity=80 time=0
EXTRACT: note_off channel=2 note=38 velocity=64 time=0
EXTRACT: note_on channel=2 note=38 velocity=80 time=0
EXTRACT: note_off channel=6 note=62 velocity=64 time=0
EXTRACT: note_on channel=6 note=66 velocity=80 time=0
EXTRACT: note_on channel=6 note=62 velocity=80 time=0
EXTRACT: note_on channel=6 note=69 velocity=80 time=0
EXTRACT: note_off channel=4 note=64 velocity=64 time=0.20833325
EXTRACT: note_on channel=4 note=73 velocity=80 time=0
EXTRACT: note_off channel=4 note=73 velocity=64 time=0.20833325
EXTRACT: note_on channel=4 note=73 velocity=80 time=0
EXTRACT: note_off channel=0 note=62 velocity=64 time=0
EXTRACT: note_off channel=0 note=57 velocity=64 time=0
EXTRACT: note_off channel=0 note=50 velocity=64 time=0
EXTRACT: note_on channel=0 note=62 velocity=80 time=0
EXTRACT: note_on channel=0 note=57 velocity=80 time=0
EXTRACT: note_on channel=0 note=50 velocity=80 time=0
EXTRACT: note_off channel=0 note=62 velocity=64 time=0.20833325
EXTRACT: note_off channel=0 note=57 velocity=64 time=0
EXTRACT: note_off channel=0 note=50 velocity=64 time=0
EXTRACT: note_on channel=0 note=62 velocity=80 time=0
EXTRACT: note_on channel=0 note=57 velocity=80 time=0
EXTRACT: note_on channel=0 note=50 velocity=80 time=0
EXTRACT: note_off channel=0 note=62 velocity=64 time=0.20833325
EXTRACT: note_off channel=0 note=57 velocity=64 time=0
EXTRACT: note_off channel=0 note=50 velocity=64 time=0
EXTRACT: note_on channel=0 note=62 velocity=80 time=0
EXTRACT: note_on channel=0 note=57 velocity=80 time=0
EXTRACT: note_on channel=0 note=50 velocity=80 time=0
EXTRACT: note_off channel=6 note=66 velocity=64 time=0
EXTRACT: note_off channel=6 note=62 velocity=64 time=0
EXTRACT: note_off channel=6 note=69 velocity=64 time=0
EXTRACT: note_on channel=6 note=62 velocity=80 time=0
EXTRACT: note_off channel=0 note=62 velocity=64 time=0.20833325
EXTRACT: note_off channel=0 note=57 velocity=64 time=0
EXTRACT: note_off channel=0 note=50 velocity=64 time=0
EXTRACT: note_on channel=0 note=62 velocity=80 time=0
EXTRACT: note_on channel=0 note=57 velocity=80 time=0
EXTRACT: note_on channel=0 note=50 velocity=80 time=0
EXTRACT: note_off channel=4 note=73 velocity=64 time=0.20833325
EXTRACT: note_on channel=4 note=76 velocity=80 time=0
EXTRACT: note_off channel=0 note=62 velocity=64 time=0
EXTRACT: note_off channel=0 note=57 velocity=64 time=0
EXTRACT: note_off channel=0 note=50 velocity=64 time=0
EXTRACT: note_on channel=0 note=64 velocity=80 time=0
EXTRACT: note_on channel=0 note=61 velocity=80 time=0
EXTRACT: note_on channel=0 note=56 velocity=80 time=0
EXTRACT: note_on channel=0 note=49 velocity=80 time=0
EXTRACT: note_off channel=2 note=38 velocity=64 time=0
EXTRACT: note_on channel=2 note=37 velocity=80 time=0
EXTRACT: note_off channel=6 note=62 velocity=64 time=0
EXTRACT: note_on channel=6 note=64 velocity=80 time=0
EXTRACT: note_on channel=6 note=61 velocity=80 time=0
EXTRACT: note_on channel=6 note=68 velocity=80 time=0
EXTRACT: note_off channel=0 note=64 velocity=64 time=0.4166665
EXTRACT: note_off channel=0 note=61 velocity=64 time=0
EXTRACT: note_off channel=0 note=56 velocity=64 time=0
EXTRACT: note_off channel=0 note=49 velocity=64 time=0
EXTRACT: note_on channel=0 note=64 velocity=80 time=0
EXTRACT: note_on channel=0 note=61 velocity=80 time=0
EXTRACT: note_on channel=0 note=56 velocity=80 time=0
EXTRACT: note_on channel=0 note=49 velocity=80 time=0
EXTRACT: note_off channel=0 note=64 velocity=64 time=0.20833325
EXTRACT: note_off channel=0 note=61 velocity=64 time=0
EXTRACT: note_off channel=0 note=56 velocity=64 time=0
EXTRACT: note_off channel=0 note=49 velocity=64 time=0
EXTRACT: note_on channel=0 note=64 velocity=80 time=0
EXTRACT: note_on channel=0 note=61 velocity=80 time=0
EXTRACT: note_on channel=0 note=56 velocity=80 time=0
EXTRACT: note_on channel=0 note=49 velocity=80 time=0
EXTRACT: note_off channel=0 note=64 velocity=64 time=0.20833325
EXTRACT: note_off channel=0 note=61 velocity=64 time=0
EXTRACT: note_off channel=0 note=56 velocity=64 time=0
EXTRACT: note_off channel=0 note=49 velocity=64 time=0
EXTRACT: note_on channel=0 note=64 velocity=80 time=0
EXTRACT: note_on channel=0 note=61 velocity=80 time=0
EXTRACT: note_on channel=0 note=56 velocity=80 time=0
EXTRACT: note_on channel=0 note=49 velocity=80 time=0
EXTRACT: note_off channel=6 note=64 velocity=64 time=0
EXTRACT: note_off channel=6 note=61 velocity=64 time=0
EXTRACT: note_off channel=6 note=68 velocity=64 time=0
EXTRACT: note_on channel=6 note=61 velocity=80 time=0
EXTRACT: note_off channel=0 note=64 velocity=64 time=0.20833325
EXTRACT: note_off channel=0 note=61 velocity=64 time=0
EXTRACT: note_off channel=0 note=56 velocity=64 time=0
EXTRACT: note_off channel=0 note=49 velocity=64 time=0
EXTRACT: note_on channel=0 note=64 velocity=80 time=0
EXTRACT: note_on channel=0 note=61 velocity=80 time=0
EXTRACT: note_on channel=0 note=56 velocity=80 time=0
EXTRACT: note_on channel=0 note=49 velocity=80 time=0
EXTRACT: note_off channel=4 note=76 velocity=64 time=0.20833325
EXTRACT: note_off channel=0 note=64 velocity=64 time=0
EXTRACT: note_off channel=0 note=61 velocity=64 time=0
EXTRACT: note_off channel=0 note=56 velocity=64 time=0
EXTRACT: note_off channel=0 note=49 velocity=64 time=0
EXTRACT: note_on channel=0 note=64 velocity=80 time=0
EXTRACT: note_on channel=0 note=61 velocity=80 time=0
EXTRACT: note_on channel=0 note=56 velocity=80 time=0
EXTRACT: note_on channel=0 note=49 velocity=80 time=0
EXTRACT: note_off channel=2 note=37 velocity=64 time=0
EXTRACT: note_on channel=2 note=37 velocity=80 time=0
EXTRACT: note_off channel=6 note=61 velocity=64 time=0
EXTRACT: note_on channel=6 note=64 velocity=80 time=0
EXTRACT: note_on channel=6 note=61 velocity=80 time=0
EXTRACT: note_on channel=6 note=68 velocity=80 time=0
EXTRACT: note_on channel=4 note=71 velocity=80 time=0.4166665
EXTRACT: note_off channel=0 note=64 velocity=64 time=0
EXTRACT: note_off channel=0 note=61 velocity=64 time=0
EXTRACT: note_off channel=0 note=56 velocity=64 time=0
EXTRACT: note_off channel=0 note=49 velocity=64 time=0
EXTRACT: note_on channel=0 note=64 velocity=80 time=0
EXTRACT: note_on channel=0 note=61 velocity=80 time=0
EXTRACT: note_on channel=0 note=56 velocity=80 time=0
EXTRACT: note_on channel=0 note=49 velocity=80 time=0
EXTRACT: note_off channel=0 note=64 velocity=64 time=0.20833325
EXTRACT: note_off channel=0 note=61 velocity=64 time=0
EXTRACT: note_off channel=0 note=56 velocity=64 time=0
EXTRACT: note_off channel=0 note=49 velocity=64 time=0
EXTRACT: note_on channel=0 note=64 velocity=80 time=0
EXTRACT: note_on channel=0 note=61 velocity=80 time=0
EXTRACT: note_on channel=0 note=56 velocity=80 time=0
EXTRACT: note_on channel=0 note=49 velocity=80 time=0
EXTRACT: note_off channel=0 note=64 velocity=64 time=0.20833325
EXTRACT: note_off channel=0 note=61 velocity=64 time=0
EXTRACT: note_off channel=0 note=56 velocity=64 time=0
EXTRACT: note_off channel=0 note=49 velocity=64 time=0
EXTRACT: note_on channel=0 note=64 velocity=80 time=0
EXTRACT: note_on channel=0 note=61 velocity=80 time=0
EXTRACT: note_on channel=0 note=56 velocity=80 time=0
EXTRACT: note_on channel=0 note=49 velocity=80 time=0
EXTRACT: note_off channel=6 note=64 velocity=64 time=0
EXTRACT: note_off channel=6 note=61 velocity=64 time=0
EXTRACT: note_off channel=6 note=68 velocity=64 time=0
EXTRACT: note_on channel=6 note=61 velocity=80 time=0
EXTRACT: note_off channel=0 note=64 velocity=64 time=0.20833325
EXTRACT: note_off channel=0 note=61 velocity=64 time=0
EXTRACT: note_off channel=0 note=56 velocity=64 time=0
EXTRACT: note_off channel=0 note=49 velocity=64 time=0
EXTRACT: note_on channel=0 note=64 velocity=80 time=0
EXTRACT: note_on channel=0 note=61 velocity=80 time=0
EXTRACT: note_on channel=0 note=56 velocity=80 time=0
EXTRACT: note_on channel=0 note=49 velocity=80 time=0
EXTRACT: note_off channel=4 note=71 velocity=64 time=0.20833325
EXTRACT: note_on channel=4 note=71 velocity=80 time=0
EXTRACT: note_off channel=0 note=64 velocity=64 time=0
EXTRACT: note_off channel=0 note=61 velocity=64 time=0
EXTRACT: note_off channel=0 note=56 velocity=64 time=0
EXTRACT: note_off channel=0 note=49 velocity=64 time=0
EXTRACT: note_on channel=0 note=64 velocity=80 time=0
EXTRACT: note_on channel=0 note=59 velocity=80 time=0
EXTRACT: note_on channel=0 note=52 velocity=80 time=0
EXTRACT: note_off channel=2 note=37 velocity=64 time=0
EXTRACT: note_on channel=2 note=40 velocity=80 time=0
EXTRACT: note_off channel=6 note=61 velocity=64 time=0
EXTRACT: note_on channel=6 note=64 velocity=80 time=0
EXTRACT: note_on channel=6 note=68 velocity=80 time=0
EXTRACT: note_on channel=6 note=71 velocity=80 time=0
EXTRACT: note_off channel=0 note=64 velocity=64 time=0.4166665
EXTRACT: note_off channel=0 note=59 velocity=64 time=0
EXTRACT: note_off channel=0 note=52 velocity=64 time=0
EXTRACT: note_on channel=0 note=64 velocity=80 time=0
EXTRACT: note_on channel=0 note=59 velocity=80 time=0
EXTRACT: note_on channel=0 note=52 velocity=80 time=0
EXTRACT: note_off channel=0 note=64 velocity=64 time=0.20833325
EXTRACT: note_off channel=0 note=59 velocity=64 time=0
EXTRACT: note_off channel=0 note=52 velocity=64 time=0
EXTRACT: note_on channel=0 note=64 velocity=80 time=0
EXTRACT: note_on channel=0 note=59 velocity=80 time=0
EXTRACT: note_on channel=0 note=52 velocity=80 time=0
EXTRACT: note_off channel=0 note=64 velocity=64 time=0.20833325
EXTRACT: note_off channel=0 note=59 velocity=64 time=0
EXTRACT: note_off channel=0 note=52 velocity=64 time=0
EXTRACT: note_on channel=0 note=64 velocity=80 time=0
EXTRACT: note_on channel=0 note=59 velocity=80 time=0
EXTRACT: note_on channel=0 note=52 velocity=80 time=0
EXTRACT: note_off channel=0 note=64 velocity=64 time=0.20833325
EXTRACT: note_off channel=0 note=59 velocity=64 time=0
EXTRACT: note_off channel=0 note=52 velocity=64 time=0
EXTRACT: note_on channel=0 note=64 velocity=80 time=0
EXTRACT: note_on channel=0 note=59 velocity=80 time=0
EXTRACT: note_on channel=0 note=52 velocity=80 time=0
EXTRACT: note_off channel=4 note=71 velocity=64 time=0.20833325
EXTRACT: note_off channel=0 note=64 velocity=64 time=0
EXTRACT: note_off channel=0 note=59 velocity=64 time=0
EXTRACT: note_off channel=0 note=52 velocity=64 time=0
EXTRACT: note_on channel=0 note=64 velocity=80 time=0
EXTRACT: note_on channel=0 note=59 velocity=80 time=0
EXTRACT: note_on channel=0 note=52 velocity=80 time=0
EXTRACT: note_off channel=2 note=40 velocity=64 time=0
EXTRACT: note_on channel=2 note=40 velocity=80 time=0
EXTRACT: note_on channel=4 note=64 velocity=80 time=0.4166665
EXTRACT: note_off channel=0 note=64 velocity=64 time=0
EXTRACT: note_off channel=0 note=59 velocity=64 time=0
EXTRACT: note_off channel=0 note=52 velocity=64 time=0
EXTRACT: note_on channel=0 note=64 velocity=80 time=0
EXTRACT: note_on channel=0 note=59 velocity=80 time=0
EXTRACT: note_on channel=0 note=52 velocity=80 time=0
EXTRACT: note_off channel=0 note=64 velocity=64 time=0.20833325
EXTRACT: note_off channel=0 note=59 velocity=64 time=0
EXTRACT: note_off channel=0 note=52 velocity=64 time=0
EXTRACT: note_on channel=0 note=64 velocity=80 time=0
EXTRACT: note_on channel=0 note=59 velocity=80 time=0
EXTRACT: note_on channel=0 note=52 velocity=80 time=0
EXTRACT: note_off channel=4 note=64 velocity=64 time=0.20833325
EXTRACT: note_on channel=4 note=64 velocity=80 time=0
EXTRACT: note_off channel=0 note=64 velocity=64 time=0
EXTRACT: note_off channel=0 note=59 velocity=64 time=0
EXTRACT: note_off channel=0 note=52 velocity=64 time=0
EXTRACT: note_on channel=0 note=64 velocity=80 time=0
EXTRACT: note_on channel=0 note=59 velocity=80 time=0
EXTRACT: note_on channel=0 note=52 velocity=80 time=0
EXTRACT: note_off channel=0 note=64 velocity=64 time=0.20833325
EXTRACT: note_off channel=0 note=59 velocity=64 time=0
EXTRACT: note_off channel=0 note=52 velocity=64 time=0
EXTRACT: note_on channel=0 note=64 velocity=80 time=0
EXTRACT: note_on channel=0 note=59 velocity=80 time=0
EXTRACT: note_on channel=0 note=52 velocity=80 time=0
EXTRACT: note_off channel=4 note=64 velocity=64 time=0.20833325
EXTRACT: note_on channel=4 note=71 velocity=80 time=0
EXTRACT: note_off channel=0 note=64 velocity=64 time=0
EXTRACT: note_off channel=0 note=59 velocity=64 time=0
EXTRACT: note_off channel=0 note=52 velocity=64 time=0
EXTRACT: note_on channel=0 note=57 velocity=80 time=0
EXTRACT: note_on channel=0 note=52 velocity=80 time=0
EXTRACT: note_on channel=0 note=45 velocity=80 time=0
EXTRACT: note_off channel=2 note=40 velocity=64 time=0
EXTRACT: note_off channel=6 note=64 velocity=64 time=0
EXTRACT: note_off channel=6 note=68 velocity=64 time=0
EXTRACT: note_off channel=6 note=71 velocity=64 time=0
EXTRACT: note_off channel=0 note=57 velocity=64 time=0.4166665
EXTRACT: note_off channel=0 note=52 velocity=64 time=0
EXTRACT: note_off channel=0 note=45 velocity=64 time=0
EXTRACT: note_on channel=0 note=57 velocity=80 time=0
EXTRACT: note_on channel=0 note=52 velocity=80 time=0
EXTRACT: note_on channel=0 note=45 velocity=80 time=0
EXTRACT: note_off channel=0 note=57 velocity=64 time=0.20833325
EXTRACT: note_off channel=0 note=52 velocity=64 time=0
EXTRACT: note_off channel=0 note=45 velocity=64 time=0
EXTRACT: note_on channel=0 note=57 velocity=80 time=0
EXTRACT: note_on channel=0 note=52 velocity=80 time=0
EXTRACT: note_on channel=0 note=45 velocity=80 time=0
EXTRACT: note_off channel=0 note=57 velocity=64 time=0.20833325
EXTRACT: note_off channel=0 note=52 velocity=64 time=0
EXTRACT: note_off channel=0 note=45 velocity=64 time=0
EXTRACT: note_on channel=0 note=57 velocity=80 time=0
EXTRACT: note_on channel=0 note=52 velocity=80 time=0
EXTRACT: note_on channel=0 note=45 velocity=80 time=0
EXTRACT: note_off channel=0 note=57 velocity=64 time=0.20833325
EXTRACT: note_off channel=0 note=52 velocity=64 time=0
EXTRACT: note_off channel=0 note=45 velocity=64 time=0
EXTRACT: note_on channel=0 note=57 velocity=80 time=0
EXTRACT: note_on channel=0 note=52 velocity=80 time=0
EXTRACT: note_on channel=0 note=45 velocity=80 time=0
EXTRACT: note_off channel=4 note=71 velocity=64 time=0.20833325
EXTRACT: note_on channel=4 note=73 velocity=80 time=0
EXTRACT: note_off channel=0 note=57 velocity=64 time=0
EXTRACT: note_off channel=0 note=52 velocity=64 time=0
EXTRACT: note_off channel=0 note=45 velocity=64 time=0
EXTRACT: note_on channel=0 note=59 velocity=80 time=0
EXTRACT: note_on channel=0 note=54 velocity=80 time=0
EXTRACT: note_on channel=0 note=47 velocity=80 time=0
EXTRACT: note_off channel=0 note=59 velocity=64 time=0.4166665
EXTRACT: note_off channel=0 note=54 velocity=64 time=0
EXTRACT: note_off channel=0 note=47 velocity=64 time=0
EXTRACT: note_on channel=0 note=59 velocity=80 time=0
EXTRACT: note_on channel=0 note=54 velocity=80 time=0
EXTRACT: note_on channel=0 note=47 velocity=80 time=0
EXTRACT: note_off channel=0 note=59 velocity=64 time=0.20833325
EXTRACT: note_off channel=0 note=54 velocity=64 time=0
EXTRACT: note_off channel=0 note=47 velocity=64 time=0
EXTRACT: note_on channel=0 note=59 velocity=80 time=0
EXTRACT: note_on channel=0 note=54 velocity=80 time=0
EXTRACT: note_on channel=0 note=47 velocity=80 time=0
EXTRACT: note_off channel=0 note=59 velocity=64 time=0.20833325
EXTRACT: note_off channel=0 note=54 velocity=64 time=0
EXTRACT: note_off channel=0 note=47 velocity=64 time=0
EXTRACT: note_on channel=0 note=59 velocity=80 time=0
EXTRACT: note_on channel=0 note=54 velocity=80 time=0
EXTRACT: note_on channel=0 note=47 velocity=80 time=0
EXTRACT: note_off channel=0 note=59 velocity=64 time=0.20833325
EXTRACT: note_off channel=0 note=54 velocity=64 time=0
EXTRACT: note_off channel=0 note=47 velocity=64 time=0
EXTRACT: note_on channel=0 note=59 velocity=80 time=0
EXTRACT: note_on channel=0 note=54 velocity=80 time=0
EXTRACT: note_on channel=0 note=47 velocity=80 time=0
EXTRACT: note_off channel=4 note=73 velocity=64 time=0.20833325
EXTRACT: note_on channel=4 note=62 velocity=80 time=0
EXTRACT: note_off channel=0 note=59 velocity=64 time=0
EXTRACT: note_off channel=0 note=54 velocity=64 time=0
EXTRACT: note_off channel=0 note=47 velocity=64 time=0
EXTRACT: note_on channel=0 note=62 velocity=80 time=0
EXTRACT: note_on channel=0 note=57 velocity=80 time=0
EXTRACT: note_on channel=0 note=50 velocity=80 time=0
EXTRACT: note_off channel=0 note=62 velocity=64 time=0.4166665
EXTRACT: note_off channel=0 note=57 velocity=64 time=0
EXTRACT: note_off channel=0 note=50 velocity=64 time=0
EXTRACT: note_on channel=0 note=62 velocity=80 time=0
EXTRACT: note_on channel=0 note=57 velocity=80 time=0
EXTRACT: note_on channel=0 note=50 velocity=80 time=0
EXTRACT: note_off channel=0 note=62 velocity=64 time=0.20833325
EXTRACT: note_off channel=0 note=57 velocity=64 time=0
EXTRACT: note_off channel=0 note=50 velocity=64 time=0
EXTRACT: note_on channel=0 note=62 velocity=80 time=0
EXTRACT: note_on channel=0 note=57 velocity=80 time=0
EXTRACT: note_on channel=0 note=50 velocity=80 time=0
EXTRACT: note_off channel=0 note=62 velocity=64 time=0.20833325
EXTRACT: note_off channel=0 note=57 velocity=64 time=0
EXTRACT: note_off channel=0 note=50 velocity=64 time=0
EXTRACT: note_on channel=0 note=62 velocity=80 time=0
EXTRACT: note_on channel=0 note=57 velocity=80 time=0
EXTRACT: note_on channel=0 note=50 velocity=80 time=0
EXTRACT: note_off channel=0 note=62 velocity=64 time=0.20833325
EXTRACT: note_off channel=0 note=57 velocity=64 time=0
EXTRACT: note_off channel=0 note=50 velocity=64 time=0
EXTRACT: note_on channel=0 note=62 velocity=80 time=0
EXTRACT: note_on channel=0 note=57 velocity=80 time=0
EXTRACT: note_on channel=0 note=50 velocity=80 time=0
EXTRACT: note_off channel=4 note=62 velocity=64 time=0.20833325
EXTRACT: note_off channel=0 note=62 velocity=64 time=0
EXTRACT: note_off channel=0 note=57 velocity=64 time=0
EXTRACT: note_off channel=0 note=50 velocity=64 time=0
EXTRACT: note_on channel=0 note=62 velocity=80 time=0
EXTRACT: note_on channel=0 note=57 velocity=80 time=0
EXTRACT: note_on channel=0 note=50 velocity=80 time=0
EXTRACT: note_on channel=4 note=64 velocity=80 time=0.20833325
EXTRACT: note_off channel=4 note=64 velocity=64 time=0.20833325
EXTRACT: note_on channel=4 note=64 velocity=80 time=0
EXTRACT: note_off channel=0 note=62 velocity=64 time=0
EXTRACT: note_off channel=0 note=57 velocity=64 time=0
EXTRACT: note_off channel=0 note=50 velocity=64 time=0
EXTRACT: note_on channel=0 note=62 velocity=80 time=0
EXTRACT: note_on channel=0 note=57 velocity=80 time=0
EXTRACT: note_on channel=0 note=50 velocity=80 time=0
EXTRACT: note_off channel=4 note=64 velocity=64 time=0.20833325
EXTRACT: note_on channel=4 note=64 velocity=80 time=0
EXTRACT: note_off channel=0 note=62 velocity=64 time=0
EXTRACT: note_off channel=0 note=57 velocity=64 time=0
EXTRACT: note_off channel=0 note=50 velocity=64 time=0
EXTRACT: note_on channel=0 note=62 velocity=80 time=0
EXTRACT: note_on channel=0 note=57 velocity=80 time=0
EXTRACT: note_on channel=0 note=50 velocity=80 time=0
EXTRACT: note_off channel=4 note=64 velocity=64 time=0.20833325
EXTRACT: note_on channel=4 note=64 velocity=80 time=0
EXTRACT: note_off channel=0 note=62 velocity=64 time=0
EXTRACT: note_off channel=0 note=57 velocity=64 time=0
EXTRACT: note_off channel=0 note=50 velocity=64 time=0
EXTRACT: note_on channel=0 note=62 velocity=80 time=0
EXTRACT: note_on channel=0 note=57 velocity=80 time=0
EXTRACT: note_on channel=0 note=50 velocity=80 time=0
EXTRACT: note_off channel=4 note=64 velocity=64 time=0.20833325
EXTRACT: note_on channel=4 note=64 velocity=80 time=0
EXTRACT: note_off channel=0 note=62 velocity=64 time=0
EXTRACT: note_off channel=0 note=57 velocity=64 time=0
EXTRACT: note_off channel=0 note=50 velocity=64 time=0
EXTRACT: note_on channel=0 note=62 velocity=80 time=0
EXTRACT: note_on channel=0 note=57 velocity=80 time=0
EXTRACT: note_on channel=0 note=50 velocity=80 time=0
EXTRACT: note_off channel=4 note=64 velocity=64 time=0.20833325
EXTRACT: note_on channel=4 note=71 velocity=80 time=0
EXTRACT: note_off channel=0 note=62 velocity=64 time=0
EXTRACT: note_off channel=0 note=57 velocity=64 time=0
EXTRACT: note_off channel=0 note=50 velocity=64 time=0
EXTRACT: note_on channel=0 note=57 velocity=80 time=0
EXTRACT: note_on channel=0 note=52 velocity=80 time=0
EXTRACT: note_on channel=0 note=45 velocity=80 time=0
EXTRACT: note_off channel=0 note=57 velocity=64 time=0.4166665
EXTRACT: note_off channel=0 note=52 velocity=64 time=0
EXTRACT: note_off channel=0 note=45 velocity=64 time=0
EXTRACT: note_on channel=0 note=57 velocity=80 time=0
EXTRACT: note_on channel=0 note=52 velocity=80 time=0
EXTRACT: note_on channel=0 note=45 velocity=80 time=0
EXTRACT: note_off channel=0 note=57 velocity=64 time=0.20833325
EXTRACT: note_off channel=0 note=52 velocity=64 time=0
EXTRACT: note_off channel=0 note=45 velocity=64 time=0
EXTRACT: note_on channel=0 note=57 velocity=80 time=0
EXTRACT: note_on channel=0 note=52 velocity=80 time=0
EXTRACT: note_on channel=0 note=45 velocity=80 time=0
EXTRACT: note_off channel=0 note=57 velocity=64 time=0.20833325
EXTRACT: note_off channel=0 note=52 velocity=64 time=0
EXTRACT: note_off channel=0 note=45 velocity=64 time=0
EXTRACT: note_on channel=0 note=57 velocity=80 time=0
EXTRACT: note_on channel=0 note=52 velocity=80 time=0
EXTRACT: note_on channel=0 note=45 velocity=80 time=0
EXTRACT: note_off channel=0 note=57 velocity=64 time=0.20833325
EXTRACT: note_off channel=0 note=52 velocity=64 time=0
EXTRACT: note_off channel=0 note=45 velocity=64 time=0
EXTRACT: note_on channel=0 note=57 velocity=80 time=0
EXTRACT: note_on channel=0 note=52 velocity=80 time=0
EXTRACT: note_on channel=0 note=45 velocity=80 time=0
EXTRACT: note_off channel=4 note=71 velocity=64 time=0.20833325
EXTRACT: note_on channel=4 note=73 velocity=80 time=0
EXTRACT: note_off channel=0 note=57 velocity=64 time=0
EXTRACT: note_off channel=0 note=52 velocity=64 time=0
EXTRACT: note_off channel=0 note=45 velocity=64 time=0
EXTRACT: note_on channel=0 note=59 velocity=80 time=0
EXTRACT: note_on channel=0 note=54 velocity=80 time=0
EXTRACT: note_on channel=0 note=47 velocity=80 time=0
EXTRACT: note_off channel=0 note=59 velocity=64 time=0.4166665
EXTRACT: note_off channel=0 note=54 velocity=64 time=0
EXTRACT: note_off channel=0 note=47 velocity=64 time=0
EXTRACT: note_on channel=0 note=59 velocity=80 time=0
EXTRACT: note_on channel=0 note=54 velocity=80 time=0
EXTRACT: note_on channel=0 note=47 velocity=80 time=0
EXTRACT: note_off channel=0 note=59 velocity=64 time=0.20833325
EXTRACT: note_off channel=0 note=54 velocity=64 time=0
EXTRACT: note_off channel=0 note=47 velocity=64 time=0
EXTRACT: note_on channel=0 note=59 velocity=80 time=0
EXTRACT: note_on channel=0 note=54 velocity=80 time=0
EXTRACT: note_on channel=0 note=47 velocity=80 time=0
EXTRACT: note_off channel=0 note=59 velocity=64 time=0.20833325
EXTRACT: note_off channel=0 note=54 velocity=64 time=0
EXTRACT: note_off channel=0 note=47 velocity=64 time=0
EXTRACT: note_on channel=0 note=59 velocity=80 time=0
EXTRACT: note_on channel=0 note=54 velocity=80 time=0
EXTRACT: note_on channel=0 note=47 velocity=80 time=0
EXTRACT: note_off channel=0 note=59 velocity=64 time=0.20833325
EXTRACT: note_off channel=0 note=54 velocity=64 time=0
EXTRACT: note_off channel=0 note=47 velocity=64 time=0
EXTRACT: note_on channel=0 note=59 velocity=80 time=0
EXTRACT: note_on channel=0 note=54 velocity=80 time=0
EXTRACT: note_on channel=0 note=47 velocity=80 time=0
EXTRACT: note_off channel=4 note=73 velocity=64 time=0.20833325
EXTRACT: note_on channel=4 note=62 velocity=80 time=0
EXTRACT: note_off channel=0 note=59 velocity=64 time=0
EXTRACT: note_off channel=0 note=54 velocity=64 time=0
EXTRACT: note_off channel=0 note=47 velocity=64 time=0
EXTRACT: note_on channel=0 note=62 velocity=80 time=0
EXTRACT: note_on channel=0 note=57 velocity=80 time=0
EXTRACT: note_on channel=0 note=50 velocity=80 time=0
EXTRACT: note_off channel=0 note=62 velocity=64 time=0.4166665
EXTRACT: note_off channel=0 note=57 velocity=64 time=0
EXTRACT: note_off channel=0 note=50 velocity=64 time=0
EXTRACT: note_on channel=0 note=62 velocity=80 time=0
EXTRACT: note_on channel=0 note=57 velocity=80 time=0
EXTRACT: note_on channel=0 note=50 velocity=80 time=0
EXTRACT: note_off channel=0 note=62 velocity=64 time=0.20833325
EXTRACT: note_off channel=0 note=57 velocity=64 time=0
EXTRACT: note_off channel=0 note=50 velocity=64 time=0
EXTRACT: note_on channel=0 note=62 velocity=80 time=0
EXTRACT: note_on channel=0 note=57 velocity=80 time=0
EXTRACT: note_on channel=0 note=50 velocity=80 time=0
EXTRACT: note_off channel=0 note=62 velocity=64 time=0.20833325
EXTRACT: note_off channel=0 note=57 velocity=64 time=0
EXTRACT: note_off channel=0 note=50 velocity=64 time=0
EXTRACT: note_on channel=0 note=62 velocity=80 time=0
EXTRACT: note_on channel=0 note=57 velocity=80 time=0
EXTRACT: note_on channel=0 note=50 velocity=80 time=0
EXTRACT: note_off channel=0 note=62 velocity=64 time=0.20833325
EXTRACT: note_off channel=0 note=57 velocity=64 time=0
EXTRACT: note_off channel=0 note=50 velocity=64 time=0
EXTRACT: note_on channel=0 note=62 velocity=80 time=0
EXTRACT: note_on channel=0 note=57 velocity=80 time=0
EXTRACT: note_on channel=0 note=50 velocity=80 time=0
EXTRACT: note_off channel=4 note=62 velocity=64 time=0.20833325
EXTRACT: note_off channel=0 note=62 velocity=64 time=0
EXTRACT: note_off channel=0 note=57 velocity=64 time=0
EXTRACT: note_off channel=0 note=50 velocity=64 time=0
EXTRACT: note_on channel=0 note=62 velocity=80 time=0
EXTRACT: note_on channel=0 note=57 velocity=80 time=0
EXTRACT: note_on channel=0 note=50 velocity=80 time=0
EXTRACT: note_on channel=4 note=64 velocity=80 time=0.4166665
EXTRACT: note_off channel=0 note=62 velocity=64 time=0
EXTRACT: note_off channel=0 note=57 velocity=64 time=0
EXTRACT: note_off channel=0 note=50 velocity=64 time=0
EXTRACT: note_on channel=0 note=62 velocity=80 time=0
EXTRACT: note_on channel=0 note=57 velocity=80 time=0
EXTRACT: note_on channel=0 note=50 velocity=80 time=0
EXTRACT: note_off channel=0 note=62 velocity=64 time=0.20833325
EXTRACT: note_off channel=0 note=57 velocity=64 time=0
EXTRACT: note_off channel=0 note=50 velocity=64 time=0
EXTRACT: note_on channel=0 note=62 velocity=80 time=0
EXTRACT: note_on channel=0 note=57 velocity=80 time=0
EXTRACT: note_on channel=0 note=50 velocity=80 time=0
EXTRACT: note_off channel=4 note=64 velocity=64 time=0.20833325
EXTRACT: note_on channel=4 note=64 velocity=80 time=0
EXTRACT: note_off channel=0 note=62 velocity=64 time=0
EXTRACT: note_off channel=0 note=57 velocity=64 time=0
EXTRACT: note_off channel=0 note=50 velocity=64 time=0
EXTRACT: note_on channel=0 note=62 velocity=80 time=0
EXTRACT: note_on channel=0 note=57 velocity=80 time=0
EXTRACT: note_on channel=0 note=50 velocity=80 time=0
EXTRACT: note_off channel=0 note=62 velocity=64 time=0.20833325
EXTRACT: note_off channel=0 note=57 velocity=64 time=0
EXTRACT: note_off channel=0 note=50 velocity=64 time=0
EXTRACT: note_on channel=0 note=62 velocity=80 time=0
EXTRACT: note_on channel=0 note=57 velocity=80 time=0
EXTRACT: note_on channel=0 note=50 velocity=80 time=0
EXTRACT: note_off channel=4 note=64 velocity=64 time=0.20833325
EXTRACT: note_off channel=0 note=62 velocity=64 time=0
EXTRACT: note_off channel=0 note=57 velocity=64 time=0
EXTRACT: note_off channel=0 note=50 velocity=64 time=0
EXTRACT: note_on channel=0 note=57 velocity=80 time=0
EXTRACT: note_on channel=0 note=52 velocity=80 time=0
EXTRACT: note_on channel=0 note=45 velocity=80 time=0
EXTRACT: note_on channel=4 note=71 velocity=80 time=0.4166665
EXTRACT: note_off channel=0 note=57 velocity=64 time=0
EXTRACT: note_off channel=0 note=52 velocity=64 time=0
EXTRACT: note_off channel=0 note=45 velocity=64 time=0
EXTRACT: note_on channel=0 note=57 velocity=80 time=0
EXTRACT: note_on channel=0 note=52 velocity=80 time=0
EXTRACT: note_on channel=0 note=45 velocity=80 time=0
EXTRACT: note_off channel=4 note=71 velocity=64 time=0.20833325
EXTRACT: note_on channel=4 note=71 velocity=80 time=0
EXTRACT: note_off channel=0 note=57 velocity=64 time=0
EXTRACT: note_off channel=0 note=52 velocity=64 time=0
EXTRACT: note_off channel=0 note=45 velocity=64 time=0
EXTRACT: note_on channel=0 note=57 velocity=80 time=0
EXTRACT: note_on channel=0 note=52 velocity=80 time=0
EXTRACT: note_on channel=0 note=45 velocity=80 time=0
EXTRACT: note_off channel=4 note=71 velocity=64 time=0.20833325
EXTRACT: note_on channel=4 note=71 velocity=80 time=0
EXTRACT: note_off channel=0 note=57 velocity=64 time=0
EXTRACT: note_off channel=0 note=52 velocity=64 time=0
EXTRACT: note_off channel=0 note=45 velocity=64 time=0
EXTRACT: note_on channel=0 note=57 velocity=80 time=0
EXTRACT: note_on channel=0 note=52 velocity=80 time=0
EXTRACT: note_on channel=0 note=45 velocity=80 time=0
EXTRACT: note_off channel=4 note=71 velocity=64 time=0.20833325
EXTRACT: note_on channel=4 note=71 velocity=80 time=0
EXTRACT: note_off channel=0 note=57 velocity=64 time=0
EXTRACT: note_off channel=0 note=52 velocity=64 time=0
EXTRACT: note_off channel=0 note=45 velocity=64 time=0
EXTRACT: note_on channel=0 note=57 velocity=80 time=0
EXTRACT: note_on channel=0 note=52 velocity=80 time=0
EXTRACT: note_on channel=0 note=45 velocity=80 time=0
EXTRACT: note_off channel=4 note=71 velocity=64 time=0.20833325
EXTRACT: note_on channel=4 note=71 velocity=80 time=0
EXTRACT: note_off channel=0 note=57 velocity=64 time=0
EXTRACT: note_off channel=0 note=52 velocity=64 time=0
EXTRACT: note_off channel=0 note=45 velocity=64 time=0
EXTRACT: note_on channel=0 note=59 velocity=80 time=0
EXTRACT: note_on channel=0 note=54 velocity=80 time=0
EXTRACT: note_on channel=0 note=47 velocity=80 time=0
EXTRACT: note_off channel=4 note=71 velocity=64 time=0.4166665
EXTRACT: note_on channel=4 note=69 velocity=80 time=0
EXTRACT: note_off channel=0 note=59 velocity=64 time=0
EXTRACT: note_off channel=0 note=54 velocity=64 time=0
EXTRACT: note_off channel=0 note=47 velocity=64 time=0
EXTRACT: note_on channel=0 note=59 velocity=80 time=0
EXTRACT: note_on channel=0 note=54 velocity=80 time=0
EXTRACT: note_on channel=0 note=47 velocity=80 time=0
EXTRACT: note_off channel=0 note=59 velocity=64 time=0.20833325
EXTRACT: note_off channel=0 note=54 velocity=64 time=0
EXTRACT: note_off channel=0 note=47 velocity=64 time=0
EXTRACT: note_on channel=0 note=59 velocity=80 time=0
EXTRACT: note_on channel=0 note=54 velocity=80 time=0
EXTRACT: note_on channel=0 note=47 velocity=80 time=0
EXTRACT: note_off channel=4 note=69 velocity=64 time=0.20833325
EXTRACT: note_on channel=4 note=68 velocity=80 time=0
EXTRACT: note_off channel=0 note=59 velocity=64 time=0
EXTRACT: note_off channel=0 note=54 velocity=64 time=0
EXTRACT: note_off channel=0 note=47 velocity=64 time=0
EXTRACT: note_on channel=0 note=59 velocity=80 time=0
EXTRACT: note_on channel=0 note=54 velocity=80 time=0
EXTRACT: note_on channel=0 note=47 velocity=80 time=0
EXTRACT: note_off channel=0 note=59 velocity=64 time=0.20833325
EXTRACT: note_off channel=0 note=54 velocity=64 time=0
EXTRACT: note_off channel=0 note=47 velocity=64 time=0
EXTRACT: note_on channel=0 note=59 velocity=80 time=0
EXTRACT: note_on channel=0 note=54 velocity=80 time=0
EXTRACT: note_on channel=0 note=47 velocity=80 time=0
EXTRACT: note_off channel=4 note=68 velocity=64 time=0.20833325
EXTRACT: note_on channel=4 note=69 velocity=80 time=0
EXTRACT: note_off channel=0 note=59 velocity=64 time=0
EXTRACT: note_off channel=0 note=54 velocity=64 time=0
EXTRACT: note_off channel=0 note=47 velocity=64 time=0
EXTRACT: note_on channel=0 note=62 velocity=80 time=0
EXTRACT: note_on channel=0 note=57 velocity=80 time=0
EXTRACT: note_on channel=0 note=50 velocity=80 time=0
EXTRACT: note_off channel=4 note=69 velocity=64 time=0.4166665
EXTRACT: note_on channel=4 note=68 velocity=80 time=0
EXTRACT: note_off channel=0 note=62 velocity=64 time=0
EXTRACT: note_off channel=0 note=57 velocity=64 time=0
EXTRACT: note_off channel=0 note=50 velocity=64 time=0
EXTRACT: note_on channel=0 note=62 velocity=80 time=0
EXTRACT: note_on channel=0 note=57 velocity=80 time=0
EXTRACT: note_on channel=0 note=50 velocity=80 time=0
EXTRACT: note_off channel=0 note=62 velocity=64 time=0.20833325
EXTRACT: note_off channel=0 note=57 velocity=64 time=0
EXTRACT: note_off channel=0 note=50 velocity=64 time=0
EXTRACT: note_on channel=0 note=62 velocity=80 time=0
EXTRACT: note_on channel=0 note=57 velocity=80 time=0
EXTRACT: note_on channel=0 note=50 velocity=80 time=0
EXTRACT: note_off channel=4 note=68 velocity=64 time=0.20833325
EXTRACT: note_on channel=4 note=66 velocity=80 time=0
EXTRACT: note_off channel=0 note=62 velocity=64 time=0
EXTRACT: note_off channel=0 note=57 velocity=64 time=0
EXTRACT: note_off channel=0 note=50 velocity=64 time=0
EXTRACT: note_on channel=0 note=62 velocity=80 time=0
EXTRACT: note_on channel=0 note=57 velocity=80 time=0
EXTRACT: note_on channel=0 note=50 velocity=80 time=0
EXTRACT: note_off channel=0 note=62 velocity=64 time=0.20833325
EXTRACT: note_off channel=0 note=57 velocity=64 time=0
EXTRACT: note_off channel=0 note=50 velocity=64 time=0
EXTRACT: note_on channel=0 note=62 velocity=80 time=0
EXTRACT: note_on channel=0 note=57 velocity=80 time=0
EXTRACT: note_on channel=0 note=50 velocity=80 time=0
EXTRACT: note_off channel=4 note=66 velocity=64 time=0.20833325
EXTRACT: note_off channel=0 note=62 velocity=64 time=0
EXTRACT: note_off channel=0 note=57 velocity=64 time=0
EXTRACT: note_off channel=0 note=50 velocity=64 time=0
EXTRACT: note_on channel=0 note=62 velocity=80 time=0
EXTRACT: note_on channel=0 note=57 velocity=80 time=0
EXTRACT: note_on channel=0 note=50 velocity=80 time=0
EXTRACT: note_off channel=0 note=62 velocity=64 time=0.4166665
EXTRACT: note_off channel=0 note=57 velocity=64 time=0
EXTRACT: note_off channel=0 note=50 velocity=64 time=0
EXTRACT: note_on channel=0 note=62 velocity=80 time=0
EXTRACT: note_on channel=0 note=57 velocity=80 time=0
EXTRACT: note_on channel=0 note=50 velocity=80 time=0
EXTRACT: note_off channel=0 note=62 velocity=64 time=0.20833325
EXTRACT: note_off channel=0 note=57 velocity=64 time=0
EXTRACT: note_off channel=0 note=50 velocity=64 time=0
EXTRACT: note_on channel=0 note=62 velocity=80 time=0
EXTRACT: note_on channel=0 note=57 velocity=80 time=0
EXTRACT: note_on channel=0 note=50 velocity=80 time=0
EXTRACT: note_on channel=4 note=66 velocity=80 time=0.20833325
EXTRACT: note_off channel=0 note=62 velocity=64 time=0
EXTRACT: note_off channel=0 note=57 velocity=64 time=0
EXTRACT: note_off channel=0 note=50 velocity=64 time=0
EXTRACT: note_on channel=0 note=62 velocity=80 time=0
EXTRACT: note_on channel=0 note=57 velocity=80 time=0
EXTRACT: note_on channel=0 note=50 velocity=80 time=0
EXTRACT: note_off channel=4 note=66 velocity=64 time=0.20833325
EXTRACT: note_on channel=4 note=68 velocity=80 time=0
EXTRACT: note_off channel=0 note=62 velocity=64 time=0
EXTRACT: note_off channel=0 note=57 velocity=64 time=0
EXTRACT: note_off channel=0 note=50 velocity=64 time=0
EXTRACT: note_on channel=0 note=62 velocity=80 time=0
EXTRACT: note_on channel=0 note=57 velocity=80 time=0
EXTRACT: note_on channel=0 note=50 velocity=80 time=0
EXTRACT: note_off channel=4 note=68 velocity=64 time=0.20833325
EXTRACT: note_on channel=4 note=68 velocity=80 time=0
EXTRACT: note_off channel=0 note=62 velocity=64 time=0
EXTRACT: note_off channel=0 note=57 velocity=64 time=0
EXTRACT: note_off channel=0 note=50 velocity=64 time=0
EXTRACT: note_on channel=0 note=54 velocity=80 time=0
EXTRACT: note_on channel=0 note=49 velocity=80 time=0
EXTRACT: note_on channel=0 note=42 velocity=80 time=0
EXTRACT: note_off channel=4 note=68 velocity=64 time=0.4166665
EXTRACT: note_on channel=4 note=66 velocity=80 time=0
EXTRACT: note_off channel=0 note=54 velocity=64 time=0
EXTRACT: note_off channel=0 note=49 velocity=64 time=0
EXTRACT: note_off channel=0 note=42 velocity=64 time=0
EXTRACT: note_on channel=0 note=54 velocity=80 time=0
EXTRACT: note_on channel=0 note=49 velocity=80 time=0
EXTRACT: note_on channel=0 note=42 velocity=80 time=0
EXTRACT: note_off channel=0 note=54 velocity=64 time=0.20833325
EXTRACT: note_off channel=0 note=49 velocity=64 time=0
EXTRACT: note_off channel=0 note=42 velocity=64 time=0
EXTRACT: note_on channel=0 note=54 velocity=80 time=0
EXTRACT: note_on channel=0 note=49 velocity=80 time=0
EXTRACT: note_on channel=0 note=42 velocity=80 time=0
EXTRACT: note_off channel=0 note=54 velocity=64 time=0.20833325
EXTRACT: note_off channel=0 note=49 velocity=64 time=0
EXTRACT: note_off channel=0 note=42 velocity=64 time=0
EXTRACT: note_on channel=0 note=54 velocity=80 time=0
EXTRACT: note_on channel=0 note=49 velocity=80 time=0
EXTRACT: note_on channel=0 note=42 velocity=80 time=0
EXTRACT: note_off channel=4 note=66 velocity=64 time=0.20833325
EXTRACT: note_on channel=4 note=64 velocity=80 time=0
EXTRACT: note_off channel=0 note=54 velocity=64 time=0
EXTRACT: note_off channel=0 note=49 velocity=64 time=0
EXTRACT: note_off channel=0 note=42 velocity=64 time=0
EXTRACT: note_on channel=0 note=54 velocity=80 time=0
EXTRACT: note_on channel=0 note=49 velocity=80 time=0
EXTRACT: note_on channel=0 note=42 velocity=80 time=0
EXTRACT: note_off channel=4 note=64 velocity=64 time=0.20833325
EXTRACT: note_on channel=4 note=62 velocity=80 time=0
EXTRACT: note_off channel=0 note=54 velocity=64 time=0
EXTRACT: note_off channel=0 note=49 velocity=64 time=0
EXTRACT: note_off channel=0 note=42 velocity=64 time=0
EXTRACT: note_on channel=0 note=64 velocity=80 time=0
EXTRACT: note_on channel=0 note=59 velocity=80 time=0
EXTRACT: note_on channel=0 note=52 velocity=80 time=0
EXTRACT: note_off channel=0 note=64 velocity=64 time=0.4166665
EXTRACT: note_off channel=0 note=59 velocity=64 time=0
EXTRACT: note_off channel=0 note=52 velocity=64 time=0
EXTRACT: note_on channel=0 note=64 velocity=80 time=0
EXTRACT: note_on channel=0 note=59 velocity=80 time=0
EXTRACT: note_on channel=0 note=52 velocity=80 time=0
EXTRACT: note_off channel=0 note=64 velocity=64 time=0.20833325
EXTRACT: note_off channel=0 note=59 velocity=64 time=0
EXTRACT: note_off channel=0 note=52 velocity=64 time=0
EXTRACT: note_on channel=0 note=64 velocity=80 time=0
EXTRACT: note_on channel=0 note=59 velocity=80 time=0
EXTRACT: note_on channel=0 note=52 velocity=80 time=0
EXTRACT: note_off channel=4 note=62 velocity=64 time=0.20833325
EXTRACT: note_on channel=4 note=68 velocity=80 time=0
EXTRACT: note_off channel=0 note=64 velocity=64 time=0
EXTRACT: note_off channel=0 note=59 velocity=64 time=0
EXTRACT: note_off channel=0 note=52 velocity=64 time=0
EXTRACT: note_on channel=0 note=64 velocity=80 time=0
EXTRACT: note_on channel=0 note=59 velocity=80 time=0
EXTRACT: note_on channel=0 note=52 velocity=80 time=0
EXTRACT: note_off channel=0 note=64 velocity=64 time=0.20833325
EXTRACT: note_off channel=0 note=59 velocity=64 time=0
EXTRACT: note_off channel=0 note=52 velocity=64 time=0
EXTRACT: note_on channel=0 note=64 velocity=80 time=0
EXTRACT: note_on channel=0 note=59 velocity=80 time=0
EXTRACT: note_on channel=0 note=52 velocity=80 time=0
EXTRACT: note_off channel=4 note=68 velocity=64 time=0.20833325
EXTRACT: note_on channel=4 note=66 velocity=80 time=0
EXTRACT: note_off channel=0 note=64 velocity=64 time=0
EXTRACT: note_off channel=0 note=59 velocity=64 time=0
EXTRACT: note_off channel=0 note=52 velocity=64 time=0
EXTRACT: note_on channel=0 note=62 velocity=80 time=0
EXTRACT: note_on channel=0 note=57 velocity=80 time=0
EXTRACT: note_on channel=0 note=50 velocity=80 time=0
EXTRACT: note_off channel=0 note=62 velocity=64 time=0.4166665
EXTRACT: note_off channel=0 note=57 velocity=64 time=0
EXTRACT: note_off channel=0 note=50 velocity=64 time=0
EXTRACT: note_on channel=0 note=62 velocity=80 time=0
EXTRACT: note_on channel=0 note=57 velocity=80 time=0
EXTRACT: note_on channel=0 note=50 velocity=80 time=0
EXTRACT: note_off channel=0 note=62 velocity=64 time=0.20833325
EXTRACT: note_off channel=0 note=57 velocity=64 time=0
EXTRACT: note_off channel=0 note=50 velocity=64 time=0
EXTRACT: note_on channel=0 note=62 velocity=80 time=0
EXTRACT: note_on channel=0 note=57 velocity=80 time=0
EXTRACT: note_on channel=0 note=50 velocity=80 time=0
EXTRACT: note_off channel=0 note=62 velocity=64 time=0.20833325
EXTRACT: note_off channel=0 note=57 velocity=64 time=0
EXTRACT: note_off channel=0 note=50 velocity=64 time=0
EXTRACT: note_on channel=0 note=62 velocity=80 time=0
EXTRACT: note_on channel=0 note=57 velocity=80 time=0
EXTRACT: note_on channel=0 note=50 velocity=80 time=0
EXTRACT: note_off channel=0 note=62 velocity=64 time=0.20833325
EXTRACT: note_off channel=0 note=57 velocity=64 time=0
EXTRACT: note_off channel=0 note=50 velocity=64 time=0
EXTRACT: note_on channel=0 note=62 velocity=80 time=0
EXTRACT: note_on channel=0 note=57 velocity=80 time=0
EXTRACT: note_on channel=0 note=50 velocity=80 time=0
EXTRACT: note_off channel=4 note=66 velocity=64 time=0.20833325
EXTRACT: note_off channel=0 note=62 velocity=64 time=0
EXTRACT: note_off channel=0 note=57 velocity=64 time=0
EXTRACT: note_off channel=0 note=50 velocity=64 time=0
EXTRACT: note_on channel=0 note=62 velocity=80 time=0
EXTRACT: note_on channel=0 note=57 velocity=80 time=0
EXTRACT: note_on channel=0 note=50 velocity=80 time=0
EXTRACT: note_on channel=4 note=76 velocity=80 time=0.4166665
EXTRACT: note_off channel=0 note=62 velocity=64 time=0
EXTRACT: note_off channel=0 note=57 velocity=64 time=0
EXTRACT: note_off channel=0 note=50 velocity=64 time=0
EXTRACT: note_on channel=0 note=62 velocity=80 time=0
EXTRACT: note_on channel=0 note=57 velocity=80 time=0
EXTRACT: note_on channel=0 note=50 velocity=80 time=0
EXTRACT: note_off channel=0 note=62 velocity=64 time=0.20833325
EXTRACT: note_off channel=0 note=57 velocity=64 time=0
EXTRACT: note_off channel=0 note=50 velocity=64 time=0
EXTRACT: note_on channel=0 note=62 velocity=80 time=0
EXTRACT: note_on channel=0 note=57 velocity=80 time=0
EXTRACT: note_on channel=0 note=50 velocity=80 time=0
EXTRACT: note_off channel=4 note=76 velocity=64 time=0.20833325
EXTRACT: note_on channel=4 note=76 velocity=80 time=0
EXTRACT: note_off channel=0 note=62 velocity=64 time=0
EXTRACT: note_off channel=0 note=57 velocity=64 time=0
EXTRACT: note_off channel=0 note=50 velocity=64 time=0
EXTRACT: note_on channel=0 note=62 velocity=80 time=0
EXTRACT: note_on channel=0 note=57 velocity=80 time=0
EXTRACT: note_on channel=0 note=50 velocity=80 time=0
EXTRACT: note_off channel=0 note=62 velocity=64 time=0.20833325
EXTRACT: note_off channel=0 note=57 velocity=64 time=0
EXTRACT: note_off channel=0 note=50 velocity=64 time=0
EXTRACT: note_on channel=0 note=62 velocity=80 time=0
EXTRACT: note_on channel=0 note=57 velocity=80 time=0
EXTRACT: note_on channel=0 note=50 velocity=80 time=0
EXTRACT: note_off channel=4 note=76 velocity=64 time=0.20833325
EXTRACT: note_on channel=4 note=76 velocity=80 time=0
EXTRACT: note_off channel=0 note=62 velocity=64 time=0
EXTRACT: note_off channel=0 note=57 velocity=64 time=0
EXTRACT: note_off channel=0 note=50 velocity=64 time=0
EXTRACT: note_on channel=0 note=57 velocity=80 time=0
EXTRACT: note_on channel=0 note=52 velocity=80 time=0
EXTRACT: note_on channel=0 note=45 velocity=80 time=0
EXTRACT: note_on channel=2 note=33 velocity=80 time=0
EXTRACT: note_on channel=6 note=64 velocity=80 time=0
EXTRACT: note_on channel=6 note=61 velocity=80 time=0
EXTRACT: note_on channel=6 note=57 velocity=80 time=0
EXTRACT: note_off channel=4 note=76 velocity=64 time=0.20833325
EXTRACT: note_on channel=4 note=73 velocity=80 time=0
EXTRACT: note_off channel=4 note=73 velocity=64 time=0.20833325
EXTRACT: note_off channel=0 note=57 velocity=64 time=0
EXTRACT: note_off channel=0 note=52 velocity=64 time=0
EXTRACT: note_off channel=0 note=45 velocity=64 time=0
EXTRACT: note_on channel=0 note=57 velocity=80 time=0
EXTRACT: note_on channel=0 note=52 velocity=80 time=0
EXTRACT: note_on channel=0 note=45 velocity=80 time=0
EXTRACT: note_off channel=0 note=57 velocity=64 time=0.20833325
EXTRACT: note_off channel=0 note=52 velocity=64 time=0
EXTRACT: note_off channel=0 note=45 velocity=64 time=0
EXTRACT: note_on channel=0 note=57 velocity=80 time=0
EXTRACT: note_on channel=0 note=52 velocity=80 time=0
EXTRACT: note_on channel=0 note=45 velocity=80 time=0
EXTRACT: note_off channel=0 note=57 velocity=64 time=0.20833325
EXTRACT: note_off channel=0 note=52 velocity=64 time=0
EXTRACT: note_off channel=0 note=45 velocity=64 time=0
EXTRACT: note_on channel=0 note=57 velocity=80 time=0
EXTRACT: note_on channel=0 note=52 velocity=80 time=0
EXTRACT: note_on channel=0 note=45 velocity=80 time=0
EXTRACT: note_off channel=6 note=64 velocity=64 time=0
EXTRACT: note_off channel=6 note=61 velocity=64 time=0
EXTRACT: note_off channel=6 note=57 velocity=64 time=0
EXTRACT: note_on channel=6 note=57 velocity=80 time=0
EXTRACT: note_off channel=0 note=57 velocity=64 time=0.20833325
EXTRACT: note_off channel=0 note=52 velocity=64 time=0
EXTRACT: note_off channel=0 note=45 velocity=64 time=0
EXTRACT: note_on channel=0 note=57 velocity=80 time=0
EXTRACT: note_on channel=0 note=52 velocity=80 time=0
EXTRACT: note_on channel=0 note=45 velocity=80 time=0
EXTRACT: note_off channel=0 note=57 velocity=64 time=0.20833325
EXTRACT: note_off channel=0 note=52 velocity=64 time=0
EXTRACT: note_off channel=0 note=45 velocity=64 time=0
EXTRACT: note_on channel=0 note=59 velocity=80 time=0
EXTRACT: note_on channel=0 note=54 velocity=80 time=0
EXTRACT: note_on channel=0 note=47 velocity=80 time=0
EXTRACT: note_off channel=2 note=33 velocity=64 time=0
EXTRACT: note_on channel=2 note=35 velocity=80 time=0
EXTRACT: note_off channel=6 note=57 velocity=64 time=0
EXTRACT: note_on channel=6 note=66 velocity=80 time=0
EXTRACT: note_on channel=6 note=59 velocity=80 time=0
EXTRACT: note_on channel=6 note=62 velocity=80 time=0
EXTRACT: note_off channel=0 note=59 velocity=64 time=0.4166665
EXTRACT: note_off channel=0 note=54 velocity=64 time=0
EXTRACT: note_off channel=0 note=47 velocity=64 time=0
EXTRACT: note_on channel=0 note=59 velocity=80 time=0
EXTRACT: note_on channel=0 note=54 velocity=80 time=0
EXTRACT: note_on channel=0 note=47 velocity=80 time=0
EXTRACT: note_on channel=4 note=71 velocity=80 time=0.20833325
EXTRACT: note_off channel=0 note=59 velocity=64 time=0
EXTRACT: note_off channel=0 note=54 velocity=64 time=0
EXTRACT: note_off channel=0 note=47 velocity=64 time=0
EXTRACT: note_on channel=0 note=59 velocity=80 time=0
EXTRACT: note_on channel=0 note=54 velocity=80 time=0
EXTRACT: note_on channel=0 note=47 velocity=80 time=0
EXTRACT: note_off channel=4 note=71 velocity=64 time=0.20833325
EXTRACT: note_on channel=4 note=69 velocity=80 time=0
EXTRACT: note_off channel=0 note=59 velocity=64 time=0
EXTRACT: note_off channel=0 note=54 velocity=64 time=0
EXTRACT: note_off channel=0 note=47 velocity=64 time=0
EXTRACT: note_on channel=0 note=59 velocity=80 time=0
EXTRACT: note_on channel=0 note=54 velocity=80 time=0
EXTRACT: note_on channel=0 note=47 velocity=80 time=0
EXTRACT: note_off channel=6 note=66 velocity=64 time=0
EXTRACT: note_off channel=6 note=59 velocity=64 time=0
EXTRACT: note_off channel=6 note=62 velocity=64 time=0
EXTRACT: note_on channel=6 note=59 velocity=80 time=0
EXTRACT: note_off channel=4 note=69 velocity=64 time=0.20833325
EXTRACT: note_on channel=4 note=71 velocity=80 time=0
EXTRACT: note_off channel=0 note=59 velocity=64 time=0
EXTRACT: note_off channel=0 note=54 velocity=64 time=0
EXTRACT: note_off channel=0 note=47 velocity=64 time=0
EXTRACT: note_on channel=0 note=59 velocity=80 time=0
EXTRACT: note_on channel=0 note=54 velocity=80 time=0
EXTRACT: note_on channel=0 note=47 velocity=80 time=0
EXTRACT: note_off channel=4 note=71 velocity=64 time=0.20833325
EXTRACT: note_on channel=4 note=66 velocity=80 time=0
EXTRACT: note_off channel=0 note=59 velocity=64 time=0
EXTRACT: note_off channel=0 note=54 velocity=64 time=0
EXTRACT: note_off channel=0 note=47 velocity=64 time=0
EXTRACT: note_on channel=0 note=62 velocity=80 time=0
EXTRACT: note_on channel=0 note=57 velocity=80 time=0
EXTRACT: note_on channel=0 note=50 velocity=80 time=0
EXTRACT: note_off channel=2 note=35 velocity=64 time=0
EXTRACT: note_on channel=2 note=38 velocity=80 time=0
EXTRACT: note_off channel=6 note=59 velocity=64 time=0
EXTRACT: note_on channel=6 note=66 velocity=80 time=0
EXTRACT: note_on channel=6 note=62 velocity=80 time=0
EXTRACT: note_on channel=6 note=69 velocity=80 time=0
EXTRACT: note_off channel=0 note=62 velocity=64 time=0.4166665
EXTRACT: note_off channel=0 note=57 velocity=64 time=0
EXTRACT: note_off channel=0 note=50 velocity=64 time=0
EXTRACT: note_on channel=0 note=62 velocity=80 time=0
EXTRACT: note_on channel=0 note=57 velocity=80 time=0
EXTRACT: note_on channel=0 note=50 velocity=80 time=0
EXTRACT: note_off channel=0 note=62 velocity=64 time=0.20833325
EXTRACT: note_off channel=0 note=57 velocity=64 time=0
EXTRACT: note_off channel=0 note=50 velocity=64 time=0
EXTRACT: note_on channel=0 note=62 velocity=80 time=0
EXTRACT: note_on channel=0 note=57 velocity=80 time=0
EXTRACT: note_on channel=0 note=50 velocity=80 time=0
EXTRACT: note_off channel=0 note=62 velocity=64 time=0.20833325
EXTRACT: note_off channel=0 note=57 velocity=64 time=0
EXTRACT: note_off channel=0 note=50 velocity=64 time=0
EXTRACT: note_on channel=0 note=62 velocity=80 time=0
EXTRACT: note_on channel=0 note=57 velocity=80 time=0
EXTRACT: note_on channel=0 note=50 velocity=80 time=0
EXTRACT: note_off channel=6 note=66 velocity=64 time=0
EXTRACT: note_off channel=6 note=62 velocity=64 time=0
EXTRACT: note_off channel=6 note=69 velocity=64 time=0
EXTRACT: note_on channel=6 note=66 velocity=80 time=0
EXTRACT: note_off channel=0 note=62 velocity=64 time=0.20833325
EXTRACT: note_off channel=0 note=57 velocity=64 time=0
EXTRACT: note_off channel=0 note=50 velocity=64 time=0
EXTRACT: note_on channel=0 note=62 velocity=80 time=0
EXTRACT: note_on channel=0 note=57 velocity=80 time=0
EXTRACT: note_on channel=0 note=50 velocity=80 time=0
EXTRACT: note_off channel=6 note=66 velocity=64 time=0
EXTRACT: note_on channel=6 note=69 velocity=80 time=0
EXTRACT: note_off channel=4 note=66 velocity=64 time=0.20833325
EXTRACT: note_off channel=0 note=62 velocity=64 time=0
EXTRACT: note_off channel=0 note=57 velocity=64 time=0
EXTRACT: note_off channel=0 note=50 velocity=64 time=0
EXTRACT: note_on channel=0 note=62 velocity=80 time=0
EXTRACT: note_on channel=0 note=57 velocity=80 time=0
EXTRACT: note_on channel=0 note=50 velocity=80 time=0
EXTRACT: note_off channel=2 note=38 velocity=64 time=0
EXTRACT: note_on channel=2 note=38 velocity=80 time=0
EXTRACT: note_off channel=6 note=69 velocity=64 time=0
EXTRACT: note_on channel=6 note=74 velocity=80 time=0
EXTRACT: note_on channel=4 note=76 velocity=80 time=0.4166665
EXTRACT: note_off channel=0 note=62 velocity=64 time=0
EXTRACT: note_off channel=0 note=57 velocity=64 time=0
EXTRACT: note_off channel=0 note=50 velocity=64 time=0
EXTRACT: note_on channel=0 note=62 velocity=80 time=0
EXTRACT: note_on channel=0 note=57 velocity=80 time=0
EXTRACT: note_on channel=0 note=50 velocity=80 time=0
EXTRACT: note_off channel=0 note=62 velocity=64 time=0.20833325
EXTRACT: note_off channel=0 note=57 velocity=64 time=0
EXTRACT: note_off channel=0 note=50 velocity=64 time=0
EXTRACT: note_on channel=0 note=62 velocity=80 time=0
EXTRACT: note_on channel=0 note=57 velocity=80 time=0
EXTRACT: note_on channel=0 note=50 velocity=80 time=0
EXTRACT: note_off channel=4 note=76 velocity=64 time=0.20833325
EXTRACT: note_on channel=4 note=76 velocity=80 time=0
EXTRACT: note_off channel=0 note=62 velocity=64 time=0
EXTRACT: note_off channel=0 note=57 velocity=64 time=0
EXTRACT: note_off channel=0 note=50 velocity=64 time=0
EXTRACT: note_on channel=0 note=62 velocity=80 time=0
EXTRACT: note_on channel=0 note=57 velocity=80 time=0
EXTRACT: note_on channel=0 note=50 velocity=80 time=0
EXTRACT: note_off channel=0 note=62 velocity=64 time=0.20833325
EXTRACT: note_off channel=0 note=57 velocity=64 time=0
EXTRACT: note_off channel=0 note=50 velocity=64 time=0
EXTRACT: note_on channel=0 note=62 velocity=80 time=0
EXTRACT: note_on channel=0 note=57 velocity=80 time=0
EXTRACT: note_on channel=0 note=50 velocity=80 time=0
EXTRACT: note_off channel=4 note=76 velocity=64 time=0.20833325
EXTRACT: note_on channel=4 note=76 velocity=80 time=0
EXTRACT: note_off channel=0 note=62 velocity=64 time=0
EXTRACT: note_off channel=0 note=57 velocity=64 time=0
EXTRACT: note_off channel=0 note=50 velocity=64 time=0
EXTRACT: note_on channel=0 note=57 velocity=80 time=0
EXTRACT: note_on channel=0 note=52 velocity=80 time=0
EXTRACT: note_on channel=0 note=45 velocity=80 time=0
EXTRACT: note_off channel=2 note=38 velocity=64 time=0
EXTRACT: note_on channel=2 note=33 velocity=80 time=0
EXTRACT: note_off channel=6 note=74 velocity=64 time=0
EXTRACT: note_on channel=6 note=64 velocity=80 time=0
EXTRACT: note_on channel=6 note=61 velocity=80 time=0
EXTRACT: note_on channel=6 note=57 velocity=80 time=0
EXTRACT: note_off channel=4 note=76 velocity=64 time=0.20833325
EXTRACT: note_on channel=4 note=73 velocity=80 time=0
EXTRACT: note_off channel=4 note=73 velocity=64 time=0.20833325
EXTRACT: note_off channel=0 note=57 velocity=64 time=0
EXTRACT: note_off channel=0 note=52 velocity=64 time=0
EXTRACT: note_off channel=0 note=45 velocity=64 time=0
EXTRACT: note_on channel=0 note=57 velocity=80 time=0
EXTRACT: note_on channel=0 note=52 velocity=80 time=0
EXTRACT: note_on channel=0 note=45 velocity=80 time=0
EXTRACT: note_off channel=0 note=57 velocity=64 time=0.20833325
EXTRACT: note_off channel=0 note=52 velocity=64 time=0
EXTRACT: note_off channel=0 note=45 velocity=64 time=0
EXTRACT: note_on channel=0 note=57 velocity=80 time=0
EXTRACT: note_on channel=0 note=52 velocity=80 time=0
EXTRACT: note_on channel=0 note=45 velocity=80 time=0
EXTRACT: note_off channel=0 note=57 velocity=64 time=0.20833325
EXTRACT: note_off channel=0 note=52 velocity=64 time=0
EXTRACT: note_off channel=0 note=45 velocity=64 time=0
EXTRACT: note_on channel=0 note=57 velocity=80 time=0
EXTRACT: note_on channel=0 note=52 velocity=80 time=0
EXTRACT: note_on channel=0 note=45 velocity=80 time=0
EXTRACT: note_off channel=6 note=64 velocity=64 time=0
EXTRACT: note_off channel=6 note=61 velocity=64 time=0
EXTRACT: note_off channel=6 note=57 velocity=64 time=0
EXTRACT: note_on channel=6 note=57 velocity=80 time=0
EXTRACT: note_off channel=0 note=57 velocity=64 time=0.20833325
EXTRACT: note_off channel=0 note=52 velocity=64 time=0
EXTRACT: note_off channel=0 note=45 velocity=64 time=0
EXTRACT: note_on channel=0 note=57 velocity=80 time=0
EXTRACT: note_on channel=0 note=52 velocity=80 time=0
EXTRACT: note_on channel=0 note=45 velocity=80 time=0
EXTRACT: note_off channel=0 note=57 velocity=64 time=0.20833325
EXTRACT: note_off channel=0 note=52 velocity=64 time=0
EXTRACT: note_off channel=0 note=45 velocity=64 time=0
EXTRACT: note_on channel=0 note=59 velocity=80 time=0
EXTRACT: note_on channel=0 note=54 velocity=80 time=0
EXTRACT: note_on channel=0 note=47 velocity=80 time=0
EXTRACT: note_off channel=2 note=33 velocity=64 time=0
EXTRACT: note_on channel=2 note=35 velocity=80 time=0
EXTRACT: note_off channel=6 note=57 velocity=64 time=0
EXTRACT: note_on channel=6 note=66 velocity=80 time=0
EXTRACT: note_on channel=6 note=59 velocity=80 time=0
EXTRACT: note_on channel=6 note=62 velocity=80 time=0
EXTRACT: note_off channel=0 note=59 velocity=64 time=0.4166665
EXTRACT: note_off channel=0 note=54 velocity=64 time=0
EXTRACT: note_off channel=0 note=47 velocity=64 time=0
EXTRACT: note_on channel=0 note=59 velocity=80 time=0
EXTRACT: note_on channel=0 note=54 velocity=80 time=0
EXTRACT: note_on channel=0 note=47 velocity=80 time=0
EXTRACT: note_on channel=4 note=71 velocity=80 time=0.20833325
EXTRACT: note_off channel=0 note=59 velocity=64 time=0
EXTRACT: note_off channel=0 note=54 velocity=64 time=0
EXTRACT: note_off channel=0 note=47 velocity=64 time=0
EXTRACT: note_on channel=0 note=59 velocity=80 time=0
EXTRACT: note_on channel=0 note=54 velocity=80 time=0
EXTRACT: note_on channel=0 note=47 velocity=80 time=0
EXTRACT: note_off channel=4 note=71 velocity=64 time=0.20833325
EXTRACT: note_on channel=4 note=69 velocity=80 time=0
EXTRACT: note_off channel=0 note=59 velocity=64 time=0
EXTRACT: note_off channel=0 note=54 velocity=64 time=0
EXTRACT: note_off channel=0 note=47 velocity=64 time=0
EXTRACT: note_on channel=0 note=59 velocity=80 time=0
EXTRACT: note_on channel=0 note=54 velocity=80 time=0
EXTRACT: note_on channel=0 note=47 velocity=80 time=0
EXTRACT: note_off channel=6 note=66 velocity=64 time=0
EXTRACT: note_off channel=6 note=59 velocity=64 time=0
EXTRACT: note_off channel=6 note=62 velocity=64 time=0
EXTRACT: note_on channel=6 note=59 velocity=80 time=0
EXTRACT: note_off channel=4 note=69 velocity=64 time=0.20833325
EXTRACT: note_on channel=4 note=71 velocity=80 time=0
EXTRACT: note_off channel=0 note=59 velocity=64 time=0
EXTRACT: note_off channel=0 note=54 velocity=64 time=0
EXTRACT: note_off channel=0 note=47 velocity=64 time=0
EXTRACT: note_on channel=0 note=59 velocity=80 time=0
EXTRACT: note_on channel=0 note=54 velocity=80 time=0
EXTRACT: note_on channel=0 note=47 velocity=80 time=0
EXTRACT: note_off channel=4 note=71 velocity=64 time=0.20833325
EXTRACT: note_on channel=4 note=73 velocity=80 time=0
EXTRACT: note_off channel=0 note=59 velocity=64 time=0
EXTRACT: note_off channel=0 note=54 velocity=64 time=0
EXTRACT: note_off channel=0 note=47 velocity=64 time=0
EXTRACT: note_on channel=0 note=62 velocity=80 time=0
EXTRACT: note_on channel=0 note=57 velocity=80 time=0
EXTRACT: note_on channel=0 note=50 velocity=80 time=0
EXTRACT: note_off channel=2 note=35 velocity=64 time=0
EXTRACT: note_on channel=2 note=38 velocity=80 time=0
EXTRACT: note_off channel=6 note=59 velocity=64 time=0
EXTRACT: note_on channel=6 note=66 velocity=80 time=0
EXTRACT: note_on channel=6 note=62 velocity=80 time=0
EXTRACT: note_on channel=6 note=69 velocity=80 time=0
EXTRACT: note_off channel=0 note=62 velocity=64 time=0.4166665
EXTRACT: note_off channel=0 note=57 velocity=64 time=0
EXTRACT: note_off channel=0 note=50 velocity=64 time=0
EXTRACT: note_on channel=0 note=62 velocity=80 time=0
EXTRACT: note_on channel=0 note=57 velocity=80 time=0
EXTRACT: note_on channel=0 note=50 velocity=80 time=0
EXTRACT: note_off channel=0 note=62 velocity=64 time=0.20833325
EXTRACT: note_off channel=0 note=57 velocity=64 time=0
EXTRACT: note_off channel=0 note=50 velocity=64 time=0
EXTRACT: note_on channel=0 note=62 velocity=80 time=0
EXTRACT: note_on channel=0 note=57 velocity=80 time=0
EXTRACT: note_on channel=0 note=50 velocity=80 time=0
EXTRACT: note_off channel=0 note=62 velocity=64 time=0.20833325
EXTRACT: note_off channel=0 note=57 velocity=64 time=0
EXTRACT: note_off channel=0 note=50 velocity=64 time=0
EXTRACT: note_on channel=0 note=62 velocity=80 time=0
EXTRACT: note_on channel=0 note=57 velocity=80 time=0
EXTRACT: note_on channel=0 note=50 velocity=80 time=0
EXTRACT: note_off channel=6 note=66 velocity=64 time=0
EXTRACT: note_off channel=6 note=62 velocity=64 time=0
EXTRACT: note_off channel=6 note=69 velocity=64 time=0
EXTRACT: note_on channel=6 note=66 velocity=80 time=0
EXTRACT: note_off channel=0 note=62 velocity=64 time=0.20833325
EXTRACT: note_off channel=0 note=57 velocity=64 time=0
EXTRACT: note_off channel=0 note=50 velocity=64 time=0
EXTRACT: note_on channel=0 note=62 velocity=80 time=0
EXTRACT: note_on channel=0 note=57 velocity=80 time=0
EXTRACT: note_on channel=0 note=50 velocity=80 time=0
EXTRACT: note_off channel=6 note=66 velocity=64 time=0
EXTRACT: note_on channel=6 note=69 velocity=80 time=0
EXTRACT: note_off channel=4 note=73 velocity=64 time=0.20833325
EXTRACT: note_off channel=0 note=62 velocity=64 time=0
EXTRACT: note_off channel=0 note=57 velocity=64 time=0
EXTRACT: note_off channel=0 note=50 velocity=64 time=0
EXTRACT: note_on channel=0 note=62 velocity=80 time=0
EXTRACT: note_on channel=0 note=57 velocity=80 time=0
EXTRACT: note_on channel=0 note=50 velocity=80 time=0
EXTRACT: note_off channel=2 note=38 velocity=64 time=0
EXTRACT: note_on channel=2 note=38 velocity=80 time=0
EXTRACT: note_off channel=6 note=69 velocity=64 time=0
EXTRACT: note_on channel=6 note=74 velocity=80 time=0
EXTRACT: note_on channel=4 note=64 velocity=80 time=0.4166665
EXTRACT: note_off channel=0 note=62 velocity=64 time=0
EXTRACT: note_off channel=0 note=57 velocity=64 time=0
EXTRACT: note_off channel=0 note=50 velocity=64 time=0
EXTRACT: note_on channel=0 note=62 velocity=80 time=0
EXTRACT: note_on channel=0 note=57 velocity=80 time=0
EXTRACT: note_on channel=0 note=50 velocity=80 time=0
EXTRACT: note_off channel=0 note=62 velocity=64 time=0.20833325
EXTRACT: note_off channel=0 note=57 velocity=64 time=0
EXTRACT: note_off channel=0 note=50 velocity=64 time=0
EXTRACT: note_on channel=0 note=62 velocity=80 time=0
EXTRACT: note_on channel=0 note=57 velocity=80 time=0
EXTRACT: note_on channel=0 note=50 velocity=80 time=0
EXTRACT: note_off channel=4 note=64 velocity=64 time=0.20833325
EXTRACT: note_on channel=4 note=64 velocity=80 time=0
EXTRACT: note_off channel=0 note=62 velocity=64 time=0
EXTRACT: note_off channel=0 note=57 velocity=64 time=0
EXTRACT: note_off channel=0 note=50 velocity=64 time=0
EXTRACT: note_on channel=0 note=62 velocity=80 time=0
EXTRACT: note_on channel=0 note=57 velocity=80 time=0
EXTRACT: note_on channel=0 note=50 velocity=80 time=0
EXTRACT: note_off channel=0 note=62 velocity=64 time=0.20833325
EXTRACT: note_off channel=0 note=57 velocity=64 time=0
EXTRACT: note_off channel=0 note=50 velocity=64 time=0
EXTRACT: note_on channel=0 note=62 velocity=80 time=0
EXTRACT: note_on channel=0 note=57 velocity=80 time=0
EXTRACT: note_on channel=0 note=50 velocity=80 time=0
EXTRACT: note_off channel=4 note=64 velocity=64 time=0.20833325
EXTRACT: note_off channel=0 note=62 velocity=64 time=0
EXTRACT: note_off channel=0 note=57 velocity=64 time=0
EXTRACT: note_off channel=0 note=50 velocity=64 time=0
EXTRACT: note_on channel=0 note=57 velocity=80 time=0
EXTRACT: note_on channel=0 note=52 velocity=80 time=0
EXTRACT: note_on channel=0 note=45 velocity=80 time=0
EXTRACT: note_off channel=2 note=38 velocity=64 time=0
EXTRACT: note_on channel=2 note=33 velocity=80 time=0
EXTRACT: note_off channel=6 note=74 velocity=64 time=0
EXTRACT: note_on channel=4 note=71 velocity=80 time=0.4166665
EXTRACT: note_off channel=0 note=57 velocity=64 time=0
EXTRACT: note_off channel=0 note=52 velocity=64 time=0
EXTRACT: note_off channel=0 note=45 velocity=64 time=0
EXTRACT: note_on channel=0 note=57 velocity=80 time=0
EXTRACT: note_on channel=0 note=52 velocity=80 time=0
EXTRACT: note_on channel=0 note=45 velocity=80 time=0
EXTRACT: note_off channel=4 note=71 velocity=64 time=0.20833325
EXTRACT: note_on channel=4 note=71 velocity=80 time=0
EXTRACT: note_off channel=0 note=57 velocity=64 time=0
EXTRACT: note_off channel=0 note=52 velocity=64 time=0
EXTRACT: note_off channel=0 note=45 velocity=64 time=0
EXTRACT: note_on channel=0 note=57 velocity=80 time=0
EXTRACT: note_on channel=0 note=52 velocity=80 time=0
EXTRACT: note_on channel=0 note=45 velocity=80 time=0
EXTRACT: note_off channel=4 note=71 velocity=64 time=0.20833325
EXTRACT: note_on channel=4 note=71 velocity=80 time=0
EXTRACT: note_off channel=0 note=57 velocity=64 time=0
EXTRACT: note_off channel=0 note=52 velocity=64 time=0
EXTRACT: note_off channel=0 note=45 velocity=64 time=0
EXTRACT: note_on channel=0 note=57 velocity=80 time=0
EXTRACT: note_on channel=0 note=52 velocity=80 time=0
EXTRACT: note_on channel=0 note=45 velocity=80 time=0
EXTRACT: note_off channel=4 note=71 velocity=64 time=0.20833325
EXTRACT: note_on channel=4 note=71 velocity=80 time=0
EXTRACT: note_off channel=0 note=57 velocity=64 time=0
EXTRACT: note_off channel=0 note=52 velocity=64 time=0
EXTRACT: note_off channel=0 note=45 velocity=64 time=0
EXTRACT: note_on channel=0 note=57 velocity=80 time=0
EXTRACT: note_on channel=0 note=52 velocity=80 time=0
EXTRACT: note_on channel=0 note=45 velocity=80 time=0
EXTRACT: note_off channel=4 note=71 velocity=64 time=0.20833325
EXTRACT: note_on channel=4 note=71 velocity=80 time=0
EXTRACT: note_off channel=0 note=57 velocity=64 time=0
EXTRACT: note_off channel=0 note=52 velocity=64 time=0
EXTRACT: note_off channel=0 note=45 velocity=64 time=0
EXTRACT: note_on channel=0 note=59 velocity=80 time=0
EXTRACT: note_on channel=0 note=54 velocity=80 time=0
EXTRACT: note_on channel=0 note=47 velocity=80 time=0
EXTRACT: note_off channel=2 note=33 velocity=64 time=0
EXTRACT: note_on channel=2 note=35 velocity=80 time=0
EXTRACT: note_off channel=4 note=71 velocity=64 time=0.4166665
EXTRACT: note_on channel=4 note=69 velocity=80 time=0
EXTRACT: note_off channel=0 note=59 velocity=64 time=0
EXTRACT: note_off channel=0 note=54 velocity=64 time=0
EXTRACT: note_off channel=0 note=47 velocity=64 time=0
EXTRACT: note_on channel=0 note=59 velocity=80 time=0
EXTRACT: note_on channel=0 note=54 velocity=80 time=0
EXTRACT: note_on channel=0 note=47 velocity=80 time=0
EXTRACT: note_off channel=0 note=59 velocity=64 time=0.20833325
EXTRACT: note_off channel=0 note=54 velocity=64 time=0
EXTRACT: note_off channel=0 note=47 velocity=64 time=0
EXTRACT: note_on channel=0 note=59 velocity=80 time=0
EXTRACT: note_on channel=0 note=54 velocity=80 time=0
EXTRACT: note_on channel=0 note=47 velocity=80 time=0
EXTRACT: note_off channel=4 note=69 velocity=64 time=0.20833325
EXTRACT: note_on channel=4 note=68 velocity=80 time=0
EXTRACT: note_off channel=0 note=59 velocity=64 time=0
EXTRACT: note_off channel=0 note=54 velocity=64 time=0
EXTRACT: note_off channel=0 note=47 velocity=64 time=0
EXTRACT: note_on channel=0 note=59 velocity=80 time=0
EXTRACT: note_on channel=0 note=54 velocity=80 time=0
EXTRACT: note_on channel=0 note=47 velocity=80 time=0
EXTRACT: note_off channel=0 note=59 velocity=64 time=0.20833325
EXTRACT: note_off channel=0 note=54 velocity=64 time=0
EXTRACT: note_off channel=0 note=47 velocity=64 time=0
EXTRACT: note_on channel=0 note=59 velocity=80 time=0
EXTRACT: note_on channel=0 note=54 velocity=80 time=0
EXTRACT: note_on channel=0 note=47 velocity=80 time=0
EXTRACT: note_off channel=4 note=68 velocity=64 time=0.20833325
EXTRACT: note_on channel=4 note=69 velocity=80 time=0
EXTRACT: note_off channel=0 note=59 velocity=64 time=0
EXTRACT: note_off channel=0 note=54 velocity=64 time=0
EXTRACT: note_off channel=0 note=47 velocity=64 time=0
EXTRACT: note_on channel=0 note=62 velocity=80 time=0
EXTRACT: note_on channel=0 note=57 velocity=80 time=0
EXTRACT: note_on channel=0 note=50 velocity=80 time=0
EXTRACT: note_off channel=2 note=35 velocity=64 time=0
EXTRACT: note_on channel=2 note=38 velocity=80 time=0
EXTRACT: note_off channel=4 note=69 velocity=64 time=0.4166665
EXTRACT: note_on channel=4 note=68 velocity=80 time=0
EXTRACT: note_off channel=0 note=62 velocity=64 time=0
EXTRACT: note_off channel=0 note=57 velocity=64 time=0
EXTRACT: note_off channel=0 note=50 velocity=64 time=0
EXTRACT: note_on channel=0 note=62 velocity=80 time=0
EXTRACT: note_on channel=0 note=57 velocity=80 time=0
EXTRACT: note_on channel=0 note=50 velocity=80 time=0
EXTRACT: note_off channel=0 note=62 velocity=64 time=0.20833325
EXTRACT: note_off channel=0 note=57 velocity=64 time=0
EXTRACT: note_off channel=0 note=50 velocity=64 time=0
EXTRACT: note_on channel=0 note=62 velocity=80 time=0
EXTRACT: note_on channel=0 note=57 velocity=80 time=0
EXTRACT: note_on channel=0 note=50 velocity=80 time=0
EXTRACT: note_off channel=4 note=68 velocity=64 time=0.20833325
EXTRACT: note_on channel=4 note=66 velocity=80 time=0
EXTRACT: note_off channel=0 note=62 velocity=64 time=0
EXTRACT: note_off channel=0 note=57 velocity=64 time=0
EXTRACT: note_off channel=0 note=50 velocity=64 time=0
EXTRACT: note_on channel=0 note=62 velocity=80 time=0
EXTRACT: note_on channel=0 note=57 velocity=80 time=0
EXTRACT: note_on channel=0 note=50 velocity=80 time=0
EXTRACT: note_off channel=0 note=62 velocity=64 time=0.20833325
EXTRACT: note_off channel=0 note=57 velocity=64 time=0
EXTRACT: note_off channel=0 note=50 velocity=64 time=0
EXTRACT: note_on channel=0 note=62 velocity=80 time=0
EXTRACT: note_on channel=0 note=57 velocity=80 time=0
EXTRACT: note_on channel=0 note=50 velocity=80 time=0
EXTRACT: note_off channel=4 note=66 velocity=64 time=0.20833325
EXTRACT: note_off channel=0 note=62 velocity=64 time=0
EXTRACT: note_off channel=0 note=57 velocity=64 time=0
EXTRACT: note_off channel=0 note=50 velocity=64 time=0
EXTRACT: note_on channel=0 note=62 velocity=80 time=0
EXTRACT: note_on channel=0 note=57 velocity=80 time=0
EXTRACT: note_on channel=0 note=50 velocity=80 time=0
EXTRACT: note_off channel=2 note=38 velocity=64 time=0
EXTRACT: note_on channel=2 note=38 velocity=80 time=0
EXTRACT: note_off channel=0 note=62 velocity=64 time=0.4166665
EXTRACT: note_off channel=0 note=57 velocity=64 time=0
EXTRACT: note_off channel=0 note=50 velocity=64 time=0
EXTRACT: note_on channel=0 note=62 velocity=80 time=0
EXTRACT: note_on channel=0 note=57 velocity=80 time=0
EXTRACT: note_on channel=0 note=50 velocity=80 time=0
EXTRACT: note_off channel=0 note=62 velocity=64 time=0.20833325
EXTRACT: note_off channel=0 note=57 velocity=64 time=0
EXTRACT: note_off channel=0 note=50 velocity=64 time=0
EXTRACT: note_on channel=0 note=62 velocity=80 time=0
EXTRACT: note_on channel=0 note=57 velocity=80 time=0
EXTRACT: note_on channel=0 note=50 velocity=80 time=0
EXTRACT: note_on channel=4 note=66 velocity=80 time=0.20833325
EXTRACT: note_off channel=0 note=62 velocity=64 time=0
EXTRACT: note_off channel=0 note=57 velocity=64 time=0
EXTRACT: note_off channel=0 note=50 velocity=64 time=0
EXTRACT: note_on channel=0 note=62 velocity=80 time=0
EXTRACT: note_on channel=0 note=57 velocity=80 time=0
EXTRACT: note_on channel=0 note=50 velocity=80 time=0
EXTRACT: note_off channel=4 note=66 velocity=64 time=0.20833325
EXTRACT: note_on channel=4 note=68 velocity=80 time=0
EXTRACT: note_off channel=0 note=62 velocity=64 time=0
EXTRACT: note_off channel=0 note=57 velocity=64 time=0
EXTRACT: note_off channel=0 note=50 velocity=64 time=0
EXTRACT: note_on channel=0 note=62 velocity=80 time=0
EXTRACT: note_on channel=0 note=57 velocity=80 time=0
EXTRACT: note_on channel=0 note=50 velocity=80 time=0
EXTRACT: note_off channel=4 note=68 velocity=64 time=0.20833325
EXTRACT: note_on channel=4 note=69 velocity=80 time=0
EXTRACT: note_off channel=0 note=62 velocity=64 time=0
EXTRACT: note_off channel=0 note=57 velocity=64 time=0
EXTRACT: note_off channel=0 note=50 velocity=64 time=0
EXTRACT: note_on channel=0 note=54 velocity=80 time=0
EXTRACT: note_on channel=0 note=49 velocity=80 time=0
EXTRACT: note_on channel=0 note=42 velocity=80 time=0
EXTRACT: note_off channel=2 note=38 velocity=64 time=0
EXTRACT: note_on channel=2 note=30 velocity=80 time=0
EXTRACT: note_off channel=4 note=69 velocity=64 time=0.4166665
EXTRACT: note_on channel=4 note=68 velocity=80 time=0
EXTRACT: note_off channel=0 note=54 velocity=64 time=0
EXTRACT: note_off channel=0 note=49 velocity=64 time=0
EXTRACT: note_off channel=0 note=42 velocity=64 time=0
EXTRACT: note_on channel=0 note=54 velocity=80 time=0
EXTRACT: note_on channel=0 note=49 velocity=80 time=0
EXTRACT: note_on channel=0 note=42 velocity=80 time=0
EXTRACT: note_off channel=0 note=54 velocity=64 time=0.20833325
EXTRACT: note_off channel=0 note=49 velocity=64 time=0
EXTRACT: note_off channel=0 note=42 velocity=64 time=0
EXTRACT: note_on channel=0 note=54 velocity=80 time=0
EXTRACT: note_on channel=0 note=49 velocity=80 time=0
EXTRACT: note_on channel=0 note=42 velocity=80 time=0
EXTRACT: note_off channel=0 note=54 velocity=64 time=0.20833325
EXTRACT: note_off channel=0 note=49 velocity=64 time=0
EXTRACT: note_off channel=0 note=42 velocity=64 time=0
EXTRACT: note_on channel=0 note=54 velocity=80 time=0
EXTRACT: note_on channel=0 note=49 velocity=80 time=0
EXTRACT: note_on channel=0 note=42 velocity=80 time=0
EXTRACT: note_off channel=4 note=68 velocity=64 time=0.20833325
EXTRACT: note_on channel=4 note=66 velocity=80 time=0
EXTRACT: note_off channel=0 note=54 velocity=64 time=0
EXTRACT: note_off channel=0 note=49 velocity=64 time=0
EXTRACT: note_off channel=0 note=42 velocity=64 time=0
EXTRACT: note_on channel=0 note=54 velocity=80 time=0
EXTRACT: note_on channel=0 note=49 velocity=80 time=0
EXTRACT: note_on channel=0 note=42 velocity=80 time=0
EXTRACT: note_off channel=4 note=66 velocity=64 time=0.20833325
EXTRACT: note_on channel=4 note=64 velocity=80 time=0
EXTRACT: note_off channel=0 note=54 velocity=64 time=0
EXTRACT: note_off channel=0 note=49 velocity=64 time=0
EXTRACT: note_off channel=0 note=42 velocity=64 time=0
EXTRACT: note_on channel=0 note=64 velocity=80 time=0
EXTRACT: note_on channel=0 note=59 velocity=80 time=0
EXTRACT: note_on channel=0 note=52 velocity=80 time=0
EXTRACT: note_off channel=2 note=30 velocity=64 time=0
EXTRACT: note_on channel=2 note=40 velocity=80 time=0
EXTRACT: note_off channel=0 note=64 velocity=64 time=0.4166665
EXTRACT: note_off channel=0 note=59 velocity=64 time=0
EXTRACT: note_off channel=0 note=52 velocity=64 time=0
EXTRACT: note_on channel=0 note=64 velocity=80 time=0
EXTRACT: note_on channel=0 note=59 velocity=80 time=0
EXTRACT: note_on channel=0 note=52 velocity=80 time=0
EXTRACT: note_off channel=0 note=64 velocity=64 time=0.20833325
EXTRACT: note_off channel=0 note=59 velocity=64 time=0
EXTRACT: note_off channel=0 note=52 velocity=64 time=0
EXTRACT: note_on channel=0 note=64 velocity=80 time=0
EXTRACT: note_on channel=0 note=59 velocity=80 time=0
EXTRACT: note_on channel=0 note=52 velocity=80 time=0
EXTRACT: note_off channel=4 note=64 velocity=64 time=0.20833325
EXTRACT: note_on channel=4 note=68 velocity=80 time=0
EXTRACT: note_off channel=0 note=64 velocity=64 time=0
EXTRACT: note_off channel=0 note=59 velocity=64 time=0
EXTRACT: note_off channel=0 note=52 velocity=64 time=0
EXTRACT: note_on channel=0 note=64 velocity=80 time=0
EXTRACT: note_on channel=0 note=59 velocity=80 time=0
EXTRACT: note_on channel=0 note=52 velocity=80 time=0
EXTRACT: note_off channel=0 note=64 velocity=64 time=0.20833325
EXTRACT: note_off channel=0 note=59 velocity=64 time=0
EXTRACT: note_off channel=0 note=52 velocity=64 time=0
EXTRACT: note_on channel=0 note=64 velocity=80 time=0
EXTRACT: note_on channel=0 note=59 velocity=80 time=0
EXTRACT: note_on channel=0 note=52 velocity=80 time=0
EXTRACT: note_off channel=4 note=68 velocity=64 time=0.20833325
EXTRACT: note_on channel=4 note=66 velocity=80 time=0
EXTRACT: note_off channel=0 note=64 velocity=64 time=0
EXTRACT: note_off channel=0 note=59 velocity=64 time=0
EXTRACT: note_off channel=0 note=52 velocity=64 time=0
EXTRACT: note_on channel=0 note=62 velocity=80 time=0
EXTRACT: note_on channel=0 note=57 velocity=80 time=0
EXTRACT: note_on channel=0 note=50 velocity=80 time=0
EXTRACT: note_off channel=2 note=40 velocity=64 time=0
EXTRACT: note_on channel=2 note=38 velocity=80 time=0
EXTRACT: note_off channel=0 note=62 velocity=64 time=0.4166665
EXTRACT: note_off channel=0 note=57 velocity=64 time=0
EXTRACT: note_off channel=0 note=50 velocity=64 time=0
EXTRACT: note_on channel=0 note=62 velocity=80 time=0
EXTRACT: note_on channel=0 note=57 velocity=80 time=0
EXTRACT: note_on channel=0 note=50 velocity=80 time=0
EXTRACT: note_off channel=0 note=62 velocity=64 time=0.20833325
EXTRACT: note_off channel=0 note=57 velocity=64 time=0
EXTRACT: note_off channel=0 note=50 velocity=64 time=0
EXTRACT: note_on channel=0 note=62 velocity=80 time=0
EXTRACT: note_on channel=0 note=57 velocity=80 time=0
EXTRACT: note_on channel=0 note=50 velocity=80 time=0
EXTRACT: note_off channel=0 note=62 velocity=64 time=0.20833325
EXTRACT: note_off channel=0 note=57 velocity=64 time=0
EXTRACT: note_off channel=0 note=50 velocity=64 time=0
EXTRACT: note_on channel=0 note=62 velocity=80 time=0
EXTRACT: note_on channel=0 note=57 velocity=80 time=0
EXTRACT: note_on channel=0 note=50 velocity=80 time=0
EXTRACT: note_off channel=0 note=62 velocity=64 time=0.20833325
EXTRACT: note_off channel=0 note=57 velocity=64 time=0
EXTRACT: note_off channel=0 note=50 velocity=64 time=0
EXTRACT: note_on channel=0 note=62 velocity=80 time=0
EXTRACT: note_on channel=0 note=57 velocity=80 time=0
EXTRACT: note_on channel=0 note=50 velocity=80 time=0
EXTRACT: note_off channel=4 note=66 velocity=64 time=0.20833325
EXTRACT: note_off channel=0 note=62 velocity=64 time=0
EXTRACT: note_off channel=0 note=57 velocity=64 time=0
EXTRACT: note_off channel=0 note=50 velocity=64 time=0
EXTRACT: note_on channel=0 note=62 velocity=80 time=0
EXTRACT: note_on channel=0 note=57 velocity=80 time=0
EXTRACT: note_on channel=0 note=50 velocity=80 time=0
EXTRACT: note_off channel=2 note=38 velocity=64 time=0
EXTRACT: note_on channel=2 note=38 velocity=80 time=0
EXTRACT: note_on channel=4 note=76 velocity=80 time=0.4166665
EXTRACT: note_off channel=0 note=62 velocity=64 time=0
EXTRACT: note_off channel=0 note=57 velocity=64 time=0
EXTRACT: note_off channel=0 note=50 velocity=64 time=0
EXTRACT: note_on channel=0 note=62 velocity=80 time=0
EXTRACT: note_on channel=0 note=57 velocity=80 time=0
EXTRACT: note_on channel=0 note=50 velocity=80 time=0
EXTRACT: note_off channel=0 note=62 velocity=64 time=0.20833325
EXTRACT: note_off channel=0 note=57 velocity=64 time=0
EXTRACT: note_off channel=0 note=50 velocity=64 time=0
EXTRACT: note_on channel=0 note=62 velocity=80 time=0
EXTRACT: note_on channel=0 note=57 velocity=80 time=0
EXTRACT: note_on channel=0 note=50 velocity=80 time=0
EXTRACT: note_off channel=4 note=76 velocity=64 time=0.20833325
EXTRACT: note_on channel=4 note=76 velocity=80 time=0
EXTRACT: note_off channel=0 note=62 velocity=64 time=0
EXTRACT: note_off channel=0 note=57 velocity=64 time=0
EXTRACT: note_off channel=0 note=50 velocity=64 time=0
EXTRACT: note_on channel=0 note=62 velocity=80 time=0
EXTRACT: note_on channel=0 note=57 velocity=80 time=0
EXTRACT: note_on channel=0 note=50 velocity=80 time=0
EXTRACT: note_off channel=0 note=62 velocity=64 time=0.20833325
EXTRACT: note_off channel=0 note=57 velocity=64 time=0
EXTRACT: note_off channel=0 note=50 velocity=64 time=0
EXTRACT: note_on channel=0 note=62 velocity=80 time=0
EXTRACT: note_on channel=0 note=57 velocity=80 time=0
EXTRACT: note_on channel=0 note=50 velocity=80 time=0
EXTRACT: note_off channel=4 note=76 velocity=64 time=0.20833325
EXTRACT: note_on channel=4 note=76 velocity=80 time=0
EXTRACT: note_off channel=0 note=62 velocity=64 time=0
EXTRACT: note_off channel=0 note=57 velocity=64 time=0
EXTRACT: note_off channel=0 note=50 velocity=64 time=0
EXTRACT: note_on channel=0 note=57 velocity=80 time=0
EXTRACT: note_on channel=0 note=52 velocity=80 time=0
EXTRACT: note_on channel=0 note=45 velocity=80 time=0
EXTRACT: note_off channel=2 note=38 velocity=64 time=0
EXTRACT: note_on channel=2 note=33 velocity=80 time=0
EXTRACT: note_on channel=6 note=64 velocity=80 time=0
EXTRACT: note_on channel=6 note=61 velocity=80 time=0
EXTRACT: note_on channel=6 note=57 velocity=80 time=0
EXTRACT: note_off channel=4 note=76 velocity=64 time=0.20833325
EXTRACT: note_on channel=4 note=73 velocity=80 time=0
EXTRACT: note_off channel=4 note=73 velocity=64 time=0.20833325
EXTRACT: note_off channel=0 note=57 velocity=64 time=0
EXTRACT: note_off channel=0 note=52 velocity=64 time=0
EXTRACT: note_off channel=0 note=45 velocity=64 time=0
EXTRACT: note_on channel=0 note=57 velocity=80 time=0
EXTRACT: note_on channel=0 note=52 velocity=80 time=0
EXTRACT: note_on channel=0 note=45 velocity=80 time=0
EXTRACT: note_off channel=0 note=57 velocity=64 time=0.20833325
EXTRACT: note_off channel=0 note=52 velocity=64 time=0
EXTRACT: note_off channel=0 note=45 velocity=64 time=0
EXTRACT: note_on channel=0 note=57 velocity=80 time=0
EXTRACT: note_on channel=0 note=52 velocity=80 time=0
EXTRACT: note_on channel=0 note=45 velocity=80 time=0
EXTRACT: note_off channel=0 note=57 velocity=64 time=0.20833325
EXTRACT: note_off channel=0 note=52 velocity=64 time=0
EXTRACT: note_off channel=0 note=45 velocity=64 time=0
EXTRACT: note_on channel=0 note=57 velocity=80 time=0
EXTRACT: note_on channel=0 note=52 velocity=80 time=0
EXTRACT: note_on channel=0 note=45 velocity=80 time=0
EXTRACT: note_off channel=6 note=64 velocity=64 time=0
EXTRACT: note_off channel=6 note=61 velocity=64 time=0
EXTRACT: note_off channel=6 note=57 velocity=64 time=0
EXTRACT: note_on channel=6 note=57 velocity=80 time=0
EXTRACT: note_off channel=0 note=57 velocity=64 time=0.20833325
EXTRACT: note_off channel=0 note=52 velocity=64 time=0
EXTRACT: note_off channel=0 note=45 velocity=64 time=0
EXTRACT: note_on channel=0 note=57 velocity=80 time=0
EXTRACT: note_on channel=0 note=52 velocity=80 time=0
EXTRACT: note_on channel=0 note=45 velocity=80 time=0
EXTRACT: note_off channel=0 note=57 velocity=64 time=0.20833325
EXTRACT: note_off channel=0 note=52 velocity=64 time=0
EXTRACT: note_off channel=0 note=45 velocity=64 time=0
EXTRACT: note_on channel=0 note=59 velocity=80 time=0
EXTRACT: note_on channel=0 note=54 velocity=80 time=0
EXTRACT: note_on channel=0 note=47 velocity=80 time=0
EXTRACT: note_off channel=2 note=33 velocity=64 time=0
EXTRACT: note_on channel=2 note=35 velocity=80 time=0
EXTRACT: note_off channel=6 note=57 velocity=64 time=0
EXTRACT: note_on channel=6 note=66 velocity=80 time=0
EXTRACT: note_on channel=6 note=59 velocity=80 time=0
EXTRACT: note_on channel=6 note=62 velocity=80 time=0
EXTRACT: note_off channel=0 note=59 velocity=64 time=0.4166665
EXTRACT: note_off channel=0 note=54 velocity=64 time=0
EXTRACT: note_off channel=0 note=47 velocity=64 time=0
EXTRACT: note_on channel=0 note=59 velocity=80 time=0
EXTRACT: note_on channel=0 note=54 velocity=80 time=0
EXTRACT: note_on channel=0 note=47 velocity=80 time=0
EXTRACT: note_on channel=4 note=71 velocity=80 time=0.20833325
EXTRACT: note_off channel=0 note=59 velocity=64 time=0
EXTRACT: note_off channel=0 note=54 velocity=64 time=0
EXTRACT: note_off channel=0 note=47 velocity=64 time=0
EXTRACT: note_on channel=0 note=59 velocity=80 time=0
EXTRACT: note_on channel=0 note=54 velocity=80 time=0
EXTRACT: note_on channel=0 note=47 velocity=80 time=0
EXTRACT: note_off channel=4 note=71 velocity=64 time=0.20833325
EXTRACT: note_on channel=4 note=69 velocity=80 time=0
EXTRACT: note_off channel=0 note=59 velocity=64 time=0
EXTRACT: note_off channel=0 note=54 velocity=64 time=0
EXTRACT: note_off channel=0 note=47 velocity=64 time=0
EXTRACT: note_on channel=0 note=59 velocity=80 time=0
EXTRACT: note_on channel=0 note=54 velocity=80 time=0
EXTRACT: note_on channel=0 note=47 velocity=80 time=0
EXTRACT: note_off channel=6 note=66 velocity=64 time=0
EXTRACT: note_off channel=6 note=59 velocity=64 time=0
EXTRACT: note_off channel=6 note=62 velocity=64 time=0
EXTRACT: note_on channel=6 note=59 velocity=80 time=0
EXTRACT: note_off channel=4 note=69 velocity=64 time=0.20833325
EXTRACT: note_on channel=4 note=71 velocity=80 time=0
EXTRACT: note_off channel=0 note=59 velocity=64 time=0
EXTRACT: note_off channel=0 note=54 velocity=64 time=0
EXTRACT: note_off channel=0 note=47 velocity=64 time=0
EXTRACT: note_on channel=0 note=59 velocity=80 time=0
EXTRACT: note_on channel=0 note=54 velocity=80 time=0
EXTRACT: note_on channel=0 note=47 velocity=80 time=0
EXTRACT: note_off channel=4 note=71 velocity=64 time=0.20833325
EXTRACT: note_on channel=4 note=66 velocity=80 time=0
EXTRACT: note_off channel=0 note=59 velocity=64 time=0
EXTRACT: note_off channel=0 note=54 velocity=64 time=0
EXTRACT: note_off channel=0 note=47 velocity=64 time=0
EXTRACT: note_on channel=0 note=62 velocity=80 time=0
EXTRACT: note_on channel=0 note=57 velocity=80 time=0
EXTRACT: note_on channel=0 note=50 velocity=80 time=0
EXTRACT: note_off channel=2 note=35 velocity=64 time=0
EXTRACT: note_on channel=2 note=38 velocity=80 time=0
EXTRACT: note_off channel=6 note=59 velocity=64 time=0
EXTRACT: note_on channel=6 note=66 velocity=80 time=0
EXTRACT: note_on channel=6 note=62 velocity=80 time=0
EXTRACT: note_on channel=6 note=69 velocity=80 time=0
EXTRACT: note_off channel=0 note=62 velocity=64 time=0.4166665
EXTRACT: note_off channel=0 note=57 velocity=64 time=0
EXTRACT: note_off channel=0 note=50 velocity=64 time=0
EXTRACT: note_on channel=0 note=62 velocity=80 time=0
EXTRACT: note_on channel=0 note=57 velocity=80 time=0
EXTRACT: note_on channel=0 note=50 velocity=80 time=0
EXTRACT: note_off channel=0 note=62 velocity=64 time=0.20833325
EXTRACT: note_off channel=0 note=57 velocity=64 time=0
EXTRACT: note_off channel=0 note=50 velocity=64 time=0
EXTRACT: note_on channel=0 note=62 velocity=80 time=0
EXTRACT: note_on channel=0 note=57 velocity=80 time=0
EXTRACT: note_on channel=0 note=50 velocity=80 time=0
EXTRACT: note_off channel=0 note=62 velocity=64 time=0.20833325
EXTRACT: note_off channel=0 note=57 velocity=64 time=0
EXTRACT: note_off channel=0 note=50 velocity=64 time=0
EXTRACT: note_on channel=0 note=62 velocity=80 time=0
EXTRACT: note_on channel=0 note=57 velocity=80 time=0
EXTRACT: note_on channel=0 note=50 velocity=80 time=0
EXTRACT: note_off channel=6 note=66 velocity=64 time=0
EXTRACT: note_off channel=6 note=62 velocity=64 time=0
EXTRACT: note_off channel=6 note=69 velocity=64 time=0
EXTRACT: note_on channel=6 note=66 velocity=80 time=0
EXTRACT: note_off channel=0 note=62 velocity=64 time=0.20833325
EXTRACT: note_off channel=0 note=57 velocity=64 time=0
EXTRACT: note_off channel=0 note=50 velocity=64 time=0
EXTRACT: note_on channel=0 note=62 velocity=80 time=0
EXTRACT: note_on channel=0 note=57 velocity=80 time=0
EXTRACT: note_on channel=0 note=50 velocity=80 time=0
EXTRACT: note_off channel=6 note=66 velocity=64 time=0
EXTRACT: note_on channel=6 note=69 velocity=80 time=0
EXTRACT: note_off channel=4 note=66 velocity=64 time=0.20833325
EXTRACT: note_off channel=0 note=62 velocity=64 time=0
EXTRACT: note_off channel=0 note=57 velocity=64 time=0
EXTRACT: note_off channel=0 note=50 velocity=64 time=0
EXTRACT: note_on channel=0 note=62 velocity=80 time=0
EXTRACT: note_on channel=0 note=57 velocity=80 time=0
EXTRACT: note_on channel=0 note=50 velocity=80 time=0
EXTRACT: note_off channel=2 note=38 velocity=64 time=0
EXTRACT: note_on channel=2 note=38 velocity=80 time=0
EXTRACT: note_off channel=6 note=69 velocity=64 time=0
EXTRACT: note_on channel=6 note=74 velocity=80 time=0
EXTRACT: note_on channel=4 note=76 velocity=80 time=0.4166665
EXTRACT: note_off channel=0 note=62 velocity=64 time=0
EXTRACT: note_off channel=0 note=57 velocity=64 time=0
EXTRACT: note_off channel=0 note=50 velocity=64 time=0
EXTRACT: note_on channel=0 note=62 velocity=80 time=0
EXTRACT: note_on channel=0 note=57 velocity=80 time=0
EXTRACT: note_on channel=0 note=50 velocity=80 time=0
EXTRACT: note_off channel=0 note=62 velocity=64 time=0.20833325
EXTRACT: note_off channel=0 note=57 velocity=64 time=0
EXTRACT: note_off channel=0 note=50 velocity=64 time=0
EXTRACT: note_on channel=0 note=62 velocity=80 time=0
EXTRACT: note_on channel=0 note=57 velocity=80 time=0
EXTRACT: note_on channel=0 note=50 velocity=80 time=0
EXTRACT: note_off channel=4 note=76 velocity=64 time=0.20833325
EXTRACT: note_on channel=4 note=76 velocity=80 time=0
EXTRACT: note_off channel=0 note=62 velocity=64 time=0
EXTRACT: note_off channel=0 note=57 velocity=64 time=0
EXTRACT: note_off channel=0 note=50 velocity=64 time=0
EXTRACT: note_on channel=0 note=62 velocity=80 time=0
EXTRACT: note_on channel=0 note=57 velocity=80 time=0
EXTRACT: note_on channel=0 note=50 velocity=80 time=0
EXTRACT: note_off channel=0 note=62 velocity=64 time=0.20833325
EXTRACT: note_off channel=0 note=57 velocity=64 time=0
EXTRACT: note_off channel=0 note=50 velocity=64 time=0
EXTRACT: note_on channel=0 note=62 velocity=80 time=0
EXTRACT: note_on channel=0 note=57 velocity=80 time=0
EXTRACT: note_on channel=0 note=50 velocity=80 time=0
EXTRACT: note_off channel=4 note=76 velocity=64 time=0.20833325
EXTRACT: note_on channel=4 note=76 velocity=80 time=0
EXTRACT: note_off channel=0 note=62 velocity=64 time=0
EXTRACT: note_off channel=0 note=57 velocity=64 time=0
EXTRACT: note_off channel=0 note=50 velocity=64 time=0
EXTRACT: note_on channel=0 note=57 velocity=80 time=0
EXTRACT: note_on channel=0 note=52 velocity=80 time=0
EXTRACT: note_on channel=0 note=45 velocity=80 time=0
EXTRACT: note_off channel=2 note=38 velocity=64 time=0
EXTRACT: note_on channel=2 note=33 velocity=80 time=0
EXTRACT: note_off channel=6 note=74 velocity=64 time=0
EXTRACT: note_on channel=6 note=64 velocity=80 time=0
EXTRACT: note_on channel=6 note=61 velocity=80 time=0
EXTRACT: note_on channel=6 note=57 velocity=80 time=0
EXTRACT: note_off channel=4 note=76 velocity=64 time=0.20833325
EXTRACT: note_on channel=4 note=73 velocity=80 time=0
EXTRACT: note_off channel=4 note=73 velocity=64 time=0.20833325
EXTRACT: note_off channel=0 note=57 velocity=64 time=0
EXTRACT: note_off channel=0 note=52 velocity=64 time=0
EXTRACT: note_off channel=0 note=45 velocity=64 time=0
EXTRACT: note_on channel=0 note=57 velocity=80 time=0
EXTRACT: note_on channel=0 note=52 velocity=80 time=0
EXTRACT: note_on channel=0 note=45 velocity=80 time=0
EXTRACT: note_off channel=0 note=57 velocity=64 time=0.20833325
EXTRACT: note_off channel=0 note=52 velocity=64 time=0
EXTRACT: note_off channel=0 note=45 velocity=64 time=0
EXTRACT: note_on channel=0 note=57 velocity=80 time=0
EXTRACT: note_on channel=0 note=52 velocity=80 time=0
EXTRACT: note_on channel=0 note=45 velocity=80 time=0
EXTRACT: note_off channel=0 note=57 velocity=64 time=0.20833325
EXTRACT: note_off channel=0 note=52 velocity=64 time=0
EXTRACT: note_off channel=0 note=45 velocity=64 time=0
EXTRACT: note_on channel=0 note=57 velocity=80 time=0
EXTRACT: note_on channel=0 note=52 velocity=80 time=0
EXTRACT: note_on channel=0 note=45 velocity=80 time=0
EXTRACT: note_off channel=6 note=64 velocity=64 time=0
EXTRACT: note_off channel=6 note=61 velocity=64 time=0
EXTRACT: note_off channel=6 note=57 velocity=64 time=0
EXTRACT: note_on channel=6 note=57 velocity=80 time=0
EXTRACT: note_off channel=0 note=57 velocity=64 time=0.20833325
EXTRACT: note_off channel=0 note=52 velocity=64 time=0
EXTRACT: note_off channel=0 note=45 velocity=64 time=0
EXTRACT: note_on channel=0 note=57 velocity=80 time=0
EXTRACT: note_on channel=0 note=52 velocity=80 time=0
EXTRACT: note_on channel=0 note=45 velocity=80 time=0
EXTRACT: note_off channel=0 note=57 velocity=64 time=0.20833325
EXTRACT: note_off channel=0 note=52 velocity=64 time=0
EXTRACT: note_off channel=0 note=45 velocity=64 time=0
EXTRACT: note_on channel=0 note=59 velocity=80 time=0
EXTRACT: note_on channel=0 note=54 velocity=80 time=0
EXTRACT: note_on channel=0 note=47 velocity=80 time=0
EXTRACT: note_off channel=2 note=33 velocity=64 time=0
EXTRACT: note_on channel=2 note=35 velocity=80 time=0
EXTRACT: note_off channel=6 note=57 velocity=64 time=0
EXTRACT: note_on channel=6 note=66 velocity=80 time=0
EXTRACT: note_on channel=6 note=59 velocity=80 time=0
EXTRACT: note_on channel=6 note=62 velocity=80 time=0
EXTRACT: note_off channel=0 note=59 velocity=64 time=0.4166665
EXTRACT: note_off channel=0 note=54 velocity=64 time=0
EXTRACT: note_off channel=0 note=47 velocity=64 time=0
EXTRACT: note_on channel=0 note=59 velocity=80 time=0
EXTRACT: note_on channel=0 note=54 velocity=80 time=0
EXTRACT: note_on channel=0 note=47 velocity=80 time=0
EXTRACT: note_on channel=4 note=71 velocity=80 time=0.20833325
EXTRACT: note_off channel=0 note=59 velocity=64 time=0
EXTRACT: note_off channel=0 note=54 velocity=64 time=0
EXTRACT: note_off channel=0 note=47 velocity=64 time=0
EXTRACT: note_on channel=0 note=59 velocity=80 time=0
EXTRACT: note_on channel=0 note=54 velocity=80 time=0
EXTRACT: note_on channel=0 note=47 velocity=80 time=0
EXTRACT: note_off channel=4 note=71 velocity=64 time=0.20833325
EXTRACT: note_on channel=4 note=69 velocity=80 time=0
EXTRACT: note_off channel=0 note=59 velocity=64 time=0
EXTRACT: note_off channel=0 note=54 velocity=64 time=0
EXTRACT: note_off channel=0 note=47 velocity=64 time=0
EXTRACT: note_on channel=0 note=59 velocity=80 time=0
EXTRACT: note_on channel=0 note=54 velocity=80 time=0
EXTRACT: note_on channel=0 note=47 velocity=80 time=0
EXTRACT: note_off channel=6 note=66 velocity=64 time=0
EXTRACT: note_off channel=6 note=59 velocity=64 time=0
EXTRACT: note_off channel=6 note=62 velocity=64 time=0
EXTRACT: note_on channel=6 note=59 velocity=80 time=0
EXTRACT: note_off channel=4 note=69 velocity=64 time=0.20833325
EXTRACT: note_on channel=4 note=71 velocity=80 time=0
EXTRACT: note_off channel=0 note=59 velocity=64 time=0
EXTRACT: note_off channel=0 note=54 velocity=64 time=0
EXTRACT: note_off channel=0 note=47 velocity=64 time=0
EXTRACT: note_on channel=0 note=59 velocity=80 time=0
EXTRACT: note_on channel=0 note=54 velocity=80 time=0
EXTRACT: note_on channel=0 note=47 velocity=80 time=0
EXTRACT: note_off channel=4 note=71 velocity=64 time=0.20833325
EXTRACT: note_on channel=4 note=73 velocity=80 time=0
EXTRACT: note_off channel=0 note=59 velocity=64 time=0
EXTRACT: note_off channel=0 note=54 velocity=64 time=0
EXTRACT: note_off channel=0 note=47 velocity=64 time=0
EXTRACT: note_on channel=0 note=62 velocity=80 time=0
EXTRACT: note_on channel=0 note=57 velocity=80 time=0
EXTRACT: note_on channel=0 note=50 velocity=80 time=0
EXTRACT: note_off channel=2 note=35 velocity=64 time=0
EXTRACT: note_on channel=2 note=38 velocity=80 time=0
EXTRACT: note_off channel=6 note=59 velocity=64 time=0
EXTRACT: note_on channel=6 note=66 velocity=80 time=0
EXTRACT: note_on channel=6 note=62 velocity=80 time=0
EXTRACT: note_on channel=6 note=69 velocity=80 time=0
EXTRACT: note_off channel=0 note=62 velocity=64 time=0.4166665
EXTRACT: note_off channel=0 note=57 velocity=64 time=0
EXTRACT: note_off channel=0 note=50 velocity=64 time=0
EXTRACT: note_on channel=0 note=62 velocity=80 time=0
EXTRACT: note_on channel=0 note=57 velocity=80 time=0
EXTRACT: note_on channel=0 note=50 velocity=80 time=0
EXTRACT: note_off channel=0 note=62 velocity=64 time=0.20833325
EXTRACT: note_off channel=0 note=57 velocity=64 time=0
EXTRACT: note_off channel=0 note=50 velocity=64 time=0
EXTRACT: note_on channel=0 note=62 velocity=80 time=0
EXTRACT: note_on channel=0 note=57 velocity=80 time=0
EXTRACT: note_on channel=0 note=50 velocity=80 time=0
EXTRACT: note_off channel=0 note=62 velocity=64 time=0.20833325
EXTRACT: note_off channel=0 note=57 velocity=64 time=0
EXTRACT: note_off channel=0 note=50 velocity=64 time=0
EXTRACT: note_on channel=0 note=62 velocity=80 time=0
EXTRACT: note_on channel=0 note=57 velocity=80 time=0
EXTRACT: note_on channel=0 note=50 velocity=80 time=0
EXTRACT: note_off channel=6 note=66 velocity=64 time=0
EXTRACT: note_off channel=6 note=62 velocity=64 time=0
EXTRACT: note_off channel=6 note=69 velocity=64 time=0
EXTRACT: note_on channel=6 note=66 velocity=80 time=0
EXTRACT: note_off channel=0 note=62 velocity=64 time=0.20833325
EXTRACT: note_off channel=0 note=57 velocity=64 time=0
EXTRACT: note_off channel=0 note=50 velocity=64 time=0
EXTRACT: note_on channel=0 note=62 velocity=80 time=0
EXTRACT: note_on channel=0 note=57 velocity=80 time=0
EXTRACT: note_on channel=0 note=50 velocity=80 time=0
EXTRACT: note_off channel=6 note=66 velocity=64 time=0
EXTRACT: note_on channel=6 note=69 velocity=80 time=0
EXTRACT: note_off channel=4 note=73 velocity=64 time=0.20833325
EXTRACT: note_off channel=0 note=62 velocity=64 time=0
EXTRACT: note_off channel=0 note=57 velocity=64 time=0
EXTRACT: note_off channel=0 note=50 velocity=64 time=0
EXTRACT: note_on channel=0 note=62 velocity=80 time=0
EXTRACT: note_on channel=0 note=57 velocity=80 time=0
EXTRACT: note_on channel=0 note=50 velocity=80 time=0
EXTRACT: note_off channel=2 note=38 velocity=64 time=0
EXTRACT: note_on channel=2 note=38 velocity=80 time=0
EXTRACT: note_off channel=6 note=69 velocity=64 time=0
EXTRACT: note_on channel=6 note=74 velocity=80 time=0
EXTRACT: note_on channel=4 note=64 velocity=80 time=0.4166665
EXTRACT: note_off channel=0 note=62 velocity=64 time=0
EXTRACT: note_off channel=0 note=57 velocity=64 time=0
EXTRACT: note_off channel=0 note=50 velocity=64 time=0
EXTRACT: note_on channel=0 note=62 velocity=80 time=0
EXTRACT: note_on channel=0 note=57 velocity=80 time=0
EXTRACT: note_on channel=0 note=50 velocity=80 time=0
EXTRACT: note_off channel=0 note=62 velocity=64 time=0.20833325
EXTRACT: note_off channel=0 note=57 velocity=64 time=0
EXTRACT: note_off channel=0 note=50 velocity=64 time=0
EXTRACT: note_on channel=0 note=62 velocity=80 time=0
EXTRACT: note_on channel=0 note=57 velocity=80 time=0
EXTRACT: note_on channel=0 note=50 velocity=80 time=0
EXTRACT: note_off channel=4 note=64 velocity=64 time=0.20833325
EXTRACT: note_on channel=4 note=64 velocity=80 time=0
EXTRACT: note_off channel=0 note=62 velocity=64 time=0
EXTRACT: note_off channel=0 note=57 velocity=64 time=0
EXTRACT: note_off channel=0 note=50 velocity=64 time=0
EXTRACT: note_on channel=0 note=62 velocity=80 time=0
EXTRACT: note_on channel=0 note=57 velocity=80 time=0
EXTRACT: note_on channel=0 note=50 velocity=80 time=0
EXTRACT: note_off channel=0 note=62 velocity=64 time=0.20833325
EXTRACT: note_off channel=0 note=57 velocity=64 time=0
EXTRACT: note_off channel=0 note=50 velocity=64 time=0
EXTRACT: note_on channel=0 note=62 velocity=80 time=0
EXTRACT: note_on channel=0 note=57 velocity=80 time=0
EXTRACT: note_on channel=0 note=50 velocity=80 time=0
EXTRACT: note_off channel=4 note=64 velocity=64 time=0.20833325
EXTRACT: note_off channel=0 note=62 velocity=64 time=0
EXTRACT: note_off channel=0 note=57 velocity=64 time=0
EXTRACT: note_off channel=0 note=50 velocity=64 time=0
EXTRACT: note_on channel=0 note=57 velocity=80 time=0
EXTRACT: note_on channel=0 note=52 velocity=80 time=0
EXTRACT: note_on channel=0 note=45 velocity=80 time=0
EXTRACT: note_off channel=2 note=38 velocity=64 time=0
EXTRACT: note_on channel=2 note=33 velocity=80 time=0
EXTRACT: note_off channel=6 note=74 velocity=64 time=0
EXTRACT: note_on channel=4 note=71 velocity=80 time=0.4166665
EXTRACT: note_off channel=0 note=57 velocity=64 time=0
EXTRACT: note_off channel=0 note=52 velocity=64 time=0
EXTRACT: note_off channel=0 note=45 velocity=64 time=0
EXTRACT: note_on channel=0 note=57 velocity=80 time=0
EXTRACT: note_on channel=0 note=52 velocity=80 time=0
EXTRACT: note_on channel=0 note=45 velocity=80 time=0
EXTRACT: note_off channel=4 note=71 velocity=64 time=0.20833325
EXTRACT: note_on channel=4 note=71 velocity=80 time=0
EXTRACT: note_off channel=0 note=57 velocity=64 time=0
EXTRACT: note_off channel=0 note=52 velocity=64 time=0
EXTRACT: note_off channel=0 note=45 velocity=64 time=0
EXTRACT: note_on channel=0 note=57 velocity=80 time=0
EXTRACT: note_on channel=0 note=52 velocity=80 time=0
EXTRACT: note_on channel=0 note=45 velocity=80 time=0
EXTRACT: note_off channel=4 note=71 velocity=64 time=0.20833325
EXTRACT: note_on channel=4 note=71 velocity=80 time=0
EXTRACT: note_off channel=0 note=57 velocity=64 time=0
EXTRACT: note_off channel=0 note=52 velocity=64 time=0
EXTRACT: note_off channel=0 note=45 velocity=64 time=0
EXTRACT: note_on channel=0 note=57 velocity=80 time=0
EXTRACT: note_on channel=0 note=52 velocity=80 time=0
EXTRACT: note_on channel=0 note=45 velocity=80 time=0
EXTRACT: note_off channel=4 note=71 velocity=64 time=0.20833325
EXTRACT: note_on channel=4 note=71 velocity=80 time=0
EXTRACT: note_off channel=0 note=57 velocity=64 time=0
EXTRACT: note_off channel=0 note=52 velocity=64 time=0
EXTRACT: note_off channel=0 note=45 velocity=64 time=0
EXTRACT: note_on channel=0 note=57 velocity=80 time=0
EXTRACT: note_on channel=0 note=52 velocity=80 time=0
EXTRACT: note_on channel=0 note=45 velocity=80 time=0
EXTRACT: note_off channel=4 note=71 velocity=64 time=0.20833325
EXTRACT: note_on channel=4 note=71 velocity=80 time=0
EXTRACT: note_off channel=0 note=57 velocity=64 time=0
EXTRACT: note_off channel=0 note=52 velocity=64 time=0
EXTRACT: note_off channel=0 note=45 velocity=64 time=0
EXTRACT: note_on channel=0 note=59 velocity=80 time=0
EXTRACT: note_on channel=0 note=54 velocity=80 time=0
EXTRACT: note_on channel=0 note=47 velocity=80 time=0
EXTRACT: note_off channel=2 note=33 velocity=64 time=0
EXTRACT: note_on channel=2 note=35 velocity=80 time=0
EXTRACT: note_off channel=4 note=71 velocity=64 time=0.4166665
EXTRACT: note_on channel=4 note=69 velocity=80 time=0
EXTRACT: note_off channel=0 note=59 velocity=64 time=0
EXTRACT: note_off channel=0 note=54 velocity=64 time=0
EXTRACT: note_off channel=0 note=47 velocity=64 time=0
EXTRACT: note_on channel=0 note=59 velocity=80 time=0
EXTRACT: note_on channel=0 note=54 velocity=80 time=0
EXTRACT: note_on channel=0 note=47 velocity=80 time=0
EXTRACT: note_off channel=0 note=59 velocity=64 time=0.20833325
EXTRACT: note_off channel=0 note=54 velocity=64 time=0
EXTRACT: note_off channel=0 note=47 velocity=64 time=0
EXTRACT: note_on channel=0 note=59 velocity=80 time=0
EXTRACT: note_on channel=0 note=54 velocity=80 time=0
EXTRACT: note_on channel=0 note=47 velocity=80 time=0
EXTRACT: note_off channel=4 note=69 velocity=64 time=0.20833325
EXTRACT: note_on channel=4 note=68 velocity=80 time=0
EXTRACT: note_off channel=0 note=59 velocity=64 time=0
EXTRACT: note_off channel=0 note=54 velocity=64 time=0
EXTRACT: note_off channel=0 note=47 velocity=64 time=0
EXTRACT: note_on channel=0 note=59 velocity=80 time=0
EXTRACT: note_on channel=0 note=54 velocity=80 time=0
EXTRACT: note_on channel=0 note=47 velocity=80 time=0
EXTRACT: note_off channel=0 note=59 velocity=64 time=0.20833325
EXTRACT: note_off channel=0 note=54 velocity=64 time=0
EXTRACT: note_off channel=0 note=47 velocity=64 time=0
EXTRACT: note_on channel=0 note=59 velocity=80 time=0
EXTRACT: note_on channel=0 note=54 velocity=80 time=0
EXTRACT: note_on channel=0 note=47 velocity=80 time=0
EXTRACT: note_off channel=4 note=68 velocity=64 time=0.20833325
EXTRACT: note_on channel=4 note=69 velocity=80 time=0
EXTRACT: note_off channel=0 note=59 velocity=64 time=0
EXTRACT: note_off channel=0 note=54 velocity=64 time=0
EXTRACT: note_off channel=0 note=47 velocity=64 time=0
EXTRACT: note_on channel=0 note=62 velocity=80 time=0
EXTRACT: note_on channel=0 note=57 velocity=80 time=0
EXTRACT: note_on channel=0 note=50 velocity=80 time=0
EXTRACT: note_off channel=2 note=35 velocity=64 time=0
EXTRACT: note_on channel=2 note=38 velocity=80 time=0
EXTRACT: note_off channel=4 note=69 velocity=64 time=0.4166665
EXTRACT: note_on channel=4 note=68 velocity=80 time=0
EXTRACT: note_off channel=0 note=62 velocity=64 time=0
EXTRACT: note_off channel=0 note=57 velocity=64 time=0
EXTRACT: note_off channel=0 note=50 velocity=64 time=0
EXTRACT: note_on channel=0 note=62 velocity=80 time=0
EXTRACT: note_on channel=0 note=57 velocity=80 time=0
EXTRACT: note_on channel=0 note=50 velocity=80 time=0
EXTRACT: note_off channel=0 note=62 velocity=64 time=0.20833325
EXTRACT: note_off channel=0 note=57 velocity=64 time=0
EXTRACT: note_off channel=0 note=50 velocity=64 time=0
EXTRACT: note_on channel=0 note=62 velocity=80 time=0
EXTRACT: note_on channel=0 note=57 velocity=80 time=0
EXTRACT: note_on channel=0 note=50 velocity=80 time=0
EXTRACT: note_off channel=4 note=68 velocity=64 time=0.20833325
EXTRACT: note_on channel=4 note=66 velocity=80 time=0
EXTRACT: note_off channel=0 note=62 velocity=64 time=0
EXTRACT: note_off channel=0 note=57 velocity=64 time=0
EXTRACT: note_off channel=0 note=50 velocity=64 time=0
EXTRACT: note_on channel=0 note=62 velocity=80 time=0
EXTRACT: note_on channel=0 note=57 velocity=80 time=0
EXTRACT: note_on channel=0 note=50 velocity=80 time=0
EXTRACT: note_off channel=0 note=62 velocity=64 time=0.20833325
EXTRACT: note_off channel=0 note=57 velocity=64 time=0
EXTRACT: note_off channel=0 note=50 velocity=64 time=0
EXTRACT: note_on channel=0 note=62 velocity=80 time=0
EXTRACT: note_on channel=0 note=57 velocity=80 time=0
EXTRACT: note_on channel=0 note=50 velocity=80 time=0
EXTRACT: note_off channel=4 note=66 velocity=64 time=0.20833325
EXTRACT: note_off channel=0 note=62 velocity=64 time=0
EXTRACT: note_off channel=0 note=57 velocity=64 time=0
EXTRACT: note_off channel=0 note=50 velocity=64 time=0
EXTRACT: note_on channel=0 note=62 velocity=80 time=0
EXTRACT: note_on channel=0 note=57 velocity=80 time=0
EXTRACT: note_on channel=0 note=50 velocity=80 time=0
EXTRACT: note_off channel=2 note=38 velocity=64 time=0
EXTRACT: note_on channel=2 note=38 velocity=80 time=0
EXTRACT: note_off channel=0 note=62 velocity=64 time=0.4166665
EXTRACT: note_off channel=0 note=57 velocity=64 time=0
EXTRACT: note_off channel=0 note=50 velocity=64 time=0
EXTRACT: note_on channel=0 note=62 velocity=80 time=0
EXTRACT: note_on channel=0 note=57 velocity=80 time=0
EXTRACT: note_on channel=0 note=50 velocity=80 time=0
EXTRACT: note_off channel=0 note=62 velocity=64 time=0.20833325
EXTRACT: note_off channel=0 note=57 velocity=64 time=0
EXTRACT: note_off channel=0 note=50 velocity=64 time=0
EXTRACT: note_on channel=0 note=62 velocity=80 time=0
EXTRACT: note_on channel=0 note=57 velocity=80 time=0
EXTRACT: note_on channel=0 note=50 velocity=80 time=0
EXTRACT: note_on channel=4 note=66 velocity=80 time=0.20833325
EXTRACT: note_off channel=0 note=62 velocity=64 time=0
EXTRACT: note_off channel=0 note=57 velocity=64 time=0
EXTRACT: note_off channel=0 note=50 velocity=64 time=0
EXTRACT: note_on channel=0 note=62 velocity=80 time=0
EXTRACT: note_on channel=0 note=57 velocity=80 time=0
EXTRACT: note_on channel=0 note=50 velocity=80 time=0
EXTRACT: note_off channel=4 note=66 velocity=64 time=0.20833325
EXTRACT: note_on channel=4 note=68 velocity=80 time=0
EXTRACT: note_off channel=0 note=62 velocity=64 time=0
EXTRACT: note_off channel=0 note=57 velocity=64 time=0
EXTRACT: note_off channel=0 note=50 velocity=64 time=0
EXTRACT: note_on channel=0 note=62 velocity=80 time=0
EXTRACT: note_on channel=0 note=57 velocity=80 time=0
EXTRACT: note_on channel=0 note=50 velocity=80 time=0
EXTRACT: note_off channel=4 note=68 velocity=64 time=0.20833325
EXTRACT: note_on channel=4 note=69 velocity=80 time=0
EXTRACT: note_off channel=0 note=62 velocity=64 time=0
EXTRACT: note_off channel=0 note=57 velocity=64 time=0
EXTRACT: note_off channel=0 note=50 velocity=64 time=0
EXTRACT: note_on channel=0 note=54 velocity=80 time=0
EXTRACT: note_on channel=0 note=49 velocity=80 time=0
EXTRACT: note_on channel=0 note=42 velocity=80 time=0
EXTRACT: note_off channel=2 note=38 velocity=64 time=0
EXTRACT: note_on channel=2 note=30 velocity=80 time=0
EXTRACT: note_off channel=4 note=69 velocity=64 time=0.4166665
EXTRACT: note_on channel=4 note=68 velocity=80 time=0
EXTRACT: note_off channel=0 note=54 velocity=64 time=0
EXTRACT: note_off channel=0 note=49 velocity=64 time=0
EXTRACT: note_off channel=0 note=42 velocity=64 time=0
EXTRACT: note_on channel=0 note=54 velocity=80 time=0
EXTRACT: note_on channel=0 note=49 velocity=80 time=0
EXTRACT: note_on channel=0 note=42 velocity=80 time=0
EXTRACT: note_off channel=0 note=54 velocity=64 time=0.20833325
EXTRACT: note_off channel=0 note=49 velocity=64 time=0
EXTRACT: note_off channel=0 note=42 velocity=64 time=0
EXTRACT: note_on channel=0 note=54 velocity=80 time=0
EXTRACT: note_on channel=0 note=49 velocity=80 time=0
EXTRACT: note_on channel=0 note=42 velocity=80 time=0
EXTRACT: note_off channel=0 note=54 velocity=64 time=0.20833325
EXTRACT: note_off channel=0 note=49 velocity=64 time=0
EXTRACT: note_off channel=0 note=42 velocity=64 time=0
EXTRACT: note_on channel=0 note=54 velocity=80 time=0
EXTRACT: note_on channel=0 note=49 velocity=80 time=0
EXTRACT: note_on channel=0 note=42 velocity=80 time=0
EXTRACT: note_off channel=4 note=68 velocity=64 time=0.20833325
EXTRACT: note_on channel=4 note=66 velocity=80 time=0
EXTRACT: note_off channel=0 note=54 velocity=64 time=0
EXTRACT: note_off channel=0 note=49 velocity=64 time=0
EXTRACT: note_off channel=0 note=42 velocity=64 time=0
EXTRACT: note_on channel=0 note=54 velocity=80 time=0
EXTRACT: note_on channel=0 note=49 velocity=80 time=0
EXTRACT: note_on channel=0 note=42 velocity=80 time=0
EXTRACT: note_off channel=4 note=66 velocity=64 time=0.20833325
EXTRACT: note_on channel=4 note=64 velocity=80 time=0
EXTRACT: note_off channel=0 note=54 velocity=64 time=0
EXTRACT: note_off channel=0 note=49 velocity=64 time=0
EXTRACT: note_off channel=0 note=42 velocity=64 time=0
EXTRACT: note_on channel=0 note=64 velocity=80 time=0
EXTRACT: note_on channel=0 note=59 velocity=80 time=0
EXTRACT: note_on channel=0 note=52 velocity=80 time=0
EXTRACT: note_off channel=2 note=30 velocity=64 time=0
EXTRACT: note_on channel=2 note=40 velocity=80 time=0
EXTRACT: note_off channel=0 note=64 velocity=64 time=0.4166665
EXTRACT: note_off channel=0 note=59 velocity=64 time=0
EXTRACT: note_off channel=0 note=52 velocity=64 time=0
EXTRACT: note_on channel=0 note=64 velocity=80 time=0
EXTRACT: note_on channel=0 note=59 velocity=80 time=0
EXTRACT: note_on channel=0 note=52 velocity=80 time=0
EXTRACT: note_off channel=0 note=64 velocity=64 time=0.20833325
EXTRACT: note_off channel=0 note=59 velocity=64 time=0
EXTRACT: note_off channel=0 note=52 velocity=64 time=0
EXTRACT: note_on channel=0 note=64 velocity=80 time=0
EXTRACT: note_on channel=0 note=59 velocity=80 time=0
EXTRACT: note_on channel=0 note=52 velocity=80 time=0
EXTRACT: note_off channel=4 note=64 velocity=64 time=0.20833325
EXTRACT: note_on channel=4 note=68 velocity=80 time=0
EXTRACT: note_off channel=0 note=64 velocity=64 time=0
EXTRACT: note_off channel=0 note=59 velocity=64 time=0
EXTRACT: note_off channel=0 note=52 velocity=64 time=0
EXTRACT: note_on channel=0 note=64 velocity=80 time=0
EXTRACT: note_on channel=0 note=59 velocity=80 time=0
EXTRACT: note_on channel=0 note=52 velocity=80 time=0
EXTRACT: note_off channel=0 note=64 velocity=64 time=0.20833325
EXTRACT: note_off channel=0 note=59 velocity=64 time=0
EXTRACT: note_off channel=0 note=52 velocity=64 time=0
EXTRACT: note_on channel=0 note=64 velocity=80 time=0
EXTRACT: note_on channel=0 note=59 velocity=80 time=0
EXTRACT: note_on channel=0 note=52 velocity=80 time=0
EXTRACT: note_off channel=4 note=68 velocity=64 time=0.20833325
EXTRACT: note_on channel=4 note=66 velocity=80 time=0
EXTRACT: note_off channel=0 note=64 velocity=64 time=0
EXTRACT: note_off channel=0 note=59 velocity=64 time=0
EXTRACT: note_off channel=0 note=52 velocity=64 time=0
EXTRACT: note_on channel=0 note=62 velocity=80 time=0
EXTRACT: note_on channel=0 note=57 velocity=80 time=0
EXTRACT: note_on channel=0 note=50 velocity=80 time=0
EXTRACT: note_off channel=2 note=40 velocity=64 time=0
EXTRACT: note_on channel=2 note=38 velocity=80 time=0
EXTRACT: note_off channel=0 note=62 velocity=64 time=0.4166665
EXTRACT: note_off channel=0 note=57 velocity=64 time=0
EXTRACT: note_off channel=0 note=50 velocity=64 time=0
EXTRACT: note_on channel=0 note=62 velocity=80 time=0
EXTRACT: note_on channel=0 note=57 velocity=80 time=0
EXTRACT: note_on channel=0 note=50 velocity=80 time=0
EXTRACT: note_off channel=0 note=62 velocity=64 time=0.20833325
EXTRACT: note_off channel=0 note=57 velocity=64 time=0
EXTRACT: note_off channel=0 note=50 velocity=64 time=0
EXTRACT: note_on channel=0 note=62 velocity=80 time=0
EXTRACT: note_on channel=0 note=57 velocity=80 time=0
EXTRACT: note_on channel=0 note=50 velocity=80 time=0
EXTRACT: note_off channel=0 note=62 velocity=64 time=0.20833325
EXTRACT: note_off channel=0 note=57 velocity=64 time=0
EXTRACT: note_off channel=0 note=50 velocity=64 time=0
EXTRACT: note_on channel=0 note=62 velocity=80 time=0
EXTRACT: note_on channel=0 note=57 velocity=80 time=0
EXTRACT: note_on channel=0 note=50 velocity=80 time=0
EXTRACT: note_off channel=0 note=62 velocity=64 time=0.20833325
EXTRACT: note_off channel=0 note=57 velocity=64 time=0
EXTRACT: note_off channel=0 note=50 velocity=64 time=0
EXTRACT: note_on channel=0 note=62 velocity=80 time=0
EXTRACT: note_on channel=0 note=57 velocity=80 time=0
EXTRACT: note_on channel=0 note=50 velocity=80 time=0
EXTRACT: note_off channel=4 note=66 velocity=64 time=0.20833325
EXTRACT: note_off channel=0 note=62 velocity=64 time=0
EXTRACT: note_off channel=0 note=57 velocity=64 time=0
EXTRACT: note_off channel=0 note=50 velocity=64 time=0
EXTRACT: note_on channel=0 note=62 velocity=80 time=0
EXTRACT: note_on channel=0 note=57 velocity=80 time=0
EXTRACT: note_on channel=0 note=50 velocity=80 time=0
EXTRACT: note_off channel=2 note=38 velocity=64 time=0
EXTRACT: note_on channel=2 note=38 velocity=80 time=0
EXTRACT: note_on channel=4 note=57 velocity=80 time=0.4166665
EXTRACT: note_off channel=0 note=62 velocity=64 time=0
EXTRACT: note_off channel=0 note=57 velocity=64 time=0
EXTRACT: note_off channel=0 note=50 velocity=64 time=0
EXTRACT: note_on channel=0 note=62 velocity=80 time=0
EXTRACT: note_on channel=0 note=57 velocity=80 time=0
EXTRACT: note_on channel=0 note=50 velocity=80 time=0
EXTRACT: note_off channel=0 note=62 velocity=64 time=0.20833325
EXTRACT: note_off channel=0 note=57 velocity=64 time=0
EXTRACT: note_off channel=0 note=50 velocity=64 time=0
EXTRACT: note_on channel=0 note=62 velocity=80 time=0
EXTRACT: note_on channel=0 note=57 velocity=80 time=0
EXTRACT: note_on channel=0 note=50 velocity=80 time=0
EXTRACT: note_off channel=4 note=57 velocity=64 time=0.20833325
EXTRACT: note_on channel=4 note=59 velocity=80 time=0
EXTRACT: note_off channel=0 note=62 velocity=64 time=0
EXTRACT: note_off channel=0 note=57 velocity=64 time=0
EXTRACT: note_off channel=0 note=50 velocity=64 time=0
EXTRACT: note_on channel=0 note=62 velocity=80 time=0
EXTRACT: note_on channel=0 note=57 velocity=80 time=0
EXTRACT: note_on channel=0 note=50 velocity=80 time=0
EXTRACT: note_off channel=0 note=62 velocity=64 time=0.20833325
EXTRACT: note_off channel=0 note=57 velocity=64 time=0
EXTRACT: note_off channel=0 note=50 velocity=64 time=0
EXTRACT: note_on channel=0 note=62 velocity=80 time=0
EXTRACT: note_on channel=0 note=57 velocity=80 time=0
EXTRACT: note_on channel=0 note=50 velocity=80 time=0
EXTRACT: note_off channel=4 note=59 velocity=64 time=0.20833325
EXTRACT: note_on channel=4 note=61 velocity=80 time=0
EXTRACT: note_off channel=0 note=62 velocity=64 time=0
EXTRACT: note_off channel=0 note=57 velocity=64 time=0
EXTRACT: note_off channel=0 note=50 velocity=64 time=0
EXTRACT: note_on channel=0 note=54 velocity=80 time=0
EXTRACT: note_on channel=0 note=49 velocity=80 time=0
EXTRACT: note_on channel=0 note=42 velocity=80 time=0
EXTRACT: note_off channel=2 note=38 velocity=64 time=0
EXTRACT: note_off channel=0 note=54 velocity=64 time=0.4166665
EXTRACT: note_off channel=0 note=49 velocity=64 time=0
EXTRACT: note_off channel=0 note=42 velocity=64 time=0
EXTRACT: note_on channel=0 note=54 velocity=80 time=0
EXTRACT: note_on channel=0 note=49 velocity=80 time=0
EXTRACT: note_on channel=0 note=42 velocity=80 time=0
EXTRACT: note_off channel=0 note=54 velocity=64 time=0.20833325
EXTRACT: note_off channel=0 note=49 velocity=64 time=0
EXTRACT: note_off channel=0 note=42 velocity=64 time=0
EXTRACT: note_on channel=0 note=54 velocity=80 time=0
EXTRACT: note_on channel=0 note=49 velocity=80 time=0
EXTRACT: note_on channel=0 note=42 velocity=80 time=0
EXTRACT: note_off channel=0 note=54 velocity=64 time=0.20833325
EXTRACT: note_off channel=0 note=49 velocity=64 time=0
EXTRACT: note_off channel=0 note=42 velocity=64 time=0
EXTRACT: note_on channel=0 note=54 velocity=80 time=0
EXTRACT: note_on channel=0 note=49 velocity=80 time=0
EXTRACT: note_on channel=0 note=42 velocity=80 time=0
EXTRACT: note_off channel=0 note=54 velocity=64 time=0.20833325
EXTRACT: note_off channel=0 note=49 velocity=64 time=0
EXTRACT: note_off channel=0 note=42 velocity=64 time=0
EXTRACT: note_on channel=0 note=54 velocity=80 time=0
EXTRACT: note_on channel=0 note=49 velocity=80 time=0
EXTRACT: note_on channel=0 note=42 velocity=80 time=0
EXTRACT: note_off channel=0 note=54 velocity=64 time=0.20833325
EXTRACT: note_off channel=0 note=49 velocity=64 time=0
EXTRACT: note_off channel=0 note=42 velocity=64 time=0
EXTRACT: note_on channel=0 note=54 velocity=80 time=0
EXTRACT: note_on channel=0 note=49 velocity=80 time=0
EXTRACT: note_on channel=0 note=42 velocity=80 time=0
EXTRACT: note_off channel=0 note=54 velocity=64 time=0.4166665
EXTRACT: note_off channel=0 note=49 velocity=64 time=0
EXTRACT: note_off channel=0 note=42 velocity=64 time=0
EXTRACT: note_on channel=0 note=54 velocity=80 time=0
EXTRACT: note_on channel=0 note=49 velocity=80 time=0
EXTRACT: note_on channel=0 note=42 velocity=80 time=0
EXTRACT: note_off channel=0 note=54 velocity=64 time=0.20833325
EXTRACT: note_off channel=0 note=49 velocity=64 time=0
EXTRACT: note_off channel=0 note=42 velocity=64 time=0
EXTRACT: note_on channel=0 note=54 velocity=80 time=0
EXTRACT: note_on channel=0 note=49 velocity=80 time=0
EXTRACT: note_on channel=0 note=42 velocity=80 time=0
EXTRACT: note_off channel=0 note=54 velocity=64 time=0.20833325
EXTRACT: note_off channel=0 note=49 velocity=64 time=0
EXTRACT: note_off channel=0 note=42 velocity=64 time=0
EXTRACT: note_on channel=0 note=54 velocity=80 time=0
EXTRACT: note_on channel=0 note=49 velocity=80 time=0
EXTRACT: note_on channel=0 note=42 velocity=80 time=0
EXTRACT: note_off channel=0 note=54 velocity=64 time=0.20833325
EXTRACT: note_off channel=0 note=49 velocity=64 time=0
EXTRACT: note_off channel=0 note=42 velocity=64 time=0
EXTRACT: note_on channel=0 note=54 velocity=80 time=0
EXTRACT: note_on channel=0 note=49 velocity=80 time=0
EXTRACT: note_on channel=0 note=42 velocity=80 time=0
EXTRACT: note_off channel=4 note=61 velocity=64 time=0.20833325
EXTRACT: note_off channel=0 note=54 velocity=64 time=0
EXTRACT: note_off channel=0 note=49 velocity=64 time=0
EXTRACT: note_off channel=0 note=42 velocity=64 time=0
EXTRACT: note_on channel=0 note=62 velocity=80 time=0
EXTRACT: note_on channel=0 note=57 velocity=80 time=0
EXTRACT: note_on channel=0 note=50 velocity=80 time=0
EXTRACT: note_off channel=0 note=62 velocity=64 time=0.4166665
EXTRACT: note_off channel=0 note=57 velocity=64 time=0
EXTRACT: note_off channel=0 note=50 velocity=64 time=0
EXTRACT: note_on channel=0 note=62 velocity=80 time=0
EXTRACT: note_on channel=0 note=57 velocity=80 time=0
EXTRACT: note_on channel=0 note=50 velocity=80 time=0
EXTRACT: note_off channel=0 note=62 velocity=64 time=0.20833325
EXTRACT: note_off channel=0 note=57 velocity=64 time=0
EXTRACT: note_off channel=0 note=50 velocity=64 time=0
EXTRACT: note_on channel=0 note=62 velocity=80 time=0
EXTRACT: note_on channel=0 note=57 velocity=80 time=0
EXTRACT: note_on channel=0 note=50 velocity=80 time=0
EXTRACT: note_off channel=0 note=62 velocity=64 time=0.20833325
EXTRACT: note_off channel=0 note=57 velocity=64 time=0
EXTRACT: note_off channel=0 note=50 velocity=64 time=0
EXTRACT: note_on channel=0 note=62 velocity=80 time=0
EXTRACT: note_on channel=0 note=57 velocity=80 time=0
EXTRACT: note_on channel=0 note=50 velocity=80 time=0
EXTRACT: note_off channel=0 note=62 velocity=64 time=0.20833325
EXTRACT: note_off channel=0 note=57 velocity=64 time=0
EXTRACT: note_off channel=0 note=50 velocity=64 time=0
EXTRACT: note_on channel=0 note=62 velocity=80 time=0
EXTRACT: note_on channel=0 note=57 velocity=80 time=0
EXTRACT: note_on channel=0 note=50 velocity=80 time=0
EXTRACT: note_off channel=0 note=62 velocity=64 time=0.20833325
EXTRACT: note_off channel=0 note=57 velocity=64 time=0
EXTRACT: note_off channel=0 note=50 velocity=64 time=0
EXTRACT: note_on channel=0 note=62 velocity=80 time=0
EXTRACT: note_on channel=0 note=57 velocity=80 time=0
EXTRACT: note_on channel=0 note=50 velocity=80 time=0
EXTRACT: note_on channel=4 note=64 velocity=80 time=0.4166665
EXTRACT: note_off channel=0 note=62 velocity=64 time=0
EXTRACT: note_off channel=0 note=57 velocity=64 time=0
EXTRACT: note_off channel=0 note=50 velocity=64 time=0
EXTRACT: note_on channel=0 note=62 velocity=80 time=0
EXTRACT: note_on channel=0 note=57 velocity=80 time=0
EXTRACT: note_on channel=0 note=50 velocity=80 time=0
EXTRACT: note_off channel=0 note=62 velocity=64 time=0.20833325
EXTRACT: note_off channel=0 note=57 velocity=64 time=0
EXTRACT: note_off channel=0 note=50 velocity=64 time=0
EXTRACT: note_on channel=0 note=62 velocity=80 time=0
EXTRACT: note_on channel=0 note=57 velocity=80 time=0
EXTRACT: note_on channel=0 note=50 velocity=80 time=0
EXTRACT: note_off channel=4 note=64 velocity=64 time=0.20833325
EXTRACT: note_on channel=4 note=64 velocity=80 time=0
EXTRACT: note_off channel=0 note=62 velocity=64 time=0
EXTRACT: note_off channel=0 note=57 velocity=64 time=0
EXTRACT: note_off channel=0 note=50 velocity=64 time=0
EXTRACT: note_on channel=0 note=62 velocity=80 time=0
EXTRACT: note_on channel=0 note=57 velocity=80 time=0
EXTRACT: note_on channel=0 note=50 velocity=80 time=0
EXTRACT: note_off channel=0 note=62 velocity=64 time=0.20833325
EXTRACT: note_off channel=0 note=57 velocity=64 time=0
EXTRACT: note_off channel=0 note=50 velocity=64 time=0
EXTRACT: note_on channel=0 note=62 velocity=80 time=0
EXTRACT: note_on channel=0 note=57 velocity=80 time=0
EXTRACT: note_on channel=0 note=50 velocity=80 time=0
EXTRACT: note_off channel=4 note=64 velocity=64 time=0.20833325
EXTRACT: note_on channel=4 note=64 velocity=80 time=0
EXTRACT: note_off channel=0 note=62 velocity=64 time=0
EXTRACT: note_off channel=0 note=57 velocity=64 time=0
EXTRACT: note_off channel=0 note=50 velocity=64 time=0
EXTRACT: note_on channel=0 note=54 velocity=80 time=0
EXTRACT: note_on channel=0 note=49 velocity=80 time=0
EXTRACT: note_on channel=0 note=42 velocity=80 time=0
EXTRACT: note_off channel=4 note=64 velocity=64 time=0.20833325
EXTRACT: note_on channel=4 note=61 velocity=80 time=0
EXTRACT: note_off channel=4 note=61 velocity=64 time=0.20833325
EXTRACT: note_off channel=0 note=54 velocity=64 time=0
EXTRACT: note_off channel=0 note=49 velocity=64 time=0
EXTRACT: note_off channel=0 note=42 velocity=64 time=0
EXTRACT: note_on channel=0 note=54 velocity=80 time=0
EXTRACT: note_on channel=0 note=49 velocity=80 time=0
EXTRACT: note_on channel=0 note=42 velocity=80 time=0
EXTRACT: note_off channel=0 note=54 velocity=64 time=0.20833325
EXTRACT: note_off channel=0 note=49 velocity=64 time=0
EXTRACT: note_off channel=0 note=42 velocity=64 time=0
EXTRACT: note_on channel=0 note=54 velocity=80 time=0
EXTRACT: note_on channel=0 note=49 velocity=80 time=0
EXTRACT: note_on channel=0 note=42 velocity=80 time=0
EXTRACT: note_off channel=0 note=54 velocity=64 time=0.20833325
EXTRACT: note_off channel=0 note=49 velocity=64 time=0
EXTRACT: note_off channel=0 note=42 velocity=64 time=0
EXTRACT: note_on channel=0 note=54 velocity=80 time=0
EXTRACT: note_on channel=0 note=49 velocity=80 time=0
EXTRACT: note_on channel=0 note=42 velocity=80 time=0
EXTRACT: note_off channel=0 note=54 velocity=64 time=0.20833325
EXTRACT: note_off channel=0 note=49 velocity=64 time=0
EXTRACT: note_off channel=0 note=42 velocity=64 time=0
EXTRACT: note_on channel=0 note=54 velocity=80 time=0
EXTRACT: note_on channel=0 note=49 velocity=80 time=0
EXTRACT: note_on channel=0 note=42 velocity=80 time=0
EXTRACT: note_off channel=0 note=54 velocity=64 time=0.20833325
EXTRACT: note_off channel=0 note=49 velocity=64 time=0
EXTRACT: note_off channel=0 note=42 velocity=64 time=0
EXTRACT: note_on channel=0 note=54 velocity=80 time=0
EXTRACT: note_on channel=0 note=49 velocity=80 time=0
EXTRACT: note_on channel=0 note=42 velocity=80 time=0
EXTRACT: note_off channel=0 note=54 velocity=64 time=0.4166665
EXTRACT: note_off channel=0 note=49 velocity=64 time=0
EXTRACT: note_off channel=0 note=42 velocity=64 time=0
EXTRACT: note_on channel=0 note=54 velocity=80 time=0
EXTRACT: note_on channel=0 note=49 velocity=80 time=0
EXTRACT: note_on channel=0 note=42 velocity=80 time=0
EXTRACT: note_off channel=0 note=54 velocity=64 time=0.20833325
EXTRACT: note_off channel=0 note=49 velocity=64 time=0
EXTRACT: note_off channel=0 note=42 velocity=64 time=0
EXTRACT: note_on channel=0 note=54 velocity=80 time=0
EXTRACT: note_on channel=0 note=49 velocity=80 time=0
EXTRACT: note_on channel=0 note=42 velocity=80 time=0
EXTRACT: note_off channel=0 note=54 velocity=64 time=0.20833325
EXTRACT: note_off channel=0 note=49 velocity=64 time=0
EXTRACT: note_off channel=0 note=42 velocity=64 time=0
EXTRACT: note_on channel=0 note=54 velocity=80 time=0
EXTRACT: note_on channel=0 note=49 velocity=80 time=0
EXTRACT: note_on channel=0 note=42 velocity=80 time=0
EXTRACT: note_off channel=0 note=54 velocity=64 time=0.20833325
EXTRACT: note_off channel=0 note=49 velocity=64 time=0
EXTRACT: note_off channel=0 note=42 velocity=64 time=0
EXTRACT: note_on channel=0 note=54 velocity=80 time=0
EXTRACT: note_on channel=0 note=49 velocity=80 time=0
EXTRACT: note_on channel=0 note=42 velocity=80 time=0
EXTRACT: note_off channel=0 note=54 velocity=64 time=0.20833325
EXTRACT: note_off channel=0 note=49 velocity=64 time=0
EXTRACT: note_off channel=0 note=42 velocity=64 time=0
EXTRACT: note_on channel=0 note=62 velocity=80 time=0
EXTRACT: note_on channel=0 note=57 velocity=80 time=0
EXTRACT: note_on channel=0 note=50 velocity=80 time=0
EXTRACT: note_off channel=0 note=62 velocity=64 time=0.4166665
EXTRACT: note_off channel=0 note=57 velocity=64 time=0
EXTRACT: note_off channel=0 note=50 velocity=64 time=0
EXTRACT: note_on channel=0 note=62 velocity=80 time=0
EXTRACT: note_on channel=0 note=57 velocity=80 time=0
EXTRACT: note_on channel=0 note=50 velocity=80 time=0
EXTRACT: note_off channel=0 note=62 velocity=64 time=0.20833325
EXTRACT: note_off channel=0 note=57 velocity=64 time=0
EXTRACT: note_off channel=0 note=50 velocity=64 time=0
EXTRACT: note_on channel=0 note=62 velocity=80 time=0
EXTRACT: note_on channel=0 note=57 velocity=80 time=0
EXTRACT: note_on channel=0 note=50 velocity=80 time=0
EXTRACT: note_off channel=0 note=62 velocity=64 time=0.20833325
EXTRACT: note_off channel=0 note=57 velocity=64 time=0
EXTRACT: note_off channel=0 note=50 velocity=64 time=0
EXTRACT: note_on channel=0 note=62 velocity=80 time=0
EXTRACT: note_on channel=0 note=57 velocity=80 time=0
EXTRACT: note_on channel=0 note=50 velocity=80 time=0
EXTRACT: note_off channel=0 note=62 velocity=64 time=0.20833325
EXTRACT: note_off channel=0 note=57 velocity=64 time=0
EXTRACT: note_off channel=0 note=50 velocity=64 time=0
EXTRACT: note_on channel=0 note=62 velocity=80 time=0
EXTRACT: note_on channel=0 note=57 velocity=80 time=0
EXTRACT: note_on channel=0 note=50 velocity=80 time=0
EXTRACT: note_off channel=0 note=62 velocity=64 time=0.20833325
EXTRACT: note_off channel=0 note=57 velocity=64 time=0
EXTRACT: note_off channel=0 note=50 velocity=64 time=0
EXTRACT: note_on channel=0 note=62 velocity=80 time=0
EXTRACT: note_on channel=0 note=57 velocity=80 time=0
EXTRACT: note_on channel=0 note=50 velocity=80 time=0
EXTRACT: note_on channel=4 note=59 velocity=80 time=0.4166665
EXTRACT: note_off channel=0 note=62 velocity=64 time=0
EXTRACT: note_off channel=0 note=57 velocity=64 time=0
EXTRACT: note_off channel=0 note=50 velocity=64 time=0
EXTRACT: note_on channel=0 note=62 velocity=80 time=0
EXTRACT: note_on channel=0 note=57 velocity=80 time=0
EXTRACT: note_on channel=0 note=50 velocity=80 time=0
EXTRACT: note_off channel=0 note=62 velocity=64 time=0.20833325
EXTRACT: note_off channel=0 note=57 velocity=64 time=0
EXTRACT: note_off channel=0 note=50 velocity=64 time=0
EXTRACT: note_on channel=0 note=62 velocity=80 time=0
EXTRACT: note_on channel=0 note=57 velocity=80 time=0
EXTRACT: note_on channel=0 note=50 velocity=80 time=0
EXTRACT: note_off channel=4 note=59 velocity=64 time=0.20833325
EXTRACT: note_on channel=4 note=59 velocity=80 time=0
EXTRACT: note_off channel=0 note=62 velocity=64 time=0
EXTRACT: note_off channel=0 note=57 velocity=64 time=0
EXTRACT: note_off channel=0 note=50 velocity=64 time=0
EXTRACT: note_on channel=0 note=62 velocity=80 time=0
EXTRACT: note_on channel=0 note=57 velocity=80 time=0
EXTRACT: note_on channel=0 note=50 velocity=80 time=0
EXTRACT: note_off channel=0 note=62 velocity=64 time=0.20833325
EXTRACT: note_off channel=0 note=57 velocity=64 time=0
EXTRACT: note_off channel=0 note=50 velocity=64 time=0
EXTRACT: note_on channel=0 note=62 velocity=80 time=0
EXTRACT: note_on channel=0 note=57 velocity=80 time=0
EXTRACT: note_on channel=0 note=50 velocity=80 time=0
EXTRACT: note_off channel=4 note=59 velocity=64 time=0.20833325
EXTRACT: note_on channel=4 note=57 velocity=80 time=0
EXTRACT: note_off channel=0 note=62 velocity=64 time=0
EXTRACT: note_off channel=0 note=57 velocity=64 time=0
EXTRACT: note_off channel=0 note=50 velocity=64 time=0
EXTRACT: note_on channel=0 note=57 velocity=80 time=0
EXTRACT: note_on channel=0 note=52 velocity=80 time=0
EXTRACT: note_on channel=0 note=45 velocity=80 time=0
EXTRACT: note_off channel=4 note=57 velocity=64 time=2.499999
EXTRACT: note_off channel=0 note=57 velocity=64 time=0
EXTRACT: note_off channel=0 note=52 velocity=64 time=0
EXTRACT: note_off channel=0 note=45 velocity=64 time=0
