EXTRACT: control_change channel=0 control=121 value=0 time=0
EXTRACT: program_change channel=0 program=68 time=0
EXTRACT: control_change channel=0 control=7 value=100 time=0
EXTRACT: control_change channel=0 control=10 value=64 time=0
EXTRACT: control_change channel=0 control=91 value=0 time=0
EXTRACT: control_change channel=0 control=93 value=0 time=0
EXTRACT: control_change channel=1 control=121 value=0 time=0
EXTRACT: program_change channel=1 program=0 time=0
EXTRACT: control_change channel=1 control=7 value=100 time=0
EXTRACT: control_change channel=1 control=10 value=64 time=0
EXTRACT: control_change channel=1 control=91 value=0 time=0
EXTRACT: control_change channel=1 control=93 value=0 time=0
EXTRACT: note_on channel=1 note=60 velocity=76 time=0
EXTRACT: note_on channel=1 note=48 velocity=64 time=0
EXTRACT: control_change channel=1 control=64 value=127 time=0.003125008333333333
EXTRACT: note_on channel=1 note=60 velocity=0 time=0.18281298749999997
EXTRACT: note_on channel=1 note=63 velocity=64 time=0.0015625041666666665
EXTRACT: note_on channel=1 note=63 velocity=0 time=0.1765629708333333
EXTRACT: note_on channel=1 note=60 velocity=64 time=0.010937529166666666
EXTRACT: note_on channel=1 note=60 velocity=0 time=0.1765629708333333
EXTRACT: note_on channel=1 note=63 velocity=64 time=0.010937529166666666
EXTRACT: note_on channel=1 note=48 velocity=0 time=0.1484378958333333
EXTRACT: note_on channel=1 note=63 velocity=0 time=0.028125074999999996
EXTRACT: note_on channel=1 note=70 velocity=76 time=0.010937529166666666
EXTRACT: note_on channel=1 note=58 velocity=64 time=0
EXTRACT: note_on channel=1 note=70 velocity=0 time=0.1859379958333333
EXTRACT: note_on channel=1 note=63 velocity=64 time=0.0015625041666666665
EXTRACT: note_on channel=1 note=63 velocity=0 time=0.1765629708333333
EXTRACT: note_on channel=1 note=70 velocity=64 time=0.010937529166666666
EXTRACT: note_on channel=1 note=70 velocity=0 time=0.1765629708333333
EXTRACT: note_on channel=1 note=63 velocity=64 time=0.010937529166666666
EXTRACT: note_on channel=1 note=58 velocity=0 time=0.1484378958333333
EXTRACT: note_on channel=1 note=63 velocity=0 time=0.028125074999999996
EXTRACT: note_on channel=1 note=60 velocity=64 time=0.010937529166666666
EXTRACT: note_on channel=1 note=48 velocity=64 time=0
EXTRACT: note_on channel=1 note=60 velocity=0 time=0.1765629708333333
EXTRACT: note_on channel=1 note=63 velocity=64 time=0.010937529166666666
EXTRACT: note_on channel=1 note=63 velocity=0 time=0.1765629708333333
EXTRACT: note_on channel=1 note=60 velocity=64 time=0.010937529166666666
EXTRACT: note_on channel=1 note=48 velocity=0 time=0.15781292083333331
EXTRACT: note_on channel=1 note=60 velocity=0 time=0.018750049999999997
EXTRACT: note_on channel=1 note=63 velocity=76 time=0.010937529166666666
EXTRACT: note_on channel=1 note=55 velocity=64 time=0
EXTRACT: note_on channel=1 note=55 velocity=0 time=0.1765629708333333
EXTRACT: note_on channel=1 note=63 velocity=0 time=0.009375024999999999
EXTRACT: note_on channel=1 note=70 velocity=76 time=0.0015625041666666665
EXTRACT: note_on channel=1 note=58 velocity=64 time=0
EXTRACT: note_on channel=1 note=70 velocity=0 time=0.1859379958333333
EXTRACT: note_on channel=1 note=63 velocity=64 time=0.0015625041666666665
EXTRACT: note_on channel=1 note=63 velocity=0 time=0.1765629708333333
EXTRACT: note_on channel=1 note=70 velocity=64 time=0.010937529166666666
EXTRACT: note_on channel=1 note=58 velocity=0 time=0.15781292083333331
EXTRACT: note_on channel=1 note=70 velocity=0 time=0.018750049999999997
EXTRACT: note_on channel=1 note=63 velocity=64 time=0.010937529166666666
EXTRACT: note_on channel=1 note=51 velocity=64 time=0
EXTRACT: note_on channel=1 note=63 velocity=0 time=0.1765629708333333
EXTRACT: note_on channel=1 note=51 velocity=0 time=0
EXTRACT: note_on channel=1 note=60 velocity=76 time=0.010937529166666666
EXTRACT: note_on channel=1 note=44 velocity=64 time=0
EXTRACT: note_on channel=1 note=58 velocity=64 time=0
EXTRACT: control_change channel=1 control=64 value=0 time=0.0015625041666666665
EXTRACT: control_change channel=1 control=64 value=127 time=0.0015625041666666665
EXTRACT: note_on channel=1 note=60 velocity=0 time=0.18281298749999997
EXTRACT: note_on channel=1 note=63 velocity=64 time=0.0015625041666666665
EXTRACT: note_on channel=1 note=63 velocity=0 time=0.1765629708333333
EXTRACT: note_on channel=1 note=60 velocity=64 time=0.010937529166666666
EXTRACT: note_on channel=1 note=44 velocity=0 time=0.15781292083333331
EXTRACT: note_on channel=1 note=58 velocity=0 time=0
EXTRACT: note_on channel=1 note=60 velocity=0 time=0.018750049999999997
EXTRACT: note_on channel=1 note=63 velocity=64 time=0.010937529166666666
EXTRACT: note_on channel=1 note=51 velocity=64 time=0
EXTRACT: note_on channel=1 note=63 velocity=0 time=0.1765629708333333
EXTRACT: note_on channel=1 note=51 velocity=0 time=0
EXTRACT: note_on channel=1 note=70 velocity=76 time=0.010937529166666666
EXTRACT: note_on channel=1 note=58 velocity=64 time=0
EXTRACT: note_on channel=1 note=70 velocity=0 time=0.1859379958333333
EXTRACT: note_on channel=1 note=63 velocity=64 time=0.0015625041666666665
EXTRACT: note_on channel=1 note=63 velocity=0 time=0.1765629708333333
EXTRACT: note_on channel=1 note=70 velocity=64 time=0.010937529166666666
EXTRACT: note_on channel=1 note=70 velocity=0 time=0.1765629708333333
EXTRACT: note_on channel=1 note=63 velocity=64 time=0.010937529166666666
EXTRACT: note_on channel=1 note=63 velocity=0 time=0.1765629708333333
EXTRACT: note_on channel=1 note=60 velocity=64 time=0.010937529166666666
EXTRACT: note_on channel=1 note=60 velocity=0 time=0.1765629708333333
EXTRACT: note_on channel=1 note=63 velocity=64 time=0.010937529166666666
EXTRACT: note_on channel=1 note=63 velocity=0 time=0.1765629708333333
EXTRACT: note_on channel=1 note=60 velocity=64 time=0.010937529166666666
EXTRACT: note_on channel=1 note=58 velocity=0 time=0.12031282083333332
EXTRACT: note_on channel=1 note=60 velocity=0 time=0.05625014999999999
EXTRACT: note_on channel=1 note=63 velocity=76 time=0.010937529166666666
EXTRACT: note_on channel=1 note=51 velocity=64 time=0
EXTRACT: note_on channel=1 note=51 velocity=0 time=0.1765629708333333
EXTRACT: note_on channel=1 note=63 velocity=0 time=0.009375024999999999
EXTRACT: note_on channel=1 note=70 velocity=76 time=0.0015625041666666665
EXTRACT: note_on channel=1 note=58 velocity=64 time=0
EXTRACT: note_on channel=1 note=70 velocity=0 time=0.1859379958333333
EXTRACT: note_on channel=1 note=63 velocity=64 time=0.0015625041666666665
EXTRACT: note_on channel=1 note=63 velocity=0 time=0.1765629708333333
EXTRACT: note_on channel=1 note=70 velocity=64 time=0.010937529166666666
EXTRACT: note_on channel=1 note=70 velocity=0 time=0.1765629708333333
EXTRACT: note_on channel=1 note=63 velocity=64 time=0.010937529166666666
EXTRACT: note_on channel=1 note=58 velocity=0 time=0.1484378958333333
EXTRACT: note_on channel=1 note=63 velocity=0 time=0.028125074999999996
EXTRACT: note_on channel=1 note=60 velocity=76 time=0
EXTRACT: note_on channel=1 note=41 velocity=64 time=0
EXTRACT: control_change channel=1 control=64 value=0 time=0.0015625041666666665
EXTRACT: control_change channel=1 control=64 value=0 time=0
EXTRACT: control_change channel=1 control=64 value=127 time=0.0015625041666666665
EXTRACT: control_change channel=1 control=64 value=127 time=0
EXTRACT: note_on channel=1 note=60 velocity=0 time=0.18281298749999997
EXTRACT: note_on channel=1 note=63 velocity=64 time=0.0015625041666666665
EXTRACT: note_on channel=1 note=63 velocity=0 time=0.1765629708333333
EXTRACT: note_on channel=1 note=60 velocity=64 time=0.010937529166666666
EXTRACT: note_on channel=1 note=41 velocity=0 time=0.15781292083333331
EXTRACT: note_on channel=1 note=60 velocity=0 time=0.018750049999999997
EXTRACT: note_on channel=1 note=63 velocity=64 time=0.010937529166666666
EXTRACT: note_on channel=1 note=48 velocity=64 time=0
EXTRACT: note_on channel=1 note=63 velocity=0 time=0.1765629708333333
EXTRACT: note_on channel=1 note=48 velocity=0 time=0
EXTRACT: note_on channel=1 note=67 velocity=76 time=0.010937529166666666
EXTRACT: note_on channel=1 note=56 velocity=64 time=0
EXTRACT: note_on channel=1 note=67 velocity=0 time=0.1859379958333333
EXTRACT: note_on channel=1 note=63 velocity=64 time=0.0015625041666666665
EXTRACT: note_on channel=1 note=63 velocity=0 time=0.1765629708333333
EXTRACT: note_on channel=1 note=67 velocity=64 time=0.010937529166666666
EXTRACT: note_on channel=1 note=67 velocity=0 time=0.1765629708333333
EXTRACT: note_on channel=1 note=63 velocity=64 time=0.010937529166666666
EXTRACT: note_on channel=1 note=63 velocity=0 time=0.1765629708333333
EXTRACT: note_on channel=1 note=60 velocity=64 time=0.010937529166666666
EXTRACT: note_on channel=1 note=60 velocity=0 time=0.1765629708333333
EXTRACT: note_on channel=1 note=63 velocity=64 time=0.010937529166666666
EXTRACT: note_on channel=1 note=63 velocity=0 time=0.1765629708333333
EXTRACT: note_on channel=1 note=60 velocity=64 time=0.010937529166666666
EXTRACT: note_on channel=1 note=56 velocity=0 time=0.12031282083333332
EXTRACT: note_on channel=1 note=60 velocity=0 time=0.05625014999999999
EXTRACT: note_on channel=1 note=63 velocity=76 time=0.010937529166666666
EXTRACT: note_on channel=1 note=48 velocity=64 time=0
EXTRACT: note_on channel=1 note=48 velocity=0 time=0.1765629708333333
EXTRACT: note_on channel=1 note=63 velocity=0 time=0.009375024999999999
EXTRACT: note_on channel=1 note=67 velocity=76 time=0.0015625041666666665
EXTRACT: note_on channel=1 note=56 velocity=64 time=0
EXTRACT: note_on channel=1 note=67 velocity=0 time=0.1859379958333333
EXTRACT: note_on channel=1 note=63 velocity=64 time=0.0015625041666666665
EXTRACT: note_on channel=1 note=63 velocity=0 time=0.1765629708333333
EXTRACT: note_on channel=1 note=67 velocity=64 time=0.010937529166666666
EXTRACT: note_on channel=1 note=67 velocity=0 time=0.1765629708333333
EXTRACT: note_on channel=1 note=63 velocity=64 time=0.010937529166666666
EXTRACT: note_on channel=1 note=56 velocity=0 time=0.1484378958333333
EXTRACT: note_on channel=1 note=63 velocity=0 time=0.028125074999999996
EXTRACT: note_on channel=1 note=60 velocity=76 time=0.010937529166666666
EXTRACT: note_on channel=1 note=44 velocity=64 time=0
EXTRACT: control_change channel=1 control=64 value=0 time=0.0015625041666666665
EXTRACT: control_change channel=1 control=64 value=127 time=0.0015625041666666665
EXTRACT: control_change channel=1 control=64 value=127 time=0
EXTRACT: note_on channel=1 note=60 velocity=0 time=0.18281298749999997
EXTRACT: note_on channel=1 note=63 velocity=64 time=0.0015625041666666665
EXTRACT: note_on channel=1 note=63 velocity=0 time=0.1765629708333333
EXTRACT: note_on channel=1 note=60 velocity=64 time=0.010937529166666666
EXTRACT: note_on channel=1 note=44 velocity=0 time=0.15781292083333331
EXTRACT: note_on channel=1 note=60 velocity=0 time=0.018750049999999997
EXTRACT: note_on channel=1 note=63 velocity=64 time=0.010937529166666666
EXTRACT: note_on channel=1 note=51 velocity=64 time=0
EXTRACT: note_on channel=1 note=63 velocity=0 time=0.1765629708333333
EXTRACT: note_on channel=1 note=51 velocity=0 time=0
EXTRACT: note_on channel=1 note=68 velocity=76 time=0.010937529166666666
EXTRACT: note_on channel=1 note=56 velocity=64 time=0
EXTRACT: note_on channel=1 note=68 velocity=0 time=0.1859379958333333
EXTRACT: note_on channel=1 note=63 velocity=64 time=0.0015625041666666665
EXTRACT: note_on channel=1 note=63 velocity=0 time=0.1765629708333333
EXTRACT: note_on channel=1 note=68 velocity=64 time=0.010937529166666666
EXTRACT: note_on channel=1 note=68 velocity=0 time=0.1765629708333333
EXTRACT: note_on channel=1 note=63 velocity=64 time=0.010937529166666666
EXTRACT: note_on channel=1 note=63 velocity=0 time=0.1765629708333333
EXTRACT: note_on channel=1 note=60 velocity=64 time=0.010937529166666666
EXTRACT: note_on channel=1 note=60 velocity=0 time=0.1765629708333333
EXTRACT: note_on channel=1 note=63 velocity=64 time=0.010937529166666666
EXTRACT: note_on channel=1 note=63 velocity=0 time=0.1765629708333333
EXTRACT: note_on channel=1 note=60 velocity=76 time=0.010937529166666666
EXTRACT: note_on channel=1 note=60 velocity=0 time=0.1859379958333333
EXTRACT: note_on channel=1 note=68 velocity=76 time=0.0015625041666666665
EXTRACT: note_on channel=1 note=68 velocity=0 time=0.1859379958333333
EXTRACT: note_on channel=1 note=67 velocity=76 time=0.0015625041666666665
EXTRACT: note_on channel=1 note=67 velocity=0 time=0.1859379958333333
EXTRACT: note_on channel=1 note=60 velocity=64 time=0.0015625041666666665
EXTRACT: note_on channel=1 note=60 velocity=0 time=0.1765629708333333
EXTRACT: note_on channel=1 note=63 velocity=76 time=0.010937529166666666
EXTRACT: note_on channel=1 note=63 velocity=0 time=0.1859379958333333
EXTRACT: note_on channel=1 note=60 velocity=64 time=0.0015625041666666665
EXTRACT: note_on channel=1 note=56 velocity=0 time=0.07343769583333333
EXTRACT: note_on channel=1 note=60 velocity=0 time=0.10312527499999999
EXTRACT: note_on channel=1 note=60 velocity=76 time=0.010937529166666666
EXTRACT: note_on channel=1 note=48 velocity=64 time=0
EXTRACT: control_change channel=1 control=64 value=0 time=0.0015625041666666665
EXTRACT: control_change channel=1 control=64 value=0 time=0
EXTRACT: control_change channel=1 control=64 value=127 time=0.0015625041666666665
EXTRACT: note_on channel=1 note=60 velocity=0 time=0.18281298749999997
EXTRACT: note_on channel=1 note=63 velocity=64 time=0.0015625041666666665
EXTRACT: note_on channel=1 note=63 velocity=0 time=0.1765629708333333
EXTRACT: note_on channel=1 note=60 velocity=64 time=0.010937529166666666
EXTRACT: note_on channel=1 note=60 velocity=0 time=0.1765629708333333
EXTRACT: note_on channel=1 note=63 velocity=64 time=0.010937529166666666
EXTRACT: note_on channel=1 note=48 velocity=0 time=0.1484378958333333
EXTRACT: note_on channel=1 note=63 velocity=0 time=0.028125074999999996
EXTRACT: note_on channel=0 note=63 velocity=80 time=0.010937529166666666
EXTRACT: note_on channel=1 note=70 velocity=76 time=0
EXTRACT: note_on channel=1 note=58 velocity=64 time=0
EXTRACT: note_on channel=1 note=70 velocity=0 time=0.1859379958333333
EXTRACT: note_on channel=1 note=63 velocity=64 time=0.0015625041666666665
EXTRACT: note_on channel=1 note=63 velocity=0 time=0.1765629708333333
EXTRACT: note_on channel=0 note=63 velocity=0 time=0.009375024999999999
EXTRACT: note_on channel=0 note=62 velocity=80 time=0.0015625041666666665
EXTRACT: note_on channel=1 note=70 velocity=64 time=0
EXTRACT: note_on channel=1 note=70 velocity=0 time=0.1765629708333333
EXTRACT: note_on channel=0 note=62 velocity=0 time=0.009375024999999999
EXTRACT: note_on channel=0 note=63 velocity=80 time=0.0015625041666666665
EXTRACT: note_on channel=1 note=63 velocity=64 time=0
EXTRACT: note_on channel=1 note=63 velocity=0 time=0.1765629708333333
EXTRACT: note_on channel=1 note=60 velocity=64 time=0.010937529166666666
EXTRACT: note_on channel=1 note=60 velocity=0 time=0.1765629708333333
EXTRACT: note_on channel=1 note=63 velocity=64 time=0.010937529166666666
EXTRACT: note_on channel=1 note=63 velocity=0 time=0.1765629708333333
EXTRACT: note_on channel=0 note=63 velocity=0 time=0.009375024999999999
EXTRACT: note_on channel=0 note=62 velocity=80 time=0.0015625041666666665
EXTRACT: note_on channel=1 note=60 velocity=64 time=0
EXTRACT: note_on channel=1 note=58 velocity=0 time=0.12031282083333332
EXTRACT: note_on channel=1 note=60 velocity=0 time=0.05625014999999999
EXTRACT: note_on channel=0 note=62 velocity=0 time=0.009375024999999999
EXTRACT: note_on channel=0 note=63 velocity=80 time=0.0015625041666666665
EXTRACT: note_on channel=1 note=63 velocity=76 time=0
EXTRACT: note_on channel=1 note=51 velocity=64 time=0
EXTRACT: note_on channel=1 note=51 velocity=0 time=0.1765629708333333
EXTRACT: note_on channel=1 note=63 velocity=0 time=0.009375024999999999
EXTRACT: note_on channel=1 note=70 velocity=76 time=0.0015625041666666665
EXTRACT: note_on channel=1 note=58 velocity=64 time=0
EXTRACT: note_on channel=1 note=70 velocity=0 time=0.1859379958333333
EXTRACT: note_on channel=1 note=63 velocity=64 time=0.0015625041666666665
EXTRACT: note_on channel=1 note=63 velocity=0 time=0.1765629708333333
EXTRACT: note_on channel=0 note=63 velocity=0 time=0.009375024999999999
EXTRACT: note_on channel=0 note=62 velocity=80 time=0.0015625041666666665
EXTRACT: note_on channel=1 note=70 velocity=64 time=0
EXTRACT: note_on channel=1 note=58 velocity=0 time=0.15781292083333331
EXTRACT: note_on channel=1 note=70 velocity=0 time=0.018750049999999997
EXTRACT: note_on channel=0 note=62 velocity=0 time=0.009375024999999999
EXTRACT: note_on channel=0 note=60 velocity=80 time=0.0015625041666666665
EXTRACT: note_on channel=1 note=63 velocity=64 time=0
EXTRACT: note_on channel=1 note=51 velocity=64 time=0
EXTRACT: note_on channel=1 note=63 velocity=0 time=0.1765629708333333
EXTRACT: note_on channel=1 note=51 velocity=0 time=0
EXTRACT: note_on channel=1 note=60 velocity=76 time=0.010937529166666666
EXTRACT: note_on channel=1 note=44 velocity=64 time=0
EXTRACT: note_on channel=1 note=58 velocity=64 time=0
EXTRACT: control_change channel=1 control=64 value=0 time=0.0015625041666666665
EXTRACT: control_change channel=1 control=64 value=127 time=0.0015625041666666665
EXTRACT: note_on channel=1 note=60 velocity=0 time=0.18281298749999997
EXTRACT: note_on channel=1 note=63 velocity=64 time=0.0015625041666666665
EXTRACT: note_on channel=1 note=63 velocity=0 time=0.1765629708333333
EXTRACT: note_on channel=1 note=60 velocity=64 time=0.010937529166666666
EXTRACT: note_on channel=1 note=44 velocity=0 time=0.15781292083333331
EXTRACT: note_on channel=1 note=58 velocity=0 time=0
EXTRACT: note_on channel=1 note=60 velocity=0 time=0.018750049999999997
EXTRACT: note_on channel=1 note=63 velocity=64 time=0.010937529166666666
EXTRACT: note_on channel=1 note=51 velocity=64 time=0
EXTRACT: note_on channel=1 note=63 velocity=0 time=0.1765629708333333
EXTRACT: note_on channel=1 note=51 velocity=0 time=0
EXTRACT: note_on channel=0 note=60 velocity=0 time=0.009375024999999999
EXTRACT: note_on channel=1 note=70 velocity=76 time=0.0015625041666666665
EXTRACT: note_on channel=1 note=58 velocity=64 time=0
EXTRACT: note_on channel=1 note=70 velocity=0 time=0.1859379958333333
EXTRACT: note_on channel=1 note=63 velocity=64 time=0.0015625041666666665
EXTRACT: note_on channel=1 note=63 velocity=0 time=0.1765629708333333
EXTRACT: note_on channel=1 note=70 velocity=64 time=0.010937529166666666
EXTRACT: note_on channel=1 note=70 velocity=0 time=0.1765629708333333
EXTRACT: note_on channel=1 note=63 velocity=64 time=0.010937529166666666
EXTRACT: note_on channel=1 note=63 velocity=0 time=0.1765629708333333
EXTRACT: note_on channel=1 note=60 velocity=64 time=0.010937529166666666
EXTRACT: note_on channel=1 note=60 velocity=0 time=0.1765629708333333
EXTRACT: note_on channel=1 note=63 velocity=64 time=0.010937529166666666
EXTRACT: note_on channel=1 note=63 velocity=0 time=0.1765629708333333
EXTRACT: note_on channel=1 note=60 velocity=64 time=0.010937529166666666
EXTRACT: note_on channel=1 note=58 velocity=0 time=0.12031282083333332
EXTRACT: note_on channel=1 note=60 velocity=0 time=0.05625014999999999
EXTRACT: note_on channel=1 note=63 velocity=76 time=0.010937529166666666
EXTRACT: note_on channel=1 note=51 velocity=64 time=0
EXTRACT: note_on channel=1 note=51 velocity=0 time=0.1765629708333333
EXTRACT: note_on channel=1 note=63 velocity=0 time=0.009375024999999999
EXTRACT: note_on channel=0 note=63 velocity=80 time=0.0015625041666666665
EXTRACT: note_on channel=1 note=70 velocity=76 time=0
EXTRACT: note_on channel=1 note=58 velocity=64 time=0
EXTRACT: note_on channel=1 note=70 velocity=0 time=0.1859379958333333
EXTRACT: note_on channel=1 note=63 velocity=64 time=0.0015625041666666665
EXTRACT: note_on channel=1 note=63 velocity=0 time=0.1765629708333333
EXTRACT: note_on channel=0 note=63 velocity=0 time=0.009375024999999999
EXTRACT: note_on channel=0 note=63 velocity=80 time=0.0015625041666666665
EXTRACT: note_on channel=1 note=70 velocity=64 time=0
EXTRACT: note_on channel=1 note=70 velocity=0 time=0.1765629708333333
EXTRACT: note_on channel=0 note=63 velocity=0 time=0.009375024999999999
EXTRACT: note_on channel=0 note=63 velocity=80 time=0.0015625041666666665
EXTRACT: note_on channel=1 note=63 velocity=64 time=0
EXTRACT: note_on channel=1 note=58 velocity=0 time=0.1484378958333333
EXTRACT: note_on channel=1 note=63 velocity=0 time=0.028125074999999996
EXTRACT: note_on channel=1 note=60 velocity=76 time=0.010937529166666666
EXTRACT: note_on channel=1 note=41 velocity=64 time=0
EXTRACT: control_change channel=1 control=64 value=0 time=0.0015625041666666665
EXTRACT: control_change channel=1 control=64 value=0 time=0
EXTRACT: control_change channel=1 control=64 value=127 time=0.0015625041666666665
EXTRACT: control_change channel=1 control=64 value=127 time=0
EXTRACT: note_on channel=1 note=60 velocity=0 time=0.18281298749999997
EXTRACT: note_on channel=1 note=63 velocity=64 time=0.0015625041666666665
EXTRACT: note_on channel=1 note=63 velocity=0 time=0.1765629708333333
EXTRACT: note_on channel=0 note=63 velocity=0 time=0.009375024999999999
EXTRACT: note_on channel=0 note=60 velocity=80 time=0.0015625041666666665
EXTRACT: note_on channel=1 note=60 velocity=64 time=0
EXTRACT: note_on channel=1 note=41 velocity=0 time=0.15781292083333331
EXTRACT: note_on channel=1 note=60 velocity=0 time=0.018750049999999997
EXTRACT: note_on channel=1 note=63 velocity=64 time=0.010937529166666666
EXTRACT: note_on channel=1 note=48 velocity=64 time=0
EXTRACT: note_on channel=1 note=63 velocity=0 time=0.1765629708333333
EXTRACT: note_on channel=1 note=48 velocity=0 time=0
EXTRACT: note_on channel=1 note=67 velocity=76 time=0.010937529166666666
EXTRACT: note_on channel=1 note=56 velocity=64 time=0
EXTRACT: note_on channel=1 note=67 velocity=0 time=0.1859379958333333
EXTRACT: note_on channel=1 note=63 velocity=64 time=0.0015625041666666665
EXTRACT: note_on channel=1 note=63 velocity=0 time=0.1765629708333333
EXTRACT: note_on channel=1 note=67 velocity=64 time=0.010937529166666666
EXTRACT: note_on channel=1 note=67 velocity=0 time=0.1765629708333333
EXTRACT: note_on channel=1 note=63 velocity=64 time=0.010937529166666666
EXTRACT: note_on channel=1 note=63 velocity=0 time=0.1765629708333333
EXTRACT: note_on channel=0 note=60 velocity=0 time=0.009375024999999999
EXTRACT: note_on channel=1 note=60 velocity=64 time=0.0015625041666666665
EXTRACT: note_on channel=1 note=60 velocity=0 time=0.1765629708333333
EXTRACT: note_on channel=1 note=63 velocity=64 time=0.010937529166666666
EXTRACT: note_on channel=1 note=63 velocity=0 time=0.1765629708333333
EXTRACT: note_on channel=1 note=60 velocity=64 time=0.010937529166666666
EXTRACT: note_on channel=1 note=56 velocity=0 time=0.12031282083333332
EXTRACT: note_on channel=1 note=60 velocity=0 time=0.05625014999999999
EXTRACT: note_on channel=0 note=60 velocity=80 time=0.010937529166666666
EXTRACT: note_on channel=1 note=63 velocity=76 time=0
EXTRACT: note_on channel=1 note=48 velocity=64 time=0
EXTRACT: note_on channel=1 note=48 velocity=0 time=0.1765629708333333
EXTRACT: note_on channel=0 note=60 velocity=0 time=0.009375024999999999
EXTRACT: note_on channel=1 note=63 velocity=0 time=0
EXTRACT: note_on channel=0 note=63 velocity=80 time=0.0015625041666666665
EXTRACT: note_on channel=1 note=67 velocity=76 time=0
EXTRACT: note_on channel=1 note=56 velocity=64 time=0
EXTRACT: note_on channel=1 note=67 velocity=0 time=0.1859379958333333
EXTRACT: note_on channel=1 note=63 velocity=64 time=0.0015625041666666665
EXTRACT: note_on channel=1 note=63 velocity=0 time=0.1765629708333333
EXTRACT: note_on channel=0 note=63 velocity=0 time=0.009375024999999999
EXTRACT: note_on channel=0 note=63 velocity=80 time=0.0015625041666666665
EXTRACT: note_on channel=1 note=67 velocity=64 time=0
EXTRACT: note_on channel=1 note=67 velocity=0 time=0.1765629708333333
EXTRACT: note_on channel=0 note=63 velocity=0 time=0.009375024999999999
EXTRACT: note_on channel=0 note=60 velocity=80 time=0.0015625041666666665
EXTRACT: note_on channel=1 note=63 velocity=64 time=0
EXTRACT: note_on channel=1 note=56 velocity=0 time=0.1484378958333333
EXTRACT: note_on channel=1 note=63 velocity=0 time=0.028125074999999996
EXTRACT: note_on channel=1 note=60 velocity=76 time=0.010937529166666666
EXTRACT: note_on channel=1 note=44 velocity=64 time=0
EXTRACT: control_change channel=1 control=64 value=0 time=0.0015625041666666665
EXTRACT: control_change channel=1 control=64 value=0 time=0
EXTRACT: control_change channel=1 control=64 value=127 time=0.0015625041666666665
EXTRACT: control_change channel=1 control=64 value=127 time=0
EXTRACT: note_on channel=1 note=60 velocity=0 time=0.18281298749999997
EXTRACT: note_on channel=1 note=63 velocity=64 time=0.0015625041666666665
EXTRACT: note_on channel=1 note=63 velocity=0 time=0.1765629708333333
EXTRACT: note_on channel=1 note=60 velocity=64 time=0.010937529166666666
EXTRACT: note_on channel=1 note=44 velocity=0 time=0.15781292083333331
EXTRACT: note_on channel=1 note=60 velocity=0 time=0.018750049999999997
EXTRACT: note_on channel=1 note=63 velocity=64 time=0.010937529166666666
EXTRACT: note_on channel=1 note=51 velocity=64 time=0
EXTRACT: note_on channel=1 note=63 velocity=0 time=0.1765629708333333
EXTRACT: note_on channel=1 note=51 velocity=0 time=0
EXTRACT: note_on channel=0 note=60 velocity=0 time=0.009375024999999999
EXTRACT: note_on channel=1 note=68 velocity=76 time=0.0015625041666666665
EXTRACT: note_on channel=1 note=56 velocity=64 time=0
EXTRACT: note_on channel=1 note=68 velocity=0 time=0.1859379958333333
EXTRACT: note_on channel=1 note=63 velocity=64 time=0.0015625041666666665
EXTRACT: note_on channel=1 note=63 velocity=0 time=0.1765629708333333
EXTRACT: note_on channel=1 note=68 velocity=64 time=0.010937529166666666
EXTRACT: note_on channel=1 note=68 velocity=0 time=0.1765629708333333
EXTRACT: note_on channel=1 note=63 velocity=64 time=0.010937529166666666
EXTRACT: note_on channel=1 note=63 velocity=0 time=0.1765629708333333
EXTRACT: note_on channel=1 note=60 velocity=64 time=0.010937529166666666
EXTRACT: note_on channel=1 note=60 velocity=0 time=0.1765629708333333
EXTRACT: note_on channel=1 note=63 velocity=64 time=0.010937529166666666
EXTRACT: note_on channel=1 note=63 velocity=0 time=0.1765629708333333
EXTRACT: note_on channel=1 note=60 velocity=76 time=0.010937529166666666
EXTRACT: note_on channel=1 note=60 velocity=0 time=0.1859379958333333
EXTRACT: note_on channel=1 note=68 velocity=76 time=0.0015625041666666665
EXTRACT: note_on channel=1 note=68 velocity=0 time=0.1859379958333333
EXTRACT: note_on channel=1 note=67 velocity=76 time=0.0015625041666666665
EXTRACT: note_on channel=1 note=67 velocity=0 time=0.1859379958333333
EXTRACT: note_on channel=1 note=60 velocity=64 time=0.0015625041666666665
EXTRACT: note_on channel=1 note=60 velocity=0 time=0.1765629708333333
EXTRACT: note_on channel=1 note=63 velocity=76 time=0.010937529166666666
EXTRACT: note_on channel=1 note=63 velocity=0 time=0.1859379958333333
EXTRACT: note_on channel=1 note=60 velocity=64 time=0.0015625041666666665
EXTRACT: note_on channel=1 note=56 velocity=0 time=0.07343769583333333
EXTRACT: note_on channel=1 note=60 velocity=0 time=0.10312527499999999
EXTRACT: note_on channel=1 note=60 velocity=76 time=0.010937529166666666
EXTRACT: note_on channel=1 note=48 velocity=64 time=0
EXTRACT: control_change channel=1 control=64 value=0 time=0.0015625041666666665
EXTRACT: control_change channel=1 control=64 value=127 time=0.0015625041666666665
EXTRACT: note_on channel=1 note=60 velocity=0 time=0.18281298749999997
EXTRACT: note_on channel=1 note=63 velocity=64 time=0.0015625041666666665
EXTRACT: note_on channel=1 note=63 velocity=0 time=0.1765629708333333
EXTRACT: note_on channel=1 note=60 velocity=64 time=0.010937529166666666
EXTRACT: note_on channel=1 note=60 velocity=0 time=0.1765629708333333
EXTRACT: note_on channel=1 note=63 velocity=64 time=0.010937529166666666
EXTRACT: note_on channel=1 note=48 velocity=0 time=0.1484378958333333
EXTRACT: note_on channel=1 note=63 velocity=0 time=0.028125074999999996
EXTRACT: note_on channel=0 note=63 velocity=80 time=0.010937529166666666
EXTRACT: note_on channel=1 note=70 velocity=76 time=0
EXTRACT: note_on channel=1 note=58 velocity=64 time=0
EXTRACT: note_on channel=0 note=63 velocity=0 time=0.1859379958333333
EXTRACT: note_on channel=1 note=70 velocity=0 time=0
EXTRACT: note_on channel=0 note=63 velocity=80 time=0.0015625041666666665
EXTRACT: note_on channel=1 note=63 velocity=64 time=0
EXTRACT: note_on channel=1 note=63 velocity=0 time=0.1765629708333333
EXTRACT: note_on channel=0 note=63 velocity=0 time=0.009375024999999999
EXTRACT: note_on channel=0 note=62 velocity=80 time=0.0015625041666666665
EXTRACT: note_on channel=1 note=70 velocity=64 time=0
EXTRACT: note_on channel=1 note=70 velocity=0 time=0.1765629708333333
EXTRACT: note_on channel=0 note=62 velocity=0 time=0.009375024999999999
EXTRACT: note_on channel=0 note=63 velocity=80 time=0.0015625041666666665
EXTRACT: note_on channel=1 note=63 velocity=64 time=0
EXTRACT: note_on channel=1 note=63 velocity=0 time=0.1765629708333333
EXTRACT: note_on channel=1 note=60 velocity=64 time=0.010937529166666666
EXTRACT: note_on channel=1 note=60 velocity=0 time=0.1765629708333333
EXTRACT: note_on channel=0 note=63 velocity=0 time=0.009375024999999999
EXTRACT: note_on channel=0 note=63 velocity=80 time=0.0015625041666666665
EXTRACT: note_on channel=1 note=63 velocity=64 time=0
EXTRACT: note_on channel=1 note=63 velocity=0 time=0.1765629708333333
EXTRACT: note_on channel=0 note=63 velocity=0 time=0.009375024999999999
EXTRACT: note_on channel=0 note=65 velocity=80 time=0.0015625041666666665
EXTRACT: note_on channel=1 note=60 velocity=64 time=0
EXTRACT: note_on channel=1 note=58 velocity=0 time=0.12031282083333332
EXTRACT: note_on channel=1 note=60 velocity=0 time=0.05625014999999999
EXTRACT: note_on channel=0 note=65 velocity=0 time=0.009375024999999999
EXTRACT: note_on channel=0 note=67 velocity=80 time=0.0015625041666666665
EXTRACT: note_on channel=1 note=63 velocity=76 time=0
EXTRACT: note_on channel=1 note=51 velocity=64 time=0
EXTRACT: note_on channel=1 note=51 velocity=0 time=0.1765629708333333
EXTRACT: note_on channel=1 note=63 velocity=0 time=0.009375024999999999
EXTRACT: note_on channel=1 note=70 velocity=76 time=0.0015625041666666665
EXTRACT: note_on channel=1 note=58 velocity=64 time=0
EXTRACT: note_on channel=1 note=70 velocity=0 time=0.1859379958333333
EXTRACT: note_on channel=1 note=63 velocity=64 time=0.0015625041666666665
EXTRACT: note_on channel=1 note=63 velocity=0 time=0.1765629708333333
EXTRACT: note_on channel=0 note=67 velocity=0 time=0.009375024999999999
EXTRACT: note_on channel=0 note=63 velocity=80 time=0.0015625041666666665
EXTRACT: note_on channel=1 note=70 velocity=64 time=0
EXTRACT: note_on channel=1 note=58 velocity=0 time=0.15781292083333331
EXTRACT: note_on channel=1 note=70 velocity=0 time=0.018750049999999997
EXTRACT: note_on channel=1 note=63 velocity=64 time=0.010937529166666666
EXTRACT: note_on channel=1 note=51 velocity=64 time=0
EXTRACT: note_on channel=1 note=63 velocity=0 time=0.1765629708333333
EXTRACT: note_on channel=1 note=51 velocity=0 time=0
EXTRACT: note_on channel=0 note=63 velocity=0 time=0.009375024999999999
EXTRACT: note_on channel=0 note=60 velocity=80 time=0.0015625041666666665
EXTRACT: note_on channel=1 note=60 velocity=76 time=0
EXTRACT: note_on channel=1 note=44 velocity=64 time=0
EXTRACT: note_on channel=1 note=58 velocity=64 time=0
EXTRACT: control_change channel=1 control=64 value=0 time=0.0015625041666666665
EXTRACT: control_change channel=1 control=64 value=127 time=0.0015625041666666665
EXTRACT: note_on channel=1 note=60 velocity=0 time=0.18281298749999997
EXTRACT: note_on channel=1 note=63 velocity=64 time=0.0015625041666666665
EXTRACT: note_on channel=1 note=63 velocity=0 time=0.1765629708333333
EXTRACT: note_on channel=1 note=60 velocity=64 time=0.010937529166666666
EXTRACT: note_on channel=1 note=44 velocity=0 time=0.15781292083333331
EXTRACT: note_on channel=1 note=58 velocity=0 time=0
EXTRACT: note_on channel=1 note=60 velocity=0 time=0.018750049999999997
EXTRACT: note_on channel=1 note=63 velocity=64 time=0.010937529166666666
EXTRACT: note_on channel=1 note=51 velocity=64 time=0
EXTRACT: note_on channel=1 note=63 velocity=0 time=0.1765629708333333
EXTRACT: note_on channel=1 note=51 velocity=0 time=0
EXTRACT: note_on channel=1 note=70 velocity=76 time=0.010937529166666666
EXTRACT: note_on channel=1 note=58 velocity=64 time=0
EXTRACT: note_on channel=1 note=70 velocity=0 time=0.1859379958333333
EXTRACT: note_on channel=1 note=63 velocity=64 time=0.0015625041666666665
EXTRACT: note_on channel=1 note=63 velocity=0 time=0.1765629708333333
EXTRACT: note_on channel=1 note=70 velocity=64 time=0.010937529166666666
EXTRACT: note_on channel=1 note=70 velocity=0 time=0.1765629708333333
EXTRACT: note_on channel=1 note=63 velocity=64 time=0.010937529166666666
EXTRACT: note_on channel=1 note=63 velocity=0 time=0.1765629708333333
EXTRACT: note_on channel=0 note=60 velocity=0 time=0.009375024999999999
EXTRACT: note_on channel=1 note=60 velocity=64 time=0.0015625041666666665
EXTRACT: note_on channel=1 note=60 velocity=0 time=0.1765629708333333
EXTRACT: note_on channel=1 note=63 velocity=64 time=0.010937529166666666
EXTRACT: note_on channel=1 note=63 velocity=0 time=0.1765629708333333
EXTRACT: note_on channel=1 note=60 velocity=64 time=0.010937529166666666
EXTRACT: note_on channel=1 note=58 velocity=0 time=0.12031282083333332
EXTRACT: note_on channel=1 note=60 velocity=0 time=0.05625014999999999
EXTRACT: note_on channel=1 note=63 velocity=76 time=0.010937529166666666
EXTRACT: note_on channel=1 note=51 velocity=64 time=0
EXTRACT: note_on channel=1 note=51 velocity=0 time=0.1765629708333333
EXTRACT: note_on channel=1 note=63 velocity=0 time=0.009375024999999999
EXTRACT: note_on channel=0 note=63 velocity=80 time=0.0015625041666666665
EXTRACT: note_on channel=1 note=70 velocity=76 time=0
EXTRACT: note_on channel=1 note=58 velocity=64 time=0
EXTRACT: note_on channel=1 note=70 velocity=0 time=0.1859379958333333
EXTRACT: note_on channel=1 note=63 velocity=64 time=0.0015625041666666665
EXTRACT: note_on channel=1 note=63 velocity=0 time=0.1765629708333333
EXTRACT: note_on channel=0 note=63 velocity=0 time=0.009375024999999999
EXTRACT: note_on channel=0 note=63 velocity=80 time=0.0015625041666666665
EXTRACT: note_on channel=1 note=70 velocity=64 time=0
EXTRACT: note_on channel=1 note=70 velocity=0 time=0.1765629708333333
EXTRACT: note_on channel=0 note=63 velocity=0 time=0.009375024999999999
EXTRACT: note_on channel=0 note=63 velocity=80 time=0.0015625041666666665
EXTRACT: note_on channel=1 note=63 velocity=64 time=0
EXTRACT: note_on channel=1 note=58 velocity=0 time=0.1484378958333333
EXTRACT: note_on channel=1 note=63 velocity=0 time=0.028125074999999996
EXTRACT: note_on channel=1 note=60 velocity=76 time=0.010937529166666666
EXTRACT: note_on channel=1 note=41 velocity=64 time=0
EXTRACT: control_change channel=1 control=64 value=0 time=0.0015625041666666665
EXTRACT: control_change channel=1 control=64 value=127 time=0.0015625041666666665
EXTRACT: note_on channel=1 note=60 velocity=0 time=0.18281298749999997
EXTRACT: note_on channel=1 note=63 velocity=64 time=0.0015625041666666665
EXTRACT: note_on channel=1 note=63 velocity=0 time=0.1765629708333333
EXTRACT: note_on channel=0 note=63 velocity=0 time=0.009375024999999999
EXTRACT: note_on channel=0 note=60 velocity=80 time=0.0015625041666666665
EXTRACT: note_on channel=1 note=60 velocity=64 time=0
EXTRACT: note_on channel=1 note=41 velocity=0 time=0.15781292083333331
EXTRACT: note_on channel=1 note=60 velocity=0 time=0.018750049999999997
EXTRACT: note_on channel=1 note=63 velocity=64 time=0.010937529166666666
EXTRACT: note_on channel=1 note=48 velocity=64 time=0
EXTRACT: note_on channel=1 note=63 velocity=0 time=0.1765629708333333
EXTRACT: note_on channel=1 note=48 velocity=0 time=0
EXTRACT: note_on channel=1 note=67 velocity=76 time=0.010937529166666666
EXTRACT: note_on channel=1 note=56 velocity=64 time=0
EXTRACT: note_on channel=1 note=67 velocity=0 time=0.1859379958333333
EXTRACT: note_on channel=1 note=63 velocity=64 time=0.0015625041666666665
EXTRACT: note_on channel=1 note=63 velocity=0 time=0.1765629708333333
EXTRACT: note_on channel=1 note=67 velocity=64 time=0.010937529166666666
EXTRACT: note_on channel=1 note=67 velocity=0 time=0.1765629708333333
EXTRACT: note_on channel=1 note=63 velocity=64 time=0.010937529166666666
EXTRACT: note_on channel=1 note=63 velocity=0 time=0.1765629708333333
EXTRACT: note_on channel=0 note=60 velocity=0 time=0.009375024999999999
EXTRACT: note_on channel=1 note=60 velocity=64 time=0.0015625041666666665
EXTRACT: note_on channel=1 note=60 velocity=0 time=0.1765629708333333
EXTRACT: note_on channel=1 note=63 velocity=64 time=0.010937529166666666
EXTRACT: note_on channel=1 note=63 velocity=0 time=0.1765629708333333
EXTRACT: note_on channel=1 note=60 velocity=64 time=0.010937529166666666
EXTRACT: note_on channel=1 note=56 velocity=0 time=0.12031282083333332
EXTRACT: note_on channel=1 note=60 velocity=0 time=0.05625014999999999
EXTRACT: note_on channel=0 note=63 velocity=80 time=0.010937529166666666
EXTRACT: note_on channel=1 note=63 velocity=76 time=0
EXTRACT: note_on channel=1 note=48 velocity=64 time=0
EXTRACT: note_on channel=1 note=48 velocity=0 time=0.1765629708333333
EXTRACT: note_on channel=0 note=63 velocity=0 time=0.009375024999999999
EXTRACT: note_on channel=1 note=63 velocity=0 time=0
EXTRACT: note_on channel=0 note=63 velocity=80 time=0.0015625041666666665
EXTRACT: note_on channel=1 note=67 velocity=76 time=0
EXTRACT: note_on channel=1 note=56 velocity=64 time=0
EXTRACT: note_on channel=1 note=67 velocity=0 time=0.1859379958333333
EXTRACT: note_on channel=1 note=63 velocity=64 time=0.0015625041666666665
EXTRACT: note_on channel=0 note=63 velocity=0 time=0.060937662499999996
EXTRACT: note_on channel=0 note=63 velocity=80 time=0.0015625041666666665
EXTRACT: note_on channel=1 note=63 velocity=0 time=0.11406280416666666
EXTRACT: note_on channel=1 note=67 velocity=64 time=0.010937529166666666
EXTRACT: note_on channel=0 note=63 velocity=0 time=0.12343782916666665
EXTRACT: note_on channel=0 note=63 velocity=80 time=0.0015625041666666665
EXTRACT: note_on channel=1 note=67 velocity=0 time=0.051562637499999994
EXTRACT: note_on channel=1 note=63 velocity=64 time=0.010937529166666666
EXTRACT: note_on channel=1 note=56 velocity=0 time=0.1484378958333333
EXTRACT: note_on channel=1 note=63 velocity=0 time=0.028125074999999996
EXTRACT: note_on channel=1 note=60 velocity=76 time=0.010937529166666666
EXTRACT: note_on channel=1 note=44 velocity=64 time=0
EXTRACT: control_change channel=1 control=64 value=0 time=0.0015625041666666665
EXTRACT: control_change channel=1 control=64 value=127 time=0.0015625041666666665
EXTRACT: note_on channel=0 note=63 velocity=0 time=0.18281298749999997
EXTRACT: note_on channel=1 note=60 velocity=0 time=0
EXTRACT: note_on channel=0 note=63 velocity=80 time=0.0015625041666666665
EXTRACT: note_on channel=1 note=63 velocity=64 time=0
EXTRACT: note_on channel=1 note=63 velocity=0 time=0.1765629708333333
EXTRACT: note_on channel=0 note=63 velocity=0 time=0.009375024999999999
EXTRACT: note_on channel=0 note=65 velocity=80 time=0.0015625041666666665
EXTRACT: note_on channel=1 note=60 velocity=64 time=0
EXTRACT: note_on channel=1 note=44 velocity=0 time=0.15781292083333331
EXTRACT: note_on channel=1 note=60 velocity=0 time=0.018750049999999997
EXTRACT: note_on channel=0 note=65 velocity=0 time=0.009375024999999999
EXTRACT: note_on channel=0 note=60 velocity=80 time=0.0015625041666666665
EXTRACT: note_on channel=1 note=63 velocity=64 time=0
EXTRACT: note_on channel=1 note=51 velocity=64 time=0
EXTRACT: note_on channel=1 note=63 velocity=0 time=0.1765629708333333
EXTRACT: note_on channel=1 note=51 velocity=0 time=0
EXTRACT: note_on channel=1 note=68 velocity=76 time=0.010937529166666666
EXTRACT: note_on channel=1 note=56 velocity=64 time=0
EXTRACT: note_on channel=1 note=68 velocity=0 time=0.1859379958333333
EXTRACT: note_on channel=1 note=63 velocity=64 time=0.0015625041666666665
EXTRACT: note_on channel=1 note=63 velocity=0 time=0.1765629708333333
EXTRACT: note_on channel=1 note=68 velocity=64 time=0.010937529166666666
EXTRACT: note_on channel=1 note=68 velocity=0 time=0.1765629708333333
EXTRACT: note_on channel=1 note=63 velocity=64 time=0.010937529166666666
EXTRACT: note_on channel=1 note=63 velocity=0 time=0.1765629708333333
EXTRACT: note_on channel=0 note=60 velocity=0 time=0.009375024999999999
EXTRACT: note_on channel=1 note=60 velocity=64 time=0.0015625041666666665
EXTRACT: note_on channel=1 note=60 velocity=0 time=0.1765629708333333
EXTRACT: note_on channel=1 note=63 velocity=64 time=0.010937529166666666
EXTRACT: note_on channel=1 note=63 velocity=0 time=0.1765629708333333
EXTRACT: note_on channel=1 note=60 velocity=76 time=0.010937529166666666
EXTRACT: note_on channel=1 note=60 velocity=0 time=0.1859379958333333
EXTRACT: note_on channel=1 note=68 velocity=76 time=0.0015625041666666665
EXTRACT: note_on channel=1 note=68 velocity=0 time=0.1859379958333333
EXTRACT: note_on channel=1 note=67 velocity=76 time=0.0015625041666666665
EXTRACT: note_on channel=1 note=67 velocity=0 time=0.1859379958333333
EXTRACT: note_on channel=1 note=60 velocity=64 time=0.0015625041666666665
EXTRACT: note_on channel=1 note=60 velocity=0 time=0.1765629708333333
EXTRACT: note_on channel=1 note=63 velocity=76 time=0.010937529166666666
EXTRACT: note_on channel=1 note=63 velocity=0 time=0.1859379958333333
EXTRACT: note_on channel=1 note=60 velocity=64 time=0.0015625041666666665
EXTRACT: note_on channel=1 note=56 velocity=0 time=0.07343769583333333
EXTRACT: note_on channel=1 note=60 velocity=0 time=0.10312527499999999
EXTRACT: note_on channel=0 note=60 velocity=80 time=0.010937529166666666
EXTRACT: note_on channel=0 note=63 velocity=80 time=0
EXTRACT: note_on channel=1 note=51 velocity=64 time=0
EXTRACT: note_on channel=1 note=56 velocity=64 time=0
EXTRACT: note_on channel=1 note=60 velocity=64 time=0
EXTRACT: note_on channel=1 note=44 velocity=64 time=0
EXTRACT: control_change channel=1 control=64 value=0 time=0.0015625041666666665
EXTRACT: note_on channel=1 note=51 velocity=0 time=0.5312514166666666
EXTRACT: note_on channel=1 note=56 velocity=0 time=0
EXTRACT: note_on channel=1 note=60 velocity=0 time=0
EXTRACT: note_on channel=1 note=44 velocity=0 time=0
EXTRACT: note_on channel=0 note=60 velocity=0 time=0.028125074999999996
EXTRACT: note_on channel=0 note=63 velocity=0 time=0
EXTRACT: note_on channel=0 note=62 velocity=80 time=0.0015625041666666665
EXTRACT: note_on channel=0 note=65 velocity=80 time=0
EXTRACT: note_on channel=1 note=53 velocity=64 time=0
EXTRACT: note_on channel=1 note=56 velocity=64 time=0
EXTRACT: note_on channel=1 note=62 velocity=64 time=0
EXTRACT: note_on channel=1 note=44 velocity=64 time=0
EXTRACT: note_on channel=0 note=65 velocity=0 time=0.1859379958333333
EXTRACT: note_on channel=0 note=65 velocity=80 time=0.0015625041666666665
EXTRACT: note_on channel=1 note=53 velocity=0 time=0.3453134208333333
EXTRACT: note_on channel=1 note=56 velocity=0 time=0
EXTRACT: note_on channel=1 note=62 velocity=0 time=0
EXTRACT: note_on channel=1 note=44 velocity=0 time=0
EXTRACT: note_on channel=0 note=62 velocity=0 time=0.028125074999999996
EXTRACT: note_on channel=0 note=65 velocity=0 time=0
EXTRACT: note_on channel=0 note=63 velocity=80 time=0.0015625041666666665
EXTRACT: note_on channel=0 note=67 velocity=80 time=0
EXTRACT: note_on channel=1 note=55 velocity=64 time=0
EXTRACT: note_on channel=1 note=56 velocity=64 time=0
EXTRACT: note_on channel=1 note=63 velocity=64 time=0
EXTRACT: note_on channel=1 note=44 velocity=64 time=0
EXTRACT: note_on channel=0 note=67 velocity=0 time=0.3734384958333333
EXTRACT: note_on channel=0 note=67 velocity=80 time=0.0015625041666666665
EXTRACT: note_on channel=1 note=55 velocity=0 time=0.15781292083333331
EXTRACT: note_on channel=1 note=56 velocity=0 time=0
EXTRACT: note_on channel=1 note=63 velocity=0 time=0
EXTRACT: note_on channel=0 note=63 velocity=0 time=0.028125074999999996
EXTRACT: note_on channel=0 note=67 velocity=0 time=0
EXTRACT: note_on channel=0 note=65 velocity=80 time=0.0015625041666666665
EXTRACT: note_on channel=0 note=68 velocity=80 time=0
EXTRACT: note_on channel=1 note=56 velocity=64 time=0
EXTRACT: note_on channel=1 note=60 velocity=64 time=0
EXTRACT: note_on channel=1 note=65 velocity=64 time=0
EXTRACT: note_on channel=1 note=44 velocity=0 time=0.5046888458333333
EXTRACT: note_on channel=1 note=56 velocity=0 time=0.028125074999999996
EXTRACT: note_on channel=1 note=60 velocity=0 time=0
EXTRACT: note_on channel=1 note=65 velocity=0 time=0
EXTRACT: note_on channel=0 note=65 velocity=0 time=0.028125074999999996
EXTRACT: note_on channel=0 note=68 velocity=0 time=0
EXTRACT: note_on channel=0 note=63 velocity=80 time=0.0015625041666666665
EXTRACT: note_on channel=0 note=67 velocity=80 time=0
EXTRACT: note_on channel=1 note=56 velocity=64 time=0
EXTRACT: note_on channel=1 note=60 velocity=64 time=0
EXTRACT: note_on channel=1 note=63 velocity=64 time=0
EXTRACT: note_on channel=1 note=44 velocity=64 time=0
EXTRACT: note_on channel=1 note=56 velocity=0 time=0.3546884458333333
EXTRACT: note_on channel=1 note=60 velocity=0 time=0
EXTRACT: note_on channel=1 note=63 velocity=0 time=0
EXTRACT: note_on channel=0 note=63 velocity=0 time=0.018750049999999997
EXTRACT: note_on channel=0 note=67 velocity=0 time=0
EXTRACT: note_on channel=0 note=62 velocity=80 time=0.0015625041666666665
EXTRACT: note_on channel=0 note=65 velocity=80 time=0
EXTRACT: note_on channel=1 note=62 velocity=64 time=0
EXTRACT: note_on channel=0 note=62 velocity=0 time=0.1859379958333333
EXTRACT: note_on channel=0 note=65 velocity=0 time=0
EXTRACT: note_on channel=0 note=60 velocity=80 time=0.0015625041666666665
EXTRACT: note_on channel=0 note=63 velocity=80 time=0
EXTRACT: note_on channel=1 note=44 velocity=0 time=0.1484378958333333
EXTRACT: note_on channel=1 note=62 velocity=0 time=0.018750049999999997
EXTRACT: note_on channel=0 note=60 velocity=0 time=0.018750049999999997
EXTRACT: note_on channel=0 note=63 velocity=0 time=0
EXTRACT: note_on channel=0 note=60 velocity=80 time=0.0015625041666666665
EXTRACT: note_on channel=0 note=63 velocity=80 time=0
EXTRACT: note_on channel=1 note=53 velocity=64 time=0
EXTRACT: note_on channel=1 note=56 velocity=64 time=0
EXTRACT: note_on channel=1 note=60 velocity=64 time=0
EXTRACT: note_on channel=1 note=41 velocity=64 time=0
EXTRACT: note_on channel=1 note=53 velocity=0 time=0.5328139208333332
EXTRACT: note_on channel=1 note=56 velocity=0 time=0
EXTRACT: note_on channel=1 note=60 velocity=0 time=0
EXTRACT: note_on channel=1 note=41 velocity=0 time=0
EXTRACT: note_on channel=0 note=60 velocity=0 time=0.028125074999999996
EXTRACT: note_on channel=0 note=63 velocity=0 time=0
EXTRACT: note_on channel=0 note=62 velocity=80 time=0.0015625041666666665
EXTRACT: note_on channel=0 note=65 velocity=80 time=0
EXTRACT: note_on channel=1 note=55 velocity=64 time=0
EXTRACT: note_on channel=1 note=56 velocity=64 time=0
EXTRACT: note_on channel=1 note=62 velocity=64 time=0
EXTRACT: note_on channel=1 note=41 velocity=64 time=0
EXTRACT: note_on channel=0 note=65 velocity=0 time=0.1859379958333333
EXTRACT: note_on channel=0 note=65 velocity=80 time=0.0015625041666666665
EXTRACT: note_on channel=1 note=55 velocity=0 time=0.3453134208333333
EXTRACT: note_on channel=1 note=56 velocity=0 time=0
EXTRACT: note_on channel=1 note=62 velocity=0 time=0
EXTRACT: note_on channel=1 note=41 velocity=0 time=0
EXTRACT: note_on channel=0 note=62 velocity=0 time=0.028125074999999996
EXTRACT: note_on channel=0 note=65 velocity=0 time=0
EXTRACT: note_on channel=0 note=63 velocity=80 time=0.0015625041666666665
EXTRACT: note_on channel=0 note=67 velocity=80 time=0
EXTRACT: note_on channel=1 note=56 velocity=64 time=0
EXTRACT: note_on channel=1 note=60 velocity=64 time=0
EXTRACT: note_on channel=1 note=63 velocity=64 time=0
EXTRACT: note_on channel=1 note=41 velocity=64 time=0
EXTRACT: note_on channel=0 note=67 velocity=0 time=0.3734384958333333
EXTRACT: note_on channel=0 note=67 velocity=80 time=0.0015625041666666665
EXTRACT: note_on channel=1 note=56 velocity=0 time=0.15781292083333331
EXTRACT: note_on channel=1 note=60 velocity=0 time=0
EXTRACT: note_on channel=1 note=63 velocity=0 time=0
EXTRACT: note_on channel=0 note=63 velocity=0 time=0.028125074999999996
EXTRACT: note_on channel=0 note=67 velocity=0 time=0
EXTRACT: note_on channel=0 note=65 velocity=80 time=0.0015625041666666665
EXTRACT: note_on channel=0 note=68 velocity=80 time=0
EXTRACT: note_on channel=1 note=56 velocity=64 time=0
EXTRACT: note_on channel=1 note=60 velocity=64 time=0
EXTRACT: note_on channel=1 note=65 velocity=64 time=0
EXTRACT: note_on channel=1 note=41 velocity=0 time=0.5046888458333333
EXTRACT: note_on channel=1 note=56 velocity=0 time=0.028125074999999996
EXTRACT: note_on channel=1 note=60 velocity=0 time=0
EXTRACT: note_on channel=1 note=65 velocity=0 time=0
EXTRACT: note_on channel=0 note=65 velocity=0 time=0.028125074999999996
EXTRACT: note_on channel=0 note=68 velocity=0 time=0
EXTRACT: note_on channel=0 note=63 velocity=80 time=0.0015625041666666665
EXTRACT: note_on channel=0 note=67 velocity=80 time=0
EXTRACT: note_on channel=1 note=56 velocity=64 time=0
EXTRACT: note_on channel=1 note=60 velocity=64 time=0
EXTRACT: note_on channel=1 note=63 velocity=64 time=0
EXTRACT: note_on channel=1 note=41 velocity=64 time=0
EXTRACT: note_on channel=1 note=56 velocity=0 time=0.3546884458333333
EXTRACT: note_on channel=1 note=60 velocity=0 time=0
EXTRACT: note_on channel=1 note=63 velocity=0 time=0
EXTRACT: note_on channel=0 note=63 velocity=0 time=0.018750049999999997
EXTRACT: note_on channel=0 note=67 velocity=0 time=0
EXTRACT: note_on channel=0 note=62 velocity=80 time=0.0015625041666666665
EXTRACT: note_on channel=0 note=65 velocity=80 time=0
EXTRACT: note_on channel=1 note=56 velocity=64 time=0
EXTRACT: note_on channel=1 note=60 velocity=64 time=0
EXTRACT: note_on channel=1 note=62 velocity=64 time=0
EXTRACT: note_on channel=0 note=62 velocity=0 time=0.1859379958333333
EXTRACT: note_on channel=0 note=65 velocity=0 time=0
EXTRACT: note_on channel=0 note=60 velocity=80 time=0.0015625041666666665
EXTRACT: note_on channel=0 note=63 velocity=80 time=0
EXTRACT: note_on channel=1 note=41 velocity=0 time=0.1484378958333333
EXTRACT: note_on channel=1 note=56 velocity=0 time=0.018750049999999997
EXTRACT: note_on channel=1 note=60 velocity=0 time=0
EXTRACT: note_on channel=1 note=62 velocity=0 time=0
EXTRACT: note_on channel=0 note=60 velocity=0 time=0.018750049999999997
EXTRACT: note_on channel=0 note=63 velocity=0 time=0
EXTRACT: note_on channel=0 note=60 velocity=80 time=0.0015625041666666665
EXTRACT: note_on channel=0 note=63 velocity=80 time=0
EXTRACT: note_on channel=1 note=51 velocity=64 time=0
EXTRACT: note_on channel=1 note=56 velocity=64 time=0
EXTRACT: note_on channel=1 note=60 velocity=64 time=0
EXTRACT: note_on channel=1 note=44 velocity=64 time=0
EXTRACT: note_on channel=1 note=51 velocity=0 time=0.5328139208333332
EXTRACT: note_on channel=1 note=56 velocity=0 time=0
EXTRACT: note_on channel=1 note=60 velocity=0 time=0
EXTRACT: note_on channel=1 note=44 velocity=0 time=0
EXTRACT: note_on channel=0 note=60 velocity=0 time=0.028125074999999996
EXTRACT: note_on channel=0 note=63 velocity=0 time=0
EXTRACT: note_on channel=0 note=62 velocity=80 time=0.0015625041666666665
EXTRACT: note_on channel=0 note=65 velocity=80 time=0
EXTRACT: note_on channel=1 note=51 velocity=64 time=0
EXTRACT: note_on channel=1 note=56 velocity=64 time=0
EXTRACT: note_on channel=1 note=62 velocity=64 time=0
EXTRACT: note_on channel=1 note=44 velocity=64 time=0
EXTRACT: note_on channel=1 note=44 velocity=0 time=0.1765629708333333
EXTRACT: note_on channel=0 note=65 velocity=0 time=0.009375024999999999
EXTRACT: note_on channel=0 note=65 velocity=80 time=0.0015625041666666665
EXTRACT: note_on channel=1 note=44 velocity=64 time=0
EXTRACT: note_on channel=1 note=51 velocity=0 time=0.3453134208333333
EXTRACT: note_on channel=1 note=56 velocity=0 time=0
EXTRACT: note_on channel=1 note=62 velocity=0 time=0
EXTRACT: note_on channel=1 note=44 velocity=0 time=0.009375024999999999
EXTRACT: note_on channel=0 note=62 velocity=0 time=0.018750049999999997
EXTRACT: note_on channel=0 note=65 velocity=0 time=0
EXTRACT: note_on channel=0 note=63 velocity=80 time=0.0015625041666666665
EXTRACT: note_on channel=0 note=67 velocity=80 time=0
EXTRACT: note_on channel=1 note=51 velocity=64 time=0
EXTRACT: note_on channel=1 note=56 velocity=64 time=0
EXTRACT: note_on channel=1 note=63 velocity=64 time=0
EXTRACT: note_on channel=1 note=44 velocity=64 time=0
EXTRACT: note_on channel=0 note=67 velocity=0 time=0.3734384958333333
EXTRACT: note_on channel=0 note=67 velocity=80 time=0.0015625041666666665
EXTRACT: note_on channel=1 note=51 velocity=0 time=0.3359383958333333
EXTRACT: note_on channel=1 note=56 velocity=0 time=0
EXTRACT: note_on channel=1 note=63 velocity=0 time=0
EXTRACT: note_on channel=0 note=63 velocity=0 time=0.037500099999999995
EXTRACT: note_on channel=0 note=67 velocity=0 time=0
EXTRACT: note_on channel=0 note=58 velocity=80 time=0.0015625041666666665
EXTRACT: note_on channel=0 note=63 velocity=80 time=0
EXTRACT: note_on channel=1 note=51 velocity=64 time=0
EXTRACT: note_on channel=1 note=56 velocity=64 time=0
EXTRACT: note_on channel=1 note=58 velocity=64 time=0
EXTRACT: note_on channel=1 note=44 velocity=0 time=0.6734392958333333
EXTRACT: note_on channel=1 note=51 velocity=0 time=0.037500099999999995
EXTRACT: note_on channel=1 note=56 velocity=0 time=0
EXTRACT: note_on channel=1 note=58 velocity=0 time=0
EXTRACT: note_on channel=0 note=58 velocity=0 time=0.037500099999999995
EXTRACT: note_on channel=0 note=63 velocity=0 time=0
EXTRACT: note_on channel=0 note=62 velocity=80 time=0.0015625041666666665
EXTRACT: note_on channel=0 note=65 velocity=80 time=0
EXTRACT: note_on channel=1 note=53 velocity=64 time=0
EXTRACT: note_on channel=1 note=58 velocity=64 time=0
EXTRACT: note_on channel=1 note=62 velocity=64 time=0
EXTRACT: note_on channel=1 note=46 velocity=64 time=0
EXTRACT: note_on channel=0 note=62 velocity=0 time=1.873442495833333
EXTRACT: note_on channel=0 note=65 velocity=0 time=0
EXTRACT: note_on channel=1 note=53 velocity=0 time=1.153128075
EXTRACT: note_on channel=1 note=58 velocity=0 time=0
EXTRACT: note_on channel=1 note=62 velocity=0 time=0
EXTRACT: note_on channel=0 note=63 velocity=80 time=0.16093792916666666
EXTRACT: note_on channel=1 note=63 velocity=64 time=0
EXTRACT: note_on channel=1 note=46 velocity=0 time=0.01718754583333333
EXTRACT: note_on channel=1 note=63 velocity=0 time=0.159375425
EXTRACT: note_on channel=0 note=63 velocity=0 time=0.009375024999999999
EXTRACT: note_on channel=0 note=70 velocity=80 time=0.0015625041666666665
EXTRACT: note_on channel=1 note=60 velocity=64 time=0
EXTRACT: note_on channel=1 note=63 velocity=64 time=0
EXTRACT: note_on channel=1 note=70 velocity=64 time=0
EXTRACT: note_on channel=1 note=48 velocity=64 time=0
EXTRACT: note_on channel=1 note=60 velocity=0 time=0.5328139208333332
EXTRACT: note_on channel=1 note=63 velocity=0 time=0
EXTRACT: note_on channel=1 note=70 velocity=0 time=0
EXTRACT: note_on channel=0 note=70 velocity=0 time=0.028125074999999996
EXTRACT: note_on channel=0 note=67 velocity=80 time=0.0015625041666666665
EXTRACT: note_on channel=1 note=60 velocity=64 time=0
EXTRACT: note_on channel=1 note=63 velocity=64 time=0
EXTRACT: note_on channel=1 note=67 velocity=64 time=0
EXTRACT: note_on channel=1 note=60 velocity=0 time=0.3546884458333333
EXTRACT: note_on channel=1 note=63 velocity=0 time=0
EXTRACT: note_on channel=1 note=67 velocity=0 time=0
EXTRACT: note_on channel=1 note=60 velocity=64 time=0.020312554166666663
EXTRACT: note_on channel=1 note=60 velocity=0 time=0.1765629708333333
EXTRACT: note_on channel=1 note=63 velocity=64 time=0.010937529166666666
EXTRACT: note_on channel=1 note=63 velocity=0 time=0.1765629708333333
EXTRACT: note_on channel=1 note=60 velocity=64 time=0.010937529166666666
EXTRACT: note_on channel=1 note=48 velocity=0 time=0.11093779583333332
EXTRACT: note_on channel=1 note=60 velocity=0 time=0.065625175
EXTRACT: note_on channel=0 note=67 velocity=0 time=0.009375024999999999
EXTRACT: note_on channel=0 note=70 velocity=80 time=0.0015625041666666665
EXTRACT: note_on channel=1 note=60 velocity=64 time=0
EXTRACT: note_on channel=1 note=63 velocity=64 time=0
EXTRACT: note_on channel=1 note=70 velocity=64 time=0
EXTRACT: note_on channel=1 note=44 velocity=64 time=0
EXTRACT: note_on channel=1 note=60 velocity=0 time=0.5328139208333332
EXTRACT: note_on channel=1 note=63 velocity=0 time=0
EXTRACT: note_on channel=1 note=70 velocity=0 time=0
EXTRACT: note_on channel=0 note=70 velocity=0 time=0.028125074999999996
EXTRACT: note_on channel=0 note=67 velocity=80 time=0.0015625041666666665
EXTRACT: note_on channel=1 note=60 velocity=64 time=0
EXTRACT: note_on channel=1 note=63 velocity=64 time=0
EXTRACT: note_on channel=1 note=67 velocity=64 time=0
EXTRACT: note_on channel=1 note=60 velocity=0 time=0.3546884458333333
EXTRACT: note_on channel=1 note=63 velocity=0 time=0
EXTRACT: note_on channel=1 note=67 velocity=0 time=0
EXTRACT: note_on channel=1 note=60 velocity=64 time=0.020312554166666663
EXTRACT: note_on channel=1 note=60 velocity=0 time=0.1765629708333333
EXTRACT: note_on channel=1 note=63 velocity=64 time=0.010937529166666666
EXTRACT: note_on channel=1 note=63 velocity=0 time=0.1765629708333333
EXTRACT: note_on channel=1 note=60 velocity=64 time=0.010937529166666666
EXTRACT: note_on channel=1 note=44 velocity=0 time=0.11093779583333332
EXTRACT: note_on channel=1 note=60 velocity=0 time=0.065625175
EXTRACT: note_on channel=0 note=67 velocity=0 time=0.009375024999999999
EXTRACT: note_on channel=0 note=67 velocity=80 time=0.0015625041666666665
EXTRACT: note_on channel=1 note=58 velocity=64 time=0
EXTRACT: note_on channel=1 note=63 velocity=64 time=0
EXTRACT: note_on channel=1 note=67 velocity=64 time=0
EXTRACT: note_on channel=1 note=39 velocity=64 time=0
EXTRACT: note_on channel=1 note=58 velocity=0 time=0.3546884458333333
EXTRACT: note_on channel=1 note=63 velocity=0 time=0
EXTRACT: note_on channel=1 note=67 velocity=0 time=0
EXTRACT: note_on channel=0 note=67 velocity=0 time=0.018750049999999997
EXTRACT: note_on channel=0 note=67 velocity=80 time=0.0015625041666666665
EXTRACT: note_on channel=1 note=67 velocity=64 time=0
EXTRACT: note_on channel=1 note=67 velocity=0 time=0.1765629708333333
EXTRACT: note_on channel=0 note=67 velocity=0 time=0.009375024999999999
EXTRACT: note_on channel=0 note=67 velocity=80 time=0.0015625041666666665
EXTRACT: note_on channel=1 note=58 velocity=64 time=0
EXTRACT: note_on channel=1 note=63 velocity=64 time=0
EXTRACT: note_on channel=1 note=67 velocity=64 time=0
EXTRACT: note_on channel=1 note=58 velocity=0 time=0.5328139208333332
EXTRACT: note_on channel=1 note=63 velocity=0 time=0
EXTRACT: note_on channel=1 note=67 velocity=0 time=0
EXTRACT: note_on channel=0 note=67 velocity=0 time=0.028125074999999996
EXTRACT: note_on channel=0 note=65 velocity=80 time=0.0015625041666666665
EXTRACT: note_on channel=1 note=65 velocity=64 time=0
EXTRACT: note_on channel=1 note=65 velocity=0 time=0.1765629708333333
EXTRACT: note_on channel=0 note=65 velocity=0 time=0.009375024999999999
EXTRACT: note_on channel=0 note=68 velocity=80 time=0.0015625041666666665
EXTRACT: note_on channel=1 note=60 velocity=64 time=0
EXTRACT: note_on channel=1 note=63 velocity=64 time=0
EXTRACT: note_on channel=1 note=68 velocity=64 time=0
EXTRACT: note_on channel=1 note=39 velocity=0 time=0.11093779583333332
EXTRACT: note_on channel=1 note=41 velocity=64 time=0.07656270416666666
EXTRACT: note_on channel=1 note=60 velocity=0 time=0.3453134208333333
EXTRACT: note_on channel=1 note=63 velocity=0 time=0
EXTRACT: note_on channel=1 note=68 velocity=0 time=0
EXTRACT: note_on channel=0 note=68 velocity=0 time=0.028125074999999996
EXTRACT: note_on channel=0 note=67 velocity=80 time=0.0015625041666666665
EXTRACT: note_on channel=1 note=60 velocity=64 time=0
EXTRACT: note_on channel=1 note=63 velocity=64 time=0
EXTRACT: note_on channel=1 note=67 velocity=64 time=0
EXTRACT: note_on channel=1 note=60 velocity=0 time=0.3546884458333333
EXTRACT: note_on channel=1 note=63 velocity=0 time=0
EXTRACT: note_on channel=1 note=67 velocity=0 time=0
EXTRACT: note_on channel=0 note=67 velocity=0 time=0.018750049999999997
EXTRACT: note_on channel=0 note=63 velocity=80 time=0.0015625041666666665
EXTRACT: note_on channel=1 note=60 velocity=64 time=0
EXTRACT: note_on channel=1 note=63 velocity=64 time=0
EXTRACT: note_on channel=1 note=41 velocity=0 time=0.31718834583333333
EXTRACT: note_on channel=1 note=60 velocity=0 time=0.037500099999999995
EXTRACT: note_on channel=1 note=63 velocity=0 time=0
EXTRACT: note_on channel=0 note=63 velocity=0 time=0.018750049999999997
EXTRACT: note_on channel=0 note=70 velocity=80 time=0.0015625041666666665
EXTRACT: note_on channel=1 note=60 velocity=64 time=0
EXTRACT: note_on channel=1 note=63 velocity=64 time=0
EXTRACT: note_on channel=1 note=70 velocity=64 time=0
EXTRACT: note_on channel=1 note=48 velocity=64 time=0
EXTRACT: note_on channel=1 note=60 velocity=0 time=0.7109393958333332
EXTRACT: note_on channel=1 note=63 velocity=0 time=0
EXTRACT: note_on channel=1 note=70 velocity=0 time=0
EXTRACT: note_on channel=0 note=70 velocity=0 time=0.037500099999999995
EXTRACT: note_on channel=0 note=67 velocity=80 time=0.0015625041666666665
EXTRACT: note_on channel=1 note=60 velocity=64 time=0
EXTRACT: note_on channel=1 note=63 velocity=64 time=0
EXTRACT: note_on channel=1 note=67 velocity=64 time=0
EXTRACT: note_on channel=1 note=48 velocity=0 time=0.6734392958333333
EXTRACT: note_on channel=1 note=60 velocity=0 time=0.037500099999999995
EXTRACT: note_on channel=1 note=63 velocity=0 time=0
EXTRACT: note_on channel=1 note=67 velocity=0 time=0
EXTRACT: note_on channel=0 note=67 velocity=0 time=0.037500099999999995
EXTRACT: note_on channel=0 note=70 velocity=80 time=0.0015625041666666665
EXTRACT: note_on channel=1 note=60 velocity=64 time=0
EXTRACT: note_on channel=1 note=63 velocity=64 time=0
EXTRACT: note_on channel=1 note=70 velocity=64 time=0
EXTRACT: note_on channel=1 note=44 velocity=64 time=0
EXTRACT: note_on channel=1 note=60 velocity=0 time=0.7109393958333332
EXTRACT: note_on channel=1 note=63 velocity=0 time=0
EXTRACT: note_on channel=1 note=70 velocity=0 time=0
EXTRACT: note_on channel=0 note=70 velocity=0 time=0.037500099999999995
EXTRACT: note_on channel=0 note=67 velocity=80 time=0.0015625041666666665
EXTRACT: note_on channel=1 note=60 velocity=64 time=0
EXTRACT: note_on channel=1 note=63 velocity=64 time=0
EXTRACT: note_on channel=1 note=67 velocity=64 time=0
EXTRACT: note_on channel=1 note=44 velocity=0 time=1.0296902458333332
EXTRACT: note_on channel=1 note=60 velocity=0 time=0.037500099999999995
EXTRACT: note_on channel=1 note=63 velocity=0 time=0
EXTRACT: note_on channel=1 note=67 velocity=0 time=0
EXTRACT: note_on channel=0 note=67 velocity=0 time=0.05625014999999999
EXTRACT: note_on channel=0 note=67 velocity=80 time=0.0015625041666666665
EXTRACT: note_on channel=1 note=58 velocity=64 time=0
EXTRACT: note_on channel=1 note=63 velocity=64 time=0
EXTRACT: note_on channel=1 note=67 velocity=64 time=0
EXTRACT: note_on channel=1 note=39 velocity=64 time=0
EXTRACT: note_on channel=1 note=58 velocity=0 time=0.3546884458333333
EXTRACT: note_on channel=1 note=63 velocity=0 time=0
EXTRACT: note_on channel=1 note=67 velocity=0 time=0
EXTRACT: note_on channel=0 note=67 velocity=0 time=0.018750049999999997
EXTRACT: note_on channel=0 note=67 velocity=80 time=0.0015625041666666665
EXTRACT: note_on channel=1 note=67 velocity=64 time=0
EXTRACT: note_on channel=1 note=67 velocity=0 time=0.1765629708333333
EXTRACT: note_on channel=0 note=67 velocity=0 time=0.009375024999999999
EXTRACT: note_on channel=0 note=67 velocity=80 time=0.0015625041666666665
EXTRACT: note_on channel=1 note=58 velocity=64 time=0
EXTRACT: note_on channel=1 note=63 velocity=64 time=0
EXTRACT: note_on channel=1 note=67 velocity=64 time=0
EXTRACT: note_on channel=1 note=58 velocity=0 time=0.5328139208333332
EXTRACT: note_on channel=1 note=63 velocity=0 time=0
EXTRACT: note_on channel=1 note=67 velocity=0 time=0
EXTRACT: note_on channel=0 note=67 velocity=0 time=0.028125074999999996
EXTRACT: note_on channel=0 note=65 velocity=80 time=0.0015625041666666665
EXTRACT: note_on channel=1 note=65 velocity=64 time=0
EXTRACT: note_on channel=1 note=65 velocity=0 time=0.1765629708333333
EXTRACT: note_on channel=0 note=65 velocity=0 time=0.009375024999999999
EXTRACT: note_on channel=0 note=68 velocity=80 time=0.0015625041666666665
EXTRACT: note_on channel=1 note=60 velocity=64 time=0
EXTRACT: note_on channel=1 note=63 velocity=64 time=0
EXTRACT: note_on channel=1 note=68 velocity=64 time=0
EXTRACT: note_on channel=1 note=39 velocity=0 time=0.11093779583333332
EXTRACT: note_on channel=1 note=41 velocity=64 time=0.07656270416666666
EXTRACT: note_on channel=1 note=60 velocity=0 time=0.3453134208333333
EXTRACT: note_on channel=1 note=63 velocity=0 time=0
EXTRACT: note_on channel=1 note=68 velocity=0 time=0
EXTRACT: note_on channel=0 note=68 velocity=0 time=0.028125074999999996
EXTRACT: note_on channel=0 note=67 velocity=80 time=0.0015625041666666665
EXTRACT: note_on channel=1 note=60 velocity=64 time=0
EXTRACT: note_on channel=1 note=63 velocity=64 time=0
EXTRACT: note_on channel=1 note=67 velocity=64 time=0
EXTRACT: note_on channel=1 note=60 velocity=0 time=0.3546884458333333
EXTRACT: note_on channel=1 note=63 velocity=0 time=0
EXTRACT: note_on channel=1 note=67 velocity=0 time=0
EXTRACT: note_on channel=0 note=67 velocity=0 time=0.018750049999999997
EXTRACT: note_on channel=0 note=60 velocity=80 time=0.0015625041666666665
EXTRACT: note_on channel=0 note=63 velocity=80 time=0
EXTRACT: note_on channel=1 note=60 velocity=64 time=0
EXTRACT: note_on channel=1 note=63 velocity=64 time=0
EXTRACT: note_on channel=1 note=60 velocity=0 time=0.1765629708333333
EXTRACT: note_on channel=1 note=63 velocity=0 time=0
EXTRACT: note_on channel=0 note=60 velocity=0 time=0.009375024999999999
EXTRACT: note_on channel=0 note=63 velocity=0 time=0
EXTRACT: note_on channel=0 note=62 velocity=80 time=0.0015625041666666665
EXTRACT: note_on channel=0 note=65 velocity=80 time=0
EXTRACT: note_on channel=1 note=65 velocity=64 time=0
EXTRACT: note_on channel=1 note=65 velocity=0 time=0.3546884458333333
EXTRACT: note_on channel=0 note=62 velocity=0 time=0.018750049999999997
EXTRACT: note_on channel=0 note=65 velocity=0 time=0
EXTRACT: note_on channel=0 note=63 velocity=80 time=0.0015625041666666665
EXTRACT: note_on channel=0 note=67 velocity=80 time=0
EXTRACT: note_on channel=1 note=60 velocity=64 time=0
EXTRACT: note_on channel=1 note=63 velocity=64 time=0
EXTRACT: note_on channel=1 note=67 velocity=64 time=0
EXTRACT: note_on channel=1 note=41 velocity=0 time=0.11093779583333332
EXTRACT: note_on channel=0 note=63 velocity=0 time=0.07500019999999999
EXTRACT: note_on channel=0 note=63 velocity=80 time=0.0015625041666666665
EXTRACT: note_on channel=1 note=48 velocity=64 time=0
EXTRACT: note_on channel=1 note=60 velocity=0 time=0.3453134208333333
EXTRACT: note_on channel=1 note=63 velocity=0 time=0
EXTRACT: note_on channel=1 note=67 velocity=0 time=0
EXTRACT: note_on channel=0 note=67 velocity=0 time=0.028125074999999996
EXTRACT: note_on channel=0 note=63 velocity=0 time=0
EXTRACT: note_on channel=0 note=63 velocity=80 time=0.0015625041666666665
EXTRACT: note_on channel=0 note=70 velocity=80 time=0
EXTRACT: note_on channel=1 note=60 velocity=64 time=0
EXTRACT: note_on channel=1 note=63 velocity=64 time=0
EXTRACT: note_on channel=1 note=70 velocity=64 time=0
EXTRACT: note_on channel=1 note=60 velocity=0 time=0.3546884458333333
EXTRACT: note_on channel=1 note=63 velocity=0 time=0
EXTRACT: note_on channel=1 note=70 velocity=0 time=0
EXTRACT: note_on channel=1 note=60 velocity=64 time=0.020312554166666663
EXTRACT: note_on channel=1 note=63 velocity=64 time=0
EXTRACT: note_on channel=1 note=70 velocity=64 time=0
EXTRACT: note_on channel=1 note=60 velocity=0 time=0.1765629708333333
EXTRACT: note_on channel=1 note=63 velocity=0 time=0
EXTRACT: note_on channel=1 note=70 velocity=0 time=0
EXTRACT: note_on channel=1 note=60 velocity=64 time=0.010937529166666666
EXTRACT: note_on channel=1 note=63 velocity=64 time=0
EXTRACT: note_on channel=1 note=70 velocity=64 time=0
EXTRACT: note_on channel=1 note=48 velocity=0 time=0.48593879583333327
EXTRACT: note_on channel=1 note=60 velocity=0 time=0.046875125
EXTRACT: note_on channel=1 note=63 velocity=0 time=0
EXTRACT: note_on channel=1 note=70 velocity=0 time=0
EXTRACT: note_on channel=0 note=63 velocity=0 time=0.028125074999999996
EXTRACT: note_on channel=0 note=70 velocity=0 time=0
EXTRACT: note_on channel=1 note=75 velocity=64 time=0.0015625041666666665
EXTRACT: note_on channel=1 note=79 velocity=64 time=0
EXTRACT: note_on channel=1 note=44 velocity=64 time=0
EXTRACT: note_on channel=1 note=75 velocity=0 time=0.23593812916666665
EXTRACT: note_on channel=1 note=79 velocity=0 time=0
EXTRACT: note_on channel=1 note=74 velocity=64 time=0.014062537499999998
EXTRACT: note_on channel=1 note=77 velocity=64 time=0
EXTRACT: note_on channel=1 note=74 velocity=0 time=0.23593812916666665
EXTRACT: note_on channel=1 note=77 velocity=0 time=0
EXTRACT: note_on channel=1 note=72 velocity=64 time=0.014062537499999998
EXTRACT: note_on channel=1 note=75 velocity=64 time=0
EXTRACT: note_on channel=1 note=72 velocity=0 time=0.23593812916666665
EXTRACT: note_on channel=1 note=75 velocity=0 time=0
EXTRACT: note_on channel=1 note=68 velocity=64 time=0.014062537499999998
EXTRACT: note_on channel=1 note=72 velocity=64 time=0
EXTRACT: note_on channel=1 note=68 velocity=0 time=0.23593812916666665
EXTRACT: note_on channel=1 note=72 velocity=0 time=0
EXTRACT: note_on channel=1 note=67 velocity=64 time=0.014062537499999998
EXTRACT: note_on channel=1 note=70 velocity=64 time=0
EXTRACT: note_on channel=1 note=67 velocity=0 time=0.23593812916666665
EXTRACT: note_on channel=1 note=70 velocity=0 time=0
EXTRACT: note_on channel=1 note=65 velocity=64 time=0.014062537499999998
EXTRACT: note_on channel=1 note=68 velocity=64 time=0
EXTRACT: note_on channel=1 note=44 velocity=0 time=0.1734379625
EXTRACT: note_on channel=1 note=65 velocity=0 time=0.06250016666666666
EXTRACT: note_on channel=1 note=68 velocity=0 time=0
EXTRACT: note_on channel=0 note=72 velocity=80 time=0.014062537499999998
EXTRACT: note_on channel=1 note=63 velocity=64 time=0
EXTRACT: note_on channel=1 note=68 velocity=64 time=0
EXTRACT: note_on channel=1 note=72 velocity=64 time=0
EXTRACT: note_on channel=1 note=44 velocity=64 time=0
EXTRACT: note_on channel=1 note=63 velocity=0 time=0.3546884458333333
EXTRACT: note_on channel=1 note=68 velocity=0 time=0
EXTRACT: note_on channel=1 note=72 velocity=0 time=0
EXTRACT: note_on channel=0 note=72 velocity=0 time=0.018750049999999997
EXTRACT: note_on channel=0 note=70 velocity=80 time=0.0015625041666666665
EXTRACT: note_on channel=1 note=70 velocity=64 time=0
EXTRACT: note_on channel=1 note=44 velocity=0 time=0.15781292083333331
EXTRACT: note_on channel=1 note=70 velocity=0 time=0.018750049999999997
EXTRACT: note_on channel=0 note=70 velocity=0 time=0.009375024999999999
EXTRACT: note_on channel=0 note=70 velocity=80 time=0.0015625041666666665
EXTRACT: note_on channel=1 note=63 velocity=64 time=0
EXTRACT: note_on channel=1 note=67 velocity=64 time=0
EXTRACT: note_on channel=1 note=70 velocity=64 time=0
EXTRACT: note_on channel=1 note=41 velocity=64 time=0
EXTRACT: note_on channel=1 note=63 velocity=0 time=0.5328139208333332
EXTRACT: note_on channel=1 note=67 velocity=0 time=0
EXTRACT: note_on channel=1 note=70 velocity=0 time=0
EXTRACT: note_on channel=0 note=70 velocity=0 time=0.028125074999999996
EXTRACT: note_on channel=0 note=67 velocity=80 time=0.0015625041666666665
EXTRACT: note_on channel=1 note=67 velocity=64 time=0
EXTRACT: note_on channel=1 note=41 velocity=0 time=0.1484378958333333
EXTRACT: note_on channel=1 note=67 velocity=0 time=0.028125074999999996
EXTRACT: note_on channel=0 note=67 velocity=0 time=0.009375024999999999
EXTRACT: note_on channel=0 note=67 velocity=80 time=0.0015625041666666665
EXTRACT: note_on channel=1 note=58 velocity=64 time=0
EXTRACT: note_on channel=1 note=63 velocity=64 time=0
EXTRACT: note_on channel=1 note=67 velocity=64 time=0
EXTRACT: note_on channel=1 note=46 velocity=64 time=0
EXTRACT: note_on channel=1 note=58 velocity=0 time=0.3546884458333333
EXTRACT: note_on channel=1 note=63 velocity=0 time=0
EXTRACT: note_on channel=1 note=67 velocity=0 time=0
EXTRACT: note_on channel=1 note=46 velocity=0 time=0
EXTRACT: note_on channel=0 note=67 velocity=0 time=0.018750049999999997
EXTRACT: note_on channel=0 note=65 velocity=80 time=0.0015625041666666665
EXTRACT: note_on channel=1 note=58 velocity=64 time=0
EXTRACT: note_on channel=1 note=62 velocity=64 time=0
EXTRACT: note_on channel=1 note=65 velocity=64 time=0
EXTRACT: note_on channel=1 note=46 velocity=64 time=0
EXTRACT: note_on channel=0 note=65 velocity=0 time=0.1859379958333333
EXTRACT: note_on channel=0 note=63 velocity=80 time=0.0015625041666666665
EXTRACT: note_on channel=1 note=58 velocity=0 time=0.5234388958333333
EXTRACT: note_on channel=1 note=62 velocity=0 time=0
EXTRACT: note_on channel=1 note=65 velocity=0 time=0
EXTRACT: note_on channel=0 note=63 velocity=0 time=0.037500099999999995
EXTRACT: note_on channel=0 note=63 velocity=80 time=0.0015625041666666665
EXTRACT: note_on channel=1 note=63 velocity=64 time=0
EXTRACT: note_on channel=1 note=63 velocity=0 time=0.1765629708333333
EXTRACT: note_on channel=0 note=63 velocity=0 time=0.009375024999999999
EXTRACT: note_on channel=0 note=65 velocity=80 time=0.0015625041666666665
EXTRACT: note_on channel=1 note=65 velocity=64 time=0
EXTRACT: note_on channel=1 note=65 velocity=0 time=0.1765629708333333
EXTRACT: note_on channel=0 note=65 velocity=0 time=0.009375024999999999
EXTRACT: note_on channel=0 note=67 velocity=80 time=0.0015625041666666665
EXTRACT: note_on channel=1 note=67 velocity=64 time=0
EXTRACT: note_on channel=1 note=46 velocity=0 time=0.12031282083333332
EXTRACT: note_on channel=1 note=67 velocity=0 time=0.05625014999999999
EXTRACT: note_on channel=0 note=67 velocity=0 time=0.009375024999999999
EXTRACT: note_on channel=0 note=68 velocity=80 time=0
EXTRACT: note_on channel=1 note=60 velocity=64 time=0
EXTRACT: note_on channel=1 note=65 velocity=64 time=0
EXTRACT: note_on channel=1 note=68 velocity=64 time=0
EXTRACT: note_on channel=1 note=41 velocity=64 time=0
EXTRACT: note_on channel=1 note=60 velocity=0 time=0.5328139208333332
EXTRACT: note_on channel=1 note=65 velocity=0 time=0
EXTRACT: note_on channel=1 note=68 velocity=0 time=0
EXTRACT: note_on channel=1 note=41 velocity=0 time=0
EXTRACT: note_on channel=0 note=68 velocity=0 time=0.028125074999999996
EXTRACT: note_on channel=0 note=67 velocity=80 time=0.0015625041666666665
EXTRACT: note_on channel=1 note=58 velocity=64 time=0
EXTRACT: note_on channel=1 note=63 velocity=64 time=0
EXTRACT: note_on channel=1 note=67 velocity=64 time=0
EXTRACT: note_on channel=1 note=39 velocity=64 time=0
EXTRACT: note_on channel=1 note=58 velocity=0 time=0.5328139208333332
EXTRACT: note_on channel=1 note=63 velocity=0 time=0
EXTRACT: note_on channel=1 note=67 velocity=0 time=0
EXTRACT: note_on channel=1 note=39 velocity=0 time=0
EXTRACT: note_on channel=0 note=67 velocity=0 time=0.028125074999999996
EXTRACT: note_on channel=0 note=63 velocity=80 time=0.0015625041666666665
EXTRACT: note_on channel=1 note=56 velocity=64 time=0
EXTRACT: note_on channel=1 note=60 velocity=64 time=0
EXTRACT: note_on channel=1 note=63 velocity=64 time=0
EXTRACT: note_on channel=1 note=44 velocity=64 time=0
EXTRACT: note_on channel=1 note=56 velocity=0 time=1.4046912458333332
EXTRACT: note_on channel=1 note=60 velocity=0 time=0
EXTRACT: note_on channel=1 note=63 velocity=0 time=0
EXTRACT: note_on channel=0 note=63 velocity=0 time=0.09375025
EXTRACT: note_on channel=1 note=63 velocity=64 time=0.0015625041666666665
EXTRACT: note_on channel=1 note=63 velocity=0 time=0.5328139208333332
EXTRACT: note_on channel=0 note=63 velocity=80 time=0.029687579166666665
EXTRACT: note_on channel=1 note=63 velocity=64 time=0
EXTRACT: note_on channel=1 note=63 velocity=0 time=0.1765629708333333
EXTRACT: note_on channel=0 note=63 velocity=0 time=0.009375024999999999
EXTRACT: note_on channel=0 note=63 velocity=80 time=0.0015625041666666665
EXTRACT: note_on channel=1 note=63 velocity=64 time=0
EXTRACT: note_on channel=1 note=63 velocity=0 time=0.3546884458333333
EXTRACT: note_on channel=0 note=63 velocity=0 time=0.018750049999999997
EXTRACT: note_on channel=0 note=62 velocity=80 time=0.0015625041666666665
EXTRACT: note_on channel=1 note=62 velocity=64 time=0
EXTRACT: note_on channel=1 note=62 velocity=0 time=0.1765629708333333
EXTRACT: note_on channel=0 note=62 velocity=0 time=0.009375024999999999
EXTRACT: note_on channel=0 note=63 velocity=80 time=0.0015625041666666665
EXTRACT: note_on channel=1 note=63 velocity=64 time=0
EXTRACT: note_on channel=1 note=44 velocity=0 time=0.01718754583333333
EXTRACT: note_on channel=0 note=63 velocity=0 time=0.16875045
EXTRACT: note_on channel=0 note=63 velocity=80 time=0.0015625041666666665
EXTRACT: note_on channel=0 note=68 velocity=80 time=0
EXTRACT: note_on channel=1 note=48 velocity=64 time=0
EXTRACT: control_change channel=1 control=64 value=0 time=0.0015625041666666665
EXTRACT: control_change channel=1 control=64 value=127 time=0.0015625041666666665
EXTRACT: control_change channel=1 control=64 value=127 time=0
EXTRACT: note_on channel=1 note=63 velocity=0 time=0.1734379625
EXTRACT: note_on channel=0 note=63 velocity=0 time=0.009375024999999999
EXTRACT: note_on channel=0 note=68 velocity=0 time=0
EXTRACT: note_on channel=0 note=63 velocity=80 time=0.0015625041666666665
EXTRACT: note_on channel=0 note=67 velocity=80 time=0
EXTRACT: note_on channel=1 note=63 velocity=64 time=0
EXTRACT: note_on channel=1 note=63 velocity=0 time=0.1765629708333333
EXTRACT: note_on channel=1 note=60 velocity=64 time=0.010937529166666666
EXTRACT: note_on channel=1 note=60 velocity=0 time=0.1765629708333333
EXTRACT: note_on channel=1 note=63 velocity=64 time=0.010937529166666666
EXTRACT: note_on channel=1 note=48 velocity=0 time=0.1484378958333333
EXTRACT: note_on channel=1 note=63 velocity=0 time=0.028125074999999996
EXTRACT: note_on channel=1 note=70 velocity=76 time=0.010937529166666666
EXTRACT: note_on channel=1 note=58 velocity=64 time=0
EXTRACT: note_on channel=1 note=70 velocity=0 time=0.1859379958333333
EXTRACT: note_on channel=1 note=63 velocity=64 time=0.0015625041666666665
EXTRACT: note_on channel=1 note=63 velocity=0 time=0.1765629708333333
EXTRACT: note_on channel=1 note=70 velocity=64 time=0.010937529166666666
EXTRACT: note_on channel=1 note=70 velocity=0 time=0.1765629708333333
EXTRACT: note_on channel=1 note=63 velocity=64 time=0.010937529166666666
EXTRACT: note_on channel=1 note=63 velocity=0 time=0.1765629708333333
EXTRACT: note_on channel=1 note=60 velocity=64 time=0.010937529166666666
EXTRACT: control_change channel=1 control=64 value=0 time=0.0015625041666666665
EXTRACT: control_change channel=1 control=64 value=127 time=0.0015625041666666665
EXTRACT: note_on channel=1 note=60 velocity=0 time=0.1734379625
EXTRACT: note_on channel=1 note=63 velocity=64 time=0.010937529166666666
EXTRACT: note_on channel=1 note=63 velocity=0 time=0.1765629708333333
EXTRACT: note_on channel=1 note=60 velocity=64 time=0.010937529166666666
EXTRACT: note_on channel=1 note=58 velocity=0 time=0.12031282083333332
EXTRACT: note_on channel=1 note=60 velocity=0 time=0.05625014999999999
EXTRACT: note_on channel=1 note=63 velocity=76 time=0.010937529166666666
EXTRACT: note_on channel=1 note=51 velocity=64 time=0
EXTRACT: note_on channel=1 note=51 velocity=0 time=0.1765629708333333
EXTRACT: note_on channel=1 note=63 velocity=0 time=0.009375024999999999
EXTRACT: note_on channel=1 note=70 velocity=76 time=0.0015625041666666665
EXTRACT: note_on channel=1 note=58 velocity=64 time=0
EXTRACT: note_on channel=1 note=70 velocity=0 time=0.1859379958333333
EXTRACT: note_on channel=1 note=63 velocity=64 time=0.0015625041666666665
EXTRACT: note_on channel=1 note=63 velocity=0 time=0.1765629708333333
EXTRACT: note_on channel=1 note=70 velocity=64 time=0.010937529166666666
EXTRACT: note_on channel=1 note=58 velocity=0 time=0.15781292083333331
EXTRACT: note_on channel=1 note=70 velocity=0 time=0.018750049999999997
EXTRACT: note_on channel=1 note=63 velocity=64 time=0.010937529166666666
EXTRACT: note_on channel=1 note=51 velocity=64 time=0
EXTRACT: note_on channel=1 note=63 velocity=0 time=0.1765629708333333
EXTRACT: note_on channel=1 note=51 velocity=0 time=0
EXTRACT: note_on channel=0 note=63 velocity=0 time=0.009375024999999999
EXTRACT: note_on channel=0 note=67 velocity=0 time=0
EXTRACT: note_on channel=1 note=60 velocity=76 time=0.0015625041666666665
EXTRACT: note_on channel=1 note=44 velocity=64 time=0
EXTRACT: note_on channel=1 note=58 velocity=64 time=0
EXTRACT: control_change channel=1 control=64 value=0 time=0.0015625041666666665
EXTRACT: control_change channel=1 control=64 value=127 time=0.0015625041666666665
EXTRACT: control_change channel=1 control=64 value=127 time=0
EXTRACT: note_on channel=1 note=60 velocity=0 time=0.18281298749999997
EXTRACT: note_on channel=1 note=63 velocity=64 time=0.0015625041666666665
EXTRACT: note_on channel=1 note=63 velocity=0 time=0.1765629708333333
EXTRACT: note_on channel=1 note=60 velocity=64 time=0.010937529166666666
EXTRACT: note_on channel=1 note=44 velocity=0 time=0.15781292083333331
EXTRACT: note_on channel=1 note=58 velocity=0 time=0
EXTRACT: note_on channel=1 note=60 velocity=0 time=0.018750049999999997
EXTRACT: note_on channel=1 note=63 velocity=64 time=0.010937529166666666
EXTRACT: note_on channel=1 note=51 velocity=64 time=0
EXTRACT: note_on channel=1 note=63 velocity=0 time=0.1765629708333333
EXTRACT: note_on channel=1 note=51 velocity=0 time=0
EXTRACT: note_on channel=1 note=70 velocity=76 time=0.010937529166666666
EXTRACT: note_on channel=1 note=58 velocity=64 time=0
EXTRACT: note_on channel=1 note=70 velocity=0 time=0.1859379958333333
EXTRACT: note_on channel=1 note=63 velocity=64 time=0.0015625041666666665
EXTRACT: note_on channel=1 note=63 velocity=0 time=0.1765629708333333
EXTRACT: note_on channel=1 note=70 velocity=64 time=0.010937529166666666
EXTRACT: note_on channel=1 note=70 velocity=0 time=0.1765629708333333
EXTRACT: note_on channel=1 note=63 velocity=64 time=0.010937529166666666
EXTRACT: note_on channel=1 note=63 velocity=0 time=0.1765629708333333
EXTRACT: note_on channel=1 note=60 velocity=64 time=0.010937529166666666
EXTRACT: control_change channel=1 control=64 value=0 time=0.0015625041666666665
EXTRACT: control_change channel=1 control=64 value=0 time=0
EXTRACT: control_change channel=1 control=64 value=127 time=0.0015625041666666665
EXTRACT: note_on channel=1 note=60 velocity=0 time=0.1734379625
EXTRACT: note_on channel=1 note=63 velocity=64 time=0.010937529166666666
EXTRACT: note_on channel=1 note=63 velocity=0 time=0.1765629708333333
EXTRACT: note_on channel=1 note=60 velocity=64 time=0.010937529166666666
EXTRACT: note_on channel=1 note=58 velocity=0 time=0.12031282083333332
EXTRACT: note_on channel=1 note=60 velocity=0 time=0.05625014999999999
EXTRACT: note_on channel=0 note=63 velocity=80 time=0.010937529166666666
EXTRACT: note_on channel=1 note=63 velocity=76 time=0
EXTRACT: note_on channel=1 note=51 velocity=64 time=0
EXTRACT: note_on channel=1 note=51 velocity=0 time=0.1765629708333333
EXTRACT: note_on channel=0 note=63 velocity=0 time=0.009375024999999999
EXTRACT: note_on channel=1 note=63 velocity=0 time=0
EXTRACT: note_on channel=0 note=63 velocity=80 time=0.0015625041666666665
EXTRACT: note_on channel=1 note=70 velocity=76 time=0
EXTRACT: note_on channel=1 note=58 velocity=64 time=0
EXTRACT: note_on channel=1 note=70 velocity=0 time=0.1859379958333333
EXTRACT: note_on channel=1 note=63 velocity=64 time=0.0015625041666666665
EXTRACT: note_on channel=1 note=63 velocity=0 time=0.1765629708333333
EXTRACT: note_on channel=0 note=63 velocity=0 time=0.009375024999999999
EXTRACT: note_on channel=0 note=62 velocity=80 time=0.0015625041666666665
EXTRACT: note_on channel=1 note=70 velocity=64 time=0
EXTRACT: note_on channel=1 note=70 velocity=0 time=0.1765629708333333
EXTRACT: note_on channel=0 note=62 velocity=0 time=0.009375024999999999
EXTRACT: note_on channel=0 note=63 velocity=80 time=0.0015625041666666665
EXTRACT: note_on channel=1 note=63 velocity=64 time=0
EXTRACT: note_on channel=1 note=58 velocity=0 time=0.1484378958333333
EXTRACT: note_on channel=1 note=63 velocity=0 time=0.028125074999999996
EXTRACT: note_on channel=1 note=60 velocity=76 time=0.010937529166666666
EXTRACT: note_on channel=1 note=41 velocity=64 time=0
EXTRACT: control_change channel=1 control=64 value=0 time=0.0015625041666666665
EXTRACT: control_change channel=1 control=64 value=0 time=0
EXTRACT: control_change channel=1 control=64 value=0 time=0
EXTRACT: control_change channel=1 control=64 value=0 time=0
EXTRACT: control_change channel=1 control=64 value=127 time=0.0015625041666666665
EXTRACT: control_change channel=1 control=64 value=127 time=0
EXTRACT: control_change channel=1 control=64 value=127 time=0
EXTRACT: control_change channel=1 control=64 value=127 time=0
EXTRACT: note_on channel=0 note=63 velocity=0 time=0.18281298749999997
EXTRACT: note_on channel=1 note=60 velocity=0 time=0
EXTRACT: note_on channel=0 note=70 velocity=80 time=0.0015625041666666665
EXTRACT: note_on channel=1 note=63 velocity=64 time=0
EXTRACT: note_on channel=1 note=63 velocity=0 time=0.1765629708333333
EXTRACT: note_on channel=1 note=60 velocity=64 time=0.010937529166666666
EXTRACT: note_on channel=1 note=41 velocity=0 time=0.15781292083333331
EXTRACT: note_on channel=1 note=60 velocity=0 time=0.018750049999999997
EXTRACT: note_on channel=1 note=63 velocity=64 time=0.010937529166666666
EXTRACT: note_on channel=1 note=48 velocity=64 time=0
EXTRACT: note_on channel=1 note=63 velocity=0 time=0.1765629708333333
EXTRACT: note_on channel=1 note=48 velocity=0 time=0
EXTRACT: note_on channel=1 note=67 velocity=76 time=0.010937529166666666
EXTRACT: note_on channel=1 note=56 velocity=64 time=0
EXTRACT: note_on channel=1 note=67 velocity=0 time=0.1859379958333333
EXTRACT: note_on channel=1 note=63 velocity=64 time=0.0015625041666666665
EXTRACT: note_on channel=1 note=63 velocity=0 time=0.1765629708333333
EXTRACT: note_on channel=1 note=67 velocity=64 time=0.010937529166666666
EXTRACT: note_on channel=1 note=67 velocity=0 time=0.1765629708333333
EXTRACT: note_on channel=1 note=63 velocity=64 time=0.010937529166666666
EXTRACT: note_on channel=1 note=63 velocity=0 time=0.1765629708333333
EXTRACT: note_on channel=1 note=60 velocity=64 time=0.010937529166666666
EXTRACT: control_change channel=1 control=64 value=0 time=0.0015625041666666665
EXTRACT: control_change channel=1 control=64 value=0 time=0
EXTRACT: control_change channel=1 control=64 value=127 time=0.0015625041666666665
EXTRACT: control_change channel=1 control=64 value=127 time=0
EXTRACT: note_on channel=1 note=60 velocity=0 time=0.1734379625
EXTRACT: note_on channel=1 note=63 velocity=64 time=0.010937529166666666
EXTRACT: note_on channel=1 note=63 velocity=0 time=0.1765629708333333
EXTRACT: note_on channel=1 note=60 velocity=64 time=0.010937529166666666
EXTRACT: note_on channel=1 note=56 velocity=0 time=0.12031282083333332
EXTRACT: note_on channel=1 note=60 velocity=0 time=0.05625014999999999
EXTRACT: note_on channel=1 note=63 velocity=76 time=0.010937529166666666
EXTRACT: note_on channel=1 note=48 velocity=64 time=0
EXTRACT: note_on channel=1 note=48 velocity=0 time=0.1765629708333333
EXTRACT: note_on channel=1 note=63 velocity=0 time=0.009375024999999999
EXTRACT: note_on channel=1 note=67 velocity=76 time=0.0015625041666666665
EXTRACT: note_on channel=1 note=56 velocity=64 time=0
EXTRACT: note_on channel=0 note=70 velocity=0 time=0.1859379958333333
EXTRACT: note_on channel=1 note=67 velocity=0 time=0
EXTRACT: note_on channel=0 note=68 velocity=80 time=0.0015625041666666665
EXTRACT: note_on channel=1 note=63 velocity=64 time=0
EXTRACT: note_on channel=1 note=63 velocity=0 time=0.1765629708333333
EXTRACT: note_on channel=0 note=68 velocity=0 time=0.009375024999999999
EXTRACT: note_on channel=0 note=67 velocity=80 time=0.0015625041666666665
EXTRACT: note_on channel=1 note=67 velocity=64 time=0
EXTRACT: note_on channel=1 note=67 velocity=0 time=0.1765629708333333
EXTRACT: note_on channel=0 note=67 velocity=0 time=0.009375024999999999
EXTRACT: note_on channel=0 note=65 velocity=80 time=0.0015625041666666665
EXTRACT: note_on channel=1 note=63 velocity=64 time=0
EXTRACT: note_on channel=1 note=56 velocity=0 time=0.1484378958333333
EXTRACT: note_on channel=1 note=63 velocity=0 time=0.028125074999999996
EXTRACT: note_on channel=1 note=60 velocity=76 time=0.010937529166666666
EXTRACT: note_on channel=1 note=44 velocity=64 time=0
EXTRACT: control_change channel=1 control=64 value=0 time=0.0015625041666666665
EXTRACT: control_change channel=1 control=64 value=0 time=0
EXTRACT: control_change channel=1 control=64 value=0 time=0
EXTRACT: control_change channel=1 control=64 value=127 time=0.0015625041666666665
EXTRACT: control_change channel=1 control=64 value=127 time=0
EXTRACT: control_change channel=1 control=64 value=127 time=0
EXTRACT: control_change channel=1 control=64 value=127 time=0
EXTRACT: note_on channel=1 note=60 velocity=0 time=0.18281298749999997
EXTRACT: note_on channel=1 note=63 velocity=64 time=0.0015625041666666665
EXTRACT: note_on channel=1 note=63 velocity=0 time=0.1765629708333333
EXTRACT: note_on channel=1 note=60 velocity=64 time=0.010937529166666666
EXTRACT: note_on channel=1 note=44 velocity=0 time=0.15781292083333331
EXTRACT: note_on channel=1 note=60 velocity=0 time=0.018750049999999997
EXTRACT: note_on channel=1 note=63 velocity=64 time=0.010937529166666666
EXTRACT: note_on channel=1 note=51 velocity=64 time=0
EXTRACT: note_on channel=1 note=63 velocity=0 time=0.1765629708333333
EXTRACT: note_on channel=1 note=51 velocity=0 time=0
EXTRACT: note_on channel=1 note=68 velocity=76 time=0.010937529166666666
EXTRACT: note_on channel=1 note=56 velocity=64 time=0
EXTRACT: note_on channel=1 note=68 velocity=0 time=0.1859379958333333
EXTRACT: note_on channel=1 note=63 velocity=64 time=0.0015625041666666665
EXTRACT: note_on channel=1 note=63 velocity=0 time=0.1765629708333333
EXTRACT: note_on channel=0 note=65 velocity=0 time=0.009375024999999999
EXTRACT: note_on channel=0 note=63 velocity=80 time=0.0015625041666666665
EXTRACT: note_on channel=1 note=68 velocity=64 time=0
EXTRACT: note_on channel=1 note=68 velocity=0 time=0.1765629708333333
EXTRACT: note_on channel=1 note=63 velocity=64 time=0.010937529166666666
EXTRACT: note_on channel=1 note=63 velocity=0 time=0.1765629708333333
EXTRACT: note_on channel=1 note=60 velocity=64 time=0.010937529166666666
EXTRACT: note_on channel=1 note=60 velocity=0 time=0.1765629708333333
EXTRACT: note_on channel=1 note=63 velocity=64 time=0.010937529166666666
EXTRACT: note_on channel=1 note=63 velocity=0 time=0.1765629708333333
EXTRACT: note_on channel=1 note=60 velocity=76 time=0.010937529166666666
EXTRACT: note_on channel=1 note=60 velocity=0 time=0.1859379958333333
EXTRACT: note_on channel=1 note=68 velocity=76 time=0.0015625041666666665
EXTRACT: note_on channel=0 note=63 velocity=0 time=0.1859379958333333
EXTRACT: note_on channel=1 note=68 velocity=0 time=0
EXTRACT: note_on channel=1 note=67 velocity=76 time=0.0015625041666666665
EXTRACT: note_on channel=1 note=67 velocity=0 time=0.1859379958333333
EXTRACT: note_on channel=1 note=60 velocity=64 time=0.0015625041666666665
EXTRACT: note_on channel=1 note=60 velocity=0 time=0.1765629708333333
EXTRACT: note_on channel=1 note=63 velocity=76 time=0.010937529166666666
EXTRACT: note_on channel=1 note=63 velocity=0 time=0.1859379958333333
EXTRACT: note_on channel=1 note=60 velocity=64 time=0.0015625041666666665
EXTRACT: note_on channel=1 note=56 velocity=0 time=0.07343769583333333
EXTRACT: note_on channel=1 note=60 velocity=0 time=0.10312527499999999
EXTRACT: note_on channel=1 note=60 velocity=76 time=0.010937529166666666
EXTRACT: note_on channel=1 note=48 velocity=64 time=0
EXTRACT: control_change channel=1 control=64 value=0 time=0.0015625041666666665
EXTRACT: control_change channel=1 control=64 value=0 time=0
EXTRACT: control_change channel=1 control=64 value=127 time=0.0015625041666666665
EXTRACT: note_on channel=1 note=60 velocity=0 time=0.18281298749999997
EXTRACT: note_on channel=1 note=63 velocity=64 time=0.0015625041666666665
EXTRACT: note_on channel=1 note=63 velocity=0 time=0.1765629708333333
EXTRACT: note_on channel=1 note=60 velocity=64 time=0.010937529166666666
EXTRACT: note_on channel=1 note=60 velocity=0 time=0.1765629708333333
EXTRACT: note_on channel=1 note=63 velocity=64 time=0.010937529166666666
EXTRACT: note_on channel=1 note=48 velocity=0 time=0.1484378958333333
EXTRACT: note_on channel=1 note=63 velocity=0 time=0.028125074999999996
EXTRACT: note_on channel=0 note=63 velocity=80 time=0.010937529166666666
EXTRACT: note_on channel=1 note=70 velocity=76 time=0
EXTRACT: note_on channel=1 note=58 velocity=64 time=0
EXTRACT: note_on channel=1 note=70 velocity=0 time=0.1859379958333333
EXTRACT: note_on channel=1 note=63 velocity=64 time=0.0015625041666666665
EXTRACT: note_on channel=1 note=63 velocity=0 time=0.1765629708333333
EXTRACT: note_on channel=0 note=63 velocity=0 time=0.009375024999999999
EXTRACT: note_on channel=0 note=62 velocity=80 time=0.0015625041666666665
EXTRACT: note_on channel=1 note=70 velocity=64 time=0
EXTRACT: note_on channel=1 note=70 velocity=0 time=0.1765629708333333
EXTRACT: note_on channel=0 note=62 velocity=0 time=0.009375024999999999
EXTRACT: note_on channel=0 note=63 velocity=80 time=0.0015625041666666665
EXTRACT: note_on channel=1 note=63 velocity=64 time=0
EXTRACT: note_on channel=1 note=58 velocity=0 time=0.1484378958333333
EXTRACT: note_on channel=1 note=63 velocity=0 time=0.028125074999999996
EXTRACT: note_on channel=1 note=60 velocity=64 time=0.010937529166666666
EXTRACT: note_on channel=1 note=48 velocity=64 time=0
EXTRACT: note_on channel=1 note=60 velocity=0 time=0.1765629708333333
EXTRACT: note_on channel=1 note=63 velocity=64 time=0.010937529166666666
EXTRACT: note_on channel=1 note=63 velocity=0 time=0.1765629708333333
EXTRACT: note_on channel=0 note=63 velocity=0 time=0.009375024999999999
EXTRACT: note_on channel=0 note=62 velocity=80 time=0.0015625041666666665
EXTRACT: note_on channel=1 note=60 velocity=64 time=0
EXTRACT: note_on channel=1 note=48 velocity=0 time=0.15781292083333331
EXTRACT: note_on channel=1 note=60 velocity=0 time=0.018750049999999997
EXTRACT: note_on channel=0 note=62 velocity=0 time=0.009375024999999999
EXTRACT: note_on channel=0 note=63 velocity=80 time=0.0015625041666666665
EXTRACT: note_on channel=1 note=63 velocity=76 time=0
EXTRACT: note_on channel=1 note=55 velocity=64 time=0
EXTRACT: note_on channel=1 note=55 velocity=0 time=0.1765629708333333
EXTRACT: note_on channel=1 note=63 velocity=0 time=0.009375024999999999
EXTRACT: note_on channel=1 note=70 velocity=76 time=0.0015625041666666665
EXTRACT: note_on channel=1 note=58 velocity=64 time=0
EXTRACT: note_on channel=1 note=70 velocity=0 time=0.1859379958333333
EXTRACT: note_on channel=1 note=63 velocity=64 time=0.0015625041666666665
EXTRACT: note_on channel=1 note=63 velocity=0 time=0.1765629708333333
EXTRACT: note_on channel=0 note=63 velocity=0 time=0.009375024999999999
EXTRACT: note_on channel=0 note=62 velocity=80 time=0.0015625041666666665
EXTRACT: note_on channel=1 note=70 velocity=64 time=0
EXTRACT: note_on channel=1 note=58 velocity=0 time=0.15781292083333331
EXTRACT: note_on channel=1 note=70 velocity=0 time=0.018750049999999997
EXTRACT: note_on channel=0 note=62 velocity=0 time=0.009375024999999999
EXTRACT: note_on channel=0 note=63 velocity=80 time=0.0015625041666666665
EXTRACT: note_on channel=1 note=63 velocity=64 time=0
EXTRACT: note_on channel=1 note=51 velocity=64 time=0
EXTRACT: note_on channel=1 note=63 velocity=0 time=0.1765629708333333
EXTRACT: note_on channel=1 note=51 velocity=0 time=0
EXTRACT: note_on channel=1 note=60 velocity=76 time=0.010937529166666666
EXTRACT: note_on channel=1 note=44 velocity=64 time=0
EXTRACT: note_on channel=1 note=58 velocity=64 time=0
EXTRACT: control_change channel=1 control=64 value=0 time=0.0015625041666666665
EXTRACT: control_change channel=1 control=64 value=127 time=0.0015625041666666665
EXTRACT: note_on channel=1 note=60 velocity=0 time=0.18281298749999997
EXTRACT: note_on channel=1 note=63 velocity=64 time=0.0015625041666666665
EXTRACT: note_on channel=1 note=63 velocity=0 time=0.1765629708333333
EXTRACT: note_on channel=1 note=60 velocity=64 time=0.010937529166666666
EXTRACT: note_on channel=1 note=44 velocity=0 time=0.15781292083333331
EXTRACT: note_on channel=1 note=58 velocity=0 time=0
EXTRACT: note_on channel=1 note=60 velocity=0 time=0.018750049999999997
EXTRACT: note_on channel=0 note=63 velocity=0 time=0.009375024999999999
EXTRACT: note_on channel=0 note=65 velocity=80 time=0.0015625041666666665
EXTRACT: note_on channel=1 note=63 velocity=64 time=0
EXTRACT: note_on channel=1 note=51 velocity=64 time=0
EXTRACT: note_on channel=1 note=63 velocity=0 time=0.1765629708333333
EXTRACT: note_on channel=1 note=51 velocity=0 time=0
EXTRACT: note_on channel=1 note=70 velocity=76 time=0.010937529166666666
EXTRACT: note_on channel=1 note=58 velocity=64 time=0
EXTRACT: note_on channel=1 note=70 velocity=0 time=0.1859379958333333
EXTRACT: note_on channel=1 note=63 velocity=64 time=0.0015625041666666665
EXTRACT: note_on channel=1 note=63 velocity=0 time=0.1765629708333333
EXTRACT: note_on channel=1 note=70 velocity=64 time=0.010937529166666666
EXTRACT: note_on channel=1 note=70 velocity=0 time=0.1765629708333333
EXTRACT: note_on channel=1 note=63 velocity=64 time=0.010937529166666666
EXTRACT: note_on channel=1 note=63 velocity=0 time=0.1765629708333333
EXTRACT: note_on channel=0 note=65 velocity=0 time=0.009375024999999999
EXTRACT: note_on channel=1 note=60 velocity=64 time=0.0015625041666666665
EXTRACT: note_on channel=1 note=60 velocity=0 time=0.1765629708333333
EXTRACT: note_on channel=1 note=63 velocity=64 time=0.010937529166666666
EXTRACT: note_on channel=1 note=63 velocity=0 time=0.1765629708333333
EXTRACT: note_on channel=0 note=63 velocity=80 time=0.010937529166666666
EXTRACT: note_on channel=1 note=60 velocity=64 time=0
EXTRACT: note_on channel=1 note=58 velocity=0 time=0.12031282083333332
EXTRACT: note_on channel=1 note=60 velocity=0 time=0.05625014999999999
EXTRACT: note_on channel=0 note=63 velocity=0 time=0.009375024999999999
EXTRACT: note_on channel=0 note=65 velocity=80 time=0.0015625041666666665
EXTRACT: note_on channel=1 note=63 velocity=76 time=0
EXTRACT: note_on channel=1 note=51 velocity=64 time=0
EXTRACT: note_on channel=1 note=51 velocity=0 time=0.1765629708333333
EXTRACT: note_on channel=0 note=65 velocity=0 time=0.009375024999999999
EXTRACT: note_on channel=1 note=63 velocity=0 time=0
EXTRACT: note_on channel=0 note=68 velocity=80 time=0.0015625041666666665
EXTRACT: note_on channel=1 note=70 velocity=76 time=0
EXTRACT: note_on channel=1 note=58 velocity=64 time=0
EXTRACT: note_on channel=0 note=68 velocity=0 time=0.1859379958333333
EXTRACT: note_on channel=1 note=70 velocity=0 time=0
EXTRACT: note_on channel=0 note=67 velocity=80 time=0.0015625041666666665
EXTRACT: note_on channel=1 note=63 velocity=64 time=0
EXTRACT: note_on channel=1 note=63 velocity=0 time=0.1765629708333333
EXTRACT: note_on channel=0 note=67 velocity=0 time=0.009375024999999999
EXTRACT: note_on channel=0 note=65 velocity=80 time=0.0015625041666666665
EXTRACT: note_on channel=1 note=70 velocity=64 time=0
EXTRACT: note_on channel=1 note=70 velocity=0 time=0.1765629708333333
EXTRACT: note_on channel=0 note=65 velocity=0 time=0.009375024999999999
EXTRACT: note_on channel=0 note=63 velocity=80 time=0.0015625041666666665
EXTRACT: note_on channel=1 note=63 velocity=64 time=0
EXTRACT: note_on channel=1 note=58 velocity=0 time=0.1484378958333333
EXTRACT: note_on channel=1 note=63 velocity=0 time=0.028125074999999996
EXTRACT: note_on channel=1 note=60 velocity=76 time=0.010937529166666666
EXTRACT: note_on channel=1 note=41 velocity=64 time=0
EXTRACT: control_change channel=1 control=64 value=0 time=0.0015625041666666665
EXTRACT: control_change channel=1 control=64 value=0 time=0
EXTRACT: control_change channel=1 control=64 value=127 time=0.0015625041666666665
EXTRACT: control_change channel=1 control=64 value=127 time=0
EXTRACT: note_on channel=1 note=60 velocity=0 time=0.18281298749999997
EXTRACT: note_on channel=1 note=63 velocity=64 time=0.0015625041666666665
EXTRACT: note_on channel=1 note=63 velocity=0 time=0.1765629708333333
EXTRACT: note_on channel=1 note=60 velocity=64 time=0.010937529166666666
EXTRACT: note_on channel=1 note=41 velocity=0 time=0.15781292083333331
EXTRACT: note_on channel=1 note=60 velocity=0 time=0.018750049999999997
EXTRACT: note_on channel=1 note=63 velocity=64 time=0.010937529166666666
EXTRACT: note_on channel=1 note=48 velocity=64 time=0
EXTRACT: note_on channel=1 note=63 velocity=0 time=0.1765629708333333
EXTRACT: note_on channel=1 note=48 velocity=0 time=0
EXTRACT: note_on channel=0 note=63 velocity=0 time=0.009375024999999999
EXTRACT: note_on channel=0 note=63 velocity=80 time=0.0015625041666666665
EXTRACT: note_on channel=1 note=67 velocity=76 time=0
EXTRACT: note_on channel=1 note=56 velocity=64 time=0
EXTRACT: note_on channel=0 note=63 velocity=0 time=0.1859379958333333
EXTRACT: note_on channel=1 note=67 velocity=0 time=0
EXTRACT: note_on channel=0 note=63 velocity=80 time=0.0015625041666666665
EXTRACT: note_on channel=1 note=63 velocity=64 time=0
EXTRACT: note_on channel=1 note=63 velocity=0 time=0.1765629708333333
EXTRACT: note_on channel=0 note=63 velocity=0 time=0.009375024999999999
EXTRACT: note_on channel=0 note=62 velocity=80 time=0.0015625041666666665
EXTRACT: note_on channel=1 note=67 velocity=64 time=0
EXTRACT: note_on channel=1 note=67 velocity=0 time=0.1765629708333333
EXTRACT: note_on channel=0 note=62 velocity=0 time=0.009375024999999999
EXTRACT: note_on channel=0 note=63 velocity=80 time=0.0015625041666666665
EXTRACT: note_on channel=1 note=63 velocity=64 time=0
EXTRACT: note_on channel=1 note=63 velocity=0 time=0.1765629708333333
EXTRACT: note_on channel=0 note=63 velocity=0 time=0.009375024999999999
EXTRACT: note_on channel=0 note=63 velocity=80 time=0.0015625041666666665
EXTRACT: note_on channel=1 note=60 velocity=64 time=0
EXTRACT: note_on channel=1 note=60 velocity=0 time=0.1765629708333333
EXTRACT: note_on channel=1 note=63 velocity=64 time=0.010937529166666666
EXTRACT: note_on channel=1 note=63 velocity=0 time=0.1765629708333333
EXTRACT: note_on channel=0 note=63 velocity=0 time=0.009375024999999999
EXTRACT: note_on channel=0 note=65 velocity=80 time=0.0015625041666666665
EXTRACT: note_on channel=1 note=60 velocity=64 time=0
EXTRACT: note_on channel=1 note=56 velocity=0 time=0.12031282083333332
EXTRACT: note_on channel=1 note=60 velocity=0 time=0.05625014999999999
EXTRACT: note_on channel=0 note=65 velocity=0 time=0.009375024999999999
EXTRACT: note_on channel=0 note=67 velocity=80 time=0.0015625041666666665
EXTRACT: note_on channel=1 note=63 velocity=76 time=0
EXTRACT: note_on channel=1 note=48 velocity=64 time=0
EXTRACT: note_on channel=1 note=48 velocity=0 time=0.1765629708333333
EXTRACT: note_on channel=1 note=63 velocity=0 time=0.009375024999999999
EXTRACT: note_on channel=1 note=67 velocity=76 time=0.0015625041666666665
EXTRACT: note_on channel=1 note=56 velocity=64 time=0
EXTRACT: note_on channel=1 note=67 velocity=0 time=0.1859379958333333
EXTRACT: note_on channel=1 note=63 velocity=64 time=0.0015625041666666665
EXTRACT: note_on channel=1 note=63 velocity=0 time=0.1765629708333333
EXTRACT: note_on channel=0 note=67 velocity=0 time=0.009375024999999999
EXTRACT: note_on channel=0 note=63 velocity=80 time=0.0015625041666666665
EXTRACT: note_on channel=1 note=67 velocity=64 time=0
EXTRACT: note_on channel=1 note=67 velocity=0 time=0.1765629708333333
EXTRACT: note_on channel=0 note=63 velocity=0 time=0.009375024999999999
EXTRACT: note_on channel=0 note=60 velocity=80 time=0.0015625041666666665
EXTRACT: note_on channel=1 note=63 velocity=64 time=0
EXTRACT: note_on channel=1 note=56 velocity=0 time=0.1484378958333333
EXTRACT: note_on channel=1 note=63 velocity=0 time=0.028125074999999996
EXTRACT: note_on channel=1 note=60 velocity=76 time=0.010937529166666666
EXTRACT: note_on channel=1 note=44 velocity=64 time=0
EXTRACT: control_change channel=1 control=64 value=0 time=0.0015625041666666665
EXTRACT: control_change channel=1 control=64 value=127 time=0.0015625041666666665
EXTRACT: control_change channel=1 control=64 value=127 time=0
EXTRACT: note_on channel=1 note=60 velocity=0 time=0.18281298749999997
EXTRACT: note_on channel=1 note=63 velocity=64 time=0.0015625041666666665
EXTRACT: note_on channel=1 note=63 velocity=0 time=0.1765629708333333
EXTRACT: note_on channel=1 note=60 velocity=64 time=0.010937529166666666
EXTRACT: note_on channel=1 note=44 velocity=0 time=0.15781292083333331
EXTRACT: note_on channel=1 note=60 velocity=0 time=0.018750049999999997
EXTRACT: note_on channel=1 note=63 velocity=64 time=0.010937529166666666
EXTRACT: note_on channel=1 note=51 velocity=64 time=0
EXTRACT: note_on channel=1 note=63 velocity=0 time=0.1765629708333333
EXTRACT: note_on channel=1 note=51 velocity=0 time=0
EXTRACT: note_on channel=1 note=68 velocity=76 time=0.010937529166666666
EXTRACT: note_on channel=1 note=56 velocity=64 time=0
EXTRACT: note_on channel=1 note=68 velocity=0 time=0.1859379958333333
EXTRACT: note_on channel=1 note=63 velocity=64 time=0.0015625041666666665
EXTRACT: note_on channel=1 note=63 velocity=0 time=0.1765629708333333
EXTRACT: note_on channel=0 note=60 velocity=0 time=0.009375024999999999
EXTRACT: note_on channel=0 note=58 velocity=80 time=0.0015625041666666665
EXTRACT: note_on channel=1 note=68 velocity=64 time=0
EXTRACT: note_on channel=1 note=68 velocity=0 time=0.1765629708333333
EXTRACT: note_on channel=1 note=63 velocity=64 time=0.010937529166666666
EXTRACT: note_on channel=1 note=63 velocity=0 time=0.1765629708333333
EXTRACT: note_on channel=1 note=60 velocity=64 time=0.010937529166666666
EXTRACT: note_on channel=1 note=60 velocity=0 time=0.1765629708333333
EXTRACT: note_on channel=1 note=63 velocity=64 time=0.010937529166666666
EXTRACT: note_on channel=1 note=63 velocity=0 time=0.1765629708333333
EXTRACT: note_on channel=1 note=60 velocity=76 time=0.010937529166666666
EXTRACT: note_on channel=1 note=60 velocity=0 time=0.1859379958333333
EXTRACT: note_on channel=1 note=68 velocity=76 time=0.0015625041666666665
EXTRACT: note_on channel=0 note=58 velocity=0 time=0.1859379958333333
EXTRACT: note_on channel=1 note=68 velocity=0 time=0
EXTRACT: note_on channel=1 note=67 velocity=76 time=0.0015625041666666665
EXTRACT: note_on channel=1 note=67 velocity=0 time=0.1859379958333333
EXTRACT: note_on channel=1 note=60 velocity=64 time=0.0015625041666666665
EXTRACT: note_on channel=1 note=60 velocity=0 time=0.1765629708333333
EXTRACT: note_on channel=1 note=63 velocity=76 time=0.010937529166666666
EXTRACT: note_on channel=1 note=63 velocity=0 time=0.1859379958333333
EXTRACT: note_on channel=1 note=60 velocity=64 time=0.0015625041666666665
EXTRACT: note_on channel=1 note=56 velocity=0 time=0.07343769583333333
EXTRACT: note_on channel=1 note=60 velocity=0 time=0.10312527499999999
EXTRACT: note_on channel=1 note=60 velocity=76 time=0.010937529166666666
EXTRACT: note_on channel=1 note=48 velocity=64 time=0
EXTRACT: control_change channel=1 control=64 value=0 time=0.0015625041666666665
EXTRACT: control_change channel=1 control=64 value=0 time=0
EXTRACT: control_change channel=1 control=64 value=127 time=0.0015625041666666665
EXTRACT: note_on channel=1 note=60 velocity=0 time=0.18281298749999997
EXTRACT: note_on channel=1 note=63 velocity=64 time=0.0015625041666666665
EXTRACT: note_on channel=1 note=63 velocity=0 time=0.1765629708333333
EXTRACT: note_on channel=1 note=60 velocity=64 time=0.010937529166666666
EXTRACT: note_on channel=1 note=60 velocity=0 time=0.1765629708333333
EXTRACT: note_on channel=1 note=63 velocity=64 time=0.010937529166666666
EXTRACT: note_on channel=1 note=48 velocity=0 time=0.1484378958333333
EXTRACT: note_on channel=1 note=63 velocity=0 time=0.028125074999999996
EXTRACT: note_on channel=0 note=67 velocity=80 time=0.010937529166666666
EXTRACT: note_on channel=1 note=70 velocity=76 time=0
EXTRACT: note_on channel=1 note=58 velocity=64 time=0
EXTRACT: note_on channel=0 note=67 velocity=0 time=0.1859379958333333
EXTRACT: note_on channel=1 note=70 velocity=0 time=0
EXTRACT: note_on channel=0 note=67 velocity=80 time=0.0015625041666666665
EXTRACT: note_on channel=1 note=63 velocity=64 time=0
EXTRACT: note_on channel=1 note=63 velocity=0 time=0.1765629708333333
EXTRACT: note_on channel=0 note=67 velocity=0 time=0.009375024999999999
EXTRACT: note_on channel=0 note=67 velocity=80 time=0.0015625041666666665
EXTRACT: note_on channel=1 note=70 velocity=64 time=0
EXTRACT: note_on channel=1 note=70 velocity=0 time=0.1765629708333333
EXTRACT: note_on channel=0 note=67 velocity=0 time=0.009375024999999999
EXTRACT: note_on channel=0 note=67 velocity=80 time=0.0015625041666666665
EXTRACT: note_on channel=1 note=63 velocity=64 time=0
EXTRACT: note_on channel=1 note=63 velocity=0 time=0.1765629708333333
EXTRACT: note_on channel=1 note=60 velocity=64 time=0.010937529166666666
EXTRACT: note_on channel=1 note=60 velocity=0 time=0.1765629708333333
EXTRACT: note_on channel=1 note=63 velocity=64 time=0.010937529166666666
EXTRACT: note_on channel=1 note=63 velocity=0 time=0.1765629708333333
EXTRACT: note_on channel=0 note=67 velocity=0 time=0.009375024999999999
EXTRACT: note_on channel=0 note=67 velocity=80 time=0.0015625041666666665
EXTRACT: note_on channel=1 note=60 velocity=64 time=0
EXTRACT: note_on channel=1 note=58 velocity=0 time=0.12031282083333332
EXTRACT: note_on channel=1 note=60 velocity=0 time=0.05625014999999999
EXTRACT: note_on channel=0 note=67 velocity=0 time=0.009375024999999999
EXTRACT: note_on channel=0 note=70 velocity=80 time=0.0015625041666666665
EXTRACT: note_on channel=1 note=63 velocity=76 time=0
EXTRACT: note_on channel=1 note=51 velocity=64 time=0
EXTRACT: note_on channel=1 note=51 velocity=0 time=0.1765629708333333
EXTRACT: note_on channel=1 note=63 velocity=0 time=0.009375024999999999
EXTRACT: note_on channel=1 note=70 velocity=76 time=0.0015625041666666665
EXTRACT: note_on channel=1 note=58 velocity=64 time=0
EXTRACT: note_on channel=1 note=70 velocity=0 time=0.1859379958333333
EXTRACT: note_on channel=1 note=63 velocity=64 time=0.0015625041666666665
EXTRACT: note_on channel=1 note=63 velocity=0 time=0.1765629708333333
EXTRACT: note_on channel=1 note=70 velocity=64 time=0.010937529166666666
EXTRACT: note_on channel=1 note=58 velocity=0 time=0.15781292083333331
EXTRACT: note_on channel=1 note=70 velocity=0 time=0.018750049999999997
EXTRACT: note_on channel=1 note=63 velocity=64 time=0.010937529166666666
EXTRACT: note_on channel=1 note=51 velocity=64 time=0
EXTRACT: note_on channel=1 note=63 velocity=0 time=0.1765629708333333
EXTRACT: note_on channel=1 note=51 velocity=0 time=0
EXTRACT: note_on channel=1 note=60 velocity=76 time=0.010937529166666666
EXTRACT: note_on channel=1 note=44 velocity=64 time=0
EXTRACT: note_on channel=1 note=58 velocity=64 time=0
EXTRACT: control_change channel=1 control=64 value=0 time=0.0015625041666666665
EXTRACT: control_change channel=1 control=64 value=127 time=0.0015625041666666665
EXTRACT: note_on channel=0 note=70 velocity=0 time=0.18281298749999997
EXTRACT: note_on channel=1 note=60 velocity=0 time=0
EXTRACT: note_on channel=0 note=67 velocity=80 time=0.0015625041666666665
EXTRACT: note_on channel=1 note=63 velocity=64 time=0
EXTRACT: note_on channel=1 note=63 velocity=0 time=0.1765629708333333
EXTRACT: note_on channel=0 note=67 velocity=0 time=0.009375024999999999
EXTRACT: note_on channel=0 note=68 velocity=80 time=0.0015625041666666665
EXTRACT: note_on channel=1 note=60 velocity=64 time=0
EXTRACT: note_on channel=1 note=44 velocity=0 time=0.15781292083333331
EXTRACT: note_on channel=1 note=58 velocity=0 time=0
EXTRACT: note_on channel=1 note=60 velocity=0 time=0.018750049999999997
EXTRACT: note_on channel=0 note=68 velocity=0 time=0.009375024999999999
EXTRACT: note_on channel=0 note=67 velocity=80 time=0.0015625041666666665
EXTRACT: note_on channel=1 note=63 velocity=64 time=0
EXTRACT: note_on channel=1 note=51 velocity=64 time=0
EXTRACT: note_on channel=1 note=63 velocity=0 time=0.1765629708333333
EXTRACT: note_on channel=1 note=51 velocity=0 time=0
EXTRACT: note_on channel=0 note=67 velocity=0 time=0.009375024999999999
EXTRACT: note_on channel=0 note=65 velocity=80 time=0.0015625041666666665
EXTRACT: note_on channel=1 note=70 velocity=76 time=0
EXTRACT: note_on channel=1 note=58 velocity=64 time=0
EXTRACT: note_on channel=0 note=65 velocity=0 time=0.1859379958333333
EXTRACT: note_on channel=1 note=70 velocity=0 time=0
EXTRACT: note_on channel=0 note=63 velocity=80 time=0.0015625041666666665
EXTRACT: note_on channel=1 note=63 velocity=64 time=0
EXTRACT: note_on channel=1 note=63 velocity=0 time=0.1765629708333333
EXTRACT: note_on channel=1 note=70 velocity=64 time=0.010937529166666666
EXTRACT: note_on channel=1 note=70 velocity=0 time=0.1765629708333333
EXTRACT: note_on channel=1 note=63 velocity=64 time=0.010937529166666666
EXTRACT: note_on channel=1 note=63 velocity=0 time=0.1765629708333333
EXTRACT: note_on channel=0 note=63 velocity=0 time=0.009375024999999999
EXTRACT: note_on channel=1 note=60 velocity=64 time=0.0015625041666666665
EXTRACT: note_on channel=1 note=60 velocity=0 time=0.1765629708333333
EXTRACT: note_on channel=1 note=63 velocity=64 time=0.010937529166666666
EXTRACT: note_on channel=1 note=63 velocity=0 time=0.1765629708333333
EXTRACT: note_on channel=1 note=60 velocity=64 time=0.010937529166666666
EXTRACT: note_on channel=1 note=58 velocity=0 time=0.12031282083333332
EXTRACT: note_on channel=1 note=60 velocity=0 time=0.05625014999999999
EXTRACT: note_on channel=0 note=63 velocity=80 time=0.010937529166666666
EXTRACT: note_on channel=1 note=63 velocity=76 time=0
EXTRACT: note_on channel=1 note=51 velocity=64 time=0
EXTRACT: note_on channel=1 note=51 velocity=0 time=0.1765629708333333
EXTRACT: note_on channel=0 note=63 velocity=0 time=0.009375024999999999
EXTRACT: note_on channel=1 note=63 velocity=0 time=0
EXTRACT: note_on channel=0 note=63 velocity=80 time=0.0015625041666666665
EXTRACT: note_on channel=1 note=70 velocity=76 time=0
EXTRACT: note_on channel=1 note=58 velocity=64 time=0
EXTRACT: note_on channel=0 note=63 velocity=0 time=0.1859379958333333
EXTRACT: note_on channel=1 note=70 velocity=0 time=0
EXTRACT: note_on channel=0 note=65 velocity=80 time=0.0015625041666666665
EXTRACT: note_on channel=1 note=63 velocity=64 time=0
EXTRACT: note_on channel=1 note=63 velocity=0 time=0.1765629708333333
EXTRACT: note_on channel=0 note=65 velocity=0 time=0.009375024999999999
EXTRACT: note_on channel=0 note=67 velocity=80 time=0.0015625041666666665
EXTRACT: note_on channel=1 note=70 velocity=64 time=0
EXTRACT: note_on channel=1 note=70 velocity=0 time=0.1765629708333333
EXTRACT: note_on channel=0 note=67 velocity=0 time=0.009375024999999999
EXTRACT: note_on channel=0 note=70 velocity=80 time=0.0015625041666666665
EXTRACT: note_on channel=1 note=63 velocity=64 time=0
EXTRACT: note_on channel=1 note=58 velocity=0 time=0.1484378958333333
EXTRACT: note_on channel=1 note=63 velocity=0 time=0.028125074999999996
EXTRACT: note_on channel=1 note=60 velocity=76 time=0.010937529166666666
EXTRACT: note_on channel=1 note=41 velocity=64 time=0
EXTRACT: control_change channel=1 control=64 value=0 time=0.0015625041666666665
EXTRACT: control_change channel=1 control=64 value=0 time=0
EXTRACT: control_change channel=1 control=64 value=127 time=0.0015625041666666665
EXTRACT: control_change channel=1 control=64 value=127 time=0
EXTRACT: note_on channel=1 note=60 velocity=0 time=0.18281298749999997
EXTRACT: note_on channel=1 note=63 velocity=64 time=0.0015625041666666665
EXTRACT: note_on channel=1 note=63 velocity=0 time=0.1765629708333333
EXTRACT: note_on channel=0 note=70 velocity=0 time=0.009375024999999999
EXTRACT: note_on channel=0 note=63 velocity=80 time=0.0015625041666666665
EXTRACT: note_on channel=1 note=60 velocity=64 time=0
EXTRACT: note_on channel=1 note=41 velocity=0 time=0.15781292083333331
EXTRACT: note_on channel=1 note=60 velocity=0 time=0.018750049999999997
EXTRACT: note_on channel=0 note=63 velocity=0 time=0.009375024999999999
EXTRACT: note_on channel=0 note=65 velocity=80 time=0.0015625041666666665
EXTRACT: note_on channel=1 note=63 velocity=64 time=0
EXTRACT: note_on channel=1 note=48 velocity=64 time=0
EXTRACT: note_on channel=1 note=63 velocity=0 time=0.1765629708333333
EXTRACT: note_on channel=1 note=48 velocity=0 time=0
EXTRACT: note_on channel=1 note=67 velocity=76 time=0.010937529166666666
EXTRACT: note_on channel=1 note=56 velocity=64 time=0
EXTRACT: note_on channel=1 note=67 velocity=0 time=0.1859379958333333
EXTRACT: note_on channel=1 note=63 velocity=64 time=0.0015625041666666665
EXTRACT: note_on channel=1 note=63 velocity=0 time=0.1765629708333333
EXTRACT: note_on channel=0 note=65 velocity=0 time=0.009375024999999999
EXTRACT: note_on channel=0 note=67 velocity=80 time=0.0015625041666666665
EXTRACT: note_on channel=1 note=67 velocity=64 time=0
EXTRACT: note_on channel=1 note=67 velocity=0 time=0.1765629708333333
EXTRACT: note_on channel=0 note=67 velocity=0 time=0.009375024999999999
EXTRACT: note_on channel=0 note=65 velocity=80 time=0.0015625041666666665
EXTRACT: note_on channel=1 note=63 velocity=64 time=0
EXTRACT: note_on channel=1 note=63 velocity=0 time=0.1765629708333333
EXTRACT: note_on channel=0 note=65 velocity=0 time=0.009375024999999999
EXTRACT: note_on channel=0 note=63 velocity=80 time=0.0015625041666666665
EXTRACT: note_on channel=1 note=60 velocity=64 time=0
EXTRACT: note_on channel=1 note=60 velocity=0 time=0.1765629708333333
EXTRACT: note_on channel=0 note=63 velocity=0 time=0.009375024999999999
EXTRACT: note_on channel=0 note=60 velocity=80 time=0.0015625041666666665
EXTRACT: note_on channel=1 note=63 velocity=64 time=0
EXTRACT: note_on channel=1 note=63 velocity=0 time=0.1765629708333333
EXTRACT: note_on channel=1 note=60 velocity=64 time=0.010937529166666666
EXTRACT: note_on channel=1 note=56 velocity=0 time=0.12031282083333332
EXTRACT: note_on channel=1 note=60 velocity=0 time=0.05625014999999999
EXTRACT: note_on channel=1 note=63 velocity=76 time=0.010937529166666666
EXTRACT: note_on channel=1 note=48 velocity=64 time=0
EXTRACT: note_on channel=1 note=48 velocity=0 time=0.1765629708333333
EXTRACT: note_on channel=0 note=60 velocity=0 time=0.009375024999999999
EXTRACT: note_on channel=1 note=63 velocity=0 time=0
EXTRACT: note_on channel=1 note=67 velocity=76 time=0.0015625041666666665
EXTRACT: note_on channel=1 note=56 velocity=64 time=0
EXTRACT: note_on channel=1 note=67 velocity=0 time=0.1859379958333333
EXTRACT: note_on channel=0 note=67 velocity=80 time=0.0015625041666666665
EXTRACT: note_on channel=1 note=63 velocity=64 time=0
EXTRACT: note_on channel=1 note=63 velocity=0 time=0.1765629708333333
EXTRACT: note_on channel=1 note=67 velocity=64 time=0.010937529166666666
EXTRACT: note_on channel=1 note=67 velocity=0 time=0.1765629708333333
EXTRACT: note_on channel=0 note=67 velocity=0 time=0.009375024999999999
EXTRACT: note_on channel=0 note=67 velocity=80 time=0.0015625041666666665
EXTRACT: note_on channel=1 note=63 velocity=64 time=0
EXTRACT: note_on channel=1 note=56 velocity=0 time=0.1484378958333333
EXTRACT: note_on channel=1 note=63 velocity=0 time=0.028125074999999996
EXTRACT: note_on channel=1 note=60 velocity=76 time=0.010937529166666666
EXTRACT: note_on channel=1 note=44 velocity=64 time=0
EXTRACT: control_change channel=1 control=64 value=0 time=0.0015625041666666665
EXTRACT: control_change channel=1 control=64 value=0 time=0
EXTRACT: control_change channel=1 control=64 value=127 time=0.0015625041666666665
EXTRACT: control_change channel=1 control=64 value=127 time=0
EXTRACT: note_on channel=1 note=60 velocity=0 time=0.18281298749999997
EXTRACT: note_on channel=1 note=63 velocity=64 time=0.0015625041666666665
EXTRACT: note_on channel=1 note=63 velocity=0 time=0.1765629708333333
EXTRACT: note_on channel=1 note=60 velocity=64 time=0.010937529166666666
EXTRACT: note_on channel=1 note=44 velocity=0 time=0.15781292083333331
EXTRACT: note_on channel=1 note=60 velocity=0 time=0.018750049999999997
EXTRACT: note_on channel=1 note=63 velocity=64 time=0.010937529166666666
EXTRACT: note_on channel=1 note=51 velocity=64 time=0
EXTRACT: note_on channel=1 note=63 velocity=0 time=0.1765629708333333
EXTRACT: note_on channel=1 note=51 velocity=0 time=0
EXTRACT: note_on channel=1 note=68 velocity=76 time=0.010937529166666666
EXTRACT: note_on channel=1 note=56 velocity=64 time=0
EXTRACT: note_on channel=0 note=67 velocity=0 time=0.1859379958333333
EXTRACT: note_on channel=1 note=68 velocity=0 time=0
EXTRACT: note_on channel=0 note=65 velocity=80 time=0.0015625041666666665
EXTRACT: note_on channel=1 note=63 velocity=64 time=0
EXTRACT: note_on channel=1 note=63 velocity=0 time=0.1765629708333333
EXTRACT: note_on channel=0 note=65 velocity=0 time=0.009375024999999999
EXTRACT: note_on channel=0 note=67 velocity=80 time=0.0015625041666666665
EXTRACT: note_on channel=1 note=68 velocity=64 time=0
EXTRACT: note_on channel=1 note=68 velocity=0 time=0.1765629708333333
EXTRACT: note_on channel=0 note=67 velocity=0 time=0.009375024999999999
EXTRACT: note_on channel=0 note=65 velocity=80 time=0.0015625041666666665
EXTRACT: note_on channel=1 note=63 velocity=64 time=0
EXTRACT: note_on channel=1 note=63 velocity=0 time=0.1765629708333333
EXTRACT: note_on channel=0 note=65 velocity=0 time=0.009375024999999999
EXTRACT: note_on channel=0 note=63 velocity=80 time=0.0015625041666666665
EXTRACT: note_on channel=1 note=60 velocity=64 time=0
EXTRACT: note_on channel=1 note=60 velocity=0 time=0.1765629708333333
EXTRACT: note_on channel=1 note=63 velocity=64 time=0.010937529166666666
EXTRACT: note_on channel=1 note=63 velocity=0 time=0.1765629708333333
EXTRACT: note_on channel=1 note=60 velocity=76 time=0.010937529166666666
EXTRACT: note_on channel=1 note=60 velocity=0 time=0.1859379958333333
EXTRACT: note_on channel=1 note=68 velocity=76 time=0.0015625041666666665
EXTRACT: note_on channel=0 note=63 velocity=0 time=0.1859379958333333
EXTRACT: note_on channel=1 note=68 velocity=0 time=0
EXTRACT: note_on channel=1 note=67 velocity=76 time=0.0015625041666666665
EXTRACT: note_on channel=1 note=67 velocity=0 time=0.1859379958333333
EXTRACT: note_on channel=1 note=60 velocity=64 time=0.0015625041666666665
EXTRACT: note_on channel=1 note=60 velocity=0 time=0.1765629708333333
EXTRACT: note_on channel=1 note=63 velocity=76 time=0.010937529166666666
EXTRACT: note_on channel=1 note=63 velocity=0 time=0.1859379958333333
EXTRACT: note_on channel=1 note=60 velocity=64 time=0.0015625041666666665
EXTRACT: note_on channel=1 note=56 velocity=0 time=0.07343769583333333
EXTRACT: note_on channel=1 note=60 velocity=0 time=0.10312527499999999
EXTRACT: note_on channel=0 note=60 velocity=80 time=0.010937529166666666
EXTRACT: note_on channel=0 note=63 velocity=80 time=0
EXTRACT: note_on channel=1 note=51 velocity=64 time=0
EXTRACT: note_on channel=1 note=56 velocity=64 time=0
EXTRACT: note_on channel=1 note=60 velocity=64 time=0
EXTRACT: note_on channel=1 note=44 velocity=64 time=0
EXTRACT: control_change channel=1 control=64 value=0 time=0.0015625041666666665
EXTRACT: control_change channel=1 control=64 value=127 time=0.0015625041666666665
EXTRACT: note_on channel=1 note=51 velocity=0 time=0.5296889124999999
EXTRACT: note_on channel=1 note=56 velocity=0 time=0
EXTRACT: note_on channel=1 note=60 velocity=0 time=0
EXTRACT: note_on channel=1 note=44 velocity=0 time=0
EXTRACT: note_on channel=0 note=60 velocity=0 time=0.028125074999999996
EXTRACT: note_on channel=0 note=63 velocity=0 time=0
EXTRACT: note_on channel=0 note=62 velocity=80 time=0.0015625041666666665
EXTRACT: note_on channel=0 note=65 velocity=80 time=0
EXTRACT: note_on channel=1 note=53 velocity=64 time=0
EXTRACT: note_on channel=1 note=56 velocity=64 time=0
EXTRACT: note_on channel=1 note=62 velocity=64 time=0
EXTRACT: note_on channel=1 note=44 velocity=64 time=0
EXTRACT: note_on channel=0 note=65 velocity=0 time=0.1859379958333333
EXTRACT: note_on channel=0 note=65 velocity=80 time=0.0015625041666666665
EXTRACT: note_on channel=1 note=53 velocity=0 time=0.3453134208333333
EXTRACT: note_on channel=1 note=56 velocity=0 time=0
EXTRACT: note_on channel=1 note=62 velocity=0 time=0
EXTRACT: note_on channel=1 note=44 velocity=0 time=0
EXTRACT: note_on channel=0 note=62 velocity=0 time=0.028125074999999996
EXTRACT: note_on channel=0 note=65 velocity=0 time=0
EXTRACT: note_on channel=0 note=63 velocity=80 time=0.0015625041666666665
EXTRACT: note_on channel=0 note=67 velocity=80 time=0
EXTRACT: note_on channel=1 note=55 velocity=64 time=0
EXTRACT: note_on channel=1 note=56 velocity=64 time=0
EXTRACT: note_on channel=1 note=63 velocity=64 time=0
EXTRACT: note_on channel=1 note=44 velocity=64 time=0
EXTRACT: note_on channel=0 note=67 velocity=0 time=0.3734384958333333
EXTRACT: note_on channel=0 note=67 velocity=80 time=0.0015625041666666665
EXTRACT: note_on channel=1 note=55 velocity=0 time=0.15781292083333331
EXTRACT: note_on channel=1 note=56 velocity=0 time=0
EXTRACT: note_on channel=1 note=63 velocity=0 time=0
EXTRACT: note_on channel=0 note=63 velocity=0 time=0.028125074999999996
EXTRACT: note_on channel=0 note=67 velocity=0 time=0
EXTRACT: note_on channel=0 note=65 velocity=80 time=0.0015625041666666665
EXTRACT: note_on channel=0 note=68 velocity=80 time=0
EXTRACT: note_on channel=1 note=56 velocity=64 time=0
EXTRACT: note_on channel=1 note=60 velocity=64 time=0
EXTRACT: note_on channel=1 note=65 velocity=64 time=0
EXTRACT: note_on channel=1 note=44 velocity=0 time=0.5046888458333333
EXTRACT: note_on channel=1 note=56 velocity=0 time=0.028125074999999996
EXTRACT: note_on channel=1 note=60 velocity=0 time=0
EXTRACT: note_on channel=1 note=65 velocity=0 time=0
EXTRACT: note_on channel=0 note=65 velocity=0 time=0.028125074999999996
EXTRACT: note_on channel=0 note=68 velocity=0 time=0
EXTRACT: note_on channel=0 note=63 velocity=80 time=0.0015625041666666665
EXTRACT: note_on channel=0 note=67 velocity=80 time=0
EXTRACT: note_on channel=1 note=56 velocity=64 time=0
EXTRACT: note_on channel=1 note=60 velocity=64 time=0
EXTRACT: note_on channel=1 note=63 velocity=64 time=0
EXTRACT: note_on channel=1 note=44 velocity=64 time=0
EXTRACT: note_on channel=1 note=56 velocity=0 time=0.3546884458333333
EXTRACT: note_on channel=1 note=60 velocity=0 time=0
EXTRACT: note_on channel=1 note=63 velocity=0 time=0
EXTRACT: note_on channel=0 note=63 velocity=0 time=0.018750049999999997
EXTRACT: note_on channel=0 note=67 velocity=0 time=0
EXTRACT: note_on channel=0 note=62 velocity=80 time=0.0015625041666666665
EXTRACT: note_on channel=0 note=65 velocity=80 time=0
EXTRACT: note_on channel=1 note=62 velocity=64 time=0
EXTRACT: note_on channel=0 note=62 velocity=0 time=0.1859379958333333
EXTRACT: note_on channel=0 note=65 velocity=0 time=0
EXTRACT: note_on channel=0 note=60 velocity=80 time=0.0015625041666666665
EXTRACT: note_on channel=0 note=63 velocity=80 time=0
EXTRACT: note_on channel=1 note=44 velocity=0 time=0.1484378958333333
EXTRACT: note_on channel=1 note=62 velocity=0 time=0.018750049999999997
EXTRACT: note_on channel=0 note=60 velocity=0 time=0.018750049999999997
EXTRACT: note_on channel=0 note=63 velocity=0 time=0
EXTRACT: note_on channel=0 note=60 velocity=80 time=0.0015625041666666665
EXTRACT: note_on channel=0 note=63 velocity=80 time=0
EXTRACT: note_on channel=1 note=53 velocity=64 time=0
EXTRACT: note_on channel=1 note=56 velocity=64 time=0
EXTRACT: note_on channel=1 note=60 velocity=64 time=0
EXTRACT: note_on channel=1 note=41 velocity=64 time=0
EXTRACT: control_change channel=1 control=64 value=0 time=0.0015625041666666665
EXTRACT: control_change channel=1 control=64 value=127 time=0.0015625041666666665
EXTRACT: note_on channel=1 note=53 velocity=0 time=0.5296889124999999
EXTRACT: note_on channel=1 note=56 velocity=0 time=0
EXTRACT: note_on channel=1 note=60 velocity=0 time=0
EXTRACT: note_on channel=1 note=41 velocity=0 time=0
EXTRACT: note_on channel=0 note=60 velocity=0 time=0.028125074999999996
EXTRACT: note_on channel=0 note=63 velocity=0 time=0
EXTRACT: note_on channel=0 note=62 velocity=80 time=0.0015625041666666665
EXTRACT: note_on channel=0 note=65 velocity=80 time=0
EXTRACT: note_on channel=1 note=55 velocity=64 time=0
EXTRACT: note_on channel=1 note=56 velocity=64 time=0
EXTRACT: note_on channel=1 note=62 velocity=64 time=0
EXTRACT: note_on channel=1 note=41 velocity=64 time=0
EXTRACT: note_on channel=0 note=65 velocity=0 time=0.1859379958333333
EXTRACT: note_on channel=0 note=65 velocity=80 time=0.0015625041666666665
EXTRACT: note_on channel=1 note=55 velocity=0 time=0.3453134208333333
EXTRACT: note_on channel=1 note=56 velocity=0 time=0
EXTRACT: note_on channel=1 note=62 velocity=0 time=0
EXTRACT: note_on channel=1 note=41 velocity=0 time=0
EXTRACT: note_on channel=0 note=62 velocity=0 time=0.028125074999999996
EXTRACT: note_on channel=0 note=65 velocity=0 time=0
EXTRACT: note_on channel=0 note=63 velocity=80 time=0.0015625041666666665
EXTRACT: note_on channel=0 note=67 velocity=80 time=0
EXTRACT: note_on channel=1 note=56 velocity=64 time=0
EXTRACT: note_on channel=1 note=60 velocity=64 time=0
EXTRACT: note_on channel=1 note=63 velocity=64 time=0
EXTRACT: note_on channel=1 note=41 velocity=64 time=0
EXTRACT: note_on channel=0 note=67 velocity=0 time=0.3734384958333333
EXTRACT: note_on channel=0 note=67 velocity=80 time=0.0015625041666666665
EXTRACT: note_on channel=1 note=56 velocity=0 time=0.15781292083333331
EXTRACT: note_on channel=1 note=60 velocity=0 time=0
EXTRACT: note_on channel=1 note=63 velocity=0 time=0
EXTRACT: note_on channel=0 note=63 velocity=0 time=0.028125074999999996
EXTRACT: note_on channel=0 note=67 velocity=0 time=0
EXTRACT: note_on channel=0 note=65 velocity=80 time=0.0015625041666666665
EXTRACT: note_on channel=0 note=68 velocity=80 time=0
EXTRACT: note_on channel=1 note=56 velocity=64 time=0
EXTRACT: note_on channel=1 note=60 velocity=64 time=0
EXTRACT: note_on channel=1 note=65 velocity=64 time=0
EXTRACT: note_on channel=1 note=41 velocity=0 time=0.5046888458333333
EXTRACT: note_on channel=1 note=56 velocity=0 time=0.028125074999999996
EXTRACT: note_on channel=1 note=60 velocity=0 time=0
EXTRACT: note_on channel=1 note=65 velocity=0 time=0
EXTRACT: note_on channel=0 note=65 velocity=0 time=0.028125074999999996
EXTRACT: note_on channel=0 note=68 velocity=0 time=0
EXTRACT: note_on channel=0 note=63 velocity=80 time=0.0015625041666666665
EXTRACT: note_on channel=0 note=67 velocity=80 time=0
EXTRACT: note_on channel=1 note=56 velocity=64 time=0
EXTRACT: note_on channel=1 note=60 velocity=64 time=0
EXTRACT: note_on channel=1 note=63 velocity=64 time=0
EXTRACT: note_on channel=1 note=41 velocity=64 time=0
EXTRACT: note_on channel=1 note=56 velocity=0 time=0.3546884458333333
EXTRACT: note_on channel=1 note=60 velocity=0 time=0
EXTRACT: note_on channel=1 note=63 velocity=0 time=0
EXTRACT: note_on channel=0 note=63 velocity=0 time=0.018750049999999997
EXTRACT: note_on channel=0 note=67 velocity=0 time=0
EXTRACT: note_on channel=0 note=62 velocity=80 time=0.0015625041666666665
EXTRACT: note_on channel=0 note=65 velocity=80 time=0
EXTRACT: note_on channel=1 note=56 velocity=64 time=0
EXTRACT: note_on channel=1 note=60 velocity=64 time=0
EXTRACT: note_on channel=1 note=62 velocity=64 time=0
EXTRACT: note_on channel=0 note=62 velocity=0 time=0.1859379958333333
EXTRACT: note_on channel=0 note=65 velocity=0 time=0
EXTRACT: note_on channel=0 note=60 velocity=80 time=0.0015625041666666665
EXTRACT: note_on channel=0 note=63 velocity=80 time=0
EXTRACT: note_on channel=1 note=41 velocity=0 time=0.1484378958333333
EXTRACT: note_on channel=1 note=56 velocity=0 time=0.018750049999999997
EXTRACT: note_on channel=1 note=60 velocity=0 time=0
EXTRACT: note_on channel=1 note=62 velocity=0 time=0
EXTRACT: note_on channel=0 note=60 velocity=0 time=0.018750049999999997
EXTRACT: note_on channel=0 note=63 velocity=0 time=0
EXTRACT: note_on channel=0 note=60 velocity=80 time=0.0015625041666666665
EXTRACT: note_on channel=0 note=63 velocity=80 time=0
EXTRACT: note_on channel=1 note=51 velocity=64 time=0
EXTRACT: note_on channel=1 note=56 velocity=64 time=0
EXTRACT: note_on channel=1 note=60 velocity=64 time=0
EXTRACT: note_on channel=1 note=44 velocity=64 time=0
EXTRACT: control_change channel=1 control=64 value=0 time=0.0015625041666666665
EXTRACT: control_change channel=1 control=64 value=127 time=0.0015625041666666665
EXTRACT: note_on channel=1 note=51 velocity=0 time=0.5296889124999999
EXTRACT: note_on channel=1 note=56 velocity=0 time=0
EXTRACT: note_on channel=1 note=60 velocity=0 time=0
EXTRACT: note_on channel=1 note=44 velocity=0 time=0
EXTRACT: note_on channel=0 note=60 velocity=0 time=0.028125074999999996
EXTRACT: note_on channel=0 note=63 velocity=0 time=0
EXTRACT: note_on channel=0 note=62 velocity=80 time=0.0015625041666666665
EXTRACT: note_on channel=0 note=65 velocity=80 time=0
EXTRACT: note_on channel=1 note=51 velocity=64 time=0
EXTRACT: note_on channel=1 note=56 velocity=64 time=0
EXTRACT: note_on channel=1 note=62 velocity=64 time=0
EXTRACT: note_on channel=1 note=44 velocity=64 time=0
EXTRACT: note_on channel=1 note=44 velocity=0 time=0.1765629708333333
EXTRACT: note_on channel=0 note=65 velocity=0 time=0.009375024999999999
EXTRACT: note_on channel=0 note=65 velocity=80 time=0.0015625041666666665
EXTRACT: note_on channel=1 note=44 velocity=64 time=0
EXTRACT: note_on channel=1 note=51 velocity=0 time=0.3453134208333333
EXTRACT: note_on channel=1 note=56 velocity=0 time=0
EXTRACT: note_on channel=1 note=62 velocity=0 time=0
EXTRACT: note_on channel=1 note=44 velocity=0 time=0.009375024999999999
EXTRACT: note_on channel=0 note=62 velocity=0 time=0.018750049999999997
EXTRACT: note_on channel=0 note=65 velocity=0 time=0
EXTRACT: note_on channel=0 note=63 velocity=80 time=0.0015625041666666665
EXTRACT: note_on channel=0 note=67 velocity=80 time=0
EXTRACT: note_on channel=1 note=51 velocity=64 time=0
EXTRACT: note_on channel=1 note=56 velocity=64 time=0
EXTRACT: note_on channel=1 note=63 velocity=64 time=0
EXTRACT: note_on channel=1 note=44 velocity=64 time=0
EXTRACT: note_on channel=0 note=67 velocity=0 time=0.3734384958333333
EXTRACT: note_on channel=0 note=67 velocity=80 time=0.0015625041666666665
EXTRACT: note_on channel=1 note=51 velocity=0 time=0.3359383958333333
EXTRACT: note_on channel=1 note=56 velocity=0 time=0
EXTRACT: note_on channel=1 note=63 velocity=0 time=0
EXTRACT: note_on channel=0 note=63 velocity=0 time=0.037500099999999995
EXTRACT: note_on channel=0 note=67 velocity=0 time=0
EXTRACT: note_on channel=0 note=58 velocity=80 time=0.0015625041666666665
EXTRACT: note_on channel=0 note=63 velocity=80 time=0
EXTRACT: note_on channel=1 note=51 velocity=64 time=0
EXTRACT: note_on channel=1 note=56 velocity=64 time=0
EXTRACT: note_on channel=1 note=58 velocity=64 time=0
EXTRACT: note_on channel=1 note=44 velocity=0 time=0.6734392958333333
EXTRACT: note_on channel=1 note=51 velocity=0 time=0.037500099999999995
EXTRACT: note_on channel=1 note=56 velocity=0 time=0
EXTRACT: note_on channel=1 note=58 velocity=0 time=0
EXTRACT: note_on channel=0 note=58 velocity=0 time=0.037500099999999995
EXTRACT: note_on channel=0 note=63 velocity=0 time=0
EXTRACT: note_on channel=0 note=62 velocity=80 time=0.0015625041666666665
EXTRACT: note_on channel=0 note=65 velocity=80 time=0
EXTRACT: note_on channel=1 note=53 velocity=64 time=0
EXTRACT: note_on channel=1 note=58 velocity=64 time=0
EXTRACT: note_on channel=1 note=62 velocity=64 time=0
EXTRACT: note_on channel=1 note=46 velocity=64 time=0
EXTRACT: control_change channel=1 control=64 value=0 time=0.3765635041666666
EXTRACT: control_change channel=1 control=64 value=127 time=0.0015625041666666665
EXTRACT: note_on channel=0 note=62 velocity=0 time=1.4953164874999998
EXTRACT: note_on channel=0 note=65 velocity=0 time=0
EXTRACT: note_on channel=1 note=53 velocity=0 time=1.153128075
EXTRACT: note_on channel=1 note=58 velocity=0 time=0
EXTRACT: note_on channel=1 note=62 velocity=0 time=0
EXTRACT: note_on channel=1 note=63 velocity=64 time=0.16093792916666666
EXTRACT: note_on channel=1 note=46 velocity=0 time=0.01718754583333333
EXTRACT: note_on channel=1 note=63 velocity=0 time=0.159375425
EXTRACT: note_on channel=0 note=70 velocity=80 time=0.010937529166666666
EXTRACT: note_on channel=1 note=60 velocity=64 time=0
EXTRACT: note_on channel=1 note=63 velocity=64 time=0
EXTRACT: note_on channel=1 note=70 velocity=64 time=0
EXTRACT: note_on channel=1 note=48 velocity=64 time=0
EXTRACT: control_change channel=1 control=64 value=0 time=0.0015625041666666665
EXTRACT: note_on channel=1 note=60 velocity=0 time=0.5312514166666666
EXTRACT: note_on channel=1 note=63 velocity=0 time=0
EXTRACT: note_on channel=1 note=70 velocity=0 time=0
EXTRACT: note_on channel=0 note=70 velocity=0 time=0.028125074999999996
EXTRACT: note_on channel=0 note=67 velocity=80 time=0.0015625041666666665
EXTRACT: note_on channel=1 note=60 velocity=64 time=0
EXTRACT: note_on channel=1 note=63 velocity=64 time=0
EXTRACT: note_on channel=1 note=67 velocity=64 time=0
EXTRACT: note_on channel=1 note=60 velocity=0 time=0.3546884458333333
EXTRACT: note_on channel=1 note=63 velocity=0 time=0
EXTRACT: note_on channel=1 note=67 velocity=0 time=0
EXTRACT: note_on channel=1 note=60 velocity=64 time=0.020312554166666663
EXTRACT: note_on channel=1 note=60 velocity=0 time=0.1765629708333333
EXTRACT: note_on channel=1 note=63 velocity=64 time=0.010937529166666666
EXTRACT: note_on channel=1 note=63 velocity=0 time=0.1765629708333333
EXTRACT: note_on channel=1 note=60 velocity=64 time=0.010937529166666666
EXTRACT: note_on channel=1 note=48 velocity=0 time=0.11093779583333332
EXTRACT: note_on channel=1 note=60 velocity=0 time=0.065625175
EXTRACT: note_on channel=0 note=67 velocity=0 time=0.009375024999999999
EXTRACT: note_on channel=0 note=70 velocity=80 time=0.0015625041666666665
EXTRACT: note_on channel=1 note=60 velocity=64 time=0
EXTRACT: note_on channel=1 note=63 velocity=64 time=0
EXTRACT: note_on channel=1 note=70 velocity=64 time=0
EXTRACT: note_on channel=1 note=44 velocity=64 time=0
EXTRACT: note_on channel=1 note=60 velocity=0 time=0.5328139208333332
EXTRACT: note_on channel=1 note=63 velocity=0 time=0
EXTRACT: note_on channel=1 note=70 velocity=0 time=0
EXTRACT: note_on channel=0 note=70 velocity=0 time=0.028125074999999996
EXTRACT: note_on channel=0 note=67 velocity=80 time=0.0015625041666666665
EXTRACT: note_on channel=1 note=60 velocity=64 time=0
EXTRACT: note_on channel=1 note=63 velocity=64 time=0
EXTRACT: note_on channel=1 note=67 velocity=64 time=0
EXTRACT: note_on channel=1 note=60 velocity=0 time=0.3546884458333333
EXTRACT: note_on channel=1 note=63 velocity=0 time=0
EXTRACT: note_on channel=1 note=67 velocity=0 time=0
EXTRACT: note_on channel=1 note=60 velocity=64 time=0.020312554166666663
EXTRACT: note_on channel=1 note=60 velocity=0 time=0.1765629708333333
EXTRACT: note_on channel=1 note=63 velocity=64 time=0.010937529166666666
EXTRACT: note_on channel=1 note=63 velocity=0 time=0.1765629708333333
EXTRACT: note_on channel=1 note=60 velocity=64 time=0.010937529166666666
EXTRACT: note_on channel=1 note=44 velocity=0 time=0.11093779583333332
EXTRACT: note_on channel=1 note=60 velocity=0 time=0.065625175
EXTRACT: note_on channel=0 note=67 velocity=0 time=0.009375024999999999
EXTRACT: note_on channel=0 note=67 velocity=80 time=0.0015625041666666665
EXTRACT: note_on channel=1 note=58 velocity=64 time=0
EXTRACT: note_on channel=1 note=63 velocity=64 time=0
EXTRACT: note_on channel=1 note=67 velocity=64 time=0
EXTRACT: note_on channel=1 note=39 velocity=64 time=0
EXTRACT: note_on channel=1 note=58 velocity=0 time=0.3546884458333333
EXTRACT: note_on channel=1 note=63 velocity=0 time=0
EXTRACT: note_on channel=1 note=67 velocity=0 time=0
EXTRACT: note_on channel=0 note=67 velocity=0 time=0.018750049999999997
EXTRACT: note_on channel=0 note=67 velocity=80 time=0.0015625041666666665
EXTRACT: note_on channel=1 note=67 velocity=64 time=0
EXTRACT: note_on channel=1 note=67 velocity=0 time=0.1765629708333333
EXTRACT: note_on channel=0 note=67 velocity=0 time=0.009375024999999999
EXTRACT: note_on channel=0 note=67 velocity=80 time=0.0015625041666666665
EXTRACT: note_on channel=1 note=58 velocity=64 time=0
EXTRACT: note_on channel=1 note=63 velocity=64 time=0
EXTRACT: note_on channel=1 note=67 velocity=64 time=0
EXTRACT: note_on channel=1 note=58 velocity=0 time=0.5328139208333332
EXTRACT: note_on channel=1 note=63 velocity=0 time=0
EXTRACT: note_on channel=1 note=67 velocity=0 time=0
EXTRACT: note_on channel=0 note=67 velocity=0 time=0.028125074999999996
EXTRACT: note_on channel=0 note=65 velocity=80 time=0.0015625041666666665
EXTRACT: note_on channel=1 note=65 velocity=64 time=0
EXTRACT: note_on channel=1 note=65 velocity=0 time=0.1765629708333333
EXTRACT: note_on channel=0 note=65 velocity=0 time=0.009375024999999999
EXTRACT: note_on channel=0 note=68 velocity=80 time=0.0015625041666666665
EXTRACT: note_on channel=1 note=60 velocity=64 time=0
EXTRACT: note_on channel=1 note=63 velocity=64 time=0
EXTRACT: note_on channel=1 note=68 velocity=64 time=0
EXTRACT: note_on channel=1 note=39 velocity=0 time=0.11093779583333332
EXTRACT: note_on channel=1 note=41 velocity=64 time=0.07656270416666666
EXTRACT: note_on channel=1 note=60 velocity=0 time=0.3453134208333333
EXTRACT: note_on channel=1 note=63 velocity=0 time=0
EXTRACT: note_on channel=1 note=68 velocity=0 time=0
EXTRACT: note_on channel=0 note=68 velocity=0 time=0.028125074999999996
EXTRACT: note_on channel=0 note=67 velocity=80 time=0.0015625041666666665
EXTRACT: note_on channel=1 note=60 velocity=64 time=0
EXTRACT: note_on channel=1 note=63 velocity=64 time=0
EXTRACT: note_on channel=1 note=67 velocity=64 time=0
EXTRACT: note_on channel=1 note=60 velocity=0 time=0.3546884458333333
EXTRACT: note_on channel=1 note=63 velocity=0 time=0
EXTRACT: note_on channel=1 note=67 velocity=0 time=0
EXTRACT: note_on channel=0 note=67 velocity=0 time=0.018750049999999997
EXTRACT: note_on channel=0 note=63 velocity=80 time=0.0015625041666666665
EXTRACT: note_on channel=1 note=60 velocity=64 time=0
EXTRACT: note_on channel=1 note=63 velocity=64 time=0
EXTRACT: note_on channel=1 note=41 velocity=0 time=0.31718834583333333
EXTRACT: note_on channel=1 note=60 velocity=0 time=0.037500099999999995
EXTRACT: note_on channel=1 note=63 velocity=0 time=0
EXTRACT: note_on channel=0 note=63 velocity=0 time=0.018750049999999997
EXTRACT: note_on channel=0 note=70 velocity=80 time=0.0015625041666666665
EXTRACT: note_on channel=1 note=60 velocity=64 time=0
EXTRACT: note_on channel=1 note=63 velocity=64 time=0
EXTRACT: note_on channel=1 note=70 velocity=64 time=0
EXTRACT: note_on channel=1 note=48 velocity=64 time=0
EXTRACT: note_on channel=1 note=60 velocity=0 time=0.7109393958333332
EXTRACT: note_on channel=1 note=63 velocity=0 time=0
EXTRACT: note_on channel=1 note=70 velocity=0 time=0
EXTRACT: note_on channel=0 note=70 velocity=0 time=0.037500099999999995
EXTRACT: note_on channel=0 note=67 velocity=80 time=0.0015625041666666665
EXTRACT: note_on channel=1 note=60 velocity=64 time=0
EXTRACT: note_on channel=1 note=63 velocity=64 time=0
EXTRACT: note_on channel=1 note=67 velocity=64 time=0
EXTRACT: note_on channel=1 note=48 velocity=0 time=0.6734392958333333
EXTRACT: note_on channel=1 note=60 velocity=0 time=0.037500099999999995
EXTRACT: note_on channel=1 note=63 velocity=0 time=0
EXTRACT: note_on channel=1 note=67 velocity=0 time=0
EXTRACT: note_on channel=0 note=67 velocity=0 time=0.037500099999999995
EXTRACT: note_on channel=0 note=70 velocity=80 time=0.0015625041666666665
EXTRACT: note_on channel=1 note=60 velocity=64 time=0
EXTRACT: note_on channel=1 note=63 velocity=64 time=0
EXTRACT: note_on channel=1 note=70 velocity=64 time=0
EXTRACT: note_on channel=1 note=44 velocity=64 time=0
EXTRACT: note_on channel=1 note=60 velocity=0 time=0.7109393958333332
EXTRACT: note_on channel=1 note=63 velocity=0 time=0
EXTRACT: note_on channel=1 note=70 velocity=0 time=0
EXTRACT: note_on channel=0 note=70 velocity=0 time=0.037500099999999995
EXTRACT: note_on channel=0 note=67 velocity=80 time=0.0015625041666666665
EXTRACT: note_on channel=1 note=60 velocity=64 time=0
EXTRACT: note_on channel=1 note=63 velocity=64 time=0
EXTRACT: note_on channel=1 note=67 velocity=64 time=0
EXTRACT: note_on channel=1 note=44 velocity=0 time=1.0296902458333332
EXTRACT: note_on channel=1 note=60 velocity=0 time=0.037500099999999995
EXTRACT: note_on channel=1 note=63 velocity=0 time=0
EXTRACT: note_on channel=1 note=67 velocity=0 time=0
EXTRACT: note_on channel=0 note=67 velocity=0 time=0.05625014999999999
EXTRACT: note_on channel=0 note=67 velocity=80 time=0.0015625041666666665
EXTRACT: note_on channel=1 note=58 velocity=64 time=0
EXTRACT: note_on channel=1 note=63 velocity=64 time=0
EXTRACT: note_on channel=1 note=67 velocity=64 time=0
EXTRACT: note_on channel=1 note=39 velocity=64 time=0
EXTRACT: note_on channel=1 note=58 velocity=0 time=0.3546884458333333
EXTRACT: note_on channel=1 note=63 velocity=0 time=0
EXTRACT: note_on channel=1 note=67 velocity=0 time=0
EXTRACT: note_on channel=0 note=67 velocity=0 time=0.018750049999999997
EXTRACT: note_on channel=0 note=67 velocity=80 time=0.0015625041666666665
EXTRACT: note_on channel=1 note=67 velocity=64 time=0
EXTRACT: note_on channel=1 note=67 velocity=0 time=0.1765629708333333
EXTRACT: note_on channel=0 note=67 velocity=0 time=0.009375024999999999
EXTRACT: note_on channel=0 note=67 velocity=80 time=0.0015625041666666665
EXTRACT: note_on channel=1 note=58 velocity=64 time=0
EXTRACT: note_on channel=1 note=63 velocity=64 time=0
EXTRACT: note_on channel=1 note=67 velocity=64 time=0
EXTRACT: note_on channel=1 note=58 velocity=0 time=0.5328139208333332
EXTRACT: note_on channel=1 note=63 velocity=0 time=0
EXTRACT: note_on channel=1 note=67 velocity=0 time=0
EXTRACT: note_on channel=0 note=67 velocity=0 time=0.028125074999999996
EXTRACT: note_on channel=0 note=65 velocity=80 time=0.0015625041666666665
EXTRACT: note_on channel=1 note=65 velocity=64 time=0
EXTRACT: note_on channel=1 note=65 velocity=0 time=0.1765629708333333
EXTRACT: note_on channel=0 note=65 velocity=0 time=0.009375024999999999
EXTRACT: note_on channel=0 note=68 velocity=80 time=0.0015625041666666665
EXTRACT: note_on channel=1 note=60 velocity=64 time=0
EXTRACT: note_on channel=1 note=63 velocity=64 time=0
EXTRACT: note_on channel=1 note=68 velocity=64 time=0
EXTRACT: note_on channel=1 note=39 velocity=0 time=0.11093779583333332
EXTRACT: note_on channel=1 note=41 velocity=64 time=0.07656270416666666
EXTRACT: note_on channel=1 note=60 velocity=0 time=0.3453134208333333
EXTRACT: note_on channel=1 note=63 velocity=0 time=0
EXTRACT: note_on channel=1 note=68 velocity=0 time=0
EXTRACT: note_on channel=0 note=68 velocity=0 time=0.028125074999999996
EXTRACT: note_on channel=0 note=67 velocity=80 time=0.0015625041666666665
EXTRACT: note_on channel=1 note=60 velocity=64 time=0
EXTRACT: note_on channel=1 note=63 velocity=64 time=0
EXTRACT: note_on channel=1 note=67 velocity=64 time=0
EXTRACT: note_on channel=1 note=60 velocity=0 time=0.3546884458333333
EXTRACT: note_on channel=1 note=63 velocity=0 time=0
EXTRACT: note_on channel=1 note=67 velocity=0 time=0
EXTRACT: note_on channel=0 note=67 velocity=0 time=0.018750049999999997
EXTRACT: note_on channel=0 note=60 velocity=80 time=0.0015625041666666665
EXTRACT: note_on channel=0 note=63 velocity=80 time=0
EXTRACT: note_on channel=1 note=60 velocity=64 time=0
EXTRACT: note_on channel=1 note=63 velocity=64 time=0
EXTRACT: note_on channel=1 note=60 velocity=0 time=0.1765629708333333
EXTRACT: note_on channel=1 note=63 velocity=0 time=0
EXTRACT: note_on channel=0 note=60 velocity=0 time=0.009375024999999999
EXTRACT: note_on channel=0 note=63 velocity=0 time=0
EXTRACT: note_on channel=0 note=62 velocity=80 time=0.0015625041666666665
EXTRACT: note_on channel=0 note=65 velocity=80 time=0
EXTRACT: note_on channel=1 note=65 velocity=64 time=0
EXTRACT: note_on channel=1 note=65 velocity=0 time=0.3546884458333333
EXTRACT: note_on channel=0 note=62 velocity=0 time=0.018750049999999997
EXTRACT: note_on channel=0 note=65 velocity=0 time=0
EXTRACT: note_on channel=0 note=63 velocity=80 time=0.0015625041666666665
EXTRACT: note_on channel=0 note=67 velocity=80 time=0
EXTRACT: note_on channel=1 note=60 velocity=64 time=0
EXTRACT: note_on channel=1 note=63 velocity=64 time=0
EXTRACT: note_on channel=1 note=67 velocity=64 time=0
EXTRACT: note_on channel=1 note=41 velocity=0 time=0.11093779583333332
EXTRACT: note_on channel=0 note=63 velocity=0 time=0.07500019999999999
EXTRACT: note_on channel=0 note=63 velocity=80 time=0.0015625041666666665
EXTRACT: note_on channel=1 note=48 velocity=64 time=0
EXTRACT: note_on channel=1 note=60 velocity=0 time=0.3453134208333333
EXTRACT: note_on channel=1 note=63 velocity=0 time=0
EXTRACT: note_on channel=1 note=67 velocity=0 time=0
EXTRACT: note_on channel=0 note=67 velocity=0 time=0.028125074999999996
EXTRACT: note_on channel=0 note=63 velocity=0 time=0
EXTRACT: note_on channel=0 note=63 velocity=80 time=0.0015625041666666665
EXTRACT: note_on channel=0 note=70 velocity=80 time=0
EXTRACT: note_on channel=1 note=60 velocity=64 time=0
EXTRACT: note_on channel=1 note=63 velocity=64 time=0
EXTRACT: note_on channel=1 note=70 velocity=64 time=0
EXTRACT: note_on channel=1 note=60 velocity=0 time=0.3546884458333333
EXTRACT: note_on channel=1 note=63 velocity=0 time=0
EXTRACT: note_on channel=1 note=70 velocity=0 time=0
EXTRACT: note_on channel=1 note=60 velocity=64 time=0.020312554166666663
EXTRACT: note_on channel=1 note=63 velocity=64 time=0
EXTRACT: note_on channel=1 note=70 velocity=64 time=0
EXTRACT: note_on channel=1 note=60 velocity=0 time=0.1765629708333333
EXTRACT: note_on channel=1 note=63 velocity=0 time=0
EXTRACT: note_on channel=1 note=70 velocity=0 time=0
EXTRACT: note_on channel=1 note=60 velocity=64 time=0.010937529166666666
EXTRACT: note_on channel=1 note=63 velocity=64 time=0
EXTRACT: note_on channel=1 note=70 velocity=64 time=0
EXTRACT: note_on channel=1 note=48 velocity=0 time=0.48593879583333327
EXTRACT: note_on channel=1 note=60 velocity=0 time=0.046875125
EXTRACT: note_on channel=1 note=63 velocity=0 time=0
EXTRACT: note_on channel=1 note=70 velocity=0 time=0
EXTRACT: note_on channel=0 note=63 velocity=0 time=0.028125074999999996
EXTRACT: note_on channel=0 note=70 velocity=0 time=0
EXTRACT: note_on channel=1 note=75 velocity=64 time=0.0015625041666666665
EXTRACT: note_on channel=1 note=79 velocity=64 time=0
EXTRACT: note_on channel=1 note=44 velocity=64 time=0
EXTRACT: note_on channel=1 note=75 velocity=0 time=0.23593812916666665
EXTRACT: note_on channel=1 note=79 velocity=0 time=0
EXTRACT: note_on channel=1 note=74 velocity=64 time=0.014062537499999998
EXTRACT: note_on channel=1 note=77 velocity=64 time=0
EXTRACT: note_on channel=1 note=74 velocity=0 time=0.23593812916666665
EXTRACT: note_on channel=1 note=77 velocity=0 time=0
EXTRACT: note_on channel=1 note=72 velocity=64 time=0.014062537499999998
EXTRACT: note_on channel=1 note=75 velocity=64 time=0
EXTRACT: note_on channel=1 note=72 velocity=0 time=0.23593812916666665
EXTRACT: note_on channel=1 note=75 velocity=0 time=0
EXTRACT: note_on channel=1 note=68 velocity=64 time=0.014062537499999998
EXTRACT: note_on channel=1 note=72 velocity=64 time=0
EXTRACT: note_on channel=1 note=68 velocity=0 time=0.23593812916666665
EXTRACT: note_on channel=1 note=72 velocity=0 time=0
EXTRACT: note_on channel=1 note=67 velocity=64 time=0.014062537499999998
EXTRACT: note_on channel=1 note=70 velocity=64 time=0
EXTRACT: note_on channel=1 note=67 velocity=0 time=0.23593812916666665
EXTRACT: note_on channel=1 note=70 velocity=0 time=0
EXTRACT: note_on channel=1 note=65 velocity=64 time=0.014062537499999998
EXTRACT: note_on channel=1 note=68 velocity=64 time=0
EXTRACT: note_on channel=1 note=44 velocity=0 time=0.1734379625
EXTRACT: note_on channel=1 note=65 velocity=0 time=0.06250016666666666
EXTRACT: note_on channel=1 note=68 velocity=0 time=0
EXTRACT: note_on channel=0 note=72 velocity=80 time=0.014062537499999998
EXTRACT: note_on channel=1 note=63 velocity=64 time=0
EXTRACT: note_on channel=1 note=68 velocity=64 time=0
EXTRACT: note_on channel=1 note=72 velocity=64 time=0
EXTRACT: note_on channel=1 note=44 velocity=64 time=0
EXTRACT: note_on channel=1 note=63 velocity=0 time=0.3546884458333333
EXTRACT: note_on channel=1 note=68 velocity=0 time=0
EXTRACT: note_on channel=1 note=72 velocity=0 time=0
EXTRACT: note_on channel=0 note=72 velocity=0 time=0.018750049999999997
EXTRACT: note_on channel=0 note=70 velocity=80 time=0.0015625041666666665
EXTRACT: note_on channel=1 note=70 velocity=64 time=0
EXTRACT: note_on channel=1 note=44 velocity=0 time=0.15781292083333331
EXTRACT: note_on channel=1 note=70 velocity=0 time=0.018750049999999997
EXTRACT: note_on channel=0 note=70 velocity=0 time=0.009375024999999999
EXTRACT: note_on channel=0 note=70 velocity=80 time=0.0015625041666666665
EXTRACT: note_on channel=1 note=63 velocity=64 time=0
EXTRACT: note_on channel=1 note=67 velocity=64 time=0
EXTRACT: note_on channel=1 note=70 velocity=64 time=0
EXTRACT: note_on channel=1 note=41 velocity=64 time=0
EXTRACT: note_on channel=1 note=63 velocity=0 time=0.5328139208333332
EXTRACT: note_on channel=1 note=67 velocity=0 time=0
EXTRACT: note_on channel=1 note=70 velocity=0 time=0
EXTRACT: note_on channel=0 note=70 velocity=0 time=0.028125074999999996
EXTRACT: note_on channel=0 note=67 velocity=80 time=0.0015625041666666665
EXTRACT: note_on channel=1 note=67 velocity=64 time=0
EXTRACT: note_on channel=1 note=41 velocity=0 time=0.1484378958333333
EXTRACT: note_on channel=1 note=67 velocity=0 time=0.028125074999999996
EXTRACT: note_on channel=0 note=67 velocity=0 time=0.009375024999999999
EXTRACT: note_on channel=0 note=67 velocity=80 time=0.0015625041666666665
EXTRACT: note_on channel=1 note=58 velocity=64 time=0
EXTRACT: note_on channel=1 note=63 velocity=64 time=0
EXTRACT: note_on channel=1 note=67 velocity=64 time=0
EXTRACT: note_on channel=1 note=46 velocity=64 time=0
EXTRACT: note_on channel=1 note=58 velocity=0 time=0.3546884458333333
EXTRACT: note_on channel=1 note=63 velocity=0 time=0
EXTRACT: note_on channel=1 note=67 velocity=0 time=0
EXTRACT: note_on channel=1 note=46 velocity=0 time=0
EXTRACT: note_on channel=0 note=67 velocity=0 time=0.018750049999999997
EXTRACT: note_on channel=0 note=65 velocity=80 time=0.0015625041666666665
EXTRACT: note_on channel=1 note=58 velocity=64 time=0
EXTRACT: note_on channel=1 note=62 velocity=64 time=0
EXTRACT: note_on channel=1 note=65 velocity=64 time=0
EXTRACT: note_on channel=1 note=46 velocity=64 time=0
EXTRACT: note_on channel=0 note=65 velocity=0 time=0.1859379958333333
EXTRACT: note_on channel=0 note=63 velocity=80 time=0.0015625041666666665
EXTRACT: note_on channel=1 note=58 velocity=0 time=0.5234388958333333
EXTRACT: note_on channel=1 note=62 velocity=0 time=0
EXTRACT: note_on channel=1 note=65 velocity=0 time=0
EXTRACT: note_on channel=0 note=63 velocity=0 time=0.037500099999999995
EXTRACT: note_on channel=0 note=63 velocity=80 time=0.0015625041666666665
EXTRACT: note_on channel=1 note=63 velocity=64 time=0
EXTRACT: note_on channel=1 note=63 velocity=0 time=0.1765629708333333
EXTRACT: note_on channel=0 note=63 velocity=0 time=0.009375024999999999
EXTRACT: note_on channel=0 note=65 velocity=80 time=0.0015625041666666665
EXTRACT: note_on channel=1 note=65 velocity=64 time=0
EXTRACT: note_on channel=1 note=65 velocity=0 time=0.1765629708333333
EXTRACT: note_on channel=0 note=65 velocity=0 time=0.009375024999999999
EXTRACT: note_on channel=0 note=67 velocity=80 time=0.0015625041666666665
EXTRACT: note_on channel=1 note=67 velocity=64 time=0
EXTRACT: note_on channel=1 note=46 velocity=0 time=0.12031282083333332
EXTRACT: note_on channel=1 note=67 velocity=0 time=0.05625014999999999
EXTRACT: note_on channel=0 note=67 velocity=0 time=0.009375024999999999
EXTRACT: note_on channel=0 note=68 velocity=80 time=0
EXTRACT: note_on channel=1 note=60 velocity=64 time=0
EXTRACT: note_on channel=1 note=65 velocity=64 time=0
EXTRACT: note_on channel=1 note=68 velocity=64 time=0
EXTRACT: note_on channel=1 note=41 velocity=64 time=0
EXTRACT: note_on channel=1 note=60 velocity=0 time=0.5328139208333332
EXTRACT: note_on channel=1 note=65 velocity=0 time=0
EXTRACT: note_on channel=1 note=68 velocity=0 time=0
EXTRACT: note_on channel=1 note=41 velocity=0 time=0
EXTRACT: note_on channel=0 note=68 velocity=0 time=0.028125074999999996
EXTRACT: note_on channel=0 note=67 velocity=80 time=0.0015625041666666665
EXTRACT: note_on channel=1 note=58 velocity=64 time=0
EXTRACT: note_on channel=1 note=63 velocity=64 time=0
EXTRACT: note_on channel=1 note=67 velocity=64 time=0
EXTRACT: note_on channel=1 note=39 velocity=64 time=0
EXTRACT: note_on channel=1 note=58 velocity=0 time=0.5328139208333332
EXTRACT: note_on channel=1 note=63 velocity=0 time=0
EXTRACT: note_on channel=1 note=67 velocity=0 time=0
EXTRACT: note_on channel=1 note=39 velocity=0 time=0
EXTRACT: note_on channel=0 note=67 velocity=0 time=0.028125074999999996
EXTRACT: note_on channel=0 note=63 velocity=80 time=0.0015625041666666665
EXTRACT: note_on channel=1 note=56 velocity=64 time=0
EXTRACT: note_on channel=1 note=60 velocity=64 time=0
EXTRACT: note_on channel=1 note=63 velocity=64 time=0
EXTRACT: note_on channel=1 note=44 velocity=64 time=0
EXTRACT: note_on channel=1 note=56 velocity=0 time=1.4046912458333332
EXTRACT: note_on channel=1 note=60 velocity=0 time=0
EXTRACT: note_on channel=1 note=63 velocity=0 time=0
EXTRACT: note_on channel=0 note=63 velocity=0 time=0.09375025
EXTRACT: note_on channel=1 note=63 velocity=64 time=0.0015625041666666665
EXTRACT: note_on channel=1 note=63 velocity=0 time=0.5328139208333332
EXTRACT: note_on channel=0 note=63 velocity=80 time=0.029687579166666665
EXTRACT: note_on channel=1 note=63 velocity=64 time=0
EXTRACT: note_on channel=1 note=63 velocity=0 time=0.1765629708333333
EXTRACT: note_on channel=0 note=63 velocity=0 time=0.009375024999999999
EXTRACT: note_on channel=0 note=63 velocity=80 time=0.0015625041666666665
EXTRACT: note_on channel=1 note=63 velocity=64 time=0
EXTRACT: note_on channel=1 note=63 velocity=0 time=0.3546884458333333
EXTRACT: note_on channel=0 note=63 velocity=0 time=0.018750049999999997
EXTRACT: note_on channel=0 note=62 velocity=80 time=0.0015625041666666665
EXTRACT: note_on channel=1 note=62 velocity=64 time=0
EXTRACT: note_on channel=1 note=62 velocity=0 time=0.1765629708333333
EXTRACT: note_on channel=0 note=62 velocity=0 time=0.009375024999999999
EXTRACT: note_on channel=0 note=63 velocity=80 time=0.0015625041666666665
EXTRACT: note_on channel=1 note=63 velocity=64 time=0
EXTRACT: note_on channel=1 note=44 velocity=0 time=0.01718754583333333
EXTRACT: note_on channel=0 note=68 velocity=80 time=0.17031295416666664
EXTRACT: note_on channel=1 note=48 velocity=64 time=0
EXTRACT: control_change channel=1 control=64 value=0 time=0.0015625041666666665
EXTRACT: control_change channel=1 control=64 value=0 time=0
EXTRACT: control_change channel=1 control=64 value=0 time=0
EXTRACT: control_change channel=1 control=64 value=127 time=0.0015625041666666665
EXTRACT: control_change channel=1 control=64 value=127 time=0
EXTRACT: control_change channel=1 control=64 value=127 time=0
EXTRACT: control_change channel=1 control=64 value=127 time=0
EXTRACT: note_on channel=1 note=63 velocity=0 time=0.1734379625
EXTRACT: note_on channel=0 note=63 velocity=0 time=0.009375024999999999
EXTRACT: note_on channel=0 note=68 velocity=0 time=0
EXTRACT: note_on channel=0 note=63 velocity=80 time=0.0015625041666666665
EXTRACT: note_on channel=0 note=67 velocity=80 time=0
EXTRACT: note_on channel=1 note=63 velocity=64 time=0
EXTRACT: note_on channel=1 note=63 velocity=0 time=0.1765629708333333
EXTRACT: note_on channel=1 note=60 velocity=64 time=0.010937529166666666
EXTRACT: note_on channel=1 note=60 velocity=0 time=0.1765629708333333
EXTRACT: note_on channel=1 note=63 velocity=64 time=0.010937529166666666
EXTRACT: note_on channel=1 note=48 velocity=0 time=0.1484378958333333
EXTRACT: note_on channel=1 note=63 velocity=0 time=0.028125074999999996
EXTRACT: note_on channel=1 note=70 velocity=76 time=0.010937529166666666
EXTRACT: note_on channel=1 note=58 velocity=64 time=0
EXTRACT: note_on channel=1 note=70 velocity=0 time=0.1859379958333333
EXTRACT: note_on channel=1 note=63 velocity=64 time=0.0015625041666666665
EXTRACT: note_on channel=1 note=63 velocity=0 time=0.1765629708333333
EXTRACT: note_on channel=1 note=70 velocity=64 time=0.010937529166666666
EXTRACT: note_on channel=1 note=70 velocity=0 time=0.1765629708333333
EXTRACT: note_on channel=1 note=63 velocity=64 time=0.010937529166666666
EXTRACT: note_on channel=1 note=63 velocity=0 time=0.1765629708333333
EXTRACT: note_on channel=1 note=60 velocity=64 time=0.010937529166666666
EXTRACT: control_change channel=1 control=64 value=0 time=0.0015625041666666665
EXTRACT: control_change channel=1 control=64 value=0 time=0
EXTRACT: control_change channel=1 control=64 value=127 time=0.0015625041666666665
EXTRACT: control_change channel=1 control=64 value=127 time=0
EXTRACT: note_on channel=1 note=60 velocity=0 time=0.1734379625
EXTRACT: note_on channel=1 note=63 velocity=64 time=0.010937529166666666
EXTRACT: note_on channel=1 note=63 velocity=0 time=0.1765629708333333
EXTRACT: note_on channel=1 note=60 velocity=64 time=0.010937529166666666
EXTRACT: note_on channel=1 note=58 velocity=0 time=0.12031282083333332
EXTRACT: note_on channel=1 note=60 velocity=0 time=0.05625014999999999
EXTRACT: note_on channel=1 note=63 velocity=76 time=0.010937529166666666
EXTRACT: note_on channel=1 note=51 velocity=64 time=0
EXTRACT: note_on channel=1 note=51 velocity=0 time=0.1765629708333333
EXTRACT: note_on channel=0 note=63 velocity=0 time=0.009375024999999999
EXTRACT: note_on channel=0 note=67 velocity=0 time=0
EXTRACT: note_on channel=1 note=63 velocity=0 time=0
EXTRACT: note_on channel=1 note=70 velocity=76 time=0.0015625041666666665
EXTRACT: note_on channel=1 note=58 velocity=64 time=0
EXTRACT: note_on channel=1 note=70 velocity=0 time=0.1859379958333333
EXTRACT: note_on channel=1 note=63 velocity=64 time=0.0015625041666666665
EXTRACT: note_on channel=1 note=63 velocity=0 time=0.1765629708333333
EXTRACT: note_on channel=1 note=70 velocity=64 time=0.010937529166666666
EXTRACT: note_on channel=1 note=58 velocity=0 time=0.15781292083333331
EXTRACT: note_on channel=1 note=70 velocity=0 time=0.018750049999999997
EXTRACT: note_on channel=1 note=63 velocity=64 time=0.010937529166666666
EXTRACT: note_on channel=1 note=51 velocity=64 time=0
EXTRACT: note_on channel=1 note=63 velocity=0 time=0.1765629708333333
EXTRACT: note_on channel=1 note=51 velocity=0 time=0
EXTRACT: note_on channel=1 note=60 velocity=76 time=0.010937529166666666
EXTRACT: note_on channel=1 note=44 velocity=64 time=0
EXTRACT: note_on channel=1 note=58 velocity=64 time=0
EXTRACT: control_change channel=1 control=64 value=0 time=0.0015625041666666665
EXTRACT: control_change channel=1 control=64 value=0 time=0
EXTRACT: control_change channel=1 control=64 value=0 time=0
EXTRACT: control_change channel=1 control=64 value=127 time=0.0015625041666666665
EXTRACT: control_change channel=1 control=64 value=127 time=0
EXTRACT: control_change channel=1 control=64 value=127 time=0
EXTRACT: control_change channel=1 control=64 value=127 time=0
EXTRACT: note_on channel=1 note=60 velocity=0 time=0.18281298749999997
EXTRACT: note_on channel=1 note=63 velocity=64 time=0.0015625041666666665
EXTRACT: note_on channel=1 note=63 velocity=0 time=0.1765629708333333
EXTRACT: note_on channel=1 note=60 velocity=64 time=0.010937529166666666
EXTRACT: note_on channel=1 note=44 velocity=0 time=0.15781292083333331
EXTRACT: note_on channel=1 note=58 velocity=0 time=0
EXTRACT: note_on channel=1 note=60 velocity=0 time=0.018750049999999997
EXTRACT: note_on channel=1 note=63 velocity=64 time=0.010937529166666666
EXTRACT: note_on channel=1 note=51 velocity=64 time=0
EXTRACT: note_on channel=1 note=63 velocity=0 time=0.1765629708333333
EXTRACT: note_on channel=1 note=51 velocity=0 time=0
EXTRACT: note_on channel=1 note=70 velocity=76 time=0.010937529166666666
EXTRACT: note_on channel=1 note=58 velocity=64 time=0
EXTRACT: note_on channel=1 note=70 velocity=0 time=0.1859379958333333
EXTRACT: note_on channel=1 note=63 velocity=64 time=0.0015625041666666665
EXTRACT: note_on channel=1 note=63 velocity=0 time=0.1765629708333333
EXTRACT: note_on channel=1 note=70 velocity=64 time=0.010937529166666666
EXTRACT: note_on channel=1 note=70 velocity=0 time=0.1765629708333333
EXTRACT: note_on channel=1 note=63 velocity=64 time=0.010937529166666666
EXTRACT: note_on channel=1 note=63 velocity=0 time=0.1765629708333333
EXTRACT: note_on channel=1 note=60 velocity=64 time=0.010937529166666666
EXTRACT: control_change channel=1 control=64 value=0 time=0.0015625041666666665
EXTRACT: control_change channel=1 control=64 value=0 time=0
EXTRACT: control_change channel=1 control=64 value=0 time=0
EXTRACT: control_change channel=1 control=64 value=127 time=0.0015625041666666665
EXTRACT: control_change channel=1 control=64 value=127 time=0
EXTRACT: note_on channel=1 note=60 velocity=0 time=0.1734379625
EXTRACT: note_on channel=1 note=63 velocity=64 time=0.010937529166666666
EXTRACT: note_on channel=1 note=63 velocity=0 time=0.1765629708333333
EXTRACT: note_on channel=1 note=60 velocity=64 time=0.010937529166666666
EXTRACT: note_on channel=1 note=58 velocity=0 time=0.12031282083333332
EXTRACT: note_on channel=1 note=60 velocity=0 time=0.05625014999999999
EXTRACT: note_on channel=0 note=63 velocity=80 time=0.010937529166666666
EXTRACT: note_on channel=1 note=63 velocity=76 time=0
EXTRACT: note_on channel=1 note=51 velocity=64 time=0
EXTRACT: note_on channel=1 note=51 velocity=0 time=0.1765629708333333
EXTRACT: note_on channel=0 note=63 velocity=0 time=0.009375024999999999
EXTRACT: note_on channel=1 note=63 velocity=0 time=0
EXTRACT: note_on channel=0 note=63 velocity=80 time=0.0015625041666666665
EXTRACT: note_on channel=1 note=70 velocity=76 time=0
EXTRACT: note_on channel=1 note=58 velocity=64 time=0
EXTRACT: note_on channel=1 note=70 velocity=0 time=0.1859379958333333
EXTRACT: note_on channel=1 note=63 velocity=64 time=0.0015625041666666665
EXTRACT: note_on channel=1 note=63 velocity=0 time=0.1765629708333333
EXTRACT: note_on channel=0 note=63 velocity=0 time=0.009375024999999999
EXTRACT: note_on channel=0 note=62 velocity=80 time=0.0015625041666666665
EXTRACT: note_on channel=1 note=70 velocity=64 time=0
EXTRACT: note_on channel=1 note=70 velocity=0 time=0.1765629708333333
EXTRACT: note_on channel=0 note=62 velocity=0 time=0.009375024999999999
EXTRACT: note_on channel=0 note=63 velocity=80 time=0.0015625041666666665
EXTRACT: note_on channel=1 note=63 velocity=64 time=0
EXTRACT: note_on channel=1 note=58 velocity=0 time=0.1484378958333333
EXTRACT: note_on channel=1 note=63 velocity=0 time=0.028125074999999996
EXTRACT: note_on channel=1 note=60 velocity=76 time=0.010937529166666666
EXTRACT: note_on channel=1 note=41 velocity=64 time=0
EXTRACT: control_change channel=1 control=64 value=0 time=0.0015625041666666665
EXTRACT: control_change channel=1 control=64 value=0 time=0
EXTRACT: control_change channel=1 control=64 value=0 time=0
EXTRACT: control_change channel=1 control=64 value=0 time=0
EXTRACT: control_change channel=1 control=64 value=0 time=0
EXTRACT: control_change channel=1 control=64 value=0 time=0
EXTRACT: control_change channel=1 control=64 value=0 time=0
EXTRACT: control_change channel=1 control=64 value=0 time=0
EXTRACT: control_change channel=1 control=64 value=127 time=0.0015625041666666665
EXTRACT: control_change channel=1 control=64 value=127 time=0
EXTRACT: control_change channel=1 control=64 value=127 time=0
EXTRACT: control_change channel=1 control=64 value=127 time=0
EXTRACT: control_change channel=1 control=64 value=127 time=0
EXTRACT: control_change channel=1 control=64 value=127 time=0
EXTRACT: control_change channel=1 control=64 value=127 time=0
EXTRACT: control_change channel=1 control=64 value=127 time=0
EXTRACT: note_on channel=0 note=63 velocity=0 time=0.18281298749999997
EXTRACT: note_on channel=1 note=60 velocity=0 time=0
EXTRACT: note_on channel=0 note=70 velocity=80 time=0.0015625041666666665
EXTRACT: note_on channel=1 note=63 velocity=64 time=0
EXTRACT: note_on channel=1 note=63 velocity=0 time=0.1765629708333333
EXTRACT: note_on channel=1 note=60 velocity=64 time=0.010937529166666666
EXTRACT: note_on channel=1 note=41 velocity=0 time=0.15781292083333331
EXTRACT: note_on channel=1 note=60 velocity=0 time=0.018750049999999997
EXTRACT: note_on channel=1 note=63 velocity=64 time=0.010937529166666666
EXTRACT: note_on channel=1 note=48 velocity=64 time=0
EXTRACT: note_on channel=1 note=63 velocity=0 time=0.1765629708333333
EXTRACT: note_on channel=1 note=48 velocity=0 time=0
EXTRACT: note_on channel=1 note=67 velocity=76 time=0.010937529166666666
EXTRACT: note_on channel=1 note=56 velocity=64 time=0
EXTRACT: note_on channel=1 note=67 velocity=0 time=0.1859379958333333
EXTRACT: note_on channel=1 note=63 velocity=64 time=0.0015625041666666665
EXTRACT: note_on channel=1 note=63 velocity=0 time=0.1765629708333333
EXTRACT: note_on channel=1 note=67 velocity=64 time=0.010937529166666666
EXTRACT: note_on channel=1 note=67 velocity=0 time=0.1765629708333333
EXTRACT: note_on channel=1 note=63 velocity=64 time=0.010937529166666666
EXTRACT: note_on channel=1 note=63 velocity=0 time=0.1765629708333333
EXTRACT: note_on channel=1 note=60 velocity=64 time=0.010937529166666666
EXTRACT: control_change channel=1 control=64 value=0 time=0.0015625041666666665
EXTRACT: control_change channel=1 control=64 value=0 time=0
EXTRACT: control_change channel=1 control=64 value=0 time=0
EXTRACT: control_change channel=1 control=64 value=0 time=0
EXTRACT: control_change channel=1 control=64 value=127 time=0.0015625041666666665
EXTRACT: control_change channel=1 control=64 value=127 time=0
EXTRACT: control_change channel=1 control=64 value=127 time=0
EXTRACT: control_change channel=1 control=64 value=127 time=0
EXTRACT: note_on channel=1 note=60 velocity=0 time=0.1734379625
EXTRACT: note_on channel=1 note=63 velocity=64 time=0.010937529166666666
EXTRACT: note_on channel=1 note=63 velocity=0 time=0.1765629708333333
EXTRACT: note_on channel=1 note=60 velocity=64 time=0.010937529166666666
EXTRACT: note_on channel=1 note=56 velocity=0 time=0.12031282083333332
EXTRACT: note_on channel=1 note=60 velocity=0 time=0.05625014999999999
EXTRACT: note_on channel=1 note=63 velocity=76 time=0.010937529166666666
EXTRACT: note_on channel=1 note=48 velocity=64 time=0
EXTRACT: note_on channel=1 note=48 velocity=0 time=0.1765629708333333
EXTRACT: note_on channel=1 note=63 velocity=0 time=0.009375024999999999
EXTRACT: note_on channel=1 note=67 velocity=76 time=0.0015625041666666665
EXTRACT: note_on channel=1 note=56 velocity=64 time=0
EXTRACT: note_on channel=0 note=70 velocity=0 time=0.1859379958333333
EXTRACT: note_on channel=1 note=67 velocity=0 time=0
EXTRACT: note_on channel=0 note=68 velocity=80 time=0.0015625041666666665
EXTRACT: note_on channel=1 note=63 velocity=64 time=0
EXTRACT: note_on channel=1 note=63 velocity=0 time=0.1765629708333333
EXTRACT: note_on channel=0 note=68 velocity=0 time=0.009375024999999999
EXTRACT: note_on channel=0 note=67 velocity=80 time=0.0015625041666666665
EXTRACT: note_on channel=1 note=67 velocity=64 time=0
EXTRACT: note_on channel=1 note=67 velocity=0 time=0.1765629708333333
EXTRACT: note_on channel=0 note=67 velocity=0 time=0.009375024999999999
EXTRACT: note_on channel=0 note=65 velocity=80 time=0.0015625041666666665
EXTRACT: note_on channel=1 note=63 velocity=64 time=0
EXTRACT: note_on channel=1 note=56 velocity=0 time=0.1484378958333333
EXTRACT: note_on channel=1 note=63 velocity=0 time=0.028125074999999996
EXTRACT: note_on channel=1 note=60 velocity=76 time=0.010937529166666666
EXTRACT: note_on channel=1 note=44 velocity=64 time=0
EXTRACT: control_change channel=1 control=64 value=0 time=0.0015625041666666665
EXTRACT: control_change channel=1 control=64 value=0 time=0
EXTRACT: control_change channel=1 control=64 value=0 time=0
EXTRACT: control_change channel=1 control=64 value=0 time=0
EXTRACT: control_change channel=1 control=64 value=0 time=0
EXTRACT: control_change channel=1 control=64 value=0 time=0
EXTRACT: control_change channel=1 control=64 value=0 time=0
EXTRACT: control_change channel=1 control=64 value=127 time=0.0015625041666666665
EXTRACT: control_change channel=1 control=64 value=127 time=0
EXTRACT: control_change channel=1 control=64 value=127 time=0
EXTRACT: control_change channel=1 control=64 value=127 time=0
EXTRACT: control_change channel=1 control=64 value=127 time=0
EXTRACT: control_change channel=1 control=64 value=127 time=0
EXTRACT: control_change channel=1 control=64 value=127 time=0
EXTRACT: control_change channel=1 control=64 value=127 time=0
EXTRACT: note_on channel=1 note=60 velocity=0 time=0.18281298749999997
EXTRACT: note_on channel=1 note=63 velocity=64 time=0.0015625041666666665
EXTRACT: note_on channel=1 note=63 velocity=0 time=0.1765629708333333
EXTRACT: note_on channel=1 note=60 velocity=64 time=0.010937529166666666
EXTRACT: note_on channel=1 note=44 velocity=0 time=0.15781292083333331
EXTRACT: note_on channel=1 note=60 velocity=0 time=0.018750049999999997
EXTRACT: note_on channel=1 note=63 velocity=64 time=0.010937529166666666
EXTRACT: note_on channel=1 note=51 velocity=64 time=0
EXTRACT: note_on channel=1 note=63 velocity=0 time=0.1765629708333333
EXTRACT: note_on channel=1 note=51 velocity=0 time=0
EXTRACT: note_on channel=1 note=68 velocity=76 time=0.010937529166666666
EXTRACT: note_on channel=1 note=56 velocity=64 time=0
EXTRACT: note_on channel=1 note=68 velocity=0 time=0.1859379958333333
EXTRACT: note_on channel=1 note=63 velocity=64 time=0.0015625041666666665
EXTRACT: note_on channel=1 note=63 velocity=0 time=0.1765629708333333
EXTRACT: note_on channel=0 note=65 velocity=0 time=0.009375024999999999
EXTRACT: note_on channel=0 note=63 velocity=80 time=0.0015625041666666665
EXTRACT: note_on channel=1 note=68 velocity=64 time=0
EXTRACT: note_on channel=1 note=68 velocity=0 time=0.1765629708333333
EXTRACT: note_on channel=1 note=63 velocity=64 time=0.010937529166666666
EXTRACT: note_on channel=1 note=63 velocity=0 time=0.1765629708333333
EXTRACT: note_on channel=1 note=60 velocity=64 time=0.010937529166666666
EXTRACT: note_on channel=1 note=60 velocity=0 time=0.1765629708333333
EXTRACT: note_on channel=1 note=63 velocity=64 time=0.010937529166666666
EXTRACT: note_on channel=1 note=63 velocity=0 time=0.1765629708333333
EXTRACT: note_on channel=1 note=60 velocity=76 time=0.010937529166666666
EXTRACT: note_on channel=1 note=60 velocity=0 time=0.1859379958333333
EXTRACT: note_on channel=1 note=68 velocity=76 time=0.0015625041666666665
EXTRACT: note_on channel=0 note=63 velocity=0 time=0.1859379958333333
EXTRACT: note_on channel=1 note=68 velocity=0 time=0
EXTRACT: note_on channel=1 note=67 velocity=76 time=0.0015625041666666665
EXTRACT: note_on channel=1 note=67 velocity=0 time=0.1859379958333333
EXTRACT: note_on channel=1 note=60 velocity=64 time=0.0015625041666666665
EXTRACT: note_on channel=1 note=60 velocity=0 time=0.1765629708333333
EXTRACT: note_on channel=1 note=63 velocity=76 time=0.010937529166666666
EXTRACT: note_on channel=1 note=63 velocity=0 time=0.1859379958333333
EXTRACT: note_on channel=1 note=60 velocity=64 time=0.0015625041666666665
EXTRACT: note_on channel=1 note=56 velocity=0 time=0.07343769583333333
EXTRACT: note_on channel=1 note=60 velocity=0 time=0.10312527499999999
EXTRACT: note_on channel=0 note=67 velocity=80 time=0.010937529166666666
EXTRACT: note_on channel=1 note=58 velocity=64 time=0
EXTRACT: note_on channel=1 note=63 velocity=64 time=0
EXTRACT: note_on channel=1 note=67 velocity=64 time=0
EXTRACT: note_on channel=1 note=36 velocity=64 time=0
EXTRACT: note_on channel=1 note=48 velocity=64 time=0
EXTRACT: control_change channel=1 control=64 value=0 time=0.0015625041666666665
EXTRACT: control_change channel=1 control=64 value=0 time=0
EXTRACT: control_change channel=1 control=64 value=127 time=0.0015625041666666665
EXTRACT: note_on channel=1 note=58 velocity=0 time=0.5296889124999999
EXTRACT: note_on channel=1 note=63 velocity=0 time=0
EXTRACT: note_on channel=1 note=67 velocity=0 time=0
EXTRACT: note_on channel=0 note=67 velocity=0 time=0.028125074999999996
EXTRACT: note_on channel=0 note=65 velocity=80 time=0.0015625041666666665
EXTRACT: note_on channel=1 note=58 velocity=64 time=0
EXTRACT: note_on channel=1 note=60 velocity=64 time=0
EXTRACT: note_on channel=1 note=65 velocity=64 time=0
EXTRACT: note_on channel=1 note=36 velocity=0 time=0.5046888458333333
EXTRACT: note_on channel=1 note=48 velocity=0 time=0
EXTRACT: note_on channel=1 note=58 velocity=0 time=0.028125074999999996
EXTRACT: note_on channel=1 note=60 velocity=0 time=0
EXTRACT: note_on channel=1 note=65 velocity=0 time=0
EXTRACT: note_on channel=0 note=65 velocity=0 time=0.028125074999999996
EXTRACT: note_on channel=0 note=67 velocity=80 time=0.0015625041666666665
EXTRACT: note_on channel=1 note=58 velocity=64 time=0
EXTRACT: note_on channel=1 note=63 velocity=64 time=0
EXTRACT: note_on channel=1 note=67 velocity=64 time=0
EXTRACT: note_on channel=1 note=36 velocity=64 time=0
EXTRACT: note_on channel=1 note=48 velocity=64 time=0
EXTRACT: note_on channel=1 note=58 velocity=0 time=0.5328139208333332
EXTRACT: note_on channel=1 note=63 velocity=0 time=0
EXTRACT: note_on channel=1 note=67 velocity=0 time=0
EXTRACT: note_on channel=0 note=67 velocity=0 time=0.028125074999999996
EXTRACT: note_on channel=0 note=65 velocity=80 time=0.0015625041666666665
EXTRACT: note_on channel=1 note=58 velocity=64 time=0
EXTRACT: note_on channel=1 note=60 velocity=64 time=0
EXTRACT: note_on channel=1 note=65 velocity=64 time=0
EXTRACT: note_on channel=1 note=36 velocity=0 time=0.5046888458333333
EXTRACT: note_on channel=1 note=48 velocity=0 time=0
EXTRACT: note_on channel=1 note=58 velocity=0 time=0.028125074999999996
EXTRACT: note_on channel=1 note=60 velocity=0 time=0
EXTRACT: note_on channel=1 note=65 velocity=0 time=0
EXTRACT: note_on channel=0 note=65 velocity=0 time=0.028125074999999996
EXTRACT: note_on channel=0 note=65 velocity=80 time=0.0015625041666666665
EXTRACT: note_on channel=1 note=58 velocity=64 time=0
EXTRACT: note_on channel=1 note=60 velocity=64 time=0
EXTRACT: note_on channel=1 note=65 velocity=64 time=0
EXTRACT: note_on channel=1 note=36 velocity=64 time=0
EXTRACT: note_on channel=1 note=48 velocity=64 time=0
EXTRACT: note_on channel=1 note=58 velocity=0 time=0.3546884458333333
EXTRACT: note_on channel=1 note=60 velocity=0 time=0
EXTRACT: note_on channel=1 note=65 velocity=0 time=0
EXTRACT: note_on channel=0 note=65 velocity=0 time=0.018750049999999997
EXTRACT: note_on channel=0 note=65 velocity=80 time=0.0015625041666666665
EXTRACT: note_on channel=1 note=58 velocity=64 time=0
EXTRACT: note_on channel=1 note=60 velocity=64 time=0
EXTRACT: note_on channel=1 note=65 velocity=64 time=0
EXTRACT: note_on channel=1 note=58 velocity=0 time=0.1765629708333333
EXTRACT: note_on channel=1 note=60 velocity=0 time=0
EXTRACT: note_on channel=1 note=65 velocity=0 time=0
EXTRACT: note_on channel=0 note=65 velocity=0 time=0.009375024999999999
EXTRACT: note_on channel=0 note=67 velocity=80 time=0.0015625041666666665
EXTRACT: note_on channel=1 note=67 velocity=64 time=0
EXTRACT: note_on channel=1 note=36 velocity=0 time=0.1484378958333333
EXTRACT: note_on channel=1 note=48 velocity=0 time=0
EXTRACT: note_on channel=1 note=67 velocity=0 time=0.028125074999999996
EXTRACT: note_on channel=0 note=67 velocity=0 time=0.009375024999999999
EXTRACT: note_on channel=0 note=67 velocity=80 time=0.0015625041666666665
EXTRACT: note_on channel=1 note=56 velocity=64 time=0
EXTRACT: note_on channel=1 note=60 velocity=64 time=0
EXTRACT: note_on channel=1 note=67 velocity=64 time=0
EXTRACT: note_on channel=1 note=32 velocity=64 time=0
EXTRACT: note_on channel=1 note=44 velocity=64 time=0
EXTRACT: control_change channel=1 control=64 value=0 time=0.0015625041666666665
EXTRACT: control_change channel=1 control=64 value=127 time=0.0015625041666666665
EXTRACT: note_on channel=1 note=56 velocity=0 time=0.5296889124999999
EXTRACT: note_on channel=1 note=60 velocity=0 time=0
EXTRACT: note_on channel=1 note=67 velocity=0 time=0
EXTRACT: note_on channel=0 note=67 velocity=0 time=0.028125074999999996
EXTRACT: note_on channel=0 note=65 velocity=80 time=0.0015625041666666665
EXTRACT: note_on channel=1 note=58 velocity=64 time=0
EXTRACT: note_on channel=1 note=60 velocity=64 time=0
EXTRACT: note_on channel=1 note=65 velocity=64 time=0
EXTRACT: note_on channel=1 note=32 velocity=0 time=0.5046888458333333
EXTRACT: note_on channel=1 note=44 velocity=0 time=0
EXTRACT: note_on channel=1 note=58 velocity=0 time=0.028125074999999996
EXTRACT: note_on channel=1 note=60 velocity=0 time=0
EXTRACT: note_on channel=1 note=65 velocity=0 time=0
EXTRACT: note_on channel=0 note=65 velocity=0 time=0.028125074999999996
EXTRACT: note_on channel=0 note=67 velocity=80 time=0.0015625041666666665
EXTRACT: note_on channel=1 note=56 velocity=64 time=0
EXTRACT: note_on channel=1 note=60 velocity=64 time=0
EXTRACT: note_on channel=1 note=67 velocity=64 time=0
EXTRACT: note_on channel=1 note=32 velocity=64 time=0
EXTRACT: note_on channel=1 note=44 velocity=64 time=0
EXTRACT: note_on channel=1 note=56 velocity=0 time=0.5328139208333332
EXTRACT: note_on channel=1 note=60 velocity=0 time=0
EXTRACT: note_on channel=1 note=67 velocity=0 time=0
EXTRACT: note_on channel=0 note=67 velocity=0 time=0.028125074999999996
EXTRACT: note_on channel=0 note=65 velocity=80 time=0.0015625041666666665
EXTRACT: note_on channel=1 note=56 velocity=64 time=0
EXTRACT: note_on channel=1 note=60 velocity=64 time=0
EXTRACT: note_on channel=1 note=65 velocity=64 time=0
EXTRACT: note_on channel=1 note=32 velocity=0 time=0.5046888458333333
EXTRACT: note_on channel=1 note=44 velocity=0 time=0
EXTRACT: note_on channel=1 note=56 velocity=0 time=0.028125074999999996
EXTRACT: note_on channel=1 note=60 velocity=0 time=0
EXTRACT: note_on channel=1 note=65 velocity=0 time=0
EXTRACT: note_on channel=0 note=65 velocity=0 time=0.028125074999999996
EXTRACT: note_on channel=0 note=65 velocity=80 time=0.0015625041666666665
EXTRACT: note_on channel=1 note=56 velocity=64 time=0
EXTRACT: note_on channel=1 note=60 velocity=64 time=0
EXTRACT: note_on channel=1 note=65 velocity=64 time=0
EXTRACT: note_on channel=1 note=32 velocity=64 time=0
EXTRACT: note_on channel=1 note=44 velocity=64 time=0
EXTRACT: note_on channel=1 note=56 velocity=0 time=0.3546884458333333
EXTRACT: note_on channel=1 note=60 velocity=0 time=0
EXTRACT: note_on channel=1 note=65 velocity=0 time=0
EXTRACT: note_on channel=0 note=65 velocity=0 time=0.018750049999999997
EXTRACT: note_on channel=0 note=65 velocity=80 time=0.0015625041666666665
EXTRACT: note_on channel=1 note=56 velocity=64 time=0
EXTRACT: note_on channel=1 note=60 velocity=64 time=0
EXTRACT: note_on channel=1 note=65 velocity=64 time=0
EXTRACT: note_on channel=1 note=56 velocity=0 time=0.1765629708333333
EXTRACT: note_on channel=1 note=60 velocity=0 time=0
EXTRACT: note_on channel=1 note=65 velocity=0 time=0
EXTRACT: note_on channel=0 note=65 velocity=0 time=0.009375024999999999
EXTRACT: note_on channel=0 note=67 velocity=80 time=0.0015625041666666665
EXTRACT: note_on channel=1 note=67 velocity=64 time=0
EXTRACT: note_on channel=1 note=32 velocity=0 time=0.1484378958333333
EXTRACT: note_on channel=1 note=44 velocity=0 time=0
EXTRACT: note_on channel=1 note=67 velocity=0 time=0.028125074999999996
EXTRACT: note_on channel=0 note=67 velocity=0 time=0.009375024999999999
EXTRACT: note_on channel=0 note=63 velocity=80 time=0.0015625041666666665
EXTRACT: note_on channel=1 note=55 velocity=64 time=0
EXTRACT: note_on channel=1 note=58 velocity=64 time=0
EXTRACT: note_on channel=1 note=63 velocity=64 time=0
EXTRACT: note_on channel=1 note=39 velocity=64 time=0
EXTRACT: note_on channel=1 note=51 velocity=64 time=0
EXTRACT: control_change channel=1 control=64 value=0 time=0.0015625041666666665
EXTRACT: control_change channel=1 control=64 value=127 time=0.0015625041666666665
EXTRACT: note_on channel=1 note=55 velocity=0 time=0.5296889124999999
EXTRACT: note_on channel=1 note=58 velocity=0 time=0
EXTRACT: note_on channel=1 note=63 velocity=0 time=0
EXTRACT: note_on channel=1 note=55 velocity=64 time=0.029687579166666665
EXTRACT: note_on channel=1 note=58 velocity=64 time=0
EXTRACT: note_on channel=1 note=63 velocity=64 time=0
EXTRACT: note_on channel=0 note=63 velocity=0 time=0.1859379958333333
EXTRACT: note_on channel=1 note=39 velocity=0 time=0.31875085
EXTRACT: note_on channel=1 note=51 velocity=0 time=0
EXTRACT: note_on channel=1 note=39 velocity=64 time=0.05781265416666666
EXTRACT: note_on channel=1 note=51 velocity=64 time=0
EXTRACT: note_on channel=1 note=55 velocity=0 time=0.1484378958333333
EXTRACT: note_on channel=1 note=58 velocity=0 time=0
EXTRACT: note_on channel=1 note=63 velocity=0 time=0
EXTRACT: note_on channel=0 note=63 velocity=80 time=0.03906260416666666
EXTRACT: note_on channel=1 note=63 velocity=64 time=0
EXTRACT: note_on channel=1 note=63 velocity=0 time=0.1765629708333333
EXTRACT: note_on channel=0 note=63 velocity=0 time=0.009375024999999999
EXTRACT: note_on channel=0 note=63 velocity=80 time=0.0015625041666666665
EXTRACT: note_on channel=1 note=55 velocity=64 time=0
EXTRACT: note_on channel=1 note=58 velocity=64 time=0
EXTRACT: note_on channel=1 note=63 velocity=64 time=0
EXTRACT: note_on channel=1 note=55 velocity=0 time=0.3546884458333333
EXTRACT: note_on channel=1 note=58 velocity=0 time=0
EXTRACT: note_on channel=1 note=63 velocity=0 time=0
EXTRACT: note_on channel=0 note=63 velocity=0 time=0.018750049999999997
EXTRACT: note_on channel=0 note=63 velocity=80 time=0.0015625041666666665
EXTRACT: note_on channel=1 note=63 velocity=64 time=0
EXTRACT: note_on channel=1 note=63 velocity=0 time=0.1765629708333333
EXTRACT: note_on channel=0 note=63 velocity=0 time=0.009375024999999999
EXTRACT: note_on channel=0 note=63 velocity=80 time=0.0015625041666666665
EXTRACT: note_on channel=1 note=55 velocity=64 time=0
EXTRACT: note_on channel=1 note=58 velocity=64 time=0
EXTRACT: note_on channel=1 note=63 velocity=64 time=0
EXTRACT: note_on channel=1 note=39 velocity=0 time=0.12968784583333332
EXTRACT: note_on channel=1 note=51 velocity=0 time=0
EXTRACT: note_on channel=1 note=39 velocity=64 time=0.05781265416666666
EXTRACT: note_on channel=1 note=51 velocity=64 time=0
EXTRACT: note_on channel=1 note=55 velocity=0 time=0.16718794583333332
EXTRACT: note_on channel=1 note=58 velocity=0 time=0
EXTRACT: note_on channel=1 note=63 velocity=0 time=0
EXTRACT: note_on channel=0 note=63 velocity=0 time=0.018750049999999997
EXTRACT: note_on channel=0 note=63 velocity=80 time=0.0015625041666666665
EXTRACT: note_on channel=1 note=63 velocity=64 time=0
EXTRACT: note_on channel=1 note=63 velocity=0 time=0.1765629708333333
EXTRACT: note_on channel=0 note=63 velocity=0 time=0.009375024999999999
EXTRACT: note_on channel=0 note=63 velocity=80 time=0.0015625041666666665
EXTRACT: note_on channel=1 note=63 velocity=64 time=0
EXTRACT: note_on channel=1 note=63 velocity=0 time=0.1765629708333333
EXTRACT: note_on channel=0 note=63 velocity=0 time=0.009375024999999999
EXTRACT: note_on channel=0 note=65 velocity=80 time=0.0015625041666666665
EXTRACT: note_on channel=1 note=56 velocity=64 time=0
EXTRACT: note_on channel=1 note=60 velocity=64 time=0
EXTRACT: note_on channel=1 note=65 velocity=64 time=0
EXTRACT: note_on channel=1 note=39 velocity=0 time=0.1484378958333333
EXTRACT: note_on channel=1 note=51 velocity=0 time=0
EXTRACT: note_on channel=1 note=56 velocity=0 time=0.028125074999999996
EXTRACT: note_on channel=1 note=60 velocity=0 time=0
EXTRACT: note_on channel=1 note=65 velocity=0 time=0
EXTRACT: note_on channel=1 note=56 velocity=64 time=0.010937529166666666
EXTRACT: note_on channel=1 note=60 velocity=64 time=0
EXTRACT: note_on channel=1 note=65 velocity=64 time=0
EXTRACT: note_on channel=1 note=41 velocity=64 time=0
EXTRACT: note_on channel=1 note=53 velocity=64 time=0
EXTRACT: control_change channel=1 control=64 value=0 time=0.0015625041666666665
EXTRACT: control_change channel=1 control=64 value=127 time=0.0015625041666666665
EXTRACT: note_on channel=1 note=56 velocity=0 time=0.5296889124999999
EXTRACT: note_on channel=1 note=60 velocity=0 time=0
EXTRACT: note_on channel=1 note=65 velocity=0 time=0
EXTRACT: note_on channel=1 note=60 velocity=64 time=0.029687579166666665
EXTRACT: note_on channel=1 note=65 velocity=64 time=0
EXTRACT: note_on channel=1 note=68 velocity=64 time=0
EXTRACT: note_on channel=1 note=60 velocity=0 time=0.3546884458333333
EXTRACT: note_on channel=1 note=65 velocity=0 time=0
EXTRACT: note_on channel=1 note=68 velocity=0 time=0
EXTRACT: note_on channel=1 note=60 velocity=64 time=0.020312554166666663
EXTRACT: note_on channel=1 note=65 velocity=64 time=0
EXTRACT: note_on channel=1 note=68 velocity=64 time=0
EXTRACT: note_on channel=1 note=41 velocity=0 time=0.12968784583333332
EXTRACT: note_on channel=1 note=53 velocity=0 time=0
EXTRACT: note_on channel=0 note=65 velocity=0 time=0.05625014999999999
EXTRACT: note_on channel=0 note=63 velocity=80 time=0.0015625041666666665
EXTRACT: note_on channel=1 note=41 velocity=64 time=0
EXTRACT: note_on channel=1 note=53 velocity=64 time=0
EXTRACT: note_on channel=0 note=63 velocity=0 time=0.1859379958333333
EXTRACT: note_on channel=0 note=65 velocity=80 time=0.0015625041666666665
EXTRACT: note_on channel=0 note=65 velocity=0 time=0.1859379958333333
EXTRACT: note_on channel=0 note=67 velocity=80 time=0.0015625041666666665
EXTRACT: note_on channel=1 note=60 velocity=0 time=0.1484378958333333
EXTRACT: note_on channel=1 note=65 velocity=0 time=0
EXTRACT: note_on channel=1 note=68 velocity=0 time=0
EXTRACT: note_on channel=1 note=60 velocity=64 time=0.03906260416666666
EXTRACT: note_on channel=1 note=65 velocity=64 time=0
EXTRACT: note_on channel=1 note=68 velocity=64 time=0
EXTRACT: note_on channel=1 note=60 velocity=0 time=0.1765629708333333
EXTRACT: note_on channel=1 note=65 velocity=0 time=0
EXTRACT: note_on channel=1 note=68 velocity=0 time=0
EXTRACT: note_on channel=1 note=67 velocity=64 time=0.010937529166666666
EXTRACT: note_on channel=1 note=67 velocity=0 time=0.1765629708333333
EXTRACT: note_on channel=1 note=65 velocity=64 time=0.010937529166666666
EXTRACT: note_on channel=1 note=41 velocity=0 time=0.12968784583333332
EXTRACT: note_on channel=1 note=53 velocity=0 time=0
EXTRACT: note_on channel=1 note=65 velocity=0 time=0.046875125
EXTRACT: note_on channel=0 note=67 velocity=0 time=0.009375024999999999
EXTRACT: note_on channel=1 note=65 velocity=64 time=0.0015625041666666665
EXTRACT: note_on channel=1 note=68 velocity=64 time=0
EXTRACT: note_on channel=1 note=72 velocity=64 time=0
EXTRACT: note_on channel=1 note=41 velocity=64 time=0
EXTRACT: note_on channel=1 note=53 velocity=64 time=0
EXTRACT: note_on channel=1 note=65 velocity=0 time=0.1765629708333333
EXTRACT: note_on channel=1 note=68 velocity=0 time=0
EXTRACT: note_on channel=1 note=72 velocity=0 time=0
EXTRACT: note_on channel=1 note=70 velocity=64 time=0.010937529166666666
EXTRACT: note_on channel=1 note=70 velocity=0 time=0.1765629708333333
EXTRACT: note_on channel=1 note=68 velocity=64 time=0.010937529166666666
EXTRACT: note_on channel=1 note=68 velocity=0 time=0.1765629708333333
EXTRACT: note_on channel=1 note=67 velocity=64 time=0.010937529166666666
EXTRACT: note_on channel=1 note=41 velocity=0 time=0.1484378958333333
EXTRACT: note_on channel=1 note=53 velocity=0 time=0
EXTRACT: note_on channel=1 note=67 velocity=0 time=0.028125074999999996
EXTRACT: note_on channel=0 note=67 velocity=80 time=0.010937529166666666
EXTRACT: note_on channel=1 note=58 velocity=64 time=0
EXTRACT: note_on channel=1 note=63 velocity=64 time=0
EXTRACT: note_on channel=1 note=67 velocity=64 time=0
EXTRACT: note_on channel=1 note=36 velocity=64 time=0
EXTRACT: note_on channel=1 note=48 velocity=64 time=0
EXTRACT: control_change channel=1 control=64 value=0 time=0.0015625041666666665
EXTRACT: control_change channel=1 control=64 value=127 time=0.0015625041666666665
EXTRACT: note_on channel=1 note=58 velocity=0 time=0.5296889124999999
EXTRACT: note_on channel=1 note=63 velocity=0 time=0
EXTRACT: note_on channel=1 note=67 velocity=0 time=0
EXTRACT: note_on channel=0 note=67 velocity=0 time=0.028125074999999996
EXTRACT: note_on channel=0 note=65 velocity=80 time=0.0015625041666666665
EXTRACT: note_on channel=1 note=58 velocity=64 time=0
EXTRACT: note_on channel=1 note=60 velocity=64 time=0
EXTRACT: note_on channel=1 note=65 velocity=64 time=0
EXTRACT: note_on channel=1 note=36 velocity=0 time=0.5046888458333333
EXTRACT: note_on channel=1 note=48 velocity=0 time=0
EXTRACT: note_on channel=1 note=58 velocity=0 time=0.028125074999999996
EXTRACT: note_on channel=1 note=60 velocity=0 time=0
EXTRACT: note_on channel=1 note=65 velocity=0 time=0
EXTRACT: note_on channel=0 note=65 velocity=0 time=0.028125074999999996
EXTRACT: note_on channel=0 note=67 velocity=80 time=0.0015625041666666665
EXTRACT: note_on channel=1 note=58 velocity=64 time=0
EXTRACT: note_on channel=1 note=63 velocity=64 time=0
EXTRACT: note_on channel=1 note=67 velocity=64 time=0
EXTRACT: note_on channel=1 note=36 velocity=64 time=0
EXTRACT: note_on channel=1 note=48 velocity=64 time=0
EXTRACT: note_on channel=1 note=58 velocity=0 time=0.5328139208333332
EXTRACT: note_on channel=1 note=63 velocity=0 time=0
EXTRACT: note_on channel=1 note=67 velocity=0 time=0
EXTRACT: note_on channel=0 note=67 velocity=0 time=0.028125074999999996
EXTRACT: note_on channel=0 note=65 velocity=80 time=0.0015625041666666665
EXTRACT: note_on channel=1 note=58 velocity=64 time=0
EXTRACT: note_on channel=1 note=60 velocity=64 time=0
EXTRACT: note_on channel=1 note=65 velocity=64 time=0
EXTRACT: note_on channel=1 note=36 velocity=0 time=0.5046888458333333
EXTRACT: note_on channel=1 note=48 velocity=0 time=0
EXTRACT: note_on channel=1 note=58 velocity=0 time=0.028125074999999996
EXTRACT: note_on channel=1 note=60 velocity=0 time=0
EXTRACT: note_on channel=1 note=65 velocity=0 time=0
EXTRACT: note_on channel=0 note=65 velocity=0 time=0.028125074999999996
EXTRACT: note_on channel=0 note=65 velocity=80 time=0.0015625041666666665
EXTRACT: note_on channel=1 note=58 velocity=64 time=0
EXTRACT: note_on channel=1 note=60 velocity=64 time=0
EXTRACT: note_on channel=1 note=65 velocity=64 time=0
EXTRACT: note_on channel=1 note=36 velocity=64 time=0
EXTRACT: note_on channel=1 note=48 velocity=64 time=0
EXTRACT: note_on channel=1 note=58 velocity=0 time=0.3546884458333333
EXTRACT: note_on channel=1 note=60 velocity=0 time=0
EXTRACT: note_on channel=1 note=65 velocity=0 time=0
EXTRACT: note_on channel=0 note=65 velocity=0 time=0.018750049999999997
EXTRACT: note_on channel=0 note=65 velocity=80 time=0.0015625041666666665
EXTRACT: note_on channel=1 note=58 velocity=64 time=0
EXTRACT: note_on channel=1 note=60 velocity=64 time=0
EXTRACT: note_on channel=1 note=65 velocity=64 time=0
EXTRACT: note_on channel=1 note=58 velocity=0 time=0.1765629708333333
EXTRACT: note_on channel=1 note=60 velocity=0 time=0
EXTRACT: note_on channel=1 note=65 velocity=0 time=0
EXTRACT: note_on channel=0 note=65 velocity=0 time=0.009375024999999999
EXTRACT: note_on channel=0 note=67 velocity=80 time=0.0015625041666666665
EXTRACT: note_on channel=1 note=67 velocity=64 time=0
EXTRACT: note_on channel=1 note=36 velocity=0 time=0.1484378958333333
EXTRACT: note_on channel=1 note=48 velocity=0 time=0
EXTRACT: note_on channel=1 note=67 velocity=0 time=0.028125074999999996
EXTRACT: note_on channel=0 note=67 velocity=0 time=0.009375024999999999
EXTRACT: note_on channel=0 note=67 velocity=80 time=0.0015625041666666665
EXTRACT: note_on channel=1 note=58 velocity=64 time=0
EXTRACT: note_on channel=1 note=63 velocity=64 time=0
EXTRACT: note_on channel=1 note=67 velocity=64 time=0
EXTRACT: note_on channel=1 note=32 velocity=64 time=0
EXTRACT: note_on channel=1 note=44 velocity=64 time=0
EXTRACT: control_change channel=1 control=64 value=0 time=0.0015625041666666665
EXTRACT: control_change channel=1 control=64 value=127 time=0.0015625041666666665
EXTRACT: note_on channel=1 note=58 velocity=0 time=0.5296889124999999
EXTRACT: note_on channel=1 note=63 velocity=0 time=0
EXTRACT: note_on channel=1 note=67 velocity=0 time=0
EXTRACT: note_on channel=0 note=67 velocity=0 time=0.028125074999999996
EXTRACT: note_on channel=0 note=65 velocity=80 time=0.0015625041666666665
EXTRACT: note_on channel=1 note=58 velocity=64 time=0
EXTRACT: note_on channel=1 note=60 velocity=64 time=0
EXTRACT: note_on channel=1 note=65 velocity=64 time=0
EXTRACT: note_on channel=1 note=32 velocity=0 time=0.5046888458333333
EXTRACT: note_on channel=1 note=44 velocity=0 time=0
EXTRACT: note_on channel=1 note=58 velocity=0 time=0.028125074999999996
EXTRACT: note_on channel=1 note=60 velocity=0 time=0
EXTRACT: note_on channel=1 note=65 velocity=0 time=0
EXTRACT: note_on channel=0 note=65 velocity=0 time=0.028125074999999996
EXTRACT: note_on channel=0 note=67 velocity=80 time=0.0015625041666666665
EXTRACT: note_on channel=1 note=58 velocity=64 time=0
EXTRACT: note_on channel=1 note=63 velocity=64 time=0
EXTRACT: note_on channel=1 note=67 velocity=64 time=0
EXTRACT: note_on channel=1 note=32 velocity=64 time=0
EXTRACT: note_on channel=1 note=44 velocity=64 time=0
EXTRACT: note_on channel=0 note=67 velocity=0 time=0.1859379958333333
EXTRACT: note_on channel=0 note=68 velocity=80 time=0.0015625041666666665
EXTRACT: note_on channel=1 note=58 velocity=0 time=0.3453134208333333
EXTRACT: note_on channel=1 note=63 velocity=0 time=0
EXTRACT: note_on channel=1 note=67 velocity=0 time=0
EXTRACT: note_on channel=0 note=68 velocity=0 time=0.028125074999999996
EXTRACT: note_on channel=0 note=67 velocity=80 time=0.0015625041666666665
EXTRACT: note_on channel=1 note=58 velocity=64 time=0
EXTRACT: note_on channel=1 note=60 velocity=64 time=0
EXTRACT: note_on channel=1 note=65 velocity=64 time=0
EXTRACT: note_on channel=1 note=32 velocity=0 time=0.5046888458333333
EXTRACT: note_on channel=1 note=44 velocity=0 time=0
EXTRACT: note_on channel=1 note=58 velocity=0 time=0.028125074999999996
EXTRACT: note_on channel=1 note=60 velocity=0 time=0
EXTRACT: note_on channel=1 note=65 velocity=0 time=0
EXTRACT: note_on channel=0 note=67 velocity=0 time=0.028125074999999996
EXTRACT: note_on channel=0 note=65 velocity=80 time=0.0015625041666666665
EXTRACT: note_on channel=1 note=58 velocity=64 time=0
EXTRACT: note_on channel=1 note=60 velocity=64 time=0
EXTRACT: note_on channel=1 note=65 velocity=64 time=0
EXTRACT: note_on channel=1 note=32 velocity=64 time=0
EXTRACT: note_on channel=1 note=44 velocity=64 time=0
EXTRACT: note_on channel=0 note=65 velocity=0 time=0.1859379958333333
EXTRACT: note_on channel=0 note=63 velocity=80 time=0.0015625041666666665
EXTRACT: note_on channel=1 note=58 velocity=0 time=0.16718794583333332
EXTRACT: note_on channel=1 note=60 velocity=0 time=0
EXTRACT: note_on channel=1 note=65 velocity=0 time=0
EXTRACT: note_on channel=0 note=63 velocity=0 time=0.018750049999999997
EXTRACT: note_on channel=0 note=63 velocity=80 time=0.0015625041666666665
EXTRACT: note_on channel=1 note=58 velocity=64 time=0
EXTRACT: note_on channel=1 note=60 velocity=64 time=0
EXTRACT: note_on channel=1 note=65 velocity=64 time=0
EXTRACT: note_on channel=1 note=58 velocity=0 time=0.1765629708333333
EXTRACT: note_on channel=1 note=60 velocity=0 time=0
EXTRACT: note_on channel=1 note=65 velocity=0 time=0
EXTRACT: note_on channel=1 note=67 velocity=64 time=0.010937529166666666
EXTRACT: note_on channel=1 note=32 velocity=0 time=0.1484378958333333
EXTRACT: note_on channel=1 note=44 velocity=0 time=0
EXTRACT: note_on channel=1 note=67 velocity=0 time=0.028125074999999996
EXTRACT: note_on channel=0 note=63 velocity=0 time=0.009375024999999999
EXTRACT: note_on channel=0 note=63 velocity=80 time=0.0015625041666666665
EXTRACT: note_on channel=1 note=58 velocity=64 time=0
EXTRACT: note_on channel=1 note=60 velocity=64 time=0
EXTRACT: note_on channel=1 note=67 velocity=64 time=0
EXTRACT: note_on channel=1 note=39 velocity=64 time=0
EXTRACT: note_on channel=1 note=51 velocity=64 time=0
EXTRACT: control_change channel=1 control=64 value=0 time=0.0015625041666666665
EXTRACT: control_change channel=1 control=64 value=127 time=0.0015625041666666665
EXTRACT: note_on channel=1 note=58 velocity=0 time=0.5296889124999999
EXTRACT: note_on channel=1 note=60 velocity=0 time=0
EXTRACT: note_on channel=1 note=67 velocity=0 time=0
EXTRACT: note_on channel=0 note=63 velocity=0 time=0.028125074999999996
EXTRACT: note_on channel=0 note=60 velocity=80 time=0.0015625041666666665
EXTRACT: note_on channel=1 note=58 velocity=64 time=0
EXTRACT: note_on channel=1 note=60 velocity=64 time=0
EXTRACT: note_on channel=1 note=65 velocity=64 time=0
EXTRACT: note_on channel=1 note=39 velocity=0 time=0.1484378958333333
EXTRACT: note_on channel=1 note=51 velocity=0 time=0
EXTRACT: note_on channel=1 note=58 velocity=0 time=0.028125074999999996
EXTRACT: note_on channel=1 note=60 velocity=0 time=0
EXTRACT: note_on channel=1 note=65 velocity=0 time=0
EXTRACT: note_on channel=1 note=58 velocity=64 time=0.010937529166666666
EXTRACT: note_on channel=1 note=60 velocity=64 time=0
EXTRACT: note_on channel=1 note=65 velocity=64 time=0
EXTRACT: note_on channel=1 note=39 velocity=64 time=0
EXTRACT: note_on channel=1 note=51 velocity=64 time=0
EXTRACT: note_on channel=1 note=58 velocity=0 time=0.3546884458333333
EXTRACT: note_on channel=1 note=60 velocity=0 time=0
EXTRACT: note_on channel=1 note=65 velocity=0 time=0
EXTRACT: note_on channel=1 note=39 velocity=0 time=0
EXTRACT: note_on channel=1 note=51 velocity=0 time=0
EXTRACT: note_on channel=1 note=67 velocity=64 time=0.020312554166666663
EXTRACT: note_on channel=1 note=39 velocity=64 time=0
EXTRACT: note_on channel=1 note=51 velocity=64 time=0
EXTRACT: note_on channel=1 note=67 velocity=0 time=0.1765629708333333
EXTRACT: note_on channel=1 note=60 velocity=64 time=0.010937529166666666
EXTRACT: note_on channel=1 note=63 velocity=64 time=0
EXTRACT: note_on channel=1 note=68 velocity=64 time=0
EXTRACT: note_on channel=0 note=60 velocity=0 time=0.1859379958333333
EXTRACT: note_on channel=1 note=60 velocity=0 time=0.16875045
EXTRACT: note_on channel=1 note=63 velocity=0 time=0
EXTRACT: note_on channel=1 note=68 velocity=0 time=0
EXTRACT: note_on channel=0 note=63 velocity=80 time=0.020312554166666663
EXTRACT: note_on channel=1 note=60 velocity=64 time=0
EXTRACT: note_on channel=1 note=63 velocity=64 time=0
EXTRACT: note_on channel=1 note=67 velocity=64 time=0
EXTRACT: note_on channel=0 note=63 velocity=0 time=0.1859379958333333
EXTRACT: note_on channel=0 note=63 velocity=80 time=0.0015625041666666665
EXTRACT: note_on channel=0 note=63 velocity=0 time=0.1859379958333333
EXTRACT: note_on channel=0 note=63 velocity=80 time=0.0015625041666666665
EXTRACT: note_on channel=1 note=39 velocity=0 time=0.12968784583333332
EXTRACT: note_on channel=1 note=51 velocity=0 time=0
EXTRACT: note_on channel=1 note=60 velocity=0 time=0.028125074999999996
EXTRACT: note_on channel=1 note=63 velocity=0 time=0
EXTRACT: note_on channel=1 note=67 velocity=0 time=0
EXTRACT: note_on channel=1 note=56 velocity=64 time=0.029687579166666665
EXTRACT: note_on channel=1 note=60 velocity=64 time=0
EXTRACT: note_on channel=1 note=65 velocity=64 time=0
EXTRACT: note_on channel=1 note=39 velocity=64 time=0
EXTRACT: note_on channel=1 note=51 velocity=64 time=0
EXTRACT: note_on channel=1 note=56 velocity=0 time=0.1765629708333333
EXTRACT: note_on channel=1 note=60 velocity=0 time=0
EXTRACT: note_on channel=1 note=65 velocity=0 time=0
EXTRACT: note_on channel=0 note=63 velocity=0 time=0.009375024999999999
EXTRACT: note_on channel=0 note=63 velocity=80 time=0.0015625041666666665
EXTRACT: note_on channel=1 note=63 velocity=64 time=0
EXTRACT: note_on channel=1 note=63 velocity=0 time=0.1765629708333333
EXTRACT: note_on channel=1 note=56 velocity=64 time=0.010937529166666666
EXTRACT: note_on channel=1 note=60 velocity=64 time=0
EXTRACT: note_on channel=1 note=63 velocity=64 time=0
EXTRACT: note_on channel=0 note=63 velocity=0 time=0.1859379958333333
EXTRACT: note_on channel=0 note=63 velocity=80 time=0.0015625041666666665
EXTRACT: note_on channel=1 note=39 velocity=0 time=0.1484378958333333
EXTRACT: note_on channel=1 note=51 velocity=0 time=0
EXTRACT: note_on channel=1 note=56 velocity=0 time=0.018750049999999997
EXTRACT: note_on channel=1 note=60 velocity=0 time=0
EXTRACT: note_on channel=1 note=63 velocity=0 time=0
EXTRACT: note_on channel=0 note=63 velocity=0 time=0.018750049999999997
EXTRACT: note_on channel=0 note=65 velocity=80 time=0.0015625041666666665
EXTRACT: note_on channel=1 note=58 velocity=64 time=0
EXTRACT: note_on channel=1 note=62 velocity=64 time=0
EXTRACT: note_on channel=1 note=65 velocity=64 time=0
EXTRACT: note_on channel=1 note=46 velocity=64 time=0
EXTRACT: control_change channel=1 control=64 value=0 time=0.0015625041666666665
EXTRACT: note_on channel=0 note=65 velocity=0 time=0.5593764916666666
EXTRACT: note_on channel=0 note=62 velocity=80 time=0.0015625041666666665
EXTRACT: note_on channel=1 note=58 velocity=0 time=0.8609397958333332
EXTRACT: note_on channel=1 note=62 velocity=0 time=0
EXTRACT: note_on channel=1 note=65 velocity=0 time=0
EXTRACT: note_on channel=1 note=46 velocity=0 time=0
EXTRACT: note_on channel=0 note=62 velocity=0 time=0.07500019999999999
EXTRACT: note_on channel=0 note=63 velocity=80 time=1.3140660041666665
EXTRACT: note_on channel=1 note=63 velocity=64 time=0
EXTRACT: note_on channel=1 note=63 velocity=0 time=0.1765629708333333
EXTRACT: note_on channel=0 note=63 velocity=0 time=0.009375024999999999
EXTRACT: note_on channel=0 note=70 velocity=80 time=0.0015625041666666665
EXTRACT: note_on channel=1 note=60 velocity=64 time=0
EXTRACT: note_on channel=1 note=63 velocity=64 time=0
EXTRACT: note_on channel=1 note=70 velocity=64 time=0
EXTRACT: note_on channel=1 note=48 velocity=64 time=0
EXTRACT: note_on channel=1 note=60 velocity=0 time=0.5328139208333332
EXTRACT: note_on channel=1 note=63 velocity=0 time=0
EXTRACT: note_on channel=1 note=70 velocity=0 time=0
EXTRACT: note_on channel=0 note=70 velocity=0 time=0.028125074999999996
EXTRACT: note_on channel=0 note=67 velocity=80 time=0.0015625041666666665
EXTRACT: note_on channel=1 note=60 velocity=64 time=0
EXTRACT: note_on channel=1 note=63 velocity=64 time=0
EXTRACT: note_on channel=1 note=67 velocity=64 time=0
EXTRACT: note_on channel=1 note=60 velocity=0 time=0.3546884458333333
EXTRACT: note_on channel=1 note=63 velocity=0 time=0
EXTRACT: note_on channel=1 note=67 velocity=0 time=0
EXTRACT: note_on channel=1 note=60 velocity=64 time=0.020312554166666663
EXTRACT: note_on channel=1 note=60 velocity=0 time=0.1765629708333333
EXTRACT: note_on channel=1 note=63 velocity=64 time=0.010937529166666666
EXTRACT: note_on channel=1 note=63 velocity=0 time=0.1765629708333333
EXTRACT: note_on channel=1 note=60 velocity=64 time=0.010937529166666666
EXTRACT: note_on channel=1 note=48 velocity=0 time=0.11093779583333332
EXTRACT: note_on channel=1 note=60 velocity=0 time=0.065625175
EXTRACT: note_on channel=0 note=67 velocity=0 time=0.009375024999999999
EXTRACT: note_on channel=0 note=70 velocity=80 time=0.0015625041666666665
EXTRACT: note_on channel=1 note=60 velocity=64 time=0
EXTRACT: note_on channel=1 note=63 velocity=64 time=0
EXTRACT: note_on channel=1 note=70 velocity=64 time=0
EXTRACT: note_on channel=1 note=44 velocity=64 time=0
EXTRACT: note_on channel=1 note=60 velocity=0 time=0.5328139208333332
EXTRACT: note_on channel=1 note=63 velocity=0 time=0
EXTRACT: note_on channel=1 note=70 velocity=0 time=0
EXTRACT: note_on channel=0 note=70 velocity=0 time=0.028125074999999996
EXTRACT: note_on channel=0 note=67 velocity=80 time=0.0015625041666666665
EXTRACT: note_on channel=1 note=60 velocity=64 time=0
EXTRACT: note_on channel=1 note=63 velocity=64 time=0
EXTRACT: note_on channel=1 note=67 velocity=64 time=0
EXTRACT: note_on channel=1 note=60 velocity=0 time=0.3546884458333333
EXTRACT: note_on channel=1 note=63 velocity=0 time=0
EXTRACT: note_on channel=1 note=67 velocity=0 time=0
EXTRACT: note_on channel=1 note=60 velocity=64 time=0.020312554166666663
EXTRACT: note_on channel=1 note=60 velocity=0 time=0.1765629708333333
EXTRACT: note_on channel=1 note=63 velocity=64 time=0.010937529166666666
EXTRACT: note_on channel=1 note=63 velocity=0 time=0.1765629708333333
EXTRACT: note_on channel=1 note=60 velocity=64 time=0.010937529166666666
EXTRACT: note_on channel=1 note=44 velocity=0 time=0.11093779583333332
EXTRACT: note_on channel=1 note=60 velocity=0 time=0.065625175
EXTRACT: note_on channel=0 note=67 velocity=0 time=0.009375024999999999
EXTRACT: note_on channel=0 note=67 velocity=80 time=0.0015625041666666665
EXTRACT: note_on channel=1 note=58 velocity=64 time=0
EXTRACT: note_on channel=1 note=63 velocity=64 time=0
EXTRACT: note_on channel=1 note=67 velocity=64 time=0
EXTRACT: note_on channel=1 note=39 velocity=64 time=0
EXTRACT: note_on channel=1 note=58 velocity=0 time=0.3546884458333333
EXTRACT: note_on channel=1 note=63 velocity=0 time=0
EXTRACT: note_on channel=1 note=67 velocity=0 time=0
EXTRACT: note_on channel=0 note=67 velocity=0 time=0.018750049999999997
EXTRACT: note_on channel=0 note=67 velocity=80 time=0.0015625041666666665
EXTRACT: note_on channel=1 note=67 velocity=64 time=0
EXTRACT: note_on channel=1 note=67 velocity=0 time=0.1765629708333333
EXTRACT: note_on channel=0 note=67 velocity=0 time=0.009375024999999999
EXTRACT: note_on channel=0 note=67 velocity=80 time=0.0015625041666666665
EXTRACT: note_on channel=1 note=58 velocity=64 time=0
EXTRACT: note_on channel=1 note=63 velocity=64 time=0
EXTRACT: note_on channel=1 note=67 velocity=64 time=0
EXTRACT: note_on channel=1 note=58 velocity=0 time=0.5328139208333332
EXTRACT: note_on channel=1 note=63 velocity=0 time=0
EXTRACT: note_on channel=1 note=67 velocity=0 time=0
EXTRACT: note_on channel=0 note=67 velocity=0 time=0.028125074999999996
EXTRACT: note_on channel=0 note=65 velocity=80 time=0.0015625041666666665
EXTRACT: note_on channel=1 note=65 velocity=64 time=0
EXTRACT: note_on channel=1 note=65 velocity=0 time=0.1765629708333333
EXTRACT: note_on channel=0 note=65 velocity=0 time=0.009375024999999999
EXTRACT: note_on channel=0 note=68 velocity=80 time=0.0015625041666666665
EXTRACT: note_on channel=1 note=60 velocity=64 time=0
EXTRACT: note_on channel=1 note=63 velocity=64 time=0
EXTRACT: note_on channel=1 note=68 velocity=64 time=0
EXTRACT: note_on channel=1 note=39 velocity=0 time=0.11093779583333332
EXTRACT: note_on channel=1 note=41 velocity=64 time=0.07656270416666666
EXTRACT: note_on channel=1 note=60 velocity=0 time=0.3453134208333333
EXTRACT: note_on channel=1 note=63 velocity=0 time=0
EXTRACT: note_on channel=1 note=68 velocity=0 time=0
EXTRACT: note_on channel=0 note=68 velocity=0 time=0.028125074999999996
EXTRACT: note_on channel=0 note=67 velocity=80 time=0.0015625041666666665
EXTRACT: note_on channel=1 note=60 velocity=64 time=0
EXTRACT: note_on channel=1 note=63 velocity=64 time=0
EXTRACT: note_on channel=1 note=67 velocity=64 time=0
EXTRACT: note_on channel=1 note=60 velocity=0 time=0.3546884458333333
EXTRACT: note_on channel=1 note=63 velocity=0 time=0
EXTRACT: note_on channel=1 note=67 velocity=0 time=0
EXTRACT: note_on channel=0 note=67 velocity=0 time=0.018750049999999997
EXTRACT: note_on channel=0 note=63 velocity=80 time=0.0015625041666666665
EXTRACT: note_on channel=1 note=60 velocity=64 time=0
EXTRACT: note_on channel=1 note=63 velocity=64 time=0
EXTRACT: note_on channel=1 note=41 velocity=0 time=0.31718834583333333
EXTRACT: note_on channel=1 note=60 velocity=0 time=0.037500099999999995
EXTRACT: note_on channel=1 note=63 velocity=0 time=0
EXTRACT: note_on channel=0 note=63 velocity=0 time=0.018750049999999997
EXTRACT: note_on channel=0 note=70 velocity=80 time=0.0015625041666666665
EXTRACT: note_on channel=1 note=60 velocity=64 time=0
EXTRACT: note_on channel=1 note=63 velocity=64 time=0
EXTRACT: note_on channel=1 note=70 velocity=64 time=0
EXTRACT: note_on channel=1 note=48 velocity=64 time=0
EXTRACT: note_on channel=1 note=60 velocity=0 time=0.7109393958333332
EXTRACT: note_on channel=1 note=63 velocity=0 time=0
EXTRACT: note_on channel=1 note=70 velocity=0 time=0
EXTRACT: note_on channel=0 note=70 velocity=0 time=0.037500099999999995
EXTRACT: note_on channel=0 note=67 velocity=80 time=0.0015625041666666665
EXTRACT: note_on channel=1 note=60 velocity=64 time=0
EXTRACT: note_on channel=1 note=63 velocity=64 time=0
EXTRACT: note_on channel=1 note=67 velocity=64 time=0
EXTRACT: note_on channel=1 note=48 velocity=0 time=0.6734392958333333
EXTRACT: note_on channel=1 note=60 velocity=0 time=0.037500099999999995
EXTRACT: note_on channel=1 note=63 velocity=0 time=0
EXTRACT: note_on channel=1 note=67 velocity=0 time=0
EXTRACT: note_on channel=0 note=67 velocity=0 time=0.037500099999999995
EXTRACT: note_on channel=0 note=70 velocity=80 time=0.0015625041666666665
EXTRACT: note_on channel=1 note=60 velocity=64 time=0
EXTRACT: note_on channel=1 note=63 velocity=64 time=0
EXTRACT: note_on channel=1 note=70 velocity=64 time=0
EXTRACT: note_on channel=1 note=44 velocity=64 time=0
EXTRACT: note_on channel=1 note=60 velocity=0 time=0.7109393958333332
EXTRACT: note_on channel=1 note=63 velocity=0 time=0
EXTRACT: note_on channel=1 note=70 velocity=0 time=0
EXTRACT: note_on channel=0 note=70 velocity=0 time=0.037500099999999995
EXTRACT: note_on channel=0 note=67 velocity=80 time=0.0015625041666666665
EXTRACT: note_on channel=1 note=60 velocity=64 time=0
EXTRACT: note_on channel=1 note=63 velocity=64 time=0
EXTRACT: note_on channel=1 note=67 velocity=64 time=0
EXTRACT: note_on channel=1 note=44 velocity=0 time=1.0296902458333332
EXTRACT: note_on channel=1 note=60 velocity=0 time=0.037500099999999995
EXTRACT: note_on channel=1 note=63 velocity=0 time=0
EXTRACT: note_on channel=1 note=67 velocity=0 time=0
EXTRACT: note_on channel=0 note=67 velocity=0 time=0.05625014999999999
EXTRACT: note_on channel=0 note=67 velocity=80 time=0.0015625041666666665
EXTRACT: note_on channel=1 note=58 velocity=64 time=0
EXTRACT: note_on channel=1 note=63 velocity=64 time=0
EXTRACT: note_on channel=1 note=67 velocity=64 time=0
EXTRACT: note_on channel=1 note=39 velocity=64 time=0
EXTRACT: note_on channel=1 note=58 velocity=0 time=0.3546884458333333
EXTRACT: note_on channel=1 note=63 velocity=0 time=0
EXTRACT: note_on channel=1 note=67 velocity=0 time=0
EXTRACT: note_on channel=0 note=67 velocity=0 time=0.018750049999999997
EXTRACT: note_on channel=0 note=67 velocity=80 time=0.0015625041666666665
EXTRACT: note_on channel=1 note=67 velocity=64 time=0
EXTRACT: note_on channel=1 note=67 velocity=0 time=0.1765629708333333
EXTRACT: note_on channel=0 note=67 velocity=0 time=0.009375024999999999
EXTRACT: note_on channel=0 note=67 velocity=80 time=0.0015625041666666665
EXTRACT: note_on channel=1 note=58 velocity=64 time=0
EXTRACT: note_on channel=1 note=63 velocity=64 time=0
EXTRACT: note_on channel=1 note=67 velocity=64 time=0
EXTRACT: note_on channel=1 note=58 velocity=0 time=0.5328139208333332
EXTRACT: note_on channel=1 note=63 velocity=0 time=0
EXTRACT: note_on channel=1 note=67 velocity=0 time=0
EXTRACT: note_on channel=0 note=67 velocity=0 time=0.028125074999999996
EXTRACT: note_on channel=0 note=65 velocity=80 time=0.0015625041666666665
EXTRACT: note_on channel=1 note=65 velocity=64 time=0
EXTRACT: note_on channel=1 note=65 velocity=0 time=0.1765629708333333
EXTRACT: note_on channel=0 note=65 velocity=0 time=0.009375024999999999
EXTRACT: note_on channel=0 note=68 velocity=80 time=0.0015625041666666665
EXTRACT: note_on channel=1 note=60 velocity=64 time=0
EXTRACT: note_on channel=1 note=63 velocity=64 time=0
EXTRACT: note_on channel=1 note=68 velocity=64 time=0
EXTRACT: note_on channel=1 note=39 velocity=0 time=0.11093779583333332
EXTRACT: note_on channel=1 note=41 velocity=64 time=0.07656270416666666
EXTRACT: note_on channel=1 note=60 velocity=0 time=0.3453134208333333
EXTRACT: note_on channel=1 note=63 velocity=0 time=0
EXTRACT: note_on channel=1 note=68 velocity=0 time=0
EXTRACT: note_on channel=0 note=68 velocity=0 time=0.028125074999999996
EXTRACT: note_on channel=0 note=67 velocity=80 time=0.0015625041666666665
EXTRACT: note_on channel=1 note=60 velocity=64 time=0
EXTRACT: note_on channel=1 note=63 velocity=64 time=0
EXTRACT: note_on channel=1 note=67 velocity=64 time=0
EXTRACT: note_on channel=1 note=60 velocity=0 time=0.3546884458333333
EXTRACT: note_on channel=1 note=63 velocity=0 time=0
EXTRACT: note_on channel=1 note=67 velocity=0 time=0
EXTRACT: note_on channel=0 note=67 velocity=0 time=0.018750049999999997
EXTRACT: note_on channel=0 note=60 velocity=80 time=0.0015625041666666665
EXTRACT: note_on channel=0 note=63 velocity=80 time=0
EXTRACT: note_on channel=1 note=60 velocity=64 time=0
EXTRACT: note_on channel=1 note=63 velocity=64 time=0
EXTRACT: note_on channel=1 note=60 velocity=0 time=0.1765629708333333
EXTRACT: note_on channel=1 note=63 velocity=0 time=0
EXTRACT: note_on channel=0 note=60 velocity=0 time=0.009375024999999999
EXTRACT: note_on channel=0 note=63 velocity=0 time=0
EXTRACT: note_on channel=0 note=62 velocity=80 time=0.0015625041666666665
EXTRACT: note_on channel=0 note=65 velocity=80 time=0
EXTRACT: note_on channel=1 note=65 velocity=64 time=0
EXTRACT: note_on channel=1 note=65 velocity=0 time=0.3546884458333333
EXTRACT: note_on channel=0 note=62 velocity=0 time=0.018750049999999997
EXTRACT: note_on channel=0 note=65 velocity=0 time=0
EXTRACT: note_on channel=0 note=63 velocity=80 time=0.0015625041666666665
EXTRACT: note_on channel=0 note=67 velocity=80 time=0
EXTRACT: note_on channel=1 note=60 velocity=64 time=0
EXTRACT: note_on channel=1 note=63 velocity=64 time=0
EXTRACT: note_on channel=1 note=67 velocity=64 time=0
EXTRACT: note_on channel=1 note=41 velocity=0 time=0.11093779583333332
EXTRACT: note_on channel=0 note=63 velocity=0 time=0.07500019999999999
EXTRACT: note_on channel=0 note=63 velocity=80 time=0.0015625041666666665
EXTRACT: note_on channel=1 note=48 velocity=64 time=0
EXTRACT: note_on channel=1 note=60 velocity=0 time=0.3453134208333333
EXTRACT: note_on channel=1 note=63 velocity=0 time=0
EXTRACT: note_on channel=1 note=67 velocity=0 time=0
EXTRACT: note_on channel=0 note=67 velocity=0 time=0.028125074999999996
EXTRACT: note_on channel=0 note=63 velocity=0 time=0
EXTRACT: note_on channel=0 note=63 velocity=80 time=0.0015625041666666665
EXTRACT: note_on channel=0 note=70 velocity=80 time=0
EXTRACT: note_on channel=1 note=60 velocity=64 time=0
EXTRACT: note_on channel=1 note=63 velocity=64 time=0
EXTRACT: note_on channel=1 note=70 velocity=64 time=0
EXTRACT: note_on channel=1 note=60 velocity=0 time=0.3546884458333333
EXTRACT: note_on channel=1 note=63 velocity=0 time=0
EXTRACT: note_on channel=1 note=70 velocity=0 time=0
EXTRACT: note_on channel=1 note=60 velocity=64 time=0.020312554166666663
EXTRACT: note_on channel=1 note=63 velocity=64 time=0
EXTRACT: note_on channel=1 note=70 velocity=64 time=0
EXTRACT: note_on channel=1 note=60 velocity=0 time=0.1765629708333333
EXTRACT: note_on channel=1 note=63 velocity=0 time=0
EXTRACT: note_on channel=1 note=70 velocity=0 time=0
EXTRACT: note_on channel=1 note=60 velocity=64 time=0.010937529166666666
EXTRACT: note_on channel=1 note=63 velocity=64 time=0
EXTRACT: note_on channel=1 note=70 velocity=64 time=0
EXTRACT: note_on channel=1 note=48 velocity=0 time=0.48593879583333327
EXTRACT: note_on channel=1 note=60 velocity=0 time=0.046875125
EXTRACT: note_on channel=1 note=63 velocity=0 time=0
EXTRACT: note_on channel=1 note=70 velocity=0 time=0
EXTRACT: note_on channel=0 note=63 velocity=0 time=0.028125074999999996
EXTRACT: note_on channel=0 note=70 velocity=0 time=0
EXTRACT: note_on channel=1 note=75 velocity=64 time=0.0015625041666666665
EXTRACT: note_on channel=1 note=79 velocity=64 time=0
EXTRACT: note_on channel=1 note=44 velocity=64 time=0
EXTRACT: note_on channel=1 note=75 velocity=0 time=0.23593812916666665
EXTRACT: note_on channel=1 note=79 velocity=0 time=0
EXTRACT: note_on channel=1 note=74 velocity=64 time=0.014062537499999998
EXTRACT: note_on channel=1 note=77 velocity=64 time=0
EXTRACT: note_on channel=1 note=74 velocity=0 time=0.23593812916666665
EXTRACT: note_on channel=1 note=77 velocity=0 time=0
EXTRACT: note_on channel=1 note=72 velocity=64 time=0.014062537499999998
EXTRACT: note_on channel=1 note=75 velocity=64 time=0
EXTRACT: note_on channel=1 note=72 velocity=0 time=0.23593812916666665
EXTRACT: note_on channel=1 note=75 velocity=0 time=0
EXTRACT: note_on channel=1 note=68 velocity=64 time=0.014062537499999998
EXTRACT: note_on channel=1 note=72 velocity=64 time=0
EXTRACT: note_on channel=1 note=68 velocity=0 time=0.23593812916666665
EXTRACT: note_on channel=1 note=72 velocity=0 time=0
EXTRACT: note_on channel=1 note=67 velocity=64 time=0.014062537499999998
EXTRACT: note_on channel=1 note=70 velocity=64 time=0
EXTRACT: note_on channel=1 note=67 velocity=0 time=0.23593812916666665
EXTRACT: note_on channel=1 note=70 velocity=0 time=0
EXTRACT: note_on channel=1 note=65 velocity=64 time=0.014062537499999998
EXTRACT: note_on channel=1 note=68 velocity=64 time=0
EXTRACT: note_on channel=1 note=44 velocity=0 time=0.1734379625
EXTRACT: note_on channel=1 note=65 velocity=0 time=0.06250016666666666
EXTRACT: note_on channel=1 note=68 velocity=0 time=0
EXTRACT: note_on channel=0 note=72 velocity=80 time=0.014062537499999998
EXTRACT: note_on channel=1 note=63 velocity=64 time=0
EXTRACT: note_on channel=1 note=68 velocity=64 time=0
EXTRACT: note_on channel=1 note=72 velocity=64 time=0
EXTRACT: note_on channel=1 note=44 velocity=64 time=0
EXTRACT: note_on channel=1 note=63 velocity=0 time=0.3546884458333333
EXTRACT: note_on channel=1 note=68 velocity=0 time=0
EXTRACT: note_on channel=1 note=72 velocity=0 time=0
EXTRACT: note_on channel=0 note=72 velocity=0 time=0.018750049999999997
EXTRACT: note_on channel=0 note=70 velocity=80 time=0.0015625041666666665
EXTRACT: note_on channel=1 note=70 velocity=64 time=0
EXTRACT: note_on channel=1 note=44 velocity=0 time=0.15781292083333331
EXTRACT: note_on channel=1 note=70 velocity=0 time=0.018750049999999997
EXTRACT: note_on channel=0 note=70 velocity=0 time=0.009375024999999999
EXTRACT: note_on channel=0 note=70 velocity=80 time=0.0015625041666666665
EXTRACT: note_on channel=1 note=63 velocity=64 time=0
EXTRACT: note_on channel=1 note=67 velocity=64 time=0
EXTRACT: note_on channel=1 note=70 velocity=64 time=0
EXTRACT: note_on channel=1 note=41 velocity=64 time=0
EXTRACT: note_on channel=1 note=63 velocity=0 time=0.5328139208333332
EXTRACT: note_on channel=1 note=67 velocity=0 time=0
EXTRACT: note_on channel=1 note=70 velocity=0 time=0
EXTRACT: note_on channel=0 note=70 velocity=0 time=0.028125074999999996
EXTRACT: note_on channel=0 note=67 velocity=80 time=0.0015625041666666665
EXTRACT: note_on channel=1 note=67 velocity=64 time=0
EXTRACT: note_on channel=1 note=41 velocity=0 time=0.1484378958333333
EXTRACT: note_on channel=1 note=67 velocity=0 time=0.028125074999999996
EXTRACT: note_on channel=0 note=67 velocity=0 time=0.009375024999999999
EXTRACT: note_on channel=0 note=67 velocity=80 time=0.0015625041666666665
EXTRACT: note_on channel=1 note=58 velocity=64 time=0
EXTRACT: note_on channel=1 note=63 velocity=64 time=0
EXTRACT: note_on channel=1 note=67 velocity=64 time=0
EXTRACT: note_on channel=1 note=46 velocity=64 time=0
EXTRACT: note_on channel=1 note=58 velocity=0 time=0.3546884458333333
EXTRACT: note_on channel=1 note=63 velocity=0 time=0
EXTRACT: note_on channel=1 note=67 velocity=0 time=0
EXTRACT: note_on channel=1 note=46 velocity=0 time=0
EXTRACT: note_on channel=0 note=67 velocity=0 time=0.018750049999999997
EXTRACT: note_on channel=0 note=65 velocity=80 time=0.0015625041666666665
EXTRACT: note_on channel=1 note=58 velocity=64 time=0
EXTRACT: note_on channel=1 note=62 velocity=64 time=0
EXTRACT: note_on channel=1 note=65 velocity=64 time=0
EXTRACT: note_on channel=1 note=46 velocity=64 time=0
EXTRACT: note_on channel=0 note=65 velocity=0 time=0.1859379958333333
EXTRACT: note_on channel=0 note=63 velocity=80 time=0.0015625041666666665
EXTRACT: note_on channel=1 note=58 velocity=0 time=0.5234388958333333
EXTRACT: note_on channel=1 note=62 velocity=0 time=0
EXTRACT: note_on channel=1 note=65 velocity=0 time=0
EXTRACT: note_on channel=0 note=63 velocity=0 time=0.037500099999999995
EXTRACT: note_on channel=0 note=63 velocity=80 time=0.0015625041666666665
EXTRACT: note_on channel=1 note=63 velocity=64 time=0
EXTRACT: note_on channel=1 note=63 velocity=0 time=0.1765629708333333
EXTRACT: note_on channel=0 note=63 velocity=0 time=0.009375024999999999
EXTRACT: note_on channel=0 note=65 velocity=80 time=0.0015625041666666665
EXTRACT: note_on channel=1 note=65 velocity=64 time=0
EXTRACT: note_on channel=1 note=65 velocity=0 time=0.1765629708333333
EXTRACT: note_on channel=0 note=65 velocity=0 time=0.009375024999999999
EXTRACT: note_on channel=0 note=67 velocity=80 time=0.0015625041666666665
EXTRACT: note_on channel=1 note=67 velocity=64 time=0
EXTRACT: note_on channel=1 note=46 velocity=0 time=0.12031282083333332
EXTRACT: note_on channel=1 note=67 velocity=0 time=0.05625014999999999
EXTRACT: note_on channel=0 note=67 velocity=0 time=0.009375024999999999
EXTRACT: note_on channel=0 note=68 velocity=80 time=0
EXTRACT: note_on channel=1 note=60 velocity=64 time=0
EXTRACT: note_on channel=1 note=65 velocity=64 time=0
EXTRACT: note_on channel=1 note=68 velocity=64 time=0
EXTRACT: note_on channel=1 note=41 velocity=64 time=0
EXTRACT: note_on channel=1 note=60 velocity=0 time=0.5328139208333332
EXTRACT: note_on channel=1 note=65 velocity=0 time=0
EXTRACT: note_on channel=1 note=68 velocity=0 time=0
EXTRACT: note_on channel=1 note=41 velocity=0 time=0
EXTRACT: note_on channel=0 note=68 velocity=0 time=0.028125074999999996
EXTRACT: note_on channel=0 note=67 velocity=80 time=0.0015625041666666665
EXTRACT: note_on channel=1 note=58 velocity=64 time=0
EXTRACT: note_on channel=1 note=63 velocity=64 time=0
EXTRACT: note_on channel=1 note=67 velocity=64 time=0
EXTRACT: note_on channel=1 note=39 velocity=64 time=0
EXTRACT: note_on channel=1 note=58 velocity=0 time=0.5328139208333332
EXTRACT: note_on channel=1 note=63 velocity=0 time=0
EXTRACT: note_on channel=1 note=67 velocity=0 time=0
EXTRACT: note_on channel=1 note=39 velocity=0 time=0
EXTRACT: note_on channel=0 note=67 velocity=0 time=0.028125074999999996
EXTRACT: note_on channel=0 note=63 velocity=80 time=0.0015625041666666665
EXTRACT: note_on channel=1 note=56 velocity=64 time=0
EXTRACT: note_on channel=1 note=60 velocity=64 time=0
EXTRACT: note_on channel=1 note=63 velocity=64 time=0
EXTRACT: note_on channel=1 note=44 velocity=64 time=0
EXTRACT: note_on channel=1 note=56 velocity=0 time=1.4046912458333332
EXTRACT: note_on channel=1 note=60 velocity=0 time=0
EXTRACT: note_on channel=1 note=63 velocity=0 time=0
EXTRACT: note_on channel=0 note=63 velocity=0 time=0.09375025
EXTRACT: note_on channel=1 note=63 velocity=64 time=0.0015625041666666665
EXTRACT: note_on channel=1 note=63 velocity=0 time=0.5328139208333332
EXTRACT: note_on channel=0 note=63 velocity=80 time=0.029687579166666665
EXTRACT: note_on channel=1 note=63 velocity=64 time=0
EXTRACT: note_on channel=1 note=63 velocity=0 time=0.1765629708333333
EXTRACT: note_on channel=0 note=63 velocity=0 time=0.009375024999999999
EXTRACT: note_on channel=0 note=63 velocity=80 time=0.0015625041666666665
EXTRACT: note_on channel=1 note=63 velocity=64 time=0
EXTRACT: note_on channel=1 note=63 velocity=0 time=0.3546884458333333
EXTRACT: note_on channel=0 note=63 velocity=0 time=0.018750049999999997
EXTRACT: note_on channel=0 note=62 velocity=80 time=0.0015625041666666665
EXTRACT: note_on channel=1 note=62 velocity=64 time=0
EXTRACT: note_on channel=1 note=62 velocity=0 time=0.1765629708333333
EXTRACT: note_on channel=0 note=62 velocity=0 time=0.009375024999999999
EXTRACT: note_on channel=0 note=63 velocity=80 time=0.0015625041666666665
EXTRACT: note_on channel=1 note=63 velocity=64 time=0
EXTRACT: note_on channel=1 note=44 velocity=0 time=0.01718754583333333
EXTRACT: note_on channel=0 note=68 velocity=80 time=0.17031295416666664
EXTRACT: note_on channel=1 note=48 velocity=64 time=0
EXTRACT: control_change channel=1 control=64 value=0 time=0.0015625041666666665
EXTRACT: control_change channel=1 control=64 value=0 time=0
EXTRACT: control_change channel=1 control=64 value=0 time=0
EXTRACT: control_change channel=1 control=64 value=127 time=0.0015625041666666665
EXTRACT: control_change channel=1 control=64 value=127 time=0
EXTRACT: control_change channel=1 control=64 value=127 time=0
EXTRACT: control_change channel=1 control=64 value=127 time=0
EXTRACT: note_on channel=1 note=63 velocity=0 time=0.1734379625
EXTRACT: note_on channel=0 note=63 velocity=0 time=0.009375024999999999
EXTRACT: note_on channel=0 note=68 velocity=0 time=0
EXTRACT: note_on channel=0 note=63 velocity=80 time=0.0015625041666666665
EXTRACT: note_on channel=0 note=67 velocity=80 time=0
EXTRACT: note_on channel=1 note=63 velocity=64 time=0
EXTRACT: note_on channel=1 note=63 velocity=0 time=0.1765629708333333
EXTRACT: note_on channel=1 note=60 velocity=64 time=0.010937529166666666
EXTRACT: note_on channel=1 note=60 velocity=0 time=0.1765629708333333
EXTRACT: note_on channel=1 note=63 velocity=64 time=0.010937529166666666
EXTRACT: note_on channel=1 note=48 velocity=0 time=0.1484378958333333
EXTRACT: note_on channel=1 note=63 velocity=0 time=0.028125074999999996
EXTRACT: note_on channel=1 note=70 velocity=76 time=0.010937529166666666
EXTRACT: note_on channel=1 note=58 velocity=64 time=0
EXTRACT: note_on channel=1 note=70 velocity=0 time=0.1859379958333333
EXTRACT: note_on channel=1 note=63 velocity=64 time=0.0015625041666666665
EXTRACT: note_on channel=1 note=63 velocity=0 time=0.1765629708333333
EXTRACT: note_on channel=1 note=70 velocity=64 time=0.010937529166666666
EXTRACT: note_on channel=1 note=70 velocity=0 time=0.1765629708333333
EXTRACT: note_on channel=1 note=63 velocity=64 time=0.010937529166666666
EXTRACT: note_on channel=1 note=63 velocity=0 time=0.1765629708333333
EXTRACT: note_on channel=1 note=60 velocity=64 time=0.010937529166666666
EXTRACT: control_change channel=1 control=64 value=0 time=0.0015625041666666665
EXTRACT: control_change channel=1 control=64 value=0 time=0
EXTRACT: control_change channel=1 control=64 value=127 time=0.0015625041666666665
EXTRACT: control_change channel=1 control=64 value=127 time=0
EXTRACT: note_on channel=1 note=60 velocity=0 time=0.1734379625
EXTRACT: note_on channel=1 note=63 velocity=64 time=0.010937529166666666
EXTRACT: note_on channel=1 note=63 velocity=0 time=0.1765629708333333
EXTRACT: note_on channel=1 note=60 velocity=64 time=0.010937529166666666
EXTRACT: note_on channel=1 note=58 velocity=0 time=0.12031282083333332
EXTRACT: note_on channel=1 note=60 velocity=0 time=0.05625014999999999
EXTRACT: note_on channel=1 note=63 velocity=76 time=0.010937529166666666
EXTRACT: note_on channel=1 note=51 velocity=64 time=0
EXTRACT: note_on channel=1 note=51 velocity=0 time=0.1765629708333333
EXTRACT: note_on channel=0 note=63 velocity=0 time=0.009375024999999999
EXTRACT: note_on channel=0 note=67 velocity=0 time=0
EXTRACT: note_on channel=1 note=63 velocity=0 time=0
EXTRACT: note_on channel=1 note=70 velocity=76 time=0.0015625041666666665
EXTRACT: note_on channel=1 note=58 velocity=64 time=0
EXTRACT: note_on channel=1 note=70 velocity=0 time=0.1859379958333333
EXTRACT: note_on channel=1 note=63 velocity=64 time=0.0015625041666666665
EXTRACT: note_on channel=1 note=63 velocity=0 time=0.1765629708333333
EXTRACT: note_on channel=1 note=70 velocity=64 time=0.010937529166666666
EXTRACT: note_on channel=1 note=58 velocity=0 time=0.15781292083333331
EXTRACT: note_on channel=1 note=70 velocity=0 time=0.018750049999999997
EXTRACT: note_on channel=1 note=63 velocity=64 time=0.010937529166666666
EXTRACT: note_on channel=1 note=51 velocity=64 time=0
EXTRACT: note_on channel=1 note=63 velocity=0 time=0.1765629708333333
EXTRACT: note_on channel=1 note=51 velocity=0 time=0
EXTRACT: note_on channel=1 note=60 velocity=76 time=0.010937529166666666
EXTRACT: note_on channel=1 note=44 velocity=64 time=0
EXTRACT: note_on channel=1 note=58 velocity=64 time=0
EXTRACT: control_change channel=1 control=64 value=0 time=0.0015625041666666665
EXTRACT: control_change channel=1 control=64 value=0 time=0
EXTRACT: control_change channel=1 control=64 value=0 time=0
EXTRACT: control_change channel=1 control=64 value=127 time=0.0015625041666666665
EXTRACT: control_change channel=1 control=64 value=127 time=0
EXTRACT: control_change channel=1 control=64 value=127 time=0
EXTRACT: control_change channel=1 control=64 value=127 time=0
EXTRACT: note_on channel=1 note=60 velocity=0 time=0.18281298749999997
EXTRACT: note_on channel=1 note=63 velocity=64 time=0.0015625041666666665
EXTRACT: note_on channel=1 note=63 velocity=0 time=0.1765629708333333
EXTRACT: note_on channel=1 note=60 velocity=64 time=0.010937529166666666
EXTRACT: note_on channel=1 note=44 velocity=0 time=0.15781292083333331
EXTRACT: note_on channel=1 note=58 velocity=0 time=0
EXTRACT: note_on channel=1 note=60 velocity=0 time=0.018750049999999997
EXTRACT: note_on channel=1 note=63 velocity=64 time=0.010937529166666666
EXTRACT: note_on channel=1 note=51 velocity=64 time=0
EXTRACT: note_on channel=1 note=63 velocity=0 time=0.1765629708333333
EXTRACT: note_on channel=1 note=51 velocity=0 time=0
EXTRACT: note_on channel=1 note=70 velocity=76 time=0.010937529166666666
EXTRACT: note_on channel=1 note=58 velocity=64 time=0
EXTRACT: note_on channel=1 note=70 velocity=0 time=0.1859379958333333
EXTRACT: note_on channel=1 note=63 velocity=64 time=0.0015625041666666665
EXTRACT: note_on channel=1 note=63 velocity=0 time=0.1765629708333333
EXTRACT: note_on channel=1 note=70 velocity=64 time=0.010937529166666666
EXTRACT: note_on channel=1 note=70 velocity=0 time=0.1765629708333333
EXTRACT: note_on channel=1 note=63 velocity=64 time=0.010937529166666666
EXTRACT: note_on channel=1 note=63 velocity=0 time=0.1765629708333333
EXTRACT: note_on channel=1 note=60 velocity=64 time=0.010937529166666666
EXTRACT: control_change channel=1 control=64 value=0 time=0.0015625041666666665
EXTRACT: control_change channel=1 control=64 value=0 time=0
EXTRACT: control_change channel=1 control=64 value=0 time=0
EXTRACT: control_change channel=1 control=64 value=127 time=0.0015625041666666665
EXTRACT: control_change channel=1 control=64 value=127 time=0
EXTRACT: note_on channel=1 note=60 velocity=0 time=0.1734379625
EXTRACT: note_on channel=1 note=63 velocity=64 time=0.010937529166666666
EXTRACT: note_on channel=1 note=63 velocity=0 time=0.1765629708333333
EXTRACT: note_on channel=1 note=60 velocity=64 time=0.010937529166666666
EXTRACT: note_on channel=1 note=58 velocity=0 time=0.12031282083333332
EXTRACT: note_on channel=1 note=60 velocity=0 time=0.05625014999999999
EXTRACT: note_on channel=0 note=63 velocity=80 time=0.010937529166666666
EXTRACT: note_on channel=1 note=63 velocity=76 time=0
EXTRACT: note_on channel=1 note=51 velocity=64 time=0
EXTRACT: note_on channel=1 note=51 velocity=0 time=0.1765629708333333
EXTRACT: note_on channel=0 note=63 velocity=0 time=0.009375024999999999
EXTRACT: note_on channel=1 note=63 velocity=0 time=0
EXTRACT: note_on channel=0 note=63 velocity=80 time=0.0015625041666666665
EXTRACT: note_on channel=1 note=70 velocity=76 time=0
EXTRACT: note_on channel=1 note=58 velocity=64 time=0
EXTRACT: note_on channel=1 note=70 velocity=0 time=0.1859379958333333
EXTRACT: note_on channel=1 note=63 velocity=64 time=0.0015625041666666665
EXTRACT: note_on channel=1 note=63 velocity=0 time=0.1765629708333333
EXTRACT: note_on channel=0 note=63 velocity=0 time=0.009375024999999999
EXTRACT: note_on channel=0 note=62 velocity=80 time=0.0015625041666666665
EXTRACT: note_on channel=1 note=70 velocity=64 time=0
EXTRACT: note_on channel=1 note=70 velocity=0 time=0.1765629708333333
EXTRACT: note_on channel=0 note=62 velocity=0 time=0.009375024999999999
EXTRACT: note_on channel=0 note=63 velocity=80 time=0.0015625041666666665
EXTRACT: note_on channel=1 note=63 velocity=64 time=0
EXTRACT: note_on channel=1 note=58 velocity=0 time=0.1484378958333333
EXTRACT: note_on channel=1 note=63 velocity=0 time=0.028125074999999996
EXTRACT: note_on channel=0 note=63 velocity=0 time=0.009375024999999999
EXTRACT: note_on channel=0 note=63 velocity=80 time=0.0015625041666666665
EXTRACT: note_on channel=1 note=60 velocity=76 time=0
EXTRACT: note_on channel=1 note=41 velocity=64 time=0
EXTRACT: control_change channel=1 control=64 value=0 time=0.0015625041666666665
EXTRACT: control_change channel=1 control=64 value=0 time=0
EXTRACT: control_change channel=1 control=64 value=0 time=0
EXTRACT: control_change channel=1 control=64 value=0 time=0
EXTRACT: control_change channel=1 control=64 value=0 time=0
EXTRACT: control_change channel=1 control=64 value=0 time=0
EXTRACT: control_change channel=1 control=64 value=0 time=0
EXTRACT: control_change channel=1 control=64 value=0 time=0
EXTRACT: control_change channel=1 control=64 value=0 time=0
EXTRACT: control_change channel=1 control=64 value=0 time=0
EXTRACT: control_change channel=1 control=64 value=0 time=0
EXTRACT: control_change channel=1 control=64 value=0 time=0
EXTRACT: control_change channel=1 control=64 value=127 time=0.0015625041666666665
EXTRACT: control_change channel=1 control=64 value=127 time=0
EXTRACT: control_change channel=1 control=64 value=127 time=0
EXTRACT: control_change channel=1 control=64 value=127 time=0
EXTRACT: control_change channel=1 control=64 value=127 time=0
EXTRACT: control_change channel=1 control=64 value=127 time=0
EXTRACT: control_change channel=1 control=64 value=127 time=0
EXTRACT: control_change channel=1 control=64 value=127 time=0
EXTRACT: control_change channel=1 control=64 value=127 time=0
EXTRACT: control_change channel=1 control=64 value=127 time=0
EXTRACT: control_change channel=1 control=64 value=127 time=0
EXTRACT: control_change channel=1 control=64 value=127 time=0
EXTRACT: note_on channel=0 note=63 velocity=0 time=0.18281298749999997
EXTRACT: note_on channel=1 note=60 velocity=0 time=0
EXTRACT: note_on channel=0 note=70 velocity=80 time=0.0015625041666666665
EXTRACT: note_on channel=1 note=63 velocity=64 time=0
EXTRACT: note_on channel=1 note=63 velocity=0 time=0.1765629708333333
EXTRACT: note_on channel=1 note=60 velocity=64 time=0.010937529166666666
EXTRACT: note_on channel=1 note=41 velocity=0 time=0.15781292083333331
EXTRACT: note_on channel=1 note=60 velocity=0 time=0.018750049999999997
EXTRACT: note_on channel=1 note=63 velocity=64 time=0.010937529166666666
EXTRACT: note_on channel=1 note=48 velocity=64 time=0
EXTRACT: note_on channel=1 note=63 velocity=0 time=0.1765629708333333
EXTRACT: note_on channel=1 note=48 velocity=0 time=0
EXTRACT: note_on channel=1 note=67 velocity=76 time=0.010937529166666666
EXTRACT: note_on channel=1 note=56 velocity=64 time=0
EXTRACT: note_on channel=1 note=67 velocity=0 time=0.1859379958333333
EXTRACT: note_on channel=1 note=63 velocity=64 time=0.0015625041666666665
EXTRACT: note_on channel=1 note=63 velocity=0 time=0.1765629708333333
EXTRACT: note_on channel=1 note=67 velocity=64 time=0.010937529166666666
EXTRACT: note_on channel=1 note=67 velocity=0 time=0.1765629708333333
EXTRACT: note_on channel=1 note=63 velocity=64 time=0.010937529166666666
EXTRACT: note_on channel=1 note=63 velocity=0 time=0.1765629708333333
EXTRACT: note_on channel=0 note=70 velocity=0 time=0.009375024999999999
EXTRACT: note_on channel=0 note=72 velocity=80 time=0.0015625041666666665
EXTRACT: note_on channel=1 note=60 velocity=64 time=0
EXTRACT: control_change channel=1 control=64 value=0 time=0.0015625041666666665
EXTRACT: control_change channel=1 control=64 value=0 time=0
EXTRACT: control_change channel=1 control=64 value=0 time=0
EXTRACT: control_change channel=1 control=64 value=0 time=0
EXTRACT: control_change channel=1 control=64 value=127 time=0.0015625041666666665
EXTRACT: control_change channel=1 control=64 value=127 time=0
EXTRACT: control_change channel=1 control=64 value=127 time=0
EXTRACT: control_change channel=1 control=64 value=127 time=0
EXTRACT: note_on channel=1 note=60 velocity=0 time=0.1734379625
EXTRACT: note_on channel=1 note=63 velocity=64 time=0.010937529166666666
EXTRACT: note_on channel=1 note=63 velocity=0 time=0.1765629708333333
EXTRACT: note_on channel=1 note=60 velocity=64 time=0.010937529166666666
EXTRACT: note_on channel=1 note=56 velocity=0 time=0.12031282083333332
EXTRACT: note_on channel=1 note=60 velocity=0 time=0.05625014999999999
EXTRACT: note_on channel=1 note=63 velocity=76 time=0.010937529166666666
EXTRACT: note_on channel=1 note=48 velocity=64 time=0
EXTRACT: note_on channel=1 note=48 velocity=0 time=0.1765629708333333
EXTRACT: note_on channel=1 note=63 velocity=0 time=0.009375024999999999
EXTRACT: note_on channel=1 note=67 velocity=76 time=0.0015625041666666665
EXTRACT: note_on channel=1 note=56 velocity=64 time=0
EXTRACT: note_on channel=1 note=67 velocity=0 time=0.1859379958333333
EXTRACT: note_on channel=1 note=63 velocity=64 time=0.0015625041666666665
EXTRACT: note_on channel=1 note=63 velocity=0 time=0.1765629708333333
EXTRACT: note_on channel=1 note=67 velocity=64 time=0.010937529166666666
EXTRACT: note_on channel=1 note=67 velocity=0 time=0.1765629708333333
EXTRACT: note_on channel=1 note=63 velocity=64 time=0.010937529166666666
EXTRACT: note_on channel=1 note=56 velocity=0 time=0.1484378958333333
EXTRACT: note_on channel=1 note=63 velocity=0 time=0.028125074999999996
EXTRACT: note_on channel=1 note=60 velocity=76 time=0.010937529166666666
EXTRACT: note_on channel=1 note=44 velocity=64 time=0
EXTRACT: control_change channel=1 control=64 value=0 time=0.0015625041666666665
EXTRACT: control_change channel=1 control=64 value=0 time=0
EXTRACT: control_change channel=1 control=64 value=0 time=0
EXTRACT: control_change channel=1 control=64 value=0 time=0
EXTRACT: control_change channel=1 control=64 value=0 time=0
EXTRACT: control_change channel=1 control=64 value=0 time=0
EXTRACT: control_change channel=1 control=64 value=0 time=0
EXTRACT: control_change channel=1 control=64 value=0 time=0
EXTRACT: control_change channel=1 control=64 value=0 time=0
EXTRACT: control_change channel=1 control=64 value=0 time=0
EXTRACT: control_change channel=1 control=64 value=0 time=0
EXTRACT: control_change channel=1 control=64 value=127 time=0.0015625041666666665
EXTRACT: control_change channel=1 control=64 value=127 time=0
EXTRACT: control_change channel=1 control=64 value=127 time=0
EXTRACT: control_change channel=1 control=64 value=127 time=0
EXTRACT: control_change channel=1 control=64 value=127 time=0
EXTRACT: control_change channel=1 control=64 value=127 time=0
EXTRACT: control_change channel=1 control=64 value=127 time=0
EXTRACT: control_change channel=1 control=64 value=127 time=0
EXTRACT: control_change channel=1 control=64 value=127 time=0
EXTRACT: control_change channel=1 control=64 value=127 time=0
EXTRACT: control_change channel=1 control=64 value=127 time=0
EXTRACT: control_change channel=1 control=64 value=127 time=0
EXTRACT: note_on channel=1 note=60 velocity=0 time=0.18281298749999997
EXTRACT: note_on channel=1 note=63 velocity=64 time=0.0015625041666666665
EXTRACT: note_on channel=1 note=63 velocity=0 time=0.1765629708333333
EXTRACT: note_on channel=0 note=72 velocity=0 time=0.009375024999999999
EXTRACT: note_on channel=0 note=70 velocity=80 time=0.0015625041666666665
EXTRACT: note_on channel=1 note=60 velocity=64 time=0
EXTRACT: note_on channel=1 note=44 velocity=0 time=0.15781292083333331
EXTRACT: note_on channel=1 note=60 velocity=0 time=0.018750049999999997
EXTRACT: note_on channel=1 note=63 velocity=64 time=0.010937529166666666
EXTRACT: note_on channel=1 note=51 velocity=64 time=0
EXTRACT: note_on channel=1 note=63 velocity=0 time=0.1765629708333333
EXTRACT: note_on channel=1 note=51 velocity=0 time=0
EXTRACT: note_on channel=1 note=68 velocity=76 time=0.010937529166666666
EXTRACT: note_on channel=1 note=56 velocity=64 time=0
EXTRACT: note_on channel=1 note=68 velocity=0 time=0.1859379958333333
EXTRACT: note_on channel=1 note=63 velocity=64 time=0.0015625041666666665
EXTRACT: note_on channel=1 note=63 velocity=0 time=0.1765629708333333
EXTRACT: note_on channel=0 note=70 velocity=0 time=0.009375024999999999
EXTRACT: note_on channel=0 note=72 velocity=80 time=0.0015625041666666665
EXTRACT: note_on channel=1 note=68 velocity=64 time=0
EXTRACT: note_on channel=1 note=68 velocity=0 time=0.1765629708333333
EXTRACT: note_on channel=1 note=63 velocity=64 time=0.010937529166666666
EXTRACT: note_on channel=1 note=56 velocity=0 time=0.1484378958333333
EXTRACT: note_on channel=1 note=63 velocity=0 time=0.028125074999999996
EXTRACT: note_on channel=0 note=72 velocity=0 time=0.009375024999999999
EXTRACT: note_on channel=1 note=60 velocity=64 time=0.0015625041666666665
EXTRACT: note_on channel=1 note=44 velocity=64 time=0
EXTRACT: note_on channel=1 note=60 velocity=0 time=0.1765629708333333
EXTRACT: note_on channel=1 note=63 velocity=64 time=0.010937529166666666
EXTRACT: note_on channel=1 note=63 velocity=0 time=0.1765629708333333
EXTRACT: note_on channel=1 note=60 velocity=76 time=0.010937529166666666
EXTRACT: note_on channel=1 note=60 velocity=0 time=0.1859379958333333
EXTRACT: note_on channel=1 note=68 velocity=76 time=0.0015625041666666665
EXTRACT: note_on channel=1 note=68 velocity=0 time=0.1859379958333333
EXTRACT: note_on channel=0 note=67 velocity=80 time=0.0015625041666666665
EXTRACT: note_on channel=1 note=67 velocity=76 time=0
EXTRACT: note_on channel=0 note=67 velocity=0 time=0.3734384958333333
EXTRACT: note_on channel=1 note=67 velocity=0 time=0
EXTRACT: note_on channel=0 note=67 velocity=80 time=0.0015625041666666665
EXTRACT: note_on channel=1 note=67 velocity=76 time=0
EXTRACT: note_on channel=0 note=67 velocity=0 time=0.1859379958333333
EXTRACT: note_on channel=1 note=67 velocity=0 time=0
EXTRACT: note_on channel=0 note=70 velocity=80 time=0.0015625041666666665
EXTRACT: note_on channel=1 note=70 velocity=64 time=0
EXTRACT: note_on channel=1 note=44 velocity=0 time=0.11093779583333332
EXTRACT: note_on channel=1 note=48 velocity=64 time=0.07656270416666666
EXTRACT: control_change channel=1 control=64 value=0 time=0.0015625041666666665
EXTRACT: control_change channel=1 control=64 value=0 time=0
EXTRACT: note_on channel=1 note=70 velocity=0 time=0.16562544166666665
EXTRACT: note_on channel=0 note=70 velocity=0 time=0.018750049999999997
EXTRACT: note_on channel=0 note=65 velocity=80 time=0.0015625041666666665
EXTRACT: note_on channel=1 note=65 velocity=64 time=0
EXTRACT: note_on channel=1 note=65 velocity=0 time=0.1765629708333333
EXTRACT: note_on channel=0 note=65 velocity=0 time=0.009375024999999999
EXTRACT: note_on channel=0 note=63 velocity=80 time=0.0015625041666666665
EXTRACT: note_on channel=1 note=63 velocity=64 time=0
EXTRACT: note_on channel=0 note=63 velocity=0 time=0.1859379958333333
EXTRACT: note_on channel=0 note=63 velocity=80 time=0.0015625041666666665
EXTRACT: note_on channel=1 note=48 velocity=0 time=0.1484378958333333
EXTRACT: note_on channel=1 note=63 velocity=0 time=0.018750049999999997
EXTRACT: note_on channel=1 note=70 velocity=64 time=0.020312554166666663
EXTRACT: note_on channel=1 note=58 velocity=64 time=0
EXTRACT: note_on channel=1 note=70 velocity=0 time=0.1765629708333333
EXTRACT: note_on channel=1 note=63 velocity=64 time=0.010937529166666666
EXTRACT: note_on channel=1 note=63 velocity=0 time=0.1765629708333333
EXTRACT: note_on channel=1 note=70 velocity=64 time=0.010937529166666666
EXTRACT: note_on channel=1 note=70 velocity=0 time=0.1765629708333333
EXTRACT: note_on channel=1 note=63 velocity=64 time=0.010937529166666666
EXTRACT: note_on channel=1 note=58 velocity=0 time=0.1484378958333333
EXTRACT: note_on channel=1 note=63 velocity=0 time=0.028125074999999996
EXTRACT: note_on channel=1 note=60 velocity=64 time=0.010937529166666666
EXTRACT: note_on channel=1 note=48 velocity=64 time=0
EXTRACT: note_on channel=1 note=60 velocity=0 time=0.1765629708333333
EXTRACT: note_on channel=1 note=63 velocity=64 time=0.010937529166666666
EXTRACT: note_on channel=1 note=63 velocity=0 time=0.1765629708333333
EXTRACT: note_on channel=1 note=60 velocity=64 time=0.010937529166666666
EXTRACT: note_on channel=1 note=48 velocity=0 time=0.15781292083333331
EXTRACT: note_on channel=1 note=60 velocity=0 time=0.018750049999999997
EXTRACT: note_on channel=0 note=63 velocity=0 time=0.009375024999999999
EXTRACT: note_on channel=0 note=67 velocity=80 time=0.0015625041666666665
EXTRACT: note_on channel=1 note=63 velocity=64 time=0
EXTRACT: note_on channel=1 note=55 velocity=64 time=0
EXTRACT: note_on channel=1 note=63 velocity=0 time=0.1765629708333333
EXTRACT: note_on channel=1 note=55 velocity=0 time=0
EXTRACT: note_on channel=0 note=67 velocity=0 time=0.009375024999999999
EXTRACT: note_on channel=0 note=67 velocity=80 time=0.0015625041666666665
EXTRACT: note_on channel=1 note=70 velocity=64 time=0
EXTRACT: note_on channel=1 note=58 velocity=64 time=0
EXTRACT: note_on channel=1 note=70 velocity=0 time=0.1765629708333333
EXTRACT: note_on channel=1 note=63 velocity=64 time=0.010937529166666666
EXTRACT: note_on channel=1 note=63 velocity=0 time=0.1765629708333333
EXTRACT: note_on channel=1 note=70 velocity=64 time=0.010937529166666666
EXTRACT: note_on channel=1 note=58 velocity=0 time=0.15781292083333331
EXTRACT: note_on channel=1 note=70 velocity=0 time=0.018750049999999997
EXTRACT: note_on channel=0 note=67 velocity=0 time=0.009375024999999999
EXTRACT: note_on channel=0 note=65 velocity=80 time=0.0015625041666666665
EXTRACT: note_on channel=1 note=63 velocity=64 time=0
EXTRACT: note_on channel=1 note=51 velocity=64 time=0
EXTRACT: note_on channel=1 note=63 velocity=0 time=0.1765629708333333
EXTRACT: note_on channel=1 note=51 velocity=0 time=0
EXTRACT: note_on channel=1 note=60 velocity=76 time=0.010937529166666666
EXTRACT: note_on channel=1 note=44 velocity=64 time=0
EXTRACT: note_on channel=0 note=65 velocity=0 time=0.1859379958333333
EXTRACT: note_on channel=1 note=60 velocity=0 time=0
EXTRACT: note_on channel=0 note=63 velocity=80 time=0.0015625041666666665
EXTRACT: note_on channel=1 note=63 velocity=64 time=0
EXTRACT: note_on channel=1 note=63 velocity=0 time=0.1765629708333333
EXTRACT: note_on channel=1 note=60 velocity=64 time=0.010937529166666666
EXTRACT: note_on channel=1 note=44 velocity=0 time=0.15781292083333331
EXTRACT: note_on channel=1 note=60 velocity=0 time=0.018750049999999997
EXTRACT: note_on channel=1 note=63 velocity=64 time=0.010937529166666666
EXTRACT: note_on channel=1 note=51 velocity=64 time=0
EXTRACT: note_on channel=1 note=63 velocity=0 time=0.1765629708333333
EXTRACT: note_on channel=1 note=51 velocity=0 time=0
EXTRACT: note_on channel=0 note=63 velocity=0 time=0.009375024999999999
EXTRACT: note_on channel=1 note=70 velocity=76 time=0.0015625041666666665
EXTRACT: note_on channel=1 note=58 velocity=64 time=0
EXTRACT: note_on channel=1 note=70 velocity=0 time=0.1859379958333333
EXTRACT: note_on channel=1 note=63 velocity=64 time=0.0015625041666666665
EXTRACT: note_on channel=1 note=63 velocity=0 time=0.1765629708333333
EXTRACT: note_on channel=1 note=70 velocity=64 time=0.010937529166666666
EXTRACT: note_on channel=1 note=70 velocity=0 time=0.1765629708333333
EXTRACT: note_on channel=1 note=63 velocity=64 time=0.010937529166666666
EXTRACT: note_on channel=1 note=58 velocity=0 time=0.1484378958333333
EXTRACT: note_on channel=1 note=63 velocity=0 time=0.028125074999999996
EXTRACT: note_on channel=1 note=60 velocity=64 time=0.010937529166666666
EXTRACT: note_on channel=1 note=44 velocity=64 time=0
EXTRACT: note_on channel=1 note=60 velocity=0 time=0.1765629708333333
EXTRACT: note_on channel=1 note=63 velocity=64 time=0.010937529166666666
EXTRACT: note_on channel=1 note=63 velocity=0 time=0.1765629708333333
EXTRACT: note_on channel=1 note=60 velocity=64 time=0.010937529166666666
EXTRACT: note_on channel=1 note=44 velocity=0 time=0.15781292083333331
EXTRACT: note_on channel=1 note=60 velocity=0 time=0.018750049999999997
EXTRACT: note_on channel=1 note=63 velocity=76 time=0.010937529166666666
EXTRACT: note_on channel=1 note=51 velocity=64 time=0
EXTRACT: note_on channel=1 note=51 velocity=0 time=0.1765629708333333
EXTRACT: note_on channel=1 note=63 velocity=0 time=0.009375024999999999
EXTRACT: note_on channel=1 note=70 velocity=76 time=0.0015625041666666665
EXTRACT: note_on channel=1 note=58 velocity=64 time=0
EXTRACT: note_on channel=1 note=70 velocity=0 time=0.1859379958333333
EXTRACT: note_on channel=1 note=63 velocity=64 time=0.0015625041666666665
EXTRACT: note_on channel=1 note=63 velocity=0 time=0.1765629708333333
EXTRACT: note_on channel=0 note=63 velocity=80 time=0.010937529166666666
EXTRACT: note_on channel=1 note=70 velocity=64 time=0
EXTRACT: note_on channel=1 note=70 velocity=0 time=0.1765629708333333
EXTRACT: note_on channel=1 note=63 velocity=64 time=0.010937529166666666
EXTRACT: note_on channel=1 note=58 velocity=0 time=0.1484378958333333
EXTRACT: note_on channel=1 note=63 velocity=0 time=0.028125074999999996
EXTRACT: note_on channel=1 note=60 velocity=76 time=0.010937529166666666
EXTRACT: note_on channel=1 note=44 velocity=64 time=0
EXTRACT: control_change channel=1 control=64 value=0 time=0.0015625041666666665
EXTRACT: control_change channel=1 control=64 value=127 time=0.0015625041666666665
EXTRACT: control_change channel=1 control=64 value=127 time=0
EXTRACT: note_on channel=1 note=60 velocity=0 time=0.18281298749999997
EXTRACT: note_on channel=1 note=63 velocity=64 time=0.0015625041666666665
EXTRACT: note_on channel=1 note=63 velocity=0 time=0.1765629708333333
EXTRACT: note_on channel=0 note=63 velocity=0 time=0.009375024999999999
EXTRACT: note_on channel=0 note=60 velocity=80 time=0.0015625041666666665
EXTRACT: note_on channel=1 note=60 velocity=64 time=0
EXTRACT: note_on channel=1 note=44 velocity=0 time=0.15781292083333331
EXTRACT: note_on channel=1 note=60 velocity=0 time=0.018750049999999997
EXTRACT: note_on channel=1 note=63 velocity=64 time=0.010937529166666666
EXTRACT: note_on channel=1 note=51 velocity=64 time=0
EXTRACT: note_on channel=1 note=63 velocity=0 time=0.1765629708333333
EXTRACT: note_on channel=1 note=51 velocity=0 time=0
EXTRACT: note_on channel=1 note=67 velocity=76 time=0.010937529166666666
EXTRACT: note_on channel=1 note=58 velocity=64 time=0
EXTRACT: note_on channel=1 note=67 velocity=0 time=0.1859379958333333
EXTRACT: note_on channel=1 note=63 velocity=64 time=0.0015625041666666665
EXTRACT: note_on channel=1 note=63 velocity=0 time=0.1765629708333333
EXTRACT: note_on channel=0 note=60 velocity=0 time=0.009375024999999999
EXTRACT: note_on channel=0 note=63 velocity=80 time=0.0015625041666666665
EXTRACT: note_on channel=1 note=67 velocity=64 time=0
EXTRACT: note_on channel=1 note=67 velocity=0 time=0.1765629708333333
EXTRACT: note_on channel=0 note=63 velocity=0 time=0.009375024999999999
EXTRACT: note_on channel=0 note=62 velocity=80 time=0.0015625041666666665
EXTRACT: note_on channel=1 note=63 velocity=64 time=0
EXTRACT: note_on channel=1 note=58 velocity=0 time=0.1484378958333333
EXTRACT: note_on channel=1 note=63 velocity=0 time=0.028125074999999996
EXTRACT: note_on channel=0 note=62 velocity=0 time=0.009375024999999999
EXTRACT: note_on channel=0 note=60 velocity=80 time=0.0015625041666666665
EXTRACT: note_on channel=1 note=60 velocity=64 time=0
EXTRACT: note_on channel=1 note=44 velocity=64 time=0
EXTRACT: note_on channel=1 note=60 velocity=0 time=0.1765629708333333
EXTRACT: note_on channel=1 note=63 velocity=64 time=0.010937529166666666
EXTRACT: note_on channel=1 note=63 velocity=0 time=0.1765629708333333
EXTRACT: note_on channel=1 note=60 velocity=76 time=0.010937529166666666
EXTRACT: note_on channel=1 note=44 velocity=0 time=0.15781292083333331
EXTRACT: note_on channel=1 note=60 velocity=0 time=0.028125074999999996
EXTRACT: note_on channel=1 note=63 velocity=76 time=0.0015625041666666665
EXTRACT: note_on channel=1 note=51 velocity=64 time=0
EXTRACT: note_on channel=1 note=51 velocity=0 time=0.1765629708333333
EXTRACT: note_on channel=0 note=60 velocity=0 time=0.009375024999999999
EXTRACT: note_on channel=1 note=63 velocity=0 time=0
EXTRACT: note_on channel=0 note=60 velocity=80 time=0.0015625041666666665
EXTRACT: note_on channel=1 note=67 velocity=76 time=0
EXTRACT: note_on channel=1 note=58 velocity=64 time=0
EXTRACT: note_on channel=0 note=60 velocity=0 time=0.1859379958333333
EXTRACT: note_on channel=1 note=67 velocity=0 time=0
EXTRACT: note_on channel=0 note=58 velocity=80 time=0.0015625041666666665
EXTRACT: note_on channel=1 note=63 velocity=64 time=0
EXTRACT: note_on channel=1 note=63 velocity=0 time=0.1765629708333333
EXTRACT: note_on channel=0 note=58 velocity=0 time=0.009375024999999999
EXTRACT: note_on channel=0 note=60 velocity=80 time=0.0015625041666666665
EXTRACT: note_on channel=1 note=67 velocity=64 time=0
EXTRACT: note_on channel=1 note=67 velocity=0 time=0.1765629708333333
EXTRACT: note_on channel=0 note=60 velocity=0 time=0.009375024999999999
EXTRACT: note_on channel=0 note=58 velocity=80 time=0.0015625041666666665
EXTRACT: note_on channel=1 note=63 velocity=64 time=0
EXTRACT: note_on channel=1 note=58 velocity=0 time=0.1484378958333333
EXTRACT: note_on channel=1 note=63 velocity=0 time=0.028125074999999996
EXTRACT: note_on channel=0 note=58 velocity=0 time=0.009375024999999999
EXTRACT: note_on channel=0 note=58 velocity=80 time=0.0015625041666666665
EXTRACT: note_on channel=1 note=60 velocity=76 time=0
EXTRACT: note_on channel=1 note=44 velocity=64 time=0
EXTRACT: control_change channel=1 control=64 value=0 time=0.0015625041666666665
EXTRACT: control_change channel=1 control=64 value=0 time=0
EXTRACT: control_change channel=1 control=64 value=127 time=0.0015625041666666665
EXTRACT: control_change channel=1 control=64 value=127 time=0
EXTRACT: note_on channel=1 note=60 velocity=0 time=0.18281298749999997
EXTRACT: note_on channel=1 note=63 velocity=64 time=0.0015625041666666665
EXTRACT: note_on channel=1 note=63 velocity=0 time=0.1765629708333333
EXTRACT: note_on channel=0 note=58 velocity=0 time=0.009375024999999999
EXTRACT: note_on channel=0 note=55 velocity=80 time=0.0015625041666666665
EXTRACT: note_on channel=1 note=60 velocity=64 time=0
EXTRACT: note_on channel=1 note=44 velocity=0 time=0.15781292083333331
EXTRACT: note_on channel=1 note=60 velocity=0 time=0.018750049999999997
EXTRACT: note_on channel=0 note=55 velocity=0 time=0.009375024999999999
EXTRACT: note_on channel=0 note=53 velocity=80 time=0.0015625041666666665
EXTRACT: note_on channel=1 note=63 velocity=64 time=0
EXTRACT: note_on channel=1 note=51 velocity=64 time=0
EXTRACT: note_on channel=1 note=63 velocity=0 time=0.1765629708333333
EXTRACT: note_on channel=1 note=51 velocity=0 time=0
EXTRACT: note_on channel=0 note=53 velocity=0 time=0.009375024999999999
EXTRACT: note_on channel=0 note=55 velocity=80 time=0.0015625041666666665
EXTRACT: note_on channel=1 note=68 velocity=76 time=0
EXTRACT: note_on channel=1 note=58 velocity=64 time=0
EXTRACT: note_on channel=1 note=68 velocity=0 time=0.1859379958333333
EXTRACT: note_on channel=1 note=63 velocity=64 time=0.0015625041666666665
EXTRACT: note_on channel=1 note=63 velocity=0 time=0.1765629708333333
EXTRACT: note_on channel=1 note=68 velocity=64 time=0.010937529166666666
EXTRACT: note_on channel=1 note=68 velocity=0 time=0.1765629708333333
EXTRACT: note_on channel=1 note=63 velocity=64 time=0.010937529166666666
EXTRACT: note_on channel=1 note=58 velocity=0 time=0.1484378958333333
EXTRACT: note_on channel=1 note=63 velocity=0 time=0.028125074999999996
EXTRACT: note_on channel=1 note=60 velocity=64 time=0.010937529166666666
EXTRACT: note_on channel=1 note=44 velocity=64 time=0
EXTRACT: note_on channel=1 note=60 velocity=0 time=0.1765629708333333
EXTRACT: note_on channel=1 note=63 velocity=64 time=0.010937529166666666
EXTRACT: note_on channel=1 note=63 velocity=0 time=0.1765629708333333
EXTRACT: note_on channel=1 note=60 velocity=76 time=0.010937529166666666
EXTRACT: note_on channel=1 note=60 velocity=0 time=0.1859379958333333
EXTRACT: note_on channel=1 note=68 velocity=76 time=0.0015625041666666665
EXTRACT: note_on channel=0 note=55 velocity=0 time=0.1859379958333333
EXTRACT: note_on channel=1 note=68 velocity=0 time=0
EXTRACT: note_on channel=1 note=67 velocity=76 time=0.0015625041666666665
EXTRACT: note_on channel=1 note=67 velocity=0 time=0.1859379958333333
EXTRACT: note_on channel=1 note=60 velocity=64 time=0.0015625041666666665
EXTRACT: note_on channel=1 note=60 velocity=0 time=0.1765629708333333
EXTRACT: note_on channel=1 note=56 velocity=64 time=0.010937529166666666
EXTRACT: note_on channel=1 note=60 velocity=64 time=0
EXTRACT: note_on channel=1 note=63 velocity=64 time=0
EXTRACT: control_change channel=1 control=64 value=0 time=0.3765635041666666
EXTRACT: note_on channel=1 note=44 velocity=0 time=2.7718823916666664
EXTRACT: note_on channel=1 note=56 velocity=0 time=0.05625014999999999
EXTRACT: note_on channel=1 note=60 velocity=0 time=0
EXTRACT: note_on channel=1 note=63 velocity=0 time=0
EXTRACT: note_on channel=1 note=51 velocity=64 time=0.17031295416666664
EXTRACT: note_on channel=1 note=55 velocity=64 time=0
EXTRACT: note_on channel=1 note=60 velocity=64 time=0
EXTRACT: note_on channel=1 note=36 velocity=64 time=0
EXTRACT: note_on channel=1 note=48 velocity=64 time=0
EXTRACT: note_on channel=1 note=51 velocity=0 time=2.848445095833333
EXTRACT: note_on channel=1 note=55 velocity=0 time=0
EXTRACT: note_on channel=1 note=60 velocity=0 time=0
EXTRACT: note_on channel=1 note=36 velocity=0 time=0
EXTRACT: note_on channel=1 note=48 velocity=0 time=0
