EXTRACT: sysex data=(126,127,9,1) time=0
EXTRACT: sysex data=(65,16,66,18,64,0,127,0,65) time=0.0010416666666666667
EXTRACT: control_change channel=0 control=11 value=127 time=0.2169005520833333
EXTRACT: control_change channel=0 control=71 value=64 time=0.0012537604166666665
EXTRACT: control_change channel=0 control=72 value=64 time=0.0012537604166666665
EXTRACT: control_change channel=0 control=73 value=64 time=0.0012537604166666665
EXTRACT: control_change channel=0 control=74 value=64 time=0.0012537604166666665
EXTRACT: control_change channel=1 control=11 value=127 time=0.015045124999999998
EXTRACT: control_change channel=1 control=71 value=64 time=0.0012537604166666665
EXTRACT: control_change channel=1 control=72 value=64 time=0.0012537604166666665
EXTRACT: control_change channel=1 control=73 value=64 time=0.0012537604166666665
EXTRACT: control_change channel=1 control=74 value=64 time=0.0012537604166666665
EXTRACT: control_change channel=2 control=11 value=127 time=0.015045124999999998
EXTRACT: control_change channel=2 control=71 value=64 time=0.0012537604166666665
EXTRACT: control_change channel=2 control=72 value=64 time=0.0012537604166666665
EXTRACT: control_change channel=2 control=73 value=64 time=0.0012537604166666665
EXTRACT: control_change channel=2 control=74 value=64 time=0.0012537604166666665
EXTRACT: control_change channel=3 control=11 value=127 time=0.015045124999999998
EXTRACT: control_change channel=3 control=71 value=64 time=0.0012537604166666665
EXTRACT: control_change channel=3 control=72 value=64 time=0.0012537604166666665
EXTRACT: control_change channel=3 control=73 value=64 time=0.0012537604166666665
EXTRACT: control_change channel=3 control=74 value=64 time=0.0012537604166666665
EXTRACT: control_change channel=4 control=11 value=127 time=0.015045124999999998
EXTRACT: control_change channel=4 control=71 value=64 time=0.0012537604166666665
EXTRACT: control_change channel=4 control=72 value=64 time=0.0012537604166666665
EXTRACT: control_change channel=4 control=73 value=64 time=0.0012537604166666665
EXTRACT: control_change channel=4 control=74 value=64 time=0.0012537604166666665
EXTRACT: control_change channel=5 control=11 value=127 time=0.015045124999999998
EXTRACT: control_change channel=5 control=71 value=64 time=0.0012537604166666665
EXTRACT: control_change channel=5 control=72 value=64 time=0.0012537604166666665
EXTRACT: control_change channel=5 control=73 value=64 time=0.0012537604166666665
EXTRACT: control_change channel=5 control=74 value=64 time=0.0012537604166666665
EXTRACT: control_change channel=6 control=11 value=127 time=0.015045124999999998
EXTRACT: control_change channel=6 control=71 value=64 time=0.0012537604166666665
EXTRACT: control_change channel=6 control=72 value=64 time=0.0012537604166666665
EXTRACT: control_change channel=6 control=73 value=64 time=0.0012537604166666665
EXTRACT: control_change channel=6 control=74 value=64 time=0.0012537604166666665
EXTRACT: control_change channel=7 control=11 value=127 time=0.015045124999999998
EXTRACT: control_change channel=7 control=71 value=64 time=0.0012537604166666665
EXTRACT: control_change channel=7 control=72 value=64 time=0.0012537604166666665
EXTRACT: control_change channel=7 control=73 value=64 time=0.0012537604166666665
EXTRACT: control_change channel=7 control=74 value=64 time=0.0012537604166666665
EXTRACT: control_change channel=8 control=11 value=127 time=0.015045124999999998
EXTRACT: control_change channel=8 control=71 value=64 time=0.0012537604166666665
EXTRACT: control_change channel=8 control=72 value=64 time=0.0012537604166666665
EXTRACT: control_change channel=8 control=73 value=64 time=0.0012537604166666665
EXTRACT: control_change channel=8 control=74 value=64 time=0.0012537604166666665
EXTRACT: control_change channel=9 control=11 value=127 time=0.015045124999999998
EXTRACT: control_change channel=9 control=71 value=64 time=0.0012537604166666665
EXTRACT: control_change channel=9 control=72 value=64 time=0.0012537604166666665
EXTRACT: control_change channel=9 control=73 value=64 time=0.0012537604166666665
EXTRACT: control_change channel=9 control=74 value=64 time=0.0012537604166666665
EXTRACT: control_change channel=10 control=11 value=127 time=0.015045124999999998
EXTRACT: control_change channel=10 control=71 value=64 time=0.0012537604166666665
EXTRACT: control_change channel=10 control=72 value=64 time=0.0012537604166666665
EXTRACT: control_change channel=10 control=73 value=64 time=0.0012537604166666665
EXTRACT: control_change channel=10 control=74 value=64 time=0.0012537604166666665
EXTRACT: control_change channel=11 control=11 value=127 time=0.015045124999999998
EXTRACT: control_change channel=11 control=71 value=64 time=0.0012537604166666665
EXTRACT: control_change channel=11 control=72 value=64 time=0.0012537604166666665
EXTRACT: control_change channel=11 control=73 value=64 time=0.0012537604166666665
EXTRACT: control_change channel=11 control=74 value=64 time=0.0012537604166666665
EXTRACT: control_change channel=12 control=11 value=127 time=0.015045124999999998
EXTRACT: control_change channel=12 control=71 value=64 time=0.0012537604166666665
EXTRACT: control_change channel=12 control=72 value=64 time=0.0012537604166666665
EXTRACT: control_change channel=12 control=73 value=64 time=0.0012537604166666665
EXTRACT: control_change channel=12 control=74 value=64 time=0.0012537604166666665
EXTRACT: control_change channel=13 control=11 value=127 time=0.015045124999999998
EXTRACT: control_change channel=13 control=71 value=64 time=0.0012537604166666665
EXTRACT: control_change channel=13 control=72 value=64 time=0.0012537604166666665
EXTRACT: control_change channel=13 control=73 value=64 time=0.0012537604166666665
EXTRACT: control_change channel=13 control=74 value=64 time=0.0012537604166666665
EXTRACT: control_change channel=14 control=11 value=127 time=0.015045124999999998
EXTRACT: control_change channel=14 control=71 value=64 time=0.0012537604166666665
EXTRACT: control_change channel=14 control=72 value=64 time=0.0012537604166666665
EXTRACT: control_change channel=14 control=73 value=64 time=0.0012537604166666665
EXTRACT: control_change channel=14 control=74 value=64 time=0.0012537604166666665
EXTRACT: control_change channel=0 control=94 value=0 time=0.011283843749999998
EXTRACT: control_change channel=0 control=101 value=0 time=0
EXTRACT: control_change channel=0 control=100 value=0 time=0.0012537604166666665
EXTRACT: control_change channel=0 control=6 value=2 time=0.0012537604166666665
EXTRACT: control_change channel=0 control=38 value=0 time=0.0012537604166666665
EXTRACT: control_change channel=15 control=11 value=127 time=0
EXTRACT: control_change channel=15 control=71 value=64 time=0.0012537604166666665
EXTRACT: control_change channel=15 control=72 value=64 time=0.0012537604166666665
EXTRACT: pitchwheel channel=0 pitch=0 time=0.0012537604166666665
EXTRACT: control_change channel=15 control=73 value=64 time=0
EXTRACT: control_change channel=0 control=1 value=0 time=0.0012537604166666665
EXTRACT: control_change channel=15 control=74 value=64 time=0
EXTRACT: control_change channel=1 control=94 value=0 time=0.011283843749999998
EXTRACT: control_change channel=1 control=101 value=0 time=0
EXTRACT: control_change channel=1 control=100 value=0 time=0.0012537604166666665
EXTRACT: control_change channel=1 control=6 value=2 time=0.0012537604166666665
EXTRACT: control_change channel=1 control=38 value=0 time=0.0012537604166666665
EXTRACT: pitchwheel channel=1 pitch=0 time=0.0037612812499999994
EXTRACT: control_change channel=1 control=1 value=0 time=0.0012537604166666665
EXTRACT: control_change channel=2 control=94 value=0 time=0.011283843749999998
EXTRACT: control_change channel=2 control=101 value=0 time=0
EXTRACT: control_change channel=2 control=100 value=0 time=0.0012537604166666665
EXTRACT: control_change channel=2 control=6 value=2 time=0.0012537604166666665
EXTRACT: control_change channel=2 control=38 value=0 time=0.0012537604166666665
EXTRACT: pitchwheel channel=2 pitch=0 time=0.0037612812499999994
EXTRACT: control_change channel=2 control=1 value=0 time=0.0012537604166666665
EXTRACT: control_change channel=3 control=94 value=0 time=0.011283843749999998
EXTRACT: control_change channel=3 control=101 value=0 time=0
EXTRACT: control_change channel=3 control=100 value=0 time=0.0012537604166666665
EXTRACT: control_change channel=3 control=6 value=2 time=0.0012537604166666665
EXTRACT: control_change channel=3 control=38 value=0 time=0.0012537604166666665
EXTRACT: pitchwheel channel=3 pitch=0 time=0.0037612812499999994
EXTRACT: control_change channel=3 control=1 value=0 time=0.0012537604166666665
EXTRACT: control_change channel=0 control=0 value=0 time=0.002507520833333333
EXTRACT: control_change channel=0 control=32 value=0 time=0.0012537604166666665
EXTRACT: program_change channel=0 program=0 time=0
EXTRACT: control_change channel=0 control=7 value=100 time=0.0012537604166666665
EXTRACT: control_change channel=0 control=10 value=64 time=0
EXTRACT: control_change channel=0 control=91 value=0 time=0
EXTRACT: control_change channel=0 control=93 value=0 time=0
EXTRACT: control_change channel=1 control=0 value=0 time=0.0012537604166666665
EXTRACT: control_change channel=1 control=32 value=0 time=0
EXTRACT: program_change channel=1 program=0 time=0.0012537604166666665
EXTRACT: control_change channel=1 control=7 value=100 time=0
EXTRACT: control_change channel=1 control=10 value=64 time=0
EXTRACT: control_change channel=1 control=91 value=0 time=0
EXTRACT: control_change channel=1 control=93 value=0 time=0
EXTRACT: program_change channel=2 program=26 time=0.002507520833333333
EXTRACT: control_change channel=2 control=7 value=100 time=0.0012537604166666665
EXTRACT: control_change channel=2 control=10 value=64 time=0
EXTRACT: control_change channel=2 control=91 value=41 time=0
EXTRACT: control_change channel=2 control=93 value=22 time=0
EXTRACT: control_change channel=4 control=94 value=0 time=0
EXTRACT: program_change channel=3 program=65 time=0.002507520833333333
EXTRACT: control_change channel=3 control=7 value=127 time=0
EXTRACT: control_change channel=3 control=10 value=64 time=0
EXTRACT: control_change channel=3 control=91 value=56 time=0
EXTRACT: control_change channel=3 control=93 value=15 time=0
EXTRACT: control_change channel=4 control=101 value=0 time=0
EXTRACT: control_change channel=4 control=100 value=0 time=0.0012537604166666665
EXTRACT: control_change channel=4 control=6 value=2 time=0.0012537604166666665
EXTRACT: control_change channel=4 control=38 value=0 time=0.0012537604166666665
EXTRACT: program_change channel=4 program=52 time=0
EXTRACT: control_change channel=4 control=7 value=86 time=0
EXTRACT: control_change channel=4 control=10 value=64 time=0
EXTRACT: control_change channel=4 control=91 value=52 time=0
EXTRACT: control_change channel=4 control=93 value=23 time=0
EXTRACT: pitchwheel channel=4 pitch=0 time=0.0012537604166666665
EXTRACT: program_change channel=5 program=56 time=0.0012537604166666665
EXTRACT: control_change channel=4 control=1 value=0 time=0
EXTRACT: control_change channel=5 control=7 value=98 time=0
EXTRACT: control_change channel=5 control=10 value=64 time=0
EXTRACT: control_change channel=5 control=91 value=45 time=0
EXTRACT: control_change channel=5 control=93 value=0 time=0
EXTRACT: program_change channel=6 program=28 time=0.002507520833333333
EXTRACT: control_change channel=6 control=7 value=63 time=0.0012537604166666665
EXTRACT: control_change channel=6 control=10 value=64 time=0
EXTRACT: control_change channel=6 control=91 value=89 time=0
EXTRACT: control_change channel=6 control=93 value=55 time=0
EXTRACT: program_change channel=7 program=24 time=0.002507520833333333
EXTRACT: control_change channel=7 control=7 value=62 time=0
EXTRACT: control_change channel=7 control=10 value=64 time=0
EXTRACT: control_change channel=7 control=91 value=76 time=0
EXTRACT: control_change channel=7 control=93 value=20 time=0
EXTRACT: control_change channel=8 control=0 value=0 time=0.0012537604166666665
EXTRACT: control_change channel=8 control=32 value=0 time=0.0012537604166666665
EXTRACT: program_change channel=8 program=0 time=0
EXTRACT: control_change channel=8 control=7 value=100 time=0.0012537604166666665
EXTRACT: control_change channel=8 control=10 value=64 time=0
EXTRACT: control_change channel=8 control=91 value=55 time=0
EXTRACT: control_change channel=8 control=93 value=20 time=0
EXTRACT: control_change channel=9 control=0 value=0 time=0.0012537604166666665
EXTRACT: control_change channel=5 control=94 value=0 time=0
EXTRACT: control_change channel=9 control=32 value=0 time=0
EXTRACT: program_change channel=9 program=0 time=0.0012537604166666665
EXTRACT: control_change channel=9 control=7 value=100 time=0
EXTRACT: control_change channel=9 control=10 value=64 time=0
EXTRACT: control_change channel=9 control=91 value=55 time=0
EXTRACT: control_change channel=9 control=93 value=20 time=0
EXTRACT: control_change channel=10 control=0 value=0 time=0.0012537604166666665
EXTRACT: control_change channel=10 control=32 value=0 time=0.0012537604166666665
EXTRACT: program_change channel=10 program=0 time=0
EXTRACT: control_change channel=10 control=7 value=100 time=0.0012537604166666665
EXTRACT: control_change channel=10 control=10 value=64 time=0
EXTRACT: control_change channel=10 control=91 value=55 time=0
EXTRACT: control_change channel=10 control=93 value=20 time=0
EXTRACT: control_change channel=5 control=101 value=0 time=0
EXTRACT: control_change channel=5 control=100 value=0 time=0.0012537604166666665
EXTRACT: control_change channel=5 control=6 value=2 time=0.0012537604166666665
EXTRACT: control_change channel=5 control=38 value=0 time=0.0012537604166666665
EXTRACT: control_change channel=11 control=0 value=0 time=0
EXTRACT: control_change channel=11 control=32 value=0 time=0
EXTRACT: program_change channel=11 program=0 time=0
EXTRACT: pitchwheel channel=5 pitch=0 time=0
EXTRACT: control_change channel=11 control=7 value=100 time=0
EXTRACT: control_change channel=11 control=10 value=64 time=0
EXTRACT: control_change channel=11 control=91 value=55 time=0
EXTRACT: control_change channel=11 control=93 value=20 time=0
EXTRACT: control_change channel=5 control=1 value=0 time=0
EXTRACT: control_change channel=12 control=0 value=0 time=0
EXTRACT: control_change channel=12 control=32 value=0 time=0.0012537604166666665
EXTRACT: program_change channel=12 program=0 time=0
EXTRACT: control_change channel=12 control=7 value=100 time=0.0012537604166666665
EXTRACT: control_change channel=12 control=10 value=64 time=0
EXTRACT: control_change channel=12 control=91 value=55 time=0
EXTRACT: control_change channel=12 control=93 value=20 time=0
EXTRACT: control_change channel=13 control=0 value=0 time=0.0012537604166666665
EXTRACT: control_change channel=13 control=32 value=0 time=0
EXTRACT: program_change channel=13 program=0 time=0.0012537604166666665
EXTRACT: control_change channel=13 control=7 value=100 time=0
EXTRACT: control_change channel=13 control=10 value=64 time=0
EXTRACT: control_change channel=13 control=91 value=55 time=0
EXTRACT: control_change channel=13 control=93 value=20 time=0
EXTRACT: control_change channel=14 control=0 value=0 time=0.0012537604166666665
EXTRACT: control_change channel=14 control=32 value=0 time=0.0012537604166666665
EXTRACT: program_change channel=14 program=0 time=0
EXTRACT: control_change channel=14 control=7 value=100 time=0.0012537604166666665
EXTRACT: control_change channel=14 control=10 value=64 time=0
EXTRACT: control_change channel=14 control=91 value=0 time=0
EXTRACT: control_change channel=14 control=93 value=0 time=0
EXTRACT: control_change channel=15 control=0 value=0 time=0.0012537604166666665
EXTRACT: control_change channel=15 control=32 value=0 time=0
EXTRACT: program_change channel=15 program=0 time=0.0012537604166666665
EXTRACT: control_change channel=6 control=94 value=0 time=0
EXTRACT: control_change channel=15 control=7 value=0 time=0
EXTRACT: control_change channel=15 control=10 value=64 time=0
EXTRACT: control_change channel=15 control=91 value=0 time=0
EXTRACT: control_change channel=15 control=93 value=0 time=0
EXTRACT: control_change channel=6 control=101 value=0 time=0
EXTRACT: control_change channel=6 control=100 value=0 time=0.0012537604166666665
EXTRACT: control_change channel=6 control=6 value=2 time=0.0012537604166666665
EXTRACT: control_change channel=6 control=38 value=0 time=0.0012537604166666665
EXTRACT: pitchwheel channel=6 pitch=0 time=0.0037612812499999994
EXTRACT: control_change channel=6 control=1 value=0 time=0.0012537604166666665
EXTRACT: control_change channel=7 control=94 value=0 time=0.011283843749999998
EXTRACT: control_change channel=7 control=101 value=0 time=0
EXTRACT: control_change channel=7 control=100 value=0 time=0.0012537604166666665
EXTRACT: control_change channel=7 control=6 value=2 time=0.0012537604166666665
EXTRACT: control_change channel=7 control=38 value=0 time=0.0012537604166666665
EXTRACT: pitchwheel channel=7 pitch=0 time=0.0037612812499999994
EXTRACT: control_change channel=7 control=1 value=0 time=0.0012537604166666665
EXTRACT: control_change channel=8 control=94 value=0 time=0.011283843749999998
EXTRACT: control_change channel=8 control=101 value=0 time=0
EXTRACT: control_change channel=8 control=100 value=0 time=0.0012537604166666665
EXTRACT: control_change channel=8 control=6 value=2 time=0.0012537604166666665
EXTRACT: control_change channel=8 control=38 value=0 time=0.0012537604166666665
EXTRACT: pitchwheel channel=8 pitch=0 time=0.0037612812499999994
EXTRACT: control_change channel=8 control=1 value=0 time=0.0012537604166666665
EXTRACT: control_change channel=9 control=94 value=0 time=0.011283843749999998
EXTRACT: pitchwheel channel=9 pitch=0 time=0.0012537604166666665
EXTRACT: control_change channel=9 control=1 value=0 time=0.0012537604166666665
EXTRACT: control_change channel=10 control=94 value=0 time=0.01755264583333333
EXTRACT: control_change channel=10 control=101 value=0 time=0
EXTRACT: control_change channel=10 control=100 value=0 time=0.0012537604166666665
EXTRACT: control_change channel=10 control=6 value=2 time=0.0012537604166666665
EXTRACT: control_change channel=10 control=38 value=0 time=0.0012537604166666665
EXTRACT: pitchwheel channel=10 pitch=0 time=0.0037612812499999994
EXTRACT: control_change channel=10 control=1 value=0 time=0.0012537604166666665
EXTRACT: control_change channel=11 control=94 value=0 time=0.011283843749999998
EXTRACT: control_change channel=11 control=101 value=0 time=0
EXTRACT: control_change channel=11 control=100 value=0 time=0.0012537604166666665
EXTRACT: control_change channel=11 control=6 value=2 time=0.0012537604166666665
EXTRACT: control_change channel=11 control=38 value=0 time=0.0012537604166666665
EXTRACT: pitchwheel channel=11 pitch=0 time=0.0037612812499999994
EXTRACT: control_change channel=11 control=1 value=0 time=0.0012537604166666665
EXTRACT: control_change channel=12 control=94 value=0 time=0.011283843749999998
EXTRACT: control_change channel=12 control=101 value=0 time=0
EXTRACT: control_change channel=12 control=100 value=0 time=0.0012537604166666665
EXTRACT: control_change channel=12 control=6 value=2 time=0.0012537604166666665
EXTRACT: control_change channel=12 control=38 value=0 time=0.0012537604166666665
EXTRACT: pitchwheel channel=12 pitch=0 time=0.0037612812499999994
EXTRACT: control_change channel=12 control=1 value=0 time=0.0012537604166666665
EXTRACT: control_change channel=13 control=94 value=0 time=0.011283843749999998
EXTRACT: control_change channel=13 control=101 value=0 time=0
EXTRACT: control_change channel=13 control=100 value=0 time=0.0012537604166666665
EXTRACT: control_change channel=13 control=6 value=2 time=0.0012537604166666665
EXTRACT: control_change channel=13 control=38 value=0 time=0.0012537604166666665
EXTRACT: pitchwheel channel=13 pitch=0 time=0.0037612812499999994
EXTRACT: control_change channel=13 control=1 value=0 time=0.0012537604166666665
EXTRACT: control_change channel=14 control=94 value=0 time=0.011283843749999998
EXTRACT: control_change channel=14 control=101 value=0 time=0
EXTRACT: control_change channel=14 control=100 value=0 time=0.0012537604166666665
EXTRACT: control_change channel=14 control=6 value=2 time=0.0012537604166666665
EXTRACT: control_change channel=14 control=38 value=0 time=0.0012537604166666665
EXTRACT: pitchwheel channel=14 pitch=0 time=0.0037612812499999994
EXTRACT: control_change channel=14 control=1 value=0 time=0.0012537604166666665
EXTRACT: control_change channel=15 control=94 value=0 time=0.011283843749999998
EXTRACT: control_change channel=15 control=101 value=0 time=0
EXTRACT: control_change channel=15 control=100 value=0 time=0.0012537604166666665
EXTRACT: control_change channel=15 control=6 value=2 time=0.0012537604166666665
EXTRACT: control_change channel=15 control=38 value=0 time=0.0012537604166666665
EXTRACT: pitchwheel channel=15 pitch=0 time=0.0037612812499999994
EXTRACT: control_change channel=15 control=1 value=0 time=0.0012537604166666665
EXTRACT: note_on channel=2 note=52 velocity=101 time=1.5684542812499997
EXTRACT: note_on channel=15 note=64 velocity=1 time=0
EXTRACT: note_on channel=15 note=68 velocity=1 time=0
EXTRACT: note_on channel=15 note=71 velocity=1 time=0
EXTRACT: note_on channel=2 note=66 velocity=99 time=0.010030083333333332
EXTRACT: note_on channel=2 note=68 velocity=122 time=0.14042116666666665
EXTRACT: note_on channel=2 note=66 velocity=0 time=0.04012033333333333
EXTRACT: note_on channel=2 note=68 velocity=0 time=0.11409219791666665
EXTRACT: note_on channel=2 note=52 velocity=0 time=0.01755264583333333
EXTRACT: note_on channel=2 note=52 velocity=77 time=0.12913732291666666
EXTRACT: note_on channel=2 note=68 velocity=112 time=0
EXTRACT: note_on channel=3 note=56 velocity=103 time=0
EXTRACT: note_on channel=3 note=56 velocity=0 time=0.08650946874999998
EXTRACT: note_on channel=6 note=52 velocity=94 time=0.06394178125
EXTRACT: note_on channel=6 note=52 velocity=0 time=0.030090249999999995
EXTRACT: note_on channel=2 note=52 velocity=0 time=0.026328968749999997
EXTRACT: note_on channel=2 note=68 velocity=0 time=0.011283843749999998
EXTRACT: note_on channel=3 note=54 velocity=98 time=0.08274818749999999
EXTRACT: note_on channel=3 note=54 velocity=0 time=0.0677030625
EXTRACT: note_on channel=3 note=54 velocity=91 time=0.23319943749999997
EXTRACT: note_on channel=2 note=66 velocity=112 time=0.13164484375
EXTRACT: note_on channel=3 note=54 velocity=0 time=0.018806406249999998
EXTRACT: note_on channel=15 note=64 velocity=0 time=0
EXTRACT: note_on channel=15 note=71 velocity=0 time=0
EXTRACT: note_on channel=15 note=68 velocity=0 time=0
EXTRACT: note_on channel=15 note=59 velocity=1 time=0
EXTRACT: note_on channel=15 note=63 velocity=1 time=0
EXTRACT: note_on channel=15 note=66 velocity=1 time=0
EXTRACT: note_on channel=2 note=51 velocity=105 time=0.002507520833333333
EXTRACT: note_on channel=2 note=51 velocity=0 time=0.2570208854166666
EXTRACT: note_on channel=3 note=54 velocity=85 time=0.04137409374999999
EXTRACT: note_on channel=2 note=66 velocity=0 time=0.015045124999999998
EXTRACT: note_on channel=3 note=54 velocity=0 time=0.022567687499999996
EXTRACT: note_on channel=2 note=66 velocity=112 time=0.11283843749999999
EXTRACT: note_on channel=2 note=51 velocity=91 time=0
EXTRACT: note_on channel=3 note=54 velocity=93 time=0
EXTRACT: note_on channel=3 note=54 velocity=0 time=0.05391169791666666
EXTRACT: note_on channel=3 note=56 velocity=103 time=0.09653955208333331
EXTRACT: note_on channel=6 note=51 velocity=96 time=0
EXTRACT: note_on channel=6 note=51 velocity=0 time=0.022567687499999996
EXTRACT: note_on channel=2 note=51 velocity=0 time=0.0037612812499999994
EXTRACT: note_on channel=2 note=66 velocity=0 time=0.012537604166666664
EXTRACT: note_on channel=3 note=56 velocity=0 time=0.04889665624999999
EXTRACT: note_on channel=3 note=52 velocity=87 time=0.2131392708333333
EXTRACT: note_on channel=3 note=52 velocity=0 time=0.13164484375
EXTRACT: note_on channel=15 note=63 velocity=0 time=0.16925765624999997
EXTRACT: note_on channel=15 note=59 velocity=0 time=0
EXTRACT: note_on channel=15 note=66 velocity=0 time=0
EXTRACT: note_on channel=2 note=49 velocity=114 time=0
EXTRACT: note_on channel=2 note=64 velocity=101 time=0
EXTRACT: note_on channel=3 note=52 velocity=73 time=0
EXTRACT: note_on channel=15 note=61 velocity=1 time=0
EXTRACT: note_on channel=15 note=64 velocity=1 time=0
EXTRACT: note_on channel=15 note=68 velocity=1 time=0
EXTRACT: note_on channel=3 note=52 velocity=0 time=0.11283843749999999
EXTRACT: note_on channel=2 note=49 velocity=0 time=0.2507520833333333
EXTRACT: note_on channel=2 note=64 velocity=0 time=0.018806406249999998
EXTRACT: note_on channel=2 note=64 velocity=98 time=0.06895682291666666
EXTRACT: note_on channel=2 note=49 velocity=98 time=0
EXTRACT: note_on channel=6 note=49 velocity=98 time=0.15045124999999998
EXTRACT: note_on channel=6 note=49 velocity=0 time=0.02883648958333333
EXTRACT: note_on channel=2 note=49 velocity=0 time=0.026328968749999997
EXTRACT: note_on channel=2 note=64 velocity=0 time=0.010030083333333332
EXTRACT: note_on channel=3 note=54 velocity=114 time=0.9879632083333332
EXTRACT: note_on channel=3 note=54 velocity=0 time=0.05140417708333333
EXTRACT: note_on channel=3 note=54 velocity=103 time=0.09904707291666665
EXTRACT: note_on channel=6 note=49 velocity=89 time=0
EXTRACT: note_on channel=6 note=49 velocity=0 time=0.025075208333333328
EXTRACT: note_on channel=3 note=54 velocity=0 time=0.043881614583333325
EXTRACT: note_on channel=3 note=56 velocity=107 time=0.08149442708333332
EXTRACT: note_on channel=3 note=56 velocity=0 time=0.09027074999999998
EXTRACT: note_on channel=3 note=57 velocity=87 time=0.21063174999999998
EXTRACT: note_on channel=15 note=61 velocity=0 time=0.15045124999999998
EXTRACT: note_on channel=15 note=64 velocity=0 time=0
EXTRACT: note_on channel=15 note=68 velocity=0 time=0
EXTRACT: note_on channel=2 note=69 velocity=112 time=0
EXTRACT: note_on channel=2 note=54 velocity=112 time=0
EXTRACT: note_on channel=15 note=54 velocity=1 time=0
EXTRACT: note_on channel=15 note=57 velocity=1 time=0
EXTRACT: note_on channel=15 note=61 velocity=1 time=0
EXTRACT: note_on channel=3 note=57 velocity=0 time=0.14418244791666665
EXTRACT: note_on channel=3 note=57 velocity=79 time=0.1567200520833333
EXTRACT: note_on channel=2 note=54 velocity=0 time=0.07773314583333332
EXTRACT: note_on channel=2 note=69 velocity=0 time=0.010030083333333332
EXTRACT: note_on channel=3 note=57 velocity=0 time=0.006268802083333332
EXTRACT: note_on channel=2 note=69 velocity=101 time=0.05641921874999999
EXTRACT: note_on channel=2 note=54 velocity=105 time=0
EXTRACT: note_on channel=3 note=56 velocity=105 time=0.15045124999999998
EXTRACT: note_on channel=6 note=54 velocity=112 time=0
EXTRACT: note_on channel=6 note=42 velocity=101 time=0
EXTRACT: note_on channel=2 note=54 velocity=0 time=0.013791364583333332
EXTRACT: note_on channel=6 note=42 velocity=0 time=0.008776322916666666
EXTRACT: note_on channel=2 note=69 velocity=0 time=0.002507520833333333
EXTRACT: note_on channel=6 note=54 velocity=0 time=0.011283843749999998
EXTRACT: note_on channel=3 note=56 velocity=0 time=0.13916740625
EXTRACT: note_on channel=3 note=54 velocity=105 time=0.12537604166666666
EXTRACT: note_on channel=3 note=54 velocity=0 time=0.18179526041666663
EXTRACT: note_on channel=15 note=54 velocity=0 time=0.11910723958333332
EXTRACT: note_on channel=15 note=57 velocity=0 time=0
EXTRACT: note_on channel=15 note=61 velocity=0 time=0
EXTRACT: note_on channel=2 note=52 velocity=82 time=0
EXTRACT: note_on channel=2 note=68 velocity=107 time=0
EXTRACT: note_on channel=3 note=52 velocity=85 time=0
EXTRACT: note_on channel=15 note=52 velocity=1 time=0
EXTRACT: note_on channel=15 note=56 velocity=1 time=0
EXTRACT: note_on channel=15 note=59 velocity=1 time=0
EXTRACT: note_on channel=3 note=52 velocity=0 time=0.13916740625
EXTRACT: note_on channel=3 note=54 velocity=85 time=0.16173509374999998
EXTRACT: note_on channel=2 note=68 velocity=0 time=0.026328968749999997
EXTRACT: note_on channel=2 note=52 velocity=0 time=0.012537604166666664
EXTRACT: note_on channel=3 note=54 velocity=0 time=0.058926739583333325
EXTRACT: note_on channel=2 note=68 velocity=109 time=0.052657937499999995
EXTRACT: note_on channel=2 note=52 velocity=91 time=0
EXTRACT: note_on channel=3 note=56 velocity=82 time=0.15045124999999998
EXTRACT: note_on channel=6 note=52 velocity=91 time=0
EXTRACT: note_on channel=6 note=40 velocity=82 time=0
EXTRACT: note_on channel=2 note=52 velocity=0 time=0.030090249999999995
EXTRACT: note_on channel=2 note=68 velocity=0 time=0.005015041666666666
EXTRACT: note_on channel=6 note=40 velocity=0 time=0.005015041666666666
EXTRACT: note_on channel=6 note=52 velocity=0 time=0.007522562499999999
EXTRACT: note_on channel=3 note=56 velocity=0 time=0.05641921874999999
EXTRACT: note_on channel=3 note=54 velocity=89 time=0.19684038541666662
EXTRACT: note_on channel=15 note=59 velocity=0 time=0
EXTRACT: note_on channel=15 note=52 velocity=0 time=0
EXTRACT: note_on channel=15 note=56 velocity=0 time=0
EXTRACT: note_on channel=2 note=51 velocity=112 time=0
EXTRACT: note_on channel=2 note=66 velocity=114 time=0
EXTRACT: note_on channel=15 note=59 velocity=1 time=0
EXTRACT: note_on channel=15 note=63 velocity=1 time=0
EXTRACT: note_on channel=15 note=66 velocity=1 time=0
EXTRACT: note_on channel=3 note=54 velocity=0 time=0.11506899999999999
EXTRACT: note_on channel=2 note=66 velocity=0 time=0.25640375
EXTRACT: note_on channel=2 note=51 velocity=0 time=0.026265749999999997
EXTRACT: note_on channel=2 note=66 velocity=114 time=0.052531499999999995
EXTRACT: note_on channel=2 note=51 velocity=101 time=0
EXTRACT: note_on channel=6 note=59 velocity=81 time=0.15009
EXTRACT: note_on channel=6 note=47 velocity=73 time=0
EXTRACT: note_on channel=2 note=51 velocity=0 time=0.0025015
EXTRACT: note_on channel=2 note=66 velocity=0 time=0.01375825
EXTRACT: note_on channel=6 note=47 velocity=0 time=0.028767249999999998
EXTRACT: note_on channel=6 note=59 velocity=0 time=0.00125075
EXTRACT: note_on channel=3 note=52 velocity=103 time=1.00435225
EXTRACT: note_on channel=3 note=52 velocity=0 time=0.045027
EXTRACT: note_on channel=3 note=52 velocity=103 time=0.10506299999999999
EXTRACT: note_on channel=6 note=47 velocity=81 time=0
EXTRACT: note_on channel=6 note=47 velocity=0 time=0.028767249999999998
EXTRACT: note_on channel=3 note=52 velocity=0 time=0.03627175
EXTRACT: note_on channel=3 note=54 velocity=114 time=0.08505099999999999
EXTRACT: note_on channel=3 note=54 velocity=0 time=0.0925555
EXTRACT: note_on channel=3 note=56 velocity=105 time=0.2076245
EXTRACT: note_on channel=15 note=59 velocity=0 time=0.15009
EXTRACT: note_on channel=15 note=63 velocity=0 time=0
EXTRACT: note_on channel=15 note=66 velocity=0 time=0
EXTRACT: note_on channel=2 note=52 velocity=101 time=0
EXTRACT: note_on channel=15 note=64 velocity=1 time=0
EXTRACT: note_on channel=15 note=68 velocity=1 time=0
EXTRACT: note_on channel=15 note=71 velocity=1 time=0
EXTRACT: note_on channel=2 note=66 velocity=99 time=0.010006
EXTRACT: note_on channel=3 note=56 velocity=0 time=0.10256149999999999
EXTRACT: note_on channel=2 note=68 velocity=122 time=0.0375225
EXTRACT: note_on channel=2 note=66 velocity=0 time=0.040024
EXTRACT: note_on channel=3 note=59 velocity=96 time=0.110066
EXTRACT: note_on channel=2 note=68 velocity=0 time=0.0037522499999999995
EXTRACT: note_on channel=2 note=52 velocity=0 time=0.0175105
EXTRACT: note_on channel=3 note=59 velocity=0 time=0.07129274999999999
EXTRACT: note_on channel=2 note=52 velocity=77 time=0.057534499999999995
EXTRACT: note_on channel=2 note=68 velocity=112 time=0
EXTRACT: note_on channel=3 note=54 velocity=105 time=0.15009
EXTRACT: note_on channel=6 note=52 velocity=94 time=0
EXTRACT: note_on channel=6 note=52 velocity=0 time=0.030017999999999996
EXTRACT: note_on channel=2 note=52 velocity=0 time=0.026265749999999997
EXTRACT: note_on channel=2 note=68 velocity=0 time=0.01125675
EXTRACT: note_on channel=3 note=54 velocity=0 time=0.13132875
EXTRACT: note_on channel=3 note=52 velocity=94 time=0.10131074999999999
EXTRACT: note_on channel=3 note=52 velocity=0 time=0.19136474999999997
EXTRACT: note_on channel=2 note=66 velocity=112 time=0.090054
EXTRACT: note_on channel=15 note=71 velocity=0 time=0.01876125
EXTRACT: note_on channel=15 note=64 velocity=0 time=0
EXTRACT: note_on channel=15 note=68 velocity=0 time=0
EXTRACT: note_on channel=3 note=54 velocity=107 time=0
EXTRACT: note_on channel=15 note=59 velocity=1 time=0
EXTRACT: note_on channel=15 note=63 velocity=1 time=0
EXTRACT: note_on channel=15 note=66 velocity=1 time=0
EXTRACT: note_on channel=2 note=51 velocity=105 time=0.0025015
EXTRACT: note_on channel=3 note=54 velocity=0 time=0.09505699999999999
EXTRACT: note_on channel=2 note=51 velocity=0 time=0.16134674999999998
EXTRACT: note_on channel=3 note=56 velocity=101 time=0.04127475
EXTRACT: note_on channel=2 note=66 velocity=0 time=0.015008999999999998
EXTRACT: note_on channel=3 note=56 velocity=0 time=0.09630775
EXTRACT: note_on channel=2 note=66 velocity=112 time=0.038773249999999995
EXTRACT: note_on channel=2 note=51 velocity=91 time=0
EXTRACT: note_on channel=3 note=54 velocity=103 time=0.15009
EXTRACT: note_on channel=6 note=51 velocity=96 time=0
EXTRACT: note_on channel=6 note=51 velocity=0 time=0.0225135
EXTRACT: note_on channel=2 note=51 velocity=0 time=0.0037522499999999995
EXTRACT: note_on channel=2 note=66 velocity=0 time=0.0125075
EXTRACT: note_on channel=3 note=54 velocity=0 time=0.0725435
EXTRACT: note_on channel=3 note=52 velocity=89 time=0.18886324999999998
EXTRACT: note_on channel=3 note=52 velocity=0 time=0.28141875
EXTRACT: note_on channel=15 note=59 velocity=0 time=0.01876125
EXTRACT: note_on channel=15 note=63 velocity=0 time=0
EXTRACT: note_on channel=15 note=66 velocity=0 time=0
EXTRACT: note_on channel=2 note=49 velocity=114 time=0
EXTRACT: note_on channel=2 note=64 velocity=101 time=0
EXTRACT: note_on channel=15 note=61 velocity=1 time=0
EXTRACT: note_on channel=15 note=64 velocity=1 time=0
EXTRACT: note_on channel=15 note=68 velocity=1 time=0
EXTRACT: note_on channel=3 note=52 velocity=103 time=0.30018
EXTRACT: note_on channel=2 note=49 velocity=0 time=0.0625375
EXTRACT: note_on channel=2 note=64 velocity=0 time=0.01876125
EXTRACT: note_on channel=3 note=52 velocity=0 time=0
EXTRACT: note_on channel=2 note=64 velocity=98 time=0.06879125
EXTRACT: note_on channel=2 note=49 velocity=98 time=0
EXTRACT: note_on channel=6 note=49 velocity=98 time=0.15009
EXTRACT: note_on channel=6 note=49 velocity=0 time=0.028767249999999998
EXTRACT: note_on channel=2 note=49 velocity=0 time=0.026265749999999997
EXTRACT: note_on channel=2 note=64 velocity=0 time=0.010006
EXTRACT: note_on channel=3 note=54 velocity=107 time=0.9855909999999999
EXTRACT: note_on channel=3 note=54 velocity=0 time=0.020012
EXTRACT: note_on channel=3 note=54 velocity=93 time=0.130078
EXTRACT: note_on channel=6 note=49 velocity=89 time=0
EXTRACT: note_on channel=6 note=49 velocity=0 time=0.025015
EXTRACT: note_on channel=3 note=54 velocity=0 time=0.045027
EXTRACT: note_on channel=3 note=56 velocity=112 time=0.080048
EXTRACT: note_on channel=3 note=56 velocity=0 time=0.06378824999999999
EXTRACT: note_on channel=3 note=57 velocity=89 time=0.23639174999999998
EXTRACT: note_on channel=15 note=64 velocity=0 time=0.15009
EXTRACT: note_on channel=15 note=61 velocity=0 time=0
EXTRACT: note_on channel=15 note=68 velocity=0 time=0
EXTRACT: note_on channel=2 note=69 velocity=112 time=0
EXTRACT: note_on channel=2 note=54 velocity=112 time=0
EXTRACT: note_on channel=15 note=54 velocity=1 time=0
EXTRACT: note_on channel=15 note=57 velocity=1 time=0
EXTRACT: note_on channel=15 note=61 velocity=1 time=0
EXTRACT: note_on channel=3 note=57 velocity=0 time=0.056283749999999994
EXTRACT: note_on channel=3 note=57 velocity=91 time=0.24389624999999998
EXTRACT: note_on channel=2 note=54 velocity=0 time=0.07754649999999999
EXTRACT: note_on channel=2 note=69 velocity=0 time=0.010006
EXTRACT: note_on channel=3 note=57 velocity=0 time=0.01375825
EXTRACT: note_on channel=2 note=69 velocity=101 time=0.048779249999999996
EXTRACT: note_on channel=2 note=54 velocity=105 time=0
EXTRACT: note_on channel=3 note=56 velocity=98 time=0.15009
EXTRACT: note_on channel=6 note=54 velocity=112 time=0
EXTRACT: note_on channel=6 note=42 velocity=101 time=0
EXTRACT: note_on channel=2 note=54 velocity=0 time=0.01375825
EXTRACT: note_on channel=6 note=42 velocity=0 time=0.00875525
EXTRACT: note_on channel=2 note=69 velocity=0 time=0.0025015
EXTRACT: note_on channel=6 note=54 velocity=0 time=0.01125675
EXTRACT: note_on channel=3 note=56 velocity=0 time=0.0725435
EXTRACT: note_on channel=3 note=54 velocity=107 time=0.19136474999999997
EXTRACT: note_on channel=3 note=54 velocity=0 time=0.11381825
EXTRACT: note_on channel=15 note=54 velocity=0 time=0.18636175
EXTRACT: note_on channel=15 note=57 velocity=0 time=0
EXTRACT: note_on channel=15 note=61 velocity=0 time=0
EXTRACT: note_on channel=2 note=52 velocity=82 time=0
EXTRACT: note_on channel=2 note=68 velocity=107 time=0
EXTRACT: note_on channel=3 note=52 velocity=98 time=0
EXTRACT: note_on channel=15 note=52 velocity=1 time=0
EXTRACT: note_on channel=15 note=56 velocity=1 time=0
EXTRACT: note_on channel=15 note=59 velocity=1 time=0
EXTRACT: note_on channel=3 note=52 velocity=0 time=0.1075645
EXTRACT: note_on channel=3 note=54 velocity=103 time=0.1926155
EXTRACT: note_on channel=2 note=68 velocity=0 time=0.026265749999999997
EXTRACT: note_on channel=2 note=52 velocity=0 time=0.0125075
EXTRACT: note_on channel=3 note=54 velocity=0 time=0.07129274999999999
EXTRACT: note_on channel=2 note=68 velocity=109 time=0.040024
EXTRACT: note_on channel=2 note=52 velocity=91 time=0
EXTRACT: note_on channel=3 note=56 velocity=105 time=0.15009
EXTRACT: note_on channel=6 note=52 velocity=91 time=0
EXTRACT: note_on channel=6 note=40 velocity=82 time=0
EXTRACT: note_on channel=2 note=52 velocity=0 time=0.030017999999999996
EXTRACT: note_on channel=2 note=68 velocity=0 time=0.005003
EXTRACT: note_on channel=6 note=40 velocity=0 time=0.005003
EXTRACT: note_on channel=6 note=52 velocity=0 time=0.007504499999999999
EXTRACT: note_on channel=3 note=56 velocity=0 time=0.0625375
EXTRACT: note_on channel=3 note=54 velocity=114 time=0.19011399999999998
EXTRACT: note_on channel=15 note=59 velocity=0 time=0
EXTRACT: note_on channel=15 note=52 velocity=0 time=0
EXTRACT: note_on channel=15 note=56 velocity=0 time=0
EXTRACT: note_on channel=2 note=51 velocity=112 time=0
EXTRACT: note_on channel=2 note=66 velocity=114 time=0
EXTRACT: note_on channel=15 note=59 velocity=1 time=0
EXTRACT: note_on channel=15 note=63 velocity=1 time=0
EXTRACT: note_on channel=15 note=66 velocity=1 time=0
EXTRACT: note_on channel=3 note=54 velocity=0 time=0.14587531666666664
EXTRACT: note_on channel=2 note=66 velocity=0 time=0.2276157958333333
EXTRACT: note_on channel=2 note=51 velocity=0 time=0.026408462499999997
EXTRACT: note_on channel=2 note=66 velocity=114 time=0.052816924999999994
EXTRACT: note_on channel=2 note=51 velocity=101 time=0
EXTRACT: note_on channel=6 note=59 velocity=81 time=0.1509055
EXTRACT: note_on channel=6 note=47 velocity=73 time=0
EXTRACT: note_on channel=2 note=51 velocity=0 time=0.0025150916666666664
EXTRACT: note_on channel=2 note=66 velocity=0 time=0.013833004166666666
EXTRACT: note_on channel=6 note=47 velocity=0 time=0.028923554166666664
EXTRACT: note_on channel=6 note=59 velocity=0 time=0.0012575458333333332
EXTRACT: note_on channel=3 note=47 velocity=96 time=0.8589038041666666
EXTRACT: note_on channel=3 note=47 velocity=0 time=0.041499012499999995
EXTRACT: note_on channel=3 note=47 velocity=81 time=0.1094064875
EXTRACT: note_on channel=3 note=47 velocity=0 time=0.03898392083333333
EXTRACT: note_on channel=3 note=47 velocity=96 time=0.11192157916666666
EXTRACT: note_on channel=6 note=47 velocity=81 time=0
EXTRACT: note_on channel=6 note=47 velocity=0 time=0.028923554166666664
EXTRACT: note_on channel=3 note=47 velocity=0 time=0.0339537375
EXTRACT: note_on channel=3 note=49 velocity=109 time=0.08802820833333333
EXTRACT: note_on channel=3 note=49 velocity=0 time=0.056589562499999996
EXTRACT: note_on channel=3 note=52 velocity=103 time=0.09431593749999999
EXTRACT: note_on channel=3 note=52 velocity=0 time=0.11946685416666665
EXTRACT: note_on channel=3 note=54 velocity=119 time=0.03143864583333333
EXTRACT: note_on channel=3 note=54 velocity=0 time=0.0792253875
EXTRACT: note_on channel=15 note=63 velocity=0 time=0.07168011249999999
EXTRACT: note_on channel=15 note=66 velocity=0 time=0
EXTRACT: note_on channel=15 note=59 velocity=0 time=0
EXTRACT: note_on channel=2 note=52 velocity=101 time=0
EXTRACT: note_on channel=3 note=56 velocity=112 time=0
EXTRACT: note_on channel=15 note=64 velocity=1 time=0
EXTRACT: note_on channel=15 note=68 velocity=1 time=0
EXTRACT: note_on channel=15 note=71 velocity=1 time=0
EXTRACT: note_on channel=2 note=66 velocity=99 time=0.010060366666666666
EXTRACT: note_on channel=3 note=56 velocity=0 time=0.1094064875
EXTRACT: note_on channel=2 note=68 velocity=122 time=0.03143864583333333
EXTRACT: note_on channel=2 note=66 velocity=0 time=0.04024146666666666
EXTRACT: note_on channel=3 note=59 velocity=93 time=0.11066403333333333
EXTRACT: note_on channel=2 note=68 velocity=0 time=0.0037726374999999994
EXTRACT: note_on channel=2 note=52 velocity=0 time=0.017605641666666665
EXTRACT: note_on channel=3 note=59 velocity=0 time=0.041499012499999995
EXTRACT: note_on channel=2 note=52 velocity=77 time=0.08802820833333333
EXTRACT: note_on channel=2 note=68 velocity=112 time=0
EXTRACT: note_on channel=3 note=56 velocity=112 time=0
EXTRACT: note_on channel=6 note=52 velocity=94 time=0.1509055
EXTRACT: note_on channel=3 note=56 velocity=0 time=0.012575458333333333
EXTRACT: note_on channel=6 note=52 velocity=0 time=0.017605641666666665
EXTRACT: note_on channel=2 note=52 velocity=0 time=0.026408462499999997
EXTRACT: note_on channel=2 note=68 velocity=0 time=0.0113179125
EXTRACT: note_on channel=2 note=66 velocity=112 time=0.5168513374999999
EXTRACT: note_on channel=15 note=64 velocity=0 time=0.0188631875
EXTRACT: note_on channel=15 note=68 velocity=0 time=0
EXTRACT: note_on channel=15 note=71 velocity=0 time=0
EXTRACT: note_on channel=15 note=59 velocity=1 time=0
EXTRACT: note_on channel=15 note=63 velocity=1 time=0
EXTRACT: note_on channel=15 note=66 velocity=1 time=0
EXTRACT: note_on channel=2 note=51 velocity=105 time=0.0025150916666666664
EXTRACT: note_on channel=2 note=51 velocity=0 time=0.2577968958333333
EXTRACT: note_on channel=3 note=56 velocity=119 time=0.041499012499999995
EXTRACT: note_on channel=2 note=66 velocity=0 time=0.015090549999999998
EXTRACT: note_on channel=3 note=56 velocity=0 time=0.030181099999999995
EXTRACT: note_on channel=2 note=66 velocity=112 time=0.10563384999999999
EXTRACT: note_on channel=2 note=51 velocity=91 time=0
EXTRACT: note_on channel=3 note=59 velocity=109 time=0
EXTRACT: note_on channel=3 note=59 velocity=0 time=0.06036219999999999
EXTRACT: note_on channel=3 note=59 velocity=107 time=0.0905433
EXTRACT: note_on channel=6 note=51 velocity=96 time=0
EXTRACT: note_on channel=6 note=51 velocity=0 time=0.022635825
EXTRACT: note_on channel=2 note=51 velocity=0 time=0.0037726374999999994
EXTRACT: note_on channel=2 note=66 velocity=0 time=0.012575458333333333
EXTRACT: note_on channel=3 note=59 velocity=0 time=0.10060366666666666
EXTRACT: note_on channel=3 note=57 velocity=116 time=0.1622234125
EXTRACT: note_on channel=3 note=57 velocity=0 time=0.128269675
EXTRACT: note_on channel=15 note=63 velocity=0 time=0
EXTRACT: note_on channel=15 note=59 velocity=0 time=0
EXTRACT: note_on channel=15 note=66 velocity=0 time=0
EXTRACT: note_on channel=2 note=49 velocity=114 time=0
EXTRACT: note_on channel=2 note=64 velocity=101 time=0
EXTRACT: note_on channel=3 note=57 velocity=85 time=0
EXTRACT: note_on channel=15 note=61 velocity=1 time=0
EXTRACT: note_on channel=15 note=64 velocity=1 time=0
EXTRACT: note_on channel=15 note=68 velocity=1 time=0
EXTRACT: note_on channel=3 note=57 velocity=0 time=0.054802733333333326
EXTRACT: note_on channel=3 note=56 velocity=122 time=0.09465926666666664
EXTRACT: note_on channel=3 note=56 velocity=0 time=0.05231169999999999
EXTRACT: note_on channel=3 note=56 velocity=116 time=0.09715029999999998
EXTRACT: note_on channel=2 note=49 velocity=0 time=0.06227583333333332
EXTRACT: note_on channel=2 note=64 velocity=0 time=0.018682749999999998
EXTRACT: note_on channel=3 note=56 velocity=0 time=0.039856533333333326
EXTRACT: note_on channel=2 note=64 velocity=98 time=0.028646883333333328
EXTRACT: note_on channel=2 note=49 velocity=98 time=0
EXTRACT: note_on channel=3 note=52 velocity=105 time=0.14946199999999998
EXTRACT: note_on channel=6 note=49 velocity=98 time=0
EXTRACT: note_on channel=6 note=49 velocity=0 time=0.028646883333333328
EXTRACT: note_on channel=2 note=49 velocity=0 time=0.026155849999999994
EXTRACT: note_on channel=2 note=64 velocity=0 time=0.009964133333333331
EXTRACT: note_on channel=3 note=52 velocity=0 time=0.026155849999999994
EXTRACT: note_on channel=3 note=52 velocity=98 time=0.2080012833333333
EXTRACT: note_on channel=3 note=52 velocity=0 time=0.10960546666666665
EXTRACT: note_on channel=3 note=52 velocity=96 time=0.1893185333333333
EXTRACT: note_on channel=3 note=52 velocity=0 time=0.10711443333333331
EXTRACT: note_on channel=3 note=54 velocity=107 time=0.19180956666666663
EXTRACT: note_on channel=3 note=54 velocity=0 time=0.08469513333333331
EXTRACT: note_on channel=3 note=56 velocity=101 time=0.21422886666666663
EXTRACT: note_on channel=6 note=49 velocity=89 time=0
EXTRACT: note_on channel=6 note=49 velocity=0 time=0.02491033333333333
EXTRACT: note_on channel=3 note=56 velocity=0 time=0.17686336666666663
EXTRACT: note_on channel=3 note=52 velocity=109 time=0.09715029999999998
EXTRACT: note_on channel=3 note=52 velocity=0 time=0.16939026666666662
EXTRACT: note_on channel=15 note=64 velocity=0 time=0.12953373333333332
EXTRACT: note_on channel=15 note=61 velocity=0 time=0
EXTRACT: note_on channel=15 note=68 velocity=0 time=0
EXTRACT: note_on channel=2 note=69 velocity=112 time=0
EXTRACT: note_on channel=2 note=54 velocity=112 time=0
EXTRACT: note_on channel=3 note=54 velocity=112 time=0
EXTRACT: note_on channel=15 note=54 velocity=1 time=0
EXTRACT: note_on channel=15 note=57 velocity=1 time=0
EXTRACT: note_on channel=15 note=61 velocity=1 time=0
EXTRACT: note_on channel=3 note=54 velocity=0 time=0.2789957333333333
EXTRACT: note_on channel=2 note=54 velocity=0 time=0.09715029999999998
EXTRACT: note_on channel=2 note=69 velocity=0 time=0.009964133333333331
EXTRACT: note_on channel=2 note=69 velocity=101 time=0.06227583333333332
EXTRACT: note_on channel=2 note=54 velocity=105 time=0
EXTRACT: note_on channel=3 note=56 velocity=114 time=0.14946199999999998
EXTRACT: note_on channel=6 note=54 velocity=112 time=0
EXTRACT: note_on channel=6 note=42 velocity=101 time=0
EXTRACT: note_on channel=2 note=54 velocity=0 time=0.013700683333333331
EXTRACT: note_on channel=6 note=42 velocity=0 time=0.008718616666666665
EXTRACT: note_on channel=2 note=69 velocity=0 time=0.002491033333333333
EXTRACT: note_on channel=6 note=54 velocity=0 time=0.011209649999999998
EXTRACT: note_on channel=3 note=56 velocity=0 time=0.1668992333333333
EXTRACT: note_on channel=15 note=57 velocity=0 time=0.39482878333333327
EXTRACT: note_on channel=15 note=61 velocity=0 time=0
EXTRACT: note_on channel=15 note=54 velocity=0 time=0
EXTRACT: note_on channel=2 note=52 velocity=82 time=0
EXTRACT: note_on channel=2 note=68 velocity=107 time=0
EXTRACT: note_on channel=3 note=52 velocity=116 time=0
EXTRACT: note_on channel=15 note=52 velocity=1 time=0
EXTRACT: note_on channel=15 note=56 velocity=1 time=0
EXTRACT: note_on channel=15 note=59 velocity=1 time=0
EXTRACT: note_on channel=3 note=52 velocity=0 time=0.10711443333333331
EXTRACT: note_on channel=3 note=54 velocity=107 time=0.19180956666666663
EXTRACT: note_on channel=2 note=68 velocity=0 time=0.026155849999999994
EXTRACT: note_on channel=2 note=52 velocity=0 time=0.012455166666666665
EXTRACT: note_on channel=3 note=54 velocity=0 time=0.06974893333333332
EXTRACT: note_on channel=2 note=68 velocity=109 time=0.041102049999999994
EXTRACT: note_on channel=2 note=52 velocity=91 time=0
EXTRACT: note_on channel=3 note=56 velocity=112 time=0.14946199999999998
EXTRACT: note_on channel=6 note=52 velocity=91 time=0
EXTRACT: note_on channel=6 note=40 velocity=82 time=0
EXTRACT: note_on channel=2 note=52 velocity=0 time=0.029892399999999993
EXTRACT: note_on channel=2 note=68 velocity=0 time=0.004982066666666666
EXTRACT: note_on channel=6 note=40 velocity=0 time=0.004982066666666666
EXTRACT: note_on channel=6 note=52 velocity=0 time=0.007473099999999998
EXTRACT: note_on channel=3 note=56 velocity=0 time=0.16067164999999997
EXTRACT: note_on channel=3 note=52 velocity=114 time=0.09092271666666665
EXTRACT: note_on channel=3 note=52 velocity=0 time=0.1668992333333333
EXTRACT: note_on channel=15 note=52 velocity=0 time=0.13202476666666665
EXTRACT: note_on channel=15 note=56 velocity=0 time=0
EXTRACT: note_on channel=15 note=59 velocity=0 time=0
EXTRACT: note_on channel=2 note=51 velocity=112 time=0
EXTRACT: note_on channel=2 note=66 velocity=114 time=0
EXTRACT: note_on channel=3 note=54 velocity=116 time=0
EXTRACT: note_on channel=15 note=59 velocity=1 time=0
EXTRACT: note_on channel=15 note=63 velocity=1 time=0
EXTRACT: note_on channel=15 note=66 velocity=1 time=0
EXTRACT: note_on channel=2 note=66 velocity=0 time=0.36991844999999995
EXTRACT: note_on channel=3 note=54 velocity=0 time=0.019928266666666663
EXTRACT: note_on channel=2 note=51 velocity=0 time=0.006227583333333332
EXTRACT: note_on channel=2 note=66 velocity=114 time=0.05231169999999999
EXTRACT: note_on channel=2 note=51 velocity=101 time=0
EXTRACT: note_on channel=3 note=56 velocity=116 time=0.14946199999999998
EXTRACT: note_on channel=6 note=59 velocity=81 time=0
EXTRACT: note_on channel=6 note=47 velocity=73 time=0
EXTRACT: note_on channel=2 note=51 velocity=0 time=0.002491033333333333
EXTRACT: note_on channel=2 note=66 velocity=0 time=0.013700683333333331
EXTRACT: note_on channel=6 note=47 velocity=0 time=0.028646883333333328
EXTRACT: note_on channel=6 note=59 velocity=0 time=0.0012455166666666664
EXTRACT: note_on channel=3 note=56 velocity=0 time=0.23291161666666663
EXTRACT: note_on channel=3 note=47 velocity=81 time=0.7672382666666665
EXTRACT: note_on channel=3 note=47 velocity=0 time=0.03861101666666666
EXTRACT: note_on channel=3 note=47 velocity=96 time=0.1108509833333333
EXTRACT: note_on channel=6 note=47 velocity=81 time=0
EXTRACT: note_on channel=6 note=47 velocity=0 time=0.028646883333333328
EXTRACT: note_on channel=3 note=47 velocity=0 time=0.03362894999999999
EXTRACT: note_on channel=3 note=49 velocity=109 time=0.08718616666666665
EXTRACT: note_on channel=3 note=49 velocity=0 time=0.05604824999999999
EXTRACT: note_on channel=3 note=52 velocity=103 time=0.09341374999999998
EXTRACT: note_on channel=3 note=52 velocity=0 time=0.11832408333333332
EXTRACT: note_on channel=3 note=54 velocity=119 time=0.03113791666666666
EXTRACT: note_on channel=3 note=54 velocity=0 time=0.07846754999999998
EXTRACT: note_on channel=15 note=59 velocity=0 time=0
EXTRACT: note_on channel=15 note=66 velocity=0 time=0
EXTRACT: note_on channel=15 note=63 velocity=0 time=0
EXTRACT: note_on channel=2 note=52 velocity=101 time=0
EXTRACT: note_on channel=2 note=66 velocity=99 time=0
EXTRACT: note_on channel=3 note=56 velocity=112 time=0
EXTRACT: note_on channel=15 note=64 velocity=1 time=0
EXTRACT: note_on channel=15 note=68 velocity=1 time=0
EXTRACT: note_on channel=15 note=71 velocity=1 time=0
EXTRACT: note_on channel=3 note=56 velocity=0 time=0.11867875
EXTRACT: note_on channel=2 note=68 velocity=122 time=0.03123125
EXTRACT: note_on channel=2 note=66 velocity=0 time=0.029981999999999998
EXTRACT: note_on channel=3 note=59 velocity=93 time=0.11992799999999999
EXTRACT: note_on channel=2 note=68 velocity=0 time=0.0037477499999999998
EXTRACT: note_on channel=2 note=52 velocity=0 time=0.017489499999999998
EXTRACT: note_on channel=3 note=59 velocity=0 time=0.04122525
EXTRACT: note_on channel=2 note=52 velocity=77 time=0.0874475
EXTRACT: note_on channel=2 note=68 velocity=112 time=0
EXTRACT: note_on channel=3 note=56 velocity=112 time=0
EXTRACT: note_on channel=6 note=52 velocity=94 time=0.14991
EXTRACT: note_on channel=3 note=56 velocity=0 time=0.0124925
EXTRACT: note_on channel=6 note=52 velocity=0 time=0.017489499999999998
EXTRACT: note_on channel=2 note=52 velocity=0 time=0.026234249999999997
EXTRACT: note_on channel=2 note=68 velocity=0 time=0.01124325
EXTRACT: note_on channel=15 note=71 velocity=0 time=0.5321805
EXTRACT: note_on channel=15 note=68 velocity=0 time=0
EXTRACT: note_on channel=15 note=64 velocity=0 time=0
EXTRACT: note_on channel=2 note=66 velocity=112 time=0
EXTRACT: note_on channel=2 note=51 velocity=105 time=0
EXTRACT: note_on channel=15 note=59 velocity=1 time=0
EXTRACT: note_on channel=15 note=63 velocity=1 time=0
EXTRACT: note_on channel=15 note=66 velocity=1 time=0
EXTRACT: note_on channel=2 note=51 velocity=0 time=0.2573455
EXTRACT: note_on channel=3 note=56 velocity=119 time=0.0424745
EXTRACT: note_on channel=2 note=66 velocity=0 time=0.033729749999999996
EXTRACT: note_on channel=3 note=56 velocity=0 time=0.01124325
EXTRACT: note_on channel=2 note=66 velocity=112 time=0.10493699999999999
EXTRACT: note_on channel=2 note=51 velocity=91 time=0
EXTRACT: note_on channel=3 note=59 velocity=109 time=0
EXTRACT: note_on channel=3 note=59 velocity=0 time=0.059963999999999996
EXTRACT: note_on channel=3 note=59 velocity=107 time=0.089946
EXTRACT: note_on channel=6 note=51 velocity=96 time=0
EXTRACT: note_on channel=6 note=51 velocity=0 time=0.0224865
EXTRACT: note_on channel=2 note=51 velocity=0 time=0.0037477499999999998
EXTRACT: note_on channel=2 note=66 velocity=0 time=0.0124925
EXTRACT: note_on channel=3 note=59 velocity=0 time=0.09994
EXTRACT: note_on channel=3 note=57 velocity=116 time=0.16115325
EXTRACT: note_on channel=3 note=57 velocity=0 time=0.1274235
EXTRACT: note_on channel=15 note=59 velocity=0 time=0.17239649999999998
EXTRACT: note_on channel=15 note=63 velocity=0 time=0
EXTRACT: note_on channel=15 note=66 velocity=0 time=0
EXTRACT: note_on channel=2 note=49 velocity=114 time=0
EXTRACT: note_on channel=2 note=64 velocity=101 time=0
EXTRACT: note_on channel=3 note=57 velocity=85 time=0
EXTRACT: note_on channel=15 note=61 velocity=1 time=0
EXTRACT: note_on channel=15 note=64 velocity=1 time=0
EXTRACT: note_on channel=15 note=68 velocity=1 time=0
EXTRACT: note_on channel=3 note=57 velocity=0 time=0.054966999999999995
EXTRACT: note_on channel=3 note=56 velocity=116 time=0.244853
EXTRACT: note_on channel=2 note=49 velocity=0 time=0.0624625
EXTRACT: note_on channel=2 note=64 velocity=0 time=0.01873875
EXTRACT: note_on channel=3 note=56 velocity=0 time=0.039976
EXTRACT: note_on channel=2 note=64 velocity=98 time=0.028732749999999998
EXTRACT: note_on channel=2 note=49 velocity=98 time=0
EXTRACT: note_on channel=3 note=52 velocity=105 time=0.14991
EXTRACT: note_on channel=6 note=49 velocity=98 time=0
EXTRACT: note_on channel=6 note=49 velocity=0 time=0.028732749999999998
EXTRACT: note_on channel=2 note=49 velocity=0 time=0.026234249999999997
EXTRACT: note_on channel=2 note=64 velocity=0 time=0.009994
EXTRACT: note_on channel=3 note=52 velocity=0 time=0.026234249999999997
EXTRACT: note_on channel=3 note=52 velocity=98 time=0.20862475
EXTRACT: note_on channel=3 note=52 velocity=0 time=0.10993399999999999
EXTRACT: note_on channel=3 note=52 velocity=96 time=0.189886
EXTRACT: note_on channel=3 note=52 velocity=0 time=0.10743549999999999
EXTRACT: note_on channel=3 note=54 velocity=107 time=0.19238449999999999
EXTRACT: note_on channel=3 note=54 velocity=0 time=0.084949
EXTRACT: note_on channel=3 note=56 velocity=101 time=0.21487099999999998
EXTRACT: note_on channel=6 note=49 velocity=89 time=0
EXTRACT: note_on channel=6 note=49 velocity=0 time=0.024985
EXTRACT: note_on channel=3 note=56 velocity=0 time=0.17739349999999998
EXTRACT: note_on channel=3 note=52 velocity=109 time=0.0974415
EXTRACT: note_on channel=3 note=52 velocity=0 time=0.169898
EXTRACT: note_on channel=15 note=64 velocity=0 time=0.12992199999999998
EXTRACT: note_on channel=15 note=61 velocity=0 time=0
EXTRACT: note_on channel=15 note=68 velocity=0 time=0
EXTRACT: note_on channel=2 note=69 velocity=112 time=0
EXTRACT: note_on channel=2 note=54 velocity=112 time=0
EXTRACT: note_on channel=3 note=54 velocity=112 time=0
EXTRACT: note_on channel=15 note=54 velocity=1 time=0
EXTRACT: note_on channel=15 note=57 velocity=1 time=0
EXTRACT: note_on channel=15 note=61 velocity=1 time=0
EXTRACT: note_on channel=3 note=54 velocity=0 time=0.27983199999999997
EXTRACT: note_on channel=2 note=54 velocity=0 time=0.0974415
EXTRACT: note_on channel=2 note=69 velocity=0 time=0.009994
EXTRACT: note_on channel=2 note=69 velocity=101 time=0.0624625
EXTRACT: note_on channel=2 note=54 velocity=105 time=0
EXTRACT: note_on channel=3 note=56 velocity=114 time=0.14991
EXTRACT: note_on channel=6 note=54 velocity=112 time=0
EXTRACT: note_on channel=6 note=42 velocity=101 time=0
EXTRACT: note_on channel=2 note=54 velocity=0 time=0.013741749999999999
EXTRACT: note_on channel=6 note=42 velocity=0 time=0.008744749999999999
EXTRACT: note_on channel=2 note=69 velocity=0 time=0.0024985
EXTRACT: note_on channel=6 note=54 velocity=0 time=0.01124325
EXTRACT: note_on channel=3 note=56 velocity=0 time=0.16739949999999998
EXTRACT: note_on channel=15 note=57 velocity=0 time=0.39601224999999995
EXTRACT: note_on channel=15 note=61 velocity=0 time=0
EXTRACT: note_on channel=15 note=54 velocity=0 time=0
EXTRACT: note_on channel=2 note=52 velocity=82 time=0
EXTRACT: note_on channel=2 note=68 velocity=107 time=0
EXTRACT: note_on channel=3 note=52 velocity=116 time=0
EXTRACT: note_on channel=15 note=52 velocity=1 time=0
EXTRACT: note_on channel=15 note=56 velocity=1 time=0
EXTRACT: note_on channel=15 note=59 velocity=1 time=0
EXTRACT: note_on channel=3 note=52 velocity=0 time=0.10743549999999999
EXTRACT: note_on channel=3 note=54 velocity=107 time=0.19238449999999999
EXTRACT: note_on channel=2 note=68 velocity=0 time=0.026234249999999997
EXTRACT: note_on channel=2 note=52 velocity=0 time=0.0124925
EXTRACT: note_on channel=3 note=54 velocity=0 time=0.06995799999999999
EXTRACT: note_on channel=2 note=68 velocity=109 time=0.04122525
EXTRACT: note_on channel=2 note=52 velocity=91 time=0
EXTRACT: note_on channel=3 note=56 velocity=112 time=0.14991
EXTRACT: note_on channel=6 note=52 velocity=91 time=0
EXTRACT: note_on channel=6 note=40 velocity=82 time=0
EXTRACT: note_on channel=2 note=52 velocity=0 time=0.029981999999999998
EXTRACT: note_on channel=2 note=68 velocity=0 time=0.004997
EXTRACT: note_on channel=6 note=40 velocity=0 time=0.004997
EXTRACT: note_on channel=6 note=52 velocity=0 time=0.0074954999999999996
EXTRACT: note_on channel=3 note=56 velocity=0 time=0.16115325
EXTRACT: note_on channel=3 note=52 velocity=114 time=0.09119524999999999
EXTRACT: note_on channel=3 note=52 velocity=0 time=0.16739949999999998
EXTRACT: note_on channel=15 note=52 velocity=0 time=0.1324205
EXTRACT: note_on channel=15 note=56 velocity=0 time=0
EXTRACT: note_on channel=15 note=59 velocity=0 time=0
EXTRACT: note_on channel=2 note=51 velocity=112 time=0
EXTRACT: note_on channel=2 note=66 velocity=114 time=0
EXTRACT: note_on channel=3 note=54 velocity=116 time=0
EXTRACT: note_on channel=15 note=59 velocity=1 time=0
EXTRACT: note_on channel=15 note=63 velocity=1 time=0
EXTRACT: note_on channel=15 note=66 velocity=1 time=0
EXTRACT: note_on channel=2 note=66 velocity=0 time=0.37102725
EXTRACT: note_on channel=3 note=54 velocity=0 time=0.019988
EXTRACT: note_on channel=2 note=51 velocity=0 time=0.00624625
EXTRACT: note_on channel=2 note=66 velocity=114 time=0.052468499999999994
EXTRACT: note_on channel=2 note=51 velocity=101 time=0
EXTRACT: note_on channel=3 note=56 velocity=116 time=0.14991
EXTRACT: note_on channel=6 note=59 velocity=81 time=0
EXTRACT: note_on channel=6 note=47 velocity=73 time=0
EXTRACT: note_on channel=2 note=51 velocity=0 time=0.0024985
EXTRACT: note_on channel=2 note=66 velocity=0 time=0.013741749999999999
EXTRACT: note_on channel=6 note=47 velocity=0 time=0.028732749999999998
EXTRACT: note_on channel=6 note=59 velocity=0 time=0.00124925
EXTRACT: note_on channel=3 note=56 velocity=0 time=0.23360974999999998
EXTRACT: note_on channel=3 note=52 velocity=103 time=0.5883967499999999
EXTRACT: note_on channel=4 note=64 velocity=87 time=0.03123125
EXTRACT: note_on channel=3 note=52 velocity=0 time=0.03123125
EXTRACT: note_on channel=4 note=64 velocity=0 time=0.019988
EXTRACT: note_on channel=3 note=52 velocity=101 time=0.08619824999999999
EXTRACT: note_on channel=4 note=64 velocity=89 time=0.0124925
EXTRACT: note_on channel=4 note=64 velocity=0 time=0.089946
EXTRACT: note_on channel=3 note=52 velocity=0 time=0.019988
EXTRACT: note_on channel=6 note=47 velocity=81 time=0.039976
EXTRACT: note_on channel=6 note=47 velocity=0 time=0.028732749999999998
EXTRACT: note_on channel=3 note=52 velocity=96 time=0.12117724999999999
EXTRACT: note_on channel=4 note=64 velocity=85 time=0
EXTRACT: note_on channel=4 note=64 velocity=0 time=0.06371175
EXTRACT: note_on channel=3 note=52 velocity=0 time=0.0074954999999999996
EXTRACT: note_on channel=3 note=56 velocity=114 time=0.07870275
EXTRACT: note_on channel=4 note=68 velocity=114 time=0
EXTRACT: note_on channel=3 note=56 velocity=0 time=0.084949
EXTRACT: note_on channel=4 note=68 velocity=0 time=0.00624625
EXTRACT: note_on channel=15 note=59 velocity=0 time=0.20862475
EXTRACT: note_on channel=15 note=66 velocity=0 time=0
EXTRACT: note_on channel=15 note=63 velocity=0 time=0
EXTRACT: note_on channel=2 note=61 velocity=109 time=0
EXTRACT: note_on channel=2 note=56 velocity=94 time=0
EXTRACT: note_on channel=2 note=49 velocity=77 time=0
EXTRACT: note_on channel=3 note=56 velocity=122 time=0
EXTRACT: note_on channel=4 note=68 velocity=116 time=0
EXTRACT: note_on channel=15 note=61 velocity=1 time=0
EXTRACT: note_on channel=15 note=64 velocity=1 time=0
EXTRACT: note_on channel=15 note=68 velocity=1 time=0
EXTRACT: note_on channel=4 note=68 velocity=0 time=0.28732749999999996
EXTRACT: note_on channel=3 note=56 velocity=0 time=0.008744749999999999
EXTRACT: note_on channel=2 note=49 velocity=0 time=0.1274235
EXTRACT: note_on channel=2 note=61 velocity=0 time=0.01873875
EXTRACT: note_on channel=2 note=56 velocity=0 time=0.0024985
EXTRACT: note_on channel=2 note=61 velocity=112 time=0.004997
EXTRACT: note_on channel=2 note=49 velocity=87 time=0
EXTRACT: note_on channel=2 note=56 velocity=98 time=0
EXTRACT: note_on channel=3 note=52 velocity=112 time=0.14991
EXTRACT: note_on channel=4 note=64 velocity=98 time=0
EXTRACT: note_on channel=6 note=49 velocity=96 time=0
EXTRACT: note_on channel=2 note=56 velocity=0 time=0.0074954999999999996
EXTRACT: note_on channel=2 note=61 velocity=0 time=0.008744749999999999
EXTRACT: note_on channel=6 note=49 velocity=0 time=0.0074954999999999996
EXTRACT: note_on channel=2 note=49 velocity=0 time=0.0024985
EXTRACT: note_on channel=3 note=52 velocity=0 time=0.12367574999999999
EXTRACT: note_on channel=4 note=64 velocity=0 time=0.1424145
EXTRACT: note_on channel=15 note=68 velocity=0 time=0.0074954999999999996
EXTRACT: note_on channel=15 note=61 velocity=0 time=0
EXTRACT: note_on channel=15 note=64 velocity=0 time=0
EXTRACT: note_on channel=2 note=57 velocity=84 time=0
EXTRACT: note_on channel=2 note=52 velocity=103 time=0
EXTRACT: note_on channel=2 note=45 velocity=96 time=0
EXTRACT: note_on channel=3 note=52 velocity=112 time=0
EXTRACT: note_on channel=15 note=64 velocity=1 time=0
EXTRACT: note_on channel=15 note=61 velocity=1 time=0
EXTRACT: note_on channel=15 note=57 velocity=1 time=0
EXTRACT: note_on channel=3 note=52 velocity=0 time=0.14991
EXTRACT: note_on channel=3 note=54 velocity=119 time=0.14991
EXTRACT: note_on channel=4 note=66 velocity=114 time=0
EXTRACT: note_on channel=4 note=66 velocity=0 time=0.0824505
EXTRACT: note_on channel=3 note=54 velocity=0 time=0.013741749999999999
EXTRACT: note_on channel=3 note=54 velocity=112 time=0.20362775
EXTRACT: note_on channel=4 note=66 velocity=114 time=0
EXTRACT: note_on channel=3 note=54 velocity=0 time=0.07870275
EXTRACT: note_on channel=4 note=66 velocity=0 time=0.0024985
EXTRACT: note_on channel=2 note=57 velocity=0 time=0.169898
EXTRACT: note_on channel=2 note=52 velocity=0 time=0.0024985
EXTRACT: note_on channel=2 note=45 velocity=0 time=0.00124925
EXTRACT: note_on channel=3 note=54 velocity=114 time=0.044973
EXTRACT: note_on channel=4 note=66 velocity=116 time=0
EXTRACT: note_on channel=6 note=57 velocity=105 time=0
EXTRACT: note_on channel=6 note=45 velocity=93 time=0
EXTRACT: note_on channel=6 note=45 velocity=0 time=0.03872675
EXTRACT: note_on channel=6 note=57 velocity=0 time=0.01873875
EXTRACT: note_on channel=4 note=66 velocity=0 time=0.00624625
EXTRACT: note_on channel=3 note=54 velocity=0 time=0.0024985
EXTRACT: note_on channel=3 note=52 velocity=101 time=0.08369974999999999
EXTRACT: note_on channel=4 note=64 velocity=101 time=0
EXTRACT: note_on channel=3 note=52 velocity=0 time=0.056216249999999995
EXTRACT: note_on channel=4 note=64 velocity=0 time=0.0037477499999999998
EXTRACT: note_on channel=3 note=52 velocity=103 time=0.089946
EXTRACT: note_on channel=4 note=64 velocity=96 time=0
EXTRACT: note_on channel=3 note=52 velocity=0 time=0.054966999999999995
EXTRACT: note_on channel=4 note=64 velocity=0 time=0.00624625
EXTRACT: note_on channel=3 note=52 velocity=114 time=0.08869674999999999
EXTRACT: note_on channel=4 note=64 velocity=105 time=0
EXTRACT: note_on channel=15 note=61 velocity=0 time=0
EXTRACT: note_on channel=15 note=57 velocity=0 time=0
EXTRACT: note_on channel=15 note=64 velocity=0 time=0
EXTRACT: note_on channel=2 note=59 velocity=89 time=0
EXTRACT: note_on channel=2 note=52 velocity=84 time=0
EXTRACT: note_on channel=15 note=68 velocity=1 time=0
EXTRACT: note_on channel=15 note=64 velocity=1 time=0
EXTRACT: note_on channel=15 note=71 velocity=1 time=0
EXTRACT: note_on channel=4 note=64 velocity=0 time=0.08252475
EXTRACT: note_on channel=3 note=52 velocity=0 time=0.093778125
EXTRACT: note_on channel=2 note=47 velocity=87 time=0.273832125
EXTRACT: note_on channel=2 note=54 velocity=105 time=0
EXTRACT: note_on channel=6 note=47 velocity=112 time=0
EXTRACT: note_on channel=2 note=52 velocity=0 time=0.021256375
EXTRACT: note_on channel=6 note=47 velocity=0 time=0.013754124999999999
EXTRACT: note_on channel=2 note=59 velocity=0 time=0.02250675
EXTRACT: note_on channel=2 note=54 velocity=0 time=0.090027
EXTRACT: note_on channel=2 note=47 velocity=0 time=0.056266875
EXTRACT: note_on channel=2 note=59 velocity=96 time=0.246323875
EXTRACT: note_on channel=2 note=52 velocity=93 time=0
EXTRACT: note_on channel=2 note=52 velocity=0 time=0.211313375
EXTRACT: note_on channel=2 note=59 velocity=0 time=0.01750525
EXTRACT: note_on channel=3 note=52 velocity=109 time=0.371361375
EXTRACT: note_on channel=4 note=64 velocity=96 time=0
EXTRACT: note_on channel=4 note=64 velocity=0 time=0.0450135
EXTRACT: note_on channel=3 note=52 velocity=0 time=0.021256375
EXTRACT: note_on channel=3 note=52 velocity=94 time=0.08377512499999999
EXTRACT: note_on channel=4 note=64 velocity=96 time=0
EXTRACT: note_on channel=4 note=64 velocity=0 time=0.088776625
EXTRACT: note_on channel=3 note=52 velocity=0 time=0.00750225
EXTRACT: note_on channel=2 note=64 velocity=60 time=0.053766125
EXTRACT: note_on channel=2 note=52 velocity=59 time=0
EXTRACT: note_on channel=2 note=59 velocity=48 time=0
EXTRACT: note_on channel=6 note=40 velocity=89 time=0
EXTRACT: note_on channel=6 note=52 velocity=101 time=0
EXTRACT: note_on channel=6 note=52 velocity=0 time=0.046263874999999996
EXTRACT: note_on channel=6 note=40 velocity=0 time=0.006251875
EXTRACT: note_on channel=3 note=52 velocity=101 time=0.09752925
EXTRACT: note_on channel=4 note=64 velocity=98 time=0
EXTRACT: note_on channel=4 note=64 velocity=0 time=0.06752025
EXTRACT: note_on channel=3 note=52 velocity=0 time=0.00250075
EXTRACT: note_on channel=3 note=56 velocity=116 time=0.080024
EXTRACT: note_on channel=4 note=68 velocity=127 time=0
EXTRACT: note_on channel=2 note=64 velocity=0 time=0.00750225
EXTRACT: note_on channel=2 note=59 velocity=0 time=0.01250375
EXTRACT: note_on channel=2 note=52 velocity=0 time=0.006251875
EXTRACT: note_on channel=3 note=56 velocity=0 time=0.06251875
EXTRACT: note_on channel=4 note=68 velocity=0 time=0.008752625
EXTRACT: note_on channel=15 note=64 velocity=0 time=0.20256074999999998
EXTRACT: note_on channel=15 note=68 velocity=0 time=0
EXTRACT: note_on channel=15 note=71 velocity=0 time=0
