EXTRACT: control_change channel=0 control=121 value=0 time=0EXTRACT: program_change channel=0 program=52 time=0EXTRACT: control_change channel=0 control=7 value=100 time=0EXTRACT: control_change channel=0 control=10 value=64 time=0EXTRACT: control_change channel=0 control=91 value=0 time=0EXTRACT: control_change channel=0 control=93 value=0 time=0EXTRACT: control_change channel=1 control=121 value=0 time=0EXTRACT: program_change channel=1 program=0 time=0EXTRACT: control_change channel=1 control=7 value=100 time=0EXTRACT: control_change channel=1 control=10 value=64 time=0EXTRACT: control_change channel=1 control=91 value=0 time=0EXTRACT: control_change channel=1 control=93 value=0 time=0EXTRACT: note_on channel=0 note=76 velocity=80 time=2.50000025EXTRACT: note_on channel=0 note=76 velocity=0 time=0.22537881041666666EXTRACT: note_on channel=0 note=77 velocity=80 time=0.0018939395833333333EXTRACT: note_on channel=1 note=53 velocity=80 time=0EXTRACT: note_on channel=1 note=57 velocity=80 time=0EXTRACT: note_on channel=1 note=62 velocity=80 time=0EXTRACT: note_on channel=1 note=38 velocity=80 time=0EXTRACT: note_on channel=1 note=50 velocity=80 time=0EXTRACT: note_on channel=0 note=77 velocity=0 time=0.45265156041666665EXTRACT: note_on channel=0 note=76 velocity=80 time=0.0018939395833333333EXTRACT: note_on channel=0 note=76 velocity=0 time=0.45265156041666665EXTRACT: note_on channel=0 note=74 velocity=80 time=0.0018939395833333333EXTRACT: note_on channel=0 note=74 velocity=0 time=0.22537881041666666EXTRACT: note_on channel=0 note=74 velocity=80 time=0.0018939395833333333EXTRACT: note_on channel=1 note=53 velocity=0 time=0.15719698541666666EXTRACT: note_on channel=1 note=57 velocity=0 time=0EXTRACT: note_on channel=1 note=62 velocity=0 time=0EXTRACT: note_on channel=1 note=38 velocity=0 time=0EXTRACT: note_on channel=1 note=50 velocity=0 time=0EXTRACT: note_on channel=1 note=53 velocity=80 time=0.07007576458333334EXTRACT: note_on channel=1 note=58 velocity=80 time=0EXTRACT: note_on channel=1 note=62 velocity=80 time=0EXTRACT: note_on channel=1 note=34 velocity=80 time=0EXTRACT: note_on channel=1 note=46 velocity=80 time=0EXTRACT: note_on channel=0 note=74 velocity=0 time=0.22537881041666666EXTRACT: note_on channel=0 note=72 velocity=80 time=0.0018939395833333333EXTRACT: note_on channel=0 note=72 velocity=0 time=0.6799243104166667EXTRACT: note_on channel=0 note=69 velocity=80 time=0.0018939395833333333EXTRACT: note_on channel=1 note=53 velocity=0 time=0.3844697354166667EXTRACT: note_on channel=1 note=58 velocity=0 time=0EXTRACT: note_on channel=1 note=62 velocity=0 time=0EXTRACT: note_on channel=1 note=34 velocity=0 time=0EXTRACT: note_on channel=1 note=46 velocity=0 time=0EXTRACT: note_on channel=0 note=69 velocity=0 time=0.068181825EXTRACT: note_on channel=0 note=74 velocity=80 time=0.0018939395833333333EXTRACT: note_on channel=1 note=53 velocity=80 time=0EXTRACT: note_on channel=1 note=57 velocity=80 time=0EXTRACT: note_on channel=1 note=60 velocity=80 time=0EXTRACT: note_on channel=1 note=41 velocity=80 time=0EXTRACT: note_on channel=0 note=74 velocity=0 time=0.45265156041666665EXTRACT: note_on channel=0 note=72 velocity=80 time=0.0018939395833333333EXTRACT: note_on channel=0 note=72 velocity=0 time=0.45265156041666665EXTRACT: note_on channel=0 note=69 velocity=80 time=0.0018939395833333333EXTRACT: note_on channel=0 note=69 velocity=0 time=0.22537881041666666EXTRACT: note_on channel=0 note=69 velocity=80 time=0.0018939395833333333EXTRACT: note_on channel=1 note=53 velocity=0 time=0.15719698541666666EXTRACT: note_on channel=1 note=57 velocity=0 time=0EXTRACT: note_on channel=1 note=60 velocity=0 time=0EXTRACT: note_on channel=1 note=41 velocity=0 time=0EXTRACT: note_on channel=1 note=52 velocity=80 time=0.07007576458333334EXTRACT: note_on channel=1 note=55 velocity=80 time=0EXTRACT: note_on channel=1 note=60 velocity=80 time=0EXTRACT: note_on channel=1 note=36 velocity=80 time=0EXTRACT: note_on channel=1 note=48 velocity=80 time=0EXTRACT: note_on channel=0 note=69 velocity=0 time=0.22537881041666666EXTRACT: note_on channel=0 note=67 velocity=80 time=0.0018939395833333333EXTRACT: note_on channel=0 note=67 velocity=0 time=0.45265156041666665EXTRACT: note_on channel=0 note=65 velocity=80 time=0.0018939395833333333EXTRACT: note_on channel=0 note=65 velocity=0 time=0.22537881041666666EXTRACT: note_on channel=0 note=65 velocity=80 time=0.0018939395833333333EXTRACT: note_on channel=1 note=52 velocity=0 time=0.3844697354166667EXTRACT: note_on channel=1 note=55 velocity=0 time=0EXTRACT: note_on channel=1 note=60 velocity=0 time=0EXTRACT: note_on channel=1 note=36 velocity=0 time=0EXTRACT: note_on channel=1 note=48 velocity=0 time=0EXTRACT: note_on channel=0 note=65 velocity=0 time=0.068181825EXTRACT: note_on channel=0 note=65 velocity=80 time=0.0018939395833333333EXTRACT: note_on channel=1 note=53 velocity=80 time=0EXTRACT: note_on channel=1 note=57 velocity=80 time=0EXTRACT: note_on channel=1 note=62 velocity=80 time=0EXTRACT: note_on channel=1 note=38 velocity=80 time=0EXTRACT: note_on channel=1 note=50 velocity=80 time=0EXTRACT: note_on channel=0 note=65 velocity=0 time=0.22537881041666666EXTRACT: note_on channel=0 note=67 velocity=80 time=0.0018939395833333333EXTRACT: note_on channel=0 note=67 velocity=0 time=0.45265156041666665EXTRACT: note_on channel=0 note=69 velocity=80 time=0.0018939395833333333EXTRACT: note_on channel=0 note=69 velocity=0 time=0.45265156041666665EXTRACT: note_on channel=0 note=72 velocity=80 time=0.0018939395833333333EXTRACT: note_on channel=1 note=53 velocity=0 time=0.15719698541666666EXTRACT: note_on channel=1 note=57 velocity=0 time=0EXTRACT: note_on channel=1 note=62 velocity=0 time=0EXTRACT: note_on channel=1 note=38 velocity=0 time=0EXTRACT: note_on channel=1 note=50 velocity=0 time=0EXTRACT: note_on channel=0 note=72 velocity=0 time=0.068181825EXTRACT: note_on channel=0 note=70 velocity=80 time=0.0018939395833333333EXTRACT: note_on channel=1 note=53 velocity=80 time=0EXTRACT: note_on channel=1 note=58 velocity=80 time=0EXTRACT: note_on channel=1 note=62 velocity=80 time=0EXTRACT: note_on channel=1 note=34 velocity=80 time=0EXTRACT: note_on channel=1 note=46 velocity=80 time=0EXTRACT: note_on channel=0 note=70 velocity=0 time=0.22537881041666666EXTRACT: note_on channel=0 note=69 velocity=80 time=0.0018939395833333333EXTRACT: note_on channel=0 note=69 velocity=0 time=0.45265156041666665EXTRACT: note_on channel=0 note=69 velocity=80 time=0.0018939395833333333EXTRACT: note_on channel=1 note=53 velocity=0 time=0.6117424854166666EXTRACT: note_on channel=1 note=58 velocity=0 time=0EXTRACT: note_on channel=1 note=62 velocity=0 time=0EXTRACT: note_on channel=1 note=34 velocity=0 time=0EXTRACT: note_on channel=1 note=46 velocity=0 time=0EXTRACT: note_on channel=0 note=69 velocity=0 time=0.068181825EXTRACT: note_on channel=0 note=69 velocity=80 time=0.0018939395833333333EXTRACT: note_on channel=1 note=53 velocity=80 time=0EXTRACT: note_on channel=1 note=57 velocity=80 time=0EXTRACT: note_on channel=1 note=60 velocity=80 time=0EXTRACT: note_on channel=1 note=41 velocity=80 time=0EXTRACT: note_on channel=0 note=69 velocity=0 time=0.45265156041666665EXTRACT: note_on channel=0 note=69 velocity=80 time=0.0018939395833333333EXTRACT: note_on channel=0 note=69 velocity=0 time=0.45265156041666665EXTRACT: note_on channel=0 note=65 velocity=80 time=0.0018939395833333333EXTRACT: note_on channel=0 note=65 velocity=0 time=0.22537881041666666EXTRACT: note_on channel=0 note=67 velocity=80 time=0.0018939395833333333EXTRACT: note_on channel=1 note=53 velocity=0 time=0.15719698541666666EXTRACT: note_on channel=1 note=57 velocity=0 time=0EXTRACT: note_on channel=1 note=60 velocity=0 time=0EXTRACT: note_on channel=1 note=41 velocity=0 time=0EXTRACT: note_on channel=1 note=52 velocity=80 time=0.07007576458333334EXTRACT: note_on channel=1 note=55 velocity=80 time=0EXTRACT: note_on channel=1 note=60 velocity=80 time=0EXTRACT: note_on channel=1 note=36 velocity=80 time=0EXTRACT: note_on channel=1 note=48 velocity=80 time=0EXTRACT: note_on channel=0 note=67 velocity=0 time=0.22537881041666666EXTRACT: note_on channel=0 note=65 velocity=80 time=0.0018939395833333333EXTRACT: note_on channel=0 note=65 velocity=0 time=0.45265156041666665EXTRACT: note_on channel=0 note=65 velocity=80 time=0.0018939395833333333EXTRACT: note_on channel=0 note=65 velocity=0 time=0.22537881041666666EXTRACT: note_on channel=0 note=65 velocity=80 time=0.0018939395833333333EXTRACT: note_on channel=1 note=52 velocity=0 time=0.3844697354166667EXTRACT: note_on channel=1 note=55 velocity=0 time=0EXTRACT: note_on channel=1 note=60 velocity=0 time=0EXTRACT: note_on channel=1 note=36 velocity=0 time=0EXTRACT: note_on channel=1 note=48 velocity=0 time=0EXTRACT: note_on channel=0 note=65 velocity=0 time=0.068181825EXTRACT: note_on channel=0 note=77 velocity=80 time=0.0018939395833333333EXTRACT: note_on channel=1 note=53 velocity=80 time=0EXTRACT: note_on channel=1 note=57 velocity=80 time=0EXTRACT: note_on channel=1 note=62 velocity=80 time=0EXTRACT: note_on channel=1 note=38 velocity=80 time=0EXTRACT: note_on channel=1 note=50 velocity=80 time=0EXTRACT: note_on channel=0 note=77 velocity=0 time=0.22537881041666666EXTRACT: note_on channel=0 note=76 velocity=80 time=0.0018939395833333333EXTRACT: note_on channel=0 note=76 velocity=0 time=0.45265156041666665EXTRACT: note_on channel=0 note=74 velocity=80 time=0.0018939395833333333EXTRACT: note_on channel=1 note=53 velocity=0 time=0.6117424854166666EXTRACT: note_on channel=1 note=57 velocity=0 time=0EXTRACT: note_on channel=1 note=62 velocity=0 time=0EXTRACT: note_on channel=1 note=38 velocity=0 time=0EXTRACT: note_on channel=1 note=50 velocity=0 time=0EXTRACT: note_on channel=0 note=74 velocity=0 time=0.068181825EXTRACT: note_on channel=0 note=74 velocity=80 time=0.0018939395833333333EXTRACT: note_on channel=1 note=53 velocity=80 time=0EXTRACT: note_on channel=1 note=58 velocity=80 time=0EXTRACT: note_on channel=1 note=62 velocity=80 time=0EXTRACT: note_on channel=1 note=34 velocity=80 time=0EXTRACT: note_on channel=1 note=46 velocity=80 time=0EXTRACT: note_on channel=0 note=74 velocity=0 time=0.22537881041666666EXTRACT: note_on channel=0 note=72 velocity=80 time=0.0018939395833333333EXTRACT: note_on channel=0 note=72 velocity=0 time=0.45265156041666665EXTRACT: note_on channel=0 note=69 velocity=80 time=0.0018939395833333333EXTRACT: note_on channel=0 note=69 velocity=0 time=0.22537881041666666EXTRACT: note_on channel=0 note=69 velocity=80 time=0.0018939395833333333EXTRACT: note_on channel=1 note=53 velocity=0 time=0.3844697354166667EXTRACT: note_on channel=1 note=58 velocity=0 time=0EXTRACT: note_on channel=1 note=62 velocity=0 time=0EXTRACT: note_on channel=1 note=34 velocity=0 time=0EXTRACT: note_on channel=1 note=46 velocity=0 time=0EXTRACT: note_on channel=0 note=69 velocity=0 time=0.068181825EXTRACT: note_on channel=0 note=74 velocity=80 time=0.0018939395833333333EXTRACT: note_on channel=1 note=53 velocity=80 time=0EXTRACT: note_on channel=1 note=57 velocity=80 time=0EXTRACT: note_on channel=1 note=60 velocity=80 time=0EXTRACT: note_on channel=1 note=41 velocity=80 time=0EXTRACT: note_on channel=0 note=74 velocity=0 time=0.45265156041666665EXTRACT: note_on channel=0 note=72 velocity=80 time=0.0018939395833333333EXTRACT: note_on channel=0 note=72 velocity=0 time=0.45265156041666665EXTRACT: note_on channel=0 note=69 velocity=80 time=0.0018939395833333333EXTRACT: note_on channel=0 note=69 velocity=0 time=0.22537881041666666EXTRACT: note_on channel=0 note=69 velocity=80 time=0.0018939395833333333EXTRACT: note_on channel=1 note=53 velocity=0 time=0.15719698541666666EXTRACT: note_on channel=1 note=57 velocity=0 time=0EXTRACT: note_on channel=1 note=60 velocity=0 time=0EXTRACT: note_on channel=1 note=41 velocity=0 time=0EXTRACT: note_on channel=1 note=52 velocity=80 time=0.07007576458333334EXTRACT: note_on channel=1 note=55 velocity=80 time=0EXTRACT: note_on channel=1 note=60 velocity=80 time=0EXTRACT: note_on channel=1 note=36 velocity=80 time=0EXTRACT: note_on channel=1 note=48 velocity=80 time=0EXTRACT: note_on channel=0 note=69 velocity=0 time=0.22537881041666666EXTRACT: note_on channel=0 note=67 velocity=80 time=0.0018939395833333333EXTRACT: note_on channel=0 note=67 velocity=0 time=0.45265156041666665EXTRACT: note_on channel=0 note=65 velocity=80 time=0.0018939395833333333EXTRACT: note_on channel=0 note=65 velocity=0 time=0.22537881041666666EXTRACT: note_on channel=0 note=65 velocity=80 time=0.0018939395833333333EXTRACT: note_on channel=1 note=52 velocity=0 time=0.3844697354166667EXTRACT: note_on channel=1 note=55 velocity=0 time=0EXTRACT: note_on channel=1 note=60 velocity=0 time=0EXTRACT: note_on channel=1 note=36 velocity=0 time=0EXTRACT: note_on channel=1 note=48 velocity=0 time=0EXTRACT: note_on channel=0 note=65 velocity=0 time=0.068181825EXTRACT: note_on channel=0 note=65 velocity=80 time=0.0018939395833333333EXTRACT: note_on channel=1 note=53 velocity=80 time=0EXTRACT: note_on channel=1 note=57 velocity=80 time=0EXTRACT: note_on channel=1 note=62 velocity=80 time=0EXTRACT: note_on channel=1 note=38 velocity=80 time=0EXTRACT: note_on channel=1 note=50 velocity=80 time=0EXTRACT: note_on channel=0 note=65 velocity=0 time=0.45265156041666665EXTRACT: note_on channel=0 note=67 velocity=80 time=0.0018939395833333333EXTRACT: note_on channel=0 note=67 velocity=0 time=0.45265156041666665EXTRACT: note_on channel=0 note=69 velocity=80 time=0.0018939395833333333EXTRACT: note_on channel=1 note=53 velocity=0 time=0.3844697354166667EXTRACT: note_on channel=1 note=57 velocity=0 time=0EXTRACT: note_on channel=1 note=62 velocity=0 time=0EXTRACT: note_on channel=1 note=38 velocity=0 time=0EXTRACT: note_on channel=1 note=50 velocity=0 time=0EXTRACT: note_on channel=0 note=69 velocity=0 time=0.068181825EXTRACT: note_on channel=0 note=72 velocity=80 time=0.0018939395833333333EXTRACT: note_on channel=1 note=53 velocity=80 time=0EXTRACT: note_on channel=1 note=58 velocity=80 time=0EXTRACT: note_on channel=1 note=62 velocity=80 time=0EXTRACT: note_on channel=1 note=34 velocity=80 time=0EXTRACT: note_on channel=1 note=46 velocity=80 time=0EXTRACT: note_on channel=0 note=72 velocity=0 time=0.22537881041666666EXTRACT: note_on channel=0 note=70 velocity=80 time=0.0018939395833333333EXTRACT: note_on channel=0 note=70 velocity=0 time=0.6799243104166667EXTRACT: note_on channel=0 note=69 velocity=80 time=0.0018939395833333333EXTRACT: note_on channel=1 note=53 velocity=0 time=0.3844697354166667EXTRACT: note_on channel=1 note=58 velocity=0 time=0EXTRACT: note_on channel=1 note=62 velocity=0 time=0EXTRACT: note_on channel=1 note=34 velocity=0 time=0EXTRACT: note_on channel=1 note=46 velocity=0 time=0EXTRACT: note_on channel=0 note=69 velocity=0 time=0.068181825EXTRACT: note_on channel=0 note=67 velocity=80 time=0.0018939395833333333EXTRACT: note_on channel=1 note=53 velocity=80 time=0EXTRACT: note_on channel=1 note=57 velocity=80 time=0EXTRACT: note_on channel=1 note=60 velocity=80 time=0EXTRACT: note_on channel=1 note=41 velocity=80 time=0EXTRACT: note_on channel=0 note=67 velocity=0 time=0.22537881041666666EXTRACT: note_on channel=0 note=65 velocity=80 time=0.0018939395833333333EXTRACT: note_on channel=0 note=65 velocity=0 time=0.9071970604166667EXTRACT: note_on channel=0 note=65 velocity=80 time=0.0018939395833333333EXTRACT: note_on channel=1 note=53 velocity=0 time=0.15719698541666666EXTRACT: note_on channel=1 note=57 velocity=0 time=0EXTRACT: note_on channel=1 note=60 velocity=0 time=0EXTRACT: note_on channel=1 note=41 velocity=0 time=0EXTRACT: note_on channel=0 note=65 velocity=0 time=0.068181825EXTRACT: note_on channel=0 note=69 velocity=80 time=0.0018939395833333333EXTRACT: note_on channel=1 note=52 velocity=80 time=0EXTRACT: note_on channel=1 note=55 velocity=80 time=0EXTRACT: note_on channel=1 note=60 velocity=80 time=0EXTRACT: note_on channel=1 note=36 velocity=80 time=0EXTRACT: note_on channel=1 note=48 velocity=80 time=0EXTRACT: note_on channel=0 note=69 velocity=0 time=0.22537881041666666EXTRACT: note_on channel=0 note=69 velocity=80 time=0.0018939395833333333EXTRACT: note_on channel=0 note=69 velocity=0 time=0.45265156041666665EXTRACT: note_on channel=0 note=69 velocity=80 time=0.0018939395833333333EXTRACT: note_on channel=1 note=52 velocity=0 time=0.6117424854166666EXTRACT: note_on channel=1 note=55 velocity=0 time=0EXTRACT: note_on channel=1 note=60 velocity=0 time=0EXTRACT: note_on channel=1 note=36 velocity=0 time=0EXTRACT: note_on channel=1 note=48 velocity=0 time=0EXTRACT: note_on channel=0 note=69 velocity=0 time=0.068181825EXTRACT: note_on channel=0 note=67 velocity=80 time=0.0018939395833333333EXTRACT: note_on channel=1 note=65 velocity=80 time=0EXTRACT: note_on channel=1 note=70 velocity=80 time=0EXTRACT: note_on channel=1 note=74 velocity=80 time=0EXTRACT: note_on channel=1 note=46 velocity=80 time=0EXTRACT: note_on channel=1 note=46 velocity=0 time=0.42992428541666666EXTRACT: note_on channel=1 note=53 velocity=80 time=0.024621214583333332EXTRACT: note_on channel=1 note=65 velocity=0 time=0.19128789791666667EXTRACT: note_on channel=1 note=70 velocity=0 time=0EXTRACT: note_on channel=1 note=74 velocity=0 time=0EXTRACT: note_on channel=0 note=67 velocity=0 time=0.0340909125EXTRACT: note_on channel=0 note=65 velocity=80 time=0.0018939395833333333EXTRACT: note_on channel=1 note=65 velocity=80 time=0EXTRACT: note_on channel=1 note=70 velocity=80 time=0EXTRACT: note_on channel=1 note=74 velocity=80 time=0EXTRACT: note_on channel=1 note=53 velocity=0 time=0.20265153541666667EXTRACT: note_on channel=1 note=58 velocity=80 time=0.024621214583333332EXTRACT: note_on channel=1 note=65 velocity=0 time=0.20265153541666667EXTRACT: note_on channel=1 note=70 velocity=0 time=0EXTRACT: note_on channel=1 note=74 velocity=0 time=0EXTRACT: note_on channel=1 note=72 velocity=80 time=0.024621214583333332EXTRACT: note_on channel=1 note=58 velocity=0 time=0.20265153541666667EXTRACT: note_on channel=1 note=72 velocity=0 time=0.011363637499999999EXTRACT: note_on channel=0 note=65 velocity=0 time=0.011363637499999999EXTRACT: note_on channel=1 note=60 velocity=80 time=0.0018939395833333333EXTRACT: note_on channel=1 note=65 velocity=80 time=0EXTRACT: note_on channel=1 note=69 velocity=80 time=0EXTRACT: note_on channel=1 note=41 velocity=80 time=0EXTRACT: note_on channel=1 note=41 velocity=0 time=0.42992428541666666EXTRACT: note_on channel=1 note=48 velocity=80 time=0.024621214583333332EXTRACT: note_on channel=1 note=60 velocity=0 time=0.40719701041666667EXTRACT: note_on channel=1 note=65 velocity=0 time=0EXTRACT: note_on channel=1 note=69 velocity=0 time=0EXTRACT: note_on channel=1 note=48 velocity=0 time=0.022727274999999998EXTRACT: note_on channel=1 note=65 velocity=80 time=0.024621214583333332EXTRACT: note_on channel=1 note=53 velocity=80 time=0EXTRACT: note_on channel=1 note=65 velocity=0 time=0.14204546875EXTRACT: note_on channel=1 note=67 velocity=80 time=0.009469697916666667EXTRACT: note_on channel=1 note=67 velocity=0 time=0.14204546875EXTRACT: note_on channel=1 note=69 velocity=80 time=0.009469697916666667EXTRACT: note_on channel=1 note=53 velocity=0 time=0.12689395208333334EXTRACT: note_on channel=1 note=69 velocity=0 time=0.015151516666666667EXTRACT: note_on channel=1 note=60 velocity=80 time=0.009469697916666667EXTRACT: note_on channel=1 note=64 velocity=80 time=0EXTRACT: note_on channel=1 note=67 velocity=80 time=0EXTRACT: note_on channel=1 note=48 velocity=80 time=0EXTRACT: note_on channel=1 note=48 velocity=0 time=0.42992428541666666EXTRACT: note_on channel=1 note=55 velocity=80 time=0.024621214583333332EXTRACT: note_on channel=1 note=60 velocity=0 time=0.19128789791666667EXTRACT: note_on channel=1 note=64 velocity=0 time=0EXTRACT: note_on channel=1 note=67 velocity=0 time=0EXTRACT: note_on channel=1 note=67 velocity=80 time=0.03598485208333333EXTRACT: note_on channel=1 note=72 velocity=80 time=0EXTRACT: note_on channel=1 note=55 velocity=0 time=0.20265153541666667EXTRACT: note_on channel=1 note=60 velocity=80 time=0.024621214583333332EXTRACT: note_on channel=1 note=67 velocity=0 time=0.20265153541666667EXTRACT: note_on channel=1 note=72 velocity=0 time=0EXTRACT: note_on channel=1 note=67 velocity=80 time=0.024621214583333332EXTRACT: note_on channel=1 note=60 velocity=0 time=0.20265153541666667EXTRACT: note_on channel=1 note=67 velocity=0 time=0.011363637499999999EXTRACT: note_on channel=1 note=65 velocity=80 time=0.013257577083333333EXTRACT: note_on channel=1 note=69 velocity=80 time=0EXTRACT: note_on channel=1 note=50 velocity=80 time=0EXTRACT: note_on channel=1 note=50 velocity=0 time=0.42992428541666666EXTRACT: note_on channel=1 note=57 velocity=80 time=0.024621214583333332EXTRACT: note_on channel=1 note=65 velocity=0 time=0.19128789791666667EXTRACT: note_on channel=1 note=69 velocity=0 time=0EXTRACT: note_on channel=1 note=65 velocity=80 time=0.03598485208333333EXTRACT: note_on channel=1 note=69 velocity=80 time=0EXTRACT: note_on channel=1 note=57 velocity=0 time=0.20265153541666667EXTRACT: note_on channel=1 note=65 velocity=0 time=0.011363637499999999EXTRACT: note_on channel=1 note=69 velocity=0 time=0EXTRACT: note_on channel=1 note=69 velocity=80 time=0.013257577083333333EXTRACT: note_on channel=1 note=62 velocity=80 time=0EXTRACT: note_on channel=1 note=69 velocity=0 time=0.21401517291666666EXTRACT: note_on channel=1 note=72 velocity=80 time=0.013257577083333333EXTRACT: note_on channel=1 note=62 velocity=0 time=0.20265153541666667EXTRACT: note_on channel=1 note=72 velocity=0 time=0.011363637499999999EXTRACT: note_on channel=1 note=65 velocity=80 time=0.013257577083333333EXTRACT: note_on channel=1 note=70 velocity=80 time=0EXTRACT: note_on channel=1 note=74 velocity=80 time=0EXTRACT: note_on channel=1 note=46 velocity=80 time=0EXTRACT: note_on channel=1 note=46 velocity=0 time=0.42992428541666666EXTRACT: note_on channel=1 note=53 velocity=80 time=0.024621214583333332EXTRACT: note_on channel=1 note=65 velocity=0 time=0.19128789791666667EXTRACT: note_on channel=1 note=70 velocity=0 time=0EXTRACT: note_on channel=1 note=74 velocity=0 time=0EXTRACT: note_on channel=1 note=65 velocity=80 time=0.03598485208333333EXTRACT: note_on channel=1 note=70 velocity=80 time=0EXTRACT: note_on channel=1 note=74 velocity=80 time=0EXTRACT: note_on channel=1 note=53 velocity=0 time=0.20265153541666667EXTRACT: note_on channel=1 note=58 velocity=80 time=0.024621214583333332EXTRACT: note_on channel=1 note=65 velocity=0 time=0.20265153541666667EXTRACT: note_on channel=1 note=70 velocity=0 time=0EXTRACT: note_on channel=1 note=74 velocity=0 time=0EXTRACT: note_on channel=1 note=72 velocity=80 time=0.024621214583333332EXTRACT: note_on channel=1 note=58 velocity=0 time=0.20265153541666667EXTRACT: note_on channel=1 note=72 velocity=0 time=0.011363637499999999EXTRACT: note_on channel=1 note=60 velocity=80 time=0.013257577083333333EXTRACT: note_on channel=1 note=65 velocity=80 time=0EXTRACT: note_on channel=1 note=69 velocity=80 time=0EXTRACT: note_on channel=1 note=41 velocity=80 time=0EXTRACT: note_on channel=1 note=41 velocity=0 time=0.42992428541666666EXTRACT: note_on channel=1 note=48 velocity=80 time=0.024621214583333332EXTRACT: note_on channel=1 note=60 velocity=0 time=0.40719701041666667EXTRACT: note_on channel=1 note=65 velocity=0 time=0EXTRACT: note_on channel=1 note=69 velocity=0 time=0EXTRACT: note_on channel=1 note=48 velocity=0 time=0.022727274999999998EXTRACT: note_on channel=1 note=65 velocity=80 time=0.024621214583333332EXTRACT: note_on channel=1 note=53 velocity=80 time=0EXTRACT: note_on channel=1 note=65 velocity=0 time=0.14204546875EXTRACT: note_on channel=1 note=67 velocity=80 time=0.009469697916666667EXTRACT: note_on channel=1 note=67 velocity=0 time=0.14204546875EXTRACT: note_on channel=1 note=69 velocity=80 time=0.009469697916666667EXTRACT: note_on channel=1 note=53 velocity=0 time=0.12689395208333334EXTRACT: note_on channel=1 note=69 velocity=0 time=0.015151516666666667EXTRACT: note_on channel=1 note=60 velocity=80 time=0.009469697916666667EXTRACT: note_on channel=1 note=64 velocity=80 time=0EXTRACT: note_on channel=1 note=67 velocity=80 time=0EXTRACT: note_on channel=1 note=36 velocity=80 time=0EXTRACT: note_on channel=1 note=36 velocity=0 time=0.42992428541666666EXTRACT: note_on channel=1 note=43 velocity=80 time=0.024621214583333332EXTRACT: note_on channel=1 note=43 velocity=0 time=0.42992428541666666EXTRACT: note_on channel=1 note=48 velocity=80 time=0.024621214583333332EXTRACT: note_on channel=1 note=60 velocity=0 time=0.3844697354166667EXTRACT: note_on channel=1 note=64 velocity=0 time=0EXTRACT: note_on channel=1 note=67 velocity=0 time=0EXTRACT: note_on channel=1 note=60 velocity=80 time=0.07007576458333334EXTRACT: note_on channel=1 note=64 velocity=80 time=0EXTRACT: note_on channel=1 note=67 velocity=80 time=0EXTRACT: note_on channel=0 note=72 velocity=80 time=0.68181825EXTRACT: note_on channel=0 note=72 velocity=0 time=0.22537881041666666EXTRACT: note_on channel=0 note=74 velocity=80 time=0.0018939395833333333EXTRACT: note_on channel=1 note=48 velocity=0 time=0.3617424604166667EXTRACT: note_on channel=1 note=60 velocity=0 time=0.022727274999999998EXTRACT: note_on channel=1 note=64 velocity=0 time=0EXTRACT: note_on channel=1 note=67 velocity=0 time=0EXTRACT: note_on channel=0 note=74 velocity=0 time=0.068181825EXTRACT: note_on channel=0 note=74 velocity=80 time=0.0018939395833333333EXTRACT: note_on channel=1 note=65 velocity=80 time=0EXTRACT: note_on channel=1 note=70 velocity=80 time=0EXTRACT: note_on channel=1 note=74 velocity=80 time=0EXTRACT: note_on channel=1 note=46 velocity=80 time=0EXTRACT: note_on channel=1 note=46 velocity=0 time=0.42992428541666666EXTRACT: note_on channel=0 note=74 velocity=0 time=0.022727274999999998EXTRACT: note_on channel=0 note=72 velocity=80 time=0.0018939395833333333EXTRACT: note_on channel=1 note=53 velocity=80 time=0EXTRACT: note_on channel=1 note=65 velocity=0 time=0.19128789791666667EXTRACT: note_on channel=1 note=70 velocity=0 time=0EXTRACT: note_on channel=1 note=74 velocity=0 time=0EXTRACT: note_on channel=0 note=72 velocity=0 time=0.0340909125EXTRACT: note_on channel=0 note=72 velocity=80 time=0.0018939395833333333EXTRACT: note_on channel=1 note=65 velocity=80 time=0EXTRACT: note_on channel=1 note=70 velocity=80 time=0EXTRACT: note_on channel=1 note=74 velocity=80 time=0EXTRACT: note_on channel=1 note=53 velocity=0 time=0.20265153541666667EXTRACT: note_on channel=1 note=58 velocity=80 time=0.024621214583333332EXTRACT: note_on channel=1 note=65 velocity=0 time=0.20265153541666667EXTRACT: note_on channel=1 note=70 velocity=0 time=0EXTRACT: note_on channel=1 note=74 velocity=0 time=0EXTRACT: note_on channel=0 note=72 velocity=0 time=0.022727274999999998EXTRACT: note_on channel=0 note=69 velocity=80 time=0.0018939395833333333EXTRACT: note_on channel=1 note=72 velocity=80 time=0EXTRACT: note_on channel=1 note=58 velocity=0 time=0.20265153541666667EXTRACT: note_on channel=1 note=72 velocity=0 time=0.011363637499999999EXTRACT: note_on channel=0 note=69 velocity=0 time=0.011363637499999999EXTRACT: note_on channel=0 note=69 velocity=80 time=0.0018939395833333333EXTRACT: note_on channel=1 note=60 velocity=80 time=0EXTRACT: note_on channel=1 note=65 velocity=80 time=0EXTRACT: note_on channel=1 note=69 velocity=80 time=0EXTRACT: note_on channel=1 note=41 velocity=80 time=0EXTRACT: note_on channel=1 note=41 velocity=0 time=0.42992428541666666EXTRACT: note_on channel=0 note=69 velocity=0 time=0.022727274999999998EXTRACT: note_on channel=0 note=65 velocity=80 time=0.0018939395833333333EXTRACT: note_on channel=1 note=48 velocity=80 time=0EXTRACT: note_on channel=1 note=60 velocity=0 time=0.40719701041666667EXTRACT: note_on channel=1 note=65 velocity=0 time=0EXTRACT: note_on channel=1 note=69 velocity=0 time=0EXTRACT: note_on channel=1 note=48 velocity=0 time=0.022727274999999998EXTRACT: note_on channel=1 note=65 velocity=80 time=0.024621214583333332EXTRACT: note_on channel=1 note=53 velocity=80 time=0EXTRACT: note_on channel=1 note=65 velocity=0 time=0.14204546875EXTRACT: note_on channel=1 note=67 velocity=80 time=0.009469697916666667EXTRACT: note_on channel=0 note=65 velocity=0 time=0.07386364375EXTRACT: note_on channel=1 note=67 velocity=0 time=0.068181825EXTRACT: note_on channel=1 note=69 velocity=80 time=0.009469697916666667EXTRACT: note_on channel=1 note=53 velocity=0 time=0.12689395208333334EXTRACT: note_on channel=1 note=69 velocity=0 time=0.015151516666666667EXTRACT: note_on channel=0 note=65 velocity=80 time=0.009469697916666667EXTRACT: note_on channel=1 note=60 velocity=80 time=0EXTRACT: note_on channel=1 note=64 velocity=80 time=0EXTRACT: note_on channel=1 note=67 velocity=80 time=0EXTRACT: note_on channel=1 note=48 velocity=80 time=0EXTRACT: note_on channel=0 note=65 velocity=0 time=0.14962122708333334EXTRACT: note_on channel=0 note=67 velocity=80 time=0.0018939395833333333EXTRACT: note_on channel=0 note=67 velocity=0 time=0.14962122708333334EXTRACT: note_on channel=0 note=69 velocity=80 time=0.0018939395833333333EXTRACT: note_on channel=1 note=48 velocity=0 time=0.12689395208333334EXTRACT: note_on channel=0 note=69 velocity=0 time=0.022727274999999998EXTRACT: note_on channel=0 note=69 velocity=80 time=0.0018939395833333333EXTRACT: note_on channel=1 note=55 velocity=80 time=0EXTRACT: note_on channel=1 note=60 velocity=0 time=0.19128789791666667EXTRACT: note_on channel=1 note=64 velocity=0 time=0EXTRACT: note_on channel=1 note=67 velocity=0 time=0EXTRACT: note_on channel=0 note=69 velocity=0 time=0.0340909125EXTRACT: note_on channel=0 note=65 velocity=80 time=0.0018939395833333333EXTRACT: note_on channel=1 note=67 velocity=80 time=0EXTRACT: note_on channel=1 note=72 velocity=80 time=0EXTRACT: note_on channel=1 note=55 velocity=0 time=0.20265153541666667EXTRACT: note_on channel=1 note=60 velocity=80 time=0.024621214583333332EXTRACT: note_on channel=1 note=67 velocity=0 time=0.20265153541666667EXTRACT: note_on channel=1 note=72 velocity=0 time=0EXTRACT: note_on channel=0 note=65 velocity=0 time=0.022727274999999998EXTRACT: note_on channel=0 note=65 velocity=80 time=0.0018939395833333333EXTRACT: note_on channel=1 note=67 velocity=80 time=0EXTRACT: note_on channel=1 note=60 velocity=0 time=0.20265153541666667EXTRACT: note_on channel=1 note=67 velocity=0 time=0.011363637499999999EXTRACT: note_on channel=0 note=65 velocity=0 time=0.011363637499999999EXTRACT: note_on channel=0 note=67 velocity=80 time=0.0018939395833333333EXTRACT: note_on channel=1 note=65 velocity=80 time=0EXTRACT: note_on channel=1 note=69 velocity=80 time=0EXTRACT: note_on channel=1 note=50 velocity=80 time=0EXTRACT: note_on channel=0 note=67 velocity=0 time=0.22537881041666666EXTRACT: note_on channel=0 note=65 velocity=80 time=0.0018939395833333333EXTRACT: note_on channel=1 note=50 velocity=0 time=0.20265153541666667EXTRACT: note_on channel=1 note=57 velocity=80 time=0.024621214583333332EXTRACT: note_on channel=1 note=65 velocity=0 time=0.19128789791666667EXTRACT: note_on channel=1 note=69 velocity=0 time=0EXTRACT: note_on channel=1 note=65 velocity=80 time=0.03598485208333333EXTRACT: note_on channel=1 note=69 velocity=80 time=0EXTRACT: note_on channel=1 note=57 velocity=0 time=0.20265153541666667EXTRACT: note_on channel=1 note=65 velocity=0 time=0.011363637499999999EXTRACT: note_on channel=1 note=69 velocity=0 time=0EXTRACT: note_on channel=0 note=65 velocity=0 time=0.011363637499999999EXTRACT: note_on channel=1 note=69 velocity=80 time=0.0018939395833333333EXTRACT: note_on channel=1 note=62 velocity=80 time=0EXTRACT: note_on channel=1 note=69 velocity=0 time=0.21401517291666666EXTRACT: note_on channel=0 note=65 velocity=80 time=0.013257577083333333EXTRACT: note_on channel=1 note=72 velocity=80 time=0EXTRACT: note_on channel=1 note=62 velocity=0 time=0.20265153541666667EXTRACT: note_on channel=1 note=72 velocity=0 time=0.011363637499999999EXTRACT: note_on channel=0 note=65 velocity=0 time=0.011363637499999999EXTRACT: note_on channel=0 note=65 velocity=80 time=0.0018939395833333333EXTRACT: note_on channel=1 note=65 velocity=80 time=0EXTRACT: note_on channel=1 note=70 velocity=80 time=0EXTRACT: note_on channel=1 note=74 velocity=80 time=0EXTRACT: note_on channel=1 note=46 velocity=80 time=0EXTRACT: note_on channel=0 note=65 velocity=0 time=0.22537881041666666EXTRACT: note_on channel=0 note=67 velocity=80 time=0.0018939395833333333EXTRACT: note_on channel=1 note=46 velocity=0 time=0.20265153541666667EXTRACT: note_on channel=1 note=53 velocity=80 time=0.024621214583333332EXTRACT: note_on channel=1 note=65 velocity=0 time=0.19128789791666667EXTRACT: note_on channel=1 note=70 velocity=0 time=0EXTRACT: note_on channel=1 note=74 velocity=0 time=0EXTRACT: note_on channel=0 note=67 velocity=0 time=0.0340909125EXTRACT: note_on channel=0 note=69 velocity=80 time=0.0018939395833333333EXTRACT: note_on channel=1 note=65 velocity=80 time=0EXTRACT: note_on channel=1 note=70 velocity=80 time=0EXTRACT: note_on channel=1 note=74 velocity=80 time=0EXTRACT: note_on channel=1 note=53 velocity=0 time=0.20265153541666667EXTRACT: note_on channel=1 note=58 velocity=80 time=0.024621214583333332EXTRACT: note_on channel=1 note=65 velocity=0 time=0.20265153541666667EXTRACT: note_on channel=1 note=70 velocity=0 time=0EXTRACT: note_on channel=1 note=74 velocity=0 time=0EXTRACT: note_on channel=1 note=72 velocity=80 time=0.024621214583333332EXTRACT: note_on channel=1 note=58 velocity=0 time=0.20265153541666667EXTRACT: note_on channel=1 note=72 velocity=0 time=0.011363637499999999EXTRACT: note_on channel=0 note=69 velocity=0 time=0.011363637499999999EXTRACT: note_on channel=1 note=60 velocity=80 time=0.0018939395833333333EXTRACT: note_on channel=1 note=65 velocity=80 time=0EXTRACT: note_on channel=1 note=69 velocity=80 time=0EXTRACT: note_on channel=1 note=41 velocity=80 time=0EXTRACT: note_on channel=1 note=41 velocity=0 time=0.42992428541666666EXTRACT: note_on channel=0 note=65 velocity=80 time=0.024621214583333332EXTRACT: note_on channel=1 note=48 velocity=80 time=0EXTRACT: note_on channel=0 note=65 velocity=0 time=0.22537881041666666EXTRACT: note_on channel=0 note=67 velocity=80 time=0.0018939395833333333EXTRACT: note_on channel=1 note=60 velocity=0 time=0.17992426041666668EXTRACT: note_on channel=1 note=65 velocity=0 time=0EXTRACT: note_on channel=1 note=69 velocity=0 time=0EXTRACT: note_on channel=1 note=48 velocity=0 time=0.022727274999999998EXTRACT: note_on channel=0 note=67 velocity=0 time=0.022727274999999998EXTRACT: note_on channel=0 note=69 velocity=80 time=0.0018939395833333333EXTRACT: note_on channel=1 note=65 velocity=80 time=0EXTRACT: note_on channel=1 note=53 velocity=80 time=0EXTRACT: note_on channel=1 note=65 velocity=0 time=0.14204546875EXTRACT: note_on channel=1 note=67 velocity=80 time=0.009469697916666667EXTRACT: note_on channel=1 note=67 velocity=0 time=0.14204546875EXTRACT: note_on channel=1 note=69 velocity=80 time=0.009469697916666667EXTRACT: note_on channel=1 note=53 velocity=0 time=0.12689395208333334EXTRACT: note_on channel=1 note=69 velocity=0 time=0.015151516666666667EXTRACT: note_on channel=1 note=60 velocity=80 time=0.009469697916666667EXTRACT: note_on channel=1 note=64 velocity=80 time=0EXTRACT: note_on channel=1 note=67 velocity=80 time=0EXTRACT: note_on channel=1 note=36 velocity=80 time=0EXTRACT: note_on channel=0 note=69 velocity=0 time=0.22537881041666666EXTRACT: note_on channel=0 note=67 velocity=80 time=0.0018939395833333333EXTRACT: note_on channel=1 note=36 velocity=0 time=0.20265153541666667EXTRACT: note_on channel=0 note=67 velocity=0 time=0.022727274999999998EXTRACT: note_on channel=0 note=64 velocity=80 time=0.0018939395833333333EXTRACT: note_on channel=1 note=43 velocity=80 time=0EXTRACT: note_on channel=1 note=43 velocity=0 time=0.42992428541666666EXTRACT: note_on channel=1 note=48 velocity=80 time=0.024621214583333332EXTRACT: note_on channel=1 note=60 velocity=0 time=0.3844697354166667EXTRACT: note_on channel=1 note=64 velocity=0 time=0EXTRACT: note_on channel=1 note=67 velocity=0 time=0EXTRACT: note_on channel=0 note=64 velocity=0 time=0.068181825EXTRACT: note_on channel=1 note=60 velocity=80 time=0.0018939395833333333EXTRACT: note_on channel=1 note=64 velocity=80 time=0EXTRACT: note_on channel=1 note=67 velocity=80 time=0EXTRACT: note_on channel=0 note=72 velocity=80 time=0.68181825EXTRACT: note_on channel=0 note=72 velocity=0 time=0.22537881041666666EXTRACT: note_on channel=0 note=74 velocity=80 time=0.0018939395833333333EXTRACT: note_on channel=1 note=48 velocity=0 time=0.3617424604166667EXTRACT: note_on channel=1 note=60 velocity=0 time=0.022727274999999998EXTRACT: note_on channel=1 note=64 velocity=0 time=0EXTRACT: note_on channel=1 note=67 velocity=0 time=0EXTRACT: note_on channel=0 note=74 velocity=0 time=0.068181825EXTRACT: note_on channel=0 note=74 velocity=80 time=0.0018939395833333333EXTRACT: note_on channel=1 note=65 velocity=80 time=0EXTRACT: note_on channel=1 note=70 velocity=80 time=0EXTRACT: note_on channel=1 note=74 velocity=80 time=0EXTRACT: note_on channel=1 note=46 velocity=80 time=0EXTRACT: note_on channel=1 note=46 velocity=0 time=0.42992428541666666EXTRACT: note_on channel=0 note=74 velocity=0 time=0.022727274999999998EXTRACT: note_on channel=0 note=72 velocity=80 time=0.0018939395833333333EXTRACT: note_on channel=1 note=53 velocity=80 time=0EXTRACT: note_on channel=1 note=65 velocity=0 time=0.19128789791666667EXTRACT: note_on channel=1 note=70 velocity=0 time=0EXTRACT: note_on channel=1 note=74 velocity=0 time=0EXTRACT: note_on channel=0 note=72 velocity=0 time=0.0340909125EXTRACT: note_on channel=0 note=72 velocity=80 time=0.0018939395833333333EXTRACT: note_on channel=1 note=65 velocity=80 time=0EXTRACT: note_on channel=1 note=70 velocity=80 time=0EXTRACT: note_on channel=1 note=74 velocity=80 time=0EXTRACT: note_on channel=1 note=53 velocity=0 time=0.20265153541666667EXTRACT: note_on channel=1 note=58 velocity=80 time=0.024621214583333332EXTRACT: note_on channel=1 note=65 velocity=0 time=0.20265153541666667EXTRACT: note_on channel=1 note=70 velocity=0 time=0EXTRACT: note_on channel=1 note=74 velocity=0 time=0EXTRACT: note_on channel=0 note=72 velocity=0 time=0.022727274999999998EXTRACT: note_on channel=0 note=69 velocity=80 time=0.0018939395833333333EXTRACT: note_on channel=1 note=72 velocity=80 time=0EXTRACT: note_on channel=1 note=58 velocity=0 time=0.20265153541666667EXTRACT: note_on channel=1 note=72 velocity=0 time=0.011363637499999999EXTRACT: note_on channel=0 note=69 velocity=0 time=0.011363637499999999EXTRACT: note_on channel=0 note=69 velocity=80 time=0.0018939395833333333EXTRACT: note_on channel=1 note=60 velocity=80 time=0EXTRACT: note_on channel=1 note=65 velocity=80 time=0EXTRACT: note_on channel=1 note=69 velocity=80 time=0EXTRACT: note_on channel=1 note=41 velocity=80 time=0EXTRACT: note_on channel=1 note=41 velocity=0 time=0.42992428541666666EXTRACT: note_on channel=0 note=69 velocity=0 time=0.022727274999999998EXTRACT: note_on channel=0 note=65 velocity=80 time=0.0018939395833333333EXTRACT: note_on channel=1 note=48 velocity=80 time=0EXTRACT: note_on channel=1 note=60 velocity=0 time=0.40719701041666667EXTRACT: note_on channel=1 note=65 velocity=0 time=0EXTRACT: note_on channel=1 note=69 velocity=0 time=0EXTRACT: note_on channel=1 note=48 velocity=0 time=0.022727274999999998EXTRACT: note_on channel=0 note=65 velocity=0 time=0.022727274999999998EXTRACT: note_on channel=1 note=65 velocity=80 time=0.0018939395833333333EXTRACT: note_on channel=1 note=53 velocity=80 time=0EXTRACT: note_on channel=1 note=65 velocity=0 time=0.14204546875EXTRACT: note_on channel=1 note=67 velocity=80 time=0.009469697916666667EXTRACT: note_on channel=1 note=67 velocity=0 time=0.14204546875EXTRACT: note_on channel=1 note=69 velocity=80 time=0.009469697916666667EXTRACT: note_on channel=1 note=53 velocity=0 time=0.12689395208333334EXTRACT: note_on channel=1 note=69 velocity=0 time=0.015151516666666667EXTRACT: note_on channel=1 note=60 velocity=80 time=0.009469697916666667EXTRACT: note_on channel=1 note=64 velocity=80 time=0EXTRACT: note_on channel=1 note=67 velocity=80 time=0EXTRACT: note_on channel=1 note=48 velocity=80 time=0EXTRACT: note_on channel=0 note=65 velocity=80 time=0.113636375EXTRACT: note_on channel=0 note=65 velocity=0 time=0.11174243541666666EXTRACT: note_on channel=0 note=69 velocity=80 time=0.0018939395833333333EXTRACT: note_on channel=0 note=69 velocity=0 time=0.11174243541666666EXTRACT: note_on channel=0 note=65 velocity=80 time=0.0018939395833333333EXTRACT: note_on channel=1 note=48 velocity=0 time=0.08901516041666667EXTRACT: note_on channel=0 note=65 velocity=0 time=0.022727274999999998EXTRACT: note_on channel=0 note=67 velocity=80 time=0.0018939395833333333EXTRACT: note_on channel=1 note=55 velocity=80 time=0EXTRACT: note_on channel=1 note=60 velocity=0 time=0.19128789791666667EXTRACT: note_on channel=1 note=64 velocity=0 time=0EXTRACT: note_on channel=1 note=67 velocity=0 time=0EXTRACT: note_on channel=1 note=67 velocity=80 time=0.03598485208333333EXTRACT: note_on channel=1 note=72 velocity=80 time=0EXTRACT: note_on channel=1 note=55 velocity=0 time=0.20265153541666667EXTRACT: note_on channel=0 note=67 velocity=0 time=0.022727274999999998EXTRACT: note_on channel=0 note=65 velocity=80 time=0.0018939395833333333EXTRACT: note_on channel=1 note=60 velocity=80 time=0EXTRACT: note_on channel=1 note=67 velocity=0 time=0.20265153541666667EXTRACT: note_on channel=1 note=72 velocity=0 time=0EXTRACT: note_on channel=0 note=65 velocity=0 time=0.022727274999999998EXTRACT: note_on channel=0 note=67 velocity=80 time=0.0018939395833333333EXTRACT: note_on channel=1 note=67 velocity=80 time=0EXTRACT: note_on channel=1 note=60 velocity=0 time=0.20265153541666667EXTRACT: note_on channel=1 note=67 velocity=0 time=0.011363637499999999EXTRACT: note_on channel=1 note=65 velocity=80 time=0.013257577083333333EXTRACT: note_on channel=1 note=69 velocity=80 time=0EXTRACT: note_on channel=1 note=50 velocity=80 time=0EXTRACT: note_on channel=0 note=67 velocity=0 time=0.22537881041666666EXTRACT: note_on channel=0 note=67 velocity=80 time=0.0018939395833333333EXTRACT: note_on channel=1 note=50 velocity=0 time=0.20265153541666667EXTRACT: note_on channel=0 note=67 velocity=0 time=0.022727274999999998EXTRACT: note_on channel=0 note=65 velocity=80 time=0.0018939395833333333EXTRACT: note_on channel=1 note=57 velocity=80 time=0EXTRACT: note_on channel=1 note=65 velocity=0 time=0.19128789791666667EXTRACT: note_on channel=1 note=69 velocity=0 time=0EXTRACT: note_on channel=1 note=65 velocity=80 time=0.03598485208333333EXTRACT: note_on channel=1 note=69 velocity=80 time=0EXTRACT: note_on channel=1 note=57 velocity=0 time=0.20265153541666667EXTRACT: note_on channel=1 note=65 velocity=0 time=0.011363637499999999EXTRACT: note_on channel=1 note=69 velocity=0 time=0EXTRACT: note_on channel=0 note=65 velocity=0 time=0.011363637499999999EXTRACT: note_on channel=1 note=69 velocity=80 time=0.0018939395833333333EXTRACT: note_on channel=1 note=62 velocity=80 time=0EXTRACT: note_on channel=0 note=65 velocity=80 time=0.15151516666666667EXTRACT: note_on channel=1 note=69 velocity=0 time=0.06250000625EXTRACT: note_on channel=1 note=72 velocity=80 time=0.013257577083333333EXTRACT: note_on channel=0 note=65 velocity=0 time=0.07386364375EXTRACT: note_on channel=0 note=65 velocity=80 time=0.0018939395833333333EXTRACT: note_on channel=1 note=62 velocity=0 time=0.12689395208333334EXTRACT: note_on channel=1 note=72 velocity=0 time=0.011363637499999999EXTRACT: note_on channel=0 note=65 velocity=0 time=0.011363637499999999EXTRACT: note_on channel=0 note=65 velocity=80 time=0.0018939395833333333EXTRACT: note_on channel=1 note=65 velocity=80 time=0EXTRACT: note_on channel=1 note=70 velocity=80 time=0EXTRACT: note_on channel=1 note=74 velocity=80 time=0EXTRACT: note_on channel=1 note=46 velocity=80 time=0EXTRACT: note_on channel=1 note=46 velocity=0 time=0.42992428541666666EXTRACT: note_on channel=0 note=65 velocity=0 time=0.022727274999999998EXTRACT: note_on channel=0 note=67 velocity=80 time=0.0018939395833333333EXTRACT: note_on channel=1 note=53 velocity=80 time=0EXTRACT: note_on channel=1 note=65 velocity=0 time=0.19128789791666667EXTRACT: note_on channel=1 note=70 velocity=0 time=0EXTRACT: note_on channel=1 note=74 velocity=0 time=0EXTRACT: note_on channel=1 note=65 velocity=80 time=0.03598485208333333EXTRACT: note_on channel=1 note=70 velocity=80 time=0EXTRACT: note_on channel=1 note=74 velocity=80 time=0EXTRACT: note_on channel=1 note=53 velocity=0 time=0.20265153541666667EXTRACT: note_on channel=0 note=67 velocity=0 time=0.022727274999999998EXTRACT: note_on channel=0 note=69 velocity=80 time=0.0018939395833333333EXTRACT: note_on channel=1 note=58 velocity=80 time=0EXTRACT: note_on channel=1 note=65 velocity=0 time=0.20265153541666667EXTRACT: note_on channel=1 note=70 velocity=0 time=0EXTRACT: note_on channel=1 note=74 velocity=0 time=0EXTRACT: note_on channel=0 note=69 velocity=0 time=0.022727274999999998EXTRACT: note_on channel=0 note=67 velocity=80 time=0.0018939395833333333EXTRACT: note_on channel=1 note=72 velocity=80 time=0EXTRACT: note_on channel=1 note=58 velocity=0 time=0.20265153541666667EXTRACT: note_on channel=1 note=72 velocity=0 time=0.011363637499999999EXTRACT: note_on channel=1 note=60 velocity=80 time=0.013257577083333333EXTRACT: note_on channel=1 note=65 velocity=80 time=0EXTRACT: note_on channel=1 note=69 velocity=80 time=0EXTRACT: note_on channel=1 note=41 velocity=80 time=0EXTRACT: note_on channel=1 note=41 velocity=0 time=0.42992428541666666EXTRACT: note_on channel=0 note=67 velocity=0 time=0.022727274999999998EXTRACT: note_on channel=1 note=48 velocity=80 time=0.0018939395833333333EXTRACT: note_on channel=0 note=65 velocity=80 time=0.22727275EXTRACT: note_on channel=1 note=60 velocity=0 time=0.17992426041666668EXTRACT: note_on channel=1 note=65 velocity=0 time=0EXTRACT: note_on channel=1 note=69 velocity=0 time=0EXTRACT: note_on channel=1 note=48 velocity=0 time=0.022727274999999998EXTRACT: note_on channel=0 note=65 velocity=0 time=0.022727274999999998EXTRACT: note_on channel=0 note=65 velocity=80 time=0.0018939395833333333EXTRACT: note_on channel=1 note=65 velocity=80 time=0EXTRACT: note_on channel=1 note=53 velocity=80 time=0EXTRACT: note_on channel=1 note=65 velocity=0 time=0.14204546875EXTRACT: note_on channel=1 note=67 velocity=80 time=0.009469697916666667EXTRACT: note_on channel=0 note=65 velocity=0 time=0.07386364375EXTRACT: note_on channel=0 note=67 velocity=80 time=0.0018939395833333333EXTRACT: note_on channel=1 note=67 velocity=0 time=0.06628788541666666EXTRACT: note_on channel=1 note=69 velocity=80 time=0.009469697916666667EXTRACT: note_on channel=1 note=53 velocity=0 time=0.12689395208333334EXTRACT: note_on channel=1 note=69 velocity=0 time=0.015151516666666667EXTRACT: note_on channel=1 note=60 velocity=80 time=0.009469697916666667EXTRACT: note_on channel=1 note=64 velocity=80 time=0EXTRACT: note_on channel=1 note=67 velocity=80 time=0EXTRACT: note_on channel=1 note=36 velocity=80 time=0EXTRACT: note_on channel=0 note=67 velocity=0 time=0.22537881041666666EXTRACT: note_on channel=0 note=69 velocity=80 time=0.0018939395833333333EXTRACT: note_on channel=1 note=36 velocity=0 time=0.20265153541666667EXTRACT: note_on channel=1 note=43 velocity=80 time=0.024621214583333332EXTRACT: note_on channel=0 note=69 velocity=0 time=0.22537881041666666EXTRACT: note_on channel=0 note=70 velocity=80 time=0.0018939395833333333EXTRACT: note_on channel=1 note=43 velocity=0 time=0.20265153541666667EXTRACT: note_on channel=1 note=48 velocity=80 time=0.024621214583333332EXTRACT: note_on channel=0 note=70 velocity=0 time=0.22537881041666666EXTRACT: note_on channel=0 note=67 velocity=80 time=0.0018939395833333333EXTRACT: note_on channel=1 note=60 velocity=0 time=0.15719698541666666EXTRACT: note_on channel=1 note=64 velocity=0 time=0EXTRACT: note_on channel=1 note=67 velocity=0 time=0EXTRACT: note_on channel=1 note=60 velocity=80 time=0.07007576458333334EXTRACT: note_on channel=1 note=64 velocity=80 time=0EXTRACT: note_on channel=1 note=67 velocity=80 time=0EXTRACT: note_on channel=0 note=67 velocity=0 time=0.22537881041666666EXTRACT: note_on channel=0 note=67 velocity=80 time=0.6837121895833334EXTRACT: note_on channel=1 note=48 velocity=0 time=0.3617424604166667EXTRACT: note_on channel=1 note=60 velocity=0 time=0.022727274999999998EXTRACT: note_on channel=1 note=64 velocity=0 time=0EXTRACT: note_on channel=1 note=67 velocity=0 time=0EXTRACT: note_on channel=0 note=67 velocity=0 time=0.068181825EXTRACT: note_on channel=0 note=67 velocity=80 time=0.0018939395833333333EXTRACT: note_on channel=1 note=62 velocity=80 time=0EXTRACT: note_on channel=1 note=67 velocity=80 time=0EXTRACT: note_on channel=1 note=70 velocity=80 time=0EXTRACT: note_on channel=1 note=43 velocity=80 time=0EXTRACT: note_on channel=1 note=55 velocity=80 time=0EXTRACT: note_on channel=0 note=67 velocity=0 time=0.22537881041666666EXTRACT: note_on channel=0 note=67 velocity=80 time=0.0018939395833333333EXTRACT: note_on channel=0 note=67 velocity=0 time=0.45265156041666665EXTRACT: note_on channel=0 note=65 velocity=80 time=0.0018939395833333333EXTRACT: note_on channel=1 note=62 velocity=0 time=0.17992426041666668EXTRACT: note_on channel=1 note=67 velocity=0 time=0EXTRACT: note_on channel=1 note=70 velocity=0 time=0EXTRACT: note_on channel=1 note=43 velocity=0 time=0EXTRACT: note_on channel=1 note=55 velocity=0 time=0EXTRACT: note_on channel=0 note=65 velocity=0 time=0.045454549999999996EXTRACT: note_on channel=0 note=65 velocity=80 time=0.0018939395833333333EXTRACT: note_on channel=1 note=60 velocity=80 time=0EXTRACT: note_on channel=1 note=65 velocity=80 time=0EXTRACT: note_on channel=1 note=69 velocity=80 time=0EXTRACT: note_on channel=1 note=41 velocity=80 time=0EXTRACT: note_on channel=1 note=53 velocity=80 time=0EXTRACT: note_on channel=1 note=60 velocity=0 time=0.42992428541666666EXTRACT: note_on channel=1 note=65 velocity=0 time=0EXTRACT: note_on channel=1 note=69 velocity=0 time=0EXTRACT: note_on channel=1 note=41 velocity=0 time=0EXTRACT: note_on channel=1 note=53 velocity=0 time=0EXTRACT: note_on channel=0 note=65 velocity=0 time=0.022727274999999998EXTRACT: note_on channel=0 note=64 velocity=80 time=0.0018939395833333333EXTRACT: note_on channel=1 note=60 velocity=80 time=0EXTRACT: note_on channel=1 note=64 velocity=80 time=0EXTRACT: note_on channel=1 note=67 velocity=80 time=0EXTRACT: note_on channel=1 note=36 velocity=80 time=0EXTRACT: note_on channel=1 note=36 velocity=0 time=0.42992428541666666EXTRACT: note_on channel=0 note=64 velocity=0 time=0.022727274999999998EXTRACT: note_on channel=1 note=43 velocity=80 time=0.0018939395833333333EXTRACT: note_on channel=1 note=60 velocity=0 time=0.19128789791666667EXTRACT: note_on channel=1 note=64 velocity=0 time=0EXTRACT: note_on channel=1 note=67 velocity=0 time=0EXTRACT: note_on channel=1 note=60 velocity=80 time=0.03598485208333333EXTRACT: note_on channel=1 note=64 velocity=80 time=0EXTRACT: note_on channel=1 note=67 velocity=80 time=0EXTRACT: note_on channel=1 note=43 velocity=0 time=0.20265153541666667EXTRACT: note_on channel=1 note=48 velocity=80 time=0.024621214583333332EXTRACT: note_on channel=1 note=60 velocity=0 time=0.41856064791666664EXTRACT: note_on channel=1 note=64 velocity=0 time=0EXTRACT: note_on channel=1 note=67 velocity=0 time=0EXTRACT: note_on channel=1 note=48 velocity=0 time=0.011363637499999999EXTRACT: note_on channel=1 note=62 velocity=80 time=0.024621214583333332EXTRACT: note_on channel=1 note=67 velocity=80 time=0EXTRACT: note_on channel=1 note=70 velocity=80 time=0EXTRACT: note_on channel=1 note=43 velocity=80 time=0EXTRACT: note_on channel=1 note=55 velocity=80 time=0EXTRACT: note_on channel=0 note=72 velocity=80 time=0.4545455EXTRACT: note_on channel=0 note=72 velocity=0 time=0.22537881041666666EXTRACT: note_on channel=0 note=72 velocity=80 time=0.0018939395833333333EXTRACT: note_on channel=1 note=62 velocity=0 time=0.17992426041666668EXTRACT: note_on channel=1 note=67 velocity=0 time=0EXTRACT: note_on channel=1 note=70 velocity=0 time=0EXTRACT: note_on channel=1 note=43 velocity=0 time=0EXTRACT: note_on channel=1 note=55 velocity=0 time=0EXTRACT: note_on channel=1 note=60 velocity=80 time=0.047348489583333334EXTRACT: note_on channel=1 note=65 velocity=80 time=0EXTRACT: note_on channel=1 note=69 velocity=80 time=0EXTRACT: note_on channel=1 note=41 velocity=80 time=0EXTRACT: note_on channel=1 note=53 velocity=80 time=0EXTRACT: note_on channel=0 note=72 velocity=0 time=0.22537881041666666EXTRACT: note_on channel=0 note=69 velocity=80 time=0.0018939395833333333EXTRACT: note_on channel=1 note=60 velocity=0 time=0.20265153541666667EXTRACT: note_on channel=1 note=65 velocity=0 time=0EXTRACT: note_on channel=1 note=69 velocity=0 time=0EXTRACT: note_on channel=1 note=41 velocity=0 time=0EXTRACT: note_on channel=1 note=53 velocity=0 time=0EXTRACT: note_on channel=0 note=69 velocity=0 time=0.022727274999999998EXTRACT: note_on channel=0 note=69 velocity=80 time=0.0018939395833333333EXTRACT: note_on channel=1 note=60 velocity=80 time=0EXTRACT: note_on channel=1 note=64 velocity=80 time=0EXTRACT: note_on channel=1 note=67 velocity=80 time=0EXTRACT: note_on channel=1 note=36 velocity=80 time=0EXTRACT: note_on channel=1 note=36 velocity=0 time=0.42992428541666666EXTRACT: note_on channel=0 note=69 velocity=0 time=0.022727274999999998EXTRACT: note_on channel=0 note=67 velocity=80 time=0.0018939395833333333EXTRACT: note_on channel=1 note=43 velocity=80 time=0EXTRACT: note_on channel=1 note=60 velocity=0 time=0.19128789791666667EXTRACT: note_on channel=1 note=64 velocity=0 time=0EXTRACT: note_on channel=1 note=67 velocity=0 time=0EXTRACT: note_on channel=0 note=67 velocity=0 time=0.0340909125EXTRACT: note_on channel=0 note=67 velocity=80 time=0.0018939395833333333EXTRACT: note_on channel=1 note=60 velocity=80 time=0EXTRACT: note_on channel=1 note=64 velocity=80 time=0EXTRACT: note_on channel=1 note=67 velocity=80 time=0EXTRACT: note_on channel=1 note=43 velocity=0 time=0.20265153541666667EXTRACT: note_on channel=1 note=48 velocity=80 time=0.024621214583333332EXTRACT: note_on channel=0 note=67 velocity=0 time=0.22537881041666666EXTRACT: note_on channel=1 note=60 velocity=0 time=0.1931818375EXTRACT: note_on channel=1 note=64 velocity=0 time=0EXTRACT: note_on channel=1 note=67 velocity=0 time=0EXTRACT: note_on channel=1 note=48 velocity=0 time=0.011363637499999999EXTRACT: note_on channel=1 note=62 velocity=80 time=0.024621214583333332EXTRACT: note_on channel=1 note=67 velocity=80 time=0EXTRACT: note_on channel=1 note=70 velocity=80 time=0EXTRACT: note_on channel=1 note=43 velocity=80 time=0EXTRACT: note_on channel=1 note=55 velocity=80 time=0EXTRACT: note_on channel=0 note=72 velocity=80 time=0.4545455EXTRACT: note_on channel=0 note=72 velocity=0 time=0.22537881041666666EXTRACT: note_on channel=0 note=74 velocity=80 time=0.0018939395833333333EXTRACT: note_on channel=1 note=62 velocity=0 time=0.17992426041666668EXTRACT: note_on channel=1 note=67 velocity=0 time=0EXTRACT: note_on channel=1 note=70 velocity=0 time=0EXTRACT: note_on channel=1 note=43 velocity=0 time=0EXTRACT: note_on channel=1 note=55 velocity=0 time=0EXTRACT: note_on channel=1 note=60 velocity=80 time=0.047348489583333334EXTRACT: note_on channel=1 note=65 velocity=80 time=0EXTRACT: note_on channel=1 note=69 velocity=80 time=0EXTRACT: note_on channel=1 note=41 velocity=80 time=0EXTRACT: note_on channel=1 note=53 velocity=80 time=0EXTRACT: note_on channel=0 note=74 velocity=0 time=0.22537881041666666EXTRACT: note_on channel=0 note=72 velocity=80 time=0.0018939395833333333EXTRACT: note_on channel=1 note=60 velocity=0 time=0.20265153541666667EXTRACT: note_on channel=1 note=65 velocity=0 time=0EXTRACT: note_on channel=1 note=69 velocity=0 time=0EXTRACT: note_on channel=1 note=41 velocity=0 time=0EXTRACT: note_on channel=1 note=53 velocity=0 time=0EXTRACT: note_on channel=0 note=72 velocity=0 time=0.022727274999999998EXTRACT: note_on channel=0 note=72 velocity=80 time=0.0018939395833333333EXTRACT: note_on channel=1 note=60 velocity=80 time=0EXTRACT: note_on channel=1 note=64 velocity=80 time=0EXTRACT: note_on channel=1 note=67 velocity=80 time=0EXTRACT: note_on channel=1 note=36 velocity=80 time=0EXTRACT: note_on channel=1 note=36 velocity=0 time=0.42992428541666666EXTRACT: note_on channel=0 note=72 velocity=0 time=0.022727274999999998EXTRACT: note_on channel=0 note=69 velocity=80 time=0.0018939395833333333EXTRACT: note_on channel=1 note=43 velocity=80 time=0EXTRACT: note_on channel=1 note=60 velocity=0 time=0.19128789791666667EXTRACT: note_on channel=1 note=64 velocity=0 time=0EXTRACT: note_on channel=1 note=67 velocity=0 time=0EXTRACT: note_on channel=0 note=69 velocity=0 time=0.0340909125EXTRACT: note_on channel=0 note=69 velocity=80 time=0.0018939395833333333EXTRACT: note_on channel=1 note=60 velocity=80 time=0EXTRACT: note_on channel=1 note=64 velocity=80 time=0EXTRACT: note_on channel=1 note=67 velocity=80 time=0EXTRACT: note_on channel=1 note=43 velocity=0 time=0.20265153541666667EXTRACT: note_on channel=0 note=69 velocity=0 time=0.022727274999999998EXTRACT: note_on channel=0 note=67 velocity=80 time=0.0018939395833333333EXTRACT: note_on channel=1 note=48 velocity=80 time=0EXTRACT: note_on channel=1 note=60 velocity=0 time=0.41856064791666664EXTRACT: note_on channel=1 note=64 velocity=0 time=0EXTRACT: note_on channel=1 note=67 velocity=0 time=0EXTRACT: note_on channel=1 note=48 velocity=0 time=0.011363637499999999EXTRACT: note_on channel=0 note=67 velocity=0 time=0.022727274999999998EXTRACT: note_on channel=1 note=53 velocity=80 time=0.0018939395833333333EXTRACT: note_on channel=1 note=58 velocity=80 time=0EXTRACT: note_on channel=1 note=62 velocity=80 time=0EXTRACT: note_on channel=1 note=34 velocity=80 time=0EXTRACT: note_on channel=1 note=46 velocity=80 time=0EXTRACT: note_on channel=0 note=65 velocity=80 time=0.4545455EXTRACT: note_on channel=0 note=65 velocity=0 time=0.45265156041666665EXTRACT: note_on channel=0 note=65 velocity=80 time=0.0018939395833333333EXTRACT: note_on channel=1 note=53 velocity=0 time=0.3844697354166667EXTRACT: note_on channel=1 note=58 velocity=0 time=0EXTRACT: note_on channel=1 note=62 velocity=0 time=0EXTRACT: note_on channel=1 note=34 velocity=0 time=0EXTRACT: note_on channel=1 note=46 velocity=0 time=0EXTRACT: note_on channel=1 note=53 velocity=80 time=0.07007576458333334EXTRACT: note_on channel=1 note=58 velocity=80 time=0EXTRACT: note_on channel=1 note=62 velocity=80 time=0EXTRACT: note_on channel=1 note=34 velocity=80 time=0EXTRACT: note_on channel=1 note=46 velocity=80 time=0EXTRACT: note_on channel=0 note=65 velocity=0 time=0.45265156041666665EXTRACT: note_on channel=0 note=65 velocity=80 time=0.22916668958333333EXTRACT: note_on channel=0 note=65 velocity=0 time=0.22537881041666666EXTRACT: note_on channel=0 note=65 velocity=80 time=0.0018939395833333333EXTRACT: note_on channel=0 note=65 velocity=0 time=0.22537881041666666EXTRACT: note_on channel=0 note=65 velocity=80 time=0.0018939395833333333EXTRACT: note_on channel=1 note=53 velocity=0 time=0.15719698541666666EXTRACT: note_on channel=1 note=58 velocity=0 time=0EXTRACT: note_on channel=1 note=62 velocity=0 time=0EXTRACT: note_on channel=1 note=34 velocity=0 time=0EXTRACT: note_on channel=1 note=46 velocity=0 time=0EXTRACT: note_on channel=0 note=65 velocity=0 time=0.068181825EXTRACT: note_on channel=0 note=77 velocity=80 time=0.0018939395833333333EXTRACT: note_on channel=1 note=57 velocity=80 time=0EXTRACT: note_on channel=1 note=62 velocity=80 time=0EXTRACT: note_on channel=1 note=65 velocity=80 time=0EXTRACT: note_on channel=1 note=38 velocity=80 time=0EXTRACT: note_on channel=1 note=38 velocity=0 time=0.42992428541666666EXTRACT: note_on channel=0 note=77 velocity=0 time=0.022727274999999998EXTRACT: note_on channel=0 note=76 velocity=80 time=0.0018939395833333333EXTRACT: note_on channel=1 note=45 velocity=80 time=0EXTRACT: note_on channel=1 note=57 velocity=0 time=0.19128789791666667EXTRACT: note_on channel=1 note=62 velocity=0 time=0EXTRACT: note_on channel=1 note=65 velocity=0 time=0EXTRACT: note_on channel=1 note=57 velocity=80 time=0.03598485208333333EXTRACT: note_on channel=1 note=62 velocity=80 time=0EXTRACT: note_on channel=1 note=65 velocity=80 time=0EXTRACT: note_on channel=1 note=45 velocity=0 time=0.20265153541666667EXTRACT: note_on channel=0 note=76 velocity=0 time=0.022727274999999998EXTRACT: note_on channel=0 note=74 velocity=80 time=0.0018939395833333333EXTRACT: note_on channel=1 note=50 velocity=80 time=0EXTRACT: note_on channel=0 note=74 velocity=0 time=0.22537881041666666EXTRACT: note_on channel=0 note=74 velocity=80 time=0.0018939395833333333EXTRACT: note_on channel=1 note=57 velocity=0 time=0.19128789791666667EXTRACT: note_on channel=1 note=62 velocity=0 time=0EXTRACT: note_on channel=1 note=65 velocity=0 time=0EXTRACT: note_on channel=1 note=50 velocity=0 time=0.011363637499999999EXTRACT: note_on channel=1 note=58 velocity=80 time=0.024621214583333332EXTRACT: note_on channel=1 note=62 velocity=80 time=0EXTRACT: note_on channel=1 note=65 velocity=80 time=0EXTRACT: note_on channel=1 note=34 velocity=80 time=0EXTRACT: note_on channel=0 note=74 velocity=0 time=0.22537881041666666EXTRACT: note_on channel=0 note=72 velocity=80 time=0.0018939395833333333EXTRACT: note_on channel=1 note=34 velocity=0 time=0.20265153541666667EXTRACT: note_on channel=1 note=41 velocity=80 time=0.024621214583333332EXTRACT: note_on channel=1 note=58 velocity=0 time=0.19128789791666667EXTRACT: note_on channel=1 note=62 velocity=0 time=0EXTRACT: note_on channel=1 note=65 velocity=0 time=0EXTRACT: note_on channel=1 note=58 velocity=80 time=0.03598485208333333EXTRACT: note_on channel=1 note=62 velocity=80 time=0EXTRACT: note_on channel=1 note=65 velocity=80 time=0EXTRACT: note_on channel=1 note=41 velocity=0 time=0.20265153541666667EXTRACT: note_on channel=0 note=72 velocity=0 time=0.022727274999999998EXTRACT: note_on channel=0 note=69 velocity=80 time=0.0018939395833333333EXTRACT: note_on channel=1 note=46 velocity=80 time=0EXTRACT: note_on channel=1 note=58 velocity=0 time=0.41856064791666664EXTRACT: note_on channel=1 note=62 velocity=0 time=0EXTRACT: note_on channel=1 note=65 velocity=0 time=0EXTRACT: note_on channel=1 note=46 velocity=0 time=0.011363637499999999EXTRACT: note_on channel=0 note=69 velocity=0 time=0.022727274999999998EXTRACT: note_on channel=0 note=74 velocity=80 time=0.0018939395833333333EXTRACT: note_on channel=1 note=57 velocity=80 time=0EXTRACT: note_on channel=1 note=60 velocity=80 time=0EXTRACT: note_on channel=1 note=65 velocity=80 time=0EXTRACT: note_on channel=1 note=41 velocity=80 time=0EXTRACT: note_on channel=1 note=41 velocity=0 time=0.42992428541666666EXTRACT: note_on channel=0 note=74 velocity=0 time=0.022727274999999998EXTRACT: note_on channel=0 note=72 velocity=80 time=0.0018939395833333333EXTRACT: note_on channel=1 note=48 velocity=80 time=0EXTRACT: note_on channel=1 note=57 velocity=0 time=0.19128789791666667EXTRACT: note_on channel=1 note=60 velocity=0 time=0EXTRACT: note_on channel=1 note=65 velocity=0 time=0EXTRACT: note_on channel=1 note=57 velocity=80 time=0.03598485208333333EXTRACT: note_on channel=1 note=60 velocity=80 time=0EXTRACT: note_on channel=1 note=65 velocity=80 time=0EXTRACT: note_on channel=1 note=48 velocity=0 time=0.20265153541666667EXTRACT: note_on channel=0 note=72 velocity=0 time=0.022727274999999998EXTRACT: note_on channel=0 note=69 velocity=80 time=0.0018939395833333333EXTRACT: note_on channel=1 note=53 velocity=80 time=0EXTRACT: note_on channel=0 note=69 velocity=0 time=0.22537881041666666EXTRACT: note_on channel=0 note=69 velocity=80 time=0.0018939395833333333EXTRACT: note_on channel=1 note=57 velocity=0 time=0.19128789791666667EXTRACT: note_on channel=1 note=60 velocity=0 time=0EXTRACT: note_on channel=1 note=65 velocity=0 time=0EXTRACT: note_on channel=1 note=53 velocity=0 time=0.011363637499999999EXTRACT: note_on channel=1 note=55 velocity=80 time=0.024621214583333332EXTRACT: note_on channel=1 note=60 velocity=80 time=0EXTRACT: note_on channel=1 note=64 velocity=80 time=0EXTRACT: note_on channel=1 note=36 velocity=80 time=0EXTRACT: note_on channel=0 note=69 velocity=0 time=0.22537881041666666EXTRACT: note_on channel=0 note=67 velocity=80 time=0.0018939395833333333EXTRACT: note_on channel=1 note=36 velocity=0 time=0.20265153541666667EXTRACT: note_on channel=1 note=43 velocity=80 time=0.024621214583333332EXTRACT: note_on channel=1 note=55 velocity=0 time=0.19128789791666667EXTRACT: note_on channel=1 note=60 velocity=0 time=0EXTRACT: note_on channel=1 note=64 velocity=0 time=0EXTRACT: note_on channel=0 note=67 velocity=0 time=0.0340909125EXTRACT: note_on channel=0 note=65 velocity=80 time=0.0018939395833333333EXTRACT: note_on channel=1 note=55 velocity=80 time=0EXTRACT: note_on channel=1 note=60 velocity=80 time=0EXTRACT: note_on channel=1 note=64 velocity=80 time=0EXTRACT: note_on channel=1 note=43 velocity=0 time=0.20265153541666667EXTRACT: note_on channel=0 note=65 velocity=0 time=0.022727274999999998EXTRACT: note_on channel=0 note=65 velocity=80 time=0.0018939395833333333EXTRACT: note_on channel=1 note=48 velocity=80 time=0EXTRACT: note_on channel=1 note=55 velocity=0 time=0.41856064791666664EXTRACT: note_on channel=1 note=60 velocity=0 time=0EXTRACT: note_on channel=1 note=64 velocity=0 time=0EXTRACT: note_on channel=1 note=48 velocity=0 time=0.011363637499999999EXTRACT: note_on channel=0 note=65 velocity=0 time=0.022727274999999998EXTRACT: note_on channel=0 note=65 velocity=80 time=0.0018939395833333333EXTRACT: note_on channel=1 note=57 velocity=80 time=0EXTRACT: note_on channel=1 note=62 velocity=80 time=0EXTRACT: note_on channel=1 note=65 velocity=80 time=0EXTRACT: note_on channel=1 note=38 velocity=80 time=0EXTRACT: note_on channel=0 note=65 velocity=0 time=0.22537881041666666EXTRACT: note_on channel=0 note=67 velocity=80 time=0.0018939395833333333EXTRACT: note_on channel=1 note=38 velocity=0 time=0.20265153541666667EXTRACT: note_on channel=1 note=45 velocity=80 time=0.024621214583333332EXTRACT: note_on channel=1 note=57 velocity=0 time=0.19128789791666667EXTRACT: note_on channel=1 note=62 velocity=0 time=0EXTRACT: note_on channel=1 note=65 velocity=0 time=0EXTRACT: note_on channel=0 note=67 velocity=0 time=0.0340909125EXTRACT: note_on channel=0 note=69 velocity=80 time=0.0018939395833333333EXTRACT: note_on channel=1 note=57 velocity=80 time=0EXTRACT: note_on channel=1 note=62 velocity=80 time=0EXTRACT: note_on channel=1 note=65 velocity=80 time=0EXTRACT: note_on channel=1 note=45 velocity=0 time=0.20265153541666667EXTRACT: note_on channel=1 note=50 velocity=80 time=0.024621214583333332EXTRACT: note_on channel=0 note=69 velocity=0 time=0.22537881041666666EXTRACT: note_on channel=0 note=72 velocity=80 time=0.0018939395833333333EXTRACT: note_on channel=1 note=57 velocity=0 time=0.19128789791666667EXTRACT: note_on channel=1 note=62 velocity=0 time=0EXTRACT: note_on channel=1 note=65 velocity=0 time=0EXTRACT: note_on channel=1 note=50 velocity=0 time=0.011363637499999999EXTRACT: note_on channel=0 note=72 velocity=0 time=0.022727274999999998EXTRACT: note_on channel=0 note=70 velocity=80 time=0.0018939395833333333EXTRACT: note_on channel=1 note=58 velocity=80 time=0EXTRACT: note_on channel=1 note=62 velocity=80 time=0EXTRACT: note_on channel=1 note=65 velocity=80 time=0EXTRACT: note_on channel=1 note=34 velocity=80 time=0EXTRACT: note_on channel=0 note=70 velocity=0 time=0.22537881041666666EXTRACT: note_on channel=0 note=69 velocity=80 time=0.0018939395833333333EXTRACT: note_on channel=1 note=34 velocity=0 time=0.20265153541666667EXTRACT: note_on channel=1 note=41 velocity=80 time=0.024621214583333332EXTRACT: note_on channel=1 note=58 velocity=0 time=0.19128789791666667EXTRACT: note_on channel=1 note=62 velocity=0 time=0EXTRACT: note_on channel=1 note=65 velocity=0 time=0EXTRACT: note_on channel=0 note=69 velocity=0 time=0.0340909125EXTRACT: note_on channel=0 note=69 velocity=80 time=0.0018939395833333333EXTRACT: note_on channel=1 note=58 velocity=80 time=0EXTRACT: note_on channel=1 note=62 velocity=80 time=0EXTRACT: note_on channel=1 note=65 velocity=80 time=0EXTRACT: note_on channel=1 note=41 velocity=0 time=0.20265153541666667EXTRACT: note_on channel=1 note=46 velocity=80 time=0.024621214583333332EXTRACT: note_on channel=1 note=58 velocity=0 time=0.41856064791666664EXTRACT: note_on channel=1 note=62 velocity=0 time=0EXTRACT: note_on channel=1 note=65 velocity=0 time=0EXTRACT: note_on channel=1 note=46 velocity=0 time=0.011363637499999999EXTRACT: note_on channel=0 note=69 velocity=0 time=0.022727274999999998EXTRACT: note_on channel=0 note=69 velocity=80 time=0.0018939395833333333EXTRACT: note_on channel=1 note=57 velocity=80 time=0EXTRACT: note_on channel=1 note=60 velocity=80 time=0EXTRACT: note_on channel=1 note=65 velocity=80 time=0EXTRACT: note_on channel=1 note=41 velocity=80 time=0EXTRACT: note_on channel=1 note=41 velocity=0 time=0.42992428541666666EXTRACT: note_on channel=0 note=69 velocity=0 time=0.022727274999999998EXTRACT: note_on channel=0 note=69 velocity=80 time=0.0018939395833333333EXTRACT: note_on channel=1 note=48 velocity=80 time=0EXTRACT: note_on channel=1 note=57 velocity=0 time=0.19128789791666667EXTRACT: note_on channel=1 note=60 velocity=0 time=0EXTRACT: note_on channel=1 note=65 velocity=0 time=0EXTRACT: note_on channel=1 note=57 velocity=80 time=0.03598485208333333EXTRACT: note_on channel=1 note=60 velocity=80 time=0EXTRACT: note_on channel=1 note=65 velocity=80 time=0EXTRACT: note_on channel=1 note=48 velocity=0 time=0.20265153541666667EXTRACT: note_on channel=0 note=69 velocity=0 time=0.022727274999999998EXTRACT: note_on channel=0 note=65 velocity=80 time=0.0018939395833333333EXTRACT: note_on channel=1 note=53 velocity=80 time=0EXTRACT: note_on channel=0 note=65 velocity=0 time=0.22537881041666666EXTRACT: note_on channel=0 note=67 velocity=80 time=0.0018939395833333333EXTRACT: note_on channel=1 note=57 velocity=0 time=0.19128789791666667EXTRACT: note_on channel=1 note=60 velocity=0 time=0EXTRACT: note_on channel=1 note=65 velocity=0 time=0EXTRACT: note_on channel=1 note=53 velocity=0 time=0.011363637499999999EXTRACT: note_on channel=1 note=55 velocity=80 time=0.024621214583333332EXTRACT: note_on channel=1 note=60 velocity=80 time=0EXTRACT: note_on channel=1 note=64 velocity=80 time=0EXTRACT: note_on channel=1 note=36 velocity=80 time=0EXTRACT: note_on channel=0 note=67 velocity=0 time=0.22537881041666666EXTRACT: note_on channel=0 note=65 velocity=80 time=0.0018939395833333333EXTRACT: note_on channel=1 note=36 velocity=0 time=0.20265153541666667EXTRACT: note_on channel=1 note=43 velocity=80 time=0.024621214583333332EXTRACT: note_on channel=1 note=55 velocity=0 time=0.19128789791666667EXTRACT: note_on channel=1 note=60 velocity=0 time=0EXTRACT: note_on channel=1 note=64 velocity=0 time=0EXTRACT: note_on channel=0 note=65 velocity=0 time=0.0340909125EXTRACT: note_on channel=0 note=65 velocity=80 time=0.0018939395833333333EXTRACT: note_on channel=1 note=55 velocity=80 time=0EXTRACT: note_on channel=1 note=60 velocity=80 time=0EXTRACT: note_on channel=1 note=64 velocity=80 time=0EXTRACT: note_on channel=1 note=43 velocity=0 time=0.20265153541666667EXTRACT: note_on channel=0 note=65 velocity=0 time=0.022727274999999998EXTRACT: note_on channel=0 note=65 velocity=80 time=0.0018939395833333333EXTRACT: note_on channel=1 note=48 velocity=80 time=0EXTRACT: note_on channel=1 note=55 velocity=0 time=0.41856064791666664EXTRACT: note_on channel=1 note=60 velocity=0 time=0EXTRACT: note_on channel=1 note=64 velocity=0 time=0EXTRACT: note_on channel=1 note=48 velocity=0 time=0.011363637499999999EXTRACT: note_on channel=0 note=65 velocity=0 time=0.022727274999999998EXTRACT: note_on channel=0 note=77 velocity=80 time=0.0018939395833333333EXTRACT: note_on channel=1 note=57 velocity=80 time=0EXTRACT: note_on channel=1 note=62 velocity=80 time=0EXTRACT: note_on channel=1 note=65 velocity=80 time=0EXTRACT: note_on channel=1 note=38 velocity=80 time=0EXTRACT: note_on channel=0 note=77 velocity=0 time=0.22537881041666666EXTRACT: note_on channel=0 note=76 velocity=80 time=0.0018939395833333333EXTRACT: note_on channel=1 note=38 velocity=0 time=0.20265153541666667EXTRACT: note_on channel=1 note=45 velocity=80 time=0.024621214583333332EXTRACT: note_on channel=1 note=57 velocity=0 time=0.19128789791666667EXTRACT: note_on channel=1 note=62 velocity=0 time=0EXTRACT: note_on channel=1 note=65 velocity=0 time=0EXTRACT: note_on channel=0 note=76 velocity=0 time=0.0340909125EXTRACT: note_on channel=0 note=74 velocity=80 time=0.0018939395833333333EXTRACT: note_on channel=1 note=57 velocity=80 time=0EXTRACT: note_on channel=1 note=62 velocity=80 time=0EXTRACT: note_on channel=1 note=65 velocity=80 time=0EXTRACT: note_on channel=1 note=45 velocity=0 time=0.20265153541666667EXTRACT: note_on channel=1 note=50 velocity=80 time=0.024621214583333332EXTRACT: note_on channel=1 note=57 velocity=0 time=0.41856064791666664EXTRACT: note_on channel=1 note=62 velocity=0 time=0EXTRACT: note_on channel=1 note=65 velocity=0 time=0EXTRACT: note_on channel=1 note=50 velocity=0 time=0.011363637499999999EXTRACT: note_on channel=0 note=74 velocity=0 time=0.022727274999999998EXTRACT: note_on channel=0 note=74 velocity=80 time=0.0018939395833333333EXTRACT: note_on channel=1 note=58 velocity=80 time=0EXTRACT: note_on channel=1 note=62 velocity=80 time=0EXTRACT: note_on channel=1 note=65 velocity=80 time=0EXTRACT: note_on channel=1 note=34 velocity=80 time=0EXTRACT: note_on channel=0 note=74 velocity=0 time=0.22537881041666666EXTRACT: note_on channel=0 note=72 velocity=80 time=0.0018939395833333333EXTRACT: note_on channel=1 note=34 velocity=0 time=0.20265153541666667EXTRACT: note_on channel=1 note=41 velocity=80 time=0.024621214583333332EXTRACT: note_on channel=1 note=58 velocity=0 time=0.19128789791666667EXTRACT: note_on channel=1 note=62 velocity=0 time=0EXTRACT: note_on channel=1 note=65 velocity=0 time=0EXTRACT: note_on channel=0 note=72 velocity=0 time=0.0340909125EXTRACT: note_on channel=0 note=69 velocity=80 time=0.0018939395833333333EXTRACT: note_on channel=1 note=58 velocity=80 time=0EXTRACT: note_on channel=1 note=62 velocity=80 time=0EXTRACT: note_on channel=1 note=65 velocity=80 time=0EXTRACT: note_on channel=1 note=41 velocity=0 time=0.20265153541666667EXTRACT: note_on channel=0 note=69 velocity=0 time=0.022727274999999998EXTRACT: note_on channel=0 note=69 velocity=80 time=0.0018939395833333333EXTRACT: note_on channel=1 note=46 velocity=80 time=0EXTRACT: note_on channel=1 note=58 velocity=0 time=0.41856064791666664EXTRACT: note_on channel=1 note=62 velocity=0 time=0EXTRACT: note_on channel=1 note=65 velocity=0 time=0EXTRACT: note_on channel=1 note=46 velocity=0 time=0.011363637499999999EXTRACT: note_on channel=0 note=69 velocity=0 time=0.022727274999999998EXTRACT: note_on channel=0 note=74 velocity=80 time=0.0018939395833333333EXTRACT: note_on channel=1 note=57 velocity=80 time=0EXTRACT: note_on channel=1 note=60 velocity=80 time=0EXTRACT: note_on channel=1 note=65 velocity=80 time=0EXTRACT: note_on channel=1 note=41 velocity=80 time=0EXTRACT: note_on channel=1 note=41 velocity=0 time=0.42992428541666666EXTRACT: note_on channel=0 note=74 velocity=0 time=0.022727274999999998EXTRACT: note_on channel=0 note=72 velocity=80 time=0.0018939395833333333EXTRACT: note_on channel=1 note=48 velocity=80 time=0EXTRACT: note_on channel=1 note=57 velocity=0 time=0.19128789791666667EXTRACT: note_on channel=1 note=60 velocity=0 time=0EXTRACT: note_on channel=1 note=65 velocity=0 time=0EXTRACT: note_on channel=1 note=57 velocity=80 time=0.03598485208333333EXTRACT: note_on channel=1 note=60 velocity=80 time=0EXTRACT: note_on channel=1 note=65 velocity=80 time=0EXTRACT: note_on channel=1 note=48 velocity=0 time=0.20265153541666667EXTRACT: note_on channel=0 note=72 velocity=0 time=0.022727274999999998EXTRACT: note_on channel=0 note=69 velocity=80 time=0.0018939395833333333EXTRACT: note_on channel=1 note=53 velocity=80 time=0EXTRACT: note_on channel=0 note=69 velocity=0 time=0.22537881041666666EXTRACT: note_on channel=0 note=69 velocity=80 time=0.0018939395833333333EXTRACT: note_on channel=1 note=57 velocity=0 time=0.19128789791666667EXTRACT: note_on channel=1 note=60 velocity=0 time=0EXTRACT: note_on channel=1 note=65 velocity=0 time=0EXTRACT: note_on channel=1 note=53 velocity=0 time=0.011363637499999999EXTRACT: note_on channel=1 note=55 velocity=80 time=0.024621214583333332EXTRACT: note_on channel=1 note=60 velocity=80 time=0EXTRACT: note_on channel=1 note=64 velocity=80 time=0EXTRACT: note_on channel=1 note=36 velocity=80 time=0EXTRACT: note_on channel=0 note=69 velocity=0 time=0.22537881041666666EXTRACT: note_on channel=0 note=67 velocity=80 time=0.0018939395833333333EXTRACT: note_on channel=1 note=36 velocity=0 time=0.20265153541666667EXTRACT: note_on channel=1 note=43 velocity=80 time=0.024621214583333332EXTRACT: note_on channel=1 note=55 velocity=0 time=0.19128789791666667EXTRACT: note_on channel=1 note=60 velocity=0 time=0EXTRACT: note_on channel=1 note=64 velocity=0 time=0EXTRACT: note_on channel=0 note=67 velocity=0 time=0.0340909125EXTRACT: note_on channel=0 note=65 velocity=80 time=0.0018939395833333333EXTRACT: note_on channel=1 note=55 velocity=80 time=0EXTRACT: note_on channel=1 note=60 velocity=80 time=0EXTRACT: note_on channel=1 note=64 velocity=80 time=0EXTRACT: note_on channel=1 note=43 velocity=0 time=0.20265153541666667EXTRACT: note_on channel=0 note=65 velocity=0 time=0.022727274999999998EXTRACT: note_on channel=0 note=65 velocity=80 time=0.0018939395833333333EXTRACT: note_on channel=1 note=48 velocity=80 time=0EXTRACT: note_on channel=1 note=55 velocity=0 time=0.41856064791666664EXTRACT: note_on channel=1 note=60 velocity=0 time=0EXTRACT: note_on channel=1 note=64 velocity=0 time=0EXTRACT: note_on channel=1 note=48 velocity=0 time=0.011363637499999999EXTRACT: note_on channel=0 note=65 velocity=0 time=0.022727274999999998EXTRACT: note_on channel=0 note=65 velocity=80 time=0.0018939395833333333EXTRACT: note_on channel=1 note=57 velocity=80 time=0EXTRACT: note_on channel=1 note=62 velocity=80 time=0EXTRACT: note_on channel=1 note=65 velocity=80 time=0EXTRACT: note_on channel=1 note=38 velocity=80 time=0EXTRACT: note_on channel=1 note=38 velocity=0 time=0.42992428541666666EXTRACT: note_on channel=0 note=65 velocity=0 time=0.022727274999999998EXTRACT: note_on channel=0 note=67 velocity=80 time=0.0018939395833333333EXTRACT: note_on channel=1 note=45 velocity=80 time=0EXTRACT: note_on channel=1 note=57 velocity=0 time=0.19128789791666667EXTRACT: note_on channel=1 note=62 velocity=0 time=0EXTRACT: note_on channel=1 note=65 velocity=0 time=0EXTRACT: note_on channel=1 note=57 velocity=80 time=0.03598485208333333EXTRACT: note_on channel=1 note=62 velocity=80 time=0EXTRACT: note_on channel=1 note=65 velocity=80 time=0EXTRACT: note_on channel=1 note=45 velocity=0 time=0.20265153541666667EXTRACT: note_on channel=0 note=67 velocity=0 time=0.022727274999999998EXTRACT: note_on channel=0 note=69 velocity=80 time=0.0018939395833333333EXTRACT: note_on channel=1 note=50 velocity=80 time=0EXTRACT: note_on channel=1 note=57 velocity=0 time=0.41856064791666664EXTRACT: note_on channel=1 note=62 velocity=0 time=0EXTRACT: note_on channel=1 note=65 velocity=0 time=0EXTRACT: note_on channel=1 note=50 velocity=0 time=0.011363637499999999EXTRACT: note_on channel=0 note=69 velocity=0 time=0.022727274999999998EXTRACT: note_on channel=0 note=72 velocity=80 time=0.0018939395833333333EXTRACT: note_on channel=1 note=58 velocity=80 time=0EXTRACT: note_on channel=1 note=62 velocity=80 time=0EXTRACT: note_on channel=1 note=65 velocity=80 time=0EXTRACT: note_on channel=1 note=34 velocity=80 time=0EXTRACT: note_on channel=0 note=72 velocity=0 time=0.22537881041666666EXTRACT: note_on channel=0 note=70 velocity=80 time=0.0018939395833333333EXTRACT: note_on channel=1 note=34 velocity=0 time=0.20265153541666667EXTRACT: note_on channel=1 note=41 velocity=80 time=0.024621214583333332EXTRACT: note_on channel=1 note=58 velocity=0 time=0.19128789791666667EXTRACT: note_on channel=1 note=62 velocity=0 time=0EXTRACT: note_on channel=1 note=65 velocity=0 time=0EXTRACT: note_on channel=1 note=58 velocity=80 time=0.03598485208333333EXTRACT: note_on channel=1 note=62 velocity=80 time=0EXTRACT: note_on channel=1 note=65 velocity=80 time=0EXTRACT: note_on channel=1 note=41 velocity=0 time=0.20265153541666667EXTRACT: note_on channel=0 note=70 velocity=0 time=0.022727274999999998EXTRACT: note_on channel=0 note=69 velocity=80 time=0.0018939395833333333EXTRACT: note_on channel=1 note=46 velocity=80 time=0EXTRACT: note_on channel=1 note=58 velocity=0 time=0.41856064791666664EXTRACT: note_on channel=1 note=62 velocity=0 time=0EXTRACT: note_on channel=1 note=65 velocity=0 time=0EXTRACT: note_on channel=1 note=46 velocity=0 time=0.011363637499999999EXTRACT: note_on channel=0 note=69 velocity=0 time=0.022727274999999998EXTRACT: note_on channel=0 note=67 velocity=80 time=0.0018939395833333333EXTRACT: note_on channel=1 note=57 velocity=80 time=0EXTRACT: note_on channel=1 note=60 velocity=80 time=0EXTRACT: note_on channel=1 note=65 velocity=80 time=0EXTRACT: note_on channel=1 note=41 velocity=80 time=0EXTRACT: note_on channel=0 note=67 velocity=0 time=0.22537881041666666EXTRACT: note_on channel=0 note=65 velocity=80 time=0.0018939395833333333EXTRACT: note_on channel=1 note=41 velocity=0 time=0.20265153541666667EXTRACT: note_on channel=1 note=48 velocity=80 time=0.024621214583333332EXTRACT: note_on channel=1 note=57 velocity=0 time=0.19128789791666667EXTRACT: note_on channel=1 note=60 velocity=0 time=0EXTRACT: note_on channel=1 note=65 velocity=0 time=0EXTRACT: note_on channel=1 note=57 velocity=80 time=0.03598485208333333EXTRACT: note_on channel=1 note=60 velocity=80 time=0EXTRACT: note_on channel=1 note=65 velocity=80 time=0EXTRACT: note_on channel=1 note=48 velocity=0 time=0.20265153541666667EXTRACT: note_on channel=1 note=53 velocity=80 time=0.024621214583333332EXTRACT: note_on channel=0 note=65 velocity=0 time=0.22537881041666666EXTRACT: note_on channel=0 note=65 velocity=80 time=0.0018939395833333333EXTRACT: note_on channel=1 note=57 velocity=0 time=0.19128789791666667EXTRACT: note_on channel=1 note=60 velocity=0 time=0EXTRACT: note_on channel=1 note=65 velocity=0 time=0EXTRACT: note_on channel=1 note=53 velocity=0 time=0.011363637499999999EXTRACT: note_on channel=0 note=65 velocity=0 time=0.022727274999999998EXTRACT: note_on channel=0 note=69 velocity=80 time=0.0018939395833333333EXTRACT: note_on channel=1 note=55 velocity=80 time=0EXTRACT: note_on channel=1 note=60 velocity=80 time=0EXTRACT: note_on channel=1 note=64 velocity=80 time=0EXTRACT: note_on channel=1 note=36 velocity=80 time=0EXTRACT: note_on channel=0 note=69 velocity=0 time=0.22537881041666666EXTRACT: note_on channel=0 note=69 velocity=80 time=0.0018939395833333333EXTRACT: note_on channel=1 note=36 velocity=0 time=0.20265153541666667EXTRACT: note_on channel=1 note=43 velocity=80 time=0.024621214583333332EXTRACT: note_on channel=1 note=55 velocity=0 time=0.19128789791666667EXTRACT: note_on channel=1 note=60 velocity=0 time=0EXTRACT: note_on channel=1 note=64 velocity=0 time=0EXTRACT: note_on channel=0 note=69 velocity=0 time=0.0340909125EXTRACT: note_on channel=0 note=69 velocity=80 time=0.0018939395833333333EXTRACT: note_on channel=1 note=55 velocity=80 time=0EXTRACT: note_on channel=1 note=60 velocity=80 time=0EXTRACT: note_on channel=1 note=64 velocity=80 time=0EXTRACT: note_on channel=1 note=43 velocity=0 time=0.20265153541666667EXTRACT: note_on channel=1 note=48 velocity=80 time=0.024621214583333332EXTRACT: note_on channel=1 note=55 velocity=0 time=1.2594698229166668EXTRACT: note_on channel=1 note=60 velocity=0 time=0EXTRACT: note_on channel=1 note=64 velocity=0 time=0EXTRACT: note_on channel=1 note=48 velocity=0 time=0.011363637499999999EXTRACT: note_on channel=0 note=69 velocity=0 time=0.09090909999999999EXTRACT: note_on channel=0 note=67 velocity=80 time=0.0018939395833333333EXTRACT: note_on channel=1 note=65 velocity=80 time=0EXTRACT: note_on channel=1 note=70 velocity=80 time=0EXTRACT: note_on channel=1 note=74 velocity=80 time=0EXTRACT: note_on channel=1 note=46 velocity=80 time=0EXTRACT: note_on channel=1 note=46 velocity=0 time=0.42992428541666666EXTRACT: note_on channel=1 note=53 velocity=80 time=0.024621214583333332EXTRACT: note_on channel=1 note=65 velocity=0 time=0.19128789791666667EXTRACT: note_on channel=1 note=70 velocity=0 time=0EXTRACT: note_on channel=1 note=74 velocity=0 time=0EXTRACT: note_on channel=0 note=67 velocity=0 time=0.0340909125EXTRACT: note_on channel=0 note=65 velocity=80 time=0.0018939395833333333EXTRACT: note_on channel=1 note=65 velocity=80 time=0EXTRACT: note_on channel=1 note=70 velocity=80 time=0EXTRACT: note_on channel=1 note=74 velocity=80 time=0EXTRACT: note_on channel=1 note=53 velocity=0 time=0.20265153541666667EXTRACT: note_on channel=1 note=58 velocity=80 time=0.024621214583333332EXTRACT: note_on channel=1 note=65 velocity=0 time=0.20265153541666667EXTRACT: note_on channel=1 note=70 velocity=0 time=0EXTRACT: note_on channel=1 note=74 velocity=0 time=0EXTRACT: note_on channel=1 note=72 velocity=80 time=0.024621214583333332EXTRACT: note_on channel=1 note=58 velocity=0 time=0.20265153541666667EXTRACT: note_on channel=1 note=72 velocity=0 time=0.011363637499999999EXTRACT: note_on channel=0 note=65 velocity=0 time=0.011363637499999999EXTRACT: note_on channel=1 note=60 velocity=80 time=0.0018939395833333333EXTRACT: note_on channel=1 note=65 velocity=80 time=0EXTRACT: note_on channel=1 note=69 velocity=80 time=0EXTRACT: note_on channel=1 note=41 velocity=80 time=0EXTRACT: note_on channel=1 note=41 velocity=0 time=0.42992428541666666EXTRACT: note_on channel=1 note=48 velocity=80 time=0.024621214583333332EXTRACT: note_on channel=1 note=60 velocity=0 time=0.40719701041666667EXTRACT: note_on channel=1 note=65 velocity=0 time=0EXTRACT: note_on channel=1 note=69 velocity=0 time=0EXTRACT: note_on channel=1 note=48 velocity=0 time=0.022727274999999998EXTRACT: note_on channel=1 note=65 velocity=80 time=0.024621214583333332EXTRACT: note_on channel=1 note=53 velocity=80 time=0EXTRACT: note_on channel=1 note=65 velocity=0 time=0.14204546875EXTRACT: note_on channel=1 note=67 velocity=80 time=0.009469697916666667EXTRACT: note_on channel=1 note=67 velocity=0 time=0.14204546875EXTRACT: note_on channel=1 note=69 velocity=80 time=0.009469697916666667EXTRACT: note_on channel=1 note=53 velocity=0 time=0.12689395208333334EXTRACT: note_on channel=1 note=69 velocity=0 time=0.015151516666666667EXTRACT: note_on channel=1 note=60 velocity=80 time=0.009469697916666667EXTRACT: note_on channel=1 note=64 velocity=80 time=0EXTRACT: note_on channel=1 note=67 velocity=80 time=0EXTRACT: note_on channel=1 note=48 velocity=80 time=0EXTRACT: note_on channel=1 note=48 velocity=0 time=0.42992428541666666EXTRACT: note_on channel=1 note=55 velocity=80 time=0.024621214583333332EXTRACT: note_on channel=1 note=60 velocity=0 time=0.19128789791666667EXTRACT: note_on channel=1 note=64 velocity=0 time=0EXTRACT: note_on channel=1 note=67 velocity=0 time=0EXTRACT: note_on channel=1 note=67 velocity=80 time=0.03598485208333333EXTRACT: note_on channel=1 note=72 velocity=80 time=0EXTRACT: note_on channel=1 note=55 velocity=0 time=0.20265153541666667EXTRACT: note_on channel=1 note=60 velocity=80 time=0.024621214583333332EXTRACT: note_on channel=1 note=67 velocity=0 time=0.20265153541666667EXTRACT: note_on channel=1 note=72 velocity=0 time=0EXTRACT: note_on channel=1 note=67 velocity=80 time=0.024621214583333332EXTRACT: note_on channel=1 note=60 velocity=0 time=0.20265153541666667EXTRACT: note_on channel=1 note=67 velocity=0 time=0.011363637499999999EXTRACT: note_on channel=1 note=65 velocity=80 time=0.013257577083333333EXTRACT: note_on channel=1 note=69 velocity=80 time=0EXTRACT: note_on channel=1 note=50 velocity=80 time=0EXTRACT: note_on channel=1 note=50 velocity=0 time=0.42992428541666666EXTRACT: note_on channel=1 note=57 velocity=80 time=0.024621214583333332EXTRACT: note_on channel=1 note=65 velocity=0 time=0.19128789791666667EXTRACT: note_on channel=1 note=69 velocity=0 time=0EXTRACT: note_on channel=1 note=65 velocity=80 time=0.03598485208333333EXTRACT: note_on channel=1 note=69 velocity=80 time=0EXTRACT: note_on channel=1 note=57 velocity=0 time=0.20265153541666667EXTRACT: note_on channel=1 note=65 velocity=0 time=0.011363637499999999EXTRACT: note_on channel=1 note=69 velocity=0 time=0EXTRACT: note_on channel=1 note=69 velocity=80 time=0.013257577083333333EXTRACT: note_on channel=1 note=62 velocity=80 time=0EXTRACT: note_on channel=1 note=69 velocity=0 time=0.21401517291666666EXTRACT: note_on channel=1 note=72 velocity=80 time=0.013257577083333333EXTRACT: note_on channel=1 note=62 velocity=0 time=0.20265153541666667EXTRACT: note_on channel=1 note=72 velocity=0 time=0.011363637499999999EXTRACT: note_on channel=1 note=65 velocity=80 time=0.013257577083333333EXTRACT: note_on channel=1 note=70 velocity=80 time=0EXTRACT: note_on channel=1 note=74 velocity=80 time=0EXTRACT: note_on channel=1 note=46 velocity=80 time=0EXTRACT: note_on channel=1 note=46 velocity=0 time=0.42992428541666666EXTRACT: note_on channel=1 note=53 velocity=80 time=0.024621214583333332EXTRACT: note_on channel=1 note=65 velocity=0 time=0.19128789791666667EXTRACT: note_on channel=1 note=70 velocity=0 time=0EXTRACT: note_on channel=1 note=74 velocity=0 time=0EXTRACT: note_on channel=1 note=65 velocity=80 time=0.03598485208333333EXTRACT: note_on channel=1 note=70 velocity=80 time=0EXTRACT: note_on channel=1 note=74 velocity=80 time=0EXTRACT: note_on channel=1 note=53 velocity=0 time=0.20265153541666667EXTRACT: note_on channel=1 note=58 velocity=80 time=0.024621214583333332EXTRACT: note_on channel=1 note=65 velocity=0 time=0.20265153541666667EXTRACT: note_on channel=1 note=70 velocity=0 time=0EXTRACT: note_on channel=1 note=74 velocity=0 time=0EXTRACT: note_on channel=1 note=72 velocity=80 time=0.024621214583333332EXTRACT: note_on channel=1 note=58 velocity=0 time=0.20265153541666667EXTRACT: note_on channel=1 note=72 velocity=0 time=0.011363637499999999EXTRACT: note_on channel=1 note=60 velocity=80 time=0.013257577083333333EXTRACT: note_on channel=1 note=65 velocity=80 time=0EXTRACT: note_on channel=1 note=69 velocity=80 time=0EXTRACT: note_on channel=1 note=41 velocity=80 time=0EXTRACT: note_on channel=1 note=41 velocity=0 time=0.42992428541666666EXTRACT: note_on channel=1 note=48 velocity=80 time=0.024621214583333332EXTRACT: note_on channel=1 note=60 velocity=0 time=0.40719701041666667EXTRACT: note_on channel=1 note=65 velocity=0 time=0EXTRACT: note_on channel=1 note=69 velocity=0 time=0EXTRACT: note_on channel=1 note=48 velocity=0 time=0.022727274999999998EXTRACT: note_on channel=1 note=65 velocity=80 time=0.024621214583333332EXTRACT: note_on channel=1 note=53 velocity=80 time=0EXTRACT: note_on channel=1 note=65 velocity=0 time=0.14204546875EXTRACT: note_on channel=1 note=67 velocity=80 time=0.009469697916666667EXTRACT: note_on channel=1 note=67 velocity=0 time=0.14204546875EXTRACT: note_on channel=1 note=69 velocity=80 time=0.009469697916666667EXTRACT: note_on channel=1 note=53 velocity=0 time=0.12689395208333334EXTRACT: note_on channel=1 note=69 velocity=0 time=0.015151516666666667EXTRACT: note_on channel=1 note=60 velocity=80 time=0.009469697916666667EXTRACT: note_on channel=1 note=64 velocity=80 time=0EXTRACT: note_on channel=1 note=67 velocity=80 time=0EXTRACT: note_on channel=1 note=36 velocity=80 time=0EXTRACT: note_on channel=1 note=36 velocity=0 time=0.42992428541666666EXTRACT: note_on channel=1 note=43 velocity=80 time=0.024621214583333332EXTRACT: note_on channel=1 note=43 velocity=0 time=0.42992428541666666EXTRACT: note_on channel=1 note=48 velocity=80 time=0.024621214583333332EXTRACT: note_on channel=1 note=60 velocity=0 time=0.3844697354166667EXTRACT: note_on channel=1 note=64 velocity=0 time=0EXTRACT: note_on channel=1 note=67 velocity=0 time=0EXTRACT: note_on channel=1 note=60 velocity=80 time=0.07007576458333334EXTRACT: note_on channel=1 note=64 velocity=80 time=0EXTRACT: note_on channel=1 note=67 velocity=80 time=0EXTRACT: note_on channel=0 note=72 velocity=80 time=0.68181825EXTRACT: note_on channel=0 note=72 velocity=0 time=0.22537881041666666EXTRACT: note_on channel=0 note=74 velocity=80 time=0.0018939395833333333EXTRACT: note_on channel=1 note=48 velocity=0 time=0.3617424604166667EXTRACT: note_on channel=1 note=60 velocity=0 time=0.022727274999999998EXTRACT: note_on channel=1 note=64 velocity=0 time=0EXTRACT: note_on channel=1 note=67 velocity=0 time=0EXTRACT: note_on channel=0 note=74 velocity=0 time=0.068181825EXTRACT: note_on channel=0 note=74 velocity=80 time=0.0018939395833333333EXTRACT: note_on channel=1 note=65 velocity=80 time=0EXTRACT: note_on channel=1 note=70 velocity=80 time=0EXTRACT: note_on channel=1 note=74 velocity=80 time=0EXTRACT: note_on channel=1 note=46 velocity=80 time=0EXTRACT: note_on channel=1 note=46 velocity=0 time=0.42992428541666666EXTRACT: note_on channel=0 note=74 velocity=0 time=0.022727274999999998EXTRACT: note_on channel=0 note=72 velocity=80 time=0.0018939395833333333EXTRACT: note_on channel=1 note=53 velocity=80 time=0EXTRACT: note_on channel=1 note=65 velocity=0 time=0.19128789791666667EXTRACT: note_on channel=1 note=70 velocity=0 time=0EXTRACT: note_on channel=1 note=74 velocity=0 time=0EXTRACT: note_on channel=0 note=72 velocity=0 time=0.0340909125EXTRACT: note_on channel=0 note=72 velocity=80 time=0.0018939395833333333EXTRACT: note_on channel=1 note=65 velocity=80 time=0EXTRACT: note_on channel=1 note=70 velocity=80 time=0EXTRACT: note_on channel=1 note=74 velocity=80 time=0EXTRACT: note_on channel=1 note=53 velocity=0 time=0.20265153541666667EXTRACT: note_on channel=1 note=58 velocity=80 time=0.024621214583333332EXTRACT: note_on channel=1 note=65 velocity=0 time=0.20265153541666667EXTRACT: note_on channel=1 note=70 velocity=0 time=0EXTRACT: note_on channel=1 note=74 velocity=0 time=0EXTRACT: note_on channel=0 note=72 velocity=0 time=0.022727274999999998EXTRACT: note_on channel=0 note=69 velocity=80 time=0.0018939395833333333EXTRACT: note_on channel=1 note=72 velocity=80 time=0EXTRACT: note_on channel=1 note=58 velocity=0 time=0.20265153541666667EXTRACT: note_on channel=1 note=72 velocity=0 time=0.011363637499999999EXTRACT: note_on channel=0 note=69 velocity=0 time=0.011363637499999999EXTRACT: note_on channel=0 note=69 velocity=80 time=0.0018939395833333333EXTRACT: note_on channel=1 note=60 velocity=80 time=0EXTRACT: note_on channel=1 note=65 velocity=80 time=0EXTRACT: note_on channel=1 note=69 velocity=80 time=0EXTRACT: note_on channel=1 note=41 velocity=80 time=0EXTRACT: note_on channel=1 note=41 velocity=0 time=0.42992428541666666EXTRACT: note_on channel=0 note=69 velocity=0 time=0.022727274999999998EXTRACT: note_on channel=0 note=65 velocity=80 time=0.0018939395833333333EXTRACT: note_on channel=1 note=48 velocity=80 time=0EXTRACT: note_on channel=1 note=60 velocity=0 time=0.40719701041666667EXTRACT: note_on channel=1 note=65 velocity=0 time=0EXTRACT: note_on channel=1 note=69 velocity=0 time=0EXTRACT: note_on channel=1 note=48 velocity=0 time=0.022727274999999998EXTRACT: note_on channel=1 note=65 velocity=80 time=0.024621214583333332EXTRACT: note_on channel=1 note=53 velocity=80 time=0EXTRACT: note_on channel=1 note=65 velocity=0 time=0.14204546875EXTRACT: note_on channel=1 note=67 velocity=80 time=0.009469697916666667EXTRACT: note_on channel=0 note=65 velocity=0 time=0.07386364375EXTRACT: note_on channel=1 note=67 velocity=0 time=0.068181825EXTRACT: note_on channel=1 note=69 velocity=80 time=0.009469697916666667EXTRACT: note_on channel=1 note=53 velocity=0 time=0.12689395208333334EXTRACT: note_on channel=1 note=69 velocity=0 time=0.015151516666666667EXTRACT: note_on channel=0 note=65 velocity=80 time=0.009469697916666667EXTRACT: note_on channel=1 note=60 velocity=80 time=0EXTRACT: note_on channel=1 note=64 velocity=80 time=0EXTRACT: note_on channel=1 note=67 velocity=80 time=0EXTRACT: note_on channel=1 note=48 velocity=80 time=0EXTRACT: note_on channel=0 note=65 velocity=0 time=0.14962122708333334EXTRACT: note_on channel=0 note=67 velocity=80 time=0.0018939395833333333EXTRACT: note_on channel=0 note=67 velocity=0 time=0.14962122708333334EXTRACT: note_on channel=0 note=69 velocity=80 time=0.0018939395833333333EXTRACT: note_on channel=1 note=48 velocity=0 time=0.12689395208333334EXTRACT: note_on channel=0 note=69 velocity=0 time=0.022727274999999998EXTRACT: note_on channel=0 note=69 velocity=80 time=0.0018939395833333333EXTRACT: note_on channel=1 note=55 velocity=80 time=0EXTRACT: note_on channel=1 note=60 velocity=0 time=0.19128789791666667EXTRACT: note_on channel=1 note=64 velocity=0 time=0EXTRACT: note_on channel=1 note=67 velocity=0 time=0EXTRACT: note_on channel=0 note=69 velocity=0 time=0.0340909125EXTRACT: note_on channel=0 note=65 velocity=80 time=0.0018939395833333333EXTRACT: note_on channel=1 note=67 velocity=80 time=0EXTRACT: note_on channel=1 note=72 velocity=80 time=0EXTRACT: note_on channel=1 note=55 velocity=0 time=0.20265153541666667EXTRACT: note_on channel=1 note=60 velocity=80 time=0.024621214583333332EXTRACT: note_on channel=1 note=67 velocity=0 time=0.20265153541666667EXTRACT: note_on channel=1 note=72 velocity=0 time=0EXTRACT: note_on channel=0 note=65 velocity=0 time=0.022727274999999998EXTRACT: note_on channel=0 note=65 velocity=80 time=0.0018939395833333333EXTRACT: note_on channel=1 note=67 velocity=80 time=0EXTRACT: note_on channel=1 note=60 velocity=0 time=0.20265153541666667EXTRACT: note_on channel=1 note=67 velocity=0 time=0.011363637499999999EXTRACT: note_on channel=0 note=65 velocity=0 time=0.011363637499999999EXTRACT: note_on channel=0 note=67 velocity=80 time=0.0018939395833333333EXTRACT: note_on channel=1 note=65 velocity=80 time=0EXTRACT: note_on channel=1 note=69 velocity=80 time=0EXTRACT: note_on channel=1 note=50 velocity=80 time=0EXTRACT: note_on channel=0 note=67 velocity=0 time=0.22537881041666666EXTRACT: note_on channel=0 note=65 velocity=80 time=0.0018939395833333333EXTRACT: note_on channel=1 note=50 velocity=0 time=0.20265153541666667EXTRACT: note_on channel=1 note=57 velocity=80 time=0.024621214583333332EXTRACT: note_on channel=1 note=65 velocity=0 time=0.19128789791666667EXTRACT: note_on channel=1 note=69 velocity=0 time=0EXTRACT: note_on channel=1 note=65 velocity=80 time=0.03598485208333333EXTRACT: note_on channel=1 note=69 velocity=80 time=0EXTRACT: note_on channel=1 note=57 velocity=0 time=0.20265153541666667EXTRACT: note_on channel=1 note=65 velocity=0 time=0.011363637499999999EXTRACT: note_on channel=1 note=69 velocity=0 time=0EXTRACT: note_on channel=0 note=65 velocity=0 time=0.011363637499999999EXTRACT: note_on channel=1 note=69 velocity=80 time=0.0018939395833333333EXTRACT: note_on channel=1 note=62 velocity=80 time=0EXTRACT: note_on channel=1 note=69 velocity=0 time=0.21401517291666666EXTRACT: note_on channel=0 note=65 velocity=80 time=0.013257577083333333EXTRACT: note_on channel=1 note=72 velocity=80 time=0EXTRACT: note_on channel=1 note=62 velocity=0 time=0.20265153541666667EXTRACT: note_on channel=1 note=72 velocity=0 time=0.011363637499999999EXTRACT: note_on channel=0 note=65 velocity=0 time=0.011363637499999999EXTRACT: note_on channel=0 note=65 velocity=80 time=0.0018939395833333333EXTRACT: note_on channel=1 note=65 velocity=80 time=0EXTRACT: note_on channel=1 note=70 velocity=80 time=0EXTRACT: note_on channel=1 note=74 velocity=80 time=0EXTRACT: note_on channel=1 note=46 velocity=80 time=0EXTRACT: note_on channel=0 note=65 velocity=0 time=0.22537881041666666EXTRACT: note_on channel=0 note=67 velocity=80 time=0.0018939395833333333EXTRACT: note_on channel=1 note=46 velocity=0 time=0.20265153541666667EXTRACT: note_on channel=1 note=53 velocity=80 time=0.024621214583333332EXTRACT: note_on channel=1 note=65 velocity=0 time=0.19128789791666667EXTRACT: note_on channel=1 note=70 velocity=0 time=0EXTRACT: note_on channel=1 note=74 velocity=0 time=0EXTRACT: note_on channel=0 note=67 velocity=0 time=0.0340909125EXTRACT: note_on channel=0 note=69 velocity=80 time=0.0018939395833333333EXTRACT: note_on channel=1 note=65 velocity=80 time=0EXTRACT: note_on channel=1 note=70 velocity=80 time=0EXTRACT: note_on channel=1 note=74 velocity=80 time=0EXTRACT: note_on channel=1 note=53 velocity=0 time=0.20265153541666667EXTRACT: note_on channel=1 note=58 velocity=80 time=0.024621214583333332EXTRACT: note_on channel=1 note=65 velocity=0 time=0.20265153541666667EXTRACT: note_on channel=1 note=70 velocity=0 time=0EXTRACT: note_on channel=1 note=74 velocity=0 time=0EXTRACT: note_on channel=1 note=72 velocity=80 time=0.024621214583333332EXTRACT: note_on channel=1 note=58 velocity=0 time=0.20265153541666667EXTRACT: note_on channel=1 note=72 velocity=0 time=0.011363637499999999EXTRACT: note_on channel=0 note=69 velocity=0 time=0.011363637499999999EXTRACT: note_on channel=1 note=60 velocity=80 time=0.0018939395833333333EXTRACT: note_on channel=1 note=65 velocity=80 time=0EXTRACT: note_on channel=1 note=69 velocity=80 time=0EXTRACT: note_on channel=1 note=41 velocity=80 time=0EXTRACT: note_on channel=1 note=41 velocity=0 time=0.42992428541666666EXTRACT: note_on channel=0 note=65 velocity=80 time=0.024621214583333332EXTRACT: note_on channel=1 note=48 velocity=80 time=0EXTRACT: note_on channel=0 note=65 velocity=0 time=0.22537881041666666EXTRACT: note_on channel=0 note=67 velocity=80 time=0.0018939395833333333EXTRACT: note_on channel=1 note=60 velocity=0 time=0.17992426041666668EXTRACT: note_on channel=1 note=65 velocity=0 time=0EXTRACT: note_on channel=1 note=69 velocity=0 time=0EXTRACT: note_on channel=1 note=48 velocity=0 time=0.022727274999999998EXTRACT: note_on channel=0 note=67 velocity=0 time=0.022727274999999998EXTRACT: note_on channel=0 note=69 velocity=80 time=0.0018939395833333333EXTRACT: note_on channel=1 note=65 velocity=80 time=0EXTRACT: note_on channel=1 note=53 velocity=80 time=0EXTRACT: note_on channel=1 note=65 velocity=0 time=0.14204546875EXTRACT: note_on channel=1 note=67 velocity=80 time=0.009469697916666667EXTRACT: note_on channel=1 note=67 velocity=0 time=0.14204546875EXTRACT: note_on channel=1 note=69 velocity=80 time=0.009469697916666667EXTRACT: note_on channel=1 note=53 velocity=0 time=0.12689395208333334EXTRACT: note_on channel=1 note=69 velocity=0 time=0.015151516666666667EXTRACT: note_on channel=1 note=60 velocity=80 time=0.009469697916666667EXTRACT: note_on channel=1 note=64 velocity=80 time=0EXTRACT: note_on channel=1 note=67 velocity=80 time=0EXTRACT: note_on channel=1 note=36 velocity=80 time=0EXTRACT: note_on channel=0 note=69 velocity=0 time=0.22537881041666666EXTRACT: note_on channel=0 note=67 velocity=80 time=0.0018939395833333333EXTRACT: note_on channel=1 note=36 velocity=0 time=0.20265153541666667EXTRACT: note_on channel=0 note=67 velocity=0 time=0.022727274999999998EXTRACT: note_on channel=0 note=64 velocity=80 time=0.0018939395833333333EXTRACT: note_on channel=1 note=43 velocity=80 time=0EXTRACT: note_on channel=1 note=43 velocity=0 time=0.42992428541666666EXTRACT: note_on channel=1 note=48 velocity=80 time=0.024621214583333332EXTRACT: note_on channel=1 note=60 velocity=0 time=0.3844697354166667EXTRACT: note_on channel=1 note=64 velocity=0 time=0EXTRACT: note_on channel=1 note=67 velocity=0 time=0EXTRACT: note_on channel=0 note=64 velocity=0 time=0.068181825EXTRACT: note_on channel=1 note=60 velocity=80 time=0.0018939395833333333EXTRACT: note_on channel=1 note=64 velocity=80 time=0EXTRACT: note_on channel=1 note=67 velocity=80 time=0EXTRACT: note_on channel=0 note=72 velocity=80 time=0.68181825EXTRACT: note_on channel=0 note=72 velocity=0 time=0.22537881041666666EXTRACT: note_on channel=0 note=74 velocity=80 time=0.0018939395833333333EXTRACT: note_on channel=1 note=48 velocity=0 time=0.3617424604166667EXTRACT: note_on channel=1 note=60 velocity=0 time=0.022727274999999998EXTRACT: note_on channel=1 note=64 velocity=0 time=0EXTRACT: note_on channel=1 note=67 velocity=0 time=0EXTRACT: note_on channel=0 note=74 velocity=0 time=0.068181825EXTRACT: note_on channel=0 note=74 velocity=80 time=0.0018939395833333333EXTRACT: note_on channel=1 note=65 velocity=80 time=0EXTRACT: note_on channel=1 note=70 velocity=80 time=0EXTRACT: note_on channel=1 note=74 velocity=80 time=0EXTRACT: note_on channel=1 note=46 velocity=80 time=0EXTRACT: note_on channel=1 note=46 velocity=0 time=0.42992428541666666EXTRACT: note_on channel=0 note=74 velocity=0 time=0.022727274999999998EXTRACT: note_on channel=0 note=72 velocity=80 time=0.0018939395833333333EXTRACT: note_on channel=1 note=53 velocity=80 time=0EXTRACT: note_on channel=1 note=65 velocity=0 time=0.19128789791666667EXTRACT: note_on channel=1 note=70 velocity=0 time=0EXTRACT: note_on channel=1 note=74 velocity=0 time=0EXTRACT: note_on channel=0 note=72 velocity=0 time=0.0340909125EXTRACT: note_on channel=0 note=72 velocity=80 time=0.0018939395833333333EXTRACT: note_on channel=1 note=65 velocity=80 time=0EXTRACT: note_on channel=1 note=70 velocity=80 time=0EXTRACT: note_on channel=1 note=74 velocity=80 time=0EXTRACT: note_on channel=1 note=53 velocity=0 time=0.20265153541666667EXTRACT: note_on channel=1 note=58 velocity=80 time=0.024621214583333332EXTRACT: note_on channel=1 note=65 velocity=0 time=0.20265153541666667EXTRACT: note_on channel=1 note=70 velocity=0 time=0EXTRACT: note_on channel=1 note=74 velocity=0 time=0EXTRACT: note_on channel=0 note=72 velocity=0 time=0.022727274999999998EXTRACT: note_on channel=0 note=69 velocity=80 time=0.0018939395833333333EXTRACT: note_on channel=1 note=72 velocity=80 time=0EXTRACT: note_on channel=1 note=58 velocity=0 time=0.20265153541666667EXTRACT: note_on channel=1 note=72 velocity=0 time=0.011363637499999999EXTRACT: note_on channel=0 note=69 velocity=0 time=0.011363637499999999EXTRACT: note_on channel=0 note=69 velocity=80 time=0.0018939395833333333EXTRACT: note_on channel=1 note=60 velocity=80 time=0EXTRACT: note_on channel=1 note=65 velocity=80 time=0EXTRACT: note_on channel=1 note=69 velocity=80 time=0EXTRACT: note_on channel=1 note=41 velocity=80 time=0EXTRACT: note_on channel=1 note=41 velocity=0 time=0.42992428541666666EXTRACT: note_on channel=0 note=69 velocity=0 time=0.022727274999999998EXTRACT: note_on channel=0 note=65 velocity=80 time=0.0018939395833333333EXTRACT: note_on channel=1 note=48 velocity=80 time=0EXTRACT: note_on channel=1 note=60 velocity=0 time=0.40719701041666667EXTRACT: note_on channel=1 note=65 velocity=0 time=0EXTRACT: note_on channel=1 note=69 velocity=0 time=0EXTRACT: note_on channel=1 note=48 velocity=0 time=0.022727274999999998EXTRACT: note_on channel=0 note=65 velocity=0 time=0.022727274999999998EXTRACT: note_on channel=1 note=65 velocity=80 time=0.0018939395833333333EXTRACT: note_on channel=1 note=53 velocity=80 time=0EXTRACT: note_on channel=1 note=65 velocity=0 time=0.14204546875EXTRACT: note_on channel=1 note=67 velocity=80 time=0.009469697916666667EXTRACT: note_on channel=1 note=67 velocity=0 time=0.14204546875EXTRACT: note_on channel=1 note=69 velocity=80 time=0.009469697916666667EXTRACT: note_on channel=1 note=53 velocity=0 time=0.12689395208333334EXTRACT: note_on channel=1 note=69 velocity=0 time=0.015151516666666667EXTRACT: note_on channel=1 note=60 velocity=80 time=0.009469697916666667EXTRACT: note_on channel=1 note=64 velocity=80 time=0EXTRACT: note_on channel=1 note=67 velocity=80 time=0EXTRACT: note_on channel=1 note=48 velocity=80 time=0EXTRACT: note_on channel=0 note=65 velocity=80 time=0.113636375EXTRACT: note_on channel=0 note=65 velocity=0 time=0.11174243541666666EXTRACT: note_on channel=0 note=69 velocity=80 time=0.0018939395833333333EXTRACT: note_on channel=0 note=69 velocity=0 time=0.11174243541666666EXTRACT: note_on channel=0 note=65 velocity=80 time=0.0018939395833333333EXTRACT: note_on channel=1 note=48 velocity=0 time=0.08901516041666667EXTRACT: note_on channel=0 note=65 velocity=0 time=0.022727274999999998EXTRACT: note_on channel=0 note=67 velocity=80 time=0.0018939395833333333EXTRACT: note_on channel=1 note=55 velocity=80 time=0EXTRACT: note_on channel=1 note=60 velocity=0 time=0.19128789791666667EXTRACT: note_on channel=1 note=64 velocity=0 time=0EXTRACT: note_on channel=1 note=67 velocity=0 time=0EXTRACT: note_on channel=1 note=67 velocity=80 time=0.03598485208333333EXTRACT: note_on channel=1 note=72 velocity=80 time=0EXTRACT: note_on channel=1 note=55 velocity=0 time=0.20265153541666667EXTRACT: note_on channel=0 note=67 velocity=0 time=0.022727274999999998EXTRACT: note_on channel=0 note=65 velocity=80 time=0.0018939395833333333EXTRACT: note_on channel=1 note=60 velocity=80 time=0EXTRACT: note_on channel=1 note=67 velocity=0 time=0.20265153541666667EXTRACT: note_on channel=1 note=72 velocity=0 time=0EXTRACT: note_on channel=0 note=65 velocity=0 time=0.022727274999999998EXTRACT: note_on channel=0 note=67 velocity=80 time=0.0018939395833333333EXTRACT: note_on channel=1 note=67 velocity=80 time=0EXTRACT: note_on channel=1 note=60 velocity=0 time=0.20265153541666667EXTRACT: note_on channel=1 note=67 velocity=0 time=0.011363637499999999EXTRACT: note_on channel=1 note=65 velocity=80 time=0.013257577083333333EXTRACT: note_on channel=1 note=69 velocity=80 time=0EXTRACT: note_on channel=1 note=50 velocity=80 time=0EXTRACT: note_on channel=0 note=67 velocity=0 time=0.22537881041666666EXTRACT: note_on channel=0 note=67 velocity=80 time=0.0018939395833333333EXTRACT: note_on channel=1 note=50 velocity=0 time=0.20265153541666667EXTRACT: note_on channel=0 note=67 velocity=0 time=0.022727274999999998EXTRACT: note_on channel=0 note=65 velocity=80 time=0.0018939395833333333EXTRACT: note_on channel=1 note=57 velocity=80 time=0EXTRACT: note_on channel=1 note=65 velocity=0 time=0.19128789791666667EXTRACT: note_on channel=1 note=69 velocity=0 time=0EXTRACT: note_on channel=1 note=65 velocity=80 time=0.03598485208333333EXTRACT: note_on channel=1 note=69 velocity=80 time=0EXTRACT: note_on channel=1 note=57 velocity=0 time=0.20265153541666667EXTRACT: note_on channel=1 note=65 velocity=0 time=0.011363637499999999EXTRACT: note_on channel=1 note=69 velocity=0 time=0EXTRACT: note_on channel=0 note=65 velocity=0 time=0.011363637499999999EXTRACT: note_on channel=1 note=69 velocity=80 time=0.0018939395833333333EXTRACT: note_on channel=1 note=62 velocity=80 time=0EXTRACT: note_on channel=0 note=65 velocity=80 time=0.15151516666666667EXTRACT: note_on channel=1 note=69 velocity=0 time=0.06250000625EXTRACT: note_on channel=1 note=72 velocity=80 time=0.013257577083333333EXTRACT: note_on channel=0 note=65 velocity=0 time=0.07386364375EXTRACT: note_on channel=0 note=65 velocity=80 time=0.0018939395833333333EXTRACT: note_on channel=1 note=62 velocity=0 time=0.12689395208333334EXTRACT: note_on channel=1 note=72 velocity=0 time=0.011363637499999999EXTRACT: note_on channel=0 note=65 velocity=0 time=0.011363637499999999EXTRACT: note_on channel=0 note=65 velocity=80 time=0.0018939395833333333EXTRACT: note_on channel=1 note=65 velocity=80 time=0EXTRACT: note_on channel=1 note=70 velocity=80 time=0EXTRACT: note_on channel=1 note=74 velocity=80 time=0EXTRACT: note_on channel=1 note=46 velocity=80 time=0EXTRACT: note_on channel=1 note=46 velocity=0 time=0.42992428541666666EXTRACT: note_on channel=0 note=65 velocity=0 time=0.022727274999999998EXTRACT: note_on channel=0 note=67 velocity=80 time=0.0018939395833333333EXTRACT: note_on channel=1 note=53 velocity=80 time=0EXTRACT: note_on channel=1 note=65 velocity=0 time=0.19128789791666667EXTRACT: note_on channel=1 note=70 velocity=0 time=0EXTRACT: note_on channel=1 note=74 velocity=0 time=0EXTRACT: note_on channel=1 note=65 velocity=80 time=0.03598485208333333EXTRACT: note_on channel=1 note=70 velocity=80 time=0EXTRACT: note_on channel=1 note=74 velocity=80 time=0EXTRACT: note_on channel=1 note=53 velocity=0 time=0.20265153541666667EXTRACT: note_on channel=0 note=67 velocity=0 time=0.022727274999999998EXTRACT: note_on channel=0 note=69 velocity=80 time=0.0018939395833333333EXTRACT: note_on channel=1 note=58 velocity=80 time=0EXTRACT: note_on channel=1 note=65 velocity=0 time=0.20265153541666667EXTRACT: note_on channel=1 note=70 velocity=0 time=0EXTRACT: note_on channel=1 note=74 velocity=0 time=0EXTRACT: note_on channel=0 note=69 velocity=0 time=0.022727274999999998EXTRACT: note_on channel=0 note=67 velocity=80 time=0.0018939395833333333EXTRACT: note_on channel=1 note=72 velocity=80 time=0EXTRACT: note_on channel=1 note=58 velocity=0 time=0.20265153541666667EXTRACT: note_on channel=1 note=72 velocity=0 time=0.011363637499999999EXTRACT: note_on channel=1 note=60 velocity=80 time=0.013257577083333333EXTRACT: note_on channel=1 note=65 velocity=80 time=0EXTRACT: note_on channel=1 note=69 velocity=80 time=0EXTRACT: note_on channel=1 note=41 velocity=80 time=0EXTRACT: note_on channel=1 note=41 velocity=0 time=0.42992428541666666EXTRACT: note_on channel=0 note=67 velocity=0 time=0.022727274999999998EXTRACT: note_on channel=1 note=48 velocity=80 time=0.0018939395833333333EXTRACT: note_on channel=0 note=65 velocity=80 time=0.22727275EXTRACT: note_on channel=1 note=60 velocity=0 time=0.17992426041666668EXTRACT: note_on channel=1 note=65 velocity=0 time=0EXTRACT: note_on channel=1 note=69 velocity=0 time=0EXTRACT: note_on channel=1 note=48 velocity=0 time=0.022727274999999998EXTRACT: note_on channel=0 note=65 velocity=0 time=0.022727274999999998EXTRACT: note_on channel=0 note=65 velocity=80 time=0.0018939395833333333EXTRACT: note_on channel=1 note=65 velocity=80 time=0EXTRACT: note_on channel=1 note=53 velocity=80 time=0EXTRACT: note_on channel=1 note=65 velocity=0 time=0.14204546875EXTRACT: note_on channel=1 note=67 velocity=80 time=0.009469697916666667EXTRACT: note_on channel=0 note=65 velocity=0 time=0.07386364375EXTRACT: note_on channel=0 note=67 velocity=80 time=0.0018939395833333333EXTRACT: note_on channel=1 note=67 velocity=0 time=0.06628788541666666EXTRACT: note_on channel=1 note=69 velocity=80 time=0.009469697916666667EXTRACT: note_on channel=1 note=53 velocity=0 time=0.12689395208333334EXTRACT: note_on channel=1 note=69 velocity=0 time=0.015151516666666667EXTRACT: note_on channel=1 note=60 velocity=80 time=0.009469697916666667EXTRACT: note_on channel=1 note=64 velocity=80 time=0EXTRACT: note_on channel=1 note=67 velocity=80 time=0EXTRACT: note_on channel=1 note=36 velocity=80 time=0EXTRACT: note_on channel=0 note=67 velocity=0 time=0.22537881041666666EXTRACT: note_on channel=0 note=69 velocity=80 time=0.0018939395833333333EXTRACT: note_on channel=1 note=36 velocity=0 time=0.20265153541666667EXTRACT: note_on channel=1 note=43 velocity=80 time=0.024621214583333332EXTRACT: note_on channel=0 note=69 velocity=0 time=0.22537881041666666EXTRACT: note_on channel=0 note=70 velocity=80 time=0.0018939395833333333EXTRACT: note_on channel=1 note=43 velocity=0 time=0.20265153541666667EXTRACT: note_on channel=1 note=48 velocity=80 time=0.024621214583333332EXTRACT: note_on channel=0 note=70 velocity=0 time=0.22537881041666666EXTRACT: note_on channel=0 note=67 velocity=80 time=0.0018939395833333333EXTRACT: note_on channel=1 note=60 velocity=0 time=0.15719698541666666EXTRACT: note_on channel=1 note=64 velocity=0 time=0EXTRACT: note_on channel=1 note=67 velocity=0 time=0EXTRACT: note_on channel=1 note=60 velocity=80 time=0.07007576458333334EXTRACT: note_on channel=1 note=64 velocity=80 time=0EXTRACT: note_on channel=1 note=67 velocity=80 time=0EXTRACT: note_on channel=0 note=67 velocity=0 time=0.22537881041666666EXTRACT: note_on channel=0 note=67 velocity=80 time=0.6837121895833334EXTRACT: note_on channel=1 note=48 velocity=0 time=0.3617424604166667EXTRACT: note_on channel=1 note=60 velocity=0 time=0.022727274999999998EXTRACT: note_on channel=1 note=64 velocity=0 time=0EXTRACT: note_on channel=1 note=67 velocity=0 time=0EXTRACT: note_on channel=0 note=67 velocity=0 time=0.068181825EXTRACT: note_on channel=0 note=67 velocity=80 time=0.0018939395833333333EXTRACT: note_on channel=1 note=62 velocity=80 time=0EXTRACT: note_on channel=1 note=67 velocity=80 time=0EXTRACT: note_on channel=1 note=70 velocity=80 time=0EXTRACT: note_on channel=1 note=43 velocity=80 time=0EXTRACT: note_on channel=1 note=55 velocity=80 time=0EXTRACT: note_on channel=0 note=67 velocity=0 time=0.22537881041666666EXTRACT: note_on channel=0 note=67 velocity=80 time=0.0018939395833333333EXTRACT: note_on channel=0 note=67 velocity=0 time=0.45265156041666665EXTRACT: note_on channel=0 note=65 velocity=80 time=0.0018939395833333333EXTRACT: note_on channel=1 note=62 velocity=0 time=0.17992426041666668EXTRACT: note_on channel=1 note=67 velocity=0 time=0EXTRACT: note_on channel=1 note=70 velocity=0 time=0EXTRACT: note_on channel=1 note=43 velocity=0 time=0EXTRACT: note_on channel=1 note=55 velocity=0 time=0EXTRACT: note_on channel=0 note=65 velocity=0 time=0.045454549999999996EXTRACT: note_on channel=0 note=65 velocity=80 time=0.0018939395833333333EXTRACT: note_on channel=1 note=60 velocity=80 time=0EXTRACT: note_on channel=1 note=65 velocity=80 time=0EXTRACT: note_on channel=1 note=69 velocity=80 time=0EXTRACT: note_on channel=1 note=41 velocity=80 time=0EXTRACT: note_on channel=1 note=53 velocity=80 time=0EXTRACT: note_on channel=1 note=60 velocity=0 time=0.42992428541666666EXTRACT: note_on channel=1 note=65 velocity=0 time=0EXTRACT: note_on channel=1 note=69 velocity=0 time=0EXTRACT: note_on channel=1 note=41 velocity=0 time=0EXTRACT: note_on channel=1 note=53 velocity=0 time=0EXTRACT: note_on channel=0 note=65 velocity=0 time=0.022727274999999998EXTRACT: note_on channel=0 note=64 velocity=80 time=0.0018939395833333333EXTRACT: note_on channel=1 note=60 velocity=80 time=0EXTRACT: note_on channel=1 note=64 velocity=80 time=0EXTRACT: note_on channel=1 note=67 velocity=80 time=0EXTRACT: note_on channel=1 note=36 velocity=80 time=0EXTRACT: note_on channel=1 note=36 velocity=0 time=0.42992428541666666EXTRACT: note_on channel=0 note=64 velocity=0 time=0.022727274999999998EXTRACT: note_on channel=1 note=43 velocity=80 time=0.0018939395833333333EXTRACT: note_on channel=1 note=60 velocity=0 time=0.19128789791666667EXTRACT: note_on channel=1 note=64 velocity=0 time=0EXTRACT: note_on channel=1 note=67 velocity=0 time=0EXTRACT: note_on channel=1 note=60 velocity=80 time=0.03598485208333333EXTRACT: note_on channel=1 note=64 velocity=80 time=0EXTRACT: note_on channel=1 note=67 velocity=80 time=0EXTRACT: note_on channel=1 note=43 velocity=0 time=0.20265153541666667EXTRACT: note_on channel=1 note=48 velocity=80 time=0.024621214583333332EXTRACT: note_on channel=1 note=60 velocity=0 time=0.41856064791666664EXTRACT: note_on channel=1 note=64 velocity=0 time=0EXTRACT: note_on channel=1 note=67 velocity=0 time=0EXTRACT: note_on channel=1 note=48 velocity=0 time=0.011363637499999999EXTRACT: note_on channel=1 note=62 velocity=80 time=0.024621214583333332EXTRACT: note_on channel=1 note=67 velocity=80 time=0EXTRACT: note_on channel=1 note=70 velocity=80 time=0EXTRACT: note_on channel=1 note=43 velocity=80 time=0EXTRACT: note_on channel=1 note=55 velocity=80 time=0EXTRACT: note_on channel=0 note=72 velocity=80 time=0.4545455EXTRACT: note_on channel=0 note=72 velocity=0 time=0.22537881041666666EXTRACT: note_on channel=0 note=72 velocity=80 time=0.0018939395833333333EXTRACT: note_on channel=1 note=62 velocity=0 time=0.17992426041666668EXTRACT: note_on channel=1 note=67 velocity=0 time=0EXTRACT: note_on channel=1 note=70 velocity=0 time=0EXTRACT: note_on channel=1 note=43 velocity=0 time=0EXTRACT: note_on channel=1 note=55 velocity=0 time=0EXTRACT: note_on channel=1 note=60 velocity=80 time=0.047348489583333334EXTRACT: note_on channel=1 note=65 velocity=80 time=0EXTRACT: note_on channel=1 note=69 velocity=80 time=0EXTRACT: note_on channel=1 note=41 velocity=80 time=0EXTRACT: note_on channel=1 note=53 velocity=80 time=0EXTRACT: note_on channel=0 note=72 velocity=0 time=0.22537881041666666EXTRACT: note_on channel=0 note=69 velocity=80 time=0.0018939395833333333EXTRACT: note_on channel=1 note=60 velocity=0 time=0.20265153541666667EXTRACT: note_on channel=1 note=65 velocity=0 time=0EXTRACT: note_on channel=1 note=69 velocity=0 time=0EXTRACT: note_on channel=1 note=41 velocity=0 time=0EXTRACT: note_on channel=1 note=53 velocity=0 time=0EXTRACT: note_on channel=0 note=69 velocity=0 time=0.022727274999999998EXTRACT: note_on channel=0 note=69 velocity=80 time=0.0018939395833333333EXTRACT: note_on channel=1 note=60 velocity=80 time=0EXTRACT: note_on channel=1 note=64 velocity=80 time=0EXTRACT: note_on channel=1 note=67 velocity=80 time=0EXTRACT: note_on channel=1 note=36 velocity=80 time=0EXTRACT: note_on channel=1 note=36 velocity=0 time=0.42992428541666666EXTRACT: note_on channel=0 note=69 velocity=0 time=0.022727274999999998EXTRACT: note_on channel=0 note=67 velocity=80 time=0.0018939395833333333EXTRACT: note_on channel=1 note=43 velocity=80 time=0EXTRACT: note_on channel=1 note=60 velocity=0 time=0.19128789791666667EXTRACT: note_on channel=1 note=64 velocity=0 time=0EXTRACT: note_on channel=1 note=67 velocity=0 time=0EXTRACT: note_on channel=0 note=67 velocity=0 time=0.0340909125EXTRACT: note_on channel=0 note=67 velocity=80 time=0.0018939395833333333EXTRACT: note_on channel=1 note=60 velocity=80 time=0EXTRACT: note_on channel=1 note=64 velocity=80 time=0EXTRACT: note_on channel=1 note=67 velocity=80 time=0EXTRACT: note_on channel=1 note=43 velocity=0 time=0.20265153541666667EXTRACT: note_on channel=1 note=48 velocity=80 time=0.024621214583333332EXTRACT: note_on channel=0 note=67 velocity=0 time=0.22537881041666666EXTRACT: note_on channel=1 note=60 velocity=0 time=0.1931818375EXTRACT: note_on channel=1 note=64 velocity=0 time=0EXTRACT: note_on channel=1 note=67 velocity=0 time=0EXTRACT: note_on channel=1 note=48 velocity=0 time=0.011363637499999999EXTRACT: note_on channel=1 note=62 velocity=80 time=0.024621214583333332EXTRACT: note_on channel=1 note=67 velocity=80 time=0EXTRACT: note_on channel=1 note=70 velocity=80 time=0EXTRACT: note_on channel=1 note=43 velocity=80 time=0EXTRACT: note_on channel=1 note=55 velocity=80 time=0EXTRACT: note_on channel=0 note=72 velocity=80 time=0.4545455EXTRACT: note_on channel=0 note=72 velocity=0 time=0.22537881041666666EXTRACT: note_on channel=0 note=74 velocity=80 time=0.0018939395833333333EXTRACT: note_on channel=1 note=62 velocity=0 time=0.17992426041666668EXTRACT: note_on channel=1 note=67 velocity=0 time=0EXTRACT: note_on channel=1 note=70 velocity=0 time=0EXTRACT: note_on channel=1 note=43 velocity=0 time=0EXTRACT: note_on channel=1 note=55 velocity=0 time=0EXTRACT: note_on channel=1 note=60 velocity=80 time=0.047348489583333334EXTRACT: note_on channel=1 note=65 velocity=80 time=0EXTRACT: note_on channel=1 note=69 velocity=80 time=0EXTRACT: note_on channel=1 note=41 velocity=80 time=0EXTRACT: note_on channel=1 note=53 velocity=80 time=0EXTRACT: note_on channel=0 note=74 velocity=0 time=0.22537881041666666EXTRACT: note_on channel=0 note=72 velocity=80 time=0.0018939395833333333EXTRACT: note_on channel=1 note=60 velocity=0 time=0.20265153541666667EXTRACT: note_on channel=1 note=65 velocity=0 time=0EXTRACT: note_on channel=1 note=69 velocity=0 time=0EXTRACT: note_on channel=1 note=41 velocity=0 time=0EXTRACT: note_on channel=1 note=53 velocity=0 time=0EXTRACT: note_on channel=0 note=72 velocity=0 time=0.022727274999999998EXTRACT: note_on channel=0 note=72 velocity=80 time=0.0018939395833333333EXTRACT: note_on channel=1 note=60 velocity=80 time=0EXTRACT: note_on channel=1 note=64 velocity=80 time=0EXTRACT: note_on channel=1 note=67 velocity=80 time=0EXTRACT: note_on channel=1 note=36 velocity=80 time=0EXTRACT: note_on channel=1 note=36 velocity=0 time=0.42992428541666666EXTRACT: note_on channel=0 note=72 velocity=0 time=0.022727274999999998EXTRACT: note_on channel=0 note=69 velocity=80 time=0.0018939395833333333EXTRACT: note_on channel=1 note=43 velocity=80 time=0EXTRACT: note_on channel=1 note=60 velocity=0 time=0.19128789791666667EXTRACT: note_on channel=1 note=64 velocity=0 time=0EXTRACT: note_on channel=1 note=67 velocity=0 time=0EXTRACT: note_on channel=0 note=69 velocity=0 time=0.0340909125EXTRACT: note_on channel=0 note=69 velocity=80 time=0.0018939395833333333EXTRACT: note_on channel=1 note=60 velocity=80 time=0EXTRACT: note_on channel=1 note=64 velocity=80 time=0EXTRACT: note_on channel=1 note=67 velocity=80 time=0EXTRACT: note_on channel=1 note=43 velocity=0 time=0.20265153541666667EXTRACT: note_on channel=0 note=69 velocity=0 time=0.022727274999999998EXTRACT: note_on channel=0 note=67 velocity=80 time=0.0018939395833333333EXTRACT: note_on channel=1 note=48 velocity=80 time=0EXTRACT: note_on channel=1 note=60 velocity=0 time=0.41856064791666664EXTRACT: note_on channel=1 note=64 velocity=0 time=0EXTRACT: note_on channel=1 note=67 velocity=0 time=0EXTRACT: note_on channel=1 note=48 velocity=0 time=0.011363637499999999EXTRACT: note_on channel=0 note=67 velocity=0 time=0.022727274999999998EXTRACT: note_on channel=1 note=53 velocity=80 time=0.0018939395833333333EXTRACT: note_on channel=1 note=58 velocity=80 time=0EXTRACT: note_on channel=1 note=62 velocity=80 time=0EXTRACT: note_on channel=1 note=34 velocity=80 time=0EXTRACT: note_on channel=1 note=46 velocity=80 time=0EXTRACT: note_on channel=0 note=65 velocity=80 time=0.4545455EXTRACT: note_on channel=0 note=65 velocity=0 time=0.45265156041666665EXTRACT: note_on channel=0 note=65 velocity=80 time=0.0018939395833333333EXTRACT: note_on channel=1 note=53 velocity=0 time=0.3844697354166667EXTRACT: note_on channel=1 note=58 velocity=0 time=0EXTRACT: note_on channel=1 note=62 velocity=0 time=0EXTRACT: note_on channel=1 note=34 velocity=0 time=0EXTRACT: note_on channel=1 note=46 velocity=0 time=0EXTRACT: note_on channel=1 note=53 velocity=80 time=0.07007576458333334EXTRACT: note_on channel=1 note=58 velocity=80 time=0EXTRACT: note_on channel=1 note=62 velocity=80 time=0EXTRACT: note_on channel=1 note=34 velocity=80 time=0EXTRACT: note_on channel=1 note=46 velocity=80 time=0EXTRACT: note_on channel=0 note=65 velocity=0 time=0.45265156041666665EXTRACT: note_on channel=0 note=65 velocity=80 time=0.22916668958333333EXTRACT: note_on channel=0 note=65 velocity=0 time=0.22537881041666666EXTRACT: note_on channel=0 note=65 velocity=80 time=0.0018939395833333333EXTRACT: note_on channel=0 note=65 velocity=0 time=0.22537881041666666EXTRACT: note_on channel=0 note=65 velocity=80 time=0.0018939395833333333EXTRACT: note_on channel=1 note=53 velocity=0 time=0.15719698541666666EXTRACT: note_on channel=1 note=58 velocity=0 time=0EXTRACT: note_on channel=1 note=62 velocity=0 time=0EXTRACT: note_on channel=1 note=34 velocity=0 time=0EXTRACT: note_on channel=1 note=46 velocity=0 time=0EXTRACT: note_on channel=0 note=65 velocity=0 time=0.068181825EXTRACT: note_on channel=0 note=77 velocity=80 time=0.0018939395833333333EXTRACT: note_on channel=1 note=57 velocity=80 time=0EXTRACT: note_on channel=1 note=62 velocity=80 time=0EXTRACT: note_on channel=1 note=65 velocity=80 time=0EXTRACT: note_on channel=1 note=38 velocity=80 time=0EXTRACT: note_on channel=1 note=38 velocity=0 time=0.42992428541666666EXTRACT: note_on channel=0 note=77 velocity=0 time=0.022727274999999998EXTRACT: note_on channel=0 note=76 velocity=80 time=0.0018939395833333333EXTRACT: note_on channel=1 note=45 velocity=80 time=0EXTRACT: note_on channel=1 note=57 velocity=0 time=0.19128789791666667EXTRACT: note_on channel=1 note=62 velocity=0 time=0EXTRACT: note_on channel=1 note=65 velocity=0 time=0EXTRACT: note_on channel=1 note=57 velocity=80 time=0.03598485208333333EXTRACT: note_on channel=1 note=62 velocity=80 time=0EXTRACT: note_on channel=1 note=65 velocity=80 time=0EXTRACT: note_on channel=1 note=45 velocity=0 time=0.20265153541666667EXTRACT: note_on channel=0 note=76 velocity=0 time=0.022727274999999998EXTRACT: note_on channel=0 note=74 velocity=80 time=0.0018939395833333333EXTRACT: note_on channel=1 note=50 velocity=80 time=0EXTRACT: note_on channel=0 note=74 velocity=0 time=0.22537881041666666EXTRACT: note_on channel=0 note=74 velocity=80 time=0.0018939395833333333EXTRACT: note_on channel=1 note=57 velocity=0 time=0.19128789791666667EXTRACT: note_on channel=1 note=62 velocity=0 time=0EXTRACT: note_on channel=1 note=65 velocity=0 time=0EXTRACT: note_on channel=1 note=50 velocity=0 time=0.011363637499999999EXTRACT: note_on channel=1 note=58 velocity=80 time=0.024621214583333332EXTRACT: note_on channel=1 note=62 velocity=80 time=0EXTRACT: note_on channel=1 note=65 velocity=80 time=0EXTRACT: note_on channel=1 note=34 velocity=80 time=0EXTRACT: note_on channel=0 note=74 velocity=0 time=0.22537881041666666EXTRACT: note_on channel=0 note=72 velocity=80 time=0.0018939395833333333EXTRACT: note_on channel=1 note=34 velocity=0 time=0.20265153541666667EXTRACT: note_on channel=1 note=41 velocity=80 time=0.024621214583333332EXTRACT: note_on channel=1 note=58 velocity=0 time=0.19128789791666667EXTRACT: note_on channel=1 note=62 velocity=0 time=0EXTRACT: note_on channel=1 note=65 velocity=0 time=0EXTRACT: note_on channel=1 note=58 velocity=80 time=0.03598485208333333EXTRACT: note_on channel=1 note=62 velocity=80 time=0EXTRACT: note_on channel=1 note=65 velocity=80 time=0EXTRACT: note_on channel=1 note=41 velocity=0 time=0.20265153541666667EXTRACT: note_on channel=0 note=72 velocity=0 time=0.022727274999999998EXTRACT: note_on channel=0 note=69 velocity=80 time=0.0018939395833333333EXTRACT: note_on channel=1 note=46 velocity=80 time=0EXTRACT: note_on channel=1 note=58 velocity=0 time=0.41856064791666664EXTRACT: note_on channel=1 note=62 velocity=0 time=0EXTRACT: note_on channel=1 note=65 velocity=0 time=0EXTRACT: note_on channel=1 note=46 velocity=0 time=0.011363637499999999EXTRACT: note_on channel=0 note=69 velocity=0 time=0.022727274999999998EXTRACT: note_on channel=0 note=74 velocity=80 time=0.0018939395833333333EXTRACT: note_on channel=1 note=57 velocity=80 time=0EXTRACT: note_on channel=1 note=60 velocity=80 time=0EXTRACT: note_on channel=1 note=65 velocity=80 time=0EXTRACT: note_on channel=1 note=41 velocity=80 time=0EXTRACT: note_on channel=1 note=41 velocity=0 time=0.42992428541666666EXTRACT: note_on channel=0 note=74 velocity=0 time=0.022727274999999998EXTRACT: note_on channel=0 note=72 velocity=80 time=0.0018939395833333333EXTRACT: note_on channel=1 note=48 velocity=80 time=0EXTRACT: note_on channel=1 note=57 velocity=0 time=0.19128789791666667EXTRACT: note_on channel=1 note=60 velocity=0 time=0EXTRACT: note_on channel=1 note=65 velocity=0 time=0EXTRACT: note_on channel=1 note=57 velocity=80 time=0.03598485208333333EXTRACT: note_on channel=1 note=60 velocity=80 time=0EXTRACT: note_on channel=1 note=65 velocity=80 time=0EXTRACT: note_on channel=1 note=48 velocity=0 time=0.20265153541666667EXTRACT: note_on channel=0 note=72 velocity=0 time=0.022727274999999998EXTRACT: note_on channel=0 note=69 velocity=80 time=0.0018939395833333333EXTRACT: note_on channel=1 note=53 velocity=80 time=0EXTRACT: note_on channel=0 note=69 velocity=0 time=0.22537881041666666EXTRACT: note_on channel=0 note=69 velocity=80 time=0.0018939395833333333EXTRACT: note_on channel=1 note=57 velocity=0 time=0.19128789791666667EXTRACT: note_on channel=1 note=60 velocity=0 time=0EXTRACT: note_on channel=1 note=65 velocity=0 time=0EXTRACT: note_on channel=1 note=53 velocity=0 time=0.011363637499999999EXTRACT: note_on channel=1 note=55 velocity=80 time=0.024621214583333332EXTRACT: note_on channel=1 note=60 velocity=80 time=0EXTRACT: note_on channel=1 note=64 velocity=80 time=0EXTRACT: note_on channel=1 note=36 velocity=80 time=0EXTRACT: note_on channel=0 note=69 velocity=0 time=0.22537881041666666EXTRACT: note_on channel=0 note=67 velocity=80 time=0.0018939395833333333EXTRACT: note_on channel=1 note=36 velocity=0 time=0.20265153541666667EXTRACT: note_on channel=1 note=43 velocity=80 time=0.024621214583333332EXTRACT: note_on channel=1 note=55 velocity=0 time=0.19128789791666667EXTRACT: note_on channel=1 note=60 velocity=0 time=0EXTRACT: note_on channel=1 note=64 velocity=0 time=0EXTRACT: note_on channel=0 note=67 velocity=0 time=0.0340909125EXTRACT: note_on channel=0 note=65 velocity=80 time=0.0018939395833333333EXTRACT: note_on channel=1 note=55 velocity=80 time=0EXTRACT: note_on channel=1 note=60 velocity=80 time=0EXTRACT: note_on channel=1 note=64 velocity=80 time=0EXTRACT: note_on channel=1 note=43 velocity=0 time=0.20265153541666667EXTRACT: note_on channel=0 note=65 velocity=0 time=0.022727274999999998EXTRACT: note_on channel=0 note=65 velocity=80 time=0.0018939395833333333EXTRACT: note_on channel=1 note=48 velocity=80 time=0EXTRACT: note_on channel=1 note=55 velocity=0 time=0.41856064791666664EXTRACT: note_on channel=1 note=60 velocity=0 time=0EXTRACT: note_on channel=1 note=64 velocity=0 time=0EXTRACT: note_on channel=1 note=48 velocity=0 time=0.011363637499999999EXTRACT: note_on channel=0 note=65 velocity=0 time=0.022727274999999998EXTRACT: note_on channel=0 note=65 velocity=80 time=0.0018939395833333333EXTRACT: note_on channel=1 note=57 velocity=80 time=0EXTRACT: note_on channel=1 note=62 velocity=80 time=0EXTRACT: note_on channel=1 note=65 velocity=80 time=0EXTRACT: note_on channel=1 note=38 velocity=80 time=0EXTRACT: note_on channel=0 note=65 velocity=0 time=0.22537881041666666EXTRACT: note_on channel=0 note=67 velocity=80 time=0.0018939395833333333EXTRACT: note_on channel=1 note=38 velocity=0 time=0.20265153541666667EXTRACT: note_on channel=1 note=45 velocity=80 time=0.024621214583333332EXTRACT: note_on channel=1 note=57 velocity=0 time=0.19128789791666667EXTRACT: note_on channel=1 note=62 velocity=0 time=0EXTRACT: note_on channel=1 note=65 velocity=0 time=0EXTRACT: note_on channel=0 note=67 velocity=0 time=0.0340909125EXTRACT: note_on channel=0 note=69 velocity=80 time=0.0018939395833333333EXTRACT: note_on channel=1 note=57 velocity=80 time=0EXTRACT: note_on channel=1 note=62 velocity=80 time=0EXTRACT: note_on channel=1 note=65 velocity=80 time=0EXTRACT: note_on channel=1 note=45 velocity=0 time=0.20265153541666667EXTRACT: note_on channel=1 note=50 velocity=80 time=0.024621214583333332EXTRACT: note_on channel=0 note=69 velocity=0 time=0.22537881041666666EXTRACT: note_on channel=0 note=72 velocity=80 time=0.0018939395833333333EXTRACT: note_on channel=1 note=57 velocity=0 time=0.19128789791666667EXTRACT: note_on channel=1 note=62 velocity=0 time=0EXTRACT: note_on channel=1 note=65 velocity=0 time=0EXTRACT: note_on channel=1 note=50 velocity=0 time=0.011363637499999999EXTRACT: note_on channel=0 note=72 velocity=0 time=0.022727274999999998EXTRACT: note_on channel=0 note=70 velocity=80 time=0.0018939395833333333EXTRACT: note_on channel=1 note=58 velocity=80 time=0EXTRACT: note_on channel=1 note=62 velocity=80 time=0EXTRACT: note_on channel=1 note=65 velocity=80 time=0EXTRACT: note_on channel=1 note=34 velocity=80 time=0EXTRACT: note_on channel=0 note=70 velocity=0 time=0.22537881041666666EXTRACT: note_on channel=0 note=69 velocity=80 time=0.0018939395833333333EXTRACT: note_on channel=1 note=34 velocity=0 time=0.20265153541666667EXTRACT: note_on channel=1 note=41 velocity=80 time=0.024621214583333332EXTRACT: note_on channel=1 note=58 velocity=0 time=0.19128789791666667EXTRACT: note_on channel=1 note=62 velocity=0 time=0EXTRACT: note_on channel=1 note=65 velocity=0 time=0EXTRACT: note_on channel=0 note=69 velocity=0 time=0.0340909125EXTRACT: note_on channel=0 note=69 velocity=80 time=0.0018939395833333333EXTRACT: note_on channel=1 note=58 velocity=80 time=0EXTRACT: note_on channel=1 note=62 velocity=80 time=0EXTRACT: note_on channel=1 note=65 velocity=80 time=0EXTRACT: note_on channel=1 note=41 velocity=0 time=0.20265153541666667EXTRACT: note_on channel=1 note=46 velocity=80 time=0.024621214583333332EXTRACT: note_on channel=1 note=58 velocity=0 time=0.41856064791666664EXTRACT: note_on channel=1 note=62 velocity=0 time=0EXTRACT: note_on channel=1 note=65 velocity=0 time=0EXTRACT: note_on channel=1 note=46 velocity=0 time=0.011363637499999999EXTRACT: note_on channel=0 note=69 velocity=0 time=0.022727274999999998EXTRACT: note_on channel=0 note=69 velocity=80 time=0.0018939395833333333EXTRACT: note_on channel=1 note=57 velocity=80 time=0EXTRACT: note_on channel=1 note=60 velocity=80 time=0EXTRACT: note_on channel=1 note=65 velocity=80 time=0EXTRACT: note_on channel=1 note=41 velocity=80 time=0EXTRACT: note_on channel=1 note=41 velocity=0 time=0.42992428541666666EXTRACT: note_on channel=0 note=69 velocity=0 time=0.022727274999999998EXTRACT: note_on channel=0 note=69 velocity=80 time=0.0018939395833333333EXTRACT: note_on channel=1 note=48 velocity=80 time=0EXTRACT: note_on channel=1 note=57 velocity=0 time=0.19128789791666667EXTRACT: note_on channel=1 note=60 velocity=0 time=0EXTRACT: note_on channel=1 note=65 velocity=0 time=0EXTRACT: note_on channel=1 note=57 velocity=80 time=0.03598485208333333EXTRACT: note_on channel=1 note=60 velocity=80 time=0EXTRACT: note_on channel=1 note=65 velocity=80 time=0EXTRACT: note_on channel=1 note=48 velocity=0 time=0.20265153541666667EXTRACT: note_on channel=0 note=69 velocity=0 time=0.022727274999999998EXTRACT: note_on channel=0 note=65 velocity=80 time=0.0018939395833333333EXTRACT: note_on channel=1 note=53 velocity=80 time=0EXTRACT: note_on channel=0 note=65 velocity=0 time=0.22537881041666666EXTRACT: note_on channel=0 note=67 velocity=80 time=0.0018939395833333333EXTRACT: note_on channel=1 note=57 velocity=0 time=0.19128789791666667EXTRACT: note_on channel=1 note=60 velocity=0 time=0EXTRACT: note_on channel=1 note=65 velocity=0 time=0EXTRACT: note_on channel=1 note=53 velocity=0 time=0.011363637499999999EXTRACT: note_on channel=1 note=55 velocity=80 time=0.024621214583333332EXTRACT: note_on channel=1 note=60 velocity=80 time=0EXTRACT: note_on channel=1 note=64 velocity=80 time=0EXTRACT: note_on channel=1 note=36 velocity=80 time=0EXTRACT: note_on channel=0 note=67 velocity=0 time=0.22537881041666666EXTRACT: note_on channel=0 note=65 velocity=80 time=0.0018939395833333333EXTRACT: note_on channel=1 note=36 velocity=0 time=0.20265153541666667EXTRACT: note_on channel=1 note=43 velocity=80 time=0.024621214583333332EXTRACT: note_on channel=1 note=55 velocity=0 time=0.19128789791666667EXTRACT: note_on channel=1 note=60 velocity=0 time=0EXTRACT: note_on channel=1 note=64 velocity=0 time=0EXTRACT: note_on channel=0 note=65 velocity=0 time=0.0340909125EXTRACT: note_on channel=0 note=65 velocity=80 time=0.0018939395833333333EXTRACT: note_on channel=1 note=55 velocity=80 time=0EXTRACT: note_on channel=1 note=60 velocity=80 time=0EXTRACT: note_on channel=1 note=64 velocity=80 time=0EXTRACT: note_on channel=1 note=43 velocity=0 time=0.20265153541666667EXTRACT: note_on channel=0 note=65 velocity=0 time=0.022727274999999998EXTRACT: note_on channel=0 note=65 velocity=80 time=0.0018939395833333333EXTRACT: note_on channel=1 note=48 velocity=80 time=0EXTRACT: note_on channel=1 note=55 velocity=0 time=0.41856064791666664EXTRACT: note_on channel=1 note=60 velocity=0 time=0EXTRACT: note_on channel=1 note=64 velocity=0 time=0EXTRACT: note_on channel=1 note=48 velocity=0 time=0.011363637499999999EXTRACT: note_on channel=0 note=65 velocity=0 time=0.022727274999999998EXTRACT: note_on channel=0 note=77 velocity=80 time=0.0018939395833333333EXTRACT: note_on channel=1 note=57 velocity=80 time=0EXTRACT: note_on channel=1 note=62 velocity=80 time=0EXTRACT: note_on channel=1 note=65 velocity=80 time=0EXTRACT: note_on channel=1 note=38 velocity=80 time=0EXTRACT: note_on channel=0 note=77 velocity=0 time=0.22537881041666666EXTRACT: note_on channel=0 note=76 velocity=80 time=0.0018939395833333333EXTRACT: note_on channel=1 note=38 velocity=0 time=0.20265153541666667EXTRACT: note_on channel=1 note=45 velocity=80 time=0.024621214583333332EXTRACT: note_on channel=1 note=57 velocity=0 time=0.19128789791666667EXTRACT: note_on channel=1 note=62 velocity=0 time=0EXTRACT: note_on channel=1 note=65 velocity=0 time=0EXTRACT: note_on channel=0 note=76 velocity=0 time=0.0340909125EXTRACT: note_on channel=0 note=74 velocity=80 time=0.0018939395833333333EXTRACT: note_on channel=1 note=57 velocity=80 time=0EXTRACT: note_on channel=1 note=62 velocity=80 time=0EXTRACT: note_on channel=1 note=65 velocity=80 time=0EXTRACT: note_on channel=1 note=45 velocity=0 time=0.20265153541666667EXTRACT: note_on channel=1 note=50 velocity=80 time=0.024621214583333332EXTRACT: note_on channel=1 note=57 velocity=0 time=0.41856064791666664EXTRACT: note_on channel=1 note=62 velocity=0 time=0EXTRACT: note_on channel=1 note=65 velocity=0 time=0EXTRACT: note_on channel=1 note=50 velocity=0 time=0.011363637499999999EXTRACT: note_on channel=0 note=74 velocity=0 time=0.022727274999999998EXTRACT: note_on channel=0 note=74 velocity=80 time=0.0018939395833333333EXTRACT: note_on channel=1 note=58 velocity=80 time=0EXTRACT: note_on channel=1 note=62 velocity=80 time=0EXTRACT: note_on channel=1 note=65 velocity=80 time=0EXTRACT: note_on channel=1 note=34 velocity=80 time=0EXTRACT: note_on channel=0 note=74 velocity=0 time=0.22537881041666666EXTRACT: note_on channel=0 note=72 velocity=80 time=0.0018939395833333333EXTRACT: note_on channel=1 note=34 velocity=0 time=0.20265153541666667EXTRACT: note_on channel=1 note=41 velocity=80 time=0.024621214583333332EXTRACT: note_on channel=1 note=58 velocity=0 time=0.19128789791666667EXTRACT: note_on channel=1 note=62 velocity=0 time=0EXTRACT: note_on channel=1 note=65 velocity=0 time=0EXTRACT: note_on channel=0 note=72 velocity=0 time=0.0340909125EXTRACT: note_on channel=0 note=69 velocity=80 time=0.0018939395833333333EXTRACT: note_on channel=1 note=58 velocity=80 time=0EXTRACT: note_on channel=1 note=62 velocity=80 time=0EXTRACT: note_on channel=1 note=65 velocity=80 time=0EXTRACT: note_on channel=1 note=41 velocity=0 time=0.20265153541666667EXTRACT: note_on channel=0 note=69 velocity=0 time=0.022727274999999998EXTRACT: note_on channel=0 note=69 velocity=80 time=0.0018939395833333333EXTRACT: note_on channel=1 note=46 velocity=80 time=0EXTRACT: note_on channel=1 note=58 velocity=0 time=0.41856064791666664EXTRACT: note_on channel=1 note=62 velocity=0 time=0EXTRACT: note_on channel=1 note=65 velocity=0 time=0EXTRACT: note_on channel=1 note=46 velocity=0 time=0.011363637499999999EXTRACT: note_on channel=0 note=69 velocity=0 time=0.022727274999999998EXTRACT: note_on channel=0 note=74 velocity=80 time=0.0018939395833333333EXTRACT: note_on channel=1 note=57 velocity=80 time=0EXTRACT: note_on channel=1 note=60 velocity=80 time=0EXTRACT: note_on channel=1 note=65 velocity=80 time=0EXTRACT: note_on channel=1 note=41 velocity=80 time=0EXTRACT: note_on channel=1 note=41 velocity=0 time=0.42992428541666666EXTRACT: note_on channel=0 note=74 velocity=0 time=0.022727274999999998EXTRACT: note_on channel=0 note=72 velocity=80 time=0.0018939395833333333EXTRACT: note_on channel=1 note=48 velocity=80 time=0EXTRACT: note_on channel=1 note=57 velocity=0 time=0.19128789791666667EXTRACT: note_on channel=1 note=60 velocity=0 time=0EXTRACT: note_on channel=1 note=65 velocity=0 time=0EXTRACT: note_on channel=1 note=57 velocity=80 time=0.03598485208333333EXTRACT: note_on channel=1 note=60 velocity=80 time=0EXTRACT: note_on channel=1 note=65 velocity=80 time=0EXTRACT: note_on channel=1 note=48 velocity=0 time=0.20265153541666667EXTRACT: note_on channel=0 note=72 velocity=0 time=0.022727274999999998EXTRACT: note_on channel=0 note=69 velocity=80 time=0.0018939395833333333EXTRACT: note_on channel=1 note=53 velocity=80 time=0EXTRACT: note_on channel=0 note=69 velocity=0 time=0.22537881041666666EXTRACT: note_on channel=0 note=69 velocity=80 time=0.0018939395833333333EXTRACT: note_on channel=1 note=57 velocity=0 time=0.19128789791666667EXTRACT: note_on channel=1 note=60 velocity=0 time=0EXTRACT: note_on channel=1 note=65 velocity=0 time=0EXTRACT: note_on channel=1 note=53 velocity=0 time=0.011363637499999999EXTRACT: note_on channel=1 note=55 velocity=80 time=0.024621214583333332EXTRACT: note_on channel=1 note=60 velocity=80 time=0EXTRACT: note_on channel=1 note=64 velocity=80 time=0EXTRACT: note_on channel=1 note=36 velocity=80 time=0EXTRACT: note_on channel=0 note=69 velocity=0 time=0.22537881041666666EXTRACT: note_on channel=0 note=67 velocity=80 time=0.0018939395833333333EXTRACT: note_on channel=1 note=36 velocity=0 time=0.20265153541666667EXTRACT: note_on channel=1 note=43 velocity=80 time=0.024621214583333332EXTRACT: note_on channel=1 note=55 velocity=0 time=0.19128789791666667EXTRACT: note_on channel=1 note=60 velocity=0 time=0EXTRACT: note_on channel=1 note=64 velocity=0 time=0EXTRACT: note_on channel=0 note=67 velocity=0 time=0.0340909125EXTRACT: note_on channel=0 note=65 velocity=80 time=0.0018939395833333333EXTRACT: note_on channel=1 note=55 velocity=80 time=0EXTRACT: note_on channel=1 note=60 velocity=80 time=0EXTRACT: note_on channel=1 note=64 velocity=80 time=0EXTRACT: note_on channel=1 note=43 velocity=0 time=0.20265153541666667EXTRACT: note_on channel=0 note=65 velocity=0 time=0.022727274999999998EXTRACT: note_on channel=0 note=65 velocity=80 time=0.0018939395833333333EXTRACT: note_on channel=1 note=48 velocity=80 time=0EXTRACT: note_on channel=1 note=55 velocity=0 time=0.41856064791666664EXTRACT: note_on channel=1 note=60 velocity=0 time=0EXTRACT: note_on channel=1 note=64 velocity=0 time=0EXTRACT: note_on channel=1 note=48 velocity=0 time=0.011363637499999999EXTRACT: note_on channel=0 note=65 velocity=0 time=0.022727274999999998EXTRACT: note_on channel=0 note=65 velocity=80 time=0.0018939395833333333EXTRACT: note_on channel=1 note=57 velocity=80 time=0EXTRACT: note_on channel=1 note=62 velocity=80 time=0EXTRACT: note_on channel=1 note=65 velocity=80 time=0EXTRACT: note_on channel=1 note=38 velocity=80 time=0EXTRACT: note_on channel=1 note=38 velocity=0 time=0.42992428541666666EXTRACT: note_on channel=0 note=65 velocity=0 time=0.022727274999999998EXTRACT: note_on channel=0 note=67 velocity=80 time=0.0018939395833333333EXTRACT: note_on channel=1 note=45 velocity=80 time=0EXTRACT: note_on channel=1 note=57 velocity=0 time=0.19128789791666667EXTRACT: note_on channel=1 note=62 velocity=0 time=0EXTRACT: note_on channel=1 note=65 velocity=0 time=0EXTRACT: note_on channel=1 note=57 velocity=80 time=0.03598485208333333EXTRACT: note_on channel=1 note=62 velocity=80 time=0EXTRACT: note_on channel=1 note=65 velocity=80 time=0EXTRACT: note_on channel=1 note=45 velocity=0 time=0.20265153541666667EXTRACT: note_on channel=0 note=67 velocity=0 time=0.022727274999999998EXTRACT: note_on channel=0 note=69 velocity=80 time=0.0018939395833333333EXTRACT: note_on channel=1 note=50 velocity=80 time=0EXTRACT: note_on channel=1 note=57 velocity=0 time=0.41856064791666664EXTRACT: note_on channel=1 note=62 velocity=0 time=0EXTRACT: note_on channel=1 note=65 velocity=0 time=0EXTRACT: note_on channel=1 note=50 velocity=0 time=0.011363637499999999EXTRACT: note_on channel=0 note=69 velocity=0 time=0.022727274999999998EXTRACT: note_on channel=0 note=72 velocity=80 time=0.0018939395833333333EXTRACT: note_on channel=1 note=58 velocity=80 time=0EXTRACT: note_on channel=1 note=62 velocity=80 time=0EXTRACT: note_on channel=1 note=65 velocity=80 time=0EXTRACT: note_on channel=1 note=34 velocity=80 time=0EXTRACT: note_on channel=0 note=72 velocity=0 time=0.22537881041666666EXTRACT: note_on channel=0 note=70 velocity=80 time=0.0018939395833333333EXTRACT: note_on channel=1 note=34 velocity=0 time=0.20265153541666667EXTRACT: note_on channel=1 note=41 velocity=80 time=0.024621214583333332EXTRACT: note_on channel=1 note=58 velocity=0 time=0.19128789791666667EXTRACT: note_on channel=1 note=62 velocity=0 time=0EXTRACT: note_on channel=1 note=65 velocity=0 time=0EXTRACT: note_on channel=1 note=58 velocity=80 time=0.03598485208333333EXTRACT: note_on channel=1 note=62 velocity=80 time=0EXTRACT: note_on channel=1 note=65 velocity=80 time=0EXTRACT: note_on channel=1 note=41 velocity=0 time=0.20265153541666667EXTRACT: note_on channel=0 note=70 velocity=0 time=0.022727274999999998EXTRACT: note_on channel=0 note=69 velocity=80 time=0.0018939395833333333EXTRACT: note_on channel=1 note=46 velocity=80 time=0EXTRACT: note_on channel=1 note=58 velocity=0 time=0.41856064791666664EXTRACT: note_on channel=1 note=62 velocity=0 time=0EXTRACT: note_on channel=1 note=65 velocity=0 time=0EXTRACT: note_on channel=1 note=46 velocity=0 time=0.011363637499999999EXTRACT: note_on channel=0 note=69 velocity=0 time=0.022727274999999998EXTRACT: note_on channel=0 note=67 velocity=80 time=0.0018939395833333333EXTRACT: note_on channel=1 note=57 velocity=80 time=0EXTRACT: note_on channel=1 note=60 velocity=80 time=0EXTRACT: note_on channel=1 note=65 velocity=80 time=0EXTRACT: note_on channel=1 note=41 velocity=80 time=0EXTRACT: note_on channel=0 note=67 velocity=0 time=0.22537881041666666EXTRACT: note_on channel=0 note=65 velocity=80 time=0.0018939395833333333EXTRACT: note_on channel=1 note=41 velocity=0 time=0.20265153541666667EXTRACT: note_on channel=1 note=48 velocity=80 time=0.024621214583333332EXTRACT: note_on channel=1 note=57 velocity=0 time=0.19128789791666667EXTRACT: note_on channel=1 note=60 velocity=0 time=0EXTRACT: note_on channel=1 note=65 velocity=0 time=0EXTRACT: note_on channel=1 note=57 velocity=80 time=0.03598485208333333EXTRACT: note_on channel=1 note=60 velocity=80 time=0EXTRACT: note_on channel=1 note=65 velocity=80 time=0EXTRACT: note_on channel=1 note=48 velocity=0 time=0.20265153541666667EXTRACT: note_on channel=1 note=53 velocity=80 time=0.024621214583333332EXTRACT: note_on channel=0 note=65 velocity=0 time=0.22537881041666666EXTRACT: note_on channel=0 note=65 velocity=80 time=0.0018939395833333333EXTRACT: note_on channel=1 note=57 velocity=0 time=0.19128789791666667EXTRACT: note_on channel=1 note=60 velocity=0 time=0EXTRACT: note_on channel=1 note=65 velocity=0 time=0EXTRACT: note_on channel=1 note=53 velocity=0 time=0.011363637499999999EXTRACT: note_on channel=0 note=65 velocity=0 time=0.022727274999999998EXTRACT: note_on channel=0 note=69 velocity=80 time=0.0018939395833333333EXTRACT: note_on channel=1 note=55 velocity=80 time=0EXTRACT: note_on channel=1 note=60 velocity=80 time=0EXTRACT: note_on channel=1 note=64 velocity=80 time=0EXTRACT: note_on channel=1 note=36 velocity=80 time=0EXTRACT: note_on channel=0 note=69 velocity=0 time=0.22537881041666666EXTRACT: note_on channel=0 note=69 velocity=80 time=0.0018939395833333333EXTRACT: note_on channel=1 note=36 velocity=0 time=0.20265153541666667EXTRACT: note_on channel=1 note=43 velocity=80 time=0.024621214583333332EXTRACT: note_on channel=1 note=55 velocity=0 time=0.19128789791666667EXTRACT: note_on channel=1 note=60 velocity=0 time=0EXTRACT: note_on channel=1 note=64 velocity=0 time=0EXTRACT: note_on channel=0 note=69 velocity=0 time=0.0340909125EXTRACT: note_on channel=0 note=69 velocity=80 time=0.0018939395833333333EXTRACT: note_on channel=1 note=55 velocity=80 time=0EXTRACT: note_on channel=1 note=60 velocity=80 time=0EXTRACT: note_on channel=1 note=64 velocity=80 time=0EXTRACT: note_on channel=1 note=43 velocity=0 time=0.20265153541666667EXTRACT: note_on channel=1 note=48 velocity=80 time=0.024621214583333332EXTRACT: note_on channel=1 note=55 velocity=0 time=1.2594698229166668EXTRACT: note_on channel=1 note=60 velocity=0 time=0EXTRACT: note_on channel=1 note=64 velocity=0 time=0EXTRACT: note_on channel=1 note=48 velocity=0 time=0.011363637499999999EXTRACT: note_on channel=0 note=69 velocity=0 time=0.09090909999999999EXTRACT: note_on channel=0 note=65 velocity=80 time=0EXTRACT: note_on channel=1 note=55 velocity=80 time=0EXTRACT: note_on channel=1 note=60 velocity=80 time=0EXTRACT: note_on channel=1 note=64 velocity=80 time=0EXTRACT: note_on channel=1 note=36 velocity=80 time=0EXTRACT: note_on channel=1 note=48 velocity=80 time=0EXTRACT: note_on channel=0 note=65 velocity=0 time=1.8162880604166667EXTRACT: note_on channel=0 note=65 velocity=80 time=0.6837121895833334EXTRACT: note_on channel=1 note=55 velocity=0 time=0.08901516041666667EXTRACT: note_on channel=1 note=60 velocity=0 time=0EXTRACT: note_on channel=1 note=64 velocity=0 time=0EXTRACT: note_on channel=1 note=36 velocity=0 time=0EXTRACT: note_on channel=1 note=48 velocity=0 time=0EXTRACT: note_on channel=0 note=65 velocity=0 time=0.13636365EXTRACT: note_on channel=0 note=77 velocity=80 time=0.0018939395833333333EXTRACT: note_on channel=1 note=57 velocity=80 time=0EXTRACT: note_on channel=1 note=62 velocity=80 time=0EXTRACT: note_on channel=1 note=65 velocity=80 time=0EXTRACT: note_on channel=1 note=38 velocity=80 time=0EXTRACT: note_on channel=1 note=38 velocity=0 time=0.42992428541666666EXTRACT: note_on channel=0 note=77 velocity=0 time=0.022727274999999998EXTRACT: note_on channel=0 note=76 velocity=80 time=0.0018939395833333333EXTRACT: note_on channel=1 note=45 velocity=80 time=0EXTRACT: note_on channel=1 note=57 velocity=0 time=0.19128789791666667EXTRACT: note_on channel=1 note=62 velocity=0 time=0EXTRACT: note_on channel=1 note=65 velocity=0 time=0EXTRACT: note_on channel=1 note=57 velocity=80 time=0.03598485208333333EXTRACT: note_on channel=1 note=62 velocity=80 time=0EXTRACT: note_on channel=1 note=65 velocity=80 time=0EXTRACT: note_on channel=1 note=45 velocity=0 time=0.20265153541666667EXTRACT: note_on channel=0 note=76 velocity=0 time=0.022727274999999998EXTRACT: note_on channel=0 note=74 velocity=80 time=0.0018939395833333333EXTRACT: note_on channel=1 note=50 velocity=80 time=0EXTRACT: note_on channel=0 note=74 velocity=0 time=0.22537881041666666EXTRACT: note_on channel=0 note=74 velocity=80 time=0.0018939395833333333EXTRACT: note_on channel=1 note=57 velocity=0 time=0.19128789791666667EXTRACT: note_on channel=1 note=62 velocity=0 time=0EXTRACT: note_on channel=1 note=65 velocity=0 time=0EXTRACT: note_on channel=1 note=50 velocity=0 time=0.011363637499999999EXTRACT: note_on channel=1 note=58 velocity=80 time=0.024621214583333332EXTRACT: note_on channel=1 note=62 velocity=80 time=0EXTRACT: note_on channel=1 note=65 velocity=80 time=0EXTRACT: note_on channel=1 note=34 velocity=80 time=0EXTRACT: note_on channel=0 note=74 velocity=0 time=0.22537881041666666EXTRACT: note_on channel=0 note=72 velocity=80 time=0.0018939395833333333EXTRACT: note_on channel=1 note=34 velocity=0 time=0.20265153541666667EXTRACT: note_on channel=1 note=41 velocity=80 time=0.024621214583333332EXTRACT: note_on channel=1 note=58 velocity=0 time=0.19128789791666667EXTRACT: note_on channel=1 note=62 velocity=0 time=0EXTRACT: note_on channel=1 note=65 velocity=0 time=0EXTRACT: note_on channel=1 note=58 velocity=80 time=0.03598485208333333EXTRACT: note_on channel=1 note=62 velocity=80 time=0EXTRACT: note_on channel=1 note=65 velocity=80 time=0EXTRACT: note_on channel=1 note=41 velocity=0 time=0.20265153541666667EXTRACT: note_on channel=0 note=72 velocity=0 time=0.022727274999999998EXTRACT: note_on channel=0 note=69 velocity=80 time=0.0018939395833333333EXTRACT: note_on channel=1 note=46 velocity=80 time=0EXTRACT: note_on channel=1 note=58 velocity=0 time=0.41856064791666664EXTRACT: note_on channel=1 note=62 velocity=0 time=0EXTRACT: note_on channel=1 note=65 velocity=0 time=0EXTRACT: note_on channel=1 note=46 velocity=0 time=0.011363637499999999EXTRACT: note_on channel=0 note=69 velocity=0 time=0.022727274999999998EXTRACT: note_on channel=0 note=74 velocity=80 time=0.0018939395833333333EXTRACT: note_on channel=1 note=57 velocity=80 time=0EXTRACT: note_on channel=1 note=60 velocity=80 time=0EXTRACT: note_on channel=1 note=65 velocity=80 time=0EXTRACT: note_on channel=1 note=41 velocity=80 time=0EXTRACT: note_on channel=1 note=41 velocity=0 time=0.42992428541666666EXTRACT: note_on channel=0 note=74 velocity=0 time=0.022727274999999998EXTRACT: note_on channel=0 note=72 velocity=80 time=0.0018939395833333333EXTRACT: note_on channel=1 note=48 velocity=80 time=0EXTRACT: note_on channel=1 note=57 velocity=0 time=0.19128789791666667EXTRACT: note_on channel=1 note=60 velocity=0 time=0EXTRACT: note_on channel=1 note=65 velocity=0 time=0EXTRACT: note_on channel=1 note=57 velocity=80 time=0.03598485208333333EXTRACT: note_on channel=1 note=60 velocity=80 time=0EXTRACT: note_on channel=1 note=65 velocity=80 time=0EXTRACT: note_on channel=1 note=48 velocity=0 time=0.20265153541666667EXTRACT: note_on channel=0 note=72 velocity=0 time=0.022727274999999998EXTRACT: note_on channel=0 note=69 velocity=80 time=0.0018939395833333333EXTRACT: note_on channel=1 note=53 velocity=80 time=0EXTRACT: note_on channel=0 note=69 velocity=0 time=0.22537881041666666EXTRACT: note_on channel=0 note=69 velocity=80 time=0.0018939395833333333EXTRACT: note_on channel=1 note=57 velocity=0 time=0.19128789791666667EXTRACT: note_on channel=1 note=60 velocity=0 time=0EXTRACT: note_on channel=1 note=65 velocity=0 time=0EXTRACT: note_on channel=1 note=53 velocity=0 time=0.011363637499999999EXTRACT: note_on channel=1 note=55 velocity=80 time=0.024621214583333332EXTRACT: note_on channel=1 note=60 velocity=80 time=0EXTRACT: note_on channel=1 note=64 velocity=80 time=0EXTRACT: note_on channel=1 note=36 velocity=80 time=0EXTRACT: note_on channel=0 note=69 velocity=0 time=0.22537881041666666EXTRACT: note_on channel=0 note=67 velocity=80 time=0.0018939395833333333EXTRACT: note_on channel=1 note=36 velocity=0 time=0.20265153541666667EXTRACT: note_on channel=1 note=43 velocity=80 time=0.024621214583333332EXTRACT: note_on channel=1 note=55 velocity=0 time=0.19128789791666667EXTRACT: note_on channel=1 note=60 velocity=0 time=0EXTRACT: note_on channel=1 note=64 velocity=0 time=0EXTRACT: note_on channel=0 note=67 velocity=0 time=0.0340909125EXTRACT: note_on channel=0 note=65 velocity=80 time=0.0018939395833333333EXTRACT: note_on channel=1 note=55 velocity=80 time=0EXTRACT: note_on channel=1 note=60 velocity=80 time=0EXTRACT: note_on channel=1 note=64 velocity=80 time=0EXTRACT: note_on channel=1 note=43 velocity=0 time=0.20265153541666667EXTRACT: note_on channel=0 note=65 velocity=0 time=0.022727274999999998EXTRACT: note_on channel=0 note=65 velocity=80 time=0.0018939395833333333EXTRACT: note_on channel=1 note=48 velocity=80 time=0EXTRACT: note_on channel=1 note=55 velocity=0 time=0.41856064791666664EXTRACT: note_on channel=1 note=60 velocity=0 time=0EXTRACT: note_on channel=1 note=64 velocity=0 time=0EXTRACT: note_on channel=1 note=48 velocity=0 time=0.011363637499999999EXTRACT: note_on channel=0 note=65 velocity=0 time=0.022727274999999998EXTRACT: note_on channel=0 note=65 velocity=80 time=0.0018939395833333333EXTRACT: note_on channel=1 note=57 velocity=80 time=0EXTRACT: note_on channel=1 note=62 velocity=80 time=0EXTRACT: note_on channel=1 note=65 velocity=80 time=0EXTRACT: note_on channel=1 note=38 velocity=80 time=0EXTRACT: note_on channel=0 note=65 velocity=0 time=0.22537881041666666EXTRACT: note_on channel=0 note=67 velocity=80 time=0.0018939395833333333EXTRACT: note_on channel=1 note=38 velocity=0 time=0.20265153541666667EXTRACT: note_on channel=1 note=45 velocity=80 time=0.024621214583333332EXTRACT: note_on channel=1 note=57 velocity=0 time=0.19128789791666667EXTRACT: note_on channel=1 note=62 velocity=0 time=0EXTRACT: note_on channel=1 note=65 velocity=0 time=0EXTRACT: note_on channel=0 note=67 velocity=0 time=0.0340909125EXTRACT: note_on channel=0 note=69 velocity=80 time=0.0018939395833333333EXTRACT: note_on channel=1 note=57 velocity=80 time=0EXTRACT: note_on channel=1 note=62 velocity=80 time=0EXTRACT: note_on channel=1 note=65 velocity=80 time=0EXTRACT: note_on channel=1 note=45 velocity=0 time=0.20265153541666667EXTRACT: note_on channel=1 note=50 velocity=80 time=0.024621214583333332EXTRACT: note_on channel=0 note=69 velocity=0 time=0.22537881041666666EXTRACT: note_on channel=0 note=72 velocity=80 time=0.0018939395833333333EXTRACT: note_on channel=1 note=57 velocity=0 time=0.19128789791666667EXTRACT: note_on channel=1 note=62 velocity=0 time=0EXTRACT: note_on channel=1 note=65 velocity=0 time=0EXTRACT: note_on channel=1 note=50 velocity=0 time=0.011363637499999999EXTRACT: note_on channel=0 note=72 velocity=0 time=0.022727274999999998EXTRACT: note_on channel=0 note=70 velocity=80 time=0.0018939395833333333EXTRACT: note_on channel=1 note=58 velocity=80 time=0EXTRACT: note_on channel=1 note=62 velocity=80 time=0EXTRACT: note_on channel=1 note=65 velocity=80 time=0EXTRACT: note_on channel=1 note=34 velocity=80 time=0EXTRACT: note_on channel=0 note=70 velocity=0 time=0.22537881041666666EXTRACT: note_on channel=0 note=69 velocity=80 time=0.0018939395833333333EXTRACT: note_on channel=1 note=34 velocity=0 time=0.20265153541666667EXTRACT: note_on channel=1 note=41 velocity=80 time=0.024621214583333332EXTRACT: note_on channel=1 note=58 velocity=0 time=0.19128789791666667EXTRACT: note_on channel=1 note=62 velocity=0 time=0EXTRACT: note_on channel=1 note=65 velocity=0 time=0EXTRACT: note_on channel=0 note=69 velocity=0 time=0.0340909125EXTRACT: note_on channel=0 note=69 velocity=80 time=0.0018939395833333333EXTRACT: note_on channel=1 note=58 velocity=80 time=0EXTRACT: note_on channel=1 note=62 velocity=80 time=0EXTRACT: note_on channel=1 note=65 velocity=80 time=0EXTRACT: note_on channel=1 note=41 velocity=0 time=0.20265153541666667EXTRACT: note_on channel=1 note=46 velocity=80 time=0.024621214583333332EXTRACT: note_on channel=1 note=58 velocity=0 time=0.41856064791666664EXTRACT: note_on channel=1 note=62 velocity=0 time=0EXTRACT: note_on channel=1 note=65 velocity=0 time=0EXTRACT: note_on channel=1 note=46 velocity=0 time=0.011363637499999999EXTRACT: note_on channel=0 note=69 velocity=0 time=0.022727274999999998EXTRACT: note_on channel=0 note=69 velocity=80 time=0.0018939395833333333EXTRACT: note_on channel=1 note=57 velocity=80 time=0EXTRACT: note_on channel=1 note=60 velocity=80 time=0EXTRACT: note_on channel=1 note=65 velocity=80 time=0EXTRACT: note_on channel=1 note=41 velocity=80 time=0EXTRACT: note_on channel=1 note=41 velocity=0 time=0.42992428541666666EXTRACT: note_on channel=0 note=69 velocity=0 time=0.022727274999999998EXTRACT: note_on channel=0 note=69 velocity=80 time=0.0018939395833333333EXTRACT: note_on channel=1 note=48 velocity=80 time=0EXTRACT: note_on channel=1 note=57 velocity=0 time=0.19128789791666667EXTRACT: note_on channel=1 note=60 velocity=0 time=0EXTRACT: note_on channel=1 note=65 velocity=0 time=0EXTRACT: note_on channel=1 note=57 velocity=80 time=0.03598485208333333EXTRACT: note_on channel=1 note=60 velocity=80 time=0EXTRACT: note_on channel=1 note=65 velocity=80 time=0EXTRACT: note_on channel=1 note=48 velocity=0 time=0.20265153541666667EXTRACT: note_on channel=0 note=69 velocity=0 time=0.022727274999999998EXTRACT: note_on channel=0 note=65 velocity=80 time=0.0018939395833333333EXTRACT: note_on channel=1 note=53 velocity=80 time=0EXTRACT: note_on channel=0 note=65 velocity=0 time=0.22537881041666666EXTRACT: note_on channel=0 note=67 velocity=80 time=0.0018939395833333333EXTRACT: note_on channel=1 note=57 velocity=0 time=0.19128789791666667EXTRACT: note_on channel=1 note=60 velocity=0 time=0EXTRACT: note_on channel=1 note=65 velocity=0 time=0EXTRACT: note_on channel=1 note=53 velocity=0 time=0.011363637499999999EXTRACT: note_on channel=1 note=55 velocity=80 time=0.024621214583333332EXTRACT: note_on channel=1 note=60 velocity=80 time=0EXTRACT: note_on channel=1 note=64 velocity=80 time=0EXTRACT: note_on channel=1 note=36 velocity=80 time=0EXTRACT: note_on channel=0 note=67 velocity=0 time=0.22537881041666666EXTRACT: note_on channel=0 note=65 velocity=80 time=0.0018939395833333333EXTRACT: note_on channel=1 note=36 velocity=0 time=0.20265153541666667EXTRACT: note_on channel=1 note=43 velocity=80 time=0.024621214583333332EXTRACT: note_on channel=1 note=55 velocity=0 time=0.19128789791666667EXTRACT: note_on channel=1 note=60 velocity=0 time=0EXTRACT: note_on channel=1 note=64 velocity=0 time=0EXTRACT: note_on channel=0 note=65 velocity=0 time=0.0340909125EXTRACT: note_on channel=0 note=65 velocity=80 time=0.0018939395833333333EXTRACT: note_on channel=1 note=55 velocity=80 time=0EXTRACT: note_on channel=1 note=60 velocity=80 time=0EXTRACT: note_on channel=1 note=64 velocity=80 time=0EXTRACT: note_on channel=1 note=43 velocity=0 time=0.20265153541666667EXTRACT: note_on channel=0 note=65 velocity=0 time=0.022727274999999998EXTRACT: note_on channel=0 note=65 velocity=80 time=0.0018939395833333333EXTRACT: note_on channel=1 note=48 velocity=80 time=0EXTRACT: note_on channel=1 note=55 velocity=0 time=0.41856064791666664EXTRACT: note_on channel=1 note=60 velocity=0 time=0EXTRACT: note_on channel=1 note=64 velocity=0 time=0EXTRACT: note_on channel=1 note=48 velocity=0 time=0.011363637499999999EXTRACT: note_on channel=0 note=65 velocity=0 time=0.022727274999999998EXTRACT: note_on channel=0 note=77 velocity=80 time=0.0018939395833333333EXTRACT: note_on channel=1 note=57 velocity=80 time=0EXTRACT: note_on channel=1 note=62 velocity=80 time=0EXTRACT: note_on channel=1 note=65 velocity=80 time=0EXTRACT: note_on channel=1 note=38 velocity=80 time=0EXTRACT: note_on channel=0 note=77 velocity=0 time=0.22537881041666666EXTRACT: note_on channel=0 note=76 velocity=80 time=0.0018939395833333333EXTRACT: note_on channel=1 note=38 velocity=0 time=0.20265153541666667EXTRACT: note_on channel=1 note=45 velocity=80 time=0.024621214583333332EXTRACT: note_on channel=1 note=57 velocity=0 time=0.19128789791666667EXTRACT: note_on channel=1 note=62 velocity=0 time=0EXTRACT: note_on channel=1 note=65 velocity=0 time=0EXTRACT: note_on channel=0 note=76 velocity=0 time=0.0340909125EXTRACT: note_on channel=0 note=74 velocity=80 time=0.0018939395833333333EXTRACT: note_on channel=1 note=57 velocity=80 time=0EXTRACT: note_on channel=1 note=62 velocity=80 time=0EXTRACT: note_on channel=1 note=65 velocity=80 time=0EXTRACT: note_on channel=1 note=45 velocity=0 time=0.20265153541666667EXTRACT: note_on channel=1 note=50 velocity=80 time=0.024621214583333332EXTRACT: note_on channel=1 note=57 velocity=0 time=0.41856064791666664EXTRACT: note_on channel=1 note=62 velocity=0 time=0EXTRACT: note_on channel=1 note=65 velocity=0 time=0EXTRACT: note_on channel=1 note=50 velocity=0 time=0.011363637499999999EXTRACT: note_on channel=0 note=74 velocity=0 time=0.022727274999999998EXTRACT: note_on channel=0 note=74 velocity=80 time=0.0018939395833333333EXTRACT: note_on channel=1 note=58 velocity=80 time=0EXTRACT: note_on channel=1 note=62 velocity=80 time=0EXTRACT: note_on channel=1 note=65 velocity=80 time=0EXTRACT: note_on channel=1 note=34 velocity=80 time=0EXTRACT: note_on channel=0 note=74 velocity=0 time=0.22537881041666666EXTRACT: note_on channel=0 note=72 velocity=80 time=0.0018939395833333333EXTRACT: note_on channel=1 note=34 velocity=0 time=0.20265153541666667EXTRACT: note_on channel=1 note=41 velocity=80 time=0.024621214583333332EXTRACT: note_on channel=1 note=58 velocity=0 time=0.19128789791666667EXTRACT: note_on channel=1 note=62 velocity=0 time=0EXTRACT: note_on channel=1 note=65 velocity=0 time=0EXTRACT: note_on channel=0 note=72 velocity=0 time=0.0340909125EXTRACT: note_on channel=0 note=69 velocity=80 time=0.0018939395833333333EXTRACT: note_on channel=1 note=58 velocity=80 time=0EXTRACT: note_on channel=1 note=62 velocity=80 time=0EXTRACT: note_on channel=1 note=65 velocity=80 time=0EXTRACT: note_on channel=1 note=41 velocity=0 time=0.20265153541666667EXTRACT: note_on channel=0 note=69 velocity=0 time=0.022727274999999998EXTRACT: note_on channel=0 note=69 velocity=80 time=0.0018939395833333333EXTRACT: note_on channel=1 note=46 velocity=80 time=0EXTRACT: note_on channel=1 note=58 velocity=0 time=0.41856064791666664EXTRACT: note_on channel=1 note=62 velocity=0 time=0EXTRACT: note_on channel=1 note=65 velocity=0 time=0EXTRACT: note_on channel=1 note=46 velocity=0 time=0.011363637499999999EXTRACT: note_on channel=0 note=69 velocity=0 time=0.022727274999999998EXTRACT: note_on channel=0 note=74 velocity=80 time=0.0018939395833333333EXTRACT: note_on channel=1 note=57 velocity=80 time=0EXTRACT: note_on channel=1 note=60 velocity=80 time=0EXTRACT: note_on channel=1 note=65 velocity=80 time=0EXTRACT: note_on channel=1 note=41 velocity=80 time=0EXTRACT: note_on channel=1 note=41 velocity=0 time=0.42992428541666666EXTRACT: note_on channel=0 note=74 velocity=0 time=0.022727274999999998EXTRACT: note_on channel=0 note=72 velocity=80 time=0.0018939395833333333EXTRACT: note_on channel=1 note=48 velocity=80 time=0EXTRACT: note_on channel=1 note=57 velocity=0 time=0.19128789791666667EXTRACT: note_on channel=1 note=60 velocity=0 time=0EXTRACT: note_on channel=1 note=65 velocity=0 time=0EXTRACT: note_on channel=1 note=57 velocity=80 time=0.03598485208333333EXTRACT: note_on channel=1 note=60 velocity=80 time=0EXTRACT: note_on channel=1 note=65 velocity=80 time=0EXTRACT: note_on channel=1 note=48 velocity=0 time=0.20265153541666667EXTRACT: note_on channel=0 note=72 velocity=0 time=0.022727274999999998EXTRACT: note_on channel=0 note=69 velocity=80 time=0.0018939395833333333EXTRACT: note_on channel=1 note=53 velocity=80 time=0EXTRACT: note_on channel=0 note=69 velocity=0 time=0.22537881041666666EXTRACT: note_on channel=0 note=69 velocity=80 time=0.0018939395833333333EXTRACT: note_on channel=1 note=57 velocity=0 time=0.19128789791666667EXTRACT: note_on channel=1 note=60 velocity=0 time=0EXTRACT: note_on channel=1 note=65 velocity=0 time=0EXTRACT: note_on channel=1 note=53 velocity=0 time=0.011363637499999999EXTRACT: note_on channel=1 note=55 velocity=80 time=0.024621214583333332EXTRACT: note_on channel=1 note=60 velocity=80 time=0EXTRACT: note_on channel=1 note=64 velocity=80 time=0EXTRACT: note_on channel=1 note=36 velocity=80 time=0EXTRACT: note_on channel=0 note=69 velocity=0 time=0.22537881041666666EXTRACT: note_on channel=0 note=67 velocity=80 time=0.0018939395833333333EXTRACT: note_on channel=1 note=36 velocity=0 time=0.20265153541666667EXTRACT: note_on channel=1 note=43 velocity=80 time=0.024621214583333332EXTRACT: note_on channel=1 note=55 velocity=0 time=0.19128789791666667EXTRACT: note_on channel=1 note=60 velocity=0 time=0EXTRACT: note_on channel=1 note=64 velocity=0 time=0EXTRACT: note_on channel=0 note=67 velocity=0 time=0.0340909125EXTRACT: note_on channel=0 note=65 velocity=80 time=0.0018939395833333333EXTRACT: note_on channel=1 note=55 velocity=80 time=0EXTRACT: note_on channel=1 note=60 velocity=80 time=0EXTRACT: note_on channel=1 note=64 velocity=80 time=0EXTRACT: note_on channel=1 note=43 velocity=0 time=0.20265153541666667EXTRACT: note_on channel=0 note=65 velocity=0 time=0.022727274999999998EXTRACT: note_on channel=0 note=65 velocity=80 time=0.0018939395833333333EXTRACT: note_on channel=1 note=48 velocity=80 time=0EXTRACT: note_on channel=1 note=55 velocity=0 time=0.41856064791666664EXTRACT: note_on channel=1 note=60 velocity=0 time=0EXTRACT: note_on channel=1 note=64 velocity=0 time=0EXTRACT: note_on channel=1 note=48 velocity=0 time=0.011363637499999999EXTRACT: note_on channel=0 note=65 velocity=0 time=0.022727274999999998EXTRACT: note_on channel=0 note=65 velocity=80 time=0.0018939395833333333EXTRACT: note_on channel=1 note=57 velocity=80 time=0EXTRACT: note_on channel=1 note=62 velocity=80 time=0EXTRACT: note_on channel=1 note=65 velocity=80 time=0EXTRACT: note_on channel=1 note=38 velocity=80 time=0EXTRACT: note_on channel=1 note=38 velocity=0 time=0.42992428541666666EXTRACT: note_on channel=0 note=65 velocity=0 time=0.022727274999999998EXTRACT: note_on channel=0 note=67 velocity=80 time=0.0018939395833333333EXTRACT: note_on channel=1 note=45 velocity=80 time=0EXTRACT: note_on channel=1 note=57 velocity=0 time=0.19128789791666667EXTRACT: note_on channel=1 note=62 velocity=0 time=0EXTRACT: note_on channel=1 note=65 velocity=0 time=0EXTRACT: note_on channel=1 note=57 velocity=80 time=0.03598485208333333EXTRACT: note_on channel=1 note=62 velocity=80 time=0EXTRACT: note_on channel=1 note=65 velocity=80 time=0EXTRACT: note_on channel=1 note=45 velocity=0 time=0.20265153541666667EXTRACT: note_on channel=0 note=67 velocity=0 time=0.022727274999999998EXTRACT: note_on channel=0 note=69 velocity=80 time=0.0018939395833333333EXTRACT: note_on channel=1 note=50 velocity=80 time=0EXTRACT: note_on channel=1 note=57 velocity=0 time=0.41856064791666664EXTRACT: note_on channel=1 note=62 velocity=0 time=0EXTRACT: note_on channel=1 note=65 velocity=0 time=0EXTRACT: note_on channel=1 note=50 velocity=0 time=0.011363637499999999EXTRACT: note_on channel=0 note=69 velocity=0 time=0.022727274999999998EXTRACT: note_on channel=0 note=72 velocity=80 time=0.0018939395833333333EXTRACT: note_on channel=1 note=58 velocity=80 time=0EXTRACT: note_on channel=1 note=62 velocity=80 time=0EXTRACT: note_on channel=1 note=65 velocity=80 time=0EXTRACT: note_on channel=1 note=34 velocity=80 time=0EXTRACT: note_on channel=0 note=72 velocity=0 time=0.22537881041666666EXTRACT: note_on channel=0 note=70 velocity=80 time=0.0018939395833333333EXTRACT: note_on channel=1 note=34 velocity=0 time=0.20265153541666667EXTRACT: note_on channel=1 note=41 velocity=80 time=0.024621214583333332EXTRACT: note_on channel=1 note=58 velocity=0 time=0.19128789791666667EXTRACT: note_on channel=1 note=62 velocity=0 time=0EXTRACT: note_on channel=1 note=65 velocity=0 time=0EXTRACT: note_on channel=1 note=58 velocity=80 time=0.03598485208333333EXTRACT: note_on channel=1 note=62 velocity=80 time=0EXTRACT: note_on channel=1 note=65 velocity=80 time=0EXTRACT: note_on channel=1 note=41 velocity=0 time=0.20265153541666667EXTRACT: note_on channel=0 note=70 velocity=0 time=0.022727274999999998EXTRACT: note_on channel=0 note=69 velocity=80 time=0.0018939395833333333EXTRACT: note_on channel=1 note=46 velocity=80 time=0EXTRACT: note_on channel=1 note=58 velocity=0 time=0.41856064791666664EXTRACT: note_on channel=1 note=62 velocity=0 time=0EXTRACT: note_on channel=1 note=65 velocity=0 time=0EXTRACT: note_on channel=1 note=46 velocity=0 time=0.011363637499999999EXTRACT: note_on channel=0 note=69 velocity=0 time=0.022727274999999998EXTRACT: note_on channel=0 note=67 velocity=80 time=0.0018939395833333333EXTRACT: note_on channel=1 note=57 velocity=80 time=0EXTRACT: note_on channel=1 note=60 velocity=80 time=0EXTRACT: note_on channel=1 note=65 velocity=80 time=0EXTRACT: note_on channel=1 note=41 velocity=80 time=0EXTRACT: note_on channel=0 note=67 velocity=0 time=0.22537881041666666EXTRACT: note_on channel=0 note=65 velocity=80 time=0.0018939395833333333EXTRACT: note_on channel=1 note=41 velocity=0 time=0.20265153541666667EXTRACT: note_on channel=1 note=48 velocity=80 time=0.024621214583333332EXTRACT: note_on channel=1 note=57 velocity=0 time=0.19128789791666667EXTRACT: note_on channel=1 note=60 velocity=0 time=0EXTRACT: note_on channel=1 note=65 velocity=0 time=0EXTRACT: note_on channel=1 note=57 velocity=80 time=0.03598485208333333EXTRACT: note_on channel=1 note=60 velocity=80 time=0EXTRACT: note_on channel=1 note=65 velocity=80 time=0EXTRACT: note_on channel=1 note=48 velocity=0 time=0.20265153541666667EXTRACT: note_on channel=1 note=53 velocity=80 time=0.024621214583333332EXTRACT: note_on channel=0 note=65 velocity=0 time=0.22537881041666666EXTRACT: note_on channel=0 note=65 velocity=80 time=0.0018939395833333333EXTRACT: note_on channel=1 note=57 velocity=0 time=0.19128789791666667EXTRACT: note_on channel=1 note=60 velocity=0 time=0EXTRACT: note_on channel=1 note=65 velocity=0 time=0EXTRACT: note_on channel=1 note=53 velocity=0 time=0.011363637499999999EXTRACT: note_on channel=0 note=65 velocity=0 time=0.022727274999999998EXTRACT: note_on channel=0 note=69 velocity=80 time=0.0018939395833333333EXTRACT: note_on channel=1 note=55 velocity=80 time=0EXTRACT: note_on channel=1 note=60 velocity=80 time=0EXTRACT: note_on channel=1 note=64 velocity=80 time=0EXTRACT: note_on channel=1 note=36 velocity=80 time=0EXTRACT: note_on channel=0 note=69 velocity=0 time=0.22537881041666666EXTRACT: note_on channel=0 note=69 velocity=80 time=0.0018939395833333333EXTRACT: note_on channel=1 note=36 velocity=0 time=0.20265153541666667EXTRACT: note_on channel=1 note=43 velocity=80 time=0.024621214583333332EXTRACT: note_on channel=1 note=55 velocity=0 time=0.19128789791666667EXTRACT: note_on channel=1 note=60 velocity=0 time=0EXTRACT: note_on channel=1 note=64 velocity=0 time=0EXTRACT: note_on channel=0 note=69 velocity=0 time=0.0340909125EXTRACT: note_on channel=0 note=69 velocity=80 time=0.0018939395833333333EXTRACT: note_on channel=1 note=55 velocity=80 time=0EXTRACT: note_on channel=1 note=60 velocity=80 time=0EXTRACT: note_on channel=1 note=64 velocity=80 time=0EXTRACT: note_on channel=1 note=43 velocity=0 time=0.20265153541666667EXTRACT: note_on channel=1 note=48 velocity=80 time=0.024621214583333332EXTRACT: note_on channel=1 note=55 velocity=0 time=0.41856064791666664EXTRACT: note_on channel=1 note=60 velocity=0 time=0EXTRACT: note_on channel=1 note=64 velocity=0 time=0EXTRACT: note_on channel=1 note=48 velocity=0 time=0.011363637499999999EXTRACT: note_on channel=0 note=69 velocity=0 time=0.022727274999999998EXTRACT: note_on channel=0 note=67 velocity=80 time=0.0018939395833333333EXTRACT: note_on channel=1 note=65 velocity=80 time=0EXTRACT: note_on channel=1 note=70 velocity=80 time=0EXTRACT: note_on channel=1 note=74 velocity=80 time=0EXTRACT: note_on channel=1 note=46 velocity=80 time=0EXTRACT: note_on channel=1 note=46 velocity=0 time=0.42992428541666666EXTRACT: note_on channel=1 note=53 velocity=80 time=0.024621214583333332EXTRACT: note_on channel=1 note=65 velocity=0 time=0.19128789791666667EXTRACT: note_on channel=1 note=70 velocity=0 time=0EXTRACT: note_on channel=1 note=74 velocity=0 time=0EXTRACT: note_on channel=0 note=67 velocity=0 time=0.0340909125EXTRACT: note_on channel=0 note=65 velocity=80 time=0.0018939395833333333EXTRACT: note_on channel=1 note=65 velocity=80 time=0EXTRACT: note_on channel=1 note=70 velocity=80 time=0EXTRACT: note_on channel=1 note=74 velocity=80 time=0EXTRACT: note_on channel=1 note=53 velocity=0 time=0.20265153541666667EXTRACT: note_on channel=1 note=58 velocity=80 time=0.024621214583333332EXTRACT: note_on channel=1 note=65 velocity=0 time=0.20265153541666667EXTRACT: note_on channel=1 note=70 velocity=0 time=0EXTRACT: note_on channel=1 note=74 velocity=0 time=0EXTRACT: note_on channel=1 note=72 velocity=80 time=0.024621214583333332EXTRACT: note_on channel=1 note=58 velocity=0 time=0.20265153541666667EXTRACT: note_on channel=1 note=72 velocity=0 time=0.011363637499999999EXTRACT: note_on channel=0 note=65 velocity=0 time=0.011363637499999999EXTRACT: note_on channel=1 note=60 velocity=80 time=0.0018939395833333333EXTRACT: note_on channel=1 note=65 velocity=80 time=0EXTRACT: note_on channel=1 note=69 velocity=80 time=0EXTRACT: note_on channel=1 note=41 velocity=80 time=0EXTRACT: note_on channel=1 note=41 velocity=0 time=0.42992428541666666EXTRACT: note_on channel=1 note=48 velocity=80 time=0.024621214583333332EXTRACT: note_on channel=1 note=60 velocity=0 time=0.40719701041666667EXTRACT: note_on channel=1 note=65 velocity=0 time=0EXTRACT: note_on channel=1 note=69 velocity=0 time=0EXTRACT: note_on channel=1 note=48 velocity=0 time=0.022727274999999998EXTRACT: note_on channel=1 note=65 velocity=80 time=0.024621214583333332EXTRACT: note_on channel=1 note=53 velocity=80 time=0EXTRACT: note_on channel=1 note=65 velocity=0 time=0.14204546875EXTRACT: note_on channel=1 note=67 velocity=80 time=0.009469697916666667EXTRACT: note_on channel=1 note=67 velocity=0 time=0.14204546875EXTRACT: note_on channel=1 note=69 velocity=80 time=0.009469697916666667EXTRACT: note_on channel=1 note=53 velocity=0 time=0.12689395208333334EXTRACT: note_on channel=1 note=69 velocity=0 time=0.015151516666666667EXTRACT: note_on channel=1 note=60 velocity=80 time=0.009469697916666667EXTRACT: note_on channel=1 note=64 velocity=80 time=0EXTRACT: note_on channel=1 note=67 velocity=80 time=0EXTRACT: note_on channel=1 note=48 velocity=80 time=0EXTRACT: note_on channel=1 note=48 velocity=0 time=0.42992428541666666EXTRACT: note_on channel=1 note=55 velocity=80 time=0.024621214583333332EXTRACT: note_on channel=1 note=60 velocity=0 time=0.19128789791666667EXTRACT: note_on channel=1 note=64 velocity=0 time=0EXTRACT: note_on channel=1 note=67 velocity=0 time=0EXTRACT: note_on channel=1 note=67 velocity=80 time=0.03598485208333333EXTRACT: note_on channel=1 note=72 velocity=80 time=0EXTRACT: note_on channel=1 note=55 velocity=0 time=0.20265153541666667EXTRACT: note_on channel=1 note=60 velocity=80 time=0.024621214583333332EXTRACT: note_on channel=1 note=67 velocity=0 time=0.20265153541666667EXTRACT: note_on channel=1 note=72 velocity=0 time=0EXTRACT: note_on channel=1 note=67 velocity=80 time=0.024621214583333332EXTRACT: note_on channel=1 note=60 velocity=0 time=0.20265153541666667EXTRACT: note_on channel=1 note=67 velocity=0 time=0.011363637499999999EXTRACT: note_on channel=0 note=77 velocity=80 time=0.013257577083333333EXTRACT: note_on channel=1 note=65 velocity=80 time=0EXTRACT: note_on channel=1 note=69 velocity=80 time=0EXTRACT: note_on channel=1 note=50 velocity=80 time=0EXTRACT: note_on channel=1 note=50 velocity=0 time=0.42992428541666666EXTRACT: note_on channel=0 note=77 velocity=0 time=0.022727274999999998EXTRACT: note_on channel=0 note=76 velocity=80 time=0.0018939395833333333EXTRACT: note_on channel=1 note=57 velocity=80 time=0EXTRACT: note_on channel=1 note=65 velocity=0 time=0.19128789791666667EXTRACT: note_on channel=1 note=69 velocity=0 time=0EXTRACT: note_on channel=1 note=65 velocity=80 time=0.03598485208333333EXTRACT: note_on channel=1 note=69 velocity=80 time=0EXTRACT: note_on channel=1 note=57 velocity=0 time=0.20265153541666667EXTRACT: note_on channel=1 note=65 velocity=0 time=0.011363637499999999EXTRACT: note_on channel=1 note=69 velocity=0 time=0EXTRACT: note_on channel=0 note=76 velocity=0 time=0.011363637499999999EXTRACT: note_on channel=0 note=74 velocity=80 time=0.0018939395833333333EXTRACT: note_on channel=1 note=69 velocity=80 time=0EXTRACT: note_on channel=1 note=62 velocity=80 time=0EXTRACT: note_on channel=1 note=69 velocity=0 time=0.21401517291666666EXTRACT: note_on channel=1 note=72 velocity=80 time=0.013257577083333333EXTRACT: note_on channel=1 note=62 velocity=0 time=0.20265153541666667EXTRACT: note_on channel=1 note=72 velocity=0 time=0.011363637499999999EXTRACT: note_on channel=0 note=74 velocity=0 time=0.011363637499999999EXTRACT: note_on channel=0 note=74 velocity=80 time=0.0018939395833333333EXTRACT: note_on channel=1 note=65 velocity=80 time=0EXTRACT: note_on channel=1 note=70 velocity=80 time=0EXTRACT: note_on channel=1 note=74 velocity=80 time=0EXTRACT: note_on channel=1 note=46 velocity=80 time=0EXTRACT: note_on channel=0 note=74 velocity=0 time=0.22537881041666666EXTRACT: note_on channel=0 note=72 velocity=80 time=0.0018939395833333333EXTRACT: note_on channel=1 note=46 velocity=0 time=0.20265153541666667EXTRACT: note_on channel=1 note=53 velocity=80 time=0.024621214583333332EXTRACT: note_on channel=1 note=65 velocity=0 time=0.19128789791666667EXTRACT: note_on channel=1 note=70 velocity=0 time=0EXTRACT: note_on channel=1 note=74 velocity=0 time=0EXTRACT: note_on channel=1 note=65 velocity=80 time=0.03598485208333333EXTRACT: note_on channel=1 note=70 velocity=80 time=0EXTRACT: note_on channel=1 note=74 velocity=80 time=0EXTRACT: note_on channel=1 note=53 velocity=0 time=0.20265153541666667EXTRACT: note_on channel=0 note=72 velocity=0 time=0.022727274999999998EXTRACT: note_on channel=1 note=58 velocity=80 time=0.0018939395833333333EXTRACT: note_on channel=1 note=65 velocity=0 time=0.20265153541666667EXTRACT: note_on channel=1 note=70 velocity=0 time=0EXTRACT: note_on channel=1 note=74 velocity=0 time=0EXTRACT: note_on channel=1 note=72 velocity=80 time=0.024621214583333332EXTRACT: note_on channel=1 note=58 velocity=0 time=0.20265153541666667EXTRACT: note_on channel=1 note=72 velocity=0 time=0.011363637499999999EXTRACT: note_on channel=1 note=60 velocity=80 time=0.013257577083333333EXTRACT: note_on channel=1 note=65 velocity=80 time=0EXTRACT: note_on channel=1 note=69 velocity=80 time=0EXTRACT: note_on channel=1 note=41 velocity=80 time=0EXTRACT: note_on channel=1 note=41 velocity=0 time=0.42992428541666666EXTRACT: note_on channel=1 note=48 velocity=80 time=0.024621214583333332EXTRACT: note_on channel=1 note=60 velocity=0 time=0.40719701041666667EXTRACT: note_on channel=1 note=65 velocity=0 time=0EXTRACT: note_on channel=1 note=69 velocity=0 time=0EXTRACT: note_on channel=1 note=48 velocity=0 time=0.022727274999999998EXTRACT: note_on channel=1 note=65 velocity=80 time=0.024621214583333332EXTRACT: note_on channel=1 note=53 velocity=80 time=0EXTRACT: note_on channel=1 note=65 velocity=0 time=0.14204546875EXTRACT: note_on channel=1 note=67 velocity=80 time=0.009469697916666667EXTRACT: note_on channel=1 note=67 velocity=0 time=0.14204546875EXTRACT: note_on channel=1 note=69 velocity=80 time=0.009469697916666667EXTRACT: note_on channel=1 note=53 velocity=0 time=0.12689395208333334EXTRACT: note_on channel=1 note=69 velocity=0 time=0.015151516666666667EXTRACT: note_on channel=1 note=60 velocity=80 time=0.009469697916666667EXTRACT: note_on channel=1 note=64 velocity=80 time=0EXTRACT: note_on channel=1 note=67 velocity=80 time=0EXTRACT: note_on channel=1 note=36 velocity=80 time=0EXTRACT: note_on channel=1 note=36 velocity=0 time=0.42992428541666666EXTRACT: note_on channel=1 note=43 velocity=80 time=0.024621214583333332EXTRACT: note_on channel=1 note=43 velocity=0 time=0.42992428541666666EXTRACT: note_on channel=1 note=48 velocity=80 time=0.024621214583333332EXTRACT: note_on channel=1 note=60 velocity=0 time=0.3844697354166667EXTRACT: note_on channel=1 note=64 velocity=0 time=0EXTRACT: note_on channel=1 note=67 velocity=0 time=0EXTRACT: note_on channel=1 note=60 velocity=80 time=0.07007576458333334EXTRACT: note_on channel=1 note=64 velocity=80 time=0EXTRACT: note_on channel=1 note=67 velocity=80 time=0EXTRACT: note_on channel=1 note=48 velocity=0 time=1.2708334604166667EXTRACT: note_on channel=1 note=60 velocity=0 time=0.022727274999999998EXTRACT: note_on channel=1 note=64 velocity=0 time=0EXTRACT: note_on channel=1 note=67 velocity=0 time=0
MUSIC029 - Ron Pope- A Drop In The Ocean- lyrics.mid
INTERVALS029 - Ron Pope- A Drop In The Ocean- lyrics.mid
unison510
2m22
2M146
3m21
3M36
4m10
4M0
5m2
5M4
6m0
7m0
7M0