EXTRACT: control_change channel=0 control=121 value=0 time=0
EXTRACT: program_change channel=0 program=65 time=0
EXTRACT: control_change channel=0 control=7 value=109 time=0
EXTRACT: control_change channel=0 control=10 value=64 time=0
EXTRACT: control_change channel=0 control=91 value=0 time=0
EXTRACT: control_change channel=0 control=93 value=0 time=0
EXTRACT: control_change channel=1 control=121 value=0 time=0
EXTRACT: program_change channel=1 program=73 time=0
EXTRACT: control_change channel=1 control=7 value=107 time=0
EXTRACT: control_change channel=1 control=10 value=64 time=0
EXTRACT: control_change channel=1 control=91 value=0 time=0
EXTRACT: control_change channel=1 control=93 value=0 time=0
EXTRACT: control_change channel=2 control=121 value=0 time=0
EXTRACT: program_change channel=2 program=40 time=0
EXTRACT: control_change channel=2 control=7 value=90 time=0
EXTRACT: control_change channel=2 control=10 value=64 time=0
EXTRACT: control_change channel=2 control=91 value=0 time=0
EXTRACT: control_change channel=2 control=93 value=0 time=0
EXTRACT: note_on channel=2 note=66 velocity=80 time=0
EXTRACT: control_change channel=3 control=121 value=0 time=0
EXTRACT: program_change channel=3 program=45 time=0
EXTRACT: control_change channel=3 control=7 value=65 time=0
EXTRACT: control_change channel=3 control=10 value=64 time=0
EXTRACT: control_change channel=3 control=91 value=0 time=0
EXTRACT: control_change channel=3 control=93 value=0 time=0
EXTRACT: control_change channel=4 control=121 value=0 time=0
EXTRACT: program_change channel=4 program=44 time=0
EXTRACT: control_change channel=4 control=7 value=64 time=0
EXTRACT: control_change channel=4 control=10 value=64 time=0
EXTRACT: control_change channel=4 control=91 value=0 time=0
EXTRACT: control_change channel=4 control=93 value=0 time=0
EXTRACT: control_change channel=5 control=121 value=0 time=0
EXTRACT: program_change channel=5 program=0 time=0
EXTRACT: control_change channel=5 control=7 value=127 time=0
EXTRACT: control_change channel=5 control=10 value=64 time=0
EXTRACT: control_change channel=5 control=91 value=0 time=0
EXTRACT: control_change channel=5 control=93 value=0 time=0
EXTRACT: note_on channel=5 note=61 velocity=80 time=0
EXTRACT: note_on channel=5 note=66 velocity=80 time=0
EXTRACT: note_on channel=5 note=70 velocity=80 time=0
EXTRACT: note_on channel=5 note=54 velocity=80 time=0
EXTRACT: note_on channel=2 note=66 velocity=0 time=0.4979166666666667
EXTRACT: note_on channel=2 note=68 velocity=80 time=0.0020833333333333333
EXTRACT: note_on channel=5 note=61 velocity=0 time=0.4479166666666667
EXTRACT: note_on channel=5 note=66 velocity=0 time=0
EXTRACT: note_on channel=5 note=70 velocity=0 time=0
EXTRACT: note_on channel=2 note=68 velocity=0 time=0.05
EXTRACT: note_on channel=2 note=70 velocity=80 time=0.0020833333333333333
EXTRACT: note_on channel=5 note=61 velocity=80 time=0
EXTRACT: note_on channel=5 note=66 velocity=80 time=0
EXTRACT: note_on channel=5 note=70 velocity=80 time=0
EXTRACT: note_on channel=2 note=70 velocity=0 time=0.4979166666666667
EXTRACT: note_on channel=2 note=73 velocity=80 time=0.0020833333333333333
EXTRACT: note_on channel=5 note=54 velocity=0 time=0.39791666666666664
EXTRACT: note_on channel=5 note=61 velocity=0 time=0.05
EXTRACT: note_on channel=5 note=66 velocity=0 time=0
EXTRACT: note_on channel=5 note=70 velocity=0 time=0
EXTRACT: note_on channel=2 note=73 velocity=0 time=0.05
EXTRACT: note_on channel=2 note=75 velocity=80 time=0.0020833333333333333
EXTRACT: note_on channel=5 note=61 velocity=80 time=0
EXTRACT: note_on channel=5 note=64 velocity=80 time=0
EXTRACT: note_on channel=5 note=70 velocity=80 time=0
EXTRACT: note_on channel=5 note=52 velocity=80 time=0
EXTRACT: note_on channel=2 note=75 velocity=0 time=0.4979166666666667
EXTRACT: note_on channel=2 note=73 velocity=80 time=0.0020833333333333333
EXTRACT: note_on channel=5 note=61 velocity=0 time=0.4479166666666667
EXTRACT: note_on channel=5 note=64 velocity=0 time=0
EXTRACT: note_on channel=5 note=70 velocity=0 time=0
EXTRACT: note_on channel=2 note=73 velocity=0 time=0.05
EXTRACT: note_on channel=2 note=70 velocity=80 time=0.0020833333333333333
EXTRACT: note_on channel=5 note=61 velocity=80 time=0
EXTRACT: note_on channel=5 note=64 velocity=80 time=0
EXTRACT: note_on channel=5 note=70 velocity=80 time=0
EXTRACT: note_on channel=2 note=70 velocity=0 time=0.4979166666666667
EXTRACT: note_on channel=2 note=68 velocity=80 time=0.0020833333333333333
EXTRACT: note_on channel=5 note=52 velocity=0 time=0.39791666666666664
EXTRACT: note_on channel=5 note=61 velocity=0 time=0.05
EXTRACT: note_on channel=5 note=64 velocity=0 time=0
EXTRACT: note_on channel=5 note=70 velocity=0 time=0
EXTRACT: note_on channel=2 note=68 velocity=0 time=0.05
EXTRACT: note_on channel=2 note=70 velocity=80 time=0.0020833333333333333
EXTRACT: note_on channel=5 note=59 velocity=80 time=0
EXTRACT: note_on channel=5 note=63 velocity=80 time=0
EXTRACT: note_on channel=5 note=66 velocity=80 time=0
EXTRACT: note_on channel=5 note=47 velocity=80 time=0
EXTRACT: note_on channel=2 note=70 velocity=0 time=0.4979166666666667
EXTRACT: note_on channel=2 note=68 velocity=80 time=0.0020833333333333333
EXTRACT: note_on channel=5 note=59 velocity=0 time=0.4479166666666667
EXTRACT: note_on channel=5 note=63 velocity=0 time=0
EXTRACT: note_on channel=5 note=66 velocity=0 time=0
EXTRACT: note_on channel=5 note=59 velocity=80 time=0.052083333333333336
EXTRACT: note_on channel=5 note=63 velocity=80 time=0
EXTRACT: note_on channel=5 note=66 velocity=80 time=0
EXTRACT: note_on channel=2 note=68 velocity=0 time=0.4979166666666667
EXTRACT: note_on channel=2 note=66 velocity=80 time=0.0020833333333333333
EXTRACT: note_on channel=5 note=47 velocity=0 time=0.39791666666666664
EXTRACT: note_on channel=5 note=59 velocity=0 time=0.05
EXTRACT: note_on channel=5 note=63 velocity=0 time=0
EXTRACT: note_on channel=5 note=66 velocity=0 time=0
EXTRACT: note_on channel=2 note=66 velocity=0 time=0.05
EXTRACT: note_on channel=2 note=70 velocity=80 time=0.0020833333333333333
EXTRACT: note_on channel=5 note=59 velocity=80 time=0
EXTRACT: note_on channel=5 note=62 velocity=80 time=0
EXTRACT: note_on channel=5 note=68 velocity=80 time=0
EXTRACT: note_on channel=5 note=47 velocity=80 time=0
EXTRACT: note_on channel=2 note=70 velocity=0 time=0.4979166666666667
EXTRACT: note_on channel=2 note=68 velocity=80 time=0.0020833333333333333
EXTRACT: note_on channel=5 note=59 velocity=0 time=0.4479166666666667
EXTRACT: note_on channel=5 note=62 velocity=0 time=0
EXTRACT: note_on channel=5 note=68 velocity=0 time=0
EXTRACT: note_on channel=5 note=59 velocity=80 time=0.052083333333333336
EXTRACT: note_on channel=5 note=62 velocity=80 time=0
EXTRACT: note_on channel=5 note=68 velocity=80 time=0
EXTRACT: note_on channel=2 note=68 velocity=0 time=0.4979166666666667
EXTRACT: note_on channel=2 note=66 velocity=80 time=0.0020833333333333333
EXTRACT: note_on channel=5 note=47 velocity=0 time=0.39791666666666664
EXTRACT: note_on channel=5 note=59 velocity=0 time=0.05
EXTRACT: note_on channel=5 note=62 velocity=0 time=0
EXTRACT: note_on channel=5 note=68 velocity=0 time=0
EXTRACT: note_on channel=2 note=66 velocity=0 time=0.05
EXTRACT: note_on channel=1 note=78 velocity=80 time=0.0020833333333333333
EXTRACT: note_on channel=5 note=61 velocity=80 time=0
EXTRACT: note_on channel=5 note=66 velocity=80 time=0
EXTRACT: note_on channel=5 note=70 velocity=80 time=0
EXTRACT: note_on channel=5 note=54 velocity=80 time=0
EXTRACT: note_on channel=0 note=66 velocity=80 time=0.75
EXTRACT: note_on channel=5 note=61 velocity=0 time=0.19791666666666666
EXTRACT: note_on channel=5 note=66 velocity=0 time=0
EXTRACT: note_on channel=5 note=70 velocity=0 time=0
EXTRACT: note_on channel=0 note=66 velocity=0 time=0.05
EXTRACT: note_on channel=0 note=70 velocity=80 time=0.0020833333333333333
EXTRACT: note_on channel=5 note=61 velocity=80 time=0
EXTRACT: note_on channel=5 note=66 velocity=80 time=0
EXTRACT: note_on channel=5 note=70 velocity=80 time=0
EXTRACT: note_on channel=0 note=70 velocity=0 time=0.33125
EXTRACT: note_on channel=0 note=68 velocity=80 time=0.0020833333333333333
EXTRACT: note_on channel=0 note=68 velocity=0 time=0.33125
EXTRACT: note_on channel=0 note=66 velocity=80 time=0.0020833333333333333
EXTRACT: note_on channel=1 note=78 velocity=0 time=0.23124999999999998
EXTRACT: note_on channel=5 note=54 velocity=0 time=0
EXTRACT: note_on channel=5 note=61 velocity=0 time=0.05
EXTRACT: note_on channel=5 note=66 velocity=0 time=0
EXTRACT: note_on channel=5 note=70 velocity=0 time=0
EXTRACT: note_on channel=0 note=66 velocity=0 time=0.05
EXTRACT: note_on channel=0 note=70 velocity=80 time=0.0020833333333333333
EXTRACT: note_on channel=1 note=76 velocity=80 time=0
EXTRACT: note_on channel=5 note=61 velocity=80 time=0
EXTRACT: note_on channel=5 note=64 velocity=80 time=0
EXTRACT: note_on channel=5 note=70 velocity=80 time=0
EXTRACT: note_on channel=5 note=52 velocity=80 time=0
EXTRACT: note_on channel=5 note=61 velocity=0 time=0.9479166666666666
EXTRACT: note_on channel=5 note=64 velocity=0 time=0
EXTRACT: note_on channel=5 note=70 velocity=0 time=0
EXTRACT: note_on channel=0 note=70 velocity=0 time=0.05
EXTRACT: note_on channel=0 note=66 velocity=80 time=0.0020833333333333333
EXTRACT: note_on channel=5 note=61 velocity=80 time=0
EXTRACT: note_on channel=5 note=64 velocity=80 time=0
EXTRACT: note_on channel=5 note=70 velocity=80 time=0
EXTRACT: note_on channel=1 note=76 velocity=0 time=0.8979166666666667
EXTRACT: note_on channel=5 note=52 velocity=0 time=0
EXTRACT: note_on channel=5 note=61 velocity=0 time=0.05
EXTRACT: note_on channel=5 note=64 velocity=0 time=0
EXTRACT: note_on channel=5 note=70 velocity=0 time=0
EXTRACT: note_on channel=0 note=66 velocity=0 time=0.05
EXTRACT: note_on channel=0 note=68 velocity=80 time=0.0020833333333333333
EXTRACT: note_on channel=1 note=75 velocity=80 time=0
EXTRACT: note_on channel=5 note=59 velocity=80 time=0
EXTRACT: note_on channel=5 note=63 velocity=80 time=0
EXTRACT: note_on channel=5 note=66 velocity=80 time=0
EXTRACT: note_on channel=5 note=47 velocity=80 time=0
EXTRACT: note_on channel=0 note=68 velocity=0 time=0.24791666666666667
EXTRACT: note_on channel=0 note=70 velocity=80 time=0.0020833333333333333
EXTRACT: note_on channel=0 note=70 velocity=0 time=0.24791666666666667
EXTRACT: note_on channel=0 note=68 velocity=80 time=0.0020833333333333333
EXTRACT: note_on channel=5 note=59 velocity=0 time=0.4479166666666667
EXTRACT: note_on channel=5 note=63 velocity=0 time=0
EXTRACT: note_on channel=5 note=66 velocity=0 time=0
EXTRACT: note_on channel=5 note=59 velocity=80 time=0.052083333333333336
EXTRACT: note_on channel=5 note=63 velocity=80 time=0
EXTRACT: note_on channel=5 note=66 velocity=80 time=0
EXTRACT: note_on channel=0 note=68 velocity=0 time=0.24791666666666667
EXTRACT: note_on channel=0 note=66 velocity=80 time=0.0020833333333333333
EXTRACT: note_on channel=0 note=66 velocity=0 time=0.24791666666666667
EXTRACT: note_on channel=0 note=63 velocity=80 time=0.0020833333333333333
EXTRACT: note_on channel=0 note=63 velocity=0 time=0.24791666666666667
EXTRACT: note_on channel=0 note=61 velocity=80 time=0.0020833333333333333
EXTRACT: note_on channel=1 note=75 velocity=0 time=0.14791666666666667
EXTRACT: note_on channel=5 note=47 velocity=0 time=0
EXTRACT: note_on channel=5 note=59 velocity=0 time=0.05
EXTRACT: note_on channel=5 note=63 velocity=0 time=0
EXTRACT: note_on channel=5 note=66 velocity=0 time=0
EXTRACT: note_on channel=0 note=61 velocity=0 time=0.05
EXTRACT: note_on channel=0 note=70 velocity=80 time=0.0020833333333333333
EXTRACT: note_on channel=1 note=74 velocity=80 time=0
EXTRACT: note_on channel=5 note=59 velocity=80 time=0
EXTRACT: note_on channel=5 note=62 velocity=80 time=0
EXTRACT: note_on channel=5 note=68 velocity=80 time=0
EXTRACT: note_on channel=5 note=47 velocity=80 time=0
EXTRACT: note_on channel=5 note=59 velocity=0 time=0.9479166666666666
EXTRACT: note_on channel=5 note=62 velocity=0 time=0
EXTRACT: note_on channel=5 note=68 velocity=0 time=0
EXTRACT: note_on channel=0 note=70 velocity=0 time=0.05
EXTRACT: note_on channel=0 note=68 velocity=80 time=0.0020833333333333333
EXTRACT: note_on channel=5 note=59 velocity=80 time=0
EXTRACT: note_on channel=5 note=62 velocity=80 time=0
EXTRACT: note_on channel=5 note=68 velocity=80 time=0
EXTRACT: note_on channel=1 note=74 velocity=0 time=0.8979166666666667
EXTRACT: note_on channel=5 note=47 velocity=0 time=0
EXTRACT: note_on channel=5 note=59 velocity=0 time=0.05
EXTRACT: note_on channel=5 note=62 velocity=0 time=0
EXTRACT: note_on channel=5 note=68 velocity=0 time=0
EXTRACT: note_on channel=0 note=68 velocity=0 time=0.05
EXTRACT: note_on channel=1 note=70 velocity=80 time=0.0020833333333333333
EXTRACT: note_on channel=5 note=61 velocity=80 time=0
EXTRACT: note_on channel=5 note=66 velocity=80 time=0
EXTRACT: note_on channel=5 note=70 velocity=80 time=0
EXTRACT: note_on channel=5 note=54 velocity=80 time=0
EXTRACT: note_on channel=0 note=66 velocity=80 time=0.75
EXTRACT: note_on channel=5 note=61 velocity=0 time=0.19791666666666666
EXTRACT: note_on channel=5 note=66 velocity=0 time=0
EXTRACT: note_on channel=5 note=70 velocity=0 time=0
EXTRACT: note_on channel=0 note=66 velocity=0 time=0.05
EXTRACT: note_on channel=0 note=70 velocity=80 time=0.0020833333333333333
EXTRACT: note_on channel=5 note=61 velocity=80 time=0
EXTRACT: note_on channel=5 note=66 velocity=80 time=0
EXTRACT: note_on channel=5 note=70 velocity=80 time=0
EXTRACT: note_on channel=0 note=70 velocity=0 time=0.33125
EXTRACT: note_on channel=0 note=68 velocity=80 time=0.0020833333333333333
EXTRACT: note_on channel=0 note=68 velocity=0 time=0.33125
EXTRACT: note_on channel=0 note=66 velocity=80 time=0.0020833333333333333
EXTRACT: note_on channel=1 note=70 velocity=0 time=0.23124999999999998
EXTRACT: note_on channel=5 note=54 velocity=0 time=0
EXTRACT: note_on channel=5 note=61 velocity=0 time=0.05
EXTRACT: note_on channel=5 note=66 velocity=0 time=0
EXTRACT: note_on channel=5 note=70 velocity=0 time=0
EXTRACT: note_on channel=0 note=66 velocity=0 time=0.05
EXTRACT: note_on channel=0 note=70 velocity=80 time=0.0020833333333333333
EXTRACT: note_on channel=1 note=73 velocity=80 time=0
EXTRACT: note_on channel=5 note=61 velocity=80 time=0
EXTRACT: note_on channel=5 note=64 velocity=80 time=0
EXTRACT: note_on channel=5 note=70 velocity=80 time=0
EXTRACT: note_on channel=5 note=52 velocity=80 time=0
EXTRACT: note_on channel=5 note=61 velocity=0 time=0.9479166666666666
EXTRACT: note_on channel=5 note=64 velocity=0 time=0
EXTRACT: note_on channel=5 note=70 velocity=0 time=0
EXTRACT: note_on channel=0 note=70 velocity=0 time=0.05
EXTRACT: note_on channel=5 note=61 velocity=80 time=0.0020833333333333333
EXTRACT: note_on channel=5 note=64 velocity=80 time=0
EXTRACT: note_on channel=5 note=70 velocity=80 time=0
EXTRACT: note_on channel=0 note=66 velocity=80 time=0.75
EXTRACT: note_on channel=1 note=73 velocity=0 time=0.14791666666666667
EXTRACT: note_on channel=5 note=52 velocity=0 time=0
EXTRACT: note_on channel=5 note=61 velocity=0 time=0.05
EXTRACT: note_on channel=5 note=64 velocity=0 time=0
EXTRACT: note_on channel=5 note=70 velocity=0 time=0
EXTRACT: note_on channel=0 note=66 velocity=0 time=0.05
EXTRACT: note_on channel=0 note=68 velocity=80 time=0.0020833333333333333
EXTRACT: note_on channel=1 note=71 velocity=80 time=0
EXTRACT: note_on channel=5 note=59 velocity=80 time=0
EXTRACT: note_on channel=5 note=63 velocity=80 time=0
EXTRACT: note_on channel=5 note=66 velocity=80 time=0
EXTRACT: note_on channel=5 note=47 velocity=80 time=0
EXTRACT: note_on channel=0 note=68 velocity=0 time=0.24791666666666667
EXTRACT: note_on channel=0 note=70 velocity=80 time=0.0020833333333333333
EXTRACT: note_on channel=0 note=70 velocity=0 time=0.24791666666666667
EXTRACT: note_on channel=0 note=68 velocity=80 time=0.0020833333333333333
EXTRACT: note_on channel=5 note=59 velocity=0 time=0.4479166666666667
EXTRACT: note_on channel=5 note=63 velocity=0 time=0
EXTRACT: note_on channel=5 note=66 velocity=0 time=0
EXTRACT: note_on channel=5 note=59 velocity=80 time=0.052083333333333336
EXTRACT: note_on channel=5 note=63 velocity=80 time=0
EXTRACT: note_on channel=5 note=66 velocity=80 time=0
EXTRACT: note_on channel=0 note=68 velocity=0 time=0.24791666666666667
EXTRACT: note_on channel=0 note=66 velocity=80 time=0.0020833333333333333
EXTRACT: note_on channel=0 note=66 velocity=0 time=0.24791666666666667
EXTRACT: note_on channel=0 note=63 velocity=80 time=0.0020833333333333333
EXTRACT: note_on channel=1 note=71 velocity=0 time=0.16041666666666665
EXTRACT: note_on channel=0 note=63 velocity=0 time=0.0875
EXTRACT: note_on channel=0 note=61 velocity=80 time=0.0020833333333333333
EXTRACT: note_on channel=1 note=70 velocity=80 time=0
EXTRACT: note_on channel=5 note=47 velocity=0 time=0.14791666666666667
EXTRACT: note_on channel=5 note=59 velocity=0 time=0.05
EXTRACT: note_on channel=5 note=63 velocity=0 time=0
EXTRACT: note_on channel=5 note=66 velocity=0 time=0
EXTRACT: note_on channel=1 note=70 velocity=0 time=0.0375
EXTRACT: note_on channel=0 note=61 velocity=0 time=0.0125
EXTRACT: note_on channel=0 note=73 velocity=80 time=0.0020833333333333333
EXTRACT: note_on channel=1 note=68 velocity=80 time=0
EXTRACT: note_on channel=5 note=59 velocity=80 time=0
EXTRACT: note_on channel=5 note=62 velocity=80 time=0
EXTRACT: note_on channel=5 note=68 velocity=80 time=0
EXTRACT: note_on channel=5 note=47 velocity=80 time=0
EXTRACT: note_on channel=5 note=59 velocity=0 time=0.9479166666666666
EXTRACT: note_on channel=5 note=62 velocity=0 time=0
EXTRACT: note_on channel=5 note=68 velocity=0 time=0
EXTRACT: note_on channel=0 note=73 velocity=0 time=0.05
EXTRACT: note_on channel=0 note=71 velocity=80 time=0.0020833333333333333
EXTRACT: note_on channel=5 note=59 velocity=80 time=0
EXTRACT: note_on channel=5 note=62 velocity=80 time=0
EXTRACT: note_on channel=5 note=68 velocity=80 time=0
EXTRACT: note_on channel=0 note=71 velocity=0 time=0.7479166666666667
EXTRACT: note_on channel=0 note=70 velocity=80 time=0.0020833333333333333
EXTRACT: note_on channel=1 note=68 velocity=0 time=0.14791666666666667
EXTRACT: note_on channel=5 note=47 velocity=0 time=0
EXTRACT: note_on channel=5 note=59 velocity=0 time=0.05
EXTRACT: note_on channel=5 note=62 velocity=0 time=0
EXTRACT: note_on channel=5 note=68 velocity=0 time=0
EXTRACT: note_on channel=0 note=70 velocity=0 time=0.05
EXTRACT: note_on channel=0 note=70 velocity=80 time=0.0020833333333333333
EXTRACT: note_on channel=1 note=78 velocity=80 time=0
EXTRACT: note_on channel=2 note=66 velocity=80 time=0
EXTRACT: note_on channel=5 note=61 velocity=80 time=0
EXTRACT: note_on channel=5 note=66 velocity=80 time=0
EXTRACT: note_on channel=5 note=70 velocity=80 time=0
EXTRACT: note_on channel=5 note=54 velocity=80 time=0
EXTRACT: note_on channel=0 note=70 velocity=0 time=0.3729166666666667
EXTRACT: note_on channel=0 note=68 velocity=80 time=0.0020833333333333333
EXTRACT: note_on channel=0 note=68 velocity=0 time=0.12291666666666666
EXTRACT: note_on channel=0 note=66 velocity=80 time=0.0020833333333333333
EXTRACT: note_on channel=0 note=66 velocity=0 time=0.3729166666666667
EXTRACT: note_on channel=0 note=63 velocity=80 time=0.0020833333333333333
EXTRACT: note_on channel=5 note=61 velocity=0 time=0.07291666666666667
EXTRACT: note_on channel=5 note=66 velocity=0 time=0
EXTRACT: note_on channel=5 note=70 velocity=0 time=0
EXTRACT: note_on channel=0 note=63 velocity=0 time=0.05
EXTRACT: note_on channel=0 note=61 velocity=80 time=0.0020833333333333333
EXTRACT: note_on channel=5 note=61 velocity=80 time=0
EXTRACT: note_on channel=5 note=66 velocity=80 time=0
EXTRACT: note_on channel=5 note=70 velocity=80 time=0
EXTRACT: note_on channel=1 note=78 velocity=0 time=0.8979166666666667
EXTRACT: note_on channel=5 note=54 velocity=0 time=0
EXTRACT: note_on channel=5 note=61 velocity=0 time=0.05
EXTRACT: note_on channel=5 note=66 velocity=0 time=0
EXTRACT: note_on channel=5 note=70 velocity=0 time=0
EXTRACT: note_on channel=0 note=61 velocity=0 time=0.05
EXTRACT: note_on channel=2 note=66 velocity=0 time=0
EXTRACT: note_on channel=1 note=76 velocity=80 time=0.0020833333333333333
EXTRACT: note_on channel=2 note=68 velocity=80 time=0
EXTRACT: note_on channel=5 note=61 velocity=80 time=0
EXTRACT: note_on channel=5 note=64 velocity=80 time=0
EXTRACT: note_on channel=5 note=70 velocity=80 time=0
EXTRACT: note_on channel=5 note=52 velocity=80 time=0
EXTRACT: note_on channel=0 note=70 velocity=80 time=0.75
EXTRACT: note_on channel=5 note=61 velocity=0 time=0.19791666666666666
EXTRACT: note_on channel=5 note=64 velocity=0 time=0
EXTRACT: note_on channel=5 note=70 velocity=0 time=0
EXTRACT: note_on channel=0 note=70 velocity=0 time=0.05
EXTRACT: note_on channel=0 note=70 velocity=80 time=0.0020833333333333333
EXTRACT: note_on channel=5 note=61 velocity=80 time=0
EXTRACT: note_on channel=5 note=64 velocity=80 time=0
EXTRACT: note_on channel=5 note=70 velocity=80 time=0
EXTRACT: note_on channel=0 note=70 velocity=0 time=0.3729166666666667
EXTRACT: note_on channel=0 note=68 velocity=80 time=0.0020833333333333333
EXTRACT: note_on channel=0 note=68 velocity=0 time=0.3729166666666667
EXTRACT: note_on channel=1 note=76 velocity=0 time=0.15
EXTRACT: note_on channel=5 note=52 velocity=0 time=0
EXTRACT: note_on channel=5 note=61 velocity=0 time=0.05
EXTRACT: note_on channel=5 note=64 velocity=0 time=0
EXTRACT: note_on channel=5 note=70 velocity=0 time=0
EXTRACT: note_on channel=2 note=68 velocity=0 time=0.05
EXTRACT: note_on channel=0 note=70 velocity=80 time=0.0020833333333333333
EXTRACT: note_on channel=1 note=75 velocity=80 time=0
EXTRACT: note_on channel=2 note=70 velocity=80 time=0
EXTRACT: note_on channel=5 note=59 velocity=80 time=0
EXTRACT: note_on channel=5 note=63 velocity=80 time=0
EXTRACT: note_on channel=5 note=66 velocity=80 time=0
EXTRACT: note_on channel=5 note=47 velocity=80 time=0
EXTRACT: note_on channel=0 note=70 velocity=0 time=0.3729166666666667
EXTRACT: note_on channel=0 note=66 velocity=80 time=0.0020833333333333333
EXTRACT: note_on channel=0 note=66 velocity=0 time=0.12291666666666666
EXTRACT: note_on channel=0 note=63 velocity=80 time=0.0020833333333333333
EXTRACT: note_on channel=0 note=63 velocity=0 time=0.3729166666666667
EXTRACT: note_on channel=0 note=61 velocity=80 time=0.0020833333333333333
EXTRACT: note_on channel=5 note=59 velocity=0 time=0.07291666666666667
EXTRACT: note_on channel=5 note=63 velocity=0 time=0
EXTRACT: note_on channel=5 note=66 velocity=0 time=0
EXTRACT: note_on channel=0 note=61 velocity=0 time=0.05
EXTRACT: note_on channel=0 note=58 velocity=80 time=0.0020833333333333333
EXTRACT: note_on channel=5 note=59 velocity=80 time=0
EXTRACT: note_on channel=5 note=63 velocity=80 time=0
EXTRACT: note_on channel=5 note=66 velocity=80 time=0
EXTRACT: note_on channel=0 note=58 velocity=0 time=0.7479166666666667
EXTRACT: note_on channel=0 note=58 velocity=80 time=0.0020833333333333333
EXTRACT: note_on channel=0 note=58 velocity=0 time=0.12291666666666666
EXTRACT: note_on channel=0 note=56 velocity=80 time=0.0020833333333333333
EXTRACT: note_on channel=1 note=75 velocity=0 time=0.022916666666666665
EXTRACT: note_on channel=5 note=47 velocity=0 time=0
EXTRACT: note_on channel=5 note=59 velocity=0 time=0.05
EXTRACT: note_on channel=5 note=63 velocity=0 time=0
EXTRACT: note_on channel=5 note=66 velocity=0 time=0
EXTRACT: note_on channel=0 note=56 velocity=0 time=0.05
EXTRACT: note_on channel=2 note=70 velocity=0 time=0
EXTRACT: note_on channel=0 note=56 velocity=80 time=0.0020833333333333333
EXTRACT: note_on channel=1 note=74 velocity=80 time=0
EXTRACT: note_on channel=2 note=74 velocity=80 time=0
EXTRACT: note_on channel=5 note=59 velocity=80 time=0
EXTRACT: note_on channel=5 note=62 velocity=80 time=0
EXTRACT: note_on channel=5 note=68 velocity=80 time=0
EXTRACT: note_on channel=5 note=47 velocity=80 time=0
EXTRACT: note_on channel=0 note=56 velocity=0 time=0.4979166666666667
EXTRACT: note_on channel=0 note=54 velocity=80 time=0.0020833333333333333
EXTRACT: note_on channel=5 note=59 velocity=0 time=0.4479166666666667
EXTRACT: note_on channel=5 note=62 velocity=0 time=0
EXTRACT: note_on channel=5 note=68 velocity=0 time=0
EXTRACT: note_on channel=0 note=54 velocity=0 time=0.05
EXTRACT: note_on channel=0 note=73 velocity=80 time=0.0020833333333333333
EXTRACT: note_on channel=5 note=59 velocity=80 time=0
EXTRACT: note_on channel=5 note=62 velocity=80 time=0
EXTRACT: note_on channel=5 note=68 velocity=80 time=0
EXTRACT: note_on channel=0 note=73 velocity=0 time=0.24791666666666667
EXTRACT: note_on channel=0 note=71 velocity=80 time=0.0020833333333333333
EXTRACT: note_on channel=0 note=71 velocity=0 time=0.24791666666666667
EXTRACT: note_on channel=0 note=70 velocity=80 time=0.0020833333333333333
EXTRACT: note_on channel=0 note=70 velocity=0 time=0.24791666666666667
EXTRACT: note_on channel=0 note=68 velocity=80 time=0.0020833333333333333
EXTRACT: note_on channel=1 note=74 velocity=0 time=0.14791666666666667
EXTRACT: note_on channel=5 note=47 velocity=0 time=0
EXTRACT: note_on channel=5 note=59 velocity=0 time=0.05
EXTRACT: note_on channel=5 note=62 velocity=0 time=0
EXTRACT: note_on channel=5 note=68 velocity=0 time=0
EXTRACT: note_on channel=0 note=68 velocity=0 time=0.05
EXTRACT: note_on channel=2 note=74 velocity=0 time=0
EXTRACT: note_on channel=0 note=66 velocity=80 time=0.0020833333333333333
EXTRACT: note_on channel=1 note=70 velocity=80 time=0
EXTRACT: note_on channel=2 note=66 velocity=80 time=0
EXTRACT: note_on channel=5 note=61 velocity=80 time=0
EXTRACT: note_on channel=5 note=66 velocity=80 time=0
EXTRACT: note_on channel=5 note=70 velocity=80 time=0
EXTRACT: note_on channel=5 note=54 velocity=80 time=0
EXTRACT: note_on channel=0 note=66 velocity=0 time=0.4979166666666667
EXTRACT: note_on channel=0 note=68 velocity=80 time=0.0020833333333333333
EXTRACT: note_on channel=0 note=68 velocity=0 time=0.24791666666666667
EXTRACT: note_on channel=0 note=70 velocity=80 time=0.0020833333333333333
EXTRACT: note_on channel=5 note=61 velocity=0 time=0.19791666666666666
EXTRACT: note_on channel=5 note=66 velocity=0 time=0
EXTRACT: note_on channel=5 note=70 velocity=0 time=0
EXTRACT: note_on channel=5 note=61 velocity=80 time=0.052083333333333336
EXTRACT: note_on channel=5 note=66 velocity=80 time=0
EXTRACT: note_on channel=5 note=70 velocity=80 time=0
EXTRACT: note_on channel=0 note=70 velocity=0 time=0.4979166666666667
EXTRACT: note_on channel=0 note=66 velocity=80 time=0.0020833333333333333
EXTRACT: note_on channel=0 note=66 velocity=0 time=0.24791666666666667
EXTRACT: note_on channel=0 note=66 velocity=80 time=0.0020833333333333333
EXTRACT: note_on channel=1 note=70 velocity=0 time=0.14791666666666667
EXTRACT: note_on channel=5 note=54 velocity=0 time=0
EXTRACT: note_on channel=5 note=61 velocity=0 time=0.05
EXTRACT: note_on channel=5 note=66 velocity=0 time=0
EXTRACT: note_on channel=5 note=70 velocity=0 time=0
EXTRACT: note_on channel=2 note=66 velocity=0 time=0.05
EXTRACT: note_on channel=1 note=73 velocity=80 time=0.0020833333333333333
EXTRACT: note_on channel=2 note=68 velocity=80 time=0
EXTRACT: note_on channel=5 note=61 velocity=80 time=0
EXTRACT: note_on channel=5 note=64 velocity=80 time=0
EXTRACT: note_on channel=5 note=70 velocity=80 time=0
EXTRACT: note_on channel=5 note=52 velocity=80 time=0
EXTRACT: note_on channel=0 note=66 velocity=0 time=0.7479166666666667
EXTRACT: note_on channel=5 note=61 velocity=0 time=0.2
EXTRACT: note_on channel=5 note=64 velocity=0 time=0
EXTRACT: note_on channel=5 note=70 velocity=0 time=0
EXTRACT: note_on channel=5 note=61 velocity=80 time=0.052083333333333336
EXTRACT: note_on channel=5 note=64 velocity=80 time=0
EXTRACT: note_on channel=5 note=70 velocity=80 time=0
EXTRACT: note_on channel=0 note=61 velocity=80 time=0.25
EXTRACT: note_on channel=0 note=61 velocity=0 time=0.24791666666666667
EXTRACT: note_on channel=0 note=63 velocity=80 time=0.0020833333333333333
EXTRACT: note_on channel=0 note=63 velocity=0 time=0.24791666666666667
EXTRACT: note_on channel=0 note=66 velocity=80 time=0.0020833333333333333
EXTRACT: note_on channel=1 note=73 velocity=0 time=0.14791666666666667
EXTRACT: note_on channel=5 note=52 velocity=0 time=0
EXTRACT: note_on channel=5 note=61 velocity=0 time=0.05
EXTRACT: note_on channel=5 note=64 velocity=0 time=0
EXTRACT: note_on channel=5 note=70 velocity=0 time=0
EXTRACT: note_on channel=0 note=66 velocity=0 time=0.05
EXTRACT: note_on channel=2 note=68 velocity=0 time=0
EXTRACT: note_on channel=0 note=68 velocity=80 time=0.0020833333333333333
EXTRACT: note_on channel=1 note=71 velocity=80 time=0
EXTRACT: note_on channel=2 note=71 velocity=80 time=0
EXTRACT: note_on channel=5 note=59 velocity=80 time=0
EXTRACT: note_on channel=5 note=63 velocity=80 time=0
EXTRACT: note_on channel=5 note=66 velocity=80 time=0
EXTRACT: note_on channel=5 note=47 velocity=80 time=0
EXTRACT: note_on channel=0 note=68 velocity=0 time=0.24791666666666667
EXTRACT: note_on channel=0 note=70 velocity=80 time=0.0020833333333333333
EXTRACT: note_on channel=0 note=70 velocity=0 time=0.24791666666666667
EXTRACT: note_on channel=0 note=68 velocity=80 time=0.0020833333333333333
EXTRACT: note_on channel=0 note=68 velocity=0 time=0.24791666666666667
EXTRACT: note_on channel=0 note=66 velocity=80 time=0.0020833333333333333
EXTRACT: note_on channel=5 note=59 velocity=0 time=0.19791666666666666
EXTRACT: note_on channel=5 note=63 velocity=0 time=0
EXTRACT: note_on channel=5 note=66 velocity=0 time=0
EXTRACT: note_on channel=0 note=66 velocity=0 time=0.05
EXTRACT: note_on channel=0 note=68 velocity=80 time=0.0020833333333333333
EXTRACT: note_on channel=5 note=59 velocity=80 time=0
EXTRACT: note_on channel=5 note=63 velocity=80 time=0
EXTRACT: note_on channel=5 note=66 velocity=80 time=0
EXTRACT: note_on channel=0 note=68 velocity=0 time=0.4979166666666667
EXTRACT: note_on channel=0 note=66 velocity=80 time=0.0020833333333333333
EXTRACT: note_on channel=1 note=71 velocity=0 time=0.16041666666666665
EXTRACT: note_on channel=0 note=66 velocity=0 time=0.0875
EXTRACT: note_on channel=0 note=68 velocity=80 time=0.0020833333333333333
EXTRACT: note_on channel=1 note=70 velocity=80 time=0
EXTRACT: note_on channel=0 note=68 velocity=0 time=0.12291666666666666
EXTRACT: note_on channel=0 note=66 velocity=80 time=0.0020833333333333333
EXTRACT: note_on channel=5 note=47 velocity=0 time=0.022916666666666665
EXTRACT: note_on channel=5 note=59 velocity=0 time=0.05
EXTRACT: note_on channel=5 note=63 velocity=0 time=0
EXTRACT: note_on channel=5 note=66 velocity=0 time=0
EXTRACT: note_on channel=1 note=70 velocity=0 time=0.0375
EXTRACT: note_on channel=0 note=66 velocity=0 time=0.0125
EXTRACT: note_on channel=2 note=71 velocity=0 time=0
EXTRACT: note_on channel=0 note=62 velocity=80 time=0.0020833333333333333
EXTRACT: note_on channel=1 note=68 velocity=80 time=0
EXTRACT: note_on channel=2 note=74 velocity=80 time=0
EXTRACT: note_on channel=5 note=59 velocity=80 time=0
EXTRACT: note_on channel=5 note=62 velocity=80 time=0
EXTRACT: note_on channel=5 note=68 velocity=80 time=0
EXTRACT: note_on channel=5 note=47 velocity=80 time=0
EXTRACT: note_on channel=0 note=62 velocity=0 time=0.4979166666666667
EXTRACT: note_on channel=5 note=59 velocity=0 time=0.45
EXTRACT: note_on channel=5 note=62 velocity=0 time=0
EXTRACT: note_on channel=5 note=68 velocity=0 time=0
EXTRACT: note_on channel=5 note=59 velocity=80 time=0.052083333333333336
EXTRACT: note_on channel=5 note=62 velocity=80 time=0
EXTRACT: note_on channel=5 note=68 velocity=80 time=0
EXTRACT: note_on channel=1 note=68 velocity=0 time=0.8979166666666667
EXTRACT: note_on channel=5 note=47 velocity=0 time=0
EXTRACT: note_on channel=5 note=59 velocity=0 time=0.05
EXTRACT: note_on channel=5 note=62 velocity=0 time=0
EXTRACT: note_on channel=5 note=68 velocity=0 time=0
EXTRACT: note_on channel=2 note=74 velocity=0 time=0.05
EXTRACT: note_on channel=1 note=78 velocity=80 time=0.0020833333333333333
EXTRACT: note_on channel=2 note=66 velocity=80 time=0
EXTRACT: note_on channel=5 note=61 velocity=80 time=0
EXTRACT: note_on channel=5 note=66 velocity=80 time=0
EXTRACT: note_on channel=5 note=70 velocity=80 time=0
EXTRACT: note_on channel=5 note=54 velocity=80 time=0
EXTRACT: note_on channel=0 note=61 velocity=80 time=0.75
EXTRACT: note_on channel=5 note=61 velocity=0 time=0.19791666666666666
EXTRACT: note_on channel=5 note=66 velocity=0 time=0
EXTRACT: note_on channel=5 note=70 velocity=0 time=0
EXTRACT: note_on channel=0 note=61 velocity=0 time=0.05
EXTRACT: note_on channel=0 note=70 velocity=80 time=0.0020833333333333333
EXTRACT: note_on channel=5 note=61 velocity=80 time=0
EXTRACT: note_on channel=5 note=66 velocity=80 time=0
EXTRACT: note_on channel=5 note=70 velocity=80 time=0
EXTRACT: note_on channel=0 note=70 velocity=0 time=0.33125
EXTRACT: note_on channel=0 note=71 velocity=80 time=0.0020833333333333333
EXTRACT: note_on channel=0 note=71 velocity=0 time=0.33125
EXTRACT: note_on channel=0 note=73 velocity=80 time=0.0020833333333333333
EXTRACT: note_on channel=1 note=78 velocity=0 time=0.23124999999999998
EXTRACT: note_on channel=5 note=54 velocity=0 time=0
EXTRACT: note_on channel=5 note=61 velocity=0 time=0.05
EXTRACT: note_on channel=5 note=66 velocity=0 time=0
EXTRACT: note_on channel=5 note=70 velocity=0 time=0
EXTRACT: note_on channel=0 note=73 velocity=0 time=0.05
EXTRACT: note_on channel=2 note=66 velocity=0 time=0
EXTRACT: note_on channel=0 note=71 velocity=80 time=0.0020833333333333333
EXTRACT: note_on channel=1 note=76 velocity=80 time=0
EXTRACT: note_on channel=2 note=68 velocity=80 time=0
EXTRACT: note_on channel=5 note=61 velocity=80 time=0
EXTRACT: note_on channel=5 note=64 velocity=80 time=0
EXTRACT: note_on channel=5 note=70 velocity=80 time=0
EXTRACT: note_on channel=5 note=52 velocity=80 time=0
EXTRACT: note_on channel=0 note=71 velocity=0 time=0.4979166666666667
EXTRACT: note_on channel=0 note=70 velocity=80 time=0.0020833333333333333
EXTRACT: note_on channel=0 note=70 velocity=0 time=0.24791666666666667
EXTRACT: note_on channel=0 note=70 velocity=80 time=0.0020833333333333333
EXTRACT: note_on channel=5 note=61 velocity=0 time=0.19791666666666666
EXTRACT: note_on channel=5 note=64 velocity=0 time=0
EXTRACT: note_on channel=5 note=70 velocity=0 time=0
EXTRACT: note_on channel=5 note=61 velocity=80 time=0.052083333333333336
EXTRACT: note_on channel=5 note=64 velocity=80 time=0
EXTRACT: note_on channel=5 note=70 velocity=80 time=0
EXTRACT: note_on channel=0 note=70 velocity=0 time=0.24791666666666667
EXTRACT: note_on channel=0 note=68 velocity=80 time=0.0020833333333333333
EXTRACT: note_on channel=0 note=68 velocity=0 time=0.24791666666666667
EXTRACT: note_on channel=0 note=66 velocity=80 time=0.0020833333333333333
EXTRACT: note_on channel=0 note=66 velocity=0 time=0.24791666666666667
EXTRACT: note_on channel=0 note=63 velocity=80 time=0.0020833333333333333
EXTRACT: note_on channel=1 note=76 velocity=0 time=0.14791666666666667
EXTRACT: note_on channel=5 note=52 velocity=0 time=0
EXTRACT: note_on channel=5 note=61 velocity=0 time=0.05
EXTRACT: note_on channel=5 note=64 velocity=0 time=0
EXTRACT: note_on channel=5 note=70 velocity=0 time=0
EXTRACT: note_on channel=0 note=63 velocity=0 time=0.05
EXTRACT: note_on channel=2 note=68 velocity=0 time=0
EXTRACT: note_on channel=0 note=70 velocity=80 time=0.0020833333333333333
EXTRACT: note_on channel=1 note=75 velocity=80 time=0
EXTRACT: note_on channel=2 note=70 velocity=80 time=0
EXTRACT: note_on channel=5 note=59 velocity=80 time=0
EXTRACT: note_on channel=5 note=63 velocity=80 time=0
EXTRACT: note_on channel=5 note=66 velocity=80 time=0
EXTRACT: note_on channel=5 note=47 velocity=80 time=0
EXTRACT: note_on channel=0 note=70 velocity=0 time=0.4979166666666667
EXTRACT: note_on channel=0 note=66 velocity=80 time=0.0020833333333333333
EXTRACT: note_on channel=5 note=59 velocity=0 time=0.4479166666666667
EXTRACT: note_on channel=5 note=63 velocity=0 time=0
EXTRACT: note_on channel=5 note=66 velocity=0 time=0
EXTRACT: note_on channel=0 note=66 velocity=0 time=0.05
EXTRACT: note_on channel=5 note=59 velocity=80 time=0.0020833333333333333
EXTRACT: note_on channel=5 note=63 velocity=80 time=0
EXTRACT: note_on channel=5 note=66 velocity=80 time=0
EXTRACT: note_on channel=0 note=66 velocity=80 time=0.5
EXTRACT: note_on channel=0 note=66 velocity=0 time=0.24791666666666667
EXTRACT: note_on channel=0 note=68 velocity=80 time=0.0020833333333333333
EXTRACT: note_on channel=1 note=75 velocity=0 time=0.14791666666666667
EXTRACT: note_on channel=5 note=47 velocity=0 time=0
EXTRACT: note_on channel=5 note=59 velocity=0 time=0.05
EXTRACT: note_on channel=5 note=63 velocity=0 time=0
EXTRACT: note_on channel=5 note=66 velocity=0 time=0
EXTRACT: note_on channel=0 note=68 velocity=0 time=0.05
EXTRACT: note_on channel=2 note=70 velocity=0 time=0
EXTRACT: note_on channel=0 note=68 velocity=80 time=0.0020833333333333333
EXTRACT: note_on channel=1 note=74 velocity=80 time=0
EXTRACT: note_on channel=2 note=74 velocity=80 time=0
EXTRACT: note_on channel=5 note=59 velocity=80 time=0
EXTRACT: note_on channel=5 note=62 velocity=80 time=0
EXTRACT: note_on channel=5 note=68 velocity=80 time=0
EXTRACT: note_on channel=5 note=47 velocity=80 time=0
EXTRACT: note_on channel=0 note=68 velocity=0 time=0.24791666666666667
EXTRACT: note_on channel=0 note=66 velocity=80 time=0.0020833333333333333
EXTRACT: note_on channel=0 note=66 velocity=0 time=0.24791666666666667
EXTRACT: note_on channel=0 note=66 velocity=80 time=0.0020833333333333333
EXTRACT: note_on channel=0 note=66 velocity=0 time=0.24791666666666667
EXTRACT: note_on channel=0 note=68 velocity=80 time=0.0020833333333333333
EXTRACT: note_on channel=5 note=59 velocity=0 time=0.19791666666666666
EXTRACT: note_on channel=5 note=62 velocity=0 time=0
EXTRACT: note_on channel=5 note=68 velocity=0 time=0
EXTRACT: note_on channel=0 note=68 velocity=0 time=0.05
EXTRACT: note_on channel=0 note=68 velocity=80 time=0.0020833333333333333
EXTRACT: note_on channel=5 note=59 velocity=80 time=0
EXTRACT: note_on channel=5 note=62 velocity=80 time=0
EXTRACT: note_on channel=5 note=68 velocity=80 time=0
EXTRACT: note_on channel=0 note=68 velocity=0 time=0.4979166666666667
EXTRACT: note_on channel=0 note=66 velocity=80 time=0.0020833333333333333
EXTRACT: note_on channel=0 note=66 velocity=0 time=0.24791666666666667
EXTRACT: note_on channel=0 note=70 velocity=80 time=0.0020833333333333333
EXTRACT: note_on channel=1 note=74 velocity=0 time=0.14791666666666667
EXTRACT: note_on channel=5 note=47 velocity=0 time=0
EXTRACT: note_on channel=5 note=59 velocity=0 time=0.05
EXTRACT: note_on channel=5 note=62 velocity=0 time=0
EXTRACT: note_on channel=5 note=68 velocity=0 time=0
EXTRACT: note_on channel=2 note=74 velocity=0 time=0.05
EXTRACT: note_on channel=1 note=70 velocity=80 time=0.0020833333333333333
EXTRACT: note_on channel=2 note=66 velocity=80 time=0
EXTRACT: note_on channel=5 note=61 velocity=80 time=0
EXTRACT: note_on channel=5 note=66 velocity=80 time=0
EXTRACT: note_on channel=5 note=70 velocity=80 time=0
EXTRACT: note_on channel=5 note=54 velocity=80 time=0
EXTRACT: note_on channel=0 note=70 velocity=0 time=0.24791666666666667
EXTRACT: note_on channel=0 note=61 velocity=80 time=0.5020833333333333
EXTRACT: note_on channel=5 note=61 velocity=0 time=0.19791666666666666
EXTRACT: note_on channel=5 note=66 velocity=0 time=0
EXTRACT: note_on channel=5 note=70 velocity=0 time=0
EXTRACT: note_on channel=0 note=61 velocity=0 time=0.05
EXTRACT: note_on channel=0 note=70 velocity=80 time=0.0020833333333333333
EXTRACT: note_on channel=5 note=61 velocity=80 time=0
EXTRACT: note_on channel=5 note=66 velocity=80 time=0
EXTRACT: note_on channel=5 note=70 velocity=80 time=0
EXTRACT: note_on channel=0 note=70 velocity=0 time=0.33125
EXTRACT: note_on channel=0 note=71 velocity=80 time=0.0020833333333333333
EXTRACT: note_on channel=0 note=71 velocity=0 time=0.33125
EXTRACT: note_on channel=0 note=73 velocity=80 time=0.0020833333333333333
EXTRACT: note_on channel=1 note=70 velocity=0 time=0.23124999999999998
EXTRACT: note_on channel=5 note=54 velocity=0 time=0
EXTRACT: note_on channel=5 note=61 velocity=0 time=0.05
EXTRACT: note_on channel=5 note=66 velocity=0 time=0
EXTRACT: note_on channel=5 note=70 velocity=0 time=0
EXTRACT: note_on channel=0 note=73 velocity=0 time=0.05
EXTRACT: note_on channel=2 note=66 velocity=0 time=0
EXTRACT: note_on channel=0 note=71 velocity=80 time=0.0020833333333333333
EXTRACT: note_on channel=1 note=73 velocity=80 time=0
EXTRACT: note_on channel=2 note=68 velocity=80 time=0
EXTRACT: note_on channel=5 note=61 velocity=80 time=0
EXTRACT: note_on channel=5 note=64 velocity=80 time=0
EXTRACT: note_on channel=5 note=70 velocity=80 time=0
EXTRACT: note_on channel=5 note=52 velocity=80 time=0
EXTRACT: note_on channel=0 note=71 velocity=0 time=0.4979166666666667
EXTRACT: note_on channel=0 note=70 velocity=80 time=0.0020833333333333333
EXTRACT: note_on channel=0 note=70 velocity=0 time=0.24791666666666667
EXTRACT: note_on channel=0 note=70 velocity=80 time=0.0020833333333333333
EXTRACT: note_on channel=5 note=61 velocity=0 time=0.19791666666666666
EXTRACT: note_on channel=5 note=64 velocity=0 time=0
EXTRACT: note_on channel=5 note=70 velocity=0 time=0
EXTRACT: note_on channel=5 note=61 velocity=80 time=0.052083333333333336
EXTRACT: note_on channel=5 note=64 velocity=80 time=0
EXTRACT: note_on channel=5 note=70 velocity=80 time=0
EXTRACT: note_on channel=0 note=70 velocity=0 time=0.24791666666666667
EXTRACT: note_on channel=0 note=68 velocity=80 time=0.0020833333333333333
EXTRACT: note_on channel=0 note=68 velocity=0 time=0.24791666666666667
EXTRACT: note_on channel=0 note=66 velocity=80 time=0.0020833333333333333
EXTRACT: note_on channel=0 note=66 velocity=0 time=0.24791666666666667
EXTRACT: note_on channel=0 note=63 velocity=80 time=0.0020833333333333333
EXTRACT: note_on channel=1 note=73 velocity=0 time=0.14791666666666667
EXTRACT: note_on channel=5 note=52 velocity=0 time=0
EXTRACT: note_on channel=5 note=61 velocity=0 time=0.05
EXTRACT: note_on channel=5 note=64 velocity=0 time=0
EXTRACT: note_on channel=5 note=70 velocity=0 time=0
EXTRACT: note_on channel=0 note=63 velocity=0 time=0.05
EXTRACT: note_on channel=2 note=68 velocity=0 time=0
EXTRACT: note_on channel=0 note=70 velocity=80 time=0.0020833333333333333
EXTRACT: note_on channel=1 note=71 velocity=80 time=0
EXTRACT: note_on channel=2 note=71 velocity=80 time=0
EXTRACT: note_on channel=5 note=59 velocity=80 time=0
EXTRACT: note_on channel=5 note=63 velocity=80 time=0
EXTRACT: note_on channel=5 note=66 velocity=80 time=0
EXTRACT: note_on channel=5 note=47 velocity=80 time=0
EXTRACT: note_on channel=0 note=70 velocity=0 time=0.4979166666666667
EXTRACT: note_on channel=0 note=66 velocity=80 time=0.0020833333333333333
EXTRACT: note_on channel=5 note=59 velocity=0 time=0.4479166666666667
EXTRACT: note_on channel=5 note=63 velocity=0 time=0
EXTRACT: note_on channel=5 note=66 velocity=0 time=0
EXTRACT: note_on channel=0 note=66 velocity=0 time=0.05
EXTRACT: note_on channel=5 note=59 velocity=80 time=0.0020833333333333333
EXTRACT: note_on channel=5 note=63 velocity=80 time=0
EXTRACT: note_on channel=5 note=66 velocity=80 time=0
EXTRACT: note_on channel=0 note=66 velocity=80 time=0.5
EXTRACT: note_on channel=1 note=71 velocity=0 time=0.16041666666666665
EXTRACT: note_on channel=0 note=66 velocity=0 time=0.0875
EXTRACT: note_on channel=0 note=68 velocity=80 time=0.0020833333333333333
EXTRACT: note_on channel=1 note=70 velocity=80 time=0
EXTRACT: note_on channel=5 note=47 velocity=0 time=0.14791666666666667
EXTRACT: note_on channel=5 note=59 velocity=0 time=0.05
EXTRACT: note_on channel=5 note=63 velocity=0 time=0
EXTRACT: note_on channel=5 note=66 velocity=0 time=0
EXTRACT: note_on channel=1 note=70 velocity=0 time=0.0375
EXTRACT: note_on channel=0 note=68 velocity=0 time=0.0125
EXTRACT: note_on channel=2 note=71 velocity=0 time=0
EXTRACT: note_on channel=0 note=68 velocity=80 time=0.0020833333333333333
EXTRACT: note_on channel=1 note=68 velocity=80 time=0
EXTRACT: note_on channel=2 note=74 velocity=80 time=0
EXTRACT: note_on channel=5 note=59 velocity=80 time=0
EXTRACT: note_on channel=5 note=62 velocity=80 time=0
EXTRACT: note_on channel=5 note=68 velocity=80 time=0
EXTRACT: note_on channel=5 note=47 velocity=80 time=0
EXTRACT: note_on channel=0 note=68 velocity=0 time=0.24791666666666667
EXTRACT: note_on channel=0 note=66 velocity=80 time=0.0020833333333333333
EXTRACT: note_on channel=0 note=66 velocity=0 time=0.24791666666666667
EXTRACT: note_on channel=0 note=66 velocity=80 time=0.0020833333333333333
EXTRACT: note_on channel=0 note=66 velocity=0 time=0.24791666666666667
EXTRACT: note_on channel=0 note=68 velocity=80 time=0.0020833333333333333
EXTRACT: note_on channel=5 note=59 velocity=0 time=0.19791666666666666
EXTRACT: note_on channel=5 note=62 velocity=0 time=0
EXTRACT: note_on channel=5 note=68 velocity=0 time=0
EXTRACT: note_on channel=0 note=68 velocity=0 time=0.05
EXTRACT: note_on channel=0 note=68 velocity=80 time=0.0020833333333333333
EXTRACT: note_on channel=5 note=59 velocity=80 time=0
EXTRACT: note_on channel=5 note=62 velocity=80 time=0
EXTRACT: note_on channel=5 note=68 velocity=80 time=0
EXTRACT: note_on channel=0 note=68 velocity=0 time=0.4979166666666667
EXTRACT: note_on channel=0 note=66 velocity=80 time=0.0020833333333333333
EXTRACT: note_on channel=0 note=66 velocity=0 time=0.24791666666666667
EXTRACT: note_on channel=0 note=70 velocity=80 time=0.0020833333333333333
EXTRACT: note_on channel=1 note=68 velocity=0 time=0.14791666666666667
EXTRACT: note_on channel=5 note=47 velocity=0 time=0
EXTRACT: note_on channel=5 note=59 velocity=0 time=0.05
EXTRACT: note_on channel=5 note=62 velocity=0 time=0
EXTRACT: note_on channel=5 note=68 velocity=0 time=0
EXTRACT: note_on channel=2 note=74 velocity=0 time=0.05
EXTRACT: note_on channel=1 note=78 velocity=80 time=0.0020833333333333333
EXTRACT: note_on channel=2 note=66 velocity=80 time=0
EXTRACT: note_on channel=5 note=61 velocity=80 time=0
EXTRACT: note_on channel=5 note=66 velocity=80 time=0
EXTRACT: note_on channel=5 note=70 velocity=80 time=0
EXTRACT: note_on channel=5 note=54 velocity=80 time=0
EXTRACT: note_on channel=0 note=70 velocity=0 time=0.24791666666666667
EXTRACT: note_on channel=0 note=61 velocity=80 time=0.5020833333333333
EXTRACT: note_on channel=5 note=61 velocity=0 time=0.19791666666666666
EXTRACT: note_on channel=5 note=66 velocity=0 time=0
EXTRACT: note_on channel=5 note=70 velocity=0 time=0
EXTRACT: note_on channel=0 note=61 velocity=0 time=0.05
EXTRACT: note_on channel=0 note=61 velocity=80 time=0.0020833333333333333
EXTRACT: note_on channel=5 note=61 velocity=80 time=0
EXTRACT: note_on channel=5 note=66 velocity=80 time=0
EXTRACT: note_on channel=5 note=70 velocity=80 time=0
EXTRACT: note_on channel=0 note=61 velocity=0 time=0.24791666666666667
EXTRACT: note_on channel=0 note=63 velocity=80 time=0.0020833333333333333
EXTRACT: note_on channel=0 note=63 velocity=0 time=0.24791666666666667
EXTRACT: note_on channel=0 note=66 velocity=80 time=0.0020833333333333333
EXTRACT: note_on channel=0 note=66 velocity=0 time=0.24791666666666667
EXTRACT: note_on channel=0 note=68 velocity=80 time=0.0020833333333333333
EXTRACT: note_on channel=1 note=78 velocity=0 time=0.14791666666666667
EXTRACT: note_on channel=5 note=54 velocity=0 time=0
EXTRACT: note_on channel=5 note=61 velocity=0 time=0.05
EXTRACT: note_on channel=5 note=66 velocity=0 time=0
EXTRACT: note_on channel=5 note=70 velocity=0 time=0
EXTRACT: note_on channel=2 note=66 velocity=0 time=0.05
EXTRACT: note_on channel=1 note=76 velocity=80 time=0.0020833333333333333
EXTRACT: note_on channel=2 note=68 velocity=80 time=0
EXTRACT: note_on channel=5 note=61 velocity=80 time=0
EXTRACT: note_on channel=5 note=64 velocity=80 time=0
EXTRACT: note_on channel=5 note=70 velocity=80 time=0
EXTRACT: note_on channel=5 note=52 velocity=80 time=0
EXTRACT: note_on channel=0 note=68 velocity=0 time=0.4979166666666667
EXTRACT: note_on channel=5 note=61 velocity=0 time=0.45
EXTRACT: note_on channel=5 note=64 velocity=0 time=0
EXTRACT: note_on channel=5 note=70 velocity=0 time=0
EXTRACT: note_on channel=0 note=61 velocity=80 time=0.052083333333333336
EXTRACT: note_on channel=5 note=61 velocity=80 time=0
EXTRACT: note_on channel=5 note=64 velocity=80 time=0
EXTRACT: note_on channel=5 note=70 velocity=80 time=0
EXTRACT: note_on channel=0 note=61 velocity=0 time=0.24791666666666667
EXTRACT: note_on channel=0 note=63 velocity=80 time=0.0020833333333333333
EXTRACT: note_on channel=0 note=63 velocity=0 time=0.24791666666666667
EXTRACT: note_on channel=0 note=66 velocity=80 time=0.0020833333333333333
EXTRACT: note_on channel=0 note=66 velocity=0 time=0.24791666666666667
EXTRACT: note_on channel=0 note=68 velocity=80 time=0.0020833333333333333
EXTRACT: note_on channel=1 note=76 velocity=0 time=0.14791666666666667
EXTRACT: note_on channel=5 note=52 velocity=0 time=0
EXTRACT: note_on channel=5 note=61 velocity=0 time=0.05
EXTRACT: note_on channel=5 note=64 velocity=0 time=0
EXTRACT: note_on channel=5 note=70 velocity=0 time=0
EXTRACT: note_on channel=2 note=68 velocity=0 time=0.05
EXTRACT: note_on channel=1 note=75 velocity=80 time=0.0020833333333333333
EXTRACT: note_on channel=2 note=70 velocity=80 time=0
EXTRACT: note_on channel=5 note=59 velocity=80 time=0
EXTRACT: note_on channel=5 note=63 velocity=80 time=0
EXTRACT: note_on channel=5 note=66 velocity=80 time=0
EXTRACT: note_on channel=5 note=47 velocity=80 time=0
EXTRACT: note_on channel=0 note=68 velocity=0 time=0.4979166666666667
EXTRACT: note_on channel=5 note=59 velocity=0 time=0.45
EXTRACT: note_on channel=5 note=63 velocity=0 time=0
EXTRACT: note_on channel=5 note=66 velocity=0 time=0
EXTRACT: note_on channel=0 note=61 velocity=80 time=0.052083333333333336
EXTRACT: note_on channel=5 note=59 velocity=80 time=0
EXTRACT: note_on channel=5 note=63 velocity=80 time=0
EXTRACT: note_on channel=5 note=66 velocity=80 time=0
EXTRACT: note_on channel=0 note=61 velocity=0 time=0.24791666666666667
EXTRACT: note_on channel=0 note=63 velocity=80 time=0.0020833333333333333
EXTRACT: note_on channel=0 note=63 velocity=0 time=0.24791666666666667
EXTRACT: note_on channel=0 note=66 velocity=80 time=0.0020833333333333333
EXTRACT: note_on channel=0 note=66 velocity=0 time=0.24791666666666667
EXTRACT: note_on channel=0 note=68 velocity=80 time=0.0020833333333333333
EXTRACT: note_on channel=1 note=75 velocity=0 time=0.14791666666666667
EXTRACT: note_on channel=5 note=47 velocity=0 time=0
EXTRACT: note_on channel=5 note=59 velocity=0 time=0.05
EXTRACT: note_on channel=5 note=63 velocity=0 time=0
EXTRACT: note_on channel=5 note=66 velocity=0 time=0
EXTRACT: note_on channel=2 note=70 velocity=0 time=0.05
EXTRACT: note_on channel=1 note=74 velocity=80 time=0.0020833333333333333
EXTRACT: note_on channel=2 note=74 velocity=80 time=0
EXTRACT: note_on channel=5 note=59 velocity=80 time=0
EXTRACT: note_on channel=5 note=62 velocity=80 time=0
EXTRACT: note_on channel=5 note=68 velocity=80 time=0
EXTRACT: note_on channel=5 note=47 velocity=80 time=0
EXTRACT: note_on channel=0 note=68 velocity=0 time=0.4979166666666667
EXTRACT: note_on channel=0 note=66 velocity=80 time=0.0020833333333333333
EXTRACT: note_on channel=0 note=66 velocity=0 time=0.24791666666666667
EXTRACT: note_on channel=0 note=66 velocity=80 time=0.0020833333333333333
EXTRACT: note_on channel=5 note=59 velocity=0 time=0.19791666666666666
EXTRACT: note_on channel=5 note=62 velocity=0 time=0
EXTRACT: note_on channel=5 note=68 velocity=0 time=0
EXTRACT: note_on channel=5 note=59 velocity=80 time=0.052083333333333336
EXTRACT: note_on channel=5 note=62 velocity=80 time=0
EXTRACT: note_on channel=5 note=68 velocity=80 time=0
EXTRACT: note_on channel=0 note=66 velocity=0 time=0.4979166666666667
EXTRACT: note_on channel=0 note=61 velocity=80 time=0.0020833333333333333
EXTRACT: note_on channel=0 note=61 velocity=0 time=0.24791666666666667
EXTRACT: note_on channel=0 note=61 velocity=80 time=0.0020833333333333333
EXTRACT: note_on channel=1 note=74 velocity=0 time=0.14791666666666667
EXTRACT: note_on channel=5 note=47 velocity=0 time=0
EXTRACT: note_on channel=5 note=59 velocity=0 time=0.05
EXTRACT: note_on channel=5 note=62 velocity=0 time=0
EXTRACT: note_on channel=5 note=68 velocity=0 time=0
EXTRACT: note_on channel=2 note=74 velocity=0 time=0.05
EXTRACT: note_on channel=1 note=70 velocity=80 time=0.0020833333333333333
EXTRACT: note_on channel=2 note=66 velocity=80 time=0
EXTRACT: note_on channel=5 note=61 velocity=80 time=0
EXTRACT: note_on channel=5 note=66 velocity=80 time=0
EXTRACT: note_on channel=5 note=70 velocity=80 time=0
EXTRACT: note_on channel=5 note=54 velocity=80 time=0
EXTRACT: note_on channel=0 note=61 velocity=0 time=0.4979166666666667
EXTRACT: note_on channel=5 note=61 velocity=0 time=0.45
EXTRACT: note_on channel=5 note=66 velocity=0 time=0
EXTRACT: note_on channel=5 note=70 velocity=0 time=0
EXTRACT: note_on channel=0 note=61 velocity=80 time=0.052083333333333336
EXTRACT: note_on channel=5 note=61 velocity=80 time=0
EXTRACT: note_on channel=5 note=66 velocity=80 time=0
EXTRACT: note_on channel=5 note=70 velocity=80 time=0
EXTRACT: note_on channel=0 note=61 velocity=0 time=0.24791666666666667
EXTRACT: note_on channel=0 note=63 velocity=80 time=0.0020833333333333333
EXTRACT: note_on channel=0 note=63 velocity=0 time=0.24791666666666667
EXTRACT: note_on channel=0 note=66 velocity=80 time=0.0020833333333333333
EXTRACT: note_on channel=0 note=66 velocity=0 time=0.24791666666666667
EXTRACT: note_on channel=0 note=68 velocity=80 time=0.0020833333333333333
EXTRACT: note_on channel=1 note=70 velocity=0 time=0.14791666666666667
EXTRACT: note_on channel=5 note=54 velocity=0 time=0
EXTRACT: note_on channel=5 note=61 velocity=0 time=0.05
EXTRACT: note_on channel=5 note=66 velocity=0 time=0
EXTRACT: note_on channel=5 note=70 velocity=0 time=0
EXTRACT: note_on channel=2 note=66 velocity=0 time=0.05
EXTRACT: note_on channel=1 note=73 velocity=80 time=0.0020833333333333333
EXTRACT: note_on channel=2 note=68 velocity=80 time=0
EXTRACT: note_on channel=5 note=61 velocity=80 time=0
EXTRACT: note_on channel=5 note=64 velocity=80 time=0
EXTRACT: note_on channel=5 note=70 velocity=80 time=0
EXTRACT: note_on channel=5 note=52 velocity=80 time=0
EXTRACT: note_on channel=0 note=68 velocity=0 time=0.4979166666666667
EXTRACT: note_on channel=5 note=61 velocity=0 time=0.45
EXTRACT: note_on channel=5 note=64 velocity=0 time=0
EXTRACT: note_on channel=5 note=70 velocity=0 time=0
EXTRACT: note_on channel=0 note=61 velocity=80 time=0.052083333333333336
EXTRACT: note_on channel=5 note=61 velocity=80 time=0
EXTRACT: note_on channel=5 note=64 velocity=80 time=0
EXTRACT: note_on channel=5 note=70 velocity=80 time=0
EXTRACT: note_on channel=0 note=61 velocity=0 time=0.24791666666666667
EXTRACT: note_on channel=0 note=63 velocity=80 time=0.0020833333333333333
EXTRACT: note_on channel=0 note=63 velocity=0 time=0.24791666666666667
EXTRACT: note_on channel=0 note=66 velocity=80 time=0.0020833333333333333
EXTRACT: note_on channel=0 note=66 velocity=0 time=0.24791666666666667
EXTRACT: note_on channel=0 note=68 velocity=80 time=0.0020833333333333333
EXTRACT: note_on channel=1 note=73 velocity=0 time=0.14791666666666667
EXTRACT: note_on channel=5 note=52 velocity=0 time=0
EXTRACT: note_on channel=5 note=61 velocity=0 time=0.05
EXTRACT: note_on channel=5 note=64 velocity=0 time=0
EXTRACT: note_on channel=5 note=70 velocity=0 time=0
EXTRACT: note_on channel=2 note=68 velocity=0 time=0.05
EXTRACT: note_on channel=1 note=71 velocity=80 time=0.0020833333333333333
EXTRACT: note_on channel=2 note=71 velocity=80 time=0
EXTRACT: note_on channel=5 note=59 velocity=80 time=0
EXTRACT: note_on channel=5 note=63 velocity=80 time=0
EXTRACT: note_on channel=5 note=66 velocity=80 time=0
EXTRACT: note_on channel=5 note=47 velocity=80 time=0
EXTRACT: note_on channel=0 note=68 velocity=0 time=0.4979166666666667
EXTRACT: note_on channel=5 note=59 velocity=0 time=0.45
EXTRACT: note_on channel=5 note=63 velocity=0 time=0
EXTRACT: note_on channel=5 note=66 velocity=0 time=0
EXTRACT: note_on channel=0 note=61 velocity=80 time=0.052083333333333336
EXTRACT: note_on channel=5 note=59 velocity=80 time=0
EXTRACT: note_on channel=5 note=63 velocity=80 time=0
EXTRACT: note_on channel=5 note=66 velocity=80 time=0
EXTRACT: note_on channel=0 note=61 velocity=0 time=0.24791666666666667
EXTRACT: note_on channel=0 note=63 velocity=80 time=0.0020833333333333333
EXTRACT: note_on channel=0 note=63 velocity=0 time=0.24791666666666667
EXTRACT: note_on channel=0 note=66 velocity=80 time=0.0020833333333333333
EXTRACT: note_on channel=1 note=71 velocity=0 time=0.16041666666666665
EXTRACT: note_on channel=0 note=66 velocity=0 time=0.0875
EXTRACT: note_on channel=0 note=68 velocity=80 time=0.0020833333333333333
EXTRACT: note_on channel=1 note=70 velocity=80 time=0
EXTRACT: note_on channel=5 note=47 velocity=0 time=0.14791666666666667
EXTRACT: note_on channel=5 note=59 velocity=0 time=0.05
EXTRACT: note_on channel=5 note=63 velocity=0 time=0
EXTRACT: note_on channel=5 note=66 velocity=0 time=0
EXTRACT: note_on channel=1 note=70 velocity=0 time=0.0375
EXTRACT: note_on channel=2 note=71 velocity=0 time=0.0125
EXTRACT: note_on channel=1 note=68 velocity=80 time=0.0020833333333333333
EXTRACT: note_on channel=2 note=74 velocity=80 time=0
EXTRACT: note_on channel=5 note=59 velocity=80 time=0
EXTRACT: note_on channel=5 note=62 velocity=80 time=0
EXTRACT: note_on channel=5 note=68 velocity=80 time=0
EXTRACT: note_on channel=5 note=47 velocity=80 time=0
EXTRACT: note_on channel=0 note=68 velocity=0 time=0.4979166666666667
EXTRACT: note_on channel=0 note=66 velocity=80 time=0.0020833333333333333
EXTRACT: note_on channel=0 note=66 velocity=0 time=0.24791666666666667
EXTRACT: note_on channel=0 note=66 velocity=80 time=0.0020833333333333333
EXTRACT: note_on channel=5 note=59 velocity=0 time=0.19791666666666666
EXTRACT: note_on channel=5 note=62 velocity=0 time=0
EXTRACT: note_on channel=5 note=68 velocity=0 time=0
EXTRACT: note_on channel=5 note=59 velocity=80 time=0.052083333333333336
EXTRACT: note_on channel=5 note=62 velocity=80 time=0
EXTRACT: note_on channel=5 note=68 velocity=80 time=0
EXTRACT: note_on channel=0 note=66 velocity=0 time=0.4979166666666667
EXTRACT: note_on channel=0 note=61 velocity=80 time=0.0020833333333333333
EXTRACT: note_on channel=0 note=61 velocity=0 time=0.24791666666666667
EXTRACT: note_on channel=0 note=61 velocity=80 time=0.0020833333333333333
EXTRACT: note_on channel=1 note=68 velocity=0 time=0.14791666666666667
EXTRACT: note_on channel=5 note=47 velocity=0 time=0
EXTRACT: note_on channel=5 note=59 velocity=0 time=0.05
EXTRACT: note_on channel=5 note=62 velocity=0 time=0
EXTRACT: note_on channel=5 note=68 velocity=0 time=0
EXTRACT: note_on channel=2 note=74 velocity=0 time=0.05
EXTRACT: note_on channel=1 note=78 velocity=80 time=0.0020833333333333333
EXTRACT: note_on channel=5 note=61 velocity=80 time=0
EXTRACT: note_on channel=5 note=66 velocity=80 time=0
EXTRACT: note_on channel=5 note=70 velocity=80 time=0
EXTRACT: note_on channel=5 note=54 velocity=80 time=0
EXTRACT: note_on channel=0 note=61 velocity=0 time=0.4979166666666667
EXTRACT: note_on channel=0 note=70 velocity=80 time=0.2520833333333333
EXTRACT: note_on channel=5 note=61 velocity=0 time=0.19791666666666666
EXTRACT: note_on channel=5 note=66 velocity=0 time=0
EXTRACT: note_on channel=5 note=70 velocity=0 time=0
EXTRACT: note_on channel=0 note=70 velocity=0 time=0.05
EXTRACT: note_on channel=0 note=70 velocity=80 time=0.0020833333333333333
EXTRACT: note_on channel=5 note=61 velocity=80 time=0
EXTRACT: note_on channel=5 note=66 velocity=80 time=0
EXTRACT: note_on channel=5 note=70 velocity=80 time=0
EXTRACT: note_on channel=0 note=70 velocity=0 time=0.33125
EXTRACT: note_on channel=0 note=68 velocity=80 time=0.0020833333333333333
EXTRACT: note_on channel=0 note=68 velocity=0 time=0.33125
EXTRACT: note_on channel=0 note=66 velocity=80 time=0.0020833333333333333
EXTRACT: note_on channel=1 note=78 velocity=0 time=0.23124999999999998
EXTRACT: note_on channel=5 note=54 velocity=0 time=0
EXTRACT: note_on channel=5 note=61 velocity=0 time=0.05
EXTRACT: note_on channel=5 note=66 velocity=0 time=0
EXTRACT: note_on channel=5 note=70 velocity=0 time=0
EXTRACT: note_on channel=0 note=66 velocity=0 time=0.05
EXTRACT: note_on channel=0 note=70 velocity=80 time=0.0020833333333333333
EXTRACT: note_on channel=1 note=76 velocity=80 time=0
EXTRACT: note_on channel=5 note=61 velocity=80 time=0
EXTRACT: note_on channel=5 note=64 velocity=80 time=0
EXTRACT: note_on channel=5 note=70 velocity=80 time=0
EXTRACT: note_on channel=5 note=52 velocity=80 time=0
EXTRACT: note_on channel=5 note=61 velocity=0 time=0.9479166666666666
EXTRACT: note_on channel=5 note=64 velocity=0 time=0
EXTRACT: note_on channel=5 note=70 velocity=0 time=0
EXTRACT: note_on channel=0 note=70 velocity=0 time=0.05
EXTRACT: note_on channel=0 note=66 velocity=80 time=0.0020833333333333333
EXTRACT: note_on channel=5 note=61 velocity=80 time=0
EXTRACT: note_on channel=5 note=64 velocity=80 time=0
EXTRACT: note_on channel=5 note=70 velocity=80 time=0
EXTRACT: note_on channel=1 note=76 velocity=0 time=0.8979166666666667
EXTRACT: note_on channel=5 note=52 velocity=0 time=0
EXTRACT: note_on channel=5 note=61 velocity=0 time=0.05
EXTRACT: note_on channel=5 note=64 velocity=0 time=0
EXTRACT: note_on channel=5 note=70 velocity=0 time=0
EXTRACT: note_on channel=0 note=66 velocity=0 time=0.05
EXTRACT: note_on channel=0 note=68 velocity=80 time=0.0020833333333333333
EXTRACT: note_on channel=1 note=75 velocity=80 time=0
EXTRACT: note_on channel=5 note=59 velocity=80 time=0
EXTRACT: note_on channel=5 note=63 velocity=80 time=0
EXTRACT: note_on channel=5 note=66 velocity=80 time=0
EXTRACT: note_on channel=5 note=47 velocity=80 time=0
EXTRACT: note_on channel=0 note=68 velocity=0 time=0.24791666666666667
EXTRACT: note_on channel=0 note=70 velocity=80 time=0.0020833333333333333
EXTRACT: note_on channel=0 note=70 velocity=0 time=0.24791666666666667
EXTRACT: note_on channel=0 note=68 velocity=80 time=0.0020833333333333333
EXTRACT: note_on channel=5 note=59 velocity=0 time=0.4479166666666667
EXTRACT: note_on channel=5 note=63 velocity=0 time=0
EXTRACT: note_on channel=5 note=66 velocity=0 time=0
EXTRACT: note_on channel=5 note=59 velocity=80 time=0.052083333333333336
EXTRACT: note_on channel=5 note=63 velocity=80 time=0
EXTRACT: note_on channel=5 note=66 velocity=80 time=0
EXTRACT: note_on channel=0 note=68 velocity=0 time=0.24791666666666667
EXTRACT: note_on channel=0 note=66 velocity=80 time=0.0020833333333333333
EXTRACT: note_on channel=0 note=66 velocity=0 time=0.24791666666666667
EXTRACT: note_on channel=0 note=63 velocity=80 time=0.0020833333333333333
EXTRACT: note_on channel=0 note=63 velocity=0 time=0.24791666666666667
EXTRACT: note_on channel=0 note=61 velocity=80 time=0.0020833333333333333
EXTRACT: note_on channel=1 note=75 velocity=0 time=0.14791666666666667
EXTRACT: note_on channel=5 note=47 velocity=0 time=0
EXTRACT: note_on channel=5 note=59 velocity=0 time=0.05
EXTRACT: note_on channel=5 note=63 velocity=0 time=0
EXTRACT: note_on channel=5 note=66 velocity=0 time=0
EXTRACT: note_on channel=0 note=61 velocity=0 time=0.05
EXTRACT: note_on channel=0 note=70 velocity=80 time=0.0020833333333333333
EXTRACT: note_on channel=1 note=74 velocity=80 time=0
EXTRACT: note_on channel=5 note=59 velocity=80 time=0
EXTRACT: note_on channel=5 note=62 velocity=80 time=0
EXTRACT: note_on channel=5 note=68 velocity=80 time=0
EXTRACT: note_on channel=5 note=47 velocity=80 time=0
EXTRACT: note_on channel=5 note=59 velocity=0 time=0.9479166666666666
EXTRACT: note_on channel=5 note=62 velocity=0 time=0
EXTRACT: note_on channel=5 note=68 velocity=0 time=0
EXTRACT: note_on channel=0 note=70 velocity=0 time=0.05
EXTRACT: note_on channel=0 note=68 velocity=80 time=0.0020833333333333333
EXTRACT: note_on channel=5 note=59 velocity=80 time=0
EXTRACT: note_on channel=5 note=62 velocity=80 time=0
EXTRACT: note_on channel=5 note=68 velocity=80 time=0
EXTRACT: note_on channel=1 note=74 velocity=0 time=0.8979166666666667
EXTRACT: note_on channel=5 note=47 velocity=0 time=0
EXTRACT: note_on channel=5 note=59 velocity=0 time=0.05
EXTRACT: note_on channel=5 note=62 velocity=0 time=0
EXTRACT: note_on channel=5 note=68 velocity=0 time=0
EXTRACT: note_on channel=0 note=68 velocity=0 time=0.05
EXTRACT: note_on channel=1 note=70 velocity=80 time=0.0020833333333333333
EXTRACT: note_on channel=5 note=61 velocity=80 time=0
EXTRACT: note_on channel=5 note=66 velocity=80 time=0
EXTRACT: note_on channel=5 note=70 velocity=80 time=0
EXTRACT: note_on channel=5 note=54 velocity=80 time=0
EXTRACT: note_on channel=0 note=70 velocity=80 time=0.75
EXTRACT: note_on channel=5 note=61 velocity=0 time=0.19791666666666666
EXTRACT: note_on channel=5 note=66 velocity=0 time=0
EXTRACT: note_on channel=5 note=70 velocity=0 time=0
EXTRACT: note_on channel=0 note=70 velocity=0 time=0.05
EXTRACT: note_on channel=0 note=70 velocity=80 time=0.0020833333333333333
EXTRACT: note_on channel=5 note=61 velocity=80 time=0
EXTRACT: note_on channel=5 note=66 velocity=80 time=0
EXTRACT: note_on channel=5 note=70 velocity=80 time=0
EXTRACT: note_on channel=0 note=70 velocity=0 time=0.33125
EXTRACT: note_on channel=0 note=68 velocity=80 time=0.0020833333333333333
EXTRACT: note_on channel=0 note=68 velocity=0 time=0.33125
EXTRACT: note_on channel=0 note=66 velocity=80 time=0.0020833333333333333
EXTRACT: note_on channel=1 note=70 velocity=0 time=0.23124999999999998
EXTRACT: note_on channel=5 note=54 velocity=0 time=0
EXTRACT: note_on channel=5 note=61 velocity=0 time=0.05
EXTRACT: note_on channel=5 note=66 velocity=0 time=0
EXTRACT: note_on channel=5 note=70 velocity=0 time=0
EXTRACT: note_on channel=0 note=66 velocity=0 time=0.05
EXTRACT: note_on channel=0 note=70 velocity=80 time=0.0020833333333333333
EXTRACT: note_on channel=1 note=73 velocity=80 time=0
EXTRACT: note_on channel=5 note=61 velocity=80 time=0
EXTRACT: note_on channel=5 note=64 velocity=80 time=0
EXTRACT: note_on channel=5 note=70 velocity=80 time=0
EXTRACT: note_on channel=5 note=52 velocity=80 time=0
EXTRACT: note_on channel=5 note=61 velocity=0 time=0.9479166666666666
EXTRACT: note_on channel=5 note=64 velocity=0 time=0
EXTRACT: note_on channel=5 note=70 velocity=0 time=0
EXTRACT: note_on channel=0 note=70 velocity=0 time=0.05
EXTRACT: note_on channel=5 note=61 velocity=80 time=0.0020833333333333333
EXTRACT: note_on channel=5 note=64 velocity=80 time=0
EXTRACT: note_on channel=5 note=70 velocity=80 time=0
EXTRACT: note_on channel=0 note=66 velocity=80 time=0.75
EXTRACT: note_on channel=1 note=73 velocity=0 time=0.14791666666666667
EXTRACT: note_on channel=5 note=52 velocity=0 time=0
EXTRACT: note_on channel=5 note=61 velocity=0 time=0.05
EXTRACT: note_on channel=5 note=64 velocity=0 time=0
EXTRACT: note_on channel=5 note=70 velocity=0 time=0
EXTRACT: note_on channel=0 note=66 velocity=0 time=0.05
EXTRACT: note_on channel=0 note=68 velocity=80 time=0.0020833333333333333
EXTRACT: note_on channel=1 note=71 velocity=80 time=0
EXTRACT: note_on channel=5 note=59 velocity=80 time=0
EXTRACT: note_on channel=5 note=63 velocity=80 time=0
EXTRACT: note_on channel=5 note=66 velocity=80 time=0
EXTRACT: note_on channel=5 note=47 velocity=80 time=0
EXTRACT: note_on channel=0 note=68 velocity=0 time=0.24791666666666667
EXTRACT: note_on channel=0 note=70 velocity=80 time=0.0020833333333333333
EXTRACT: note_on channel=0 note=70 velocity=0 time=0.24791666666666667
EXTRACT: note_on channel=0 note=68 velocity=80 time=0.0020833333333333333
EXTRACT: note_on channel=5 note=59 velocity=0 time=0.4479166666666667
EXTRACT: note_on channel=5 note=63 velocity=0 time=0
EXTRACT: note_on channel=5 note=66 velocity=0 time=0
EXTRACT: note_on channel=5 note=59 velocity=80 time=0.052083333333333336
EXTRACT: note_on channel=5 note=63 velocity=80 time=0
EXTRACT: note_on channel=5 note=66 velocity=80 time=0
EXTRACT: note_on channel=0 note=68 velocity=0 time=0.24791666666666667
EXTRACT: note_on channel=0 note=66 velocity=80 time=0.0020833333333333333
EXTRACT: note_on channel=0 note=66 velocity=0 time=0.24791666666666667
EXTRACT: note_on channel=0 note=63 velocity=80 time=0.0020833333333333333
EXTRACT: note_on channel=1 note=71 velocity=0 time=0.16041666666666665
EXTRACT: note_on channel=0 note=63 velocity=0 time=0.0875
EXTRACT: note_on channel=0 note=61 velocity=80 time=0.0020833333333333333
EXTRACT: note_on channel=1 note=70 velocity=80 time=0
EXTRACT: note_on channel=5 note=47 velocity=0 time=0.14791666666666667
EXTRACT: note_on channel=5 note=59 velocity=0 time=0.05
EXTRACT: note_on channel=5 note=63 velocity=0 time=0
EXTRACT: note_on channel=5 note=66 velocity=0 time=0
EXTRACT: note_on channel=1 note=70 velocity=0 time=0.0375
EXTRACT: note_on channel=0 note=61 velocity=0 time=0.0125
EXTRACT: note_on channel=0 note=73 velocity=80 time=0.0020833333333333333
EXTRACT: note_on channel=1 note=68 velocity=80 time=0
EXTRACT: note_on channel=5 note=59 velocity=80 time=0
EXTRACT: note_on channel=5 note=62 velocity=80 time=0
EXTRACT: note_on channel=5 note=68 velocity=80 time=0
EXTRACT: note_on channel=5 note=47 velocity=80 time=0
EXTRACT: note_on channel=5 note=59 velocity=0 time=0.9479166666666666
EXTRACT: note_on channel=5 note=62 velocity=0 time=0
EXTRACT: note_on channel=5 note=68 velocity=0 time=0
EXTRACT: note_on channel=0 note=73 velocity=0 time=0.05
EXTRACT: note_on channel=0 note=71 velocity=80 time=0.0020833333333333333
EXTRACT: note_on channel=5 note=59 velocity=80 time=0
EXTRACT: note_on channel=5 note=62 velocity=80 time=0
EXTRACT: note_on channel=5 note=68 velocity=80 time=0
EXTRACT: note_on channel=0 note=71 velocity=0 time=0.7479166666666667
EXTRACT: note_on channel=0 note=70 velocity=80 time=0.0020833333333333333
EXTRACT: note_on channel=1 note=68 velocity=0 time=0.14791666666666667
EXTRACT: note_on channel=5 note=47 velocity=0 time=0
EXTRACT: note_on channel=5 note=59 velocity=0 time=0.05
EXTRACT: note_on channel=5 note=62 velocity=0 time=0
EXTRACT: note_on channel=5 note=68 velocity=0 time=0
EXTRACT: note_on channel=0 note=70 velocity=0 time=0.05
EXTRACT: note_on channel=0 note=70 velocity=80 time=0.0020833333333333333
EXTRACT: note_on channel=1 note=78 velocity=80 time=0
EXTRACT: note_on channel=2 note=66 velocity=80 time=0
EXTRACT: note_on channel=5 note=61 velocity=80 time=0
EXTRACT: note_on channel=5 note=66 velocity=80 time=0
EXTRACT: note_on channel=5 note=70 velocity=80 time=0
EXTRACT: note_on channel=5 note=54 velocity=80 time=0
EXTRACT: note_on channel=0 note=70 velocity=0 time=0.3729166666666667
EXTRACT: note_on channel=0 note=68 velocity=80 time=0.0020833333333333333
EXTRACT: note_on channel=0 note=68 velocity=0 time=0.12291666666666666
EXTRACT: note_on channel=0 note=66 velocity=80 time=0.0020833333333333333
EXTRACT: note_on channel=0 note=66 velocity=0 time=0.3729166666666667
EXTRACT: note_on channel=0 note=63 velocity=80 time=0.0020833333333333333
EXTRACT: note_on channel=5 note=61 velocity=0 time=0.07291666666666667
EXTRACT: note_on channel=5 note=66 velocity=0 time=0
EXTRACT: note_on channel=5 note=70 velocity=0 time=0
EXTRACT: note_on channel=0 note=63 velocity=0 time=0.05
EXTRACT: note_on channel=0 note=61 velocity=80 time=0.0020833333333333333
EXTRACT: note_on channel=5 note=61 velocity=80 time=0
EXTRACT: note_on channel=5 note=66 velocity=80 time=0
EXTRACT: note_on channel=5 note=70 velocity=80 time=0
EXTRACT: note_on channel=1 note=78 velocity=0 time=0.8979166666666667
EXTRACT: note_on channel=5 note=54 velocity=0 time=0
EXTRACT: note_on channel=5 note=61 velocity=0 time=0.05
EXTRACT: note_on channel=5 note=66 velocity=0 time=0
EXTRACT: note_on channel=5 note=70 velocity=0 time=0
EXTRACT: note_on channel=0 note=61 velocity=0 time=0.05
EXTRACT: note_on channel=2 note=66 velocity=0 time=0
EXTRACT: note_on channel=1 note=76 velocity=80 time=0.0020833333333333333
EXTRACT: note_on channel=2 note=68 velocity=80 time=0
EXTRACT: note_on channel=5 note=61 velocity=80 time=0
EXTRACT: note_on channel=5 note=64 velocity=80 time=0
EXTRACT: note_on channel=5 note=70 velocity=80 time=0
EXTRACT: note_on channel=5 note=52 velocity=80 time=0
EXTRACT: note_on channel=0 note=70 velocity=80 time=0.75
EXTRACT: note_on channel=5 note=61 velocity=0 time=0.19791666666666666
EXTRACT: note_on channel=5 note=64 velocity=0 time=0
EXTRACT: note_on channel=5 note=70 velocity=0 time=0
EXTRACT: note_on channel=0 note=70 velocity=0 time=0.05
EXTRACT: note_on channel=0 note=70 velocity=80 time=0.0020833333333333333
EXTRACT: note_on channel=5 note=61 velocity=80 time=0
EXTRACT: note_on channel=5 note=64 velocity=80 time=0
EXTRACT: note_on channel=5 note=70 velocity=80 time=0
EXTRACT: note_on channel=0 note=70 velocity=0 time=0.3729166666666667
EXTRACT: note_on channel=0 note=68 velocity=80 time=0.0020833333333333333
EXTRACT: note_on channel=0 note=68 velocity=0 time=0.3729166666666667
EXTRACT: note_on channel=1 note=76 velocity=0 time=0.15
EXTRACT: note_on channel=5 note=52 velocity=0 time=0
EXTRACT: note_on channel=5 note=61 velocity=0 time=0.05
EXTRACT: note_on channel=5 note=64 velocity=0 time=0
EXTRACT: note_on channel=5 note=70 velocity=0 time=0
EXTRACT: note_on channel=2 note=68 velocity=0 time=0.05
EXTRACT: note_on channel=0 note=70 velocity=80 time=0.0020833333333333333
EXTRACT: note_on channel=1 note=75 velocity=80 time=0
EXTRACT: note_on channel=2 note=70 velocity=80 time=0
EXTRACT: note_on channel=5 note=59 velocity=80 time=0
EXTRACT: note_on channel=5 note=63 velocity=80 time=0
EXTRACT: note_on channel=5 note=66 velocity=80 time=0
EXTRACT: note_on channel=5 note=47 velocity=80 time=0
EXTRACT: note_on channel=0 note=70 velocity=0 time=0.3729166666666667
EXTRACT: note_on channel=0 note=66 velocity=80 time=0.0020833333333333333
EXTRACT: note_on channel=0 note=66 velocity=0 time=0.12291666666666666
EXTRACT: note_on channel=0 note=63 velocity=80 time=0.0020833333333333333
EXTRACT: note_on channel=0 note=63 velocity=0 time=0.3729166666666667
EXTRACT: note_on channel=0 note=61 velocity=80 time=0.0020833333333333333
EXTRACT: note_on channel=5 note=59 velocity=0 time=0.07291666666666667
EXTRACT: note_on channel=5 note=63 velocity=0 time=0
EXTRACT: note_on channel=5 note=66 velocity=0 time=0
EXTRACT: note_on channel=0 note=61 velocity=0 time=0.05
EXTRACT: note_on channel=0 note=58 velocity=80 time=0.0020833333333333333
EXTRACT: note_on channel=5 note=59 velocity=80 time=0
EXTRACT: note_on channel=5 note=63 velocity=80 time=0
EXTRACT: note_on channel=5 note=66 velocity=80 time=0
EXTRACT: note_on channel=0 note=58 velocity=0 time=0.7479166666666667
EXTRACT: note_on channel=0 note=58 velocity=80 time=0.0020833333333333333
EXTRACT: note_on channel=0 note=58 velocity=0 time=0.12291666666666666
EXTRACT: note_on channel=0 note=56 velocity=80 time=0.0020833333333333333
EXTRACT: note_on channel=1 note=75 velocity=0 time=0.022916666666666665
EXTRACT: note_on channel=5 note=47 velocity=0 time=0
EXTRACT: note_on channel=5 note=59 velocity=0 time=0.05
EXTRACT: note_on channel=5 note=63 velocity=0 time=0
EXTRACT: note_on channel=5 note=66 velocity=0 time=0
EXTRACT: note_on channel=0 note=56 velocity=0 time=0.05
EXTRACT: note_on channel=2 note=70 velocity=0 time=0
EXTRACT: note_on channel=0 note=56 velocity=80 time=0.0020833333333333333
EXTRACT: note_on channel=1 note=74 velocity=80 time=0
EXTRACT: note_on channel=2 note=74 velocity=80 time=0
EXTRACT: note_on channel=5 note=59 velocity=80 time=0
EXTRACT: note_on channel=5 note=62 velocity=80 time=0
EXTRACT: note_on channel=5 note=68 velocity=80 time=0
EXTRACT: note_on channel=5 note=47 velocity=80 time=0
EXTRACT: note_on channel=0 note=56 velocity=0 time=0.4979166666666667
EXTRACT: note_on channel=0 note=54 velocity=80 time=0.0020833333333333333
EXTRACT: note_on channel=5 note=59 velocity=0 time=0.4479166666666667
EXTRACT: note_on channel=5 note=62 velocity=0 time=0
EXTRACT: note_on channel=5 note=68 velocity=0 time=0
EXTRACT: note_on channel=0 note=54 velocity=0 time=0.05
EXTRACT: note_on channel=0 note=73 velocity=80 time=0.0020833333333333333
EXTRACT: note_on channel=5 note=59 velocity=80 time=0
EXTRACT: note_on channel=5 note=62 velocity=80 time=0
EXTRACT: note_on channel=5 note=68 velocity=80 time=0
EXTRACT: note_on channel=0 note=73 velocity=0 time=0.24791666666666667
EXTRACT: note_on channel=0 note=71 velocity=80 time=0.0020833333333333333
EXTRACT: note_on channel=0 note=71 velocity=0 time=0.24791666666666667
EXTRACT: note_on channel=0 note=70 velocity=80 time=0.0020833333333333333
EXTRACT: note_on channel=0 note=70 velocity=0 time=0.24791666666666667
EXTRACT: note_on channel=0 note=68 velocity=80 time=0.0020833333333333333
EXTRACT: note_on channel=1 note=74 velocity=0 time=0.14791666666666667
EXTRACT: note_on channel=5 note=47 velocity=0 time=0
EXTRACT: note_on channel=5 note=59 velocity=0 time=0.05
EXTRACT: note_on channel=5 note=62 velocity=0 time=0
EXTRACT: note_on channel=5 note=68 velocity=0 time=0
EXTRACT: note_on channel=0 note=68 velocity=0 time=0.05
EXTRACT: note_on channel=2 note=74 velocity=0 time=0
EXTRACT: note_on channel=0 note=66 velocity=80 time=0.0020833333333333333
EXTRACT: note_on channel=1 note=70 velocity=80 time=0
EXTRACT: note_on channel=2 note=66 velocity=80 time=0
EXTRACT: note_on channel=5 note=61 velocity=80 time=0
EXTRACT: note_on channel=5 note=66 velocity=80 time=0
EXTRACT: note_on channel=5 note=70 velocity=80 time=0
EXTRACT: note_on channel=5 note=54 velocity=80 time=0
EXTRACT: note_on channel=0 note=66 velocity=0 time=0.4979166666666667
EXTRACT: note_on channel=0 note=68 velocity=80 time=0.0020833333333333333
EXTRACT: note_on channel=0 note=68 velocity=0 time=0.24791666666666667
EXTRACT: note_on channel=0 note=70 velocity=80 time=0.0020833333333333333
EXTRACT: note_on channel=5 note=61 velocity=0 time=0.19791666666666666
EXTRACT: note_on channel=5 note=66 velocity=0 time=0
EXTRACT: note_on channel=5 note=70 velocity=0 time=0
EXTRACT: note_on channel=5 note=61 velocity=80 time=0.052083333333333336
EXTRACT: note_on channel=5 note=66 velocity=80 time=0
EXTRACT: note_on channel=5 note=70 velocity=80 time=0
EXTRACT: note_on channel=0 note=70 velocity=0 time=0.4979166666666667
EXTRACT: note_on channel=0 note=66 velocity=80 time=0.0020833333333333333
EXTRACT: note_on channel=0 note=66 velocity=0 time=0.24791666666666667
EXTRACT: note_on channel=0 note=66 velocity=80 time=0.0020833333333333333
EXTRACT: note_on channel=1 note=70 velocity=0 time=0.14791666666666667
EXTRACT: note_on channel=5 note=54 velocity=0 time=0
EXTRACT: note_on channel=5 note=61 velocity=0 time=0.05
EXTRACT: note_on channel=5 note=66 velocity=0 time=0
EXTRACT: note_on channel=5 note=70 velocity=0 time=0
EXTRACT: note_on channel=2 note=66 velocity=0 time=0.05
EXTRACT: note_on channel=1 note=73 velocity=80 time=0.0020833333333333333
EXTRACT: note_on channel=2 note=68 velocity=80 time=0
EXTRACT: note_on channel=5 note=61 velocity=80 time=0
EXTRACT: note_on channel=5 note=64 velocity=80 time=0
EXTRACT: note_on channel=5 note=70 velocity=80 time=0
EXTRACT: note_on channel=5 note=52 velocity=80 time=0
EXTRACT: note_on channel=0 note=66 velocity=0 time=0.7479166666666667
EXTRACT: note_on channel=5 note=61 velocity=0 time=0.2
EXTRACT: note_on channel=5 note=64 velocity=0 time=0
EXTRACT: note_on channel=5 note=70 velocity=0 time=0
EXTRACT: note_on channel=5 note=61 velocity=80 time=0.052083333333333336
EXTRACT: note_on channel=5 note=64 velocity=80 time=0
EXTRACT: note_on channel=5 note=70 velocity=80 time=0
EXTRACT: note_on channel=0 note=61 velocity=80 time=0.25
EXTRACT: note_on channel=0 note=61 velocity=0 time=0.24791666666666667
EXTRACT: note_on channel=0 note=63 velocity=80 time=0.0020833333333333333
EXTRACT: note_on channel=0 note=63 velocity=0 time=0.24791666666666667
EXTRACT: note_on channel=0 note=66 velocity=80 time=0.0020833333333333333
EXTRACT: note_on channel=1 note=73 velocity=0 time=0.14791666666666667
EXTRACT: note_on channel=5 note=52 velocity=0 time=0
EXTRACT: note_on channel=5 note=61 velocity=0 time=0.05
EXTRACT: note_on channel=5 note=64 velocity=0 time=0
EXTRACT: note_on channel=5 note=70 velocity=0 time=0
EXTRACT: note_on channel=0 note=66 velocity=0 time=0.05
EXTRACT: note_on channel=2 note=68 velocity=0 time=0
EXTRACT: note_on channel=0 note=68 velocity=80 time=0.0020833333333333333
EXTRACT: note_on channel=1 note=71 velocity=80 time=0
EXTRACT: note_on channel=2 note=71 velocity=80 time=0
EXTRACT: note_on channel=5 note=59 velocity=80 time=0
EXTRACT: note_on channel=5 note=63 velocity=80 time=0
EXTRACT: note_on channel=5 note=66 velocity=80 time=0
EXTRACT: note_on channel=5 note=47 velocity=80 time=0
EXTRACT: note_on channel=0 note=68 velocity=0 time=0.24791666666666667
EXTRACT: note_on channel=0 note=70 velocity=80 time=0.0020833333333333333
EXTRACT: note_on channel=0 note=70 velocity=0 time=0.24791666666666667
EXTRACT: note_on channel=0 note=68 velocity=80 time=0.0020833333333333333
EXTRACT: note_on channel=0 note=68 velocity=0 time=0.24791666666666667
EXTRACT: note_on channel=0 note=66 velocity=80 time=0.0020833333333333333
EXTRACT: note_on channel=5 note=59 velocity=0 time=0.19791666666666666
EXTRACT: note_on channel=5 note=63 velocity=0 time=0
EXTRACT: note_on channel=5 note=66 velocity=0 time=0
EXTRACT: note_on channel=0 note=66 velocity=0 time=0.05
EXTRACT: note_on channel=0 note=68 velocity=80 time=0.0020833333333333333
EXTRACT: note_on channel=5 note=59 velocity=80 time=0
EXTRACT: note_on channel=5 note=63 velocity=80 time=0
EXTRACT: note_on channel=5 note=66 velocity=80 time=0
EXTRACT: note_on channel=0 note=68 velocity=0 time=0.4979166666666667
EXTRACT: note_on channel=0 note=66 velocity=80 time=0.0020833333333333333
EXTRACT: note_on channel=1 note=71 velocity=0 time=0.16041666666666665
EXTRACT: note_on channel=0 note=66 velocity=0 time=0.0875
EXTRACT: note_on channel=0 note=68 velocity=80 time=0.0020833333333333333
EXTRACT: note_on channel=1 note=70 velocity=80 time=0
EXTRACT: note_on channel=0 note=68 velocity=0 time=0.12291666666666666
EXTRACT: note_on channel=0 note=66 velocity=80 time=0.0020833333333333333
EXTRACT: note_on channel=5 note=47 velocity=0 time=0.022916666666666665
EXTRACT: note_on channel=5 note=59 velocity=0 time=0.05
EXTRACT: note_on channel=5 note=63 velocity=0 time=0
EXTRACT: note_on channel=5 note=66 velocity=0 time=0
EXTRACT: note_on channel=1 note=70 velocity=0 time=0.0375
EXTRACT: note_on channel=0 note=66 velocity=0 time=0.0125
EXTRACT: note_on channel=2 note=71 velocity=0 time=0
EXTRACT: note_on channel=0 note=62 velocity=80 time=0.0020833333333333333
EXTRACT: note_on channel=1 note=68 velocity=80 time=0
EXTRACT: note_on channel=2 note=74 velocity=80 time=0
EXTRACT: note_on channel=5 note=59 velocity=80 time=0
EXTRACT: note_on channel=5 note=62 velocity=80 time=0
EXTRACT: note_on channel=5 note=68 velocity=80 time=0
EXTRACT: note_on channel=5 note=47 velocity=80 time=0
EXTRACT: note_on channel=0 note=62 velocity=0 time=0.4979166666666667
EXTRACT: note_on channel=0 note=61 velocity=80 time=0.2520833333333333
EXTRACT: note_on channel=5 note=59 velocity=0 time=0.19791666666666666
EXTRACT: note_on channel=5 note=62 velocity=0 time=0
EXTRACT: note_on channel=5 note=68 velocity=0 time=0
EXTRACT: note_on channel=0 note=61 velocity=0 time=0.05
EXTRACT: note_on channel=0 note=71 velocity=80 time=0.0020833333333333333
EXTRACT: note_on channel=5 note=59 velocity=80 time=0
EXTRACT: note_on channel=5 note=62 velocity=80 time=0
EXTRACT: note_on channel=5 note=68 velocity=80 time=0
EXTRACT: note_on channel=0 note=71 velocity=0 time=0.33125
EXTRACT: note_on channel=0 note=70 velocity=80 time=0.0020833333333333333
EXTRACT: note_on channel=0 note=70 velocity=0 time=0.33125
EXTRACT: note_on channel=0 note=68 velocity=80 time=0.0020833333333333333
EXTRACT: note_on channel=1 note=68 velocity=0 time=0.23124999999999998
EXTRACT: note_on channel=5 note=47 velocity=0 time=0
EXTRACT: note_on channel=5 note=59 velocity=0 time=0.05
EXTRACT: note_on channel=5 note=62 velocity=0 time=0
EXTRACT: note_on channel=5 note=68 velocity=0 time=0
EXTRACT: note_on channel=0 note=68 velocity=0 time=0.05
EXTRACT: note_on channel=2 note=74 velocity=0 time=0
EXTRACT: note_on channel=0 note=70 velocity=80 time=0.0020833333333333333
EXTRACT: note_on channel=1 note=78 velocity=80 time=0
EXTRACT: note_on channel=2 note=66 velocity=80 time=0
EXTRACT: note_on channel=5 note=61 velocity=80 time=0
EXTRACT: note_on channel=5 note=66 velocity=80 time=0
EXTRACT: note_on channel=5 note=70 velocity=80 time=0
EXTRACT: note_on channel=5 note=54 velocity=80 time=0
EXTRACT: note_on channel=0 note=70 velocity=0 time=0.12291666666666666
EXTRACT: note_on channel=0 note=68 velocity=80 time=0.0020833333333333333
EXTRACT: note_on channel=0 note=68 velocity=0 time=0.12291666666666666
EXTRACT: note_on channel=0 note=66 velocity=80 time=0.0020833333333333333
EXTRACT: note_on channel=0 note=66 velocity=0 time=0.24791666666666667
EXTRACT: note_on channel=0 note=61 velocity=80 time=0.2520833333333333
EXTRACT: note_on channel=5 note=61 velocity=0 time=0.19791666666666666
EXTRACT: note_on channel=5 note=66 velocity=0 time=0
EXTRACT: note_on channel=5 note=70 velocity=0 time=0
EXTRACT: note_on channel=0 note=61 velocity=0 time=0.05
EXTRACT: note_on channel=0 note=70 velocity=80 time=0.0020833333333333333
EXTRACT: note_on channel=5 note=61 velocity=80 time=0
EXTRACT: note_on channel=5 note=66 velocity=80 time=0
EXTRACT: note_on channel=5 note=70 velocity=80 time=0
EXTRACT: note_on channel=0 note=70 velocity=0 time=0.33125
EXTRACT: note_on channel=0 note=71 velocity=80 time=0.0020833333333333333
EXTRACT: note_on channel=0 note=71 velocity=0 time=0.33125
EXTRACT: note_on channel=0 note=73 velocity=80 time=0.0020833333333333333
EXTRACT: note_on channel=1 note=78 velocity=0 time=0.23124999999999998
EXTRACT: note_on channel=5 note=54 velocity=0 time=0
EXTRACT: note_on channel=5 note=61 velocity=0 time=0.05
EXTRACT: note_on channel=5 note=66 velocity=0 time=0
EXTRACT: note_on channel=5 note=70 velocity=0 time=0
EXTRACT: note_on channel=0 note=73 velocity=0 time=0.05
EXTRACT: note_on channel=2 note=66 velocity=0 time=0
EXTRACT: note_on channel=0 note=71 velocity=80 time=0.0020833333333333333
EXTRACT: note_on channel=1 note=76 velocity=80 time=0
EXTRACT: note_on channel=2 note=68 velocity=80 time=0
EXTRACT: note_on channel=5 note=61 velocity=80 time=0
EXTRACT: note_on channel=5 note=64 velocity=80 time=0
EXTRACT: note_on channel=5 note=70 velocity=80 time=0
EXTRACT: note_on channel=5 note=52 velocity=80 time=0
EXTRACT: note_on channel=0 note=71 velocity=0 time=0.4979166666666667
EXTRACT: note_on channel=0 note=70 velocity=80 time=0.0020833333333333333
EXTRACT: note_on channel=0 note=70 velocity=0 time=0.24791666666666667
EXTRACT: note_on channel=0 note=70 velocity=80 time=0.0020833333333333333
EXTRACT: note_on channel=5 note=61 velocity=0 time=0.19791666666666666
EXTRACT: note_on channel=5 note=64 velocity=0 time=0
EXTRACT: note_on channel=5 note=70 velocity=0 time=0
EXTRACT: note_on channel=5 note=61 velocity=80 time=0.052083333333333336
EXTRACT: note_on channel=5 note=64 velocity=80 time=0
EXTRACT: note_on channel=5 note=70 velocity=80 time=0
EXTRACT: note_on channel=0 note=70 velocity=0 time=0.24791666666666667
EXTRACT: note_on channel=0 note=68 velocity=80 time=0.0020833333333333333
EXTRACT: note_on channel=0 note=68 velocity=0 time=0.24791666666666667
EXTRACT: note_on channel=0 note=66 velocity=80 time=0.0020833333333333333
EXTRACT: note_on channel=0 note=66 velocity=0 time=0.24791666666666667
EXTRACT: note_on channel=0 note=63 velocity=80 time=0.0020833333333333333
EXTRACT: note_on channel=1 note=76 velocity=0 time=0.14791666666666667
EXTRACT: note_on channel=5 note=52 velocity=0 time=0
EXTRACT: note_on channel=5 note=61 velocity=0 time=0.05
EXTRACT: note_on channel=5 note=64 velocity=0 time=0
EXTRACT: note_on channel=5 note=70 velocity=0 time=0
EXTRACT: note_on channel=0 note=63 velocity=0 time=0.05
EXTRACT: note_on channel=2 note=68 velocity=0 time=0
EXTRACT: note_on channel=0 note=70 velocity=80 time=0.0020833333333333333
EXTRACT: note_on channel=1 note=75 velocity=80 time=0
EXTRACT: note_on channel=2 note=70 velocity=80 time=0
EXTRACT: note_on channel=5 note=59 velocity=80 time=0
EXTRACT: note_on channel=5 note=63 velocity=80 time=0
EXTRACT: note_on channel=5 note=66 velocity=80 time=0
EXTRACT: note_on channel=5 note=47 velocity=80 time=0
EXTRACT: note_on channel=0 note=70 velocity=0 time=0.4979166666666667
EXTRACT: note_on channel=0 note=66 velocity=80 time=0.0020833333333333333
EXTRACT: note_on channel=5 note=59 velocity=0 time=0.4479166666666667
EXTRACT: note_on channel=5 note=63 velocity=0 time=0
EXTRACT: note_on channel=5 note=66 velocity=0 time=0
EXTRACT: note_on channel=0 note=66 velocity=0 time=0.05
EXTRACT: note_on channel=5 note=59 velocity=80 time=0.0020833333333333333
EXTRACT: note_on channel=5 note=63 velocity=80 time=0
EXTRACT: note_on channel=5 note=66 velocity=80 time=0
EXTRACT: note_on channel=0 note=66 velocity=80 time=0.5
EXTRACT: note_on channel=0 note=66 velocity=0 time=0.24791666666666667
EXTRACT: note_on channel=0 note=68 velocity=80 time=0.0020833333333333333
EXTRACT: note_on channel=1 note=75 velocity=0 time=0.14791666666666667
EXTRACT: note_on channel=5 note=47 velocity=0 time=0
EXTRACT: note_on channel=5 note=59 velocity=0 time=0.05
EXTRACT: note_on channel=5 note=63 velocity=0 time=0
EXTRACT: note_on channel=5 note=66 velocity=0 time=0
EXTRACT: note_on channel=0 note=68 velocity=0 time=0.05
EXTRACT: note_on channel=2 note=70 velocity=0 time=0
EXTRACT: note_on channel=0 note=68 velocity=80 time=0.0020833333333333333
EXTRACT: note_on channel=1 note=74 velocity=80 time=0
EXTRACT: note_on channel=2 note=74 velocity=80 time=0
EXTRACT: note_on channel=5 note=59 velocity=80 time=0
EXTRACT: note_on channel=5 note=62 velocity=80 time=0
EXTRACT: note_on channel=5 note=68 velocity=80 time=0
EXTRACT: note_on channel=5 note=47 velocity=80 time=0
EXTRACT: note_on channel=0 note=68 velocity=0 time=0.24791666666666667
EXTRACT: note_on channel=0 note=66 velocity=80 time=0.0020833333333333333
EXTRACT: note_on channel=0 note=66 velocity=0 time=0.24791666666666667
EXTRACT: note_on channel=0 note=66 velocity=80 time=0.0020833333333333333
EXTRACT: note_on channel=0 note=66 velocity=0 time=0.24791666666666667
EXTRACT: note_on channel=0 note=68 velocity=80 time=0.0020833333333333333
EXTRACT: note_on channel=5 note=59 velocity=0 time=0.19791666666666666
EXTRACT: note_on channel=5 note=62 velocity=0 time=0
EXTRACT: note_on channel=5 note=68 velocity=0 time=0
EXTRACT: note_on channel=0 note=68 velocity=0 time=0.05
EXTRACT: note_on channel=0 note=68 velocity=80 time=0.0020833333333333333
EXTRACT: note_on channel=5 note=59 velocity=80 time=0
EXTRACT: note_on channel=5 note=62 velocity=80 time=0
EXTRACT: note_on channel=5 note=68 velocity=80 time=0
EXTRACT: note_on channel=0 note=68 velocity=0 time=0.4979166666666667
EXTRACT: note_on channel=0 note=66 velocity=80 time=0.0020833333333333333
EXTRACT: note_on channel=0 note=66 velocity=0 time=0.24791666666666667
EXTRACT: note_on channel=0 note=70 velocity=80 time=0.0020833333333333333
EXTRACT: note_on channel=1 note=74 velocity=0 time=0.14791666666666667
EXTRACT: note_on channel=5 note=47 velocity=0 time=0
EXTRACT: note_on channel=5 note=59 velocity=0 time=0.05
EXTRACT: note_on channel=5 note=62 velocity=0 time=0
EXTRACT: note_on channel=5 note=68 velocity=0 time=0
EXTRACT: note_on channel=2 note=74 velocity=0 time=0.05
EXTRACT: note_on channel=1 note=70 velocity=80 time=0.0020833333333333333
EXTRACT: note_on channel=2 note=66 velocity=80 time=0
EXTRACT: note_on channel=5 note=61 velocity=80 time=0
EXTRACT: note_on channel=5 note=66 velocity=80 time=0
EXTRACT: note_on channel=5 note=70 velocity=80 time=0
EXTRACT: note_on channel=5 note=54 velocity=80 time=0
EXTRACT: note_on channel=0 note=70 velocity=0 time=0.24791666666666667
EXTRACT: note_on channel=0 note=61 velocity=80 time=0.5020833333333333
EXTRACT: note_on channel=5 note=61 velocity=0 time=0.19791666666666666
EXTRACT: note_on channel=5 note=66 velocity=0 time=0
EXTRACT: note_on channel=5 note=70 velocity=0 time=0
EXTRACT: note_on channel=0 note=61 velocity=0 time=0.05
EXTRACT: note_on channel=0 note=70 velocity=80 time=0.0020833333333333333
EXTRACT: note_on channel=5 note=61 velocity=80 time=0
EXTRACT: note_on channel=5 note=66 velocity=80 time=0
EXTRACT: note_on channel=5 note=70 velocity=80 time=0
EXTRACT: note_on channel=0 note=70 velocity=0 time=0.33125
EXTRACT: note_on channel=0 note=71 velocity=80 time=0.0020833333333333333
EXTRACT: note_on channel=0 note=71 velocity=0 time=0.33125
EXTRACT: note_on channel=0 note=73 velocity=80 time=0.0020833333333333333
EXTRACT: note_on channel=1 note=70 velocity=0 time=0.23124999999999998
EXTRACT: note_on channel=5 note=54 velocity=0 time=0
EXTRACT: note_on channel=5 note=61 velocity=0 time=0.05
EXTRACT: note_on channel=5 note=66 velocity=0 time=0
EXTRACT: note_on channel=5 note=70 velocity=0 time=0
EXTRACT: note_on channel=0 note=73 velocity=0 time=0.05
EXTRACT: note_on channel=2 note=66 velocity=0 time=0
EXTRACT: note_on channel=0 note=71 velocity=80 time=0.0020833333333333333
EXTRACT: note_on channel=1 note=73 velocity=80 time=0
EXTRACT: note_on channel=2 note=68 velocity=80 time=0
EXTRACT: note_on channel=5 note=61 velocity=80 time=0
EXTRACT: note_on channel=5 note=64 velocity=80 time=0
EXTRACT: note_on channel=5 note=70 velocity=80 time=0
EXTRACT: note_on channel=5 note=52 velocity=80 time=0
EXTRACT: note_on channel=0 note=71 velocity=0 time=0.4979166666666667
EXTRACT: note_on channel=0 note=70 velocity=80 time=0.0020833333333333333
EXTRACT: note_on channel=0 note=70 velocity=0 time=0.24791666666666667
EXTRACT: note_on channel=0 note=70 velocity=80 time=0.0020833333333333333
EXTRACT: note_on channel=5 note=61 velocity=0 time=0.19791666666666666
EXTRACT: note_on channel=5 note=64 velocity=0 time=0
EXTRACT: note_on channel=5 note=70 velocity=0 time=0
EXTRACT: note_on channel=5 note=61 velocity=80 time=0.052083333333333336
EXTRACT: note_on channel=5 note=64 velocity=80 time=0
EXTRACT: note_on channel=5 note=70 velocity=80 time=0
EXTRACT: note_on channel=0 note=70 velocity=0 time=0.24791666666666667
EXTRACT: note_on channel=0 note=68 velocity=80 time=0.0020833333333333333
EXTRACT: note_on channel=0 note=68 velocity=0 time=0.24791666666666667
EXTRACT: note_on channel=0 note=66 velocity=80 time=0.0020833333333333333
EXTRACT: note_on channel=0 note=66 velocity=0 time=0.24791666666666667
EXTRACT: note_on channel=0 note=63 velocity=80 time=0.0020833333333333333
EXTRACT: note_on channel=1 note=73 velocity=0 time=0.14791666666666667
EXTRACT: note_on channel=5 note=52 velocity=0 time=0
EXTRACT: note_on channel=5 note=61 velocity=0 time=0.05
EXTRACT: note_on channel=5 note=64 velocity=0 time=0
EXTRACT: note_on channel=5 note=70 velocity=0 time=0
EXTRACT: note_on channel=0 note=63 velocity=0 time=0.05
EXTRACT: note_on channel=2 note=68 velocity=0 time=0
EXTRACT: note_on channel=0 note=70 velocity=80 time=0.0020833333333333333
EXTRACT: note_on channel=1 note=71 velocity=80 time=0
EXTRACT: note_on channel=2 note=71 velocity=80 time=0
EXTRACT: note_on channel=5 note=59 velocity=80 time=0
EXTRACT: note_on channel=5 note=63 velocity=80 time=0
EXTRACT: note_on channel=5 note=66 velocity=80 time=0
EXTRACT: note_on channel=5 note=47 velocity=80 time=0
EXTRACT: note_on channel=0 note=70 velocity=0 time=0.4979166666666667
EXTRACT: note_on channel=0 note=66 velocity=80 time=0.0020833333333333333
EXTRACT: note_on channel=5 note=59 velocity=0 time=0.4479166666666667
EXTRACT: note_on channel=5 note=63 velocity=0 time=0
EXTRACT: note_on channel=5 note=66 velocity=0 time=0
EXTRACT: note_on channel=0 note=66 velocity=0 time=0.05
EXTRACT: note_on channel=5 note=59 velocity=80 time=0.0020833333333333333
EXTRACT: note_on channel=5 note=63 velocity=80 time=0
EXTRACT: note_on channel=5 note=66 velocity=80 time=0
EXTRACT: note_on channel=0 note=66 velocity=80 time=0.5
EXTRACT: note_on channel=1 note=71 velocity=0 time=0.16041666666666665
EXTRACT: note_on channel=0 note=66 velocity=0 time=0.0875
EXTRACT: note_on channel=0 note=68 velocity=80 time=0.0020833333333333333
EXTRACT: note_on channel=1 note=70 velocity=80 time=0
EXTRACT: note_on channel=5 note=47 velocity=0 time=0.14791666666666667
EXTRACT: note_on channel=5 note=59 velocity=0 time=0.05
EXTRACT: note_on channel=5 note=63 velocity=0 time=0
EXTRACT: note_on channel=5 note=66 velocity=0 time=0
EXTRACT: note_on channel=1 note=70 velocity=0 time=0.0375
EXTRACT: note_on channel=0 note=68 velocity=0 time=0.0125
EXTRACT: note_on channel=2 note=71 velocity=0 time=0
EXTRACT: note_on channel=0 note=68 velocity=80 time=0.0020833333333333333
EXTRACT: note_on channel=1 note=68 velocity=80 time=0
EXTRACT: note_on channel=2 note=74 velocity=80 time=0
EXTRACT: note_on channel=5 note=59 velocity=80 time=0
EXTRACT: note_on channel=5 note=62 velocity=80 time=0
EXTRACT: note_on channel=5 note=68 velocity=80 time=0
EXTRACT: note_on channel=5 note=47 velocity=80 time=0
EXTRACT: note_on channel=0 note=68 velocity=0 time=0.24791666666666667
EXTRACT: note_on channel=0 note=66 velocity=80 time=0.0020833333333333333
EXTRACT: note_on channel=0 note=66 velocity=0 time=0.24791666666666667
EXTRACT: note_on channel=0 note=66 velocity=80 time=0.0020833333333333333
EXTRACT: note_on channel=0 note=66 velocity=0 time=0.24791666666666667
EXTRACT: note_on channel=0 note=68 velocity=80 time=0.0020833333333333333
EXTRACT: note_on channel=5 note=59 velocity=0 time=0.19791666666666666
EXTRACT: note_on channel=5 note=62 velocity=0 time=0
EXTRACT: note_on channel=5 note=68 velocity=0 time=0
EXTRACT: note_on channel=0 note=68 velocity=0 time=0.05
EXTRACT: note_on channel=0 note=68 velocity=80 time=0.0020833333333333333
EXTRACT: note_on channel=5 note=59 velocity=80 time=0
EXTRACT: note_on channel=5 note=62 velocity=80 time=0
EXTRACT: note_on channel=5 note=68 velocity=80 time=0
EXTRACT: note_on channel=0 note=68 velocity=0 time=0.4979166666666667
EXTRACT: note_on channel=0 note=66 velocity=80 time=0.0020833333333333333
EXTRACT: note_on channel=0 note=66 velocity=0 time=0.24791666666666667
EXTRACT: note_on channel=0 note=66 velocity=80 time=0.0020833333333333333
EXTRACT: note_on channel=1 note=68 velocity=0 time=0.14791666666666667
EXTRACT: note_on channel=5 note=47 velocity=0 time=0
EXTRACT: note_on channel=5 note=59 velocity=0 time=0.05
EXTRACT: note_on channel=5 note=62 velocity=0 time=0
EXTRACT: note_on channel=5 note=68 velocity=0 time=0
EXTRACT: note_on channel=2 note=74 velocity=0 time=0.05
EXTRACT: note_on channel=1 note=78 velocity=80 time=0.0020833333333333333
EXTRACT: note_on channel=2 note=66 velocity=80 time=0
EXTRACT: note_on channel=5 note=61 velocity=80 time=0
EXTRACT: note_on channel=5 note=66 velocity=80 time=0
EXTRACT: note_on channel=5 note=70 velocity=80 time=0
EXTRACT: note_on channel=5 note=54 velocity=80 time=0
EXTRACT: note_on channel=0 note=66 velocity=0 time=0.24791666666666667
EXTRACT: note_on channel=0 note=61 velocity=80 time=0.5020833333333333
EXTRACT: note_on channel=5 note=61 velocity=0 time=0.19791666666666666
EXTRACT: note_on channel=5 note=66 velocity=0 time=0
EXTRACT: note_on channel=5 note=70 velocity=0 time=0
EXTRACT: note_on channel=0 note=61 velocity=0 time=0.05
EXTRACT: note_on channel=0 note=61 velocity=80 time=0.0020833333333333333
EXTRACT: note_on channel=5 note=61 velocity=80 time=0
EXTRACT: note_on channel=5 note=66 velocity=80 time=0
EXTRACT: note_on channel=5 note=70 velocity=80 time=0
EXTRACT: note_on channel=0 note=61 velocity=0 time=0.24791666666666667
EXTRACT: note_on channel=0 note=63 velocity=80 time=0.0020833333333333333
EXTRACT: note_on channel=0 note=63 velocity=0 time=0.24791666666666667
EXTRACT: note_on channel=0 note=66 velocity=80 time=0.0020833333333333333
EXTRACT: note_on channel=0 note=66 velocity=0 time=0.24791666666666667
EXTRACT: note_on channel=0 note=68 velocity=80 time=0.0020833333333333333
EXTRACT: note_on channel=1 note=78 velocity=0 time=0.14791666666666667
EXTRACT: note_on channel=5 note=54 velocity=0 time=0
EXTRACT: note_on channel=5 note=61 velocity=0 time=0.05
EXTRACT: note_on channel=5 note=66 velocity=0 time=0
EXTRACT: note_on channel=5 note=70 velocity=0 time=0
EXTRACT: note_on channel=2 note=66 velocity=0 time=0.05
EXTRACT: note_on channel=1 note=76 velocity=80 time=0.0020833333333333333
EXTRACT: note_on channel=2 note=68 velocity=80 time=0
EXTRACT: note_on channel=5 note=61 velocity=80 time=0
EXTRACT: note_on channel=5 note=64 velocity=80 time=0
EXTRACT: note_on channel=5 note=70 velocity=80 time=0
EXTRACT: note_on channel=5 note=52 velocity=80 time=0
EXTRACT: note_on channel=0 note=68 velocity=0 time=0.4979166666666667
EXTRACT: note_on channel=5 note=61 velocity=0 time=0.45
EXTRACT: note_on channel=5 note=64 velocity=0 time=0
EXTRACT: note_on channel=5 note=70 velocity=0 time=0
EXTRACT: note_on channel=0 note=61 velocity=80 time=0.052083333333333336
EXTRACT: note_on channel=5 note=61 velocity=80 time=0
EXTRACT: note_on channel=5 note=64 velocity=80 time=0
EXTRACT: note_on channel=5 note=70 velocity=80 time=0
EXTRACT: note_on channel=0 note=61 velocity=0 time=0.24791666666666667
EXTRACT: note_on channel=0 note=63 velocity=80 time=0.0020833333333333333
EXTRACT: note_on channel=0 note=63 velocity=0 time=0.24791666666666667
EXTRACT: note_on channel=0 note=66 velocity=80 time=0.0020833333333333333
EXTRACT: note_on channel=0 note=66 velocity=0 time=0.24791666666666667
EXTRACT: note_on channel=0 note=68 velocity=80 time=0.0020833333333333333
EXTRACT: note_on channel=1 note=76 velocity=0 time=0.14791666666666667
EXTRACT: note_on channel=5 note=52 velocity=0 time=0
EXTRACT: note_on channel=5 note=61 velocity=0 time=0.05
EXTRACT: note_on channel=5 note=64 velocity=0 time=0
EXTRACT: note_on channel=5 note=70 velocity=0 time=0
EXTRACT: note_on channel=2 note=68 velocity=0 time=0.05
EXTRACT: note_on channel=1 note=75 velocity=80 time=0.0020833333333333333
EXTRACT: note_on channel=2 note=70 velocity=80 time=0
EXTRACT: note_on channel=5 note=59 velocity=80 time=0
EXTRACT: note_on channel=5 note=63 velocity=80 time=0
EXTRACT: note_on channel=5 note=66 velocity=80 time=0
EXTRACT: note_on channel=5 note=47 velocity=80 time=0
EXTRACT: note_on channel=0 note=68 velocity=0 time=0.4979166666666667
EXTRACT: note_on channel=5 note=59 velocity=0 time=0.45
EXTRACT: note_on channel=5 note=63 velocity=0 time=0
EXTRACT: note_on channel=5 note=66 velocity=0 time=0
EXTRACT: note_on channel=0 note=61 velocity=80 time=0.052083333333333336
EXTRACT: note_on channel=5 note=59 velocity=80 time=0
EXTRACT: note_on channel=5 note=63 velocity=80 time=0
EXTRACT: note_on channel=5 note=66 velocity=80 time=0
EXTRACT: note_on channel=0 note=61 velocity=0 time=0.24791666666666667
EXTRACT: note_on channel=0 note=63 velocity=80 time=0.0020833333333333333
EXTRACT: note_on channel=0 note=63 velocity=0 time=0.24791666666666667
EXTRACT: note_on channel=0 note=66 velocity=80 time=0.0020833333333333333
EXTRACT: note_on channel=0 note=66 velocity=0 time=0.24791666666666667
EXTRACT: note_on channel=0 note=68 velocity=80 time=0.0020833333333333333
EXTRACT: note_on channel=1 note=75 velocity=0 time=0.14791666666666667
EXTRACT: note_on channel=5 note=47 velocity=0 time=0
EXTRACT: note_on channel=5 note=59 velocity=0 time=0.05
EXTRACT: note_on channel=5 note=63 velocity=0 time=0
EXTRACT: note_on channel=5 note=66 velocity=0 time=0
EXTRACT: note_on channel=2 note=70 velocity=0 time=0.05
EXTRACT: note_on channel=1 note=74 velocity=80 time=0.0020833333333333333
EXTRACT: note_on channel=2 note=74 velocity=80 time=0
EXTRACT: note_on channel=5 note=59 velocity=80 time=0
EXTRACT: note_on channel=5 note=62 velocity=80 time=0
EXTRACT: note_on channel=5 note=68 velocity=80 time=0
EXTRACT: note_on channel=5 note=47 velocity=80 time=0
EXTRACT: note_on channel=0 note=68 velocity=0 time=0.4979166666666667
EXTRACT: note_on channel=0 note=66 velocity=80 time=0.0020833333333333333
EXTRACT: note_on channel=0 note=66 velocity=0 time=0.24791666666666667
EXTRACT: note_on channel=0 note=66 velocity=80 time=0.0020833333333333333
EXTRACT: note_on channel=5 note=59 velocity=0 time=0.19791666666666666
EXTRACT: note_on channel=5 note=62 velocity=0 time=0
EXTRACT: note_on channel=5 note=68 velocity=0 time=0
EXTRACT: note_on channel=5 note=59 velocity=80 time=0.052083333333333336
EXTRACT: note_on channel=5 note=62 velocity=80 time=0
EXTRACT: note_on channel=5 note=68 velocity=80 time=0
EXTRACT: note_on channel=0 note=66 velocity=0 time=0.4979166666666667
EXTRACT: note_on channel=0 note=61 velocity=80 time=0.0020833333333333333
EXTRACT: note_on channel=0 note=61 velocity=0 time=0.24791666666666667
EXTRACT: note_on channel=0 note=61 velocity=80 time=0.0020833333333333333
EXTRACT: note_on channel=1 note=74 velocity=0 time=0.14791666666666667
EXTRACT: note_on channel=5 note=47 velocity=0 time=0
EXTRACT: note_on channel=5 note=59 velocity=0 time=0.05
EXTRACT: note_on channel=5 note=62 velocity=0 time=0
EXTRACT: note_on channel=5 note=68 velocity=0 time=0
EXTRACT: note_on channel=2 note=74 velocity=0 time=0.05
EXTRACT: note_on channel=1 note=70 velocity=80 time=0.0020833333333333333
EXTRACT: note_on channel=2 note=66 velocity=80 time=0
EXTRACT: note_on channel=5 note=61 velocity=80 time=0
EXTRACT: note_on channel=5 note=66 velocity=80 time=0
EXTRACT: note_on channel=5 note=70 velocity=80 time=0
EXTRACT: note_on channel=5 note=54 velocity=80 time=0
EXTRACT: note_on channel=0 note=61 velocity=0 time=0.24791666666666667
EXTRACT: note_on channel=0 note=61 velocity=80 time=0.5020833333333333
EXTRACT: note_on channel=5 note=61 velocity=0 time=0.19791666666666666
EXTRACT: note_on channel=5 note=66 velocity=0 time=0
EXTRACT: note_on channel=5 note=70 velocity=0 time=0
EXTRACT: note_on channel=0 note=61 velocity=0 time=0.05
EXTRACT: note_on channel=0 note=61 velocity=80 time=0.0020833333333333333
EXTRACT: note_on channel=5 note=61 velocity=80 time=0
EXTRACT: note_on channel=5 note=66 velocity=80 time=0
EXTRACT: note_on channel=5 note=70 velocity=80 time=0
EXTRACT: note_on channel=0 note=61 velocity=0 time=0.24791666666666667
EXTRACT: note_on channel=0 note=63 velocity=80 time=0.0020833333333333333
EXTRACT: note_on channel=0 note=63 velocity=0 time=0.24791666666666667
EXTRACT: note_on channel=0 note=66 velocity=80 time=0.0020833333333333333
EXTRACT: note_on channel=0 note=66 velocity=0 time=0.24791666666666667
EXTRACT: note_on channel=0 note=68 velocity=80 time=0.0020833333333333333
EXTRACT: note_on channel=1 note=70 velocity=0 time=0.14791666666666667
EXTRACT: note_on channel=5 note=54 velocity=0 time=0
EXTRACT: note_on channel=5 note=61 velocity=0 time=0.05
EXTRACT: note_on channel=5 note=66 velocity=0 time=0
EXTRACT: note_on channel=5 note=70 velocity=0 time=0
EXTRACT: note_on channel=2 note=66 velocity=0 time=0.05
EXTRACT: note_on channel=1 note=73 velocity=80 time=0.0020833333333333333
EXTRACT: note_on channel=2 note=68 velocity=80 time=0
EXTRACT: note_on channel=5 note=61 velocity=80 time=0
EXTRACT: note_on channel=5 note=64 velocity=80 time=0
EXTRACT: note_on channel=5 note=70 velocity=80 time=0
EXTRACT: note_on channel=5 note=52 velocity=80 time=0
EXTRACT: note_on channel=0 note=68 velocity=0 time=0.4979166666666667
EXTRACT: note_on channel=5 note=61 velocity=0 time=0.45
EXTRACT: note_on channel=5 note=64 velocity=0 time=0
EXTRACT: note_on channel=5 note=70 velocity=0 time=0
EXTRACT: note_on channel=0 note=73 velocity=80 time=0.052083333333333336
EXTRACT: note_on channel=5 note=61 velocity=80 time=0
EXTRACT: note_on channel=5 note=64 velocity=80 time=0
EXTRACT: note_on channel=5 note=70 velocity=80 time=0
EXTRACT: note_on channel=0 note=73 velocity=0 time=0.24791666666666667
EXTRACT: note_on channel=0 note=71 velocity=80 time=0.0020833333333333333
EXTRACT: note_on channel=0 note=71 velocity=0 time=0.24791666666666667
EXTRACT: note_on channel=0 note=70 velocity=80 time=0.0020833333333333333
EXTRACT: note_on channel=0 note=70 velocity=0 time=0.24791666666666667
EXTRACT: note_on channel=0 note=68 velocity=80 time=0.0020833333333333333
EXTRACT: note_on channel=1 note=73 velocity=0 time=0.14791666666666667
EXTRACT: note_on channel=5 note=52 velocity=0 time=0
EXTRACT: note_on channel=5 note=61 velocity=0 time=0.05
EXTRACT: note_on channel=5 note=64 velocity=0 time=0
EXTRACT: note_on channel=5 note=70 velocity=0 time=0
EXTRACT: note_on channel=2 note=68 velocity=0 time=0.05
EXTRACT: note_on channel=1 note=71 velocity=80 time=0.0020833333333333333
EXTRACT: note_on channel=2 note=71 velocity=80 time=0
EXTRACT: note_on channel=5 note=59 velocity=80 time=0
EXTRACT: note_on channel=5 note=63 velocity=80 time=0
EXTRACT: note_on channel=5 note=66 velocity=80 time=0
EXTRACT: note_on channel=5 note=47 velocity=80 time=0
EXTRACT: note_on channel=0 note=68 velocity=0 time=0.4979166666666667
EXTRACT: note_on channel=5 note=59 velocity=0 time=0.45
EXTRACT: note_on channel=5 note=63 velocity=0 time=0
EXTRACT: note_on channel=5 note=66 velocity=0 time=0
EXTRACT: note_on channel=0 note=61 velocity=80 time=0.052083333333333336
EXTRACT: note_on channel=5 note=59 velocity=80 time=0
EXTRACT: note_on channel=5 note=63 velocity=80 time=0
EXTRACT: note_on channel=5 note=66 velocity=80 time=0
EXTRACT: note_on channel=0 note=61 velocity=0 time=0.24791666666666667
EXTRACT: note_on channel=0 note=63 velocity=80 time=0.0020833333333333333
EXTRACT: note_on channel=0 note=63 velocity=0 time=0.24791666666666667
EXTRACT: note_on channel=0 note=66 velocity=80 time=0.0020833333333333333
EXTRACT: note_on channel=1 note=71 velocity=0 time=0.16041666666666665
EXTRACT: note_on channel=0 note=66 velocity=0 time=0.0875
EXTRACT: note_on channel=0 note=68 velocity=80 time=0.0020833333333333333
EXTRACT: note_on channel=1 note=70 velocity=80 time=0
EXTRACT: note_on channel=5 note=47 velocity=0 time=0.14791666666666667
EXTRACT: note_on channel=5 note=59 velocity=0 time=0.05
EXTRACT: note_on channel=5 note=63 velocity=0 time=0
EXTRACT: note_on channel=5 note=66 velocity=0 time=0
EXTRACT: note_on channel=1 note=70 velocity=0 time=0.0375
EXTRACT: note_on channel=2 note=71 velocity=0 time=0.0125
EXTRACT: note_on channel=1 note=68 velocity=80 time=0.0020833333333333333
EXTRACT: note_on channel=2 note=74 velocity=80 time=0
EXTRACT: note_on channel=5 note=59 velocity=80 time=0
EXTRACT: note_on channel=5 note=62 velocity=80 time=0
EXTRACT: note_on channel=5 note=68 velocity=80 time=0
EXTRACT: note_on channel=5 note=47 velocity=80 time=0
EXTRACT: note_on channel=0 note=68 velocity=0 time=0.4979166666666667
EXTRACT: note_on channel=0 note=66 velocity=80 time=0.0020833333333333333
EXTRACT: note_on channel=0 note=66 velocity=0 time=0.24791666666666667
EXTRACT: note_on channel=0 note=66 velocity=80 time=0.0020833333333333333
EXTRACT: note_on channel=5 note=59 velocity=0 time=0.19791666666666666
EXTRACT: note_on channel=5 note=62 velocity=0 time=0
EXTRACT: note_on channel=5 note=68 velocity=0 time=0
EXTRACT: note_on channel=5 note=59 velocity=80 time=0.052083333333333336
EXTRACT: note_on channel=5 note=62 velocity=80 time=0
EXTRACT: note_on channel=5 note=68 velocity=80 time=0
EXTRACT: note_on channel=0 note=66 velocity=0 time=0.4979166666666667
EXTRACT: note_on channel=0 note=61 velocity=80 time=0.0020833333333333333
EXTRACT: note_on channel=0 note=61 velocity=0 time=0.24791666666666667
EXTRACT: note_on channel=0 note=61 velocity=80 time=0.0020833333333333333
EXTRACT: note_on channel=1 note=68 velocity=0 time=0.14791666666666667
EXTRACT: note_on channel=5 note=47 velocity=0 time=0
EXTRACT: note_on channel=5 note=59 velocity=0 time=0.05
EXTRACT: note_on channel=5 note=62 velocity=0 time=0
EXTRACT: note_on channel=5 note=68 velocity=0 time=0
EXTRACT: note_on channel=2 note=74 velocity=0 time=0.05
EXTRACT: note_on channel=1 note=78 velocity=80 time=0.0020833333333333333
EXTRACT: note_on channel=2 note=66 velocity=80 time=0
EXTRACT: note_on channel=5 note=61 velocity=80 time=0
EXTRACT: note_on channel=5 note=66 velocity=80 time=0
EXTRACT: note_on channel=5 note=70 velocity=80 time=0
EXTRACT: note_on channel=5 note=54 velocity=80 time=0
EXTRACT: note_on channel=0 note=61 velocity=0 time=0.4979166666666667
EXTRACT: note_on channel=1 note=78 velocity=0 time=1.4
EXTRACT: note_on channel=5 note=61 velocity=0 time=0
EXTRACT: note_on channel=5 note=66 velocity=0 time=0
EXTRACT: note_on channel=5 note=70 velocity=0 time=0
EXTRACT: note_on channel=5 note=54 velocity=0 time=0
EXTRACT: note_on channel=2 note=66 velocity=0 time=0.1
EXTRACT: note_on channel=1 note=76 velocity=80 time=0.0020833333333333333
EXTRACT: note_on channel=2 note=68 velocity=80 time=0
EXTRACT: note_on channel=5 note=61 velocity=80 time=0
EXTRACT: note_on channel=5 note=64 velocity=80 time=0
EXTRACT: note_on channel=5 note=70 velocity=80 time=0
EXTRACT: note_on channel=5 note=52 velocity=80 time=0
EXTRACT: note_on channel=0 note=66 velocity=80 time=1.5
EXTRACT: note_on channel=0 note=66 velocity=0 time=0.16458333333333333
EXTRACT: note_on channel=0 note=68 velocity=80 time=0.0020833333333333333
EXTRACT: note_on channel=0 note=68 velocity=0 time=0.16458333333333333
EXTRACT: note_on channel=0 note=70 velocity=80 time=0.0020833333333333333
EXTRACT: note_on channel=1 note=76 velocity=0 time=0.06458333333333333
EXTRACT: note_on channel=5 note=61 velocity=0 time=0
EXTRACT: note_on channel=5 note=64 velocity=0 time=0
EXTRACT: note_on channel=5 note=70 velocity=0 time=0
EXTRACT: note_on channel=5 note=52 velocity=0 time=0
EXTRACT: note_on channel=0 note=70 velocity=0 time=0.1
EXTRACT: note_on channel=2 note=68 velocity=0 time=0
EXTRACT: note_on channel=0 note=70 velocity=80 time=0.0020833333333333333
EXTRACT: note_on channel=1 note=75 velocity=80 time=0
EXTRACT: note_on channel=2 note=70 velocity=80 time=0
EXTRACT: note_on channel=5 note=59 velocity=80 time=0
EXTRACT: note_on channel=5 note=63 velocity=80 time=0
EXTRACT: note_on channel=5 note=66 velocity=80 time=0
EXTRACT: note_on channel=5 note=47 velocity=80 time=0
EXTRACT: note_on channel=0 note=70 velocity=0 time=0.4979166666666667
EXTRACT: note_on channel=0 note=66 velocity=80 time=1.0020833333333332
EXTRACT: note_on channel=1 note=75 velocity=0 time=0.39791666666666664
EXTRACT: note_on channel=5 note=59 velocity=0 time=0
EXTRACT: note_on channel=5 note=63 velocity=0 time=0
EXTRACT: note_on channel=5 note=66 velocity=0 time=0
EXTRACT: note_on channel=5 note=47 velocity=0 time=0
EXTRACT: note_on channel=0 note=66 velocity=0 time=0.1
EXTRACT: note_on channel=2 note=70 velocity=0 time=0
EXTRACT: note_on channel=0 note=70 velocity=80 time=0.0020833333333333333
EXTRACT: note_on channel=1 note=74 velocity=80 time=0
EXTRACT: note_on channel=2 note=74 velocity=80 time=0
EXTRACT: note_on channel=5 note=59 velocity=80 time=0
EXTRACT: note_on channel=5 note=62 velocity=80 time=0
EXTRACT: note_on channel=5 note=68 velocity=80 time=0
EXTRACT: note_on channel=5 note=47 velocity=80 time=0
EXTRACT: note_on channel=0 note=70 velocity=0 time=0.16458333333333333
EXTRACT: note_on channel=0 note=68 velocity=80 time=0.0020833333333333333
EXTRACT: note_on channel=0 note=68 velocity=0 time=0.16458333333333333
EXTRACT: note_on channel=0 note=66 velocity=80 time=0.0020833333333333333
EXTRACT: note_on channel=0 note=66 velocity=0 time=0.16458333333333333
EXTRACT: note_on channel=0 note=66 velocity=80 time=1.0020833333333332
EXTRACT: note_on channel=1 note=74 velocity=0 time=0.39791666666666664
EXTRACT: note_on channel=5 note=59 velocity=0 time=0
EXTRACT: note_on channel=5 note=62 velocity=0 time=0
EXTRACT: note_on channel=5 note=68 velocity=0 time=0
EXTRACT: note_on channel=5 note=47 velocity=0 time=0
EXTRACT: note_on channel=0 note=66 velocity=0 time=0.1
EXTRACT: note_on channel=2 note=74 velocity=0 time=0
EXTRACT: note_on channel=1 note=78 velocity=80 time=0.0020833333333333333
EXTRACT: note_on channel=2 note=66 velocity=80 time=0
EXTRACT: note_on channel=5 note=61 velocity=80 time=0
EXTRACT: note_on channel=5 note=66 velocity=80 time=0
EXTRACT: note_on channel=5 note=70 velocity=80 time=0
EXTRACT: note_on channel=5 note=54 velocity=80 time=0
EXTRACT: note_on channel=0 note=66 velocity=80 time=1.5
EXTRACT: note_on channel=0 note=66 velocity=0 time=0.24791666666666667
EXTRACT: note_on channel=0 note=70 velocity=80 time=0.0020833333333333333
EXTRACT: note_on channel=1 note=78 velocity=0 time=0.14791666666666667
EXTRACT: note_on channel=5 note=61 velocity=0 time=0
EXTRACT: note_on channel=5 note=66 velocity=0 time=0
EXTRACT: note_on channel=5 note=70 velocity=0 time=0
EXTRACT: note_on channel=5 note=54 velocity=0 time=0
EXTRACT: note_on channel=2 note=66 velocity=0 time=0.1
EXTRACT: note_on channel=1 note=76 velocity=80 time=0.0020833333333333333
EXTRACT: note_on channel=2 note=68 velocity=80 time=0
EXTRACT: note_on channel=5 note=61 velocity=80 time=0
EXTRACT: note_on channel=5 note=64 velocity=80 time=0
EXTRACT: note_on channel=5 note=70 velocity=80 time=0
EXTRACT: note_on channel=5 note=52 velocity=80 time=0
EXTRACT: note_on channel=0 note=70 velocity=0 time=0.4979166666666667
EXTRACT: note_on channel=0 note=71 velocity=80 time=0.0020833333333333333
EXTRACT: note_on channel=0 note=71 velocity=0 time=0.24791666666666667
EXTRACT: note_on channel=0 note=73 velocity=80 time=0.0020833333333333333
EXTRACT: note_on channel=0 note=73 velocity=0 time=0.7479166666666667
EXTRACT: note_on channel=0 note=73 velocity=80 time=0.0020833333333333333
EXTRACT: note_on channel=0 note=73 velocity=0 time=0.24791666666666667
EXTRACT: note_on channel=0 note=74 velocity=80 time=0.0020833333333333333
EXTRACT: note_on channel=1 note=76 velocity=0 time=0.14791666666666667
EXTRACT: note_on channel=5 note=61 velocity=0 time=0
EXTRACT: note_on channel=5 note=64 velocity=0 time=0
EXTRACT: note_on channel=5 note=70 velocity=0 time=0
EXTRACT: note_on channel=5 note=52 velocity=0 time=0
EXTRACT: note_on channel=2 note=68 velocity=0 time=0.1
EXTRACT: note_on channel=1 note=75 velocity=80 time=0.0020833333333333333
EXTRACT: note_on channel=2 note=70 velocity=80 time=0
EXTRACT: note_on channel=5 note=59 velocity=80 time=0
EXTRACT: note_on channel=5 note=63 velocity=80 time=0
EXTRACT: note_on channel=5 note=66 velocity=80 time=0
EXTRACT: note_on channel=5 note=47 velocity=80 time=0
EXTRACT: note_on channel=0 note=74 velocity=0 time=0.24791666666666667
EXTRACT: note_on channel=0 note=73 velocity=80 time=0.0020833333333333333
EXTRACT: note_on channel=0 note=73 velocity=0 time=0.24791666666666667
EXTRACT: note_on channel=0 note=71 velocity=80 time=0.0020833333333333333
EXTRACT: note_on channel=0 note=71 velocity=0 time=0.24791666666666667
EXTRACT: note_on channel=0 note=78 velocity=80 time=0.0020833333333333333
EXTRACT: note_on channel=0 note=78 velocity=0 time=0.4979166666666667
EXTRACT: note_on channel=0 note=74 velocity=80 time=0.0020833333333333333
EXTRACT: note_on channel=0 note=74 velocity=0 time=0.24791666666666667
EXTRACT: note_on channel=0 note=73 velocity=80 time=0.0020833333333333333
EXTRACT: note_on channel=0 note=73 velocity=0 time=0.24791666666666667
EXTRACT: note_on channel=0 note=71 velocity=80 time=0.0020833333333333333
EXTRACT: note_on channel=1 note=75 velocity=0 time=0.14791666666666667
EXTRACT: note_on channel=5 note=59 velocity=0 time=0
EXTRACT: note_on channel=5 note=63 velocity=0 time=0
EXTRACT: note_on channel=5 note=66 velocity=0 time=0
EXTRACT: note_on channel=5 note=47 velocity=0 time=0
EXTRACT: note_on channel=0 note=71 velocity=0 time=0.1
EXTRACT: note_on channel=2 note=70 velocity=0 time=0
EXTRACT: note_on channel=1 note=74 velocity=80 time=0.0020833333333333333
EXTRACT: note_on channel=2 note=74 velocity=80 time=0
EXTRACT: note_on channel=5 note=59 velocity=80 time=0
EXTRACT: note_on channel=5 note=62 velocity=80 time=0
EXTRACT: note_on channel=5 note=68 velocity=80 time=0
EXTRACT: note_on channel=5 note=47 velocity=80 time=0
EXTRACT: note_on channel=0 note=70 velocity=80 time=1.5
EXTRACT: note_on channel=0 note=70 velocity=0 time=0.24791666666666667
EXTRACT: note_on channel=0 note=68 velocity=80 time=0.0020833333333333333
EXTRACT: note_on channel=0 note=68 velocity=0 time=0.08125
EXTRACT: note_on channel=0 note=66 velocity=80 time=0.0020833333333333333
EXTRACT: note_on channel=1 note=74 velocity=0 time=0.06458333333333333
EXTRACT: note_on channel=5 note=59 velocity=0 time=0
EXTRACT: note_on channel=5 note=62 velocity=0 time=0
EXTRACT: note_on channel=5 note=68 velocity=0 time=0
EXTRACT: note_on channel=5 note=47 velocity=0 time=0
EXTRACT: note_on channel=0 note=66 velocity=0 time=0.016666666666666666
EXTRACT: note_on channel=0 note=63 velocity=80 time=0.0020833333333333333
EXTRACT: note_on channel=0 note=63 velocity=0 time=0.08125
EXTRACT: note_on channel=2 note=74 velocity=0 time=0
EXTRACT: note_on channel=2 note=66 velocity=80 time=0.0020833333333333333
EXTRACT: note_on channel=5 note=59 velocity=80 time=0
EXTRACT: note_on channel=5 note=63 velocity=80 time=0
EXTRACT: note_on channel=5 note=66 velocity=80 time=0
EXTRACT: note_on channel=5 note=54 velocity=80 time=0
EXTRACT: note_on channel=1 note=78 velocity=80 time=1.0
EXTRACT: note_on channel=1 note=78 velocity=0 time=0.7104166666666667
EXTRACT: note_on channel=1 note=70 velocity=80 time=0.03958333333333333
EXTRACT: note_on channel=1 note=70 velocity=0 time=0.11666666666666667
EXTRACT: note_on channel=1 note=71 velocity=80 time=0.008333333333333333
EXTRACT: note_on channel=5 note=59 velocity=0 time=0.022916666666666665
EXTRACT: note_on channel=5 note=63 velocity=0 time=0
EXTRACT: note_on channel=5 note=66 velocity=0 time=0
EXTRACT: note_on channel=5 note=54 velocity=0 time=0
EXTRACT: note_on channel=1 note=71 velocity=0 time=0.09375
EXTRACT: note_on channel=2 note=66 velocity=0 time=0.00625
EXTRACT: note_on channel=1 note=73 velocity=80 time=0.0020833333333333333
EXTRACT: note_on channel=2 note=68 velocity=80 time=0
EXTRACT: note_on channel=5 note=59 velocity=80 time=0
EXTRACT: note_on channel=5 note=62 velocity=80 time=0
EXTRACT: note_on channel=5 note=68 velocity=80 time=0
EXTRACT: note_on channel=5 note=52 velocity=80 time=0
EXTRACT: note_on channel=1 note=73 velocity=0 time=0.7104166666666667
EXTRACT: note_on channel=1 note=75 velocity=80 time=0.03958333333333333
EXTRACT: note_on channel=1 note=75 velocity=0 time=0.23541666666666666
EXTRACT: note_on channel=1 note=78 velocity=80 time=0.014583333333333334
EXTRACT: note_on channel=1 note=78 velocity=0 time=0.47291666666666665
EXTRACT: note_on channel=1 note=80 velocity=80 time=0.027083333333333334
EXTRACT: note_on channel=1 note=80 velocity=0 time=0.23541666666666666
EXTRACT: note_on channel=1 note=78 velocity=80 time=0.014583333333333334
EXTRACT: note_on channel=1 note=78 velocity=0 time=0.11666666666666667
EXTRACT: note_on channel=1 note=80 velocity=80 time=0.008333333333333333
EXTRACT: note_on channel=5 note=59 velocity=0 time=0.022916666666666665
EXTRACT: note_on channel=5 note=62 velocity=0 time=0
EXTRACT: note_on channel=5 note=68 velocity=0 time=0
EXTRACT: note_on channel=5 note=52 velocity=0 time=0
EXTRACT: note_on channel=1 note=80 velocity=0 time=0.09375
EXTRACT: note_on channel=2 note=68 velocity=0 time=0.00625
EXTRACT: note_on channel=1 note=82 velocity=80 time=0.0020833333333333333
EXTRACT: note_on channel=2 note=70 velocity=80 time=0
EXTRACT: note_on channel=5 note=59 velocity=80 time=0
EXTRACT: note_on channel=5 note=63 velocity=80 time=0
EXTRACT: note_on channel=5 note=66 velocity=80 time=0
EXTRACT: note_on channel=5 note=47 velocity=80 time=0
EXTRACT: note_on channel=1 note=82 velocity=0 time=0.9479166666666666
EXTRACT: note_on channel=5 note=59 velocity=0 time=0.95
EXTRACT: note_on channel=5 note=63 velocity=0 time=0
EXTRACT: note_on channel=5 note=66 velocity=0 time=0
EXTRACT: note_on channel=5 note=47 velocity=0 time=0
EXTRACT: note_on channel=2 note=70 velocity=0 time=0.1
EXTRACT: note_on channel=1 note=80 velocity=80 time=0.0020833333333333333
EXTRACT: note_on channel=2 note=74 velocity=80 time=0
EXTRACT: note_on channel=5 note=59 velocity=80 time=0
EXTRACT: note_on channel=5 note=62 velocity=80 time=0
EXTRACT: note_on channel=5 note=68 velocity=80 time=0
EXTRACT: note_on channel=5 note=47 velocity=80 time=0
EXTRACT: note_on channel=1 note=80 velocity=0 time=0.47291666666666665
EXTRACT: note_on channel=1 note=78 velocity=80 time=0.027083333333333334
EXTRACT: note_on channel=1 note=78 velocity=0 time=0.23541666666666666
EXTRACT: note_on channel=1 note=75 velocity=80 time=0.014583333333333334
EXTRACT: note_on channel=1 note=75 velocity=0 time=0.23541666666666666
EXTRACT: note_on channel=5 note=59 velocity=0 time=0.9125
EXTRACT: note_on channel=5 note=62 velocity=0 time=0
EXTRACT: note_on channel=5 note=68 velocity=0 time=0
EXTRACT: note_on channel=5 note=47 velocity=0 time=0
EXTRACT: note_on channel=2 note=74 velocity=0 time=0.1
EXTRACT: note_on channel=2 note=66 velocity=80 time=0.0020833333333333333
EXTRACT: note_on channel=5 note=61 velocity=80 time=0
EXTRACT: note_on channel=5 note=66 velocity=80 time=0
EXTRACT: note_on channel=5 note=70 velocity=80 time=0
EXTRACT: note_on channel=5 note=54 velocity=80 time=0
EXTRACT: note_on channel=1 note=78 velocity=80 time=1.0
EXTRACT: note_on channel=0 note=70 velocity=80 time=0.5
EXTRACT: note_on channel=1 note=78 velocity=0 time=0.21041666666666667
EXTRACT: note_on channel=0 note=70 velocity=0 time=0.0375
EXTRACT: note_on channel=0 note=68 velocity=80 time=0.0020833333333333333
EXTRACT: note_on channel=1 note=70 velocity=80 time=0
EXTRACT: note_on channel=1 note=70 velocity=0 time=0.11666666666666667
EXTRACT: note_on channel=1 note=71 velocity=80 time=0.008333333333333333
EXTRACT: note_on channel=5 note=61 velocity=0 time=0.022916666666666665
EXTRACT: note_on channel=5 note=66 velocity=0 time=0
EXTRACT: note_on channel=5 note=70 velocity=0 time=0
EXTRACT: note_on channel=5 note=54 velocity=0 time=0
EXTRACT: note_on channel=1 note=71 velocity=0 time=0.09375
EXTRACT: note_on channel=2 note=66 velocity=0 time=0.00625
EXTRACT: note_on channel=1 note=73 velocity=80 time=0.0020833333333333333
EXTRACT: note_on channel=2 note=68 velocity=80 time=0
EXTRACT: note_on channel=5 note=61 velocity=80 time=0
EXTRACT: note_on channel=5 note=64 velocity=80 time=0
EXTRACT: note_on channel=5 note=70 velocity=80 time=0
EXTRACT: note_on channel=5 note=52 velocity=80 time=0
EXTRACT: note_on channel=0 note=68 velocity=0 time=0.4979166666666667
EXTRACT: note_on channel=0 note=70 velocity=80 time=0.0020833333333333333
EXTRACT: note_on channel=1 note=73 velocity=0 time=0.21041666666666667
EXTRACT: note_on channel=0 note=70 velocity=0 time=0.0375
EXTRACT: note_on channel=0 note=68 velocity=80 time=0.0020833333333333333
EXTRACT: note_on channel=1 note=75 velocity=80 time=0
EXTRACT: note_on channel=1 note=75 velocity=0 time=0.23541666666666666
EXTRACT: note_on channel=1 note=78 velocity=80 time=0.014583333333333334
EXTRACT: note_on channel=1 note=78 velocity=0 time=0.47291666666666665
EXTRACT: note_on channel=0 note=68 velocity=0 time=0.025
EXTRACT: note_on channel=0 note=70 velocity=80 time=0.0020833333333333333
EXTRACT: note_on channel=1 note=80 velocity=80 time=0
EXTRACT: note_on channel=1 note=80 velocity=0 time=0.23541666666666666
EXTRACT: note_on channel=0 note=70 velocity=0 time=0.0125
EXTRACT: note_on channel=0 note=68 velocity=80 time=0.0020833333333333333
EXTRACT: note_on channel=1 note=78 velocity=80 time=0
EXTRACT: note_on channel=1 note=78 velocity=0 time=0.11666666666666667
EXTRACT: note_on channel=1 note=80 velocity=80 time=0.008333333333333333
EXTRACT: note_on channel=5 note=61 velocity=0 time=0.022916666666666665
EXTRACT: note_on channel=5 note=64 velocity=0 time=0
EXTRACT: note_on channel=5 note=70 velocity=0 time=0
EXTRACT: note_on channel=5 note=52 velocity=0 time=0
EXTRACT: note_on channel=1 note=80 velocity=0 time=0.09375
EXTRACT: note_on channel=2 note=68 velocity=0 time=0.00625
EXTRACT: note_on channel=1 note=82 velocity=80 time=0.0020833333333333333
EXTRACT: note_on channel=2 note=70 velocity=80 time=0
EXTRACT: note_on channel=5 note=59 velocity=80 time=0
EXTRACT: note_on channel=5 note=63 velocity=80 time=0
EXTRACT: note_on channel=5 note=66 velocity=80 time=0
EXTRACT: note_on channel=5 note=54 velocity=80 time=0
EXTRACT: note_on channel=0 note=68 velocity=0 time=0.24791666666666667
EXTRACT: note_on channel=0 note=68 velocity=80 time=0.0020833333333333333
EXTRACT: note_on channel=0 note=68 velocity=0 time=0.24791666666666667
EXTRACT: note_on channel=0 note=66 velocity=80 time=0.0020833333333333333
EXTRACT: note_on channel=0 note=66 velocity=0 time=0.12291666666666666
EXTRACT: note_on channel=0 note=63 velocity=80 time=0.0020833333333333333
EXTRACT: note_on channel=0 note=63 velocity=0 time=0.12291666666666666
EXTRACT: note_on channel=1 note=82 velocity=0 time=0.2
EXTRACT: note_on channel=5 note=59 velocity=0 time=0
EXTRACT: note_on channel=5 note=63 velocity=0 time=0
EXTRACT: note_on channel=5 note=66 velocity=0 time=0
EXTRACT: note_on channel=2 note=70 velocity=0 time=0.05
EXTRACT: note_on channel=1 note=85 velocity=80 time=0.0020833333333333333
EXTRACT: note_on channel=2 note=78 velocity=80 time=0
EXTRACT: note_on channel=5 note=54 velocity=80 time=0
EXTRACT: note_on channel=5 note=59 velocity=80 time=0
EXTRACT: note_on channel=5 note=63 velocity=80 time=0
EXTRACT: note_on channel=5 note=54 velocity=0 time=0.8979166666666667
EXTRACT: note_on channel=1 note=85 velocity=0 time=0.05
EXTRACT: note_on channel=5 note=54 velocity=0 time=0
EXTRACT: note_on channel=5 note=59 velocity=0 time=0
EXTRACT: note_on channel=5 note=63 velocity=0 time=0
EXTRACT: note_on channel=2 note=78 velocity=0 time=0.05
EXTRACT: note_on channel=1 note=83 velocity=80 time=0.0020833333333333333
EXTRACT: note_on channel=2 note=74 velocity=80 time=0
EXTRACT: note_on channel=5 note=59 velocity=80 time=0
EXTRACT: note_on channel=5 note=62 velocity=80 time=0
EXTRACT: note_on channel=5 note=68 velocity=80 time=0
EXTRACT: note_on channel=5 note=52 velocity=80 time=0
EXTRACT: note_on channel=0 note=66 velocity=80 time=0.75
EXTRACT: note_on channel=1 note=83 velocity=0 time=0.19791666666666666
EXTRACT: note_on channel=5 note=59 velocity=0 time=0
EXTRACT: note_on channel=5 note=62 velocity=0 time=0
EXTRACT: note_on channel=5 note=68 velocity=0 time=0
EXTRACT: note_on channel=0 note=66 velocity=0 time=0.05
EXTRACT: note_on channel=2 note=74 velocity=0 time=0
EXTRACT: note_on channel=0 note=68 velocity=80 time=0.0020833333333333333
EXTRACT: note_on channel=1 note=85 velocity=80 time=0
EXTRACT: note_on channel=2 note=78 velocity=80 time=0
EXTRACT: note_on channel=5 note=56 velocity=80 time=0
EXTRACT: note_on channel=5 note=59 velocity=80 time=0
EXTRACT: note_on channel=5 note=62 velocity=80 time=0
EXTRACT: note_on channel=0 note=68 velocity=0 time=0.4979166666666667
EXTRACT: note_on channel=0 note=70 velocity=80 time=0.0020833333333333333
EXTRACT: note_on channel=5 note=52 velocity=0 time=0.39791666666666664
EXTRACT: note_on channel=1 note=85 velocity=0 time=0.05
EXTRACT: note_on channel=5 note=56 velocity=0 time=0
EXTRACT: note_on channel=5 note=59 velocity=0 time=0
EXTRACT: note_on channel=5 note=62 velocity=0 time=0
EXTRACT: note_on channel=0 note=70 velocity=0 time=0.05
EXTRACT: note_on channel=2 note=78 velocity=0 time=0
EXTRACT: note_on channel=0 note=66 velocity=80 time=1.199999
EXTRACT: note_on channel=1 note=85 velocity=80 time=0
EXTRACT: note_on channel=2 note=73 velocity=80 time=0
EXTRACT: note_on channel=5 note=61 velocity=80 time=0
EXTRACT: note_on channel=5 note=66 velocity=80 time=0
EXTRACT: note_on channel=5 note=70 velocity=80 time=0
EXTRACT: note_on channel=5 note=54 velocity=80 time=0
EXTRACT: note_on channel=1 note=85 velocity=0 time=3.414997154166667
EXTRACT: note_on channel=5 note=61 velocity=0 time=0
EXTRACT: note_on channel=5 note=66 velocity=0 time=0
EXTRACT: note_on channel=5 note=70 velocity=0 time=0
EXTRACT: note_on channel=5 note=54 velocity=0 time=0
EXTRACT: note_on channel=0 note=66 velocity=0 time=0.17999985000000002
EXTRACT: note_on channel=2 note=73 velocity=0 time=0
MUSIC03 - My_EverythingAriana_Grande.mid
INTERVALS03 - My_EverythingAriana_Grande.mid
unison381
2m21
2M159
3m28
3M30
4m10
4M0
5m13
5M0
6m12
7m1
7M0
