EXTRACT: control_change channel=0 control=121 value=0 time=0
EXTRACT: program_change channel=0 program=40 time=0
EXTRACT: control_change channel=0 control=7 value=53 time=0
EXTRACT: control_change channel=0 control=10 value=64 time=0
EXTRACT: control_change channel=0 control=91 value=0 time=0
EXTRACT: control_change channel=0 control=93 value=0 time=0
EXTRACT: control_change channel=1 control=121 value=0 time=0
EXTRACT: program_change channel=1 program=45 time=0
EXTRACT: control_change channel=1 control=7 value=100 time=0
EXTRACT: control_change channel=1 control=10 value=64 time=0
EXTRACT: control_change channel=1 control=91 value=0 time=0
EXTRACT: control_change channel=1 control=93 value=0 time=0
EXTRACT: control_change channel=2 control=121 value=0 time=0
EXTRACT: program_change channel=2 program=44 time=0
EXTRACT: control_change channel=2 control=7 value=100 time=0
EXTRACT: control_change channel=2 control=10 value=64 time=0
EXTRACT: control_change channel=2 control=91 value=0 time=0
EXTRACT: control_change channel=2 control=93 value=0 time=0
EXTRACT: control_change channel=3 control=121 value=0 time=0
EXTRACT: program_change channel=3 program=0 time=0
EXTRACT: control_change channel=3 control=7 value=100 time=0
EXTRACT: control_change channel=3 control=10 value=64 time=0
EXTRACT: control_change channel=3 control=91 value=30 time=0
EXTRACT: control_change channel=3 control=93 value=30 time=0
EXTRACT: note_on channel=3 note=60 velocity=49 time=0
EXTRACT: note_on channel=3 note=62 velocity=49 time=0
EXTRACT: note_on channel=3 note=65 velocity=49 time=0
EXTRACT: note_on channel=3 note=69 velocity=49 time=0
EXTRACT: note_on channel=3 note=50 velocity=49 time=0
EXTRACT: note_on channel=3 note=57 velocity=49 time=0
EXTRACT: note_on channel=3 note=50 velocity=0 time=0.41493038958333334
EXTRACT: note_on channel=3 note=57 velocity=0 time=0
EXTRACT: note_on channel=3 note=50 velocity=49 time=0.0017361104166666666
EXTRACT: note_on channel=3 note=57 velocity=49 time=0
EXTRACT: note_on channel=3 note=60 velocity=0 time=0.41493038958333334
EXTRACT: note_on channel=3 note=62 velocity=0 time=0
EXTRACT: note_on channel=3 note=65 velocity=0 time=0
EXTRACT: note_on channel=3 note=69 velocity=0 time=0
EXTRACT: note_on channel=3 note=50 velocity=0 time=0
EXTRACT: note_on channel=3 note=57 velocity=0 time=0
EXTRACT: note_on channel=3 note=60 velocity=49 time=0.0017361104166666666
EXTRACT: note_on channel=3 note=62 velocity=49 time=0
EXTRACT: note_on channel=3 note=65 velocity=49 time=0
EXTRACT: note_on channel=3 note=69 velocity=49 time=0
EXTRACT: note_on channel=3 note=50 velocity=49 time=0
EXTRACT: note_on channel=3 note=57 velocity=49 time=0
EXTRACT: note_on channel=3 note=50 velocity=0 time=0.41493038958333334
EXTRACT: note_on channel=3 note=57 velocity=0 time=0
EXTRACT: note_on channel=3 note=50 velocity=49 time=0.0017361104166666666
EXTRACT: note_on channel=3 note=57 velocity=49 time=0
EXTRACT: note_on channel=3 note=60 velocity=0 time=0.41493038958333334
EXTRACT: note_on channel=3 note=62 velocity=0 time=0
EXTRACT: note_on channel=3 note=65 velocity=0 time=0
EXTRACT: note_on channel=3 note=69 velocity=0 time=0
EXTRACT: note_on channel=3 note=50 velocity=0 time=0
EXTRACT: note_on channel=3 note=57 velocity=0 time=0
EXTRACT: note_on channel=0 note=77 velocity=80 time=0.0017361104166666666
EXTRACT: note_on channel=3 note=60 velocity=49 time=0
EXTRACT: note_on channel=3 note=62 velocity=49 time=0
EXTRACT: note_on channel=3 note=65 velocity=49 time=0
EXTRACT: note_on channel=3 note=69 velocity=49 time=0
EXTRACT: note_on channel=3 note=50 velocity=49 time=0
EXTRACT: note_on channel=3 note=57 velocity=49 time=0
EXTRACT: note_on channel=0 note=77 velocity=0 time=0.41493038958333334
EXTRACT: note_on channel=3 note=50 velocity=0 time=0
EXTRACT: note_on channel=3 note=57 velocity=0 time=0
EXTRACT: note_on channel=0 note=79 velocity=80 time=0.0017361104166666666
EXTRACT: note_on channel=3 note=50 velocity=49 time=0
EXTRACT: note_on channel=3 note=57 velocity=49 time=0
EXTRACT: note_on channel=0 note=79 velocity=0 time=0.41493038958333334
EXTRACT: note_on channel=3 note=60 velocity=0 time=0
EXTRACT: note_on channel=3 note=62 velocity=0 time=0
EXTRACT: note_on channel=3 note=65 velocity=0 time=0
EXTRACT: note_on channel=3 note=69 velocity=0 time=0
EXTRACT: note_on channel=3 note=50 velocity=0 time=0
EXTRACT: note_on channel=3 note=57 velocity=0 time=0
EXTRACT: note_on channel=0 note=77 velocity=80 time=0.0017361104166666666
EXTRACT: note_on channel=3 note=60 velocity=49 time=0
EXTRACT: note_on channel=3 note=62 velocity=49 time=0
EXTRACT: note_on channel=3 note=65 velocity=49 time=0
EXTRACT: note_on channel=3 note=69 velocity=49 time=0
EXTRACT: note_on channel=3 note=50 velocity=49 time=0
EXTRACT: note_on channel=3 note=57 velocity=49 time=0
EXTRACT: note_on channel=0 note=77 velocity=0 time=0.41493038958333334
EXTRACT: note_on channel=3 note=50 velocity=0 time=0
EXTRACT: note_on channel=3 note=57 velocity=0 time=0
EXTRACT: note_on channel=0 note=84 velocity=80 time=0.0017361104166666666
EXTRACT: note_on channel=3 note=50 velocity=49 time=0
EXTRACT: note_on channel=3 note=57 velocity=49 time=0
EXTRACT: note_on channel=3 note=60 velocity=0 time=0.41493038958333334
EXTRACT: note_on channel=3 note=62 velocity=0 time=0
EXTRACT: note_on channel=3 note=65 velocity=0 time=0
EXTRACT: note_on channel=3 note=69 velocity=0 time=0
EXTRACT: note_on channel=3 note=50 velocity=0 time=0
EXTRACT: note_on channel=3 note=57 velocity=0 time=0
EXTRACT: note_on channel=3 note=62 velocity=49 time=0.0017361104166666666
EXTRACT: note_on channel=3 note=65 velocity=49 time=0
EXTRACT: note_on channel=3 note=70 velocity=49 time=0
EXTRACT: note_on channel=3 note=50 velocity=49 time=0
EXTRACT: note_on channel=3 note=58 velocity=49 time=0
EXTRACT: note_on channel=0 note=84 velocity=0 time=0.41493038958333334
EXTRACT: note_on channel=3 note=50 velocity=0 time=0
EXTRACT: note_on channel=3 note=58 velocity=0 time=0
EXTRACT: note_on channel=0 note=81 velocity=80 time=0.0017361104166666666
EXTRACT: note_on channel=3 note=50 velocity=49 time=0
EXTRACT: note_on channel=3 note=58 velocity=49 time=0
EXTRACT: note_on channel=3 note=62 velocity=0 time=0.41493038958333334
EXTRACT: note_on channel=3 note=65 velocity=0 time=0
EXTRACT: note_on channel=3 note=70 velocity=0 time=0
EXTRACT: note_on channel=3 note=50 velocity=0 time=0
EXTRACT: note_on channel=3 note=58 velocity=0 time=0
EXTRACT: note_on channel=3 note=62 velocity=49 time=0.0017361104166666666
EXTRACT: note_on channel=3 note=65 velocity=49 time=0
EXTRACT: note_on channel=3 note=70 velocity=49 time=0
EXTRACT: note_on channel=3 note=50 velocity=49 time=0
EXTRACT: note_on channel=3 note=58 velocity=49 time=0
EXTRACT: note_on channel=0 note=81 velocity=0 time=0.41493038958333334
EXTRACT: note_on channel=3 note=50 velocity=0 time=0
EXTRACT: note_on channel=3 note=58 velocity=0 time=0
EXTRACT: note_on channel=3 note=50 velocity=49 time=0.0017361104166666666
EXTRACT: note_on channel=3 note=58 velocity=49 time=0
EXTRACT: note_on channel=3 note=62 velocity=0 time=0.41493038958333334
EXTRACT: note_on channel=3 note=65 velocity=0 time=0
EXTRACT: note_on channel=3 note=70 velocity=0 time=0
EXTRACT: note_on channel=3 note=50 velocity=0 time=0
EXTRACT: note_on channel=3 note=58 velocity=0 time=0
EXTRACT: note_on channel=0 note=77 velocity=80 time=0.0017361104166666666
EXTRACT: note_on channel=3 note=62 velocity=49 time=0
EXTRACT: note_on channel=3 note=65 velocity=49 time=0
EXTRACT: note_on channel=3 note=70 velocity=49 time=0
EXTRACT: note_on channel=3 note=50 velocity=49 time=0
EXTRACT: note_on channel=3 note=58 velocity=49 time=0
EXTRACT: note_on channel=0 note=77 velocity=0 time=0.41493038958333334
EXTRACT: note_on channel=3 note=50 velocity=0 time=0
EXTRACT: note_on channel=3 note=58 velocity=0 time=0
EXTRACT: note_on channel=0 note=79 velocity=80 time=0.0017361104166666666
EXTRACT: note_on channel=3 note=50 velocity=49 time=0
EXTRACT: note_on channel=3 note=58 velocity=49 time=0
EXTRACT: note_on channel=0 note=79 velocity=0 time=0.41493038958333334
EXTRACT: note_on channel=3 note=62 velocity=0 time=0
EXTRACT: note_on channel=3 note=65 velocity=0 time=0
EXTRACT: note_on channel=3 note=70 velocity=0 time=0
EXTRACT: note_on channel=3 note=50 velocity=0 time=0
EXTRACT: note_on channel=3 note=58 velocity=0 time=0
EXTRACT: note_on channel=0 note=77 velocity=80 time=0.0017361104166666666
EXTRACT: note_on channel=3 note=62 velocity=49 time=0
EXTRACT: note_on channel=3 note=65 velocity=49 time=0
EXTRACT: note_on channel=3 note=70 velocity=49 time=0
EXTRACT: note_on channel=3 note=50 velocity=49 time=0
EXTRACT: note_on channel=3 note=58 velocity=49 time=0
EXTRACT: note_on channel=0 note=77 velocity=0 time=0.41493038958333334
EXTRACT: note_on channel=3 note=50 velocity=0 time=0
EXTRACT: note_on channel=3 note=58 velocity=0 time=0
EXTRACT: note_on channel=0 note=84 velocity=80 time=0.0017361104166666666
EXTRACT: note_on channel=3 note=50 velocity=49 time=0
EXTRACT: note_on channel=3 note=58 velocity=49 time=0
EXTRACT: note_on channel=3 note=62 velocity=0 time=0.41493038958333334
EXTRACT: note_on channel=3 note=65 velocity=0 time=0
EXTRACT: note_on channel=3 note=70 velocity=0 time=0
EXTRACT: note_on channel=3 note=50 velocity=0 time=0
EXTRACT: note_on channel=3 note=58 velocity=0 time=0
EXTRACT: note_on channel=3 note=60 velocity=49 time=0.0017361104166666666
EXTRACT: note_on channel=3 note=65 velocity=49 time=0
EXTRACT: note_on channel=3 note=69 velocity=49 time=0
EXTRACT: note_on channel=3 note=48 velocity=49 time=0
EXTRACT: note_on channel=3 note=57 velocity=49 time=0
EXTRACT: note_on channel=0 note=84 velocity=0 time=0.41493038958333334
EXTRACT: note_on channel=3 note=48 velocity=0 time=0
EXTRACT: note_on channel=3 note=57 velocity=0 time=0
EXTRACT: note_on channel=0 note=81 velocity=80 time=0.0017361104166666666
EXTRACT: note_on channel=3 note=48 velocity=49 time=0
EXTRACT: note_on channel=3 note=57 velocity=49 time=0
EXTRACT: note_on channel=3 note=60 velocity=0 time=0.41493038958333334
EXTRACT: note_on channel=3 note=65 velocity=0 time=0
EXTRACT: note_on channel=3 note=69 velocity=0 time=0
EXTRACT: note_on channel=3 note=48 velocity=0 time=0
EXTRACT: note_on channel=3 note=57 velocity=0 time=0
EXTRACT: note_on channel=3 note=60 velocity=49 time=0.0017361104166666666
EXTRACT: note_on channel=3 note=65 velocity=49 time=0
EXTRACT: note_on channel=3 note=69 velocity=49 time=0
EXTRACT: note_on channel=3 note=48 velocity=49 time=0
EXTRACT: note_on channel=3 note=57 velocity=49 time=0
EXTRACT: note_on channel=0 note=81 velocity=0 time=0.41493038958333334
EXTRACT: note_on channel=3 note=48 velocity=0 time=0
EXTRACT: note_on channel=3 note=57 velocity=0 time=0
EXTRACT: note_on channel=3 note=48 velocity=49 time=0.0017361104166666666
EXTRACT: note_on channel=3 note=57 velocity=49 time=0
EXTRACT: note_on channel=3 note=60 velocity=0 time=0.41493038958333334
EXTRACT: note_on channel=3 note=65 velocity=0 time=0
EXTRACT: note_on channel=3 note=69 velocity=0 time=0
EXTRACT: note_on channel=3 note=48 velocity=0 time=0
EXTRACT: note_on channel=3 note=57 velocity=0 time=0
EXTRACT: note_on channel=0 note=77 velocity=80 time=0.0017361104166666666
EXTRACT: note_on channel=3 note=60 velocity=49 time=0
EXTRACT: note_on channel=3 note=65 velocity=49 time=0
EXTRACT: note_on channel=3 note=69 velocity=49 time=0
EXTRACT: note_on channel=3 note=48 velocity=49 time=0
EXTRACT: note_on channel=3 note=57 velocity=49 time=0
EXTRACT: note_on channel=0 note=77 velocity=0 time=0.41493038958333334
EXTRACT: note_on channel=3 note=48 velocity=0 time=0
EXTRACT: note_on channel=3 note=57 velocity=0 time=0
EXTRACT: note_on channel=0 note=79 velocity=80 time=0.0017361104166666666
EXTRACT: note_on channel=3 note=48 velocity=49 time=0
EXTRACT: note_on channel=3 note=57 velocity=49 time=0
EXTRACT: note_on channel=0 note=79 velocity=0 time=0.41493038958333334
EXTRACT: note_on channel=3 note=60 velocity=0 time=0
EXTRACT: note_on channel=3 note=65 velocity=0 time=0
EXTRACT: note_on channel=3 note=69 velocity=0 time=0
EXTRACT: note_on channel=3 note=48 velocity=0 time=0
EXTRACT: note_on channel=3 note=57 velocity=0 time=0
EXTRACT: note_on channel=0 note=77 velocity=80 time=0.0017361104166666666
EXTRACT: note_on channel=3 note=60 velocity=49 time=0
EXTRACT: note_on channel=3 note=65 velocity=49 time=0
EXTRACT: note_on channel=3 note=69 velocity=49 time=0
EXTRACT: note_on channel=3 note=48 velocity=49 time=0
EXTRACT: note_on channel=3 note=57 velocity=49 time=0
EXTRACT: note_on channel=0 note=77 velocity=0 time=0.41493038958333334
EXTRACT: note_on channel=3 note=48 velocity=0 time=0
EXTRACT: note_on channel=3 note=57 velocity=0 time=0
EXTRACT: note_on channel=0 note=81 velocity=80 time=0.0017361104166666666
EXTRACT: note_on channel=3 note=48 velocity=49 time=0
EXTRACT: note_on channel=3 note=57 velocity=49 time=0
EXTRACT: note_on channel=3 note=60 velocity=0 time=0.41493038958333334
EXTRACT: note_on channel=3 note=65 velocity=0 time=0
EXTRACT: note_on channel=3 note=69 velocity=0 time=0
EXTRACT: note_on channel=3 note=48 velocity=0 time=0
EXTRACT: note_on channel=3 note=57 velocity=0 time=0
EXTRACT: note_on channel=3 note=60 velocity=49 time=0.0017361104166666666
EXTRACT: note_on channel=3 note=65 velocity=49 time=0
EXTRACT: note_on channel=3 note=67 velocity=49 time=0
EXTRACT: note_on channel=3 note=48 velocity=49 time=0
EXTRACT: note_on channel=3 note=55 velocity=49 time=0
EXTRACT: note_on channel=0 note=81 velocity=0 time=0.41493038958333334
EXTRACT: note_on channel=3 note=48 velocity=0 time=0
EXTRACT: note_on channel=3 note=55 velocity=0 time=0
EXTRACT: note_on channel=0 note=81 velocity=80 time=0.0017361104166666666
EXTRACT: note_on channel=3 note=48 velocity=49 time=0
EXTRACT: note_on channel=3 note=55 velocity=49 time=0
EXTRACT: note_on channel=3 note=60 velocity=0 time=0.41493038958333334
EXTRACT: note_on channel=3 note=65 velocity=0 time=0
EXTRACT: note_on channel=3 note=67 velocity=0 time=0
EXTRACT: note_on channel=3 note=48 velocity=0 time=0
EXTRACT: note_on channel=3 note=55 velocity=0 time=0
EXTRACT: note_on channel=3 note=60 velocity=49 time=0.0017361104166666666
EXTRACT: note_on channel=3 note=65 velocity=49 time=0
EXTRACT: note_on channel=3 note=67 velocity=49 time=0
EXTRACT: note_on channel=3 note=48 velocity=49 time=0
EXTRACT: note_on channel=3 note=55 velocity=49 time=0
EXTRACT: note_on channel=0 note=81 velocity=0 time=0.41493038958333334
EXTRACT: note_on channel=3 note=48 velocity=0 time=0
EXTRACT: note_on channel=3 note=55 velocity=0 time=0
EXTRACT: note_on channel=0 note=81 velocity=80 time=0.0017361104166666666
EXTRACT: note_on channel=3 note=48 velocity=49 time=0
EXTRACT: note_on channel=3 note=55 velocity=49 time=0
EXTRACT: note_on channel=0 note=81 velocity=0 time=0.41493038958333334
EXTRACT: note_on channel=3 note=60 velocity=0 time=0
EXTRACT: note_on channel=3 note=65 velocity=0 time=0
EXTRACT: note_on channel=3 note=67 velocity=0 time=0
EXTRACT: note_on channel=3 note=48 velocity=0 time=0
EXTRACT: note_on channel=3 note=55 velocity=0 time=0
EXTRACT: note_on channel=0 note=81 velocity=80 time=0.0017361104166666666
EXTRACT: note_on channel=3 note=60 velocity=49 time=0
EXTRACT: note_on channel=3 note=65 velocity=49 time=0
EXTRACT: note_on channel=3 note=67 velocity=49 time=0
EXTRACT: note_on channel=3 note=48 velocity=49 time=0
EXTRACT: note_on channel=3 note=55 velocity=49 time=0
EXTRACT: note_on channel=3 note=48 velocity=0 time=0.41493038958333334
EXTRACT: note_on channel=3 note=55 velocity=0 time=0
EXTRACT: note_on channel=3 note=48 velocity=49 time=0.0017361104166666666
EXTRACT: note_on channel=3 note=55 velocity=49 time=0
EXTRACT: note_on channel=0 note=81 velocity=0 time=0.41493038958333334
EXTRACT: note_on channel=3 note=60 velocity=0 time=0
EXTRACT: note_on channel=3 note=65 velocity=0 time=0
EXTRACT: note_on channel=3 note=67 velocity=0 time=0
EXTRACT: note_on channel=3 note=48 velocity=0 time=0
EXTRACT: note_on channel=3 note=55 velocity=0 time=0
EXTRACT: note_on channel=0 note=79 velocity=80 time=0.0017361104166666666
EXTRACT: note_on channel=3 note=60 velocity=49 time=0
EXTRACT: note_on channel=3 note=65 velocity=49 time=0
EXTRACT: note_on channel=3 note=67 velocity=49 time=0
EXTRACT: note_on channel=3 note=48 velocity=49 time=0
EXTRACT: note_on channel=3 note=55 velocity=49 time=0
EXTRACT: note_on channel=0 note=79 velocity=0 time=0.41493038958333334
EXTRACT: note_on channel=3 note=48 velocity=0 time=0
EXTRACT: note_on channel=3 note=55 velocity=0 time=0
EXTRACT: note_on channel=0 note=77 velocity=80 time=0.0017361104166666666
EXTRACT: note_on channel=3 note=48 velocity=49 time=0
EXTRACT: note_on channel=3 note=55 velocity=49 time=0
EXTRACT: note_on channel=3 note=60 velocity=0 time=0.41493038958333334
EXTRACT: note_on channel=3 note=65 velocity=0 time=0
EXTRACT: note_on channel=3 note=67 velocity=0 time=0
EXTRACT: note_on channel=3 note=48 velocity=0 time=0
EXTRACT: note_on channel=3 note=55 velocity=0 time=0
EXTRACT: note_on channel=3 note=60 velocity=49 time=0.0017361104166666666
EXTRACT: note_on channel=3 note=62 velocity=49 time=0
EXTRACT: note_on channel=3 note=65 velocity=49 time=0
EXTRACT: note_on channel=3 note=69 velocity=49 time=0
EXTRACT: note_on channel=3 note=50 velocity=49 time=0
EXTRACT: note_on channel=3 note=57 velocity=49 time=0
EXTRACT: note_on channel=3 note=50 velocity=0 time=0.41493038958333334
EXTRACT: note_on channel=3 note=57 velocity=0 time=0
EXTRACT: note_on channel=3 note=50 velocity=49 time=0.0017361104166666666
EXTRACT: note_on channel=3 note=57 velocity=49 time=0
EXTRACT: note_on channel=0 note=77 velocity=0 time=0.41493038958333334
EXTRACT: note_on channel=3 note=60 velocity=0 time=0
EXTRACT: note_on channel=3 note=62 velocity=0 time=0
EXTRACT: note_on channel=3 note=65 velocity=0 time=0
EXTRACT: note_on channel=3 note=69 velocity=0 time=0
EXTRACT: note_on channel=3 note=50 velocity=0 time=0
EXTRACT: note_on channel=3 note=57 velocity=0 time=0
EXTRACT: note_on channel=3 note=60 velocity=49 time=0.0017361104166666666
EXTRACT: note_on channel=3 note=62 velocity=49 time=0
EXTRACT: note_on channel=3 note=65 velocity=49 time=0
EXTRACT: note_on channel=3 note=69 velocity=49 time=0
EXTRACT: note_on channel=3 note=50 velocity=49 time=0
EXTRACT: note_on channel=3 note=57 velocity=49 time=0
EXTRACT: note_on channel=3 note=50 velocity=0 time=0.41493038958333334
EXTRACT: note_on channel=3 note=57 velocity=0 time=0
EXTRACT: note_on channel=3 note=50 velocity=49 time=0.0017361104166666666
EXTRACT: note_on channel=3 note=57 velocity=49 time=0
EXTRACT: note_on channel=3 note=60 velocity=0 time=0.41493038958333334
EXTRACT: note_on channel=3 note=62 velocity=0 time=0
EXTRACT: note_on channel=3 note=65 velocity=0 time=0
EXTRACT: note_on channel=3 note=69 velocity=0 time=0
EXTRACT: note_on channel=3 note=50 velocity=0 time=0
EXTRACT: note_on channel=3 note=57 velocity=0 time=0
EXTRACT: note_on channel=0 note=77 velocity=80 time=0.0017361104166666666
EXTRACT: note_on channel=3 note=60 velocity=49 time=0
EXTRACT: note_on channel=3 note=62 velocity=49 time=0
EXTRACT: note_on channel=3 note=65 velocity=49 time=0
EXTRACT: note_on channel=3 note=69 velocity=49 time=0
EXTRACT: note_on channel=3 note=50 velocity=49 time=0
EXTRACT: note_on channel=3 note=57 velocity=49 time=0
EXTRACT: note_on channel=0 note=77 velocity=0 time=0.41493038958333334
EXTRACT: note_on channel=3 note=50 velocity=0 time=0
EXTRACT: note_on channel=3 note=57 velocity=0 time=0
EXTRACT: note_on channel=0 note=79 velocity=80 time=0.0017361104166666666
EXTRACT: note_on channel=3 note=50 velocity=49 time=0
EXTRACT: note_on channel=3 note=57 velocity=49 time=0
EXTRACT: note_on channel=0 note=79 velocity=0 time=0.41493038958333334
EXTRACT: note_on channel=3 note=60 velocity=0 time=0
EXTRACT: note_on channel=3 note=62 velocity=0 time=0
EXTRACT: note_on channel=3 note=65 velocity=0 time=0
EXTRACT: note_on channel=3 note=69 velocity=0 time=0
EXTRACT: note_on channel=3 note=50 velocity=0 time=0
EXTRACT: note_on channel=3 note=57 velocity=0 time=0
EXTRACT: note_on channel=0 note=77 velocity=80 time=0.0017361104166666666
EXTRACT: note_on channel=3 note=60 velocity=49 time=0
EXTRACT: note_on channel=3 note=62 velocity=49 time=0
EXTRACT: note_on channel=3 note=65 velocity=49 time=0
EXTRACT: note_on channel=3 note=69 velocity=49 time=0
EXTRACT: note_on channel=3 note=50 velocity=49 time=0
EXTRACT: note_on channel=3 note=57 velocity=49 time=0
EXTRACT: note_on channel=0 note=77 velocity=0 time=0.41493038958333334
EXTRACT: note_on channel=3 note=50 velocity=0 time=0
EXTRACT: note_on channel=3 note=57 velocity=0 time=0
EXTRACT: note_on channel=0 note=84 velocity=80 time=0.0017361104166666666
EXTRACT: note_on channel=3 note=50 velocity=49 time=0
EXTRACT: note_on channel=3 note=57 velocity=49 time=0
EXTRACT: note_on channel=3 note=60 velocity=0 time=0.41493038958333334
EXTRACT: note_on channel=3 note=62 velocity=0 time=0
EXTRACT: note_on channel=3 note=65 velocity=0 time=0
EXTRACT: note_on channel=3 note=69 velocity=0 time=0
EXTRACT: note_on channel=3 note=50 velocity=0 time=0
EXTRACT: note_on channel=3 note=57 velocity=0 time=0
EXTRACT: note_on channel=3 note=62 velocity=49 time=0.0017361104166666666
EXTRACT: note_on channel=3 note=65 velocity=49 time=0
EXTRACT: note_on channel=3 note=70 velocity=49 time=0
EXTRACT: note_on channel=3 note=50 velocity=49 time=0
EXTRACT: note_on channel=3 note=58 velocity=49 time=0
EXTRACT: note_on channel=0 note=84 velocity=0 time=0.41493038958333334
EXTRACT: note_on channel=3 note=50 velocity=0 time=0
EXTRACT: note_on channel=3 note=58 velocity=0 time=0
EXTRACT: note_on channel=0 note=81 velocity=80 time=0.0017361104166666666
EXTRACT: note_on channel=3 note=50 velocity=49 time=0
EXTRACT: note_on channel=3 note=58 velocity=49 time=0
EXTRACT: note_on channel=3 note=62 velocity=0 time=0.41493038958333334
EXTRACT: note_on channel=3 note=65 velocity=0 time=0
EXTRACT: note_on channel=3 note=70 velocity=0 time=0
EXTRACT: note_on channel=3 note=50 velocity=0 time=0
EXTRACT: note_on channel=3 note=58 velocity=0 time=0
EXTRACT: note_on channel=3 note=62 velocity=49 time=0.0017361104166666666
EXTRACT: note_on channel=3 note=65 velocity=49 time=0
EXTRACT: note_on channel=3 note=70 velocity=49 time=0
EXTRACT: note_on channel=3 note=50 velocity=49 time=0
EXTRACT: note_on channel=3 note=58 velocity=49 time=0
EXTRACT: note_on channel=0 note=81 velocity=0 time=0.41493038958333334
EXTRACT: note_on channel=3 note=50 velocity=0 time=0
EXTRACT: note_on channel=3 note=58 velocity=0 time=0
EXTRACT: note_on channel=3 note=50 velocity=49 time=0.0017361104166666666
EXTRACT: note_on channel=3 note=58 velocity=49 time=0
EXTRACT: note_on channel=3 note=62 velocity=0 time=0.41493038958333334
EXTRACT: note_on channel=3 note=65 velocity=0 time=0
EXTRACT: note_on channel=3 note=70 velocity=0 time=0
EXTRACT: note_on channel=3 note=50 velocity=0 time=0
EXTRACT: note_on channel=3 note=58 velocity=0 time=0
EXTRACT: note_on channel=0 note=77 velocity=80 time=0.0017361104166666666
EXTRACT: note_on channel=3 note=62 velocity=49 time=0
EXTRACT: note_on channel=3 note=65 velocity=49 time=0
EXTRACT: note_on channel=3 note=70 velocity=49 time=0
EXTRACT: note_on channel=3 note=50 velocity=49 time=0
EXTRACT: note_on channel=3 note=58 velocity=49 time=0
EXTRACT: note_on channel=0 note=77 velocity=0 time=0.41493038958333334
EXTRACT: note_on channel=3 note=50 velocity=0 time=0
EXTRACT: note_on channel=3 note=58 velocity=0 time=0
EXTRACT: note_on channel=0 note=79 velocity=80 time=0.0017361104166666666
EXTRACT: note_on channel=3 note=50 velocity=49 time=0
EXTRACT: note_on channel=3 note=58 velocity=49 time=0
EXTRACT: note_on channel=0 note=79 velocity=0 time=0.41493038958333334
EXTRACT: note_on channel=3 note=62 velocity=0 time=0
EXTRACT: note_on channel=3 note=65 velocity=0 time=0
EXTRACT: note_on channel=3 note=70 velocity=0 time=0
EXTRACT: note_on channel=3 note=50 velocity=0 time=0
EXTRACT: note_on channel=3 note=58 velocity=0 time=0
EXTRACT: note_on channel=0 note=77 velocity=80 time=0.0017361104166666666
EXTRACT: note_on channel=3 note=62 velocity=49 time=0
EXTRACT: note_on channel=3 note=65 velocity=49 time=0
EXTRACT: note_on channel=3 note=70 velocity=49 time=0
EXTRACT: note_on channel=3 note=50 velocity=49 time=0
EXTRACT: note_on channel=3 note=58 velocity=49 time=0
EXTRACT: note_on channel=0 note=77 velocity=0 time=0.41493038958333334
EXTRACT: note_on channel=3 note=50 velocity=0 time=0
EXTRACT: note_on channel=3 note=58 velocity=0 time=0
EXTRACT: note_on channel=0 note=84 velocity=80 time=0.0017361104166666666
EXTRACT: note_on channel=3 note=50 velocity=49 time=0
EXTRACT: note_on channel=3 note=58 velocity=49 time=0
EXTRACT: note_on channel=3 note=62 velocity=0 time=0.41493038958333334
EXTRACT: note_on channel=3 note=65 velocity=0 time=0
EXTRACT: note_on channel=3 note=70 velocity=0 time=0
EXTRACT: note_on channel=3 note=50 velocity=0 time=0
EXTRACT: note_on channel=3 note=58 velocity=0 time=0
EXTRACT: note_on channel=3 note=60 velocity=49 time=0.0017361104166666666
EXTRACT: note_on channel=3 note=65 velocity=49 time=0
EXTRACT: note_on channel=3 note=69 velocity=49 time=0
EXTRACT: note_on channel=3 note=48 velocity=49 time=0
EXTRACT: note_on channel=3 note=57 velocity=49 time=0
EXTRACT: note_on channel=0 note=84 velocity=0 time=0.41493038958333334
EXTRACT: note_on channel=3 note=48 velocity=0 time=0
EXTRACT: note_on channel=3 note=57 velocity=0 time=0
EXTRACT: note_on channel=0 note=81 velocity=80 time=0.0017361104166666666
EXTRACT: note_on channel=3 note=48 velocity=49 time=0
EXTRACT: note_on channel=3 note=57 velocity=49 time=0
EXTRACT: note_on channel=3 note=60 velocity=0 time=0.41493038958333334
EXTRACT: note_on channel=3 note=65 velocity=0 time=0
EXTRACT: note_on channel=3 note=69 velocity=0 time=0
EXTRACT: note_on channel=3 note=48 velocity=0 time=0
EXTRACT: note_on channel=3 note=57 velocity=0 time=0
EXTRACT: note_on channel=3 note=60 velocity=49 time=0.0017361104166666666
EXTRACT: note_on channel=3 note=65 velocity=49 time=0
EXTRACT: note_on channel=3 note=69 velocity=49 time=0
EXTRACT: note_on channel=3 note=48 velocity=49 time=0
EXTRACT: note_on channel=3 note=57 velocity=49 time=0
EXTRACT: note_on channel=0 note=81 velocity=0 time=0.41493038958333334
EXTRACT: note_on channel=3 note=48 velocity=0 time=0
EXTRACT: note_on channel=3 note=57 velocity=0 time=0
EXTRACT: note_on channel=3 note=48 velocity=49 time=0.0017361104166666666
EXTRACT: note_on channel=3 note=57 velocity=49 time=0
EXTRACT: note_on channel=3 note=60 velocity=0 time=0.41493038958333334
EXTRACT: note_on channel=3 note=65 velocity=0 time=0
EXTRACT: note_on channel=3 note=69 velocity=0 time=0
EXTRACT: note_on channel=3 note=48 velocity=0 time=0
EXTRACT: note_on channel=3 note=57 velocity=0 time=0
EXTRACT: note_on channel=0 note=77 velocity=80 time=0.0017361104166666666
EXTRACT: note_on channel=3 note=60 velocity=49 time=0
EXTRACT: note_on channel=3 note=65 velocity=49 time=0
EXTRACT: note_on channel=3 note=69 velocity=49 time=0
EXTRACT: note_on channel=3 note=48 velocity=49 time=0
EXTRACT: note_on channel=3 note=57 velocity=49 time=0
EXTRACT: note_on channel=0 note=77 velocity=0 time=0.41493038958333334
EXTRACT: note_on channel=3 note=48 velocity=0 time=0
EXTRACT: note_on channel=3 note=57 velocity=0 time=0
EXTRACT: note_on channel=0 note=79 velocity=80 time=0.0017361104166666666
EXTRACT: note_on channel=3 note=48 velocity=49 time=0
EXTRACT: note_on channel=3 note=57 velocity=49 time=0
EXTRACT: note_on channel=0 note=79 velocity=0 time=0.41493038958333334
EXTRACT: note_on channel=3 note=60 velocity=0 time=0
EXTRACT: note_on channel=3 note=65 velocity=0 time=0
EXTRACT: note_on channel=3 note=69 velocity=0 time=0
EXTRACT: note_on channel=3 note=48 velocity=0 time=0
EXTRACT: note_on channel=3 note=57 velocity=0 time=0
EXTRACT: note_on channel=0 note=77 velocity=80 time=0.0017361104166666666
EXTRACT: note_on channel=3 note=60 velocity=49 time=0
EXTRACT: note_on channel=3 note=65 velocity=49 time=0
EXTRACT: note_on channel=3 note=69 velocity=49 time=0
EXTRACT: note_on channel=3 note=48 velocity=49 time=0
EXTRACT: note_on channel=3 note=57 velocity=49 time=0
EXTRACT: note_on channel=0 note=77 velocity=0 time=0.41493038958333334
EXTRACT: note_on channel=3 note=48 velocity=0 time=0
EXTRACT: note_on channel=3 note=57 velocity=0 time=0
EXTRACT: note_on channel=0 note=81 velocity=80 time=0.0017361104166666666
EXTRACT: note_on channel=3 note=48 velocity=49 time=0
EXTRACT: note_on channel=3 note=57 velocity=49 time=0
EXTRACT: note_on channel=3 note=60 velocity=0 time=0.41493038958333334
EXTRACT: note_on channel=3 note=65 velocity=0 time=0
EXTRACT: note_on channel=3 note=69 velocity=0 time=0
EXTRACT: note_on channel=3 note=48 velocity=0 time=0
EXTRACT: note_on channel=3 note=57 velocity=0 time=0
EXTRACT: note_on channel=3 note=60 velocity=49 time=0.0017361104166666666
EXTRACT: note_on channel=3 note=65 velocity=49 time=0
EXTRACT: note_on channel=3 note=67 velocity=49 time=0
EXTRACT: note_on channel=3 note=48 velocity=49 time=0
EXTRACT: note_on channel=3 note=55 velocity=49 time=0
EXTRACT: note_on channel=0 note=81 velocity=0 time=0.41493038958333334
EXTRACT: note_on channel=3 note=48 velocity=0 time=0
EXTRACT: note_on channel=3 note=55 velocity=0 time=0
EXTRACT: note_on channel=0 note=81 velocity=80 time=0.0017361104166666666
EXTRACT: note_on channel=3 note=48 velocity=49 time=0
EXTRACT: note_on channel=3 note=55 velocity=49 time=0
EXTRACT: note_on channel=3 note=60 velocity=0 time=0.41493038958333334
EXTRACT: note_on channel=3 note=65 velocity=0 time=0
EXTRACT: note_on channel=3 note=67 velocity=0 time=0
EXTRACT: note_on channel=3 note=48 velocity=0 time=0
EXTRACT: note_on channel=3 note=55 velocity=0 time=0
EXTRACT: note_on channel=3 note=60 velocity=49 time=0.0017361104166666666
EXTRACT: note_on channel=3 note=65 velocity=49 time=0
EXTRACT: note_on channel=3 note=67 velocity=49 time=0
EXTRACT: note_on channel=3 note=48 velocity=49 time=0
EXTRACT: note_on channel=3 note=55 velocity=49 time=0
EXTRACT: note_on channel=0 note=81 velocity=0 time=0.41493038958333334
EXTRACT: note_on channel=3 note=48 velocity=0 time=0
EXTRACT: note_on channel=3 note=55 velocity=0 time=0
EXTRACT: note_on channel=0 note=81 velocity=80 time=0.0017361104166666666
EXTRACT: note_on channel=3 note=48 velocity=49 time=0
EXTRACT: note_on channel=3 note=55 velocity=49 time=0
EXTRACT: note_on channel=0 note=81 velocity=0 time=0.41493038958333334
EXTRACT: note_on channel=3 note=60 velocity=0 time=0
EXTRACT: note_on channel=3 note=65 velocity=0 time=0
EXTRACT: note_on channel=3 note=67 velocity=0 time=0
EXTRACT: note_on channel=3 note=48 velocity=0 time=0
EXTRACT: note_on channel=3 note=55 velocity=0 time=0
EXTRACT: note_on channel=0 note=81 velocity=80 time=0.0017361104166666666
EXTRACT: note_on channel=3 note=60 velocity=49 time=0
EXTRACT: note_on channel=3 note=65 velocity=49 time=0
EXTRACT: note_on channel=3 note=67 velocity=49 time=0
EXTRACT: note_on channel=3 note=48 velocity=49 time=0
EXTRACT: note_on channel=3 note=55 velocity=49 time=0
EXTRACT: note_on channel=3 note=48 velocity=0 time=0.41493038958333334
EXTRACT: note_on channel=3 note=55 velocity=0 time=0
EXTRACT: note_on channel=3 note=48 velocity=49 time=0.0017361104166666666
EXTRACT: note_on channel=3 note=55 velocity=49 time=0
EXTRACT: note_on channel=0 note=81 velocity=0 time=0.41493038958333334
EXTRACT: note_on channel=3 note=60 velocity=0 time=0
EXTRACT: note_on channel=3 note=65 velocity=0 time=0
EXTRACT: note_on channel=3 note=67 velocity=0 time=0
EXTRACT: note_on channel=3 note=48 velocity=0 time=0
EXTRACT: note_on channel=3 note=55 velocity=0 time=0
EXTRACT: note_on channel=0 note=79 velocity=80 time=0.0017361104166666666
EXTRACT: note_on channel=3 note=60 velocity=49 time=0
EXTRACT: note_on channel=3 note=65 velocity=49 time=0
EXTRACT: note_on channel=3 note=67 velocity=49 time=0
EXTRACT: note_on channel=3 note=48 velocity=49 time=0
EXTRACT: note_on channel=3 note=55 velocity=49 time=0
EXTRACT: note_on channel=0 note=79 velocity=0 time=0.41493038958333334
EXTRACT: note_on channel=3 note=48 velocity=0 time=0
EXTRACT: note_on channel=3 note=55 velocity=0 time=0
EXTRACT: note_on channel=0 note=77 velocity=80 time=0.0017361104166666666
EXTRACT: note_on channel=3 note=48 velocity=49 time=0
EXTRACT: note_on channel=3 note=55 velocity=49 time=0
EXTRACT: note_on channel=3 note=60 velocity=0 time=0.41493038958333334
EXTRACT: note_on channel=3 note=65 velocity=0 time=0
EXTRACT: note_on channel=3 note=67 velocity=0 time=0
EXTRACT: note_on channel=3 note=48 velocity=0 time=0
EXTRACT: note_on channel=3 note=55 velocity=0 time=0
EXTRACT: note_on channel=3 note=60 velocity=49 time=0.0017361104166666666
EXTRACT: note_on channel=3 note=62 velocity=49 time=0
EXTRACT: note_on channel=3 note=65 velocity=49 time=0
EXTRACT: note_on channel=3 note=69 velocity=49 time=0
EXTRACT: note_on channel=3 note=50 velocity=49 time=0
EXTRACT: note_on channel=3 note=57 velocity=49 time=0
EXTRACT: note_on channel=3 note=50 velocity=0 time=0.41493038958333334
EXTRACT: note_on channel=3 note=57 velocity=0 time=0
EXTRACT: note_on channel=3 note=50 velocity=49 time=0.0017361104166666666
EXTRACT: note_on channel=3 note=57 velocity=49 time=0
EXTRACT: note_on channel=0 note=77 velocity=0 time=0.41493038958333334
EXTRACT: note_on channel=3 note=60 velocity=0 time=0
EXTRACT: note_on channel=3 note=62 velocity=0 time=0
EXTRACT: note_on channel=3 note=65 velocity=0 time=0
EXTRACT: note_on channel=3 note=69 velocity=0 time=0
EXTRACT: note_on channel=3 note=50 velocity=0 time=0
EXTRACT: note_on channel=3 note=57 velocity=0 time=0
EXTRACT: note_on channel=3 note=60 velocity=49 time=0.0017361104166666666
EXTRACT: note_on channel=3 note=62 velocity=49 time=0
EXTRACT: note_on channel=3 note=65 velocity=49 time=0
EXTRACT: note_on channel=3 note=69 velocity=49 time=0
EXTRACT: note_on channel=3 note=50 velocity=49 time=0
EXTRACT: note_on channel=3 note=57 velocity=49 time=0
EXTRACT: note_on channel=3 note=50 velocity=0 time=0.41493038958333334
EXTRACT: note_on channel=3 note=57 velocity=0 time=0
EXTRACT: note_on channel=3 note=50 velocity=49 time=0.0017361104166666666
EXTRACT: note_on channel=3 note=57 velocity=49 time=0
EXTRACT: note_on channel=3 note=60 velocity=0 time=0.41493038958333334
EXTRACT: note_on channel=3 note=62 velocity=0 time=0
EXTRACT: note_on channel=3 note=65 velocity=0 time=0
EXTRACT: note_on channel=3 note=69 velocity=0 time=0
EXTRACT: note_on channel=3 note=50 velocity=0 time=0
EXTRACT: note_on channel=3 note=57 velocity=0 time=0
EXTRACT: note_on channel=0 note=77 velocity=80 time=0.0017361104166666666
EXTRACT: note_on channel=3 note=60 velocity=49 time=0
EXTRACT: note_on channel=3 note=62 velocity=49 time=0
EXTRACT: note_on channel=3 note=65 velocity=49 time=0
EXTRACT: note_on channel=3 note=69 velocity=49 time=0
EXTRACT: note_on channel=3 note=50 velocity=49 time=0
EXTRACT: note_on channel=3 note=57 velocity=49 time=0
EXTRACT: note_on channel=0 note=77 velocity=0 time=0.41493038958333334
EXTRACT: note_on channel=3 note=50 velocity=0 time=0
EXTRACT: note_on channel=3 note=57 velocity=0 time=0
EXTRACT: note_on channel=0 note=79 velocity=80 time=0.0017361104166666666
EXTRACT: note_on channel=3 note=50 velocity=49 time=0
EXTRACT: note_on channel=3 note=57 velocity=49 time=0
EXTRACT: note_on channel=0 note=79 velocity=0 time=0.41493038958333334
EXTRACT: note_on channel=3 note=60 velocity=0 time=0
EXTRACT: note_on channel=3 note=62 velocity=0 time=0
EXTRACT: note_on channel=3 note=65 velocity=0 time=0
EXTRACT: note_on channel=3 note=69 velocity=0 time=0
EXTRACT: note_on channel=3 note=50 velocity=0 time=0
EXTRACT: note_on channel=3 note=57 velocity=0 time=0
EXTRACT: note_on channel=0 note=77 velocity=80 time=0.0017361104166666666
EXTRACT: note_on channel=3 note=60 velocity=49 time=0
EXTRACT: note_on channel=3 note=62 velocity=49 time=0
EXTRACT: note_on channel=3 note=65 velocity=49 time=0
EXTRACT: note_on channel=3 note=69 velocity=49 time=0
EXTRACT: note_on channel=3 note=50 velocity=49 time=0
EXTRACT: note_on channel=3 note=57 velocity=49 time=0
EXTRACT: note_on channel=0 note=77 velocity=0 time=0.41493038958333334
EXTRACT: note_on channel=3 note=50 velocity=0 time=0
EXTRACT: note_on channel=3 note=57 velocity=0 time=0
EXTRACT: note_on channel=0 note=84 velocity=80 time=0.0017361104166666666
EXTRACT: note_on channel=3 note=50 velocity=49 time=0
EXTRACT: note_on channel=3 note=57 velocity=49 time=0
EXTRACT: note_on channel=3 note=60 velocity=0 time=0.41493038958333334
EXTRACT: note_on channel=3 note=62 velocity=0 time=0
EXTRACT: note_on channel=3 note=65 velocity=0 time=0
EXTRACT: note_on channel=3 note=69 velocity=0 time=0
EXTRACT: note_on channel=3 note=50 velocity=0 time=0
EXTRACT: note_on channel=3 note=57 velocity=0 time=0
EXTRACT: note_on channel=3 note=62 velocity=49 time=0.0017361104166666666
EXTRACT: note_on channel=3 note=65 velocity=49 time=0
EXTRACT: note_on channel=3 note=70 velocity=49 time=0
EXTRACT: note_on channel=3 note=50 velocity=49 time=0
EXTRACT: note_on channel=3 note=58 velocity=49 time=0
EXTRACT: note_on channel=0 note=84 velocity=0 time=0.41493038958333334
EXTRACT: note_on channel=3 note=50 velocity=0 time=0
EXTRACT: note_on channel=3 note=58 velocity=0 time=0
EXTRACT: note_on channel=0 note=81 velocity=80 time=0.0017361104166666666
EXTRACT: note_on channel=3 note=50 velocity=49 time=0
EXTRACT: note_on channel=3 note=58 velocity=49 time=0
EXTRACT: note_on channel=3 note=62 velocity=0 time=0.41493038958333334
EXTRACT: note_on channel=3 note=65 velocity=0 time=0
EXTRACT: note_on channel=3 note=70 velocity=0 time=0
EXTRACT: note_on channel=3 note=50 velocity=0 time=0
EXTRACT: note_on channel=3 note=58 velocity=0 time=0
EXTRACT: note_on channel=3 note=62 velocity=49 time=0.0017361104166666666
EXTRACT: note_on channel=3 note=65 velocity=49 time=0
EXTRACT: note_on channel=3 note=70 velocity=49 time=0
EXTRACT: note_on channel=3 note=50 velocity=49 time=0
EXTRACT: note_on channel=3 note=58 velocity=49 time=0
EXTRACT: note_on channel=0 note=81 velocity=0 time=0.41493038958333334
EXTRACT: note_on channel=3 note=50 velocity=0 time=0
EXTRACT: note_on channel=3 note=58 velocity=0 time=0
EXTRACT: note_on channel=3 note=50 velocity=49 time=0.0017361104166666666
EXTRACT: note_on channel=3 note=58 velocity=49 time=0
EXTRACT: note_on channel=3 note=62 velocity=0 time=0.41493038958333334
EXTRACT: note_on channel=3 note=65 velocity=0 time=0
EXTRACT: note_on channel=3 note=70 velocity=0 time=0
EXTRACT: note_on channel=3 note=50 velocity=0 time=0
EXTRACT: note_on channel=3 note=58 velocity=0 time=0
EXTRACT: note_on channel=0 note=77 velocity=80 time=0.0017361104166666666
EXTRACT: note_on channel=3 note=62 velocity=49 time=0
EXTRACT: note_on channel=3 note=65 velocity=49 time=0
EXTRACT: note_on channel=3 note=70 velocity=49 time=0
EXTRACT: note_on channel=3 note=50 velocity=49 time=0
EXTRACT: note_on channel=3 note=58 velocity=49 time=0
EXTRACT: note_on channel=0 note=77 velocity=0 time=0.41493038958333334
EXTRACT: note_on channel=3 note=50 velocity=0 time=0
EXTRACT: note_on channel=3 note=58 velocity=0 time=0
EXTRACT: note_on channel=0 note=79 velocity=80 time=0.0017361104166666666
EXTRACT: note_on channel=3 note=50 velocity=49 time=0
EXTRACT: note_on channel=3 note=58 velocity=49 time=0
EXTRACT: note_on channel=0 note=79 velocity=0 time=0.41493038958333334
EXTRACT: note_on channel=3 note=62 velocity=0 time=0
EXTRACT: note_on channel=3 note=65 velocity=0 time=0
EXTRACT: note_on channel=3 note=70 velocity=0 time=0
EXTRACT: note_on channel=3 note=50 velocity=0 time=0
EXTRACT: note_on channel=3 note=58 velocity=0 time=0
EXTRACT: note_on channel=0 note=77 velocity=80 time=0.0017361104166666666
EXTRACT: note_on channel=3 note=62 velocity=49 time=0
EXTRACT: note_on channel=3 note=65 velocity=49 time=0
EXTRACT: note_on channel=3 note=70 velocity=49 time=0
EXTRACT: note_on channel=3 note=50 velocity=49 time=0
EXTRACT: note_on channel=3 note=58 velocity=49 time=0
EXTRACT: note_on channel=0 note=77 velocity=0 time=0.41493038958333334
EXTRACT: note_on channel=3 note=70 velocity=0 time=0
EXTRACT: note_on channel=3 note=50 velocity=0 time=0
EXTRACT: note_on channel=3 note=58 velocity=0 time=0
EXTRACT: note_on channel=0 note=84 velocity=80 time=0.0017361104166666666
EXTRACT: note_on channel=3 note=72 velocity=49 time=0
EXTRACT: note_on channel=3 note=50 velocity=49 time=0
EXTRACT: note_on channel=3 note=58 velocity=49 time=0
EXTRACT: note_on channel=3 note=62 velocity=0 time=0.41493038958333334
EXTRACT: note_on channel=3 note=65 velocity=0 time=0
EXTRACT: note_on channel=3 note=72 velocity=0 time=0
EXTRACT: note_on channel=3 note=50 velocity=0 time=0
EXTRACT: note_on channel=3 note=58 velocity=0 time=0
EXTRACT: note_on channel=3 note=60 velocity=49 time=0.0017361104166666666
EXTRACT: note_on channel=3 note=65 velocity=49 time=0
EXTRACT: note_on channel=3 note=69 velocity=49 time=0
EXTRACT: note_on channel=3 note=48 velocity=49 time=0
EXTRACT: note_on channel=3 note=57 velocity=49 time=0
EXTRACT: note_on channel=0 note=84 velocity=0 time=0.41493038958333334
EXTRACT: note_on channel=3 note=48 velocity=0 time=0
EXTRACT: note_on channel=3 note=57 velocity=0 time=0
EXTRACT: note_on channel=0 note=81 velocity=80 time=0.0017361104166666666
EXTRACT: note_on channel=3 note=48 velocity=49 time=0
EXTRACT: note_on channel=3 note=57 velocity=49 time=0
EXTRACT: note_on channel=3 note=60 velocity=0 time=0.41493038958333334
EXTRACT: note_on channel=3 note=65 velocity=0 time=0
EXTRACT: note_on channel=3 note=69 velocity=0 time=0
EXTRACT: note_on channel=3 note=48 velocity=0 time=0
EXTRACT: note_on channel=3 note=57 velocity=0 time=0
EXTRACT: note_on channel=3 note=60 velocity=49 time=0.0017361104166666666
EXTRACT: note_on channel=3 note=65 velocity=49 time=0
EXTRACT: note_on channel=3 note=69 velocity=49 time=0
EXTRACT: note_on channel=3 note=48 velocity=49 time=0
EXTRACT: note_on channel=3 note=57 velocity=49 time=0
EXTRACT: note_on channel=0 note=81 velocity=0 time=0.41493038958333334
EXTRACT: note_on channel=3 note=48 velocity=0 time=0
EXTRACT: note_on channel=3 note=57 velocity=0 time=0
EXTRACT: note_on channel=3 note=48 velocity=49 time=0.0017361104166666666
EXTRACT: note_on channel=3 note=57 velocity=49 time=0
EXTRACT: note_on channel=3 note=60 velocity=0 time=0.41493038958333334
EXTRACT: note_on channel=3 note=65 velocity=0 time=0
EXTRACT: note_on channel=3 note=69 velocity=0 time=0
EXTRACT: note_on channel=3 note=48 velocity=0 time=0
EXTRACT: note_on channel=3 note=57 velocity=0 time=0
EXTRACT: note_on channel=0 note=77 velocity=80 time=0.0017361104166666666
EXTRACT: note_on channel=3 note=60 velocity=49 time=0
EXTRACT: note_on channel=3 note=65 velocity=49 time=0
EXTRACT: note_on channel=3 note=69 velocity=49 time=0
EXTRACT: note_on channel=3 note=48 velocity=49 time=0
EXTRACT: note_on channel=3 note=57 velocity=49 time=0
EXTRACT: note_on channel=0 note=77 velocity=0 time=0.41493038958333334
EXTRACT: note_on channel=3 note=48 velocity=0 time=0
EXTRACT: note_on channel=3 note=57 velocity=0 time=0
EXTRACT: note_on channel=0 note=79 velocity=80 time=0.0017361104166666666
EXTRACT: note_on channel=3 note=48 velocity=49 time=0
EXTRACT: note_on channel=3 note=57 velocity=49 time=0
EXTRACT: note_on channel=0 note=79 velocity=0 time=0.41493038958333334
EXTRACT: note_on channel=3 note=60 velocity=0 time=0
EXTRACT: note_on channel=3 note=65 velocity=0 time=0
EXTRACT: note_on channel=3 note=69 velocity=0 time=0
EXTRACT: note_on channel=3 note=48 velocity=0 time=0
EXTRACT: note_on channel=3 note=57 velocity=0 time=0
EXTRACT: note_on channel=0 note=77 velocity=80 time=0.0017361104166666666
EXTRACT: note_on channel=3 note=60 velocity=49 time=0
EXTRACT: note_on channel=3 note=65 velocity=49 time=0
EXTRACT: note_on channel=3 note=69 velocity=49 time=0
EXTRACT: note_on channel=3 note=48 velocity=49 time=0
EXTRACT: note_on channel=3 note=57 velocity=49 time=0
EXTRACT: note_on channel=0 note=77 velocity=0 time=0.41493038958333334
EXTRACT: note_on channel=3 note=48 velocity=0 time=0
EXTRACT: note_on channel=3 note=57 velocity=0 time=0
EXTRACT: note_on channel=0 note=81 velocity=80 time=0.0017361104166666666
EXTRACT: note_on channel=3 note=48 velocity=49 time=0
EXTRACT: note_on channel=3 note=57 velocity=49 time=0
EXTRACT: note_on channel=3 note=60 velocity=0 time=0.41493038958333334
EXTRACT: note_on channel=3 note=65 velocity=0 time=0
EXTRACT: note_on channel=3 note=69 velocity=0 time=0
EXTRACT: note_on channel=3 note=48 velocity=0 time=0
EXTRACT: note_on channel=3 note=57 velocity=0 time=0
EXTRACT: note_on channel=3 note=60 velocity=49 time=0.0017361104166666666
EXTRACT: note_on channel=3 note=65 velocity=49 time=0
EXTRACT: note_on channel=3 note=67 velocity=49 time=0
EXTRACT: note_on channel=3 note=48 velocity=49 time=0
EXTRACT: note_on channel=3 note=55 velocity=49 time=0
EXTRACT: note_on channel=0 note=81 velocity=0 time=0.41493038958333334
EXTRACT: note_on channel=3 note=48 velocity=0 time=0
EXTRACT: note_on channel=3 note=55 velocity=0 time=0
EXTRACT: note_on channel=0 note=81 velocity=80 time=0.0017361104166666666
EXTRACT: note_on channel=3 note=48 velocity=49 time=0
EXTRACT: note_on channel=3 note=55 velocity=49 time=0
EXTRACT: note_on channel=3 note=60 velocity=0 time=0.41493038958333334
EXTRACT: note_on channel=3 note=65 velocity=0 time=0
EXTRACT: note_on channel=3 note=67 velocity=0 time=0
EXTRACT: note_on channel=3 note=48 velocity=0 time=0
EXTRACT: note_on channel=3 note=55 velocity=0 time=0
EXTRACT: note_on channel=3 note=60 velocity=49 time=0.0017361104166666666
EXTRACT: note_on channel=3 note=65 velocity=49 time=0
EXTRACT: note_on channel=3 note=67 velocity=49 time=0
EXTRACT: note_on channel=3 note=48 velocity=49 time=0
EXTRACT: note_on channel=3 note=55 velocity=49 time=0
EXTRACT: note_on channel=0 note=81 velocity=0 time=0.41493038958333334
EXTRACT: note_on channel=3 note=48 velocity=0 time=0
EXTRACT: note_on channel=3 note=55 velocity=0 time=0
EXTRACT: note_on channel=0 note=81 velocity=80 time=0.0017361104166666666
EXTRACT: note_on channel=3 note=48 velocity=49 time=0
EXTRACT: note_on channel=3 note=55 velocity=49 time=0
EXTRACT: note_on channel=0 note=81 velocity=0 time=0.41493038958333334
EXTRACT: note_on channel=3 note=60 velocity=0 time=0
EXTRACT: note_on channel=3 note=65 velocity=0 time=0
EXTRACT: note_on channel=3 note=67 velocity=0 time=0
EXTRACT: note_on channel=3 note=48 velocity=0 time=0
EXTRACT: note_on channel=3 note=55 velocity=0 time=0
EXTRACT: note_on channel=0 note=81 velocity=80 time=0.0017361104166666666
EXTRACT: note_on channel=3 note=60 velocity=49 time=0
EXTRACT: note_on channel=3 note=65 velocity=49 time=0
EXTRACT: note_on channel=3 note=67 velocity=49 time=0
EXTRACT: note_on channel=3 note=48 velocity=49 time=0
EXTRACT: note_on channel=3 note=55 velocity=49 time=0
EXTRACT: note_on channel=3 note=48 velocity=0 time=0.41493038958333334
EXTRACT: note_on channel=3 note=55 velocity=0 time=0
EXTRACT: note_on channel=3 note=48 velocity=49 time=0.0017361104166666666
EXTRACT: note_on channel=3 note=55 velocity=49 time=0
EXTRACT: note_on channel=0 note=81 velocity=0 time=0.41493038958333334
EXTRACT: note_on channel=3 note=60 velocity=0 time=0
EXTRACT: note_on channel=3 note=65 velocity=0 time=0
EXTRACT: note_on channel=3 note=67 velocity=0 time=0
EXTRACT: note_on channel=3 note=48 velocity=0 time=0
EXTRACT: note_on channel=3 note=55 velocity=0 time=0
EXTRACT: note_on channel=0 note=79 velocity=80 time=0.0017361104166666666
EXTRACT: note_on channel=3 note=60 velocity=49 time=0
EXTRACT: note_on channel=3 note=65 velocity=49 time=0
EXTRACT: note_on channel=3 note=67 velocity=49 time=0
EXTRACT: note_on channel=3 note=48 velocity=49 time=0
EXTRACT: note_on channel=3 note=55 velocity=49 time=0
EXTRACT: note_on channel=0 note=79 velocity=0 time=0.41493038958333334
EXTRACT: note_on channel=3 note=48 velocity=0 time=0
EXTRACT: note_on channel=3 note=55 velocity=0 time=0
EXTRACT: note_on channel=0 note=77 velocity=80 time=0.0017361104166666666
EXTRACT: note_on channel=3 note=48 velocity=49 time=0
EXTRACT: note_on channel=3 note=55 velocity=49 time=0
EXTRACT: note_on channel=3 note=60 velocity=0 time=0.41493038958333334
EXTRACT: note_on channel=3 note=65 velocity=0 time=0
EXTRACT: note_on channel=3 note=67 velocity=0 time=0
EXTRACT: note_on channel=3 note=48 velocity=0 time=0
EXTRACT: note_on channel=3 note=55 velocity=0 time=0
EXTRACT: note_on channel=3 note=60 velocity=49 time=0.0017361104166666666
EXTRACT: note_on channel=3 note=62 velocity=49 time=0
EXTRACT: note_on channel=3 note=65 velocity=49 time=0
EXTRACT: note_on channel=3 note=69 velocity=49 time=0
EXTRACT: note_on channel=3 note=50 velocity=49 time=0
EXTRACT: note_on channel=3 note=57 velocity=49 time=0
EXTRACT: note_on channel=3 note=50 velocity=0 time=0.41493038958333334
EXTRACT: note_on channel=3 note=57 velocity=0 time=0
EXTRACT: note_on channel=3 note=50 velocity=49 time=0.0017361104166666666
EXTRACT: note_on channel=3 note=57 velocity=49 time=0
EXTRACT: note_on channel=0 note=77 velocity=0 time=0.41493038958333334
EXTRACT: note_on channel=3 note=60 velocity=0 time=0
EXTRACT: note_on channel=3 note=62 velocity=0 time=0
EXTRACT: note_on channel=3 note=65 velocity=0 time=0
EXTRACT: note_on channel=3 note=69 velocity=0 time=0
EXTRACT: note_on channel=3 note=50 velocity=0 time=0
EXTRACT: note_on channel=3 note=57 velocity=0 time=0
EXTRACT: note_on channel=3 note=60 velocity=49 time=0.0017361104166666666
EXTRACT: note_on channel=3 note=62 velocity=49 time=0
EXTRACT: note_on channel=3 note=65 velocity=49 time=0
EXTRACT: note_on channel=3 note=69 velocity=49 time=0
EXTRACT: note_on channel=3 note=50 velocity=49 time=0
EXTRACT: note_on channel=3 note=57 velocity=49 time=0
EXTRACT: note_on channel=3 note=50 velocity=0 time=0.41493038958333334
EXTRACT: note_on channel=3 note=57 velocity=0 time=0
EXTRACT: note_on channel=3 note=50 velocity=49 time=0.0017361104166666666
EXTRACT: note_on channel=3 note=57 velocity=49 time=0
EXTRACT: note_on channel=3 note=60 velocity=0 time=0.41493038958333334
EXTRACT: note_on channel=3 note=62 velocity=0 time=0
EXTRACT: note_on channel=3 note=65 velocity=0 time=0
EXTRACT: note_on channel=3 note=69 velocity=0 time=0
EXTRACT: note_on channel=3 note=50 velocity=0 time=0
EXTRACT: note_on channel=3 note=57 velocity=0 time=0
EXTRACT: note_on channel=0 note=77 velocity=80 time=0.0017361104166666666
EXTRACT: note_on channel=3 note=60 velocity=49 time=0
EXTRACT: note_on channel=3 note=62 velocity=49 time=0
EXTRACT: note_on channel=3 note=65 velocity=49 time=0
EXTRACT: note_on channel=3 note=69 velocity=49 time=0
EXTRACT: note_on channel=3 note=50 velocity=49 time=0
EXTRACT: note_on channel=3 note=57 velocity=49 time=0
EXTRACT: note_on channel=0 note=77 velocity=0 time=0.41493038958333334
EXTRACT: note_on channel=3 note=50 velocity=0 time=0
EXTRACT: note_on channel=3 note=57 velocity=0 time=0
EXTRACT: note_on channel=0 note=79 velocity=80 time=0.0017361104166666666
EXTRACT: note_on channel=3 note=50 velocity=49 time=0
EXTRACT: note_on channel=3 note=57 velocity=49 time=0
EXTRACT: note_on channel=0 note=79 velocity=0 time=0.41493038958333334
EXTRACT: note_on channel=3 note=60 velocity=0 time=0
EXTRACT: note_on channel=3 note=62 velocity=0 time=0
EXTRACT: note_on channel=3 note=65 velocity=0 time=0
EXTRACT: note_on channel=3 note=69 velocity=0 time=0
EXTRACT: note_on channel=3 note=50 velocity=0 time=0
EXTRACT: note_on channel=3 note=57 velocity=0 time=0
EXTRACT: note_on channel=0 note=77 velocity=80 time=0.0017361104166666666
EXTRACT: note_on channel=3 note=60 velocity=49 time=0
EXTRACT: note_on channel=3 note=62 velocity=49 time=0
EXTRACT: note_on channel=3 note=65 velocity=49 time=0
EXTRACT: note_on channel=3 note=69 velocity=49 time=0
EXTRACT: note_on channel=3 note=50 velocity=49 time=0
EXTRACT: note_on channel=3 note=57 velocity=49 time=0
EXTRACT: note_on channel=0 note=77 velocity=0 time=0.41493038958333334
EXTRACT: note_on channel=3 note=50 velocity=0 time=0
EXTRACT: note_on channel=3 note=57 velocity=0 time=0
EXTRACT: note_on channel=0 note=84 velocity=80 time=0.0017361104166666666
EXTRACT: note_on channel=3 note=50 velocity=49 time=0
EXTRACT: note_on channel=3 note=57 velocity=49 time=0
EXTRACT: note_on channel=3 note=60 velocity=0 time=0.41493038958333334
EXTRACT: note_on channel=3 note=62 velocity=0 time=0
EXTRACT: note_on channel=3 note=65 velocity=0 time=0
EXTRACT: note_on channel=3 note=69 velocity=0 time=0
EXTRACT: note_on channel=3 note=50 velocity=0 time=0
EXTRACT: note_on channel=3 note=57 velocity=0 time=0
EXTRACT: note_on channel=3 note=62 velocity=49 time=0.0017361104166666666
EXTRACT: note_on channel=3 note=65 velocity=49 time=0
EXTRACT: note_on channel=3 note=70 velocity=49 time=0
EXTRACT: note_on channel=3 note=50 velocity=49 time=0
EXTRACT: note_on channel=3 note=58 velocity=49 time=0
EXTRACT: note_on channel=0 note=84 velocity=0 time=0.41493038958333334
EXTRACT: note_on channel=3 note=50 velocity=0 time=0
EXTRACT: note_on channel=3 note=58 velocity=0 time=0
EXTRACT: note_on channel=0 note=81 velocity=80 time=0.0017361104166666666
EXTRACT: note_on channel=3 note=50 velocity=49 time=0
EXTRACT: note_on channel=3 note=58 velocity=49 time=0
EXTRACT: note_on channel=3 note=62 velocity=0 time=0.41493038958333334
EXTRACT: note_on channel=3 note=65 velocity=0 time=0
EXTRACT: note_on channel=3 note=70 velocity=0 time=0
EXTRACT: note_on channel=3 note=50 velocity=0 time=0
EXTRACT: note_on channel=3 note=58 velocity=0 time=0
EXTRACT: note_on channel=3 note=62 velocity=49 time=0.0017361104166666666
EXTRACT: note_on channel=3 note=65 velocity=49 time=0
EXTRACT: note_on channel=3 note=70 velocity=49 time=0
EXTRACT: note_on channel=3 note=50 velocity=49 time=0
EXTRACT: note_on channel=3 note=58 velocity=49 time=0
EXTRACT: note_on channel=0 note=81 velocity=0 time=0.41493038958333334
EXTRACT: note_on channel=3 note=50 velocity=0 time=0
EXTRACT: note_on channel=3 note=58 velocity=0 time=0
EXTRACT: note_on channel=3 note=50 velocity=49 time=0.0017361104166666666
EXTRACT: note_on channel=3 note=58 velocity=49 time=0
EXTRACT: note_on channel=3 note=62 velocity=0 time=0.41493038958333334
EXTRACT: note_on channel=3 note=65 velocity=0 time=0
EXTRACT: note_on channel=3 note=70 velocity=0 time=0
EXTRACT: note_on channel=3 note=50 velocity=0 time=0
EXTRACT: note_on channel=3 note=58 velocity=0 time=0
EXTRACT: note_on channel=0 note=77 velocity=80 time=0.0017361104166666666
EXTRACT: note_on channel=3 note=62 velocity=49 time=0
EXTRACT: note_on channel=3 note=65 velocity=49 time=0
EXTRACT: note_on channel=3 note=70 velocity=49 time=0
EXTRACT: note_on channel=3 note=50 velocity=49 time=0
EXTRACT: note_on channel=3 note=58 velocity=49 time=0
EXTRACT: note_on channel=0 note=77 velocity=0 time=0.41493038958333334
EXTRACT: note_on channel=3 note=50 velocity=0 time=0
EXTRACT: note_on channel=3 note=58 velocity=0 time=0
EXTRACT: note_on channel=0 note=79 velocity=80 time=0.0017361104166666666
EXTRACT: note_on channel=3 note=50 velocity=49 time=0
EXTRACT: note_on channel=3 note=58 velocity=49 time=0
EXTRACT: note_on channel=0 note=79 velocity=0 time=0.41493038958333334
EXTRACT: note_on channel=3 note=62 velocity=0 time=0
EXTRACT: note_on channel=3 note=65 velocity=0 time=0
EXTRACT: note_on channel=3 note=70 velocity=0 time=0
EXTRACT: note_on channel=3 note=50 velocity=0 time=0
EXTRACT: note_on channel=3 note=58 velocity=0 time=0
EXTRACT: note_on channel=0 note=77 velocity=80 time=0.0017361104166666666
EXTRACT: note_on channel=3 note=62 velocity=49 time=0
EXTRACT: note_on channel=3 note=65 velocity=49 time=0
EXTRACT: note_on channel=3 note=70 velocity=49 time=0
EXTRACT: note_on channel=3 note=50 velocity=49 time=0
EXTRACT: note_on channel=3 note=58 velocity=49 time=0
EXTRACT: note_on channel=0 note=77 velocity=0 time=0.41493038958333334
EXTRACT: note_on channel=3 note=70 velocity=0 time=0
EXTRACT: note_on channel=3 note=50 velocity=0 time=0
EXTRACT: note_on channel=3 note=58 velocity=0 time=0
EXTRACT: note_on channel=0 note=84 velocity=80 time=0.0017361104166666666
EXTRACT: note_on channel=3 note=72 velocity=49 time=0
EXTRACT: note_on channel=3 note=50 velocity=49 time=0
EXTRACT: note_on channel=3 note=58 velocity=49 time=0
EXTRACT: note_on channel=3 note=62 velocity=0 time=0.41493038958333334
EXTRACT: note_on channel=3 note=65 velocity=0 time=0
EXTRACT: note_on channel=3 note=72 velocity=0 time=0
EXTRACT: note_on channel=3 note=50 velocity=0 time=0
EXTRACT: note_on channel=3 note=58 velocity=0 time=0
EXTRACT: note_on channel=3 note=60 velocity=49 time=0.0017361104166666666
EXTRACT: note_on channel=3 note=65 velocity=49 time=0
EXTRACT: note_on channel=3 note=69 velocity=49 time=0
EXTRACT: note_on channel=3 note=48 velocity=49 time=0
EXTRACT: note_on channel=3 note=57 velocity=49 time=0
EXTRACT: note_on channel=0 note=84 velocity=0 time=0.41493038958333334
EXTRACT: note_on channel=3 note=48 velocity=0 time=0
EXTRACT: note_on channel=3 note=57 velocity=0 time=0
EXTRACT: note_on channel=0 note=81 velocity=80 time=0.0017361104166666666
EXTRACT: note_on channel=3 note=48 velocity=49 time=0
EXTRACT: note_on channel=3 note=57 velocity=49 time=0
EXTRACT: note_on channel=3 note=60 velocity=0 time=0.41493038958333334
EXTRACT: note_on channel=3 note=65 velocity=0 time=0
EXTRACT: note_on channel=3 note=69 velocity=0 time=0
EXTRACT: note_on channel=3 note=48 velocity=0 time=0
EXTRACT: note_on channel=3 note=57 velocity=0 time=0
EXTRACT: note_on channel=3 note=60 velocity=49 time=0.0017361104166666666
EXTRACT: note_on channel=3 note=65 velocity=49 time=0
EXTRACT: note_on channel=3 note=69 velocity=49 time=0
EXTRACT: note_on channel=3 note=48 velocity=49 time=0
EXTRACT: note_on channel=3 note=57 velocity=49 time=0
EXTRACT: note_on channel=0 note=81 velocity=0 time=0.41493038958333334
EXTRACT: note_on channel=3 note=48 velocity=0 time=0
EXTRACT: note_on channel=3 note=57 velocity=0 time=0
EXTRACT: note_on channel=3 note=48 velocity=49 time=0.0017361104166666666
EXTRACT: note_on channel=3 note=57 velocity=49 time=0
EXTRACT: note_on channel=3 note=60 velocity=0 time=0.41493038958333334
EXTRACT: note_on channel=3 note=65 velocity=0 time=0
EXTRACT: note_on channel=3 note=69 velocity=0 time=0
EXTRACT: note_on channel=3 note=48 velocity=0 time=0
EXTRACT: note_on channel=3 note=57 velocity=0 time=0
EXTRACT: note_on channel=0 note=77 velocity=80 time=0.0017361104166666666
EXTRACT: note_on channel=3 note=60 velocity=49 time=0
EXTRACT: note_on channel=3 note=65 velocity=49 time=0
EXTRACT: note_on channel=3 note=69 velocity=49 time=0
EXTRACT: note_on channel=3 note=48 velocity=49 time=0
EXTRACT: note_on channel=3 note=57 velocity=49 time=0
EXTRACT: note_on channel=0 note=77 velocity=0 time=0.41493038958333334
EXTRACT: note_on channel=3 note=48 velocity=0 time=0
EXTRACT: note_on channel=3 note=57 velocity=0 time=0
EXTRACT: note_on channel=0 note=79 velocity=80 time=0.0017361104166666666
EXTRACT: note_on channel=3 note=48 velocity=49 time=0
EXTRACT: note_on channel=3 note=57 velocity=49 time=0
EXTRACT: note_on channel=0 note=79 velocity=0 time=0.41493038958333334
EXTRACT: note_on channel=3 note=60 velocity=0 time=0
EXTRACT: note_on channel=3 note=65 velocity=0 time=0
EXTRACT: note_on channel=3 note=69 velocity=0 time=0
EXTRACT: note_on channel=3 note=48 velocity=0 time=0
EXTRACT: note_on channel=3 note=57 velocity=0 time=0
EXTRACT: note_on channel=0 note=77 velocity=80 time=0.0017361104166666666
EXTRACT: note_on channel=3 note=60 velocity=49 time=0
EXTRACT: note_on channel=3 note=65 velocity=49 time=0
EXTRACT: note_on channel=3 note=69 velocity=49 time=0
EXTRACT: note_on channel=3 note=48 velocity=49 time=0
EXTRACT: note_on channel=3 note=57 velocity=49 time=0
EXTRACT: note_on channel=0 note=77 velocity=0 time=0.41493038958333334
EXTRACT: note_on channel=3 note=48 velocity=0 time=0
EXTRACT: note_on channel=3 note=57 velocity=0 time=0
EXTRACT: note_on channel=0 note=81 velocity=80 time=0.0017361104166666666
EXTRACT: note_on channel=3 note=48 velocity=49 time=0
EXTRACT: note_on channel=3 note=57 velocity=49 time=0
EXTRACT: note_on channel=3 note=60 velocity=0 time=0.41493038958333334
EXTRACT: note_on channel=3 note=65 velocity=0 time=0
EXTRACT: note_on channel=3 note=69 velocity=0 time=0
EXTRACT: note_on channel=3 note=48 velocity=0 time=0
EXTRACT: note_on channel=3 note=57 velocity=0 time=0
EXTRACT: note_on channel=3 note=60 velocity=49 time=0.0017361104166666666
EXTRACT: note_on channel=3 note=65 velocity=49 time=0
EXTRACT: note_on channel=3 note=67 velocity=49 time=0
EXTRACT: note_on channel=3 note=48 velocity=49 time=0
EXTRACT: note_on channel=3 note=55 velocity=49 time=0
EXTRACT: note_on channel=0 note=81 velocity=0 time=0.41493038958333334
EXTRACT: note_on channel=3 note=48 velocity=0 time=0
EXTRACT: note_on channel=3 note=55 velocity=0 time=0
EXTRACT: note_on channel=0 note=81 velocity=80 time=0.0017361104166666666
EXTRACT: note_on channel=3 note=48 velocity=49 time=0
EXTRACT: note_on channel=3 note=55 velocity=49 time=0
EXTRACT: note_on channel=3 note=60 velocity=0 time=0.41493038958333334
EXTRACT: note_on channel=3 note=65 velocity=0 time=0
EXTRACT: note_on channel=3 note=67 velocity=0 time=0
EXTRACT: note_on channel=3 note=48 velocity=0 time=0
EXTRACT: note_on channel=3 note=55 velocity=0 time=0
EXTRACT: note_on channel=3 note=60 velocity=49 time=0.0017361104166666666
EXTRACT: note_on channel=3 note=65 velocity=49 time=0
EXTRACT: note_on channel=3 note=67 velocity=49 time=0
EXTRACT: note_on channel=3 note=48 velocity=49 time=0
EXTRACT: note_on channel=3 note=55 velocity=49 time=0
EXTRACT: note_on channel=0 note=81 velocity=0 time=0.41493038958333334
EXTRACT: note_on channel=3 note=48 velocity=0 time=0
EXTRACT: note_on channel=3 note=55 velocity=0 time=0
EXTRACT: note_on channel=0 note=81 velocity=80 time=0.0017361104166666666
EXTRACT: note_on channel=3 note=48 velocity=49 time=0
EXTRACT: note_on channel=3 note=55 velocity=49 time=0
EXTRACT: note_on channel=0 note=81 velocity=0 time=0.41493038958333334
EXTRACT: note_on channel=3 note=60 velocity=0 time=0
EXTRACT: note_on channel=3 note=65 velocity=0 time=0
EXTRACT: note_on channel=3 note=67 velocity=0 time=0
EXTRACT: note_on channel=3 note=48 velocity=0 time=0
EXTRACT: note_on channel=3 note=55 velocity=0 time=0
EXTRACT: note_on channel=0 note=81 velocity=80 time=0.0017361104166666666
EXTRACT: note_on channel=3 note=60 velocity=49 time=0
EXTRACT: note_on channel=3 note=65 velocity=49 time=0
EXTRACT: note_on channel=3 note=67 velocity=49 time=0
EXTRACT: note_on channel=3 note=48 velocity=49 time=0
EXTRACT: note_on channel=3 note=55 velocity=49 time=0
EXTRACT: note_on channel=3 note=48 velocity=0 time=0.41493038958333334
EXTRACT: note_on channel=3 note=55 velocity=0 time=0
EXTRACT: note_on channel=3 note=48 velocity=49 time=0.0017361104166666666
EXTRACT: note_on channel=3 note=55 velocity=49 time=0
EXTRACT: note_on channel=0 note=81 velocity=0 time=0.41493038958333334
EXTRACT: note_on channel=3 note=60 velocity=0 time=0
EXTRACT: note_on channel=3 note=65 velocity=0 time=0
EXTRACT: note_on channel=3 note=67 velocity=0 time=0
EXTRACT: note_on channel=3 note=48 velocity=0 time=0
EXTRACT: note_on channel=3 note=55 velocity=0 time=0
EXTRACT: note_on channel=0 note=79 velocity=80 time=0.0017361104166666666
EXTRACT: note_on channel=3 note=60 velocity=49 time=0
EXTRACT: note_on channel=3 note=65 velocity=49 time=0
EXTRACT: note_on channel=3 note=67 velocity=49 time=0
EXTRACT: note_on channel=3 note=48 velocity=49 time=0
EXTRACT: note_on channel=3 note=55 velocity=49 time=0
EXTRACT: note_on channel=0 note=79 velocity=0 time=0.41493038958333334
EXTRACT: note_on channel=3 note=48 velocity=0 time=0
EXTRACT: note_on channel=3 note=55 velocity=0 time=0
EXTRACT: note_on channel=0 note=77 velocity=80 time=0.0017361104166666666
EXTRACT: note_on channel=3 note=48 velocity=49 time=0
EXTRACT: note_on channel=3 note=55 velocity=49 time=0
EXTRACT: note_on channel=3 note=60 velocity=0 time=0.41493038958333334
EXTRACT: note_on channel=3 note=65 velocity=0 time=0
EXTRACT: note_on channel=3 note=67 velocity=0 time=0
EXTRACT: note_on channel=3 note=48 velocity=0 time=0
EXTRACT: note_on channel=3 note=55 velocity=0 time=0
EXTRACT: note_on channel=3 note=62 velocity=49 time=0.0017361104166666666
EXTRACT: note_on channel=3 note=65 velocity=49 time=0
EXTRACT: note_on channel=3 note=70 velocity=49 time=0
EXTRACT: note_on channel=3 note=46 velocity=49 time=0
EXTRACT: note_on channel=3 note=53 velocity=49 time=0
EXTRACT: note_on channel=3 note=46 velocity=0 time=0.41493038958333334
EXTRACT: note_on channel=3 note=53 velocity=0 time=0
EXTRACT: note_on channel=3 note=46 velocity=49 time=0.0017361104166666666
EXTRACT: note_on channel=3 note=53 velocity=49 time=0
EXTRACT: note_on channel=0 note=77 velocity=0 time=0.41493038958333334
EXTRACT: note_on channel=3 note=62 velocity=0 time=0
EXTRACT: note_on channel=3 note=65 velocity=0 time=0
EXTRACT: note_on channel=3 note=70 velocity=0 time=0
EXTRACT: note_on channel=3 note=46 velocity=0 time=0
EXTRACT: note_on channel=3 note=53 velocity=0 time=0
EXTRACT: note_on channel=3 note=62 velocity=49 time=0.0017361104166666666
EXTRACT: note_on channel=3 note=65 velocity=49 time=0
EXTRACT: note_on channel=3 note=70 velocity=49 time=0
EXTRACT: note_on channel=3 note=46 velocity=49 time=0
EXTRACT: note_on channel=3 note=53 velocity=49 time=0
EXTRACT: note_on channel=3 note=46 velocity=0 time=0.41493038958333334
EXTRACT: note_on channel=3 note=53 velocity=0 time=0
EXTRACT: note_on channel=0 note=89 velocity=80 time=0.0017361104166666666
EXTRACT: note_on channel=3 note=46 velocity=49 time=0
EXTRACT: note_on channel=3 note=53 velocity=49 time=0
EXTRACT: note_on channel=3 note=62 velocity=0 time=0.41493038958333334
EXTRACT: note_on channel=3 note=65 velocity=0 time=0
EXTRACT: note_on channel=3 note=70 velocity=0 time=0
EXTRACT: note_on channel=3 note=46 velocity=0 time=0
EXTRACT: note_on channel=3 note=53 velocity=0 time=0
EXTRACT: note_on channel=3 note=62 velocity=49 time=0.0017361104166666666
EXTRACT: note_on channel=3 note=65 velocity=49 time=0
EXTRACT: note_on channel=3 note=70 velocity=49 time=0
EXTRACT: note_on channel=3 note=46 velocity=49 time=0
EXTRACT: note_on channel=3 note=53 velocity=49 time=0
EXTRACT: note_on channel=0 note=89 velocity=0 time=0.41493038958333334
EXTRACT: note_on channel=3 note=46 velocity=0 time=0
EXTRACT: note_on channel=3 note=53 velocity=0 time=0
EXTRACT: note_on channel=0 note=86 velocity=80 time=0.0017361104166666666
EXTRACT: note_on channel=3 note=46 velocity=49 time=0
EXTRACT: note_on channel=3 note=53 velocity=49 time=0
EXTRACT: note_on channel=0 note=86 velocity=0 time=0.41493038958333334
EXTRACT: note_on channel=3 note=62 velocity=0 time=0
EXTRACT: note_on channel=3 note=65 velocity=0 time=0
EXTRACT: note_on channel=3 note=70 velocity=0 time=0
EXTRACT: note_on channel=3 note=46 velocity=0 time=0
EXTRACT: note_on channel=3 note=53 velocity=0 time=0
EXTRACT: note_on channel=0 note=84 velocity=80 time=0.0017361104166666666
EXTRACT: note_on channel=3 note=62 velocity=49 time=0
EXTRACT: note_on channel=3 note=65 velocity=49 time=0
EXTRACT: note_on channel=3 note=70 velocity=49 time=0
EXTRACT: note_on channel=3 note=46 velocity=49 time=0
EXTRACT: note_on channel=3 note=53 velocity=49 time=0
EXTRACT: note_on channel=0 note=84 velocity=0 time=0.41493038958333334
EXTRACT: note_on channel=3 note=46 velocity=0 time=0
EXTRACT: note_on channel=3 note=53 velocity=0 time=0
EXTRACT: note_on channel=0 note=89 velocity=80 time=0.0017361104166666666
EXTRACT: note_on channel=3 note=46 velocity=49 time=0
EXTRACT: note_on channel=3 note=53 velocity=49 time=0
EXTRACT: note_on channel=3 note=62 velocity=0 time=0.41493038958333334
EXTRACT: note_on channel=3 note=65 velocity=0 time=0
EXTRACT: note_on channel=3 note=70 velocity=0 time=0
EXTRACT: note_on channel=3 note=46 velocity=0 time=0
EXTRACT: note_on channel=3 note=53 velocity=0 time=0
EXTRACT: note_on channel=3 note=62 velocity=49 time=0.0017361104166666666
EXTRACT: note_on channel=3 note=65 velocity=49 time=0
EXTRACT: note_on channel=3 note=70 velocity=49 time=0
EXTRACT: note_on channel=3 note=46 velocity=49 time=0
EXTRACT: note_on channel=3 note=53 velocity=49 time=0
EXTRACT: note_on channel=0 note=89 velocity=0 time=0.41493038958333334
EXTRACT: note_on channel=3 note=46 velocity=0 time=0
EXTRACT: note_on channel=3 note=53 velocity=0 time=0
EXTRACT: note_on channel=0 note=86 velocity=80 time=0.0017361104166666666
EXTRACT: note_on channel=3 note=46 velocity=49 time=0
EXTRACT: note_on channel=3 note=53 velocity=49 time=0
EXTRACT: note_on channel=0 note=86 velocity=0 time=0.41493038958333334
EXTRACT: note_on channel=3 note=62 velocity=0 time=0
EXTRACT: note_on channel=3 note=65 velocity=0 time=0
EXTRACT: note_on channel=3 note=70 velocity=0 time=0
EXTRACT: note_on channel=3 note=46 velocity=0 time=0
EXTRACT: note_on channel=3 note=53 velocity=0 time=0
EXTRACT: note_on channel=0 note=84 velocity=80 time=0.0017361104166666666
EXTRACT: note_on channel=3 note=62 velocity=49 time=0
EXTRACT: note_on channel=3 note=65 velocity=49 time=0
EXTRACT: note_on channel=3 note=70 velocity=49 time=0
EXTRACT: note_on channel=3 note=46 velocity=49 time=0
EXTRACT: note_on channel=3 note=53 velocity=49 time=0
EXTRACT: note_on channel=0 note=84 velocity=0 time=0.41493038958333334
EXTRACT: note_on channel=3 note=46 velocity=0 time=0
EXTRACT: note_on channel=3 note=53 velocity=0 time=0
EXTRACT: note_on channel=0 note=89 velocity=80 time=0.0017361104166666666
EXTRACT: note_on channel=3 note=46 velocity=49 time=0
EXTRACT: note_on channel=3 note=53 velocity=49 time=0
EXTRACT: note_on channel=3 note=62 velocity=0 time=0.41493038958333334
EXTRACT: note_on channel=3 note=65 velocity=0 time=0
EXTRACT: note_on channel=3 note=70 velocity=0 time=0
EXTRACT: note_on channel=3 note=46 velocity=0 time=0
EXTRACT: note_on channel=3 note=53 velocity=0 time=0
EXTRACT: note_on channel=3 note=62 velocity=49 time=0.0017361104166666666
EXTRACT: note_on channel=3 note=65 velocity=49 time=0
EXTRACT: note_on channel=3 note=70 velocity=49 time=0
EXTRACT: note_on channel=3 note=46 velocity=49 time=0
EXTRACT: note_on channel=3 note=53 velocity=49 time=0
EXTRACT: note_on channel=0 note=89 velocity=0 time=0.41493038958333334
EXTRACT: note_on channel=3 note=46 velocity=0 time=0
EXTRACT: note_on channel=3 note=53 velocity=0 time=0
EXTRACT: note_on channel=0 note=86 velocity=80 time=0.0017361104166666666
EXTRACT: note_on channel=3 note=46 velocity=49 time=0
EXTRACT: note_on channel=3 note=53 velocity=49 time=0
EXTRACT: note_on channel=0 note=86 velocity=0 time=0.41493038958333334
EXTRACT: note_on channel=3 note=62 velocity=0 time=0
EXTRACT: note_on channel=3 note=65 velocity=0 time=0
EXTRACT: note_on channel=3 note=70 velocity=0 time=0
EXTRACT: note_on channel=3 note=46 velocity=0 time=0
EXTRACT: note_on channel=3 note=53 velocity=0 time=0
EXTRACT: note_on channel=0 note=84 velocity=80 time=0.0017361104166666666
EXTRACT: note_on channel=3 note=62 velocity=49 time=0
EXTRACT: note_on channel=3 note=65 velocity=49 time=0
EXTRACT: note_on channel=3 note=70 velocity=49 time=0
EXTRACT: note_on channel=3 note=46 velocity=49 time=0
EXTRACT: note_on channel=3 note=53 velocity=49 time=0
EXTRACT: note_on channel=3 note=46 velocity=0 time=0.41493038958333334
EXTRACT: note_on channel=3 note=53 velocity=0 time=0
EXTRACT: note_on channel=3 note=46 velocity=49 time=0.0017361104166666666
EXTRACT: note_on channel=3 note=53 velocity=49 time=0
EXTRACT: note_on channel=3 note=62 velocity=0 time=0.41493038958333334
EXTRACT: note_on channel=3 note=65 velocity=0 time=0
EXTRACT: note_on channel=3 note=70 velocity=0 time=0
EXTRACT: note_on channel=3 note=46 velocity=0 time=0
EXTRACT: note_on channel=3 note=53 velocity=0 time=0
EXTRACT: note_on channel=3 note=60 velocity=49 time=0.0017361104166666666
EXTRACT: note_on channel=3 note=65 velocity=49 time=0
EXTRACT: note_on channel=3 note=69 velocity=49 time=0
EXTRACT: note_on channel=3 note=48 velocity=49 time=0
EXTRACT: note_on channel=3 note=57 velocity=49 time=0
EXTRACT: note_on channel=3 note=48 velocity=0 time=0.41493038958333334
EXTRACT: note_on channel=3 note=57 velocity=0 time=0
EXTRACT: note_on channel=3 note=48 velocity=49 time=0.0017361104166666666
EXTRACT: note_on channel=3 note=57 velocity=49 time=0
EXTRACT: note_on channel=0 note=84 velocity=0 time=0.41493038958333334
EXTRACT: note_on channel=3 note=60 velocity=0 time=0
EXTRACT: note_on channel=3 note=65 velocity=0 time=0
EXTRACT: note_on channel=3 note=69 velocity=0 time=0
EXTRACT: note_on channel=3 note=48 velocity=0 time=0
EXTRACT: note_on channel=3 note=57 velocity=0 time=0
EXTRACT: note_on channel=3 note=60 velocity=49 time=0.0017361104166666666
EXTRACT: note_on channel=3 note=65 velocity=49 time=0
EXTRACT: note_on channel=3 note=69 velocity=49 time=0
EXTRACT: note_on channel=3 note=48 velocity=49 time=0
EXTRACT: note_on channel=3 note=57 velocity=49 time=0
EXTRACT: note_on channel=3 note=48 velocity=0 time=0.41493038958333334
EXTRACT: note_on channel=3 note=57 velocity=0 time=0
EXTRACT: note_on channel=0 note=81 velocity=80 time=0.0017361104166666666
EXTRACT: note_on channel=3 note=48 velocity=49 time=0
EXTRACT: note_on channel=3 note=57 velocity=49 time=0
EXTRACT: note_on channel=3 note=60 velocity=0 time=0.41493038958333334
EXTRACT: note_on channel=3 note=65 velocity=0 time=0
EXTRACT: note_on channel=3 note=69 velocity=0 time=0
EXTRACT: note_on channel=3 note=48 velocity=0 time=0
EXTRACT: note_on channel=3 note=57 velocity=0 time=0
EXTRACT: note_on channel=3 note=60 velocity=49 time=0.0017361104166666666
EXTRACT: note_on channel=3 note=65 velocity=49 time=0
EXTRACT: note_on channel=3 note=69 velocity=49 time=0
EXTRACT: note_on channel=3 note=48 velocity=49 time=0
EXTRACT: note_on channel=3 note=57 velocity=49 time=0
EXTRACT: note_on channel=0 note=81 velocity=0 time=0.41493038958333334
EXTRACT: note_on channel=3 note=48 velocity=0 time=0
EXTRACT: note_on channel=3 note=57 velocity=0 time=0
EXTRACT: note_on channel=0 note=84 velocity=80 time=0.0017361104166666666
EXTRACT: note_on channel=3 note=48 velocity=49 time=0
EXTRACT: note_on channel=3 note=57 velocity=49 time=0
EXTRACT: note_on channel=0 note=84 velocity=0 time=0.41493038958333334
EXTRACT: note_on channel=3 note=60 velocity=0 time=0
EXTRACT: note_on channel=3 note=65 velocity=0 time=0
EXTRACT: note_on channel=3 note=69 velocity=0 time=0
EXTRACT: note_on channel=3 note=48 velocity=0 time=0
EXTRACT: note_on channel=3 note=57 velocity=0 time=0
EXTRACT: note_on channel=0 note=81 velocity=80 time=0.0017361104166666666
EXTRACT: note_on channel=3 note=60 velocity=49 time=0
EXTRACT: note_on channel=3 note=65 velocity=49 time=0
EXTRACT: note_on channel=3 note=69 velocity=49 time=0
EXTRACT: note_on channel=3 note=48 velocity=49 time=0
EXTRACT: note_on channel=3 note=57 velocity=49 time=0
EXTRACT: note_on channel=0 note=81 velocity=0 time=0.41493038958333334
EXTRACT: note_on channel=3 note=48 velocity=0 time=0
EXTRACT: note_on channel=3 note=57 velocity=0 time=0
EXTRACT: note_on channel=0 note=86 velocity=80 time=0.0017361104166666666
EXTRACT: note_on channel=3 note=48 velocity=49 time=0
EXTRACT: note_on channel=3 note=57 velocity=49 time=0
EXTRACT: note_on channel=3 note=60 velocity=0 time=0.41493038958333334
EXTRACT: note_on channel=3 note=65 velocity=0 time=0
EXTRACT: note_on channel=3 note=69 velocity=0 time=0
EXTRACT: note_on channel=3 note=48 velocity=0 time=0
EXTRACT: note_on channel=3 note=57 velocity=0 time=0
EXTRACT: note_on channel=3 note=60 velocity=49 time=0.0017361104166666666
EXTRACT: note_on channel=3 note=65 velocity=49 time=0
EXTRACT: note_on channel=3 note=67 velocity=49 time=0
EXTRACT: note_on channel=3 note=48 velocity=49 time=0
EXTRACT: note_on channel=3 note=55 velocity=49 time=0
EXTRACT: note_on channel=0 note=86 velocity=0 time=0.41493038958333334
EXTRACT: note_on channel=3 note=48 velocity=0 time=0
EXTRACT: note_on channel=3 note=55 velocity=0 time=0
EXTRACT: note_on channel=0 note=81 velocity=80 time=0.0017361104166666666
EXTRACT: note_on channel=3 note=48 velocity=49 time=0
EXTRACT: note_on channel=3 note=55 velocity=49 time=0
EXTRACT: note_on channel=0 note=81 velocity=0 time=0.41493038958333334
EXTRACT: note_on channel=3 note=60 velocity=0 time=0
EXTRACT: note_on channel=3 note=65 velocity=0 time=0
EXTRACT: note_on channel=3 note=67 velocity=0 time=0
EXTRACT: note_on channel=3 note=48 velocity=0 time=0
EXTRACT: note_on channel=3 note=55 velocity=0 time=0
EXTRACT: note_on channel=0 note=81 velocity=80 time=0.0017361104166666666
EXTRACT: note_on channel=3 note=60 velocity=49 time=0
EXTRACT: note_on channel=3 note=65 velocity=49 time=0
EXTRACT: note_on channel=3 note=67 velocity=49 time=0
EXTRACT: note_on channel=3 note=48 velocity=49 time=0
EXTRACT: note_on channel=3 note=55 velocity=49 time=0
EXTRACT: note_on channel=0 note=81 velocity=0 time=0.41493038958333334
EXTRACT: note_on channel=3 note=48 velocity=0 time=0
EXTRACT: note_on channel=3 note=55 velocity=0 time=0
EXTRACT: note_on channel=0 note=81 velocity=80 time=0.0017361104166666666
EXTRACT: note_on channel=3 note=48 velocity=49 time=0
EXTRACT: note_on channel=3 note=55 velocity=49 time=0
EXTRACT: note_on channel=0 note=81 velocity=0 time=0.41493038958333334
EXTRACT: note_on channel=3 note=60 velocity=0 time=0
EXTRACT: note_on channel=3 note=65 velocity=0 time=0
EXTRACT: note_on channel=3 note=67 velocity=0 time=0
EXTRACT: note_on channel=3 note=48 velocity=0 time=0
EXTRACT: note_on channel=3 note=55 velocity=0 time=0
EXTRACT: note_on channel=0 note=81 velocity=80 time=0.0017361104166666666
EXTRACT: note_on channel=3 note=60 velocity=49 time=0
EXTRACT: note_on channel=3 note=65 velocity=49 time=0
EXTRACT: note_on channel=3 note=67 velocity=49 time=0
EXTRACT: note_on channel=3 note=48 velocity=49 time=0
EXTRACT: note_on channel=3 note=55 velocity=49 time=0
EXTRACT: note_on channel=3 note=48 velocity=0 time=0.41493038958333334
EXTRACT: note_on channel=3 note=55 velocity=0 time=0
EXTRACT: note_on channel=3 note=48 velocity=49 time=0.0017361104166666666
EXTRACT: note_on channel=3 note=55 velocity=49 time=0
EXTRACT: note_on channel=0 note=81 velocity=0 time=0.41493038958333334
EXTRACT: note_on channel=3 note=60 velocity=0 time=0
EXTRACT: note_on channel=3 note=65 velocity=0 time=0
EXTRACT: note_on channel=3 note=67 velocity=0 time=0
EXTRACT: note_on channel=3 note=48 velocity=0 time=0
EXTRACT: note_on channel=3 note=55 velocity=0 time=0
EXTRACT: note_on channel=0 note=79 velocity=80 time=0.0017361104166666666
EXTRACT: note_on channel=3 note=60 velocity=49 time=0
EXTRACT: note_on channel=3 note=65 velocity=49 time=0
EXTRACT: note_on channel=3 note=67 velocity=49 time=0
EXTRACT: note_on channel=3 note=48 velocity=49 time=0
EXTRACT: note_on channel=3 note=55 velocity=49 time=0
EXTRACT: note_on channel=0 note=79 velocity=0 time=0.41493038958333334
EXTRACT: note_on channel=3 note=48 velocity=0 time=0
EXTRACT: note_on channel=3 note=55 velocity=0 time=0
EXTRACT: note_on channel=0 note=77 velocity=80 time=0.0017361104166666666
EXTRACT: note_on channel=3 note=48 velocity=49 time=0
EXTRACT: note_on channel=3 note=55 velocity=49 time=0
EXTRACT: note_on channel=3 note=60 velocity=0 time=0.41493038958333334
EXTRACT: note_on channel=3 note=65 velocity=0 time=0
EXTRACT: note_on channel=3 note=67 velocity=0 time=0
EXTRACT: note_on channel=3 note=48 velocity=0 time=0
EXTRACT: note_on channel=3 note=55 velocity=0 time=0
EXTRACT: note_on channel=3 note=62 velocity=49 time=0.0017361104166666666
EXTRACT: note_on channel=3 note=65 velocity=49 time=0
EXTRACT: note_on channel=3 note=70 velocity=49 time=0
EXTRACT: note_on channel=3 note=46 velocity=49 time=0
EXTRACT: note_on channel=3 note=53 velocity=49 time=0
EXTRACT: note_on channel=3 note=46 velocity=0 time=0.41493038958333334
EXTRACT: note_on channel=3 note=53 velocity=0 time=0
EXTRACT: note_on channel=3 note=46 velocity=49 time=0.0017361104166666666
EXTRACT: note_on channel=3 note=53 velocity=49 time=0
EXTRACT: note_on channel=0 note=77 velocity=0 time=0.41493038958333334
EXTRACT: note_on channel=3 note=62 velocity=0 time=0
EXTRACT: note_on channel=3 note=65 velocity=0 time=0
EXTRACT: note_on channel=3 note=70 velocity=0 time=0
EXTRACT: note_on channel=3 note=46 velocity=0 time=0
EXTRACT: note_on channel=3 note=53 velocity=0 time=0
EXTRACT: note_on channel=3 note=62 velocity=49 time=0.0017361104166666666
EXTRACT: note_on channel=3 note=65 velocity=49 time=0
EXTRACT: note_on channel=3 note=70 velocity=49 time=0
EXTRACT: note_on channel=3 note=46 velocity=49 time=0
EXTRACT: note_on channel=3 note=53 velocity=49 time=0
EXTRACT: note_on channel=3 note=46 velocity=0 time=0.41493038958333334
EXTRACT: note_on channel=3 note=53 velocity=0 time=0
EXTRACT: note_on channel=0 note=89 velocity=80 time=0.0017361104166666666
EXTRACT: note_on channel=3 note=46 velocity=49 time=0
EXTRACT: note_on channel=3 note=53 velocity=49 time=0
EXTRACT: note_on channel=3 note=62 velocity=0 time=0.41493038958333334
EXTRACT: note_on channel=3 note=65 velocity=0 time=0
EXTRACT: note_on channel=3 note=70 velocity=0 time=0
EXTRACT: note_on channel=3 note=46 velocity=0 time=0
EXTRACT: note_on channel=3 note=53 velocity=0 time=0
EXTRACT: note_on channel=3 note=62 velocity=49 time=0.0017361104166666666
EXTRACT: note_on channel=3 note=65 velocity=49 time=0
EXTRACT: note_on channel=3 note=70 velocity=49 time=0
EXTRACT: note_on channel=3 note=46 velocity=49 time=0
EXTRACT: note_on channel=3 note=53 velocity=49 time=0
EXTRACT: note_on channel=0 note=89 velocity=0 time=0.41493038958333334
EXTRACT: note_on channel=3 note=46 velocity=0 time=0
EXTRACT: note_on channel=3 note=53 velocity=0 time=0
EXTRACT: note_on channel=0 note=86 velocity=80 time=0.0017361104166666666
EXTRACT: note_on channel=3 note=46 velocity=49 time=0
EXTRACT: note_on channel=3 note=53 velocity=49 time=0
EXTRACT: note_on channel=0 note=86 velocity=0 time=0.41493038958333334
EXTRACT: note_on channel=3 note=62 velocity=0 time=0
EXTRACT: note_on channel=3 note=65 velocity=0 time=0
EXTRACT: note_on channel=3 note=70 velocity=0 time=0
EXTRACT: note_on channel=3 note=46 velocity=0 time=0
EXTRACT: note_on channel=3 note=53 velocity=0 time=0
EXTRACT: note_on channel=0 note=84 velocity=80 time=0.0017361104166666666
EXTRACT: note_on channel=3 note=62 velocity=49 time=0
EXTRACT: note_on channel=3 note=65 velocity=49 time=0
EXTRACT: note_on channel=3 note=70 velocity=49 time=0
EXTRACT: note_on channel=3 note=46 velocity=49 time=0
EXTRACT: note_on channel=3 note=53 velocity=49 time=0
EXTRACT: note_on channel=0 note=84 velocity=0 time=0.41493038958333334
EXTRACT: note_on channel=3 note=46 velocity=0 time=0
EXTRACT: note_on channel=3 note=53 velocity=0 time=0
EXTRACT: note_on channel=0 note=89 velocity=80 time=0.0017361104166666666
EXTRACT: note_on channel=3 note=46 velocity=49 time=0
EXTRACT: note_on channel=3 note=53 velocity=49 time=0
EXTRACT: note_on channel=3 note=62 velocity=0 time=0.41493038958333334
EXTRACT: note_on channel=3 note=65 velocity=0 time=0
EXTRACT: note_on channel=3 note=70 velocity=0 time=0
EXTRACT: note_on channel=3 note=46 velocity=0 time=0
EXTRACT: note_on channel=3 note=53 velocity=0 time=0
EXTRACT: note_on channel=3 note=62 velocity=49 time=0.0017361104166666666
EXTRACT: note_on channel=3 note=65 velocity=49 time=0
EXTRACT: note_on channel=3 note=70 velocity=49 time=0
EXTRACT: note_on channel=3 note=46 velocity=49 time=0
EXTRACT: note_on channel=3 note=53 velocity=49 time=0
EXTRACT: note_on channel=0 note=89 velocity=0 time=0.41493038958333334
EXTRACT: note_on channel=3 note=46 velocity=0 time=0
EXTRACT: note_on channel=3 note=53 velocity=0 time=0
EXTRACT: note_on channel=0 note=86 velocity=80 time=0.0017361104166666666
EXTRACT: note_on channel=3 note=46 velocity=49 time=0
EXTRACT: note_on channel=3 note=53 velocity=49 time=0
EXTRACT: note_on channel=0 note=86 velocity=0 time=0.41493038958333334
EXTRACT: note_on channel=3 note=62 velocity=0 time=0
EXTRACT: note_on channel=3 note=65 velocity=0 time=0
EXTRACT: note_on channel=3 note=70 velocity=0 time=0
EXTRACT: note_on channel=3 note=46 velocity=0 time=0
EXTRACT: note_on channel=3 note=53 velocity=0 time=0
EXTRACT: note_on channel=0 note=84 velocity=80 time=0.0017361104166666666
EXTRACT: note_on channel=3 note=62 velocity=49 time=0
EXTRACT: note_on channel=3 note=65 velocity=49 time=0
EXTRACT: note_on channel=3 note=70 velocity=49 time=0
EXTRACT: note_on channel=3 note=46 velocity=49 time=0
EXTRACT: note_on channel=3 note=53 velocity=49 time=0
EXTRACT: note_on channel=0 note=84 velocity=0 time=0.41493038958333334
EXTRACT: note_on channel=3 note=46 velocity=0 time=0
EXTRACT: note_on channel=3 note=53 velocity=0 time=0
EXTRACT: note_on channel=0 note=89 velocity=80 time=0.0017361104166666666
EXTRACT: note_on channel=3 note=46 velocity=49 time=0
EXTRACT: note_on channel=3 note=53 velocity=49 time=0
EXTRACT: note_on channel=3 note=62 velocity=0 time=0.41493038958333334
EXTRACT: note_on channel=3 note=65 velocity=0 time=0
EXTRACT: note_on channel=3 note=70 velocity=0 time=0
EXTRACT: note_on channel=3 note=46 velocity=0 time=0
EXTRACT: note_on channel=3 note=53 velocity=0 time=0
EXTRACT: note_on channel=3 note=62 velocity=49 time=0.0017361104166666666
EXTRACT: note_on channel=3 note=65 velocity=49 time=0
EXTRACT: note_on channel=3 note=70 velocity=49 time=0
EXTRACT: note_on channel=3 note=46 velocity=49 time=0
EXTRACT: note_on channel=3 note=53 velocity=49 time=0
EXTRACT: note_on channel=0 note=89 velocity=0 time=0.41493038958333334
EXTRACT: note_on channel=3 note=46 velocity=0 time=0
EXTRACT: note_on channel=3 note=53 velocity=0 time=0
EXTRACT: note_on channel=0 note=86 velocity=80 time=0.0017361104166666666
EXTRACT: note_on channel=3 note=46 velocity=49 time=0
EXTRACT: note_on channel=3 note=53 velocity=49 time=0
EXTRACT: note_on channel=0 note=86 velocity=0 time=0.41493038958333334
EXTRACT: note_on channel=3 note=62 velocity=0 time=0
EXTRACT: note_on channel=3 note=65 velocity=0 time=0
EXTRACT: note_on channel=3 note=70 velocity=0 time=0
EXTRACT: note_on channel=3 note=46 velocity=0 time=0
EXTRACT: note_on channel=3 note=53 velocity=0 time=0
EXTRACT: note_on channel=0 note=84 velocity=80 time=0.0017361104166666666
EXTRACT: note_on channel=3 note=62 velocity=49 time=0
EXTRACT: note_on channel=3 note=65 velocity=49 time=0
EXTRACT: note_on channel=3 note=70 velocity=49 time=0
EXTRACT: note_on channel=3 note=46 velocity=49 time=0
EXTRACT: note_on channel=3 note=53 velocity=49 time=0
EXTRACT: note_on channel=3 note=46 velocity=0 time=0.41493038958333334
EXTRACT: note_on channel=3 note=53 velocity=0 time=0
EXTRACT: note_on channel=3 note=46 velocity=49 time=0.0017361104166666666
EXTRACT: note_on channel=3 note=53 velocity=49 time=0
EXTRACT: note_on channel=3 note=62 velocity=0 time=0.41493038958333334
EXTRACT: note_on channel=3 note=65 velocity=0 time=0
EXTRACT: note_on channel=3 note=70 velocity=0 time=0
EXTRACT: note_on channel=3 note=46 velocity=0 time=0
EXTRACT: note_on channel=3 note=53 velocity=0 time=0
EXTRACT: note_on channel=3 note=60 velocity=49 time=0.0017361104166666666
EXTRACT: note_on channel=3 note=65 velocity=49 time=0
EXTRACT: note_on channel=3 note=69 velocity=49 time=0
EXTRACT: note_on channel=3 note=48 velocity=49 time=0
EXTRACT: note_on channel=3 note=57 velocity=49 time=0
EXTRACT: note_on channel=3 note=48 velocity=0 time=0.41493038958333334
EXTRACT: note_on channel=3 note=57 velocity=0 time=0
EXTRACT: note_on channel=3 note=48 velocity=49 time=0.0017361104166666666
EXTRACT: note_on channel=3 note=57 velocity=49 time=0
EXTRACT: note_on channel=0 note=84 velocity=0 time=0.41493038958333334
EXTRACT: note_on channel=3 note=60 velocity=0 time=0
EXTRACT: note_on channel=3 note=65 velocity=0 time=0
EXTRACT: note_on channel=3 note=69 velocity=0 time=0
EXTRACT: note_on channel=3 note=48 velocity=0 time=0
EXTRACT: note_on channel=3 note=57 velocity=0 time=0
EXTRACT: note_on channel=3 note=60 velocity=49 time=0.0017361104166666666
EXTRACT: note_on channel=3 note=65 velocity=49 time=0
EXTRACT: note_on channel=3 note=69 velocity=49 time=0
EXTRACT: note_on channel=3 note=48 velocity=49 time=0
EXTRACT: note_on channel=3 note=57 velocity=49 time=0
EXTRACT: note_on channel=3 note=48 velocity=0 time=0.41493038958333334
EXTRACT: note_on channel=3 note=57 velocity=0 time=0
EXTRACT: note_on channel=0 note=81 velocity=80 time=0.0017361104166666666
EXTRACT: note_on channel=3 note=48 velocity=49 time=0
EXTRACT: note_on channel=3 note=57 velocity=49 time=0
EXTRACT: note_on channel=3 note=60 velocity=0 time=0.41493038958333334
EXTRACT: note_on channel=3 note=65 velocity=0 time=0
EXTRACT: note_on channel=3 note=69 velocity=0 time=0
EXTRACT: note_on channel=3 note=48 velocity=0 time=0
EXTRACT: note_on channel=3 note=57 velocity=0 time=0
EXTRACT: note_on channel=3 note=60 velocity=49 time=0.0017361104166666666
EXTRACT: note_on channel=3 note=65 velocity=49 time=0
EXTRACT: note_on channel=3 note=69 velocity=49 time=0
EXTRACT: note_on channel=3 note=48 velocity=49 time=0
EXTRACT: note_on channel=3 note=57 velocity=49 time=0
EXTRACT: note_on channel=0 note=81 velocity=0 time=0.41493038958333334
EXTRACT: note_on channel=3 note=48 velocity=0 time=0
EXTRACT: note_on channel=3 note=57 velocity=0 time=0
EXTRACT: note_on channel=0 note=84 velocity=80 time=0.0017361104166666666
EXTRACT: note_on channel=3 note=48 velocity=49 time=0
EXTRACT: note_on channel=3 note=57 velocity=49 time=0
EXTRACT: note_on channel=0 note=84 velocity=0 time=0.41493038958333334
EXTRACT: note_on channel=3 note=60 velocity=0 time=0
EXTRACT: note_on channel=3 note=65 velocity=0 time=0
EXTRACT: note_on channel=3 note=69 velocity=0 time=0
EXTRACT: note_on channel=3 note=48 velocity=0 time=0
EXTRACT: note_on channel=3 note=57 velocity=0 time=0
EXTRACT: note_on channel=0 note=84 velocity=80 time=0.0017361104166666666
EXTRACT: note_on channel=3 note=60 velocity=49 time=0
EXTRACT: note_on channel=3 note=65 velocity=49 time=0
EXTRACT: note_on channel=3 note=69 velocity=49 time=0
EXTRACT: note_on channel=3 note=48 velocity=49 time=0
EXTRACT: note_on channel=3 note=57 velocity=49 time=0
EXTRACT: note_on channel=0 note=84 velocity=0 time=0.41493038958333334
EXTRACT: note_on channel=3 note=48 velocity=0 time=0
EXTRACT: note_on channel=3 note=57 velocity=0 time=0
EXTRACT: note_on channel=0 note=81 velocity=80 time=0.0017361104166666666
EXTRACT: note_on channel=3 note=48 velocity=49 time=0
EXTRACT: note_on channel=3 note=57 velocity=49 time=0
EXTRACT: note_on channel=0 note=81 velocity=0 time=0.41493038958333334
EXTRACT: note_on channel=3 note=60 velocity=0 time=0
EXTRACT: note_on channel=3 note=65 velocity=0 time=0
EXTRACT: note_on channel=3 note=69 velocity=0 time=0
EXTRACT: note_on channel=3 note=48 velocity=0 time=0
EXTRACT: note_on channel=3 note=57 velocity=0 time=0
EXTRACT: note_on channel=0 note=86 velocity=80 time=0.0017361104166666666
EXTRACT: note_on channel=3 note=60 velocity=49 time=0
EXTRACT: note_on channel=3 note=64 velocity=49 time=0
EXTRACT: note_on channel=3 note=67 velocity=49 time=0
EXTRACT: note_on channel=3 note=48 velocity=49 time=0
EXTRACT: note_on channel=3 note=55 velocity=49 time=0
EXTRACT: note_on channel=3 note=48 velocity=0 time=0.41493038958333334
EXTRACT: note_on channel=3 note=55 velocity=0 time=0
EXTRACT: note_on channel=3 note=48 velocity=49 time=0.0017361104166666666
EXTRACT: note_on channel=3 note=55 velocity=49 time=0
EXTRACT: note_on channel=0 note=86 velocity=0 time=0.41493038958333334
EXTRACT: note_on channel=3 note=60 velocity=0 time=0
EXTRACT: note_on channel=3 note=64 velocity=0 time=0
EXTRACT: note_on channel=3 note=67 velocity=0 time=0
EXTRACT: note_on channel=3 note=48 velocity=0 time=0
EXTRACT: note_on channel=3 note=55 velocity=0 time=0
EXTRACT: note_on channel=0 note=81 velocity=80 time=0.0017361104166666666
EXTRACT: note_on channel=3 note=60 velocity=49 time=0
EXTRACT: note_on channel=3 note=64 velocity=49 time=0
EXTRACT: note_on channel=3 note=67 velocity=49 time=0
EXTRACT: note_on channel=3 note=48 velocity=49 time=0
EXTRACT: note_on channel=3 note=55 velocity=49 time=0
EXTRACT: note_on channel=0 note=81 velocity=0 time=0.41493038958333334
EXTRACT: note_on channel=3 note=48 velocity=0 time=0
EXTRACT: note_on channel=3 note=55 velocity=0 time=0
EXTRACT: note_on channel=0 note=81 velocity=80 time=0.0017361104166666666
EXTRACT: note_on channel=3 note=48 velocity=49 time=0
EXTRACT: note_on channel=3 note=55 velocity=49 time=0
EXTRACT: note_on channel=0 note=81 velocity=0 time=0.41493038958333334
EXTRACT: note_on channel=3 note=60 velocity=0 time=0
EXTRACT: note_on channel=3 note=64 velocity=0 time=0
EXTRACT: note_on channel=3 note=67 velocity=0 time=0
EXTRACT: note_on channel=3 note=48 velocity=0 time=0
EXTRACT: note_on channel=3 note=55 velocity=0 time=0
EXTRACT: note_on channel=0 note=81 velocity=80 time=0.0017361104166666666
EXTRACT: note_on channel=3 note=60 velocity=49 time=0
EXTRACT: note_on channel=3 note=62 velocity=49 time=0
EXTRACT: note_on channel=3 note=65 velocity=49 time=0
EXTRACT: note_on channel=3 note=48 velocity=49 time=0
EXTRACT: note_on channel=3 note=55 velocity=49 time=0
EXTRACT: note_on channel=0 note=81 velocity=0 time=0.41493038958333334
EXTRACT: note_on channel=3 note=48 velocity=0 time=0
EXTRACT: note_on channel=3 note=55 velocity=0 time=0
EXTRACT: note_on channel=0 note=79 velocity=80 time=0.0017361104166666666
EXTRACT: note_on channel=3 note=48 velocity=49 time=0
EXTRACT: note_on channel=3 note=55 velocity=49 time=0
EXTRACT: note_on channel=0 note=79 velocity=0 time=0.41493038958333334
EXTRACT: note_on channel=3 note=60 velocity=0 time=0
EXTRACT: note_on channel=3 note=62 velocity=0 time=0
EXTRACT: note_on channel=3 note=65 velocity=0 time=0
EXTRACT: note_on channel=3 note=48 velocity=0 time=0
EXTRACT: note_on channel=3 note=55 velocity=0 time=0
EXTRACT: note_on channel=0 note=77 velocity=80 time=0.0017361104166666666
EXTRACT: note_on channel=3 note=60 velocity=49 time=0
EXTRACT: note_on channel=3 note=62 velocity=49 time=0
EXTRACT: note_on channel=3 note=65 velocity=49 time=0
EXTRACT: note_on channel=3 note=48 velocity=49 time=0
EXTRACT: note_on channel=3 note=55 velocity=49 time=0
EXTRACT: note_on channel=0 note=77 velocity=0 time=0.41493038958333334
EXTRACT: note_on channel=3 note=48 velocity=0 time=0
EXTRACT: note_on channel=3 note=55 velocity=0 time=0
EXTRACT: note_on channel=0 note=76 velocity=80 time=0.0017361104166666666
EXTRACT: note_on channel=3 note=48 velocity=49 time=0
EXTRACT: note_on channel=3 note=55 velocity=49 time=0
EXTRACT: note_on channel=3 note=60 velocity=0 time=0.41493038958333334
EXTRACT: note_on channel=3 note=62 velocity=0 time=0
EXTRACT: note_on channel=3 note=65 velocity=0 time=0
EXTRACT: note_on channel=3 note=48 velocity=0 time=0
EXTRACT: note_on channel=3 note=55 velocity=0 time=0
EXTRACT: note_on channel=3 note=60 velocity=49 time=0.0017361104166666666
EXTRACT: note_on channel=3 note=64 velocity=49 time=0
EXTRACT: note_on channel=3 note=67 velocity=49 time=0
EXTRACT: note_on channel=3 note=48 velocity=49 time=0
EXTRACT: note_on channel=3 note=55 velocity=49 time=0
EXTRACT: note_on channel=3 note=48 velocity=0 time=0.41493038958333334
EXTRACT: note_on channel=3 note=55 velocity=0 time=0
EXTRACT: note_on channel=3 note=48 velocity=49 time=0.0017361104166666666
EXTRACT: note_on channel=3 note=55 velocity=49 time=0
EXTRACT: note_on channel=3 note=60 velocity=0 time=0.41493038958333334
EXTRACT: note_on channel=3 note=64 velocity=0 time=0
EXTRACT: note_on channel=3 note=67 velocity=0 time=0
EXTRACT: note_on channel=3 note=48 velocity=0 time=0
EXTRACT: note_on channel=3 note=55 velocity=0 time=0
EXTRACT: note_on channel=3 note=60 velocity=49 time=0.0017361104166666666
EXTRACT: note_on channel=3 note=64 velocity=49 time=0
EXTRACT: note_on channel=3 note=67 velocity=49 time=0
EXTRACT: note_on channel=3 note=48 velocity=49 time=0
EXTRACT: note_on channel=3 note=55 velocity=49 time=0
EXTRACT: note_on channel=3 note=48 velocity=0 time=0.41493038958333334
EXTRACT: note_on channel=3 note=55 velocity=0 time=0
EXTRACT: note_on channel=3 note=48 velocity=49 time=0.0017361104166666666
EXTRACT: note_on channel=3 note=55 velocity=49 time=0
EXTRACT: note_on channel=0 note=76 velocity=0 time=0.41493038958333334
EXTRACT: note_on channel=3 note=60 velocity=0 time=0
EXTRACT: note_on channel=3 note=64 velocity=0 time=0
EXTRACT: note_on channel=3 note=67 velocity=0 time=0
EXTRACT: note_on channel=3 note=48 velocity=0 time=0
EXTRACT: note_on channel=3 note=55 velocity=0 time=0
EXTRACT: note_on channel=3 note=60 velocity=49 time=0.0017361104166666666
EXTRACT: note_on channel=3 note=64 velocity=49 time=0
EXTRACT: note_on channel=3 note=67 velocity=49 time=0
EXTRACT: note_on channel=3 note=48 velocity=49 time=0
EXTRACT: note_on channel=3 note=55 velocity=49 time=0
EXTRACT: note_on channel=3 note=48 velocity=0 time=0.41493038958333334
EXTRACT: note_on channel=3 note=55 velocity=0 time=0
EXTRACT: note_on channel=3 note=48 velocity=49 time=0.0017361104166666666
EXTRACT: note_on channel=3 note=55 velocity=49 time=0
EXTRACT: note_on channel=3 note=60 velocity=0 time=0.41493038958333334
EXTRACT: note_on channel=3 note=64 velocity=0 time=0
EXTRACT: note_on channel=3 note=67 velocity=0 time=0
EXTRACT: note_on channel=3 note=48 velocity=0 time=0
EXTRACT: note_on channel=3 note=55 velocity=0 time=0
EXTRACT: note_on channel=3 note=60 velocity=49 time=0.0017361104166666666
EXTRACT: note_on channel=3 note=64 velocity=49 time=0
EXTRACT: note_on channel=3 note=67 velocity=49 time=0
EXTRACT: note_on channel=3 note=48 velocity=49 time=0
EXTRACT: note_on channel=3 note=55 velocity=49 time=0
EXTRACT: note_on channel=3 note=60 velocity=0 time=0.41493038958333334
EXTRACT: note_on channel=3 note=64 velocity=0 time=0
EXTRACT: note_on channel=3 note=67 velocity=0 time=0
EXTRACT: note_on channel=3 note=48 velocity=0 time=0
EXTRACT: note_on channel=3 note=55 velocity=0 time=0
EXTRACT: note_on channel=3 note=62 velocity=49 time=0.0017361104166666666
EXTRACT: note_on channel=3 note=65 velocity=49 time=0
EXTRACT: note_on channel=3 note=48 velocity=49 time=0
EXTRACT: note_on channel=3 note=55 velocity=49 time=0
EXTRACT: note_on channel=3 note=62 velocity=0 time=0.41493038958333334
EXTRACT: note_on channel=3 note=65 velocity=0 time=0
EXTRACT: note_on channel=3 note=48 velocity=0 time=0
EXTRACT: note_on channel=3 note=55 velocity=0 time=0
EXTRACT: note_on channel=3 note=60 velocity=49 time=0.0017361104166666666
EXTRACT: note_on channel=3 note=64 velocity=49 time=0
EXTRACT: note_on channel=3 note=67 velocity=49 time=0
EXTRACT: note_on channel=3 note=48 velocity=49 time=0
EXTRACT: note_on channel=3 note=55 velocity=49 time=0
EXTRACT: note_on channel=0 note=82 velocity=80 time=0.4166665
EXTRACT: note_on channel=0 note=82 velocity=0 time=0.41493038958333334
EXTRACT: note_on channel=0 note=82 velocity=80 time=0.0017361104166666666
EXTRACT: note_on channel=0 note=82 velocity=0 time=0.41493038958333334
EXTRACT: note_on channel=0 note=79 velocity=80 time=0.0017361104166666666
EXTRACT: note_on channel=0 note=79 velocity=0 time=0.41493038958333334
EXTRACT: note_on channel=0 note=82 velocity=80 time=0.0017361104166666666
EXTRACT: note_on channel=0 note=82 velocity=0 time=0.41493038958333334
EXTRACT: note_on channel=0 note=82 velocity=80 time=0.0017361104166666666
EXTRACT: note_on channel=0 note=82 velocity=0 time=0.41493038958333334
EXTRACT: note_on channel=3 note=60 velocity=0 time=0
EXTRACT: note_on channel=3 note=64 velocity=0 time=0
EXTRACT: note_on channel=3 note=67 velocity=0 time=0
EXTRACT: note_on channel=0 note=82 velocity=80 time=0.0017361104166666666
EXTRACT: note_on channel=3 note=60 velocity=49 time=0
EXTRACT: note_on channel=3 note=64 velocity=49 time=0
EXTRACT: note_on channel=3 note=67 velocity=49 time=0
EXTRACT: note_on channel=0 note=82 velocity=0 time=0.41493038958333334
EXTRACT: note_on channel=0 note=82 velocity=80 time=0.0017361104166666666
EXTRACT: note_on channel=3 note=60 velocity=0 time=0.41493038958333334
EXTRACT: note_on channel=3 note=64 velocity=0 time=0
EXTRACT: note_on channel=3 note=67 velocity=0 time=0
EXTRACT: note_on channel=3 note=48 velocity=0 time=0
EXTRACT: note_on channel=3 note=55 velocity=0 time=0
EXTRACT: note_on channel=3 note=60 velocity=49 time=0.0017361104166666666
EXTRACT: note_on channel=3 note=65 velocity=49 time=0
EXTRACT: note_on channel=3 note=69 velocity=49 time=0
EXTRACT: note_on channel=3 note=41 velocity=49 time=0
EXTRACT: note_on channel=3 note=53 velocity=49 time=0
EXTRACT: note_on channel=0 note=82 velocity=0 time=0.41493038958333334
EXTRACT: note_on channel=0 note=81 velocity=80 time=0.0017361104166666666
EXTRACT: note_on channel=0 note=81 velocity=0 time=0.41493038958333334
EXTRACT: note_on channel=0 note=77 velocity=80 time=0.0017361104166666666
EXTRACT: note_on channel=0 note=77 velocity=0 time=0.8315968895833333
EXTRACT: note_on channel=3 note=60 velocity=0 time=1.666666
EXTRACT: note_on channel=3 note=65 velocity=0 time=0
EXTRACT: note_on channel=3 note=69 velocity=0 time=0
EXTRACT: note_on channel=3 note=41 velocity=0 time=0
EXTRACT: note_on channel=3 note=53 velocity=0 time=0
