EXTRACT: program_change channel=1 program=64 time=0
EXTRACT: control_change channel=1 control=121 value=0 time=0
EXTRACT: control_change channel=1 control=64 value=0 time=0
EXTRACT: control_change channel=1 control=91 value=48 time=0
EXTRACT: control_change channel=1 control=10 value=38 time=0
EXTRACT: control_change channel=1 control=7 value=121 time=0
EXTRACT: note_on channel=0 note=56 velocity=90 time=0
EXTRACT: program_change channel=0 program=0 time=0
EXTRACT: control_change channel=0 control=121 value=0 time=0
EXTRACT: control_change channel=0 control=64 value=0 time=0
EXTRACT: control_change channel=0 control=91 value=48 time=0
EXTRACT: control_change channel=0 control=10 value=51 time=0
EXTRACT: control_change channel=0 control=7 value=101 time=0
EXTRACT: note_on channel=0 note=57 velocity=90 time=0
EXTRACT: note_off channel=0 note=56 velocity=0 time=0
EXTRACT: control_change channel=0 control=121 value=0 time=0
EXTRACT: control_change channel=0 control=64 value=0 time=0
EXTRACT: control_change channel=0 control=91 value=48 time=0
EXTRACT: control_change channel=0 control=10 value=51 time=0
EXTRACT: control_change channel=0 control=7 value=101 time=0
EXTRACT: note_on channel=0 note=41 velocity=78 time=0
EXTRACT: note_on channel=0 note=53 velocity=78 time=0
EXTRACT: program_change channel=2 program=26 time=0
EXTRACT: control_change channel=2 control=121 value=0 time=0
EXTRACT: control_change channel=2 control=64 value=0 time=0
EXTRACT: control_change channel=2 control=91 value=48 time=0
EXTRACT: control_change channel=2 control=10 value=64 time=0
EXTRACT: control_change channel=2 control=7 value=100 time=0
EXTRACT: program_change channel=3 program=88 time=0
EXTRACT: control_change channel=3 control=121 value=0 time=0
EXTRACT: control_change channel=3 control=64 value=0 time=0
EXTRACT: control_change channel=3 control=91 value=48 time=0
EXTRACT: control_change channel=3 control=10 value=51 time=0
EXTRACT: control_change channel=3 control=7 value=61 time=0
EXTRACT: note_on channel=3 note=53 velocity=50 time=0
EXTRACT: note_on channel=3 note=65 velocity=50 time=0
EXTRACT: note_off channel=0 note=57 velocity=0 time=0.365853
EXTRACT: note_on channel=0 note=60 velocity=90 time=0
EXTRACT: note_off channel=0 note=60 velocity=0 time=0.365853
EXTRACT: note_on channel=0 note=60 velocity=90 time=0
EXTRACT: note_off channel=0 note=60 velocity=0 time=0.365853
EXTRACT: note_on channel=0 note=57 velocity=90 time=0
EXTRACT: note_off channel=0 note=57 velocity=0 time=0.365853
EXTRACT: note_on channel=0 note=61 velocity=90 time=0
EXTRACT: note_off channel=0 note=41 velocity=0 time=0
EXTRACT: note_off channel=0 note=53 velocity=0 time=0
EXTRACT: note_on channel=0 note=45 velocity=78 time=0
EXTRACT: note_on channel=0 note=52 velocity=78 time=0
EXTRACT: note_on channel=0 note=57 velocity=78 time=0
EXTRACT: note_off channel=3 note=53 velocity=0 time=0
EXTRACT: note_off channel=3 note=65 velocity=0 time=0
EXTRACT: note_on channel=3 note=57 velocity=50 time=0
EXTRACT: note_on channel=3 note=64 velocity=50 time=0
EXTRACT: note_on channel=3 note=69 velocity=50 time=0
EXTRACT: note_off channel=0 note=61 velocity=0 time=0.365853
EXTRACT: note_on channel=0 note=61 velocity=90 time=0
EXTRACT: note_off channel=0 note=45 velocity=0 time=0
EXTRACT: note_off channel=0 note=52 velocity=0 time=0
EXTRACT: note_off channel=0 note=57 velocity=0 time=0
EXTRACT: note_on channel=0 note=45 velocity=78 time=0
EXTRACT: note_on channel=0 note=52 velocity=78 time=0
EXTRACT: note_on channel=0 note=57 velocity=78 time=0
EXTRACT: note_off channel=0 note=61 velocity=0 time=0.731706
EXTRACT: note_on channel=0 note=62 velocity=90 time=0
EXTRACT: note_off channel=0 note=45 velocity=0 time=0
EXTRACT: note_off channel=0 note=52 velocity=0 time=0
EXTRACT: note_off channel=0 note=57 velocity=0 time=0
EXTRACT: note_on channel=0 note=50 velocity=78 time=0
EXTRACT: note_on channel=0 note=53 velocity=78 time=0
EXTRACT: note_on channel=0 note=57 velocity=78 time=0
EXTRACT: note_off channel=3 note=57 velocity=0 time=0
EXTRACT: note_off channel=3 note=64 velocity=0 time=0
EXTRACT: note_off channel=3 note=69 velocity=0 time=0
EXTRACT: note_on channel=3 note=62 velocity=50 time=0
EXTRACT: note_on channel=3 note=65 velocity=50 time=0
EXTRACT: note_on channel=3 note=69 velocity=50 time=0
EXTRACT: note_off channel=0 note=62 velocity=0 time=1.463412
EXTRACT: note_on channel=0 note=62 velocity=90 time=0
EXTRACT: note_off channel=0 note=50 velocity=0 time=0
EXTRACT: note_off channel=0 note=53 velocity=0 time=0
EXTRACT: note_off channel=0 note=57 velocity=0 time=0
EXTRACT: note_on channel=0 note=46 velocity=78 time=0
EXTRACT: note_on channel=0 note=53 velocity=78 time=0
EXTRACT: note_on channel=0 note=57 velocity=78 time=0
EXTRACT: note_off channel=3 note=62 velocity=0 time=0
EXTRACT: note_off channel=3 note=65 velocity=0 time=0
EXTRACT: note_off channel=3 note=69 velocity=0 time=0
EXTRACT: note_on channel=3 note=58 velocity=50 time=0
EXTRACT: note_on channel=3 note=65 velocity=50 time=0
EXTRACT: note_on channel=3 note=69 velocity=50 time=0
EXTRACT: note_on channel=0 note=56 velocity=90 time=1.7637163374999998
EXTRACT: note_off channel=0 note=62 velocity=0 time=0.0655486625
EXTRACT: note_on channel=0 note=57 velocity=90 time=0
EXTRACT: note_off channel=0 note=56 velocity=0 time=0
EXTRACT: note_off channel=0 note=46 velocity=0 time=0
EXTRACT: note_off channel=0 note=53 velocity=0 time=0
EXTRACT: note_off channel=0 note=57 velocity=0 time=0
EXTRACT: note_on channel=0 note=41 velocity=78 time=0
EXTRACT: note_on channel=0 note=53 velocity=78 time=0
EXTRACT: note_off channel=3 note=58 velocity=0 time=0
EXTRACT: note_off channel=3 note=65 velocity=0 time=0
EXTRACT: note_off channel=3 note=69 velocity=0 time=0
EXTRACT: note_on channel=3 note=53 velocity=50 time=0
EXTRACT: note_on channel=3 note=65 velocity=50 time=0
EXTRACT: note_off channel=0 note=57 velocity=0 time=0.365853
EXTRACT: note_on channel=0 note=60 velocity=90 time=0
EXTRACT: note_off channel=0 note=60 velocity=0 time=0.365853
EXTRACT: note_on channel=0 note=60 velocity=90 time=0
EXTRACT: note_off channel=0 note=60 velocity=0 time=0.365853
EXTRACT: note_on channel=0 note=57 velocity=90 time=0
EXTRACT: note_off channel=0 note=57 velocity=0 time=0.365853
EXTRACT: note_on channel=0 note=61 velocity=90 time=0
EXTRACT: note_off channel=0 note=41 velocity=0 time=0
EXTRACT: note_off channel=0 note=53 velocity=0 time=0
EXTRACT: note_on channel=0 note=45 velocity=78 time=0
EXTRACT: note_on channel=0 note=52 velocity=78 time=0
EXTRACT: note_on channel=0 note=57 velocity=78 time=0
EXTRACT: note_off channel=3 note=53 velocity=0 time=0
EXTRACT: note_off channel=3 note=65 velocity=0 time=0
EXTRACT: note_on channel=3 note=57 velocity=50 time=0
EXTRACT: note_on channel=3 note=64 velocity=50 time=0
EXTRACT: note_on channel=3 note=69 velocity=50 time=0
EXTRACT: note_off channel=0 note=61 velocity=0 time=0.365853
EXTRACT: note_on channel=0 note=61 velocity=90 time=0
EXTRACT: note_off channel=0 note=45 velocity=0 time=0
EXTRACT: note_off channel=0 note=52 velocity=0 time=0
EXTRACT: note_off channel=0 note=57 velocity=0 time=0
EXTRACT: note_on channel=0 note=45 velocity=78 time=0
EXTRACT: note_on channel=0 note=52 velocity=78 time=0
EXTRACT: note_on channel=0 note=57 velocity=78 time=0
EXTRACT: note_off channel=0 note=61 velocity=0 time=0.731706
EXTRACT: note_on channel=0 note=62 velocity=90 time=0
EXTRACT: note_off channel=0 note=45 velocity=0 time=0
EXTRACT: note_off channel=0 note=52 velocity=0 time=0
EXTRACT: note_off channel=0 note=57 velocity=0 time=0
EXTRACT: note_on channel=0 note=50 velocity=78 time=0
EXTRACT: note_on channel=0 note=53 velocity=78 time=0
EXTRACT: note_on channel=0 note=57 velocity=78 time=0
EXTRACT: note_off channel=3 note=57 velocity=0 time=0
EXTRACT: note_off channel=3 note=64 velocity=0 time=0
EXTRACT: note_off channel=3 note=69 velocity=0 time=0
EXTRACT: note_on channel=3 note=62 velocity=50 time=0
EXTRACT: note_on channel=3 note=65 velocity=50 time=0
EXTRACT: note_on channel=3 note=69 velocity=50 time=0
EXTRACT: note_off channel=0 note=62 velocity=0 time=1.463412
EXTRACT: note_on channel=0 note=62 velocity=90 time=0
EXTRACT: note_off channel=0 note=50 velocity=0 time=0
EXTRACT: note_off channel=0 note=53 velocity=0 time=0
EXTRACT: note_off channel=0 note=57 velocity=0 time=0
EXTRACT: note_on channel=0 note=46 velocity=78 time=0
EXTRACT: note_on channel=0 note=53 velocity=78 time=0
EXTRACT: note_on channel=0 note=57 velocity=78 time=0
EXTRACT: note_off channel=3 note=62 velocity=0 time=0
EXTRACT: note_off channel=3 note=65 velocity=0 time=0
EXTRACT: note_off channel=3 note=69 velocity=0 time=0
EXTRACT: note_on channel=3 note=58 velocity=50 time=0
EXTRACT: note_on channel=3 note=65 velocity=50 time=0
EXTRACT: note_on channel=3 note=69 velocity=50 time=0
EXTRACT: note_on channel=0 note=56 velocity=90 time=1.7637163374999998
EXTRACT: note_off channel=0 note=62 velocity=0 time=0.0655486625
EXTRACT: note_on channel=0 note=57 velocity=90 time=0
EXTRACT: note_off channel=0 note=56 velocity=0 time=0
EXTRACT: note_off channel=0 note=46 velocity=0 time=0
EXTRACT: note_off channel=0 note=53 velocity=0 time=0
EXTRACT: note_off channel=0 note=57 velocity=0 time=0
EXTRACT: note_on channel=0 note=41 velocity=78 time=0
EXTRACT: note_on channel=0 note=53 velocity=78 time=0
EXTRACT: note_off channel=3 note=58 velocity=0 time=0
EXTRACT: note_off channel=3 note=65 velocity=0 time=0
EXTRACT: note_off channel=3 note=69 velocity=0 time=0
EXTRACT: note_on channel=3 note=53 velocity=50 time=0
EXTRACT: note_on channel=3 note=65 velocity=50 time=0
EXTRACT: note_off channel=0 note=57 velocity=0 time=0.365853
EXTRACT: note_on channel=0 note=60 velocity=90 time=0
EXTRACT: note_off channel=0 note=60 velocity=0 time=0.365853
EXTRACT: note_on channel=0 note=60 velocity=90 time=0
EXTRACT: note_off channel=0 note=60 velocity=0 time=0.365853
EXTRACT: note_on channel=0 note=57 velocity=90 time=0
EXTRACT: note_off channel=0 note=57 velocity=0 time=0.365853
EXTRACT: note_on channel=0 note=61 velocity=90 time=0
EXTRACT: note_off channel=0 note=41 velocity=0 time=0
EXTRACT: note_off channel=0 note=53 velocity=0 time=0
EXTRACT: note_on channel=0 note=45 velocity=78 time=0
EXTRACT: note_on channel=0 note=52 velocity=78 time=0
EXTRACT: note_on channel=0 note=57 velocity=78 time=0
EXTRACT: note_off channel=3 note=53 velocity=0 time=0
EXTRACT: note_off channel=3 note=65 velocity=0 time=0
EXTRACT: note_on channel=3 note=57 velocity=50 time=0
EXTRACT: note_on channel=3 note=64 velocity=50 time=0
EXTRACT: note_on channel=3 note=69 velocity=50 time=0
EXTRACT: note_off channel=0 note=61 velocity=0 time=0.365853
EXTRACT: note_on channel=0 note=61 velocity=90 time=0
EXTRACT: note_off channel=0 note=45 velocity=0 time=0
EXTRACT: note_off channel=0 note=52 velocity=0 time=0
EXTRACT: note_off channel=0 note=57 velocity=0 time=0
EXTRACT: note_on channel=0 note=45 velocity=78 time=0
EXTRACT: note_on channel=0 note=52 velocity=78 time=0
EXTRACT: note_on channel=0 note=57 velocity=78 time=0
EXTRACT: note_off channel=0 note=61 velocity=0 time=0.731706
EXTRACT: note_on channel=0 note=62 velocity=90 time=0
EXTRACT: note_off channel=0 note=45 velocity=0 time=0
EXTRACT: note_off channel=0 note=52 velocity=0 time=0
EXTRACT: note_off channel=0 note=57 velocity=0 time=0
EXTRACT: note_on channel=0 note=50 velocity=78 time=0
EXTRACT: note_on channel=0 note=53 velocity=78 time=0
EXTRACT: note_on channel=0 note=57 velocity=78 time=0
EXTRACT: note_off channel=3 note=57 velocity=0 time=0
EXTRACT: note_off channel=3 note=64 velocity=0 time=0
EXTRACT: note_off channel=3 note=69 velocity=0 time=0
EXTRACT: note_on channel=3 note=62 velocity=50 time=0
EXTRACT: note_on channel=3 note=65 velocity=50 time=0
EXTRACT: note_on channel=3 note=69 velocity=50 time=0
EXTRACT: note_off channel=0 note=62 velocity=0 time=1.463412
EXTRACT: note_on channel=0 note=62 velocity=90 time=0
EXTRACT: note_off channel=0 note=50 velocity=0 time=0
EXTRACT: note_off channel=0 note=53 velocity=0 time=0
EXTRACT: note_off channel=0 note=57 velocity=0 time=0
EXTRACT: note_on channel=0 note=46 velocity=78 time=0
EXTRACT: note_on channel=0 note=53 velocity=78 time=0
EXTRACT: note_on channel=0 note=58 velocity=78 time=0
EXTRACT: note_off channel=3 note=62 velocity=0 time=0
EXTRACT: note_off channel=3 note=65 velocity=0 time=0
EXTRACT: note_off channel=3 note=69 velocity=0 time=0
EXTRACT: note_on channel=3 note=58 velocity=50 time=0
EXTRACT: note_on channel=3 note=65 velocity=50 time=0
EXTRACT: note_on channel=3 note=70 velocity=50 time=0
EXTRACT: note_on channel=0 note=56 velocity=90 time=1.7637163374999998
EXTRACT: note_off channel=0 note=62 velocity=0 time=0.0655486625
EXTRACT: note_on channel=0 note=57 velocity=90 time=0
EXTRACT: note_off channel=0 note=56 velocity=0 time=0
EXTRACT: note_off channel=0 note=46 velocity=0 time=0
EXTRACT: note_off channel=0 note=53 velocity=0 time=0
EXTRACT: note_off channel=0 note=58 velocity=0 time=0
EXTRACT: note_on channel=0 note=41 velocity=78 time=0
EXTRACT: note_on channel=0 note=53 velocity=78 time=0
EXTRACT: note_off channel=3 note=58 velocity=0 time=0
EXTRACT: note_off channel=3 note=65 velocity=0 time=0
EXTRACT: note_off channel=3 note=70 velocity=0 time=0
EXTRACT: note_on channel=3 note=53 velocity=50 time=0
EXTRACT: note_on channel=3 note=65 velocity=50 time=0
EXTRACT: note_off channel=0 note=57 velocity=0 time=0.365853
EXTRACT: note_on channel=0 note=60 velocity=90 time=0
EXTRACT: note_off channel=0 note=60 velocity=0 time=0.365853
EXTRACT: note_on channel=0 note=60 velocity=90 time=0
EXTRACT: note_off channel=0 note=60 velocity=0 time=0.365853
EXTRACT: note_on channel=0 note=57 velocity=90 time=0
EXTRACT: note_off channel=0 note=57 velocity=0 time=0.365853
EXTRACT: note_on channel=0 note=60 velocity=90 time=0
EXTRACT: note_off channel=0 note=41 velocity=0 time=0
EXTRACT: note_off channel=0 note=53 velocity=0 time=0
EXTRACT: note_on channel=0 note=48 velocity=78 time=0
EXTRACT: note_on channel=0 note=52 velocity=78 time=0
EXTRACT: note_on channel=0 note=55 velocity=78 time=0
EXTRACT: note_off channel=3 note=53 velocity=0 time=0
EXTRACT: note_off channel=3 note=65 velocity=0 time=0
EXTRACT: note_on channel=3 note=60 velocity=50 time=0
EXTRACT: note_on channel=3 note=64 velocity=50 time=0
EXTRACT: note_on channel=3 note=67 velocity=50 time=0
EXTRACT: note_off channel=0 note=60 velocity=0 time=0.365853
EXTRACT: note_on channel=0 note=60 velocity=90 time=0
EXTRACT: note_off channel=0 note=48 velocity=0 time=0
EXTRACT: note_off channel=0 note=52 velocity=0 time=0
EXTRACT: note_off channel=0 note=55 velocity=0 time=0
EXTRACT: note_on channel=0 note=48 velocity=78 time=0
EXTRACT: note_on channel=0 note=52 velocity=78 time=0
EXTRACT: note_on channel=0 note=55 velocity=78 time=0
EXTRACT: note_off channel=0 note=60 velocity=0 time=0.731706
EXTRACT: note_on channel=0 note=57 velocity=90 time=0
EXTRACT: note_off channel=0 note=48 velocity=0 time=0
EXTRACT: note_off channel=0 note=52 velocity=0 time=0
EXTRACT: note_off channel=0 note=55 velocity=0 time=0
EXTRACT: note_on channel=0 note=41 velocity=78 time=0
EXTRACT: note_on channel=0 note=48 velocity=78 time=0
EXTRACT: note_on channel=0 note=53 velocity=78 time=0
EXTRACT: note_off channel=3 note=60 velocity=0 time=0
EXTRACT: note_off channel=3 note=64 velocity=0 time=0
EXTRACT: note_off channel=3 note=67 velocity=0 time=0
EXTRACT: note_on channel=3 note=53 velocity=50 time=0
EXTRACT: note_on channel=3 note=60 velocity=50 time=0
EXTRACT: note_on channel=3 note=65 velocity=50 time=0
EXTRACT: note_on channel=0 note=56 velocity=90 time=3.2271283374999995
EXTRACT: note_off channel=0 note=57 velocity=0 time=0.0655486625
EXTRACT: note_on channel=0 note=57 velocity=90 time=0
EXTRACT: note_off channel=0 note=56 velocity=0 time=0
EXTRACT: note_off channel=0 note=41 velocity=0 time=0
EXTRACT: note_off channel=0 note=48 velocity=0 time=0
EXTRACT: note_off channel=0 note=53 velocity=0 time=0
EXTRACT: note_on channel=0 note=41 velocity=78 time=0
EXTRACT: note_on channel=0 note=53 velocity=78 time=0
EXTRACT: note_off channel=3 note=53 velocity=0 time=0
EXTRACT: note_off channel=3 note=60 velocity=0 time=0
EXTRACT: note_off channel=3 note=65 velocity=0 time=0
EXTRACT: note_on channel=3 note=53 velocity=50 time=0
EXTRACT: note_on channel=3 note=65 velocity=50 time=0
EXTRACT: note_off channel=0 note=57 velocity=0 time=0.365853
EXTRACT: note_on channel=0 note=60 velocity=90 time=0
EXTRACT: note_off channel=0 note=60 velocity=0 time=0.365853
EXTRACT: note_on channel=0 note=60 velocity=90 time=0
EXTRACT: note_off channel=0 note=60 velocity=0 time=0.365853
EXTRACT: note_on channel=0 note=57 velocity=90 time=0
EXTRACT: note_on channel=1 note=69 velocity=100 time=0
EXTRACT: note_on channel=1 note=81 velocity=70 time=0
EXTRACT: note_off channel=0 note=57 velocity=0 time=0
EXTRACT: note_on channel=0 note=61 velocity=90 time=0
EXTRACT: note_off channel=0 note=41 velocity=0 time=0
EXTRACT: note_off channel=0 note=53 velocity=0 time=0
EXTRACT: note_on channel=0 note=45 velocity=78 time=0
EXTRACT: note_on channel=0 note=52 velocity=78 time=0
EXTRACT: note_on channel=0 note=57 velocity=78 time=0
EXTRACT: note_off channel=3 note=53 velocity=0 time=0
EXTRACT: note_off channel=3 note=65 velocity=0 time=0
EXTRACT: note_on channel=3 note=57 velocity=50 time=0
EXTRACT: note_on channel=3 note=64 velocity=50 time=0
EXTRACT: note_on channel=3 note=69 velocity=50 time=0
EXTRACT: note_off channel=1 note=69 velocity=0 time=0.365853
EXTRACT: note_off channel=1 note=81 velocity=0 time=0
EXTRACT: note_on channel=1 note=72 velocity=100 time=0
EXTRACT: note_on channel=1 note=84 velocity=70 time=0
EXTRACT: note_off channel=0 note=61 velocity=0 time=0
EXTRACT: note_on channel=0 note=61 velocity=90 time=0
EXTRACT: note_off channel=0 note=45 velocity=0 time=0
EXTRACT: note_off channel=0 note=52 velocity=0 time=0
EXTRACT: note_off channel=0 note=57 velocity=0 time=0
EXTRACT: note_on channel=0 note=45 velocity=78 time=0
EXTRACT: note_on channel=0 note=52 velocity=78 time=0
EXTRACT: note_on channel=0 note=57 velocity=78 time=0
EXTRACT: note_off channel=3 note=57 velocity=0 time=0
EXTRACT: note_off channel=3 note=64 velocity=0 time=0
EXTRACT: note_off channel=3 note=69 velocity=0 time=0
EXTRACT: note_on channel=3 note=57 velocity=50 time=0
EXTRACT: note_on channel=3 note=64 velocity=50 time=0
EXTRACT: note_on channel=3 note=69 velocity=50 time=0
EXTRACT: note_off channel=1 note=72 velocity=0 time=0.365853
EXTRACT: note_off channel=1 note=84 velocity=0 time=0
EXTRACT: note_on channel=1 note=74 velocity=100 time=0
EXTRACT: note_on channel=1 note=86 velocity=70 time=0
EXTRACT: note_off channel=1 note=74 velocity=0 time=0.365853
EXTRACT: note_off channel=1 note=86 velocity=0 time=0
EXTRACT: note_on channel=1 note=72 velocity=100 time=0
EXTRACT: note_on channel=1 note=84 velocity=70 time=0
EXTRACT: note_off channel=0 note=61 velocity=0 time=0
EXTRACT: note_on channel=0 note=62 velocity=90 time=0
EXTRACT: note_off channel=0 note=45 velocity=0 time=0
EXTRACT: note_off channel=0 note=52 velocity=0 time=0
EXTRACT: note_off channel=0 note=57 velocity=0 time=0
EXTRACT: note_on channel=0 note=50 velocity=78 time=0
EXTRACT: note_on channel=0 note=53 velocity=78 time=0
EXTRACT: note_on channel=0 note=57 velocity=78 time=0
EXTRACT: note_off channel=3 note=57 velocity=0 time=0
EXTRACT: note_off channel=3 note=64 velocity=0 time=0
EXTRACT: note_off channel=3 note=69 velocity=0 time=0
EXTRACT: note_on channel=3 note=62 velocity=50 time=0
EXTRACT: note_on channel=3 note=65 velocity=50 time=0
EXTRACT: note_on channel=3 note=69 velocity=50 time=0
EXTRACT: note_off channel=1 note=72 velocity=0 time=0.365853
EXTRACT: note_off channel=1 note=84 velocity=0 time=0
EXTRACT: note_on channel=1 note=69 velocity=100 time=0
EXTRACT: note_on channel=1 note=81 velocity=70 time=0
EXTRACT: note_on channel=1 note=67 velocity=100 time=0.1829265
EXTRACT: note_on channel=1 note=79 velocity=70 time=0
EXTRACT: note_off channel=1 note=69 velocity=0 time=0.0030487749999999997
EXTRACT: note_off channel=1 note=81 velocity=0 time=0
EXTRACT: note_off channel=1 note=67 velocity=0 time=0.34298718749999996
EXTRACT: note_off channel=1 note=79 velocity=0 time=0
EXTRACT: note_on channel=1 note=62 velocity=100 time=0
EXTRACT: note_on channel=1 note=74 velocity=70 time=0
EXTRACT: note_off channel=1 note=62 velocity=0 time=0.1829265
EXTRACT: note_off channel=1 note=74 velocity=0 time=0
EXTRACT: note_on channel=1 note=65 velocity=100 time=0
EXTRACT: note_on channel=1 note=77 velocity=70 time=0
EXTRACT: note_off channel=0 note=62 velocity=0 time=0.365853
EXTRACT: note_on channel=0 note=62 velocity=90 time=0
EXTRACT: note_off channel=0 note=50 velocity=0 time=0
EXTRACT: note_off channel=0 note=53 velocity=0 time=0
EXTRACT: note_off channel=0 note=57 velocity=0 time=0
EXTRACT: note_on channel=0 note=46 velocity=78 time=0
EXTRACT: note_on channel=0 note=53 velocity=78 time=0
EXTRACT: note_on channel=0 note=57 velocity=78 time=0
EXTRACT: note_off channel=3 note=62 velocity=0 time=0
EXTRACT: note_off channel=3 note=65 velocity=0 time=0
EXTRACT: note_off channel=3 note=69 velocity=0 time=0
EXTRACT: note_on channel=3 note=58 velocity=50 time=0
EXTRACT: note_on channel=3 note=65 velocity=50 time=0
EXTRACT: note_on channel=3 note=70 velocity=50 time=0
EXTRACT: note_off channel=1 note=65 velocity=0 time=0.365853
EXTRACT: note_off channel=1 note=77 velocity=0 time=0
EXTRACT: note_on channel=0 note=56 velocity=90 time=1.3978633374999998
EXTRACT: note_off channel=0 note=62 velocity=0 time=0.0655486625
EXTRACT: note_on channel=0 note=57 velocity=90 time=0
EXTRACT: note_off channel=0 note=56 velocity=0 time=0
EXTRACT: note_off channel=0 note=46 velocity=0 time=0
EXTRACT: note_off channel=0 note=53 velocity=0 time=0
EXTRACT: note_off channel=0 note=57 velocity=0 time=0
EXTRACT: note_on channel=0 note=41 velocity=78 time=0
EXTRACT: note_on channel=0 note=53 velocity=78 time=0
EXTRACT: note_off channel=3 note=58 velocity=0 time=0
EXTRACT: note_off channel=3 note=65 velocity=0 time=0
EXTRACT: note_off channel=3 note=70 velocity=0 time=0
EXTRACT: note_on channel=3 note=53 velocity=50 time=0
EXTRACT: note_on channel=3 note=65 velocity=50 time=0
EXTRACT: note_off channel=0 note=57 velocity=0 time=0.365853
EXTRACT: note_on channel=0 note=60 velocity=90 time=0
EXTRACT: note_off channel=0 note=60 velocity=0 time=0.365853
EXTRACT: note_on channel=0 note=60 velocity=90 time=0
EXTRACT: note_on channel=1 note=65 velocity=100 time=0
EXTRACT: note_on channel=1 note=77 velocity=70 time=0
EXTRACT: note_off channel=0 note=60 velocity=0 time=0
EXTRACT: note_on channel=0 note=57 velocity=90 time=0
EXTRACT: note_off channel=1 note=65 velocity=0 time=0.365853
EXTRACT: note_off channel=1 note=77 velocity=0 time=0
EXTRACT: note_on channel=1 note=69 velocity=100 time=0
EXTRACT: note_on channel=1 note=81 velocity=70 time=0
EXTRACT: note_off channel=0 note=57 velocity=0 time=0
EXTRACT: note_on channel=0 note=61 velocity=90 time=0
EXTRACT: note_off channel=0 note=41 velocity=0 time=0
EXTRACT: note_off channel=0 note=53 velocity=0 time=0
EXTRACT: note_on channel=0 note=45 velocity=78 time=0
EXTRACT: note_on channel=0 note=52 velocity=78 time=0
EXTRACT: note_on channel=0 note=57 velocity=78 time=0
EXTRACT: note_off channel=3 note=53 velocity=0 time=0
EXTRACT: note_off channel=3 note=65 velocity=0 time=0
EXTRACT: note_on channel=3 note=57 velocity=50 time=0
EXTRACT: note_on channel=3 note=64 velocity=50 time=0
EXTRACT: note_on channel=3 note=69 velocity=50 time=0
EXTRACT: note_off channel=0 note=61 velocity=0 time=0.365853
EXTRACT: note_on channel=0 note=61 velocity=90 time=0
EXTRACT: note_off channel=0 note=45 velocity=0 time=0
EXTRACT: note_off channel=0 note=52 velocity=0 time=0
EXTRACT: note_off channel=0 note=57 velocity=0 time=0
EXTRACT: note_on channel=0 note=45 velocity=78 time=0
EXTRACT: note_on channel=0 note=52 velocity=78 time=0
EXTRACT: note_on channel=0 note=57 velocity=78 time=0
EXTRACT: note_off channel=3 note=57 velocity=0 time=0
EXTRACT: note_off channel=3 note=64 velocity=0 time=0
EXTRACT: note_off channel=3 note=69 velocity=0 time=0
EXTRACT: note_on channel=3 note=57 velocity=50 time=0
EXTRACT: note_on channel=3 note=64 velocity=50 time=0
EXTRACT: note_on channel=3 note=69 velocity=50 time=0
EXTRACT: note_off channel=1 note=69 velocity=0 time=0.1829265
EXTRACT: note_off channel=1 note=81 velocity=0 time=0
EXTRACT: note_on channel=1 note=72 velocity=100 time=0
EXTRACT: note_on channel=1 note=84 velocity=70 time=0
EXTRACT: note_off channel=1 note=72 velocity=0 time=0.1829265
EXTRACT: note_off channel=1 note=84 velocity=0 time=0
EXTRACT: note_on channel=1 note=74 velocity=100 time=0
EXTRACT: note_on channel=1 note=86 velocity=70 time=0
EXTRACT: note_off channel=0 note=61 velocity=0 time=0.365853
EXTRACT: note_on channel=0 note=62 velocity=90 time=0
EXTRACT: note_off channel=0 note=45 velocity=0 time=0
EXTRACT: note_off channel=0 note=52 velocity=0 time=0
EXTRACT: note_off channel=0 note=57 velocity=0 time=0
EXTRACT: note_on channel=0 note=50 velocity=78 time=0
EXTRACT: note_on channel=0 note=53 velocity=78 time=0
EXTRACT: note_on channel=0 note=57 velocity=78 time=0
EXTRACT: note_off channel=3 note=57 velocity=0 time=0
EXTRACT: note_off channel=3 note=64 velocity=0 time=0
EXTRACT: note_off channel=3 note=69 velocity=0 time=0
EXTRACT: note_on channel=3 note=62 velocity=50 time=0
EXTRACT: note_on channel=3 note=65 velocity=50 time=0
EXTRACT: note_on channel=3 note=69 velocity=50 time=0
EXTRACT: note_off channel=1 note=74 velocity=0 time=0.1829265
EXTRACT: note_off channel=1 note=86 velocity=0 time=0
EXTRACT: note_on channel=1 note=72 velocity=100 time=0
EXTRACT: note_on channel=1 note=84 velocity=70 time=0
EXTRACT: note_off channel=1 note=72 velocity=0 time=0.1829265
EXTRACT: note_off channel=1 note=84 velocity=0 time=0
EXTRACT: note_on channel=1 note=69 velocity=100 time=0
EXTRACT: note_on channel=1 note=81 velocity=70 time=0
EXTRACT: note_off channel=1 note=69 velocity=0 time=1.097559
EXTRACT: note_off channel=1 note=81 velocity=0 time=0
EXTRACT: note_off channel=0 note=62 velocity=0 time=0
EXTRACT: note_on channel=0 note=62 velocity=90 time=0
EXTRACT: note_off channel=0 note=50 velocity=0 time=0
EXTRACT: note_off channel=0 note=53 velocity=0 time=0
EXTRACT: note_off channel=0 note=57 velocity=0 time=0
EXTRACT: note_on channel=0 note=46 velocity=78 time=0
EXTRACT: note_on channel=0 note=53 velocity=78 time=0
EXTRACT: note_on channel=0 note=57 velocity=78 time=0
EXTRACT: note_off channel=3 note=62 velocity=0 time=0
EXTRACT: note_off channel=3 note=65 velocity=0 time=0
EXTRACT: note_off channel=3 note=69 velocity=0 time=0
EXTRACT: note_on channel=3 note=58 velocity=50 time=0
EXTRACT: note_on channel=3 note=65 velocity=50 time=0
EXTRACT: note_on channel=3 note=70 velocity=50 time=0
EXTRACT: note_on channel=0 note=56 velocity=90 time=1.7637163374999998
EXTRACT: note_off channel=0 note=62 velocity=0 time=0.0655486625
EXTRACT: note_on channel=0 note=57 velocity=90 time=0
EXTRACT: note_off channel=0 note=56 velocity=0 time=0
EXTRACT: note_off channel=0 note=46 velocity=0 time=0
EXTRACT: note_off channel=0 note=53 velocity=0 time=0
EXTRACT: note_off channel=0 note=57 velocity=0 time=0
EXTRACT: note_on channel=0 note=41 velocity=78 time=0
EXTRACT: note_on channel=0 note=53 velocity=78 time=0
EXTRACT: note_off channel=3 note=58 velocity=0 time=0
EXTRACT: note_off channel=3 note=65 velocity=0 time=0
EXTRACT: note_off channel=3 note=70 velocity=0 time=0
EXTRACT: note_on channel=3 note=53 velocity=50 time=0
EXTRACT: note_on channel=3 note=65 velocity=50 time=0
EXTRACT: note_off channel=0 note=57 velocity=0 time=0.365853
EXTRACT: note_on channel=0 note=60 velocity=90 time=0
EXTRACT: note_off channel=0 note=60 velocity=0 time=0.365853
EXTRACT: note_on channel=0 note=60 velocity=90 time=0
EXTRACT: note_on channel=1 note=65 velocity=100 time=0
EXTRACT: note_on channel=1 note=77 velocity=70 time=0
EXTRACT: note_off channel=0 note=60 velocity=0 time=0
EXTRACT: note_on channel=0 note=57 velocity=90 time=0
EXTRACT: note_off channel=1 note=65 velocity=0 time=0.365853
EXTRACT: note_off channel=1 note=77 velocity=0 time=0
EXTRACT: note_on channel=1 note=69 velocity=100 time=0
EXTRACT: note_on channel=1 note=81 velocity=70 time=0
EXTRACT: note_off channel=0 note=57 velocity=0 time=0
EXTRACT: note_on channel=0 note=61 velocity=90 time=0
EXTRACT: note_off channel=0 note=41 velocity=0 time=0
EXTRACT: note_off channel=0 note=53 velocity=0 time=0
EXTRACT: note_on channel=0 note=45 velocity=78 time=0
EXTRACT: note_on channel=0 note=52 velocity=78 time=0
EXTRACT: note_on channel=0 note=57 velocity=78 time=0
EXTRACT: note_off channel=3 note=53 velocity=0 time=0
EXTRACT: note_off channel=3 note=65 velocity=0 time=0
EXTRACT: note_on channel=3 note=57 velocity=50 time=0
EXTRACT: note_on channel=3 note=64 velocity=50 time=0
EXTRACT: note_on channel=3 note=69 velocity=50 time=0
EXTRACT: note_off channel=1 note=69 velocity=0 time=0.365853
EXTRACT: note_off channel=1 note=81 velocity=0 time=0
EXTRACT: note_on channel=1 note=72 velocity=100 time=0
EXTRACT: note_on channel=1 note=84 velocity=70 time=0
EXTRACT: note_off channel=0 note=61 velocity=0 time=0
EXTRACT: note_on channel=0 note=61 velocity=90 time=0
EXTRACT: note_off channel=0 note=45 velocity=0 time=0
EXTRACT: note_off channel=0 note=52 velocity=0 time=0
EXTRACT: note_off channel=0 note=57 velocity=0 time=0
EXTRACT: note_on channel=0 note=45 velocity=78 time=0
EXTRACT: note_on channel=0 note=52 velocity=78 time=0
EXTRACT: note_on channel=0 note=57 velocity=78 time=0
EXTRACT: note_off channel=3 note=57 velocity=0 time=0
EXTRACT: note_off channel=3 note=64 velocity=0 time=0
EXTRACT: note_off channel=3 note=69 velocity=0 time=0
EXTRACT: note_on channel=3 note=57 velocity=50 time=0
EXTRACT: note_on channel=3 note=64 velocity=50 time=0
EXTRACT: note_on channel=3 note=69 velocity=50 time=0
EXTRACT: note_off channel=1 note=72 velocity=0 time=0.365853
EXTRACT: note_off channel=1 note=84 velocity=0 time=0
EXTRACT: note_on channel=1 note=74 velocity=100 time=0
EXTRACT: note_on channel=1 note=86 velocity=70 time=0
EXTRACT: note_off channel=1 note=74 velocity=0 time=0.365853
EXTRACT: note_off channel=1 note=86 velocity=0 time=0
EXTRACT: note_on channel=1 note=72 velocity=100 time=0
EXTRACT: note_on channel=1 note=84 velocity=70 time=0
EXTRACT: note_off channel=0 note=61 velocity=0 time=0
EXTRACT: note_on channel=0 note=62 velocity=90 time=0
EXTRACT: note_off channel=0 note=45 velocity=0 time=0
EXTRACT: note_off channel=0 note=52 velocity=0 time=0
EXTRACT: note_off channel=0 note=57 velocity=0 time=0
EXTRACT: note_on channel=0 note=50 velocity=78 time=0
EXTRACT: note_on channel=0 note=53 velocity=78 time=0
EXTRACT: note_on channel=0 note=57 velocity=78 time=0
EXTRACT: note_off channel=3 note=57 velocity=0 time=0
EXTRACT: note_off channel=3 note=64 velocity=0 time=0
EXTRACT: note_off channel=3 note=69 velocity=0 time=0
EXTRACT: note_on channel=3 note=62 velocity=50 time=0
EXTRACT: note_on channel=3 note=65 velocity=50 time=0
EXTRACT: note_on channel=3 note=69 velocity=50 time=0
EXTRACT: note_on channel=1 note=69 velocity=100 time=0.1829265
EXTRACT: note_on channel=1 note=81 velocity=70 time=0
EXTRACT: note_off channel=1 note=72 velocity=0 time=0.0030487749999999997
EXTRACT: note_off channel=1 note=84 velocity=0 time=0
EXTRACT: note_off channel=1 note=69 velocity=0 time=0.16844481874999997
EXTRACT: note_off channel=1 note=81 velocity=0 time=0
EXTRACT: note_on channel=1 note=69 velocity=100 time=0
EXTRACT: note_on channel=1 note=81 velocity=70 time=0
EXTRACT: note_off channel=1 note=69 velocity=0 time=0.365853
EXTRACT: note_off channel=1 note=81 velocity=0 time=0
EXTRACT: note_on channel=1 note=67 velocity=100 time=0
EXTRACT: note_on channel=1 note=79 velocity=70 time=0
EXTRACT: note_off channel=1 note=67 velocity=0 time=0.731706
EXTRACT: note_off channel=1 note=79 velocity=0 time=0
EXTRACT: note_on channel=1 note=65 velocity=100 time=0
EXTRACT: note_on channel=1 note=77 velocity=70 time=0
EXTRACT: note_off channel=0 note=62 velocity=0 time=0
EXTRACT: note_on channel=0 note=62 velocity=90 time=0
EXTRACT: note_off channel=0 note=50 velocity=0 time=0
EXTRACT: note_off channel=0 note=53 velocity=0 time=0
EXTRACT: note_off channel=0 note=57 velocity=0 time=0
EXTRACT: note_on channel=0 note=46 velocity=78 time=0
EXTRACT: note_on channel=0 note=53 velocity=78 time=0
EXTRACT: note_on channel=0 note=58 velocity=78 time=0
EXTRACT: note_off channel=3 note=62 velocity=0 time=0
EXTRACT: note_off channel=3 note=65 velocity=0 time=0
EXTRACT: note_off channel=3 note=69 velocity=0 time=0
EXTRACT: note_on channel=3 note=58 velocity=50 time=0
EXTRACT: note_on channel=3 note=65 velocity=50 time=0
EXTRACT: note_on channel=3 note=70 velocity=50 time=0
EXTRACT: note_off channel=1 note=65 velocity=0 time=0.365853
EXTRACT: note_off channel=1 note=77 velocity=0 time=0
EXTRACT: note_on channel=1 note=65 velocity=100 time=0
EXTRACT: note_on channel=1 note=77 velocity=70 time=0
EXTRACT: note_off channel=1 note=65 velocity=0 time=0.1829265
EXTRACT: note_off channel=1 note=77 velocity=0 time=0
EXTRACT: note_on channel=1 note=67 velocity=100 time=0
EXTRACT: note_on channel=1 note=79 velocity=70 time=0
EXTRACT: note_off channel=1 note=67 velocity=0 time=0.1829265
EXTRACT: note_off channel=1 note=79 velocity=0 time=0
EXTRACT: note_on channel=1 note=69 velocity=100 time=0
EXTRACT: note_on channel=1 note=81 velocity=70 time=0
EXTRACT: note_on channel=0 note=56 velocity=90 time=0.30030433749999996
EXTRACT: note_off channel=0 note=62 velocity=0 time=0.0655486625
EXTRACT: note_on channel=0 note=57 velocity=90 time=0
EXTRACT: note_off channel=0 note=56 velocity=0 time=0
EXTRACT: note_off channel=0 note=46 velocity=0 time=0
EXTRACT: note_off channel=0 note=53 velocity=0 time=0
EXTRACT: note_off channel=0 note=58 velocity=0 time=0
EXTRACT: note_on channel=0 note=41 velocity=78 time=0
EXTRACT: note_on channel=0 note=53 velocity=78 time=0
EXTRACT: note_off channel=3 note=58 velocity=0 time=0
EXTRACT: note_off channel=3 note=65 velocity=0 time=0
EXTRACT: note_off channel=3 note=70 velocity=0 time=0
EXTRACT: note_on channel=3 note=53 velocity=50 time=0
EXTRACT: note_on channel=3 note=65 velocity=50 time=0
EXTRACT: note_off channel=0 note=57 velocity=0 time=0.365853
EXTRACT: note_on channel=0 note=60 velocity=90 time=0
EXTRACT: note_off channel=1 note=69 velocity=0 time=0.365853
EXTRACT: note_off channel=1 note=81 velocity=0 time=0
EXTRACT: note_on channel=1 note=65 velocity=100 time=0
EXTRACT: note_on channel=1 note=77 velocity=70 time=0
EXTRACT: note_off channel=0 note=60 velocity=0 time=0
EXTRACT: note_on channel=0 note=60 velocity=90 time=0
EXTRACT: note_off channel=1 note=65 velocity=0 time=0.1829265
EXTRACT: note_off channel=1 note=77 velocity=0 time=0
EXTRACT: note_on channel=1 note=67 velocity=100 time=0
EXTRACT: note_on channel=1 note=79 velocity=70 time=0
EXTRACT: note_off channel=1 note=67 velocity=0 time=0.1829265
EXTRACT: note_off channel=1 note=79 velocity=0 time=0
EXTRACT: note_on channel=1 note=69 velocity=100 time=0
EXTRACT: note_on channel=1 note=81 velocity=70 time=0
EXTRACT: note_off channel=0 note=60 velocity=0 time=0
EXTRACT: note_on channel=0 note=57 velocity=90 time=0
EXTRACT: note_off channel=0 note=57 velocity=0 time=0.365853
EXTRACT: note_on channel=0 note=60 velocity=90 time=0
EXTRACT: note_off channel=0 note=41 velocity=0 time=0
EXTRACT: note_off channel=0 note=53 velocity=0 time=0
EXTRACT: note_on channel=0 note=48 velocity=78 time=0
EXTRACT: note_on channel=0 note=52 velocity=78 time=0
EXTRACT: note_on channel=0 note=55 velocity=78 time=0
EXTRACT: note_off channel=3 note=53 velocity=0 time=0
EXTRACT: note_off channel=3 note=65 velocity=0 time=0
EXTRACT: note_on channel=3 note=60 velocity=50 time=0
EXTRACT: note_on channel=3 note=64 velocity=50 time=0
EXTRACT: note_on channel=3 note=67 velocity=50 time=0
EXTRACT: note_off channel=1 note=69 velocity=0 time=0.365853
EXTRACT: note_off channel=1 note=81 velocity=0 time=0
EXTRACT: note_on channel=1 note=65 velocity=100 time=0
EXTRACT: note_on channel=1 note=77 velocity=70 time=0
EXTRACT: note_off channel=0 note=60 velocity=0 time=0
EXTRACT: note_on channel=0 note=60 velocity=90 time=0
EXTRACT: note_off channel=0 note=48 velocity=0 time=0
EXTRACT: note_off channel=0 note=52 velocity=0 time=0
EXTRACT: note_off channel=0 note=55 velocity=0 time=0
EXTRACT: note_on channel=0 note=48 velocity=78 time=0
EXTRACT: note_on channel=0 note=52 velocity=78 time=0
EXTRACT: note_on channel=0 note=55 velocity=78 time=0
EXTRACT: note_off channel=3 note=60 velocity=0 time=0
EXTRACT: note_off channel=3 note=64 velocity=0 time=0
EXTRACT: note_off channel=3 note=67 velocity=0 time=0
EXTRACT: note_on channel=3 note=60 velocity=50 time=0
EXTRACT: note_on channel=3 note=64 velocity=50 time=0
EXTRACT: note_on channel=3 note=67 velocity=50 time=0
EXTRACT: note_on channel=1 note=67 velocity=100 time=0.1829265
EXTRACT: note_on channel=1 note=79 velocity=70 time=0
EXTRACT: note_off channel=1 note=65 velocity=0 time=0.0030487749999999997
EXTRACT: note_off channel=1 note=77 velocity=0 time=0
EXTRACT: note_off channel=1 note=67 velocity=0 time=0.16844481874999997
EXTRACT: note_off channel=1 note=79 velocity=0 time=0
EXTRACT: note_on channel=1 note=65 velocity=100 time=0
EXTRACT: note_on channel=1 note=77 velocity=70 time=0
EXTRACT: note_off channel=0 note=60 velocity=0 time=0
EXTRACT: note_on channel=0 note=57 velocity=90 time=0
EXTRACT: note_off channel=0 note=48 velocity=0 time=0
EXTRACT: note_off channel=0 note=52 velocity=0 time=0
EXTRACT: note_off channel=0 note=55 velocity=0 time=0
EXTRACT: note_on channel=0 note=41 velocity=78 time=0
EXTRACT: note_on channel=0 note=48 velocity=78 time=0
EXTRACT: note_on channel=0 note=53 velocity=78 time=0
EXTRACT: note_off channel=3 note=60 velocity=0 time=0
EXTRACT: note_off channel=3 note=64 velocity=0 time=0
EXTRACT: note_off channel=3 note=67 velocity=0 time=0
EXTRACT: note_on channel=3 note=53 velocity=50 time=0
EXTRACT: note_on channel=3 note=60 velocity=50 time=0
EXTRACT: note_on channel=3 note=65 velocity=50 time=0
EXTRACT: note_off channel=1 note=65 velocity=0 time=1.097559
EXTRACT: note_off channel=1 note=77 velocity=0 time=0
EXTRACT: note_on channel=0 note=56 velocity=90 time=2.1295693374999995
EXTRACT: note_off channel=0 note=57 velocity=0 time=0.0655486625
EXTRACT: note_on channel=0 note=57 velocity=90 time=0
EXTRACT: note_off channel=0 note=56 velocity=0 time=0
EXTRACT: note_off channel=0 note=41 velocity=0 time=0
EXTRACT: note_off channel=0 note=48 velocity=0 time=0
EXTRACT: note_off channel=0 note=53 velocity=0 time=0
EXTRACT: note_on channel=0 note=41 velocity=78 time=0
EXTRACT: note_on channel=0 note=53 velocity=78 time=0
EXTRACT: note_off channel=3 note=53 velocity=0 time=0
EXTRACT: note_off channel=3 note=60 velocity=0 time=0
EXTRACT: note_off channel=3 note=65 velocity=0 time=0
EXTRACT: note_on channel=3 note=53 velocity=50 time=0
EXTRACT: note_on channel=3 note=65 velocity=50 time=0
EXTRACT: note_off channel=0 note=57 velocity=0 time=0.365853
EXTRACT: note_on channel=0 note=60 velocity=90 time=0
EXTRACT: note_off channel=0 note=60 velocity=0 time=0.365853
EXTRACT: note_on channel=0 note=60 velocity=90 time=0
EXTRACT: note_on channel=1 note=65 velocity=100 time=0
EXTRACT: note_on channel=1 note=77 velocity=70 time=0
EXTRACT: note_off channel=0 note=60 velocity=0 time=0
EXTRACT: note_on channel=0 note=57 velocity=90 time=0
EXTRACT: note_off channel=1 note=65 velocity=0 time=0.365853
EXTRACT: note_off channel=1 note=77 velocity=0 time=0
EXTRACT: note_on channel=1 note=69 velocity=100 time=0
EXTRACT: note_on channel=1 note=81 velocity=70 time=0
EXTRACT: note_off channel=0 note=57 velocity=0 time=0
EXTRACT: note_on channel=0 note=61 velocity=90 time=0
EXTRACT: note_off channel=0 note=41 velocity=0 time=0
EXTRACT: note_off channel=0 note=53 velocity=0 time=0
EXTRACT: note_on channel=0 note=45 velocity=78 time=0
EXTRACT: note_on channel=0 note=52 velocity=78 time=0
EXTRACT: note_on channel=0 note=57 velocity=78 time=0
EXTRACT: note_off channel=3 note=53 velocity=0 time=0
EXTRACT: note_off channel=3 note=65 velocity=0 time=0
EXTRACT: note_on channel=3 note=57 velocity=50 time=0
EXTRACT: note_on channel=3 note=64 velocity=50 time=0
EXTRACT: note_on channel=3 note=69 velocity=50 time=0
EXTRACT: note_off channel=1 note=69 velocity=0 time=0.365853
EXTRACT: note_off channel=1 note=81 velocity=0 time=0
EXTRACT: note_on channel=1 note=72 velocity=100 time=0
EXTRACT: note_on channel=1 note=84 velocity=70 time=0
EXTRACT: note_off channel=0 note=61 velocity=0 time=0
EXTRACT: note_on channel=0 note=61 velocity=90 time=0
EXTRACT: note_off channel=0 note=45 velocity=0 time=0
EXTRACT: note_off channel=0 note=52 velocity=0 time=0
EXTRACT: note_off channel=0 note=57 velocity=0 time=0
EXTRACT: note_on channel=0 note=45 velocity=78 time=0
EXTRACT: note_on channel=0 note=52 velocity=78 time=0
EXTRACT: note_on channel=0 note=57 velocity=78 time=0
EXTRACT: note_off channel=3 note=57 velocity=0 time=0
EXTRACT: note_off channel=3 note=64 velocity=0 time=0
EXTRACT: note_off channel=3 note=69 velocity=0 time=0
EXTRACT: note_on channel=3 note=57 velocity=50 time=0
EXTRACT: note_on channel=3 note=64 velocity=50 time=0
EXTRACT: note_on channel=3 note=69 velocity=50 time=0
EXTRACT: note_off channel=1 note=72 velocity=0 time=0.365853
EXTRACT: note_off channel=1 note=84 velocity=0 time=0
EXTRACT: note_on channel=1 note=74 velocity=100 time=0
EXTRACT: note_on channel=1 note=86 velocity=70 time=0
EXTRACT: note_off channel=1 note=74 velocity=0 time=0.365853
EXTRACT: note_off channel=1 note=86 velocity=0 time=0
EXTRACT: note_on channel=1 note=72 velocity=100 time=0
EXTRACT: note_on channel=1 note=84 velocity=70 time=0
EXTRACT: note_off channel=0 note=61 velocity=0 time=0
EXTRACT: note_on channel=0 note=62 velocity=90 time=0
EXTRACT: note_off channel=0 note=45 velocity=0 time=0
EXTRACT: note_off channel=0 note=52 velocity=0 time=0
EXTRACT: note_off channel=0 note=57 velocity=0 time=0
EXTRACT: note_on channel=0 note=50 velocity=78 time=0
EXTRACT: note_on channel=0 note=53 velocity=78 time=0
EXTRACT: note_on channel=0 note=57 velocity=78 time=0
EXTRACT: note_off channel=3 note=57 velocity=0 time=0
EXTRACT: note_off channel=3 note=64 velocity=0 time=0
EXTRACT: note_off channel=3 note=69 velocity=0 time=0
EXTRACT: note_on channel=3 note=62 velocity=50 time=0
EXTRACT: note_on channel=3 note=65 velocity=50 time=0
EXTRACT: note_on channel=3 note=69 velocity=50 time=0
EXTRACT: note_off channel=1 note=72 velocity=0 time=0.365853
EXTRACT: note_off channel=1 note=84 velocity=0 time=0
EXTRACT: note_on channel=1 note=69 velocity=100 time=0
EXTRACT: note_on channel=1 note=81 velocity=70 time=0
EXTRACT: note_off channel=1 note=69 velocity=0 time=0.5487795
EXTRACT: note_off channel=1 note=81 velocity=0 time=0
EXTRACT: note_on channel=1 note=67 velocity=100 time=0
EXTRACT: note_on channel=1 note=79 velocity=70 time=0
EXTRACT: note_off channel=1 note=67 velocity=0 time=0.1829265
EXTRACT: note_off channel=1 note=79 velocity=0 time=0
EXTRACT: note_on channel=1 note=65 velocity=100 time=0
EXTRACT: note_on channel=1 note=77 velocity=70 time=0
EXTRACT: note_off channel=0 note=62 velocity=0 time=0.365853
EXTRACT: note_on channel=0 note=62 velocity=90 time=0
EXTRACT: note_off channel=0 note=50 velocity=0 time=0
EXTRACT: note_off channel=0 note=53 velocity=0 time=0
EXTRACT: note_off channel=0 note=57 velocity=0 time=0
EXTRACT: note_on channel=0 note=46 velocity=78 time=0
EXTRACT: note_on channel=0 note=53 velocity=78 time=0
EXTRACT: note_on channel=0 note=57 velocity=78 time=0
EXTRACT: note_off channel=3 note=62 velocity=0 time=0
EXTRACT: note_off channel=3 note=65 velocity=0 time=0
EXTRACT: note_off channel=3 note=69 velocity=0 time=0
EXTRACT: note_on channel=3 note=58 velocity=50 time=0
EXTRACT: note_on channel=3 note=65 velocity=50 time=0
EXTRACT: note_on channel=3 note=70 velocity=50 time=0
EXTRACT: note_off channel=1 note=65 velocity=0 time=0.365853
EXTRACT: note_off channel=1 note=77 velocity=0 time=0
EXTRACT: note_on channel=0 note=56 velocity=90 time=1.3978633374999998
EXTRACT: note_off channel=0 note=62 velocity=0 time=0.0655486625
EXTRACT: note_on channel=0 note=57 velocity=90 time=0
EXTRACT: note_off channel=0 note=56 velocity=0 time=0
EXTRACT: note_off channel=0 note=46 velocity=0 time=0
EXTRACT: note_off channel=0 note=53 velocity=0 time=0
EXTRACT: note_off channel=0 note=57 velocity=0 time=0
EXTRACT: note_on channel=0 note=41 velocity=78 time=0
EXTRACT: note_on channel=0 note=53 velocity=78 time=0
EXTRACT: note_off channel=3 note=58 velocity=0 time=0
EXTRACT: note_off channel=3 note=65 velocity=0 time=0
EXTRACT: note_off channel=3 note=70 velocity=0 time=0
EXTRACT: note_on channel=3 note=53 velocity=50 time=0
EXTRACT: note_on channel=3 note=65 velocity=50 time=0
EXTRACT: note_off channel=0 note=57 velocity=0 time=0.365853
EXTRACT: note_on channel=0 note=60 velocity=90 time=0
EXTRACT: note_off channel=0 note=60 velocity=0 time=0.365853
EXTRACT: note_on channel=0 note=60 velocity=90 time=0
EXTRACT: note_on channel=1 note=65 velocity=100 time=0
EXTRACT: note_on channel=1 note=77 velocity=70 time=0
EXTRACT: note_off channel=0 note=60 velocity=0 time=0
EXTRACT: note_on channel=0 note=57 velocity=90 time=0
EXTRACT: note_off channel=1 note=65 velocity=0 time=0.365853
EXTRACT: note_off channel=1 note=77 velocity=0 time=0
EXTRACT: note_on channel=1 note=69 velocity=100 time=0
EXTRACT: note_on channel=1 note=81 velocity=70 time=0
EXTRACT: note_off channel=0 note=57 velocity=0 time=0
EXTRACT: note_on channel=0 note=61 velocity=90 time=0
EXTRACT: note_off channel=0 note=41 velocity=0 time=0
EXTRACT: note_off channel=0 note=53 velocity=0 time=0
EXTRACT: note_on channel=0 note=45 velocity=78 time=0
EXTRACT: note_on channel=0 note=52 velocity=78 time=0
EXTRACT: note_on channel=0 note=57 velocity=78 time=0
EXTRACT: note_off channel=3 note=53 velocity=0 time=0
EXTRACT: note_off channel=3 note=65 velocity=0 time=0
EXTRACT: note_on channel=3 note=57 velocity=50 time=0
EXTRACT: note_on channel=3 note=64 velocity=50 time=0
EXTRACT: note_on channel=3 note=69 velocity=50 time=0
EXTRACT: note_off channel=1 note=69 velocity=0 time=0.365853
EXTRACT: note_off channel=1 note=81 velocity=0 time=0
EXTRACT: note_on channel=1 note=72 velocity=100 time=0
EXTRACT: note_on channel=1 note=84 velocity=70 time=0
EXTRACT: note_off channel=0 note=61 velocity=0 time=0
EXTRACT: note_on channel=0 note=61 velocity=90 time=0
EXTRACT: note_off channel=0 note=45 velocity=0 time=0
EXTRACT: note_off channel=0 note=52 velocity=0 time=0
EXTRACT: note_off channel=0 note=57 velocity=0 time=0
EXTRACT: note_on channel=0 note=45 velocity=78 time=0
EXTRACT: note_on channel=0 note=52 velocity=78 time=0
EXTRACT: note_on channel=0 note=57 velocity=78 time=0
EXTRACT: note_off channel=3 note=57 velocity=0 time=0
EXTRACT: note_off channel=3 note=64 velocity=0 time=0
EXTRACT: note_off channel=3 note=69 velocity=0 time=0
EXTRACT: note_on channel=3 note=57 velocity=50 time=0
EXTRACT: note_on channel=3 note=64 velocity=50 time=0
EXTRACT: note_on channel=3 note=69 velocity=50 time=0
EXTRACT: note_off channel=1 note=72 velocity=0 time=0.365853
EXTRACT: note_off channel=1 note=84 velocity=0 time=0
EXTRACT: note_on channel=1 note=74 velocity=100 time=0
EXTRACT: note_on channel=1 note=86 velocity=70 time=0
EXTRACT: note_off channel=1 note=74 velocity=0 time=0.365853
EXTRACT: note_off channel=1 note=86 velocity=0 time=0
EXTRACT: note_on channel=1 note=72 velocity=100 time=0
EXTRACT: note_on channel=1 note=84 velocity=70 time=0
EXTRACT: note_off channel=0 note=61 velocity=0 time=0
EXTRACT: note_on channel=0 note=62 velocity=90 time=0
EXTRACT: note_off channel=0 note=45 velocity=0 time=0
EXTRACT: note_off channel=0 note=52 velocity=0 time=0
EXTRACT: note_off channel=0 note=57 velocity=0 time=0
EXTRACT: note_on channel=0 note=50 velocity=78 time=0
EXTRACT: note_on channel=0 note=53 velocity=78 time=0
EXTRACT: note_on channel=0 note=57 velocity=78 time=0
EXTRACT: note_off channel=3 note=57 velocity=0 time=0
EXTRACT: note_off channel=3 note=64 velocity=0 time=0
EXTRACT: note_off channel=3 note=69 velocity=0 time=0
EXTRACT: note_on channel=3 note=62 velocity=50 time=0
EXTRACT: note_on channel=3 note=65 velocity=50 time=0
EXTRACT: note_on channel=3 note=69 velocity=50 time=0
EXTRACT: note_off channel=1 note=72 velocity=0 time=0.365853
EXTRACT: note_off channel=1 note=84 velocity=0 time=0
EXTRACT: note_on channel=1 note=69 velocity=100 time=0
EXTRACT: note_on channel=1 note=81 velocity=70 time=0
EXTRACT: note_off channel=1 note=69 velocity=0 time=0.731706
EXTRACT: note_off channel=1 note=81 velocity=0 time=0
EXTRACT: note_off channel=0 note=62 velocity=0 time=0.365853
EXTRACT: note_on channel=0 note=62 velocity=90 time=0
EXTRACT: note_off channel=0 note=50 velocity=0 time=0
EXTRACT: note_off channel=0 note=53 velocity=0 time=0
EXTRACT: note_off channel=0 note=57 velocity=0 time=0
EXTRACT: note_on channel=0 note=46 velocity=78 time=0
EXTRACT: note_on channel=0 note=53 velocity=78 time=0
EXTRACT: note_on channel=0 note=57 velocity=78 time=0
EXTRACT: note_off channel=3 note=62 velocity=0 time=0
EXTRACT: note_off channel=3 note=65 velocity=0 time=0
EXTRACT: note_off channel=3 note=69 velocity=0 time=0
EXTRACT: note_on channel=3 note=58 velocity=50 time=0
EXTRACT: note_on channel=3 note=65 velocity=50 time=0
EXTRACT: note_on channel=3 note=70 velocity=50 time=0
EXTRACT: note_on channel=0 note=56 velocity=90 time=1.7637163374999998
EXTRACT: note_off channel=0 note=62 velocity=0 time=0.0655486625
EXTRACT: note_on channel=0 note=57 velocity=90 time=0
EXTRACT: note_off channel=0 note=56 velocity=0 time=0
EXTRACT: note_off channel=0 note=46 velocity=0 time=0
EXTRACT: note_off channel=0 note=53 velocity=0 time=0
EXTRACT: note_off channel=0 note=57 velocity=0 time=0
EXTRACT: note_on channel=0 note=41 velocity=78 time=0
EXTRACT: note_on channel=0 note=53 velocity=78 time=0
EXTRACT: note_off channel=3 note=58 velocity=0 time=0
EXTRACT: note_off channel=3 note=65 velocity=0 time=0
EXTRACT: note_off channel=3 note=70 velocity=0 time=0
EXTRACT: note_on channel=3 note=53 velocity=50 time=0
EXTRACT: note_on channel=3 note=65 velocity=50 time=0
EXTRACT: note_off channel=0 note=57 velocity=0 time=0.365853
EXTRACT: note_on channel=0 note=60 velocity=90 time=0
EXTRACT: note_off channel=0 note=60 velocity=0 time=0.365853
EXTRACT: note_on channel=0 note=60 velocity=90 time=0
EXTRACT: note_on channel=1 note=65 velocity=100 time=0
EXTRACT: note_on channel=1 note=77 velocity=70 time=0
EXTRACT: note_off channel=0 note=60 velocity=0 time=0
EXTRACT: note_on channel=0 note=57 velocity=90 time=0
EXTRACT: note_off channel=1 note=65 velocity=0 time=0.365853
EXTRACT: note_off channel=1 note=77 velocity=0 time=0
EXTRACT: note_on channel=1 note=69 velocity=100 time=0
EXTRACT: note_on channel=1 note=81 velocity=70 time=0
EXTRACT: note_off channel=0 note=57 velocity=0 time=0
EXTRACT: note_on channel=0 note=61 velocity=90 time=0
EXTRACT: note_off channel=0 note=41 velocity=0 time=0
EXTRACT: note_off channel=0 note=53 velocity=0 time=0
EXTRACT: note_on channel=0 note=45 velocity=78 time=0
EXTRACT: note_on channel=0 note=52 velocity=78 time=0
EXTRACT: note_on channel=0 note=57 velocity=78 time=0
EXTRACT: note_off channel=3 note=53 velocity=0 time=0
EXTRACT: note_off channel=3 note=65 velocity=0 time=0
EXTRACT: note_on channel=3 note=57 velocity=50 time=0
EXTRACT: note_on channel=3 note=64 velocity=50 time=0
EXTRACT: note_on channel=3 note=69 velocity=50 time=0
EXTRACT: note_off channel=1 note=69 velocity=0 time=0.365853
EXTRACT: note_off channel=1 note=81 velocity=0 time=0
EXTRACT: note_on channel=1 note=72 velocity=100 time=0
EXTRACT: note_on channel=1 note=84 velocity=70 time=0
EXTRACT: note_off channel=0 note=61 velocity=0 time=0
EXTRACT: note_on channel=0 note=61 velocity=90 time=0
EXTRACT: note_off channel=0 note=45 velocity=0 time=0
EXTRACT: note_off channel=0 note=52 velocity=0 time=0
EXTRACT: note_off channel=0 note=57 velocity=0 time=0
EXTRACT: note_on channel=0 note=45 velocity=78 time=0
EXTRACT: note_on channel=0 note=52 velocity=78 time=0
EXTRACT: note_on channel=0 note=57 velocity=78 time=0
EXTRACT: note_off channel=3 note=57 velocity=0 time=0
EXTRACT: note_off channel=3 note=64 velocity=0 time=0
EXTRACT: note_off channel=3 note=69 velocity=0 time=0
EXTRACT: note_on channel=3 note=57 velocity=50 time=0
EXTRACT: note_on channel=3 note=64 velocity=50 time=0
EXTRACT: note_on channel=3 note=69 velocity=50 time=0
EXTRACT: note_off channel=1 note=72 velocity=0 time=0.365853
EXTRACT: note_off channel=1 note=84 velocity=0 time=0
EXTRACT: note_on channel=1 note=74 velocity=100 time=0
EXTRACT: note_on channel=1 note=86 velocity=70 time=0
EXTRACT: note_off channel=1 note=74 velocity=0 time=0.365853
EXTRACT: note_off channel=1 note=86 velocity=0 time=0
EXTRACT: note_on channel=1 note=72 velocity=100 time=0
EXTRACT: note_on channel=1 note=84 velocity=70 time=0
EXTRACT: note_off channel=0 note=61 velocity=0 time=0
EXTRACT: note_on channel=0 note=62 velocity=90 time=0
EXTRACT: note_off channel=0 note=45 velocity=0 time=0
EXTRACT: note_off channel=0 note=52 velocity=0 time=0
EXTRACT: note_off channel=0 note=57 velocity=0 time=0
EXTRACT: note_on channel=0 note=50 velocity=78 time=0
EXTRACT: note_on channel=0 note=53 velocity=78 time=0
EXTRACT: note_on channel=0 note=57 velocity=78 time=0
EXTRACT: note_off channel=3 note=57 velocity=0 time=0
EXTRACT: note_off channel=3 note=64 velocity=0 time=0
EXTRACT: note_off channel=3 note=69 velocity=0 time=0
EXTRACT: note_on channel=3 note=62 velocity=50 time=0
EXTRACT: note_on channel=3 note=65 velocity=50 time=0
EXTRACT: note_on channel=3 note=69 velocity=50 time=0
EXTRACT: note_off channel=1 note=72 velocity=0 time=0.365853
EXTRACT: note_off channel=1 note=84 velocity=0 time=0
EXTRACT: note_on channel=1 note=69 velocity=100 time=0
EXTRACT: note_on channel=1 note=81 velocity=70 time=0
EXTRACT: note_off channel=1 note=69 velocity=0 time=0.365853
EXTRACT: note_off channel=1 note=81 velocity=0 time=0
EXTRACT: note_on channel=1 note=67 velocity=100 time=0
EXTRACT: note_on channel=1 note=79 velocity=70 time=0
EXTRACT: note_off channel=1 note=67 velocity=0 time=0.365853
EXTRACT: note_off channel=1 note=79 velocity=0 time=0
EXTRACT: note_on channel=1 note=65 velocity=100 time=0
EXTRACT: note_on channel=1 note=77 velocity=70 time=0
EXTRACT: note_off channel=0 note=62 velocity=0 time=0.365853
EXTRACT: note_on channel=0 note=62 velocity=90 time=0
EXTRACT: note_off channel=0 note=50 velocity=0 time=0
EXTRACT: note_off channel=0 note=53 velocity=0 time=0
EXTRACT: note_off channel=0 note=57 velocity=0 time=0
EXTRACT: note_on channel=0 note=46 velocity=78 time=0
EXTRACT: note_on channel=0 note=53 velocity=78 time=0
EXTRACT: note_on channel=0 note=58 velocity=78 time=0
EXTRACT: note_off channel=3 note=62 velocity=0 time=0
EXTRACT: note_off channel=3 note=65 velocity=0 time=0
EXTRACT: note_off channel=3 note=69 velocity=0 time=0
EXTRACT: note_on channel=3 note=58 velocity=50 time=0
EXTRACT: note_on channel=3 note=65 velocity=50 time=0
EXTRACT: note_on channel=3 note=70 velocity=50 time=0
EXTRACT: note_off channel=1 note=65 velocity=0 time=0.365853
EXTRACT: note_off channel=1 note=77 velocity=0 time=0
EXTRACT: note_on channel=1 note=65 velocity=100 time=0
EXTRACT: note_on channel=1 note=77 velocity=70 time=0
EXTRACT: note_off channel=1 note=65 velocity=0 time=0.1829265
EXTRACT: note_off channel=1 note=77 velocity=0 time=0
EXTRACT: note_on channel=1 note=65 velocity=100 time=0
EXTRACT: note_on channel=1 note=77 velocity=70 time=0
EXTRACT: note_off channel=1 note=65 velocity=0 time=0.1829265
EXTRACT: note_off channel=1 note=77 velocity=0 time=0
EXTRACT: note_on channel=1 note=69 velocity=100 time=0
EXTRACT: note_on channel=1 note=81 velocity=70 time=0
EXTRACT: note_on channel=0 note=56 velocity=90 time=0.30030433749999996
EXTRACT: note_off channel=0 note=62 velocity=0 time=0.0655486625
EXTRACT: note_on channel=0 note=57 velocity=90 time=0
EXTRACT: note_off channel=0 note=56 velocity=0 time=0
EXTRACT: note_off channel=0 note=46 velocity=0 time=0
EXTRACT: note_off channel=0 note=53 velocity=0 time=0
EXTRACT: note_off channel=0 note=58 velocity=0 time=0
EXTRACT: note_on channel=0 note=41 velocity=78 time=0
EXTRACT: note_on channel=0 note=53 velocity=78 time=0
EXTRACT: note_off channel=3 note=58 velocity=0 time=0
EXTRACT: note_off channel=3 note=65 velocity=0 time=0
EXTRACT: note_off channel=3 note=70 velocity=0 time=0
EXTRACT: note_on channel=3 note=53 velocity=50 time=0
EXTRACT: note_on channel=3 note=65 velocity=50 time=0
EXTRACT: note_off channel=0 note=57 velocity=0 time=0.365853
EXTRACT: note_on channel=0 note=60 velocity=90 time=0
EXTRACT: note_off channel=1 note=69 velocity=0 time=0.365853
EXTRACT: note_off channel=1 note=81 velocity=0 time=0
EXTRACT: note_on channel=1 note=65 velocity=100 time=0
EXTRACT: note_on channel=1 note=77 velocity=70 time=0
EXTRACT: note_off channel=0 note=60 velocity=0 time=0
EXTRACT: note_on channel=0 note=60 velocity=90 time=0
EXTRACT: note_off channel=1 note=65 velocity=0 time=0.1829265
EXTRACT: note_off channel=1 note=77 velocity=0 time=0
EXTRACT: note_on channel=1 note=67 velocity=100 time=0
EXTRACT: note_on channel=1 note=79 velocity=70 time=0
EXTRACT: note_off channel=1 note=67 velocity=0 time=0.1829265
EXTRACT: note_off channel=1 note=79 velocity=0 time=0
EXTRACT: note_on channel=1 note=69 velocity=100 time=0
EXTRACT: note_on channel=1 note=81 velocity=70 time=0
EXTRACT: note_off channel=0 note=60 velocity=0 time=0
EXTRACT: note_on channel=0 note=57 velocity=90 time=0
EXTRACT: note_off channel=1 note=69 velocity=0 time=0.365853
EXTRACT: note_off channel=1 note=81 velocity=0 time=0
EXTRACT: note_on channel=1 note=67 velocity=100 time=0
EXTRACT: note_on channel=1 note=79 velocity=70 time=0
EXTRACT: note_off channel=0 note=57 velocity=0 time=0
EXTRACT: note_on channel=0 note=60 velocity=90 time=0
EXTRACT: note_off channel=0 note=41 velocity=0 time=0
EXTRACT: note_off channel=0 note=53 velocity=0 time=0
EXTRACT: note_on channel=0 note=48 velocity=78 time=0
EXTRACT: note_on channel=0 note=52 velocity=78 time=0
EXTRACT: note_on channel=0 note=55 velocity=78 time=0
EXTRACT: note_off channel=3 note=53 velocity=0 time=0
EXTRACT: note_off channel=3 note=65 velocity=0 time=0
EXTRACT: note_on channel=3 note=60 velocity=50 time=0
EXTRACT: note_on channel=3 note=64 velocity=50 time=0
EXTRACT: note_on channel=3 note=67 velocity=50 time=0
EXTRACT: note_off channel=1 note=67 velocity=0 time=0.365853
EXTRACT: note_off channel=1 note=79 velocity=0 time=0
EXTRACT: note_on channel=1 note=67 velocity=100 time=0
EXTRACT: note_on channel=1 note=79 velocity=70 time=0
EXTRACT: note_off channel=0 note=60 velocity=0 time=0
EXTRACT: note_on channel=0 note=60 velocity=90 time=0
EXTRACT: note_off channel=0 note=48 velocity=0 time=0
EXTRACT: note_off channel=0 note=52 velocity=0 time=0
EXTRACT: note_off channel=0 note=55 velocity=0 time=0
EXTRACT: note_on channel=0 note=48 velocity=78 time=0
EXTRACT: note_on channel=0 note=52 velocity=78 time=0
EXTRACT: note_on channel=0 note=55 velocity=78 time=0
EXTRACT: note_off channel=3 note=60 velocity=0 time=0
EXTRACT: note_off channel=3 note=64 velocity=0 time=0
EXTRACT: note_off channel=3 note=67 velocity=0 time=0
EXTRACT: note_on channel=3 note=60 velocity=50 time=0
EXTRACT: note_on channel=3 note=64 velocity=50 time=0
EXTRACT: note_on channel=3 note=67 velocity=50 time=0
EXTRACT: note_off channel=1 note=67 velocity=0 time=0.731706
EXTRACT: note_off channel=1 note=79 velocity=0 time=0
EXTRACT: note_on channel=1 note=65 velocity=100 time=0
EXTRACT: note_on channel=1 note=77 velocity=70 time=0
EXTRACT: note_off channel=0 note=60 velocity=0 time=0
EXTRACT: note_on channel=0 note=57 velocity=90 time=0
EXTRACT: note_off channel=0 note=48 velocity=0 time=0
EXTRACT: note_off channel=0 note=52 velocity=0 time=0
EXTRACT: note_off channel=0 note=55 velocity=0 time=0
EXTRACT: note_on channel=0 note=41 velocity=78 time=0
EXTRACT: note_on channel=0 note=48 velocity=78 time=0
EXTRACT: note_on channel=0 note=53 velocity=78 time=0
EXTRACT: note_off channel=3 note=60 velocity=0 time=0
EXTRACT: note_off channel=3 note=64 velocity=0 time=0
EXTRACT: note_off channel=3 note=67 velocity=0 time=0
EXTRACT: note_on channel=3 note=53 velocity=50 time=0
EXTRACT: note_on channel=3 note=60 velocity=50 time=0
EXTRACT: note_on channel=3 note=65 velocity=50 time=0
EXTRACT: note_off channel=1 note=65 velocity=0 time=1.097559
EXTRACT: note_off channel=1 note=77 velocity=0 time=0
EXTRACT: note_on channel=1 note=65 velocity=100 time=0
EXTRACT: note_on channel=1 note=77 velocity=70 time=0
EXTRACT: note_on channel=0 note=56 velocity=90 time=0.6661573375
EXTRACT: note_off channel=1 note=65 velocity=0 time=0.0655486625
EXTRACT: note_off channel=1 note=77 velocity=0 time=0
EXTRACT: note_on channel=1 note=69 velocity=100 time=0
EXTRACT: note_on channel=1 note=81 velocity=70 time=0
EXTRACT: note_off channel=0 note=57 velocity=0 time=0
EXTRACT: note_on channel=0 note=57 velocity=90 time=0
EXTRACT: note_off channel=0 note=56 velocity=0 time=0
EXTRACT: note_off channel=0 note=41 velocity=0 time=0
EXTRACT: note_off channel=0 note=48 velocity=0 time=0
EXTRACT: note_off channel=0 note=53 velocity=0 time=0
EXTRACT: note_on channel=0 note=41 velocity=78 time=0
EXTRACT: note_on channel=0 note=53 velocity=78 time=0
EXTRACT: note_off channel=3 note=53 velocity=0 time=0
EXTRACT: note_off channel=3 note=60 velocity=0 time=0
EXTRACT: note_off channel=3 note=65 velocity=0 time=0
EXTRACT: note_on channel=3 note=53 velocity=50 time=0
EXTRACT: note_on channel=3 note=65 velocity=50 time=0
EXTRACT: note_off channel=0 note=57 velocity=0 time=0.365853
EXTRACT: note_on channel=0 note=60 velocity=90 time=0
EXTRACT: note_off channel=0 note=60 velocity=0 time=0.365853
EXTRACT: note_on channel=0 note=60 velocity=90 time=0
EXTRACT: note_off channel=0 note=60 velocity=0 time=0.365853
EXTRACT: note_on channel=0 note=57 velocity=90 time=0
EXTRACT: note_off channel=0 note=57 velocity=0 time=0.365853
EXTRACT: note_on channel=0 note=61 velocity=90 time=0
EXTRACT: note_off channel=0 note=41 velocity=0 time=0
EXTRACT: note_off channel=0 note=53 velocity=0 time=0
EXTRACT: note_on channel=0 note=45 velocity=78 time=0
EXTRACT: note_on channel=0 note=52 velocity=78 time=0
EXTRACT: note_on channel=0 note=57 velocity=78 time=0
EXTRACT: note_off channel=3 note=53 velocity=0 time=0
EXTRACT: note_off channel=3 note=65 velocity=0 time=0
EXTRACT: note_on channel=3 note=57 velocity=50 time=0
EXTRACT: note_on channel=3 note=64 velocity=50 time=0
EXTRACT: note_on channel=3 note=69 velocity=50 time=0
EXTRACT: note_off channel=1 note=69 velocity=0 time=0.365853
EXTRACT: note_off channel=1 note=81 velocity=0 time=0
EXTRACT: note_on channel=1 note=69 velocity=100 time=0
EXTRACT: note_on channel=1 note=81 velocity=70 time=0
EXTRACT: note_off channel=0 note=61 velocity=0 time=0
EXTRACT: note_on channel=0 note=61 velocity=90 time=0
EXTRACT: note_off channel=0 note=45 velocity=0 time=0
EXTRACT: note_off channel=0 note=52 velocity=0 time=0
EXTRACT: note_off channel=0 note=57 velocity=0 time=0
EXTRACT: note_on channel=0 note=45 velocity=78 time=0
EXTRACT: note_on channel=0 note=52 velocity=78 time=0
EXTRACT: note_on channel=0 note=57 velocity=78 time=0
EXTRACT: note_off channel=3 note=57 velocity=0 time=0
EXTRACT: note_off channel=3 note=64 velocity=0 time=0
EXTRACT: note_off channel=3 note=69 velocity=0 time=0
EXTRACT: note_on channel=3 note=57 velocity=50 time=0
EXTRACT: note_on channel=3 note=64 velocity=50 time=0
EXTRACT: note_on channel=3 note=69 velocity=50 time=0
EXTRACT: note_off channel=1 note=69 velocity=0 time=0.731706
EXTRACT: note_off channel=1 note=81 velocity=0 time=0
EXTRACT: note_on channel=1 note=69 velocity=100 time=0
EXTRACT: note_on channel=1 note=81 velocity=70 time=0
EXTRACT: note_off channel=0 note=61 velocity=0 time=0
EXTRACT: note_on channel=0 note=62 velocity=90 time=0
EXTRACT: note_off channel=0 note=45 velocity=0 time=0
EXTRACT: note_off channel=0 note=52 velocity=0 time=0
EXTRACT: note_off channel=0 note=57 velocity=0 time=0
EXTRACT: note_on channel=0 note=50 velocity=78 time=0
EXTRACT: note_on channel=0 note=53 velocity=78 time=0
EXTRACT: note_on channel=0 note=57 velocity=78 time=0
EXTRACT: note_off channel=3 note=57 velocity=0 time=0
EXTRACT: note_off channel=3 note=64 velocity=0 time=0
EXTRACT: note_off channel=3 note=69 velocity=0 time=0
EXTRACT: note_on channel=3 note=62 velocity=50 time=0
EXTRACT: note_on channel=3 note=65 velocity=50 time=0
EXTRACT: note_on channel=3 note=69 velocity=50 time=0
EXTRACT: note_off channel=1 note=69 velocity=0 time=0.12042661249999999
EXTRACT: note_off channel=1 note=81 velocity=0 time=0
EXTRACT: note_on channel=1 note=65 velocity=100 time=0
EXTRACT: note_on channel=1 note=77 velocity=70 time=0
EXTRACT: note_off channel=1 note=65 velocity=0 time=0.12271319374999999
EXTRACT: note_off channel=1 note=77 velocity=0 time=0
EXTRACT: note_on channel=1 note=64 velocity=100 time=0
EXTRACT: note_on channel=1 note=76 velocity=70 time=0
EXTRACT: note_off channel=1 note=64 velocity=0 time=0.11432906249999998
EXTRACT: note_off channel=1 note=76 velocity=0 time=0
EXTRACT: note_on channel=1 note=62 velocity=100 time=0
EXTRACT: note_on channel=1 note=74 velocity=70 time=0
EXTRACT: note_off channel=1 note=62 velocity=0 time=0.731706
EXTRACT: note_off channel=1 note=74 velocity=0 time=0
EXTRACT: note_off channel=0 note=62 velocity=0 time=0.365853
EXTRACT: note_on channel=0 note=62 velocity=90 time=0
EXTRACT: note_off channel=0 note=50 velocity=0 time=0
EXTRACT: note_off channel=0 note=53 velocity=0 time=0
EXTRACT: note_off channel=0 note=57 velocity=0 time=0
EXTRACT: note_on channel=0 note=46 velocity=78 time=0
EXTRACT: note_on channel=0 note=53 velocity=78 time=0
EXTRACT: note_on channel=0 note=57 velocity=78 time=0
EXTRACT: note_off channel=3 note=62 velocity=0 time=0
EXTRACT: note_off channel=3 note=65 velocity=0 time=0
EXTRACT: note_off channel=3 note=69 velocity=0 time=0
EXTRACT: note_on channel=3 note=58 velocity=50 time=0
EXTRACT: note_on channel=3 note=65 velocity=50 time=0
EXTRACT: note_on channel=3 note=70 velocity=50 time=0
EXTRACT: note_on channel=1 note=60 velocity=100 time=0
EXTRACT: note_on channel=1 note=72 velocity=70 time=0
EXTRACT: note_on channel=0 note=56 velocity=90 time=0.30030433749999996
EXTRACT: note_off channel=1 note=60 velocity=0 time=0.0655486625
EXTRACT: note_off channel=1 note=72 velocity=0 time=0
EXTRACT: note_on channel=1 note=65 velocity=100 time=0
EXTRACT: note_on channel=1 note=77 velocity=70 time=0
EXTRACT: note_off channel=0 note=62 velocity=0 time=0
EXTRACT: note_on channel=0 note=57 velocity=90 time=0
EXTRACT: note_off channel=0 note=56 velocity=0 time=0
EXTRACT: note_off channel=0 note=46 velocity=0 time=0
EXTRACT: note_off channel=0 note=53 velocity=0 time=0
EXTRACT: note_off channel=0 note=57 velocity=0 time=0
EXTRACT: note_on channel=0 note=41 velocity=78 time=0
EXTRACT: note_on channel=0 note=53 velocity=78 time=0
EXTRACT: note_off channel=3 note=58 velocity=0 time=0
EXTRACT: note_off channel=3 note=65 velocity=0 time=0
EXTRACT: note_off channel=3 note=70 velocity=0 time=0
EXTRACT: note_on channel=3 note=53 velocity=50 time=0
EXTRACT: note_on channel=3 note=65 velocity=50 time=0
EXTRACT: note_off channel=1 note=65 velocity=0 time=0.365853
EXTRACT: note_off channel=1 note=77 velocity=0 time=0
EXTRACT: note_on channel=1 note=65 velocity=100 time=0
EXTRACT: note_on channel=1 note=77 velocity=70 time=0
EXTRACT: note_off channel=0 note=57 velocity=0 time=0
EXTRACT: note_on channel=0 note=60 velocity=90 time=0
EXTRACT: note_off channel=1 note=65 velocity=0 time=0.365853
EXTRACT: note_off channel=1 note=77 velocity=0 time=0
EXTRACT: note_on channel=1 note=65 velocity=100 time=0
EXTRACT: note_on channel=1 note=77 velocity=70 time=0
EXTRACT: note_off channel=0 note=60 velocity=0 time=0
EXTRACT: note_on channel=0 note=60 velocity=90 time=0
EXTRACT: note_off channel=1 note=65 velocity=0 time=0.365853
EXTRACT: note_off channel=1 note=77 velocity=0 time=0
EXTRACT: note_on channel=1 note=65 velocity=100 time=0
EXTRACT: note_on channel=1 note=77 velocity=70 time=0
EXTRACT: note_off channel=0 note=60 velocity=0 time=0
EXTRACT: note_on channel=0 note=57 velocity=90 time=0
EXTRACT: note_off channel=1 note=65 velocity=0 time=0.365853
EXTRACT: note_off channel=1 note=77 velocity=0 time=0
EXTRACT: note_on channel=1 note=64 velocity=100 time=0
EXTRACT: note_on channel=1 note=76 velocity=70 time=0
EXTRACT: note_off channel=0 note=57 velocity=0 time=0
EXTRACT: note_on channel=0 note=61 velocity=90 time=0
EXTRACT: note_off channel=0 note=41 velocity=0 time=0
EXTRACT: note_off channel=0 note=53 velocity=0 time=0
EXTRACT: note_on channel=0 note=45 velocity=78 time=0
EXTRACT: note_on channel=0 note=52 velocity=78 time=0
EXTRACT: note_on channel=0 note=57 velocity=78 time=0
EXTRACT: note_off channel=3 note=53 velocity=0 time=0
EXTRACT: note_off channel=3 note=65 velocity=0 time=0
EXTRACT: note_on channel=3 note=57 velocity=50 time=0
EXTRACT: note_on channel=3 note=64 velocity=50 time=0
EXTRACT: note_on channel=3 note=69 velocity=50 time=0
EXTRACT: note_off channel=1 note=64 velocity=0 time=0.365853
EXTRACT: note_off channel=1 note=76 velocity=0 time=0
EXTRACT: note_on channel=1 note=64 velocity=100 time=0
EXTRACT: note_on channel=1 note=76 velocity=70 time=0
EXTRACT: note_off channel=0 note=61 velocity=0 time=0
EXTRACT: note_on channel=0 note=61 velocity=90 time=0
EXTRACT: note_off channel=0 note=45 velocity=0 time=0
EXTRACT: note_off channel=0 note=52 velocity=0 time=0
EXTRACT: note_off channel=0 note=57 velocity=0 time=0
EXTRACT: note_on channel=0 note=45 velocity=78 time=0
EXTRACT: note_on channel=0 note=52 velocity=78 time=0
EXTRACT: note_on channel=0 note=57 velocity=78 time=0
EXTRACT: note_off channel=3 note=57 velocity=0 time=0
EXTRACT: note_off channel=3 note=64 velocity=0 time=0
EXTRACT: note_off channel=3 note=69 velocity=0 time=0
EXTRACT: note_on channel=3 note=57 velocity=50 time=0
EXTRACT: note_on channel=3 note=64 velocity=50 time=0
EXTRACT: note_on channel=3 note=69 velocity=50 time=0
EXTRACT: note_off channel=1 note=64 velocity=0 time=0.365853
EXTRACT: note_off channel=1 note=76 velocity=0 time=0
EXTRACT: note_on channel=1 note=64 velocity=100 time=0
EXTRACT: note_on channel=1 note=76 velocity=70 time=0
EXTRACT: note_off channel=1 note=64 velocity=0 time=0.365853
EXTRACT: note_off channel=1 note=76 velocity=0 time=0
EXTRACT: note_on channel=1 note=65 velocity=100 time=0
EXTRACT: note_on channel=1 note=77 velocity=70 time=0
EXTRACT: note_off channel=0 note=61 velocity=0 time=0
EXTRACT: note_on channel=0 note=62 velocity=90 time=0
EXTRACT: note_off channel=0 note=45 velocity=0 time=0
EXTRACT: note_off channel=0 note=52 velocity=0 time=0
EXTRACT: note_off channel=0 note=57 velocity=0 time=0
EXTRACT: note_on channel=0 note=50 velocity=78 time=0
EXTRACT: note_on channel=0 note=53 velocity=78 time=0
EXTRACT: note_on channel=0 note=57 velocity=78 time=0
EXTRACT: note_off channel=3 note=57 velocity=0 time=0
EXTRACT: note_off channel=3 note=64 velocity=0 time=0
EXTRACT: note_off channel=3 note=69 velocity=0 time=0
EXTRACT: note_on channel=3 note=62 velocity=50 time=0
EXTRACT: note_on channel=3 note=65 velocity=50 time=0
EXTRACT: note_on channel=3 note=69 velocity=50 time=0
EXTRACT: note_on channel=1 note=64 velocity=100 time=0.1829265
EXTRACT: note_on channel=1 note=76 velocity=70 time=0
EXTRACT: note_off channel=1 note=65 velocity=0 time=0.0030487749999999997
EXTRACT: note_off channel=1 note=77 velocity=0 time=0
EXTRACT: note_on channel=1 note=62 velocity=100 time=0.179877725
EXTRACT: note_on channel=1 note=74 velocity=70 time=0
EXTRACT: note_off channel=1 note=64 velocity=0 time=0.0030487749999999997
EXTRACT: note_off channel=1 note=76 velocity=0 time=0
EXTRACT: note_off channel=1 note=62 velocity=0 time=0.69130973125
EXTRACT: note_off channel=1 note=74 velocity=0 time=0
EXTRACT: note_off channel=0 note=62 velocity=0 time=0.40320049374999994
EXTRACT: note_on channel=0 note=62 velocity=90 time=0
EXTRACT: note_off channel=0 note=50 velocity=0 time=0
EXTRACT: note_off channel=0 note=53 velocity=0 time=0
EXTRACT: note_off channel=0 note=57 velocity=0 time=0
EXTRACT: note_on channel=0 note=46 velocity=78 time=0
EXTRACT: note_on channel=0 note=53 velocity=78 time=0
EXTRACT: note_on channel=0 note=57 velocity=78 time=0
EXTRACT: note_off channel=3 note=62 velocity=0 time=0
EXTRACT: note_off channel=3 note=65 velocity=0 time=0
EXTRACT: note_off channel=3 note=69 velocity=0 time=0
EXTRACT: note_on channel=3 note=58 velocity=50 time=0
EXTRACT: note_on channel=3 note=65 velocity=50 time=0
EXTRACT: note_on channel=3 note=70 velocity=50 time=0
EXTRACT: note_on channel=1 note=60 velocity=100 time=0
EXTRACT: note_on channel=1 note=72 velocity=70 time=0
EXTRACT: note_on channel=0 note=56 velocity=90 time=0.6661573375
EXTRACT: note_off channel=1 note=60 velocity=0 time=0.0655486625
EXTRACT: note_off channel=1 note=72 velocity=0 time=0
EXTRACT: note_on channel=1 note=69 velocity=100 time=0
EXTRACT: note_on channel=1 note=81 velocity=70 time=0
EXTRACT: note_off channel=0 note=62 velocity=0 time=0
EXTRACT: note_on channel=0 note=57 velocity=90 time=0
EXTRACT: note_off channel=0 note=56 velocity=0 time=0
EXTRACT: note_off channel=0 note=46 velocity=0 time=0
EXTRACT: note_off channel=0 note=53 velocity=0 time=0
EXTRACT: note_off channel=0 note=57 velocity=0 time=0
EXTRACT: note_on channel=0 note=41 velocity=78 time=0
EXTRACT: note_on channel=0 note=53 velocity=78 time=0
EXTRACT: note_off channel=3 note=58 velocity=0 time=0
EXTRACT: note_off channel=3 note=65 velocity=0 time=0
EXTRACT: note_off channel=3 note=70 velocity=0 time=0
EXTRACT: note_on channel=3 note=53 velocity=50 time=0
EXTRACT: note_on channel=3 note=65 velocity=50 time=0
EXTRACT: note_off channel=0 note=57 velocity=0 time=0.365853
EXTRACT: note_on channel=0 note=60 velocity=90 time=0
EXTRACT: note_off channel=1 note=69 velocity=0 time=0.365853
EXTRACT: note_off channel=1 note=81 velocity=0 time=0
EXTRACT: note_off channel=0 note=60 velocity=0 time=0
EXTRACT: note_on channel=0 note=60 velocity=90 time=0
EXTRACT: note_off channel=0 note=60 velocity=0 time=0.365853
EXTRACT: note_on channel=0 note=57 velocity=90 time=0
EXTRACT: note_off channel=0 note=57 velocity=0 time=0.365853
EXTRACT: note_on channel=0 note=61 velocity=90 time=0
EXTRACT: note_off channel=0 note=41 velocity=0 time=0
EXTRACT: note_off channel=0 note=53 velocity=0 time=0
EXTRACT: note_on channel=0 note=45 velocity=78 time=0
EXTRACT: note_on channel=0 note=52 velocity=78 time=0
EXTRACT: note_on channel=0 note=57 velocity=78 time=0
EXTRACT: note_off channel=3 note=53 velocity=0 time=0
EXTRACT: note_off channel=3 note=65 velocity=0 time=0
EXTRACT: note_on channel=3 note=57 velocity=50 time=0
EXTRACT: note_on channel=3 note=64 velocity=50 time=0
EXTRACT: note_on channel=3 note=69 velocity=50 time=0
EXTRACT: note_off channel=0 note=61 velocity=0 time=0.365853
EXTRACT: note_on channel=0 note=61 velocity=90 time=0
EXTRACT: note_off channel=0 note=45 velocity=0 time=0
EXTRACT: note_off channel=0 note=52 velocity=0 time=0
EXTRACT: note_off channel=0 note=57 velocity=0 time=0
EXTRACT: note_on channel=0 note=45 velocity=78 time=0
EXTRACT: note_on channel=0 note=52 velocity=78 time=0
EXTRACT: note_on channel=0 note=57 velocity=78 time=0
EXTRACT: note_off channel=3 note=57 velocity=0 time=0
EXTRACT: note_off channel=3 note=64 velocity=0 time=0
EXTRACT: note_off channel=3 note=69 velocity=0 time=0
EXTRACT: note_on channel=3 note=57 velocity=50 time=0
EXTRACT: note_on channel=3 note=64 velocity=50 time=0
EXTRACT: note_on channel=3 note=69 velocity=50 time=0
EXTRACT: note_on channel=1 note=69 velocity=100 time=0
EXTRACT: note_on channel=1 note=81 velocity=70 time=0
EXTRACT: note_off channel=1 note=69 velocity=0 time=0.365853
EXTRACT: note_off channel=1 note=81 velocity=0 time=0
EXTRACT: note_on channel=1 note=70 velocity=100 time=0
EXTRACT: note_on channel=1 note=82 velocity=70 time=0
EXTRACT: note_off channel=0 note=61 velocity=0 time=0
EXTRACT: note_on channel=0 note=62 velocity=90 time=0
EXTRACT: note_off channel=0 note=45 velocity=0 time=0
EXTRACT: note_off channel=0 note=52 velocity=0 time=0
EXTRACT: note_off channel=0 note=57 velocity=0 time=0
EXTRACT: note_on channel=0 note=50 velocity=78 time=0
EXTRACT: note_on channel=0 note=53 velocity=78 time=0
EXTRACT: note_on channel=0 note=57 velocity=78 time=0
EXTRACT: note_off channel=3 note=57 velocity=0 time=0
EXTRACT: note_off channel=3 note=64 velocity=0 time=0
EXTRACT: note_off channel=3 note=69 velocity=0 time=0
EXTRACT: note_on channel=3 note=62 velocity=50 time=0
EXTRACT: note_on channel=3 note=65 velocity=50 time=0
EXTRACT: note_on channel=3 note=69 velocity=50 time=0
EXTRACT: note_off channel=1 note=70 velocity=0 time=0.731706
EXTRACT: note_off channel=1 note=82 velocity=0 time=0
EXTRACT: note_on channel=1 note=69 velocity=100 time=0
EXTRACT: note_on channel=1 note=81 velocity=70 time=0
EXTRACT: note_off channel=1 note=69 velocity=0 time=0.731706
EXTRACT: note_off channel=1 note=81 velocity=0 time=0
EXTRACT: note_on channel=1 note=67 velocity=100 time=0
EXTRACT: note_on channel=1 note=79 velocity=70 time=0
EXTRACT: note_off channel=0 note=62 velocity=0 time=0
EXTRACT: note_on channel=0 note=62 velocity=90 time=0
EXTRACT: note_off channel=0 note=50 velocity=0 time=0
EXTRACT: note_off channel=0 note=53 velocity=0 time=0
EXTRACT: note_off channel=0 note=57 velocity=0 time=0
EXTRACT: note_on channel=0 note=46 velocity=78 time=0
EXTRACT: note_on channel=0 note=53 velocity=78 time=0
EXTRACT: note_on channel=0 note=58 velocity=78 time=0
EXTRACT: note_off channel=3 note=62 velocity=0 time=0
EXTRACT: note_off channel=3 note=65 velocity=0 time=0
EXTRACT: note_off channel=3 note=69 velocity=0 time=0
EXTRACT: note_on channel=3 note=58 velocity=50 time=0
EXTRACT: note_on channel=3 note=65 velocity=50 time=0
EXTRACT: note_on channel=3 note=70 velocity=50 time=0
EXTRACT: note_off channel=1 note=67 velocity=0 time=0.731706
EXTRACT: note_off channel=1 note=79 velocity=0 time=0
EXTRACT: note_on channel=1 note=65 velocity=100 time=0
EXTRACT: note_on channel=1 note=77 velocity=70 time=0
EXTRACT: note_off channel=1 note=65 velocity=0 time=0.731706
EXTRACT: note_off channel=1 note=77 velocity=0 time=0
EXTRACT: note_on channel=1 note=65 velocity=100 time=0
EXTRACT: note_on channel=1 note=77 velocity=70 time=0
EXTRACT: note_on channel=0 note=56 velocity=90 time=0.30030433749999996
EXTRACT: note_off channel=1 note=65 velocity=0 time=0.0655486625
EXTRACT: note_off channel=1 note=77 velocity=0 time=0
EXTRACT: note_on channel=1 note=69 velocity=100 time=0
EXTRACT: note_on channel=1 note=81 velocity=70 time=0
EXTRACT: note_off channel=0 note=62 velocity=0 time=0
EXTRACT: note_on channel=0 note=57 velocity=90 time=0
EXTRACT: note_off channel=0 note=56 velocity=0 time=0
EXTRACT: note_off channel=0 note=46 velocity=0 time=0
EXTRACT: note_off channel=0 note=53 velocity=0 time=0
EXTRACT: note_off channel=0 note=58 velocity=0 time=0
EXTRACT: note_on channel=0 note=41 velocity=78 time=0
EXTRACT: note_on channel=0 note=53 velocity=78 time=0
EXTRACT: note_off channel=3 note=58 velocity=0 time=0
EXTRACT: note_off channel=3 note=65 velocity=0 time=0
EXTRACT: note_off channel=3 note=70 velocity=0 time=0
EXTRACT: note_on channel=3 note=53 velocity=50 time=0
EXTRACT: note_on channel=3 note=65 velocity=50 time=0
EXTRACT: note_off channel=1 note=69 velocity=0 time=0.365853
EXTRACT: note_off channel=1 note=81 velocity=0 time=0
EXTRACT: note_on channel=1 note=72 velocity=100 time=0
EXTRACT: note_on channel=1 note=84 velocity=70 time=0
EXTRACT: note_off channel=0 note=57 velocity=0 time=0
EXTRACT: note_on channel=0 note=60 velocity=90 time=0
EXTRACT: note_off channel=1 note=72 velocity=0 time=0.365853
EXTRACT: note_off channel=1 note=84 velocity=0 time=0
EXTRACT: note_on channel=1 note=69 velocity=100 time=0
EXTRACT: note_on channel=1 note=81 velocity=70 time=0
EXTRACT: note_off channel=0 note=60 velocity=0 time=0
EXTRACT: note_on channel=0 note=60 velocity=90 time=0
EXTRACT: note_off channel=1 note=69 velocity=0 time=0.365853
EXTRACT: note_off channel=1 note=81 velocity=0 time=0
EXTRACT: note_on channel=1 note=65 velocity=100 time=0
EXTRACT: note_on channel=1 note=77 velocity=70 time=0
EXTRACT: note_off channel=0 note=60 velocity=0 time=0
EXTRACT: note_on channel=0 note=57 velocity=90 time=0
EXTRACT: note_off channel=1 note=65 velocity=0 time=0.365853
EXTRACT: note_off channel=1 note=77 velocity=0 time=0
EXTRACT: note_on channel=1 note=67 velocity=100 time=0
EXTRACT: note_on channel=1 note=79 velocity=70 time=0
EXTRACT: note_off channel=0 note=57 velocity=0 time=0
EXTRACT: note_on channel=0 note=60 velocity=90 time=0
EXTRACT: note_off channel=0 note=41 velocity=0 time=0
EXTRACT: note_off channel=0 note=53 velocity=0 time=0
EXTRACT: note_on channel=0 note=48 velocity=78 time=0
EXTRACT: note_on channel=0 note=52 velocity=78 time=0
EXTRACT: note_on channel=0 note=55 velocity=78 time=0
EXTRACT: note_off channel=3 note=53 velocity=0 time=0
EXTRACT: note_off channel=3 note=65 velocity=0 time=0
EXTRACT: note_on channel=3 note=60 velocity=50 time=0
EXTRACT: note_on channel=3 note=64 velocity=50 time=0
EXTRACT: note_on channel=3 note=67 velocity=50 time=0
EXTRACT: note_off channel=1 note=67 velocity=0 time=0.365853
EXTRACT: note_off channel=1 note=79 velocity=0 time=0
EXTRACT: note_on channel=1 note=67 velocity=100 time=0
EXTRACT: note_on channel=1 note=79 velocity=70 time=0
EXTRACT: note_off channel=0 note=60 velocity=0 time=0
EXTRACT: note_on channel=0 note=60 velocity=90 time=0
EXTRACT: note_off channel=0 note=48 velocity=0 time=0
EXTRACT: note_off channel=0 note=52 velocity=0 time=0
EXTRACT: note_off channel=0 note=55 velocity=0 time=0
EXTRACT: note_on channel=0 note=48 velocity=78 time=0
EXTRACT: note_on channel=0 note=52 velocity=78 time=0
EXTRACT: note_on channel=0 note=55 velocity=78 time=0
EXTRACT: note_off channel=3 note=60 velocity=0 time=0
EXTRACT: note_off channel=3 note=64 velocity=0 time=0
EXTRACT: note_off channel=3 note=67 velocity=0 time=0
EXTRACT: note_on channel=3 note=60 velocity=50 time=0
EXTRACT: note_on channel=3 note=64 velocity=50 time=0
EXTRACT: note_on channel=3 note=67 velocity=50 time=0
EXTRACT: note_off channel=1 note=67 velocity=0 time=0.731706
EXTRACT: note_off channel=1 note=79 velocity=0 time=0
EXTRACT: note_on channel=1 note=65 velocity=100 time=0
EXTRACT: note_on channel=1 note=77 velocity=70 time=0
EXTRACT: note_off channel=0 note=60 velocity=0 time=0
EXTRACT: note_on channel=0 note=57 velocity=90 time=0
EXTRACT: note_off channel=0 note=48 velocity=0 time=0
EXTRACT: note_off channel=0 note=52 velocity=0 time=0
EXTRACT: note_off channel=0 note=55 velocity=0 time=0
EXTRACT: note_on channel=0 note=41 velocity=78 time=0
EXTRACT: note_on channel=0 note=48 velocity=78 time=0
EXTRACT: note_on channel=0 note=53 velocity=78 time=0
EXTRACT: note_off channel=3 note=60 velocity=0 time=0
EXTRACT: note_off channel=3 note=64 velocity=0 time=0
EXTRACT: note_off channel=3 note=67 velocity=0 time=0
EXTRACT: note_on channel=3 note=53 velocity=50 time=0
EXTRACT: note_on channel=3 note=60 velocity=50 time=0
EXTRACT: note_on channel=3 note=65 velocity=50 time=0
EXTRACT: note_off channel=1 note=65 velocity=0 time=1.097559
EXTRACT: note_off channel=1 note=77 velocity=0 time=0
EXTRACT: note_on channel=0 note=56 velocity=100 time=2.1295693374999995
EXTRACT: note_off channel=0 note=57 velocity=0 time=0.0655486625
EXTRACT: note_on channel=0 note=57 velocity=100 time=0
EXTRACT: note_off channel=0 note=56 velocity=0 time=0
EXTRACT: note_off channel=0 note=41 velocity=0 time=0
EXTRACT: note_off channel=0 note=48 velocity=0 time=0
EXTRACT: note_off channel=0 note=53 velocity=0 time=0
EXTRACT: note_on channel=0 note=41 velocity=50 time=0
EXTRACT: note_on channel=0 note=53 velocity=50 time=0
EXTRACT: note_off channel=3 note=53 velocity=0 time=0
EXTRACT: note_off channel=3 note=60 velocity=0 time=0
EXTRACT: note_off channel=3 note=65 velocity=0 time=0
EXTRACT: note_on channel=3 note=53 velocity=50 time=0
EXTRACT: note_on channel=3 note=65 velocity=50 time=0
EXTRACT: note_off channel=0 note=57 velocity=0 time=0.365853
EXTRACT: note_on channel=0 note=60 velocity=100 time=0
EXTRACT: note_off channel=0 note=60 velocity=0 time=0.365853
EXTRACT: note_on channel=0 note=60 velocity=100 time=0
EXTRACT: note_off channel=0 note=60 velocity=0 time=0.365853
EXTRACT: note_on channel=0 note=57 velocity=100 time=0
EXTRACT: note_off channel=0 note=57 velocity=0 time=0.365853
EXTRACT: note_on channel=0 note=61 velocity=100 time=0
EXTRACT: note_off channel=0 note=41 velocity=0 time=0
EXTRACT: note_off channel=0 note=53 velocity=0 time=0
EXTRACT: note_on channel=0 note=45 velocity=50 time=0
EXTRACT: note_on channel=0 note=52 velocity=50 time=0
EXTRACT: note_on channel=0 note=57 velocity=50 time=0
EXTRACT: note_off channel=3 note=53 velocity=0 time=0
EXTRACT: note_off channel=3 note=65 velocity=0 time=0
EXTRACT: note_on channel=3 note=57 velocity=50 time=0
EXTRACT: note_on channel=3 note=64 velocity=50 time=0
EXTRACT: note_on channel=3 note=69 velocity=50 time=0
EXTRACT: note_off channel=0 note=61 velocity=0 time=0.365853
EXTRACT: note_on channel=0 note=61 velocity=100 time=0
EXTRACT: note_off channel=0 note=45 velocity=0 time=0
EXTRACT: note_off channel=0 note=52 velocity=0 time=0
EXTRACT: note_off channel=0 note=57 velocity=0 time=0
EXTRACT: note_on channel=0 note=45 velocity=50 time=0
EXTRACT: note_on channel=0 note=52 velocity=50 time=0
EXTRACT: note_on channel=0 note=57 velocity=50 time=0
EXTRACT: note_off channel=3 note=57 velocity=0 time=0
EXTRACT: note_off channel=3 note=64 velocity=0 time=0
EXTRACT: note_off channel=3 note=69 velocity=0 time=0
EXTRACT: note_on channel=3 note=57 velocity=50 time=0
EXTRACT: note_on channel=3 note=64 velocity=50 time=0
EXTRACT: note_on channel=3 note=69 velocity=50 time=0
EXTRACT: note_off channel=0 note=61 velocity=0 time=0.731706
EXTRACT: note_on channel=0 note=62 velocity=100 time=0
EXTRACT: note_off channel=0 note=45 velocity=0 time=0
EXTRACT: note_off channel=0 note=52 velocity=0 time=0
EXTRACT: note_off channel=0 note=57 velocity=0 time=0
EXTRACT: note_on channel=0 note=50 velocity=50 time=0
EXTRACT: note_on channel=0 note=53 velocity=50 time=0
EXTRACT: note_on channel=0 note=57 velocity=50 time=0
EXTRACT: note_off channel=3 note=57 velocity=0 time=0
EXTRACT: note_off channel=3 note=64 velocity=0 time=0
EXTRACT: note_off channel=3 note=69 velocity=0 time=0
EXTRACT: note_on channel=3 note=62 velocity=50 time=0
EXTRACT: note_on channel=3 note=65 velocity=50 time=0
EXTRACT: note_on channel=3 note=69 velocity=50 time=0
EXTRACT: note_off channel=0 note=62 velocity=0 time=1.463412
EXTRACT: note_on channel=0 note=62 velocity=100 time=0
EXTRACT: note_off channel=0 note=50 velocity=0 time=0
EXTRACT: note_off channel=0 note=53 velocity=0 time=0
EXTRACT: note_off channel=0 note=57 velocity=0 time=0
EXTRACT: note_on channel=0 note=46 velocity=50 time=0
EXTRACT: note_on channel=0 note=53 velocity=50 time=0
EXTRACT: note_on channel=0 note=57 velocity=50 time=0
EXTRACT: note_off channel=3 note=62 velocity=0 time=0
EXTRACT: note_off channel=3 note=65 velocity=0 time=0
EXTRACT: note_off channel=3 note=69 velocity=0 time=0
EXTRACT: note_on channel=3 note=58 velocity=50 time=0
EXTRACT: note_on channel=3 note=65 velocity=50 time=0
EXTRACT: note_on channel=3 note=69 velocity=50 time=0
EXTRACT: note_on channel=0 note=56 velocity=90 time=1.7637163374999998
EXTRACT: note_off channel=0 note=62 velocity=0 time=0.0655486625
EXTRACT: note_on channel=0 note=57 velocity=90 time=0
EXTRACT: note_off channel=0 note=56 velocity=0 time=0
EXTRACT: note_off channel=0 note=46 velocity=0 time=0
EXTRACT: note_off channel=0 note=53 velocity=0 time=0
EXTRACT: note_off channel=0 note=57 velocity=0 time=0
EXTRACT: note_on channel=0 note=41 velocity=78 time=0
EXTRACT: note_on channel=0 note=53 velocity=78 time=0
EXTRACT: note_off channel=3 note=58 velocity=0 time=0
EXTRACT: note_off channel=3 note=65 velocity=0 time=0
EXTRACT: note_off channel=3 note=69 velocity=0 time=0
EXTRACT: note_on channel=3 note=53 velocity=50 time=0
EXTRACT: note_on channel=3 note=65 velocity=50 time=0
EXTRACT: note_off channel=0 note=57 velocity=0 time=0.365853
EXTRACT: note_on channel=0 note=60 velocity=90 time=0
EXTRACT: note_off channel=0 note=60 velocity=0 time=0.365853
EXTRACT: note_on channel=0 note=60 velocity=90 time=0
EXTRACT: note_on channel=1 note=65 velocity=100 time=0
EXTRACT: note_on channel=1 note=77 velocity=70 time=0
EXTRACT: note_off channel=0 note=60 velocity=0 time=0
EXTRACT: note_on channel=0 note=57 velocity=90 time=0
EXTRACT: note_off channel=1 note=65 velocity=0 time=0.365853
EXTRACT: note_off channel=1 note=77 velocity=0 time=0
EXTRACT: note_on channel=1 note=69 velocity=100 time=0
EXTRACT: note_on channel=1 note=81 velocity=70 time=0
EXTRACT: note_off channel=0 note=57 velocity=0 time=0
EXTRACT: note_on channel=0 note=61 velocity=90 time=0
EXTRACT: note_off channel=0 note=41 velocity=0 time=0
EXTRACT: note_off channel=0 note=53 velocity=0 time=0
EXTRACT: note_on channel=0 note=45 velocity=78 time=0
EXTRACT: note_on channel=0 note=52 velocity=78 time=0
EXTRACT: note_on channel=0 note=57 velocity=78 time=0
EXTRACT: note_off channel=3 note=53 velocity=0 time=0
EXTRACT: note_off channel=3 note=65 velocity=0 time=0
EXTRACT: note_on channel=3 note=57 velocity=50 time=0
EXTRACT: note_on channel=3 note=64 velocity=50 time=0
EXTRACT: note_on channel=3 note=69 velocity=50 time=0
EXTRACT: note_off channel=1 note=69 velocity=0 time=0.365853
EXTRACT: note_off channel=1 note=81 velocity=0 time=0
EXTRACT: note_on channel=1 note=72 velocity=100 time=0
EXTRACT: note_on channel=1 note=84 velocity=70 time=0
EXTRACT: note_off channel=0 note=61 velocity=0 time=0
EXTRACT: note_on channel=0 note=61 velocity=90 time=0
EXTRACT: note_off channel=0 note=45 velocity=0 time=0
EXTRACT: note_off channel=0 note=52 velocity=0 time=0
EXTRACT: note_off channel=0 note=57 velocity=0 time=0
EXTRACT: note_on channel=0 note=45 velocity=78 time=0
EXTRACT: note_on channel=0 note=52 velocity=78 time=0
EXTRACT: note_on channel=0 note=57 velocity=78 time=0
EXTRACT: note_off channel=3 note=57 velocity=0 time=0
EXTRACT: note_off channel=3 note=64 velocity=0 time=0
EXTRACT: note_off channel=3 note=69 velocity=0 time=0
EXTRACT: note_on channel=3 note=57 velocity=50 time=0
EXTRACT: note_on channel=3 note=64 velocity=50 time=0
EXTRACT: note_on channel=3 note=69 velocity=50 time=0
EXTRACT: note_off channel=1 note=72 velocity=0 time=0.365853
EXTRACT: note_off channel=1 note=84 velocity=0 time=0
EXTRACT: note_on channel=1 note=74 velocity=100 time=0
EXTRACT: note_on channel=1 note=86 velocity=70 time=0
EXTRACT: note_off channel=0 note=61 velocity=0 time=0.365853
EXTRACT: note_on channel=0 note=62 velocity=90 time=0
EXTRACT: note_off channel=0 note=45 velocity=0 time=0
EXTRACT: note_off channel=0 note=52 velocity=0 time=0
EXTRACT: note_off channel=0 note=57 velocity=0 time=0
EXTRACT: note_on channel=0 note=50 velocity=78 time=0
EXTRACT: note_on channel=0 note=53 velocity=78 time=0
EXTRACT: note_on channel=0 note=57 velocity=78 time=0
EXTRACT: note_off channel=3 note=57 velocity=0 time=0
EXTRACT: note_off channel=3 note=64 velocity=0 time=0
EXTRACT: note_off channel=3 note=69 velocity=0 time=0
EXTRACT: note_on channel=3 note=62 velocity=50 time=0
EXTRACT: note_on channel=3 note=65 velocity=50 time=0
EXTRACT: note_on channel=3 note=69 velocity=50 time=0
EXTRACT: note_off channel=1 note=74 velocity=0 time=0.1829265
EXTRACT: note_off channel=1 note=86 velocity=0 time=0
EXTRACT: note_on channel=1 note=72 velocity=100 time=0
EXTRACT: note_on channel=1 note=84 velocity=70 time=0
EXTRACT: note_off channel=1 note=72 velocity=0 time=0.1829265
EXTRACT: note_off channel=1 note=84 velocity=0 time=0
EXTRACT: note_on channel=1 note=69 velocity=100 time=0
EXTRACT: note_on channel=1 note=81 velocity=70 time=0
EXTRACT: note_off channel=1 note=69 velocity=0 time=0.5487795
EXTRACT: note_off channel=1 note=81 velocity=0 time=0
EXTRACT: note_on channel=1 note=67 velocity=100 time=0
EXTRACT: note_on channel=1 note=79 velocity=70 time=0
EXTRACT: note_off channel=1 note=67 velocity=0 time=0.1829265
EXTRACT: note_off channel=1 note=79 velocity=0 time=0
EXTRACT: note_on channel=1 note=65 velocity=100 time=0
EXTRACT: note_on channel=1 note=77 velocity=70 time=0
EXTRACT: note_off channel=0 note=62 velocity=0 time=0.365853
EXTRACT: note_on channel=0 note=62 velocity=90 time=0
EXTRACT: note_off channel=0 note=50 velocity=0 time=0
EXTRACT: note_off channel=0 note=53 velocity=0 time=0
EXTRACT: note_off channel=0 note=57 velocity=0 time=0
EXTRACT: note_on channel=0 note=46 velocity=78 time=0
EXTRACT: note_on channel=0 note=53 velocity=78 time=0
EXTRACT: note_on channel=0 note=57 velocity=78 time=0
EXTRACT: note_off channel=3 note=62 velocity=0 time=0
EXTRACT: note_off channel=3 note=65 velocity=0 time=0
EXTRACT: note_off channel=3 note=69 velocity=0 time=0
EXTRACT: note_on channel=3 note=58 velocity=50 time=0
EXTRACT: note_on channel=3 note=65 velocity=50 time=0
EXTRACT: note_on channel=3 note=70 velocity=50 time=0
EXTRACT: note_off channel=1 note=65 velocity=0 time=0.365853
EXTRACT: note_off channel=1 note=77 velocity=0 time=0
EXTRACT: note_on channel=0 note=56 velocity=90 time=1.3978633374999998
EXTRACT: note_off channel=0 note=62 velocity=0 time=0.0655486625
EXTRACT: note_on channel=0 note=57 velocity=90 time=0
EXTRACT: note_off channel=0 note=56 velocity=0 time=0
EXTRACT: note_off channel=0 note=46 velocity=0 time=0
EXTRACT: note_off channel=0 note=53 velocity=0 time=0
EXTRACT: note_off channel=0 note=57 velocity=0 time=0
EXTRACT: note_on channel=0 note=41 velocity=78 time=0
EXTRACT: note_on channel=0 note=53 velocity=78 time=0
EXTRACT: note_off channel=3 note=58 velocity=0 time=0
EXTRACT: note_off channel=3 note=65 velocity=0 time=0
EXTRACT: note_off channel=3 note=70 velocity=0 time=0
EXTRACT: note_on channel=3 note=53 velocity=50 time=0
EXTRACT: note_on channel=3 note=65 velocity=50 time=0
EXTRACT: note_off channel=0 note=57 velocity=0 time=0.365853
EXTRACT: note_on channel=0 note=60 velocity=90 time=0
EXTRACT: note_off channel=0 note=60 velocity=0 time=0.365853
EXTRACT: note_on channel=0 note=60 velocity=90 time=0
EXTRACT: note_on channel=1 note=65 velocity=100 time=0
EXTRACT: note_on channel=1 note=77 velocity=70 time=0
EXTRACT: note_off channel=0 note=60 velocity=0 time=0
EXTRACT: note_on channel=0 note=57 velocity=90 time=0
EXTRACT: note_off channel=1 note=65 velocity=0 time=0.365853
EXTRACT: note_off channel=1 note=77 velocity=0 time=0
EXTRACT: note_on channel=1 note=69 velocity=100 time=0
EXTRACT: note_on channel=1 note=81 velocity=70 time=0
EXTRACT: note_off channel=0 note=57 velocity=0 time=0
EXTRACT: note_on channel=0 note=61 velocity=90 time=0
EXTRACT: note_off channel=0 note=41 velocity=0 time=0
EXTRACT: note_off channel=0 note=53 velocity=0 time=0
EXTRACT: note_on channel=0 note=45 velocity=78 time=0
EXTRACT: note_on channel=0 note=52 velocity=78 time=0
EXTRACT: note_on channel=0 note=57 velocity=78 time=0
EXTRACT: note_off channel=3 note=53 velocity=0 time=0
EXTRACT: note_off channel=3 note=65 velocity=0 time=0
EXTRACT: note_on channel=3 note=57 velocity=50 time=0
EXTRACT: note_on channel=3 note=64 velocity=50 time=0
EXTRACT: note_on channel=3 note=69 velocity=50 time=0
EXTRACT: note_off channel=1 note=69 velocity=0 time=0.365853
EXTRACT: note_off channel=1 note=81 velocity=0 time=0
EXTRACT: note_on channel=1 note=72 velocity=100 time=0
EXTRACT: note_on channel=1 note=84 velocity=70 time=0
EXTRACT: note_off channel=0 note=61 velocity=0 time=0
EXTRACT: note_on channel=0 note=61 velocity=90 time=0
EXTRACT: note_off channel=0 note=45 velocity=0 time=0
EXTRACT: note_off channel=0 note=52 velocity=0 time=0
EXTRACT: note_off channel=0 note=57 velocity=0 time=0
EXTRACT: note_on channel=0 note=45 velocity=78 time=0
EXTRACT: note_on channel=0 note=52 velocity=78 time=0
EXTRACT: note_on channel=0 note=57 velocity=78 time=0
EXTRACT: note_off channel=3 note=57 velocity=0 time=0
EXTRACT: note_off channel=3 note=64 velocity=0 time=0
EXTRACT: note_off channel=3 note=69 velocity=0 time=0
EXTRACT: note_on channel=3 note=57 velocity=50 time=0
EXTRACT: note_on channel=3 note=64 velocity=50 time=0
EXTRACT: note_on channel=3 note=69 velocity=50 time=0
EXTRACT: note_off channel=1 note=72 velocity=0 time=0.365853
EXTRACT: note_off channel=1 note=84 velocity=0 time=0
EXTRACT: note_on channel=1 note=74 velocity=100 time=0
EXTRACT: note_on channel=1 note=86 velocity=70 time=0
EXTRACT: note_off channel=1 note=74 velocity=0 time=0.365853
EXTRACT: note_off channel=1 note=86 velocity=0 time=0
EXTRACT: note_on channel=1 note=72 velocity=100 time=0
EXTRACT: note_on channel=1 note=84 velocity=70 time=0
EXTRACT: note_off channel=0 note=61 velocity=0 time=0
EXTRACT: note_on channel=0 note=62 velocity=90 time=0
EXTRACT: note_off channel=0 note=45 velocity=0 time=0
EXTRACT: note_off channel=0 note=52 velocity=0 time=0
EXTRACT: note_off channel=0 note=57 velocity=0 time=0
EXTRACT: note_on channel=0 note=50 velocity=78 time=0
EXTRACT: note_on channel=0 note=53 velocity=78 time=0
EXTRACT: note_on channel=0 note=57 velocity=78 time=0
EXTRACT: note_off channel=3 note=57 velocity=0 time=0
EXTRACT: note_off channel=3 note=64 velocity=0 time=0
EXTRACT: note_off channel=3 note=69 velocity=0 time=0
EXTRACT: note_on channel=3 note=62 velocity=50 time=0
EXTRACT: note_on channel=3 note=65 velocity=50 time=0
EXTRACT: note_on channel=3 note=69 velocity=50 time=0
EXTRACT: note_off channel=1 note=72 velocity=0 time=0.365853
EXTRACT: note_off channel=1 note=84 velocity=0 time=0
EXTRACT: note_on channel=1 note=69 velocity=100 time=0
EXTRACT: note_on channel=1 note=81 velocity=70 time=0
EXTRACT: note_off channel=1 note=69 velocity=0 time=0.731706
EXTRACT: note_off channel=1 note=81 velocity=0 time=0
EXTRACT: note_off channel=0 note=62 velocity=0 time=0.365853
EXTRACT: note_on channel=0 note=62 velocity=90 time=0
EXTRACT: note_off channel=0 note=50 velocity=0 time=0
EXTRACT: note_off channel=0 note=53 velocity=0 time=0
EXTRACT: note_off channel=0 note=57 velocity=0 time=0
EXTRACT: note_on channel=0 note=46 velocity=78 time=0
EXTRACT: note_on channel=0 note=53 velocity=78 time=0
EXTRACT: note_on channel=0 note=57 velocity=78 time=0
EXTRACT: note_off channel=3 note=62 velocity=0 time=0
EXTRACT: note_off channel=3 note=65 velocity=0 time=0
EXTRACT: note_off channel=3 note=69 velocity=0 time=0
EXTRACT: note_on channel=3 note=58 velocity=50 time=0
EXTRACT: note_on channel=3 note=65 velocity=50 time=0
EXTRACT: note_on channel=3 note=70 velocity=50 time=0
EXTRACT: note_on channel=0 note=56 velocity=90 time=1.7637163374999998
EXTRACT: note_off channel=0 note=62 velocity=0 time=0.0655486625
EXTRACT: note_on channel=0 note=57 velocity=90 time=0
EXTRACT: note_off channel=0 note=56 velocity=0 time=0
EXTRACT: note_off channel=0 note=46 velocity=0 time=0
EXTRACT: note_off channel=0 note=53 velocity=0 time=0
EXTRACT: note_off channel=0 note=57 velocity=0 time=0
EXTRACT: note_on channel=0 note=41 velocity=78 time=0
EXTRACT: note_on channel=0 note=53 velocity=78 time=0
EXTRACT: note_off channel=3 note=58 velocity=0 time=0
EXTRACT: note_off channel=3 note=65 velocity=0 time=0
EXTRACT: note_off channel=3 note=70 velocity=0 time=0
EXTRACT: note_on channel=3 note=53 velocity=50 time=0
EXTRACT: note_on channel=3 note=65 velocity=50 time=0
EXTRACT: note_off channel=0 note=57 velocity=0 time=0.365853
EXTRACT: note_on channel=0 note=60 velocity=90 time=0
EXTRACT: note_on channel=1 note=65 velocity=100 time=0
EXTRACT: note_on channel=1 note=77 velocity=70 time=0
EXTRACT: note_off channel=0 note=60 velocity=0 time=0
EXTRACT: note_on channel=0 note=60 velocity=90 time=0
EXTRACT: note_off channel=1 note=65 velocity=0 time=0.365853
EXTRACT: note_off channel=1 note=77 velocity=0 time=0
EXTRACT: note_on channel=1 note=65 velocity=100 time=0
EXTRACT: note_on channel=1 note=77 velocity=70 time=0
EXTRACT: note_off channel=0 note=60 velocity=0 time=0
EXTRACT: note_on channel=0 note=57 velocity=90 time=0
EXTRACT: note_off channel=1 note=65 velocity=0 time=0.365853
EXTRACT: note_off channel=1 note=77 velocity=0 time=0
EXTRACT: note_on channel=1 note=69 velocity=100 time=0
EXTRACT: note_on channel=1 note=81 velocity=70 time=0
EXTRACT: note_off channel=0 note=57 velocity=0 time=0
EXTRACT: note_on channel=0 note=61 velocity=90 time=0
EXTRACT: note_off channel=0 note=41 velocity=0 time=0
EXTRACT: note_off channel=0 note=53 velocity=0 time=0
EXTRACT: note_on channel=0 note=45 velocity=78 time=0
EXTRACT: note_on channel=0 note=52 velocity=78 time=0
EXTRACT: note_on channel=0 note=57 velocity=78 time=0
EXTRACT: note_off channel=3 note=53 velocity=0 time=0
EXTRACT: note_off channel=3 note=65 velocity=0 time=0
EXTRACT: note_on channel=3 note=57 velocity=50 time=0
EXTRACT: note_on channel=3 note=64 velocity=50 time=0
EXTRACT: note_on channel=3 note=69 velocity=50 time=0
EXTRACT: note_off channel=1 note=69 velocity=0 time=0.365853
EXTRACT: note_off channel=1 note=81 velocity=0 time=0
EXTRACT: note_on channel=1 note=72 velocity=100 time=0
EXTRACT: note_on channel=1 note=84 velocity=70 time=0
EXTRACT: note_off channel=0 note=61 velocity=0 time=0
EXTRACT: note_on channel=0 note=61 velocity=90 time=0
EXTRACT: note_off channel=0 note=45 velocity=0 time=0
EXTRACT: note_off channel=0 note=52 velocity=0 time=0
EXTRACT: note_off channel=0 note=57 velocity=0 time=0
EXTRACT: note_on channel=0 note=45 velocity=78 time=0
EXTRACT: note_on channel=0 note=52 velocity=78 time=0
EXTRACT: note_on channel=0 note=57 velocity=78 time=0
EXTRACT: note_off channel=3 note=57 velocity=0 time=0
EXTRACT: note_off channel=3 note=64 velocity=0 time=0
EXTRACT: note_off channel=3 note=69 velocity=0 time=0
EXTRACT: note_on channel=3 note=57 velocity=50 time=0
EXTRACT: note_on channel=3 note=64 velocity=50 time=0
EXTRACT: note_on channel=3 note=69 velocity=50 time=0
EXTRACT: note_off channel=1 note=72 velocity=0 time=0.365853
EXTRACT: note_off channel=1 note=84 velocity=0 time=0
EXTRACT: note_on channel=1 note=74 velocity=100 time=0
EXTRACT: note_on channel=1 note=86 velocity=70 time=0
EXTRACT: note_off channel=1 note=74 velocity=0 time=0.365853
EXTRACT: note_off channel=1 note=86 velocity=0 time=0
EXTRACT: note_on channel=1 note=72 velocity=100 time=0
EXTRACT: note_on channel=1 note=84 velocity=70 time=0
EXTRACT: note_off channel=0 note=61 velocity=0 time=0
EXTRACT: note_on channel=0 note=62 velocity=90 time=0
EXTRACT: note_off channel=0 note=45 velocity=0 time=0
EXTRACT: note_off channel=0 note=52 velocity=0 time=0
EXTRACT: note_off channel=0 note=57 velocity=0 time=0
EXTRACT: note_on channel=0 note=50 velocity=78 time=0
EXTRACT: note_on channel=0 note=53 velocity=78 time=0
EXTRACT: note_on channel=0 note=57 velocity=78 time=0
EXTRACT: note_off channel=3 note=57 velocity=0 time=0
EXTRACT: note_off channel=3 note=64 velocity=0 time=0
EXTRACT: note_off channel=3 note=69 velocity=0 time=0
EXTRACT: note_on channel=3 note=62 velocity=50 time=0
EXTRACT: note_on channel=3 note=65 velocity=50 time=0
EXTRACT: note_on channel=3 note=69 velocity=50 time=0
EXTRACT: note_off channel=1 note=72 velocity=0 time=0.365853
EXTRACT: note_off channel=1 note=84 velocity=0 time=0
EXTRACT: note_on channel=1 note=69 velocity=100 time=0
EXTRACT: note_on channel=1 note=81 velocity=70 time=0
EXTRACT: note_off channel=1 note=69 velocity=0 time=0.5487795
EXTRACT: note_off channel=1 note=81 velocity=0 time=0
EXTRACT: note_on channel=1 note=67 velocity=100 time=0
EXTRACT: note_on channel=1 note=79 velocity=70 time=0
EXTRACT: note_off channel=1 note=67 velocity=0 time=0.1829265
EXTRACT: note_off channel=1 note=79 velocity=0 time=0
EXTRACT: note_on channel=1 note=65 velocity=100 time=0
EXTRACT: note_on channel=1 note=77 velocity=70 time=0
EXTRACT: note_off channel=0 note=62 velocity=0 time=0.365853
EXTRACT: note_on channel=0 note=62 velocity=90 time=0
EXTRACT: note_off channel=0 note=50 velocity=0 time=0
EXTRACT: note_off channel=0 note=53 velocity=0 time=0
EXTRACT: note_off channel=0 note=57 velocity=0 time=0
EXTRACT: note_on channel=0 note=46 velocity=78 time=0
EXTRACT: note_on channel=0 note=53 velocity=78 time=0
EXTRACT: note_on channel=0 note=58 velocity=78 time=0
EXTRACT: note_off channel=3 note=62 velocity=0 time=0
EXTRACT: note_off channel=3 note=65 velocity=0 time=0
EXTRACT: note_off channel=3 note=69 velocity=0 time=0
EXTRACT: note_on channel=3 note=58 velocity=50 time=0
EXTRACT: note_on channel=3 note=65 velocity=50 time=0
EXTRACT: note_on channel=3 note=70 velocity=50 time=0
EXTRACT: note_off channel=1 note=65 velocity=0 time=0.365853
EXTRACT: note_off channel=1 note=77 velocity=0 time=0
EXTRACT: note_on channel=1 note=65 velocity=100 time=0
EXTRACT: note_on channel=1 note=77 velocity=70 time=0
EXTRACT: note_off channel=1 note=65 velocity=0 time=0.1829265
EXTRACT: note_off channel=1 note=77 velocity=0 time=0
EXTRACT: note_on channel=1 note=67 velocity=100 time=0
EXTRACT: note_on channel=1 note=79 velocity=70 time=0
EXTRACT: note_off channel=1 note=67 velocity=0 time=0.1829265
EXTRACT: note_off channel=1 note=79 velocity=0 time=0
EXTRACT: note_on channel=1 note=69 velocity=100 time=0
EXTRACT: note_on channel=1 note=81 velocity=70 time=0
EXTRACT: note_on channel=0 note=56 velocity=90 time=0.30030433749999996
EXTRACT: note_off channel=0 note=62 velocity=0 time=0.0655486625
EXTRACT: note_on channel=0 note=57 velocity=90 time=0
EXTRACT: note_off channel=0 note=56 velocity=0 time=0
EXTRACT: note_off channel=0 note=46 velocity=0 time=0
EXTRACT: note_off channel=0 note=53 velocity=0 time=0
EXTRACT: note_off channel=0 note=58 velocity=0 time=0
EXTRACT: note_on channel=0 note=41 velocity=78 time=0
EXTRACT: note_on channel=0 note=53 velocity=78 time=0
EXTRACT: note_off channel=3 note=58 velocity=0 time=0
EXTRACT: note_off channel=3 note=65 velocity=0 time=0
EXTRACT: note_off channel=3 note=70 velocity=0 time=0
EXTRACT: note_on channel=3 note=53 velocity=50 time=0
EXTRACT: note_on channel=3 note=65 velocity=50 time=0
EXTRACT: note_off channel=0 note=57 velocity=0 time=0.365853
EXTRACT: note_on channel=0 note=60 velocity=90 time=0
EXTRACT: note_off channel=1 note=69 velocity=0 time=0.365853
EXTRACT: note_off channel=1 note=81 velocity=0 time=0
EXTRACT: note_on channel=1 note=65 velocity=100 time=0
EXTRACT: note_on channel=1 note=77 velocity=70 time=0
EXTRACT: note_off channel=0 note=60 velocity=0 time=0
EXTRACT: note_on channel=0 note=60 velocity=90 time=0
EXTRACT: note_on channel=1 note=67 velocity=100 time=0.1829265
EXTRACT: note_on channel=1 note=79 velocity=70 time=0
EXTRACT: note_off channel=1 note=65 velocity=0 time=0.0030487749999999997
EXTRACT: note_off channel=1 note=77 velocity=0 time=0
EXTRACT: note_off channel=1 note=67 velocity=0 time=0.16844481874999997
EXTRACT: note_off channel=1 note=79 velocity=0 time=0
EXTRACT: note_on channel=1 note=65 velocity=100 time=0
EXTRACT: note_on channel=1 note=77 velocity=70 time=0
EXTRACT: note_off channel=0 note=60 velocity=0 time=0
EXTRACT: note_on channel=0 note=57 velocity=90 time=0
EXTRACT: note_off channel=0 note=57 velocity=0 time=0.365853
EXTRACT: note_on channel=0 note=60 velocity=90 time=0
EXTRACT: note_off channel=0 note=41 velocity=0 time=0
EXTRACT: note_off channel=0 note=53 velocity=0 time=0
EXTRACT: note_on channel=0 note=48 velocity=78 time=0
EXTRACT: note_on channel=0 note=52 velocity=78 time=0
EXTRACT: note_on channel=0 note=55 velocity=78 time=0
EXTRACT: note_off channel=3 note=53 velocity=0 time=0
EXTRACT: note_off channel=3 note=65 velocity=0 time=0
EXTRACT: note_on channel=3 note=60 velocity=50 time=0
EXTRACT: note_on channel=3 note=64 velocity=50 time=0
EXTRACT: note_on channel=3 note=67 velocity=50 time=0
EXTRACT: note_off channel=1 note=65 velocity=0 time=0.365853
EXTRACT: note_off channel=1 note=77 velocity=0 time=0
EXTRACT: note_on channel=1 note=65 velocity=100 time=0
EXTRACT: note_on channel=1 note=77 velocity=70 time=0
EXTRACT: note_off channel=0 note=60 velocity=0 time=0
EXTRACT: note_on channel=0 note=60 velocity=90 time=0
EXTRACT: note_off channel=0 note=48 velocity=0 time=0
EXTRACT: note_off channel=0 note=52 velocity=0 time=0
EXTRACT: note_off channel=0 note=55 velocity=0 time=0
EXTRACT: note_on channel=0 note=48 velocity=78 time=0
EXTRACT: note_on channel=0 note=52 velocity=78 time=0
EXTRACT: note_on channel=0 note=55 velocity=78 time=0
EXTRACT: note_off channel=3 note=60 velocity=0 time=0
EXTRACT: note_off channel=3 note=64 velocity=0 time=0
EXTRACT: note_off channel=3 note=67 velocity=0 time=0
EXTRACT: note_on channel=3 note=60 velocity=50 time=0
EXTRACT: note_on channel=3 note=64 velocity=50 time=0
EXTRACT: note_on channel=3 note=67 velocity=50 time=0
EXTRACT: note_off channel=1 note=65 velocity=0 time=0.365853
EXTRACT: note_off channel=1 note=77 velocity=0 time=0
EXTRACT: note_on channel=1 note=67 velocity=100 time=0
EXTRACT: note_on channel=1 note=79 velocity=70 time=0
EXTRACT: note_off channel=1 note=67 velocity=0 time=0.365853
EXTRACT: note_off channel=1 note=79 velocity=0 time=0
EXTRACT: note_on channel=1 note=65 velocity=100 time=0
EXTRACT: note_on channel=1 note=77 velocity=70 time=0
EXTRACT: note_off channel=0 note=60 velocity=0 time=0
EXTRACT: note_on channel=0 note=57 velocity=90 time=0
EXTRACT: note_off channel=0 note=48 velocity=0 time=0
EXTRACT: note_off channel=0 note=52 velocity=0 time=0
EXTRACT: note_off channel=0 note=55 velocity=0 time=0
EXTRACT: note_on channel=0 note=41 velocity=78 time=0
EXTRACT: note_on channel=0 note=48 velocity=78 time=0
EXTRACT: note_on channel=0 note=53 velocity=78 time=0
EXTRACT: note_off channel=3 note=60 velocity=0 time=0
EXTRACT: note_off channel=3 note=64 velocity=0 time=0
EXTRACT: note_off channel=3 note=67 velocity=0 time=0
EXTRACT: note_on channel=3 note=53 velocity=50 time=0
EXTRACT: note_on channel=3 note=60 velocity=50 time=0
EXTRACT: note_on channel=3 note=65 velocity=50 time=0
EXTRACT: note_off channel=1 note=65 velocity=0 time=1.097559
EXTRACT: note_off channel=1 note=77 velocity=0 time=0
EXTRACT: note_on channel=1 note=65 velocity=100 time=0
EXTRACT: note_on channel=1 note=77 velocity=70 time=0
EXTRACT: note_on channel=0 note=56 velocity=90 time=0.6661573375
EXTRACT: note_off channel=1 note=65 velocity=0 time=0.0655486625
EXTRACT: note_off channel=1 note=77 velocity=0 time=0
EXTRACT: note_on channel=1 note=69 velocity=100 time=0
EXTRACT: note_on channel=1 note=81 velocity=70 time=0
EXTRACT: note_off channel=0 note=57 velocity=0 time=0
EXTRACT: note_on channel=0 note=57 velocity=90 time=0
EXTRACT: note_off channel=0 note=56 velocity=0 time=0
EXTRACT: note_off channel=0 note=41 velocity=0 time=0
EXTRACT: note_off channel=0 note=48 velocity=0 time=0
EXTRACT: note_off channel=0 note=53 velocity=0 time=0
EXTRACT: note_on channel=0 note=41 velocity=78 time=0
EXTRACT: note_on channel=0 note=53 velocity=78 time=0
EXTRACT: note_off channel=3 note=53 velocity=0 time=0
EXTRACT: note_off channel=3 note=60 velocity=0 time=0
EXTRACT: note_off channel=3 note=65 velocity=0 time=0
EXTRACT: note_on channel=3 note=53 velocity=50 time=0
EXTRACT: note_on channel=3 note=65 velocity=50 time=0
EXTRACT: note_off channel=0 note=57 velocity=0 time=0.365853
EXTRACT: note_on channel=0 note=60 velocity=90 time=0
EXTRACT: note_off channel=0 note=60 velocity=0 time=0.365853
EXTRACT: note_on channel=0 note=60 velocity=90 time=0
EXTRACT: note_off channel=0 note=60 velocity=0 time=0.365853
EXTRACT: note_on channel=0 note=57 velocity=90 time=0
EXTRACT: note_off channel=0 note=57 velocity=0 time=0.365853
EXTRACT: note_on channel=0 note=61 velocity=90 time=0
EXTRACT: note_off channel=0 note=41 velocity=0 time=0
EXTRACT: note_off channel=0 note=53 velocity=0 time=0
EXTRACT: note_on channel=0 note=45 velocity=78 time=0
EXTRACT: note_on channel=0 note=52 velocity=78 time=0
EXTRACT: note_on channel=0 note=57 velocity=78 time=0
EXTRACT: note_off channel=3 note=53 velocity=0 time=0
EXTRACT: note_off channel=3 note=65 velocity=0 time=0
EXTRACT: note_on channel=3 note=57 velocity=50 time=0
EXTRACT: note_on channel=3 note=64 velocity=50 time=0
EXTRACT: note_on channel=3 note=69 velocity=50 time=0
EXTRACT: note_off channel=1 note=69 velocity=0 time=0.365853
EXTRACT: note_off channel=1 note=81 velocity=0 time=0
EXTRACT: note_on channel=1 note=69 velocity=100 time=0
EXTRACT: note_on channel=1 note=81 velocity=70 time=0
EXTRACT: note_off channel=0 note=61 velocity=0 time=0
EXTRACT: note_on channel=0 note=61 velocity=90 time=0
EXTRACT: note_off channel=0 note=45 velocity=0 time=0
EXTRACT: note_off channel=0 note=52 velocity=0 time=0
EXTRACT: note_off channel=0 note=57 velocity=0 time=0
EXTRACT: note_on channel=0 note=45 velocity=78 time=0
EXTRACT: note_on channel=0 note=52 velocity=78 time=0
EXTRACT: note_on channel=0 note=57 velocity=78 time=0
EXTRACT: note_off channel=3 note=57 velocity=0 time=0
EXTRACT: note_off channel=3 note=64 velocity=0 time=0
EXTRACT: note_off channel=3 note=69 velocity=0 time=0
EXTRACT: note_on channel=3 note=57 velocity=50 time=0
EXTRACT: note_on channel=3 note=64 velocity=50 time=0
EXTRACT: note_on channel=3 note=69 velocity=50 time=0
EXTRACT: note_off channel=1 note=69 velocity=0 time=0.731706
EXTRACT: note_off channel=1 note=81 velocity=0 time=0
EXTRACT: note_on channel=1 note=69 velocity=100 time=0
EXTRACT: note_on channel=1 note=81 velocity=70 time=0
EXTRACT: note_off channel=0 note=61 velocity=0 time=0
EXTRACT: note_on channel=0 note=62 velocity=90 time=0
EXTRACT: note_off channel=0 note=45 velocity=0 time=0
EXTRACT: note_off channel=0 note=52 velocity=0 time=0
EXTRACT: note_off channel=0 note=57 velocity=0 time=0
EXTRACT: note_on channel=0 note=50 velocity=78 time=0
EXTRACT: note_on channel=0 note=53 velocity=78 time=0
EXTRACT: note_on channel=0 note=57 velocity=78 time=0
EXTRACT: note_off channel=3 note=57 velocity=0 time=0
EXTRACT: note_off channel=3 note=64 velocity=0 time=0
EXTRACT: note_off channel=3 note=69 velocity=0 time=0
EXTRACT: note_on channel=3 note=62 velocity=50 time=0
EXTRACT: note_on channel=3 note=65 velocity=50 time=0
EXTRACT: note_on channel=3 note=69 velocity=50 time=0
EXTRACT: note_off channel=1 note=69 velocity=0 time=0.12042661249999999
EXTRACT: note_off channel=1 note=81 velocity=0 time=0
EXTRACT: note_on channel=1 note=65 velocity=100 time=0
EXTRACT: note_on channel=1 note=77 velocity=70 time=0
EXTRACT: note_off channel=1 note=65 velocity=0 time=0.12271319374999999
EXTRACT: note_off channel=1 note=77 velocity=0 time=0
EXTRACT: note_on channel=1 note=64 velocity=100 time=0
EXTRACT: note_on channel=1 note=76 velocity=70 time=0
EXTRACT: note_off channel=1 note=64 velocity=0 time=0.11432906249999998
EXTRACT: note_off channel=1 note=76 velocity=0 time=0
EXTRACT: note_on channel=1 note=62 velocity=100 time=0
EXTRACT: note_on channel=1 note=74 velocity=70 time=0
EXTRACT: note_off channel=1 note=62 velocity=0 time=0.731706
EXTRACT: note_off channel=1 note=74 velocity=0 time=0
EXTRACT: note_off channel=0 note=62 velocity=0 time=0.365853
EXTRACT: note_on channel=0 note=62 velocity=90 time=0
EXTRACT: note_off channel=0 note=50 velocity=0 time=0
EXTRACT: note_off channel=0 note=53 velocity=0 time=0
EXTRACT: note_off channel=0 note=57 velocity=0 time=0
EXTRACT: note_on channel=0 note=46 velocity=78 time=0
EXTRACT: note_on channel=0 note=53 velocity=78 time=0
EXTRACT: note_on channel=0 note=57 velocity=78 time=0
EXTRACT: note_off channel=3 note=62 velocity=0 time=0
EXTRACT: note_off channel=3 note=65 velocity=0 time=0
EXTRACT: note_off channel=3 note=69 velocity=0 time=0
EXTRACT: note_on channel=3 note=58 velocity=50 time=0
EXTRACT: note_on channel=3 note=65 velocity=50 time=0
EXTRACT: note_on channel=3 note=70 velocity=50 time=0
EXTRACT: note_on channel=1 note=60 velocity=100 time=0
EXTRACT: note_on channel=1 note=72 velocity=70 time=0
EXTRACT: note_on channel=0 note=56 velocity=90 time=0.30030433749999996
EXTRACT: note_off channel=1 note=60 velocity=0 time=0.0655486625
EXTRACT: note_off channel=1 note=72 velocity=0 time=0
EXTRACT: note_on channel=1 note=65 velocity=100 time=0
EXTRACT: note_on channel=1 note=77 velocity=70 time=0
EXTRACT: note_off channel=0 note=62 velocity=0 time=0
EXTRACT: note_on channel=0 note=57 velocity=90 time=0
EXTRACT: note_off channel=0 note=56 velocity=0 time=0
EXTRACT: note_off channel=0 note=46 velocity=0 time=0
EXTRACT: note_off channel=0 note=53 velocity=0 time=0
EXTRACT: note_off channel=0 note=57 velocity=0 time=0
EXTRACT: note_on channel=0 note=41 velocity=78 time=0
EXTRACT: note_on channel=0 note=53 velocity=78 time=0
EXTRACT: note_off channel=3 note=58 velocity=0 time=0
EXTRACT: note_off channel=3 note=65 velocity=0 time=0
EXTRACT: note_off channel=3 note=70 velocity=0 time=0
EXTRACT: note_on channel=3 note=53 velocity=50 time=0
EXTRACT: note_on channel=3 note=65 velocity=50 time=0
EXTRACT: note_off channel=1 note=65 velocity=0 time=0.365853
EXTRACT: note_off channel=1 note=77 velocity=0 time=0
EXTRACT: note_on channel=1 note=65 velocity=100 time=0
EXTRACT: note_on channel=1 note=77 velocity=70 time=0
EXTRACT: note_off channel=0 note=57 velocity=0 time=0
EXTRACT: note_on channel=0 note=60 velocity=90 time=0
EXTRACT: note_off channel=1 note=65 velocity=0 time=0.365853
EXTRACT: note_off channel=1 note=77 velocity=0 time=0
EXTRACT: note_on channel=1 note=65 velocity=100 time=0
EXTRACT: note_on channel=1 note=77 velocity=70 time=0
EXTRACT: note_off channel=0 note=60 velocity=0 time=0
EXTRACT: note_on channel=0 note=60 velocity=90 time=0
EXTRACT: note_off channel=1 note=65 velocity=0 time=0.365853
EXTRACT: note_off channel=1 note=77 velocity=0 time=0
EXTRACT: note_on channel=1 note=65 velocity=100 time=0
EXTRACT: note_on channel=1 note=77 velocity=70 time=0
EXTRACT: note_off channel=0 note=60 velocity=0 time=0
EXTRACT: note_on channel=0 note=57 velocity=90 time=0
EXTRACT: note_off channel=1 note=65 velocity=0 time=0.365853
EXTRACT: note_off channel=1 note=77 velocity=0 time=0
EXTRACT: note_on channel=1 note=64 velocity=100 time=0
EXTRACT: note_on channel=1 note=76 velocity=70 time=0
EXTRACT: note_off channel=0 note=57 velocity=0 time=0
EXTRACT: note_on channel=0 note=61 velocity=90 time=0
EXTRACT: note_off channel=0 note=41 velocity=0 time=0
EXTRACT: note_off channel=0 note=53 velocity=0 time=0
EXTRACT: note_on channel=0 note=45 velocity=78 time=0
EXTRACT: note_on channel=0 note=52 velocity=78 time=0
EXTRACT: note_on channel=0 note=57 velocity=78 time=0
EXTRACT: note_off channel=3 note=53 velocity=0 time=0
EXTRACT: note_off channel=3 note=65 velocity=0 time=0
EXTRACT: note_on channel=3 note=57 velocity=50 time=0
EXTRACT: note_on channel=3 note=64 velocity=50 time=0
EXTRACT: note_on channel=3 note=69 velocity=50 time=0
EXTRACT: note_off channel=1 note=64 velocity=0 time=0.365853
EXTRACT: note_off channel=1 note=76 velocity=0 time=0
EXTRACT: note_on channel=1 note=64 velocity=100 time=0
EXTRACT: note_on channel=1 note=76 velocity=70 time=0
EXTRACT: note_off channel=0 note=61 velocity=0 time=0
EXTRACT: note_on channel=0 note=61 velocity=90 time=0
EXTRACT: note_off channel=0 note=45 velocity=0 time=0
EXTRACT: note_off channel=0 note=52 velocity=0 time=0
EXTRACT: note_off channel=0 note=57 velocity=0 time=0
EXTRACT: note_on channel=0 note=45 velocity=78 time=0
EXTRACT: note_on channel=0 note=52 velocity=78 time=0
EXTRACT: note_on channel=0 note=57 velocity=78 time=0
EXTRACT: note_off channel=3 note=57 velocity=0 time=0
EXTRACT: note_off channel=3 note=64 velocity=0 time=0
EXTRACT: note_off channel=3 note=69 velocity=0 time=0
EXTRACT: note_on channel=3 note=57 velocity=50 time=0
EXTRACT: note_on channel=3 note=64 velocity=50 time=0
EXTRACT: note_on channel=3 note=69 velocity=50 time=0
EXTRACT: note_off channel=1 note=64 velocity=0 time=0.365853
EXTRACT: note_off channel=1 note=76 velocity=0 time=0
EXTRACT: note_on channel=1 note=64 velocity=100 time=0
EXTRACT: note_on channel=1 note=76 velocity=70 time=0
EXTRACT: note_off channel=1 note=64 velocity=0 time=0.365853
EXTRACT: note_off channel=1 note=76 velocity=0 time=0
EXTRACT: note_on channel=1 note=65 velocity=100 time=0
EXTRACT: note_on channel=1 note=77 velocity=70 time=0
EXTRACT: note_off channel=0 note=61 velocity=0 time=0
EXTRACT: note_on channel=0 note=62 velocity=90 time=0
EXTRACT: note_off channel=0 note=45 velocity=0 time=0
EXTRACT: note_off channel=0 note=52 velocity=0 time=0
EXTRACT: note_off channel=0 note=57 velocity=0 time=0
EXTRACT: note_on channel=0 note=50 velocity=78 time=0
EXTRACT: note_on channel=0 note=53 velocity=78 time=0
EXTRACT: note_on channel=0 note=57 velocity=78 time=0
EXTRACT: note_off channel=3 note=57 velocity=0 time=0
EXTRACT: note_off channel=3 note=64 velocity=0 time=0
EXTRACT: note_off channel=3 note=69 velocity=0 time=0
EXTRACT: note_on channel=3 note=62 velocity=50 time=0
EXTRACT: note_on channel=3 note=65 velocity=50 time=0
EXTRACT: note_on channel=3 note=69 velocity=50 time=0
EXTRACT: note_on channel=1 note=64 velocity=100 time=0.1829265
EXTRACT: note_on channel=1 note=76 velocity=70 time=0
EXTRACT: note_off channel=1 note=65 velocity=0 time=0.0030487749999999997
EXTRACT: note_off channel=1 note=77 velocity=0 time=0
EXTRACT: note_on channel=1 note=62 velocity=100 time=0.179877725
EXTRACT: note_on channel=1 note=74 velocity=70 time=0
EXTRACT: note_off channel=1 note=64 velocity=0 time=0.0030487749999999997
EXTRACT: note_off channel=1 note=76 velocity=0 time=0
EXTRACT: note_off channel=1 note=62 velocity=0 time=0.69130973125
EXTRACT: note_off channel=1 note=74 velocity=0 time=0
EXTRACT: note_off channel=0 note=62 velocity=0 time=0.40320049374999994
EXTRACT: note_on channel=0 note=62 velocity=90 time=0
EXTRACT: note_off channel=0 note=50 velocity=0 time=0
EXTRACT: note_off channel=0 note=53 velocity=0 time=0
EXTRACT: note_off channel=0 note=57 velocity=0 time=0
EXTRACT: note_on channel=0 note=46 velocity=78 time=0
EXTRACT: note_on channel=0 note=53 velocity=78 time=0
EXTRACT: note_on channel=0 note=57 velocity=78 time=0
EXTRACT: note_off channel=3 note=62 velocity=0 time=0
EXTRACT: note_off channel=3 note=65 velocity=0 time=0
EXTRACT: note_off channel=3 note=69 velocity=0 time=0
EXTRACT: note_on channel=3 note=58 velocity=50 time=0
EXTRACT: note_on channel=3 note=65 velocity=50 time=0
EXTRACT: note_on channel=3 note=70 velocity=50 time=0
EXTRACT: note_on channel=1 note=60 velocity=100 time=0
EXTRACT: note_on channel=1 note=72 velocity=70 time=0
EXTRACT: note_on channel=0 note=56 velocity=90 time=0.6661573375
EXTRACT: note_off channel=1 note=60 velocity=0 time=0.0655486625
EXTRACT: note_off channel=1 note=72 velocity=0 time=0
EXTRACT: note_on channel=1 note=69 velocity=100 time=0
EXTRACT: note_on channel=1 note=81 velocity=70 time=0
EXTRACT: note_off channel=0 note=62 velocity=0 time=0
EXTRACT: note_on channel=0 note=57 velocity=90 time=0
EXTRACT: note_off channel=0 note=56 velocity=0 time=0
EXTRACT: note_off channel=0 note=46 velocity=0 time=0
EXTRACT: note_off channel=0 note=53 velocity=0 time=0
EXTRACT: note_off channel=0 note=57 velocity=0 time=0
EXTRACT: note_on channel=0 note=41 velocity=78 time=0
EXTRACT: note_on channel=0 note=53 velocity=78 time=0
EXTRACT: note_off channel=3 note=58 velocity=0 time=0
EXTRACT: note_off channel=3 note=65 velocity=0 time=0
EXTRACT: note_off channel=3 note=70 velocity=0 time=0
EXTRACT: note_on channel=3 note=53 velocity=50 time=0
EXTRACT: note_on channel=3 note=65 velocity=50 time=0
EXTRACT: note_off channel=0 note=57 velocity=0 time=0.365853
EXTRACT: note_on channel=0 note=60 velocity=90 time=0
EXTRACT: note_off channel=1 note=69 velocity=0 time=0.365853
EXTRACT: note_off channel=1 note=81 velocity=0 time=0
EXTRACT: note_off channel=0 note=60 velocity=0 time=0
EXTRACT: note_on channel=0 note=60 velocity=90 time=0
EXTRACT: note_off channel=0 note=60 velocity=0 time=0.365853
EXTRACT: note_on channel=0 note=57 velocity=90 time=0
EXTRACT: note_off channel=0 note=57 velocity=0 time=0.365853
EXTRACT: note_on channel=0 note=61 velocity=90 time=0
EXTRACT: note_off channel=0 note=41 velocity=0 time=0
EXTRACT: note_off channel=0 note=53 velocity=0 time=0
EXTRACT: note_on channel=0 note=45 velocity=78 time=0
EXTRACT: note_on channel=0 note=52 velocity=78 time=0
EXTRACT: note_on channel=0 note=57 velocity=78 time=0
EXTRACT: note_off channel=3 note=53 velocity=0 time=0
EXTRACT: note_off channel=3 note=65 velocity=0 time=0
EXTRACT: note_on channel=3 note=57 velocity=50 time=0
EXTRACT: note_on channel=3 note=64 velocity=50 time=0
EXTRACT: note_on channel=3 note=69 velocity=50 time=0
EXTRACT: note_off channel=0 note=61 velocity=0 time=0.365853
EXTRACT: note_on channel=0 note=61 velocity=90 time=0
EXTRACT: note_off channel=0 note=45 velocity=0 time=0
EXTRACT: note_off channel=0 note=52 velocity=0 time=0
EXTRACT: note_off channel=0 note=57 velocity=0 time=0
EXTRACT: note_on channel=0 note=45 velocity=78 time=0
EXTRACT: note_on channel=0 note=52 velocity=78 time=0
EXTRACT: note_on channel=0 note=57 velocity=78 time=0
EXTRACT: note_off channel=3 note=57 velocity=0 time=0
EXTRACT: note_off channel=3 note=64 velocity=0 time=0
EXTRACT: note_off channel=3 note=69 velocity=0 time=0
EXTRACT: note_on channel=3 note=57 velocity=50 time=0
EXTRACT: note_on channel=3 note=64 velocity=50 time=0
EXTRACT: note_on channel=3 note=69 velocity=50 time=0
EXTRACT: note_on channel=1 note=69 velocity=100 time=0
EXTRACT: note_on channel=1 note=81 velocity=70 time=0
EXTRACT: note_off channel=1 note=69 velocity=0 time=0.365853
EXTRACT: note_off channel=1 note=81 velocity=0 time=0
EXTRACT: note_on channel=1 note=70 velocity=100 time=0
EXTRACT: note_on channel=1 note=82 velocity=70 time=0
EXTRACT: note_off channel=0 note=61 velocity=0 time=0
EXTRACT: note_on channel=0 note=62 velocity=90 time=0
EXTRACT: note_off channel=0 note=45 velocity=0 time=0
EXTRACT: note_off channel=0 note=52 velocity=0 time=0
EXTRACT: note_off channel=0 note=57 velocity=0 time=0
EXTRACT: note_on channel=0 note=50 velocity=78 time=0
EXTRACT: note_on channel=0 note=53 velocity=78 time=0
EXTRACT: note_on channel=0 note=57 velocity=78 time=0
EXTRACT: note_off channel=3 note=57 velocity=0 time=0
EXTRACT: note_off channel=3 note=64 velocity=0 time=0
EXTRACT: note_off channel=3 note=69 velocity=0 time=0
EXTRACT: note_on channel=3 note=62 velocity=50 time=0
EXTRACT: note_on channel=3 note=65 velocity=50 time=0
EXTRACT: note_on channel=3 note=69 velocity=50 time=0
EXTRACT: note_off channel=1 note=70 velocity=0 time=0.731706
EXTRACT: note_off channel=1 note=82 velocity=0 time=0
EXTRACT: note_on channel=1 note=69 velocity=100 time=0
EXTRACT: note_on channel=1 note=81 velocity=70 time=0
EXTRACT: note_off channel=1 note=69 velocity=0 time=0.731706
EXTRACT: note_off channel=1 note=81 velocity=0 time=0
EXTRACT: note_on channel=1 note=67 velocity=100 time=0
EXTRACT: note_on channel=1 note=79 velocity=70 time=0
EXTRACT: note_off channel=0 note=62 velocity=0 time=0
EXTRACT: note_on channel=0 note=62 velocity=90 time=0
EXTRACT: note_off channel=0 note=50 velocity=0 time=0
EXTRACT: note_off channel=0 note=53 velocity=0 time=0
EXTRACT: note_off channel=0 note=57 velocity=0 time=0
EXTRACT: note_on channel=0 note=46 velocity=78 time=0
EXTRACT: note_on channel=0 note=53 velocity=78 time=0
EXTRACT: note_on channel=0 note=58 velocity=78 time=0
EXTRACT: note_off channel=3 note=62 velocity=0 time=0
EXTRACT: note_off channel=3 note=65 velocity=0 time=0
EXTRACT: note_off channel=3 note=69 velocity=0 time=0
EXTRACT: note_on channel=3 note=58 velocity=50 time=0
EXTRACT: note_on channel=3 note=65 velocity=50 time=0
EXTRACT: note_on channel=3 note=70 velocity=50 time=0
EXTRACT: note_off channel=1 note=67 velocity=0 time=0.731706
EXTRACT: note_off channel=1 note=79 velocity=0 time=0
EXTRACT: note_on channel=1 note=65 velocity=100 time=0
EXTRACT: note_on channel=1 note=77 velocity=70 time=0
EXTRACT: note_off channel=1 note=65 velocity=0 time=0.731706
EXTRACT: note_off channel=1 note=77 velocity=0 time=0
EXTRACT: note_on channel=1 note=65 velocity=100 time=0
EXTRACT: note_on channel=1 note=77 velocity=70 time=0
EXTRACT: note_on channel=0 note=56 velocity=90 time=0.30030433749999996
EXTRACT: note_off channel=1 note=65 velocity=0 time=0.0655486625
EXTRACT: note_off channel=1 note=77 velocity=0 time=0
EXTRACT: note_on channel=1 note=69 velocity=100 time=0
EXTRACT: note_on channel=1 note=81 velocity=70 time=0
EXTRACT: note_off channel=0 note=62 velocity=0 time=0
EXTRACT: note_on channel=0 note=57 velocity=90 time=0
EXTRACT: note_off channel=0 note=56 velocity=0 time=0
EXTRACT: note_off channel=0 note=46 velocity=0 time=0
EXTRACT: note_off channel=0 note=53 velocity=0 time=0
EXTRACT: note_off channel=0 note=58 velocity=0 time=0
EXTRACT: note_on channel=0 note=41 velocity=78 time=0
EXTRACT: note_on channel=0 note=53 velocity=78 time=0
EXTRACT: note_off channel=3 note=58 velocity=0 time=0
EXTRACT: note_off channel=3 note=65 velocity=0 time=0
EXTRACT: note_off channel=3 note=70 velocity=0 time=0
EXTRACT: note_on channel=3 note=53 velocity=50 time=0
EXTRACT: note_on channel=3 note=65 velocity=50 time=0
EXTRACT: note_off channel=1 note=69 velocity=0 time=0.365853
EXTRACT: note_off channel=1 note=81 velocity=0 time=0
EXTRACT: note_on channel=1 note=72 velocity=100 time=0
EXTRACT: note_on channel=1 note=84 velocity=70 time=0
EXTRACT: note_off channel=0 note=57 velocity=0 time=0
EXTRACT: note_on channel=0 note=60 velocity=90 time=0
EXTRACT: note_off channel=1 note=72 velocity=0 time=0.365853
EXTRACT: note_off channel=1 note=84 velocity=0 time=0
EXTRACT: note_on channel=1 note=69 velocity=100 time=0
EXTRACT: note_on channel=1 note=81 velocity=70 time=0
EXTRACT: note_off channel=0 note=60 velocity=0 time=0
EXTRACT: note_on channel=0 note=60 velocity=90 time=0
EXTRACT: note_off channel=1 note=69 velocity=0 time=0.365853
EXTRACT: note_off channel=1 note=81 velocity=0 time=0
EXTRACT: note_on channel=1 note=65 velocity=100 time=0
EXTRACT: note_on channel=1 note=77 velocity=70 time=0
EXTRACT: note_off channel=0 note=60 velocity=0 time=0
EXTRACT: note_on channel=0 note=57 velocity=90 time=0
EXTRACT: note_off channel=1 note=65 velocity=0 time=0.365853
EXTRACT: note_off channel=1 note=77 velocity=0 time=0
EXTRACT: note_on channel=1 note=67 velocity=100 time=0
EXTRACT: note_on channel=1 note=79 velocity=70 time=0
EXTRACT: note_off channel=0 note=57 velocity=0 time=0
EXTRACT: note_on channel=0 note=60 velocity=90 time=0
EXTRACT: note_off channel=0 note=41 velocity=0 time=0
EXTRACT: note_off channel=0 note=53 velocity=0 time=0
EXTRACT: note_on channel=0 note=48 velocity=78 time=0
EXTRACT: note_on channel=0 note=52 velocity=78 time=0
EXTRACT: note_on channel=0 note=55 velocity=78 time=0
EXTRACT: note_off channel=3 note=53 velocity=0 time=0
EXTRACT: note_off channel=3 note=65 velocity=0 time=0
EXTRACT: note_on channel=3 note=60 velocity=50 time=0
EXTRACT: note_on channel=3 note=64 velocity=50 time=0
EXTRACT: note_on channel=3 note=67 velocity=50 time=0
EXTRACT: note_off channel=1 note=67 velocity=0 time=0.365853
EXTRACT: note_off channel=1 note=79 velocity=0 time=0
EXTRACT: note_on channel=1 note=67 velocity=100 time=0
EXTRACT: note_on channel=1 note=79 velocity=70 time=0
EXTRACT: note_off channel=0 note=60 velocity=0 time=0
EXTRACT: note_on channel=0 note=60 velocity=90 time=0
EXTRACT: note_off channel=0 note=48 velocity=0 time=0
EXTRACT: note_off channel=0 note=52 velocity=0 time=0
EXTRACT: note_off channel=0 note=55 velocity=0 time=0
EXTRACT: note_on channel=0 note=48 velocity=78 time=0
EXTRACT: note_on channel=0 note=52 velocity=78 time=0
EXTRACT: note_on channel=0 note=55 velocity=78 time=0
EXTRACT: note_off channel=3 note=60 velocity=0 time=0
EXTRACT: note_off channel=3 note=64 velocity=0 time=0
EXTRACT: note_off channel=3 note=67 velocity=0 time=0
EXTRACT: note_on channel=3 note=60 velocity=50 time=0
EXTRACT: note_on channel=3 note=64 velocity=50 time=0
EXTRACT: note_on channel=3 note=67 velocity=50 time=0
EXTRACT: note_off channel=1 note=67 velocity=0 time=0.731706
EXTRACT: note_off channel=1 note=79 velocity=0 time=0
EXTRACT: note_on channel=1 note=65 velocity=100 time=0
EXTRACT: note_on channel=1 note=77 velocity=70 time=0
EXTRACT: note_off channel=0 note=60 velocity=0 time=0
EXTRACT: note_on channel=0 note=57 velocity=90 time=0
EXTRACT: note_off channel=0 note=48 velocity=0 time=0
EXTRACT: note_off channel=0 note=52 velocity=0 time=0
EXTRACT: note_off channel=0 note=55 velocity=0 time=0
EXTRACT: note_on channel=0 note=41 velocity=78 time=0
EXTRACT: note_on channel=0 note=48 velocity=78 time=0
EXTRACT: note_on channel=0 note=53 velocity=78 time=0
EXTRACT: note_off channel=3 note=60 velocity=0 time=0
EXTRACT: note_off channel=3 note=64 velocity=0 time=0
EXTRACT: note_off channel=3 note=67 velocity=0 time=0
EXTRACT: note_on channel=3 note=53 velocity=50 time=0
EXTRACT: note_on channel=3 note=60 velocity=50 time=0
EXTRACT: note_on channel=3 note=65 velocity=50 time=0
EXTRACT: note_off channel=1 note=65 velocity=0 time=1.097559
EXTRACT: note_off channel=1 note=77 velocity=0 time=0
EXTRACT: note_off channel=0 note=57 velocity=0 time=0.731706
EXTRACT: note_on channel=0 note=58 velocity=90 time=0
EXTRACT: note_on channel=0 note=60 velocity=90 time=0.365853
EXTRACT: note_off channel=0 note=58 velocity=0 time=0.006097549999999999
EXTRACT: note_on channel=0 note=65 velocity=90 time=0.35975545
EXTRACT: note_off channel=0 note=60 velocity=0 time=0.006097549999999999
EXTRACT: note_on channel=0 note=72 velocity=90 time=0.35975545
EXTRACT: note_off channel=0 note=65 velocity=0 time=0.006097549999999999
EXTRACT: note_on channel=0 note=70 velocity=90 time=0.35975545
EXTRACT: note_on channel=0 note=74 velocity=90 time=0
EXTRACT: note_off channel=0 note=41 velocity=0 time=0
EXTRACT: note_off channel=0 note=48 velocity=0 time=0
EXTRACT: note_off channel=0 note=53 velocity=0 time=0
EXTRACT: note_on channel=0 note=46 velocity=78 time=0
EXTRACT: note_off channel=3 note=53 velocity=0 time=0
EXTRACT: note_off channel=3 note=60 velocity=0 time=0
EXTRACT: note_off channel=3 note=65 velocity=0 time=0
EXTRACT: note_on channel=3 note=58 velocity=50 time=0
EXTRACT: note_on channel=3 note=62 velocity=50 time=0
EXTRACT: note_on channel=3 note=65 velocity=50 time=0
EXTRACT: note_off channel=0 note=72 velocity=0 time=0.006097549999999999
EXTRACT: note_off channel=0 note=70 velocity=0 time=0.68826095625
EXTRACT: note_off channel=0 note=74 velocity=0 time=0
EXTRACT: note_on channel=1 note=69 velocity=100 time=0
EXTRACT: note_on channel=1 note=81 velocity=70 time=0
EXTRACT: note_on channel=0 note=70 velocity=90 time=0
EXTRACT: note_on channel=0 note=74 velocity=90 time=0
EXTRACT: note_on channel=0 note=77 velocity=90 time=0
EXTRACT: note_off channel=0 note=46 velocity=0 time=0
EXTRACT: note_on channel=0 note=46 velocity=78 time=0
EXTRACT: note_off channel=1 note=69 velocity=0 time=0.365853
EXTRACT: note_off channel=1 note=81 velocity=0 time=0
EXTRACT: note_on channel=1 note=69 velocity=100 time=0
EXTRACT: note_on channel=1 note=81 velocity=70 time=0
EXTRACT: note_off channel=1 note=69 velocity=0 time=0.365853
EXTRACT: note_off channel=1 note=81 velocity=0 time=0
EXTRACT: note_on channel=1 note=69 velocity=100 time=0
EXTRACT: note_on channel=1 note=81 velocity=70 time=0
EXTRACT: note_off channel=0 note=70 velocity=0 time=0
EXTRACT: note_off channel=0 note=74 velocity=0 time=0
EXTRACT: note_off channel=0 note=77 velocity=0 time=0
EXTRACT: note_on channel=0 note=70 velocity=90 time=0
EXTRACT: note_on channel=0 note=74 velocity=90 time=0
EXTRACT: note_on channel=0 note=77 velocity=90 time=0
EXTRACT: note_off channel=0 note=46 velocity=0 time=0
EXTRACT: note_on channel=0 note=46 velocity=78 time=0
EXTRACT: note_off channel=1 note=69 velocity=0 time=0.365853
EXTRACT: note_off channel=1 note=81 velocity=0 time=0
EXTRACT: note_on channel=1 note=67 velocity=100 time=0
EXTRACT: note_on channel=1 note=79 velocity=70 time=0
EXTRACT: note_off channel=1 note=67 velocity=0 time=0.365853
EXTRACT: note_off channel=1 note=79 velocity=0 time=0
EXTRACT: note_on channel=1 note=65 velocity=100 time=0
EXTRACT: note_on channel=1 note=77 velocity=70 time=0
EXTRACT: note_off channel=0 note=70 velocity=0 time=0
EXTRACT: note_off channel=0 note=74 velocity=0 time=0
EXTRACT: note_off channel=0 note=77 velocity=0 time=0
EXTRACT: note_on channel=0 note=70 velocity=90 time=0
EXTRACT: note_on channel=0 note=74 velocity=90 time=0
EXTRACT: note_on channel=0 note=77 velocity=90 time=0
EXTRACT: note_off channel=0 note=46 velocity=0 time=0
EXTRACT: note_on channel=0 note=46 velocity=78 time=0
EXTRACT: note_off channel=1 note=65 velocity=0 time=0.365853
EXTRACT: note_off channel=1 note=77 velocity=0 time=0
EXTRACT: note_on channel=1 note=67 velocity=100 time=0
EXTRACT: note_on channel=1 note=79 velocity=70 time=0
EXTRACT: note_off channel=1 note=67 velocity=0 time=0.365853
EXTRACT: note_off channel=1 note=79 velocity=0 time=0
EXTRACT: note_on channel=1 note=62 velocity=100 time=0
EXTRACT: note_on channel=1 note=74 velocity=70 time=0
EXTRACT: note_off channel=0 note=70 velocity=0 time=0
EXTRACT: note_off channel=0 note=74 velocity=0 time=0
EXTRACT: note_off channel=0 note=77 velocity=0 time=0
EXTRACT: note_on channel=0 note=69 velocity=90 time=0
EXTRACT: note_on channel=0 note=72 velocity=90 time=0
EXTRACT: note_on channel=0 note=77 velocity=90 time=0
EXTRACT: note_off channel=0 note=46 velocity=0 time=0
EXTRACT: note_on channel=0 note=53 velocity=78 time=0
EXTRACT: note_off channel=3 note=58 velocity=0 time=0
EXTRACT: note_off channel=3 note=62 velocity=0 time=0
EXTRACT: note_off channel=3 note=65 velocity=0 time=0
EXTRACT: note_on channel=3 note=57 velocity=50 time=0
EXTRACT: note_on channel=3 note=60 velocity=50 time=0
EXTRACT: note_on channel=3 note=65 velocity=50 time=0
EXTRACT: note_off channel=1 note=62 velocity=0 time=0.365853
EXTRACT: note_off channel=1 note=74 velocity=0 time=0
EXTRACT: note_on channel=1 note=65 velocity=100 time=0
EXTRACT: note_on channel=1 note=77 velocity=70 time=0
EXTRACT: note_off channel=0 note=69 velocity=0 time=0.365853
EXTRACT: note_off channel=0 note=72 velocity=0 time=0
EXTRACT: note_off channel=0 note=77 velocity=0 time=0
EXTRACT: note_on channel=0 note=69 velocity=90 time=0
EXTRACT: note_on channel=0 note=72 velocity=90 time=0
EXTRACT: note_on channel=0 note=77 velocity=90 time=0
EXTRACT: note_off channel=0 note=53 velocity=0 time=0
EXTRACT: note_on channel=0 note=53 velocity=78 time=0
EXTRACT: note_off channel=1 note=65 velocity=0 time=0.731706
EXTRACT: note_off channel=1 note=77 velocity=0 time=0
EXTRACT: note_off channel=0 note=69 velocity=0 time=0
EXTRACT: note_off channel=0 note=72 velocity=0 time=0
EXTRACT: note_off channel=0 note=77 velocity=0 time=0
EXTRACT: note_on channel=0 note=69 velocity=90 time=0
EXTRACT: note_on channel=0 note=72 velocity=90 time=0
EXTRACT: note_on channel=0 note=77 velocity=90 time=0
EXTRACT: note_off channel=0 note=53 velocity=0 time=0
EXTRACT: note_on channel=0 note=53 velocity=78 time=0
EXTRACT: note_off channel=0 note=69 velocity=0 time=0.731706
EXTRACT: note_off channel=0 note=72 velocity=0 time=0
EXTRACT: note_off channel=0 note=77 velocity=0 time=0
EXTRACT: note_on channel=0 note=69 velocity=90 time=0
EXTRACT: note_on channel=0 note=72 velocity=90 time=0
EXTRACT: note_on channel=0 note=77 velocity=90 time=0
EXTRACT: note_off channel=0 note=53 velocity=0 time=0
EXTRACT: note_on channel=0 note=53 velocity=78 time=0
EXTRACT: note_on channel=1 note=70 velocity=100 time=0
EXTRACT: note_on channel=1 note=82 velocity=70 time=0
EXTRACT: note_off channel=0 note=69 velocity=0 time=0
EXTRACT: note_off channel=0 note=72 velocity=0 time=0
EXTRACT: note_off channel=0 note=77 velocity=0 time=0
EXTRACT: note_on channel=0 note=69 velocity=90 time=0
EXTRACT: note_on channel=0 note=73 velocity=90 time=0
EXTRACT: note_on channel=0 note=76 velocity=90 time=0
EXTRACT: note_off channel=0 note=53 velocity=0 time=0
EXTRACT: note_on channel=0 note=45 velocity=78 time=0
EXTRACT: note_off channel=3 note=57 velocity=0 time=0
EXTRACT: note_off channel=3 note=60 velocity=0 time=0
EXTRACT: note_off channel=3 note=65 velocity=0 time=0
EXTRACT: note_on channel=3 note=57 velocity=50 time=0
EXTRACT: note_on channel=3 note=61 velocity=50 time=0
EXTRACT: note_on channel=3 note=64 velocity=50 time=0
EXTRACT: note_off channel=1 note=70 velocity=0 time=0.365853
EXTRACT: note_off channel=1 note=82 velocity=0 time=0
EXTRACT: note_on channel=1 note=69 velocity=100 time=0
EXTRACT: note_on channel=1 note=81 velocity=70 time=0
EXTRACT: note_off channel=1 note=69 velocity=0 time=0.365853
EXTRACT: note_off channel=1 note=81 velocity=0 time=0
EXTRACT: note_on channel=1 note=69 velocity=100 time=0
EXTRACT: note_on channel=1 note=81 velocity=70 time=0
EXTRACT: note_off channel=0 note=69 velocity=0 time=0
EXTRACT: note_off channel=0 note=73 velocity=0 time=0
EXTRACT: note_off channel=0 note=76 velocity=0 time=0
EXTRACT: note_on channel=0 note=69 velocity=90 time=0
EXTRACT: note_on channel=0 note=73 velocity=90 time=0
EXTRACT: note_on channel=0 note=76 velocity=90 time=0
EXTRACT: note_off channel=0 note=45 velocity=0 time=0
EXTRACT: note_on channel=0 note=45 velocity=78 time=0
EXTRACT: note_off channel=1 note=69 velocity=0 time=0.365853
EXTRACT: note_off channel=1 note=81 velocity=0 time=0
EXTRACT: note_on channel=1 note=69 velocity=100 time=0
EXTRACT: note_on channel=1 note=81 velocity=70 time=0
EXTRACT: note_off channel=1 note=69 velocity=0 time=0.365853
EXTRACT: note_off channel=1 note=81 velocity=0 time=0
EXTRACT: note_on channel=1 note=69 velocity=100 time=0
EXTRACT: note_on channel=1 note=81 velocity=70 time=0
EXTRACT: note_off channel=0 note=69 velocity=0 time=0
EXTRACT: note_off channel=0 note=73 velocity=0 time=0
EXTRACT: note_off channel=0 note=76 velocity=0 time=0
EXTRACT: note_on channel=0 note=69 velocity=90 time=0
EXTRACT: note_on channel=0 note=73 velocity=90 time=0
EXTRACT: note_on channel=0 note=76 velocity=90 time=0
EXTRACT: note_off channel=0 note=45 velocity=0 time=0
EXTRACT: note_on channel=0 note=45 velocity=78 time=0
EXTRACT: note_off channel=1 note=69 velocity=0 time=0.365853
EXTRACT: note_off channel=1 note=81 velocity=0 time=0
EXTRACT: note_on channel=1 note=65 velocity=100 time=0
EXTRACT: note_on channel=1 note=77 velocity=70 time=0
EXTRACT: note_off channel=1 note=65 velocity=0 time=0.365853
EXTRACT: note_off channel=1 note=77 velocity=0 time=0
EXTRACT: note_on channel=1 note=69 velocity=100 time=0
EXTRACT: note_on channel=1 note=81 velocity=70 time=0
EXTRACT: note_off channel=0 note=69 velocity=0 time=0
EXTRACT: note_off channel=0 note=73 velocity=0 time=0
EXTRACT: note_off channel=0 note=76 velocity=0 time=0
EXTRACT: note_on channel=0 note=69 velocity=90 time=0
EXTRACT: note_on channel=0 note=73 velocity=90 time=0
EXTRACT: note_on channel=0 note=76 velocity=90 time=0
EXTRACT: note_off channel=0 note=45 velocity=0 time=0
EXTRACT: note_on channel=0 note=45 velocity=78 time=0
EXTRACT: note_off channel=1 note=69 velocity=0 time=0.365853
EXTRACT: note_off channel=1 note=81 velocity=0 time=0
EXTRACT: note_on channel=1 note=67 velocity=100 time=0
EXTRACT: note_on channel=1 note=79 velocity=70 time=0
EXTRACT: note_on channel=1 note=65 velocity=100 time=0.1829265
EXTRACT: note_on channel=1 note=77 velocity=70 time=0
EXTRACT: note_off channel=1 note=67 velocity=0 time=0.0030487749999999997
EXTRACT: note_off channel=1 note=79 velocity=0 time=0
EXTRACT: note_on channel=1 note=62 velocity=100 time=0.179877725
EXTRACT: note_on channel=1 note=74 velocity=70 time=0
EXTRACT: note_off channel=0 note=69 velocity=0 time=0
EXTRACT: note_off channel=0 note=73 velocity=0 time=0
EXTRACT: note_off channel=0 note=76 velocity=0 time=0
EXTRACT: note_on channel=0 note=69 velocity=90 time=0
EXTRACT: note_on channel=0 note=74 velocity=90 time=0
EXTRACT: note_on channel=0 note=77 velocity=90 time=0
EXTRACT: note_off channel=0 note=45 velocity=0 time=0
EXTRACT: note_on channel=0 note=50 velocity=78 time=0
EXTRACT: note_off channel=3 note=57 velocity=0 time=0
EXTRACT: note_off channel=3 note=61 velocity=0 time=0
EXTRACT: note_off channel=3 note=64 velocity=0 time=0
EXTRACT: note_on channel=3 note=57 velocity=50 time=0
EXTRACT: note_on channel=3 note=62 velocity=50 time=0
EXTRACT: note_on channel=3 note=65 velocity=50 time=0
EXTRACT: note_off channel=1 note=65 velocity=0 time=0.0030487749999999997
EXTRACT: note_off channel=1 note=77 velocity=0 time=0
EXTRACT: note_off channel=1 note=62 velocity=0 time=0.69130973125
EXTRACT: note_off channel=1 note=74 velocity=0 time=0
EXTRACT: note_off channel=0 note=69 velocity=0 time=0.037347493749999995
EXTRACT: note_off channel=0 note=74 velocity=0 time=0
EXTRACT: note_off channel=0 note=77 velocity=0 time=0
EXTRACT: note_on channel=0 note=69 velocity=90 time=0
EXTRACT: note_on channel=0 note=74 velocity=90 time=0
EXTRACT: note_on channel=0 note=77 velocity=90 time=0
EXTRACT: note_off channel=0 note=50 velocity=0 time=0
EXTRACT: note_on channel=0 note=50 velocity=78 time=0
EXTRACT: note_off channel=0 note=69 velocity=0 time=0.731706
EXTRACT: note_off channel=0 note=74 velocity=0 time=0
EXTRACT: note_off channel=0 note=77 velocity=0 time=0
EXTRACT: note_on channel=0 note=69 velocity=90 time=0
EXTRACT: note_on channel=0 note=74 velocity=90 time=0
EXTRACT: note_on channel=0 note=77 velocity=90 time=0
EXTRACT: note_off channel=0 note=50 velocity=0 time=0
EXTRACT: note_on channel=0 note=50 velocity=78 time=0
EXTRACT: note_off channel=0 note=69 velocity=0 time=0.731706
EXTRACT: note_off channel=0 note=74 velocity=0 time=0
EXTRACT: note_off channel=0 note=77 velocity=0 time=0
EXTRACT: note_on channel=0 note=69 velocity=90 time=0
EXTRACT: note_on channel=0 note=74 velocity=90 time=0
EXTRACT: note_on channel=0 note=77 velocity=90 time=0
EXTRACT: note_off channel=0 note=50 velocity=0 time=0
EXTRACT: note_on channel=0 note=50 velocity=78 time=0
EXTRACT: note_off channel=0 note=69 velocity=0 time=0.731706
EXTRACT: note_off channel=0 note=74 velocity=0 time=0
EXTRACT: note_off channel=0 note=77 velocity=0 time=0
EXTRACT: note_on channel=0 note=70 velocity=90 time=0
EXTRACT: note_on channel=0 note=74 velocity=90 time=0
EXTRACT: note_on channel=0 note=77 velocity=90 time=0
EXTRACT: note_off channel=0 note=50 velocity=0 time=0
EXTRACT: note_on channel=0 note=46 velocity=78 time=0
EXTRACT: note_off channel=3 note=57 velocity=0 time=0
EXTRACT: note_off channel=3 note=62 velocity=0 time=0
EXTRACT: note_off channel=3 note=65 velocity=0 time=0
EXTRACT: note_on channel=3 note=58 velocity=50 time=0
EXTRACT: note_on channel=3 note=62 velocity=50 time=0
EXTRACT: note_on channel=3 note=65 velocity=50 time=0
EXTRACT: note_on channel=1 note=65 velocity=100 time=0
EXTRACT: note_on channel=1 note=77 velocity=70 time=0
EXTRACT: note_off channel=1 note=65 velocity=0 time=0.365853
EXTRACT: note_off channel=1 note=77 velocity=0 time=0
EXTRACT: note_on channel=1 note=69 velocity=100 time=0
EXTRACT: note_on channel=1 note=81 velocity=70 time=0
EXTRACT: note_off channel=0 note=70 velocity=0 time=0
EXTRACT: note_off channel=0 note=74 velocity=0 time=0
EXTRACT: note_off channel=0 note=77 velocity=0 time=0
EXTRACT: note_on channel=0 note=70 velocity=90 time=0
EXTRACT: note_on channel=0 note=74 velocity=90 time=0
EXTRACT: note_on channel=0 note=77 velocity=90 time=0
EXTRACT: note_off channel=0 note=46 velocity=0 time=0
EXTRACT: note_on channel=0 note=46 velocity=78 time=0
EXTRACT: note_off channel=1 note=69 velocity=0 time=0.365853
EXTRACT: note_off channel=1 note=81 velocity=0 time=0
EXTRACT: note_on channel=1 note=69 velocity=100 time=0
EXTRACT: note_on channel=1 note=81 velocity=70 time=0
EXTRACT: note_off channel=1 note=69 velocity=0 time=0.365853
EXTRACT: note_off channel=1 note=81 velocity=0 time=0
EXTRACT: note_on channel=1 note=69 velocity=100 time=0
EXTRACT: note_on channel=1 note=81 velocity=70 time=0
EXTRACT: note_off channel=0 note=70 velocity=0 time=0
EXTRACT: note_off channel=0 note=74 velocity=0 time=0
EXTRACT: note_off channel=0 note=77 velocity=0 time=0
EXTRACT: note_on channel=0 note=70 velocity=90 time=0
EXTRACT: note_on channel=0 note=74 velocity=90 time=0
EXTRACT: note_on channel=0 note=77 velocity=90 time=0
EXTRACT: note_off channel=0 note=46 velocity=0 time=0
EXTRACT: note_on channel=0 note=46 velocity=78 time=0
EXTRACT: note_off channel=1 note=69 velocity=0 time=0.1829265
EXTRACT: note_off channel=1 note=81 velocity=0 time=0
EXTRACT: note_on channel=1 note=67 velocity=100 time=0
EXTRACT: note_on channel=1 note=79 velocity=70 time=0
EXTRACT: note_off channel=1 note=67 velocity=0 time=0.1829265
EXTRACT: note_off channel=1 note=79 velocity=0 time=0
EXTRACT: note_on channel=1 note=67 velocity=100 time=0
EXTRACT: note_on channel=1 note=79 velocity=70 time=0
EXTRACT: note_off channel=1 note=67 velocity=0 time=0.365853
EXTRACT: note_off channel=1 note=79 velocity=0 time=0
EXTRACT: note_on channel=1 note=65 velocity=100 time=0
EXTRACT: note_on channel=1 note=77 velocity=70 time=0
EXTRACT: note_off channel=0 note=70 velocity=0 time=0
EXTRACT: note_off channel=0 note=74 velocity=0 time=0
EXTRACT: note_off channel=0 note=77 velocity=0 time=0
EXTRACT: note_on channel=0 note=70 velocity=90 time=0
EXTRACT: note_on channel=0 note=74 velocity=90 time=0
EXTRACT: note_on channel=0 note=77 velocity=90 time=0
EXTRACT: note_off channel=0 note=46 velocity=0 time=0
EXTRACT: note_on channel=0 note=46 velocity=78 time=0
EXTRACT: note_off channel=1 note=65 velocity=0 time=0.365853
EXTRACT: note_off channel=1 note=77 velocity=0 time=0
EXTRACT: note_on channel=1 note=67 velocity=100 time=0
EXTRACT: note_on channel=1 note=79 velocity=70 time=0
EXTRACT: note_off channel=1 note=67 velocity=0 time=0.365853
EXTRACT: note_off channel=1 note=79 velocity=0 time=0
EXTRACT: note_on channel=1 note=62 velocity=100 time=0
EXTRACT: note_on channel=1 note=74 velocity=70 time=0
EXTRACT: note_off channel=0 note=70 velocity=0 time=0
EXTRACT: note_off channel=0 note=74 velocity=0 time=0
EXTRACT: note_off channel=0 note=77 velocity=0 time=0
EXTRACT: note_on channel=0 note=69 velocity=90 time=0
EXTRACT: note_on channel=0 note=72 velocity=90 time=0
EXTRACT: note_on channel=0 note=77 velocity=90 time=0
EXTRACT: note_off channel=0 note=46 velocity=0 time=0
EXTRACT: note_on channel=0 note=53 velocity=78 time=0
EXTRACT: note_off channel=3 note=58 velocity=0 time=0
EXTRACT: note_off channel=3 note=62 velocity=0 time=0
EXTRACT: note_off channel=3 note=65 velocity=0 time=0
EXTRACT: note_on channel=3 note=57 velocity=50 time=0
EXTRACT: note_on channel=3 note=60 velocity=50 time=0
EXTRACT: note_on channel=3 note=65 velocity=50 time=0
EXTRACT: note_off channel=1 note=62 velocity=0 time=0.365853
EXTRACT: note_off channel=1 note=74 velocity=0 time=0
EXTRACT: note_on channel=1 note=65 velocity=100 time=0
EXTRACT: note_on channel=1 note=77 velocity=70 time=0
EXTRACT: note_off channel=0 note=69 velocity=0 time=0.365853
EXTRACT: note_off channel=0 note=72 velocity=0 time=0
EXTRACT: note_off channel=0 note=77 velocity=0 time=0
EXTRACT: note_on channel=0 note=69 velocity=90 time=0
EXTRACT: note_on channel=0 note=72 velocity=90 time=0
EXTRACT: note_on channel=0 note=77 velocity=90 time=0
EXTRACT: note_off channel=0 note=53 velocity=0 time=0
EXTRACT: note_on channel=0 note=53 velocity=78 time=0
EXTRACT: note_off channel=1 note=65 velocity=0 time=0.731706
EXTRACT: note_off channel=1 note=77 velocity=0 time=0
EXTRACT: note_off channel=0 note=69 velocity=0 time=0
EXTRACT: note_off channel=0 note=72 velocity=0 time=0
EXTRACT: note_off channel=0 note=77 velocity=0 time=0
EXTRACT: note_on channel=0 note=69 velocity=90 time=0
EXTRACT: note_on channel=0 note=72 velocity=90 time=0
EXTRACT: note_on channel=0 note=77 velocity=90 time=0
EXTRACT: note_off channel=0 note=53 velocity=0 time=0
EXTRACT: note_on channel=0 note=53 velocity=78 time=0
EXTRACT: note_off channel=0 note=69 velocity=0 time=0.731706
EXTRACT: note_off channel=0 note=72 velocity=0 time=0
EXTRACT: note_off channel=0 note=77 velocity=0 time=0
EXTRACT: note_on channel=0 note=69 velocity=90 time=0
EXTRACT: note_on channel=0 note=72 velocity=90 time=0
EXTRACT: note_on channel=0 note=77 velocity=90 time=0
EXTRACT: note_off channel=0 note=53 velocity=0 time=0
EXTRACT: note_on channel=0 note=53 velocity=78 time=0
EXTRACT: note_on channel=1 note=64 velocity=100 time=0
EXTRACT: note_on channel=1 note=76 velocity=70 time=0
EXTRACT: note_off channel=1 note=64 velocity=0 time=0.365853
EXTRACT: note_off channel=1 note=76 velocity=0 time=0
EXTRACT: note_on channel=1 note=69 velocity=100 time=0
EXTRACT: note_on channel=1 note=81 velocity=70 time=0
EXTRACT: note_off channel=0 note=69 velocity=0 time=0
EXTRACT: note_off channel=0 note=72 velocity=0 time=0
EXTRACT: note_off channel=0 note=77 velocity=0 time=0
EXTRACT: note_on channel=0 note=69 velocity=90 time=0
EXTRACT: note_on channel=0 note=73 velocity=90 time=0
EXTRACT: note_on channel=0 note=76 velocity=90 time=0
EXTRACT: note_off channel=0 note=53 velocity=0 time=0
EXTRACT: note_on channel=0 note=45 velocity=78 time=0
EXTRACT: note_off channel=3 note=57 velocity=0 time=0
EXTRACT: note_off channel=3 note=60 velocity=0 time=0
EXTRACT: note_off channel=3 note=65 velocity=0 time=0
EXTRACT: note_on channel=3 note=57 velocity=50 time=0
EXTRACT: note_on channel=3 note=61 velocity=50 time=0
EXTRACT: note_on channel=3 note=64 velocity=50 time=0
EXTRACT: note_off channel=1 note=69 velocity=0 time=0.365853
EXTRACT: note_off channel=1 note=81 velocity=0 time=0
EXTRACT: note_on channel=1 note=65 velocity=100 time=0
EXTRACT: note_on channel=1 note=77 velocity=70 time=0
EXTRACT: note_off channel=0 note=69 velocity=0 time=0.365853
EXTRACT: note_off channel=0 note=73 velocity=0 time=0
EXTRACT: note_off channel=0 note=76 velocity=0 time=0
EXTRACT: note_on channel=0 note=69 velocity=90 time=0
EXTRACT: note_on channel=0 note=73 velocity=90 time=0
EXTRACT: note_on channel=0 note=76 velocity=90 time=0
EXTRACT: note_off channel=0 note=45 velocity=0 time=0
EXTRACT: note_on channel=0 note=45 velocity=78 time=0
EXTRACT: note_off channel=1 note=65 velocity=0 time=0.365853
EXTRACT: note_off channel=1 note=77 velocity=0 time=0
EXTRACT: note_on channel=1 note=65 velocity=100 time=0
EXTRACT: note_on channel=1 note=77 velocity=70 time=0
EXTRACT: note_off channel=1 note=65 velocity=0 time=0.365853
EXTRACT: note_off channel=1 note=77 velocity=0 time=0
EXTRACT: note_on channel=1 note=69 velocity=100 time=0
EXTRACT: note_on channel=1 note=81 velocity=70 time=0
EXTRACT: note_off channel=0 note=69 velocity=0 time=0
EXTRACT: note_off channel=0 note=73 velocity=0 time=0
EXTRACT: note_off channel=0 note=76 velocity=0 time=0
EXTRACT: note_on channel=0 note=69 velocity=90 time=0
EXTRACT: note_on channel=0 note=73 velocity=90 time=0
EXTRACT: note_on channel=0 note=76 velocity=90 time=0
EXTRACT: note_off channel=0 note=45 velocity=0 time=0
EXTRACT: note_on channel=0 note=45 velocity=78 time=0
EXTRACT: note_off channel=1 note=69 velocity=0 time=0.365853
EXTRACT: note_off channel=1 note=81 velocity=0 time=0
EXTRACT: note_on channel=1 note=67 velocity=100 time=0
EXTRACT: note_on channel=1 note=79 velocity=70 time=0
EXTRACT: note_off channel=1 note=67 velocity=0 time=0.365853
EXTRACT: note_off channel=1 note=79 velocity=0 time=0
EXTRACT: note_on channel=1 note=65 velocity=100 time=0
EXTRACT: note_on channel=1 note=77 velocity=70 time=0
EXTRACT: note_off channel=0 note=69 velocity=0 time=0
EXTRACT: note_off channel=0 note=73 velocity=0 time=0
EXTRACT: note_off channel=0 note=76 velocity=0 time=0
EXTRACT: note_on channel=0 note=69 velocity=90 time=0
EXTRACT: note_on channel=0 note=73 velocity=90 time=0
EXTRACT: note_on channel=0 note=76 velocity=90 time=0
EXTRACT: note_off channel=0 note=45 velocity=0 time=0
EXTRACT: note_on channel=0 note=45 velocity=78 time=0
EXTRACT: note_off channel=1 note=65 velocity=0 time=0.365853
EXTRACT: note_off channel=1 note=77 velocity=0 time=0
EXTRACT: note_on channel=1 note=69 velocity=100 time=0
EXTRACT: note_on channel=1 note=81 velocity=70 time=0
EXTRACT: note_on channel=1 note=67 velocity=100 time=0.365853
EXTRACT: note_on channel=1 note=79 velocity=70 time=0
EXTRACT: note_off channel=0 note=69 velocity=0 time=0
EXTRACT: note_off channel=0 note=73 velocity=0 time=0
EXTRACT: note_off channel=0 note=76 velocity=0 time=0
EXTRACT: note_on channel=0 note=69 velocity=90 time=0
EXTRACT: note_on channel=0 note=74 velocity=90 time=0
EXTRACT: note_on channel=0 note=77 velocity=90 time=0
EXTRACT: note_off channel=0 note=45 velocity=0 time=0
EXTRACT: note_on channel=0 note=50 velocity=78 time=0
EXTRACT: note_off channel=3 note=57 velocity=0 time=0
EXTRACT: note_off channel=3 note=61 velocity=0 time=0
EXTRACT: note_off channel=3 note=64 velocity=0 time=0
EXTRACT: note_on channel=3 note=57 velocity=50 time=0
EXTRACT: note_on channel=3 note=62 velocity=50 time=0
EXTRACT: note_on channel=3 note=65 velocity=50 time=0
EXTRACT: note_off channel=1 note=69 velocity=0 time=0.006097549999999999
EXTRACT: note_off channel=1 note=81 velocity=0 time=0
EXTRACT: note_off channel=1 note=67 velocity=0 time=0.68826095625
EXTRACT: note_off channel=1 note=79 velocity=0 time=0
EXTRACT: note_off channel=0 note=69 velocity=0 time=0.037347493749999995
EXTRACT: note_off channel=0 note=74 velocity=0 time=0
EXTRACT: note_off channel=0 note=77 velocity=0 time=0
EXTRACT: note_on channel=0 note=69 velocity=90 time=0
EXTRACT: note_on channel=0 note=74 velocity=90 time=0
EXTRACT: note_on channel=0 note=77 velocity=90 time=0
EXTRACT: note_off channel=0 note=50 velocity=0 time=0
EXTRACT: note_on channel=0 note=50 velocity=78 time=0
EXTRACT: note_off channel=0 note=69 velocity=0 time=0.731706
EXTRACT: note_off channel=0 note=74 velocity=0 time=0
EXTRACT: note_off channel=0 note=77 velocity=0 time=0
EXTRACT: note_on channel=0 note=69 velocity=90 time=0
EXTRACT: note_on channel=0 note=74 velocity=90 time=0
EXTRACT: note_on channel=0 note=77 velocity=90 time=0
EXTRACT: note_off channel=0 note=50 velocity=0 time=0
EXTRACT: note_on channel=0 note=50 velocity=78 time=0
EXTRACT: note_on channel=1 note=65 velocity=100 time=0
EXTRACT: note_on channel=1 note=77 velocity=70 time=0
EXTRACT: note_off channel=0 note=69 velocity=0 time=0
EXTRACT: note_off channel=0 note=74 velocity=0 time=0
EXTRACT: note_off channel=0 note=77 velocity=0 time=0
EXTRACT: note_on channel=0 note=69 velocity=90 time=0
EXTRACT: note_on channel=0 note=74 velocity=90 time=0
EXTRACT: note_on channel=0 note=77 velocity=90 time=0
EXTRACT: note_off channel=0 note=50 velocity=0 time=0
EXTRACT: note_on channel=0 note=50 velocity=78 time=0
EXTRACT: note_off channel=0 note=69 velocity=0 time=0.6661573375
EXTRACT: note_off channel=0 note=74 velocity=0 time=0
EXTRACT: note_off channel=0 note=77 velocity=0 time=0
EXTRACT: note_on channel=0 note=56 velocity=90 time=0
EXTRACT: note_off channel=1 note=65 velocity=0 time=0.0655486625
EXTRACT: note_off channel=1 note=77 velocity=0 time=0
EXTRACT: note_on channel=1 note=69 velocity=100 time=0
EXTRACT: note_on channel=1 note=81 velocity=70 time=0
EXTRACT: note_on channel=0 note=57 velocity=90 time=0
EXTRACT: note_off channel=0 note=56 velocity=0 time=0
EXTRACT: note_off channel=0 note=50 velocity=0 time=0
EXTRACT: note_on channel=0 note=41 velocity=78 time=0
EXTRACT: note_on channel=0 note=53 velocity=78 time=0
EXTRACT: note_off channel=3 note=57 velocity=0 time=0
EXTRACT: note_off channel=3 note=62 velocity=0 time=0
EXTRACT: note_off channel=3 note=65 velocity=0 time=0
EXTRACT: note_on channel=3 note=53 velocity=50 time=0
EXTRACT: note_on channel=3 note=65 velocity=50 time=0
EXTRACT: note_off channel=0 note=57 velocity=0 time=0.365853
EXTRACT: note_on channel=0 note=60 velocity=90 time=0
EXTRACT: note_off channel=0 note=60 velocity=0 time=0.365853
EXTRACT: note_on channel=0 note=60 velocity=90 time=0
EXTRACT: note_off channel=0 note=60 velocity=0 time=0.365853
EXTRACT: note_on channel=0 note=57 velocity=90 time=0
EXTRACT: note_off channel=0 note=57 velocity=0 time=0.365853
EXTRACT: note_on channel=0 note=61 velocity=90 time=0
EXTRACT: note_off channel=0 note=41 velocity=0 time=0
EXTRACT: note_off channel=0 note=53 velocity=0 time=0
EXTRACT: note_on channel=0 note=45 velocity=78 time=0
EXTRACT: note_on channel=0 note=52 velocity=78 time=0
EXTRACT: note_on channel=0 note=57 velocity=78 time=0
EXTRACT: note_off channel=3 note=53 velocity=0 time=0
EXTRACT: note_off channel=3 note=65 velocity=0 time=0
EXTRACT: note_on channel=3 note=57 velocity=50 time=0
EXTRACT: note_on channel=3 note=64 velocity=50 time=0
EXTRACT: note_on channel=3 note=69 velocity=50 time=0
EXTRACT: note_off channel=1 note=69 velocity=0 time=0.365853
EXTRACT: note_off channel=1 note=81 velocity=0 time=0
EXTRACT: note_on channel=1 note=69 velocity=100 time=0
EXTRACT: note_on channel=1 note=81 velocity=70 time=0
EXTRACT: note_off channel=0 note=61 velocity=0 time=0
EXTRACT: note_on channel=0 note=61 velocity=90 time=0
EXTRACT: note_off channel=0 note=45 velocity=0 time=0
EXTRACT: note_off channel=0 note=52 velocity=0 time=0
EXTRACT: note_off channel=0 note=57 velocity=0 time=0
EXTRACT: note_on channel=0 note=45 velocity=78 time=0
EXTRACT: note_on channel=0 note=52 velocity=78 time=0
EXTRACT: note_on channel=0 note=57 velocity=78 time=0
EXTRACT: note_off channel=3 note=57 velocity=0 time=0
EXTRACT: note_off channel=3 note=64 velocity=0 time=0
EXTRACT: note_off channel=3 note=69 velocity=0 time=0
EXTRACT: note_on channel=3 note=57 velocity=50 time=0
EXTRACT: note_on channel=3 note=64 velocity=50 time=0
EXTRACT: note_on channel=3 note=69 velocity=50 time=0
EXTRACT: note_off channel=1 note=69 velocity=0 time=0.731706
EXTRACT: note_off channel=1 note=81 velocity=0 time=0
EXTRACT: note_on channel=1 note=69 velocity=100 time=0
EXTRACT: note_on channel=1 note=81 velocity=70 time=0
EXTRACT: note_off channel=0 note=61 velocity=0 time=0
EXTRACT: note_on channel=0 note=62 velocity=90 time=0
EXTRACT: note_off channel=0 note=45 velocity=0 time=0
EXTRACT: note_off channel=0 note=52 velocity=0 time=0
EXTRACT: note_off channel=0 note=57 velocity=0 time=0
EXTRACT: note_on channel=0 note=50 velocity=78 time=0
EXTRACT: note_on channel=0 note=53 velocity=78 time=0
EXTRACT: note_on channel=0 note=57 velocity=78 time=0
EXTRACT: note_off channel=3 note=57 velocity=0 time=0
EXTRACT: note_off channel=3 note=64 velocity=0 time=0
EXTRACT: note_off channel=3 note=69 velocity=0 time=0
EXTRACT: note_on channel=3 note=62 velocity=50 time=0
EXTRACT: note_on channel=3 note=65 velocity=50 time=0
EXTRACT: note_on channel=3 note=69 velocity=50 time=0
EXTRACT: note_off channel=1 note=69 velocity=0 time=0.12042661249999999
EXTRACT: note_off channel=1 note=81 velocity=0 time=0
EXTRACT: note_on channel=1 note=65 velocity=100 time=0
EXTRACT: note_on channel=1 note=77 velocity=70 time=0
EXTRACT: note_off channel=1 note=65 velocity=0 time=0.12271319374999999
EXTRACT: note_off channel=1 note=77 velocity=0 time=0
EXTRACT: note_on channel=1 note=64 velocity=100 time=0
EXTRACT: note_on channel=1 note=76 velocity=70 time=0
EXTRACT: note_off channel=1 note=64 velocity=0 time=0.11432906249999998
EXTRACT: note_off channel=1 note=76 velocity=0 time=0
EXTRACT: note_on channel=1 note=62 velocity=100 time=0
EXTRACT: note_on channel=1 note=74 velocity=70 time=0
EXTRACT: note_off channel=1 note=62 velocity=0 time=0.731706
EXTRACT: note_off channel=1 note=74 velocity=0 time=0
EXTRACT: note_off channel=0 note=62 velocity=0 time=0.365853
EXTRACT: note_on channel=0 note=62 velocity=90 time=0
EXTRACT: note_off channel=0 note=50 velocity=0 time=0
EXTRACT: note_off channel=0 note=53 velocity=0 time=0
EXTRACT: note_off channel=0 note=57 velocity=0 time=0
EXTRACT: note_on channel=0 note=46 velocity=78 time=0
EXTRACT: note_on channel=0 note=53 velocity=78 time=0
EXTRACT: note_on channel=0 note=57 velocity=78 time=0
EXTRACT: note_off channel=3 note=62 velocity=0 time=0
EXTRACT: note_off channel=3 note=65 velocity=0 time=0
EXTRACT: note_off channel=3 note=69 velocity=0 time=0
EXTRACT: note_on channel=3 note=58 velocity=50 time=0
EXTRACT: note_on channel=3 note=65 velocity=50 time=0
EXTRACT: note_on channel=3 note=70 velocity=50 time=0
EXTRACT: note_on channel=1 note=60 velocity=100 time=0
EXTRACT: note_on channel=1 note=72 velocity=70 time=0
EXTRACT: note_on channel=0 note=56 velocity=90 time=0.30030433749999996
EXTRACT: note_off channel=1 note=60 velocity=0 time=0.0655486625
EXTRACT: note_off channel=1 note=72 velocity=0 time=0
EXTRACT: note_on channel=1 note=65 velocity=100 time=0
EXTRACT: note_on channel=1 note=77 velocity=70 time=0
EXTRACT: note_off channel=0 note=62 velocity=0 time=0
EXTRACT: note_on channel=0 note=57 velocity=90 time=0
EXTRACT: note_off channel=0 note=56 velocity=0 time=0
EXTRACT: note_off channel=0 note=46 velocity=0 time=0
EXTRACT: note_off channel=0 note=53 velocity=0 time=0
EXTRACT: note_off channel=0 note=57 velocity=0 time=0
EXTRACT: note_on channel=0 note=41 velocity=78 time=0
EXTRACT: note_on channel=0 note=53 velocity=78 time=0
EXTRACT: note_off channel=3 note=58 velocity=0 time=0
EXTRACT: note_off channel=3 note=65 velocity=0 time=0
EXTRACT: note_off channel=3 note=70 velocity=0 time=0
EXTRACT: note_on channel=3 note=53 velocity=50 time=0
EXTRACT: note_on channel=3 note=65 velocity=50 time=0
EXTRACT: note_off channel=1 note=65 velocity=0 time=0.365853
EXTRACT: note_off channel=1 note=77 velocity=0 time=0
EXTRACT: note_on channel=1 note=65 velocity=100 time=0
EXTRACT: note_on channel=1 note=77 velocity=70 time=0
EXTRACT: note_off channel=0 note=57 velocity=0 time=0
EXTRACT: note_on channel=0 note=60 velocity=90 time=0
EXTRACT: note_off channel=1 note=65 velocity=0 time=0.365853
EXTRACT: note_off channel=1 note=77 velocity=0 time=0
EXTRACT: note_on channel=1 note=65 velocity=100 time=0
EXTRACT: note_on channel=1 note=77 velocity=70 time=0
EXTRACT: note_off channel=0 note=60 velocity=0 time=0
EXTRACT: note_on channel=0 note=60 velocity=90 time=0
EXTRACT: note_off channel=1 note=65 velocity=0 time=0.365853
EXTRACT: note_off channel=1 note=77 velocity=0 time=0
EXTRACT: note_on channel=1 note=65 velocity=100 time=0
EXTRACT: note_on channel=1 note=77 velocity=70 time=0
EXTRACT: note_off channel=0 note=60 velocity=0 time=0
EXTRACT: note_on channel=0 note=57 velocity=90 time=0
EXTRACT: note_off channel=1 note=65 velocity=0 time=0.365853
EXTRACT: note_off channel=1 note=77 velocity=0 time=0
EXTRACT: note_on channel=1 note=64 velocity=100 time=0
EXTRACT: note_on channel=1 note=76 velocity=70 time=0
EXTRACT: note_off channel=0 note=57 velocity=0 time=0
EXTRACT: note_on channel=0 note=61 velocity=90 time=0
EXTRACT: note_off channel=0 note=41 velocity=0 time=0
EXTRACT: note_off channel=0 note=53 velocity=0 time=0
EXTRACT: note_on channel=0 note=45 velocity=78 time=0
EXTRACT: note_on channel=0 note=52 velocity=78 time=0
EXTRACT: note_on channel=0 note=57 velocity=78 time=0
EXTRACT: note_off channel=3 note=53 velocity=0 time=0
EXTRACT: note_off channel=3 note=65 velocity=0 time=0
EXTRACT: note_on channel=3 note=57 velocity=50 time=0
EXTRACT: note_on channel=3 note=64 velocity=50 time=0
EXTRACT: note_on channel=3 note=69 velocity=50 time=0
EXTRACT: note_off channel=1 note=64 velocity=0 time=0.365853
EXTRACT: note_off channel=1 note=76 velocity=0 time=0
EXTRACT: note_on channel=1 note=64 velocity=100 time=0
EXTRACT: note_on channel=1 note=76 velocity=70 time=0
EXTRACT: note_off channel=0 note=61 velocity=0 time=0
EXTRACT: note_on channel=0 note=61 velocity=90 time=0
EXTRACT: note_off channel=0 note=45 velocity=0 time=0
EXTRACT: note_off channel=0 note=52 velocity=0 time=0
EXTRACT: note_off channel=0 note=57 velocity=0 time=0
EXTRACT: note_on channel=0 note=45 velocity=78 time=0
EXTRACT: note_on channel=0 note=52 velocity=78 time=0
EXTRACT: note_on channel=0 note=57 velocity=78 time=0
EXTRACT: note_off channel=3 note=57 velocity=0 time=0
EXTRACT: note_off channel=3 note=64 velocity=0 time=0
EXTRACT: note_off channel=3 note=69 velocity=0 time=0
EXTRACT: note_on channel=3 note=57 velocity=50 time=0
EXTRACT: note_on channel=3 note=64 velocity=50 time=0
EXTRACT: note_on channel=3 note=69 velocity=50 time=0
EXTRACT: note_off channel=1 note=64 velocity=0 time=0.365853
EXTRACT: note_off channel=1 note=76 velocity=0 time=0
EXTRACT: note_on channel=1 note=64 velocity=100 time=0
EXTRACT: note_on channel=1 note=76 velocity=70 time=0
EXTRACT: note_off channel=1 note=64 velocity=0 time=0.365853
EXTRACT: note_off channel=1 note=76 velocity=0 time=0
EXTRACT: note_on channel=1 note=65 velocity=100 time=0
EXTRACT: note_on channel=1 note=77 velocity=70 time=0
EXTRACT: note_off channel=0 note=61 velocity=0 time=0
EXTRACT: note_on channel=0 note=62 velocity=90 time=0
EXTRACT: note_off channel=0 note=45 velocity=0 time=0
EXTRACT: note_off channel=0 note=52 velocity=0 time=0
EXTRACT: note_off channel=0 note=57 velocity=0 time=0
EXTRACT: note_on channel=0 note=50 velocity=78 time=0
EXTRACT: note_on channel=0 note=53 velocity=78 time=0
EXTRACT: note_on channel=0 note=57 velocity=78 time=0
EXTRACT: note_off channel=3 note=57 velocity=0 time=0
EXTRACT: note_off channel=3 note=64 velocity=0 time=0
EXTRACT: note_off channel=3 note=69 velocity=0 time=0
EXTRACT: note_on channel=3 note=62 velocity=50 time=0
EXTRACT: note_on channel=3 note=65 velocity=50 time=0
EXTRACT: note_on channel=3 note=69 velocity=50 time=0
EXTRACT: note_on channel=1 note=64 velocity=100 time=0.1829265
EXTRACT: note_on channel=1 note=76 velocity=70 time=0
EXTRACT: note_off channel=1 note=65 velocity=0 time=0.0030487749999999997
EXTRACT: note_off channel=1 note=77 velocity=0 time=0
EXTRACT: note_on channel=1 note=62 velocity=100 time=0.179877725
EXTRACT: note_on channel=1 note=74 velocity=70 time=0
EXTRACT: note_off channel=1 note=64 velocity=0 time=0.0030487749999999997
EXTRACT: note_off channel=1 note=76 velocity=0 time=0
EXTRACT: note_off channel=1 note=62 velocity=0 time=0.69130973125
EXTRACT: note_off channel=1 note=74 velocity=0 time=0
EXTRACT: note_off channel=0 note=62 velocity=0 time=0.40320049374999994
EXTRACT: note_on channel=0 note=62 velocity=90 time=0
EXTRACT: note_off channel=0 note=50 velocity=0 time=0
EXTRACT: note_off channel=0 note=53 velocity=0 time=0
EXTRACT: note_off channel=0 note=57 velocity=0 time=0
EXTRACT: note_on channel=0 note=46 velocity=78 time=0
EXTRACT: note_on channel=0 note=53 velocity=78 time=0
EXTRACT: note_on channel=0 note=57 velocity=78 time=0
EXTRACT: note_off channel=3 note=62 velocity=0 time=0
EXTRACT: note_off channel=3 note=65 velocity=0 time=0
EXTRACT: note_off channel=3 note=69 velocity=0 time=0
EXTRACT: note_on channel=3 note=58 velocity=50 time=0
EXTRACT: note_on channel=3 note=65 velocity=50 time=0
EXTRACT: note_on channel=3 note=70 velocity=50 time=0
EXTRACT: note_on channel=1 note=60 velocity=100 time=0
EXTRACT: note_on channel=1 note=72 velocity=70 time=0
EXTRACT: note_on channel=0 note=56 velocity=90 time=0.6661573375
EXTRACT: note_off channel=1 note=60 velocity=0 time=0.0655486625
EXTRACT: note_off channel=1 note=72 velocity=0 time=0
EXTRACT: note_on channel=1 note=69 velocity=100 time=0
EXTRACT: note_on channel=1 note=81 velocity=70 time=0
EXTRACT: note_off channel=0 note=62 velocity=0 time=0
EXTRACT: note_on channel=0 note=57 velocity=90 time=0
EXTRACT: note_off channel=0 note=56 velocity=0 time=0
EXTRACT: note_off channel=0 note=46 velocity=0 time=0
EXTRACT: note_off channel=0 note=53 velocity=0 time=0
EXTRACT: note_off channel=0 note=57 velocity=0 time=0
EXTRACT: note_on channel=0 note=41 velocity=78 time=0
EXTRACT: note_on channel=0 note=53 velocity=78 time=0
EXTRACT: note_off channel=3 note=58 velocity=0 time=0
EXTRACT: note_off channel=3 note=65 velocity=0 time=0
EXTRACT: note_off channel=3 note=70 velocity=0 time=0
EXTRACT: note_on channel=3 note=53 velocity=50 time=0
EXTRACT: note_on channel=3 note=65 velocity=50 time=0
EXTRACT: note_off channel=0 note=57 velocity=0 time=0.365853
EXTRACT: note_on channel=0 note=60 velocity=90 time=0
EXTRACT: note_off channel=1 note=69 velocity=0 time=0.365853
EXTRACT: note_off channel=1 note=81 velocity=0 time=0
EXTRACT: note_off channel=0 note=60 velocity=0 time=0
EXTRACT: note_on channel=0 note=60 velocity=90 time=0
EXTRACT: note_off channel=0 note=60 velocity=0 time=0.365853
EXTRACT: note_on channel=0 note=57 velocity=90 time=0
EXTRACT: note_off channel=0 note=57 velocity=0 time=0.365853
EXTRACT: note_on channel=0 note=61 velocity=90 time=0
EXTRACT: note_off channel=0 note=41 velocity=0 time=0
EXTRACT: note_off channel=0 note=53 velocity=0 time=0
EXTRACT: note_on channel=0 note=45 velocity=78 time=0
EXTRACT: note_on channel=0 note=52 velocity=78 time=0
EXTRACT: note_on channel=0 note=57 velocity=78 time=0
EXTRACT: note_off channel=3 note=53 velocity=0 time=0
EXTRACT: note_off channel=3 note=65 velocity=0 time=0
EXTRACT: note_on channel=3 note=57 velocity=50 time=0
EXTRACT: note_on channel=3 note=64 velocity=50 time=0
EXTRACT: note_on channel=3 note=69 velocity=50 time=0
EXTRACT: note_off channel=0 note=61 velocity=0 time=0.365853
EXTRACT: note_on channel=0 note=61 velocity=90 time=0
EXTRACT: note_off channel=0 note=45 velocity=0 time=0
EXTRACT: note_off channel=0 note=52 velocity=0 time=0
EXTRACT: note_off channel=0 note=57 velocity=0 time=0
EXTRACT: note_on channel=0 note=45 velocity=78 time=0
EXTRACT: note_on channel=0 note=52 velocity=78 time=0
EXTRACT: note_on channel=0 note=57 velocity=78 time=0
EXTRACT: note_off channel=3 note=57 velocity=0 time=0
EXTRACT: note_off channel=3 note=64 velocity=0 time=0
EXTRACT: note_off channel=3 note=69 velocity=0 time=0
EXTRACT: note_on channel=3 note=57 velocity=50 time=0
EXTRACT: note_on channel=3 note=64 velocity=50 time=0
EXTRACT: note_on channel=3 note=69 velocity=50 time=0
EXTRACT: note_on channel=1 note=69 velocity=100 time=0
EXTRACT: note_on channel=1 note=81 velocity=70 time=0
EXTRACT: note_off channel=1 note=69 velocity=0 time=0.365853
EXTRACT: note_off channel=1 note=81 velocity=0 time=0
EXTRACT: note_on channel=1 note=70 velocity=100 time=0
EXTRACT: note_on channel=1 note=82 velocity=70 time=0
EXTRACT: note_off channel=0 note=61 velocity=0 time=0
EXTRACT: note_on channel=0 note=62 velocity=90 time=0
EXTRACT: note_off channel=0 note=45 velocity=0 time=0
EXTRACT: note_off channel=0 note=52 velocity=0 time=0
EXTRACT: note_off channel=0 note=57 velocity=0 time=0
EXTRACT: note_on channel=0 note=50 velocity=78 time=0
EXTRACT: note_on channel=0 note=53 velocity=78 time=0
EXTRACT: note_on channel=0 note=57 velocity=78 time=0
EXTRACT: note_off channel=3 note=57 velocity=0 time=0
EXTRACT: note_off channel=3 note=64 velocity=0 time=0
EXTRACT: note_off channel=3 note=69 velocity=0 time=0
EXTRACT: note_on channel=3 note=62 velocity=50 time=0
EXTRACT: note_on channel=3 note=65 velocity=50 time=0
EXTRACT: note_on channel=3 note=69 velocity=50 time=0
EXTRACT: note_off channel=1 note=70 velocity=0 time=0.731706
EXTRACT: note_off channel=1 note=82 velocity=0 time=0
EXTRACT: note_on channel=1 note=69 velocity=100 time=0
EXTRACT: note_on channel=1 note=81 velocity=70 time=0
EXTRACT: note_off channel=1 note=69 velocity=0 time=0.731706
EXTRACT: note_off channel=1 note=81 velocity=0 time=0
EXTRACT: note_on channel=1 note=67 velocity=100 time=0
EXTRACT: note_on channel=1 note=79 velocity=70 time=0
EXTRACT: note_off channel=0 note=62 velocity=0 time=0
EXTRACT: note_on channel=0 note=62 velocity=90 time=0
EXTRACT: note_off channel=0 note=50 velocity=0 time=0
EXTRACT: note_off channel=0 note=53 velocity=0 time=0
EXTRACT: note_off channel=0 note=57 velocity=0 time=0
EXTRACT: note_on channel=0 note=46 velocity=78 time=0
EXTRACT: note_on channel=0 note=53 velocity=78 time=0
EXTRACT: note_on channel=0 note=58 velocity=78 time=0
EXTRACT: note_off channel=3 note=62 velocity=0 time=0
EXTRACT: note_off channel=3 note=65 velocity=0 time=0
EXTRACT: note_off channel=3 note=69 velocity=0 time=0
EXTRACT: note_on channel=3 note=58 velocity=50 time=0
EXTRACT: note_on channel=3 note=65 velocity=50 time=0
EXTRACT: note_on channel=3 note=70 velocity=50 time=0
EXTRACT: note_off channel=1 note=67 velocity=0 time=0.731706
EXTRACT: note_off channel=1 note=79 velocity=0 time=0
EXTRACT: note_on channel=1 note=65 velocity=100 time=0
EXTRACT: note_on channel=1 note=77 velocity=70 time=0
EXTRACT: note_off channel=1 note=65 velocity=0 time=0.731706
EXTRACT: note_off channel=1 note=77 velocity=0 time=0
EXTRACT: note_on channel=1 note=65 velocity=100 time=0
EXTRACT: note_on channel=1 note=77 velocity=70 time=0
EXTRACT: note_on channel=0 note=56 velocity=90 time=0.30030433749999996
EXTRACT: note_off channel=1 note=65 velocity=0 time=0.0655486625
EXTRACT: note_off channel=1 note=77 velocity=0 time=0
EXTRACT: note_on channel=1 note=69 velocity=100 time=0
EXTRACT: note_on channel=1 note=81 velocity=70 time=0
EXTRACT: note_off channel=0 note=62 velocity=0 time=0
EXTRACT: note_on channel=0 note=57 velocity=90 time=0
EXTRACT: note_off channel=0 note=56 velocity=0 time=0
EXTRACT: note_off channel=0 note=46 velocity=0 time=0
EXTRACT: note_off channel=0 note=53 velocity=0 time=0
EXTRACT: note_off channel=0 note=58 velocity=0 time=0
EXTRACT: note_on channel=0 note=41 velocity=78 time=0
EXTRACT: note_on channel=0 note=53 velocity=78 time=0
EXTRACT: note_off channel=3 note=58 velocity=0 time=0
EXTRACT: note_off channel=3 note=65 velocity=0 time=0
EXTRACT: note_off channel=3 note=70 velocity=0 time=0
EXTRACT: note_on channel=3 note=53 velocity=50 time=0
EXTRACT: note_on channel=3 note=65 velocity=50 time=0
EXTRACT: note_off channel=1 note=69 velocity=0 time=0.365853
EXTRACT: note_off channel=1 note=81 velocity=0 time=0
EXTRACT: note_on channel=1 note=72 velocity=100 time=0
EXTRACT: note_on channel=1 note=84 velocity=70 time=0
EXTRACT: note_off channel=0 note=57 velocity=0 time=0
EXTRACT: note_on channel=0 note=60 velocity=90 time=0
EXTRACT: note_off channel=1 note=72 velocity=0 time=0.365853
EXTRACT: note_off channel=1 note=84 velocity=0 time=0
EXTRACT: note_on channel=1 note=69 velocity=100 time=0
EXTRACT: note_on channel=1 note=81 velocity=70 time=0
EXTRACT: note_off channel=0 note=60 velocity=0 time=0
EXTRACT: note_on channel=0 note=60 velocity=90 time=0
EXTRACT: note_off channel=1 note=69 velocity=0 time=0.365853
EXTRACT: note_off channel=1 note=81 velocity=0 time=0
EXTRACT: note_on channel=1 note=65 velocity=100 time=0
EXTRACT: note_on channel=1 note=77 velocity=70 time=0
EXTRACT: note_off channel=0 note=60 velocity=0 time=0
EXTRACT: note_on channel=0 note=57 velocity=90 time=0
EXTRACT: note_off channel=1 note=65 velocity=0 time=0.365853
EXTRACT: note_off channel=1 note=77 velocity=0 time=0
EXTRACT: note_on channel=1 note=67 velocity=100 time=0
EXTRACT: note_on channel=1 note=79 velocity=70 time=0
EXTRACT: note_off channel=0 note=57 velocity=0 time=0
EXTRACT: note_on channel=0 note=60 velocity=90 time=0
EXTRACT: note_off channel=0 note=41 velocity=0 time=0
EXTRACT: note_off channel=0 note=53 velocity=0 time=0
EXTRACT: note_on channel=0 note=48 velocity=78 time=0
EXTRACT: note_on channel=0 note=52 velocity=78 time=0
EXTRACT: note_on channel=0 note=55 velocity=78 time=0
EXTRACT: note_off channel=3 note=53 velocity=0 time=0
EXTRACT: note_off channel=3 note=65 velocity=0 time=0
EXTRACT: note_on channel=3 note=60 velocity=50 time=0
EXTRACT: note_on channel=3 note=64 velocity=50 time=0
EXTRACT: note_on channel=3 note=67 velocity=50 time=0
EXTRACT: note_off channel=1 note=67 velocity=0 time=0.365853
EXTRACT: note_off channel=1 note=79 velocity=0 time=0
EXTRACT: note_on channel=1 note=67 velocity=100 time=0
EXTRACT: note_on channel=1 note=79 velocity=70 time=0
EXTRACT: note_off channel=0 note=60 velocity=0 time=0
EXTRACT: note_on channel=0 note=60 velocity=90 time=0
EXTRACT: note_off channel=0 note=48 velocity=0 time=0
EXTRACT: note_off channel=0 note=52 velocity=0 time=0
EXTRACT: note_off channel=0 note=55 velocity=0 time=0
EXTRACT: note_on channel=0 note=48 velocity=78 time=0
EXTRACT: note_on channel=0 note=52 velocity=78 time=0
EXTRACT: note_on channel=0 note=55 velocity=78 time=0
EXTRACT: note_off channel=3 note=60 velocity=0 time=0
EXTRACT: note_off channel=3 note=64 velocity=0 time=0
EXTRACT: note_off channel=3 note=67 velocity=0 time=0
EXTRACT: note_on channel=3 note=60 velocity=50 time=0
EXTRACT: note_on channel=3 note=64 velocity=50 time=0
EXTRACT: note_on channel=3 note=67 velocity=50 time=0
EXTRACT: note_off channel=1 note=67 velocity=0 time=0.731706
EXTRACT: note_off channel=1 note=79 velocity=0 time=0
EXTRACT: note_on channel=1 note=65 velocity=100 time=0
EXTRACT: note_on channel=1 note=77 velocity=70 time=0
EXTRACT: note_off channel=0 note=60 velocity=0 time=0
EXTRACT: note_on channel=0 note=57 velocity=90 time=0
EXTRACT: note_off channel=0 note=48 velocity=0 time=0
EXTRACT: note_off channel=0 note=52 velocity=0 time=0
EXTRACT: note_off channel=0 note=55 velocity=0 time=0
EXTRACT: note_on channel=0 note=41 velocity=78 time=0
EXTRACT: note_on channel=0 note=48 velocity=78 time=0
EXTRACT: note_on channel=0 note=53 velocity=78 time=0
EXTRACT: note_off channel=3 note=60 velocity=0 time=0
EXTRACT: note_off channel=3 note=64 velocity=0 time=0
EXTRACT: note_off channel=3 note=67 velocity=0 time=0
EXTRACT: note_on channel=3 note=53 velocity=50 time=0
EXTRACT: note_on channel=3 note=60 velocity=50 time=0
EXTRACT: note_on channel=3 note=65 velocity=50 time=0
EXTRACT: note_off channel=1 note=65 velocity=0 time=1.097559
EXTRACT: note_off channel=1 note=77 velocity=0 time=0
EXTRACT: note_on channel=1 note=65 velocity=100 time=0
EXTRACT: note_on channel=1 note=77 velocity=70 time=0
EXTRACT: note_on channel=0 note=56 velocity=90 time=0.6661573375
EXTRACT: note_off channel=1 note=65 velocity=0 time=0.0655486625
EXTRACT: note_off channel=1 note=77 velocity=0 time=0
EXTRACT: note_on channel=1 note=69 velocity=100 time=0
EXTRACT: note_on channel=1 note=81 velocity=70 time=0
EXTRACT: note_off channel=0 note=57 velocity=0 time=0
EXTRACT: note_on channel=0 note=57 velocity=90 time=0
EXTRACT: note_off channel=0 note=56 velocity=0 time=0
EXTRACT: note_off channel=0 note=41 velocity=0 time=0
EXTRACT: note_off channel=0 note=48 velocity=0 time=0
EXTRACT: note_off channel=0 note=53 velocity=0 time=0
EXTRACT: note_on channel=0 note=41 velocity=78 time=0
EXTRACT: note_on channel=0 note=53 velocity=78 time=0
EXTRACT: note_off channel=3 note=53 velocity=0 time=0
EXTRACT: note_off channel=3 note=60 velocity=0 time=0
EXTRACT: note_off channel=3 note=65 velocity=0 time=0
EXTRACT: note_on channel=3 note=53 velocity=50 time=0
EXTRACT: note_on channel=3 note=65 velocity=50 time=0
EXTRACT: note_off channel=0 note=57 velocity=0 time=0.365853
EXTRACT: note_on channel=0 note=60 velocity=90 time=0
EXTRACT: note_off channel=0 note=60 velocity=0 time=0.365853
EXTRACT: note_on channel=0 note=60 velocity=90 time=0
EXTRACT: note_off channel=0 note=60 velocity=0 time=0.365853
EXTRACT: note_on channel=0 note=57 velocity=90 time=0
EXTRACT: note_off channel=0 note=57 velocity=0 time=0.365853
EXTRACT: note_on channel=0 note=61 velocity=90 time=0
EXTRACT: note_off channel=0 note=41 velocity=0 time=0
EXTRACT: note_off channel=0 note=53 velocity=0 time=0
EXTRACT: note_on channel=0 note=45 velocity=78 time=0
EXTRACT: note_on channel=0 note=52 velocity=78 time=0
EXTRACT: note_on channel=0 note=57 velocity=78 time=0
EXTRACT: note_off channel=3 note=53 velocity=0 time=0
EXTRACT: note_off channel=3 note=65 velocity=0 time=0
EXTRACT: note_on channel=3 note=57 velocity=50 time=0
EXTRACT: note_on channel=3 note=64 velocity=50 time=0
EXTRACT: note_on channel=3 note=69 velocity=50 time=0
EXTRACT: note_off channel=1 note=69 velocity=0 time=0.365853
EXTRACT: note_off channel=1 note=81 velocity=0 time=0
EXTRACT: note_on channel=1 note=69 velocity=100 time=0
EXTRACT: note_on channel=1 note=81 velocity=70 time=0
EXTRACT: note_off channel=0 note=61 velocity=0 time=0
EXTRACT: note_on channel=0 note=61 velocity=90 time=0
EXTRACT: note_off channel=0 note=45 velocity=0 time=0
EXTRACT: note_off channel=0 note=52 velocity=0 time=0
EXTRACT: note_off channel=0 note=57 velocity=0 time=0
EXTRACT: note_on channel=0 note=45 velocity=78 time=0
EXTRACT: note_on channel=0 note=52 velocity=78 time=0
EXTRACT: note_on channel=0 note=57 velocity=78 time=0
EXTRACT: note_off channel=3 note=57 velocity=0 time=0
EXTRACT: note_off channel=3 note=64 velocity=0 time=0
EXTRACT: note_off channel=3 note=69 velocity=0 time=0
EXTRACT: note_on channel=3 note=57 velocity=50 time=0
EXTRACT: note_on channel=3 note=64 velocity=50 time=0
EXTRACT: note_on channel=3 note=69 velocity=50 time=0
EXTRACT: note_off channel=1 note=69 velocity=0 time=0.731706
EXTRACT: note_off channel=1 note=81 velocity=0 time=0
EXTRACT: note_on channel=1 note=69 velocity=100 time=0
EXTRACT: note_on channel=1 note=81 velocity=70 time=0
EXTRACT: note_off channel=0 note=61 velocity=0 time=0
EXTRACT: note_on channel=0 note=62 velocity=90 time=0
EXTRACT: note_off channel=0 note=45 velocity=0 time=0
EXTRACT: note_off channel=0 note=52 velocity=0 time=0
EXTRACT: note_off channel=0 note=57 velocity=0 time=0
EXTRACT: note_on channel=0 note=50 velocity=78 time=0
EXTRACT: note_on channel=0 note=53 velocity=78 time=0
EXTRACT: note_on channel=0 note=57 velocity=78 time=0
EXTRACT: note_off channel=3 note=57 velocity=0 time=0
EXTRACT: note_off channel=3 note=64 velocity=0 time=0
EXTRACT: note_off channel=3 note=69 velocity=0 time=0
EXTRACT: note_on channel=3 note=62 velocity=50 time=0
EXTRACT: note_on channel=3 note=65 velocity=50 time=0
EXTRACT: note_on channel=3 note=69 velocity=50 time=0
EXTRACT: note_off channel=1 note=69 velocity=0 time=0.12042661249999999
EXTRACT: note_off channel=1 note=81 velocity=0 time=0
EXTRACT: note_on channel=1 note=65 velocity=100 time=0
EXTRACT: note_on channel=1 note=77 velocity=70 time=0
EXTRACT: note_off channel=1 note=65 velocity=0 time=0.12271319374999999
EXTRACT: note_off channel=1 note=77 velocity=0 time=0
EXTRACT: note_on channel=1 note=64 velocity=100 time=0
EXTRACT: note_on channel=1 note=76 velocity=70 time=0
EXTRACT: note_off channel=1 note=64 velocity=0 time=0.11432906249999998
EXTRACT: note_off channel=1 note=76 velocity=0 time=0
EXTRACT: note_on channel=1 note=62 velocity=100 time=0
EXTRACT: note_on channel=1 note=74 velocity=70 time=0
EXTRACT: note_off channel=1 note=62 velocity=0 time=1.097559
EXTRACT: note_off channel=1 note=74 velocity=0 time=0
EXTRACT: note_off channel=0 note=62 velocity=0 time=0
EXTRACT: note_on channel=0 note=62 velocity=90 time=0
EXTRACT: note_off channel=0 note=50 velocity=0 time=0
EXTRACT: note_off channel=0 note=53 velocity=0 time=0
EXTRACT: note_off channel=0 note=57 velocity=0 time=0
EXTRACT: note_on channel=0 note=46 velocity=78 time=0
EXTRACT: note_on channel=0 note=53 velocity=78 time=0
EXTRACT: note_on channel=0 note=57 velocity=78 time=0
EXTRACT: note_off channel=3 note=62 velocity=0 time=0
EXTRACT: note_off channel=3 note=65 velocity=0 time=0
EXTRACT: note_off channel=3 note=69 velocity=0 time=0
EXTRACT: note_on channel=3 note=58 velocity=50 time=0
EXTRACT: note_on channel=3 note=65 velocity=50 time=0
EXTRACT: note_on channel=3 note=70 velocity=50 time=0
EXTRACT: note_on channel=1 note=60 velocity=100 time=0
EXTRACT: note_on channel=1 note=72 velocity=70 time=0
EXTRACT: note_on channel=0 note=56 velocity=90 time=0.30030433749999996
EXTRACT: note_off channel=1 note=60 velocity=0 time=0.0655486625
EXTRACT: note_off channel=1 note=72 velocity=0 time=0
EXTRACT: note_on channel=1 note=65 velocity=100 time=0
EXTRACT: note_on channel=1 note=77 velocity=70 time=0
EXTRACT: note_off channel=0 note=62 velocity=0 time=0
EXTRACT: note_on channel=0 note=57 velocity=90 time=0
EXTRACT: note_off channel=0 note=56 velocity=0 time=0
EXTRACT: note_off channel=0 note=46 velocity=0 time=0
EXTRACT: note_off channel=0 note=53 velocity=0 time=0
EXTRACT: note_off channel=0 note=57 velocity=0 time=0
EXTRACT: note_on channel=0 note=41 velocity=78 time=0
EXTRACT: note_on channel=0 note=53 velocity=78 time=0
EXTRACT: note_off channel=3 note=58 velocity=0 time=0
EXTRACT: note_off channel=3 note=65 velocity=0 time=0
EXTRACT: note_off channel=3 note=70 velocity=0 time=0
EXTRACT: note_on channel=3 note=53 velocity=50 time=0
EXTRACT: note_on channel=3 note=65 velocity=50 time=0
EXTRACT: note_off channel=1 note=65 velocity=0 time=0.365853
EXTRACT: note_off channel=1 note=77 velocity=0 time=0
EXTRACT: note_on channel=1 note=65 velocity=100 time=0
EXTRACT: note_on channel=1 note=77 velocity=70 time=0
EXTRACT: note_off channel=0 note=57 velocity=0 time=0
EXTRACT: note_on channel=0 note=60 velocity=90 time=0
EXTRACT: note_off channel=1 note=65 velocity=0 time=0.365853
EXTRACT: note_off channel=1 note=77 velocity=0 time=0
EXTRACT: note_on channel=1 note=65 velocity=100 time=0
EXTRACT: note_on channel=1 note=77 velocity=70 time=0
EXTRACT: note_off channel=0 note=60 velocity=0 time=0
EXTRACT: note_on channel=0 note=60 velocity=90 time=0
EXTRACT: note_off channel=1 note=65 velocity=0 time=0.365853
EXTRACT: note_off channel=1 note=77 velocity=0 time=0
EXTRACT: note_on channel=1 note=65 velocity=100 time=0
EXTRACT: note_on channel=1 note=77 velocity=70 time=0
EXTRACT: note_off channel=0 note=60 velocity=0 time=0
EXTRACT: note_on channel=0 note=57 velocity=90 time=0
EXTRACT: note_off channel=1 note=65 velocity=0 time=0.365853
EXTRACT: note_off channel=1 note=77 velocity=0 time=0
EXTRACT: note_on channel=1 note=64 velocity=100 time=0
EXTRACT: note_on channel=1 note=76 velocity=70 time=0
EXTRACT: note_off channel=0 note=57 velocity=0 time=0
EXTRACT: note_on channel=0 note=61 velocity=90 time=0
EXTRACT: note_off channel=0 note=41 velocity=0 time=0
EXTRACT: note_off channel=0 note=53 velocity=0 time=0
EXTRACT: note_on channel=0 note=45 velocity=78 time=0
EXTRACT: note_on channel=0 note=52 velocity=78 time=0
EXTRACT: note_on channel=0 note=57 velocity=78 time=0
EXTRACT: note_off channel=3 note=53 velocity=0 time=0
EXTRACT: note_off channel=3 note=65 velocity=0 time=0
EXTRACT: note_on channel=3 note=57 velocity=50 time=0
EXTRACT: note_on channel=3 note=64 velocity=50 time=0
EXTRACT: note_on channel=3 note=69 velocity=50 time=0
EXTRACT: note_off channel=1 note=64 velocity=0 time=0.365853
EXTRACT: note_off channel=1 note=76 velocity=0 time=0
EXTRACT: note_on channel=1 note=64 velocity=100 time=0
EXTRACT: note_on channel=1 note=76 velocity=70 time=0
EXTRACT: note_off channel=0 note=61 velocity=0 time=0
EXTRACT: note_on channel=0 note=61 velocity=90 time=0
EXTRACT: note_off channel=0 note=45 velocity=0 time=0
EXTRACT: note_off channel=0 note=52 velocity=0 time=0
EXTRACT: note_off channel=0 note=57 velocity=0 time=0
EXTRACT: note_on channel=0 note=45 velocity=78 time=0
EXTRACT: note_on channel=0 note=52 velocity=78 time=0
EXTRACT: note_on channel=0 note=57 velocity=78 time=0
EXTRACT: note_off channel=3 note=57 velocity=0 time=0
EXTRACT: note_off channel=3 note=64 velocity=0 time=0
EXTRACT: note_off channel=3 note=69 velocity=0 time=0
EXTRACT: note_on channel=3 note=57 velocity=50 time=0
EXTRACT: note_on channel=3 note=64 velocity=50 time=0
EXTRACT: note_on channel=3 note=69 velocity=50 time=0
EXTRACT: note_off channel=1 note=64 velocity=0 time=0.365853
EXTRACT: note_off channel=1 note=76 velocity=0 time=0
EXTRACT: note_on channel=1 note=64 velocity=100 time=0
EXTRACT: note_on channel=1 note=76 velocity=70 time=0
EXTRACT: note_off channel=1 note=64 velocity=0 time=0.365853
EXTRACT: note_off channel=1 note=76 velocity=0 time=0
EXTRACT: note_on channel=1 note=65 velocity=100 time=0
EXTRACT: note_on channel=1 note=77 velocity=70 time=0
EXTRACT: note_off channel=0 note=61 velocity=0 time=0
EXTRACT: note_on channel=0 note=62 velocity=90 time=0
EXTRACT: note_off channel=0 note=45 velocity=0 time=0
EXTRACT: note_off channel=0 note=52 velocity=0 time=0
EXTRACT: note_off channel=0 note=57 velocity=0 time=0
EXTRACT: note_on channel=0 note=50 velocity=78 time=0
EXTRACT: note_on channel=0 note=53 velocity=78 time=0
EXTRACT: note_on channel=0 note=57 velocity=78 time=0
EXTRACT: note_off channel=3 note=57 velocity=0 time=0
EXTRACT: note_off channel=3 note=64 velocity=0 time=0
EXTRACT: note_off channel=3 note=69 velocity=0 time=0
EXTRACT: note_on channel=3 note=62 velocity=50 time=0
EXTRACT: note_on channel=3 note=65 velocity=50 time=0
EXTRACT: note_on channel=3 note=69 velocity=50 time=0
EXTRACT: note_on channel=1 note=64 velocity=100 time=0.1829265
EXTRACT: note_on channel=1 note=76 velocity=70 time=0
EXTRACT: note_off channel=1 note=65 velocity=0 time=0.0030487749999999997
EXTRACT: note_off channel=1 note=77 velocity=0 time=0
EXTRACT: note_on channel=1 note=62 velocity=100 time=0.179877725
EXTRACT: note_on channel=1 note=74 velocity=70 time=0
EXTRACT: note_off channel=1 note=64 velocity=0 time=0.0030487749999999997
EXTRACT: note_off channel=1 note=76 velocity=0 time=0
EXTRACT: note_off channel=1 note=62 velocity=0 time=0.69130973125
EXTRACT: note_off channel=1 note=74 velocity=0 time=0
EXTRACT: note_off channel=0 note=62 velocity=0 time=0.40320049374999994
EXTRACT: note_on channel=0 note=62 velocity=90 time=0
EXTRACT: note_off channel=0 note=50 velocity=0 time=0
EXTRACT: note_off channel=0 note=53 velocity=0 time=0
EXTRACT: note_off channel=0 note=57 velocity=0 time=0
EXTRACT: note_on channel=0 note=46 velocity=78 time=0
EXTRACT: note_on channel=0 note=53 velocity=78 time=0
EXTRACT: note_on channel=0 note=57 velocity=78 time=0
EXTRACT: note_off channel=3 note=62 velocity=0 time=0
EXTRACT: note_off channel=3 note=65 velocity=0 time=0
EXTRACT: note_off channel=3 note=69 velocity=0 time=0
EXTRACT: note_on channel=3 note=58 velocity=50 time=0
EXTRACT: note_on channel=3 note=65 velocity=50 time=0
EXTRACT: note_on channel=3 note=69 velocity=50 time=0
EXTRACT: note_on channel=1 note=60 velocity=100 time=0
EXTRACT: note_on channel=1 note=72 velocity=70 time=0
EXTRACT: note_on channel=0 note=56 velocity=90 time=0.6661573375
EXTRACT: note_off channel=1 note=60 velocity=0 time=0.0655486625
EXTRACT: note_off channel=1 note=72 velocity=0 time=0
EXTRACT: note_on channel=1 note=69 velocity=100 time=0
EXTRACT: note_on channel=1 note=81 velocity=70 time=0
EXTRACT: note_off channel=0 note=62 velocity=0 time=0
EXTRACT: note_on channel=0 note=57 velocity=90 time=0
EXTRACT: note_off channel=0 note=56 velocity=0 time=0
EXTRACT: note_off channel=0 note=46 velocity=0 time=0
EXTRACT: note_off channel=0 note=53 velocity=0 time=0
EXTRACT: note_off channel=0 note=57 velocity=0 time=0
EXTRACT: note_on channel=0 note=41 velocity=78 time=0
EXTRACT: note_on channel=0 note=53 velocity=78 time=0
EXTRACT: note_off channel=3 note=58 velocity=0 time=0
EXTRACT: note_off channel=3 note=65 velocity=0 time=0
EXTRACT: note_off channel=3 note=69 velocity=0 time=0
EXTRACT: note_on channel=3 note=53 velocity=50 time=0
EXTRACT: note_on channel=3 note=65 velocity=50 time=0
EXTRACT: note_off channel=0 note=57 velocity=0 time=0.365853
EXTRACT: note_on channel=0 note=60 velocity=90 time=0
EXTRACT: note_off channel=1 note=69 velocity=0 time=0.365853
EXTRACT: note_off channel=1 note=81 velocity=0 time=0
EXTRACT: note_off channel=0 note=60 velocity=0 time=0
EXTRACT: note_on channel=0 note=60 velocity=90 time=0
EXTRACT: note_off channel=0 note=60 velocity=0 time=0.365853
EXTRACT: note_on channel=0 note=57 velocity=90 time=0
EXTRACT: note_off channel=0 note=57 velocity=0 time=0.365853
EXTRACT: note_on channel=0 note=61 velocity=90 time=0
EXTRACT: note_off channel=0 note=41 velocity=0 time=0
EXTRACT: note_off channel=0 note=53 velocity=0 time=0
EXTRACT: note_on channel=0 note=45 velocity=78 time=0
EXTRACT: note_on channel=0 note=52 velocity=78 time=0
EXTRACT: note_on channel=0 note=57 velocity=78 time=0
EXTRACT: note_off channel=3 note=53 velocity=0 time=0
EXTRACT: note_off channel=3 note=65 velocity=0 time=0
EXTRACT: note_on channel=3 note=57 velocity=50 time=0
EXTRACT: note_on channel=3 note=64 velocity=50 time=0
EXTRACT: note_on channel=3 note=69 velocity=50 time=0
EXTRACT: note_off channel=0 note=61 velocity=0 time=0.365853
EXTRACT: note_on channel=0 note=61 velocity=90 time=0
EXTRACT: note_off channel=0 note=45 velocity=0 time=0
EXTRACT: note_off channel=0 note=52 velocity=0 time=0
EXTRACT: note_off channel=0 note=57 velocity=0 time=0
EXTRACT: note_on channel=0 note=45 velocity=78 time=0
EXTRACT: note_on channel=0 note=52 velocity=78 time=0
EXTRACT: note_on channel=0 note=57 velocity=78 time=0
EXTRACT: note_off channel=3 note=57 velocity=0 time=0
EXTRACT: note_off channel=3 note=64 velocity=0 time=0
EXTRACT: note_off channel=3 note=69 velocity=0 time=0
EXTRACT: note_on channel=3 note=57 velocity=50 time=0
EXTRACT: note_on channel=3 note=64 velocity=50 time=0
EXTRACT: note_on channel=3 note=69 velocity=50 time=0
EXTRACT: note_on channel=1 note=69 velocity=100 time=0
EXTRACT: note_on channel=1 note=81 velocity=70 time=0
EXTRACT: note_off channel=1 note=69 velocity=0 time=0.365853
EXTRACT: note_off channel=1 note=81 velocity=0 time=0
EXTRACT: note_on channel=1 note=70 velocity=100 time=0
EXTRACT: note_on channel=1 note=82 velocity=70 time=0
EXTRACT: note_off channel=0 note=61 velocity=0 time=0
EXTRACT: note_on channel=0 note=62 velocity=90 time=0
EXTRACT: note_off channel=0 note=45 velocity=0 time=0
EXTRACT: note_off channel=0 note=52 velocity=0 time=0
EXTRACT: note_off channel=0 note=57 velocity=0 time=0
EXTRACT: note_on channel=0 note=50 velocity=78 time=0
EXTRACT: note_on channel=0 note=53 velocity=78 time=0
EXTRACT: note_on channel=0 note=57 velocity=78 time=0
EXTRACT: note_off channel=3 note=57 velocity=0 time=0
EXTRACT: note_off channel=3 note=64 velocity=0 time=0
EXTRACT: note_off channel=3 note=69 velocity=0 time=0
EXTRACT: note_on channel=3 note=62 velocity=50 time=0
EXTRACT: note_on channel=3 note=65 velocity=50 time=0
EXTRACT: note_on channel=3 note=69 velocity=50 time=0
EXTRACT: note_off channel=1 note=70 velocity=0 time=0.731706
EXTRACT: note_off channel=1 note=82 velocity=0 time=0
EXTRACT: note_on channel=1 note=69 velocity=100 time=0
EXTRACT: note_on channel=1 note=81 velocity=70 time=0
EXTRACT: note_off channel=1 note=69 velocity=0 time=0.731706
EXTRACT: note_off channel=1 note=81 velocity=0 time=0
EXTRACT: note_on channel=1 note=67 velocity=100 time=0
EXTRACT: note_on channel=1 note=79 velocity=70 time=0
EXTRACT: note_off channel=0 note=62 velocity=0 time=0
EXTRACT: note_on channel=0 note=62 velocity=90 time=0
EXTRACT: note_off channel=0 note=50 velocity=0 time=0
EXTRACT: note_off channel=0 note=53 velocity=0 time=0
EXTRACT: note_off channel=0 note=57 velocity=0 time=0
EXTRACT: note_on channel=0 note=46 velocity=78 time=0
EXTRACT: note_on channel=0 note=53 velocity=78 time=0
EXTRACT: note_on channel=0 note=58 velocity=78 time=0
EXTRACT: note_off channel=3 note=62 velocity=0 time=0
EXTRACT: note_off channel=3 note=65 velocity=0 time=0
EXTRACT: note_off channel=3 note=69 velocity=0 time=0
EXTRACT: note_on channel=3 note=58 velocity=50 time=0
EXTRACT: note_on channel=3 note=65 velocity=50 time=0
EXTRACT: note_on channel=3 note=70 velocity=50 time=0
EXTRACT: note_off channel=1 note=67 velocity=0 time=0.731706
EXTRACT: note_off channel=1 note=79 velocity=0 time=0
EXTRACT: note_on channel=1 note=65 velocity=100 time=0
EXTRACT: note_on channel=1 note=77 velocity=70 time=0
EXTRACT: note_off channel=1 note=65 velocity=0 time=0.731706
EXTRACT: note_off channel=1 note=77 velocity=0 time=0
EXTRACT: note_on channel=1 note=65 velocity=100 time=0
EXTRACT: note_on channel=1 note=77 velocity=70 time=0
EXTRACT: note_on channel=0 note=56 velocity=90 time=0.30030433749999996
EXTRACT: note_off channel=1 note=65 velocity=0 time=0.0655486625
EXTRACT: note_off channel=1 note=77 velocity=0 time=0
EXTRACT: note_on channel=1 note=69 velocity=100 time=0
EXTRACT: note_on channel=1 note=81 velocity=70 time=0
EXTRACT: note_off channel=0 note=62 velocity=0 time=0
EXTRACT: note_on channel=0 note=57 velocity=90 time=0
EXTRACT: note_off channel=0 note=56 velocity=0 time=0
EXTRACT: note_off channel=0 note=46 velocity=0 time=0
EXTRACT: note_off channel=0 note=53 velocity=0 time=0
EXTRACT: note_off channel=0 note=58 velocity=0 time=0
EXTRACT: note_on channel=0 note=41 velocity=78 time=0
EXTRACT: note_on channel=0 note=53 velocity=78 time=0
EXTRACT: note_off channel=3 note=58 velocity=0 time=0
EXTRACT: note_off channel=3 note=65 velocity=0 time=0
EXTRACT: note_off channel=3 note=70 velocity=0 time=0
EXTRACT: note_on channel=3 note=53 velocity=50 time=0
EXTRACT: note_on channel=3 note=65 velocity=50 time=0
EXTRACT: note_off channel=1 note=69 velocity=0 time=0.365853
EXTRACT: note_off channel=1 note=81 velocity=0 time=0
EXTRACT: note_on channel=1 note=72 velocity=100 time=0
EXTRACT: note_on channel=1 note=84 velocity=70 time=0
EXTRACT: note_off channel=0 note=57 velocity=0 time=0
EXTRACT: note_on channel=0 note=60 velocity=90 time=0
EXTRACT: note_off channel=1 note=72 velocity=0 time=0.365853
EXTRACT: note_off channel=1 note=84 velocity=0 time=0
EXTRACT: note_on channel=1 note=69 velocity=100 time=0
EXTRACT: note_on channel=1 note=81 velocity=70 time=0
EXTRACT: note_off channel=0 note=60 velocity=0 time=0
EXTRACT: note_on channel=0 note=60 velocity=90 time=0
EXTRACT: note_off channel=1 note=69 velocity=0 time=0.365853
EXTRACT: note_off channel=1 note=81 velocity=0 time=0
EXTRACT: note_on channel=1 note=65 velocity=100 time=0
EXTRACT: note_on channel=1 note=77 velocity=70 time=0
EXTRACT: note_off channel=0 note=60 velocity=0 time=0
EXTRACT: note_on channel=0 note=57 velocity=90 time=0
EXTRACT: note_off channel=1 note=65 velocity=0 time=0.365853
EXTRACT: note_off channel=1 note=77 velocity=0 time=0
EXTRACT: note_on channel=1 note=67 velocity=100 time=0
EXTRACT: note_on channel=1 note=79 velocity=70 time=0
EXTRACT: note_off channel=0 note=57 velocity=0 time=0
EXTRACT: note_on channel=0 note=60 velocity=90 time=0
EXTRACT: note_off channel=0 note=41 velocity=0 time=0
EXTRACT: note_off channel=0 note=53 velocity=0 time=0
EXTRACT: note_on channel=0 note=48 velocity=78 time=0
EXTRACT: note_on channel=0 note=52 velocity=78 time=0
EXTRACT: note_on channel=0 note=55 velocity=78 time=0
EXTRACT: note_off channel=3 note=53 velocity=0 time=0
EXTRACT: note_off channel=3 note=65 velocity=0 time=0
EXTRACT: note_on channel=3 note=60 velocity=50 time=0
EXTRACT: note_on channel=3 note=64 velocity=50 time=0
EXTRACT: note_on channel=3 note=67 velocity=50 time=0
EXTRACT: note_off channel=1 note=67 velocity=0 time=0.365853
EXTRACT: note_off channel=1 note=79 velocity=0 time=0
EXTRACT: note_on channel=1 note=67 velocity=100 time=0
EXTRACT: note_on channel=1 note=79 velocity=70 time=0
EXTRACT: note_off channel=0 note=60 velocity=0 time=0
EXTRACT: note_on channel=0 note=60 velocity=90 time=0
EXTRACT: note_off channel=0 note=48 velocity=0 time=0
EXTRACT: note_off channel=0 note=52 velocity=0 time=0
EXTRACT: note_off channel=0 note=55 velocity=0 time=0
EXTRACT: note_on channel=0 note=48 velocity=78 time=0
EXTRACT: note_on channel=0 note=52 velocity=78 time=0
EXTRACT: note_on channel=0 note=55 velocity=78 time=0
EXTRACT: note_off channel=3 note=60 velocity=0 time=0
EXTRACT: note_off channel=3 note=64 velocity=0 time=0
EXTRACT: note_off channel=3 note=67 velocity=0 time=0
EXTRACT: note_on channel=3 note=60 velocity=50 time=0
EXTRACT: note_on channel=3 note=64 velocity=50 time=0
EXTRACT: note_on channel=3 note=67 velocity=50 time=0
EXTRACT: note_off channel=1 note=67 velocity=0 time=0.731706
EXTRACT: note_off channel=1 note=79 velocity=0 time=0
EXTRACT: note_on channel=1 note=65 velocity=100 time=0
EXTRACT: note_on channel=1 note=77 velocity=70 time=0
EXTRACT: note_off channel=0 note=60 velocity=0 time=0
EXTRACT: note_on channel=0 note=57 velocity=90 time=0
EXTRACT: note_off channel=0 note=48 velocity=0 time=0
EXTRACT: note_off channel=0 note=52 velocity=0 time=0
EXTRACT: note_off channel=0 note=55 velocity=0 time=0
EXTRACT: note_on channel=0 note=41 velocity=78 time=0
EXTRACT: note_on channel=0 note=48 velocity=78 time=0
EXTRACT: note_on channel=0 note=53 velocity=78 time=0
EXTRACT: note_off channel=3 note=60 velocity=0 time=0
EXTRACT: note_off channel=3 note=64 velocity=0 time=0
EXTRACT: note_off channel=3 note=67 velocity=0 time=0
EXTRACT: note_on channel=3 note=53 velocity=50 time=0
EXTRACT: note_on channel=3 note=60 velocity=50 time=0
EXTRACT: note_on channel=3 note=65 velocity=50 time=0
EXTRACT: note_off channel=1 note=65 velocity=0 time=1.097559
EXTRACT: note_off channel=1 note=77 velocity=0 time=0
EXTRACT: note_on channel=1 note=65 velocity=100 time=0
EXTRACT: note_on channel=1 note=77 velocity=70 time=0
EXTRACT: note_on channel=0 note=56 velocity=90 time=0.30030433749999996
EXTRACT: note_off channel=1 note=65 velocity=0 time=0.0655486625
EXTRACT: note_off channel=1 note=77 velocity=0 time=0
EXTRACT: note_on channel=1 note=69 velocity=100 time=0
EXTRACT: note_on channel=1 note=81 velocity=70 time=0
EXTRACT: note_off channel=0 note=57 velocity=0 time=0
EXTRACT: note_on channel=0 note=57 velocity=90 time=0
EXTRACT: note_off channel=0 note=56 velocity=0 time=0
EXTRACT: note_off channel=0 note=41 velocity=0 time=0
EXTRACT: note_off channel=0 note=48 velocity=0 time=0
EXTRACT: note_off channel=0 note=53 velocity=0 time=0
EXTRACT: note_on channel=0 note=41 velocity=78 time=0
EXTRACT: note_on channel=0 note=53 velocity=78 time=0
EXTRACT: note_off channel=3 note=53 velocity=0 time=0
EXTRACT: note_off channel=3 note=60 velocity=0 time=0
EXTRACT: note_off channel=3 note=65 velocity=0 time=0
EXTRACT: note_on channel=3 note=53 velocity=50 time=0
EXTRACT: note_on channel=3 note=65 velocity=50 time=0
EXTRACT: note_off channel=1 note=69 velocity=0 time=0.365853
EXTRACT: note_off channel=1 note=81 velocity=0 time=0
EXTRACT: note_on channel=1 note=72 velocity=100 time=0
EXTRACT: note_on channel=1 note=84 velocity=70 time=0
EXTRACT: note_off channel=0 note=57 velocity=0 time=0
EXTRACT: note_on channel=0 note=60 velocity=90 time=0
EXTRACT: note_off channel=1 note=72 velocity=0 time=0.365853
EXTRACT: note_off channel=1 note=84 velocity=0 time=0
EXTRACT: note_on channel=1 note=69 velocity=100 time=0
EXTRACT: note_on channel=1 note=81 velocity=70 time=0
EXTRACT: note_off channel=0 note=60 velocity=0 time=0
EXTRACT: note_on channel=0 note=60 velocity=90 time=0
EXTRACT: note_off channel=1 note=69 velocity=0 time=0.365853
EXTRACT: note_off channel=1 note=81 velocity=0 time=0
EXTRACT: note_on channel=1 note=65 velocity=100 time=0
EXTRACT: note_on channel=1 note=77 velocity=70 time=0
EXTRACT: note_off channel=0 note=60 velocity=0 time=0
EXTRACT: note_on channel=0 note=57 velocity=90 time=0
EXTRACT: note_off channel=1 note=65 velocity=0 time=0.365853
EXTRACT: note_off channel=1 note=77 velocity=0 time=0
EXTRACT: note_on channel=1 note=67 velocity=100 time=0
EXTRACT: note_on channel=1 note=79 velocity=70 time=0
EXTRACT: note_off channel=0 note=57 velocity=0 time=0
EXTRACT: note_on channel=0 note=61 velocity=90 time=0
EXTRACT: note_off channel=0 note=41 velocity=0 time=0
EXTRACT: note_off channel=0 note=53 velocity=0 time=0
EXTRACT: note_on channel=0 note=45 velocity=78 time=0
EXTRACT: note_on channel=0 note=52 velocity=78 time=0
EXTRACT: note_on channel=0 note=57 velocity=78 time=0
EXTRACT: note_off channel=3 note=53 velocity=0 time=0
EXTRACT: note_off channel=3 note=65 velocity=0 time=0
EXTRACT: note_on channel=3 note=57 velocity=50 time=0
EXTRACT: note_on channel=3 note=64 velocity=50 time=0
EXTRACT: note_on channel=3 note=69 velocity=50 time=0
EXTRACT: note_off channel=1 note=67 velocity=0 time=0.365853
EXTRACT: note_off channel=1 note=79 velocity=0 time=0
EXTRACT: note_on channel=1 note=67 velocity=100 time=0
EXTRACT: note_on channel=1 note=79 velocity=70 time=0
EXTRACT: note_off channel=0 note=61 velocity=0 time=0
EXTRACT: note_on channel=0 note=61 velocity=90 time=0
EXTRACT: note_off channel=0 note=45 velocity=0 time=0
EXTRACT: note_off channel=0 note=52 velocity=0 time=0
EXTRACT: note_off channel=0 note=57 velocity=0 time=0
EXTRACT: note_on channel=0 note=45 velocity=78 time=0
EXTRACT: note_on channel=0 note=52 velocity=78 time=0
EXTRACT: note_on channel=0 note=57 velocity=78 time=0
EXTRACT: note_off channel=3 note=57 velocity=0 time=0
EXTRACT: note_off channel=3 note=64 velocity=0 time=0
EXTRACT: note_off channel=3 note=69 velocity=0 time=0
EXTRACT: note_on channel=3 note=57 velocity=50 time=0
EXTRACT: note_on channel=3 note=64 velocity=50 time=0
EXTRACT: note_on channel=3 note=69 velocity=50 time=0
EXTRACT: note_off channel=1 note=67 velocity=0 time=0.731706
EXTRACT: note_off channel=1 note=79 velocity=0 time=0
EXTRACT: note_on channel=1 note=65 velocity=100 time=0
EXTRACT: note_on channel=1 note=77 velocity=70 time=0
EXTRACT: note_off channel=0 note=61 velocity=0 time=0
EXTRACT: note_on channel=0 note=62 velocity=90 time=0
EXTRACT: note_off channel=0 note=45 velocity=0 time=0
EXTRACT: note_off channel=0 note=52 velocity=0 time=0
EXTRACT: note_off channel=0 note=57 velocity=0 time=0
EXTRACT: note_on channel=0 note=50 velocity=78 time=0
EXTRACT: note_on channel=0 note=53 velocity=78 time=0
EXTRACT: note_on channel=0 note=57 velocity=78 time=0
EXTRACT: note_off channel=3 note=57 velocity=0 time=0
EXTRACT: note_off channel=3 note=64 velocity=0 time=0
EXTRACT: note_off channel=3 note=69 velocity=0 time=0
EXTRACT: note_on channel=3 note=62 velocity=50 time=0
EXTRACT: note_on channel=3 note=65 velocity=50 time=0
EXTRACT: note_on channel=3 note=69 velocity=50 time=0
EXTRACT: note_off channel=1 note=65 velocity=0 time=1.097559
EXTRACT: note_off channel=1 note=77 velocity=0 time=0
EXTRACT: note_off channel=0 note=62 velocity=0 time=0.365853
EXTRACT: note_on channel=0 note=62 velocity=90 time=0
EXTRACT: note_off channel=0 note=50 velocity=0 time=0
EXTRACT: note_off channel=0 note=53 velocity=0 time=0
EXTRACT: note_off channel=0 note=57 velocity=0 time=0
EXTRACT: note_on channel=0 note=46 velocity=78 time=0
EXTRACT: note_on channel=0 note=53 velocity=78 time=0
EXTRACT: note_on channel=0 note=58 velocity=78 time=0
EXTRACT: note_off channel=3 note=62 velocity=0 time=0
EXTRACT: note_off channel=3 note=65 velocity=0 time=0
EXTRACT: note_off channel=3 note=69 velocity=0 time=0
EXTRACT: note_on channel=3 note=58 velocity=50 time=0
EXTRACT: note_on channel=3 note=65 velocity=50 time=0
EXTRACT: note_on channel=3 note=70 velocity=50 time=0
EXTRACT: note_on channel=1 note=65 velocity=100 time=0
EXTRACT: note_on channel=1 note=77 velocity=70 time=0
EXTRACT: note_on channel=0 note=56 velocity=90 time=0.30030433749999996
EXTRACT: note_off channel=1 note=65 velocity=0 time=0.0655486625
EXTRACT: note_off channel=1 note=77 velocity=0 time=0
EXTRACT: note_on channel=1 note=69 velocity=100 time=0
EXTRACT: note_on channel=1 note=81 velocity=70 time=0
EXTRACT: note_off channel=0 note=62 velocity=0 time=0
EXTRACT: note_on channel=0 note=57 velocity=90 time=0
EXTRACT: note_off channel=0 note=56 velocity=0 time=0
EXTRACT: note_off channel=0 note=46 velocity=0 time=0
EXTRACT: note_off channel=0 note=53 velocity=0 time=0
EXTRACT: note_off channel=0 note=58 velocity=0 time=0
EXTRACT: note_on channel=0 note=41 velocity=78 time=0
EXTRACT: note_on channel=0 note=53 velocity=78 time=0
EXTRACT: note_off channel=3 note=58 velocity=0 time=0
EXTRACT: note_off channel=3 note=65 velocity=0 time=0
EXTRACT: note_off channel=3 note=70 velocity=0 time=0
EXTRACT: note_on channel=3 note=53 velocity=50 time=0
EXTRACT: note_on channel=3 note=65 velocity=50 time=0
EXTRACT: note_off channel=1 note=69 velocity=0 time=0.365853
EXTRACT: note_off channel=1 note=81 velocity=0 time=0
EXTRACT: note_on channel=1 note=72 velocity=100 time=0
EXTRACT: note_on channel=1 note=84 velocity=70 time=0
EXTRACT: note_off channel=0 note=57 velocity=0 time=0
EXTRACT: note_on channel=0 note=60 velocity=90 time=0
EXTRACT: note_off channel=1 note=72 velocity=0 time=0.365853
EXTRACT: note_off channel=1 note=84 velocity=0 time=0
EXTRACT: note_on channel=1 note=69 velocity=100 time=0
EXTRACT: note_on channel=1 note=81 velocity=70 time=0
EXTRACT: note_off channel=0 note=60 velocity=0 time=0
EXTRACT: note_on channel=0 note=60 velocity=90 time=0
EXTRACT: note_off channel=1 note=69 velocity=0 time=0.365853
EXTRACT: note_off channel=1 note=81 velocity=0 time=0
EXTRACT: note_on channel=1 note=65 velocity=100 time=0
EXTRACT: note_on channel=1 note=77 velocity=70 time=0
EXTRACT: note_off channel=0 note=60 velocity=0 time=0
EXTRACT: note_on channel=0 note=57 velocity=90 time=0
EXTRACT: note_off channel=1 note=65 velocity=0 time=0.365853
EXTRACT: note_off channel=1 note=77 velocity=0 time=0
EXTRACT: note_on channel=1 note=67 velocity=100 time=0
EXTRACT: note_on channel=1 note=79 velocity=70 time=0
EXTRACT: note_off channel=0 note=57 velocity=0 time=0
EXTRACT: note_on channel=0 note=61 velocity=90 time=0
EXTRACT: note_off channel=0 note=41 velocity=0 time=0
EXTRACT: note_off channel=0 note=53 velocity=0 time=0
EXTRACT: note_on channel=0 note=45 velocity=78 time=0
EXTRACT: note_on channel=0 note=52 velocity=78 time=0
EXTRACT: note_on channel=0 note=57 velocity=78 time=0
EXTRACT: note_off channel=3 note=53 velocity=0 time=0
EXTRACT: note_off channel=3 note=65 velocity=0 time=0
EXTRACT: note_on channel=3 note=57 velocity=50 time=0
EXTRACT: note_on channel=3 note=64 velocity=50 time=0
EXTRACT: note_on channel=3 note=69 velocity=50 time=0
EXTRACT: note_off channel=1 note=67 velocity=0 time=0.365853
EXTRACT: note_off channel=1 note=79 velocity=0 time=0
EXTRACT: note_on channel=1 note=67 velocity=100 time=0
EXTRACT: note_on channel=1 note=79 velocity=70 time=0
EXTRACT: note_off channel=0 note=61 velocity=0 time=0
EXTRACT: note_on channel=0 note=61 velocity=90 time=0
EXTRACT: note_off channel=0 note=45 velocity=0 time=0
EXTRACT: note_off channel=0 note=52 velocity=0 time=0
EXTRACT: note_off channel=0 note=57 velocity=0 time=0
EXTRACT: note_on channel=0 note=45 velocity=78 time=0
EXTRACT: note_on channel=0 note=52 velocity=78 time=0
EXTRACT: note_on channel=0 note=57 velocity=78 time=0
EXTRACT: note_off channel=3 note=57 velocity=0 time=0
EXTRACT: note_off channel=3 note=64 velocity=0 time=0
EXTRACT: note_off channel=3 note=69 velocity=0 time=0
EXTRACT: note_on channel=3 note=57 velocity=50 time=0
EXTRACT: note_on channel=3 note=64 velocity=50 time=0
EXTRACT: note_on channel=3 note=69 velocity=50 time=0
EXTRACT: note_off channel=1 note=67 velocity=0 time=0.731706
EXTRACT: note_off channel=1 note=79 velocity=0 time=0
EXTRACT: note_on channel=1 note=65 velocity=100 time=0
EXTRACT: note_on channel=1 note=77 velocity=70 time=0
EXTRACT: note_off channel=0 note=61 velocity=0 time=0
EXTRACT: note_on channel=0 note=62 velocity=90 time=0
EXTRACT: note_off channel=0 note=45 velocity=0 time=0
EXTRACT: note_off channel=0 note=52 velocity=0 time=0
EXTRACT: note_off channel=0 note=57 velocity=0 time=0
EXTRACT: note_on channel=0 note=50 velocity=78 time=0
EXTRACT: note_on channel=0 note=53 velocity=78 time=0
EXTRACT: note_on channel=0 note=57 velocity=78 time=0
EXTRACT: note_off channel=3 note=57 velocity=0 time=0
EXTRACT: note_off channel=3 note=64 velocity=0 time=0
EXTRACT: note_off channel=3 note=69 velocity=0 time=0
EXTRACT: note_on channel=3 note=62 velocity=50 time=0
EXTRACT: note_on channel=3 note=65 velocity=50 time=0
EXTRACT: note_on channel=3 note=69 velocity=50 time=0
EXTRACT: note_off channel=1 note=65 velocity=0 time=1.097559
EXTRACT: note_off channel=1 note=77 velocity=0 time=0
EXTRACT: note_off channel=0 note=62 velocity=0 time=0.365853
EXTRACT: note_on channel=0 note=62 velocity=90 time=0
EXTRACT: note_off channel=0 note=50 velocity=0 time=0
EXTRACT: note_off channel=0 note=53 velocity=0 time=0
EXTRACT: note_off channel=0 note=57 velocity=0 time=0
EXTRACT: note_on channel=0 note=46 velocity=78 time=0
EXTRACT: note_on channel=0 note=53 velocity=78 time=0
EXTRACT: note_on channel=0 note=58 velocity=78 time=0
EXTRACT: note_off channel=3 note=62 velocity=0 time=0
EXTRACT: note_off channel=3 note=65 velocity=0 time=0
EXTRACT: note_off channel=3 note=69 velocity=0 time=0
EXTRACT: note_on channel=3 note=58 velocity=50 time=0
EXTRACT: note_on channel=3 note=65 velocity=50 time=0
EXTRACT: note_on channel=3 note=70 velocity=50 time=0
EXTRACT: note_on channel=1 note=69 velocity=100 time=0
EXTRACT: note_on channel=1 note=81 velocity=70 time=0
EXTRACT: note_off channel=1 note=69 velocity=0 time=0.1829265
EXTRACT: note_off channel=1 note=81 velocity=0 time=0
EXTRACT: note_on channel=1 note=72 velocity=100 time=0
EXTRACT: note_on channel=1 note=84 velocity=70 time=0
EXTRACT: note_on channel=0 note=56 velocity=90 time=0.11737783749999998
EXTRACT: note_off channel=1 note=72 velocity=0 time=0.0655486625
EXTRACT: note_off channel=1 note=84 velocity=0 time=0
EXTRACT: note_on channel=1 note=72 velocity=100 time=0
EXTRACT: note_on channel=1 note=84 velocity=70 time=0
EXTRACT: note_off channel=0 note=62 velocity=0 time=0
EXTRACT: note_on channel=0 note=57 velocity=90 time=0
EXTRACT: note_off channel=0 note=56 velocity=0 time=0
EXTRACT: note_off channel=0 note=46 velocity=0 time=0
EXTRACT: note_off channel=0 note=53 velocity=0 time=0
EXTRACT: note_off channel=0 note=58 velocity=0 time=0
EXTRACT: note_on channel=0 note=41 velocity=78 time=0
EXTRACT: note_on channel=0 note=53 velocity=78 time=0
EXTRACT: note_off channel=3 note=58 velocity=0 time=0
EXTRACT: note_off channel=3 note=65 velocity=0 time=0
EXTRACT: note_off channel=3 note=70 velocity=0 time=0
EXTRACT: note_on channel=3 note=53 velocity=50 time=0
EXTRACT: note_on channel=3 note=65 velocity=50 time=0
EXTRACT: note_off channel=1 note=72 velocity=0 time=0.1829265
EXTRACT: note_off channel=1 note=84 velocity=0 time=0
EXTRACT: note_on channel=1 note=70 velocity=100 time=0
EXTRACT: note_on channel=1 note=82 velocity=70 time=0
EXTRACT: note_off channel=1 note=70 velocity=0 time=0.1829265
EXTRACT: note_off channel=1 note=82 velocity=0 time=0
EXTRACT: note_on channel=1 note=70 velocity=100 time=0
EXTRACT: note_on channel=1 note=82 velocity=70 time=0
EXTRACT: note_off channel=0 note=57 velocity=0 time=0
EXTRACT: note_on channel=0 note=60 velocity=90 time=0
EXTRACT: note_off channel=1 note=70 velocity=0 time=0.1829265
EXTRACT: note_off channel=1 note=82 velocity=0 time=0
EXTRACT: note_on channel=1 note=70 velocity=100 time=0
EXTRACT: note_on channel=1 note=82 velocity=70 time=0
EXTRACT: note_off channel=1 note=70 velocity=0 time=0.1829265
EXTRACT: note_off channel=1 note=82 velocity=0 time=0
EXTRACT: note_on channel=1 note=70 velocity=100 time=0
EXTRACT: note_on channel=1 note=82 velocity=70 time=0
EXTRACT: note_off channel=0 note=60 velocity=0 time=0
EXTRACT: note_on channel=0 note=60 velocity=90 time=0
EXTRACT: note_off channel=1 note=70 velocity=0 time=0.1829265
EXTRACT: note_off channel=1 note=82 velocity=0 time=0
EXTRACT: note_on channel=1 note=69 velocity=100 time=0
EXTRACT: note_on channel=1 note=81 velocity=70 time=0
EXTRACT: note_off channel=1 note=69 velocity=0 time=0.1829265
EXTRACT: note_off channel=1 note=81 velocity=0 time=0
EXTRACT: note_on channel=1 note=69 velocity=100 time=0
EXTRACT: note_on channel=1 note=81 velocity=70 time=0
EXTRACT: note_off channel=0 note=60 velocity=0 time=0
EXTRACT: note_on channel=0 note=57 velocity=90 time=0
EXTRACT: note_off channel=1 note=69 velocity=0 time=0.1829265
EXTRACT: note_off channel=1 note=81 velocity=0 time=0
EXTRACT: note_on channel=1 note=69 velocity=100 time=0
EXTRACT: note_on channel=1 note=81 velocity=70 time=0
EXTRACT: note_off channel=1 note=69 velocity=0 time=0.1829265
EXTRACT: note_off channel=1 note=81 velocity=0 time=0
EXTRACT: note_on channel=1 note=69 velocity=100 time=0
EXTRACT: note_on channel=1 note=81 velocity=70 time=0
EXTRACT: note_off channel=0 note=57 velocity=0 time=0
EXTRACT: note_on channel=0 note=61 velocity=90 time=0
EXTRACT: note_off channel=0 note=41 velocity=0 time=0
EXTRACT: note_off channel=0 note=53 velocity=0 time=0
EXTRACT: note_on channel=0 note=45 velocity=78 time=0
EXTRACT: note_on channel=0 note=52 velocity=78 time=0
EXTRACT: note_on channel=0 note=57 velocity=78 time=0
EXTRACT: note_off channel=3 note=53 velocity=0 time=0
EXTRACT: note_off channel=3 note=65 velocity=0 time=0
EXTRACT: note_on channel=3 note=57 velocity=50 time=0
EXTRACT: note_on channel=3 note=64 velocity=50 time=0
EXTRACT: note_on channel=3 note=69 velocity=50 time=0
EXTRACT: note_off channel=1 note=69 velocity=0 time=0.1829265
EXTRACT: note_off channel=1 note=81 velocity=0 time=0
EXTRACT: note_on channel=1 note=67 velocity=100 time=0
EXTRACT: note_on channel=1 note=79 velocity=70 time=0
EXTRACT: note_off channel=1 note=67 velocity=0 time=0.1829265
EXTRACT: note_off channel=1 note=79 velocity=0 time=0
EXTRACT: note_on channel=1 note=67 velocity=100 time=0
EXTRACT: note_on channel=1 note=79 velocity=70 time=0
EXTRACT: note_off channel=0 note=61 velocity=0 time=0
EXTRACT: note_on channel=0 note=61 velocity=90 time=0
EXTRACT: note_off channel=0 note=45 velocity=0 time=0
EXTRACT: note_off channel=0 note=52 velocity=0 time=0
EXTRACT: note_off channel=0 note=57 velocity=0 time=0
EXTRACT: note_on channel=0 note=45 velocity=78 time=0
EXTRACT: note_on channel=0 note=52 velocity=78 time=0
EXTRACT: note_on channel=0 note=57 velocity=78 time=0
EXTRACT: note_off channel=3 note=57 velocity=0 time=0
EXTRACT: note_off channel=3 note=64 velocity=0 time=0
EXTRACT: note_off channel=3 note=69 velocity=0 time=0
EXTRACT: note_on channel=3 note=57 velocity=50 time=0
EXTRACT: note_on channel=3 note=64 velocity=50 time=0
EXTRACT: note_on channel=3 note=69 velocity=50 time=0
EXTRACT: note_off channel=1 note=67 velocity=0 time=0.1829265
EXTRACT: note_off channel=1 note=79 velocity=0 time=0
EXTRACT: note_on channel=1 note=67 velocity=100 time=0
EXTRACT: note_on channel=1 note=79 velocity=70 time=0
EXTRACT: note_off channel=1 note=67 velocity=0 time=0.1829265
EXTRACT: note_off channel=1 note=79 velocity=0 time=0
EXTRACT: note_on channel=1 note=67 velocity=100 time=0
EXTRACT: note_on channel=1 note=79 velocity=70 time=0
EXTRACT: note_off channel=1 note=67 velocity=0 time=0.1829265
EXTRACT: note_off channel=1 note=79 velocity=0 time=0
EXTRACT: note_on channel=1 note=65 velocity=100 time=0
EXTRACT: note_on channel=1 note=77 velocity=70 time=0
EXTRACT: note_off channel=1 note=65 velocity=0 time=0.1829265
EXTRACT: note_off channel=1 note=77 velocity=0 time=0
EXTRACT: note_on channel=1 note=65 velocity=100 time=0
EXTRACT: note_on channel=1 note=77 velocity=70 time=0
EXTRACT: note_off channel=0 note=61 velocity=0 time=0
EXTRACT: note_on channel=0 note=62 velocity=90 time=0
EXTRACT: note_off channel=0 note=45 velocity=0 time=0
EXTRACT: note_off channel=0 note=52 velocity=0 time=0
EXTRACT: note_off channel=0 note=57 velocity=0 time=0
EXTRACT: note_on channel=0 note=50 velocity=78 time=0
EXTRACT: note_on channel=0 note=53 velocity=78 time=0
EXTRACT: note_on channel=0 note=57 velocity=78 time=0
EXTRACT: note_off channel=3 note=57 velocity=0 time=0
EXTRACT: note_off channel=3 note=64 velocity=0 time=0
EXTRACT: note_off channel=3 note=69 velocity=0 time=0
EXTRACT: note_on channel=3 note=62 velocity=50 time=0
EXTRACT: note_on channel=3 note=65 velocity=50 time=0
EXTRACT: note_on channel=3 note=69 velocity=50 time=0
EXTRACT: note_off channel=1 note=65 velocity=0 time=0.1829265
EXTRACT: note_off channel=1 note=77 velocity=0 time=0
EXTRACT: note_on channel=1 note=67 velocity=100 time=0
EXTRACT: note_on channel=1 note=79 velocity=70 time=0
EXTRACT: note_off channel=1 note=67 velocity=0 time=0.1829265
EXTRACT: note_off channel=1 note=79 velocity=0 time=0
EXTRACT: note_on channel=1 note=69 velocity=100 time=0
EXTRACT: note_on channel=1 note=81 velocity=70 time=0
EXTRACT: note_off channel=1 note=69 velocity=0 time=0.1829265
EXTRACT: note_off channel=1 note=81 velocity=0 time=0
EXTRACT: note_on channel=1 note=67 velocity=100 time=0
EXTRACT: note_on channel=1 note=79 velocity=70 time=0
EXTRACT: note_off channel=1 note=67 velocity=0 time=0.1829265
EXTRACT: note_off channel=1 note=79 velocity=0 time=0
EXTRACT: note_on channel=1 note=65 velocity=100 time=0
EXTRACT: note_on channel=1 note=77 velocity=70 time=0
EXTRACT: note_on channel=1 note=67 velocity=100 time=0.1829265
EXTRACT: note_on channel=1 note=79 velocity=70 time=0
EXTRACT: note_off channel=1 note=65 velocity=0 time=0.0030487749999999997
EXTRACT: note_off channel=1 note=77 velocity=0 time=0
EXTRACT: note_on channel=1 note=65 velocity=100 time=0.179877725
EXTRACT: note_on channel=1 note=77 velocity=70 time=0
EXTRACT: note_off channel=1 note=67 velocity=0 time=0.0030487749999999997
EXTRACT: note_off channel=1 note=79 velocity=0 time=0
EXTRACT: note_off channel=1 note=65 velocity=0 time=0.34298718749999996
EXTRACT: note_off channel=1 note=77 velocity=0 time=0
EXTRACT: note_off channel=0 note=62 velocity=0 time=0.0198170375
EXTRACT: note_on channel=0 note=62 velocity=90 time=0
EXTRACT: note_off channel=0 note=50 velocity=0 time=0
EXTRACT: note_off channel=0 note=53 velocity=0 time=0
EXTRACT: note_off channel=0 note=57 velocity=0 time=0
EXTRACT: note_on channel=0 note=46 velocity=78 time=0
EXTRACT: note_on channel=0 note=53 velocity=78 time=0
EXTRACT: note_on channel=0 note=58 velocity=78 time=0
EXTRACT: note_off channel=3 note=62 velocity=0 time=0
EXTRACT: note_off channel=3 note=65 velocity=0 time=0
EXTRACT: note_off channel=3 note=69 velocity=0 time=0
EXTRACT: note_on channel=3 note=58 velocity=50 time=0
EXTRACT: note_on channel=3 note=65 velocity=50 time=0
EXTRACT: note_on channel=3 note=70 velocity=50 time=0
EXTRACT: note_on channel=0 note=56 velocity=90 time=1.7637163374999998
EXTRACT: note_on channel=1 note=69 velocity=100 time=0
EXTRACT: note_on channel=1 note=81 velocity=70 time=0
EXTRACT: note_off channel=0 note=62 velocity=0 time=0
EXTRACT: note_on channel=0 note=57 velocity=90 time=0
EXTRACT: note_off channel=0 note=56 velocity=0 time=0
EXTRACT: note_off channel=0 note=46 velocity=0 time=0
EXTRACT: note_off channel=0 note=53 velocity=0 time=0
EXTRACT: note_off channel=0 note=58 velocity=0 time=0
EXTRACT: note_on channel=0 note=41 velocity=78 time=0
EXTRACT: note_on channel=0 note=53 velocity=78 time=0
EXTRACT: note_off channel=3 note=58 velocity=0 time=0
EXTRACT: note_off channel=3 note=65 velocity=0 time=0
EXTRACT: note_off channel=3 note=70 velocity=0 time=0
EXTRACT: note_on channel=3 note=53 velocity=50 time=0
EXTRACT: note_on channel=3 note=65 velocity=50 time=0
EXTRACT: note_off channel=1 note=69 velocity=0 time=0.365853
EXTRACT: note_off channel=1 note=81 velocity=0 time=0
EXTRACT: note_on channel=1 note=72 velocity=100 time=0
EXTRACT: note_on channel=1 note=84 velocity=70 time=0
EXTRACT: note_off channel=0 note=57 velocity=0 time=0
EXTRACT: note_on channel=0 note=60 velocity=90 time=0
EXTRACT: note_off channel=1 note=72 velocity=0 time=0.365853
EXTRACT: note_off channel=1 note=84 velocity=0 time=0
EXTRACT: note_on channel=1 note=69 velocity=100 time=0
EXTRACT: note_on channel=1 note=81 velocity=70 time=0
EXTRACT: note_off channel=0 note=60 velocity=0 time=0
EXTRACT: note_on channel=0 note=60 velocity=90 time=0
EXTRACT: note_off channel=1 note=69 velocity=0 time=0.365853
EXTRACT: note_off channel=1 note=81 velocity=0 time=0
EXTRACT: note_on channel=1 note=65 velocity=100 time=0
EXTRACT: note_on channel=1 note=77 velocity=70 time=0
EXTRACT: note_off channel=0 note=60 velocity=0 time=0
EXTRACT: note_on channel=0 note=57 velocity=90 time=0
EXTRACT: note_off channel=1 note=65 velocity=0 time=0.365853
EXTRACT: note_off channel=1 note=77 velocity=0 time=0
EXTRACT: note_on channel=1 note=67 velocity=100 time=0
EXTRACT: note_on channel=1 note=79 velocity=70 time=0
EXTRACT: note_off channel=0 note=57 velocity=0 time=0
EXTRACT: note_on channel=0 note=60 velocity=90 time=0
EXTRACT: note_off channel=0 note=41 velocity=0 time=0
EXTRACT: note_off channel=0 note=53 velocity=0 time=0
EXTRACT: note_on channel=0 note=48 velocity=78 time=0
EXTRACT: note_on channel=0 note=52 velocity=78 time=0
EXTRACT: note_on channel=0 note=55 velocity=78 time=0
EXTRACT: note_off channel=3 note=53 velocity=0 time=0
EXTRACT: note_off channel=3 note=65 velocity=0 time=0
EXTRACT: note_on channel=3 note=60 velocity=50 time=0
EXTRACT: note_on channel=3 note=64 velocity=50 time=0
EXTRACT: note_on channel=3 note=67 velocity=50 time=0
EXTRACT: note_off channel=1 note=67 velocity=0 time=0.365853
EXTRACT: note_off channel=1 note=79 velocity=0 time=0
EXTRACT: note_on channel=1 note=67 velocity=100 time=0
EXTRACT: note_on channel=1 note=79 velocity=70 time=0
EXTRACT: note_off channel=0 note=60 velocity=0 time=0
EXTRACT: note_on channel=0 note=60 velocity=90 time=0
EXTRACT: note_off channel=0 note=48 velocity=0 time=0
EXTRACT: note_off channel=0 note=52 velocity=0 time=0
EXTRACT: note_off channel=0 note=55 velocity=0 time=0
EXTRACT: note_on channel=0 note=48 velocity=78 time=0
EXTRACT: note_on channel=0 note=52 velocity=78 time=0
EXTRACT: note_on channel=0 note=55 velocity=78 time=0
EXTRACT: note_off channel=3 note=60 velocity=0 time=0
EXTRACT: note_off channel=3 note=64 velocity=0 time=0
EXTRACT: note_off channel=3 note=67 velocity=0 time=0
EXTRACT: note_on channel=3 note=60 velocity=50 time=0
EXTRACT: note_on channel=3 note=64 velocity=50 time=0
EXTRACT: note_on channel=3 note=67 velocity=50 time=0
EXTRACT: note_off channel=1 note=67 velocity=0 time=0.731706
EXTRACT: note_off channel=1 note=79 velocity=0 time=0
EXTRACT: note_on channel=1 note=65 velocity=100 time=0
EXTRACT: note_on channel=1 note=77 velocity=70 time=0
EXTRACT: note_off channel=0 note=60 velocity=0 time=0
EXTRACT: note_on channel=0 note=57 velocity=90 time=0
EXTRACT: note_off channel=0 note=48 velocity=0 time=0
EXTRACT: note_off channel=0 note=52 velocity=0 time=0
EXTRACT: note_off channel=0 note=55 velocity=0 time=0
EXTRACT: note_on channel=0 note=41 velocity=78 time=0
EXTRACT: note_on channel=0 note=48 velocity=78 time=0
EXTRACT: note_on channel=0 note=53 velocity=78 time=0
EXTRACT: note_off channel=3 note=60 velocity=0 time=0
EXTRACT: note_off channel=3 note=64 velocity=0 time=0
EXTRACT: note_off channel=3 note=67 velocity=0 time=0
EXTRACT: note_on channel=3 note=53 velocity=50 time=0
EXTRACT: note_on channel=3 note=60 velocity=50 time=0
EXTRACT: note_on channel=3 note=65 velocity=50 time=0
EXTRACT: note_off channel=1 note=65 velocity=0 time=1.097559
EXTRACT: note_off channel=1 note=77 velocity=0 time=0
EXTRACT: note_off channel=0 note=57 velocity=0 time=2.195118
EXTRACT: note_off channel=0 note=41 velocity=0 time=0
EXTRACT: note_off channel=0 note=48 velocity=0 time=0
EXTRACT: note_off channel=0 note=53 velocity=0 time=0
EXTRACT: note_off channel=3 note=53 velocity=0 time=0
EXTRACT: note_off channel=3 note=60 velocity=0 time=0
EXTRACT: note_off channel=3 note=65 velocity=0 time=0
