EXTRACT: control_change channel=0 control=121 value=0 time=0
EXTRACT: program_change channel=0 program=0 time=0
EXTRACT: control_change channel=0 control=7 value=100 time=0
EXTRACT: control_change channel=0 control=10 value=64 time=0
EXTRACT: control_change channel=0 control=91 value=0 time=0
EXTRACT: control_change channel=0 control=93 value=0 time=0
EXTRACT: control_change channel=1 control=121 value=0 time=0
EXTRACT: program_change channel=1 program=0 time=0
EXTRACT: control_change channel=1 control=7 value=100 time=0
EXTRACT: control_change channel=1 control=10 value=64 time=0
EXTRACT: control_change channel=1 control=91 value=0 time=0
EXTRACT: control_change channel=1 control=93 value=0 time=0
EXTRACT: note_on channel=1 note=72 velocity=80 time=0
EXTRACT: control_change channel=2 control=121 value=0 time=0
EXTRACT: program_change channel=2 program=0 time=0
EXTRACT: control_change channel=2 control=7 value=100 time=0
EXTRACT: control_change channel=2 control=10 value=64 time=0
EXTRACT: control_change channel=2 control=91 value=0 time=0
EXTRACT: control_change channel=2 control=93 value=0 time=0
EXTRACT: control_change channel=3 control=121 value=0 time=0
EXTRACT: program_change channel=3 program=0 time=0
EXTRACT: control_change channel=3 control=7 value=100 time=0
EXTRACT: control_change channel=3 control=10 value=64 time=0
EXTRACT: control_change channel=3 control=91 value=0 time=0
EXTRACT: control_change channel=3 control=93 value=0 time=0
EXTRACT: note_on channel=3 note=60 velocity=80 time=0
EXTRACT: control_change channel=4 control=121 value=0 time=0
EXTRACT: program_change channel=4 program=0 time=0
EXTRACT: control_change channel=4 control=7 value=100 time=0
EXTRACT: control_change channel=4 control=10 value=64 time=0
EXTRACT: control_change channel=4 control=91 value=0 time=0
EXTRACT: control_change channel=4 control=93 value=0 time=0
EXTRACT: note_on channel=4 note=55 velocity=80 time=0.2857145
EXTRACT: note_on channel=3 note=60 velocity=0 time=0.2559525729166666
EXTRACT: note_on channel=3 note=60 velocity=80 time=0.02976192708333333
EXTRACT: note_on channel=2 note=64 velocity=80 time=0.2857145
EXTRACT: note_on channel=3 note=60 velocity=0 time=0.2559525729166666
EXTRACT: note_on channel=3 note=60 velocity=80 time=0.02976192708333333
EXTRACT: note_on channel=4 note=55 velocity=0 time=0.22738112291666665
EXTRACT: note_on channel=4 note=55 velocity=80 time=0.058333377083333325
EXTRACT: note_on channel=2 note=64 velocity=0 time=0.24166684791666665
EXTRACT: note_on channel=3 note=60 velocity=0 time=0.014285724999999999
EXTRACT: note_on channel=4 note=55 velocity=0 time=0.014285724999999999
EXTRACT: note_on channel=3 note=60 velocity=80 time=0.015476202083333331
EXTRACT: note_on channel=4 note=55 velocity=80 time=0.2857145
EXTRACT: note_on channel=3 note=60 velocity=0 time=0.2559525729166666
EXTRACT: note_on channel=3 note=60 velocity=80 time=0.02976192708333333
EXTRACT: note_on channel=2 note=64 velocity=80 time=0.2857145
EXTRACT: note_on channel=3 note=60 velocity=0 time=0.2559525729166666
EXTRACT: note_on channel=3 note=60 velocity=80 time=0.02976192708333333
EXTRACT: note_on channel=4 note=55 velocity=0 time=0.22738112291666665
EXTRACT: note_on channel=4 note=55 velocity=80 time=0.058333377083333325
EXTRACT: note_on channel=1 note=72 velocity=0 time=0.11309532291666666
EXTRACT: note_on channel=2 note=64 velocity=0 time=0.128571525
EXTRACT: note_on channel=3 note=60 velocity=0 time=0.014285724999999999
EXTRACT: note_on channel=4 note=55 velocity=0 time=0.014285724999999999
EXTRACT: note_on channel=1 note=72 velocity=80 time=0.015476202083333331
EXTRACT: note_on channel=3 note=60 velocity=80 time=0
EXTRACT: note_on channel=4 note=55 velocity=80 time=0.2857145
EXTRACT: note_on channel=3 note=60 velocity=0 time=0.2559525729166666
EXTRACT: note_on channel=3 note=60 velocity=80 time=0.02976192708333333
EXTRACT: note_on channel=2 note=64 velocity=80 time=0.2857145
EXTRACT: note_on channel=3 note=60 velocity=0 time=0.2559525729166666
EXTRACT: note_on channel=3 note=60 velocity=80 time=0.02976192708333333
EXTRACT: note_on channel=4 note=55 velocity=0 time=0.22738112291666665
EXTRACT: note_on channel=4 note=55 velocity=80 time=0.058333377083333325
EXTRACT: note_on channel=2 note=64 velocity=0 time=0.24166684791666665
EXTRACT: note_on channel=3 note=60 velocity=0 time=0.014285724999999999
EXTRACT: note_on channel=4 note=55 velocity=0 time=0.014285724999999999
EXTRACT: note_on channel=3 note=60 velocity=80 time=0.015476202083333331
EXTRACT: note_on channel=4 note=55 velocity=80 time=0.2857145
EXTRACT: note_on channel=3 note=60 velocity=0 time=0.2559525729166666
EXTRACT: note_on channel=3 note=60 velocity=80 time=0.02976192708333333
EXTRACT: note_on channel=0 note=64 velocity=80 time=0.2857145
EXTRACT: note_on channel=2 note=64 velocity=80 time=0
EXTRACT: note_on channel=3 note=60 velocity=0 time=0.2559525729166666
EXTRACT: note_on channel=0 note=64 velocity=0 time=0.014285724999999999
EXTRACT: note_on channel=0 note=62 velocity=80 time=0.015476202083333331
EXTRACT: note_on channel=3 note=60 velocity=80 time=0
EXTRACT: note_on channel=4 note=55 velocity=0 time=0.22738112291666665
EXTRACT: note_on channel=0 note=62 velocity=0 time=0.042857175
EXTRACT: note_on channel=0 note=60 velocity=80 time=0.015476202083333331
EXTRACT: note_on channel=4 note=55 velocity=80 time=0
EXTRACT: note_on channel=1 note=72 velocity=0 time=0.11309532291666666
EXTRACT: note_on channel=2 note=64 velocity=0 time=0.128571525
EXTRACT: note_on channel=3 note=60 velocity=0 time=0.014285724999999999
EXTRACT: note_on channel=0 note=60 velocity=0 time=0.014285724999999999
EXTRACT: note_on channel=4 note=55 velocity=0 time=0
EXTRACT: note_on channel=0 note=60 velocity=80 time=0.015476202083333331
EXTRACT: note_on channel=1 note=72 velocity=80 time=0
EXTRACT: note_on channel=3 note=60 velocity=80 time=0
EXTRACT: note_on channel=4 note=55 velocity=80 time=0.2857145
EXTRACT: note_on channel=3 note=60 velocity=0 time=0.2559525729166666
EXTRACT: note_on channel=3 note=60 velocity=80 time=0.02976192708333333
EXTRACT: note_on channel=0 note=60 velocity=0 time=0.24166684791666665
EXTRACT: note_on channel=0 note=60 velocity=80 time=0.044047652083333326
EXTRACT: note_on channel=2 note=64 velocity=80 time=0
EXTRACT: note_on channel=3 note=60 velocity=0 time=0.2559525729166666
EXTRACT: note_on channel=3 note=60 velocity=80 time=0.02976192708333333
EXTRACT: note_on channel=4 note=55 velocity=0 time=0.22738112291666665
EXTRACT: note_on channel=4 note=55 velocity=80 time=0.058333377083333325
EXTRACT: note_on channel=0 note=60 velocity=0 time=0.24166684791666665
EXTRACT: note_on channel=2 note=64 velocity=0 time=0
EXTRACT: note_on channel=3 note=60 velocity=0 time=0.014285724999999999
EXTRACT: note_on channel=4 note=55 velocity=0 time=0.014285724999999999
EXTRACT: note_on channel=3 note=60 velocity=80 time=0.015476202083333331
EXTRACT: note_on channel=4 note=55 velocity=80 time=0.2857145
EXTRACT: note_on channel=3 note=60 velocity=0 time=0.2559525729166666
EXTRACT: note_on channel=0 note=60 velocity=80 time=0.02976192708333333
EXTRACT: note_on channel=3 note=60 velocity=80 time=0
EXTRACT: note_on channel=0 note=60 velocity=0 time=0.27023829791666665
EXTRACT: note_on channel=0 note=64 velocity=80 time=0.015476202083333331
EXTRACT: note_on channel=2 note=64 velocity=80 time=0
EXTRACT: note_on channel=3 note=60 velocity=0 time=0.2559525729166666
EXTRACT: note_on channel=0 note=64 velocity=0 time=0.014285724999999999
EXTRACT: note_on channel=0 note=67 velocity=80 time=0.015476202083333331
EXTRACT: note_on channel=3 note=60 velocity=80 time=0
EXTRACT: note_on channel=4 note=55 velocity=0 time=0.22738112291666665
EXTRACT: note_on channel=0 note=67 velocity=0 time=0.042857175
EXTRACT: note_on channel=0 note=67 velocity=80 time=0.015476202083333331
EXTRACT: note_on channel=4 note=55 velocity=80 time=0
EXTRACT: note_on channel=1 note=72 velocity=0 time=0.11309532291666666
EXTRACT: note_on channel=2 note=64 velocity=0 time=0.128571525
EXTRACT: note_on channel=3 note=60 velocity=0 time=0.014285724999999999
EXTRACT: note_on channel=0 note=67 velocity=0 time=0.014285724999999999
EXTRACT: note_on channel=4 note=55 velocity=0 time=0
EXTRACT: note_on channel=0 note=67 velocity=80 time=0.015476202083333331
EXTRACT: note_on channel=1 note=72 velocity=80 time=0
EXTRACT: note_on channel=3 note=57 velocity=80 time=0
EXTRACT: note_on channel=4 note=52 velocity=80 time=0.2857145
EXTRACT: note_on channel=0 note=67 velocity=0 time=0.2559525729166666
EXTRACT: note_on channel=3 note=57 velocity=0 time=0
EXTRACT: note_on channel=0 note=64 velocity=80 time=0.02976192708333333
EXTRACT: note_on channel=3 note=57 velocity=80 time=0
EXTRACT: note_on channel=0 note=64 velocity=0 time=0.27023829791666665
EXTRACT: note_on channel=0 note=67 velocity=80 time=0.015476202083333331
EXTRACT: note_on channel=2 note=60 velocity=80 time=0
EXTRACT: note_on channel=3 note=57 velocity=0 time=0.2559525729166666
EXTRACT: note_on channel=0 note=67 velocity=0 time=0.014285724999999999
EXTRACT: note_on channel=0 note=69 velocity=80 time=0.015476202083333331
EXTRACT: note_on channel=3 note=57 velocity=80 time=0
EXTRACT: note_on channel=4 note=52 velocity=0 time=0.22738112291666665
EXTRACT: note_on channel=4 note=52 velocity=80 time=0.058333377083333325
EXTRACT: note_on channel=2 note=60 velocity=0 time=0.24166684791666665
EXTRACT: note_on channel=0 note=69 velocity=0 time=0.014285724999999999
EXTRACT: note_on channel=3 note=57 velocity=0 time=0
EXTRACT: note_on channel=4 note=52 velocity=0 time=0.014285724999999999
EXTRACT: note_on channel=3 note=57 velocity=80 time=0.015476202083333331
EXTRACT: note_on channel=4 note=52 velocity=80 time=0.2857145
EXTRACT: note_on channel=3 note=57 velocity=0 time=0.2559525729166666
EXTRACT: note_on channel=0 note=60 velocity=80 time=0.02976192708333333
EXTRACT: note_on channel=3 note=57 velocity=80 time=0
EXTRACT: note_on channel=0 note=60 velocity=0 time=0.27023829791666665
EXTRACT: note_on channel=0 note=64 velocity=80 time=0.015476202083333331
EXTRACT: note_on channel=2 note=60 velocity=80 time=0
EXTRACT: note_on channel=3 note=57 velocity=0 time=0.2559525729166666
EXTRACT: note_on channel=0 note=64 velocity=0 time=0.014285724999999999
EXTRACT: note_on channel=0 note=67 velocity=80 time=0.015476202083333331
EXTRACT: note_on channel=3 note=57 velocity=80 time=0
EXTRACT: note_on channel=4 note=52 velocity=0 time=0.22738112291666665
EXTRACT: note_on channel=0 note=67 velocity=0 time=0.042857175
EXTRACT: note_on channel=0 note=69 velocity=80 time=0.015476202083333331
EXTRACT: note_on channel=4 note=52 velocity=80 time=0
EXTRACT: note_on channel=1 note=72 velocity=0 time=0.11309532291666666
EXTRACT: note_on channel=2 note=60 velocity=0 time=0.128571525
EXTRACT: note_on channel=3 note=57 velocity=0 time=0.014285724999999999
EXTRACT: note_on channel=0 note=69 velocity=0 time=0.014285724999999999
EXTRACT: note_on channel=4 note=52 velocity=0 time=0
EXTRACT: note_on channel=0 note=69 velocity=80 time=0.015476202083333331
EXTRACT: note_on channel=1 note=72 velocity=80 time=0
EXTRACT: note_on channel=3 note=60 velocity=80 time=0
EXTRACT: note_on channel=4 note=53 velocity=80 time=0.2857145
EXTRACT: note_on channel=3 note=60 velocity=0 time=0.2559525729166666
EXTRACT: note_on channel=3 note=57 velocity=80 time=0.02976192708333333
EXTRACT: note_on channel=0 note=69 velocity=0 time=0.24166684791666665
EXTRACT: note_on channel=0 note=67 velocity=80 time=0.044047652083333326
EXTRACT: note_on channel=2 note=65 velocity=80 time=0
EXTRACT: note_on channel=3 note=57 velocity=0 time=0.2559525729166666
EXTRACT: note_on channel=0 note=67 velocity=0 time=0.014285724999999999
EXTRACT: note_on channel=0 note=65 velocity=80 time=0.015476202083333331
EXTRACT: note_on channel=3 note=57 velocity=80 time=0
EXTRACT: note_on channel=4 note=53 velocity=0 time=0.22738112291666665
EXTRACT: note_on channel=4 note=53 velocity=80 time=0.058333377083333325
EXTRACT: note_on channel=2 note=65 velocity=0 time=0.24166684791666665
EXTRACT: note_on channel=0 note=65 velocity=0 time=0.014285724999999999
EXTRACT: note_on channel=3 note=57 velocity=0 time=0
EXTRACT: note_on channel=4 note=53 velocity=0 time=0.014285724999999999
EXTRACT: note_on channel=3 note=60 velocity=80 time=0.015476202083333331
EXTRACT: note_on channel=4 note=53 velocity=80 time=0.2857145
EXTRACT: note_on channel=3 note=60 velocity=0 time=0.2559525729166666
EXTRACT: note_on channel=3 note=57 velocity=80 time=0.02976192708333333
EXTRACT: note_on channel=0 note=60 velocity=80 time=0.2857145
EXTRACT: note_on channel=2 note=65 velocity=80 time=0
EXTRACT: note_on channel=3 note=57 velocity=0 time=0.2559525729166666
EXTRACT: note_on channel=0 note=60 velocity=0 time=0.014285724999999999
EXTRACT: note_on channel=0 note=60 velocity=80 time=0.015476202083333331
EXTRACT: note_on channel=3 note=57 velocity=80 time=0
EXTRACT: note_on channel=4 note=53 velocity=0 time=0.22738112291666665
EXTRACT: note_on channel=0 note=60 velocity=0 time=0.042857175
EXTRACT: note_on channel=0 note=62 velocity=80 time=0.015476202083333331
EXTRACT: note_on channel=4 note=53 velocity=80 time=0
EXTRACT: note_on channel=1 note=72 velocity=0 time=0.11309532291666666
EXTRACT: note_on channel=2 note=65 velocity=0 time=0.128571525
EXTRACT: note_on channel=3 note=57 velocity=0 time=0.014285724999999999
EXTRACT: note_on channel=0 note=62 velocity=0 time=0.014285724999999999
EXTRACT: note_on channel=4 note=53 velocity=0 time=0
EXTRACT: note_on channel=0 note=64 velocity=80 time=0.015476202083333331
EXTRACT: note_on channel=1 note=72 velocity=80 time=0
EXTRACT: note_on channel=4 note=55 velocity=80 time=0
EXTRACT: note_on channel=3 note=60 velocity=80 time=0.2857145
EXTRACT: note_on channel=0 note=64 velocity=0 time=0.2559525729166666
EXTRACT: note_on channel=4 note=55 velocity=0 time=0
EXTRACT: note_on channel=0 note=65 velocity=80 time=0.02976192708333333
EXTRACT: note_on channel=4 note=55 velocity=80 time=0
EXTRACT: note_on channel=0 note=65 velocity=0 time=0.13452391041666664
EXTRACT: note_on channel=0 note=64 velocity=80 time=0.008333339583333332
EXTRACT: note_on channel=3 note=60 velocity=0 time=0.11309532291666666
EXTRACT: note_on channel=0 note=64 velocity=0 time=0.0214285875
EXTRACT: note_on channel=0 note=62 velocity=80 time=0.008333339583333332
EXTRACT: note_on channel=2 note=64 velocity=80 time=0
EXTRACT: note_on channel=4 note=55 velocity=0 time=0.2559525729166666
EXTRACT: note_on channel=4 note=55 velocity=80 time=0.02976192708333333
EXTRACT: note_on channel=3 note=60 velocity=80 time=0.2857145
EXTRACT: note_on channel=1 note=72 velocity=0 time=0.19880967291666665
EXTRACT: note_on channel=0 note=62 velocity=0 time=0.042857175
EXTRACT: note_on channel=2 note=64 velocity=0 time=0
EXTRACT: note_on channel=4 note=55 velocity=0 time=0.014285724999999999
EXTRACT: note_on channel=3 note=60 velocity=0 time=0.014285724999999999
EXTRACT: note_on channel=1 note=71 velocity=80 time=0.015476202083333331
EXTRACT: note_on channel=3 note=59 velocity=80 time=0
EXTRACT: note_on channel=4 note=55 velocity=80 time=0.2857145
EXTRACT: note_on channel=3 note=59 velocity=0 time=0.2559525729166666
EXTRACT: note_on channel=3 note=59 velocity=80 time=0.02976192708333333
EXTRACT: note_on channel=0 note=64 velocity=80 time=0.2857145
EXTRACT: note_on channel=2 note=62 velocity=80 time=0
EXTRACT: note_on channel=3 note=59 velocity=0 time=0.2559525729166666
EXTRACT: note_on channel=0 note=64 velocity=0 time=0.014285724999999999
EXTRACT: note_on channel=0 note=62 velocity=80 time=0.015476202083333331
EXTRACT: note_on channel=3 note=59 velocity=80 time=0
EXTRACT: note_on channel=4 note=55 velocity=0 time=0.22738112291666665
EXTRACT: note_on channel=0 note=62 velocity=0 time=0.042857175
EXTRACT: note_on channel=0 note=60 velocity=80 time=0.015476202083333331
EXTRACT: note_on channel=4 note=55 velocity=80 time=0
EXTRACT: note_on channel=1 note=71 velocity=0 time=0.19880967291666665
EXTRACT: note_on channel=2 note=62 velocity=0 time=0.042857175
EXTRACT: note_on channel=3 note=59 velocity=0 time=0.014285724999999999
EXTRACT: note_on channel=0 note=60 velocity=0 time=0.014285724999999999
EXTRACT: note_on channel=4 note=55 velocity=0 time=0
EXTRACT: note_on channel=0 note=60 velocity=80 time=0.015476202083333331
EXTRACT: note_on channel=1 note=72 velocity=80 time=0
EXTRACT: note_on channel=3 note=60 velocity=80 time=0
EXTRACT: note_on channel=4 note=55 velocity=80 time=0.2857145
EXTRACT: note_on channel=3 note=60 velocity=0 time=0.2559525729166666
EXTRACT: note_on channel=3 note=60 velocity=80 time=0.02976192708333333
EXTRACT: note_on channel=0 note=60 velocity=0 time=0.24166684791666665
EXTRACT: note_on channel=0 note=60 velocity=80 time=0.044047652083333326
EXTRACT: note_on channel=2 note=64 velocity=80 time=0
EXTRACT: note_on channel=3 note=60 velocity=0 time=0.2559525729166666
EXTRACT: note_on channel=3 note=60 velocity=80 time=0.02976192708333333
EXTRACT: note_on channel=4 note=55 velocity=0 time=0.22738112291666665
EXTRACT: note_on channel=4 note=55 velocity=80 time=0.058333377083333325
EXTRACT: note_on channel=0 note=60 velocity=0 time=0.24166684791666665
EXTRACT: note_on channel=2 note=64 velocity=0 time=0
EXTRACT: note_on channel=3 note=60 velocity=0 time=0.014285724999999999
EXTRACT: note_on channel=4 note=55 velocity=0 time=0.014285724999999999
EXTRACT: note_on channel=3 note=60 velocity=80 time=0.015476202083333331
EXTRACT: note_on channel=4 note=55 velocity=80 time=0.2857145
EXTRACT: note_on channel=3 note=60 velocity=0 time=0.2559525729166666
EXTRACT: note_on channel=0 note=60 velocity=80 time=0.02976192708333333
EXTRACT: note_on channel=3 note=60 velocity=80 time=0
EXTRACT: note_on channel=0 note=60 velocity=0 time=0.27023829791666665
EXTRACT: note_on channel=0 note=64 velocity=80 time=0.015476202083333331
EXTRACT: note_on channel=2 note=64 velocity=80 time=0
EXTRACT: note_on channel=3 note=60 velocity=0 time=0.2559525729166666
EXTRACT: note_on channel=0 note=64 velocity=0 time=0.014285724999999999
EXTRACT: note_on channel=0 note=67 velocity=80 time=0.015476202083333331
EXTRACT: note_on channel=3 note=60 velocity=80 time=0
EXTRACT: note_on channel=4 note=55 velocity=0 time=0.22738112291666665
EXTRACT: note_on channel=0 note=67 velocity=0 time=0.042857175
EXTRACT: note_on channel=0 note=67 velocity=80 time=0.015476202083333331
EXTRACT: note_on channel=4 note=55 velocity=80 time=0
EXTRACT: note_on channel=1 note=72 velocity=0 time=0.11309532291666666
EXTRACT: note_on channel=2 note=64 velocity=0 time=0.128571525
EXTRACT: note_on channel=3 note=60 velocity=0 time=0.014285724999999999
EXTRACT: note_on channel=0 note=67 velocity=0 time=0.014285724999999999
EXTRACT: note_on channel=4 note=55 velocity=0 time=0
EXTRACT: note_on channel=0 note=67 velocity=80 time=0.015476202083333331
EXTRACT: note_on channel=1 note=72 velocity=80 time=0
EXTRACT: note_on channel=3 note=57 velocity=80 time=0
EXTRACT: note_on channel=4 note=52 velocity=80 time=0.2857145
EXTRACT: note_on channel=0 note=67 velocity=0 time=0.2559525729166666
EXTRACT: note_on channel=3 note=57 velocity=0 time=0
EXTRACT: note_on channel=0 note=64 velocity=80 time=0.02976192708333333
EXTRACT: note_on channel=3 note=57 velocity=80 time=0
EXTRACT: note_on channel=0 note=64 velocity=0 time=0.27023829791666665
EXTRACT: note_on channel=0 note=67 velocity=80 time=0.015476202083333331
EXTRACT: note_on channel=2 note=60 velocity=80 time=0
EXTRACT: note_on channel=3 note=57 velocity=0 time=0.2559525729166666
EXTRACT: note_on channel=0 note=67 velocity=0 time=0.014285724999999999
EXTRACT: note_on channel=0 note=69 velocity=80 time=0.015476202083333331
EXTRACT: note_on channel=3 note=57 velocity=80 time=0
EXTRACT: note_on channel=4 note=52 velocity=0 time=0.22738112291666665
EXTRACT: note_on channel=4 note=52 velocity=80 time=0.058333377083333325
EXTRACT: note_on channel=2 note=60 velocity=0 time=0.24166684791666665
EXTRACT: note_on channel=0 note=69 velocity=0 time=0.014285724999999999
EXTRACT: note_on channel=3 note=57 velocity=0 time=0
EXTRACT: note_on channel=4 note=52 velocity=0 time=0.014285724999999999
EXTRACT: note_on channel=3 note=57 velocity=80 time=0.015476202083333331
EXTRACT: note_on channel=4 note=52 velocity=80 time=0.2857145
EXTRACT: note_on channel=3 note=57 velocity=0 time=0.2559525729166666
EXTRACT: note_on channel=0 note=60 velocity=80 time=0.02976192708333333
EXTRACT: note_on channel=3 note=57 velocity=80 time=0
EXTRACT: note_on channel=0 note=60 velocity=0 time=0.27023829791666665
EXTRACT: note_on channel=0 note=64 velocity=80 time=0.015476202083333331
EXTRACT: note_on channel=2 note=60 velocity=80 time=0
EXTRACT: note_on channel=3 note=57 velocity=0 time=0.2559525729166666
EXTRACT: note_on channel=0 note=64 velocity=0 time=0.014285724999999999
EXTRACT: note_on channel=0 note=67 velocity=80 time=0.015476202083333331
EXTRACT: note_on channel=3 note=57 velocity=80 time=0
EXTRACT: note_on channel=4 note=52 velocity=0 time=0.22738112291666665
EXTRACT: note_on channel=0 note=67 velocity=0 time=0.042857175
EXTRACT: note_on channel=0 note=69 velocity=80 time=0.015476202083333331
EXTRACT: note_on channel=4 note=52 velocity=80 time=0
EXTRACT: note_on channel=1 note=72 velocity=0 time=0.11309532291666666
EXTRACT: note_on channel=2 note=60 velocity=0 time=0.128571525
EXTRACT: note_on channel=3 note=57 velocity=0 time=0.014285724999999999
EXTRACT: note_on channel=0 note=69 velocity=0 time=0.014285724999999999
EXTRACT: note_on channel=4 note=52 velocity=0 time=0
EXTRACT: note_on channel=0 note=69 velocity=80 time=0.015476202083333331
EXTRACT: note_on channel=1 note=72 velocity=80 time=0
EXTRACT: note_on channel=3 note=60 velocity=80 time=0
EXTRACT: note_on channel=4 note=53 velocity=80 time=0.2857145
EXTRACT: note_on channel=3 note=60 velocity=0 time=0.2559525729166666
EXTRACT: note_on channel=3 note=57 velocity=80 time=0.02976192708333333
EXTRACT: note_on channel=0 note=69 velocity=0 time=0.24166684791666665
EXTRACT: note_on channel=0 note=67 velocity=80 time=0.044047652083333326
EXTRACT: note_on channel=2 note=65 velocity=80 time=0
EXTRACT: note_on channel=3 note=57 velocity=0 time=0.2559525729166666
EXTRACT: note_on channel=0 note=67 velocity=0 time=0.014285724999999999
EXTRACT: note_on channel=0 note=65 velocity=80 time=0.015476202083333331
EXTRACT: note_on channel=3 note=57 velocity=80 time=0
EXTRACT: note_on channel=4 note=53 velocity=0 time=0.22738112291666665
EXTRACT: note_on channel=4 note=53 velocity=80 time=0.058333377083333325
EXTRACT: note_on channel=2 note=65 velocity=0 time=0.24166684791666665
EXTRACT: note_on channel=0 note=65 velocity=0 time=0.014285724999999999
EXTRACT: note_on channel=3 note=57 velocity=0 time=0
EXTRACT: note_on channel=4 note=53 velocity=0 time=0.014285724999999999
EXTRACT: note_on channel=3 note=60 velocity=80 time=0.015476202083333331
EXTRACT: note_on channel=4 note=53 velocity=80 time=0.2857145
EXTRACT: note_on channel=3 note=60 velocity=0 time=0.2559525729166666
EXTRACT: note_on channel=3 note=57 velocity=80 time=0.02976192708333333
EXTRACT: note_on channel=0 note=60 velocity=80 time=0.2857145
EXTRACT: note_on channel=2 note=65 velocity=80 time=0
EXTRACT: note_on channel=3 note=57 velocity=0 time=0.2559525729166666
EXTRACT: note_on channel=0 note=60 velocity=0 time=0.014285724999999999
EXTRACT: note_on channel=0 note=60 velocity=80 time=0.015476202083333331
EXTRACT: note_on channel=3 note=57 velocity=80 time=0
EXTRACT: note_on channel=4 note=53 velocity=0 time=0.22738112291666665
EXTRACT: note_on channel=0 note=60 velocity=0 time=0.042857175
EXTRACT: note_on channel=0 note=62 velocity=80 time=0.015476202083333331
EXTRACT: note_on channel=4 note=53 velocity=80 time=0
EXTRACT: note_on channel=1 note=72 velocity=0 time=0.11309532291666666
EXTRACT: note_on channel=2 note=65 velocity=0 time=0.128571525
EXTRACT: note_on channel=3 note=57 velocity=0 time=0.014285724999999999
EXTRACT: note_on channel=0 note=62 velocity=0 time=0.014285724999999999
EXTRACT: note_on channel=4 note=53 velocity=0 time=0
EXTRACT: note_on channel=0 note=64 velocity=80 time=0.015476202083333331
EXTRACT: note_on channel=1 note=72 velocity=80 time=0
EXTRACT: note_on channel=4 note=55 velocity=80 time=0
EXTRACT: note_on channel=3 note=60 velocity=80 time=0.2857145
EXTRACT: note_on channel=0 note=64 velocity=0 time=0.2559525729166666
EXTRACT: note_on channel=4 note=55 velocity=0 time=0
EXTRACT: note_on channel=0 note=65 velocity=80 time=0.02976192708333333
EXTRACT: note_on channel=4 note=55 velocity=80 time=0
EXTRACT: note_on channel=0 note=65 velocity=0 time=0.13452391041666664
EXTRACT: note_on channel=0 note=64 velocity=80 time=0.008333339583333332
EXTRACT: note_on channel=3 note=60 velocity=0 time=0.11309532291666666
EXTRACT: note_on channel=0 note=64 velocity=0 time=0.0214285875
EXTRACT: note_on channel=0 note=62 velocity=80 time=0.008333339583333332
EXTRACT: note_on channel=2 note=64 velocity=80 time=0
EXTRACT: note_on channel=4 note=55 velocity=0 time=0.2559525729166666
EXTRACT: note_on channel=4 note=55 velocity=80 time=0.02976192708333333
EXTRACT: note_on channel=3 note=60 velocity=80 time=0.2857145
EXTRACT: note_on channel=1 note=72 velocity=0 time=0.19880967291666665
EXTRACT: note_on channel=0 note=62 velocity=0 time=0.042857175
EXTRACT: note_on channel=2 note=64 velocity=0 time=0
EXTRACT: note_on channel=4 note=55 velocity=0 time=0.014285724999999999
EXTRACT: note_on channel=3 note=60 velocity=0 time=0.014285724999999999
EXTRACT: note_on channel=1 note=71 velocity=80 time=0.015476202083333331
EXTRACT: note_on channel=3 note=59 velocity=80 time=0
EXTRACT: note_on channel=4 note=55 velocity=80 time=0.2857145
EXTRACT: note_on channel=3 note=59 velocity=0 time=0.2559525729166666
EXTRACT: note_on channel=3 note=59 velocity=80 time=0.02976192708333333
EXTRACT: note_on channel=0 note=64 velocity=80 time=0.2857145
EXTRACT: note_on channel=2 note=62 velocity=80 time=0
EXTRACT: note_on channel=3 note=59 velocity=0 time=0.2559525729166666
EXTRACT: note_on channel=0 note=64 velocity=0 time=0.014285724999999999
EXTRACT: note_on channel=0 note=62 velocity=80 time=0.015476202083333331
EXTRACT: note_on channel=3 note=59 velocity=80 time=0
EXTRACT: note_on channel=4 note=55 velocity=0 time=0.22738112291666665
EXTRACT: note_on channel=0 note=62 velocity=0 time=0.042857175
EXTRACT: note_on channel=0 note=60 velocity=80 time=0.015476202083333331
EXTRACT: note_on channel=4 note=55 velocity=80 time=0
EXTRACT: note_on channel=1 note=71 velocity=0 time=0.19880967291666665
EXTRACT: note_on channel=2 note=62 velocity=0 time=0.042857175
EXTRACT: note_on channel=3 note=59 velocity=0 time=0.014285724999999999
EXTRACT: note_on channel=0 note=60 velocity=0 time=0.014285724999999999
EXTRACT: note_on channel=4 note=55 velocity=0 time=0
EXTRACT: note_on channel=0 note=57 velocity=80 time=0.015476202083333331
EXTRACT: note_on channel=0 note=60 velocity=80 time=0
EXTRACT: note_on channel=0 note=64 velocity=80 time=0
EXTRACT: note_on channel=1 note=69 velocity=80 time=0
EXTRACT: note_on channel=3 note=57 velocity=80 time=0
EXTRACT: note_on channel=4 note=52 velocity=80 time=0.2857145
EXTRACT: note_on channel=3 note=57 velocity=0 time=0.2559525729166666
EXTRACT: note_on channel=3 note=57 velocity=80 time=0.02976192708333333
EXTRACT: note_on channel=0 note=57 velocity=0 time=0.24166684791666665
EXTRACT: note_on channel=0 note=60 velocity=0 time=0
EXTRACT: note_on channel=0 note=64 velocity=0 time=0
EXTRACT: note_on channel=0 note=57 velocity=80 time=0.044047652083333326
EXTRACT: note_on channel=0 note=60 velocity=80 time=0
EXTRACT: note_on channel=0 note=64 velocity=80 time=0
EXTRACT: note_on channel=2 note=60 velocity=80 time=0
EXTRACT: note_on channel=3 note=57 velocity=0 time=0.2559525729166666
EXTRACT: note_on channel=3 note=57 velocity=80 time=0.02976192708333333
EXTRACT: note_on channel=4 note=52 velocity=0 time=0.22738112291666665
EXTRACT: note_on channel=4 note=52 velocity=80 time=0.058333377083333325
EXTRACT: note_on channel=0 note=57 velocity=0 time=0.24166684791666665
EXTRACT: note_on channel=0 note=60 velocity=0 time=0
EXTRACT: note_on channel=0 note=64 velocity=0 time=0
EXTRACT: note_on channel=2 note=60 velocity=0 time=0
EXTRACT: note_on channel=3 note=57 velocity=0 time=0.014285724999999999
EXTRACT: note_on channel=4 note=52 velocity=0 time=0.014285724999999999
EXTRACT: note_on channel=0 note=57 velocity=80 time=0.015476202083333331
EXTRACT: note_on channel=0 note=60 velocity=80 time=0
EXTRACT: note_on channel=3 note=57 velocity=80 time=0
EXTRACT: note_on channel=0 note=57 velocity=0 time=0.27023829791666665
EXTRACT: note_on channel=0 note=60 velocity=0 time=0
EXTRACT: note_on channel=4 note=52 velocity=80 time=0.015476202083333331
EXTRACT: note_on channel=3 note=57 velocity=0 time=0.2559525729166666
EXTRACT: note_on channel=3 note=57 velocity=80 time=0.02976192708333333
EXTRACT: note_on channel=0 note=64 velocity=80 time=0.2857145
EXTRACT: note_on channel=2 note=60 velocity=80 time=0
EXTRACT: note_on channel=3 note=57 velocity=0 time=0.2559525729166666
EXTRACT: note_on channel=0 note=64 velocity=0 time=0.014285724999999999
EXTRACT: note_on channel=0 note=62 velocity=80 time=0.015476202083333331
EXTRACT: note_on channel=3 note=57 velocity=80 time=0
EXTRACT: note_on channel=1 note=69 velocity=0 time=0.12738104791666666
EXTRACT: note_on channel=4 note=52 velocity=0 time=0.100000075
EXTRACT: note_on channel=0 note=62 velocity=0 time=0.042857175
EXTRACT: note_on channel=0 note=60 velocity=80 time=0.015476202083333331
EXTRACT: note_on channel=1 note=69 velocity=80 time=0
EXTRACT: note_on channel=4 note=52 velocity=80 time=0
EXTRACT: note_on channel=2 note=60 velocity=0 time=0.24166684791666665
EXTRACT: note_on channel=3 note=57 velocity=0 time=0.014285724999999999
EXTRACT: note_on channel=0 note=60 velocity=0 time=0.014285724999999999
EXTRACT: note_on channel=1 note=69 velocity=0 time=0
EXTRACT: note_on channel=4 note=52 velocity=0 time=0
EXTRACT: note_on channel=0 note=57 velocity=80 time=0.015476202083333331
EXTRACT: note_on channel=0 note=60 velocity=80 time=0
EXTRACT: note_on channel=0 note=65 velocity=80 time=0
EXTRACT: note_on channel=1 note=72 velocity=80 time=0
EXTRACT: note_on channel=3 note=60 velocity=80 time=0
EXTRACT: note_on channel=4 note=53 velocity=80 time=0.2857145
EXTRACT: note_on channel=3 note=60 velocity=0 time=0.2559525729166666
EXTRACT: note_on channel=3 note=57 velocity=80 time=0.02976192708333333
EXTRACT: note_on channel=0 note=57 velocity=0 time=0.24166684791666665
EXTRACT: note_on channel=0 note=60 velocity=0 time=0
EXTRACT: note_on channel=0 note=65 velocity=0 time=0
EXTRACT: note_on channel=0 note=57 velocity=80 time=0.044047652083333326
EXTRACT: note_on channel=0 note=60 velocity=80 time=0
EXTRACT: note_on channel=0 note=65 velocity=80 time=0
EXTRACT: note_on channel=2 note=65 velocity=80 time=0
EXTRACT: note_on channel=3 note=57 velocity=0 time=0.2559525729166666
EXTRACT: note_on channel=3 note=57 velocity=80 time=0.02976192708333333
EXTRACT: note_on channel=4 note=53 velocity=0 time=0.22738112291666665
EXTRACT: note_on channel=4 note=53 velocity=80 time=0.058333377083333325
EXTRACT: note_on channel=0 note=57 velocity=0 time=0.24166684791666665
EXTRACT: note_on channel=0 note=60 velocity=0 time=0
EXTRACT: note_on channel=0 note=65 velocity=0 time=0
EXTRACT: note_on channel=2 note=65 velocity=0 time=0
EXTRACT: note_on channel=3 note=57 velocity=0 time=0.014285724999999999
EXTRACT: note_on channel=4 note=53 velocity=0 time=0.014285724999999999
EXTRACT: note_on channel=0 note=57 velocity=80 time=0.015476202083333331
EXTRACT: note_on channel=0 note=60 velocity=80 time=0
EXTRACT: note_on channel=0 note=65 velocity=80 time=0
EXTRACT: note_on channel=3 note=60 velocity=80 time=0
EXTRACT: note_on channel=0 note=57 velocity=0 time=0.13452391041666664
EXTRACT: note_on channel=0 note=60 velocity=0 time=0
EXTRACT: note_on channel=0 note=65 velocity=0 time=0
EXTRACT: note_on channel=0 note=59 velocity=80 time=0.008333339583333332
EXTRACT: note_on channel=0 note=62 velocity=80 time=0
EXTRACT: note_on channel=0 note=67 velocity=80 time=0
EXTRACT: note_on channel=4 note=53 velocity=80 time=0.14285725
EXTRACT: note_on channel=3 note=60 velocity=0 time=0.2559525729166666
EXTRACT: note_on channel=3 note=57 velocity=80 time=0.02976192708333333
EXTRACT: note_on channel=0 note=59 velocity=0 time=0.11309532291666666
EXTRACT: note_on channel=0 note=62 velocity=0 time=0
EXTRACT: note_on channel=0 note=67 velocity=0 time=0
EXTRACT: note_on channel=0 note=60 velocity=80 time=0.17261917708333332
EXTRACT: note_on channel=2 note=65 velocity=80 time=0
EXTRACT: note_on channel=3 note=57 velocity=0 time=0.2559525729166666
EXTRACT: note_on channel=0 note=60 velocity=0 time=0.014285724999999999
EXTRACT: note_on channel=0 note=64 velocity=80 time=0.015476202083333331
EXTRACT: note_on channel=3 note=57 velocity=80 time=0
EXTRACT: note_on channel=4 note=53 velocity=0 time=0.22738112291666665
EXTRACT: note_on channel=0 note=64 velocity=0 time=0.042857175
EXTRACT: note_on channel=0 note=67 velocity=80 time=0.015476202083333331
EXTRACT: note_on channel=4 note=53 velocity=80 time=0
EXTRACT: note_on channel=1 note=72 velocity=0 time=0.11309532291666666
EXTRACT: note_on channel=2 note=65 velocity=0 time=0.128571525
EXTRACT: note_on channel=3 note=57 velocity=0 time=0.014285724999999999
EXTRACT: note_on channel=0 note=67 velocity=0 time=0.014285724999999999
EXTRACT: note_on channel=4 note=53 velocity=0 time=0
EXTRACT: note_on channel=0 note=64 velocity=80 time=0.015476202083333331
EXTRACT: note_on channel=0 note=67 velocity=80 time=0
EXTRACT: note_on channel=0 note=72 velocity=80 time=0
EXTRACT: note_on channel=1 note=72 velocity=80 time=0
EXTRACT: note_on channel=3 note=60 velocity=80 time=0
EXTRACT: note_on channel=4 note=55 velocity=80 time=0.2857145
EXTRACT: note_on channel=3 note=60 velocity=0 time=0.2559525729166666
EXTRACT: note_on channel=3 note=60 velocity=80 time=0.02976192708333333
EXTRACT: note_on channel=0 note=64 velocity=0 time=0.24166684791666665
EXTRACT: note_on channel=0 note=67 velocity=0 time=0
EXTRACT: note_on channel=0 note=72 velocity=0 time=0
EXTRACT: note_on channel=0 note=64 velocity=80 time=0.044047652083333326
EXTRACT: note_on channel=0 note=67 velocity=80 time=0
EXTRACT: note_on channel=0 note=72 velocity=80 time=0
EXTRACT: note_on channel=2 note=64 velocity=80 time=0
EXTRACT: note_on channel=3 note=60 velocity=0 time=0.2559525729166666
EXTRACT: note_on channel=3 note=60 velocity=80 time=0.02976192708333333
EXTRACT: note_on channel=4 note=55 velocity=0 time=0.22738112291666665
EXTRACT: note_on channel=4 note=55 velocity=80 time=0.058333377083333325
EXTRACT: note_on channel=0 note=64 velocity=0 time=0.24166684791666665
EXTRACT: note_on channel=0 note=67 velocity=0 time=0
EXTRACT: note_on channel=0 note=72 velocity=0 time=0
EXTRACT: note_on channel=3 note=60 velocity=0 time=0.014285724999999999
EXTRACT: note_on channel=4 note=55 velocity=0 time=0.014285724999999999
EXTRACT: note_on channel=0 note=60 velocity=80 time=0.015476202083333331
EXTRACT: note_on channel=0 note=64 velocity=80 time=0
EXTRACT: note_on channel=0 note=67 velocity=80 time=0
EXTRACT: note_on channel=3 note=60 velocity=80 time=0
EXTRACT: note_on channel=0 note=60 velocity=0 time=0.13452391041666664
EXTRACT: note_on channel=0 note=64 velocity=0 time=0
EXTRACT: note_on channel=0 note=67 velocity=0 time=0
EXTRACT: note_on channel=0 note=60 velocity=80 time=0.008333339583333332
EXTRACT: note_on channel=0 note=62 velocity=80 time=0
EXTRACT: note_on channel=0 note=65 velocity=80 time=0
EXTRACT: note_on channel=0 note=60 velocity=0 time=0.13452391041666664
EXTRACT: note_on channel=0 note=62 velocity=0 time=0
EXTRACT: note_on channel=0 note=65 velocity=0 time=0
EXTRACT: note_on channel=0 note=60 velocity=80 time=0.008333339583333332
EXTRACT: note_on channel=0 note=64 velocity=80 time=0
EXTRACT: note_on channel=4 note=55 velocity=80 time=0
EXTRACT: note_on channel=3 note=60 velocity=0 time=0.2559525729166666
EXTRACT: note_on channel=0 note=60 velocity=0 time=0.014285724999999999
EXTRACT: note_on channel=0 note=64 velocity=0 time=0
EXTRACT: note_on channel=0 note=60 velocity=80 time=0.015476202083333331
EXTRACT: note_on channel=3 note=60 velocity=80 time=0
EXTRACT: note_on channel=0 note=60 velocity=0 time=0.13452391041666664
EXTRACT: note_on channel=0 note=60 velocity=80 time=0.008333339583333332
EXTRACT: note_on channel=2 note=64 velocity=0 time=0.05595242291666666
EXTRACT: note_on channel=0 note=60 velocity=0 time=0.0785714875
EXTRACT: note_on channel=0 note=64 velocity=80 time=0.008333339583333332
EXTRACT: note_on channel=2 note=64 velocity=80 time=0
EXTRACT: note_on channel=3 note=60 velocity=0 time=0.2559525729166666
EXTRACT: note_on channel=0 note=64 velocity=0 time=0.014285724999999999
EXTRACT: note_on channel=0 note=62 velocity=80 time=0.015476202083333331
EXTRACT: note_on channel=3 note=60 velocity=80 time=0
EXTRACT: note_on channel=4 note=55 velocity=0 time=0.22738112291666665
EXTRACT: note_on channel=0 note=62 velocity=0 time=0.042857175
EXTRACT: note_on channel=0 note=60 velocity=80 time=0.015476202083333331
EXTRACT: note_on channel=4 note=55 velocity=80 time=0
EXTRACT: note_on channel=1 note=72 velocity=0 time=0.11309532291666666
EXTRACT: note_on channel=2 note=64 velocity=0 time=0.128571525
EXTRACT: note_on channel=3 note=60 velocity=0 time=0.014285724999999999
EXTRACT: note_on channel=0 note=60 velocity=0 time=0.014285724999999999
EXTRACT: note_on channel=4 note=55 velocity=0 time=0
EXTRACT: note_on channel=0 note=59 velocity=80 time=0.015476202083333331
EXTRACT: note_on channel=0 note=62 velocity=80 time=0
EXTRACT: note_on channel=0 note=67 velocity=80 time=0
EXTRACT: note_on channel=1 note=71 velocity=80 time=0
EXTRACT: note_on channel=3 note=59 velocity=80 time=0
EXTRACT: note_on channel=4 note=55 velocity=80 time=0.2857145
EXTRACT: note_on channel=3 note=59 velocity=0 time=0.2559525729166666
EXTRACT: note_on channel=3 note=59 velocity=80 time=0.02976192708333333
EXTRACT: note_on channel=0 note=59 velocity=0 time=0.24166684791666665
EXTRACT: note_on channel=0 note=62 velocity=0 time=0
EXTRACT: note_on channel=0 note=67 velocity=0 time=0
EXTRACT: note_on channel=0 note=59 velocity=80 time=0.044047652083333326
EXTRACT: note_on channel=0 note=62 velocity=80 time=0
EXTRACT: note_on channel=0 note=67 velocity=80 time=0
EXTRACT: note_on channel=2 note=62 velocity=80 time=0
EXTRACT: note_on channel=3 note=59 velocity=0 time=0.2559525729166666
EXTRACT: note_on channel=3 note=59 velocity=80 time=0.02976192708333333
EXTRACT: note_on channel=4 note=55 velocity=0 time=0.22738112291666665
EXTRACT: note_on channel=4 note=55 velocity=80 time=0.058333377083333325
EXTRACT: note_on channel=0 note=59 velocity=0 time=0.24166684791666665
EXTRACT: note_on channel=0 note=62 velocity=0 time=0
EXTRACT: note_on channel=0 note=67 velocity=0 time=0
EXTRACT: note_on channel=2 note=62 velocity=0 time=0
EXTRACT: note_on channel=3 note=59 velocity=0 time=0.014285724999999999
EXTRACT: note_on channel=4 note=55 velocity=0 time=0.014285724999999999
EXTRACT: note_on channel=0 note=60 velocity=80 time=0.015476202083333331
EXTRACT: note_on channel=0 note=64 velocity=80 time=0
EXTRACT: note_on channel=0 note=69 velocity=80 time=0
EXTRACT: note_on channel=3 note=60 velocity=80 time=0
EXTRACT: note_on channel=4 note=55 velocity=80 time=0.2857145
EXTRACT: note_on channel=3 note=60 velocity=0 time=0.2559525729166666
EXTRACT: note_on channel=3 note=60 velocity=80 time=0.02976192708333333
EXTRACT: note_on channel=0 note=60 velocity=0 time=0.24166684791666665
EXTRACT: note_on channel=0 note=64 velocity=0 time=0
EXTRACT: note_on channel=0 note=69 velocity=0 time=0
EXTRACT: note_on channel=0 note=64 velocity=80 time=0.044047652083333326
EXTRACT: note_on channel=2 note=62 velocity=80 time=0
EXTRACT: note_on channel=3 note=60 velocity=0 time=0.2559525729166666
EXTRACT: note_on channel=0 note=64 velocity=0 time=0.014285724999999999
EXTRACT: note_on channel=0 note=62 velocity=80 time=0.015476202083333331
EXTRACT: note_on channel=3 note=59 velocity=80 time=0
EXTRACT: note_on channel=4 note=55 velocity=0 time=0.22738112291666665
EXTRACT: note_on channel=0 note=62 velocity=0 time=0.042857175
EXTRACT: note_on channel=0 note=60 velocity=80 time=0.015476202083333331
EXTRACT: note_on channel=4 note=55 velocity=80 time=0
EXTRACT: note_on channel=1 note=71 velocity=0 time=0.11309532291666666
EXTRACT: note_on channel=2 note=62 velocity=0 time=0.128571525
EXTRACT: note_on channel=3 note=59 velocity=0 time=0.014285724999999999
EXTRACT: note_on channel=0 note=60 velocity=0 time=0.014285724999999999
EXTRACT: note_on channel=4 note=55 velocity=0 time=0
EXTRACT: note_on channel=0 note=57 velocity=80 time=0.015476202083333331
EXTRACT: note_on channel=0 note=60 velocity=80 time=0
EXTRACT: note_on channel=0 note=64 velocity=80 time=0
EXTRACT: note_on channel=1 note=69 velocity=80 time=0
EXTRACT: note_on channel=3 note=57 velocity=80 time=0
EXTRACT: note_on channel=4 note=52 velocity=80 time=0.2857145
EXTRACT: note_on channel=3 note=57 velocity=0 time=0.2559525729166666
EXTRACT: note_on channel=3 note=57 velocity=80 time=0.02976192708333333
EXTRACT: note_on channel=0 note=57 velocity=0 time=0.24166684791666665
EXTRACT: note_on channel=0 note=60 velocity=0 time=0
EXTRACT: note_on channel=0 note=64 velocity=0 time=0
EXTRACT: note_on channel=0 note=57 velocity=80 time=0.044047652083333326
EXTRACT: note_on channel=0 note=60 velocity=80 time=0
EXTRACT: note_on channel=0 note=64 velocity=80 time=0
EXTRACT: note_on channel=2 note=60 velocity=80 time=0
EXTRACT: note_on channel=3 note=57 velocity=0 time=0.2559525729166666
EXTRACT: note_on channel=3 note=57 velocity=80 time=0.02976192708333333
EXTRACT: note_on channel=4 note=52 velocity=0 time=0.22738112291666665
EXTRACT: note_on channel=4 note=52 velocity=80 time=0.058333377083333325
EXTRACT: note_on channel=0 note=57 velocity=0 time=0.24166684791666665
EXTRACT: note_on channel=0 note=60 velocity=0 time=0
EXTRACT: note_on channel=0 note=64 velocity=0 time=0
EXTRACT: note_on channel=2 note=60 velocity=0 time=0
EXTRACT: note_on channel=3 note=57 velocity=0 time=0.014285724999999999
EXTRACT: note_on channel=4 note=52 velocity=0 time=0.014285724999999999
EXTRACT: note_on channel=0 note=57 velocity=80 time=0.015476202083333331
EXTRACT: note_on channel=0 note=60 velocity=80 time=0
EXTRACT: note_on channel=3 note=57 velocity=80 time=0
EXTRACT: note_on channel=0 note=57 velocity=0 time=0.27023829791666665
EXTRACT: note_on channel=0 note=60 velocity=0 time=0
EXTRACT: note_on channel=4 note=52 velocity=80 time=0.015476202083333331
EXTRACT: note_on channel=3 note=57 velocity=0 time=0.2559525729166666
EXTRACT: note_on channel=3 note=57 velocity=80 time=0.02976192708333333
EXTRACT: note_on channel=0 note=64 velocity=80 time=0.2857145
EXTRACT: note_on channel=2 note=60 velocity=80 time=0
EXTRACT: note_on channel=3 note=57 velocity=0 time=0.2559525729166666
EXTRACT: note_on channel=0 note=64 velocity=0 time=0.014285724999999999
EXTRACT: note_on channel=0 note=62 velocity=80 time=0.015476202083333331
EXTRACT: note_on channel=3 note=57 velocity=80 time=0
EXTRACT: note_on channel=1 note=69 velocity=0 time=0.12738104791666666
EXTRACT: note_on channel=4 note=52 velocity=0 time=0.100000075
EXTRACT: note_on channel=0 note=62 velocity=0 time=0.042857175
EXTRACT: note_on channel=0 note=60 velocity=80 time=0.015476202083333331
EXTRACT: note_on channel=1 note=69 velocity=80 time=0
EXTRACT: note_on channel=4 note=52 velocity=80 time=0
EXTRACT: note_on channel=2 note=60 velocity=0 time=0.24166684791666665
EXTRACT: note_on channel=3 note=57 velocity=0 time=0.014285724999999999
EXTRACT: note_on channel=0 note=60 velocity=0 time=0.014285724999999999
EXTRACT: note_on channel=1 note=69 velocity=0 time=0
EXTRACT: note_on channel=4 note=52 velocity=0 time=0
EXTRACT: note_on channel=0 note=57 velocity=80 time=0.015476202083333331
EXTRACT: note_on channel=0 note=60 velocity=80 time=0
EXTRACT: note_on channel=0 note=65 velocity=80 time=0
EXTRACT: note_on channel=1 note=72 velocity=80 time=0
EXTRACT: note_on channel=3 note=60 velocity=80 time=0
EXTRACT: note_on channel=4 note=53 velocity=80 time=0.2857145
EXTRACT: note_on channel=3 note=60 velocity=0 time=0.2559525729166666
EXTRACT: note_on channel=3 note=57 velocity=80 time=0.02976192708333333
EXTRACT: note_on channel=0 note=57 velocity=0 time=0.24166684791666665
EXTRACT: note_on channel=0 note=60 velocity=0 time=0
EXTRACT: note_on channel=0 note=65 velocity=0 time=0
EXTRACT: note_on channel=0 note=57 velocity=80 time=0.044047652083333326
EXTRACT: note_on channel=0 note=60 velocity=80 time=0
EXTRACT: note_on channel=0 note=65 velocity=80 time=0
EXTRACT: note_on channel=2 note=65 velocity=80 time=0
EXTRACT: note_on channel=3 note=57 velocity=0 time=0.2559525729166666
EXTRACT: note_on channel=3 note=57 velocity=80 time=0.02976192708333333
EXTRACT: note_on channel=4 note=53 velocity=0 time=0.22738112291666665
EXTRACT: note_on channel=4 note=53 velocity=80 time=0.058333377083333325
EXTRACT: note_on channel=0 note=57 velocity=0 time=0.24166684791666665
EXTRACT: note_on channel=0 note=60 velocity=0 time=0
EXTRACT: note_on channel=0 note=65 velocity=0 time=0
EXTRACT: note_on channel=2 note=65 velocity=0 time=0
EXTRACT: note_on channel=3 note=57 velocity=0 time=0.014285724999999999
EXTRACT: note_on channel=4 note=53 velocity=0 time=0.014285724999999999
EXTRACT: note_on channel=0 note=57 velocity=80 time=0.015476202083333331
EXTRACT: note_on channel=0 note=60 velocity=80 time=0
EXTRACT: note_on channel=0 note=65 velocity=80 time=0
EXTRACT: note_on channel=3 note=60 velocity=80 time=0
EXTRACT: note_on channel=0 note=57 velocity=0 time=0.13452391041666664
EXTRACT: note_on channel=0 note=60 velocity=0 time=0
EXTRACT: note_on channel=0 note=65 velocity=0 time=0
EXTRACT: note_on channel=0 note=59 velocity=80 time=0.008333339583333332
EXTRACT: note_on channel=0 note=62 velocity=80 time=0
EXTRACT: note_on channel=0 note=67 velocity=80 time=0
EXTRACT: note_on channel=4 note=53 velocity=80 time=0.14285725
EXTRACT: note_on channel=3 note=60 velocity=0 time=0.2559525729166666
EXTRACT: note_on channel=3 note=57 velocity=80 time=0.02976192708333333
EXTRACT: note_on channel=0 note=59 velocity=0 time=0.11309532291666666
EXTRACT: note_on channel=0 note=62 velocity=0 time=0
EXTRACT: note_on channel=0 note=67 velocity=0 time=0
EXTRACT: note_on channel=0 note=60 velocity=80 time=0.17261917708333332
EXTRACT: note_on channel=2 note=65 velocity=80 time=0
EXTRACT: note_on channel=3 note=57 velocity=0 time=0.2559525729166666
EXTRACT: note_on channel=0 note=60 velocity=0 time=0.014285724999999999
EXTRACT: note_on channel=0 note=64 velocity=80 time=0.015476202083333331
EXTRACT: note_on channel=3 note=57 velocity=80 time=0
EXTRACT: note_on channel=4 note=53 velocity=0 time=0.22738112291666665
EXTRACT: note_on channel=0 note=64 velocity=0 time=0.042857175
EXTRACT: note_on channel=0 note=67 velocity=80 time=0.015476202083333331
EXTRACT: note_on channel=4 note=53 velocity=80 time=0
EXTRACT: note_on channel=1 note=72 velocity=0 time=0.11309532291666666
EXTRACT: note_on channel=2 note=65 velocity=0 time=0.128571525
EXTRACT: note_on channel=3 note=57 velocity=0 time=0.014285724999999999
EXTRACT: note_on channel=0 note=67 velocity=0 time=0.014285724999999999
EXTRACT: note_on channel=4 note=53 velocity=0 time=0
EXTRACT: note_on channel=0 note=64 velocity=80 time=0.015476202083333331
EXTRACT: note_on channel=0 note=67 velocity=80 time=0
EXTRACT: note_on channel=0 note=72 velocity=80 time=0
EXTRACT: note_on channel=1 note=72 velocity=80 time=0
EXTRACT: note_on channel=3 note=60 velocity=80 time=0
EXTRACT: note_on channel=4 note=55 velocity=80 time=0.2857145
EXTRACT: note_on channel=3 note=60 velocity=0 time=0.2559525729166666
EXTRACT: note_on channel=3 note=60 velocity=80 time=0.02976192708333333
EXTRACT: note_on channel=0 note=64 velocity=0 time=0.24166684791666665
EXTRACT: note_on channel=0 note=67 velocity=0 time=0
EXTRACT: note_on channel=0 note=72 velocity=0 time=0
EXTRACT: note_on channel=0 note=64 velocity=80 time=0.044047652083333326
EXTRACT: note_on channel=0 note=67 velocity=80 time=0
EXTRACT: note_on channel=0 note=72 velocity=80 time=0
EXTRACT: note_on channel=2 note=64 velocity=80 time=0
EXTRACT: note_on channel=3 note=60 velocity=0 time=0.2559525729166666
EXTRACT: note_on channel=3 note=60 velocity=80 time=0.02976192708333333
EXTRACT: note_on channel=4 note=55 velocity=0 time=0.22738112291666665
EXTRACT: note_on channel=4 note=55 velocity=80 time=0.058333377083333325
EXTRACT: note_on channel=0 note=64 velocity=0 time=0.24166684791666665
EXTRACT: note_on channel=0 note=67 velocity=0 time=0
EXTRACT: note_on channel=0 note=72 velocity=0 time=0
EXTRACT: note_on channel=3 note=60 velocity=0 time=0.014285724999999999
EXTRACT: note_on channel=4 note=55 velocity=0 time=0.014285724999999999
EXTRACT: note_on channel=0 note=60 velocity=80 time=0.015476202083333331
EXTRACT: note_on channel=0 note=64 velocity=80 time=0
EXTRACT: note_on channel=0 note=67 velocity=80 time=0
EXTRACT: note_on channel=3 note=60 velocity=80 time=0
EXTRACT: note_on channel=0 note=60 velocity=0 time=0.13452391041666664
EXTRACT: note_on channel=0 note=64 velocity=0 time=0
EXTRACT: note_on channel=0 note=67 velocity=0 time=0
EXTRACT: note_on channel=0 note=60 velocity=80 time=0.008333339583333332
EXTRACT: note_on channel=0 note=62 velocity=80 time=0
EXTRACT: note_on channel=0 note=65 velocity=80 time=0
EXTRACT: note_on channel=0 note=60 velocity=0 time=0.13452391041666664
EXTRACT: note_on channel=0 note=62 velocity=0 time=0
EXTRACT: note_on channel=0 note=65 velocity=0 time=0
EXTRACT: note_on channel=0 note=60 velocity=80 time=0.008333339583333332
EXTRACT: note_on channel=0 note=64 velocity=80 time=0
EXTRACT: note_on channel=4 note=55 velocity=80 time=0
EXTRACT: note_on channel=3 note=60 velocity=0 time=0.2559525729166666
EXTRACT: note_on channel=0 note=60 velocity=0 time=0.014285724999999999
EXTRACT: note_on channel=0 note=64 velocity=0 time=0
EXTRACT: note_on channel=0 note=60 velocity=80 time=0.015476202083333331
EXTRACT: note_on channel=3 note=60 velocity=80 time=0
EXTRACT: note_on channel=0 note=60 velocity=0 time=0.13452391041666664
EXTRACT: note_on channel=0 note=60 velocity=80 time=0.008333339583333332
EXTRACT: note_on channel=2 note=64 velocity=0 time=0.05595242291666666
EXTRACT: note_on channel=0 note=60 velocity=0 time=0.0785714875
EXTRACT: note_on channel=0 note=64 velocity=80 time=0.008333339583333332
EXTRACT: note_on channel=2 note=64 velocity=80 time=0
EXTRACT: note_on channel=3 note=60 velocity=0 time=0.2559525729166666
EXTRACT: note_on channel=0 note=64 velocity=0 time=0.014285724999999999
EXTRACT: note_on channel=0 note=62 velocity=80 time=0.015476202083333331
EXTRACT: note_on channel=3 note=60 velocity=80 time=0
EXTRACT: note_on channel=4 note=55 velocity=0 time=0.22738112291666665
EXTRACT: note_on channel=0 note=62 velocity=0 time=0.042857175
EXTRACT: note_on channel=0 note=60 velocity=80 time=0.015476202083333331
EXTRACT: note_on channel=4 note=55 velocity=80 time=0
EXTRACT: note_on channel=1 note=72 velocity=0 time=0.11309532291666666
EXTRACT: note_on channel=2 note=64 velocity=0 time=0.128571525
EXTRACT: note_on channel=3 note=60 velocity=0 time=0.014285724999999999
EXTRACT: note_on channel=0 note=60 velocity=0 time=0.014285724999999999
EXTRACT: note_on channel=4 note=55 velocity=0 time=0
EXTRACT: note_on channel=0 note=59 velocity=80 time=0.015476202083333331
EXTRACT: note_on channel=0 note=62 velocity=80 time=0
EXTRACT: note_on channel=0 note=67 velocity=80 time=0
EXTRACT: note_on channel=1 note=71 velocity=80 time=0
EXTRACT: note_on channel=3 note=59 velocity=80 time=0
EXTRACT: note_on channel=4 note=55 velocity=80 time=0.2857145
EXTRACT: note_on channel=3 note=59 velocity=0 time=0.2559525729166666
EXTRACT: note_on channel=3 note=59 velocity=80 time=0.02976192708333333
EXTRACT: note_on channel=0 note=59 velocity=0 time=0.24166684791666665
EXTRACT: note_on channel=0 note=62 velocity=0 time=0
EXTRACT: note_on channel=0 note=67 velocity=0 time=0
EXTRACT: note_on channel=0 note=59 velocity=80 time=0.044047652083333326
EXTRACT: note_on channel=0 note=62 velocity=80 time=0
EXTRACT: note_on channel=0 note=67 velocity=80 time=0
EXTRACT: note_on channel=2 note=62 velocity=80 time=0
EXTRACT: note_on channel=3 note=59 velocity=0 time=0.2559525729166666
EXTRACT: note_on channel=3 note=59 velocity=80 time=0.02976192708333333
EXTRACT: note_on channel=4 note=55 velocity=0 time=0.22738112291666665
EXTRACT: note_on channel=4 note=55 velocity=80 time=0.058333377083333325
EXTRACT: note_on channel=0 note=59 velocity=0 time=0.24166684791666665
EXTRACT: note_on channel=0 note=62 velocity=0 time=0
EXTRACT: note_on channel=0 note=67 velocity=0 time=0
EXTRACT: note_on channel=2 note=62 velocity=0 time=0
EXTRACT: note_on channel=3 note=59 velocity=0 time=0.014285724999999999
EXTRACT: note_on channel=4 note=55 velocity=0 time=0.014285724999999999
EXTRACT: note_on channel=0 note=60 velocity=80 time=0.015476202083333331
EXTRACT: note_on channel=0 note=64 velocity=80 time=0
EXTRACT: note_on channel=0 note=69 velocity=80 time=0
EXTRACT: note_on channel=1 note=71 velocity=80 time=0
EXTRACT: note_on channel=3 note=60 velocity=80 time=0
EXTRACT: note_on channel=4 note=55 velocity=80 time=0.2857145
EXTRACT: note_on channel=3 note=60 velocity=0 time=0.2559525729166666
EXTRACT: note_on channel=3 note=60 velocity=80 time=0.02976192708333333
EXTRACT: note_on channel=0 note=60 velocity=0 time=0.24166684791666665
EXTRACT: note_on channel=0 note=64 velocity=0 time=0
EXTRACT: note_on channel=0 note=69 velocity=0 time=0
EXTRACT: note_on channel=0 note=64 velocity=80 time=0.044047652083333326
EXTRACT: note_on channel=2 note=62 velocity=80 time=0
EXTRACT: note_on channel=3 note=60 velocity=0 time=0.2559525729166666
EXTRACT: note_on channel=0 note=64 velocity=0 time=0.014285724999999999
EXTRACT: note_on channel=0 note=62 velocity=80 time=0.015476202083333331
EXTRACT: note_on channel=3 note=59 velocity=80 time=0
EXTRACT: note_on channel=4 note=55 velocity=0 time=0.22738112291666665
EXTRACT: note_on channel=0 note=62 velocity=0 time=0.042857175
EXTRACT: note_on channel=0 note=60 velocity=80 time=0.015476202083333331
EXTRACT: note_on channel=4 note=55 velocity=80 time=0
EXTRACT: note_on channel=1 note=71 velocity=0 time=0.11309532291666666
EXTRACT: note_on channel=1 note=71 velocity=0 time=0.08571435
EXTRACT: note_on channel=2 note=62 velocity=0 time=0.042857175
EXTRACT: note_on channel=3 note=59 velocity=0 time=0.014285724999999999
EXTRACT: note_on channel=0 note=60 velocity=0 time=0.014285724999999999
EXTRACT: note_on channel=4 note=55 velocity=0 time=0
EXTRACT: note_on channel=0 note=57 velocity=80 time=0.015476202083333331
EXTRACT: note_on channel=0 note=60 velocity=80 time=0
EXTRACT: note_on channel=0 note=64 velocity=80 time=0
EXTRACT: note_on channel=1 note=69 velocity=80 time=0
EXTRACT: note_on channel=3 note=57 velocity=80 time=0
EXTRACT: note_on channel=4 note=52 velocity=80 time=0.2857145
EXTRACT: note_on channel=3 note=57 velocity=0 time=0.2559525729166666
EXTRACT: note_on channel=3 note=57 velocity=80 time=0.02976192708333333
EXTRACT: note_on channel=0 note=57 velocity=0 time=0.24166684791666665
EXTRACT: note_on channel=0 note=60 velocity=0 time=0
EXTRACT: note_on channel=0 note=64 velocity=0 time=0
EXTRACT: note_on channel=0 note=57 velocity=80 time=0.044047652083333326
EXTRACT: note_on channel=0 note=60 velocity=80 time=0
EXTRACT: note_on channel=0 note=64 velocity=80 time=0
EXTRACT: note_on channel=2 note=60 velocity=80 time=0
EXTRACT: note_on channel=3 note=57 velocity=0 time=0.2559525729166666
EXTRACT: note_on channel=3 note=57 velocity=80 time=0.02976192708333333
EXTRACT: note_on channel=4 note=52 velocity=0 time=0.22738112291666665
EXTRACT: note_on channel=4 note=52 velocity=80 time=0.058333377083333325
EXTRACT: note_on channel=0 note=57 velocity=0 time=0.24166684791666665
EXTRACT: note_on channel=0 note=60 velocity=0 time=0
EXTRACT: note_on channel=0 note=64 velocity=0 time=0
EXTRACT: note_on channel=2 note=60 velocity=0 time=0
EXTRACT: note_on channel=3 note=57 velocity=0 time=0.014285724999999999
EXTRACT: note_on channel=4 note=52 velocity=0 time=0.014285724999999999
EXTRACT: note_on channel=3 note=57 velocity=80 time=0.015476202083333331
EXTRACT: note_on channel=4 note=53 velocity=80 time=0.2857145
EXTRACT: note_on channel=3 note=57 velocity=0 time=0.2559525729166666
EXTRACT: note_on channel=3 note=57 velocity=80 time=0.02976192708333333
EXTRACT: note_on channel=2 note=60 velocity=80 time=0.2857145
EXTRACT: note_on channel=3 note=57 velocity=0 time=0.2559525729166666
EXTRACT: note_on channel=3 note=57 velocity=80 time=0.02976192708333333
EXTRACT: note_on channel=4 note=53 velocity=0 time=0.22738112291666665
EXTRACT: note_on channel=4 note=53 velocity=80 time=0.058333377083333325
EXTRACT: note_on channel=1 note=69 velocity=0 time=0.11309532291666666
EXTRACT: note_on channel=2 note=60 velocity=0 time=0.128571525
EXTRACT: note_on channel=3 note=57 velocity=0 time=0.014285724999999999
EXTRACT: note_on channel=4 note=53 velocity=0 time=0.014285724999999999
EXTRACT: note_on channel=1 note=72 velocity=80 time=0.015476202083333331
EXTRACT: note_on channel=4 note=55 velocity=80 time=0
EXTRACT: note_on channel=3 note=60 velocity=80 time=0.2857145
EXTRACT: note_on channel=4 note=55 velocity=0 time=0.2559525729166666
EXTRACT: note_on channel=4 note=55 velocity=80 time=0.02976192708333333
EXTRACT: note_on channel=3 note=60 velocity=0 time=0.2559525729166666
EXTRACT: note_on channel=2 note=64 velocity=80 time=0.02976192708333333
EXTRACT: note_on channel=4 note=55 velocity=0 time=0.2559525729166666
EXTRACT: note_on channel=4 note=55 velocity=80 time=0.02976192708333333
EXTRACT: note_on channel=3 note=60 velocity=80 time=0.2857145
EXTRACT: note_on channel=1 note=72 velocity=0 time=0.19880967291666665
EXTRACT: note_on channel=4 note=55 velocity=0 time=0.057142899999999996
EXTRACT: note_on channel=3 note=60 velocity=0 time=0.014285724999999999
EXTRACT: note_on channel=1 note=71 velocity=80 time=0.015476202083333331
EXTRACT: note_on channel=3 note=59 velocity=80 time=0
EXTRACT: note_on channel=4 note=55 velocity=80 time=0.2857145
EXTRACT: note_on channel=3 note=59 velocity=0 time=0.2559525729166666
EXTRACT: note_on channel=3 note=59 velocity=80 time=0.02976192708333333
EXTRACT: note_on channel=2 note=64 velocity=0 time=0.19880967291666665
EXTRACT: note_on channel=0 note=64 velocity=80 time=0.08690482708333332
EXTRACT: note_on channel=2 note=62 velocity=80 time=0
EXTRACT: note_on channel=3 note=59 velocity=0 time=0.2559525729166666
EXTRACT: note_on channel=0 note=64 velocity=0 time=0.014285724999999999
EXTRACT: note_on channel=0 note=62 velocity=80 time=0.015476202083333331
EXTRACT: note_on channel=3 note=59 velocity=80 time=0
EXTRACT: note_on channel=4 note=55 velocity=0 time=0.22738112291666665
EXTRACT: note_on channel=0 note=62 velocity=0 time=0.042857175
EXTRACT: note_on channel=0 note=60 velocity=80 time=0.015476202083333331
EXTRACT: note_on channel=4 note=55 velocity=80 time=0
EXTRACT: note_on channel=1 note=71 velocity=0 time=0.19880967291666665
EXTRACT: note_on channel=2 note=62 velocity=0 time=0.042857175
EXTRACT: note_on channel=3 note=59 velocity=0 time=0.014285724999999999
EXTRACT: note_on channel=0 note=60 velocity=0 time=0.014285724999999999
EXTRACT: note_on channel=4 note=55 velocity=0 time=0
EXTRACT: note_on channel=0 note=57 velocity=80 time=0.015476202083333331
EXTRACT: note_on channel=0 note=60 velocity=80 time=0
EXTRACT: note_on channel=0 note=64 velocity=80 time=0
EXTRACT: note_on channel=1 note=69 velocity=80 time=0
EXTRACT: note_on channel=3 note=57 velocity=80 time=0
EXTRACT: note_on channel=4 note=52 velocity=80 time=0.2857145
EXTRACT: note_on channel=3 note=57 velocity=0 time=0.2559525729166666
EXTRACT: note_on channel=3 note=57 velocity=80 time=0.02976192708333333
EXTRACT: note_on channel=0 note=57 velocity=0 time=0.24166684791666665
EXTRACT: note_on channel=0 note=60 velocity=0 time=0
EXTRACT: note_on channel=0 note=64 velocity=0 time=0
EXTRACT: note_on channel=0 note=57 velocity=80 time=0.044047652083333326
EXTRACT: note_on channel=0 note=60 velocity=80 time=0
EXTRACT: note_on channel=0 note=64 velocity=80 time=0
EXTRACT: note_on channel=2 note=60 velocity=80 time=0
EXTRACT: note_on channel=3 note=57 velocity=0 time=0.2559525729166666
EXTRACT: note_on channel=3 note=57 velocity=80 time=0.02976192708333333
EXTRACT: note_on channel=4 note=52 velocity=0 time=0.22738112291666665
EXTRACT: note_on channel=4 note=52 velocity=80 time=0.058333377083333325
EXTRACT: note_on channel=0 note=57 velocity=0 time=0.24166684791666665
EXTRACT: note_on channel=0 note=60 velocity=0 time=0
EXTRACT: note_on channel=0 note=64 velocity=0 time=0
EXTRACT: note_on channel=2 note=60 velocity=0 time=0
EXTRACT: note_on channel=3 note=57 velocity=0 time=0.014285724999999999
EXTRACT: note_on channel=4 note=52 velocity=0 time=0.014285724999999999
EXTRACT: note_on channel=3 note=57 velocity=80 time=0.015476202083333331
EXTRACT: note_on channel=4 note=53 velocity=80 time=0.2857145
EXTRACT: note_on channel=3 note=57 velocity=0 time=0.2559525729166666
EXTRACT: note_on channel=3 note=57 velocity=80 time=0.02976192708333333
EXTRACT: note_on channel=2 note=60 velocity=80 time=0.2857145
EXTRACT: note_on channel=3 note=57 velocity=0 time=0.2559525729166666
EXTRACT: note_on channel=3 note=57 velocity=80 time=0.02976192708333333
EXTRACT: note_on channel=4 note=53 velocity=0 time=0.22738112291666665
EXTRACT: note_on channel=4 note=53 velocity=80 time=0.058333377083333325
EXTRACT: note_on channel=1 note=69 velocity=0 time=0.11309532291666666
EXTRACT: note_on channel=2 note=60 velocity=0 time=0.128571525
EXTRACT: note_on channel=3 note=57 velocity=0 time=0.014285724999999999
EXTRACT: note_on channel=4 note=53 velocity=0 time=0.014285724999999999
EXTRACT: note_on channel=1 note=72 velocity=80 time=0.015476202083333331
EXTRACT: note_on channel=4 note=55 velocity=80 time=0
EXTRACT: note_on channel=3 note=60 velocity=80 time=0.2857145
EXTRACT: note_on channel=4 note=55 velocity=0 time=0.2559525729166666
EXTRACT: note_on channel=4 note=55 velocity=80 time=0.02976192708333333
EXTRACT: note_on channel=3 note=60 velocity=0 time=0.2559525729166666
EXTRACT: note_on channel=2 note=64 velocity=80 time=0.02976192708333333
EXTRACT: note_on channel=4 note=55 velocity=0 time=0.2559525729166666
EXTRACT: note_on channel=4 note=55 velocity=80 time=0.02976192708333333
EXTRACT: note_on channel=3 note=60 velocity=80 time=0.2857145
EXTRACT: note_on channel=1 note=72 velocity=0 time=0.19880967291666665
EXTRACT: note_on channel=2 note=64 velocity=0 time=0.042857175
EXTRACT: note_on channel=4 note=55 velocity=0 time=0.014285724999999999
EXTRACT: note_on channel=3 note=60 velocity=0 time=0.014285724999999999
EXTRACT: note_on channel=1 note=71 velocity=80 time=0.015476202083333331
EXTRACT: note_on channel=3 note=59 velocity=80 time=0
EXTRACT: note_on channel=4 note=55 velocity=80 time=0.2857145
EXTRACT: note_on channel=3 note=59 velocity=0 time=0.2559525729166666
EXTRACT: note_on channel=3 note=59 velocity=80 time=0.02976192708333333
EXTRACT: note_on channel=0 note=64 velocity=80 time=0.2857145
EXTRACT: note_on channel=2 note=62 velocity=80 time=0
EXTRACT: note_on channel=3 note=59 velocity=0 time=0.2559525729166666
EXTRACT: note_on channel=0 note=64 velocity=0 time=0.014285724999999999
EXTRACT: note_on channel=0 note=62 velocity=80 time=0.015476202083333331
EXTRACT: note_on channel=3 note=59 velocity=80 time=0
EXTRACT: note_on channel=4 note=55 velocity=0 time=0.22738112291666665
EXTRACT: note_on channel=0 note=62 velocity=0 time=0.042857175
EXTRACT: note_on channel=0 note=60 velocity=80 time=0.015476202083333331
EXTRACT: note_on channel=4 note=55 velocity=80 time=0
EXTRACT: note_on channel=1 note=71 velocity=0 time=0.19880967291666665
EXTRACT: note_on channel=2 note=62 velocity=0 time=0.042857175
EXTRACT: note_on channel=3 note=59 velocity=0 time=0.014285724999999999
EXTRACT: note_on channel=0 note=60 velocity=0 time=0.014285724999999999
EXTRACT: note_on channel=4 note=55 velocity=0 time=0
EXTRACT: note_on channel=0 note=60 velocity=80 time=0.015476202083333331
EXTRACT: note_on channel=1 note=72 velocity=80 time=0
EXTRACT: note_on channel=3 note=60 velocity=80 time=0
EXTRACT: note_on channel=4 note=55 velocity=80 time=0.2857145
EXTRACT: note_on channel=3 note=60 velocity=0 time=0.2559525729166666
EXTRACT: note_on channel=3 note=60 velocity=80 time=0.02976192708333333
EXTRACT: note_on channel=0 note=60 velocity=0 time=0.24166684791666665
EXTRACT: note_on channel=0 note=60 velocity=80 time=0.044047652083333326
EXTRACT: note_on channel=2 note=64 velocity=80 time=0
EXTRACT: note_on channel=3 note=60 velocity=0 time=0.2559525729166666
EXTRACT: note_on channel=3 note=60 velocity=80 time=0.02976192708333333
EXTRACT: note_on channel=4 note=55 velocity=0 time=0.22738112291666665
EXTRACT: note_on channel=4 note=55 velocity=80 time=0.058333377083333325
EXTRACT: note_on channel=0 note=60 velocity=0 time=0.24166684791666665
EXTRACT: note_on channel=2 note=64 velocity=0 time=0
EXTRACT: note_on channel=3 note=60 velocity=0 time=0.014285724999999999
EXTRACT: note_on channel=4 note=55 velocity=0 time=0.014285724999999999
EXTRACT: note_on channel=0 note=57 velocity=80 time=0.015476202083333331
EXTRACT: note_on channel=3 note=60 velocity=80 time=0
EXTRACT: note_on channel=0 note=57 velocity=0 time=0.27023829791666665
EXTRACT: note_on channel=4 note=55 velocity=80 time=0.015476202083333331
EXTRACT: note_on channel=3 note=60 velocity=0 time=0.2559525729166666
EXTRACT: note_on channel=3 note=60 velocity=80 time=0.02976192708333333
EXTRACT: note_on channel=0 note=64 velocity=80 time=0.2857145
EXTRACT: note_on channel=2 note=64 velocity=80 time=0
EXTRACT: note_on channel=3 note=60 velocity=0 time=0.2559525729166666
EXTRACT: note_on channel=0 note=64 velocity=0 time=0.014285724999999999
EXTRACT: note_on channel=0 note=67 velocity=80 time=0.015476202083333331
EXTRACT: note_on channel=3 note=60 velocity=80 time=0
EXTRACT: note_on channel=4 note=55 velocity=0 time=0.22738112291666665
EXTRACT: note_on channel=4 note=55 velocity=80 time=0.058333377083333325
EXTRACT: note_on channel=1 note=72 velocity=0 time=0.11309532291666666
EXTRACT: note_on channel=2 note=64 velocity=0 time=0.128571525
EXTRACT: note_on channel=0 note=67 velocity=0 time=0.014285724999999999
EXTRACT: note_on channel=3 note=60 velocity=0 time=0
EXTRACT: note_on channel=4 note=55 velocity=0 time=0.014285724999999999
EXTRACT: note_on channel=0 note=67 velocity=80 time=0.015476202083333331
EXTRACT: note_on channel=1 note=71 velocity=80 time=0
EXTRACT: note_on channel=3 note=57 velocity=80 time=0
EXTRACT: note_on channel=4 note=52 velocity=80 time=0.2857145
EXTRACT: note_on channel=3 note=57 velocity=0 time=0.2559525729166666
EXTRACT: note_on channel=3 note=57 velocity=80 time=0.02976192708333333
EXTRACT: note_on channel=0 note=67 velocity=0 time=0.24166684791666665
EXTRACT: note_on channel=1 note=71 velocity=0 time=0
EXTRACT: note_on channel=0 note=67 velocity=80 time=0.044047652083333326
EXTRACT: note_on channel=1 note=71 velocity=80 time=0
EXTRACT: note_on channel=2 note=60 velocity=80 time=0
EXTRACT: note_on channel=3 note=57 velocity=0 time=0.2559525729166666
EXTRACT: note_on channel=3 note=57 velocity=80 time=0.02976192708333333
EXTRACT: note_on channel=4 note=52 velocity=0 time=0.22738112291666665
EXTRACT: note_on channel=4 note=52 velocity=80 time=0.058333377083333325
EXTRACT: note_on channel=0 note=67 velocity=0 time=0.24166684791666665
EXTRACT: note_on channel=1 note=71 velocity=0 time=0
EXTRACT: note_on channel=2 note=60 velocity=0 time=0
EXTRACT: note_on channel=3 note=57 velocity=0 time=0.014285724999999999
EXTRACT: note_on channel=4 note=52 velocity=0 time=0.014285724999999999
EXTRACT: note_on channel=0 note=69 velocity=80 time=0.015476202083333331
EXTRACT: note_on channel=1 note=72 velocity=80 time=0
EXTRACT: note_on channel=1 note=76 velocity=80 time=0
EXTRACT: note_on channel=3 note=57 velocity=80 time=0
EXTRACT: note_on channel=4 note=52 velocity=80 time=0.2857145
EXTRACT: note_on channel=0 note=69 velocity=0 time=0.2559525729166666
EXTRACT: note_on channel=3 note=57 velocity=0 time=0
EXTRACT: note_on channel=3 note=57 velocity=80 time=0.02976192708333333
EXTRACT: note_on channel=0 note=64 velocity=80 time=0.2857145
EXTRACT: note_on channel=2 note=60 velocity=80 time=0
EXTRACT: note_on channel=3 note=57 velocity=0 time=0.2559525729166666
EXTRACT: note_on channel=0 note=64 velocity=0 time=0.014285724999999999
EXTRACT: note_on channel=0 note=67 velocity=80 time=0.015476202083333331
EXTRACT: note_on channel=3 note=57 velocity=80 time=0
EXTRACT: note_on channel=4 note=52 velocity=0 time=0.22738112291666665
EXTRACT: note_on channel=0 note=67 velocity=0 time=0.042857175
EXTRACT: note_on channel=0 note=69 velocity=80 time=0.015476202083333331
EXTRACT: note_on channel=4 note=52 velocity=80 time=0
EXTRACT: note_on channel=1 note=72 velocity=0 time=0.19880967291666665
EXTRACT: note_on channel=1 note=76 velocity=0 time=0
EXTRACT: note_on channel=2 note=60 velocity=0 time=0.042857175
EXTRACT: note_on channel=3 note=57 velocity=0 time=0.014285724999999999
EXTRACT: note_on channel=0 note=69 velocity=0 time=0.014285724999999999
EXTRACT: note_on channel=4 note=52 velocity=0 time=0
EXTRACT: note_on channel=0 note=69 velocity=80 time=0.015476202083333331
EXTRACT: note_on channel=1 note=72 velocity=80 time=0
EXTRACT: note_on channel=3 note=60 velocity=80 time=0
EXTRACT: note_on channel=4 note=53 velocity=80 time=0.2857145
EXTRACT: note_on channel=3 note=60 velocity=0 time=0.2559525729166666
EXTRACT: note_on channel=3 note=57 velocity=80 time=0.02976192708333333
EXTRACT: note_on channel=0 note=69 velocity=0 time=0.24166684791666665
EXTRACT: note_on channel=0 note=69 velocity=80 time=0.044047652083333326
EXTRACT: note_on channel=2 note=65 velocity=80 time=0
EXTRACT: note_on channel=0 note=69 velocity=0 time=0.13452391041666664
EXTRACT: note_on channel=0 note=67 velocity=80 time=0.008333339583333332
EXTRACT: note_on channel=3 note=57 velocity=0 time=0.11309532291666666
EXTRACT: note_on channel=0 note=67 velocity=0 time=0.0214285875
EXTRACT: note_on channel=0 note=65 velocity=80 time=0.008333339583333332
EXTRACT: note_on channel=3 note=57 velocity=80 time=0
EXTRACT: note_on channel=4 note=53 velocity=0 time=0.22738112291666665
EXTRACT: note_on channel=4 note=53 velocity=80 time=0.058333377083333325
EXTRACT: note_on channel=2 note=65 velocity=0 time=0.24166684791666665
EXTRACT: note_on channel=0 note=65 velocity=0 time=0.014285724999999999
EXTRACT: note_on channel=3 note=57 velocity=0 time=0
EXTRACT: note_on channel=4 note=53 velocity=0 time=0.014285724999999999
EXTRACT: note_on channel=3 note=60 velocity=80 time=0.015476202083333331
EXTRACT: note_on channel=4 note=53 velocity=80 time=0.2857145
EXTRACT: note_on channel=3 note=60 velocity=0 time=0.2559525729166666
EXTRACT: note_on channel=3 note=57 velocity=80 time=0.02976192708333333
EXTRACT: note_on channel=1 note=72 velocity=0 time=0.15595249791666665
EXTRACT: note_on channel=0 note=60 velocity=80 time=0.12976200208333333
EXTRACT: note_on channel=1 note=72 velocity=80 time=0
EXTRACT: note_on channel=1 note=77 velocity=80 time=0
EXTRACT: note_on channel=2 note=65 velocity=80 time=0
EXTRACT: note_on channel=3 note=57 velocity=0 time=0.2559525729166666
EXTRACT: note_on channel=0 note=60 velocity=0 time=0.014285724999999999
EXTRACT: note_on channel=0 note=62 velocity=80 time=0.015476202083333331
EXTRACT: note_on channel=3 note=57 velocity=80 time=0
EXTRACT: note_on channel=4 note=53 velocity=0 time=0.22738112291666665
EXTRACT: note_on channel=0 note=62 velocity=0 time=0.042857175
EXTRACT: note_on channel=0 note=64 velocity=80 time=0.015476202083333331
EXTRACT: note_on channel=4 note=53 velocity=80 time=0
EXTRACT: note_on channel=1 note=72 velocity=0 time=0.24166684791666665
EXTRACT: note_on channel=1 note=77 velocity=0 time=0
EXTRACT: note_on channel=2 note=65 velocity=0 time=0
EXTRACT: note_on channel=3 note=57 velocity=0 time=0.014285724999999999
EXTRACT: note_on channel=0 note=64 velocity=0 time=0.014285724999999999
EXTRACT: note_on channel=4 note=53 velocity=0 time=0
EXTRACT: note_on channel=0 note=64 velocity=80 time=0.015476202083333331
EXTRACT: note_on channel=1 note=72 velocity=80 time=0
EXTRACT: note_on channel=1 note=76 velocity=80 time=0
EXTRACT: note_on channel=4 note=55 velocity=80 time=0
EXTRACT: note_on channel=3 note=60 velocity=80 time=0.2857145
EXTRACT: note_on channel=4 note=55 velocity=0 time=0.2559525729166666
EXTRACT: note_on channel=4 note=55 velocity=80 time=0.02976192708333333
EXTRACT: note_on channel=0 note=64 velocity=0 time=0.24166684791666665
EXTRACT: note_on channel=0 note=62 velocity=80 time=0.044047652083333326
EXTRACT: note_on channel=2 note=64 velocity=80 time=0
EXTRACT: note_on channel=4 note=55 velocity=0 time=0.2559525729166666
EXTRACT: note_on channel=4 note=55 velocity=80 time=0.02976192708333333
EXTRACT: note_on channel=3 note=60 velocity=0 time=0.22738112291666665
EXTRACT: note_on channel=3 note=60 velocity=80 time=0.058333377083333325
EXTRACT: note_on channel=1 note=72 velocity=0 time=0.19880967291666665
EXTRACT: note_on channel=1 note=76 velocity=0 time=0
EXTRACT: note_on channel=0 note=62 velocity=0 time=0.042857175
EXTRACT: note_on channel=2 note=64 velocity=0 time=0
EXTRACT: note_on channel=4 note=55 velocity=0 time=0.014285724999999999
EXTRACT: note_on channel=3 note=60 velocity=0 time=0.014285724999999999
EXTRACT: note_on channel=1 note=71 velocity=80 time=0.015476202083333331
EXTRACT: note_on channel=1 note=74 velocity=80 time=0
EXTRACT: note_on channel=3 note=59 velocity=80 time=0
EXTRACT: note_on channel=4 note=55 velocity=80 time=0.2857145
EXTRACT: note_on channel=3 note=59 velocity=0 time=0.2559525729166666
EXTRACT: note_on channel=0 note=60 velocity=80 time=0.02976192708333333
EXTRACT: note_on channel=3 note=59 velocity=80 time=0
EXTRACT: note_on channel=0 note=60 velocity=0 time=0.27023829791666665
EXTRACT: note_on channel=0 note=64 velocity=80 time=0.015476202083333331
EXTRACT: note_on channel=2 note=62 velocity=80 time=0
EXTRACT: note_on channel=3 note=59 velocity=0 time=0.2559525729166666
EXTRACT: note_on channel=0 note=64 velocity=0 time=0.014285724999999999
EXTRACT: note_on channel=0 note=62 velocity=80 time=0.015476202083333331
EXTRACT: note_on channel=3 note=59 velocity=80 time=0
EXTRACT: note_on channel=4 note=55 velocity=0 time=0.22738112291666665
EXTRACT: note_on channel=0 note=62 velocity=0 time=0.042857175
EXTRACT: note_on channel=0 note=60 velocity=80 time=0.015476202083333331
EXTRACT: note_on channel=4 note=55 velocity=80 time=0
EXTRACT: note_on channel=1 note=71 velocity=0 time=0.19880967291666665
EXTRACT: note_on channel=1 note=74 velocity=0 time=0
EXTRACT: note_on channel=2 note=62 velocity=0 time=0.042857175
EXTRACT: note_on channel=3 note=59 velocity=0 time=0.014285724999999999
EXTRACT: note_on channel=0 note=60 velocity=0 time=0.014285724999999999
EXTRACT: note_on channel=4 note=55 velocity=0 time=0
EXTRACT: note_on channel=0 note=60 velocity=80 time=0.015476202083333331
EXTRACT: note_on channel=1 note=72 velocity=80 time=0
EXTRACT: note_on channel=3 note=60 velocity=80 time=0
EXTRACT: note_on channel=4 note=55 velocity=80 time=0.2857145
EXTRACT: note_on channel=3 note=60 velocity=0 time=0.2559525729166666
EXTRACT: note_on channel=3 note=60 velocity=80 time=0.02976192708333333
EXTRACT: note_on channel=0 note=60 velocity=0 time=0.24166684791666665
EXTRACT: note_on channel=0 note=60 velocity=80 time=0.044047652083333326
EXTRACT: note_on channel=2 note=64 velocity=80 time=0
EXTRACT: note_on channel=3 note=60 velocity=0 time=0.2559525729166666
EXTRACT: note_on channel=3 note=60 velocity=80 time=0.02976192708333333
EXTRACT: note_on channel=4 note=55 velocity=0 time=0.22738112291666665
EXTRACT: note_on channel=4 note=55 velocity=80 time=0.058333377083333325
EXTRACT: note_on channel=0 note=60 velocity=0 time=0.24166684791666665
EXTRACT: note_on channel=2 note=64 velocity=0 time=0
EXTRACT: note_on channel=3 note=60 velocity=0 time=0.014285724999999999
EXTRACT: note_on channel=4 note=55 velocity=0 time=0.014285724999999999
EXTRACT: note_on channel=0 note=57 velocity=80 time=0.015476202083333331
EXTRACT: note_on channel=3 note=60 velocity=80 time=0
EXTRACT: note_on channel=0 note=57 velocity=0 time=0.27023829791666665
EXTRACT: note_on channel=4 note=55 velocity=80 time=0.015476202083333331
EXTRACT: note_on channel=3 note=60 velocity=0 time=0.2559525729166666
EXTRACT: note_on channel=0 note=60 velocity=80 time=0.02976192708333333
EXTRACT: note_on channel=3 note=60 velocity=80 time=0
EXTRACT: note_on channel=0 note=60 velocity=0 time=0.27023829791666665
EXTRACT: note_on channel=0 note=64 velocity=80 time=0.015476202083333331
EXTRACT: note_on channel=2 note=64 velocity=80 time=0
EXTRACT: note_on channel=3 note=60 velocity=0 time=0.2559525729166666
EXTRACT: note_on channel=0 note=64 velocity=0 time=0.014285724999999999
EXTRACT: note_on channel=0 note=67 velocity=80 time=0.015476202083333331
EXTRACT: note_on channel=3 note=60 velocity=80 time=0
EXTRACT: note_on channel=4 note=55 velocity=0 time=0.22738112291666665
EXTRACT: note_on channel=0 note=67 velocity=0 time=0.042857175
EXTRACT: note_on channel=0 note=67 velocity=80 time=0.015476202083333331
EXTRACT: note_on channel=4 note=55 velocity=80 time=0
EXTRACT: note_on channel=1 note=72 velocity=0 time=0.11309532291666666
EXTRACT: note_on channel=2 note=64 velocity=0 time=0.128571525
EXTRACT: note_on channel=3 note=60 velocity=0 time=0.014285724999999999
EXTRACT: note_on channel=0 note=67 velocity=0 time=0.014285724999999999
EXTRACT: note_on channel=4 note=55 velocity=0 time=0
EXTRACT: note_on channel=0 note=67 velocity=80 time=0.015476202083333331
EXTRACT: note_on channel=1 note=71 velocity=80 time=0
EXTRACT: note_on channel=3 note=57 velocity=80 time=0
EXTRACT: note_on channel=4 note=52 velocity=80 time=0.2857145
EXTRACT: note_on channel=3 note=57 velocity=0 time=0.2559525729166666
EXTRACT: note_on channel=3 note=57 velocity=80 time=0.02976192708333333
EXTRACT: note_on channel=0 note=67 velocity=0 time=0.24166684791666665
EXTRACT: note_on channel=0 note=67 velocity=80 time=0.044047652083333326
EXTRACT: note_on channel=2 note=60 velocity=80 time=0
EXTRACT: note_on channel=3 note=57 velocity=0 time=0.2559525729166666
EXTRACT: note_on channel=0 note=67 velocity=0 time=0.014285724999999999
EXTRACT: note_on channel=0 note=64 velocity=80 time=0.015476202083333331
EXTRACT: note_on channel=3 note=57 velocity=80 time=0
EXTRACT: note_on channel=4 note=52 velocity=0 time=0.22738112291666665
EXTRACT: note_on channel=0 note=64 velocity=0 time=0.042857175
EXTRACT: note_on channel=0 note=64 velocity=80 time=0.015476202083333331
EXTRACT: note_on channel=4 note=52 velocity=80 time=0
EXTRACT: note_on channel=0 note=64 velocity=0 time=0.13452391041666664
EXTRACT: note_on channel=0 note=62 velocity=80 time=0.008333339583333332
EXTRACT: note_on channel=1 note=71 velocity=0 time=0.05595242291666666
EXTRACT: note_on channel=2 note=60 velocity=0 time=0.042857175
EXTRACT: note_on channel=3 note=57 velocity=0 time=0.014285724999999999
EXTRACT: note_on channel=4 note=52 velocity=0 time=0.014285724999999999
EXTRACT: note_on channel=1 note=72 velocity=80 time=0.015476202083333331
EXTRACT: note_on channel=1 note=76 velocity=80 time=0
EXTRACT: note_on channel=3 note=57 velocity=80 time=0
EXTRACT: note_on channel=0 note=62 velocity=0 time=0.12738104791666666
EXTRACT: note_on channel=4 note=52 velocity=80 time=0.15833345208333333
EXTRACT: note_on channel=3 note=57 velocity=0 time=0.2559525729166666
EXTRACT: note_on channel=0 note=60 velocity=80 time=0.02976192708333333
EXTRACT: note_on channel=3 note=57 velocity=80 time=0
EXTRACT: note_on channel=0 note=60 velocity=0 time=0.27023829791666665
EXTRACT: note_on channel=0 note=64 velocity=80 time=0.015476202083333331
EXTRACT: note_on channel=2 note=60 velocity=80 time=0
EXTRACT: note_on channel=3 note=57 velocity=0 time=0.2559525729166666
EXTRACT: note_on channel=0 note=64 velocity=0 time=0.014285724999999999
EXTRACT: note_on channel=0 note=67 velocity=80 time=0.015476202083333331
EXTRACT: note_on channel=3 note=57 velocity=80 time=0
EXTRACT: note_on channel=4 note=52 velocity=0 time=0.22738112291666665
EXTRACT: note_on channel=0 note=67 velocity=0 time=0.042857175
EXTRACT: note_on channel=0 note=69 velocity=80 time=0.015476202083333331
EXTRACT: note_on channel=4 note=52 velocity=80 time=0
EXTRACT: note_on channel=1 note=72 velocity=0 time=0.19880967291666665
EXTRACT: note_on channel=1 note=76 velocity=0 time=0
EXTRACT: note_on channel=2 note=60 velocity=0 time=0.042857175
EXTRACT: note_on channel=3 note=57 velocity=0 time=0.014285724999999999
EXTRACT: note_on channel=0 note=69 velocity=0 time=0.014285724999999999
EXTRACT: note_on channel=4 note=52 velocity=0 time=0
EXTRACT: note_on channel=0 note=69 velocity=80 time=0.015476202083333331
EXTRACT: note_on channel=1 note=72 velocity=80 time=0
EXTRACT: note_on channel=3 note=60 velocity=80 time=0
EXTRACT: note_on channel=4 note=53 velocity=80 time=0.2857145
EXTRACT: note_on channel=3 note=60 velocity=0 time=0.2559525729166666
EXTRACT: note_on channel=3 note=57 velocity=80 time=0.02976192708333333
EXTRACT: note_on channel=0 note=69 velocity=0 time=0.24166684791666665
EXTRACT: note_on channel=0 note=69 velocity=80 time=0.044047652083333326
EXTRACT: note_on channel=2 note=65 velocity=80 time=0
EXTRACT: note_on channel=0 note=69 velocity=0 time=0.13452391041666664
EXTRACT: note_on channel=0 note=67 velocity=80 time=0.008333339583333332
EXTRACT: note_on channel=3 note=57 velocity=0 time=0.11309532291666666
EXTRACT: note_on channel=0 note=67 velocity=0 time=0.0214285875
EXTRACT: note_on channel=0 note=65 velocity=80 time=0.008333339583333332
EXTRACT: note_on channel=3 note=57 velocity=80 time=0
EXTRACT: note_on channel=4 note=53 velocity=0 time=0.22738112291666665
EXTRACT: note_on channel=4 note=53 velocity=80 time=0.058333377083333325
EXTRACT: note_on channel=2 note=65 velocity=0 time=0.24166684791666665
EXTRACT: note_on channel=0 note=65 velocity=0 time=0.014285724999999999
EXTRACT: note_on channel=3 note=57 velocity=0 time=0
EXTRACT: note_on channel=4 note=53 velocity=0 time=0.014285724999999999
EXTRACT: note_on channel=3 note=60 velocity=80 time=0.015476202083333331
EXTRACT: note_on channel=4 note=53 velocity=80 time=0.2857145
EXTRACT: note_on channel=0 note=60 velocity=80 time=0.14285725
EXTRACT: note_on channel=3 note=60 velocity=0 time=0.11309532291666666
EXTRACT: note_on channel=0 note=60 velocity=0 time=0.0214285875
EXTRACT: note_on channel=0 note=60 velocity=80 time=0.008333339583333332
EXTRACT: note_on channel=3 note=57 velocity=80 time=0
EXTRACT: note_on channel=0 note=60 velocity=0 time=0.27023829791666665
EXTRACT: note_on channel=0 note=60 velocity=80 time=0.015476202083333331
EXTRACT: note_on channel=2 note=65 velocity=80 time=0
EXTRACT: note_on channel=0 note=60 velocity=0 time=0.13452391041666664
EXTRACT: note_on channel=0 note=62 velocity=80 time=0.008333339583333332
EXTRACT: note_on channel=3 note=57 velocity=0 time=0.11309532291666666
EXTRACT: note_on channel=3 note=57 velocity=80 time=0.02976192708333333
EXTRACT: note_on channel=0 note=62 velocity=0 time=0.12738104791666666
EXTRACT: note_on channel=0 note=64 velocity=80 time=0.015476202083333331
EXTRACT: note_on channel=4 note=53 velocity=0 time=0.08452387291666666
EXTRACT: note_on channel=4 note=53 velocity=80 time=0.058333377083333325
EXTRACT: note_on channel=1 note=72 velocity=0 time=0.11309532291666666
EXTRACT: note_on channel=2 note=65 velocity=0 time=0.128571525
EXTRACT: note_on channel=3 note=57 velocity=0 time=0.014285724999999999
EXTRACT: note_on channel=0 note=64 velocity=0 time=0.0071428624999999996
EXTRACT: note_on channel=4 note=53 velocity=0 time=0.0071428624999999996
EXTRACT: note_on channel=0 note=64 velocity=80 time=0.015476202083333331
EXTRACT: note_on channel=1 note=72 velocity=80 time=0
EXTRACT: note_on channel=4 note=55 velocity=80 time=0
EXTRACT: note_on channel=0 note=64 velocity=0 time=0.27023829791666665
EXTRACT: note_on channel=0 note=62 velocity=80 time=0.015476202083333331
EXTRACT: note_on channel=3 note=60 velocity=80 time=0
EXTRACT: note_on channel=4 note=55 velocity=0 time=0.2559525729166666
EXTRACT: note_on channel=4 note=55 velocity=80 time=0.02976192708333333
EXTRACT: note_on channel=3 note=60 velocity=0 time=0.2559525729166666
EXTRACT: note_on channel=2 note=64 velocity=80 time=0.02976192708333333
EXTRACT: note_on channel=0 note=62 velocity=0 time=0.24166684791666665
EXTRACT: note_on channel=4 note=55 velocity=0 time=0.014285724999999999
EXTRACT: note_on channel=4 note=55 velocity=80 time=0.02976192708333333
EXTRACT: note_on channel=3 note=60 velocity=80 time=0.2857145
EXTRACT: note_on channel=1 note=72 velocity=0 time=0.19880967291666665
EXTRACT: note_on channel=2 note=64 velocity=0 time=0.042857175
EXTRACT: note_on channel=4 note=55 velocity=0 time=0.014285724999999999
EXTRACT: note_on channel=3 note=60 velocity=0 time=0.014285724999999999
EXTRACT: note_on channel=1 note=71 velocity=80 time=0.015476202083333331
EXTRACT: note_on channel=3 note=59 velocity=80 time=0
EXTRACT: note_on channel=4 note=55 velocity=80 time=0.2857145
EXTRACT: note_on channel=3 note=59 velocity=0 time=0.2559525729166666
EXTRACT: note_on channel=3 note=59 velocity=80 time=0.02976192708333333
EXTRACT: note_on channel=0 note=64 velocity=80 time=0.2857145
EXTRACT: note_on channel=2 note=62 velocity=80 time=0
EXTRACT: note_on channel=3 note=59 velocity=0 time=0.2559525729166666
EXTRACT: note_on channel=0 note=64 velocity=0 time=0.014285724999999999
EXTRACT: note_on channel=0 note=62 velocity=80 time=0.015476202083333331
EXTRACT: note_on channel=3 note=59 velocity=80 time=0
EXTRACT: note_on channel=4 note=55 velocity=0 time=0.22738112291666665
EXTRACT: note_on channel=0 note=62 velocity=0 time=0.042857175
EXTRACT: note_on channel=0 note=60 velocity=80 time=0.015476202083333331
EXTRACT: note_on channel=4 note=55 velocity=80 time=0
EXTRACT: note_on channel=1 note=71 velocity=0 time=0.19880967291666665
EXTRACT: note_on channel=2 note=62 velocity=0 time=0.042857175
EXTRACT: note_on channel=3 note=59 velocity=0 time=0.014285724999999999
EXTRACT: note_on channel=0 note=60 velocity=0 time=0.014285724999999999
EXTRACT: note_on channel=4 note=55 velocity=0 time=0
EXTRACT: note_on channel=0 note=57 velocity=80 time=0.015476202083333331
EXTRACT: note_on channel=0 note=60 velocity=80 time=0
EXTRACT: note_on channel=0 note=64 velocity=80 time=0
EXTRACT: note_on channel=1 note=69 velocity=80 time=0
EXTRACT: note_on channel=3 note=57 velocity=80 time=0
EXTRACT: note_on channel=4 note=52 velocity=80 time=0.2857145
EXTRACT: note_on channel=3 note=57 velocity=0 time=0.2559525729166666
EXTRACT: note_on channel=3 note=57 velocity=80 time=0.02976192708333333
EXTRACT: note_on channel=0 note=57 velocity=0 time=0.24166684791666665
EXTRACT: note_on channel=0 note=60 velocity=0 time=0
EXTRACT: note_on channel=0 note=64 velocity=0 time=0
EXTRACT: note_on channel=0 note=57 velocity=80 time=0.044047652083333326
EXTRACT: note_on channel=0 note=60 velocity=80 time=0
EXTRACT: note_on channel=0 note=64 velocity=80 time=0
EXTRACT: note_on channel=2 note=60 velocity=80 time=0
EXTRACT: note_on channel=3 note=57 velocity=0 time=0.2559525729166666
EXTRACT: note_on channel=3 note=57 velocity=80 time=0.02976192708333333
EXTRACT: note_on channel=4 note=52 velocity=0 time=0.22738112291666665
EXTRACT: note_on channel=4 note=52 velocity=80 time=0.058333377083333325
EXTRACT: note_on channel=0 note=57 velocity=0 time=0.24166684791666665
EXTRACT: note_on channel=0 note=60 velocity=0 time=0
EXTRACT: note_on channel=0 note=64 velocity=0 time=0
EXTRACT: note_on channel=2 note=60 velocity=0 time=0
EXTRACT: note_on channel=3 note=57 velocity=0 time=0.014285724999999999
EXTRACT: note_on channel=4 note=52 velocity=0 time=0.014285724999999999
EXTRACT: note_on channel=0 note=57 velocity=80 time=0.015476202083333331
EXTRACT: note_on channel=0 note=60 velocity=80 time=0
EXTRACT: note_on channel=3 note=57 velocity=80 time=0
EXTRACT: note_on channel=0 note=57 velocity=0 time=0.27023829791666665
EXTRACT: note_on channel=0 note=60 velocity=0 time=0
EXTRACT: note_on channel=4 note=52 velocity=80 time=0.015476202083333331
EXTRACT: note_on channel=3 note=57 velocity=0 time=0.2559525729166666
EXTRACT: note_on channel=3 note=57 velocity=80 time=0.02976192708333333
EXTRACT: note_on channel=0 note=64 velocity=80 time=0.2857145
EXTRACT: note_on channel=2 note=60 velocity=80 time=0
EXTRACT: note_on channel=3 note=57 velocity=0 time=0.2559525729166666
EXTRACT: note_on channel=0 note=64 velocity=0 time=0.014285724999999999
EXTRACT: note_on channel=0 note=62 velocity=80 time=0.015476202083333331
EXTRACT: note_on channel=3 note=57 velocity=80 time=0
EXTRACT: note_on channel=1 note=69 velocity=0 time=0.12738104791666666
EXTRACT: note_on channel=4 note=52 velocity=0 time=0.100000075
EXTRACT: note_on channel=0 note=62 velocity=0 time=0.042857175
EXTRACT: note_on channel=0 note=60 velocity=80 time=0.015476202083333331
EXTRACT: note_on channel=1 note=69 velocity=80 time=0
EXTRACT: note_on channel=4 note=52 velocity=80 time=0
EXTRACT: note_on channel=2 note=60 velocity=0 time=0.24166684791666665
EXTRACT: note_on channel=3 note=57 velocity=0 time=0.014285724999999999
EXTRACT: note_on channel=0 note=60 velocity=0 time=0.014285724999999999
EXTRACT: note_on channel=1 note=69 velocity=0 time=0
EXTRACT: note_on channel=4 note=52 velocity=0 time=0
EXTRACT: note_on channel=0 note=57 velocity=80 time=0.015476202083333331
EXTRACT: note_on channel=0 note=60 velocity=80 time=0
EXTRACT: note_on channel=0 note=65 velocity=80 time=0
EXTRACT: note_on channel=1 note=72 velocity=80 time=0
EXTRACT: note_on channel=3 note=60 velocity=80 time=0
EXTRACT: note_on channel=4 note=53 velocity=80 time=0.2857145
EXTRACT: note_on channel=3 note=60 velocity=0 time=0.2559525729166666
EXTRACT: note_on channel=3 note=57 velocity=80 time=0.02976192708333333
EXTRACT: note_on channel=0 note=57 velocity=0 time=0.24166684791666665
EXTRACT: note_on channel=0 note=60 velocity=0 time=0
EXTRACT: note_on channel=0 note=65 velocity=0 time=0
EXTRACT: note_on channel=0 note=57 velocity=80 time=0.044047652083333326
EXTRACT: note_on channel=0 note=60 velocity=80 time=0
EXTRACT: note_on channel=0 note=65 velocity=80 time=0
EXTRACT: note_on channel=2 note=65 velocity=80 time=0
EXTRACT: note_on channel=3 note=57 velocity=0 time=0.2559525729166666
EXTRACT: note_on channel=3 note=57 velocity=80 time=0.02976192708333333
EXTRACT: note_on channel=4 note=53 velocity=0 time=0.22738112291666665
EXTRACT: note_on channel=4 note=53 velocity=80 time=0.058333377083333325
EXTRACT: note_on channel=0 note=57 velocity=0 time=0.24166684791666665
EXTRACT: note_on channel=0 note=60 velocity=0 time=0
EXTRACT: note_on channel=0 note=65 velocity=0 time=0
EXTRACT: note_on channel=2 note=65 velocity=0 time=0
EXTRACT: note_on channel=3 note=57 velocity=0 time=0.014285724999999999
EXTRACT: note_on channel=4 note=53 velocity=0 time=0.014285724999999999
EXTRACT: note_on channel=0 note=57 velocity=80 time=0.015476202083333331
EXTRACT: note_on channel=0 note=60 velocity=80 time=0
EXTRACT: note_on channel=0 note=65 velocity=80 time=0
EXTRACT: note_on channel=3 note=60 velocity=80 time=0
EXTRACT: note_on channel=0 note=57 velocity=0 time=0.13452391041666664
EXTRACT: note_on channel=0 note=60 velocity=0 time=0
EXTRACT: note_on channel=0 note=65 velocity=0 time=0
EXTRACT: note_on channel=0 note=59 velocity=80 time=0.008333339583333332
EXTRACT: note_on channel=0 note=62 velocity=80 time=0
EXTRACT: note_on channel=0 note=67 velocity=80 time=0
EXTRACT: note_on channel=4 note=53 velocity=80 time=0.14285725
EXTRACT: note_on channel=3 note=60 velocity=0 time=0.2559525729166666
EXTRACT: note_on channel=3 note=57 velocity=80 time=0.02976192708333333
EXTRACT: note_on channel=0 note=59 velocity=0 time=0.11309532291666666
EXTRACT: note_on channel=0 note=62 velocity=0 time=0
EXTRACT: note_on channel=0 note=67 velocity=0 time=0
EXTRACT: note_on channel=0 note=60 velocity=80 time=0.17261917708333332
EXTRACT: note_on channel=2 note=65 velocity=80 time=0
EXTRACT: note_on channel=3 note=57 velocity=0 time=0.2559525729166666
EXTRACT: note_on channel=0 note=60 velocity=0 time=0.014285724999999999
EXTRACT: note_on channel=0 note=64 velocity=80 time=0.015476202083333331
EXTRACT: note_on channel=3 note=57 velocity=80 time=0
EXTRACT: note_on channel=4 note=53 velocity=0 time=0.22738112291666665
EXTRACT: note_on channel=0 note=64 velocity=0 time=0.042857175
EXTRACT: note_on channel=0 note=67 velocity=80 time=0.015476202083333331
EXTRACT: note_on channel=4 note=53 velocity=80 time=0
EXTRACT: note_on channel=1 note=72 velocity=0 time=0.11309532291666666
EXTRACT: note_on channel=2 note=65 velocity=0 time=0.128571525
EXTRACT: note_on channel=3 note=57 velocity=0 time=0.014285724999999999
EXTRACT: note_on channel=0 note=67 velocity=0 time=0.014285724999999999
EXTRACT: note_on channel=4 note=53 velocity=0 time=0
EXTRACT: note_on channel=0 note=64 velocity=80 time=0.015476202083333331
EXTRACT: note_on channel=0 note=67 velocity=80 time=0
EXTRACT: note_on channel=0 note=72 velocity=80 time=0
EXTRACT: note_on channel=1 note=72 velocity=80 time=0
EXTRACT: note_on channel=3 note=60 velocity=80 time=0
EXTRACT: note_on channel=4 note=55 velocity=80 time=0.2857145
EXTRACT: note_on channel=3 note=60 velocity=0 time=0.2559525729166666
EXTRACT: note_on channel=3 note=60 velocity=80 time=0.02976192708333333
EXTRACT: note_on channel=0 note=64 velocity=0 time=0.24166684791666665
EXTRACT: note_on channel=0 note=67 velocity=0 time=0
EXTRACT: note_on channel=0 note=72 velocity=0 time=0
EXTRACT: note_on channel=0 note=64 velocity=80 time=0.044047652083333326
EXTRACT: note_on channel=0 note=67 velocity=80 time=0
EXTRACT: note_on channel=0 note=72 velocity=80 time=0
EXTRACT: note_on channel=2 note=64 velocity=80 time=0
EXTRACT: note_on channel=3 note=60 velocity=0 time=0.2559525729166666
EXTRACT: note_on channel=3 note=60 velocity=80 time=0.02976192708333333
EXTRACT: note_on channel=4 note=55 velocity=0 time=0.22738112291666665
EXTRACT: note_on channel=4 note=55 velocity=80 time=0.058333377083333325
EXTRACT: note_on channel=0 note=64 velocity=0 time=0.24166684791666665
EXTRACT: note_on channel=0 note=67 velocity=0 time=0
EXTRACT: note_on channel=0 note=72 velocity=0 time=0
EXTRACT: note_on channel=2 note=64 velocity=0 time=0
EXTRACT: note_on channel=3 note=60 velocity=0 time=0.014285724999999999
EXTRACT: note_on channel=4 note=55 velocity=0 time=0.014285724999999999
EXTRACT: note_on channel=0 note=60 velocity=80 time=0.015476202083333331
EXTRACT: note_on channel=0 note=64 velocity=80 time=0
EXTRACT: note_on channel=0 note=67 velocity=80 time=0
EXTRACT: note_on channel=3 note=60 velocity=80 time=0
EXTRACT: note_on channel=0 note=60 velocity=0 time=0.13452391041666664
EXTRACT: note_on channel=0 note=64 velocity=0 time=0
EXTRACT: note_on channel=0 note=67 velocity=0 time=0
EXTRACT: note_on channel=0 note=60 velocity=80 time=0.008333339583333332
EXTRACT: note_on channel=0 note=62 velocity=80 time=0
EXTRACT: note_on channel=0 note=65 velocity=80 time=0
EXTRACT: note_on channel=0 note=60 velocity=0 time=0.13452391041666664
EXTRACT: note_on channel=0 note=62 velocity=0 time=0
EXTRACT: note_on channel=0 note=65 velocity=0 time=0
EXTRACT: note_on channel=0 note=60 velocity=80 time=0.008333339583333332
EXTRACT: note_on channel=0 note=64 velocity=80 time=0
EXTRACT: note_on channel=4 note=55 velocity=80 time=0
EXTRACT: note_on channel=3 note=60 velocity=0 time=0.2559525729166666
EXTRACT: note_on channel=0 note=60 velocity=0 time=0.014285724999999999
EXTRACT: note_on channel=0 note=64 velocity=0 time=0
EXTRACT: note_on channel=0 note=60 velocity=80 time=0.015476202083333331
EXTRACT: note_on channel=3 note=60 velocity=80 time=0
EXTRACT: note_on channel=0 note=60 velocity=0 time=0.13452391041666664
EXTRACT: note_on channel=0 note=60 velocity=80 time=0.008333339583333332
EXTRACT: note_on channel=0 note=60 velocity=0 time=0.13452391041666664
EXTRACT: note_on channel=0 note=64 velocity=80 time=0.008333339583333332
EXTRACT: note_on channel=2 note=64 velocity=80 time=0
EXTRACT: note_on channel=3 note=60 velocity=0 time=0.2559525729166666
EXTRACT: note_on channel=0 note=64 velocity=0 time=0.014285724999999999
EXTRACT: note_on channel=0 note=62 velocity=80 time=0.015476202083333331
EXTRACT: note_on channel=3 note=60 velocity=80 time=0
EXTRACT: note_on channel=4 note=55 velocity=0 time=0.22738112291666665
EXTRACT: note_on channel=0 note=62 velocity=0 time=0.042857175
EXTRACT: note_on channel=0 note=60 velocity=80 time=0.015476202083333331
EXTRACT: note_on channel=4 note=55 velocity=80 time=0
EXTRACT: note_on channel=1 note=72 velocity=0 time=0.11309532291666666
EXTRACT: note_on channel=2 note=64 velocity=0 time=0.128571525
EXTRACT: note_on channel=3 note=60 velocity=0 time=0.014285724999999999
EXTRACT: note_on channel=0 note=60 velocity=0 time=0.014285724999999999
EXTRACT: note_on channel=4 note=55 velocity=0 time=0
EXTRACT: note_on channel=0 note=59 velocity=80 time=0.015476202083333331
EXTRACT: note_on channel=0 note=62 velocity=80 time=0
EXTRACT: note_on channel=0 note=67 velocity=80 time=0
EXTRACT: note_on channel=1 note=71 velocity=80 time=0
EXTRACT: note_on channel=3 note=59 velocity=80 time=0
EXTRACT: note_on channel=4 note=55 velocity=80 time=0.2857145
EXTRACT: note_on channel=3 note=59 velocity=0 time=0.2559525729166666
EXTRACT: note_on channel=3 note=59 velocity=80 time=0.02976192708333333
EXTRACT: note_on channel=0 note=59 velocity=0 time=0.24166684791666665
EXTRACT: note_on channel=0 note=62 velocity=0 time=0
EXTRACT: note_on channel=0 note=67 velocity=0 time=0
EXTRACT: note_on channel=0 note=59 velocity=80 time=0.044047652083333326
EXTRACT: note_on channel=0 note=62 velocity=80 time=0
EXTRACT: note_on channel=0 note=67 velocity=80 time=0
EXTRACT: note_on channel=2 note=62 velocity=80 time=0
EXTRACT: note_on channel=3 note=59 velocity=0 time=0.2559525729166666
EXTRACT: note_on channel=3 note=59 velocity=80 time=0.02976192708333333
EXTRACT: note_on channel=4 note=55 velocity=0 time=0.22738112291666665
EXTRACT: note_on channel=4 note=55 velocity=80 time=0.058333377083333325
EXTRACT: note_on channel=0 note=59 velocity=0 time=0.24166684791666665
EXTRACT: note_on channel=0 note=62 velocity=0 time=0
EXTRACT: note_on channel=0 note=67 velocity=0 time=0
EXTRACT: note_on channel=2 note=62 velocity=0 time=0
EXTRACT: note_on channel=3 note=59 velocity=0 time=0.014285724999999999
EXTRACT: note_on channel=4 note=55 velocity=0 time=0.014285724999999999
EXTRACT: note_on channel=0 note=60 velocity=80 time=0.015476202083333331
EXTRACT: note_on channel=0 note=64 velocity=80 time=0
EXTRACT: note_on channel=0 note=69 velocity=80 time=0
EXTRACT: note_on channel=3 note=60 velocity=80 time=0
EXTRACT: note_on channel=4 note=55 velocity=80 time=0.2857145
EXTRACT: note_on channel=3 note=60 velocity=0 time=0.2559525729166666
EXTRACT: note_on channel=3 note=60 velocity=80 time=0.02976192708333333
EXTRACT: note_on channel=0 note=60 velocity=0 time=0.24166684791666665
EXTRACT: note_on channel=0 note=64 velocity=0 time=0
EXTRACT: note_on channel=0 note=69 velocity=0 time=0
EXTRACT: note_on channel=0 note=64 velocity=80 time=0.044047652083333326
EXTRACT: note_on channel=2 note=62 velocity=80 time=0
EXTRACT: note_on channel=3 note=60 velocity=0 time=0.2559525729166666
EXTRACT: note_on channel=0 note=64 velocity=0 time=0.014285724999999999
EXTRACT: note_on channel=0 note=62 velocity=80 time=0.015476202083333331
EXTRACT: note_on channel=3 note=59 velocity=80 time=0
EXTRACT: note_on channel=4 note=55 velocity=0 time=0.22738112291666665
EXTRACT: note_on channel=0 note=62 velocity=0 time=0.042857175
EXTRACT: note_on channel=0 note=60 velocity=80 time=0.015476202083333331
EXTRACT: note_on channel=4 note=55 velocity=80 time=0
EXTRACT: note_on channel=1 note=71 velocity=0 time=0.11309532291666666
EXTRACT: note_on channel=2 note=62 velocity=0 time=0.128571525
EXTRACT: note_on channel=3 note=59 velocity=0 time=0.014285724999999999
EXTRACT: note_on channel=0 note=60 velocity=0 time=0.014285724999999999
EXTRACT: note_on channel=4 note=55 velocity=0 time=0
EXTRACT: note_on channel=0 note=57 velocity=80 time=0.015476202083333331
EXTRACT: note_on channel=0 note=60 velocity=80 time=0
EXTRACT: note_on channel=0 note=64 velocity=80 time=0
EXTRACT: note_on channel=1 note=69 velocity=80 time=0
EXTRACT: note_on channel=3 note=57 velocity=80 time=0
EXTRACT: note_on channel=4 note=52 velocity=80 time=0.2857145
EXTRACT: note_on channel=3 note=57 velocity=0 time=0.2559525729166666
EXTRACT: note_on channel=3 note=57 velocity=80 time=0.02976192708333333
EXTRACT: note_on channel=0 note=57 velocity=0 time=0.24166684791666665
EXTRACT: note_on channel=0 note=60 velocity=0 time=0
EXTRACT: note_on channel=0 note=64 velocity=0 time=0
EXTRACT: note_on channel=0 note=57 velocity=80 time=0.044047652083333326
EXTRACT: note_on channel=0 note=60 velocity=80 time=0
EXTRACT: note_on channel=0 note=64 velocity=80 time=0
EXTRACT: note_on channel=2 note=60 velocity=80 time=0
EXTRACT: note_on channel=3 note=57 velocity=0 time=0.2559525729166666
EXTRACT: note_on channel=3 note=57 velocity=80 time=0.02976192708333333
EXTRACT: note_on channel=4 note=52 velocity=0 time=0.22738112291666665
EXTRACT: note_on channel=4 note=52 velocity=80 time=0.058333377083333325
EXTRACT: note_on channel=0 note=57 velocity=0 time=0.24166684791666665
EXTRACT: note_on channel=0 note=60 velocity=0 time=0
EXTRACT: note_on channel=0 note=64 velocity=0 time=0
EXTRACT: note_on channel=2 note=60 velocity=0 time=0
EXTRACT: note_on channel=3 note=57 velocity=0 time=0.014285724999999999
EXTRACT: note_on channel=4 note=52 velocity=0 time=0.014285724999999999
EXTRACT: note_on channel=0 note=57 velocity=80 time=0.015476202083333331
EXTRACT: note_on channel=0 note=60 velocity=80 time=0
EXTRACT: note_on channel=3 note=57 velocity=80 time=0
EXTRACT: note_on channel=0 note=57 velocity=0 time=0.27023829791666665
EXTRACT: note_on channel=0 note=60 velocity=0 time=0
EXTRACT: note_on channel=4 note=52 velocity=80 time=0.015476202083333331
EXTRACT: note_on channel=3 note=57 velocity=0 time=0.2559525729166666
EXTRACT: note_on channel=3 note=57 velocity=80 time=0.02976192708333333
EXTRACT: note_on channel=0 note=64 velocity=80 time=0.2857145
EXTRACT: note_on channel=2 note=60 velocity=80 time=0
EXTRACT: note_on channel=3 note=57 velocity=0 time=0.2559525729166666
EXTRACT: note_on channel=0 note=64 velocity=0 time=0.014285724999999999
EXTRACT: note_on channel=0 note=62 velocity=80 time=0.015476202083333331
EXTRACT: note_on channel=3 note=57 velocity=80 time=0
EXTRACT: note_on channel=1 note=69 velocity=0 time=0.12738104791666666
EXTRACT: note_on channel=4 note=52 velocity=0 time=0.100000075
EXTRACT: note_on channel=0 note=62 velocity=0 time=0.042857175
EXTRACT: note_on channel=0 note=60 velocity=80 time=0.015476202083333331
EXTRACT: note_on channel=1 note=69 velocity=80 time=0
EXTRACT: note_on channel=4 note=52 velocity=80 time=0
EXTRACT: note_on channel=2 note=60 velocity=0 time=0.24166684791666665
EXTRACT: note_on channel=3 note=57 velocity=0 time=0.014285724999999999
EXTRACT: note_on channel=0 note=60 velocity=0 time=0.014285724999999999
EXTRACT: note_on channel=1 note=69 velocity=0 time=0
EXTRACT: note_on channel=4 note=52 velocity=0 time=0
EXTRACT: note_on channel=0 note=57 velocity=80 time=0.015476202083333331
EXTRACT: note_on channel=0 note=60 velocity=80 time=0
EXTRACT: note_on channel=0 note=65 velocity=80 time=0
EXTRACT: note_on channel=1 note=72 velocity=80 time=0
EXTRACT: note_on channel=3 note=60 velocity=80 time=0
EXTRACT: note_on channel=4 note=53 velocity=80 time=0.2857145
EXTRACT: note_on channel=3 note=60 velocity=0 time=0.2559525729166666
EXTRACT: note_on channel=3 note=57 velocity=80 time=0.02976192708333333
EXTRACT: note_on channel=0 note=57 velocity=0 time=0.24166684791666665
EXTRACT: note_on channel=0 note=60 velocity=0 time=0
EXTRACT: note_on channel=0 note=65 velocity=0 time=0
EXTRACT: note_on channel=0 note=57 velocity=80 time=0.044047652083333326
EXTRACT: note_on channel=0 note=60 velocity=80 time=0
EXTRACT: note_on channel=0 note=65 velocity=80 time=0
EXTRACT: note_on channel=2 note=65 velocity=80 time=0
EXTRACT: note_on channel=3 note=57 velocity=0 time=0.2559525729166666
EXTRACT: note_on channel=3 note=57 velocity=80 time=0.02976192708333333
EXTRACT: note_on channel=4 note=53 velocity=0 time=0.22738112291666665
EXTRACT: note_on channel=4 note=53 velocity=80 time=0.058333377083333325
EXTRACT: note_on channel=0 note=57 velocity=0 time=0.24166684791666665
EXTRACT: note_on channel=0 note=60 velocity=0 time=0
EXTRACT: note_on channel=0 note=65 velocity=0 time=0
EXTRACT: note_on channel=2 note=65 velocity=0 time=0
EXTRACT: note_on channel=3 note=57 velocity=0 time=0.014285724999999999
EXTRACT: note_on channel=4 note=53 velocity=0 time=0.014285724999999999
EXTRACT: note_on channel=0 note=57 velocity=80 time=0.015476202083333331
EXTRACT: note_on channel=0 note=60 velocity=80 time=0
EXTRACT: note_on channel=0 note=65 velocity=80 time=0
EXTRACT: note_on channel=3 note=60 velocity=80 time=0
EXTRACT: note_on channel=0 note=57 velocity=0 time=0.13452391041666664
EXTRACT: note_on channel=0 note=60 velocity=0 time=0
EXTRACT: note_on channel=0 note=65 velocity=0 time=0
EXTRACT: note_on channel=0 note=59 velocity=80 time=0.008333339583333332
EXTRACT: note_on channel=0 note=62 velocity=80 time=0
EXTRACT: note_on channel=0 note=67 velocity=80 time=0
EXTRACT: note_on channel=4 note=53 velocity=80 time=0.14285725
EXTRACT: note_on channel=3 note=60 velocity=0 time=0.2559525729166666
EXTRACT: note_on channel=3 note=57 velocity=80 time=0.02976192708333333
EXTRACT: note_on channel=0 note=59 velocity=0 time=0.11309532291666666
EXTRACT: note_on channel=0 note=62 velocity=0 time=0
EXTRACT: note_on channel=0 note=67 velocity=0 time=0
EXTRACT: note_on channel=0 note=60 velocity=80 time=0.17261917708333332
EXTRACT: note_on channel=2 note=65 velocity=80 time=0
EXTRACT: note_on channel=3 note=57 velocity=0 time=0.2559525729166666
EXTRACT: note_on channel=0 note=60 velocity=0 time=0.014285724999999999
EXTRACT: note_on channel=0 note=64 velocity=80 time=0.015476202083333331
EXTRACT: note_on channel=3 note=57 velocity=80 time=0
EXTRACT: note_on channel=4 note=53 velocity=0 time=0.22738112291666665
EXTRACT: note_on channel=0 note=64 velocity=0 time=0.042857175
EXTRACT: note_on channel=0 note=67 velocity=80 time=0.015476202083333331
EXTRACT: note_on channel=4 note=53 velocity=80 time=0
EXTRACT: note_on channel=1 note=72 velocity=0 time=0.11309532291666666
EXTRACT: note_on channel=2 note=65 velocity=0 time=0.128571525
EXTRACT: note_on channel=3 note=57 velocity=0 time=0.014285724999999999
EXTRACT: note_on channel=0 note=67 velocity=0 time=0.014285724999999999
EXTRACT: note_on channel=4 note=53 velocity=0 time=0
EXTRACT: note_on channel=0 note=64 velocity=80 time=0.015476202083333331
EXTRACT: note_on channel=0 note=67 velocity=80 time=0
EXTRACT: note_on channel=0 note=72 velocity=80 time=0
EXTRACT: note_on channel=1 note=72 velocity=80 time=0
EXTRACT: note_on channel=3 note=60 velocity=80 time=0
EXTRACT: note_on channel=4 note=55 velocity=80 time=0.2857145
EXTRACT: note_on channel=3 note=60 velocity=0 time=0.2559525729166666
EXTRACT: note_on channel=3 note=60 velocity=80 time=0.02976192708333333
EXTRACT: note_on channel=0 note=64 velocity=0 time=0.24166684791666665
EXTRACT: note_on channel=0 note=67 velocity=0 time=0
EXTRACT: note_on channel=0 note=72 velocity=0 time=0
EXTRACT: note_on channel=0 note=64 velocity=80 time=0.044047652083333326
EXTRACT: note_on channel=0 note=67 velocity=80 time=0
EXTRACT: note_on channel=0 note=72 velocity=80 time=0
EXTRACT: note_on channel=2 note=64 velocity=80 time=0
EXTRACT: note_on channel=3 note=60 velocity=0 time=0.2559525729166666
EXTRACT: note_on channel=3 note=60 velocity=80 time=0.02976192708333333
EXTRACT: note_on channel=4 note=55 velocity=0 time=0.22738112291666665
EXTRACT: note_on channel=4 note=55 velocity=80 time=0.058333377083333325
EXTRACT: note_on channel=0 note=64 velocity=0 time=0.24166684791666665
EXTRACT: note_on channel=0 note=67 velocity=0 time=0
EXTRACT: note_on channel=0 note=72 velocity=0 time=0
EXTRACT: note_on channel=2 note=64 velocity=0 time=0
EXTRACT: note_on channel=3 note=60 velocity=0 time=0.014285724999999999
EXTRACT: note_on channel=4 note=55 velocity=0 time=0.014285724999999999
EXTRACT: note_on channel=0 note=60 velocity=80 time=0.015476202083333331
EXTRACT: note_on channel=0 note=64 velocity=80 time=0
EXTRACT: note_on channel=0 note=67 velocity=80 time=0
EXTRACT: note_on channel=3 note=60 velocity=80 time=0
EXTRACT: note_on channel=0 note=60 velocity=0 time=0.13452391041666664
EXTRACT: note_on channel=0 note=64 velocity=0 time=0
EXTRACT: note_on channel=0 note=67 velocity=0 time=0
EXTRACT: note_on channel=0 note=60 velocity=80 time=0.008333339583333332
EXTRACT: note_on channel=0 note=62 velocity=80 time=0
EXTRACT: note_on channel=0 note=65 velocity=80 time=0
EXTRACT: note_on channel=0 note=60 velocity=0 time=0.13452391041666664
EXTRACT: note_on channel=0 note=62 velocity=0 time=0
EXTRACT: note_on channel=0 note=65 velocity=0 time=0
EXTRACT: note_on channel=0 note=60 velocity=80 time=0.008333339583333332
EXTRACT: note_on channel=0 note=64 velocity=80 time=0
EXTRACT: note_on channel=4 note=55 velocity=80 time=0
EXTRACT: note_on channel=3 note=60 velocity=0 time=0.2559525729166666
EXTRACT: note_on channel=0 note=60 velocity=0 time=0.014285724999999999
EXTRACT: note_on channel=0 note=64 velocity=0 time=0
EXTRACT: note_on channel=0 note=60 velocity=80 time=0.015476202083333331
EXTRACT: note_on channel=3 note=60 velocity=80 time=0
EXTRACT: note_on channel=0 note=60 velocity=0 time=0.13452391041666664
EXTRACT: note_on channel=0 note=60 velocity=80 time=0.008333339583333332
EXTRACT: note_on channel=0 note=60 velocity=0 time=0.13452391041666664
EXTRACT: note_on channel=0 note=64 velocity=80 time=0.008333339583333332
EXTRACT: note_on channel=2 note=64 velocity=80 time=0
EXTRACT: note_on channel=3 note=60 velocity=0 time=0.2559525729166666
EXTRACT: note_on channel=0 note=64 velocity=0 time=0.014285724999999999
EXTRACT: note_on channel=0 note=62 velocity=80 time=0.015476202083333331
EXTRACT: note_on channel=3 note=60 velocity=80 time=0
EXTRACT: note_on channel=4 note=55 velocity=0 time=0.22738112291666665
EXTRACT: note_on channel=0 note=62 velocity=0 time=0.042857175
EXTRACT: note_on channel=0 note=60 velocity=80 time=0.015476202083333331
EXTRACT: note_on channel=4 note=55 velocity=80 time=0
EXTRACT: note_on channel=1 note=72 velocity=0 time=0.11309532291666666
EXTRACT: note_on channel=2 note=64 velocity=0 time=0.128571525
EXTRACT: note_on channel=3 note=60 velocity=0 time=0.014285724999999999
EXTRACT: note_on channel=0 note=60 velocity=0 time=0.014285724999999999
EXTRACT: note_on channel=4 note=55 velocity=0 time=0
EXTRACT: note_on channel=0 note=59 velocity=80 time=0.015476202083333331
EXTRACT: note_on channel=0 note=62 velocity=80 time=0
EXTRACT: note_on channel=0 note=67 velocity=80 time=0
EXTRACT: note_on channel=1 note=71 velocity=80 time=0
EXTRACT: note_on channel=3 note=59 velocity=80 time=0
EXTRACT: note_on channel=4 note=55 velocity=80 time=0.2857145
EXTRACT: note_on channel=3 note=59 velocity=0 time=0.2559525729166666
EXTRACT: note_on channel=3 note=59 velocity=80 time=0.02976192708333333
EXTRACT: note_on channel=0 note=59 velocity=0 time=0.24166684791666665
EXTRACT: note_on channel=0 note=62 velocity=0 time=0
EXTRACT: note_on channel=0 note=67 velocity=0 time=0
EXTRACT: note_on channel=0 note=59 velocity=80 time=0.044047652083333326
EXTRACT: note_on channel=0 note=62 velocity=80 time=0
EXTRACT: note_on channel=0 note=67 velocity=80 time=0
EXTRACT: note_on channel=2 note=62 velocity=80 time=0
EXTRACT: note_on channel=3 note=59 velocity=0 time=0.2559525729166666
EXTRACT: note_on channel=3 note=59 velocity=80 time=0.02976192708333333
EXTRACT: note_on channel=4 note=55 velocity=0 time=0.22738112291666665
EXTRACT: note_on channel=4 note=55 velocity=80 time=0.058333377083333325
EXTRACT: note_on channel=0 note=59 velocity=0 time=0.24166684791666665
EXTRACT: note_on channel=0 note=62 velocity=0 time=0
EXTRACT: note_on channel=0 note=67 velocity=0 time=0
EXTRACT: note_on channel=2 note=62 velocity=0 time=0
EXTRACT: note_on channel=3 note=59 velocity=0 time=0.014285724999999999
EXTRACT: note_on channel=4 note=55 velocity=0 time=0.014285724999999999
EXTRACT: note_on channel=0 note=64 velocity=80 time=0.015476202083333331
EXTRACT: note_on channel=1 note=71 velocity=80 time=0
EXTRACT: note_on channel=3 note=60 velocity=80 time=0
EXTRACT: note_on channel=4 note=55 velocity=80 time=0.2857145
EXTRACT: note_on channel=3 note=60 velocity=0 time=0.2559525729166666
EXTRACT: note_on channel=3 note=60 velocity=80 time=0.02976192708333333
EXTRACT: note_on channel=0 note=64 velocity=0 time=0.24166684791666665
EXTRACT: note_on channel=0 note=64 velocity=80 time=0.044047652083333326
EXTRACT: note_on channel=2 note=62 velocity=80 time=0
EXTRACT: note_on channel=3 note=60 velocity=0 time=0.2559525729166666
EXTRACT: note_on channel=0 note=64 velocity=0 time=0.014285724999999999
EXTRACT: note_on channel=0 note=62 velocity=80 time=0.015476202083333331
EXTRACT: note_on channel=3 note=59 velocity=80 time=0
EXTRACT: note_on channel=4 note=55 velocity=0 time=0.22738112291666665
EXTRACT: note_on channel=0 note=62 velocity=0 time=0.042857175
EXTRACT: note_on channel=0 note=60 velocity=80 time=0.015476202083333331
EXTRACT: note_on channel=4 note=55 velocity=80 time=0
EXTRACT: note_on channel=1 note=71 velocity=0 time=0.11309532291666666
EXTRACT: note_on channel=1 note=71 velocity=0 time=0.08571435
EXTRACT: note_on channel=2 note=62 velocity=0 time=0.042857175
EXTRACT: note_on channel=3 note=59 velocity=0 time=0.014285724999999999
EXTRACT: note_on channel=0 note=60 velocity=0 time=0.014285724999999999
EXTRACT: note_on channel=4 note=55 velocity=0 time=0
EXTRACT: note_on channel=0 note=60 velocity=80 time=0.015476202083333331
EXTRACT: note_on channel=1 note=69 velocity=80 time=0
EXTRACT: note_on channel=3 note=57 velocity=80 time=0
EXTRACT: note_on channel=4 note=52 velocity=80 time=0.2857145
EXTRACT: note_on channel=3 note=57 velocity=0 time=0.2559525729166666
EXTRACT: note_on channel=3 note=57 velocity=80 time=0.02976192708333333
EXTRACT: note_on channel=0 note=60 velocity=0 time=0.24166684791666665
EXTRACT: note_on channel=0 note=60 velocity=80 time=0.044047652083333326
EXTRACT: note_on channel=2 note=60 velocity=80 time=0
EXTRACT: note_on channel=3 note=57 velocity=0 time=0.2559525729166666
EXTRACT: note_on channel=3 note=57 velocity=80 time=0.02976192708333333
EXTRACT: note_on channel=4 note=52 velocity=0 time=0.22738112291666665
EXTRACT: note_on channel=4 note=52 velocity=80 time=0.058333377083333325
EXTRACT: note_on channel=0 note=60 velocity=0 time=0.24166684791666665
EXTRACT: note_on channel=2 note=60 velocity=0 time=0
EXTRACT: note_on channel=3 note=57 velocity=0 time=0.014285724999999999
EXTRACT: note_on channel=4 note=52 velocity=0 time=0.014285724999999999
EXTRACT: note_on channel=3 note=57 velocity=80 time=0.015476202083333331
EXTRACT: note_on channel=4 note=53 velocity=80 time=0.2857145
EXTRACT: note_on channel=3 note=57 velocity=0 time=0.2559525729166666
EXTRACT: note_on channel=3 note=57 velocity=80 time=0.02976192708333333
EXTRACT: note_on channel=2 note=60 velocity=80 time=0.2857145
EXTRACT: note_on channel=3 note=57 velocity=0 time=0.2559525729166666
EXTRACT: note_on channel=3 note=57 velocity=80 time=0.02976192708333333
EXTRACT: note_on channel=4 note=53 velocity=0 time=0.22738112291666665
EXTRACT: note_on channel=4 note=53 velocity=80 time=0.058333377083333325
EXTRACT: note_on channel=1 note=69 velocity=0 time=0.11309532291666666
EXTRACT: note_on channel=2 note=60 velocity=0 time=0.128571525
EXTRACT: note_on channel=3 note=57 velocity=0 time=0.014285724999999999
EXTRACT: note_on channel=4 note=53 velocity=0 time=0.014285724999999999
EXTRACT: note_on channel=1 note=72 velocity=80 time=0.015476202083333331
EXTRACT: note_on channel=4 note=55 velocity=80 time=0
EXTRACT: note_on channel=3 note=60 velocity=80 time=0.2857145
EXTRACT: note_on channel=4 note=55 velocity=0 time=0.2559525729166666
EXTRACT: note_on channel=4 note=55 velocity=80 time=0.02976192708333333
EXTRACT: note_on channel=3 note=60 velocity=0 time=0.2559525729166666
EXTRACT: note_on channel=2 note=64 velocity=80 time=0.02976192708333333
EXTRACT: note_on channel=4 note=55 velocity=0 time=0.2559525729166666
EXTRACT: note_on channel=4 note=55 velocity=80 time=0.02976192708333333
EXTRACT: note_on channel=3 note=60 velocity=80 time=0.2857145
EXTRACT: note_on channel=1 note=72 velocity=0 time=0.19880967291666665
EXTRACT: note_on channel=4 note=55 velocity=0 time=0.057142899999999996
EXTRACT: note_on channel=3 note=60 velocity=0 time=0.014285724999999999
EXTRACT: note_on channel=1 note=71 velocity=80 time=0.015476202083333331
EXTRACT: note_on channel=3 note=59 velocity=80 time=0
EXTRACT: note_on channel=4 note=55 velocity=80 time=0.2857145
EXTRACT: note_on channel=3 note=59 velocity=0 time=0.2559525729166666
EXTRACT: note_on channel=3 note=59 velocity=80 time=0.02976192708333333
EXTRACT: note_on channel=2 note=64 velocity=0 time=0.19880967291666665
EXTRACT: note_on channel=2 note=62 velocity=80 time=0.08690482708333332
EXTRACT: note_on channel=3 note=59 velocity=0 time=0.2559525729166666
EXTRACT: note_on channel=3 note=59 velocity=80 time=0.02976192708333333
EXTRACT: note_on channel=4 note=55 velocity=0 time=0.22738112291666665
EXTRACT: note_on channel=4 note=55 velocity=80 time=0.058333377083333325
EXTRACT: note_on channel=1 note=71 velocity=0 time=0.19880967291666665
EXTRACT: note_on channel=2 note=62 velocity=0 time=0.042857175
EXTRACT: note_on channel=3 note=59 velocity=0 time=0.014285724999999999
EXTRACT: note_on channel=4 note=55 velocity=0 time=0.014285724999999999
EXTRACT: note_on channel=1 note=69 velocity=80 time=0.015476202083333331
EXTRACT: note_on channel=3 note=57 velocity=80 time=0
EXTRACT: note_on channel=4 note=52 velocity=80 time=0.2857145
EXTRACT: note_on channel=3 note=57 velocity=0 time=0.2559525729166666
EXTRACT: note_on channel=3 note=57 velocity=80 time=0.02976192708333333
EXTRACT: note_on channel=2 note=60 velocity=80 time=0.2857145
EXTRACT: note_on channel=3 note=57 velocity=0 time=0.2559525729166666
EXTRACT: note_on channel=3 note=57 velocity=80 time=0.02976192708333333
EXTRACT: note_on channel=4 note=52 velocity=0 time=0.22738112291666665
EXTRACT: note_on channel=4 note=52 velocity=80 time=0.058333377083333325
EXTRACT: note_on channel=2 note=60 velocity=0 time=0.24166684791666665
EXTRACT: note_on channel=3 note=57 velocity=0 time=0.014285724999999999
EXTRACT: note_on channel=4 note=52 velocity=0 time=0.014285724999999999
EXTRACT: note_on channel=3 note=57 velocity=80 time=0.015476202083333331
EXTRACT: note_on channel=4 note=53 velocity=80 time=0.2857145
EXTRACT: note_on channel=3 note=57 velocity=0 time=0.2559525729166666
EXTRACT: note_on channel=3 note=57 velocity=80 time=0.02976192708333333
EXTRACT: note_on channel=2 note=60 velocity=80 time=0.2857145
EXTRACT: note_on channel=3 note=57 velocity=0 time=0.2559525729166666
EXTRACT: note_on channel=3 note=57 velocity=80 time=0.02976192708333333
EXTRACT: note_on channel=4 note=53 velocity=0 time=0.22738112291666665
EXTRACT: note_on channel=4 note=53 velocity=80 time=0.058333377083333325
EXTRACT: note_on channel=1 note=69 velocity=0 time=0.11309532291666666
EXTRACT: note_on channel=2 note=60 velocity=0 time=0.128571525
EXTRACT: note_on channel=3 note=57 velocity=0 time=0.014285724999999999
EXTRACT: note_on channel=4 note=53 velocity=0 time=0.014285724999999999
EXTRACT: note_on channel=1 note=72 velocity=80 time=0.015476202083333331
EXTRACT: note_on channel=4 note=55 velocity=80 time=0
EXTRACT: note_on channel=3 note=60 velocity=80 time=0.2857145
EXTRACT: note_on channel=4 note=55 velocity=0 time=0.2559525729166666
EXTRACT: note_on channel=4 note=55 velocity=80 time=0.02976192708333333
EXTRACT: note_on channel=3 note=60 velocity=0 time=0.2559525729166666
EXTRACT: note_on channel=2 note=64 velocity=80 time=0.02976192708333333
EXTRACT: note_on channel=4 note=55 velocity=0 time=0.2559525729166666
EXTRACT: note_on channel=4 note=55 velocity=80 time=0.02976192708333333
EXTRACT: note_on channel=3 note=60 velocity=80 time=0.2857145
EXTRACT: note_on channel=1 note=72 velocity=0 time=0.19880967291666665
EXTRACT: note_on channel=2 note=64 velocity=0 time=0.042857175
EXTRACT: note_on channel=4 note=55 velocity=0 time=0.014285724999999999
EXTRACT: note_on channel=3 note=60 velocity=0 time=0.014285724999999999
EXTRACT: note_on channel=1 note=71 velocity=80 time=0.015476202083333331
EXTRACT: note_on channel=2 note=62 velocity=80 time=0
EXTRACT: note_on channel=3 note=59 velocity=80 time=0
EXTRACT: note_on channel=4 note=55 velocity=80 time=0
EXTRACT: note_on channel=0 note=64 velocity=80 time=0.8571435
EXTRACT: note_on channel=0 note=64 velocity=0 time=0.27023829791666665
EXTRACT: note_on channel=0 note=62 velocity=80 time=0.015476202083333331
EXTRACT: note_on channel=0 note=62 velocity=0 time=0.27023829791666665
EXTRACT: note_on channel=0 note=60 velocity=80 time=0.015476202083333331
EXTRACT: note_on channel=1 note=71 velocity=0 time=0.19880967291666665
EXTRACT: note_on channel=2 note=62 velocity=0 time=0
EXTRACT: note_on channel=3 note=59 velocity=0 time=0
EXTRACT: note_on channel=4 note=55 velocity=0 time=0
EXTRACT: note_on channel=0 note=60 velocity=0 time=0.071428625
EXTRACT: note_on channel=0 note=60 velocity=80 time=0.015476202083333331
EXTRACT: note_on channel=4 note=55 velocity=80 time=0
EXTRACT: note_on channel=3 note=60 velocity=80 time=0.2857145
EXTRACT: note_on channel=2 note=64 velocity=80 time=0.2857145
EXTRACT: note_on channel=0 note=60 velocity=0 time=0.24166684791666665
EXTRACT: note_on channel=0 note=60 velocity=80 time=0.044047652083333326
EXTRACT: note_on channel=1 note=72 velocity=80 time=0
EXTRACT: note_on channel=0 note=60 velocity=0 time=0.8130958479166666
EXTRACT: note_on channel=0 note=60 velocity=80 time=0.6154766520833332
EXTRACT: note_on channel=0 note=60 velocity=0 time=0.27023829791666665
EXTRACT: note_on channel=0 note=64 velocity=80 time=0.015476202083333331
EXTRACT: note_on channel=0 note=64 velocity=0 time=0.27023829791666665
EXTRACT: note_on channel=0 note=67 velocity=80 time=0.015476202083333331
EXTRACT: note_on channel=0 note=67 velocity=0 time=0.27023829791666665
EXTRACT: note_on channel=0 note=67 velocity=80 time=0.015476202083333331
EXTRACT: note_on channel=4 note=55 velocity=0 time=0.11309532291666666
EXTRACT: note_on channel=3 note=60 velocity=0 time=0.014285724999999999
EXTRACT: note_on channel=2 note=64 velocity=0 time=0.014285724999999999
EXTRACT: note_on channel=1 note=72 velocity=0 time=0.014285724999999999
EXTRACT: note_on channel=0 note=67 velocity=0 time=0.11428579999999999
EXTRACT: note_on channel=0 note=67 velocity=80 time=0.015476202083333331
EXTRACT: note_on channel=4 note=52 velocity=80 time=0
EXTRACT: note_on channel=3 note=57 velocity=80 time=0.2857145
EXTRACT: note_on channel=0 note=67 velocity=0 time=0.2559525729166666
EXTRACT: note_on channel=0 note=64 velocity=80 time=0.02976192708333333
EXTRACT: note_on channel=2 note=60 velocity=80 time=0
EXTRACT: note_on channel=0 note=64 velocity=0 time=0.27023829791666665
EXTRACT: note_on channel=0 note=67 velocity=80 time=0.015476202083333331
EXTRACT: note_on channel=1 note=76 velocity=80 time=0
EXTRACT: note_on channel=0 note=67 velocity=0 time=0.27023829791666665
EXTRACT: note_on channel=0 note=69 velocity=80 time=0.015476202083333331
EXTRACT: note_on channel=0 note=69 velocity=0 time=0.5416670729166666
EXTRACT: note_on channel=0 note=60 velocity=80 time=0.6011909270833332
EXTRACT: note_on channel=0 note=60 velocity=0 time=0.27023829791666665
EXTRACT: note_on channel=0 note=64 velocity=80 time=0.015476202083333331
EXTRACT: note_on channel=0 note=64 velocity=0 time=0.27023829791666665
EXTRACT: note_on channel=0 note=67 velocity=80 time=0.015476202083333331
EXTRACT: note_on channel=0 note=67 velocity=0 time=0.27023829791666665
EXTRACT: note_on channel=0 note=69 velocity=80 time=0.015476202083333331
EXTRACT: note_on channel=4 note=52 velocity=0 time=0.11309532291666666
EXTRACT: note_on channel=3 note=57 velocity=0 time=0.014285724999999999
EXTRACT: note_on channel=2 note=60 velocity=0 time=0.014285724999999999
EXTRACT: note_on channel=1 note=76 velocity=0 time=0.014285724999999999
EXTRACT: note_on channel=0 note=69 velocity=0 time=0.11428579999999999
EXTRACT: note_on channel=0 note=69 velocity=80 time=0.015476202083333331
EXTRACT: note_on channel=4 note=53 velocity=80 time=0
EXTRACT: note_on channel=3 note=57 velocity=80 time=0.2857145
EXTRACT: note_on channel=3 note=60 velocity=80 time=0
EXTRACT: note_on channel=2 note=65 velocity=80 time=0.2857145
EXTRACT: note_on channel=0 note=69 velocity=0 time=0.24166684791666665
EXTRACT: note_on channel=0 note=67 velocity=80 time=0.044047652083333326
EXTRACT: note_on channel=1 note=72 velocity=80 time=0
EXTRACT: note_on channel=0 note=67 velocity=0 time=0.27023829791666665
EXTRACT: note_on channel=0 note=65 velocity=80 time=0.015476202083333331
EXTRACT: note_on channel=0 note=65 velocity=0 time=0.5416670729166666
EXTRACT: note_on channel=0 note=60 velocity=80 time=0.7440481770833333
EXTRACT: note_on channel=0 note=60 velocity=0 time=0.13452391041666664
EXTRACT: note_on channel=0 note=60 velocity=80 time=0.008333339583333332
EXTRACT: note_on channel=0 note=60 velocity=0 time=0.27023829791666665
EXTRACT: note_on channel=0 note=62 velocity=80 time=0.015476202083333331
EXTRACT: note_on channel=0 note=62 velocity=0 time=0.27023829791666665
EXTRACT: note_on channel=0 note=64 velocity=80 time=0.015476202083333331
EXTRACT: note_on channel=4 note=53 velocity=0 time=0.11309532291666666
EXTRACT: note_on channel=3 note=57 velocity=0 time=0.014285724999999999
EXTRACT: note_on channel=3 note=60 velocity=0 time=0
EXTRACT: note_on channel=2 note=65 velocity=0 time=0.014285724999999999
EXTRACT: note_on channel=1 note=72 velocity=0 time=0.014285724999999999
EXTRACT: note_on channel=0 note=64 velocity=0 time=0.11428579999999999
EXTRACT: note_on channel=0 note=64 velocity=80 time=0.015476202083333331
EXTRACT: note_on channel=1 note=72 velocity=80 time=0
EXTRACT: note_on channel=2 note=64 velocity=80 time=0
EXTRACT: note_on channel=3 note=60 velocity=80 time=0
EXTRACT: note_on channel=4 note=55 velocity=80 time=0
EXTRACT: note_on channel=0 note=64 velocity=0 time=0.5416670729166666
EXTRACT: note_on channel=0 note=65 velocity=80 time=0.02976192708333333
EXTRACT: note_on channel=0 note=65 velocity=0 time=0.13452391041666664
EXTRACT: note_on channel=0 note=64 velocity=80 time=0.008333339583333332
EXTRACT: note_on channel=0 note=64 velocity=0 time=0.13452391041666664
EXTRACT: note_on channel=0 note=62 velocity=80 time=0.008333339583333332
EXTRACT: note_on channel=1 note=72 velocity=0 time=0.7702386729166666
EXTRACT: note_on channel=2 note=64 velocity=0 time=0
EXTRACT: note_on channel=3 note=60 velocity=0 time=0
EXTRACT: note_on channel=4 note=55 velocity=0 time=0
EXTRACT: note_on channel=0 note=62 velocity=0 time=0.042857175
EXTRACT: note_on channel=1 note=71 velocity=80 time=0.044047652083333326
EXTRACT: note_on channel=2 note=67 velocity=80 time=0
EXTRACT: note_on channel=3 note=62 velocity=80 time=0
EXTRACT: note_on channel=4 note=55 velocity=80 time=0
EXTRACT: note_on channel=1 note=71 velocity=0 time=1.6273821729166664
EXTRACT: note_on channel=2 note=67 velocity=0 time=0
EXTRACT: note_on channel=3 note=62 velocity=0 time=0
EXTRACT: note_on channel=4 note=55 velocity=0 time=0
MUSIC043 - Little Big Town - Girl Crush.mid
INTERVALS043 - Little Big Town - Girl Crush.mid
unison253
2m10
2M88
3m76
3M155
4m87
4M4
5m38
5M48
6m6
7m0
7M0
