EXTRACT: control_change channel=0 control=0 value=0 time=0
EXTRACT: control_change channel=0 control=32 value=32 time=0
EXTRACT: program_change channel=0 program=2 time=0
EXTRACT: control_change channel=0 control=7 value=127 time=0
EXTRACT: control_change channel=0 control=10 value=64 time=0
EXTRACT: control_change channel=1 control=0 value=0 time=0
EXTRACT: control_change channel=1 control=32 value=3 time=0
EXTRACT: program_change channel=1 program=49 time=0
EXTRACT: control_change channel=1 control=7 value=127 time=0
EXTRACT: control_change channel=1 control=10 value=64 time=0
EXTRACT: control_change channel=2 control=0 value=0 time=0
EXTRACT: control_change channel=2 control=32 value=40 time=0
EXTRACT: program_change channel=2 program=30 time=0
EXTRACT: control_change channel=2 control=7 value=127 time=0
EXTRACT: control_change channel=2 control=10 value=64 time=0
EXTRACT: control_change channel=3 control=0 value=0 time=0
EXTRACT: control_change channel=3 control=32 value=64 time=0
EXTRACT: program_change channel=3 program=84 time=0
EXTRACT: control_change channel=3 control=7 value=127 time=0
EXTRACT: control_change channel=3 control=10 value=64 time=0
EXTRACT: control_change channel=4 control=0 value=0 time=0
EXTRACT: control_change channel=4 control=32 value=64 time=0
EXTRACT: program_change channel=4 program=27 time=0
EXTRACT: control_change channel=4 control=7 value=127 time=0
EXTRACT: control_change channel=4 control=10 value=64 time=0
EXTRACT: control_change channel=5 control=0 value=0 time=0
EXTRACT: control_change channel=5 control=32 value=0 time=0
EXTRACT: program_change channel=5 program=17 time=0
EXTRACT: control_change channel=5 control=7 value=127 time=0
EXTRACT: control_change channel=5 control=10 value=64 time=0
EXTRACT: control_change channel=6 control=0 value=0 time=0
EXTRACT: control_change channel=6 control=32 value=0 time=0
EXTRACT: program_change channel=6 program=110 time=0
EXTRACT: control_change channel=6 control=7 value=127 time=0
EXTRACT: control_change channel=6 control=10 value=64 time=0
EXTRACT: control_change channel=7 control=0 value=0 time=0
EXTRACT: control_change channel=7 control=32 value=16 time=0
EXTRACT: program_change channel=7 program=56 time=0
EXTRACT: control_change channel=7 control=7 value=127 time=0
EXTRACT: control_change channel=7 control=10 value=64 time=0
EXTRACT: control_change channel=8 control=0 value=0 time=0
EXTRACT: control_change channel=8 control=32 value=0 time=0
EXTRACT: program_change channel=8 program=35 time=0
EXTRACT: control_change channel=8 control=7 value=127 time=0
EXTRACT: control_change channel=8 control=10 value=64 time=0
EXTRACT: control_change channel=9 control=0 value=127 time=0
EXTRACT: control_change channel=9 control=32 value=0 time=0
EXTRACT: program_change channel=9 program=0 time=0
EXTRACT: control_change channel=9 control=7 value=127 time=0
EXTRACT: control_change channel=9 control=10 value=64 time=0
EXTRACT: control_change channel=10 control=0 value=127 time=0
EXTRACT: control_change channel=10 control=32 value=0 time=0
EXTRACT: program_change channel=10 program=16 time=0
EXTRACT: control_change channel=10 control=7 value=127 time=0
EXTRACT: control_change channel=10 control=10 value=64 time=0
EXTRACT: control_change channel=11 control=0 value=0 time=0
EXTRACT: control_change channel=11 control=32 value=64 time=0
EXTRACT: program_change channel=11 program=66 time=0
EXTRACT: control_change channel=11 control=7 value=127 time=0
EXTRACT: control_change channel=11 control=10 value=64 time=0
EXTRACT: control_change channel=12 control=7 value=127 time=0
EXTRACT: control_change channel=12 control=10 value=64 time=0
EXTRACT: control_change channel=13 control=7 value=127 time=0
EXTRACT: control_change channel=13 control=10 value=64 time=0
EXTRACT: control_change channel=14 control=7 value=127 time=0
EXTRACT: control_change channel=14 control=10 value=64 time=0
EXTRACT: control_change channel=15 control=7 value=127 time=0
EXTRACT: control_change channel=15 control=10 value=64 time=0
EXTRACT: control_change channel=10 control=74 value=48 time=3.11971675
EXTRACT: note_on channel=9 note=33 velocity=127 time=0.24647875
EXTRACT: note_on channel=9 note=46 velocity=100 time=0
EXTRACT: note_on channel=9 note=57 velocity=100 time=0
EXTRACT: note_on channel=9 note=57 velocity=0 time=0.10563375
EXTRACT: note_on channel=9 note=46 velocity=0 time=0
EXTRACT: note_on channel=9 note=33 velocity=0 time=0
EXTRACT: note_on channel=9 note=51 velocity=127 time=0.31690125
EXTRACT: note_on channel=9 note=46 velocity=100 time=0
EXTRACT: note_on channel=9 note=46 velocity=0 time=0.10563375
EXTRACT: note_on channel=9 note=51 velocity=0 time=0
EXTRACT: note_on channel=9 note=31 velocity=127 time=0.31690125
EXTRACT: note_on channel=9 note=33 velocity=127 time=0
EXTRACT: note_on channel=9 note=46 velocity=100 time=0
EXTRACT: note_on channel=10 note=31 velocity=73 time=0
EXTRACT: note_on channel=9 note=46 velocity=0 time=0.10563375
EXTRACT: note_on channel=9 note=33 velocity=0 time=0
EXTRACT: note_on channel=9 note=31 velocity=0 time=0
EXTRACT: note_on channel=10 note=31 velocity=0 time=0
EXTRACT: note_on channel=9 note=46 velocity=100 time=0.31690125
EXTRACT: note_on channel=9 note=46 velocity=0 time=0.10563375
EXTRACT: note_on channel=9 note=33 velocity=127 time=0.10563375
EXTRACT: note_on channel=9 note=33 velocity=0 time=0.10563375
EXTRACT: note_on channel=9 note=46 velocity=100 time=0.10563375
EXTRACT: note_on channel=9 note=46 velocity=0 time=0.10563375
EXTRACT: note_on channel=9 note=33 velocity=127 time=0.10563375
EXTRACT: note_on channel=9 note=33 velocity=0 time=0.10563375
EXTRACT: note_on channel=9 note=33 velocity=127 time=0.10563375
EXTRACT: note_on channel=9 note=46 velocity=100 time=0
EXTRACT: note_on channel=9 note=46 velocity=0 time=0.10563375
EXTRACT: note_on channel=9 note=33 velocity=0 time=0
EXTRACT: note_on channel=9 note=31 velocity=127 time=0.31690125
EXTRACT: note_on channel=9 note=33 velocity=127 time=0
EXTRACT: note_on channel=9 note=46 velocity=100 time=0
EXTRACT: note_on channel=10 note=31 velocity=73 time=0
EXTRACT: note_on channel=9 note=46 velocity=0 time=0.10563375
EXTRACT: note_on channel=9 note=33 velocity=0 time=0
EXTRACT: note_on channel=9 note=31 velocity=0 time=0
EXTRACT: note_on channel=10 note=31 velocity=0 time=0
EXTRACT: note_on channel=9 note=51 velocity=127 time=0.31690125
EXTRACT: note_on channel=9 note=46 velocity=100 time=0
EXTRACT: note_on channel=9 note=46 velocity=0 time=0.10563375
EXTRACT: note_on channel=9 note=51 velocity=0 time=0
EXTRACT: note_on channel=9 note=33 velocity=127 time=0.31690125
EXTRACT: note_on channel=9 note=46 velocity=100 time=0
EXTRACT: note_on channel=9 note=46 velocity=0 time=0.10563375
EXTRACT: note_on channel=9 note=33 velocity=0 time=0
EXTRACT: note_on channel=9 note=51 velocity=127 time=0.31690125
EXTRACT: note_on channel=9 note=46 velocity=100 time=0
EXTRACT: note_on channel=9 note=46 velocity=0 time=0.10563375
EXTRACT: note_on channel=9 note=51 velocity=0 time=0
EXTRACT: note_on channel=9 note=31 velocity=127 time=0.31690125
EXTRACT: note_on channel=9 note=33 velocity=127 time=0
EXTRACT: note_on channel=9 note=46 velocity=100 time=0
EXTRACT: note_on channel=10 note=31 velocity=73 time=0
EXTRACT: note_on channel=9 note=46 velocity=0 time=0.10563375
EXTRACT: note_on channel=9 note=33 velocity=0 time=0
EXTRACT: note_on channel=9 note=31 velocity=0 time=0
EXTRACT: note_on channel=10 note=31 velocity=0 time=0
EXTRACT: note_on channel=9 note=46 velocity=100 time=0.31690125
EXTRACT: note_on channel=9 note=46 velocity=0 time=0.10563375
EXTRACT: note_on channel=9 note=33 velocity=127 time=0.10563375
EXTRACT: note_on channel=9 note=33 velocity=0 time=0.10563375
EXTRACT: note_on channel=9 note=46 velocity=100 time=0.10563375
EXTRACT: note_on channel=9 note=46 velocity=0 time=0.10563375
EXTRACT: note_on channel=9 note=33 velocity=127 time=0.10563375
EXTRACT: note_on channel=9 note=33 velocity=0 time=0.10563375
EXTRACT: note_on channel=9 note=33 velocity=127 time=0.10563375
EXTRACT: note_on channel=9 note=46 velocity=100 time=0
EXTRACT: note_on channel=9 note=46 velocity=0 time=0.10563375
EXTRACT: note_on channel=9 note=33 velocity=0 time=0
EXTRACT: control_change channel=4 control=93 value=51 time=0.309859
EXTRACT: note_on channel=9 note=31 velocity=127 time=0.00704225
EXTRACT: note_on channel=9 note=33 velocity=127 time=0
EXTRACT: note_on channel=9 note=46 velocity=100 time=0
EXTRACT: note_on channel=10 note=31 velocity=73 time=0
EXTRACT: note_on channel=9 note=46 velocity=0 time=0.10563375
EXTRACT: note_on channel=9 note=33 velocity=0 time=0
EXTRACT: note_on channel=9 note=31 velocity=0 time=0
EXTRACT: note_on channel=10 note=31 velocity=0 time=0
EXTRACT: control_change channel=4 control=10 value=110 time=0.03521125
EXTRACT: control_change channel=3 control=94 value=31 time=0.07746475
EXTRACT: control_change channel=8 control=91 value=0 time=0.04929575
EXTRACT: control_change channel=3 control=11 value=106 time=0.03521125
EXTRACT: control_change channel=4 control=72 value=104 time=0
EXTRACT: note_on channel=9 note=51 velocity=127 time=0.11971825
EXTRACT: note_on channel=9 note=46 velocity=100 time=0
EXTRACT: note_on channel=9 note=46 velocity=0 time=0.10563375
EXTRACT: note_on channel=9 note=51 velocity=0 time=0
EXTRACT: control_change channel=3 control=72 value=107 time=0.02112675
EXTRACT: control_change channel=3 control=93 value=46 time=0.0140845
EXTRACT: note_on channel=4 note=52 velocity=73 time=0.07746475
EXTRACT: note_on channel=4 note=57 velocity=73 time=0.0985915
EXTRACT: note_on channel=1 note=69 velocity=73 time=0.07746475
EXTRACT: note_on channel=0 note=57 velocity=84 time=0.028169
EXTRACT: note_on channel=0 note=61 velocity=84 time=0
EXTRACT: note_on channel=0 note=64 velocity=84 time=0
EXTRACT: note_on channel=0 note=69 velocity=84 time=0
EXTRACT: note_on channel=2 note=52 velocity=73 time=0
EXTRACT: note_on channel=2 note=45 velocity=73 time=0
EXTRACT: note_on channel=3 note=76 velocity=112 time=0
EXTRACT: note_on channel=4 note=61 velocity=73 time=0
EXTRACT: note_on channel=8 note=33 velocity=123 time=0
EXTRACT: note_on channel=9 note=33 velocity=127 time=0
EXTRACT: note_on channel=9 note=46 velocity=100 time=0
EXTRACT: note_on channel=9 note=57 velocity=100 time=0
EXTRACT: note_on channel=1 note=61 velocity=73 time=0.02112675
EXTRACT: note_on channel=4 note=64 velocity=73 time=0.028169
EXTRACT: note_on channel=1 note=57 velocity=73 time=0.02112675
EXTRACT: note_on channel=9 note=57 velocity=0 time=0.03521125
EXTRACT: note_on channel=9 note=46 velocity=0 time=0
EXTRACT: note_on channel=9 note=33 velocity=0 time=0
EXTRACT: note_on channel=3 note=76 velocity=0 time=0.31690125
EXTRACT: note_on channel=3 note=64 velocity=112 time=0
EXTRACT: note_on channel=9 note=51 velocity=127 time=0
EXTRACT: note_on channel=9 note=46 velocity=100 time=0
EXTRACT: note_on channel=9 note=46 velocity=0 time=0.10563375
EXTRACT: note_on channel=9 note=51 velocity=0 time=0
EXTRACT: note_on channel=0 note=69 velocity=0 time=0.31690125
EXTRACT: note_on channel=0 note=57 velocity=0 time=0
EXTRACT: note_on channel=0 note=61 velocity=0 time=0
EXTRACT: note_on channel=0 note=64 velocity=0 time=0
EXTRACT: note_on channel=0 note=57 velocity=87 time=0
EXTRACT: note_on channel=0 note=61 velocity=87 time=0
EXTRACT: note_on channel=0 note=64 velocity=87 time=0
EXTRACT: note_on channel=0 note=69 velocity=87 time=0
EXTRACT: note_on channel=3 note=64 velocity=0 time=0
EXTRACT: note_on channel=3 note=76 velocity=112 time=0
EXTRACT: note_on channel=8 note=33 velocity=0 time=0
EXTRACT: note_on channel=8 note=33 velocity=123 time=0
EXTRACT: note_on channel=9 note=31 velocity=127 time=0
EXTRACT: note_on channel=9 note=33 velocity=127 time=0
EXTRACT: note_on channel=9 note=46 velocity=100 time=0
EXTRACT: note_on channel=10 note=31 velocity=73 time=0
EXTRACT: note_on channel=9 note=46 velocity=0 time=0.10563375
EXTRACT: note_on channel=9 note=33 velocity=0 time=0
EXTRACT: note_on channel=9 note=31 velocity=0 time=0
EXTRACT: note_on channel=10 note=31 velocity=0 time=0
EXTRACT: note_on channel=3 note=76 velocity=0 time=0.31690125
EXTRACT: note_on channel=3 note=64 velocity=112 time=0
EXTRACT: note_on channel=9 note=46 velocity=100 time=0
EXTRACT: note_on channel=9 note=46 velocity=0 time=0.10563375
EXTRACT: note_on channel=8 note=33 velocity=0 time=0.10563375
EXTRACT: note_on channel=8 note=33 velocity=123 time=0
EXTRACT: note_on channel=9 note=33 velocity=127 time=0
EXTRACT: note_on channel=1 note=69 velocity=0 time=0.0140845
EXTRACT: note_on channel=4 note=57 velocity=0 time=0.0422535
EXTRACT: note_on channel=1 note=61 velocity=0 time=0.00704225
EXTRACT: note_on channel=4 note=52 velocity=0 time=0.02112675
EXTRACT: note_on channel=9 note=33 velocity=0 time=0.02112675
EXTRACT: note_on channel=1 note=57 velocity=0 time=0.00704225
EXTRACT: note_on channel=1 note=56 velocity=73 time=0.03521125
EXTRACT: note_on channel=4 note=52 velocity=73 time=0.00704225
EXTRACT: note_on channel=1 note=61 velocity=73 time=0.0140845
EXTRACT: note_on channel=4 note=61 velocity=0 time=0.00704225
EXTRACT: note_on channel=4 note=59 velocity=73 time=0
EXTRACT: note_on channel=0 note=69 velocity=0 time=0.03521125
EXTRACT: note_on channel=0 note=57 velocity=0 time=0
EXTRACT: note_on channel=0 note=61 velocity=0 time=0
EXTRACT: note_on channel=0 note=64 velocity=0 time=0
EXTRACT: note_on channel=0 note=56 velocity=87 time=0
EXTRACT: note_on channel=0 note=61 velocity=87 time=0
EXTRACT: note_on channel=0 note=64 velocity=87 time=0
EXTRACT: note_on channel=0 note=68 velocity=87 time=0
EXTRACT: note_on channel=2 note=45 velocity=0 time=0
EXTRACT: note_on channel=2 note=52 velocity=0 time=0
EXTRACT: note_on channel=2 note=52 velocity=73 time=0
EXTRACT: note_on channel=2 note=44 velocity=73 time=0
EXTRACT: note_on channel=3 note=64 velocity=0 time=0
EXTRACT: note_on channel=3 note=71 velocity=112 time=0
EXTRACT: note_on channel=8 note=33 velocity=0 time=0
EXTRACT: note_on channel=8 note=32 velocity=123 time=0
EXTRACT: note_on channel=9 note=46 velocity=100 time=0
EXTRACT: note_on channel=4 note=64 velocity=73 time=0.00704225
EXTRACT: note_on channel=1 note=68 velocity=73 time=0.00704225
EXTRACT: note_on channel=4 note=64 velocity=0 time=0
EXTRACT: note_on channel=9 note=46 velocity=0 time=0.09154925
EXTRACT: note_on channel=9 note=33 velocity=127 time=0.10563375
EXTRACT: note_on channel=9 note=33 velocity=0 time=0.10563375
EXTRACT: note_on channel=3 note=71 velocity=0 time=0.10563375
EXTRACT: note_on channel=3 note=73 velocity=112 time=0
EXTRACT: note_on channel=9 note=33 velocity=127 time=0
EXTRACT: note_on channel=9 note=46 velocity=100 time=0
EXTRACT: note_on channel=9 note=46 velocity=0 time=0.10563375
EXTRACT: note_on channel=9 note=33 velocity=0 time=0
EXTRACT: note_on channel=0 note=68 velocity=0 time=0.31690125
EXTRACT: note_on channel=0 note=56 velocity=0 time=0
EXTRACT: note_on channel=0 note=61 velocity=0 time=0
EXTRACT: note_on channel=0 note=64 velocity=0 time=0
EXTRACT: note_on channel=0 note=56 velocity=87 time=0
EXTRACT: note_on channel=0 note=61 velocity=87 time=0
EXTRACT: note_on channel=0 note=64 velocity=87 time=0
EXTRACT: note_on channel=0 note=68 velocity=87 time=0
EXTRACT: note_on channel=3 note=73 velocity=0 time=0
EXTRACT: note_on channel=3 note=71 velocity=112 time=0
EXTRACT: note_on channel=8 note=32 velocity=0 time=0
EXTRACT: note_on channel=8 note=32 velocity=123 time=0
EXTRACT: note_on channel=9 note=31 velocity=127 time=0
EXTRACT: note_on channel=9 note=33 velocity=127 time=0
EXTRACT: note_on channel=9 note=46 velocity=100 time=0
EXTRACT: note_on channel=10 note=31 velocity=73 time=0
EXTRACT: note_on channel=9 note=46 velocity=0 time=0.10563375
EXTRACT: note_on channel=9 note=33 velocity=0 time=0
EXTRACT: note_on channel=9 note=31 velocity=0 time=0
EXTRACT: note_on channel=10 note=31 velocity=0 time=0
EXTRACT: note_on channel=3 note=71 velocity=0 time=0.31690125
EXTRACT: note_on channel=3 note=73 velocity=112 time=0
EXTRACT: note_on channel=8 note=32 velocity=0 time=0
EXTRACT: note_on channel=8 note=32 velocity=123 time=0
EXTRACT: note_on channel=9 note=51 velocity=127 time=0
EXTRACT: note_on channel=9 note=46 velocity=100 time=0
EXTRACT: note_on channel=9 note=46 velocity=0 time=0.10563375
EXTRACT: note_on channel=9 note=51 velocity=0 time=0
EXTRACT: note_on channel=4 note=52 velocity=0 time=0.0704225
EXTRACT: note_on channel=1 note=56 velocity=0 time=0.0140845
EXTRACT: note_on channel=4 note=59 velocity=0 time=0.0140845
EXTRACT: note_on channel=4 note=64 velocity=0 time=0
EXTRACT: note_on channel=1 note=61 velocity=0 time=0.00704225
EXTRACT: note_on channel=4 note=52 velocity=73 time=0.028169
EXTRACT: note_on channel=1 note=68 velocity=0 time=0.028169
EXTRACT: note_on channel=4 note=56 velocity=73 time=0.0704225
EXTRACT: note_on channel=1 note=61 velocity=73 time=0.03521125
EXTRACT: note_on channel=1 note=52 velocity=73 time=0.02112675
EXTRACT: note_on channel=1 note=56 velocity=73 time=0.02112675
EXTRACT: note_on channel=0 note=68 velocity=0 time=0.00704225
EXTRACT: note_on channel=0 note=56 velocity=0 time=0
EXTRACT: note_on channel=0 note=61 velocity=0 time=0
EXTRACT: note_on channel=0 note=64 velocity=0 time=0
EXTRACT: note_on channel=0 note=56 velocity=87 time=0
EXTRACT: note_on channel=0 note=61 velocity=87 time=0
EXTRACT: note_on channel=0 note=64 velocity=87 time=0
EXTRACT: note_on channel=0 note=68 velocity=87 time=0
EXTRACT: note_on channel=1 note=68 velocity=73 time=0
EXTRACT: note_on channel=2 note=44 velocity=0 time=0
EXTRACT: note_on channel=2 note=52 velocity=0 time=0
EXTRACT: note_on channel=2 note=61 velocity=73 time=0
EXTRACT: note_on channel=2 note=52 velocity=73 time=0
EXTRACT: note_on channel=3 note=73 velocity=0 time=0
EXTRACT: note_on channel=3 note=76 velocity=112 time=0
EXTRACT: note_on channel=8 note=32 velocity=0 time=0
EXTRACT: note_on channel=8 note=37 velocity=123 time=0
EXTRACT: note_on channel=9 note=33 velocity=127 time=0
EXTRACT: note_on channel=9 note=46 velocity=100 time=0
EXTRACT: note_on channel=9 note=33 velocity=127 time=0
EXTRACT: note_on channel=9 note=46 velocity=100 time=0
EXTRACT: note_on channel=4 note=61 velocity=73 time=0.02112675
EXTRACT: note_on channel=4 note=64 velocity=73 time=0.04929575
EXTRACT: note_on channel=9 note=46 velocity=0 time=0.03521125
EXTRACT: note_on channel=9 note=33 velocity=0 time=0
EXTRACT: note_on channel=9 note=46 velocity=0 time=0
EXTRACT: note_on channel=9 note=33 velocity=0 time=0
EXTRACT: note_on channel=3 note=76 velocity=0 time=0.31690125
EXTRACT: note_on channel=3 note=64 velocity=112 time=0
EXTRACT: note_on channel=9 note=51 velocity=127 time=0
EXTRACT: note_on channel=9 note=46 velocity=100 time=0
EXTRACT: note_on channel=9 note=46 velocity=0 time=0.10563375
EXTRACT: note_on channel=9 note=51 velocity=0 time=0
EXTRACT: note_on channel=0 note=68 velocity=0 time=0.31690125
EXTRACT: note_on channel=0 note=56 velocity=0 time=0
EXTRACT: note_on channel=0 note=61 velocity=0 time=0
EXTRACT: note_on channel=0 note=64 velocity=0 time=0
EXTRACT: note_on channel=0 note=56 velocity=87 time=0
EXTRACT: note_on channel=0 note=61 velocity=87 time=0
EXTRACT: note_on channel=0 note=64 velocity=87 time=0
EXTRACT: note_on channel=0 note=68 velocity=87 time=0
EXTRACT: note_on channel=3 note=64 velocity=0 time=0
EXTRACT: note_on channel=3 note=76 velocity=112 time=0
EXTRACT: note_on channel=8 note=37 velocity=0 time=0
EXTRACT: note_on channel=8 note=37 velocity=123 time=0
EXTRACT: note_on channel=9 note=46 velocity=100 time=0
EXTRACT: note_on channel=9 note=33 velocity=127 time=0
EXTRACT: note_on channel=9 note=31 velocity=127 time=0
EXTRACT: note_on channel=9 note=33 velocity=127 time=0
EXTRACT: note_on channel=10 note=31 velocity=73 time=0
EXTRACT: note_on channel=9 note=33 velocity=0 time=0.10563375
EXTRACT: note_on channel=9 note=46 velocity=0 time=0
EXTRACT: note_on channel=9 note=33 velocity=0 time=0
EXTRACT: note_on channel=9 note=31 velocity=0 time=0
EXTRACT: note_on channel=10 note=31 velocity=0 time=0
EXTRACT: note_on channel=3 note=76 velocity=0 time=0.31690125
EXTRACT: note_on channel=3 note=64 velocity=112 time=0
EXTRACT: note_on channel=9 note=46 velocity=100 time=0
EXTRACT: note_on channel=9 note=46 velocity=0 time=0.10563375
EXTRACT: note_on channel=1 note=61 velocity=0 time=0.0985915
EXTRACT: note_on channel=9 note=33 velocity=127 time=0.00704225
EXTRACT: note_on channel=1 note=52 velocity=0 time=0.0140845
EXTRACT: note_on channel=1 note=56 velocity=0 time=0.02112675
EXTRACT: note_on channel=1 note=68 velocity=0 time=0.00704225
EXTRACT: note_on channel=4 note=64 velocity=0 time=0.0140845
EXTRACT: note_on channel=4 note=56 velocity=0 time=0.02112675
EXTRACT: note_on channel=4 note=52 velocity=0 time=0.028169
EXTRACT: note_on channel=9 note=33 velocity=0 time=0
EXTRACT: note_on channel=1 note=64 velocity=73 time=0.056338
EXTRACT: note_on channel=1 note=57 velocity=73 time=0.00704225
EXTRACT: note_on channel=1 note=69 velocity=73 time=0.0140845
EXTRACT: note_on channel=4 note=59 velocity=73 time=0.00704225
EXTRACT: note_on channel=4 note=61 velocity=0 time=0.00704225
EXTRACT: note_on channel=0 note=68 velocity=0 time=0.0140845
EXTRACT: note_on channel=0 note=56 velocity=0 time=0
EXTRACT: note_on channel=0 note=61 velocity=0 time=0
EXTRACT: note_on channel=0 note=64 velocity=0 time=0
EXTRACT: note_on channel=0 note=69 velocity=87 time=0
EXTRACT: note_on channel=0 note=56 velocity=87 time=0
EXTRACT: note_on channel=0 note=62 velocity=87 time=0
EXTRACT: note_on channel=2 note=52 velocity=0 time=0
EXTRACT: note_on channel=2 note=61 velocity=0 time=0
EXTRACT: note_on channel=2 note=61 velocity=73 time=0
EXTRACT: note_on channel=3 note=64 velocity=0 time=0
EXTRACT: note_on channel=3 note=71 velocity=112 time=0
EXTRACT: note_on channel=4 note=64 velocity=73 time=0
EXTRACT: note_on channel=8 note=37 velocity=0 time=0
EXTRACT: note_on channel=8 note=37 velocity=123 time=0
EXTRACT: note_on channel=9 note=46 velocity=100 time=0
EXTRACT: note_on channel=1 note=61 velocity=73 time=0.04929575
EXTRACT: note_on channel=9 note=46 velocity=0 time=0.056338
EXTRACT: note_on channel=9 note=33 velocity=127 time=0.10563375
EXTRACT: note_on channel=9 note=33 velocity=0 time=0.10563375
EXTRACT: note_on channel=0 note=62 velocity=0 time=0.10563375
EXTRACT: note_on channel=0 note=64 velocity=87 time=0
EXTRACT: note_on channel=2 note=61 velocity=0 time=0
EXTRACT: note_on channel=2 note=59 velocity=73 time=0
EXTRACT: note_on channel=2 note=62 velocity=73 time=0
EXTRACT: note_on channel=3 note=71 velocity=0 time=0
EXTRACT: note_on channel=3 note=73 velocity=112 time=0
EXTRACT: note_on channel=8 note=37 velocity=0 time=0
EXTRACT: note_on channel=8 note=40 velocity=123 time=0
EXTRACT: note_on channel=9 note=33 velocity=127 time=0
EXTRACT: note_on channel=9 note=46 velocity=100 time=0
EXTRACT: note_on channel=9 note=33 velocity=127 time=0
EXTRACT: note_on channel=9 note=33 velocity=0 time=0.10563375
EXTRACT: note_on channel=9 note=46 velocity=0 time=0
EXTRACT: note_on channel=9 note=33 velocity=0 time=0
EXTRACT: note_on channel=8 note=40 velocity=0 time=0.10563375
EXTRACT: note_on channel=8 note=40 velocity=123 time=0
EXTRACT: note_on channel=0 note=64 velocity=0 time=0.2112675
EXTRACT: note_on channel=0 note=56 velocity=0 time=0
EXTRACT: note_on channel=0 note=69 velocity=0 time=0
EXTRACT: note_on channel=0 note=69 velocity=87 time=0
EXTRACT: note_on channel=0 note=56 velocity=87 time=0
EXTRACT: note_on channel=0 note=62 velocity=87 time=0
EXTRACT: note_on channel=2 note=62 velocity=0 time=0
EXTRACT: note_on channel=2 note=59 velocity=0 time=0
EXTRACT: note_on channel=2 note=61 velocity=73 time=0
EXTRACT: note_on channel=3 note=73 velocity=0 time=0
EXTRACT: note_on channel=3 note=71 velocity=112 time=0
EXTRACT: note_on channel=8 note=40 velocity=0 time=0
EXTRACT: note_on channel=8 note=40 velocity=123 time=0
EXTRACT: note_on channel=9 note=31 velocity=127 time=0
EXTRACT: note_on channel=9 note=33 velocity=127 time=0
EXTRACT: note_on channel=9 note=31 velocity=127 time=0
EXTRACT: note_on channel=9 note=33 velocity=127 time=0
EXTRACT: note_on channel=9 note=46 velocity=100 time=0
EXTRACT: note_on channel=10 note=31 velocity=73 time=0
EXTRACT: note_on channel=9 note=46 velocity=0 time=0.10563375
EXTRACT: note_on channel=9 note=31 velocity=0 time=0
EXTRACT: note_on channel=9 note=31 velocity=0 time=0
EXTRACT: note_on channel=9 note=33 velocity=0 time=0
EXTRACT: note_on channel=9 note=33 velocity=0 time=0
EXTRACT: note_on channel=10 note=31 velocity=0 time=0
EXTRACT: control_change channel=4 control=10 value=110 time=0.03521125
EXTRACT: control_change channel=3 control=94 value=31 time=0.07746475
EXTRACT: control_change channel=8 control=91 value=0 time=0.04929575
EXTRACT: control_change channel=3 control=11 value=106 time=0.03521125
EXTRACT: control_change channel=4 control=72 value=104 time=0
EXTRACT: note_on channel=0 note=62 velocity=0 time=0.11971825
EXTRACT: note_on channel=0 note=64 velocity=87 time=0
EXTRACT: note_on channel=2 note=61 velocity=0 time=0
EXTRACT: note_on channel=2 note=59 velocity=73 time=0
EXTRACT: note_on channel=2 note=62 velocity=73 time=0
EXTRACT: note_on channel=3 note=71 velocity=0 time=0
EXTRACT: note_on channel=3 note=73 velocity=112 time=0
EXTRACT: note_on channel=8 note=40 velocity=0 time=0
EXTRACT: note_on channel=8 note=40 velocity=123 time=0
EXTRACT: note_on channel=9 note=46 velocity=100 time=0
EXTRACT: note_on channel=9 note=51 velocity=127 time=0
EXTRACT: note_on channel=9 note=46 velocity=100 time=0
EXTRACT: note_on channel=9 note=46 velocity=0 time=0.10563375
EXTRACT: note_on channel=9 note=51 velocity=0 time=0
EXTRACT: note_on channel=9 note=46 velocity=0 time=0
EXTRACT: control_change channel=3 control=72 value=107 time=0.02112675
EXTRACT: note_on channel=4 note=59 velocity=0 time=0.04929575
EXTRACT: note_on channel=4 note=64 velocity=0 time=0.02112675
EXTRACT: note_on channel=1 note=64 velocity=0 time=0.00704225
EXTRACT: note_on channel=1 note=57 velocity=0 time=0.00704225
EXTRACT: note_on channel=4 note=52 velocity=73 time=0.00704225
EXTRACT: note_on channel=1 note=69 velocity=0 time=0.00704225
EXTRACT: note_on channel=1 note=61 velocity=0 time=0.07746475
EXTRACT: note_on channel=4 note=57 velocity=73 time=0.0140845
EXTRACT: note_on channel=1 note=69 velocity=73 time=0.07746475
EXTRACT: note_on channel=0 note=64 velocity=0 time=0.028169
EXTRACT: note_on channel=0 note=56 velocity=0 time=0
EXTRACT: note_on channel=0 note=69 velocity=0 time=0
EXTRACT: note_on channel=0 note=57 velocity=84 time=0
EXTRACT: note_on channel=0 note=61 velocity=84 time=0
EXTRACT: note_on channel=0 note=64 velocity=84 time=0
EXTRACT: note_on channel=0 note=69 velocity=84 time=0
EXTRACT: note_on channel=2 note=62 velocity=0 time=0
EXTRACT: note_on channel=2 note=59 velocity=0 time=0
EXTRACT: note_on channel=2 note=52 velocity=73 time=0
EXTRACT: note_on channel=2 note=45 velocity=73 time=0
EXTRACT: note_on channel=3 note=73 velocity=0 time=0
EXTRACT: note_on channel=3 note=76 velocity=112 time=0
EXTRACT: note_on channel=4 note=61 velocity=73 time=0
EXTRACT: note_on channel=8 note=40 velocity=0 time=0
EXTRACT: note_on channel=8 note=33 velocity=123 time=0
EXTRACT: note_on channel=9 note=33 velocity=127 time=0
EXTRACT: note_on channel=9 note=46 velocity=100 time=0
EXTRACT: note_on channel=9 note=57 velocity=100 time=0
EXTRACT: note_on channel=1 note=61 velocity=73 time=0.02112675
EXTRACT: note_on channel=4 note=64 velocity=73 time=0.028169
EXTRACT: note_on channel=1 note=57 velocity=73 time=0.02112675
EXTRACT: note_on channel=9 note=57 velocity=0 time=0.03521125
EXTRACT: note_on channel=9 note=46 velocity=0 time=0
EXTRACT: note_on channel=9 note=33 velocity=0 time=0
EXTRACT: note_on channel=3 note=76 velocity=0 time=0.31690125
EXTRACT: note_on channel=3 note=64 velocity=112 time=0
EXTRACT: note_on channel=9 note=51 velocity=127 time=0
EXTRACT: note_on channel=9 note=46 velocity=100 time=0
EXTRACT: note_on channel=9 note=46 velocity=0 time=0.10563375
EXTRACT: note_on channel=9 note=51 velocity=0 time=0
EXTRACT: note_on channel=0 note=69 velocity=0 time=0.31690125
EXTRACT: note_on channel=0 note=57 velocity=0 time=0
EXTRACT: note_on channel=0 note=61 velocity=0 time=0
EXTRACT: note_on channel=0 note=64 velocity=0 time=0
EXTRACT: note_on channel=0 note=57 velocity=87 time=0
EXTRACT: note_on channel=0 note=61 velocity=87 time=0
EXTRACT: note_on channel=0 note=64 velocity=87 time=0
EXTRACT: note_on channel=0 note=69 velocity=87 time=0
EXTRACT: note_on channel=3 note=64 velocity=0 time=0
EXTRACT: note_on channel=3 note=76 velocity=112 time=0
EXTRACT: note_on channel=8 note=33 velocity=0 time=0
EXTRACT: note_on channel=8 note=33 velocity=123 time=0
EXTRACT: note_on channel=9 note=31 velocity=127 time=0
EXTRACT: note_on channel=9 note=33 velocity=127 time=0
EXTRACT: note_on channel=9 note=46 velocity=100 time=0
EXTRACT: note_on channel=10 note=31 velocity=73 time=0
EXTRACT: note_on channel=9 note=46 velocity=0 time=0.10563375
EXTRACT: note_on channel=9 note=33 velocity=0 time=0
EXTRACT: note_on channel=9 note=31 velocity=0 time=0
EXTRACT: note_on channel=10 note=31 velocity=0 time=0
EXTRACT: note_on channel=3 note=76 velocity=0 time=0.31690125
EXTRACT: note_on channel=3 note=64 velocity=112 time=0
EXTRACT: note_on channel=9 note=46 velocity=100 time=0
EXTRACT: note_on channel=9 note=46 velocity=0 time=0.10563375
EXTRACT: note_on channel=8 note=33 velocity=0 time=0.10563375
EXTRACT: note_on channel=8 note=33 velocity=123 time=0
EXTRACT: note_on channel=9 note=33 velocity=127 time=0
EXTRACT: note_on channel=1 note=69 velocity=0 time=0.0140845
EXTRACT: note_on channel=4 note=57 velocity=0 time=0.0422535
EXTRACT: note_on channel=1 note=61 velocity=0 time=0.00704225
EXTRACT: note_on channel=4 note=52 velocity=0 time=0.02112675
EXTRACT: note_on channel=9 note=33 velocity=0 time=0.02112675
EXTRACT: note_on channel=1 note=57 velocity=0 time=0.00704225
EXTRACT: note_on channel=1 note=57 velocity=73 time=0.03521125
EXTRACT: note_on channel=1 note=66 velocity=73 time=0.00704225
EXTRACT: note_on channel=4 note=52 velocity=73 time=0
EXTRACT: note_on channel=1 note=61 velocity=73 time=0.0140845
EXTRACT: note_on channel=4 note=61 velocity=0 time=0.00704225
EXTRACT: note_on channel=4 note=59 velocity=73 time=0
EXTRACT: note_on channel=0 note=69 velocity=0 time=0.03521125
EXTRACT: note_on channel=0 note=57 velocity=0 time=0
EXTRACT: note_on channel=0 note=61 velocity=0 time=0
EXTRACT: note_on channel=0 note=64 velocity=0 time=0
EXTRACT: note_on channel=0 note=54 velocity=87 time=0
EXTRACT: note_on channel=0 note=61 velocity=87 time=0
EXTRACT: note_on channel=0 note=66 velocity=87 time=0
EXTRACT: note_on channel=0 note=69 velocity=87 time=0
EXTRACT: note_on channel=2 note=45 velocity=0 time=0
EXTRACT: note_on channel=2 note=52 velocity=0 time=0
EXTRACT: note_on channel=2 note=54 velocity=73 time=0
EXTRACT: note_on channel=2 note=44 velocity=73 time=0
EXTRACT: note_on channel=3 note=64 velocity=0 time=0
EXTRACT: note_on channel=3 note=71 velocity=112 time=0
EXTRACT: note_on channel=8 note=33 velocity=0 time=0
EXTRACT: note_on channel=8 note=30 velocity=123 time=0
EXTRACT: note_on channel=9 note=46 velocity=100 time=0
EXTRACT: note_on channel=4 note=64 velocity=73 time=0.00704225
EXTRACT: note_on channel=1 note=69 velocity=73 time=0.00704225
EXTRACT: note_on channel=4 note=64 velocity=0 time=0
EXTRACT: note_on channel=9 note=46 velocity=0 time=0.09154925
EXTRACT: note_on channel=9 note=33 velocity=127 time=0.10563375
EXTRACT: note_on channel=9 note=33 velocity=0 time=0.10563375
EXTRACT: note_on channel=3 note=71 velocity=0 time=0.10563375
EXTRACT: note_on channel=3 note=73 velocity=112 time=0
EXTRACT: note_on channel=9 note=33 velocity=127 time=0
EXTRACT: note_on channel=9 note=46 velocity=100 time=0
EXTRACT: note_on channel=9 note=46 velocity=0 time=0.10563375
EXTRACT: note_on channel=9 note=33 velocity=0 time=0
EXTRACT: note_on channel=0 note=69 velocity=0 time=0.31690125
EXTRACT: note_on channel=0 note=54 velocity=0 time=0
EXTRACT: note_on channel=0 note=61 velocity=0 time=0
EXTRACT: note_on channel=0 note=66 velocity=0 time=0
EXTRACT: note_on channel=0 note=54 velocity=87 time=0
EXTRACT: note_on channel=0 note=61 velocity=87 time=0
EXTRACT: note_on channel=0 note=66 velocity=87 time=0
EXTRACT: note_on channel=0 note=69 velocity=87 time=0
EXTRACT: note_on channel=3 note=73 velocity=0 time=0
EXTRACT: note_on channel=3 note=71 velocity=112 time=0
EXTRACT: note_on channel=8 note=30 velocity=0 time=0
EXTRACT: note_on channel=8 note=30 velocity=123 time=0
EXTRACT: note_on channel=9 note=31 velocity=127 time=0
EXTRACT: note_on channel=9 note=33 velocity=127 time=0
EXTRACT: note_on channel=9 note=46 velocity=100 time=0
EXTRACT: note_on channel=10 note=31 velocity=73 time=0
EXTRACT: note_on channel=9 note=46 velocity=0 time=0.10563375
EXTRACT: note_on channel=9 note=33 velocity=0 time=0
EXTRACT: note_on channel=9 note=31 velocity=0 time=0
EXTRACT: note_on channel=10 note=31 velocity=0 time=0
EXTRACT: note_on channel=3 note=71 velocity=0 time=0.31690125
EXTRACT: note_on channel=3 note=73 velocity=112 time=0
EXTRACT: note_on channel=8 note=30 velocity=0 time=0
EXTRACT: note_on channel=8 note=30 velocity=123 time=0
EXTRACT: note_on channel=9 note=51 velocity=127 time=0
EXTRACT: note_on channel=9 note=46 velocity=100 time=0
EXTRACT: note_on channel=9 note=46 velocity=0 time=0.10563375
EXTRACT: note_on channel=9 note=51 velocity=0 time=0
EXTRACT: note_on channel=4 note=52 velocity=0 time=0.0704225
EXTRACT: note_on channel=1 note=57 velocity=0 time=0.0140845
EXTRACT: note_on channel=1 note=66 velocity=0 time=0.00704225
EXTRACT: note_on channel=4 note=59 velocity=0 time=0.00704225
EXTRACT: note_on channel=4 note=64 velocity=0 time=0
EXTRACT: note_on channel=1 note=61 velocity=0 time=0.00704225
EXTRACT: note_on channel=3 note=73 velocity=0 time=0
EXTRACT: note_on channel=3 note=76 velocity=112 time=0
EXTRACT: note_on channel=4 note=52 velocity=73 time=0.028169
EXTRACT: note_on channel=1 note=69 velocity=0 time=0.028169
EXTRACT: note_on channel=4 note=57 velocity=73 time=0.0704225
EXTRACT: note_on channel=1 note=61 velocity=73 time=0.03521125
EXTRACT: note_on channel=1 note=52 velocity=73 time=0.02112675
EXTRACT: note_on channel=1 note=56 velocity=73 time=0.02112675
EXTRACT: note_on channel=0 note=69 velocity=0 time=0.00704225
EXTRACT: note_on channel=0 note=54 velocity=0 time=0
EXTRACT: note_on channel=0 note=61 velocity=0 time=0
EXTRACT: note_on channel=0 note=66 velocity=0 time=0
EXTRACT: note_on channel=0 note=56 velocity=87 time=0
EXTRACT: note_on channel=0 note=61 velocity=87 time=0
EXTRACT: note_on channel=0 note=64 velocity=87 time=0
EXTRACT: note_on channel=0 note=68 velocity=87 time=0
EXTRACT: note_on channel=1 note=68 velocity=73 time=0
EXTRACT: note_on channel=2 note=44 velocity=0 time=0
EXTRACT: note_on channel=2 note=54 velocity=0 time=0
EXTRACT: note_on channel=2 note=61 velocity=73 time=0
EXTRACT: note_on channel=2 note=52 velocity=73 time=0
EXTRACT: note_on channel=3 note=76 velocity=0 time=0
EXTRACT: note_on channel=3 note=76 velocity=112 time=0
EXTRACT: note_on channel=8 note=30 velocity=0 time=0
EXTRACT: note_on channel=8 note=37 velocity=123 time=0
EXTRACT: note_on channel=9 note=33 velocity=127 time=0
EXTRACT: note_on channel=9 note=46 velocity=100 time=0
EXTRACT: note_on channel=4 note=61 velocity=73 time=0.02112675
EXTRACT: note_on channel=4 note=64 velocity=73 time=0.04929575
EXTRACT: note_on channel=9 note=46 velocity=0 time=0.03521125
EXTRACT: note_on channel=9 note=33 velocity=0 time=0
EXTRACT: note_on channel=3 note=76 velocity=0 time=0.31690125
EXTRACT: note_on channel=3 note=64 velocity=112 time=0
EXTRACT: note_on channel=9 note=51 velocity=127 time=0
EXTRACT: note_on channel=9 note=46 velocity=100 time=0
EXTRACT: note_on channel=9 note=46 velocity=0 time=0.10563375
EXTRACT: note_on channel=9 note=51 velocity=0 time=0
EXTRACT: note_on channel=0 note=68 velocity=0 time=0.31690125
EXTRACT: note_on channel=0 note=56 velocity=0 time=0
EXTRACT: note_on channel=0 note=61 velocity=0 time=0
EXTRACT: note_on channel=0 note=64 velocity=0 time=0
EXTRACT: note_on channel=0 note=56 velocity=87 time=0
EXTRACT: note_on channel=0 note=61 velocity=87 time=0
EXTRACT: note_on channel=0 note=64 velocity=87 time=0
EXTRACT: note_on channel=0 note=68 velocity=87 time=0
EXTRACT: note_on channel=3 note=64 velocity=0 time=0
EXTRACT: note_on channel=3 note=76 velocity=112 time=0
EXTRACT: note_on channel=8 note=37 velocity=0 time=0
EXTRACT: note_on channel=8 note=37 velocity=123 time=0
EXTRACT: note_on channel=9 note=31 velocity=127 time=0
EXTRACT: note_on channel=9 note=33 velocity=127 time=0
EXTRACT: note_on channel=9 note=46 velocity=100 time=0
EXTRACT: note_on channel=10 note=31 velocity=73 time=0
EXTRACT: note_on channel=9 note=46 velocity=0 time=0.10563375
EXTRACT: note_on channel=9 note=33 velocity=0 time=0
EXTRACT: note_on channel=9 note=31 velocity=0 time=0
EXTRACT: note_on channel=10 note=31 velocity=0 time=0
EXTRACT: note_on channel=3 note=76 velocity=0 time=0.31690125
EXTRACT: pitchwheel channel=3 pitch=384 time=0
EXTRACT: note_on channel=3 note=71 velocity=112 time=0
EXTRACT: note_on channel=9 note=46 velocity=100 time=0
EXTRACT: pitchwheel channel=3 pitch=640 time=0.00704225
EXTRACT: pitchwheel channel=3 pitch=896 time=0.028169
EXTRACT: pitchwheel channel=3 pitch=1024 time=0.0140845
EXTRACT: pitchwheel channel=3 pitch=1280 time=0.02112675
EXTRACT: pitchwheel channel=3 pitch=1408 time=0.0140845
EXTRACT: pitchwheel channel=3 pitch=1664 time=0.02112675
EXTRACT: note_on channel=9 note=46 velocity=0 time=0
EXTRACT: pitchwheel channel=3 pitch=1920 time=0.00704225
EXTRACT: pitchwheel channel=3 pitch=2688 time=0.04929575
EXTRACT: pitchwheel channel=3 pitch=2944 time=0.00704225
EXTRACT: pitchwheel channel=3 pitch=3712 time=0.02112675
EXTRACT: pitchwheel channel=3 pitch=4224 time=0.00704225
EXTRACT: note_on channel=1 note=61 velocity=0 time=0.00704225
EXTRACT: pitchwheel channel=3 pitch=4992 time=0
EXTRACT: pitchwheel channel=3 pitch=5120 time=0.00704225
EXTRACT: note_on channel=9 note=33 velocity=127 time=0
EXTRACT: pitchwheel channel=3 pitch=5376 time=0.00704225
EXTRACT: note_on channel=1 note=52 velocity=0 time=0.00704225
EXTRACT: pitchwheel channel=3 pitch=5632 time=0.00704225
EXTRACT: note_on channel=1 note=56 velocity=0 time=0.0140845
EXTRACT: pitchwheel channel=3 pitch=5888 time=0
EXTRACT: note_on channel=1 note=68 velocity=0 time=0.00704225
EXTRACT: pitchwheel channel=3 pitch=6144 time=0
EXTRACT: pitchwheel channel=3 pitch=6400 time=0.00704225
EXTRACT: note_on channel=4 note=64 velocity=0 time=0.00704225
EXTRACT: pitchwheel channel=3 pitch=6656 time=0.00704225
EXTRACT: pitchwheel channel=3 pitch=6912 time=0.0140845
EXTRACT: note_on channel=4 note=57 velocity=0 time=0
EXTRACT: pitchwheel channel=3 pitch=7168 time=0.00704225
EXTRACT: pitchwheel channel=3 pitch=7424 time=0.00704225
EXTRACT: pitchwheel channel=3 pitch=7552 time=0.0140845
EXTRACT: note_on channel=4 note=52 velocity=0 time=0
EXTRACT: note_on channel=9 note=33 velocity=0 time=0
EXTRACT: pitchwheel channel=3 pitch=7680 time=0.00704225
EXTRACT: pitchwheel channel=3 pitch=7936 time=0.00704225
EXTRACT: pitchwheel channel=3 pitch=8191 time=0.00704225
EXTRACT: note_on channel=1 note=64 velocity=73 time=0.03521125
EXTRACT: note_on channel=1 note=52 velocity=73 time=0.00704225
EXTRACT: note_on channel=1 note=69 velocity=73 time=0.0140845
EXTRACT: note_on channel=4 note=52 velocity=73 time=0.00704225
EXTRACT: note_on channel=4 note=61 velocity=0 time=0.00704225
EXTRACT: note_on channel=0 note=68 velocity=0 time=0.0140845
EXTRACT: note_on channel=0 note=56 velocity=0 time=0
EXTRACT: note_on channel=0 note=61 velocity=0 time=0
EXTRACT: note_on channel=0 note=64 velocity=0 time=0
EXTRACT: note_on channel=0 note=69 velocity=87 time=0
EXTRACT: note_on channel=0 note=59 velocity=87 time=0
EXTRACT: note_on channel=0 note=64 velocity=87 time=0
EXTRACT: note_on channel=2 note=52 velocity=0 time=0
EXTRACT: note_on channel=2 note=61 velocity=0 time=0
EXTRACT: note_on channel=2 note=61 velocity=73 time=0
EXTRACT: note_on channel=3 note=71 velocity=0 time=0
EXTRACT: note_on channel=3 note=71 velocity=112 time=0
EXTRACT: note_on channel=4 note=56 velocity=73 time=0
EXTRACT: note_on channel=4 note=64 velocity=73 time=0
EXTRACT: note_on channel=4 note=59 velocity=73 time=0
EXTRACT: note_on channel=8 note=37 velocity=0 time=0
EXTRACT: note_on channel=8 note=40 velocity=123 time=0
EXTRACT: note_on channel=9 note=46 velocity=100 time=0
EXTRACT: pitchwheel channel=3 pitch=128 time=0.00704225
EXTRACT: pitchwheel channel=3 pitch=0 time=0.028169
EXTRACT: note_on channel=1 note=59 velocity=73 time=0.0140845
EXTRACT: note_on channel=9 note=46 velocity=0 time=0.056338
EXTRACT: note_on channel=9 note=33 velocity=127 time=0.10563375
EXTRACT: note_on channel=9 note=33 velocity=0 time=0.10563375
EXTRACT: note_on channel=0 note=64 velocity=0 time=0.10563375
EXTRACT: note_on channel=0 note=64 velocity=87 time=0
EXTRACT: note_on channel=2 note=61 velocity=0 time=0
EXTRACT: note_on channel=2 note=59 velocity=73 time=0
EXTRACT: note_on channel=2 note=62 velocity=73 time=0
EXTRACT: note_on channel=3 note=71 velocity=0 time=0
EXTRACT: note_on channel=3 note=73 velocity=112 time=0
EXTRACT: note_on channel=8 note=40 velocity=0 time=0
EXTRACT: note_on channel=8 note=40 velocity=123 time=0
EXTRACT: note_on channel=9 note=33 velocity=127 time=0
EXTRACT: note_on channel=9 note=46 velocity=100 time=0
EXTRACT: note_on channel=9 note=46 velocity=0 time=0.10563375
EXTRACT: note_on channel=9 note=33 velocity=0 time=0
EXTRACT: note_on channel=8 note=40 velocity=0 time=0.10563375
EXTRACT: note_on channel=8 note=40 velocity=123 time=0
EXTRACT: note_on channel=0 note=64 velocity=0 time=0.2112675
EXTRACT: note_on channel=0 note=59 velocity=0 time=0
EXTRACT: note_on channel=0 note=69 velocity=0 time=0
EXTRACT: note_on channel=0 note=69 velocity=87 time=0
EXTRACT: note_on channel=0 note=59 velocity=87 time=0
EXTRACT: note_on channel=0 note=64 velocity=87 time=0
EXTRACT: note_on channel=2 note=62 velocity=0 time=0
EXTRACT: note_on channel=2 note=59 velocity=0 time=0
EXTRACT: note_on channel=2 note=61 velocity=73 time=0
EXTRACT: note_on channel=3 note=73 velocity=0 time=0
EXTRACT: note_on channel=3 note=71 velocity=112 time=0
EXTRACT: note_on channel=8 note=40 velocity=0 time=0
EXTRACT: note_on channel=8 note=40 velocity=123 time=0
EXTRACT: note_on channel=9 note=31 velocity=127 time=0
EXTRACT: note_on channel=9 note=33 velocity=127 time=0
EXTRACT: note_on channel=9 note=46 velocity=100 time=0
EXTRACT: note_on channel=10 note=31 velocity=73 time=0
EXTRACT: note_on channel=9 note=46 velocity=0 time=0.10563375
EXTRACT: note_on channel=9 note=33 velocity=0 time=0
EXTRACT: note_on channel=9 note=31 velocity=0 time=0
EXTRACT: note_on channel=10 note=31 velocity=0 time=0
EXTRACT: note_on channel=0 note=64 velocity=0 time=0.31690125
EXTRACT: note_on channel=0 note=64 velocity=87 time=0
EXTRACT: note_on channel=2 note=61 velocity=0 time=0
EXTRACT: note_on channel=2 note=59 velocity=73 time=0
EXTRACT: note_on channel=2 note=62 velocity=73 time=0
EXTRACT: note_on channel=3 note=71 velocity=0 time=0
EXTRACT: note_on channel=3 note=73 velocity=112 time=0
EXTRACT: note_on channel=8 note=40 velocity=0 time=0
EXTRACT: note_on channel=8 note=40 velocity=123 time=0
EXTRACT: note_on channel=9 note=51 velocity=127 time=0
EXTRACT: note_on channel=9 note=46 velocity=100 time=0
EXTRACT: note_on channel=9 note=46 velocity=0 time=0.10563375
EXTRACT: note_on channel=9 note=51 velocity=0 time=0
EXTRACT: note_on channel=4 note=52 velocity=0 time=0.0704225
EXTRACT: note_on channel=4 note=56 velocity=0 time=0.02112675
EXTRACT: note_on channel=4 note=64 velocity=0 time=0
EXTRACT: note_on channel=4 note=59 velocity=0 time=0
EXTRACT: note_on channel=1 note=64 velocity=0 time=0.00704225
EXTRACT: note_on channel=1 note=52 velocity=0 time=0.00704225
EXTRACT: note_on channel=1 note=69 velocity=0 time=0.0140845
EXTRACT: note_on channel=4 note=52 velocity=73 time=0.06338025
EXTRACT: note_on channel=1 note=59 velocity=0 time=0.0140845
EXTRACT: note_on channel=1 note=69 velocity=73 time=0.0704225
EXTRACT: note_on channel=4 note=57 velocity=73 time=0.0140845
EXTRACT: note_on channel=0 note=64 velocity=0 time=0.03521125
EXTRACT: note_on channel=0 note=59 velocity=0 time=0
EXTRACT: note_on channel=0 note=69 velocity=0 time=0
EXTRACT: note_on channel=0 note=57 velocity=84 time=0
EXTRACT: note_on channel=0 note=61 velocity=84 time=0
EXTRACT: note_on channel=0 note=64 velocity=84 time=0
EXTRACT: note_on channel=0 note=69 velocity=84 time=0
EXTRACT: note_on channel=2 note=62 velocity=0 time=0
EXTRACT: note_on channel=2 note=59 velocity=0 time=0
EXTRACT: note_on channel=2 note=52 velocity=73 time=0
EXTRACT: note_on channel=2 note=45 velocity=73 time=0
EXTRACT: note_on channel=3 note=73 velocity=0 time=0
EXTRACT: note_on channel=3 note=76 velocity=112 time=0
EXTRACT: note_on channel=4 note=61 velocity=73 time=0
EXTRACT: note_on channel=8 note=40 velocity=0 time=0
EXTRACT: note_on channel=8 note=33 velocity=123 time=0
EXTRACT: note_on channel=9 note=33 velocity=127 time=0
EXTRACT: note_on channel=9 note=46 velocity=100 time=0
EXTRACT: note_on channel=9 note=57 velocity=100 time=0
EXTRACT: note_on channel=1 note=61 velocity=73 time=0.02112675
EXTRACT: note_on channel=4 note=64 velocity=73 time=0.028169
EXTRACT: note_on channel=1 note=57 velocity=73 time=0.02112675
EXTRACT: note_on channel=9 note=57 velocity=0 time=0.03521125
EXTRACT: note_on channel=9 note=46 velocity=0 time=0
EXTRACT: note_on channel=9 note=33 velocity=0 time=0
EXTRACT: note_on channel=3 note=76 velocity=0 time=0.31690125
EXTRACT: note_on channel=3 note=64 velocity=112 time=0
EXTRACT: note_on channel=9 note=51 velocity=127 time=0
EXTRACT: note_on channel=9 note=46 velocity=100 time=0
EXTRACT: note_on channel=9 note=46 velocity=0 time=0.10563375
EXTRACT: note_on channel=9 note=51 velocity=0 time=0
EXTRACT: note_on channel=0 note=69 velocity=0 time=0.31690125
EXTRACT: note_on channel=0 note=57 velocity=0 time=0
EXTRACT: note_on channel=0 note=61 velocity=0 time=0
EXTRACT: note_on channel=0 note=64 velocity=0 time=0
EXTRACT: note_on channel=0 note=57 velocity=87 time=0
EXTRACT: note_on channel=0 note=61 velocity=87 time=0
EXTRACT: note_on channel=0 note=64 velocity=87 time=0
EXTRACT: note_on channel=0 note=69 velocity=87 time=0
EXTRACT: note_on channel=3 note=64 velocity=0 time=0
EXTRACT: note_on channel=3 note=76 velocity=112 time=0
EXTRACT: note_on channel=8 note=33 velocity=0 time=0
EXTRACT: note_on channel=8 note=33 velocity=123 time=0
EXTRACT: note_on channel=9 note=31 velocity=127 time=0
EXTRACT: note_on channel=9 note=33 velocity=127 time=0
EXTRACT: note_on channel=9 note=46 velocity=100 time=0
EXTRACT: note_on channel=10 note=31 velocity=73 time=0
EXTRACT: note_on channel=9 note=46 velocity=0 time=0.10563375
EXTRACT: note_on channel=9 note=33 velocity=0 time=0
EXTRACT: note_on channel=9 note=31 velocity=0 time=0
EXTRACT: note_on channel=10 note=31 velocity=0 time=0
EXTRACT: note_on channel=3 note=76 velocity=0 time=0.31690125
EXTRACT: note_on channel=3 note=64 velocity=112 time=0
EXTRACT: note_on channel=9 note=46 velocity=100 time=0
EXTRACT: note_on channel=9 note=46 velocity=0 time=0.10563375
EXTRACT: note_on channel=1 note=69 velocity=0 time=0.0985915
EXTRACT: note_on channel=8 note=33 velocity=0 time=0.00704225
EXTRACT: note_on channel=8 note=33 velocity=123 time=0
EXTRACT: note_on channel=9 note=33 velocity=127 time=0
EXTRACT: note_on channel=1 note=61 velocity=0 time=0.06338025
EXTRACT: note_on channel=9 note=33 velocity=0 time=0.0422535
EXTRACT: note_on channel=1 note=57 velocity=0 time=0.00704225
EXTRACT: note_on channel=4 note=57 velocity=0 time=0.0140845
EXTRACT: note_on channel=1 note=56 velocity=73 time=0.02112675
EXTRACT: note_on channel=4 note=52 velocity=0 time=0.00704225
EXTRACT: note_on channel=4 note=52 velocity=73 time=0
EXTRACT: note_on channel=1 note=61 velocity=73 time=0.0140845
EXTRACT: note_on channel=4 note=61 velocity=0 time=0.00704225
EXTRACT: note_on channel=4 note=59 velocity=73 time=0
EXTRACT: note_on channel=0 note=69 velocity=0 time=0.03521125
EXTRACT: note_on channel=0 note=57 velocity=0 time=0
EXTRACT: note_on channel=0 note=61 velocity=0 time=0
EXTRACT: note_on channel=0 note=64 velocity=0 time=0
EXTRACT: note_on channel=0 note=56 velocity=87 time=0
EXTRACT: note_on channel=0 note=61 velocity=87 time=0
EXTRACT: note_on channel=0 note=64 velocity=87 time=0
EXTRACT: note_on channel=0 note=68 velocity=87 time=0
EXTRACT: note_on channel=2 note=45 velocity=0 time=0
EXTRACT: note_on channel=2 note=52 velocity=0 time=0
EXTRACT: note_on channel=2 note=52 velocity=73 time=0
EXTRACT: note_on channel=2 note=44 velocity=73 time=0
EXTRACT: note_on channel=3 note=64 velocity=0 time=0
EXTRACT: note_on channel=3 note=71 velocity=112 time=0
EXTRACT: note_on channel=8 note=33 velocity=0 time=0
EXTRACT: note_on channel=8 note=32 velocity=123 time=0
EXTRACT: note_on channel=9 note=46 velocity=100 time=0
EXTRACT: note_on channel=4 note=64 velocity=73 time=0.00704225
EXTRACT: note_on channel=1 note=68 velocity=73 time=0.00704225
EXTRACT: note_on channel=4 note=64 velocity=0 time=0
EXTRACT: note_on channel=9 note=46 velocity=0 time=0.09154925
EXTRACT: note_on channel=9 note=33 velocity=127 time=0.10563375
EXTRACT: note_on channel=9 note=33 velocity=0 time=0.10563375
EXTRACT: note_on channel=3 note=71 velocity=0 time=0.10563375
EXTRACT: note_on channel=3 note=73 velocity=112 time=0
EXTRACT: note_on channel=9 note=33 velocity=127 time=0
EXTRACT: note_on channel=9 note=46 velocity=100 time=0
EXTRACT: note_on channel=9 note=46 velocity=0 time=0.10563375
EXTRACT: note_on channel=9 note=33 velocity=0 time=0
EXTRACT: note_on channel=0 note=68 velocity=0 time=0.31690125
EXTRACT: note_on channel=0 note=56 velocity=0 time=0
EXTRACT: note_on channel=0 note=61 velocity=0 time=0
EXTRACT: note_on channel=0 note=64 velocity=0 time=0
EXTRACT: note_on channel=0 note=56 velocity=87 time=0
EXTRACT: note_on channel=0 note=61 velocity=87 time=0
EXTRACT: note_on channel=0 note=64 velocity=87 time=0
EXTRACT: note_on channel=0 note=68 velocity=87 time=0
EXTRACT: note_on channel=3 note=73 velocity=0 time=0
EXTRACT: note_on channel=3 note=71 velocity=112 time=0
EXTRACT: note_on channel=8 note=32 velocity=0 time=0
EXTRACT: note_on channel=8 note=32 velocity=123 time=0
EXTRACT: note_on channel=9 note=31 velocity=127 time=0
EXTRACT: note_on channel=9 note=33 velocity=127 time=0
EXTRACT: note_on channel=9 note=46 velocity=100 time=0
EXTRACT: note_on channel=10 note=31 velocity=73 time=0
EXTRACT: note_on channel=9 note=46 velocity=0 time=0.10563375
EXTRACT: note_on channel=9 note=33 velocity=0 time=0
EXTRACT: note_on channel=9 note=31 velocity=0 time=0
EXTRACT: note_on channel=10 note=31 velocity=0 time=0
EXTRACT: note_on channel=3 note=71 velocity=0 time=0.31690125
EXTRACT: note_on channel=3 note=73 velocity=112 time=0
EXTRACT: note_on channel=8 note=32 velocity=0 time=0
EXTRACT: note_on channel=8 note=32 velocity=123 time=0
EXTRACT: note_on channel=9 note=51 velocity=127 time=0
EXTRACT: note_on channel=9 note=46 velocity=100 time=0
EXTRACT: note_on channel=9 note=46 velocity=0 time=0.10563375
EXTRACT: note_on channel=9 note=51 velocity=0 time=0
EXTRACT: note_on channel=4 note=52 velocity=0 time=0.0704225
EXTRACT: note_on channel=1 note=56 velocity=0 time=0.0140845
EXTRACT: note_on channel=3 note=73 velocity=0 time=0.0140845
EXTRACT: note_on channel=4 note=59 velocity=0 time=0
EXTRACT: note_on channel=4 note=64 velocity=0 time=0
EXTRACT: note_on channel=1 note=61 velocity=0 time=0.00704225
EXTRACT: note_on channel=3 note=76 velocity=112 time=0
EXTRACT: note_on channel=4 note=52 velocity=73 time=0.028169
EXTRACT: note_on channel=1 note=68 velocity=0 time=0.028169
EXTRACT: note_on channel=4 note=56 velocity=73 time=0.0704225
EXTRACT: note_on channel=1 note=61 velocity=73 time=0.03521125
EXTRACT: note_on channel=1 note=52 velocity=73 time=0.02112675
EXTRACT: note_on channel=1 note=56 velocity=73 time=0.02112675
EXTRACT: note_on channel=3 note=76 velocity=0 time=0
EXTRACT: note_on channel=0 note=68 velocity=0 time=0.00704225
EXTRACT: note_on channel=0 note=56 velocity=0 time=0
EXTRACT: note_on channel=0 note=61 velocity=0 time=0
EXTRACT: note_on channel=0 note=64 velocity=0 time=0
EXTRACT: note_on channel=0 note=56 velocity=87 time=0
EXTRACT: note_on channel=0 note=61 velocity=87 time=0
EXTRACT: note_on channel=0 note=64 velocity=87 time=0
EXTRACT: note_on channel=0 note=68 velocity=87 time=0
EXTRACT: note_on channel=1 note=68 velocity=73 time=0
EXTRACT: note_on channel=2 note=44 velocity=0 time=0
EXTRACT: note_on channel=2 note=52 velocity=0 time=0
EXTRACT: note_on channel=2 note=61 velocity=73 time=0
EXTRACT: note_on channel=2 note=52 velocity=73 time=0
EXTRACT: note_on channel=3 note=76 velocity=112 time=0
EXTRACT: note_on channel=8 note=32 velocity=0 time=0
EXTRACT: note_on channel=8 note=37 velocity=123 time=0
EXTRACT: note_on channel=9 note=33 velocity=127 time=0
EXTRACT: note_on channel=9 note=46 velocity=100 time=0
EXTRACT: note_on channel=4 note=61 velocity=73 time=0.02112675
EXTRACT: note_on channel=4 note=64 velocity=73 time=0.04929575
EXTRACT: note_on channel=9 note=46 velocity=0 time=0.03521125
EXTRACT: note_on channel=9 note=33 velocity=0 time=0
EXTRACT: note_on channel=3 note=76 velocity=0 time=0.31690125
EXTRACT: note_on channel=3 note=64 velocity=112 time=0
EXTRACT: note_on channel=9 note=51 velocity=127 time=0
EXTRACT: note_on channel=9 note=46 velocity=100 time=0
EXTRACT: note_on channel=9 note=51 velocity=127 time=0
EXTRACT: note_on channel=9 note=51 velocity=0 time=0.10563375
EXTRACT: note_on channel=9 note=46 velocity=0 time=0
EXTRACT: note_on channel=9 note=51 velocity=0 time=0
EXTRACT: note_on channel=0 note=68 velocity=0 time=0.31690125
EXTRACT: note_on channel=0 note=56 velocity=0 time=0
EXTRACT: note_on channel=0 note=61 velocity=0 time=0
EXTRACT: note_on channel=0 note=64 velocity=0 time=0
EXTRACT: note_on channel=0 note=56 velocity=87 time=0
EXTRACT: note_on channel=0 note=61 velocity=87 time=0
EXTRACT: note_on channel=0 note=64 velocity=87 time=0
EXTRACT: note_on channel=0 note=68 velocity=87 time=0
EXTRACT: note_on channel=3 note=64 velocity=0 time=0
EXTRACT: note_on channel=3 note=76 velocity=112 time=0
EXTRACT: note_on channel=8 note=37 velocity=0 time=0
EXTRACT: note_on channel=8 note=37 velocity=123 time=0
EXTRACT: note_on channel=9 note=46 velocity=100 time=0
EXTRACT: note_on channel=9 note=33 velocity=127 time=0
EXTRACT: note_on channel=9 note=31 velocity=127 time=0
EXTRACT: note_on channel=10 note=31 velocity=73 time=0
EXTRACT: note_on channel=9 note=31 velocity=0 time=0.10563375
EXTRACT: note_on channel=9 note=33 velocity=0 time=0
EXTRACT: note_on channel=9 note=46 velocity=0 time=0
EXTRACT: note_on channel=10 note=31 velocity=0 time=0
EXTRACT: note_on channel=3 note=76 velocity=0 time=0.31690125
EXTRACT: note_on channel=3 note=64 velocity=112 time=0
EXTRACT: note_on channel=9 note=46 velocity=100 time=0
EXTRACT: note_on channel=9 note=46 velocity=0 time=0.10563375
EXTRACT: note_on channel=1 note=61 velocity=0 time=0.0985915
EXTRACT: note_on channel=9 note=33 velocity=127 time=0.00704225
EXTRACT: note_on channel=1 note=52 velocity=0 time=0.0140845
EXTRACT: note_on channel=1 note=56 velocity=0 time=0.02112675
EXTRACT: note_on channel=1 note=68 velocity=0 time=0.00704225
EXTRACT: note_on channel=4 note=64 velocity=0 time=0.0140845
EXTRACT: note_on channel=4 note=56 velocity=0 time=0.02112675
EXTRACT: note_on channel=4 note=52 velocity=0 time=0.028169
EXTRACT: note_on channel=9 note=33 velocity=0 time=0
EXTRACT: note_on channel=1 note=64 velocity=73 time=0.056338
EXTRACT: note_on channel=1 note=57 velocity=73 time=0.00704225
EXTRACT: note_on channel=1 note=69 velocity=73 time=0.0140845
EXTRACT: note_on channel=4 note=59 velocity=73 time=0.00704225
EXTRACT: note_on channel=4 note=61 velocity=0 time=0.00704225
EXTRACT: note_on channel=0 note=68 velocity=0 time=0.0140845
EXTRACT: note_on channel=0 note=56 velocity=0 time=0
EXTRACT: note_on channel=0 note=61 velocity=0 time=0
EXTRACT: note_on channel=0 note=64 velocity=0 time=0
EXTRACT: note_on channel=0 note=69 velocity=87 time=0
EXTRACT: note_on channel=0 note=56 velocity=87 time=0
EXTRACT: note_on channel=0 note=62 velocity=87 time=0
EXTRACT: note_on channel=2 note=52 velocity=0 time=0
EXTRACT: note_on channel=2 note=61 velocity=0 time=0
EXTRACT: note_on channel=2 note=61 velocity=73 time=0
EXTRACT: note_on channel=3 note=64 velocity=0 time=0
EXTRACT: note_on channel=3 note=71 velocity=112 time=0
EXTRACT: note_on channel=4 note=64 velocity=73 time=0
EXTRACT: note_on channel=8 note=37 velocity=0 time=0
EXTRACT: note_on channel=8 note=37 velocity=123 time=0
EXTRACT: note_on channel=9 note=46 velocity=100 time=0
EXTRACT: note_on channel=1 note=61 velocity=73 time=0.04929575
EXTRACT: note_on channel=9 note=46 velocity=0 time=0.056338
EXTRACT: note_on channel=9 note=33 velocity=127 time=0.10563375
EXTRACT: note_on channel=9 note=33 velocity=0 time=0.10563375
EXTRACT: note_on channel=0 note=62 velocity=0 time=0.10563375
EXTRACT: note_on channel=0 note=64 velocity=87 time=0
EXTRACT: note_on channel=2 note=61 velocity=0 time=0
EXTRACT: note_on channel=2 note=59 velocity=73 time=0
EXTRACT: note_on channel=2 note=62 velocity=73 time=0
EXTRACT: note_on channel=3 note=71 velocity=0 time=0
EXTRACT: note_on channel=3 note=73 velocity=112 time=0
EXTRACT: note_on channel=8 note=37 velocity=0 time=0
EXTRACT: note_on channel=8 note=40 velocity=123 time=0
EXTRACT: note_on channel=9 note=33 velocity=127 time=0
EXTRACT: note_on channel=9 note=46 velocity=100 time=0
EXTRACT: note_on channel=9 note=46 velocity=100 time=0
EXTRACT: note_on channel=9 note=46 velocity=0 time=0.10563375
EXTRACT: note_on channel=9 note=46 velocity=0 time=0
EXTRACT: note_on channel=9 note=33 velocity=0 time=0
EXTRACT: note_on channel=8 note=40 velocity=0 time=0.10563375
EXTRACT: note_on channel=8 note=40 velocity=123 time=0
EXTRACT: note_on channel=0 note=64 velocity=0 time=0.2112675
EXTRACT: note_on channel=0 note=56 velocity=0 time=0
EXTRACT: note_on channel=0 note=69 velocity=0 time=0
EXTRACT: note_on channel=0 note=69 velocity=87 time=0
EXTRACT: note_on channel=0 note=56 velocity=87 time=0
EXTRACT: note_on channel=0 note=62 velocity=87 time=0
EXTRACT: note_on channel=2 note=62 velocity=0 time=0
EXTRACT: note_on channel=2 note=59 velocity=0 time=0
EXTRACT: note_on channel=2 note=61 velocity=73 time=0
EXTRACT: note_on channel=3 note=73 velocity=0 time=0
EXTRACT: note_on channel=3 note=71 velocity=112 time=0
EXTRACT: note_on channel=8 note=40 velocity=0 time=0
EXTRACT: note_on channel=8 note=40 velocity=123 time=0
EXTRACT: note_on channel=9 note=31 velocity=127 time=0
EXTRACT: note_on channel=9 note=33 velocity=127 time=0
EXTRACT: note_on channel=9 note=46 velocity=100 time=0
EXTRACT: note_on channel=10 note=31 velocity=73 time=0
EXTRACT: note_on channel=9 note=46 velocity=0 time=0.10563375
EXTRACT: note_on channel=9 note=33 velocity=0 time=0
EXTRACT: note_on channel=9 note=31 velocity=0 time=0
EXTRACT: note_on channel=10 note=31 velocity=0 time=0
EXTRACT: control_change channel=4 control=10 value=110 time=0.03521125
EXTRACT: control_change channel=3 control=94 value=31 time=0.07746475
EXTRACT: control_change channel=8 control=91 value=0 time=0.04929575
EXTRACT: control_change channel=3 control=11 value=106 time=0.03521125
EXTRACT: control_change channel=4 control=72 value=104 time=0
EXTRACT: note_on channel=0 note=62 velocity=0 time=0.11971825
EXTRACT: note_on channel=0 note=64 velocity=87 time=0
EXTRACT: note_on channel=2 note=61 velocity=0 time=0
EXTRACT: note_on channel=2 note=59 velocity=73 time=0
EXTRACT: note_on channel=2 note=62 velocity=73 time=0
EXTRACT: note_on channel=3 note=71 velocity=0 time=0
EXTRACT: note_on channel=3 note=73 velocity=112 time=0
EXTRACT: note_on channel=8 note=40 velocity=0 time=0
EXTRACT: note_on channel=8 note=40 velocity=123 time=0
EXTRACT: note_on channel=9 note=46 velocity=100 time=0
EXTRACT: note_on channel=9 note=51 velocity=127 time=0
EXTRACT: note_on channel=9 note=51 velocity=0 time=0.10563375
EXTRACT: note_on channel=9 note=46 velocity=0 time=0
EXTRACT: control_change channel=3 control=72 value=107 time=0.02112675
EXTRACT: note_on channel=4 note=59 velocity=0 time=0.04929575
EXTRACT: note_on channel=4 note=64 velocity=0 time=0.02112675
EXTRACT: note_on channel=1 note=64 velocity=0 time=0.00704225
EXTRACT: note_on channel=1 note=57 velocity=0 time=0.00704225
EXTRACT: note_on channel=3 note=73 velocity=0 time=0
EXTRACT: note_on channel=3 note=76 velocity=112 time=0
EXTRACT: note_on channel=4 note=52 velocity=73 time=0.00704225
EXTRACT: note_on channel=1 note=69 velocity=0 time=0.00704225
EXTRACT: note_on channel=1 note=61 velocity=0 time=0.07746475
EXTRACT: note_on channel=4 note=57 velocity=73 time=0.0140845
EXTRACT: note_on channel=1 note=69 velocity=73 time=0.07746475
EXTRACT: note_on channel=0 note=64 velocity=0 time=0.028169
EXTRACT: note_on channel=0 note=56 velocity=0 time=0
EXTRACT: note_on channel=0 note=69 velocity=0 time=0
EXTRACT: note_on channel=0 note=57 velocity=84 time=0
EXTRACT: note_on channel=0 note=61 velocity=84 time=0
EXTRACT: note_on channel=0 note=64 velocity=84 time=0
EXTRACT: note_on channel=0 note=69 velocity=84 time=0
EXTRACT: note_on channel=1 note=64 velocity=73 time=0
EXTRACT: note_on channel=2 note=62 velocity=0 time=0
EXTRACT: note_on channel=2 note=59 velocity=0 time=0
EXTRACT: note_on channel=2 note=52 velocity=73 time=0
EXTRACT: note_on channel=2 note=45 velocity=73 time=0
EXTRACT: note_on channel=3 note=76 velocity=0 time=0
EXTRACT: note_on channel=3 note=76 velocity=112 time=0
EXTRACT: note_on channel=4 note=61 velocity=73 time=0
EXTRACT: note_on channel=8 note=40 velocity=0 time=0
EXTRACT: note_on channel=8 note=33 velocity=123 time=0
EXTRACT: note_on channel=9 note=33 velocity=127 time=0
EXTRACT: note_on channel=9 note=46 velocity=100 time=0
EXTRACT: note_on channel=9 note=57 velocity=100 time=0
EXTRACT: note_on channel=1 note=61 velocity=73 time=0.02112675
EXTRACT: note_on channel=4 note=64 velocity=73 time=0.028169
EXTRACT: note_on channel=1 note=57 velocity=73 time=0.02112675
EXTRACT: note_on channel=9 note=57 velocity=0 time=0.03521125
EXTRACT: note_on channel=9 note=46 velocity=0 time=0
EXTRACT: note_on channel=9 note=33 velocity=0 time=0
EXTRACT: note_on channel=3 note=76 velocity=0 time=0.31690125
EXTRACT: note_on channel=3 note=64 velocity=112 time=0
EXTRACT: note_on channel=9 note=51 velocity=127 time=0
EXTRACT: note_on channel=9 note=46 velocity=100 time=0
EXTRACT: note_on channel=9 note=46 velocity=0 time=0.10563375
EXTRACT: note_on channel=9 note=51 velocity=0 time=0
EXTRACT: note_on channel=0 note=69 velocity=0 time=0.31690125
EXTRACT: note_on channel=0 note=57 velocity=0 time=0
EXTRACT: note_on channel=0 note=61 velocity=0 time=0
EXTRACT: note_on channel=0 note=64 velocity=0 time=0
EXTRACT: note_on channel=0 note=57 velocity=87 time=0
EXTRACT: note_on channel=0 note=61 velocity=87 time=0
EXTRACT: note_on channel=0 note=64 velocity=87 time=0
EXTRACT: note_on channel=0 note=69 velocity=87 time=0
EXTRACT: note_on channel=3 note=64 velocity=0 time=0
EXTRACT: note_on channel=3 note=76 velocity=112 time=0
EXTRACT: note_on channel=8 note=33 velocity=0 time=0
EXTRACT: note_on channel=8 note=33 velocity=123 time=0
EXTRACT: note_on channel=9 note=31 velocity=127 time=0
EXTRACT: note_on channel=9 note=33 velocity=127 time=0
EXTRACT: note_on channel=9 note=46 velocity=100 time=0
EXTRACT: note_on channel=10 note=31 velocity=73 time=0
EXTRACT: note_on channel=9 note=46 velocity=0 time=0.10563375
EXTRACT: note_on channel=9 note=33 velocity=0 time=0
EXTRACT: note_on channel=9 note=31 velocity=0 time=0
EXTRACT: note_on channel=10 note=31 velocity=0 time=0
EXTRACT: note_on channel=3 note=76 velocity=0 time=0.31690125
EXTRACT: note_on channel=3 note=64 velocity=112 time=0
EXTRACT: note_on channel=9 note=46 velocity=100 time=0
EXTRACT: note_on channel=9 note=46 velocity=0 time=0.10563375
EXTRACT: note_on channel=8 note=33 velocity=0 time=0.10563375
EXTRACT: note_on channel=8 note=33 velocity=123 time=0
EXTRACT: note_on channel=9 note=33 velocity=127 time=0
EXTRACT: note_on channel=1 note=69 velocity=0 time=0.0140845
EXTRACT: note_on channel=1 note=64 velocity=0 time=0.028169
EXTRACT: note_on channel=4 note=57 velocity=0 time=0.0140845
EXTRACT: note_on channel=1 note=61 velocity=0 time=0.00704225
EXTRACT: note_on channel=4 note=52 velocity=0 time=0.02112675
EXTRACT: note_on channel=9 note=33 velocity=0 time=0.02112675
EXTRACT: note_on channel=1 note=57 velocity=0 time=0.00704225
EXTRACT: note_on channel=1 note=57 velocity=73 time=0.03521125
EXTRACT: note_on channel=1 note=66 velocity=73 time=0.00704225
EXTRACT: note_on channel=4 note=52 velocity=73 time=0
EXTRACT: note_on channel=1 note=61 velocity=73 time=0.0140845
EXTRACT: note_on channel=4 note=61 velocity=0 time=0.00704225
EXTRACT: note_on channel=4 note=59 velocity=73 time=0
EXTRACT: note_on channel=0 note=69 velocity=0 time=0.03521125
EXTRACT: note_on channel=0 note=57 velocity=0 time=0
EXTRACT: note_on channel=0 note=61 velocity=0 time=0
EXTRACT: note_on channel=0 note=64 velocity=0 time=0
EXTRACT: note_on channel=0 note=54 velocity=87 time=0
EXTRACT: note_on channel=0 note=61 velocity=87 time=0
EXTRACT: note_on channel=0 note=66 velocity=87 time=0
EXTRACT: note_on channel=0 note=69 velocity=87 time=0
EXTRACT: note_on channel=2 note=45 velocity=0 time=0
EXTRACT: note_on channel=2 note=52 velocity=0 time=0
EXTRACT: note_on channel=2 note=54 velocity=73 time=0
EXTRACT: note_on channel=2 note=44 velocity=73 time=0
EXTRACT: note_on channel=3 note=64 velocity=0 time=0
EXTRACT: note_on channel=3 note=71 velocity=112 time=0
EXTRACT: note_on channel=8 note=33 velocity=0 time=0
EXTRACT: note_on channel=8 note=30 velocity=123 time=0
EXTRACT: note_on channel=9 note=46 velocity=100 time=0
EXTRACT: note_on channel=4 note=64 velocity=73 time=0.00704225
EXTRACT: note_on channel=1 note=69 velocity=73 time=0.00704225
EXTRACT: note_on channel=4 note=64 velocity=0 time=0
EXTRACT: note_on channel=9 note=46 velocity=0 time=0.09154925
EXTRACT: note_on channel=9 note=33 velocity=127 time=0.10563375
EXTRACT: note_on channel=9 note=33 velocity=0 time=0.10563375
EXTRACT: note_on channel=3 note=71 velocity=0 time=0.10563375
EXTRACT: note_on channel=3 note=73 velocity=112 time=0
EXTRACT: note_on channel=9 note=33 velocity=127 time=0
EXTRACT: note_on channel=9 note=46 velocity=100 time=0
EXTRACT: note_on channel=9 note=46 velocity=0 time=0.10563375
EXTRACT: note_on channel=9 note=33 velocity=0 time=0
EXTRACT: note_on channel=0 note=69 velocity=0 time=0.31690125
EXTRACT: note_on channel=0 note=54 velocity=0 time=0
EXTRACT: note_on channel=0 note=61 velocity=0 time=0
EXTRACT: note_on channel=0 note=66 velocity=0 time=0
EXTRACT: note_on channel=0 note=54 velocity=87 time=0
EXTRACT: note_on channel=0 note=61 velocity=87 time=0
EXTRACT: note_on channel=0 note=66 velocity=87 time=0
EXTRACT: note_on channel=0 note=69 velocity=87 time=0
EXTRACT: note_on channel=3 note=73 velocity=0 time=0
EXTRACT: note_on channel=3 note=71 velocity=112 time=0
EXTRACT: note_on channel=8 note=30 velocity=0 time=0
EXTRACT: note_on channel=8 note=30 velocity=123 time=0
EXTRACT: note_on channel=9 note=31 velocity=127 time=0
EXTRACT: note_on channel=9 note=33 velocity=127 time=0
EXTRACT: note_on channel=9 note=46 velocity=100 time=0
EXTRACT: note_on channel=10 note=31 velocity=73 time=0
EXTRACT: note_on channel=9 note=46 velocity=0 time=0.10563375
EXTRACT: note_on channel=9 note=33 velocity=0 time=0
EXTRACT: note_on channel=9 note=31 velocity=0 time=0
EXTRACT: note_on channel=10 note=31 velocity=0 time=0
EXTRACT: note_on channel=3 note=71 velocity=0 time=0.31690125
EXTRACT: note_on channel=3 note=73 velocity=112 time=0
EXTRACT: note_on channel=8 note=30 velocity=0 time=0
EXTRACT: note_on channel=8 note=30 velocity=123 time=0
EXTRACT: note_on channel=9 note=51 velocity=127 time=0
EXTRACT: note_on channel=9 note=46 velocity=100 time=0
EXTRACT: note_on channel=9 note=46 velocity=0 time=0.10563375
EXTRACT: note_on channel=9 note=51 velocity=0 time=0
EXTRACT: note_on channel=4 note=52 velocity=0 time=0.0704225
EXTRACT: note_on channel=1 note=57 velocity=0 time=0.0140845
EXTRACT: note_on channel=1 note=66 velocity=0 time=0.00704225
EXTRACT: note_on channel=4 note=59 velocity=0 time=0.00704225
EXTRACT: note_on channel=4 note=64 velocity=0 time=0
EXTRACT: note_on channel=1 note=61 velocity=0 time=0.00704225
EXTRACT: note_on channel=3 note=73 velocity=0 time=0
EXTRACT: note_on channel=3 note=76 velocity=112 time=0
EXTRACT: note_on channel=4 note=52 velocity=73 time=0.028169
EXTRACT: note_on channel=1 note=69 velocity=0 time=0.028169
EXTRACT: note_on channel=4 note=57 velocity=73 time=0.0704225
EXTRACT: note_on channel=1 note=61 velocity=73 time=0.03521125
EXTRACT: note_on channel=1 note=52 velocity=73 time=0.02112675
EXTRACT: note_on channel=1 note=56 velocity=73 time=0.02112675
EXTRACT: note_on channel=0 note=69 velocity=0 time=0.00704225
EXTRACT: note_on channel=0 note=54 velocity=0 time=0
EXTRACT: note_on channel=0 note=61 velocity=0 time=0
EXTRACT: note_on channel=0 note=66 velocity=0 time=0
EXTRACT: note_on channel=0 note=56 velocity=87 time=0
EXTRACT: note_on channel=0 note=61 velocity=87 time=0
EXTRACT: note_on channel=0 note=64 velocity=87 time=0
EXTRACT: note_on channel=0 note=68 velocity=87 time=0
EXTRACT: note_on channel=1 note=68 velocity=73 time=0
EXTRACT: note_on channel=2 note=44 velocity=0 time=0
EXTRACT: note_on channel=2 note=54 velocity=0 time=0
EXTRACT: note_on channel=2 note=61 velocity=73 time=0
EXTRACT: note_on channel=2 note=52 velocity=73 time=0
EXTRACT: note_on channel=3 note=76 velocity=0 time=0
EXTRACT: note_on channel=3 note=76 velocity=112 time=0
EXTRACT: note_on channel=8 note=30 velocity=0 time=0
EXTRACT: note_on channel=8 note=37 velocity=123 time=0
EXTRACT: note_on channel=9 note=33 velocity=127 time=0
EXTRACT: note_on channel=9 note=46 velocity=100 time=0
EXTRACT: note_on channel=4 note=61 velocity=73 time=0.02112675
EXTRACT: note_on channel=4 note=64 velocity=73 time=0.04929575
EXTRACT: note_on channel=9 note=46 velocity=0 time=0.03521125
EXTRACT: note_on channel=9 note=33 velocity=0 time=0
EXTRACT: note_on channel=3 note=76 velocity=0 time=0.31690125
EXTRACT: note_on channel=3 note=64 velocity=112 time=0
EXTRACT: note_on channel=9 note=51 velocity=127 time=0
EXTRACT: note_on channel=9 note=46 velocity=100 time=0
EXTRACT: note_on channel=9 note=46 velocity=0 time=0.10563375
EXTRACT: note_on channel=9 note=51 velocity=0 time=0
EXTRACT: note_on channel=0 note=68 velocity=0 time=0.31690125
EXTRACT: note_on channel=0 note=56 velocity=0 time=0
EXTRACT: note_on channel=0 note=61 velocity=0 time=0
EXTRACT: note_on channel=0 note=64 velocity=0 time=0
EXTRACT: note_on channel=0 note=56 velocity=87 time=0
EXTRACT: note_on channel=0 note=61 velocity=87 time=0
EXTRACT: note_on channel=0 note=64 velocity=87 time=0
EXTRACT: note_on channel=0 note=68 velocity=87 time=0
EXTRACT: note_on channel=3 note=64 velocity=0 time=0
EXTRACT: note_on channel=3 note=76 velocity=112 time=0
EXTRACT: note_on channel=8 note=37 velocity=0 time=0
EXTRACT: note_on channel=8 note=37 velocity=123 time=0
EXTRACT: note_on channel=9 note=31 velocity=127 time=0
EXTRACT: note_on channel=9 note=33 velocity=127 time=0
EXTRACT: note_on channel=9 note=46 velocity=100 time=0
EXTRACT: note_on channel=10 note=31 velocity=73 time=0
EXTRACT: note_on channel=9 note=46 velocity=0 time=0.10563375
EXTRACT: note_on channel=9 note=33 velocity=0 time=0
EXTRACT: note_on channel=9 note=31 velocity=0 time=0
EXTRACT: note_on channel=10 note=31 velocity=0 time=0
EXTRACT: note_on channel=3 note=76 velocity=0 time=0.31690125
EXTRACT: pitchwheel channel=3 pitch=384 time=0
EXTRACT: note_on channel=3 note=71 velocity=112 time=0
EXTRACT: note_on channel=9 note=46 velocity=100 time=0
EXTRACT: pitchwheel channel=3 pitch=640 time=0.00704225
EXTRACT: pitchwheel channel=3 pitch=896 time=0.028169
EXTRACT: pitchwheel channel=3 pitch=1024 time=0.0140845
EXTRACT: pitchwheel channel=3 pitch=1280 time=0.02112675
EXTRACT: pitchwheel channel=3 pitch=1408 time=0.0140845
EXTRACT: pitchwheel channel=3 pitch=1664 time=0.02112675
EXTRACT: note_on channel=9 note=46 velocity=0 time=0
EXTRACT: pitchwheel channel=3 pitch=1920 time=0.00704225
EXTRACT: pitchwheel channel=3 pitch=2688 time=0.04929575
EXTRACT: pitchwheel channel=3 pitch=2944 time=0.00704225
EXTRACT: pitchwheel channel=3 pitch=3712 time=0.02112675
EXTRACT: pitchwheel channel=3 pitch=4224 time=0.00704225
EXTRACT: note_on channel=1 note=61 velocity=0 time=0.00704225
EXTRACT: pitchwheel channel=3 pitch=4992 time=0
EXTRACT: pitchwheel channel=3 pitch=5120 time=0.00704225
EXTRACT: note_on channel=9 note=33 velocity=127 time=0
EXTRACT: pitchwheel channel=3 pitch=5376 time=0.00704225
EXTRACT: note_on channel=1 note=52 velocity=0 time=0.00704225
EXTRACT: pitchwheel channel=3 pitch=5632 time=0.00704225
EXTRACT: note_on channel=1 note=56 velocity=0 time=0.0140845
EXTRACT: pitchwheel channel=3 pitch=5888 time=0
EXTRACT: note_on channel=1 note=68 velocity=0 time=0.00704225
EXTRACT: pitchwheel channel=3 pitch=6144 time=0
EXTRACT: pitchwheel channel=3 pitch=6400 time=0.00704225
EXTRACT: note_on channel=4 note=64 velocity=0 time=0.00704225
EXTRACT: pitchwheel channel=3 pitch=6656 time=0.00704225
EXTRACT: pitchwheel channel=3 pitch=6912 time=0.0140845
EXTRACT: note_on channel=4 note=57 velocity=0 time=0
EXTRACT: pitchwheel channel=3 pitch=7168 time=0.00704225
EXTRACT: pitchwheel channel=3 pitch=7424 time=0.00704225
EXTRACT: pitchwheel channel=3 pitch=7552 time=0.0140845
EXTRACT: note_on channel=4 note=52 velocity=0 time=0
EXTRACT: note_on channel=9 note=33 velocity=0 time=0
EXTRACT: pitchwheel channel=3 pitch=7680 time=0.00704225
EXTRACT: pitchwheel channel=3 pitch=7936 time=0.00704225
EXTRACT: pitchwheel channel=3 pitch=8191 time=0.00704225
EXTRACT: note_on channel=1 note=64 velocity=73 time=0.03521125
EXTRACT: note_on channel=1 note=52 velocity=73 time=0.00704225
EXTRACT: note_on channel=1 note=69 velocity=73 time=0.0140845
EXTRACT: note_on channel=4 note=52 velocity=73 time=0.00704225
EXTRACT: note_on channel=4 note=61 velocity=0 time=0.00704225
EXTRACT: note_on channel=0 note=68 velocity=0 time=0.0140845
EXTRACT: note_on channel=0 note=56 velocity=0 time=0
EXTRACT: note_on channel=0 note=61 velocity=0 time=0
EXTRACT: note_on channel=0 note=64 velocity=0 time=0
EXTRACT: note_on channel=0 note=69 velocity=87 time=0
EXTRACT: note_on channel=0 note=59 velocity=87 time=0
EXTRACT: note_on channel=0 note=64 velocity=87 time=0
EXTRACT: note_on channel=2 note=52 velocity=0 time=0
EXTRACT: note_on channel=2 note=61 velocity=0 time=0
EXTRACT: note_on channel=2 note=61 velocity=73 time=0
EXTRACT: note_on channel=3 note=71 velocity=0 time=0
EXTRACT: note_on channel=3 note=71 velocity=112 time=0
EXTRACT: note_on channel=4 note=56 velocity=73 time=0
EXTRACT: note_on channel=4 note=59 velocity=73 time=0
EXTRACT: note_on channel=4 note=64 velocity=73 time=0
EXTRACT: note_on channel=8 note=37 velocity=0 time=0
EXTRACT: note_on channel=8 note=40 velocity=123 time=0
EXTRACT: note_on channel=9 note=46 velocity=100 time=0
EXTRACT: pitchwheel channel=3 pitch=128 time=0.00704225
EXTRACT: pitchwheel channel=3 pitch=0 time=0.028169
EXTRACT: note_on channel=1 note=59 velocity=73 time=0.0140845
EXTRACT: note_on channel=9 note=46 velocity=0 time=0.056338
EXTRACT: note_on channel=9 note=33 velocity=127 time=0.10563375
EXTRACT: note_on channel=9 note=33 velocity=0 time=0.10563375
EXTRACT: note_on channel=0 note=64 velocity=0 time=0.10563375
EXTRACT: note_on channel=0 note=64 velocity=87 time=0
EXTRACT: note_on channel=2 note=61 velocity=0 time=0
EXTRACT: note_on channel=2 note=59 velocity=73 time=0
EXTRACT: note_on channel=2 note=62 velocity=73 time=0
EXTRACT: note_on channel=3 note=71 velocity=0 time=0
EXTRACT: note_on channel=3 note=73 velocity=112 time=0
EXTRACT: note_on channel=8 note=40 velocity=0 time=0
EXTRACT: note_on channel=8 note=40 velocity=123 time=0
EXTRACT: note_on channel=9 note=33 velocity=127 time=0
EXTRACT: note_on channel=9 note=46 velocity=100 time=0
EXTRACT: note_on channel=9 note=46 velocity=0 time=0.10563375
EXTRACT: note_on channel=9 note=33 velocity=0 time=0
EXTRACT: note_on channel=8 note=40 velocity=0 time=0.10563375
EXTRACT: note_on channel=8 note=40 velocity=123 time=0
EXTRACT: note_on channel=0 note=64 velocity=0 time=0.2112675
EXTRACT: note_on channel=0 note=59 velocity=0 time=0
EXTRACT: note_on channel=0 note=69 velocity=0 time=0
EXTRACT: note_on channel=0 note=69 velocity=87 time=0
EXTRACT: note_on channel=0 note=59 velocity=87 time=0
EXTRACT: note_on channel=0 note=64 velocity=87 time=0
EXTRACT: note_on channel=2 note=62 velocity=0 time=0
EXTRACT: note_on channel=2 note=59 velocity=0 time=0
EXTRACT: note_on channel=2 note=61 velocity=73 time=0
EXTRACT: note_on channel=3 note=73 velocity=0 time=0
EXTRACT: note_on channel=3 note=71 velocity=112 time=0
EXTRACT: note_on channel=8 note=40 velocity=0 time=0
EXTRACT: note_on channel=8 note=40 velocity=123 time=0
EXTRACT: note_on channel=9 note=31 velocity=127 time=0
EXTRACT: note_on channel=9 note=33 velocity=127 time=0
EXTRACT: note_on channel=9 note=46 velocity=100 time=0
EXTRACT: note_on channel=10 note=31 velocity=73 time=0
EXTRACT: note_on channel=9 note=46 velocity=0 time=0.10563375
EXTRACT: note_on channel=9 note=33 velocity=0 time=0
EXTRACT: note_on channel=9 note=31 velocity=0 time=0
EXTRACT: note_on channel=10 note=31 velocity=0 time=0
EXTRACT: note_on channel=0 note=64 velocity=0 time=0.31690125
EXTRACT: note_on channel=0 note=64 velocity=87 time=0
EXTRACT: note_on channel=2 note=61 velocity=0 time=0
EXTRACT: note_on channel=2 note=59 velocity=73 time=0
EXTRACT: note_on channel=2 note=62 velocity=73 time=0
EXTRACT: note_on channel=3 note=71 velocity=0 time=0
EXTRACT: note_on channel=3 note=73 velocity=112 time=0
EXTRACT: note_on channel=8 note=40 velocity=0 time=0
EXTRACT: note_on channel=8 note=40 velocity=123 time=0
EXTRACT: note_on channel=9 note=51 velocity=127 time=0
EXTRACT: note_on channel=9 note=46 velocity=100 time=0
EXTRACT: note_on channel=9 note=46 velocity=0 time=0.10563375
EXTRACT: note_on channel=9 note=51 velocity=0 time=0
EXTRACT: control_change channel=11 control=71 value=87 time=0.04929575
EXTRACT: control_change channel=6 control=93 value=68 time=0.0140845
EXTRACT: note_on channel=4 note=52 velocity=0 time=0.00704225
EXTRACT: note_on channel=4 note=56 velocity=0 time=0.02112675
EXTRACT: note_on channel=4 note=59 velocity=0 time=0
EXTRACT: note_on channel=4 note=64 velocity=0 time=0
EXTRACT: note_on channel=1 note=64 velocity=0 time=0.00704225
EXTRACT: note_on channel=1 note=52 velocity=0 time=0.00704225
EXTRACT: note_on channel=1 note=69 velocity=0 time=0.0140845
EXTRACT: control_change channel=9 control=99 value=28 time=0.0140845
EXTRACT: control_change channel=9 control=98 value=82 time=0
EXTRACT: control_change channel=9 control=6 value=46 time=0
EXTRACT: control_change channel=9 control=38 value=127 time=0
EXTRACT: control_change channel=5 control=93 value=48 time=0.0140845
EXTRACT: note_on channel=1 note=59 velocity=0 time=0.04929575
EXTRACT: note_on channel=1 note=61 velocity=80 time=0.07746475
EXTRACT: note_on channel=1 note=52 velocity=80 time=0.00704225
EXTRACT: note_on channel=1 note=57 velocity=80 time=0
EXTRACT: note_on channel=0 note=57 velocity=80 time=0.028169
EXTRACT: note_on channel=0 note=64 velocity=0 time=0.00704225
EXTRACT: note_on channel=0 note=69 velocity=0 time=0
EXTRACT: note_on channel=0 note=59 velocity=0 time=0
EXTRACT: note_on channel=2 note=62 velocity=0 time=0
EXTRACT: note_on channel=2 note=59 velocity=0 time=0
EXTRACT: note_on channel=2 note=64 velocity=58 time=0
EXTRACT: note_on channel=3 note=73 velocity=0 time=0
EXTRACT: note_on channel=3 note=69 velocity=96 time=0
EXTRACT: note_on channel=5 note=64 velocity=78 time=0
EXTRACT: note_on channel=5 note=73 velocity=78 time=0
EXTRACT: note_on channel=5 note=69 velocity=78 time=0
EXTRACT: note_on channel=8 note=40 velocity=0 time=0
EXTRACT: note_on channel=8 note=33 velocity=123 time=0
EXTRACT: note_on channel=9 note=33 velocity=127 time=0
EXTRACT: note_on channel=9 note=57 velocity=100 time=0
EXTRACT: note_on channel=9 note=44 velocity=80 time=0
EXTRACT: note_on channel=0 note=61 velocity=80 time=0.00704225
EXTRACT: note_on channel=0 note=64 velocity=80 time=0
EXTRACT: note_on channel=9 note=44 velocity=0 time=0.0985915
EXTRACT: note_on channel=9 note=57 velocity=0 time=0
EXTRACT: note_on channel=9 note=33 velocity=0 time=0
EXTRACT: note_on channel=9 note=82 velocity=35 time=0.10563375
EXTRACT: control_change channel=11 control=74 value=39 time=0
EXTRACT: note_on channel=9 note=82 velocity=0 time=0.10563375
EXTRACT: note_on channel=9 note=44 velocity=80 time=0.10563375
EXTRACT: control_change channel=11 control=93 value=37 time=0.02112675
EXTRACT: note_on channel=9 note=44 velocity=0 time=0.084507
EXTRACT: control_change channel=11 control=94 value=41 time=0
EXTRACT: control_change channel=11 control=1 value=29 time=0.00704225
EXTRACT: note_on channel=9 note=82 velocity=35 time=0.0985915
EXTRACT: note_on channel=9 note=82 velocity=0 time=0.10563375
EXTRACT: note_on channel=0 note=57 velocity=0 time=0.0985915
EXTRACT: note_on channel=3 note=69 velocity=0 time=0.00704225
EXTRACT: note_on channel=8 note=33 velocity=0 time=0
EXTRACT: note_on channel=8 note=33 velocity=123 time=0
EXTRACT: note_on channel=9 note=31 velocity=127 time=0
EXTRACT: note_on channel=9 note=33 velocity=127 time=0
EXTRACT: note_on channel=9 note=44 velocity=80 time=0
EXTRACT: note_on channel=10 note=31 velocity=73 time=0
EXTRACT: note_on channel=0 note=64 velocity=0 time=0.00704225
EXTRACT: note_on channel=0 note=61 velocity=0 time=0
EXTRACT: pitchwheel channel=11 pitch=-8064 time=0.00704225
EXTRACT: note_on channel=11 note=61 velocity=127 time=0
EXTRACT: pitchwheel channel=11 pitch=-7680 time=0.00704225
EXTRACT: pitchwheel channel=11 pitch=-7296 time=0.00704225
EXTRACT: pitchwheel channel=11 pitch=-7040 time=0.00704225
EXTRACT: pitchwheel channel=11 pitch=-6656 time=0.00704225
EXTRACT: pitchwheel channel=11 pitch=-6272 time=0.0140845
EXTRACT: pitchwheel channel=11 pitch=-6016 time=0.00704225
EXTRACT: pitchwheel channel=11 pitch=-5632 time=0.00704225
EXTRACT: pitchwheel channel=11 pitch=-5376 time=0.00704225
EXTRACT: pitchwheel channel=11 pitch=-4992 time=0.00704225
EXTRACT: pitchwheel channel=11 pitch=-4608 time=0.0140845
EXTRACT: note_on channel=9 note=44 velocity=0 time=0.00704225
EXTRACT: note_on channel=9 note=33 velocity=0 time=0
EXTRACT: note_on channel=9 note=31 velocity=0 time=0
EXTRACT: note_on channel=10 note=31 velocity=0 time=0
EXTRACT: pitchwheel channel=11 pitch=-4352 time=0
EXTRACT: pitchwheel channel=11 pitch=-3968 time=0.00704225
EXTRACT: pitchwheel channel=11 pitch=-3584 time=0.00704225
EXTRACT: pitchwheel channel=11 pitch=-3328 time=0.00704225
EXTRACT: pitchwheel channel=11 pitch=-2944 time=0.0140845
EXTRACT: pitchwheel channel=11 pitch=-2688 time=0.00704225
EXTRACT: pitchwheel channel=11 pitch=-2304 time=0.00704225
EXTRACT: pitchwheel channel=11 pitch=-1920 time=0.00704225
EXTRACT: pitchwheel channel=11 pitch=-1664 time=0.00704225
EXTRACT: pitchwheel channel=11 pitch=-1280 time=0.0140845
EXTRACT: pitchwheel channel=11 pitch=-896 time=0.00704225
EXTRACT: pitchwheel channel=11 pitch=-640 time=0.00704225
EXTRACT: pitchwheel channel=11 pitch=-256 time=0.00704225
EXTRACT: note_on channel=9 note=82 velocity=35 time=0.00704225
EXTRACT: pitchwheel channel=11 pitch=0 time=0
EXTRACT: note_on channel=11 note=61 velocity=0 time=0.0704225
EXTRACT: note_on channel=11 note=61 velocity=127 time=0
EXTRACT: control_change channel=11 control=11 value=126 time=0
EXTRACT: pitchwheel channel=11 pitch=-8064 time=0
EXTRACT: pitchwheel channel=11 pitch=-7680 time=0.00704225
EXTRACT: control_change channel=11 control=11 value=124 time=0.00704225
EXTRACT: pitchwheel channel=11 pitch=-7296 time=0
EXTRACT: pitchwheel channel=11 pitch=-7040 time=0.00704225
EXTRACT: pitchwheel channel=11 pitch=-6656 time=0.00704225
EXTRACT: note_on channel=9 note=82 velocity=0 time=0.00704225
EXTRACT: control_change channel=11 control=11 value=123 time=0.00704225
EXTRACT: pitchwheel channel=11 pitch=-6272 time=0
EXTRACT: control_change channel=11 control=11 value=122 time=0.00704225
EXTRACT: pitchwheel channel=11 pitch=-6016 time=0
EXTRACT: pitchwheel channel=11 pitch=-5632 time=0.00704225
EXTRACT: pitchwheel channel=11 pitch=-5376 time=0.00704225
EXTRACT: pitchwheel channel=11 pitch=-4992 time=0.00704225
EXTRACT: control_change channel=11 control=11 value=119 time=0.0140845
EXTRACT: pitchwheel channel=11 pitch=-4608 time=0
EXTRACT: pitchwheel channel=11 pitch=-4352 time=0.00704225
EXTRACT: control_change channel=11 control=11 value=117 time=0.00704225
EXTRACT: pitchwheel channel=11 pitch=-3968 time=0
EXTRACT: pitchwheel channel=11 pitch=-3584 time=0.00704225
EXTRACT: pitchwheel channel=11 pitch=-3328 time=0.00704225
EXTRACT: pitchwheel channel=11 pitch=-2944 time=0.0140845
EXTRACT: pitchwheel channel=11 pitch=-2688 time=0.00704225
EXTRACT: note_on channel=9 note=44 velocity=80 time=0.00704225
EXTRACT: pitchwheel channel=11 pitch=-2304 time=0
EXTRACT: pitchwheel channel=11 pitch=-1920 time=0.00704225
EXTRACT: control_change channel=11 control=11 value=116 time=0.00704225
EXTRACT: pitchwheel channel=11 pitch=-1664 time=0
EXTRACT: pitchwheel channel=11 pitch=-1280 time=0.0140845
EXTRACT: pitchwheel channel=11 pitch=-896 time=0.00704225
EXTRACT: pitchwheel channel=11 pitch=-640 time=0.00704225
EXTRACT: pitchwheel channel=11 pitch=-256 time=0.00704225
EXTRACT: pitchwheel channel=11 pitch=0 time=0.00704225
EXTRACT: control_change channel=11 control=11 value=114 time=0.00704225
EXTRACT: note_on channel=9 note=44 velocity=0 time=0.0422535
EXTRACT: control_change channel=6 control=1 value=72 time=0.0140845
EXTRACT: control_change channel=11 control=11 value=113 time=0.00704225
EXTRACT: control_change channel=11 control=11 value=112 time=0.0140845
EXTRACT: control_change channel=11 control=11 value=111 time=0.00704225
EXTRACT: control_change channel=11 control=11 value=109 time=0.0140845
EXTRACT: control_change channel=11 control=11 value=108 time=0.02112675
EXTRACT: control_change channel=11 control=11 value=106 time=0.0140845
EXTRACT: note_on channel=1 note=61 velocity=0 time=0.0140845
EXTRACT: note_on channel=8 note=33 velocity=0 time=0
EXTRACT: note_on channel=8 note=33 velocity=123 time=0
EXTRACT: note_on channel=9 note=82 velocity=35 time=0
EXTRACT: note_on channel=9 note=33 velocity=127 time=0
EXTRACT: control_change channel=11 control=11 value=104 time=0
EXTRACT: note_on channel=1 note=57 velocity=0 time=0.00704225
EXTRACT: note_on channel=1 note=52 velocity=0 time=0
EXTRACT: control_change channel=11 control=11 value=103 time=0.0140845
EXTRACT: control_change channel=11 control=11 value=101 time=0.04929575
EXTRACT: control_change channel=11 control=11 value=100 time=0.00704225
EXTRACT: control_change channel=11 control=11 value=99 time=0.00704225
EXTRACT: note_on channel=9 note=33 velocity=0 time=0.02112675
EXTRACT: note_on channel=9 note=82 velocity=0 time=0
EXTRACT: control_change channel=11 control=11 value=98 time=0.00704225
EXTRACT: note_on channel=1 note=52 velocity=80 time=0.00704225
EXTRACT: control_change channel=11 control=11 value=97 time=0
EXTRACT: note_on channel=1 note=56 velocity=80 time=0.00704225
EXTRACT: control_change channel=11 control=11 value=96 time=0
EXTRACT: control_change channel=11 control=11 value=95 time=0.02112675
EXTRACT: note_on channel=1 note=61 velocity=80 time=0.00704225
EXTRACT: control_change channel=6 control=11 value=2 time=0.00704225
EXTRACT: control_change channel=11 control=11 value=94 time=0
EXTRACT: control_change channel=6 control=11 value=3 time=0.00704225
EXTRACT: control_change channel=11 control=11 value=93 time=0
EXTRACT: control_change channel=11 control=11 value=92 time=0.02112675
EXTRACT: control_change channel=6 control=11 value=4 time=0.00704225
EXTRACT: pitchwheel channel=11 pitch=-94 time=0.00704225
EXTRACT: control_change channel=11 control=11 value=98 time=0
EXTRACT: note_on channel=5 note=69 velocity=0 time=0.00704225
EXTRACT: note_on channel=5 note=73 velocity=0 time=0
EXTRACT: note_on channel=5 note=64 velocity=0 time=0
EXTRACT: note_on channel=5 note=64 velocity=78 time=0
EXTRACT: note_on channel=5 note=73 velocity=78 time=0
EXTRACT: note_on channel=5 note=68 velocity=78 time=0
EXTRACT: control_change channel=6 control=11 value=5 time=0
EXTRACT: note_on channel=8 note=33 velocity=0 time=0
EXTRACT: note_on channel=8 note=32 velocity=123 time=0
EXTRACT: note_on channel=9 note=44 velocity=80 time=0
EXTRACT: note_on channel=11 note=61 velocity=0 time=0
EXTRACT: note_on channel=11 note=61 velocity=127 time=0
EXTRACT: pitchwheel channel=11 pitch=-188 time=0
EXTRACT: pitchwheel channel=11 pitch=-469 time=0.0140845
EXTRACT: control_change channel=6 control=11 value=6 time=0.00704225
EXTRACT: control_change channel=11 control=11 value=104 time=0
EXTRACT: control_change channel=11 control=11 value=107 time=0.00704225
EXTRACT: pitchwheel channel=11 pitch=-844 time=0.00704225
EXTRACT: control_change channel=11 control=11 value=108 time=0
EXTRACT: control_change channel=6 control=11 value=7 time=0.00704225
EXTRACT: control_change channel=11 control=11 value=111 time=0
EXTRACT: pitchwheel channel=11 pitch=-1407 time=0.0140845
EXTRACT: control_change channel=11 control=11 value=115 time=0
EXTRACT: control_change channel=6 control=11 value=8 time=0.00704225
EXTRACT: pitchwheel channel=11 pitch=-1454 time=0
EXTRACT: control_change channel=11 control=11 value=118 time=0
EXTRACT: pitchwheel channel=11 pitch=-938 time=0.00704225
EXTRACT: control_change channel=11 control=11 value=119 time=0
EXTRACT: control_change channel=6 control=11 value=9 time=0.00704225
EXTRACT: control_change channel=11 control=11 value=121 time=0
EXTRACT: pitchwheel channel=11 pitch=-563 time=0.00704225
EXTRACT: control_change channel=11 control=11 value=126 time=0
EXTRACT: control_change channel=11 control=11 value=124 time=0.0140845
EXTRACT: control_change channel=6 control=11 value=10 time=0.00704225
EXTRACT: note_on channel=9 note=44 velocity=0 time=0
EXTRACT: pitchwheel channel=11 pitch=-94 time=0
EXTRACT: pitchwheel channel=11 pitch=375 time=0.00704225
EXTRACT: control_change channel=6 control=11 value=11 time=0.00704225
EXTRACT: control_change channel=6 control=11 value=12 time=0.0140845
EXTRACT: note_on channel=6 note=64 velocity=100 time=0.02112675
EXTRACT: control_change channel=6 control=11 value=13 time=0.00704225
EXTRACT: control_change channel=11 control=11 value=123 time=0.00704225
EXTRACT: pitchwheel channel=11 pitch=1312 time=0
EXTRACT: control_change channel=6 control=11 value=14 time=0.00704225
EXTRACT: pitchwheel channel=11 pitch=1406 time=0.00704225
EXTRACT: pitchwheel channel=11 pitch=187 time=0.00704225
EXTRACT: control_change channel=6 control=11 value=15 time=0.00704225
EXTRACT: control_change channel=11 control=11 value=122 time=0
EXTRACT: pitchwheel channel=11 pitch=-985 time=0
EXTRACT: pitchwheel channel=11 pitch=-750 time=0.00704225
EXTRACT: control_change channel=6 control=11 value=16 time=0.00704225
EXTRACT: note_on channel=9 note=33 velocity=49 time=0
EXTRACT: note_on channel=9 note=82 velocity=35 time=0
EXTRACT: pitchwheel channel=11 pitch=-94 time=0.0140845
EXTRACT: pitchwheel channel=11 pitch=468 time=0.00704225
EXTRACT: control_change channel=6 control=11 value=17 time=0.00704225
EXTRACT: pitchwheel channel=11 pitch=562 time=0
EXTRACT: control_change channel=6 control=11 value=18 time=0.0140845
EXTRACT: pitchwheel channel=11 pitch=234 time=0
EXTRACT: control_change channel=11 control=11 value=120 time=0.00704225
EXTRACT: pitchwheel channel=11 pitch=47 time=0.00704225
EXTRACT: control_change channel=6 control=11 value=19 time=0.00704225
EXTRACT: control_change channel=11 control=11 value=119 time=0
EXTRACT: pitchwheel channel=11 pitch=234 time=0.00704225
EXTRACT: pitchwheel channel=11 pitch=609 time=0.00704225
EXTRACT: control_change channel=6 control=11 value=20 time=0.00704225
EXTRACT: control_change channel=11 control=11 value=118 time=0
EXTRACT: pitchwheel channel=11 pitch=890 time=0
EXTRACT: control_change channel=11 control=11 value=117 time=0.00704225
EXTRACT: pitchwheel channel=11 pitch=1172 time=0.00704225
EXTRACT: control_change channel=6 control=11 value=21 time=0.00704225
EXTRACT: note_on channel=9 note=82 velocity=0 time=0
EXTRACT: note_on channel=9 note=33 velocity=0 time=0
EXTRACT: control_change channel=11 control=11 value=116 time=0
EXTRACT: control_change channel=11 control=11 value=115 time=0.00704225
EXTRACT: pitchwheel channel=11 pitch=1265 time=0
EXTRACT: control_change channel=6 control=11 value=22 time=0.00704225
EXTRACT: pitchwheel channel=11 pitch=843 time=0
EXTRACT: pitchwheel channel=11 pitch=797 time=0.00704225
EXTRACT: control_change channel=11 control=11 value=114 time=0.00704225
EXTRACT: control_change channel=6 control=11 value=23 time=0.0140845
EXTRACT: control_change channel=11 control=11 value=113 time=0
EXTRACT: pitchwheel channel=11 pitch=422 time=0
EXTRACT: control_change channel=11 control=11 value=112 time=0.00704225
EXTRACT: pitchwheel channel=11 pitch=-94 time=0
EXTRACT: control_change channel=6 control=11 value=24 time=0.00704225
EXTRACT: pitchwheel channel=11 pitch=47 time=0
EXTRACT: control_change channel=11 control=11 value=111 time=0.00704225
EXTRACT: pitchwheel channel=11 pitch=140 time=0
EXTRACT: control_change channel=6 control=11 value=25 time=0.00704225
EXTRACT: control_change channel=11 control=11 value=110 time=0.00704225
EXTRACT: pitchwheel channel=11 pitch=281 time=0
EXTRACT: pitchwheel channel=11 pitch=187 time=0.00704225
EXTRACT: control_change channel=6 control=11 value=26 time=0.0140845
EXTRACT: pitchwheel channel=11 pitch=0 time=0
EXTRACT: note_on channel=9 note=33 velocity=127 time=0.00704225
EXTRACT: note_on channel=9 note=44 velocity=80 time=0
EXTRACT: control_change channel=11 control=11 value=109 time=0
EXTRACT: control_change channel=6 control=11 value=27 time=0.00704225
EXTRACT: control_change channel=11 control=11 value=108 time=0
EXTRACT: control_change channel=11 control=11 value=107 time=0.00704225
EXTRACT: control_change channel=6 control=11 value=28 time=0.0140845
EXTRACT: control_change channel=6 control=11 value=29 time=0.0140845
EXTRACT: control_change channel=11 control=11 value=106 time=0
EXTRACT: control_change channel=11 control=11 value=105 time=0.00704225
EXTRACT: control_change channel=11 control=11 value=104 time=0.0140845
EXTRACT: control_change channel=6 control=11 value=30 time=0.00704225
EXTRACT: control_change channel=11 control=11 value=103 time=0
EXTRACT: control_change channel=6 control=11 value=31 time=0.0140845
EXTRACT: control_change channel=11 control=11 value=102 time=0
EXTRACT: control_change channel=11 control=11 value=101 time=0.0140845
EXTRACT: control_change channel=6 control=11 value=32 time=0.00704225
EXTRACT: note_on channel=9 note=44 velocity=0 time=0
EXTRACT: note_on channel=9 note=33 velocity=0 time=0
EXTRACT: control_change channel=11 control=11 value=99 time=0.00704225
EXTRACT: control_change channel=6 control=11 value=33 time=0.0140845
EXTRACT: control_change channel=11 control=11 value=98 time=0.00704225
EXTRACT: control_change channel=11 control=11 value=97 time=0.00704225
EXTRACT: control_change channel=6 control=11 value=34 time=0.00704225
EXTRACT: control_change channel=11 control=11 value=96 time=0
EXTRACT: control_change channel=6 control=11 value=35 time=0.0140845
EXTRACT: control_change channel=11 control=11 value=95 time=0.00704225
EXTRACT: control_change channel=11 control=11 value=94 time=0.00704225
EXTRACT: control_change channel=11 control=11 value=93 time=0.00704225
EXTRACT: control_change channel=6 control=11 value=36 time=0.00704225
EXTRACT: control_change channel=11 control=11 value=92 time=0
EXTRACT: control_change channel=11 control=11 value=91 time=0.00704225
EXTRACT: control_change channel=6 control=11 value=37 time=0.00704225
EXTRACT: note_on channel=9 note=82 velocity=35 time=0.00704225
EXTRACT: control_change channel=11 control=11 value=90 time=0
EXTRACT: control_change channel=6 control=11 value=38 time=0.00704225
EXTRACT: control_change channel=11 control=11 value=89 time=0.00704225
EXTRACT: control_change channel=11 control=11 value=88 time=0.0140845
EXTRACT: control_change channel=6 control=11 value=39 time=0.00704225
EXTRACT: control_change channel=6 control=11 value=40 time=0.0140845
EXTRACT: control_change channel=11 control=11 value=89 time=0
EXTRACT: control_change channel=11 control=11 value=91 time=0.00704225
EXTRACT: control_change channel=11 control=11 value=92 time=0.00704225
EXTRACT: control_change channel=6 control=11 value=41 time=0.00704225
EXTRACT: control_change channel=11 control=11 value=93 time=0
EXTRACT: control_change channel=6 control=11 value=42 time=0.0140845
EXTRACT: control_change channel=11 control=11 value=92 time=0.0140845
EXTRACT: note_on channel=9 note=82 velocity=0 time=0.00704225
EXTRACT: control_change channel=11 control=11 value=91 time=0
EXTRACT: control_change channel=6 control=11 value=43 time=0.00704225
EXTRACT: control_change channel=11 control=11 value=90 time=0
EXTRACT: control_change channel=6 control=11 value=44 time=0.0140845
EXTRACT: control_change channel=11 control=11 value=89 time=0
EXTRACT: control_change channel=11 control=11 value=87 time=0.00704225
EXTRACT: control_change channel=6 control=11 value=45 time=0.0140845
EXTRACT: control_change channel=11 control=11 value=85 time=0
EXTRACT: control_change channel=6 control=94 value=56 time=0.0140845
EXTRACT: control_change channel=6 control=11 value=46 time=0.00704225
EXTRACT: control_change channel=11 control=11 value=83 time=0
EXTRACT: control_change channel=11 control=11 value=82 time=0.00704225
EXTRACT: control_change channel=6 control=11 value=47 time=0.0140845
EXTRACT: control_change channel=11 control=11 value=93 time=0.00704225
EXTRACT: control_change channel=6 control=11 value=48 time=0.00704225
EXTRACT: note_on channel=8 note=32 velocity=0 time=0.00704225
EXTRACT: note_on channel=8 note=32 velocity=123 time=0
EXTRACT: note_on channel=9 note=31 velocity=127 time=0
EXTRACT: note_on channel=9 note=44 velocity=80 time=0
EXTRACT: note_on channel=9 note=33 velocity=127 time=0
EXTRACT: note_on channel=10 note=31 velocity=73 time=0
EXTRACT: note_on channel=11 note=61 velocity=0 time=0
EXTRACT: control_change channel=11 control=11 value=127 time=0
EXTRACT: note_on channel=11 note=59 velocity=127 time=0
EXTRACT: control_change channel=6 control=11 value=49 time=0.02112675
EXTRACT: control_change channel=6 control=11 value=50 time=0.0140845
EXTRACT: control_change channel=6 control=11 value=51 time=0.0140845
EXTRACT: control_change channel=6 control=11 value=52 time=0.028169
EXTRACT: control_change channel=6 control=11 value=53 time=0.0140845
EXTRACT: note_on channel=9 note=33 velocity=0 time=0.0140845
EXTRACT: note_on channel=9 note=44 velocity=0 time=0
EXTRACT: note_on channel=9 note=31 velocity=0 time=0
EXTRACT: note_on channel=10 note=31 velocity=0 time=0
EXTRACT: control_change channel=6 control=11 value=54 time=0.00704225
EXTRACT: control_change channel=6 control=11 value=55 time=0.0140845
EXTRACT: control_change channel=6 control=11 value=56 time=0.028169
EXTRACT: control_change channel=6 control=11 value=57 time=0.0140845
EXTRACT: control_change channel=6 control=11 value=58 time=0.02112675
EXTRACT: control_change channel=6 control=11 value=59 time=0.02112675
EXTRACT: note_on channel=9 note=82 velocity=35 time=0
EXTRACT: control_change channel=6 control=11 value=60 time=0.02112675
EXTRACT: control_change channel=6 control=11 value=61 time=0.0140845
EXTRACT: note_on channel=11 note=59 velocity=0 time=0.02112675
EXTRACT: pitchwheel channel=11 pitch=-8064 time=0
EXTRACT: control_change channel=6 control=11 value=62 time=0.00704225
EXTRACT: pitchwheel channel=11 pitch=-7168 time=0
EXTRACT: pitchwheel channel=11 pitch=-6784 time=0.00704225
EXTRACT: note_on channel=11 note=61 velocity=127 time=0
EXTRACT: control_change channel=6 control=11 value=63 time=0.00704225
EXTRACT: pitchwheel channel=11 pitch=-6400 time=0
EXTRACT: control_change channel=11 control=11 value=126 time=0.00704225
EXTRACT: pitchwheel channel=11 pitch=-6272 time=0
EXTRACT: control_change channel=6 control=11 value=64 time=0.00704225
EXTRACT: pitchwheel channel=11 pitch=-6016 time=0.00704225
EXTRACT: note_on channel=9 note=82 velocity=0 time=0.00704225
EXTRACT: pitchwheel channel=11 pitch=-5760 time=0
EXTRACT: control_change channel=6 control=11 value=65 time=0.00704225
EXTRACT: pitchwheel channel=11 pitch=-5248 time=0
EXTRACT: pitchwheel channel=11 pitch=-4992 time=0.00704225
EXTRACT: pitchwheel channel=11 pitch=-4608 time=0.00704225
EXTRACT: control_change channel=6 control=11 value=66 time=0.00704225
EXTRACT: pitchwheel channel=11 pitch=-4480 time=0.00704225
EXTRACT: control_change channel=11 control=11 value=125 time=0.00704225
EXTRACT: pitchwheel channel=11 pitch=-4096 time=0
EXTRACT: control_change channel=6 control=11 value=67 time=0.00704225
EXTRACT: pitchwheel channel=11 pitch=-3968 time=0.00704225
EXTRACT: control_change channel=6 control=11 value=68 time=0.00704225
EXTRACT: pitchwheel channel=11 pitch=-3712 time=0
EXTRACT: pitchwheel channel=11 pitch=-3456 time=0.0140845
EXTRACT: pitchwheel channel=11 pitch=-2688 time=0.00704225
EXTRACT: control_change channel=6 control=11 value=69 time=0.00704225
EXTRACT: control_change channel=11 control=11 value=124 time=0
EXTRACT: pitchwheel channel=11 pitch=-2432 time=0.00704225
EXTRACT: control_change channel=6 control=11 value=70 time=0.00704225
EXTRACT: note_on channel=8 note=32 velocity=0 time=0
EXTRACT: note_on channel=8 note=32 velocity=123 time=0
EXTRACT: note_on channel=9 note=44 velocity=80 time=0
EXTRACT: pitchwheel channel=11 pitch=-2176 time=0
EXTRACT: pitchwheel channel=11 pitch=-1920 time=0.0140845
EXTRACT: control_change channel=6 control=11 value=71 time=0.00704225
EXTRACT: pitchwheel channel=11 pitch=-1664 time=0.00704225
EXTRACT: pitchwheel channel=11 pitch=-1280 time=0.00704225
EXTRACT: control_change channel=6 control=11 value=72 time=0.00704225
EXTRACT: control_change channel=11 control=11 value=122 time=0
EXTRACT: pitchwheel channel=11 pitch=-1152 time=0
EXTRACT: control_change channel=6 control=11 value=73 time=0.02112675
EXTRACT: control_change channel=11 control=11 value=121 time=0
EXTRACT: pitchwheel channel=11 pitch=-896 time=0
EXTRACT: pitchwheel channel=11 pitch=-640 time=0.00704225
EXTRACT: control_change channel=6 control=11 value=74 time=0.00704225
EXTRACT: pitchwheel channel=11 pitch=-384 time=0
EXTRACT: control_change channel=11 control=11 value=120 time=0.00704225
EXTRACT: pitchwheel channel=11 pitch=-128 time=0
EXTRACT: control_change channel=6 control=11 value=75 time=0.02112675
EXTRACT: note_on channel=9 note=44 velocity=0 time=0
EXTRACT: control_change channel=6 control=11 value=76 time=0.0140845
EXTRACT: control_change channel=6 control=11 value=77 time=0.0140845
EXTRACT: control_change channel=11 control=11 value=118 time=0
EXTRACT: control_change channel=6 control=11 value=78 time=0.02112675
EXTRACT: note_on channel=1 note=52 velocity=0 time=0.00704225
EXTRACT: note_on channel=1 note=56 velocity=0 time=0.00704225
EXTRACT: control_change channel=6 control=11 value=79 time=0.00704225
EXTRACT: note_on channel=1 note=61 velocity=0 time=0.02112675
EXTRACT: control_change channel=6 control=11 value=80 time=0
EXTRACT: control_change channel=11 control=11 value=117 time=0.00704225
EXTRACT: control_change channel=6 control=11 value=81 time=0.00704225
EXTRACT: note_on channel=9 note=82 velocity=35 time=0
EXTRACT: control_change channel=11 control=11 value=116 time=0.00704225
EXTRACT: control_change channel=6 control=11 value=82 time=0.02112675
EXTRACT: control_change channel=6 control=11 value=83 time=0.0140845
EXTRACT: control_change channel=6 control=11 value=84 time=0.02112675
EXTRACT: control_change channel=11 control=11 value=115 time=0
EXTRACT: control_change channel=11 control=11 value=114 time=0.00704225
EXTRACT: control_change channel=6 control=11 value=85 time=0.0140845
EXTRACT: note_on channel=1 note=56 velocity=80 time=0.00704225
EXTRACT: note_on channel=1 note=61 velocity=80 time=0
EXTRACT: control_change channel=11 control=11 value=112 time=0
EXTRACT: control_change channel=6 control=11 value=86 time=0.0140845
EXTRACT: note_on channel=9 note=82 velocity=0 time=0
EXTRACT: control_change channel=6 control=11 value=87 time=0.0140845
EXTRACT: note_on channel=1 note=64 velocity=80 time=0.00704225
EXTRACT: note_on channel=1 note=68 velocity=80 time=0.00704225
EXTRACT: control_change channel=6 control=11 value=88 time=0.0140845
EXTRACT: control_change channel=11 control=11 value=111 time=0
EXTRACT: control_change channel=6 control=11 value=89 time=0.0140845
EXTRACT: control_change channel=11 control=11 value=111 time=0
EXTRACT: control_change channel=6 control=11 value=90 time=0.0140845
EXTRACT: control_change channel=6 control=11 value=91 time=0.02112675
EXTRACT: note_on channel=8 note=32 velocity=0 time=0.0140845
EXTRACT: note_on channel=8 note=37 velocity=123 time=0
EXTRACT: note_on channel=9 note=44 velocity=80 time=0
EXTRACT: note_on channel=9 note=33 velocity=127 time=0
EXTRACT: control_change channel=6 control=11 value=92 time=0.00704225
EXTRACT: control_change channel=11 control=11 value=110 time=0
EXTRACT: control_change channel=6 control=11 value=93 time=0.02112675
EXTRACT: control_change channel=6 control=11 value=94 time=0.0140845
EXTRACT: control_change channel=6 control=11 value=95 time=0.028169
EXTRACT: control_change channel=6 control=11 value=96 time=0.0140845
EXTRACT: control_change channel=11 control=11 value=109 time=0.00704225
EXTRACT: control_change channel=6 control=11 value=97 time=0.0140845
EXTRACT: note_on channel=9 note=33 velocity=0 time=0
EXTRACT: note_on channel=9 note=44 velocity=0 time=0
EXTRACT: control_change channel=6 control=11 value=98 time=0.02112675
EXTRACT: control_change channel=6 control=11 value=99 time=0.02112675
EXTRACT: control_change channel=11 control=11 value=108 time=0.00704225
EXTRACT: control_change channel=6 control=11 value=100 time=0.00704225
EXTRACT: control_change channel=11 control=11 value=107 time=0.0140845
EXTRACT: control_change channel=6 control=11 value=101 time=0.0140845
EXTRACT: control_change channel=6 control=11 value=102 time=0.0140845
EXTRACT: note_on channel=9 note=82 velocity=35 time=0.00704225
EXTRACT: control_change channel=6 control=11 value=103 time=0.00704225
EXTRACT: control_change channel=11 control=11 value=106 time=0
EXTRACT: control_change channel=6 control=11 value=104 time=0.02112675
EXTRACT: control_change channel=11 control=11 value=105 time=0
EXTRACT: control_change channel=6 control=11 value=105 time=0.02112675
EXTRACT: control_change channel=11 control=11 value=104 time=0
EXTRACT: control_change channel=11 control=11 value=103 time=0.0140845
EXTRACT: control_change channel=6 control=11 value=106 time=0.00704225
EXTRACT: control_change channel=6 control=11 value=107 time=0.0140845
EXTRACT: control_change channel=11 control=11 value=102 time=0
EXTRACT: note_on channel=9 note=82 velocity=0 time=0.02112675
EXTRACT: control_change channel=6 control=11 value=108 time=0.00704225
EXTRACT: control_change channel=11 control=11 value=100 time=0
EXTRACT: control_change channel=11 control=11 value=99 time=0.00704225
EXTRACT: control_change channel=6 control=11 value=109 time=0.00704225
EXTRACT: control_change channel=11 control=11 value=98 time=0
EXTRACT: control_change channel=6 control=11 value=110 time=0.02112675
EXTRACT: control_change channel=11 control=11 value=97 time=0
EXTRACT: control_change channel=11 control=11 value=96 time=0.0140845
EXTRACT: control_change channel=6 control=11 value=111 time=0.00704225
EXTRACT: control_change channel=11 control=11 value=95 time=0
EXTRACT: control_change channel=6 control=11 value=112 time=0.02112675
EXTRACT: control_change channel=11 control=11 value=94 time=0
EXTRACT: control_change channel=6 control=11 value=113 time=0.0140845
EXTRACT: note_on channel=9 note=44 velocity=80 time=0.00704225
EXTRACT: note_on channel=11 note=61 velocity=0 time=0
EXTRACT: control_change channel=11 control=11 value=125 time=0
EXTRACT: note_on channel=11 note=61 velocity=127 time=0
EXTRACT: control_change channel=6 control=11 value=114 time=0.02112675
EXTRACT: control_change channel=6 control=11 value=115 time=0.0140845
EXTRACT: control_change channel=6 control=11 value=116 time=0.0140845
EXTRACT: control_change channel=6 control=11 value=117 time=0.02112675
EXTRACT: control_change channel=6 control=11 value=118 time=0.02112675
EXTRACT: note_on channel=9 note=44 velocity=0 time=0.0140845
EXTRACT: control_change channel=6 control=11 value=119 time=0.00704225
EXTRACT: control_change channel=6 control=11 value=120 time=0.0140845
EXTRACT: control_change channel=6 control=11 value=121 time=0.028169
EXTRACT: control_change channel=6 control=11 value=122 time=0.0140845
EXTRACT: control_change channel=6 control=11 value=123 time=0.02112675
EXTRACT: control_change channel=6 control=11 value=124 time=0.02112675
EXTRACT: note_on channel=9 note=82 velocity=35 time=0
EXTRACT: control_change channel=6 control=11 value=125 time=0.02112675
EXTRACT: control_change channel=6 control=11 value=126 time=0.0140845
EXTRACT: control_change channel=6 control=11 value=127 time=0.0140845
EXTRACT: control_change channel=6 control=11 value=126 time=0.028169
EXTRACT: control_change channel=6 control=11 value=125 time=0.0140845
EXTRACT: note_on channel=9 note=82 velocity=0 time=0.0140845
EXTRACT: control_change channel=6 control=11 value=124 time=0.00704225
EXTRACT: control_change channel=6 control=11 value=123 time=0.0140845
EXTRACT: control_change channel=6 control=11 value=122 time=0.02112675
EXTRACT: control_change channel=6 control=11 value=121 time=0.0140845
EXTRACT: control_change channel=6 control=11 value=120 time=0.0140845
EXTRACT: control_change channel=6 control=11 value=119 time=0.02112675
EXTRACT: control_change channel=6 control=11 value=118 time=0.0140845
EXTRACT: note_on channel=9 note=31 velocity=127 time=0
EXTRACT: note_on channel=9 note=33 velocity=127 time=0
EXTRACT: note_on channel=9 note=44 velocity=80 time=0
EXTRACT: note_on channel=10 note=31 velocity=73 time=0
EXTRACT: control_change channel=6 control=11 value=117 time=0.028169
EXTRACT: control_change channel=6 control=11 value=116 time=0.0140845
EXTRACT: control_change channel=6 control=11 value=115 time=0.02112675
EXTRACT: control_change channel=6 control=11 value=114 time=0.0140845
EXTRACT: control_change channel=6 control=11 value=113 time=0.0140845
EXTRACT: note_on channel=9 note=44 velocity=0 time=0.0140845
EXTRACT: note_on channel=9 note=33 velocity=0 time=0
EXTRACT: note_on channel=9 note=31 velocity=0 time=0
EXTRACT: note_on channel=10 note=31 velocity=0 time=0
EXTRACT: control_change channel=6 control=11 value=112 time=0.00704225
EXTRACT: control_change channel=6 control=11 value=111 time=0.0140845
EXTRACT: control_change channel=6 control=11 value=110 time=0.02112675
EXTRACT: control_change channel=6 control=11 value=109 time=0.0140845
EXTRACT: control_change channel=6 control=11 value=108 time=0.028169
EXTRACT: control_change channel=6 control=11 value=107 time=0.0140845
EXTRACT: note_on channel=9 note=82 velocity=35 time=0.00704225
EXTRACT: control_change channel=6 control=11 value=106 time=0.00704225
EXTRACT: control_change channel=6 control=11 value=105 time=0.02112675
EXTRACT: control_change channel=6 control=11 value=104 time=0.0140845
EXTRACT: control_change channel=6 control=11 value=103 time=0.02112675
EXTRACT: control_change channel=6 control=11 value=102 time=0.0140845
EXTRACT: control_change channel=6 control=11 value=101 time=0.0140845
EXTRACT: note_on channel=9 note=82 velocity=0 time=0.0140845
EXTRACT: control_change channel=6 control=11 value=100 time=0.00704225
EXTRACT: control_change channel=6 control=11 value=99 time=0.02112675
EXTRACT: control_change channel=6 control=11 value=98 time=0.02112675
EXTRACT: control_change channel=6 control=11 value=97 time=0.0140845
EXTRACT: control_change channel=6 control=11 value=96 time=0.02112675
EXTRACT: control_change channel=6 control=11 value=95 time=0.0140845
EXTRACT: note_on channel=9 note=44 velocity=80 time=0.00704225
EXTRACT: note_on channel=11 note=61 velocity=0 time=0
EXTRACT: control_change channel=6 control=11 value=94 time=0.00704225
EXTRACT: control_change channel=6 control=11 value=93 time=0.02112675
EXTRACT: control_change channel=6 control=11 value=92 time=0.0140845
EXTRACT: control_change channel=6 control=11 value=91 time=0.02112675
EXTRACT: control_change channel=6 control=11 value=90 time=0.02112675
EXTRACT: control_change channel=6 control=11 value=89 time=0.02112675
EXTRACT: note_on channel=9 note=44 velocity=0 time=0
EXTRACT: control_change channel=6 control=11 value=88 time=0.0140845
EXTRACT: note_on channel=1 note=61 velocity=0 time=0.0140845
EXTRACT: note_on channel=1 note=56 velocity=0 time=0
EXTRACT: control_change channel=6 control=11 value=87 time=0
EXTRACT: control_change channel=6 control=11 value=86 time=0.02112675
EXTRACT: note_on channel=1 note=64 velocity=0 time=0.0140845
EXTRACT: control_change channel=6 control=11 value=85 time=0
EXTRACT: note_on channel=1 note=68 velocity=0 time=0.00704225
EXTRACT: control_change channel=6 control=11 value=84 time=0.0140845
EXTRACT: control_change channel=6 control=11 value=83 time=0.0140845
EXTRACT: note_on channel=9 note=82 velocity=35 time=0.00704225
EXTRACT: note_on channel=9 note=33 velocity=127 time=0
EXTRACT: control_change channel=6 control=11 value=82 time=0.00704225
EXTRACT: note_on channel=11 note=57 velocity=127 time=0
EXTRACT: control_change channel=6 control=11 value=81 time=0.028169
EXTRACT: control_change channel=6 control=11 value=80 time=0.0140845
EXTRACT: control_change channel=6 control=11 value=79 time=0.02112675
EXTRACT: control_change channel=6 control=11 value=78 time=0.0140845
EXTRACT: control_change channel=6 control=11 value=77 time=0.02112675
EXTRACT: note_on channel=9 note=33 velocity=0 time=0
EXTRACT: note_on channel=9 note=82 velocity=0 time=0
EXTRACT: note_on channel=1 note=52 velocity=80 time=0.00704225
EXTRACT: control_change channel=6 control=11 value=76 time=0.00704225
EXTRACT: note_on channel=1 note=68 velocity=80 time=0.00704225
EXTRACT: control_change channel=6 control=11 value=75 time=0.00704225
EXTRACT: note_on channel=1 note=64 velocity=80 time=0.0140845
EXTRACT: control_change channel=6 control=11 value=74 time=0.00704225
EXTRACT: note_on channel=1 note=71 velocity=80 time=0.0140845
EXTRACT: control_change channel=6 control=11 value=73 time=0
EXTRACT: control_change channel=6 control=11 value=72 time=0.028169
EXTRACT: control_change channel=6 control=11 value=71 time=0.0140845
EXTRACT: note_on channel=9 note=44 velocity=80 time=0
EXTRACT: pitchwheel channel=11 pitch=-8064 time=0
EXTRACT: note_on channel=11 note=64 velocity=127 time=0
EXTRACT: note_on channel=11 note=57 velocity=0 time=0.00704225
EXTRACT: pitchwheel channel=11 pitch=-7808 time=0.00704225
EXTRACT: control_change channel=6 control=11 value=70 time=0.00704225
EXTRACT: pitchwheel channel=11 pitch=-7552 time=0
EXTRACT: control_change channel=6 control=11 value=69 time=0.0140845
EXTRACT: pitchwheel channel=11 pitch=-7040 time=0
EXTRACT: pitchwheel channel=11 pitch=-6784 time=0.00704225
EXTRACT: control_change channel=6 control=11 value=68 time=0.00704225
EXTRACT: pitchwheel channel=11 pitch=-6656 time=0
EXTRACT: pitchwheel channel=11 pitch=-6528 time=0.00704225
EXTRACT: pitchwheel channel=11 pitch=-6016 time=0.00704225
EXTRACT: control_change channel=6 control=11 value=67 time=0.00704225
EXTRACT: pitchwheel channel=11 pitch=-5632 time=0.00704225
EXTRACT: control_change channel=6 control=11 value=66 time=0.00704225
EXTRACT: pitchwheel channel=11 pitch=-5376 time=0
EXTRACT: pitchwheel channel=11 pitch=-4992 time=0.00704225
EXTRACT: pitchwheel channel=11 pitch=-4480 time=0.00704225
EXTRACT: control_change channel=6 control=11 value=65 time=0.00704225
EXTRACT: note_on channel=9 note=44 velocity=0 time=0
EXTRACT: pitchwheel channel=11 pitch=-4096 time=0
EXTRACT: control_change channel=6 control=11 value=64 time=0.0140845
EXTRACT: pitchwheel channel=11 pitch=-3712 time=0
EXTRACT: pitchwheel channel=11 pitch=-3456 time=0.00704225
EXTRACT: pitchwheel channel=11 pitch=-3072 time=0.00704225
EXTRACT: control_change channel=6 control=11 value=63 time=0.0140845
EXTRACT: pitchwheel channel=11 pitch=-2432 time=0
EXTRACT: control_change channel=6 control=11 value=62 time=0.0140845
EXTRACT: pitchwheel channel=11 pitch=-2176 time=0
EXTRACT: pitchwheel channel=11 pitch=-1664 time=0.00704225
EXTRACT: control_change channel=6 control=11 value=61 time=0.00704225
EXTRACT: pitchwheel channel=11 pitch=-1536 time=0
EXTRACT: pitchwheel channel=11 pitch=-1408 time=0.00704225
EXTRACT: pitchwheel channel=11 pitch=-1152 time=0.00704225
EXTRACT: control_change channel=6 control=11 value=60 time=0.00704225
EXTRACT: pitchwheel channel=11 pitch=-896 time=0.00704225
EXTRACT: control_change channel=6 control=11 value=59 time=0.00704225
EXTRACT: note_on channel=9 note=82 velocity=35 time=0
EXTRACT: note_on channel=9 note=33 velocity=42 time=0
EXTRACT: pitchwheel channel=11 pitch=-768 time=0.00704225
EXTRACT: pitchwheel channel=11 pitch=-512 time=0.00704225
EXTRACT: control_change channel=6 control=11 value=58 time=0.00704225
EXTRACT: pitchwheel channel=11 pitch=-384 time=0
EXTRACT: control_change channel=6 control=11 value=57 time=0.0140845
EXTRACT: pitchwheel channel=11 pitch=-256 time=0
EXTRACT: control_change channel=6 control=11 value=56 time=0.0140845
EXTRACT: pitchwheel channel=11 pitch=-128 time=0
EXTRACT: control_change channel=6 control=11 value=55 time=0.02112675
EXTRACT: control_change channel=6 control=11 value=54 time=0.02112675
EXTRACT: note_on channel=9 note=33 velocity=0 time=0.0140845
EXTRACT: note_on channel=9 note=82 velocity=0 time=0
EXTRACT: control_change channel=6 control=11 value=53 time=0.00704225
EXTRACT: control_change channel=6 control=11 value=52 time=0.0140845
EXTRACT: control_change channel=6 control=11 value=51 time=0.02112675
EXTRACT: control_change channel=6 control=11 value=50 time=0.0140845
EXTRACT: control_change channel=6 control=11 value=49 time=0.0140845
EXTRACT: control_change channel=6 control=11 value=48 time=0.02112675
EXTRACT: note_on channel=5 note=68 velocity=0 time=0.0140845
EXTRACT: note_on channel=5 note=73 velocity=0 time=0
EXTRACT: note_on channel=5 note=68 velocity=78 time=0
EXTRACT: note_on channel=5 note=71 velocity=78 time=0
EXTRACT: control_change channel=6 control=11 value=47 time=0
EXTRACT: note_on channel=8 note=37 velocity=0 time=0
EXTRACT: note_on channel=8 note=40 velocity=123 time=0
EXTRACT: note_on channel=9 note=33 velocity=127 time=0
EXTRACT: note_on channel=9 note=44 velocity=80 time=0
EXTRACT: control_change channel=6 control=11 value=46 time=0.02112675
EXTRACT: control_change channel=6 control=11 value=45 time=0.02112675
EXTRACT: control_change channel=6 control=11 value=44 time=0.02112675
EXTRACT: control_change channel=6 control=11 value=43 time=0.0140845
EXTRACT: control_change channel=6 control=11 value=42 time=0.0140845
EXTRACT: note_on channel=9 note=44 velocity=0 time=0.0140845
EXTRACT: note_on channel=9 note=33 velocity=0 time=0
EXTRACT: control_change channel=6 control=11 value=41 time=0.00704225
EXTRACT: pitchwheel channel=11 pitch=128 time=0.00704225
EXTRACT: control_change channel=6 control=11 value=40 time=0.00704225
EXTRACT: pitchwheel channel=11 pitch=-128 time=0
EXTRACT: pitchwheel channel=11 pitch=-384 time=0.00704225
EXTRACT: pitchwheel channel=11 pitch=-640 time=0.00704225
EXTRACT: control_change channel=6 control=11 value=39 time=0.00704225
EXTRACT: pitchwheel channel=11 pitch=-896 time=0
EXTRACT: control_change channel=6 control=11 value=38 time=0.0140845
EXTRACT: pitchwheel channel=11 pitch=-1152 time=0
EXTRACT: pitchwheel channel=11 pitch=-1408 time=0.00704225
EXTRACT: control_change channel=6 control=11 value=37 time=0.00704225
EXTRACT: pitchwheel channel=11 pitch=-1664 time=0
EXTRACT: pitchwheel channel=11 pitch=-1920 time=0.00704225
EXTRACT: pitchwheel channel=11 pitch=-2176 time=0.00704225
EXTRACT: control_change channel=6 control=11 value=36 time=0.0140845
EXTRACT: pitchwheel channel=11 pitch=-2432 time=0
EXTRACT: note_on channel=9 note=82 velocity=35 time=0.00704225
EXTRACT: pitchwheel channel=11 pitch=-2688 time=0
EXTRACT: control_change channel=6 control=11 value=35 time=0.00704225
EXTRACT: pitchwheel channel=11 pitch=-2944 time=0
EXTRACT: pitchwheel channel=11 pitch=-3200 time=0.00704225
EXTRACT: pitchwheel channel=11 pitch=-3456 time=0.00704225
EXTRACT: control_change channel=6 control=11 value=34 time=0.00704225
EXTRACT: pitchwheel channel=11 pitch=-3712 time=0.00704225
EXTRACT: control_change channel=6 control=11 value=33 time=0.00704225
EXTRACT: pitchwheel channel=11 pitch=-4096 time=0
EXTRACT: pitchwheel channel=11 pitch=-4352 time=0.00704225
EXTRACT: pitchwheel channel=11 pitch=-4608 time=0.00704225
EXTRACT: control_change channel=6 control=11 value=32 time=0.00704225
EXTRACT: pitchwheel channel=11 pitch=-4864 time=0
EXTRACT: control_change channel=6 control=11 value=31 time=0.0140845
EXTRACT: pitchwheel channel=11 pitch=-5120 time=0
EXTRACT: pitchwheel channel=11 pitch=-5376 time=0.00704225
EXTRACT: control_change channel=6 control=11 value=30 time=0.00704225
EXTRACT: pitchwheel channel=11 pitch=-5632 time=0
EXTRACT: pitchwheel channel=11 pitch=-5888 time=0.00704225
EXTRACT: note_on channel=9 note=82 velocity=0 time=0.00704225
EXTRACT: pitchwheel channel=11 pitch=-6144 time=0
EXTRACT: control_change channel=6 control=11 value=29 time=0.00704225
EXTRACT: pitchwheel channel=11 pitch=-6400 time=0.00704225
EXTRACT: control_change channel=6 control=11 value=28 time=0.00704225
EXTRACT: pitchwheel channel=11 pitch=-6656 time=0
EXTRACT: pitchwheel channel=11 pitch=-6912 time=0.00704225
EXTRACT: pitchwheel channel=11 pitch=-7168 time=0.00704225
EXTRACT: pitchwheel channel=11 pitch=-7424 time=0.00704225
EXTRACT: control_change channel=6 control=11 value=27 time=0.00704225
EXTRACT: pitchwheel channel=11 pitch=-7680 time=0.00704225
EXTRACT: control_change channel=6 control=11 value=26 time=0.00704225
EXTRACT: pitchwheel channel=11 pitch=-8064 time=0
EXTRACT: control_change channel=6 control=11 value=25 time=0.02112675
EXTRACT: control_change channel=6 control=11 value=24 time=0.0140845
EXTRACT: note_on channel=9 note=33 velocity=127 time=0.00704225
EXTRACT: note_on channel=9 note=31 velocity=127 time=0
EXTRACT: note_on channel=9 note=44 velocity=80 time=0
EXTRACT: note_on channel=10 note=31 velocity=73 time=0
EXTRACT: note_on channel=11 note=64 velocity=0 time=0
EXTRACT: pitchwheel channel=11 pitch=0 time=0
EXTRACT: note_on channel=11 note=62 velocity=127 time=0
EXTRACT: control_change channel=6 control=11 value=23 time=0.00704225
EXTRACT: control_change channel=6 control=11 value=22 time=0.02112675
EXTRACT: control_change channel=6 control=11 value=21 time=0.0140845
EXTRACT: control_change channel=6 control=11 value=20 time=0.02112675
EXTRACT: control_change channel=6 control=11 value=19 time=0.0140845
EXTRACT: control_change channel=6 control=11 value=18 time=0.028169
EXTRACT: note_on channel=9 note=44 velocity=0 time=0
EXTRACT: note_on channel=9 note=31 velocity=0 time=0
EXTRACT: note_on channel=9 note=33 velocity=0 time=0
EXTRACT: note_on channel=10 note=31 velocity=0 time=0
EXTRACT: control_change channel=6 control=11 value=17 time=0.0140845
EXTRACT: control_change channel=6 control=11 value=16 time=0.0140845
EXTRACT: control_change channel=6 control=11 value=15 time=0.02112675
EXTRACT: control_change channel=6 control=11 value=14 time=0.0140845
EXTRACT: control_change channel=6 control=11 value=13 time=0.02112675
EXTRACT: control_change channel=6 control=11 value=12 time=0.0140845
EXTRACT: note_on channel=9 note=82 velocity=35 time=0.00704225
EXTRACT: control_change channel=6 control=11 value=11 time=0.00704225
EXTRACT: control_change channel=6 control=11 value=10 time=0.02112675
EXTRACT: control_change channel=6 control=11 value=9 time=0.02112675
EXTRACT: control_change channel=8 control=91 value=0 time=0.00704225
EXTRACT: note_on channel=11 note=62 velocity=0 time=0
EXTRACT: control_change channel=6 control=11 value=8 time=0.0140845
EXTRACT: note_on channel=11 note=62 velocity=127 time=0
EXTRACT: control_change channel=6 control=11 value=7 time=0.0140845
EXTRACT: control_change channel=6 control=11 value=6 time=0.02112675
EXTRACT: note_on channel=9 note=82 velocity=0 time=0
EXTRACT: control_change channel=6 control=11 value=5 time=0.0140845
EXTRACT: control_change channel=6 control=11 value=4 time=0.0140845
EXTRACT: control_change channel=6 control=11 value=3 time=0.02112675
EXTRACT: control_change channel=6 control=11 value=2 time=0.0140845
EXTRACT: control_change channel=6 control=11 value=1 time=0.02112675
EXTRACT: control_change channel=6 control=11 value=0 time=0.0140845
EXTRACT: note_on channel=9 note=44 velocity=80 time=0.00704225
EXTRACT: note_on channel=9 note=44 velocity=0 time=0.10563375
EXTRACT: note_on channel=11 note=62 velocity=0 time=0.02112675
EXTRACT: control_change channel=11 control=11 value=126 time=0.0140845
EXTRACT: note_on channel=11 note=61 velocity=127 time=0
EXTRACT: control_change channel=11 control=11 value=124 time=0.00704225
EXTRACT: note_on channel=1 note=52 velocity=0 time=0.00704225
EXTRACT: control_change channel=11 control=11 value=123 time=0.00704225
EXTRACT: note_on channel=1 note=68 velocity=0 time=0.00704225
EXTRACT: control_change channel=11 control=11 value=122 time=0.0140845
EXTRACT: note_on channel=1 note=64 velocity=0 time=0.00704225
EXTRACT: control_change channel=11 control=11 value=121 time=0
EXTRACT: control_change channel=11 control=11 value=120 time=0.00704225
EXTRACT: note_on channel=1 note=71 velocity=0 time=0.0140845
EXTRACT: note_on channel=9 note=82 velocity=35 time=0
EXTRACT: control_change channel=11 control=11 value=119 time=0.00704225
EXTRACT: control_change channel=11 control=11 value=118 time=0.00704225
EXTRACT: control_change channel=11 control=11 value=117 time=0.0140845
EXTRACT: control_change channel=11 control=11 value=116 time=0.00704225
EXTRACT: control_change channel=11 control=11 value=115 time=0.02112675
EXTRACT: note_on channel=2 note=64 velocity=0 time=0.0140845
EXTRACT: control_change channel=11 control=11 value=114 time=0
EXTRACT: control_change channel=11 control=11 value=113 time=0.00704225
EXTRACT: control_change channel=11 control=11 value=112 time=0.02112675
EXTRACT: note_on channel=9 note=82 velocity=0 time=0.00704225
EXTRACT: control_change channel=11 control=11 value=111 time=0.00704225
EXTRACT: note_on channel=6 note=64 velocity=0 time=0.02112675
EXTRACT: control_change channel=11 control=11 value=110 time=0.00704225
EXTRACT: note_on channel=1 note=64 velocity=100 time=0.02112675
EXTRACT: control_change channel=11 control=11 value=109 time=0
EXTRACT: control_change channel=11 control=11 value=108 time=0.0140845
EXTRACT: control_change channel=11 control=11 value=107 time=0.02112675
EXTRACT: note_on channel=1 note=69 velocity=100 time=0.0140845
EXTRACT: note_on channel=5 note=71 velocity=0 time=0
EXTRACT: note_on channel=5 note=68 velocity=0 time=0
EXTRACT: note_on channel=5 note=64 velocity=0 time=0
EXTRACT: note_on channel=5 note=73 velocity=78 time=0
EXTRACT: note_on channel=5 note=69 velocity=78 time=0
EXTRACT: note_on channel=8 note=40 velocity=0 time=0
EXTRACT: note_on channel=8 note=33 velocity=123 time=0
EXTRACT: note_on channel=9 note=33 velocity=127 time=0
EXTRACT: note_on channel=9 note=44 velocity=80 time=0
EXTRACT: control_change channel=11 control=11 value=106 time=0.00704225
EXTRACT: control_change channel=11 control=11 value=105 time=0.02112675
EXTRACT: control_change channel=11 control=11 value=104 time=0.00704225
EXTRACT: control_change channel=11 control=11 value=103 time=0.028169
EXTRACT: control_change channel=11 control=11 value=102 time=0.028169
EXTRACT: note_on channel=9 note=44 velocity=0 time=0.0140845
EXTRACT: note_on channel=9 note=33 velocity=0 time=0
EXTRACT: control_change channel=11 control=11 value=101 time=0.00704225
EXTRACT: control_change channel=11 control=11 value=100 time=0.00704225
EXTRACT: control_change channel=11 control=11 value=99 time=0.02112675
EXTRACT: control_change channel=11 control=11 value=98 time=0.02112675
EXTRACT: control_change channel=11 control=11 value=97 time=0.02112675
EXTRACT: control_change channel=11 control=11 value=96 time=0.00704225
EXTRACT: control_change channel=11 control=11 value=95 time=0.0140845
EXTRACT: note_on channel=9 note=82 velocity=35 time=0.00704225
EXTRACT: control_change channel=11 control=11 value=94 time=0.0140845
EXTRACT: control_change channel=11 control=11 value=93 time=0.00704225
EXTRACT: control_change channel=11 control=11 value=92 time=0.00704225
EXTRACT: control_change channel=11 control=11 value=91 time=0.02112675
EXTRACT: note_on channel=11 note=61 velocity=0 time=0.02112675
EXTRACT: note_on channel=11 note=61 velocity=127 time=0
EXTRACT: control_change channel=11 control=11 value=127 time=0
EXTRACT: control_change channel=11 control=11 value=123 time=0.028169
EXTRACT: note_on channel=9 note=82 velocity=0 time=0.00704225
EXTRACT: control_change channel=11 control=11 value=122 time=0.03521125
EXTRACT: control_change channel=11 control=11 value=121 time=0.0140845
EXTRACT: control_change channel=11 control=11 value=120 time=0.00704225
EXTRACT: control_change channel=11 control=11 value=119 time=0.0140845
EXTRACT: control_change channel=11 control=11 value=117 time=0.02112675
EXTRACT: note_on channel=9 note=44 velocity=80 time=0.0140845
EXTRACT: control_change channel=11 control=11 value=116 time=0.00704225
EXTRACT: control_change channel=11 control=11 value=115 time=0.04929575
EXTRACT: control_change channel=11 control=11 value=113 time=0.00704225
EXTRACT: control_change channel=11 control=11 value=112 time=0.0140845
EXTRACT: control_change channel=11 control=11 value=111 time=0.0140845
EXTRACT: control_change channel=11 control=11 value=109 time=0.00704225
EXTRACT: note_on channel=9 note=44 velocity=0 time=0.00704225
EXTRACT: control_change channel=11 control=11 value=108 time=0
EXTRACT: control_change channel=11 control=11 value=106 time=0.0140845
EXTRACT: control_change channel=11 control=11 value=104 time=0.056338
EXTRACT: control_change channel=11 control=11 value=102 time=0.00704225
EXTRACT: note_on channel=9 note=82 velocity=35 time=0.028169
EXTRACT: control_change channel=11 control=11 value=100 time=0.02112675
EXTRACT: control_change channel=11 control=11 value=99 time=0.00704225
EXTRACT: control_change channel=11 control=11 value=97 time=0.02112675
EXTRACT: control_change channel=11 control=11 value=95 time=0.0140845
EXTRACT: control_change channel=11 control=11 value=92 time=0.00704225
EXTRACT: control_change channel=11 control=11 value=91 time=0.00704225
EXTRACT: control_change channel=11 control=11 value=89 time=0.0140845
EXTRACT: control_change channel=11 control=11 value=87 time=0.00704225
EXTRACT: note_on channel=9 note=82 velocity=0 time=0.00704225
EXTRACT: control_change channel=11 control=11 value=85 time=0
EXTRACT: control_change channel=11 control=11 value=83 time=0.0140845
EXTRACT: control_change channel=11 control=11 value=81 time=0.0140845
EXTRACT: control_change channel=11 control=11 value=78 time=0.00704225
EXTRACT: control_change channel=11 control=11 value=76 time=0.00704225
EXTRACT: control_change channel=11 control=11 value=74 time=0.00704225
EXTRACT: control_change channel=11 control=11 value=70 time=0.00704225
EXTRACT: control_change channel=11 control=11 value=67 time=0.0140845
EXTRACT: control_change channel=11 control=11 value=66 time=0.00704225
EXTRACT: note_on channel=8 note=33 velocity=0 time=0.028169
EXTRACT: note_on channel=8 note=33 velocity=123 time=0
EXTRACT: note_on channel=9 note=44 velocity=80 time=0
EXTRACT: note_on channel=9 note=31 velocity=127 time=0
EXTRACT: note_on channel=9 note=33 velocity=127 time=0
EXTRACT: note_on channel=10 note=31 velocity=73 time=0
EXTRACT: note_on channel=11 note=61 velocity=0 time=0
EXTRACT: control_change channel=11 control=11 value=127 time=0.056338
EXTRACT: note_on channel=9 note=33 velocity=0 time=0.04929575
EXTRACT: note_on channel=9 note=31 velocity=0 time=0
EXTRACT: note_on channel=9 note=44 velocity=0 time=0
EXTRACT: note_on channel=10 note=31 velocity=0 time=0
EXTRACT: note_on channel=9 note=82 velocity=35 time=0.10563375
EXTRACT: note_on channel=9 note=82 velocity=0 time=0.10563375
EXTRACT: note_on channel=6 note=64 velocity=100 time=0.0985915
EXTRACT: note_on channel=9 note=44 velocity=80 time=0.00704225
EXTRACT: note_on channel=11 note=59 velocity=127 time=0
EXTRACT: note_on channel=9 note=44 velocity=0 time=0.10563375
EXTRACT: control_change channel=6 control=1 value=72 time=0.0140845
EXTRACT: note_on channel=8 note=33 velocity=0 time=0.09154925
EXTRACT: note_on channel=8 note=33 velocity=123 time=0
EXTRACT: note_on channel=9 note=33 velocity=127 time=0
EXTRACT: note_on channel=9 note=82 velocity=35 time=0
EXTRACT: note_on channel=11 note=59 velocity=0 time=0.0704225
EXTRACT: note_on channel=11 note=61 velocity=127 time=0
EXTRACT: note_on channel=1 note=61 velocity=77 time=0.02112675
EXTRACT: note_on channel=9 note=82 velocity=0 time=0.0140845
EXTRACT: note_on channel=9 note=33 velocity=0 time=0
EXTRACT: control_change channel=6 control=11 value=2 time=0.056338
EXTRACT: control_change channel=6 control=11 value=3 time=0.00704225
EXTRACT: control_change channel=6 control=11 value=4 time=0.028169
EXTRACT: control_change channel=6 control=11 value=5 time=0.0140845
EXTRACT: note_on channel=8 note=33 velocity=0 time=0
EXTRACT: note_on channel=8 note=30 velocity=123 time=0
EXTRACT: note_on channel=9 note=44 velocity=80 time=0
EXTRACT: control_change channel=6 control=11 value=6 time=0.02112675
EXTRACT: control_change channel=6 control=11 value=7 time=0.02112675
EXTRACT: control_change channel=6 control=11 value=8 time=0.02112675
EXTRACT: control_change channel=6 control=11 value=9 time=0.0140845
EXTRACT: control_change channel=6 control=11 value=10 time=0.028169
EXTRACT: note_on channel=9 note=44 velocity=0 time=0
EXTRACT: control_change channel=6 control=11 value=11 time=0.0140845
EXTRACT: control_change channel=6 control=11 value=12 time=0.0140845
EXTRACT: control_change channel=6 control=11 value=13 time=0.028169
EXTRACT: control_change channel=6 control=11 value=14 time=0.0140845
EXTRACT: control_change channel=6 control=11 value=15 time=0.02112675
EXTRACT: control_change channel=6 control=11 value=16 time=0.0140845
EXTRACT: note_on channel=9 note=82 velocity=35 time=0
EXTRACT: note_on channel=9 note=33 velocity=49 time=0
EXTRACT: control_change channel=6 control=11 value=17 time=0.028169
EXTRACT: control_change channel=6 control=11 value=18 time=0.0140845
EXTRACT: control_change channel=6 control=11 value=19 time=0.02112675
EXTRACT: note_on channel=11 note=61 velocity=0 time=0.00704225
EXTRACT: control_change channel=11 control=11 value=127 time=0
EXTRACT: note_on channel=11 note=61 velocity=126 time=0
EXTRACT: control_change channel=11 control=11 value=126 time=0.00704225
EXTRACT: control_change channel=6 control=11 value=20 time=0.00704225
EXTRACT: control_change channel=11 control=11 value=125 time=0.00704225
EXTRACT: control_change channel=11 control=11 value=124 time=0.00704225
EXTRACT: control_change channel=6 control=11 value=21 time=0.00704225
EXTRACT: note_on channel=9 note=33 velocity=0 time=0
EXTRACT: note_on channel=9 note=82 velocity=0 time=0
EXTRACT: control_change channel=11 control=11 value=123 time=0.00704225
EXTRACT: control_change channel=6 control=11 value=22 time=0.00704225
EXTRACT: control_change channel=11 control=11 value=122 time=0.0140845
EXTRACT: control_change channel=11 control=11 value=121 time=0.00704225
EXTRACT: control_change channel=6 control=11 value=23 time=0.00704225
EXTRACT: control_change channel=6 control=11 value=24 time=0.0140845
EXTRACT: control_change channel=6 control=11 value=25 time=0.0140845
EXTRACT: control_change channel=11 control=11 value=120 time=0.0140845
EXTRACT: control_change channel=6 control=11 value=26 time=0.0140845
EXTRACT: note_on channel=9 note=44 velocity=80 time=0.00704225
EXTRACT: note_on channel=9 note=33 velocity=127 time=0
EXTRACT: control_change channel=6 control=11 value=27 time=0.00704225
EXTRACT: control_change channel=6 control=11 value=28 time=0.02112675
EXTRACT: control_change channel=11 control=11 value=119 time=0
EXTRACT: control_change channel=6 control=11 value=29 time=0.0140845
EXTRACT: control_change channel=6 control=11 value=30 time=0.028169
EXTRACT: control_change channel=6 control=11 value=31 time=0.0140845
EXTRACT: control_change channel=11 control=11 value=117 time=0.0140845
EXTRACT: control_change channel=6 control=11 value=32 time=0.00704225
EXTRACT: note_on channel=9 note=33 velocity=0 time=0
EXTRACT: note_on channel=9 note=44 velocity=0 time=0
EXTRACT: control_change channel=6 control=11 value=33 time=0.02112675
EXTRACT: control_change channel=6 control=11 value=34 time=0.02112675
EXTRACT: control_change channel=11 control=11 value=116 time=0
EXTRACT: control_change channel=6 control=11 value=35 time=0.0140845
EXTRACT: control_change channel=11 control=11 value=115 time=0
EXTRACT: control_change channel=6 control=11 value=36 time=0.028169
EXTRACT: control_change channel=6 control=11 value=37 time=0.0140845
EXTRACT: note_on channel=9 note=82 velocity=35 time=0.00704225
EXTRACT: control_change channel=6 control=11 value=38 time=0.00704225
EXTRACT: control_change channel=11 control=11 value=114 time=0.00704225
EXTRACT: control_change channel=11 control=11 value=112 time=0.0140845
EXTRACT: control_change channel=6 control=11 value=39 time=0.00704225
EXTRACT: control_change channel=6 control=11 value=40 time=0.0140845
EXTRACT: control_change channel=6 control=11 value=41 time=0.02112675
EXTRACT: control_change channel=6 control=11 value=42 time=0.0140845
EXTRACT: control_change channel=11 control=11 value=104 time=0.0140845
EXTRACT: note_on channel=9 note=82 velocity=0 time=0.00704225
EXTRACT: control_change channel=6 control=11 value=43 time=0.00704225
EXTRACT: control_change channel=6 control=11 value=44 time=0.0140845
EXTRACT: control_change channel=6 control=11 value=45 time=0.02112675
EXTRACT: control_change channel=11 control=11 value=103 time=0
EXTRACT: control_change channel=6 control=94 value=56 time=0.0140845
EXTRACT: control_change channel=6 control=11 value=46 time=0.00704225
EXTRACT: control_change channel=6 control=11 value=47 time=0.02112675
EXTRACT: control_change channel=6 control=11 value=48 time=0.0140845
EXTRACT: note_on channel=8 note=30 velocity=0 time=0.00704225
EXTRACT: note_on channel=8 note=30 velocity=123 time=0
EXTRACT: note_on channel=9 note=33 velocity=127 time=0
EXTRACT: note_on channel=9 note=31 velocity=127 time=0
EXTRACT: note_on channel=9 note=44 velocity=80 time=0
EXTRACT: note_on channel=10 note=31 velocity=73 time=0
EXTRACT: control_change channel=11 control=11 value=100 time=0.00704225
EXTRACT: control_change channel=6 control=11 value=49 time=0.0140845
EXTRACT: control_change channel=11 control=11 value=99 time=0
EXTRACT: control_change channel=6 control=11 value=50 time=0.0140845
EXTRACT: control_change channel=11 control=11 value=97 time=0
EXTRACT: control_change channel=6 control=11 value=51 time=0.0140845
EXTRACT: control_change channel=11 control=11 value=96 time=0.00704225
EXTRACT: control_change channel=11 control=11 value=95 time=0.0140845
EXTRACT: control_change channel=6 control=11 value=52 time=0.00704225
EXTRACT: control_change channel=11 control=11 value=93 time=0
EXTRACT: control_change channel=6 control=11 value=53 time=0.0140845
EXTRACT: control_change channel=11 control=11 value=92 time=0.00704225
EXTRACT: note_on channel=9 note=44 velocity=0 time=0.00704225
EXTRACT: note_on channel=9 note=31 velocity=0 time=0
EXTRACT: note_on channel=9 note=33 velocity=0 time=0
EXTRACT: note_on channel=10 note=31 velocity=0 time=0
EXTRACT: control_change channel=11 control=11 value=91 time=0
EXTRACT: control_change channel=6 control=11 value=54 time=0.00704225
EXTRACT: control_change channel=11 control=11 value=90 time=0.00704225
EXTRACT: control_change channel=6 control=11 value=55 time=0.00704225
EXTRACT: control_change channel=11 control=11 value=89 time=0.00704225
EXTRACT: control_change channel=11 control=11 value=88 time=0.00704225
EXTRACT: control_change channel=11 control=11 value=87 time=0.00704225
EXTRACT: control_change channel=6 control=11 value=56 time=0.00704225
EXTRACT: control_change channel=6 control=11 value=57 time=0.0140845
EXTRACT: control_change channel=11 control=11 value=86 time=0.00704225
EXTRACT: control_change channel=11 control=11 value=85 time=0.00704225
EXTRACT: control_change channel=6 control=11 value=58 time=0.00704225
EXTRACT: control_change channel=11 control=11 value=84 time=0.0140845
EXTRACT: control_change channel=6 control=11 value=59 time=0.00704225
EXTRACT: note_on channel=9 note=82 velocity=35 time=0
EXTRACT: control_change channel=6 control=11 value=60 time=0.02112675
EXTRACT: control_change channel=11 control=11 value=83 time=0.00704225
EXTRACT: control_change channel=6 control=11 value=61 time=0.00704225
EXTRACT: control_change channel=6 control=11 value=62 time=0.028169
EXTRACT: control_change channel=11 control=11 value=126 time=0
EXTRACT: note_on channel=11 note=61 velocity=0 time=0.00704225
EXTRACT: note_on channel=11 note=57 velocity=127 time=0
EXTRACT: control_change channel=6 control=11 value=63 time=0.00704225
EXTRACT: control_change channel=6 control=11 value=64 time=0.0140845
EXTRACT: control_change channel=11 control=11 value=122 time=0
EXTRACT: note_on channel=9 note=82 velocity=0 time=0.0140845
EXTRACT: control_change channel=6 control=11 value=65 time=0.00704225
EXTRACT: control_change channel=11 control=11 value=120 time=0
EXTRACT: control_change channel=11 control=11 value=119 time=0.00704225
EXTRACT: control_change channel=6 control=11 value=66 time=0.0140845
EXTRACT: control_change channel=11 control=11 value=116 time=0
EXTRACT: control_change channel=11 control=11 value=115 time=0.0140845
EXTRACT: control_change channel=6 control=11 value=67 time=0.00704225
EXTRACT: control_change channel=11 control=11 value=114 time=0
EXTRACT: control_change channel=6 control=11 value=68 time=0.0140845
EXTRACT: control_change channel=6 control=11 value=69 time=0.028169
EXTRACT: control_change channel=11 control=11 value=112 time=0.00704225
EXTRACT: control_change channel=6 control=11 value=70 time=0.00704225
EXTRACT: note_on channel=8 note=30 velocity=0 time=0
EXTRACT: note_on channel=8 note=30 velocity=123 time=0
EXTRACT: note_on channel=9 note=44 velocity=80 time=0
EXTRACT: control_change channel=11 control=11 value=111 time=0.00704225
EXTRACT: control_change channel=6 control=11 value=71 time=0.0140845
EXTRACT: control_change channel=6 control=11 value=72 time=0.02112675
EXTRACT: control_change channel=6 control=11 value=73 time=0.02112675
EXTRACT: control_change channel=11 control=11 value=107 time=0.00704225
EXTRACT: control_change channel=6 control=11 value=74 time=0.00704225
EXTRACT: control_change channel=11 control=11 value=106 time=0.0140845
EXTRACT: control_change channel=6 control=11 value=75 time=0.0140845
EXTRACT: note_on channel=9 note=44 velocity=0 time=0
EXTRACT: control_change channel=11 control=11 value=104 time=0
EXTRACT: control_change channel=6 control=11 value=76 time=0.0140845
EXTRACT: control_change channel=11 control=11 value=103 time=0
EXTRACT: control_change channel=6 control=11 value=77 time=0.0140845
EXTRACT: control_change channel=11 control=11 value=101 time=0.0140845
EXTRACT: control_change channel=6 control=11 value=78 time=0.00704225
EXTRACT: control_change channel=11 control=11 value=100 time=0
EXTRACT: control_change channel=11 control=11 value=99 time=0.00704225
EXTRACT: control_change channel=6 control=11 value=79 time=0.0140845
EXTRACT: control_change channel=11 control=11 value=98 time=0.0140845
EXTRACT: control_change channel=6 control=11 value=80 time=0.00704225
EXTRACT: control_change channel=11 control=11 value=96 time=0
EXTRACT: control_change channel=11 control=11 value=95 time=0.00704225
EXTRACT: control_change channel=6 control=11 value=81 time=0.00704225
EXTRACT: note_on channel=9 note=82 velocity=35 time=0
EXTRACT: control_change channel=11 control=11 value=94 time=0.02112675
EXTRACT: control_change channel=6 control=11 value=82 time=0.00704225
EXTRACT: control_change channel=11 control=11 value=89 time=0.00704225
EXTRACT: control_change channel=6 control=11 value=83 time=0.00704225
EXTRACT: control_change channel=11 control=11 value=86 time=0.00704225
EXTRACT: control_change channel=11 control=11 value=84 time=0.00704225
EXTRACT: control_change channel=6 control=11 value=84 time=0.00704225
EXTRACT: control_change channel=11 control=11 value=80 time=0.00704225
EXTRACT: control_change channel=6 control=11 value=85 time=0.0140845
EXTRACT: control_change channel=11 control=11 value=78 time=0.00704225
EXTRACT: control_change channel=6 control=11 value=86 time=0.0140845
EXTRACT: note_on channel=9 note=82 velocity=0 time=0
EXTRACT: control_change channel=11 control=11 value=68 time=0.00704225
EXTRACT: control_change channel=6 control=11 value=87 time=0.00704225
EXTRACT: control_change channel=11 control=11 value=60 time=0.02112675
EXTRACT: control_change channel=6 control=11 value=88 time=0.00704225
EXTRACT: note_on channel=1 note=64 velocity=0 time=0.00704225
EXTRACT: control_change channel=11 control=11 value=58 time=0
EXTRACT: note_on channel=1 note=68 velocity=70 time=0.00704225
EXTRACT: control_change channel=6 control=11 value=89 time=0
EXTRACT: control_change channel=11 control=11 value=51 time=0
EXTRACT: control_change channel=6 control=11 value=90 time=0.0140845
EXTRACT: control_change channel=11 control=11 value=49 time=0
EXTRACT: note_on channel=1 note=61 velocity=0 time=0.00704225
EXTRACT: control_change channel=11 control=11 value=47 time=0
EXTRACT: control_change channel=11 control=11 value=44 time=0.00704225
EXTRACT: note_on channel=1 note=64 velocity=77 time=0.00704225
EXTRACT: control_change channel=6 control=11 value=91 time=0
EXTRACT: control_change channel=11 control=11 value=39 time=0
EXTRACT: note_on channel=1 note=69 velocity=0 time=0.00704225
EXTRACT: control_change channel=11 control=11 value=37 time=0
EXTRACT: note_on channel=5 note=69 velocity=0 time=0.00704225
EXTRACT: note_on channel=5 note=68 velocity=78 time=0
EXTRACT: note_on channel=7 note=37 velocity=53 time=0
EXTRACT: note_on channel=8 note=30 velocity=0 time=0
EXTRACT: note_on channel=8 note=37 velocity=123 time=0
EXTRACT: note_on channel=9 note=33 velocity=127 time=0
EXTRACT: note_on channel=9 note=44 velocity=80 time=0
EXTRACT: note_on channel=11 note=57 velocity=0 time=0
EXTRACT: note_on channel=11 note=49 velocity=127 time=0
EXTRACT: control_change channel=6 control=11 value=92 time=0.00704225
EXTRACT: control_change channel=11 control=11 value=35 time=0
EXTRACT: control_change channel=11 control=11 value=34 time=0.00704225
EXTRACT: control_change channel=11 control=11 value=39 time=0.00704225
EXTRACT: control_change channel=6 control=11 value=93 time=0.00704225
EXTRACT: control_change channel=11 control=11 value=42 time=0
EXTRACT: control_change channel=6 control=11 value=94 time=0.0140845
EXTRACT: control_change channel=11 control=11 value=46 time=0.00704225
EXTRACT: control_change channel=11 control=11 value=50 time=0.0140845
EXTRACT: control_change channel=6 control=11 value=95 time=0.00704225
EXTRACT: control_change channel=11 control=11 value=52 time=0
EXTRACT: control_change channel=6 control=11 value=96 time=0.0140845
EXTRACT: control_change channel=11 control=11 value=58 time=0.00704225
EXTRACT: control_change channel=6 control=11 value=97 time=0.0140845
EXTRACT: note_on channel=9 note=44 velocity=0 time=0
EXTRACT: note_on channel=9 note=33 velocity=0 time=0
EXTRACT: control_change channel=11 control=11 value=64 time=0
EXTRACT: control_change channel=11 control=11 value=70 time=0.0140845
EXTRACT: control_change channel=6 control=11 value=98 time=0.00704225
EXTRACT: control_change channel=11 control=11 value=72 time=0.00704225
EXTRACT: control_change channel=11 control=11 value=78 time=0.00704225
EXTRACT: control_change channel=6 control=11 value=99 time=0.00704225
EXTRACT: control_change channel=6 control=11 value=100 time=0.0140845
EXTRACT: control_change channel=11 control=11 value=82 time=0
EXTRACT: control_change channel=6 control=11 value=101 time=0.028169
EXTRACT: control_change channel=11 control=11 value=85 time=0
EXTRACT: control_change channel=11 control=11 value=87 time=0.00704225
EXTRACT: control_change channel=6 control=11 value=102 time=0.00704225
EXTRACT: control_change channel=11 control=11 value=88 time=0
EXTRACT: note_on channel=9 note=82 velocity=35 time=0.00704225
EXTRACT: control_change channel=6 control=11 value=103 time=0.00704225
EXTRACT: control_change channel=11 control=11 value=90 time=0
EXTRACT: control_change channel=11 control=11 value=93 time=0.0140845
EXTRACT: control_change channel=6 control=11 value=104 time=0.00704225
EXTRACT: control_change channel=6 control=11 value=105 time=0.02112675
EXTRACT: control_change channel=11 control=11 value=96 time=0
EXTRACT: control_change channel=11 control=11 value=103 time=0.00704225
EXTRACT: control_change channel=6 control=11 value=106 time=0.0140845
EXTRACT: control_change channel=11 control=11 value=107 time=0.00704225
EXTRACT: control_change channel=6 control=11 value=107 time=0.00704225
EXTRACT: control_change channel=11 control=11 value=109 time=0.00704225
EXTRACT: control_change channel=11 control=11 value=112 time=0.00704225
EXTRACT: note_on channel=9 note=82 velocity=0 time=0.00704225
EXTRACT: control_change channel=11 control=11 value=113 time=0
EXTRACT: control_change channel=6 control=11 value=108 time=0.00704225
EXTRACT: control_change channel=11 control=11 value=114 time=0
EXTRACT: control_change channel=11 control=11 value=115 time=0.00704225
EXTRACT: control_change channel=6 control=11 value=109 time=0.00704225
EXTRACT: control_change channel=11 control=11 value=117 time=0.0140845
EXTRACT: control_change channel=6 control=11 value=110 time=0.00704225
EXTRACT: control_change channel=11 control=11 value=119 time=0
EXTRACT: control_change channel=11 control=11 value=120 time=0.00704225
EXTRACT: control_change channel=11 control=11 value=121 time=0.00704225
EXTRACT: control_change channel=6 control=11 value=111 time=0.00704225
EXTRACT: control_change channel=11 control=11 value=123 time=0.0140845
EXTRACT: control_change channel=6 control=11 value=112 time=0.00704225
EXTRACT: control_change channel=11 control=11 value=125 time=0
EXTRACT: control_change channel=6 control=11 value=113 time=0.0140845
EXTRACT: note_on channel=9 note=44 velocity=80 time=0.00704225
EXTRACT: control_change channel=6 control=11 value=114 time=0.02112675
EXTRACT: control_change channel=6 control=11 value=115 time=0.0140845
EXTRACT: control_change channel=6 control=11 value=116 time=0.0140845
EXTRACT: control_change channel=11 control=11 value=122 time=0.0140845
EXTRACT: control_change channel=6 control=11 value=117 time=0.00704225
EXTRACT: control_change channel=6 control=11 value=118 time=0.02112675
EXTRACT: note_on channel=9 note=44 velocity=0 time=0.0140845
EXTRACT: control_change channel=6 control=11 value=119 time=0.00704225
EXTRACT: control_change channel=11 control=11 value=121 time=0.00704225
EXTRACT: control_change channel=6 control=11 value=120 time=0.00704225
EXTRACT: control_change channel=11 control=11 value=120 time=0.0140845
EXTRACT: control_change channel=6 control=11 value=121 time=0.0140845
EXTRACT: control_change channel=11 control=11 value=118 time=0
EXTRACT: control_change channel=11 control=11 value=115 time=0.00704225
EXTRACT: control_change channel=6 control=11 value=122 time=0.00704225
EXTRACT: control_change channel=11 control=11 value=109 time=0.00704225
EXTRACT: control_change channel=6 control=11 value=123 time=0.0140845
EXTRACT: control_change channel=11 control=11 value=101 time=0.00704225
EXTRACT: control_change channel=11 control=11 value=99 time=0.00704225
EXTRACT: control_change channel=6 control=11 value=124 time=0.00704225
EXTRACT: note_on channel=9 note=82 velocity=35 time=0
EXTRACT: control_change channel=11 control=11 value=95 time=0.0140845
EXTRACT: control_change channel=6 control=11 value=125 time=0.00704225
EXTRACT: control_change channel=11 control=11 value=92 time=0
EXTRACT: control_change channel=11 control=11 value=89 time=0.00704225
EXTRACT: control_change channel=6 control=11 value=126 time=0.00704225
EXTRACT: control_change channel=6 control=11 value=127 time=0.0140845
EXTRACT: control_change channel=11 control=11 value=85 time=0
EXTRACT: control_change channel=11 control=11 value=77 time=0.00704225
EXTRACT: control_change channel=11 control=11 value=74 time=0.00704225
EXTRACT: control_change channel=11 control=11 value=70 time=0.00704225
EXTRACT: control_change channel=6 control=11 value=126 time=0.00704225
EXTRACT: control_change channel=11 control=11 value=60 time=0
EXTRACT: control_change channel=6 control=11 value=125 time=0.0140845
EXTRACT: control_change channel=11 control=11 value=58 time=0
EXTRACT: control_change channel=11 control=11 value=50 time=0.00704225
EXTRACT: note_on channel=9 note=82 velocity=0 time=0.00704225
EXTRACT: control_change channel=11 control=11 value=46 time=0
EXTRACT: control_change channel=6 control=11 value=124 time=0.00704225
EXTRACT: control_change channel=11 control=11 value=43 time=0
EXTRACT: control_change channel=11 control=11 value=36 time=0.00704225
EXTRACT: control_change channel=6 control=11 value=123 time=0.00704225
EXTRACT: control_change channel=11 control=11 value=30 time=0.00704225
EXTRACT: control_change channel=11 control=11 value=28 time=0.00704225
EXTRACT: control_change channel=6 control=11 value=122 time=0.00704225
EXTRACT: control_change channel=11 control=11 value=23 time=0
EXTRACT: control_change channel=11 control=11 value=19 time=0.00704225
EXTRACT: control_change channel=6 control=11 value=121 time=0.00704225
EXTRACT: control_change channel=11 control=11 value=16 time=0
EXTRACT: control_change channel=6 control=11 value=120 time=0.0140845
EXTRACT: control_change channel=11 control=11 value=10 time=0
EXTRACT: control_change channel=11 control=11 value=3 time=0.0140845
EXTRACT: control_change channel=6 control=11 value=119 time=0.00704225
EXTRACT: control_change channel=11 control=11 value=1 time=0
EXTRACT: control_change channel=11 control=11 value=0 time=0.00704225
EXTRACT: control_change channel=6 control=11 value=118 time=0.00704225
EXTRACT: note_on channel=8 note=37 velocity=0 time=0
EXTRACT: note_on channel=8 note=37 velocity=123 time=0
EXTRACT: note_on channel=9 note=44 velocity=80 time=0
EXTRACT: note_on channel=9 note=33 velocity=127 time=0
EXTRACT: note_on channel=9 note=31 velocity=127 time=0
EXTRACT: note_on channel=10 note=31 velocity=73 time=0
EXTRACT: note_on channel=11 note=49 velocity=0 time=0
EXTRACT: control_change channel=6 control=11 value=117 time=0.028169
EXTRACT: control_change channel=6 control=11 value=116 time=0.0140845
EXTRACT: control_change channel=6 control=11 value=115 time=0.02112675
EXTRACT: control_change channel=6 control=11 value=114 time=0.0140845
EXTRACT: control_change channel=6 control=11 value=113 time=0.0140845
EXTRACT: note_on channel=9 note=31 velocity=0 time=0.0140845
EXTRACT: note_on channel=9 note=33 velocity=0 time=0
EXTRACT: note_on channel=9 note=44 velocity=0 time=0
EXTRACT: note_on channel=10 note=31 velocity=0 time=0
EXTRACT: control_change channel=6 control=11 value=112 time=0.00704225
EXTRACT: control_change channel=6 control=11 value=111 time=0.0140845
EXTRACT: control_change channel=6 control=11 value=110 time=0.02112675
EXTRACT: control_change channel=6 control=11 value=109 time=0.0140845
EXTRACT: control_change channel=6 control=11 value=108 time=0.028169
EXTRACT: control_change channel=6 control=11 value=107 time=0.0140845
EXTRACT: note_on channel=9 note=82 velocity=35 time=0.00704225
EXTRACT: control_change channel=6 control=11 value=106 time=0.00704225
EXTRACT: control_change channel=6 control=11 value=105 time=0.02112675
EXTRACT: control_change channel=6 control=11 value=104 time=0.0140845
EXTRACT: control_change channel=6 control=11 value=103 time=0.02112675
EXTRACT: control_change channel=6 control=11 value=102 time=0.0140845
EXTRACT: control_change channel=6 control=11 value=101 time=0.0140845
EXTRACT: note_on channel=9 note=82 velocity=0 time=0.0140845
EXTRACT: control_change channel=6 control=11 value=100 time=0.00704225
EXTRACT: control_change channel=6 control=11 value=99 time=0.02112675
EXTRACT: control_change channel=6 control=11 value=98 time=0.02112675
EXTRACT: control_change channel=6 control=11 value=97 time=0.0140845
EXTRACT: control_change channel=6 control=11 value=96 time=0.02112675
EXTRACT: control_change channel=6 control=11 value=95 time=0.0140845
EXTRACT: note_on channel=9 note=44 velocity=80 time=0.00704225
EXTRACT: control_change channel=6 control=11 value=94 time=0.00704225
EXTRACT: control_change channel=6 control=11 value=93 time=0.02112675
EXTRACT: control_change channel=6 control=11 value=92 time=0.0140845
EXTRACT: control_change channel=6 control=11 value=91 time=0.02112675
EXTRACT: control_change channel=6 control=11 value=90 time=0.02112675
EXTRACT: control_change channel=6 control=11 value=89 time=0.02112675
EXTRACT: note_on channel=9 note=44 velocity=0 time=0
EXTRACT: control_change channel=6 control=11 value=88 time=0.0140845
EXTRACT: control_change channel=6 control=11 value=87 time=0.0140845
EXTRACT: control_change channel=6 control=11 value=86 time=0.02112675
EXTRACT: control_change channel=6 control=11 value=85 time=0.0140845
EXTRACT: control_change channel=6 control=11 value=84 time=0.02112675
EXTRACT: control_change channel=6 control=11 value=83 time=0.0140845
EXTRACT: note_on channel=9 note=33 velocity=127 time=0.00704225
EXTRACT: note_on channel=9 note=82 velocity=35 time=0
EXTRACT: control_change channel=6 control=11 value=82 time=0.00704225
EXTRACT: control_change channel=6 control=11 value=81 time=0.028169
EXTRACT: control_change channel=6 control=11 value=80 time=0.0140845
EXTRACT: control_change channel=6 control=11 value=79 time=0.02112675
EXTRACT: control_change channel=6 control=11 value=78 time=0.0140845
EXTRACT: control_change channel=6 control=11 value=77 time=0.02112675
EXTRACT: note_on channel=9 note=82 velocity=0 time=0
EXTRACT: note_on channel=9 note=33 velocity=0 time=0
EXTRACT: control_change channel=6 control=11 value=76 time=0.0140845
EXTRACT: control_change channel=6 control=11 value=75 time=0.0140845
EXTRACT: control_change channel=6 control=11 value=74 time=0.02112675
EXTRACT: control_change channel=6 control=11 value=73 time=0.0140845
EXTRACT: note_on channel=1 note=59 velocity=56 time=0.00704225
EXTRACT: note_on channel=1 note=64 velocity=0 time=0.00704225
EXTRACT: control_change channel=6 control=11 value=72 time=0.0140845
EXTRACT: note_on channel=5 note=73 velocity=0 time=0.0140845
EXTRACT: note_on channel=5 note=64 velocity=59 time=0
EXTRACT: note_on channel=5 note=71 velocity=59 time=0
EXTRACT: control_change channel=6 control=11 value=71 time=0
EXTRACT: note_on channel=7 note=37 velocity=0 time=0
EXTRACT: note_on channel=7 note=40 velocity=53 time=0
EXTRACT: note_on channel=8 note=37 velocity=0 time=0
EXTRACT: note_on channel=8 note=40 velocity=123 time=0
EXTRACT: note_on channel=9 note=44 velocity=80 time=0
EXTRACT: control_change channel=6 control=11 value=70 time=0.02112675
EXTRACT: control_change channel=6 control=11 value=69 time=0.0140845
EXTRACT: control_change channel=6 control=11 value=68 time=0.0140845
EXTRACT: control_change channel=6 control=11 value=67 time=0.02112675
EXTRACT: control_change channel=6 control=11 value=66 time=0.0140845
EXTRACT: control_change channel=6 control=11 value=65 time=0.02112675
EXTRACT: note_on channel=9 note=44 velocity=0 time=0
EXTRACT: control_change channel=6 control=11 value=64 time=0.0140845
EXTRACT: control_change channel=6 control=11 value=63 time=0.028169
EXTRACT: control_change channel=6 control=11 value=62 time=0.0140845
EXTRACT: control_change channel=6 control=11 value=61 time=0.0140845
EXTRACT: control_change channel=6 control=11 value=60 time=0.02112675
EXTRACT: control_change channel=6 control=11 value=59 time=0.0140845
EXTRACT: note_on channel=9 note=33 velocity=42 time=0
EXTRACT: note_on channel=9 note=82 velocity=35 time=0
EXTRACT: control_change channel=6 control=11 value=58 time=0.02112675
EXTRACT: control_change channel=6 control=11 value=57 time=0.0140845
EXTRACT: control_change channel=6 control=11 value=56 time=0.0140845
EXTRACT: control_change channel=6 control=11 value=55 time=0.02112675
EXTRACT: control_change channel=6 control=11 value=54 time=0.02112675
EXTRACT: note_on channel=9 note=82 velocity=0 time=0.0140845
EXTRACT: note_on channel=9 note=33 velocity=0 time=0
EXTRACT: control_change channel=6 control=11 value=53 time=0.00704225
EXTRACT: control_change channel=6 control=11 value=52 time=0.0140845
EXTRACT: control_change channel=6 control=11 value=51 time=0.02112675
EXTRACT: control_change channel=6 control=11 value=50 time=0.0140845
EXTRACT: control_change channel=6 control=11 value=49 time=0.0140845
EXTRACT: control_change channel=6 control=11 value=48 time=0.02112675
EXTRACT: control_change channel=6 control=11 value=47 time=0.0140845
EXTRACT: note_on channel=8 note=40 velocity=0 time=0
EXTRACT: note_on channel=8 note=40 velocity=123 time=0
EXTRACT: note_on channel=9 note=33 velocity=127 time=0
EXTRACT: note_on channel=9 note=44 velocity=80 time=0
EXTRACT: control_change channel=6 control=11 value=46 time=0.02112675
EXTRACT: control_change channel=6 control=11 value=45 time=0.02112675
EXTRACT: control_change channel=6 control=11 value=44 time=0.02112675
EXTRACT: control_change channel=6 control=11 value=43 time=0.0140845
EXTRACT: control_change channel=6 control=11 value=42 time=0.0140845
EXTRACT: note_on channel=9 note=44 velocity=0 time=0.0140845
EXTRACT: note_on channel=9 note=33 velocity=0 time=0
EXTRACT: control_change channel=6 control=11 value=41 time=0.00704225
EXTRACT: control_change channel=6 control=11 value=40 time=0.0140845
EXTRACT: control_change channel=6 control=11 value=39 time=0.02112675
EXTRACT: control_change channel=6 control=11 value=38 time=0.0140845
EXTRACT: control_change channel=6 control=11 value=37 time=0.0140845
EXTRACT: control_change channel=6 control=11 value=36 time=0.028169
EXTRACT: note_on channel=8 note=40 velocity=0 time=0.00704225
EXTRACT: note_on channel=8 note=40 velocity=123 time=0
EXTRACT: note_on channel=9 note=82 velocity=35 time=0
EXTRACT: control_change channel=6 control=11 value=35 time=0.00704225
EXTRACT: control_change channel=6 control=11 value=34 time=0.02112675
EXTRACT: control_change channel=6 control=11 value=33 time=0.0140845
EXTRACT: control_change channel=6 control=11 value=32 time=0.02112675
EXTRACT: control_change channel=6 control=11 value=31 time=0.0140845
EXTRACT: control_change channel=6 control=11 value=30 time=0.0140845
EXTRACT: note_on channel=9 note=82 velocity=0 time=0.0140845
EXTRACT: control_change channel=6 control=11 value=29 time=0.00704225
EXTRACT: control_change channel=6 control=11 value=28 time=0.0140845
EXTRACT: control_change channel=6 control=11 value=27 time=0.028169
EXTRACT: control_change channel=6 control=11 value=26 time=0.0140845
EXTRACT: control_change channel=6 control=11 value=25 time=0.02112675
EXTRACT: control_change channel=6 control=11 value=24 time=0.0140845
EXTRACT: note_on channel=8 note=40 velocity=0 time=0.00704225
EXTRACT: note_on channel=8 note=40 velocity=123 time=0
EXTRACT: note_on channel=9 note=31 velocity=127 time=0
EXTRACT: note_on channel=9 note=33 velocity=127 time=0
EXTRACT: note_on channel=9 note=44 velocity=80 time=0
EXTRACT: note_on channel=10 note=31 velocity=73 time=0
EXTRACT: control_change channel=6 control=11 value=23 time=0.00704225
EXTRACT: control_change channel=6 control=11 value=22 time=0.02112675
EXTRACT: control_change channel=6 control=11 value=21 time=0.0140845
EXTRACT: control_change channel=6 control=11 value=20 time=0.02112675
EXTRACT: control_change channel=6 control=11 value=19 time=0.0140845
EXTRACT: control_change channel=6 control=11 value=18 time=0.028169
EXTRACT: note_on channel=9 note=44 velocity=0 time=0
EXTRACT: note_on channel=9 note=33 velocity=0 time=0
EXTRACT: note_on channel=9 note=31 velocity=0 time=0
EXTRACT: note_on channel=10 note=31 velocity=0 time=0
EXTRACT: control_change channel=6 control=11 value=17 time=0.0140845
EXTRACT: control_change channel=6 control=11 value=16 time=0.0140845
EXTRACT: control_change channel=6 control=11 value=15 time=0.02112675
EXTRACT: control_change channel=6 control=11 value=14 time=0.0140845
EXTRACT: note_on channel=6 note=64 velocity=0 time=0.0140845
EXTRACT: control_change channel=6 control=11 value=13 time=0.00704225
EXTRACT: control_change channel=6 control=11 value=12 time=0.0140845
EXTRACT: note_on channel=9 note=82 velocity=35 time=0.00704225
EXTRACT: control_change channel=6 control=11 value=11 time=0.00704225
EXTRACT: control_change channel=6 control=11 value=10 time=0.02112675
EXTRACT: control_change channel=6 control=11 value=9 time=0.02112675
EXTRACT: control_change channel=6 control=11 value=8 time=0.02112675
EXTRACT: control_change channel=6 control=11 value=7 time=0.0140845
EXTRACT: control_change channel=6 control=11 value=6 time=0.02112675
EXTRACT: note_on channel=9 note=82 velocity=0 time=0
EXTRACT: control_change channel=6 control=11 value=5 time=0.0140845
EXTRACT: control_change channel=6 control=11 value=4 time=0.0140845
EXTRACT: control_change channel=6 control=11 value=3 time=0.02112675
EXTRACT: control_change channel=6 control=11 value=2 time=0.0140845
EXTRACT: control_change channel=6 control=11 value=1 time=0.02112675
EXTRACT: control_change channel=6 control=11 value=0 time=0.0140845
EXTRACT: note_on channel=8 note=40 velocity=0 time=0.00704225
EXTRACT: note_on channel=8 note=40 velocity=123 time=0
EXTRACT: note_on channel=9 note=44 velocity=80 time=0
EXTRACT: note_on channel=9 note=44 velocity=0 time=0.10563375
EXTRACT: note_on channel=9 note=82 velocity=35 time=0.10563375
EXTRACT: control_change channel=11 control=11 value=126 time=0.00704225
EXTRACT: note_on channel=9 note=82 velocity=0 time=0.0985915
EXTRACT: note_on channel=1 note=68 velocity=0 time=0.04929575
EXTRACT: note_on channel=1 note=59 velocity=0 time=0.00704225
EXTRACT: note_on channel=1 note=57 velocity=75 time=0
EXTRACT: note_on channel=1 note=61 velocity=75 time=0
EXTRACT: note_on channel=5 note=71 velocity=0 time=0.04929575
EXTRACT: note_on channel=5 note=64 velocity=0 time=0
EXTRACT: note_on channel=5 note=68 velocity=0 time=0
EXTRACT: note_on channel=5 note=61 velocity=43 time=0
EXTRACT: note_on channel=5 note=69 velocity=43 time=0
EXTRACT: note_on channel=5 note=64 velocity=43 time=0
EXTRACT: note_on channel=7 note=40 velocity=0 time=0
EXTRACT: note_on channel=8 note=40 velocity=0 time=0
EXTRACT: note_on channel=8 note=33 velocity=123 time=0
EXTRACT: note_on channel=9 note=44 velocity=80 time=0
EXTRACT: note_on channel=9 note=33 velocity=127 time=0
EXTRACT: note_on channel=2 note=64 velocity=59 time=0.00704225
EXTRACT: note_on channel=9 note=33 velocity=0 time=0.0985915
EXTRACT: note_on channel=9 note=44 velocity=0 time=0
EXTRACT: note_on channel=9 note=82 velocity=35 time=0.10563375
EXTRACT: control_change channel=11 control=74 value=39 time=0
EXTRACT: note_on channel=9 note=82 velocity=0 time=0.10563375
EXTRACT: note_on channel=9 note=44 velocity=80 time=0.10563375
EXTRACT: control_change channel=11 control=93 value=37 time=0.02112675
EXTRACT: note_on channel=9 note=44 velocity=0 time=0.084507
EXTRACT: control_change channel=11 control=94 value=41 time=0
EXTRACT: control_change channel=11 control=1 value=29 time=0.00704225
EXTRACT: note_on channel=9 note=82 velocity=35 time=0.0985915
EXTRACT: note_on channel=9 note=82 velocity=0 time=0.10563375
EXTRACT: note_on channel=8 note=33 velocity=0 time=0.10563375
EXTRACT: note_on channel=8 note=33 velocity=123 time=0
EXTRACT: note_on channel=9 note=31 velocity=127 time=0
EXTRACT: note_on channel=9 note=44 velocity=80 time=0
EXTRACT: note_on channel=9 note=33 velocity=127 time=0
EXTRACT: note_on channel=10 note=31 velocity=73 time=0
EXTRACT: note_on channel=11 note=59 velocity=127 time=0.0140845
EXTRACT: note_on channel=9 note=33 velocity=0 time=0.09154925
EXTRACT: note_on channel=9 note=44 velocity=0 time=0
EXTRACT: note_on channel=9 note=31 velocity=0 time=0
EXTRACT: note_on channel=10 note=31 velocity=0 time=0
EXTRACT: note_on channel=9 note=82 velocity=35 time=0.10563375
EXTRACT: note_on channel=11 note=59 velocity=0 time=0.0704225
EXTRACT: note_on channel=11 note=61 velocity=127 time=0
EXTRACT: control_change channel=11 control=11 value=126 time=0
EXTRACT: control_change channel=11 control=11 value=124 time=0.0140845
EXTRACT: note_on channel=9 note=82 velocity=0 time=0.02112675
EXTRACT: control_change channel=11 control=11 value=123 time=0.00704225
EXTRACT: control_change channel=11 control=11 value=122 time=0.00704225
EXTRACT: control_change channel=11 control=11 value=119 time=0.03521125
EXTRACT: control_change channel=11 control=11 value=117 time=0.0140845
EXTRACT: note_on channel=9 note=44 velocity=80 time=0.0422535
EXTRACT: control_change channel=11 control=11 value=116 time=0.0140845
EXTRACT: control_change channel=11 control=11 value=114 time=0.04929575
EXTRACT: note_on channel=9 note=44 velocity=0 time=0.0422535
EXTRACT: control_change channel=6 control=1 value=72 time=0.0140845
EXTRACT: control_change channel=11 control=11 value=113 time=0.00704225
EXTRACT: control_change channel=11 control=11 value=112 time=0.0140845
EXTRACT: control_change channel=11 control=11 value=111 time=0.00704225
EXTRACT: control_change channel=11 control=11 value=109 time=0.0140845
EXTRACT: control_change channel=11 control=11 value=108 time=0.02112675
EXTRACT: control_change channel=11 control=11 value=106 time=0.0140845
EXTRACT: note_on channel=8 note=33 velocity=0 time=0.0140845
EXTRACT: note_on channel=8 note=33 velocity=123 time=0
EXTRACT: note_on channel=9 note=33 velocity=127 time=0
EXTRACT: note_on channel=9 note=82 velocity=35 time=0
EXTRACT: control_change channel=11 control=11 value=104 time=0
EXTRACT: control_change channel=11 control=11 value=103 time=0.02112675
EXTRACT: control_change channel=11 control=11 value=101 time=0.04929575
EXTRACT: control_change channel=11 control=11 value=100 time=0.00704225
EXTRACT: control_change channel=11 control=11 value=99 time=0.00704225
EXTRACT: note_on channel=9 note=82 velocity=0 time=0.02112675
EXTRACT: note_on channel=9 note=33 velocity=0 time=0
EXTRACT: control_change channel=11 control=11 value=98 time=0.00704225
EXTRACT: control_change channel=11 control=11 value=97 time=0.00704225
EXTRACT: control_change channel=11 control=11 value=96 time=0.00704225
EXTRACT: control_change channel=11 control=11 value=95 time=0.02112675
EXTRACT: control_change channel=6 control=11 value=2 time=0.0140845
EXTRACT: control_change channel=11 control=11 value=94 time=0
EXTRACT: control_change channel=6 control=11 value=3 time=0.00704225
EXTRACT: control_change channel=11 control=11 value=93 time=0
EXTRACT: note_on channel=1 note=57 velocity=0 time=0.02112675
EXTRACT: note_on channel=1 note=56 velocity=78 time=0
EXTRACT: control_change channel=11 control=11 value=92 time=0
EXTRACT: control_change channel=6 control=11 value=4 time=0.00704225
EXTRACT: pitchwheel channel=11 pitch=-94 time=0.00704225
EXTRACT: control_change channel=11 control=11 value=98 time=0
EXTRACT: note_on channel=5 note=64 velocity=0 time=0.00704225
EXTRACT: note_on channel=5 note=69 velocity=0 time=0
EXTRACT: note_on channel=5 note=61 velocity=0 time=0
EXTRACT: note_on channel=5 note=68 velocity=43 time=0
EXTRACT: note_on channel=5 note=61 velocity=43 time=0
EXTRACT: control_change channel=6 control=11 value=5 time=0
EXTRACT: note_on channel=8 note=33 velocity=0 time=0
EXTRACT: note_on channel=8 note=32 velocity=123 time=0
EXTRACT: note_on channel=9 note=44 velocity=80 time=0
EXTRACT: note_on channel=11 note=61 velocity=0 time=0
EXTRACT: note_on channel=11 note=61 velocity=127 time=0
EXTRACT: pitchwheel channel=11 pitch=-188 time=0
EXTRACT: note_on channel=5 note=64 velocity=43 time=0.00704225
EXTRACT: note_on channel=2 note=68 velocity=57 time=0.00704225
EXTRACT: pitchwheel channel=11 pitch=-469 time=0
EXTRACT: control_change channel=6 control=11 value=6 time=0.00704225
EXTRACT: control_change channel=11 control=11 value=104 time=0
EXTRACT: control_change channel=11 control=11 value=107 time=0.00704225
EXTRACT: pitchwheel channel=11 pitch=-844 time=0.00704225
EXTRACT: control_change channel=11 control=11 value=108 time=0
EXTRACT: control_change channel=6 control=11 value=7 time=0.00704225
EXTRACT: control_change channel=11 control=11 value=111 time=0
EXTRACT: pitchwheel channel=11 pitch=-1407 time=0.0140845
EXTRACT: control_change channel=11 control=11 value=115 time=0
EXTRACT: control_change channel=6 control=11 value=8 time=0.00704225
EXTRACT: pitchwheel channel=11 pitch=-1454 time=0
EXTRACT: control_change channel=11 control=11 value=118 time=0
EXTRACT: pitchwheel channel=11 pitch=-938 time=0.00704225
EXTRACT: control_change channel=11 control=11 value=119 time=0
EXTRACT: control_change channel=6 control=11 value=9 time=0.00704225
EXTRACT: control_change channel=11 control=11 value=121 time=0
EXTRACT: pitchwheel channel=11 pitch=-563 time=0.00704225
EXTRACT: control_change channel=11 control=11 value=126 time=0
EXTRACT: control_change channel=11 control=11 value=124 time=0.0140845
EXTRACT: control_change channel=6 control=11 value=10 time=0.00704225
EXTRACT: note_on channel=9 note=44 velocity=0 time=0
EXTRACT: pitchwheel channel=11 pitch=-94 time=0
EXTRACT: pitchwheel channel=11 pitch=375 time=0.00704225
EXTRACT: control_change channel=6 control=11 value=11 time=0.00704225
EXTRACT: control_change channel=6 control=11 value=12 time=0.0140845
EXTRACT: note_on channel=6 note=64 velocity=100 time=0.02112675
EXTRACT: control_change channel=6 control=11 value=13 time=0.00704225
EXTRACT: control_change channel=11 control=11 value=123 time=0.00704225
EXTRACT: pitchwheel channel=11 pitch=1312 time=0
EXTRACT: control_change channel=6 control=11 value=14 time=0.00704225
EXTRACT: pitchwheel channel=11 pitch=1406 time=0.00704225
EXTRACT: pitchwheel channel=11 pitch=187 time=0.00704225
EXTRACT: control_change channel=6 control=11 value=15 time=0.00704225
EXTRACT: control_change channel=11 control=11 value=122 time=0
EXTRACT: pitchwheel channel=11 pitch=-985 time=0
EXTRACT: pitchwheel channel=11 pitch=-750 time=0.00704225
EXTRACT: control_change channel=6 control=11 value=16 time=0.00704225
EXTRACT: note_on channel=9 note=33 velocity=49 time=0
EXTRACT: note_on channel=9 note=82 velocity=35 time=0
EXTRACT: pitchwheel channel=11 pitch=-94 time=0.0140845
EXTRACT: pitchwheel channel=11 pitch=468 time=0.00704225
EXTRACT: control_change channel=6 control=11 value=17 time=0.00704225
EXTRACT: pitchwheel channel=11 pitch=562 time=0
EXTRACT: control_change channel=6 control=11 value=18 time=0.0140845
EXTRACT: pitchwheel channel=11 pitch=234 time=0
EXTRACT: control_change channel=11 control=11 value=120 time=0.00704225
EXTRACT: pitchwheel channel=11 pitch=47 time=0.00704225
EXTRACT: control_change channel=6 control=11 value=19 time=0.00704225
EXTRACT: control_change channel=11 control=11 value=119 time=0
EXTRACT: pitchwheel channel=11 pitch=234 time=0.00704225
EXTRACT: pitchwheel channel=11 pitch=609 time=0.00704225
EXTRACT: control_change channel=6 control=11 value=20 time=0.00704225
EXTRACT: control_change channel=11 control=11 value=118 time=0
EXTRACT: pitchwheel channel=11 pitch=890 time=0
EXTRACT: control_change channel=11 control=11 value=117 time=0.00704225
EXTRACT: pitchwheel channel=11 pitch=1172 time=0.00704225
EXTRACT: control_change channel=6 control=11 value=21 time=0.00704225
EXTRACT: note_on channel=9 note=82 velocity=0 time=0
EXTRACT: note_on channel=9 note=33 velocity=0 time=0
EXTRACT: control_change channel=11 control=11 value=116 time=0
EXTRACT: control_change channel=11 control=11 value=115 time=0.00704225
EXTRACT: pitchwheel channel=11 pitch=1265 time=0
EXTRACT: control_change channel=6 control=11 value=22 time=0.00704225
EXTRACT: pitchwheel channel=11 pitch=843 time=0
EXTRACT: pitchwheel channel=11 pitch=797 time=0.00704225
EXTRACT: control_change channel=11 control=11 value=114 time=0.00704225
EXTRACT: control_change channel=6 control=11 value=23 time=0.0140845
EXTRACT: control_change channel=11 control=11 value=113 time=0
EXTRACT: pitchwheel channel=11 pitch=422 time=0
EXTRACT: control_change channel=11 control=11 value=112 time=0.00704225
EXTRACT: pitchwheel channel=11 pitch=-94 time=0
EXTRACT: control_change channel=6 control=11 value=24 time=0.00704225
EXTRACT: pitchwheel channel=11 pitch=47 time=0
EXTRACT: control_change channel=11 control=11 value=111 time=0.00704225
EXTRACT: pitchwheel channel=11 pitch=140 time=0
EXTRACT: control_change channel=6 control=11 value=25 time=0.00704225
EXTRACT: control_change channel=11 control=11 value=110 time=0.00704225
EXTRACT: pitchwheel channel=11 pitch=281 time=0
EXTRACT: pitchwheel channel=11 pitch=187 time=0.00704225
EXTRACT: control_change channel=6 control=11 value=26 time=0.0140845
EXTRACT: pitchwheel channel=11 pitch=0 time=0
EXTRACT: note_on channel=9 note=33 velocity=127 time=0.00704225
EXTRACT: note_on channel=9 note=44 velocity=80 time=0
EXTRACT: control_change channel=11 control=11 value=109 time=0
EXTRACT: control_change channel=6 control=11 value=27 time=0.00704225
EXTRACT: pitchwheel channel=11 pitch=-128 time=0
EXTRACT: control_change channel=11 control=11 value=108 time=0
EXTRACT: control_change channel=11 control=11 value=107 time=0.00704225
EXTRACT: control_change channel=6 control=11 value=28 time=0.0140845
EXTRACT: pitchwheel channel=11 pitch=-256 time=0
EXTRACT: control_change channel=6 control=11 value=29 time=0.0140845
EXTRACT: pitchwheel channel=11 pitch=-384 time=0
EXTRACT: control_change channel=11 control=11 value=106 time=0
EXTRACT: pitchwheel channel=11 pitch=-512 time=0.00704225
EXTRACT: control_change channel=11 control=11 value=105 time=0
EXTRACT: control_change channel=11 control=11 value=104 time=0.0140845
EXTRACT: control_change channel=6 control=11 value=30 time=0.00704225
EXTRACT: pitchwheel channel=11 pitch=-640 time=0
EXTRACT: control_change channel=11 control=11 value=103 time=0
EXTRACT: pitchwheel channel=11 pitch=-768 time=0.00704225
EXTRACT: control_change channel=6 control=11 value=31 time=0.00704225
EXTRACT: pitchwheel channel=11 pitch=-1024 time=0
EXTRACT: control_change channel=11 control=11 value=102 time=0
EXTRACT: control_change channel=11 control=11 value=101 time=0.0140845
EXTRACT: control_change channel=6 control=11 value=32 time=0.00704225
EXTRACT: note_on channel=9 note=44 velocity=0 time=0
EXTRACT: note_on channel=9 note=33 velocity=0 time=0
EXTRACT: pitchwheel channel=11 pitch=-1152 time=0.00704225
EXTRACT: control_change channel=11 control=11 value=99 time=0
EXTRACT: pitchwheel channel=11 pitch=-1408 time=0.00704225
EXTRACT: control_change channel=6 control=11 value=33 time=0.00704225
EXTRACT: pitchwheel channel=11 pitch=-1536 time=0
EXTRACT: control_change channel=11 control=11 value=98 time=0.00704225
EXTRACT: control_change channel=11 control=11 value=97 time=0.00704225
EXTRACT: control_change channel=6 control=11 value=34 time=0.00704225
EXTRACT: pitchwheel channel=11 pitch=-1664 time=0
EXTRACT: control_change channel=11 control=11 value=96 time=0
EXTRACT: pitchwheel channel=11 pitch=-1920 time=0.00704225
EXTRACT: control_change channel=6 control=11 value=35 time=0.00704225
EXTRACT: pitchwheel channel=11 pitch=-2048 time=0
EXTRACT: control_change channel=11 control=11 value=95 time=0.00704225
EXTRACT: pitchwheel channel=11 pitch=-2304 time=0.00704225
EXTRACT: control_change channel=11 control=11 value=94 time=0
EXTRACT: control_change channel=11 control=11 value=93 time=0.00704225
EXTRACT: control_change channel=6 control=11 value=36 time=0.00704225
EXTRACT: pitchwheel channel=11 pitch=-2432 time=0
EXTRACT: control_change channel=11 control=11 value=92 time=0
EXTRACT: pitchwheel channel=11 pitch=-2560 time=0.00704225
EXTRACT: control_change channel=11 control=11 value=91 time=0
EXTRACT: control_change channel=6 control=11 value=37 time=0.00704225
EXTRACT: note_on channel=9 note=82 velocity=35 time=0.00704225
EXTRACT: pitchwheel channel=11 pitch=-2688 time=0
EXTRACT: control_change channel=11 control=11 value=90 time=0
EXTRACT: control_change channel=6 control=11 value=38 time=0.00704225
EXTRACT: pitchwheel channel=11 pitch=-3072 time=0
EXTRACT: control_change channel=11 control=11 value=89 time=0.00704225
EXTRACT: pitchwheel channel=11 pitch=-3200 time=0.0140845
EXTRACT: control_change channel=11 control=11 value=88 time=0
EXTRACT: control_change channel=6 control=11 value=39 time=0.00704225
EXTRACT: pitchwheel channel=11 pitch=-3456 time=0
EXTRACT: pitchwheel channel=11 pitch=-3584 time=0.00704225
EXTRACT: control_change channel=6 control=11 value=40 time=0.00704225
EXTRACT: pitchwheel channel=11 pitch=-3712 time=0
EXTRACT: control_change channel=11 control=11 value=89 time=0
EXTRACT: control_change channel=11 control=11 value=91 time=0.00704225
EXTRACT: pitchwheel channel=11 pitch=-3840 time=0.00704225
EXTRACT: control_change channel=11 control=11 value=92 time=0
EXTRACT: control_change channel=6 control=11 value=41 time=0.00704225
EXTRACT: pitchwheel channel=11 pitch=-4096 time=0
EXTRACT: control_change channel=11 control=11 value=93 time=0
EXTRACT: pitchwheel channel=11 pitch=-4480 time=0.00704225
EXTRACT: control_change channel=6 control=11 value=42 time=0.00704225
EXTRACT: pitchwheel channel=11 pitch=-4608 time=0
EXTRACT: pitchwheel channel=11 pitch=-4864 time=0.00704225
EXTRACT: control_change channel=11 control=11 value=92 time=0.00704225
EXTRACT: note_on channel=9 note=82 velocity=0 time=0.00704225
EXTRACT: pitchwheel channel=11 pitch=-4992 time=0
EXTRACT: control_change channel=11 control=11 value=91 time=0
EXTRACT: control_change channel=6 control=11 value=43 time=0.00704225
EXTRACT: pitchwheel channel=11 pitch=-5248 time=0
EXTRACT: control_change channel=11 control=11 value=90 time=0
EXTRACT: pitchwheel channel=11 pitch=-5376 time=0.00704225
EXTRACT: control_change channel=6 control=11 value=44 time=0.00704225
EXTRACT: pitchwheel channel=11 pitch=-5504 time=0
EXTRACT: control_change channel=11 control=11 value=89 time=0
EXTRACT: pitchwheel channel=11 pitch=-5888 time=0.00704225
EXTRACT: control_change channel=11 control=11 value=87 time=0
EXTRACT: control_change channel=6 control=11 value=45 time=0.0140845
EXTRACT: pitchwheel channel=11 pitch=-8064 time=0
EXTRACT: control_change channel=11 control=11 value=85 time=0
EXTRACT: control_change channel=6 control=94 value=56 time=0.0140845
EXTRACT: control_change channel=6 control=11 value=46 time=0.00704225
EXTRACT: control_change channel=11 control=11 value=83 time=0
EXTRACT: control_change channel=11 control=11 value=82 time=0.00704225
EXTRACT: control_change channel=6 control=11 value=47 time=0.0140845
EXTRACT: control_change channel=11 control=11 value=93 time=0.00704225
EXTRACT: control_change channel=6 control=11 value=48 time=0.00704225
EXTRACT: note_on channel=8 note=32 velocity=0 time=0.00704225
EXTRACT: note_on channel=8 note=32 velocity=123 time=0
EXTRACT: note_on channel=9 note=44 velocity=80 time=0
EXTRACT: note_on channel=9 note=31 velocity=127 time=0
EXTRACT: note_on channel=9 note=33 velocity=127 time=0
EXTRACT: note_on channel=10 note=31 velocity=73 time=0
EXTRACT: note_on channel=11 note=61 velocity=0 time=0
EXTRACT: pitchwheel channel=11 pitch=0 time=0
EXTRACT: control_change channel=11 control=11 value=127 time=0
EXTRACT: note_on channel=11 note=59 velocity=127 time=0
EXTRACT: control_change channel=6 control=11 value=49 time=0.02112675
EXTRACT: control_change channel=6 control=11 value=50 time=0.0140845
EXTRACT: control_change channel=6 control=11 value=51 time=0.0140845
EXTRACT: control_change channel=6 control=11 value=52 time=0.028169
EXTRACT: control_change channel=6 control=11 value=53 time=0.0140845
EXTRACT: note_on channel=9 note=33 velocity=0 time=0.0140845
EXTRACT: note_on channel=9 note=31 velocity=0 time=0
EXTRACT: note_on channel=9 note=44 velocity=0 time=0
EXTRACT: note_on channel=10 note=31 velocity=0 time=0
EXTRACT: control_change channel=6 control=11 value=54 time=0.00704225
EXTRACT: control_change channel=6 control=11 value=55 time=0.0140845
EXTRACT: control_change channel=6 control=11 value=56 time=0.028169
EXTRACT: control_change channel=6 control=11 value=57 time=0.0140845
EXTRACT: control_change channel=6 control=11 value=58 time=0.02112675
EXTRACT: control_change channel=6 control=11 value=59 time=0.02112675
EXTRACT: note_on channel=9 note=82 velocity=35 time=0
EXTRACT: control_change channel=6 control=11 value=60 time=0.02112675
EXTRACT: control_change channel=6 control=11 value=61 time=0.0140845
EXTRACT: note_on channel=11 note=59 velocity=0 time=0.02112675
EXTRACT: pitchwheel channel=11 pitch=-8064 time=0
EXTRACT: control_change channel=6 control=11 value=62 time=0.00704225
EXTRACT: pitchwheel channel=11 pitch=-7168 time=0
EXTRACT: pitchwheel channel=11 pitch=-6784 time=0.00704225
EXTRACT: note_on channel=11 note=61 velocity=127 time=0
EXTRACT: control_change channel=6 control=11 value=63 time=0.00704225
EXTRACT: pitchwheel channel=11 pitch=-6400 time=0
EXTRACT: control_change channel=11 control=11 value=126 time=0.00704225
EXTRACT: pitchwheel channel=11 pitch=-6272 time=0
EXTRACT: control_change channel=6 control=11 value=64 time=0.00704225
EXTRACT: control_change channel=11 control=11 value=124 time=0
EXTRACT: pitchwheel channel=11 pitch=-6016 time=0.00704225
EXTRACT: note_on channel=9 note=82 velocity=0 time=0.00704225
EXTRACT: control_change channel=11 control=11 value=123 time=0
EXTRACT: pitchwheel channel=11 pitch=-5760 time=0
EXTRACT: control_change channel=6 control=11 value=65 time=0.00704225
EXTRACT: control_change channel=11 control=11 value=122 time=0
EXTRACT: pitchwheel channel=11 pitch=-5248 time=0
EXTRACT: control_change channel=11 control=11 value=121 time=0.00704225
EXTRACT: pitchwheel channel=11 pitch=-4992 time=0
EXTRACT: control_change channel=11 control=11 value=119 time=0.00704225
EXTRACT: pitchwheel channel=11 pitch=-4608 time=0
EXTRACT: control_change channel=6 control=11 value=66 time=0.00704225
EXTRACT: control_change channel=11 control=11 value=118 time=0
EXTRACT: pitchwheel channel=11 pitch=-4480 time=0.00704225
EXTRACT: control_change channel=11 control=11 value=117 time=0.00704225
EXTRACT: pitchwheel channel=11 pitch=-4096 time=0
EXTRACT: control_change channel=6 control=11 value=67 time=0.00704225
EXTRACT: control_change channel=11 control=11 value=116 time=0
EXTRACT: pitchwheel channel=11 pitch=-3968 time=0.00704225
EXTRACT: control_change channel=6 control=11 value=68 time=0.00704225
EXTRACT: control_change channel=11 control=11 value=115 time=0
EXTRACT: pitchwheel channel=11 pitch=-3712 time=0
EXTRACT: control_change channel=11 control=11 value=114 time=0.00704225
EXTRACT: pitchwheel channel=11 pitch=-3456 time=0.00704225
EXTRACT: pitchwheel channel=11 pitch=-2688 time=0.00704225
EXTRACT: control_change channel=6 control=11 value=69 time=0.00704225
EXTRACT: control_change channel=11 control=11 value=113 time=0
EXTRACT: control_change channel=11 control=11 value=112 time=0.00704225
EXTRACT: pitchwheel channel=11 pitch=-2432 time=0
EXTRACT: control_change channel=6 control=11 value=70 time=0.00704225
EXTRACT: note_on channel=8 note=32 velocity=0 time=0
EXTRACT: note_on channel=8 note=32 velocity=123 time=0
EXTRACT: note_on channel=9 note=44 velocity=80 time=0
EXTRACT: pitchwheel channel=11 pitch=-2176 time=0
EXTRACT: pitchwheel channel=11 pitch=-1920 time=0.0140845
EXTRACT: control_change channel=6 control=11 value=71 time=0.00704225
EXTRACT: control_change channel=11 control=11 value=111 time=0
EXTRACT: pitchwheel channel=11 pitch=-1664 time=0.00704225
EXTRACT: control_change channel=11 control=11 value=110 time=0.00704225
EXTRACT: pitchwheel channel=11 pitch=-1280 time=0
EXTRACT: control_change channel=6 control=11 value=72 time=0.00704225
EXTRACT: pitchwheel channel=11 pitch=-1152 time=0
EXTRACT: control_change channel=11 control=11 value=109 time=0.00704225
EXTRACT: control_change channel=6 control=11 value=73 time=0.0140845
EXTRACT: pitchwheel channel=11 pitch=-896 time=0
EXTRACT: control_change channel=11 control=11 value=108 time=0.00704225
EXTRACT: pitchwheel channel=11 pitch=-640 time=0
EXTRACT: control_change channel=6 control=11 value=74 time=0.00704225
EXTRACT: pitchwheel channel=11 pitch=-384 time=0
EXTRACT: pitchwheel channel=11 pitch=-128 time=0.00704225
EXTRACT: control_change channel=11 control=11 value=107 time=0.00704225
EXTRACT: control_change channel=6 control=11 value=75 time=0.0140845
EXTRACT: note_on channel=9 note=44 velocity=0 time=0
EXTRACT: control_change channel=11 control=11 value=106 time=0
EXTRACT: control_change channel=6 control=11 value=76 time=0.0140845
EXTRACT: control_change channel=11 control=11 value=105 time=0
EXTRACT: control_change channel=6 control=11 value=77 time=0.0140845
EXTRACT: control_change channel=11 control=11 value=104 time=0.0140845
EXTRACT: control_change channel=6 control=11 value=78 time=0.00704225
EXTRACT: control_change channel=11 control=11 value=103 time=0.00704225
EXTRACT: control_change channel=11 control=11 value=102 time=0.00704225
EXTRACT: control_change channel=6 control=11 value=79 time=0.00704225
EXTRACT: control_change channel=6 control=11 value=80 time=0.02112675
EXTRACT: control_change channel=11 control=11 value=101 time=0.00704225
EXTRACT: control_change channel=6 control=11 value=81 time=0.00704225
EXTRACT: note_on channel=9 note=82 velocity=35 time=0
EXTRACT: control_change channel=6 control=11 value=82 time=0.028169
EXTRACT: control_change channel=6 control=11 value=83 time=0.0140845
EXTRACT: control_change channel=6 control=11 value=84 time=0.02112675
EXTRACT: control_change channel=6 control=11 value=85 time=0.02112675
EXTRACT: control_change channel=6 control=11 value=86 time=0.02112675
EXTRACT: note_on channel=9 note=82 velocity=0 time=0
EXTRACT: control_change channel=6 control=11 value=87 time=0.0140845
EXTRACT: control_change channel=6 control=11 value=88 time=0.028169
EXTRACT: note_on channel=1 note=61 velocity=0 time=0.0140845
EXTRACT: control_change channel=6 control=11 value=89 time=0
EXTRACT: control_change channel=6 control=11 value=90 time=0.0140845
EXTRACT: note_on channel=2 note=64 velocity=0 time=0.0140845
EXTRACT: control_change channel=11 control=11 value=102 time=0
EXTRACT: control_change channel=6 control=11 value=91 time=0.00704225
EXTRACT: control_change channel=11 control=11 value=103 time=0
EXTRACT: control_change channel=11 control=11 value=104 time=0.00704225
EXTRACT: note_on channel=1 note=56 velocity=78 time=0.00704225
EXTRACT: note_on channel=1 note=49 velocity=78 time=0
EXTRACT: note_on channel=1 note=61 velocity=78 time=0
EXTRACT: note_on channel=2 note=61 velocity=57 time=0
EXTRACT: note_on channel=5 note=61 velocity=0 time=0
EXTRACT: note_on channel=5 note=68 velocity=0 time=0
EXTRACT: note_on channel=5 note=64 velocity=43 time=0
EXTRACT: note_on channel=5 note=68 velocity=43 time=0
EXTRACT: note_on channel=5 note=61 velocity=43 time=0
EXTRACT: note_on channel=7 note=37 velocity=57 time=0
EXTRACT: note_on channel=8 note=32 velocity=0 time=0
EXTRACT: note_on channel=8 note=37 velocity=123 time=0
EXTRACT: note_on channel=9 note=44 velocity=80 time=0
EXTRACT: note_on channel=9 note=33 velocity=127 time=0
EXTRACT: note_on channel=11 note=61 velocity=0 time=0
EXTRACT: control_change channel=11 control=11 value=105 time=0
EXTRACT: note_on channel=11 note=61 velocity=127 time=0
EXTRACT: note_on channel=1 note=56 velocity=0 time=0.00704225
EXTRACT: note_on channel=5 note=64 velocity=0 time=0
EXTRACT: control_change channel=6 control=11 value=92 time=0
EXTRACT: control_change channel=11 control=11 value=107 time=0
EXTRACT: control_change channel=11 control=11 value=111 time=0.0140845
EXTRACT: control_change channel=6 control=11 value=93 time=0.00704225
EXTRACT: control_change channel=11 control=11 value=112 time=0
EXTRACT: control_change channel=11 control=11 value=113 time=0.00704225
EXTRACT: control_change channel=6 control=11 value=94 time=0.00704225
EXTRACT: control_change channel=11 control=11 value=115 time=0
EXTRACT: control_change channel=11 control=11 value=116 time=0.02112675
EXTRACT: control_change channel=6 control=11 value=95 time=0.00704225
EXTRACT: control_change channel=11 control=11 value=117 time=0.00704225
EXTRACT: control_change channel=6 control=11 value=96 time=0.00704225
EXTRACT: control_change channel=6 control=11 value=97 time=0.02112675
EXTRACT: note_on channel=9 note=33 velocity=0 time=0
EXTRACT: note_on channel=9 note=44 velocity=0 time=0
EXTRACT: control_change channel=11 control=11 value=118 time=0.00704225
EXTRACT: control_change channel=11 control=11 value=119 time=0.00704225
EXTRACT: control_change channel=6 control=11 value=98 time=0.00704225
EXTRACT: control_change channel=11 control=11 value=120 time=0.00704225
EXTRACT: control_change channel=6 control=11 value=99 time=0.0140845
EXTRACT: control_change channel=11 control=11 value=121 time=0.00704225
EXTRACT: control_change channel=6 control=11 value=100 time=0.00704225
EXTRACT: control_change channel=11 control=11 value=122 time=0
EXTRACT: control_change channel=6 control=11 value=101 time=0.028169
EXTRACT: control_change channel=11 control=11 value=123 time=0.00704225
EXTRACT: control_change channel=6 control=11 value=102 time=0.00704225
EXTRACT: note_on channel=9 note=82 velocity=35 time=0.00704225
EXTRACT: control_change channel=6 control=11 value=103 time=0.00704225
EXTRACT: control_change channel=6 control=11 value=104 time=0.02112675
EXTRACT: pitchwheel channel=11 pitch=-128 time=0
EXTRACT: pitchwheel channel=11 pitch=-256 time=0.0140845
EXTRACT: control_change channel=6 control=11 value=105 time=0.00704225
EXTRACT: pitchwheel channel=11 pitch=-384 time=0
EXTRACT: pitchwheel channel=11 pitch=-640 time=0.0140845
EXTRACT: control_change channel=6 control=11 value=106 time=0.00704225
EXTRACT: pitchwheel channel=11 pitch=-768 time=0
EXTRACT: pitchwheel channel=11 pitch=-896 time=0.00704225
EXTRACT: control_change channel=6 control=11 value=107 time=0.00704225
EXTRACT: pitchwheel channel=11 pitch=-1152 time=0
EXTRACT: pitchwheel channel=11 pitch=-1280 time=0.00704225
EXTRACT: note_on channel=9 note=82 velocity=0 time=0.0140845
EXTRACT: pitchwheel channel=11 pitch=-1408 time=0
EXTRACT: control_change channel=6 control=11 value=108 time=0.00704225
EXTRACT: pitchwheel channel=11 pitch=-1664 time=0
EXTRACT: pitchwheel channel=11 pitch=-1792 time=0.00704225
EXTRACT: control_change channel=6 control=11 value=109 time=0.00704225
EXTRACT: pitchwheel channel=11 pitch=-1920 time=0
EXTRACT: control_change channel=6 control=11 value=110 time=0.02112675
EXTRACT: pitchwheel channel=11 pitch=-2176 time=0
EXTRACT: pitchwheel channel=11 pitch=-2304 time=0.00704225
EXTRACT: pitchwheel channel=11 pitch=-2432 time=0.00704225
EXTRACT: control_change channel=6 control=11 value=111 time=0.00704225
EXTRACT: pitchwheel channel=11 pitch=-2560 time=0
EXTRACT: control_change channel=11 control=11 value=122 time=0.00704225
EXTRACT: pitchwheel channel=11 pitch=-2688 time=0
EXTRACT: control_change channel=6 control=11 value=112 time=0.0140845
EXTRACT: pitchwheel channel=11 pitch=-2944 time=0
EXTRACT: pitchwheel channel=11 pitch=-3200 time=0.00704225
EXTRACT: control_change channel=6 control=11 value=113 time=0.00704225
EXTRACT: pitchwheel channel=11 pitch=-3328 time=0
EXTRACT: note_on channel=9 note=44 velocity=80 time=0.00704225
EXTRACT: pitchwheel channel=11 pitch=-3456 time=0
EXTRACT: control_change channel=11 control=11 value=121 time=0.00704225
EXTRACT: pitchwheel channel=11 pitch=-3840 time=0
EXTRACT: control_change channel=6 control=11 value=114 time=0.0140845
EXTRACT: pitchwheel channel=11 pitch=-4096 time=0
EXTRACT: control_change channel=11 control=11 value=120 time=0.00704225
EXTRACT: pitchwheel channel=11 pitch=-4352 time=0
EXTRACT: control_change channel=6 control=11 value=115 time=0.00704225
EXTRACT: control_change channel=11 control=11 value=119 time=0
EXTRACT: pitchwheel channel=11 pitch=-4608 time=0
EXTRACT: control_change channel=11 control=11 value=118 time=0.00704225
EXTRACT: pitchwheel channel=11 pitch=-4864 time=0
EXTRACT: control_change channel=6 control=11 value=116 time=0.00704225
EXTRACT: control_change channel=11 control=11 value=117 time=0
EXTRACT: pitchwheel channel=11 pitch=-5120 time=0
EXTRACT: control_change channel=11 control=11 value=116 time=0.0140845
EXTRACT: control_change channel=6 control=11 value=117 time=0.00704225
EXTRACT: control_change channel=11 control=11 value=114 time=0
EXTRACT: pitchwheel channel=11 pitch=-5248 time=0
EXTRACT: control_change channel=11 control=11 value=112 time=0.00704225
EXTRACT: pitchwheel channel=11 pitch=-5760 time=0
EXTRACT: pitchwheel channel=11 pitch=-5888 time=0.00704225
EXTRACT: control_change channel=6 control=11 value=118 time=0.00704225
EXTRACT: control_change channel=11 control=11 value=110 time=0
EXTRACT: note_on channel=9 note=44 velocity=0 time=0.0140845
EXTRACT: control_change channel=11 control=11 value=107 time=0
EXTRACT: pitchwheel channel=11 pitch=-6144 time=0
EXTRACT: control_change channel=6 control=11 value=119 time=0.00704225
EXTRACT: control_change channel=11 control=11 value=106 time=0
EXTRACT: pitchwheel channel=11 pitch=-6400 time=0
EXTRACT: control_change channel=11 control=11 value=106 time=0.00704225
EXTRACT: pitchwheel channel=11 pitch=-6784 time=0
EXTRACT: control_change channel=6 control=11 value=120 time=0.00704225
EXTRACT: pitchwheel channel=11 pitch=-6912 time=0.00704225
EXTRACT: control_change channel=11 control=11 value=105 time=0.0140845
EXTRACT: pitchwheel channel=11 pitch=-7296 time=0
EXTRACT: control_change channel=6 control=11 value=121 time=0.00704225
EXTRACT: pitchwheel channel=11 pitch=-7552 time=0
EXTRACT: pitchwheel channel=11 pitch=-7680 time=0.00704225
EXTRACT: control_change channel=6 control=11 value=122 time=0.00704225
EXTRACT: pitchwheel channel=11 pitch=-7936 time=0
EXTRACT: pitchwheel channel=11 pitch=-8064 time=0.00704225
EXTRACT: control_change channel=6 control=11 value=123 time=0.0140845
EXTRACT: control_change channel=11 control=11 value=103 time=0.00704225
EXTRACT: control_change channel=6 control=11 value=124 time=0.0140845
EXTRACT: note_on channel=9 note=82 velocity=35 time=0
EXTRACT: control_change channel=6 control=11 value=125 time=0.02112675
EXTRACT: control_change channel=6 control=11 value=126 time=0.0140845
EXTRACT: control_change channel=11 control=11 value=101 time=0
EXTRACT: control_change channel=6 control=11 value=127 time=0.0140845
EXTRACT: control_change channel=6 control=11 value=126 time=0.028169
EXTRACT: control_change channel=6 control=11 value=125 time=0.0140845
EXTRACT: note_on channel=9 note=82 velocity=0 time=0.0140845
EXTRACT: control_change channel=11 control=11 value=95 time=0
EXTRACT: control_change channel=6 control=11 value=124 time=0.00704225
EXTRACT: control_change channel=6 control=11 value=123 time=0.0140845
EXTRACT: control_change channel=6 control=11 value=122 time=0.02112675
EXTRACT: control_change channel=11 control=11 value=94 time=0.00704225
EXTRACT: control_change channel=6 control=11 value=121 time=0.00704225
EXTRACT: control_change channel=6 control=11 value=120 time=0.0140845
EXTRACT: pitchwheel channel=11 pitch=0 time=0.0140845
EXTRACT: control_change channel=6 control=11 value=119 time=0.00704225
EXTRACT: control_change channel=6 control=11 value=118 time=0.0140845
EXTRACT: note_on channel=9 note=33 velocity=127 time=0
EXTRACT: note_on channel=9 note=31 velocity=127 time=0
EXTRACT: note_on channel=9 note=44 velocity=80 time=0
EXTRACT: note_on channel=10 note=31 velocity=73 time=0
EXTRACT: note_on channel=11 note=61 velocity=0 time=0
EXTRACT: control_change channel=11 control=11 value=92 time=0.00704225
EXTRACT: control_change channel=6 control=11 value=117 time=0.02112675
EXTRACT: control_change channel=6 control=11 value=116 time=0.0140845
EXTRACT: control_change channel=6 control=11 value=115 time=0.02112675
EXTRACT: control_change channel=6 control=11 value=114 time=0.0140845
EXTRACT: control_change channel=11 control=11 value=91 time=0
EXTRACT: control_change channel=6 control=11 value=113 time=0.0140845
EXTRACT: control_change channel=11 control=11 value=90 time=0
EXTRACT: note_on channel=9 note=44 velocity=0 time=0.0140845
EXTRACT: note_on channel=9 note=31 velocity=0 time=0
EXTRACT: note_on channel=9 note=33 velocity=0 time=0
EXTRACT: note_on channel=10 note=31 velocity=0 time=0
EXTRACT: control_change channel=6 control=11 value=112 time=0.00704225
EXTRACT: control_change channel=6 control=11 value=111 time=0.0140845
EXTRACT: control_change channel=6 control=11 value=110 time=0.02112675
EXTRACT: control_change channel=11 control=11 value=89 time=0
EXTRACT: control_change channel=6 control=11 value=109 time=0.0140845
EXTRACT: control_change channel=6 control=11 value=108 time=0.028169
EXTRACT: control_change channel=6 control=11 value=107 time=0.0140845
EXTRACT: note_on channel=9 note=82 velocity=35 time=0.00704225
EXTRACT: control_change channel=6 control=11 value=106 time=0.00704225
EXTRACT: control_change channel=6 control=11 value=105 time=0.02112675
EXTRACT: control_change channel=6 control=11 value=104 time=0.0140845
EXTRACT: control_change channel=6 control=11 value=103 time=0.02112675
EXTRACT: control_change channel=6 control=11 value=102 time=0.0140845
EXTRACT: control_change channel=6 control=11 value=101 time=0.0140845
EXTRACT: note_on channel=9 note=82 velocity=0 time=0.0140845
EXTRACT: control_change channel=6 control=11 value=100 time=0.00704225
EXTRACT: control_change channel=11 control=11 value=127 time=0
EXTRACT: control_change channel=6 control=11 value=99 time=0.02112675
EXTRACT: control_change channel=6 control=11 value=98 time=0.02112675
EXTRACT: control_change channel=6 control=11 value=97 time=0.0140845
EXTRACT: control_change channel=6 control=11 value=96 time=0.02112675
EXTRACT: control_change channel=6 control=11 value=95 time=0.0140845
EXTRACT: note_on channel=9 note=44 velocity=80 time=0.00704225
EXTRACT: note_on channel=11 note=57 velocity=127 time=0
EXTRACT: control_change channel=6 control=11 value=94 time=0.00704225
EXTRACT: control_change channel=6 control=11 value=93 time=0.02112675
EXTRACT: control_change channel=6 control=11 value=92 time=0.0140845
EXTRACT: control_change channel=6 control=11 value=91 time=0.02112675
EXTRACT: control_change channel=6 control=11 value=90 time=0.02112675
EXTRACT: control_change channel=6 control=11 value=89 time=0.02112675
EXTRACT: note_on channel=9 note=44 velocity=0 time=0
EXTRACT: control_change channel=6 control=11 value=88 time=0.0140845
EXTRACT: control_change channel=6 control=11 value=87 time=0.0140845
EXTRACT: control_change channel=6 control=11 value=86 time=0.02112675
EXTRACT: control_change channel=6 control=11 value=85 time=0.0140845
EXTRACT: control_change channel=6 control=11 value=84 time=0.02112675
EXTRACT: control_change channel=6 control=11 value=83 time=0.0140845
EXTRACT: note_on channel=9 note=82 velocity=35 time=0.00704225
EXTRACT: note_on channel=9 note=33 velocity=127 time=0
EXTRACT: control_change channel=6 control=11 value=82 time=0.00704225
EXTRACT: control_change channel=6 control=11 value=81 time=0.028169
EXTRACT: control_change channel=6 control=11 value=80 time=0.0140845
EXTRACT: control_change channel=6 control=11 value=79 time=0.02112675
EXTRACT: note_on channel=11 note=57 velocity=0 time=0
EXTRACT: control_change channel=6 control=11 value=78 time=0.0140845
EXTRACT: control_change channel=6 control=11 value=77 time=0.02112675
EXTRACT: note_on channel=9 note=33 velocity=0 time=0
EXTRACT: note_on channel=9 note=82 velocity=0 time=0
EXTRACT: control_change channel=6 control=11 value=76 time=0.0140845
EXTRACT: control_change channel=6 control=11 value=75 time=0.0140845
EXTRACT: control_change channel=6 control=11 value=74 time=0.02112675
EXTRACT: control_change channel=6 control=11 value=73 time=0.0140845
EXTRACT: control_change channel=6 control=11 value=72 time=0.028169
EXTRACT: note_on channel=1 note=56 velocity=0 time=0.0140845
EXTRACT: note_on channel=1 note=61 velocity=0 time=0
EXTRACT: note_on channel=1 note=56 velocity=78 time=0
EXTRACT: note_on channel=1 note=59 velocity=78 time=0
EXTRACT: note_on channel=2 note=61 velocity=0 time=0
EXTRACT: note_on channel=2 note=68 velocity=0 time=0
EXTRACT: note_on channel=2 note=59 velocity=57 time=0
EXTRACT: note_on channel=2 note=64 velocity=57 time=0
EXTRACT: note_on channel=2 note=71 velocity=57 time=0
EXTRACT: note_on channel=5 note=64 velocity=0 time=0
EXTRACT: note_on channel=5 note=68 velocity=0 time=0
EXTRACT: note_on channel=5 note=61 velocity=0 time=0
EXTRACT: note_on channel=5 note=64 velocity=43 time=0
EXTRACT: note_on channel=5 note=61 velocity=43 time=0
EXTRACT: note_on channel=5 note=71 velocity=43 time=0
EXTRACT: control_change channel=6 control=11 value=71 time=0
EXTRACT: note_on channel=7 note=37 velocity=0 time=0
EXTRACT: note_on channel=7 note=40 velocity=57 time=0
EXTRACT: note_on channel=9 note=44 velocity=80 time=0
EXTRACT: pitchwheel channel=11 pitch=-8064 time=0
EXTRACT: note_on channel=11 note=64 velocity=127 time=0
EXTRACT: pitchwheel channel=11 pitch=-7808 time=0.0140845
EXTRACT: control_change channel=6 control=11 value=70 time=0.00704225
EXTRACT: pitchwheel channel=11 pitch=-7552 time=0
EXTRACT: control_change channel=6 control=11 value=69 time=0.0140845
EXTRACT: pitchwheel channel=11 pitch=-7040 time=0
EXTRACT: pitchwheel channel=11 pitch=-6784 time=0.00704225
EXTRACT: control_change channel=6 control=11 value=68 time=0.00704225
EXTRACT: pitchwheel channel=11 pitch=-6656 time=0
EXTRACT: pitchwheel channel=11 pitch=-6528 time=0.00704225
EXTRACT: pitchwheel channel=11 pitch=-6016 time=0.00704225
EXTRACT: control_change channel=6 control=11 value=67 time=0.00704225
EXTRACT: pitchwheel channel=11 pitch=-5632 time=0.00704225
EXTRACT: control_change channel=6 control=11 value=66 time=0.00704225
EXTRACT: pitchwheel channel=11 pitch=-5376 time=0
EXTRACT: pitchwheel channel=11 pitch=-4992 time=0.00704225
EXTRACT: pitchwheel channel=11 pitch=-4480 time=0.00704225
EXTRACT: control_change channel=6 control=11 value=65 time=0.00704225
EXTRACT: note_on channel=9 note=44 velocity=0 time=0
EXTRACT: pitchwheel channel=11 pitch=-4096 time=0
EXTRACT: control_change channel=6 control=11 value=64 time=0.0140845
EXTRACT: pitchwheel channel=11 pitch=-3712 time=0
EXTRACT: pitchwheel channel=11 pitch=-3456 time=0.00704225
EXTRACT: pitchwheel channel=11 pitch=-3072 time=0.00704225
EXTRACT: control_change channel=6 control=11 value=63 time=0.0140845
EXTRACT: pitchwheel channel=11 pitch=-2432 time=0
EXTRACT: control_change channel=6 control=11 value=62 time=0.0140845
EXTRACT: pitchwheel channel=11 pitch=-2176 time=0
EXTRACT: pitchwheel channel=11 pitch=-1664 time=0.00704225
EXTRACT: control_change channel=6 control=11 value=61 time=0.00704225
EXTRACT: pitchwheel channel=11 pitch=-1536 time=0
EXTRACT: pitchwheel channel=11 pitch=-1408 time=0.00704225
EXTRACT: pitchwheel channel=11 pitch=-1152 time=0.00704225
EXTRACT: control_change channel=6 control=11 value=60 time=0.00704225
EXTRACT: pitchwheel channel=11 pitch=-896 time=0.00704225
EXTRACT: control_change channel=6 control=11 value=59 time=0.00704225
EXTRACT: note_on channel=9 note=33 velocity=42 time=0
EXTRACT: note_on channel=9 note=82 velocity=35 time=0
EXTRACT: pitchwheel channel=11 pitch=-768 time=0.00704225
EXTRACT: pitchwheel channel=11 pitch=-512 time=0.00704225
EXTRACT: control_change channel=6 control=11 value=58 time=0.00704225
EXTRACT: pitchwheel channel=11 pitch=-384 time=0
EXTRACT: control_change channel=6 control=11 value=57 time=0.0140845
EXTRACT: pitchwheel channel=11 pitch=-256 time=0
EXTRACT: control_change channel=6 control=11 value=56 time=0.0140845
EXTRACT: pitchwheel channel=11 pitch=-128 time=0
EXTRACT: control_change channel=6 control=11 value=55 time=0.02112675
EXTRACT: control_change channel=6 control=11 value=54 time=0.02112675
EXTRACT: note_on channel=9 note=82 velocity=0 time=0.0140845
EXTRACT: note_on channel=9 note=33 velocity=0 time=0
EXTRACT: control_change channel=6 control=11 value=53 time=0.00704225
EXTRACT: control_change channel=6 control=11 value=52 time=0.0140845
EXTRACT: control_change channel=6 control=11 value=51 time=0.02112675
EXTRACT: control_change channel=6 control=11 value=50 time=0.0140845
EXTRACT: control_change channel=6 control=11 value=49 time=0.0140845
EXTRACT: control_change channel=6 control=11 value=48 time=0.02112675
EXTRACT: control_change channel=6 control=11 value=47 time=0.0140845
EXTRACT: note_on channel=8 note=37 velocity=0 time=0
EXTRACT: note_on channel=8 note=40 velocity=123 time=0
EXTRACT: note_on channel=9 note=33 velocity=127 time=0
EXTRACT: note_on channel=9 note=44 velocity=80 time=0
EXTRACT: control_change channel=6 control=11 value=46 time=0.02112675
EXTRACT: control_change channel=6 control=11 value=45 time=0.02112675
EXTRACT: control_change channel=6 control=11 value=44 time=0.02112675
EXTRACT: control_change channel=6 control=11 value=43 time=0.0140845
EXTRACT: control_change channel=6 control=11 value=42 time=0.0140845
EXTRACT: note_on channel=9 note=44 velocity=0 time=0.0140845
EXTRACT: note_on channel=9 note=33 velocity=0 time=0
EXTRACT: control_change channel=6 control=11 value=41 time=0.00704225
EXTRACT: pitchwheel channel=11 pitch=128 time=0.00704225
EXTRACT: control_change channel=6 control=11 value=40 time=0.00704225
EXTRACT: pitchwheel channel=11 pitch=-128 time=0
EXTRACT: pitchwheel channel=11 pitch=-384 time=0.00704225
EXTRACT: pitchwheel channel=11 pitch=-640 time=0.00704225
EXTRACT: control_change channel=6 control=11 value=39 time=0.00704225
EXTRACT: pitchwheel channel=11 pitch=-896 time=0
EXTRACT: control_change channel=6 control=11 value=38 time=0.0140845
EXTRACT: pitchwheel channel=11 pitch=-1152 time=0
EXTRACT: pitchwheel channel=11 pitch=-1408 time=0.00704225
EXTRACT: control_change channel=6 control=11 value=37 time=0.00704225
EXTRACT: pitchwheel channel=11 pitch=-1664 time=0
EXTRACT: pitchwheel channel=11 pitch=-1920 time=0.00704225
EXTRACT: pitchwheel channel=11 pitch=-2176 time=0.00704225
EXTRACT: control_change channel=6 control=11 value=36 time=0.0140845
EXTRACT: pitchwheel channel=11 pitch=-2432 time=0
EXTRACT: note_on channel=9 note=82 velocity=35 time=0.00704225
EXTRACT: pitchwheel channel=11 pitch=-2688 time=0
EXTRACT: control_change channel=6 control=11 value=35 time=0.00704225
EXTRACT: pitchwheel channel=11 pitch=-2944 time=0
EXTRACT: pitchwheel channel=11 pitch=-3200 time=0.00704225
EXTRACT: pitchwheel channel=11 pitch=-3456 time=0.00704225
EXTRACT: control_change channel=6 control=11 value=34 time=0.00704225
EXTRACT: pitchwheel channel=11 pitch=-3712 time=0.00704225
EXTRACT: control_change channel=6 control=11 value=33 time=0.00704225
EXTRACT: pitchwheel channel=11 pitch=-4096 time=0
EXTRACT: pitchwheel channel=11 pitch=-4352 time=0.00704225
EXTRACT: pitchwheel channel=11 pitch=-4608 time=0.00704225
EXTRACT: control_change channel=6 control=11 value=32 time=0.00704225
EXTRACT: pitchwheel channel=11 pitch=-4864 time=0
EXTRACT: control_change channel=6 control=11 value=31 time=0.0140845
EXTRACT: pitchwheel channel=11 pitch=-5120 time=0
EXTRACT: pitchwheel channel=11 pitch=-5376 time=0.00704225
EXTRACT: control_change channel=6 control=11 value=30 time=0.00704225
EXTRACT: pitchwheel channel=11 pitch=-5632 time=0
EXTRACT: pitchwheel channel=11 pitch=-5888 time=0.00704225
EXTRACT: note_on channel=9 note=82 velocity=0 time=0.00704225
EXTRACT: pitchwheel channel=11 pitch=-6144 time=0
EXTRACT: control_change channel=6 control=11 value=29 time=0.00704225
EXTRACT: pitchwheel channel=11 pitch=-6400 time=0.00704225
EXTRACT: control_change channel=6 control=11 value=28 time=0.00704225
EXTRACT: pitchwheel channel=11 pitch=-6656 time=0
EXTRACT: pitchwheel channel=11 pitch=-6912 time=0.00704225
EXTRACT: pitchwheel channel=11 pitch=-7168 time=0.00704225
EXTRACT: pitchwheel channel=11 pitch=-7424 time=0.00704225
EXTRACT: control_change channel=6 control=11 value=27 time=0.00704225
EXTRACT: pitchwheel channel=11 pitch=-7680 time=0.00704225
EXTRACT: control_change channel=6 control=11 value=26 time=0.00704225
EXTRACT: pitchwheel channel=11 pitch=-8064 time=0
EXTRACT: control_change channel=6 control=11 value=25 time=0.02112675
EXTRACT: control_change channel=6 control=11 value=24 time=0.0140845
EXTRACT: note_on channel=9 note=33 velocity=127 time=0.00704225
EXTRACT: note_on channel=9 note=44 velocity=80 time=0
EXTRACT: note_on channel=9 note=31 velocity=127 time=0
EXTRACT: note_on channel=10 note=31 velocity=73 time=0
EXTRACT: note_on channel=11 note=64 velocity=0 time=0
EXTRACT: pitchwheel channel=11 pitch=0 time=0
EXTRACT: note_on channel=11 note=62 velocity=127 time=0
EXTRACT: control_change channel=6 control=11 value=23 time=0.00704225
EXTRACT: control_change channel=6 control=11 value=22 time=0.02112675
EXTRACT: control_change channel=6 control=11 value=21 time=0.0140845
EXTRACT: control_change channel=6 control=11 value=20 time=0.02112675
EXTRACT: control_change channel=6 control=11 value=19 time=0.0140845
EXTRACT: control_change channel=6 control=11 value=18 time=0.028169
EXTRACT: note_on channel=9 note=31 velocity=0 time=0
EXTRACT: note_on channel=9 note=44 velocity=0 time=0
EXTRACT: note_on channel=9 note=33 velocity=0 time=0
EXTRACT: note_on channel=10 note=31 velocity=0 time=0
EXTRACT: control_change channel=6 control=11 value=17 time=0.0140845
EXTRACT: control_change channel=6 control=11 value=16 time=0.0140845
EXTRACT: control_change channel=6 control=11 value=15 time=0.02112675
EXTRACT: control_change channel=6 control=11 value=14 time=0.0140845
EXTRACT: note_on channel=11 note=62 velocity=0 time=0.0140845
EXTRACT: control_change channel=6 control=11 value=13 time=0.00704225
EXTRACT: control_change channel=6 control=11 value=12 time=0.0140845
EXTRACT: note_on channel=9 note=82 velocity=35 time=0.00704225
EXTRACT: control_change channel=6 control=11 value=11 time=0.00704225
EXTRACT: note_on channel=11 note=62 velocity=127 time=0
EXTRACT: control_change channel=6 control=11 value=10 time=0.02112675
EXTRACT: control_change channel=6 control=11 value=9 time=0.02112675
EXTRACT: control_change channel=8 control=91 value=0 time=0.00704225
EXTRACT: control_change channel=6 control=11 value=8 time=0.0140845
EXTRACT: control_change channel=6 control=11 value=7 time=0.0140845
EXTRACT: control_change channel=6 control=11 value=6 time=0.02112675
EXTRACT: note_on channel=9 note=82 velocity=0 time=0
EXTRACT: control_change channel=6 control=11 value=5 time=0.0140845
EXTRACT: control_change channel=6 control=11 value=4 time=0.0140845
EXTRACT: control_change channel=6 control=11 value=3 time=0.02112675
EXTRACT: control_change channel=6 control=11 value=2 time=0.0140845
EXTRACT: control_change channel=6 control=11 value=1 time=0.02112675
EXTRACT: control_change channel=6 control=11 value=0 time=0.0140845
EXTRACT: note_on channel=9 note=44 velocity=80 time=0.00704225
EXTRACT: note_on channel=11 note=62 velocity=0 time=0.06338025
EXTRACT: note_on channel=11 note=62 velocity=127 time=0.02112675
EXTRACT: note_on channel=9 note=44 velocity=0 time=0.02112675
EXTRACT: note_on channel=9 note=82 velocity=35 time=0.10563375
EXTRACT: note_on channel=1 note=56 velocity=0 time=0.03521125
EXTRACT: note_on channel=1 note=59 velocity=0 time=0.03521125
EXTRACT: note_on channel=9 note=82 velocity=0 time=0.03521125
EXTRACT: note_on channel=1 note=57 velocity=75 time=0.02112675
EXTRACT: note_on channel=1 note=61 velocity=75 time=0
EXTRACT: note_on channel=6 note=64 velocity=0 time=0.00704225
EXTRACT: note_on channel=11 note=62 velocity=0 time=0.02112675
EXTRACT: note_on channel=11 note=61 velocity=127 time=0.02112675
EXTRACT: control_change channel=11 control=11 value=125 time=0.0140845
EXTRACT: control_change channel=11 control=11 value=123 time=0.0140845
EXTRACT: note_on channel=1 note=49 velocity=0 time=0.00704225
EXTRACT: note_on channel=2 note=71 velocity=0 time=0
EXTRACT: note_on channel=2 note=64 velocity=0 time=0
EXTRACT: note_on channel=2 note=59 velocity=0 time=0
EXTRACT: note_on channel=2 note=64 velocity=47 time=0
EXTRACT: note_on channel=2 note=69 velocity=47 time=0
EXTRACT: note_on channel=2 note=73 velocity=47 time=0
EXTRACT: note_on channel=5 note=71 velocity=0 time=0
EXTRACT: note_on channel=5 note=61 velocity=0 time=0
EXTRACT: note_on channel=5 note=64 velocity=0 time=0
EXTRACT: note_on channel=5 note=64 velocity=57 time=0
EXTRACT: note_on channel=5 note=69 velocity=57 time=0
EXTRACT: note_on channel=5 note=73 velocity=57 time=0
EXTRACT: note_on channel=7 note=40 velocity=0 time=0
EXTRACT: note_on channel=8 note=40 velocity=0 time=0
EXTRACT: note_on channel=8 note=33 velocity=123 time=0
EXTRACT: note_on channel=9 note=44 velocity=80 time=0
EXTRACT: note_on channel=9 note=33 velocity=127 time=0
EXTRACT: control_change channel=11 control=11 value=122 time=0.0140845
EXTRACT: control_change channel=11 control=11 value=121 time=0.00704225
EXTRACT: control_change channel=11 control=11 value=120 time=0.00704225
EXTRACT: control_change channel=11 control=11 value=118 time=0.00704225
EXTRACT: control_change channel=11 control=11 value=116 time=0.00704225
EXTRACT: control_change channel=11 control=11 value=115 time=0.02112675
EXTRACT: control_change channel=11 control=11 value=114 time=0.00704225
EXTRACT: control_change channel=11 control=11 value=112 time=0.00704225
EXTRACT: control_change channel=11 control=11 value=111 time=0.02112675
EXTRACT: note_on channel=9 note=33 velocity=0 time=0.00704225
EXTRACT: note_on channel=9 note=44 velocity=0 time=0
EXTRACT: control_change channel=11 control=11 value=110 time=0
EXTRACT: control_change channel=11 control=11 value=109 time=0.00704225
EXTRACT: control_change channel=11 control=11 value=108 time=0.00704225
EXTRACT: control_change channel=11 control=11 value=106 time=0.00704225
EXTRACT: control_change channel=11 control=11 value=104 time=0.0140845
EXTRACT: control_change channel=11 control=11 value=103 time=0.00704225
EXTRACT: control_change channel=11 control=11 value=102 time=0.00704225
EXTRACT: control_change channel=11 control=11 value=99 time=0.0140845
EXTRACT: control_change channel=11 control=11 value=98 time=0.0140845
EXTRACT: control_change channel=11 control=11 value=96 time=0.00704225
EXTRACT: control_change channel=11 control=11 value=94 time=0.00704225
EXTRACT: control_change channel=11 control=11 value=93 time=0.00704225
EXTRACT: note_on channel=9 note=82 velocity=35 time=0.00704225
EXTRACT: control_change channel=11 control=11 value=91 time=0
EXTRACT: control_change channel=11 control=11 value=90 time=0.0140845
EXTRACT: control_change channel=11 control=11 value=89 time=0.00704225
EXTRACT: control_change channel=11 control=11 value=87 time=0.00704225
EXTRACT: control_change channel=11 control=11 value=86 time=0.00704225
EXTRACT: control_change channel=11 control=11 value=85 time=0.00704225
EXTRACT: control_change channel=11 control=11 value=83 time=0.0140845
EXTRACT: control_change channel=11 control=11 value=81 time=0.00704225
EXTRACT: control_change channel=11 control=11 value=79 time=0.00704225
EXTRACT: note_on channel=11 note=61 velocity=0 time=0.0140845
EXTRACT: note_on channel=9 note=82 velocity=0 time=0.02112675
EXTRACT: note_on channel=11 note=61 velocity=127 time=0.028169
EXTRACT: control_change channel=11 control=11 value=124 time=0.00704225
EXTRACT: control_change channel=11 control=11 value=123 time=0.0140845
EXTRACT: control_change channel=11 control=11 value=122 time=0.02112675
EXTRACT: control_change channel=11 control=11 value=120 time=0.0140845
EXTRACT: control_change channel=11 control=11 value=119 time=0.0140845
EXTRACT: note_on channel=9 note=44 velocity=80 time=0.00704225
EXTRACT: control_change channel=11 control=11 value=118 time=0.0140845
EXTRACT: control_change channel=11 control=11 value=117 time=0.00704225
EXTRACT: control_change channel=11 control=11 value=116 time=0.00704225
EXTRACT: control_change channel=11 control=11 value=115 time=0.00704225
EXTRACT: control_change channel=11 control=11 value=114 time=0.0140845
EXTRACT: control_change channel=11 control=11 value=113 time=0.00704225
EXTRACT: control_change channel=11 control=11 value=111 time=0.0140845
EXTRACT: control_change channel=11 control=11 value=110 time=0.02112675
EXTRACT: note_on channel=9 note=44 velocity=0 time=0.0140845
EXTRACT: control_change channel=11 control=11 value=108 time=0
EXTRACT: control_change channel=11 control=11 value=107 time=0.0140845
EXTRACT: control_change channel=11 control=11 value=106 time=0.02112675
EXTRACT: control_change channel=11 control=11 value=104 time=0.00704225
EXTRACT: control_change channel=11 control=11 value=102 time=0.028169
EXTRACT: control_change channel=11 control=11 value=101 time=0.00704225
EXTRACT: control_change channel=11 control=11 value=100 time=0.0140845
EXTRACT: note_on channel=9 note=82 velocity=35 time=0.0140845
EXTRACT: control_change channel=11 control=11 value=99 time=0.00704225
EXTRACT: control_change channel=11 control=11 value=98 time=0.00704225
EXTRACT: control_change channel=11 control=11 value=96 time=0.0140845
EXTRACT: control_change channel=11 control=11 value=95 time=0.00704225
EXTRACT: control_change channel=11 control=11 value=94 time=0.0140845
EXTRACT: control_change channel=11 control=11 value=92 time=0.0140845
EXTRACT: control_change channel=11 control=11 value=91 time=0.00704225
EXTRACT: control_change channel=11 control=11 value=90 time=0.00704225
EXTRACT: control_change channel=11 control=11 value=89 time=0.02112675
EXTRACT: note_on channel=9 note=82 velocity=0 time=0.00704225
EXTRACT: control_change channel=11 control=11 value=87 time=0
EXTRACT: control_change channel=11 control=11 value=86 time=0.0140845
EXTRACT: control_change channel=11 control=11 value=84 time=0.02112675
EXTRACT: control_change channel=11 control=11 value=83 time=0.00704225
EXTRACT: control_change channel=11 control=11 value=82 time=0.00704225
EXTRACT: control_change channel=11 control=11 value=81 time=0.00704225
EXTRACT: control_change channel=11 control=11 value=79 time=0.0140845
EXTRACT: control_change channel=11 control=11 value=78 time=0.00704225
EXTRACT: control_change channel=11 control=11 value=77 time=0.0140845
EXTRACT: control_change channel=11 control=11 value=76 time=0.00704225
EXTRACT: note_on channel=8 note=33 velocity=0 time=0.00704225
EXTRACT: note_on channel=8 note=33 velocity=123 time=0
EXTRACT: note_on channel=9 note=31 velocity=127 time=0
EXTRACT: note_on channel=9 note=44 velocity=80 time=0
EXTRACT: note_on channel=9 note=33 velocity=127 time=0
EXTRACT: note_on channel=10 note=31 velocity=73 time=0
EXTRACT: control_change channel=11 control=11 value=75 time=0.00704225
EXTRACT: control_change channel=11 control=11 value=74 time=0.00704225
EXTRACT: control_change channel=11 control=11 value=73 time=0.00704225
EXTRACT: control_change channel=11 control=11 value=71 time=0.00704225
EXTRACT: control_change channel=11 control=11 value=69 time=0.00704225
EXTRACT: control_change channel=11 control=11 value=68 time=0.0140845
EXTRACT: control_change channel=11 control=11 value=67 time=0.00704225
EXTRACT: control_change channel=11 control=11 value=65 time=0.00704225
EXTRACT: control_change channel=11 control=11 value=63 time=0.00704225
EXTRACT: control_change channel=11 control=11 value=62 time=0.00704225
EXTRACT: control_change channel=11 control=11 value=59 time=0.0140845
EXTRACT: control_change channel=11 control=11 value=58 time=0.00704225
EXTRACT: note_on channel=9 note=33 velocity=0 time=0.00704225
EXTRACT: note_on channel=9 note=44 velocity=0 time=0
EXTRACT: note_on channel=9 note=31 velocity=0 time=0
EXTRACT: note_on channel=10 note=31 velocity=0 time=0
EXTRACT: note_on channel=11 note=61 velocity=0 time=0.084507
EXTRACT: control_change channel=11 control=11 value=126 time=0.00704225
EXTRACT: note_on channel=9 note=82 velocity=35 time=0.0140845
EXTRACT: note_on channel=9 note=82 velocity=0 time=0.10563375
EXTRACT: note_on channel=6 note=64 velocity=100 time=0.0985915
EXTRACT: note_on channel=9 note=44 velocity=80 time=0.00704225
EXTRACT: note_on channel=11 note=59 velocity=127 time=0
EXTRACT: note_on channel=9 note=44 velocity=0 time=0.10563375
EXTRACT: control_change channel=6 control=1 value=72 time=0.0140845
EXTRACT: note_on channel=8 note=33 velocity=0 time=0.09154925
EXTRACT: note_on channel=8 note=33 velocity=123 time=0
EXTRACT: note_on channel=9 note=33 velocity=127 time=0
EXTRACT: note_on channel=9 note=82 velocity=35 time=0
EXTRACT: note_on channel=11 note=59 velocity=0 time=0.0704225
EXTRACT: note_on channel=11 note=61 velocity=127 time=0
EXTRACT: note_on channel=9 note=82 velocity=0 time=0.03521125
EXTRACT: note_on channel=9 note=33 velocity=0 time=0
EXTRACT: note_on channel=1 note=57 velocity=0 time=0.04929575
EXTRACT: note_on channel=1 note=54 velocity=78 time=0
EXTRACT: control_change channel=6 control=11 value=2 time=0.00704225
EXTRACT: control_change channel=6 control=11 value=3 time=0.00704225
EXTRACT: control_change channel=6 control=11 value=4 time=0.028169
EXTRACT: note_on channel=2 note=73 velocity=0 time=0.0140845
EXTRACT: note_on channel=2 note=69 velocity=0 time=0
EXTRACT: note_on channel=2 note=64 velocity=0 time=0
EXTRACT: note_on channel=2 note=61 velocity=47 time=0
EXTRACT: note_on channel=2 note=54 velocity=47 time=0
EXTRACT: note_on channel=2 note=69 velocity=47 time=0
EXTRACT: note_on channel=5 note=73 velocity=0 time=0
EXTRACT: note_on channel=5 note=69 velocity=0 time=0
EXTRACT: note_on channel=5 note=64 velocity=0 time=0
EXTRACT: note_on channel=5 note=61 velocity=57 time=0
EXTRACT: note_on channel=5 note=66 velocity=57 time=0
EXTRACT: note_on channel=5 note=73 velocity=57 time=0
EXTRACT: control_change channel=6 control=11 value=5 time=0
EXTRACT: note_on channel=8 note=33 velocity=0 time=0
EXTRACT: note_on channel=8 note=30 velocity=123 time=0
EXTRACT: note_on channel=9 note=44 velocity=80 time=0
EXTRACT: control_change channel=6 control=11 value=6 time=0.02112675
EXTRACT: control_change channel=6 control=11 value=7 time=0.02112675
EXTRACT: control_change channel=6 control=11 value=8 time=0.02112675
EXTRACT: control_change channel=6 control=11 value=9 time=0.0140845
EXTRACT: control_change channel=6 control=11 value=10 time=0.028169
EXTRACT: note_on channel=9 note=44 velocity=0 time=0
EXTRACT: control_change channel=6 control=11 value=11 time=0.0140845
EXTRACT: control_change channel=6 control=11 value=12 time=0.0140845
EXTRACT: control_change channel=6 control=11 value=13 time=0.028169
EXTRACT: control_change channel=6 control=11 value=14 time=0.0140845
EXTRACT: control_change channel=6 control=11 value=15 time=0.02112675
EXTRACT: control_change channel=6 control=11 value=16 time=0.0140845
EXTRACT: note_on channel=9 note=82 velocity=35 time=0
EXTRACT: note_on channel=9 note=33 velocity=49 time=0
EXTRACT: control_change channel=6 control=11 value=17 time=0.028169
EXTRACT: control_change channel=6 control=11 value=18 time=0.0140845
EXTRACT: control_change channel=6 control=11 value=19 time=0.02112675
EXTRACT: note_on channel=11 note=61 velocity=0 time=0.00704225
EXTRACT: note_on channel=11 note=61 velocity=126 time=0
EXTRACT: control_change channel=11 control=11 value=127 time=0
EXTRACT: control_change channel=11 control=11 value=126 time=0.00704225
EXTRACT: control_change channel=6 control=11 value=20 time=0.00704225
EXTRACT: control_change channel=11 control=11 value=125 time=0.00704225
EXTRACT: control_change channel=11 control=11 value=124 time=0.00704225
EXTRACT: control_change channel=6 control=11 value=21 time=0.00704225
EXTRACT: note_on channel=9 note=33 velocity=0 time=0
EXTRACT: note_on channel=9 note=82 velocity=0 time=0
EXTRACT: control_change channel=11 control=11 value=123 time=0.00704225
EXTRACT: control_change channel=6 control=11 value=22 time=0.00704225
EXTRACT: control_change channel=11 control=11 value=122 time=0.0140845
EXTRACT: control_change channel=11 control=11 value=121 time=0.00704225
EXTRACT: control_change channel=6 control=11 value=23 time=0.00704225
EXTRACT: control_change channel=6 control=11 value=24 time=0.0140845
EXTRACT: control_change channel=6 control=11 value=25 time=0.0140845
EXTRACT: control_change channel=11 control=11 value=120 time=0.0140845
EXTRACT: control_change channel=6 control=11 value=26 time=0.0140845
EXTRACT: note_on channel=9 note=33 velocity=127 time=0.00704225
EXTRACT: note_on channel=9 note=44 velocity=80 time=0
EXTRACT: control_change channel=6 control=11 value=27 time=0.00704225
EXTRACT: control_change channel=6 control=11 value=28 time=0.02112675
EXTRACT: control_change channel=11 control=11 value=119 time=0
EXTRACT: control_change channel=6 control=11 value=29 time=0.0140845
EXTRACT: control_change channel=6 control=11 value=30 time=0.028169
EXTRACT: control_change channel=6 control=11 value=31 time=0.0140845
EXTRACT: control_change channel=11 control=11 value=117 time=0.0140845
EXTRACT: control_change channel=6 control=11 value=32 time=0.00704225
EXTRACT: note_on channel=9 note=44 velocity=0 time=0
EXTRACT: note_on channel=9 note=33 velocity=0 time=0
EXTRACT: control_change channel=6 control=11 value=33 time=0.02112675
EXTRACT: control_change channel=6 control=11 value=34 time=0.02112675
EXTRACT: control_change channel=11 control=11 value=116 time=0
EXTRACT: control_change channel=6 control=11 value=35 time=0.0140845
EXTRACT: control_change channel=11 control=11 value=115 time=0
EXTRACT: control_change channel=6 control=11 value=36 time=0.028169
EXTRACT: control_change channel=6 control=11 value=37 time=0.0140845
EXTRACT: note_on channel=9 note=82 velocity=35 time=0.00704225
EXTRACT: control_change channel=6 control=11 value=38 time=0.00704225
EXTRACT: control_change channel=11 control=11 value=114 time=0.00704225
EXTRACT: control_change channel=11 control=11 value=112 time=0.0140845
EXTRACT: control_change channel=6 control=11 value=39 time=0.00704225
EXTRACT: control_change channel=6 control=11 value=40 time=0.0140845
EXTRACT: control_change channel=6 control=11 value=41 time=0.02112675
EXTRACT: control_change channel=6 control=11 value=42 time=0.0140845
EXTRACT: control_change channel=11 control=11 value=104 time=0.0140845
EXTRACT: note_on channel=9 note=82 velocity=0 time=0.00704225
EXTRACT: control_change channel=6 control=11 value=43 time=0.00704225
EXTRACT: control_change channel=6 control=11 value=44 time=0.0140845
EXTRACT: control_change channel=6 control=11 value=45 time=0.02112675
EXTRACT: control_change channel=11 control=11 value=103 time=0
EXTRACT: control_change channel=6 control=94 value=56 time=0.0140845
EXTRACT: control_change channel=6 control=11 value=46 time=0.00704225
EXTRACT: control_change channel=6 control=11 value=47 time=0.02112675
EXTRACT: control_change channel=6 control=11 value=48 time=0.0140845
EXTRACT: note_on channel=8 note=30 velocity=0 time=0.00704225
EXTRACT: note_on channel=8 note=30 velocity=123 time=0
EXTRACT: note_on channel=9 note=33 velocity=127 time=0
EXTRACT: note_on channel=9 note=44 velocity=80 time=0
EXTRACT: note_on channel=9 note=31 velocity=127 time=0
EXTRACT: note_on channel=10 note=31 velocity=73 time=0
EXTRACT: control_change channel=11 control=11 value=100 time=0.00704225
EXTRACT: control_change channel=6 control=11 value=49 time=0.0140845
EXTRACT: control_change channel=11 control=11 value=99 time=0
EXTRACT: control_change channel=6 control=11 value=50 time=0.0140845
EXTRACT: control_change channel=11 control=11 value=97 time=0
EXTRACT: control_change channel=6 control=11 value=51 time=0.0140845
EXTRACT: control_change channel=11 control=11 value=96 time=0.00704225
EXTRACT: control_change channel=11 control=11 value=95 time=0.0140845
EXTRACT: control_change channel=6 control=11 value=52 time=0.00704225
EXTRACT: control_change channel=11 control=11 value=93 time=0
EXTRACT: control_change channel=6 control=11 value=53 time=0.0140845
EXTRACT: control_change channel=11 control=11 value=92 time=0.00704225
EXTRACT: note_on channel=9 note=31 velocity=0 time=0.00704225
EXTRACT: note_on channel=9 note=44 velocity=0 time=0
EXTRACT: note_on channel=9 note=33 velocity=0 time=0
EXTRACT: note_on channel=10 note=31 velocity=0 time=0
EXTRACT: control_change channel=11 control=11 value=91 time=0
EXTRACT: control_change channel=6 control=11 value=54 time=0.00704225
EXTRACT: control_change channel=11 control=11 value=90 time=0.00704225
EXTRACT: control_change channel=6 control=11 value=55 time=0.00704225
EXTRACT: control_change channel=11 control=11 value=89 time=0.00704225
EXTRACT: control_change channel=11 control=11 value=88 time=0.00704225
EXTRACT: control_change channel=11 control=11 value=87 time=0.00704225
EXTRACT: control_change channel=6 control=11 value=56 time=0.00704225
EXTRACT: control_change channel=6 control=11 value=57 time=0.0140845
EXTRACT: control_change channel=11 control=11 value=86 time=0.00704225
EXTRACT: control_change channel=11 control=11 value=85 time=0.00704225
EXTRACT: control_change channel=6 control=11 value=58 time=0.00704225
EXTRACT: control_change channel=11 control=11 value=84 time=0.0140845
EXTRACT: control_change channel=6 control=11 value=59 time=0.00704225
EXTRACT: note_on channel=9 note=82 velocity=35 time=0
EXTRACT: control_change channel=6 control=11 value=60 time=0.02112675
EXTRACT: control_change channel=11 control=11 value=83 time=0.00704225
EXTRACT: control_change channel=6 control=11 value=61 time=0.00704225
EXTRACT: control_change channel=6 control=11 value=62 time=0.028169
EXTRACT: control_change channel=11 control=11 value=126 time=0
EXTRACT: note_on channel=11 note=61 velocity=0 time=0.00704225
EXTRACT: note_on channel=11 note=57 velocity=127 time=0
EXTRACT: control_change channel=6 control=11 value=63 time=0.00704225
EXTRACT: control_change channel=6 control=11 value=64 time=0.0140845
EXTRACT: control_change channel=11 control=11 value=122 time=0
EXTRACT: note_on channel=9 note=82 velocity=0 time=0.0140845
EXTRACT: control_change channel=6 control=11 value=65 time=0.00704225
EXTRACT: control_change channel=11 control=11 value=120 time=0
EXTRACT: control_change channel=11 control=11 value=119 time=0.00704225
EXTRACT: control_change channel=6 control=11 value=66 time=0.0140845
EXTRACT: control_change channel=11 control=11 value=116 time=0
EXTRACT: control_change channel=11 control=11 value=115 time=0.0140845
EXTRACT: control_change channel=6 control=11 value=67 time=0.00704225
EXTRACT: control_change channel=11 control=11 value=114 time=0
EXTRACT: control_change channel=6 control=11 value=68 time=0.0140845
EXTRACT: control_change channel=6 control=11 value=69 time=0.028169
EXTRACT: control_change channel=11 control=11 value=112 time=0.00704225
EXTRACT: control_change channel=6 control=11 value=70 time=0.00704225
EXTRACT: note_on channel=8 note=30 velocity=0 time=0
EXTRACT: note_on channel=8 note=30 velocity=123 time=0
EXTRACT: note_on channel=9 note=44 velocity=80 time=0
EXTRACT: control_change channel=11 control=11 value=111 time=0.00704225
EXTRACT: control_change channel=6 control=11 value=71 time=0.0140845
EXTRACT: control_change channel=6 control=11 value=72 time=0.02112675
EXTRACT: control_change channel=6 control=11 value=73 time=0.02112675
EXTRACT: control_change channel=11 control=11 value=107 time=0.00704225
EXTRACT: control_change channel=6 control=11 value=74 time=0.00704225
EXTRACT: control_change channel=11 control=11 value=106 time=0.0140845
EXTRACT: control_change channel=6 control=11 value=75 time=0.0140845
EXTRACT: note_on channel=9 note=44 velocity=0 time=0
EXTRACT: control_change channel=11 control=11 value=104 time=0
EXTRACT: control_change channel=6 control=11 value=76 time=0.0140845
EXTRACT: control_change channel=11 control=11 value=103 time=0
EXTRACT: control_change channel=6 control=11 value=77 time=0.0140845
EXTRACT: control_change channel=11 control=11 value=101 time=0.0140845
EXTRACT: control_change channel=6 control=11 value=78 time=0.00704225
EXTRACT: control_change channel=11 control=11 value=100 time=0
EXTRACT: control_change channel=11 control=11 value=99 time=0.00704225
EXTRACT: control_change channel=6 control=11 value=79 time=0.0140845
EXTRACT: control_change channel=11 control=11 value=98 time=0.0140845
EXTRACT: control_change channel=6 control=11 value=80 time=0.00704225
EXTRACT: control_change channel=11 control=11 value=96 time=0
EXTRACT: control_change channel=11 control=11 value=95 time=0.00704225
EXTRACT: control_change channel=6 control=11 value=81 time=0.00704225
EXTRACT: note_on channel=9 note=82 velocity=35 time=0
EXTRACT: control_change channel=11 control=11 value=94 time=0.02112675
EXTRACT: control_change channel=6 control=11 value=82 time=0.00704225
EXTRACT: control_change channel=11 control=11 value=89 time=0.00704225
EXTRACT: control_change channel=6 control=11 value=83 time=0.00704225
EXTRACT: control_change channel=11 control=11 value=86 time=0.00704225
EXTRACT: control_change channel=11 control=11 value=84 time=0.00704225
EXTRACT: control_change channel=6 control=11 value=84 time=0.00704225
EXTRACT: control_change channel=11 control=11 value=80 time=0.00704225
EXTRACT: control_change channel=6 control=11 value=85 time=0.0140845
EXTRACT: control_change channel=11 control=11 value=78 time=0.00704225
EXTRACT: note_on channel=1 note=68 velocity=78 time=0.0140845
EXTRACT: control_change channel=6 control=11 value=86 time=0
EXTRACT: note_on channel=9 note=82 velocity=0 time=0
EXTRACT: control_change channel=11 control=11 value=68 time=0.00704225
EXTRACT: control_change channel=6 control=11 value=87 time=0.00704225
EXTRACT: note_on channel=1 note=61 velocity=0 time=0.00704225
EXTRACT: control_change channel=11 control=11 value=60 time=0.0140845
EXTRACT: control_change channel=6 control=11 value=88 time=0.00704225
EXTRACT: control_change channel=11 control=11 value=58 time=0.00704225
EXTRACT: control_change channel=6 control=11 value=89 time=0.00704225
EXTRACT: control_change channel=11 control=11 value=51 time=0
EXTRACT: note_on channel=1 note=56 velocity=78 time=0.0140845
EXTRACT: note_on channel=1 note=61 velocity=78 time=0
EXTRACT: control_change channel=6 control=11 value=90 time=0
EXTRACT: control_change channel=11 control=11 value=49 time=0
EXTRACT: note_on channel=1 note=54 velocity=0 time=0.00704225
EXTRACT: control_change channel=11 control=11 value=47 time=0
EXTRACT: control_change channel=11 control=11 value=44 time=0.00704225
EXTRACT: control_change channel=6 control=11 value=91 time=0.00704225
EXTRACT: control_change channel=11 control=11 value=39 time=0
EXTRACT: control_change channel=11 control=11 value=37 time=0.00704225
EXTRACT: note_on channel=2 note=69 velocity=0 time=0.00704225
EXTRACT: note_on channel=2 note=54 velocity=0 time=0
EXTRACT: note_on channel=2 note=61 velocity=0 time=0
EXTRACT: note_on channel=2 note=49 velocity=47 time=0
EXTRACT: note_on channel=2 note=64 velocity=47 time=0
EXTRACT: note_on channel=2 note=68 velocity=47 time=0
EXTRACT: note_on channel=5 note=73 velocity=0 time=0
EXTRACT: note_on channel=5 note=66 velocity=0 time=0
EXTRACT: note_on channel=5 note=64 velocity=57 time=0
EXTRACT: note_on channel=5 note=68 velocity=57 time=0
EXTRACT: note_on channel=7 note=37 velocity=57 time=0
EXTRACT: note_on channel=8 note=30 velocity=0 time=0
EXTRACT: note_on channel=8 note=37 velocity=123 time=0
EXTRACT: note_on channel=9 note=33 velocity=127 time=0
EXTRACT: note_on channel=9 note=46 velocity=40 time=0
EXTRACT: note_on channel=11 note=57 velocity=0 time=0
EXTRACT: note_on channel=11 note=49 velocity=127 time=0
EXTRACT: control_change channel=6 control=11 value=92 time=0.00704225
EXTRACT: control_change channel=11 control=11 value=35 time=0
EXTRACT: control_change channel=11 control=11 value=34 time=0.00704225
EXTRACT: control_change channel=11 control=11 value=39 time=0.00704225
EXTRACT: control_change channel=6 control=11 value=93 time=0.00704225
EXTRACT: control_change channel=11 control=11 value=42 time=0
EXTRACT: control_change channel=6 control=11 value=94 time=0.0140845
EXTRACT: control_change channel=11 control=11 value=46 time=0.00704225
EXTRACT: control_change channel=11 control=11 value=50 time=0.0140845
EXTRACT: control_change channel=6 control=11 value=95 time=0.00704225
EXTRACT: control_change channel=11 control=11 value=52 time=0
EXTRACT: control_change channel=6 control=11 value=96 time=0.0140845
EXTRACT: control_change channel=11 control=11 value=58 time=0.00704225
EXTRACT: control_change channel=6 control=11 value=97 time=0.0140845
EXTRACT: note_on channel=9 note=46 velocity=0 time=0
EXTRACT: note_on channel=9 note=33 velocity=0 time=0
EXTRACT: control_change channel=11 control=11 value=64 time=0
EXTRACT: control_change channel=11 control=11 value=70 time=0.0140845
EXTRACT: control_change channel=6 control=11 value=98 time=0.00704225
EXTRACT: control_change channel=11 control=11 value=72 time=0.00704225
EXTRACT: control_change channel=11 control=11 value=78 time=0.00704225
EXTRACT: control_change channel=6 control=11 value=99 time=0.00704225
EXTRACT: control_change channel=6 control=11 value=100 time=0.0140845
EXTRACT: control_change channel=11 control=11 value=82 time=0
EXTRACT: control_change channel=6 control=11 value=101 time=0.028169
EXTRACT: control_change channel=11 control=11 value=85 time=0
EXTRACT: control_change channel=11 control=11 value=87 time=0.00704225
EXTRACT: control_change channel=6 control=11 value=102 time=0.00704225
EXTRACT: control_change channel=11 control=11 value=88 time=0
EXTRACT: note_on channel=9 note=82 velocity=35 time=0.00704225
EXTRACT: control_change channel=6 control=11 value=103 time=0.00704225
EXTRACT: control_change channel=11 control=11 value=90 time=0
EXTRACT: control_change channel=11 control=11 value=93 time=0.0140845
EXTRACT: control_change channel=6 control=11 value=104 time=0.00704225
EXTRACT: control_change channel=6 control=11 value=105 time=0.02112675
EXTRACT: control_change channel=11 control=11 value=96 time=0
EXTRACT: control_change channel=11 control=11 value=103 time=0.00704225
EXTRACT: control_change channel=6 control=11 value=106 time=0.0140845
EXTRACT: control_change channel=11 control=11 value=107 time=0.00704225
EXTRACT: control_change channel=6 control=11 value=107 time=0.00704225
EXTRACT: control_change channel=11 control=11 value=109 time=0.00704225
EXTRACT: control_change channel=11 control=11 value=112 time=0.00704225
EXTRACT: note_on channel=9 note=82 velocity=0 time=0.00704225
EXTRACT: control_change channel=11 control=11 value=113 time=0
EXTRACT: control_change channel=6 control=11 value=108 time=0.00704225
EXTRACT: control_change channel=11 control=11 value=114 time=0
EXTRACT: control_change channel=11 control=11 value=115 time=0.00704225
EXTRACT: control_change channel=6 control=11 value=109 time=0.00704225
EXTRACT: control_change channel=11 control=11 value=117 time=0.0140845
EXTRACT: control_change channel=6 control=11 value=110 time=0.00704225
EXTRACT: control_change channel=11 control=11 value=119 time=0
EXTRACT: control_change channel=11 control=11 value=120 time=0.00704225
EXTRACT: control_change channel=11 control=11 value=121 time=0.00704225
EXTRACT: control_change channel=6 control=11 value=111 time=0.00704225
EXTRACT: control_change channel=11 control=11 value=123 time=0.0140845
EXTRACT: control_change channel=6 control=11 value=112 time=0.00704225
EXTRACT: control_change channel=11 control=11 value=125 time=0
EXTRACT: control_change channel=6 control=11 value=113 time=0.0140845
EXTRACT: note_on channel=9 note=46 velocity=52 time=0.00704225
EXTRACT: control_change channel=6 control=11 value=114 time=0.02112675
EXTRACT: control_change channel=6 control=11 value=115 time=0.0140845
EXTRACT: control_change channel=6 control=11 value=116 time=0.0140845
EXTRACT: control_change channel=11 control=11 value=122 time=0.0140845
EXTRACT: control_change channel=6 control=11 value=117 time=0.00704225
EXTRACT: control_change channel=6 control=11 value=118 time=0.02112675
EXTRACT: note_on channel=9 note=46 velocity=0 time=0.0140845
EXTRACT: control_change channel=6 control=11 value=119 time=0.00704225
EXTRACT: control_change channel=11 control=11 value=121 time=0.00704225
EXTRACT: control_change channel=6 control=11 value=120 time=0.00704225
EXTRACT: control_change channel=11 control=11 value=120 time=0.0140845
EXTRACT: control_change channel=6 control=11 value=121 time=0.0140845
EXTRACT: control_change channel=11 control=11 value=118 time=0
EXTRACT: control_change channel=11 control=11 value=115 time=0.00704225
EXTRACT: control_change channel=6 control=11 value=122 time=0.00704225
EXTRACT: control_change channel=11 control=11 value=109 time=0.00704225
EXTRACT: control_change channel=6 control=11 value=123 time=0.0140845
EXTRACT: control_change channel=11 control=11 value=101 time=0.00704225
EXTRACT: control_change channel=11 control=11 value=99 time=0.00704225
EXTRACT: control_change channel=6 control=11 value=124 time=0.00704225
EXTRACT: note_on channel=9 note=82 velocity=35 time=0
EXTRACT: control_change channel=11 control=11 value=95 time=0.0140845
EXTRACT: control_change channel=6 control=11 value=125 time=0.00704225
EXTRACT: control_change channel=11 control=11 value=92 time=0
EXTRACT: control_change channel=11 control=11 value=89 time=0.00704225
EXTRACT: control_change channel=6 control=11 value=126 time=0.00704225
EXTRACT: control_change channel=6 control=11 value=127 time=0.0140845
EXTRACT: control_change channel=11 control=11 value=85 time=0
EXTRACT: control_change channel=11 control=11 value=77 time=0.00704225
EXTRACT: control_change channel=11 control=11 value=74 time=0.00704225
EXTRACT: control_change channel=11 control=11 value=70 time=0.00704225
EXTRACT: control_change channel=6 control=11 value=126 time=0.00704225
EXTRACT: control_change channel=11 control=11 value=60 time=0
EXTRACT: control_change channel=6 control=11 value=125 time=0.0140845
EXTRACT: control_change channel=11 control=11 value=58 time=0
EXTRACT: control_change channel=11 control=11 value=50 time=0.00704225
EXTRACT: note_on channel=9 note=82 velocity=0 time=0.00704225
EXTRACT: control_change channel=11 control=11 value=46 time=0
EXTRACT: control_change channel=6 control=11 value=124 time=0.00704225
EXTRACT: control_change channel=11 control=11 value=43 time=0
EXTRACT: control_change channel=11 control=11 value=36 time=0.00704225
EXTRACT: control_change channel=6 control=11 value=123 time=0.00704225
EXTRACT: control_change channel=11 control=11 value=30 time=0.00704225
EXTRACT: control_change channel=11 control=11 value=28 time=0.00704225
EXTRACT: control_change channel=6 control=11 value=122 time=0.00704225
EXTRACT: control_change channel=11 control=11 value=23 time=0
EXTRACT: control_change channel=11 control=11 value=19 time=0.00704225
EXTRACT: control_change channel=6 control=11 value=121 time=0.00704225
EXTRACT: control_change channel=11 control=11 value=16 time=0
EXTRACT: control_change channel=6 control=11 value=120 time=0.0140845
EXTRACT: control_change channel=11 control=11 value=10 time=0
EXTRACT: control_change channel=11 control=11 value=3 time=0.0140845
EXTRACT: control_change channel=6 control=11 value=119 time=0.00704225
EXTRACT: control_change channel=11 control=11 value=1 time=0
EXTRACT: control_change channel=11 control=11 value=0 time=0.00704225
EXTRACT: control_change channel=6 control=11 value=118 time=0.00704225
EXTRACT: note_on channel=8 note=37 velocity=0 time=0
EXTRACT: note_on channel=8 note=37 velocity=123 time=0
EXTRACT: note_on channel=9 note=33 velocity=127 time=0
EXTRACT: note_on channel=9 note=31 velocity=127 time=0
EXTRACT: note_on channel=9 note=46 velocity=64 time=0
EXTRACT: note_on channel=10 note=31 velocity=73 time=0
EXTRACT: note_on channel=11 note=49 velocity=0 time=0
EXTRACT: control_change channel=6 control=11 value=117 time=0.028169
EXTRACT: control_change channel=6 control=11 value=116 time=0.0140845
EXTRACT: control_change channel=6 control=11 value=115 time=0.02112675
EXTRACT: control_change channel=6 control=11 value=114 time=0.0140845
EXTRACT: control_change channel=6 control=11 value=113 time=0.0140845
EXTRACT: note_on channel=9 note=46 velocity=0 time=0.0140845
EXTRACT: note_on channel=9 note=31 velocity=0 time=0
EXTRACT: note_on channel=9 note=33 velocity=0 time=0
EXTRACT: note_on channel=10 note=31 velocity=0 time=0
EXTRACT: control_change channel=6 control=11 value=112 time=0.00704225
EXTRACT: control_change channel=6 control=11 value=111 time=0.0140845
EXTRACT: control_change channel=6 control=11 value=110 time=0.02112675
EXTRACT: control_change channel=6 control=11 value=109 time=0.0140845
EXTRACT: control_change channel=6 control=11 value=108 time=0.028169
EXTRACT: control_change channel=6 control=11 value=107 time=0.0140845
EXTRACT: note_on channel=9 note=82 velocity=35 time=0.00704225
EXTRACT: control_change channel=6 control=11 value=106 time=0.00704225
EXTRACT: control_change channel=6 control=11 value=105 time=0.02112675
EXTRACT: control_change channel=6 control=11 value=104 time=0.0140845
EXTRACT: control_change channel=6 control=11 value=103 time=0.02112675
EXTRACT: control_change channel=6 control=11 value=102 time=0.0140845
EXTRACT: control_change channel=6 control=11 value=101 time=0.0140845
EXTRACT: note_on channel=9 note=82 velocity=0 time=0.0140845
EXTRACT: control_change channel=6 control=11 value=100 time=0.00704225
EXTRACT: control_change channel=6 control=11 value=99 time=0.02112675
EXTRACT: control_change channel=6 control=11 value=98 time=0.02112675
EXTRACT: control_change channel=6 control=11 value=97 time=0.0140845
EXTRACT: control_change channel=6 control=11 value=96 time=0.02112675
EXTRACT: control_change channel=6 control=11 value=95 time=0.0140845
EXTRACT: note_on channel=9 note=46 velocity=77 time=0.00704225
EXTRACT: control_change channel=6 control=11 value=94 time=0.00704225
EXTRACT: control_change channel=6 control=11 value=93 time=0.02112675
EXTRACT: control_change channel=6 control=11 value=92 time=0.0140845
EXTRACT: control_change channel=6 control=11 value=91 time=0.02112675
EXTRACT: control_change channel=6 control=11 value=90 time=0.02112675
EXTRACT: control_change channel=6 control=11 value=89 time=0.02112675
EXTRACT: note_on channel=9 note=46 velocity=0 time=0
EXTRACT: control_change channel=6 control=11 value=88 time=0.0140845
EXTRACT: control_change channel=6 control=11 value=87 time=0.0140845
EXTRACT: control_change channel=6 control=11 value=86 time=0.02112675
EXTRACT: control_change channel=6 control=11 value=85 time=0.0140845
EXTRACT: control_change channel=6 control=11 value=84 time=0.02112675
EXTRACT: control_change channel=6 control=11 value=83 time=0.0140845
EXTRACT: note_on channel=9 note=33 velocity=127 time=0.00704225
EXTRACT: note_on channel=9 note=82 velocity=35 time=0
EXTRACT: control_change channel=6 control=11 value=82 time=0.00704225
EXTRACT: control_change channel=6 control=11 value=81 time=0.028169
EXTRACT: control_change channel=6 control=11 value=80 time=0.0140845
EXTRACT: control_change channel=6 control=11 value=79 time=0.02112675
EXTRACT: control_change channel=6 control=11 value=78 time=0.0140845
EXTRACT: note_on channel=1 note=68 velocity=0 time=0.02112675
EXTRACT: control_change channel=6 control=11 value=77 time=0
EXTRACT: note_on channel=9 note=82 velocity=0 time=0
EXTRACT: note_on channel=9 note=33 velocity=0 time=0
EXTRACT: control_change channel=6 control=11 value=76 time=0.0140845
EXTRACT: control_change channel=6 control=11 value=75 time=0.0140845
EXTRACT: control_change channel=6 control=11 value=74 time=0.02112675
EXTRACT: control_change channel=6 control=11 value=73 time=0.0140845
EXTRACT: note_on channel=1 note=56 velocity=0 time=0.00704225
EXTRACT: note_on channel=1 note=61 velocity=0 time=0
EXTRACT: note_on channel=1 note=56 velocity=78 time=0
EXTRACT: note_on channel=1 note=59 velocity=78 time=0
EXTRACT: control_change channel=6 control=11 value=72 time=0.02112675
EXTRACT: note_on channel=2 note=68 velocity=0 time=0.0140845
EXTRACT: note_on channel=2 note=64 velocity=0 time=0
EXTRACT: note_on channel=2 note=49 velocity=0 time=0
EXTRACT: note_on channel=2 note=59 velocity=47 time=0
EXTRACT: note_on channel=2 note=64 velocity=47 time=0
EXTRACT: note_on channel=2 note=71 velocity=47 time=0
EXTRACT: note_on channel=5 note=68 velocity=0 time=0
EXTRACT: note_on channel=5 note=64 velocity=0 time=0
EXTRACT: note_on channel=5 note=61 velocity=0 time=0
EXTRACT: note_on channel=5 note=59 velocity=57 time=0
EXTRACT: note_on channel=5 note=64 velocity=57 time=0
EXTRACT: note_on channel=5 note=71 velocity=57 time=0
EXTRACT: control_change channel=6 control=11 value=71 time=0
EXTRACT: note_on channel=7 note=37 velocity=0 time=0
EXTRACT: note_on channel=7 note=40 velocity=57 time=0
EXTRACT: note_on channel=8 note=37 velocity=0 time=0
EXTRACT: note_on channel=8 note=40 velocity=123 time=0
EXTRACT: note_on channel=9 note=46 velocity=89 time=0
EXTRACT: control_change channel=6 control=11 value=70 time=0.02112675
EXTRACT: control_change channel=6 control=11 value=69 time=0.0140845
EXTRACT: control_change channel=6 control=11 value=68 time=0.0140845
EXTRACT: control_change channel=6 control=11 value=67 time=0.02112675
EXTRACT: control_change channel=6 control=11 value=66 time=0.0140845
EXTRACT: control_change channel=6 control=11 value=65 time=0.02112675
EXTRACT: note_on channel=9 note=46 velocity=0 time=0
EXTRACT: control_change channel=6 control=11 value=64 time=0.0140845
EXTRACT: control_change channel=6 control=11 value=63 time=0.028169
EXTRACT: control_change channel=6 control=11 value=62 time=0.0140845
EXTRACT: control_change channel=6 control=11 value=61 time=0.0140845
EXTRACT: control_change channel=6 control=11 value=60 time=0.02112675
EXTRACT: control_change channel=6 control=11 value=59 time=0.0140845
EXTRACT: note_on channel=9 note=82 velocity=35 time=0
EXTRACT: note_on channel=9 note=33 velocity=42 time=0
EXTRACT: control_change channel=6 control=11 value=58 time=0.02112675
EXTRACT: control_change channel=6 control=11 value=57 time=0.0140845
EXTRACT: control_change channel=6 control=11 value=56 time=0.0140845
EXTRACT: control_change channel=6 control=11 value=55 time=0.02112675
EXTRACT: control_change channel=6 control=11 value=54 time=0.02112675
EXTRACT: note_on channel=9 note=33 velocity=0 time=0.0140845
EXTRACT: note_on channel=9 note=82 velocity=0 time=0
EXTRACT: control_change channel=6 control=11 value=53 time=0.00704225
EXTRACT: control_change channel=6 control=11 value=52 time=0.0140845
EXTRACT: control_change channel=6 control=11 value=51 time=0.02112675
EXTRACT: control_change channel=11 control=11 value=127 time=0.00704225
EXTRACT: control_change channel=6 control=11 value=50 time=0.00704225
EXTRACT: control_change channel=6 control=11 value=49 time=0.0140845
EXTRACT: control_change channel=6 control=11 value=48 time=0.02112675
EXTRACT: control_change channel=6 control=11 value=47 time=0.0140845
EXTRACT: note_on channel=8 note=40 velocity=0 time=0
EXTRACT: note_on channel=8 note=40 velocity=123 time=0
EXTRACT: note_on channel=9 note=46 velocity=102 time=0
EXTRACT: note_on channel=9 note=33 velocity=127 time=0
EXTRACT: control_change channel=6 control=11 value=46 time=0.02112675
EXTRACT: control_change channel=6 control=11 value=45 time=0.02112675
EXTRACT: control_change channel=6 control=11 value=44 time=0.02112675
EXTRACT: control_change channel=6 control=11 value=43 time=0.0140845
EXTRACT: control_change channel=6 control=11 value=42 time=0.0140845
EXTRACT: note_on channel=9 note=33 velocity=0 time=0.0140845
EXTRACT: note_on channel=9 note=46 velocity=0 time=0
EXTRACT: control_change channel=6 control=11 value=41 time=0.00704225
EXTRACT: control_change channel=6 control=11 value=40 time=0.0140845
EXTRACT: control_change channel=6 control=11 value=39 time=0.02112675
EXTRACT: control_change channel=6 control=11 value=38 time=0.0140845
EXTRACT: control_change channel=6 control=11 value=37 time=0.0140845
EXTRACT: control_change channel=6 control=11 value=36 time=0.028169
EXTRACT: note_on channel=8 note=40 velocity=0 time=0.00704225
EXTRACT: note_on channel=8 note=40 velocity=123 time=0
EXTRACT: note_on channel=9 note=82 velocity=35 time=0
EXTRACT: control_change channel=6 control=11 value=35 time=0.00704225
EXTRACT: control_change channel=6 control=11 value=34 time=0.02112675
EXTRACT: control_change channel=6 control=11 value=33 time=0.0140845
EXTRACT: control_change channel=6 control=11 value=32 time=0.02112675
EXTRACT: control_change channel=6 control=11 value=31 time=0.0140845
EXTRACT: control_change channel=6 control=11 value=30 time=0.0140845
EXTRACT: note_on channel=9 note=82 velocity=0 time=0.0140845
EXTRACT: control_change channel=6 control=11 value=29 time=0.00704225
EXTRACT: control_change channel=6 control=11 value=28 time=0.0140845
EXTRACT: control_change channel=6 control=11 value=27 time=0.028169
EXTRACT: control_change channel=6 control=11 value=26 time=0.0140845
EXTRACT: control_change channel=6 control=11 value=25 time=0.02112675
EXTRACT: control_change channel=6 control=11 value=24 time=0.0140845
EXTRACT: note_on channel=8 note=40 velocity=0 time=0.00704225
EXTRACT: note_on channel=8 note=40 velocity=123 time=0
EXTRACT: note_on channel=9 note=33 velocity=127 time=0
EXTRACT: note_on channel=9 note=31 velocity=127 time=0
EXTRACT: note_on channel=9 note=46 velocity=114 time=0
EXTRACT: note_on channel=10 note=31 velocity=73 time=0
EXTRACT: control_change channel=6 control=11 value=23 time=0.00704225
EXTRACT: control_change channel=6 control=11 value=22 time=0.02112675
EXTRACT: control_change channel=6 control=11 value=21 time=0.0140845
EXTRACT: control_change channel=6 control=11 value=20 time=0.02112675
EXTRACT: control_change channel=6 control=11 value=19 time=0.0140845
EXTRACT: control_change channel=6 control=11 value=18 time=0.028169
EXTRACT: note_on channel=9 note=46 velocity=0 time=0
EXTRACT: note_on channel=9 note=31 velocity=0 time=0
EXTRACT: note_on channel=9 note=33 velocity=0 time=0
EXTRACT: note_on channel=10 note=31 velocity=0 time=0
EXTRACT: control_change channel=6 control=11 value=17 time=0.0140845
EXTRACT: control_change channel=6 control=11 value=16 time=0.0140845
EXTRACT: control_change channel=6 control=11 value=15 time=0.02112675
EXTRACT: control_change channel=6 control=11 value=14 time=0.0140845
EXTRACT: note_on channel=6 note=64 velocity=0 time=0.0140845
EXTRACT: control_change channel=6 control=11 value=13 time=0.00704225
EXTRACT: control_change channel=6 control=11 value=12 time=0.0140845
EXTRACT: note_on channel=9 note=82 velocity=35 time=0.00704225
EXTRACT: control_change channel=6 control=11 value=11 time=0.00704225
EXTRACT: control_change channel=6 control=11 value=10 time=0.02112675
EXTRACT: control_change channel=6 control=11 value=9 time=0.02112675
EXTRACT: control_change channel=6 control=11 value=8 time=0.02112675
EXTRACT: control_change channel=6 control=11 value=7 time=0.0140845
EXTRACT: control_change channel=6 control=11 value=6 time=0.02112675
EXTRACT: note_on channel=9 note=82 velocity=0 time=0
EXTRACT: control_change channel=6 control=11 value=5 time=0.0140845
EXTRACT: control_change channel=6 control=11 value=4 time=0.0140845
EXTRACT: control_change channel=6 control=11 value=3 time=0.02112675
EXTRACT: control_change channel=6 control=11 value=2 time=0.0140845
EXTRACT: control_change channel=6 control=11 value=1 time=0.02112675
EXTRACT: control_change channel=6 control=11 value=0 time=0.0140845
EXTRACT: note_on channel=8 note=40 velocity=0 time=0.00704225
EXTRACT: note_on channel=8 note=40 velocity=123 time=0
EXTRACT: note_on channel=9 note=46 velocity=127 time=0
EXTRACT: note_on channel=9 note=46 velocity=0 time=0.10563375
EXTRACT: note_on channel=1 note=56 velocity=0 time=0.10563375
EXTRACT: note_on channel=9 note=82 velocity=35 time=0
EXTRACT: note_on channel=1 note=59 velocity=0 time=0.03521125
EXTRACT: note_on channel=9 note=82 velocity=0 time=0.0704225
EXTRACT: note_on channel=1 note=57 velocity=100 time=0.028169
EXTRACT: note_on channel=1 note=54 velocity=100 time=0.00704225
EXTRACT: note_on channel=1 note=62 velocity=100 time=0.00704225
EXTRACT: note_on channel=0 note=66 velocity=82 time=0.06338025
EXTRACT: note_on channel=2 note=71 velocity=0 time=0
EXTRACT: note_on channel=2 note=64 velocity=0 time=0
EXTRACT: note_on channel=2 note=59 velocity=0 time=0
EXTRACT: note_on channel=2 note=45 velocity=66 time=0
EXTRACT: note_on channel=2 note=38 velocity=66 time=0
EXTRACT: note_on channel=2 note=57 velocity=66 time=0
EXTRACT: note_on channel=2 note=50 velocity=66 time=0
EXTRACT: note_on channel=3 note=50 velocity=113 time=0
EXTRACT: note_on channel=5 note=71 velocity=0 time=0
EXTRACT: note_on channel=5 note=64 velocity=0 time=0
EXTRACT: note_on channel=5 note=59 velocity=0 time=0
EXTRACT: note_on channel=7 note=40 velocity=0 time=0
EXTRACT: note_on channel=8 note=40 velocity=0 time=0
EXTRACT: note_on channel=9 note=33 velocity=127 time=0
EXTRACT: note_on channel=9 note=46 velocity=80 time=0
EXTRACT: note_on channel=9 note=57 velocity=100 time=0
EXTRACT: note_on channel=11 note=62 velocity=80 time=0
EXTRACT: note_on channel=11 note=66 velocity=109 time=0
EXTRACT: note_on channel=0 note=62 velocity=82 time=0.00704225
EXTRACT: note_on channel=0 note=50 velocity=82 time=0
EXTRACT: note_on channel=8 note=38 velocity=100 time=0
EXTRACT: pitchwheel channel=11 pitch=-7936 time=0
EXTRACT: note_on channel=0 note=69 velocity=82 time=0.00704225
EXTRACT: pitchwheel channel=11 pitch=-7680 time=0
EXTRACT: pitchwheel channel=11 pitch=-7552 time=0.00704225
EXTRACT: pitchwheel channel=11 pitch=-7296 time=0.0140845
EXTRACT: pitchwheel channel=11 pitch=-7168 time=0.00704225
EXTRACT: pitchwheel channel=11 pitch=-6912 time=0.00704225
EXTRACT: pitchwheel channel=11 pitch=-6784 time=0.00704225
EXTRACT: pitchwheel channel=11 pitch=-6528 time=0.00704225
EXTRACT: pitchwheel channel=11 pitch=-6400 time=0.0140845
EXTRACT: pitchwheel channel=11 pitch=-6144 time=0.00704225
EXTRACT: pitchwheel channel=11 pitch=-6016 time=0.00704225
EXTRACT: pitchwheel channel=11 pitch=-5760 time=0.00704225
EXTRACT: note_on channel=9 note=57 velocity=0 time=0.00704225
EXTRACT: note_on channel=9 note=46 velocity=0 time=0
EXTRACT: note_on channel=9 note=33 velocity=0 time=0
EXTRACT: pitchwheel channel=11 pitch=-5632 time=0
EXTRACT: pitchwheel channel=11 pitch=-5376 time=0.0140845
EXTRACT: pitchwheel channel=11 pitch=-5248 time=0.00704225
EXTRACT: pitchwheel channel=11 pitch=-4992 time=0.00704225
EXTRACT: pitchwheel channel=11 pitch=-4864 time=0.00704225
EXTRACT: pitchwheel channel=11 pitch=-4608 time=0.00704225
EXTRACT: pitchwheel channel=11 pitch=-4480 time=0.0140845
EXTRACT: pitchwheel channel=11 pitch=-4224 time=0.00704225
EXTRACT: pitchwheel channel=11 pitch=-4096 time=0.00704225
EXTRACT: pitchwheel channel=11 pitch=-3968 time=0.00704225
EXTRACT: pitchwheel channel=11 pitch=-3712 time=0.00704225
EXTRACT: pitchwheel channel=11 pitch=-3584 time=0.0140845
EXTRACT: pitchwheel channel=11 pitch=-3328 time=0.00704225
EXTRACT: pitchwheel channel=11 pitch=-3200 time=0.00704225
EXTRACT: pitchwheel channel=11 pitch=-2944 time=0.00704225
EXTRACT: pitchwheel channel=11 pitch=-2816 time=0.00704225
EXTRACT: pitchwheel channel=11 pitch=-2560 time=0.0140845
EXTRACT: pitchwheel channel=11 pitch=-2432 time=0.00704225
EXTRACT: pitchwheel channel=11 pitch=-2176 time=0.00704225
EXTRACT: pitchwheel channel=11 pitch=-2048 time=0.00704225
EXTRACT: pitchwheel channel=11 pitch=-1792 time=0.00704225
EXTRACT: pitchwheel channel=11 pitch=-1664 time=0.0140845
EXTRACT: pitchwheel channel=11 pitch=-1408 time=0.00704225
EXTRACT: pitchwheel channel=11 pitch=-1280 time=0.00704225
EXTRACT: pitchwheel channel=11 pitch=-1024 time=0.00704225
EXTRACT: pitchwheel channel=11 pitch=-896 time=0.00704225
EXTRACT: pitchwheel channel=11 pitch=-640 time=0.0140845
EXTRACT: pitchwheel channel=11 pitch=-512 time=0.00704225
EXTRACT: pitchwheel channel=11 pitch=-256 time=0.00704225
EXTRACT: pitchwheel channel=11 pitch=-128 time=0.00704225
EXTRACT: control_change channel=11 control=1 value=1 time=0.00704225
EXTRACT: pitchwheel channel=11 pitch=0 time=0
EXTRACT: control_change channel=11 control=1 value=2 time=0.0140845
EXTRACT: control_change channel=11 control=1 value=4 time=0.00704225
EXTRACT: control_change channel=11 control=1 value=7 time=0.00704225
EXTRACT: control_change channel=11 control=1 value=13 time=0.00704225
EXTRACT: control_change channel=11 control=1 value=19 time=0.00704225
EXTRACT: control_change channel=11 control=1 value=23 time=0.0140845
EXTRACT: note_on channel=9 note=51 velocity=127 time=0.00704225
EXTRACT: note_on channel=9 note=46 velocity=80 time=0
EXTRACT: control_change channel=11 control=1 value=26 time=0
EXTRACT: control_change channel=11 control=1 value=27 time=0.00704225
EXTRACT: control_change channel=11 control=1 value=29 time=0.00704225
EXTRACT: control_change channel=11 control=1 value=33 time=0.02112675
EXTRACT: control_change channel=11 control=1 value=35 time=0.00704225
EXTRACT: control_change channel=11 control=1 value=37 time=0.0140845
EXTRACT: control_change channel=11 control=1 value=43 time=0.02112675
EXTRACT: control_change channel=11 control=1 value=49 time=0.0140845
EXTRACT: control_change channel=11 control=1 value=51 time=0.00704225
EXTRACT: note_on channel=9 note=46 velocity=0 time=0.00704225
EXTRACT: note_on channel=9 note=51 velocity=0 time=0
EXTRACT: control_change channel=11 control=1 value=57 time=0
EXTRACT: control_change channel=11 control=1 value=58 time=0.02112675
EXTRACT: control_change channel=11 control=1 value=60 time=0.00704225
EXTRACT: control_change channel=11 control=1 value=61 time=0.00704225
EXTRACT: control_change channel=11 control=1 value=62 time=0.02112675
EXTRACT: control_change channel=11 control=1 value=63 time=0.0140845
EXTRACT: control_change channel=11 control=1 value=64 time=0.0140845
EXTRACT: control_change channel=11 control=1 value=65 time=0.0140845
EXTRACT: control_change channel=11 control=1 value=66 time=0.0140845
EXTRACT: control_change channel=11 control=1 value=68 time=0.0140845
EXTRACT: control_change channel=11 control=1 value=69 time=0.02112675
EXTRACT: control_change channel=11 control=1 value=70 time=0.0140845
EXTRACT: control_change channel=11 control=1 value=72 time=0.03521125
EXTRACT: control_change channel=11 control=1 value=73 time=0.0422535
EXTRACT: control_change channel=11 control=1 value=74 time=0.0140845
EXTRACT: note_on channel=0 note=66 velocity=0 time=0.06338025
EXTRACT: note_on channel=0 note=66 velocity=82 time=0
EXTRACT: note_on channel=3 note=50 velocity=0 time=0
EXTRACT: note_on channel=3 note=50 velocity=113 time=0
EXTRACT: note_on channel=9 note=31 velocity=127 time=0
EXTRACT: note_on channel=9 note=33 velocity=127 time=0
EXTRACT: note_on channel=9 note=46 velocity=80 time=0
EXTRACT: note_on channel=10 note=31 velocity=73 time=0
EXTRACT: control_change channel=11 control=1 value=75 time=0
EXTRACT: note_on channel=0 note=62 velocity=0 time=0.00704225
EXTRACT: note_on channel=0 note=50 velocity=0 time=0
EXTRACT: note_on channel=0 note=50 velocity=82 time=0
EXTRACT: note_on channel=0 note=62 velocity=82 time=0
EXTRACT: note_on channel=8 note=38 velocity=0 time=0
EXTRACT: control_change channel=11 control=1 value=76 time=0
EXTRACT: note_on channel=0 note=69 velocity=0 time=0.00704225
EXTRACT: note_on channel=0 note=69 velocity=82 time=0
EXTRACT: note_on channel=8 note=38 velocity=100 time=0.00704225
EXTRACT: control_change channel=11 control=1 value=77 time=0
EXTRACT: control_change channel=11 control=1 value=78 time=0.02112675
EXTRACT: control_change channel=11 control=1 value=79 time=0.03521125
EXTRACT: control_change channel=11 control=1 value=80 time=0.0140845
EXTRACT: note_on channel=9 note=46 velocity=0 time=0.0140845
EXTRACT: note_on channel=9 note=33 velocity=0 time=0
EXTRACT: note_on channel=9 note=31 velocity=0 time=0
EXTRACT: note_on channel=10 note=31 velocity=0 time=0
EXTRACT: control_change channel=11 control=1 value=81 time=0.0422535
EXTRACT: control_change channel=11 control=1 value=82 time=0.028169
EXTRACT: control_change channel=11 control=1 value=83 time=0.056338
EXTRACT: control_change channel=11 control=1 value=84 time=0.02112675
EXTRACT: control_change channel=11 control=1 value=85 time=0.06338025
EXTRACT: control_change channel=11 control=1 value=86 time=0.03521125
EXTRACT: control_change channel=11 control=1 value=87 time=0.02112675
EXTRACT: note_on channel=9 note=46 velocity=80 time=0.04929575
EXTRACT: control_change channel=11 control=1 value=88 time=0
EXTRACT: control_change channel=11 control=1 value=89 time=0.0140845
EXTRACT: control_change channel=11 control=1 value=90 time=0.02112675
EXTRACT: control_change channel=11 control=1 value=91 time=0.06338025
EXTRACT: note_on channel=9 note=46 velocity=0 time=0.00704225
EXTRACT: control_change channel=11 control=1 value=92 time=0.0422535
EXTRACT: note_on channel=0 note=50 velocity=0 time=0.056338
EXTRACT: note_on channel=0 note=50 velocity=82 time=0
EXTRACT: control_change channel=11 control=1 value=93 time=0
EXTRACT: note_on channel=0 note=62 velocity=0 time=0.00704225
EXTRACT: note_on channel=0 note=69 velocity=0 time=0
EXTRACT: note_on channel=0 note=66 velocity=0 time=0
EXTRACT: note_on channel=0 note=62 velocity=82 time=0
EXTRACT: note_on channel=0 note=62 velocity=82 time=0
EXTRACT: note_on channel=0 note=66 velocity=82 time=0
EXTRACT: note_on channel=0 note=69 velocity=82 time=0
EXTRACT: note_on channel=9 note=33 velocity=127 time=0
EXTRACT: control_change channel=11 control=1 value=94 time=0.056338
EXTRACT: note_on channel=9 note=33 velocity=0 time=0.04929575
EXTRACT: control_change channel=11 control=1 value=95 time=0
EXTRACT: control_change channel=11 control=1 value=96 time=0.03521125
EXTRACT: note_on channel=3 note=50 velocity=0 time=0.0704225
EXTRACT: note_on channel=3 note=50 velocity=113 time=0
EXTRACT: note_on channel=8 note=38 velocity=0 time=0
EXTRACT: note_on channel=8 note=38 velocity=100 time=0
EXTRACT: note_on channel=9 note=46 velocity=80 time=0
EXTRACT: control_change channel=11 control=1 value=97 time=0
EXTRACT: control_change channel=11 control=1 value=98 time=0.06338025
EXTRACT: control_change channel=11 control=1 value=99 time=0.02112675
EXTRACT: control_change channel=11 control=1 value=100 time=0.0140845
EXTRACT: note_on channel=9 note=46 velocity=0 time=0.00704225
EXTRACT: control_change channel=11 control=1 value=101 time=0.0422535
EXTRACT: control_change channel=11 control=1 value=102 time=0.02112675
EXTRACT: note_on channel=9 note=33 velocity=127 time=0.0422535
EXTRACT: control_change channel=11 control=1 value=103 time=0.02112675
EXTRACT: control_change channel=11 control=1 value=104 time=0.02112675
EXTRACT: control_change channel=11 control=1 value=105 time=0.03521125
EXTRACT: note_on channel=9 note=33 velocity=0 time=0.028169
EXTRACT: control_change channel=11 control=1 value=106 time=0
EXTRACT: control_change channel=11 control=1 value=107 time=0.06338025
EXTRACT: control_change channel=11 control=1 value=108 time=0.02112675
EXTRACT: note_on channel=0 note=50 velocity=0 time=0.00704225
EXTRACT: note_on channel=0 note=66 velocity=0 time=0.00704225
EXTRACT: note_on channel=0 note=62 velocity=0 time=0
EXTRACT: note_on channel=0 note=62 velocity=0 time=0
EXTRACT: note_on channel=0 note=69 velocity=0 time=0
EXTRACT: note_on channel=0 note=50 velocity=82 time=0
EXTRACT: note_on channel=0 note=62 velocity=82 time=0.00704225
EXTRACT: note_on channel=0 note=66 velocity=82 time=0
EXTRACT: note_on channel=0 note=62 velocity=82 time=0
EXTRACT: note_on channel=0 note=69 velocity=82 time=0
EXTRACT: note_on channel=3 note=50 velocity=0 time=0
EXTRACT: note_on channel=3 note=52 velocity=113 time=0
EXTRACT: note_on channel=9 note=33 velocity=127 time=0
EXTRACT: note_on channel=9 note=46 velocity=80 time=0
EXTRACT: control_change channel=11 control=1 value=109 time=0.03521125
EXTRACT: pitchwheel channel=3 pitch=128 time=0.0140845
EXTRACT: pitchwheel channel=3 pitch=256 time=0.0140845
EXTRACT: pitchwheel channel=3 pitch=384 time=0.0140845
EXTRACT: control_change channel=11 control=1 value=110 time=0
EXTRACT: pitchwheel channel=3 pitch=640 time=0.028169
EXTRACT: note_on channel=9 note=46 velocity=0 time=0
EXTRACT: note_on channel=9 note=33 velocity=0 time=0
EXTRACT: pitchwheel channel=3 pitch=896 time=0.0140845
EXTRACT: pitchwheel channel=3 pitch=1152 time=0.0140845
EXTRACT: pitchwheel channel=3 pitch=1408 time=0.00704225
EXTRACT: control_change channel=11 control=1 value=111 time=0
EXTRACT: pitchwheel channel=3 pitch=2176 time=0.00704225
EXTRACT: pitchwheel channel=3 pitch=4736 time=0.00704225
EXTRACT: pitchwheel channel=3 pitch=6528 time=0.00704225
EXTRACT: pitchwheel channel=3 pitch=6912 time=0.0140845
EXTRACT: control_change channel=11 control=1 value=112 time=0
EXTRACT: pitchwheel channel=3 pitch=7424 time=0.00704225
EXTRACT: pitchwheel channel=3 pitch=7936 time=0.00704225
EXTRACT: pitchwheel channel=3 pitch=8191 time=0.00704225
EXTRACT: control_change channel=11 control=1 value=113 time=0.07746475
EXTRACT: note_on channel=8 note=38 velocity=0 time=0.1267605
EXTRACT: note_on channel=0 note=50 velocity=0 time=0.0140845
EXTRACT: note_on channel=0 note=50 velocity=82 time=0
EXTRACT: note_on channel=0 note=62 velocity=0 time=0.00704225
EXTRACT: note_on channel=0 note=69 velocity=0 time=0
EXTRACT: note_on channel=0 note=62 velocity=0 time=0
EXTRACT: note_on channel=0 note=66 velocity=0 time=0
EXTRACT: note_on channel=0 note=69 velocity=82 time=0
EXTRACT: note_on channel=0 note=62 velocity=82 time=0
EXTRACT: note_on channel=0 note=62 velocity=82 time=0
EXTRACT: note_on channel=0 note=66 velocity=82 time=0
EXTRACT: note_on channel=3 note=52 velocity=0 time=0
EXTRACT: note_on channel=3 note=55 velocity=113 time=0
EXTRACT: note_on channel=9 note=31 velocity=127 time=0
EXTRACT: note_on channel=9 note=33 velocity=127 time=0
EXTRACT: note_on channel=9 note=46 velocity=80 time=0
EXTRACT: note_on channel=10 note=31 velocity=73 time=0
EXTRACT: note_on channel=8 note=38 velocity=100 time=0.00704225
EXTRACT: note_on channel=9 note=46 velocity=0 time=0.0985915
EXTRACT: note_on channel=9 note=33 velocity=0 time=0
EXTRACT: note_on channel=9 note=31 velocity=0 time=0
EXTRACT: note_on channel=10 note=31 velocity=0 time=0
EXTRACT: control_change channel=11 control=1 value=114 time=0.0985915
EXTRACT: control_change channel=11 control=1 value=102 time=0.10563375
EXTRACT: control_change channel=11 control=1 value=94 time=0.00704225
EXTRACT: control_change channel=11 control=1 value=87 time=0.0140845
EXTRACT: control_change channel=11 control=1 value=84 time=0.00704225
EXTRACT: control_change channel=11 control=1 value=76 time=0.00704225
EXTRACT: control_change channel=11 control=1 value=68 time=0.00704225
EXTRACT: control_change channel=11 control=1 value=66 time=0.00704225
EXTRACT: control_change channel=11 control=1 value=60 time=0.0140845
EXTRACT: control_change channel=11 control=1 value=58 time=0.00704225
EXTRACT: control_change channel=11 control=1 value=49 time=0.00704225
EXTRACT: control_change channel=11 control=1 value=43 time=0.00704225
EXTRACT: control_change channel=11 control=1 value=36 time=0.00704225
EXTRACT: note_on channel=0 note=50 velocity=0 time=0.0140845
EXTRACT: note_on channel=0 note=50 velocity=82 time=0
EXTRACT: control_change channel=11 control=1 value=31 time=0
EXTRACT: note_on channel=0 note=62 velocity=0 time=0.00704225
EXTRACT: note_on channel=0 note=66 velocity=0 time=0
EXTRACT: note_on channel=0 note=69 velocity=0 time=0
EXTRACT: note_on channel=0 note=62 velocity=0 time=0
EXTRACT: note_on channel=0 note=69 velocity=82 time=0
EXTRACT: note_on channel=0 note=62 velocity=82 time=0
EXTRACT: note_on channel=0 note=66 velocity=82 time=0
EXTRACT: note_on channel=8 note=40 velocity=100 time=0
EXTRACT: note_on channel=9 note=51 velocity=127 time=0
EXTRACT: note_on channel=9 note=46 velocity=80 time=0
EXTRACT: note_on channel=11 note=66 velocity=0 time=0
EXTRACT: note_on channel=11 note=62 velocity=0 time=0
EXTRACT: note_on channel=11 note=61 velocity=80 time=0
EXTRACT: control_change channel=11 control=1 value=13 time=0
EXTRACT: note_on channel=11 note=64 velocity=117 time=0
EXTRACT: pitchwheel channel=11 pitch=-8064 time=0.00704225
EXTRACT: control_change channel=11 control=1 value=0 time=0
EXTRACT: pitchwheel channel=11 pitch=-7808 time=0.00704225
EXTRACT: note_on channel=8 note=38 velocity=0 time=0.00704225
EXTRACT: pitchwheel channel=11 pitch=-7552 time=0.00704225
EXTRACT: pitchwheel channel=11 pitch=-7296 time=0.00704225
EXTRACT: pitchwheel channel=11 pitch=-7040 time=0.00704225
EXTRACT: pitchwheel channel=11 pitch=-6912 time=0.00704225
EXTRACT: pitchwheel channel=11 pitch=-6656 time=0.00704225
EXTRACT: pitchwheel channel=11 pitch=-6400 time=0.0140845
EXTRACT: pitchwheel channel=11 pitch=-6144 time=0.00704225
EXTRACT: pitchwheel channel=11 pitch=-5888 time=0.00704225
EXTRACT: pitchwheel channel=11 pitch=-5760 time=0.00704225
EXTRACT: pitchwheel channel=11 pitch=-5504 time=0.00704225
EXTRACT: note_on channel=9 note=46 velocity=0 time=0.00704225
EXTRACT: note_on channel=9 note=51 velocity=0 time=0
EXTRACT: pitchwheel channel=11 pitch=-5248 time=0.00704225
EXTRACT: pitchwheel channel=11 pitch=-4992 time=0.00704225
EXTRACT: pitchwheel channel=11 pitch=-4736 time=0.00704225
EXTRACT: pitchwheel channel=11 pitch=-4608 time=0.00704225
EXTRACT: pitchwheel channel=11 pitch=-4352 time=0.00704225
EXTRACT: pitchwheel channel=11 pitch=-4096 time=0.0140845
EXTRACT: pitchwheel channel=11 pitch=-3840 time=0.00704225
EXTRACT: pitchwheel channel=11 pitch=-3584 time=0.00704225
EXTRACT: pitchwheel channel=11 pitch=-3456 time=0.00704225
EXTRACT: pitchwheel channel=11 pitch=-3200 time=0.00704225
EXTRACT: pitchwheel channel=11 pitch=-2944 time=0.0140845
EXTRACT: pitchwheel channel=11 pitch=-2688 time=0.00704225
EXTRACT: note_on channel=0 note=66 velocity=0 time=0.00704225
EXTRACT: note_on channel=0 note=62 velocity=0 time=0
EXTRACT: note_on channel=0 note=64 velocity=82 time=0
EXTRACT: note_on channel=0 note=61 velocity=82 time=0
EXTRACT: pitchwheel channel=11 pitch=-2432 time=0
EXTRACT: pitchwheel channel=11 pitch=-2304 time=0.00704225
EXTRACT: pitchwheel channel=11 pitch=-2048 time=0.00704225
EXTRACT: pitchwheel channel=11 pitch=-1792 time=0.0140845
EXTRACT: pitchwheel channel=11 pitch=-1536 time=0.00704225
EXTRACT: pitchwheel channel=11 pitch=-1280 time=0.00704225
EXTRACT: pitchwheel channel=11 pitch=-1152 time=0.00704225
EXTRACT: pitchwheel channel=11 pitch=-896 time=0.00704225
EXTRACT: note_on channel=1 note=57 velocity=0 time=0.00704225
EXTRACT: note_on channel=1 note=62 velocity=0 time=0.00704225
EXTRACT: pitchwheel channel=11 pitch=-640 time=0
EXTRACT: pitchwheel channel=11 pitch=-384 time=0.00704225
EXTRACT: note_on channel=1 note=54 velocity=0 time=0.00704225
EXTRACT: pitchwheel channel=11 pitch=-128 time=0
EXTRACT: pitchwheel channel=11 pitch=0 time=0.00704225
EXTRACT: note_on channel=1 note=52 velocity=100 time=0.056338
EXTRACT: note_on channel=1 note=57 velocity=100 time=0.02112675
EXTRACT: note_on channel=1 note=69 velocity=100 time=0.00704225
EXTRACT: note_on channel=1 note=61 velocity=100 time=0
EXTRACT: note_on channel=0 note=50 velocity=0 time=0.028169
EXTRACT: note_on channel=0 note=69 velocity=0 time=0.00704225
EXTRACT: note_on channel=0 note=64 velocity=0 time=0
EXTRACT: note_on channel=0 note=61 velocity=0 time=0
EXTRACT: note_on channel=0 note=64 velocity=82 time=0
EXTRACT: note_on channel=2 note=50 velocity=0 time=0
EXTRACT: note_on channel=2 note=45 velocity=0 time=0
EXTRACT: note_on channel=2 note=38 velocity=0 time=0
EXTRACT: note_on channel=2 note=57 velocity=0 time=0
EXTRACT: note_on channel=2 note=52 velocity=66 time=0
EXTRACT: note_on channel=2 note=40 velocity=66 time=0
EXTRACT: note_on channel=2 note=45 velocity=66 time=0
EXTRACT: note_on channel=2 note=57 velocity=66 time=0
EXTRACT: note_on channel=3 note=55 velocity=0 time=0
EXTRACT: note_on channel=3 note=43 velocity=113 time=0
EXTRACT: note_on channel=8 note=45 velocity=100 time=0
EXTRACT: note_on channel=9 note=49 velocity=70 time=0
EXTRACT: note_on channel=9 note=33 velocity=127 time=0
EXTRACT: note_on channel=9 note=46 velocity=80 time=0
EXTRACT: note_on channel=9 note=33 velocity=127 time=0
EXTRACT: note_on channel=9 note=46 velocity=80 time=0
EXTRACT: note_on channel=11 note=64 velocity=0 time=0
EXTRACT: note_on channel=11 note=61 velocity=0 time=0
EXTRACT: note_on channel=11 note=61 velocity=80 time=0
EXTRACT: note_on channel=11 note=64 velocity=113 time=0
EXTRACT: note_on channel=0 note=61 velocity=82 time=0.00704225
EXTRACT: note_on channel=0 note=45 velocity=82 time=0
EXTRACT: note_on channel=0 note=69 velocity=82 time=0.00704225
EXTRACT: note_on channel=8 note=40 velocity=0 time=0
EXTRACT: note_on channel=9 note=46 velocity=0 time=0.09154925
EXTRACT: note_on channel=9 note=46 velocity=0 time=0
EXTRACT: note_on channel=9 note=49 velocity=0 time=0
EXTRACT: note_on channel=9 note=33 velocity=0 time=0
EXTRACT: note_on channel=9 note=33 velocity=0 time=0
EXTRACT: note_on channel=9 note=51 velocity=127 time=0.31690125
EXTRACT: note_on channel=9 note=46 velocity=80 time=0
EXTRACT: note_on channel=9 note=46 velocity=0 time=0.10563375
EXTRACT: note_on channel=9 note=51 velocity=0 time=0
EXTRACT: note_on channel=8 note=45 velocity=0 time=0.10563375
EXTRACT: note_on channel=8 note=47 velocity=100 time=0
EXTRACT: note_on channel=0 note=64 velocity=0 time=0.2112675
EXTRACT: note_on channel=0 note=64 velocity=82 time=0
EXTRACT: note_on channel=3 note=43 velocity=0 time=0
EXTRACT: note_on channel=3 note=43 velocity=113 time=0
EXTRACT: note_on channel=8 note=47 velocity=0 time=0
EXTRACT: note_on channel=8 note=47 velocity=100 time=0
EXTRACT: note_on channel=9 note=46 velocity=80 time=0
EXTRACT: note_on channel=9 note=33 velocity=127 time=0
EXTRACT: note_on channel=9 note=31 velocity=127 time=0
EXTRACT: note_on channel=9 note=33 velocity=127 time=0
EXTRACT: note_on channel=10 note=31 velocity=73 time=0
EXTRACT: note_on channel=11 note=64 velocity=0 time=0
EXTRACT: note_on channel=11 note=61 velocity=0 time=0
EXTRACT: note_on channel=11 note=61 velocity=80 time=0
EXTRACT: note_on channel=11 note=64 velocity=113 time=0
EXTRACT: note_on channel=0 note=61 velocity=0 time=0.00704225
EXTRACT: note_on channel=0 note=45 velocity=0 time=0
EXTRACT: note_on channel=0 note=45 velocity=82 time=0
EXTRACT: note_on channel=0 note=61 velocity=82 time=0
EXTRACT: note_on channel=0 note=69 velocity=0 time=0.00704225
EXTRACT: note_on channel=0 note=69 velocity=82 time=0
EXTRACT: note_on channel=9 note=33 velocity=0 time=0.09154925
EXTRACT: note_on channel=9 note=46 velocity=0 time=0
EXTRACT: note_on channel=9 note=33 velocity=0 time=0
EXTRACT: note_on channel=9 note=31 velocity=0 time=0
EXTRACT: note_on channel=10 note=31 velocity=0 time=0
EXTRACT: note_on channel=8 note=47 velocity=0 time=0.31690125
EXTRACT: note_on channel=8 note=45 velocity=100 time=0
EXTRACT: note_on channel=9 note=46 velocity=80 time=0
EXTRACT: note_on channel=11 note=64 velocity=0 time=0
EXTRACT: note_on channel=11 note=61 velocity=0 time=0
EXTRACT: note_on channel=11 note=61 velocity=80 time=0
EXTRACT: note_on channel=11 note=64 velocity=113 time=0
EXTRACT: note_on channel=9 note=46 velocity=0 time=0.10563375
EXTRACT: note_on channel=9 note=33 velocity=127 time=0.10563375
EXTRACT: note_on channel=9 note=33 velocity=0 time=0.10563375
EXTRACT: note_on channel=1 note=52 velocity=0 time=0.0140845
EXTRACT: note_on channel=1 note=57 velocity=0 time=0.02112675
EXTRACT: note_on channel=1 note=69 velocity=0 time=0.00704225
EXTRACT: note_on channel=1 note=61 velocity=0 time=0
EXTRACT: note_on channel=1 note=52 velocity=100 time=0.00704225
EXTRACT: pitchwheel channel=3 pitch=8191 time=0.00704225
EXTRACT: pitchwheel channel=3 pitch=8064 time=0.00704225
EXTRACT: note_on channel=1 note=56 velocity=100 time=0.00704225
EXTRACT: pitchwheel channel=3 pitch=7552 time=0
EXTRACT: note_on channel=1 note=68 velocity=100 time=0.00704225
EXTRACT: note_on channel=1 note=61 velocity=100 time=0
EXTRACT: pitchwheel channel=3 pitch=7040 time=0
EXTRACT: pitchwheel channel=3 pitch=6528 time=0.00704225
EXTRACT: note_on channel=0 note=45 velocity=0 time=0.00704225
EXTRACT: note_on channel=0 note=61 velocity=0 time=0.00704225
EXTRACT: note_on channel=0 note=69 velocity=0 time=0
EXTRACT: pitchwheel channel=3 pitch=6144 time=0
EXTRACT: note_on channel=0 note=64 velocity=0 time=0.00704225
EXTRACT: note_on channel=0 note=61 velocity=82 time=0
EXTRACT: note_on channel=0 note=64 velocity=82 time=0
EXTRACT: note_on channel=0 note=49 velocity=82 time=0
EXTRACT: note_on channel=0 note=68 velocity=82 time=0
EXTRACT: note_on channel=2 note=57 velocity=0 time=0
EXTRACT: note_on channel=2 note=52 velocity=0 time=0
EXTRACT: note_on channel=2 note=40 velocity=0 time=0
EXTRACT: note_on channel=2 note=45 velocity=0 time=0
EXTRACT: note_on channel=2 note=37 velocity=66 time=0
EXTRACT: note_on channel=2 note=44 velocity=66 time=0
EXTRACT: note_on channel=2 note=52 velocity=66 time=0
EXTRACT: note_on channel=2 note=56 velocity=66 time=0
EXTRACT: note_on channel=3 note=43 velocity=0 time=0
EXTRACT: pitchwheel channel=3 pitch=5632 time=0
EXTRACT: note_on channel=3 note=43 velocity=113 time=0
EXTRACT: note_on channel=8 note=45 velocity=0 time=0
EXTRACT: note_on channel=8 note=44 velocity=100 time=0
EXTRACT: note_on channel=9 note=46 velocity=80 time=0
EXTRACT: note_on channel=11 note=64 velocity=0 time=0
EXTRACT: note_on channel=11 note=61 velocity=0 time=0
EXTRACT: note_on channel=11 note=61 velocity=80 time=0
EXTRACT: note_on channel=11 note=64 velocity=113 time=0
EXTRACT: pitchwheel channel=3 pitch=5120 time=0.00704225
EXTRACT: pitchwheel channel=3 pitch=4608 time=0.00704225
EXTRACT: pitchwheel channel=3 pitch=4224 time=0.00704225
EXTRACT: note_on channel=9 note=46 velocity=0 time=0.084507
EXTRACT: note_on channel=9 note=33 velocity=127 time=0.10563375
EXTRACT: note_on channel=9 note=33 velocity=0 time=0.10563375
EXTRACT: note_on channel=9 note=33 velocity=127 time=0.10563375
EXTRACT: note_on channel=9 note=46 velocity=80 time=0
EXTRACT: note_on channel=9 note=33 velocity=127 time=0
EXTRACT: note_on channel=9 note=33 velocity=0 time=0.10563375
EXTRACT: note_on channel=9 note=46 velocity=0 time=0
EXTRACT: note_on channel=9 note=33 velocity=0 time=0
EXTRACT: note_on channel=0 note=68 velocity=0 time=0.31690125
EXTRACT: note_on channel=0 note=61 velocity=0 time=0
EXTRACT: note_on channel=0 note=64 velocity=0 time=0
EXTRACT: note_on channel=0 note=49 velocity=0 time=0
EXTRACT: note_on channel=0 note=49 velocity=82 time=0
EXTRACT: note_on channel=0 note=61 velocity=82 time=0
EXTRACT: note_on channel=0 note=64 velocity=82 time=0
EXTRACT: note_on channel=0 note=68 velocity=82 time=0
EXTRACT: note_on channel=3 note=43 velocity=0 time=0
EXTRACT: note_on channel=3 note=39 velocity=113 time=0
EXTRACT: note_on channel=8 note=44 velocity=0 time=0
EXTRACT: note_on channel=8 note=40 velocity=100 time=0
EXTRACT: note_on channel=9 note=31 velocity=127 time=0
EXTRACT: note_on channel=9 note=33 velocity=127 time=0
EXTRACT: note_on channel=9 note=46 velocity=80 time=0
EXTRACT: note_on channel=10 note=31 velocity=73 time=0
EXTRACT: note_on channel=11 note=64 velocity=0 time=0
EXTRACT: note_on channel=11 note=61 velocity=0 time=0
EXTRACT: note_on channel=11 note=54 velocity=124 time=0
EXTRACT: pitchwheel channel=11 pitch=128 time=0.00704225
EXTRACT: pitchwheel channel=11 pitch=256 time=0.028169
EXTRACT: pitchwheel channel=11 pitch=384 time=0.0140845
EXTRACT: pitchwheel channel=11 pitch=512 time=0.00704225
EXTRACT: pitchwheel channel=11 pitch=640 time=0.0140845
EXTRACT: pitchwheel channel=11 pitch=768 time=0.0140845
EXTRACT: pitchwheel channel=11 pitch=1024 time=0.00704225
EXTRACT: note_on channel=9 note=46 velocity=0 time=0.0140845
EXTRACT: note_on channel=9 note=33 velocity=0 time=0
EXTRACT: note_on channel=9 note=31 velocity=0 time=0
EXTRACT: note_on channel=10 note=31 velocity=0 time=0
EXTRACT: pitchwheel channel=11 pitch=1280 time=0.00704225
EXTRACT: pitchwheel channel=11 pitch=1408 time=0.00704225
EXTRACT: pitchwheel channel=11 pitch=1536 time=0.00704225
EXTRACT: pitchwheel channel=11 pitch=1792 time=0.00704225
EXTRACT: pitchwheel channel=11 pitch=1920 time=0.00704225
EXTRACT: pitchwheel channel=11 pitch=2048 time=0.0140845
EXTRACT: pitchwheel channel=11 pitch=2304 time=0.00704225
EXTRACT: pitchwheel channel=11 pitch=2432 time=0.00704225
EXTRACT: pitchwheel channel=11 pitch=2944 time=0.0140845
EXTRACT: pitchwheel channel=11 pitch=3072 time=0.0140845
EXTRACT: pitchwheel channel=11 pitch=3328 time=0.0140845
EXTRACT: pitchwheel channel=11 pitch=3584 time=0.00704225
EXTRACT: pitchwheel channel=11 pitch=3840 time=0.02112675
EXTRACT: pitchwheel channel=11 pitch=4608 time=0.0140845
EXTRACT: pitchwheel channel=11 pitch=4736 time=0.00704225
EXTRACT: pitchwheel channel=11 pitch=4992 time=0.00704225
EXTRACT: pitchwheel channel=11 pitch=5248 time=0.0140845
EXTRACT: pitchwheel channel=11 pitch=5376 time=0.00704225
EXTRACT: pitchwheel channel=11 pitch=5888 time=0.00704225
EXTRACT: pitchwheel channel=11 pitch=6144 time=0.00704225
EXTRACT: pitchwheel channel=11 pitch=6528 time=0.00704225
EXTRACT: pitchwheel channel=11 pitch=6912 time=0.0140845
EXTRACT: pitchwheel channel=11 pitch=7296 time=0.00704225
EXTRACT: pitchwheel channel=11 pitch=7552 time=0.00704225
EXTRACT: pitchwheel channel=11 pitch=7808 time=0.00704225
EXTRACT: pitchwheel channel=11 pitch=7936 time=0.00704225
EXTRACT: pitchwheel channel=11 pitch=8064 time=0.0140845
EXTRACT: note_on channel=9 note=46 velocity=80 time=0.056338
EXTRACT: note_on channel=9 note=51 velocity=127 time=0
EXTRACT: note_on channel=9 note=46 velocity=80 time=0
EXTRACT: pitchwheel channel=11 pitch=7936 time=0.00704225
EXTRACT: pitchwheel channel=11 pitch=7808 time=0.02112675
EXTRACT: pitchwheel channel=11 pitch=7680 time=0.00704225
EXTRACT: pitchwheel channel=11 pitch=7552 time=0.00704225
EXTRACT: pitchwheel channel=11 pitch=7424 time=0.00704225
EXTRACT: control_change channel=3 control=72 value=64 time=0.00704225
EXTRACT: pitchwheel channel=11 pitch=7168 time=0
EXTRACT: pitchwheel channel=11 pitch=6912 time=0.0140845
EXTRACT: pitchwheel channel=11 pitch=6656 time=0.00704225
EXTRACT: pitchwheel channel=11 pitch=6400 time=0.00704225
EXTRACT: pitchwheel channel=11 pitch=6144 time=0.00704225
EXTRACT: pitchwheel channel=11 pitch=5376 time=0.00704225
EXTRACT: note_on channel=9 note=46 velocity=0 time=0.00704225
EXTRACT: note_on channel=9 note=51 velocity=0 time=0
EXTRACT: note_on channel=9 note=46 velocity=0 time=0
EXTRACT: control_change channel=11 control=11 value=125 time=0
EXTRACT: control_change channel=11 control=11 value=124 time=0.00704225
EXTRACT: pitchwheel channel=11 pitch=5120 time=0
EXTRACT: pitchwheel channel=11 pitch=4864 time=0.00704225
EXTRACT: pitchwheel channel=11 pitch=4096 time=0.00704225
EXTRACT: pitchwheel channel=11 pitch=3840 time=0.00704225
EXTRACT: pitchwheel channel=11 pitch=3456 time=0.00704225
EXTRACT: control_change channel=11 control=11 value=123 time=0.00704225
EXTRACT: pitchwheel channel=11 pitch=3200 time=0.00704225
EXTRACT: pitchwheel channel=11 pitch=2944 time=0.0140845
EXTRACT: control_change channel=11 control=11 value=122 time=0.00704225
EXTRACT: pitchwheel channel=11 pitch=2176 time=0
EXTRACT: pitchwheel channel=11 pitch=1920 time=0.02112675
EXTRACT: pitchwheel channel=11 pitch=1664 time=0.0140845
EXTRACT: pitchwheel channel=11 pitch=1536 time=0.00704225
EXTRACT: pitchwheel channel=11 pitch=1280 time=0.00704225
EXTRACT: control_change channel=11 control=11 value=121 time=0.00704225
EXTRACT: pitchwheel channel=11 pitch=1024 time=0.00704225
EXTRACT: control_change channel=11 control=11 value=120 time=0.0140845
EXTRACT: pitchwheel channel=11 pitch=896 time=0
EXTRACT: pitchwheel channel=11 pitch=768 time=0.00704225
EXTRACT: pitchwheel channel=11 pitch=640 time=0.00704225
EXTRACT: control_change channel=11 control=11 value=119 time=0.00704225
EXTRACT: control_change channel=11 control=11 value=118 time=0.00704225
EXTRACT: pitchwheel channel=11 pitch=512 time=0.0140845
EXTRACT: control_change channel=11 control=11 value=117 time=0.00704225
EXTRACT: pitchwheel channel=11 pitch=384 time=0
EXTRACT: control_change channel=11 control=11 value=115 time=0.0140845
EXTRACT: pitchwheel channel=11 pitch=256 time=0.00704225
EXTRACT: pitchwheel channel=11 pitch=128 time=0.00704225
EXTRACT: note_on channel=1 note=52 velocity=0 time=0.00704225
EXTRACT: control_change channel=11 control=11 value=114 time=0
EXTRACT: pitchwheel channel=11 pitch=0 time=0.00704225
EXTRACT: note_on channel=1 note=50 velocity=100 time=0.00704225
EXTRACT: note_on channel=1 note=56 velocity=0 time=0.00704225
EXTRACT: note_on channel=1 note=54 velocity=100 time=0
EXTRACT: note_on channel=1 note=61 velocity=0 time=0.00704225
EXTRACT: note_on channel=1 note=68 velocity=0 time=0
EXTRACT: note_on channel=1 note=57 velocity=100 time=0
EXTRACT: note_on channel=1 note=62 velocity=100 time=0.00704225
EXTRACT: control_change channel=11 control=11 value=113 time=0.0140845
EXTRACT: control_change channel=11 control=11 value=112 time=0.00704225
EXTRACT: control_change channel=11 control=11 value=111 time=0.0140845
EXTRACT: note_on channel=0 note=68 velocity=0 time=0.0140845
EXTRACT: note_on channel=0 note=49 velocity=0 time=0
EXTRACT: note_on channel=0 note=61 velocity=0 time=0
EXTRACT: note_on channel=0 note=64 velocity=0 time=0
EXTRACT: note_on channel=0 note=57 velocity=82 time=0
EXTRACT: note_on channel=0 note=62 velocity=82 time=0
EXTRACT: note_on channel=0 note=66 velocity=82 time=0
EXTRACT: note_on channel=0 note=50 velocity=82 time=0
EXTRACT: note_on channel=2 note=56 velocity=0 time=0
EXTRACT: note_on channel=2 note=37 velocity=0 time=0
EXTRACT: note_on channel=2 note=44 velocity=0 time=0
EXTRACT: note_on channel=2 note=52 velocity=0 time=0
EXTRACT: note_on channel=2 note=57 velocity=66 time=0
EXTRACT: note_on channel=2 note=50 velocity=66 time=0
EXTRACT: note_on channel=2 note=45 velocity=66 time=0
EXTRACT: note_on channel=2 note=38 velocity=66 time=0
EXTRACT: note_on channel=3 note=39 velocity=0 time=0
EXTRACT: pitchwheel channel=3 pitch=0 time=0
EXTRACT: note_on channel=3 note=50 velocity=113 time=0
EXTRACT: note_on channel=8 note=40 velocity=0 time=0
EXTRACT: note_on channel=8 note=38 velocity=100 time=0
EXTRACT: note_on channel=9 note=33 velocity=127 time=0
EXTRACT: note_on channel=9 note=46 velocity=80 time=0
EXTRACT: note_on channel=9 note=57 velocity=100 time=0
EXTRACT: control_change channel=11 control=11 value=110 time=0
EXTRACT: control_change channel=11 control=11 value=109 time=0.00704225
EXTRACT: control_change channel=11 control=11 value=107 time=0.0140845
EXTRACT: control_change channel=11 control=11 value=105 time=0.02112675
EXTRACT: control_change channel=11 control=11 value=103 time=0.0140845
EXTRACT: control_change channel=11 control=11 value=101 time=0.0140845
EXTRACT: control_change channel=11 control=11 value=100 time=0.02112675
EXTRACT: control_change channel=11 control=11 value=98 time=0.00704225
EXTRACT: note_on channel=9 note=57 velocity=0 time=0.00704225
EXTRACT: note_on channel=9 note=46 velocity=0 time=0
EXTRACT: note_on channel=9 note=33 velocity=0 time=0
EXTRACT: control_change channel=11 control=11 value=96 time=0.00704225
EXTRACT: control_change channel=11 control=11 value=95 time=0.0140845
EXTRACT: control_change channel=11 control=11 value=93 time=0.00704225
EXTRACT: control_change channel=11 control=11 value=92 time=0.00704225
EXTRACT: control_change channel=11 control=11 value=91 time=0.00704225
EXTRACT: control_change channel=11 control=11 value=89 time=0.00704225
EXTRACT: control_change channel=11 control=11 value=86 time=0.0140845
EXTRACT: control_change channel=11 control=11 value=84 time=0.0140845
EXTRACT: control_change channel=11 control=11 value=82 time=0.00704225
EXTRACT: control_change channel=11 control=11 value=80 time=0.02112675
EXTRACT: control_change channel=11 control=11 value=78 time=0.0140845
EXTRACT: control_change channel=11 control=11 value=76 time=0.0140845
EXTRACT: control_change channel=11 control=11 value=74 time=0.02112675
EXTRACT: control_change channel=11 control=11 value=68 time=0.00704225
EXTRACT: control_change channel=11 control=11 value=67 time=0.00704225
EXTRACT: control_change channel=11 control=11 value=64 time=0.02112675
EXTRACT: control_change channel=11 control=11 value=61 time=0.00704225
EXTRACT: control_change channel=11 control=11 value=60 time=0.00704225
EXTRACT: control_change channel=11 control=11 value=59 time=0.00704225
EXTRACT: control_change channel=11 control=11 value=57 time=0.00704225
EXTRACT: control_change channel=11 control=11 value=56 time=0.0140845
EXTRACT: control_change channel=11 control=11 value=54 time=0.00704225
EXTRACT: control_change channel=11 control=11 value=53 time=0.0140845
EXTRACT: control_change channel=11 control=11 value=50 time=0.00704225
EXTRACT: control_change channel=11 control=11 value=49 time=0.0140845
EXTRACT: control_change channel=11 control=11 value=47 time=0.0140845
EXTRACT: control_change channel=11 control=11 value=45 time=0.00704225
EXTRACT: control_change channel=11 control=11 value=44 time=0.00704225
EXTRACT: control_change channel=3 control=72 value=107 time=0.0140845
EXTRACT: note_on channel=9 note=51 velocity=127 time=0
EXTRACT: note_on channel=9 note=46 velocity=80 time=0
EXTRACT: control_change channel=11 control=11 value=43 time=0
EXTRACT: control_change channel=11 control=11 value=41 time=0.00704225
EXTRACT: control_change channel=11 control=11 value=39 time=0.00704225
EXTRACT: control_change channel=11 control=11 value=37 time=0.0140845
EXTRACT: control_change channel=11 control=11 value=36 time=0.02112675
EXTRACT: control_change channel=11 control=11 value=33 time=0.00704225
EXTRACT: control_change channel=11 control=11 value=32 time=0.0140845
EXTRACT: control_change channel=11 control=11 value=31 time=0.0140845
EXTRACT: control_change channel=11 control=11 value=29 time=0.00704225
EXTRACT: control_change channel=11 control=11 value=28 time=0.00704225
EXTRACT: note_on channel=9 note=46 velocity=0 time=0.00704225
EXTRACT: note_on channel=9 note=51 velocity=0 time=0
EXTRACT: control_change channel=11 control=11 value=27 time=0
EXTRACT: control_change channel=11 control=11 value=24 time=0.00704225
EXTRACT: control_change channel=11 control=11 value=23 time=0.02112675
EXTRACT: control_change channel=11 control=11 value=21 time=0.0140845
EXTRACT: control_change channel=11 control=11 value=19 time=0.00704225
EXTRACT: control_change channel=11 control=11 value=17 time=0.0140845
EXTRACT: control_change channel=11 control=11 value=16 time=0.00704225
EXTRACT: control_change channel=11 control=11 value=15 time=0.00704225
EXTRACT: control_change channel=11 control=11 value=12 time=0.00704225
EXTRACT: control_change channel=11 control=11 value=11 time=0.00704225
EXTRACT: note_on channel=11 note=54 velocity=0 time=0.0140845
EXTRACT: control_change channel=11 control=11 value=9 time=0
EXTRACT: control_change channel=11 control=11 value=6 time=0.00704225
EXTRACT: control_change channel=11 control=11 value=5 time=0.00704225
EXTRACT: control_change channel=11 control=11 value=4 time=0.00704225
EXTRACT: note_on channel=0 note=50 velocity=0 time=0.19014075
EXTRACT: note_on channel=0 note=57 velocity=0 time=0
EXTRACT: note_on channel=0 note=62 velocity=0 time=0
EXTRACT: note_on channel=0 note=66 velocity=0 time=0
EXTRACT: note_on channel=0 note=62 velocity=82 time=0
EXTRACT: note_on channel=3 note=50 velocity=0 time=0
EXTRACT: note_on channel=3 note=50 velocity=113 time=0
EXTRACT: note_on channel=8 note=38 velocity=0 time=0
EXTRACT: note_on channel=8 note=38 velocity=100 time=0
EXTRACT: note_on channel=9 note=31 velocity=127 time=0
EXTRACT: note_on channel=9 note=33 velocity=127 time=0
EXTRACT: note_on channel=9 note=46 velocity=80 time=0
EXTRACT: note_on channel=10 note=31 velocity=73 time=0
EXTRACT: note_on channel=0 note=50 velocity=82 time=0.00704225
EXTRACT: note_on channel=0 note=57 velocity=82 time=0
EXTRACT: note_on channel=0 note=66 velocity=82 time=0
EXTRACT: control_change channel=11 control=11 value=127 time=0.03521125
EXTRACT: note_on channel=9 note=46 velocity=0 time=0.06338025
EXTRACT: note_on channel=9 note=33 velocity=0 time=0
EXTRACT: note_on channel=9 note=31 velocity=0 time=0
EXTRACT: note_on channel=10 note=31 velocity=0 time=0
EXTRACT: note_on channel=9 note=46 velocity=80 time=0.31690125
EXTRACT: note_on channel=11 note=62 velocity=80 time=0
EXTRACT: note_on channel=11 note=66 velocity=124 time=0
EXTRACT: pitchwheel channel=11 pitch=-8064 time=0.00704225
EXTRACT: pitchwheel channel=11 pitch=-7808 time=0.00704225
EXTRACT: pitchwheel channel=11 pitch=-7680 time=0.00704225
EXTRACT: pitchwheel channel=11 pitch=-7424 time=0.00704225
EXTRACT: pitchwheel channel=11 pitch=-7296 time=0.0140845
EXTRACT: pitchwheel channel=11 pitch=-7040 time=0.00704225
EXTRACT: pitchwheel channel=11 pitch=-6912 time=0.00704225
EXTRACT: pitchwheel channel=11 pitch=-6656 time=0.00704225
EXTRACT: pitchwheel channel=11 pitch=-6528 time=0.00704225
EXTRACT: pitchwheel channel=11 pitch=-6272 time=0.0140845
EXTRACT: pitchwheel channel=11 pitch=-6144 time=0.00704225
EXTRACT: pitchwheel channel=11 pitch=-5888 time=0.00704225
EXTRACT: note_on channel=9 note=46 velocity=0 time=0.00704225
EXTRACT: pitchwheel channel=11 pitch=-5760 time=0
EXTRACT: pitchwheel channel=11 pitch=-5504 time=0.00704225
EXTRACT: pitchwheel channel=11 pitch=-5376 time=0.0140845
EXTRACT: pitchwheel channel=11 pitch=-5248 time=0.00704225
EXTRACT: pitchwheel channel=11 pitch=-4992 time=0.00704225
EXTRACT: pitchwheel channel=11 pitch=-4864 time=0.00704225
EXTRACT: pitchwheel channel=11 pitch=-4608 time=0.00704225
EXTRACT: pitchwheel channel=11 pitch=-4480 time=0.0140845
EXTRACT: pitchwheel channel=11 pitch=-4224 time=0.00704225
EXTRACT: pitchwheel channel=11 pitch=-4096 time=0.00704225
EXTRACT: pitchwheel channel=11 pitch=-3840 time=0.00704225
EXTRACT: pitchwheel channel=11 pitch=-3712 time=0.00704225
EXTRACT: note_on channel=0 note=66 velocity=0 time=0.00704225
EXTRACT: note_on channel=0 note=50 velocity=0 time=0
EXTRACT: note_on channel=0 note=50 velocity=82 time=0
EXTRACT: note_on channel=0 note=66 velocity=82 time=0
EXTRACT: note_on channel=0 note=57 velocity=0 time=0.00704225
EXTRACT: note_on channel=0 note=62 velocity=0 time=0
EXTRACT: note_on channel=0 note=57 velocity=82 time=0
EXTRACT: note_on channel=0 note=57 velocity=82 time=0
EXTRACT: note_on channel=0 note=62 velocity=82 time=0
EXTRACT: note_on channel=9 note=33 velocity=127 time=0
EXTRACT: pitchwheel channel=11 pitch=-3456 time=0
EXTRACT: pitchwheel channel=11 pitch=-3328 time=0.00704225
EXTRACT: pitchwheel channel=11 pitch=-3072 time=0.00704225
EXTRACT: pitchwheel channel=11 pitch=-2944 time=0.00704225
EXTRACT: pitchwheel channel=11 pitch=-2688 time=0.00704225
EXTRACT: pitchwheel channel=11 pitch=-2560 time=0.0140845
EXTRACT: pitchwheel channel=11 pitch=-2432 time=0.00704225
EXTRACT: pitchwheel channel=11 pitch=-2176 time=0.00704225
EXTRACT: pitchwheel channel=11 pitch=-2048 time=0.00704225
EXTRACT: pitchwheel channel=11 pitch=-1792 time=0.00704225
EXTRACT: pitchwheel channel=11 pitch=-1664 time=0.0140845
EXTRACT: pitchwheel channel=11 pitch=-1408 time=0.00704225
EXTRACT: pitchwheel channel=11 pitch=-1280 time=0.00704225
EXTRACT: note_on channel=9 note=33 velocity=0 time=0.00704225
EXTRACT: pitchwheel channel=11 pitch=-1024 time=0
EXTRACT: pitchwheel channel=11 pitch=-896 time=0.00704225
EXTRACT: pitchwheel channel=11 pitch=-640 time=0.0140845
EXTRACT: pitchwheel channel=11 pitch=-512 time=0.00704225
EXTRACT: pitchwheel channel=11 pitch=-256 time=0.00704225
EXTRACT: pitchwheel channel=11 pitch=-128 time=0.00704225
EXTRACT: pitchwheel channel=11 pitch=0 time=0.00704225
EXTRACT: note_on channel=3 note=50 velocity=0 time=0.056338
EXTRACT: note_on channel=3 note=50 velocity=113 time=0
EXTRACT: note_on channel=8 note=38 velocity=0 time=0
EXTRACT: note_on channel=8 note=38 velocity=100 time=0
EXTRACT: note_on channel=9 note=46 velocity=80 time=0
EXTRACT: note_on channel=9 note=46 velocity=0 time=0.10563375
EXTRACT: note_on channel=9 note=33 velocity=127 time=0.10563375
EXTRACT: note_on channel=9 note=33 velocity=0 time=0.10563375
EXTRACT: note_on channel=0 note=50 velocity=0 time=0.09154925
EXTRACT: note_on channel=0 note=66 velocity=0 time=0
EXTRACT: note_on channel=0 note=57 velocity=0 time=0.00704225
EXTRACT: note_on channel=0 note=57 velocity=0 time=0
EXTRACT: note_on channel=0 note=62 velocity=0 time=0
EXTRACT: note_on channel=0 note=50 velocity=82 time=0
EXTRACT: note_on channel=0 note=66 velocity=82 time=0
EXTRACT: note_on channel=0 note=57 velocity=82 time=0.00704225
EXTRACT: note_on channel=0 note=57 velocity=82 time=0
EXTRACT: note_on channel=0 note=62 velocity=82 time=0
EXTRACT: note_on channel=3 note=50 velocity=0 time=0
EXTRACT: note_on channel=3 note=52 velocity=113 time=0
EXTRACT: note_on channel=9 note=33 velocity=127 time=0
EXTRACT: note_on channel=9 note=46 velocity=80 time=0
EXTRACT: pitchwheel channel=3 pitch=128 time=0.04929575
EXTRACT: pitchwheel channel=3 pitch=256 time=0.0140845
EXTRACT: pitchwheel channel=3 pitch=384 time=0.0140845
EXTRACT: pitchwheel channel=3 pitch=640 time=0.028169
EXTRACT: note_on channel=9 note=46 velocity=0 time=0
EXTRACT: note_on channel=9 note=33 velocity=0 time=0
EXTRACT: pitchwheel channel=3 pitch=896 time=0.0140845
EXTRACT: pitchwheel channel=3 pitch=1152 time=0.0140845
EXTRACT: pitchwheel channel=3 pitch=1408 time=0.00704225
EXTRACT: pitchwheel channel=3 pitch=2176 time=0.00704225
EXTRACT: pitchwheel channel=3 pitch=4736 time=0.00704225
EXTRACT: pitchwheel channel=3 pitch=6528 time=0.00704225
EXTRACT: pitchwheel channel=3 pitch=6912 time=0.0140845
EXTRACT: pitchwheel channel=3 pitch=7424 time=0.00704225
EXTRACT: pitchwheel channel=3 pitch=7936 time=0.00704225
EXTRACT: pitchwheel channel=3 pitch=8191 time=0.00704225
EXTRACT: note_on channel=0 note=66 velocity=0 time=0.21830975
EXTRACT: note_on channel=0 note=50 velocity=0 time=0
EXTRACT: note_on channel=0 note=50 velocity=82 time=0
EXTRACT: note_on channel=0 note=66 velocity=82 time=0
EXTRACT: note_on channel=0 note=57 velocity=0 time=0.00704225
EXTRACT: note_on channel=0 note=62 velocity=0 time=0
EXTRACT: note_on channel=0 note=57 velocity=0 time=0
EXTRACT: note_on channel=0 note=57 velocity=82 time=0
EXTRACT: note_on channel=0 note=62 velocity=82 time=0
EXTRACT: note_on channel=0 note=57 velocity=82 time=0
EXTRACT: note_on channel=3 note=52 velocity=0 time=0
EXTRACT: note_on channel=3 note=55 velocity=113 time=0
EXTRACT: note_on channel=8 note=38 velocity=0 time=0
EXTRACT: note_on channel=8 note=38 velocity=100 time=0
EXTRACT: note_on channel=9 note=31 velocity=127 time=0
EXTRACT: note_on channel=9 note=33 velocity=127 time=0
EXTRACT: note_on channel=9 note=46 velocity=80 time=0
EXTRACT: note_on channel=10 note=31 velocity=73 time=0
EXTRACT: note_on channel=9 note=46 velocity=0 time=0.10563375
EXTRACT: note_on channel=9 note=33 velocity=0 time=0
EXTRACT: note_on channel=9 note=31 velocity=0 time=0
EXTRACT: note_on channel=10 note=31 velocity=0 time=0
EXTRACT: note_on channel=0 note=50 velocity=0 time=0.309859
EXTRACT: note_on channel=0 note=66 velocity=0 time=0
EXTRACT: note_on channel=0 note=66 velocity=82 time=0
EXTRACT: note_on channel=0 note=50 velocity=82 time=0
EXTRACT: note_on channel=0 note=62 velocity=0 time=0.00704225
EXTRACT: note_on channel=0 note=57 velocity=0 time=0
EXTRACT: note_on channel=0 note=57 velocity=0 time=0
EXTRACT: note_on channel=0 note=62 velocity=82 time=0
EXTRACT: note_on channel=0 note=57 velocity=82 time=0
EXTRACT: note_on channel=8 note=38 velocity=0 time=0
EXTRACT: note_on channel=8 note=40 velocity=100 time=0
EXTRACT: note_on channel=9 note=51 velocity=127 time=0
EXTRACT: note_on channel=9 note=46 velocity=80 time=0
EXTRACT: note_on channel=11 note=66 velocity=0 time=0
EXTRACT: note_on channel=11 note=62 velocity=0 time=0
EXTRACT: note_on channel=11 note=61 velocity=80 time=0
EXTRACT: control_change channel=11 control=1 value=13 time=0
EXTRACT: note_on channel=11 note=64 velocity=117 time=0
EXTRACT: pitchwheel channel=11 pitch=-8064 time=0.00704225
EXTRACT: control_change channel=11 control=1 value=0 time=0
EXTRACT: pitchwheel channel=11 pitch=-7808 time=0.00704225
EXTRACT: pitchwheel channel=11 pitch=-7552 time=0.0140845
EXTRACT: pitchwheel channel=11 pitch=-7296 time=0.00704225
EXTRACT: pitchwheel channel=11 pitch=-7040 time=0.00704225
EXTRACT: pitchwheel channel=11 pitch=-6912 time=0.00704225
EXTRACT: pitchwheel channel=11 pitch=-6656 time=0.00704225
EXTRACT: pitchwheel channel=11 pitch=-6400 time=0.0140845
EXTRACT: pitchwheel channel=11 pitch=-6144 time=0.00704225
EXTRACT: pitchwheel channel=11 pitch=-5888 time=0.00704225
EXTRACT: pitchwheel channel=11 pitch=-5760 time=0.00704225
EXTRACT: pitchwheel channel=11 pitch=-5504 time=0.00704225
EXTRACT: note_on channel=9 note=46 velocity=0 time=0.00704225
EXTRACT: note_on channel=9 note=51 velocity=0 time=0
EXTRACT: pitchwheel channel=11 pitch=-5248 time=0.00704225
EXTRACT: pitchwheel channel=11 pitch=-4992 time=0.00704225
EXTRACT: pitchwheel channel=11 pitch=-4736 time=0.00704225
EXTRACT: pitchwheel channel=11 pitch=-4608 time=0.00704225
EXTRACT: pitchwheel channel=11 pitch=-4352 time=0.00704225
EXTRACT: pitchwheel channel=11 pitch=-4096 time=0.0140845
EXTRACT: pitchwheel channel=11 pitch=-3840 time=0.00704225
EXTRACT: pitchwheel channel=11 pitch=-3584 time=0.00704225
EXTRACT: pitchwheel channel=11 pitch=-3456 time=0.00704225
EXTRACT: pitchwheel channel=11 pitch=-3200 time=0.00704225
EXTRACT: pitchwheel channel=11 pitch=-2944 time=0.0140845
EXTRACT: pitchwheel channel=11 pitch=-2688 time=0.00704225
EXTRACT: note_on channel=0 note=57 velocity=0 time=0.00704225
EXTRACT: note_on channel=0 note=62 velocity=0 time=0
EXTRACT: note_on channel=0 note=66 velocity=0 time=0
EXTRACT: note_on channel=0 note=64 velocity=82 time=0
EXTRACT: note_on channel=0 note=57 velocity=82 time=0
EXTRACT: note_on channel=0 note=61 velocity=82 time=0
EXTRACT: pitchwheel channel=11 pitch=-2432 time=0
EXTRACT: pitchwheel channel=11 pitch=-2304 time=0.00704225
EXTRACT: pitchwheel channel=11 pitch=-2048 time=0.00704225
EXTRACT: pitchwheel channel=11 pitch=-1792 time=0.0140845
EXTRACT: pitchwheel channel=11 pitch=-1536 time=0.00704225
EXTRACT: pitchwheel channel=11 pitch=-1280 time=0.00704225
EXTRACT: pitchwheel channel=11 pitch=-1152 time=0.00704225
EXTRACT: pitchwheel channel=11 pitch=-896 time=0.00704225
EXTRACT: pitchwheel channel=11 pitch=-640 time=0.0140845
EXTRACT: pitchwheel channel=11 pitch=-384 time=0.00704225
EXTRACT: pitchwheel channel=11 pitch=-128 time=0.00704225
EXTRACT: pitchwheel channel=11 pitch=0 time=0.00704225
EXTRACT: note_on channel=1 note=50 velocity=0 time=0.00704225
EXTRACT: note_on channel=1 note=54 velocity=0 time=0.00704225
EXTRACT: note_on channel=1 note=57 velocity=0 time=0.00704225
EXTRACT: note_on channel=1 note=62 velocity=0 time=0.00704225
EXTRACT: note_on channel=1 note=52 velocity=100 time=0.028169
EXTRACT: note_on channel=1 note=57 velocity=100 time=0.02112675
EXTRACT: note_on channel=1 note=61 velocity=100 time=0.00704225
EXTRACT: note_on channel=1 note=69 velocity=100 time=0
EXTRACT: note_on channel=0 note=50 velocity=0 time=0.028169
EXTRACT: note_on channel=0 note=61 velocity=0 time=0.00704225
EXTRACT: note_on channel=0 note=57 velocity=0 time=0
EXTRACT: note_on channel=0 note=64 velocity=82 time=0
EXTRACT: note_on channel=2 note=38 velocity=0 time=0
EXTRACT: note_on channel=2 note=57 velocity=0 time=0
EXTRACT: note_on channel=2 note=50 velocity=0 time=0
EXTRACT: note_on channel=2 note=45 velocity=0 time=0
EXTRACT: note_on channel=2 note=33 velocity=66 time=0
EXTRACT: note_on channel=2 note=45 velocity=66 time=0
EXTRACT: note_on channel=2 note=52 velocity=66 time=0
EXTRACT: note_on channel=2 note=57 velocity=66 time=0
EXTRACT: note_on channel=3 note=55 velocity=0 time=0
EXTRACT: note_on channel=3 note=43 velocity=113 time=0
EXTRACT: note_on channel=8 note=40 velocity=0 time=0
EXTRACT: note_on channel=8 note=45 velocity=100 time=0
EXTRACT: note_on channel=9 note=33 velocity=127 time=0
EXTRACT: note_on channel=9 note=46 velocity=80 time=0
EXTRACT: note_on channel=11 note=64 velocity=0 time=0
EXTRACT: note_on channel=11 note=61 velocity=0 time=0
EXTRACT: note_on channel=11 note=61 velocity=80 time=0
EXTRACT: note_on channel=11 note=64 velocity=113 time=0
EXTRACT: note_on channel=0 note=64 velocity=0 time=0.00704225
EXTRACT: note_on channel=0 note=61 velocity=82 time=0
EXTRACT: note_on channel=0 note=45 velocity=82 time=0
EXTRACT: note_on channel=0 note=57 velocity=82 time=0.00704225
EXTRACT: note_on channel=9 note=46 velocity=0 time=0.09154925
EXTRACT: note_on channel=9 note=33 velocity=0 time=0
EXTRACT: note_on channel=9 note=51 velocity=127 time=0.31690125
EXTRACT: note_on channel=9 note=46 velocity=80 time=0
EXTRACT: note_on channel=9 note=46 velocity=0 time=0.10563375
EXTRACT: note_on channel=9 note=51 velocity=0 time=0
EXTRACT: note_on channel=8 note=45 velocity=0 time=0.10563375
EXTRACT: note_on channel=8 note=47 velocity=100 time=0
EXTRACT: note_on channel=0 note=64 velocity=0 time=0.2112675
EXTRACT: note_on channel=0 note=64 velocity=82 time=0
EXTRACT: note_on channel=3 note=43 velocity=0 time=0
EXTRACT: note_on channel=3 note=43 velocity=113 time=0
EXTRACT: note_on channel=8 note=47 velocity=0 time=0
EXTRACT: note_on channel=8 note=47 velocity=100 time=0
EXTRACT: note_on channel=9 note=31 velocity=127 time=0
EXTRACT: note_on channel=9 note=33 velocity=127 time=0
EXTRACT: note_on channel=9 note=46 velocity=80 time=0
EXTRACT: note_on channel=10 note=31 velocity=73 time=0
EXTRACT: note_on channel=11 note=64 velocity=0 time=0
EXTRACT: note_on channel=11 note=61 velocity=0 time=0
EXTRACT: note_on channel=11 note=61 velocity=80 time=0
EXTRACT: note_on channel=11 note=64 velocity=113 time=0
EXTRACT: note_on channel=0 note=61 velocity=0 time=0.00704225
EXTRACT: note_on channel=0 note=45 velocity=0 time=0
EXTRACT: note_on channel=0 note=45 velocity=82 time=0
EXTRACT: note_on channel=0 note=61 velocity=82 time=0
EXTRACT: note_on channel=0 note=57 velocity=0 time=0.00704225
EXTRACT: note_on channel=0 note=57 velocity=82 time=0
EXTRACT: note_on channel=9 note=46 velocity=0 time=0.09154925
EXTRACT: note_on channel=9 note=33 velocity=0 time=0
EXTRACT: note_on channel=9 note=31 velocity=0 time=0
EXTRACT: note_on channel=10 note=31 velocity=0 time=0
EXTRACT: note_on channel=8 note=47 velocity=0 time=0.31690125
EXTRACT: note_on channel=8 note=45 velocity=100 time=0
EXTRACT: note_on channel=9 note=46 velocity=80 time=0
EXTRACT: note_on channel=11 note=64 velocity=0 time=0
EXTRACT: note_on channel=11 note=61 velocity=0 time=0
EXTRACT: note_on channel=11 note=61 velocity=80 time=0
EXTRACT: note_on channel=11 note=64 velocity=113 time=0
EXTRACT: note_on channel=9 note=46 velocity=0 time=0.10563375
EXTRACT: note_on channel=9 note=33 velocity=127 time=0.10563375
EXTRACT: note_on channel=9 note=33 velocity=0 time=0.10563375
EXTRACT: note_on channel=1 note=52 velocity=0 time=0.0140845
EXTRACT: note_on channel=1 note=57 velocity=0 time=0.02112675
EXTRACT: note_on channel=1 note=61 velocity=0 time=0.00704225
EXTRACT: note_on channel=1 note=69 velocity=0 time=0
EXTRACT: note_on channel=1 note=52 velocity=100 time=0.00704225
EXTRACT: pitchwheel channel=3 pitch=8191 time=0.00704225
EXTRACT: pitchwheel channel=3 pitch=8064 time=0.00704225
EXTRACT: note_on channel=1 note=56 velocity=100 time=0.00704225
EXTRACT: pitchwheel channel=3 pitch=7552 time=0
EXTRACT: note_on channel=1 note=61 velocity=100 time=0.00704225
EXTRACT: note_on channel=1 note=68 velocity=100 time=0
EXTRACT: pitchwheel channel=3 pitch=7040 time=0
EXTRACT: pitchwheel channel=3 pitch=6528 time=0.00704225
EXTRACT: note_on channel=0 note=45 velocity=0 time=0.00704225
EXTRACT: note_on channel=0 note=61 velocity=0 time=0.00704225
EXTRACT: note_on channel=0 note=57 velocity=0 time=0
EXTRACT: pitchwheel channel=3 pitch=6144 time=0
EXTRACT: note_on channel=0 note=64 velocity=0 time=0.00704225
EXTRACT: note_on channel=0 note=61 velocity=82 time=0
EXTRACT: note_on channel=0 note=64 velocity=82 time=0
EXTRACT: note_on channel=0 note=49 velocity=82 time=0
EXTRACT: note_on channel=0 note=57 velocity=82 time=0
EXTRACT: note_on channel=2 note=57 velocity=0 time=0
EXTRACT: note_on channel=2 note=33 velocity=0 time=0
EXTRACT: note_on channel=2 note=45 velocity=0 time=0
EXTRACT: note_on channel=2 note=52 velocity=0 time=0
EXTRACT: note_on channel=2 note=37 velocity=66 time=0
EXTRACT: note_on channel=2 note=44 velocity=66 time=0
EXTRACT: note_on channel=2 note=49 velocity=66 time=0
EXTRACT: note_on channel=2 note=56 velocity=66 time=0
EXTRACT: note_on channel=3 note=43 velocity=0 time=0
EXTRACT: pitchwheel channel=3 pitch=5632 time=0
EXTRACT: note_on channel=3 note=43 velocity=113 time=0
EXTRACT: note_on channel=8 note=45 velocity=0 time=0
EXTRACT: note_on channel=8 note=44 velocity=100 time=0
EXTRACT: note_on channel=9 note=46 velocity=80 time=0
EXTRACT: note_on channel=11 note=64 velocity=0 time=0
EXTRACT: note_on channel=11 note=61 velocity=0 time=0
EXTRACT: note_on channel=11 note=61 velocity=80 time=0
EXTRACT: note_on channel=11 note=64 velocity=113 time=0
EXTRACT: pitchwheel channel=3 pitch=5120 time=0.00704225
EXTRACT: pitchwheel channel=3 pitch=4608 time=0.00704225
EXTRACT: pitchwheel channel=3 pitch=4224 time=0.00704225
EXTRACT: note_on channel=9 note=46 velocity=0 time=0.084507
EXTRACT: note_on channel=9 note=33 velocity=127 time=0.10563375
EXTRACT: note_on channel=9 note=33 velocity=0 time=0.10563375
EXTRACT: note_on channel=8 note=44 velocity=0 time=0.10563375
EXTRACT: note_on channel=8 note=40 velocity=100 time=0
EXTRACT: note_on channel=9 note=33 velocity=127 time=0
EXTRACT: note_on channel=9 note=46 velocity=80 time=0
EXTRACT: note_on channel=9 note=46 velocity=0 time=0.10563375
EXTRACT: note_on channel=9 note=33 velocity=0 time=0
EXTRACT: control_change channel=4 control=10 value=65 time=0.197183
EXTRACT: note_on channel=1 note=64 velocity=100 time=0.06338025
EXTRACT: note_on channel=1 note=68 velocity=0 time=0.03521125
EXTRACT: note_on channel=0 note=57 velocity=0 time=0.02112675
EXTRACT: note_on channel=0 note=61 velocity=0 time=0
EXTRACT: note_on channel=0 note=64 velocity=0 time=0
EXTRACT: note_on channel=0 note=49 velocity=0 time=0
EXTRACT: note_on channel=0 note=49 velocity=82 time=0
EXTRACT: note_on channel=0 note=61 velocity=82 time=0
EXTRACT: note_on channel=0 note=64 velocity=82 time=0
EXTRACT: note_on channel=0 note=57 velocity=82 time=0
EXTRACT: note_on channel=3 note=43 velocity=0 time=0
EXTRACT: note_on channel=3 note=39 velocity=113 time=0
EXTRACT: note_on channel=8 note=40 velocity=0 time=0
EXTRACT: note_on channel=8 note=40 velocity=100 time=0
EXTRACT: note_on channel=9 note=31 velocity=127 time=0
EXTRACT: note_on channel=9 note=33 velocity=127 time=0
EXTRACT: note_on channel=9 note=46 velocity=80 time=0
EXTRACT: note_on channel=10 note=31 velocity=73 time=0
EXTRACT: note_on channel=11 note=64 velocity=0 time=0
EXTRACT: note_on channel=11 note=61 velocity=0 time=0
EXTRACT: note_on channel=11 note=54 velocity=124 time=0
EXTRACT: pitchwheel channel=11 pitch=128 time=0.00704225
EXTRACT: pitchwheel channel=11 pitch=256 time=0.028169
EXTRACT: pitchwheel channel=11 pitch=384 time=0.0140845
EXTRACT: pitchwheel channel=11 pitch=512 time=0.00704225
EXTRACT: pitchwheel channel=11 pitch=640 time=0.0140845
EXTRACT: pitchwheel channel=11 pitch=768 time=0.0140845
EXTRACT: pitchwheel channel=11 pitch=1024 time=0.00704225
EXTRACT: note_on channel=9 note=46 velocity=0 time=0.0140845
EXTRACT: note_on channel=9 note=33 velocity=0 time=0
EXTRACT: note_on channel=9 note=31 velocity=0 time=0
EXTRACT: note_on channel=10 note=31 velocity=0 time=0
EXTRACT: pitchwheel channel=11 pitch=1280 time=0.00704225
EXTRACT: pitchwheel channel=11 pitch=1408 time=0.00704225
EXTRACT: pitchwheel channel=11 pitch=1536 time=0.00704225
EXTRACT: pitchwheel channel=11 pitch=1792 time=0.00704225
EXTRACT: pitchwheel channel=11 pitch=1920 time=0.00704225
EXTRACT: pitchwheel channel=11 pitch=2048 time=0.0140845
EXTRACT: pitchwheel channel=11 pitch=2304 time=0.00704225
EXTRACT: pitchwheel channel=11 pitch=2432 time=0.00704225
EXTRACT: pitchwheel channel=11 pitch=2944 time=0.0140845
EXTRACT: pitchwheel channel=11 pitch=3072 time=0.0140845
EXTRACT: pitchwheel channel=11 pitch=3328 time=0.0140845
EXTRACT: pitchwheel channel=11 pitch=3584 time=0.00704225
EXTRACT: pitchwheel channel=11 pitch=3840 time=0.02112675
EXTRACT: pitchwheel channel=11 pitch=4608 time=0.0140845
EXTRACT: pitchwheel channel=11 pitch=4736 time=0.00704225
EXTRACT: pitchwheel channel=11 pitch=4992 time=0.00704225
EXTRACT: pitchwheel channel=11 pitch=5248 time=0.0140845
EXTRACT: pitchwheel channel=11 pitch=5376 time=0.00704225
EXTRACT: pitchwheel channel=11 pitch=5888 time=0.00704225
EXTRACT: pitchwheel channel=11 pitch=6144 time=0.00704225
EXTRACT: pitchwheel channel=11 pitch=6528 time=0.00704225
EXTRACT: pitchwheel channel=11 pitch=6912 time=0.0140845
EXTRACT: pitchwheel channel=11 pitch=7296 time=0.00704225
EXTRACT: pitchwheel channel=11 pitch=7552 time=0.00704225
EXTRACT: pitchwheel channel=11 pitch=7808 time=0.00704225
EXTRACT: pitchwheel channel=11 pitch=7936 time=0.00704225
EXTRACT: pitchwheel channel=11 pitch=8064 time=0.0140845
EXTRACT: note_on channel=9 note=51 velocity=127 time=0.056338
EXTRACT: note_on channel=9 note=46 velocity=80 time=0
EXTRACT: pitchwheel channel=11 pitch=7936 time=0.00704225
EXTRACT: pitchwheel channel=11 pitch=7808 time=0.02112675
EXTRACT: pitchwheel channel=11 pitch=7680 time=0.00704225
EXTRACT: pitchwheel channel=11 pitch=7552 time=0.00704225
EXTRACT: pitchwheel channel=11 pitch=7424 time=0.00704225
EXTRACT: pitchwheel channel=11 pitch=7168 time=0.00704225
EXTRACT: control_change channel=3 control=72 value=64 time=0.00704225
EXTRACT: pitchwheel channel=11 pitch=6912 time=0.00704225
EXTRACT: pitchwheel channel=11 pitch=6656 time=0.00704225
EXTRACT: pitchwheel channel=11 pitch=6400 time=0.00704225
EXTRACT: pitchwheel channel=11 pitch=6144 time=0.00704225
EXTRACT: pitchwheel channel=11 pitch=5376 time=0.00704225
EXTRACT: note_on channel=9 note=46 velocity=0 time=0.00704225
EXTRACT: note_on channel=9 note=51 velocity=0 time=0
EXTRACT: control_change channel=11 control=11 value=125 time=0
EXTRACT: control_change channel=11 control=11 value=124 time=0.00704225
EXTRACT: pitchwheel channel=11 pitch=5120 time=0
EXTRACT: pitchwheel channel=11 pitch=4864 time=0.00704225
EXTRACT: pitchwheel channel=11 pitch=4096 time=0.00704225
EXTRACT: pitchwheel channel=11 pitch=3840 time=0.00704225
EXTRACT: pitchwheel channel=11 pitch=3456 time=0.00704225
EXTRACT: control_change channel=11 control=11 value=123 time=0.00704225
EXTRACT: pitchwheel channel=11 pitch=3200 time=0.00704225
EXTRACT: pitchwheel channel=11 pitch=2944 time=0.0140845
EXTRACT: control_change channel=11 control=11 value=122 time=0.00704225
EXTRACT: pitchwheel channel=11 pitch=2176 time=0
EXTRACT: pitchwheel channel=11 pitch=1920 time=0.02112675
EXTRACT: pitchwheel channel=11 pitch=1664 time=0.0140845
EXTRACT: pitchwheel channel=11 pitch=1536 time=0.00704225
EXTRACT: pitchwheel channel=11 pitch=1280 time=0.00704225
EXTRACT: control_change channel=11 control=11 value=121 time=0.00704225
EXTRACT: pitchwheel channel=11 pitch=1024 time=0.00704225
EXTRACT: control_change channel=11 control=11 value=120 time=0.0140845
EXTRACT: pitchwheel channel=11 pitch=896 time=0
EXTRACT: pitchwheel channel=11 pitch=768 time=0.00704225
EXTRACT: pitchwheel channel=11 pitch=640 time=0.00704225
EXTRACT: control_change channel=11 control=11 value=119 time=0.00704225
EXTRACT: control_change channel=11 control=11 value=118 time=0.00704225
EXTRACT: pitchwheel channel=11 pitch=512 time=0.0140845
EXTRACT: control_change channel=11 control=11 value=117 time=0.00704225
EXTRACT: pitchwheel channel=11 pitch=384 time=0
EXTRACT: control_change channel=11 control=11 value=115 time=0.0140845
EXTRACT: pitchwheel channel=11 pitch=256 time=0.00704225
EXTRACT: pitchwheel channel=11 pitch=128 time=0.00704225
EXTRACT: note_on channel=1 note=52 velocity=0 time=0.00704225
EXTRACT: control_change channel=11 control=11 value=114 time=0
EXTRACT: note_on channel=1 note=57 velocity=100 time=0.00704225
EXTRACT: pitchwheel channel=11 pitch=0 time=0
EXTRACT: note_on channel=1 note=54 velocity=100 time=0.00704225
EXTRACT: note_on channel=1 note=56 velocity=0 time=0.00704225
EXTRACT: note_on channel=1 note=78 velocity=100 time=0
EXTRACT: note_on channel=1 note=62 velocity=100 time=0
EXTRACT: note_on channel=1 note=64 velocity=0 time=0.0140845
EXTRACT: note_on channel=1 note=61 velocity=0 time=0.0140845
EXTRACT: control_change channel=11 control=11 value=113 time=0
EXTRACT: control_change channel=11 control=11 value=112 time=0.00704225
EXTRACT: control_change channel=11 control=11 value=111 time=0.0140845
EXTRACT: pitchwheel channel=3 pitch=0 time=0.00704225
EXTRACT: note_on channel=0 note=57 velocity=0 time=0.00704225
EXTRACT: note_on channel=0 note=49 velocity=0 time=0
EXTRACT: note_on channel=0 note=61 velocity=0 time=0
EXTRACT: note_on channel=0 note=64 velocity=0 time=0
EXTRACT: note_on channel=0 note=66 velocity=82 time=0
EXTRACT: note_on channel=2 note=56 velocity=0 time=0
EXTRACT: note_on channel=2 note=37 velocity=0 time=0
EXTRACT: note_on channel=2 note=44 velocity=0 time=0
EXTRACT: note_on channel=2 note=49 velocity=0 time=0
EXTRACT: note_on channel=2 note=45 velocity=66 time=0
EXTRACT: note_on channel=2 note=38 velocity=66 time=0
EXTRACT: note_on channel=2 note=57 velocity=66 time=0
EXTRACT: note_on channel=2 note=50 velocity=66 time=0
EXTRACT: note_on channel=3 note=39 velocity=0 time=0
EXTRACT: note_on channel=3 note=50 velocity=113 time=0
EXTRACT: note_on channel=8 note=40 velocity=0 time=0
EXTRACT: note_on channel=9 note=33 velocity=127 time=0
EXTRACT: note_on channel=9 note=46 velocity=80 time=0
EXTRACT: note_on channel=9 note=57 velocity=100 time=0
EXTRACT: control_change channel=11 control=11 value=110 time=0
EXTRACT: note_on channel=0 note=62 velocity=82 time=0.00704225
EXTRACT: note_on channel=0 note=50 velocity=82 time=0
EXTRACT: note_on channel=4 note=66 velocity=107 time=0
EXTRACT: note_on channel=8 note=38 velocity=100 time=0
EXTRACT: control_change channel=11 control=11 value=109 time=0
EXTRACT: pitchwheel channel=11 pitch=-7936 time=0
EXTRACT: note_on channel=0 note=69 velocity=82 time=0.00704225
EXTRACT: pitchwheel channel=11 pitch=-7680 time=0
EXTRACT: pitchwheel channel=11 pitch=-7552 time=0.00704225
EXTRACT: control_change channel=11 control=11 value=107 time=0
EXTRACT: pitchwheel channel=11 pitch=-7296 time=0.0140845
EXTRACT: control_change channel=11 control=11 value=105 time=0.00704225
EXTRACT: pitchwheel channel=11 pitch=-7168 time=0
EXTRACT: pitchwheel channel=11 pitch=-6912 time=0.00704225
EXTRACT: control_change channel=11 control=11 value=103 time=0.00704225
EXTRACT: pitchwheel channel=11 pitch=-6784 time=0
EXTRACT: pitchwheel channel=11 pitch=-6528 time=0.00704225
EXTRACT: control_change channel=11 control=11 value=101 time=0.00704225
EXTRACT: pitchwheel channel=11 pitch=-6400 time=0.00704225
EXTRACT: pitchwheel channel=11 pitch=-6144 time=0.00704225
EXTRACT: control_change channel=11 control=11 value=100 time=0.00704225
EXTRACT: pitchwheel channel=11 pitch=-6016 time=0
EXTRACT: control_change channel=11 control=11 value=98 time=0.00704225
EXTRACT: pitchwheel channel=11 pitch=-5760 time=0
EXTRACT: note_on channel=9 note=57 velocity=0 time=0.00704225
EXTRACT: note_on channel=9 note=46 velocity=0 time=0
EXTRACT: note_on channel=9 note=33 velocity=0 time=0
EXTRACT: pitchwheel channel=11 pitch=-5632 time=0
EXTRACT: control_change channel=11 control=11 value=96 time=0.00704225
EXTRACT: pitchwheel channel=11 pitch=-5376 time=0.00704225
EXTRACT: control_change channel=11 control=11 value=95 time=0.00704225
EXTRACT: pitchwheel channel=11 pitch=-5248 time=0
EXTRACT: control_change channel=11 control=11 value=93 time=0.00704225
EXTRACT: pitchwheel channel=11 pitch=-4992 time=0
EXTRACT: pitchwheel channel=11 pitch=-4864 time=0.00704225
EXTRACT: control_change channel=11 control=11 value=92 time=0
EXTRACT: control_change channel=11 control=11 value=91 time=0.00704225
EXTRACT: pitchwheel channel=11 pitch=-4608 time=0
EXTRACT: control_change channel=11 control=11 value=89 time=0.00704225
EXTRACT: pitchwheel channel=11 pitch=-4480 time=0.00704225
EXTRACT: control_change channel=11 control=11 value=86 time=0.00704225
EXTRACT: pitchwheel channel=11 pitch=-4224 time=0
EXTRACT: pitchwheel channel=11 pitch=-4096 time=0.00704225
EXTRACT: pitchwheel channel=11 pitch=-3968 time=0.00704225
EXTRACT: control_change channel=11 control=11 value=84 time=0
EXTRACT: pitchwheel channel=11 pitch=-3712 time=0.00704225
EXTRACT: control_change channel=11 control=11 value=82 time=0
EXTRACT: pitchwheel channel=11 pitch=-3584 time=0.0140845
EXTRACT: control_change channel=11 control=11 value=80 time=0.00704225
EXTRACT: pitchwheel channel=11 pitch=-3328 time=0
EXTRACT: pitchwheel channel=11 pitch=-3200 time=0.00704225
EXTRACT: pitchwheel channel=11 pitch=-2944 time=0.00704225
EXTRACT: control_change channel=11 control=11 value=78 time=0
EXTRACT: pitchwheel channel=11 pitch=-2816 time=0.00704225
EXTRACT: control_change channel=11 control=11 value=76 time=0.00704225
EXTRACT: pitchwheel channel=11 pitch=-2560 time=0.00704225
EXTRACT: pitchwheel channel=11 pitch=-2432 time=0.00704225
EXTRACT: pitchwheel channel=11 pitch=-2176 time=0.00704225
EXTRACT: control_change channel=11 control=11 value=74 time=0
EXTRACT: pitchwheel channel=11 pitch=-2048 time=0.00704225
EXTRACT: control_change channel=11 control=11 value=68 time=0
EXTRACT: control_change channel=11 control=11 value=67 time=0.00704225
EXTRACT: pitchwheel channel=11 pitch=-1792 time=0
EXTRACT: pitchwheel channel=11 pitch=-1664 time=0.0140845
EXTRACT: pitchwheel channel=11 pitch=-1408 time=0.00704225
EXTRACT: control_change channel=11 control=11 value=64 time=0
EXTRACT: pitchwheel channel=11 pitch=-1280 time=0.00704225
EXTRACT: control_change channel=11 control=11 value=61 time=0
EXTRACT: control_change channel=11 control=11 value=60 time=0.00704225
EXTRACT: pitchwheel channel=11 pitch=-1024 time=0
EXTRACT: control_change channel=11 control=11 value=59 time=0.00704225
EXTRACT: pitchwheel channel=11 pitch=-896 time=0
EXTRACT: control_change channel=11 control=11 value=57 time=0.00704225
EXTRACT: pitchwheel channel=11 pitch=-640 time=0.00704225
EXTRACT: control_change channel=11 control=11 value=56 time=0.00704225
EXTRACT: pitchwheel channel=11 pitch=-512 time=0
EXTRACT: pitchwheel channel=11 pitch=-256 time=0.00704225
EXTRACT: control_change channel=11 control=11 value=54 time=0
EXTRACT: pitchwheel channel=11 pitch=-128 time=0.00704225
EXTRACT: control_change channel=11 control=11 value=53 time=0.00704225
EXTRACT: control_change channel=11 control=1 value=1 time=0
EXTRACT: pitchwheel channel=11 pitch=0 time=0
EXTRACT: control_change channel=11 control=11 value=50 time=0.00704225
EXTRACT: control_change channel=11 control=1 value=2 time=0.00704225
EXTRACT: control_change channel=11 control=11 value=49 time=0.00704225
EXTRACT: control_change channel=11 control=1 value=4 time=0
EXTRACT: control_change channel=11 control=1 value=7 time=0.00704225
EXTRACT: control_change channel=11 control=1 value=13 time=0.00704225
EXTRACT: control_change channel=11 control=11 value=47 time=0
EXTRACT: control_change channel=11 control=1 value=19 time=0.00704225
EXTRACT: control_change channel=11 control=11 value=45 time=0
EXTRACT: control_change channel=11 control=11 value=44 time=0.00704225
EXTRACT: control_change channel=11 control=1 value=23 time=0.00704225
EXTRACT: note_on channel=0 note=69 velocity=0 time=0.00704225
EXTRACT: note_on channel=0 note=66 velocity=0 time=0
EXTRACT: note_on channel=0 note=62 velocity=0 time=0
EXTRACT: note_on channel=0 note=50 velocity=0 time=0
EXTRACT: note_on channel=0 note=69 velocity=82 time=0
EXTRACT: note_on channel=0 note=66 velocity=82 time=0
EXTRACT: note_on channel=0 note=62 velocity=82 time=0
EXTRACT: note_on channel=0 note=50 velocity=102 time=0
EXTRACT: control_change channel=3 control=72 value=107 time=0
EXTRACT: note_on channel=9 note=51 velocity=127 time=0
EXTRACT: note_on channel=9 note=46 velocity=80 time=0
EXTRACT: control_change channel=11 control=1 value=26 time=0
EXTRACT: control_change channel=11 control=11 value=43 time=0
EXTRACT: control_change channel=11 control=11 value=41 time=0.00704225
EXTRACT: control_change channel=11 control=1 value=27 time=0
EXTRACT: control_change channel=11 control=1 value=29 time=0.00704225
EXTRACT: control_change channel=11 control=11 value=39 time=0
EXTRACT: control_change channel=11 control=11 value=37 time=0.0140845
EXTRACT: control_change channel=11 control=1 value=33 time=0.00704225
EXTRACT: control_change channel=11 control=1 value=35 time=0.00704225
EXTRACT: control_change channel=11 control=11 value=36 time=0.00704225
EXTRACT: control_change channel=11 control=11 value=33 time=0.00704225
EXTRACT: control_change channel=11 control=1 value=37 time=0
EXTRACT: control_change channel=11 control=11 value=32 time=0.0140845
EXTRACT: control_change channel=11 control=1 value=43 time=0.00704225
EXTRACT: control_change channel=11 control=11 value=31 time=0.00704225
EXTRACT: control_change channel=11 control=1 value=49 time=0.00704225
EXTRACT: control_change channel=11 control=11 value=29 time=0
EXTRACT: control_change channel=11 control=11 value=28 time=0.00704225
EXTRACT: control_change channel=11 control=1 value=51 time=0
EXTRACT: note_on channel=9 note=46 velocity=0 time=0.00704225
EXTRACT: note_on channel=9 note=51 velocity=0 time=0
EXTRACT: control_change channel=11 control=1 value=57 time=0
EXTRACT: control_change channel=11 control=11 value=27 time=0
EXTRACT: control_change channel=11 control=11 value=24 time=0.00704225
EXTRACT: control_change channel=11 control=1 value=58 time=0.0140845
EXTRACT: control_change channel=11 control=1 value=60 time=0.00704225
EXTRACT: control_change channel=11 control=11 value=23 time=0
EXTRACT: control_change channel=11 control=1 value=61 time=0.00704225
EXTRACT: control_change channel=11 control=11 value=21 time=0.00704225
EXTRACT: control_change channel=11 control=11 value=19 time=0.00704225
EXTRACT: control_change channel=11 control=1 value=62 time=0.00704225
EXTRACT: control_change channel=11 control=11 value=17 time=0.00704225
EXTRACT: control_change channel=11 control=1 value=63 time=0.00704225
EXTRACT: control_change channel=11 control=11 value=16 time=0
EXTRACT: control_change channel=11 control=11 value=15 time=0.00704225
EXTRACT: control_change channel=11 control=1 value=64 time=0.00704225
EXTRACT: control_change channel=11 control=11 value=12 time=0
EXTRACT: control_change channel=11 control=11 value=11 time=0.00704225
EXTRACT: control_change channel=11 control=1 value=65 time=0.00704225
EXTRACT: note_on channel=0 note=50 velocity=0 time=0.00704225
EXTRACT: note_on channel=0 note=62 velocity=0 time=0
EXTRACT: note_on channel=0 note=62 velocity=82 time=0
EXTRACT: note_on channel=0 note=50 velocity=102 time=0
EXTRACT: note_on channel=11 note=54 velocity=0 time=0
EXTRACT: control_change channel=11 control=11 value=9 time=0
EXTRACT: control_change channel=11 control=1 value=66 time=0.00704225
EXTRACT: control_change channel=11 control=11 value=6 time=0
EXTRACT: control_change channel=11 control=11 value=5 time=0.00704225
EXTRACT: control_change channel=11 control=11 value=4 time=0.00704225
EXTRACT: control_change channel=11 control=1 value=68 time=0
EXTRACT: control_change channel=11 control=1 value=69 time=0.02112675
EXTRACT: control_change channel=11 control=1 value=70 time=0.0140845
EXTRACT: control_change channel=11 control=1 value=72 time=0.03521125
EXTRACT: control_change channel=11 control=1 value=73 time=0.0422535
EXTRACT: control_change channel=11 control=1 value=74 time=0.0140845
EXTRACT: note_on channel=0 note=50 velocity=0 time=0.06338025
EXTRACT: note_on channel=0 note=69 velocity=0 time=0
EXTRACT: note_on channel=0 note=66 velocity=0 time=0
EXTRACT: note_on channel=0 note=62 velocity=0 time=0
EXTRACT: note_on channel=0 note=66 velocity=82 time=0
EXTRACT: note_on channel=3 note=50 velocity=0 time=0
EXTRACT: note_on channel=3 note=50 velocity=113 time=0
EXTRACT: note_on channel=4 note=78 velocity=107 time=0
EXTRACT: note_on channel=9 note=31 velocity=127 time=0
EXTRACT: note_on channel=9 note=33 velocity=127 time=0
EXTRACT: note_on channel=9 note=46 velocity=80 time=0
EXTRACT: note_on channel=10 note=31 velocity=73 time=0
EXTRACT: control_change channel=11 control=1 value=75 time=0
EXTRACT: note_on channel=0 note=50 velocity=82 time=0.00704225
EXTRACT: note_on channel=0 note=62 velocity=82 time=0
EXTRACT: note_on channel=4 note=66 velocity=0 time=0
EXTRACT: note_on channel=8 note=38 velocity=0 time=0
EXTRACT: control_change channel=11 control=1 value=76 time=0
EXTRACT: note_on channel=0 note=69 velocity=82 time=0.00704225
EXTRACT: note_on channel=8 note=38 velocity=100 time=0.00704225
EXTRACT: control_change channel=11 control=1 value=77 time=0
EXTRACT: control_change channel=11 control=11 value=127 time=0.02112675
EXTRACT: control_change channel=11 control=1 value=78 time=0
EXTRACT: control_change channel=11 control=1 value=79 time=0.03521125
EXTRACT: control_change channel=11 control=1 value=80 time=0.0140845
EXTRACT: note_on channel=9 note=46 velocity=0 time=0.0140845
EXTRACT: note_on channel=9 note=33 velocity=0 time=0
EXTRACT: note_on channel=9 note=31 velocity=0 time=0
EXTRACT: note_on channel=10 note=31 velocity=0 time=0
EXTRACT: control_change channel=11 control=1 value=81 time=0.0422535
EXTRACT: control_change channel=11 control=1 value=82 time=0.028169
EXTRACT: control_change channel=11 control=1 value=83 time=0.056338
EXTRACT: control_change channel=11 control=1 value=84 time=0.02112675
EXTRACT: control_change channel=11 control=1 value=85 time=0.06338025
EXTRACT: control_change channel=11 control=1 value=86 time=0.03521125
EXTRACT: control_change channel=11 control=1 value=87 time=0.02112675
EXTRACT: note_on channel=9 note=46 velocity=80 time=0.04929575
EXTRACT: control_change channel=11 control=1 value=88 time=0
EXTRACT: note_on channel=11 note=66 velocity=124 time=0
EXTRACT: note_on channel=11 note=62 velocity=80 time=0
EXTRACT: pitchwheel channel=11 pitch=-8064 time=0.00704225
EXTRACT: control_change channel=11 control=1 value=89 time=0.00704225
EXTRACT: pitchwheel channel=11 pitch=-7808 time=0
EXTRACT: pitchwheel channel=11 pitch=-7680 time=0.00704225
EXTRACT: pitchwheel channel=11 pitch=-7424 time=0.00704225
EXTRACT: control_change channel=11 control=1 value=90 time=0.00704225
EXTRACT: pitchwheel channel=11 pitch=-7296 time=0.00704225
EXTRACT: pitchwheel channel=11 pitch=-7040 time=0.00704225
EXTRACT: pitchwheel channel=11 pitch=-6912 time=0.00704225
EXTRACT: pitchwheel channel=11 pitch=-6656 time=0.00704225
EXTRACT: pitchwheel channel=11 pitch=-6528 time=0.00704225
EXTRACT: pitchwheel channel=11 pitch=-6272 time=0.0140845
EXTRACT: pitchwheel channel=11 pitch=-6144 time=0.00704225
EXTRACT: control_change channel=11 control=1 value=91 time=0.00704225
EXTRACT: pitchwheel channel=11 pitch=-5888 time=0
EXTRACT: note_on channel=9 note=46 velocity=0 time=0.00704225
EXTRACT: pitchwheel channel=11 pitch=-5760 time=0
EXTRACT: pitchwheel channel=11 pitch=-5504 time=0.00704225
EXTRACT: pitchwheel channel=11 pitch=-5376 time=0.0140845
EXTRACT: pitchwheel channel=11 pitch=-5248 time=0.00704225
EXTRACT: pitchwheel channel=11 pitch=-4992 time=0.00704225
EXTRACT: control_change channel=11 control=1 value=92 time=0.00704225
EXTRACT: pitchwheel channel=11 pitch=-4864 time=0
EXTRACT: pitchwheel channel=11 pitch=-4608 time=0.00704225
EXTRACT: pitchwheel channel=11 pitch=-4480 time=0.0140845
EXTRACT: pitchwheel channel=11 pitch=-4224 time=0.00704225
EXTRACT: pitchwheel channel=11 pitch=-4096 time=0.00704225
EXTRACT: pitchwheel channel=11 pitch=-3840 time=0.00704225
EXTRACT: pitchwheel channel=11 pitch=-3712 time=0.00704225
EXTRACT: note_on channel=0 note=50 velocity=0 time=0.00704225
EXTRACT: note_on channel=0 note=50 velocity=82 time=0
EXTRACT: control_change channel=11 control=1 value=93 time=0
EXTRACT: note_on channel=0 note=66 velocity=0 time=0.00704225
EXTRACT: note_on channel=0 note=69 velocity=0 time=0
EXTRACT: note_on channel=0 note=62 velocity=0 time=0
EXTRACT: note_on channel=0 note=62 velocity=82 time=0
EXTRACT: note_on channel=0 note=62 velocity=82 time=0
EXTRACT: note_on channel=0 note=66 velocity=82 time=0
EXTRACT: note_on channel=0 note=69 velocity=82 time=0
EXTRACT: note_on channel=9 note=33 velocity=127 time=0
EXTRACT: pitchwheel channel=11 pitch=-3456 time=0
EXTRACT: pitchwheel channel=11 pitch=-3328 time=0.00704225
EXTRACT: pitchwheel channel=11 pitch=-3072 time=0.00704225
EXTRACT: pitchwheel channel=11 pitch=-2944 time=0.00704225
EXTRACT: pitchwheel channel=11 pitch=-2688 time=0.00704225
EXTRACT: pitchwheel channel=11 pitch=-2560 time=0.0140845
EXTRACT: pitchwheel channel=11 pitch=-2432 time=0.00704225
EXTRACT: pitchwheel channel=11 pitch=-2176 time=0.00704225
EXTRACT: control_change channel=11 control=1 value=94 time=0
EXTRACT: pitchwheel channel=11 pitch=-2048 time=0.00704225
EXTRACT: pitchwheel channel=11 pitch=-1792 time=0.00704225
EXTRACT: pitchwheel channel=11 pitch=-1664 time=0.0140845
EXTRACT: pitchwheel channel=11 pitch=-1408 time=0.00704225
EXTRACT: pitchwheel channel=11 pitch=-1280 time=0.00704225
EXTRACT: note_on channel=9 note=33 velocity=0 time=0.00704225
EXTRACT: control_change channel=11 control=1 value=95 time=0
EXTRACT: pitchwheel channel=11 pitch=-1024 time=0
EXTRACT: pitchwheel channel=11 pitch=-896 time=0.00704225
EXTRACT: pitchwheel channel=11 pitch=-640 time=0.0140845
EXTRACT: pitchwheel channel=11 pitch=-512 time=0.00704225
EXTRACT: control_change channel=11 control=1 value=96 time=0.00704225
EXTRACT: pitchwheel channel=11 pitch=-256 time=0
EXTRACT: pitchwheel channel=11 pitch=-128 time=0.00704225
EXTRACT: pitchwheel channel=11 pitch=0 time=0.00704225
EXTRACT: note_on channel=3 note=50 velocity=0 time=0.056338
EXTRACT: note_on channel=3 note=50 velocity=113 time=0
EXTRACT: note_on channel=4 note=78 velocity=0 time=0
EXTRACT: note_on channel=4 note=78 velocity=107 time=0
EXTRACT: note_on channel=8 note=38 velocity=0 time=0
EXTRACT: note_on channel=8 note=38 velocity=100 time=0
EXTRACT: note_on channel=9 note=46 velocity=80 time=0
EXTRACT: control_change channel=11 control=1 value=97 time=0
EXTRACT: control_change channel=11 control=1 value=98 time=0.06338025
EXTRACT: control_change channel=11 control=1 value=99 time=0.02112675
EXTRACT: control_change channel=11 control=1 value=100 time=0.0140845
EXTRACT: note_on channel=9 note=46 velocity=0 time=0.00704225
EXTRACT: control_change channel=11 control=1 value=101 time=0.0422535
EXTRACT: control_change channel=11 control=1 value=102 time=0.02112675
EXTRACT: note_on channel=9 note=33 velocity=127 time=0.0422535
EXTRACT: control_change channel=11 control=1 value=103 time=0.02112675
EXTRACT: control_change channel=11 control=1 value=104 time=0.02112675
EXTRACT: control_change channel=11 control=1 value=105 time=0.03521125
EXTRACT: note_on channel=9 note=33 velocity=0 time=0.028169
EXTRACT: control_change channel=11 control=1 value=106 time=0
EXTRACT: control_change channel=11 control=1 value=107 time=0.06338025
EXTRACT: control_change channel=11 control=1 value=108 time=0.02112675
EXTRACT: note_on channel=0 note=50 velocity=0 time=0.00704225
EXTRACT: note_on channel=0 note=66 velocity=0 time=0.00704225
EXTRACT: note_on channel=0 note=62 velocity=0 time=0
EXTRACT: note_on channel=0 note=62 velocity=0 time=0
EXTRACT: note_on channel=0 note=69 velocity=0 time=0
EXTRACT: note_on channel=0 note=50 velocity=82 time=0
EXTRACT: note_on channel=0 note=62 velocity=82 time=0.00704225
EXTRACT: note_on channel=0 note=66 velocity=82 time=0
EXTRACT: note_on channel=0 note=62 velocity=82 time=0
EXTRACT: note_on channel=0 note=69 velocity=82 time=0
EXTRACT: note_on channel=3 note=50 velocity=0 time=0
EXTRACT: note_on channel=3 note=52 velocity=113 time=0
EXTRACT: note_on channel=9 note=33 velocity=127 time=0
EXTRACT: note_on channel=9 note=46 velocity=80 time=0
EXTRACT: control_change channel=11 control=1 value=109 time=0.03521125
EXTRACT: pitchwheel channel=3 pitch=128 time=0.0140845
EXTRACT: pitchwheel channel=3 pitch=256 time=0.0140845
EXTRACT: pitchwheel channel=3 pitch=384 time=0.0140845
EXTRACT: control_change channel=11 control=1 value=110 time=0
EXTRACT: pitchwheel channel=3 pitch=640 time=0.028169
EXTRACT: note_on channel=9 note=46 velocity=0 time=0
EXTRACT: note_on channel=9 note=33 velocity=0 time=0
EXTRACT: pitchwheel channel=3 pitch=896 time=0.0140845
EXTRACT: pitchwheel channel=3 pitch=1152 time=0.0140845
EXTRACT: pitchwheel channel=3 pitch=1408 time=0.00704225
EXTRACT: control_change channel=11 control=1 value=111 time=0
EXTRACT: pitchwheel channel=3 pitch=2176 time=0.00704225
EXTRACT: pitchwheel channel=3 pitch=4736 time=0.00704225
EXTRACT: pitchwheel channel=3 pitch=6528 time=0.00704225
EXTRACT: pitchwheel channel=3 pitch=6912 time=0.0140845
EXTRACT: control_change channel=11 control=1 value=112 time=0
EXTRACT: pitchwheel channel=3 pitch=7424 time=0.00704225
EXTRACT: pitchwheel channel=3 pitch=7936 time=0.00704225
EXTRACT: pitchwheel channel=3 pitch=8191 time=0.00704225
EXTRACT: control_change channel=11 control=1 value=113 time=0.07746475
EXTRACT: note_on channel=8 note=38 velocity=0 time=0.1267605
EXTRACT: note_on channel=0 note=50 velocity=0 time=0.0140845
EXTRACT: note_on channel=0 note=50 velocity=82 time=0
EXTRACT: note_on channel=0 note=62 velocity=0 time=0.00704225
EXTRACT: note_on channel=0 note=69 velocity=0 time=0
EXTRACT: note_on channel=0 note=62 velocity=0 time=0
EXTRACT: note_on channel=0 note=66 velocity=0 time=0
EXTRACT: note_on channel=0 note=69 velocity=82 time=0
EXTRACT: note_on channel=0 note=62 velocity=82 time=0
EXTRACT: note_on channel=0 note=62 velocity=82 time=0
EXTRACT: note_on channel=0 note=66 velocity=82 time=0
EXTRACT: note_on channel=3 note=52 velocity=0 time=0
EXTRACT: note_on channel=3 note=55 velocity=113 time=0
EXTRACT: note_on channel=4 note=78 velocity=0 time=0
EXTRACT: note_on channel=4 note=78 velocity=107 time=0
EXTRACT: note_on channel=9 note=31 velocity=127 time=0
EXTRACT: note_on channel=9 note=33 velocity=127 time=0
EXTRACT: note_on channel=9 note=46 velocity=80 time=0
EXTRACT: note_on channel=10 note=31 velocity=73 time=0
EXTRACT: note_on channel=8 note=38 velocity=100 time=0.00704225
EXTRACT: note_on channel=9 note=46 velocity=0 time=0.0985915
EXTRACT: note_on channel=9 note=33 velocity=0 time=0
EXTRACT: note_on channel=9 note=31 velocity=0 time=0
EXTRACT: note_on channel=10 note=31 velocity=0 time=0
EXTRACT: control_change channel=11 control=1 value=114 time=0.0985915
EXTRACT: control_change channel=11 control=1 value=102 time=0.10563375
EXTRACT: control_change channel=11 control=1 value=94 time=0.00704225
EXTRACT: control_change channel=11 control=1 value=87 time=0.0140845
EXTRACT: control_change channel=11 control=1 value=84 time=0.00704225
EXTRACT: control_change channel=11 control=1 value=76 time=0.00704225
EXTRACT: control_change channel=11 control=1 value=68 time=0.00704225
EXTRACT: control_change channel=11 control=1 value=66 time=0.00704225
EXTRACT: control_change channel=11 control=1 value=60 time=0.0140845
EXTRACT: control_change channel=11 control=1 value=58 time=0.00704225
EXTRACT: control_change channel=11 control=1 value=49 time=0.00704225
EXTRACT: control_change channel=11 control=1 value=43 time=0.00704225
EXTRACT: control_change channel=11 control=1 value=36 time=0.00704225
EXTRACT: note_on channel=0 note=50 velocity=0 time=0.0140845
EXTRACT: note_on channel=0 note=50 velocity=82 time=0
EXTRACT: control_change channel=11 control=1 value=31 time=0
EXTRACT: note_on channel=0 note=62 velocity=0 time=0.00704225
EXTRACT: note_on channel=0 note=66 velocity=0 time=0
EXTRACT: note_on channel=0 note=69 velocity=0 time=0
EXTRACT: note_on channel=0 note=62 velocity=0 time=0
EXTRACT: note_on channel=0 note=69 velocity=82 time=0
EXTRACT: note_on channel=0 note=62 velocity=82 time=0
EXTRACT: note_on channel=0 note=66 velocity=82 time=0
EXTRACT: note_on channel=8 note=40 velocity=100 time=0
EXTRACT: note_on channel=9 note=51 velocity=127 time=0
EXTRACT: note_on channel=9 note=46 velocity=80 time=0
EXTRACT: note_on channel=11 note=62 velocity=0 time=0
EXTRACT: note_on channel=11 note=66 velocity=0 time=0
EXTRACT: note_on channel=11 note=61 velocity=80 time=0
EXTRACT: note_on channel=11 note=64 velocity=117 time=0
EXTRACT: control_change channel=11 control=1 value=13 time=0
EXTRACT: control_change channel=11 control=1 value=0 time=0.00704225
EXTRACT: pitchwheel channel=11 pitch=-8064 time=0
EXTRACT: pitchwheel channel=11 pitch=-7808 time=0.00704225
EXTRACT: note_on channel=8 note=38 velocity=0 time=0.00704225
EXTRACT: pitchwheel channel=11 pitch=-7552 time=0.00704225
EXTRACT: pitchwheel channel=11 pitch=-7296 time=0.00704225
EXTRACT: pitchwheel channel=11 pitch=-7040 time=0.00704225
EXTRACT: pitchwheel channel=11 pitch=-6912 time=0.00704225
EXTRACT: pitchwheel channel=11 pitch=-6656 time=0.00704225
EXTRACT: pitchwheel channel=11 pitch=-6400 time=0.0140845
EXTRACT: pitchwheel channel=11 pitch=-6144 time=0.00704225
EXTRACT: pitchwheel channel=11 pitch=-5888 time=0.00704225
EXTRACT: pitchwheel channel=11 pitch=-5760 time=0.00704225
EXTRACT: pitchwheel channel=11 pitch=-5504 time=0.00704225
EXTRACT: note_on channel=9 note=46 velocity=0 time=0.00704225
EXTRACT: note_on channel=9 note=51 velocity=0 time=0
EXTRACT: pitchwheel channel=11 pitch=-5248 time=0.00704225
EXTRACT: pitchwheel channel=11 pitch=-4992 time=0.00704225
EXTRACT: pitchwheel channel=11 pitch=-4736 time=0.00704225
EXTRACT: pitchwheel channel=11 pitch=-4608 time=0.00704225
EXTRACT: pitchwheel channel=11 pitch=-4352 time=0.00704225
EXTRACT: pitchwheel channel=11 pitch=-4096 time=0.0140845
EXTRACT: pitchwheel channel=11 pitch=-3840 time=0.00704225
EXTRACT: pitchwheel channel=11 pitch=-3584 time=0.00704225
EXTRACT: pitchwheel channel=11 pitch=-3456 time=0.00704225
EXTRACT: pitchwheel channel=11 pitch=-3200 time=0.00704225
EXTRACT: pitchwheel channel=11 pitch=-2944 time=0.0140845
EXTRACT: pitchwheel channel=11 pitch=-2688 time=0.00704225
EXTRACT: note_on channel=0 note=66 velocity=0 time=0.00704225
EXTRACT: note_on channel=0 note=62 velocity=0 time=0
EXTRACT: note_on channel=0 note=64 velocity=82 time=0
EXTRACT: note_on channel=0 note=61 velocity=82 time=0
EXTRACT: pitchwheel channel=11 pitch=-2432 time=0
EXTRACT: pitchwheel channel=11 pitch=-2304 time=0.00704225
EXTRACT: pitchwheel channel=11 pitch=-2048 time=0.00704225
EXTRACT: pitchwheel channel=11 pitch=-1792 time=0.0140845
EXTRACT: pitchwheel channel=11 pitch=-1536 time=0.00704225
EXTRACT: pitchwheel channel=11 pitch=-1280 time=0.00704225
EXTRACT: pitchwheel channel=11 pitch=-1152 time=0.00704225
EXTRACT: pitchwheel channel=11 pitch=-896 time=0.00704225
EXTRACT: note_on channel=1 note=57 velocity=0 time=0.00704225
EXTRACT: note_on channel=1 note=78 velocity=0 time=0.00704225
EXTRACT: note_on channel=1 note=62 velocity=0 time=0
EXTRACT: pitchwheel channel=11 pitch=-640 time=0
EXTRACT: pitchwheel channel=11 pitch=-384 time=0.00704225
EXTRACT: note_on channel=1 note=54 velocity=0 time=0.00704225
EXTRACT: pitchwheel channel=11 pitch=-128 time=0
EXTRACT: pitchwheel channel=11 pitch=0 time=0.00704225
EXTRACT: note_on channel=1 note=76 velocity=100 time=0.028169
EXTRACT: note_on channel=1 note=52 velocity=100 time=0.028169
EXTRACT: note_on channel=1 note=57 velocity=100 time=0.02112675
EXTRACT: note_on channel=1 note=61 velocity=100 time=0.00704225
EXTRACT: note_on channel=1 note=69 velocity=100 time=0
EXTRACT: note_on channel=0 note=50 velocity=0 time=0.028169
EXTRACT: note_on channel=0 note=69 velocity=0 time=0.00704225
EXTRACT: note_on channel=0 note=64 velocity=0 time=0
EXTRACT: note_on channel=0 note=61 velocity=0 time=0
EXTRACT: note_on channel=0 note=64 velocity=82 time=0
EXTRACT: note_on channel=2 note=50 velocity=0 time=0
EXTRACT: note_on channel=2 note=45 velocity=0 time=0
EXTRACT: note_on channel=2 note=38 velocity=0 time=0
EXTRACT: note_on channel=2 note=57 velocity=0 time=0
EXTRACT: note_on channel=2 note=52 velocity=66 time=0
EXTRACT: note_on channel=2 note=40 velocity=66 time=0
EXTRACT: note_on channel=2 note=45 velocity=66 time=0
EXTRACT: note_on channel=2 note=57 velocity=66 time=0
EXTRACT: note_on channel=3 note=55 velocity=0 time=0
EXTRACT: note_on channel=3 note=43 velocity=113 time=0
EXTRACT: note_on channel=4 note=78 velocity=0 time=0
EXTRACT: note_on channel=4 note=73 velocity=98 time=0
EXTRACT: note_on channel=8 note=45 velocity=100 time=0
EXTRACT: note_on channel=9 note=49 velocity=70 time=0
EXTRACT: note_on channel=9 note=33 velocity=127 time=0
EXTRACT: note_on channel=9 note=46 velocity=80 time=0
EXTRACT: note_on channel=9 note=33 velocity=127 time=0
EXTRACT: note_on channel=9 note=46 velocity=80 time=0
EXTRACT: note_on channel=11 note=64 velocity=0 time=0
EXTRACT: note_on channel=11 note=61 velocity=0 time=0
EXTRACT: note_on channel=11 note=64 velocity=113 time=0
EXTRACT: note_on channel=11 note=61 velocity=80 time=0
EXTRACT: note_on channel=0 note=61 velocity=82 time=0.00704225
EXTRACT: note_on channel=0 note=45 velocity=82 time=0
EXTRACT: note_on channel=4 note=76 velocity=98 time=0
EXTRACT: note_on channel=0 note=69 velocity=82 time=0.00704225
EXTRACT: note_on channel=8 note=40 velocity=0 time=0
EXTRACT: note_on channel=9 note=46 velocity=0 time=0.09154925
EXTRACT: note_on channel=9 note=46 velocity=0 time=0
EXTRACT: note_on channel=9 note=49 velocity=0 time=0
EXTRACT: note_on channel=9 note=33 velocity=0 time=0
EXTRACT: note_on channel=9 note=33 velocity=0 time=0
EXTRACT: note_on channel=9 note=51 velocity=127 time=0.31690125
EXTRACT: note_on channel=9 note=46 velocity=80 time=0
EXTRACT: note_on channel=9 note=46 velocity=0 time=0.10563375
EXTRACT: note_on channel=9 note=51 velocity=0 time=0
EXTRACT: note_on channel=0 note=69 velocity=0 time=0.10563375
EXTRACT: note_on channel=0 note=64 velocity=0 time=0
EXTRACT: note_on channel=0 note=61 velocity=0 time=0
EXTRACT: note_on channel=0 note=45 velocity=0 time=0
EXTRACT: note_on channel=0 note=45 velocity=103 time=0
EXTRACT: note_on channel=0 note=61 velocity=103 time=0
EXTRACT: note_on channel=0 note=64 velocity=103 time=0
EXTRACT: note_on channel=0 note=69 velocity=103 time=0
EXTRACT: note_on channel=8 note=45 velocity=0 time=0
EXTRACT: note_on channel=8 note=47 velocity=100 time=0
EXTRACT: note_on channel=0 note=69 velocity=0 time=0.2112675
EXTRACT: note_on channel=0 note=45 velocity=0 time=0
EXTRACT: note_on channel=0 note=61 velocity=0 time=0
EXTRACT: note_on channel=0 note=64 velocity=0 time=0
EXTRACT: note_on channel=0 note=64 velocity=82 time=0
EXTRACT: note_on channel=3 note=43 velocity=0 time=0
EXTRACT: note_on channel=3 note=43 velocity=113 time=0
EXTRACT: note_on channel=4 note=73 velocity=0 time=0
EXTRACT: note_on channel=4 note=76 velocity=97 time=0
EXTRACT: note_on channel=4 note=73 velocity=97 time=0
EXTRACT: note_on channel=8 note=47 velocity=0 time=0
EXTRACT: note_on channel=8 note=47 velocity=100 time=0
EXTRACT: note_on channel=9 note=46 velocity=80 time=0
EXTRACT: note_on channel=9 note=33 velocity=127 time=0
EXTRACT: note_on channel=9 note=31 velocity=127 time=0
EXTRACT: note_on channel=9 note=33 velocity=127 time=0
EXTRACT: note_on channel=10 note=31 velocity=73 time=0
EXTRACT: note_on channel=11 note=61 velocity=0 time=0
EXTRACT: note_on channel=11 note=64 velocity=0 time=0
EXTRACT: note_on channel=11 note=64 velocity=113 time=0
EXTRACT: note_on channel=11 note=61 velocity=80 time=0
EXTRACT: note_on channel=0 note=45 velocity=82 time=0.00704225
EXTRACT: note_on channel=0 note=61 velocity=82 time=0
EXTRACT: note_on channel=4 note=76 velocity=0 time=0
EXTRACT: note_on channel=0 note=69 velocity=82 time=0.00704225
EXTRACT: note_on channel=9 note=33 velocity=0 time=0.09154925
EXTRACT: note_on channel=9 note=46 velocity=0 time=0
EXTRACT: note_on channel=9 note=33 velocity=0 time=0
EXTRACT: note_on channel=9 note=31 velocity=0 time=0
EXTRACT: note_on channel=10 note=31 velocity=0 time=0
EXTRACT: note_on channel=8 note=47 velocity=0 time=0.31690125
EXTRACT: note_on channel=8 note=45 velocity=100 time=0
EXTRACT: note_on channel=9 note=46 velocity=80 time=0
EXTRACT: note_on channel=11 note=61 velocity=0 time=0
EXTRACT: note_on channel=11 note=64 velocity=0 time=0
EXTRACT: note_on channel=11 note=64 velocity=113 time=0
EXTRACT: note_on channel=11 note=61 velocity=80 time=0
EXTRACT: note_on channel=9 note=46 velocity=0 time=0.10563375
EXTRACT: note_on channel=9 note=33 velocity=127 time=0.10563375
EXTRACT: note_on channel=9 note=33 velocity=0 time=0.10563375
EXTRACT: note_on channel=1 note=52 velocity=0 time=0.0140845
EXTRACT: note_on channel=1 note=57 velocity=0 time=0.02112675
EXTRACT: note_on channel=1 note=69 velocity=0 time=0.00704225
EXTRACT: note_on channel=1 note=61 velocity=0 time=0
EXTRACT: note_on channel=1 note=52 velocity=100 time=0.00704225
EXTRACT: pitchwheel channel=3 pitch=8191 time=0.00704225
EXTRACT: pitchwheel channel=3 pitch=8064 time=0.00704225
EXTRACT: note_on channel=1 note=56 velocity=100 time=0.00704225
EXTRACT: pitchwheel channel=3 pitch=7552 time=0
EXTRACT: note_on channel=1 note=61 velocity=100 time=0.00704225
EXTRACT: note_on channel=1 note=68 velocity=100 time=0
EXTRACT: pitchwheel channel=3 pitch=7040 time=0
EXTRACT: pitchwheel channel=3 pitch=6528 time=0.00704225
EXTRACT: note_on channel=0 note=45 velocity=0 time=0.00704225
EXTRACT: note_on channel=0 note=69 velocity=0 time=0.00704225
EXTRACT: note_on channel=0 note=61 velocity=0 time=0
EXTRACT: pitchwheel channel=3 pitch=6144 time=0
EXTRACT: note_on channel=0 note=64 velocity=0 time=0.00704225
EXTRACT: note_on channel=0 note=61 velocity=82 time=0
EXTRACT: note_on channel=0 note=64 velocity=82 time=0
EXTRACT: note_on channel=0 note=49 velocity=82 time=0
EXTRACT: note_on channel=0 note=68 velocity=82 time=0
EXTRACT: note_on channel=2 note=57 velocity=0 time=0
EXTRACT: note_on channel=2 note=52 velocity=0 time=0
EXTRACT: note_on channel=2 note=40 velocity=0 time=0
EXTRACT: note_on channel=2 note=45 velocity=0 time=0
EXTRACT: note_on channel=2 note=37 velocity=66 time=0
EXTRACT: note_on channel=2 note=44 velocity=66 time=0
EXTRACT: note_on channel=2 note=52 velocity=66 time=0
EXTRACT: note_on channel=2 note=56 velocity=66 time=0
EXTRACT: note_on channel=3 note=43 velocity=0 time=0
EXTRACT: pitchwheel channel=3 pitch=5632 time=0
EXTRACT: note_on channel=3 note=43 velocity=113 time=0
EXTRACT: note_on channel=4 note=73 velocity=0 time=0
EXTRACT: note_on channel=4 note=76 velocity=0 time=0
EXTRACT: note_on channel=4 note=71 velocity=95 time=0
EXTRACT: note_on channel=4 note=76 velocity=95 time=0
EXTRACT: note_on channel=8 note=45 velocity=0 time=0
EXTRACT: note_on channel=8 note=44 velocity=100 time=0
EXTRACT: note_on channel=9 note=46 velocity=80 time=0
EXTRACT: note_on channel=11 note=61 velocity=0 time=0
EXTRACT: note_on channel=11 note=64 velocity=0 time=0
EXTRACT: note_on channel=11 note=64 velocity=113 time=0
EXTRACT: note_on channel=11 note=61 velocity=80 time=0
EXTRACT: pitchwheel channel=3 pitch=5120 time=0.00704225
EXTRACT: pitchwheel channel=3 pitch=4608 time=0.00704225
EXTRACT: pitchwheel channel=3 pitch=4224 time=0.00704225
EXTRACT: note_on channel=9 note=46 velocity=0 time=0.084507
EXTRACT: note_on channel=9 note=33 velocity=127 time=0.10563375
EXTRACT: note_on channel=9 note=33 velocity=0 time=0.10563375
EXTRACT: note_on channel=9 note=33 velocity=127 time=0.10563375
EXTRACT: note_on channel=9 note=46 velocity=80 time=0
EXTRACT: note_on channel=9 note=33 velocity=127 time=0
EXTRACT: note_on channel=9 note=33 velocity=0 time=0.10563375
EXTRACT: note_on channel=9 note=46 velocity=0 time=0
EXTRACT: note_on channel=9 note=33 velocity=0 time=0
EXTRACT: note_on channel=0 note=68 velocity=0 time=0.31690125
EXTRACT: note_on channel=0 note=61 velocity=0 time=0
EXTRACT: note_on channel=0 note=64 velocity=0 time=0
EXTRACT: note_on channel=0 note=49 velocity=0 time=0
EXTRACT: note_on channel=0 note=49 velocity=82 time=0
EXTRACT: note_on channel=0 note=61 velocity=82 time=0
EXTRACT: note_on channel=0 note=64 velocity=82 time=0
EXTRACT: note_on channel=0 note=68 velocity=82 time=0
EXTRACT: note_on channel=3 note=43 velocity=0 time=0
EXTRACT: note_on channel=3 note=39 velocity=113 time=0
EXTRACT: note_on channel=4 note=76 velocity=0 time=0
EXTRACT: note_on channel=4 note=71 velocity=0 time=0
EXTRACT: note_on channel=4 note=76 velocity=90 time=0
EXTRACT: note_on channel=4 note=71 velocity=90 time=0
EXTRACT: note_on channel=8 note=44 velocity=0 time=0
EXTRACT: note_on channel=8 note=40 velocity=100 time=0
EXTRACT: note_on channel=9 note=31 velocity=127 time=0
EXTRACT: note_on channel=9 note=33 velocity=127 time=0
EXTRACT: note_on channel=9 note=46 velocity=80 time=0
EXTRACT: note_on channel=10 note=31 velocity=73 time=0
EXTRACT: note_on channel=11 note=61 velocity=0 time=0
EXTRACT: note_on channel=11 note=64 velocity=0 time=0
EXTRACT: note_on channel=11 note=54 velocity=124 time=0
EXTRACT: pitchwheel channel=11 pitch=128 time=0.00704225
EXTRACT: pitchwheel channel=11 pitch=256 time=0.028169
EXTRACT: pitchwheel channel=11 pitch=384 time=0.0140845
EXTRACT: pitchwheel channel=11 pitch=512 time=0.00704225
EXTRACT: pitchwheel channel=11 pitch=640 time=0.0140845
EXTRACT: pitchwheel channel=11 pitch=768 time=0.0140845
EXTRACT: pitchwheel channel=11 pitch=1024 time=0.00704225
EXTRACT: note_on channel=9 note=46 velocity=0 time=0.0140845
EXTRACT: note_on channel=9 note=33 velocity=0 time=0
EXTRACT: note_on channel=9 note=31 velocity=0 time=0
EXTRACT: note_on channel=10 note=31 velocity=0 time=0
EXTRACT: pitchwheel channel=11 pitch=1280 time=0.00704225
EXTRACT: pitchwheel channel=11 pitch=1408 time=0.00704225
EXTRACT: pitchwheel channel=11 pitch=1536 time=0.00704225
EXTRACT: pitchwheel channel=11 pitch=1792 time=0.00704225
EXTRACT: pitchwheel channel=11 pitch=1920 time=0.00704225
EXTRACT: pitchwheel channel=11 pitch=2048 time=0.0140845
EXTRACT: pitchwheel channel=11 pitch=2304 time=0.00704225
EXTRACT: pitchwheel channel=11 pitch=2432 time=0.00704225
EXTRACT: pitchwheel channel=11 pitch=2944 time=0.0140845
EXTRACT: pitchwheel channel=11 pitch=3072 time=0.0140845
EXTRACT: pitchwheel channel=11 pitch=3328 time=0.0140845
EXTRACT: pitchwheel channel=11 pitch=3584 time=0.00704225
EXTRACT: pitchwheel channel=11 pitch=3840 time=0.02112675
EXTRACT: pitchwheel channel=11 pitch=4608 time=0.0140845
EXTRACT: pitchwheel channel=11 pitch=4736 time=0.00704225
EXTRACT: pitchwheel channel=11 pitch=4992 time=0.00704225
EXTRACT: pitchwheel channel=11 pitch=5248 time=0.0140845
EXTRACT: pitchwheel channel=11 pitch=5376 time=0.00704225
EXTRACT: pitchwheel channel=11 pitch=5888 time=0.00704225
EXTRACT: pitchwheel channel=11 pitch=6144 time=0.00704225
EXTRACT: pitchwheel channel=11 pitch=6528 time=0.00704225
EXTRACT: pitchwheel channel=11 pitch=6912 time=0.0140845
EXTRACT: pitchwheel channel=11 pitch=7296 time=0.00704225
EXTRACT: pitchwheel channel=11 pitch=7552 time=0.00704225
EXTRACT: pitchwheel channel=11 pitch=7808 time=0.00704225
EXTRACT: pitchwheel channel=11 pitch=7936 time=0.00704225
EXTRACT: pitchwheel channel=11 pitch=8064 time=0.0140845
EXTRACT: note_on channel=9 note=46 velocity=80 time=0.056338
EXTRACT: note_on channel=9 note=51 velocity=127 time=0
EXTRACT: note_on channel=9 note=46 velocity=80 time=0
EXTRACT: pitchwheel channel=11 pitch=7936 time=0.00704225
EXTRACT: pitchwheel channel=11 pitch=7808 time=0.02112675
EXTRACT: pitchwheel channel=11 pitch=7680 time=0.00704225
EXTRACT: pitchwheel channel=11 pitch=7552 time=0.00704225
EXTRACT: pitchwheel channel=11 pitch=7424 time=0.00704225
EXTRACT: control_change channel=3 control=72 value=64 time=0.00704225
EXTRACT: pitchwheel channel=11 pitch=7168 time=0
EXTRACT: pitchwheel channel=11 pitch=6912 time=0.0140845
EXTRACT: pitchwheel channel=11 pitch=6656 time=0.00704225
EXTRACT: pitchwheel channel=11 pitch=6400 time=0.00704225
EXTRACT: pitchwheel channel=11 pitch=6144 time=0.00704225
EXTRACT: pitchwheel channel=11 pitch=5376 time=0.00704225
EXTRACT: note_on channel=9 note=46 velocity=0 time=0.00704225
EXTRACT: note_on channel=9 note=51 velocity=0 time=0
EXTRACT: note_on channel=9 note=46 velocity=0 time=0
EXTRACT: control_change channel=11 control=11 value=125 time=0
EXTRACT: control_change channel=11 control=11 value=124 time=0.00704225
EXTRACT: pitchwheel channel=11 pitch=5120 time=0
EXTRACT: pitchwheel channel=11 pitch=4864 time=0.00704225
EXTRACT: pitchwheel channel=11 pitch=4096 time=0.00704225
EXTRACT: pitchwheel channel=11 pitch=3840 time=0.00704225
EXTRACT: pitchwheel channel=11 pitch=3456 time=0.00704225
EXTRACT: control_change channel=11 control=11 value=123 time=0.00704225
EXTRACT: pitchwheel channel=11 pitch=3200 time=0.00704225
EXTRACT: pitchwheel channel=11 pitch=2944 time=0.0140845
EXTRACT: pitchwheel channel=11 pitch=2176 time=0.00704225
EXTRACT: control_change channel=11 control=11 value=122 time=0
EXTRACT: pitchwheel channel=11 pitch=1920 time=0.02112675
EXTRACT: pitchwheel channel=11 pitch=1664 time=0.0140845
EXTRACT: pitchwheel channel=11 pitch=1536 time=0.00704225
EXTRACT: pitchwheel channel=11 pitch=1280 time=0.00704225
EXTRACT: control_change channel=11 control=11 value=121 time=0.00704225
EXTRACT: pitchwheel channel=11 pitch=1024 time=0.00704225
EXTRACT: note_on channel=1 note=76 velocity=0 time=0.0140845
EXTRACT: pitchwheel channel=11 pitch=896 time=0
EXTRACT: control_change channel=11 control=11 value=120 time=0
EXTRACT: pitchwheel channel=11 pitch=768 time=0.00704225
EXTRACT: pitchwheel channel=11 pitch=640 time=0.00704225
EXTRACT: control_change channel=11 control=11 value=119 time=0.00704225
EXTRACT: control_change channel=11 control=11 value=118 time=0.00704225
EXTRACT: pitchwheel channel=11 pitch=512 time=0.0140845
EXTRACT: pitchwheel channel=11 pitch=384 time=0.00704225
EXTRACT: control_change channel=11 control=11 value=117 time=0
EXTRACT: control_change channel=11 control=11 value=115 time=0.0140845
EXTRACT: pitchwheel channel=11 pitch=256 time=0.00704225
EXTRACT: pitchwheel channel=11 pitch=128 time=0.00704225
EXTRACT: note_on channel=1 note=52 velocity=0 time=0.00704225
EXTRACT: control_change channel=11 control=11 value=114 time=0
EXTRACT: note_on channel=1 note=78 velocity=100 time=0.00704225
EXTRACT: pitchwheel channel=11 pitch=0 time=0
EXTRACT: note_on channel=1 note=50 velocity=100 time=0.00704225
EXTRACT: note_on channel=1 note=56 velocity=0 time=0.00704225
EXTRACT: note_on channel=1 note=54 velocity=100 time=0
EXTRACT: note_on channel=1 note=68 velocity=0 time=0.00704225
EXTRACT: note_on channel=1 note=61 velocity=0 time=0
EXTRACT: note_on channel=1 note=57 velocity=100 time=0
EXTRACT: note_on channel=1 note=62 velocity=100 time=0.00704225
EXTRACT: control_change channel=11 control=11 value=113 time=0.0140845
EXTRACT: control_change channel=11 control=11 value=112 time=0.00704225
EXTRACT: control_change channel=11 control=11 value=111 time=0.0140845
EXTRACT: note_on channel=0 note=68 velocity=0 time=0.0140845
EXTRACT: note_on channel=0 note=49 velocity=0 time=0
EXTRACT: note_on channel=0 note=61 velocity=0 time=0
EXTRACT: note_on channel=0 note=64 velocity=0 time=0
EXTRACT: note_on channel=0 note=57 velocity=82 time=0
EXTRACT: note_on channel=0 note=62 velocity=82 time=0
EXTRACT: note_on channel=0 note=66 velocity=82 time=0
EXTRACT: note_on channel=0 note=50 velocity=82 time=0
EXTRACT: note_on channel=2 note=56 velocity=0 time=0
EXTRACT: note_on channel=2 note=37 velocity=0 time=0
EXTRACT: note_on channel=2 note=44 velocity=0 time=0
EXTRACT: note_on channel=2 note=52 velocity=0 time=0
EXTRACT: note_on channel=2 note=57 velocity=66 time=0
EXTRACT: note_on channel=2 note=50 velocity=66 time=0
EXTRACT: note_on channel=2 note=45 velocity=66 time=0
EXTRACT: note_on channel=2 note=38 velocity=66 time=0
EXTRACT: note_on channel=3 note=39 velocity=0 time=0
EXTRACT: pitchwheel channel=3 pitch=0 time=0
EXTRACT: note_on channel=3 note=50 velocity=113 time=0
EXTRACT: note_on channel=4 note=71 velocity=0 time=0
EXTRACT: note_on channel=4 note=76 velocity=0 time=0
EXTRACT: note_on channel=4 note=74 velocity=90 time=0
EXTRACT: note_on channel=4 note=66 velocity=90 time=0
EXTRACT: note_on channel=8 note=40 velocity=0 time=0
EXTRACT: note_on channel=8 note=38 velocity=100 time=0
EXTRACT: note_on channel=9 note=33 velocity=127 time=0
EXTRACT: note_on channel=9 note=46 velocity=80 time=0
EXTRACT: note_on channel=9 note=57 velocity=100 time=0
EXTRACT: control_change channel=11 control=11 value=110 time=0
EXTRACT: control_change channel=11 control=11 value=109 time=0.00704225
EXTRACT: control_change channel=11 control=11 value=107 time=0.0140845
EXTRACT: control_change channel=11 control=11 value=105 time=0.02112675
EXTRACT: control_change channel=11 control=11 value=103 time=0.0140845
EXTRACT: control_change channel=11 control=11 value=101 time=0.0140845
EXTRACT: control_change channel=11 control=11 value=100 time=0.02112675
EXTRACT: control_change channel=11 control=11 value=98 time=0.00704225
EXTRACT: note_on channel=9 note=57 velocity=0 time=0.00704225
EXTRACT: note_on channel=9 note=46 velocity=0 time=0
EXTRACT: note_on channel=9 note=33 velocity=0 time=0
EXTRACT: control_change channel=11 control=11 value=96 time=0.00704225
EXTRACT: control_change channel=11 control=11 value=95 time=0.0140845
EXTRACT: control_change channel=11 control=11 value=93 time=0.00704225
EXTRACT: control_change channel=11 control=11 value=92 time=0.00704225
EXTRACT: control_change channel=11 control=11 value=91 time=0.00704225
EXTRACT: control_change channel=11 control=11 value=89 time=0.00704225
EXTRACT: control_change channel=11 control=11 value=86 time=0.0140845
EXTRACT: control_change channel=11 control=11 value=84 time=0.0140845
EXTRACT: control_change channel=11 control=11 value=82 time=0.00704225
EXTRACT: control_change channel=11 control=11 value=80 time=0.02112675
EXTRACT: control_change channel=11 control=11 value=78 time=0.0140845
EXTRACT: control_change channel=11 control=11 value=76 time=0.0140845
EXTRACT: control_change channel=11 control=11 value=74 time=0.02112675
EXTRACT: control_change channel=11 control=11 value=68 time=0.00704225
EXTRACT: control_change channel=11 control=11 value=67 time=0.00704225
EXTRACT: control_change channel=11 control=11 value=64 time=0.02112675
EXTRACT: control_change channel=11 control=11 value=61 time=0.00704225
EXTRACT: control_change channel=11 control=11 value=60 time=0.00704225
EXTRACT: control_change channel=11 control=11 value=59 time=0.00704225
EXTRACT: control_change channel=11 control=11 value=57 time=0.00704225
EXTRACT: control_change channel=11 control=11 value=56 time=0.0140845
EXTRACT: control_change channel=11 control=11 value=54 time=0.00704225
EXTRACT: control_change channel=11 control=11 value=53 time=0.0140845
EXTRACT: control_change channel=11 control=11 value=50 time=0.00704225
EXTRACT: control_change channel=11 control=11 value=49 time=0.0140845
EXTRACT: control_change channel=11 control=11 value=47 time=0.0140845
EXTRACT: control_change channel=11 control=11 value=45 time=0.00704225
EXTRACT: control_change channel=11 control=11 value=44 time=0.00704225
EXTRACT: control_change channel=3 control=72 value=107 time=0.0140845
EXTRACT: note_on channel=9 note=51 velocity=127 time=0
EXTRACT: note_on channel=9 note=46 velocity=80 time=0
EXTRACT: control_change channel=11 control=11 value=43 time=0
EXTRACT: control_change channel=11 control=11 value=41 time=0.00704225
EXTRACT: control_change channel=11 control=11 value=39 time=0.00704225
EXTRACT: control_change channel=11 control=11 value=37 time=0.0140845
EXTRACT: control_change channel=11 control=11 value=36 time=0.02112675
EXTRACT: control_change channel=11 control=11 value=33 time=0.00704225
EXTRACT: control_change channel=11 control=11 value=32 time=0.0140845
EXTRACT: control_change channel=11 control=11 value=31 time=0.0140845
EXTRACT: control_change channel=11 control=11 value=29 time=0.00704225
EXTRACT: control_change channel=11 control=11 value=28 time=0.00704225
EXTRACT: note_on channel=9 note=46 velocity=0 time=0.00704225
EXTRACT: note_on channel=9 note=51 velocity=0 time=0
EXTRACT: control_change channel=11 control=11 value=27 time=0
EXTRACT: control_change channel=11 control=11 value=24 time=0.00704225
EXTRACT: control_change channel=11 control=11 value=23 time=0.02112675
EXTRACT: control_change channel=11 control=11 value=21 time=0.0140845
EXTRACT: control_change channel=11 control=11 value=19 time=0.00704225
EXTRACT: control_change channel=11 control=11 value=17 time=0.0140845
EXTRACT: control_change channel=11 control=11 value=16 time=0.00704225
EXTRACT: control_change channel=11 control=11 value=15 time=0.00704225
EXTRACT: control_change channel=11 control=11 value=12 time=0.00704225
EXTRACT: control_change channel=11 control=11 value=11 time=0.00704225
EXTRACT: note_on channel=11 note=54 velocity=0 time=0.0140845
EXTRACT: control_change channel=11 control=11 value=9 time=0
EXTRACT: control_change channel=11 control=11 value=6 time=0.00704225
EXTRACT: control_change channel=11 control=11 value=5 time=0.00704225
EXTRACT: control_change channel=11 control=11 value=4 time=0.00704225
EXTRACT: note_on channel=0 note=50 velocity=0 time=0.19014075
EXTRACT: note_on channel=0 note=57 velocity=0 time=0
EXTRACT: note_on channel=0 note=62 velocity=0 time=0
EXTRACT: note_on channel=0 note=66 velocity=0 time=0
EXTRACT: note_on channel=0 note=62 velocity=82 time=0
EXTRACT: note_on channel=3 note=50 velocity=0 time=0
EXTRACT: note_on channel=3 note=50 velocity=113 time=0
EXTRACT: note_on channel=4 note=66 velocity=0 time=0
EXTRACT: note_on channel=4 note=74 velocity=0 time=0
EXTRACT: note_on channel=4 note=66 velocity=89 time=0
EXTRACT: note_on channel=4 note=74 velocity=89 time=0
EXTRACT: note_on channel=4 note=69 velocity=89 time=0
EXTRACT: note_on channel=8 note=38 velocity=0 time=0
EXTRACT: note_on channel=8 note=38 velocity=100 time=0
EXTRACT: note_on channel=9 note=31 velocity=127 time=0
EXTRACT: note_on channel=9 note=33 velocity=127 time=0
EXTRACT: note_on channel=9 note=46 velocity=80 time=0
EXTRACT: note_on channel=10 note=31 velocity=73 time=0
EXTRACT: note_on channel=0 note=50 velocity=82 time=0.00704225
EXTRACT: note_on channel=0 note=57 velocity=82 time=0
EXTRACT: note_on channel=0 note=66 velocity=82 time=0
EXTRACT: control_change channel=11 control=11 value=127 time=0.03521125
EXTRACT: note_on channel=9 note=46 velocity=0 time=0.06338025
EXTRACT: note_on channel=9 note=33 velocity=0 time=0
EXTRACT: note_on channel=9 note=31 velocity=0 time=0
EXTRACT: note_on channel=10 note=31 velocity=0 time=0
EXTRACT: note_on channel=9 note=46 velocity=80 time=0.31690125
EXTRACT: note_on channel=9 note=46 velocity=0 time=0.10563375
EXTRACT: note_on channel=0 note=66 velocity=0 time=0.0985915
EXTRACT: note_on channel=0 note=50 velocity=0 time=0
EXTRACT: note_on channel=0 note=50 velocity=82 time=0
EXTRACT: note_on channel=0 note=66 velocity=82 time=0
EXTRACT: note_on channel=0 note=57 velocity=0 time=0.00704225
EXTRACT: note_on channel=0 note=62 velocity=0 time=0
EXTRACT: note_on channel=0 note=57 velocity=82 time=0
EXTRACT: note_on channel=0 note=57 velocity=82 time=0
EXTRACT: note_on channel=0 note=62 velocity=82 time=0
EXTRACT: note_on channel=9 note=33 velocity=127 time=0
EXTRACT: note_on channel=9 note=33 velocity=0 time=0.10563375
EXTRACT: note_on channel=3 note=50 velocity=0 time=0.10563375
EXTRACT: note_on channel=3 note=50 velocity=113 time=0
EXTRACT: note_on channel=4 note=69 velocity=0 time=0
EXTRACT: note_on channel=4 note=74 velocity=0 time=0
EXTRACT: note_on channel=4 note=66 velocity=0 time=0
EXTRACT: note_on channel=4 note=74 velocity=90 time=0
EXTRACT: note_on channel=4 note=66 velocity=90 time=0
EXTRACT: note_on channel=4 note=69 velocity=90 time=0
EXTRACT: note_on channel=8 note=38 velocity=0 time=0
EXTRACT: note_on channel=8 note=38 velocity=100 time=0
EXTRACT: note_on channel=9 note=46 velocity=80 time=0
EXTRACT: note_on channel=9 note=46 velocity=0 time=0.10563375
EXTRACT: note_on channel=9 note=33 velocity=127 time=0.10563375
EXTRACT: note_on channel=9 note=33 velocity=0 time=0.10563375
EXTRACT: note_on channel=0 note=50 velocity=0 time=0.09154925
EXTRACT: note_on channel=0 note=66 velocity=0 time=0
EXTRACT: note_on channel=0 note=57 velocity=0 time=0.00704225
EXTRACT: note_on channel=0 note=57 velocity=0 time=0
EXTRACT: note_on channel=0 note=62 velocity=0 time=0
EXTRACT: note_on channel=0 note=50 velocity=82 time=0
EXTRACT: note_on channel=0 note=66 velocity=82 time=0
EXTRACT: note_on channel=0 note=57 velocity=82 time=0.00704225
EXTRACT: note_on channel=0 note=57 velocity=82 time=0
EXTRACT: note_on channel=0 note=62 velocity=82 time=0
EXTRACT: note_on channel=3 note=50 velocity=0 time=0
EXTRACT: note_on channel=3 note=52 velocity=113 time=0
EXTRACT: note_on channel=9 note=33 velocity=127 time=0
EXTRACT: note_on channel=9 note=46 velocity=80 time=0
EXTRACT: pitchwheel channel=3 pitch=128 time=0.04929575
EXTRACT: pitchwheel channel=3 pitch=256 time=0.0140845
EXTRACT: pitchwheel channel=3 pitch=384 time=0.0140845
EXTRACT: pitchwheel channel=3 pitch=640 time=0.028169
EXTRACT: note_on channel=9 note=46 velocity=0 time=0
EXTRACT: note_on channel=9 note=33 velocity=0 time=0
EXTRACT: pitchwheel channel=3 pitch=896 time=0.0140845
EXTRACT: pitchwheel channel=3 pitch=1152 time=0.0140845
EXTRACT: pitchwheel channel=3 pitch=1408 time=0.00704225
EXTRACT: pitchwheel channel=3 pitch=2176 time=0.00704225
EXTRACT: pitchwheel channel=3 pitch=4736 time=0.00704225
EXTRACT: pitchwheel channel=3 pitch=6528 time=0.00704225
EXTRACT: pitchwheel channel=3 pitch=6912 time=0.0140845
EXTRACT: pitchwheel channel=3 pitch=7424 time=0.00704225
EXTRACT: pitchwheel channel=3 pitch=7936 time=0.00704225
EXTRACT: pitchwheel channel=3 pitch=8191 time=0.00704225
EXTRACT: note_on channel=0 note=66 velocity=0 time=0.21830975
EXTRACT: note_on channel=0 note=50 velocity=0 time=0
EXTRACT: note_on channel=0 note=50 velocity=82 time=0
EXTRACT: note_on channel=0 note=66 velocity=82 time=0
EXTRACT: note_on channel=0 note=57 velocity=0 time=0.00704225
EXTRACT: note_on channel=0 note=62 velocity=0 time=0
EXTRACT: note_on channel=0 note=57 velocity=0 time=0
EXTRACT: note_on channel=0 note=57 velocity=82 time=0
EXTRACT: note_on channel=0 note=62 velocity=82 time=0
EXTRACT: note_on channel=0 note=57 velocity=82 time=0
EXTRACT: note_on channel=3 note=52 velocity=0 time=0
EXTRACT: note_on channel=3 note=55 velocity=113 time=0
EXTRACT: note_on channel=4 note=69 velocity=0 time=0
EXTRACT: note_on channel=4 note=66 velocity=0 time=0
EXTRACT: note_on channel=4 note=74 velocity=0 time=0
EXTRACT: note_on channel=4 note=66 velocity=90 time=0
EXTRACT: note_on channel=4 note=69 velocity=90 time=0
EXTRACT: note_on channel=4 note=74 velocity=90 time=0
EXTRACT: note_on channel=8 note=38 velocity=0 time=0
EXTRACT: note_on channel=8 note=38 velocity=100 time=0
EXTRACT: note_on channel=9 note=31 velocity=127 time=0
EXTRACT: note_on channel=9 note=33 velocity=127 time=0
EXTRACT: note_on channel=9 note=46 velocity=80 time=0
EXTRACT: note_on channel=10 note=31 velocity=73 time=0
EXTRACT: note_on channel=9 note=46 velocity=0 time=0.10563375
EXTRACT: note_on channel=9 note=33 velocity=0 time=0
EXTRACT: note_on channel=9 note=31 velocity=0 time=0
EXTRACT: note_on channel=10 note=31 velocity=0 time=0
EXTRACT: note_on channel=11 note=52 velocity=120 time=0.10563375
EXTRACT: note_on channel=0 note=50 velocity=0 time=0.20422525
EXTRACT: note_on channel=0 note=66 velocity=0 time=0
EXTRACT: note_on channel=0 note=66 velocity=82 time=0
EXTRACT: note_on channel=0 note=50 velocity=82 time=0
EXTRACT: note_on channel=0 note=62 velocity=0 time=0.00704225
EXTRACT: note_on channel=0 note=57 velocity=0 time=0
EXTRACT: note_on channel=0 note=57 velocity=0 time=0
EXTRACT: note_on channel=0 note=62 velocity=82 time=0
EXTRACT: note_on channel=0 note=57 velocity=82 time=0
EXTRACT: note_on channel=8 note=38 velocity=0 time=0
EXTRACT: note_on channel=8 note=40 velocity=100 time=0
EXTRACT: note_on channel=9 note=51 velocity=127 time=0
EXTRACT: note_on channel=9 note=46 velocity=80 time=0
EXTRACT: note_on channel=11 note=52 velocity=0 time=0.02112675
EXTRACT: pitchwheel channel=11 pitch=7936 time=0.04929575
EXTRACT: note_on channel=11 note=52 velocity=124 time=0
EXTRACT: pitchwheel channel=11 pitch=7808 time=0.0140845
EXTRACT: pitchwheel channel=11 pitch=7552 time=0.0140845
EXTRACT: note_on channel=9 note=46 velocity=0 time=0.00704225
EXTRACT: note_on channel=9 note=51 velocity=0 time=0
EXTRACT: pitchwheel channel=11 pitch=7168 time=0
EXTRACT: pitchwheel channel=11 pitch=6912 time=0.00704225
EXTRACT: pitchwheel channel=11 pitch=6784 time=0.0140845
EXTRACT: pitchwheel channel=11 pitch=6400 time=0.00704225
EXTRACT: pitchwheel channel=11 pitch=6016 time=0.00704225
EXTRACT: pitchwheel channel=11 pitch=5760 time=0.00704225
EXTRACT: pitchwheel channel=11 pitch=4736 time=0.02112675
EXTRACT: pitchwheel channel=11 pitch=3456 time=0.0140845
EXTRACT: pitchwheel channel=11 pitch=2688 time=0.0140845
EXTRACT: note_on channel=0 note=57 velocity=0 time=0.0140845
EXTRACT: note_on channel=0 note=62 velocity=0 time=0
EXTRACT: note_on channel=0 note=66 velocity=0 time=0
EXTRACT: note_on channel=0 note=64 velocity=82 time=0
EXTRACT: note_on channel=0 note=57 velocity=82 time=0
EXTRACT: note_on channel=0 note=61 velocity=82 time=0
EXTRACT: pitchwheel channel=11 pitch=2048 time=0
EXTRACT: pitchwheel channel=11 pitch=1792 time=0.00704225
EXTRACT: pitchwheel channel=11 pitch=1408 time=0.0140845
EXTRACT: pitchwheel channel=11 pitch=1152 time=0.00704225
EXTRACT: pitchwheel channel=11 pitch=896 time=0.02112675
EXTRACT: note_on channel=1 note=78 velocity=0 time=0.00704225
EXTRACT: pitchwheel channel=11 pitch=640 time=0.00704225
EXTRACT: pitchwheel channel=11 pitch=384 time=0.00704225
EXTRACT: pitchwheel channel=11 pitch=256 time=0.02112675
EXTRACT: note_on channel=1 note=50 velocity=0 time=0.00704225
EXTRACT: pitchwheel channel=11 pitch=128 time=0
EXTRACT: note_on channel=1 note=54 velocity=0 time=0.00704225
EXTRACT: pitchwheel channel=11 pitch=384 time=0
EXTRACT: note_on channel=1 note=57 velocity=0 time=0.00704225
EXTRACT: pitchwheel channel=11 pitch=512 time=0
EXTRACT: note_on channel=1 note=62 velocity=0 time=0.00704225
EXTRACT: pitchwheel channel=11 pitch=640 time=0.00704225
EXTRACT: pitchwheel channel=11 pitch=768 time=0.0140845
EXTRACT: note_on channel=1 note=52 velocity=100 time=0.00704225
EXTRACT: pitchwheel channel=11 pitch=1024 time=0
EXTRACT: note_on channel=1 note=56 velocity=100 time=0.02112675
EXTRACT: pitchwheel channel=11 pitch=1280 time=0
EXTRACT: note_on channel=1 note=71 velocity=100 time=0.00704225
EXTRACT: note_on channel=1 note=59 velocity=100 time=0
EXTRACT: pitchwheel channel=11 pitch=1408 time=0
EXTRACT: pitchwheel channel=11 pitch=1536 time=0.00704225
EXTRACT: pitchwheel channel=11 pitch=1792 time=0.00704225
EXTRACT: pitchwheel channel=11 pitch=1920 time=0.00704225
EXTRACT: note_on channel=0 note=50 velocity=0 time=0.00704225
EXTRACT: note_on channel=0 note=64 velocity=82 time=0
EXTRACT: note_on channel=0 note=61 velocity=0 time=0.00704225
EXTRACT: note_on channel=0 note=57 velocity=0 time=0
EXTRACT: note_on channel=2 note=38 velocity=0 time=0
EXTRACT: note_on channel=2 note=57 velocity=0 time=0
EXTRACT: note_on channel=2 note=50 velocity=0 time=0
EXTRACT: note_on channel=2 note=45 velocity=0 time=0
EXTRACT: note_on channel=2 note=40 velocity=66 time=0
EXTRACT: note_on channel=2 note=44 velocity=66 time=0
EXTRACT: note_on channel=2 note=52 velocity=66 time=0
EXTRACT: note_on channel=2 note=56 velocity=66 time=0
EXTRACT: note_on channel=3 note=55 velocity=0 time=0
EXTRACT: note_on channel=3 note=57 velocity=94 time=0
EXTRACT: note_on channel=4 note=74 velocity=0 time=0
EXTRACT: note_on channel=4 note=69 velocity=0 time=0
EXTRACT: note_on channel=4 note=66 velocity=0 time=0
EXTRACT: note_on channel=4 note=59 velocity=90 time=0
EXTRACT: note_on channel=8 note=40 velocity=0 time=0
EXTRACT: note_on channel=8 note=40 velocity=100 time=0
EXTRACT: note_on channel=9 note=33 velocity=127 time=0
EXTRACT: note_on channel=9 note=46 velocity=80 time=0
EXTRACT: pitchwheel channel=11 pitch=2048 time=0
EXTRACT: note_on channel=0 note=64 velocity=0 time=0.00704225
EXTRACT: note_on channel=0 note=52 velocity=82 time=0
EXTRACT: pitchwheel channel=11 pitch=2304 time=0
EXTRACT: note_on channel=0 note=68 velocity=82 time=0.00704225
EXTRACT: note_on channel=0 note=56 velocity=82 time=0
EXTRACT: pitchwheel channel=11 pitch=2432 time=0
EXTRACT: note_on channel=3 note=38 velocity=113 time=0.00704225
EXTRACT: pitchwheel channel=11 pitch=2944 time=0.00704225
EXTRACT: pitchwheel channel=11 pitch=3072 time=0.0140845
EXTRACT: pitchwheel channel=11 pitch=3328 time=0.0140845
EXTRACT: pitchwheel channel=11 pitch=3584 time=0.00704225
EXTRACT: pitchwheel channel=11 pitch=3840 time=0.02112675
EXTRACT: pitchwheel channel=11 pitch=4608 time=0.0140845
EXTRACT: note_on channel=9 note=46 velocity=0 time=0.00704225
EXTRACT: note_on channel=9 note=33 velocity=0 time=0
EXTRACT: pitchwheel channel=11 pitch=4736 time=0
EXTRACT: pitchwheel channel=11 pitch=4992 time=0.00704225
EXTRACT: pitchwheel channel=11 pitch=5248 time=0.0140845
EXTRACT: pitchwheel channel=11 pitch=5376 time=0.00704225
EXTRACT: pitchwheel channel=11 pitch=5888 time=0.00704225
EXTRACT: pitchwheel channel=11 pitch=6144 time=0.00704225
EXTRACT: pitchwheel channel=11 pitch=6528 time=0.00704225
EXTRACT: pitchwheel channel=11 pitch=6912 time=0.0140845
EXTRACT: pitchwheel channel=11 pitch=7296 time=0.00704225
EXTRACT: pitchwheel channel=11 pitch=7552 time=0.00704225
EXTRACT: pitchwheel channel=11 pitch=7808 time=0.00704225
EXTRACT: pitchwheel channel=11 pitch=7936 time=0.00704225
EXTRACT: pitchwheel channel=11 pitch=8064 time=0.0140845
EXTRACT: pitchwheel channel=11 pitch=7936 time=0.06338025
EXTRACT: pitchwheel channel=11 pitch=7808 time=0.02112675
EXTRACT: pitchwheel channel=11 pitch=7680 time=0.00704225
EXTRACT: pitchwheel channel=11 pitch=7552 time=0.00704225
EXTRACT: pitchwheel channel=11 pitch=7424 time=0.00704225
EXTRACT: pitchwheel channel=11 pitch=7168 time=0.00704225
EXTRACT: pitchwheel channel=11 pitch=6912 time=0.0140845
EXTRACT: pitchwheel channel=11 pitch=6656 time=0.00704225
EXTRACT: pitchwheel channel=11 pitch=6400 time=0.00704225
EXTRACT: pitchwheel channel=11 pitch=6144 time=0.00704225
EXTRACT: pitchwheel channel=11 pitch=5376 time=0.00704225
EXTRACT: control_change channel=11 control=11 value=125 time=0.00704225
EXTRACT: control_change channel=11 control=11 value=124 time=0.00704225
EXTRACT: pitchwheel channel=11 pitch=5120 time=0
EXTRACT: pitchwheel channel=11 pitch=4864 time=0.00704225
EXTRACT: pitchwheel channel=11 pitch=4096 time=0.00704225
EXTRACT: pitchwheel channel=11 pitch=3840 time=0.00704225
EXTRACT: pitchwheel channel=11 pitch=3456 time=0.00704225
EXTRACT: control_change channel=11 control=11 value=123 time=0.00704225
EXTRACT: note_on channel=3 note=57 velocity=0 time=0.00704225
EXTRACT: note_on channel=3 note=62 velocity=94 time=0
EXTRACT: note_on channel=4 note=59 velocity=0 time=0
EXTRACT: note_on channel=4 note=64 velocity=91 time=0
EXTRACT: note_on channel=9 note=51 velocity=127 time=0
EXTRACT: note_on channel=9 note=46 velocity=80 time=0
EXTRACT: pitchwheel channel=11 pitch=3200 time=0
EXTRACT: pitchwheel channel=11 pitch=2944 time=0.0140845
EXTRACT: pitchwheel channel=11 pitch=2176 time=0.00704225
EXTRACT: control_change channel=11 control=11 value=122 time=0
EXTRACT: pitchwheel channel=11 pitch=1920 time=0.02112675
EXTRACT: pitchwheel channel=11 pitch=1664 time=0.0140845
EXTRACT: pitchwheel channel=11 pitch=1536 time=0.00704225
EXTRACT: pitchwheel channel=11 pitch=1280 time=0.00704225
EXTRACT: control_change channel=11 control=11 value=121 time=0.00704225
EXTRACT: pitchwheel channel=11 pitch=1024 time=0.00704225
EXTRACT: pitchwheel channel=11 pitch=896 time=0.0140845
EXTRACT: control_change channel=11 control=11 value=120 time=0
EXTRACT: note_on channel=9 note=46 velocity=0 time=0.00704225
EXTRACT: note_on channel=9 note=51 velocity=0 time=0
EXTRACT: pitchwheel channel=11 pitch=768 time=0
EXTRACT: pitchwheel channel=11 pitch=640 time=0.00704225
EXTRACT: control_change channel=11 control=11 value=119 time=0.00704225
EXTRACT: control_change channel=11 control=11 value=118 time=0.00704225
EXTRACT: pitchwheel channel=11 pitch=512 time=0.0140845
EXTRACT: pitchwheel channel=11 pitch=384 time=0.00704225
EXTRACT: control_change channel=11 control=11 value=117 time=0
EXTRACT: control_change channel=11 control=11 value=115 time=0.0140845
EXTRACT: pitchwheel channel=11 pitch=256 time=0.00704225
EXTRACT: pitchwheel channel=11 pitch=128 time=0.00704225
EXTRACT: control_change channel=11 control=11 value=114 time=0.00704225
EXTRACT: pitchwheel channel=11 pitch=0 time=0.00704225
EXTRACT: control_change channel=11 control=11 value=113 time=0.0422535
EXTRACT: control_change channel=11 control=11 value=112 time=0.00704225
EXTRACT: control_change channel=11 control=11 value=111 time=0.0140845
EXTRACT: control_change channel=11 control=11 value=110 time=0.0140845
EXTRACT: control_change channel=11 control=11 value=109 time=0.00704225
EXTRACT: control_change channel=11 control=11 value=107 time=0.0140845
EXTRACT: control_change channel=11 control=11 value=105 time=0.02112675
EXTRACT: control_change channel=11 control=11 value=103 time=0.0140845
EXTRACT: control_change channel=11 control=11 value=101 time=0.0140845
EXTRACT: control_change channel=11 control=11 value=100 time=0.02112675
EXTRACT: control_change channel=11 control=11 value=98 time=0.00704225
EXTRACT: control_change channel=11 control=11 value=96 time=0.0140845
EXTRACT: control_change channel=11 control=11 value=95 time=0.0140845
EXTRACT: control_change channel=11 control=11 value=93 time=0.00704225
EXTRACT: control_change channel=11 control=11 value=92 time=0.00704225
EXTRACT: note_on channel=0 note=64 velocity=0 time=0.00704225
EXTRACT: note_on channel=0 note=64 velocity=82 time=0
EXTRACT: control_change channel=11 control=11 value=91 time=0
EXTRACT: note_on channel=9 note=31 velocity=127 time=0.00704225
EXTRACT: note_on channel=9 note=33 velocity=127 time=0
EXTRACT: note_on channel=9 note=46 velocity=80 time=0
EXTRACT: note_on channel=10 note=31 velocity=73 time=0
EXTRACT: control_change channel=11 control=11 value=89 time=0
EXTRACT: note_on channel=0 note=52 velocity=0 time=0.00704225
EXTRACT: note_on channel=0 note=52 velocity=82 time=0
EXTRACT: note_on channel=0 note=56 velocity=0 time=0.00704225
EXTRACT: note_on channel=0 note=68 velocity=0 time=0
EXTRACT: note_on channel=0 note=56 velocity=82 time=0
EXTRACT: note_on channel=0 note=68 velocity=82 time=0
EXTRACT: control_change channel=11 control=11 value=86 time=0
EXTRACT: note_on channel=3 note=38 velocity=0 time=0.00704225
EXTRACT: note_on channel=3 note=38 velocity=113 time=0
EXTRACT: control_change channel=11 control=11 value=84 time=0.00704225
EXTRACT: control_change channel=11 control=11 value=82 time=0.00704225
EXTRACT: control_change channel=11 control=11 value=80 time=0.02112675
EXTRACT: control_change channel=11 control=11 value=78 time=0.0140845
EXTRACT: control_change channel=11 control=11 value=76 time=0.0140845
EXTRACT: note_on channel=9 note=46 velocity=0 time=0.02112675
EXTRACT: note_on channel=9 note=33 velocity=0 time=0
EXTRACT: note_on channel=9 note=31 velocity=0 time=0
EXTRACT: note_on channel=10 note=31 velocity=0 time=0
EXTRACT: control_change channel=11 control=11 value=74 time=0
EXTRACT: control_change channel=11 control=11 value=68 time=0.00704225
EXTRACT: control_change channel=11 control=11 value=67 time=0.00704225
EXTRACT: control_change channel=11 control=11 value=64 time=0.02112675
EXTRACT: control_change channel=11 control=11 value=61 time=0.00704225
EXTRACT: control_change channel=11 control=11 value=60 time=0.00704225
EXTRACT: control_change channel=11 control=11 value=59 time=0.00704225
EXTRACT: control_change channel=11 control=11 value=57 time=0.00704225
EXTRACT: control_change channel=11 control=11 value=56 time=0.0140845
EXTRACT: control_change channel=11 control=11 value=54 time=0.00704225
EXTRACT: control_change channel=11 control=11 value=53 time=0.0140845
EXTRACT: control_change channel=11 control=11 value=50 time=0.00704225
EXTRACT: control_change channel=11 control=11 value=49 time=0.0140845
EXTRACT: control_change channel=11 control=11 value=47 time=0.0140845
EXTRACT: control_change channel=11 control=11 value=45 time=0.00704225
EXTRACT: control_change channel=11 control=11 value=44 time=0.00704225
EXTRACT: control_change channel=11 control=11 value=43 time=0.0140845
EXTRACT: control_change channel=11 control=11 value=41 time=0.00704225
EXTRACT: note_on channel=11 note=52 velocity=0 time=0.00704225
EXTRACT: control_change channel=11 control=11 value=39 time=0
EXTRACT: control_change channel=11 control=11 value=37 time=0.0140845
EXTRACT: control_change channel=11 control=11 value=36 time=0.02112675
EXTRACT: control_change channel=11 control=11 value=33 time=0.00704225
EXTRACT: control_change channel=11 control=11 value=32 time=0.0140845
EXTRACT: control_change channel=11 control=11 value=31 time=0.0140845
EXTRACT: control_change channel=11 control=11 value=29 time=0.00704225
EXTRACT: control_change channel=11 control=11 value=28 time=0.00704225
EXTRACT: control_change channel=11 control=11 value=27 time=0.00704225
EXTRACT: control_change channel=11 control=11 value=24 time=0.00704225
EXTRACT: control_change channel=11 control=11 value=23 time=0.02112675
EXTRACT: control_change channel=11 control=11 value=21 time=0.0140845
EXTRACT: note_on channel=3 note=62 velocity=0 time=0.00704225
EXTRACT: note_on channel=3 note=66 velocity=94 time=0
EXTRACT: note_on channel=4 note=64 velocity=0 time=0
EXTRACT: note_on channel=4 note=68 velocity=90 time=0
EXTRACT: note_on channel=9 note=46 velocity=80 time=0
EXTRACT: control_change channel=11 control=11 value=19 time=0
EXTRACT: control_change channel=11 control=11 value=17 time=0.0140845
EXTRACT: control_change channel=11 control=11 value=16 time=0.00704225
EXTRACT: control_change channel=11 control=11 value=15 time=0.00704225
EXTRACT: control_change channel=11 control=11 value=12 time=0.00704225
EXTRACT: control_change channel=11 control=11 value=11 time=0.00704225
EXTRACT: control_change channel=11 control=11 value=9 time=0.0140845
EXTRACT: control_change channel=11 control=11 value=6 time=0.00704225
EXTRACT: control_change channel=11 control=11 value=5 time=0.00704225
EXTRACT: control_change channel=11 control=11 value=4 time=0.00704225
EXTRACT: note_on channel=9 note=46 velocity=0 time=0.028169
EXTRACT: note_on channel=9 note=33 velocity=127 time=0.10563375
EXTRACT: control_change channel=11 control=11 value=127 time=0.0985915
EXTRACT: note_on channel=9 note=33 velocity=0 time=0.00704225
EXTRACT: note_on channel=0 note=64 velocity=0 time=0.084507
EXTRACT: note_on channel=0 note=52 velocity=0 time=0.00704225
EXTRACT: note_on channel=0 note=64 velocity=82 time=0
EXTRACT: note_on channel=0 note=56 velocity=0 time=0.00704225
EXTRACT: note_on channel=0 note=56 velocity=82 time=0.00704225
EXTRACT: note_on channel=0 note=52 velocity=82 time=0
EXTRACT: note_on channel=2 note=56 velocity=0 time=0
EXTRACT: note_on channel=2 note=40 velocity=0 time=0
EXTRACT: note_on channel=2 note=44 velocity=0 time=0
EXTRACT: note_on channel=2 note=52 velocity=0 time=0
EXTRACT: note_on channel=2 note=40 velocity=66 time=0
EXTRACT: note_on channel=2 note=44 velocity=66 time=0
EXTRACT: note_on channel=2 note=52 velocity=66 time=0
EXTRACT: note_on channel=2 note=56 velocity=66 time=0
EXTRACT: note_on channel=9 note=46 velocity=80 time=0
EXTRACT: note_on channel=0 note=68 velocity=0 time=0.0140845
EXTRACT: note_on channel=0 note=68 velocity=82 time=0
EXTRACT: note_on channel=3 note=38 velocity=0 time=0.00704225
EXTRACT: note_on channel=3 note=38 velocity=113 time=0
EXTRACT: note_on channel=9 note=46 velocity=0 time=0.084507
EXTRACT: note_on channel=9 note=33 velocity=127 time=0.10563375
EXTRACT: note_on channel=9 note=33 velocity=0 time=0.10563375
EXTRACT: note_on channel=9 note=33 velocity=127 time=0.10563375
EXTRACT: note_on channel=9 note=46 velocity=80 time=0
EXTRACT: note_on channel=9 note=46 velocity=0 time=0.10563375
EXTRACT: note_on channel=9 note=33 velocity=0 time=0
EXTRACT: note_on channel=0 note=64 velocity=0 time=0.30281674999999997
EXTRACT: note_on channel=0 note=64 velocity=82 time=0
EXTRACT: note_on channel=0 note=52 velocity=0 time=0.0140845
EXTRACT: note_on channel=0 note=56 velocity=0 time=0
EXTRACT: note_on channel=0 note=56 velocity=82 time=0
EXTRACT: note_on channel=0 note=52 velocity=82 time=0
EXTRACT: note_on channel=9 note=31 velocity=127 time=0
EXTRACT: note_on channel=9 note=33 velocity=127 time=0
EXTRACT: note_on channel=9 note=46 velocity=80 time=0
EXTRACT: note_on channel=10 note=31 velocity=73 time=0
EXTRACT: note_on channel=0 note=68 velocity=0 time=0.0140845
EXTRACT: note_on channel=0 note=68 velocity=82 time=0
EXTRACT: note_on channel=3 note=38 velocity=0 time=0.00704225
EXTRACT: note_on channel=3 note=38 velocity=113 time=0.0140845
EXTRACT: note_on channel=9 note=46 velocity=0 time=0.0704225
EXTRACT: note_on channel=9 note=33 velocity=0 time=0
EXTRACT: note_on channel=9 note=31 velocity=0 time=0
EXTRACT: note_on channel=10 note=31 velocity=0 time=0
EXTRACT: note_on channel=9 note=51 velocity=127 time=0.31690125
EXTRACT: note_on channel=9 note=46 velocity=80 time=0
EXTRACT: control_change channel=3 control=72 value=64 time=0.06338025
EXTRACT: note_on channel=9 note=46 velocity=0 time=0.0422535
EXTRACT: note_on channel=9 note=51 velocity=0 time=0
EXTRACT: note_on channel=4 note=52 velocity=73 time=0.112676
EXTRACT: note_on channel=1 note=59 velocity=0 time=0.07746475
EXTRACT: note_on channel=1 note=56 velocity=0 time=0.0140845
EXTRACT: note_on channel=4 note=57 velocity=73 time=0.00704225
EXTRACT: note_on channel=1 note=71 velocity=0 time=0.0140845
EXTRACT: note_on channel=1 note=52 velocity=0 time=0
EXTRACT: note_on channel=8 note=40 velocity=0 time=0.028169
EXTRACT: note_on channel=0 note=64 velocity=0 time=0.04929575
EXTRACT: note_on channel=0 note=52 velocity=0 time=0.0140845
EXTRACT: note_on channel=0 note=56 velocity=0 time=0
EXTRACT: note_on channel=0 note=57 velocity=84 time=0
EXTRACT: note_on channel=0 note=61 velocity=84 time=0
EXTRACT: note_on channel=0 note=64 velocity=84 time=0
EXTRACT: note_on channel=0 note=69 velocity=84 time=0
EXTRACT: note_on channel=2 note=56 velocity=0 time=0
EXTRACT: note_on channel=2 note=40 velocity=0 time=0
EXTRACT: note_on channel=2 note=44 velocity=0 time=0
EXTRACT: note_on channel=2 note=52 velocity=0 time=0
EXTRACT: note_on channel=2 note=52 velocity=73 time=0
EXTRACT: note_on channel=2 note=45 velocity=73 time=0
EXTRACT: note_on channel=3 note=66 velocity=0 time=0
EXTRACT: pitchwheel channel=3 pitch=128 time=0
EXTRACT: note_on channel=3 note=76 velocity=112 time=0
EXTRACT: note_on channel=4 note=68 velocity=0 time=0
EXTRACT: note_on channel=4 note=61 velocity=73 time=0
EXTRACT: note_on channel=8 note=33 velocity=123 time=0
EXTRACT: note_on channel=9 note=33 velocity=127 time=0
EXTRACT: note_on channel=9 note=46 velocity=100 time=0
EXTRACT: note_on channel=9 note=57 velocity=100 time=0
EXTRACT: note_on channel=0 note=68 velocity=0 time=0.0140845
EXTRACT: note_on channel=1 note=61 velocity=73 time=0.00704225
EXTRACT: note_on channel=3 note=38 velocity=0 time=0.0140845
EXTRACT: note_on channel=4 note=64 velocity=73 time=0.0140845
EXTRACT: note_on channel=1 note=57 velocity=73 time=0.02112675
EXTRACT: note_on channel=9 note=57 velocity=0 time=0.03521125
EXTRACT: note_on channel=9 note=46 velocity=0 time=0
EXTRACT: note_on channel=9 note=33 velocity=0 time=0
EXTRACT: note_on channel=3 note=76 velocity=0 time=0.31690125
EXTRACT: control_change channel=3 control=72 value=107 time=0
EXTRACT: note_on channel=3 note=64 velocity=112 time=0
EXTRACT: note_on channel=9 note=51 velocity=127 time=0
EXTRACT: note_on channel=9 note=46 velocity=100 time=0
EXTRACT: note_on channel=9 note=46 velocity=0 time=0.10563375
EXTRACT: note_on channel=9 note=51 velocity=0 time=0
EXTRACT: note_on channel=0 note=64 velocity=0 time=0.31690125
EXTRACT: note_on channel=0 note=57 velocity=0 time=0
EXTRACT: note_on channel=0 note=61 velocity=0 time=0
EXTRACT: note_on channel=0 note=69 velocity=0 time=0
EXTRACT: note_on channel=0 note=57 velocity=87 time=0
EXTRACT: note_on channel=0 note=61 velocity=87 time=0
EXTRACT: note_on channel=0 note=64 velocity=87 time=0
EXTRACT: note_on channel=0 note=69 velocity=87 time=0
EXTRACT: note_on channel=3 note=64 velocity=0 time=0
EXTRACT: note_on channel=3 note=76 velocity=112 time=0
EXTRACT: note_on channel=8 note=33 velocity=0 time=0
EXTRACT: note_on channel=8 note=33 velocity=123 time=0
EXTRACT: note_on channel=9 note=31 velocity=127 time=0
EXTRACT: note_on channel=9 note=33 velocity=127 time=0
EXTRACT: note_on channel=9 note=46 velocity=100 time=0
EXTRACT: note_on channel=10 note=31 velocity=73 time=0
EXTRACT: note_on channel=9 note=46 velocity=0 time=0.10563375
EXTRACT: note_on channel=9 note=33 velocity=0 time=0
EXTRACT: note_on channel=9 note=31 velocity=0 time=0
EXTRACT: note_on channel=10 note=31 velocity=0 time=0
EXTRACT: note_on channel=3 note=76 velocity=0 time=0.31690125
EXTRACT: note_on channel=3 note=64 velocity=112 time=0
EXTRACT: note_on channel=9 note=46 velocity=100 time=0
EXTRACT: note_on channel=9 note=46 velocity=0 time=0.10563375
EXTRACT: note_on channel=8 note=33 velocity=0 time=0.10563375
EXTRACT: note_on channel=8 note=33 velocity=123 time=0
EXTRACT: note_on channel=9 note=33 velocity=127 time=0
EXTRACT: note_on channel=4 note=57 velocity=0 time=0.056338
EXTRACT: note_on channel=1 note=61 velocity=0 time=0.00704225
EXTRACT: note_on channel=4 note=52 velocity=0 time=0.02112675
EXTRACT: note_on channel=9 note=33 velocity=0 time=0.02112675
EXTRACT: note_on channel=1 note=57 velocity=0 time=0.00704225
EXTRACT: note_on channel=1 note=56 velocity=73 time=0.03521125
EXTRACT: note_on channel=4 note=52 velocity=73 time=0.00704225
EXTRACT: note_on channel=1 note=61 velocity=73 time=0.0140845
EXTRACT: note_on channel=4 note=61 velocity=0 time=0.00704225
EXTRACT: note_on channel=4 note=59 velocity=73 time=0
EXTRACT: note_on channel=0 note=69 velocity=0 time=0.03521125
EXTRACT: note_on channel=0 note=57 velocity=0 time=0
EXTRACT: note_on channel=0 note=61 velocity=0 time=0
EXTRACT: note_on channel=0 note=64 velocity=0 time=0
EXTRACT: note_on channel=0 note=56 velocity=87 time=0
EXTRACT: note_on channel=0 note=61 velocity=87 time=0
EXTRACT: note_on channel=0 note=64 velocity=87 time=0
EXTRACT: note_on channel=0 note=68 velocity=87 time=0
EXTRACT: note_on channel=2 note=45 velocity=0 time=0
EXTRACT: note_on channel=2 note=52 velocity=0 time=0
EXTRACT: note_on channel=2 note=52 velocity=73 time=0
EXTRACT: note_on channel=2 note=44 velocity=73 time=0
EXTRACT: note_on channel=3 note=64 velocity=0 time=0
EXTRACT: note_on channel=3 note=71 velocity=112 time=0
EXTRACT: note_on channel=8 note=33 velocity=0 time=0
EXTRACT: note_on channel=8 note=32 velocity=123 time=0
EXTRACT: note_on channel=9 note=46 velocity=100 time=0
EXTRACT: note_on channel=4 note=64 velocity=73 time=0.00704225
EXTRACT: note_on channel=1 note=68 velocity=73 time=0.00704225
EXTRACT: note_on channel=4 note=64 velocity=0 time=0
EXTRACT: note_on channel=9 note=46 velocity=0 time=0.09154925
EXTRACT: note_on channel=9 note=33 velocity=127 time=0.10563375
EXTRACT: note_on channel=9 note=33 velocity=0 time=0.10563375
EXTRACT: note_on channel=3 note=71 velocity=0 time=0.10563375
EXTRACT: note_on channel=3 note=73 velocity=112 time=0
EXTRACT: note_on channel=9 note=33 velocity=127 time=0
EXTRACT: note_on channel=9 note=46 velocity=100 time=0
EXTRACT: note_on channel=9 note=46 velocity=0 time=0.10563375
EXTRACT: note_on channel=9 note=33 velocity=0 time=0
EXTRACT: note_on channel=0 note=68 velocity=0 time=0.31690125
EXTRACT: note_on channel=0 note=56 velocity=0 time=0
EXTRACT: note_on channel=0 note=61 velocity=0 time=0
EXTRACT: note_on channel=0 note=64 velocity=0 time=0
EXTRACT: note_on channel=0 note=56 velocity=87 time=0
EXTRACT: note_on channel=0 note=61 velocity=87 time=0
EXTRACT: note_on channel=0 note=64 velocity=87 time=0
EXTRACT: note_on channel=0 note=68 velocity=87 time=0
EXTRACT: note_on channel=3 note=73 velocity=0 time=0
EXTRACT: note_on channel=3 note=71 velocity=112 time=0
EXTRACT: note_on channel=8 note=32 velocity=0 time=0
EXTRACT: note_on channel=8 note=32 velocity=123 time=0
EXTRACT: note_on channel=9 note=31 velocity=127 time=0
EXTRACT: note_on channel=9 note=33 velocity=127 time=0
EXTRACT: note_on channel=9 note=46 velocity=100 time=0
EXTRACT: note_on channel=10 note=31 velocity=73 time=0
EXTRACT: note_on channel=9 note=46 velocity=0 time=0.10563375
EXTRACT: note_on channel=9 note=33 velocity=0 time=0
EXTRACT: note_on channel=9 note=31 velocity=0 time=0
EXTRACT: note_on channel=10 note=31 velocity=0 time=0
EXTRACT: note_on channel=3 note=71 velocity=0 time=0.31690125
EXTRACT: note_on channel=3 note=73 velocity=112 time=0
EXTRACT: note_on channel=8 note=32 velocity=0 time=0
EXTRACT: note_on channel=8 note=32 velocity=123 time=0
EXTRACT: note_on channel=9 note=51 velocity=127 time=0
EXTRACT: note_on channel=9 note=46 velocity=100 time=0
EXTRACT: note_on channel=9 note=46 velocity=0 time=0.10563375
EXTRACT: note_on channel=9 note=51 velocity=0 time=0
EXTRACT: note_on channel=4 note=52 velocity=0 time=0.0704225
EXTRACT: note_on channel=1 note=56 velocity=0 time=0.0140845
EXTRACT: note_on channel=4 note=59 velocity=0 time=0.0140845
EXTRACT: note_on channel=4 note=64 velocity=0 time=0
EXTRACT: note_on channel=1 note=61 velocity=0 time=0.00704225
EXTRACT: note_on channel=4 note=52 velocity=73 time=0.028169
EXTRACT: note_on channel=1 note=68 velocity=0 time=0.028169
EXTRACT: note_on channel=4 note=57 velocity=73 time=0.0704225
EXTRACT: note_on channel=1 note=61 velocity=73 time=0.03521125
EXTRACT: note_on channel=1 note=52 velocity=73 time=0.02112675
EXTRACT: note_on channel=1 note=56 velocity=73 time=0.02112675
EXTRACT: note_on channel=0 note=68 velocity=0 time=0.00704225
EXTRACT: note_on channel=0 note=56 velocity=0 time=0
EXTRACT: note_on channel=0 note=61 velocity=0 time=0
EXTRACT: note_on channel=0 note=64 velocity=0 time=0
EXTRACT: note_on channel=0 note=56 velocity=87 time=0
EXTRACT: note_on channel=0 note=61 velocity=87 time=0
EXTRACT: note_on channel=0 note=64 velocity=87 time=0
EXTRACT: note_on channel=0 note=68 velocity=87 time=0
EXTRACT: note_on channel=1 note=68 velocity=73 time=0
EXTRACT: note_on channel=2 note=44 velocity=0 time=0
EXTRACT: note_on channel=2 note=52 velocity=0 time=0
EXTRACT: note_on channel=2 note=61 velocity=73 time=0
EXTRACT: note_on channel=2 note=52 velocity=73 time=0
EXTRACT: note_on channel=3 note=73 velocity=0 time=0
EXTRACT: note_on channel=3 note=76 velocity=112 time=0
EXTRACT: note_on channel=8 note=32 velocity=0 time=0
EXTRACT: note_on channel=8 note=37 velocity=123 time=0
EXTRACT: note_on channel=9 note=33 velocity=127 time=0
EXTRACT: note_on channel=9 note=46 velocity=100 time=0
EXTRACT: note_on channel=9 note=33 velocity=127 time=0
EXTRACT: note_on channel=9 note=46 velocity=100 time=0
EXTRACT: note_on channel=4 note=61 velocity=73 time=0.02112675
EXTRACT: note_on channel=4 note=64 velocity=73 time=0.04929575
EXTRACT: note_on channel=9 note=46 velocity=0 time=0.03521125
EXTRACT: note_on channel=9 note=33 velocity=0 time=0
EXTRACT: note_on channel=9 note=46 velocity=0 time=0
EXTRACT: note_on channel=9 note=33 velocity=0 time=0
EXTRACT: note_on channel=3 note=76 velocity=0 time=0.31690125
EXTRACT: note_on channel=3 note=64 velocity=112 time=0
EXTRACT: note_on channel=9 note=51 velocity=127 time=0
EXTRACT: note_on channel=9 note=46 velocity=100 time=0
EXTRACT: note_on channel=9 note=46 velocity=0 time=0.10563375
EXTRACT: note_on channel=9 note=51 velocity=0 time=0
EXTRACT: note_on channel=0 note=68 velocity=0 time=0.31690125
EXTRACT: note_on channel=0 note=56 velocity=0 time=0
EXTRACT: note_on channel=0 note=61 velocity=0 time=0
EXTRACT: note_on channel=0 note=64 velocity=0 time=0
EXTRACT: note_on channel=0 note=56 velocity=87 time=0
EXTRACT: note_on channel=0 note=61 velocity=87 time=0
EXTRACT: note_on channel=0 note=64 velocity=87 time=0
EXTRACT: note_on channel=0 note=68 velocity=87 time=0
EXTRACT: note_on channel=3 note=64 velocity=0 time=0
EXTRACT: note_on channel=3 note=76 velocity=112 time=0
EXTRACT: note_on channel=8 note=37 velocity=0 time=0
EXTRACT: note_on channel=8 note=37 velocity=123 time=0
EXTRACT: note_on channel=9 note=46 velocity=100 time=0
EXTRACT: note_on channel=9 note=33 velocity=127 time=0
EXTRACT: note_on channel=9 note=31 velocity=127 time=0
EXTRACT: note_on channel=9 note=33 velocity=127 time=0
EXTRACT: note_on channel=10 note=31 velocity=73 time=0
EXTRACT: note_on channel=9 note=33 velocity=0 time=0.10563375
EXTRACT: note_on channel=9 note=46 velocity=0 time=0
EXTRACT: note_on channel=9 note=33 velocity=0 time=0
EXTRACT: note_on channel=9 note=31 velocity=0 time=0
EXTRACT: note_on channel=10 note=31 velocity=0 time=0
EXTRACT: note_on channel=3 note=76 velocity=0 time=0.31690125
EXTRACT: note_on channel=3 note=64 velocity=112 time=0
EXTRACT: note_on channel=9 note=46 velocity=100 time=0
EXTRACT: note_on channel=9 note=46 velocity=0 time=0.10563375
EXTRACT: note_on channel=1 note=61 velocity=0 time=0.0985915
EXTRACT: note_on channel=9 note=33 velocity=127 time=0.00704225
EXTRACT: note_on channel=1 note=52 velocity=0 time=0.0140845
EXTRACT: note_on channel=1 note=56 velocity=0 time=0.02112675
EXTRACT: note_on channel=1 note=68 velocity=0 time=0.00704225
EXTRACT: note_on channel=4 note=64 velocity=0 time=0.0140845
EXTRACT: note_on channel=4 note=57 velocity=0 time=0.02112675
EXTRACT: note_on channel=4 note=52 velocity=0 time=0.028169
EXTRACT: note_on channel=9 note=33 velocity=0 time=0
EXTRACT: note_on channel=1 note=64 velocity=73 time=0.056338
EXTRACT: note_on channel=1 note=57 velocity=73 time=0.00704225
EXTRACT: note_on channel=1 note=69 velocity=73 time=0.0140845
EXTRACT: note_on channel=4 note=59 velocity=73 time=0.00704225
EXTRACT: note_on channel=4 note=61 velocity=0 time=0.00704225
EXTRACT: note_on channel=0 note=68 velocity=0 time=0.0140845
EXTRACT: note_on channel=0 note=56 velocity=0 time=0
EXTRACT: note_on channel=0 note=61 velocity=0 time=0
EXTRACT: note_on channel=0 note=64 velocity=0 time=0
EXTRACT: note_on channel=0 note=69 velocity=87 time=0
EXTRACT: note_on channel=0 note=56 velocity=87 time=0
EXTRACT: note_on channel=0 note=62 velocity=87 time=0
EXTRACT: note_on channel=2 note=52 velocity=0 time=0
EXTRACT: note_on channel=2 note=61 velocity=0 time=0
EXTRACT: note_on channel=2 note=61 velocity=73 time=0
EXTRACT: note_on channel=3 note=64 velocity=0 time=0
EXTRACT: note_on channel=3 note=71 velocity=112 time=0
EXTRACT: note_on channel=4 note=64 velocity=73 time=0
EXTRACT: note_on channel=8 note=37 velocity=0 time=0
EXTRACT: note_on channel=8 note=37 velocity=123 time=0
EXTRACT: note_on channel=9 note=46 velocity=100 time=0
EXTRACT: note_on channel=1 note=61 velocity=73 time=0.04929575
EXTRACT: note_on channel=9 note=46 velocity=0 time=0.056338
EXTRACT: note_on channel=9 note=33 velocity=127 time=0.10563375
EXTRACT: note_on channel=9 note=33 velocity=0 time=0.10563375
EXTRACT: note_on channel=0 note=62 velocity=0 time=0.10563375
EXTRACT: note_on channel=0 note=64 velocity=87 time=0
EXTRACT: note_on channel=2 note=61 velocity=0 time=0
EXTRACT: note_on channel=2 note=59 velocity=73 time=0
EXTRACT: note_on channel=2 note=62 velocity=73 time=0
EXTRACT: note_on channel=3 note=71 velocity=0 time=0
EXTRACT: note_on channel=3 note=73 velocity=112 time=0
EXTRACT: note_on channel=8 note=37 velocity=0 time=0
EXTRACT: note_on channel=8 note=40 velocity=123 time=0
EXTRACT: note_on channel=9 note=33 velocity=127 time=0
EXTRACT: note_on channel=9 note=46 velocity=100 time=0
EXTRACT: note_on channel=9 note=33 velocity=127 time=0
EXTRACT: note_on channel=9 note=33 velocity=0 time=0.10563375
EXTRACT: note_on channel=9 note=46 velocity=0 time=0
EXTRACT: note_on channel=9 note=33 velocity=0 time=0
EXTRACT: note_on channel=8 note=40 velocity=0 time=0.10563375
EXTRACT: note_on channel=8 note=40 velocity=123 time=0
EXTRACT: note_on channel=0 note=64 velocity=0 time=0.2112675
EXTRACT: note_on channel=0 note=56 velocity=0 time=0
EXTRACT: note_on channel=0 note=69 velocity=0 time=0
EXTRACT: note_on channel=0 note=69 velocity=87 time=0
EXTRACT: note_on channel=0 note=56 velocity=87 time=0
EXTRACT: note_on channel=0 note=62 velocity=87 time=0
EXTRACT: note_on channel=2 note=62 velocity=0 time=0
EXTRACT: note_on channel=2 note=59 velocity=0 time=0
EXTRACT: note_on channel=2 note=61 velocity=73 time=0
EXTRACT: note_on channel=3 note=73 velocity=0 time=0
EXTRACT: note_on channel=3 note=71 velocity=112 time=0
EXTRACT: note_on channel=8 note=40 velocity=0 time=0
EXTRACT: note_on channel=8 note=40 velocity=123 time=0
EXTRACT: note_on channel=9 note=31 velocity=127 time=0
EXTRACT: note_on channel=9 note=33 velocity=127 time=0
EXTRACT: note_on channel=9 note=31 velocity=127 time=0
EXTRACT: note_on channel=9 note=33 velocity=127 time=0
EXTRACT: note_on channel=9 note=46 velocity=100 time=0
EXTRACT: note_on channel=10 note=31 velocity=73 time=0
EXTRACT: note_on channel=9 note=46 velocity=0 time=0.10563375
EXTRACT: note_on channel=9 note=31 velocity=0 time=0
EXTRACT: note_on channel=9 note=31 velocity=0 time=0
EXTRACT: note_on channel=9 note=33 velocity=0 time=0
EXTRACT: note_on channel=9 note=33 velocity=0 time=0
EXTRACT: note_on channel=10 note=31 velocity=0 time=0
EXTRACT: control_change channel=4 control=10 value=110 time=0.03521125
EXTRACT: control_change channel=3 control=94 value=31 time=0.07746475
EXTRACT: control_change channel=8 control=91 value=0 time=0.04929575
EXTRACT: control_change channel=3 control=11 value=106 time=0.03521125
EXTRACT: control_change channel=4 control=72 value=104 time=0
EXTRACT: note_on channel=0 note=62 velocity=0 time=0.11971825
EXTRACT: note_on channel=0 note=64 velocity=87 time=0
EXTRACT: note_on channel=2 note=61 velocity=0 time=0
EXTRACT: note_on channel=2 note=59 velocity=73 time=0
EXTRACT: note_on channel=2 note=62 velocity=73 time=0
EXTRACT: note_on channel=3 note=71 velocity=0 time=0
EXTRACT: note_on channel=3 note=73 velocity=112 time=0
EXTRACT: note_on channel=8 note=40 velocity=0 time=0
EXTRACT: note_on channel=8 note=40 velocity=123 time=0
EXTRACT: note_on channel=9 note=46 velocity=100 time=0
EXTRACT: note_on channel=9 note=51 velocity=127 time=0
EXTRACT: note_on channel=9 note=46 velocity=100 time=0
EXTRACT: note_on channel=9 note=46 velocity=0 time=0.10563375
EXTRACT: note_on channel=9 note=51 velocity=0 time=0
EXTRACT: note_on channel=9 note=46 velocity=0 time=0
EXTRACT: control_change channel=3 control=72 value=107 time=0.02112675
EXTRACT: note_on channel=4 note=59 velocity=0 time=0.04929575
EXTRACT: note_on channel=4 note=64 velocity=0 time=0.02112675
EXTRACT: note_on channel=1 note=64 velocity=0 time=0.00704225
EXTRACT: note_on channel=1 note=57 velocity=0 time=0.00704225
EXTRACT: note_on channel=4 note=52 velocity=73 time=0.00704225
EXTRACT: note_on channel=1 note=69 velocity=0 time=0.00704225
EXTRACT: note_on channel=1 note=61 velocity=0 time=0.07746475
EXTRACT: note_on channel=4 note=57 velocity=73 time=0.0140845
EXTRACT: note_on channel=1 note=69 velocity=73 time=0.07746475
EXTRACT: note_on channel=0 note=64 velocity=0 time=0.028169
EXTRACT: note_on channel=0 note=56 velocity=0 time=0
EXTRACT: note_on channel=0 note=69 velocity=0 time=0
EXTRACT: note_on channel=0 note=57 velocity=84 time=0
EXTRACT: note_on channel=0 note=61 velocity=84 time=0
EXTRACT: note_on channel=0 note=64 velocity=84 time=0
EXTRACT: note_on channel=0 note=69 velocity=84 time=0
EXTRACT: note_on channel=2 note=62 velocity=0 time=0
EXTRACT: note_on channel=2 note=59 velocity=0 time=0
EXTRACT: note_on channel=2 note=52 velocity=73 time=0
EXTRACT: note_on channel=2 note=45 velocity=73 time=0
EXTRACT: note_on channel=3 note=73 velocity=0 time=0
EXTRACT: note_on channel=3 note=76 velocity=112 time=0
EXTRACT: note_on channel=4 note=61 velocity=73 time=0
EXTRACT: note_on channel=8 note=40 velocity=0 time=0
EXTRACT: note_on channel=8 note=33 velocity=123 time=0
EXTRACT: note_on channel=9 note=33 velocity=127 time=0
EXTRACT: note_on channel=9 note=46 velocity=100 time=0
EXTRACT: note_on channel=9 note=57 velocity=100 time=0
EXTRACT: note_on channel=1 note=61 velocity=73 time=0.02112675
EXTRACT: note_on channel=4 note=64 velocity=73 time=0.028169
EXTRACT: note_on channel=1 note=57 velocity=73 time=0.02112675
EXTRACT: note_on channel=9 note=57 velocity=0 time=0.03521125
EXTRACT: note_on channel=9 note=46 velocity=0 time=0
EXTRACT: note_on channel=9 note=33 velocity=0 time=0
EXTRACT: note_on channel=3 note=76 velocity=0 time=0.31690125
EXTRACT: note_on channel=3 note=64 velocity=112 time=0
EXTRACT: note_on channel=9 note=51 velocity=127 time=0
EXTRACT: note_on channel=9 note=46 velocity=100 time=0
EXTRACT: note_on channel=9 note=46 velocity=0 time=0.10563375
EXTRACT: note_on channel=9 note=51 velocity=0 time=0
EXTRACT: note_on channel=0 note=69 velocity=0 time=0.31690125
EXTRACT: note_on channel=0 note=57 velocity=0 time=0
EXTRACT: note_on channel=0 note=61 velocity=0 time=0
EXTRACT: note_on channel=0 note=64 velocity=0 time=0
EXTRACT: note_on channel=0 note=57 velocity=87 time=0
EXTRACT: note_on channel=0 note=61 velocity=87 time=0
EXTRACT: note_on channel=0 note=64 velocity=87 time=0
EXTRACT: note_on channel=0 note=69 velocity=87 time=0
EXTRACT: note_on channel=3 note=64 velocity=0 time=0
EXTRACT: note_on channel=3 note=76 velocity=112 time=0
EXTRACT: note_on channel=8 note=33 velocity=0 time=0
EXTRACT: note_on channel=8 note=33 velocity=123 time=0
EXTRACT: note_on channel=9 note=31 velocity=127 time=0
EXTRACT: note_on channel=9 note=33 velocity=127 time=0
EXTRACT: note_on channel=9 note=46 velocity=100 time=0
EXTRACT: note_on channel=10 note=31 velocity=73 time=0
EXTRACT: note_on channel=9 note=46 velocity=0 time=0.10563375
EXTRACT: note_on channel=9 note=33 velocity=0 time=0
EXTRACT: note_on channel=9 note=31 velocity=0 time=0
EXTRACT: note_on channel=10 note=31 velocity=0 time=0
EXTRACT: note_on channel=3 note=76 velocity=0 time=0.31690125
EXTRACT: note_on channel=3 note=64 velocity=112 time=0
EXTRACT: note_on channel=9 note=46 velocity=100 time=0
EXTRACT: note_on channel=9 note=46 velocity=0 time=0.10563375
EXTRACT: note_on channel=8 note=33 velocity=0 time=0.10563375
EXTRACT: note_on channel=8 note=33 velocity=123 time=0
EXTRACT: note_on channel=9 note=33 velocity=127 time=0
EXTRACT: note_on channel=1 note=69 velocity=0 time=0.0140845
EXTRACT: note_on channel=4 note=57 velocity=0 time=0.0422535
EXTRACT: note_on channel=1 note=61 velocity=0 time=0.00704225
EXTRACT: note_on channel=4 note=52 velocity=0 time=0.02112675
EXTRACT: note_on channel=9 note=33 velocity=0 time=0.02112675
EXTRACT: note_on channel=1 note=57 velocity=0 time=0.00704225
EXTRACT: note_on channel=1 note=57 velocity=73 time=0.03521125
EXTRACT: note_on channel=1 note=66 velocity=73 time=0.00704225
EXTRACT: note_on channel=4 note=52 velocity=73 time=0
EXTRACT: note_on channel=1 note=61 velocity=73 time=0.0140845
EXTRACT: note_on channel=4 note=61 velocity=0 time=0.00704225
EXTRACT: note_on channel=4 note=59 velocity=73 time=0
EXTRACT: note_on channel=0 note=69 velocity=0 time=0.03521125
EXTRACT: note_on channel=0 note=57 velocity=0 time=0
EXTRACT: note_on channel=0 note=61 velocity=0 time=0
EXTRACT: note_on channel=0 note=64 velocity=0 time=0
EXTRACT: note_on channel=0 note=54 velocity=87 time=0
EXTRACT: note_on channel=0 note=61 velocity=87 time=0
EXTRACT: note_on channel=0 note=66 velocity=87 time=0
EXTRACT: note_on channel=0 note=69 velocity=87 time=0
EXTRACT: note_on channel=2 note=45 velocity=0 time=0
EXTRACT: note_on channel=2 note=52 velocity=0 time=0
EXTRACT: note_on channel=2 note=54 velocity=73 time=0
EXTRACT: note_on channel=2 note=44 velocity=73 time=0
EXTRACT: note_on channel=3 note=64 velocity=0 time=0
EXTRACT: note_on channel=3 note=71 velocity=112 time=0
EXTRACT: note_on channel=8 note=33 velocity=0 time=0
EXTRACT: note_on channel=8 note=30 velocity=123 time=0
EXTRACT: note_on channel=9 note=46 velocity=100 time=0
EXTRACT: note_on channel=4 note=64 velocity=73 time=0.00704225
EXTRACT: note_on channel=1 note=69 velocity=73 time=0.00704225
EXTRACT: note_on channel=4 note=64 velocity=0 time=0
EXTRACT: note_on channel=9 note=46 velocity=0 time=0.09154925
EXTRACT: note_on channel=9 note=33 velocity=127 time=0.10563375
EXTRACT: note_on channel=9 note=33 velocity=0 time=0.10563375
EXTRACT: note_on channel=3 note=71 velocity=0 time=0.10563375
EXTRACT: note_on channel=3 note=73 velocity=112 time=0
EXTRACT: note_on channel=9 note=33 velocity=127 time=0
EXTRACT: note_on channel=9 note=46 velocity=100 time=0
EXTRACT: note_on channel=9 note=46 velocity=0 time=0.10563375
EXTRACT: note_on channel=9 note=33 velocity=0 time=0
EXTRACT: note_on channel=0 note=69 velocity=0 time=0.31690125
EXTRACT: note_on channel=0 note=54 velocity=0 time=0
EXTRACT: note_on channel=0 note=61 velocity=0 time=0
EXTRACT: note_on channel=0 note=66 velocity=0 time=0
EXTRACT: note_on channel=0 note=54 velocity=87 time=0
EXTRACT: note_on channel=0 note=61 velocity=87 time=0
EXTRACT: note_on channel=0 note=66 velocity=87 time=0
EXTRACT: note_on channel=0 note=69 velocity=87 time=0
EXTRACT: note_on channel=3 note=73 velocity=0 time=0
EXTRACT: note_on channel=3 note=71 velocity=112 time=0
EXTRACT: note_on channel=8 note=30 velocity=0 time=0
EXTRACT: note_on channel=8 note=30 velocity=123 time=0
EXTRACT: note_on channel=9 note=31 velocity=127 time=0
EXTRACT: note_on channel=9 note=33 velocity=127 time=0
EXTRACT: note_on channel=9 note=46 velocity=100 time=0
EXTRACT: note_on channel=10 note=31 velocity=73 time=0
EXTRACT: note_on channel=9 note=46 velocity=0 time=0.10563375
EXTRACT: note_on channel=9 note=33 velocity=0 time=0
EXTRACT: note_on channel=9 note=31 velocity=0 time=0
EXTRACT: note_on channel=10 note=31 velocity=0 time=0
EXTRACT: note_on channel=3 note=71 velocity=0 time=0.31690125
EXTRACT: note_on channel=3 note=73 velocity=112 time=0
EXTRACT: note_on channel=8 note=30 velocity=0 time=0
EXTRACT: note_on channel=8 note=30 velocity=123 time=0
EXTRACT: note_on channel=9 note=51 velocity=127 time=0
EXTRACT: note_on channel=9 note=46 velocity=100 time=0
EXTRACT: note_on channel=9 note=46 velocity=0 time=0.10563375
EXTRACT: note_on channel=9 note=51 velocity=0 time=0
EXTRACT: note_on channel=4 note=52 velocity=0 time=0.0704225
EXTRACT: note_on channel=1 note=57 velocity=0 time=0.0140845
EXTRACT: note_on channel=1 note=66 velocity=0 time=0.00704225
EXTRACT: note_on channel=4 note=59 velocity=0 time=0.00704225
EXTRACT: note_on channel=4 note=64 velocity=0 time=0
EXTRACT: note_on channel=1 note=61 velocity=0 time=0.00704225
EXTRACT: note_on channel=3 note=73 velocity=0 time=0
EXTRACT: note_on channel=3 note=76 velocity=112 time=0
EXTRACT: note_on channel=4 note=52 velocity=73 time=0.028169
EXTRACT: note_on channel=1 note=69 velocity=0 time=0.028169
EXTRACT: note_on channel=4 note=57 velocity=73 time=0.0704225
EXTRACT: note_on channel=1 note=61 velocity=73 time=0.03521125
EXTRACT: note_on channel=1 note=52 velocity=73 time=0.02112675
EXTRACT: note_on channel=1 note=56 velocity=73 time=0.02112675
EXTRACT: note_on channel=0 note=69 velocity=0 time=0.00704225
EXTRACT: note_on channel=0 note=54 velocity=0 time=0
EXTRACT: note_on channel=0 note=61 velocity=0 time=0
EXTRACT: note_on channel=0 note=66 velocity=0 time=0
EXTRACT: note_on channel=0 note=56 velocity=87 time=0
EXTRACT: note_on channel=0 note=61 velocity=87 time=0
EXTRACT: note_on channel=0 note=64 velocity=87 time=0
EXTRACT: note_on channel=0 note=68 velocity=87 time=0
EXTRACT: note_on channel=1 note=68 velocity=73 time=0
EXTRACT: note_on channel=2 note=44 velocity=0 time=0
EXTRACT: note_on channel=2 note=54 velocity=0 time=0
EXTRACT: note_on channel=2 note=61 velocity=73 time=0
EXTRACT: note_on channel=2 note=52 velocity=73 time=0
EXTRACT: note_on channel=3 note=76 velocity=0 time=0
EXTRACT: note_on channel=3 note=76 velocity=112 time=0
EXTRACT: note_on channel=8 note=30 velocity=0 time=0
EXTRACT: note_on channel=8 note=37 velocity=123 time=0
EXTRACT: note_on channel=9 note=33 velocity=127 time=0
EXTRACT: note_on channel=9 note=46 velocity=100 time=0
EXTRACT: note_on channel=4 note=61 velocity=73 time=0.02112675
EXTRACT: note_on channel=4 note=64 velocity=73 time=0.04929575
EXTRACT: note_on channel=9 note=46 velocity=0 time=0.03521125
EXTRACT: note_on channel=9 note=33 velocity=0 time=0
EXTRACT: note_on channel=3 note=76 velocity=0 time=0.31690125
EXTRACT: note_on channel=3 note=64 velocity=112 time=0
EXTRACT: note_on channel=9 note=51 velocity=127 time=0
EXTRACT: note_on channel=9 note=46 velocity=100 time=0
EXTRACT: note_on channel=9 note=46 velocity=0 time=0.10563375
EXTRACT: note_on channel=9 note=51 velocity=0 time=0
EXTRACT: note_on channel=0 note=68 velocity=0 time=0.31690125
EXTRACT: note_on channel=0 note=56 velocity=0 time=0
EXTRACT: note_on channel=0 note=61 velocity=0 time=0
EXTRACT: note_on channel=0 note=64 velocity=0 time=0
EXTRACT: note_on channel=0 note=56 velocity=87 time=0
EXTRACT: note_on channel=0 note=61 velocity=87 time=0
EXTRACT: note_on channel=0 note=64 velocity=87 time=0
EXTRACT: note_on channel=0 note=68 velocity=87 time=0
EXTRACT: note_on channel=3 note=64 velocity=0 time=0
EXTRACT: note_on channel=3 note=76 velocity=112 time=0
EXTRACT: note_on channel=8 note=37 velocity=0 time=0
EXTRACT: note_on channel=8 note=37 velocity=123 time=0
EXTRACT: note_on channel=9 note=31 velocity=127 time=0
EXTRACT: note_on channel=9 note=33 velocity=127 time=0
EXTRACT: note_on channel=9 note=46 velocity=100 time=0
EXTRACT: note_on channel=10 note=31 velocity=73 time=0
EXTRACT: note_on channel=9 note=46 velocity=0 time=0.10563375
EXTRACT: note_on channel=9 note=33 velocity=0 time=0
EXTRACT: note_on channel=9 note=31 velocity=0 time=0
EXTRACT: note_on channel=10 note=31 velocity=0 time=0
EXTRACT: note_on channel=3 note=76 velocity=0 time=0.31690125
EXTRACT: pitchwheel channel=3 pitch=384 time=0
EXTRACT: note_on channel=3 note=71 velocity=112 time=0
EXTRACT: note_on channel=9 note=46 velocity=100 time=0
EXTRACT: pitchwheel channel=3 pitch=640 time=0.00704225
EXTRACT: pitchwheel channel=3 pitch=896 time=0.028169
EXTRACT: pitchwheel channel=3 pitch=1024 time=0.0140845
EXTRACT: pitchwheel channel=3 pitch=1280 time=0.02112675
EXTRACT: pitchwheel channel=3 pitch=1408 time=0.0140845
EXTRACT: pitchwheel channel=3 pitch=1664 time=0.02112675
EXTRACT: note_on channel=9 note=46 velocity=0 time=0
EXTRACT: pitchwheel channel=3 pitch=1920 time=0.00704225
EXTRACT: pitchwheel channel=3 pitch=2688 time=0.04929575
EXTRACT: pitchwheel channel=3 pitch=2944 time=0.00704225
EXTRACT: pitchwheel channel=3 pitch=3712 time=0.02112675
EXTRACT: pitchwheel channel=3 pitch=4224 time=0.00704225
EXTRACT: note_on channel=1 note=61 velocity=0 time=0.00704225
EXTRACT: pitchwheel channel=3 pitch=4992 time=0
EXTRACT: pitchwheel channel=3 pitch=5120 time=0.00704225
EXTRACT: note_on channel=9 note=33 velocity=127 time=0
EXTRACT: pitchwheel channel=3 pitch=5376 time=0.00704225
EXTRACT: note_on channel=1 note=52 velocity=0 time=0.00704225
EXTRACT: pitchwheel channel=3 pitch=5632 time=0.00704225
EXTRACT: note_on channel=1 note=56 velocity=0 time=0.0140845
EXTRACT: pitchwheel channel=3 pitch=5888 time=0
EXTRACT: note_on channel=1 note=68 velocity=0 time=0.00704225
EXTRACT: pitchwheel channel=3 pitch=6144 time=0
EXTRACT: pitchwheel channel=3 pitch=6400 time=0.00704225
EXTRACT: note_on channel=4 note=64 velocity=0 time=0.00704225
EXTRACT: pitchwheel channel=3 pitch=6656 time=0.00704225
EXTRACT: pitchwheel channel=3 pitch=6912 time=0.0140845
EXTRACT: note_on channel=4 note=57 velocity=0 time=0
EXTRACT: pitchwheel channel=3 pitch=7168 time=0.00704225
EXTRACT: pitchwheel channel=3 pitch=7424 time=0.00704225
EXTRACT: pitchwheel channel=3 pitch=7552 time=0.0140845
EXTRACT: note_on channel=4 note=52 velocity=0 time=0
EXTRACT: note_on channel=9 note=33 velocity=0 time=0
EXTRACT: pitchwheel channel=3 pitch=7680 time=0.00704225
EXTRACT: pitchwheel channel=3 pitch=7936 time=0.00704225
EXTRACT: pitchwheel channel=3 pitch=8191 time=0.00704225
EXTRACT: note_on channel=1 note=64 velocity=73 time=0.03521125
EXTRACT: note_on channel=1 note=52 velocity=73 time=0.00704225
EXTRACT: note_on channel=1 note=69 velocity=73 time=0.0140845
EXTRACT: note_on channel=4 note=52 velocity=73 time=0.00704225
EXTRACT: note_on channel=4 note=61 velocity=0 time=0.00704225
EXTRACT: note_on channel=0 note=68 velocity=0 time=0.0140845
EXTRACT: note_on channel=0 note=56 velocity=0 time=0
EXTRACT: note_on channel=0 note=61 velocity=0 time=0
EXTRACT: note_on channel=0 note=64 velocity=0 time=0
EXTRACT: note_on channel=0 note=69 velocity=87 time=0
EXTRACT: note_on channel=0 note=59 velocity=87 time=0
EXTRACT: note_on channel=0 note=64 velocity=87 time=0
EXTRACT: note_on channel=2 note=52 velocity=0 time=0
EXTRACT: note_on channel=2 note=61 velocity=0 time=0
EXTRACT: note_on channel=2 note=61 velocity=73 time=0
EXTRACT: note_on channel=3 note=71 velocity=0 time=0
EXTRACT: note_on channel=3 note=71 velocity=112 time=0
EXTRACT: note_on channel=4 note=56 velocity=73 time=0
EXTRACT: note_on channel=4 note=59 velocity=73 time=0
EXTRACT: note_on channel=4 note=64 velocity=73 time=0
EXTRACT: note_on channel=8 note=37 velocity=0 time=0
EXTRACT: note_on channel=8 note=40 velocity=123 time=0
EXTRACT: note_on channel=9 note=46 velocity=100 time=0
EXTRACT: pitchwheel channel=3 pitch=128 time=0.00704225
EXTRACT: pitchwheel channel=3 pitch=0 time=0.028169
EXTRACT: note_on channel=1 note=59 velocity=73 time=0.0140845
EXTRACT: note_on channel=9 note=46 velocity=0 time=0.056338
EXTRACT: note_on channel=9 note=33 velocity=127 time=0.10563375
EXTRACT: note_on channel=9 note=33 velocity=0 time=0.10563375
EXTRACT: note_on channel=0 note=64 velocity=0 time=0.10563375
EXTRACT: note_on channel=0 note=64 velocity=87 time=0
EXTRACT: note_on channel=2 note=61 velocity=0 time=0
EXTRACT: note_on channel=2 note=59 velocity=73 time=0
EXTRACT: note_on channel=2 note=62 velocity=73 time=0
EXTRACT: note_on channel=3 note=71 velocity=0 time=0
EXTRACT: note_on channel=3 note=73 velocity=112 time=0
EXTRACT: note_on channel=8 note=40 velocity=0 time=0
EXTRACT: note_on channel=8 note=40 velocity=123 time=0
EXTRACT: note_on channel=9 note=33 velocity=127 time=0
EXTRACT: note_on channel=9 note=46 velocity=100 time=0
EXTRACT: note_on channel=9 note=46 velocity=0 time=0.10563375
EXTRACT: note_on channel=9 note=33 velocity=0 time=0
EXTRACT: note_on channel=8 note=40 velocity=0 time=0.10563375
EXTRACT: note_on channel=8 note=40 velocity=123 time=0
EXTRACT: note_on channel=0 note=64 velocity=0 time=0.2112675
EXTRACT: note_on channel=0 note=59 velocity=0 time=0
EXTRACT: note_on channel=0 note=69 velocity=0 time=0
EXTRACT: note_on channel=0 note=69 velocity=87 time=0
EXTRACT: note_on channel=0 note=59 velocity=87 time=0
EXTRACT: note_on channel=0 note=64 velocity=87 time=0
EXTRACT: note_on channel=2 note=62 velocity=0 time=0
EXTRACT: note_on channel=2 note=59 velocity=0 time=0
EXTRACT: note_on channel=2 note=61 velocity=73 time=0
EXTRACT: note_on channel=3 note=73 velocity=0 time=0
EXTRACT: note_on channel=3 note=71 velocity=112 time=0
EXTRACT: note_on channel=8 note=40 velocity=0 time=0
EXTRACT: note_on channel=8 note=40 velocity=123 time=0
EXTRACT: note_on channel=9 note=31 velocity=127 time=0
EXTRACT: note_on channel=9 note=33 velocity=127 time=0
EXTRACT: note_on channel=9 note=46 velocity=100 time=0
EXTRACT: note_on channel=10 note=31 velocity=73 time=0
EXTRACT: note_on channel=9 note=46 velocity=0 time=0.10563375
EXTRACT: note_on channel=9 note=33 velocity=0 time=0
EXTRACT: note_on channel=9 note=31 velocity=0 time=0
EXTRACT: note_on channel=10 note=31 velocity=0 time=0
EXTRACT: note_on channel=0 note=64 velocity=0 time=0.31690125
EXTRACT: note_on channel=0 note=64 velocity=87 time=0
EXTRACT: note_on channel=2 note=61 velocity=0 time=0
EXTRACT: note_on channel=2 note=59 velocity=73 time=0
EXTRACT: note_on channel=2 note=62 velocity=73 time=0
EXTRACT: note_on channel=3 note=71 velocity=0 time=0
EXTRACT: note_on channel=3 note=73 velocity=112 time=0
EXTRACT: note_on channel=8 note=40 velocity=0 time=0
EXTRACT: note_on channel=8 note=40 velocity=123 time=0
EXTRACT: note_on channel=9 note=51 velocity=127 time=0
EXTRACT: note_on channel=9 note=46 velocity=100 time=0
EXTRACT: note_on channel=9 note=46 velocity=0 time=0.10563375
EXTRACT: note_on channel=9 note=51 velocity=0 time=0
EXTRACT: note_on channel=4 note=52 velocity=0 time=0.0704225
EXTRACT: note_on channel=4 note=56 velocity=0 time=0.02112675
EXTRACT: note_on channel=4 note=59 velocity=0 time=0
EXTRACT: note_on channel=4 note=64 velocity=0 time=0
EXTRACT: note_on channel=1 note=64 velocity=0 time=0.00704225
EXTRACT: note_on channel=1 note=52 velocity=0 time=0.00704225
EXTRACT: note_on channel=1 note=69 velocity=0 time=0.0140845
EXTRACT: note_on channel=4 note=52 velocity=73 time=0.06338025
EXTRACT: note_on channel=1 note=59 velocity=0 time=0.0140845
EXTRACT: note_on channel=1 note=69 velocity=73 time=0.0704225
EXTRACT: note_on channel=4 note=57 velocity=73 time=0.0140845
EXTRACT: note_on channel=0 note=64 velocity=0 time=0.03521125
EXTRACT: note_on channel=0 note=59 velocity=0 time=0
EXTRACT: note_on channel=0 note=69 velocity=0 time=0
EXTRACT: note_on channel=2 note=62 velocity=0 time=0
EXTRACT: note_on channel=2 note=59 velocity=0 time=0
EXTRACT: note_on channel=2 note=64 velocity=58 time=0
EXTRACT: note_on channel=3 note=73 velocity=0 time=0
EXTRACT: note_on channel=3 note=69 velocity=96 time=0
EXTRACT: note_on channel=5 note=64 velocity=78 time=0
EXTRACT: note_on channel=5 note=73 velocity=78 time=0
EXTRACT: note_on channel=5 note=69 velocity=78 time=0
EXTRACT: note_on channel=8 note=40 velocity=0 time=0
EXTRACT: note_on channel=8 note=33 velocity=123 time=0
EXTRACT: note_on channel=9 note=33 velocity=127 time=0
EXTRACT: note_on channel=9 note=57 velocity=100 time=0
EXTRACT: note_on channel=9 note=44 velocity=80 time=0
EXTRACT: note_on channel=0 note=61 velocity=80 time=0.00704225
EXTRACT: note_on channel=0 note=64 velocity=80 time=0
EXTRACT: note_on channel=3 note=73 velocity=79 time=0
EXTRACT: note_on channel=9 note=44 velocity=0 time=0.0985915
EXTRACT: note_on channel=9 note=57 velocity=0 time=0
EXTRACT: note_on channel=9 note=33 velocity=0 time=0
EXTRACT: note_on channel=9 note=82 velocity=35 time=0.10563375
EXTRACT: control_change channel=11 control=74 value=39 time=0
EXTRACT: note_on channel=9 note=82 velocity=0 time=0.10563375
EXTRACT: note_on channel=9 note=44 velocity=80 time=0.10563375
EXTRACT: control_change channel=11 control=93 value=37 time=0.02112675
EXTRACT: note_on channel=9 note=44 velocity=0 time=0.084507
EXTRACT: control_change channel=11 control=94 value=41 time=0
EXTRACT: control_change channel=11 control=1 value=29 time=0.00704225
EXTRACT: note_on channel=9 note=82 velocity=35 time=0.0985915
EXTRACT: note_on channel=9 note=82 velocity=0 time=0.10563375
EXTRACT: note_on channel=3 note=69 velocity=0 time=0.10563375
EXTRACT: note_on channel=8 note=33 velocity=0 time=0
EXTRACT: note_on channel=8 note=33 velocity=123 time=0
EXTRACT: note_on channel=9 note=31 velocity=127 time=0
EXTRACT: note_on channel=9 note=33 velocity=127 time=0
EXTRACT: note_on channel=9 note=44 velocity=80 time=0
EXTRACT: note_on channel=10 note=31 velocity=73 time=0
EXTRACT: note_on channel=0 note=64 velocity=0 time=0.00704225
EXTRACT: note_on channel=0 note=61 velocity=0 time=0
EXTRACT: note_on channel=3 note=73 velocity=0 time=0
EXTRACT: note_on channel=11 note=59 velocity=127 time=0.00704225
EXTRACT: note_on channel=9 note=44 velocity=0 time=0.09154925
EXTRACT: note_on channel=9 note=33 velocity=0 time=0
EXTRACT: note_on channel=9 note=31 velocity=0 time=0
EXTRACT: note_on channel=10 note=31 velocity=0 time=0
EXTRACT: note_on channel=9 note=82 velocity=35 time=0.10563375
EXTRACT: pitchwheel channel=11 pitch=8191 time=0.0704225
EXTRACT: control_change channel=11 control=11 value=126 time=0
EXTRACT: control_change channel=11 control=11 value=124 time=0.0140845
EXTRACT: note_on channel=9 note=82 velocity=0 time=0.02112675
EXTRACT: control_change channel=11 control=11 value=123 time=0.00704225
EXTRACT: control_change channel=11 control=11 value=122 time=0.00704225
EXTRACT: control_change channel=11 control=11 value=119 time=0.03521125
EXTRACT: control_change channel=11 control=11 value=117 time=0.0140845
EXTRACT: note_on channel=9 note=44 velocity=80 time=0.0422535
EXTRACT: control_change channel=11 control=11 value=116 time=0.0140845
EXTRACT: control_change channel=11 control=11 value=114 time=0.04929575
EXTRACT: note_on channel=9 note=44 velocity=0 time=0.0422535
EXTRACT: control_change channel=6 control=1 value=72 time=0.0140845
EXTRACT: control_change channel=11 control=11 value=113 time=0.00704225
EXTRACT: control_change channel=11 control=11 value=112 time=0.0140845
EXTRACT: control_change channel=11 control=11 value=111 time=0.00704225
EXTRACT: control_change channel=11 control=11 value=109 time=0.0140845
EXTRACT: control_change channel=11 control=11 value=108 time=0.02112675
EXTRACT: control_change channel=11 control=11 value=106 time=0.0140845
EXTRACT: note_on channel=1 note=69 velocity=0 time=0.00704225
EXTRACT: note_on channel=8 note=33 velocity=0 time=0.00704225
EXTRACT: note_on channel=8 note=33 velocity=123 time=0
EXTRACT: note_on channel=9 note=82 velocity=35 time=0
EXTRACT: note_on channel=9 note=33 velocity=127 time=0
EXTRACT: control_change channel=11 control=11 value=104 time=0
EXTRACT: control_change channel=11 control=11 value=103 time=0.02112675
EXTRACT: control_change channel=11 control=11 value=101 time=0.04929575
EXTRACT: control_change channel=11 control=11 value=100 time=0.00704225
EXTRACT: control_change channel=11 control=11 value=99 time=0.00704225
EXTRACT: note_on channel=9 note=33 velocity=0 time=0.02112675
EXTRACT: note_on channel=9 note=82 velocity=0 time=0
EXTRACT: control_change channel=11 control=11 value=98 time=0.00704225
EXTRACT: note_on channel=1 note=52 velocity=80 time=0.00704225
EXTRACT: control_change channel=11 control=11 value=97 time=0
EXTRACT: note_on channel=1 note=56 velocity=80 time=0.00704225
EXTRACT: note_on channel=4 note=57 velocity=0 time=0
EXTRACT: control_change channel=11 control=11 value=96 time=0
EXTRACT: control_change channel=11 control=11 value=95 time=0.02112675
EXTRACT: note_on channel=1 note=61 velocity=80 time=0.00704225
EXTRACT: note_on channel=4 note=52 velocity=0 time=0
EXTRACT: control_change channel=6 control=11 value=2 time=0.00704225
EXTRACT: control_change channel=11 control=11 value=94 time=0
EXTRACT: control_change channel=6 control=11 value=3 time=0.00704225
EXTRACT: control_change channel=11 control=11 value=93 time=0
EXTRACT: control_change channel=11 control=11 value=92 time=0.02112675
EXTRACT: control_change channel=6 control=11 value=4 time=0.00704225
EXTRACT: pitchwheel channel=11 pitch=-94 time=0.00704225
EXTRACT: control_change channel=11 control=11 value=98 time=0
EXTRACT: note_on channel=5 note=69 velocity=0 time=0.00704225
EXTRACT: note_on channel=5 note=73 velocity=0 time=0
EXTRACT: note_on channel=5 note=64 velocity=0 time=0
EXTRACT: note_on channel=5 note=64 velocity=78 time=0
EXTRACT: note_on channel=5 note=73 velocity=78 time=0
EXTRACT: note_on channel=5 note=68 velocity=78 time=0
EXTRACT: control_change channel=6 control=11 value=5 time=0
EXTRACT: note_on channel=8 note=33 velocity=0 time=0
EXTRACT: note_on channel=8 note=32 velocity=123 time=0
EXTRACT: note_on channel=9 note=44 velocity=80 time=0
EXTRACT: note_on channel=11 note=59 velocity=0 time=0
EXTRACT: note_on channel=11 note=61 velocity=127 time=0
EXTRACT: pitchwheel channel=11 pitch=-188 time=0
EXTRACT: pitchwheel channel=11 pitch=-469 time=0.0140845
EXTRACT: control_change channel=6 control=11 value=6 time=0.00704225
EXTRACT: control_change channel=11 control=11 value=104 time=0
EXTRACT: control_change channel=11 control=11 value=107 time=0.00704225
EXTRACT: pitchwheel channel=11 pitch=-844 time=0.00704225
EXTRACT: control_change channel=11 control=11 value=108 time=0
EXTRACT: control_change channel=6 control=11 value=7 time=0.00704225
EXTRACT: control_change channel=11 control=11 value=111 time=0
EXTRACT: pitchwheel channel=11 pitch=-1407 time=0.0140845
EXTRACT: control_change channel=11 control=11 value=115 time=0
EXTRACT: control_change channel=6 control=11 value=8 time=0.00704225
EXTRACT: pitchwheel channel=11 pitch=-1454 time=0
EXTRACT: control_change channel=11 control=11 value=118 time=0
EXTRACT: pitchwheel channel=11 pitch=-938 time=0.00704225
EXTRACT: control_change channel=11 control=11 value=119 time=0
EXTRACT: control_change channel=6 control=11 value=9 time=0.00704225
EXTRACT: control_change channel=11 control=11 value=121 time=0
EXTRACT: pitchwheel channel=11 pitch=-563 time=0.00704225
EXTRACT: control_change channel=11 control=11 value=126 time=0
EXTRACT: control_change channel=11 control=11 value=124 time=0.0140845
EXTRACT: control_change channel=6 control=11 value=10 time=0.00704225
EXTRACT: note_on channel=9 note=44 velocity=0 time=0
EXTRACT: pitchwheel channel=11 pitch=-94 time=0
EXTRACT: pitchwheel channel=11 pitch=375 time=0.00704225
EXTRACT: control_change channel=6 control=11 value=11 time=0.00704225
EXTRACT: control_change channel=6 control=11 value=12 time=0.0140845
EXTRACT: note_on channel=6 note=64 velocity=100 time=0.02112675
EXTRACT: control_change channel=6 control=11 value=13 time=0.00704225
EXTRACT: control_change channel=11 control=11 value=123 time=0.00704225
EXTRACT: pitchwheel channel=11 pitch=1312 time=0
EXTRACT: control_change channel=6 control=11 value=14 time=0.00704225
EXTRACT: pitchwheel channel=11 pitch=0 time=0
EXTRACT: pitchwheel channel=11 pitch=-256 time=0.00704225
EXTRACT: control_change channel=6 control=11 value=15 time=0.0140845
EXTRACT: pitchwheel channel=11 pitch=-384 time=0
EXTRACT: control_change channel=11 control=11 value=122 time=0
EXTRACT: control_change channel=6 control=11 value=16 time=0.0140845
EXTRACT: note_on channel=9 note=33 velocity=49 time=0
EXTRACT: note_on channel=9 note=82 velocity=35 time=0
EXTRACT: pitchwheel channel=11 pitch=-512 time=0
EXTRACT: control_change channel=6 control=11 value=17 time=0.028169
EXTRACT: control_change channel=6 control=11 value=18 time=0.0140845
EXTRACT: pitchwheel channel=11 pitch=-768 time=0.00704225
EXTRACT: control_change channel=11 control=11 value=120 time=0
EXTRACT: control_change channel=6 control=11 value=19 time=0.0140845
EXTRACT: control_change channel=11 control=11 value=119 time=0
EXTRACT: control_change channel=6 control=11 value=20 time=0.02112675
EXTRACT: control_change channel=11 control=11 value=118 time=0
EXTRACT: control_change channel=11 control=11 value=117 time=0.00704225
EXTRACT: pitchwheel channel=11 pitch=-896 time=0.00704225
EXTRACT: control_change channel=6 control=11 value=21 time=0.00704225
EXTRACT: note_on channel=9 note=82 velocity=0 time=0
EXTRACT: note_on channel=9 note=33 velocity=0 time=0
EXTRACT: control_change channel=11 control=11 value=116 time=0
EXTRACT: control_change channel=11 control=11 value=115 time=0.00704225
EXTRACT: control_change channel=6 control=11 value=22 time=0.00704225
EXTRACT: control_change channel=11 control=11 value=114 time=0.0140845
EXTRACT: control_change channel=6 control=11 value=23 time=0.0140845
EXTRACT: control_change channel=11 control=11 value=113 time=0
EXTRACT: pitchwheel channel=11 pitch=-1024 time=0.00704225
EXTRACT: control_change channel=11 control=11 value=112 time=0
EXTRACT: control_change channel=6 control=11 value=24 time=0.00704225
EXTRACT: pitchwheel channel=11 pitch=-1152 time=0.00704225
EXTRACT: control_change channel=11 control=11 value=111 time=0
EXTRACT: control_change channel=6 control=11 value=25 time=0.00704225
EXTRACT: control_change channel=11 control=11 value=110 time=0.00704225
EXTRACT: control_change channel=6 control=11 value=26 time=0.02112675
EXTRACT: note_on channel=9 note=33 velocity=127 time=0.00704225
EXTRACT: note_on channel=9 note=44 velocity=80 time=0
EXTRACT: control_change channel=11 control=11 value=109 time=0
EXTRACT: control_change channel=6 control=11 value=27 time=0.00704225
EXTRACT: pitchwheel channel=11 pitch=-1280 time=0
EXTRACT: control_change channel=11 control=11 value=108 time=0
EXTRACT: control_change channel=11 control=11 value=107 time=0.00704225
EXTRACT: control_change channel=6 control=11 value=28 time=0.0140845
EXTRACT: pitchwheel channel=11 pitch=-1408 time=0
EXTRACT: control_change channel=6 control=11 value=29 time=0.0140845
EXTRACT: control_change channel=11 control=11 value=106 time=0
EXTRACT: pitchwheel channel=11 pitch=-1792 time=0.00704225
EXTRACT: control_change channel=11 control=11 value=105 time=0
EXTRACT: pitchwheel channel=11 pitch=-1920 time=0.00704225
EXTRACT: control_change channel=11 control=11 value=104 time=0.00704225
EXTRACT: control_change channel=6 control=11 value=30 time=0.00704225
EXTRACT: control_change channel=11 control=11 value=103 time=0
EXTRACT: pitchwheel channel=11 pitch=-2048 time=0.00704225
EXTRACT: control_change channel=6 control=11 value=31 time=0.00704225
EXTRACT: pitchwheel channel=11 pitch=-2176 time=0
EXTRACT: control_change channel=11 control=11 value=102 time=0
EXTRACT: pitchwheel channel=11 pitch=-2304 time=0.00704225
EXTRACT: control_change channel=11 control=11 value=101 time=0.00704225
EXTRACT: control_change channel=6 control=11 value=32 time=0.00704225
EXTRACT: note_on channel=9 note=44 velocity=0 time=0
EXTRACT: note_on channel=9 note=33 velocity=0 time=0
EXTRACT: pitchwheel channel=11 pitch=-2432 time=0.00704225
EXTRACT: control_change channel=11 control=11 value=99 time=0
EXTRACT: pitchwheel channel=11 pitch=-2560 time=0.00704225
EXTRACT: control_change channel=6 control=11 value=33 time=0.00704225
EXTRACT: pitchwheel channel=11 pitch=-2816 time=0
EXTRACT: control_change channel=11 control=11 value=98 time=0.00704225
EXTRACT: control_change channel=11 control=11 value=97 time=0.00704225
EXTRACT: control_change channel=6 control=11 value=34 time=0.00704225
EXTRACT: control_change channel=11 control=11 value=96 time=0
EXTRACT: control_change channel=6 control=11 value=35 time=0.0140845
EXTRACT: control_change channel=11 control=11 value=95 time=0.00704225
EXTRACT: pitchwheel channel=11 pitch=-2944 time=0.00704225
EXTRACT: control_change channel=11 control=11 value=94 time=0
EXTRACT: pitchwheel channel=11 pitch=-3072 time=0.00704225
EXTRACT: control_change channel=11 control=11 value=93 time=0
EXTRACT: control_change channel=6 control=11 value=36 time=0.00704225
EXTRACT: control_change channel=11 control=11 value=92 time=0
EXTRACT: control_change channel=11 control=11 value=91 time=0.00704225
EXTRACT: control_change channel=6 control=11 value=37 time=0.00704225
EXTRACT: pitchwheel channel=11 pitch=-3328 time=0
EXTRACT: note_on channel=9 note=82 velocity=35 time=0.00704225
EXTRACT: pitchwheel channel=11 pitch=-3584 time=0
EXTRACT: control_change channel=11 control=11 value=90 time=0
EXTRACT: control_change channel=6 control=11 value=38 time=0.00704225
EXTRACT: pitchwheel channel=11 pitch=-3712 time=0.00704225
EXTRACT: control_change channel=11 control=11 value=89 time=0
EXTRACT: control_change channel=11 control=11 value=88 time=0.0140845
EXTRACT: control_change channel=6 control=11 value=39 time=0.00704225
EXTRACT: pitchwheel channel=11 pitch=-4096 time=0
EXTRACT: pitchwheel channel=11 pitch=-4224 time=0.00704225
EXTRACT: control_change channel=6 control=11 value=40 time=0.00704225
EXTRACT: pitchwheel channel=11 pitch=-4352 time=0
EXTRACT: control_change channel=11 control=11 value=89 time=0
EXTRACT: pitchwheel channel=11 pitch=-4480 time=0.00704225
EXTRACT: control_change channel=11 control=11 value=91 time=0
EXTRACT: control_change channel=11 control=11 value=92 time=0.00704225
EXTRACT: control_change channel=6 control=11 value=41 time=0.00704225
EXTRACT: pitchwheel channel=11 pitch=-4864 time=0
EXTRACT: control_change channel=11 control=11 value=93 time=0
EXTRACT: control_change channel=6 control=11 value=42 time=0.0140845
EXTRACT: pitchwheel channel=11 pitch=-4992 time=0.00704225
EXTRACT: pitchwheel channel=11 pitch=-5376 time=0.00704225
EXTRACT: control_change channel=11 control=11 value=92 time=0
EXTRACT: note_on channel=9 note=82 velocity=0 time=0.00704225
EXTRACT: control_change channel=11 control=11 value=91 time=0
EXTRACT: control_change channel=6 control=11 value=43 time=0.00704225
EXTRACT: pitchwheel channel=11 pitch=-5504 time=0
EXTRACT: control_change channel=11 control=11 value=90 time=0
EXTRACT: pitchwheel channel=11 pitch=-5760 time=0.00704225
EXTRACT: control_change channel=6 control=11 value=44 time=0.00704225
EXTRACT: pitchwheel channel=11 pitch=-6016 time=0
EXTRACT: control_change channel=11 control=11 value=89 time=0
EXTRACT: pitchwheel channel=11 pitch=-6400 time=0.00704225
EXTRACT: control_change channel=11 control=11 value=87 time=0
EXTRACT: pitchwheel channel=11 pitch=-6528 time=0.00704225
EXTRACT: control_change channel=6 control=11 value=45 time=0.00704225
EXTRACT: control_change channel=11 control=11 value=85 time=0
EXTRACT: pitchwheel channel=11 pitch=-6656 time=0.00704225
EXTRACT: control_change channel=6 control=94 value=56 time=0.00704225
EXTRACT: pitchwheel channel=11 pitch=-6912 time=0
EXTRACT: control_change channel=6 control=11 value=46 time=0.00704225
EXTRACT: pitchwheel channel=11 pitch=-7424 time=0
EXTRACT: control_change channel=11 control=11 value=83 time=0
EXTRACT: pitchwheel channel=11 pitch=-7552 time=0.00704225
EXTRACT: control_change channel=11 control=11 value=82 time=0
EXTRACT: pitchwheel channel=11 pitch=-7680 time=0.00704225
EXTRACT: control_change channel=6 control=11 value=47 time=0.00704225
EXTRACT: pitchwheel channel=11 pitch=-8064 time=0.00704225
EXTRACT: control_change channel=11 control=11 value=93 time=0
EXTRACT: control_change channel=6 control=11 value=48 time=0.00704225
EXTRACT: note_on channel=8 note=32 velocity=0 time=0.00704225
EXTRACT: note_on channel=8 note=32 velocity=123 time=0
EXTRACT: note_on channel=9 note=31 velocity=127 time=0
EXTRACT: note_on channel=9 note=44 velocity=80 time=0
EXTRACT: note_on channel=9 note=33 velocity=127 time=0
EXTRACT: note_on channel=10 note=31 velocity=73 time=0
EXTRACT: note_on channel=11 note=61 velocity=0 time=0
EXTRACT: control_change channel=11 control=11 value=127 time=0
EXTRACT: note_on channel=11 note=59 velocity=127 time=0
EXTRACT: pitchwheel channel=11 pitch=0 time=0.00704225
EXTRACT: control_change channel=6 control=11 value=49 time=0.0140845
EXTRACT: control_change channel=6 control=11 value=50 time=0.0140845
EXTRACT: control_change channel=11 control=11 value=126 time=0
EXTRACT: control_change channel=6 control=11 value=51 time=0.0140845
EXTRACT: control_change channel=11 control=11 value=125 time=0
EXTRACT: control_change channel=6 control=11 value=52 time=0.028169
EXTRACT: control_change channel=11 control=11 value=124 time=0.00704225
EXTRACT: control_change channel=6 control=11 value=53 time=0.00704225
EXTRACT: control_change channel=11 control=11 value=123 time=0
EXTRACT: control_change channel=11 control=11 value=122 time=0.00704225
EXTRACT: note_on channel=9 note=33 velocity=0 time=0.00704225
EXTRACT: note_on channel=9 note=44 velocity=0 time=0
EXTRACT: note_on channel=9 note=31 velocity=0 time=0
EXTRACT: note_on channel=10 note=31 velocity=0 time=0
EXTRACT: control_change channel=6 control=11 value=54 time=0.00704225
EXTRACT: control_change channel=11 control=11 value=121 time=0.00704225
EXTRACT: control_change channel=6 control=11 value=55 time=0.00704225
EXTRACT: control_change channel=11 control=11 value=120 time=0.0140845
EXTRACT: control_change channel=6 control=11 value=56 time=0.0140845
EXTRACT: control_change channel=6 control=11 value=57 time=0.0140845
EXTRACT: control_change channel=11 control=11 value=119 time=0
EXTRACT: control_change channel=11 control=11 value=118 time=0.0140845
EXTRACT: control_change channel=6 control=11 value=58 time=0.00704225
EXTRACT: control_change channel=6 control=11 value=59 time=0.02112675
EXTRACT: note_on channel=9 note=82 velocity=35 time=0
EXTRACT: control_change channel=11 control=11 value=117 time=0.00704225
EXTRACT: control_change channel=6 control=11 value=60 time=0.0140845
EXTRACT: control_change channel=11 control=11 value=116 time=0.00704225
EXTRACT: control_change channel=6 control=11 value=61 time=0.00704225
EXTRACT: control_change channel=11 control=11 value=115 time=0
EXTRACT: control_change channel=11 control=11 value=114 time=0.00704225
EXTRACT: pitchwheel channel=11 pitch=128 time=0
EXTRACT: control_change channel=11 control=11 value=113 time=0.00704225
EXTRACT: pitchwheel channel=11 pitch=2816 time=0
EXTRACT: control_change channel=11 control=11 value=112 time=0.00704225
EXTRACT: pitchwheel channel=11 pitch=5504 time=0
EXTRACT: control_change channel=6 control=11 value=62 time=0.00704225
EXTRACT: control_change channel=11 control=11 value=111 time=0.00704225
EXTRACT: pitchwheel channel=11 pitch=8191 time=0
EXTRACT: control_change channel=6 control=11 value=63 time=0.00704225
EXTRACT: control_change channel=11 control=11 value=110 time=0
EXTRACT: control_change channel=6 control=11 value=64 time=0.0140845
EXTRACT: control_change channel=11 control=11 value=109 time=0
EXTRACT: note_on channel=9 note=82 velocity=0 time=0.0140845
EXTRACT: control_change channel=6 control=11 value=65 time=0.00704225
EXTRACT: control_change channel=11 control=11 value=108 time=0
EXTRACT: control_change channel=6 control=11 value=66 time=0.02112675
EXTRACT: control_change channel=6 control=11 value=67 time=0.02112675
EXTRACT: control_change channel=11 control=11 value=107 time=0.00704225
EXTRACT: control_change channel=6 control=11 value=68 time=0.00704225
EXTRACT: control_change channel=11 control=11 value=106 time=0.00704225
EXTRACT: control_change channel=6 control=11 value=69 time=0.02112675
EXTRACT: control_change channel=11 control=11 value=105 time=0.00704225
EXTRACT: control_change channel=6 control=11 value=70 time=0.00704225
EXTRACT: note_on channel=8 note=32 velocity=0 time=0
EXTRACT: note_on channel=8 note=32 velocity=123 time=0
EXTRACT: note_on channel=9 note=44 velocity=80 time=0
EXTRACT: control_change channel=11 control=11 value=104 time=0
EXTRACT: control_change channel=6 control=11 value=71 time=0.02112675
EXTRACT: control_change channel=11 control=11 value=103 time=0.00704225
EXTRACT: control_change channel=11 control=11 value=102 time=0.00704225
EXTRACT: control_change channel=6 control=11 value=72 time=0.00704225
EXTRACT: control_change channel=11 control=11 value=101 time=0
EXTRACT: control_change channel=6 control=11 value=73 time=0.02112675
EXTRACT: control_change channel=11 control=11 value=100 time=0.00704225
EXTRACT: control_change channel=6 control=11 value=74 time=0.00704225
EXTRACT: control_change channel=11 control=11 value=99 time=0.00704225
EXTRACT: control_change channel=11 control=11 value=98 time=0.00704225
EXTRACT: control_change channel=11 control=11 value=97 time=0.00704225
EXTRACT: control_change channel=6 control=11 value=75 time=0.00704225
EXTRACT: note_on channel=9 note=44 velocity=0 time=0
EXTRACT: control_change channel=6 control=11 value=76 time=0.0140845
EXTRACT: control_change channel=11 control=11 value=96 time=0.00704225
EXTRACT: control_change channel=6 control=11 value=77 time=0.00704225
EXTRACT: control_change channel=11 control=11 value=94 time=0
EXTRACT: control_change channel=6 control=11 value=78 time=0.02112675
EXTRACT: control_change channel=11 control=11 value=93 time=0
EXTRACT: note_on channel=1 note=52 velocity=0 time=0.00704225
EXTRACT: note_on channel=1 note=56 velocity=0 time=0.00704225
EXTRACT: control_change channel=11 control=11 value=92 time=0
EXTRACT: control_change channel=6 control=11 value=79 time=0.00704225
EXTRACT: control_change channel=11 control=11 value=90 time=0
EXTRACT: note_on channel=1 note=61 velocity=0 time=0.02112675
EXTRACT: control_change channel=6 control=11 value=80 time=0
EXTRACT: control_change channel=11 control=11 value=89 time=0
EXTRACT: control_change channel=11 control=11 value=88 time=0.00704225
EXTRACT: control_change channel=6 control=11 value=81 time=0.00704225
EXTRACT: note_on channel=9 note=82 velocity=35 time=0
EXTRACT: control_change channel=11 control=11 value=87 time=0.00704225
EXTRACT: control_change channel=11 control=11 value=86 time=0.00704225
EXTRACT: control_change channel=6 control=11 value=82 time=0.0140845
EXTRACT: control_change channel=11 control=11 value=85 time=0
EXTRACT: control_change channel=6 control=11 value=83 time=0.0140845
EXTRACT: control_change channel=11 control=11 value=84 time=0
EXTRACT: control_change channel=11 control=11 value=83 time=0.00704225
EXTRACT: control_change channel=11 control=11 value=84 time=0.00704225
EXTRACT: control_change channel=6 control=11 value=84 time=0.00704225
EXTRACT: control_change channel=11 control=11 value=85 time=0.00704225
EXTRACT: control_change channel=11 control=11 value=86 time=0.00704225
EXTRACT: control_change channel=6 control=11 value=85 time=0.00704225
EXTRACT: note_on channel=1 note=56 velocity=80 time=0.00704225
EXTRACT: note_on channel=1 note=61 velocity=80 time=0
EXTRACT: control_change channel=6 control=11 value=86 time=0.0140845
EXTRACT: note_on channel=9 note=82 velocity=0 time=0
EXTRACT: control_change channel=6 control=11 value=87 time=0.0140845
EXTRACT: note_on channel=1 note=64 velocity=80 time=0.00704225
EXTRACT: note_on channel=1 note=68 velocity=80 time=0.00704225
EXTRACT: control_change channel=6 control=11 value=88 time=0.0140845
EXTRACT: control_change channel=6 control=11 value=89 time=0.0140845
EXTRACT: control_change channel=11 control=11 value=85 time=0
EXTRACT: control_change channel=6 control=11 value=90 time=0.0140845
EXTRACT: control_change channel=11 control=11 value=84 time=0.00704225
EXTRACT: control_change channel=6 control=11 value=91 time=0.0140845
EXTRACT: control_change channel=11 control=11 value=110 time=0
EXTRACT: control_change channel=11 control=11 value=118 time=0.00704225
EXTRACT: note_on channel=8 note=32 velocity=0 time=0.00704225
EXTRACT: note_on channel=8 note=37 velocity=123 time=0
EXTRACT: note_on channel=9 note=44 velocity=80 time=0
EXTRACT: note_on channel=9 note=33 velocity=127 time=0
EXTRACT: note_on channel=11 note=59 velocity=0 time=0
EXTRACT: control_change channel=11 control=11 value=126 time=0
EXTRACT: note_on channel=11 note=59 velocity=127 time=0
EXTRACT: control_change channel=6 control=11 value=92 time=0.00704225
EXTRACT: control_change channel=11 control=11 value=125 time=0
EXTRACT: control_change channel=6 control=11 value=93 time=0.02112675
EXTRACT: control_change channel=11 control=11 value=124 time=0
EXTRACT: control_change channel=11 control=11 value=123 time=0.00704225
EXTRACT: control_change channel=6 control=11 value=94 time=0.00704225
EXTRACT: control_change channel=11 control=11 value=120 time=0
EXTRACT: control_change channel=11 control=11 value=119 time=0.00704225
EXTRACT: control_change channel=11 control=11 value=118 time=0.00704225
EXTRACT: control_change channel=6 control=11 value=95 time=0.0140845
EXTRACT: control_change channel=11 control=11 value=116 time=0
EXTRACT: control_change channel=11 control=11 value=112 time=0.00704225
EXTRACT: control_change channel=6 control=11 value=96 time=0.00704225
EXTRACT: control_change channel=11 control=11 value=109 time=0
EXTRACT: control_change channel=11 control=11 value=107 time=0.0140845
EXTRACT: control_change channel=6 control=11 value=97 time=0.00704225
EXTRACT: note_on channel=9 note=33 velocity=0 time=0
EXTRACT: note_on channel=9 note=44 velocity=0 time=0
EXTRACT: control_change channel=11 control=11 value=105 time=0.00704225
EXTRACT: control_change channel=11 control=11 value=104 time=0.00704225
EXTRACT: control_change channel=6 control=11 value=98 time=0.00704225
EXTRACT: control_change channel=11 control=11 value=103 time=0.00704225
EXTRACT: control_change channel=11 control=11 value=101 time=0.00704225
EXTRACT: control_change channel=6 control=11 value=99 time=0.00704225
EXTRACT: control_change channel=11 control=11 value=100 time=0.00704225
EXTRACT: control_change channel=6 control=11 value=100 time=0.00704225
EXTRACT: control_change channel=11 control=11 value=99 time=0.00704225
EXTRACT: control_change channel=11 control=11 value=97 time=0.0140845
EXTRACT: control_change channel=6 control=11 value=101 time=0.00704225
EXTRACT: control_change channel=6 control=11 value=102 time=0.0140845
EXTRACT: note_on channel=9 note=82 velocity=35 time=0.00704225
EXTRACT: control_change channel=6 control=11 value=103 time=0.00704225
EXTRACT: control_change channel=6 control=11 value=104 time=0.02112675
EXTRACT: control_change channel=11 control=11 value=95 time=0
EXTRACT: control_change channel=6 control=11 value=105 time=0.02112675
EXTRACT: control_change channel=6 control=11 value=106 time=0.02112675
EXTRACT: control_change channel=11 control=11 value=93 time=0.00704225
EXTRACT: control_change channel=6 control=11 value=107 time=0.00704225
EXTRACT: note_on channel=9 note=82 velocity=0 time=0.02112675
EXTRACT: control_change channel=6 control=11 value=108 time=0.00704225
EXTRACT: control_change channel=6 control=11 value=109 time=0.0140845
EXTRACT: control_change channel=11 control=11 value=91 time=0
EXTRACT: control_change channel=11 control=11 value=89 time=0.0140845
EXTRACT: control_change channel=6 control=11 value=110 time=0.00704225
EXTRACT: control_change channel=11 control=11 value=88 time=0.00704225
EXTRACT: control_change channel=6 control=11 value=111 time=0.0140845
EXTRACT: control_change channel=11 control=11 value=87 time=0
EXTRACT: control_change channel=11 control=11 value=85 time=0.00704225
EXTRACT: control_change channel=11 control=11 value=84 time=0.00704225
EXTRACT: control_change channel=6 control=11 value=112 time=0.00704225
EXTRACT: control_change channel=6 control=11 value=113 time=0.0140845
EXTRACT: note_on channel=9 note=44 velocity=80 time=0.00704225
EXTRACT: control_change channel=6 control=11 value=114 time=0.02112675
EXTRACT: control_change channel=11 control=11 value=82 time=0.00704225
EXTRACT: control_change channel=6 control=11 value=115 time=0.00704225
EXTRACT: control_change channel=6 control=11 value=116 time=0.0140845
EXTRACT: control_change channel=6 control=11 value=117 time=0.02112675
EXTRACT: control_change channel=11 control=11 value=80 time=0.00704225
EXTRACT: control_change channel=6 control=11 value=118 time=0.0140845
EXTRACT: note_on channel=9 note=44 velocity=0 time=0.0140845
EXTRACT: control_change channel=6 control=11 value=119 time=0.00704225
EXTRACT: control_change channel=6 control=11 value=120 time=0.0140845
EXTRACT: control_change channel=11 control=11 value=78 time=0
EXTRACT: control_change channel=11 control=11 value=76 time=0.0140845
EXTRACT: control_change channel=6 control=11 value=121 time=0.0140845
EXTRACT: control_change channel=6 control=11 value=122 time=0.0140845
EXTRACT: control_change channel=6 control=11 value=123 time=0.02112675
EXTRACT: control_change channel=11 control=11 value=74 time=0.00704225
EXTRACT: control_change channel=11 control=11 value=72 time=0.00704225
EXTRACT: control_change channel=6 control=11 value=124 time=0.00704225
EXTRACT: note_on channel=9 note=82 velocity=35 time=0
EXTRACT: control_change channel=11 control=11 value=71 time=0
EXTRACT: control_change channel=11 control=11 value=70 time=0.00704225
EXTRACT: control_change channel=11 control=11 value=69 time=0.00704225
EXTRACT: control_change channel=6 control=11 value=125 time=0.00704225
EXTRACT: control_change channel=11 control=11 value=68 time=0.00704225
EXTRACT: control_change channel=6 control=11 value=126 time=0.00704225
EXTRACT: control_change channel=11 control=11 value=66 time=0
EXTRACT: control_change channel=6 control=11 value=127 time=0.0140845
EXTRACT: control_change channel=11 control=11 value=64 time=0
EXTRACT: control_change channel=11 control=11 value=63 time=0.00704225
EXTRACT: control_change channel=6 control=11 value=126 time=0.02112675
EXTRACT: control_change channel=11 control=11 value=61 time=0
EXTRACT: control_change channel=6 control=11 value=125 time=0.0140845
EXTRACT: control_change channel=11 control=11 value=60 time=0
EXTRACT: control_change channel=11 control=11 value=58 time=0.00704225
EXTRACT: note_on channel=9 note=82 velocity=0 time=0.00704225
EXTRACT: control_change channel=6 control=11 value=124 time=0.00704225
EXTRACT: control_change channel=11 control=11 value=57 time=0
EXTRACT: control_change channel=6 control=11 value=123 time=0.0140845
EXTRACT: control_change channel=11 control=11 value=56 time=0
EXTRACT: control_change channel=11 control=11 value=54 time=0.00704225
EXTRACT: control_change channel=6 control=11 value=122 time=0.0140845
EXTRACT: control_change channel=11 control=11 value=53 time=0.00704225
EXTRACT: control_change channel=6 control=11 value=121 time=0.00704225
EXTRACT: control_change channel=11 control=11 value=52 time=0
EXTRACT: control_change channel=11 control=11 value=49 time=0.00704225
EXTRACT: control_change channel=6 control=11 value=120 time=0.00704225
EXTRACT: control_change channel=11 control=11 value=47 time=0.00704225
EXTRACT: control_change channel=6 control=11 value=119 time=0.0140845
EXTRACT: control_change channel=11 control=11 value=45 time=0
EXTRACT: control_change channel=11 control=11 value=44 time=0.00704225
EXTRACT: control_change channel=6 control=11 value=118 time=0.00704225
EXTRACT: note_on channel=9 note=31 velocity=127 time=0
EXTRACT: note_on channel=9 note=33 velocity=127 time=0
EXTRACT: note_on channel=9 note=44 velocity=80 time=0
EXTRACT: note_on channel=10 note=31 velocity=73 time=0
EXTRACT: note_on channel=11 note=59 velocity=0 time=0
EXTRACT: control_change channel=11 control=11 value=43 time=0
EXTRACT: control_change channel=11 control=11 value=40 time=0.00704225
EXTRACT: control_change channel=11 control=11 value=37 time=0.00704225
EXTRACT: control_change channel=6 control=11 value=117 time=0.0140845
EXTRACT: control_change channel=6 control=11 value=116 time=0.0140845
EXTRACT: control_change channel=6 control=11 value=115 time=0.02112675
EXTRACT: control_change channel=6 control=11 value=114 time=0.0140845
EXTRACT: control_change channel=6 control=11 value=113 time=0.0140845
EXTRACT: note_on channel=9 note=44 velocity=0 time=0.0140845
EXTRACT: note_on channel=9 note=33 velocity=0 time=0
EXTRACT: note_on channel=9 note=31 velocity=0 time=0
EXTRACT: note_on channel=10 note=31 velocity=0 time=0
EXTRACT: control_change channel=6 control=11 value=112 time=0.00704225
EXTRACT: control_change channel=6 control=11 value=111 time=0.0140845
EXTRACT: control_change channel=6 control=11 value=110 time=0.02112675
EXTRACT: control_change channel=6 control=11 value=109 time=0.0140845
EXTRACT: control_change channel=6 control=11 value=108 time=0.028169
EXTRACT: control_change channel=6 control=11 value=107 time=0.0140845
EXTRACT: note_on channel=9 note=82 velocity=35 time=0.00704225
EXTRACT: control_change channel=6 control=11 value=106 time=0.00704225
EXTRACT: control_change channel=6 control=11 value=105 time=0.02112675
EXTRACT: control_change channel=11 control=11 value=126 time=0.00704225
EXTRACT: control_change channel=6 control=11 value=104 time=0.00704225
EXTRACT: control_change channel=6 control=11 value=103 time=0.02112675
EXTRACT: control_change channel=6 control=11 value=102 time=0.0140845
EXTRACT: control_change channel=6 control=11 value=101 time=0.0140845
EXTRACT: note_on channel=9 note=82 velocity=0 time=0.0140845
EXTRACT: control_change channel=6 control=11 value=100 time=0.00704225
EXTRACT: control_change channel=6 control=11 value=99 time=0.02112675
EXTRACT: control_change channel=6 control=11 value=98 time=0.02112675
EXTRACT: control_change channel=6 control=11 value=97 time=0.0140845
EXTRACT: control_change channel=6 control=11 value=96 time=0.02112675
EXTRACT: control_change channel=6 control=11 value=95 time=0.0140845
EXTRACT: note_on channel=9 note=44 velocity=80 time=0.00704225
EXTRACT: control_change channel=6 control=11 value=94 time=0.00704225
EXTRACT: control_change channel=6 control=11 value=93 time=0.02112675
EXTRACT: control_change channel=6 control=11 value=92 time=0.0140845
EXTRACT: control_change channel=6 control=11 value=91 time=0.02112675
EXTRACT: control_change channel=6 control=11 value=90 time=0.02112675
EXTRACT: control_change channel=6 control=11 value=89 time=0.02112675
EXTRACT: note_on channel=9 note=44 velocity=0 time=0
EXTRACT: control_change channel=6 control=11 value=88 time=0.0140845
EXTRACT: note_on channel=1 note=61 velocity=0 time=0.0140845
EXTRACT: note_on channel=1 note=56 velocity=0 time=0
EXTRACT: control_change channel=6 control=11 value=87 time=0
EXTRACT: note_on channel=11 note=57 velocity=104 time=0.00704225
EXTRACT: control_change channel=6 control=11 value=86 time=0.0140845
EXTRACT: note_on channel=1 note=64 velocity=0 time=0.0140845
EXTRACT: control_change channel=6 control=11 value=85 time=0
EXTRACT: note_on channel=1 note=68 velocity=0 time=0.00704225
EXTRACT: control_change channel=6 control=11 value=84 time=0.0140845
EXTRACT: control_change channel=6 control=11 value=83 time=0.0140845
EXTRACT: note_on channel=9 note=82 velocity=35 time=0.00704225
EXTRACT: note_on channel=9 note=33 velocity=127 time=0
EXTRACT: control_change channel=6 control=11 value=82 time=0.00704225
EXTRACT: control_change channel=6 control=11 value=81 time=0.028169
EXTRACT: control_change channel=6 control=11 value=80 time=0.0140845
EXTRACT: control_change channel=6 control=11 value=79 time=0.02112675
EXTRACT: control_change channel=6 control=11 value=78 time=0.0140845
EXTRACT: control_change channel=6 control=11 value=77 time=0.02112675
EXTRACT: note_on channel=9 note=33 velocity=0 time=0
EXTRACT: note_on channel=9 note=82 velocity=0 time=0
EXTRACT: note_on channel=1 note=52 velocity=80 time=0.00704225
EXTRACT: control_change channel=6 control=11 value=76 time=0.00704225
EXTRACT: note_on channel=1 note=68 velocity=80 time=0.00704225
EXTRACT: control_change channel=6 control=11 value=75 time=0.00704225
EXTRACT: note_on channel=1 note=64 velocity=80 time=0.0140845
EXTRACT: control_change channel=6 control=11 value=74 time=0.00704225
EXTRACT: note_on channel=1 note=71 velocity=80 time=0.0140845
EXTRACT: control_change channel=6 control=11 value=73 time=0
EXTRACT: control_change channel=6 control=11 value=72 time=0.028169
EXTRACT: control_change channel=6 control=11 value=71 time=0.0140845
EXTRACT: note_on channel=9 note=44 velocity=80 time=0
EXTRACT: note_on channel=11 note=57 velocity=0 time=0
EXTRACT: pitchwheel channel=11 pitch=-8064 time=0
EXTRACT: note_on channel=11 note=64 velocity=127 time=0
EXTRACT: pitchwheel channel=11 pitch=-7808 time=0.0140845
EXTRACT: control_change channel=6 control=11 value=70 time=0.00704225
EXTRACT: pitchwheel channel=11 pitch=-7552 time=0
EXTRACT: control_change channel=6 control=11 value=69 time=0.0140845
EXTRACT: pitchwheel channel=11 pitch=-7040 time=0
EXTRACT: pitchwheel channel=11 pitch=-6784 time=0.00704225
EXTRACT: control_change channel=6 control=11 value=68 time=0.00704225
EXTRACT: pitchwheel channel=11 pitch=-6656 time=0
EXTRACT: pitchwheel channel=11 pitch=-6528 time=0.00704225
EXTRACT: pitchwheel channel=11 pitch=-6016 time=0.00704225
EXTRACT: control_change channel=6 control=11 value=67 time=0.00704225
EXTRACT: pitchwheel channel=11 pitch=-5632 time=0.00704225
EXTRACT: control_change channel=6 control=11 value=66 time=0.00704225
EXTRACT: pitchwheel channel=11 pitch=-5376 time=0
EXTRACT: pitchwheel channel=11 pitch=-4992 time=0.00704225
EXTRACT: pitchwheel channel=11 pitch=-4480 time=0.00704225
EXTRACT: control_change channel=6 control=11 value=65 time=0.00704225
EXTRACT: note_on channel=9 note=44 velocity=0 time=0
EXTRACT: pitchwheel channel=11 pitch=-4096 time=0
EXTRACT: control_change channel=6 control=11 value=64 time=0.0140845
EXTRACT: pitchwheel channel=11 pitch=-3712 time=0
EXTRACT: pitchwheel channel=11 pitch=-3456 time=0.00704225
EXTRACT: pitchwheel channel=11 pitch=-3072 time=0.00704225
EXTRACT: control_change channel=6 control=11 value=63 time=0.0140845
EXTRACT: pitchwheel channel=11 pitch=-2432 time=0
EXTRACT: control_change channel=6 control=11 value=62 time=0.0140845
EXTRACT: pitchwheel channel=11 pitch=-2176 time=0
EXTRACT: pitchwheel channel=11 pitch=-1664 time=0.00704225
EXTRACT: control_change channel=6 control=11 value=61 time=0.00704225
EXTRACT: pitchwheel channel=11 pitch=-1536 time=0
EXTRACT: pitchwheel channel=11 pitch=-1408 time=0.00704225
EXTRACT: pitchwheel channel=11 pitch=-1152 time=0.00704225
EXTRACT: control_change channel=6 control=11 value=60 time=0.00704225
EXTRACT: pitchwheel channel=11 pitch=-896 time=0.00704225
EXTRACT: control_change channel=6 control=11 value=59 time=0.00704225
EXTRACT: note_on channel=9 note=82 velocity=35 time=0
EXTRACT: note_on channel=9 note=33 velocity=42 time=0
EXTRACT: pitchwheel channel=11 pitch=-768 time=0.00704225
EXTRACT: pitchwheel channel=11 pitch=-512 time=0.00704225
EXTRACT: control_change channel=6 control=11 value=58 time=0.00704225
EXTRACT: pitchwheel channel=11 pitch=-384 time=0
EXTRACT: control_change channel=6 control=11 value=57 time=0.0140845
EXTRACT: pitchwheel channel=11 pitch=-256 time=0
EXTRACT: control_change channel=6 control=11 value=56 time=0.0140845
EXTRACT: pitchwheel channel=11 pitch=-128 time=0
EXTRACT: control_change channel=6 control=11 value=55 time=0.02112675
EXTRACT: note_on channel=11 note=64 velocity=0 time=0
EXTRACT: note_on channel=11 note=62 velocity=127 time=0
EXTRACT: control_change channel=6 control=11 value=54 time=0.02112675
EXTRACT: note_on channel=9 note=33 velocity=0 time=0.0140845
EXTRACT: note_on channel=9 note=82 velocity=0 time=0
EXTRACT: control_change channel=6 control=11 value=53 time=0.00704225
EXTRACT: control_change channel=6 control=11 value=52 time=0.0140845
EXTRACT: control_change channel=6 control=11 value=51 time=0.02112675
EXTRACT: control_change channel=6 control=11 value=50 time=0.0140845
EXTRACT: control_change channel=6 control=11 value=49 time=0.0140845
EXTRACT: control_change channel=6 control=11 value=48 time=0.02112675
EXTRACT: note_on channel=5 note=68 velocity=0 time=0.0140845
EXTRACT: note_on channel=5 note=73 velocity=0 time=0
EXTRACT: note_on channel=5 note=68 velocity=78 time=0
EXTRACT: note_on channel=5 note=71 velocity=78 time=0
EXTRACT: control_change channel=6 control=11 value=47 time=0
EXTRACT: note_on channel=8 note=37 velocity=0 time=0
EXTRACT: note_on channel=8 note=40 velocity=123 time=0
EXTRACT: note_on channel=9 note=33 velocity=127 time=0
EXTRACT: note_on channel=9 note=44 velocity=80 time=0
EXTRACT: control_change channel=6 control=11 value=46 time=0.02112675
EXTRACT: control_change channel=6 control=11 value=45 time=0.02112675
EXTRACT: control_change channel=6 control=11 value=44 time=0.02112675
EXTRACT: control_change channel=6 control=11 value=43 time=0.0140845
EXTRACT: control_change channel=6 control=11 value=42 time=0.0140845
EXTRACT: note_on channel=9 note=44 velocity=0 time=0.0140845
EXTRACT: note_on channel=9 note=33 velocity=0 time=0
EXTRACT: control_change channel=6 control=11 value=41 time=0.00704225
EXTRACT: control_change channel=6 control=11 value=40 time=0.0140845
EXTRACT: note_on channel=11 note=62 velocity=0 time=0.0140845
EXTRACT: note_on channel=11 note=62 velocity=127 time=0
EXTRACT: control_change channel=6 control=11 value=39 time=0.00704225
EXTRACT: control_change channel=6 control=11 value=38 time=0.0140845
EXTRACT: control_change channel=6 control=11 value=37 time=0.0140845
EXTRACT: control_change channel=6 control=11 value=36 time=0.028169
EXTRACT: note_on channel=9 note=82 velocity=35 time=0.00704225
EXTRACT: control_change channel=6 control=11 value=35 time=0.00704225
EXTRACT: control_change channel=6 control=11 value=34 time=0.02112675
EXTRACT: control_change channel=6 control=11 value=33 time=0.0140845
EXTRACT: control_change channel=6 control=11 value=32 time=0.02112675
EXTRACT: control_change channel=6 control=11 value=31 time=0.0140845
EXTRACT: control_change channel=6 control=11 value=30 time=0.0140845
EXTRACT: note_on channel=9 note=82 velocity=0 time=0.0140845
EXTRACT: control_change channel=6 control=11 value=29 time=0.00704225
EXTRACT: control_change channel=6 control=11 value=28 time=0.0140845
EXTRACT: control_change channel=6 control=11 value=27 time=0.028169
EXTRACT: control_change channel=6 control=11 value=26 time=0.0140845
EXTRACT: control_change channel=6 control=11 value=25 time=0.02112675
EXTRACT: control_change channel=6 control=11 value=24 time=0.0140845
EXTRACT: note_on channel=9 note=33 velocity=127 time=0.00704225
EXTRACT: note_on channel=9 note=31 velocity=127 time=0
EXTRACT: note_on channel=9 note=44 velocity=80 time=0
EXTRACT: note_on channel=10 note=31 velocity=73 time=0
EXTRACT: note_on channel=11 note=62 velocity=0 time=0
EXTRACT: note_on channel=11 note=62 velocity=127 time=0
EXTRACT: control_change channel=6 control=11 value=23 time=0.00704225
EXTRACT: control_change channel=6 control=11 value=22 time=0.02112675
EXTRACT: control_change channel=6 control=11 value=21 time=0.0140845
EXTRACT: control_change channel=6 control=11 value=20 time=0.02112675
EXTRACT: control_change channel=6 control=11 value=19 time=0.0140845
EXTRACT: control_change channel=6 control=11 value=18 time=0.028169
EXTRACT: note_on channel=9 note=44 velocity=0 time=0
EXTRACT: note_on channel=9 note=31 velocity=0 time=0
EXTRACT: note_on channel=9 note=33 velocity=0 time=0
EXTRACT: note_on channel=10 note=31 velocity=0 time=0
EXTRACT: control_change channel=6 control=11 value=17 time=0.0140845
EXTRACT: control_change channel=6 control=11 value=16 time=0.0140845
EXTRACT: control_change channel=6 control=11 value=15 time=0.02112675
EXTRACT: control_change channel=6 control=11 value=14 time=0.0140845
EXTRACT: control_change channel=6 control=11 value=13 time=0.02112675
EXTRACT: control_change channel=6 control=11 value=12 time=0.0140845
EXTRACT: note_on channel=9 note=82 velocity=35 time=0.00704225
EXTRACT: control_change channel=6 control=11 value=11 time=0.00704225
EXTRACT: control_change channel=6 control=11 value=10 time=0.02112675
EXTRACT: control_change channel=6 control=11 value=9 time=0.02112675
EXTRACT: control_change channel=8 control=91 value=0 time=0.00704225
EXTRACT: note_on channel=11 note=62 velocity=0 time=0
EXTRACT: control_change channel=6 control=11 value=8 time=0.0140845
EXTRACT: note_on channel=11 note=62 velocity=127 time=0
EXTRACT: control_change channel=6 control=11 value=7 time=0.0140845
EXTRACT: control_change channel=6 control=11 value=6 time=0.02112675
EXTRACT: note_on channel=9 note=82 velocity=0 time=0
EXTRACT: control_change channel=6 control=11 value=5 time=0.0140845
EXTRACT: control_change channel=6 control=11 value=4 time=0.0140845
EXTRACT: control_change channel=6 control=11 value=3 time=0.02112675
EXTRACT: control_change channel=6 control=11 value=2 time=0.0140845
EXTRACT: control_change channel=6 control=11 value=1 time=0.02112675
EXTRACT: control_change channel=6 control=11 value=0 time=0.0140845
EXTRACT: note_on channel=9 note=44 velocity=80 time=0.00704225
EXTRACT: note_on channel=9 note=44 velocity=0 time=0.10563375
EXTRACT: note_on channel=11 note=62 velocity=0 time=0.02112675
EXTRACT: control_change channel=11 control=11 value=126 time=0.0140845
EXTRACT: note_on channel=11 note=61 velocity=127 time=0
EXTRACT: control_change channel=11 control=11 value=124 time=0.00704225
EXTRACT: note_on channel=1 note=52 velocity=0 time=0.00704225
EXTRACT: control_change channel=11 control=11 value=123 time=0.00704225
EXTRACT: note_on channel=1 note=68 velocity=0 time=0.00704225
EXTRACT: control_change channel=11 control=11 value=122 time=0.0140845
EXTRACT: note_on channel=1 note=64 velocity=0 time=0.00704225
EXTRACT: control_change channel=11 control=11 value=121 time=0
EXTRACT: control_change channel=11 control=11 value=120 time=0.00704225
EXTRACT: note_on channel=1 note=71 velocity=0 time=0.0140845
EXTRACT: note_on channel=9 note=82 velocity=35 time=0
EXTRACT: control_change channel=11 control=11 value=119 time=0.00704225
EXTRACT: control_change channel=11 control=11 value=118 time=0.00704225
EXTRACT: control_change channel=11 control=11 value=117 time=0.0140845
EXTRACT: control_change channel=11 control=11 value=116 time=0.00704225
EXTRACT: control_change channel=11 control=11 value=115 time=0.02112675
EXTRACT: note_on channel=2 note=64 velocity=0 time=0.0140845
EXTRACT: control_change channel=11 control=11 value=114 time=0
EXTRACT: control_change channel=11 control=11 value=113 time=0.00704225
EXTRACT: control_change channel=11 control=11 value=112 time=0.02112675
EXTRACT: note_on channel=9 note=82 velocity=0 time=0.00704225
EXTRACT: control_change channel=11 control=11 value=111 time=0.00704225
EXTRACT: note_on channel=6 note=64 velocity=0 time=0.02112675
EXTRACT: control_change channel=11 control=11 value=110 time=0.00704225
EXTRACT: note_on channel=1 note=64 velocity=100 time=0.02112675
EXTRACT: control_change channel=11 control=11 value=109 time=0
EXTRACT: control_change channel=11 control=11 value=108 time=0.0140845
EXTRACT: control_change channel=11 control=11 value=107 time=0.02112675
EXTRACT: note_on channel=1 note=69 velocity=100 time=0.0140845
EXTRACT: note_on channel=5 note=71 velocity=0 time=0
EXTRACT: note_on channel=5 note=68 velocity=0 time=0
EXTRACT: note_on channel=5 note=64 velocity=0 time=0
EXTRACT: note_on channel=5 note=73 velocity=78 time=0
EXTRACT: note_on channel=5 note=69 velocity=78 time=0
EXTRACT: note_on channel=8 note=40 velocity=0 time=0
EXTRACT: note_on channel=8 note=33 velocity=123 time=0
EXTRACT: note_on channel=9 note=33 velocity=127 time=0
EXTRACT: note_on channel=9 note=44 velocity=80 time=0
EXTRACT: control_change channel=11 control=11 value=106 time=0.00704225
EXTRACT: control_change channel=11 control=11 value=105 time=0.02112675
EXTRACT: control_change channel=11 control=11 value=104 time=0.00704225
EXTRACT: note_on channel=11 note=61 velocity=0 time=0.02112675
EXTRACT: control_change channel=11 control=11 value=126 time=0
EXTRACT: note_on channel=11 note=61 velocity=127 time=0.0140845
EXTRACT: control_change channel=11 control=11 value=125 time=0.02112675
EXTRACT: note_on channel=9 note=44 velocity=0 time=0.0140845
EXTRACT: note_on channel=9 note=33 velocity=0 time=0
EXTRACT: control_change channel=11 control=11 value=124 time=0.02112675
EXTRACT: control_change channel=11 control=11 value=123 time=0.03521125
EXTRACT: note_on channel=9 note=82 velocity=35 time=0.04929575
EXTRACT: control_change channel=11 control=11 value=122 time=0.03521125
EXTRACT: control_change channel=11 control=11 value=121 time=0.04929575
EXTRACT: note_on channel=9 note=82 velocity=0 time=0.02112675
EXTRACT: control_change channel=11 control=11 value=120 time=0.0140845
EXTRACT: control_change channel=11 control=11 value=119 time=0.0140845
EXTRACT: control_change channel=11 control=11 value=118 time=0.00704225
EXTRACT: control_change channel=11 control=11 value=117 time=0.02112675
EXTRACT: control_change channel=11 control=11 value=116 time=0.00704225
EXTRACT: control_change channel=11 control=11 value=115 time=0.00704225
EXTRACT: note_on channel=9 note=44 velocity=80 time=0.03521125
EXTRACT: control_change channel=11 control=11 value=114 time=0.0140845
EXTRACT: control_change channel=11 control=11 value=113 time=0.0140845
EXTRACT: control_change channel=11 control=11 value=111 time=0.02112675
EXTRACT: control_change channel=11 control=11 value=109 time=0.00704225
EXTRACT: control_change channel=11 control=11 value=107 time=0.02112675
EXTRACT: control_change channel=11 control=11 value=105 time=0.0140845
EXTRACT: control_change channel=11 control=11 value=104 time=0.00704225
EXTRACT: note_on channel=9 note=44 velocity=0 time=0.00704225
EXTRACT: control_change channel=11 control=11 value=103 time=0.00704225
EXTRACT: control_change channel=11 control=11 value=101 time=0.0140845
EXTRACT: control_change channel=11 control=11 value=100 time=0.0140845
EXTRACT: control_change channel=11 control=11 value=99 time=0.0140845
EXTRACT: control_change channel=11 control=11 value=98 time=0.00704225
EXTRACT: control_change channel=11 control=11 value=104 time=0.0140845
EXTRACT: control_change channel=11 control=11 value=102 time=0.00704225
EXTRACT: note_on channel=9 note=82 velocity=35 time=0.028169
EXTRACT: note_on channel=11 note=61 velocity=0 time=0
EXTRACT: control_change channel=11 control=11 value=100 time=0.02112675
EXTRACT: control_change channel=11 control=11 value=99 time=0.00704225
EXTRACT: control_change channel=11 control=11 value=97 time=0.02112675
EXTRACT: control_change channel=11 control=11 value=95 time=0.0140845
EXTRACT: control_change channel=11 control=11 value=92 time=0.00704225
EXTRACT: control_change channel=11 control=11 value=91 time=0.00704225
EXTRACT: control_change channel=11 control=11 value=89 time=0.0140845
EXTRACT: control_change channel=11 control=11 value=87 time=0.00704225
EXTRACT: note_on channel=9 note=82 velocity=0 time=0.00704225
EXTRACT: control_change channel=11 control=11 value=85 time=0
EXTRACT: control_change channel=11 control=11 value=83 time=0.0140845
EXTRACT: control_change channel=11 control=11 value=81 time=0.0140845
EXTRACT: control_change channel=11 control=11 value=78 time=0.00704225
EXTRACT: control_change channel=11 control=11 value=76 time=0.00704225
EXTRACT: control_change channel=11 control=11 value=74 time=0.00704225
EXTRACT: control_change channel=11 control=11 value=70 time=0.00704225
EXTRACT: control_change channel=11 control=11 value=67 time=0.0140845
EXTRACT: control_change channel=11 control=11 value=66 time=0.00704225
EXTRACT: note_on channel=8 note=33 velocity=0 time=0.028169
EXTRACT: note_on channel=8 note=33 velocity=123 time=0
EXTRACT: note_on channel=9 note=44 velocity=80 time=0
EXTRACT: note_on channel=9 note=31 velocity=127 time=0
EXTRACT: note_on channel=9 note=33 velocity=127 time=0
EXTRACT: note_on channel=10 note=31 velocity=73 time=0
EXTRACT: control_change channel=11 control=11 value=127 time=0.056338
EXTRACT: note_on channel=9 note=33 velocity=0 time=0.04929575
EXTRACT: note_on channel=9 note=31 velocity=0 time=0
EXTRACT: note_on channel=9 note=44 velocity=0 time=0
EXTRACT: note_on channel=10 note=31 velocity=0 time=0
EXTRACT: note_on channel=9 note=82 velocity=35 time=0.10563375
EXTRACT: note_on channel=9 note=82 velocity=0 time=0.10563375
EXTRACT: note_on channel=6 note=64 velocity=100 time=0.0985915
EXTRACT: note_on channel=9 note=44 velocity=80 time=0.00704225
EXTRACT: note_on channel=11 note=59 velocity=127 time=0
EXTRACT: note_on channel=9 note=44 velocity=0 time=0.10563375
EXTRACT: control_change channel=6 control=1 value=72 time=0.0140845
EXTRACT: note_on channel=8 note=33 velocity=0 time=0.09154925
EXTRACT: note_on channel=8 note=33 velocity=123 time=0
EXTRACT: note_on channel=9 note=33 velocity=127 time=0
EXTRACT: note_on channel=9 note=82 velocity=35 time=0
EXTRACT: note_on channel=11 note=59 velocity=0 time=0.0704225
EXTRACT: note_on channel=11 note=61 velocity=127 time=0
EXTRACT: note_on channel=1 note=61 velocity=77 time=0.02112675
EXTRACT: note_on channel=9 note=82 velocity=0 time=0.0140845
EXTRACT: note_on channel=9 note=33 velocity=0 time=0
EXTRACT: control_change channel=6 control=11 value=2 time=0.056338
EXTRACT: control_change channel=6 control=11 value=3 time=0.00704225
EXTRACT: control_change channel=6 control=11 value=4 time=0.028169
EXTRACT: control_change channel=6 control=11 value=5 time=0.0140845
EXTRACT: note_on channel=8 note=33 velocity=0 time=0
EXTRACT: note_on channel=8 note=30 velocity=123 time=0
EXTRACT: note_on channel=9 note=44 velocity=80 time=0
EXTRACT: control_change channel=6 control=11 value=6 time=0.02112675
EXTRACT: control_change channel=6 control=11 value=7 time=0.02112675
EXTRACT: control_change channel=6 control=11 value=8 time=0.02112675
EXTRACT: control_change channel=6 control=11 value=9 time=0.0140845
EXTRACT: control_change channel=6 control=11 value=10 time=0.028169
EXTRACT: note_on channel=9 note=44 velocity=0 time=0
EXTRACT: control_change channel=6 control=11 value=11 time=0.0140845
EXTRACT: control_change channel=6 control=11 value=12 time=0.0140845
EXTRACT: control_change channel=6 control=11 value=13 time=0.028169
EXTRACT: control_change channel=6 control=11 value=14 time=0.0140845
EXTRACT: control_change channel=6 control=11 value=15 time=0.02112675
EXTRACT: control_change channel=6 control=11 value=16 time=0.0140845
EXTRACT: note_on channel=9 note=82 velocity=35 time=0
EXTRACT: note_on channel=9 note=33 velocity=49 time=0
EXTRACT: control_change channel=6 control=11 value=17 time=0.028169
EXTRACT: control_change channel=6 control=11 value=18 time=0.0140845
EXTRACT: control_change channel=6 control=11 value=19 time=0.02112675
EXTRACT: note_on channel=11 note=61 velocity=0 time=0.00704225
EXTRACT: control_change channel=11 control=11 value=127 time=0
EXTRACT: note_on channel=11 note=61 velocity=126 time=0
EXTRACT: control_change channel=11 control=11 value=126 time=0.00704225
EXTRACT: control_change channel=6 control=11 value=20 time=0.00704225
EXTRACT: control_change channel=11 control=11 value=125 time=0.00704225
EXTRACT: control_change channel=11 control=11 value=124 time=0.00704225
EXTRACT: control_change channel=6 control=11 value=21 time=0.00704225
EXTRACT: note_on channel=9 note=33 velocity=0 time=0
EXTRACT: note_on channel=9 note=82 velocity=0 time=0
EXTRACT: control_change channel=11 control=11 value=123 time=0.00704225
EXTRACT: control_change channel=6 control=11 value=22 time=0.00704225
EXTRACT: control_change channel=11 control=11 value=122 time=0.0140845
EXTRACT: control_change channel=11 control=11 value=121 time=0.00704225
EXTRACT: control_change channel=6 control=11 value=23 time=0.00704225
EXTRACT: control_change channel=6 control=11 value=24 time=0.0140845
EXTRACT: control_change channel=6 control=11 value=25 time=0.0140845
EXTRACT: control_change channel=11 control=11 value=120 time=0.0140845
EXTRACT: control_change channel=6 control=11 value=26 time=0.0140845
EXTRACT: note_on channel=9 note=44 velocity=80 time=0.00704225
EXTRACT: note_on channel=9 note=33 velocity=127 time=0
EXTRACT: control_change channel=6 control=11 value=27 time=0.00704225
EXTRACT: control_change channel=6 control=11 value=28 time=0.02112675
EXTRACT: control_change channel=11 control=11 value=119 time=0
EXTRACT: control_change channel=6 control=11 value=29 time=0.0140845
EXTRACT: control_change channel=6 control=11 value=30 time=0.028169
EXTRACT: control_change channel=6 control=11 value=31 time=0.0140845
EXTRACT: control_change channel=11 control=11 value=117 time=0.0140845
EXTRACT: control_change channel=6 control=11 value=32 time=0.00704225
EXTRACT: note_on channel=9 note=33 velocity=0 time=0
EXTRACT: note_on channel=9 note=44 velocity=0 time=0
EXTRACT: control_change channel=6 control=11 value=33 time=0.02112675
EXTRACT: control_change channel=6 control=11 value=34 time=0.02112675
EXTRACT: control_change channel=11 control=11 value=116 time=0
EXTRACT: control_change channel=6 control=11 value=35 time=0.0140845
EXTRACT: control_change channel=11 control=11 value=115 time=0
EXTRACT: control_change channel=6 control=11 value=36 time=0.028169
EXTRACT: control_change channel=6 control=11 value=37 time=0.0140845
EXTRACT: note_on channel=9 note=82 velocity=35 time=0.00704225
EXTRACT: control_change channel=6 control=11 value=38 time=0.00704225
EXTRACT: control_change channel=11 control=11 value=114 time=0.00704225
EXTRACT: control_change channel=11 control=11 value=112 time=0.0140845
EXTRACT: control_change channel=6 control=11 value=39 time=0.00704225
EXTRACT: control_change channel=6 control=11 value=40 time=0.0140845
EXTRACT: control_change channel=6 control=11 value=41 time=0.02112675
EXTRACT: control_change channel=6 control=11 value=42 time=0.0140845
EXTRACT: control_change channel=11 control=11 value=104 time=0.0140845
EXTRACT: note_on channel=9 note=82 velocity=0 time=0.00704225
EXTRACT: control_change channel=6 control=11 value=43 time=0.00704225
EXTRACT: control_change channel=6 control=11 value=44 time=0.0140845
EXTRACT: control_change channel=6 control=11 value=45 time=0.02112675
EXTRACT: control_change channel=11 control=11 value=103 time=0
EXTRACT: control_change channel=6 control=94 value=56 time=0.0140845
EXTRACT: control_change channel=6 control=11 value=46 time=0.00704225
EXTRACT: control_change channel=6 control=11 value=47 time=0.02112675
EXTRACT: control_change channel=6 control=11 value=48 time=0.0140845
EXTRACT: note_on channel=8 note=30 velocity=0 time=0.00704225
EXTRACT: note_on channel=8 note=30 velocity=123 time=0
EXTRACT: note_on channel=9 note=33 velocity=127 time=0
EXTRACT: note_on channel=9 note=31 velocity=127 time=0
EXTRACT: note_on channel=9 note=44 velocity=80 time=0
EXTRACT: note_on channel=10 note=31 velocity=73 time=0
EXTRACT: control_change channel=11 control=11 value=100 time=0.00704225
EXTRACT: control_change channel=6 control=11 value=49 time=0.0140845
EXTRACT: control_change channel=11 control=11 value=99 time=0
EXTRACT: control_change channel=6 control=11 value=50 time=0.0140845
EXTRACT: control_change channel=11 control=11 value=97 time=0
EXTRACT: control_change channel=6 control=11 value=51 time=0.0140845
EXTRACT: control_change channel=11 control=11 value=96 time=0.00704225
EXTRACT: control_change channel=11 control=11 value=95 time=0.0140845
EXTRACT: control_change channel=6 control=11 value=52 time=0.00704225
EXTRACT: control_change channel=11 control=11 value=93 time=0
EXTRACT: control_change channel=6 control=11 value=53 time=0.0140845
EXTRACT: control_change channel=11 control=11 value=92 time=0.00704225
EXTRACT: note_on channel=9 note=44 velocity=0 time=0.00704225
EXTRACT: note_on channel=9 note=31 velocity=0 time=0
EXTRACT: note_on channel=9 note=33 velocity=0 time=0
EXTRACT: note_on channel=10 note=31 velocity=0 time=0
EXTRACT: control_change channel=11 control=11 value=91 time=0
EXTRACT: control_change channel=6 control=11 value=54 time=0.00704225
EXTRACT: control_change channel=11 control=11 value=90 time=0.00704225
EXTRACT: control_change channel=6 control=11 value=55 time=0.00704225
EXTRACT: control_change channel=11 control=11 value=89 time=0.00704225
EXTRACT: control_change channel=11 control=11 value=88 time=0.00704225
EXTRACT: control_change channel=11 control=11 value=87 time=0.00704225
EXTRACT: control_change channel=6 control=11 value=56 time=0.00704225
EXTRACT: control_change channel=6 control=11 value=57 time=0.0140845
EXTRACT: control_change channel=11 control=11 value=86 time=0.00704225
EXTRACT: control_change channel=11 control=11 value=85 time=0.00704225
EXTRACT: control_change channel=6 control=11 value=58 time=0.00704225
EXTRACT: control_change channel=11 control=11 value=84 time=0.0140845
EXTRACT: control_change channel=6 control=11 value=59 time=0.00704225
EXTRACT: note_on channel=9 note=82 velocity=35 time=0
EXTRACT: control_change channel=6 control=11 value=60 time=0.02112675
EXTRACT: control_change channel=11 control=11 value=83 time=0.00704225
EXTRACT: control_change channel=6 control=11 value=61 time=0.00704225
EXTRACT: control_change channel=6 control=11 value=62 time=0.028169
EXTRACT: control_change channel=11 control=11 value=126 time=0
EXTRACT: note_on channel=11 note=61 velocity=0 time=0.00704225
EXTRACT: note_on channel=11 note=57 velocity=127 time=0
EXTRACT: control_change channel=6 control=11 value=63 time=0.00704225
EXTRACT: control_change channel=6 control=11 value=64 time=0.0140845
EXTRACT: control_change channel=11 control=11 value=122 time=0
EXTRACT: note_on channel=9 note=82 velocity=0 time=0.0140845
EXTRACT: control_change channel=6 control=11 value=65 time=0.00704225
EXTRACT: control_change channel=11 control=11 value=120 time=0
EXTRACT: control_change channel=11 control=11 value=119 time=0.00704225
EXTRACT: control_change channel=6 control=11 value=66 time=0.0140845
EXTRACT: control_change channel=11 control=11 value=116 time=0
EXTRACT: control_change channel=11 control=11 value=115 time=0.0140845
EXTRACT: control_change channel=6 control=11 value=67 time=0.00704225
EXTRACT: control_change channel=11 control=11 value=114 time=0
EXTRACT: control_change channel=6 control=11 value=68 time=0.0140845
EXTRACT: control_change channel=6 control=11 value=69 time=0.028169
EXTRACT: control_change channel=11 control=11 value=112 time=0.00704225
EXTRACT: control_change channel=6 control=11 value=70 time=0.00704225
EXTRACT: note_on channel=8 note=30 velocity=0 time=0
EXTRACT: note_on channel=8 note=30 velocity=123 time=0
EXTRACT: note_on channel=9 note=44 velocity=80 time=0
EXTRACT: control_change channel=11 control=11 value=111 time=0.00704225
EXTRACT: control_change channel=6 control=11 value=71 time=0.0140845
EXTRACT: control_change channel=6 control=11 value=72 time=0.02112675
EXTRACT: control_change channel=6 control=11 value=73 time=0.02112675
EXTRACT: pitchwheel channel=11 pitch=0 time=0
EXTRACT: control_change channel=11 control=11 value=107 time=0.00704225
EXTRACT: control_change channel=6 control=11 value=74 time=0.00704225
EXTRACT: pitchwheel channel=11 pitch=-128 time=0.00704225
EXTRACT: pitchwheel channel=11 pitch=-256 time=0.00704225
EXTRACT: control_change channel=11 control=11 value=106 time=0
EXTRACT: pitchwheel channel=11 pitch=-384 time=0.00704225
EXTRACT: control_change channel=6 control=11 value=75 time=0.00704225
EXTRACT: note_on channel=9 note=44 velocity=0 time=0
EXTRACT: pitchwheel channel=11 pitch=-640 time=0
EXTRACT: control_change channel=11 control=11 value=104 time=0
EXTRACT: control_change channel=6 control=11 value=76 time=0.0140845
EXTRACT: pitchwheel channel=11 pitch=-768 time=0
EXTRACT: control_change channel=11 control=11 value=103 time=0
EXTRACT: pitchwheel channel=11 pitch=-896 time=0.00704225
EXTRACT: control_change channel=6 control=11 value=77 time=0.00704225
EXTRACT: pitchwheel channel=11 pitch=-1152 time=0
EXTRACT: pitchwheel channel=11 pitch=-1280 time=0.00704225
EXTRACT: pitchwheel channel=11 pitch=-1408 time=0.00704225
EXTRACT: control_change channel=11 control=11 value=101 time=0
EXTRACT: control_change channel=6 control=11 value=78 time=0.00704225
EXTRACT: control_change channel=11 control=11 value=100 time=0
EXTRACT: pitchwheel channel=11 pitch=-1664 time=0.00704225
EXTRACT: control_change channel=11 control=11 value=99 time=0
EXTRACT: pitchwheel channel=11 pitch=-2304 time=0.00704225
EXTRACT: control_change channel=6 control=11 value=79 time=0.00704225
EXTRACT: pitchwheel channel=11 pitch=-2688 time=0
EXTRACT: pitchwheel channel=11 pitch=-2944 time=0.00704225
EXTRACT: pitchwheel channel=11 pitch=-3200 time=0.00704225
EXTRACT: control_change channel=11 control=11 value=98 time=0
EXTRACT: control_change channel=6 control=11 value=80 time=0.00704225
EXTRACT: control_change channel=11 control=11 value=96 time=0
EXTRACT: pitchwheel channel=11 pitch=-3456 time=0.00704225
EXTRACT: control_change channel=11 control=11 value=95 time=0
EXTRACT: control_change channel=6 control=11 value=81 time=0.00704225
EXTRACT: note_on channel=9 note=82 velocity=35 time=0
EXTRACT: pitchwheel channel=11 pitch=-3840 time=0
EXTRACT: pitchwheel channel=11 pitch=-3968 time=0.00704225
EXTRACT: pitchwheel channel=11 pitch=-4224 time=0.00704225
EXTRACT: control_change channel=11 control=11 value=94 time=0.00704225
EXTRACT: control_change channel=6 control=11 value=82 time=0.00704225
EXTRACT: control_change channel=11 control=11 value=89 time=0.00704225
EXTRACT: control_change channel=6 control=11 value=83 time=0.00704225
EXTRACT: control_change channel=11 control=11 value=86 time=0.00704225
EXTRACT: control_change channel=11 control=11 value=84 time=0.00704225
EXTRACT: control_change channel=6 control=11 value=84 time=0.00704225
EXTRACT: control_change channel=11 control=11 value=80 time=0.00704225
EXTRACT: control_change channel=6 control=11 value=85 time=0.0140845
EXTRACT: control_change channel=11 control=11 value=78 time=0.00704225
EXTRACT: control_change channel=6 control=11 value=86 time=0.0140845
EXTRACT: note_on channel=9 note=82 velocity=0 time=0
EXTRACT: control_change channel=11 control=11 value=68 time=0.00704225
EXTRACT: control_change channel=6 control=11 value=87 time=0.00704225
EXTRACT: control_change channel=11 control=11 value=60 time=0.02112675
EXTRACT: control_change channel=6 control=11 value=88 time=0.00704225
EXTRACT: note_on channel=1 note=64 velocity=0 time=0.00704225
EXTRACT: control_change channel=11 control=11 value=58 time=0
EXTRACT: note_on channel=1 note=68 velocity=70 time=0.00704225
EXTRACT: control_change channel=6 control=11 value=89 time=0
EXTRACT: control_change channel=11 control=11 value=51 time=0
EXTRACT: control_change channel=6 control=11 value=90 time=0.0140845
EXTRACT: control_change channel=11 control=11 value=49 time=0
EXTRACT: note_on channel=1 note=61 velocity=0 time=0.00704225
EXTRACT: control_change channel=11 control=11 value=47 time=0
EXTRACT: control_change channel=11 control=11 value=44 time=0.00704225
EXTRACT: note_on channel=1 note=64 velocity=77 time=0.00704225
EXTRACT: control_change channel=6 control=11 value=91 time=0
EXTRACT: control_change channel=11 control=11 value=39 time=0
EXTRACT: note_on channel=1 note=69 velocity=0 time=0.00704225
EXTRACT: control_change channel=11 control=11 value=37 time=0
EXTRACT: note_on channel=5 note=69 velocity=0 time=0.00704225
EXTRACT: note_on channel=5 note=68 velocity=78 time=0
EXTRACT: note_on channel=7 note=37 velocity=53 time=0
EXTRACT: note_on channel=8 note=30 velocity=0 time=0
EXTRACT: note_on channel=8 note=37 velocity=123 time=0
EXTRACT: note_on channel=9 note=33 velocity=127 time=0
EXTRACT: note_on channel=9 note=44 velocity=80 time=0
EXTRACT: note_on channel=11 note=57 velocity=0 time=0
EXTRACT: note_on channel=11 note=57 velocity=127 time=0
EXTRACT: control_change channel=6 control=11 value=92 time=0.00704225
EXTRACT: control_change channel=11 control=11 value=35 time=0
EXTRACT: control_change channel=11 control=11 value=34 time=0.00704225
EXTRACT: control_change channel=11 control=11 value=39 time=0.00704225
EXTRACT: control_change channel=6 control=11 value=93 time=0.00704225
EXTRACT: control_change channel=11 control=11 value=42 time=0
EXTRACT: control_change channel=6 control=11 value=94 time=0.0140845
EXTRACT: control_change channel=11 control=11 value=46 time=0.00704225
EXTRACT: control_change channel=11 control=11 value=50 time=0.0140845
EXTRACT: control_change channel=6 control=11 value=95 time=0.00704225
EXTRACT: control_change channel=11 control=11 value=52 time=0
EXTRACT: control_change channel=6 control=11 value=96 time=0.0140845
EXTRACT: control_change channel=11 control=11 value=58 time=0.00704225
EXTRACT: control_change channel=6 control=11 value=97 time=0.0140845
EXTRACT: note_on channel=9 note=44 velocity=0 time=0
EXTRACT: note_on channel=9 note=33 velocity=0 time=0
EXTRACT: control_change channel=11 control=11 value=64 time=0
EXTRACT: control_change channel=11 control=11 value=70 time=0.0140845
EXTRACT: control_change channel=6 control=11 value=98 time=0.00704225
EXTRACT: control_change channel=11 control=11 value=72 time=0.00704225
EXTRACT: control_change channel=11 control=11 value=78 time=0.00704225
EXTRACT: control_change channel=6 control=11 value=99 time=0.00704225
EXTRACT: control_change channel=6 control=11 value=100 time=0.0140845
EXTRACT: control_change channel=11 control=11 value=82 time=0
EXTRACT: control_change channel=6 control=11 value=101 time=0.028169
EXTRACT: control_change channel=11 control=11 value=85 time=0
EXTRACT: control_change channel=11 control=11 value=87 time=0.00704225
EXTRACT: control_change channel=6 control=11 value=102 time=0.00704225
EXTRACT: control_change channel=11 control=11 value=88 time=0
EXTRACT: note_on channel=9 note=82 velocity=35 time=0.00704225
EXTRACT: control_change channel=6 control=11 value=103 time=0.00704225
EXTRACT: control_change channel=11 control=11 value=90 time=0
EXTRACT: control_change channel=11 control=11 value=93 time=0.0140845
EXTRACT: control_change channel=6 control=11 value=104 time=0.00704225
EXTRACT: control_change channel=6 control=11 value=105 time=0.02112675
EXTRACT: control_change channel=11 control=11 value=96 time=0
EXTRACT: control_change channel=11 control=11 value=103 time=0.00704225
EXTRACT: control_change channel=6 control=11 value=106 time=0.0140845
EXTRACT: control_change channel=11 control=11 value=107 time=0.00704225
EXTRACT: control_change channel=6 control=11 value=107 time=0.00704225
EXTRACT: control_change channel=11 control=11 value=109 time=0.00704225
EXTRACT: control_change channel=11 control=11 value=112 time=0.00704225
EXTRACT: note_on channel=9 note=82 velocity=0 time=0.00704225
EXTRACT: control_change channel=11 control=11 value=113 time=0
EXTRACT: control_change channel=6 control=11 value=108 time=0.00704225
EXTRACT: control_change channel=11 control=11 value=114 time=0
EXTRACT: control_change channel=11 control=11 value=115 time=0.00704225
EXTRACT: control_change channel=6 control=11 value=109 time=0.00704225
EXTRACT: control_change channel=11 control=11 value=117 time=0.0140845
EXTRACT: control_change channel=6 control=11 value=110 time=0.00704225
EXTRACT: control_change channel=11 control=11 value=119 time=0
EXTRACT: control_change channel=11 control=11 value=120 time=0.00704225
EXTRACT: control_change channel=11 control=11 value=121 time=0.00704225
EXTRACT: control_change channel=6 control=11 value=111 time=0.00704225
EXTRACT: control_change channel=11 control=11 value=123 time=0.0140845
EXTRACT: control_change channel=6 control=11 value=112 time=0.00704225
EXTRACT: control_change channel=11 control=11 value=125 time=0
EXTRACT: control_change channel=6 control=11 value=113 time=0.0140845
EXTRACT: note_on channel=9 note=44 velocity=80 time=0.00704225
EXTRACT: control_change channel=6 control=11 value=114 time=0.02112675
EXTRACT: control_change channel=11 control=11 value=124 time=0
EXTRACT: control_change channel=6 control=11 value=115 time=0.0140845
EXTRACT: control_change channel=11 control=11 value=123 time=0.00704225
EXTRACT: control_change channel=6 control=11 value=116 time=0.00704225
EXTRACT: control_change channel=11 control=11 value=122 time=0.00704225
EXTRACT: control_change channel=11 control=11 value=121 time=0.00704225
EXTRACT: control_change channel=6 control=11 value=117 time=0.00704225
EXTRACT: control_change channel=6 control=11 value=118 time=0.02112675
EXTRACT: control_change channel=11 control=11 value=120 time=0
EXTRACT: note_on channel=9 note=44 velocity=0 time=0.0140845
EXTRACT: control_change channel=6 control=11 value=119 time=0.00704225
EXTRACT: control_change channel=6 control=11 value=120 time=0.0140845
EXTRACT: control_change channel=11 control=11 value=119 time=0
EXTRACT: control_change channel=11 control=11 value=118 time=0.0140845
EXTRACT: control_change channel=6 control=11 value=121 time=0.0140845
EXTRACT: control_change channel=6 control=11 value=122 time=0.0140845
EXTRACT: control_change channel=11 control=11 value=117 time=0.00704225
EXTRACT: control_change channel=6 control=11 value=123 time=0.0140845
EXTRACT: control_change channel=11 control=11 value=116 time=0.0140845
EXTRACT: control_change channel=6 control=11 value=124 time=0.00704225
EXTRACT: note_on channel=9 note=82 velocity=35 time=0
EXTRACT: control_change channel=11 control=11 value=114 time=0.00704225
EXTRACT: control_change channel=11 control=11 value=113 time=0.00704225
EXTRACT: control_change channel=6 control=11 value=125 time=0.00704225
EXTRACT: control_change channel=6 control=11 value=126 time=0.0140845
EXTRACT: control_change channel=11 control=11 value=112 time=0
EXTRACT: control_change channel=6 control=11 value=127 time=0.0140845
EXTRACT: control_change channel=11 control=11 value=110 time=0
EXTRACT: control_change channel=6 control=11 value=126 time=0.028169
EXTRACT: control_change channel=11 control=11 value=109 time=0
EXTRACT: control_change channel=11 control=11 value=108 time=0.00704225
EXTRACT: control_change channel=6 control=11 value=125 time=0.00704225
EXTRACT: control_change channel=11 control=11 value=107 time=0.00704225
EXTRACT: note_on channel=9 note=82 velocity=0 time=0.00704225
EXTRACT: control_change channel=11 control=11 value=106 time=0
EXTRACT: control_change channel=6 control=11 value=124 time=0.00704225
EXTRACT: control_change channel=6 control=11 value=123 time=0.0140845
EXTRACT: control_change channel=11 control=11 value=105 time=0
EXTRACT: control_change channel=6 control=11 value=122 time=0.02112675
EXTRACT: control_change channel=11 control=11 value=103 time=0
EXTRACT: control_change channel=6 control=11 value=121 time=0.0140845
EXTRACT: control_change channel=11 control=11 value=102 time=0.00704225
EXTRACT: control_change channel=6 control=11 value=120 time=0.00704225
EXTRACT: control_change channel=11 control=11 value=101 time=0.00704225
EXTRACT: control_change channel=6 control=11 value=119 time=0.0140845
EXTRACT: control_change channel=6 control=11 value=118 time=0.0140845
EXTRACT: note_on channel=8 note=37 velocity=0 time=0
EXTRACT: note_on channel=8 note=37 velocity=123 time=0
EXTRACT: note_on channel=9 note=44 velocity=80 time=0
EXTRACT: note_on channel=9 note=33 velocity=127 time=0
EXTRACT: note_on channel=9 note=31 velocity=127 time=0
EXTRACT: note_on channel=10 note=31 velocity=73 time=0
EXTRACT: control_change channel=11 control=11 value=100 time=0
EXTRACT: control_change channel=11 control=11 value=99 time=0.00704225
EXTRACT: control_change channel=11 control=11 value=98 time=0.00704225
EXTRACT: control_change channel=6 control=11 value=117 time=0.0140845
EXTRACT: control_change channel=11 control=11 value=97 time=0.00704225
EXTRACT: control_change channel=6 control=11 value=116 time=0.00704225
EXTRACT: control_change channel=11 control=11 value=96 time=0.00704225
EXTRACT: control_change channel=6 control=11 value=115 time=0.0140845
EXTRACT: control_change channel=11 control=11 value=95 time=0
EXTRACT: control_change channel=6 control=11 value=114 time=0.0140845
EXTRACT: control_change channel=11 control=11 value=94 time=0.00704225
EXTRACT: control_change channel=6 control=11 value=113 time=0.00704225
EXTRACT: control_change channel=11 control=11 value=93 time=0.00704225
EXTRACT: note_on channel=9 note=31 velocity=0 time=0.00704225
EXTRACT: note_on channel=9 note=33 velocity=0 time=0
EXTRACT: note_on channel=9 note=44 velocity=0 time=0
EXTRACT: note_on channel=10 note=31 velocity=0 time=0
EXTRACT: control_change channel=6 control=11 value=112 time=0.00704225
EXTRACT: control_change channel=11 control=11 value=92 time=0.00704225
EXTRACT: control_change channel=6 control=11 value=111 time=0.00704225
EXTRACT: control_change channel=11 control=11 value=91 time=0.00704225
EXTRACT: control_change channel=11 control=11 value=90 time=0.00704225
EXTRACT: control_change channel=6 control=11 value=110 time=0.00704225
EXTRACT: control_change channel=11 control=11 value=89 time=0
EXTRACT: control_change channel=6 control=11 value=109 time=0.0140845
EXTRACT: control_change channel=11 control=11 value=87 time=0.0140845
EXTRACT: control_change channel=11 control=11 value=86 time=0.00704225
EXTRACT: control_change channel=6 control=11 value=108 time=0.00704225
EXTRACT: control_change channel=6 control=11 value=107 time=0.0140845
EXTRACT: note_on channel=9 note=82 velocity=35 time=0.00704225
EXTRACT: control_change channel=11 control=11 value=85 time=0
EXTRACT: control_change channel=6 control=11 value=106 time=0.00704225
EXTRACT: control_change channel=11 control=11 value=84 time=0
EXTRACT: control_change channel=6 control=11 value=105 time=0.02112675
EXTRACT: control_change channel=11 control=11 value=82 time=0.00704225
EXTRACT: control_change channel=6 control=11 value=104 time=0.00704225
EXTRACT: control_change channel=11 control=11 value=81 time=0.00704225
EXTRACT: control_change channel=6 control=11 value=103 time=0.0140845
EXTRACT: control_change channel=11 control=11 value=80 time=0
EXTRACT: control_change channel=6 control=11 value=102 time=0.0140845
EXTRACT: control_change channel=11 control=11 value=78 time=0
EXTRACT: control_change channel=11 control=11 value=77 time=0.00704225
EXTRACT: control_change channel=6 control=11 value=101 time=0.00704225
EXTRACT: control_change channel=11 control=11 value=75 time=0.00704225
EXTRACT: note_on channel=9 note=82 velocity=0 time=0.00704225
EXTRACT: control_change channel=11 control=11 value=74 time=0
EXTRACT: control_change channel=6 control=11 value=100 time=0.00704225
EXTRACT: control_change channel=11 control=11 value=73 time=0.00704225
EXTRACT: control_change channel=11 control=11 value=72 time=0.00704225
EXTRACT: control_change channel=6 control=11 value=99 time=0.00704225
EXTRACT: control_change channel=11 control=11 value=71 time=0
EXTRACT: control_change channel=11 control=11 value=70 time=0.00704225
EXTRACT: control_change channel=6 control=11 value=98 time=0.0140845
EXTRACT: control_change channel=11 control=11 value=69 time=0.00704225
EXTRACT: control_change channel=6 control=11 value=97 time=0.00704225
EXTRACT: control_change channel=11 control=11 value=67 time=0
EXTRACT: control_change channel=11 control=11 value=66 time=0.0140845
EXTRACT: control_change channel=6 control=11 value=96 time=0.00704225
EXTRACT: control_change channel=11 control=11 value=65 time=0
EXTRACT: control_change channel=6 control=11 value=95 time=0.0140845
EXTRACT: control_change channel=11 control=11 value=64 time=0
EXTRACT: note_on channel=9 note=44 velocity=80 time=0.00704225
EXTRACT: control_change channel=11 control=11 value=62 time=0
EXTRACT: control_change channel=6 control=11 value=94 time=0.00704225
EXTRACT: control_change channel=11 control=11 value=61 time=0
EXTRACT: control_change channel=11 control=11 value=60 time=0.00704225
EXTRACT: control_change channel=11 control=11 value=58 time=0.00704225
EXTRACT: control_change channel=6 control=11 value=93 time=0.00704225
EXTRACT: control_change channel=11 control=11 value=57 time=0.00704225
EXTRACT: control_change channel=6 control=11 value=92 time=0.00704225
EXTRACT: control_change channel=11 control=11 value=56 time=0
EXTRACT: control_change channel=11 control=11 value=53 time=0.0140845
EXTRACT: control_change channel=6 control=11 value=91 time=0.00704225
EXTRACT: control_change channel=11 control=11 value=52 time=0.0140845
EXTRACT: control_change channel=6 control=11 value=90 time=0.00704225
EXTRACT: control_change channel=11 control=11 value=51 time=0
EXTRACT: control_change channel=11 control=11 value=49 time=0.00704225
EXTRACT: control_change channel=11 control=11 value=48 time=0.00704225
EXTRACT: control_change channel=6 control=11 value=89 time=0.00704225
EXTRACT: note_on channel=9 note=44 velocity=0 time=0
EXTRACT: control_change channel=11 control=11 value=47 time=0
EXTRACT: control_change channel=6 control=11 value=88 time=0.0140845
EXTRACT: control_change channel=11 control=11 value=45 time=0.00704225
EXTRACT: control_change channel=6 control=11 value=87 time=0.00704225
EXTRACT: control_change channel=11 control=11 value=43 time=0
EXTRACT: control_change channel=11 control=11 value=42 time=0.00704225
EXTRACT: control_change channel=11 control=11 value=41 time=0.00704225
EXTRACT: control_change channel=6 control=11 value=86 time=0.00704225
EXTRACT: control_change channel=11 control=11 value=38 time=0.00704225
EXTRACT: control_change channel=6 control=11 value=85 time=0.00704225
EXTRACT: note_on channel=11 note=57 velocity=0 time=0
EXTRACT: control_change channel=11 control=11 value=37 time=0
EXTRACT: control_change channel=11 control=11 value=31 time=0.00704225
EXTRACT: control_change channel=11 control=11 value=29 time=0.00704225
EXTRACT: control_change channel=6 control=11 value=84 time=0.00704225
EXTRACT: control_change channel=11 control=11 value=26 time=0
EXTRACT: control_change channel=6 control=11 value=83 time=0.0140845
EXTRACT: control_change channel=11 control=11 value=24 time=0
EXTRACT: note_on channel=9 note=33 velocity=127 time=0.00704225
EXTRACT: note_on channel=9 note=82 velocity=35 time=0
EXTRACT: control_change channel=11 control=11 value=23 time=0
EXTRACT: control_change channel=6 control=11 value=82 time=0.00704225
EXTRACT: control_change channel=11 control=11 value=20 time=0
EXTRACT: control_change channel=11 control=11 value=18 time=0.00704225
EXTRACT: control_change channel=11 control=11 value=17 time=0.00704225
EXTRACT: control_change channel=6 control=11 value=81 time=0.0140845
EXTRACT: control_change channel=11 control=11 value=15 time=0
EXTRACT: control_change channel=6 control=11 value=80 time=0.0140845
EXTRACT: control_change channel=11 control=11 value=12 time=0
EXTRACT: control_change channel=11 control=11 value=11 time=0.00704225
EXTRACT: control_change channel=6 control=11 value=79 time=0.0140845
EXTRACT: control_change channel=11 control=11 value=9 time=0.00704225
EXTRACT: control_change channel=6 control=11 value=78 time=0.00704225
EXTRACT: control_change channel=11 control=11 value=8 time=0
EXTRACT: control_change channel=11 control=11 value=7 time=0.00704225
EXTRACT: control_change channel=6 control=11 value=77 time=0.0140845
EXTRACT: note_on channel=9 note=82 velocity=0 time=0
EXTRACT: note_on channel=9 note=33 velocity=0 time=0
EXTRACT: control_change channel=11 control=11 value=6 time=0
EXTRACT: control_change channel=6 control=11 value=76 time=0.0140845
EXTRACT: control_change channel=11 control=11 value=4 time=0
EXTRACT: control_change channel=11 control=11 value=2 time=0.00704225
EXTRACT: control_change channel=6 control=11 value=75 time=0.00704225
EXTRACT: control_change channel=6 control=11 value=74 time=0.02112675
EXTRACT: control_change channel=6 control=11 value=73 time=0.0140845
EXTRACT: note_on channel=1 note=59 velocity=56 time=0.00704225
EXTRACT: note_on channel=1 note=64 velocity=0 time=0.00704225
EXTRACT: control_change channel=6 control=11 value=72 time=0.0140845
EXTRACT: note_on channel=5 note=73 velocity=0 time=0.0140845
EXTRACT: note_on channel=5 note=64 velocity=59 time=0
EXTRACT: note_on channel=5 note=71 velocity=59 time=0
EXTRACT: control_change channel=6 control=11 value=71 time=0
EXTRACT: note_on channel=7 note=37 velocity=0 time=0
EXTRACT: note_on channel=7 note=40 velocity=53 time=0
EXTRACT: note_on channel=8 note=37 velocity=0 time=0
EXTRACT: note_on channel=8 note=40 velocity=123 time=0
EXTRACT: note_on channel=9 note=44 velocity=80 time=0
EXTRACT: control_change channel=6 control=11 value=70 time=0.02112675
EXTRACT: control_change channel=6 control=11 value=69 time=0.0140845
EXTRACT: control_change channel=6 control=11 value=68 time=0.0140845
EXTRACT: control_change channel=6 control=11 value=67 time=0.02112675
EXTRACT: control_change channel=6 control=11 value=66 time=0.0140845
EXTRACT: control_change channel=6 control=11 value=65 time=0.02112675
EXTRACT: note_on channel=9 note=44 velocity=0 time=0
EXTRACT: control_change channel=6 control=11 value=64 time=0.0140845
EXTRACT: control_change channel=6 control=11 value=63 time=0.028169
EXTRACT: control_change channel=6 control=11 value=62 time=0.0140845
EXTRACT: control_change channel=6 control=11 value=61 time=0.0140845
EXTRACT: control_change channel=6 control=11 value=60 time=0.02112675
EXTRACT: control_change channel=6 control=11 value=59 time=0.0140845
EXTRACT: note_on channel=9 note=33 velocity=42 time=0
EXTRACT: note_on channel=9 note=82 velocity=35 time=0
EXTRACT: control_change channel=6 control=11 value=58 time=0.02112675
EXTRACT: control_change channel=6 control=11 value=57 time=0.0140845
EXTRACT: control_change channel=6 control=11 value=56 time=0.0140845
EXTRACT: control_change channel=6 control=11 value=55 time=0.02112675
EXTRACT: control_change channel=6 control=11 value=54 time=0.02112675
EXTRACT: note_on channel=9 note=82 velocity=0 time=0.0140845
EXTRACT: note_on channel=9 note=33 velocity=0 time=0
EXTRACT: control_change channel=6 control=11 value=53 time=0.00704225
EXTRACT: control_change channel=6 control=11 value=52 time=0.0140845
EXTRACT: control_change channel=6 control=11 value=51 time=0.02112675
EXTRACT: control_change channel=6 control=11 value=50 time=0.0140845
EXTRACT: control_change channel=6 control=11 value=49 time=0.0140845
EXTRACT: control_change channel=6 control=11 value=48 time=0.02112675
EXTRACT: control_change channel=6 control=11 value=47 time=0.0140845
EXTRACT: note_on channel=8 note=40 velocity=0 time=0
EXTRACT: note_on channel=8 note=40 velocity=123 time=0
EXTRACT: note_on channel=9 note=33 velocity=127 time=0
EXTRACT: note_on channel=9 note=44 velocity=80 time=0
EXTRACT: control_change channel=6 control=11 value=46 time=0.02112675
EXTRACT: control_change channel=6 control=11 value=45 time=0.02112675
EXTRACT: control_change channel=6 control=11 value=44 time=0.02112675
EXTRACT: control_change channel=6 control=11 value=43 time=0.0140845
EXTRACT: control_change channel=6 control=11 value=42 time=0.0140845
EXTRACT: note_on channel=9 note=44 velocity=0 time=0.0140845
EXTRACT: note_on channel=9 note=33 velocity=0 time=0
EXTRACT: control_change channel=6 control=11 value=41 time=0.00704225
EXTRACT: control_change channel=6 control=11 value=40 time=0.0140845
EXTRACT: control_change channel=6 control=11 value=39 time=0.02112675
EXTRACT: control_change channel=6 control=11 value=38 time=0.0140845
EXTRACT: control_change channel=6 control=11 value=37 time=0.0140845
EXTRACT: control_change channel=6 control=11 value=36 time=0.028169
EXTRACT: note_on channel=8 note=40 velocity=0 time=0.00704225
EXTRACT: note_on channel=8 note=40 velocity=123 time=0
EXTRACT: note_on channel=9 note=82 velocity=35 time=0
EXTRACT: control_change channel=6 control=11 value=35 time=0.00704225
EXTRACT: control_change channel=6 control=11 value=34 time=0.02112675
EXTRACT: control_change channel=6 control=11 value=33 time=0.0140845
EXTRACT: control_change channel=6 control=11 value=32 time=0.02112675
EXTRACT: control_change channel=6 control=11 value=31 time=0.0140845
EXTRACT: control_change channel=6 control=11 value=30 time=0.0140845
EXTRACT: note_on channel=9 note=82 velocity=0 time=0.0140845
EXTRACT: control_change channel=6 control=11 value=29 time=0.00704225
EXTRACT: control_change channel=6 control=11 value=28 time=0.0140845
EXTRACT: control_change channel=4 control=10 value=58 time=0.028169
EXTRACT: control_change channel=6 control=11 value=27 time=0
EXTRACT: control_change channel=6 control=11 value=26 time=0.0140845
EXTRACT: control_change channel=6 control=11 value=25 time=0.02112675
EXTRACT: control_change channel=6 control=11 value=24 time=0.0140845
EXTRACT: note_on channel=8 note=40 velocity=0 time=0.00704225
EXTRACT: note_on channel=8 note=40 velocity=123 time=0
EXTRACT: note_on channel=9 note=31 velocity=127 time=0
EXTRACT: note_on channel=9 note=33 velocity=127 time=0
EXTRACT: note_on channel=9 note=44 velocity=80 time=0
EXTRACT: note_on channel=10 note=31 velocity=73 time=0
EXTRACT: control_change channel=6 control=11 value=23 time=0.00704225
EXTRACT: control_change channel=6 control=11 value=22 time=0.02112675
EXTRACT: control_change channel=6 control=11 value=21 time=0.0140845
EXTRACT: control_change channel=6 control=11 value=20 time=0.02112675
EXTRACT: control_change channel=6 control=11 value=19 time=0.0140845
EXTRACT: control_change channel=6 control=11 value=18 time=0.028169
EXTRACT: note_on channel=9 note=44 velocity=0 time=0
EXTRACT: note_on channel=9 note=33 velocity=0 time=0
EXTRACT: note_on channel=9 note=31 velocity=0 time=0
EXTRACT: note_on channel=10 note=31 velocity=0 time=0
EXTRACT: control_change channel=6 control=11 value=17 time=0.0140845
EXTRACT: control_change channel=6 control=11 value=16 time=0.0140845
EXTRACT: control_change channel=6 control=11 value=15 time=0.02112675
EXTRACT: control_change channel=6 control=11 value=14 time=0.0140845
EXTRACT: note_on channel=6 note=64 velocity=0 time=0.0140845
EXTRACT: control_change channel=6 control=11 value=13 time=0.00704225
EXTRACT: control_change channel=6 control=11 value=12 time=0.0140845
EXTRACT: note_on channel=9 note=82 velocity=35 time=0.00704225
EXTRACT: control_change channel=6 control=11 value=11 time=0.00704225
EXTRACT: control_change channel=6 control=11 value=10 time=0.02112675
EXTRACT: control_change channel=6 control=11 value=9 time=0.02112675
EXTRACT: control_change channel=6 control=11 value=8 time=0.02112675
EXTRACT: control_change channel=6 control=11 value=7 time=0.0140845
EXTRACT: control_change channel=6 control=11 value=6 time=0.02112675
EXTRACT: note_on channel=9 note=82 velocity=0 time=0
EXTRACT: control_change channel=6 control=11 value=5 time=0.0140845
EXTRACT: control_change channel=6 control=11 value=4 time=0.0140845
EXTRACT: control_change channel=6 control=11 value=3 time=0.02112675
EXTRACT: control_change channel=6 control=11 value=2 time=0.0140845
EXTRACT: control_change channel=6 control=11 value=1 time=0.02112675
EXTRACT: control_change channel=6 control=11 value=0 time=0.0140845
EXTRACT: note_on channel=8 note=40 velocity=0 time=0.00704225
EXTRACT: note_on channel=8 note=40 velocity=123 time=0
EXTRACT: note_on channel=9 note=44 velocity=80 time=0
EXTRACT: note_on channel=9 note=44 velocity=0 time=0.10563375
EXTRACT: note_on channel=9 note=82 velocity=35 time=0.10563375
EXTRACT: control_change channel=11 control=11 value=126 time=0.00704225
EXTRACT: note_on channel=9 note=82 velocity=0 time=0.0985915
EXTRACT: note_on channel=1 note=68 velocity=0 time=0.04929575
EXTRACT: note_on channel=1 note=59 velocity=0 time=0.00704225
EXTRACT: note_on channel=1 note=69 velocity=73 time=0.0140845
EXTRACT: note_on channel=1 note=61 velocity=73 time=0.00704225
EXTRACT: note_on channel=5 note=71 velocity=0 time=0.028169
EXTRACT: note_on channel=5 note=64 velocity=0 time=0
EXTRACT: note_on channel=5 note=68 velocity=0 time=0
EXTRACT: note_on channel=5 note=61 velocity=43 time=0
EXTRACT: note_on channel=5 note=69 velocity=43 time=0
EXTRACT: note_on channel=5 note=64 velocity=43 time=0
EXTRACT: note_on channel=7 note=40 velocity=0 time=0
EXTRACT: note_on channel=8 note=40 velocity=0 time=0
EXTRACT: note_on channel=8 note=33 velocity=123 time=0
EXTRACT: note_on channel=9 note=44 velocity=80 time=0
EXTRACT: note_on channel=9 note=33 velocity=127 time=0
EXTRACT: note_on channel=2 note=64 velocity=59 time=0.00704225
EXTRACT: note_on channel=4 note=69 velocity=60 time=0
EXTRACT: pitchwheel channel=11 pitch=0 time=0.0704225
EXTRACT: note_on channel=9 note=33 velocity=0 time=0.028169
EXTRACT: note_on channel=9 note=44 velocity=0 time=0
EXTRACT: note_on channel=9 note=82 velocity=35 time=0.10563375
EXTRACT: control_change channel=11 control=74 value=39 time=0
EXTRACT: note_on channel=9 note=82 velocity=0 time=0.10563375
EXTRACT: note_on channel=4 note=64 velocity=55 time=0.084507
EXTRACT: note_on channel=9 note=44 velocity=80 time=0.02112675
EXTRACT: control_change channel=11 control=93 value=37 time=0.02112675
EXTRACT: note_on channel=9 note=44 velocity=0 time=0.084507
EXTRACT: control_change channel=11 control=94 value=41 time=0
EXTRACT: control_change channel=11 control=1 value=29 time=0.00704225
EXTRACT: note_on channel=4 note=61 velocity=56 time=0.0985915
EXTRACT: note_on channel=9 note=82 velocity=35 time=0
EXTRACT: note_on channel=11 note=52 velocity=112 time=0
EXTRACT: note_on channel=9 note=82 velocity=0 time=0.10563375
EXTRACT: note_on channel=8 note=33 velocity=0 time=0.10563375
EXTRACT: note_on channel=8 note=33 velocity=123 time=0
EXTRACT: note_on channel=9 note=31 velocity=127 time=0
EXTRACT: note_on channel=9 note=44 velocity=80 time=0
EXTRACT: note_on channel=9 note=33 velocity=127 time=0
EXTRACT: note_on channel=10 note=31 velocity=73 time=0
EXTRACT: note_on channel=11 note=52 velocity=0 time=0
EXTRACT: note_on channel=4 note=69 velocity=0 time=0.00704225
EXTRACT: note_on channel=11 note=59 velocity=127 time=0.00704225
EXTRACT: note_on channel=9 note=33 velocity=0 time=0.09154925
EXTRACT: note_on channel=9 note=44 velocity=0 time=0
EXTRACT: note_on channel=9 note=31 velocity=0 time=0
EXTRACT: note_on channel=10 note=31 velocity=0 time=0
EXTRACT: note_on channel=4 note=69 velocity=73 time=0.10563375
EXTRACT: note_on channel=9 note=82 velocity=35 time=0
EXTRACT: note_on channel=11 note=59 velocity=0 time=0.0704225
EXTRACT: note_on channel=11 note=61 velocity=127 time=0
EXTRACT: note_on channel=9 note=82 velocity=0 time=0.03521125
EXTRACT: note_on channel=4 note=64 velocity=0 time=0.084507
EXTRACT: note_on channel=9 note=44 velocity=80 time=0.02112675
EXTRACT: note_on channel=9 note=44 velocity=0 time=0.10563375
EXTRACT: control_change channel=6 control=1 value=72 time=0.0140845
EXTRACT: note_on channel=4 note=61 velocity=0 time=0.09154925
EXTRACT: note_on channel=8 note=33 velocity=0 time=0
EXTRACT: note_on channel=8 note=33 velocity=123 time=0
EXTRACT: note_on channel=9 note=33 velocity=127 time=0
EXTRACT: note_on channel=9 note=82 velocity=35 time=0
EXTRACT: note_on channel=1 note=69 velocity=0 time=0.00704225
EXTRACT: note_on channel=1 note=61 velocity=0 time=0.00704225
EXTRACT: note_on channel=11 note=61 velocity=0 time=0.03521125
EXTRACT: note_on channel=11 note=61 velocity=127 time=0.0140845
EXTRACT: note_on channel=9 note=82 velocity=0 time=0.0422535
EXTRACT: note_on channel=9 note=33 velocity=0 time=0
EXTRACT: note_on channel=1 note=68 velocity=73 time=0.03521125
EXTRACT: control_change channel=6 control=11 value=2 time=0.02112675
EXTRACT: control_change channel=6 control=11 value=3 time=0.00704225
EXTRACT: note_on channel=1 note=56 velocity=78 time=0.02112675
EXTRACT: control_change channel=6 control=11 value=4 time=0.00704225
EXTRACT: pitchwheel channel=11 pitch=-94 time=0.00704225
EXTRACT: note_on channel=4 note=69 velocity=0 time=0.00704225
EXTRACT: note_on channel=4 note=68 velocity=73 time=0
EXTRACT: note_on channel=5 note=64 velocity=0 time=0
EXTRACT: note_on channel=5 note=69 velocity=0 time=0
EXTRACT: note_on channel=5 note=61 velocity=0 time=0
EXTRACT: note_on channel=5 note=68 velocity=43 time=0
EXTRACT: note_on channel=5 note=61 velocity=43 time=0
EXTRACT: control_change channel=6 control=11 value=5 time=0
EXTRACT: note_on channel=8 note=33 velocity=0 time=0
EXTRACT: note_on channel=8 note=32 velocity=123 time=0
EXTRACT: note_on channel=9 note=44 velocity=80 time=0
EXTRACT: pitchwheel channel=11 pitch=-188 time=0
EXTRACT: note_on channel=5 note=64 velocity=43 time=0.00704225
EXTRACT: note_on channel=2 note=68 velocity=57 time=0.00704225
EXTRACT: pitchwheel channel=11 pitch=-469 time=0
EXTRACT: control_change channel=6 control=11 value=6 time=0.00704225
EXTRACT: pitchwheel channel=11 pitch=-844 time=0.0140845
EXTRACT: control_change channel=6 control=11 value=7 time=0.00704225
EXTRACT: pitchwheel channel=11 pitch=-1407 time=0.0140845
EXTRACT: control_change channel=6 control=11 value=8 time=0.00704225
EXTRACT: pitchwheel channel=11 pitch=-1454 time=0
EXTRACT: pitchwheel channel=11 pitch=-938 time=0.00704225
EXTRACT: control_change channel=6 control=11 value=9 time=0.00704225
EXTRACT: pitchwheel channel=11 pitch=-563 time=0.00704225
EXTRACT: control_change channel=6 control=11 value=10 time=0.02112675
EXTRACT: note_on channel=9 note=44 velocity=0 time=0
EXTRACT: pitchwheel channel=11 pitch=-94 time=0
EXTRACT: pitchwheel channel=11 pitch=375 time=0.00704225
EXTRACT: control_change channel=6 control=11 value=11 time=0.00704225
EXTRACT: pitchwheel channel=11 pitch=0 time=0.00704225
EXTRACT: control_change channel=6 control=11 value=12 time=0.00704225
EXTRACT: note_on channel=6 note=64 velocity=100 time=0.02112675
EXTRACT: pitchwheel channel=11 pitch=-128 time=0
EXTRACT: control_change channel=6 control=11 value=13 time=0.00704225
EXTRACT: pitchwheel channel=11 pitch=128 time=0
EXTRACT: pitchwheel channel=11 pitch=-128 time=0.00704225
EXTRACT: control_change channel=6 control=11 value=14 time=0.00704225
EXTRACT: control_change channel=6 control=11 value=15 time=0.02112675
EXTRACT: pitchwheel channel=11 pitch=-256 time=0
EXTRACT: control_change channel=6 control=11 value=16 time=0.0140845
EXTRACT: note_on channel=9 note=33 velocity=49 time=0
EXTRACT: note_on channel=9 note=82 velocity=35 time=0
EXTRACT: control_change channel=6 control=11 value=17 time=0.028169
EXTRACT: control_change channel=6 control=11 value=18 time=0.0140845
EXTRACT: control_change channel=6 control=11 value=19 time=0.02112675
EXTRACT: control_change channel=6 control=11 value=20 time=0.02112675
EXTRACT: pitchwheel channel=11 pitch=-384 time=0
EXTRACT: control_change channel=6 control=11 value=21 time=0.02112675
EXTRACT: note_on channel=9 note=82 velocity=0 time=0
EXTRACT: note_on channel=9 note=33 velocity=0 time=0
EXTRACT: control_change channel=6 control=11 value=22 time=0.0140845
EXTRACT: pitchwheel channel=11 pitch=-512 time=0
EXTRACT: pitchwheel channel=11 pitch=-640 time=0.0140845
EXTRACT: control_change channel=6 control=11 value=23 time=0.0140845
EXTRACT: pitchwheel channel=11 pitch=-768 time=0.00704225
EXTRACT: control_change channel=6 control=11 value=24 time=0.00704225
EXTRACT: pitchwheel channel=11 pitch=-896 time=0
EXTRACT: control_change channel=6 control=11 value=25 time=0.0140845
EXTRACT: pitchwheel channel=11 pitch=-1152 time=0.00704225
EXTRACT: control_change channel=6 control=11 value=26 time=0.02112675
EXTRACT: pitchwheel channel=11 pitch=-1280 time=0
EXTRACT: note_on channel=9 note=33 velocity=127 time=0.00704225
EXTRACT: note_on channel=9 note=44 velocity=80 time=0
EXTRACT: pitchwheel channel=11 pitch=-1408 time=0
EXTRACT: control_change channel=6 control=11 value=27 time=0.00704225
EXTRACT: pitchwheel channel=11 pitch=-1536 time=0
EXTRACT: control_change channel=6 control=11 value=28 time=0.02112675
EXTRACT: pitchwheel channel=11 pitch=-1664 time=0
EXTRACT: control_change channel=6 control=11 value=29 time=0.0140845
EXTRACT: pitchwheel channel=11 pitch=-1920 time=0
EXTRACT: pitchwheel channel=11 pitch=-2048 time=0.0140845
EXTRACT: control_change channel=6 control=11 value=30 time=0.0140845
EXTRACT: pitchwheel channel=11 pitch=-2176 time=0
EXTRACT: pitchwheel channel=11 pitch=-2304 time=0.00704225
EXTRACT: control_change channel=6 control=11 value=31 time=0.00704225
EXTRACT: pitchwheel channel=11 pitch=-2560 time=0
EXTRACT: pitchwheel channel=11 pitch=-2816 time=0.0140845
EXTRACT: control_change channel=6 control=11 value=32 time=0.00704225
EXTRACT: note_on channel=9 note=44 velocity=0 time=0
EXTRACT: note_on channel=9 note=33 velocity=0 time=0
EXTRACT: pitchwheel channel=11 pitch=-3072 time=0.00704225
EXTRACT: pitchwheel channel=11 pitch=-3200 time=0.00704225
EXTRACT: control_change channel=6 control=11 value=33 time=0.00704225
EXTRACT: pitchwheel channel=11 pitch=-3456 time=0
EXTRACT: pitchwheel channel=11 pitch=-3584 time=0.00704225
EXTRACT: pitchwheel channel=11 pitch=-3968 time=0.00704225
EXTRACT: control_change channel=6 control=11 value=34 time=0.00704225
EXTRACT: pitchwheel channel=11 pitch=-4224 time=0.00704225
EXTRACT: control_change channel=6 control=11 value=35 time=0.00704225
EXTRACT: pitchwheel channel=11 pitch=-4480 time=0
EXTRACT: pitchwheel channel=11 pitch=-4736 time=0.00704225
EXTRACT: pitchwheel channel=11 pitch=-5248 time=0.00704225
EXTRACT: pitchwheel channel=11 pitch=-5632 time=0.00704225
EXTRACT: control_change channel=6 control=11 value=36 time=0.00704225
EXTRACT: pitchwheel channel=11 pitch=-5888 time=0.00704225
EXTRACT: control_change channel=6 control=11 value=37 time=0.00704225
EXTRACT: pitchwheel channel=11 pitch=-6144 time=0
EXTRACT: note_on channel=9 note=82 velocity=35 time=0.00704225
EXTRACT: pitchwheel channel=11 pitch=-6784 time=0
EXTRACT: control_change channel=6 control=11 value=38 time=0.00704225
EXTRACT: pitchwheel channel=11 pitch=-7168 time=0
EXTRACT: pitchwheel channel=11 pitch=-7680 time=0.00704225
EXTRACT: pitchwheel channel=11 pitch=-7808 time=0.0140845
EXTRACT: control_change channel=6 control=11 value=39 time=0.00704225
EXTRACT: control_change channel=6 control=11 value=40 time=0.0140845
EXTRACT: control_change channel=6 control=11 value=41 time=0.02112675
EXTRACT: control_change channel=6 control=11 value=42 time=0.0140845
EXTRACT: note_on channel=9 note=82 velocity=0 time=0.02112675
EXTRACT: control_change channel=6 control=11 value=43 time=0.00704225
EXTRACT: control_change channel=6 control=11 value=44 time=0.0140845
EXTRACT: control_change channel=6 control=11 value=45 time=0.02112675
EXTRACT: control_change channel=6 control=94 value=56 time=0.0140845
EXTRACT: control_change channel=6 control=11 value=46 time=0.00704225
EXTRACT: note_on channel=11 note=61 velocity=0 time=0.00704225
EXTRACT: control_change channel=6 control=11 value=47 time=0.0140845
EXTRACT: control_change channel=6 control=11 value=48 time=0.0140845
EXTRACT: note_on channel=8 note=32 velocity=0 time=0.00704225
EXTRACT: note_on channel=8 note=32 velocity=123 time=0
EXTRACT: note_on channel=9 note=44 velocity=80 time=0
EXTRACT: note_on channel=9 note=31 velocity=127 time=0
EXTRACT: note_on channel=9 note=33 velocity=127 time=0
EXTRACT: note_on channel=10 note=31 velocity=73 time=0
EXTRACT: pitchwheel channel=11 pitch=0 time=0
EXTRACT: note_on channel=11 note=59 velocity=127 time=0
EXTRACT: control_change channel=6 control=11 value=49 time=0.02112675
EXTRACT: control_change channel=6 control=11 value=50 time=0.0140845
EXTRACT: control_change channel=6 control=11 value=51 time=0.0140845
EXTRACT: control_change channel=6 control=11 value=52 time=0.028169
EXTRACT: control_change channel=6 control=11 value=53 time=0.0140845
EXTRACT: note_on channel=9 note=33 velocity=0 time=0.0140845
EXTRACT: note_on channel=9 note=31 velocity=0 time=0
EXTRACT: note_on channel=9 note=44 velocity=0 time=0
EXTRACT: note_on channel=10 note=31 velocity=0 time=0
EXTRACT: control_change channel=6 control=11 value=54 time=0.00704225
EXTRACT: control_change channel=6 control=11 value=55 time=0.0140845
EXTRACT: control_change channel=6 control=11 value=56 time=0.028169
EXTRACT: control_change channel=6 control=11 value=57 time=0.0140845
EXTRACT: control_change channel=6 control=11 value=58 time=0.02112675
EXTRACT: control_change channel=6 control=11 value=59 time=0.02112675
EXTRACT: note_on channel=9 note=82 velocity=35 time=0
EXTRACT: control_change channel=6 control=11 value=60 time=0.02112675
EXTRACT: control_change channel=6 control=11 value=61 time=0.0140845
EXTRACT: note_on channel=11 note=59 velocity=0 time=0.02112675
EXTRACT: pitchwheel channel=11 pitch=-8064 time=0
EXTRACT: control_change channel=6 control=11 value=62 time=0.00704225
EXTRACT: pitchwheel channel=11 pitch=-7168 time=0
EXTRACT: pitchwheel channel=11 pitch=-6784 time=0.00704225
EXTRACT: note_on channel=11 note=61 velocity=127 time=0
EXTRACT: control_change channel=6 control=11 value=63 time=0.00704225
EXTRACT: pitchwheel channel=11 pitch=-6400 time=0
EXTRACT: pitchwheel channel=11 pitch=-6272 time=0.00704225
EXTRACT: control_change channel=6 control=11 value=64 time=0.00704225
EXTRACT: pitchwheel channel=11 pitch=-6016 time=0.00704225
EXTRACT: note_on channel=9 note=82 velocity=0 time=0.00704225
EXTRACT: pitchwheel channel=11 pitch=-5760 time=0
EXTRACT: control_change channel=6 control=11 value=65 time=0.00704225
EXTRACT: pitchwheel channel=11 pitch=-5248 time=0
EXTRACT: pitchwheel channel=11 pitch=-4992 time=0.00704225
EXTRACT: pitchwheel channel=11 pitch=-4608 time=0.00704225
EXTRACT: control_change channel=6 control=11 value=66 time=0.00704225
EXTRACT: pitchwheel channel=11 pitch=-4480 time=0.00704225
EXTRACT: pitchwheel channel=11 pitch=-4096 time=0.00704225
EXTRACT: control_change channel=6 control=11 value=67 time=0.00704225
EXTRACT: pitchwheel channel=11 pitch=-3968 time=0.00704225
EXTRACT: control_change channel=6 control=11 value=68 time=0.00704225
EXTRACT: pitchwheel channel=11 pitch=-3712 time=0
EXTRACT: pitchwheel channel=11 pitch=-3456 time=0.0140845
EXTRACT: pitchwheel channel=11 pitch=-2688 time=0.00704225
EXTRACT: control_change channel=6 control=11 value=69 time=0.00704225
EXTRACT: pitchwheel channel=11 pitch=-2432 time=0.00704225
EXTRACT: note_on channel=4 note=68 velocity=0 time=0.00704225
EXTRACT: note_on channel=4 note=68 velocity=73 time=0
EXTRACT: control_change channel=6 control=11 value=70 time=0
EXTRACT: note_on channel=8 note=32 velocity=0 time=0
EXTRACT: note_on channel=8 note=32 velocity=123 time=0
EXTRACT: note_on channel=9 note=44 velocity=80 time=0
EXTRACT: pitchwheel channel=11 pitch=-2176 time=0
EXTRACT: pitchwheel channel=11 pitch=-1920 time=0.0140845
EXTRACT: control_change channel=6 control=11 value=71 time=0.00704225
EXTRACT: pitchwheel channel=11 pitch=-1664 time=0.00704225
EXTRACT: pitchwheel channel=11 pitch=-1280 time=0.00704225
EXTRACT: control_change channel=6 control=11 value=72 time=0.00704225
EXTRACT: pitchwheel channel=11 pitch=-1152 time=0
EXTRACT: control_change channel=6 control=11 value=73 time=0.02112675
EXTRACT: pitchwheel channel=11 pitch=-896 time=0
EXTRACT: pitchwheel channel=11 pitch=-640 time=0.00704225
EXTRACT: control_change channel=6 control=11 value=74 time=0.00704225
EXTRACT: pitchwheel channel=11 pitch=-384 time=0
EXTRACT: pitchwheel channel=11 pitch=-128 time=0.00704225
EXTRACT: control_change channel=6 control=11 value=75 time=0.02112675
EXTRACT: note_on channel=9 note=44 velocity=0 time=0
EXTRACT: control_change channel=6 control=11 value=76 time=0.0140845
EXTRACT: control_change channel=6 control=11 value=77 time=0.0140845
EXTRACT: control_change channel=6 control=11 value=78 time=0.02112675
EXTRACT: control_change channel=6 control=11 value=79 time=0.02112675
EXTRACT: note_on channel=1 note=68 velocity=0 time=0.00704225
EXTRACT: control_change channel=6 control=11 value=80 time=0.0140845
EXTRACT: control_change channel=6 control=11 value=81 time=0.0140845
EXTRACT: note_on channel=9 note=82 velocity=35 time=0
EXTRACT: note_on channel=11 note=61 velocity=0 time=0
EXTRACT: note_on channel=11 note=61 velocity=127 time=0
EXTRACT: control_change channel=6 control=11 value=82 time=0.028169
EXTRACT: control_change channel=6 control=11 value=83 time=0.0140845
EXTRACT: control_change channel=6 control=11 value=84 time=0.02112675
EXTRACT: pitchwheel channel=11 pitch=384 time=0.00704225
EXTRACT: control_change channel=6 control=11 value=85 time=0.0140845
EXTRACT: pitchwheel channel=11 pitch=512 time=0
EXTRACT: pitchwheel channel=11 pitch=640 time=0.00704225
EXTRACT: pitchwheel channel=11 pitch=768 time=0.00704225
EXTRACT: control_change channel=6 control=11 value=86 time=0.00704225
EXTRACT: note_on channel=9 note=82 velocity=0 time=0
EXTRACT: control_change channel=6 control=11 value=87 time=0.0140845
EXTRACT: pitchwheel channel=11 pitch=1024 time=0
EXTRACT: pitchwheel channel=11 pitch=1280 time=0.00704225
EXTRACT: pitchwheel channel=11 pitch=1408 time=0.0140845
EXTRACT: control_change channel=6 control=11 value=88 time=0.00704225
EXTRACT: pitchwheel channel=11 pitch=1664 time=0.00704225
EXTRACT: control_change channel=6 control=11 value=89 time=0.00704225
EXTRACT: pitchwheel channel=11 pitch=1792 time=0
EXTRACT: control_change channel=6 control=11 value=90 time=0.0140845
EXTRACT: pitchwheel channel=11 pitch=1920 time=0
EXTRACT: pitchwheel channel=11 pitch=2048 time=0.00704225
EXTRACT: note_on channel=2 note=64 velocity=0 time=0.00704225
EXTRACT: control_change channel=6 control=11 value=91 time=0.00704225
EXTRACT: control_change channel=11 control=11 value=126 time=0.00704225
EXTRACT: pitchwheel channel=11 pitch=2176 time=0
EXTRACT: note_on channel=1 note=56 velocity=78 time=0.00704225
EXTRACT: note_on channel=1 note=49 velocity=78 time=0
EXTRACT: note_on channel=1 note=61 velocity=78 time=0
EXTRACT: note_on channel=2 note=61 velocity=57 time=0
EXTRACT: note_on channel=5 note=61 velocity=0 time=0
EXTRACT: note_on channel=5 note=68 velocity=0 time=0
EXTRACT: note_on channel=5 note=64 velocity=43 time=0
EXTRACT: note_on channel=5 note=68 velocity=43 time=0
EXTRACT: note_on channel=5 note=61 velocity=43 time=0
EXTRACT: note_on channel=7 note=37 velocity=57 time=0
EXTRACT: note_on channel=8 note=32 velocity=0 time=0
EXTRACT: note_on channel=8 note=37 velocity=123 time=0
EXTRACT: note_on channel=9 note=44 velocity=80 time=0
EXTRACT: note_on channel=9 note=33 velocity=127 time=0
EXTRACT: pitchwheel channel=11 pitch=2304 time=0
EXTRACT: note_on channel=1 note=56 velocity=0 time=0.00704225
EXTRACT: note_on channel=5 note=64 velocity=0 time=0
EXTRACT: control_change channel=6 control=11 value=92 time=0
EXTRACT: pitchwheel channel=11 pitch=2560 time=0
EXTRACT: control_change channel=6 control=11 value=93 time=0.02112675
EXTRACT: pitchwheel channel=11 pitch=2816 time=0
EXTRACT: control_change channel=6 control=11 value=94 time=0.0140845
EXTRACT: pitchwheel channel=11 pitch=2944 time=0
EXTRACT: pitchwheel channel=11 pitch=3072 time=0.00704225
EXTRACT: control_change channel=11 control=11 value=125 time=0.00704225
EXTRACT: control_change channel=6 control=11 value=95 time=0.0140845
EXTRACT: pitchwheel channel=11 pitch=3328 time=0
EXTRACT: control_change channel=6 control=11 value=96 time=0.0140845
EXTRACT: control_change channel=11 control=11 value=124 time=0
EXTRACT: pitchwheel channel=11 pitch=3456 time=0
EXTRACT: pitchwheel channel=11 pitch=3584 time=0.00704225
EXTRACT: control_change channel=11 control=11 value=123 time=0.00704225
EXTRACT: control_change channel=6 control=11 value=97 time=0.00704225
EXTRACT: note_on channel=9 note=33 velocity=0 time=0
EXTRACT: note_on channel=9 note=44 velocity=0 time=0
EXTRACT: pitchwheel channel=11 pitch=3712 time=0.00704225
EXTRACT: control_change channel=11 control=11 value=122 time=0.00704225
EXTRACT: pitchwheel channel=11 pitch=3840 time=0
EXTRACT: control_change channel=6 control=11 value=98 time=0.00704225
EXTRACT: control_change channel=11 control=11 value=121 time=0
EXTRACT: control_change channel=6 control=11 value=99 time=0.02112675
EXTRACT: control_change channel=11 control=11 value=119 time=0.00704225
EXTRACT: control_change channel=6 control=11 value=100 time=0.00704225
EXTRACT: control_change channel=11 control=11 value=118 time=0.00704225
EXTRACT: pitchwheel channel=11 pitch=3712 time=0.00704225
EXTRACT: control_change channel=11 control=11 value=117 time=0.00704225
EXTRACT: pitchwheel channel=11 pitch=3456 time=0
EXTRACT: control_change channel=6 control=11 value=101 time=0.00704225
EXTRACT: control_change channel=11 control=11 value=116 time=0.00704225
EXTRACT: control_change channel=6 control=11 value=102 time=0.00704225
EXTRACT: pitchwheel channel=11 pitch=3200 time=0
EXTRACT: note_on channel=9 note=82 velocity=35 time=0.00704225
EXTRACT: pitchwheel channel=11 pitch=2944 time=0
EXTRACT: control_change channel=6 control=11 value=103 time=0.00704225
EXTRACT: pitchwheel channel=11 pitch=2688 time=0
EXTRACT: pitchwheel channel=11 pitch=2432 time=0.00704225
EXTRACT: control_change channel=6 control=11 value=104 time=0.0140845
EXTRACT: pitchwheel channel=11 pitch=2176 time=0
EXTRACT: control_change channel=11 control=11 value=115 time=0.00704225
EXTRACT: pitchwheel channel=11 pitch=1920 time=0
EXTRACT: pitchwheel channel=11 pitch=1536 time=0.00704225
EXTRACT: control_change channel=6 control=11 value=105 time=0.00704225
EXTRACT: control_change channel=11 control=11 value=114 time=0
EXTRACT: pitchwheel channel=11 pitch=1408 time=0
EXTRACT: pitchwheel channel=11 pitch=1152 time=0.00704225
EXTRACT: control_change channel=6 control=11 value=106 time=0.0140845
EXTRACT: control_change channel=11 control=11 value=113 time=0
EXTRACT: pitchwheel channel=11 pitch=640 time=0
EXTRACT: pitchwheel channel=11 pitch=512 time=0.00704225
EXTRACT: control_change channel=6 control=11 value=107 time=0.00704225
EXTRACT: control_change channel=11 control=11 value=111 time=0
EXTRACT: pitchwheel channel=11 pitch=256 time=0
EXTRACT: pitchwheel channel=11 pitch=128 time=0.00704225
EXTRACT: control_change channel=11 control=11 value=110 time=0.00704225
EXTRACT: note_on channel=9 note=82 velocity=0 time=0.00704225
EXTRACT: control_change channel=6 control=11 value=108 time=0.00704225
EXTRACT: control_change channel=11 control=11 value=109 time=0
EXTRACT: control_change channel=6 control=11 value=109 time=0.0140845
EXTRACT: control_change channel=11 control=11 value=107 time=0
EXTRACT: pitchwheel channel=11 pitch=0 time=0
EXTRACT: control_change channel=11 control=11 value=106 time=0.00704225
EXTRACT: control_change channel=11 control=11 value=105 time=0.00704225
EXTRACT: control_change channel=6 control=11 value=110 time=0.00704225
EXTRACT: control_change channel=11 control=11 value=104 time=0.0140845
EXTRACT: control_change channel=6 control=11 value=111 time=0.00704225
EXTRACT: control_change channel=11 control=11 value=103 time=0
EXTRACT: control_change channel=11 control=11 value=102 time=0.0140845
EXTRACT: control_change channel=6 control=11 value=112 time=0.00704225
EXTRACT: control_change channel=11 control=11 value=101 time=0.00704225
EXTRACT: control_change channel=6 control=11 value=113 time=0.00704225
EXTRACT: control_change channel=11 control=11 value=99 time=0
EXTRACT: note_on channel=4 note=68 velocity=0 time=0.00704225
EXTRACT: note_on channel=4 note=64 velocity=73 time=0
EXTRACT: note_on channel=9 note=44 velocity=80 time=0
EXTRACT: control_change channel=11 control=11 value=98 time=0
EXTRACT: control_change channel=11 control=11 value=97 time=0.0140845
EXTRACT: control_change channel=6 control=11 value=114 time=0.00704225
EXTRACT: control_change channel=11 control=11 value=95 time=0.00704225
EXTRACT: control_change channel=6 control=11 value=115 time=0.00704225
EXTRACT: control_change channel=11 control=11 value=94 time=0.00704225
EXTRACT: control_change channel=6 control=11 value=116 time=0.00704225
EXTRACT: control_change channel=11 control=11 value=93 time=0.00704225
EXTRACT: control_change channel=6 control=11 value=117 time=0.0140845
EXTRACT: control_change channel=11 control=11 value=91 time=0
EXTRACT: control_change channel=11 control=11 value=90 time=0.00704225
EXTRACT: control_change channel=6 control=11 value=118 time=0.0140845
EXTRACT: control_change channel=11 control=11 value=87 time=0
EXTRACT: note_on channel=9 note=44 velocity=0 time=0.0140845
EXTRACT: control_change channel=6 control=11 value=119 time=0.00704225
EXTRACT: control_change channel=11 control=11 value=86 time=0
EXTRACT: control_change channel=11 control=11 value=85 time=0.00704225
EXTRACT: control_change channel=6 control=11 value=120 time=0.00704225
EXTRACT: control_change channel=11 control=11 value=83 time=0
EXTRACT: control_change channel=11 control=11 value=82 time=0.00704225
EXTRACT: control_change channel=6 control=11 value=121 time=0.02112675
EXTRACT: control_change channel=11 control=11 value=81 time=0
EXTRACT: control_change channel=11 control=11 value=79 time=0.00704225
EXTRACT: control_change channel=6 control=11 value=122 time=0.00704225
EXTRACT: control_change channel=11 control=11 value=78 time=0
EXTRACT: control_change channel=11 control=11 value=77 time=0.00704225
EXTRACT: control_change channel=11 control=11 value=75 time=0.00704225
EXTRACT: control_change channel=6 control=11 value=123 time=0.00704225
EXTRACT: control_change channel=11 control=11 value=73 time=0.00704225
EXTRACT: control_change channel=11 control=11 value=72 time=0.00704225
EXTRACT: note_on channel=4 note=61 velocity=73 time=0.00704225
EXTRACT: control_change channel=6 control=11 value=124 time=0
EXTRACT: note_on channel=9 note=82 velocity=35 time=0
EXTRACT: control_change channel=11 control=11 value=71 time=0
EXTRACT: control_change channel=11 control=11 value=70 time=0.00704225
EXTRACT: control_change channel=11 control=11 value=67 time=0.00704225
EXTRACT: control_change channel=6 control=11 value=125 time=0.00704225
EXTRACT: control_change channel=11 control=11 value=66 time=0.00704225
EXTRACT: control_change channel=6 control=11 value=126 time=0.00704225
EXTRACT: control_change channel=11 control=11 value=64 time=0
EXTRACT: control_change channel=11 control=11 value=62 time=0.00704225
EXTRACT: control_change channel=6 control=11 value=127 time=0.00704225
EXTRACT: control_change channel=11 control=11 value=61 time=0
EXTRACT: control_change channel=11 control=11 value=59 time=0.00704225
EXTRACT: control_change channel=11 control=11 value=58 time=0.0140845
EXTRACT: control_change channel=6 control=11 value=126 time=0.00704225
EXTRACT: control_change channel=11 control=11 value=57 time=0
EXTRACT: control_change channel=11 control=11 value=55 time=0.00704225
EXTRACT: control_change channel=6 control=11 value=125 time=0.00704225
EXTRACT: control_change channel=11 control=11 value=54 time=0
EXTRACT: control_change channel=11 control=11 value=53 time=0.00704225
EXTRACT: note_on channel=9 note=82 velocity=0 time=0.00704225
EXTRACT: control_change channel=6 control=11 value=124 time=0.00704225
EXTRACT: control_change channel=11 control=11 value=51 time=0
EXTRACT: control_change channel=11 control=11 value=49 time=0.00704225
EXTRACT: control_change channel=6 control=11 value=123 time=0.00704225
EXTRACT: control_change channel=11 control=11 value=47 time=0
EXTRACT: control_change channel=11 control=11 value=45 time=0.00704225
EXTRACT: control_change channel=11 control=11 value=43 time=0.00704225
EXTRACT: control_change channel=6 control=11 value=122 time=0.00704225
EXTRACT: control_change channel=11 control=11 value=41 time=0.00704225
EXTRACT: control_change channel=6 control=11 value=121 time=0.00704225
EXTRACT: control_change channel=11 control=11 value=39 time=0
EXTRACT: control_change channel=11 control=11 value=37 time=0.00704225
EXTRACT: control_change channel=6 control=11 value=120 time=0.00704225
EXTRACT: control_change channel=11 control=11 value=34 time=0
EXTRACT: control_change channel=11 control=11 value=30 time=0.00704225
EXTRACT: control_change channel=6 control=11 value=119 time=0.0140845
EXTRACT: control_change channel=11 control=11 value=28 time=0
EXTRACT: control_change channel=11 control=11 value=27 time=0.00704225
EXTRACT: control_change channel=6 control=11 value=118 time=0.00704225
EXTRACT: note_on channel=9 note=33 velocity=127 time=0
EXTRACT: note_on channel=9 note=31 velocity=127 time=0
EXTRACT: note_on channel=9 note=44 velocity=80 time=0
EXTRACT: note_on channel=10 note=31 velocity=73 time=0
EXTRACT: note_on channel=11 note=61 velocity=0 time=0
EXTRACT: control_change channel=11 control=11 value=26 time=0
EXTRACT: control_change channel=11 control=11 value=22 time=0.00704225
EXTRACT: control_change channel=6 control=11 value=117 time=0.02112675
EXTRACT: control_change channel=6 control=11 value=116 time=0.0140845
EXTRACT: control_change channel=6 control=11 value=115 time=0.02112675
EXTRACT: control_change channel=6 control=11 value=114 time=0.0140845
EXTRACT: control_change channel=6 control=11 value=113 time=0.0140845
EXTRACT: note_on channel=9 note=44 velocity=0 time=0.0140845
EXTRACT: note_on channel=9 note=31 velocity=0 time=0
EXTRACT: note_on channel=9 note=33 velocity=0 time=0
EXTRACT: note_on channel=10 note=31 velocity=0 time=0
EXTRACT: control_change channel=6 control=11 value=112 time=0.00704225
EXTRACT: control_change channel=6 control=11 value=111 time=0.0140845
EXTRACT: control_change channel=6 control=11 value=110 time=0.02112675
EXTRACT: control_change channel=6 control=11 value=109 time=0.0140845
EXTRACT: control_change channel=6 control=11 value=108 time=0.028169
EXTRACT: control_change channel=6 control=11 value=107 time=0.0140845
EXTRACT: note_on channel=4 note=68 velocity=73 time=0.00704225
EXTRACT: note_on channel=9 note=82 velocity=35 time=0
EXTRACT: control_change channel=6 control=11 value=106 time=0.00704225
EXTRACT: control_change channel=6 control=11 value=105 time=0.02112675
EXTRACT: control_change channel=6 control=11 value=104 time=0.0140845
EXTRACT: control_change channel=6 control=11 value=103 time=0.02112675
EXTRACT: control_change channel=6 control=11 value=102 time=0.0140845
EXTRACT: control_change channel=6 control=11 value=101 time=0.0140845
EXTRACT: note_on channel=9 note=82 velocity=0 time=0.0140845
EXTRACT: control_change channel=6 control=11 value=100 time=0.00704225
EXTRACT: control_change channel=11 control=11 value=127 time=0
EXTRACT: control_change channel=6 control=11 value=99 time=0.02112675
EXTRACT: control_change channel=6 control=11 value=98 time=0.02112675
EXTRACT: control_change channel=6 control=11 value=97 time=0.0140845
EXTRACT: control_change channel=6 control=11 value=96 time=0.02112675
EXTRACT: control_change channel=6 control=11 value=95 time=0.0140845
EXTRACT: note_on channel=4 note=64 velocity=0 time=0.00704225
EXTRACT: note_on channel=9 note=44 velocity=80 time=0
EXTRACT: note_on channel=9 note=33 velocity=83 time=0
EXTRACT: note_on channel=11 note=57 velocity=106 time=0
EXTRACT: control_change channel=6 control=11 value=94 time=0.00704225
EXTRACT: control_change channel=6 control=11 value=93 time=0.02112675
EXTRACT: control_change channel=6 control=11 value=92 time=0.0140845
EXTRACT: control_change channel=6 control=11 value=91 time=0.02112675
EXTRACT: control_change channel=6 control=11 value=90 time=0.02112675
EXTRACT: control_change channel=6 control=11 value=89 time=0.02112675
EXTRACT: note_on channel=9 note=33 velocity=0 time=0
EXTRACT: note_on channel=9 note=44 velocity=0 time=0
EXTRACT: control_change channel=6 control=11 value=88 time=0.0140845
EXTRACT: control_change channel=6 control=11 value=87 time=0.0140845
EXTRACT: control_change channel=6 control=11 value=86 time=0.02112675
EXTRACT: control_change channel=6 control=11 value=85 time=0.0140845
EXTRACT: control_change channel=6 control=11 value=84 time=0.02112675
EXTRACT: control_change channel=6 control=11 value=83 time=0.0140845
EXTRACT: note_on channel=4 note=68 velocity=0 time=0.00704225
EXTRACT: note_on channel=4 note=61 velocity=0 time=0
EXTRACT: note_on channel=4 note=64 velocity=73 time=0
EXTRACT: note_on channel=9 note=82 velocity=35 time=0
EXTRACT: note_on channel=9 note=33 velocity=127 time=0
EXTRACT: note_on channel=11 note=57 velocity=0 time=0
EXTRACT: note_on channel=11 note=62 velocity=127 time=0
EXTRACT: control_change channel=6 control=11 value=82 time=0.00704225
EXTRACT: pitchwheel channel=11 pitch=8064 time=0
EXTRACT: pitchwheel channel=11 pitch=7808 time=0.0140845
EXTRACT: control_change channel=6 control=11 value=81 time=0.0140845
EXTRACT: pitchwheel channel=11 pitch=7680 time=0.00704225
EXTRACT: control_change channel=6 control=11 value=80 time=0.00704225
EXTRACT: pitchwheel channel=11 pitch=7552 time=0.00704225
EXTRACT: pitchwheel channel=11 pitch=7424 time=0.00704225
EXTRACT: control_change channel=6 control=11 value=79 time=0.00704225
EXTRACT: pitchwheel channel=11 pitch=7296 time=0.00704225
EXTRACT: control_change channel=6 control=11 value=78 time=0.00704225
EXTRACT: pitchwheel channel=11 pitch=7168 time=0
EXTRACT: pitchwheel channel=11 pitch=7040 time=0.00704225
EXTRACT: pitchwheel channel=11 pitch=6912 time=0.00704225
EXTRACT: control_change channel=6 control=11 value=77 time=0.00704225
EXTRACT: note_on channel=9 note=33 velocity=0 time=0
EXTRACT: note_on channel=9 note=82 velocity=0 time=0
EXTRACT: pitchwheel channel=11 pitch=6784 time=0
EXTRACT: control_change channel=6 control=11 value=76 time=0.0140845
EXTRACT: pitchwheel channel=11 pitch=6656 time=0
EXTRACT: pitchwheel channel=11 pitch=6272 time=0.00704225
EXTRACT: control_change channel=6 control=11 value=75 time=0.00704225
EXTRACT: pitchwheel channel=11 pitch=6016 time=0
EXTRACT: pitchwheel channel=11 pitch=5760 time=0.00704225
EXTRACT: pitchwheel channel=11 pitch=5376 time=0.00704225
EXTRACT: control_change channel=6 control=11 value=74 time=0.00704225
EXTRACT: pitchwheel channel=11 pitch=4864 time=0.00704225
EXTRACT: control_change channel=6 control=11 value=73 time=0.00704225
EXTRACT: pitchwheel channel=11 pitch=4480 time=0
EXTRACT: pitchwheel channel=11 pitch=4096 time=0.00704225
EXTRACT: pitchwheel channel=11 pitch=3072 time=0.00704225
EXTRACT: pitchwheel channel=11 pitch=2048 time=0.00704225
EXTRACT: control_change channel=6 control=11 value=72 time=0.00704225
EXTRACT: pitchwheel channel=11 pitch=256 time=0.00704225
EXTRACT: note_on channel=1 note=56 velocity=0 time=0.00704225
EXTRACT: note_on channel=1 note=61 velocity=0 time=0
EXTRACT: note_on channel=1 note=56 velocity=78 time=0
EXTRACT: note_on channel=1 note=59 velocity=78 time=0
EXTRACT: note_on channel=2 note=61 velocity=0 time=0
EXTRACT: note_on channel=2 note=68 velocity=0 time=0
EXTRACT: note_on channel=2 note=59 velocity=57 time=0
EXTRACT: note_on channel=2 note=64 velocity=57 time=0
EXTRACT: note_on channel=2 note=71 velocity=57 time=0
EXTRACT: note_on channel=4 note=64 velocity=0 time=0
EXTRACT: note_on channel=4 note=71 velocity=73 time=0
EXTRACT: note_on channel=5 note=64 velocity=0 time=0
EXTRACT: note_on channel=5 note=68 velocity=0 time=0
EXTRACT: note_on channel=5 note=61 velocity=0 time=0
EXTRACT: note_on channel=5 note=64 velocity=43 time=0
EXTRACT: note_on channel=5 note=61 velocity=43 time=0
EXTRACT: note_on channel=5 note=71 velocity=43 time=0
EXTRACT: control_change channel=6 control=11 value=71 time=0
EXTRACT: note_on channel=7 note=37 velocity=0 time=0
EXTRACT: note_on channel=7 note=40 velocity=57 time=0
EXTRACT: note_on channel=9 note=44 velocity=80 time=0
EXTRACT: control_change channel=6 control=11 value=70 time=0.02112675
EXTRACT: control_change channel=6 control=11 value=69 time=0.0140845
EXTRACT: control_change channel=6 control=11 value=68 time=0.0140845
EXTRACT: control_change channel=6 control=11 value=67 time=0.02112675
EXTRACT: control_change channel=6 control=11 value=66 time=0.0140845
EXTRACT: control_change channel=6 control=11 value=65 time=0.02112675
EXTRACT: note_on channel=9 note=44 velocity=0 time=0
EXTRACT: control_change channel=6 control=11 value=64 time=0.0140845
EXTRACT: control_change channel=6 control=11 value=63 time=0.028169
EXTRACT: control_change channel=6 control=11 value=62 time=0.0140845
EXTRACT: control_change channel=6 control=11 value=61 time=0.0140845
EXTRACT: control_change channel=6 control=11 value=60 time=0.02112675
EXTRACT: control_change channel=6 control=11 value=59 time=0.0140845
EXTRACT: note_on channel=9 note=33 velocity=127 time=0
EXTRACT: note_on channel=9 note=82 velocity=35 time=0
EXTRACT: note_on channel=11 note=62 velocity=0 time=0
EXTRACT: note_on channel=11 note=62 velocity=127 time=0
EXTRACT: control_change channel=6 control=11 value=58 time=0.02112675
EXTRACT: control_change channel=6 control=11 value=57 time=0.0140845
EXTRACT: control_change channel=6 control=11 value=56 time=0.0140845
EXTRACT: control_change channel=6 control=11 value=55 time=0.02112675
EXTRACT: control_change channel=6 control=11 value=54 time=0.02112675
EXTRACT: note_on channel=9 note=82 velocity=0 time=0.0140845
EXTRACT: note_on channel=9 note=33 velocity=0 time=0
EXTRACT: control_change channel=6 control=11 value=53 time=0.00704225
EXTRACT: control_change channel=6 control=11 value=52 time=0.0140845
EXTRACT: control_change channel=6 control=11 value=51 time=0.02112675
EXTRACT: control_change channel=6 control=11 value=50 time=0.0140845
EXTRACT: control_change channel=6 control=11 value=49 time=0.0140845
EXTRACT: control_change channel=6 control=11 value=48 time=0.02112675
EXTRACT: note_on channel=4 note=64 velocity=73 time=0.0140845
EXTRACT: control_change channel=6 control=11 value=47 time=0
EXTRACT: note_on channel=8 note=37 velocity=0 time=0
EXTRACT: note_on channel=8 note=40 velocity=123 time=0
EXTRACT: note_on channel=9 note=33 velocity=127 time=0
EXTRACT: note_on channel=9 note=44 velocity=80 time=0
EXTRACT: note_on channel=11 note=62 velocity=0 time=0
EXTRACT: note_on channel=11 note=62 velocity=127 time=0
EXTRACT: control_change channel=6 control=11 value=46 time=0.02112675
EXTRACT: control_change channel=6 control=11 value=45 time=0.02112675
EXTRACT: control_change channel=6 control=11 value=44 time=0.02112675
EXTRACT: control_change channel=6 control=11 value=43 time=0.0140845
EXTRACT: control_change channel=6 control=11 value=42 time=0.0140845
EXTRACT: note_on channel=9 note=44 velocity=0 time=0.0140845
EXTRACT: note_on channel=9 note=33 velocity=0 time=0
EXTRACT: control_change channel=6 control=11 value=41 time=0.00704225
EXTRACT: control_change channel=6 control=11 value=40 time=0.0140845
EXTRACT: control_change channel=6 control=11 value=39 time=0.02112675
EXTRACT: control_change channel=6 control=11 value=38 time=0.0140845
EXTRACT: control_change channel=6 control=11 value=37 time=0.0140845
EXTRACT: control_change channel=6 control=11 value=36 time=0.028169
EXTRACT: note_on channel=4 note=71 velocity=0 time=0.00704225
EXTRACT: note_on channel=9 note=82 velocity=35 time=0
EXTRACT: note_on channel=9 note=33 velocity=42 time=0
EXTRACT: control_change channel=6 control=11 value=35 time=0.00704225
EXTRACT: control_change channel=6 control=11 value=34 time=0.02112675
EXTRACT: control_change channel=6 control=11 value=33 time=0.0140845
EXTRACT: control_change channel=6 control=11 value=32 time=0.02112675
EXTRACT: control_change channel=6 control=11 value=31 time=0.0140845
EXTRACT: control_change channel=6 control=11 value=30 time=0.0140845
EXTRACT: note_on channel=9 note=33 velocity=0 time=0.0140845
EXTRACT: note_on channel=9 note=82 velocity=0 time=0
EXTRACT: control_change channel=6 control=11 value=29 time=0.00704225
EXTRACT: control_change channel=6 control=11 value=28 time=0.0140845
EXTRACT: control_change channel=6 control=11 value=27 time=0.028169
EXTRACT: control_change channel=6 control=11 value=26 time=0.0140845
EXTRACT: control_change channel=6 control=11 value=25 time=0.02112675
EXTRACT: control_change channel=6 control=11 value=24 time=0.0140845
EXTRACT: note_on channel=9 note=33 velocity=127 time=0.00704225
EXTRACT: note_on channel=9 note=44 velocity=80 time=0
EXTRACT: note_on channel=9 note=31 velocity=127 time=0
EXTRACT: note_on channel=10 note=31 velocity=73 time=0
EXTRACT: note_on channel=11 note=62 velocity=0 time=0
EXTRACT: note_on channel=11 note=62 velocity=127 time=0
EXTRACT: control_change channel=6 control=11 value=23 time=0.00704225
EXTRACT: control_change channel=6 control=11 value=22 time=0.02112675
EXTRACT: control_change channel=6 control=11 value=21 time=0.0140845
EXTRACT: control_change channel=6 control=11 value=20 time=0.02112675
EXTRACT: control_change channel=6 control=11 value=19 time=0.0140845
EXTRACT: control_change channel=6 control=11 value=18 time=0.028169
EXTRACT: note_on channel=9 note=31 velocity=0 time=0
EXTRACT: note_on channel=9 note=44 velocity=0 time=0
EXTRACT: note_on channel=9 note=33 velocity=0 time=0
EXTRACT: note_on channel=10 note=31 velocity=0 time=0
EXTRACT: control_change channel=6 control=11 value=17 time=0.0140845
EXTRACT: control_change channel=6 control=11 value=16 time=0.0140845
EXTRACT: control_change channel=6 control=11 value=15 time=0.02112675
EXTRACT: control_change channel=6 control=11 value=14 time=0.0140845
EXTRACT: control_change channel=6 control=11 value=13 time=0.02112675
EXTRACT: control_change channel=6 control=11 value=12 time=0.0140845
EXTRACT: note_on channel=4 note=64 velocity=0 time=0.00704225
EXTRACT: note_on channel=9 note=82 velocity=35 time=0
EXTRACT: control_change channel=6 control=11 value=11 time=0.00704225
EXTRACT: control_change channel=6 control=11 value=10 time=0.02112675
EXTRACT: control_change channel=6 control=11 value=9 time=0.02112675
EXTRACT: control_change channel=8 control=91 value=0 time=0.00704225
EXTRACT: control_change channel=6 control=11 value=8 time=0.0140845
EXTRACT: note_on channel=11 note=62 velocity=0 time=0
EXTRACT: note_on channel=11 note=62 velocity=127 time=0
EXTRACT: control_change channel=6 control=11 value=7 time=0.0140845
EXTRACT: control_change channel=6 control=11 value=6 time=0.02112675
EXTRACT: note_on channel=9 note=82 velocity=0 time=0
EXTRACT: control_change channel=6 control=11 value=5 time=0.0140845
EXTRACT: control_change channel=6 control=11 value=4 time=0.0140845
EXTRACT: control_change channel=6 control=11 value=3 time=0.02112675
EXTRACT: control_change channel=6 control=11 value=2 time=0.0140845
EXTRACT: control_change channel=6 control=11 value=1 time=0.02112675
EXTRACT: control_change channel=6 control=11 value=0 time=0.0140845
EXTRACT: note_on channel=9 note=44 velocity=80 time=0.00704225
EXTRACT: note_on channel=9 note=44 velocity=0 time=0.10563375
EXTRACT: note_on channel=11 note=62 velocity=0 time=0.02112675
EXTRACT: note_on channel=11 note=61 velocity=127 time=0.0140845
EXTRACT: note_on channel=9 note=82 velocity=35 time=0.0704225
EXTRACT: note_on channel=1 note=56 velocity=0 time=0.03521125
EXTRACT: note_on channel=1 note=59 velocity=0 time=0.03521125
EXTRACT: note_on channel=9 note=82 velocity=0 time=0.03521125
EXTRACT: note_on channel=1 note=57 velocity=75 time=0.02112675
EXTRACT: note_on channel=1 note=61 velocity=75 time=0
EXTRACT: note_on channel=6 note=64 velocity=0 time=0.00704225
EXTRACT: control_change channel=11 control=11 value=125 time=0.04929575
EXTRACT: control_change channel=11 control=1 value=3 time=0.02112675
EXTRACT: note_on channel=1 note=49 velocity=0 time=0.00704225
EXTRACT: note_on channel=2 note=71 velocity=0 time=0
EXTRACT: note_on channel=2 note=64 velocity=0 time=0
EXTRACT: note_on channel=2 note=59 velocity=0 time=0
EXTRACT: note_on channel=2 note=64 velocity=47 time=0
EXTRACT: note_on channel=2 note=69 velocity=47 time=0
EXTRACT: note_on channel=2 note=73 velocity=47 time=0
EXTRACT: note_on channel=5 note=71 velocity=0 time=0
EXTRACT: note_on channel=5 note=61 velocity=0 time=0
EXTRACT: note_on channel=5 note=64 velocity=0 time=0
EXTRACT: note_on channel=5 note=64 velocity=57 time=0
EXTRACT: note_on channel=5 note=69 velocity=57 time=0
EXTRACT: note_on channel=5 note=73 velocity=57 time=0
EXTRACT: note_on channel=7 note=40 velocity=0 time=0
EXTRACT: note_on channel=8 note=40 velocity=0 time=0
EXTRACT: note_on channel=8 note=33 velocity=123 time=0
EXTRACT: note_on channel=9 note=44 velocity=80 time=0
EXTRACT: note_on channel=9 note=33 velocity=127 time=0
EXTRACT: note_on channel=11 note=61 velocity=0 time=0
EXTRACT: note_on channel=11 note=61 velocity=127 time=0
EXTRACT: note_on channel=4 note=69 velocity=60 time=0.00704225
EXTRACT: control_change channel=11 control=1 value=5 time=0
EXTRACT: control_change channel=11 control=1 value=6 time=0.00704225
EXTRACT: control_change channel=11 control=1 value=7 time=0.02112675
EXTRACT: control_change channel=11 control=1 value=9 time=0.00704225
EXTRACT: control_change channel=11 control=11 value=124 time=0.0140845
EXTRACT: control_change channel=11 control=1 value=11 time=0
EXTRACT: control_change channel=11 control=1 value=15 time=0.02112675
EXTRACT: control_change channel=11 control=1 value=17 time=0.0140845
EXTRACT: control_change channel=11 control=11 value=123 time=0.00704225
EXTRACT: control_change channel=11 control=1 value=23 time=0
EXTRACT: note_on channel=9 note=33 velocity=0 time=0.00704225
EXTRACT: note_on channel=9 note=44 velocity=0 time=0
EXTRACT: control_change channel=11 control=1 value=29 time=0.0140845
EXTRACT: control_change channel=11 control=1 value=35 time=0.00704225
EXTRACT: control_change channel=11 control=1 value=43 time=0.0140845
EXTRACT: control_change channel=11 control=11 value=122 time=0.00704225
EXTRACT: control_change channel=11 control=1 value=49 time=0
EXTRACT: control_change channel=11 control=1 value=59 time=0.02112675
EXTRACT: control_change channel=11 control=1 value=65 time=0.0140845
EXTRACT: control_change channel=11 control=11 value=121 time=0.02112675
EXTRACT: control_change channel=11 control=1 value=73 time=0
EXTRACT: note_on channel=9 note=82 velocity=35 time=0.00704225
EXTRACT: control_change channel=11 control=1 value=79 time=0
EXTRACT: control_change channel=11 control=1 value=87 time=0.00704225
EXTRACT: control_change channel=11 control=1 value=93 time=0.0140845
EXTRACT: control_change channel=11 control=1 value=97 time=0.0140845
EXTRACT: control_change channel=11 control=1 value=99 time=0.00704225
EXTRACT: control_change channel=11 control=11 value=120 time=0.0140845
EXTRACT: control_change channel=11 control=1 value=101 time=0
EXTRACT: control_change channel=11 control=1 value=104 time=0.00704225
EXTRACT: control_change channel=11 control=1 value=106 time=0.0140845
EXTRACT: control_change channel=11 control=11 value=119 time=0.0140845
EXTRACT: control_change channel=11 control=1 value=108 time=0
EXTRACT: control_change channel=11 control=11 value=118 time=0.00704225
EXTRACT: control_change channel=11 control=1 value=109 time=0
EXTRACT: note_on channel=9 note=82 velocity=0 time=0.00704225
EXTRACT: control_change channel=11 control=1 value=110 time=0
EXTRACT: control_change channel=11 control=11 value=117 time=0.0140845
EXTRACT: control_change channel=11 control=1 value=112 time=0
EXTRACT: control_change channel=11 control=1 value=114 time=0.0140845
EXTRACT: control_change channel=11 control=11 value=116 time=0.00704225
EXTRACT: control_change channel=11 control=1 value=116 time=0
EXTRACT: control_change channel=11 control=11 value=115 time=0.02112675
EXTRACT: control_change channel=11 control=1 value=117 time=0
EXTRACT: control_change channel=11 control=11 value=114 time=0.00704225
EXTRACT: control_change channel=11 control=1 value=118 time=0
EXTRACT: control_change channel=11 control=11 value=113 time=0.00704225
EXTRACT: control_change channel=11 control=1 value=119 time=0.00704225
EXTRACT: note_on channel=4 note=64 velocity=55 time=0.00704225
EXTRACT: control_change channel=11 control=11 value=112 time=0
EXTRACT: control_change channel=11 control=1 value=120 time=0
EXTRACT: control_change channel=11 control=11 value=110 time=0.0140845
EXTRACT: note_on channel=9 note=44 velocity=80 time=0.00704225
EXTRACT: control_change channel=11 control=11 value=109 time=0
EXTRACT: control_change channel=11 control=1 value=121 time=0
EXTRACT: control_change channel=11 control=11 value=107 time=0.0140845
EXTRACT: control_change channel=11 control=1 value=122 time=0
EXTRACT: control_change channel=11 control=11 value=106 time=0.00704225
EXTRACT: control_change channel=11 control=11 value=105 time=0.0140845
EXTRACT: control_change channel=11 control=1 value=123 time=0.00704225
EXTRACT: control_change channel=11 control=11 value=103 time=0.00704225
EXTRACT: control_change channel=11 control=1 value=124 time=0
EXTRACT: control_change channel=11 control=11 value=102 time=0.00704225
EXTRACT: control_change channel=11 control=11 value=100 time=0.00704225
EXTRACT: control_change channel=11 control=1 value=125 time=0
EXTRACT: control_change channel=11 control=11 value=99 time=0.02112675
EXTRACT: control_change channel=11 control=11 value=98 time=0.00704225
EXTRACT: control_change channel=11 control=1 value=126 time=0
EXTRACT: control_change channel=11 control=11 value=97 time=0.00704225
EXTRACT: note_on channel=9 note=44 velocity=0 time=0.00704225
EXTRACT: control_change channel=11 control=1 value=127 time=0
EXTRACT: control_change channel=11 control=11 value=96 time=0.0140845
EXTRACT: control_change channel=11 control=11 value=93 time=0.00704225
EXTRACT: control_change channel=11 control=11 value=92 time=0.0140845
EXTRACT: control_change channel=11 control=11 value=90 time=0.00704225
EXTRACT: control_change channel=11 control=11 value=89 time=0.0140845
EXTRACT: control_change channel=11 control=11 value=88 time=0.00704225
EXTRACT: control_change channel=11 control=11 value=87 time=0.00704225
EXTRACT: control_change channel=11 control=11 value=86 time=0.00704225
EXTRACT: control_change channel=11 control=11 value=84 time=0.00704225
EXTRACT: control_change channel=11 control=11 value=83 time=0.0140845
EXTRACT: note_on channel=4 note=61 velocity=56 time=0.00704225
EXTRACT: note_on channel=9 note=82 velocity=35 time=0
EXTRACT: note_on channel=11 note=61 velocity=0 time=0
EXTRACT: control_change channel=11 control=11 value=82 time=0
EXTRACT: control_change channel=11 control=11 value=81 time=0.00704225
EXTRACT: control_change channel=11 control=11 value=79 time=0.00704225
EXTRACT: control_change channel=11 control=11 value=78 time=0.00704225
EXTRACT: note_on channel=9 note=82 velocity=0 time=0.084507
EXTRACT: control_change channel=11 control=1 value=0 time=0
EXTRACT: note_on channel=8 note=33 velocity=0 time=0.10563375
EXTRACT: note_on channel=8 note=33 velocity=123 time=0
EXTRACT: note_on channel=9 note=31 velocity=127 time=0
EXTRACT: note_on channel=9 note=44 velocity=80 time=0
EXTRACT: note_on channel=9 note=33 velocity=127 time=0
EXTRACT: note_on channel=10 note=31 velocity=73 time=0
EXTRACT: note_on channel=4 note=69 velocity=0 time=0.00704225
EXTRACT: control_change channel=11 control=11 value=127 time=0.0140845
EXTRACT: note_on channel=9 note=33 velocity=0 time=0.084507
EXTRACT: note_on channel=9 note=44 velocity=0 time=0
EXTRACT: note_on channel=9 note=31 velocity=0 time=0
EXTRACT: note_on channel=10 note=31 velocity=0 time=0
EXTRACT: note_on channel=4 note=69 velocity=73 time=0.10563375
EXTRACT: note_on channel=9 note=82 velocity=35 time=0
EXTRACT: note_on channel=9 note=82 velocity=0 time=0.10563375
EXTRACT: note_on channel=4 note=64 velocity=0 time=0.084507
EXTRACT: note_on channel=6 note=64 velocity=100 time=0.0140845
EXTRACT: note_on channel=9 note=44 velocity=80 time=0.00704225
EXTRACT: note_on channel=11 note=59 velocity=127 time=0
EXTRACT: note_on channel=9 note=44 velocity=0 time=0.10563375
EXTRACT: control_change channel=6 control=1 value=72 time=0.0140845
EXTRACT: note_on channel=4 note=61 velocity=0 time=0.09154925
EXTRACT: note_on channel=8 note=33 velocity=0 time=0
EXTRACT: note_on channel=8 note=33 velocity=123 time=0
EXTRACT: note_on channel=9 note=33 velocity=127 time=0
EXTRACT: note_on channel=9 note=82 velocity=35 time=0
EXTRACT: note_on channel=11 note=59 velocity=0 time=0.0704225
EXTRACT: note_on channel=11 note=61 velocity=127 time=0
EXTRACT: note_on channel=9 note=82 velocity=0 time=0.03521125
EXTRACT: note_on channel=9 note=33 velocity=0 time=0
EXTRACT: note_on channel=1 note=57 velocity=0 time=0.04929575
EXTRACT: note_on channel=1 note=54 velocity=78 time=0
EXTRACT: control_change channel=6 control=11 value=2 time=0.00704225
EXTRACT: control_change channel=6 control=11 value=3 time=0.00704225
EXTRACT: control_change channel=6 control=11 value=4 time=0.028169
EXTRACT: note_on channel=2 note=73 velocity=0 time=0.0140845
EXTRACT: note_on channel=2 note=69 velocity=0 time=0
EXTRACT: note_on channel=2 note=64 velocity=0 time=0
EXTRACT: note_on channel=2 note=61 velocity=47 time=0
EXTRACT: note_on channel=2 note=54 velocity=47 time=0
EXTRACT: note_on channel=2 note=69 velocity=47 time=0
EXTRACT: note_on channel=4 note=69 velocity=0 time=0
EXTRACT: note_on channel=4 note=54 velocity=73 time=0
EXTRACT: note_on channel=4 note=68 velocity=73 time=0
EXTRACT: note_on channel=5 note=73 velocity=0 time=0
EXTRACT: note_on channel=5 note=69 velocity=0 time=0
EXTRACT: note_on channel=5 note=64 velocity=0 time=0
EXTRACT: note_on channel=5 note=61 velocity=57 time=0
EXTRACT: note_on channel=5 note=66 velocity=57 time=0
EXTRACT: note_on channel=5 note=73 velocity=57 time=0
EXTRACT: control_change channel=6 control=11 value=5 time=0
EXTRACT: note_on channel=8 note=33 velocity=0 time=0
EXTRACT: note_on channel=8 note=30 velocity=123 time=0
EXTRACT: note_on channel=9 note=44 velocity=80 time=0
EXTRACT: control_change channel=6 control=11 value=6 time=0.02112675
EXTRACT: control_change channel=6 control=11 value=7 time=0.02112675
EXTRACT: control_change channel=6 control=11 value=8 time=0.02112675
EXTRACT: control_change channel=6 control=11 value=9 time=0.0140845
EXTRACT: control_change channel=6 control=11 value=10 time=0.028169
EXTRACT: note_on channel=9 note=44 velocity=0 time=0
EXTRACT: control_change channel=6 control=11 value=11 time=0.0140845
EXTRACT: control_change channel=6 control=11 value=12 time=0.0140845
EXTRACT: control_change channel=6 control=11 value=13 time=0.028169
EXTRACT: control_change channel=6 control=11 value=14 time=0.0140845
EXTRACT: control_change channel=6 control=11 value=15 time=0.02112675
EXTRACT: control_change channel=6 control=11 value=16 time=0.0140845
EXTRACT: note_on channel=9 note=82 velocity=35 time=0
EXTRACT: note_on channel=9 note=33 velocity=49 time=0
EXTRACT: control_change channel=6 control=11 value=17 time=0.028169
EXTRACT: control_change channel=6 control=11 value=18 time=0.0140845
EXTRACT: control_change channel=6 control=11 value=19 time=0.02112675
EXTRACT: note_on channel=11 note=61 velocity=0 time=0.00704225
EXTRACT: note_on channel=11 note=61 velocity=126 time=0
EXTRACT: control_change channel=11 control=11 value=127 time=0
EXTRACT: control_change channel=11 control=11 value=126 time=0.00704225
EXTRACT: control_change channel=6 control=11 value=20 time=0.00704225
EXTRACT: control_change channel=11 control=11 value=125 time=0.00704225
EXTRACT: control_change channel=11 control=11 value=124 time=0.00704225
EXTRACT: control_change channel=6 control=11 value=21 time=0.00704225
EXTRACT: note_on channel=9 note=33 velocity=0 time=0
EXTRACT: note_on channel=9 note=82 velocity=0 time=0
EXTRACT: control_change channel=11 control=11 value=123 time=0.00704225
EXTRACT: control_change channel=6 control=11 value=22 time=0.00704225
EXTRACT: control_change channel=11 control=11 value=122 time=0.0140845
EXTRACT: control_change channel=11 control=11 value=121 time=0.00704225
EXTRACT: control_change channel=6 control=11 value=23 time=0.00704225
EXTRACT: control_change channel=6 control=11 value=24 time=0.0140845
EXTRACT: control_change channel=6 control=11 value=25 time=0.0140845
EXTRACT: control_change channel=11 control=11 value=120 time=0.0140845
EXTRACT: control_change channel=6 control=11 value=26 time=0.0140845
EXTRACT: note_on channel=9 note=33 velocity=127 time=0.00704225
EXTRACT: note_on channel=9 note=44 velocity=80 time=0
EXTRACT: control_change channel=6 control=11 value=27 time=0.00704225
EXTRACT: control_change channel=6 control=11 value=28 time=0.02112675
EXTRACT: control_change channel=11 control=11 value=119 time=0
EXTRACT: control_change channel=6 control=11 value=29 time=0.0140845
EXTRACT: control_change channel=6 control=11 value=30 time=0.028169
EXTRACT: control_change channel=6 control=11 value=31 time=0.0140845
EXTRACT: control_change channel=11 control=11 value=117 time=0.0140845
EXTRACT: control_change channel=6 control=11 value=32 time=0.00704225
EXTRACT: note_on channel=9 note=44 velocity=0 time=0
EXTRACT: note_on channel=9 note=33 velocity=0 time=0
EXTRACT: control_change channel=6 control=11 value=33 time=0.02112675
EXTRACT: control_change channel=6 control=11 value=34 time=0.02112675
EXTRACT: control_change channel=11 control=11 value=116 time=0
EXTRACT: control_change channel=6 control=11 value=35 time=0.0140845
EXTRACT: control_change channel=11 control=11 value=115 time=0
EXTRACT: control_change channel=6 control=11 value=36 time=0.028169
EXTRACT: control_change channel=6 control=11 value=37 time=0.0140845
EXTRACT: note_on channel=9 note=82 velocity=35 time=0.00704225
EXTRACT: control_change channel=6 control=11 value=38 time=0.00704225
EXTRACT: control_change channel=11 control=11 value=114 time=0.00704225
EXTRACT: control_change channel=11 control=11 value=112 time=0.0140845
EXTRACT: control_change channel=6 control=11 value=39 time=0.00704225
EXTRACT: control_change channel=6 control=11 value=40 time=0.0140845
EXTRACT: control_change channel=6 control=11 value=41 time=0.02112675
EXTRACT: control_change channel=6 control=11 value=42 time=0.0140845
EXTRACT: control_change channel=11 control=11 value=104 time=0.0140845
EXTRACT: note_on channel=9 note=82 velocity=0 time=0.00704225
EXTRACT: control_change channel=6 control=11 value=43 time=0.00704225
EXTRACT: control_change channel=6 control=11 value=44 time=0.0140845
EXTRACT: control_change channel=6 control=11 value=45 time=0.02112675
EXTRACT: control_change channel=11 control=11 value=103 time=0
EXTRACT: control_change channel=6 control=94 value=56 time=0.0140845
EXTRACT: control_change channel=6 control=11 value=46 time=0.00704225
EXTRACT: control_change channel=6 control=11 value=47 time=0.02112675
EXTRACT: control_change channel=6 control=11 value=48 time=0.0140845
EXTRACT: note_on channel=8 note=30 velocity=0 time=0.00704225
EXTRACT: note_on channel=8 note=30 velocity=123 time=0
EXTRACT: note_on channel=9 note=33 velocity=127 time=0
EXTRACT: note_on channel=9 note=44 velocity=80 time=0
EXTRACT: note_on channel=9 note=31 velocity=127 time=0
EXTRACT: note_on channel=10 note=31 velocity=73 time=0
EXTRACT: control_change channel=11 control=11 value=100 time=0.00704225
EXTRACT: control_change channel=6 control=11 value=49 time=0.0140845
EXTRACT: control_change channel=11 control=11 value=99 time=0
EXTRACT: control_change channel=6 control=11 value=50 time=0.0140845
EXTRACT: control_change channel=11 control=11 value=97 time=0
EXTRACT: control_change channel=6 control=11 value=51 time=0.0140845
EXTRACT: control_change channel=11 control=11 value=96 time=0.00704225
EXTRACT: control_change channel=11 control=11 value=95 time=0.0140845
EXTRACT: control_change channel=6 control=11 value=52 time=0.00704225
EXTRACT: control_change channel=11 control=11 value=93 time=0
EXTRACT: control_change channel=6 control=11 value=53 time=0.0140845
EXTRACT: control_change channel=11 control=11 value=92 time=0.00704225
EXTRACT: note_on channel=9 note=31 velocity=0 time=0.00704225
EXTRACT: note_on channel=9 note=44 velocity=0 time=0
EXTRACT: note_on channel=9 note=33 velocity=0 time=0
EXTRACT: note_on channel=10 note=31 velocity=0 time=0
EXTRACT: control_change channel=11 control=11 value=91 time=0
EXTRACT: control_change channel=6 control=11 value=54 time=0.00704225
EXTRACT: control_change channel=11 control=11 value=90 time=0.00704225
EXTRACT: control_change channel=6 control=11 value=55 time=0.00704225
EXTRACT: control_change channel=11 control=11 value=89 time=0.00704225
EXTRACT: control_change channel=11 control=11 value=88 time=0.00704225
EXTRACT: control_change channel=11 control=11 value=87 time=0.00704225
EXTRACT: control_change channel=6 control=11 value=56 time=0.00704225
EXTRACT: control_change channel=6 control=11 value=57 time=0.0140845
EXTRACT: control_change channel=11 control=11 value=86 time=0.00704225
EXTRACT: control_change channel=11 control=11 value=85 time=0.00704225
EXTRACT: control_change channel=6 control=11 value=58 time=0.00704225
EXTRACT: control_change channel=11 control=11 value=84 time=0.0140845
EXTRACT: control_change channel=6 control=11 value=59 time=0.00704225
EXTRACT: note_on channel=9 note=82 velocity=35 time=0
EXTRACT: control_change channel=6 control=11 value=60 time=0.02112675
EXTRACT: control_change channel=11 control=11 value=83 time=0.00704225
EXTRACT: control_change channel=6 control=11 value=61 time=0.00704225
EXTRACT: control_change channel=6 control=11 value=62 time=0.028169
EXTRACT: control_change channel=11 control=11 value=126 time=0
EXTRACT: note_on channel=11 note=61 velocity=0 time=0.00704225
EXTRACT: note_on channel=11 note=57 velocity=127 time=0
EXTRACT: control_change channel=6 control=11 value=63 time=0.00704225
EXTRACT: control_change channel=6 control=11 value=64 time=0.0140845
EXTRACT: control_change channel=11 control=11 value=122 time=0
EXTRACT: note_on channel=9 note=82 velocity=0 time=0.0140845
EXTRACT: control_change channel=6 control=11 value=65 time=0.00704225
EXTRACT: control_change channel=11 control=11 value=120 time=0
EXTRACT: control_change channel=11 control=11 value=119 time=0.00704225
EXTRACT: control_change channel=6 control=11 value=66 time=0.0140845
EXTRACT: control_change channel=11 control=11 value=116 time=0
EXTRACT: control_change channel=11 control=11 value=115 time=0.0140845
EXTRACT: control_change channel=6 control=11 value=67 time=0.00704225
EXTRACT: control_change channel=11 control=11 value=114 time=0
EXTRACT: control_change channel=6 control=11 value=68 time=0.0140845
EXTRACT: control_change channel=6 control=11 value=69 time=0.028169
EXTRACT: control_change channel=11 control=11 value=112 time=0.00704225
EXTRACT: note_on channel=4 note=68 velocity=0 time=0.00704225
EXTRACT: note_on channel=4 note=68 velocity=73 time=0
EXTRACT: control_change channel=6 control=11 value=70 time=0
EXTRACT: note_on channel=8 note=30 velocity=0 time=0
EXTRACT: note_on channel=8 note=30 velocity=123 time=0
EXTRACT: note_on channel=9 note=44 velocity=80 time=0
EXTRACT: control_change channel=11 control=11 value=111 time=0.00704225
EXTRACT: control_change channel=6 control=11 value=71 time=0.0140845
EXTRACT: control_change channel=6 control=11 value=72 time=0.02112675
EXTRACT: control_change channel=6 control=11 value=73 time=0.02112675
EXTRACT: control_change channel=11 control=11 value=107 time=0.00704225
EXTRACT: control_change channel=6 control=11 value=74 time=0.00704225
EXTRACT: control_change channel=11 control=11 value=106 time=0.0140845
EXTRACT: control_change channel=6 control=11 value=75 time=0.0140845
EXTRACT: note_on channel=9 note=44 velocity=0 time=0
EXTRACT: control_change channel=11 control=11 value=104 time=0
EXTRACT: control_change channel=6 control=11 value=76 time=0.0140845
EXTRACT: control_change channel=11 control=11 value=103 time=0
EXTRACT: control_change channel=6 control=11 value=77 time=0.0140845
EXTRACT: control_change channel=11 control=11 value=101 time=0.0140845
EXTRACT: control_change channel=6 control=11 value=78 time=0.00704225
EXTRACT: control_change channel=11 control=11 value=100 time=0
EXTRACT: control_change channel=11 control=11 value=99 time=0.00704225
EXTRACT: control_change channel=6 control=11 value=79 time=0.0140845
EXTRACT: control_change channel=11 control=11 value=98 time=0.0140845
EXTRACT: control_change channel=6 control=11 value=80 time=0.00704225
EXTRACT: control_change channel=11 control=11 value=96 time=0
EXTRACT: control_change channel=11 control=11 value=95 time=0.00704225
EXTRACT: note_on channel=4 note=68 velocity=0 time=0.00704225
EXTRACT: note_on channel=4 note=54 velocity=0 time=0
EXTRACT: note_on channel=4 note=64 velocity=73 time=0
EXTRACT: control_change channel=6 control=11 value=81 time=0
EXTRACT: note_on channel=9 note=82 velocity=35 time=0
EXTRACT: control_change channel=11 control=11 value=94 time=0.02112675
EXTRACT: control_change channel=6 control=11 value=82 time=0.00704225
EXTRACT: control_change channel=11 control=11 value=89 time=0.00704225
EXTRACT: control_change channel=6 control=11 value=83 time=0.00704225
EXTRACT: control_change channel=11 control=11 value=86 time=0.00704225
EXTRACT: control_change channel=11 control=11 value=84 time=0.00704225
EXTRACT: control_change channel=6 control=11 value=84 time=0.00704225
EXTRACT: control_change channel=11 control=11 value=80 time=0.00704225
EXTRACT: control_change channel=6 control=11 value=85 time=0.0140845
EXTRACT: control_change channel=11 control=11 value=78 time=0.00704225
EXTRACT: note_on channel=1 note=68 velocity=78 time=0.0140845
EXTRACT: control_change channel=6 control=11 value=86 time=0
EXTRACT: note_on channel=9 note=82 velocity=0 time=0
EXTRACT: control_change channel=11 control=11 value=68 time=0.00704225
EXTRACT: control_change channel=6 control=11 value=87 time=0.00704225
EXTRACT: note_on channel=1 note=61 velocity=0 time=0.00704225
EXTRACT: control_change channel=11 control=11 value=60 time=0.0140845
EXTRACT: control_change channel=6 control=11 value=88 time=0.00704225
EXTRACT: control_change channel=11 control=11 value=58 time=0.00704225
EXTRACT: control_change channel=6 control=11 value=89 time=0.00704225
EXTRACT: control_change channel=11 control=11 value=51 time=0
EXTRACT: note_on channel=1 note=56 velocity=78 time=0.0140845
EXTRACT: note_on channel=1 note=61 velocity=78 time=0
EXTRACT: control_change channel=6 control=11 value=90 time=0
EXTRACT: control_change channel=11 control=11 value=49 time=0
EXTRACT: note_on channel=1 note=54 velocity=0 time=0.00704225
EXTRACT: control_change channel=11 control=11 value=47 time=0
EXTRACT: control_change channel=11 control=11 value=44 time=0.00704225
EXTRACT: control_change channel=6 control=11 value=91 time=0.00704225
EXTRACT: control_change channel=11 control=11 value=39 time=0
EXTRACT: control_change channel=11 control=11 value=37 time=0.00704225
EXTRACT: note_on channel=2 note=69 velocity=0 time=0.00704225
EXTRACT: note_on channel=2 note=54 velocity=0 time=0
EXTRACT: note_on channel=2 note=61 velocity=0 time=0
EXTRACT: note_on channel=2 note=49 velocity=47 time=0
EXTRACT: note_on channel=2 note=64 velocity=47 time=0
EXTRACT: note_on channel=2 note=68 velocity=47 time=0
EXTRACT: note_on channel=4 note=64 velocity=0 time=0
EXTRACT: note_on channel=4 note=68 velocity=73 time=0
EXTRACT: note_on channel=5 note=73 velocity=0 time=0
EXTRACT: note_on channel=5 note=66 velocity=0 time=0
EXTRACT: note_on channel=5 note=64 velocity=57 time=0
EXTRACT: note_on channel=5 note=68 velocity=57 time=0
EXTRACT: note_on channel=7 note=37 velocity=57 time=0
EXTRACT: note_on channel=8 note=30 velocity=0 time=0
EXTRACT: note_on channel=8 note=37 velocity=123 time=0
EXTRACT: note_on channel=9 note=33 velocity=127 time=0
EXTRACT: note_on channel=9 note=46 velocity=40 time=0
EXTRACT: note_on channel=11 note=57 velocity=0 time=0
EXTRACT: note_on channel=11 note=49 velocity=127 time=0
EXTRACT: control_change channel=6 control=11 value=92 time=0.00704225
EXTRACT: control_change channel=11 control=11 value=35 time=0
EXTRACT: control_change channel=11 control=11 value=34 time=0.00704225
EXTRACT: control_change channel=11 control=11 value=39 time=0.00704225
EXTRACT: control_change channel=6 control=11 value=93 time=0.00704225
EXTRACT: control_change channel=11 control=11 value=42 time=0
EXTRACT: control_change channel=6 control=11 value=94 time=0.0140845
EXTRACT: control_change channel=11 control=11 value=46 time=0.00704225
EXTRACT: control_change channel=11 control=11 value=50 time=0.0140845
EXTRACT: control_change channel=6 control=11 value=95 time=0.00704225
EXTRACT: control_change channel=11 control=11 value=52 time=0
EXTRACT: control_change channel=6 control=11 value=96 time=0.0140845
EXTRACT: control_change channel=11 control=11 value=58 time=0.00704225
EXTRACT: control_change channel=6 control=11 value=97 time=0.0140845
EXTRACT: note_on channel=9 note=46 velocity=0 time=0
EXTRACT: note_on channel=9 note=33 velocity=0 time=0
EXTRACT: control_change channel=11 control=11 value=64 time=0
EXTRACT: control_change channel=11 control=11 value=70 time=0.0140845
EXTRACT: control_change channel=6 control=11 value=98 time=0.00704225
EXTRACT: control_change channel=11 control=11 value=72 time=0.00704225
EXTRACT: control_change channel=11 control=11 value=78 time=0.00704225
EXTRACT: control_change channel=6 control=11 value=99 time=0.00704225
EXTRACT: control_change channel=6 control=11 value=100 time=0.0140845
EXTRACT: control_change channel=11 control=11 value=82 time=0
EXTRACT: control_change channel=6 control=11 value=101 time=0.028169
EXTRACT: control_change channel=11 control=11 value=85 time=0
EXTRACT: control_change channel=11 control=11 value=87 time=0.00704225
EXTRACT: control_change channel=6 control=11 value=102 time=0.00704225
EXTRACT: control_change channel=11 control=11 value=88 time=0
EXTRACT: note_on channel=9 note=82 velocity=35 time=0.00704225
EXTRACT: control_change channel=6 control=11 value=103 time=0.00704225
EXTRACT: control_change channel=11 control=11 value=90 time=0
EXTRACT: control_change channel=11 control=11 value=93 time=0.0140845
EXTRACT: control_change channel=6 control=11 value=104 time=0.00704225
EXTRACT: control_change channel=6 control=11 value=105 time=0.02112675
EXTRACT: control_change channel=11 control=11 value=96 time=0
EXTRACT: control_change channel=11 control=11 value=103 time=0.00704225
EXTRACT: control_change channel=6 control=11 value=106 time=0.0140845
EXTRACT: control_change channel=11 control=11 value=107 time=0.00704225
EXTRACT: control_change channel=6 control=11 value=107 time=0.00704225
EXTRACT: control_change channel=11 control=11 value=109 time=0.00704225
EXTRACT: control_change channel=11 control=11 value=112 time=0.00704225
EXTRACT: note_on channel=9 note=82 velocity=0 time=0.00704225
EXTRACT: control_change channel=11 control=11 value=113 time=0
EXTRACT: control_change channel=6 control=11 value=108 time=0.00704225
EXTRACT: control_change channel=11 control=11 value=114 time=0
EXTRACT: control_change channel=11 control=11 value=115 time=0.00704225
EXTRACT: control_change channel=6 control=11 value=109 time=0.00704225
EXTRACT: control_change channel=11 control=11 value=117 time=0.0140845
EXTRACT: control_change channel=6 control=11 value=110 time=0.00704225
EXTRACT: control_change channel=11 control=11 value=119 time=0
EXTRACT: control_change channel=11 control=11 value=120 time=0.00704225
EXTRACT: control_change channel=11 control=11 value=121 time=0.00704225
EXTRACT: control_change channel=6 control=11 value=111 time=0.00704225
EXTRACT: control_change channel=11 control=11 value=123 time=0.0140845
EXTRACT: control_change channel=6 control=11 value=112 time=0.00704225
EXTRACT: control_change channel=11 control=11 value=125 time=0
EXTRACT: control_change channel=6 control=11 value=113 time=0.0140845
EXTRACT: note_on channel=4 note=68 velocity=0 time=0.00704225
EXTRACT: note_on channel=4 note=61 velocity=73 time=0
EXTRACT: note_on channel=9 note=46 velocity=52 time=0
EXTRACT: control_change channel=6 control=11 value=114 time=0.02112675
EXTRACT: control_change channel=6 control=11 value=115 time=0.0140845
EXTRACT: control_change channel=6 control=11 value=116 time=0.0140845
EXTRACT: control_change channel=11 control=11 value=122 time=0.0140845
EXTRACT: control_change channel=6 control=11 value=117 time=0.00704225
EXTRACT: control_change channel=6 control=11 value=118 time=0.02112675
EXTRACT: note_on channel=9 note=46 velocity=0 time=0.0140845
EXTRACT: control_change channel=6 control=11 value=119 time=0.00704225
EXTRACT: control_change channel=11 control=11 value=121 time=0.00704225
EXTRACT: control_change channel=6 control=11 value=120 time=0.00704225
EXTRACT: control_change channel=11 control=11 value=120 time=0.0140845
EXTRACT: control_change channel=6 control=11 value=121 time=0.0140845
EXTRACT: control_change channel=11 control=11 value=118 time=0
EXTRACT: control_change channel=11 control=11 value=115 time=0.00704225
EXTRACT: control_change channel=6 control=11 value=122 time=0.00704225
EXTRACT: control_change channel=11 control=11 value=109 time=0.00704225
EXTRACT: control_change channel=6 control=11 value=123 time=0.0140845
EXTRACT: control_change channel=11 control=11 value=101 time=0.00704225
EXTRACT: control_change channel=11 control=11 value=99 time=0.00704225
EXTRACT: note_on channel=4 note=61 velocity=0 time=0.00704225
EXTRACT: note_on channel=4 note=64 velocity=73 time=0
EXTRACT: control_change channel=6 control=11 value=124 time=0
EXTRACT: note_on channel=9 note=82 velocity=35 time=0
EXTRACT: control_change channel=11 control=11 value=95 time=0.0140845
EXTRACT: control_change channel=6 control=11 value=125 time=0.00704225
EXTRACT: control_change channel=11 control=11 value=92 time=0
EXTRACT: control_change channel=11 control=11 value=89 time=0.00704225
EXTRACT: control_change channel=6 control=11 value=126 time=0.00704225
EXTRACT: control_change channel=6 control=11 value=127 time=0.0140845
EXTRACT: control_change channel=11 control=11 value=85 time=0
EXTRACT: control_change channel=11 control=11 value=77 time=0.00704225
EXTRACT: control_change channel=11 control=11 value=74 time=0.00704225
EXTRACT: control_change channel=11 control=11 value=70 time=0.00704225
EXTRACT: control_change channel=6 control=11 value=126 time=0.00704225
EXTRACT: control_change channel=11 control=11 value=60 time=0
EXTRACT: control_change channel=6 control=11 value=125 time=0.0140845
EXTRACT: control_change channel=11 control=11 value=58 time=0
EXTRACT: control_change channel=11 control=11 value=50 time=0.00704225
EXTRACT: note_on channel=9 note=82 velocity=0 time=0.00704225
EXTRACT: control_change channel=11 control=11 value=46 time=0
EXTRACT: control_change channel=6 control=11 value=124 time=0.00704225
EXTRACT: control_change channel=11 control=11 value=43 time=0
EXTRACT: control_change channel=11 control=11 value=36 time=0.00704225
EXTRACT: control_change channel=6 control=11 value=123 time=0.00704225
EXTRACT: control_change channel=11 control=11 value=30 time=0.00704225
EXTRACT: control_change channel=11 control=11 value=28 time=0.00704225
EXTRACT: control_change channel=6 control=11 value=122 time=0.00704225
EXTRACT: control_change channel=11 control=11 value=23 time=0
EXTRACT: control_change channel=11 control=11 value=19 time=0.00704225
EXTRACT: control_change channel=6 control=11 value=121 time=0.00704225
EXTRACT: control_change channel=11 control=11 value=16 time=0
EXTRACT: control_change channel=6 control=11 value=120 time=0.0140845
EXTRACT: control_change channel=11 control=11 value=10 time=0
EXTRACT: control_change channel=11 control=11 value=3 time=0.0140845
EXTRACT: control_change channel=6 control=11 value=119 time=0.00704225
EXTRACT: control_change channel=11 control=11 value=1 time=0
EXTRACT: control_change channel=11 control=11 value=0 time=0.00704225
EXTRACT: note_on channel=4 note=64 velocity=0 time=0.00704225
EXTRACT: note_on channel=4 note=68 velocity=73 time=0
EXTRACT: control_change channel=6 control=11 value=118 time=0
EXTRACT: note_on channel=8 note=37 velocity=0 time=0
EXTRACT: note_on channel=8 note=37 velocity=123 time=0
EXTRACT: note_on channel=9 note=33 velocity=127 time=0
EXTRACT: note_on channel=9 note=31 velocity=127 time=0
EXTRACT: note_on channel=9 note=46 velocity=64 time=0
EXTRACT: note_on channel=10 note=31 velocity=73 time=0
EXTRACT: note_on channel=11 note=49 velocity=0 time=0
EXTRACT: control_change channel=6 control=11 value=117 time=0.028169
EXTRACT: control_change channel=6 control=11 value=116 time=0.0140845
EXTRACT: control_change channel=6 control=11 value=115 time=0.02112675
EXTRACT: control_change channel=6 control=11 value=114 time=0.0140845
EXTRACT: control_change channel=6 control=11 value=113 time=0.0140845
EXTRACT: note_on channel=9 note=46 velocity=0 time=0.0140845
EXTRACT: note_on channel=9 note=31 velocity=0 time=0
EXTRACT: note_on channel=9 note=33 velocity=0 time=0
EXTRACT: note_on channel=10 note=31 velocity=0 time=0
EXTRACT: control_change channel=6 control=11 value=112 time=0.00704225
EXTRACT: control_change channel=6 control=11 value=111 time=0.0140845
EXTRACT: control_change channel=6 control=11 value=110 time=0.02112675
EXTRACT: control_change channel=6 control=11 value=109 time=0.0140845
EXTRACT: control_change channel=6 control=11 value=108 time=0.028169
EXTRACT: control_change channel=6 control=11 value=107 time=0.0140845
EXTRACT: note_on channel=4 note=68 velocity=0 time=0.00704225
EXTRACT: note_on channel=4 note=68 velocity=73 time=0
EXTRACT: note_on channel=9 note=82 velocity=35 time=0
EXTRACT: control_change channel=6 control=11 value=106 time=0.00704225
EXTRACT: control_change channel=6 control=11 value=105 time=0.02112675
EXTRACT: control_change channel=6 control=11 value=104 time=0.0140845
EXTRACT: control_change channel=6 control=11 value=103 time=0.02112675
EXTRACT: control_change channel=6 control=11 value=102 time=0.0140845
EXTRACT: control_change channel=6 control=11 value=101 time=0.0140845
EXTRACT: note_on channel=9 note=82 velocity=0 time=0.0140845
EXTRACT: control_change channel=6 control=11 value=100 time=0.00704225
EXTRACT: control_change channel=6 control=11 value=99 time=0.02112675
EXTRACT: control_change channel=6 control=11 value=98 time=0.02112675
EXTRACT: control_change channel=6 control=11 value=97 time=0.0140845
EXTRACT: control_change channel=6 control=11 value=96 time=0.02112675
EXTRACT: control_change channel=6 control=11 value=95 time=0.0140845
EXTRACT: note_on channel=9 note=46 velocity=77 time=0.00704225
EXTRACT: control_change channel=6 control=11 value=94 time=0.00704225
EXTRACT: control_change channel=6 control=11 value=93 time=0.02112675
EXTRACT: control_change channel=6 control=11 value=92 time=0.0140845
EXTRACT: control_change channel=6 control=11 value=91 time=0.02112675
EXTRACT: control_change channel=6 control=11 value=90 time=0.02112675
EXTRACT: control_change channel=6 control=11 value=89 time=0.02112675
EXTRACT: note_on channel=9 note=46 velocity=0 time=0
EXTRACT: control_change channel=6 control=11 value=88 time=0.0140845
EXTRACT: control_change channel=6 control=11 value=87 time=0.0140845
EXTRACT: control_change channel=6 control=11 value=86 time=0.02112675
EXTRACT: control_change channel=6 control=11 value=85 time=0.0140845
EXTRACT: control_change channel=6 control=11 value=84 time=0.02112675
EXTRACT: control_change channel=6 control=11 value=83 time=0.0140845
EXTRACT: note_on channel=4 note=68 velocity=0 time=0.00704225
EXTRACT: note_on channel=4 note=64 velocity=73 time=0
EXTRACT: note_on channel=9 note=33 velocity=127 time=0
EXTRACT: note_on channel=9 note=82 velocity=35 time=0
EXTRACT: control_change channel=6 control=11 value=82 time=0.00704225
EXTRACT: control_change channel=6 control=11 value=81 time=0.028169
EXTRACT: control_change channel=6 control=11 value=80 time=0.0140845
EXTRACT: control_change channel=6 control=11 value=79 time=0.02112675
EXTRACT: control_change channel=6 control=11 value=78 time=0.0140845
EXTRACT: note_on channel=1 note=68 velocity=0 time=0.02112675
EXTRACT: control_change channel=6 control=11 value=77 time=0
EXTRACT: note_on channel=9 note=82 velocity=0 time=0
EXTRACT: note_on channel=9 note=33 velocity=0 time=0
EXTRACT: control_change channel=6 control=11 value=76 time=0.0140845
EXTRACT: control_change channel=6 control=11 value=75 time=0.0140845
EXTRACT: control_change channel=6 control=11 value=74 time=0.02112675
EXTRACT: control_change channel=6 control=11 value=73 time=0.0140845
EXTRACT: note_on channel=1 note=56 velocity=0 time=0.00704225
EXTRACT: note_on channel=1 note=61 velocity=0 time=0
EXTRACT: note_on channel=1 note=56 velocity=78 time=0
EXTRACT: note_on channel=1 note=59 velocity=78 time=0
EXTRACT: control_change channel=6 control=11 value=72 time=0.02112675
EXTRACT: note_on channel=2 note=68 velocity=0 time=0.0140845
EXTRACT: note_on channel=2 note=64 velocity=0 time=0
EXTRACT: note_on channel=2 note=49 velocity=0 time=0
EXTRACT: note_on channel=2 note=59 velocity=47 time=0
EXTRACT: note_on channel=2 note=64 velocity=47 time=0
EXTRACT: note_on channel=2 note=71 velocity=47 time=0
EXTRACT: note_on channel=4 note=64 velocity=0 time=0
EXTRACT: note_on channel=4 note=71 velocity=73 time=0
EXTRACT: note_on channel=5 note=68 velocity=0 time=0
EXTRACT: note_on channel=5 note=64 velocity=0 time=0
EXTRACT: note_on channel=5 note=61 velocity=0 time=0
EXTRACT: note_on channel=5 note=59 velocity=57 time=0
EXTRACT: note_on channel=5 note=64 velocity=57 time=0
EXTRACT: note_on channel=5 note=71 velocity=57 time=0
EXTRACT: control_change channel=6 control=11 value=71 time=0
EXTRACT: note_on channel=7 note=37 velocity=0 time=0
EXTRACT: note_on channel=7 note=40 velocity=57 time=0
EXTRACT: note_on channel=8 note=37 velocity=0 time=0
EXTRACT: note_on channel=8 note=40 velocity=123 time=0
EXTRACT: note_on channel=9 note=46 velocity=89 time=0
EXTRACT: note_on channel=11 note=47 velocity=127 time=0
EXTRACT: control_change channel=11 control=11 value=35 time=0.00704225
EXTRACT: control_change channel=11 control=11 value=34 time=0.00704225
EXTRACT: control_change channel=6 control=11 value=70 time=0.00704225
EXTRACT: control_change channel=11 control=11 value=39 time=0
EXTRACT: control_change channel=11 control=11 value=42 time=0.00704225
EXTRACT: control_change channel=6 control=11 value=69 time=0.00704225
EXTRACT: control_change channel=6 control=11 value=68 time=0.0140845
EXTRACT: control_change channel=11 control=11 value=46 time=0
EXTRACT: control_change channel=11 control=11 value=50 time=0.0140845
EXTRACT: control_change channel=6 control=11 value=67 time=0.00704225
EXTRACT: control_change channel=11 control=11 value=52 time=0
EXTRACT: control_change channel=6 control=11 value=66 time=0.0140845
EXTRACT: control_change channel=11 control=11 value=58 time=0.00704225
EXTRACT: control_change channel=6 control=11 value=65 time=0.0140845
EXTRACT: note_on channel=9 note=46 velocity=0 time=0
EXTRACT: control_change channel=11 control=11 value=64 time=0
EXTRACT: control_change channel=6 control=11 value=64 time=0.0140845
EXTRACT: control_change channel=11 control=11 value=70 time=0
EXTRACT: control_change channel=11 control=11 value=72 time=0.0140845
EXTRACT: control_change channel=11 control=11 value=78 time=0.00704225
EXTRACT: control_change channel=6 control=11 value=63 time=0.00704225
EXTRACT: control_change channel=6 control=11 value=62 time=0.0140845
EXTRACT: control_change channel=11 control=11 value=82 time=0
EXTRACT: control_change channel=6 control=11 value=61 time=0.0140845
EXTRACT: control_change channel=11 control=11 value=85 time=0.0140845
EXTRACT: control_change channel=6 control=11 value=60 time=0.00704225
EXTRACT: control_change channel=11 control=11 value=87 time=0
EXTRACT: control_change channel=11 control=11 value=88 time=0.00704225
EXTRACT: note_on channel=4 note=71 velocity=0 time=0.00704225
EXTRACT: control_change channel=6 control=11 value=59 time=0
EXTRACT: note_on channel=9 note=82 velocity=35 time=0
EXTRACT: note_on channel=9 note=33 velocity=42 time=0
EXTRACT: control_change channel=11 control=11 value=90 time=0.00704225
EXTRACT: control_change channel=6 control=11 value=58 time=0.0140845
EXTRACT: control_change channel=11 control=11 value=93 time=0
EXTRACT: control_change channel=6 control=11 value=57 time=0.0140845
EXTRACT: control_change channel=6 control=11 value=56 time=0.0140845
EXTRACT: control_change channel=11 control=11 value=96 time=0
EXTRACT: control_change channel=11 control=11 value=103 time=0.00704225
EXTRACT: control_change channel=6 control=11 value=55 time=0.0140845
EXTRACT: control_change channel=11 control=11 value=107 time=0.00704225
EXTRACT: control_change channel=6 control=11 value=54 time=0.0140845
EXTRACT: control_change channel=11 control=11 value=109 time=0
EXTRACT: control_change channel=11 control=11 value=112 time=0.00704225
EXTRACT: note_on channel=9 note=33 velocity=0 time=0.00704225
EXTRACT: note_on channel=9 note=82 velocity=0 time=0
EXTRACT: control_change channel=11 control=11 value=113 time=0
EXTRACT: control_change channel=6 control=11 value=53 time=0.00704225
EXTRACT: control_change channel=11 control=11 value=114 time=0
EXTRACT: control_change channel=11 control=11 value=115 time=0.00704225
EXTRACT: control_change channel=6 control=11 value=52 time=0.00704225
EXTRACT: control_change channel=11 control=11 value=117 time=0.0140845
EXTRACT: control_change channel=6 control=11 value=51 time=0.00704225
EXTRACT: control_change channel=11 control=11 value=119 time=0
EXTRACT: control_change channel=11 control=11 value=127 time=0.00704225
EXTRACT: control_change channel=11 control=11 value=120 time=0
EXTRACT: control_change channel=6 control=11 value=50 time=0.00704225
EXTRACT: control_change channel=11 control=11 value=121 time=0
EXTRACT: control_change channel=6 control=11 value=49 time=0.0140845
EXTRACT: control_change channel=11 control=11 value=123 time=0.00704225
EXTRACT: control_change channel=11 control=11 value=125 time=0.00704225
EXTRACT: control_change channel=6 control=11 value=48 time=0.00704225
EXTRACT: note_on channel=4 note=71 velocity=73 time=0.0140845
EXTRACT: control_change channel=6 control=11 value=47 time=0
EXTRACT: note_on channel=8 note=40 velocity=0 time=0
EXTRACT: note_on channel=8 note=40 velocity=123 time=0
EXTRACT: note_on channel=9 note=46 velocity=102 time=0
EXTRACT: note_on channel=9 note=33 velocity=127 time=0
EXTRACT: control_change channel=6 control=11 value=46 time=0.02112675
EXTRACT: control_change channel=6 control=11 value=45 time=0.02112675
EXTRACT: control_change channel=6 control=11 value=44 time=0.02112675
EXTRACT: control_change channel=11 control=11 value=122 time=0
EXTRACT: control_change channel=6 control=11 value=43 time=0.0140845
EXTRACT: control_change channel=6 control=11 value=42 time=0.0140845
EXTRACT: note_on channel=9 note=33 velocity=0 time=0.0140845
EXTRACT: note_on channel=9 note=46 velocity=0 time=0
EXTRACT: control_change channel=6 control=11 value=41 time=0.00704225
EXTRACT: control_change channel=11 control=11 value=121 time=0.00704225
EXTRACT: control_change channel=6 control=11 value=40 time=0.00704225
EXTRACT: control_change channel=11 control=11 value=120 time=0.0140845
EXTRACT: control_change channel=6 control=11 value=39 time=0.00704225
EXTRACT: control_change channel=11 control=11 value=118 time=0.00704225
EXTRACT: control_change channel=6 control=11 value=38 time=0.00704225
EXTRACT: control_change channel=11 control=11 value=115 time=0
EXTRACT: control_change channel=6 control=11 value=37 time=0.0140845
EXTRACT: control_change channel=11 control=11 value=109 time=0
EXTRACT: control_change channel=11 control=11 value=101 time=0.02112675
EXTRACT: control_change channel=6 control=11 value=36 time=0.00704225
EXTRACT: control_change channel=11 control=11 value=99 time=0
EXTRACT: note_on channel=4 note=71 velocity=0 time=0.00704225
EXTRACT: note_on channel=4 note=64 velocity=73 time=0
EXTRACT: note_on channel=8 note=40 velocity=0 time=0
EXTRACT: note_on channel=8 note=40 velocity=123 time=0
EXTRACT: note_on channel=9 note=82 velocity=35 time=0
EXTRACT: control_change channel=6 control=11 value=35 time=0.00704225
EXTRACT: control_change channel=11 control=11 value=95 time=0.00704225
EXTRACT: control_change channel=11 control=11 value=92 time=0.00704225
EXTRACT: control_change channel=6 control=11 value=34 time=0.00704225
EXTRACT: control_change channel=11 control=11 value=89 time=0
EXTRACT: control_change channel=6 control=11 value=33 time=0.0140845
EXTRACT: control_change channel=11 control=11 value=85 time=0.00704225
EXTRACT: control_change channel=11 control=11 value=77 time=0.00704225
EXTRACT: control_change channel=6 control=11 value=32 time=0.00704225
EXTRACT: control_change channel=11 control=11 value=74 time=0
EXTRACT: control_change channel=11 control=11 value=70 time=0.00704225
EXTRACT: control_change channel=6 control=11 value=31 time=0.00704225
EXTRACT: control_change channel=11 control=11 value=60 time=0
EXTRACT: control_change channel=6 control=11 value=30 time=0.0140845
EXTRACT: control_change channel=11 control=11 value=58 time=0
EXTRACT: control_change channel=11 control=11 value=50 time=0.00704225
EXTRACT: note_on channel=9 note=82 velocity=0 time=0.00704225
EXTRACT: control_change channel=11 control=11 value=46 time=0
EXTRACT: control_change channel=6 control=11 value=29 time=0.00704225
EXTRACT: control_change channel=11 control=11 value=43 time=0
EXTRACT: control_change channel=11 control=11 value=36 time=0.00704225
EXTRACT: control_change channel=6 control=11 value=28 time=0.00704225
EXTRACT: control_change channel=11 control=11 value=30 time=0.00704225
EXTRACT: control_change channel=11 control=11 value=28 time=0.00704225
EXTRACT: control_change channel=11 control=11 value=23 time=0.00704225
EXTRACT: control_change channel=6 control=11 value=27 time=0.00704225
EXTRACT: control_change channel=11 control=11 value=19 time=0
EXTRACT: control_change channel=11 control=11 value=16 time=0.00704225
EXTRACT: control_change channel=6 control=11 value=26 time=0.00704225
EXTRACT: control_change channel=11 control=11 value=10 time=0.00704225
EXTRACT: control_change channel=6 control=11 value=25 time=0.0140845
EXTRACT: control_change channel=11 control=11 value=3 time=0
EXTRACT: control_change channel=11 control=11 value=1 time=0.00704225
EXTRACT: control_change channel=6 control=11 value=24 time=0.00704225
EXTRACT: control_change channel=11 control=11 value=0 time=0
EXTRACT: note_on channel=4 note=64 velocity=0 time=0.00704225
EXTRACT: note_on channel=4 note=71 velocity=73 time=0
EXTRACT: note_on channel=8 note=40 velocity=0 time=0
EXTRACT: note_on channel=8 note=40 velocity=123 time=0
EXTRACT: note_on channel=9 note=33 velocity=127 time=0
EXTRACT: note_on channel=9 note=31 velocity=127 time=0
EXTRACT: note_on channel=9 note=46 velocity=114 time=0
EXTRACT: note_on channel=10 note=31 velocity=73 time=0
EXTRACT: note_on channel=11 note=47 velocity=0 time=0
EXTRACT: control_change channel=6 control=11 value=23 time=0.00704225
EXTRACT: control_change channel=6 control=11 value=22 time=0.02112675
EXTRACT: control_change channel=6 control=11 value=21 time=0.0140845
EXTRACT: control_change channel=6 control=11 value=20 time=0.02112675
EXTRACT: control_change channel=6 control=11 value=19 time=0.0140845
EXTRACT: control_change channel=6 control=11 value=18 time=0.028169
EXTRACT: note_on channel=9 note=46 velocity=0 time=0
EXTRACT: note_on channel=9 note=31 velocity=0 time=0
EXTRACT: note_on channel=9 note=33 velocity=0 time=0
EXTRACT: note_on channel=10 note=31 velocity=0 time=0
EXTRACT: control_change channel=6 control=11 value=17 time=0.0140845
EXTRACT: control_change channel=6 control=11 value=16 time=0.0140845
EXTRACT: control_change channel=6 control=11 value=15 time=0.02112675
EXTRACT: control_change channel=6 control=11 value=14 time=0.0140845
EXTRACT: note_on channel=6 note=64 velocity=0 time=0.0140845
EXTRACT: control_change channel=6 control=11 value=13 time=0.00704225
EXTRACT: control_change channel=6 control=11 value=12 time=0.0140845
EXTRACT: note_on channel=4 note=71 velocity=0 time=0.00704225
EXTRACT: note_on channel=4 note=64 velocity=73 time=0
EXTRACT: note_on channel=9 note=82 velocity=35 time=0
EXTRACT: control_change channel=11 control=11 value=127 time=0
EXTRACT: control_change channel=6 control=11 value=11 time=0.00704225
EXTRACT: control_change channel=6 control=11 value=10 time=0.02112675
EXTRACT: control_change channel=6 control=11 value=9 time=0.02112675
EXTRACT: control_change channel=6 control=11 value=8 time=0.02112675
EXTRACT: control_change channel=6 control=11 value=7 time=0.0140845
EXTRACT: control_change channel=6 control=11 value=6 time=0.02112675
EXTRACT: note_on channel=9 note=82 velocity=0 time=0
EXTRACT: control_change channel=6 control=11 value=5 time=0.0140845
EXTRACT: control_change channel=6 control=11 value=4 time=0.0140845
EXTRACT: control_change channel=6 control=11 value=3 time=0.02112675
EXTRACT: control_change channel=6 control=11 value=2 time=0.0140845
EXTRACT: control_change channel=6 control=11 value=1 time=0.02112675
EXTRACT: control_change channel=6 control=11 value=0 time=0.0140845
EXTRACT: note_on channel=4 note=64 velocity=0 time=0.00704225
EXTRACT: note_on channel=8 note=40 velocity=0 time=0
EXTRACT: note_on channel=8 note=40 velocity=123 time=0
EXTRACT: note_on channel=9 note=46 velocity=127 time=0
EXTRACT: note_on channel=9 note=46 velocity=0 time=0.10563375
EXTRACT: note_on channel=1 note=56 velocity=0 time=0.10563375
EXTRACT: note_on channel=9 note=82 velocity=35 time=0
EXTRACT: note_on channel=1 note=59 velocity=0 time=0.03521125
EXTRACT: note_on channel=9 note=82 velocity=0 time=0.0704225
EXTRACT: note_on channel=1 note=54 velocity=100 time=0.03521125
EXTRACT: note_on channel=1 note=57 velocity=100 time=0.02112675
EXTRACT: note_on channel=1 note=62 velocity=100 time=0.00704225
EXTRACT: note_on channel=0 note=66 velocity=82 time=0.0422535
EXTRACT: note_on channel=2 note=71 velocity=0 time=0
EXTRACT: note_on channel=2 note=64 velocity=0 time=0
EXTRACT: note_on channel=2 note=59 velocity=0 time=0
EXTRACT: note_on channel=2 note=45 velocity=66 time=0
EXTRACT: note_on channel=2 note=38 velocity=66 time=0
EXTRACT: note_on channel=2 note=57 velocity=66 time=0
EXTRACT: note_on channel=2 note=50 velocity=66 time=0
EXTRACT: note_on channel=3 note=50 velocity=113 time=0
EXTRACT: note_on channel=5 note=71 velocity=0 time=0
EXTRACT: note_on channel=5 note=64 velocity=0 time=0
EXTRACT: note_on channel=5 note=59 velocity=0 time=0
EXTRACT: note_on channel=7 note=40 velocity=0 time=0
EXTRACT: note_on channel=8 note=40 velocity=0 time=0
EXTRACT: note_on channel=9 note=33 velocity=127 time=0
EXTRACT: note_on channel=9 note=46 velocity=80 time=0
EXTRACT: note_on channel=9 note=57 velocity=100 time=0
EXTRACT: note_on channel=11 note=62 velocity=80 time=0
EXTRACT: note_on channel=11 note=66 velocity=109 time=0
EXTRACT: note_on channel=0 note=62 velocity=82 time=0.00704225
EXTRACT: note_on channel=0 note=50 velocity=82 time=0
EXTRACT: note_on channel=8 note=38 velocity=100 time=0
EXTRACT: pitchwheel channel=11 pitch=-7936 time=0
EXTRACT: note_on channel=0 note=69 velocity=82 time=0.00704225
EXTRACT: pitchwheel channel=11 pitch=-7680 time=0
EXTRACT: pitchwheel channel=11 pitch=-7552 time=0.00704225
EXTRACT: pitchwheel channel=11 pitch=-7296 time=0.0140845
EXTRACT: pitchwheel channel=11 pitch=-7168 time=0.00704225
EXTRACT: pitchwheel channel=11 pitch=-6912 time=0.00704225
EXTRACT: pitchwheel channel=11 pitch=-6784 time=0.00704225
EXTRACT: pitchwheel channel=11 pitch=-6528 time=0.00704225
EXTRACT: pitchwheel channel=11 pitch=-6400 time=0.0140845
EXTRACT: pitchwheel channel=11 pitch=-6144 time=0.00704225
EXTRACT: pitchwheel channel=11 pitch=-6016 time=0.00704225
EXTRACT: pitchwheel channel=11 pitch=-5760 time=0.00704225
EXTRACT: note_on channel=9 note=57 velocity=0 time=0.00704225
EXTRACT: note_on channel=9 note=46 velocity=0 time=0
EXTRACT: note_on channel=9 note=33 velocity=0 time=0
EXTRACT: pitchwheel channel=11 pitch=-5632 time=0
EXTRACT: pitchwheel channel=11 pitch=-5376 time=0.0140845
EXTRACT: pitchwheel channel=11 pitch=-5248 time=0.00704225
EXTRACT: pitchwheel channel=11 pitch=-4992 time=0.00704225
EXTRACT: pitchwheel channel=11 pitch=-4864 time=0.00704225
EXTRACT: pitchwheel channel=11 pitch=-4608 time=0.00704225
EXTRACT: pitchwheel channel=11 pitch=-4480 time=0.0140845
EXTRACT: pitchwheel channel=11 pitch=-4224 time=0.00704225
EXTRACT: pitchwheel channel=11 pitch=-4096 time=0.00704225
EXTRACT: pitchwheel channel=11 pitch=-3968 time=0.00704225
EXTRACT: pitchwheel channel=11 pitch=-3712 time=0.00704225
EXTRACT: pitchwheel channel=11 pitch=-3584 time=0.0140845
EXTRACT: pitchwheel channel=11 pitch=-3328 time=0.00704225
EXTRACT: pitchwheel channel=11 pitch=-3200 time=0.00704225
EXTRACT: pitchwheel channel=11 pitch=-2944 time=0.00704225
EXTRACT: pitchwheel channel=11 pitch=-2816 time=0.00704225
EXTRACT: pitchwheel channel=11 pitch=-2560 time=0.0140845
EXTRACT: pitchwheel channel=11 pitch=-2432 time=0.00704225
EXTRACT: pitchwheel channel=11 pitch=-2176 time=0.00704225
EXTRACT: pitchwheel channel=11 pitch=-2048 time=0.00704225
EXTRACT: pitchwheel channel=11 pitch=-1792 time=0.00704225
EXTRACT: pitchwheel channel=11 pitch=-1664 time=0.0140845
EXTRACT: pitchwheel channel=11 pitch=-1408 time=0.00704225
EXTRACT: pitchwheel channel=11 pitch=-1280 time=0.00704225
EXTRACT: pitchwheel channel=11 pitch=-1024 time=0.00704225
EXTRACT: pitchwheel channel=11 pitch=-896 time=0.00704225
EXTRACT: pitchwheel channel=11 pitch=-640 time=0.0140845
EXTRACT: pitchwheel channel=11 pitch=-512 time=0.00704225
EXTRACT: pitchwheel channel=11 pitch=-256 time=0.00704225
EXTRACT: pitchwheel channel=11 pitch=-128 time=0.00704225
EXTRACT: control_change channel=11 control=1 value=1 time=0.00704225
EXTRACT: pitchwheel channel=11 pitch=0 time=0
EXTRACT: control_change channel=11 control=1 value=2 time=0.0140845
EXTRACT: control_change channel=11 control=1 value=4 time=0.00704225
EXTRACT: control_change channel=11 control=1 value=7 time=0.00704225
EXTRACT: control_change channel=11 control=1 value=13 time=0.00704225
EXTRACT: control_change channel=11 control=1 value=19 time=0.00704225
EXTRACT: control_change channel=11 control=1 value=23 time=0.0140845
EXTRACT: note_on channel=9 note=51 velocity=127 time=0.00704225
EXTRACT: note_on channel=9 note=46 velocity=80 time=0
EXTRACT: control_change channel=11 control=1 value=26 time=0
EXTRACT: control_change channel=11 control=1 value=27 time=0.00704225
EXTRACT: control_change channel=11 control=1 value=29 time=0.00704225
EXTRACT: control_change channel=11 control=1 value=33 time=0.02112675
EXTRACT: control_change channel=11 control=1 value=35 time=0.00704225
EXTRACT: control_change channel=11 control=1 value=37 time=0.0140845
EXTRACT: control_change channel=11 control=1 value=43 time=0.02112675
EXTRACT: control_change channel=11 control=1 value=49 time=0.0140845
EXTRACT: control_change channel=11 control=1 value=51 time=0.00704225
EXTRACT: note_on channel=9 note=46 velocity=0 time=0.00704225
EXTRACT: note_on channel=9 note=51 velocity=0 time=0
EXTRACT: control_change channel=11 control=1 value=57 time=0
EXTRACT: control_change channel=11 control=1 value=58 time=0.02112675
EXTRACT: control_change channel=11 control=1 value=60 time=0.00704225
EXTRACT: control_change channel=11 control=1 value=61 time=0.00704225
EXTRACT: control_change channel=11 control=1 value=62 time=0.02112675
EXTRACT: control_change channel=11 control=1 value=63 time=0.0140845
EXTRACT: control_change channel=11 control=1 value=64 time=0.0140845
EXTRACT: control_change channel=11 control=1 value=65 time=0.0140845
EXTRACT: control_change channel=11 control=1 value=66 time=0.0140845
EXTRACT: control_change channel=11 control=1 value=68 time=0.0140845
EXTRACT: control_change channel=11 control=1 value=69 time=0.02112675
EXTRACT: control_change channel=11 control=1 value=70 time=0.0140845
EXTRACT: control_change channel=11 control=1 value=72 time=0.03521125
EXTRACT: control_change channel=11 control=1 value=73 time=0.0422535
EXTRACT: control_change channel=11 control=1 value=74 time=0.0140845
EXTRACT: note_on channel=0 note=66 velocity=0 time=0.06338025
EXTRACT: note_on channel=0 note=66 velocity=82 time=0
EXTRACT: note_on channel=3 note=50 velocity=0 time=0
EXTRACT: note_on channel=3 note=50 velocity=113 time=0
EXTRACT: note_on channel=9 note=31 velocity=127 time=0
EXTRACT: note_on channel=9 note=33 velocity=127 time=0
EXTRACT: note_on channel=9 note=46 velocity=80 time=0
EXTRACT: note_on channel=10 note=31 velocity=73 time=0
EXTRACT: control_change channel=11 control=1 value=75 time=0
EXTRACT: note_on channel=0 note=62 velocity=0 time=0.00704225
EXTRACT: note_on channel=0 note=50 velocity=0 time=0
EXTRACT: note_on channel=0 note=50 velocity=82 time=0
EXTRACT: note_on channel=0 note=62 velocity=82 time=0
EXTRACT: note_on channel=8 note=38 velocity=0 time=0
EXTRACT: control_change channel=11 control=1 value=76 time=0
EXTRACT: note_on channel=0 note=69 velocity=0 time=0.00704225
EXTRACT: note_on channel=0 note=69 velocity=82 time=0
EXTRACT: note_on channel=8 note=38 velocity=100 time=0.00704225
EXTRACT: control_change channel=11 control=1 value=77 time=0
EXTRACT: control_change channel=11 control=1 value=78 time=0.02112675
EXTRACT: control_change channel=11 control=1 value=79 time=0.03521125
EXTRACT: control_change channel=11 control=1 value=80 time=0.0140845
EXTRACT: note_on channel=9 note=46 velocity=0 time=0.0140845
EXTRACT: note_on channel=9 note=33 velocity=0 time=0
EXTRACT: note_on channel=9 note=31 velocity=0 time=0
EXTRACT: note_on channel=10 note=31 velocity=0 time=0
EXTRACT: control_change channel=11 control=1 value=81 time=0.0422535
EXTRACT: control_change channel=11 control=1 value=82 time=0.028169
EXTRACT: control_change channel=11 control=1 value=83 time=0.056338
EXTRACT: control_change channel=11 control=1 value=84 time=0.02112675
EXTRACT: control_change channel=11 control=1 value=85 time=0.06338025
EXTRACT: control_change channel=11 control=1 value=86 time=0.03521125
EXTRACT: control_change channel=11 control=1 value=87 time=0.02112675
EXTRACT: note_on channel=9 note=46 velocity=80 time=0.04929575
EXTRACT: control_change channel=11 control=1 value=88 time=0
EXTRACT: control_change channel=11 control=1 value=89 time=0.0140845
EXTRACT: control_change channel=11 control=1 value=90 time=0.02112675
EXTRACT: control_change channel=11 control=1 value=91 time=0.06338025
EXTRACT: note_on channel=9 note=46 velocity=0 time=0.00704225
EXTRACT: control_change channel=11 control=1 value=92 time=0.0422535
EXTRACT: note_on channel=0 note=50 velocity=0 time=0.056338
EXTRACT: note_on channel=0 note=50 velocity=82 time=0
EXTRACT: control_change channel=11 control=1 value=93 time=0
EXTRACT: note_on channel=0 note=62 velocity=0 time=0.00704225
EXTRACT: note_on channel=0 note=69 velocity=0 time=0
EXTRACT: note_on channel=0 note=66 velocity=0 time=0
EXTRACT: note_on channel=0 note=62 velocity=82 time=0
EXTRACT: note_on channel=0 note=62 velocity=82 time=0
EXTRACT: note_on channel=0 note=66 velocity=82 time=0
EXTRACT: note_on channel=0 note=69 velocity=82 time=0
EXTRACT: note_on channel=9 note=33 velocity=127 time=0
EXTRACT: control_change channel=11 control=1 value=94 time=0.056338
EXTRACT: note_on channel=9 note=33 velocity=0 time=0.04929575
EXTRACT: control_change channel=11 control=1 value=95 time=0
EXTRACT: control_change channel=11 control=1 value=96 time=0.03521125
EXTRACT: note_on channel=3 note=50 velocity=0 time=0.0704225
EXTRACT: note_on channel=3 note=50 velocity=113 time=0
EXTRACT: note_on channel=8 note=38 velocity=0 time=0
EXTRACT: note_on channel=8 note=38 velocity=100 time=0
EXTRACT: note_on channel=9 note=46 velocity=80 time=0
EXTRACT: control_change channel=11 control=1 value=97 time=0
EXTRACT: control_change channel=11 control=1 value=98 time=0.06338025
EXTRACT: control_change channel=11 control=1 value=99 time=0.02112675
EXTRACT: control_change channel=11 control=1 value=100 time=0.0140845
EXTRACT: note_on channel=9 note=46 velocity=0 time=0.00704225
EXTRACT: control_change channel=11 control=1 value=101 time=0.0422535
EXTRACT: control_change channel=11 control=1 value=102 time=0.02112675
EXTRACT: note_on channel=9 note=33 velocity=127 time=0.0422535
EXTRACT: control_change channel=11 control=1 value=103 time=0.02112675
EXTRACT: control_change channel=11 control=1 value=104 time=0.02112675
EXTRACT: control_change channel=11 control=1 value=105 time=0.03521125
EXTRACT: note_on channel=9 note=33 velocity=0 time=0.028169
EXTRACT: control_change channel=11 control=1 value=106 time=0
EXTRACT: control_change channel=11 control=1 value=107 time=0.06338025
EXTRACT: control_change channel=11 control=1 value=108 time=0.02112675
EXTRACT: note_on channel=0 note=50 velocity=0 time=0.00704225
EXTRACT: note_on channel=0 note=66 velocity=0 time=0.00704225
EXTRACT: note_on channel=0 note=62 velocity=0 time=0
EXTRACT: note_on channel=0 note=62 velocity=0 time=0
EXTRACT: note_on channel=0 note=69 velocity=0 time=0
EXTRACT: note_on channel=0 note=50 velocity=82 time=0
EXTRACT: note_on channel=0 note=62 velocity=82 time=0.00704225
EXTRACT: note_on channel=0 note=66 velocity=82 time=0
EXTRACT: note_on channel=0 note=62 velocity=82 time=0
EXTRACT: note_on channel=0 note=69 velocity=82 time=0
EXTRACT: note_on channel=3 note=50 velocity=0 time=0
EXTRACT: note_on channel=3 note=52 velocity=113 time=0
EXTRACT: note_on channel=9 note=33 velocity=127 time=0
EXTRACT: note_on channel=9 note=46 velocity=80 time=0
EXTRACT: control_change channel=11 control=1 value=109 time=0.03521125
EXTRACT: pitchwheel channel=3 pitch=128 time=0.0140845
EXTRACT: pitchwheel channel=3 pitch=256 time=0.0140845
EXTRACT: pitchwheel channel=3 pitch=384 time=0.0140845
EXTRACT: control_change channel=11 control=1 value=110 time=0
EXTRACT: pitchwheel channel=3 pitch=640 time=0.028169
EXTRACT: note_on channel=9 note=46 velocity=0 time=0
EXTRACT: note_on channel=9 note=33 velocity=0 time=0
EXTRACT: pitchwheel channel=3 pitch=896 time=0.0140845
EXTRACT: pitchwheel channel=3 pitch=1152 time=0.0140845
EXTRACT: pitchwheel channel=3 pitch=1408 time=0.00704225
EXTRACT: control_change channel=11 control=1 value=111 time=0
EXTRACT: pitchwheel channel=3 pitch=2176 time=0.00704225
EXTRACT: pitchwheel channel=3 pitch=4736 time=0.00704225
EXTRACT: pitchwheel channel=3 pitch=6528 time=0.00704225
EXTRACT: pitchwheel channel=3 pitch=6912 time=0.0140845
EXTRACT: control_change channel=11 control=1 value=112 time=0
EXTRACT: pitchwheel channel=3 pitch=7424 time=0.00704225
EXTRACT: pitchwheel channel=3 pitch=7936 time=0.00704225
EXTRACT: pitchwheel channel=3 pitch=8191 time=0.00704225
EXTRACT: control_change channel=11 control=1 value=113 time=0.07746475
EXTRACT: note_on channel=8 note=38 velocity=0 time=0.1267605
EXTRACT: note_on channel=0 note=50 velocity=0 time=0.0140845
EXTRACT: note_on channel=0 note=50 velocity=82 time=0
EXTRACT: note_on channel=0 note=62 velocity=0 time=0.00704225
EXTRACT: note_on channel=0 note=69 velocity=0 time=0
EXTRACT: note_on channel=0 note=62 velocity=0 time=0
EXTRACT: note_on channel=0 note=66 velocity=0 time=0
EXTRACT: note_on channel=0 note=69 velocity=82 time=0
EXTRACT: note_on channel=0 note=62 velocity=82 time=0
EXTRACT: note_on channel=0 note=62 velocity=82 time=0
EXTRACT: note_on channel=0 note=66 velocity=82 time=0
EXTRACT: note_on channel=3 note=52 velocity=0 time=0
EXTRACT: note_on channel=3 note=55 velocity=113 time=0
EXTRACT: note_on channel=9 note=31 velocity=127 time=0
EXTRACT: note_on channel=9 note=33 velocity=127 time=0
EXTRACT: note_on channel=9 note=46 velocity=80 time=0
EXTRACT: note_on channel=10 note=31 velocity=73 time=0
EXTRACT: note_on channel=8 note=38 velocity=100 time=0.00704225
EXTRACT: note_on channel=9 note=46 velocity=0 time=0.0985915
EXTRACT: note_on channel=9 note=33 velocity=0 time=0
EXTRACT: note_on channel=9 note=31 velocity=0 time=0
EXTRACT: note_on channel=10 note=31 velocity=0 time=0
EXTRACT: control_change channel=11 control=1 value=114 time=0.0985915
EXTRACT: control_change channel=11 control=1 value=102 time=0.10563375
EXTRACT: control_change channel=11 control=1 value=94 time=0.00704225
EXTRACT: control_change channel=11 control=1 value=87 time=0.0140845
EXTRACT: control_change channel=11 control=1 value=84 time=0.00704225
EXTRACT: control_change channel=11 control=1 value=76 time=0.00704225
EXTRACT: control_change channel=11 control=1 value=68 time=0.00704225
EXTRACT: control_change channel=11 control=1 value=66 time=0.00704225
EXTRACT: control_change channel=11 control=1 value=60 time=0.0140845
EXTRACT: control_change channel=11 control=1 value=58 time=0.00704225
EXTRACT: control_change channel=11 control=1 value=49 time=0.00704225
EXTRACT: control_change channel=11 control=1 value=43 time=0.00704225
EXTRACT: control_change channel=11 control=1 value=36 time=0.00704225
EXTRACT: note_on channel=0 note=50 velocity=0 time=0.0140845
EXTRACT: note_on channel=0 note=50 velocity=82 time=0
EXTRACT: control_change channel=11 control=1 value=31 time=0
EXTRACT: note_on channel=0 note=62 velocity=0 time=0.00704225
EXTRACT: note_on channel=0 note=66 velocity=0 time=0
EXTRACT: note_on channel=0 note=69 velocity=0 time=0
EXTRACT: note_on channel=0 note=62 velocity=0 time=0
EXTRACT: note_on channel=0 note=69 velocity=82 time=0
EXTRACT: note_on channel=0 note=62 velocity=82 time=0
EXTRACT: note_on channel=0 note=66 velocity=82 time=0
EXTRACT: note_on channel=8 note=40 velocity=100 time=0
EXTRACT: note_on channel=9 note=51 velocity=127 time=0
EXTRACT: note_on channel=9 note=46 velocity=80 time=0
EXTRACT: note_on channel=11 note=66 velocity=0 time=0
EXTRACT: note_on channel=11 note=62 velocity=0 time=0
EXTRACT: note_on channel=11 note=61 velocity=80 time=0
EXTRACT: control_change channel=11 control=1 value=13 time=0
EXTRACT: note_on channel=11 note=64 velocity=117 time=0
EXTRACT: pitchwheel channel=11 pitch=-8064 time=0.00704225
EXTRACT: control_change channel=11 control=1 value=0 time=0
EXTRACT: pitchwheel channel=11 pitch=-7808 time=0.00704225
EXTRACT: note_on channel=8 note=38 velocity=0 time=0.00704225
EXTRACT: pitchwheel channel=11 pitch=-7552 time=0.00704225
EXTRACT: pitchwheel channel=11 pitch=-7296 time=0.00704225
EXTRACT: pitchwheel channel=11 pitch=-7040 time=0.00704225
EXTRACT: pitchwheel channel=11 pitch=-6912 time=0.00704225
EXTRACT: pitchwheel channel=11 pitch=-6656 time=0.00704225
EXTRACT: pitchwheel channel=11 pitch=-6400 time=0.0140845
EXTRACT: pitchwheel channel=11 pitch=-6144 time=0.00704225
EXTRACT: pitchwheel channel=11 pitch=-5888 time=0.00704225
EXTRACT: pitchwheel channel=11 pitch=-5760 time=0.00704225
EXTRACT: pitchwheel channel=11 pitch=-5504 time=0.00704225
EXTRACT: note_on channel=9 note=46 velocity=0 time=0.00704225
EXTRACT: note_on channel=9 note=51 velocity=0 time=0
EXTRACT: pitchwheel channel=11 pitch=-5248 time=0.00704225
EXTRACT: pitchwheel channel=11 pitch=-4992 time=0.00704225
EXTRACT: pitchwheel channel=11 pitch=-4736 time=0.00704225
EXTRACT: pitchwheel channel=11 pitch=-4608 time=0.00704225
EXTRACT: pitchwheel channel=11 pitch=-4352 time=0.00704225
EXTRACT: pitchwheel channel=11 pitch=-4096 time=0.0140845
EXTRACT: pitchwheel channel=11 pitch=-3840 time=0.00704225
EXTRACT: pitchwheel channel=11 pitch=-3584 time=0.00704225
EXTRACT: pitchwheel channel=11 pitch=-3456 time=0.00704225
EXTRACT: pitchwheel channel=11 pitch=-3200 time=0.00704225
EXTRACT: pitchwheel channel=11 pitch=-2944 time=0.0140845
EXTRACT: pitchwheel channel=11 pitch=-2688 time=0.00704225
EXTRACT: note_on channel=0 note=66 velocity=0 time=0.00704225
EXTRACT: note_on channel=0 note=62 velocity=0 time=0
EXTRACT: note_on channel=0 note=64 velocity=82 time=0
EXTRACT: note_on channel=0 note=61 velocity=82 time=0
EXTRACT: pitchwheel channel=11 pitch=-2432 time=0
EXTRACT: pitchwheel channel=11 pitch=-2304 time=0.00704225
EXTRACT: pitchwheel channel=11 pitch=-2048 time=0.00704225
EXTRACT: pitchwheel channel=11 pitch=-1792 time=0.0140845
EXTRACT: pitchwheel channel=11 pitch=-1536 time=0.00704225
EXTRACT: pitchwheel channel=11 pitch=-1280 time=0.00704225
EXTRACT: pitchwheel channel=11 pitch=-1152 time=0.00704225
EXTRACT: pitchwheel channel=11 pitch=-896 time=0.00704225
EXTRACT: pitchwheel channel=11 pitch=-640 time=0.0140845
EXTRACT: pitchwheel channel=11 pitch=-384 time=0.00704225
EXTRACT: note_on channel=1 note=54 velocity=0 time=0.00704225
EXTRACT: pitchwheel channel=11 pitch=-128 time=0
EXTRACT: note_on channel=1 note=62 velocity=0 time=0.00704225
EXTRACT: note_on channel=1 note=57 velocity=0 time=0
EXTRACT: pitchwheel channel=11 pitch=0 time=0
EXTRACT: note_on channel=1 note=52 velocity=100 time=0.056338
EXTRACT: note_on channel=1 note=57 velocity=100 time=0.02112675
EXTRACT: note_on channel=1 note=69 velocity=100 time=0.00704225
EXTRACT: note_on channel=1 note=61 velocity=100 time=0
EXTRACT: note_on channel=0 note=50 velocity=0 time=0.028169
EXTRACT: note_on channel=0 note=69 velocity=0 time=0.00704225
EXTRACT: note_on channel=0 note=64 velocity=0 time=0
EXTRACT: note_on channel=0 note=61 velocity=0 time=0
EXTRACT: note_on channel=0 note=64 velocity=82 time=0
EXTRACT: note_on channel=2 note=50 velocity=0 time=0
EXTRACT: note_on channel=2 note=45 velocity=0 time=0
EXTRACT: note_on channel=2 note=38 velocity=0 time=0
EXTRACT: note_on channel=2 note=57 velocity=0 time=0
EXTRACT: note_on channel=2 note=52 velocity=66 time=0
EXTRACT: note_on channel=2 note=40 velocity=66 time=0
EXTRACT: note_on channel=2 note=45 velocity=66 time=0
EXTRACT: note_on channel=2 note=57 velocity=66 time=0
EXTRACT: note_on channel=3 note=55 velocity=0 time=0
EXTRACT: note_on channel=3 note=43 velocity=113 time=0
EXTRACT: note_on channel=8 note=45 velocity=100 time=0
EXTRACT: note_on channel=9 note=49 velocity=70 time=0
EXTRACT: note_on channel=9 note=33 velocity=127 time=0
EXTRACT: note_on channel=9 note=46 velocity=80 time=0
EXTRACT: note_on channel=9 note=33 velocity=127 time=0
EXTRACT: note_on channel=9 note=46 velocity=80 time=0
EXTRACT: note_on channel=11 note=64 velocity=0 time=0
EXTRACT: note_on channel=11 note=61 velocity=0 time=0
EXTRACT: note_on channel=11 note=61 velocity=80 time=0
EXTRACT: note_on channel=11 note=64 velocity=113 time=0
EXTRACT: note_on channel=0 note=61 velocity=82 time=0.00704225
EXTRACT: note_on channel=0 note=45 velocity=82 time=0
EXTRACT: note_on channel=0 note=69 velocity=82 time=0.00704225
EXTRACT: note_on channel=8 note=40 velocity=0 time=0
EXTRACT: note_on channel=9 note=46 velocity=0 time=0.09154925
EXTRACT: note_on channel=9 note=46 velocity=0 time=0
EXTRACT: note_on channel=9 note=49 velocity=0 time=0
EXTRACT: note_on channel=9 note=33 velocity=0 time=0
EXTRACT: note_on channel=9 note=33 velocity=0 time=0
EXTRACT: note_on channel=9 note=51 velocity=127 time=0.31690125
EXTRACT: note_on channel=9 note=46 velocity=80 time=0
EXTRACT: note_on channel=9 note=46 velocity=0 time=0.10563375
EXTRACT: note_on channel=9 note=51 velocity=0 time=0
EXTRACT: note_on channel=8 note=45 velocity=0 time=0.10563375
EXTRACT: note_on channel=8 note=47 velocity=100 time=0
EXTRACT: note_on channel=0 note=64 velocity=0 time=0.2112675
EXTRACT: note_on channel=0 note=64 velocity=82 time=0
EXTRACT: note_on channel=3 note=43 velocity=0 time=0
EXTRACT: note_on channel=3 note=43 velocity=113 time=0
EXTRACT: note_on channel=8 note=47 velocity=0 time=0
EXTRACT: note_on channel=8 note=47 velocity=100 time=0
EXTRACT: note_on channel=9 note=46 velocity=80 time=0
EXTRACT: note_on channel=9 note=33 velocity=127 time=0
EXTRACT: note_on channel=9 note=31 velocity=127 time=0
EXTRACT: note_on channel=9 note=33 velocity=127 time=0
EXTRACT: note_on channel=10 note=31 velocity=73 time=0
EXTRACT: note_on channel=11 note=64 velocity=0 time=0
EXTRACT: note_on channel=11 note=61 velocity=0 time=0
EXTRACT: note_on channel=11 note=61 velocity=80 time=0
EXTRACT: note_on channel=11 note=64 velocity=113 time=0
EXTRACT: note_on channel=0 note=61 velocity=0 time=0.00704225
EXTRACT: note_on channel=0 note=45 velocity=0 time=0
EXTRACT: note_on channel=0 note=45 velocity=82 time=0
EXTRACT: note_on channel=0 note=61 velocity=82 time=0
EXTRACT: note_on channel=0 note=69 velocity=0 time=0.00704225
EXTRACT: note_on channel=0 note=69 velocity=82 time=0
EXTRACT: note_on channel=9 note=33 velocity=0 time=0.09154925
EXTRACT: note_on channel=9 note=46 velocity=0 time=0
EXTRACT: note_on channel=9 note=33 velocity=0 time=0
EXTRACT: note_on channel=9 note=31 velocity=0 time=0
EXTRACT: note_on channel=10 note=31 velocity=0 time=0
EXTRACT: note_on channel=8 note=47 velocity=0 time=0.31690125
EXTRACT: note_on channel=8 note=45 velocity=100 time=0
EXTRACT: note_on channel=9 note=46 velocity=80 time=0
EXTRACT: note_on channel=11 note=64 velocity=0 time=0
EXTRACT: note_on channel=11 note=61 velocity=0 time=0
EXTRACT: note_on channel=11 note=61 velocity=80 time=0
EXTRACT: note_on channel=11 note=64 velocity=113 time=0
EXTRACT: note_on channel=9 note=46 velocity=0 time=0.10563375
EXTRACT: note_on channel=9 note=33 velocity=127 time=0.10563375
EXTRACT: note_on channel=9 note=33 velocity=0 time=0.10563375
EXTRACT: note_on channel=1 note=52 velocity=0 time=0.0140845
EXTRACT: note_on channel=1 note=57 velocity=0 time=0.02112675
EXTRACT: note_on channel=1 note=69 velocity=0 time=0.00704225
EXTRACT: note_on channel=1 note=61 velocity=0 time=0
EXTRACT: note_on channel=1 note=52 velocity=100 time=0.00704225
EXTRACT: pitchwheel channel=3 pitch=8191 time=0.00704225
EXTRACT: pitchwheel channel=3 pitch=8064 time=0.00704225
EXTRACT: note_on channel=1 note=56 velocity=100 time=0.00704225
EXTRACT: pitchwheel channel=3 pitch=7552 time=0
EXTRACT: note_on channel=1 note=61 velocity=100 time=0.00704225
EXTRACT: note_on channel=1 note=68 velocity=100 time=0
EXTRACT: pitchwheel channel=3 pitch=7040 time=0
EXTRACT: pitchwheel channel=3 pitch=6528 time=0.00704225
EXTRACT: note_on channel=0 note=45 velocity=0 time=0.00704225
EXTRACT: note_on channel=0 note=61 velocity=0 time=0.00704225
EXTRACT: note_on channel=0 note=69 velocity=0 time=0
EXTRACT: pitchwheel channel=3 pitch=6144 time=0
EXTRACT: note_on channel=0 note=64 velocity=0 time=0.00704225
EXTRACT: note_on channel=0 note=61 velocity=82 time=0
EXTRACT: note_on channel=0 note=64 velocity=82 time=0
EXTRACT: note_on channel=0 note=49 velocity=82 time=0
EXTRACT: note_on channel=0 note=68 velocity=82 time=0
EXTRACT: note_on channel=2 note=57 velocity=0 time=0
EXTRACT: note_on channel=2 note=52 velocity=0 time=0
EXTRACT: note_on channel=2 note=40 velocity=0 time=0
EXTRACT: note_on channel=2 note=45 velocity=0 time=0
EXTRACT: note_on channel=2 note=37 velocity=66 time=0
EXTRACT: note_on channel=2 note=44 velocity=66 time=0
EXTRACT: note_on channel=2 note=52 velocity=66 time=0
EXTRACT: note_on channel=2 note=56 velocity=66 time=0
EXTRACT: note_on channel=3 note=43 velocity=0 time=0
EXTRACT: pitchwheel channel=3 pitch=5632 time=0
EXTRACT: note_on channel=3 note=43 velocity=113 time=0
EXTRACT: note_on channel=8 note=45 velocity=0 time=0
EXTRACT: note_on channel=8 note=44 velocity=100 time=0
EXTRACT: note_on channel=9 note=46 velocity=80 time=0
EXTRACT: note_on channel=11 note=64 velocity=0 time=0
EXTRACT: note_on channel=11 note=61 velocity=0 time=0
EXTRACT: note_on channel=11 note=61 velocity=80 time=0
EXTRACT: note_on channel=11 note=64 velocity=113 time=0
EXTRACT: pitchwheel channel=3 pitch=5120 time=0.00704225
EXTRACT: pitchwheel channel=3 pitch=4608 time=0.00704225
EXTRACT: pitchwheel channel=3 pitch=4224 time=0.00704225
EXTRACT: note_on channel=9 note=46 velocity=0 time=0.084507
EXTRACT: note_on channel=9 note=33 velocity=127 time=0.10563375
EXTRACT: note_on channel=9 note=33 velocity=0 time=0.10563375
EXTRACT: note_on channel=9 note=33 velocity=127 time=0.10563375
EXTRACT: note_on channel=9 note=46 velocity=80 time=0
EXTRACT: note_on channel=9 note=33 velocity=127 time=0
EXTRACT: note_on channel=9 note=33 velocity=0 time=0.10563375
EXTRACT: note_on channel=9 note=46 velocity=0 time=0
EXTRACT: note_on channel=9 note=33 velocity=0 time=0
EXTRACT: note_on channel=0 note=68 velocity=0 time=0.31690125
EXTRACT: note_on channel=0 note=61 velocity=0 time=0
EXTRACT: note_on channel=0 note=64 velocity=0 time=0
EXTRACT: note_on channel=0 note=49 velocity=0 time=0
EXTRACT: note_on channel=0 note=49 velocity=82 time=0
EXTRACT: note_on channel=0 note=61 velocity=82 time=0
EXTRACT: note_on channel=0 note=64 velocity=82 time=0
EXTRACT: note_on channel=0 note=68 velocity=82 time=0
EXTRACT: note_on channel=3 note=43 velocity=0 time=0
EXTRACT: note_on channel=3 note=39 velocity=113 time=0
EXTRACT: note_on channel=8 note=44 velocity=0 time=0
EXTRACT: note_on channel=8 note=40 velocity=100 time=0
EXTRACT: note_on channel=9 note=31 velocity=127 time=0
EXTRACT: note_on channel=9 note=33 velocity=127 time=0
EXTRACT: note_on channel=9 note=46 velocity=80 time=0
EXTRACT: note_on channel=10 note=31 velocity=73 time=0
EXTRACT: note_on channel=11 note=64 velocity=0 time=0
EXTRACT: note_on channel=11 note=61 velocity=0 time=0
EXTRACT: note_on channel=11 note=54 velocity=124 time=0
EXTRACT: pitchwheel channel=11 pitch=128 time=0.00704225
EXTRACT: pitchwheel channel=11 pitch=256 time=0.028169
EXTRACT: pitchwheel channel=11 pitch=384 time=0.0140845
EXTRACT: pitchwheel channel=11 pitch=512 time=0.00704225
EXTRACT: pitchwheel channel=11 pitch=640 time=0.0140845
EXTRACT: pitchwheel channel=11 pitch=768 time=0.0140845
EXTRACT: pitchwheel channel=11 pitch=1024 time=0.00704225
EXTRACT: note_on channel=9 note=46 velocity=0 time=0.0140845
EXTRACT: note_on channel=9 note=33 velocity=0 time=0
EXTRACT: note_on channel=9 note=31 velocity=0 time=0
EXTRACT: note_on channel=10 note=31 velocity=0 time=0
EXTRACT: pitchwheel channel=11 pitch=1280 time=0.00704225
EXTRACT: pitchwheel channel=11 pitch=1408 time=0.00704225
EXTRACT: pitchwheel channel=11 pitch=1536 time=0.00704225
EXTRACT: pitchwheel channel=11 pitch=1792 time=0.00704225
EXTRACT: pitchwheel channel=11 pitch=1920 time=0.00704225
EXTRACT: pitchwheel channel=11 pitch=2048 time=0.0140845
EXTRACT: pitchwheel channel=11 pitch=2304 time=0.00704225
EXTRACT: pitchwheel channel=11 pitch=2432 time=0.00704225
EXTRACT: pitchwheel channel=11 pitch=2944 time=0.0140845
EXTRACT: pitchwheel channel=11 pitch=3072 time=0.0140845
EXTRACT: pitchwheel channel=11 pitch=3328 time=0.0140845
EXTRACT: pitchwheel channel=11 pitch=3584 time=0.00704225
EXTRACT: pitchwheel channel=11 pitch=3840 time=0.02112675
EXTRACT: pitchwheel channel=11 pitch=4608 time=0.0140845
EXTRACT: pitchwheel channel=11 pitch=4736 time=0.00704225
EXTRACT: pitchwheel channel=11 pitch=4992 time=0.00704225
EXTRACT: pitchwheel channel=11 pitch=5248 time=0.0140845
EXTRACT: pitchwheel channel=11 pitch=5376 time=0.00704225
EXTRACT: pitchwheel channel=11 pitch=5888 time=0.00704225
EXTRACT: pitchwheel channel=11 pitch=6144 time=0.00704225
EXTRACT: pitchwheel channel=11 pitch=6528 time=0.00704225
EXTRACT: pitchwheel channel=11 pitch=6912 time=0.0140845
EXTRACT: pitchwheel channel=11 pitch=7296 time=0.00704225
EXTRACT: pitchwheel channel=11 pitch=7552 time=0.00704225
EXTRACT: pitchwheel channel=11 pitch=7808 time=0.00704225
EXTRACT: pitchwheel channel=11 pitch=7936 time=0.00704225
EXTRACT: pitchwheel channel=11 pitch=8064 time=0.0140845
EXTRACT: note_on channel=9 note=46 velocity=80 time=0.056338
EXTRACT: note_on channel=9 note=51 velocity=127 time=0
EXTRACT: note_on channel=9 note=46 velocity=80 time=0
EXTRACT: pitchwheel channel=11 pitch=7936 time=0.00704225
EXTRACT: pitchwheel channel=11 pitch=7808 time=0.02112675
EXTRACT: pitchwheel channel=11 pitch=7680 time=0.00704225
EXTRACT: pitchwheel channel=11 pitch=7552 time=0.00704225
EXTRACT: pitchwheel channel=11 pitch=7424 time=0.00704225
EXTRACT: control_change channel=3 control=72 value=64 time=0.00704225
EXTRACT: pitchwheel channel=11 pitch=7168 time=0
EXTRACT: pitchwheel channel=11 pitch=6912 time=0.0140845
EXTRACT: pitchwheel channel=11 pitch=6656 time=0.00704225
EXTRACT: pitchwheel channel=11 pitch=6400 time=0.00704225
EXTRACT: pitchwheel channel=11 pitch=6144 time=0.00704225
EXTRACT: pitchwheel channel=11 pitch=5376 time=0.00704225
EXTRACT: note_on channel=9 note=46 velocity=0 time=0.00704225
EXTRACT: note_on channel=9 note=51 velocity=0 time=0
EXTRACT: note_on channel=9 note=46 velocity=0 time=0
EXTRACT: control_change channel=11 control=11 value=125 time=0
EXTRACT: control_change channel=11 control=11 value=124 time=0.00704225
EXTRACT: pitchwheel channel=11 pitch=5120 time=0
EXTRACT: pitchwheel channel=11 pitch=4864 time=0.00704225
EXTRACT: pitchwheel channel=11 pitch=4096 time=0.00704225
EXTRACT: pitchwheel channel=11 pitch=3840 time=0.00704225
EXTRACT: pitchwheel channel=11 pitch=3456 time=0.00704225
EXTRACT: control_change channel=11 control=11 value=123 time=0.00704225
EXTRACT: pitchwheel channel=11 pitch=3200 time=0.00704225
EXTRACT: pitchwheel channel=11 pitch=2944 time=0.0140845
EXTRACT: control_change channel=11 control=11 value=122 time=0.00704225
EXTRACT: pitchwheel channel=11 pitch=2176 time=0
EXTRACT: pitchwheel channel=11 pitch=1920 time=0.02112675
EXTRACT: pitchwheel channel=11 pitch=1664 time=0.0140845
EXTRACT: pitchwheel channel=11 pitch=1536 time=0.00704225
EXTRACT: pitchwheel channel=11 pitch=1280 time=0.00704225
EXTRACT: control_change channel=11 control=11 value=121 time=0.00704225
EXTRACT: pitchwheel channel=11 pitch=1024 time=0.00704225
EXTRACT: control_change channel=11 control=11 value=120 time=0.0140845
EXTRACT: pitchwheel channel=11 pitch=896 time=0
EXTRACT: pitchwheel channel=11 pitch=768 time=0.00704225
EXTRACT: pitchwheel channel=11 pitch=640 time=0.00704225
EXTRACT: control_change channel=11 control=11 value=119 time=0.00704225
EXTRACT: control_change channel=11 control=11 value=118 time=0.00704225
EXTRACT: pitchwheel channel=11 pitch=512 time=0.0140845
EXTRACT: control_change channel=11 control=11 value=117 time=0.00704225
EXTRACT: pitchwheel channel=11 pitch=384 time=0
EXTRACT: control_change channel=11 control=11 value=115 time=0.0140845
EXTRACT: pitchwheel channel=11 pitch=256 time=0.00704225
EXTRACT: pitchwheel channel=11 pitch=128 time=0.00704225
EXTRACT: note_on channel=1 note=52 velocity=0 time=0.00704225
EXTRACT: control_change channel=11 control=11 value=114 time=0
EXTRACT: pitchwheel channel=11 pitch=0 time=0.00704225
EXTRACT: note_on channel=1 note=50 velocity=100 time=0.00704225
EXTRACT: note_on channel=1 note=56 velocity=0 time=0.00704225
EXTRACT: note_on channel=1 note=54 velocity=100 time=0
EXTRACT: note_on channel=1 note=68 velocity=0 time=0.00704225
EXTRACT: note_on channel=1 note=61 velocity=0 time=0
EXTRACT: note_on channel=1 note=57 velocity=100 time=0
EXTRACT: note_on channel=1 note=62 velocity=100 time=0.00704225
EXTRACT: control_change channel=11 control=11 value=113 time=0.0140845
EXTRACT: control_change channel=11 control=11 value=112 time=0.00704225
EXTRACT: control_change channel=11 control=11 value=111 time=0.0140845
EXTRACT: note_on channel=0 note=68 velocity=0 time=0.0140845
EXTRACT: note_on channel=0 note=49 velocity=0 time=0
EXTRACT: note_on channel=0 note=61 velocity=0 time=0
EXTRACT: note_on channel=0 note=64 velocity=0 time=0
EXTRACT: note_on channel=0 note=57 velocity=82 time=0
EXTRACT: note_on channel=0 note=62 velocity=82 time=0
EXTRACT: note_on channel=0 note=66 velocity=82 time=0
EXTRACT: note_on channel=0 note=50 velocity=82 time=0
EXTRACT: note_on channel=2 note=56 velocity=0 time=0
EXTRACT: note_on channel=2 note=37 velocity=0 time=0
EXTRACT: note_on channel=2 note=44 velocity=0 time=0
EXTRACT: note_on channel=2 note=52 velocity=0 time=0
EXTRACT: note_on channel=2 note=57 velocity=66 time=0
EXTRACT: note_on channel=2 note=50 velocity=66 time=0
EXTRACT: note_on channel=2 note=45 velocity=66 time=0
EXTRACT: note_on channel=2 note=38 velocity=66 time=0
EXTRACT: note_on channel=3 note=39 velocity=0 time=0
EXTRACT: pitchwheel channel=3 pitch=0 time=0
EXTRACT: note_on channel=3 note=50 velocity=113 time=0
EXTRACT: note_on channel=8 note=40 velocity=0 time=0
EXTRACT: note_on channel=8 note=38 velocity=100 time=0
EXTRACT: note_on channel=9 note=33 velocity=127 time=0
EXTRACT: note_on channel=9 note=46 velocity=80 time=0
EXTRACT: note_on channel=9 note=57 velocity=100 time=0
EXTRACT: control_change channel=11 control=11 value=110 time=0
EXTRACT: control_change channel=11 control=11 value=109 time=0.00704225
EXTRACT: control_change channel=11 control=11 value=107 time=0.0140845
EXTRACT: control_change channel=11 control=11 value=105 time=0.02112675
EXTRACT: control_change channel=11 control=11 value=103 time=0.0140845
EXTRACT: control_change channel=11 control=11 value=101 time=0.0140845
EXTRACT: control_change channel=11 control=11 value=100 time=0.02112675
EXTRACT: control_change channel=11 control=11 value=98 time=0.00704225
EXTRACT: note_on channel=9 note=57 velocity=0 time=0.00704225
EXTRACT: note_on channel=9 note=46 velocity=0 time=0
EXTRACT: note_on channel=9 note=33 velocity=0 time=0
EXTRACT: control_change channel=11 control=11 value=96 time=0.00704225
EXTRACT: control_change channel=11 control=11 value=95 time=0.0140845
EXTRACT: control_change channel=11 control=11 value=93 time=0.00704225
EXTRACT: control_change channel=11 control=11 value=92 time=0.00704225
EXTRACT: control_change channel=11 control=11 value=91 time=0.00704225
EXTRACT: control_change channel=11 control=11 value=89 time=0.00704225
EXTRACT: control_change channel=11 control=11 value=86 time=0.0140845
EXTRACT: control_change channel=11 control=11 value=84 time=0.0140845
EXTRACT: control_change channel=11 control=11 value=82 time=0.00704225
EXTRACT: control_change channel=11 control=11 value=80 time=0.02112675
EXTRACT: control_change channel=11 control=11 value=78 time=0.0140845
EXTRACT: control_change channel=11 control=11 value=76 time=0.0140845
EXTRACT: control_change channel=11 control=11 value=74 time=0.02112675
EXTRACT: control_change channel=11 control=11 value=68 time=0.00704225
EXTRACT: control_change channel=11 control=11 value=67 time=0.00704225
EXTRACT: control_change channel=11 control=11 value=64 time=0.02112675
EXTRACT: control_change channel=11 control=11 value=61 time=0.00704225
EXTRACT: control_change channel=11 control=11 value=60 time=0.00704225
EXTRACT: control_change channel=11 control=11 value=59 time=0.00704225
EXTRACT: control_change channel=11 control=11 value=57 time=0.00704225
EXTRACT: control_change channel=11 control=11 value=56 time=0.0140845
EXTRACT: control_change channel=11 control=11 value=54 time=0.00704225
EXTRACT: control_change channel=11 control=11 value=53 time=0.0140845
EXTRACT: control_change channel=11 control=11 value=50 time=0.00704225
EXTRACT: control_change channel=11 control=11 value=49 time=0.0140845
EXTRACT: control_change channel=11 control=11 value=47 time=0.0140845
EXTRACT: control_change channel=11 control=11 value=45 time=0.00704225
EXTRACT: control_change channel=11 control=11 value=44 time=0.00704225
EXTRACT: control_change channel=3 control=72 value=107 time=0.0140845
EXTRACT: note_on channel=9 note=51 velocity=127 time=0
EXTRACT: note_on channel=9 note=46 velocity=80 time=0
EXTRACT: control_change channel=11 control=11 value=43 time=0
EXTRACT: control_change channel=11 control=11 value=41 time=0.00704225
EXTRACT: control_change channel=11 control=11 value=39 time=0.00704225
EXTRACT: control_change channel=11 control=11 value=37 time=0.0140845
EXTRACT: control_change channel=11 control=11 value=36 time=0.02112675
EXTRACT: control_change channel=11 control=11 value=33 time=0.00704225
EXTRACT: control_change channel=11 control=11 value=32 time=0.0140845
EXTRACT: control_change channel=11 control=11 value=31 time=0.0140845
EXTRACT: control_change channel=11 control=11 value=29 time=0.00704225
EXTRACT: control_change channel=11 control=11 value=28 time=0.00704225
EXTRACT: note_on channel=9 note=46 velocity=0 time=0.00704225
EXTRACT: note_on channel=9 note=51 velocity=0 time=0
EXTRACT: control_change channel=11 control=11 value=27 time=0
EXTRACT: control_change channel=11 control=11 value=24 time=0.00704225
EXTRACT: control_change channel=11 control=11 value=23 time=0.02112675
EXTRACT: control_change channel=11 control=11 value=21 time=0.0140845
EXTRACT: control_change channel=11 control=11 value=19 time=0.00704225
EXTRACT: control_change channel=11 control=11 value=17 time=0.0140845
EXTRACT: control_change channel=11 control=11 value=16 time=0.00704225
EXTRACT: control_change channel=11 control=11 value=15 time=0.00704225
EXTRACT: control_change channel=11 control=11 value=12 time=0.00704225
EXTRACT: control_change channel=11 control=11 value=11 time=0.00704225
EXTRACT: note_on channel=11 note=54 velocity=0 time=0.0140845
EXTRACT: control_change channel=11 control=11 value=9 time=0
EXTRACT: control_change channel=11 control=11 value=6 time=0.00704225
EXTRACT: control_change channel=11 control=11 value=5 time=0.00704225
EXTRACT: control_change channel=11 control=11 value=4 time=0.00704225
EXTRACT: note_on channel=0 note=50 velocity=0 time=0.19014075
EXTRACT: note_on channel=0 note=57 velocity=0 time=0
EXTRACT: note_on channel=0 note=62 velocity=0 time=0
EXTRACT: note_on channel=0 note=66 velocity=0 time=0
EXTRACT: note_on channel=0 note=62 velocity=82 time=0
EXTRACT: note_on channel=3 note=50 velocity=0 time=0
EXTRACT: note_on channel=3 note=50 velocity=113 time=0
EXTRACT: note_on channel=8 note=38 velocity=0 time=0
EXTRACT: note_on channel=8 note=38 velocity=100 time=0
EXTRACT: note_on channel=9 note=31 velocity=127 time=0
EXTRACT: note_on channel=9 note=33 velocity=127 time=0
EXTRACT: note_on channel=9 note=46 velocity=80 time=0
EXTRACT: note_on channel=10 note=31 velocity=73 time=0
EXTRACT: note_on channel=0 note=50 velocity=82 time=0.00704225
EXTRACT: note_on channel=0 note=57 velocity=82 time=0
EXTRACT: note_on channel=0 note=66 velocity=82 time=0
EXTRACT: control_change channel=11 control=11 value=127 time=0.03521125
EXTRACT: note_on channel=9 note=46 velocity=0 time=0.06338025
EXTRACT: note_on channel=9 note=33 velocity=0 time=0
EXTRACT: note_on channel=9 note=31 velocity=0 time=0
EXTRACT: note_on channel=10 note=31 velocity=0 time=0
EXTRACT: note_on channel=9 note=46 velocity=80 time=0.31690125
EXTRACT: note_on channel=11 note=62 velocity=80 time=0
EXTRACT: note_on channel=11 note=66 velocity=124 time=0
EXTRACT: pitchwheel channel=11 pitch=-8064 time=0.00704225
EXTRACT: pitchwheel channel=11 pitch=-7808 time=0.00704225
EXTRACT: pitchwheel channel=11 pitch=-7680 time=0.00704225
EXTRACT: pitchwheel channel=11 pitch=-7424 time=0.00704225
EXTRACT: pitchwheel channel=11 pitch=-7296 time=0.0140845
EXTRACT: pitchwheel channel=11 pitch=-7040 time=0.00704225
EXTRACT: pitchwheel channel=11 pitch=-6912 time=0.00704225
EXTRACT: pitchwheel channel=11 pitch=-6656 time=0.00704225
EXTRACT: pitchwheel channel=11 pitch=-6528 time=0.00704225
EXTRACT: pitchwheel channel=11 pitch=-6272 time=0.0140845
EXTRACT: pitchwheel channel=11 pitch=-6144 time=0.00704225
EXTRACT: pitchwheel channel=11 pitch=-5888 time=0.00704225
EXTRACT: note_on channel=9 note=46 velocity=0 time=0.00704225
EXTRACT: pitchwheel channel=11 pitch=-5760 time=0
EXTRACT: pitchwheel channel=11 pitch=-5504 time=0.00704225
EXTRACT: pitchwheel channel=11 pitch=-5376 time=0.0140845
EXTRACT: pitchwheel channel=11 pitch=-5248 time=0.00704225
EXTRACT: pitchwheel channel=11 pitch=-4992 time=0.00704225
EXTRACT: pitchwheel channel=11 pitch=-4864 time=0.00704225
EXTRACT: pitchwheel channel=11 pitch=-4608 time=0.00704225
EXTRACT: pitchwheel channel=11 pitch=-4480 time=0.0140845
EXTRACT: pitchwheel channel=11 pitch=-4224 time=0.00704225
EXTRACT: pitchwheel channel=11 pitch=-4096 time=0.00704225
EXTRACT: pitchwheel channel=11 pitch=-3840 time=0.00704225
EXTRACT: pitchwheel channel=11 pitch=-3712 time=0.00704225
EXTRACT: note_on channel=0 note=66 velocity=0 time=0.00704225
EXTRACT: note_on channel=0 note=50 velocity=0 time=0
EXTRACT: note_on channel=0 note=50 velocity=82 time=0
EXTRACT: note_on channel=0 note=66 velocity=82 time=0
EXTRACT: note_on channel=0 note=57 velocity=0 time=0.00704225
EXTRACT: note_on channel=0 note=62 velocity=0 time=0
EXTRACT: note_on channel=0 note=57 velocity=82 time=0
EXTRACT: note_on channel=0 note=57 velocity=82 time=0
EXTRACT: note_on channel=0 note=62 velocity=82 time=0
EXTRACT: note_on channel=9 note=33 velocity=127 time=0
EXTRACT: pitchwheel channel=11 pitch=-3456 time=0
EXTRACT: pitchwheel channel=11 pitch=-3328 time=0.00704225
EXTRACT: pitchwheel channel=11 pitch=-3072 time=0.00704225
EXTRACT: pitchwheel channel=11 pitch=-2944 time=0.00704225
EXTRACT: pitchwheel channel=11 pitch=-2688 time=0.00704225
EXTRACT: pitchwheel channel=11 pitch=-2560 time=0.0140845
EXTRACT: pitchwheel channel=11 pitch=-2432 time=0.00704225
EXTRACT: pitchwheel channel=11 pitch=-2176 time=0.00704225
EXTRACT: pitchwheel channel=11 pitch=-2048 time=0.00704225
EXTRACT: pitchwheel channel=11 pitch=-1792 time=0.00704225
EXTRACT: pitchwheel channel=11 pitch=-1664 time=0.0140845
EXTRACT: pitchwheel channel=11 pitch=-1408 time=0.00704225
EXTRACT: pitchwheel channel=11 pitch=-1280 time=0.00704225
EXTRACT: note_on channel=9 note=33 velocity=0 time=0.00704225
EXTRACT: pitchwheel channel=11 pitch=-1024 time=0
EXTRACT: pitchwheel channel=11 pitch=-896 time=0.00704225
EXTRACT: pitchwheel channel=11 pitch=-640 time=0.0140845
EXTRACT: pitchwheel channel=11 pitch=-512 time=0.00704225
EXTRACT: pitchwheel channel=11 pitch=-256 time=0.00704225
EXTRACT: pitchwheel channel=11 pitch=-128 time=0.00704225
EXTRACT: pitchwheel channel=11 pitch=0 time=0.00704225
EXTRACT: note_on channel=3 note=50 velocity=0 time=0.056338
EXTRACT: note_on channel=3 note=50 velocity=113 time=0
EXTRACT: note_on channel=8 note=38 velocity=0 time=0
EXTRACT: note_on channel=8 note=38 velocity=100 time=0
EXTRACT: note_on channel=9 note=46 velocity=80 time=0
EXTRACT: note_on channel=9 note=46 velocity=0 time=0.10563375
EXTRACT: note_on channel=9 note=33 velocity=127 time=0.10563375
EXTRACT: note_on channel=9 note=33 velocity=0 time=0.10563375
EXTRACT: note_on channel=0 note=50 velocity=0 time=0.09154925
EXTRACT: note_on channel=0 note=66 velocity=0 time=0
EXTRACT: note_on channel=0 note=57 velocity=0 time=0.00704225
EXTRACT: note_on channel=0 note=57 velocity=0 time=0
EXTRACT: note_on channel=0 note=62 velocity=0 time=0
EXTRACT: note_on channel=0 note=50 velocity=82 time=0
EXTRACT: note_on channel=0 note=66 velocity=82 time=0
EXTRACT: note_on channel=0 note=57 velocity=82 time=0.00704225
EXTRACT: note_on channel=0 note=57 velocity=82 time=0
EXTRACT: note_on channel=0 note=62 velocity=82 time=0
EXTRACT: note_on channel=3 note=50 velocity=0 time=0
EXTRACT: note_on channel=3 note=52 velocity=113 time=0
EXTRACT: note_on channel=9 note=33 velocity=127 time=0
EXTRACT: note_on channel=9 note=46 velocity=80 time=0
EXTRACT: pitchwheel channel=3 pitch=128 time=0.04929575
EXTRACT: pitchwheel channel=3 pitch=256 time=0.0140845
EXTRACT: pitchwheel channel=3 pitch=384 time=0.0140845
EXTRACT: pitchwheel channel=3 pitch=640 time=0.028169
EXTRACT: note_on channel=9 note=46 velocity=0 time=0
EXTRACT: note_on channel=9 note=33 velocity=0 time=0
EXTRACT: pitchwheel channel=3 pitch=896 time=0.0140845
EXTRACT: pitchwheel channel=3 pitch=1152 time=0.0140845
EXTRACT: pitchwheel channel=3 pitch=1408 time=0.00704225
EXTRACT: pitchwheel channel=3 pitch=2176 time=0.00704225
EXTRACT: pitchwheel channel=3 pitch=4736 time=0.00704225
EXTRACT: pitchwheel channel=3 pitch=6528 time=0.00704225
EXTRACT: pitchwheel channel=3 pitch=6912 time=0.0140845
EXTRACT: pitchwheel channel=3 pitch=7424 time=0.00704225
EXTRACT: pitchwheel channel=3 pitch=7936 time=0.00704225
EXTRACT: pitchwheel channel=3 pitch=8191 time=0.00704225
EXTRACT: note_on channel=0 note=66 velocity=0 time=0.21830975
EXTRACT: note_on channel=0 note=50 velocity=0 time=0
EXTRACT: note_on channel=0 note=50 velocity=82 time=0
EXTRACT: note_on channel=0 note=66 velocity=82 time=0
EXTRACT: note_on channel=0 note=57 velocity=0 time=0.00704225
EXTRACT: note_on channel=0 note=62 velocity=0 time=0
EXTRACT: note_on channel=0 note=57 velocity=0 time=0
EXTRACT: note_on channel=0 note=57 velocity=82 time=0
EXTRACT: note_on channel=0 note=62 velocity=82 time=0
EXTRACT: note_on channel=0 note=57 velocity=82 time=0
EXTRACT: note_on channel=3 note=52 velocity=0 time=0
EXTRACT: note_on channel=3 note=55 velocity=113 time=0
EXTRACT: note_on channel=8 note=38 velocity=0 time=0
EXTRACT: note_on channel=8 note=38 velocity=100 time=0
EXTRACT: note_on channel=9 note=31 velocity=127 time=0
EXTRACT: note_on channel=9 note=33 velocity=127 time=0
EXTRACT: note_on channel=9 note=46 velocity=80 time=0
EXTRACT: note_on channel=10 note=31 velocity=73 time=0
EXTRACT: note_on channel=9 note=46 velocity=0 time=0.10563375
EXTRACT: note_on channel=9 note=33 velocity=0 time=0
EXTRACT: note_on channel=9 note=31 velocity=0 time=0
EXTRACT: note_on channel=10 note=31 velocity=0 time=0
EXTRACT: note_on channel=0 note=50 velocity=0 time=0.309859
EXTRACT: note_on channel=0 note=66 velocity=0 time=0
EXTRACT: note_on channel=0 note=66 velocity=82 time=0
EXTRACT: note_on channel=0 note=50 velocity=82 time=0
EXTRACT: note_on channel=0 note=62 velocity=0 time=0.00704225
EXTRACT: note_on channel=0 note=57 velocity=0 time=0
EXTRACT: note_on channel=0 note=57 velocity=0 time=0
EXTRACT: note_on channel=0 note=62 velocity=82 time=0
EXTRACT: note_on channel=0 note=57 velocity=82 time=0
EXTRACT: note_on channel=8 note=38 velocity=0 time=0
EXTRACT: note_on channel=8 note=40 velocity=100 time=0
EXTRACT: note_on channel=9 note=51 velocity=127 time=0
EXTRACT: note_on channel=9 note=46 velocity=80 time=0
EXTRACT: note_on channel=11 note=66 velocity=0 time=0
EXTRACT: note_on channel=11 note=62 velocity=0 time=0
EXTRACT: note_on channel=11 note=61 velocity=80 time=0
EXTRACT: control_change channel=11 control=1 value=13 time=0
EXTRACT: note_on channel=11 note=64 velocity=117 time=0
EXTRACT: pitchwheel channel=11 pitch=-8064 time=0.00704225
EXTRACT: control_change channel=11 control=1 value=0 time=0
EXTRACT: pitchwheel channel=11 pitch=-7808 time=0.00704225
EXTRACT: pitchwheel channel=11 pitch=-7552 time=0.0140845
EXTRACT: pitchwheel channel=11 pitch=-7296 time=0.00704225
EXTRACT: pitchwheel channel=11 pitch=-7040 time=0.00704225
EXTRACT: pitchwheel channel=11 pitch=-6912 time=0.00704225
EXTRACT: pitchwheel channel=11 pitch=-6656 time=0.00704225
EXTRACT: pitchwheel channel=11 pitch=-6400 time=0.0140845
EXTRACT: pitchwheel channel=11 pitch=-6144 time=0.00704225
EXTRACT: pitchwheel channel=11 pitch=-5888 time=0.00704225
EXTRACT: pitchwheel channel=11 pitch=-5760 time=0.00704225
EXTRACT: pitchwheel channel=11 pitch=-5504 time=0.00704225
EXTRACT: note_on channel=9 note=46 velocity=0 time=0.00704225
EXTRACT: note_on channel=9 note=51 velocity=0 time=0
EXTRACT: pitchwheel channel=11 pitch=-5248 time=0.00704225
EXTRACT: pitchwheel channel=11 pitch=-4992 time=0.00704225
EXTRACT: pitchwheel channel=11 pitch=-4736 time=0.00704225
EXTRACT: pitchwheel channel=11 pitch=-4608 time=0.00704225
EXTRACT: pitchwheel channel=11 pitch=-4352 time=0.00704225
EXTRACT: pitchwheel channel=11 pitch=-4096 time=0.0140845
EXTRACT: pitchwheel channel=11 pitch=-3840 time=0.00704225
EXTRACT: pitchwheel channel=11 pitch=-3584 time=0.00704225
EXTRACT: pitchwheel channel=11 pitch=-3456 time=0.00704225
EXTRACT: pitchwheel channel=11 pitch=-3200 time=0.00704225
EXTRACT: pitchwheel channel=11 pitch=-2944 time=0.0140845
EXTRACT: pitchwheel channel=11 pitch=-2688 time=0.00704225
EXTRACT: note_on channel=0 note=57 velocity=0 time=0.00704225
EXTRACT: note_on channel=0 note=62 velocity=0 time=0
EXTRACT: note_on channel=0 note=66 velocity=0 time=0
EXTRACT: note_on channel=0 note=64 velocity=82 time=0
EXTRACT: note_on channel=0 note=57 velocity=82 time=0
EXTRACT: note_on channel=0 note=61 velocity=82 time=0
EXTRACT: pitchwheel channel=11 pitch=-2432 time=0
EXTRACT: pitchwheel channel=11 pitch=-2304 time=0.00704225
EXTRACT: pitchwheel channel=11 pitch=-2048 time=0.00704225
EXTRACT: pitchwheel channel=11 pitch=-1792 time=0.0140845
EXTRACT: pitchwheel channel=11 pitch=-1536 time=0.00704225
EXTRACT: pitchwheel channel=11 pitch=-1280 time=0.00704225
EXTRACT: pitchwheel channel=11 pitch=-1152 time=0.00704225
EXTRACT: pitchwheel channel=11 pitch=-896 time=0.00704225
EXTRACT: pitchwheel channel=11 pitch=-640 time=0.0140845
EXTRACT: pitchwheel channel=11 pitch=-384 time=0.00704225
EXTRACT: pitchwheel channel=11 pitch=-128 time=0.00704225
EXTRACT: pitchwheel channel=11 pitch=0 time=0.00704225
EXTRACT: note_on channel=1 note=50 velocity=0 time=0.00704225
EXTRACT: note_on channel=1 note=54 velocity=0 time=0.00704225
EXTRACT: note_on channel=1 note=57 velocity=0 time=0.00704225
EXTRACT: note_on channel=1 note=62 velocity=0 time=0.00704225
EXTRACT: note_on channel=1 note=52 velocity=100 time=0.028169
EXTRACT: note_on channel=1 note=57 velocity=100 time=0.02112675
EXTRACT: note_on channel=1 note=61 velocity=100 time=0.00704225
EXTRACT: note_on channel=1 note=69 velocity=100 time=0
EXTRACT: note_on channel=0 note=50 velocity=0 time=0.028169
EXTRACT: note_on channel=0 note=61 velocity=0 time=0.00704225
EXTRACT: note_on channel=0 note=57 velocity=0 time=0
EXTRACT: note_on channel=0 note=64 velocity=82 time=0
EXTRACT: note_on channel=2 note=38 velocity=0 time=0
EXTRACT: note_on channel=2 note=57 velocity=0 time=0
EXTRACT: note_on channel=2 note=50 velocity=0 time=0
EXTRACT: note_on channel=2 note=45 velocity=0 time=0
EXTRACT: note_on channel=2 note=33 velocity=66 time=0
EXTRACT: note_on channel=2 note=45 velocity=66 time=0
EXTRACT: note_on channel=2 note=52 velocity=66 time=0
EXTRACT: note_on channel=2 note=57 velocity=66 time=0
EXTRACT: note_on channel=3 note=55 velocity=0 time=0
EXTRACT: note_on channel=3 note=43 velocity=113 time=0
EXTRACT: note_on channel=8 note=40 velocity=0 time=0
EXTRACT: note_on channel=8 note=45 velocity=100 time=0
EXTRACT: note_on channel=9 note=33 velocity=127 time=0
EXTRACT: note_on channel=9 note=46 velocity=80 time=0
EXTRACT: note_on channel=11 note=64 velocity=0 time=0
EXTRACT: note_on channel=11 note=61 velocity=0 time=0
EXTRACT: note_on channel=11 note=61 velocity=80 time=0
EXTRACT: note_on channel=11 note=64 velocity=113 time=0
EXTRACT: note_on channel=0 note=64 velocity=0 time=0.00704225
EXTRACT: note_on channel=0 note=61 velocity=82 time=0
EXTRACT: note_on channel=0 note=45 velocity=82 time=0
EXTRACT: note_on channel=0 note=57 velocity=82 time=0.00704225
EXTRACT: note_on channel=9 note=46 velocity=0 time=0.09154925
EXTRACT: note_on channel=9 note=33 velocity=0 time=0
EXTRACT: note_on channel=9 note=51 velocity=127 time=0.31690125
EXTRACT: note_on channel=9 note=46 velocity=80 time=0
EXTRACT: note_on channel=9 note=46 velocity=0 time=0.10563375
EXTRACT: note_on channel=9 note=51 velocity=0 time=0
EXTRACT: note_on channel=8 note=45 velocity=0 time=0.10563375
EXTRACT: note_on channel=8 note=47 velocity=100 time=0
EXTRACT: note_on channel=0 note=64 velocity=0 time=0.2112675
EXTRACT: note_on channel=0 note=64 velocity=82 time=0
EXTRACT: note_on channel=3 note=43 velocity=0 time=0
EXTRACT: note_on channel=3 note=43 velocity=113 time=0
EXTRACT: note_on channel=8 note=47 velocity=0 time=0
EXTRACT: note_on channel=8 note=47 velocity=100 time=0
EXTRACT: note_on channel=9 note=31 velocity=127 time=0
EXTRACT: note_on channel=9 note=33 velocity=127 time=0
EXTRACT: note_on channel=9 note=46 velocity=80 time=0
EXTRACT: note_on channel=10 note=31 velocity=73 time=0
EXTRACT: note_on channel=11 note=64 velocity=0 time=0
EXTRACT: note_on channel=11 note=61 velocity=0 time=0
EXTRACT: note_on channel=11 note=61 velocity=80 time=0
EXTRACT: note_on channel=11 note=64 velocity=113 time=0
EXTRACT: note_on channel=0 note=61 velocity=0 time=0.00704225
EXTRACT: note_on channel=0 note=45 velocity=0 time=0
EXTRACT: note_on channel=0 note=45 velocity=82 time=0
EXTRACT: note_on channel=0 note=61 velocity=82 time=0
EXTRACT: note_on channel=0 note=57 velocity=0 time=0.00704225
EXTRACT: note_on channel=0 note=57 velocity=82 time=0
EXTRACT: note_on channel=9 note=46 velocity=0 time=0.09154925
EXTRACT: note_on channel=9 note=33 velocity=0 time=0
EXTRACT: note_on channel=9 note=31 velocity=0 time=0
EXTRACT: note_on channel=10 note=31 velocity=0 time=0
EXTRACT: note_on channel=8 note=47 velocity=0 time=0.31690125
EXTRACT: note_on channel=8 note=45 velocity=100 time=0
EXTRACT: note_on channel=9 note=46 velocity=80 time=0
EXTRACT: note_on channel=11 note=64 velocity=0 time=0
EXTRACT: note_on channel=11 note=61 velocity=0 time=0
EXTRACT: note_on channel=11 note=61 velocity=80 time=0
EXTRACT: note_on channel=11 note=64 velocity=113 time=0
EXTRACT: note_on channel=9 note=46 velocity=0 time=0.10563375
EXTRACT: note_on channel=9 note=33 velocity=127 time=0.10563375
EXTRACT: note_on channel=9 note=33 velocity=0 time=0.10563375
EXTRACT: note_on channel=1 note=52 velocity=0 time=0.0140845
EXTRACT: note_on channel=1 note=57 velocity=0 time=0.02112675
EXTRACT: note_on channel=1 note=61 velocity=0 time=0.00704225
EXTRACT: note_on channel=1 note=69 velocity=0 time=0
EXTRACT: note_on channel=1 note=52 velocity=100 time=0.00704225
EXTRACT: pitchwheel channel=3 pitch=8191 time=0.00704225
EXTRACT: pitchwheel channel=3 pitch=8064 time=0.00704225
EXTRACT: note_on channel=1 note=56 velocity=100 time=0.00704225
EXTRACT: pitchwheel channel=3 pitch=7552 time=0
EXTRACT: note_on channel=1 note=61 velocity=100 time=0.00704225
EXTRACT: note_on channel=1 note=68 velocity=100 time=0
EXTRACT: pitchwheel channel=3 pitch=7040 time=0
EXTRACT: pitchwheel channel=3 pitch=6528 time=0.00704225
EXTRACT: note_on channel=0 note=45 velocity=0 time=0.00704225
EXTRACT: note_on channel=0 note=61 velocity=0 time=0.00704225
EXTRACT: note_on channel=0 note=57 velocity=0 time=0
EXTRACT: pitchwheel channel=3 pitch=6144 time=0
EXTRACT: note_on channel=0 note=64 velocity=0 time=0.00704225
EXTRACT: note_on channel=0 note=61 velocity=82 time=0
EXTRACT: note_on channel=0 note=64 velocity=82 time=0
EXTRACT: note_on channel=0 note=49 velocity=82 time=0
EXTRACT: note_on channel=0 note=57 velocity=82 time=0
EXTRACT: note_on channel=2 note=57 velocity=0 time=0
EXTRACT: note_on channel=2 note=33 velocity=0 time=0
EXTRACT: note_on channel=2 note=45 velocity=0 time=0
EXTRACT: note_on channel=2 note=52 velocity=0 time=0
EXTRACT: note_on channel=2 note=37 velocity=66 time=0
EXTRACT: note_on channel=2 note=44 velocity=66 time=0
EXTRACT: note_on channel=2 note=49 velocity=66 time=0
EXTRACT: note_on channel=2 note=56 velocity=66 time=0
EXTRACT: note_on channel=3 note=43 velocity=0 time=0
EXTRACT: pitchwheel channel=3 pitch=5632 time=0
EXTRACT: note_on channel=3 note=43 velocity=113 time=0
EXTRACT: note_on channel=8 note=45 velocity=0 time=0
EXTRACT: note_on channel=8 note=44 velocity=100 time=0
EXTRACT: note_on channel=9 note=46 velocity=80 time=0
EXTRACT: note_on channel=11 note=64 velocity=0 time=0
EXTRACT: note_on channel=11 note=61 velocity=0 time=0
EXTRACT: note_on channel=11 note=61 velocity=80 time=0
EXTRACT: note_on channel=11 note=64 velocity=113 time=0
EXTRACT: pitchwheel channel=3 pitch=5120 time=0.00704225
EXTRACT: pitchwheel channel=3 pitch=4608 time=0.00704225
EXTRACT: pitchwheel channel=3 pitch=4224 time=0.00704225
EXTRACT: note_on channel=9 note=46 velocity=0 time=0.084507
EXTRACT: note_on channel=9 note=33 velocity=127 time=0.10563375
EXTRACT: note_on channel=9 note=33 velocity=0 time=0.10563375
EXTRACT: note_on channel=8 note=44 velocity=0 time=0.10563375
EXTRACT: note_on channel=8 note=40 velocity=100 time=0
EXTRACT: note_on channel=9 note=33 velocity=127 time=0
EXTRACT: note_on channel=9 note=46 velocity=80 time=0
EXTRACT: note_on channel=9 note=46 velocity=0 time=0.10563375
EXTRACT: note_on channel=9 note=33 velocity=0 time=0
EXTRACT: control_change channel=4 control=10 value=65 time=0.197183
EXTRACT: note_on channel=1 note=64 velocity=100 time=0.06338025
EXTRACT: note_on channel=1 note=68 velocity=0 time=0.03521125
EXTRACT: note_on channel=0 note=57 velocity=0 time=0.02112675
EXTRACT: note_on channel=0 note=61 velocity=0 time=0
EXTRACT: note_on channel=0 note=64 velocity=0 time=0
EXTRACT: note_on channel=0 note=49 velocity=0 time=0
EXTRACT: note_on channel=0 note=49 velocity=82 time=0
EXTRACT: note_on channel=0 note=61 velocity=82 time=0
EXTRACT: note_on channel=0 note=64 velocity=82 time=0
EXTRACT: note_on channel=0 note=57 velocity=82 time=0
EXTRACT: note_on channel=3 note=43 velocity=0 time=0
EXTRACT: note_on channel=3 note=39 velocity=113 time=0
EXTRACT: note_on channel=8 note=40 velocity=0 time=0
EXTRACT: note_on channel=8 note=40 velocity=100 time=0
EXTRACT: note_on channel=9 note=31 velocity=127 time=0
EXTRACT: note_on channel=9 note=33 velocity=127 time=0
EXTRACT: note_on channel=9 note=46 velocity=80 time=0
EXTRACT: note_on channel=10 note=31 velocity=73 time=0
EXTRACT: note_on channel=11 note=64 velocity=0 time=0
EXTRACT: note_on channel=11 note=61 velocity=0 time=0
EXTRACT: note_on channel=11 note=54 velocity=124 time=0
EXTRACT: pitchwheel channel=11 pitch=128 time=0.00704225
EXTRACT: pitchwheel channel=11 pitch=256 time=0.028169
EXTRACT: pitchwheel channel=11 pitch=384 time=0.0140845
EXTRACT: pitchwheel channel=11 pitch=512 time=0.00704225
EXTRACT: pitchwheel channel=11 pitch=640 time=0.0140845
EXTRACT: pitchwheel channel=11 pitch=768 time=0.0140845
EXTRACT: pitchwheel channel=11 pitch=1024 time=0.00704225
EXTRACT: note_on channel=9 note=46 velocity=0 time=0.0140845
EXTRACT: note_on channel=9 note=33 velocity=0 time=0
EXTRACT: note_on channel=9 note=31 velocity=0 time=0
EXTRACT: note_on channel=10 note=31 velocity=0 time=0
EXTRACT: pitchwheel channel=11 pitch=1280 time=0.00704225
EXTRACT: pitchwheel channel=11 pitch=1408 time=0.00704225
EXTRACT: pitchwheel channel=11 pitch=1536 time=0.00704225
EXTRACT: pitchwheel channel=11 pitch=1792 time=0.00704225
EXTRACT: pitchwheel channel=11 pitch=1920 time=0.00704225
EXTRACT: pitchwheel channel=11 pitch=2048 time=0.0140845
EXTRACT: pitchwheel channel=11 pitch=2304 time=0.00704225
EXTRACT: pitchwheel channel=11 pitch=2432 time=0.00704225
EXTRACT: pitchwheel channel=11 pitch=2944 time=0.0140845
EXTRACT: pitchwheel channel=11 pitch=3072 time=0.0140845
EXTRACT: pitchwheel channel=11 pitch=3328 time=0.0140845
EXTRACT: pitchwheel channel=11 pitch=3584 time=0.00704225
EXTRACT: pitchwheel channel=11 pitch=3840 time=0.02112675
EXTRACT: pitchwheel channel=11 pitch=4608 time=0.0140845
EXTRACT: pitchwheel channel=11 pitch=4736 time=0.00704225
EXTRACT: pitchwheel channel=11 pitch=4992 time=0.00704225
EXTRACT: pitchwheel channel=11 pitch=5248 time=0.0140845
EXTRACT: pitchwheel channel=11 pitch=5376 time=0.00704225
EXTRACT: pitchwheel channel=11 pitch=5888 time=0.00704225
EXTRACT: pitchwheel channel=11 pitch=6144 time=0.00704225
EXTRACT: pitchwheel channel=11 pitch=6528 time=0.00704225
EXTRACT: pitchwheel channel=11 pitch=6912 time=0.0140845
EXTRACT: pitchwheel channel=11 pitch=7296 time=0.00704225
EXTRACT: pitchwheel channel=11 pitch=7552 time=0.00704225
EXTRACT: pitchwheel channel=11 pitch=7808 time=0.00704225
EXTRACT: pitchwheel channel=11 pitch=7936 time=0.00704225
EXTRACT: pitchwheel channel=11 pitch=8064 time=0.0140845
EXTRACT: note_on channel=9 note=51 velocity=127 time=0.056338
EXTRACT: note_on channel=9 note=46 velocity=80 time=0
EXTRACT: pitchwheel channel=11 pitch=7936 time=0.00704225
EXTRACT: pitchwheel channel=11 pitch=7808 time=0.02112675
EXTRACT: pitchwheel channel=11 pitch=7680 time=0.00704225
EXTRACT: pitchwheel channel=11 pitch=7552 time=0.00704225
EXTRACT: pitchwheel channel=11 pitch=7424 time=0.00704225
EXTRACT: pitchwheel channel=11 pitch=7168 time=0.00704225
EXTRACT: control_change channel=3 control=72 value=64 time=0.00704225
EXTRACT: pitchwheel channel=11 pitch=6912 time=0.00704225
EXTRACT: pitchwheel channel=11 pitch=6656 time=0.00704225
EXTRACT: pitchwheel channel=11 pitch=6400 time=0.00704225
EXTRACT: pitchwheel channel=11 pitch=6144 time=0.00704225
EXTRACT: pitchwheel channel=11 pitch=5376 time=0.00704225
EXTRACT: note_on channel=9 note=46 velocity=0 time=0.00704225
EXTRACT: note_on channel=9 note=51 velocity=0 time=0
EXTRACT: control_change channel=11 control=11 value=125 time=0
EXTRACT: control_change channel=11 control=11 value=124 time=0.00704225
EXTRACT: pitchwheel channel=11 pitch=5120 time=0
EXTRACT: pitchwheel channel=11 pitch=4864 time=0.00704225
EXTRACT: pitchwheel channel=11 pitch=4096 time=0.00704225
EXTRACT: pitchwheel channel=11 pitch=3840 time=0.00704225
EXTRACT: pitchwheel channel=11 pitch=3456 time=0.00704225
EXTRACT: control_change channel=11 control=11 value=123 time=0.00704225
EXTRACT: pitchwheel channel=11 pitch=3200 time=0.00704225
EXTRACT: pitchwheel channel=11 pitch=2944 time=0.0140845
EXTRACT: control_change channel=11 control=11 value=122 time=0.00704225
EXTRACT: pitchwheel channel=11 pitch=2176 time=0
EXTRACT: pitchwheel channel=11 pitch=1920 time=0.02112675
EXTRACT: pitchwheel channel=11 pitch=1664 time=0.0140845
EXTRACT: pitchwheel channel=11 pitch=1536 time=0.00704225
EXTRACT: pitchwheel channel=11 pitch=1280 time=0.00704225
EXTRACT: control_change channel=11 control=11 value=121 time=0.00704225
EXTRACT: pitchwheel channel=11 pitch=1024 time=0.00704225
EXTRACT: control_change channel=11 control=11 value=120 time=0.0140845
EXTRACT: pitchwheel channel=11 pitch=896 time=0
EXTRACT: pitchwheel channel=11 pitch=768 time=0.00704225
EXTRACT: pitchwheel channel=11 pitch=640 time=0.00704225
EXTRACT: control_change channel=11 control=11 value=119 time=0.00704225
EXTRACT: control_change channel=11 control=11 value=118 time=0.00704225
EXTRACT: pitchwheel channel=11 pitch=512 time=0.0140845
EXTRACT: control_change channel=11 control=11 value=117 time=0.00704225
EXTRACT: pitchwheel channel=11 pitch=384 time=0
EXTRACT: control_change channel=11 control=11 value=115 time=0.0140845
EXTRACT: pitchwheel channel=11 pitch=256 time=0.00704225
EXTRACT: pitchwheel channel=11 pitch=128 time=0.00704225
EXTRACT: note_on channel=1 note=52 velocity=0 time=0.00704225
EXTRACT: control_change channel=11 control=11 value=114 time=0
EXTRACT: note_on channel=1 note=57 velocity=100 time=0.00704225
EXTRACT: pitchwheel channel=11 pitch=0 time=0
EXTRACT: note_on channel=1 note=54 velocity=100 time=0.00704225
EXTRACT: note_on channel=1 note=56 velocity=0 time=0.00704225
EXTRACT: note_on channel=1 note=62 velocity=100 time=0
EXTRACT: note_on channel=1 note=78 velocity=100 time=0
EXTRACT: note_on channel=1 note=64 velocity=0 time=0.0140845
EXTRACT: note_on channel=1 note=61 velocity=0 time=0.0140845
EXTRACT: control_change channel=11 control=11 value=113 time=0
EXTRACT: control_change channel=11 control=11 value=112 time=0.00704225
EXTRACT: control_change channel=11 control=11 value=111 time=0.0140845
EXTRACT: pitchwheel channel=3 pitch=0 time=0.00704225
EXTRACT: note_on channel=0 note=57 velocity=0 time=0.00704225
EXTRACT: note_on channel=0 note=49 velocity=0 time=0
EXTRACT: note_on channel=0 note=61 velocity=0 time=0
EXTRACT: note_on channel=0 note=64 velocity=0 time=0
EXTRACT: note_on channel=0 note=66 velocity=82 time=0
EXTRACT: note_on channel=2 note=56 velocity=0 time=0
EXTRACT: note_on channel=2 note=37 velocity=0 time=0
EXTRACT: note_on channel=2 note=44 velocity=0 time=0
EXTRACT: note_on channel=2 note=49 velocity=0 time=0
EXTRACT: note_on channel=2 note=45 velocity=66 time=0
EXTRACT: note_on channel=2 note=38 velocity=66 time=0
EXTRACT: note_on channel=2 note=57 velocity=66 time=0
EXTRACT: note_on channel=2 note=50 velocity=66 time=0
EXTRACT: note_on channel=3 note=39 velocity=0 time=0
EXTRACT: note_on channel=3 note=50 velocity=113 time=0
EXTRACT: note_on channel=8 note=40 velocity=0 time=0
EXTRACT: note_on channel=9 note=33 velocity=127 time=0
EXTRACT: note_on channel=9 note=46 velocity=80 time=0
EXTRACT: note_on channel=9 note=57 velocity=100 time=0
EXTRACT: control_change channel=11 control=11 value=110 time=0
EXTRACT: note_on channel=0 note=62 velocity=82 time=0.00704225
EXTRACT: note_on channel=0 note=50 velocity=82 time=0
EXTRACT: note_on channel=4 note=66 velocity=107 time=0
EXTRACT: note_on channel=8 note=38 velocity=100 time=0
EXTRACT: control_change channel=11 control=11 value=109 time=0
EXTRACT: pitchwheel channel=11 pitch=-7936 time=0
EXTRACT: note_on channel=0 note=69 velocity=82 time=0.00704225
EXTRACT: pitchwheel channel=11 pitch=-7680 time=0
EXTRACT: pitchwheel channel=11 pitch=-7552 time=0.00704225
EXTRACT: control_change channel=11 control=11 value=107 time=0
EXTRACT: pitchwheel channel=11 pitch=-7296 time=0.0140845
EXTRACT: control_change channel=11 control=11 value=105 time=0.00704225
EXTRACT: pitchwheel channel=11 pitch=-7168 time=0
EXTRACT: pitchwheel channel=11 pitch=-6912 time=0.00704225
EXTRACT: control_change channel=11 control=11 value=103 time=0.00704225
EXTRACT: pitchwheel channel=11 pitch=-6784 time=0
EXTRACT: pitchwheel channel=11 pitch=-6528 time=0.00704225
EXTRACT: control_change channel=11 control=11 value=101 time=0.00704225
EXTRACT: pitchwheel channel=11 pitch=-6400 time=0.00704225
EXTRACT: pitchwheel channel=11 pitch=-6144 time=0.00704225
EXTRACT: control_change channel=11 control=11 value=100 time=0.00704225
EXTRACT: pitchwheel channel=11 pitch=-6016 time=0
EXTRACT: control_change channel=11 control=11 value=98 time=0.00704225
EXTRACT: pitchwheel channel=11 pitch=-5760 time=0
EXTRACT: note_on channel=9 note=57 velocity=0 time=0.00704225
EXTRACT: note_on channel=9 note=46 velocity=0 time=0
EXTRACT: note_on channel=9 note=33 velocity=0 time=0
EXTRACT: pitchwheel channel=11 pitch=-5632 time=0
EXTRACT: control_change channel=11 control=11 value=96 time=0.00704225
EXTRACT: pitchwheel channel=11 pitch=-5376 time=0.00704225
EXTRACT: control_change channel=11 control=11 value=95 time=0.00704225
EXTRACT: pitchwheel channel=11 pitch=-5248 time=0
EXTRACT: control_change channel=11 control=11 value=93 time=0.00704225
EXTRACT: pitchwheel channel=11 pitch=-4992 time=0
EXTRACT: pitchwheel channel=11 pitch=-4864 time=0.00704225
EXTRACT: control_change channel=11 control=11 value=92 time=0
EXTRACT: control_change channel=11 control=11 value=91 time=0.00704225
EXTRACT: pitchwheel channel=11 pitch=-4608 time=0
EXTRACT: control_change channel=11 control=11 value=89 time=0.00704225
EXTRACT: pitchwheel channel=11 pitch=-4480 time=0.00704225
EXTRACT: control_change channel=11 control=11 value=86 time=0.00704225
EXTRACT: pitchwheel channel=11 pitch=-4224 time=0
EXTRACT: pitchwheel channel=11 pitch=-4096 time=0.00704225
EXTRACT: pitchwheel channel=11 pitch=-3968 time=0.00704225
EXTRACT: control_change channel=11 control=11 value=84 time=0
EXTRACT: pitchwheel channel=11 pitch=-3712 time=0.00704225
EXTRACT: control_change channel=11 control=11 value=82 time=0
EXTRACT: pitchwheel channel=11 pitch=-3584 time=0.0140845
EXTRACT: control_change channel=11 control=11 value=80 time=0.00704225
EXTRACT: pitchwheel channel=11 pitch=-3328 time=0
EXTRACT: pitchwheel channel=11 pitch=-3200 time=0.00704225
EXTRACT: pitchwheel channel=11 pitch=-2944 time=0.00704225
EXTRACT: control_change channel=11 control=11 value=78 time=0
EXTRACT: pitchwheel channel=11 pitch=-2816 time=0.00704225
EXTRACT: control_change channel=11 control=11 value=76 time=0.00704225
EXTRACT: pitchwheel channel=11 pitch=-2560 time=0.00704225
EXTRACT: pitchwheel channel=11 pitch=-2432 time=0.00704225
EXTRACT: pitchwheel channel=11 pitch=-2176 time=0.00704225
EXTRACT: control_change channel=11 control=11 value=74 time=0
EXTRACT: pitchwheel channel=11 pitch=-2048 time=0.00704225
EXTRACT: control_change channel=11 control=11 value=68 time=0
EXTRACT: control_change channel=11 control=11 value=67 time=0.00704225
EXTRACT: pitchwheel channel=11 pitch=-1792 time=0
EXTRACT: pitchwheel channel=11 pitch=-1664 time=0.0140845
EXTRACT: pitchwheel channel=11 pitch=-1408 time=0.00704225
EXTRACT: control_change channel=11 control=11 value=64 time=0
EXTRACT: pitchwheel channel=11 pitch=-1280 time=0.00704225
EXTRACT: control_change channel=11 control=11 value=61 time=0
EXTRACT: control_change channel=11 control=11 value=60 time=0.00704225
EXTRACT: pitchwheel channel=11 pitch=-1024 time=0
EXTRACT: control_change channel=11 control=11 value=59 time=0.00704225
EXTRACT: pitchwheel channel=11 pitch=-896 time=0
EXTRACT: control_change channel=11 control=11 value=57 time=0.00704225
EXTRACT: pitchwheel channel=11 pitch=-640 time=0.00704225
EXTRACT: control_change channel=11 control=11 value=56 time=0.00704225
EXTRACT: pitchwheel channel=11 pitch=-512 time=0
EXTRACT: pitchwheel channel=11 pitch=-256 time=0.00704225
EXTRACT: control_change channel=11 control=11 value=54 time=0
EXTRACT: pitchwheel channel=11 pitch=-128 time=0.00704225
EXTRACT: control_change channel=11 control=11 value=53 time=0.00704225
EXTRACT: control_change channel=11 control=1 value=1 time=0
EXTRACT: pitchwheel channel=11 pitch=0 time=0
EXTRACT: control_change channel=11 control=11 value=50 time=0.00704225
EXTRACT: control_change channel=11 control=1 value=2 time=0.00704225
EXTRACT: control_change channel=11 control=11 value=49 time=0.00704225
EXTRACT: control_change channel=11 control=1 value=4 time=0
EXTRACT: control_change channel=11 control=1 value=7 time=0.00704225
EXTRACT: control_change channel=11 control=1 value=13 time=0.00704225
EXTRACT: control_change channel=11 control=11 value=47 time=0
EXTRACT: control_change channel=11 control=1 value=19 time=0.00704225
EXTRACT: control_change channel=11 control=11 value=45 time=0
EXTRACT: control_change channel=11 control=11 value=44 time=0.00704225
EXTRACT: control_change channel=11 control=1 value=23 time=0.00704225
EXTRACT: note_on channel=0 note=69 velocity=0 time=0.00704225
EXTRACT: note_on channel=0 note=66 velocity=0 time=0
EXTRACT: note_on channel=0 note=62 velocity=0 time=0
EXTRACT: note_on channel=0 note=50 velocity=0 time=0
EXTRACT: note_on channel=0 note=69 velocity=82 time=0
EXTRACT: note_on channel=0 note=66 velocity=82 time=0
EXTRACT: note_on channel=0 note=62 velocity=82 time=0
EXTRACT: note_on channel=0 note=50 velocity=102 time=0
EXTRACT: control_change channel=3 control=72 value=107 time=0
EXTRACT: note_on channel=9 note=51 velocity=127 time=0
EXTRACT: note_on channel=9 note=46 velocity=80 time=0
EXTRACT: control_change channel=11 control=1 value=26 time=0
EXTRACT: control_change channel=11 control=11 value=43 time=0
EXTRACT: control_change channel=11 control=11 value=41 time=0.00704225
EXTRACT: control_change channel=11 control=1 value=27 time=0
EXTRACT: control_change channel=11 control=1 value=29 time=0.00704225
EXTRACT: control_change channel=11 control=11 value=39 time=0
EXTRACT: control_change channel=11 control=11 value=37 time=0.0140845
EXTRACT: control_change channel=11 control=1 value=33 time=0.00704225
EXTRACT: control_change channel=11 control=1 value=35 time=0.00704225
EXTRACT: control_change channel=11 control=11 value=36 time=0.00704225
EXTRACT: control_change channel=11 control=11 value=33 time=0.00704225
EXTRACT: control_change channel=11 control=1 value=37 time=0
EXTRACT: control_change channel=11 control=11 value=32 time=0.0140845
EXTRACT: control_change channel=11 control=1 value=43 time=0.00704225
EXTRACT: control_change channel=11 control=11 value=31 time=0.00704225
EXTRACT: control_change channel=11 control=1 value=49 time=0.00704225
EXTRACT: control_change channel=11 control=11 value=29 time=0
EXTRACT: control_change channel=11 control=11 value=28 time=0.00704225
EXTRACT: control_change channel=11 control=1 value=51 time=0
EXTRACT: note_on channel=9 note=46 velocity=0 time=0.00704225
EXTRACT: note_on channel=9 note=51 velocity=0 time=0
EXTRACT: control_change channel=11 control=1 value=57 time=0
EXTRACT: control_change channel=11 control=11 value=27 time=0
EXTRACT: control_change channel=11 control=11 value=24 time=0.00704225
EXTRACT: control_change channel=11 control=1 value=58 time=0.0140845
EXTRACT: control_change channel=11 control=1 value=60 time=0.00704225
EXTRACT: control_change channel=11 control=11 value=23 time=0
EXTRACT: control_change channel=11 control=1 value=61 time=0.00704225
EXTRACT: control_change channel=11 control=11 value=21 time=0.00704225
EXTRACT: control_change channel=11 control=11 value=19 time=0.00704225
EXTRACT: control_change channel=11 control=1 value=62 time=0.00704225
EXTRACT: control_change channel=11 control=11 value=17 time=0.00704225
EXTRACT: control_change channel=11 control=1 value=63 time=0.00704225
EXTRACT: control_change channel=11 control=11 value=16 time=0
EXTRACT: control_change channel=11 control=11 value=15 time=0.00704225
EXTRACT: control_change channel=11 control=1 value=64 time=0.00704225
EXTRACT: control_change channel=11 control=11 value=12 time=0
EXTRACT: control_change channel=11 control=11 value=11 time=0.00704225
EXTRACT: control_change channel=11 control=1 value=65 time=0.00704225
EXTRACT: note_on channel=0 note=50 velocity=0 time=0.00704225
EXTRACT: note_on channel=0 note=62 velocity=0 time=0
EXTRACT: note_on channel=0 note=62 velocity=82 time=0
EXTRACT: note_on channel=0 note=50 velocity=102 time=0
EXTRACT: note_on channel=11 note=54 velocity=0 time=0
EXTRACT: control_change channel=11 control=11 value=9 time=0
EXTRACT: control_change channel=11 control=1 value=66 time=0.00704225
EXTRACT: control_change channel=11 control=11 value=6 time=0
EXTRACT: control_change channel=11 control=11 value=5 time=0.00704225
EXTRACT: control_change channel=11 control=11 value=4 time=0.00704225
EXTRACT: control_change channel=11 control=1 value=68 time=0
EXTRACT: control_change channel=11 control=1 value=69 time=0.02112675
EXTRACT: control_change channel=11 control=1 value=70 time=0.0140845
EXTRACT: control_change channel=11 control=1 value=72 time=0.03521125
EXTRACT: control_change channel=11 control=1 value=73 time=0.0422535
EXTRACT: control_change channel=11 control=1 value=74 time=0.0140845
EXTRACT: note_on channel=0 note=50 velocity=0 time=0.06338025
EXTRACT: note_on channel=0 note=69 velocity=0 time=0
EXTRACT: note_on channel=0 note=66 velocity=0 time=0
EXTRACT: note_on channel=0 note=62 velocity=0 time=0
EXTRACT: note_on channel=0 note=66 velocity=82 time=0
EXTRACT: note_on channel=3 note=50 velocity=0 time=0
EXTRACT: note_on channel=3 note=50 velocity=113 time=0
EXTRACT: note_on channel=4 note=78 velocity=107 time=0
EXTRACT: note_on channel=9 note=31 velocity=127 time=0
EXTRACT: note_on channel=9 note=33 velocity=127 time=0
EXTRACT: note_on channel=9 note=46 velocity=80 time=0
EXTRACT: note_on channel=10 note=31 velocity=73 time=0
EXTRACT: control_change channel=11 control=1 value=75 time=0
EXTRACT: note_on channel=0 note=50 velocity=82 time=0.00704225
EXTRACT: note_on channel=0 note=62 velocity=82 time=0
EXTRACT: note_on channel=4 note=66 velocity=0 time=0
EXTRACT: note_on channel=8 note=38 velocity=0 time=0
EXTRACT: control_change channel=11 control=1 value=76 time=0
EXTRACT: note_on channel=0 note=69 velocity=82 time=0.00704225
EXTRACT: note_on channel=8 note=38 velocity=100 time=0.00704225
EXTRACT: control_change channel=11 control=1 value=77 time=0
EXTRACT: control_change channel=11 control=11 value=127 time=0.02112675
EXTRACT: control_change channel=11 control=1 value=78 time=0
EXTRACT: control_change channel=11 control=1 value=79 time=0.03521125
EXTRACT: control_change channel=11 control=1 value=80 time=0.0140845
EXTRACT: note_on channel=9 note=46 velocity=0 time=0.0140845
EXTRACT: note_on channel=9 note=33 velocity=0 time=0
EXTRACT: note_on channel=9 note=31 velocity=0 time=0
EXTRACT: note_on channel=10 note=31 velocity=0 time=0
EXTRACT: control_change channel=11 control=1 value=81 time=0.0422535
EXTRACT: control_change channel=11 control=1 value=82 time=0.028169
EXTRACT: control_change channel=11 control=1 value=83 time=0.056338
EXTRACT: control_change channel=11 control=1 value=84 time=0.02112675
EXTRACT: control_change channel=11 control=1 value=85 time=0.06338025
EXTRACT: control_change channel=11 control=1 value=86 time=0.03521125
EXTRACT: control_change channel=11 control=1 value=87 time=0.02112675
EXTRACT: note_on channel=9 note=46 velocity=80 time=0.04929575
EXTRACT: control_change channel=11 control=1 value=88 time=0
EXTRACT: note_on channel=11 note=66 velocity=124 time=0
EXTRACT: note_on channel=11 note=62 velocity=80 time=0
EXTRACT: pitchwheel channel=11 pitch=-8064 time=0.00704225
EXTRACT: control_change channel=11 control=1 value=89 time=0.00704225
EXTRACT: pitchwheel channel=11 pitch=-7808 time=0
EXTRACT: pitchwheel channel=11 pitch=-7680 time=0.00704225
EXTRACT: pitchwheel channel=11 pitch=-7424 time=0.00704225
EXTRACT: control_change channel=11 control=1 value=90 time=0.00704225
EXTRACT: pitchwheel channel=11 pitch=-7296 time=0.00704225
EXTRACT: pitchwheel channel=11 pitch=-7040 time=0.00704225
EXTRACT: pitchwheel channel=11 pitch=-6912 time=0.00704225
EXTRACT: pitchwheel channel=11 pitch=-6656 time=0.00704225
EXTRACT: pitchwheel channel=11 pitch=-6528 time=0.00704225
EXTRACT: pitchwheel channel=11 pitch=-6272 time=0.0140845
EXTRACT: pitchwheel channel=11 pitch=-6144 time=0.00704225
EXTRACT: control_change channel=11 control=1 value=91 time=0.00704225
EXTRACT: pitchwheel channel=11 pitch=-5888 time=0
EXTRACT: note_on channel=9 note=46 velocity=0 time=0.00704225
EXTRACT: pitchwheel channel=11 pitch=-5760 time=0
EXTRACT: pitchwheel channel=11 pitch=-5504 time=0.00704225
EXTRACT: pitchwheel channel=11 pitch=-5376 time=0.0140845
EXTRACT: pitchwheel channel=11 pitch=-5248 time=0.00704225
EXTRACT: pitchwheel channel=11 pitch=-4992 time=0.00704225
EXTRACT: control_change channel=11 control=1 value=92 time=0.00704225
EXTRACT: pitchwheel channel=11 pitch=-4864 time=0
EXTRACT: pitchwheel channel=11 pitch=-4608 time=0.00704225
EXTRACT: pitchwheel channel=11 pitch=-4480 time=0.0140845
EXTRACT: pitchwheel channel=11 pitch=-4224 time=0.00704225
EXTRACT: pitchwheel channel=11 pitch=-4096 time=0.00704225
EXTRACT: pitchwheel channel=11 pitch=-3840 time=0.00704225
EXTRACT: pitchwheel channel=11 pitch=-3712 time=0.00704225
EXTRACT: note_on channel=0 note=50 velocity=0 time=0.00704225
EXTRACT: note_on channel=0 note=50 velocity=82 time=0
EXTRACT: control_change channel=11 control=1 value=93 time=0
EXTRACT: note_on channel=0 note=66 velocity=0 time=0.00704225
EXTRACT: note_on channel=0 note=69 velocity=0 time=0
EXTRACT: note_on channel=0 note=62 velocity=0 time=0
EXTRACT: note_on channel=0 note=62 velocity=82 time=0
EXTRACT: note_on channel=0 note=62 velocity=82 time=0
EXTRACT: note_on channel=0 note=66 velocity=82 time=0
EXTRACT: note_on channel=0 note=69 velocity=82 time=0
EXTRACT: note_on channel=9 note=33 velocity=127 time=0
EXTRACT: pitchwheel channel=11 pitch=-3456 time=0
EXTRACT: pitchwheel channel=11 pitch=-3328 time=0.00704225
EXTRACT: pitchwheel channel=11 pitch=-3072 time=0.00704225
EXTRACT: pitchwheel channel=11 pitch=-2944 time=0.00704225
EXTRACT: pitchwheel channel=11 pitch=-2688 time=0.00704225
EXTRACT: pitchwheel channel=11 pitch=-2560 time=0.0140845
EXTRACT: pitchwheel channel=11 pitch=-2432 time=0.00704225
EXTRACT: pitchwheel channel=11 pitch=-2176 time=0.00704225
EXTRACT: control_change channel=11 control=1 value=94 time=0
EXTRACT: pitchwheel channel=11 pitch=-2048 time=0.00704225
EXTRACT: pitchwheel channel=11 pitch=-1792 time=0.00704225
EXTRACT: pitchwheel channel=11 pitch=-1664 time=0.0140845
EXTRACT: pitchwheel channel=11 pitch=-1408 time=0.00704225
EXTRACT: pitchwheel channel=11 pitch=-1280 time=0.00704225
EXTRACT: note_on channel=9 note=33 velocity=0 time=0.00704225
EXTRACT: control_change channel=11 control=1 value=95 time=0
EXTRACT: pitchwheel channel=11 pitch=-1024 time=0
EXTRACT: pitchwheel channel=11 pitch=-896 time=0.00704225
EXTRACT: pitchwheel channel=11 pitch=-640 time=0.0140845
EXTRACT: pitchwheel channel=11 pitch=-512 time=0.00704225
EXTRACT: control_change channel=11 control=1 value=96 time=0.00704225
EXTRACT: pitchwheel channel=11 pitch=-256 time=0
EXTRACT: pitchwheel channel=11 pitch=-128 time=0.00704225
EXTRACT: pitchwheel channel=11 pitch=0 time=0.00704225
EXTRACT: note_on channel=3 note=50 velocity=0 time=0.056338
EXTRACT: note_on channel=3 note=50 velocity=113 time=0
EXTRACT: note_on channel=4 note=78 velocity=0 time=0
EXTRACT: note_on channel=4 note=78 velocity=107 time=0
EXTRACT: note_on channel=8 note=38 velocity=0 time=0
EXTRACT: note_on channel=8 note=38 velocity=100 time=0
EXTRACT: note_on channel=9 note=46 velocity=80 time=0
EXTRACT: control_change channel=11 control=1 value=97 time=0
EXTRACT: control_change channel=11 control=1 value=98 time=0.06338025
EXTRACT: control_change channel=11 control=1 value=99 time=0.02112675
EXTRACT: control_change channel=11 control=1 value=100 time=0.0140845
EXTRACT: note_on channel=9 note=46 velocity=0 time=0.00704225
EXTRACT: control_change channel=11 control=1 value=101 time=0.0422535
EXTRACT: control_change channel=11 control=1 value=102 time=0.02112675
EXTRACT: note_on channel=9 note=33 velocity=127 time=0.0422535
EXTRACT: control_change channel=11 control=1 value=103 time=0.02112675
EXTRACT: control_change channel=11 control=1 value=104 time=0.02112675
EXTRACT: control_change channel=11 control=1 value=105 time=0.03521125
EXTRACT: note_on channel=9 note=33 velocity=0 time=0.028169
EXTRACT: control_change channel=11 control=1 value=106 time=0
EXTRACT: control_change channel=11 control=1 value=107 time=0.06338025
EXTRACT: control_change channel=11 control=1 value=108 time=0.02112675
EXTRACT: note_on channel=0 note=50 velocity=0 time=0.00704225
EXTRACT: note_on channel=0 note=66 velocity=0 time=0.00704225
EXTRACT: note_on channel=0 note=62 velocity=0 time=0
EXTRACT: note_on channel=0 note=62 velocity=0 time=0
EXTRACT: note_on channel=0 note=69 velocity=0 time=0
EXTRACT: note_on channel=0 note=50 velocity=82 time=0
EXTRACT: note_on channel=0 note=62 velocity=82 time=0.00704225
EXTRACT: note_on channel=0 note=66 velocity=82 time=0
EXTRACT: note_on channel=0 note=62 velocity=82 time=0
EXTRACT: note_on channel=0 note=69 velocity=82 time=0
EXTRACT: note_on channel=3 note=50 velocity=0 time=0
EXTRACT: note_on channel=3 note=52 velocity=113 time=0
EXTRACT: note_on channel=9 note=33 velocity=127 time=0
EXTRACT: note_on channel=9 note=46 velocity=80 time=0
EXTRACT: control_change channel=11 control=1 value=109 time=0.03521125
EXTRACT: pitchwheel channel=3 pitch=128 time=0.0140845
EXTRACT: pitchwheel channel=3 pitch=256 time=0.0140845
EXTRACT: pitchwheel channel=3 pitch=384 time=0.0140845
EXTRACT: control_change channel=11 control=1 value=110 time=0
EXTRACT: pitchwheel channel=3 pitch=640 time=0.028169
EXTRACT: note_on channel=9 note=46 velocity=0 time=0
EXTRACT: note_on channel=9 note=33 velocity=0 time=0
EXTRACT: pitchwheel channel=3 pitch=896 time=0.0140845
EXTRACT: pitchwheel channel=3 pitch=1152 time=0.0140845
EXTRACT: pitchwheel channel=3 pitch=1408 time=0.00704225
EXTRACT: control_change channel=11 control=1 value=111 time=0
EXTRACT: pitchwheel channel=3 pitch=2176 time=0.00704225
EXTRACT: pitchwheel channel=3 pitch=4736 time=0.00704225
EXTRACT: pitchwheel channel=3 pitch=6528 time=0.00704225
EXTRACT: pitchwheel channel=3 pitch=6912 time=0.0140845
EXTRACT: control_change channel=11 control=1 value=112 time=0
EXTRACT: pitchwheel channel=3 pitch=7424 time=0.00704225
EXTRACT: pitchwheel channel=3 pitch=7936 time=0.00704225
EXTRACT: pitchwheel channel=3 pitch=8191 time=0.00704225
EXTRACT: control_change channel=11 control=1 value=113 time=0.07746475
EXTRACT: note_on channel=8 note=38 velocity=0 time=0.1267605
EXTRACT: note_on channel=0 note=50 velocity=0 time=0.0140845
EXTRACT: note_on channel=0 note=50 velocity=82 time=0
EXTRACT: note_on channel=0 note=62 velocity=0 time=0.00704225
EXTRACT: note_on channel=0 note=69 velocity=0 time=0
EXTRACT: note_on channel=0 note=62 velocity=0 time=0
EXTRACT: note_on channel=0 note=66 velocity=0 time=0
EXTRACT: note_on channel=0 note=69 velocity=82 time=0
EXTRACT: note_on channel=0 note=62 velocity=82 time=0
EXTRACT: note_on channel=0 note=62 velocity=82 time=0
EXTRACT: note_on channel=0 note=66 velocity=82 time=0
EXTRACT: note_on channel=3 note=52 velocity=0 time=0
EXTRACT: note_on channel=3 note=55 velocity=113 time=0
EXTRACT: note_on channel=4 note=78 velocity=0 time=0
EXTRACT: note_on channel=4 note=78 velocity=107 time=0
EXTRACT: note_on channel=9 note=31 velocity=127 time=0
EXTRACT: note_on channel=9 note=33 velocity=127 time=0
EXTRACT: note_on channel=9 note=46 velocity=80 time=0
EXTRACT: note_on channel=10 note=31 velocity=73 time=0
EXTRACT: note_on channel=8 note=38 velocity=100 time=0.00704225
EXTRACT: note_on channel=9 note=46 velocity=0 time=0.0985915
EXTRACT: note_on channel=9 note=33 velocity=0 time=0
EXTRACT: note_on channel=9 note=31 velocity=0 time=0
EXTRACT: note_on channel=10 note=31 velocity=0 time=0
EXTRACT: control_change channel=11 control=1 value=114 time=0.0985915
EXTRACT: control_change channel=11 control=1 value=102 time=0.10563375
EXTRACT: control_change channel=11 control=1 value=94 time=0.00704225
EXTRACT: control_change channel=11 control=1 value=87 time=0.0140845
EXTRACT: control_change channel=11 control=1 value=84 time=0.00704225
EXTRACT: control_change channel=11 control=1 value=76 time=0.00704225
EXTRACT: control_change channel=11 control=1 value=68 time=0.00704225
EXTRACT: control_change channel=11 control=1 value=66 time=0.00704225
EXTRACT: control_change channel=11 control=1 value=60 time=0.0140845
EXTRACT: control_change channel=11 control=1 value=58 time=0.00704225
EXTRACT: control_change channel=11 control=1 value=49 time=0.00704225
EXTRACT: control_change channel=11 control=1 value=43 time=0.00704225
EXTRACT: control_change channel=11 control=1 value=36 time=0.00704225
EXTRACT: note_on channel=0 note=50 velocity=0 time=0.0140845
EXTRACT: note_on channel=0 note=50 velocity=82 time=0
EXTRACT: control_change channel=11 control=1 value=31 time=0
EXTRACT: note_on channel=0 note=62 velocity=0 time=0.00704225
EXTRACT: note_on channel=0 note=66 velocity=0 time=0
EXTRACT: note_on channel=0 note=69 velocity=0 time=0
EXTRACT: note_on channel=0 note=62 velocity=0 time=0
EXTRACT: note_on channel=0 note=69 velocity=82 time=0
EXTRACT: note_on channel=0 note=62 velocity=82 time=0
EXTRACT: note_on channel=0 note=66 velocity=82 time=0
EXTRACT: note_on channel=8 note=40 velocity=100 time=0
EXTRACT: note_on channel=9 note=51 velocity=127 time=0
EXTRACT: note_on channel=9 note=46 velocity=80 time=0
EXTRACT: note_on channel=11 note=62 velocity=0 time=0
EXTRACT: note_on channel=11 note=66 velocity=0 time=0
EXTRACT: note_on channel=11 note=61 velocity=80 time=0
EXTRACT: note_on channel=11 note=64 velocity=117 time=0
EXTRACT: control_change channel=11 control=1 value=13 time=0
EXTRACT: control_change channel=11 control=1 value=0 time=0.00704225
EXTRACT: pitchwheel channel=11 pitch=-8064 time=0
EXTRACT: pitchwheel channel=11 pitch=-7808 time=0.00704225
EXTRACT: note_on channel=8 note=38 velocity=0 time=0.00704225
EXTRACT: pitchwheel channel=11 pitch=-7552 time=0.00704225
EXTRACT: pitchwheel channel=11 pitch=-7296 time=0.00704225
EXTRACT: pitchwheel channel=11 pitch=-7040 time=0.00704225
EXTRACT: pitchwheel channel=11 pitch=-6912 time=0.00704225
EXTRACT: pitchwheel channel=11 pitch=-6656 time=0.00704225
EXTRACT: pitchwheel channel=11 pitch=-6400 time=0.0140845
EXTRACT: pitchwheel channel=11 pitch=-6144 time=0.00704225
EXTRACT: pitchwheel channel=11 pitch=-5888 time=0.00704225
EXTRACT: pitchwheel channel=11 pitch=-5760 time=0.00704225
EXTRACT: pitchwheel channel=11 pitch=-5504 time=0.00704225
EXTRACT: note_on channel=9 note=46 velocity=0 time=0.00704225
EXTRACT: note_on channel=9 note=51 velocity=0 time=0
EXTRACT: pitchwheel channel=11 pitch=-5248 time=0.00704225
EXTRACT: pitchwheel channel=11 pitch=-4992 time=0.00704225
EXTRACT: pitchwheel channel=11 pitch=-4736 time=0.00704225
EXTRACT: pitchwheel channel=11 pitch=-4608 time=0.00704225
EXTRACT: pitchwheel channel=11 pitch=-4352 time=0.00704225
EXTRACT: pitchwheel channel=11 pitch=-4096 time=0.0140845
EXTRACT: pitchwheel channel=11 pitch=-3840 time=0.00704225
EXTRACT: pitchwheel channel=11 pitch=-3584 time=0.00704225
EXTRACT: pitchwheel channel=11 pitch=-3456 time=0.00704225
EXTRACT: pitchwheel channel=11 pitch=-3200 time=0.00704225
EXTRACT: pitchwheel channel=11 pitch=-2944 time=0.0140845
EXTRACT: pitchwheel channel=11 pitch=-2688 time=0.00704225
EXTRACT: note_on channel=0 note=66 velocity=0 time=0.00704225
EXTRACT: note_on channel=0 note=62 velocity=0 time=0
EXTRACT: note_on channel=0 note=64 velocity=82 time=0
EXTRACT: note_on channel=0 note=61 velocity=82 time=0
EXTRACT: pitchwheel channel=11 pitch=-2432 time=0
EXTRACT: pitchwheel channel=11 pitch=-2304 time=0.00704225
EXTRACT: pitchwheel channel=11 pitch=-2048 time=0.00704225
EXTRACT: pitchwheel channel=11 pitch=-1792 time=0.0140845
EXTRACT: pitchwheel channel=11 pitch=-1536 time=0.00704225
EXTRACT: pitchwheel channel=11 pitch=-1280 time=0.00704225
EXTRACT: pitchwheel channel=11 pitch=-1152 time=0.00704225
EXTRACT: pitchwheel channel=11 pitch=-896 time=0.00704225
EXTRACT: note_on channel=1 note=57 velocity=0 time=0.00704225
EXTRACT: note_on channel=1 note=62 velocity=0 time=0.00704225
EXTRACT: note_on channel=1 note=78 velocity=0 time=0
EXTRACT: pitchwheel channel=11 pitch=-640 time=0
EXTRACT: pitchwheel channel=11 pitch=-384 time=0.00704225
EXTRACT: note_on channel=1 note=54 velocity=0 time=0.00704225
EXTRACT: pitchwheel channel=11 pitch=-128 time=0
EXTRACT: pitchwheel channel=11 pitch=0 time=0.00704225
EXTRACT: note_on channel=1 note=76 velocity=100 time=0.028169
EXTRACT: note_on channel=1 note=52 velocity=100 time=0.028169
EXTRACT: note_on channel=1 note=57 velocity=100 time=0.02112675
EXTRACT: note_on channel=1 note=69 velocity=100 time=0.00704225
EXTRACT: note_on channel=1 note=61 velocity=100 time=0
EXTRACT: note_on channel=0 note=50 velocity=0 time=0.028169
EXTRACT: note_on channel=0 note=69 velocity=0 time=0.00704225
EXTRACT: note_on channel=0 note=64 velocity=0 time=0
EXTRACT: note_on channel=0 note=61 velocity=0 time=0
EXTRACT: note_on channel=0 note=64 velocity=82 time=0
EXTRACT: note_on channel=2 note=50 velocity=0 time=0
EXTRACT: note_on channel=2 note=45 velocity=0 time=0
EXTRACT: note_on channel=2 note=38 velocity=0 time=0
EXTRACT: note_on channel=2 note=57 velocity=0 time=0
EXTRACT: note_on channel=2 note=52 velocity=66 time=0
EXTRACT: note_on channel=2 note=40 velocity=66 time=0
EXTRACT: note_on channel=2 note=45 velocity=66 time=0
EXTRACT: note_on channel=2 note=57 velocity=66 time=0
EXTRACT: note_on channel=3 note=55 velocity=0 time=0
EXTRACT: note_on channel=3 note=43 velocity=113 time=0
EXTRACT: note_on channel=4 note=78 velocity=0 time=0
EXTRACT: note_on channel=4 note=73 velocity=98 time=0
EXTRACT: note_on channel=8 note=45 velocity=100 time=0
EXTRACT: note_on channel=9 note=49 velocity=70 time=0
EXTRACT: note_on channel=9 note=33 velocity=127 time=0
EXTRACT: note_on channel=9 note=46 velocity=80 time=0
EXTRACT: note_on channel=9 note=33 velocity=127 time=0
EXTRACT: note_on channel=9 note=46 velocity=80 time=0
EXTRACT: note_on channel=11 note=64 velocity=0 time=0
EXTRACT: note_on channel=11 note=61 velocity=0 time=0
EXTRACT: note_on channel=11 note=64 velocity=113 time=0
EXTRACT: note_on channel=11 note=61 velocity=80 time=0
EXTRACT: note_on channel=0 note=61 velocity=82 time=0.00704225
EXTRACT: note_on channel=0 note=45 velocity=82 time=0
EXTRACT: note_on channel=4 note=76 velocity=98 time=0
EXTRACT: note_on channel=0 note=69 velocity=82 time=0.00704225
EXTRACT: note_on channel=8 note=40 velocity=0 time=0
EXTRACT: note_on channel=9 note=46 velocity=0 time=0.09154925
EXTRACT: note_on channel=9 note=46 velocity=0 time=0
EXTRACT: note_on channel=9 note=49 velocity=0 time=0
EXTRACT: note_on channel=9 note=33 velocity=0 time=0
EXTRACT: note_on channel=9 note=33 velocity=0 time=0
EXTRACT: note_on channel=9 note=51 velocity=127 time=0.31690125
EXTRACT: note_on channel=9 note=46 velocity=80 time=0
EXTRACT: note_on channel=9 note=46 velocity=0 time=0.10563375
EXTRACT: note_on channel=9 note=51 velocity=0 time=0
EXTRACT: note_on channel=0 note=69 velocity=0 time=0.10563375
EXTRACT: note_on channel=0 note=64 velocity=0 time=0
EXTRACT: note_on channel=0 note=61 velocity=0 time=0
EXTRACT: note_on channel=0 note=45 velocity=0 time=0
EXTRACT: note_on channel=0 note=45 velocity=103 time=0
EXTRACT: note_on channel=0 note=61 velocity=103 time=0
EXTRACT: note_on channel=0 note=64 velocity=103 time=0
EXTRACT: note_on channel=0 note=69 velocity=103 time=0
EXTRACT: note_on channel=8 note=45 velocity=0 time=0
EXTRACT: note_on channel=8 note=47 velocity=100 time=0
EXTRACT: note_on channel=0 note=69 velocity=0 time=0.2112675
EXTRACT: note_on channel=0 note=45 velocity=0 time=0
EXTRACT: note_on channel=0 note=61 velocity=0 time=0
EXTRACT: note_on channel=0 note=64 velocity=0 time=0
EXTRACT: note_on channel=0 note=64 velocity=82 time=0
EXTRACT: note_on channel=3 note=43 velocity=0 time=0
EXTRACT: note_on channel=3 note=43 velocity=113 time=0
EXTRACT: note_on channel=4 note=73 velocity=0 time=0
EXTRACT: note_on channel=4 note=76 velocity=97 time=0
EXTRACT: note_on channel=4 note=73 velocity=97 time=0
EXTRACT: note_on channel=8 note=47 velocity=0 time=0
EXTRACT: note_on channel=8 note=47 velocity=100 time=0
EXTRACT: note_on channel=9 note=46 velocity=80 time=0
EXTRACT: note_on channel=9 note=33 velocity=127 time=0
EXTRACT: note_on channel=9 note=31 velocity=127 time=0
EXTRACT: note_on channel=9 note=33 velocity=127 time=0
EXTRACT: note_on channel=10 note=31 velocity=73 time=0
EXTRACT: note_on channel=11 note=61 velocity=0 time=0
EXTRACT: note_on channel=11 note=64 velocity=0 time=0
EXTRACT: note_on channel=11 note=64 velocity=113 time=0
EXTRACT: note_on channel=11 note=61 velocity=80 time=0
EXTRACT: note_on channel=0 note=45 velocity=82 time=0.00704225
EXTRACT: note_on channel=0 note=61 velocity=82 time=0
EXTRACT: note_on channel=4 note=76 velocity=0 time=0
EXTRACT: note_on channel=0 note=69 velocity=82 time=0.00704225
EXTRACT: note_on channel=9 note=33 velocity=0 time=0.09154925
EXTRACT: note_on channel=9 note=46 velocity=0 time=0
EXTRACT: note_on channel=9 note=33 velocity=0 time=0
EXTRACT: note_on channel=9 note=31 velocity=0 time=0
EXTRACT: note_on channel=10 note=31 velocity=0 time=0
EXTRACT: note_on channel=8 note=47 velocity=0 time=0.31690125
EXTRACT: note_on channel=8 note=45 velocity=100 time=0
EXTRACT: note_on channel=9 note=46 velocity=80 time=0
EXTRACT: note_on channel=11 note=61 velocity=0 time=0
EXTRACT: note_on channel=11 note=64 velocity=0 time=0
EXTRACT: note_on channel=11 note=64 velocity=113 time=0
EXTRACT: note_on channel=11 note=61 velocity=80 time=0
EXTRACT: note_on channel=9 note=46 velocity=0 time=0.10563375
EXTRACT: note_on channel=9 note=33 velocity=127 time=0.10563375
EXTRACT: note_on channel=9 note=33 velocity=0 time=0.10563375
EXTRACT: note_on channel=1 note=52 velocity=0 time=0.0140845
EXTRACT: note_on channel=1 note=57 velocity=0 time=0.02112675
EXTRACT: note_on channel=1 note=61 velocity=0 time=0.00704225
EXTRACT: note_on channel=1 note=69 velocity=0 time=0
EXTRACT: note_on channel=1 note=52 velocity=100 time=0.00704225
EXTRACT: pitchwheel channel=3 pitch=8191 time=0.00704225
EXTRACT: pitchwheel channel=3 pitch=8064 time=0.00704225
EXTRACT: note_on channel=1 note=56 velocity=100 time=0.00704225
EXTRACT: pitchwheel channel=3 pitch=7552 time=0
EXTRACT: note_on channel=1 note=61 velocity=100 time=0.00704225
EXTRACT: note_on channel=1 note=68 velocity=100 time=0
EXTRACT: pitchwheel channel=3 pitch=7040 time=0
EXTRACT: pitchwheel channel=3 pitch=6528 time=0.00704225
EXTRACT: note_on channel=0 note=45 velocity=0 time=0.00704225
EXTRACT: note_on channel=0 note=69 velocity=0 time=0.00704225
EXTRACT: note_on channel=0 note=61 velocity=0 time=0
EXTRACT: pitchwheel channel=3 pitch=6144 time=0
EXTRACT: note_on channel=0 note=64 velocity=0 time=0.00704225
EXTRACT: note_on channel=0 note=61 velocity=82 time=0
EXTRACT: note_on channel=0 note=64 velocity=82 time=0
EXTRACT: note_on channel=0 note=49 velocity=82 time=0
EXTRACT: note_on channel=0 note=68 velocity=82 time=0
EXTRACT: note_on channel=2 note=57 velocity=0 time=0
EXTRACT: note_on channel=2 note=52 velocity=0 time=0
EXTRACT: note_on channel=2 note=40 velocity=0 time=0
EXTRACT: note_on channel=2 note=45 velocity=0 time=0
EXTRACT: note_on channel=2 note=37 velocity=66 time=0
EXTRACT: note_on channel=2 note=44 velocity=66 time=0
EXTRACT: note_on channel=2 note=52 velocity=66 time=0
EXTRACT: note_on channel=2 note=56 velocity=66 time=0
EXTRACT: note_on channel=3 note=43 velocity=0 time=0
EXTRACT: pitchwheel channel=3 pitch=5632 time=0
EXTRACT: note_on channel=3 note=43 velocity=113 time=0
EXTRACT: note_on channel=4 note=73 velocity=0 time=0
EXTRACT: note_on channel=4 note=76 velocity=0 time=0
EXTRACT: note_on channel=4 note=71 velocity=95 time=0
EXTRACT: note_on channel=4 note=76 velocity=95 time=0
EXTRACT: note_on channel=8 note=45 velocity=0 time=0
EXTRACT: note_on channel=8 note=44 velocity=100 time=0
EXTRACT: note_on channel=9 note=46 velocity=80 time=0
EXTRACT: note_on channel=11 note=61 velocity=0 time=0
EXTRACT: note_on channel=11 note=64 velocity=0 time=0
EXTRACT: note_on channel=11 note=64 velocity=113 time=0
EXTRACT: note_on channel=11 note=61 velocity=80 time=0
EXTRACT: pitchwheel channel=3 pitch=5120 time=0.00704225
EXTRACT: pitchwheel channel=3 pitch=4608 time=0.00704225
EXTRACT: pitchwheel channel=3 pitch=4224 time=0.00704225
EXTRACT: note_on channel=9 note=46 velocity=0 time=0.084507
EXTRACT: note_on channel=9 note=33 velocity=127 time=0.10563375
EXTRACT: note_on channel=9 note=33 velocity=0 time=0.10563375
EXTRACT: note_on channel=9 note=33 velocity=127 time=0.10563375
EXTRACT: note_on channel=9 note=46 velocity=80 time=0
EXTRACT: note_on channel=9 note=33 velocity=127 time=0
EXTRACT: note_on channel=9 note=33 velocity=0 time=0.10563375
EXTRACT: note_on channel=9 note=46 velocity=0 time=0
EXTRACT: note_on channel=9 note=33 velocity=0 time=0
EXTRACT: note_on channel=0 note=68 velocity=0 time=0.31690125
EXTRACT: note_on channel=0 note=61 velocity=0 time=0
EXTRACT: note_on channel=0 note=64 velocity=0 time=0
EXTRACT: note_on channel=0 note=49 velocity=0 time=0
EXTRACT: note_on channel=0 note=49 velocity=82 time=0
EXTRACT: note_on channel=0 note=61 velocity=82 time=0
EXTRACT: note_on channel=0 note=64 velocity=82 time=0
EXTRACT: note_on channel=0 note=68 velocity=82 time=0
EXTRACT: note_on channel=3 note=43 velocity=0 time=0
EXTRACT: note_on channel=3 note=39 velocity=113 time=0
EXTRACT: note_on channel=4 note=76 velocity=0 time=0
EXTRACT: note_on channel=4 note=71 velocity=0 time=0
EXTRACT: note_on channel=4 note=76 velocity=90 time=0
EXTRACT: note_on channel=4 note=71 velocity=90 time=0
EXTRACT: note_on channel=8 note=44 velocity=0 time=0
EXTRACT: note_on channel=8 note=40 velocity=100 time=0
EXTRACT: note_on channel=9 note=31 velocity=127 time=0
EXTRACT: note_on channel=9 note=33 velocity=127 time=0
EXTRACT: note_on channel=9 note=46 velocity=80 time=0
EXTRACT: note_on channel=10 note=31 velocity=73 time=0
EXTRACT: note_on channel=11 note=61 velocity=0 time=0
EXTRACT: note_on channel=11 note=64 velocity=0 time=0
EXTRACT: note_on channel=11 note=54 velocity=124 time=0
EXTRACT: pitchwheel channel=11 pitch=128 time=0.00704225
EXTRACT: pitchwheel channel=11 pitch=256 time=0.028169
EXTRACT: pitchwheel channel=11 pitch=384 time=0.0140845
EXTRACT: pitchwheel channel=11 pitch=512 time=0.00704225
EXTRACT: pitchwheel channel=11 pitch=640 time=0.0140845
EXTRACT: pitchwheel channel=11 pitch=768 time=0.0140845
EXTRACT: pitchwheel channel=11 pitch=1024 time=0.00704225
EXTRACT: note_on channel=9 note=46 velocity=0 time=0.0140845
EXTRACT: note_on channel=9 note=33 velocity=0 time=0
EXTRACT: note_on channel=9 note=31 velocity=0 time=0
EXTRACT: note_on channel=10 note=31 velocity=0 time=0
EXTRACT: pitchwheel channel=11 pitch=1280 time=0.00704225
EXTRACT: pitchwheel channel=11 pitch=1408 time=0.00704225
EXTRACT: pitchwheel channel=11 pitch=1536 time=0.00704225
EXTRACT: pitchwheel channel=11 pitch=1792 time=0.00704225
EXTRACT: pitchwheel channel=11 pitch=1920 time=0.00704225
EXTRACT: pitchwheel channel=11 pitch=2048 time=0.0140845
EXTRACT: pitchwheel channel=11 pitch=2304 time=0.00704225
EXTRACT: pitchwheel channel=11 pitch=2432 time=0.00704225
EXTRACT: pitchwheel channel=11 pitch=2944 time=0.0140845
EXTRACT: pitchwheel channel=11 pitch=3072 time=0.0140845
EXTRACT: pitchwheel channel=11 pitch=3328 time=0.0140845
EXTRACT: pitchwheel channel=11 pitch=3584 time=0.00704225
EXTRACT: pitchwheel channel=11 pitch=3840 time=0.02112675
EXTRACT: pitchwheel channel=11 pitch=4608 time=0.0140845
EXTRACT: pitchwheel channel=11 pitch=4736 time=0.00704225
EXTRACT: pitchwheel channel=11 pitch=4992 time=0.00704225
EXTRACT: pitchwheel channel=11 pitch=5248 time=0.0140845
EXTRACT: pitchwheel channel=11 pitch=5376 time=0.00704225
EXTRACT: pitchwheel channel=11 pitch=5888 time=0.00704225
EXTRACT: pitchwheel channel=11 pitch=6144 time=0.00704225
EXTRACT: pitchwheel channel=11 pitch=6528 time=0.00704225
EXTRACT: pitchwheel channel=11 pitch=6912 time=0.0140845
EXTRACT: pitchwheel channel=11 pitch=7296 time=0.00704225
EXTRACT: pitchwheel channel=11 pitch=7552 time=0.00704225
EXTRACT: pitchwheel channel=11 pitch=7808 time=0.00704225
EXTRACT: pitchwheel channel=11 pitch=7936 time=0.00704225
EXTRACT: pitchwheel channel=11 pitch=8064 time=0.0140845
EXTRACT: note_on channel=9 note=46 velocity=80 time=0.056338
EXTRACT: note_on channel=9 note=51 velocity=127 time=0
EXTRACT: note_on channel=9 note=46 velocity=80 time=0
EXTRACT: pitchwheel channel=11 pitch=7936 time=0.00704225
EXTRACT: pitchwheel channel=11 pitch=7808 time=0.02112675
EXTRACT: pitchwheel channel=11 pitch=7680 time=0.00704225
EXTRACT: pitchwheel channel=11 pitch=7552 time=0.00704225
EXTRACT: pitchwheel channel=11 pitch=7424 time=0.00704225
EXTRACT: control_change channel=3 control=72 value=64 time=0.00704225
EXTRACT: pitchwheel channel=11 pitch=7168 time=0
EXTRACT: pitchwheel channel=11 pitch=6912 time=0.0140845
EXTRACT: pitchwheel channel=11 pitch=6656 time=0.00704225
EXTRACT: pitchwheel channel=11 pitch=6400 time=0.00704225
EXTRACT: pitchwheel channel=11 pitch=6144 time=0.00704225
EXTRACT: pitchwheel channel=11 pitch=5376 time=0.00704225
EXTRACT: note_on channel=9 note=46 velocity=0 time=0.00704225
EXTRACT: note_on channel=9 note=51 velocity=0 time=0
EXTRACT: note_on channel=9 note=46 velocity=0 time=0
EXTRACT: control_change channel=11 control=11 value=125 time=0
EXTRACT: control_change channel=11 control=11 value=124 time=0.00704225
EXTRACT: pitchwheel channel=11 pitch=5120 time=0
EXTRACT: pitchwheel channel=11 pitch=4864 time=0.00704225
EXTRACT: pitchwheel channel=11 pitch=4096 time=0.00704225
EXTRACT: pitchwheel channel=11 pitch=3840 time=0.00704225
EXTRACT: pitchwheel channel=11 pitch=3456 time=0.00704225
EXTRACT: control_change channel=11 control=11 value=123 time=0.00704225
EXTRACT: pitchwheel channel=11 pitch=3200 time=0.00704225
EXTRACT: pitchwheel channel=11 pitch=2944 time=0.0140845
EXTRACT: pitchwheel channel=11 pitch=2176 time=0.00704225
EXTRACT: control_change channel=11 control=11 value=122 time=0
EXTRACT: pitchwheel channel=11 pitch=1920 time=0.02112675
EXTRACT: pitchwheel channel=11 pitch=1664 time=0.0140845
EXTRACT: pitchwheel channel=11 pitch=1536 time=0.00704225
EXTRACT: pitchwheel channel=11 pitch=1280 time=0.00704225
EXTRACT: control_change channel=11 control=11 value=121 time=0.00704225
EXTRACT: pitchwheel channel=11 pitch=1024 time=0.00704225
EXTRACT: note_on channel=1 note=76 velocity=0 time=0.0140845
EXTRACT: pitchwheel channel=11 pitch=896 time=0
EXTRACT: control_change channel=11 control=11 value=120 time=0
EXTRACT: pitchwheel channel=11 pitch=768 time=0.00704225
EXTRACT: pitchwheel channel=11 pitch=640 time=0.00704225
EXTRACT: control_change channel=11 control=11 value=119 time=0.00704225
EXTRACT: control_change channel=11 control=11 value=118 time=0.00704225
EXTRACT: pitchwheel channel=11 pitch=512 time=0.0140845
EXTRACT: pitchwheel channel=11 pitch=384 time=0.00704225
EXTRACT: control_change channel=11 control=11 value=117 time=0
EXTRACT: control_change channel=11 control=11 value=115 time=0.0140845
EXTRACT: pitchwheel channel=11 pitch=256 time=0.00704225
EXTRACT: pitchwheel channel=11 pitch=128 time=0.00704225
EXTRACT: note_on channel=1 note=52 velocity=0 time=0.00704225
EXTRACT: control_change channel=11 control=11 value=114 time=0
EXTRACT: note_on channel=1 note=78 velocity=100 time=0.00704225
EXTRACT: pitchwheel channel=11 pitch=0 time=0
EXTRACT: note_on channel=1 note=50 velocity=100 time=0.00704225
EXTRACT: note_on channel=1 note=56 velocity=0 time=0.00704225
EXTRACT: note_on channel=1 note=54 velocity=100 time=0
EXTRACT: note_on channel=1 note=68 velocity=0 time=0.00704225
EXTRACT: note_on channel=1 note=61 velocity=0 time=0
EXTRACT: note_on channel=1 note=57 velocity=100 time=0
EXTRACT: note_on channel=1 note=62 velocity=100 time=0.00704225
EXTRACT: control_change channel=11 control=11 value=113 time=0.0140845
EXTRACT: control_change channel=11 control=11 value=112 time=0.00704225
EXTRACT: control_change channel=11 control=11 value=111 time=0.0140845
EXTRACT: note_on channel=0 note=68 velocity=0 time=0.0140845
EXTRACT: note_on channel=0 note=49 velocity=0 time=0
EXTRACT: note_on channel=0 note=61 velocity=0 time=0
EXTRACT: note_on channel=0 note=64 velocity=0 time=0
EXTRACT: note_on channel=0 note=57 velocity=82 time=0
EXTRACT: note_on channel=0 note=62 velocity=82 time=0
EXTRACT: note_on channel=0 note=66 velocity=82 time=0
EXTRACT: note_on channel=0 note=50 velocity=82 time=0
EXTRACT: note_on channel=2 note=56 velocity=0 time=0
EXTRACT: note_on channel=2 note=37 velocity=0 time=0
EXTRACT: note_on channel=2 note=44 velocity=0 time=0
EXTRACT: note_on channel=2 note=52 velocity=0 time=0
EXTRACT: note_on channel=2 note=57 velocity=66 time=0
EXTRACT: note_on channel=2 note=50 velocity=66 time=0
EXTRACT: note_on channel=2 note=45 velocity=66 time=0
EXTRACT: note_on channel=2 note=38 velocity=66 time=0
EXTRACT: note_on channel=3 note=39 velocity=0 time=0
EXTRACT: pitchwheel channel=3 pitch=0 time=0
EXTRACT: note_on channel=3 note=50 velocity=113 time=0
EXTRACT: note_on channel=4 note=71 velocity=0 time=0
EXTRACT: note_on channel=4 note=76 velocity=0 time=0
EXTRACT: note_on channel=4 note=74 velocity=90 time=0
EXTRACT: note_on channel=4 note=66 velocity=90 time=0
EXTRACT: note_on channel=8 note=40 velocity=0 time=0
EXTRACT: note_on channel=8 note=38 velocity=100 time=0
EXTRACT: note_on channel=9 note=33 velocity=127 time=0
EXTRACT: note_on channel=9 note=46 velocity=80 time=0
EXTRACT: note_on channel=9 note=57 velocity=100 time=0
EXTRACT: control_change channel=11 control=11 value=110 time=0
EXTRACT: control_change channel=11 control=11 value=109 time=0.00704225
EXTRACT: control_change channel=11 control=11 value=107 time=0.0140845
EXTRACT: control_change channel=11 control=11 value=105 time=0.02112675
EXTRACT: control_change channel=11 control=11 value=103 time=0.0140845
EXTRACT: control_change channel=11 control=11 value=101 time=0.0140845
EXTRACT: control_change channel=11 control=11 value=100 time=0.02112675
EXTRACT: control_change channel=11 control=11 value=98 time=0.00704225
EXTRACT: note_on channel=9 note=57 velocity=0 time=0.00704225
EXTRACT: note_on channel=9 note=46 velocity=0 time=0
EXTRACT: note_on channel=9 note=33 velocity=0 time=0
EXTRACT: control_change channel=11 control=11 value=96 time=0.00704225
EXTRACT: control_change channel=11 control=11 value=95 time=0.0140845
EXTRACT: control_change channel=11 control=11 value=93 time=0.00704225
EXTRACT: control_change channel=11 control=11 value=92 time=0.00704225
EXTRACT: control_change channel=11 control=11 value=91 time=0.00704225
EXTRACT: control_change channel=11 control=11 value=89 time=0.00704225
EXTRACT: control_change channel=11 control=11 value=86 time=0.0140845
EXTRACT: control_change channel=11 control=11 value=84 time=0.0140845
EXTRACT: control_change channel=11 control=11 value=82 time=0.00704225
EXTRACT: control_change channel=11 control=11 value=80 time=0.02112675
EXTRACT: control_change channel=11 control=11 value=78 time=0.0140845
EXTRACT: control_change channel=11 control=11 value=76 time=0.0140845
EXTRACT: control_change channel=11 control=11 value=74 time=0.02112675
EXTRACT: control_change channel=11 control=11 value=68 time=0.00704225
EXTRACT: control_change channel=11 control=11 value=67 time=0.00704225
EXTRACT: control_change channel=11 control=11 value=64 time=0.02112675
EXTRACT: control_change channel=11 control=11 value=61 time=0.00704225
EXTRACT: control_change channel=11 control=11 value=60 time=0.00704225
EXTRACT: control_change channel=11 control=11 value=59 time=0.00704225
EXTRACT: control_change channel=11 control=11 value=57 time=0.00704225
EXTRACT: control_change channel=11 control=11 value=56 time=0.0140845
EXTRACT: control_change channel=11 control=11 value=54 time=0.00704225
EXTRACT: control_change channel=11 control=11 value=53 time=0.0140845
EXTRACT: control_change channel=11 control=11 value=50 time=0.00704225
EXTRACT: control_change channel=11 control=11 value=49 time=0.0140845
EXTRACT: control_change channel=11 control=11 value=47 time=0.0140845
EXTRACT: control_change channel=11 control=11 value=45 time=0.00704225
EXTRACT: control_change channel=11 control=11 value=44 time=0.00704225
EXTRACT: control_change channel=3 control=72 value=107 time=0.0140845
EXTRACT: note_on channel=9 note=51 velocity=127 time=0
EXTRACT: note_on channel=9 note=46 velocity=80 time=0
EXTRACT: control_change channel=11 control=11 value=43 time=0
EXTRACT: control_change channel=11 control=11 value=41 time=0.00704225
EXTRACT: control_change channel=11 control=11 value=39 time=0.00704225
EXTRACT: control_change channel=11 control=11 value=37 time=0.0140845
EXTRACT: control_change channel=11 control=11 value=36 time=0.02112675
EXTRACT: control_change channel=11 control=11 value=33 time=0.00704225
EXTRACT: control_change channel=11 control=11 value=32 time=0.0140845
EXTRACT: control_change channel=11 control=11 value=31 time=0.0140845
EXTRACT: control_change channel=11 control=11 value=29 time=0.00704225
EXTRACT: control_change channel=11 control=11 value=28 time=0.00704225
EXTRACT: note_on channel=9 note=46 velocity=0 time=0.00704225
EXTRACT: note_on channel=9 note=51 velocity=0 time=0
EXTRACT: control_change channel=11 control=11 value=27 time=0
EXTRACT: control_change channel=11 control=11 value=24 time=0.00704225
EXTRACT: control_change channel=11 control=11 value=23 time=0.02112675
EXTRACT: control_change channel=11 control=11 value=21 time=0.0140845
EXTRACT: control_change channel=11 control=11 value=19 time=0.00704225
EXTRACT: control_change channel=11 control=11 value=17 time=0.0140845
EXTRACT: control_change channel=11 control=11 value=16 time=0.00704225
EXTRACT: control_change channel=11 control=11 value=15 time=0.00704225
EXTRACT: control_change channel=11 control=11 value=12 time=0.00704225
EXTRACT: control_change channel=11 control=11 value=11 time=0.00704225
EXTRACT: note_on channel=11 note=54 velocity=0 time=0.0140845
EXTRACT: control_change channel=11 control=11 value=9 time=0
EXTRACT: control_change channel=11 control=11 value=6 time=0.00704225
EXTRACT: control_change channel=11 control=11 value=5 time=0.00704225
EXTRACT: control_change channel=11 control=11 value=4 time=0.00704225
EXTRACT: note_on channel=0 note=50 velocity=0 time=0.19014075
EXTRACT: note_on channel=0 note=57 velocity=0 time=0
EXTRACT: note_on channel=0 note=62 velocity=0 time=0
EXTRACT: note_on channel=0 note=66 velocity=0 time=0
EXTRACT: note_on channel=0 note=62 velocity=82 time=0
EXTRACT: note_on channel=3 note=50 velocity=0 time=0
EXTRACT: note_on channel=3 note=50 velocity=113 time=0
EXTRACT: note_on channel=4 note=66 velocity=0 time=0
EXTRACT: note_on channel=4 note=74 velocity=0 time=0
EXTRACT: note_on channel=4 note=66 velocity=89 time=0
EXTRACT: note_on channel=4 note=74 velocity=89 time=0
EXTRACT: note_on channel=4 note=69 velocity=89 time=0
EXTRACT: note_on channel=8 note=38 velocity=0 time=0
EXTRACT: note_on channel=8 note=38 velocity=100 time=0
EXTRACT: note_on channel=9 note=31 velocity=127 time=0
EXTRACT: note_on channel=9 note=33 velocity=127 time=0
EXTRACT: note_on channel=9 note=46 velocity=80 time=0
EXTRACT: note_on channel=10 note=31 velocity=73 time=0
EXTRACT: note_on channel=0 note=50 velocity=82 time=0.00704225
EXTRACT: note_on channel=0 note=57 velocity=82 time=0
EXTRACT: note_on channel=0 note=66 velocity=82 time=0
EXTRACT: control_change channel=11 control=11 value=127 time=0.03521125
EXTRACT: note_on channel=9 note=46 velocity=0 time=0.06338025
EXTRACT: note_on channel=9 note=33 velocity=0 time=0
EXTRACT: note_on channel=9 note=31 velocity=0 time=0
EXTRACT: note_on channel=10 note=31 velocity=0 time=0
EXTRACT: note_on channel=9 note=46 velocity=80 time=0.31690125
EXTRACT: note_on channel=9 note=46 velocity=0 time=0.10563375
EXTRACT: note_on channel=0 note=66 velocity=0 time=0.0985915
EXTRACT: note_on channel=0 note=50 velocity=0 time=0
EXTRACT: note_on channel=0 note=50 velocity=82 time=0
EXTRACT: note_on channel=0 note=66 velocity=82 time=0
EXTRACT: note_on channel=0 note=57 velocity=0 time=0.00704225
EXTRACT: note_on channel=0 note=62 velocity=0 time=0
EXTRACT: note_on channel=0 note=57 velocity=82 time=0
EXTRACT: note_on channel=0 note=57 velocity=82 time=0
EXTRACT: note_on channel=0 note=62 velocity=82 time=0
EXTRACT: note_on channel=9 note=33 velocity=127 time=0
EXTRACT: note_on channel=9 note=33 velocity=0 time=0.10563375
EXTRACT: note_on channel=3 note=50 velocity=0 time=0.10563375
EXTRACT: note_on channel=3 note=50 velocity=113 time=0
EXTRACT: note_on channel=4 note=69 velocity=0 time=0
EXTRACT: note_on channel=4 note=74 velocity=0 time=0
EXTRACT: note_on channel=4 note=66 velocity=0 time=0
EXTRACT: note_on channel=4 note=74 velocity=90 time=0
EXTRACT: note_on channel=4 note=66 velocity=90 time=0
EXTRACT: note_on channel=4 note=69 velocity=90 time=0
EXTRACT: note_on channel=8 note=38 velocity=0 time=0
EXTRACT: note_on channel=8 note=38 velocity=100 time=0
EXTRACT: note_on channel=9 note=46 velocity=80 time=0
EXTRACT: note_on channel=9 note=46 velocity=0 time=0.10563375
EXTRACT: note_on channel=9 note=33 velocity=127 time=0.10563375
EXTRACT: note_on channel=9 note=33 velocity=0 time=0.10563375
EXTRACT: note_on channel=0 note=50 velocity=0 time=0.09154925
EXTRACT: note_on channel=0 note=66 velocity=0 time=0
EXTRACT: note_on channel=0 note=57 velocity=0 time=0.00704225
EXTRACT: note_on channel=0 note=57 velocity=0 time=0
EXTRACT: note_on channel=0 note=62 velocity=0 time=0
EXTRACT: note_on channel=0 note=50 velocity=82 time=0
EXTRACT: note_on channel=0 note=66 velocity=82 time=0
EXTRACT: note_on channel=0 note=57 velocity=82 time=0.00704225
EXTRACT: note_on channel=0 note=57 velocity=82 time=0
EXTRACT: note_on channel=0 note=62 velocity=82 time=0
EXTRACT: note_on channel=3 note=50 velocity=0 time=0
EXTRACT: note_on channel=3 note=52 velocity=113 time=0
EXTRACT: note_on channel=9 note=33 velocity=127 time=0
EXTRACT: note_on channel=9 note=46 velocity=80 time=0
EXTRACT: pitchwheel channel=3 pitch=128 time=0.04929575
EXTRACT: pitchwheel channel=3 pitch=256 time=0.0140845
EXTRACT: pitchwheel channel=3 pitch=384 time=0.0140845
EXTRACT: pitchwheel channel=3 pitch=640 time=0.028169
EXTRACT: note_on channel=9 note=46 velocity=0 time=0
EXTRACT: note_on channel=9 note=33 velocity=0 time=0
EXTRACT: pitchwheel channel=3 pitch=896 time=0.0140845
EXTRACT: pitchwheel channel=3 pitch=1152 time=0.0140845
EXTRACT: pitchwheel channel=3 pitch=1408 time=0.00704225
EXTRACT: pitchwheel channel=3 pitch=2176 time=0.00704225
EXTRACT: pitchwheel channel=3 pitch=4736 time=0.00704225
EXTRACT: pitchwheel channel=3 pitch=6528 time=0.00704225
EXTRACT: pitchwheel channel=3 pitch=6912 time=0.0140845
EXTRACT: pitchwheel channel=3 pitch=7424 time=0.00704225
EXTRACT: pitchwheel channel=3 pitch=7936 time=0.00704225
EXTRACT: pitchwheel channel=3 pitch=8191 time=0.00704225
EXTRACT: note_on channel=0 note=66 velocity=0 time=0.21830975
EXTRACT: note_on channel=0 note=50 velocity=0 time=0
EXTRACT: note_on channel=0 note=50 velocity=82 time=0
EXTRACT: note_on channel=0 note=66 velocity=82 time=0
EXTRACT: note_on channel=0 note=57 velocity=0 time=0.00704225
EXTRACT: note_on channel=0 note=62 velocity=0 time=0
EXTRACT: note_on channel=0 note=57 velocity=0 time=0
EXTRACT: note_on channel=0 note=57 velocity=82 time=0
EXTRACT: note_on channel=0 note=62 velocity=82 time=0
EXTRACT: note_on channel=0 note=57 velocity=82 time=0
EXTRACT: note_on channel=3 note=52 velocity=0 time=0
EXTRACT: note_on channel=3 note=55 velocity=113 time=0
EXTRACT: note_on channel=4 note=69 velocity=0 time=0
EXTRACT: note_on channel=4 note=66 velocity=0 time=0
EXTRACT: note_on channel=4 note=74 velocity=0 time=0
EXTRACT: note_on channel=4 note=66 velocity=90 time=0
EXTRACT: note_on channel=4 note=69 velocity=90 time=0
EXTRACT: note_on channel=4 note=74 velocity=90 time=0
EXTRACT: note_on channel=8 note=38 velocity=0 time=0
EXTRACT: note_on channel=8 note=38 velocity=100 time=0
EXTRACT: note_on channel=9 note=31 velocity=127 time=0
EXTRACT: note_on channel=9 note=33 velocity=127 time=0
EXTRACT: note_on channel=9 note=46 velocity=80 time=0
EXTRACT: note_on channel=10 note=31 velocity=73 time=0
EXTRACT: note_on channel=9 note=46 velocity=0 time=0.10563375
EXTRACT: note_on channel=9 note=33 velocity=0 time=0
EXTRACT: note_on channel=9 note=31 velocity=0 time=0
EXTRACT: note_on channel=10 note=31 velocity=0 time=0
EXTRACT: note_on channel=11 note=52 velocity=120 time=0.10563375
EXTRACT: note_on channel=0 note=50 velocity=0 time=0.20422525
EXTRACT: note_on channel=0 note=66 velocity=0 time=0
EXTRACT: note_on channel=0 note=66 velocity=82 time=0
EXTRACT: note_on channel=0 note=50 velocity=82 time=0
EXTRACT: note_on channel=0 note=62 velocity=0 time=0.00704225
EXTRACT: note_on channel=0 note=57 velocity=0 time=0
EXTRACT: note_on channel=0 note=57 velocity=0 time=0
EXTRACT: note_on channel=0 note=62 velocity=82 time=0
EXTRACT: note_on channel=0 note=57 velocity=82 time=0
EXTRACT: note_on channel=8 note=38 velocity=0 time=0
EXTRACT: note_on channel=8 note=40 velocity=100 time=0
EXTRACT: note_on channel=9 note=51 velocity=127 time=0
EXTRACT: note_on channel=9 note=46 velocity=80 time=0
EXTRACT: note_on channel=11 note=52 velocity=0 time=0.02112675
EXTRACT: pitchwheel channel=11 pitch=7936 time=0.04929575
EXTRACT: note_on channel=11 note=52 velocity=124 time=0
EXTRACT: pitchwheel channel=11 pitch=7808 time=0.0140845
EXTRACT: pitchwheel channel=11 pitch=7552 time=0.0140845
EXTRACT: note_on channel=9 note=46 velocity=0 time=0.00704225
EXTRACT: note_on channel=9 note=51 velocity=0 time=0
EXTRACT: pitchwheel channel=11 pitch=7168 time=0
EXTRACT: pitchwheel channel=11 pitch=6912 time=0.00704225
EXTRACT: pitchwheel channel=11 pitch=6784 time=0.0140845
EXTRACT: pitchwheel channel=11 pitch=6400 time=0.00704225
EXTRACT: pitchwheel channel=11 pitch=6016 time=0.00704225
EXTRACT: pitchwheel channel=11 pitch=5760 time=0.00704225
EXTRACT: pitchwheel channel=11 pitch=4736 time=0.02112675
EXTRACT: pitchwheel channel=11 pitch=3456 time=0.0140845
EXTRACT: pitchwheel channel=11 pitch=2688 time=0.0140845
EXTRACT: note_on channel=0 note=57 velocity=0 time=0.0140845
EXTRACT: note_on channel=0 note=62 velocity=0 time=0
EXTRACT: note_on channel=0 note=66 velocity=0 time=0
EXTRACT: note_on channel=0 note=64 velocity=82 time=0
EXTRACT: note_on channel=0 note=57 velocity=82 time=0
EXTRACT: note_on channel=0 note=61 velocity=82 time=0
EXTRACT: pitchwheel channel=11 pitch=2048 time=0
EXTRACT: pitchwheel channel=11 pitch=1792 time=0.00704225
EXTRACT: pitchwheel channel=11 pitch=1408 time=0.0140845
EXTRACT: pitchwheel channel=11 pitch=1152 time=0.00704225
EXTRACT: pitchwheel channel=11 pitch=896 time=0.02112675
EXTRACT: note_on channel=1 note=78 velocity=0 time=0.00704225
EXTRACT: pitchwheel channel=11 pitch=640 time=0.00704225
EXTRACT: pitchwheel channel=11 pitch=384 time=0.00704225
EXTRACT: pitchwheel channel=11 pitch=256 time=0.02112675
EXTRACT: note_on channel=1 note=50 velocity=0 time=0.00704225
EXTRACT: pitchwheel channel=11 pitch=128 time=0
EXTRACT: note_on channel=1 note=54 velocity=0 time=0.00704225
EXTRACT: pitchwheel channel=11 pitch=384 time=0
EXTRACT: note_on channel=1 note=57 velocity=0 time=0.00704225
EXTRACT: pitchwheel channel=11 pitch=512 time=0
EXTRACT: note_on channel=1 note=62 velocity=0 time=0.00704225
EXTRACT: pitchwheel channel=11 pitch=640 time=0.00704225
EXTRACT: pitchwheel channel=11 pitch=768 time=0.0140845
EXTRACT: note_on channel=1 note=52 velocity=100 time=0.00704225
EXTRACT: pitchwheel channel=11 pitch=1024 time=0
EXTRACT: note_on channel=1 note=56 velocity=100 time=0.02112675
EXTRACT: pitchwheel channel=11 pitch=1280 time=0
EXTRACT: note_on channel=1 note=71 velocity=100 time=0.00704225
EXTRACT: note_on channel=1 note=59 velocity=100 time=0
EXTRACT: pitchwheel channel=11 pitch=1408 time=0
EXTRACT: pitchwheel channel=11 pitch=1536 time=0.00704225
EXTRACT: pitchwheel channel=11 pitch=1792 time=0.00704225
EXTRACT: pitchwheel channel=11 pitch=1920 time=0.00704225
EXTRACT: note_on channel=0 note=50 velocity=0 time=0.00704225
EXTRACT: note_on channel=0 note=64 velocity=82 time=0
EXTRACT: note_on channel=0 note=61 velocity=0 time=0.00704225
EXTRACT: note_on channel=0 note=57 velocity=0 time=0
EXTRACT: note_on channel=2 note=38 velocity=0 time=0
EXTRACT: note_on channel=2 note=57 velocity=0 time=0
EXTRACT: note_on channel=2 note=50 velocity=0 time=0
EXTRACT: note_on channel=2 note=45 velocity=0 time=0
EXTRACT: note_on channel=2 note=40 velocity=66 time=0
EXTRACT: note_on channel=2 note=44 velocity=66 time=0
EXTRACT: note_on channel=2 note=52 velocity=66 time=0
EXTRACT: note_on channel=2 note=56 velocity=66 time=0
EXTRACT: note_on channel=3 note=55 velocity=0 time=0
EXTRACT: note_on channel=3 note=57 velocity=94 time=0
EXTRACT: note_on channel=4 note=74 velocity=0 time=0
EXTRACT: note_on channel=4 note=69 velocity=0 time=0
EXTRACT: note_on channel=4 note=66 velocity=0 time=0
EXTRACT: note_on channel=4 note=59 velocity=90 time=0
EXTRACT: note_on channel=8 note=40 velocity=0 time=0
EXTRACT: note_on channel=8 note=40 velocity=100 time=0
EXTRACT: note_on channel=9 note=33 velocity=127 time=0
EXTRACT: note_on channel=9 note=46 velocity=80 time=0
EXTRACT: pitchwheel channel=11 pitch=2048 time=0
EXTRACT: note_on channel=0 note=64 velocity=0 time=0.00704225
EXTRACT: note_on channel=0 note=52 velocity=82 time=0
EXTRACT: pitchwheel channel=11 pitch=2304 time=0
EXTRACT: note_on channel=0 note=68 velocity=82 time=0.00704225
EXTRACT: note_on channel=0 note=56 velocity=82 time=0
EXTRACT: pitchwheel channel=11 pitch=2432 time=0
EXTRACT: note_on channel=3 note=38 velocity=113 time=0.00704225
EXTRACT: pitchwheel channel=11 pitch=2944 time=0.00704225
EXTRACT: pitchwheel channel=11 pitch=3072 time=0.0140845
EXTRACT: pitchwheel channel=11 pitch=3328 time=0.0140845
EXTRACT: pitchwheel channel=11 pitch=3584 time=0.00704225
EXTRACT: pitchwheel channel=11 pitch=3840 time=0.02112675
EXTRACT: pitchwheel channel=11 pitch=4608 time=0.0140845
EXTRACT: note_on channel=9 note=46 velocity=0 time=0.00704225
EXTRACT: note_on channel=9 note=33 velocity=0 time=0
EXTRACT: pitchwheel channel=11 pitch=4736 time=0
EXTRACT: pitchwheel channel=11 pitch=4992 time=0.00704225
EXTRACT: pitchwheel channel=11 pitch=5248 time=0.0140845
EXTRACT: pitchwheel channel=11 pitch=5376 time=0.00704225
EXTRACT: pitchwheel channel=11 pitch=5888 time=0.00704225
EXTRACT: pitchwheel channel=11 pitch=6144 time=0.00704225
EXTRACT: pitchwheel channel=11 pitch=6528 time=0.00704225
EXTRACT: pitchwheel channel=11 pitch=6912 time=0.0140845
EXTRACT: pitchwheel channel=11 pitch=7296 time=0.00704225
EXTRACT: pitchwheel channel=11 pitch=7552 time=0.00704225
EXTRACT: pitchwheel channel=11 pitch=7808 time=0.00704225
EXTRACT: pitchwheel channel=11 pitch=7936 time=0.00704225
EXTRACT: pitchwheel channel=11 pitch=8064 time=0.0140845
EXTRACT: pitchwheel channel=11 pitch=7936 time=0.06338025
EXTRACT: pitchwheel channel=11 pitch=7808 time=0.02112675
EXTRACT: pitchwheel channel=11 pitch=7680 time=0.00704225
EXTRACT: pitchwheel channel=11 pitch=7552 time=0.00704225
EXTRACT: pitchwheel channel=11 pitch=7424 time=0.00704225
EXTRACT: pitchwheel channel=11 pitch=7168 time=0.00704225
EXTRACT: pitchwheel channel=11 pitch=6912 time=0.0140845
EXTRACT: pitchwheel channel=11 pitch=6656 time=0.00704225
EXTRACT: pitchwheel channel=11 pitch=6400 time=0.00704225
EXTRACT: pitchwheel channel=11 pitch=6144 time=0.00704225
EXTRACT: pitchwheel channel=11 pitch=5376 time=0.00704225
EXTRACT: control_change channel=11 control=11 value=125 time=0.00704225
EXTRACT: control_change channel=11 control=11 value=124 time=0.00704225
EXTRACT: pitchwheel channel=11 pitch=5120 time=0
EXTRACT: pitchwheel channel=11 pitch=4864 time=0.00704225
EXTRACT: pitchwheel channel=11 pitch=4096 time=0.00704225
EXTRACT: pitchwheel channel=11 pitch=3840 time=0.00704225
EXTRACT: pitchwheel channel=11 pitch=3456 time=0.00704225
EXTRACT: control_change channel=11 control=11 value=123 time=0.00704225
EXTRACT: note_on channel=3 note=57 velocity=0 time=0.00704225
EXTRACT: note_on channel=3 note=62 velocity=94 time=0
EXTRACT: note_on channel=4 note=59 velocity=0 time=0
EXTRACT: note_on channel=4 note=64 velocity=91 time=0
EXTRACT: note_on channel=9 note=51 velocity=127 time=0
EXTRACT: note_on channel=9 note=46 velocity=80 time=0
EXTRACT: pitchwheel channel=11 pitch=3200 time=0
EXTRACT: pitchwheel channel=11 pitch=2944 time=0.0140845
EXTRACT: pitchwheel channel=11 pitch=2176 time=0.00704225
EXTRACT: control_change channel=11 control=11 value=122 time=0
EXTRACT: pitchwheel channel=11 pitch=1920 time=0.02112675
EXTRACT: pitchwheel channel=11 pitch=1664 time=0.0140845
EXTRACT: pitchwheel channel=11 pitch=1536 time=0.00704225
EXTRACT: pitchwheel channel=11 pitch=1280 time=0.00704225
EXTRACT: control_change channel=11 control=11 value=121 time=0.00704225
EXTRACT: pitchwheel channel=11 pitch=1024 time=0.00704225
EXTRACT: pitchwheel channel=11 pitch=896 time=0.0140845
EXTRACT: control_change channel=11 control=11 value=120 time=0
EXTRACT: note_on channel=9 note=46 velocity=0 time=0.00704225
EXTRACT: note_on channel=9 note=51 velocity=0 time=0
EXTRACT: pitchwheel channel=11 pitch=768 time=0
EXTRACT: pitchwheel channel=11 pitch=640 time=0.00704225
EXTRACT: control_change channel=11 control=11 value=119 time=0.00704225
EXTRACT: control_change channel=11 control=11 value=118 time=0.00704225
EXTRACT: pitchwheel channel=11 pitch=512 time=0.0140845
EXTRACT: pitchwheel channel=11 pitch=384 time=0.00704225
EXTRACT: control_change channel=11 control=11 value=117 time=0
EXTRACT: control_change channel=11 control=11 value=115 time=0.0140845
EXTRACT: pitchwheel channel=11 pitch=256 time=0.00704225
EXTRACT: pitchwheel channel=11 pitch=128 time=0.00704225
EXTRACT: control_change channel=11 control=11 value=114 time=0.00704225
EXTRACT: pitchwheel channel=11 pitch=0 time=0.00704225
EXTRACT: control_change channel=11 control=11 value=113 time=0.0422535
EXTRACT: control_change channel=11 control=11 value=112 time=0.00704225
EXTRACT: control_change channel=11 control=11 value=111 time=0.0140845
EXTRACT: control_change channel=11 control=11 value=110 time=0.0140845
EXTRACT: control_change channel=11 control=11 value=109 time=0.00704225
EXTRACT: control_change channel=11 control=11 value=107 time=0.0140845
EXTRACT: control_change channel=11 control=11 value=105 time=0.02112675
EXTRACT: control_change channel=11 control=11 value=103 time=0.0140845
EXTRACT: control_change channel=11 control=11 value=101 time=0.0140845
EXTRACT: control_change channel=11 control=11 value=100 time=0.02112675
EXTRACT: control_change channel=11 control=11 value=98 time=0.00704225
EXTRACT: control_change channel=11 control=11 value=96 time=0.0140845
EXTRACT: control_change channel=11 control=11 value=95 time=0.0140845
EXTRACT: control_change channel=11 control=11 value=93 time=0.00704225
EXTRACT: control_change channel=11 control=11 value=92 time=0.00704225
EXTRACT: note_on channel=0 note=64 velocity=0 time=0.00704225
EXTRACT: note_on channel=0 note=64 velocity=82 time=0
EXTRACT: control_change channel=11 control=11 value=91 time=0
EXTRACT: note_on channel=9 note=31 velocity=127 time=0.00704225
EXTRACT: note_on channel=9 note=33 velocity=127 time=0
EXTRACT: note_on channel=9 note=46 velocity=80 time=0
EXTRACT: note_on channel=10 note=31 velocity=73 time=0
EXTRACT: control_change channel=11 control=11 value=89 time=0
EXTRACT: note_on channel=0 note=52 velocity=0 time=0.00704225
EXTRACT: note_on channel=0 note=52 velocity=82 time=0
EXTRACT: note_on channel=0 note=56 velocity=0 time=0.00704225
EXTRACT: note_on channel=0 note=68 velocity=0 time=0
EXTRACT: note_on channel=0 note=56 velocity=82 time=0
EXTRACT: note_on channel=0 note=68 velocity=82 time=0
EXTRACT: control_change channel=11 control=11 value=86 time=0
EXTRACT: note_on channel=3 note=38 velocity=0 time=0.00704225
EXTRACT: note_on channel=3 note=38 velocity=113 time=0
EXTRACT: control_change channel=11 control=11 value=84 time=0.00704225
EXTRACT: control_change channel=11 control=11 value=82 time=0.00704225
EXTRACT: control_change channel=11 control=11 value=80 time=0.02112675
EXTRACT: control_change channel=11 control=11 value=78 time=0.0140845
EXTRACT: control_change channel=11 control=11 value=76 time=0.0140845
EXTRACT: note_on channel=9 note=46 velocity=0 time=0.02112675
EXTRACT: note_on channel=9 note=33 velocity=0 time=0
EXTRACT: note_on channel=9 note=31 velocity=0 time=0
EXTRACT: note_on channel=10 note=31 velocity=0 time=0
EXTRACT: control_change channel=11 control=11 value=74 time=0
EXTRACT: control_change channel=11 control=11 value=68 time=0.00704225
EXTRACT: control_change channel=11 control=11 value=67 time=0.00704225
EXTRACT: control_change channel=11 control=11 value=64 time=0.02112675
EXTRACT: control_change channel=11 control=11 value=61 time=0.00704225
EXTRACT: control_change channel=11 control=11 value=60 time=0.00704225
EXTRACT: control_change channel=11 control=11 value=59 time=0.00704225
EXTRACT: control_change channel=11 control=11 value=57 time=0.00704225
EXTRACT: control_change channel=11 control=11 value=56 time=0.0140845
EXTRACT: control_change channel=11 control=11 value=54 time=0.00704225
EXTRACT: control_change channel=11 control=11 value=53 time=0.0140845
EXTRACT: control_change channel=11 control=11 value=50 time=0.00704225
EXTRACT: control_change channel=11 control=11 value=49 time=0.0140845
EXTRACT: control_change channel=11 control=11 value=47 time=0.0140845
EXTRACT: control_change channel=11 control=11 value=45 time=0.00704225
EXTRACT: control_change channel=11 control=11 value=44 time=0.00704225
EXTRACT: control_change channel=11 control=11 value=43 time=0.0140845
EXTRACT: control_change channel=11 control=11 value=41 time=0.00704225
EXTRACT: note_on channel=11 note=52 velocity=0 time=0.00704225
EXTRACT: control_change channel=11 control=11 value=39 time=0
EXTRACT: control_change channel=11 control=11 value=37 time=0.0140845
EXTRACT: control_change channel=11 control=11 value=36 time=0.02112675
EXTRACT: control_change channel=11 control=11 value=33 time=0.00704225
EXTRACT: control_change channel=11 control=11 value=32 time=0.0140845
EXTRACT: control_change channel=11 control=11 value=31 time=0.0140845
EXTRACT: control_change channel=11 control=11 value=29 time=0.00704225
EXTRACT: control_change channel=11 control=11 value=28 time=0.00704225
EXTRACT: control_change channel=11 control=11 value=27 time=0.00704225
EXTRACT: control_change channel=11 control=11 value=24 time=0.00704225
EXTRACT: control_change channel=11 control=11 value=23 time=0.02112675
EXTRACT: control_change channel=11 control=11 value=21 time=0.0140845
EXTRACT: note_on channel=3 note=62 velocity=0 time=0.00704225
EXTRACT: note_on channel=3 note=66 velocity=94 time=0
EXTRACT: note_on channel=4 note=64 velocity=0 time=0
EXTRACT: note_on channel=4 note=68 velocity=90 time=0
EXTRACT: note_on channel=9 note=46 velocity=80 time=0
EXTRACT: control_change channel=11 control=11 value=19 time=0
EXTRACT: control_change channel=11 control=11 value=17 time=0.0140845
EXTRACT: control_change channel=11 control=11 value=16 time=0.00704225
EXTRACT: control_change channel=11 control=11 value=15 time=0.00704225
EXTRACT: control_change channel=11 control=11 value=12 time=0.00704225
EXTRACT: control_change channel=11 control=11 value=11 time=0.00704225
EXTRACT: control_change channel=11 control=11 value=9 time=0.0140845
EXTRACT: control_change channel=11 control=11 value=6 time=0.00704225
EXTRACT: control_change channel=11 control=11 value=5 time=0.00704225
EXTRACT: control_change channel=11 control=11 value=4 time=0.00704225
EXTRACT: note_on channel=9 note=46 velocity=0 time=0.028169
EXTRACT: note_on channel=9 note=33 velocity=127 time=0.10563375
EXTRACT: control_change channel=11 control=11 value=127 time=0.0985915
EXTRACT: note_on channel=9 note=33 velocity=0 time=0.00704225
EXTRACT: note_on channel=0 note=64 velocity=0 time=0.084507
EXTRACT: note_on channel=0 note=52 velocity=0 time=0.00704225
EXTRACT: note_on channel=0 note=64 velocity=82 time=0
EXTRACT: note_on channel=0 note=56 velocity=0 time=0.00704225
EXTRACT: note_on channel=0 note=56 velocity=82 time=0.00704225
EXTRACT: note_on channel=0 note=52 velocity=82 time=0
EXTRACT: note_on channel=2 note=56 velocity=0 time=0
EXTRACT: note_on channel=2 note=40 velocity=0 time=0
EXTRACT: note_on channel=2 note=44 velocity=0 time=0
EXTRACT: note_on channel=2 note=52 velocity=0 time=0
EXTRACT: note_on channel=2 note=40 velocity=66 time=0
EXTRACT: note_on channel=2 note=44 velocity=66 time=0
EXTRACT: note_on channel=2 note=52 velocity=66 time=0
EXTRACT: note_on channel=2 note=56 velocity=66 time=0
EXTRACT: note_on channel=9 note=46 velocity=80 time=0
EXTRACT: note_on channel=0 note=68 velocity=0 time=0.0140845
EXTRACT: note_on channel=0 note=68 velocity=82 time=0
EXTRACT: note_on channel=3 note=38 velocity=0 time=0.00704225
EXTRACT: note_on channel=3 note=38 velocity=113 time=0
EXTRACT: note_on channel=9 note=46 velocity=0 time=0.084507
EXTRACT: note_on channel=9 note=33 velocity=127 time=0.10563375
EXTRACT: note_on channel=9 note=33 velocity=0 time=0.10563375
EXTRACT: note_on channel=9 note=33 velocity=127 time=0.10563375
EXTRACT: note_on channel=9 note=46 velocity=80 time=0
EXTRACT: note_on channel=9 note=46 velocity=0 time=0.10563375
EXTRACT: note_on channel=9 note=33 velocity=0 time=0
EXTRACT: note_on channel=0 note=64 velocity=0 time=0.30281674999999997
EXTRACT: note_on channel=0 note=64 velocity=82 time=0
EXTRACT: note_on channel=0 note=52 velocity=0 time=0.0140845
EXTRACT: note_on channel=0 note=56 velocity=0 time=0
EXTRACT: note_on channel=0 note=56 velocity=82 time=0
EXTRACT: note_on channel=0 note=52 velocity=82 time=0
EXTRACT: note_on channel=9 note=31 velocity=127 time=0
EXTRACT: note_on channel=9 note=33 velocity=127 time=0
EXTRACT: note_on channel=9 note=46 velocity=80 time=0
EXTRACT: note_on channel=10 note=31 velocity=73 time=0
EXTRACT: note_on channel=0 note=68 velocity=0 time=0.0140845
EXTRACT: note_on channel=0 note=68 velocity=82 time=0
EXTRACT: note_on channel=3 note=38 velocity=0 time=0.00704225
EXTRACT: note_on channel=3 note=38 velocity=113 time=0.0140845
EXTRACT: note_on channel=9 note=46 velocity=0 time=0.0704225
EXTRACT: note_on channel=9 note=33 velocity=0 time=0
EXTRACT: note_on channel=9 note=31 velocity=0 time=0
EXTRACT: note_on channel=10 note=31 velocity=0 time=0
EXTRACT: note_on channel=9 note=51 velocity=127 time=0.31690125
EXTRACT: note_on channel=9 note=46 velocity=80 time=0
EXTRACT: control_change channel=3 control=72 value=64 time=0.06338025
EXTRACT: note_on channel=9 note=46 velocity=0 time=0.0422535
EXTRACT: note_on channel=9 note=51 velocity=0 time=0
EXTRACT: note_on channel=1 note=59 velocity=0 time=0.19014075
EXTRACT: note_on channel=1 note=56 velocity=0 time=0.0140845
EXTRACT: note_on channel=1 note=71 velocity=0 time=0.02112675
EXTRACT: note_on channel=1 note=52 velocity=0 time=0
EXTRACT: note_on channel=8 note=40 velocity=0 time=0.028169
EXTRACT: note_on channel=1 note=52 velocity=73 time=0.03521125
EXTRACT: note_on channel=0 note=64 velocity=0 time=0.0140845
EXTRACT: note_on channel=0 note=52 velocity=0 time=0.0140845
EXTRACT: note_on channel=0 note=56 velocity=0 time=0
EXTRACT: note_on channel=1 note=45 velocity=66 time=0
EXTRACT: note_on channel=2 note=56 velocity=0 time=0
EXTRACT: note_on channel=2 note=40 velocity=0 time=0
EXTRACT: note_on channel=2 note=44 velocity=0 time=0
EXTRACT: note_on channel=2 note=52 velocity=0 time=0
EXTRACT: note_on channel=3 note=66 velocity=0 time=0
EXTRACT: note_on channel=3 note=76 velocity=112 time=0
EXTRACT: note_on channel=4 note=68 velocity=0 time=0
EXTRACT: note_on channel=4 note=52 velocity=73 time=0
EXTRACT: note_on channel=4 note=57 velocity=73 time=0
EXTRACT: note_on channel=4 note=61 velocity=73 time=0
EXTRACT: note_on channel=7 note=45 velocity=66 time=0
EXTRACT: note_on channel=9 note=33 velocity=127 time=0
EXTRACT: note_on channel=9 note=46 velocity=80 time=0
EXTRACT: note_on channel=9 note=57 velocity=100 time=0
EXTRACT: pitchwheel channel=3 pitch=0 time=0.00704225
EXTRACT: note_on channel=0 note=68 velocity=0 time=0.00704225
EXTRACT: note_on channel=1 note=61 velocity=73 time=0.00704225
EXTRACT: note_on channel=3 note=38 velocity=0 time=0.0140845
EXTRACT: note_on channel=4 note=64 velocity=73 time=0.0140845
EXTRACT: note_on channel=1 note=57 velocity=73 time=0.02112675
EXTRACT: note_on channel=9 note=57 velocity=0 time=0.03521125
EXTRACT: note_on channel=9 note=46 velocity=0 time=0
EXTRACT: note_on channel=9 note=33 velocity=0 time=0
EXTRACT: note_on channel=3 note=76 velocity=0 time=0.31690125
EXTRACT: note_on channel=3 note=64 velocity=112 time=0
EXTRACT: note_on channel=3 note=64 velocity=0 time=0.422535
EXTRACT: note_on channel=3 note=76 velocity=112 time=0
EXTRACT: note_on channel=3 note=76 velocity=0 time=0.422535
EXTRACT: note_on channel=3 note=64 velocity=112 time=0
EXTRACT: note_on channel=1 note=52 velocity=0 time=0.225352
EXTRACT: note_on channel=1 note=61 velocity=0 time=0.04929575
EXTRACT: note_on channel=1 note=57 velocity=0 time=0.04929575
EXTRACT: note_on channel=1 note=56 velocity=73 time=0.03521125
EXTRACT: note_on channel=4 note=52 velocity=73 time=0.00704225
EXTRACT: note_on channel=1 note=61 velocity=73 time=0.0140845
EXTRACT: note_on channel=4 note=61 velocity=0 time=0.00704225
EXTRACT: note_on channel=4 note=52 velocity=0 time=0
EXTRACT: note_on channel=4 note=57 velocity=0 time=0
EXTRACT: note_on channel=4 note=59 velocity=73 time=0
EXTRACT: note_on channel=1 note=45 velocity=0 time=0.03521125
EXTRACT: note_on channel=1 note=44 velocity=66 time=0
EXTRACT: note_on channel=3 note=64 velocity=0 time=0
EXTRACT: note_on channel=3 note=71 velocity=112 time=0
EXTRACT: note_on channel=7 note=45 velocity=0 time=0
EXTRACT: note_on channel=7 note=44 velocity=66 time=0
EXTRACT: note_on channel=4 note=64 velocity=73 time=0.00704225
EXTRACT: note_on channel=1 note=68 velocity=73 time=0.00704225
EXTRACT: note_on channel=4 note=64 velocity=0 time=0
EXTRACT: note_on channel=3 note=71 velocity=0 time=0.4084505
EXTRACT: note_on channel=3 note=73 velocity=112 time=0
EXTRACT: note_on channel=3 note=73 velocity=0 time=0.422535
EXTRACT: note_on channel=3 note=71 velocity=112 time=0
EXTRACT: note_on channel=3 note=71 velocity=0 time=0.422535
EXTRACT: note_on channel=3 note=73 velocity=112 time=0
EXTRACT: note_on channel=4 note=52 velocity=0 time=0.17605625
EXTRACT: note_on channel=1 note=56 velocity=0 time=0.0140845
EXTRACT: note_on channel=4 note=59 velocity=0 time=0.0140845
EXTRACT: note_on channel=4 note=64 velocity=0 time=0
EXTRACT: note_on channel=1 note=61 velocity=0 time=0.00704225
EXTRACT: note_on channel=4 note=52 velocity=73 time=0.028169
EXTRACT: note_on channel=1 note=68 velocity=0 time=0.028169
EXTRACT: note_on channel=4 note=56 velocity=73 time=0.0704225
EXTRACT: note_on channel=1 note=61 velocity=73 time=0.03521125
EXTRACT: note_on channel=1 note=52 velocity=73 time=0.02112675
EXTRACT: note_on channel=1 note=56 velocity=73 time=0.02112675
EXTRACT: note_on channel=1 note=44 velocity=0 time=0.00704225
EXTRACT: note_on channel=1 note=37 velocity=66 time=0
EXTRACT: note_on channel=1 note=68 velocity=73 time=0
EXTRACT: note_on channel=3 note=73 velocity=0 time=0
EXTRACT: note_on channel=3 note=76 velocity=112 time=0
EXTRACT: note_on channel=7 note=44 velocity=0 time=0
EXTRACT: note_on channel=7 note=37 velocity=66 time=0
EXTRACT: note_on channel=4 note=61 velocity=73 time=0.02112675
EXTRACT: note_on channel=4 note=64 velocity=73 time=0.04929575
EXTRACT: note_on channel=3 note=76 velocity=0 time=0.3521125
EXTRACT: note_on channel=3 note=64 velocity=112 time=0
EXTRACT: note_on channel=3 note=64 velocity=0 time=0.422535
EXTRACT: note_on channel=3 note=76 velocity=112 time=0
EXTRACT: note_on channel=3 note=76 velocity=0 time=0.422535
EXTRACT: note_on channel=3 note=64 velocity=112 time=0
EXTRACT: note_on channel=1 note=61 velocity=0 time=0.20422525
EXTRACT: note_on channel=1 note=52 velocity=0 time=0.02112675
EXTRACT: note_on channel=1 note=56 velocity=0 time=0.02112675
EXTRACT: note_on channel=1 note=68 velocity=0 time=0.00704225
EXTRACT: note_on channel=4 note=64 velocity=0 time=0.0140845
EXTRACT: note_on channel=4 note=56 velocity=0 time=0.02112675
EXTRACT: note_on channel=4 note=52 velocity=0 time=0.028169
EXTRACT: note_on channel=1 note=64 velocity=73 time=0.056338
EXTRACT: note_on channel=1 note=57 velocity=73 time=0.00704225
EXTRACT: note_on channel=1 note=69 velocity=73 time=0.0140845
EXTRACT: note_on channel=4 note=59 velocity=73 time=0.00704225
EXTRACT: note_on channel=4 note=61 velocity=0 time=0.00704225
EXTRACT: note_on channel=1 note=37 velocity=0 time=0.0140845
EXTRACT: note_on channel=1 note=40 velocity=66 time=0
EXTRACT: note_on channel=3 note=64 velocity=0 time=0
EXTRACT: note_on channel=3 note=71 velocity=112 time=0
EXTRACT: note_on channel=4 note=64 velocity=73 time=0
EXTRACT: note_on channel=7 note=37 velocity=0 time=0
EXTRACT: note_on channel=7 note=40 velocity=66 time=0
EXTRACT: note_on channel=1 note=61 velocity=73 time=0.04929575
EXTRACT: note_on channel=3 note=71 velocity=0 time=0.37323925
EXTRACT: note_on channel=3 note=73 velocity=112 time=0
EXTRACT: note_on channel=6 note=64 velocity=100 time=0.0140845
EXTRACT: control_change channel=6 control=1 value=72 time=0.1267605
EXTRACT: control_change channel=6 control=11 value=2 time=0.253521
EXTRACT: control_change channel=6 control=11 value=3 time=0.00704225
EXTRACT: note_on channel=3 note=73 velocity=0 time=0.02112675
EXTRACT: note_on channel=3 note=71 velocity=112 time=0
EXTRACT: control_change channel=6 control=11 value=4 time=0.00704225
EXTRACT: control_change channel=6 control=11 value=5 time=0.0140845
EXTRACT: control_change channel=6 control=11 value=6 time=0.02112675
EXTRACT: control_change channel=6 control=11 value=7 time=0.02112675
EXTRACT: control_change channel=6 control=11 value=8 time=0.02112675
EXTRACT: control_change channel=6 control=11 value=9 time=0.0140845
EXTRACT: control_change channel=6 control=11 value=10 time=0.028169
EXTRACT: control_change channel=4 control=10 value=110 time=0.0140845
EXTRACT: control_change channel=6 control=11 value=11 time=0
EXTRACT: control_change channel=6 control=11 value=12 time=0.0140845
EXTRACT: control_change channel=6 control=11 value=13 time=0.028169
EXTRACT: control_change channel=6 control=11 value=14 time=0.0140845
EXTRACT: control_change channel=3 control=94 value=31 time=0.02112675
EXTRACT: control_change channel=6 control=11 value=15 time=0
EXTRACT: control_change channel=6 control=11 value=16 time=0.0140845
EXTRACT: control_change channel=6 control=11 value=17 time=0.028169
EXTRACT: control_change channel=6 control=11 value=18 time=0.0140845
EXTRACT: control_change channel=6 control=11 value=19 time=0.02112675
EXTRACT: control_change channel=3 control=11 value=106 time=0.00704225
EXTRACT: control_change channel=4 control=72 value=104 time=0
EXTRACT: control_change channel=6 control=11 value=20 time=0.0140845
EXTRACT: control_change channel=6 control=11 value=21 time=0.02112675
EXTRACT: control_change channel=6 control=11 value=22 time=0.0140845
EXTRACT: control_change channel=6 control=11 value=23 time=0.028169
EXTRACT: control_change channel=6 control=11 value=24 time=0.0140845
EXTRACT: control_change channel=6 control=11 value=25 time=0.0140845
EXTRACT: note_on channel=3 note=71 velocity=0 time=0.0140845
EXTRACT: note_on channel=3 note=73 velocity=112 time=0
EXTRACT: control_change channel=6 control=11 value=26 time=0.0140845
EXTRACT: control_change channel=6 control=11 value=27 time=0.0140845
EXTRACT: control_change channel=6 control=11 value=28 time=0.02112675
EXTRACT: control_change channel=6 control=11 value=29 time=0.0140845
EXTRACT: control_change channel=6 control=11 value=30 time=0.028169
EXTRACT: control_change channel=6 control=11 value=31 time=0.0140845
EXTRACT: control_change channel=3 control=72 value=107 time=0.02112675
EXTRACT: control_change channel=6 control=11 value=32 time=0
EXTRACT: control_change channel=6 control=11 value=33 time=0.02112675
EXTRACT: control_change channel=6 control=11 value=34 time=0.02112675
EXTRACT: note_on channel=4 note=59 velocity=0 time=0.00704225
EXTRACT: control_change channel=6 control=11 value=35 time=0.00704225
EXTRACT: note_on channel=4 note=64 velocity=0 time=0.0140845
EXTRACT: note_on channel=1 note=64 velocity=0 time=0.00704225
EXTRACT: note_on channel=1 note=57 velocity=0 time=0.00704225
EXTRACT: control_change channel=6 control=11 value=36 time=0
EXTRACT: note_on channel=4 note=52 velocity=73 time=0.00704225
EXTRACT: note_on channel=1 note=69 velocity=0 time=0.00704225
EXTRACT: control_change channel=6 control=11 value=37 time=0
EXTRACT: control_change channel=6 control=11 value=38 time=0.0140845
EXTRACT: control_change channel=6 control=11 value=39 time=0.028169
EXTRACT: control_change channel=6 control=11 value=40 time=0.0140845
EXTRACT: note_on channel=1 note=61 velocity=0 time=0.02112675
EXTRACT: control_change channel=6 control=11 value=41 time=0
EXTRACT: note_on channel=4 note=57 velocity=73 time=0.0140845
EXTRACT: control_change channel=6 control=11 value=42 time=0
EXTRACT: control_change channel=6 control=11 value=43 time=0.028169
EXTRACT: control_change channel=6 control=11 value=44 time=0.0140845
EXTRACT: control_change channel=6 control=11 value=45 time=0.02112675
EXTRACT: note_on channel=1 note=69 velocity=73 time=0.0140845
EXTRACT: control_change channel=6 control=94 value=56 time=0
EXTRACT: control_change channel=6 control=11 value=46 time=0.00704225
EXTRACT: note_on channel=1 note=40 velocity=0 time=0.02112675
EXTRACT: note_on channel=1 note=45 velocity=66 time=0
EXTRACT: note_on channel=3 note=73 velocity=0 time=0
EXTRACT: note_on channel=3 note=76 velocity=112 time=0
EXTRACT: note_on channel=4 note=61 velocity=73 time=0
EXTRACT: control_change channel=6 control=11 value=47 time=0
EXTRACT: note_on channel=7 note=40 velocity=0 time=0
EXTRACT: note_on channel=7 note=45 velocity=66 time=0
EXTRACT: control_change channel=6 control=11 value=48 time=0.0140845
EXTRACT: note_on channel=1 note=61 velocity=73 time=0.00704225
EXTRACT: control_change channel=6 control=11 value=49 time=0.02112675
EXTRACT: note_on channel=4 note=64 velocity=73 time=0.00704225
EXTRACT: control_change channel=6 control=11 value=50 time=0.00704225
EXTRACT: note_on channel=1 note=57 velocity=73 time=0.0140845
EXTRACT: control_change channel=6 control=11 value=51 time=0
EXTRACT: control_change channel=6 control=11 value=52 time=0.028169
EXTRACT: control_change channel=6 control=11 value=53 time=0.0140845
EXTRACT: control_change channel=6 control=11 value=54 time=0.02112675
EXTRACT: control_change channel=6 control=11 value=55 time=0.0140845
EXTRACT: control_change channel=6 control=11 value=56 time=0.028169
EXTRACT: control_change channel=6 control=11 value=57 time=0.0140845
EXTRACT: control_change channel=6 control=11 value=58 time=0.02112675
EXTRACT: control_change channel=6 control=11 value=59 time=0.02112675
EXTRACT: control_change channel=6 control=11 value=60 time=0.02112675
EXTRACT: control_change channel=6 control=11 value=61 time=0.0140845
EXTRACT: control_change channel=6 control=11 value=62 time=0.028169
EXTRACT: control_change channel=6 control=11 value=63 time=0.0140845
EXTRACT: control_change channel=6 control=11 value=64 time=0.0140845
EXTRACT: control_change channel=6 control=11 value=65 time=0.02112675
EXTRACT: control_change channel=6 control=11 value=66 time=0.02112675
EXTRACT: control_change channel=6 control=11 value=67 time=0.02112675
EXTRACT: control_change channel=6 control=11 value=68 time=0.0140845
EXTRACT: note_on channel=3 note=76 velocity=0 time=0.02112675
EXTRACT: note_on channel=3 note=64 velocity=112 time=0
EXTRACT: control_change channel=6 control=11 value=69 time=0.00704225
EXTRACT: control_change channel=6 control=11 value=70 time=0.0140845
EXTRACT: control_change channel=6 control=11 value=71 time=0.02112675
EXTRACT: control_change channel=6 control=11 value=72 time=0.02112675
EXTRACT: control_change channel=6 control=11 value=73 time=0.02112675
EXTRACT: control_change channel=6 control=11 value=74 time=0.0140845
EXTRACT: control_change channel=6 control=11 value=75 time=0.028169
EXTRACT: control_change channel=6 control=11 value=76 time=0.0140845
EXTRACT: control_change channel=6 control=11 value=77 time=0.0140845
EXTRACT: control_change channel=6 control=11 value=78 time=0.02112675
EXTRACT: control_change channel=6 control=11 value=79 time=0.02112675
EXTRACT: control_change channel=6 control=11 value=80 time=0.02112675
EXTRACT: control_change channel=6 control=11 value=81 time=0.0140845
EXTRACT: control_change channel=6 control=11 value=82 time=0.028169
EXTRACT: control_change channel=6 control=11 value=83 time=0.0140845
EXTRACT: control_change channel=6 control=11 value=84 time=0.02112675
EXTRACT: control_change channel=6 control=11 value=85 time=0.02112675
EXTRACT: control_change channel=6 control=11 value=86 time=0.02112675
EXTRACT: control_change channel=6 control=11 value=87 time=0.0140845
EXTRACT: control_change channel=6 control=11 value=88 time=0.028169
EXTRACT: control_change channel=6 control=11 value=89 time=0.0140845
EXTRACT: control_change channel=6 control=11 value=90 time=0.0140845
EXTRACT: note_on channel=3 note=64 velocity=0 time=0.0140845
EXTRACT: note_on channel=3 note=76 velocity=112 time=0
EXTRACT: control_change channel=6 control=11 value=91 time=0.00704225
EXTRACT: control_change channel=6 control=11 value=92 time=0.02112675
EXTRACT: control_change channel=6 control=11 value=93 time=0.02112675
EXTRACT: control_change channel=6 control=11 value=94 time=0.0140845
EXTRACT: control_change channel=6 control=11 value=95 time=0.028169
EXTRACT: control_change channel=6 control=11 value=96 time=0.0140845
EXTRACT: control_change channel=6 control=11 value=97 time=0.02112675
EXTRACT: control_change channel=6 control=11 value=98 time=0.02112675
EXTRACT: control_change channel=6 control=11 value=99 time=0.02112675
EXTRACT: control_change channel=6 control=11 value=100 time=0.0140845
EXTRACT: control_change channel=6 control=11 value=101 time=0.028169
EXTRACT: control_change channel=6 control=11 value=102 time=0.0140845
EXTRACT: control_change channel=6 control=11 value=103 time=0.0140845
EXTRACT: control_change channel=6 control=11 value=104 time=0.02112675
EXTRACT: control_change channel=6 control=11 value=105 time=0.02112675
EXTRACT: control_change channel=6 control=11 value=106 time=0.02112675
EXTRACT: control_change channel=6 control=11 value=107 time=0.0140845
EXTRACT: control_change channel=6 control=11 value=108 time=0.028169
EXTRACT: control_change channel=6 control=11 value=109 time=0.0140845
EXTRACT: control_change channel=6 control=11 value=110 time=0.02112675
EXTRACT: control_change channel=6 control=11 value=111 time=0.02112675
EXTRACT: note_on channel=3 note=76 velocity=0 time=0.02112675
EXTRACT: note_on channel=3 note=64 velocity=112 time=0
EXTRACT: control_change channel=6 control=11 value=112 time=0
EXTRACT: control_change channel=6 control=11 value=113 time=0.0140845
EXTRACT: control_change channel=6 control=11 value=114 time=0.028169
EXTRACT: control_change channel=6 control=11 value=115 time=0.0140845
EXTRACT: control_change channel=6 control=11 value=116 time=0.0140845
EXTRACT: control_change channel=6 control=11 value=117 time=0.02112675
EXTRACT: control_change channel=6 control=11 value=118 time=0.02112675
EXTRACT: control_change channel=6 control=11 value=119 time=0.02112675
EXTRACT: control_change channel=6 control=11 value=120 time=0.0140845
EXTRACT: control_change channel=6 control=11 value=121 time=0.028169
EXTRACT: control_change channel=6 control=11 value=122 time=0.0140845
EXTRACT: control_change channel=6 control=11 value=123 time=0.02112675
EXTRACT: note_on channel=1 note=69 velocity=0 time=0.0140845
EXTRACT: control_change channel=6 control=11 value=124 time=0.00704225
EXTRACT: control_change channel=6 control=11 value=125 time=0.02112675
EXTRACT: note_on channel=4 note=57 velocity=0 time=0.0140845
EXTRACT: control_change channel=6 control=11 value=126 time=0
EXTRACT: note_on channel=1 note=61 velocity=0 time=0.00704225
EXTRACT: control_change channel=6 control=11 value=127 time=0.00704225
EXTRACT: note_on channel=4 note=52 velocity=0 time=0.0140845
EXTRACT: control_change channel=6 control=11 value=126 time=0.0140845
EXTRACT: note_on channel=1 note=57 velocity=0 time=0.0140845
EXTRACT: control_change channel=6 control=11 value=125 time=0
EXTRACT: control_change channel=6 control=11 value=124 time=0.02112675
EXTRACT: note_on channel=1 note=57 velocity=73 time=0.0140845
EXTRACT: control_change channel=6 control=11 value=123 time=0
EXTRACT: note_on channel=1 note=66 velocity=73 time=0.00704225
EXTRACT: note_on channel=4 note=52 velocity=73 time=0
EXTRACT: note_on channel=1 note=61 velocity=73 time=0.0140845
EXTRACT: control_change channel=6 control=11 value=122 time=0
EXTRACT: note_on channel=4 note=61 velocity=0 time=0.00704225
EXTRACT: note_on channel=4 note=59 velocity=73 time=0
EXTRACT: control_change channel=6 control=11 value=121 time=0.00704225
EXTRACT: control_change channel=6 control=11 value=120 time=0.0140845
EXTRACT: note_on channel=1 note=45 velocity=0 time=0.0140845
EXTRACT: note_on channel=1 note=42 velocity=66 time=0
EXTRACT: note_on channel=3 note=64 velocity=0 time=0
EXTRACT: note_on channel=3 note=71 velocity=112 time=0
EXTRACT: note_on channel=7 note=45 velocity=0 time=0
EXTRACT: note_on channel=7 note=42 velocity=66 time=0
EXTRACT: note_on channel=4 note=64 velocity=73 time=0.00704225
EXTRACT: control_change channel=6 control=11 value=119 time=0
EXTRACT: note_on channel=1 note=69 velocity=73 time=0.00704225
EXTRACT: note_on channel=4 note=64 velocity=0 time=0
EXTRACT: control_change channel=6 control=11 value=118 time=0.00704225
EXTRACT: control_change channel=6 control=11 value=117 time=0.028169
EXTRACT: control_change channel=6 control=11 value=116 time=0.0140845
EXTRACT: control_change channel=6 control=11 value=115 time=0.02112675
EXTRACT: control_change channel=6 control=11 value=114 time=0.0140845
EXTRACT: control_change channel=6 control=11 value=113 time=0.0140845
EXTRACT: control_change channel=6 control=11 value=112 time=0.02112675
EXTRACT: control_change channel=6 control=11 value=111 time=0.0140845
EXTRACT: control_change channel=6 control=11 value=110 time=0.02112675
EXTRACT: control_change channel=6 control=11 value=109 time=0.0140845
EXTRACT: control_change channel=6 control=11 value=108 time=0.028169
EXTRACT: control_change channel=6 control=11 value=107 time=0.0140845
EXTRACT: control_change channel=6 control=11 value=106 time=0.0140845
EXTRACT: control_change channel=6 control=11 value=105 time=0.02112675
EXTRACT: control_change channel=6 control=11 value=104 time=0.0140845
EXTRACT: control_change channel=6 control=11 value=103 time=0.02112675
EXTRACT: control_change channel=6 control=11 value=102 time=0.0140845
EXTRACT: control_change channel=6 control=11 value=101 time=0.0140845
EXTRACT: control_change channel=6 control=11 value=100 time=0.02112675
EXTRACT: control_change channel=6 control=11 value=99 time=0.02112675
EXTRACT: control_change channel=6 control=11 value=98 time=0.02112675
EXTRACT: control_change channel=6 control=11 value=97 time=0.0140845
EXTRACT: note_on channel=3 note=71 velocity=0 time=0.02112675
EXTRACT: note_on channel=3 note=73 velocity=112 time=0
EXTRACT: control_change channel=6 control=11 value=96 time=0
EXTRACT: control_change channel=6 control=11 value=95 time=0.0140845
EXTRACT: control_change channel=6 control=11 value=94 time=0.0140845
EXTRACT: control_change channel=6 control=11 value=93 time=0.02112675
EXTRACT: control_change channel=6 control=11 value=92 time=0.0140845
EXTRACT: control_change channel=6 control=11 value=91 time=0.02112675
EXTRACT: control_change channel=6 control=11 value=90 time=0.02112675
EXTRACT: control_change channel=6 control=11 value=89 time=0.02112675
EXTRACT: control_change channel=6 control=11 value=88 time=0.0140845
EXTRACT: control_change channel=6 control=11 value=87 time=0.0140845
EXTRACT: control_change channel=6 control=11 value=86 time=0.02112675
EXTRACT: control_change channel=6 control=11 value=85 time=0.0140845
EXTRACT: control_change channel=6 control=11 value=84 time=0.02112675
EXTRACT: control_change channel=6 control=11 value=83 time=0.0140845
EXTRACT: control_change channel=6 control=11 value=82 time=0.0140845
EXTRACT: control_change channel=6 control=11 value=81 time=0.028169
EXTRACT: control_change channel=6 control=11 value=80 time=0.0140845
EXTRACT: control_change channel=6 control=11 value=79 time=0.02112675
EXTRACT: control_change channel=6 control=11 value=78 time=0.0140845
EXTRACT: control_change channel=6 control=11 value=77 time=0.02112675
EXTRACT: control_change channel=6 control=11 value=76 time=0.0140845
EXTRACT: control_change channel=6 control=11 value=75 time=0.0140845
EXTRACT: control_change channel=6 control=11 value=74 time=0.02112675
EXTRACT: control_change channel=6 control=11 value=73 time=0.0140845
EXTRACT: note_on channel=3 note=73 velocity=0 time=0.02112675
EXTRACT: note_on channel=3 note=71 velocity=112 time=0
EXTRACT: control_change channel=6 control=11 value=72 time=0.00704225
EXTRACT: control_change channel=6 control=11 value=71 time=0.0140845
EXTRACT: control_change channel=6 control=11 value=70 time=0.02112675
EXTRACT: control_change channel=6 control=11 value=69 time=0.0140845
EXTRACT: control_change channel=6 control=11 value=68 time=0.0140845
EXTRACT: control_change channel=6 control=11 value=67 time=0.02112675
EXTRACT: control_change channel=6 control=11 value=66 time=0.0140845
EXTRACT: control_change channel=6 control=11 value=65 time=0.02112675
EXTRACT: control_change channel=6 control=11 value=64 time=0.0140845
EXTRACT: control_change channel=6 control=11 value=63 time=0.028169
EXTRACT: control_change channel=6 control=11 value=62 time=0.0140845
EXTRACT: control_change channel=6 control=11 value=61 time=0.0140845
EXTRACT: control_change channel=6 control=11 value=60 time=0.02112675
EXTRACT: control_change channel=6 control=11 value=59 time=0.0140845
EXTRACT: control_change channel=6 control=11 value=58 time=0.02112675
EXTRACT: control_change channel=6 control=11 value=57 time=0.0140845
EXTRACT: control_change channel=6 control=11 value=56 time=0.0140845
EXTRACT: control_change channel=6 control=11 value=55 time=0.02112675
EXTRACT: control_change channel=6 control=11 value=54 time=0.02112675
EXTRACT: control_change channel=6 control=11 value=53 time=0.02112675
EXTRACT: control_change channel=6 control=11 value=52 time=0.0140845
EXTRACT: control_change channel=6 control=11 value=51 time=0.02112675
EXTRACT: control_change channel=6 control=11 value=50 time=0.0140845
EXTRACT: control_change channel=6 control=11 value=49 time=0.0140845
EXTRACT: note_on channel=3 note=71 velocity=0 time=0.0140845
EXTRACT: note_on channel=3 note=73 velocity=112 time=0
EXTRACT: control_change channel=6 control=11 value=48 time=0.00704225
EXTRACT: control_change channel=6 control=11 value=47 time=0.0140845
EXTRACT: control_change channel=6 control=11 value=46 time=0.02112675
EXTRACT: control_change channel=6 control=11 value=45 time=0.02112675
EXTRACT: control_change channel=6 control=11 value=44 time=0.02112675
EXTRACT: control_change channel=6 control=11 value=43 time=0.0140845
EXTRACT: control_change channel=6 control=11 value=42 time=0.0140845
EXTRACT: control_change channel=6 control=11 value=41 time=0.02112675
EXTRACT: control_change channel=6 control=11 value=40 time=0.0140845
EXTRACT: control_change channel=6 control=11 value=39 time=0.02112675
EXTRACT: note_on channel=4 note=52 velocity=0 time=0.00704225
EXTRACT: control_change channel=6 control=11 value=38 time=0.00704225
EXTRACT: note_on channel=1 note=57 velocity=0 time=0.00704225
EXTRACT: note_on channel=1 note=66 velocity=0 time=0.00704225
EXTRACT: control_change channel=6 control=11 value=37 time=0
EXTRACT: note_on channel=4 note=59 velocity=0 time=0.00704225
EXTRACT: note_on channel=4 note=64 velocity=0 time=0
EXTRACT: note_on channel=1 note=61 velocity=0 time=0.00704225
EXTRACT: note_on channel=3 note=73 velocity=0 time=0
EXTRACT: note_on channel=3 note=76 velocity=112 time=0
EXTRACT: control_change channel=6 control=11 value=36 time=0.0140845
EXTRACT: note_on channel=4 note=52 velocity=73 time=0.0140845
EXTRACT: control_change channel=6 control=11 value=35 time=0
EXTRACT: control_change channel=6 control=11 value=34 time=0.02112675
EXTRACT: note_on channel=1 note=69 velocity=0 time=0.00704225
EXTRACT: control_change channel=6 control=11 value=33 time=0.00704225
EXTRACT: control_change channel=6 control=11 value=32 time=0.02112675
EXTRACT: control_change channel=6 control=11 value=31 time=0.0140845
EXTRACT: control_change channel=6 control=11 value=30 time=0.0140845
EXTRACT: note_on channel=4 note=57 velocity=73 time=0.0140845
EXTRACT: control_change channel=6 control=11 value=29 time=0.00704225
EXTRACT: control_change channel=6 control=11 value=28 time=0.0140845
EXTRACT: note_on channel=1 note=61 velocity=73 time=0.0140845
EXTRACT: control_change channel=6 control=11 value=27 time=0.0140845
EXTRACT: note_on channel=1 note=52 velocity=73 time=0.00704225
EXTRACT: control_change channel=6 control=11 value=26 time=0.00704225
EXTRACT: note_on channel=1 note=56 velocity=73 time=0.0140845
EXTRACT: note_on channel=1 note=42 velocity=0 time=0.00704225
EXTRACT: note_on channel=1 note=37 velocity=66 time=0
EXTRACT: note_on channel=1 note=68 velocity=73 time=0
EXTRACT: note_on channel=3 note=76 velocity=0 time=0
EXTRACT: note_on channel=3 note=76 velocity=112 time=0
EXTRACT: control_change channel=6 control=11 value=25 time=0
EXTRACT: note_on channel=7 note=42 velocity=0 time=0
EXTRACT: note_on channel=7 note=37 velocity=66 time=0
EXTRACT: control_change channel=6 control=11 value=24 time=0.0140845
EXTRACT: note_on channel=4 note=61 velocity=73 time=0.00704225
EXTRACT: control_change channel=6 control=11 value=23 time=0.00704225
EXTRACT: control_change channel=6 control=11 value=22 time=0.02112675
EXTRACT: control_change channel=6 control=11 value=21 time=0.0140845
EXTRACT: note_on channel=4 note=64 velocity=73 time=0.00704225
EXTRACT: control_change channel=6 control=11 value=20 time=0.0140845
EXTRACT: control_change channel=6 control=11 value=19 time=0.0140845
EXTRACT: control_change channel=6 control=11 value=18 time=0.028169
EXTRACT: control_change channel=6 control=11 value=17 time=0.0140845
EXTRACT: control_change channel=6 control=11 value=16 time=0.0140845
EXTRACT: control_change channel=6 control=11 value=15 time=0.02112675
EXTRACT: control_change channel=6 control=11 value=14 time=0.0140845
EXTRACT: note_on channel=6 note=64 velocity=0 time=0.0140845
EXTRACT: control_change channel=6 control=11 value=13 time=0.00704225
EXTRACT: control_change channel=6 control=11 value=12 time=0.0140845
EXTRACT: control_change channel=6 control=11 value=11 time=0.0140845
EXTRACT: control_change channel=6 control=11 value=10 time=0.02112675
EXTRACT: control_change channel=6 control=11 value=9 time=0.02112675
EXTRACT: control_change channel=6 control=11 value=8 time=0.02112675
EXTRACT: control_change channel=6 control=11 value=7 time=0.0140845
EXTRACT: control_change channel=6 control=11 value=6 time=0.02112675
EXTRACT: control_change channel=6 control=11 value=5 time=0.0140845
EXTRACT: control_change channel=6 control=11 value=4 time=0.0140845
EXTRACT: control_change channel=6 control=11 value=3 time=0.02112675
EXTRACT: control_change channel=6 control=11 value=2 time=0.0140845
EXTRACT: note_on channel=3 note=76 velocity=0 time=0.02112675
EXTRACT: note_on channel=3 note=64 velocity=112 time=0
EXTRACT: control_change channel=6 control=11 value=1 time=0
EXTRACT: control_change channel=6 control=11 value=0 time=0.0140845
EXTRACT: note_on channel=3 note=64 velocity=0 time=0.4084505
EXTRACT: note_on channel=3 note=76 velocity=112 time=0
EXTRACT: note_on channel=3 note=76 velocity=0 time=0.422535
EXTRACT: pitchwheel channel=3 pitch=384 time=0
EXTRACT: note_on channel=3 note=71 velocity=112 time=0
EXTRACT: pitchwheel channel=3 pitch=640 time=0.00704225
EXTRACT: pitchwheel channel=3 pitch=896 time=0.028169
EXTRACT: pitchwheel channel=3 pitch=1024 time=0.0140845
EXTRACT: pitchwheel channel=3 pitch=1280 time=0.02112675
EXTRACT: pitchwheel channel=3 pitch=1408 time=0.0140845
EXTRACT: pitchwheel channel=3 pitch=1664 time=0.02112675
EXTRACT: pitchwheel channel=3 pitch=1920 time=0.00704225
EXTRACT: pitchwheel channel=3 pitch=2688 time=0.04929575
EXTRACT: pitchwheel channel=3 pitch=2944 time=0.00704225
EXTRACT: pitchwheel channel=3 pitch=3712 time=0.02112675
EXTRACT: pitchwheel channel=3 pitch=4224 time=0.00704225
EXTRACT: note_on channel=1 note=61 velocity=0 time=0.00704225
EXTRACT: pitchwheel channel=3 pitch=4992 time=0
EXTRACT: pitchwheel channel=3 pitch=5120 time=0.00704225
EXTRACT: pitchwheel channel=3 pitch=5376 time=0.00704225
EXTRACT: note_on channel=1 note=52 velocity=0 time=0.00704225
EXTRACT: pitchwheel channel=3 pitch=5632 time=0.00704225
EXTRACT: note_on channel=1 note=56 velocity=0 time=0.0140845
EXTRACT: pitchwheel channel=3 pitch=5888 time=0
EXTRACT: note_on channel=1 note=68 velocity=0 time=0.00704225
EXTRACT: pitchwheel channel=3 pitch=6144 time=0
EXTRACT: pitchwheel channel=3 pitch=6400 time=0.00704225
EXTRACT: note_on channel=4 note=64 velocity=0 time=0.00704225
EXTRACT: pitchwheel channel=3 pitch=6656 time=0.00704225
EXTRACT: pitchwheel channel=3 pitch=6912 time=0.0140845
EXTRACT: note_on channel=4 note=57 velocity=0 time=0
EXTRACT: pitchwheel channel=3 pitch=7168 time=0.00704225
EXTRACT: pitchwheel channel=3 pitch=7424 time=0.00704225
EXTRACT: pitchwheel channel=3 pitch=7552 time=0.0140845
EXTRACT: note_on channel=4 note=52 velocity=0 time=0
EXTRACT: pitchwheel channel=3 pitch=7680 time=0.00704225
EXTRACT: pitchwheel channel=3 pitch=7936 time=0.00704225
EXTRACT: pitchwheel channel=3 pitch=8191 time=0.00704225
EXTRACT: note_on channel=1 note=64 velocity=73 time=0.03521125
EXTRACT: note_on channel=1 note=52 velocity=73 time=0.00704225
EXTRACT: note_on channel=1 note=69 velocity=73 time=0.0140845
EXTRACT: note_on channel=4 note=52 velocity=73 time=0.00704225
EXTRACT: note_on channel=4 note=61 velocity=0 time=0.00704225
EXTRACT: note_on channel=1 note=37 velocity=0 time=0.0140845
EXTRACT: note_on channel=1 note=40 velocity=66 time=0
EXTRACT: note_on channel=3 note=71 velocity=0 time=0
EXTRACT: note_on channel=3 note=71 velocity=112 time=0
EXTRACT: note_on channel=4 note=56 velocity=73 time=0
EXTRACT: note_on channel=4 note=64 velocity=73 time=0
EXTRACT: note_on channel=4 note=59 velocity=73 time=0
EXTRACT: note_on channel=7 note=37 velocity=0 time=0
EXTRACT: note_on channel=7 note=40 velocity=66 time=0
EXTRACT: pitchwheel channel=3 pitch=128 time=0.00704225
EXTRACT: pitchwheel channel=3 pitch=0 time=0.028169
EXTRACT: note_on channel=1 note=59 velocity=73 time=0.0140845
EXTRACT: note_on channel=3 note=71 velocity=0 time=0.37323925
EXTRACT: note_on channel=3 note=73 velocity=112 time=0
EXTRACT: note_on channel=3 note=73 velocity=0 time=0.422535
EXTRACT: note_on channel=3 note=71 velocity=112 time=0
EXTRACT: note_on channel=3 note=71 velocity=0 time=0.422535
EXTRACT: note_on channel=3 note=73 velocity=112 time=0
EXTRACT: note_on channel=6 note=64 velocity=100 time=0.0140845
EXTRACT: control_change channel=6 control=1 value=72 time=0.1267605
EXTRACT: note_on channel=4 note=52 velocity=0 time=0.03521125
EXTRACT: note_on channel=4 note=56 velocity=0 time=0.02112675
EXTRACT: note_on channel=4 note=64 velocity=0 time=0
EXTRACT: note_on channel=4 note=59 velocity=0 time=0
EXTRACT: note_on channel=1 note=64 velocity=0 time=0.00704225
EXTRACT: note_on channel=1 note=52 velocity=0 time=0.00704225
EXTRACT: note_on channel=1 note=69 velocity=0 time=0.0140845
EXTRACT: note_on channel=4 note=52 velocity=73 time=0.06338025
EXTRACT: note_on channel=1 note=59 velocity=0 time=0.0140845
EXTRACT: note_on channel=1 note=69 velocity=73 time=0.0704225
EXTRACT: note_on channel=4 note=57 velocity=73 time=0.0140845
EXTRACT: control_change channel=6 control=11 value=2 time=0.00704225
EXTRACT: control_change channel=6 control=11 value=3 time=0.00704225
EXTRACT: note_on channel=1 note=40 velocity=0 time=0.02112675
EXTRACT: note_on channel=1 note=45 velocity=66 time=0
EXTRACT: note_on channel=3 note=73 velocity=0 time=0
EXTRACT: note_on channel=3 note=76 velocity=112 time=0
EXTRACT: note_on channel=4 note=61 velocity=73 time=0
EXTRACT: note_on channel=7 note=40 velocity=0 time=0
EXTRACT: note_on channel=7 note=45 velocity=66 time=0
EXTRACT: control_change channel=6 control=11 value=4 time=0.00704225
EXTRACT: note_on channel=1 note=61 velocity=73 time=0.0140845
EXTRACT: control_change channel=6 control=11 value=5 time=0
EXTRACT: control_change channel=6 control=11 value=6 time=0.02112675
EXTRACT: note_on channel=4 note=64 velocity=73 time=0.00704225
EXTRACT: control_change channel=6 control=11 value=7 time=0.0140845
EXTRACT: note_on channel=1 note=57 velocity=73 time=0.00704225
EXTRACT: control_change channel=6 control=11 value=8 time=0.0140845
EXTRACT: control_change channel=6 control=11 value=9 time=0.0140845
EXTRACT: control_change channel=6 control=11 value=10 time=0.028169
EXTRACT: control_change channel=6 control=11 value=11 time=0.0140845
EXTRACT: control_change channel=6 control=11 value=12 time=0.0140845
EXTRACT: control_change channel=6 control=11 value=13 time=0.028169
EXTRACT: control_change channel=6 control=11 value=14 time=0.0140845
EXTRACT: control_change channel=6 control=11 value=15 time=0.02112675
EXTRACT: control_change channel=6 control=11 value=16 time=0.0140845
EXTRACT: control_change channel=6 control=11 value=17 time=0.028169
EXTRACT: control_change channel=6 control=11 value=18 time=0.0140845
EXTRACT: control_change channel=6 control=11 value=19 time=0.02112675
EXTRACT: control_change channel=6 control=11 value=20 time=0.02112675
EXTRACT: control_change channel=6 control=11 value=21 time=0.02112675
EXTRACT: control_change channel=6 control=11 value=22 time=0.0140845
EXTRACT: control_change channel=6 control=11 value=23 time=0.028169
EXTRACT: control_change channel=6 control=11 value=24 time=0.0140845
EXTRACT: control_change channel=6 control=11 value=25 time=0.0140845
EXTRACT: note_on channel=3 note=76 velocity=0 time=0.0140845
EXTRACT: note_on channel=3 note=64 velocity=112 time=0
EXTRACT: control_change channel=6 control=11 value=26 time=0.0140845
EXTRACT: control_change channel=6 control=11 value=27 time=0.0140845
EXTRACT: control_change channel=6 control=11 value=28 time=0.02112675
EXTRACT: control_change channel=6 control=11 value=29 time=0.0140845
EXTRACT: control_change channel=6 control=11 value=30 time=0.028169
EXTRACT: control_change channel=6 control=11 value=31 time=0.0140845
EXTRACT: control_change channel=6 control=11 value=32 time=0.02112675
EXTRACT: control_change channel=6 control=11 value=33 time=0.02112675
EXTRACT: control_change channel=6 control=11 value=34 time=0.02112675
EXTRACT: control_change channel=6 control=11 value=35 time=0.0140845
EXTRACT: control_change channel=6 control=11 value=36 time=0.028169
EXTRACT: control_change channel=6 control=11 value=37 time=0.0140845
EXTRACT: control_change channel=6 control=11 value=38 time=0.0140845
EXTRACT: control_change channel=6 control=11 value=39 time=0.028169
EXTRACT: control_change channel=6 control=11 value=40 time=0.0140845
EXTRACT: control_change channel=6 control=11 value=41 time=0.02112675
EXTRACT: control_change channel=6 control=11 value=42 time=0.0140845
EXTRACT: control_change channel=6 control=11 value=43 time=0.028169
EXTRACT: control_change channel=6 control=11 value=44 time=0.0140845
EXTRACT: control_change channel=6 control=11 value=45 time=0.02112675
EXTRACT: control_change channel=6 control=94 value=56 time=0.0140845
EXTRACT: control_change channel=6 control=11 value=46 time=0.00704225
EXTRACT: note_on channel=3 note=64 velocity=0 time=0.02112675
EXTRACT: note_on channel=3 note=76 velocity=112 time=0
EXTRACT: control_change channel=6 control=11 value=47 time=0
EXTRACT: control_change channel=6 control=11 value=48 time=0.0140845
EXTRACT: control_change channel=6 control=11 value=49 time=0.028169
EXTRACT: control_change channel=6 control=11 value=50 time=0.0140845
EXTRACT: control_change channel=6 control=11 value=51 time=0.0140845
EXTRACT: control_change channel=6 control=11 value=52 time=0.028169
EXTRACT: control_change channel=6 control=11 value=53 time=0.0140845
EXTRACT: control_change channel=6 control=11 value=54 time=0.02112675
EXTRACT: control_change channel=6 control=11 value=55 time=0.0140845
EXTRACT: control_change channel=6 control=11 value=56 time=0.028169
EXTRACT: control_change channel=6 control=11 value=57 time=0.0140845
EXTRACT: control_change channel=6 control=11 value=58 time=0.02112675
EXTRACT: control_change channel=6 control=11 value=59 time=0.02112675
EXTRACT: control_change channel=6 control=11 value=60 time=0.02112675
EXTRACT: control_change channel=6 control=11 value=61 time=0.0140845
EXTRACT: control_change channel=6 control=11 value=62 time=0.028169
EXTRACT: control_change channel=6 control=11 value=63 time=0.0140845
EXTRACT: control_change channel=6 control=11 value=64 time=0.0140845
EXTRACT: control_change channel=6 control=11 value=65 time=0.02112675
EXTRACT: control_change channel=6 control=11 value=66 time=0.02112675
EXTRACT: control_change channel=6 control=11 value=67 time=0.02112675
EXTRACT: control_change channel=6 control=11 value=68 time=0.0140845
EXTRACT: note_on channel=3 note=76 velocity=0 time=0.02112675
EXTRACT: note_on channel=3 note=64 velocity=112 time=0
EXTRACT: control_change channel=6 control=11 value=69 time=0.00704225
EXTRACT: control_change channel=6 control=11 value=70 time=0.0140845
EXTRACT: control_change channel=6 control=11 value=71 time=0.02112675
EXTRACT: control_change channel=6 control=11 value=72 time=0.02112675
EXTRACT: control_change channel=6 control=11 value=73 time=0.02112675
EXTRACT: control_change channel=6 control=11 value=74 time=0.0140845
EXTRACT: control_change channel=6 control=11 value=75 time=0.028169
EXTRACT: control_change channel=6 control=11 value=76 time=0.0140845
EXTRACT: control_change channel=6 control=11 value=77 time=0.0140845
EXTRACT: control_change channel=6 control=11 value=78 time=0.02112675
EXTRACT: control_change channel=6 control=11 value=79 time=0.02112675
EXTRACT: note_on channel=1 note=69 velocity=0 time=0.00704225
EXTRACT: control_change channel=6 control=11 value=80 time=0.0140845
EXTRACT: control_change channel=6 control=11 value=81 time=0.0140845
EXTRACT: control_change channel=6 control=11 value=82 time=0.028169
EXTRACT: note_on channel=1 note=61 velocity=0 time=0.0140845
EXTRACT: control_change channel=6 control=11 value=83 time=0
EXTRACT: control_change channel=6 control=11 value=84 time=0.02112675
EXTRACT: control_change channel=6 control=11 value=85 time=0.02112675
EXTRACT: note_on channel=1 note=57 velocity=0 time=0.00704225
EXTRACT: note_on channel=4 note=57 velocity=0 time=0.0140845
EXTRACT: control_change channel=6 control=11 value=86 time=0
EXTRACT: control_change channel=6 control=11 value=87 time=0.0140845
EXTRACT: note_on channel=1 note=56 velocity=73 time=0.00704225
EXTRACT: note_on channel=4 note=52 velocity=0 time=0.00704225
EXTRACT: note_on channel=4 note=52 velocity=73 time=0
EXTRACT: note_on channel=1 note=61 velocity=73 time=0.0140845
EXTRACT: control_change channel=6 control=11 value=88 time=0
EXTRACT: note_on channel=4 note=61 velocity=0 time=0.00704225
EXTRACT: note_on channel=4 note=59 velocity=73 time=0
EXTRACT: control_change channel=6 control=11 value=89 time=0.00704225
EXTRACT: control_change channel=6 control=11 value=90 time=0.0140845
EXTRACT: note_on channel=1 note=45 velocity=0 time=0.0140845
EXTRACT: note_on channel=1 note=44 velocity=66 time=0
EXTRACT: note_on channel=3 note=64 velocity=0 time=0
EXTRACT: note_on channel=3 note=71 velocity=112 time=0
EXTRACT: note_on channel=7 note=45 velocity=0 time=0
EXTRACT: note_on channel=7 note=44 velocity=66 time=0
EXTRACT: note_on channel=4 note=64 velocity=73 time=0.00704225
EXTRACT: control_change channel=6 control=11 value=91 time=0
EXTRACT: note_on channel=1 note=68 velocity=73 time=0.00704225
EXTRACT: note_on channel=4 note=64 velocity=0 time=0
EXTRACT: control_change channel=6 control=11 value=92 time=0.0140845
EXTRACT: control_change channel=6 control=11 value=93 time=0.02112675
EXTRACT: control_change channel=6 control=11 value=94 time=0.0140845
EXTRACT: control_change channel=6 control=11 value=95 time=0.028169
EXTRACT: control_change channel=6 control=11 value=96 time=0.0140845
EXTRACT: control_change channel=6 control=11 value=97 time=0.02112675
EXTRACT: control_change channel=6 control=11 value=98 time=0.02112675
EXTRACT: control_change channel=6 control=11 value=99 time=0.02112675
EXTRACT: control_change channel=6 control=11 value=100 time=0.0140845
EXTRACT: control_change channel=6 control=11 value=101 time=0.028169
EXTRACT: control_change channel=6 control=11 value=102 time=0.0140845
EXTRACT: control_change channel=6 control=11 value=103 time=0.0140845
EXTRACT: control_change channel=6 control=11 value=104 time=0.02112675
EXTRACT: control_change channel=6 control=11 value=105 time=0.02112675
EXTRACT: control_change channel=6 control=11 value=106 time=0.02112675
EXTRACT: control_change channel=6 control=11 value=107 time=0.0140845
EXTRACT: control_change channel=6 control=11 value=108 time=0.028169
EXTRACT: control_change channel=6 control=11 value=109 time=0.0140845
EXTRACT: control_change channel=6 control=11 value=110 time=0.02112675
EXTRACT: control_change channel=6 control=11 value=111 time=0.02112675
EXTRACT: note_on channel=3 note=71 velocity=0 time=0.02112675
EXTRACT: note_on channel=3 note=73 velocity=112 time=0
EXTRACT: control_change channel=6 control=11 value=112 time=0
EXTRACT: control_change channel=6 control=11 value=113 time=0.0140845
EXTRACT: control_change channel=6 control=11 value=114 time=0.028169
EXTRACT: control_change channel=6 control=11 value=115 time=0.0140845
EXTRACT: control_change channel=6 control=11 value=116 time=0.0140845
EXTRACT: control_change channel=6 control=11 value=117 time=0.02112675
EXTRACT: control_change channel=6 control=11 value=118 time=0.02112675
EXTRACT: control_change channel=6 control=11 value=119 time=0.02112675
EXTRACT: control_change channel=6 control=11 value=120 time=0.0140845
EXTRACT: control_change channel=6 control=11 value=121 time=0.028169
EXTRACT: control_change channel=6 control=11 value=122 time=0.0140845
EXTRACT: control_change channel=6 control=11 value=123 time=0.02112675
EXTRACT: control_change channel=6 control=11 value=124 time=0.02112675
EXTRACT: control_change channel=6 control=11 value=125 time=0.02112675
EXTRACT: control_change channel=6 control=11 value=126 time=0.0140845
EXTRACT: control_change channel=6 control=11 value=127 time=0.0140845
EXTRACT: control_change channel=6 control=11 value=126 time=0.028169
EXTRACT: control_change channel=6 control=11 value=125 time=0.0140845
EXTRACT: control_change channel=6 control=11 value=124 time=0.02112675
EXTRACT: control_change channel=6 control=11 value=123 time=0.0140845
EXTRACT: control_change channel=6 control=11 value=122 time=0.02112675
EXTRACT: control_change channel=6 control=11 value=121 time=0.0140845
EXTRACT: control_change channel=6 control=11 value=120 time=0.0140845
EXTRACT: note_on channel=3 note=73 velocity=0 time=0.0140845
EXTRACT: note_on channel=3 note=71 velocity=112 time=0
EXTRACT: control_change channel=6 control=11 value=119 time=0.00704225
EXTRACT: control_change channel=6 control=11 value=118 time=0.0140845
EXTRACT: control_change channel=6 control=11 value=117 time=0.028169
EXTRACT: control_change channel=6 control=11 value=116 time=0.0140845
EXTRACT: control_change channel=6 control=11 value=115 time=0.02112675
EXTRACT: control_change channel=6 control=11 value=114 time=0.0140845
EXTRACT: control_change channel=6 control=11 value=113 time=0.0140845
EXTRACT: control_change channel=6 control=11 value=112 time=0.02112675
EXTRACT: control_change channel=6 control=11 value=111 time=0.0140845
EXTRACT: control_change channel=6 control=11 value=110 time=0.02112675
EXTRACT: control_change channel=6 control=11 value=109 time=0.0140845
EXTRACT: control_change channel=6 control=11 value=108 time=0.028169
EXTRACT: control_change channel=6 control=11 value=107 time=0.0140845
EXTRACT: control_change channel=6 control=11 value=106 time=0.0140845
EXTRACT: control_change channel=6 control=11 value=105 time=0.02112675
EXTRACT: control_change channel=6 control=11 value=104 time=0.0140845
EXTRACT: control_change channel=6 control=11 value=103 time=0.02112675
EXTRACT: control_change channel=6 control=11 value=102 time=0.0140845
EXTRACT: control_change channel=6 control=11 value=101 time=0.0140845
EXTRACT: control_change channel=6 control=11 value=100 time=0.02112675
EXTRACT: control_change channel=6 control=11 value=99 time=0.02112675
EXTRACT: control_change channel=6 control=11 value=98 time=0.02112675
EXTRACT: control_change channel=6 control=11 value=97 time=0.0140845
EXTRACT: note_on channel=3 note=71 velocity=0 time=0.02112675
EXTRACT: note_on channel=3 note=73 velocity=112 time=0
EXTRACT: control_change channel=6 control=11 value=96 time=0
EXTRACT: control_change channel=6 control=11 value=95 time=0.0140845
EXTRACT: control_change channel=6 control=11 value=94 time=0.0140845
EXTRACT: control_change channel=6 control=11 value=93 time=0.02112675
EXTRACT: control_change channel=6 control=11 value=92 time=0.0140845
EXTRACT: control_change channel=6 control=11 value=91 time=0.02112675
EXTRACT: control_change channel=6 control=11 value=90 time=0.02112675
EXTRACT: control_change channel=6 control=11 value=89 time=0.02112675
EXTRACT: control_change channel=6 control=11 value=88 time=0.0140845
EXTRACT: control_change channel=6 control=11 value=87 time=0.0140845
EXTRACT: note_on channel=4 note=52 velocity=0 time=0.02112675
EXTRACT: control_change channel=6 control=11 value=86 time=0
EXTRACT: note_on channel=1 note=56 velocity=0 time=0.0140845
EXTRACT: control_change channel=6 control=11 value=85 time=0
EXTRACT: note_on channel=3 note=73 velocity=0 time=0.0140845
EXTRACT: note_on channel=4 note=59 velocity=0 time=0
EXTRACT: note_on channel=4 note=64 velocity=0 time=0
EXTRACT: note_on channel=1 note=61 velocity=0 time=0.00704225
EXTRACT: note_on channel=3 note=76 velocity=112 time=0
EXTRACT: control_change channel=6 control=11 value=84 time=0
EXTRACT: control_change channel=6 control=11 value=83 time=0.0140845
EXTRACT: note_on channel=4 note=52 velocity=73 time=0.0140845
EXTRACT: control_change channel=6 control=11 value=82 time=0
EXTRACT: note_on channel=1 note=68 velocity=0 time=0.028169
EXTRACT: control_change channel=6 control=11 value=81 time=0
EXTRACT: control_change channel=6 control=11 value=80 time=0.0140845
EXTRACT: control_change channel=6 control=11 value=79 time=0.02112675
EXTRACT: control_change channel=6 control=11 value=78 time=0.0140845
EXTRACT: note_on channel=4 note=57 velocity=73 time=0.02112675
EXTRACT: control_change channel=6 control=11 value=77 time=0
EXTRACT: control_change channel=6 control=11 value=76 time=0.0140845
EXTRACT: control_change channel=6 control=11 value=75 time=0.0140845
EXTRACT: note_on channel=1 note=61 velocity=73 time=0.00704225
EXTRACT: control_change channel=6 control=11 value=74 time=0.0140845
EXTRACT: note_on channel=1 note=52 velocity=73 time=0.00704225
EXTRACT: control_change channel=6 control=11 value=73 time=0.00704225
EXTRACT: note_on channel=1 note=56 velocity=73 time=0.0140845
EXTRACT: note_on channel=3 note=76 velocity=0 time=0
EXTRACT: note_on channel=1 note=44 velocity=0 time=0.00704225
EXTRACT: note_on channel=1 note=37 velocity=66 time=0
EXTRACT: note_on channel=1 note=68 velocity=73 time=0
EXTRACT: note_on channel=3 note=76 velocity=112 time=0
EXTRACT: note_on channel=7 note=44 velocity=0 time=0
EXTRACT: note_on channel=7 note=37 velocity=66 time=0
EXTRACT: control_change channel=6 control=11 value=72 time=0.00704225
EXTRACT: note_on channel=4 note=61 velocity=73 time=0.0140845
EXTRACT: control_change channel=6 control=11 value=71 time=0
EXTRACT: control_change channel=6 control=11 value=70 time=0.02112675
EXTRACT: control_change channel=6 control=11 value=69 time=0.0140845
EXTRACT: note_on channel=4 note=64 velocity=73 time=0.0140845
EXTRACT: control_change channel=6 control=11 value=68 time=0
EXTRACT: control_change channel=6 control=11 value=67 time=0.02112675
EXTRACT: control_change channel=6 control=11 value=66 time=0.0140845
EXTRACT: control_change channel=6 control=11 value=65 time=0.02112675
EXTRACT: control_change channel=6 control=11 value=64 time=0.0140845
EXTRACT: control_change channel=6 control=11 value=63 time=0.028169
EXTRACT: control_change channel=6 control=11 value=62 time=0.0140845
EXTRACT: control_change channel=6 control=11 value=61 time=0.0140845
EXTRACT: control_change channel=6 control=11 value=60 time=0.02112675
EXTRACT: control_change channel=6 control=11 value=59 time=0.0140845
EXTRACT: control_change channel=6 control=11 value=58 time=0.02112675
EXTRACT: control_change channel=6 control=11 value=57 time=0.0140845
EXTRACT: control_change channel=6 control=11 value=56 time=0.0140845
EXTRACT: control_change channel=6 control=11 value=55 time=0.02112675
EXTRACT: control_change channel=6 control=11 value=54 time=0.02112675
EXTRACT: control_change channel=6 control=11 value=53 time=0.02112675
EXTRACT: control_change channel=6 control=11 value=52 time=0.0140845
EXTRACT: control_change channel=6 control=11 value=51 time=0.02112675
EXTRACT: control_change channel=6 control=11 value=50 time=0.0140845
EXTRACT: control_change channel=6 control=11 value=49 time=0.0140845
EXTRACT: note_on channel=3 note=76 velocity=0 time=0.0140845
EXTRACT: note_on channel=3 note=64 velocity=112 time=0
EXTRACT: control_change channel=6 control=11 value=48 time=0.00704225
EXTRACT: control_change channel=6 control=11 value=47 time=0.0140845
EXTRACT: control_change channel=6 control=11 value=46 time=0.02112675
EXTRACT: control_change channel=6 control=11 value=45 time=0.02112675
EXTRACT: control_change channel=6 control=11 value=44 time=0.02112675
EXTRACT: control_change channel=6 control=11 value=43 time=0.0140845
EXTRACT: control_change channel=6 control=11 value=42 time=0.0140845
EXTRACT: control_change channel=6 control=11 value=41 time=0.02112675
EXTRACT: control_change channel=6 control=11 value=40 time=0.0140845
EXTRACT: control_change channel=6 control=11 value=39 time=0.02112675
EXTRACT: control_change channel=6 control=11 value=38 time=0.0140845
EXTRACT: control_change channel=6 control=11 value=37 time=0.0140845
EXTRACT: control_change channel=6 control=11 value=36 time=0.028169
EXTRACT: control_change channel=6 control=11 value=35 time=0.0140845
EXTRACT: control_change channel=6 control=11 value=34 time=0.02112675
EXTRACT: control_change channel=6 control=11 value=33 time=0.0140845
EXTRACT: control_change channel=6 control=11 value=32 time=0.02112675
EXTRACT: control_change channel=6 control=11 value=31 time=0.0140845
EXTRACT: control_change channel=6 control=11 value=30 time=0.0140845
EXTRACT: control_change channel=6 control=11 value=29 time=0.02112675
EXTRACT: control_change channel=6 control=11 value=28 time=0.0140845
EXTRACT: control_change channel=6 control=11 value=27 time=0.028169
EXTRACT: control_change channel=6 control=11 value=26 time=0.0140845
EXTRACT: note_on channel=3 note=64 velocity=0 time=0.02112675
EXTRACT: note_on channel=3 note=76 velocity=112 time=0
EXTRACT: control_change channel=6 control=11 value=25 time=0
EXTRACT: control_change channel=6 control=11 value=24 time=0.0140845
EXTRACT: control_change channel=6 control=11 value=23 time=0.0140845
EXTRACT: control_change channel=6 control=11 value=22 time=0.02112675
EXTRACT: control_change channel=6 control=11 value=21 time=0.0140845
EXTRACT: control_change channel=6 control=11 value=20 time=0.02112675
EXTRACT: control_change channel=6 control=11 value=19 time=0.0140845
EXTRACT: control_change channel=6 control=11 value=18 time=0.028169
EXTRACT: control_change channel=6 control=11 value=17 time=0.0140845
EXTRACT: control_change channel=6 control=11 value=16 time=0.0140845
EXTRACT: control_change channel=6 control=11 value=15 time=0.02112675
EXTRACT: control_change channel=6 control=11 value=14 time=0.0140845
EXTRACT: note_on channel=6 note=64 velocity=0 time=0.0140845
EXTRACT: control_change channel=6 control=11 value=13 time=0.00704225
EXTRACT: control_change channel=6 control=11 value=12 time=0.0140845
EXTRACT: control_change channel=6 control=11 value=11 time=0.0140845
EXTRACT: control_change channel=6 control=11 value=10 time=0.02112675
EXTRACT: control_change channel=6 control=11 value=9 time=0.02112675
EXTRACT: control_change channel=6 control=11 value=8 time=0.02112675
EXTRACT: control_change channel=6 control=11 value=7 time=0.0140845
EXTRACT: control_change channel=6 control=11 value=6 time=0.02112675
EXTRACT: control_change channel=6 control=11 value=5 time=0.0140845
EXTRACT: control_change channel=6 control=11 value=4 time=0.0140845
EXTRACT: control_change channel=6 control=11 value=3 time=0.02112675
EXTRACT: control_change channel=6 control=11 value=2 time=0.0140845
EXTRACT: note_on channel=3 note=76 velocity=0 time=0.02112675
EXTRACT: note_on channel=3 note=64 velocity=112 time=0
EXTRACT: control_change channel=6 control=11 value=1 time=0
EXTRACT: control_change channel=6 control=11 value=0 time=0.0140845
EXTRACT: note_on channel=1 note=61 velocity=0 time=0.19014075
EXTRACT: note_on channel=1 note=52 velocity=0 time=0.02112675
EXTRACT: note_on channel=1 note=56 velocity=0 time=0.02112675
EXTRACT: note_on channel=1 note=68 velocity=0 time=0.00704225
EXTRACT: note_on channel=4 note=64 velocity=0 time=0.0140845
EXTRACT: note_on channel=4 note=57 velocity=0 time=0.02112675
EXTRACT: note_on channel=4 note=52 velocity=0 time=0.028169
EXTRACT: note_on channel=1 note=64 velocity=73 time=0.056338
EXTRACT: note_on channel=1 note=57 velocity=73 time=0.00704225
EXTRACT: note_on channel=1 note=69 velocity=73 time=0.0140845
EXTRACT: note_on channel=4 note=59 velocity=73 time=0.00704225
EXTRACT: note_on channel=4 note=61 velocity=0 time=0.00704225
EXTRACT: note_on channel=1 note=37 velocity=0 time=0.0140845
EXTRACT: note_on channel=1 note=40 velocity=66 time=0
EXTRACT: note_on channel=3 note=64 velocity=0 time=0
EXTRACT: note_on channel=3 note=71 velocity=112 time=0
EXTRACT: note_on channel=4 note=64 velocity=73 time=0
EXTRACT: note_on channel=7 note=37 velocity=0 time=0
EXTRACT: note_on channel=7 note=40 velocity=66 time=0
EXTRACT: note_on channel=1 note=61 velocity=73 time=0.04929575
EXTRACT: note_on channel=3 note=71 velocity=0 time=0.37323925
EXTRACT: note_on channel=3 note=73 velocity=112 time=0
EXTRACT: note_on channel=3 note=73 velocity=0 time=0.422535
EXTRACT: note_on channel=3 note=71 velocity=112 time=0
EXTRACT: control_change channel=4 control=10 value=110 time=0.140845
EXTRACT: control_change channel=3 control=94 value=31 time=0.07746475
EXTRACT: control_change channel=3 control=11 value=106 time=0.084507
EXTRACT: control_change channel=4 control=72 value=104 time=0
EXTRACT: note_on channel=3 note=71 velocity=0 time=0.11971825
EXTRACT: note_on channel=3 note=73 velocity=112 time=0
EXTRACT: control_change channel=3 control=72 value=107 time=0.1267605
EXTRACT: note_on channel=4 note=59 velocity=0 time=0.04929575
EXTRACT: note_on channel=4 note=64 velocity=0 time=0.02112675
EXTRACT: note_on channel=1 note=64 velocity=0 time=0.00704225
EXTRACT: note_on channel=1 note=57 velocity=0 time=0.00704225
EXTRACT: note_on channel=3 note=73 velocity=0 time=0
EXTRACT: note_on channel=3 note=76 velocity=112 time=0
EXTRACT: note_on channel=4 note=52 velocity=73 time=0.00704225
EXTRACT: note_on channel=1 note=69 velocity=0 time=0.00704225
EXTRACT: note_on channel=1 note=61 velocity=0 time=0.07746475
EXTRACT: note_on channel=4 note=57 velocity=73 time=0.0140845
EXTRACT: note_on channel=1 note=69 velocity=73 time=0.07746475
EXTRACT: note_on channel=1 note=40 velocity=0 time=0.028169
EXTRACT: note_on channel=1 note=45 velocity=73 time=0
EXTRACT: note_on channel=1 note=64 velocity=73 time=0
EXTRACT: note_on channel=3 note=76 velocity=0 time=0
EXTRACT: note_on channel=3 note=76 velocity=112 time=0
EXTRACT: note_on channel=4 note=61 velocity=73 time=0
EXTRACT: note_on channel=7 note=40 velocity=0 time=0
EXTRACT: note_on channel=7 note=45 velocity=66 time=0
EXTRACT: note_on channel=1 note=61 velocity=73 time=0.02112675
EXTRACT: note_on channel=4 note=64 velocity=73 time=0.028169
EXTRACT: note_on channel=1 note=57 velocity=73 time=0.02112675
EXTRACT: note_on channel=3 note=76 velocity=0 time=0.3521125
EXTRACT: note_on channel=3 note=64 velocity=112 time=0
EXTRACT: note_on channel=3 note=64 velocity=0 time=0.422535
EXTRACT: note_on channel=3 note=76 velocity=112 time=0
EXTRACT: note_on channel=3 note=76 velocity=0 time=0.422535
EXTRACT: note_on channel=3 note=64 velocity=112 time=0
EXTRACT: note_on channel=1 note=69 velocity=0 time=0.225352
EXTRACT: note_on channel=1 note=45 velocity=0 time=0.028169
EXTRACT: note_on channel=1 note=64 velocity=0 time=0
EXTRACT: note_on channel=4 note=57 velocity=0 time=0.0140845
EXTRACT: note_on channel=1 note=61 velocity=0 time=0.00704225
EXTRACT: note_on channel=4 note=52 velocity=0 time=0.02112675
EXTRACT: note_on channel=1 note=57 velocity=0 time=0.028169
EXTRACT: note_on channel=1 note=56 velocity=73 time=0.03521125
EXTRACT: note_on channel=1 note=66 velocity=73 time=0.00704225
EXTRACT: note_on channel=4 note=52 velocity=73 time=0
EXTRACT: note_on channel=1 note=61 velocity=73 time=0.0140845
EXTRACT: note_on channel=4 note=61 velocity=0 time=0.00704225
EXTRACT: note_on channel=4 note=59 velocity=73 time=0
EXTRACT: note_on channel=1 note=42 velocity=73 time=0.03521125
EXTRACT: note_on channel=3 note=64 velocity=0 time=0
EXTRACT: note_on channel=3 note=71 velocity=112 time=0
EXTRACT: note_on channel=7 note=45 velocity=0 time=0
EXTRACT: note_on channel=7 note=42 velocity=66 time=0
EXTRACT: note_on channel=4 note=64 velocity=73 time=0.00704225
EXTRACT: note_on channel=1 note=69 velocity=73 time=0.00704225
EXTRACT: note_on channel=4 note=64 velocity=0 time=0
EXTRACT: note_on channel=3 note=71 velocity=0 time=0.4084505
EXTRACT: note_on channel=3 note=73 velocity=112 time=0
EXTRACT: note_on channel=3 note=73 velocity=0 time=0.422535
EXTRACT: note_on channel=3 note=71 velocity=112 time=0
EXTRACT: note_on channel=3 note=71 velocity=0 time=0.422535
EXTRACT: note_on channel=3 note=73 velocity=112 time=0
EXTRACT: note_on channel=4 note=52 velocity=0 time=0.17605625
EXTRACT: note_on channel=1 note=56 velocity=0 time=0.0140845
EXTRACT: note_on channel=1 note=66 velocity=0 time=0.00704225
EXTRACT: note_on channel=4 note=59 velocity=0 time=0.00704225
EXTRACT: note_on channel=4 note=64 velocity=0 time=0
EXTRACT: note_on channel=1 note=61 velocity=0 time=0.00704225
EXTRACT: note_on channel=3 note=73 velocity=0 time=0
EXTRACT: note_on channel=3 note=76 velocity=112 time=0
EXTRACT: note_on channel=4 note=52 velocity=73 time=0.028169
EXTRACT: note_on channel=1 note=42 velocity=0 time=0.0140845
EXTRACT: note_on channel=1 note=69 velocity=0 time=0.0140845
EXTRACT: note_on channel=4 note=57 velocity=73 time=0.0704225
EXTRACT: note_on channel=1 note=61 velocity=73 time=0.03521125
EXTRACT: note_on channel=1 note=52 velocity=73 time=0.02112675
EXTRACT: note_on channel=1 note=56 velocity=73 time=0.02112675
EXTRACT: note_on channel=1 note=37 velocity=73 time=0.00704225
EXTRACT: note_on channel=1 note=68 velocity=73 time=0
EXTRACT: note_on channel=3 note=76 velocity=0 time=0
EXTRACT: note_on channel=3 note=76 velocity=112 time=0
EXTRACT: note_on channel=7 note=42 velocity=0 time=0
EXTRACT: note_on channel=7 note=37 velocity=66 time=0
EXTRACT: note_on channel=4 note=61 velocity=73 time=0.02112675
EXTRACT: note_on channel=4 note=64 velocity=73 time=0.04929575
EXTRACT: note_on channel=3 note=76 velocity=0 time=0.3521125
EXTRACT: note_on channel=3 note=64 velocity=112 time=0
EXTRACT: note_on channel=3 note=64 velocity=0 time=0.422535
EXTRACT: note_on channel=3 note=76 velocity=112 time=0
EXTRACT: note_on channel=3 note=76 velocity=0 time=0.422535
EXTRACT: pitchwheel channel=3 pitch=384 time=0
EXTRACT: note_on channel=3 note=71 velocity=112 time=0
EXTRACT: pitchwheel channel=3 pitch=640 time=0.00704225
EXTRACT: pitchwheel channel=3 pitch=896 time=0.028169
EXTRACT: pitchwheel channel=3 pitch=1024 time=0.0140845
EXTRACT: pitchwheel channel=3 pitch=1280 time=0.02112675
EXTRACT: pitchwheel channel=3 pitch=1408 time=0.0140845
EXTRACT: pitchwheel channel=3 pitch=1664 time=0.02112675
EXTRACT: pitchwheel channel=3 pitch=1920 time=0.00704225
EXTRACT: pitchwheel channel=3 pitch=2688 time=0.04929575
EXTRACT: pitchwheel channel=3 pitch=2944 time=0.00704225
EXTRACT: pitchwheel channel=3 pitch=3712 time=0.02112675
EXTRACT: pitchwheel channel=3 pitch=4224 time=0.00704225
EXTRACT: note_on channel=1 note=61 velocity=0 time=0.00704225
EXTRACT: pitchwheel channel=3 pitch=4992 time=0
EXTRACT: pitchwheel channel=3 pitch=5120 time=0.00704225
EXTRACT: pitchwheel channel=3 pitch=5376 time=0.00704225
EXTRACT: note_on channel=1 note=52 velocity=0 time=0.00704225
EXTRACT: pitchwheel channel=3 pitch=5632 time=0.00704225
EXTRACT: note_on channel=1 note=56 velocity=0 time=0.0140845
EXTRACT: pitchwheel channel=3 pitch=5888 time=0
EXTRACT: note_on channel=1 note=37 velocity=0 time=0.00704225
EXTRACT: note_on channel=1 note=68 velocity=0 time=0
EXTRACT: pitchwheel channel=3 pitch=6144 time=0
EXTRACT: pitchwheel channel=3 pitch=6400 time=0.00704225
EXTRACT: note_on channel=4 note=64 velocity=0 time=0.00704225
EXTRACT: pitchwheel channel=3 pitch=6656 time=0.00704225
EXTRACT: pitchwheel channel=3 pitch=6912 time=0.0140845
EXTRACT: note_on channel=4 note=57 velocity=0 time=0
EXTRACT: pitchwheel channel=3 pitch=7168 time=0.00704225
EXTRACT: pitchwheel channel=3 pitch=7424 time=0.00704225
EXTRACT: pitchwheel channel=3 pitch=7552 time=0.0140845
EXTRACT: note_on channel=4 note=52 velocity=0 time=0
EXTRACT: pitchwheel channel=3 pitch=7680 time=0.00704225
EXTRACT: pitchwheel channel=3 pitch=7936 time=0.00704225
EXTRACT: pitchwheel channel=3 pitch=8191 time=0.00704225
EXTRACT: note_on channel=1 note=64 velocity=73 time=0.03521125
EXTRACT: note_on channel=1 note=52 velocity=73 time=0.00704225
EXTRACT: note_on channel=1 note=69 velocity=73 time=0.0140845
EXTRACT: note_on channel=4 note=52 velocity=73 time=0.00704225
EXTRACT: note_on channel=4 note=61 velocity=0 time=0.00704225
EXTRACT: note_on channel=1 note=40 velocity=73 time=0.0140845
EXTRACT: note_on channel=3 note=71 velocity=0 time=0
EXTRACT: note_on channel=3 note=71 velocity=112 time=0
EXTRACT: note_on channel=4 note=56 velocity=73 time=0
EXTRACT: note_on channel=4 note=59 velocity=73 time=0
EXTRACT: note_on channel=4 note=64 velocity=73 time=0
EXTRACT: note_on channel=7 note=37 velocity=0 time=0
EXTRACT: note_on channel=7 note=40 velocity=66 time=0
EXTRACT: pitchwheel channel=3 pitch=128 time=0.00704225
EXTRACT: pitchwheel channel=3 pitch=0 time=0.028169
EXTRACT: note_on channel=1 note=59 velocity=73 time=0.0140845
EXTRACT: note_on channel=10 note=31 velocity=12 time=0.16197175
EXTRACT: note_on channel=10 note=31 velocity=0 time=0.10563375
EXTRACT: note_on channel=3 note=71 velocity=0 time=0.10563375
EXTRACT: note_on channel=3 note=73 velocity=112 time=0
EXTRACT: note_on channel=10 note=31 velocity=30 time=0
EXTRACT: note_on channel=10 note=31 velocity=0 time=0.10563375
EXTRACT: note_on channel=10 note=29 velocity=48 time=0.10563375
EXTRACT: note_on channel=10 note=29 velocity=0 time=0.10563375
EXTRACT: note_on channel=3 note=73 velocity=0 time=0.10563375
EXTRACT: note_on channel=3 note=71 velocity=112 time=0
EXTRACT: note_on channel=9 note=31 velocity=127 time=0
EXTRACT: note_on channel=9 note=33 velocity=127 time=0
EXTRACT: note_on channel=9 note=46 velocity=80 time=0
EXTRACT: note_on channel=10 note=31 velocity=73 time=0
EXTRACT: note_on channel=9 note=46 velocity=0 time=0.10563375
EXTRACT: note_on channel=9 note=33 velocity=0 time=0
EXTRACT: note_on channel=9 note=31 velocity=0 time=0
EXTRACT: note_on channel=10 note=31 velocity=0 time=0
EXTRACT: note_on channel=9 note=33 velocity=116 time=0.10563375
EXTRACT: note_on channel=9 note=31 velocity=116 time=0
EXTRACT: note_on channel=9 note=43 velocity=116 time=0
EXTRACT: note_on channel=9 note=43 velocity=0 time=0.10563375
EXTRACT: note_on channel=9 note=31 velocity=0 time=0
EXTRACT: note_on channel=9 note=33 velocity=0 time=0
EXTRACT: note_on channel=11 note=57 velocity=120 time=0.084507
EXTRACT: note_on channel=3 note=71 velocity=0 time=0.02112675
EXTRACT: note_on channel=3 note=73 velocity=112 time=0
EXTRACT: note_on channel=9 note=41 velocity=117 time=0
EXTRACT: note_on channel=9 note=41 velocity=0 time=0.10563375
EXTRACT: note_on channel=4 note=52 velocity=0 time=0.0704225
EXTRACT: note_on channel=4 note=56 velocity=0 time=0.02112675
EXTRACT: note_on channel=4 note=59 velocity=0 time=0
EXTRACT: note_on channel=4 note=64 velocity=0 time=0
EXTRACT: note_on channel=1 note=64 velocity=0 time=0.00704225
EXTRACT: note_on channel=1 note=52 velocity=0 time=0.00704225
EXTRACT: note_on channel=11 note=57 velocity=115 time=0
EXTRACT: note_on channel=1 note=69 velocity=0 time=0.0140845
EXTRACT: note_on channel=11 note=57 velocity=0 time=0.00704225
EXTRACT: note_on channel=1 note=40 velocity=0 time=0.02112675
EXTRACT: note_on channel=1 note=59 velocity=0 time=0.04929575
EXTRACT: note_on channel=0 note=57 velocity=84 time=0.11971825
EXTRACT: note_on channel=0 note=61 velocity=84 time=0
EXTRACT: note_on channel=0 note=64 velocity=84 time=0
EXTRACT: note_on channel=0 note=69 velocity=84 time=0
EXTRACT: note_on channel=2 note=52 velocity=73 time=0
EXTRACT: note_on channel=2 note=45 velocity=73 time=0
EXTRACT: note_on channel=3 note=73 velocity=0 time=0
EXTRACT: note_on channel=3 note=76 velocity=112 time=0
EXTRACT: note_on channel=4 note=61 velocity=73 time=0
EXTRACT: note_on channel=7 note=40 velocity=0 time=0
EXTRACT: note_on channel=8 note=33 velocity=123 time=0
EXTRACT: note_on channel=9 note=33 velocity=127 time=0
EXTRACT: note_on channel=9 note=46 velocity=100 time=0
EXTRACT: note_on channel=9 note=57 velocity=100 time=0
EXTRACT: note_on channel=1 note=61 velocity=73 time=0.02112675
EXTRACT: note_on channel=4 note=64 velocity=73 time=0.028169
EXTRACT: note_on channel=1 note=57 velocity=73 time=0.02112675
EXTRACT: note_on channel=9 note=57 velocity=0 time=0.03521125
EXTRACT: note_on channel=9 note=46 velocity=0 time=0
EXTRACT: note_on channel=9 note=33 velocity=0 time=0
EXTRACT: note_on channel=11 note=57 velocity=0 time=0.10563375
EXTRACT: note_on channel=11 note=61 velocity=118 time=0
EXTRACT: control_change channel=11 control=11 value=124 time=0.0140845
EXTRACT: pitchwheel channel=11 pitch=-8064 time=0
EXTRACT: pitchwheel channel=11 pitch=-7808 time=0.0140845
EXTRACT: pitchwheel channel=11 pitch=-7552 time=0.00704225
EXTRACT: pitchwheel channel=11 pitch=-7424 time=0.00704225
EXTRACT: pitchwheel channel=11 pitch=-7168 time=0.00704225
EXTRACT: control_change channel=11 control=11 value=123 time=0.00704225
EXTRACT: pitchwheel channel=11 pitch=-6912 time=0
EXTRACT: pitchwheel channel=11 pitch=-6784 time=0.0140845
EXTRACT: pitchwheel channel=11 pitch=-6528 time=0.00704225
EXTRACT: control_change channel=11 control=11 value=122 time=0.00704225
EXTRACT: pitchwheel channel=11 pitch=-6400 time=0
EXTRACT: pitchwheel channel=11 pitch=-6144 time=0.00704225
EXTRACT: pitchwheel channel=11 pitch=-5888 time=0.00704225
EXTRACT: control_change channel=11 control=11 value=121 time=0.0140845
EXTRACT: pitchwheel channel=11 pitch=-5760 time=0
EXTRACT: pitchwheel channel=11 pitch=-5504 time=0.00704225
EXTRACT: control_change channel=11 control=11 value=120 time=0.00704225
EXTRACT: pitchwheel channel=11 pitch=-5376 time=0
EXTRACT: pitchwheel channel=11 pitch=-5120 time=0.00704225
EXTRACT: pitchwheel channel=11 pitch=-4864 time=0.00704225
EXTRACT: pitchwheel channel=11 pitch=-4736 time=0.0140845
EXTRACT: pitchwheel channel=11 pitch=-4480 time=0.00704225
EXTRACT: pitchwheel channel=11 pitch=-4224 time=0.00704225
EXTRACT: pitchwheel channel=11 pitch=-4096 time=0.00704225
EXTRACT: pitchwheel channel=11 pitch=-3840 time=0.00704225
EXTRACT: control_change channel=11 control=11 value=119 time=0.0140845
EXTRACT: pitchwheel channel=11 pitch=-3712 time=0
EXTRACT: pitchwheel channel=11 pitch=-3456 time=0.00704225
EXTRACT: note_on channel=3 note=76 velocity=0 time=0.00704225
EXTRACT: note_on channel=3 note=64 velocity=112 time=0
EXTRACT: note_on channel=9 note=51 velocity=127 time=0
EXTRACT: note_on channel=9 note=46 velocity=100 time=0
EXTRACT: control_change channel=11 control=11 value=118 time=0
EXTRACT: pitchwheel channel=11 pitch=-3200 time=0
EXTRACT: pitchwheel channel=11 pitch=-3072 time=0.00704225
EXTRACT: pitchwheel channel=11 pitch=-2816 time=0.00704225
EXTRACT: pitchwheel channel=11 pitch=-2688 time=0.0140845
EXTRACT: pitchwheel channel=11 pitch=-2432 time=0.00704225
EXTRACT: pitchwheel channel=11 pitch=-2176 time=0.00704225
EXTRACT: pitchwheel channel=11 pitch=-2048 time=0.00704225
EXTRACT: pitchwheel channel=11 pitch=-1792 time=0.00704225
EXTRACT: control_change channel=11 control=11 value=117 time=0.0140845
EXTRACT: pitchwheel channel=11 pitch=-1536 time=0
EXTRACT: pitchwheel channel=11 pitch=-1408 time=0.00704225
EXTRACT: pitchwheel channel=11 pitch=-1152 time=0.00704225
EXTRACT: pitchwheel channel=11 pitch=-1024 time=0.00704225
EXTRACT: pitchwheel channel=11 pitch=-768 time=0.00704225
EXTRACT: note_on channel=9 note=46 velocity=0 time=0.00704225
EXTRACT: note_on channel=9 note=51 velocity=0 time=0
EXTRACT: pitchwheel channel=11 pitch=-512 time=0.00704225
EXTRACT: control_change channel=11 control=11 value=116 time=0.00704225
EXTRACT: pitchwheel channel=11 pitch=-384 time=0
EXTRACT: control_change channel=11 control=11 value=115 time=0.00704225
EXTRACT: pitchwheel channel=11 pitch=-128 time=0
EXTRACT: pitchwheel channel=11 pitch=0 time=0.00704225
EXTRACT: control_change channel=11 control=11 value=114 time=0.0422535
EXTRACT: control_change channel=11 control=11 value=113 time=0.028169
EXTRACT: control_change channel=11 control=11 value=112 time=0.02112675
EXTRACT: control_change channel=11 control=11 value=111 time=0.0422535
EXTRACT: control_change channel=11 control=11 value=110 time=0.0140845
EXTRACT: control_change channel=11 control=11 value=109 time=0.06338025
EXTRACT: control_change channel=11 control=11 value=108 time=0.04929575
EXTRACT: note_on channel=0 note=69 velocity=0 time=0.028169
EXTRACT: note_on channel=0 note=57 velocity=0 time=0
EXTRACT: note_on channel=0 note=61 velocity=0 time=0
EXTRACT: note_on channel=0 note=64 velocity=0 time=0
EXTRACT: note_on channel=0 note=57 velocity=87 time=0
EXTRACT: note_on channel=0 note=61 velocity=87 time=0
EXTRACT: note_on channel=0 note=64 velocity=87 time=0
EXTRACT: note_on channel=0 note=69 velocity=87 time=0
EXTRACT: note_on channel=3 note=64 velocity=0 time=0
EXTRACT: note_on channel=3 note=76 velocity=112 time=0
EXTRACT: note_on channel=8 note=33 velocity=0 time=0
EXTRACT: note_on channel=8 note=33 velocity=123 time=0
EXTRACT: note_on channel=9 note=31 velocity=127 time=0
EXTRACT: note_on channel=9 note=33 velocity=127 time=0
EXTRACT: note_on channel=9 note=46 velocity=100 time=0
EXTRACT: note_on channel=10 note=31 velocity=73 time=0
EXTRACT: control_change channel=11 control=11 value=107 time=0.0422535
EXTRACT: control_change channel=11 control=11 value=106 time=0.0140845
EXTRACT: control_change channel=11 control=11 value=105 time=0.03521125
EXTRACT: note_on channel=9 note=46 velocity=0 time=0.0140845
EXTRACT: note_on channel=9 note=33 velocity=0 time=0
EXTRACT: note_on channel=9 note=31 velocity=0 time=0
EXTRACT: note_on channel=10 note=31 velocity=0 time=0
EXTRACT: control_change channel=11 control=11 value=104 time=0.0140845
EXTRACT: pitchwheel channel=11 pitch=0 time=0
EXTRACT: pitchwheel channel=11 pitch=-128 time=0.00704225
EXTRACT: pitchwheel channel=11 pitch=-256 time=0.00704225
EXTRACT: control_change channel=11 control=11 value=103 time=0.00704225
EXTRACT: pitchwheel channel=11 pitch=-512 time=0
EXTRACT: control_change channel=11 control=11 value=102 time=0.0140845
EXTRACT: pitchwheel channel=11 pitch=-640 time=0
EXTRACT: pitchwheel channel=11 pitch=-768 time=0.00704225
EXTRACT: pitchwheel channel=11 pitch=-1024 time=0.00704225
EXTRACT: control_change channel=11 control=11 value=101 time=0.00704225
EXTRACT: pitchwheel channel=11 pitch=-1152 time=0
EXTRACT: pitchwheel channel=11 pitch=-1280 time=0.00704225
EXTRACT: pitchwheel channel=11 pitch=-1536 time=0.0140845
EXTRACT: control_change channel=11 control=11 value=100 time=0.00704225
EXTRACT: pitchwheel channel=11 pitch=-1664 time=0
EXTRACT: pitchwheel channel=11 pitch=-1792 time=0.00704225
EXTRACT: pitchwheel channel=11 pitch=-2048 time=0.00704225
EXTRACT: control_change channel=11 control=11 value=99 time=0.00704225
EXTRACT: pitchwheel channel=11 pitch=-2176 time=0
EXTRACT: control_change channel=11 control=11 value=98 time=0.0140845
EXTRACT: pitchwheel channel=11 pitch=-2304 time=0
EXTRACT: pitchwheel channel=11 pitch=-2560 time=0.00704225
EXTRACT: pitchwheel channel=11 pitch=-2688 time=0.00704225
EXTRACT: control_change channel=11 control=11 value=97 time=0.00704225
EXTRACT: pitchwheel channel=11 pitch=-2816 time=0
EXTRACT: pitchwheel channel=11 pitch=-3072 time=0.00704225
EXTRACT: control_change channel=11 control=11 value=96 time=0.0140845
EXTRACT: pitchwheel channel=11 pitch=-3200 time=0
EXTRACT: pitchwheel channel=11 pitch=-3328 time=0.00704225
EXTRACT: pitchwheel channel=11 pitch=-3584 time=0.00704225
EXTRACT: pitchwheel channel=11 pitch=-3712 time=0.00704225
EXTRACT: control_change channel=11 control=11 value=95 time=0.00704225
EXTRACT: pitchwheel channel=11 pitch=-3840 time=0
EXTRACT: control_change channel=11 control=11 value=94 time=0.0140845
EXTRACT: pitchwheel channel=11 pitch=-4096 time=0
EXTRACT: pitchwheel channel=11 pitch=-4224 time=0.00704225
EXTRACT: control_change channel=11 control=11 value=93 time=0.00704225
EXTRACT: pitchwheel channel=11 pitch=-4352 time=0
EXTRACT: pitchwheel channel=11 pitch=-4608 time=0.00704225
EXTRACT: pitchwheel channel=11 pitch=-4736 time=0.00704225
EXTRACT: control_change channel=11 control=11 value=92 time=0.0140845
EXTRACT: pitchwheel channel=11 pitch=-4864 time=0
EXTRACT: pitchwheel channel=11 pitch=-5120 time=0.00704225
EXTRACT: pitchwheel channel=11 pitch=-5248 time=0.00704225
EXTRACT: control_change channel=11 control=11 value=91 time=0.00704225
EXTRACT: pitchwheel channel=11 pitch=-5376 time=0
EXTRACT: pitchwheel channel=11 pitch=-5632 time=0.00704225
EXTRACT: control_change channel=11 control=11 value=90 time=0.0140845
EXTRACT: pitchwheel channel=11 pitch=-5760 time=0
EXTRACT: pitchwheel channel=11 pitch=-5888 time=0.00704225
EXTRACT: note_on channel=3 note=76 velocity=0 time=0.00704225
EXTRACT: note_on channel=3 note=64 velocity=112 time=0
EXTRACT: note_on channel=9 note=46 velocity=100 time=0
EXTRACT: pitchwheel channel=11 pitch=-6144 time=0
EXTRACT: pitchwheel channel=11 pitch=-6272 time=0.00704225
EXTRACT: control_change channel=11 control=11 value=89 time=0.00704225
EXTRACT: pitchwheel channel=11 pitch=-6400 time=0
EXTRACT: pitchwheel channel=11 pitch=-6656 time=0.0140845
EXTRACT: pitchwheel channel=11 pitch=-6784 time=0.00704225
EXTRACT: pitchwheel channel=11 pitch=-6912 time=0.00704225
EXTRACT: control_change channel=11 control=11 value=88 time=0.00704225
EXTRACT: pitchwheel channel=11 pitch=-7168 time=0
EXTRACT: pitchwheel channel=11 pitch=-7296 time=0.00704225
EXTRACT: pitchwheel channel=11 pitch=-7424 time=0.0140845
EXTRACT: pitchwheel channel=11 pitch=-7680 time=0.00704225
EXTRACT: pitchwheel channel=11 pitch=-7808 time=0.00704225
EXTRACT: pitchwheel channel=11 pitch=-8064 time=0.00704225
EXTRACT: control_change channel=11 control=11 value=87 time=0.00704225
EXTRACT: note_on channel=9 note=46 velocity=0 time=0.00704225
EXTRACT: control_change channel=11 control=11 value=127 time=0.028169
EXTRACT: note_on channel=11 note=61 velocity=0 time=0.00704225
EXTRACT: control_change channel=11 control=11 value=126 time=0
EXTRACT: pitchwheel channel=11 pitch=-7680 time=0
EXTRACT: note_on channel=11 note=61 velocity=118 time=0
EXTRACT: pitchwheel channel=11 pitch=-7552 time=0.0140845
EXTRACT: pitchwheel channel=11 pitch=-7424 time=0.00704225
EXTRACT: pitchwheel channel=11 pitch=-7168 time=0.00704225
EXTRACT: pitchwheel channel=11 pitch=-7040 time=0.00704225
EXTRACT: pitchwheel channel=11 pitch=-6784 time=0.00704225
EXTRACT: pitchwheel channel=11 pitch=-6656 time=0.0140845
EXTRACT: pitchwheel channel=11 pitch=-6400 time=0.00704225
EXTRACT: note_on channel=8 note=33 velocity=0 time=0.00704225
EXTRACT: note_on channel=8 note=33 velocity=123 time=0
EXTRACT: note_on channel=9 note=33 velocity=127 time=0
EXTRACT: pitchwheel channel=11 pitch=-6272 time=0
EXTRACT: pitchwheel channel=11 pitch=-6144 time=0.00704225
EXTRACT: pitchwheel channel=11 pitch=-5888 time=0.00704225
EXTRACT: pitchwheel channel=11 pitch=-5760 time=0.0140845
EXTRACT: control_change channel=11 control=11 value=125 time=0.00704225
EXTRACT: pitchwheel channel=11 pitch=-5504 time=0
EXTRACT: pitchwheel channel=11 pitch=-5376 time=0.00704225
EXTRACT: pitchwheel channel=11 pitch=-5120 time=0.00704225
EXTRACT: pitchwheel channel=11 pitch=-4992 time=0.00704225
EXTRACT: note_on channel=1 note=61 velocity=0 time=0.00704225
EXTRACT: pitchwheel channel=11 pitch=-4864 time=0.00704225
EXTRACT: control_change channel=11 control=11 value=124 time=0.00704225
EXTRACT: pitchwheel channel=11 pitch=-4608 time=0
EXTRACT: pitchwheel channel=11 pitch=-4480 time=0.00704225
EXTRACT: pitchwheel channel=11 pitch=-4224 time=0.00704225
EXTRACT: pitchwheel channel=11 pitch=-4096 time=0.00704225
EXTRACT: note_on channel=9 note=33 velocity=0 time=0.00704225
EXTRACT: note_on channel=1 note=57 velocity=0 time=0.00704225
EXTRACT: control_change channel=11 control=11 value=123 time=0
EXTRACT: pitchwheel channel=11 pitch=-3840 time=0
EXTRACT: pitchwheel channel=11 pitch=-3712 time=0.00704225
EXTRACT: pitchwheel channel=11 pitch=-3584 time=0.00704225
EXTRACT: pitchwheel channel=11 pitch=-3328 time=0.00704225
EXTRACT: pitchwheel channel=11 pitch=-3200 time=0.00704225
EXTRACT: note_on channel=1 note=56 velocity=73 time=0.00704225
EXTRACT: note_on channel=4 note=52 velocity=73 time=0.00704225
EXTRACT: control_change channel=11 control=11 value=122 time=0
EXTRACT: pitchwheel channel=11 pitch=-2944 time=0
EXTRACT: pitchwheel channel=11 pitch=-2816 time=0.00704225
EXTRACT: note_on channel=1 note=61 velocity=73 time=0.00704225
EXTRACT: control_change channel=11 control=11 value=121 time=0
EXTRACT: pitchwheel channel=11 pitch=-2560 time=0
EXTRACT: note_on channel=4 note=61 velocity=0 time=0.00704225
EXTRACT: note_on channel=4 note=59 velocity=73 time=0
EXTRACT: pitchwheel channel=11 pitch=-2432 time=0
EXTRACT: pitchwheel channel=11 pitch=-2304 time=0.00704225
EXTRACT: pitchwheel channel=11 pitch=-2048 time=0.0140845
EXTRACT: control_change channel=11 control=11 value=120 time=0.00704225
EXTRACT: pitchwheel channel=11 pitch=-1920 time=0
EXTRACT: note_on channel=0 note=69 velocity=0 time=0.00704225
EXTRACT: note_on channel=0 note=57 velocity=0 time=0
EXTRACT: note_on channel=0 note=61 velocity=0 time=0
EXTRACT: note_on channel=0 note=64 velocity=0 time=0
EXTRACT: note_on channel=0 note=56 velocity=87 time=0
EXTRACT: note_on channel=0 note=61 velocity=87 time=0
EXTRACT: note_on channel=0 note=64 velocity=87 time=0
EXTRACT: note_on channel=0 note=68 velocity=87 time=0
EXTRACT: note_on channel=2 note=45 velocity=0 time=0
EXTRACT: note_on channel=2 note=52 velocity=0 time=0
EXTRACT: note_on channel=2 note=52 velocity=73 time=0
EXTRACT: note_on channel=2 note=44 velocity=73 time=0
EXTRACT: note_on channel=3 note=64 velocity=0 time=0
EXTRACT: note_on channel=3 note=71 velocity=112 time=0
EXTRACT: note_on channel=8 note=33 velocity=0 time=0
EXTRACT: note_on channel=8 note=32 velocity=123 time=0
EXTRACT: note_on channel=9 note=46 velocity=100 time=0
EXTRACT: pitchwheel channel=11 pitch=-1664 time=0
EXTRACT: note_on channel=4 note=64 velocity=73 time=0.00704225
EXTRACT: pitchwheel channel=11 pitch=-1536 time=0
EXTRACT: note_on channel=1 note=68 velocity=73 time=0.00704225
EXTRACT: note_on channel=4 note=64 velocity=0 time=0
EXTRACT: pitchwheel channel=11 pitch=-1280 time=0
EXTRACT: pitchwheel channel=11 pitch=-1152 time=0.0140845
EXTRACT: control_change channel=11 control=11 value=119 time=0.00704225
EXTRACT: pitchwheel channel=11 pitch=-1024 time=0
EXTRACT: pitchwheel channel=11 pitch=-768 time=0.00704225
EXTRACT: pitchwheel channel=11 pitch=-640 time=0.00704225
EXTRACT: pitchwheel channel=11 pitch=-384 time=0.00704225
EXTRACT: pitchwheel channel=11 pitch=-256 time=0.0140845
EXTRACT: pitchwheel channel=11 pitch=0 time=0.00704225
EXTRACT: control_change channel=11 control=11 value=118 time=0.00704225
EXTRACT: note_on channel=9 note=46 velocity=0 time=0.02112675
EXTRACT: control_change channel=11 control=11 value=117 time=0.04929575
EXTRACT: control_change channel=11 control=11 value=115 time=0.04929575
EXTRACT: note_on channel=9 note=33 velocity=127 time=0.00704225
EXTRACT: control_change channel=11 control=11 value=113 time=0.056338
EXTRACT: control_change channel=11 control=11 value=112 time=0.03521125
EXTRACT: note_on channel=9 note=33 velocity=0 time=0.0140845
EXTRACT: control_change channel=11 control=11 value=111 time=0.02112675
EXTRACT: control_change channel=11 control=11 value=110 time=0.0140845
EXTRACT: control_change channel=11 control=11 value=109 time=0.02112675
EXTRACT: control_change channel=11 control=11 value=108 time=0.02112675
EXTRACT: control_change channel=11 control=11 value=107 time=0.0140845
EXTRACT: note_on channel=3 note=71 velocity=0 time=0.0140845
EXTRACT: note_on channel=3 note=73 velocity=112 time=0
EXTRACT: note_on channel=9 note=33 velocity=127 time=0
EXTRACT: note_on channel=9 note=46 velocity=100 time=0
EXTRACT: control_change channel=11 control=11 value=105 time=0.0140845
EXTRACT: control_change channel=11 control=11 value=104 time=0.06338025
EXTRACT: control_change channel=11 control=11 value=103 time=0.00704225
EXTRACT: note_on channel=9 note=46 velocity=0 time=0.02112675
EXTRACT: note_on channel=9 note=33 velocity=0 time=0
EXTRACT: control_change channel=11 control=11 value=101 time=0.00704225
EXTRACT: control_change channel=11 control=11 value=100 time=0.028169
EXTRACT: control_change channel=11 control=11 value=99 time=0.028169
EXTRACT: control_change channel=11 control=11 value=98 time=0.0140845
EXTRACT: control_change channel=11 control=11 value=97 time=0.02112675
EXTRACT: control_change channel=11 control=11 value=96 time=0.0140845
EXTRACT: control_change channel=11 control=11 value=95 time=0.04929575
EXTRACT: control_change channel=11 control=11 value=93 time=0.03521125
EXTRACT: control_change channel=11 control=11 value=92 time=0.03521125
EXTRACT: control_change channel=11 control=11 value=91 time=0.00704225
EXTRACT: control_change channel=11 control=11 value=90 time=0.028169
EXTRACT: control_change channel=11 control=11 value=89 time=0.00704225
EXTRACT: pitchwheel channel=11 pitch=0 time=0
EXTRACT: pitchwheel channel=11 pitch=-128 time=0.00704225
EXTRACT: pitchwheel channel=11 pitch=-256 time=0.00704225
EXTRACT: control_change channel=11 control=11 value=88 time=0.0140845
EXTRACT: pitchwheel channel=11 pitch=-384 time=0
EXTRACT: pitchwheel channel=11 pitch=-640 time=0.00704225
EXTRACT: note_on channel=0 note=68 velocity=0 time=0.00704225
EXTRACT: note_on channel=0 note=56 velocity=0 time=0
EXTRACT: note_on channel=0 note=61 velocity=0 time=0
EXTRACT: note_on channel=0 note=64 velocity=0 time=0
EXTRACT: note_on channel=0 note=56 velocity=87 time=0
EXTRACT: note_on channel=0 note=61 velocity=87 time=0
EXTRACT: note_on channel=0 note=64 velocity=87 time=0
EXTRACT: note_on channel=0 note=68 velocity=87 time=0
EXTRACT: note_on channel=3 note=73 velocity=0 time=0
EXTRACT: note_on channel=3 note=71 velocity=112 time=0
EXTRACT: note_on channel=8 note=32 velocity=0 time=0
EXTRACT: note_on channel=8 note=32 velocity=123 time=0
EXTRACT: note_on channel=9 note=31 velocity=127 time=0
EXTRACT: note_on channel=9 note=33 velocity=127 time=0
EXTRACT: note_on channel=9 note=46 velocity=100 time=0
EXTRACT: note_on channel=10 note=31 velocity=73 time=0
EXTRACT: pitchwheel channel=11 pitch=-768 time=0
EXTRACT: pitchwheel channel=11 pitch=-896 time=0.00704225
EXTRACT: control_change channel=11 control=11 value=87 time=0.00704225
EXTRACT: pitchwheel channel=11 pitch=-1152 time=0
EXTRACT: pitchwheel channel=11 pitch=-1280 time=0.0140845
EXTRACT: pitchwheel channel=11 pitch=-1408 time=0.00704225
EXTRACT: control_change channel=11 control=11 value=86 time=0.00704225
EXTRACT: pitchwheel channel=11 pitch=-1536 time=0
EXTRACT: control_change channel=11 control=11 value=85 time=0.00704225
EXTRACT: pitchwheel channel=11 pitch=-1792 time=0
EXTRACT: pitchwheel channel=11 pitch=-1920 time=0.00704225
EXTRACT: pitchwheel channel=11 pitch=-2048 time=0.0140845
EXTRACT: control_change channel=11 control=11 value=84 time=0.00704225
EXTRACT: pitchwheel channel=11 pitch=-2304 time=0
EXTRACT: control_change channel=11 control=11 value=83 time=0.00704225
EXTRACT: pitchwheel channel=11 pitch=-2432 time=0
EXTRACT: pitchwheel channel=11 pitch=-2560 time=0.00704225
EXTRACT: pitchwheel channel=11 pitch=-2688 time=0.00704225
EXTRACT: note_on channel=9 note=46 velocity=0 time=0.00704225
EXTRACT: note_on channel=9 note=33 velocity=0 time=0
EXTRACT: note_on channel=9 note=31 velocity=0 time=0
EXTRACT: note_on channel=10 note=31 velocity=0 time=0
EXTRACT: control_change channel=11 control=11 value=82 time=0.00704225
EXTRACT: pitchwheel channel=11 pitch=-2944 time=0
EXTRACT: control_change channel=11 control=11 value=81 time=0.00704225
EXTRACT: pitchwheel channel=11 pitch=-3072 time=0
EXTRACT: pitchwheel channel=11 pitch=-3200 time=0.00704225
EXTRACT: pitchwheel channel=11 pitch=-3456 time=0.00704225
EXTRACT: control_change channel=11 control=11 value=80 time=0.00704225
EXTRACT: pitchwheel channel=11 pitch=-3584 time=0
EXTRACT: pitchwheel channel=11 pitch=-3712 time=0.0140845
EXTRACT: control_change channel=11 control=11 value=79 time=0.00704225
EXTRACT: pitchwheel channel=11 pitch=-3840 time=0
EXTRACT: pitchwheel channel=11 pitch=-4096 time=0.00704225
EXTRACT: pitchwheel channel=11 pitch=-4224 time=0.00704225
EXTRACT: pitchwheel channel=11 pitch=-4352 time=0.00704225
EXTRACT: pitchwheel channel=11 pitch=-4608 time=0.0140845
EXTRACT: pitchwheel channel=11 pitch=-4736 time=0.00704225
EXTRACT: control_change channel=11 control=11 value=78 time=0.00704225
EXTRACT: pitchwheel channel=11 pitch=-4864 time=0
EXTRACT: control_change channel=11 control=11 value=77 time=0.00704225
EXTRACT: pitchwheel channel=11 pitch=-4992 time=0
EXTRACT: pitchwheel channel=11 pitch=-5248 time=0.00704225
EXTRACT: pitchwheel channel=11 pitch=-5376 time=0.0140845
EXTRACT: pitchwheel channel=11 pitch=-5504 time=0.00704225
EXTRACT: pitchwheel channel=11 pitch=-5760 time=0.00704225
EXTRACT: pitchwheel channel=11 pitch=-5888 time=0.00704225
EXTRACT: control_change channel=11 control=11 value=76 time=0.00704225
EXTRACT: pitchwheel channel=11 pitch=-6016 time=0
EXTRACT: pitchwheel channel=11 pitch=-6144 time=0.0140845
EXTRACT: pitchwheel channel=11 pitch=-6400 time=0.00704225
EXTRACT: control_change channel=11 control=11 value=75 time=0.00704225
EXTRACT: pitchwheel channel=11 pitch=-6528 time=0
EXTRACT: pitchwheel channel=11 pitch=-6656 time=0.00704225
EXTRACT: control_change channel=11 control=11 value=74 time=0.00704225
EXTRACT: pitchwheel channel=11 pitch=-6912 time=0
EXTRACT: pitchwheel channel=11 pitch=-7040 time=0.0140845
EXTRACT: control_change channel=11 control=11 value=73 time=0.00704225
EXTRACT: pitchwheel channel=11 pitch=-7168 time=0
EXTRACT: pitchwheel channel=11 pitch=-7296 time=0.00704225
EXTRACT: pitchwheel channel=11 pitch=-7552 time=0.00704225
EXTRACT: pitchwheel channel=11 pitch=-7680 time=0.00704225
EXTRACT: pitchwheel channel=11 pitch=-7808 time=0.0140845
EXTRACT: pitchwheel channel=11 pitch=-8064 time=0.00704225
EXTRACT: note_on channel=3 note=71 velocity=0 time=0.04929575
EXTRACT: note_on channel=3 note=73 velocity=112 time=0
EXTRACT: note_on channel=8 note=32 velocity=0 time=0
EXTRACT: note_on channel=8 note=32 velocity=123 time=0
EXTRACT: note_on channel=9 note=51 velocity=127 time=0
EXTRACT: note_on channel=9 note=46 velocity=100 time=0
EXTRACT: note_on channel=11 note=61 velocity=0 time=0
EXTRACT: control_change channel=11 control=11 value=124 time=0
EXTRACT: note_on channel=11 note=61 velocity=118 time=0
EXTRACT: pitchwheel channel=11 pitch=-8064 time=0.0140845
EXTRACT: pitchwheel channel=11 pitch=-7808 time=0.0140845
EXTRACT: pitchwheel channel=11 pitch=-7680 time=0.00704225
EXTRACT: pitchwheel channel=11 pitch=-7424 time=0.00704225
EXTRACT: pitchwheel channel=11 pitch=-7296 time=0.00704225
EXTRACT: pitchwheel channel=11 pitch=-7168 time=0.00704225
EXTRACT: pitchwheel channel=11 pitch=-6912 time=0.0140845
EXTRACT: pitchwheel channel=11 pitch=-6784 time=0.00704225
EXTRACT: pitchwheel channel=11 pitch=-6656 time=0.00704225
EXTRACT: pitchwheel channel=11 pitch=-6400 time=0.00704225
EXTRACT: pitchwheel channel=11 pitch=-6272 time=0.00704225
EXTRACT: note_on channel=9 note=46 velocity=0 time=0.00704225
EXTRACT: note_on channel=9 note=51 velocity=0 time=0
EXTRACT: pitchwheel channel=11 pitch=-6144 time=0.00704225
EXTRACT: pitchwheel channel=11 pitch=-5888 time=0.00704225
EXTRACT: pitchwheel channel=11 pitch=-5760 time=0.00704225
EXTRACT: control_change channel=11 control=11 value=123 time=0.00704225
EXTRACT: pitchwheel channel=11 pitch=-5632 time=0
EXTRACT: pitchwheel channel=11 pitch=-5376 time=0.00704225
EXTRACT: control_change channel=11 control=11 value=122 time=0.0140845
EXTRACT: pitchwheel channel=11 pitch=-5248 time=0
EXTRACT: control_change channel=11 control=11 value=121 time=0.00704225
EXTRACT: pitchwheel channel=11 pitch=-5120 time=0
EXTRACT: pitchwheel channel=11 pitch=-4864 time=0.00704225
EXTRACT: note_on channel=4 note=52 velocity=0 time=0.00704225
EXTRACT: pitchwheel channel=11 pitch=-4736 time=0
EXTRACT: pitchwheel channel=11 pitch=-4608 time=0.00704225
EXTRACT: note_on channel=1 note=56 velocity=0 time=0.00704225
EXTRACT: control_change channel=11 control=11 value=120 time=0.00704225
EXTRACT: pitchwheel channel=11 pitch=-4352 time=0
EXTRACT: note_on channel=4 note=59 velocity=0 time=0.00704225
EXTRACT: note_on channel=4 note=64 velocity=0 time=0
EXTRACT: pitchwheel channel=11 pitch=-4224 time=0
EXTRACT: note_on channel=1 note=61 velocity=0 time=0.00704225
EXTRACT: note_on channel=3 note=73 velocity=0 time=0
EXTRACT: note_on channel=3 note=76 velocity=112 time=0
EXTRACT: pitchwheel channel=11 pitch=-4096 time=0
EXTRACT: control_change channel=11 control=11 value=119 time=0.00704225
EXTRACT: pitchwheel channel=11 pitch=-3840 time=0
EXTRACT: pitchwheel channel=11 pitch=-3712 time=0.00704225
EXTRACT: note_on channel=4 note=52 velocity=73 time=0.0140845
EXTRACT: pitchwheel channel=11 pitch=-3584 time=0
EXTRACT: control_change channel=11 control=11 value=118 time=0.00704225
EXTRACT: pitchwheel channel=11 pitch=-3328 time=0
EXTRACT: control_change channel=11 control=11 value=117 time=0.00704225
EXTRACT: pitchwheel channel=11 pitch=-3200 time=0
EXTRACT: pitchwheel channel=11 pitch=-3072 time=0.00704225
EXTRACT: note_on channel=1 note=68 velocity=0 time=0.00704225
EXTRACT: pitchwheel channel=11 pitch=-2816 time=0
EXTRACT: control_change channel=11 control=11 value=116 time=0.0140845
EXTRACT: pitchwheel channel=11 pitch=-2688 time=0
EXTRACT: control_change channel=11 control=11 value=115 time=0.00704225
EXTRACT: pitchwheel channel=11 pitch=-2560 time=0
EXTRACT: pitchwheel channel=11 pitch=-2304 time=0.00704225
EXTRACT: control_change channel=11 control=11 value=114 time=0.00704225
EXTRACT: pitchwheel channel=11 pitch=-2176 time=0
EXTRACT: control_change channel=11 control=11 value=113 time=0.00704225
EXTRACT: pitchwheel channel=11 pitch=-2048 time=0
EXTRACT: pitchwheel channel=11 pitch=-1792 time=0.0140845
EXTRACT: control_change channel=11 control=11 value=112 time=0.00704225
EXTRACT: pitchwheel channel=11 pitch=-1664 time=0
EXTRACT: note_on channel=4 note=56 velocity=73 time=0.00704225
EXTRACT: pitchwheel channel=11 pitch=-1536 time=0
EXTRACT: control_change channel=11 control=11 value=111 time=0.00704225
EXTRACT: pitchwheel channel=11 pitch=-1280 time=0
EXTRACT: control_change channel=11 control=11 value=110 time=0.00704225
EXTRACT: pitchwheel channel=11 pitch=-1152 time=0
EXTRACT: pitchwheel channel=11 pitch=-1024 time=0.0140845
EXTRACT: note_on channel=1 note=61 velocity=73 time=0.00704225
EXTRACT: control_change channel=11 control=11 value=109 time=0
EXTRACT: pitchwheel channel=11 pitch=-768 time=0
EXTRACT: pitchwheel channel=11 pitch=-640 time=0.00704225
EXTRACT: pitchwheel channel=11 pitch=-512 time=0.00704225
EXTRACT: note_on channel=1 note=52 velocity=73 time=0.00704225
EXTRACT: control_change channel=11 control=11 value=108 time=0
EXTRACT: pitchwheel channel=11 pitch=-256 time=0
EXTRACT: pitchwheel channel=11 pitch=-128 time=0.0140845
EXTRACT: note_on channel=1 note=56 velocity=73 time=0.00704225
EXTRACT: pitchwheel channel=11 pitch=0 time=0
EXTRACT: note_on channel=0 note=68 velocity=0 time=0.00704225
EXTRACT: note_on channel=0 note=56 velocity=0 time=0
EXTRACT: note_on channel=0 note=61 velocity=0 time=0
EXTRACT: note_on channel=0 note=64 velocity=0 time=0
EXTRACT: note_on channel=0 note=56 velocity=87 time=0
EXTRACT: note_on channel=0 note=61 velocity=87 time=0
EXTRACT: note_on channel=0 note=64 velocity=87 time=0
EXTRACT: note_on channel=0 note=68 velocity=87 time=0
EXTRACT: note_on channel=1 note=68 velocity=73 time=0
EXTRACT: note_on channel=2 note=44 velocity=0 time=0
EXTRACT: note_on channel=2 note=52 velocity=0 time=0
EXTRACT: note_on channel=2 note=61 velocity=73 time=0
EXTRACT: note_on channel=2 note=52 velocity=73 time=0
EXTRACT: note_on channel=3 note=76 velocity=0 time=0
EXTRACT: note_on channel=3 note=76 velocity=112 time=0
EXTRACT: note_on channel=8 note=32 velocity=0 time=0
EXTRACT: note_on channel=8 note=37 velocity=123 time=0
EXTRACT: note_on channel=9 note=33 velocity=127 time=0
EXTRACT: note_on channel=9 note=46 velocity=100 time=0
EXTRACT: note_on channel=9 note=33 velocity=127 time=0
EXTRACT: note_on channel=9 note=46 velocity=100 time=0
EXTRACT: control_change channel=11 control=11 value=107 time=0.00704225
EXTRACT: note_on channel=4 note=61 velocity=73 time=0.0140845
EXTRACT: control_change channel=11 control=11 value=106 time=0.028169
EXTRACT: note_on channel=4 note=64 velocity=73 time=0.02112675
EXTRACT: control_change channel=11 control=11 value=105 time=0
EXTRACT: control_change channel=11 control=11 value=103 time=0.028169
EXTRACT: note_on channel=9 note=46 velocity=0 time=0.00704225
EXTRACT: note_on channel=9 note=33 velocity=0 time=0
EXTRACT: note_on channel=9 note=46 velocity=0 time=0
EXTRACT: note_on channel=9 note=33 velocity=0 time=0
EXTRACT: control_change channel=11 control=11 value=102 time=0.00704225
EXTRACT: control_change channel=11 control=11 value=100 time=0.02112675
EXTRACT: control_change channel=11 control=11 value=99 time=0.0140845
EXTRACT: control_change channel=11 control=11 value=98 time=0.04929575
EXTRACT: control_change channel=11 control=11 value=97 time=0.02112675
EXTRACT: control_change channel=11 control=11 value=96 time=0.04929575
EXTRACT: control_change channel=11 control=11 value=95 time=0.04929575
EXTRACT: control_change channel=11 control=11 value=94 time=0.00704225
EXTRACT: control_change channel=11 control=11 value=93 time=0.02112675
EXTRACT: control_change channel=11 control=11 value=92 time=0.0140845
EXTRACT: control_change channel=11 control=11 value=91 time=0.00704225
EXTRACT: control_change channel=11 control=11 value=89 time=0.028169
EXTRACT: control_change channel=11 control=11 value=88 time=0.0140845
EXTRACT: note_on channel=3 note=76 velocity=0 time=0.0140845
EXTRACT: note_on channel=3 note=64 velocity=112 time=0
EXTRACT: note_on channel=9 note=51 velocity=127 time=0
EXTRACT: note_on channel=9 note=46 velocity=100 time=0
EXTRACT: control_change channel=11 control=11 value=87 time=0.00704225
EXTRACT: control_change channel=11 control=11 value=86 time=0.06338025
EXTRACT: note_on channel=9 note=46 velocity=0 time=0.03521125
EXTRACT: note_on channel=9 note=51 velocity=0 time=0
EXTRACT: control_change channel=11 control=11 value=84 time=0.02112675
EXTRACT: control_change channel=11 control=11 value=83 time=0.04929575
EXTRACT: control_change channel=11 control=11 value=82 time=0.04929575
EXTRACT: control_change channel=11 control=11 value=80 time=0.04929575
EXTRACT: control_change channel=11 control=11 value=79 time=0.04929575
EXTRACT: control_change channel=11 control=11 value=78 time=0.02112675
EXTRACT: control_change channel=11 control=11 value=76 time=0.0140845
EXTRACT: control_change channel=11 control=11 value=75 time=0.02112675
EXTRACT: control_change channel=11 control=11 value=74 time=0.0140845
EXTRACT: control_change channel=11 control=11 value=73 time=0.00704225
EXTRACT: control_change channel=11 control=11 value=72 time=0.00704225
EXTRACT: note_on channel=0 note=68 velocity=0 time=0.0140845
EXTRACT: note_on channel=0 note=56 velocity=0 time=0
EXTRACT: note_on channel=0 note=61 velocity=0 time=0
EXTRACT: note_on channel=0 note=64 velocity=0 time=0
EXTRACT: note_on channel=0 note=56 velocity=87 time=0
EXTRACT: note_on channel=0 note=61 velocity=87 time=0
EXTRACT: note_on channel=0 note=64 velocity=87 time=0
EXTRACT: note_on channel=0 note=68 velocity=87 time=0
EXTRACT: note_on channel=3 note=64 velocity=0 time=0
EXTRACT: note_on channel=3 note=76 velocity=112 time=0
EXTRACT: note_on channel=8 note=37 velocity=0 time=0
EXTRACT: note_on channel=8 note=37 velocity=123 time=0
EXTRACT: note_on channel=9 note=46 velocity=100 time=0
EXTRACT: note_on channel=9 note=33 velocity=127 time=0
EXTRACT: note_on channel=9 note=31 velocity=127 time=0
EXTRACT: note_on channel=9 note=33 velocity=127 time=0
EXTRACT: note_on channel=10 note=31 velocity=73 time=0
EXTRACT: control_change channel=11 control=11 value=71 time=0
EXTRACT: control_change channel=11 control=11 value=70 time=0.0140845
EXTRACT: control_change channel=11 control=11 value=69 time=0.00704225
EXTRACT: control_change channel=11 control=11 value=67 time=0.04929575
EXTRACT: control_change channel=11 control=11 value=66 time=0.0140845
EXTRACT: note_on channel=9 note=33 velocity=0 time=0.02112675
EXTRACT: note_on channel=9 note=46 velocity=0 time=0
EXTRACT: note_on channel=9 note=33 velocity=0 time=0
EXTRACT: note_on channel=9 note=31 velocity=0 time=0
EXTRACT: note_on channel=10 note=31 velocity=0 time=0
EXTRACT: control_change channel=11 control=11 value=64 time=0.028169
EXTRACT: control_change channel=11 control=11 value=63 time=0.00704225
EXTRACT: control_change channel=11 control=11 value=61 time=0.0140845
EXTRACT: control_change channel=11 control=11 value=60 time=0.0140845
EXTRACT: control_change channel=11 control=11 value=58 time=0.00704225
EXTRACT: control_change channel=11 control=11 value=57 time=0.00704225
EXTRACT: control_change channel=11 control=11 value=56 time=0.00704225
EXTRACT: control_change channel=11 control=11 value=54 time=0.00704225
EXTRACT: control_change channel=11 control=11 value=52 time=0.0140845
EXTRACT: control_change channel=11 control=11 value=51 time=0.00704225
EXTRACT: control_change channel=11 control=11 value=49 time=0.00704225
EXTRACT: control_change channel=11 control=11 value=46 time=0.00704225
EXTRACT: control_change channel=11 control=11 value=44 time=0.00704225
EXTRACT: control_change channel=11 control=11 value=43 time=0.0140845
EXTRACT: control_change channel=11 control=11 value=41 time=0.00704225
EXTRACT: control_change channel=11 control=11 value=38 time=0.00704225
EXTRACT: note_on channel=11 note=61 velocity=0 time=0.0140845
EXTRACT: control_change channel=11 control=11 value=36 time=0
EXTRACT: control_change channel=11 control=11 value=35 time=0.0140845
EXTRACT: control_change channel=11 control=11 value=127 time=0.04929575
EXTRACT: pitchwheel channel=11 pitch=0 time=0.056338
EXTRACT: note_on channel=3 note=76 velocity=0 time=0.02112675
EXTRACT: note_on channel=3 note=64 velocity=112 time=0
EXTRACT: note_on channel=9 note=46 velocity=100 time=0
EXTRACT: note_on channel=11 note=61 velocity=118 time=0
EXTRACT: note_on channel=9 note=46 velocity=0 time=0.10563375
EXTRACT: pitchwheel channel=11 pitch=-128 time=0
EXTRACT: pitchwheel channel=11 pitch=-256 time=0.0422535
EXTRACT: pitchwheel channel=11 pitch=-384 time=0.04929575
EXTRACT: note_on channel=1 note=61 velocity=0 time=0.00704225
EXTRACT: note_on channel=9 note=33 velocity=127 time=0.00704225
EXTRACT: pitchwheel channel=11 pitch=-640 time=0
EXTRACT: note_on channel=1 note=52 velocity=0 time=0.0140845
EXTRACT: pitchwheel channel=11 pitch=-896 time=0
EXTRACT: pitchwheel channel=11 pitch=-1280 time=0.00704225
EXTRACT: pitchwheel channel=11 pitch=-1664 time=0.00704225
EXTRACT: note_on channel=1 note=56 velocity=0 time=0.00704225
EXTRACT: note_on channel=1 note=68 velocity=0 time=0.00704225
EXTRACT: pitchwheel channel=11 pitch=-1920 time=0
EXTRACT: pitchwheel channel=11 pitch=-2176 time=0.00704225
EXTRACT: note_on channel=4 note=64 velocity=0 time=0.00704225
EXTRACT: pitchwheel channel=11 pitch=-2816 time=0
EXTRACT: pitchwheel channel=11 pitch=-3328 time=0.00704225
EXTRACT: pitchwheel channel=11 pitch=-3584 time=0.00704225
EXTRACT: note_on channel=4 note=56 velocity=0 time=0.00704225
EXTRACT: pitchwheel channel=11 pitch=-4096 time=0.00704225
EXTRACT: pitchwheel channel=11 pitch=-5120 time=0.00704225
EXTRACT: pitchwheel channel=11 pitch=-5248 time=0.00704225
EXTRACT: note_on channel=4 note=52 velocity=0 time=0.00704225
EXTRACT: note_on channel=9 note=33 velocity=0 time=0
EXTRACT: pitchwheel channel=11 pitch=-5632 time=0
EXTRACT: pitchwheel channel=11 pitch=-6272 time=0.00704225
EXTRACT: pitchwheel channel=11 pitch=-7552 time=0.0140845
EXTRACT: pitchwheel channel=11 pitch=-8064 time=0.00704225
EXTRACT: pitchwheel channel=11 pitch=-8064 time=0.0140845
EXTRACT: note_on channel=1 note=64 velocity=73 time=0.0140845
EXTRACT: note_on channel=1 note=57 velocity=73 time=0.00704225
EXTRACT: note_on channel=1 note=69 velocity=73 time=0.0140845
EXTRACT: note_on channel=4 note=59 velocity=73 time=0.00704225
EXTRACT: note_on channel=4 note=61 velocity=0 time=0.00704225
EXTRACT: note_on channel=0 note=68 velocity=0 time=0.0140845
EXTRACT: note_on channel=0 note=56 velocity=0 time=0
EXTRACT: note_on channel=0 note=61 velocity=0 time=0
EXTRACT: note_on channel=0 note=64 velocity=0 time=0
EXTRACT: note_on channel=0 note=69 velocity=87 time=0
EXTRACT: note_on channel=0 note=56 velocity=87 time=0
EXTRACT: note_on channel=0 note=62 velocity=87 time=0
EXTRACT: note_on channel=2 note=52 velocity=0 time=0
EXTRACT: note_on channel=2 note=61 velocity=0 time=0
EXTRACT: note_on channel=2 note=61 velocity=73 time=0
EXTRACT: note_on channel=3 note=64 velocity=0 time=0
EXTRACT: note_on channel=3 note=71 velocity=112 time=0
EXTRACT: note_on channel=4 note=64 velocity=73 time=0
EXTRACT: note_on channel=8 note=37 velocity=0 time=0
EXTRACT: note_on channel=8 note=37 velocity=123 time=0
EXTRACT: note_on channel=9 note=46 velocity=100 time=0
EXTRACT: pitchwheel channel=11 pitch=0 time=0
EXTRACT: note_on channel=11 note=59 velocity=118 time=0
EXTRACT: note_on channel=11 note=61 velocity=0 time=0.0140845
EXTRACT: note_on channel=1 note=61 velocity=73 time=0.03521125
EXTRACT: note_on channel=9 note=46 velocity=0 time=0.056338
EXTRACT: note_on channel=9 note=33 velocity=127 time=0.10563375
EXTRACT: note_on channel=9 note=33 velocity=0 time=0.10563375
EXTRACT: note_on channel=0 note=62 velocity=0 time=0.10563375
EXTRACT: note_on channel=0 note=64 velocity=87 time=0
EXTRACT: note_on channel=2 note=61 velocity=0 time=0
EXTRACT: note_on channel=2 note=59 velocity=73 time=0
EXTRACT: note_on channel=2 note=62 velocity=73 time=0
EXTRACT: note_on channel=3 note=71 velocity=0 time=0
EXTRACT: note_on channel=3 note=73 velocity=112 time=0
EXTRACT: note_on channel=8 note=37 velocity=0 time=0
EXTRACT: note_on channel=8 note=40 velocity=123 time=0
EXTRACT: note_on channel=9 note=33 velocity=127 time=0
EXTRACT: note_on channel=9 note=46 velocity=100 time=0
EXTRACT: note_on channel=9 note=33 velocity=127 time=0
EXTRACT: note_on channel=11 note=61 velocity=118 time=0
EXTRACT: note_on channel=11 note=59 velocity=0 time=0.0140845
EXTRACT: note_on channel=9 note=33 velocity=0 time=0.09154925
EXTRACT: note_on channel=9 note=46 velocity=0 time=0
EXTRACT: note_on channel=9 note=33 velocity=0 time=0
EXTRACT: pitchwheel channel=11 pitch=-128 time=0
EXTRACT: pitchwheel channel=11 pitch=-256 time=0.0422535
EXTRACT: pitchwheel channel=11 pitch=-384 time=0.04929575
EXTRACT: note_on channel=8 note=40 velocity=0 time=0.0140845
EXTRACT: note_on channel=8 note=40 velocity=123 time=0
EXTRACT: pitchwheel channel=11 pitch=-640 time=0
EXTRACT: pitchwheel channel=11 pitch=-896 time=0.0140845
EXTRACT: pitchwheel channel=11 pitch=-1280 time=0.00704225
EXTRACT: pitchwheel channel=11 pitch=-1664 time=0.00704225
EXTRACT: pitchwheel channel=11 pitch=-1920 time=0.0140845
EXTRACT: pitchwheel channel=11 pitch=-2176 time=0.00704225
EXTRACT: pitchwheel channel=11 pitch=-2816 time=0.00704225
EXTRACT: pitchwheel channel=11 pitch=-3328 time=0.00704225
EXTRACT: pitchwheel channel=11 pitch=-3584 time=0.00704225
EXTRACT: pitchwheel channel=11 pitch=-4096 time=0.0140845
EXTRACT: pitchwheel channel=11 pitch=-5120 time=0.00704225
EXTRACT: pitchwheel channel=11 pitch=-5248 time=0.00704225
EXTRACT: pitchwheel channel=11 pitch=-5632 time=0.00704225
EXTRACT: pitchwheel channel=11 pitch=-6272 time=0.00704225
EXTRACT: pitchwheel channel=11 pitch=-7552 time=0.0140845
EXTRACT: pitchwheel channel=11 pitch=-8064 time=0.00704225
EXTRACT: pitchwheel channel=11 pitch=-8064 time=0.0140845
EXTRACT: note_on channel=0 note=64 velocity=0 time=0.06338025
EXTRACT: note_on channel=0 note=56 velocity=0 time=0
EXTRACT: note_on channel=0 note=69 velocity=0 time=0
EXTRACT: note_on channel=0 note=69 velocity=87 time=0
EXTRACT: note_on channel=0 note=56 velocity=87 time=0
EXTRACT: note_on channel=0 note=62 velocity=87 time=0
EXTRACT: note_on channel=2 note=62 velocity=0 time=0
EXTRACT: note_on channel=2 note=59 velocity=0 time=0
EXTRACT: note_on channel=2 note=61 velocity=73 time=0
EXTRACT: note_on channel=3 note=73 velocity=0 time=0
EXTRACT: note_on channel=3 note=71 velocity=112 time=0
EXTRACT: note_on channel=8 note=40 velocity=0 time=0
EXTRACT: note_on channel=8 note=40 velocity=123 time=0
EXTRACT: note_on channel=9 note=31 velocity=127 time=0
EXTRACT: note_on channel=9 note=33 velocity=127 time=0
EXTRACT: note_on channel=9 note=31 velocity=127 time=0
EXTRACT: note_on channel=9 note=33 velocity=127 time=0
EXTRACT: note_on channel=9 note=46 velocity=100 time=0
EXTRACT: note_on channel=10 note=31 velocity=73 time=0
EXTRACT: pitchwheel channel=11 pitch=0 time=0
EXTRACT: note_on channel=11 note=59 velocity=118 time=0
EXTRACT: note_on channel=11 note=61 velocity=0 time=0.0140845
EXTRACT: note_on channel=9 note=46 velocity=0 time=0.09154925
EXTRACT: note_on channel=9 note=31 velocity=0 time=0
EXTRACT: note_on channel=9 note=31 velocity=0 time=0
EXTRACT: note_on channel=9 note=33 velocity=0 time=0
EXTRACT: note_on channel=9 note=33 velocity=0 time=0
EXTRACT: note_on channel=10 note=31 velocity=0 time=0
EXTRACT: control_change channel=4 control=10 value=110 time=0.03521125
EXTRACT: control_change channel=3 control=94 value=31 time=0.07746475
EXTRACT: control_change channel=8 control=91 value=0 time=0.04929575
EXTRACT: control_change channel=3 control=11 value=106 time=0.03521125
EXTRACT: control_change channel=4 control=72 value=104 time=0
EXTRACT: note_on channel=0 note=62 velocity=0 time=0.11971825
EXTRACT: note_on channel=0 note=64 velocity=87 time=0
EXTRACT: note_on channel=2 note=61 velocity=0 time=0
EXTRACT: note_on channel=2 note=59 velocity=73 time=0
EXTRACT: note_on channel=2 note=62 velocity=73 time=0
EXTRACT: note_on channel=3 note=71 velocity=0 time=0
EXTRACT: note_on channel=3 note=73 velocity=112 time=0
EXTRACT: note_on channel=8 note=40 velocity=0 time=0
EXTRACT: note_on channel=8 note=40 velocity=123 time=0
EXTRACT: note_on channel=9 note=46 velocity=100 time=0
EXTRACT: note_on channel=9 note=51 velocity=127 time=0
EXTRACT: note_on channel=9 note=46 velocity=100 time=0
EXTRACT: note_on channel=11 note=59 velocity=118 time=0
EXTRACT: note_on channel=11 note=59 velocity=0 time=0.0140845
EXTRACT: pitchwheel channel=11 pitch=256 time=0.04929575
EXTRACT: pitchwheel channel=11 pitch=512 time=0.02112675
EXTRACT: pitchwheel channel=11 pitch=640 time=0.0140845
EXTRACT: note_on channel=9 note=46 velocity=0 time=0.00704225
EXTRACT: note_on channel=9 note=51 velocity=0 time=0
EXTRACT: note_on channel=9 note=46 velocity=0 time=0
EXTRACT: pitchwheel channel=11 pitch=896 time=0
EXTRACT: control_change channel=3 control=72 value=107 time=0.02112675
EXTRACT: pitchwheel channel=11 pitch=1152 time=0
EXTRACT: pitchwheel channel=11 pitch=1408 time=0.00704225
EXTRACT: pitchwheel channel=11 pitch=1920 time=0.00704225
EXTRACT: pitchwheel channel=11 pitch=2176 time=0.00704225
EXTRACT: pitchwheel channel=11 pitch=3200 time=0.00704225
EXTRACT: pitchwheel channel=11 pitch=4608 time=0.0140845
EXTRACT: note_on channel=4 note=59 velocity=0 time=0.00704225
EXTRACT: pitchwheel channel=11 pitch=5632 time=0
EXTRACT: pitchwheel channel=11 pitch=6656 time=0.00704225
EXTRACT: pitchwheel channel=11 pitch=7168 time=0.00704225
EXTRACT: note_on channel=4 note=64 velocity=0 time=0.00704225
EXTRACT: pitchwheel channel=11 pitch=7808 time=0
EXTRACT: note_on channel=1 note=64 velocity=0 time=0.00704225
EXTRACT: note_on channel=1 note=57 velocity=0 time=0.00704225
EXTRACT: pitchwheel channel=11 pitch=8191 time=0
EXTRACT: note_on channel=4 note=52 velocity=73 time=0.00704225
EXTRACT: note_on channel=1 note=69 velocity=0 time=0.00704225
EXTRACT: note_on channel=1 note=61 velocity=0 time=0.07746475
EXTRACT: note_on channel=4 note=57 velocity=73 time=0.0140845
EXTRACT: note_on channel=1 note=69 velocity=73 time=0.07746475
EXTRACT: note_on channel=0 note=64 velocity=0 time=0.028169
EXTRACT: note_on channel=0 note=56 velocity=0 time=0
EXTRACT: note_on channel=0 note=69 velocity=0 time=0
EXTRACT: note_on channel=0 note=57 velocity=84 time=0
EXTRACT: note_on channel=0 note=61 velocity=84 time=0
EXTRACT: note_on channel=0 note=64 velocity=84 time=0
EXTRACT: note_on channel=0 note=69 velocity=84 time=0
EXTRACT: note_on channel=2 note=62 velocity=0 time=0
EXTRACT: note_on channel=2 note=59 velocity=0 time=0
EXTRACT: note_on channel=2 note=52 velocity=73 time=0
EXTRACT: note_on channel=2 note=45 velocity=73 time=0
EXTRACT: note_on channel=3 note=73 velocity=0 time=0
EXTRACT: note_on channel=3 note=76 velocity=112 time=0
EXTRACT: note_on channel=4 note=61 velocity=73 time=0
EXTRACT: note_on channel=8 note=40 velocity=0 time=0
EXTRACT: note_on channel=8 note=33 velocity=123 time=0
EXTRACT: note_on channel=9 note=33 velocity=127 time=0
EXTRACT: note_on channel=9 note=46 velocity=100 time=0
EXTRACT: note_on channel=9 note=57 velocity=100 time=0
EXTRACT: control_change channel=11 control=1 value=16 time=0
EXTRACT: note_on channel=11 note=61 velocity=118 time=0
EXTRACT: pitchwheel channel=11 pitch=0 time=0
EXTRACT: control_change channel=11 control=11 value=125 time=0.00704225
EXTRACT: note_on channel=11 note=59 velocity=0 time=0.00704225
EXTRACT: control_change channel=11 control=1 value=18 time=0
EXTRACT: note_on channel=1 note=61 velocity=73 time=0.00704225
EXTRACT: control_change channel=11 control=1 value=19 time=0
EXTRACT: control_change channel=11 control=11 value=124 time=0.00704225
EXTRACT: control_change channel=11 control=1 value=21 time=0
EXTRACT: control_change channel=11 control=1 value=23 time=0.0140845
EXTRACT: note_on channel=4 note=64 velocity=73 time=0.00704225
EXTRACT: control_change channel=11 control=11 value=123 time=0.00704225
EXTRACT: control_change channel=11 control=1 value=25 time=0
EXTRACT: control_change channel=11 control=11 value=122 time=0.00704225
EXTRACT: control_change channel=11 control=1 value=27 time=0
EXTRACT: note_on channel=1 note=57 velocity=73 time=0.00704225
EXTRACT: control_change channel=11 control=1 value=29 time=0
EXTRACT: control_change channel=11 control=11 value=121 time=0.0140845
EXTRACT: control_change channel=11 control=1 value=35 time=0
EXTRACT: control_change channel=11 control=1 value=39 time=0.00704225
EXTRACT: control_change channel=11 control=1 value=45 time=0.00704225
EXTRACT: note_on channel=9 note=57 velocity=0 time=0.00704225
EXTRACT: note_on channel=9 note=46 velocity=0 time=0
EXTRACT: note_on channel=9 note=33 velocity=0 time=0
EXTRACT: control_change channel=11 control=11 value=120 time=0
EXTRACT: control_change channel=11 control=1 value=47 time=0.00704225
EXTRACT: control_change channel=11 control=1 value=53 time=0.0140845
EXTRACT: control_change channel=11 control=1 value=59 time=0.00704225
EXTRACT: control_change channel=11 control=1 value=65 time=0.0140845
EXTRACT: control_change channel=11 control=11 value=118 time=0.00704225
EXTRACT: control_change channel=11 control=11 value=117 time=0.0140845
EXTRACT: control_change channel=11 control=1 value=69 time=0
EXTRACT: control_change channel=11 control=1 value=71 time=0.0140845
EXTRACT: control_change channel=11 control=11 value=116 time=0.00704225
EXTRACT: control_change channel=11 control=1 value=72 time=0
EXTRACT: control_change channel=11 control=1 value=74 time=0.00704225
EXTRACT: control_change channel=11 control=11 value=115 time=0.0140845
EXTRACT: control_change channel=11 control=1 value=76 time=0
EXTRACT: control_change channel=11 control=11 value=114 time=0.0140845
EXTRACT: control_change channel=11 control=1 value=77 time=0
EXTRACT: control_change channel=11 control=11 value=113 time=0.00704225
EXTRACT: control_change channel=11 control=1 value=78 time=0
EXTRACT: control_change channel=11 control=1 value=79 time=0.00704225
EXTRACT: control_change channel=11 control=11 value=112 time=0.02112675
EXTRACT: control_change channel=11 control=1 value=80 time=0
EXTRACT: control_change channel=11 control=11 value=111 time=0.00704225
EXTRACT: control_change channel=11 control=1 value=81 time=0
EXTRACT: control_change channel=11 control=11 value=110 time=0.0140845
EXTRACT: control_change channel=11 control=1 value=83 time=0
EXTRACT: control_change channel=11 control=11 value=109 time=0.0140845
EXTRACT: control_change channel=11 control=1 value=84 time=0.00704225
EXTRACT: control_change channel=11 control=11 value=108 time=0.00704225
EXTRACT: control_change channel=11 control=11 value=107 time=0.0140845
EXTRACT: control_change channel=11 control=11 value=106 time=0.0140845
EXTRACT: control_change channel=11 control=11 value=105 time=0.0140845
EXTRACT: control_change channel=11 control=1 value=86 time=0
EXTRACT: control_change channel=11 control=11 value=104 time=0.00704225
EXTRACT: control_change channel=11 control=1 value=87 time=0
EXTRACT: control_change channel=11 control=11 value=103 time=0.00704225
EXTRACT: control_change channel=11 control=11 value=102 time=0.02112675
EXTRACT: control_change channel=11 control=11 value=101 time=0.00704225
EXTRACT: control_change channel=11 control=11 value=100 time=0.0140845
EXTRACT: control_change channel=11 control=1 value=89 time=0
EXTRACT: note_on channel=3 note=76 velocity=0 time=0.0140845
EXTRACT: note_on channel=3 note=64 velocity=112 time=0
EXTRACT: note_on channel=9 note=51 velocity=127 time=0
EXTRACT: note_on channel=9 note=46 velocity=100 time=0
EXTRACT: control_change channel=11 control=1 value=91 time=0
EXTRACT: control_change channel=11 control=11 value=99 time=0.00704225
EXTRACT: control_change channel=11 control=11 value=98 time=0.00704225
EXTRACT: control_change channel=11 control=1 value=92 time=0
EXTRACT: control_change channel=11 control=11 value=97 time=0.00704225
EXTRACT: control_change channel=11 control=1 value=95 time=0.00704225
EXTRACT: control_change channel=11 control=11 value=96 time=0.0140845
EXTRACT: control_change channel=11 control=1 value=97 time=0
EXTRACT: control_change channel=11 control=11 value=94 time=0.00704225
EXTRACT: control_change channel=11 control=11 value=93 time=0.00704225
EXTRACT: control_change channel=11 control=1 value=99 time=0
EXTRACT: control_change channel=11 control=1 value=102 time=0.00704225
EXTRACT: control_change channel=11 control=11 value=91 time=0.00704225
EXTRACT: control_change channel=11 control=1 value=104 time=0
EXTRACT: control_change channel=11 control=11 value=90 time=0.0140845
EXTRACT: control_change channel=11 control=11 value=89 time=0.00704225
EXTRACT: control_change channel=11 control=1 value=105 time=0
EXTRACT: control_change channel=11 control=11 value=88 time=0.00704225
EXTRACT: control_change channel=11 control=1 value=107 time=0
EXTRACT: note_on channel=9 note=46 velocity=0 time=0.00704225
EXTRACT: note_on channel=9 note=51 velocity=0 time=0
EXTRACT: control_change channel=11 control=11 value=86 time=0
EXTRACT: control_change channel=11 control=1 value=108 time=0
EXTRACT: control_change channel=11 control=11 value=85 time=0.00704225
EXTRACT: control_change channel=11 control=1 value=110 time=0
EXTRACT: control_change channel=11 control=11 value=84 time=0.02112675
EXTRACT: control_change channel=11 control=1 value=111 time=0
EXTRACT: control_change channel=11 control=11 value=82 time=0.00704225
EXTRACT: control_change channel=11 control=1 value=117 time=0
EXTRACT: control_change channel=11 control=1 value=118 time=0.00704225
EXTRACT: control_change channel=11 control=11 value=81 time=0.00704225
EXTRACT: control_change channel=11 control=11 value=80 time=0.0140845
EXTRACT: control_change channel=11 control=1 value=121 time=0
EXTRACT: control_change channel=11 control=11 value=79 time=0.00704225
EXTRACT: control_change channel=11 control=1 value=122 time=0
EXTRACT: control_change channel=11 control=11 value=78 time=0.00704225
EXTRACT: control_change channel=11 control=11 value=77 time=0.00704225
EXTRACT: control_change channel=11 control=1 value=124 time=0
EXTRACT: control_change channel=11 control=11 value=76 time=0.00704225
EXTRACT: control_change channel=11 control=1 value=127 time=0
EXTRACT: control_change channel=11 control=11 value=74 time=0.0140845
EXTRACT: control_change channel=11 control=11 value=73 time=0.00704225
EXTRACT: control_change channel=11 control=11 value=72 time=0.00704225
EXTRACT: control_change channel=11 control=11 value=71 time=0.00704225
EXTRACT: control_change channel=11 control=11 value=69 time=0.00704225
EXTRACT: control_change channel=11 control=11 value=68 time=0.02112675
EXTRACT: control_change channel=11 control=11 value=66 time=0.00704225
EXTRACT: control_change channel=11 control=11 value=65 time=0.00704225
EXTRACT: note_on channel=11 note=61 velocity=0 time=0.00704225
EXTRACT: control_change channel=11 control=11 value=64 time=0
EXTRACT: control_change channel=11 control=11 value=63 time=0.0140845
EXTRACT: control_change channel=11 control=11 value=61 time=0.00704225
EXTRACT: control_change channel=11 control=11 value=60 time=0.00704225
EXTRACT: control_change channel=11 control=11 value=59 time=0.00704225
EXTRACT: control_change channel=11 control=11 value=127 time=0.02112675
EXTRACT: control_change channel=11 control=1 value=0 time=0
EXTRACT: note_on channel=0 note=69 velocity=0 time=0.084507
EXTRACT: note_on channel=0 note=57 velocity=0 time=0
EXTRACT: note_on channel=0 note=61 velocity=0 time=0
EXTRACT: note_on channel=0 note=64 velocity=0 time=0
EXTRACT: note_on channel=0 note=57 velocity=87 time=0
EXTRACT: note_on channel=0 note=61 velocity=87 time=0
EXTRACT: note_on channel=0 note=64 velocity=87 time=0
EXTRACT: note_on channel=0 note=69 velocity=87 time=0
EXTRACT: note_on channel=3 note=64 velocity=0 time=0
EXTRACT: note_on channel=3 note=76 velocity=112 time=0
EXTRACT: note_on channel=8 note=33 velocity=0 time=0
EXTRACT: note_on channel=8 note=33 velocity=123 time=0
EXTRACT: note_on channel=9 note=31 velocity=127 time=0
EXTRACT: note_on channel=9 note=33 velocity=127 time=0
EXTRACT: note_on channel=9 note=46 velocity=100 time=0
EXTRACT: note_on channel=10 note=31 velocity=73 time=0
EXTRACT: note_on channel=9 note=46 velocity=0 time=0.10563375
EXTRACT: note_on channel=9 note=33 velocity=0 time=0
EXTRACT: note_on channel=9 note=31 velocity=0 time=0
EXTRACT: note_on channel=10 note=31 velocity=0 time=0
EXTRACT: note_on channel=11 note=57 velocity=118 time=0.10563375
EXTRACT: note_on channel=11 note=57 velocity=0 time=0.140845
EXTRACT: note_on channel=3 note=76 velocity=0 time=0.0704225
EXTRACT: note_on channel=3 note=64 velocity=112 time=0
EXTRACT: note_on channel=9 note=46 velocity=100 time=0
EXTRACT: note_on channel=11 note=57 velocity=118 time=0
EXTRACT: note_on channel=9 note=46 velocity=0 time=0.10563375
EXTRACT: note_on channel=11 note=57 velocity=0 time=0.03521125
EXTRACT: note_on channel=8 note=33 velocity=0 time=0.0704225
EXTRACT: note_on channel=8 note=33 velocity=123 time=0
EXTRACT: note_on channel=9 note=33 velocity=127 time=0
EXTRACT: pitchwheel channel=11 pitch=-8064 time=0
EXTRACT: note_on channel=11 note=59 velocity=118 time=0
EXTRACT: note_on channel=1 note=69 velocity=0 time=0.0140845
EXTRACT: pitchwheel channel=11 pitch=-7936 time=0
EXTRACT: pitchwheel channel=11 pitch=-7680 time=0.02112675
EXTRACT: pitchwheel channel=11 pitch=-7424 time=0.0140845
EXTRACT: note_on channel=4 note=57 velocity=0 time=0.00704225
EXTRACT: note_on channel=1 note=61 velocity=0 time=0.00704225
EXTRACT: pitchwheel channel=11 pitch=-7168 time=0
EXTRACT: note_on channel=4 note=52 velocity=0 time=0.02112675
EXTRACT: pitchwheel channel=11 pitch=-6400 time=0
EXTRACT: pitchwheel channel=11 pitch=-5632 time=0.00704225
EXTRACT: note_on channel=9 note=33 velocity=0 time=0.0140845
EXTRACT: pitchwheel channel=11 pitch=-4864 time=0
EXTRACT: note_on channel=1 note=57 velocity=0 time=0.00704225
EXTRACT: pitchwheel channel=11 pitch=-4096 time=0.00704225
EXTRACT: pitchwheel channel=11 pitch=-3328 time=0.0140845
EXTRACT: pitchwheel channel=11 pitch=-2560 time=0.00704225
EXTRACT: note_on channel=1 note=57 velocity=73 time=0.00704225
EXTRACT: note_on channel=1 note=66 velocity=73 time=0.00704225
EXTRACT: note_on channel=4 note=52 velocity=73 time=0
EXTRACT: pitchwheel channel=11 pitch=-1536 time=0.00704225
EXTRACT: note_on channel=1 note=61 velocity=73 time=0.00704225
EXTRACT: note_on channel=4 note=61 velocity=0 time=0.00704225
EXTRACT: note_on channel=4 note=59 velocity=73 time=0
EXTRACT: pitchwheel channel=11 pitch=-1280 time=0
EXTRACT: pitchwheel channel=11 pitch=-256 time=0.00704225
EXTRACT: pitchwheel channel=11 pitch=768 time=0.00704225
EXTRACT: note_on channel=0 note=69 velocity=0 time=0.02112675
EXTRACT: note_on channel=0 note=57 velocity=0 time=0
EXTRACT: note_on channel=0 note=61 velocity=0 time=0
EXTRACT: note_on channel=0 note=64 velocity=0 time=0
EXTRACT: note_on channel=0 note=54 velocity=87 time=0
EXTRACT: note_on channel=0 note=61 velocity=87 time=0
EXTRACT: note_on channel=0 note=66 velocity=87 time=0
EXTRACT: note_on channel=0 note=69 velocity=87 time=0
EXTRACT: note_on channel=2 note=45 velocity=0 time=0
EXTRACT: note_on channel=2 note=52 velocity=0 time=0
EXTRACT: note_on channel=2 note=54 velocity=73 time=0
EXTRACT: note_on channel=2 note=44 velocity=73 time=0
EXTRACT: note_on channel=3 note=64 velocity=0 time=0
EXTRACT: note_on channel=3 note=71 velocity=112 time=0
EXTRACT: note_on channel=8 note=33 velocity=0 time=0
EXTRACT: note_on channel=8 note=30 velocity=123 time=0
EXTRACT: note_on channel=9 note=46 velocity=100 time=0
EXTRACT: pitchwheel channel=11 pitch=1792 time=0
EXTRACT: note_on channel=4 note=64 velocity=73 time=0.00704225
EXTRACT: pitchwheel channel=11 pitch=2304 time=0
EXTRACT: note_on channel=1 note=69 velocity=73 time=0.00704225
EXTRACT: note_on channel=4 note=64 velocity=0 time=0
EXTRACT: pitchwheel channel=11 pitch=3328 time=0
EXTRACT: pitchwheel channel=11 pitch=3584 time=0.00704225
EXTRACT: pitchwheel channel=11 pitch=3712 time=0.0140845
EXTRACT: pitchwheel channel=11 pitch=4224 time=0.00704225
EXTRACT: pitchwheel channel=11 pitch=4608 time=0.00704225
EXTRACT: pitchwheel channel=11 pitch=4864 time=0.00704225
EXTRACT: pitchwheel channel=11 pitch=5120 time=0.00704225
EXTRACT: pitchwheel channel=11 pitch=5504 time=0.0140845
EXTRACT: pitchwheel channel=11 pitch=5888 time=0.00704225
EXTRACT: pitchwheel channel=11 pitch=6016 time=0.00704225
EXTRACT: pitchwheel channel=11 pitch=6528 time=0.00704225
EXTRACT: note_on channel=9 note=46 velocity=0 time=0.00704225
EXTRACT: pitchwheel channel=11 pitch=7040 time=0
EXTRACT: pitchwheel channel=11 pitch=7424 time=0.0140845
EXTRACT: pitchwheel channel=11 pitch=7680 time=0.00704225
EXTRACT: pitchwheel channel=11 pitch=8191 time=0.00704225
EXTRACT: note_on channel=9 note=33 velocity=127 time=0.07746475
EXTRACT: note_on channel=9 note=33 velocity=0 time=0.10563375
EXTRACT: pitchwheel channel=11 pitch=7424 time=0.07746475
EXTRACT: pitchwheel channel=11 pitch=7168 time=0.02112675
EXTRACT: note_on channel=3 note=71 velocity=0 time=0.00704225
EXTRACT: note_on channel=3 note=73 velocity=112 time=0
EXTRACT: note_on channel=9 note=33 velocity=127 time=0
EXTRACT: note_on channel=9 note=46 velocity=100 time=0
EXTRACT: pitchwheel channel=11 pitch=6784 time=0
EXTRACT: pitchwheel channel=11 pitch=6656 time=0.00704225
EXTRACT: pitchwheel channel=11 pitch=6400 time=0.0140845
EXTRACT: pitchwheel channel=11 pitch=6144 time=0.0140845
EXTRACT: pitchwheel channel=11 pitch=5888 time=0.00704225
EXTRACT: pitchwheel channel=11 pitch=5632 time=0.00704225
EXTRACT: pitchwheel channel=11 pitch=5376 time=0.0140845
EXTRACT: pitchwheel channel=11 pitch=5120 time=0.0140845
EXTRACT: pitchwheel channel=11 pitch=4352 time=0.0140845
EXTRACT: note_on channel=9 note=46 velocity=0 time=0.0140845
EXTRACT: note_on channel=9 note=33 velocity=0 time=0
EXTRACT: pitchwheel channel=11 pitch=4096 time=0
EXTRACT: pitchwheel channel=11 pitch=3840 time=0.02112675
EXTRACT: pitchwheel channel=11 pitch=3712 time=0.00704225
EXTRACT: pitchwheel channel=11 pitch=3456 time=0.00704225
EXTRACT: pitchwheel channel=11 pitch=3328 time=0.00704225
EXTRACT: pitchwheel channel=11 pitch=3200 time=0.0140845
EXTRACT: pitchwheel channel=11 pitch=2816 time=0.00704225
EXTRACT: pitchwheel channel=11 pitch=2432 time=0.00704225
EXTRACT: pitchwheel channel=11 pitch=2304 time=0.00704225
EXTRACT: pitchwheel channel=11 pitch=2176 time=0.00704225
EXTRACT: pitchwheel channel=11 pitch=1920 time=0.0140845
EXTRACT: pitchwheel channel=11 pitch=1792 time=0.00704225
EXTRACT: pitchwheel channel=11 pitch=1664 time=0.0140845
EXTRACT: pitchwheel channel=11 pitch=1408 time=0.00704225
EXTRACT: pitchwheel channel=11 pitch=1280 time=0.0140845
EXTRACT: pitchwheel channel=11 pitch=1024 time=0.02112675
EXTRACT: pitchwheel channel=11 pitch=896 time=0.00704225
EXTRACT: pitchwheel channel=11 pitch=768 time=0.02112675
EXTRACT: pitchwheel channel=11 pitch=640 time=0.00704225
EXTRACT: pitchwheel channel=11 pitch=384 time=0.00704225
EXTRACT: pitchwheel channel=11 pitch=256 time=0.02112675
EXTRACT: pitchwheel channel=11 pitch=128 time=0.00704225
EXTRACT: pitchwheel channel=11 pitch=-128 time=0.00704225
EXTRACT: pitchwheel channel=11 pitch=-256 time=0.0140845
EXTRACT: note_on channel=0 note=69 velocity=0 time=0.06338025
EXTRACT: note_on channel=0 note=54 velocity=0 time=0
EXTRACT: note_on channel=0 note=61 velocity=0 time=0
EXTRACT: note_on channel=0 note=66 velocity=0 time=0
EXTRACT: note_on channel=0 note=54 velocity=87 time=0
EXTRACT: note_on channel=0 note=61 velocity=87 time=0
EXTRACT: note_on channel=0 note=66 velocity=87 time=0
EXTRACT: note_on channel=0 note=69 velocity=87 time=0
EXTRACT: note_on channel=3 note=73 velocity=0 time=0
EXTRACT: note_on channel=3 note=71 velocity=112 time=0
EXTRACT: note_on channel=8 note=30 velocity=0 time=0
EXTRACT: note_on channel=8 note=30 velocity=123 time=0
EXTRACT: note_on channel=9 note=31 velocity=127 time=0
EXTRACT: note_on channel=9 note=33 velocity=127 time=0
EXTRACT: note_on channel=9 note=46 velocity=100 time=0
EXTRACT: note_on channel=10 note=31 velocity=73 time=0
EXTRACT: note_on channel=11 note=59 velocity=0 time=0
EXTRACT: pitchwheel channel=11 pitch=0 time=0
EXTRACT: note_on channel=9 note=46 velocity=0 time=0.10563375
EXTRACT: note_on channel=9 note=33 velocity=0 time=0
EXTRACT: note_on channel=9 note=31 velocity=0 time=0
EXTRACT: note_on channel=10 note=31 velocity=0 time=0
EXTRACT: note_on channel=11 note=57 velocity=118 time=0.10563375
EXTRACT: control_change channel=11 control=11 value=121 time=0.20422525
EXTRACT: note_on channel=3 note=71 velocity=0 time=0.00704225
EXTRACT: note_on channel=3 note=73 velocity=112 time=0
EXTRACT: note_on channel=8 note=30 velocity=0 time=0
EXTRACT: note_on channel=8 note=30 velocity=123 time=0
EXTRACT: note_on channel=9 note=51 velocity=127 time=0
EXTRACT: note_on channel=9 note=46 velocity=100 time=0
EXTRACT: note_on channel=11 note=57 velocity=0 time=0
EXTRACT: note_on channel=11 note=61 velocity=118 time=0
EXTRACT: control_change channel=11 control=11 value=122 time=0.02112675
EXTRACT: control_change channel=11 control=1 value=5 time=0.02112675
EXTRACT: control_change channel=11 control=1 value=6 time=0.00704225
EXTRACT: control_change channel=11 control=1 value=8 time=0.04929575
EXTRACT: note_on channel=9 note=46 velocity=0 time=0.00704225
EXTRACT: note_on channel=9 note=51 velocity=0 time=0
EXTRACT: control_change channel=11 control=1 value=10 time=0
EXTRACT: pitchwheel channel=11 pitch=-896 time=0.03521125
EXTRACT: pitchwheel channel=11 pitch=-1920 time=0.00704225
EXTRACT: control_change channel=11 control=1 value=16 time=0.0140845
EXTRACT: pitchwheel channel=11 pitch=-2944 time=0
EXTRACT: note_on channel=4 note=52 velocity=0 time=0.0140845
EXTRACT: pitchwheel channel=11 pitch=-3712 time=0
EXTRACT: pitchwheel channel=11 pitch=-5504 time=0.00704225
EXTRACT: note_on channel=1 note=57 velocity=0 time=0.00704225
EXTRACT: pitchwheel channel=11 pitch=-6016 time=0
EXTRACT: note_on channel=1 note=66 velocity=0 time=0.00704225
EXTRACT: note_on channel=4 note=59 velocity=0 time=0.00704225
EXTRACT: note_on channel=4 note=64 velocity=0 time=0
EXTRACT: pitchwheel channel=11 pitch=-7936 time=0
EXTRACT: note_on channel=1 note=61 velocity=0 time=0.00704225
EXTRACT: note_on channel=3 note=73 velocity=0 time=0
EXTRACT: note_on channel=3 note=76 velocity=112 time=0
EXTRACT: control_change channel=11 control=1 value=22 time=0
EXTRACT: note_on channel=4 note=52 velocity=73 time=0.028169
EXTRACT: note_on channel=1 note=69 velocity=0 time=0.028169
EXTRACT: control_change channel=11 control=1 value=30 time=0.00704225
EXTRACT: control_change channel=11 control=11 value=121 time=0.0422535
EXTRACT: control_change channel=11 control=1 value=36 time=0.0140845
EXTRACT: note_on channel=4 note=57 velocity=73 time=0.00704225
EXTRACT: note_on channel=1 note=61 velocity=73 time=0.03521125
EXTRACT: control_change channel=11 control=1 value=44 time=0.00704225
EXTRACT: note_on channel=1 note=52 velocity=73 time=0.0140845
EXTRACT: note_on channel=1 note=56 velocity=73 time=0.02112675
EXTRACT: note_on channel=0 note=69 velocity=0 time=0.00704225
EXTRACT: note_on channel=0 note=54 velocity=0 time=0
EXTRACT: note_on channel=0 note=61 velocity=0 time=0
EXTRACT: note_on channel=0 note=66 velocity=0 time=0
EXTRACT: note_on channel=0 note=56 velocity=87 time=0
EXTRACT: note_on channel=0 note=61 velocity=87 time=0
EXTRACT: note_on channel=0 note=64 velocity=87 time=0
EXTRACT: note_on channel=0 note=68 velocity=87 time=0
EXTRACT: note_on channel=1 note=68 velocity=73 time=0
EXTRACT: note_on channel=2 note=44 velocity=0 time=0
EXTRACT: note_on channel=2 note=54 velocity=0 time=0
EXTRACT: note_on channel=2 note=61 velocity=73 time=0
EXTRACT: note_on channel=2 note=52 velocity=73 time=0
EXTRACT: note_on channel=3 note=76 velocity=0 time=0
EXTRACT: note_on channel=3 note=76 velocity=112 time=0
EXTRACT: note_on channel=8 note=30 velocity=0 time=0
EXTRACT: note_on channel=8 note=37 velocity=123 time=0
EXTRACT: note_on channel=9 note=33 velocity=127 time=0
EXTRACT: note_on channel=9 note=46 velocity=100 time=0
EXTRACT: note_on channel=4 note=61 velocity=73 time=0.02112675
EXTRACT: control_change channel=11 control=1 value=52 time=0
EXTRACT: note_on channel=4 note=64 velocity=73 time=0.04929575
EXTRACT: control_change channel=11 control=1 value=58 time=0.00704225
EXTRACT: control_change channel=11 control=11 value=120 time=0.00704225
EXTRACT: note_on channel=9 note=46 velocity=0 time=0.02112675
EXTRACT: note_on channel=9 note=33 velocity=0 time=0
EXTRACT: control_change channel=11 control=11 value=119 time=0.03521125
EXTRACT: control_change channel=11 control=1 value=64 time=0
EXTRACT: control_change channel=11 control=1 value=72 time=0.02112675
EXTRACT: control_change channel=11 control=1 value=74 time=0.04929575
EXTRACT: control_change channel=11 control=11 value=118 time=0.00704225
EXTRACT: control_change channel=11 control=11 value=117 time=0.00704225
EXTRACT: control_change channel=11 control=11 value=116 time=0.028169
EXTRACT: control_change channel=11 control=1 value=80 time=0.00704225
EXTRACT: control_change channel=11 control=11 value=115 time=0.00704225
EXTRACT: control_change channel=11 control=1 value=86 time=0
EXTRACT: control_change channel=11 control=11 value=113 time=0.00704225
EXTRACT: control_change channel=11 control=11 value=111 time=0.028169
EXTRACT: control_change channel=11 control=1 value=94 time=0.0140845
EXTRACT: control_change channel=11 control=11 value=110 time=0.03521125
EXTRACT: control_change channel=11 control=11 value=109 time=0.00704225
EXTRACT: control_change channel=11 control=11 value=108 time=0.0140845
EXTRACT: control_change channel=11 control=1 value=100 time=0
EXTRACT: control_change channel=11 control=11 value=107 time=0.0140845
EXTRACT: control_change channel=11 control=1 value=106 time=0
EXTRACT: control_change channel=11 control=11 value=105 time=0.00704225
EXTRACT: control_change channel=11 control=11 value=103 time=0.02112675
EXTRACT: note_on channel=3 note=76 velocity=0 time=0.00704225
EXTRACT: note_on channel=3 note=64 velocity=112 time=0
EXTRACT: note_on channel=9 note=51 velocity=127 time=0
EXTRACT: note_on channel=9 note=46 velocity=100 time=0
EXTRACT: control_change channel=11 control=11 value=102 time=0
EXTRACT: control_change channel=11 control=11 value=101 time=0.00704225
EXTRACT: control_change channel=11 control=1 value=112 time=0.00704225
EXTRACT: control_change channel=11 control=11 value=99 time=0.00704225
EXTRACT: control_change channel=11 control=11 value=97 time=0.02112675
EXTRACT: control_change channel=11 control=11 value=96 time=0.00704225
EXTRACT: control_change channel=11 control=11 value=95 time=0.0140845
EXTRACT: control_change channel=11 control=11 value=93 time=0.0140845
EXTRACT: control_change channel=11 control=11 value=92 time=0.00704225
EXTRACT: control_change channel=11 control=1 value=120 time=0
EXTRACT: control_change channel=11 control=11 value=91 time=0.00704225
EXTRACT: control_change channel=11 control=11 value=90 time=0.00704225
EXTRACT: note_on channel=9 note=46 velocity=0 time=0.00704225
EXTRACT: note_on channel=9 note=51 velocity=0 time=0
EXTRACT: control_change channel=11 control=11 value=88 time=0
EXTRACT: control_change channel=11 control=11 value=87 time=0.0140845
EXTRACT: control_change channel=11 control=11 value=86 time=0.00704225
EXTRACT: control_change channel=11 control=11 value=84 time=0.00704225
EXTRACT: control_change channel=11 control=1 value=127 time=0
EXTRACT: control_change channel=11 control=11 value=83 time=0.00704225
EXTRACT: control_change channel=11 control=11 value=82 time=0.00704225
EXTRACT: control_change channel=11 control=11 value=81 time=0.0140845
EXTRACT: control_change channel=11 control=11 value=80 time=0.00704225
EXTRACT: control_change channel=11 control=11 value=78 time=0.00704225
EXTRACT: control_change channel=11 control=11 value=77 time=0.00704225
EXTRACT: note_on channel=11 note=61 velocity=0 time=0.028169
EXTRACT: control_change channel=11 control=1 value=0 time=0.0140845
EXTRACT: control_change channel=11 control=11 value=126 time=0.028169
EXTRACT: note_on channel=0 note=68 velocity=0 time=0.169014
EXTRACT: note_on channel=0 note=56 velocity=0 time=0
EXTRACT: note_on channel=0 note=61 velocity=0 time=0
EXTRACT: note_on channel=0 note=64 velocity=0 time=0
EXTRACT: note_on channel=0 note=56 velocity=87 time=0
EXTRACT: note_on channel=0 note=61 velocity=87 time=0
EXTRACT: note_on channel=0 note=64 velocity=87 time=0
EXTRACT: note_on channel=0 note=68 velocity=87 time=0
EXTRACT: note_on channel=3 note=64 velocity=0 time=0
EXTRACT: note_on channel=3 note=76 velocity=112 time=0
EXTRACT: note_on channel=8 note=37 velocity=0 time=0
EXTRACT: note_on channel=8 note=37 velocity=123 time=0
EXTRACT: note_on channel=9 note=31 velocity=127 time=0
EXTRACT: note_on channel=9 note=33 velocity=127 time=0
EXTRACT: note_on channel=9 note=46 velocity=100 time=0
EXTRACT: note_on channel=10 note=31 velocity=73 time=0
EXTRACT: note_on channel=9 note=46 velocity=0 time=0.10563375
EXTRACT: note_on channel=9 note=33 velocity=0 time=0
EXTRACT: note_on channel=9 note=31 velocity=0 time=0
EXTRACT: note_on channel=10 note=31 velocity=0 time=0
EXTRACT: pitchwheel channel=11 pitch=0 time=0.0422535
EXTRACT: note_on channel=3 note=76 velocity=0 time=0.27464774999999997
EXTRACT: pitchwheel channel=3 pitch=384 time=0
EXTRACT: note_on channel=3 note=71 velocity=112 time=0
EXTRACT: note_on channel=9 note=46 velocity=100 time=0
EXTRACT: note_on channel=11 note=61 velocity=118 time=0
EXTRACT: pitchwheel channel=3 pitch=640 time=0.00704225
EXTRACT: pitchwheel channel=3 pitch=896 time=0.028169
EXTRACT: pitchwheel channel=11 pitch=128 time=0.00704225
EXTRACT: pitchwheel channel=3 pitch=1024 time=0.00704225
EXTRACT: pitchwheel channel=11 pitch=0 time=0
EXTRACT: pitchwheel channel=11 pitch=-128 time=0.00704225
EXTRACT: pitchwheel channel=3 pitch=1280 time=0.0140845
EXTRACT: pitchwheel channel=11 pitch=-256 time=0.00704225
EXTRACT: pitchwheel channel=3 pitch=1408 time=0.00704225
EXTRACT: pitchwheel channel=11 pitch=-384 time=0.00704225
EXTRACT: pitchwheel channel=11 pitch=-512 time=0.00704225
EXTRACT: pitchwheel channel=3 pitch=1664 time=0.00704225
EXTRACT: note_on channel=9 note=46 velocity=0 time=0
EXTRACT: pitchwheel channel=11 pitch=-640 time=0
EXTRACT: pitchwheel channel=3 pitch=1920 time=0.00704225
EXTRACT: pitchwheel channel=11 pitch=-896 time=0.00704225
EXTRACT: pitchwheel channel=11 pitch=-1152 time=0.0140845
EXTRACT: pitchwheel channel=11 pitch=-1280 time=0.00704225
EXTRACT: pitchwheel channel=11 pitch=-1536 time=0.00704225
EXTRACT: pitchwheel channel=3 pitch=2688 time=0.0140845
EXTRACT: pitchwheel channel=3 pitch=2944 time=0.00704225
EXTRACT: pitchwheel channel=11 pitch=-1664 time=0
EXTRACT: pitchwheel channel=11 pitch=-2048 time=0.00704225
EXTRACT: pitchwheel channel=11 pitch=-2176 time=0.00704225
EXTRACT: pitchwheel channel=3 pitch=3712 time=0.00704225
EXTRACT: pitchwheel channel=3 pitch=4224 time=0.00704225
EXTRACT: note_on channel=1 note=61 velocity=0 time=0.00704225
EXTRACT: pitchwheel channel=3 pitch=4992 time=0
EXTRACT: pitchwheel channel=11 pitch=-2432 time=0
EXTRACT: pitchwheel channel=3 pitch=5120 time=0.00704225
EXTRACT: note_on channel=9 note=33 velocity=127 time=0
EXTRACT: pitchwheel channel=11 pitch=-2688 time=0
EXTRACT: pitchwheel channel=3 pitch=5376 time=0.00704225
EXTRACT: pitchwheel channel=11 pitch=-2816 time=0
EXTRACT: note_on channel=1 note=52 velocity=0 time=0.00704225
EXTRACT: pitchwheel channel=11 pitch=-3072 time=0
EXTRACT: pitchwheel channel=3 pitch=5632 time=0.00704225
EXTRACT: pitchwheel channel=11 pitch=-3200 time=0
EXTRACT: note_on channel=1 note=56 velocity=0 time=0.0140845
EXTRACT: pitchwheel channel=3 pitch=5888 time=0
EXTRACT: pitchwheel channel=11 pitch=-3328 time=0
EXTRACT: note_on channel=1 note=68 velocity=0 time=0.00704225
EXTRACT: pitchwheel channel=3 pitch=6144 time=0
EXTRACT: pitchwheel channel=11 pitch=-3584 time=0
EXTRACT: pitchwheel channel=3 pitch=6400 time=0.00704225
EXTRACT: pitchwheel channel=11 pitch=-3712 time=0
EXTRACT: note_on channel=4 note=64 velocity=0 time=0.00704225
EXTRACT: pitchwheel channel=11 pitch=-3840 time=0
EXTRACT: pitchwheel channel=3 pitch=6656 time=0.00704225
EXTRACT: pitchwheel channel=11 pitch=-4224 time=0
EXTRACT: pitchwheel channel=3 pitch=6912 time=0.0140845
EXTRACT: note_on channel=4 note=57 velocity=0 time=0
EXTRACT: pitchwheel channel=11 pitch=-4352 time=0
EXTRACT: pitchwheel channel=3 pitch=7168 time=0.00704225
EXTRACT: pitchwheel channel=3 pitch=7424 time=0.00704225
EXTRACT: pitchwheel channel=11 pitch=-4608 time=0
EXTRACT: pitchwheel channel=11 pitch=-4864 time=0.00704225
EXTRACT: pitchwheel channel=3 pitch=7552 time=0.00704225
EXTRACT: note_on channel=4 note=52 velocity=0 time=0
EXTRACT: note_on channel=9 note=33 velocity=0 time=0
EXTRACT: pitchwheel channel=11 pitch=-5120 time=0
EXTRACT: pitchwheel channel=3 pitch=7680 time=0.00704225
EXTRACT: pitchwheel channel=3 pitch=7936 time=0.00704225
EXTRACT: pitchwheel channel=3 pitch=8191 time=0.00704225
EXTRACT: pitchwheel channel=11 pitch=-5248 time=0
EXTRACT: pitchwheel channel=11 pitch=-5760 time=0.00704225
EXTRACT: pitchwheel channel=11 pitch=-5888 time=0.0140845
EXTRACT: note_on channel=1 note=64 velocity=73 time=0.0140845
EXTRACT: pitchwheel channel=11 pitch=-6272 time=0
EXTRACT: note_on channel=1 note=52 velocity=73 time=0.00704225
EXTRACT: pitchwheel channel=11 pitch=-6784 time=0
EXTRACT: pitchwheel channel=11 pitch=-7808 time=0.00704225
EXTRACT: note_on channel=1 note=69 velocity=73 time=0.00704225
EXTRACT: pitchwheel channel=11 pitch=-8064 time=0
EXTRACT: note_on channel=4 note=52 velocity=73 time=0.00704225
EXTRACT: note_on channel=4 note=61 velocity=0 time=0.00704225
EXTRACT: note_on channel=0 note=68 velocity=0 time=0.0140845
EXTRACT: note_on channel=0 note=56 velocity=0 time=0
EXTRACT: note_on channel=0 note=61 velocity=0 time=0
EXTRACT: note_on channel=0 note=64 velocity=0 time=0
EXTRACT: note_on channel=0 note=69 velocity=87 time=0
EXTRACT: note_on channel=0 note=59 velocity=87 time=0
EXTRACT: note_on channel=0 note=64 velocity=87 time=0
EXTRACT: note_on channel=2 note=52 velocity=0 time=0
EXTRACT: note_on channel=2 note=61 velocity=0 time=0
EXTRACT: note_on channel=2 note=61 velocity=73 time=0
EXTRACT: note_on channel=3 note=71 velocity=0 time=0
EXTRACT: note_on channel=3 note=71 velocity=112 time=0
EXTRACT: note_on channel=4 note=56 velocity=73 time=0
EXTRACT: note_on channel=4 note=64 velocity=73 time=0
EXTRACT: note_on channel=4 note=59 velocity=73 time=0
EXTRACT: note_on channel=8 note=37 velocity=0 time=0
EXTRACT: note_on channel=8 note=40 velocity=123 time=0
EXTRACT: note_on channel=9 note=46 velocity=100 time=0
EXTRACT: note_on channel=11 note=61 velocity=0 time=0
EXTRACT: note_on channel=11 note=61 velocity=118 time=0
EXTRACT: pitchwheel channel=3 pitch=128 time=0.00704225
EXTRACT: pitchwheel channel=3 pitch=0 time=0.028169
EXTRACT: note_on channel=1 note=59 velocity=73 time=0.0140845
EXTRACT: note_on channel=9 note=46 velocity=0 time=0.056338
EXTRACT: note_on channel=9 note=33 velocity=127 time=0.10563375
EXTRACT: note_on channel=9 note=33 velocity=0 time=0.10563375
EXTRACT: note_on channel=0 note=64 velocity=0 time=0.10563375
EXTRACT: note_on channel=0 note=64 velocity=87 time=0
EXTRACT: note_on channel=2 note=61 velocity=0 time=0
EXTRACT: note_on channel=2 note=59 velocity=73 time=0
EXTRACT: note_on channel=2 note=62 velocity=73 time=0
EXTRACT: note_on channel=3 note=71 velocity=0 time=0
EXTRACT: note_on channel=3 note=73 velocity=112 time=0
EXTRACT: note_on channel=8 note=40 velocity=0 time=0
EXTRACT: note_on channel=8 note=40 velocity=123 time=0
EXTRACT: note_on channel=9 note=33 velocity=127 time=0
EXTRACT: note_on channel=9 note=46 velocity=100 time=0
EXTRACT: note_on channel=11 note=61 velocity=0 time=0
EXTRACT: note_on channel=11 note=61 velocity=118 time=0
EXTRACT: pitchwheel channel=11 pitch=0 time=0.00704225
EXTRACT: note_on channel=9 note=46 velocity=0 time=0.0985915
EXTRACT: note_on channel=9 note=33 velocity=0 time=0
EXTRACT: note_on channel=8 note=40 velocity=0 time=0.10563375
EXTRACT: note_on channel=8 note=40 velocity=123 time=0
EXTRACT: note_on channel=0 note=64 velocity=0 time=0.2112675
EXTRACT: note_on channel=0 note=59 velocity=0 time=0
EXTRACT: note_on channel=0 note=69 velocity=0 time=0
EXTRACT: note_on channel=0 note=69 velocity=87 time=0
EXTRACT: note_on channel=0 note=59 velocity=87 time=0
EXTRACT: note_on channel=0 note=64 velocity=87 time=0
EXTRACT: note_on channel=2 note=62 velocity=0 time=0
EXTRACT: note_on channel=2 note=59 velocity=0 time=0
EXTRACT: note_on channel=2 note=61 velocity=73 time=0
EXTRACT: note_on channel=3 note=73 velocity=0 time=0
EXTRACT: note_on channel=3 note=71 velocity=112 time=0
EXTRACT: note_on channel=8 note=40 velocity=0 time=0
EXTRACT: note_on channel=8 note=40 velocity=123 time=0
EXTRACT: note_on channel=9 note=31 velocity=127 time=0
EXTRACT: note_on channel=9 note=33 velocity=127 time=0
EXTRACT: note_on channel=9 note=46 velocity=100 time=0
EXTRACT: note_on channel=10 note=31 velocity=73 time=0
EXTRACT: note_on channel=11 note=61 velocity=0 time=0
EXTRACT: note_on channel=11 note=62 velocity=118 time=0
EXTRACT: note_on channel=9 note=46 velocity=0 time=0.10563375
EXTRACT: note_on channel=9 note=33 velocity=0 time=0
EXTRACT: note_on channel=9 note=31 velocity=0 time=0
EXTRACT: note_on channel=10 note=31 velocity=0 time=0
EXTRACT: note_on channel=0 note=64 velocity=0 time=0.31690125
EXTRACT: note_on channel=0 note=64 velocity=87 time=0
EXTRACT: note_on channel=2 note=61 velocity=0 time=0
EXTRACT: note_on channel=2 note=59 velocity=73 time=0
EXTRACT: note_on channel=2 note=62 velocity=73 time=0
EXTRACT: note_on channel=3 note=71 velocity=0 time=0
EXTRACT: note_on channel=3 note=73 velocity=112 time=0
EXTRACT: note_on channel=8 note=40 velocity=0 time=0
EXTRACT: note_on channel=8 note=40 velocity=123 time=0
EXTRACT: note_on channel=9 note=51 velocity=127 time=0
EXTRACT: note_on channel=9 note=46 velocity=100 time=0
EXTRACT: note_on channel=11 note=62 velocity=0 time=0
EXTRACT: note_on channel=11 note=61 velocity=118 time=0
EXTRACT: pitchwheel channel=11 pitch=-7936 time=0.0140845
EXTRACT: note_on channel=9 note=46 velocity=0 time=0.09154925
EXTRACT: note_on channel=9 note=51 velocity=0 time=0
EXTRACT: pitchwheel channel=11 pitch=-8064 time=0
EXTRACT: pitchwheel channel=11 pitch=-7808 time=0.00704225
EXTRACT: pitchwheel channel=11 pitch=-7552 time=0.00704225
EXTRACT: pitchwheel channel=11 pitch=-7296 time=0.0140845
EXTRACT: pitchwheel channel=11 pitch=-6912 time=0.00704225
EXTRACT: pitchwheel channel=11 pitch=-6656 time=0.00704225
EXTRACT: pitchwheel channel=11 pitch=-6400 time=0.00704225
EXTRACT: pitchwheel channel=11 pitch=-6144 time=0.00704225
EXTRACT: note_on channel=4 note=52 velocity=0 time=0.0140845
EXTRACT: pitchwheel channel=11 pitch=-5760 time=0
EXTRACT: pitchwheel channel=11 pitch=-5504 time=0.00704225
EXTRACT: pitchwheel channel=11 pitch=-5248 time=0.00704225
EXTRACT: note_on channel=4 note=56 velocity=0 time=0.00704225
EXTRACT: note_on channel=4 note=64 velocity=0 time=0
EXTRACT: note_on channel=4 note=59 velocity=0 time=0
EXTRACT: pitchwheel channel=11 pitch=-4992 time=0
EXTRACT: note_on channel=1 note=64 velocity=0 time=0.00704225
EXTRACT: pitchwheel channel=11 pitch=-4608 time=0
EXTRACT: note_on channel=1 note=52 velocity=0 time=0.00704225
EXTRACT: pitchwheel channel=11 pitch=-4352 time=0.00704225
EXTRACT: note_on channel=1 note=69 velocity=0 time=0.00704225
EXTRACT: pitchwheel channel=11 pitch=-4096 time=0
EXTRACT: pitchwheel channel=11 pitch=-3840 time=0.00704225
EXTRACT: pitchwheel channel=11 pitch=-3456 time=0.00704225
EXTRACT: pitchwheel channel=11 pitch=-3200 time=0.00704225
EXTRACT: pitchwheel channel=11 pitch=-2944 time=0.0140845
EXTRACT: pitchwheel channel=11 pitch=-2688 time=0.00704225
EXTRACT: pitchwheel channel=11 pitch=-2304 time=0.00704225
EXTRACT: pitchwheel channel=11 pitch=-2048 time=0.00704225
EXTRACT: note_on channel=4 note=52 velocity=73 time=0.00704225
EXTRACT: pitchwheel channel=11 pitch=-1792 time=0
EXTRACT: note_on channel=1 note=59 velocity=0 time=0.0140845
EXTRACT: pitchwheel channel=11 pitch=-1536 time=0
EXTRACT: pitchwheel channel=11 pitch=-1152 time=0.00704225
EXTRACT: pitchwheel channel=11 pitch=-896 time=0.00704225
EXTRACT: pitchwheel channel=11 pitch=-640 time=0.00704225
EXTRACT: pitchwheel channel=11 pitch=-384 time=0.00704225
EXTRACT: pitchwheel channel=11 pitch=0 time=0.0140845
EXTRACT: note_on channel=1 note=69 velocity=73 time=0.028169
EXTRACT: note_on channel=4 note=57 velocity=73 time=0.0140845
EXTRACT: control_change channel=11 control=1 value=7 time=0.02112675
EXTRACT: control_change channel=11 control=1 value=10 time=0.00704225
EXTRACT: control_change channel=11 control=11 value=126 time=0
EXTRACT: note_on channel=0 note=64 velocity=0 time=0.00704225
EXTRACT: note_on channel=0 note=59 velocity=0 time=0
EXTRACT: note_on channel=0 note=69 velocity=0 time=0
EXTRACT: note_on channel=0 note=57 velocity=84 time=0
EXTRACT: note_on channel=0 note=61 velocity=84 time=0
EXTRACT: note_on channel=0 note=64 velocity=84 time=0
EXTRACT: note_on channel=0 note=69 velocity=84 time=0
EXTRACT: note_on channel=2 note=62 velocity=0 time=0
EXTRACT: note_on channel=2 note=59 velocity=0 time=0
EXTRACT: note_on channel=2 note=52 velocity=73 time=0
EXTRACT: note_on channel=2 note=45 velocity=73 time=0
EXTRACT: note_on channel=3 note=73 velocity=0 time=0
EXTRACT: note_on channel=3 note=76 velocity=112 time=0
EXTRACT: note_on channel=4 note=61 velocity=73 time=0
EXTRACT: note_on channel=8 note=40 velocity=0 time=0
EXTRACT: note_on channel=8 note=33 velocity=123 time=0
EXTRACT: note_on channel=9 note=33 velocity=127 time=0
EXTRACT: note_on channel=9 note=46 velocity=100 time=0
EXTRACT: note_on channel=9 note=57 velocity=100 time=0
EXTRACT: note_on channel=11 note=61 velocity=0 time=0
EXTRACT: note_on channel=11 note=61 velocity=118 time=0
EXTRACT: control_change channel=11 control=1 value=13 time=0.00704225
EXTRACT: note_on channel=11 note=64 velocity=80 time=0
EXTRACT: control_change channel=11 control=1 value=15 time=0.00704225
EXTRACT: note_on channel=1 note=61 velocity=73 time=0.00704225
EXTRACT: control_change channel=11 control=1 value=21 time=0.00704225
EXTRACT: control_change channel=11 control=1 value=29 time=0.00704225
EXTRACT: note_on channel=4 note=64 velocity=73 time=0.0140845
EXTRACT: control_change channel=11 control=1 value=35 time=0
EXTRACT: control_change channel=11 control=1 value=37 time=0.0140845
EXTRACT: note_on channel=1 note=57 velocity=73 time=0.00704225
EXTRACT: control_change channel=11 control=1 value=43 time=0
EXTRACT: control_change channel=11 control=11 value=125 time=0
EXTRACT: control_change channel=11 control=1 value=44 time=0.00704225
EXTRACT: control_change channel=11 control=1 value=50 time=0.0140845
EXTRACT: control_change channel=11 control=1 value=52 time=0.00704225
EXTRACT: control_change channel=11 control=11 value=124 time=0
EXTRACT: note_on channel=9 note=57 velocity=0 time=0.00704225
EXTRACT: note_on channel=9 note=46 velocity=0 time=0
EXTRACT: note_on channel=9 note=33 velocity=0 time=0
EXTRACT: control_change channel=11 control=1 value=54 time=0
EXTRACT: control_change channel=11 control=1 value=57 time=0.00704225
EXTRACT: control_change channel=11 control=11 value=123 time=0
EXTRACT: control_change channel=11 control=11 value=122 time=0.00704225
EXTRACT: control_change channel=11 control=1 value=59 time=0.0140845
EXTRACT: control_change channel=11 control=1 value=60 time=0.00704225
EXTRACT: control_change channel=11 control=11 value=121 time=0
EXTRACT: control_change channel=11 control=1 value=62 time=0.00704225
EXTRACT: control_change channel=11 control=1 value=64 time=0.0140845
EXTRACT: control_change channel=11 control=11 value=120 time=0
EXTRACT: control_change channel=11 control=1 value=65 time=0.0140845
EXTRACT: control_change channel=11 control=11 value=119 time=0
EXTRACT: control_change channel=11 control=1 value=66 time=0.0140845
EXTRACT: control_change channel=11 control=1 value=67 time=0.0140845
EXTRACT: control_change channel=11 control=11 value=117 time=0.02112675
EXTRACT: control_change channel=11 control=1 value=68 time=0.03521125
EXTRACT: control_change channel=11 control=1 value=70 time=0.00704225
EXTRACT: control_change channel=11 control=11 value=116 time=0.00704225
EXTRACT: control_change channel=11 control=11 value=115 time=0.0140845
EXTRACT: control_change channel=11 control=1 value=71 time=0.028169
EXTRACT: control_change channel=11 control=1 value=72 time=0.00704225
EXTRACT: control_change channel=11 control=11 value=114 time=0.02112675
EXTRACT: control_change channel=11 control=11 value=113 time=0.0140845
EXTRACT: control_change channel=11 control=1 value=74 time=0.0140845
EXTRACT: control_change channel=11 control=11 value=112 time=0
EXTRACT: control_change channel=11 control=1 value=76 time=0.0140845
EXTRACT: control_change channel=11 control=11 value=111 time=0
EXTRACT: control_change channel=11 control=11 value=110 time=0.0140845
EXTRACT: control_change channel=11 control=11 value=109 time=0.00704225
EXTRACT: note_on channel=3 note=76 velocity=0 time=0.0140845
EXTRACT: note_on channel=3 note=64 velocity=112 time=0
EXTRACT: note_on channel=9 note=51 velocity=127 time=0
EXTRACT: note_on channel=9 note=46 velocity=100 time=0
EXTRACT: control_change channel=11 control=11 value=108 time=0.00704225
EXTRACT: control_change channel=11 control=1 value=78 time=0.00704225
EXTRACT: control_change channel=11 control=11 value=107 time=0.00704225
EXTRACT: control_change channel=11 control=1 value=80 time=0.00704225
EXTRACT: control_change channel=11 control=1 value=81 time=0.02112675
EXTRACT: control_change channel=11 control=1 value=82 time=0.00704225
EXTRACT: control_change channel=11 control=11 value=106 time=0.0140845
EXTRACT: note_on channel=9 note=46 velocity=0 time=0.03521125
EXTRACT: note_on channel=9 note=51 velocity=0 time=0
EXTRACT: control_change channel=11 control=1 value=83 time=0
EXTRACT: control_change channel=11 control=1 value=84 time=0.00704225
EXTRACT: control_change channel=11 control=1 value=86 time=0.00704225
EXTRACT: control_change channel=11 control=11 value=104 time=0
EXTRACT: control_change channel=11 control=1 value=87 time=0.02112675
EXTRACT: control_change channel=11 control=11 value=103 time=0
EXTRACT: control_change channel=11 control=1 value=88 time=0.00704225
EXTRACT: control_change channel=11 control=1 value=90 time=0.0140845
EXTRACT: control_change channel=11 control=1 value=92 time=0.02112675
EXTRACT: control_change channel=11 control=1 value=94 time=0.00704225
EXTRACT: control_change channel=11 control=1 value=95 time=0.00704225
EXTRACT: control_change channel=11 control=1 value=96 time=0.00704225
EXTRACT: control_change channel=11 control=11 value=102 time=0
EXTRACT: control_change channel=11 control=1 value=98 time=0.0140845
EXTRACT: control_change channel=11 control=11 value=101 time=0
EXTRACT: control_change channel=11 control=1 value=99 time=0.0140845
EXTRACT: control_change channel=11 control=1 value=100 time=0.00704225
EXTRACT: control_change channel=11 control=1 value=102 time=0.00704225
EXTRACT: control_change channel=11 control=1 value=103 time=0.0140845
EXTRACT: control_change channel=11 control=1 value=104 time=0.00704225
EXTRACT: control_change channel=11 control=11 value=100 time=0
EXTRACT: control_change channel=11 control=1 value=106 time=0.00704225
EXTRACT: control_change channel=11 control=11 value=98 time=0
EXTRACT: control_change channel=11 control=1 value=108 time=0.00704225
EXTRACT: control_change channel=11 control=1 value=110 time=0.00704225
EXTRACT: control_change channel=11 control=1 value=111 time=0.0140845
EXTRACT: control_change channel=11 control=11 value=97 time=0
EXTRACT: control_change channel=11 control=1 value=112 time=0.00704225
EXTRACT: control_change channel=11 control=1 value=115 time=0.00704225
EXTRACT: control_change channel=11 control=11 value=96 time=0
EXTRACT: control_change channel=11 control=1 value=116 time=0.00704225
EXTRACT: control_change channel=11 control=1 value=118 time=0.00704225
EXTRACT: control_change channel=11 control=11 value=95 time=0
EXTRACT: control_change channel=11 control=1 value=120 time=0.0140845
EXTRACT: control_change channel=11 control=1 value=122 time=0.00704225
EXTRACT: control_change channel=11 control=11 value=94 time=0
EXTRACT: control_change channel=11 control=1 value=123 time=0.00704225
EXTRACT: control_change channel=11 control=11 value=92 time=0.00704225
EXTRACT: note_on channel=11 note=61 velocity=0 time=0.02112675
EXTRACT: note_on channel=11 note=64 velocity=0 time=0.00704225
EXTRACT: note_on channel=0 note=69 velocity=0 time=0.028169
EXTRACT: note_on channel=0 note=57 velocity=0 time=0
EXTRACT: note_on channel=0 note=61 velocity=0 time=0
EXTRACT: note_on channel=0 note=64 velocity=0 time=0
EXTRACT: note_on channel=0 note=57 velocity=87 time=0
EXTRACT: note_on channel=0 note=61 velocity=87 time=0
EXTRACT: note_on channel=0 note=64 velocity=87 time=0
EXTRACT: note_on channel=0 note=69 velocity=87 time=0
EXTRACT: note_on channel=3 note=64 velocity=0 time=0
EXTRACT: note_on channel=3 note=76 velocity=112 time=0
EXTRACT: note_on channel=8 note=33 velocity=0 time=0
EXTRACT: note_on channel=8 note=33 velocity=123 time=0
EXTRACT: note_on channel=9 note=31 velocity=127 time=0
EXTRACT: note_on channel=9 note=33 velocity=127 time=0
EXTRACT: note_on channel=9 note=46 velocity=100 time=0
EXTRACT: note_on channel=10 note=31 velocity=73 time=0
EXTRACT: control_change channel=11 control=1 value=0 time=0.00704225
EXTRACT: control_change channel=11 control=11 value=127 time=0.04929575
EXTRACT: note_on channel=9 note=46 velocity=0 time=0.04929575
EXTRACT: note_on channel=9 note=33 velocity=0 time=0
EXTRACT: note_on channel=9 note=31 velocity=0 time=0
EXTRACT: note_on channel=10 note=31 velocity=0 time=0
EXTRACT: note_on channel=11 note=57 velocity=118 time=0.10563375
EXTRACT: note_on channel=3 note=76 velocity=0 time=0.2112675
EXTRACT: note_on channel=3 note=64 velocity=112 time=0
EXTRACT: note_on channel=9 note=46 velocity=100 time=0
EXTRACT: note_on channel=11 note=57 velocity=0 time=0
EXTRACT: control_change channel=11 control=11 value=125 time=0
EXTRACT: note_on channel=11 note=61 velocity=118 time=0
EXTRACT: note_on channel=11 note=64 velocity=80 time=0
EXTRACT: pitchwheel channel=11 pitch=-8064 time=0.00704225
EXTRACT: control_change channel=11 control=1 value=2 time=0.00704225
EXTRACT: pitchwheel channel=11 pitch=-7808 time=0
EXTRACT: control_change channel=11 control=1 value=3 time=0.0140845
EXTRACT: pitchwheel channel=11 pitch=-7552 time=0
EXTRACT: pitchwheel channel=11 pitch=-7296 time=0.00704225
EXTRACT: control_change channel=11 control=1 value=5 time=0.00704225
EXTRACT: pitchwheel channel=11 pitch=-7168 time=0
EXTRACT: control_change channel=11 control=1 value=7 time=0.00704225
EXTRACT: pitchwheel channel=11 pitch=-6912 time=0
EXTRACT: pitchwheel channel=11 pitch=-6656 time=0.00704225
EXTRACT: control_change channel=11 control=1 value=8 time=0.00704225
EXTRACT: pitchwheel channel=11 pitch=-6400 time=0.00704225
EXTRACT: pitchwheel channel=11 pitch=-6272 time=0.00704225
EXTRACT: control_change channel=11 control=11 value=124 time=0.00704225
EXTRACT: control_change channel=11 control=1 value=14 time=0
EXTRACT: pitchwheel channel=11 pitch=-6016 time=0
EXTRACT: pitchwheel channel=11 pitch=-5760 time=0.00704225
EXTRACT: control_change channel=11 control=1 value=16 time=0.00704225
EXTRACT: pitchwheel channel=11 pitch=-5632 time=0
EXTRACT: note_on channel=9 note=46 velocity=0 time=0.00704225
EXTRACT: control_change channel=11 control=1 value=18 time=0.00704225
EXTRACT: pitchwheel channel=11 pitch=-5376 time=0
EXTRACT: pitchwheel channel=11 pitch=-5120 time=0.00704225
EXTRACT: pitchwheel channel=11 pitch=-4864 time=0.00704225
EXTRACT: control_change channel=11 control=11 value=123 time=0.00704225
EXTRACT: pitchwheel channel=11 pitch=-4736 time=0
EXTRACT: pitchwheel channel=11 pitch=-4480 time=0.00704225
EXTRACT: pitchwheel channel=11 pitch=-4224 time=0.0140845
EXTRACT: pitchwheel channel=11 pitch=-4096 time=0.00704225
EXTRACT: control_change channel=11 control=1 value=20 time=0.00704225
EXTRACT: pitchwheel channel=11 pitch=-3840 time=0
EXTRACT: control_change channel=11 control=1 value=22 time=0.00704225
EXTRACT: pitchwheel channel=11 pitch=-3584 time=0
EXTRACT: pitchwheel channel=11 pitch=-3328 time=0.00704225
EXTRACT: pitchwheel channel=11 pitch=-3200 time=0.0140845
EXTRACT: note_on channel=1 note=69 velocity=0 time=0.00704225
EXTRACT: pitchwheel channel=11 pitch=-2944 time=0
EXTRACT: note_on channel=8 note=33 velocity=0 time=0.00704225
EXTRACT: note_on channel=8 note=33 velocity=123 time=0
EXTRACT: note_on channel=9 note=33 velocity=127 time=0
EXTRACT: pitchwheel channel=11 pitch=-2688 time=0
EXTRACT: control_change channel=11 control=11 value=122 time=0.00704225
EXTRACT: pitchwheel channel=11 pitch=-2432 time=0
EXTRACT: control_change channel=11 control=1 value=24 time=0.00704225
EXTRACT: pitchwheel channel=11 pitch=-2304 time=0
EXTRACT: control_change channel=11 control=1 value=26 time=0.0140845
EXTRACT: pitchwheel channel=11 pitch=-2048 time=0
EXTRACT: pitchwheel channel=11 pitch=-1792 time=0.00704225
EXTRACT: pitchwheel channel=11 pitch=-1664 time=0.00704225
EXTRACT: control_change channel=11 control=1 value=28 time=0.00704225
EXTRACT: pitchwheel channel=11 pitch=-1408 time=0
EXTRACT: pitchwheel channel=11 pitch=-1152 time=0.00704225
EXTRACT: note_on channel=1 note=61 velocity=0 time=0.00704225
EXTRACT: control_change channel=11 control=1 value=30 time=0
EXTRACT: control_change channel=11 control=11 value=120 time=0.00704225
EXTRACT: pitchwheel channel=11 pitch=-896 time=0
EXTRACT: pitchwheel channel=11 pitch=-768 time=0.00704225
EXTRACT: control_change channel=11 control=1 value=32 time=0.00704225
EXTRACT: pitchwheel channel=11 pitch=-512 time=0
EXTRACT: control_change channel=11 control=1 value=38 time=0.00704225
EXTRACT: pitchwheel channel=11 pitch=-256 time=0
EXTRACT: pitchwheel channel=11 pitch=-128 time=0.00704225
EXTRACT: note_on channel=9 note=33 velocity=0 time=0.00704225
EXTRACT: control_change channel=11 control=1 value=39 time=0
EXTRACT: note_on channel=1 note=57 velocity=0 time=0.00704225
EXTRACT: note_on channel=4 note=57 velocity=0 time=0.0140845
EXTRACT: control_change channel=11 control=1 value=41 time=0
EXTRACT: control_change channel=11 control=1 value=43 time=0.00704225
EXTRACT: control_change channel=11 control=11 value=119 time=0.00704225
EXTRACT: note_on channel=1 note=56 velocity=73 time=0.00704225
EXTRACT: control_change channel=11 control=1 value=45 time=0
EXTRACT: note_on channel=4 note=52 velocity=0 time=0.00704225
EXTRACT: note_on channel=4 note=52 velocity=73 time=0
EXTRACT: control_change channel=11 control=1 value=47 time=0
EXTRACT: note_on channel=1 note=61 velocity=73 time=0.0140845
EXTRACT: note_on channel=4 note=61 velocity=0 time=0.00704225
EXTRACT: note_on channel=4 note=59 velocity=73 time=0
EXTRACT: control_change channel=11 control=1 value=49 time=0
EXTRACT: control_change channel=11 control=1 value=51 time=0.0140845
EXTRACT: note_on channel=0 note=69 velocity=0 time=0.02112675
EXTRACT: note_on channel=0 note=57 velocity=0 time=0
EXTRACT: note_on channel=0 note=61 velocity=0 time=0
EXTRACT: note_on channel=0 note=64 velocity=0 time=0
EXTRACT: note_on channel=0 note=56 velocity=87 time=0
EXTRACT: note_on channel=0 note=61 velocity=87 time=0
EXTRACT: note_on channel=0 note=64 velocity=87 time=0
EXTRACT: note_on channel=0 note=68 velocity=87 time=0
EXTRACT: note_on channel=2 note=45 velocity=0 time=0
EXTRACT: note_on channel=2 note=52 velocity=0 time=0
EXTRACT: note_on channel=2 note=52 velocity=73 time=0
EXTRACT: note_on channel=2 note=44 velocity=73 time=0
EXTRACT: note_on channel=3 note=64 velocity=0 time=0
EXTRACT: note_on channel=3 note=71 velocity=112 time=0
EXTRACT: note_on channel=8 note=33 velocity=0 time=0
EXTRACT: note_on channel=8 note=32 velocity=123 time=0
EXTRACT: note_on channel=9 note=46 velocity=100 time=0
EXTRACT: control_change channel=11 control=1 value=53 time=0
EXTRACT: note_on channel=4 note=64 velocity=73 time=0.00704225
EXTRACT: control_change channel=11 control=1 value=55 time=0
EXTRACT: note_on channel=1 note=68 velocity=73 time=0.00704225
EXTRACT: note_on channel=4 note=64 velocity=0 time=0
EXTRACT: control_change channel=11 control=1 value=61 time=0.00704225
EXTRACT: control_change channel=11 control=11 value=118 time=0.00704225
EXTRACT: control_change channel=11 control=1 value=63 time=0.0140845
EXTRACT: control_change channel=11 control=11 value=117 time=0.00704225
EXTRACT: control_change channel=11 control=1 value=65 time=0
EXTRACT: control_change channel=11 control=11 value=116 time=0.00704225
EXTRACT: control_change channel=11 control=1 value=67 time=0.00704225
EXTRACT: control_change channel=11 control=11 value=115 time=0.00704225
EXTRACT: control_change channel=11 control=1 value=69 time=0.0140845
EXTRACT: control_change channel=11 control=11 value=114 time=0.00704225
EXTRACT: control_change channel=11 control=1 value=71 time=0.00704225
EXTRACT: note_on channel=9 note=46 velocity=0 time=0.00704225
EXTRACT: control_change channel=11 control=1 value=73 time=0
EXTRACT: control_change channel=11 control=1 value=74 time=0.02112675
EXTRACT: control_change channel=11 control=11 value=113 time=0.0140845
EXTRACT: control_change channel=11 control=1 value=76 time=0
EXTRACT: control_change channel=11 control=11 value=112 time=0.00704225
EXTRACT: control_change channel=11 control=1 value=77 time=0
EXTRACT: control_change channel=11 control=1 value=78 time=0.02112675
EXTRACT: control_change channel=11 control=1 value=80 time=0.0140845
EXTRACT: control_change channel=11 control=11 value=111 time=0.0140845
EXTRACT: control_change channel=11 control=1 value=81 time=0
EXTRACT: note_on channel=9 note=33 velocity=127 time=0.0140845
EXTRACT: control_change channel=11 control=1 value=82 time=0
EXTRACT: control_change channel=11 control=11 value=110 time=0.00704225
EXTRACT: control_change channel=11 control=11 value=109 time=0.0140845
EXTRACT: control_change channel=11 control=1 value=84 time=0
EXTRACT: control_change channel=11 control=1 value=85 time=0.02112675
EXTRACT: control_change channel=11 control=1 value=86 time=0.0140845
EXTRACT: control_change channel=11 control=1 value=87 time=0.00704225
EXTRACT: control_change channel=11 control=11 value=108 time=0.00704225
EXTRACT: control_change channel=11 control=1 value=88 time=0.0140845
EXTRACT: control_change channel=11 control=11 value=107 time=0.00704225
EXTRACT: control_change channel=11 control=1 value=89 time=0.00704225
EXTRACT: note_on channel=9 note=33 velocity=0 time=0.00704225
EXTRACT: control_change channel=11 control=11 value=106 time=0.02112675
EXTRACT: control_change channel=11 control=1 value=90 time=0
EXTRACT: control_change channel=11 control=11 value=105 time=0.02112675
EXTRACT: control_change channel=11 control=1 value=91 time=0
EXTRACT: control_change channel=11 control=11 value=104 time=0.00704225
EXTRACT: control_change channel=11 control=1 value=93 time=0.0140845
EXTRACT: control_change channel=11 control=11 value=103 time=0.0140845
EXTRACT: control_change channel=11 control=1 value=94 time=0
EXTRACT: control_change channel=11 control=11 value=102 time=0.00704225
EXTRACT: control_change channel=11 control=1 value=95 time=0.00704225
EXTRACT: note_on channel=3 note=71 velocity=0 time=0.0140845
EXTRACT: note_on channel=3 note=73 velocity=112 time=0
EXTRACT: note_on channel=9 note=33 velocity=127 time=0
EXTRACT: note_on channel=9 note=46 velocity=100 time=0
EXTRACT: control_change channel=11 control=11 value=100 time=0
EXTRACT: control_change channel=11 control=1 value=96 time=0
EXTRACT: control_change channel=11 control=11 value=98 time=0.0140845
EXTRACT: control_change channel=11 control=1 value=97 time=0.00704225
EXTRACT: control_change channel=11 control=1 value=98 time=0.028169
EXTRACT: control_change channel=11 control=11 value=97 time=0.0140845
EXTRACT: control_change channel=11 control=1 value=99 time=0.00704225
EXTRACT: control_change channel=11 control=1 value=100 time=0.02112675
EXTRACT: control_change channel=11 control=1 value=101 time=0.00704225
EXTRACT: note_on channel=9 note=46 velocity=0 time=0.00704225
EXTRACT: note_on channel=9 note=33 velocity=0 time=0
EXTRACT: control_change channel=11 control=11 value=96 time=0.00704225
EXTRACT: control_change channel=11 control=1 value=102 time=0
EXTRACT: control_change channel=11 control=11 value=95 time=0.02112675
EXTRACT: control_change channel=11 control=1 value=103 time=0
EXTRACT: control_change channel=11 control=1 value=104 time=0.00704225
EXTRACT: control_change channel=11 control=11 value=94 time=0.00704225
EXTRACT: control_change channel=11 control=11 value=93 time=0.00704225
EXTRACT: control_change channel=11 control=1 value=105 time=0
EXTRACT: control_change channel=11 control=11 value=92 time=0.0140845
EXTRACT: control_change channel=11 control=11 value=91 time=0.00704225
EXTRACT: control_change channel=11 control=1 value=106 time=0
EXTRACT: control_change channel=11 control=11 value=90 time=0.00704225
EXTRACT: control_change channel=11 control=1 value=107 time=0
EXTRACT: control_change channel=11 control=11 value=89 time=0.00704225
EXTRACT: control_change channel=11 control=1 value=108 time=0
EXTRACT: control_change channel=11 control=11 value=88 time=0.00704225
EXTRACT: control_change channel=11 control=1 value=109 time=0.0140845
EXTRACT: control_change channel=11 control=11 value=87 time=0.0140845
EXTRACT: control_change channel=11 control=1 value=110 time=0
EXTRACT: control_change channel=11 control=11 value=86 time=0.00704225
EXTRACT: control_change channel=11 control=1 value=111 time=0
EXTRACT: control_change channel=11 control=1 value=112 time=0.02112675
EXTRACT: control_change channel=11 control=11 value=84 time=0.00704225
EXTRACT: control_change channel=11 control=1 value=113 time=0
EXTRACT: control_change channel=11 control=1 value=114 time=0.00704225
EXTRACT: control_change channel=11 control=11 value=83 time=0.0140845
EXTRACT: control_change channel=11 control=1 value=115 time=0
EXTRACT: control_change channel=11 control=1 value=117 time=0.0140845
EXTRACT: control_change channel=11 control=11 value=82 time=0.00704225
EXTRACT: control_change channel=11 control=1 value=118 time=0
EXTRACT: control_change channel=11 control=1 value=120 time=0.0140845
EXTRACT: control_change channel=11 control=11 value=80 time=0.00704225
EXTRACT: control_change channel=11 control=1 value=122 time=0
EXTRACT: control_change channel=11 control=1 value=124 time=0.0140845
EXTRACT: control_change channel=11 control=11 value=79 time=0.0140845
EXTRACT: control_change channel=11 control=1 value=125 time=0
EXTRACT: control_change channel=11 control=1 value=126 time=0.00704225
EXTRACT: control_change channel=11 control=11 value=78 time=0.00704225
EXTRACT: control_change channel=11 control=1 value=127 time=0
EXTRACT: control_change channel=11 control=11 value=77 time=0.028169
EXTRACT: control_change channel=11 control=11 value=76 time=0.0140845
EXTRACT: note_on channel=0 note=68 velocity=0 time=0.0140845
EXTRACT: note_on channel=0 note=56 velocity=0 time=0
EXTRACT: note_on channel=0 note=61 velocity=0 time=0
EXTRACT: note_on channel=0 note=64 velocity=0 time=0
EXTRACT: note_on channel=0 note=56 velocity=87 time=0
EXTRACT: note_on channel=0 note=61 velocity=87 time=0
EXTRACT: note_on channel=0 note=64 velocity=87 time=0
EXTRACT: note_on channel=0 note=68 velocity=87 time=0
EXTRACT: note_on channel=3 note=73 velocity=0 time=0
EXTRACT: note_on channel=3 note=71 velocity=112 time=0
EXTRACT: note_on channel=8 note=32 velocity=0 time=0
EXTRACT: note_on channel=8 note=32 velocity=123 time=0
EXTRACT: note_on channel=9 note=31 velocity=127 time=0
EXTRACT: note_on channel=9 note=33 velocity=127 time=0
EXTRACT: note_on channel=9 note=46 velocity=100 time=0
EXTRACT: note_on channel=10 note=31 velocity=73 time=0
EXTRACT: note_on channel=11 note=64 velocity=0 time=0
EXTRACT: note_on channel=11 note=61 velocity=0 time=0
EXTRACT: control_change channel=11 control=11 value=125 time=0.04929575
EXTRACT: control_change channel=11 control=1 value=1 time=0
EXTRACT: control_change channel=11 control=11 value=127 time=0.00704225
EXTRACT: note_on channel=9 note=46 velocity=0 time=0.04929575
EXTRACT: note_on channel=9 note=33 velocity=0 time=0
EXTRACT: note_on channel=9 note=31 velocity=0 time=0
EXTRACT: note_on channel=10 note=31 velocity=0 time=0
EXTRACT: note_on channel=11 note=57 velocity=118 time=0.10563375
EXTRACT: note_on channel=3 note=71 velocity=0 time=0.2112675
EXTRACT: note_on channel=3 note=73 velocity=112 time=0
EXTRACT: note_on channel=8 note=32 velocity=0 time=0
EXTRACT: note_on channel=8 note=32 velocity=123 time=0
EXTRACT: note_on channel=9 note=51 velocity=127 time=0
EXTRACT: note_on channel=9 note=46 velocity=100 time=0
EXTRACT: note_on channel=11 note=57 velocity=0 time=0
EXTRACT: control_change channel=11 control=11 value=125 time=0
EXTRACT: note_on channel=11 note=61 velocity=118 time=0
EXTRACT: note_on channel=11 note=64 velocity=80 time=0
EXTRACT: pitchwheel channel=11 pitch=-8064 time=0.00704225
EXTRACT: control_change channel=11 control=1 value=2 time=0.00704225
EXTRACT: pitchwheel channel=11 pitch=-7808 time=0
EXTRACT: control_change channel=11 control=1 value=3 time=0.0140845
EXTRACT: pitchwheel channel=11 pitch=-7552 time=0
EXTRACT: pitchwheel channel=11 pitch=-7296 time=0.00704225
EXTRACT: control_change channel=11 control=1 value=5 time=0.00704225
EXTRACT: pitchwheel channel=11 pitch=-7168 time=0
EXTRACT: control_change channel=11 control=1 value=7 time=0.00704225
EXTRACT: pitchwheel channel=11 pitch=-6912 time=0
EXTRACT: pitchwheel channel=11 pitch=-6656 time=0.00704225
EXTRACT: control_change channel=11 control=1 value=8 time=0.00704225
EXTRACT: pitchwheel channel=11 pitch=-6400 time=0.00704225
EXTRACT: pitchwheel channel=11 pitch=-6272 time=0.00704225
EXTRACT: control_change channel=11 control=11 value=124 time=0.00704225
EXTRACT: control_change channel=11 control=1 value=14 time=0
EXTRACT: pitchwheel channel=11 pitch=-6016 time=0
EXTRACT: pitchwheel channel=11 pitch=-5760 time=0.00704225
EXTRACT: control_change channel=11 control=1 value=16 time=0.00704225
EXTRACT: pitchwheel channel=11 pitch=-5632 time=0
EXTRACT: note_on channel=9 note=46 velocity=0 time=0.00704225
EXTRACT: note_on channel=9 note=51 velocity=0 time=0
EXTRACT: control_change channel=11 control=1 value=18 time=0.00704225
EXTRACT: pitchwheel channel=11 pitch=-5376 time=0
EXTRACT: pitchwheel channel=11 pitch=-5120 time=0.00704225
EXTRACT: pitchwheel channel=11 pitch=-4864 time=0.00704225
EXTRACT: control_change channel=11 control=11 value=123 time=0.00704225
EXTRACT: pitchwheel channel=11 pitch=-4736 time=0
EXTRACT: pitchwheel channel=11 pitch=-4480 time=0.00704225
EXTRACT: pitchwheel channel=11 pitch=-4224 time=0.0140845
EXTRACT: pitchwheel channel=11 pitch=-4096 time=0.00704225
EXTRACT: control_change channel=11 control=1 value=20 time=0.00704225
EXTRACT: pitchwheel channel=11 pitch=-3840 time=0
EXTRACT: note_on channel=4 note=52 velocity=0 time=0.00704225
EXTRACT: control_change channel=11 control=1 value=22 time=0
EXTRACT: pitchwheel channel=11 pitch=-3584 time=0
EXTRACT: pitchwheel channel=11 pitch=-3328 time=0.00704225
EXTRACT: note_on channel=1 note=56 velocity=0 time=0.00704225
EXTRACT: pitchwheel channel=11 pitch=-3200 time=0.00704225
EXTRACT: note_on channel=3 note=73 velocity=0 time=0.00704225
EXTRACT: note_on channel=4 note=59 velocity=0 time=0
EXTRACT: note_on channel=4 note=64 velocity=0 time=0
EXTRACT: pitchwheel channel=11 pitch=-2944 time=0
EXTRACT: note_on channel=1 note=61 velocity=0 time=0.00704225
EXTRACT: note_on channel=3 note=76 velocity=112 time=0
EXTRACT: pitchwheel channel=11 pitch=-2688 time=0
EXTRACT: control_change channel=11 control=11 value=122 time=0.00704225
EXTRACT: pitchwheel channel=11 pitch=-2432 time=0
EXTRACT: control_change channel=11 control=1 value=24 time=0.00704225
EXTRACT: pitchwheel channel=11 pitch=-2304 time=0
EXTRACT: note_on channel=4 note=52 velocity=73 time=0.0140845
EXTRACT: control_change channel=11 control=1 value=26 time=0
EXTRACT: pitchwheel channel=11 pitch=-2048 time=0
EXTRACT: pitchwheel channel=11 pitch=-1792 time=0.00704225
EXTRACT: pitchwheel channel=11 pitch=-1664 time=0.00704225
EXTRACT: control_change channel=11 control=1 value=28 time=0.00704225
EXTRACT: pitchwheel channel=11 pitch=-1408 time=0
EXTRACT: note_on channel=1 note=68 velocity=0 time=0.00704225
EXTRACT: pitchwheel channel=11 pitch=-1152 time=0
EXTRACT: control_change channel=11 control=1 value=30 time=0.00704225
EXTRACT: control_change channel=11 control=11 value=120 time=0.00704225
EXTRACT: pitchwheel channel=11 pitch=-896 time=0
EXTRACT: pitchwheel channel=11 pitch=-768 time=0.00704225
EXTRACT: control_change channel=11 control=1 value=32 time=0.00704225
EXTRACT: pitchwheel channel=11 pitch=-512 time=0
EXTRACT: control_change channel=11 control=1 value=38 time=0.00704225
EXTRACT: pitchwheel channel=11 pitch=-256 time=0
EXTRACT: pitchwheel channel=11 pitch=-128 time=0.00704225
EXTRACT: control_change channel=11 control=1 value=39 time=0.00704225
EXTRACT: note_on channel=4 note=56 velocity=73 time=0.02112675
EXTRACT: control_change channel=11 control=1 value=41 time=0
EXTRACT: control_change channel=11 control=1 value=43 time=0.00704225
EXTRACT: control_change channel=11 control=11 value=119 time=0.00704225
EXTRACT: control_change channel=11 control=1 value=45 time=0.00704225
EXTRACT: control_change channel=11 control=1 value=47 time=0.00704225
EXTRACT: note_on channel=1 note=61 velocity=73 time=0.00704225
EXTRACT: control_change channel=11 control=1 value=49 time=0.0140845
EXTRACT: note_on channel=1 note=52 velocity=73 time=0.00704225
EXTRACT: control_change channel=11 control=1 value=51 time=0.00704225
EXTRACT: note_on channel=1 note=56 velocity=73 time=0.0140845
EXTRACT: note_on channel=3 note=76 velocity=0 time=0
EXTRACT: note_on channel=0 note=68 velocity=0 time=0.00704225
EXTRACT: note_on channel=0 note=56 velocity=0 time=0
EXTRACT: note_on channel=0 note=61 velocity=0 time=0
EXTRACT: note_on channel=0 note=64 velocity=0 time=0
EXTRACT: note_on channel=0 note=56 velocity=87 time=0
EXTRACT: note_on channel=0 note=61 velocity=87 time=0
EXTRACT: note_on channel=0 note=64 velocity=87 time=0
EXTRACT: note_on channel=0 note=68 velocity=87 time=0
EXTRACT: note_on channel=1 note=68 velocity=73 time=0
EXTRACT: note_on channel=2 note=44 velocity=0 time=0
EXTRACT: note_on channel=2 note=52 velocity=0 time=0
EXTRACT: note_on channel=2 note=61 velocity=73 time=0
EXTRACT: note_on channel=2 note=52 velocity=73 time=0
EXTRACT: note_on channel=3 note=76 velocity=112 time=0
EXTRACT: note_on channel=8 note=32 velocity=0 time=0
EXTRACT: note_on channel=8 note=37 velocity=123 time=0
EXTRACT: note_on channel=9 note=33 velocity=127 time=0
EXTRACT: note_on channel=9 note=46 velocity=100 time=0
EXTRACT: control_change channel=11 control=1 value=53 time=0
EXTRACT: control_change channel=11 control=1 value=55 time=0.00704225
EXTRACT: note_on channel=4 note=61 velocity=73 time=0.0140845
EXTRACT: control_change channel=11 control=1 value=61 time=0
EXTRACT: control_change channel=11 control=11 value=118 time=0.00704225
EXTRACT: control_change channel=11 control=1 value=63 time=0.0140845
EXTRACT: control_change channel=11 control=11 value=117 time=0.00704225
EXTRACT: control_change channel=11 control=1 value=65 time=0
EXTRACT: control_change channel=11 control=11 value=116 time=0.00704225
EXTRACT: control_change channel=11 control=1 value=67 time=0.00704225
EXTRACT: note_on channel=4 note=64 velocity=73 time=0.00704225
EXTRACT: control_change channel=11 control=11 value=115 time=0
EXTRACT: control_change channel=11 control=1 value=69 time=0.0140845
EXTRACT: control_change channel=11 control=11 value=114 time=0.00704225
EXTRACT: control_change channel=11 control=1 value=71 time=0.00704225
EXTRACT: note_on channel=9 note=46 velocity=0 time=0.00704225
EXTRACT: note_on channel=9 note=33 velocity=0 time=0
EXTRACT: control_change channel=11 control=1 value=73 time=0
EXTRACT: control_change channel=11 control=1 value=74 time=0.02112675
EXTRACT: control_change channel=11 control=11 value=113 time=0.0140845
EXTRACT: control_change channel=11 control=1 value=76 time=0
EXTRACT: control_change channel=11 control=11 value=112 time=0.00704225
EXTRACT: control_change channel=11 control=1 value=77 time=0
EXTRACT: control_change channel=11 control=1 value=78 time=0.02112675
EXTRACT: control_change channel=11 control=1 value=80 time=0.0140845
EXTRACT: control_change channel=11 control=11 value=111 time=0.0140845
EXTRACT: control_change channel=11 control=1 value=81 time=0
EXTRACT: control_change channel=11 control=1 value=82 time=0.0140845
EXTRACT: control_change channel=11 control=11 value=110 time=0.00704225
EXTRACT: control_change channel=11 control=11 value=109 time=0.0140845
EXTRACT: control_change channel=11 control=1 value=84 time=0
EXTRACT: control_change channel=11 control=1 value=85 time=0.02112675
EXTRACT: control_change channel=11 control=1 value=86 time=0.0140845
EXTRACT: control_change channel=11 control=1 value=87 time=0.00704225
EXTRACT: control_change channel=11 control=11 value=108 time=0.00704225
EXTRACT: control_change channel=11 control=1 value=88 time=0.0140845
EXTRACT: control_change channel=11 control=11 value=107 time=0.00704225
EXTRACT: control_change channel=11 control=1 value=89 time=0.00704225
EXTRACT: control_change channel=11 control=11 value=106 time=0.028169
EXTRACT: control_change channel=11 control=1 value=90 time=0
EXTRACT: control_change channel=11 control=11 value=105 time=0.02112675
EXTRACT: control_change channel=11 control=1 value=91 time=0
EXTRACT: control_change channel=11 control=11 value=104 time=0.00704225
EXTRACT: control_change channel=11 control=1 value=93 time=0.0140845
EXTRACT: control_change channel=11 control=11 value=103 time=0.0140845
EXTRACT: control_change channel=11 control=1 value=94 time=0
EXTRACT: control_change channel=11 control=11 value=102 time=0.00704225
EXTRACT: control_change channel=11 control=1 value=95 time=0.00704225
EXTRACT: note_on channel=3 note=76 velocity=0 time=0.0140845
EXTRACT: note_on channel=3 note=64 velocity=112 time=0
EXTRACT: note_on channel=9 note=51 velocity=127 time=0
EXTRACT: note_on channel=9 note=46 velocity=100 time=0
EXTRACT: note_on channel=9 note=51 velocity=127 time=0
EXTRACT: control_change channel=11 control=11 value=100 time=0
EXTRACT: control_change channel=11 control=1 value=96 time=0
EXTRACT: control_change channel=11 control=11 value=98 time=0.0140845
EXTRACT: control_change channel=11 control=1 value=97 time=0.00704225
EXTRACT: control_change channel=11 control=1 value=98 time=0.028169
EXTRACT: control_change channel=11 control=11 value=97 time=0.0140845
EXTRACT: control_change channel=11 control=1 value=99 time=0.00704225
EXTRACT: control_change channel=11 control=1 value=100 time=0.02112675
EXTRACT: control_change channel=11 control=1 value=101 time=0.00704225
EXTRACT: note_on channel=9 note=51 velocity=0 time=0.00704225
EXTRACT: note_on channel=9 note=46 velocity=0 time=0
EXTRACT: note_on channel=9 note=51 velocity=0 time=0
EXTRACT: control_change channel=11 control=11 value=96 time=0.00704225
EXTRACT: control_change channel=11 control=1 value=102 time=0
EXTRACT: control_change channel=11 control=11 value=95 time=0.02112675
EXTRACT: control_change channel=11 control=1 value=103 time=0
EXTRACT: control_change channel=11 control=1 value=104 time=0.00704225
EXTRACT: control_change channel=11 control=11 value=94 time=0.00704225
EXTRACT: control_change channel=11 control=11 value=93 time=0.00704225
EXTRACT: control_change channel=11 control=1 value=105 time=0
EXTRACT: control_change channel=11 control=11 value=92 time=0.0140845
EXTRACT: control_change channel=11 control=11 value=91 time=0.00704225
EXTRACT: control_change channel=11 control=1 value=106 time=0
EXTRACT: control_change channel=11 control=11 value=90 time=0.00704225
EXTRACT: control_change channel=11 control=1 value=107 time=0
EXTRACT: control_change channel=11 control=11 value=89 time=0.00704225
EXTRACT: control_change channel=11 control=1 value=108 time=0
EXTRACT: control_change channel=11 control=11 value=88 time=0.00704225
EXTRACT: control_change channel=11 control=1 value=109 time=0.0140845
EXTRACT: control_change channel=11 control=11 value=87 time=0.0140845
EXTRACT: control_change channel=11 control=1 value=110 time=0
EXTRACT: control_change channel=11 control=11 value=86 time=0.00704225
EXTRACT: control_change channel=11 control=1 value=111 time=0
EXTRACT: control_change channel=11 control=1 value=112 time=0.02112675
EXTRACT: control_change channel=11 control=11 value=84 time=0.00704225
EXTRACT: control_change channel=11 control=1 value=113 time=0
EXTRACT: control_change channel=11 control=1 value=114 time=0.00704225
EXTRACT: control_change channel=11 control=11 value=83 time=0.0140845
EXTRACT: control_change channel=11 control=1 value=115 time=0
EXTRACT: control_change channel=11 control=1 value=117 time=0.0140845
EXTRACT: control_change channel=11 control=11 value=82 time=0.00704225
EXTRACT: control_change channel=11 control=1 value=118 time=0
EXTRACT: control_change channel=11 control=1 value=120 time=0.0140845
EXTRACT: control_change channel=11 control=11 value=80 time=0.00704225
EXTRACT: control_change channel=11 control=1 value=122 time=0
EXTRACT: control_change channel=11 control=1 value=124 time=0.0140845
EXTRACT: control_change channel=11 control=11 value=79 time=0.0140845
EXTRACT: control_change channel=11 control=1 value=125 time=0
EXTRACT: control_change channel=11 control=1 value=126 time=0.00704225
EXTRACT: control_change channel=11 control=11 value=78 time=0.00704225
EXTRACT: control_change channel=11 control=1 value=127 time=0
EXTRACT: control_change channel=11 control=11 value=77 time=0.028169
EXTRACT: control_change channel=11 control=11 value=76 time=0.0140845
EXTRACT: note_on channel=0 note=68 velocity=0 time=0.0140845
EXTRACT: note_on channel=0 note=56 velocity=0 time=0
EXTRACT: note_on channel=0 note=61 velocity=0 time=0
EXTRACT: note_on channel=0 note=64 velocity=0 time=0
EXTRACT: note_on channel=0 note=56 velocity=87 time=0
EXTRACT: note_on channel=0 note=61 velocity=87 time=0
EXTRACT: note_on channel=0 note=64 velocity=87 time=0
EXTRACT: note_on channel=0 note=68 velocity=87 time=0
EXTRACT: note_on channel=3 note=64 velocity=0 time=0
EXTRACT: note_on channel=3 note=76 velocity=112 time=0
EXTRACT: note_on channel=8 note=37 velocity=0 time=0
EXTRACT: note_on channel=8 note=37 velocity=123 time=0
EXTRACT: note_on channel=9 note=46 velocity=100 time=0
EXTRACT: note_on channel=9 note=33 velocity=127 time=0
EXTRACT: note_on channel=9 note=31 velocity=127 time=0
EXTRACT: note_on channel=10 note=31 velocity=73 time=0
EXTRACT: note_on channel=11 note=64 velocity=0 time=0
EXTRACT: note_on channel=11 note=61 velocity=0 time=0
EXTRACT: control_change channel=11 control=11 value=127 time=0.06338025
EXTRACT: control_change channel=11 control=1 value=0 time=0.028169
EXTRACT: note_on channel=9 note=31 velocity=0 time=0.0140845
EXTRACT: note_on channel=9 note=33 velocity=0 time=0
EXTRACT: note_on channel=9 note=46 velocity=0 time=0
EXTRACT: note_on channel=10 note=31 velocity=0 time=0
EXTRACT: note_on channel=11 note=61 velocity=118 time=0.10563375
EXTRACT: note_on channel=3 note=76 velocity=0 time=0.2112675
EXTRACT: note_on channel=3 note=64 velocity=112 time=0
EXTRACT: note_on channel=9 note=46 velocity=100 time=0
EXTRACT: note_on channel=11 note=61 velocity=0 time=0
EXTRACT: pitchwheel channel=11 pitch=0 time=0
EXTRACT: note_on channel=11 note=61 velocity=118 time=0
EXTRACT: pitchwheel channel=11 pitch=-128 time=0.00704225
EXTRACT: pitchwheel channel=11 pitch=-256 time=0.04929575
EXTRACT: pitchwheel channel=11 pitch=-1024 time=0.0140845
EXTRACT: note_on channel=9 note=46 velocity=0 time=0.03521125
EXTRACT: pitchwheel channel=11 pitch=-1152 time=0.02112675
EXTRACT: pitchwheel channel=11 pitch=-1408 time=0.0140845
EXTRACT: pitchwheel channel=11 pitch=-1664 time=0.0140845
EXTRACT: pitchwheel channel=11 pitch=-1792 time=0.02112675
EXTRACT: pitchwheel channel=11 pitch=-2048 time=0.00704225
EXTRACT: pitchwheel channel=11 pitch=-2176 time=0.00704225
EXTRACT: pitchwheel channel=11 pitch=-2688 time=0.00704225
EXTRACT: note_on channel=1 note=61 velocity=0 time=0.00704225
EXTRACT: note_on channel=9 note=33 velocity=127 time=0.00704225
EXTRACT: pitchwheel channel=11 pitch=-2944 time=0
EXTRACT: note_on channel=1 note=52 velocity=0 time=0.0140845
EXTRACT: pitchwheel channel=11 pitch=-3200 time=0
EXTRACT: pitchwheel channel=11 pitch=-3712 time=0.00704225
EXTRACT: note_on channel=1 note=56 velocity=0 time=0.0140845
EXTRACT: note_on channel=1 note=68 velocity=0 time=0.00704225
EXTRACT: pitchwheel channel=11 pitch=-3840 time=0
EXTRACT: pitchwheel channel=11 pitch=-4224 time=0.00704225
EXTRACT: note_on channel=4 note=64 velocity=0 time=0.00704225
EXTRACT: pitchwheel channel=11 pitch=-4864 time=0
EXTRACT: pitchwheel channel=11 pitch=-5248 time=0.00704225
EXTRACT: pitchwheel channel=11 pitch=-5376 time=0.00704225
EXTRACT: note_on channel=4 note=56 velocity=0 time=0.00704225
EXTRACT: pitchwheel channel=11 pitch=-5760 time=0.00704225
EXTRACT: pitchwheel channel=11 pitch=-6528 time=0.00704225
EXTRACT: pitchwheel channel=11 pitch=-6912 time=0.00704225
EXTRACT: note_on channel=4 note=52 velocity=0 time=0.00704225
EXTRACT: note_on channel=9 note=33 velocity=0 time=0
EXTRACT: pitchwheel channel=11 pitch=-7296 time=0
EXTRACT: pitchwheel channel=11 pitch=-7424 time=0.00704225
EXTRACT: pitchwheel channel=11 pitch=-7808 time=0.0140845
EXTRACT: pitchwheel channel=11 pitch=-8064 time=0.00704225
EXTRACT: note_on channel=1 note=64 velocity=73 time=0.028169
EXTRACT: note_on channel=1 note=57 velocity=73 time=0.00704225
EXTRACT: note_on channel=1 note=69 velocity=73 time=0.0140845
EXTRACT: note_on channel=4 note=59 velocity=73 time=0.00704225
EXTRACT: note_on channel=4 note=61 velocity=0 time=0.00704225
EXTRACT: note_on channel=0 note=68 velocity=0 time=0.0140845
EXTRACT: note_on channel=0 note=56 velocity=0 time=0
EXTRACT: note_on channel=0 note=61 velocity=0 time=0
EXTRACT: note_on channel=0 note=64 velocity=0 time=0
EXTRACT: note_on channel=0 note=69 velocity=87 time=0
EXTRACT: note_on channel=0 note=56 velocity=87 time=0
EXTRACT: note_on channel=0 note=62 velocity=87 time=0
EXTRACT: note_on channel=2 note=52 velocity=0 time=0
EXTRACT: note_on channel=2 note=61 velocity=0 time=0
EXTRACT: note_on channel=2 note=61 velocity=73 time=0
EXTRACT: note_on channel=3 note=64 velocity=0 time=0
EXTRACT: note_on channel=3 note=71 velocity=112 time=0
EXTRACT: note_on channel=4 note=64 velocity=73 time=0
EXTRACT: note_on channel=8 note=37 velocity=0 time=0
EXTRACT: note_on channel=8 note=37 velocity=123 time=0
EXTRACT: note_on channel=9 note=46 velocity=100 time=0
EXTRACT: note_on channel=11 note=61 velocity=0 time=0
EXTRACT: pitchwheel channel=11 pitch=0 time=0
EXTRACT: note_on channel=11 note=59 velocity=118 time=0
EXTRACT: note_on channel=1 note=61 velocity=73 time=0.04929575
EXTRACT: note_on channel=9 note=46 velocity=0 time=0.056338
EXTRACT: note_on channel=9 note=33 velocity=127 time=0.10563375
EXTRACT: note_on channel=9 note=33 velocity=0 time=0.10563375
EXTRACT: note_on channel=0 note=62 velocity=0 time=0.10563375
EXTRACT: note_on channel=0 note=64 velocity=87 time=0
EXTRACT: note_on channel=2 note=61 velocity=0 time=0
EXTRACT: note_on channel=2 note=59 velocity=73 time=0
EXTRACT: note_on channel=2 note=62 velocity=73 time=0
EXTRACT: note_on channel=3 note=71 velocity=0 time=0
EXTRACT: note_on channel=3 note=73 velocity=112 time=0
EXTRACT: note_on channel=8 note=37 velocity=0 time=0
EXTRACT: note_on channel=8 note=40 velocity=123 time=0
EXTRACT: note_on channel=9 note=33 velocity=127 time=0
EXTRACT: note_on channel=9 note=46 velocity=100 time=0
EXTRACT: note_on channel=9 note=46 velocity=100 time=0
EXTRACT: note_on channel=11 note=59 velocity=0 time=0
EXTRACT: note_on channel=11 note=61 velocity=118 time=0
EXTRACT: note_on channel=9 note=46 velocity=0 time=0.10563375
EXTRACT: note_on channel=9 note=46 velocity=0 time=0
EXTRACT: note_on channel=9 note=33 velocity=0 time=0
EXTRACT: note_on channel=8 note=40 velocity=0 time=0.10563375
EXTRACT: note_on channel=8 note=40 velocity=123 time=0
EXTRACT: note_on channel=0 note=64 velocity=0 time=0.2112675
EXTRACT: note_on channel=0 note=56 velocity=0 time=0
EXTRACT: note_on channel=0 note=69 velocity=0 time=0
EXTRACT: note_on channel=0 note=69 velocity=87 time=0
EXTRACT: note_on channel=0 note=56 velocity=87 time=0
EXTRACT: note_on channel=0 note=62 velocity=87 time=0
EXTRACT: note_on channel=2 note=62 velocity=0 time=0
EXTRACT: note_on channel=2 note=59 velocity=0 time=0
EXTRACT: note_on channel=2 note=61 velocity=73 time=0
EXTRACT: note_on channel=3 note=73 velocity=0 time=0
EXTRACT: note_on channel=3 note=71 velocity=112 time=0
EXTRACT: note_on channel=8 note=40 velocity=0 time=0
EXTRACT: note_on channel=8 note=40 velocity=123 time=0
EXTRACT: note_on channel=9 note=31 velocity=127 time=0
EXTRACT: note_on channel=9 note=33 velocity=127 time=0
EXTRACT: note_on channel=9 note=46 velocity=100 time=0
EXTRACT: note_on channel=10 note=31 velocity=73 time=0
EXTRACT: note_on channel=11 note=61 velocity=0 time=0
EXTRACT: note_on channel=11 note=62 velocity=118 time=0
EXTRACT: note_on channel=9 note=46 velocity=0 time=0.10563375
EXTRACT: note_on channel=9 note=33 velocity=0 time=0
EXTRACT: note_on channel=9 note=31 velocity=0 time=0
EXTRACT: note_on channel=10 note=31 velocity=0 time=0
EXTRACT: control_change channel=4 control=10 value=110 time=0.03521125
EXTRACT: control_change channel=3 control=94 value=31 time=0.07746475
EXTRACT: control_change channel=8 control=91 value=0 time=0.04929575
EXTRACT: control_change channel=3 control=11 value=106 time=0.03521125
EXTRACT: control_change channel=4 control=72 value=104 time=0
EXTRACT: note_on channel=0 note=62 velocity=0 time=0.11971825
EXTRACT: note_on channel=0 note=64 velocity=87 time=0
EXTRACT: note_on channel=2 note=61 velocity=0 time=0
EXTRACT: note_on channel=2 note=59 velocity=73 time=0
EXTRACT: note_on channel=2 note=62 velocity=73 time=0
EXTRACT: note_on channel=3 note=71 velocity=0 time=0
EXTRACT: note_on channel=3 note=73 velocity=112 time=0
EXTRACT: note_on channel=8 note=40 velocity=0 time=0
EXTRACT: note_on channel=8 note=40 velocity=123 time=0
EXTRACT: note_on channel=9 note=46 velocity=100 time=0
EXTRACT: note_on channel=9 note=51 velocity=127 time=0
EXTRACT: note_on channel=11 note=62 velocity=0 time=0
EXTRACT: note_on channel=11 note=61 velocity=118 time=0
EXTRACT: pitchwheel channel=11 pitch=-7936 time=0.0140845
EXTRACT: pitchwheel channel=11 pitch=-7680 time=0.00704225
EXTRACT: pitchwheel channel=11 pitch=-7168 time=0.00704225
EXTRACT: pitchwheel channel=11 pitch=-6400 time=0.0140845
EXTRACT: pitchwheel channel=11 pitch=-6144 time=0.00704225
EXTRACT: pitchwheel channel=11 pitch=-5760 time=0.00704225
EXTRACT: pitchwheel channel=11 pitch=-5120 time=0.00704225
EXTRACT: pitchwheel channel=11 pitch=-4480 time=0.00704225
EXTRACT: pitchwheel channel=11 pitch=-4224 time=0.0140845
EXTRACT: pitchwheel channel=11 pitch=-3968 time=0.00704225
EXTRACT: pitchwheel channel=11 pitch=-3712 time=0.00704225
EXTRACT: note_on channel=9 note=51 velocity=0 time=0.00704225
EXTRACT: note_on channel=9 note=46 velocity=0 time=0
EXTRACT: control_change channel=3 control=72 value=107 time=0.02112675
EXTRACT: pitchwheel channel=11 pitch=-2688 time=0.02112675
EXTRACT: note_on channel=4 note=59 velocity=0 time=0.028169
EXTRACT: note_on channel=4 note=64 velocity=0 time=0.02112675
EXTRACT: pitchwheel channel=11 pitch=-1664 time=0
EXTRACT: note_on channel=1 note=64 velocity=0 time=0.00704225
EXTRACT: note_on channel=1 note=57 velocity=0 time=0.00704225
EXTRACT: note_on channel=3 note=73 velocity=0 time=0
EXTRACT: note_on channel=3 note=76 velocity=112 time=0
EXTRACT: pitchwheel channel=11 pitch=-896 time=0
EXTRACT: note_on channel=4 note=52 velocity=73 time=0.00704225
EXTRACT: note_on channel=1 note=69 velocity=0 time=0.00704225
EXTRACT: pitchwheel channel=11 pitch=-640 time=0.03521125
EXTRACT: pitchwheel channel=11 pitch=-384 time=0.00704225
EXTRACT: note_on channel=1 note=61 velocity=0 time=0.03521125
EXTRACT: note_on channel=4 note=57 velocity=73 time=0.0140845
EXTRACT: control_change channel=11 control=1 value=5 time=0.056338
EXTRACT: note_on channel=1 note=69 velocity=73 time=0.02112675
EXTRACT: control_change channel=11 control=11 value=123 time=0.02112675
EXTRACT: note_on channel=0 note=64 velocity=0 time=0.00704225
EXTRACT: note_on channel=0 note=56 velocity=0 time=0
EXTRACT: note_on channel=0 note=69 velocity=0 time=0
EXTRACT: note_on channel=0 note=57 velocity=84 time=0
EXTRACT: note_on channel=0 note=61 velocity=84 time=0
EXTRACT: note_on channel=0 note=64 velocity=84 time=0
EXTRACT: note_on channel=0 note=69 velocity=84 time=0
EXTRACT: note_on channel=1 note=64 velocity=73 time=0
EXTRACT: note_on channel=2 note=62 velocity=0 time=0
EXTRACT: note_on channel=2 note=59 velocity=0 time=0
EXTRACT: note_on channel=2 note=52 velocity=73 time=0
EXTRACT: note_on channel=2 note=45 velocity=73 time=0
EXTRACT: note_on channel=3 note=76 velocity=0 time=0
EXTRACT: note_on channel=3 note=76 velocity=112 time=0
EXTRACT: note_on channel=4 note=61 velocity=73 time=0
EXTRACT: note_on channel=8 note=40 velocity=0 time=0
EXTRACT: note_on channel=8 note=33 velocity=123 time=0
EXTRACT: note_on channel=9 note=33 velocity=127 time=0
EXTRACT: note_on channel=9 note=46 velocity=100 time=0
EXTRACT: note_on channel=9 note=57 velocity=100 time=0
EXTRACT: note_on channel=11 note=61 velocity=0 time=0
EXTRACT: note_on channel=11 note=61 velocity=118 time=0
EXTRACT: note_on channel=1 note=61 velocity=73 time=0.02112675
EXTRACT: note_on channel=4 note=64 velocity=73 time=0.028169
EXTRACT: control_change channel=11 control=1 value=7 time=0.0140845
EXTRACT: note_on channel=1 note=57 velocity=73 time=0.00704225
EXTRACT: control_change channel=11 control=1 value=9 time=0
EXTRACT: control_change channel=11 control=1 value=11 time=0.02112675
EXTRACT: note_on channel=9 note=57 velocity=0 time=0.0140845
EXTRACT: note_on channel=9 note=46 velocity=0 time=0
EXTRACT: note_on channel=9 note=33 velocity=0 time=0
EXTRACT: control_change channel=11 control=1 value=13 time=0
EXTRACT: control_change channel=11 control=11 value=122 time=0.00704225
EXTRACT: control_change channel=11 control=1 value=19 time=0.00704225
EXTRACT: control_change channel=11 control=11 value=121 time=0.0140845
EXTRACT: control_change channel=11 control=1 value=27 time=0.00704225
EXTRACT: control_change channel=11 control=11 value=120 time=0.02112675
EXTRACT: control_change channel=11 control=1 value=35 time=0.028169
EXTRACT: control_change channel=11 control=11 value=119 time=0
EXTRACT: control_change channel=11 control=1 value=43 time=0.0140845
EXTRACT: control_change channel=11 control=1 value=51 time=0.02112675
EXTRACT: control_change channel=11 control=11 value=118 time=0.0140845
EXTRACT: control_change channel=11 control=1 value=59 time=0.03521125
EXTRACT: control_change channel=11 control=1 value=65 time=0.04929575
EXTRACT: control_change channel=11 control=11 value=117 time=0
EXTRACT: control_change channel=11 control=1 value=71 time=0.02112675
EXTRACT: control_change channel=11 control=11 value=116 time=0
EXTRACT: control_change channel=11 control=1 value=77 time=0.00704225
EXTRACT: control_change channel=11 control=11 value=115 time=0.00704225
EXTRACT: control_change channel=11 control=1 value=78 time=0.00704225
EXTRACT: control_change channel=11 control=1 value=84 time=0.00704225
EXTRACT: control_change channel=11 control=11 value=114 time=0
EXTRACT: control_change channel=11 control=1 value=87 time=0.0140845
EXTRACT: control_change channel=11 control=1 value=88 time=0.00704225
EXTRACT: control_change channel=11 control=1 value=89 time=0.00704225
EXTRACT: control_change channel=11 control=11 value=113 time=0
EXTRACT: control_change channel=11 control=1 value=93 time=0.00704225
EXTRACT: control_change channel=11 control=11 value=112 time=0
EXTRACT: note_on channel=3 note=76 velocity=0 time=0.0140845
EXTRACT: note_on channel=3 note=64 velocity=112 time=0
EXTRACT: note_on channel=9 note=51 velocity=127 time=0
EXTRACT: note_on channel=9 note=46 velocity=100 time=0
EXTRACT: control_change channel=11 control=1 value=95 time=0.00704225
EXTRACT: control_change channel=11 control=11 value=111 time=0
EXTRACT: control_change channel=11 control=1 value=98 time=0.0140845
EXTRACT: control_change channel=11 control=11 value=110 time=0
EXTRACT: control_change channel=11 control=1 value=100 time=0.0140845
EXTRACT: control_change channel=11 control=11 value=109 time=0.0140845
EXTRACT: control_change channel=11 control=1 value=101 time=0.00704225
EXTRACT: control_change channel=11 control=11 value=108 time=0
EXTRACT: control_change channel=11 control=1 value=103 time=0.00704225
EXTRACT: control_change channel=11 control=11 value=107 time=0
EXTRACT: control_change channel=11 control=1 value=104 time=0.00704225
EXTRACT: control_change channel=11 control=1 value=105 time=0.00704225
EXTRACT: control_change channel=11 control=11 value=105 time=0
EXTRACT: control_change channel=11 control=1 value=106 time=0.0140845
EXTRACT: note_on channel=9 note=46 velocity=0 time=0.0140845
EXTRACT: note_on channel=9 note=51 velocity=0 time=0
EXTRACT: control_change channel=11 control=1 value=107 time=0
EXTRACT: control_change channel=11 control=11 value=104 time=0
EXTRACT: control_change channel=11 control=11 value=102 time=0.00704225
EXTRACT: control_change channel=11 control=1 value=109 time=0.00704225
EXTRACT: control_change channel=11 control=11 value=101 time=0
EXTRACT: control_change channel=11 control=11 value=99 time=0.02112675
EXTRACT: control_change channel=11 control=1 value=111 time=0.00704225
EXTRACT: control_change channel=11 control=11 value=98 time=0.00704225
EXTRACT: control_change channel=11 control=11 value=97 time=0.02112675
EXTRACT: control_change channel=11 control=11 value=96 time=0.00704225
EXTRACT: control_change channel=11 control=1 value=112 time=0.00704225
EXTRACT: control_change channel=11 control=11 value=95 time=0
EXTRACT: control_change channel=11 control=11 value=94 time=0.00704225
EXTRACT: control_change channel=11 control=11 value=93 time=0.00704225
EXTRACT: control_change channel=11 control=1 value=113 time=0.0140845
EXTRACT: control_change channel=11 control=11 value=92 time=0
EXTRACT: control_change channel=11 control=11 value=91 time=0.00704225
EXTRACT: control_change channel=11 control=1 value=115 time=0.00704225
EXTRACT: control_change channel=11 control=11 value=90 time=0
EXTRACT: control_change channel=11 control=11 value=89 time=0.00704225
EXTRACT: control_change channel=11 control=1 value=116 time=0.00704225
EXTRACT: control_change channel=11 control=11 value=87 time=0
EXTRACT: control_change channel=11 control=1 value=117 time=0.0140845
EXTRACT: control_change channel=11 control=11 value=86 time=0
EXTRACT: control_change channel=11 control=1 value=118 time=0.0140845
EXTRACT: control_change channel=11 control=11 value=84 time=0
EXTRACT: control_change channel=11 control=1 value=119 time=0.00704225
EXTRACT: control_change channel=11 control=11 value=82 time=0
EXTRACT: control_change channel=11 control=1 value=121 time=0.00704225
EXTRACT: control_change channel=11 control=11 value=81 time=0
EXTRACT: control_change channel=11 control=1 value=122 time=0.0140845
EXTRACT: control_change channel=11 control=1 value=123 time=0.00704225
EXTRACT: control_change channel=11 control=11 value=79 time=0
EXTRACT: control_change channel=11 control=1 value=124 time=0.00704225
EXTRACT: control_change channel=11 control=11 value=77 time=0
EXTRACT: control_change channel=11 control=11 value=75 time=0.00704225
EXTRACT: control_change channel=11 control=11 value=74 time=0.02112675
EXTRACT: note_on channel=11 note=61 velocity=0 time=0.00704225
EXTRACT: control_change channel=11 control=11 value=71 time=0
EXTRACT: control_change channel=11 control=11 value=70 time=0.00704225
EXTRACT: control_change channel=11 control=1 value=0 time=0.03521125
EXTRACT: note_on channel=0 note=69 velocity=0 time=0.028169
EXTRACT: note_on channel=0 note=57 velocity=0 time=0
EXTRACT: note_on channel=0 note=61 velocity=0 time=0
EXTRACT: note_on channel=0 note=64 velocity=0 time=0
EXTRACT: note_on channel=0 note=57 velocity=87 time=0
EXTRACT: note_on channel=0 note=61 velocity=87 time=0
EXTRACT: note_on channel=0 note=64 velocity=87 time=0
EXTRACT: note_on channel=0 note=69 velocity=87 time=0
EXTRACT: note_on channel=3 note=64 velocity=0 time=0
EXTRACT: note_on channel=3 note=76 velocity=112 time=0
EXTRACT: note_on channel=8 note=33 velocity=0 time=0
EXTRACT: note_on channel=8 note=33 velocity=123 time=0
EXTRACT: note_on channel=9 note=31 velocity=127 time=0
EXTRACT: note_on channel=9 note=33 velocity=127 time=0
EXTRACT: note_on channel=9 note=46 velocity=100 time=0
EXTRACT: note_on channel=10 note=31 velocity=73 time=0
EXTRACT: control_change channel=11 control=11 value=127 time=0.0422535
EXTRACT: note_on channel=9 note=46 velocity=0 time=0.06338025
EXTRACT: note_on channel=9 note=33 velocity=0 time=0
EXTRACT: note_on channel=9 note=31 velocity=0 time=0
EXTRACT: note_on channel=10 note=31 velocity=0 time=0
EXTRACT: note_on channel=11 note=57 velocity=118 time=0.10563375
EXTRACT: note_on channel=11 note=57 velocity=0 time=0.17605625
EXTRACT: note_on channel=3 note=76 velocity=0 time=0.03521125
EXTRACT: note_on channel=3 note=64 velocity=112 time=0
EXTRACT: note_on channel=9 note=46 velocity=100 time=0
EXTRACT: note_on channel=11 note=57 velocity=118 time=0
EXTRACT: note_on channel=9 note=46 velocity=0 time=0.10563375
EXTRACT: note_on channel=11 note=57 velocity=0 time=0.0704225
EXTRACT: note_on channel=8 note=33 velocity=0 time=0.03521125
EXTRACT: note_on channel=8 note=33 velocity=123 time=0
EXTRACT: note_on channel=9 note=33 velocity=127 time=0
EXTRACT: pitchwheel channel=11 pitch=128 time=0
EXTRACT: note_on channel=11 note=59 velocity=118 time=0
EXTRACT: note_on channel=1 note=69 velocity=0 time=0.0140845
EXTRACT: pitchwheel channel=11 pitch=256 time=0
EXTRACT: pitchwheel channel=11 pitch=640 time=0.00704225
EXTRACT: pitchwheel channel=11 pitch=768 time=0.00704225
EXTRACT: note_on channel=1 note=64 velocity=0 time=0.0140845
EXTRACT: pitchwheel channel=11 pitch=1024 time=0.00704225
EXTRACT: note_on channel=4 note=57 velocity=0 time=0.00704225
EXTRACT: pitchwheel channel=11 pitch=1280 time=0
EXTRACT: note_on channel=1 note=61 velocity=0 time=0.00704225
EXTRACT: pitchwheel channel=11 pitch=1536 time=0
EXTRACT: pitchwheel channel=11 pitch=1792 time=0.00704225
EXTRACT: note_on channel=4 note=52 velocity=0 time=0.0140845
EXTRACT: pitchwheel channel=11 pitch=2048 time=0
EXTRACT: pitchwheel channel=11 pitch=2176 time=0.00704225
EXTRACT: pitchwheel channel=11 pitch=2688 time=0.00704225
EXTRACT: note_on channel=9 note=33 velocity=0 time=0.00704225
EXTRACT: note_on channel=1 note=57 velocity=0 time=0.00704225
EXTRACT: pitchwheel channel=11 pitch=3072 time=0
EXTRACT: pitchwheel channel=11 pitch=3328 time=0.0140845
EXTRACT: pitchwheel channel=11 pitch=3584 time=0.00704225
EXTRACT: pitchwheel channel=11 pitch=3840 time=0.00704225
EXTRACT: note_on channel=1 note=57 velocity=73 time=0.00704225
EXTRACT: pitchwheel channel=11 pitch=4096 time=0
EXTRACT: note_on channel=1 note=66 velocity=73 time=0.00704225
EXTRACT: note_on channel=4 note=52 velocity=73 time=0
EXTRACT: pitchwheel channel=11 pitch=4480 time=0
EXTRACT: note_on channel=1 note=61 velocity=73 time=0.0140845
EXTRACT: pitchwheel channel=11 pitch=4864 time=0
EXTRACT: note_on channel=4 note=61 velocity=0 time=0.00704225
EXTRACT: note_on channel=4 note=59 velocity=73 time=0
EXTRACT: pitchwheel channel=11 pitch=4992 time=0
EXTRACT: pitchwheel channel=11 pitch=5504 time=0.00704225
EXTRACT: pitchwheel channel=11 pitch=6144 time=0.00704225
EXTRACT: pitchwheel channel=11 pitch=6400 time=0.00704225
EXTRACT: note_on channel=0 note=69 velocity=0 time=0.0140845
EXTRACT: note_on channel=0 note=57 velocity=0 time=0
EXTRACT: note_on channel=0 note=61 velocity=0 time=0
EXTRACT: note_on channel=0 note=64 velocity=0 time=0
EXTRACT: note_on channel=0 note=54 velocity=87 time=0
EXTRACT: note_on channel=0 note=61 velocity=87 time=0
EXTRACT: note_on channel=0 note=66 velocity=87 time=0
EXTRACT: note_on channel=0 note=69 velocity=87 time=0
EXTRACT: note_on channel=2 note=45 velocity=0 time=0
EXTRACT: note_on channel=2 note=52 velocity=0 time=0
EXTRACT: note_on channel=2 note=54 velocity=73 time=0
EXTRACT: note_on channel=2 note=44 velocity=73 time=0
EXTRACT: note_on channel=3 note=64 velocity=0 time=0
EXTRACT: note_on channel=3 note=71 velocity=112 time=0
EXTRACT: note_on channel=8 note=33 velocity=0 time=0
EXTRACT: note_on channel=8 note=30 velocity=123 time=0
EXTRACT: note_on channel=9 note=46 velocity=100 time=0
EXTRACT: pitchwheel channel=11 pitch=6656 time=0
EXTRACT: note_on channel=4 note=64 velocity=73 time=0.00704225
EXTRACT: pitchwheel channel=11 pitch=6912 time=0
EXTRACT: note_on channel=1 note=69 velocity=73 time=0.00704225
EXTRACT: note_on channel=4 note=64 velocity=0 time=0
EXTRACT: pitchwheel channel=11 pitch=7296 time=0
EXTRACT: pitchwheel channel=11 pitch=7424 time=0.00704225
EXTRACT: pitchwheel channel=11 pitch=7680 time=0.00704225
EXTRACT: pitchwheel channel=11 pitch=7936 time=0.0140845
EXTRACT: pitchwheel channel=11 pitch=8191 time=0.00704225
EXTRACT: note_on channel=9 note=46 velocity=0 time=0.056338
EXTRACT: note_on channel=9 note=33 velocity=127 time=0.10563375
EXTRACT: note_on channel=9 note=33 velocity=0 time=0.10563375
EXTRACT: pitchwheel channel=11 pitch=7424 time=0.07746475
EXTRACT: pitchwheel channel=11 pitch=7168 time=0.02112675
EXTRACT: note_on channel=3 note=71 velocity=0 time=0.00704225
EXTRACT: note_on channel=3 note=73 velocity=112 time=0
EXTRACT: note_on channel=9 note=33 velocity=127 time=0
EXTRACT: note_on channel=9 note=46 velocity=100 time=0
EXTRACT: pitchwheel channel=11 pitch=6784 time=0
EXTRACT: pitchwheel channel=11 pitch=6656 time=0.00704225
EXTRACT: pitchwheel channel=11 pitch=6400 time=0.0140845
EXTRACT: pitchwheel channel=11 pitch=6144 time=0.0140845
EXTRACT: pitchwheel channel=11 pitch=5888 time=0.00704225
EXTRACT: pitchwheel channel=11 pitch=5632 time=0.00704225
EXTRACT: pitchwheel channel=11 pitch=5376 time=0.0140845
EXTRACT: pitchwheel channel=11 pitch=5120 time=0.0140845
EXTRACT: pitchwheel channel=11 pitch=4352 time=0.0140845
EXTRACT: note_on channel=9 note=46 velocity=0 time=0.0140845
EXTRACT: note_on channel=9 note=33 velocity=0 time=0
EXTRACT: pitchwheel channel=11 pitch=4096 time=0
EXTRACT: pitchwheel channel=11 pitch=3840 time=0.02112675
EXTRACT: pitchwheel channel=11 pitch=3712 time=0.00704225
EXTRACT: pitchwheel channel=11 pitch=3456 time=0.00704225
EXTRACT: pitchwheel channel=11 pitch=3328 time=0.00704225
EXTRACT: pitchwheel channel=11 pitch=3200 time=0.0140845
EXTRACT: pitchwheel channel=11 pitch=2816 time=0.00704225
EXTRACT: pitchwheel channel=11 pitch=2432 time=0.00704225
EXTRACT: pitchwheel channel=11 pitch=2304 time=0.00704225
EXTRACT: pitchwheel channel=11 pitch=2176 time=0.00704225
EXTRACT: pitchwheel channel=11 pitch=1920 time=0.0140845
EXTRACT: pitchwheel channel=11 pitch=1792 time=0.00704225
EXTRACT: pitchwheel channel=11 pitch=1664 time=0.0140845
EXTRACT: pitchwheel channel=11 pitch=1408 time=0.00704225
EXTRACT: pitchwheel channel=11 pitch=1280 time=0.0140845
EXTRACT: pitchwheel channel=11 pitch=1024 time=0.02112675
EXTRACT: pitchwheel channel=11 pitch=896 time=0.00704225
EXTRACT: pitchwheel channel=11 pitch=768 time=0.02112675
EXTRACT: pitchwheel channel=11 pitch=640 time=0.00704225
EXTRACT: pitchwheel channel=11 pitch=384 time=0.00704225
EXTRACT: pitchwheel channel=11 pitch=256 time=0.02112675
EXTRACT: pitchwheel channel=11 pitch=128 time=0.00704225
EXTRACT: pitchwheel channel=11 pitch=-128 time=0.00704225
EXTRACT: pitchwheel channel=11 pitch=-256 time=0.0140845
EXTRACT: note_on channel=0 note=69 velocity=0 time=0.06338025
EXTRACT: note_on channel=0 note=54 velocity=0 time=0
EXTRACT: note_on channel=0 note=61 velocity=0 time=0
EXTRACT: note_on channel=0 note=66 velocity=0 time=0
EXTRACT: note_on channel=0 note=54 velocity=87 time=0
EXTRACT: note_on channel=0 note=61 velocity=87 time=0
EXTRACT: note_on channel=0 note=66 velocity=87 time=0
EXTRACT: note_on channel=0 note=69 velocity=87 time=0
EXTRACT: note_on channel=3 note=73 velocity=0 time=0
EXTRACT: note_on channel=3 note=71 velocity=112 time=0
EXTRACT: note_on channel=8 note=30 velocity=0 time=0
EXTRACT: note_on channel=8 note=30 velocity=123 time=0
EXTRACT: note_on channel=9 note=31 velocity=127 time=0
EXTRACT: note_on channel=9 note=33 velocity=127 time=0
EXTRACT: note_on channel=9 note=46 velocity=100 time=0
EXTRACT: note_on channel=10 note=31 velocity=73 time=0
EXTRACT: note_on channel=11 note=59 velocity=0 time=0
EXTRACT: pitchwheel channel=11 pitch=0 time=0
EXTRACT: note_on channel=9 note=46 velocity=0 time=0.10563375
EXTRACT: note_on channel=9 note=33 velocity=0 time=0
EXTRACT: note_on channel=9 note=31 velocity=0 time=0
EXTRACT: note_on channel=10 note=31 velocity=0 time=0
EXTRACT: note_on channel=11 note=57 velocity=118 time=0.10563375
EXTRACT: pitchwheel channel=11 pitch=-128 time=0.20422525
EXTRACT: note_on channel=3 note=71 velocity=0 time=0.00704225
EXTRACT: note_on channel=3 note=73 velocity=112 time=0
EXTRACT: note_on channel=8 note=30 velocity=0 time=0
EXTRACT: note_on channel=8 note=30 velocity=123 time=0
EXTRACT: note_on channel=9 note=51 velocity=127 time=0
EXTRACT: note_on channel=9 note=46 velocity=100 time=0
EXTRACT: note_on channel=11 note=57 velocity=0 time=0
EXTRACT: control_change channel=11 control=11 value=126 time=0
EXTRACT: pitchwheel channel=11 pitch=-256 time=0
EXTRACT: note_on channel=11 note=61 velocity=118 time=0
EXTRACT: pitchwheel channel=11 pitch=-384 time=0.00704225
EXTRACT: control_change channel=11 control=11 value=125 time=0.0140845
EXTRACT: control_change channel=11 control=1 value=2 time=0
EXTRACT: control_change channel=11 control=1 value=3 time=0.00704225
EXTRACT: pitchwheel channel=11 pitch=-640 time=0
EXTRACT: pitchwheel channel=11 pitch=-896 time=0.0140845
EXTRACT: pitchwheel channel=11 pitch=-1024 time=0.02112675
EXTRACT: control_change channel=11 control=1 value=4 time=0.0140845
EXTRACT: pitchwheel channel=11 pitch=-1280 time=0
EXTRACT: pitchwheel channel=11 pitch=-1536 time=0.00704225
EXTRACT: note_on channel=9 note=46 velocity=0 time=0.02112675
EXTRACT: note_on channel=9 note=51 velocity=0 time=0
EXTRACT: pitchwheel channel=11 pitch=-1792 time=0
EXTRACT: pitchwheel channel=11 pitch=-2176 time=0.00704225
EXTRACT: pitchwheel channel=11 pitch=-2560 time=0.00704225
EXTRACT: control_change channel=11 control=11 value=124 time=0.00704225
EXTRACT: control_change channel=11 control=1 value=6 time=0
EXTRACT: pitchwheel channel=11 pitch=-2688 time=0
EXTRACT: pitchwheel channel=11 pitch=-2944 time=0.00704225
EXTRACT: pitchwheel channel=11 pitch=-3200 time=0.0140845
EXTRACT: pitchwheel channel=11 pitch=-3456 time=0.00704225
EXTRACT: pitchwheel channel=11 pitch=-3712 time=0.0140845
EXTRACT: note_on channel=4 note=52 velocity=0 time=0.00704225
EXTRACT: control_change channel=11 control=11 value=123 time=0
EXTRACT: pitchwheel channel=11 pitch=-4480 time=0
EXTRACT: note_on channel=1 note=57 velocity=0 time=0.0140845
EXTRACT: pitchwheel channel=11 pitch=-4608 time=0
EXTRACT: note_on channel=1 note=66 velocity=0 time=0.00704225
EXTRACT: pitchwheel channel=11 pitch=-4864 time=0
EXTRACT: note_on channel=4 note=59 velocity=0 time=0.00704225
EXTRACT: note_on channel=4 note=64 velocity=0 time=0
EXTRACT: pitchwheel channel=11 pitch=-4992 time=0
EXTRACT: note_on channel=1 note=61 velocity=0 time=0.00704225
EXTRACT: note_on channel=3 note=73 velocity=0 time=0
EXTRACT: note_on channel=3 note=76 velocity=112 time=0
EXTRACT: control_change channel=11 control=1 value=12 time=0
EXTRACT: pitchwheel channel=11 pitch=-5376 time=0
EXTRACT: pitchwheel channel=11 pitch=-5504 time=0.00704225
EXTRACT: note_on channel=4 note=52 velocity=73 time=0.02112675
EXTRACT: pitchwheel channel=11 pitch=-6272 time=0
EXTRACT: control_change channel=11 control=11 value=122 time=0.00704225
EXTRACT: pitchwheel channel=11 pitch=-6528 time=0
EXTRACT: pitchwheel channel=11 pitch=-6784 time=0.00704225
EXTRACT: pitchwheel channel=11 pitch=-7040 time=0.00704225
EXTRACT: note_on channel=1 note=69 velocity=0 time=0.00704225
EXTRACT: pitchwheel channel=11 pitch=-7296 time=0.00704225
EXTRACT: pitchwheel channel=11 pitch=-7424 time=0.0140845
EXTRACT: control_change channel=11 control=1 value=18 time=0.00704225
EXTRACT: pitchwheel channel=11 pitch=-7552 time=0
EXTRACT: pitchwheel channel=11 pitch=-7808 time=0.00704225
EXTRACT: pitchwheel channel=11 pitch=-8064 time=0.0140845
EXTRACT: note_on channel=4 note=57 velocity=73 time=0.02112675
EXTRACT: control_change channel=11 control=11 value=121 time=0.028169
EXTRACT: note_on channel=1 note=61 velocity=73 time=0.00704225
EXTRACT: control_change channel=11 control=1 value=24 time=0.00704225
EXTRACT: note_on channel=1 note=52 velocity=73 time=0.0140845
EXTRACT: note_on channel=1 note=56 velocity=73 time=0.02112675
EXTRACT: control_change channel=11 control=11 value=120 time=0
EXTRACT: note_on channel=0 note=69 velocity=0 time=0.00704225
EXTRACT: note_on channel=0 note=54 velocity=0 time=0
EXTRACT: note_on channel=0 note=61 velocity=0 time=0
EXTRACT: note_on channel=0 note=66 velocity=0 time=0
EXTRACT: note_on channel=0 note=56 velocity=87 time=0
EXTRACT: note_on channel=0 note=61 velocity=87 time=0
EXTRACT: note_on channel=0 note=64 velocity=87 time=0
EXTRACT: note_on channel=0 note=68 velocity=87 time=0
EXTRACT: note_on channel=1 note=68 velocity=73 time=0
EXTRACT: note_on channel=2 note=44 velocity=0 time=0
EXTRACT: note_on channel=2 note=54 velocity=0 time=0
EXTRACT: note_on channel=2 note=61 velocity=73 time=0
EXTRACT: note_on channel=2 note=52 velocity=73 time=0
EXTRACT: note_on channel=3 note=76 velocity=0 time=0
EXTRACT: note_on channel=3 note=76 velocity=112 time=0
EXTRACT: note_on channel=8 note=30 velocity=0 time=0
EXTRACT: note_on channel=8 note=37 velocity=123 time=0
EXTRACT: note_on channel=9 note=33 velocity=127 time=0
EXTRACT: note_on channel=9 note=46 velocity=100 time=0
EXTRACT: note_on channel=4 note=61 velocity=73 time=0.02112675
EXTRACT: control_change channel=11 control=1 value=30 time=0.00704225
EXTRACT: control_change channel=11 control=11 value=119 time=0.0140845
EXTRACT: control_change channel=11 control=11 value=118 time=0.00704225
EXTRACT: note_on channel=4 note=64 velocity=73 time=0.02112675
EXTRACT: control_change channel=11 control=11 value=117 time=0.00704225
EXTRACT: control_change channel=11 control=1 value=36 time=0.0140845
EXTRACT: note_on channel=9 note=46 velocity=0 time=0.0140845
EXTRACT: note_on channel=9 note=33 velocity=0 time=0
EXTRACT: control_change channel=11 control=11 value=116 time=0.00704225
EXTRACT: control_change channel=11 control=11 value=115 time=0.02112675
EXTRACT: control_change channel=11 control=1 value=42 time=0.0140845
EXTRACT: control_change channel=11 control=11 value=114 time=0.00704225
EXTRACT: control_change channel=11 control=1 value=48 time=0.00704225
EXTRACT: control_change channel=11 control=11 value=113 time=0.0140845
EXTRACT: control_change channel=11 control=1 value=50 time=0
EXTRACT: control_change channel=11 control=11 value=112 time=0.02112675
EXTRACT: control_change channel=11 control=1 value=52 time=0
EXTRACT: control_change channel=11 control=1 value=58 time=0.00704225
EXTRACT: control_change channel=11 control=11 value=111 time=0.0140845
EXTRACT: control_change channel=11 control=1 value=64 time=0
EXTRACT: control_change channel=11 control=1 value=72 time=0.0140845
EXTRACT: control_change channel=11 control=11 value=110 time=0.0140845
EXTRACT: control_change channel=11 control=1 value=74 time=0
EXTRACT: control_change channel=11 control=1 value=80 time=0.0140845
EXTRACT: control_change channel=11 control=11 value=109 time=0.0140845
EXTRACT: control_change channel=11 control=1 value=81 time=0
EXTRACT: control_change channel=11 control=11 value=108 time=0.00704225
EXTRACT: control_change channel=11 control=1 value=83 time=0
EXTRACT: control_change channel=11 control=11 value=107 time=0.0140845
EXTRACT: control_change channel=11 control=1 value=86 time=0
EXTRACT: control_change channel=11 control=1 value=87 time=0.00704225
EXTRACT: control_change channel=11 control=11 value=106 time=0.0140845
EXTRACT: control_change channel=11 control=1 value=89 time=0.00704225
EXTRACT: control_change channel=11 control=1 value=90 time=0.00704225
EXTRACT: control_change channel=11 control=11 value=105 time=0.00704225
EXTRACT: control_change channel=11 control=11 value=104 time=0.00704225
EXTRACT: control_change channel=11 control=1 value=92 time=0
EXTRACT: control_change channel=11 control=11 value=103 time=0.02112675
EXTRACT: control_change channel=11 control=1 value=93 time=0
EXTRACT: control_change channel=11 control=11 value=102 time=0.00704225
EXTRACT: control_change channel=11 control=1 value=95 time=0
EXTRACT: control_change channel=11 control=1 value=96 time=0.00704225
EXTRACT: control_change channel=11 control=1 value=97 time=0.00704225
EXTRACT: control_change channel=11 control=11 value=101 time=0.0140845
EXTRACT: control_change channel=11 control=1 value=98 time=0
EXTRACT: control_change channel=11 control=11 value=100 time=0.00704225
EXTRACT: control_change channel=11 control=1 value=99 time=0
EXTRACT: control_change channel=11 control=11 value=99 time=0.00704225
EXTRACT: control_change channel=11 control=1 value=100 time=0
EXTRACT: note_on channel=3 note=76 velocity=0 time=0.00704225
EXTRACT: note_on channel=3 note=64 velocity=112 time=0
EXTRACT: note_on channel=9 note=51 velocity=127 time=0
EXTRACT: note_on channel=9 note=46 velocity=100 time=0
EXTRACT: control_change channel=11 control=1 value=101 time=0
EXTRACT: control_change channel=11 control=1 value=102 time=0.00704225
EXTRACT: control_change channel=11 control=11 value=98 time=0.0140845
EXTRACT: control_change channel=11 control=1 value=103 time=0
EXTRACT: control_change channel=11 control=1 value=104 time=0.00704225
EXTRACT: control_change channel=11 control=11 value=97 time=0.00704225
EXTRACT: control_change channel=11 control=1 value=105 time=0.00704225
EXTRACT: control_change channel=11 control=11 value=96 time=0.02112675
EXTRACT: control_change channel=11 control=11 value=95 time=0.00704225
EXTRACT: control_change channel=11 control=1 value=106 time=0
EXTRACT: control_change channel=11 control=1 value=107 time=0.00704225
EXTRACT: control_change channel=11 control=11 value=94 time=0.0140845
EXTRACT: control_change channel=11 control=1 value=108 time=0
EXTRACT: note_on channel=9 note=46 velocity=0 time=0.0140845
EXTRACT: note_on channel=9 note=51 velocity=0 time=0
EXTRACT: control_change channel=11 control=11 value=93 time=0
EXTRACT: control_change channel=11 control=1 value=109 time=0.00704225
EXTRACT: control_change channel=11 control=11 value=92 time=0.00704225
EXTRACT: control_change channel=11 control=11 value=91 time=0.00704225
EXTRACT: control_change channel=11 control=1 value=110 time=0
EXTRACT: control_change channel=11 control=1 value=111 time=0.02112675
EXTRACT: control_change channel=11 control=11 value=89 time=0.0140845
EXTRACT: control_change channel=11 control=11 value=88 time=0.0140845
EXTRACT: control_change channel=11 control=1 value=112 time=0
EXTRACT: control_change channel=11 control=1 value=113 time=0.0140845
EXTRACT: control_change channel=11 control=11 value=87 time=0.0140845
EXTRACT: control_change channel=11 control=1 value=114 time=0
EXTRACT: control_change channel=11 control=1 value=115 time=0.00704225
EXTRACT: control_change channel=11 control=11 value=86 time=0.02112675
EXTRACT: control_change channel=11 control=1 value=116 time=0.00704225
EXTRACT: control_change channel=11 control=11 value=85 time=0.00704225
EXTRACT: control_change channel=11 control=11 value=84 time=0.00704225
EXTRACT: control_change channel=11 control=1 value=117 time=0
EXTRACT: control_change channel=11 control=11 value=83 time=0.03521125
EXTRACT: control_change channel=11 control=11 value=82 time=0.00704225
EXTRACT: control_change channel=11 control=1 value=118 time=0
EXTRACT: control_change channel=11 control=11 value=81 time=0.02112675
EXTRACT: control_change channel=11 control=1 value=119 time=0
EXTRACT: control_change channel=11 control=11 value=80 time=0.00704225
EXTRACT: control_change channel=11 control=11 value=79 time=0.0140845
EXTRACT: control_change channel=11 control=1 value=120 time=0
EXTRACT: control_change channel=11 control=1 value=121 time=0.00704225
EXTRACT: control_change channel=11 control=11 value=78 time=0.0140845
EXTRACT: control_change channel=11 control=1 value=123 time=0
EXTRACT: control_change channel=11 control=11 value=76 time=0.0140845
EXTRACT: control_change channel=11 control=1 value=124 time=0
EXTRACT: control_change channel=11 control=11 value=75 time=0.028169
EXTRACT: control_change channel=11 control=11 value=74 time=0.0140845
EXTRACT: note_on channel=0 note=68 velocity=0 time=0.00704225
EXTRACT: note_on channel=0 note=56 velocity=0 time=0
EXTRACT: note_on channel=0 note=61 velocity=0 time=0
EXTRACT: note_on channel=0 note=64 velocity=0 time=0
EXTRACT: note_on channel=0 note=56 velocity=87 time=0
EXTRACT: note_on channel=0 note=61 velocity=87 time=0
EXTRACT: note_on channel=0 note=64 velocity=87 time=0
EXTRACT: note_on channel=0 note=68 velocity=87 time=0
EXTRACT: note_on channel=3 note=64 velocity=0 time=0
EXTRACT: note_on channel=3 note=76 velocity=112 time=0
EXTRACT: note_on channel=8 note=37 velocity=0 time=0
EXTRACT: note_on channel=8 note=37 velocity=123 time=0
EXTRACT: note_on channel=9 note=31 velocity=127 time=0
EXTRACT: note_on channel=9 note=33 velocity=127 time=0
EXTRACT: note_on channel=9 note=46 velocity=100 time=0
EXTRACT: note_on channel=10 note=31 velocity=73 time=0
EXTRACT: note_on channel=11 note=61 velocity=0 time=0
EXTRACT: control_change channel=11 control=1 value=0 time=0.02112675
EXTRACT: control_change channel=11 control=11 value=127 time=0.00704225
EXTRACT: pitchwheel channel=11 pitch=0 time=0.028169
EXTRACT: note_on channel=9 note=46 velocity=0 time=0.04929575
EXTRACT: note_on channel=9 note=33 velocity=0 time=0
EXTRACT: note_on channel=9 note=31 velocity=0 time=0
EXTRACT: note_on channel=10 note=31 velocity=0 time=0
EXTRACT: note_on channel=11 note=57 velocity=118 time=0.16197175
EXTRACT: control_change channel=6 control=1 value=49 time=0.112676
EXTRACT: note_on channel=3 note=76 velocity=0 time=0.0422535
EXTRACT: pitchwheel channel=3 pitch=384 time=0
EXTRACT: note_on channel=3 note=71 velocity=112 time=0
EXTRACT: note_on channel=9 note=46 velocity=100 time=0
EXTRACT: note_on channel=11 note=61 velocity=118 time=0
EXTRACT: pitchwheel channel=3 pitch=640 time=0.00704225
EXTRACT: note_on channel=11 note=57 velocity=0 time=0.0140845
EXTRACT: pitchwheel channel=3 pitch=896 time=0.0140845
EXTRACT: pitchwheel channel=3 pitch=1024 time=0.0140845
EXTRACT: pitchwheel channel=3 pitch=1280 time=0.02112675
EXTRACT: pitchwheel channel=3 pitch=1408 time=0.0140845
EXTRACT: pitchwheel channel=11 pitch=0 time=0.0140845
EXTRACT: pitchwheel channel=3 pitch=1664 time=0.00704225
EXTRACT: note_on channel=9 note=46 velocity=0 time=0
EXTRACT: pitchwheel channel=11 pitch=-256 time=0
EXTRACT: pitchwheel channel=3 pitch=1920 time=0.00704225
EXTRACT: pitchwheel channel=11 pitch=-512 time=0
EXTRACT: pitchwheel channel=11 pitch=-768 time=0.0140845
EXTRACT: pitchwheel channel=11 pitch=-1152 time=0.00704225
EXTRACT: pitchwheel channel=11 pitch=-1408 time=0.00704225
EXTRACT: pitchwheel channel=11 pitch=-1664 time=0.00704225
EXTRACT: pitchwheel channel=11 pitch=-1920 time=0.00704225
EXTRACT: pitchwheel channel=3 pitch=2688 time=0.00704225
EXTRACT: pitchwheel channel=3 pitch=2944 time=0.00704225
EXTRACT: pitchwheel channel=11 pitch=-2304 time=0
EXTRACT: pitchwheel channel=11 pitch=-2560 time=0.00704225
EXTRACT: pitchwheel channel=11 pitch=-2816 time=0.00704225
EXTRACT: pitchwheel channel=3 pitch=3712 time=0.00704225
EXTRACT: pitchwheel channel=11 pitch=-3072 time=0
EXTRACT: pitchwheel channel=3 pitch=4224 time=0.00704225
EXTRACT: pitchwheel channel=11 pitch=-3456 time=0
EXTRACT: note_on channel=1 note=61 velocity=0 time=0.00704225
EXTRACT: pitchwheel channel=3 pitch=4992 time=0
EXTRACT: pitchwheel channel=3 pitch=5120 time=0.00704225
EXTRACT: note_on channel=9 note=33 velocity=127 time=0
EXTRACT: pitchwheel channel=11 pitch=-3712 time=0
EXTRACT: pitchwheel channel=3 pitch=5376 time=0.00704225
EXTRACT: pitchwheel channel=11 pitch=-3968 time=0
EXTRACT: note_on channel=1 note=52 velocity=0 time=0.00704225
EXTRACT: pitchwheel channel=11 pitch=-4224 time=0
EXTRACT: pitchwheel channel=3 pitch=5632 time=0.00704225
EXTRACT: pitchwheel channel=11 pitch=-4608 time=0
EXTRACT: pitchwheel channel=11 pitch=-4864 time=0.00704225
EXTRACT: note_on channel=1 note=56 velocity=0 time=0.00704225
EXTRACT: pitchwheel channel=3 pitch=5888 time=0
EXTRACT: note_on channel=1 note=68 velocity=0 time=0.00704225
EXTRACT: pitchwheel channel=3 pitch=6144 time=0
EXTRACT: pitchwheel channel=11 pitch=-5120 time=0
EXTRACT: pitchwheel channel=3 pitch=6400 time=0.00704225
EXTRACT: pitchwheel channel=11 pitch=-5376 time=0
EXTRACT: note_on channel=4 note=64 velocity=0 time=0.00704225
EXTRACT: pitchwheel channel=11 pitch=-5760 time=0
EXTRACT: pitchwheel channel=3 pitch=6656 time=0.00704225
EXTRACT: pitchwheel channel=11 pitch=-6016 time=0
EXTRACT: pitchwheel channel=11 pitch=-6272 time=0.00704225
EXTRACT: pitchwheel channel=3 pitch=6912 time=0.00704225
EXTRACT: note_on channel=4 note=57 velocity=0 time=0
EXTRACT: pitchwheel channel=3 pitch=7168 time=0.00704225
EXTRACT: pitchwheel channel=11 pitch=-6528 time=0
EXTRACT: pitchwheel channel=3 pitch=7424 time=0.00704225
EXTRACT: pitchwheel channel=11 pitch=-6912 time=0
EXTRACT: pitchwheel channel=11 pitch=-7168 time=0.00704225
EXTRACT: pitchwheel channel=3 pitch=7552 time=0.00704225
EXTRACT: note_on channel=4 note=52 velocity=0 time=0
EXTRACT: note_on channel=9 note=33 velocity=0 time=0
EXTRACT: pitchwheel channel=11 pitch=-7424 time=0
EXTRACT: pitchwheel channel=3 pitch=7680 time=0.00704225
EXTRACT: pitchwheel channel=11 pitch=-7680 time=0
EXTRACT: pitchwheel channel=3 pitch=7936 time=0.00704225
EXTRACT: pitchwheel channel=3 pitch=8191 time=0.00704225
EXTRACT: pitchwheel channel=11 pitch=-8064 time=0
EXTRACT: note_on channel=1 note=64 velocity=73 time=0.03521125
EXTRACT: note_on channel=1 note=52 velocity=73 time=0.00704225
EXTRACT: note_on channel=1 note=69 velocity=73 time=0.0140845
EXTRACT: note_on channel=4 note=52 velocity=73 time=0.00704225
EXTRACT: note_on channel=4 note=61 velocity=0 time=0.00704225
EXTRACT: note_on channel=0 note=68 velocity=0 time=0.0140845
EXTRACT: note_on channel=0 note=56 velocity=0 time=0
EXTRACT: note_on channel=0 note=61 velocity=0 time=0
EXTRACT: note_on channel=0 note=64 velocity=0 time=0
EXTRACT: note_on channel=0 note=69 velocity=87 time=0
EXTRACT: note_on channel=0 note=59 velocity=87 time=0
EXTRACT: note_on channel=0 note=64 velocity=87 time=0
EXTRACT: note_on channel=2 note=52 velocity=0 time=0
EXTRACT: note_on channel=2 note=61 velocity=0 time=0
EXTRACT: note_on channel=2 note=61 velocity=73 time=0
EXTRACT: note_on channel=3 note=71 velocity=0 time=0
EXTRACT: note_on channel=3 note=71 velocity=112 time=0
EXTRACT: note_on channel=4 note=56 velocity=73 time=0
EXTRACT: note_on channel=4 note=59 velocity=73 time=0
EXTRACT: note_on channel=4 note=64 velocity=73 time=0
EXTRACT: note_on channel=8 note=37 velocity=0 time=0
EXTRACT: note_on channel=8 note=40 velocity=123 time=0
EXTRACT: note_on channel=9 note=46 velocity=100 time=0
EXTRACT: note_on channel=11 note=61 velocity=0 time=0
EXTRACT: pitchwheel channel=11 pitch=0 time=0
EXTRACT: note_on channel=11 note=59 velocity=118 time=0
EXTRACT: pitchwheel channel=3 pitch=128 time=0.00704225
EXTRACT: pitchwheel channel=3 pitch=0 time=0.028169
EXTRACT: note_on channel=1 note=59 velocity=73 time=0.0140845
EXTRACT: note_on channel=9 note=46 velocity=0 time=0.056338
EXTRACT: note_on channel=9 note=33 velocity=127 time=0.10563375
EXTRACT: note_on channel=9 note=33 velocity=0 time=0.10563375
EXTRACT: note_on channel=0 note=64 velocity=0 time=0.10563375
EXTRACT: note_on channel=0 note=64 velocity=87 time=0
EXTRACT: note_on channel=2 note=61 velocity=0 time=0
EXTRACT: note_on channel=2 note=59 velocity=73 time=0
EXTRACT: note_on channel=2 note=62 velocity=73 time=0
EXTRACT: note_on channel=3 note=71 velocity=0 time=0
EXTRACT: note_on channel=3 note=73 velocity=112 time=0
EXTRACT: note_on channel=8 note=40 velocity=0 time=0
EXTRACT: note_on channel=8 note=40 velocity=123 time=0
EXTRACT: note_on channel=9 note=33 velocity=127 time=0
EXTRACT: note_on channel=9 note=46 velocity=100 time=0
EXTRACT: note_on channel=11 note=59 velocity=0 time=0
EXTRACT: note_on channel=11 note=61 velocity=118 time=0
EXTRACT: note_on channel=9 note=46 velocity=0 time=0.10563375
EXTRACT: note_on channel=9 note=33 velocity=0 time=0
EXTRACT: note_on channel=8 note=40 velocity=0 time=0.10563375
EXTRACT: note_on channel=8 note=40 velocity=123 time=0
EXTRACT: control_change channel=6 control=11 value=4 time=0.0140845
EXTRACT: control_change channel=6 control=11 value=5 time=0.0140845
EXTRACT: control_change channel=6 control=11 value=6 time=0.02112675
EXTRACT: control_change channel=6 control=11 value=7 time=0.02112675
EXTRACT: control_change channel=6 control=11 value=8 time=0.02112675
EXTRACT: control_change channel=6 control=11 value=9 time=0.0140845
EXTRACT: control_change channel=6 control=11 value=10 time=0.028169
EXTRACT: control_change channel=6 control=11 value=11 time=0.0140845
EXTRACT: control_change channel=6 control=11 value=12 time=0.0140845
EXTRACT: note_on channel=6 note=64 velocity=79 time=0.02112675
EXTRACT: control_change channel=6 control=11 value=13 time=0.00704225
EXTRACT: control_change channel=6 control=11 value=14 time=0.0140845
EXTRACT: note_on channel=0 note=64 velocity=0 time=0.00704225
EXTRACT: note_on channel=0 note=59 velocity=0 time=0
EXTRACT: note_on channel=0 note=69 velocity=0 time=0
EXTRACT: note_on channel=0 note=69 velocity=87 time=0
EXTRACT: note_on channel=0 note=59 velocity=87 time=0
EXTRACT: note_on channel=0 note=64 velocity=87 time=0
EXTRACT: note_on channel=2 note=62 velocity=0 time=0
EXTRACT: note_on channel=2 note=59 velocity=0 time=0
EXTRACT: note_on channel=2 note=61 velocity=73 time=0
EXTRACT: note_on channel=3 note=73 velocity=0 time=0
EXTRACT: note_on channel=3 note=71 velocity=112 time=0
EXTRACT: note_on channel=8 note=40 velocity=0 time=0
EXTRACT: note_on channel=8 note=40 velocity=123 time=0
EXTRACT: note_on channel=9 note=31 velocity=127 time=0
EXTRACT: note_on channel=9 note=33 velocity=127 time=0
EXTRACT: note_on channel=9 note=46 velocity=100 time=0
EXTRACT: note_on channel=10 note=31 velocity=73 time=0
EXTRACT: note_on channel=11 note=61 velocity=0 time=0
EXTRACT: note_on channel=11 note=59 velocity=118 time=0
EXTRACT: control_change channel=6 control=11 value=15 time=0.0140845
EXTRACT: control_change channel=6 control=11 value=16 time=0.0140845
EXTRACT: control_change channel=6 control=11 value=17 time=0.028169
EXTRACT: control_change channel=6 control=11 value=18 time=0.0140845
EXTRACT: pitchwheel channel=11 pitch=0 time=0.0140845
EXTRACT: control_change channel=6 control=11 value=19 time=0.00704225
EXTRACT: pitchwheel channel=11 pitch=-256 time=0
EXTRACT: pitchwheel channel=11 pitch=-512 time=0.00704225
EXTRACT: note_on channel=9 note=46 velocity=0 time=0.00704225
EXTRACT: note_on channel=9 note=33 velocity=0 time=0
EXTRACT: note_on channel=9 note=31 velocity=0 time=0
EXTRACT: note_on channel=10 note=31 velocity=0 time=0
EXTRACT: pitchwheel channel=11 pitch=-768 time=0
EXTRACT: control_change channel=6 control=11 value=20 time=0.00704225
EXTRACT: pitchwheel channel=11 pitch=-1152 time=0
EXTRACT: pitchwheel channel=11 pitch=-1408 time=0.0140845
EXTRACT: control_change channel=6 control=11 value=21 time=0.00704225
EXTRACT: pitchwheel channel=11 pitch=-1664 time=0
EXTRACT: pitchwheel channel=11 pitch=-1920 time=0.00704225
EXTRACT: control_change channel=6 control=11 value=22 time=0.00704225
EXTRACT: pitchwheel channel=11 pitch=-2304 time=0
EXTRACT: pitchwheel channel=11 pitch=-2560 time=0.00704225
EXTRACT: pitchwheel channel=11 pitch=-2816 time=0.0140845
EXTRACT: control_change channel=6 control=11 value=23 time=0.00704225
EXTRACT: pitchwheel channel=11 pitch=-3072 time=0
EXTRACT: pitchwheel channel=11 pitch=-3456 time=0.00704225
EXTRACT: control_change channel=6 control=11 value=24 time=0.00704225
EXTRACT: pitchwheel channel=11 pitch=-3712 time=0
EXTRACT: pitchwheel channel=11 pitch=-3968 time=0.00704225
EXTRACT: control_change channel=6 control=11 value=25 time=0.00704225
EXTRACT: pitchwheel channel=11 pitch=-4224 time=0.00704225
EXTRACT: pitchwheel channel=11 pitch=-4608 time=0.00704225
EXTRACT: pitchwheel channel=11 pitch=-4864 time=0.00704225
EXTRACT: control_change channel=6 control=11 value=26 time=0.00704225
EXTRACT: pitchwheel channel=11 pitch=-5120 time=0
EXTRACT: pitchwheel channel=11 pitch=-5376 time=0.00704225
EXTRACT: control_change channel=6 control=11 value=27 time=0.00704225
EXTRACT: pitchwheel channel=11 pitch=-5760 time=0.00704225
EXTRACT: pitchwheel channel=11 pitch=-6016 time=0.00704225
EXTRACT: control_change channel=6 control=11 value=28 time=0.00704225
EXTRACT: pitchwheel channel=11 pitch=-6272 time=0
EXTRACT: pitchwheel channel=11 pitch=-6528 time=0.00704225
EXTRACT: control_change channel=6 control=11 value=29 time=0.00704225
EXTRACT: pitchwheel channel=11 pitch=-6912 time=0
EXTRACT: pitchwheel channel=11 pitch=-7168 time=0.0140845
EXTRACT: pitchwheel channel=11 pitch=-7424 time=0.00704225
EXTRACT: control_change channel=6 control=11 value=30 time=0.00704225
EXTRACT: pitchwheel channel=11 pitch=-7680 time=0
EXTRACT: pitchwheel channel=11 pitch=-8064 time=0.00704225
EXTRACT: control_change channel=6 control=11 value=31 time=0.00704225
EXTRACT: control_change channel=6 control=11 value=32 time=0.02112675
EXTRACT: control_change channel=6 control=11 value=33 time=0.02112675
EXTRACT: control_change channel=6 control=11 value=34 time=0.02112675
EXTRACT: control_change channel=6 control=11 value=35 time=0.0140845
EXTRACT: pitchwheel channel=11 pitch=0 time=0.00704225
EXTRACT: note_on channel=0 note=64 velocity=0 time=0.0140845
EXTRACT: note_on channel=0 note=64 velocity=87 time=0
EXTRACT: note_on channel=2 note=61 velocity=0 time=0
EXTRACT: note_on channel=2 note=59 velocity=73 time=0
EXTRACT: note_on channel=2 note=62 velocity=73 time=0
EXTRACT: note_on channel=3 note=71 velocity=0 time=0
EXTRACT: note_on channel=3 note=73 velocity=112 time=0
EXTRACT: note_on channel=8 note=40 velocity=0 time=0
EXTRACT: note_on channel=8 note=40 velocity=123 time=0
EXTRACT: note_on channel=9 note=51 velocity=127 time=0
EXTRACT: note_on channel=9 note=46 velocity=100 time=0
EXTRACT: note_on channel=11 note=59 velocity=0 time=0
EXTRACT: note_on channel=11 note=57 velocity=118 time=0
EXTRACT: control_change channel=6 control=11 value=36 time=0.00704225
EXTRACT: control_change channel=6 control=11 value=37 time=0.0140845
EXTRACT: control_change channel=6 control=11 value=38 time=0.0140845
EXTRACT: control_change channel=6 control=11 value=39 time=0.028169
EXTRACT: control_change channel=6 control=11 value=40 time=0.0140845
EXTRACT: control_change channel=6 control=11 value=41 time=0.02112675
EXTRACT: note_on channel=9 note=46 velocity=0 time=0.00704225
EXTRACT: note_on channel=9 note=51 velocity=0 time=0
EXTRACT: control_change channel=6 control=11 value=42 time=0.00704225
EXTRACT: control_change channel=6 control=11 value=43 time=0.028169
EXTRACT: control_change channel=6 control=11 value=44 time=0.0140845
EXTRACT: control_change channel=6 control=93 value=68 time=0.0140845
EXTRACT: note_on channel=4 note=52 velocity=0 time=0.00704225
EXTRACT: control_change channel=6 control=11 value=45 time=0
EXTRACT: control_change channel=6 control=94 value=56 time=0.0140845
EXTRACT: note_on channel=4 note=56 velocity=0 time=0.00704225
EXTRACT: note_on channel=4 note=59 velocity=0 time=0
EXTRACT: note_on channel=4 note=64 velocity=0 time=0
EXTRACT: control_change channel=6 control=11 value=46 time=0
EXTRACT: note_on channel=1 note=64 velocity=0 time=0.00704225
EXTRACT: note_on channel=1 note=52 velocity=0 time=0.00704225
EXTRACT: control_change channel=6 control=11 value=47 time=0.00704225
EXTRACT: note_on channel=1 note=69 velocity=0 time=0.00704225
EXTRACT: control_change channel=6 control=11 value=48 time=0.00704225
EXTRACT: control_change channel=9 control=99 value=28 time=0.00704225
EXTRACT: control_change channel=9 control=98 value=82 time=0
EXTRACT: control_change channel=9 control=6 value=46 time=0
EXTRACT: control_change channel=9 control=38 value=127 time=0
EXTRACT: control_change channel=5 control=93 value=48 time=0.0140845
EXTRACT: control_change channel=6 control=11 value=49 time=0.00704225
EXTRACT: control_change channel=6 control=11 value=50 time=0.0140845
EXTRACT: control_change channel=6 control=11 value=51 time=0.0140845
EXTRACT: note_on channel=1 note=59 velocity=0 time=0.0140845
EXTRACT: control_change channel=6 control=11 value=52 time=0.0140845
EXTRACT: control_change channel=6 control=11 value=53 time=0.0140845
EXTRACT: control_change channel=6 control=11 value=54 time=0.02112675
EXTRACT: note_on channel=1 note=64 velocity=100 time=0.0140845
EXTRACT: control_change channel=6 control=11 value=55 time=0
EXTRACT: control_change channel=6 control=11 value=56 time=0.028169
EXTRACT: control_change channel=6 control=11 value=57 time=0.0140845
EXTRACT: note_on channel=3 note=61 velocity=101 time=0.00704225
EXTRACT: control_change channel=11 control=11 value=127 time=0
EXTRACT: note_on channel=0 note=64 velocity=0 time=0.00704225
EXTRACT: note_on channel=0 note=59 velocity=0 time=0
EXTRACT: note_on channel=0 note=69 velocity=0 time=0
EXTRACT: note_on channel=1 note=45 velocity=64 time=0
EXTRACT: note_on channel=1 note=57 velocity=64 time=0
EXTRACT: note_on channel=1 note=61 velocity=64 time=0
EXTRACT: note_on channel=2 note=62 velocity=0 time=0
EXTRACT: note_on channel=2 note=59 velocity=0 time=0
EXTRACT: note_on channel=3 note=73 velocity=0 time=0
EXTRACT: note_on channel=3 note=69 velocity=101 time=0
EXTRACT: note_on channel=8 note=40 velocity=0 time=0
EXTRACT: note_on channel=9 note=33 velocity=127 time=0
EXTRACT: note_on channel=9 note=46 velocity=100 time=0
EXTRACT: note_on channel=9 note=57 velocity=100 time=0
EXTRACT: note_on channel=11 note=57 velocity=0 time=0
EXTRACT: note_on channel=11 note=57 velocity=118 time=0
EXTRACT: control_change channel=6 control=11 value=58 time=0.00704225
EXTRACT: note_on channel=8 note=45 velocity=61 time=0
EXTRACT: control_change channel=11 control=11 value=126 time=0.00704225
EXTRACT: control_change channel=6 control=11 value=59 time=0.0140845
EXTRACT: control_change channel=11 control=11 value=125 time=0
EXTRACT: control_change channel=6 control=11 value=60 time=0.02112675
EXTRACT: control_change channel=6 control=11 value=61 time=0.0140845
EXTRACT: control_change channel=11 control=11 value=124 time=0
EXTRACT: control_change channel=6 control=11 value=62 time=0.028169
EXTRACT: control_change channel=11 control=11 value=123 time=0.00704225
EXTRACT: control_change channel=6 control=11 value=63 time=0.00704225
EXTRACT: note_on channel=9 note=57 velocity=0 time=0
EXTRACT: note_on channel=9 note=46 velocity=0 time=0
EXTRACT: note_on channel=9 note=33 velocity=0 time=0
EXTRACT: control_change channel=6 control=11 value=64 time=0.0140845
EXTRACT: control_change channel=6 control=11 value=65 time=0.02112675
EXTRACT: control_change channel=11 control=11 value=122 time=0.00704225
EXTRACT: control_change channel=11 control=11 value=121 time=0.00704225
EXTRACT: control_change channel=6 control=11 value=66 time=0.00704225
EXTRACT: control_change channel=11 control=11 value=119 time=0.0140845
EXTRACT: control_change channel=6 control=11 value=67 time=0.00704225
EXTRACT: control_change channel=11 control=11 value=111 time=0
EXTRACT: control_change channel=11 control=11 value=106 time=0.00704225
EXTRACT: control_change channel=6 control=11 value=68 time=0.00704225
EXTRACT: control_change channel=11 control=11 value=104 time=0
EXTRACT: control_change channel=11 control=11 value=91 time=0.00704225
EXTRACT: control_change channel=11 control=11 value=79 time=0.0140845
EXTRACT: control_change channel=6 control=11 value=69 time=0.00704225
EXTRACT: control_change channel=11 control=11 value=72 time=0
EXTRACT: control_change channel=11 control=11 value=70 time=0.00704225
EXTRACT: control_change channel=6 control=11 value=70 time=0.00704225
EXTRACT: control_change channel=11 control=11 value=67 time=0
EXTRACT: control_change channel=11 control=11 value=61 time=0.00704225
EXTRACT: control_change channel=6 control=11 value=71 time=0.0140845
EXTRACT: control_change channel=11 control=11 value=53 time=0
EXTRACT: control_change channel=11 control=11 value=46 time=0.0140845
EXTRACT: control_change channel=6 control=11 value=72 time=0.00704225
EXTRACT: control_change channel=11 control=11 value=40 time=0
EXTRACT: control_change channel=11 control=11 value=37 time=0.00704225
EXTRACT: control_change channel=6 control=11 value=73 time=0.0140845
EXTRACT: control_change channel=11 control=11 value=34 time=0
EXTRACT: control_change channel=11 control=11 value=29 time=0.00704225
EXTRACT: control_change channel=6 control=11 value=74 time=0.00704225
EXTRACT: control_change channel=11 control=11 value=23 time=0
EXTRACT: control_change channel=11 control=11 value=14 time=0.00704225
EXTRACT: control_change channel=11 control=11 value=10 time=0.00704225
EXTRACT: control_change channel=6 control=11 value=75 time=0.0140845
EXTRACT: control_change channel=11 control=11 value=5 time=0
EXTRACT: control_change channel=11 control=11 value=2 time=0.00704225
EXTRACT: control_change channel=6 control=11 value=76 time=0.00704225
EXTRACT: control_change channel=11 control=11 value=10 time=0
EXTRACT: control_change channel=11 control=11 value=4 time=0.00704225
EXTRACT: control_change channel=6 control=11 value=77 time=0.00704225
EXTRACT: control_change channel=11 control=11 value=0 time=0
EXTRACT: control_change channel=6 control=11 value=78 time=0.02112675
EXTRACT: control_change channel=6 control=11 value=79 time=0.02112675
EXTRACT: note_on channel=3 note=69 velocity=0 time=0.00704225
EXTRACT: note_on channel=11 note=57 velocity=0 time=0
EXTRACT: control_change channel=11 control=11 value=126 time=0.00704225
EXTRACT: control_change channel=6 control=11 value=80 time=0.00704225
EXTRACT: control_change channel=11 control=11 value=127 time=0
EXTRACT: control_change channel=6 control=11 value=81 time=0.0140845
EXTRACT: control_change channel=6 control=11 value=82 time=0.028169
EXTRACT: control_change channel=6 control=11 value=83 time=0.0140845
EXTRACT: control_change channel=6 control=11 value=84 time=0.02112675
EXTRACT: control_change channel=6 control=11 value=85 time=0.02112675
EXTRACT: control_change channel=6 control=11 value=86 time=0.02112675
EXTRACT: control_change channel=6 control=11 value=87 time=0.0140845
EXTRACT: control_change channel=6 control=11 value=88 time=0.028169
EXTRACT: control_change channel=6 control=11 value=89 time=0.0140845
EXTRACT: control_change channel=6 control=11 value=90 time=0.0140845
EXTRACT: control_change channel=6 control=11 value=91 time=0.02112675
EXTRACT: control_change channel=6 control=11 value=92 time=0.02112675
EXTRACT: control_change channel=6 control=11 value=93 time=0.02112675
EXTRACT: control_change channel=6 control=11 value=94 time=0.0140845
EXTRACT: control_change channel=6 control=11 value=95 time=0.028169
EXTRACT: control_change channel=6 control=11 value=96 time=0.0140845
EXTRACT: control_change channel=6 control=11 value=97 time=0.02112675
EXTRACT: control_change channel=6 control=11 value=98 time=0.02112675
EXTRACT: control_change channel=6 control=11 value=99 time=0.02112675
EXTRACT: control_change channel=6 control=11 value=100 time=0.0140845
EXTRACT: note_on channel=3 note=61 velocity=0 time=0.0140845
EXTRACT: note_on channel=11 note=59 velocity=109 time=0.00704225
EXTRACT: control_change channel=6 control=11 value=101 time=0.00704225
EXTRACT: control_change channel=6 control=11 value=102 time=0.0140845
EXTRACT: control_change channel=6 control=11 value=103 time=0.0140845
EXTRACT: control_change channel=6 control=11 value=104 time=0.02112675
EXTRACT: control_change channel=6 control=11 value=105 time=0.02112675
EXTRACT: control_change channel=6 control=11 value=106 time=0.02112675
EXTRACT: control_change channel=6 control=11 value=107 time=0.0140845
EXTRACT: control_change channel=6 control=11 value=108 time=0.028169
EXTRACT: control_change channel=6 control=11 value=109 time=0.0140845
EXTRACT: control_change channel=6 control=11 value=110 time=0.02112675
EXTRACT: control_change channel=6 control=11 value=111 time=0.02112675
EXTRACT: control_change channel=6 control=11 value=112 time=0.02112675
EXTRACT: control_change channel=6 control=11 value=113 time=0.0140845
EXTRACT: control_change channel=6 control=11 value=114 time=0.028169
EXTRACT: control_change channel=6 control=11 value=115 time=0.0140845
EXTRACT: note_on channel=11 note=59 velocity=0 time=0
EXTRACT: note_on channel=11 note=61 velocity=106 time=0.00704225
EXTRACT: control_change channel=6 control=11 value=116 time=0.00704225
EXTRACT: control_change channel=6 control=11 value=117 time=0.02112675
EXTRACT: control_change channel=6 control=11 value=118 time=0.02112675
EXTRACT: control_change channel=6 control=11 value=119 time=0.02112675
EXTRACT: control_change channel=6 control=11 value=120 time=0.0140845
EXTRACT: control_change channel=6 control=11 value=121 time=0.028169
EXTRACT: control_change channel=6 control=11 value=122 time=0.0140845
EXTRACT: control_change channel=6 control=11 value=123 time=0.02112675
EXTRACT: control_change channel=6 control=11 value=124 time=0.02112675
EXTRACT: control_change channel=6 control=11 value=125 time=0.02112675
EXTRACT: control_change channel=6 control=11 value=126 time=0.0140845
EXTRACT: control_change channel=6 control=11 value=127 time=0.0140845
EXTRACT: control_change channel=6 control=11 value=126 time=0.028169
EXTRACT: control_change channel=6 control=11 value=125 time=0.0140845
EXTRACT: control_change channel=6 control=11 value=124 time=0.02112675
EXTRACT: control_change channel=6 control=11 value=123 time=0.0140845
EXTRACT: control_change channel=6 control=11 value=122 time=0.02112675
EXTRACT: control_change channel=6 control=11 value=121 time=0.0140845
EXTRACT: control_change channel=6 control=11 value=120 time=0.0140845
EXTRACT: control_change channel=6 control=11 value=119 time=0.02112675
EXTRACT: control_change channel=6 control=11 value=118 time=0.0140845
EXTRACT: control_change channel=6 control=11 value=117 time=0.028169
EXTRACT: control_change channel=6 control=11 value=116 time=0.0140845
EXTRACT: control_change channel=6 control=11 value=115 time=0.02112675
EXTRACT: control_change channel=6 control=11 value=114 time=0.0140845
EXTRACT: control_change channel=6 control=11 value=113 time=0.0140845
EXTRACT: control_change channel=6 control=11 value=112 time=0.02112675
EXTRACT: note_on channel=1 note=45 velocity=0 time=0.00704225
EXTRACT: note_on channel=1 note=44 velocity=64 time=0
EXTRACT: control_change channel=6 control=11 value=111 time=0.00704225
EXTRACT: note_on channel=1 note=56 velocity=64 time=0.00704225
EXTRACT: note_on channel=11 note=61 velocity=0 time=0.00704225
EXTRACT: control_change channel=6 control=11 value=110 time=0.00704225
EXTRACT: note_on channel=1 note=57 velocity=0 time=0.0140845
EXTRACT: control_change channel=6 control=11 value=109 time=0
EXTRACT: pitchwheel channel=8 pitch=-3968 time=0.02112675
EXTRACT: note_on channel=11 note=61 velocity=103 time=0
EXTRACT: control_change channel=6 control=11 value=108 time=0.00704225
EXTRACT: control_change channel=11 control=11 value=124 time=0
EXTRACT: control_change channel=6 control=11 value=107 time=0.0140845
EXTRACT: control_change channel=6 control=11 value=106 time=0.0140845
EXTRACT: control_change channel=11 control=11 value=123 time=0.00704225
EXTRACT: control_change channel=11 control=11 value=122 time=0.00704225
EXTRACT: control_change channel=6 control=11 value=105 time=0.00704225
EXTRACT: control_change channel=6 control=11 value=104 time=0.0140845
EXTRACT: control_change channel=6 control=11 value=103 time=0.02112675
EXTRACT: control_change channel=6 control=11 value=102 time=0.0140845
EXTRACT: control_change channel=11 control=11 value=121 time=0
EXTRACT: control_change channel=6 control=11 value=101 time=0.0140845
EXTRACT: control_change channel=6 control=11 value=100 time=0.02112675
EXTRACT: control_change channel=11 control=11 value=120 time=0.0140845
EXTRACT: control_change channel=6 control=11 value=99 time=0.00704225
EXTRACT: control_change channel=11 control=11 value=118 time=0.00704225
EXTRACT: control_change channel=6 control=11 value=98 time=0.0140845
EXTRACT: control_change channel=6 control=11 value=97 time=0.0140845
EXTRACT: control_change channel=6 control=11 value=96 time=0.02112675
EXTRACT: control_change channel=11 control=11 value=117 time=0
EXTRACT: control_change channel=6 control=11 value=95 time=0.0140845
EXTRACT: control_change channel=6 control=11 value=94 time=0.0140845
EXTRACT: control_change channel=6 control=11 value=93 time=0.02112675
EXTRACT: control_change channel=11 control=11 value=115 time=0.00704225
EXTRACT: control_change channel=6 control=11 value=92 time=0.00704225
EXTRACT: control_change channel=11 control=11 value=113 time=0.00704225
EXTRACT: control_change channel=6 control=11 value=91 time=0.0140845
EXTRACT: control_change channel=6 control=11 value=90 time=0.02112675
EXTRACT: control_change channel=11 control=11 value=112 time=0.0140845
EXTRACT: control_change channel=6 control=11 value=89 time=0.00704225
EXTRACT: control_change channel=6 control=11 value=88 time=0.0140845
EXTRACT: control_change channel=11 control=11 value=110 time=0
EXTRACT: control_change channel=6 control=11 value=87 time=0.0140845
EXTRACT: control_change channel=11 control=11 value=108 time=0
EXTRACT: control_change channel=11 control=11 value=106 time=0.0140845
EXTRACT: control_change channel=6 control=11 value=86 time=0.00704225
EXTRACT: control_change channel=6 control=11 value=85 time=0.0140845
EXTRACT: control_change channel=11 control=11 value=105 time=0
EXTRACT: control_change channel=11 control=11 value=104 time=0.00704225
EXTRACT: control_change channel=6 control=11 value=84 time=0.0140845
EXTRACT: control_change channel=11 control=11 value=103 time=0
EXTRACT: control_change channel=6 control=11 value=83 time=0.0140845
EXTRACT: control_change channel=11 control=11 value=101 time=0
EXTRACT: control_change channel=6 control=11 value=82 time=0.0140845
EXTRACT: control_change channel=11 control=11 value=100 time=0
EXTRACT: control_change channel=11 control=11 value=98 time=0.0140845
EXTRACT: control_change channel=6 control=11 value=81 time=0.0140845
EXTRACT: control_change channel=6 control=11 value=80 time=0.0140845
EXTRACT: control_change channel=6 control=11 value=79 time=0.02112675
EXTRACT: control_change channel=11 control=11 value=96 time=0.00704225
EXTRACT: control_change channel=6 control=11 value=78 time=0.00704225
EXTRACT: control_change channel=11 control=11 value=94 time=0
EXTRACT: control_change channel=6 control=11 value=77 time=0.02112675
EXTRACT: control_change channel=6 control=11 value=76 time=0.0140845
EXTRACT: control_change channel=6 control=11 value=75 time=0.0140845
EXTRACT: control_change channel=11 control=11 value=93 time=0
EXTRACT: control_change channel=11 control=11 value=92 time=0.0140845
EXTRACT: control_change channel=6 control=11 value=74 time=0.00704225
EXTRACT: control_change channel=6 control=11 value=73 time=0.0140845
EXTRACT: control_change channel=11 control=11 value=91 time=0
EXTRACT: control_change channel=11 control=11 value=90 time=0.00704225
EXTRACT: control_change channel=11 control=11 value=89 time=0.00704225
EXTRACT: control_change channel=6 control=11 value=72 time=0.0140845
EXTRACT: control_change channel=11 control=11 value=87 time=0.00704225
EXTRACT: control_change channel=6 control=11 value=71 time=0.00704225
EXTRACT: control_change channel=11 control=11 value=86 time=0
EXTRACT: control_change channel=6 control=11 value=70 time=0.02112675
EXTRACT: control_change channel=6 control=11 value=69 time=0.0140845
EXTRACT: control_change channel=6 control=11 value=68 time=0.0140845
EXTRACT: control_change channel=11 control=11 value=84 time=0
EXTRACT: control_change channel=11 control=11 value=83 time=0.00704225
EXTRACT: control_change channel=11 control=11 value=82 time=0.00704225
EXTRACT: control_change channel=6 control=11 value=67 time=0.00704225
EXTRACT: control_change channel=11 control=11 value=81 time=0.00704225
EXTRACT: control_change channel=6 control=11 value=66 time=0.00704225
EXTRACT: control_change channel=11 control=11 value=80 time=0.00704225
EXTRACT: control_change channel=11 control=11 value=79 time=0.00704225
EXTRACT: control_change channel=6 control=11 value=65 time=0.00704225
EXTRACT: control_change channel=11 control=11 value=78 time=0
EXTRACT: control_change channel=6 control=11 value=64 time=0.0140845
EXTRACT: note_on channel=11 note=61 velocity=0 time=0
EXTRACT: control_change channel=11 control=11 value=77 time=0.0140845
EXTRACT: control_change channel=6 control=11 value=63 time=0.0140845
EXTRACT: control_change channel=6 control=11 value=62 time=0.0140845
EXTRACT: control_change channel=11 control=11 value=76 time=0
EXTRACT: control_change channel=6 control=11 value=61 time=0.0140845
EXTRACT: note_on channel=11 note=59 velocity=103 time=0
EXTRACT: control_change channel=11 control=11 value=127 time=0.0140845
EXTRACT: control_change channel=6 control=11 value=60 time=0.00704225
EXTRACT: control_change channel=6 control=11 value=59 time=0.0140845
EXTRACT: control_change channel=6 control=11 value=58 time=0.02112675
EXTRACT: control_change channel=6 control=11 value=57 time=0.0140845
EXTRACT: control_change channel=6 control=11 value=56 time=0.0140845
EXTRACT: control_change channel=6 control=11 value=55 time=0.02112675
EXTRACT: control_change channel=6 control=11 value=54 time=0.02112675
EXTRACT: control_change channel=6 control=11 value=53 time=0.02112675
EXTRACT: control_change channel=6 control=11 value=52 time=0.0140845
EXTRACT: control_change channel=6 control=11 value=51 time=0.02112675
EXTRACT: control_change channel=6 control=11 value=50 time=0.0140845
EXTRACT: control_change channel=6 control=11 value=49 time=0.0140845
EXTRACT: control_change channel=6 control=11 value=48 time=0.02112675
EXTRACT: control_change channel=6 control=11 value=47 time=0.0140845
EXTRACT: control_change channel=6 control=11 value=46 time=0.02112675
EXTRACT: control_change channel=6 control=11 value=45 time=0.02112675
EXTRACT: note_on channel=11 note=59 velocity=0 time=0
EXTRACT: control_change channel=6 control=11 value=44 time=0.02112675
EXTRACT: control_change channel=6 control=11 value=43 time=0.0140845
EXTRACT: control_change channel=11 control=11 value=126 time=0
EXTRACT: control_change channel=11 control=11 value=124 time=0.00704225
EXTRACT: control_change channel=6 control=11 value=42 time=0.00704225
EXTRACT: note_on channel=11 note=61 velocity=103 time=0
EXTRACT: control_change channel=11 control=11 value=123 time=0.00704225
EXTRACT: control_change channel=11 control=11 value=122 time=0.00704225
EXTRACT: control_change channel=6 control=11 value=41 time=0.00704225
EXTRACT: control_change channel=11 control=11 value=120 time=0.00704225
EXTRACT: control_change channel=6 control=11 value=40 time=0.00704225
EXTRACT: control_change channel=11 control=11 value=119 time=0.00704225
EXTRACT: control_change channel=6 control=11 value=39 time=0.0140845
EXTRACT: control_change channel=11 control=11 value=117 time=0
EXTRACT: control_change channel=6 control=11 value=38 time=0.0140845
EXTRACT: control_change channel=6 control=11 value=37 time=0.0140845
EXTRACT: control_change channel=6 control=11 value=36 time=0.028169
EXTRACT: control_change channel=11 control=11 value=116 time=0
EXTRACT: control_change channel=6 control=11 value=35 time=0.0140845
EXTRACT: control_change channel=6 control=11 value=34 time=0.02112675
EXTRACT: control_change channel=6 control=11 value=33 time=0.0140845
EXTRACT: control_change channel=11 control=11 value=115 time=0
EXTRACT: control_change channel=6 control=11 value=32 time=0.02112675
EXTRACT: control_change channel=6 control=11 value=31 time=0.0140845
EXTRACT: control_change channel=6 control=11 value=30 time=0.0140845
EXTRACT: control_change channel=11 control=11 value=113 time=0
EXTRACT: control_change channel=6 control=11 value=29 time=0.02112675
EXTRACT: control_change channel=6 control=11 value=28 time=0.0140845
EXTRACT: control_change channel=11 control=11 value=111 time=0.0140845
EXTRACT: control_change channel=6 control=11 value=27 time=0.0140845
EXTRACT: control_change channel=6 control=11 value=26 time=0.0140845
EXTRACT: control_change channel=6 control=11 value=25 time=0.02112675
EXTRACT: control_change channel=11 control=11 value=110 time=0
EXTRACT: control_change channel=6 control=11 value=24 time=0.0140845
EXTRACT: control_change channel=11 control=11 value=108 time=0.00704225
EXTRACT: control_change channel=6 control=11 value=23 time=0.00704225
EXTRACT: control_change channel=11 control=11 value=107 time=0.00704225
EXTRACT: control_change channel=6 control=11 value=22 time=0.0140845
EXTRACT: control_change channel=11 control=11 value=106 time=0.00704225
EXTRACT: control_change channel=6 control=11 value=21 time=0.00704225
EXTRACT: control_change channel=11 control=11 value=104 time=0.00704225
EXTRACT: note_on channel=1 note=44 velocity=0 time=0.00704225
EXTRACT: control_change channel=6 control=11 value=20 time=0.00704225
EXTRACT: control_change channel=11 control=11 value=103 time=0
EXTRACT: control_change channel=6 control=11 value=19 time=0.0140845
EXTRACT: control_change channel=11 control=11 value=102 time=0.00704225
EXTRACT: control_change channel=11 control=11 value=100 time=0.00704225
EXTRACT: control_change channel=6 control=11 value=18 time=0.0140845
EXTRACT: control_change channel=11 control=11 value=99 time=0
EXTRACT: note_on channel=1 note=56 velocity=0 time=0.00704225
EXTRACT: control_change channel=6 control=11 value=17 time=0.00704225
EXTRACT: control_change channel=11 control=11 value=98 time=0
EXTRACT: note_on channel=1 note=61 velocity=0 time=0.00704225
EXTRACT: control_change channel=6 control=11 value=16 time=0.00704225
EXTRACT: control_change channel=11 control=11 value=97 time=0
EXTRACT: note_on channel=1 note=56 velocity=71 time=0.00704225
EXTRACT: control_change channel=11 control=11 value=96 time=0.00704225
EXTRACT: control_change channel=6 control=11 value=15 time=0.00704225
EXTRACT: note_on channel=1 note=61 velocity=71 time=0.00704225
EXTRACT: control_change channel=11 control=11 value=95 time=0
EXTRACT: control_change channel=6 control=11 value=14 time=0.00704225
EXTRACT: control_change channel=11 control=11 value=93 time=0.00704225
EXTRACT: note_on channel=1 note=44 velocity=71 time=0.00704225
EXTRACT: control_change channel=11 control=11 value=92 time=0
EXTRACT: control_change channel=6 control=11 value=13 time=0.00704225
EXTRACT: control_change channel=11 control=11 value=91 time=0
EXTRACT: control_change channel=6 control=11 value=12 time=0.0140845
EXTRACT: control_change channel=11 control=11 value=90 time=0.00704225
EXTRACT: control_change channel=6 control=11 value=11 time=0.00704225
EXTRACT: control_change channel=11 control=11 value=88 time=0
EXTRACT: control_change channel=11 control=11 value=87 time=0.00704225
EXTRACT: control_change channel=6 control=11 value=10 time=0.0140845
EXTRACT: control_change channel=11 control=11 value=86 time=0.00704225
EXTRACT: control_change channel=11 control=11 value=84 time=0.00704225
EXTRACT: control_change channel=6 control=11 value=9 time=0.00704225
EXTRACT: control_change channel=11 control=11 value=83 time=0
EXTRACT: control_change channel=11 control=11 value=82 time=0.00704225
EXTRACT: control_change channel=6 control=11 value=8 time=0.0140845
EXTRACT: control_change channel=11 control=11 value=80 time=0.00704225
EXTRACT: control_change channel=6 control=11 value=7 time=0.00704225
EXTRACT: control_change channel=11 control=11 value=79 time=0.00704225
EXTRACT: control_change channel=6 control=11 value=6 time=0.0140845
EXTRACT: control_change channel=6 control=11 value=5 time=0.0140845
EXTRACT: control_change channel=6 control=11 value=4 time=0.0140845
EXTRACT: control_change channel=6 control=11 value=3 time=0.02112675
EXTRACT: control_change channel=6 control=11 value=2 time=0.0140845
EXTRACT: control_change channel=6 control=11 value=1 time=0.02112675
EXTRACT: control_change channel=6 control=11 value=2 time=0.00704225
EXTRACT: control_change channel=6 control=11 value=3 time=0.00704225
EXTRACT: control_change channel=6 control=11 value=4 time=0.00704225
EXTRACT: control_change channel=6 control=11 value=6 time=0.00704225
EXTRACT: control_change channel=6 control=11 value=8 time=0.02112675
EXTRACT: control_change channel=6 control=11 value=9 time=0.00704225
EXTRACT: note_on channel=11 note=61 velocity=0 time=0
EXTRACT: control_change channel=6 control=11 value=10 time=0.00704225
EXTRACT: control_change channel=11 control=11 value=127 time=0.00704225
EXTRACT: control_change channel=11 control=11 value=123 time=0.00704225
EXTRACT: note_on channel=11 note=61 velocity=103 time=0.0140845
EXTRACT: control_change channel=11 control=11 value=122 time=0.0140845
EXTRACT: control_change channel=6 control=11 value=12 time=0.00704225
EXTRACT: control_change channel=11 control=11 value=121 time=0.00704225
EXTRACT: control_change channel=6 control=11 value=13 time=0.00704225
EXTRACT: control_change channel=6 control=11 value=14 time=0.00704225
EXTRACT: control_change channel=6 control=11 value=16 time=0.00704225
EXTRACT: control_change channel=11 control=11 value=120 time=0
EXTRACT: control_change channel=6 control=11 value=17 time=0.00704225
EXTRACT: control_change channel=6 control=11 value=18 time=0.00704225
EXTRACT: control_change channel=11 control=11 value=118 time=0
EXTRACT: control_change channel=6 control=11 value=19 time=0.02112675
EXTRACT: control_change channel=11 control=11 value=117 time=0
EXTRACT: control_change channel=6 control=11 value=21 time=0.00704225
EXTRACT: control_change channel=6 control=11 value=22 time=0.00704225
EXTRACT: control_change channel=6 control=11 value=23 time=0.00704225
EXTRACT: control_change channel=6 control=11 value=25 time=0.02112675
EXTRACT: control_change channel=11 control=11 value=115 time=0.00704225
EXTRACT: control_change channel=6 control=11 value=26 time=0.00704225
EXTRACT: control_change channel=6 control=11 value=28 time=0.02112675
EXTRACT: control_change channel=6 control=11 value=29 time=0.0140845
EXTRACT: control_change channel=11 control=11 value=114 time=0.00704225
EXTRACT: control_change channel=6 control=11 value=30 time=0.00704225
EXTRACT: control_change channel=6 control=11 value=32 time=0.0140845
EXTRACT: control_change channel=6 control=11 value=33 time=0.04929575
EXTRACT: control_change channel=11 control=11 value=113 time=0
EXTRACT: control_change channel=6 control=11 value=34 time=0.0140845
EXTRACT: control_change channel=6 control=11 value=36 time=0.02112675
EXTRACT: control_change channel=6 control=11 value=37 time=0.0140845
EXTRACT: control_change channel=11 control=11 value=111 time=0
EXTRACT: control_change channel=6 control=11 value=39 time=0.0140845
EXTRACT: control_change channel=6 control=11 value=40 time=0.0140845
EXTRACT: control_change channel=11 control=11 value=109 time=0.02112675
EXTRACT: control_change channel=6 control=11 value=42 time=0.028169
EXTRACT: control_change channel=6 control=11 value=44 time=0.00704225
EXTRACT: control_change channel=6 control=11 value=45 time=0.04929575
EXTRACT: control_change channel=11 control=11 value=108 time=0
EXTRACT: control_change channel=6 control=11 value=46 time=0.00704225
EXTRACT: control_change channel=11 control=11 value=107 time=0.00704225
EXTRACT: control_change channel=11 control=11 value=106 time=0.0140845
EXTRACT: control_change channel=11 control=11 value=105 time=0.0140845
EXTRACT: control_change channel=11 control=11 value=104 time=0.00704225
EXTRACT: control_change channel=11 control=11 value=102 time=0.00704225
EXTRACT: control_change channel=6 control=11 value=48 time=0.00704225
EXTRACT: control_change channel=6 control=11 value=49 time=0.0140845
EXTRACT: control_change channel=11 control=11 value=101 time=0
EXTRACT: control_change channel=11 control=11 value=100 time=0.00704225
EXTRACT: control_change channel=6 control=11 value=50 time=0.00704225
EXTRACT: control_change channel=11 control=11 value=98 time=0.0422535
EXTRACT: control_change channel=11 control=11 value=97 time=0.00704225
EXTRACT: control_change channel=6 control=11 value=51 time=0.00704225
EXTRACT: control_change channel=6 control=11 value=53 time=0.00704225
EXTRACT: control_change channel=11 control=11 value=96 time=0.00704225
EXTRACT: control_change channel=6 control=11 value=54 time=0.00704225
EXTRACT: control_change channel=11 control=11 value=94 time=0.00704225
EXTRACT: control_change channel=11 control=11 value=93 time=0.00704225
EXTRACT: control_change channel=6 control=11 value=56 time=0.00704225
EXTRACT: control_change channel=6 control=11 value=57 time=0.0140845
EXTRACT: control_change channel=11 control=11 value=92 time=0
EXTRACT: control_change channel=11 control=11 value=90 time=0.00704225
EXTRACT: control_change channel=6 control=11 value=59 time=0.00704225
EXTRACT: control_change channel=11 control=11 value=89 time=0
EXTRACT: control_change channel=6 control=11 value=61 time=0.02112675
EXTRACT: control_change channel=11 control=11 value=87 time=0
EXTRACT: control_change channel=11 control=11 value=86 time=0.00704225
EXTRACT: control_change channel=6 control=11 value=62 time=0.00704225
EXTRACT: control_change channel=11 control=11 value=84 time=0
EXTRACT: control_change channel=11 control=11 value=82 time=0.0140845
EXTRACT: control_change channel=6 control=11 value=64 time=0.00704225
EXTRACT: control_change channel=6 control=11 value=66 time=0.0140845
EXTRACT: control_change channel=11 control=11 value=80 time=0
EXTRACT: control_change channel=6 control=11 value=68 time=0.0140845
EXTRACT: control_change channel=11 control=11 value=78 time=0
EXTRACT: control_change channel=6 control=11 value=70 time=0.02112675
EXTRACT: control_change channel=11 control=11 value=76 time=0
EXTRACT: control_change channel=6 control=11 value=72 time=0.0140845
EXTRACT: control_change channel=11 control=11 value=74 time=0
EXTRACT: control_change channel=11 control=11 value=72 time=0.00704225
EXTRACT: control_change channel=6 control=11 value=73 time=0.0140845
EXTRACT: control_change channel=11 control=11 value=70 time=0.03521125
EXTRACT: control_change channel=6 control=11 value=79 time=0.0140845
EXTRACT: control_change channel=11 control=11 value=69 time=0
EXTRACT: control_change channel=6 control=11 value=80 time=0.00704225
EXTRACT: control_change channel=11 control=11 value=63 time=0.00704225
EXTRACT: control_change channel=11 control=11 value=62 time=0.0140845
EXTRACT: control_change channel=11 control=11 value=60 time=0.0140845
EXTRACT: control_change channel=6 control=11 value=82 time=0.0140845
EXTRACT: control_change channel=11 control=11 value=58 time=0
EXTRACT: control_change channel=6 control=11 value=84 time=0.00704225
EXTRACT: control_change channel=11 control=11 value=57 time=0
EXTRACT: control_change channel=11 control=11 value=55 time=0.00704225
EXTRACT: control_change channel=6 control=11 value=85 time=0.0140845
EXTRACT: control_change channel=11 control=11 value=53 time=0.00704225
EXTRACT: control_change channel=6 control=11 value=87 time=0.00704225
EXTRACT: control_change channel=11 control=11 value=51 time=0
EXTRACT: control_change channel=6 control=11 value=88 time=0.00704225
EXTRACT: note_on channel=1 note=64 velocity=0 time=0.00704225
EXTRACT: note_on channel=1 note=64 velocity=81 time=0
EXTRACT: control_change channel=11 control=11 value=49 time=0
EXTRACT: control_change channel=6 control=11 value=89 time=0.0140845
EXTRACT: control_change channel=11 control=11 value=43 time=0.00704225
EXTRACT: control_change channel=6 control=11 value=91 time=0.00704225
EXTRACT: control_change channel=11 control=11 value=42 time=0
EXTRACT: control_change channel=11 control=11 value=40 time=0.0140845
EXTRACT: control_change channel=6 control=11 value=92 time=0.00704225
EXTRACT: control_change channel=11 control=11 value=39 time=0.00704225
EXTRACT: control_change channel=11 control=11 value=36 time=0.00704225
EXTRACT: control_change channel=6 control=11 value=93 time=0.0140845
EXTRACT: control_change channel=11 control=11 value=34 time=0
EXTRACT: control_change channel=6 control=11 value=94 time=0.0140845
EXTRACT: control_change channel=11 control=11 value=28 time=0.00704225
EXTRACT: control_change channel=6 control=11 value=95 time=0.00704225
EXTRACT: control_change channel=11 control=11 value=26 time=0.00704225
EXTRACT: control_change channel=6 control=11 value=96 time=0.00704225
EXTRACT: control_change channel=11 control=11 value=24 time=0.00704225
EXTRACT: control_change channel=6 control=11 value=97 time=0.0140845
EXTRACT: control_change channel=6 control=11 value=98 time=0.0140845
EXTRACT: control_change channel=6 control=11 value=99 time=0.00704225
EXTRACT: control_change channel=6 control=11 value=100 time=0.02112675
EXTRACT: control_change channel=11 control=11 value=21 time=0
EXTRACT: control_change channel=11 control=11 value=18 time=0.00704225
EXTRACT: control_change channel=6 control=11 value=101 time=0.00704225
EXTRACT: control_change channel=11 control=11 value=16 time=0.00704225
EXTRACT: control_change channel=11 control=11 value=10 time=0.00704225
EXTRACT: control_change channel=6 control=11 value=102 time=0.0140845
EXTRACT: control_change channel=11 control=11 value=9 time=0
EXTRACT: control_change channel=6 control=11 value=103 time=0.00704225
EXTRACT: control_change channel=11 control=11 value=7 time=0
EXTRACT: control_change channel=11 control=11 value=5 time=0.00704225
EXTRACT: control_change channel=6 control=11 value=104 time=0.00704225
EXTRACT: control_change channel=11 control=11 value=2 time=0
EXTRACT: control_change channel=6 control=11 value=105 time=0.02112675
EXTRACT: control_change channel=6 control=11 value=106 time=0.02112675
EXTRACT: note_on channel=11 note=61 velocity=0 time=0.00704225
EXTRACT: control_change channel=6 control=11 value=107 time=0.00704225
EXTRACT: control_change channel=11 control=11 value=126 time=0.0140845
EXTRACT: control_change channel=6 control=11 value=108 time=0.03521125
EXTRACT: control_change channel=6 control=11 value=109 time=0.02112675
EXTRACT: note_on channel=8 note=45 velocity=0 time=0.00704225
EXTRACT: note_on channel=11 note=57 velocity=103 time=0.03521125
EXTRACT: control_change channel=6 control=11 value=110 time=0.0140845
EXTRACT: control_change channel=6 control=11 value=111 time=0.0140845
EXTRACT: control_change channel=6 control=11 value=112 time=0.03521125
EXTRACT: control_change channel=6 control=11 value=113 time=0.03521125
EXTRACT: control_change channel=6 control=11 value=114 time=0.0704225
EXTRACT: note_on channel=11 note=57 velocity=0 time=0.06338025
EXTRACT: pitchwheel channel=11 pitch=4224 time=0.02112675
EXTRACT: note_on channel=11 note=56 velocity=103 time=0.03521125
EXTRACT: note_on channel=1 note=61 velocity=0 time=0.0704225
EXTRACT: pitchwheel channel=11 pitch=3456 time=0.056338
EXTRACT: note_on channel=1 note=62 velocity=100 time=0.0140845
EXTRACT: pitchwheel channel=11 pitch=2688 time=0
EXTRACT: pitchwheel channel=11 pitch=1920 time=0.02112675
EXTRACT: pitchwheel channel=11 pitch=1664 time=0.00704225
EXTRACT: pitchwheel channel=11 pitch=896 time=0.04929575
EXTRACT: pitchwheel channel=11 pitch=128 time=0.00704225
EXTRACT: pitchwheel channel=11 pitch=-128 time=0.02112675
EXTRACT: pitchwheel channel=11 pitch=-256 time=0.00704225
EXTRACT: pitchwheel channel=11 pitch=-512 time=0.00704225
EXTRACT: pitchwheel channel=11 pitch=-640 time=0.00704225
EXTRACT: pitchwheel channel=11 pitch=-1024 time=0.0140845
EXTRACT: pitchwheel channel=11 pitch=-1536 time=0.00704225
EXTRACT: pitchwheel channel=11 pitch=-2304 time=0.00704225
EXTRACT: pitchwheel channel=11 pitch=-3072 time=0.00704225
EXTRACT: pitchwheel channel=11 pitch=-3840 time=0.00704225
EXTRACT: pitchwheel channel=11 pitch=-4608 time=0.0140845
EXTRACT: pitchwheel channel=11 pitch=-4864 time=0.00704225
EXTRACT: pitchwheel channel=11 pitch=-5120 time=0.00704225
EXTRACT: pitchwheel channel=11 pitch=-5248 time=0.00704225
EXTRACT: pitchwheel channel=11 pitch=-5888 time=0.00704225
EXTRACT: pitchwheel channel=11 pitch=-6016 time=0.0140845
EXTRACT: pitchwheel channel=11 pitch=-6272 time=0.00704225
EXTRACT: pitchwheel channel=11 pitch=-6400 time=0.00704225
EXTRACT: pitchwheel channel=11 pitch=-7168 time=0.00704225
EXTRACT: pitchwheel channel=11 pitch=-7296 time=0.00704225
EXTRACT: pitchwheel channel=11 pitch=-7552 time=0.0140845
EXTRACT: pitchwheel channel=11 pitch=-7808 time=0.00704225
EXTRACT: pitchwheel channel=11 pitch=-8064 time=0.00704225
EXTRACT: control_change channel=6 control=11 value=113 time=0.09154925
EXTRACT: control_change channel=6 control=11 value=112 time=0.03521125
EXTRACT: note_on channel=11 note=56 velocity=0 time=0.0140845
EXTRACT: pitchwheel channel=11 pitch=0 time=0
EXTRACT: note_on channel=11 note=54 velocity=103 time=0.0140845
EXTRACT: control_change channel=6 control=11 value=110 time=0.00704225
EXTRACT: control_change channel=6 control=11 value=109 time=0.056338
EXTRACT: control_change channel=6 control=11 value=108 time=0.0140845
EXTRACT: control_change channel=6 control=11 value=107 time=0.0140845
EXTRACT: control_change channel=6 control=11 value=106 time=0.0140845
EXTRACT: control_change channel=6 control=11 value=105 time=0.056338
EXTRACT: control_change channel=6 control=11 value=104 time=0.00704225
EXTRACT: control_change channel=6 control=11 value=103 time=0.04929575
EXTRACT: control_change channel=6 control=11 value=102 time=0.00704225
EXTRACT: note_on channel=11 note=54 velocity=0 time=0.0422535
EXTRACT: note_on channel=11 note=54 velocity=103 time=0
EXTRACT: control_change channel=6 control=11 value=101 time=0.00704225
EXTRACT: control_change channel=6 control=11 value=100 time=0.0140845
EXTRACT: control_change channel=6 control=11 value=98 time=0.04929575
EXTRACT: control_change channel=6 control=11 value=97 time=0.00704225
EXTRACT: note_on channel=1 note=64 velocity=0 time=0.0422535
EXTRACT: control_change channel=6 control=11 value=96 time=0.00704225
EXTRACT: control_change channel=6 control=11 value=94 time=0.02112675
EXTRACT: control_change channel=6 control=11 value=93 time=0.0140845
EXTRACT: control_change channel=6 control=11 value=92 time=0.0140845
EXTRACT: control_change channel=6 control=11 value=90 time=0.02112675
EXTRACT: control_change channel=6 control=11 value=89 time=0.0140845
EXTRACT: control_change channel=6 control=11 value=88 time=0.02112675
EXTRACT: control_change channel=6 control=11 value=87 time=0.00704225
EXTRACT: control_change channel=6 control=11 value=86 time=0.00704225
EXTRACT: control_change channel=6 control=11 value=85 time=0.0140845
EXTRACT: note_on channel=11 note=54 velocity=0 time=0.00704225
EXTRACT: control_change channel=6 control=11 value=83 time=0.00704225
EXTRACT: note_on channel=11 note=54 velocity=103 time=0.00704225
EXTRACT: control_change channel=6 control=11 value=82 time=0.00704225
EXTRACT: control_change channel=6 control=11 value=81 time=0.00704225
EXTRACT: control_change channel=6 control=11 value=80 time=0.00704225
EXTRACT: control_change channel=6 control=11 value=79 time=0.0140845
EXTRACT: control_change channel=6 control=11 value=78 time=0.00704225
EXTRACT: control_change channel=6 control=11 value=77 time=0.00704225
EXTRACT: control_change channel=6 control=11 value=76 time=0.0140845
EXTRACT: note_on channel=1 note=64 velocity=63 time=0.0140845
EXTRACT: note_on channel=1 note=61 velocity=63 time=0
EXTRACT: control_change channel=6 control=11 value=74 time=0
EXTRACT: control_change channel=6 control=11 value=73 time=0.0140845
EXTRACT: control_change channel=6 control=11 value=72 time=0.00704225
EXTRACT: control_change channel=6 control=11 value=71 time=0.04929575
EXTRACT: note_on channel=1 note=57 velocity=63 time=0.00704225
EXTRACT: control_change channel=6 control=11 value=70 time=0.00704225
EXTRACT: control_change channel=6 control=11 value=69 time=0.0140845
EXTRACT: control_change channel=6 control=11 value=68 time=0.00704225
EXTRACT: control_change channel=6 control=11 value=66 time=0.00704225
EXTRACT: control_change channel=6 control=11 value=65 time=0.0140845
EXTRACT: note_on channel=1 note=45 velocity=63 time=0.00704225
EXTRACT: control_change channel=6 control=11 value=64 time=0.00704225
EXTRACT: control_change channel=6 control=11 value=63 time=0.00704225
EXTRACT: note_on channel=1 note=56 velocity=0 time=0.0140845
EXTRACT: control_change channel=6 control=11 value=64 time=0
EXTRACT: note_on channel=11 note=54 velocity=0 time=0.028169
EXTRACT: note_on channel=1 note=62 velocity=0 time=0.0140845
EXTRACT: note_on channel=1 note=44 velocity=0 time=0
EXTRACT: note_on channel=11 note=52 velocity=103 time=0
EXTRACT: control_change channel=6 control=11 value=65 time=0.00704225
EXTRACT: control_change channel=6 control=11 value=66 time=0.028169
EXTRACT: control_change channel=6 control=11 value=67 time=0.31690125
EXTRACT: control_change channel=6 control=11 value=68 time=0.2112675
EXTRACT: note_on channel=11 note=52 velocity=0 time=0
EXTRACT: control_change channel=11 control=1 value=25 time=0
EXTRACT: control_change channel=11 control=11 value=124 time=0
EXTRACT: note_on channel=11 note=52 velocity=103 time=0
EXTRACT: control_change channel=11 control=1 value=30 time=0.00704225
EXTRACT: control_change channel=11 control=11 value=123 time=0
EXTRACT: control_change channel=11 control=1 value=32 time=0.00704225
EXTRACT: control_change channel=11 control=11 value=122 time=0
EXTRACT: control_change channel=11 control=1 value=38 time=0.00704225
EXTRACT: control_change channel=11 control=1 value=40 time=0.0140845
EXTRACT: control_change channel=11 control=11 value=120 time=0
EXTRACT: control_change channel=11 control=1 value=46 time=0.00704225
EXTRACT: control_change channel=11 control=11 value=119 time=0
EXTRACT: control_change channel=11 control=1 value=48 time=0.00704225
EXTRACT: control_change channel=11 control=11 value=118 time=0
EXTRACT: control_change channel=11 control=1 value=50 time=0.00704225
EXTRACT: control_change channel=11 control=11 value=117 time=0
EXTRACT: control_change channel=11 control=1 value=52 time=0.00704225
EXTRACT: control_change channel=11 control=11 value=115 time=0
EXTRACT: control_change channel=11 control=1 value=55 time=0.0140845
EXTRACT: control_change channel=11 control=1 value=57 time=0.00704225
EXTRACT: control_change channel=11 control=11 value=114 time=0
EXTRACT: control_change channel=11 control=11 value=113 time=0.00704225
EXTRACT: control_change channel=11 control=1 value=59 time=0.00704225
EXTRACT: control_change channel=11 control=11 value=112 time=0
EXTRACT: control_change channel=6 control=11 value=69 time=0.00704225
EXTRACT: control_change channel=11 control=1 value=61 time=0
EXTRACT: control_change channel=11 control=11 value=111 time=0
EXTRACT: control_change channel=11 control=1 value=63 time=0.0140845
EXTRACT: control_change channel=11 control=1 value=65 time=0.00704225
EXTRACT: control_change channel=11 control=11 value=110 time=0
EXTRACT: control_change channel=6 control=11 value=70 time=0.00704225
EXTRACT: control_change channel=11 control=11 value=109 time=0
EXTRACT: control_change channel=11 control=1 value=68 time=0.00704225
EXTRACT: control_change channel=11 control=11 value=108 time=0
EXTRACT: control_change channel=11 control=1 value=70 time=0.00704225
EXTRACT: control_change channel=11 control=1 value=71 time=0.0140845
EXTRACT: control_change channel=11 control=11 value=107 time=0
EXTRACT: control_change channel=11 control=11 value=106 time=0.00704225
EXTRACT: control_change channel=11 control=1 value=74 time=0.00704225
EXTRACT: control_change channel=11 control=11 value=104 time=0
EXTRACT: control_change channel=11 control=1 value=75 time=0.0140845
EXTRACT: control_change channel=11 control=11 value=103 time=0
EXTRACT: control_change channel=11 control=1 value=76 time=0.02112675
EXTRACT: control_change channel=11 control=11 value=102 time=0
EXTRACT: control_change channel=11 control=1 value=78 time=0.00704225
EXTRACT: control_change channel=11 control=11 value=100 time=0
EXTRACT: control_change channel=11 control=1 value=79 time=0.0140845
EXTRACT: control_change channel=11 control=11 value=98 time=0
EXTRACT: control_change channel=11 control=1 value=80 time=0.0140845
EXTRACT: control_change channel=11 control=11 value=97 time=0
EXTRACT: control_change channel=11 control=1 value=81 time=0.0140845
EXTRACT: control_change channel=11 control=11 value=96 time=0
EXTRACT: control_change channel=11 control=1 value=82 time=0.00704225
EXTRACT: control_change channel=11 control=11 value=94 time=0
EXTRACT: control_change channel=11 control=11 value=93 time=0.00704225
EXTRACT: control_change channel=6 control=11 value=71 time=0.0140845
EXTRACT: control_change channel=11 control=1 value=83 time=0
EXTRACT: control_change channel=11 control=11 value=92 time=0.00704225
EXTRACT: control_change channel=11 control=1 value=84 time=0.00704225
EXTRACT: control_change channel=11 control=11 value=91 time=0
EXTRACT: control_change channel=11 control=11 value=90 time=0.00704225
EXTRACT: control_change channel=11 control=1 value=86 time=0.00704225
EXTRACT: control_change channel=11 control=11 value=88 time=0.0140845
EXTRACT: control_change channel=11 control=1 value=87 time=0.00704225
EXTRACT: control_change channel=11 control=11 value=87 time=0
EXTRACT: control_change channel=11 control=1 value=88 time=0.00704225
EXTRACT: control_change channel=11 control=11 value=85 time=0.00704225
EXTRACT: control_change channel=11 control=1 value=89 time=0.00704225
EXTRACT: control_change channel=6 control=11 value=72 time=0.00704225
EXTRACT: control_change channel=11 control=1 value=90 time=0.00704225
EXTRACT: control_change channel=11 control=11 value=84 time=0
EXTRACT: control_change channel=11 control=11 value=83 time=0.00704225
EXTRACT: control_change channel=11 control=1 value=91 time=0.00704225
EXTRACT: control_change channel=6 control=11 value=74 time=0.00704225
EXTRACT: control_change channel=11 control=11 value=81 time=0
EXTRACT: control_change channel=11 control=11 value=79 time=0.00704225
EXTRACT: control_change channel=11 control=1 value=92 time=0.0140845
EXTRACT: control_change channel=11 control=11 value=78 time=0
EXTRACT: control_change channel=11 control=11 value=77 time=0.00704225
EXTRACT: control_change channel=11 control=11 value=76 time=0.00704225
EXTRACT: control_change channel=11 control=11 value=75 time=0.00704225
EXTRACT: control_change channel=11 control=11 value=74 time=0.00704225
EXTRACT: control_change channel=6 control=11 value=75 time=0.00704225
EXTRACT: control_change channel=11 control=1 value=93 time=0.0140845
EXTRACT: control_change channel=11 control=11 value=72 time=0
EXTRACT: control_change channel=11 control=1 value=94 time=0.00704225
EXTRACT: control_change channel=11 control=11 value=71 time=0
EXTRACT: control_change channel=11 control=11 value=69 time=0.00704225
EXTRACT: control_change channel=11 control=1 value=95 time=0.00704225
EXTRACT: control_change channel=6 control=11 value=76 time=0.0140845
EXTRACT: control_change channel=11 control=11 value=68 time=0
EXTRACT: control_change channel=11 control=1 value=96 time=0.00704225
EXTRACT: control_change channel=11 control=11 value=67 time=0
EXTRACT: control_change channel=11 control=1 value=97 time=0.00704225
EXTRACT: control_change channel=11 control=11 value=64 time=0
EXTRACT: control_change channel=11 control=1 value=98 time=0.00704225
EXTRACT: control_change channel=11 control=11 value=62 time=0.00704225
EXTRACT: control_change channel=11 control=1 value=99 time=0.0140845
EXTRACT: control_change channel=11 control=11 value=60 time=0
EXTRACT: control_change channel=11 control=11 value=59 time=0.0140845
EXTRACT: control_change channel=11 control=1 value=100 time=0.00704225
EXTRACT: control_change channel=11 control=11 value=57 time=0
EXTRACT: control_change channel=11 control=11 value=56 time=0.00704225
EXTRACT: control_change channel=11 control=11 value=55 time=0.02112675
EXTRACT: control_change channel=11 control=11 value=52 time=0.0140845
EXTRACT: control_change channel=11 control=1 value=101 time=0.00704225
EXTRACT: control_change channel=11 control=11 value=51 time=0.0140845
EXTRACT: control_change channel=11 control=1 value=102 time=0.00704225
EXTRACT: control_change channel=11 control=11 value=50 time=0
EXTRACT: control_change channel=11 control=11 value=48 time=0.00704225
EXTRACT: control_change channel=11 control=1 value=103 time=0.0140845
EXTRACT: control_change channel=11 control=11 value=46 time=0
EXTRACT: control_change channel=6 control=11 value=77 time=0.00704225
EXTRACT: control_change channel=11 control=1 value=104 time=0.0140845
EXTRACT: control_change channel=11 control=11 value=44 time=0
EXTRACT: control_change channel=11 control=1 value=105 time=0.00704225
EXTRACT: control_change channel=11 control=11 value=43 time=0
EXTRACT: control_change channel=11 control=11 value=42 time=0.00704225
EXTRACT: control_change channel=11 control=11 value=40 time=0.00704225
EXTRACT: control_change channel=6 control=11 value=78 time=0.0140845
EXTRACT: control_change channel=11 control=1 value=106 time=0
EXTRACT: control_change channel=11 control=11 value=38 time=0
EXTRACT: control_change channel=11 control=11 value=36 time=0.00704225
EXTRACT: control_change channel=11 control=11 value=34 time=0.0140845
EXTRACT: control_change channel=11 control=1 value=107 time=0.00704225
EXTRACT: control_change channel=11 control=11 value=33 time=0
EXTRACT: control_change channel=11 control=1 value=108 time=0.02112675
EXTRACT: control_change channel=11 control=11 value=31 time=0
EXTRACT: control_change channel=6 control=11 value=79 time=0.00704225
EXTRACT: control_change channel=11 control=1 value=110 time=0
EXTRACT: control_change channel=11 control=11 value=30 time=0
EXTRACT: control_change channel=11 control=1 value=111 time=0.00704225
EXTRACT: control_change channel=11 control=11 value=28 time=0
EXTRACT: control_change channel=11 control=1 value=112 time=0.00704225
EXTRACT: control_change channel=11 control=11 value=26 time=0
EXTRACT: control_change channel=11 control=1 value=113 time=0.0140845
EXTRACT: control_change channel=11 control=1 value=114 time=0.00704225
EXTRACT: control_change channel=11 control=11 value=25 time=0
EXTRACT: control_change channel=11 control=1 value=115 time=0.00704225
EXTRACT: control_change channel=11 control=11 value=23 time=0
EXTRACT: control_change channel=11 control=1 value=116 time=0.00704225
EXTRACT: control_change channel=11 control=11 value=22 time=0.00704225
EXTRACT: control_change channel=11 control=1 value=118 time=0.0140845
EXTRACT: control_change channel=11 control=1 value=119 time=0.00704225
EXTRACT: control_change channel=11 control=11 value=19 time=0
EXTRACT: control_change channel=11 control=1 value=120 time=0.00704225
EXTRACT: control_change channel=11 control=11 value=18 time=0
EXTRACT: control_change channel=11 control=11 value=16 time=0.00704225
EXTRACT: control_change channel=11 control=11 value=15 time=0.00704225
EXTRACT: control_change channel=11 control=11 value=13 time=0.0140845
EXTRACT: control_change channel=11 control=11 value=11 time=0.00704225
EXTRACT: control_change channel=11 control=11 value=8 time=0.02112675
EXTRACT: control_change channel=11 control=11 value=7 time=0.0140845
EXTRACT: control_change channel=11 control=11 value=6 time=0.00704225
EXTRACT: control_change channel=11 control=11 value=5 time=0.00704225
EXTRACT: control_change channel=11 control=11 value=3 time=0.00704225
EXTRACT: note_on channel=1 note=42 velocity=63 time=0.02112675
EXTRACT: control_change channel=6 control=11 value=80 time=0.0140845
EXTRACT: control_change channel=11 control=11 value=127 time=0
EXTRACT: note_on channel=11 note=52 velocity=0 time=0.00704225
EXTRACT: note_on channel=11 note=52 velocity=83 time=0
EXTRACT: note_on channel=1 note=54 velocity=63 time=0.00704225
EXTRACT: control_change channel=11 control=1 value=0 time=0.03521125
EXTRACT: note_on channel=1 note=45 velocity=0 time=0.028169
EXTRACT: note_on channel=1 note=57 velocity=0 time=0.028169
EXTRACT: note_on channel=11 note=52 velocity=0 time=0.0422535
EXTRACT: note_on channel=11 note=59 velocity=103 time=0
EXTRACT: control_change channel=6 control=11 value=81 time=0.03521125
EXTRACT: control_change channel=6 control=11 value=82 time=0.04929575
EXTRACT: control_change channel=6 control=11 value=83 time=0.056338
EXTRACT: control_change channel=6 control=11 value=84 time=0.04929575
EXTRACT: control_change channel=6 control=11 value=86 time=0.056338
EXTRACT: note_on channel=11 note=59 velocity=0 time=0.03521125
EXTRACT: note_on channel=11 note=61 velocity=103 time=0
EXTRACT: control_change channel=6 control=11 value=87 time=0.11971825
EXTRACT: control_change channel=6 control=11 value=88 time=0.028169
EXTRACT: control_change channel=6 control=11 value=90 time=0.16197175
EXTRACT: control_change channel=6 control=11 value=91 time=0.02112675
EXTRACT: control_change channel=6 control=11 value=93 time=0.056338
EXTRACT: note_on channel=11 note=61 velocity=0 time=0.03521125
EXTRACT: control_change channel=6 control=11 value=95 time=0.0140845
EXTRACT: note_on channel=11 note=61 velocity=103 time=0.1267605
EXTRACT: control_change channel=6 control=11 value=96 time=0.03521125
EXTRACT: control_change channel=6 control=11 value=98 time=0.04929575
EXTRACT: control_change channel=6 control=11 value=100 time=0.056338
EXTRACT: control_change channel=6 control=11 value=102 time=0.04929575
EXTRACT: control_change channel=6 control=11 value=103 time=0.056338
EXTRACT: control_change channel=6 control=11 value=104 time=0.028169
EXTRACT: control_change channel=6 control=11 value=105 time=0.02112675
EXTRACT: control_change channel=6 control=11 value=106 time=0.028169
EXTRACT: control_change channel=6 control=11 value=107 time=0.028169
EXTRACT: control_change channel=6 control=11 value=109 time=0.028169
EXTRACT: control_change channel=6 control=11 value=110 time=0.02112675
EXTRACT: note_on channel=11 note=61 velocity=0 time=0.02112675
EXTRACT: control_change channel=6 control=11 value=111 time=0.00704225
EXTRACT: control_change channel=6 control=11 value=112 time=0.028169
EXTRACT: control_change channel=6 control=11 value=114 time=0.028169
EXTRACT: control_change channel=6 control=11 value=115 time=0.02112675
EXTRACT: control_change channel=6 control=11 value=116 time=0.056338
EXTRACT: note_on channel=1 note=61 velocity=0 time=0.028169
EXTRACT: control_change channel=6 control=11 value=118 time=0
EXTRACT: control_change channel=6 control=11 value=119 time=0.02112675
EXTRACT: control_change channel=6 control=11 value=120 time=0.028169
EXTRACT: control_change channel=6 control=11 value=122 time=0.056338
EXTRACT: note_on channel=11 note=57 velocity=103 time=0.00704225
EXTRACT: control_change channel=6 control=11 value=123 time=0.0140845
EXTRACT: pitchwheel channel=11 pitch=128 time=0.0422535
EXTRACT: note_on channel=1 note=42 velocity=0 time=0.00704225
EXTRACT: control_change channel=6 control=11 value=126 time=0.00704225
EXTRACT: note_on channel=1 note=56 velocity=63 time=0.0140845
EXTRACT: note_on channel=1 note=54 velocity=0 time=0.00704225
EXTRACT: pitchwheel channel=11 pitch=0 time=0.00704225
EXTRACT: pitchwheel channel=11 pitch=-128 time=0.00704225
EXTRACT: pitchwheel channel=11 pitch=-256 time=0.00704225
EXTRACT: pitchwheel channel=11 pitch=-384 time=0.0140845
EXTRACT: pitchwheel channel=11 pitch=-512 time=0.0140845
EXTRACT: pitchwheel channel=11 pitch=-640 time=0.00704225
EXTRACT: note_on channel=1 note=44 velocity=63 time=0.0140845
EXTRACT: note_on channel=1 note=49 velocity=63 time=0
EXTRACT: pitchwheel channel=11 pitch=-896 time=0.00704225
EXTRACT: pitchwheel channel=11 pitch=-1024 time=0.0140845
EXTRACT: control_change channel=6 control=11 value=125 time=0.00704225
EXTRACT: pitchwheel channel=11 pitch=-1152 time=0
EXTRACT: pitchwheel channel=11 pitch=-1280 time=0.00704225
EXTRACT: pitchwheel channel=11 pitch=-1536 time=0.00704225
EXTRACT: pitchwheel channel=11 pitch=-1664 time=0.00704225
EXTRACT: pitchwheel channel=11 pitch=-1920 time=0.0140845
EXTRACT: pitchwheel channel=11 pitch=-2048 time=0.00704225
EXTRACT: pitchwheel channel=11 pitch=-2176 time=0.00704225
EXTRACT: pitchwheel channel=11 pitch=-2432 time=0.00704225
EXTRACT: pitchwheel channel=11 pitch=-2560 time=0.00704225
EXTRACT: pitchwheel channel=11 pitch=-2688 time=0.0140845
EXTRACT: pitchwheel channel=11 pitch=-3072 time=0.00704225
EXTRACT: pitchwheel channel=11 pitch=-3200 time=0.00704225
EXTRACT: control_change channel=6 control=11 value=124 time=0.0140845
EXTRACT: pitchwheel channel=11 pitch=-3584 time=0
EXTRACT: pitchwheel channel=11 pitch=-3968 time=0.0140845
EXTRACT: pitchwheel channel=11 pitch=-4096 time=0.00704225
EXTRACT: control_change channel=6 control=11 value=123 time=0.16197175
EXTRACT: control_change channel=6 control=11 value=122 time=0.028169
EXTRACT: control_change channel=11 control=11 value=125 time=0.04929575
EXTRACT: note_on channel=11 note=57 velocity=0 time=0.00704225
EXTRACT: note_on channel=11 note=57 velocity=103 time=0
EXTRACT: control_change channel=11 control=1 value=6 time=0.0140845
EXTRACT: control_change channel=11 control=11 value=124 time=0.00704225
EXTRACT: control_change channel=11 control=1 value=7 time=0
EXTRACT: control_change channel=11 control=1 value=8 time=0.00704225
EXTRACT: control_change channel=11 control=11 value=123 time=0.00704225
EXTRACT: control_change channel=11 control=1 value=9 time=0
EXTRACT: control_change channel=11 control=1 value=15 time=0.02112675
EXTRACT: control_change channel=11 control=11 value=122 time=0.0140845
EXTRACT: control_change channel=11 control=11 value=121 time=0.0140845
EXTRACT: control_change channel=11 control=11 value=120 time=0.056338
EXTRACT: control_change channel=11 control=1 value=21 time=0
EXTRACT: control_change channel=6 control=11 value=120 time=0.0140845
EXTRACT: control_change channel=11 control=11 value=119 time=0.0422535
EXTRACT: control_change channel=11 control=11 value=118 time=0.00704225
EXTRACT: control_change channel=6 control=11 value=119 time=0.00704225
EXTRACT: control_change channel=11 control=11 value=117 time=0
EXTRACT: control_change channel=11 control=1 value=29 time=0.0140845
EXTRACT: control_change channel=11 control=11 value=116 time=0.00704225
EXTRACT: control_change channel=11 control=11 value=115 time=0.0140845
EXTRACT: control_change channel=11 control=11 value=114 time=0.02112675
EXTRACT: control_change channel=11 control=11 value=112 time=0.0140845
EXTRACT: control_change channel=11 control=1 value=37 time=0.00704225
EXTRACT: control_change channel=11 control=11 value=111 time=0.0422535
EXTRACT: control_change channel=6 control=11 value=118 time=0.03521125
EXTRACT: control_change channel=11 control=1 value=45 time=0.00704225
EXTRACT: control_change channel=11 control=11 value=110 time=0.00704225
EXTRACT: control_change channel=11 control=11 value=108 time=0.02112675
EXTRACT: control_change channel=11 control=11 value=107 time=0.04929575
EXTRACT: control_change channel=11 control=1 value=55 time=0.028169
EXTRACT: control_change channel=11 control=11 value=105 time=0.02112675
EXTRACT: control_change channel=11 control=11 value=104 time=0.00704225
EXTRACT: control_change channel=11 control=11 value=103 time=0.056338
EXTRACT: control_change channel=11 control=1 value=65 time=0
EXTRACT: control_change channel=6 control=11 value=116 time=0.0140845
EXTRACT: control_change channel=11 control=11 value=101 time=0
EXTRACT: control_change channel=11 control=11 value=100 time=0.0140845
EXTRACT: control_change channel=11 control=11 value=98 time=0.02112675
EXTRACT: control_change channel=11 control=11 value=96 time=0.0140845
EXTRACT: control_change channel=11 control=1 value=73 time=0
EXTRACT: control_change channel=11 control=11 value=95 time=0.00704225
EXTRACT: control_change channel=11 control=11 value=94 time=0.02112675
EXTRACT: control_change channel=11 control=11 value=92 time=0.0140845
EXTRACT: control_change channel=11 control=11 value=91 time=0.00704225
EXTRACT: control_change channel=11 control=11 value=89 time=0.02112675
EXTRACT: control_change channel=11 control=1 value=79 time=0
EXTRACT: control_change channel=11 control=11 value=87 time=0.00704225
EXTRACT: control_change channel=11 control=1 value=85 time=0.0422535
EXTRACT: control_change channel=11 control=11 value=85 time=0.00704225
EXTRACT: control_change channel=11 control=11 value=84 time=0.00704225
EXTRACT: control_change channel=11 control=1 value=87 time=0
EXTRACT: control_change channel=11 control=11 value=82 time=0.02112675
EXTRACT: control_change channel=6 control=11 value=115 time=0.00704225
EXTRACT: control_change channel=11 control=11 value=80 time=0.00704225
EXTRACT: control_change channel=11 control=11 value=78 time=0.02112675
EXTRACT: control_change channel=11 control=1 value=89 time=0
EXTRACT: control_change channel=11 control=11 value=77 time=0.00704225
EXTRACT: control_change channel=11 control=1 value=91 time=0
EXTRACT: control_change channel=11 control=11 value=75 time=0.00704225
EXTRACT: control_change channel=11 control=11 value=74 time=0.00704225
EXTRACT: control_change channel=11 control=1 value=93 time=0
EXTRACT: control_change channel=11 control=11 value=73 time=0.00704225
EXTRACT: control_change channel=11 control=11 value=71 time=0.0140845
EXTRACT: control_change channel=11 control=1 value=95 time=0
EXTRACT: control_change channel=11 control=11 value=70 time=0.00704225
EXTRACT: control_change channel=11 control=11 value=68 time=0.00704225
EXTRACT: control_change channel=11 control=11 value=67 time=0.00704225
EXTRACT: control_change channel=11 control=11 value=65 time=0.00704225
EXTRACT: control_change channel=11 control=11 value=64 time=0.0140845
EXTRACT: control_change channel=11 control=11 value=63 time=0.00704225
EXTRACT: control_change channel=11 control=1 value=97 time=0
EXTRACT: control_change channel=11 control=11 value=61 time=0.0140845
EXTRACT: control_change channel=11 control=11 value=58 time=0.00704225
EXTRACT: control_change channel=11 control=11 value=57 time=0.0140845
EXTRACT: control_change channel=6 control=11 value=113 time=0.00704225
EXTRACT: control_change channel=11 control=11 value=56 time=0.00704225
EXTRACT: control_change channel=11 control=1 value=99 time=0
EXTRACT: control_change channel=11 control=11 value=55 time=0.00704225
EXTRACT: control_change channel=11 control=11 value=53 time=0.00704225
EXTRACT: control_change channel=11 control=1 value=101 time=0
EXTRACT: control_change channel=11 control=11 value=51 time=0.02112675
EXTRACT: control_change channel=11 control=11 value=49 time=0.0140845
EXTRACT: control_change channel=11 control=1 value=102 time=0.02112675
EXTRACT: control_change channel=11 control=11 value=47 time=0.028169
EXTRACT: control_change channel=11 control=11 value=45 time=0.0140845
EXTRACT: control_change channel=11 control=11 value=44 time=0.0140845
EXTRACT: control_change channel=11 control=11 value=43 time=0.00704225
EXTRACT: control_change channel=11 control=1 value=103 time=0
EXTRACT: control_change channel=11 control=11 value=41 time=0.00704225
EXTRACT: control_change channel=6 control=11 value=112 time=0.00704225
EXTRACT: control_change channel=11 control=11 value=40 time=0.00704225
EXTRACT: control_change channel=11 control=11 value=39 time=0.00704225
EXTRACT: note_on channel=11 note=57 velocity=0 time=0.00704225
EXTRACT: control_change channel=11 control=11 value=37 time=0
EXTRACT: control_change channel=6 control=11 value=111 time=0.00704225
EXTRACT: control_change channel=11 control=11 value=35 time=0
EXTRACT: control_change channel=11 control=11 value=33 time=0.02112675
EXTRACT: pitchwheel channel=11 pitch=0 time=0.00704225
EXTRACT: control_change channel=11 control=11 value=32 time=0.00704225
EXTRACT: control_change channel=11 control=11 value=31 time=0.00704225
EXTRACT: control_change channel=6 control=11 value=110 time=0.00704225
EXTRACT: control_change channel=11 control=11 value=30 time=0
EXTRACT: control_change channel=11 control=11 value=28 time=0.0140845
EXTRACT: control_change channel=11 control=11 value=27 time=0.00704225
EXTRACT: control_change channel=6 control=11 value=108 time=0.00704225
EXTRACT: control_change channel=11 control=11 value=26 time=0
EXTRACT: control_change channel=11 control=11 value=25 time=0.00704225
EXTRACT: note_on channel=1 note=49 velocity=0 time=0.02112675
EXTRACT: note_on channel=1 note=44 velocity=0 time=0
EXTRACT: note_on channel=1 note=40 velocity=63 time=0
EXTRACT: control_change channel=6 control=11 value=107 time=0
EXTRACT: control_change channel=11 control=11 value=127 time=0.02112675
EXTRACT: note_on channel=11 note=56 velocity=103 time=0.00704225
EXTRACT: note_on channel=1 note=52 velocity=63 time=0.02112675
EXTRACT: note_on channel=1 note=62 velocity=63 time=0
EXTRACT: control_change channel=6 control=11 value=106 time=0
EXTRACT: note_on channel=1 note=56 velocity=0 time=0.00704225
EXTRACT: control_change channel=6 control=11 value=104 time=0.02112675
EXTRACT: control_change channel=6 control=11 value=102 time=0.16197175
EXTRACT: control_change channel=11 control=1 value=0 time=0.11971825
EXTRACT: pitchwheel channel=11 pitch=0 time=0.0704225
EXTRACT: pitchwheel channel=11 pitch=128 time=0.00704225
EXTRACT: pitchwheel channel=11 pitch=384 time=0.00704225
EXTRACT: control_change channel=6 control=11 value=96 time=0.00704225
EXTRACT: pitchwheel channel=11 pitch=640 time=0
EXTRACT: pitchwheel channel=11 pitch=896 time=0.0140845
EXTRACT: pitchwheel channel=11 pitch=1152 time=0.00704225
EXTRACT: pitchwheel channel=11 pitch=1408 time=0.00704225
EXTRACT: pitchwheel channel=11 pitch=1664 time=0.00704225
EXTRACT: pitchwheel channel=11 pitch=1920 time=0.00704225
EXTRACT: pitchwheel channel=11 pitch=2176 time=0.0140845
EXTRACT: pitchwheel channel=11 pitch=2304 time=0.00704225
EXTRACT: pitchwheel channel=11 pitch=2560 time=0.00704225
EXTRACT: pitchwheel channel=11 pitch=2816 time=0.00704225
EXTRACT: pitchwheel channel=11 pitch=3072 time=0.00704225
EXTRACT: pitchwheel channel=11 pitch=3328 time=0.0140845
EXTRACT: pitchwheel channel=11 pitch=3584 time=0.00704225
EXTRACT: pitchwheel channel=11 pitch=3840 time=0.00704225
EXTRACT: pitchwheel channel=11 pitch=4096 time=0.00704225
EXTRACT: pitchwheel channel=11 pitch=4352 time=0.00704225
EXTRACT: control_change channel=6 control=11 value=94 time=0.028169
EXTRACT: control_change channel=6 control=11 value=92 time=0.16197175
EXTRACT: control_change channel=6 control=11 value=91 time=0.1549295
EXTRACT: control_change channel=6 control=11 value=89 time=0.2112675
EXTRACT: control_change channel=6 control=11 value=88 time=0.056338
EXTRACT: control_change channel=6 control=11 value=87 time=0.04929575
EXTRACT: control_change channel=6 control=11 value=86 time=0.028169
EXTRACT: control_change channel=6 control=11 value=85 time=0.04929575
EXTRACT: control_change channel=6 control=11 value=84 time=0.084507
EXTRACT: control_change channel=6 control=11 value=83 time=0.04929575
EXTRACT: control_change channel=6 control=11 value=82 time=0.056338
EXTRACT: control_change channel=6 control=11 value=81 time=0.04929575
EXTRACT: note_on channel=1 note=64 velocity=0 time=0.07746475
EXTRACT: note_on channel=1 note=40 velocity=0 time=0.00704225
EXTRACT: control_change channel=1 control=11 value=123 time=0.02112675
EXTRACT: note_on channel=1 note=52 velocity=0 time=0.028169
EXTRACT: note_on channel=1 note=62 velocity=0 time=0
EXTRACT: control_change channel=11 control=1 value=3 time=0.0140845
EXTRACT: control_change channel=11 control=1 value=5 time=0.00704225
EXTRACT: note_on channel=11 note=56 velocity=0 time=0.00704225
EXTRACT: pitchwheel channel=11 pitch=-8064 time=0
EXTRACT: note_on channel=11 note=61 velocity=103 time=0
EXTRACT: note_on channel=1 note=45 velocity=63 time=0.00704225
EXTRACT: note_on channel=1 note=52 velocity=63 time=0
EXTRACT: note_on channel=1 note=57 velocity=63 time=0
EXTRACT: note_on channel=1 note=61 velocity=63 time=0
EXTRACT: control_change channel=11 control=11 value=123 time=0
EXTRACT: control_change channel=11 control=1 value=6 time=0.00704225
EXTRACT: pitchwheel channel=11 pitch=-7936 time=0
EXTRACT: pitchwheel channel=11 pitch=-7680 time=0.00704225
EXTRACT: pitchwheel channel=11 pitch=-7424 time=0.00704225
EXTRACT: pitchwheel channel=11 pitch=-7296 time=0.00704225
EXTRACT: pitchwheel channel=11 pitch=-7040 time=0.00704225
EXTRACT: control_change channel=11 control=11 value=122 time=0.00704225
EXTRACT: pitchwheel channel=11 pitch=-6784 time=0.00704225
EXTRACT: control_change channel=11 control=1 value=8 time=0.00704225
EXTRACT: pitchwheel channel=11 pitch=-6656 time=0
EXTRACT: pitchwheel channel=11 pitch=-6400 time=0.00704225
EXTRACT: pitchwheel channel=11 pitch=-6144 time=0.00704225
EXTRACT: pitchwheel channel=11 pitch=-6016 time=0.00704225
EXTRACT: pitchwheel channel=11 pitch=-5760 time=0.0140845
EXTRACT: control_change channel=11 control=11 value=121 time=0.00704225
EXTRACT: pitchwheel channel=11 pitch=-5504 time=0
EXTRACT: control_change channel=11 control=1 value=14 time=0.00704225
EXTRACT: pitchwheel channel=11 pitch=-5376 time=0
EXTRACT: pitchwheel channel=11 pitch=-5120 time=0.00704225
EXTRACT: pitchwheel channel=11 pitch=-4864 time=0.00704225
EXTRACT: pitchwheel channel=11 pitch=-4736 time=0.0140845
EXTRACT: pitchwheel channel=11 pitch=-4480 time=0.00704225
EXTRACT: control_change channel=6 control=11 value=80 time=0.00704225
EXTRACT: pitchwheel channel=11 pitch=-4224 time=0
EXTRACT: control_change channel=11 control=1 value=20 time=0.00704225
EXTRACT: pitchwheel channel=11 pitch=-4096 time=0
EXTRACT: pitchwheel channel=11 pitch=-3840 time=0.00704225
EXTRACT: control_change channel=11 control=11 value=120 time=0.00704225
EXTRACT: pitchwheel channel=11 pitch=-3584 time=0.00704225
EXTRACT: control_change channel=11 control=11 value=118 time=0.00704225
EXTRACT: pitchwheel channel=11 pitch=-3456 time=0
EXTRACT: pitchwheel channel=11 pitch=-3200 time=0.00704225
EXTRACT: pitchwheel channel=11 pitch=-2944 time=0.00704225
EXTRACT: pitchwheel channel=11 pitch=-2816 time=0.00704225
EXTRACT: pitchwheel channel=11 pitch=-2560 time=0.0140845
EXTRACT: pitchwheel channel=11 pitch=-2304 time=0.00704225
EXTRACT: pitchwheel channel=11 pitch=-2176 time=0.00704225
EXTRACT: control_change channel=11 control=1 value=26 time=0.00704225
EXTRACT: pitchwheel channel=11 pitch=-1920 time=0
EXTRACT: pitchwheel channel=11 pitch=-1664 time=0.00704225
EXTRACT: control_change channel=1 control=11 value=122 time=0.00704225
EXTRACT: pitchwheel channel=11 pitch=-1536 time=0.00704225
EXTRACT: control_change channel=11 control=11 value=117 time=0.00704225
EXTRACT: pitchwheel channel=11 pitch=-1280 time=0
EXTRACT: pitchwheel channel=11 pitch=-1024 time=0.00704225
EXTRACT: pitchwheel channel=11 pitch=-896 time=0.00704225
EXTRACT: pitchwheel channel=11 pitch=-640 time=0.00704225
EXTRACT: pitchwheel channel=11 pitch=-384 time=0.0140845
EXTRACT: pitchwheel channel=11 pitch=-256 time=0.00704225
EXTRACT: control_change channel=11 control=11 value=116 time=0.00704225
EXTRACT: pitchwheel channel=11 pitch=0 time=0
EXTRACT: control_change channel=11 control=1 value=32 time=0.00704225
EXTRACT: pitchwheel channel=11 pitch=256 time=0
EXTRACT: control_change channel=11 control=11 value=115 time=0.0422535
EXTRACT: control_change channel=11 control=1 value=40 time=0.0422535
EXTRACT: control_change channel=11 control=11 value=114 time=0.0140845
EXTRACT: control_change channel=6 control=11 value=79 time=0.0422535
EXTRACT: control_change channel=11 control=1 value=42 time=0.0140845
EXTRACT: control_change channel=11 control=11 value=113 time=0.00704225
EXTRACT: control_change channel=1 control=11 value=120 time=0.03521125
EXTRACT: control_change channel=11 control=11 value=112 time=0.0140845
EXTRACT: control_change channel=11 control=1 value=48 time=0.028169
EXTRACT: control_change channel=11 control=11 value=111 time=0.0422535
EXTRACT: control_change channel=11 control=1 value=54 time=0.0422535
EXTRACT: control_change channel=11 control=11 value=110 time=0.028169
EXTRACT: control_change channel=1 control=11 value=118 time=0.056338
EXTRACT: control_change channel=11 control=11 value=109 time=0.00704225
EXTRACT: control_change channel=11 control=1 value=56 time=0.00704225
EXTRACT: control_change channel=11 control=11 value=108 time=0.0422535
EXTRACT: control_change channel=11 control=1 value=62 time=0.0422535
EXTRACT: control_change channel=11 control=11 value=106 time=0.028169
EXTRACT: control_change channel=11 control=11 value=105 time=0.04929575
EXTRACT: control_change channel=11 control=1 value=64 time=0.00704225
EXTRACT: control_change channel=1 control=11 value=117 time=0.028169
EXTRACT: control_change channel=6 control=11 value=80 time=0
EXTRACT: control_change channel=11 control=11 value=104 time=0.03521125
EXTRACT: control_change channel=11 control=1 value=66 time=0.0422535
EXTRACT: control_change channel=11 control=11 value=102 time=0.02112675
EXTRACT: control_change channel=11 control=1 value=72 time=0.0422535
EXTRACT: control_change channel=6 control=11 value=81 time=0.0140845
EXTRACT: control_change channel=11 control=11 value=101 time=0
EXTRACT: control_change channel=1 control=11 value=115 time=0.056338
EXTRACT: control_change channel=11 control=11 value=100 time=0.00704225
EXTRACT: control_change channel=11 control=1 value=74 time=0.00704225
EXTRACT: control_change channel=6 control=11 value=82 time=0.00704225
EXTRACT: control_change channel=11 control=11 value=98 time=0.03521125
EXTRACT: control_change channel=11 control=1 value=76 time=0.0422535
EXTRACT: control_change channel=6 control=11 value=83 time=0.00704225
EXTRACT: control_change channel=11 control=11 value=97 time=0.02112675
EXTRACT: control_change channel=6 control=11 value=84 time=0.028169
EXTRACT: control_change channel=11 control=11 value=96 time=0.02112675
EXTRACT: control_change channel=11 control=1 value=82 time=0.028169
EXTRACT: control_change channel=6 control=11 value=86 time=0.028169
EXTRACT: control_change channel=11 control=11 value=94 time=0.0140845
EXTRACT: control_change channel=1 control=11 value=114 time=0.0140845
EXTRACT: control_change channel=11 control=11 value=93 time=0
EXTRACT: control_change channel=11 control=11 value=92 time=0.04929575
EXTRACT: control_change channel=11 control=1 value=84 time=0.0140845
EXTRACT: control_change channel=6 control=11 value=87 time=0.0140845
EXTRACT: control_change channel=6 control=11 value=88 time=0.028169
EXTRACT: control_change channel=11 control=11 value=90 time=0
EXTRACT: control_change channel=11 control=1 value=90 time=0.0422535
EXTRACT: control_change channel=11 control=11 value=89 time=0.00704225
EXTRACT: control_change channel=11 control=11 value=87 time=0.0140845
EXTRACT: control_change channel=6 control=11 value=89 time=0.0140845
EXTRACT: control_change channel=1 control=11 value=112 time=0.028169
EXTRACT: control_change channel=6 control=11 value=90 time=0
EXTRACT: control_change channel=11 control=11 value=85 time=0.00704225
EXTRACT: control_change channel=11 control=1 value=92 time=0.0422535
EXTRACT: control_change channel=6 control=11 value=91 time=0.00704225
EXTRACT: control_change channel=11 control=11 value=84 time=0.00704225
EXTRACT: control_change channel=11 control=11 value=82 time=0.0140845
EXTRACT: control_change channel=6 control=11 value=92 time=0.056338
EXTRACT: control_change channel=11 control=1 value=98 time=0
EXTRACT: control_change channel=11 control=11 value=81 time=0.0140845
EXTRACT: control_change channel=6 control=11 value=94 time=0.03521125
EXTRACT: control_change channel=11 control=11 value=75 time=0.0140845
EXTRACT: control_change channel=6 control=11 value=95 time=0.0140845
EXTRACT: control_change channel=11 control=11 value=74 time=0
EXTRACT: control_change channel=11 control=1 value=100 time=0.028169
EXTRACT: control_change channel=11 control=11 value=73 time=0.02112675
EXTRACT: control_change channel=1 control=11 value=111 time=0.00704225
EXTRACT: control_change channel=6 control=11 value=96 time=0
EXTRACT: control_change channel=11 control=11 value=71 time=0.0140845
EXTRACT: control_change channel=6 control=11 value=97 time=0.03521125
EXTRACT: control_change channel=11 control=11 value=69 time=0.0140845
EXTRACT: control_change channel=11 control=1 value=102 time=0.00704225
EXTRACT: control_change channel=6 control=11 value=98 time=0.03521125
EXTRACT: control_change channel=11 control=11 value=67 time=0.00704225
EXTRACT: control_change channel=6 control=11 value=99 time=0.0140845
EXTRACT: control_change channel=11 control=11 value=66 time=0.00704225
EXTRACT: control_change channel=11 control=1 value=108 time=0.00704225
EXTRACT: control_change channel=11 control=11 value=64 time=0.00704225
EXTRACT: control_change channel=11 control=11 value=63 time=0.0140845
EXTRACT: control_change channel=6 control=11 value=100 time=0.02112675
EXTRACT: control_change channel=11 control=11 value=61 time=0
EXTRACT: control_change channel=11 control=1 value=109 time=0.02112675
EXTRACT: control_change channel=1 control=11 value=110 time=0.00704225
EXTRACT: control_change channel=6 control=11 value=101 time=0.02112675
EXTRACT: control_change channel=11 control=11 value=59 time=0
EXTRACT: control_change channel=11 control=11 value=57 time=0.00704225
EXTRACT: control_change channel=11 control=1 value=111 time=0.02112675
EXTRACT: control_change channel=6 control=11 value=102 time=0.028169
EXTRACT: control_change channel=11 control=11 value=55 time=0
EXTRACT: control_change channel=11 control=11 value=53 time=0.0140845
EXTRACT: control_change channel=11 control=1 value=113 time=0.00704225
EXTRACT: control_change channel=11 control=1 value=114 time=0.0140845
EXTRACT: control_change channel=11 control=11 value=51 time=0.028169
EXTRACT: control_change channel=11 control=11 value=49 time=0.00704225
EXTRACT: control_change channel=1 control=11 value=108 time=0.00704225
EXTRACT: control_change channel=6 control=11 value=103 time=0
EXTRACT: control_change channel=11 control=1 value=116 time=0.00704225
EXTRACT: control_change channel=11 control=1 value=118 time=0.02112675
EXTRACT: control_change channel=11 control=11 value=47 time=0.0140845
EXTRACT: control_change channel=11 control=11 value=46 time=0.00704225
EXTRACT: control_change channel=6 control=11 value=104 time=0.00704225
EXTRACT: control_change channel=11 control=11 value=44 time=0.0140845
EXTRACT: control_change channel=11 control=1 value=120 time=0.00704225
EXTRACT: control_change channel=11 control=11 value=42 time=0.00704225
EXTRACT: control_change channel=11 control=11 value=41 time=0.02112675
EXTRACT: control_change channel=11 control=11 value=39 time=0.0140845
EXTRACT: control_change channel=11 control=1 value=122 time=0.00704225
EXTRACT: control_change channel=6 control=11 value=105 time=0.00704225
EXTRACT: control_change channel=1 control=11 value=107 time=0.028169
EXTRACT: control_change channel=11 control=11 value=38 time=0.00704225
EXTRACT: control_change channel=11 control=1 value=124 time=0.00704225
EXTRACT: control_change channel=6 control=11 value=106 time=0.00704225
EXTRACT: control_change channel=11 control=11 value=37 time=0.00704225
EXTRACT: control_change channel=11 control=1 value=125 time=0.00704225
EXTRACT: control_change channel=11 control=11 value=36 time=0.00704225
EXTRACT: control_change channel=11 control=11 value=35 time=0.00704225
EXTRACT: control_change channel=11 control=11 value=34 time=0.00704225
EXTRACT: control_change channel=11 control=11 value=33 time=0.0140845
EXTRACT: control_change channel=11 control=1 value=126 time=0.0140845
EXTRACT: control_change channel=11 control=11 value=30 time=0
EXTRACT: control_change channel=11 control=11 value=29 time=0.0140845
EXTRACT: control_change channel=6 control=11 value=107 time=0.00704225
EXTRACT: control_change channel=11 control=11 value=27 time=0.00704225
EXTRACT: control_change channel=11 control=1 value=127 time=0.00704225
EXTRACT: control_change channel=11 control=11 value=25 time=0
EXTRACT: control_change channel=11 control=11 value=24 time=0.00704225
EXTRACT: control_change channel=11 control=11 value=23 time=0.00704225
EXTRACT: control_change channel=6 control=11 value=108 time=0.02112675
EXTRACT: control_change channel=11 control=11 value=22 time=0
EXTRACT: control_change channel=11 control=11 value=20 time=0.00704225
EXTRACT: control_change channel=11 control=11 value=19 time=0.0140845
EXTRACT: control_change channel=1 control=11 value=106 time=0.00704225
EXTRACT: control_change channel=11 control=11 value=18 time=0
EXTRACT: control_change channel=1 control=11 value=105 time=0.028169
EXTRACT: control_change channel=11 control=11 value=16 time=0.028169
EXTRACT: control_change channel=11 control=11 value=15 time=0.00704225
EXTRACT: control_change channel=11 control=11 value=13 time=0.00704225
EXTRACT: control_change channel=1 control=11 value=104 time=0.00704225
EXTRACT: control_change channel=11 control=11 value=11 time=0.00704225
EXTRACT: control_change channel=11 control=11 value=9 time=0.0140845
EXTRACT: control_change channel=11 control=11 value=8 time=0.00704225
EXTRACT: control_change channel=11 control=11 value=7 time=0.00704225
EXTRACT: control_change channel=11 control=11 value=6 time=0.0140845
EXTRACT: control_change channel=1 control=11 value=103 time=0.00704225
EXTRACT: control_change channel=6 control=11 value=109 time=0
EXTRACT: control_change channel=11 control=11 value=5 time=0.00704225
EXTRACT: control_change channel=6 control=11 value=110 time=0.0140845
EXTRACT: control_change channel=11 control=11 value=3 time=0
EXTRACT: control_change channel=11 control=11 value=1 time=0.0140845
EXTRACT: control_change channel=1 control=11 value=102 time=0.0140845
EXTRACT: note_on channel=11 note=61 velocity=0 time=0.02112675
EXTRACT: control_change channel=11 control=11 value=0 time=0.02112675
EXTRACT: control_change channel=1 control=11 value=100 time=0.0140845
EXTRACT: control_change channel=6 control=11 value=111 time=0
EXTRACT: control_change channel=1 control=11 value=99 time=0.04929575
EXTRACT: control_change channel=6 control=11 value=112 time=0
EXTRACT: control_change channel=1 control=11 value=98 time=0.056338
EXTRACT: control_change channel=6 control=11 value=114 time=0
EXTRACT: control_change channel=1 control=11 value=96 time=0.04929575
EXTRACT: control_change channel=6 control=11 value=115 time=0.028169
EXTRACT: control_change channel=1 control=11 value=95 time=0.028169
EXTRACT: control_change channel=6 control=11 value=116 time=0
EXTRACT: control_change channel=1 control=11 value=94 time=0.04929575
EXTRACT: control_change channel=6 control=11 value=117 time=0
EXTRACT: control_change channel=6 control=11 value=118 time=0.028169
EXTRACT: control_change channel=1 control=11 value=92 time=0.028169
EXTRACT: control_change channel=6 control=11 value=119 time=0
EXTRACT: control_change channel=6 control=11 value=120 time=0.04929575
EXTRACT: control_change channel=6 control=11 value=122 time=0.056338
EXTRACT: control_change channel=6 control=11 value=123 time=0.02112675
EXTRACT: control_change channel=1 control=11 value=90 time=0.028169
EXTRACT: control_change channel=1 control=11 value=88 time=0.056338
EXTRACT: control_change channel=6 control=11 value=122 time=0.04929575
EXTRACT: control_change channel=6 control=11 value=121 time=0.056338
EXTRACT: control_change channel=6 control=11 value=120 time=0.02112675
EXTRACT: control_change channel=1 control=11 value=86 time=0.028169
EXTRACT: control_change channel=6 control=11 value=119 time=0
EXTRACT: control_change channel=6 control=11 value=118 time=0.028169
EXTRACT: control_change channel=6 control=11 value=117 time=0.028169
EXTRACT: control_change channel=6 control=11 value=116 time=0.04929575
EXTRACT: control_change channel=1 control=11 value=80 time=0.056338
EXTRACT: control_change channel=6 control=11 value=114 time=0
EXTRACT: control_change channel=1 control=11 value=74 time=0.04929575
EXTRACT: control_change channel=6 control=11 value=113 time=0
EXTRACT: control_change channel=1 control=11 value=72 time=0.056338
EXTRACT: control_change channel=6 control=11 value=111 time=0
EXTRACT: control_change channel=6 control=11 value=110 time=0.1549295
EXTRACT: control_change channel=1 control=11 value=66 time=0.056338
EXTRACT: control_change channel=6 control=11 value=108 time=0
EXTRACT: control_change channel=6 control=11 value=107 time=0.02112675
EXTRACT: control_change channel=1 control=11 value=60 time=0.028169
EXTRACT: control_change channel=6 control=11 value=106 time=0
EXTRACT: control_change channel=6 control=11 value=104 time=0.028169
EXTRACT: control_change channel=1 control=11 value=59 time=0.028169
EXTRACT: control_change channel=6 control=11 value=102 time=0.02112675
EXTRACT: control_change channel=6 control=11 value=100 time=0.056338
EXTRACT: control_change channel=6 control=11 value=98 time=0.04929575
EXTRACT: control_change channel=1 control=11 value=57 time=0.028169
EXTRACT: control_change channel=6 control=11 value=96 time=0.028169
EXTRACT: control_change channel=1 control=11 value=55 time=0.028169
EXTRACT: control_change channel=6 control=11 value=95 time=0.02112675
EXTRACT: control_change channel=1 control=11 value=54 time=0.028169
EXTRACT: control_change channel=6 control=11 value=92 time=0.028169
EXTRACT: control_change channel=1 control=11 value=52 time=0.028169
EXTRACT: control_change channel=6 control=11 value=91 time=0
EXTRACT: control_change channel=6 control=11 value=90 time=0.02112675
EXTRACT: control_change channel=6 control=11 value=88 time=0.028169
EXTRACT: control_change channel=6 control=11 value=87 time=0.028169
EXTRACT: control_change channel=1 control=11 value=50 time=0.07746475
EXTRACT: control_change channel=1 control=11 value=44 time=0.056338
EXTRACT: control_change channel=6 control=11 value=81 time=0.02112675
EXTRACT: control_change channel=6 control=11 value=79 time=0.056338
EXTRACT: control_change channel=1 control=11 value=38 time=0.07746475
EXTRACT: control_change channel=6 control=11 value=77 time=0.07746475
EXTRACT: control_change channel=1 control=11 value=36 time=0.084507
EXTRACT: control_change channel=6 control=11 value=75 time=0.07746475
EXTRACT: control_change channel=1 control=11 value=34 time=0.07746475
EXTRACT: control_change channel=1 control=11 value=32 time=0.056338
EXTRACT: control_change channel=6 control=11 value=69 time=0.02112675
EXTRACT: control_change channel=1 control=11 value=30 time=0.028169
EXTRACT: control_change channel=1 control=11 value=29 time=0.028169
EXTRACT: control_change channel=1 control=11 value=28 time=0.028169
EXTRACT: control_change channel=1 control=11 value=27 time=0.04929575
EXTRACT: control_change channel=1 control=11 value=26 time=0.028169
EXTRACT: control_change channel=6 control=11 value=67 time=0
EXTRACT: control_change channel=1 control=11 value=25 time=0.028169
EXTRACT: control_change channel=6 control=11 value=65 time=0.02112675
EXTRACT: control_change channel=1 control=11 value=24 time=0.028169
EXTRACT: control_change channel=6 control=11 value=63 time=0.028169
EXTRACT: control_change channel=1 control=11 value=22 time=0.028169
EXTRACT: control_change channel=6 control=11 value=62 time=0.02112675
EXTRACT: control_change channel=1 control=11 value=21 time=0.028169
EXTRACT: control_change channel=6 control=11 value=60 time=0
EXTRACT: control_change channel=6 control=11 value=59 time=0.028169
EXTRACT: control_change channel=6 control=11 value=58 time=0.028169
EXTRACT: control_change channel=1 control=11 value=20 time=0.02112675
EXTRACT: control_change channel=6 control=11 value=57 time=0
EXTRACT: control_change channel=1 control=11 value=18 time=0.028169
EXTRACT: control_change channel=6 control=11 value=56 time=0
EXTRACT: control_change channel=1 control=11 value=17 time=0.028169
EXTRACT: control_change channel=6 control=11 value=54 time=0
EXTRACT: control_change channel=1 control=11 value=16 time=0.028169
EXTRACT: control_change channel=6 control=11 value=53 time=0
EXTRACT: control_change channel=1 control=11 value=15 time=0.04929575
EXTRACT: control_change channel=6 control=11 value=47 time=0
EXTRACT: control_change channel=1 control=11 value=13 time=0.056338
EXTRACT: control_change channel=6 control=11 value=45 time=0
EXTRACT: control_change channel=6 control=11 value=43 time=0.04929575
EXTRACT: control_change channel=1 control=11 value=12 time=0.10563375
EXTRACT: control_change channel=6 control=11 value=41 time=0.056338
EXTRACT: control_change channel=6 control=11 value=39 time=0.02112675
EXTRACT: control_change channel=1 control=11 value=11 time=0.028169
EXTRACT: control_change channel=6 control=11 value=37 time=0
EXTRACT: control_change channel=1 control=11 value=10 time=0.028169
EXTRACT: control_change channel=6 control=11 value=36 time=0
EXTRACT: control_change channel=6 control=11 value=34 time=0.028169
EXTRACT: control_change channel=6 control=11 value=33 time=0.02112675
EXTRACT: control_change channel=6 control=11 value=27 time=0.028169
EXTRACT: control_change channel=6 control=11 value=21 time=0.028169
EXTRACT: control_change channel=1 control=11 value=9 time=0.04929575
EXTRACT: control_change channel=6 control=11 value=19 time=0
EXTRACT: control_change channel=1 control=11 value=8 time=0.056338
EXTRACT: control_change channel=6 control=11 value=13 time=0
EXTRACT: control_change channel=1 control=11 value=7 time=0.04929575
EXTRACT: note_on channel=6 note=64 velocity=0 time=0
EXTRACT: control_change channel=6 control=11 value=11 time=0
EXTRACT: control_change channel=6 control=11 value=9 time=0.028169
EXTRACT: control_change channel=1 control=11 value=6 time=0.028169
EXTRACT: control_change channel=6 control=11 value=8 time=0
EXTRACT: control_change channel=6 control=11 value=5 time=0.04929575
EXTRACT: control_change channel=6 control=11 value=3 time=0.028169
EXTRACT: control_change channel=1 control=11 value=5 time=0.028169
EXTRACT: note_on channel=1 note=52 velocity=0 time=0.028169
EXTRACT: control_change channel=6 control=11 value=1 time=0
EXTRACT: note_on channel=1 note=45 velocity=0 time=0.02112675
EXTRACT: control_change channel=1 control=11 value=4 time=0
EXTRACT: control_change channel=6 control=11 value=0 time=0
EXTRACT: note_on channel=1 note=61 velocity=0 time=0.056338
EXTRACT: control_change channel=1 control=11 value=3 time=0.04929575
EXTRACT: note_on channel=1 note=57 velocity=0 time=0.028169
EXTRACT: control_change channel=6 control=11 value=0 time=2.788731
