EXTRACT: sysex data=(126,127,9,1) time=0
EXTRACT: sysex data=(65,16,66,18,64,0,127,0,65) time=0.0005208333333333333
EXTRACT: control_change channel=0 control=11 value=127 time=0.3732309208333333
EXTRACT: control_change channel=0 control=71 value=64 time=0.0021574041666666665
EXTRACT: control_change channel=0 control=72 value=64 time=0.0021574041666666665
EXTRACT: control_change channel=0 control=73 value=64 time=0.0021574041666666665
EXTRACT: control_change channel=0 control=74 value=64 time=0.0021574041666666665
EXTRACT: control_change channel=1 control=11 value=127 time=0.025888849999999998
EXTRACT: control_change channel=1 control=71 value=64 time=0.0021574041666666665
EXTRACT: control_change channel=1 control=72 value=64 time=0.0021574041666666665
EXTRACT: control_change channel=1 control=73 value=64 time=0.0021574041666666665
EXTRACT: control_change channel=1 control=74 value=64 time=0.0021574041666666665
EXTRACT: control_change channel=2 control=11 value=127 time=0.025888849999999998
EXTRACT: control_change channel=2 control=71 value=64 time=0.0021574041666666665
EXTRACT: control_change channel=2 control=73 value=64 time=0.004314808333333333
EXTRACT: control_change channel=2 control=74 value=64 time=0.0021574041666666665
EXTRACT: control_change channel=3 control=11 value=127 time=0.025888849999999998
EXTRACT: control_change channel=3 control=71 value=64 time=0.0021574041666666665
EXTRACT: control_change channel=3 control=72 value=64 time=0.0021574041666666665
EXTRACT: control_change channel=3 control=73 value=64 time=0.0021574041666666665
EXTRACT: control_change channel=3 control=74 value=64 time=0.0021574041666666665
EXTRACT: control_change channel=2 control=72 value=92 time=0.0064722124999999995
EXTRACT: control_change channel=4 control=11 value=127 time=0.0194166375
EXTRACT: control_change channel=4 control=71 value=64 time=0.0021574041666666665
EXTRACT: control_change channel=4 control=72 value=64 time=0.0021574041666666665
EXTRACT: control_change channel=4 control=73 value=64 time=0.0021574041666666665
EXTRACT: control_change channel=4 control=74 value=64 time=0.0021574041666666665
EXTRACT: control_change channel=5 control=11 value=127 time=0.024810147916666664
EXTRACT: control_change channel=5 control=71 value=64 time=0.0021574041666666665
EXTRACT: control_change channel=5 control=72 value=64 time=0.0021574041666666665
EXTRACT: control_change channel=5 control=73 value=64 time=0.0021574041666666665
EXTRACT: control_change channel=5 control=74 value=64 time=0.0021574041666666665
EXTRACT: control_change channel=6 control=11 value=127 time=0.026967552083333332
EXTRACT: control_change channel=6 control=71 value=64 time=0.0021574041666666665
EXTRACT: control_change channel=6 control=72 value=64 time=0.0021574041666666665
EXTRACT: control_change channel=6 control=73 value=64 time=0.0021574041666666665
EXTRACT: control_change channel=6 control=74 value=64 time=0.0021574041666666665
EXTRACT: control_change channel=7 control=11 value=127 time=0.025888849999999998
EXTRACT: control_change channel=7 control=71 value=64 time=0.0021574041666666665
EXTRACT: control_change channel=7 control=72 value=64 time=0.0021574041666666665
EXTRACT: control_change channel=7 control=73 value=64 time=0.0021574041666666665
EXTRACT: control_change channel=7 control=74 value=64 time=0.0021574041666666665
EXTRACT: control_change channel=8 control=11 value=127 time=0.025888849999999998
EXTRACT: control_change channel=8 control=71 value=64 time=0.0021574041666666665
EXTRACT: control_change channel=8 control=72 value=64 time=0.0021574041666666665
EXTRACT: control_change channel=8 control=73 value=64 time=0.0021574041666666665
EXTRACT: control_change channel=8 control=74 value=64 time=0.0021574041666666665
EXTRACT: control_change channel=9 control=11 value=127 time=0.025888849999999998
EXTRACT: control_change channel=9 control=71 value=64 time=0.0021574041666666665
EXTRACT: control_change channel=9 control=72 value=64 time=0.0021574041666666665
EXTRACT: control_change channel=9 control=73 value=64 time=0.0021574041666666665
EXTRACT: control_change channel=9 control=74 value=64 time=0.0021574041666666665
EXTRACT: control_change channel=10 control=11 value=127 time=0.025888849999999998
EXTRACT: control_change channel=10 control=71 value=64 time=0.0021574041666666665
EXTRACT: control_change channel=10 control=72 value=64 time=0.0021574041666666665
EXTRACT: control_change channel=10 control=73 value=64 time=0.0021574041666666665
EXTRACT: control_change channel=10 control=74 value=64 time=0.0021574041666666665
EXTRACT: control_change channel=11 control=11 value=127 time=0.025888849999999998
EXTRACT: control_change channel=11 control=71 value=64 time=0.0021574041666666665
EXTRACT: control_change channel=11 control=72 value=64 time=0.0021574041666666665
EXTRACT: control_change channel=11 control=73 value=64 time=0.0021574041666666665
EXTRACT: control_change channel=11 control=74 value=64 time=0.0021574041666666665
EXTRACT: control_change channel=12 control=11 value=127 time=0.025888849999999998
EXTRACT: control_change channel=12 control=71 value=64 time=0.0021574041666666665
EXTRACT: control_change channel=12 control=72 value=64 time=0.0021574041666666665
EXTRACT: control_change channel=12 control=73 value=64 time=0.0021574041666666665
EXTRACT: control_change channel=12 control=74 value=64 time=0.0021574041666666665
EXTRACT: control_change channel=13 control=11 value=127 time=0.025888849999999998
EXTRACT: control_change channel=13 control=71 value=64 time=0.0021574041666666665
EXTRACT: control_change channel=13 control=72 value=64 time=0.0021574041666666665
EXTRACT: control_change channel=13 control=73 value=64 time=0.0021574041666666665
EXTRACT: control_change channel=13 control=74 value=64 time=0.0021574041666666665
EXTRACT: control_change channel=14 control=11 value=127 time=0.025888849999999998
EXTRACT: control_change channel=14 control=71 value=64 time=0.0021574041666666665
EXTRACT: control_change channel=14 control=72 value=64 time=0.0021574041666666665
EXTRACT: control_change channel=14 control=73 value=64 time=0.0021574041666666665
EXTRACT: control_change channel=14 control=74 value=64 time=0.0021574041666666665
EXTRACT: control_change channel=0 control=94 value=0 time=0.0194166375
EXTRACT: control_change channel=0 control=101 value=0 time=0
EXTRACT: control_change channel=0 control=100 value=0 time=0.0010787020833333332
EXTRACT: control_change channel=0 control=6 value=2 time=0.0010787020833333332
EXTRACT: control_change channel=0 control=38 value=0 time=0.0010787020833333332
EXTRACT: control_change channel=15 control=11 value=127 time=0.0032361062499999997
EXTRACT: control_change channel=15 control=71 value=64 time=0.0021574041666666665
EXTRACT: control_change channel=15 control=72 value=64 time=0.0021574041666666665
EXTRACT: pitchwheel channel=0 pitch=0 time=0.0021574041666666665
EXTRACT: control_change channel=15 control=73 value=64 time=0
EXTRACT: control_change channel=0 control=1 value=0 time=0.0021574041666666665
EXTRACT: control_change channel=15 control=74 value=64 time=0
EXTRACT: control_change channel=1 control=94 value=0 time=0.0194166375
EXTRACT: control_change channel=1 control=101 value=0 time=0
EXTRACT: control_change channel=1 control=100 value=0 time=0.0010787020833333332
EXTRACT: control_change channel=1 control=6 value=2 time=0.0010787020833333332
EXTRACT: control_change channel=1 control=38 value=0 time=0.0010787020833333332
EXTRACT: pitchwheel channel=1 pitch=0 time=0.00970831875
EXTRACT: control_change channel=1 control=1 value=0 time=0.0021574041666666665
EXTRACT: control_change channel=2 control=94 value=0 time=0.0194166375
EXTRACT: control_change channel=2 control=101 value=0 time=0
EXTRACT: control_change channel=2 control=100 value=0 time=0.0010787020833333332
EXTRACT: control_change channel=2 control=6 value=2 time=0.0010787020833333332
EXTRACT: control_change channel=2 control=38 value=0 time=0.0010787020833333332
EXTRACT: pitchwheel channel=2 pitch=0 time=0.00970831875
EXTRACT: control_change channel=2 control=1 value=0 time=0.0021574041666666665
EXTRACT: control_change channel=3 control=94 value=0 time=0.0194166375
EXTRACT: control_change channel=3 control=101 value=0 time=0
EXTRACT: control_change channel=3 control=100 value=0 time=0.0010787020833333332
EXTRACT: control_change channel=3 control=6 value=2 time=0.0010787020833333332
EXTRACT: control_change channel=3 control=38 value=0 time=0.0010787020833333332
EXTRACT: pitchwheel channel=3 pitch=0 time=0.00970831875
EXTRACT: control_change channel=3 control=1 value=0 time=0.0021574041666666665
EXTRACT: control_change channel=0 control=0 value=0 time=0.004314808333333333
EXTRACT: control_change channel=0 control=32 value=0 time=0.0010787020833333332
EXTRACT: program_change channel=0 program=0 time=0.0010787020833333332
EXTRACT: control_change channel=0 control=7 value=100 time=0.0010787020833333332
EXTRACT: control_change channel=0 control=10 value=64 time=0
EXTRACT: control_change channel=0 control=91 value=0 time=0
EXTRACT: control_change channel=0 control=93 value=0 time=0
EXTRACT: program_change channel=1 program=33 time=0.004314808333333333
EXTRACT: control_change channel=1 control=7 value=100 time=0.0010787020833333332
EXTRACT: control_change channel=1 control=10 value=64 time=0
EXTRACT: control_change channel=1 control=91 value=0 time=0
EXTRACT: control_change channel=1 control=93 value=0 time=0
EXTRACT: program_change channel=2 program=26 time=0.004314808333333333
EXTRACT: control_change channel=2 control=7 value=100 time=0.0010787020833333332
EXTRACT: control_change channel=2 control=10 value=64 time=0
EXTRACT: control_change channel=2 control=91 value=41 time=0
EXTRACT: control_change channel=2 control=93 value=22 time=0
EXTRACT: control_change channel=4 control=94 value=0 time=0.0010787020833333332
EXTRACT: control_change channel=4 control=101 value=0 time=0
EXTRACT: control_change channel=4 control=100 value=0 time=0.0010787020833333332
EXTRACT: control_change channel=4 control=6 value=2 time=0.0010787020833333332
EXTRACT: control_change channel=4 control=38 value=0 time=0.0010787020833333332
EXTRACT: program_change channel=3 program=65 time=0
EXTRACT: control_change channel=3 control=7 value=127 time=0.0010787020833333332
EXTRACT: control_change channel=3 control=10 value=64 time=0
EXTRACT: control_change channel=3 control=91 value=56 time=0
EXTRACT: control_change channel=3 control=93 value=15 time=0
EXTRACT: program_change channel=4 program=52 time=0.004314808333333333
EXTRACT: control_change channel=4 control=7 value=100 time=0.0010787020833333332
EXTRACT: control_change channel=4 control=10 value=58 time=0
EXTRACT: control_change channel=4 control=91 value=52 time=0
EXTRACT: control_change channel=4 control=93 value=23 time=0
EXTRACT: pitchwheel channel=4 pitch=0 time=0.0032361062499999997
EXTRACT: program_change channel=5 program=17 time=0.0010787020833333332
EXTRACT: control_change channel=4 control=1 value=0 time=0.0010787020833333332
EXTRACT: control_change channel=5 control=7 value=98 time=0
EXTRACT: control_change channel=5 control=10 value=64 time=0
EXTRACT: control_change channel=5 control=91 value=43 time=0
EXTRACT: control_change channel=5 control=93 value=59 time=0
EXTRACT: program_change channel=6 program=92 time=0.004314808333333333
EXTRACT: control_change channel=6 control=7 value=92 time=0.0010787020833333332
EXTRACT: control_change channel=6 control=10 value=75 time=0
EXTRACT: control_change channel=6 control=91 value=73 time=0
EXTRACT: control_change channel=6 control=93 value=40 time=0
EXTRACT: control_change channel=7 control=0 value=0 time=0.0021574041666666665
EXTRACT: control_change channel=7 control=32 value=0 time=0.0010787020833333332
EXTRACT: program_change channel=7 program=0 time=0.0010787020833333332
EXTRACT: control_change channel=7 control=7 value=100 time=0.0010787020833333332
EXTRACT: control_change channel=7 control=10 value=64 time=0
EXTRACT: control_change channel=7 control=91 value=55 time=0
EXTRACT: control_change channel=7 control=93 value=20 time=0
EXTRACT: control_change channel=8 control=0 value=0 time=0.0021574041666666665
EXTRACT: control_change channel=8 control=32 value=0 time=0.0010787020833333332
EXTRACT: program_change channel=8 program=0 time=0.0010787020833333332
EXTRACT: control_change channel=8 control=7 value=100 time=0.0010787020833333332
EXTRACT: control_change channel=8 control=10 value=64 time=0
EXTRACT: control_change channel=8 control=91 value=55 time=0
EXTRACT: control_change channel=8 control=93 value=20 time=0
EXTRACT: control_change channel=5 control=94 value=0 time=0.0021574041666666665
EXTRACT: program_change channel=9 program=40 time=0.0021574041666666665
EXTRACT: control_change channel=9 control=7 value=100 time=0.0010787020833333332
EXTRACT: control_change channel=9 control=10 value=64 time=0
EXTRACT: control_change channel=9 control=91 value=55 time=0
EXTRACT: control_change channel=9 control=93 value=20 time=0
EXTRACT: control_change channel=10 control=0 value=0 time=0.0021574041666666665
EXTRACT: control_change channel=5 control=101 value=0 time=0
EXTRACT: control_change channel=5 control=100 value=0 time=0.0010787020833333332
EXTRACT: control_change channel=5 control=6 value=2 time=0.0010787020833333332
EXTRACT: control_change channel=5 control=38 value=0 time=0.0010787020833333332
EXTRACT: control_change channel=10 control=32 value=0 time=0
EXTRACT: program_change channel=10 program=0 time=0
EXTRACT: control_change channel=10 control=7 value=100 time=0
EXTRACT: control_change channel=10 control=10 value=64 time=0
EXTRACT: control_change channel=10 control=91 value=55 time=0
EXTRACT: control_change channel=10 control=93 value=20 time=0
EXTRACT: control_change channel=11 control=0 value=0 time=0.0021574041666666665
EXTRACT: control_change channel=11 control=32 value=0 time=0.0010787020833333332
EXTRACT: pitchwheel channel=5 pitch=0 time=0.0010787020833333332
EXTRACT: program_change channel=11 program=0 time=0
EXTRACT: control_change channel=11 control=7 value=100 time=0.0010787020833333332
EXTRACT: control_change channel=11 control=10 value=64 time=0
EXTRACT: control_change channel=11 control=91 value=55 time=0
EXTRACT: control_change channel=11 control=93 value=20 time=0
EXTRACT: control_change channel=5 control=1 value=0 time=0.0010787020833333332
EXTRACT: control_change channel=12 control=0 value=0 time=0.0010787020833333332
EXTRACT: control_change channel=12 control=32 value=0 time=0.0010787020833333332
EXTRACT: program_change channel=12 program=0 time=0.0010787020833333332
EXTRACT: control_change channel=12 control=7 value=100 time=0.0010787020833333332
EXTRACT: control_change channel=12 control=10 value=64 time=0
EXTRACT: control_change channel=12 control=91 value=55 time=0
EXTRACT: control_change channel=12 control=93 value=20 time=0
EXTRACT: control_change channel=13 control=0 value=0 time=0.0021574041666666665
EXTRACT: control_change channel=13 control=32 value=0 time=0.0010787020833333332
EXTRACT: program_change channel=13 program=0 time=0.0010787020833333332
EXTRACT: control_change channel=13 control=7 value=100 time=0.0010787020833333332
EXTRACT: control_change channel=13 control=10 value=64 time=0
EXTRACT: control_change channel=13 control=91 value=55 time=0
EXTRACT: control_change channel=13 control=93 value=20 time=0
EXTRACT: control_change channel=14 control=0 value=0 time=0.0021574041666666665
EXTRACT: control_change channel=14 control=32 value=0 time=0.0010787020833333332
EXTRACT: program_change channel=14 program=0 time=0.0010787020833333332
EXTRACT: control_change channel=14 control=7 value=100 time=0.0010787020833333332
EXTRACT: control_change channel=14 control=10 value=64 time=0
EXTRACT: control_change channel=14 control=91 value=0 time=0
EXTRACT: control_change channel=14 control=93 value=0 time=0
EXTRACT: control_change channel=15 control=0 value=0 time=0.0021574041666666665
EXTRACT: control_change channel=15 control=32 value=0 time=0.0010787020833333332
EXTRACT: program_change channel=15 program=0 time=0.0010787020833333332
EXTRACT: control_change channel=6 control=94 value=0 time=0.0010787020833333332
EXTRACT: control_change channel=15 control=7 value=0 time=0
EXTRACT: control_change channel=15 control=10 value=64 time=0
EXTRACT: control_change channel=15 control=91 value=0 time=0
EXTRACT: control_change channel=15 control=93 value=0 time=0
EXTRACT: control_change channel=6 control=101 value=0 time=0
EXTRACT: control_change channel=6 control=100 value=0 time=0.0010787020833333332
EXTRACT: control_change channel=6 control=6 value=2 time=0.0010787020833333332
EXTRACT: control_change channel=6 control=38 value=0 time=0.0010787020833333332
EXTRACT: pitchwheel channel=6 pitch=0 time=0.00970831875
EXTRACT: control_change channel=6 control=1 value=0 time=0.0021574041666666665
EXTRACT: control_change channel=7 control=94 value=0 time=0.0194166375
EXTRACT: control_change channel=7 control=101 value=0 time=0
EXTRACT: control_change channel=7 control=100 value=0 time=0.0010787020833333332
EXTRACT: control_change channel=7 control=6 value=2 time=0.0010787020833333332
EXTRACT: control_change channel=7 control=38 value=0 time=0.0010787020833333332
EXTRACT: pitchwheel channel=7 pitch=0 time=0.00970831875
EXTRACT: control_change channel=7 control=1 value=0 time=0.0021574041666666665
EXTRACT: control_change channel=8 control=94 value=0 time=0.0194166375
EXTRACT: control_change channel=8 control=101 value=0 time=0
EXTRACT: control_change channel=8 control=100 value=0 time=0.0010787020833333332
EXTRACT: control_change channel=8 control=6 value=2 time=0.0010787020833333332
EXTRACT: control_change channel=8 control=38 value=0 time=0.0010787020833333332
EXTRACT: pitchwheel channel=8 pitch=0 time=0.00970831875
EXTRACT: control_change channel=8 control=1 value=0 time=0.0021574041666666665
EXTRACT: control_change channel=9 control=94 value=0 time=0.0194166375
EXTRACT: pitchwheel channel=9 pitch=0 time=0.0021574041666666665
EXTRACT: control_change channel=9 control=1 value=0 time=0.0021574041666666665
EXTRACT: control_change channel=10 control=94 value=0 time=0.03020365833333333
EXTRACT: control_change channel=10 control=101 value=0 time=0
EXTRACT: control_change channel=10 control=100 value=0 time=0.0010787020833333332
EXTRACT: control_change channel=10 control=6 value=2 time=0.0010787020833333332
EXTRACT: control_change channel=10 control=38 value=0 time=0.0010787020833333332
EXTRACT: pitchwheel channel=10 pitch=0 time=0.00970831875
EXTRACT: control_change channel=10 control=1 value=0 time=0.0021574041666666665
EXTRACT: control_change channel=11 control=94 value=0 time=0.0194166375
EXTRACT: control_change channel=11 control=101 value=0 time=0
EXTRACT: control_change channel=11 control=100 value=0 time=0.0010787020833333332
EXTRACT: control_change channel=11 control=6 value=2 time=0.0010787020833333332
EXTRACT: control_change channel=11 control=38 value=0 time=0.0010787020833333332
EXTRACT: pitchwheel channel=11 pitch=0 time=0.00970831875
EXTRACT: control_change channel=11 control=1 value=0 time=0.0021574041666666665
EXTRACT: control_change channel=12 control=94 value=0 time=0.0194166375
EXTRACT: control_change channel=12 control=101 value=0 time=0
EXTRACT: control_change channel=12 control=100 value=0 time=0.0010787020833333332
EXTRACT: control_change channel=12 control=6 value=2 time=0.0010787020833333332
EXTRACT: control_change channel=12 control=38 value=0 time=0.0010787020833333332
EXTRACT: pitchwheel channel=12 pitch=0 time=0.00970831875
EXTRACT: control_change channel=12 control=1 value=0 time=0.0021574041666666665
EXTRACT: control_change channel=13 control=94 value=0 time=0.0194166375
EXTRACT: control_change channel=13 control=101 value=0 time=0
EXTRACT: control_change channel=13 control=100 value=0 time=0.0010787020833333332
EXTRACT: control_change channel=13 control=6 value=2 time=0.0010787020833333332
EXTRACT: control_change channel=13 control=38 value=0 time=0.0010787020833333332
EXTRACT: pitchwheel channel=13 pitch=0 time=0.00970831875
EXTRACT: control_change channel=13 control=1 value=0 time=0.0021574041666666665
EXTRACT: control_change channel=14 control=94 value=0 time=0.0194166375
EXTRACT: control_change channel=14 control=101 value=0 time=0
EXTRACT: control_change channel=14 control=100 value=0 time=0.0010787020833333332
EXTRACT: control_change channel=14 control=6 value=2 time=0.0010787020833333332
EXTRACT: control_change channel=14 control=38 value=0 time=0.0010787020833333332
EXTRACT: pitchwheel channel=14 pitch=0 time=0.00970831875
EXTRACT: control_change channel=14 control=1 value=0 time=0.0021574041666666665
EXTRACT: control_change channel=15 control=94 value=0 time=0.0194166375
EXTRACT: control_change channel=15 control=101 value=0 time=0
EXTRACT: control_change channel=15 control=100 value=0 time=0.0010787020833333332
EXTRACT: control_change channel=15 control=6 value=2 time=0.0010787020833333332
EXTRACT: control_change channel=15 control=38 value=0 time=0.0010787020833333332
EXTRACT: pitchwheel channel=15 pitch=0 time=0.00970831875
EXTRACT: control_change channel=15 control=1 value=0 time=0.0021574041666666665
EXTRACT: note_on channel=5 note=60 velocity=70 time=2.6978339104166666
EXTRACT: note_on channel=5 note=67 velocity=63 time=0
EXTRACT: note_on channel=5 note=76 velocity=58 time=0
EXTRACT: note_on channel=5 note=72 velocity=89 time=0
EXTRACT: note_on channel=1 note=36 velocity=89 time=0.0010787020833333332
EXTRACT: note_on channel=2 note=48 velocity=124 time=0
EXTRACT: note_on channel=15 note=60 velocity=1 time=0
EXTRACT: note_on channel=15 note=64 velocity=1 time=0
EXTRACT: note_on channel=15 note=67 velocity=1 time=0
EXTRACT: control_change channel=5 control=1 value=31 time=0.026967552083333332
EXTRACT: control_change channel=5 control=1 value=34 time=0.015101829166666665
EXTRACT: control_change channel=5 control=1 value=35 time=0.07766655
EXTRACT: control_change channel=5 control=1 value=36 time=0.08953227291666666
EXTRACT: control_change channel=5 control=1 value=37 time=0.016180531249999998
EXTRACT: note_on channel=2 note=55 velocity=112 time=0.11973593125
EXTRACT: note_on channel=2 note=48 velocity=0 time=0.024810147916666664
EXTRACT: control_change channel=5 control=1 value=38 time=0.21466171458333333
EXTRACT: note_on channel=2 note=60 velocity=105 time=0.10571280416666666
EXTRACT: note_on channel=2 note=55 velocity=0 time=0.03991197708333333
EXTRACT: control_change channel=5 control=1 value=39 time=0.02049533958333333
EXTRACT: note_on channel=2 note=64 velocity=107 time=0.28477735
EXTRACT: note_on channel=2 note=60 velocity=0 time=0.058249912499999994
EXTRACT: control_change channel=5 control=1 value=38 time=0.021574041666666665
EXTRACT: note_on channel=2 note=64 velocity=0 time=0.24918018125
EXTRACT: note_on channel=2 note=60 velocity=112 time=0.016180531249999998
EXTRACT: control_change channel=5 control=1 value=37 time=0.011865722916666665
EXTRACT: control_change channel=5 control=1 value=36 time=0.10355539999999999
EXTRACT: control_change channel=5 control=1 value=35 time=0.07874525208333333
EXTRACT: control_change channel=5 control=1 value=33 time=0.10463410208333332
EXTRACT: note_on channel=2 note=55 velocity=114 time=0.04638418958333333
EXTRACT: control_change channel=5 control=1 value=32 time=0.03128236041666666
EXTRACT: note_on channel=2 note=60 velocity=0 time=0.0194166375
EXTRACT: control_change channel=5 control=1 value=31 time=0.06795823125
EXTRACT: control_change channel=5 control=1 value=30 time=0.016180531249999998
EXTRACT: control_change channel=5 control=1 value=29 time=0.07874525208333333
EXTRACT: note_on channel=1 note=36 velocity=0 time=0.06256472083333332
EXTRACT: note_on channel=2 note=55 velocity=0 time=0.03667587083333333
EXTRACT: note_on channel=5 note=60 velocity=0 time=0.03128236041666666
EXTRACT: note_on channel=5 note=76 velocity=0 time=0
EXTRACT: note_on channel=5 note=72 velocity=0 time=0
EXTRACT: note_on channel=5 note=67 velocity=0 time=0
EXTRACT: note_on channel=5 note=71 velocity=81 time=0
EXTRACT: note_on channel=5 note=67 velocity=58 time=0
EXTRACT: note_on channel=5 note=55 velocity=79 time=0
EXTRACT: note_on channel=5 note=74 velocity=68 time=0
EXTRACT: note_on channel=15 note=64 velocity=0 time=0.0010787020833333332
EXTRACT: note_on channel=15 note=67 velocity=0 time=0
EXTRACT: note_on channel=15 note=60 velocity=0 time=0
EXTRACT: note_on channel=1 note=31 velocity=113 time=0
EXTRACT: note_on channel=2 note=43 velocity=112 time=0
EXTRACT: note_on channel=15 note=59 velocity=1 time=0
EXTRACT: note_on channel=15 note=62 velocity=1 time=0
EXTRACT: note_on channel=15 note=55 velocity=1 time=0
EXTRACT: control_change channel=5 control=1 value=30 time=0.32145322083333333
EXTRACT: control_change channel=5 control=1 value=31 time=0.015101829166666665
EXTRACT: note_on channel=2 note=55 velocity=103 time=0.008629616666666666
EXTRACT: note_on channel=2 note=43 velocity=0 time=0.025888849999999998
EXTRACT: control_change channel=5 control=1 value=33 time=0.04099067916666666
EXTRACT: control_change channel=5 control=1 value=34 time=0.08737486874999999
EXTRACT: control_change channel=5 control=1 value=35 time=0.09384708124999999
EXTRACT: note_on channel=2 note=59 velocity=101 time=0.09708318749999999
EXTRACT: control_change channel=5 control=1 value=36 time=0.007550914583333333
EXTRACT: note_on channel=2 note=55 velocity=0 time=0.018337935416666666
EXTRACT: control_change channel=5 control=1 value=37 time=0.05932861458333333
EXTRACT: note_on channel=2 note=62 velocity=112 time=0.2599672020833333
EXTRACT: note_on channel=3 note=64 velocity=94 time=0
EXTRACT: control_change channel=5 control=1 value=38 time=0.010787020833333332
EXTRACT: control_change channel=5 control=1 value=37 time=0.016180531249999998
EXTRACT: note_on channel=2 note=59 velocity=0 time=0.044226785416666664
EXTRACT: note_on channel=3 note=64 velocity=0 time=0.017259233333333332
EXTRACT: control_change channel=5 control=1 value=35 time=0.11973593125
EXTRACT: note_on channel=2 note=59 velocity=112 time=0.13699516458333333
EXTRACT: note_on channel=3 note=62 velocity=109 time=0
EXTRACT: note_on channel=2 note=62 velocity=0 time=0.017259233333333332
EXTRACT: control_change channel=5 control=1 value=34 time=0.014023127083333333
EXTRACT: control_change channel=5 control=1 value=33 time=0.09276837916666666
EXTRACT: control_change channel=5 control=1 value=32 time=0.08845357083333333
EXTRACT: control_change channel=5 control=1 value=31 time=0.015101829166666665
EXTRACT: control_change channel=5 control=1 value=30 time=0.07874525208333333
EXTRACT: note_on channel=2 note=55 velocity=112 time=0.038833275
EXTRACT: control_change channel=5 control=1 value=29 time=0.04962029583333333
EXTRACT: note_on channel=2 note=59 velocity=0 time=0.010787020833333332
EXTRACT: control_change channel=5 control=1 value=27 time=0.004314808333333333
EXTRACT: note_on channel=3 note=62 velocity=0 time=0.05069899791666666
EXTRACT: control_change channel=5 control=1 value=26 time=0.028046254166666666
EXTRACT: control_change channel=5 control=1 value=25 time=0.08845357083333333
EXTRACT: note_on channel=2 note=55 velocity=0 time=0.09168967708333332
EXTRACT: note_on channel=5 note=74 velocity=0 time=0.02049533958333333
EXTRACT: note_on channel=5 note=71 velocity=0 time=0
EXTRACT: note_on channel=5 note=67 velocity=0 time=0
EXTRACT: note_on channel=5 note=55 velocity=0 time=0
EXTRACT: note_on channel=5 note=67 velocity=84 time=0
EXTRACT: note_on channel=5 note=48 velocity=112 time=0
EXTRACT: note_on channel=5 note=64 velocity=57 time=0
EXTRACT: note_on channel=5 note=72 velocity=91 time=0
EXTRACT: note_on channel=15 note=55 velocity=0 time=0.0010787020833333332
EXTRACT: note_on channel=15 note=62 velocity=0 time=0
EXTRACT: note_on channel=1 note=31 velocity=0 time=0
EXTRACT: note_on channel=15 note=59 velocity=0 time=0
EXTRACT: note_on channel=1 note=36 velocity=105 time=0
EXTRACT: note_on channel=2 note=48 velocity=112 time=0
EXTRACT: note_on channel=3 note=60 velocity=103 time=0
EXTRACT: note_on channel=9 note=38 velocity=114 time=0
EXTRACT: note_on channel=9 note=36 velocity=116 time=0
EXTRACT: note_on channel=15 note=60 velocity=1 time=0
EXTRACT: note_on channel=15 note=64 velocity=1 time=0
EXTRACT: note_on channel=15 note=67 velocity=1 time=0
EXTRACT: note_on channel=9 note=36 velocity=0 time=0.06795823125
EXTRACT: note_on channel=9 note=38 velocity=0 time=0.0021574041666666665
EXTRACT: note_on channel=2 note=48 velocity=0 time=0.2373144583333333
EXTRACT: note_on channel=2 note=55 velocity=103 time=0.037754572916666666
EXTRACT: note_on channel=9 note=38 velocity=94 time=0
EXTRACT: note_on channel=9 note=38 velocity=0 time=0.06795823125
EXTRACT: note_on channel=2 note=55 velocity=0 time=0.18553675833333333
EXTRACT: note_on channel=2 note=60 velocity=103 time=0.09168967708333332
EXTRACT: note_on channel=9 note=38 velocity=103 time=0
EXTRACT: note_on channel=9 note=38 velocity=0 time=0.06687952916666666
EXTRACT: note_on channel=3 note=60 velocity=0 time=0.07550914583333333
EXTRACT: note_on channel=2 note=60 velocity=0 time=0.1499395895833333
EXTRACT: note_on channel=2 note=64 velocity=105 time=0.05285640208333333
EXTRACT: note_on channel=3 note=60 velocity=116 time=0
EXTRACT: note_on channel=9 note=39 velocity=91 time=0
EXTRACT: note_on channel=9 note=37 velocity=127 time=0
EXTRACT: note_on channel=9 note=39 velocity=0 time=0.044226785416666664
EXTRACT: note_on channel=9 note=37 velocity=0 time=0.024810147916666664
EXTRACT: note_on channel=2 note=64 velocity=0 time=0.1887728645833333
EXTRACT: note_on channel=2 note=60 velocity=105 time=0.08737486874999999
EXTRACT: note_on channel=9 note=38 velocity=81 time=0
EXTRACT: note_on channel=9 note=38 velocity=0 time=0.05717121041666666
EXTRACT: note_on channel=2 note=60 velocity=0 time=0.20279599166666665
EXTRACT: note_on channel=2 note=55 velocity=91 time=0.08521746458333333
EXTRACT: note_on channel=9 note=38 velocity=85 time=0
EXTRACT: note_on channel=3 note=60 velocity=0 time=0.014023127083333333
EXTRACT: note_on channel=9 note=38 velocity=0 time=0.04314808333333333
EXTRACT: note_on channel=1 note=36 velocity=0 time=0.15101829166666667
EXTRACT: note_on channel=2 note=55 velocity=0 time=0.05609250833333333
EXTRACT: note_on channel=1 note=36 velocity=101 time=0.08090265625
EXTRACT: note_on channel=2 note=48 velocity=116 time=0
EXTRACT: note_on channel=3 note=60 velocity=122 time=0
EXTRACT: note_on channel=9 note=38 velocity=107 time=0
EXTRACT: note_on channel=9 note=36 velocity=116 time=0
EXTRACT: note_on channel=9 note=38 velocity=0 time=0.06795823125
EXTRACT: note_on channel=9 note=36 velocity=0 time=0.004314808333333333
EXTRACT: note_on channel=2 note=55 velocity=98 time=0.27291162708333333
EXTRACT: note_on channel=9 note=38 velocity=96 time=0
EXTRACT: note_on channel=3 note=60 velocity=0 time=0.0032361062499999997
EXTRACT: note_on channel=9 note=38 velocity=0 time=0.061486018749999996
EXTRACT: note_on channel=2 note=48 velocity=0 time=0.028046254166666666
EXTRACT: note_on channel=2 note=55 velocity=0 time=0.17367103541666665
EXTRACT: note_on channel=2 note=60 velocity=96 time=0.07874525208333333
EXTRACT: note_on channel=9 note=38 velocity=103 time=0
EXTRACT: note_on channel=9 note=38 velocity=0 time=0.051777699999999996
EXTRACT: note_on channel=2 note=60 velocity=0 time=0.23084224583333332
EXTRACT: note_on channel=2 note=64 velocity=101 time=0.06256472083333332
EXTRACT: note_on channel=3 note=64 velocity=101 time=0
EXTRACT: note_on channel=9 note=39 velocity=91 time=0
EXTRACT: note_on channel=9 note=37 velocity=127 time=0
EXTRACT: note_on channel=9 note=39 velocity=0 time=0.044226785416666664
EXTRACT: note_on channel=9 note=37 velocity=0 time=0.021574041666666665
EXTRACT: note_on channel=3 note=64 velocity=0 time=0.051777699999999996
EXTRACT: note_on channel=2 note=64 velocity=0 time=0.15641180208333333
EXTRACT: note_on channel=2 note=60 velocity=107 time=0.0711943375
EXTRACT: note_on channel=3 note=67 velocity=114 time=0
EXTRACT: note_on channel=9 note=38 velocity=105 time=0
EXTRACT: note_on channel=9 note=38 velocity=0 time=0.05501380625
EXTRACT: note_on channel=2 note=60 velocity=0 time=0.22329133124999997
EXTRACT: note_on channel=2 note=55 velocity=103 time=0.06687952916666666
EXTRACT: note_on channel=9 note=38 velocity=124 time=0
EXTRACT: note_on channel=9 note=38 velocity=0 time=0.048541593749999994
EXTRACT: note_on channel=3 note=67 velocity=0 time=0.04314808333333333
EXTRACT: note_on channel=2 note=55 velocity=0 time=0.17367103541666665
EXTRACT: note_on channel=5 note=72 velocity=0 time=0.021574041666666665
EXTRACT: note_on channel=5 note=64 velocity=0 time=0.005393510416666666
EXTRACT: note_on channel=5 note=67 velocity=0 time=0.025888849999999998
EXTRACT: note_on channel=5 note=48 velocity=0 time=0.0021574041666666665
EXTRACT: note_on channel=1 note=36 velocity=0 time=0.02265274375
EXTRACT: note_on channel=5 note=67 velocity=94 time=0.0010787020833333332
EXTRACT: note_on channel=5 note=71 velocity=82 time=0
EXTRACT: note_on channel=5 note=52 velocity=89 time=0
EXTRACT: note_on channel=5 note=64 velocity=76 time=0
EXTRACT: note_on channel=15 note=60 velocity=0 time=0.0010787020833333332
EXTRACT: note_on channel=15 note=64 velocity=0 time=0
EXTRACT: note_on channel=15 note=67 velocity=0 time=0
EXTRACT: note_on channel=1 note=28 velocity=116 time=0
EXTRACT: note_on channel=2 note=40 velocity=109 time=0
EXTRACT: note_on channel=3 note=67 velocity=116 time=0
EXTRACT: note_on channel=9 note=38 velocity=114 time=0
EXTRACT: note_on channel=9 note=36 velocity=116 time=0
EXTRACT: note_on channel=15 note=71 velocity=1 time=0
EXTRACT: note_on channel=15 note=67 velocity=1 time=0
EXTRACT: note_on channel=15 note=64 velocity=1 time=0
EXTRACT: note_on channel=9 note=36 velocity=0 time=0.06795823125
EXTRACT: note_on channel=9 note=38 velocity=0 time=0.0021574041666666665
EXTRACT: note_on channel=2 note=55 velocity=109 time=0.27506903125
EXTRACT: note_on channel=9 note=38 velocity=94 time=0
EXTRACT: note_on channel=2 note=40 velocity=0 time=0.03343976458333333
EXTRACT: note_on channel=9 note=38 velocity=0 time=0.034518466666666664
EXTRACT: note_on channel=2 note=55 velocity=0 time=0.16612012083333333
EXTRACT: note_on channel=2 note=59 velocity=109 time=0.11110631458333332
EXTRACT: note_on channel=9 note=38 velocity=103 time=0
EXTRACT: note_on channel=3 note=67 velocity=0 time=0.06256472083333332
EXTRACT: note_on channel=9 note=38 velocity=0 time=0.004314808333333333
EXTRACT: note_on channel=2 note=59 velocity=0 time=0.22113392708333332
EXTRACT: note_on channel=2 note=64 velocity=107 time=0.05717121041666666
EXTRACT: note_on channel=3 note=67 velocity=89 time=0
EXTRACT: note_on channel=9 note=39 velocity=91 time=0
EXTRACT: note_on channel=9 note=37 velocity=127 time=0
EXTRACT: note_on channel=9 note=39 velocity=0 time=0.044226785416666664
EXTRACT: note_on channel=9 note=37 velocity=0 time=0.024810147916666664
EXTRACT: note_on channel=2 note=59 velocity=107 time=0.2761477333333333
EXTRACT: note_on channel=9 note=38 velocity=81 time=0
EXTRACT: note_on channel=2 note=64 velocity=0 time=0.004314808333333333
EXTRACT: note_on channel=9 note=38 velocity=0 time=0.05285640208333333
EXTRACT: note_on channel=3 note=67 velocity=0 time=0.08629616666666666
EXTRACT: note_on channel=2 note=59 velocity=0 time=0.19308767291666665
EXTRACT: note_on channel=2 note=55 velocity=107 time=0.008629616666666666
EXTRACT: note_on channel=9 note=38 velocity=85 time=0
EXTRACT: note_on channel=9 note=38 velocity=0 time=0.05717121041666666
EXTRACT: note_on channel=2 note=55 velocity=0 time=0.21358301249999997
EXTRACT: note_on channel=1 note=28 velocity=0 time=0.03667587083333333
EXTRACT: note_on channel=1 note=28 velocity=114 time=0.037754572916666666
EXTRACT: note_on channel=2 note=40 velocity=112 time=0
EXTRACT: note_on channel=3 note=69 velocity=122 time=0
EXTRACT: note_on channel=9 note=38 velocity=107 time=0
EXTRACT: note_on channel=9 note=36 velocity=116 time=0
EXTRACT: note_on channel=9 note=38 velocity=0 time=0.06795823125
EXTRACT: note_on channel=9 note=36 velocity=0 time=0.004314808333333333
EXTRACT: note_on channel=2 note=40 velocity=0 time=0.2599672020833333
EXTRACT: note_on channel=3 note=69 velocity=0 time=0.012944424999999999
EXTRACT: note_on channel=2 note=55 velocity=112 time=0
EXTRACT: note_on channel=9 note=38 velocity=96 time=0
EXTRACT: note_on channel=9 note=38 velocity=0 time=0.06472212499999999
EXTRACT: note_on channel=2 note=55 velocity=0 time=0.2373144583333333
EXTRACT: note_on channel=2 note=59 velocity=103 time=0.04314808333333333
EXTRACT: note_on channel=9 note=38 velocity=103 time=0
EXTRACT: note_on channel=9 note=38 velocity=0 time=0.051777699999999996
EXTRACT: note_on channel=2 note=59 velocity=0 time=0.1887728645833333
EXTRACT: note_on channel=2 note=64 velocity=103 time=0.10463410208333332
EXTRACT: note_on channel=3 note=64 velocity=112 time=0
EXTRACT: note_on channel=9 note=39 velocity=91 time=0
EXTRACT: note_on channel=9 note=37 velocity=127 time=0
EXTRACT: note_on channel=9 note=39 velocity=0 time=0.044226785416666664
EXTRACT: note_on channel=9 note=37 velocity=0 time=0.021574041666666665
EXTRACT: note_on channel=2 note=64 velocity=0 time=0.15101829166666667
EXTRACT: note_on channel=3 note=64 velocity=0 time=0.015101829166666665
EXTRACT: note_on channel=2 note=59 velocity=105 time=0.11326371874999999
EXTRACT: note_on channel=3 note=67 velocity=114 time=0
EXTRACT: note_on channel=9 note=38 velocity=105 time=0
EXTRACT: note_on channel=9 note=38 velocity=0 time=0.05501380625
EXTRACT: note_on channel=3 note=67 velocity=0 time=0.09384708124999999
EXTRACT: note_on channel=2 note=59 velocity=0 time=0.06364342291666666
EXTRACT: note_on channel=2 note=55 velocity=109 time=0.13268035625
EXTRACT: note_on channel=3 note=69 velocity=116 time=0
EXTRACT: note_on channel=9 note=38 velocity=124 time=0
EXTRACT: note_on channel=9 note=38 velocity=0 time=0.048541593749999994
EXTRACT: note_on channel=3 note=69 velocity=0 time=0.07766655
EXTRACT: note_on channel=2 note=55 velocity=0 time=0.08521746458333333
EXTRACT: note_on channel=1 note=28 velocity=0 time=0.09708318749999999
EXTRACT: note_on channel=5 note=64 velocity=0 time=0.0194166375
EXTRACT: note_on channel=5 note=52 velocity=0 time=0.0032361062499999997
EXTRACT: note_on channel=5 note=71 velocity=0 time=0.0021574041666666665
EXTRACT: note_on channel=5 note=67 velocity=0 time=0.00970831875
EXTRACT: note_on channel=5 note=69 velocity=96 time=0.0010787020833333332
EXTRACT: note_on channel=5 note=65 velocity=77 time=0
EXTRACT: note_on channel=5 note=72 velocity=85 time=0
EXTRACT: note_on channel=5 note=53 velocity=101 time=0
EXTRACT: note_on channel=15 note=64 velocity=0 time=0.0010787020833333332
EXTRACT: note_on channel=15 note=67 velocity=0 time=0
EXTRACT: note_on channel=15 note=71 velocity=0 time=0
EXTRACT: note_on channel=1 note=29 velocity=105 time=0
EXTRACT: note_on channel=2 note=41 velocity=114 time=0
EXTRACT: note_on channel=3 note=69 velocity=122 time=0
EXTRACT: note_on channel=9 note=38 velocity=114 time=0
EXTRACT: note_on channel=9 note=36 velocity=116 time=0
EXTRACT: note_on channel=15 note=57 velocity=1 time=0
EXTRACT: note_on channel=15 note=53 velocity=1 time=0
EXTRACT: note_on channel=15 note=60 velocity=1 time=0
EXTRACT: note_on channel=9 note=36 velocity=0 time=0.06795823125
EXTRACT: note_on channel=9 note=38 velocity=0 time=0.0021574041666666665
EXTRACT: note_on channel=2 note=41 velocity=0 time=0.19524507708333333
EXTRACT: note_on channel=2 note=53 velocity=103 time=0.07982395416666666
EXTRACT: note_on channel=9 note=38 velocity=94 time=0
EXTRACT: note_on channel=9 note=38 velocity=0 time=0.06795823125
EXTRACT: note_on channel=2 note=53 velocity=0 time=0.17582843958333333
EXTRACT: note_on channel=3 note=69 velocity=0 time=0.05501380625
EXTRACT: note_on channel=2 note=57 velocity=87 time=0.04638418958333333
EXTRACT: note_on channel=9 note=38 velocity=103 time=0
EXTRACT: note_on channel=9 note=38 velocity=0 time=0.06687952916666666
EXTRACT: note_on channel=2 note=57 velocity=0 time=0.24810147916666664
EXTRACT: note_on channel=2 note=60 velocity=109 time=0.03020365833333333
EXTRACT: note_on channel=3 note=65 velocity=109 time=0
EXTRACT: note_on channel=9 note=39 velocity=91 time=0
EXTRACT: note_on channel=9 note=37 velocity=127 time=0
EXTRACT: note_on channel=9 note=39 velocity=0 time=0.044226785416666664
EXTRACT: note_on channel=9 note=37 velocity=0 time=0.024810147916666664
EXTRACT: note_on channel=2 note=60 velocity=0 time=0.19740248124999998
EXTRACT: note_on channel=2 note=57 velocity=98 time=0.07874525208333333
EXTRACT: note_on channel=9 note=38 velocity=81 time=0
EXTRACT: note_on channel=9 note=38 velocity=0 time=0.05717121041666666
EXTRACT: note_on channel=3 note=65 velocity=0 time=0.14886088749999998
EXTRACT: note_on channel=2 note=53 velocity=122 time=0.13915256874999998
EXTRACT: note_on channel=9 note=38 velocity=85 time=0
EXTRACT: note_on channel=2 note=57 velocity=0 time=0.02265274375
EXTRACT: note_on channel=9 note=38 velocity=0 time=0.034518466666666664
EXTRACT: note_on channel=1 note=29 velocity=0 time=0.22437003333333333
EXTRACT: note_on channel=2 note=53 velocity=0 time=0.005393510416666666
EXTRACT: note_on channel=1 note=29 velocity=91 time=0.058249912499999994
EXTRACT: note_on channel=2 note=41 velocity=119 time=0
EXTRACT: note_on channel=9 note=38 velocity=107 time=0
EXTRACT: note_on channel=9 note=36 velocity=116 time=0
EXTRACT: note_on channel=9 note=38 velocity=0 time=0.06795823125
EXTRACT: note_on channel=9 note=36 velocity=0 time=0.004314808333333333
EXTRACT: note_on channel=2 note=41 velocity=0 time=0.17151363125
EXTRACT: note_on channel=2 note=53 velocity=127 time=0.10139799583333332
EXTRACT: note_on channel=9 note=38 velocity=96 time=0
EXTRACT: note_on channel=9 note=38 velocity=0 time=0.06472212499999999
EXTRACT: note_on channel=2 note=53 velocity=0 time=0.17367103541666665
EXTRACT: note_on channel=2 note=57 velocity=101 time=0.10679150624999999
EXTRACT: note_on channel=9 note=38 velocity=103 time=0
EXTRACT: note_on channel=9 note=38 velocity=0 time=0.051777699999999996
EXTRACT: note_on channel=2 note=57 velocity=0 time=0.2653607125
EXTRACT: note_on channel=2 note=60 velocity=114 time=0.028046254166666666
EXTRACT: note_on channel=3 note=60 velocity=114 time=0
EXTRACT: note_on channel=9 note=39 velocity=91 time=0
EXTRACT: note_on channel=9 note=37 velocity=127 time=0
EXTRACT: note_on channel=9 note=39 velocity=0 time=0.044226785416666664
EXTRACT: note_on channel=9 note=37 velocity=0 time=0.021574041666666665
EXTRACT: note_on channel=3 note=60 velocity=0 time=0.15209699375
EXTRACT: note_on channel=2 note=60 velocity=0 time=0
EXTRACT: note_on channel=2 note=57 velocity=103 time=0.12728684583333333
EXTRACT: note_on channel=3 note=62 velocity=112 time=0
EXTRACT: note_on channel=9 note=38 velocity=105 time=0
EXTRACT: note_on channel=9 note=38 velocity=0 time=0.05501380625
EXTRACT: note_on channel=3 note=62 velocity=0 time=0.11865722916666666
EXTRACT: note_on channel=2 note=57 velocity=0 time=0.10247669791666666
EXTRACT: note_on channel=2 note=53 velocity=124 time=0.06903693333333333
EXTRACT: note_on channel=3 note=64 velocity=109 time=0
EXTRACT: note_on channel=9 note=38 velocity=124 time=0
EXTRACT: note_on channel=9 note=38 velocity=0 time=0.048541593749999994
EXTRACT: note_on channel=3 note=64 velocity=0 time=0.09168967708333332
EXTRACT: note_on channel=2 note=53 velocity=0 time=0.07658784791666666
EXTRACT: note_on channel=1 note=29 velocity=0 time=0.03559716875
EXTRACT: note_on channel=5 note=53 velocity=0 time=0.04746289166666666
EXTRACT: note_on channel=5 note=65 velocity=0 time=0.005393510416666666
EXTRACT: note_on channel=5 note=72 velocity=0 time=0
EXTRACT: note_on channel=5 note=69 velocity=0 time=0.004314808333333333
EXTRACT: note_on channel=5 note=55 velocity=84 time=0.034518466666666664
EXTRACT: note_on channel=5 note=67 velocity=72 time=0
EXTRACT: note_on channel=5 note=71 velocity=93 time=0
EXTRACT: note_on channel=5 note=74 velocity=77 time=0
EXTRACT: note_on channel=15 note=57 velocity=0 time=0.0010787020833333332
EXTRACT: note_on channel=15 note=53 velocity=0 time=0
EXTRACT: note_on channel=15 note=60 velocity=0 time=0
EXTRACT: note_on channel=1 note=31 velocity=124 time=0
EXTRACT: note_on channel=2 note=43 velocity=114 time=0
EXTRACT: note_on channel=3 note=64 velocity=112 time=0
EXTRACT: note_on channel=9 note=38 velocity=114 time=0
EXTRACT: note_on channel=9 note=36 velocity=116 time=0
EXTRACT: note_on channel=15 note=55 velocity=1 time=0
EXTRACT: note_on channel=15 note=59 velocity=1 time=0
EXTRACT: note_on channel=15 note=62 velocity=1 time=0
EXTRACT: note_on channel=9 note=36 velocity=0 time=0.06795823125
EXTRACT: note_on channel=9 note=38 velocity=0 time=0.0021574041666666665
EXTRACT: note_on channel=2 note=43 velocity=0 time=0.24486537291666666
EXTRACT: note_on channel=2 note=55 velocity=105 time=0.03020365833333333
EXTRACT: note_on channel=9 note=38 velocity=94 time=0
EXTRACT: note_on channel=9 note=38 velocity=0 time=0.06795823125
EXTRACT: note_on channel=2 note=55 velocity=0 time=0.24918018125
EXTRACT: note_on channel=2 note=59 velocity=94 time=0.028046254166666666
EXTRACT: note_on channel=9 note=38 velocity=103 time=0
EXTRACT: note_on channel=3 note=64 velocity=0 time=0.04314808333333333
EXTRACT: note_on channel=9 note=38 velocity=0 time=0.02373144583333333
EXTRACT: note_on channel=2 note=59 velocity=0 time=0.23084224583333332
EXTRACT: note_on channel=2 note=62 velocity=112 time=0.04746289166666666
EXTRACT: note_on channel=3 note=62 velocity=116 time=0
EXTRACT: note_on channel=9 note=39 velocity=91 time=0
EXTRACT: note_on channel=9 note=37 velocity=127 time=0
EXTRACT: note_on channel=9 note=39 velocity=0 time=0.044226785416666664
EXTRACT: note_on channel=9 note=37 velocity=0 time=0.024810147916666664
EXTRACT: note_on channel=2 note=62 velocity=0 time=0.20387469374999997
EXTRACT: note_on channel=2 note=59 velocity=103 time=0.07227303958333332
EXTRACT: note_on channel=9 note=38 velocity=81 time=0
EXTRACT: note_on channel=9 note=38 velocity=0 time=0.05717121041666666
EXTRACT: note_on channel=2 note=59 velocity=0 time=0.18985156666666664
EXTRACT: note_on channel=3 note=62 velocity=0 time=0.0010787020833333332
EXTRACT: note_on channel=2 note=55 velocity=107 time=0.09708318749999999
EXTRACT: note_on channel=9 note=38 velocity=85 time=0
EXTRACT: note_on channel=9 note=38 velocity=0 time=0.05717121041666666
EXTRACT: note_on channel=1 note=31 velocity=0 time=0.1618053125
EXTRACT: note_on channel=2 note=55 velocity=0 time=0.06472212499999999
EXTRACT: note_on channel=1 note=31 velocity=109 time=0.061486018749999996
EXTRACT: note_on channel=2 note=43 velocity=112 time=0
EXTRACT: note_on channel=9 note=38 velocity=107 time=0
EXTRACT: note_on channel=9 note=36 velocity=116 time=0
EXTRACT: note_on channel=9 note=38 velocity=0 time=0.06795823125
EXTRACT: note_on channel=9 note=36 velocity=0 time=0.004314808333333333
EXTRACT: note_on channel=2 note=43 velocity=0 time=0.2276061395833333
EXTRACT: note_on channel=2 note=55 velocity=107 time=0.0453054875
EXTRACT: note_on channel=9 note=38 velocity=96 time=0
EXTRACT: note_on channel=9 note=38 velocity=0 time=0.06472212499999999
EXTRACT: note_on channel=2 note=55 velocity=0 time=0.23623575624999998
EXTRACT: note_on channel=2 note=59 velocity=105 time=0.044226785416666664
EXTRACT: note_on channel=9 note=38 velocity=103 time=0
EXTRACT: note_on channel=9 note=38 velocity=0 time=0.051777699999999996
EXTRACT: note_on channel=3 note=60 velocity=101 time=0.12081463333333332
EXTRACT: note_on channel=3 note=60 velocity=0 time=0.07766655
EXTRACT: note_on channel=2 note=59 velocity=0 time=0.025888849999999998
EXTRACT: note_on channel=2 note=62 velocity=114 time=0.06903693333333333
EXTRACT: note_on channel=3 note=64 velocity=103 time=0
EXTRACT: note_on channel=9 note=39 velocity=91 time=0
EXTRACT: note_on channel=9 note=37 velocity=127 time=0
EXTRACT: note_on channel=9 note=39 velocity=0 time=0.044226785416666664
EXTRACT: note_on channel=9 note=37 velocity=0 time=0.021574041666666665
EXTRACT: note_on channel=3 note=64 velocity=0 time=0.048541593749999994
EXTRACT: note_on channel=2 note=62 velocity=0 time=0.12512944166666665
EXTRACT: note_on channel=2 note=59 velocity=103 time=0.10571280416666666
EXTRACT: note_on channel=3 note=62 velocity=114 time=0
EXTRACT: note_on channel=9 note=38 velocity=105 time=0
EXTRACT: note_on channel=9 note=38 velocity=0 time=0.05501380625
EXTRACT: note_on channel=3 note=62 velocity=0 time=0.0711943375
EXTRACT: note_on channel=2 note=59 velocity=0 time=0.2006385875
EXTRACT: note_on channel=2 note=55 velocity=109 time=0.018337935416666666
EXTRACT: note_on channel=3 note=60 velocity=112 time=0
EXTRACT: note_on channel=9 note=38 velocity=124 time=0
EXTRACT: note_on channel=9 note=38 velocity=0 time=0.048541593749999994
EXTRACT: note_on channel=3 note=60 velocity=0 time=0.07443044374999999
EXTRACT: note_on channel=2 note=55 velocity=0 time=0.13807386666666666
EXTRACT: note_on channel=1 note=31 velocity=0 time=0.03343976458333333
EXTRACT: note_on channel=5 note=74 velocity=0 time=0.034518466666666664
EXTRACT: note_on channel=5 note=67 velocity=84 time=0.015101829166666665
EXTRACT: note_on channel=5 note=48 velocity=112 time=0
EXTRACT: note_on channel=5 note=64 velocity=57 time=0
EXTRACT: note_on channel=5 note=72 velocity=91 time=0
EXTRACT: note_on channel=15 note=55 velocity=0 time=0.0010787020833333332
EXTRACT: note_on channel=15 note=59 velocity=0 time=0
EXTRACT: note_on channel=15 note=62 velocity=0 time=0
EXTRACT: note_on channel=1 note=36 velocity=105 time=0
EXTRACT: note_on channel=2 note=48 velocity=112 time=0
EXTRACT: note_on channel=3 note=60 velocity=116 time=0
EXTRACT: note_on channel=9 note=38 velocity=114 time=0
EXTRACT: note_on channel=9 note=36 velocity=116 time=0
EXTRACT: note_on channel=15 note=60 velocity=1 time=0
EXTRACT: note_on channel=15 note=64 velocity=1 time=0
EXTRACT: note_on channel=15 note=67 velocity=1 time=0
EXTRACT: note_on channel=5 note=67 velocity=0 time=0.005393510416666666
EXTRACT: note_on channel=5 note=55 velocity=0 time=0.004314808333333333
EXTRACT: note_on channel=5 note=71 velocity=0 time=0.0010787020833333332
EXTRACT: note_on channel=9 note=36 velocity=0 time=0.05717121041666666
EXTRACT: note_on channel=9 note=38 velocity=0 time=0.0021574041666666665
EXTRACT: note_on channel=2 note=48 velocity=0 time=0.2373144583333333
EXTRACT: note_on channel=2 note=55 velocity=103 time=0.037754572916666666
EXTRACT: note_on channel=9 note=38 velocity=94 time=0
EXTRACT: note_on channel=9 note=38 velocity=0 time=0.06795823125
EXTRACT: note_on channel=2 note=55 velocity=0 time=0.18553675833333333
EXTRACT: note_on channel=3 note=60 velocity=0 time=0.08090265625
EXTRACT: note_on channel=2 note=60 velocity=103 time=0.010787020833333332
EXTRACT: note_on channel=9 note=38 velocity=103 time=0
EXTRACT: note_on channel=9 note=38 velocity=0 time=0.06687952916666666
EXTRACT: note_on channel=2 note=60 velocity=0 time=0.22544873541666666
EXTRACT: note_on channel=2 note=64 velocity=105 time=0.05285640208333333
EXTRACT: note_on channel=3 note=60 velocity=116 time=0
EXTRACT: note_on channel=9 note=39 velocity=91 time=0
EXTRACT: note_on channel=9 note=37 velocity=127 time=0
EXTRACT: note_on channel=9 note=39 velocity=0 time=0.044226785416666664
EXTRACT: note_on channel=9 note=37 velocity=0 time=0.024810147916666664
EXTRACT: note_on channel=2 note=64 velocity=0 time=0.1887728645833333
EXTRACT: note_on channel=2 note=60 velocity=105 time=0.08737486874999999
EXTRACT: note_on channel=9 note=38 velocity=81 time=0
EXTRACT: note_on channel=9 note=38 velocity=0 time=0.05717121041666666
EXTRACT: note_on channel=3 note=60 velocity=0 time=0.19955988541666664
EXTRACT: note_on channel=2 note=60 velocity=0 time=0.0032361062499999997
EXTRACT: note_on channel=2 note=55 velocity=91 time=0.08521746458333333
EXTRACT: note_on channel=9 note=38 velocity=85 time=0
EXTRACT: note_on channel=9 note=38 velocity=0 time=0.05717121041666666
EXTRACT: note_on channel=1 note=36 velocity=0 time=0.15101829166666667
EXTRACT: note_on channel=2 note=55 velocity=0 time=0.05609250833333333
EXTRACT: note_on channel=1 note=36 velocity=101 time=0.08090265625
EXTRACT: note_on channel=2 note=48 velocity=116 time=0
EXTRACT: note_on channel=3 note=60 velocity=112 time=0
EXTRACT: note_on channel=9 note=38 velocity=107 time=0
EXTRACT: note_on channel=9 note=36 velocity=116 time=0
EXTRACT: note_on channel=9 note=38 velocity=0 time=0.06795823125
EXTRACT: note_on channel=9 note=36 velocity=0 time=0.004314808333333333
EXTRACT: note_on channel=3 note=60 velocity=0 time=0.19416637499999997
EXTRACT: note_on channel=2 note=55 velocity=98 time=0.07874525208333333
EXTRACT: note_on channel=9 note=38 velocity=96 time=0
EXTRACT: note_on channel=9 note=38 velocity=0 time=0.06472212499999999
EXTRACT: note_on channel=2 note=48 velocity=0 time=0.028046254166666666
EXTRACT: note_on channel=2 note=55 velocity=0 time=0.17367103541666665
EXTRACT: note_on channel=2 note=60 velocity=96 time=0.07874525208333333
EXTRACT: note_on channel=9 note=38 velocity=103 time=0
EXTRACT: note_on channel=9 note=38 velocity=0 time=0.051777699999999996
EXTRACT: note_on channel=3 note=60 velocity=112 time=0.12081463333333332
EXTRACT: note_on channel=3 note=60 velocity=0 time=0.07227303958333332
EXTRACT: note_on channel=2 note=60 velocity=0 time=0.037754572916666666
EXTRACT: note_on channel=2 note=64 velocity=101 time=0.06256472083333332
EXTRACT: note_on channel=3 note=64 velocity=107 time=0
EXTRACT: note_on channel=9 note=39 velocity=91 time=0
EXTRACT: note_on channel=9 note=37 velocity=127 time=0
EXTRACT: note_on channel=9 note=39 velocity=0 time=0.044226785416666664
EXTRACT: note_on channel=9 note=37 velocity=0 time=0.021574041666666665
EXTRACT: note_on channel=3 note=64 velocity=0 time=0.14346737708333332
EXTRACT: note_on channel=2 note=64 velocity=0 time=0.06472212499999999
EXTRACT: note_on channel=2 note=60 velocity=107 time=0.0711943375
EXTRACT: note_on channel=3 note=67 velocity=116 time=0
EXTRACT: note_on channel=9 note=38 velocity=105 time=0
EXTRACT: note_on channel=9 note=38 velocity=0 time=0.05501380625
EXTRACT: note_on channel=3 note=67 velocity=0 time=0.10679150624999999
EXTRACT: note_on channel=2 note=60 velocity=0 time=0.11649982499999999
EXTRACT: note_on channel=2 note=55 velocity=103 time=0.06687952916666666
EXTRACT: note_on channel=3 note=67 velocity=109 time=0
EXTRACT: note_on channel=9 note=38 velocity=124 time=0
EXTRACT: note_on channel=9 note=38 velocity=0 time=0.048541593749999994
EXTRACT: note_on channel=3 note=67 velocity=0 time=0.10571280416666666
EXTRACT: note_on channel=2 note=55 velocity=0 time=0.11110631458333332
EXTRACT: note_on channel=5 note=72 velocity=0 time=0.021574041666666665
EXTRACT: note_on channel=5 note=64 velocity=0 time=0.005393510416666666
EXTRACT: note_on channel=5 note=67 velocity=0 time=0.025888849999999998
EXTRACT: note_on channel=5 note=48 velocity=0 time=0.0021574041666666665
EXTRACT: note_on channel=1 note=36 velocity=0 time=0.02265274375
EXTRACT: note_on channel=5 note=67 velocity=94 time=0.0010787020833333332
EXTRACT: note_on channel=5 note=71 velocity=82 time=0
EXTRACT: note_on channel=5 note=52 velocity=89 time=0
EXTRACT: note_on channel=5 note=64 velocity=76 time=0
EXTRACT: note_on channel=15 note=60 velocity=0 time=0.0010787020833333332
EXTRACT: note_on channel=15 note=64 velocity=0 time=0
EXTRACT: note_on channel=15 note=67 velocity=0 time=0
EXTRACT: note_on channel=1 note=28 velocity=116 time=0
EXTRACT: note_on channel=2 note=40 velocity=109 time=0
EXTRACT: note_on channel=3 note=67 velocity=107 time=0
EXTRACT: note_on channel=9 note=38 velocity=114 time=0
EXTRACT: note_on channel=9 note=36 velocity=116 time=0
EXTRACT: note_on channel=15 note=71 velocity=1 time=0
EXTRACT: note_on channel=15 note=67 velocity=1 time=0
EXTRACT: note_on channel=15 note=64 velocity=1 time=0
EXTRACT: note_on channel=9 note=36 velocity=0 time=0.06795823125
EXTRACT: note_on channel=9 note=38 velocity=0 time=0.0021574041666666665
EXTRACT: note_on channel=2 note=55 velocity=109 time=0.27506903125
EXTRACT: note_on channel=9 note=38 velocity=94 time=0
EXTRACT: note_on channel=2 note=40 velocity=0 time=0.03343976458333333
EXTRACT: note_on channel=9 note=38 velocity=0 time=0.034518466666666664
EXTRACT: note_on channel=2 note=55 velocity=0 time=0.16612012083333333
EXTRACT: note_on channel=2 note=59 velocity=109 time=0.11110631458333332
EXTRACT: note_on channel=9 note=38 velocity=103 time=0
EXTRACT: note_on channel=3 note=67 velocity=0 time=0.04314808333333333
EXTRACT: note_on channel=9 note=38 velocity=0 time=0.02373144583333333
EXTRACT: note_on channel=2 note=59 velocity=0 time=0.22113392708333332
EXTRACT: note_on channel=2 note=64 velocity=107 time=0.05717121041666666
EXTRACT: note_on channel=3 note=67 velocity=109 time=0
EXTRACT: note_on channel=9 note=39 velocity=91 time=0
EXTRACT: note_on channel=9 note=37 velocity=127 time=0
EXTRACT: note_on channel=9 note=39 velocity=0 time=0.044226785416666664
EXTRACT: note_on channel=9 note=37 velocity=0 time=0.024810147916666664
EXTRACT: note_on channel=3 note=67 velocity=0 time=0.2340783520833333
EXTRACT: note_on channel=2 note=59 velocity=107 time=0.042069381249999996
EXTRACT: note_on channel=3 note=64 velocity=103 time=0
EXTRACT: note_on channel=9 note=38 velocity=81 time=0
EXTRACT: note_on channel=2 note=64 velocity=0 time=0.004314808333333333
EXTRACT: note_on channel=9 note=38 velocity=0 time=0.05285640208333333
EXTRACT: note_on channel=3 note=64 velocity=0 time=0.032361062499999996
EXTRACT: note_on channel=2 note=59 velocity=0 time=0.2470227770833333
EXTRACT: note_on channel=2 note=55 velocity=107 time=0.008629616666666666
EXTRACT: note_on channel=3 note=62 velocity=112 time=0
EXTRACT: note_on channel=9 note=38 velocity=85 time=0
EXTRACT: note_on channel=9 note=38 velocity=0 time=0.05717121041666666
EXTRACT: note_on channel=1 note=28 velocity=0 time=0.15425439791666665
EXTRACT: note_on channel=2 note=55 velocity=0 time=0.05932861458333333
EXTRACT: note_on channel=3 note=62 velocity=0 time=0.018337935416666666
EXTRACT: note_on channel=1 note=28 velocity=114 time=0.05609250833333333
EXTRACT: note_on channel=2 note=40 velocity=112 time=0
EXTRACT: note_on channel=9 note=38 velocity=107 time=0
EXTRACT: note_on channel=9 note=36 velocity=116 time=0
EXTRACT: note_on channel=9 note=38 velocity=0 time=0.06795823125
EXTRACT: note_on channel=9 note=36 velocity=0 time=0.004314808333333333
EXTRACT: note_on channel=2 note=40 velocity=0 time=0.2599672020833333
EXTRACT: note_on channel=2 note=55 velocity=112 time=0.012944424999999999
EXTRACT: note_on channel=9 note=38 velocity=96 time=0
EXTRACT: note_on channel=9 note=38 velocity=0 time=0.06472212499999999
EXTRACT: note_on channel=2 note=55 velocity=0 time=0.2373144583333333
EXTRACT: note_on channel=2 note=59 velocity=103 time=0.04314808333333333
EXTRACT: note_on channel=9 note=38 velocity=103 time=0
EXTRACT: note_on channel=9 note=38 velocity=0 time=0.051777699999999996
EXTRACT: note_on channel=2 note=59 velocity=0 time=0.1887728645833333
EXTRACT: note_on channel=3 note=64 velocity=109 time=0.04746289166666666
EXTRACT: note_on channel=2 note=64 velocity=103 time=0.05717121041666666
EXTRACT: note_on channel=9 note=39 velocity=91 time=0
EXTRACT: note_on channel=9 note=37 velocity=127 time=0
EXTRACT: note_on channel=9 note=39 velocity=0 time=0.044226785416666664
EXTRACT: note_on channel=9 note=37 velocity=0 time=0.021574041666666665
EXTRACT: note_on channel=3 note=64 velocity=0 time=0.1359164625
EXTRACT: note_on channel=2 note=64 velocity=0 time=0.015101829166666665
EXTRACT: note_on channel=3 note=67 velocity=109 time=0.07766655
EXTRACT: note_on channel=2 note=59 velocity=105 time=0.05069899791666666
EXTRACT: note_on channel=9 note=38 velocity=105 time=0
EXTRACT: note_on channel=9 note=38 velocity=0 time=0.05501380625
EXTRACT: note_on channel=3 note=67 velocity=0 time=0.053935104166666664
EXTRACT: note_on channel=2 note=59 velocity=0 time=0.10355539999999999
EXTRACT: note_on channel=2 note=55 velocity=109 time=0.13268035625
EXTRACT: note_on channel=3 note=69 velocity=119 time=0
EXTRACT: note_on channel=9 note=38 velocity=124 time=0
EXTRACT: note_on channel=9 note=38 velocity=0 time=0.048541593749999994
EXTRACT: note_on channel=3 note=69 velocity=0 time=0.08413876249999999
EXTRACT: note_on channel=2 note=55 velocity=0 time=0.07874525208333333
EXTRACT: note_on channel=1 note=28 velocity=0 time=0.09708318749999999
EXTRACT: note_on channel=5 note=64 velocity=0 time=0.0194166375
EXTRACT: note_on channel=5 note=52 velocity=0 time=0.0032361062499999997
EXTRACT: note_on channel=5 note=71 velocity=0 time=0.0021574041666666665
EXTRACT: note_on channel=5 note=67 velocity=0 time=0.00970831875
EXTRACT: note_on channel=5 note=69 velocity=96 time=0.0010787020833333332
EXTRACT: note_on channel=5 note=65 velocity=77 time=0
EXTRACT: note_on channel=5 note=72 velocity=85 time=0
EXTRACT: note_on channel=5 note=53 velocity=101 time=0
EXTRACT: note_on channel=15 note=64 velocity=0 time=0.0010787020833333332
EXTRACT: note_on channel=15 note=67 velocity=0 time=0
EXTRACT: note_on channel=15 note=71 velocity=0 time=0
EXTRACT: note_on channel=1 note=29 velocity=105 time=0
EXTRACT: note_on channel=2 note=41 velocity=114 time=0
EXTRACT: note_on channel=3 note=69 velocity=119 time=0
EXTRACT: note_on channel=9 note=38 velocity=114 time=0
EXTRACT: note_on channel=9 note=36 velocity=116 time=0
EXTRACT: note_on channel=15 note=57 velocity=1 time=0
EXTRACT: note_on channel=15 note=53 velocity=1 time=0
EXTRACT: note_on channel=15 note=60 velocity=1 time=0
EXTRACT: note_on channel=9 note=36 velocity=0 time=0.06795823125
EXTRACT: note_on channel=9 note=38 velocity=0 time=0.0021574041666666665
EXTRACT: note_on channel=2 note=41 velocity=0 time=0.19524507708333333
EXTRACT: note_on channel=2 note=53 velocity=103 time=0.07982395416666666
EXTRACT: note_on channel=9 note=38 velocity=94 time=0
EXTRACT: note_on channel=9 note=38 velocity=0 time=0.06795823125
EXTRACT: note_on channel=2 note=53 velocity=0 time=0.17582843958333333
EXTRACT: note_on channel=2 note=57 velocity=87 time=0.10139799583333332
EXTRACT: note_on channel=9 note=38 velocity=103 time=0
EXTRACT: note_on channel=9 note=38 velocity=0 time=0.06687952916666666
EXTRACT: note_on channel=3 note=69 velocity=0 time=0.09924059166666666
EXTRACT: note_on channel=2 note=57 velocity=0 time=0.14886088749999998
EXTRACT: note_on channel=2 note=60 velocity=109 time=0.03020365833333333
EXTRACT: note_on channel=3 note=67 velocity=109 time=0
EXTRACT: note_on channel=9 note=39 velocity=91 time=0
EXTRACT: note_on channel=9 note=37 velocity=127 time=0
EXTRACT: note_on channel=9 note=39 velocity=0 time=0.044226785416666664
EXTRACT: note_on channel=9 note=37 velocity=0 time=0.024810147916666664
EXTRACT: note_on channel=2 note=60 velocity=0 time=0.19740248124999998
EXTRACT: note_on channel=3 note=67 velocity=0 time=0.05609250833333333
EXTRACT: note_on channel=2 note=57 velocity=98 time=0.02265274375
EXTRACT: note_on channel=3 note=65 velocity=98 time=0
EXTRACT: note_on channel=9 note=38 velocity=81 time=0
EXTRACT: note_on channel=9 note=38 velocity=0 time=0.05717121041666666
EXTRACT: note_on channel=2 note=53 velocity=122 time=0.28801345624999997
EXTRACT: note_on channel=9 note=38 velocity=85 time=0
EXTRACT: note_on channel=2 note=57 velocity=0 time=0.02265274375
EXTRACT: note_on channel=9 note=38 velocity=0 time=0.034518466666666664
EXTRACT: note_on channel=3 note=65 velocity=0 time=0.17582843958333333
EXTRACT: note_on channel=1 note=29 velocity=0 time=0.048541593749999994
EXTRACT: note_on channel=2 note=53 velocity=0 time=0.005393510416666666
EXTRACT: note_on channel=1 note=29 velocity=91 time=0.058249912499999994
EXTRACT: note_on channel=2 note=41 velocity=119 time=0
EXTRACT: note_on channel=9 note=38 velocity=107 time=0
EXTRACT: note_on channel=9 note=36 velocity=116 time=0
EXTRACT: note_on channel=9 note=38 velocity=0 time=0.06795823125
EXTRACT: note_on channel=9 note=36 velocity=0 time=0.004314808333333333
EXTRACT: note_on channel=2 note=41 velocity=0 time=0.17151363125
EXTRACT: note_on channel=2 note=53 velocity=127 time=0.10139799583333332
EXTRACT: note_on channel=9 note=38 velocity=96 time=0
EXTRACT: note_on channel=9 note=38 velocity=0 time=0.06472212499999999
EXTRACT: note_on channel=3 note=60 velocity=107 time=0.10787020833333333
EXTRACT: note_on channel=3 note=60 velocity=0 time=0.06580082708333333
EXTRACT: note_on channel=2 note=53 velocity=0 time=0
EXTRACT: note_on channel=2 note=57 velocity=101 time=0.10679150624999999
EXTRACT: note_on channel=3 note=60 velocity=109 time=0
EXTRACT: note_on channel=9 note=38 velocity=103 time=0
EXTRACT: note_on channel=9 note=38 velocity=0 time=0.051777699999999996
EXTRACT: note_on channel=3 note=60 velocity=0 time=0.07550914583333333
EXTRACT: note_on channel=2 note=57 velocity=0 time=0.18985156666666664
EXTRACT: note_on channel=2 note=60 velocity=114 time=0.028046254166666666
EXTRACT: note_on channel=3 note=60 velocity=112 time=0
EXTRACT: note_on channel=9 note=39 velocity=91 time=0
EXTRACT: note_on channel=9 note=37 velocity=127 time=0
EXTRACT: note_on channel=9 note=39 velocity=0 time=0.044226785416666664
EXTRACT: note_on channel=9 note=37 velocity=0 time=0.021574041666666665
EXTRACT: note_on channel=3 note=60 velocity=0 time=0.06687952916666666
EXTRACT: note_on channel=3 note=62 velocity=116 time=0.03991197708333333
EXTRACT: note_on channel=2 note=60 velocity=0 time=0.0453054875
EXTRACT: note_on channel=2 note=57 velocity=103 time=0.12728684583333333
EXTRACT: note_on channel=9 note=38 velocity=105 time=0
EXTRACT: note_on channel=3 note=62 velocity=0 time=0.051777699999999996
EXTRACT: note_on channel=9 note=38 velocity=0 time=0.0032361062499999997
EXTRACT: note_on channel=2 note=57 velocity=0 time=0.22113392708333332
EXTRACT: note_on channel=2 note=53 velocity=124 time=0.06903693333333333
EXTRACT: note_on channel=3 note=64 velocity=103 time=0
EXTRACT: note_on channel=9 note=38 velocity=124 time=0
EXTRACT: note_on channel=9 note=38 velocity=0 time=0.048541593749999994
EXTRACT: note_on channel=3 note=64 velocity=0 time=0.06040731666666666
EXTRACT: note_on channel=2 note=53 velocity=0 time=0.10787020833333333
EXTRACT: note_on channel=1 note=29 velocity=0 time=0.03559716875
EXTRACT: note_on channel=5 note=53 velocity=0 time=0.04746289166666666
EXTRACT: note_on channel=5 note=65 velocity=0 time=0.005393510416666666
EXTRACT: note_on channel=5 note=72 velocity=0 time=0
EXTRACT: note_on channel=5 note=69 velocity=0 time=0.004314808333333333
EXTRACT: note_on channel=5 note=55 velocity=84 time=0.034518466666666664
EXTRACT: note_on channel=5 note=67 velocity=72 time=0
EXTRACT: note_on channel=5 note=71 velocity=93 time=0
EXTRACT: note_on channel=5 note=74 velocity=77 time=0
EXTRACT: note_on channel=15 note=57 velocity=0 time=0.0010787020833333332
EXTRACT: note_on channel=15 note=53 velocity=0 time=0
EXTRACT: note_on channel=15 note=60 velocity=0 time=0
EXTRACT: note_on channel=1 note=31 velocity=124 time=0
EXTRACT: note_on channel=2 note=43 velocity=114 time=0
EXTRACT: note_on channel=3 note=64 velocity=103 time=0
EXTRACT: note_on channel=9 note=38 velocity=114 time=0
EXTRACT: note_on channel=9 note=36 velocity=116 time=0
EXTRACT: note_on channel=15 note=55 velocity=1 time=0
EXTRACT: note_on channel=15 note=59 velocity=1 time=0
EXTRACT: note_on channel=15 note=62 velocity=1 time=0
EXTRACT: note_on channel=9 note=36 velocity=0 time=0.06795823125
EXTRACT: note_on channel=9 note=38 velocity=0 time=0.0021574041666666665
EXTRACT: note_on channel=3 note=64 velocity=0 time=0.12297203749999999
EXTRACT: note_on channel=2 note=43 velocity=0 time=0.12189333541666665
EXTRACT: note_on channel=2 note=55 velocity=105 time=0.03020365833333333
EXTRACT: note_on channel=3 note=62 velocity=114 time=0
EXTRACT: note_on channel=9 note=38 velocity=94 time=0
EXTRACT: note_on channel=9 note=38 velocity=0 time=0.06795823125
EXTRACT: note_on channel=2 note=55 velocity=0 time=0.24918018125
EXTRACT: note_on channel=2 note=59 velocity=94 time=0.028046254166666666
EXTRACT: note_on channel=9 note=38 velocity=103 time=0
EXTRACT: note_on channel=9 note=38 velocity=0 time=0.06687952916666666
EXTRACT: note_on channel=3 note=62 velocity=0 time=0.044226785416666664
EXTRACT: note_on channel=2 note=59 velocity=0 time=0.18661546041666666
EXTRACT: note_on channel=2 note=62 velocity=112 time=0.04746289166666666
EXTRACT: note_on channel=9 note=39 velocity=91 time=0
EXTRACT: note_on channel=9 note=37 velocity=127 time=0
EXTRACT: note_on channel=9 note=39 velocity=0 time=0.044226785416666664
EXTRACT: note_on channel=9 note=37 velocity=0 time=0.024810147916666664
EXTRACT: note_on channel=2 note=62 velocity=0 time=0.20387469374999997
EXTRACT: note_on channel=2 note=59 velocity=103 time=0.07227303958333332
EXTRACT: note_on channel=9 note=38 velocity=81 time=0
EXTRACT: note_on channel=9 note=38 velocity=0 time=0.05717121041666666
EXTRACT: note_on channel=2 note=59 velocity=0 time=0.18985156666666664
EXTRACT: note_on channel=2 note=55 velocity=107 time=0.09816188958333333
EXTRACT: note_on channel=9 note=38 velocity=85 time=0
EXTRACT: note_on channel=9 note=38 velocity=0 time=0.05717121041666666
EXTRACT: control_change channel=5 control=1 value=35 time=0.10787020833333333
EXTRACT: control_change channel=5 control=1 value=29 time=0.016180531249999998
EXTRACT: note_on channel=1 note=31 velocity=0 time=0.037754572916666666
EXTRACT: control_change channel=5 control=1 value=25 time=0.03991197708333333
EXTRACT: note_on channel=2 note=55 velocity=0 time=0.024810147916666664
EXTRACT: note_on channel=1 note=31 velocity=109 time=0.061486018749999996
EXTRACT: note_on channel=2 note=43 velocity=112 time=0
EXTRACT: note_on channel=9 note=38 velocity=107 time=0
EXTRACT: note_on channel=9 note=36 velocity=116 time=0
EXTRACT: control_change channel=5 control=1 value=24 time=0.0021574041666666665
EXTRACT: control_change channel=5 control=1 value=25 time=0.016180531249999998
EXTRACT: note_on channel=9 note=38 velocity=0 time=0.04962029583333333
EXTRACT: note_on channel=9 note=36 velocity=0 time=0.004314808333333333
EXTRACT: control_change channel=5 control=1 value=27 time=0.11218501666666666
EXTRACT: control_change channel=5 control=1 value=29 time=0.016180531249999998
EXTRACT: control_change channel=5 control=1 value=30 time=0.07443044374999999
EXTRACT: note_on channel=2 note=43 velocity=0 time=0.024810147916666664
EXTRACT: note_on channel=2 note=55 velocity=107 time=0.0453054875
EXTRACT: note_on channel=9 note=38 velocity=96 time=0
EXTRACT: control_change channel=5 control=1 value=28 time=0.03343976458333333
EXTRACT: note_on channel=9 note=38 velocity=0 time=0.03128236041666666
EXTRACT: control_change channel=5 control=1 value=26 time=0.04746289166666666
EXTRACT: control_change channel=5 control=1 value=21 time=0.08845357083333333
EXTRACT: control_change channel=5 control=1 value=13 time=0.015101829166666665
EXTRACT: control_change channel=5 control=1 value=7 time=0.07874525208333333
EXTRACT: note_on channel=2 note=55 velocity=0 time=0.0064722124999999995
EXTRACT: note_on channel=2 note=59 velocity=105 time=0.044226785416666664
EXTRACT: note_on channel=9 note=38 velocity=103 time=0
EXTRACT: control_change channel=5 control=1 value=0 time=0.03667587083333333
EXTRACT: note_on channel=9 note=38 velocity=0 time=0.015101829166666665
EXTRACT: note_on channel=2 note=59 velocity=0 time=0.22437003333333333
EXTRACT: note_on channel=2 note=62 velocity=114 time=0.06903693333333333
EXTRACT: note_on channel=3 note=64 velocity=109 time=0
EXTRACT: note_on channel=9 note=39 velocity=91 time=0
EXTRACT: note_on channel=9 note=37 velocity=127 time=0
EXTRACT: note_on channel=9 note=39 velocity=0 time=0.044226785416666664
EXTRACT: note_on channel=9 note=37 velocity=0 time=0.021574041666666665
EXTRACT: note_on channel=2 note=62 velocity=0 time=0.17367103541666665
EXTRACT: note_on channel=2 note=59 velocity=103 time=0.10571280416666666
EXTRACT: note_on channel=3 note=62 velocity=105 time=0
EXTRACT: note_on channel=9 note=38 velocity=105 time=0
EXTRACT: note_on channel=3 note=64 velocity=0 time=0.015101829166666665
EXTRACT: note_on channel=9 note=38 velocity=0 time=0.03991197708333333
EXTRACT: note_on channel=3 note=62 velocity=0 time=0.13483776041666665
EXTRACT: note_on channel=2 note=59 velocity=0 time=0.13699516458333333
EXTRACT: note_on channel=2 note=55 velocity=109 time=0.018337935416666666
EXTRACT: note_on channel=3 note=60 velocity=105 time=0
EXTRACT: note_on channel=9 note=38 velocity=124 time=0
EXTRACT: note_on channel=9 note=38 velocity=0 time=0.048541593749999994
EXTRACT: note_on channel=3 note=60 velocity=0 time=0.10571280416666666
EXTRACT: note_on channel=2 note=55 velocity=0 time=0.10679150624999999
EXTRACT: note_on channel=1 note=31 velocity=0 time=0.03343976458333333
EXTRACT: note_on channel=5 note=74 velocity=0 time=0.034518466666666664
EXTRACT: note_on channel=5 note=69 velocity=94 time=0.015101829166666665
EXTRACT: note_on channel=5 note=72 velocity=107 time=0
EXTRACT: note_on channel=5 note=76 velocity=96 time=0
EXTRACT: note_on channel=15 note=55 velocity=0 time=0.0010787020833333332
EXTRACT: note_on channel=15 note=59 velocity=0 time=0
EXTRACT: note_on channel=15 note=62 velocity=0 time=0
EXTRACT: note_on channel=1 note=33 velocity=127 time=0
EXTRACT: note_on channel=2 note=45 velocity=112 time=0
EXTRACT: note_on channel=3 note=60 velocity=112 time=0
EXTRACT: note_on channel=4 note=64 velocity=64 time=0
EXTRACT: note_on channel=4 note=57 velocity=45 time=0
EXTRACT: note_on channel=4 note=60 velocity=62 time=0
EXTRACT: note_on channel=9 note=38 velocity=114 time=0
EXTRACT: note_on channel=9 note=36 velocity=116 time=0
EXTRACT: note_on channel=15 note=60 velocity=1 time=0
EXTRACT: note_on channel=15 note=64 velocity=1 time=0
EXTRACT: note_on channel=15 note=57 velocity=1 time=0
EXTRACT: note_on channel=5 note=67 velocity=0 time=0.005393510416666666
EXTRACT: note_on channel=5 note=55 velocity=0 time=0.004314808333333333
EXTRACT: note_on channel=5 note=71 velocity=0 time=0.0010787020833333332
EXTRACT: note_on channel=9 note=36 velocity=0 time=0.05717121041666666
EXTRACT: note_on channel=9 note=38 velocity=0 time=0.0021574041666666665
EXTRACT: note_on channel=2 note=52 velocity=112 time=0.27506903125
EXTRACT: note_on channel=9 note=38 velocity=94 time=0
EXTRACT: note_on channel=2 note=45 velocity=0 time=0.042069381249999996
EXTRACT: note_on channel=9 note=38 velocity=0 time=0.025888849999999998
EXTRACT: note_on channel=2 note=52 velocity=0 time=0.26428201041666666
EXTRACT: note_on channel=2 note=57 velocity=98 time=0.012944424999999999
EXTRACT: note_on channel=9 note=38 velocity=103 time=0
EXTRACT: note_on channel=3 note=60 velocity=0 time=0.05501380625
EXTRACT: note_on channel=9 note=38 velocity=0 time=0.011865722916666665
EXTRACT: note_on channel=4 note=60 velocity=0 time=0.034518466666666664
EXTRACT: note_on channel=4 note=57 velocity=0 time=0.0010787020833333332
EXTRACT: note_on channel=4 note=64 velocity=0 time=0.008629616666666666
EXTRACT: note_on channel=2 note=60 velocity=114 time=0.2340783520833333
EXTRACT: note_on channel=3 note=60 velocity=114 time=0
EXTRACT: note_on channel=4 note=64 velocity=49 time=0
EXTRACT: note_on channel=4 note=57 velocity=40 time=0
EXTRACT: note_on channel=4 note=60 velocity=51 time=0
EXTRACT: note_on channel=9 note=39 velocity=91 time=0
EXTRACT: note_on channel=9 note=37 velocity=127 time=0
EXTRACT: note_on channel=2 note=57 velocity=0 time=0.03128236041666666
EXTRACT: note_on channel=9 note=39 velocity=0 time=0.012944424999999999
EXTRACT: note_on channel=9 note=37 velocity=0 time=0.024810147916666664
EXTRACT: note_on channel=2 note=60 velocity=0 time=0.22544873541666666
EXTRACT: note_on channel=2 note=57 velocity=98 time=0.05069899791666666
EXTRACT: note_on channel=9 note=38 velocity=81 time=0
EXTRACT: control_change channel=5 control=1 value=1 time=0.011865722916666665
EXTRACT: note_on channel=9 note=38 velocity=0 time=0.0453054875
EXTRACT: control_change channel=5 control=1 value=2 time=0.15317569583333332
EXTRACT: note_on channel=3 note=60 velocity=0 time=0.012944424999999999
EXTRACT: note_on channel=4 note=60 velocity=0 time=0.10571280416666666
EXTRACT: note_on channel=4 note=57 velocity=0 time=0.0010787020833333332
EXTRACT: note_on channel=4 note=64 velocity=0 time=0.004314808333333333
EXTRACT: note_on channel=2 note=52 velocity=107 time=0.010787020833333332
EXTRACT: note_on channel=9 note=38 velocity=85 time=0
EXTRACT: note_on channel=2 note=57 velocity=0 time=0.025888849999999998
EXTRACT: control_change channel=5 control=1 value=3 time=0.0064722124999999995
EXTRACT: control_change channel=5 control=1 value=4 time=0.016180531249999998
EXTRACT: note_on channel=9 note=38 velocity=0 time=0.008629616666666666
EXTRACT: control_change channel=5 control=1 value=5 time=0.06903693333333333
EXTRACT: control_change channel=5 control=1 value=6 time=0.10463410208333332
EXTRACT: note_on channel=1 note=33 velocity=0 time=0.048541593749999994
EXTRACT: note_on channel=2 note=52 velocity=0 time=0.034518466666666664
EXTRACT: note_on channel=1 note=33 velocity=107 time=0.03128236041666666
EXTRACT: note_on channel=2 note=45 velocity=109 time=0
EXTRACT: note_on channel=3 note=60 velocity=114 time=0
EXTRACT: note_on channel=4 note=57 velocity=35 time=0
EXTRACT: note_on channel=4 note=60 velocity=48 time=0
EXTRACT: note_on channel=4 note=64 velocity=28 time=0
EXTRACT: note_on channel=9 note=38 velocity=107 time=0
EXTRACT: note_on channel=9 note=36 velocity=116 time=0
EXTRACT: control_change channel=5 control=1 value=7 time=0.051777699999999996
EXTRACT: note_on channel=9 note=38 velocity=0 time=0.016180531249999998
EXTRACT: note_on channel=9 note=36 velocity=0 time=0.004314808333333333
EXTRACT: control_change channel=5 control=1 value=8 time=0.07011563541666666
EXTRACT: note_on channel=3 note=60 velocity=0 time=0.06687952916666666
EXTRACT: control_change channel=5 control=1 value=9 time=0.03667587083333333
EXTRACT: note_on channel=4 note=60 velocity=0 time=0.058249912499999994
EXTRACT: note_on channel=4 note=57 velocity=0 time=0.008629616666666666
EXTRACT: note_on channel=4 note=64 velocity=0 time=0.007550914583333333
EXTRACT: note_on channel=2 note=52 velocity=116 time=0.024810147916666664
EXTRACT: note_on channel=9 note=38 velocity=96 time=0
EXTRACT: note_on channel=2 note=45 velocity=0 time=0.0194166375
EXTRACT: note_on channel=9 note=38 velocity=0 time=0.0453054875
EXTRACT: control_change channel=5 control=1 value=10 time=0.018337935416666666
EXTRACT: control_change channel=5 control=1 value=11 time=0.18230065208333332
EXTRACT: note_on channel=2 note=52 velocity=0 time=0.04638418958333333
EXTRACT: note_on channel=2 note=57 velocity=96 time=0.03343976458333333
EXTRACT: note_on channel=9 note=38 velocity=103 time=0
EXTRACT: note_on channel=9 note=38 velocity=0 time=0.051777699999999996
EXTRACT: control_change channel=5 control=1 value=12 time=0.034518466666666664
EXTRACT: control_change channel=5 control=1 value=13 time=0.09384708124999999
EXTRACT: control_change channel=5 control=1 value=14 time=0.10463410208333332
EXTRACT: note_on channel=2 note=60 velocity=116 time=0.06040731666666666
EXTRACT: note_on channel=3 note=64 velocity=109 time=0
EXTRACT: note_on channel=9 note=39 velocity=91 time=0
EXTRACT: note_on channel=9 note=37 velocity=127 time=0
EXTRACT: note_on channel=2 note=57 velocity=0 time=0.034518466666666664
EXTRACT: note_on channel=9 note=39 velocity=0 time=0.00970831875
EXTRACT: note_on channel=9 note=37 velocity=0 time=0.021574041666666665
EXTRACT: control_change channel=5 control=1 value=15 time=0.04099067916666666
EXTRACT: note_on channel=3 note=64 velocity=0 time=0.061486018749999996
EXTRACT: control_change channel=5 control=1 value=16 time=0.032361062499999996
EXTRACT: control_change channel=5 control=1 value=17 time=0.08629616666666666
EXTRACT: control_change channel=5 control=1 value=18 time=0.017259233333333332
EXTRACT: note_on channel=2 note=60 velocity=0 time=0.0010787020833333332
EXTRACT: note_on channel=2 note=57 velocity=109 time=0.03991197708333333
EXTRACT: note_on channel=3 note=62 velocity=105 time=0
EXTRACT: note_on channel=9 note=38 velocity=105 time=0
EXTRACT: note_on channel=9 note=38 velocity=0 time=0.05501380625
EXTRACT: control_change channel=5 control=1 value=19 time=0.0711943375
EXTRACT: note_on channel=3 note=62 velocity=0 time=0.004314808333333333
EXTRACT: control_change channel=5 control=1 value=21 time=0.010787020833333332
EXTRACT: control_change channel=5 control=1 value=22 time=0.16719882291666666
EXTRACT: note_on channel=2 note=57 velocity=0 time=0.008629616666666666
EXTRACT: note_on channel=2 note=52 velocity=114 time=0.028046254166666666
EXTRACT: note_on channel=3 note=60 velocity=107 time=0
EXTRACT: note_on channel=9 note=38 velocity=124 time=0
EXTRACT: note_on channel=9 note=38 velocity=0 time=0.048541593749999994
EXTRACT: control_change channel=5 control=1 value=21 time=0.007550914583333333
EXTRACT: note_on channel=3 note=60 velocity=0 time=0.07550914583333333
EXTRACT: control_change channel=5 control=1 value=20 time=0.012944424999999999
EXTRACT: control_change channel=5 control=1 value=15 time=0.014023127083333333
EXTRACT: note_on channel=1 note=33 velocity=0 time=0.07443044374999999
EXTRACT: control_change channel=5 control=1 value=11 time=0.0010787020833333332
EXTRACT: note_on channel=5 note=76 velocity=0 time=0.05932861458333333
EXTRACT: note_on channel=5 note=69 velocity=0 time=0.0021574041666666665
EXTRACT: note_on channel=5 note=72 velocity=0 time=0.0010787020833333332
EXTRACT: control_change channel=5 control=1 value=0 time=0.029124956249999997
EXTRACT: note_on channel=2 note=52 velocity=0 time=0.005393510416666666
EXTRACT: note_on channel=15 note=64 velocity=0 time=0.014023127083333333
EXTRACT: note_on channel=15 note=57 velocity=0 time=0
EXTRACT: note_on channel=15 note=60 velocity=0 time=0
