EXTRACT: control_change channel=0 control=121 value=0 time=0
EXTRACT: program_change channel=0 program=54 time=0
EXTRACT: control_change channel=0 control=7 value=100 time=0
EXTRACT: control_change channel=0 control=10 value=64 time=0
EXTRACT: control_change channel=0 control=91 value=0 time=0
EXTRACT: control_change channel=0 control=93 value=0 time=0
EXTRACT: control_change channel=1 control=121 value=0 time=0
EXTRACT: program_change channel=1 program=0 time=0
EXTRACT: control_change channel=1 control=7 value=100 time=0
EXTRACT: control_change channel=1 control=10 value=64 time=0
EXTRACT: control_change channel=1 control=91 value=0 time=0
EXTRACT: control_change channel=1 control=93 value=0 time=0
EXTRACT: note_on channel=1 note=64 velocity=33 time=0
EXTRACT: note_on channel=1 note=67 velocity=33 time=0
EXTRACT: note_on channel=1 note=71 velocity=33 time=0
EXTRACT: note_on channel=1 note=52 velocity=33 time=0
EXTRACT: note_on channel=1 note=59 velocity=33 time=0
EXTRACT: control_change channel=1 control=64 value=127 time=0.0027777791666666668
EXTRACT: note_on channel=1 note=64 velocity=0 time=1.89583428125
EXTRACT: note_on channel=1 note=67 velocity=0 time=0
EXTRACT: note_on channel=1 note=71 velocity=0 time=0
EXTRACT: note_on channel=1 note=52 velocity=0 time=0
EXTRACT: note_on channel=1 note=59 velocity=0 time=0
EXTRACT: note_on channel=1 note=62 velocity=33 time=0.10138893958333334
EXTRACT: note_on channel=1 note=67 velocity=33 time=0
EXTRACT: note_on channel=1 note=71 velocity=33 time=0
EXTRACT: note_on channel=1 note=50 velocity=33 time=0
EXTRACT: note_on channel=1 note=59 velocity=33 time=0
EXTRACT: control_change channel=1 control=64 value=0 time=0.0013888895833333334
EXTRACT: control_change channel=1 control=64 value=127 time=0.0013888895833333334
EXTRACT: note_on channel=1 note=62 velocity=0 time=1.89583428125
EXTRACT: note_on channel=1 note=67 velocity=0 time=0
EXTRACT: note_on channel=1 note=71 velocity=0 time=0
EXTRACT: note_on channel=1 note=50 velocity=0 time=0
EXTRACT: note_on channel=1 note=59 velocity=0 time=0
EXTRACT: note_on channel=1 note=60 velocity=33 time=0.10138893958333334
EXTRACT: note_on channel=1 note=64 velocity=33 time=0
EXTRACT: note_on channel=1 note=67 velocity=33 time=0
EXTRACT: note_on channel=1 note=48 velocity=33 time=0
EXTRACT: note_on channel=1 note=55 velocity=33 time=0
EXTRACT: control_change channel=1 control=64 value=0 time=0.0013888895833333334
EXTRACT: control_change channel=1 control=64 value=127 time=0.0013888895833333334
EXTRACT: note_on channel=1 note=60 velocity=0 time=1.89583428125
EXTRACT: note_on channel=1 note=64 velocity=0 time=0
EXTRACT: note_on channel=1 note=67 velocity=0 time=0
EXTRACT: note_on channel=1 note=48 velocity=0 time=0
EXTRACT: note_on channel=1 note=55 velocity=0 time=0
EXTRACT: note_on channel=1 note=55 velocity=33 time=0.10138893958333334
EXTRACT: note_on channel=1 note=59 velocity=33 time=0
EXTRACT: note_on channel=1 note=62 velocity=33 time=0
EXTRACT: note_on channel=1 note=43 velocity=33 time=0
EXTRACT: note_on channel=1 note=50 velocity=33 time=0
EXTRACT: control_change channel=1 control=64 value=0 time=0.0013888895833333334
EXTRACT: control_change channel=1 control=64 value=127 time=0.0013888895833333334
EXTRACT: note_on channel=1 note=50 velocity=0 time=0.94583380625
EXTRACT: note_on channel=1 note=50 velocity=33 time=0.051388914583333334
EXTRACT: note_on channel=1 note=55 velocity=0 time=0.8986115604166667
EXTRACT: note_on channel=1 note=59 velocity=0 time=0
EXTRACT: note_on channel=1 note=62 velocity=0 time=0
EXTRACT: note_on channel=1 note=43 velocity=0 time=0
EXTRACT: note_on channel=1 note=50 velocity=0 time=0.050000025000000003
EXTRACT: note_on channel=0 note=59 velocity=80 time=0.051388914583333334
EXTRACT: note_on channel=1 note=64 velocity=33 time=0
EXTRACT: note_on channel=1 note=67 velocity=33 time=0
EXTRACT: note_on channel=1 note=71 velocity=33 time=0
EXTRACT: note_on channel=1 note=52 velocity=33 time=0
EXTRACT: note_on channel=1 note=59 velocity=33 time=0
EXTRACT: control_change channel=1 control=64 value=0 time=0.0013888895833333334
EXTRACT: control_change channel=1 control=64 value=127 time=0.0013888895833333334
EXTRACT: note_on channel=0 note=59 velocity=0 time=0.32916683125
EXTRACT: note_on channel=0 note=62 velocity=80 time=0.0013888895833333334
EXTRACT: note_on channel=0 note=62 velocity=0 time=0.3319446104166667
EXTRACT: note_on channel=0 note=64 velocity=80 time=0.0013888895833333334
EXTRACT: note_on channel=0 note=64 velocity=0 time=0.3319446104166667
EXTRACT: note_on channel=0 note=59 velocity=80 time=0.0013888895833333334
EXTRACT: note_on channel=0 note=59 velocity=0 time=0.6652781104166667
EXTRACT: note_on channel=0 note=55 velocity=80 time=0.0013888895833333334
EXTRACT: note_on channel=1 note=64 velocity=0 time=0.23194456041666667
EXTRACT: note_on channel=1 note=67 velocity=0 time=0
EXTRACT: note_on channel=1 note=71 velocity=0 time=0
EXTRACT: note_on channel=1 note=52 velocity=0 time=0
EXTRACT: note_on channel=1 note=59 velocity=0 time=0
EXTRACT: note_on channel=0 note=55 velocity=0 time=0.10000005000000001
EXTRACT: note_on channel=0 note=59 velocity=80 time=0.0013888895833333334
EXTRACT: note_on channel=1 note=62 velocity=33 time=0
EXTRACT: note_on channel=1 note=67 velocity=33 time=0
EXTRACT: note_on channel=1 note=71 velocity=33 time=0
EXTRACT: note_on channel=1 note=50 velocity=33 time=0
EXTRACT: note_on channel=1 note=59 velocity=33 time=0
EXTRACT: control_change channel=1 control=64 value=0 time=0.0013888895833333334
EXTRACT: control_change channel=1 control=64 value=127 time=0.0013888895833333334
EXTRACT: note_on channel=0 note=59 velocity=0 time=0.32916683125
EXTRACT: note_on channel=0 note=62 velocity=80 time=0.0013888895833333334
EXTRACT: note_on channel=0 note=62 velocity=0 time=0.3319446104166667
EXTRACT: note_on channel=0 note=64 velocity=80 time=0.0013888895833333334
EXTRACT: note_on channel=0 note=64 velocity=0 time=0.16527786041666667
EXTRACT: note_on channel=0 note=59 velocity=80 time=0.0013888895833333334
EXTRACT: note_on channel=0 note=59 velocity=0 time=0.8319448604166667
EXTRACT: note_on channel=1 note=62 velocity=0 time=0.23333345
EXTRACT: note_on channel=1 note=67 velocity=0 time=0
EXTRACT: note_on channel=1 note=71 velocity=0 time=0
EXTRACT: note_on channel=1 note=50 velocity=0 time=0
EXTRACT: note_on channel=1 note=59 velocity=0 time=0
EXTRACT: note_on channel=0 note=59 velocity=80 time=0.10138893958333334
EXTRACT: note_on channel=1 note=60 velocity=33 time=0
EXTRACT: note_on channel=1 note=64 velocity=33 time=0
EXTRACT: note_on channel=1 note=67 velocity=33 time=0
EXTRACT: note_on channel=1 note=48 velocity=33 time=0
EXTRACT: note_on channel=1 note=55 velocity=33 time=0
EXTRACT: control_change channel=1 control=64 value=0 time=0.0013888895833333334
EXTRACT: control_change channel=1 control=64 value=127 time=0.0013888895833333334
EXTRACT: note_on channel=0 note=59 velocity=0 time=0.32916683125
EXTRACT: note_on channel=0 note=62 velocity=80 time=0.0013888895833333334
EXTRACT: note_on channel=0 note=62 velocity=0 time=0.3319446104166667
EXTRACT: note_on channel=0 note=64 velocity=80 time=0.0013888895833333334
EXTRACT: note_on channel=0 note=64 velocity=0 time=0.16527786041666667
EXTRACT: note_on channel=0 note=59 velocity=80 time=0.0013888895833333334
EXTRACT: note_on channel=0 note=59 velocity=0 time=0.4986113604166667
EXTRACT: note_on channel=0 note=57 velocity=80 time=0.0013888895833333334
EXTRACT: note_on channel=0 note=57 velocity=0 time=0.3319446104166667
EXTRACT: note_on channel=0 note=55 velocity=80 time=0.0013888895833333334
EXTRACT: note_on channel=1 note=60 velocity=0 time=0.23194456041666667
EXTRACT: note_on channel=1 note=64 velocity=0 time=0
EXTRACT: note_on channel=1 note=67 velocity=0 time=0
EXTRACT: note_on channel=1 note=48 velocity=0 time=0
EXTRACT: note_on channel=1 note=55 velocity=0 time=0
EXTRACT: note_on channel=0 note=55 velocity=0 time=0.10000005000000001
EXTRACT: note_on channel=0 note=59 velocity=80 time=0.0013888895833333334
EXTRACT: note_on channel=1 note=55 velocity=33 time=0
EXTRACT: note_on channel=1 note=59 velocity=33 time=0
EXTRACT: note_on channel=1 note=62 velocity=33 time=0
EXTRACT: note_on channel=1 note=43 velocity=33 time=0
EXTRACT: note_on channel=1 note=50 velocity=33 time=0
EXTRACT: control_change channel=1 control=64 value=0 time=0.0013888895833333334
EXTRACT: control_change channel=1 control=64 value=127 time=0.0013888895833333334
EXTRACT: note_on channel=0 note=59 velocity=0 time=0.32916683125
EXTRACT: note_on channel=0 note=62 velocity=80 time=0.0013888895833333334
EXTRACT: note_on channel=0 note=62 velocity=0 time=0.16527786041666667
EXTRACT: note_on channel=0 note=64 velocity=80 time=0.0013888895833333334
EXTRACT: note_on channel=0 note=64 velocity=0 time=0.4986113604166667
EXTRACT: note_on channel=0 note=59 velocity=80 time=0.0013888895833333334
EXTRACT: note_on channel=0 note=59 velocity=0 time=0.6652781104166667
EXTRACT: note_on channel=1 note=55 velocity=0 time=0.23333345
EXTRACT: note_on channel=1 note=59 velocity=0 time=0
EXTRACT: note_on channel=1 note=62 velocity=0 time=0
EXTRACT: note_on channel=1 note=43 velocity=0 time=0
EXTRACT: note_on channel=1 note=50 velocity=0 time=0
EXTRACT: note_on channel=0 note=59 velocity=80 time=0.10138893958333334
EXTRACT: note_on channel=1 note=64 velocity=33 time=0
EXTRACT: note_on channel=1 note=67 velocity=33 time=0
EXTRACT: note_on channel=1 note=71 velocity=33 time=0
EXTRACT: note_on channel=1 note=52 velocity=33 time=0
EXTRACT: note_on channel=1 note=59 velocity=33 time=0
EXTRACT: control_change channel=1 control=64 value=0 time=0.0013888895833333334
EXTRACT: control_change channel=1 control=64 value=127 time=0.0013888895833333334
EXTRACT: note_on channel=0 note=59 velocity=0 time=0.32916683125
EXTRACT: note_on channel=0 note=62 velocity=80 time=0.0013888895833333334
EXTRACT: note_on channel=0 note=62 velocity=0 time=0.3319446104166667
EXTRACT: note_on channel=0 note=64 velocity=80 time=0.0013888895833333334
EXTRACT: note_on channel=0 note=64 velocity=0 time=0.16527786041666667
EXTRACT: note_on channel=0 note=67 velocity=80 time=0.0013888895833333334
EXTRACT: note_on channel=0 note=67 velocity=0 time=0.4986113604166667
EXTRACT: note_on channel=0 note=66 velocity=80 time=0.0013888895833333334
EXTRACT: note_on channel=0 note=66 velocity=0 time=0.3319446104166667
EXTRACT: note_on channel=0 note=64 velocity=80 time=0.0013888895833333334
EXTRACT: note_on channel=0 note=64 velocity=0 time=0.16527786041666667
EXTRACT: note_on channel=0 note=62 velocity=80 time=0.0013888895833333334
EXTRACT: note_on channel=1 note=64 velocity=0 time=0.06527781041666667
EXTRACT: note_on channel=1 note=67 velocity=0 time=0
EXTRACT: note_on channel=1 note=71 velocity=0 time=0
EXTRACT: note_on channel=1 note=52 velocity=0 time=0
EXTRACT: note_on channel=1 note=59 velocity=0 time=0
EXTRACT: note_on channel=1 note=62 velocity=33 time=0.10138893958333334
EXTRACT: note_on channel=1 note=67 velocity=33 time=0
EXTRACT: note_on channel=1 note=71 velocity=33 time=0
EXTRACT: note_on channel=1 note=50 velocity=33 time=0
EXTRACT: note_on channel=1 note=59 velocity=33 time=0
EXTRACT: control_change channel=1 control=64 value=0 time=0.0013888895833333334
EXTRACT: control_change channel=1 control=64 value=127 time=0.0013888895833333334
EXTRACT: note_on channel=0 note=62 velocity=0 time=0.32916683125
EXTRACT: note_on channel=0 note=59 velocity=80 time=0.0013888895833333334
EXTRACT: note_on channel=0 note=59 velocity=0 time=0.3319446104166667
EXTRACT: note_on channel=0 note=60 velocity=80 time=0.0013888895833333334
EXTRACT: note_on channel=0 note=60 velocity=0 time=0.16527786041666667
EXTRACT: note_on channel=0 note=62 velocity=80 time=0.0013888895833333334
EXTRACT: note_on channel=0 note=62 velocity=0 time=0.8319448604166667
EXTRACT: note_on channel=0 note=55 velocity=80 time=0.16805563958333333
EXTRACT: note_on channel=1 note=62 velocity=0 time=0.06527781041666667
EXTRACT: note_on channel=1 note=67 velocity=0 time=0
EXTRACT: note_on channel=1 note=71 velocity=0 time=0
EXTRACT: note_on channel=1 note=50 velocity=0 time=0
EXTRACT: note_on channel=1 note=59 velocity=0 time=0
EXTRACT: note_on channel=0 note=55 velocity=0 time=0.10000005000000001
EXTRACT: note_on channel=0 note=64 velocity=80 time=0.0013888895833333334
EXTRACT: note_on channel=1 note=60 velocity=33 time=0
EXTRACT: note_on channel=1 note=64 velocity=33 time=0
EXTRACT: note_on channel=1 note=67 velocity=33 time=0
EXTRACT: note_on channel=1 note=48 velocity=33 time=0
EXTRACT: note_on channel=1 note=55 velocity=33 time=0
EXTRACT: control_change channel=1 control=64 value=0 time=0.0013888895833333334
EXTRACT: control_change channel=1 control=64 value=127 time=0.0013888895833333334
EXTRACT: note_on channel=0 note=64 velocity=0 time=0.32916683125
EXTRACT: note_on channel=0 note=62 velocity=80 time=0.0013888895833333334
EXTRACT: note_on channel=0 note=62 velocity=0 time=0.3319446104166667
EXTRACT: note_on channel=0 note=59 velocity=80 time=0.0013888895833333334
EXTRACT: note_on channel=0 note=59 velocity=0 time=0.16527786041666667
EXTRACT: note_on channel=0 note=62 velocity=80 time=0.0013888895833333334
EXTRACT: note_on channel=0 note=62 velocity=0 time=0.4986113604166667
EXTRACT: note_on channel=0 note=59 velocity=80 time=0.0013888895833333334
EXTRACT: note_on channel=0 note=59 velocity=0 time=0.3319446104166667
EXTRACT: note_on channel=0 note=57 velocity=80 time=0.0013888895833333334
EXTRACT: note_on channel=0 note=57 velocity=0 time=0.16527786041666667
EXTRACT: note_on channel=0 note=59 velocity=80 time=0.0013888895833333334
EXTRACT: note_on channel=1 note=60 velocity=0 time=0.06527781041666667
EXTRACT: note_on channel=1 note=64 velocity=0 time=0
EXTRACT: note_on channel=1 note=67 velocity=0 time=0
EXTRACT: note_on channel=1 note=48 velocity=0 time=0
EXTRACT: note_on channel=1 note=55 velocity=0 time=0
EXTRACT: note_on channel=1 note=55 velocity=33 time=0.10138893958333334
EXTRACT: note_on channel=1 note=59 velocity=33 time=0
EXTRACT: note_on channel=1 note=62 velocity=33 time=0
EXTRACT: note_on channel=1 note=43 velocity=33 time=0
EXTRACT: note_on channel=1 note=50 velocity=33 time=0
EXTRACT: control_change channel=1 control=64 value=0 time=0.0013888895833333334
EXTRACT: control_change channel=1 control=64 value=127 time=0.0013888895833333334
EXTRACT: note_on channel=0 note=59 velocity=0 time=0.32916683125
EXTRACT: note_on channel=0 note=57 velocity=80 time=0.0013888895833333334
EXTRACT: note_on channel=0 note=57 velocity=0 time=0.16527786041666667
EXTRACT: note_on channel=0 note=59 velocity=80 time=0.0013888895833333334
EXTRACT: note_on channel=0 note=59 velocity=0 time=0.4986113604166667
EXTRACT: note_on channel=0 note=55 velocity=80 time=0.0013888895833333334
EXTRACT: note_on channel=0 note=55 velocity=0 time=0.6652781104166667
EXTRACT: note_on channel=1 note=55 velocity=0 time=0.23333345
EXTRACT: note_on channel=1 note=59 velocity=0 time=0
EXTRACT: note_on channel=1 note=62 velocity=0 time=0
EXTRACT: note_on channel=1 note=43 velocity=0 time=0
EXTRACT: note_on channel=1 note=50 velocity=0 time=0
EXTRACT: note_on channel=0 note=59 velocity=80 time=0.10138893958333334
EXTRACT: note_on channel=1 note=64 velocity=33 time=0
EXTRACT: note_on channel=1 note=67 velocity=33 time=0
EXTRACT: note_on channel=1 note=71 velocity=33 time=0
EXTRACT: note_on channel=1 note=52 velocity=33 time=0
EXTRACT: note_on channel=1 note=59 velocity=33 time=0
EXTRACT: control_change channel=1 control=64 value=0 time=0.0013888895833333334
EXTRACT: control_change channel=1 control=64 value=127 time=0.0013888895833333334
EXTRACT: note_on channel=0 note=59 velocity=0 time=0.32916683125
EXTRACT: note_on channel=0 note=62 velocity=80 time=0.0013888895833333334
EXTRACT: note_on channel=0 note=62 velocity=0 time=0.3319446104166667
EXTRACT: note_on channel=0 note=64 velocity=80 time=0.0013888895833333334
EXTRACT: note_on channel=0 note=64 velocity=0 time=0.3319446104166667
EXTRACT: note_on channel=0 note=67 velocity=80 time=0.0013888895833333334
EXTRACT: note_on channel=0 note=67 velocity=0 time=0.3319446104166667
EXTRACT: note_on channel=0 note=66 velocity=80 time=0.0013888895833333334
EXTRACT: note_on channel=0 note=66 velocity=0 time=0.16527786041666667
EXTRACT: note_on channel=0 note=64 velocity=80 time=0.0013888895833333334
EXTRACT: note_on channel=1 note=64 velocity=0 time=0.3986113104166667
EXTRACT: note_on channel=1 note=67 velocity=0 time=0
EXTRACT: note_on channel=1 note=71 velocity=0 time=0
EXTRACT: note_on channel=1 note=52 velocity=0 time=0
EXTRACT: note_on channel=1 note=59 velocity=0 time=0
EXTRACT: note_on channel=1 note=62 velocity=33 time=0.10138893958333334
EXTRACT: note_on channel=1 note=67 velocity=33 time=0
EXTRACT: note_on channel=1 note=71 velocity=33 time=0
EXTRACT: note_on channel=1 note=50 velocity=33 time=0
EXTRACT: note_on channel=1 note=59 velocity=33 time=0
EXTRACT: control_change channel=1 control=64 value=0 time=0.0013888895833333334
EXTRACT: control_change channel=1 control=64 value=127 time=0.0013888895833333334
EXTRACT: note_on channel=0 note=64 velocity=0 time=0.32916683125
EXTRACT: note_on channel=0 note=62 velocity=80 time=0.0013888895833333334
EXTRACT: note_on channel=0 note=62 velocity=0 time=0.3319446104166667
EXTRACT: note_on channel=0 note=59 velocity=80 time=0.0013888895833333334
EXTRACT: note_on channel=0 note=59 velocity=0 time=0.3319446104166667
EXTRACT: note_on channel=0 note=62 velocity=80 time=0.0013888895833333334
EXTRACT: note_on channel=1 note=62 velocity=0 time=0.8986115604166667
EXTRACT: note_on channel=1 note=67 velocity=0 time=0
EXTRACT: note_on channel=1 note=71 velocity=0 time=0
EXTRACT: note_on channel=1 note=50 velocity=0 time=0
EXTRACT: note_on channel=1 note=59 velocity=0 time=0
EXTRACT: note_on channel=0 note=62 velocity=0 time=0.10000005000000001
EXTRACT: note_on channel=0 note=62 velocity=80 time=0.0013888895833333334
EXTRACT: note_on channel=1 note=60 velocity=33 time=0
EXTRACT: note_on channel=1 note=64 velocity=33 time=0
EXTRACT: note_on channel=1 note=67 velocity=33 time=0
EXTRACT: note_on channel=1 note=48 velocity=33 time=0
EXTRACT: note_on channel=1 note=55 velocity=33 time=0
EXTRACT: control_change channel=1 control=64 value=0 time=0.0013888895833333334
EXTRACT: control_change channel=1 control=64 value=127 time=0.0013888895833333334
EXTRACT: note_on channel=0 note=62 velocity=0 time=0.32916683125
EXTRACT: note_on channel=0 note=59 velocity=80 time=0.0013888895833333334
EXTRACT: note_on channel=0 note=59 velocity=0 time=0.3319446104166667
EXTRACT: note_on channel=0 note=57 velocity=80 time=0.0013888895833333334
EXTRACT: note_on channel=0 note=57 velocity=0 time=0.3319446104166667
EXTRACT: note_on channel=0 note=59 velocity=80 time=0.0013888895833333334
EXTRACT: note_on channel=0 note=59 velocity=0 time=0.4986113604166667
EXTRACT: note_on channel=0 note=57 velocity=80 time=0.0013888895833333334
EXTRACT: note_on channel=1 note=60 velocity=0 time=0.3986113104166667
EXTRACT: note_on channel=1 note=64 velocity=0 time=0
EXTRACT: note_on channel=1 note=67 velocity=0 time=0
EXTRACT: note_on channel=1 note=48 velocity=0 time=0
EXTRACT: note_on channel=1 note=55 velocity=0 time=0
EXTRACT: note_on channel=0 note=57 velocity=0 time=0.10000005000000001
EXTRACT: note_on channel=0 note=59 velocity=80 time=0.0013888895833333334
EXTRACT: note_on channel=1 note=55 velocity=33 time=0
EXTRACT: note_on channel=1 note=59 velocity=33 time=0
EXTRACT: note_on channel=1 note=62 velocity=33 time=0
EXTRACT: note_on channel=1 note=43 velocity=33 time=0
EXTRACT: note_on channel=1 note=50 velocity=33 time=0
EXTRACT: control_change channel=1 control=64 value=0 time=0.0013888895833333334
EXTRACT: control_change channel=1 control=64 value=127 time=0.0013888895833333334
EXTRACT: note_on channel=0 note=59 velocity=0 time=0.32916683125
EXTRACT: note_on channel=0 note=55 velocity=80 time=0.0013888895833333334
EXTRACT: note_on channel=0 note=55 velocity=0 time=0.16527786041666667
EXTRACT: note_on channel=0 note=57 velocity=80 time=0.0013888895833333334
EXTRACT: note_on channel=0 note=57 velocity=0 time=0.4986113604166667
EXTRACT: note_on channel=0 note=55 velocity=80 time=0.0013888895833333334
EXTRACT: note_on channel=0 note=55 velocity=0 time=0.6652781104166667
EXTRACT: note_on channel=1 note=55 velocity=0 time=0.23333345
EXTRACT: note_on channel=1 note=59 velocity=0 time=0
EXTRACT: note_on channel=1 note=62 velocity=0 time=0
EXTRACT: note_on channel=1 note=43 velocity=0 time=0
EXTRACT: note_on channel=1 note=50 velocity=0 time=0
EXTRACT: note_on channel=0 note=59 velocity=80 time=0.10138893958333334
EXTRACT: note_on channel=1 note=64 velocity=33 time=0
EXTRACT: note_on channel=1 note=67 velocity=33 time=0
EXTRACT: note_on channel=1 note=71 velocity=33 time=0
EXTRACT: note_on channel=1 note=52 velocity=33 time=0
EXTRACT: note_on channel=1 note=59 velocity=33 time=0
EXTRACT: control_change channel=1 control=64 value=0 time=0.0013888895833333334
EXTRACT: control_change channel=1 control=64 value=127 time=0.0013888895833333334
EXTRACT: note_on channel=0 note=59 velocity=0 time=0.32916683125
EXTRACT: note_on channel=0 note=62 velocity=80 time=0.0013888895833333334
EXTRACT: note_on channel=0 note=62 velocity=0 time=0.3319446104166667
EXTRACT: note_on channel=0 note=64 velocity=80 time=0.0013888895833333334
EXTRACT: note_on channel=0 note=64 velocity=0 time=0.3319446104166667
EXTRACT: note_on channel=0 note=59 velocity=80 time=0.0013888895833333334
EXTRACT: note_on channel=0 note=59 velocity=0 time=0.3319446104166667
EXTRACT: note_on channel=0 note=57 velocity=80 time=0.0013888895833333334
EXTRACT: note_on channel=0 note=57 velocity=0 time=0.3319446104166667
EXTRACT: note_on channel=0 note=55 velocity=80 time=0.0013888895833333334
EXTRACT: note_on channel=1 note=64 velocity=0 time=0.23194456041666667
EXTRACT: note_on channel=1 note=67 velocity=0 time=0
EXTRACT: note_on channel=1 note=71 velocity=0 time=0
EXTRACT: note_on channel=1 note=52 velocity=0 time=0
EXTRACT: note_on channel=1 note=59 velocity=0 time=0
EXTRACT: note_on channel=0 note=55 velocity=0 time=0.10000005000000001
EXTRACT: note_on channel=0 note=59 velocity=80 time=0.0013888895833333334
EXTRACT: note_on channel=1 note=62 velocity=33 time=0
EXTRACT: note_on channel=1 note=67 velocity=33 time=0
EXTRACT: note_on channel=1 note=71 velocity=33 time=0
EXTRACT: note_on channel=1 note=50 velocity=33 time=0
EXTRACT: note_on channel=1 note=59 velocity=33 time=0
EXTRACT: control_change channel=1 control=64 value=0 time=0.0013888895833333334
EXTRACT: control_change channel=1 control=64 value=127 time=0.0013888895833333334
EXTRACT: note_on channel=0 note=59 velocity=0 time=0.49583358125000004
EXTRACT: note_on channel=0 note=60 velocity=80 time=0.0013888895833333334
EXTRACT: note_on channel=0 note=60 velocity=0 time=0.4986113604166667
EXTRACT: note_on channel=0 note=62 velocity=80 time=0.0013888895833333334
EXTRACT: note_on channel=0 note=62 velocity=0 time=0.6652781104166667
EXTRACT: note_on channel=1 note=62 velocity=0 time=0.23333345
EXTRACT: note_on channel=1 note=67 velocity=0 time=0
EXTRACT: note_on channel=1 note=71 velocity=0 time=0
EXTRACT: note_on channel=1 note=50 velocity=0 time=0
EXTRACT: note_on channel=1 note=59 velocity=0 time=0
EXTRACT: note_on channel=0 note=64 velocity=80 time=0.10138893958333334
EXTRACT: note_on channel=1 note=60 velocity=33 time=0
EXTRACT: note_on channel=1 note=64 velocity=33 time=0
EXTRACT: note_on channel=1 note=67 velocity=33 time=0
EXTRACT: note_on channel=1 note=48 velocity=33 time=0
EXTRACT: note_on channel=1 note=55 velocity=33 time=0
EXTRACT: control_change channel=1 control=64 value=0 time=0.0013888895833333334
EXTRACT: control_change channel=1 control=64 value=127 time=0.0013888895833333334
EXTRACT: note_on channel=0 note=64 velocity=0 time=0.32916683125
EXTRACT: note_on channel=0 note=67 velocity=80 time=0.0013888895833333334
EXTRACT: note_on channel=0 note=67 velocity=0 time=0.3319446104166667
EXTRACT: note_on channel=0 note=64 velocity=80 time=0.0013888895833333334
EXTRACT: note_on channel=0 note=64 velocity=0 time=0.16527786041666667
EXTRACT: note_on channel=0 note=62 velocity=80 time=0.0013888895833333334
EXTRACT: note_on channel=0 note=62 velocity=0 time=0.4986113604166667
EXTRACT: note_on channel=0 note=59 velocity=80 time=0.0013888895833333334
EXTRACT: note_on channel=0 note=59 velocity=0 time=0.3319446104166667
EXTRACT: note_on channel=0 note=57 velocity=80 time=0.0013888895833333334
EXTRACT: note_on channel=0 note=57 velocity=0 time=0.16527786041666667
EXTRACT: note_on channel=0 note=59 velocity=80 time=0.0013888895833333334
EXTRACT: note_on channel=1 note=60 velocity=0 time=0.06527781041666667
EXTRACT: note_on channel=1 note=64 velocity=0 time=0
EXTRACT: note_on channel=1 note=67 velocity=0 time=0
EXTRACT: note_on channel=1 note=48 velocity=0 time=0
EXTRACT: note_on channel=1 note=55 velocity=0 time=0
EXTRACT: note_on channel=1 note=55 velocity=33 time=0.10138893958333334
EXTRACT: note_on channel=1 note=59 velocity=33 time=0
EXTRACT: note_on channel=1 note=62 velocity=33 time=0
EXTRACT: note_on channel=1 note=43 velocity=33 time=0
EXTRACT: note_on channel=1 note=50 velocity=33 time=0
EXTRACT: control_change channel=1 control=64 value=0 time=0.0013888895833333334
EXTRACT: control_change channel=1 control=64 value=127 time=0.0013888895833333334
EXTRACT: note_on channel=0 note=59 velocity=0 time=0.32916683125
EXTRACT: note_on channel=0 note=57 velocity=80 time=0.0013888895833333334
EXTRACT: note_on channel=0 note=57 velocity=0 time=0.3319446104166667
EXTRACT: note_on channel=0 note=55 velocity=80 time=0.0013888895833333334
EXTRACT: note_on channel=0 note=55 velocity=0 time=0.16527786041666667
EXTRACT: note_on channel=0 note=55 velocity=80 time=0.0013888895833333334
EXTRACT: note_on channel=0 note=55 velocity=0 time=0.4986113604166667
EXTRACT: note_on channel=0 note=57 velocity=80 time=0.0013888895833333334
EXTRACT: note_on channel=0 note=57 velocity=0 time=0.3319446104166667
EXTRACT: note_on channel=0 note=59 velocity=80 time=0.0013888895833333334
EXTRACT: note_on channel=1 note=55 velocity=0 time=0.23194456041666667
EXTRACT: note_on channel=1 note=59 velocity=0 time=0
EXTRACT: note_on channel=1 note=62 velocity=0 time=0
EXTRACT: note_on channel=1 note=43 velocity=0 time=0
EXTRACT: note_on channel=1 note=50 velocity=0 time=0
EXTRACT: note_on channel=0 note=59 velocity=0 time=0.10000005000000001
EXTRACT: note_on channel=1 note=64 velocity=33 time=0
EXTRACT: note_on channel=1 note=67 velocity=33 time=0
EXTRACT: note_on channel=1 note=71 velocity=33 time=0
EXTRACT: note_on channel=1 note=52 velocity=33 time=0
EXTRACT: note_on channel=1 note=59 velocity=33 time=0
EXTRACT: control_change channel=1 control=64 value=0 time=0.0010416666666666667
EXTRACT: control_change channel=1 control=64 value=127 time=0.0010416666666666667
EXTRACT: note_on channel=0 note=59 velocity=80 time=0.9979166666666667
EXTRACT: note_on channel=0 note=59 velocity=0 time=0.2989583333333333
EXTRACT: note_on channel=0 note=57 velocity=80 time=0.0010416666666666667
EXTRACT: note_on channel=0 note=57 velocity=0 time=0.19895833333333332
EXTRACT: note_on channel=0 note=57 velocity=80 time=0.0010416666666666667
EXTRACT: note_on channel=1 note=64 velocity=0 time=0.3989583333333333
EXTRACT: note_on channel=1 note=67 velocity=0 time=0
EXTRACT: note_on channel=1 note=71 velocity=0 time=0
EXTRACT: note_on channel=1 note=52 velocity=0 time=0
EXTRACT: note_on channel=1 note=59 velocity=0 time=0
EXTRACT: note_on channel=0 note=57 velocity=0 time=0.1
EXTRACT: note_on channel=0 note=57 velocity=80 time=0.0010416666666666667
EXTRACT: note_on channel=1 note=62 velocity=33 time=0
EXTRACT: note_on channel=1 note=67 velocity=33 time=0
EXTRACT: note_on channel=1 note=71 velocity=33 time=0
EXTRACT: note_on channel=1 note=50 velocity=33 time=0
EXTRACT: note_on channel=1 note=59 velocity=33 time=0
EXTRACT: control_change channel=1 control=64 value=0 time=0.0010416666666666667
EXTRACT: control_change channel=1 control=64 value=127 time=0.0010416666666666667
EXTRACT: note_on channel=0 note=57 velocity=0 time=0.496875
EXTRACT: note_on channel=0 note=57 velocity=80 time=0.0010416666666666667
EXTRACT: note_on channel=0 note=57 velocity=0 time=0.2989583333333333
EXTRACT: note_on channel=0 note=57 velocity=80 time=0.0010416666666666667
EXTRACT: note_on channel=0 note=57 velocity=0 time=0.19895833333333332
EXTRACT: note_on channel=0 note=57 velocity=80 time=0.0010416666666666667
EXTRACT: note_on channel=0 note=57 velocity=0 time=0.49895833333333334
EXTRACT: note_on channel=0 note=59 velocity=80 time=0.0010416666666666667
EXTRACT: note_on channel=1 note=62 velocity=0 time=0.3989583333333333
EXTRACT: note_on channel=1 note=67 velocity=0 time=0
EXTRACT: note_on channel=1 note=71 velocity=0 time=0
EXTRACT: note_on channel=1 note=50 velocity=0 time=0
EXTRACT: note_on channel=1 note=59 velocity=0 time=0
EXTRACT: note_on channel=0 note=59 velocity=0 time=0.1
EXTRACT: note_on channel=1 note=60 velocity=33 time=0.0010416666666666667
EXTRACT: note_on channel=1 note=64 velocity=33 time=0
EXTRACT: note_on channel=1 note=67 velocity=33 time=0
EXTRACT: note_on channel=1 note=48 velocity=33 time=0
EXTRACT: note_on channel=1 note=55 velocity=33 time=0
EXTRACT: control_change channel=1 control=64 value=0 time=0.0010416666666666667
EXTRACT: control_change channel=1 control=64 value=127 time=0.0010416666666666667
EXTRACT: note_on channel=0 note=57 velocity=80 time=0.7979166666666666
EXTRACT: note_on channel=0 note=57 velocity=0 time=0.19895833333333332
EXTRACT: note_on channel=0 note=59 velocity=80 time=0.0010416666666666667
EXTRACT: note_on channel=0 note=59 velocity=0 time=0.2989583333333333
EXTRACT: note_on channel=0 note=57 velocity=80 time=0.0010416666666666667
EXTRACT: note_on channel=0 note=57 velocity=0 time=0.19895833333333332
EXTRACT: note_on channel=0 note=57 velocity=80 time=0.0010416666666666667
EXTRACT: note_on channel=0 note=57 velocity=0 time=0.2989583333333333
EXTRACT: note_on channel=0 note=57 velocity=80 time=0.0010416666666666667
EXTRACT: note_on channel=1 note=60 velocity=0 time=0.09895833333333333
EXTRACT: note_on channel=1 note=64 velocity=0 time=0
EXTRACT: note_on channel=1 note=67 velocity=0 time=0
EXTRACT: note_on channel=1 note=48 velocity=0 time=0
EXTRACT: note_on channel=1 note=55 velocity=0 time=0
EXTRACT: note_on channel=0 note=57 velocity=0 time=0.1
EXTRACT: note_on channel=0 note=62 velocity=80 time=0.0010416666666666667
EXTRACT: note_on channel=1 note=55 velocity=33 time=0
EXTRACT: note_on channel=1 note=59 velocity=33 time=0
EXTRACT: note_on channel=1 note=62 velocity=33 time=0
EXTRACT: note_on channel=1 note=43 velocity=33 time=0
EXTRACT: note_on channel=1 note=50 velocity=33 time=0
EXTRACT: control_change channel=1 control=64 value=0 time=0.0010416666666666667
EXTRACT: control_change channel=1 control=64 value=127 time=0.0010416666666666667
EXTRACT: note_on channel=0 note=62 velocity=0 time=0.296875
EXTRACT: note_on channel=0 note=62 velocity=80 time=0.0010416666666666667
EXTRACT: note_on channel=0 note=62 velocity=0 time=0.19895833333333332
EXTRACT: note_on channel=0 note=59 velocity=80 time=0.0010416666666666667
EXTRACT: note_on channel=0 note=59 velocity=0 time=0.49895833333333334
EXTRACT: note_on channel=0 note=57 velocity=80 time=0.0010416666666666667
EXTRACT: note_on channel=0 note=57 velocity=0 time=0.49895833333333334
EXTRACT: note_on channel=0 note=55 velocity=80 time=0.0010416666666666667
EXTRACT: note_on channel=0 note=55 velocity=0 time=0.2989583333333333
EXTRACT: note_on channel=0 note=55 velocity=80 time=0.0010416666666666667
EXTRACT: note_on channel=1 note=55 velocity=0 time=0.09895833333333333
EXTRACT: note_on channel=1 note=59 velocity=0 time=0
EXTRACT: note_on channel=1 note=62 velocity=0 time=0
EXTRACT: note_on channel=1 note=43 velocity=0 time=0
EXTRACT: note_on channel=1 note=50 velocity=0 time=0
EXTRACT: note_on channel=0 note=55 velocity=0 time=0.1
EXTRACT: note_on channel=0 note=64 velocity=80 time=0.0010416666666666667
EXTRACT: note_on channel=1 note=60 velocity=33 time=0
EXTRACT: note_on channel=1 note=64 velocity=33 time=0
EXTRACT: note_on channel=1 note=67 velocity=33 time=0
EXTRACT: note_on channel=1 note=48 velocity=33 time=0
EXTRACT: note_on channel=1 note=55 velocity=33 time=0
EXTRACT: control_change channel=1 control=64 value=0 time=0.0010416666666666667
EXTRACT: control_change channel=1 control=64 value=127 time=0.0010416666666666667
EXTRACT: note_on channel=0 note=64 velocity=0 time=0.496875
EXTRACT: note_on channel=0 note=62 velocity=80 time=0.5010416666666666
EXTRACT: note_on channel=0 note=62 velocity=0 time=0.9989583333333333
EXTRACT: note_on channel=0 note=67 velocity=80 time=0.0010416666666666667
EXTRACT: note_on channel=0 note=67 velocity=0 time=0.9989583333333333
EXTRACT: note_on channel=0 note=69 velocity=80 time=0.0010416666666666667
EXTRACT: note_on channel=0 note=69 velocity=0 time=0.79375
EXTRACT: note_on channel=1 note=60 velocity=0 time=0.005208333333333333
EXTRACT: note_on channel=1 note=64 velocity=0 time=0
EXTRACT: note_on channel=1 note=67 velocity=0 time=0
EXTRACT: note_on channel=1 note=48 velocity=0 time=0
EXTRACT: note_on channel=1 note=55 velocity=0 time=0
EXTRACT: note_on channel=0 note=69 velocity=80 time=0.0010416666666666667
EXTRACT: note_on channel=1 note=62 velocity=33 time=0.2
EXTRACT: note_on channel=1 note=66 velocity=33 time=0
EXTRACT: note_on channel=1 note=69 velocity=33 time=0
EXTRACT: note_on channel=1 note=50 velocity=33 time=0
EXTRACT: note_on channel=1 note=57 velocity=33 time=0
EXTRACT: control_change channel=1 control=64 value=0 time=0.0010416666666666667
EXTRACT: control_change channel=1 control=64 value=127 time=0.0010416666666666667
EXTRACT: note_on channel=1 note=62 velocity=0 time=1.8968749999999999
EXTRACT: note_on channel=1 note=66 velocity=0 time=0
EXTRACT: note_on channel=1 note=69 velocity=0 time=0
EXTRACT: note_on channel=1 note=50 velocity=0 time=0
EXTRACT: note_on channel=1 note=57 velocity=0 time=0
EXTRACT: note_on channel=0 note=69 velocity=0 time=0.1
EXTRACT: note_on channel=1 note=50 velocity=33 time=0.0010416666666666667
EXTRACT: control_change channel=1 control=64 value=0 time=0.0010416666666666667
EXTRACT: control_change channel=1 control=64 value=127 time=0.0010416666666666667
EXTRACT: note_on channel=1 note=50 velocity=0 time=0.234375
EXTRACT: note_on channel=1 note=54 velocity=33 time=0.013541666666666667
EXTRACT: note_on channel=1 note=54 velocity=0 time=0.23645833333333333
EXTRACT: note_on channel=1 note=57 velocity=33 time=0.013541666666666667
EXTRACT: note_on channel=1 note=57 velocity=0 time=0.23645833333333333
EXTRACT: note_on channel=1 note=62 velocity=33 time=0.013541666666666667
EXTRACT: note_on channel=1 note=62 velocity=0 time=0.23645833333333333
EXTRACT: note_on channel=1 note=66 velocity=33 time=0.013541666666666667
EXTRACT: note_on channel=1 note=66 velocity=0 time=0.23645833333333333
EXTRACT: note_on channel=1 note=62 velocity=33 time=0.013541666666666667
EXTRACT: note_on channel=1 note=62 velocity=0 time=0.23645833333333333
EXTRACT: note_on channel=1 note=66 velocity=33 time=0.013541666666666667
EXTRACT: note_on channel=1 note=66 velocity=0 time=0.23645833333333333
EXTRACT: note_on channel=1 note=69 velocity=33 time=0.013541666666666667
EXTRACT: note_on channel=1 note=69 velocity=0 time=0.23645833333333333
EXTRACT: note_on channel=1 note=64 velocity=33 time=0.013541666666666667
EXTRACT: note_on channel=1 note=67 velocity=33 time=0
EXTRACT: note_on channel=1 note=71 velocity=33 time=0
EXTRACT: note_on channel=1 note=52 velocity=33 time=0
EXTRACT: note_on channel=1 note=59 velocity=33 time=0
EXTRACT: control_change channel=1 control=64 value=0 time=0.0010416666666666667
EXTRACT: control_change channel=1 control=64 value=127 time=0.0010416666666666667
EXTRACT: note_on channel=0 note=59 velocity=80 time=0.24791666666666667
EXTRACT: note_on channel=0 note=59 velocity=0 time=0.24895833333333334
EXTRACT: note_on channel=0 note=57 velocity=80 time=0.0010416666666666667
EXTRACT: note_on channel=0 note=57 velocity=0 time=0.24895833333333334
EXTRACT: note_on channel=0 note=59 velocity=80 time=0.0010416666666666667
EXTRACT: note_on channel=1 note=64 velocity=0 time=0.19895833333333332
EXTRACT: note_on channel=1 note=67 velocity=0 time=0
EXTRACT: note_on channel=1 note=71 velocity=0 time=0
EXTRACT: note_on channel=1 note=59 velocity=0 time=0
EXTRACT: note_on channel=0 note=59 velocity=0 time=0.05
EXTRACT: note_on channel=0 note=62 velocity=80 time=0.0010416666666666667
EXTRACT: note_on channel=1 note=64 velocity=33 time=0
EXTRACT: note_on channel=1 note=67 velocity=33 time=0
EXTRACT: note_on channel=1 note=71 velocity=33 time=0
EXTRACT: note_on channel=1 note=59 velocity=33 time=0
EXTRACT: note_on channel=0 note=62 velocity=0 time=0.49895833333333334
EXTRACT: note_on channel=0 note=55 velocity=80 time=0.0010416666666666667
EXTRACT: note_on channel=1 note=52 velocity=0 time=0.3989583333333333
EXTRACT: note_on channel=1 note=64 velocity=0 time=0.05
EXTRACT: note_on channel=1 note=67 velocity=0 time=0
EXTRACT: note_on channel=1 note=71 velocity=0 time=0
EXTRACT: note_on channel=1 note=59 velocity=0 time=0
EXTRACT: note_on channel=1 note=62 velocity=33 time=0.051041666666666666
EXTRACT: note_on channel=1 note=67 velocity=33 time=0
EXTRACT: note_on channel=1 note=71 velocity=33 time=0
EXTRACT: note_on channel=1 note=50 velocity=33 time=0
EXTRACT: note_on channel=1 note=59 velocity=33 time=0
EXTRACT: control_change channel=1 control=64 value=0 time=0.0010416666666666667
EXTRACT: control_change channel=1 control=64 value=127 time=0.0010416666666666667
EXTRACT: note_on channel=0 note=55 velocity=0 time=0.24687499999999998
EXTRACT: note_on channel=0 note=59 velocity=80 time=0.0010416666666666667
EXTRACT: note_on channel=0 note=59 velocity=0 time=0.24895833333333334
EXTRACT: note_on channel=0 note=57 velocity=80 time=0.0010416666666666667
EXTRACT: note_on channel=0 note=57 velocity=0 time=0.24895833333333334
EXTRACT: note_on channel=0 note=62 velocity=80 time=0.0010416666666666667
EXTRACT: note_on channel=1 note=62 velocity=0 time=0.19895833333333332
EXTRACT: note_on channel=1 note=67 velocity=0 time=0
EXTRACT: note_on channel=1 note=71 velocity=0 time=0
EXTRACT: note_on channel=1 note=59 velocity=0 time=0
EXTRACT: note_on channel=0 note=62 velocity=0 time=0.05
EXTRACT: note_on channel=0 note=59 velocity=80 time=0.0010416666666666667
EXTRACT: note_on channel=1 note=62 velocity=33 time=0
EXTRACT: note_on channel=1 note=67 velocity=33 time=0
EXTRACT: note_on channel=1 note=71 velocity=33 time=0
EXTRACT: note_on channel=1 note=59 velocity=33 time=0
EXTRACT: note_on channel=0 note=59 velocity=0 time=0.49895833333333334
EXTRACT: note_on channel=1 note=50 velocity=0 time=0.4
EXTRACT: note_on channel=1 note=62 velocity=0 time=0.05
EXTRACT: note_on channel=1 note=67 velocity=0 time=0
EXTRACT: note_on channel=1 note=71 velocity=0 time=0
EXTRACT: note_on channel=1 note=59 velocity=0 time=0
EXTRACT: note_on channel=0 note=60 velocity=80 time=0.051041666666666666
EXTRACT: note_on channel=1 note=60 velocity=33 time=0
EXTRACT: note_on channel=1 note=64 velocity=33 time=0
EXTRACT: note_on channel=1 note=67 velocity=33 time=0
EXTRACT: note_on channel=1 note=48 velocity=33 time=0
EXTRACT: note_on channel=1 note=55 velocity=33 time=0
EXTRACT: control_change channel=1 control=64 value=0 time=0.0010416666666666667
EXTRACT: control_change channel=1 control=64 value=127 time=0.0010416666666666667
EXTRACT: note_on channel=0 note=60 velocity=0 time=0.24687499999999998
EXTRACT: note_on channel=0 note=59 velocity=80 time=0.0010416666666666667
EXTRACT: note_on channel=0 note=59 velocity=0 time=0.24895833333333334
EXTRACT: note_on channel=0 note=60 velocity=80 time=0.0010416666666666667
EXTRACT: note_on channel=0 note=60 velocity=0 time=0.24895833333333334
EXTRACT: note_on channel=0 note=59 velocity=80 time=0.0010416666666666667
EXTRACT: note_on channel=1 note=60 velocity=0 time=0.19895833333333332
EXTRACT: note_on channel=1 note=64 velocity=0 time=0
EXTRACT: note_on channel=1 note=67 velocity=0 time=0
EXTRACT: note_on channel=1 note=55 velocity=0 time=0
EXTRACT: note_on channel=0 note=59 velocity=0 time=0.05
EXTRACT: note_on channel=0 note=60 velocity=80 time=0.0010416666666666667
EXTRACT: note_on channel=1 note=60 velocity=33 time=0
EXTRACT: note_on channel=1 note=64 velocity=33 time=0
EXTRACT: note_on channel=1 note=67 velocity=33 time=0
EXTRACT: note_on channel=1 note=55 velocity=33 time=0
EXTRACT: note_on channel=0 note=60 velocity=0 time=0.49895833333333334
EXTRACT: note_on channel=0 note=55 velocity=80 time=0.0010416666666666667
EXTRACT: note_on channel=1 note=48 velocity=0 time=0.3989583333333333
EXTRACT: note_on channel=1 note=60 velocity=0 time=0.05
EXTRACT: note_on channel=1 note=64 velocity=0 time=0
EXTRACT: note_on channel=1 note=67 velocity=0 time=0
EXTRACT: note_on channel=1 note=55 velocity=0 time=0
EXTRACT: note_on channel=0 note=55 velocity=0 time=0.05
EXTRACT: note_on channel=1 note=55 velocity=33 time=0.0010416666666666667
EXTRACT: note_on channel=1 note=59 velocity=33 time=0
EXTRACT: note_on channel=1 note=62 velocity=33 time=0
EXTRACT: note_on channel=1 note=43 velocity=33 time=0
EXTRACT: note_on channel=1 note=50 velocity=33 time=0
EXTRACT: control_change channel=1 control=64 value=0 time=0.0010416666666666667
EXTRACT: control_change channel=1 control=64 value=127 time=0.0010416666666666667
EXTRACT: note_on channel=0 note=59 velocity=80 time=0.4979166666666667
EXTRACT: note_on channel=0 note=59 velocity=0 time=0.24895833333333334
EXTRACT: note_on channel=0 note=62 velocity=80 time=0.0010416666666666667
EXTRACT: note_on channel=1 note=55 velocity=0 time=0.19895833333333332
EXTRACT: note_on channel=1 note=59 velocity=0 time=0
EXTRACT: note_on channel=1 note=62 velocity=0 time=0
EXTRACT: note_on channel=1 note=43 velocity=0 time=0
EXTRACT: note_on channel=1 note=50 velocity=0 time=0
EXTRACT: note_on channel=0 note=62 velocity=0 time=0.05
EXTRACT: note_on channel=0 note=59 velocity=80 time=0.0010416666666666667
EXTRACT: note_on channel=1 note=55 velocity=33 time=0
EXTRACT: note_on channel=1 note=59 velocity=33 time=0
EXTRACT: note_on channel=1 note=62 velocity=33 time=0
EXTRACT: note_on channel=1 note=43 velocity=33 time=0
EXTRACT: note_on channel=1 note=50 velocity=33 time=0
EXTRACT: note_on channel=0 note=59 velocity=0 time=0.49895833333333334
EXTRACT: note_on channel=0 note=57 velocity=80 time=0.0010416666666666667
EXTRACT: note_on channel=1 note=55 velocity=0 time=0.44895833333333335
EXTRACT: note_on channel=1 note=59 velocity=0 time=0
EXTRACT: note_on channel=1 note=62 velocity=0 time=0
EXTRACT: note_on channel=1 note=43 velocity=0 time=0
EXTRACT: note_on channel=1 note=50 velocity=0 time=0
EXTRACT: note_on channel=0 note=57 velocity=0 time=0.05
EXTRACT: note_on channel=1 note=64 velocity=33 time=0.0010416666666666667
EXTRACT: note_on channel=1 note=67 velocity=33 time=0
EXTRACT: note_on channel=1 note=71 velocity=33 time=0
EXTRACT: note_on channel=1 note=52 velocity=33 time=0
EXTRACT: note_on channel=1 note=59 velocity=33 time=0
EXTRACT: control_change channel=1 control=64 value=0 time=0.0010416666666666667
EXTRACT: control_change channel=1 control=64 value=127 time=0.0010416666666666667
EXTRACT: note_on channel=0 note=59 velocity=80 time=0.24791666666666667
EXTRACT: note_on channel=0 note=59 velocity=0 time=0.24895833333333334
EXTRACT: note_on channel=0 note=57 velocity=80 time=0.0010416666666666667
EXTRACT: note_on channel=0 note=57 velocity=0 time=0.24895833333333334
EXTRACT: note_on channel=0 note=59 velocity=80 time=0.0010416666666666667
EXTRACT: note_on channel=1 note=64 velocity=0 time=0.19895833333333332
EXTRACT: note_on channel=1 note=67 velocity=0 time=0
EXTRACT: note_on channel=1 note=71 velocity=0 time=0
EXTRACT: note_on channel=1 note=59 velocity=0 time=0
EXTRACT: note_on channel=0 note=59 velocity=0 time=0.05
EXTRACT: note_on channel=0 note=62 velocity=80 time=0.0010416666666666667
EXTRACT: note_on channel=1 note=64 velocity=33 time=0
EXTRACT: note_on channel=1 note=67 velocity=33 time=0
EXTRACT: note_on channel=1 note=71 velocity=33 time=0
EXTRACT: note_on channel=1 note=59 velocity=33 time=0
EXTRACT: note_on channel=0 note=62 velocity=0 time=0.49895833333333334
EXTRACT: note_on channel=0 note=62 velocity=80 time=0.0010416666666666667
EXTRACT: note_on channel=1 note=52 velocity=0 time=0.3989583333333333
EXTRACT: note_on channel=1 note=64 velocity=0 time=0.05
EXTRACT: note_on channel=1 note=67 velocity=0 time=0
EXTRACT: note_on channel=1 note=71 velocity=0 time=0
EXTRACT: note_on channel=1 note=59 velocity=0 time=0
EXTRACT: note_on channel=0 note=62 velocity=0 time=0.05
EXTRACT: note_on channel=0 note=64 velocity=80 time=0.0010416666666666667
EXTRACT: note_on channel=1 note=62 velocity=33 time=0
EXTRACT: note_on channel=1 note=67 velocity=33 time=0
EXTRACT: note_on channel=1 note=71 velocity=33 time=0
EXTRACT: note_on channel=1 note=50 velocity=33 time=0
EXTRACT: note_on channel=1 note=59 velocity=33 time=0
EXTRACT: control_change channel=1 control=64 value=0 time=0.0010416666666666667
EXTRACT: control_change channel=1 control=64 value=127 time=0.0010416666666666667
EXTRACT: note_on channel=0 note=64 velocity=0 time=0.24687499999999998
EXTRACT: note_on channel=0 note=62 velocity=80 time=0.0010416666666666667
EXTRACT: note_on channel=0 note=62 velocity=0 time=0.24895833333333334
EXTRACT: note_on channel=0 note=59 velocity=80 time=0.0010416666666666667
EXTRACT: note_on channel=0 note=59 velocity=0 time=0.24895833333333334
EXTRACT: note_on channel=0 note=57 velocity=80 time=0.0010416666666666667
EXTRACT: note_on channel=1 note=62 velocity=0 time=0.19895833333333332
EXTRACT: note_on channel=1 note=67 velocity=0 time=0
EXTRACT: note_on channel=1 note=71 velocity=0 time=0
EXTRACT: note_on channel=1 note=59 velocity=0 time=0
EXTRACT: note_on channel=0 note=57 velocity=0 time=0.05
EXTRACT: note_on channel=0 note=59 velocity=80 time=0.0010416666666666667
EXTRACT: note_on channel=1 note=62 velocity=33 time=0
EXTRACT: note_on channel=1 note=67 velocity=33 time=0
EXTRACT: note_on channel=1 note=71 velocity=33 time=0
EXTRACT: note_on channel=1 note=59 velocity=33 time=0
EXTRACT: note_on channel=0 note=59 velocity=0 time=0.49895833333333334
EXTRACT: note_on channel=1 note=50 velocity=0 time=0.4
EXTRACT: note_on channel=1 note=62 velocity=0 time=0.05
EXTRACT: note_on channel=1 note=67 velocity=0 time=0
EXTRACT: note_on channel=1 note=71 velocity=0 time=0
EXTRACT: note_on channel=1 note=59 velocity=0 time=0
EXTRACT: note_on channel=0 note=60 velocity=80 time=0.051041666666666666
EXTRACT: note_on channel=1 note=60 velocity=33 time=0
EXTRACT: note_on channel=1 note=64 velocity=33 time=0
EXTRACT: note_on channel=1 note=67 velocity=33 time=0
EXTRACT: note_on channel=1 note=48 velocity=33 time=0
EXTRACT: note_on channel=1 note=55 velocity=33 time=0
EXTRACT: control_change channel=1 control=64 value=0 time=0.0010416666666666667
EXTRACT: control_change channel=1 control=64 value=127 time=0.0010416666666666667
EXTRACT: note_on channel=0 note=60 velocity=0 time=0.24687499999999998
EXTRACT: note_on channel=0 note=59 velocity=80 time=0.0010416666666666667
EXTRACT: note_on channel=0 note=59 velocity=0 time=0.24895833333333334
EXTRACT: note_on channel=0 note=60 velocity=80 time=0.0010416666666666667
EXTRACT: note_on channel=0 note=60 velocity=0 time=0.24895833333333334
EXTRACT: note_on channel=0 note=59 velocity=80 time=0.0010416666666666667
EXTRACT: note_on channel=1 note=60 velocity=0 time=0.19895833333333332
EXTRACT: note_on channel=1 note=64 velocity=0 time=0
EXTRACT: note_on channel=1 note=67 velocity=0 time=0
EXTRACT: note_on channel=1 note=55 velocity=0 time=0
EXTRACT: note_on channel=0 note=59 velocity=0 time=0.05
EXTRACT: note_on channel=0 note=60 velocity=80 time=0.0010416666666666667
EXTRACT: note_on channel=1 note=60 velocity=33 time=0
EXTRACT: note_on channel=1 note=64 velocity=33 time=0
EXTRACT: note_on channel=1 note=67 velocity=33 time=0
EXTRACT: note_on channel=1 note=55 velocity=33 time=0
EXTRACT: note_on channel=0 note=60 velocity=0 time=0.49895833333333334
EXTRACT: note_on channel=0 note=55 velocity=80 time=0.0010416666666666667
EXTRACT: note_on channel=1 note=48 velocity=0 time=0.3989583333333333
EXTRACT: note_on channel=1 note=60 velocity=0 time=0.05
EXTRACT: note_on channel=1 note=64 velocity=0 time=0
EXTRACT: note_on channel=1 note=67 velocity=0 time=0
EXTRACT: note_on channel=1 note=55 velocity=0 time=0
EXTRACT: note_on channel=0 note=55 velocity=0 time=0.05
EXTRACT: note_on channel=1 note=55 velocity=33 time=0.0010416666666666667
EXTRACT: note_on channel=1 note=59 velocity=33 time=0
EXTRACT: note_on channel=1 note=62 velocity=33 time=0
EXTRACT: note_on channel=1 note=43 velocity=33 time=0
EXTRACT: note_on channel=1 note=50 velocity=33 time=0
EXTRACT: control_change channel=1 control=64 value=0 time=0.0010416666666666667
EXTRACT: control_change channel=1 control=64 value=127 time=0.0010416666666666667
EXTRACT: note_on channel=0 note=59 velocity=80 time=0.4979166666666667
EXTRACT: note_on channel=0 note=59 velocity=0 time=0.24895833333333334
EXTRACT: note_on channel=0 note=62 velocity=80 time=0.0010416666666666667
EXTRACT: note_on channel=1 note=55 velocity=0 time=0.19895833333333332
EXTRACT: note_on channel=1 note=59 velocity=0 time=0
EXTRACT: note_on channel=1 note=62 velocity=0 time=0
EXTRACT: note_on channel=1 note=43 velocity=0 time=0
EXTRACT: note_on channel=1 note=50 velocity=0 time=0
EXTRACT: note_on channel=0 note=62 velocity=0 time=0.05
EXTRACT: note_on channel=0 note=59 velocity=80 time=0.0010416666666666667
EXTRACT: note_on channel=1 note=55 velocity=33 time=0
EXTRACT: note_on channel=1 note=59 velocity=33 time=0
EXTRACT: note_on channel=1 note=62 velocity=33 time=0
EXTRACT: note_on channel=1 note=43 velocity=33 time=0
EXTRACT: note_on channel=1 note=50 velocity=33 time=0
EXTRACT: note_on channel=0 note=59 velocity=0 time=0.49895833333333334
EXTRACT: note_on channel=1 note=55 velocity=0 time=0.45
EXTRACT: note_on channel=1 note=59 velocity=0 time=0
EXTRACT: note_on channel=1 note=62 velocity=0 time=0
EXTRACT: note_on channel=1 note=43 velocity=0 time=0
EXTRACT: note_on channel=1 note=50 velocity=0 time=0
EXTRACT: note_on channel=0 note=67 velocity=80 time=0.051041666666666666
EXTRACT: note_on channel=1 note=64 velocity=33 time=0
EXTRACT: note_on channel=1 note=67 velocity=33 time=0
EXTRACT: note_on channel=1 note=71 velocity=33 time=0
EXTRACT: note_on channel=1 note=52 velocity=33 time=0
EXTRACT: note_on channel=1 note=59 velocity=33 time=0
EXTRACT: control_change channel=1 control=64 value=0 time=0.0010416666666666667
EXTRACT: control_change channel=1 control=64 value=127 time=0.0010416666666666667
EXTRACT: note_on channel=1 note=64 velocity=0 time=0.946875
EXTRACT: note_on channel=1 note=67 velocity=0 time=0
EXTRACT: note_on channel=1 note=71 velocity=0 time=0
EXTRACT: note_on channel=1 note=59 velocity=0 time=0
EXTRACT: note_on channel=0 note=67 velocity=0 time=0.05
EXTRACT: note_on channel=0 note=66 velocity=80 time=0.0010416666666666667
EXTRACT: note_on channel=1 note=64 velocity=33 time=0
EXTRACT: note_on channel=1 note=67 velocity=33 time=0
EXTRACT: note_on channel=1 note=71 velocity=33 time=0
EXTRACT: note_on channel=1 note=59 velocity=33 time=0
EXTRACT: note_on channel=1 note=52 velocity=0 time=0.8989583333333333
EXTRACT: note_on channel=1 note=64 velocity=0 time=0.05
EXTRACT: note_on channel=1 note=67 velocity=0 time=0
EXTRACT: note_on channel=1 note=71 velocity=0 time=0
EXTRACT: note_on channel=1 note=59 velocity=0 time=0
EXTRACT: note_on channel=0 note=66 velocity=0 time=0.05
EXTRACT: note_on channel=0 note=64 velocity=80 time=0.0010416666666666667
EXTRACT: note_on channel=1 note=62 velocity=33 time=0
EXTRACT: note_on channel=1 note=67 velocity=33 time=0
EXTRACT: note_on channel=1 note=71 velocity=33 time=0
EXTRACT: note_on channel=1 note=50 velocity=33 time=0
EXTRACT: note_on channel=1 note=59 velocity=33 time=0
EXTRACT: control_change channel=1 control=64 value=0 time=0.0010416666666666667
EXTRACT: control_change channel=1 control=64 value=127 time=0.0010416666666666667
EXTRACT: note_on channel=1 note=62 velocity=0 time=0.946875
EXTRACT: note_on channel=1 note=67 velocity=0 time=0
EXTRACT: note_on channel=1 note=71 velocity=0 time=0
EXTRACT: note_on channel=1 note=59 velocity=0 time=0
EXTRACT: note_on channel=0 note=64 velocity=0 time=0.05
EXTRACT: note_on channel=0 note=62 velocity=80 time=0.0010416666666666667
EXTRACT: note_on channel=1 note=62 velocity=33 time=0
EXTRACT: note_on channel=1 note=67 velocity=33 time=0
EXTRACT: note_on channel=1 note=71 velocity=33 time=0
EXTRACT: note_on channel=1 note=59 velocity=33 time=0
EXTRACT: note_on channel=1 note=50 velocity=0 time=0.8989583333333333
EXTRACT: note_on channel=1 note=62 velocity=0 time=0.05
EXTRACT: note_on channel=1 note=67 velocity=0 time=0
EXTRACT: note_on channel=1 note=71 velocity=0 time=0
EXTRACT: note_on channel=1 note=59 velocity=0 time=0
EXTRACT: note_on channel=0 note=62 velocity=0 time=0.05
EXTRACT: note_on channel=1 note=60 velocity=33 time=0.0010416666666666667
EXTRACT: note_on channel=1 note=64 velocity=33 time=0
EXTRACT: note_on channel=1 note=67 velocity=33 time=0
EXTRACT: note_on channel=1 note=48 velocity=33 time=0
EXTRACT: note_on channel=1 note=55 velocity=33 time=0
EXTRACT: control_change channel=1 control=64 value=0 time=0.0010416666666666667
EXTRACT: control_change channel=1 control=64 value=127 time=0.0010416666666666667
EXTRACT: note_on channel=0 note=62 velocity=80 time=0.4979166666666667
EXTRACT: note_on channel=1 note=60 velocity=0 time=0.44895833333333335
EXTRACT: note_on channel=1 note=64 velocity=0 time=0
EXTRACT: note_on channel=1 note=67 velocity=0 time=0
EXTRACT: note_on channel=1 note=55 velocity=0 time=0
EXTRACT: note_on channel=0 note=62 velocity=0 time=0.05
EXTRACT: note_on channel=0 note=60 velocity=80 time=0.0010416666666666667
EXTRACT: note_on channel=1 note=60 velocity=33 time=0
EXTRACT: note_on channel=1 note=64 velocity=33 time=0
EXTRACT: note_on channel=1 note=67 velocity=33 time=0
EXTRACT: note_on channel=1 note=55 velocity=33 time=0
EXTRACT: note_on channel=0 note=60 velocity=0 time=0.06354166666666666
EXTRACT: note_on channel=0 note=62 velocity=80 time=0.0010416666666666667
EXTRACT: note_on channel=0 note=62 velocity=0 time=0.43333333333333335
EXTRACT: note_on channel=0 note=64 velocity=80 time=0.0020833333333333333
EXTRACT: note_on channel=0 note=64 velocity=0 time=0.24895833333333334
EXTRACT: note_on channel=0 note=59 velocity=80 time=0.0010416666666666667
EXTRACT: note_on channel=1 note=48 velocity=0 time=0.14895833333333333
EXTRACT: note_on channel=1 note=60 velocity=0 time=0.05
EXTRACT: note_on channel=1 note=64 velocity=0 time=0
EXTRACT: note_on channel=1 note=67 velocity=0 time=0
EXTRACT: note_on channel=1 note=55 velocity=0 time=0
EXTRACT: note_on channel=1 note=55 velocity=33 time=0.051041666666666666
EXTRACT: note_on channel=1 note=59 velocity=33 time=0
EXTRACT: note_on channel=1 note=62 velocity=33 time=0
EXTRACT: note_on channel=1 note=43 velocity=33 time=0
EXTRACT: note_on channel=1 note=50 velocity=33 time=0
EXTRACT: control_change channel=1 control=64 value=0 time=0.0010416666666666667
EXTRACT: control_change channel=1 control=64 value=127 time=0.0010416666666666667
EXTRACT: note_on channel=0 note=59 velocity=0 time=0.24687499999999998
EXTRACT: note_on channel=0 note=57 velocity=80 time=0.0010416666666666667
EXTRACT: note_on channel=0 note=57 velocity=0 time=0.24895833333333334
EXTRACT: note_on channel=0 note=59 velocity=80 time=0.0010416666666666667
EXTRACT: note_on channel=0 note=59 velocity=0 time=0.24895833333333334
EXTRACT: note_on channel=0 note=57 velocity=80 time=0.0010416666666666667
EXTRACT: note_on channel=1 note=55 velocity=0 time=0.19895833333333332
EXTRACT: note_on channel=1 note=59 velocity=0 time=0
EXTRACT: note_on channel=1 note=62 velocity=0 time=0
EXTRACT: note_on channel=1 note=43 velocity=0 time=0
EXTRACT: note_on channel=1 note=50 velocity=0 time=0
EXTRACT: note_on channel=0 note=57 velocity=0 time=0.05
EXTRACT: note_on channel=0 note=55 velocity=80 time=0.0010416666666666667
EXTRACT: note_on channel=1 note=55 velocity=33 time=0
EXTRACT: note_on channel=1 note=59 velocity=33 time=0
EXTRACT: note_on channel=1 note=62 velocity=33 time=0
EXTRACT: note_on channel=1 note=43 velocity=33 time=0
EXTRACT: note_on channel=1 note=50 velocity=33 time=0
EXTRACT: note_on channel=0 note=55 velocity=0 time=0.49895833333333334
EXTRACT: note_on channel=0 note=55 velocity=80 time=0.25104166666666666
EXTRACT: note_on channel=1 note=55 velocity=0 time=0.19895833333333332
EXTRACT: note_on channel=1 note=59 velocity=0 time=0
EXTRACT: note_on channel=1 note=62 velocity=0 time=0
EXTRACT: note_on channel=1 note=43 velocity=0 time=0
EXTRACT: note_on channel=1 note=50 velocity=0 time=0
EXTRACT: note_on channel=0 note=55 velocity=0 time=0.05
EXTRACT: note_on channel=0 note=67 velocity=80 time=0.0010416666666666667
EXTRACT: note_on channel=1 note=64 velocity=33 time=0
EXTRACT: note_on channel=1 note=67 velocity=33 time=0
EXTRACT: note_on channel=1 note=71 velocity=33 time=0
EXTRACT: note_on channel=1 note=52 velocity=33 time=0
EXTRACT: note_on channel=1 note=59 velocity=33 time=0
EXTRACT: control_change channel=1 control=64 value=0 time=0.0010416666666666667
EXTRACT: control_change channel=1 control=64 value=127 time=0.0010416666666666667
EXTRACT: note_on channel=1 note=64 velocity=0 time=0.946875
EXTRACT: note_on channel=1 note=67 velocity=0 time=0
EXTRACT: note_on channel=1 note=71 velocity=0 time=0
EXTRACT: note_on channel=1 note=59 velocity=0 time=0
EXTRACT: note_on channel=0 note=67 velocity=0 time=0.05
EXTRACT: note_on channel=0 note=66 velocity=80 time=0.0010416666666666667
EXTRACT: note_on channel=1 note=64 velocity=33 time=0
EXTRACT: note_on channel=1 note=67 velocity=33 time=0
EXTRACT: note_on channel=1 note=71 velocity=33 time=0
EXTRACT: note_on channel=1 note=59 velocity=33 time=0
EXTRACT: note_on channel=1 note=52 velocity=0 time=0.8989583333333333
EXTRACT: note_on channel=1 note=64 velocity=0 time=0.05
EXTRACT: note_on channel=1 note=67 velocity=0 time=0
EXTRACT: note_on channel=1 note=71 velocity=0 time=0
EXTRACT: note_on channel=1 note=59 velocity=0 time=0
EXTRACT: note_on channel=0 note=66 velocity=0 time=0.05
EXTRACT: note_on channel=0 note=64 velocity=80 time=0.0010416666666666667
EXTRACT: note_on channel=1 note=62 velocity=33 time=0
EXTRACT: note_on channel=1 note=67 velocity=33 time=0
EXTRACT: note_on channel=1 note=71 velocity=33 time=0
EXTRACT: note_on channel=1 note=50 velocity=33 time=0
EXTRACT: note_on channel=1 note=59 velocity=33 time=0
EXTRACT: control_change channel=1 control=64 value=0 time=0.0010416666666666667
EXTRACT: control_change channel=1 control=64 value=127 time=0.0010416666666666667
EXTRACT: note_on channel=1 note=62 velocity=0 time=0.946875
EXTRACT: note_on channel=1 note=67 velocity=0 time=0
EXTRACT: note_on channel=1 note=71 velocity=0 time=0
EXTRACT: note_on channel=1 note=59 velocity=0 time=0
EXTRACT: note_on channel=0 note=64 velocity=0 time=0.05
EXTRACT: note_on channel=0 note=62 velocity=80 time=0.0010416666666666667
EXTRACT: note_on channel=1 note=62 velocity=33 time=0
EXTRACT: note_on channel=1 note=67 velocity=33 time=0
EXTRACT: note_on channel=1 note=71 velocity=33 time=0
EXTRACT: note_on channel=1 note=59 velocity=33 time=0
EXTRACT: note_on channel=1 note=50 velocity=0 time=0.8989583333333333
EXTRACT: note_on channel=1 note=62 velocity=0 time=0.05
EXTRACT: note_on channel=1 note=67 velocity=0 time=0
EXTRACT: note_on channel=1 note=71 velocity=0 time=0
EXTRACT: note_on channel=1 note=59 velocity=0 time=0
EXTRACT: note_on channel=0 note=62 velocity=0 time=0.05
EXTRACT: note_on channel=1 note=60 velocity=33 time=0.0010416666666666667
EXTRACT: note_on channel=1 note=64 velocity=33 time=0
EXTRACT: note_on channel=1 note=67 velocity=33 time=0
EXTRACT: note_on channel=1 note=48 velocity=33 time=0
EXTRACT: note_on channel=1 note=55 velocity=33 time=0
EXTRACT: control_change channel=1 control=64 value=0 time=0.0010416666666666667
EXTRACT: control_change channel=1 control=64 value=127 time=0.0010416666666666667
EXTRACT: note_on channel=0 note=62 velocity=80 time=0.4979166666666667
EXTRACT: note_on channel=0 note=62 velocity=0 time=0.24895833333333334
EXTRACT: note_on channel=0 note=59 velocity=80 time=0.0010416666666666667
EXTRACT: note_on channel=1 note=60 velocity=0 time=0.19895833333333332
EXTRACT: note_on channel=1 note=64 velocity=0 time=0
EXTRACT: note_on channel=1 note=67 velocity=0 time=0
EXTRACT: note_on channel=1 note=55 velocity=0 time=0
EXTRACT: note_on channel=0 note=59 velocity=0 time=0.05
EXTRACT: note_on channel=0 note=62 velocity=80 time=0.0010416666666666667
EXTRACT: note_on channel=1 note=60 velocity=33 time=0
EXTRACT: note_on channel=1 note=64 velocity=33 time=0
EXTRACT: note_on channel=1 note=67 velocity=33 time=0
EXTRACT: note_on channel=1 note=55 velocity=33 time=0
EXTRACT: note_on channel=0 note=62 velocity=0 time=0.49895833333333334
EXTRACT: note_on channel=0 note=64 velocity=80 time=0.0010416666666666667
EXTRACT: note_on channel=0 note=64 velocity=0 time=0.24895833333333334
EXTRACT: note_on channel=0 note=59 velocity=80 time=0.0010416666666666667
EXTRACT: note_on channel=1 note=48 velocity=0 time=0.14895833333333333
EXTRACT: note_on channel=1 note=60 velocity=0 time=0.05
EXTRACT: note_on channel=1 note=64 velocity=0 time=0
EXTRACT: note_on channel=1 note=67 velocity=0 time=0
EXTRACT: note_on channel=1 note=55 velocity=0 time=0
EXTRACT: note_on channel=1 note=55 velocity=33 time=0.051041666666666666
EXTRACT: note_on channel=1 note=59 velocity=33 time=0
EXTRACT: note_on channel=1 note=62 velocity=33 time=0
EXTRACT: note_on channel=1 note=43 velocity=33 time=0
EXTRACT: note_on channel=1 note=50 velocity=33 time=0
EXTRACT: control_change channel=1 control=64 value=0 time=0.0010416666666666667
EXTRACT: control_change channel=1 control=64 value=127 time=0.0010416666666666667
EXTRACT: note_on channel=0 note=59 velocity=0 time=0.24687499999999998
EXTRACT: note_on channel=0 note=57 velocity=80 time=0.0010416666666666667
EXTRACT: note_on channel=0 note=57 velocity=0 time=0.24895833333333334
EXTRACT: note_on channel=0 note=59 velocity=80 time=0.0010416666666666667
EXTRACT: note_on channel=0 note=59 velocity=0 time=0.24895833333333334
EXTRACT: note_on channel=0 note=57 velocity=80 time=0.0010416666666666667
EXTRACT: note_on channel=1 note=55 velocity=0 time=0.19895833333333332
EXTRACT: note_on channel=1 note=59 velocity=0 time=0
EXTRACT: note_on channel=1 note=62 velocity=0 time=0
EXTRACT: note_on channel=1 note=43 velocity=0 time=0
EXTRACT: note_on channel=1 note=50 velocity=0 time=0
EXTRACT: note_on channel=0 note=57 velocity=0 time=0.05
EXTRACT: note_on channel=0 note=55 velocity=80 time=0.0010416666666666667
EXTRACT: note_on channel=1 note=55 velocity=33 time=0
EXTRACT: note_on channel=1 note=59 velocity=33 time=0
EXTRACT: note_on channel=1 note=62 velocity=33 time=0
EXTRACT: note_on channel=1 note=43 velocity=33 time=0
EXTRACT: note_on channel=1 note=50 velocity=33 time=0
EXTRACT: note_on channel=0 note=55 velocity=0 time=0.49895833333333334
EXTRACT: note_on channel=1 note=55 velocity=0 time=0.45
EXTRACT: note_on channel=1 note=59 velocity=0 time=0
EXTRACT: note_on channel=1 note=62 velocity=0 time=0
EXTRACT: note_on channel=1 note=43 velocity=0 time=0
EXTRACT: note_on channel=1 note=50 velocity=0 time=0
EXTRACT: note_on channel=0 note=59 velocity=80 time=0.051041666666666666
EXTRACT: note_on channel=1 note=64 velocity=33 time=0
EXTRACT: note_on channel=1 note=67 velocity=33 time=0
EXTRACT: note_on channel=1 note=71 velocity=33 time=0
EXTRACT: note_on channel=1 note=52 velocity=33 time=0
EXTRACT: note_on channel=1 note=59 velocity=33 time=0
EXTRACT: control_change channel=1 control=64 value=0 time=0.0010416666666666667
EXTRACT: control_change channel=1 control=64 value=127 time=0.0010416666666666667
EXTRACT: note_on channel=0 note=59 velocity=0 time=0.24687499999999998
EXTRACT: note_on channel=0 note=62 velocity=80 time=0.0010416666666666667
EXTRACT: note_on channel=0 note=62 velocity=0 time=0.24895833333333334
EXTRACT: note_on channel=0 note=62 velocity=80 time=0.0010416666666666667
EXTRACT: note_on channel=0 note=62 velocity=0 time=0.24895833333333334
EXTRACT: note_on channel=0 note=59 velocity=80 time=0.0010416666666666667
EXTRACT: note_on channel=0 note=59 velocity=0 time=0.24895833333333334
EXTRACT: note_on channel=0 note=62 velocity=80 time=0.0010416666666666667
EXTRACT: note_on channel=0 note=62 velocity=0 time=0.7489583333333333
EXTRACT: note_on channel=0 note=55 velocity=80 time=0.0010416666666666667
EXTRACT: note_on channel=1 note=64 velocity=0 time=0.14895833333333333
EXTRACT: note_on channel=1 note=67 velocity=0 time=0
EXTRACT: note_on channel=1 note=71 velocity=0 time=0
EXTRACT: note_on channel=1 note=52 velocity=0 time=0
EXTRACT: note_on channel=1 note=59 velocity=0 time=0
EXTRACT: note_on channel=0 note=55 velocity=0 time=0.1
EXTRACT: note_on channel=0 note=59 velocity=80 time=0.0010416666666666667
EXTRACT: note_on channel=1 note=62 velocity=33 time=0
EXTRACT: note_on channel=1 note=67 velocity=33 time=0
EXTRACT: note_on channel=1 note=71 velocity=33 time=0
EXTRACT: note_on channel=1 note=50 velocity=33 time=0
EXTRACT: note_on channel=1 note=59 velocity=33 time=0
EXTRACT: control_change channel=1 control=64 value=0 time=0.0010416666666666667
EXTRACT: control_change channel=1 control=64 value=127 time=0.0010416666666666667
EXTRACT: note_on channel=0 note=59 velocity=0 time=0.3302083333333333
EXTRACT: note_on channel=0 note=62 velocity=80 time=0.0010416666666666667
EXTRACT: note_on channel=0 note=62 velocity=0 time=0.33229166666666665
EXTRACT: note_on channel=0 note=62 velocity=80 time=0.0010416666666666667
EXTRACT: note_on channel=0 note=62 velocity=0 time=0.33229166666666665
EXTRACT: note_on channel=0 note=62 velocity=80 time=0.0010416666666666667
EXTRACT: note_on channel=0 note=62 velocity=0 time=0.49895833333333334
EXTRACT: note_on channel=0 note=55 velocity=80 time=0.25104166666666666
EXTRACT: note_on channel=1 note=62 velocity=0 time=0.14895833333333333
EXTRACT: note_on channel=1 note=67 velocity=0 time=0
EXTRACT: note_on channel=1 note=71 velocity=0 time=0
EXTRACT: note_on channel=1 note=50 velocity=0 time=0
EXTRACT: note_on channel=1 note=59 velocity=0 time=0
EXTRACT: note_on channel=0 note=55 velocity=0 time=0.1
EXTRACT: note_on channel=0 note=59 velocity=80 time=0.0010416666666666667
EXTRACT: note_on channel=1 note=60 velocity=33 time=0
EXTRACT: note_on channel=1 note=64 velocity=33 time=0
EXTRACT: note_on channel=1 note=67 velocity=33 time=0
EXTRACT: note_on channel=1 note=48 velocity=33 time=0
EXTRACT: note_on channel=1 note=55 velocity=33 time=0
EXTRACT: control_change channel=1 control=64 value=0 time=0.0010416666666666667
EXTRACT: control_change channel=1 control=64 value=127 time=0.0010416666666666667
EXTRACT: note_on channel=0 note=59 velocity=0 time=0.3302083333333333
EXTRACT: note_on channel=0 note=62 velocity=80 time=0.0010416666666666667
EXTRACT: note_on channel=0 note=62 velocity=0 time=0.33229166666666665
EXTRACT: note_on channel=0 note=64 velocity=80 time=0.0010416666666666667
EXTRACT: note_on channel=0 note=64 velocity=0 time=0.33229166666666665
EXTRACT: note_on channel=0 note=59 velocity=80 time=0.0010416666666666667
EXTRACT: note_on channel=0 note=59 velocity=0 time=0.49895833333333334
EXTRACT: note_on channel=0 note=57 velocity=80 time=0.0010416666666666667
EXTRACT: note_on channel=0 note=57 velocity=0 time=0.24895833333333334
EXTRACT: note_on channel=0 note=55 velocity=80 time=0.0010416666666666667
EXTRACT: note_on channel=1 note=60 velocity=0 time=0.14895833333333333
EXTRACT: note_on channel=1 note=64 velocity=0 time=0
EXTRACT: note_on channel=1 note=67 velocity=0 time=0
EXTRACT: note_on channel=1 note=48 velocity=0 time=0
EXTRACT: note_on channel=1 note=55 velocity=0 time=0
EXTRACT: note_on channel=0 note=55 velocity=0 time=0.1
EXTRACT: note_on channel=0 note=55 velocity=80 time=0.0010416666666666667
EXTRACT: note_on channel=1 note=55 velocity=33 time=0
EXTRACT: note_on channel=1 note=59 velocity=33 time=0
EXTRACT: note_on channel=1 note=62 velocity=33 time=0
EXTRACT: note_on channel=1 note=43 velocity=33 time=0
EXTRACT: note_on channel=1 note=50 velocity=33 time=0
EXTRACT: control_change channel=1 control=64 value=0 time=0.0010416666666666667
EXTRACT: control_change channel=1 control=64 value=127 time=0.0010416666666666667
EXTRACT: note_on channel=1 note=50 velocity=0 time=0.946875
EXTRACT: note_on channel=0 note=55 velocity=0 time=0.05
EXTRACT: note_on channel=1 note=50 velocity=33 time=0.0010416666666666667
EXTRACT: note_on channel=1 note=55 velocity=0 time=0.8989583333333333
EXTRACT: note_on channel=1 note=59 velocity=0 time=0
EXTRACT: note_on channel=1 note=62 velocity=0 time=0
EXTRACT: note_on channel=1 note=43 velocity=0 time=0
EXTRACT: note_on channel=1 note=50 velocity=0 time=0.05
EXTRACT: note_on channel=0 note=59 velocity=80 time=0.051041666666666666
EXTRACT: note_on channel=1 note=64 velocity=33 time=0
EXTRACT: note_on channel=1 note=67 velocity=33 time=0
EXTRACT: note_on channel=1 note=71 velocity=33 time=0
EXTRACT: note_on channel=1 note=52 velocity=33 time=0
EXTRACT: note_on channel=1 note=59 velocity=33 time=0
EXTRACT: control_change channel=1 control=64 value=0 time=0.0010416666666666667
EXTRACT: control_change channel=1 control=64 value=127 time=0.0010416666666666667
EXTRACT: note_on channel=0 note=59 velocity=0 time=0.24687499999999998
EXTRACT: note_on channel=0 note=62 velocity=80 time=0.0010416666666666667
EXTRACT: note_on channel=0 note=62 velocity=0 time=0.24895833333333334
EXTRACT: note_on channel=0 note=62 velocity=80 time=0.0010416666666666667
EXTRACT: note_on channel=0 note=62 velocity=0 time=0.24895833333333334
EXTRACT: note_on channel=0 note=59 velocity=80 time=0.0010416666666666667
EXTRACT: note_on channel=0 note=59 velocity=0 time=0.24895833333333334
EXTRACT: note_on channel=0 note=62 velocity=80 time=0.0010416666666666667
EXTRACT: note_on channel=0 note=62 velocity=0 time=0.7489583333333333
EXTRACT: note_on channel=0 note=55 velocity=80 time=0.0010416666666666667
EXTRACT: note_on channel=1 note=64 velocity=0 time=0.14895833333333333
EXTRACT: note_on channel=1 note=67 velocity=0 time=0
EXTRACT: note_on channel=1 note=71 velocity=0 time=0
EXTRACT: note_on channel=1 note=52 velocity=0 time=0
EXTRACT: note_on channel=1 note=59 velocity=0 time=0
EXTRACT: note_on channel=0 note=55 velocity=0 time=0.1
EXTRACT: note_on channel=0 note=59 velocity=80 time=0.0010416666666666667
EXTRACT: note_on channel=1 note=62 velocity=33 time=0
EXTRACT: note_on channel=1 note=67 velocity=33 time=0
EXTRACT: note_on channel=1 note=71 velocity=33 time=0
EXTRACT: note_on channel=1 note=50 velocity=33 time=0
EXTRACT: note_on channel=1 note=59 velocity=33 time=0
EXTRACT: control_change channel=1 control=64 value=0 time=0.0010416666666666667
EXTRACT: control_change channel=1 control=64 value=127 time=0.0010416666666666667
EXTRACT: note_on channel=0 note=59 velocity=0 time=0.3302083333333333
EXTRACT: note_on channel=0 note=62 velocity=80 time=0.0010416666666666667
EXTRACT: note_on channel=0 note=62 velocity=0 time=0.33229166666666665
EXTRACT: note_on channel=0 note=62 velocity=80 time=0.0010416666666666667
EXTRACT: note_on channel=0 note=62 velocity=0 time=0.33229166666666665
EXTRACT: note_on channel=0 note=62 velocity=80 time=0.0010416666666666667
EXTRACT: note_on channel=0 note=62 velocity=0 time=0.49895833333333334
EXTRACT: note_on channel=0 note=55 velocity=80 time=0.25104166666666666
EXTRACT: note_on channel=1 note=62 velocity=0 time=0.14895833333333333
EXTRACT: note_on channel=1 note=67 velocity=0 time=0
EXTRACT: note_on channel=1 note=71 velocity=0 time=0
EXTRACT: note_on channel=1 note=50 velocity=0 time=0
EXTRACT: note_on channel=1 note=59 velocity=0 time=0
EXTRACT: note_on channel=0 note=55 velocity=0 time=0.1
EXTRACT: note_on channel=0 note=59 velocity=80 time=0.0010416666666666667
EXTRACT: note_on channel=1 note=60 velocity=33 time=0
EXTRACT: note_on channel=1 note=64 velocity=33 time=0
EXTRACT: note_on channel=1 note=67 velocity=33 time=0
EXTRACT: note_on channel=1 note=48 velocity=33 time=0
EXTRACT: note_on channel=1 note=55 velocity=33 time=0
EXTRACT: control_change channel=1 control=64 value=0 time=0.0010416666666666667
EXTRACT: control_change channel=1 control=64 value=127 time=0.0010416666666666667
EXTRACT: note_on channel=0 note=59 velocity=0 time=0.3302083333333333
EXTRACT: note_on channel=0 note=62 velocity=80 time=0.0010416666666666667
EXTRACT: note_on channel=0 note=62 velocity=0 time=0.33229166666666665
EXTRACT: note_on channel=0 note=64 velocity=80 time=0.0010416666666666667
EXTRACT: note_on channel=0 note=64 velocity=0 time=0.33229166666666665
EXTRACT: note_on channel=0 note=59 velocity=80 time=0.0010416666666666667
EXTRACT: note_on channel=0 note=59 velocity=0 time=0.49895833333333334
EXTRACT: note_on channel=0 note=57 velocity=80 time=0.0010416666666666667
EXTRACT: note_on channel=0 note=57 velocity=0 time=0.24895833333333334
EXTRACT: note_on channel=0 note=55 velocity=80 time=0.0010416666666666667
EXTRACT: note_on channel=1 note=60 velocity=0 time=0.14895833333333333
EXTRACT: note_on channel=1 note=64 velocity=0 time=0
EXTRACT: note_on channel=1 note=67 velocity=0 time=0
EXTRACT: note_on channel=1 note=48 velocity=0 time=0
EXTRACT: note_on channel=1 note=55 velocity=0 time=0
EXTRACT: note_on channel=0 note=55 velocity=0 time=0.1
EXTRACT: note_on channel=0 note=55 velocity=80 time=0.0010416666666666667
EXTRACT: note_on channel=1 note=55 velocity=33 time=0
EXTRACT: note_on channel=1 note=59 velocity=33 time=0
EXTRACT: note_on channel=1 note=62 velocity=33 time=0
EXTRACT: note_on channel=1 note=43 velocity=33 time=0
EXTRACT: note_on channel=1 note=50 velocity=33 time=0
EXTRACT: control_change channel=1 control=64 value=0 time=0.0010416666666666667
EXTRACT: control_change channel=1 control=64 value=127 time=0.0010416666666666667
EXTRACT: note_on channel=1 note=50 velocity=0 time=0.946875
EXTRACT: note_on channel=0 note=55 velocity=0 time=0.05
EXTRACT: note_on channel=1 note=50 velocity=33 time=0.0010416666666666667
EXTRACT: note_on channel=0 note=55 velocity=80 time=0.75
EXTRACT: note_on channel=1 note=55 velocity=0 time=0.14895833333333333
EXTRACT: note_on channel=1 note=59 velocity=0 time=0
EXTRACT: note_on channel=1 note=62 velocity=0 time=0
EXTRACT: note_on channel=1 note=43 velocity=0 time=0
EXTRACT: note_on channel=1 note=50 velocity=0 time=0.05
EXTRACT: note_on channel=0 note=55 velocity=0 time=0.05
EXTRACT: note_on channel=0 note=59 velocity=80 time=0.0010416666666666667
EXTRACT: note_on channel=1 note=64 velocity=33 time=0
EXTRACT: note_on channel=1 note=67 velocity=33 time=0
EXTRACT: note_on channel=1 note=71 velocity=33 time=0
EXTRACT: note_on channel=1 note=52 velocity=33 time=0
EXTRACT: note_on channel=1 note=59 velocity=33 time=0
EXTRACT: control_change channel=1 control=64 value=0 time=0.0010416666666666667
EXTRACT: control_change channel=1 control=64 value=127 time=0.0010416666666666667
EXTRACT: note_on channel=0 note=59 velocity=0 time=0.24687499999999998
EXTRACT: note_on channel=0 note=58 velocity=80 time=0.0010416666666666667
EXTRACT: note_on channel=0 note=58 velocity=0 time=0.24895833333333334
EXTRACT: note_on channel=0 note=59 velocity=80 time=0.0010416666666666667
EXTRACT: note_on channel=0 note=59 velocity=0 time=0.24895833333333334
EXTRACT: note_on channel=0 note=58 velocity=80 time=0.0010416666666666667
EXTRACT: note_on channel=0 note=58 velocity=0 time=0.24895833333333334
EXTRACT: note_on channel=0 note=59 velocity=80 time=0.0010416666666666667
EXTRACT: note_on channel=0 note=59 velocity=0 time=0.24895833333333334
EXTRACT: note_on channel=0 note=58 velocity=80 time=0.0010416666666666667
EXTRACT: note_on channel=0 note=58 velocity=0 time=0.24895833333333334
EXTRACT: note_on channel=0 note=59 velocity=80 time=0.0010416666666666667
EXTRACT: note_on channel=0 note=59 velocity=0 time=0.24895833333333334
EXTRACT: note_on channel=0 note=58 velocity=80 time=0.0010416666666666667
EXTRACT: note_on channel=1 note=64 velocity=0 time=0.14895833333333333
EXTRACT: note_on channel=1 note=67 velocity=0 time=0
EXTRACT: note_on channel=1 note=71 velocity=0 time=0
EXTRACT: note_on channel=1 note=52 velocity=0 time=0
EXTRACT: note_on channel=1 note=59 velocity=0 time=0
EXTRACT: note_on channel=0 note=58 velocity=0 time=0.1
EXTRACT: note_on channel=0 note=59 velocity=80 time=0.0010416666666666667
EXTRACT: note_on channel=1 note=62 velocity=33 time=0
EXTRACT: note_on channel=1 note=67 velocity=33 time=0
EXTRACT: note_on channel=1 note=71 velocity=33 time=0
EXTRACT: note_on channel=1 note=50 velocity=33 time=0
EXTRACT: note_on channel=1 note=59 velocity=33 time=0
EXTRACT: control_change channel=1 control=64 value=0 time=0.0010416666666666667
EXTRACT: control_change channel=1 control=64 value=127 time=0.0010416666666666667
EXTRACT: note_on channel=0 note=59 velocity=0 time=0.24687499999999998
EXTRACT: note_on channel=0 note=57 velocity=80 time=0.0010416666666666667
EXTRACT: note_on channel=0 note=57 velocity=0 time=0.24895833333333334
EXTRACT: note_on channel=0 note=59 velocity=80 time=0.0010416666666666667
EXTRACT: note_on channel=0 note=59 velocity=0 time=0.12395833333333334
EXTRACT: note_on channel=0 note=62 velocity=80 time=0.0010416666666666667
EXTRACT: note_on channel=0 note=62 velocity=0 time=0.37395833333333334
EXTRACT: note_on channel=0 note=62 velocity=80 time=0.0010416666666666667
EXTRACT: note_on channel=0 note=62 velocity=0 time=0.7489583333333333
EXTRACT: note_on channel=0 note=62 velocity=80 time=0.0010416666666666667
EXTRACT: note_on channel=1 note=62 velocity=0 time=0.14895833333333333
EXTRACT: note_on channel=1 note=67 velocity=0 time=0
EXTRACT: note_on channel=1 note=71 velocity=0 time=0
EXTRACT: note_on channel=1 note=50 velocity=0 time=0
EXTRACT: note_on channel=1 note=59 velocity=0 time=0
EXTRACT: note_on channel=0 note=62 velocity=0 time=0.1
EXTRACT: note_on channel=0 note=64 velocity=80 time=0.0010416666666666667
EXTRACT: note_on channel=1 note=60 velocity=33 time=0
EXTRACT: note_on channel=1 note=64 velocity=33 time=0
EXTRACT: note_on channel=1 note=67 velocity=33 time=0
EXTRACT: note_on channel=1 note=48 velocity=33 time=0
EXTRACT: note_on channel=1 note=55 velocity=33 time=0
EXTRACT: control_change channel=1 control=64 value=0 time=0.0010416666666666667
EXTRACT: control_change channel=1 control=64 value=127 time=0.0010416666666666667
EXTRACT: note_on channel=0 note=64 velocity=0 time=0.24687499999999998
EXTRACT: note_on channel=0 note=67 velocity=80 time=0.0010416666666666667
EXTRACT: note_on channel=0 note=67 velocity=0 time=0.24895833333333334
EXTRACT: note_on channel=0 note=64 velocity=80 time=0.0010416666666666667
EXTRACT: note_on channel=0 note=64 velocity=0 time=0.24895833333333334
EXTRACT: note_on channel=0 note=62 velocity=80 time=0.0010416666666666667
EXTRACT: note_on channel=0 note=62 velocity=0 time=0.24895833333333334
EXTRACT: note_on channel=0 note=59 velocity=80 time=0.0010416666666666667
EXTRACT: note_on channel=0 note=59 velocity=0 time=0.24895833333333334
EXTRACT: note_on channel=0 note=59 velocity=80 time=0.0010416666666666667
EXTRACT: note_on channel=0 note=59 velocity=0 time=0.49895833333333334
EXTRACT: note_on channel=0 note=57 velocity=80 time=0.0010416666666666667
EXTRACT: note_on channel=1 note=60 velocity=0 time=0.14895833333333333
EXTRACT: note_on channel=1 note=64 velocity=0 time=0
EXTRACT: note_on channel=1 note=67 velocity=0 time=0
EXTRACT: note_on channel=1 note=48 velocity=0 time=0
EXTRACT: note_on channel=1 note=55 velocity=0 time=0
EXTRACT: note_on channel=0 note=57 velocity=0 time=0.1
EXTRACT: note_on channel=0 note=59 velocity=80 time=0.0010416666666666667
EXTRACT: note_on channel=1 note=55 velocity=33 time=0
EXTRACT: note_on channel=1 note=59 velocity=33 time=0
EXTRACT: note_on channel=1 note=62 velocity=33 time=0
EXTRACT: note_on channel=1 note=43 velocity=33 time=0
EXTRACT: note_on channel=1 note=50 velocity=33 time=0
EXTRACT: control_change channel=1 control=64 value=0 time=0.0010416666666666667
EXTRACT: control_change channel=1 control=64 value=127 time=0.0010416666666666667
EXTRACT: note_on channel=0 note=59 velocity=0 time=0.746875
EXTRACT: note_on channel=0 note=57 velocity=80 time=0.0010416666666666667
EXTRACT: note_on channel=0 note=57 velocity=0 time=0.24895833333333334
EXTRACT: note_on channel=0 note=55 velocity=80 time=0.0010416666666666667
EXTRACT: note_on channel=0 note=55 velocity=0 time=0.49895833333333334
EXTRACT: note_on channel=0 note=55 velocity=80 time=0.25104166666666666
EXTRACT: note_on channel=1 note=55 velocity=0 time=0.14895833333333333
EXTRACT: note_on channel=1 note=59 velocity=0 time=0
EXTRACT: note_on channel=1 note=62 velocity=0 time=0
EXTRACT: note_on channel=1 note=43 velocity=0 time=0
EXTRACT: note_on channel=1 note=50 velocity=0 time=0
EXTRACT: note_on channel=0 note=55 velocity=0 time=0.1
EXTRACT: note_on channel=0 note=59 velocity=80 time=0.0010416666666666667
EXTRACT: note_on channel=1 note=64 velocity=33 time=0
EXTRACT: note_on channel=1 note=67 velocity=33 time=0
EXTRACT: note_on channel=1 note=71 velocity=33 time=0
EXTRACT: note_on channel=1 note=52 velocity=33 time=0
EXTRACT: note_on channel=1 note=59 velocity=33 time=0
EXTRACT: control_change channel=1 control=64 value=0 time=0.0010416666666666667
EXTRACT: control_change channel=1 control=64 value=127 time=0.0010416666666666667
EXTRACT: note_on channel=0 note=59 velocity=0 time=0.24687499999999998
EXTRACT: note_on channel=0 note=58 velocity=80 time=0.0010416666666666667
EXTRACT: note_on channel=0 note=58 velocity=0 time=0.24895833333333334
EXTRACT: note_on channel=0 note=59 velocity=80 time=0.0010416666666666667
EXTRACT: note_on channel=0 note=59 velocity=0 time=0.24895833333333334
EXTRACT: note_on channel=0 note=58 velocity=80 time=0.0010416666666666667
EXTRACT: note_on channel=0 note=58 velocity=0 time=0.24895833333333334
EXTRACT: note_on channel=0 note=59 velocity=80 time=0.0010416666666666667
EXTRACT: note_on channel=0 note=59 velocity=0 time=0.24895833333333334
EXTRACT: note_on channel=0 note=58 velocity=80 time=0.0010416666666666667
EXTRACT: note_on channel=0 note=58 velocity=0 time=0.24895833333333334
EXTRACT: note_on channel=0 note=59 velocity=80 time=0.0010416666666666667
EXTRACT: note_on channel=1 note=64 velocity=0 time=0.3989583333333333
EXTRACT: note_on channel=1 note=67 velocity=0 time=0
EXTRACT: note_on channel=1 note=71 velocity=0 time=0
EXTRACT: note_on channel=1 note=52 velocity=0 time=0
EXTRACT: note_on channel=1 note=59 velocity=0 time=0
EXTRACT: note_on channel=0 note=59 velocity=0 time=0.1
EXTRACT: note_on channel=0 note=59 velocity=80 time=0.0010416666666666667
EXTRACT: note_on channel=1 note=62 velocity=33 time=0
EXTRACT: note_on channel=1 note=67 velocity=33 time=0
EXTRACT: note_on channel=1 note=71 velocity=33 time=0
EXTRACT: note_on channel=1 note=50 velocity=33 time=0
EXTRACT: note_on channel=1 note=59 velocity=33 time=0
EXTRACT: control_change channel=1 control=64 value=0 time=0.0010416666666666667
EXTRACT: control_change channel=1 control=64 value=127 time=0.0010416666666666667
EXTRACT: note_on channel=0 note=59 velocity=0 time=0.16354166666666667
EXTRACT: note_on channel=0 note=57 velocity=80 time=0.0010416666666666667
EXTRACT: note_on channel=0 note=57 velocity=0 time=0.33229166666666665
EXTRACT: note_on channel=0 note=59 velocity=80 time=0.0010416666666666667
EXTRACT: note_on channel=0 note=59 velocity=0 time=0.24895833333333334
EXTRACT: note_on channel=0 note=60 velocity=80 time=0.0010416666666666667
EXTRACT: note_on channel=0 note=60 velocity=0 time=0.24895833333333334
EXTRACT: note_on channel=0 note=62 velocity=80 time=0.0010416666666666667
EXTRACT: note_on channel=0 note=62 velocity=0 time=0.49895833333333334
EXTRACT: note_on channel=1 note=62 velocity=0 time=0.4
EXTRACT: note_on channel=1 note=67 velocity=0 time=0
EXTRACT: note_on channel=1 note=71 velocity=0 time=0
EXTRACT: note_on channel=1 note=50 velocity=0 time=0
EXTRACT: note_on channel=1 note=59 velocity=0 time=0
EXTRACT: note_on channel=0 note=64 velocity=80 time=0.10104166666666667
EXTRACT: note_on channel=1 note=60 velocity=33 time=0
EXTRACT: note_on channel=1 note=64 velocity=33 time=0
EXTRACT: note_on channel=1 note=67 velocity=33 time=0
EXTRACT: note_on channel=1 note=48 velocity=33 time=0
EXTRACT: note_on channel=1 note=55 velocity=33 time=0
EXTRACT: control_change channel=1 control=64 value=0 time=0.0010416666666666667
EXTRACT: control_change channel=1 control=64 value=127 time=0.0010416666666666667
EXTRACT: note_on channel=0 note=64 velocity=0 time=0.3302083333333333
EXTRACT: note_on channel=0 note=67 velocity=80 time=0.0010416666666666667
EXTRACT: note_on channel=0 note=67 velocity=0 time=0.33229166666666665
EXTRACT: note_on channel=0 note=69 velocity=80 time=0.0010416666666666667
EXTRACT: note_on channel=0 note=69 velocity=0 time=0.33229166666666665
EXTRACT: note_on channel=0 note=71 velocity=80 time=0.0010416666666666667
EXTRACT: note_on channel=0 note=71 velocity=0 time=0.33229166666666665
EXTRACT: note_on channel=0 note=69 velocity=80 time=0.0010416666666666667
EXTRACT: note_on channel=0 note=69 velocity=0 time=0.33229166666666665
EXTRACT: note_on channel=0 note=67 velocity=80 time=0.0010416666666666667
EXTRACT: note_on channel=1 note=60 velocity=0 time=0.23229166666666667
EXTRACT: note_on channel=1 note=64 velocity=0 time=0
EXTRACT: note_on channel=1 note=67 velocity=0 time=0
EXTRACT: note_on channel=1 note=48 velocity=0 time=0
EXTRACT: note_on channel=1 note=55 velocity=0 time=0
EXTRACT: note_on channel=0 note=67 velocity=0 time=0.1
EXTRACT: note_on channel=0 note=67 velocity=80 time=0.0010416666666666667
EXTRACT: note_on channel=1 note=55 velocity=33 time=0
EXTRACT: note_on channel=1 note=59 velocity=33 time=0
EXTRACT: note_on channel=1 note=62 velocity=33 time=0
EXTRACT: note_on channel=1 note=43 velocity=33 time=0
EXTRACT: note_on channel=1 note=50 velocity=33 time=0
EXTRACT: control_change channel=1 control=64 value=0 time=0.0010416666666666667
EXTRACT: control_change channel=1 control=64 value=127 time=0.0010416666666666667
EXTRACT: note_on channel=0 note=67 velocity=0 time=0.496875
EXTRACT: note_on channel=0 note=62 velocity=80 time=0.0010416666666666667
EXTRACT: note_on channel=0 note=62 velocity=0 time=0.49895833333333334
EXTRACT: note_on channel=0 note=67 velocity=80 time=0.0010416666666666667
EXTRACT: note_on channel=0 note=67 velocity=0 time=0.49895833333333334
EXTRACT: note_on channel=0 note=57 velocity=80 time=0.0010416666666666667
EXTRACT: note_on channel=0 note=57 velocity=0 time=0.24895833333333334
EXTRACT: note_on channel=0 note=57 velocity=80 time=0.0010416666666666667
EXTRACT: note_on channel=1 note=55 velocity=0 time=0.14895833333333333
EXTRACT: note_on channel=1 note=59 velocity=0 time=0
EXTRACT: note_on channel=1 note=62 velocity=0 time=0
EXTRACT: note_on channel=1 note=43 velocity=0 time=0
EXTRACT: note_on channel=1 note=50 velocity=0 time=0
EXTRACT: note_on channel=0 note=57 velocity=0 time=0.1
EXTRACT: note_on channel=0 note=59 velocity=80 time=0.0010416666666666667
EXTRACT: note_on channel=1 note=64 velocity=33 time=0
EXTRACT: note_on channel=1 note=67 velocity=33 time=0
EXTRACT: note_on channel=1 note=71 velocity=33 time=0
EXTRACT: note_on channel=1 note=52 velocity=33 time=0
EXTRACT: note_on channel=1 note=59 velocity=33 time=0
EXTRACT: control_change channel=1 control=64 value=0 time=0.0010416666666666667
EXTRACT: control_change channel=1 control=64 value=127 time=0.0010416666666666667
EXTRACT: note_on channel=0 note=59 velocity=0 time=0.371875
EXTRACT: note_on channel=0 note=58 velocity=80 time=0.0010416666666666667
EXTRACT: note_on channel=0 note=58 velocity=0 time=0.12395833333333334
EXTRACT: note_on channel=0 note=59 velocity=80 time=0.0010416666666666667
EXTRACT: note_on channel=0 note=59 velocity=0 time=0.24895833333333334
EXTRACT: note_on channel=0 note=58 velocity=80 time=0.0010416666666666667
EXTRACT: note_on channel=0 note=58 velocity=0 time=0.24895833333333334
EXTRACT: note_on channel=0 note=59 velocity=80 time=0.0010416666666666667
EXTRACT: note_on channel=0 note=59 velocity=0 time=0.49895833333333334
EXTRACT: note_on channel=0 note=57 velocity=80 time=0.25104166666666666
EXTRACT: note_on channel=1 note=64 velocity=0 time=0.14895833333333333
EXTRACT: note_on channel=1 note=67 velocity=0 time=0
EXTRACT: note_on channel=1 note=71 velocity=0 time=0
EXTRACT: note_on channel=1 note=52 velocity=0 time=0
EXTRACT: note_on channel=1 note=59 velocity=0 time=0
EXTRACT: note_on channel=0 note=57 velocity=0 time=0.1
EXTRACT: note_on channel=0 note=59 velocity=80 time=0.0010416666666666667
EXTRACT: note_on channel=1 note=62 velocity=33 time=0
EXTRACT: note_on channel=1 note=67 velocity=33 time=0
EXTRACT: note_on channel=1 note=71 velocity=33 time=0
EXTRACT: note_on channel=1 note=50 velocity=33 time=0
EXTRACT: note_on channel=1 note=59 velocity=33 time=0
EXTRACT: control_change channel=1 control=64 value=0 time=0.0010416666666666667
EXTRACT: control_change channel=1 control=64 value=127 time=0.0010416666666666667
EXTRACT: note_on channel=0 note=59 velocity=0 time=0.121875
EXTRACT: note_on channel=0 note=62 velocity=80 time=0.0010416666666666667
EXTRACT: note_on channel=0 note=62 velocity=0 time=0.37395833333333334
EXTRACT: note_on channel=0 note=64 velocity=80 time=0.0010416666666666667
EXTRACT: note_on channel=0 note=64 velocity=0 time=0.49895833333333334
EXTRACT: note_on channel=0 note=62 velocity=80 time=0.0010416666666666667
EXTRACT: note_on channel=0 note=62 velocity=0 time=0.7489583333333333
EXTRACT: note_on channel=0 note=62 velocity=80 time=0.0010416666666666667
EXTRACT: note_on channel=1 note=62 velocity=0 time=0.14895833333333333
EXTRACT: note_on channel=1 note=67 velocity=0 time=0
EXTRACT: note_on channel=1 note=71 velocity=0 time=0
EXTRACT: note_on channel=1 note=50 velocity=0 time=0
EXTRACT: note_on channel=1 note=59 velocity=0 time=0
EXTRACT: note_on channel=0 note=62 velocity=0 time=0.1
EXTRACT: note_on channel=0 note=64 velocity=80 time=0.0010416666666666667
EXTRACT: note_on channel=1 note=60 velocity=33 time=0
EXTRACT: note_on channel=1 note=64 velocity=33 time=0
EXTRACT: note_on channel=1 note=67 velocity=33 time=0
EXTRACT: note_on channel=1 note=48 velocity=33 time=0
EXTRACT: note_on channel=1 note=55 velocity=33 time=0
EXTRACT: control_change channel=1 control=64 value=0 time=0.0010416666666666667
EXTRACT: control_change channel=1 control=64 value=127 time=0.0010416666666666667
EXTRACT: note_on channel=0 note=64 velocity=0 time=0.3302083333333333
EXTRACT: note_on channel=0 note=62 velocity=80 time=0.0010416666666666667
EXTRACT: note_on channel=0 note=62 velocity=0 time=0.33229166666666665
EXTRACT: note_on channel=0 note=59 velocity=80 time=0.0010416666666666667
EXTRACT: note_on channel=0 note=59 velocity=0 time=0.33229166666666665
EXTRACT: note_on channel=0 note=64 velocity=80 time=0.0010416666666666667
EXTRACT: note_on channel=0 note=64 velocity=0 time=0.24895833333333334
EXTRACT: note_on channel=0 note=62 velocity=80 time=0.0010416666666666667
EXTRACT: note_on channel=0 note=62 velocity=0 time=0.24895833333333334
EXTRACT: note_on channel=0 note=59 velocity=80 time=0.0010416666666666667
EXTRACT: note_on channel=0 note=59 velocity=0 time=0.24895833333333334
EXTRACT: note_on channel=0 note=60 velocity=80 time=0.0010416666666666667
EXTRACT: note_on channel=1 note=60 velocity=0 time=0.14895833333333333
EXTRACT: note_on channel=1 note=64 velocity=0 time=0
EXTRACT: note_on channel=1 note=67 velocity=0 time=0
EXTRACT: note_on channel=1 note=48 velocity=0 time=0
EXTRACT: note_on channel=1 note=55 velocity=0 time=0
EXTRACT: note_on channel=0 note=60 velocity=0 time=0.1
EXTRACT: note_on channel=0 note=62 velocity=80 time=0.0010416666666666667
EXTRACT: note_on channel=1 note=55 velocity=33 time=0
EXTRACT: note_on channel=1 note=59 velocity=33 time=0
EXTRACT: note_on channel=1 note=62 velocity=33 time=0
EXTRACT: note_on channel=1 note=43 velocity=33 time=0
EXTRACT: note_on channel=1 note=50 velocity=33 time=0
EXTRACT: control_change channel=1 control=64 value=0 time=0.0010416666666666667
EXTRACT: control_change channel=1 control=64 value=127 time=0.0010416666666666667
EXTRACT: note_on channel=0 note=62 velocity=0 time=0.746875
EXTRACT: note_on channel=0 note=59 velocity=80 time=0.0010416666666666667
EXTRACT: note_on channel=0 note=59 velocity=0 time=0.24895833333333334
EXTRACT: note_on channel=0 note=59 velocity=80 time=0.0010416666666666667
EXTRACT: note_on channel=0 note=59 velocity=0 time=0.49895833333333334
EXTRACT: note_on channel=1 note=55 velocity=0 time=0.4
EXTRACT: note_on channel=1 note=59 velocity=0 time=0
EXTRACT: note_on channel=1 note=62 velocity=0 time=0
EXTRACT: note_on channel=1 note=43 velocity=0 time=0
EXTRACT: note_on channel=1 note=50 velocity=0 time=0
EXTRACT: note_on channel=0 note=59 velocity=80 time=0.10104166666666667
EXTRACT: note_on channel=1 note=64 velocity=33 time=0
EXTRACT: note_on channel=1 note=67 velocity=33 time=0
EXTRACT: note_on channel=1 note=71 velocity=33 time=0
EXTRACT: note_on channel=1 note=52 velocity=33 time=0
EXTRACT: note_on channel=1 note=59 velocity=33 time=0
EXTRACT: control_change channel=1 control=64 value=0 time=0.0010416666666666667
EXTRACT: control_change channel=1 control=64 value=127 time=0.0010416666666666667
EXTRACT: note_on channel=0 note=59 velocity=0 time=0.24687499999999998
EXTRACT: note_on channel=0 note=57 velocity=80 time=0.0010416666666666667
EXTRACT: note_on channel=0 note=57 velocity=0 time=0.24895833333333334
EXTRACT: note_on channel=0 note=59 velocity=80 time=0.0010416666666666667
EXTRACT: note_on channel=0 note=59 velocity=0 time=0.49895833333333334
EXTRACT: note_on channel=0 note=59 velocity=80 time=0.0010416666666666667
EXTRACT: note_on channel=0 note=59 velocity=0 time=0.49895833333333334
EXTRACT: note_on channel=0 note=62 velocity=80 time=0.0010416666666666667
EXTRACT: note_on channel=1 note=64 velocity=0 time=0.3989583333333333
EXTRACT: note_on channel=1 note=67 velocity=0 time=0
EXTRACT: note_on channel=1 note=71 velocity=0 time=0
EXTRACT: note_on channel=1 note=52 velocity=0 time=0
EXTRACT: note_on channel=1 note=59 velocity=0 time=0
EXTRACT: note_on channel=0 note=62 velocity=0 time=0.1
EXTRACT: note_on channel=0 note=64 velocity=80 time=0.0010416666666666667
EXTRACT: note_on channel=1 note=62 velocity=33 time=0
EXTRACT: note_on channel=1 note=67 velocity=33 time=0
EXTRACT: note_on channel=1 note=71 velocity=33 time=0
EXTRACT: note_on channel=1 note=50 velocity=33 time=0
EXTRACT: note_on channel=1 note=59 velocity=33 time=0
EXTRACT: control_change channel=1 control=64 value=0 time=0.0010416666666666667
EXTRACT: control_change channel=1 control=64 value=127 time=0.0010416666666666667
EXTRACT: note_on channel=0 note=64 velocity=0 time=0.746875
EXTRACT: note_on channel=0 note=59 velocity=80 time=0.0010416666666666667
EXTRACT: note_on channel=0 note=59 velocity=0 time=0.24895833333333334
EXTRACT: note_on channel=0 note=59 velocity=80 time=0.0010416666666666667
EXTRACT: note_on channel=0 note=59 velocity=0 time=0.49895833333333334
EXTRACT: note_on channel=1 note=62 velocity=0 time=0.4
EXTRACT: note_on channel=1 note=67 velocity=0 time=0
EXTRACT: note_on channel=1 note=71 velocity=0 time=0
EXTRACT: note_on channel=1 note=50 velocity=0 time=0
EXTRACT: note_on channel=1 note=59 velocity=0 time=0
EXTRACT: note_on channel=0 note=64 velocity=80 time=0.10104166666666667
EXTRACT: note_on channel=1 note=60 velocity=33 time=0
EXTRACT: note_on channel=1 note=64 velocity=33 time=0
EXTRACT: note_on channel=1 note=67 velocity=33 time=0
EXTRACT: note_on channel=1 note=48 velocity=33 time=0
EXTRACT: note_on channel=1 note=55 velocity=33 time=0
EXTRACT: control_change channel=1 control=64 value=0 time=0.0010416666666666667
EXTRACT: control_change channel=1 control=64 value=127 time=0.0010416666666666667
EXTRACT: note_on channel=0 note=64 velocity=0 time=0.3302083333333333
EXTRACT: note_on channel=0 note=67 velocity=80 time=0.0010416666666666667
EXTRACT: note_on channel=0 note=67 velocity=0 time=0.33229166666666665
EXTRACT: note_on channel=0 note=64 velocity=80 time=0.0010416666666666667
EXTRACT: note_on channel=0 note=64 velocity=0 time=0.33229166666666665
EXTRACT: note_on channel=0 note=62 velocity=80 time=0.0010416666666666667
EXTRACT: note_on channel=0 note=62 velocity=0 time=0.33229166666666665
EXTRACT: note_on channel=0 note=59 velocity=80 time=0.0010416666666666667
EXTRACT: note_on channel=0 note=59 velocity=0 time=0.33229166666666665
EXTRACT: note_on channel=0 note=57 velocity=80 time=0.0010416666666666667
EXTRACT: note_on channel=1 note=60 velocity=0 time=0.23229166666666667
EXTRACT: note_on channel=1 note=64 velocity=0 time=0
EXTRACT: note_on channel=1 note=67 velocity=0 time=0
EXTRACT: note_on channel=1 note=48 velocity=0 time=0
EXTRACT: note_on channel=1 note=55 velocity=0 time=0
EXTRACT: note_on channel=0 note=57 velocity=0 time=0.1
EXTRACT: note_on channel=0 note=59 velocity=80 time=0.0010416666666666667
EXTRACT: note_on channel=1 note=55 velocity=33 time=0
EXTRACT: note_on channel=1 note=59 velocity=33 time=0
EXTRACT: note_on channel=1 note=62 velocity=33 time=0
EXTRACT: note_on channel=1 note=43 velocity=33 time=0
EXTRACT: note_on channel=1 note=50 velocity=33 time=0
EXTRACT: control_change channel=1 control=64 value=0 time=0.0010416666666666667
EXTRACT: control_change channel=1 control=64 value=127 time=0.0010416666666666667
EXTRACT: note_on channel=0 note=59 velocity=0 time=0.496875
EXTRACT: note_on channel=0 note=57 velocity=80 time=0.0010416666666666667
EXTRACT: note_on channel=0 note=57 velocity=0 time=0.49895833333333334
EXTRACT: note_on channel=0 note=59 velocity=80 time=0.0010416666666666667
EXTRACT: note_on channel=0 note=59 velocity=0 time=0.49895833333333334
EXTRACT: note_on channel=0 note=60 velocity=80 time=0.0010416666666666667
EXTRACT: note_on channel=1 note=55 velocity=0 time=0.3989583333333333
EXTRACT: note_on channel=1 note=59 velocity=0 time=0
EXTRACT: note_on channel=1 note=62 velocity=0 time=0
EXTRACT: note_on channel=1 note=43 velocity=0 time=0
EXTRACT: note_on channel=1 note=50 velocity=0 time=0
EXTRACT: note_on channel=0 note=60 velocity=0 time=0.1
EXTRACT: note_on channel=0 note=64 velocity=80 time=0.0010416666666666667
EXTRACT: note_on channel=1 note=60 velocity=33 time=0
EXTRACT: note_on channel=1 note=64 velocity=33 time=0
EXTRACT: note_on channel=1 note=67 velocity=33 time=0
EXTRACT: note_on channel=1 note=48 velocity=33 time=0
EXTRACT: note_on channel=1 note=55 velocity=33 time=0
EXTRACT: control_change channel=1 control=64 value=0 time=0.0010416666666666667
EXTRACT: control_change channel=1 control=64 value=127 time=0.0010416666666666667
EXTRACT: note_on channel=0 note=64 velocity=0 time=0.996875
EXTRACT: note_on channel=0 note=62 velocity=80 time=0.0010416666666666667
EXTRACT: note_on channel=0 note=62 velocity=0 time=0.9989583333333333
EXTRACT: note_on channel=0 note=67 velocity=80 time=0.0010416666666666667
EXTRACT: note_on channel=1 note=60 velocity=0 time=0.8489583333333334
EXTRACT: note_on channel=1 note=64 velocity=0 time=0
EXTRACT: note_on channel=1 note=67 velocity=0 time=0
EXTRACT: note_on channel=1 note=48 velocity=0 time=0
EXTRACT: note_on channel=1 note=55 velocity=0 time=0
EXTRACT: note_on channel=0 note=67 velocity=0 time=0.15
EXTRACT: note_on channel=0 note=69 velocity=80 time=0.0010416666666666667
EXTRACT: note_on channel=1 note=60 velocity=33 time=0
EXTRACT: note_on channel=1 note=64 velocity=33 time=0
EXTRACT: note_on channel=1 note=67 velocity=33 time=0
EXTRACT: note_on channel=1 note=48 velocity=33 time=0
EXTRACT: note_on channel=1 note=55 velocity=33 time=0
EXTRACT: note_on channel=1 note=60 velocity=0 time=0.9489583333333333
EXTRACT: note_on channel=1 note=64 velocity=0 time=0
EXTRACT: note_on channel=1 note=67 velocity=0 time=0
EXTRACT: note_on channel=1 note=48 velocity=0 time=0
EXTRACT: note_on channel=1 note=55 velocity=0 time=0
EXTRACT: note_on channel=0 note=69 velocity=0 time=0.05
EXTRACT: note_on channel=0 note=69 velocity=80 time=0.0010416666666666667
EXTRACT: note_on channel=1 note=62 velocity=33 time=0
EXTRACT: note_on channel=1 note=66 velocity=33 time=0
EXTRACT: note_on channel=1 note=69 velocity=33 time=0
EXTRACT: note_on channel=1 note=50 velocity=33 time=0
EXTRACT: note_on channel=1 note=57 velocity=33 time=0
EXTRACT: control_change channel=1 control=64 value=0 time=0.0010416666666666667
EXTRACT: control_change channel=1 control=64 value=127 time=0.0010416666666666667
EXTRACT: note_on channel=0 note=69 velocity=0 time=0.996875
EXTRACT: note_on channel=1 note=62 velocity=0 time=0.9
EXTRACT: note_on channel=1 note=66 velocity=0 time=0
EXTRACT: note_on channel=1 note=69 velocity=0 time=0
EXTRACT: note_on channel=1 note=50 velocity=0 time=0
EXTRACT: note_on channel=1 note=57 velocity=0 time=0
EXTRACT: note_on channel=1 note=50 velocity=33 time=0.10104166666666667
EXTRACT: control_change channel=1 control=64 value=0 time=0.0010416666666666667
EXTRACT: control_change channel=1 control=64 value=127 time=0.0010416666666666667
EXTRACT: note_on channel=1 note=50 velocity=0 time=0.234375
EXTRACT: note_on channel=1 note=54 velocity=33 time=0.013541666666666667
EXTRACT: note_on channel=1 note=54 velocity=0 time=0.23645833333333333
EXTRACT: note_on channel=1 note=57 velocity=33 time=0.013541666666666667
EXTRACT: note_on channel=1 note=57 velocity=0 time=0.23645833333333333
EXTRACT: note_on channel=1 note=62 velocity=33 time=0.013541666666666667
EXTRACT: note_on channel=1 note=62 velocity=0 time=0.23645833333333333
EXTRACT: note_on channel=1 note=66 velocity=33 time=0.013541666666666667
EXTRACT: note_on channel=1 note=66 velocity=0 time=0.23645833333333333
EXTRACT: note_on channel=1 note=62 velocity=33 time=0.013541666666666667
EXTRACT: note_on channel=1 note=62 velocity=0 time=0.23645833333333333
EXTRACT: note_on channel=1 note=66 velocity=33 time=0.013541666666666667
EXTRACT: note_on channel=1 note=66 velocity=0 time=0.23645833333333333
EXTRACT: note_on channel=1 note=69 velocity=33 time=0.013541666666666667
EXTRACT: note_on channel=1 note=69 velocity=0 time=0.23645833333333333
EXTRACT: note_on channel=1 note=64 velocity=33 time=0.013541666666666667
EXTRACT: note_on channel=1 note=67 velocity=33 time=0
EXTRACT: note_on channel=1 note=71 velocity=33 time=0
EXTRACT: note_on channel=1 note=52 velocity=33 time=0
EXTRACT: note_on channel=1 note=59 velocity=33 time=0
EXTRACT: control_change channel=1 control=64 value=0 time=0.0010416666666666667
EXTRACT: control_change channel=1 control=64 value=127 time=0.0010416666666666667
EXTRACT: note_on channel=0 note=59 velocity=80 time=0.24791666666666667
EXTRACT: note_on channel=0 note=59 velocity=0 time=0.24895833333333334
EXTRACT: note_on channel=0 note=57 velocity=80 time=0.0010416666666666667
EXTRACT: note_on channel=0 note=57 velocity=0 time=0.24895833333333334
EXTRACT: note_on channel=0 note=59 velocity=80 time=0.0010416666666666667
EXTRACT: note_on channel=1 note=64 velocity=0 time=0.19895833333333332
EXTRACT: note_on channel=1 note=67 velocity=0 time=0
EXTRACT: note_on channel=1 note=71 velocity=0 time=0
EXTRACT: note_on channel=1 note=59 velocity=0 time=0
EXTRACT: note_on channel=0 note=59 velocity=0 time=0.05
EXTRACT: note_on channel=0 note=62 velocity=80 time=0.0010416666666666667
EXTRACT: note_on channel=1 note=64 velocity=33 time=0
EXTRACT: note_on channel=1 note=67 velocity=33 time=0
EXTRACT: note_on channel=1 note=71 velocity=33 time=0
EXTRACT: note_on channel=1 note=59 velocity=33 time=0
EXTRACT: note_on channel=0 note=62 velocity=0 time=0.49895833333333334
EXTRACT: note_on channel=0 note=55 velocity=80 time=0.0010416666666666667
EXTRACT: note_on channel=1 note=52 velocity=0 time=0.3989583333333333
EXTRACT: note_on channel=1 note=64 velocity=0 time=0.05
EXTRACT: note_on channel=1 note=67 velocity=0 time=0
EXTRACT: note_on channel=1 note=71 velocity=0 time=0
EXTRACT: note_on channel=1 note=59 velocity=0 time=0
EXTRACT: note_on channel=1 note=62 velocity=33 time=0.051041666666666666
EXTRACT: note_on channel=1 note=67 velocity=33 time=0
EXTRACT: note_on channel=1 note=71 velocity=33 time=0
EXTRACT: note_on channel=1 note=50 velocity=33 time=0
EXTRACT: note_on channel=1 note=59 velocity=33 time=0
EXTRACT: control_change channel=1 control=64 value=0 time=0.0010416666666666667
EXTRACT: control_change channel=1 control=64 value=127 time=0.0010416666666666667
EXTRACT: note_on channel=0 note=55 velocity=0 time=0.24687499999999998
EXTRACT: note_on channel=0 note=59 velocity=80 time=0.0010416666666666667
EXTRACT: note_on channel=0 note=59 velocity=0 time=0.24895833333333334
EXTRACT: note_on channel=0 note=57 velocity=80 time=0.0010416666666666667
EXTRACT: note_on channel=0 note=57 velocity=0 time=0.24895833333333334
EXTRACT: note_on channel=0 note=62 velocity=80 time=0.0010416666666666667
EXTRACT: note_on channel=1 note=62 velocity=0 time=0.19895833333333332
EXTRACT: note_on channel=1 note=67 velocity=0 time=0
EXTRACT: note_on channel=1 note=71 velocity=0 time=0
EXTRACT: note_on channel=1 note=59 velocity=0 time=0
EXTRACT: note_on channel=0 note=62 velocity=0 time=0.05
EXTRACT: note_on channel=0 note=59 velocity=80 time=0.0010416666666666667
EXTRACT: note_on channel=1 note=62 velocity=33 time=0
EXTRACT: note_on channel=1 note=67 velocity=33 time=0
EXTRACT: note_on channel=1 note=71 velocity=33 time=0
EXTRACT: note_on channel=1 note=59 velocity=33 time=0
EXTRACT: note_on channel=0 note=59 velocity=0 time=0.49895833333333334
EXTRACT: note_on channel=1 note=50 velocity=0 time=0.4
EXTRACT: note_on channel=1 note=62 velocity=0 time=0.05
EXTRACT: note_on channel=1 note=67 velocity=0 time=0
EXTRACT: note_on channel=1 note=71 velocity=0 time=0
EXTRACT: note_on channel=1 note=59 velocity=0 time=0
EXTRACT: note_on channel=0 note=60 velocity=80 time=0.051041666666666666
EXTRACT: note_on channel=1 note=60 velocity=33 time=0
EXTRACT: note_on channel=1 note=64 velocity=33 time=0
EXTRACT: note_on channel=1 note=67 velocity=33 time=0
EXTRACT: note_on channel=1 note=48 velocity=33 time=0
EXTRACT: note_on channel=1 note=55 velocity=33 time=0
EXTRACT: control_change channel=1 control=64 value=0 time=0.0010416666666666667
EXTRACT: control_change channel=1 control=64 value=127 time=0.0010416666666666667
EXTRACT: note_on channel=0 note=60 velocity=0 time=0.24687499999999998
EXTRACT: note_on channel=0 note=59 velocity=80 time=0.0010416666666666667
EXTRACT: note_on channel=0 note=59 velocity=0 time=0.24895833333333334
EXTRACT: note_on channel=0 note=60 velocity=80 time=0.0010416666666666667
EXTRACT: note_on channel=0 note=60 velocity=0 time=0.24895833333333334
EXTRACT: note_on channel=0 note=59 velocity=80 time=0.0010416666666666667
EXTRACT: note_on channel=1 note=60 velocity=0 time=0.19895833333333332
EXTRACT: note_on channel=1 note=64 velocity=0 time=0
EXTRACT: note_on channel=1 note=67 velocity=0 time=0
EXTRACT: note_on channel=1 note=55 velocity=0 time=0
EXTRACT: note_on channel=0 note=59 velocity=0 time=0.05
EXTRACT: note_on channel=0 note=60 velocity=80 time=0.0010416666666666667
EXTRACT: note_on channel=1 note=60 velocity=33 time=0
EXTRACT: note_on channel=1 note=64 velocity=33 time=0
EXTRACT: note_on channel=1 note=67 velocity=33 time=0
EXTRACT: note_on channel=1 note=55 velocity=33 time=0
EXTRACT: note_on channel=0 note=60 velocity=0 time=0.49895833333333334
EXTRACT: note_on channel=0 note=55 velocity=80 time=0.0010416666666666667
EXTRACT: note_on channel=1 note=48 velocity=0 time=0.3989583333333333
EXTRACT: note_on channel=1 note=60 velocity=0 time=0.05
EXTRACT: note_on channel=1 note=64 velocity=0 time=0
EXTRACT: note_on channel=1 note=67 velocity=0 time=0
EXTRACT: note_on channel=1 note=55 velocity=0 time=0
EXTRACT: note_on channel=0 note=55 velocity=0 time=0.05
EXTRACT: note_on channel=1 note=55 velocity=33 time=0.0010416666666666667
EXTRACT: note_on channel=1 note=59 velocity=33 time=0
EXTRACT: note_on channel=1 note=62 velocity=33 time=0
EXTRACT: note_on channel=1 note=43 velocity=33 time=0
EXTRACT: note_on channel=1 note=50 velocity=33 time=0
EXTRACT: control_change channel=1 control=64 value=0 time=0.0010416666666666667
EXTRACT: control_change channel=1 control=64 value=127 time=0.0010416666666666667
EXTRACT: note_on channel=0 note=59 velocity=80 time=0.4979166666666667
EXTRACT: note_on channel=0 note=59 velocity=0 time=0.24895833333333334
EXTRACT: note_on channel=0 note=62 velocity=80 time=0.0010416666666666667
EXTRACT: note_on channel=1 note=55 velocity=0 time=0.19895833333333332
EXTRACT: note_on channel=1 note=59 velocity=0 time=0
EXTRACT: note_on channel=1 note=62 velocity=0 time=0
EXTRACT: note_on channel=1 note=43 velocity=0 time=0
EXTRACT: note_on channel=1 note=50 velocity=0 time=0
EXTRACT: note_on channel=0 note=62 velocity=0 time=0.05
EXTRACT: note_on channel=0 note=59 velocity=80 time=0.0010416666666666667
EXTRACT: note_on channel=1 note=55 velocity=33 time=0
EXTRACT: note_on channel=1 note=59 velocity=33 time=0
EXTRACT: note_on channel=1 note=62 velocity=33 time=0
EXTRACT: note_on channel=1 note=43 velocity=33 time=0
EXTRACT: note_on channel=1 note=50 velocity=33 time=0
EXTRACT: note_on channel=0 note=59 velocity=0 time=0.49895833333333334
EXTRACT: note_on channel=0 note=57 velocity=80 time=0.0010416666666666667
EXTRACT: note_on channel=1 note=55 velocity=0 time=0.44895833333333335
EXTRACT: note_on channel=1 note=59 velocity=0 time=0
EXTRACT: note_on channel=1 note=62 velocity=0 time=0
EXTRACT: note_on channel=1 note=43 velocity=0 time=0
EXTRACT: note_on channel=1 note=50 velocity=0 time=0
EXTRACT: note_on channel=0 note=57 velocity=0 time=0.05
EXTRACT: note_on channel=1 note=64 velocity=33 time=0.0010416666666666667
EXTRACT: note_on channel=1 note=67 velocity=33 time=0
EXTRACT: note_on channel=1 note=71 velocity=33 time=0
EXTRACT: note_on channel=1 note=52 velocity=33 time=0
EXTRACT: note_on channel=1 note=59 velocity=33 time=0
EXTRACT: control_change channel=1 control=64 value=0 time=0.0010416666666666667
EXTRACT: control_change channel=1 control=64 value=127 time=0.0010416666666666667
EXTRACT: note_on channel=0 note=59 velocity=80 time=0.24791666666666667
EXTRACT: note_on channel=0 note=59 velocity=0 time=0.24895833333333334
EXTRACT: note_on channel=0 note=57 velocity=80 time=0.0010416666666666667
EXTRACT: note_on channel=0 note=57 velocity=0 time=0.24895833333333334
EXTRACT: note_on channel=0 note=59 velocity=80 time=0.0010416666666666667
EXTRACT: note_on channel=1 note=64 velocity=0 time=0.19895833333333332
EXTRACT: note_on channel=1 note=67 velocity=0 time=0
EXTRACT: note_on channel=1 note=71 velocity=0 time=0
EXTRACT: note_on channel=1 note=59 velocity=0 time=0
EXTRACT: note_on channel=0 note=59 velocity=0 time=0.05
EXTRACT: note_on channel=0 note=62 velocity=80 time=0.0010416666666666667
EXTRACT: note_on channel=1 note=64 velocity=33 time=0
EXTRACT: note_on channel=1 note=67 velocity=33 time=0
EXTRACT: note_on channel=1 note=71 velocity=33 time=0
EXTRACT: note_on channel=1 note=59 velocity=33 time=0
EXTRACT: note_on channel=0 note=62 velocity=0 time=0.49895833333333334
EXTRACT: note_on channel=0 note=62 velocity=80 time=0.0010416666666666667
EXTRACT: note_on channel=1 note=52 velocity=0 time=0.3989583333333333
EXTRACT: note_on channel=1 note=64 velocity=0 time=0.05
EXTRACT: note_on channel=1 note=67 velocity=0 time=0
EXTRACT: note_on channel=1 note=71 velocity=0 time=0
EXTRACT: note_on channel=1 note=59 velocity=0 time=0
EXTRACT: note_on channel=0 note=62 velocity=0 time=0.05
EXTRACT: note_on channel=0 note=64 velocity=80 time=0.0010416666666666667
EXTRACT: note_on channel=1 note=62 velocity=33 time=0
EXTRACT: note_on channel=1 note=67 velocity=33 time=0
EXTRACT: note_on channel=1 note=71 velocity=33 time=0
EXTRACT: note_on channel=1 note=50 velocity=33 time=0
EXTRACT: note_on channel=1 note=59 velocity=33 time=0
EXTRACT: control_change channel=1 control=64 value=0 time=0.0010416666666666667
EXTRACT: control_change channel=1 control=64 value=127 time=0.0010416666666666667
EXTRACT: note_on channel=0 note=64 velocity=0 time=0.24687499999999998
EXTRACT: note_on channel=0 note=62 velocity=80 time=0.0010416666666666667
EXTRACT: note_on channel=0 note=62 velocity=0 time=0.24895833333333334
EXTRACT: note_on channel=0 note=59 velocity=80 time=0.0010416666666666667
EXTRACT: note_on channel=0 note=59 velocity=0 time=0.24895833333333334
EXTRACT: note_on channel=0 note=57 velocity=80 time=0.0010416666666666667
EXTRACT: note_on channel=1 note=62 velocity=0 time=0.19895833333333332
EXTRACT: note_on channel=1 note=67 velocity=0 time=0
EXTRACT: note_on channel=1 note=71 velocity=0 time=0
EXTRACT: note_on channel=1 note=59 velocity=0 time=0
EXTRACT: note_on channel=0 note=57 velocity=0 time=0.05
EXTRACT: note_on channel=0 note=59 velocity=80 time=0.0010416666666666667
EXTRACT: note_on channel=1 note=62 velocity=33 time=0
EXTRACT: note_on channel=1 note=67 velocity=33 time=0
EXTRACT: note_on channel=1 note=71 velocity=33 time=0
EXTRACT: note_on channel=1 note=59 velocity=33 time=0
EXTRACT: note_on channel=0 note=59 velocity=0 time=0.49895833333333334
EXTRACT: note_on channel=1 note=50 velocity=0 time=0.4
EXTRACT: note_on channel=1 note=62 velocity=0 time=0.05
EXTRACT: note_on channel=1 note=67 velocity=0 time=0
EXTRACT: note_on channel=1 note=71 velocity=0 time=0
EXTRACT: note_on channel=1 note=59 velocity=0 time=0
EXTRACT: note_on channel=0 note=60 velocity=80 time=0.051041666666666666
EXTRACT: note_on channel=1 note=60 velocity=33 time=0
EXTRACT: note_on channel=1 note=64 velocity=33 time=0
EXTRACT: note_on channel=1 note=67 velocity=33 time=0
EXTRACT: note_on channel=1 note=48 velocity=33 time=0
EXTRACT: note_on channel=1 note=55 velocity=33 time=0
EXTRACT: control_change channel=1 control=64 value=0 time=0.0010416666666666667
EXTRACT: control_change channel=1 control=64 value=127 time=0.0010416666666666667
EXTRACT: note_on channel=0 note=60 velocity=0 time=0.24687499999999998
EXTRACT: note_on channel=0 note=59 velocity=80 time=0.0010416666666666667
EXTRACT: note_on channel=0 note=59 velocity=0 time=0.24895833333333334
EXTRACT: note_on channel=0 note=60 velocity=80 time=0.0010416666666666667
EXTRACT: note_on channel=0 note=60 velocity=0 time=0.24895833333333334
EXTRACT: note_on channel=0 note=59 velocity=80 time=0.0010416666666666667
EXTRACT: note_on channel=1 note=60 velocity=0 time=0.19895833333333332
EXTRACT: note_on channel=1 note=64 velocity=0 time=0
EXTRACT: note_on channel=1 note=67 velocity=0 time=0
EXTRACT: note_on channel=1 note=55 velocity=0 time=0
EXTRACT: note_on channel=0 note=59 velocity=0 time=0.05
EXTRACT: note_on channel=0 note=60 velocity=80 time=0.0010416666666666667
EXTRACT: note_on channel=1 note=60 velocity=33 time=0
EXTRACT: note_on channel=1 note=64 velocity=33 time=0
EXTRACT: note_on channel=1 note=67 velocity=33 time=0
EXTRACT: note_on channel=1 note=55 velocity=33 time=0
EXTRACT: note_on channel=0 note=60 velocity=0 time=0.49895833333333334
EXTRACT: note_on channel=0 note=55 velocity=80 time=0.0010416666666666667
EXTRACT: note_on channel=1 note=48 velocity=0 time=0.3989583333333333
EXTRACT: note_on channel=1 note=60 velocity=0 time=0.05
EXTRACT: note_on channel=1 note=64 velocity=0 time=0
EXTRACT: note_on channel=1 note=67 velocity=0 time=0
EXTRACT: note_on channel=1 note=55 velocity=0 time=0
EXTRACT: note_on channel=0 note=55 velocity=0 time=0.05
EXTRACT: note_on channel=1 note=55 velocity=33 time=0.0010416666666666667
EXTRACT: note_on channel=1 note=59 velocity=33 time=0
EXTRACT: note_on channel=1 note=62 velocity=33 time=0
EXTRACT: note_on channel=1 note=43 velocity=33 time=0
EXTRACT: note_on channel=1 note=50 velocity=33 time=0
EXTRACT: control_change channel=1 control=64 value=0 time=0.0010416666666666667
EXTRACT: control_change channel=1 control=64 value=127 time=0.0010416666666666667
EXTRACT: note_on channel=0 note=59 velocity=80 time=0.4979166666666667
EXTRACT: note_on channel=0 note=59 velocity=0 time=0.24895833333333334
EXTRACT: note_on channel=0 note=62 velocity=80 time=0.0010416666666666667
EXTRACT: note_on channel=1 note=55 velocity=0 time=0.19895833333333332
EXTRACT: note_on channel=1 note=59 velocity=0 time=0
EXTRACT: note_on channel=1 note=62 velocity=0 time=0
EXTRACT: note_on channel=1 note=43 velocity=0 time=0
EXTRACT: note_on channel=1 note=50 velocity=0 time=0
EXTRACT: note_on channel=0 note=62 velocity=0 time=0.05
EXTRACT: note_on channel=0 note=59 velocity=80 time=0.0010416666666666667
EXTRACT: note_on channel=1 note=55 velocity=33 time=0
EXTRACT: note_on channel=1 note=59 velocity=33 time=0
EXTRACT: note_on channel=1 note=62 velocity=33 time=0
EXTRACT: note_on channel=1 note=43 velocity=33 time=0
EXTRACT: note_on channel=1 note=50 velocity=33 time=0
EXTRACT: note_on channel=0 note=59 velocity=0 time=0.49895833333333334
EXTRACT: note_on channel=1 note=55 velocity=0 time=0.45
EXTRACT: note_on channel=1 note=59 velocity=0 time=0
EXTRACT: note_on channel=1 note=62 velocity=0 time=0
EXTRACT: note_on channel=1 note=43 velocity=0 time=0
EXTRACT: note_on channel=1 note=50 velocity=0 time=0
EXTRACT: note_on channel=0 note=67 velocity=80 time=0.051041666666666666
EXTRACT: note_on channel=1 note=64 velocity=33 time=0
EXTRACT: note_on channel=1 note=67 velocity=33 time=0
EXTRACT: note_on channel=1 note=71 velocity=33 time=0
EXTRACT: note_on channel=1 note=52 velocity=33 time=0
EXTRACT: note_on channel=1 note=59 velocity=33 time=0
EXTRACT: control_change channel=1 control=64 value=0 time=0.0010416666666666667
EXTRACT: control_change channel=1 control=64 value=127 time=0.0010416666666666667
EXTRACT: note_on channel=1 note=64 velocity=0 time=0.946875
EXTRACT: note_on channel=1 note=67 velocity=0 time=0
EXTRACT: note_on channel=1 note=71 velocity=0 time=0
EXTRACT: note_on channel=1 note=59 velocity=0 time=0
EXTRACT: note_on channel=0 note=67 velocity=0 time=0.05
EXTRACT: note_on channel=0 note=66 velocity=80 time=0.0010416666666666667
EXTRACT: note_on channel=1 note=64 velocity=33 time=0
EXTRACT: note_on channel=1 note=67 velocity=33 time=0
EXTRACT: note_on channel=1 note=71 velocity=33 time=0
EXTRACT: note_on channel=1 note=59 velocity=33 time=0
EXTRACT: note_on channel=1 note=52 velocity=0 time=0.8989583333333333
EXTRACT: note_on channel=1 note=64 velocity=0 time=0.05
EXTRACT: note_on channel=1 note=67 velocity=0 time=0
EXTRACT: note_on channel=1 note=71 velocity=0 time=0
EXTRACT: note_on channel=1 note=59 velocity=0 time=0
EXTRACT: note_on channel=0 note=66 velocity=0 time=0.05
EXTRACT: note_on channel=0 note=64 velocity=80 time=0.0010416666666666667
EXTRACT: note_on channel=1 note=62 velocity=33 time=0
EXTRACT: note_on channel=1 note=67 velocity=33 time=0
EXTRACT: note_on channel=1 note=71 velocity=33 time=0
EXTRACT: note_on channel=1 note=50 velocity=33 time=0
EXTRACT: note_on channel=1 note=59 velocity=33 time=0
EXTRACT: control_change channel=1 control=64 value=0 time=0.0010416666666666667
EXTRACT: control_change channel=1 control=64 value=127 time=0.0010416666666666667
EXTRACT: note_on channel=1 note=62 velocity=0 time=0.946875
EXTRACT: note_on channel=1 note=67 velocity=0 time=0
EXTRACT: note_on channel=1 note=71 velocity=0 time=0
EXTRACT: note_on channel=1 note=59 velocity=0 time=0
EXTRACT: note_on channel=0 note=64 velocity=0 time=0.05
EXTRACT: note_on channel=0 note=62 velocity=80 time=0.0010416666666666667
EXTRACT: note_on channel=1 note=62 velocity=33 time=0
EXTRACT: note_on channel=1 note=67 velocity=33 time=0
EXTRACT: note_on channel=1 note=71 velocity=33 time=0
EXTRACT: note_on channel=1 note=59 velocity=33 time=0
EXTRACT: note_on channel=1 note=50 velocity=0 time=0.8989583333333333
EXTRACT: note_on channel=1 note=62 velocity=0 time=0.05
EXTRACT: note_on channel=1 note=67 velocity=0 time=0
EXTRACT: note_on channel=1 note=71 velocity=0 time=0
EXTRACT: note_on channel=1 note=59 velocity=0 time=0
EXTRACT: note_on channel=0 note=62 velocity=0 time=0.05
EXTRACT: note_on channel=1 note=60 velocity=33 time=0.0010416666666666667
EXTRACT: note_on channel=1 note=64 velocity=33 time=0
EXTRACT: note_on channel=1 note=67 velocity=33 time=0
EXTRACT: note_on channel=1 note=48 velocity=33 time=0
EXTRACT: note_on channel=1 note=55 velocity=33 time=0
EXTRACT: control_change channel=1 control=64 value=0 time=0.0010416666666666667
EXTRACT: control_change channel=1 control=64 value=127 time=0.0010416666666666667
EXTRACT: note_on channel=0 note=62 velocity=80 time=0.4979166666666667
EXTRACT: note_on channel=1 note=60 velocity=0 time=0.44895833333333335
EXTRACT: note_on channel=1 note=64 velocity=0 time=0
EXTRACT: note_on channel=1 note=67 velocity=0 time=0
EXTRACT: note_on channel=1 note=55 velocity=0 time=0
EXTRACT: note_on channel=0 note=62 velocity=0 time=0.05
EXTRACT: note_on channel=0 note=60 velocity=80 time=0.0010416666666666667
EXTRACT: note_on channel=1 note=60 velocity=33 time=0
EXTRACT: note_on channel=1 note=64 velocity=33 time=0
EXTRACT: note_on channel=1 note=67 velocity=33 time=0
EXTRACT: note_on channel=1 note=55 velocity=33 time=0
EXTRACT: note_on channel=0 note=60 velocity=0 time=0.06354166666666666
EXTRACT: note_on channel=0 note=62 velocity=80 time=0.0010416666666666667
EXTRACT: note_on channel=0 note=62 velocity=0 time=0.43333333333333335
EXTRACT: note_on channel=0 note=64 velocity=80 time=0.0020833333333333333
EXTRACT: note_on channel=0 note=64 velocity=0 time=0.24895833333333334
EXTRACT: note_on channel=0 note=59 velocity=80 time=0.0010416666666666667
EXTRACT: note_on channel=1 note=48 velocity=0 time=0.14895833333333333
EXTRACT: note_on channel=1 note=60 velocity=0 time=0.05
EXTRACT: note_on channel=1 note=64 velocity=0 time=0
EXTRACT: note_on channel=1 note=67 velocity=0 time=0
EXTRACT: note_on channel=1 note=55 velocity=0 time=0
EXTRACT: note_on channel=1 note=55 velocity=33 time=0.051041666666666666
EXTRACT: note_on channel=1 note=59 velocity=33 time=0
EXTRACT: note_on channel=1 note=62 velocity=33 time=0
EXTRACT: note_on channel=1 note=43 velocity=33 time=0
EXTRACT: note_on channel=1 note=50 velocity=33 time=0
EXTRACT: control_change channel=1 control=64 value=0 time=0.0010416666666666667
EXTRACT: control_change channel=1 control=64 value=127 time=0.0010416666666666667
EXTRACT: note_on channel=0 note=59 velocity=0 time=0.24687499999999998
EXTRACT: note_on channel=0 note=57 velocity=80 time=0.0010416666666666667
EXTRACT: note_on channel=0 note=57 velocity=0 time=0.24895833333333334
EXTRACT: note_on channel=0 note=59 velocity=80 time=0.0010416666666666667
EXTRACT: note_on channel=0 note=59 velocity=0 time=0.24895833333333334
EXTRACT: note_on channel=0 note=57 velocity=80 time=0.0010416666666666667
EXTRACT: note_on channel=1 note=55 velocity=0 time=0.19895833333333332
EXTRACT: note_on channel=1 note=59 velocity=0 time=0
EXTRACT: note_on channel=1 note=62 velocity=0 time=0
EXTRACT: note_on channel=1 note=43 velocity=0 time=0
EXTRACT: note_on channel=1 note=50 velocity=0 time=0
EXTRACT: note_on channel=0 note=57 velocity=0 time=0.05
EXTRACT: note_on channel=0 note=55 velocity=80 time=0.0010416666666666667
EXTRACT: note_on channel=1 note=55 velocity=33 time=0
EXTRACT: note_on channel=1 note=59 velocity=33 time=0
EXTRACT: note_on channel=1 note=62 velocity=33 time=0
EXTRACT: note_on channel=1 note=43 velocity=33 time=0
EXTRACT: note_on channel=1 note=50 velocity=33 time=0
EXTRACT: note_on channel=0 note=55 velocity=0 time=0.49895833333333334
EXTRACT: note_on channel=0 note=55 velocity=80 time=0.25104166666666666
EXTRACT: note_on channel=1 note=55 velocity=0 time=0.19895833333333332
EXTRACT: note_on channel=1 note=59 velocity=0 time=0
EXTRACT: note_on channel=1 note=62 velocity=0 time=0
EXTRACT: note_on channel=1 note=43 velocity=0 time=0
EXTRACT: note_on channel=1 note=50 velocity=0 time=0
EXTRACT: note_on channel=0 note=55 velocity=0 time=0.05
EXTRACT: note_on channel=0 note=67 velocity=80 time=0.0010416666666666667
EXTRACT: note_on channel=1 note=64 velocity=33 time=0
EXTRACT: note_on channel=1 note=67 velocity=33 time=0
EXTRACT: note_on channel=1 note=71 velocity=33 time=0
EXTRACT: note_on channel=1 note=52 velocity=33 time=0
EXTRACT: note_on channel=1 note=59 velocity=33 time=0
EXTRACT: control_change channel=1 control=64 value=0 time=0.0010416666666666667
EXTRACT: control_change channel=1 control=64 value=127 time=0.0010416666666666667
EXTRACT: note_on channel=1 note=64 velocity=0 time=0.946875
EXTRACT: note_on channel=1 note=67 velocity=0 time=0
EXTRACT: note_on channel=1 note=71 velocity=0 time=0
EXTRACT: note_on channel=1 note=59 velocity=0 time=0
EXTRACT: note_on channel=0 note=67 velocity=0 time=0.05
EXTRACT: note_on channel=0 note=66 velocity=80 time=0.0010416666666666667
EXTRACT: note_on channel=1 note=64 velocity=33 time=0
EXTRACT: note_on channel=1 note=67 velocity=33 time=0
EXTRACT: note_on channel=1 note=71 velocity=33 time=0
EXTRACT: note_on channel=1 note=59 velocity=33 time=0
EXTRACT: note_on channel=1 note=52 velocity=0 time=0.8989583333333333
EXTRACT: note_on channel=1 note=64 velocity=0 time=0.05
EXTRACT: note_on channel=1 note=67 velocity=0 time=0
EXTRACT: note_on channel=1 note=71 velocity=0 time=0
EXTRACT: note_on channel=1 note=59 velocity=0 time=0
EXTRACT: note_on channel=0 note=66 velocity=0 time=0.05
EXTRACT: note_on channel=0 note=64 velocity=80 time=0.0010416666666666667
EXTRACT: note_on channel=1 note=62 velocity=33 time=0
EXTRACT: note_on channel=1 note=67 velocity=33 time=0
EXTRACT: note_on channel=1 note=71 velocity=33 time=0
EXTRACT: note_on channel=1 note=50 velocity=33 time=0
EXTRACT: note_on channel=1 note=59 velocity=33 time=0
EXTRACT: control_change channel=1 control=64 value=0 time=0.0010416666666666667
EXTRACT: control_change channel=1 control=64 value=127 time=0.0010416666666666667
EXTRACT: note_on channel=1 note=62 velocity=0 time=0.946875
EXTRACT: note_on channel=1 note=67 velocity=0 time=0
EXTRACT: note_on channel=1 note=71 velocity=0 time=0
EXTRACT: note_on channel=1 note=59 velocity=0 time=0
EXTRACT: note_on channel=0 note=64 velocity=0 time=0.05
EXTRACT: note_on channel=0 note=62 velocity=80 time=0.0010416666666666667
EXTRACT: note_on channel=1 note=62 velocity=33 time=0
EXTRACT: note_on channel=1 note=67 velocity=33 time=0
EXTRACT: note_on channel=1 note=71 velocity=33 time=0
EXTRACT: note_on channel=1 note=59 velocity=33 time=0
EXTRACT: note_on channel=1 note=50 velocity=0 time=0.8989583333333333
EXTRACT: note_on channel=1 note=62 velocity=0 time=0.05
EXTRACT: note_on channel=1 note=67 velocity=0 time=0
EXTRACT: note_on channel=1 note=71 velocity=0 time=0
EXTRACT: note_on channel=1 note=59 velocity=0 time=0
EXTRACT: note_on channel=0 note=62 velocity=0 time=0.05
EXTRACT: note_on channel=1 note=60 velocity=33 time=0.0010416666666666667
EXTRACT: note_on channel=1 note=64 velocity=33 time=0
EXTRACT: note_on channel=1 note=67 velocity=33 time=0
EXTRACT: note_on channel=1 note=48 velocity=33 time=0
EXTRACT: note_on channel=1 note=55 velocity=33 time=0
EXTRACT: control_change channel=1 control=64 value=0 time=0.0010416666666666667
EXTRACT: control_change channel=1 control=64 value=127 time=0.0010416666666666667
EXTRACT: note_on channel=0 note=62 velocity=80 time=0.4979166666666667
EXTRACT: note_on channel=0 note=62 velocity=0 time=0.24895833333333334
EXTRACT: note_on channel=0 note=59 velocity=80 time=0.0010416666666666667
EXTRACT: note_on channel=1 note=60 velocity=0 time=0.19895833333333332
EXTRACT: note_on channel=1 note=64 velocity=0 time=0
EXTRACT: note_on channel=1 note=67 velocity=0 time=0
EXTRACT: note_on channel=1 note=55 velocity=0 time=0
EXTRACT: note_on channel=0 note=59 velocity=0 time=0.05
EXTRACT: note_on channel=0 note=62 velocity=80 time=0.0010416666666666667
EXTRACT: note_on channel=1 note=60 velocity=33 time=0
EXTRACT: note_on channel=1 note=64 velocity=33 time=0
EXTRACT: note_on channel=1 note=67 velocity=33 time=0
EXTRACT: note_on channel=1 note=55 velocity=33 time=0
EXTRACT: note_on channel=0 note=62 velocity=0 time=0.49895833333333334
EXTRACT: note_on channel=0 note=64 velocity=80 time=0.0010416666666666667
EXTRACT: note_on channel=0 note=64 velocity=0 time=0.24895833333333334
EXTRACT: note_on channel=0 note=59 velocity=80 time=0.0010416666666666667
EXTRACT: note_on channel=1 note=48 velocity=0 time=0.14895833333333333
EXTRACT: note_on channel=1 note=60 velocity=0 time=0.05
EXTRACT: note_on channel=1 note=64 velocity=0 time=0
EXTRACT: note_on channel=1 note=67 velocity=0 time=0
EXTRACT: note_on channel=1 note=55 velocity=0 time=0
EXTRACT: note_on channel=1 note=55 velocity=33 time=0.051041666666666666
EXTRACT: note_on channel=1 note=59 velocity=33 time=0
EXTRACT: note_on channel=1 note=62 velocity=33 time=0
EXTRACT: note_on channel=1 note=43 velocity=33 time=0
EXTRACT: note_on channel=1 note=50 velocity=33 time=0
EXTRACT: control_change channel=1 control=64 value=0 time=0.0010416666666666667
EXTRACT: control_change channel=1 control=64 value=127 time=0.0010416666666666667
EXTRACT: note_on channel=0 note=59 velocity=0 time=0.24687499999999998
EXTRACT: note_on channel=0 note=57 velocity=80 time=0.0010416666666666667
EXTRACT: note_on channel=0 note=57 velocity=0 time=0.24895833333333334
EXTRACT: note_on channel=0 note=59 velocity=80 time=0.0010416666666666667
EXTRACT: note_on channel=0 note=59 velocity=0 time=0.24895833333333334
EXTRACT: note_on channel=0 note=57 velocity=80 time=0.0010416666666666667
EXTRACT: note_on channel=1 note=55 velocity=0 time=0.19895833333333332
EXTRACT: note_on channel=1 note=59 velocity=0 time=0
EXTRACT: note_on channel=1 note=62 velocity=0 time=0
EXTRACT: note_on channel=1 note=43 velocity=0 time=0
EXTRACT: note_on channel=1 note=50 velocity=0 time=0
EXTRACT: note_on channel=0 note=57 velocity=0 time=0.05
EXTRACT: note_on channel=0 note=55 velocity=80 time=0.0010416666666666667
EXTRACT: note_on channel=1 note=55 velocity=33 time=0
EXTRACT: note_on channel=1 note=59 velocity=33 time=0
EXTRACT: note_on channel=1 note=62 velocity=33 time=0
EXTRACT: note_on channel=1 note=43 velocity=33 time=0
EXTRACT: note_on channel=1 note=50 velocity=33 time=0
EXTRACT: note_on channel=0 note=55 velocity=0 time=0.49895833333333334
EXTRACT: note_on channel=1 note=55 velocity=0 time=0.45
EXTRACT: note_on channel=1 note=59 velocity=0 time=0
EXTRACT: note_on channel=1 note=62 velocity=0 time=0
EXTRACT: note_on channel=1 note=43 velocity=0 time=0
EXTRACT: note_on channel=1 note=50 velocity=0 time=0
EXTRACT: note_on channel=0 note=59 velocity=80 time=0.051041666666666666
EXTRACT: note_on channel=1 note=64 velocity=33 time=0
EXTRACT: note_on channel=1 note=67 velocity=33 time=0
EXTRACT: note_on channel=1 note=71 velocity=33 time=0
EXTRACT: note_on channel=1 note=52 velocity=33 time=0
EXTRACT: note_on channel=1 note=59 velocity=33 time=0
EXTRACT: control_change channel=1 control=64 value=0 time=0.0010416666666666667
EXTRACT: control_change channel=1 control=64 value=127 time=0.0010416666666666667
EXTRACT: note_on channel=0 note=59 velocity=0 time=0.24687499999999998
EXTRACT: note_on channel=0 note=62 velocity=80 time=0.0010416666666666667
EXTRACT: note_on channel=0 note=62 velocity=0 time=0.24895833333333334
EXTRACT: note_on channel=0 note=62 velocity=80 time=0.0010416666666666667
EXTRACT: note_on channel=0 note=62 velocity=0 time=0.24895833333333334
EXTRACT: note_on channel=0 note=59 velocity=80 time=0.0010416666666666667
EXTRACT: note_on channel=0 note=59 velocity=0 time=0.24895833333333334
EXTRACT: note_on channel=0 note=62 velocity=80 time=0.0010416666666666667
EXTRACT: note_on channel=0 note=62 velocity=0 time=0.7489583333333333
EXTRACT: note_on channel=0 note=55 velocity=80 time=0.0010416666666666667
EXTRACT: note_on channel=1 note=64 velocity=0 time=0.14895833333333333
EXTRACT: note_on channel=1 note=67 velocity=0 time=0
EXTRACT: note_on channel=1 note=71 velocity=0 time=0
EXTRACT: note_on channel=1 note=52 velocity=0 time=0
EXTRACT: note_on channel=1 note=59 velocity=0 time=0
EXTRACT: note_on channel=0 note=55 velocity=0 time=0.1
EXTRACT: note_on channel=0 note=59 velocity=80 time=0.0010416666666666667
EXTRACT: note_on channel=1 note=62 velocity=33 time=0
EXTRACT: note_on channel=1 note=67 velocity=33 time=0
EXTRACT: note_on channel=1 note=71 velocity=33 time=0
EXTRACT: note_on channel=1 note=50 velocity=33 time=0
EXTRACT: note_on channel=1 note=59 velocity=33 time=0
EXTRACT: control_change channel=1 control=64 value=0 time=0.0010416666666666667
EXTRACT: control_change channel=1 control=64 value=127 time=0.0010416666666666667
EXTRACT: note_on channel=0 note=59 velocity=0 time=0.3302083333333333
EXTRACT: note_on channel=0 note=62 velocity=80 time=0.0010416666666666667
EXTRACT: note_on channel=0 note=62 velocity=0 time=0.33229166666666665
EXTRACT: note_on channel=0 note=62 velocity=80 time=0.0010416666666666667
EXTRACT: note_on channel=0 note=62 velocity=0 time=0.33229166666666665
EXTRACT: note_on channel=0 note=62 velocity=80 time=0.0010416666666666667
EXTRACT: note_on channel=0 note=62 velocity=0 time=0.49895833333333334
EXTRACT: note_on channel=0 note=55 velocity=80 time=0.25104166666666666
EXTRACT: note_on channel=1 note=62 velocity=0 time=0.14895833333333333
EXTRACT: note_on channel=1 note=67 velocity=0 time=0
EXTRACT: note_on channel=1 note=71 velocity=0 time=0
EXTRACT: note_on channel=1 note=50 velocity=0 time=0
EXTRACT: note_on channel=1 note=59 velocity=0 time=0
EXTRACT: note_on channel=0 note=55 velocity=0 time=0.1
EXTRACT: note_on channel=0 note=59 velocity=80 time=0.0010416666666666667
EXTRACT: note_on channel=1 note=60 velocity=33 time=0
EXTRACT: note_on channel=1 note=64 velocity=33 time=0
EXTRACT: note_on channel=1 note=67 velocity=33 time=0
EXTRACT: note_on channel=1 note=48 velocity=33 time=0
EXTRACT: note_on channel=1 note=55 velocity=33 time=0
EXTRACT: control_change channel=1 control=64 value=0 time=0.0010416666666666667
EXTRACT: control_change channel=1 control=64 value=127 time=0.0010416666666666667
EXTRACT: note_on channel=0 note=59 velocity=0 time=0.3302083333333333
EXTRACT: note_on channel=0 note=62 velocity=80 time=0.0010416666666666667
EXTRACT: note_on channel=0 note=62 velocity=0 time=0.33229166666666665
EXTRACT: note_on channel=0 note=64 velocity=80 time=0.0010416666666666667
EXTRACT: note_on channel=0 note=64 velocity=0 time=0.33229166666666665
EXTRACT: note_on channel=0 note=59 velocity=80 time=0.0010416666666666667
EXTRACT: note_on channel=0 note=59 velocity=0 time=0.49895833333333334
EXTRACT: note_on channel=0 note=57 velocity=80 time=0.0010416666666666667
EXTRACT: note_on channel=0 note=57 velocity=0 time=0.24895833333333334
EXTRACT: note_on channel=0 note=55 velocity=80 time=0.0010416666666666667
EXTRACT: note_on channel=1 note=60 velocity=0 time=0.14895833333333333
EXTRACT: note_on channel=1 note=64 velocity=0 time=0
EXTRACT: note_on channel=1 note=67 velocity=0 time=0
EXTRACT: note_on channel=1 note=48 velocity=0 time=0
EXTRACT: note_on channel=1 note=55 velocity=0 time=0
EXTRACT: note_on channel=0 note=55 velocity=0 time=0.1
EXTRACT: note_on channel=0 note=55 velocity=80 time=0.0010416666666666667
EXTRACT: note_on channel=1 note=55 velocity=33 time=0
EXTRACT: note_on channel=1 note=59 velocity=33 time=0
EXTRACT: note_on channel=1 note=62 velocity=33 time=0
EXTRACT: note_on channel=1 note=43 velocity=33 time=0
EXTRACT: note_on channel=1 note=50 velocity=33 time=0
EXTRACT: control_change channel=1 control=64 value=0 time=0.0010416666666666667
EXTRACT: control_change channel=1 control=64 value=127 time=0.0010416666666666667
EXTRACT: note_on channel=1 note=50 velocity=0 time=0.946875
EXTRACT: note_on channel=0 note=55 velocity=0 time=0.05
EXTRACT: note_on channel=1 note=50 velocity=33 time=0.0010416666666666667
EXTRACT: note_on channel=1 note=55 velocity=0 time=0.8989583333333333
EXTRACT: note_on channel=1 note=59 velocity=0 time=0
EXTRACT: note_on channel=1 note=62 velocity=0 time=0
EXTRACT: note_on channel=1 note=43 velocity=0 time=0
EXTRACT: note_on channel=1 note=50 velocity=0 time=0.05
EXTRACT: note_on channel=0 note=59 velocity=80 time=0.051041666666666666
EXTRACT: note_on channel=1 note=64 velocity=33 time=0
EXTRACT: note_on channel=1 note=67 velocity=33 time=0
EXTRACT: note_on channel=1 note=71 velocity=33 time=0
EXTRACT: note_on channel=1 note=52 velocity=33 time=0
EXTRACT: note_on channel=1 note=59 velocity=33 time=0
EXTRACT: control_change channel=1 control=64 value=0 time=0.0010416666666666667
EXTRACT: control_change channel=1 control=64 value=127 time=0.0010416666666666667
EXTRACT: note_on channel=0 note=59 velocity=0 time=0.24687499999999998
EXTRACT: note_on channel=0 note=62 velocity=80 time=0.0010416666666666667
EXTRACT: note_on channel=0 note=62 velocity=0 time=0.24895833333333334
EXTRACT: note_on channel=0 note=62 velocity=80 time=0.0010416666666666667
EXTRACT: note_on channel=0 note=62 velocity=0 time=0.24895833333333334
EXTRACT: note_on channel=0 note=59 velocity=80 time=0.0010416666666666667
EXTRACT: note_on channel=0 note=59 velocity=0 time=0.24895833333333334
EXTRACT: note_on channel=0 note=62 velocity=80 time=0.0010416666666666667
EXTRACT: note_on channel=0 note=62 velocity=0 time=0.7489583333333333
EXTRACT: note_on channel=0 note=55 velocity=80 time=0.0010416666666666667
EXTRACT: note_on channel=1 note=64 velocity=0 time=0.14895833333333333
EXTRACT: note_on channel=1 note=67 velocity=0 time=0
EXTRACT: note_on channel=1 note=71 velocity=0 time=0
EXTRACT: note_on channel=1 note=52 velocity=0 time=0
EXTRACT: note_on channel=1 note=59 velocity=0 time=0
EXTRACT: note_on channel=0 note=55 velocity=0 time=0.1
EXTRACT: note_on channel=0 note=59 velocity=80 time=0.0010416666666666667
EXTRACT: note_on channel=1 note=62 velocity=33 time=0
EXTRACT: note_on channel=1 note=67 velocity=33 time=0
EXTRACT: note_on channel=1 note=71 velocity=33 time=0
EXTRACT: note_on channel=1 note=50 velocity=33 time=0
EXTRACT: note_on channel=1 note=59 velocity=33 time=0
EXTRACT: control_change channel=1 control=64 value=0 time=0.0010416666666666667
EXTRACT: control_change channel=1 control=64 value=127 time=0.0010416666666666667
EXTRACT: note_on channel=0 note=59 velocity=0 time=0.3302083333333333
EXTRACT: note_on channel=0 note=62 velocity=80 time=0.0010416666666666667
EXTRACT: note_on channel=0 note=62 velocity=0 time=0.33229166666666665
EXTRACT: note_on channel=0 note=62 velocity=80 time=0.0010416666666666667
EXTRACT: note_on channel=0 note=62 velocity=0 time=0.33229166666666665
EXTRACT: note_on channel=0 note=62 velocity=80 time=0.0010416666666666667
EXTRACT: note_on channel=0 note=62 velocity=0 time=0.49895833333333334
EXTRACT: note_on channel=0 note=55 velocity=80 time=0.25104166666666666
EXTRACT: note_on channel=1 note=62 velocity=0 time=0.14895833333333333
EXTRACT: note_on channel=1 note=67 velocity=0 time=0
EXTRACT: note_on channel=1 note=71 velocity=0 time=0
EXTRACT: note_on channel=1 note=50 velocity=0 time=0
EXTRACT: note_on channel=1 note=59 velocity=0 time=0
EXTRACT: note_on channel=0 note=55 velocity=0 time=0.1
EXTRACT: note_on channel=0 note=59 velocity=80 time=0.0010416666666666667
EXTRACT: note_on channel=1 note=60 velocity=33 time=0
EXTRACT: note_on channel=1 note=64 velocity=33 time=0
EXTRACT: note_on channel=1 note=67 velocity=33 time=0
EXTRACT: note_on channel=1 note=48 velocity=33 time=0
EXTRACT: note_on channel=1 note=55 velocity=33 time=0
EXTRACT: control_change channel=1 control=64 value=0 time=0.0010416666666666667
EXTRACT: control_change channel=1 control=64 value=127 time=0.0010416666666666667
EXTRACT: note_on channel=0 note=59 velocity=0 time=0.3302083333333333
EXTRACT: note_on channel=0 note=62 velocity=80 time=0.0010416666666666667
EXTRACT: note_on channel=0 note=62 velocity=0 time=0.33229166666666665
EXTRACT: note_on channel=0 note=64 velocity=80 time=0.0010416666666666667
EXTRACT: note_on channel=0 note=64 velocity=0 time=0.33229166666666665
EXTRACT: note_on channel=0 note=59 velocity=80 time=0.0010416666666666667
EXTRACT: note_on channel=0 note=59 velocity=0 time=0.49895833333333334
EXTRACT: note_on channel=0 note=57 velocity=80 time=0.0010416666666666667
EXTRACT: note_on channel=0 note=57 velocity=0 time=0.24895833333333334
EXTRACT: note_on channel=0 note=55 velocity=80 time=0.0010416666666666667
EXTRACT: note_on channel=1 note=60 velocity=0 time=0.14895833333333333
EXTRACT: note_on channel=1 note=64 velocity=0 time=0
EXTRACT: note_on channel=1 note=67 velocity=0 time=0
EXTRACT: note_on channel=1 note=48 velocity=0 time=0
EXTRACT: note_on channel=1 note=55 velocity=0 time=0
EXTRACT: note_on channel=0 note=55 velocity=0 time=0.1
EXTRACT: note_on channel=0 note=55 velocity=80 time=0.0010416666666666667
EXTRACT: note_on channel=1 note=55 velocity=33 time=0
EXTRACT: note_on channel=1 note=59 velocity=33 time=0
EXTRACT: note_on channel=1 note=62 velocity=33 time=0
EXTRACT: note_on channel=1 note=43 velocity=33 time=0
EXTRACT: note_on channel=1 note=50 velocity=33 time=0
EXTRACT: control_change channel=1 control=64 value=0 time=0.0010416666666666667
EXTRACT: control_change channel=1 control=64 value=127 time=0.0010416666666666667
EXTRACT: note_on channel=1 note=50 velocity=0 time=0.946875
EXTRACT: note_on channel=0 note=55 velocity=0 time=0.05
EXTRACT: note_on channel=1 note=50 velocity=33 time=0.0010416666666666667
EXTRACT: note_on channel=1 note=55 velocity=0 time=0.8989583333333333
EXTRACT: note_on channel=1 note=59 velocity=0 time=0
EXTRACT: note_on channel=1 note=62 velocity=0 time=0
EXTRACT: note_on channel=1 note=43 velocity=0 time=0
EXTRACT: note_on channel=1 note=50 velocity=0 time=0.05
EXTRACT: note_on channel=0 note=59 velocity=80 time=0.051041666666666666
EXTRACT: note_on channel=1 note=64 velocity=33 time=0
EXTRACT: note_on channel=1 note=67 velocity=33 time=0
EXTRACT: note_on channel=1 note=71 velocity=33 time=0
EXTRACT: note_on channel=1 note=52 velocity=33 time=0
EXTRACT: note_on channel=1 note=59 velocity=33 time=0
EXTRACT: control_change channel=1 control=64 value=0 time=0.0010416666666666667
EXTRACT: control_change channel=1 control=64 value=127 time=0.0010416666666666667
EXTRACT: note_on channel=0 note=59 velocity=0 time=0.24687499999999998
EXTRACT: note_on channel=0 note=58 velocity=80 time=0.0010416666666666667
EXTRACT: note_on channel=0 note=58 velocity=0 time=0.24895833333333334
EXTRACT: note_on channel=0 note=59 velocity=80 time=0.0010416666666666667
EXTRACT: note_on channel=0 note=59 velocity=0 time=0.49895833333333334
EXTRACT: note_on channel=0 note=59 velocity=80 time=0.0010416666666666667
EXTRACT: note_on channel=0 note=59 velocity=0 time=0.24895833333333334
EXTRACT: note_on channel=0 note=58 velocity=80 time=0.0010416666666666667
EXTRACT: note_on channel=0 note=58 velocity=0 time=0.24895833333333334
EXTRACT: note_on channel=0 note=59 velocity=80 time=0.0010416666666666667
EXTRACT: note_on channel=1 note=64 velocity=0 time=0.3989583333333333
EXTRACT: note_on channel=1 note=67 velocity=0 time=0
EXTRACT: note_on channel=1 note=71 velocity=0 time=0
EXTRACT: note_on channel=1 note=52 velocity=0 time=0
EXTRACT: note_on channel=1 note=59 velocity=0 time=0
EXTRACT: note_on channel=0 note=59 velocity=0 time=0.1
EXTRACT: note_on channel=0 note=59 velocity=80 time=0.0010416666666666667
EXTRACT: note_on channel=1 note=62 velocity=33 time=0
EXTRACT: note_on channel=1 note=67 velocity=33 time=0
EXTRACT: note_on channel=1 note=71 velocity=33 time=0
EXTRACT: note_on channel=1 note=50 velocity=33 time=0
EXTRACT: note_on channel=1 note=59 velocity=33 time=0
EXTRACT: control_change channel=1 control=64 value=0 time=0.0010416666666666667
EXTRACT: control_change channel=1 control=64 value=127 time=0.0010416666666666667
EXTRACT: note_on channel=0 note=59 velocity=0 time=0.496875
EXTRACT: note_on channel=0 note=62 velocity=80 time=0.0010416666666666667
EXTRACT: note_on channel=0 note=62 velocity=0 time=0.49895833333333334
EXTRACT: note_on channel=0 note=64 velocity=80 time=0.0010416666666666667
EXTRACT: note_on channel=0 note=64 velocity=0 time=0.49895833333333334
EXTRACT: note_on channel=0 note=59 velocity=80 time=0.0010416666666666667
EXTRACT: note_on channel=1 note=62 velocity=0 time=0.3989583333333333
EXTRACT: note_on channel=1 note=67 velocity=0 time=0
EXTRACT: note_on channel=1 note=71 velocity=0 time=0
EXTRACT: note_on channel=1 note=50 velocity=0 time=0
EXTRACT: note_on channel=1 note=59 velocity=0 time=0
EXTRACT: note_on channel=0 note=59 velocity=0 time=0.1
EXTRACT: note_on channel=0 note=59 velocity=80 time=0.0010416666666666667
EXTRACT: note_on channel=1 note=60 velocity=33 time=0
EXTRACT: note_on channel=1 note=64 velocity=33 time=0
EXTRACT: note_on channel=1 note=67 velocity=33 time=0
EXTRACT: note_on channel=1 note=48 velocity=33 time=0
EXTRACT: note_on channel=1 note=55 velocity=33 time=0
EXTRACT: control_change channel=1 control=64 value=0 time=0.0010416666666666667
EXTRACT: control_change channel=1 control=64 value=127 time=0.0010416666666666667
EXTRACT: note_on channel=0 note=59 velocity=0 time=0.24687499999999998
EXTRACT: note_on channel=0 note=57 velocity=80 time=0.0010416666666666667
EXTRACT: note_on channel=0 note=57 velocity=0 time=0.24895833333333334
EXTRACT: note_on channel=0 note=59 velocity=80 time=0.0010416666666666667
EXTRACT: note_on channel=0 note=59 velocity=0 time=0.24895833333333334
EXTRACT: note_on channel=0 note=57 velocity=80 time=0.0010416666666666667
EXTRACT: note_on channel=0 note=57 velocity=0 time=0.24895833333333334
EXTRACT: note_on channel=0 note=59 velocity=80 time=0.0010416666666666667
EXTRACT: note_on channel=0 note=59 velocity=0 time=0.24895833333333334
EXTRACT: note_on channel=0 note=57 velocity=80 time=0.0010416666666666667
EXTRACT: note_on channel=0 note=57 velocity=0 time=0.24895833333333334
EXTRACT: note_on channel=0 note=55 velocity=80 time=0.0010416666666666667
EXTRACT: note_on channel=0 note=55 velocity=0 time=0.24895833333333334
EXTRACT: note_on channel=0 note=57 velocity=80 time=0.0010416666666666667
EXTRACT: note_on channel=1 note=60 velocity=0 time=0.14895833333333333
EXTRACT: note_on channel=1 note=64 velocity=0 time=0
EXTRACT: note_on channel=1 note=67 velocity=0 time=0
EXTRACT: note_on channel=1 note=48 velocity=0 time=0
EXTRACT: note_on channel=1 note=55 velocity=0 time=0
EXTRACT: note_on channel=0 note=57 velocity=0 time=0.1
EXTRACT: note_on channel=0 note=59 velocity=80 time=0.0010416666666666667
EXTRACT: note_on channel=1 note=55 velocity=33 time=0
EXTRACT: note_on channel=1 note=59 velocity=33 time=0
EXTRACT: note_on channel=1 note=62 velocity=33 time=0
EXTRACT: note_on channel=1 note=43 velocity=33 time=0
EXTRACT: note_on channel=1 note=50 velocity=33 time=0
EXTRACT: control_change channel=1 control=64 value=0 time=0.0010416666666666667
EXTRACT: control_change channel=1 control=64 value=127 time=0.0010416666666666667
EXTRACT: note_on channel=0 note=59 velocity=0 time=0.24687499999999998
EXTRACT: note_on channel=0 note=57 velocity=80 time=0.0010416666666666667
EXTRACT: note_on channel=0 note=57 velocity=0 time=0.24895833333333334
EXTRACT: note_on channel=0 note=59 velocity=80 time=0.0010416666666666667
EXTRACT: note_on channel=0 note=59 velocity=0 time=0.24895833333333334
EXTRACT: note_on channel=0 note=57 velocity=80 time=0.0010416666666666667
EXTRACT: note_on channel=0 note=57 velocity=0 time=0.24895833333333334
EXTRACT: note_on channel=0 note=55 velocity=80 time=0.0010416666666666667
EXTRACT: note_on channel=0 note=55 velocity=0 time=0.49895833333333334
EXTRACT: note_on channel=1 note=55 velocity=0 time=0.4
EXTRACT: note_on channel=1 note=59 velocity=0 time=0
EXTRACT: note_on channel=1 note=62 velocity=0 time=0
EXTRACT: note_on channel=1 note=43 velocity=0 time=0
EXTRACT: note_on channel=1 note=50 velocity=0 time=0
EXTRACT: note_on channel=0 note=59 velocity=80 time=0.10104166666666667
EXTRACT: note_on channel=1 note=64 velocity=33 time=0
EXTRACT: note_on channel=1 note=67 velocity=33 time=0
EXTRACT: note_on channel=1 note=71 velocity=33 time=0
EXTRACT: note_on channel=1 note=52 velocity=33 time=0
EXTRACT: note_on channel=1 note=59 velocity=33 time=0
EXTRACT: control_change channel=1 control=64 value=0 time=0.0010416666666666667
EXTRACT: control_change channel=1 control=64 value=127 time=0.0010416666666666667
EXTRACT: note_on channel=0 note=59 velocity=0 time=0.24687499999999998
EXTRACT: note_on channel=0 note=58 velocity=80 time=0.0010416666666666667
EXTRACT: note_on channel=0 note=58 velocity=0 time=0.24895833333333334
EXTRACT: note_on channel=0 note=59 velocity=80 time=0.0010416666666666667
EXTRACT: note_on channel=0 note=59 velocity=0 time=0.24895833333333334
EXTRACT: note_on channel=0 note=58 velocity=80 time=0.0010416666666666667
EXTRACT: note_on channel=0 note=58 velocity=0 time=0.24895833333333334
EXTRACT: note_on channel=0 note=59 velocity=80 time=0.0010416666666666667
EXTRACT: note_on channel=0 note=59 velocity=0 time=0.24895833333333334
EXTRACT: note_on channel=0 note=58 velocity=80 time=0.0010416666666666667
EXTRACT: note_on channel=0 note=58 velocity=0 time=0.24895833333333334
EXTRACT: note_on channel=0 note=59 velocity=80 time=0.0010416666666666667
EXTRACT: note_on channel=1 note=64 velocity=0 time=0.3989583333333333
EXTRACT: note_on channel=1 note=67 velocity=0 time=0
EXTRACT: note_on channel=1 note=71 velocity=0 time=0
EXTRACT: note_on channel=1 note=52 velocity=0 time=0
EXTRACT: note_on channel=1 note=59 velocity=0 time=0
EXTRACT: note_on channel=0 note=59 velocity=0 time=0.1
EXTRACT: note_on channel=0 note=59 velocity=80 time=0.0010416666666666667
EXTRACT: note_on channel=1 note=62 velocity=33 time=0
EXTRACT: note_on channel=1 note=67 velocity=33 time=0
EXTRACT: note_on channel=1 note=71 velocity=33 time=0
EXTRACT: note_on channel=1 note=50 velocity=33 time=0
EXTRACT: note_on channel=1 note=59 velocity=33 time=0
EXTRACT: control_change channel=1 control=64 value=0 time=0.0010416666666666667
EXTRACT: control_change channel=1 control=64 value=127 time=0.0010416666666666667
EXTRACT: note_on channel=0 note=59 velocity=0 time=0.24687499999999998
EXTRACT: note_on channel=0 note=57 velocity=80 time=0.0010416666666666667
EXTRACT: note_on channel=0 note=57 velocity=0 time=0.24895833333333334
EXTRACT: note_on channel=0 note=59 velocity=80 time=0.0010416666666666667
EXTRACT: note_on channel=0 note=59 velocity=0 time=0.24895833333333334
EXTRACT: note_on channel=0 note=57 velocity=80 time=0.0010416666666666667
EXTRACT: note_on channel=0 note=57 velocity=0 time=0.24895833333333334
EXTRACT: note_on channel=0 note=59 velocity=80 time=0.0010416666666666667
EXTRACT: note_on channel=0 note=59 velocity=0 time=0.24895833333333334
EXTRACT: note_on channel=0 note=57 velocity=80 time=0.0010416666666666667
EXTRACT: note_on channel=0 note=57 velocity=0 time=0.24895833333333334
EXTRACT: note_on channel=0 note=59 velocity=80 time=0.0010416666666666667
EXTRACT: note_on channel=0 note=59 velocity=0 time=0.24895833333333334
EXTRACT: note_on channel=0 note=55 velocity=80 time=0.0010416666666666667
EXTRACT: note_on channel=1 note=62 velocity=0 time=0.14895833333333333
EXTRACT: note_on channel=1 note=67 velocity=0 time=0
EXTRACT: note_on channel=1 note=71 velocity=0 time=0
EXTRACT: note_on channel=1 note=50 velocity=0 time=0
EXTRACT: note_on channel=1 note=59 velocity=0 time=0
EXTRACT: note_on channel=0 note=55 velocity=0 time=0.1
EXTRACT: note_on channel=0 note=59 velocity=80 time=0.0010416666666666667
EXTRACT: note_on channel=1 note=60 velocity=33 time=0
EXTRACT: note_on channel=1 note=64 velocity=33 time=0
EXTRACT: note_on channel=1 note=67 velocity=33 time=0
EXTRACT: note_on channel=1 note=48 velocity=33 time=0
EXTRACT: note_on channel=1 note=55 velocity=33 time=0
EXTRACT: control_change channel=1 control=64 value=0 time=0.0010416666666666667
EXTRACT: control_change channel=1 control=64 value=127 time=0.0010416666666666667
EXTRACT: note_on channel=0 note=59 velocity=0 time=0.3302083333333333
EXTRACT: note_on channel=0 note=57 velocity=80 time=0.0010416666666666667
EXTRACT: note_on channel=0 note=57 velocity=0 time=0.33229166666666665
EXTRACT: note_on channel=0 note=55 velocity=80 time=0.0010416666666666667
EXTRACT: note_on channel=0 note=55 velocity=0 time=0.33229166666666665
EXTRACT: note_on channel=0 note=57 velocity=80 time=0.0010416666666666667
EXTRACT: note_on channel=0 note=57 velocity=0 time=0.33229166666666665
EXTRACT: note_on channel=0 note=55 velocity=80 time=0.0010416666666666667
EXTRACT: note_on channel=0 note=55 velocity=0 time=0.33229166666666665
EXTRACT: note_on channel=0 note=54 velocity=80 time=0.0010416666666666667
EXTRACT: note_on channel=1 note=60 velocity=0 time=0.23229166666666667
EXTRACT: note_on channel=1 note=64 velocity=0 time=0
EXTRACT: note_on channel=1 note=67 velocity=0 time=0
EXTRACT: note_on channel=1 note=48 velocity=0 time=0
EXTRACT: note_on channel=1 note=55 velocity=0 time=0
EXTRACT: note_on channel=0 note=54 velocity=0 time=0.1
EXTRACT: note_on channel=0 note=55 velocity=80 time=0.0010416666666666667
EXTRACT: note_on channel=1 note=55 velocity=33 time=0
EXTRACT: note_on channel=1 note=59 velocity=33 time=0
EXTRACT: note_on channel=1 note=62 velocity=33 time=0
EXTRACT: note_on channel=1 note=43 velocity=33 time=0
EXTRACT: note_on channel=1 note=50 velocity=33 time=0
EXTRACT: control_change channel=1 control=64 value=0 time=0.0010416666666666667
EXTRACT: control_change channel=1 control=64 value=127 time=0.0010416666666666667
EXTRACT: note_on channel=1 note=50 velocity=0 time=0.946875
EXTRACT: note_on channel=0 note=55 velocity=0 time=0.05
EXTRACT: note_on channel=1 note=50 velocity=33 time=0.0010416666666666667
EXTRACT: note_on channel=1 note=55 velocity=0 time=0.8989583333333333
EXTRACT: note_on channel=1 note=59 velocity=0 time=0
EXTRACT: note_on channel=1 note=62 velocity=0 time=0
EXTRACT: note_on channel=1 note=43 velocity=0 time=0
EXTRACT: note_on channel=1 note=50 velocity=0 time=0.05
EXTRACT: note_on channel=0 note=59 velocity=80 time=0.051041666666666666
EXTRACT: note_on channel=1 note=64 velocity=33 time=0
EXTRACT: note_on channel=1 note=67 velocity=33 time=0
EXTRACT: note_on channel=1 note=71 velocity=33 time=0
EXTRACT: note_on channel=1 note=52 velocity=33 time=0
EXTRACT: note_on channel=1 note=59 velocity=33 time=0
EXTRACT: control_change channel=1 control=64 value=0 time=0.0010416666666666667
EXTRACT: control_change channel=1 control=64 value=127 time=0.0010416666666666667
EXTRACT: note_on channel=0 note=59 velocity=0 time=0.24687499999999998
EXTRACT: note_on channel=0 note=58 velocity=80 time=0.0010416666666666667
EXTRACT: note_on channel=0 note=58 velocity=0 time=0.24895833333333334
EXTRACT: note_on channel=0 note=59 velocity=80 time=0.0010416666666666667
EXTRACT: note_on channel=1 note=64 velocity=0 time=0.44895833333333335
EXTRACT: note_on channel=1 note=67 velocity=0 time=0
EXTRACT: note_on channel=1 note=71 velocity=0 time=0
EXTRACT: note_on channel=0 note=59 velocity=0 time=0.05
EXTRACT: note_on channel=0 note=59 velocity=80 time=0.0010416666666666667
EXTRACT: note_on channel=1 note=64 velocity=33 time=0
EXTRACT: note_on channel=1 note=67 velocity=33 time=0
EXTRACT: note_on channel=1 note=71 velocity=33 time=0
EXTRACT: note_on channel=0 note=59 velocity=0 time=0.24895833333333334
EXTRACT: note_on channel=0 note=58 velocity=80 time=0.0010416666666666667
EXTRACT: note_on channel=0 note=58 velocity=0 time=0.24895833333333334
EXTRACT: note_on channel=0 note=59 velocity=80 time=0.0010416666666666667
EXTRACT: note_on channel=1 note=52 velocity=0 time=0.3989583333333333
EXTRACT: note_on channel=1 note=59 velocity=0 time=0
EXTRACT: note_on channel=1 note=64 velocity=0 time=0.05
EXTRACT: note_on channel=1 note=67 velocity=0 time=0
EXTRACT: note_on channel=1 note=71 velocity=0 time=0
EXTRACT: note_on channel=0 note=59 velocity=0 time=0.05
EXTRACT: note_on channel=0 note=59 velocity=80 time=0.0010416666666666667
EXTRACT: note_on channel=1 note=62 velocity=33 time=0
EXTRACT: note_on channel=1 note=67 velocity=33 time=0
EXTRACT: note_on channel=1 note=71 velocity=33 time=0
EXTRACT: note_on channel=1 note=50 velocity=33 time=0
EXTRACT: note_on channel=1 note=59 velocity=33 time=0
EXTRACT: control_change channel=1 control=64 value=0 time=0.0010416666666666667
EXTRACT: control_change channel=1 control=64 value=127 time=0.0010416666666666667
EXTRACT: note_on channel=0 note=59 velocity=0 time=0.496875
EXTRACT: note_on channel=0 note=62 velocity=80 time=0.0010416666666666667
EXTRACT: note_on channel=1 note=62 velocity=0 time=0.44895833333333335
EXTRACT: note_on channel=1 note=67 velocity=0 time=0
EXTRACT: note_on channel=1 note=71 velocity=0 time=0
EXTRACT: note_on channel=0 note=62 velocity=0 time=0.05
EXTRACT: note_on channel=0 note=64 velocity=80 time=0.0010416666666666667
EXTRACT: note_on channel=1 note=62 velocity=33 time=0
EXTRACT: note_on channel=1 note=67 velocity=33 time=0
EXTRACT: note_on channel=1 note=71 velocity=33 time=0
EXTRACT: note_on channel=0 note=64 velocity=0 time=0.49895833333333334
EXTRACT: note_on channel=0 note=59 velocity=80 time=0.0010416666666666667
EXTRACT: note_on channel=1 note=50 velocity=0 time=0.3989583333333333
EXTRACT: note_on channel=1 note=59 velocity=0 time=0
EXTRACT: note_on channel=1 note=62 velocity=0 time=0.05
EXTRACT: note_on channel=1 note=67 velocity=0 time=0
EXTRACT: note_on channel=1 note=71 velocity=0 time=0
EXTRACT: note_on channel=0 note=59 velocity=0 time=0.05
EXTRACT: note_on channel=0 note=59 velocity=80 time=0.0010416666666666667
EXTRACT: note_on channel=1 note=60 velocity=33 time=0
EXTRACT: note_on channel=1 note=64 velocity=33 time=0
EXTRACT: note_on channel=1 note=67 velocity=33 time=0
EXTRACT: note_on channel=1 note=48 velocity=33 time=0
EXTRACT: note_on channel=1 note=55 velocity=33 time=0
EXTRACT: control_change channel=1 control=64 value=0 time=0.0010416666666666667
EXTRACT: control_change channel=1 control=64 value=127 time=0.0010416666666666667
EXTRACT: note_on channel=0 note=59 velocity=0 time=0.24687499999999998
EXTRACT: note_on channel=0 note=57 velocity=80 time=0.0010416666666666667
EXTRACT: note_on channel=0 note=57 velocity=0 time=0.24895833333333334
EXTRACT: note_on channel=0 note=59 velocity=80 time=0.0010416666666666667
EXTRACT: note_on channel=0 note=59 velocity=0 time=0.24895833333333334
EXTRACT: note_on channel=0 note=57 velocity=80 time=0.0010416666666666667
EXTRACT: note_on channel=1 note=60 velocity=0 time=0.19895833333333332
EXTRACT: note_on channel=1 note=64 velocity=0 time=0
EXTRACT: note_on channel=1 note=67 velocity=0 time=0
EXTRACT: note_on channel=0 note=57 velocity=0 time=0.05
EXTRACT: note_on channel=0 note=59 velocity=80 time=0.0010416666666666667
EXTRACT: note_on channel=1 note=60 velocity=33 time=0
EXTRACT: note_on channel=1 note=64 velocity=33 time=0
EXTRACT: note_on channel=1 note=67 velocity=33 time=0
EXTRACT: note_on channel=0 note=59 velocity=0 time=0.24895833333333334
EXTRACT: note_on channel=0 note=57 velocity=80 time=0.0010416666666666667
EXTRACT: note_on channel=0 note=57 velocity=0 time=0.24895833333333334
EXTRACT: note_on channel=0 note=55 velocity=80 time=0.0010416666666666667
EXTRACT: note_on channel=0 note=55 velocity=0 time=0.24895833333333334
EXTRACT: note_on channel=0 note=57 velocity=80 time=0.0010416666666666667
EXTRACT: note_on channel=1 note=48 velocity=0 time=0.14895833333333333
EXTRACT: note_on channel=1 note=55 velocity=0 time=0
EXTRACT: note_on channel=1 note=60 velocity=0 time=0.05
EXTRACT: note_on channel=1 note=64 velocity=0 time=0
EXTRACT: note_on channel=1 note=67 velocity=0 time=0
EXTRACT: note_on channel=0 note=57 velocity=0 time=0.05
EXTRACT: note_on channel=0 note=59 velocity=80 time=0.0010416666666666667
EXTRACT: note_on channel=1 note=55 velocity=33 time=0
EXTRACT: note_on channel=1 note=59 velocity=33 time=0
EXTRACT: note_on channel=1 note=62 velocity=33 time=0
EXTRACT: note_on channel=1 note=43 velocity=33 time=0
EXTRACT: note_on channel=1 note=50 velocity=33 time=0
EXTRACT: control_change channel=1 control=64 value=0 time=0.0010416666666666667
EXTRACT: control_change channel=1 control=64 value=127 time=0.0010416666666666667
EXTRACT: note_on channel=0 note=59 velocity=0 time=0.24687499999999998
EXTRACT: note_on channel=0 note=57 velocity=80 time=0.0010416666666666667
EXTRACT: note_on channel=0 note=57 velocity=0 time=0.24895833333333334
EXTRACT: note_on channel=0 note=59 velocity=80 time=0.0010416666666666667
EXTRACT: note_on channel=0 note=59 velocity=0 time=0.24895833333333334
EXTRACT: note_on channel=0 note=57 velocity=80 time=0.0010416666666666667
EXTRACT: note_on channel=1 note=55 velocity=0 time=0.19895833333333332
EXTRACT: note_on channel=1 note=59 velocity=0 time=0
EXTRACT: note_on channel=1 note=62 velocity=0 time=0
EXTRACT: note_on channel=1 note=43 velocity=0 time=0
EXTRACT: note_on channel=1 note=50 velocity=0 time=0
EXTRACT: note_on channel=0 note=57 velocity=0 time=0.05
EXTRACT: note_on channel=0 note=55 velocity=80 time=0.0010416666666666667
EXTRACT: note_on channel=1 note=55 velocity=33 time=0
EXTRACT: note_on channel=1 note=59 velocity=33 time=0
EXTRACT: note_on channel=1 note=62 velocity=33 time=0
EXTRACT: note_on channel=1 note=43 velocity=33 time=0
EXTRACT: note_on channel=1 note=50 velocity=33 time=0
EXTRACT: note_on channel=0 note=55 velocity=0 time=0.49895833333333334
EXTRACT: note_on channel=1 note=55 velocity=0 time=0.45
EXTRACT: note_on channel=1 note=59 velocity=0 time=0
EXTRACT: note_on channel=1 note=62 velocity=0 time=0
EXTRACT: note_on channel=1 note=43 velocity=0 time=0
EXTRACT: note_on channel=1 note=50 velocity=0 time=0
EXTRACT: note_on channel=0 note=59 velocity=80 time=0.051041666666666666
EXTRACT: note_on channel=1 note=64 velocity=33 time=0
EXTRACT: note_on channel=1 note=67 velocity=33 time=0
EXTRACT: note_on channel=1 note=71 velocity=33 time=0
EXTRACT: note_on channel=1 note=52 velocity=33 time=0
EXTRACT: note_on channel=1 note=59 velocity=33 time=0
EXTRACT: control_change channel=1 control=64 value=0 time=0.0010416666666666667
EXTRACT: control_change channel=1 control=64 value=127 time=0.0010416666666666667
EXTRACT: note_on channel=0 note=59 velocity=0 time=0.24687499999999998
EXTRACT: note_on channel=0 note=58 velocity=80 time=0.0010416666666666667
EXTRACT: note_on channel=0 note=58 velocity=0 time=0.24895833333333334
EXTRACT: note_on channel=0 note=59 velocity=80 time=0.0010416666666666667
EXTRACT: note_on channel=0 note=59 velocity=0 time=0.24895833333333334
EXTRACT: note_on channel=0 note=58 velocity=80 time=0.0010416666666666667
EXTRACT: note_on channel=0 note=58 velocity=0 time=0.24895833333333334
EXTRACT: note_on channel=0 note=59 velocity=80 time=0.0010416666666666667
EXTRACT: note_on channel=0 note=59 velocity=0 time=0.24895833333333334
EXTRACT: note_on channel=0 note=58 velocity=80 time=0.0010416666666666667
EXTRACT: note_on channel=0 note=58 velocity=0 time=0.24895833333333334
EXTRACT: note_on channel=0 note=59 velocity=80 time=0.0010416666666666667
EXTRACT: note_on channel=1 note=64 velocity=0 time=0.3989583333333333
EXTRACT: note_on channel=1 note=67 velocity=0 time=0
EXTRACT: note_on channel=1 note=71 velocity=0 time=0
EXTRACT: note_on channel=1 note=52 velocity=0 time=0
EXTRACT: note_on channel=1 note=59 velocity=0 time=0
EXTRACT: note_on channel=0 note=59 velocity=0 time=0.1
EXTRACT: note_on channel=0 note=59 velocity=80 time=0.0010416666666666667
EXTRACT: note_on channel=1 note=62 velocity=33 time=0
EXTRACT: note_on channel=1 note=67 velocity=33 time=0
EXTRACT: note_on channel=1 note=71 velocity=33 time=0
EXTRACT: note_on channel=1 note=50 velocity=33 time=0
EXTRACT: note_on channel=1 note=59 velocity=33 time=0
EXTRACT: control_change channel=1 control=64 value=0 time=0.0010416666666666667
EXTRACT: control_change channel=1 control=64 value=127 time=0.0010416666666666667
EXTRACT: note_on channel=0 note=59 velocity=0 time=0.24687499999999998
EXTRACT: note_on channel=0 note=57 velocity=80 time=0.0010416666666666667
EXTRACT: note_on channel=0 note=57 velocity=0 time=0.24895833333333334
EXTRACT: note_on channel=0 note=59 velocity=80 time=0.0010416666666666667
EXTRACT: note_on channel=0 note=59 velocity=0 time=0.24895833333333334
EXTRACT: note_on channel=0 note=57 velocity=80 time=0.0010416666666666667
EXTRACT: note_on channel=0 note=57 velocity=0 time=0.24895833333333334
EXTRACT: note_on channel=0 note=59 velocity=80 time=0.0010416666666666667
EXTRACT: note_on channel=0 note=59 velocity=0 time=0.24895833333333334
EXTRACT: note_on channel=0 note=57 velocity=80 time=0.0010416666666666667
EXTRACT: note_on channel=0 note=57 velocity=0 time=0.24895833333333334
EXTRACT: note_on channel=0 note=59 velocity=80 time=0.0010416666666666667
EXTRACT: note_on channel=0 note=59 velocity=0 time=0.24895833333333334
EXTRACT: note_on channel=0 note=55 velocity=80 time=0.0010416666666666667
EXTRACT: note_on channel=1 note=62 velocity=0 time=0.14895833333333333
EXTRACT: note_on channel=1 note=67 velocity=0 time=0
EXTRACT: note_on channel=1 note=71 velocity=0 time=0
EXTRACT: note_on channel=1 note=50 velocity=0 time=0
EXTRACT: note_on channel=1 note=59 velocity=0 time=0
EXTRACT: note_on channel=0 note=55 velocity=0 time=0.1
EXTRACT: note_on channel=0 note=59 velocity=80 time=0.0010416666666666667
EXTRACT: note_on channel=1 note=60 velocity=33 time=0
EXTRACT: note_on channel=1 note=64 velocity=33 time=0
EXTRACT: note_on channel=1 note=67 velocity=33 time=0
EXTRACT: note_on channel=1 note=48 velocity=33 time=0
EXTRACT: note_on channel=1 note=55 velocity=33 time=0
EXTRACT: control_change channel=1 control=64 value=0 time=0.0010416666666666667
EXTRACT: control_change channel=1 control=64 value=127 time=0.0010416666666666667
EXTRACT: note_on channel=0 note=59 velocity=0 time=0.3302083333333333
EXTRACT: note_on channel=0 note=57 velocity=80 time=0.0010416666666666667
EXTRACT: note_on channel=0 note=57 velocity=0 time=0.33229166666666665
EXTRACT: note_on channel=0 note=55 velocity=80 time=0.0010416666666666667
EXTRACT: note_on channel=0 note=55 velocity=0 time=0.33229166666666665
EXTRACT: note_on channel=0 note=57 velocity=80 time=0.0010416666666666667
EXTRACT: note_on channel=0 note=57 velocity=0 time=0.33229166666666665
EXTRACT: note_on channel=0 note=55 velocity=80 time=0.0010416666666666667
EXTRACT: note_on channel=0 note=55 velocity=0 time=0.33229166666666665
EXTRACT: note_on channel=0 note=54 velocity=80 time=0.0010416666666666667
EXTRACT: note_on channel=1 note=60 velocity=0 time=0.23229166666666667
EXTRACT: note_on channel=1 note=64 velocity=0 time=0
EXTRACT: note_on channel=1 note=67 velocity=0 time=0
EXTRACT: note_on channel=1 note=48 velocity=0 time=0
EXTRACT: note_on channel=1 note=55 velocity=0 time=0
EXTRACT: note_on channel=0 note=54 velocity=0 time=0.1
EXTRACT: note_on channel=0 note=55 velocity=80 time=0.0010416666666666667
EXTRACT: note_on channel=1 note=55 velocity=33 time=0
EXTRACT: note_on channel=1 note=59 velocity=33 time=0
EXTRACT: note_on channel=1 note=62 velocity=33 time=0
EXTRACT: note_on channel=1 note=43 velocity=33 time=0
EXTRACT: note_on channel=1 note=50 velocity=33 time=0
EXTRACT: control_change channel=1 control=64 value=0 time=0.0010416666666666667
EXTRACT: control_change channel=1 control=64 value=127 time=0.0010416666666666667
EXTRACT: note_on channel=1 note=50 velocity=0 time=0.946875
EXTRACT: note_on channel=0 note=55 velocity=0 time=0.05
EXTRACT: note_on channel=1 note=50 velocity=33 time=0.0010416666666666667
EXTRACT: note_on channel=0 note=59 velocity=80 time=0.3333333333333333
EXTRACT: note_on channel=0 note=59 velocity=0 time=0.33229166666666665
EXTRACT: note_on channel=0 note=59 velocity=80 time=0.0010416666666666667
EXTRACT: note_on channel=1 note=55 velocity=0 time=0.23229166666666667
EXTRACT: note_on channel=1 note=59 velocity=0 time=0
EXTRACT: note_on channel=1 note=62 velocity=0 time=0
EXTRACT: note_on channel=1 note=43 velocity=0 time=0
EXTRACT: note_on channel=1 note=50 velocity=0 time=0.05
EXTRACT: note_on channel=0 note=59 velocity=0 time=0.05
EXTRACT: note_on channel=0 note=64 velocity=80 time=0.0010416666666666667
EXTRACT: note_on channel=1 note=60 velocity=33 time=0
EXTRACT: note_on channel=1 note=64 velocity=33 time=0
EXTRACT: note_on channel=1 note=67 velocity=33 time=0
EXTRACT: note_on channel=1 note=48 velocity=33 time=0
EXTRACT: note_on channel=1 note=55 velocity=33 time=0
EXTRACT: control_change channel=1 control=64 value=0 time=0.0010416666666666667
EXTRACT: control_change channel=1 control=64 value=127 time=0.0010416666666666667
EXTRACT: note_on channel=0 note=64 velocity=0 time=0.996875
EXTRACT: note_on channel=0 note=62 velocity=80 time=0.0010416666666666667
EXTRACT: note_on channel=0 note=62 velocity=0 time=0.9989583333333333
EXTRACT: note_on channel=0 note=67 velocity=80 time=0.0010416666666666667
EXTRACT: note_on channel=1 note=60 velocity=0 time=0.8489583333333334
EXTRACT: note_on channel=1 note=64 velocity=0 time=0
EXTRACT: note_on channel=1 note=67 velocity=0 time=0
EXTRACT: note_on channel=1 note=48 velocity=0 time=0
EXTRACT: note_on channel=1 note=55 velocity=0 time=0
EXTRACT: note_on channel=0 note=67 velocity=0 time=0.15
EXTRACT: note_on channel=0 note=69 velocity=80 time=0.0010416666666666667
EXTRACT: note_on channel=1 note=60 velocity=33 time=0
EXTRACT: note_on channel=1 note=64 velocity=33 time=0
EXTRACT: note_on channel=1 note=67 velocity=33 time=0
EXTRACT: note_on channel=1 note=48 velocity=33 time=0
EXTRACT: note_on channel=1 note=55 velocity=33 time=0
EXTRACT: note_on channel=1 note=60 velocity=0 time=0.9489583333333333
EXTRACT: note_on channel=1 note=64 velocity=0 time=0
EXTRACT: note_on channel=1 note=67 velocity=0 time=0
EXTRACT: note_on channel=1 note=48 velocity=0 time=0
EXTRACT: note_on channel=1 note=55 velocity=0 time=0
EXTRACT: note_on channel=0 note=69 velocity=0 time=0.05
EXTRACT: note_on channel=0 note=69 velocity=80 time=0.0010416666666666667
EXTRACT: note_on channel=1 note=62 velocity=33 time=0
EXTRACT: note_on channel=1 note=66 velocity=33 time=0
EXTRACT: note_on channel=1 note=69 velocity=33 time=0
EXTRACT: note_on channel=1 note=50 velocity=33 time=0
EXTRACT: note_on channel=1 note=57 velocity=33 time=0
EXTRACT: control_change channel=1 control=64 value=0 time=0.0010416666666666667
EXTRACT: control_change channel=1 control=64 value=127 time=0.0010416666666666667
EXTRACT: note_on channel=0 note=69 velocity=0 time=0.996875
EXTRACT: note_on channel=1 note=62 velocity=0 time=0.9
EXTRACT: note_on channel=1 note=66 velocity=0 time=0
EXTRACT: note_on channel=1 note=69 velocity=0 time=0
EXTRACT: note_on channel=1 note=50 velocity=0 time=0
EXTRACT: note_on channel=1 note=57 velocity=0 time=0
EXTRACT: note_on channel=1 note=50 velocity=33 time=0.10104166666666667
EXTRACT: control_change channel=1 control=64 value=0 time=0.0010416666666666667
EXTRACT: control_change channel=1 control=64 value=127 time=0.0010416666666666667
EXTRACT: note_on channel=1 note=50 velocity=0 time=0.234375
EXTRACT: note_on channel=1 note=54 velocity=33 time=0.013541666666666667
EXTRACT: note_on channel=1 note=54 velocity=0 time=0.23645833333333333
EXTRACT: note_on channel=1 note=57 velocity=33 time=0.013541666666666667
EXTRACT: note_on channel=1 note=57 velocity=0 time=0.23645833333333333
EXTRACT: note_on channel=1 note=62 velocity=33 time=0.013541666666666667
EXTRACT: note_on channel=1 note=62 velocity=0 time=0.23645833333333333
EXTRACT: note_on channel=1 note=66 velocity=33 time=0.013541666666666667
EXTRACT: note_on channel=1 note=66 velocity=0 time=0.23645833333333333
EXTRACT: note_on channel=1 note=62 velocity=33 time=0.013541666666666667
EXTRACT: note_on channel=1 note=62 velocity=0 time=0.23645833333333333
EXTRACT: note_on channel=1 note=66 velocity=33 time=0.013541666666666667
EXTRACT: note_on channel=1 note=66 velocity=0 time=0.23645833333333333
EXTRACT: note_on channel=1 note=69 velocity=33 time=0.013541666666666667
EXTRACT: note_on channel=1 note=69 velocity=0 time=0.23645833333333333
EXTRACT: note_on channel=1 note=64 velocity=33 time=0.013541666666666667
EXTRACT: note_on channel=1 note=67 velocity=33 time=0
EXTRACT: note_on channel=1 note=71 velocity=33 time=0
EXTRACT: note_on channel=1 note=52 velocity=33 time=0
EXTRACT: note_on channel=1 note=59 velocity=33 time=0
EXTRACT: control_change channel=1 control=64 value=0 time=0.0010416666666666667
EXTRACT: control_change channel=1 control=64 value=127 time=0.0010416666666666667
EXTRACT: note_on channel=0 note=59 velocity=80 time=0.24791666666666667
EXTRACT: note_on channel=0 note=59 velocity=0 time=0.24895833333333334
EXTRACT: note_on channel=0 note=57 velocity=80 time=0.0010416666666666667
EXTRACT: note_on channel=0 note=57 velocity=0 time=0.24895833333333334
EXTRACT: note_on channel=0 note=59 velocity=80 time=0.0010416666666666667
EXTRACT: note_on channel=1 note=64 velocity=0 time=0.19895833333333332
EXTRACT: note_on channel=1 note=67 velocity=0 time=0
EXTRACT: note_on channel=1 note=71 velocity=0 time=0
EXTRACT: note_on channel=1 note=59 velocity=0 time=0
EXTRACT: note_on channel=0 note=59 velocity=0 time=0.05
EXTRACT: note_on channel=0 note=62 velocity=80 time=0.0010416666666666667
EXTRACT: note_on channel=1 note=64 velocity=33 time=0
EXTRACT: note_on channel=1 note=67 velocity=33 time=0
EXTRACT: note_on channel=1 note=71 velocity=33 time=0
EXTRACT: note_on channel=1 note=59 velocity=33 time=0
EXTRACT: note_on channel=0 note=62 velocity=0 time=0.49895833333333334
EXTRACT: note_on channel=0 note=55 velocity=80 time=0.0010416666666666667
EXTRACT: note_on channel=1 note=52 velocity=0 time=0.3989583333333333
EXTRACT: note_on channel=1 note=64 velocity=0 time=0.05
EXTRACT: note_on channel=1 note=67 velocity=0 time=0
EXTRACT: note_on channel=1 note=71 velocity=0 time=0
EXTRACT: note_on channel=1 note=59 velocity=0 time=0
EXTRACT: note_on channel=1 note=62 velocity=33 time=0.051041666666666666
EXTRACT: note_on channel=1 note=67 velocity=33 time=0
EXTRACT: note_on channel=1 note=71 velocity=33 time=0
EXTRACT: note_on channel=1 note=50 velocity=33 time=0
EXTRACT: note_on channel=1 note=59 velocity=33 time=0
EXTRACT: control_change channel=1 control=64 value=0 time=0.0010416666666666667
EXTRACT: control_change channel=1 control=64 value=127 time=0.0010416666666666667
EXTRACT: note_on channel=0 note=55 velocity=0 time=0.24687499999999998
EXTRACT: note_on channel=0 note=59 velocity=80 time=0.0010416666666666667
EXTRACT: note_on channel=0 note=59 velocity=0 time=0.24895833333333334
EXTRACT: note_on channel=0 note=57 velocity=80 time=0.0010416666666666667
EXTRACT: note_on channel=0 note=57 velocity=0 time=0.24895833333333334
EXTRACT: note_on channel=0 note=62 velocity=80 time=0.0010416666666666667
EXTRACT: note_on channel=1 note=62 velocity=0 time=0.19895833333333332
EXTRACT: note_on channel=1 note=67 velocity=0 time=0
EXTRACT: note_on channel=1 note=71 velocity=0 time=0
EXTRACT: note_on channel=1 note=59 velocity=0 time=0
EXTRACT: note_on channel=0 note=62 velocity=0 time=0.05
EXTRACT: note_on channel=0 note=59 velocity=80 time=0.0010416666666666667
EXTRACT: note_on channel=1 note=62 velocity=33 time=0
EXTRACT: note_on channel=1 note=67 velocity=33 time=0
EXTRACT: note_on channel=1 note=71 velocity=33 time=0
EXTRACT: note_on channel=1 note=59 velocity=33 time=0
EXTRACT: note_on channel=0 note=59 velocity=0 time=0.49895833333333334
EXTRACT: note_on channel=1 note=50 velocity=0 time=0.4
EXTRACT: note_on channel=1 note=62 velocity=0 time=0.05
EXTRACT: note_on channel=1 note=67 velocity=0 time=0
EXTRACT: note_on channel=1 note=71 velocity=0 time=0
EXTRACT: note_on channel=1 note=59 velocity=0 time=0
EXTRACT: note_on channel=0 note=60 velocity=80 time=0.051041666666666666
EXTRACT: note_on channel=1 note=60 velocity=33 time=0
EXTRACT: note_on channel=1 note=64 velocity=33 time=0
EXTRACT: note_on channel=1 note=67 velocity=33 time=0
EXTRACT: note_on channel=1 note=48 velocity=33 time=0
EXTRACT: note_on channel=1 note=55 velocity=33 time=0
EXTRACT: control_change channel=1 control=64 value=0 time=0.0010416666666666667
EXTRACT: control_change channel=1 control=64 value=127 time=0.0010416666666666667
EXTRACT: note_on channel=0 note=60 velocity=0 time=0.24687499999999998
EXTRACT: note_on channel=0 note=59 velocity=80 time=0.0010416666666666667
EXTRACT: note_on channel=0 note=59 velocity=0 time=0.24895833333333334
EXTRACT: note_on channel=0 note=60 velocity=80 time=0.0010416666666666667
EXTRACT: note_on channel=0 note=60 velocity=0 time=0.24895833333333334
EXTRACT: note_on channel=0 note=59 velocity=80 time=0.0010416666666666667
EXTRACT: note_on channel=1 note=60 velocity=0 time=0.19895833333333332
EXTRACT: note_on channel=1 note=64 velocity=0 time=0
EXTRACT: note_on channel=1 note=67 velocity=0 time=0
EXTRACT: note_on channel=1 note=55 velocity=0 time=0
EXTRACT: note_on channel=0 note=59 velocity=0 time=0.05
EXTRACT: note_on channel=0 note=60 velocity=80 time=0.0010416666666666667
EXTRACT: note_on channel=1 note=60 velocity=33 time=0
EXTRACT: note_on channel=1 note=64 velocity=33 time=0
EXTRACT: note_on channel=1 note=67 velocity=33 time=0
EXTRACT: note_on channel=1 note=55 velocity=33 time=0
EXTRACT: note_on channel=0 note=60 velocity=0 time=0.49895833333333334
EXTRACT: note_on channel=0 note=55 velocity=80 time=0.0010416666666666667
EXTRACT: note_on channel=1 note=48 velocity=0 time=0.3989583333333333
EXTRACT: note_on channel=1 note=60 velocity=0 time=0.05
EXTRACT: note_on channel=1 note=64 velocity=0 time=0
EXTRACT: note_on channel=1 note=67 velocity=0 time=0
EXTRACT: note_on channel=1 note=55 velocity=0 time=0
EXTRACT: note_on channel=0 note=55 velocity=0 time=0.05
EXTRACT: note_on channel=1 note=55 velocity=33 time=0.0010416666666666667
EXTRACT: note_on channel=1 note=59 velocity=33 time=0
EXTRACT: note_on channel=1 note=62 velocity=33 time=0
EXTRACT: note_on channel=1 note=43 velocity=33 time=0
EXTRACT: note_on channel=1 note=50 velocity=33 time=0
EXTRACT: control_change channel=1 control=64 value=0 time=0.0010416666666666667
EXTRACT: control_change channel=1 control=64 value=127 time=0.0010416666666666667
EXTRACT: note_on channel=0 note=59 velocity=80 time=0.4979166666666667
EXTRACT: note_on channel=0 note=59 velocity=0 time=0.24895833333333334
EXTRACT: note_on channel=0 note=62 velocity=80 time=0.0010416666666666667
EXTRACT: note_on channel=1 note=55 velocity=0 time=0.19895833333333332
EXTRACT: note_on channel=1 note=59 velocity=0 time=0
EXTRACT: note_on channel=1 note=62 velocity=0 time=0
EXTRACT: note_on channel=1 note=43 velocity=0 time=0
EXTRACT: note_on channel=1 note=50 velocity=0 time=0
EXTRACT: note_on channel=0 note=62 velocity=0 time=0.05
EXTRACT: note_on channel=0 note=59 velocity=80 time=0.0010416666666666667
EXTRACT: note_on channel=1 note=55 velocity=33 time=0
EXTRACT: note_on channel=1 note=59 velocity=33 time=0
EXTRACT: note_on channel=1 note=62 velocity=33 time=0
EXTRACT: note_on channel=1 note=43 velocity=33 time=0
EXTRACT: note_on channel=1 note=50 velocity=33 time=0
EXTRACT: note_on channel=0 note=59 velocity=0 time=0.49895833333333334
EXTRACT: note_on channel=0 note=57 velocity=80 time=0.0010416666666666667
EXTRACT: note_on channel=1 note=55 velocity=0 time=0.44895833333333335
EXTRACT: note_on channel=1 note=59 velocity=0 time=0
EXTRACT: note_on channel=1 note=62 velocity=0 time=0
EXTRACT: note_on channel=1 note=43 velocity=0 time=0
EXTRACT: note_on channel=1 note=50 velocity=0 time=0
EXTRACT: note_on channel=0 note=57 velocity=0 time=0.05
EXTRACT: note_on channel=1 note=64 velocity=33 time=0.0010416666666666667
EXTRACT: note_on channel=1 note=67 velocity=33 time=0
EXTRACT: note_on channel=1 note=71 velocity=33 time=0
EXTRACT: note_on channel=1 note=52 velocity=33 time=0
EXTRACT: note_on channel=1 note=59 velocity=33 time=0
EXTRACT: control_change channel=1 control=64 value=0 time=0.0010416666666666667
EXTRACT: control_change channel=1 control=64 value=127 time=0.0010416666666666667
EXTRACT: note_on channel=0 note=59 velocity=80 time=0.24791666666666667
EXTRACT: note_on channel=0 note=59 velocity=0 time=0.24895833333333334
EXTRACT: note_on channel=0 note=57 velocity=80 time=0.0010416666666666667
EXTRACT: note_on channel=0 note=57 velocity=0 time=0.24895833333333334
EXTRACT: note_on channel=0 note=59 velocity=80 time=0.0010416666666666667
EXTRACT: note_on channel=1 note=64 velocity=0 time=0.19895833333333332
EXTRACT: note_on channel=1 note=67 velocity=0 time=0
EXTRACT: note_on channel=1 note=71 velocity=0 time=0
EXTRACT: note_on channel=1 note=59 velocity=0 time=0
EXTRACT: note_on channel=0 note=59 velocity=0 time=0.05
EXTRACT: note_on channel=0 note=62 velocity=80 time=0.0010416666666666667
EXTRACT: note_on channel=1 note=64 velocity=33 time=0
EXTRACT: note_on channel=1 note=67 velocity=33 time=0
EXTRACT: note_on channel=1 note=71 velocity=33 time=0
EXTRACT: note_on channel=1 note=59 velocity=33 time=0
EXTRACT: note_on channel=0 note=62 velocity=0 time=0.49895833333333334
EXTRACT: note_on channel=0 note=62 velocity=80 time=0.0010416666666666667
EXTRACT: note_on channel=1 note=52 velocity=0 time=0.3989583333333333
EXTRACT: note_on channel=1 note=64 velocity=0 time=0.05
EXTRACT: note_on channel=1 note=67 velocity=0 time=0
EXTRACT: note_on channel=1 note=71 velocity=0 time=0
EXTRACT: note_on channel=1 note=59 velocity=0 time=0
EXTRACT: note_on channel=0 note=62 velocity=0 time=0.05
EXTRACT: note_on channel=0 note=64 velocity=80 time=0.0010416666666666667
EXTRACT: note_on channel=1 note=62 velocity=33 time=0
EXTRACT: note_on channel=1 note=67 velocity=33 time=0
EXTRACT: note_on channel=1 note=71 velocity=33 time=0
EXTRACT: note_on channel=1 note=50 velocity=33 time=0
EXTRACT: note_on channel=1 note=59 velocity=33 time=0
EXTRACT: control_change channel=1 control=64 value=0 time=0.0010416666666666667
EXTRACT: control_change channel=1 control=64 value=127 time=0.0010416666666666667
EXTRACT: note_on channel=0 note=64 velocity=0 time=0.24687499999999998
EXTRACT: note_on channel=0 note=62 velocity=80 time=0.0010416666666666667
EXTRACT: note_on channel=0 note=62 velocity=0 time=0.24895833333333334
EXTRACT: note_on channel=0 note=59 velocity=80 time=0.0010416666666666667
EXTRACT: note_on channel=0 note=59 velocity=0 time=0.24895833333333334
EXTRACT: note_on channel=0 note=57 velocity=80 time=0.0010416666666666667
EXTRACT: note_on channel=1 note=62 velocity=0 time=0.19895833333333332
EXTRACT: note_on channel=1 note=67 velocity=0 time=0
EXTRACT: note_on channel=1 note=71 velocity=0 time=0
EXTRACT: note_on channel=1 note=59 velocity=0 time=0
EXTRACT: note_on channel=0 note=57 velocity=0 time=0.05
EXTRACT: note_on channel=0 note=59 velocity=80 time=0.0010416666666666667
EXTRACT: note_on channel=1 note=62 velocity=33 time=0
EXTRACT: note_on channel=1 note=67 velocity=33 time=0
EXTRACT: note_on channel=1 note=71 velocity=33 time=0
EXTRACT: note_on channel=1 note=59 velocity=33 time=0
EXTRACT: note_on channel=0 note=59 velocity=0 time=0.49895833333333334
EXTRACT: note_on channel=1 note=50 velocity=0 time=0.4
EXTRACT: note_on channel=1 note=62 velocity=0 time=0.05
EXTRACT: note_on channel=1 note=67 velocity=0 time=0
EXTRACT: note_on channel=1 note=71 velocity=0 time=0
EXTRACT: note_on channel=1 note=59 velocity=0 time=0
EXTRACT: note_on channel=0 note=60 velocity=80 time=0.051041666666666666
EXTRACT: note_on channel=1 note=60 velocity=33 time=0
EXTRACT: note_on channel=1 note=64 velocity=33 time=0
EXTRACT: note_on channel=1 note=67 velocity=33 time=0
EXTRACT: note_on channel=1 note=48 velocity=33 time=0
EXTRACT: note_on channel=1 note=55 velocity=33 time=0
EXTRACT: control_change channel=1 control=64 value=0 time=0.0010416666666666667
EXTRACT: control_change channel=1 control=64 value=127 time=0.0010416666666666667
EXTRACT: note_on channel=0 note=60 velocity=0 time=0.24687499999999998
EXTRACT: note_on channel=0 note=59 velocity=80 time=0.0010416666666666667
EXTRACT: note_on channel=0 note=59 velocity=0 time=0.24895833333333334
EXTRACT: note_on channel=0 note=60 velocity=80 time=0.0010416666666666667
EXTRACT: note_on channel=0 note=60 velocity=0 time=0.24895833333333334
EXTRACT: note_on channel=0 note=59 velocity=80 time=0.0010416666666666667
EXTRACT: note_on channel=1 note=60 velocity=0 time=0.19895833333333332
EXTRACT: note_on channel=1 note=64 velocity=0 time=0
EXTRACT: note_on channel=1 note=67 velocity=0 time=0
EXTRACT: note_on channel=1 note=55 velocity=0 time=0
EXTRACT: note_on channel=0 note=59 velocity=0 time=0.05
EXTRACT: note_on channel=0 note=60 velocity=80 time=0.0010416666666666667
EXTRACT: note_on channel=1 note=60 velocity=33 time=0
EXTRACT: note_on channel=1 note=64 velocity=33 time=0
EXTRACT: note_on channel=1 note=67 velocity=33 time=0
EXTRACT: note_on channel=1 note=55 velocity=33 time=0
EXTRACT: note_on channel=0 note=60 velocity=0 time=0.24895833333333334
EXTRACT: note_on channel=0 note=59 velocity=80 time=0.0010416666666666667
EXTRACT: note_on channel=0 note=59 velocity=0 time=0.24895833333333334
EXTRACT: note_on channel=0 note=55 velocity=80 time=0.0010416666666666667
EXTRACT: note_on channel=1 note=48 velocity=0 time=0.3989583333333333
EXTRACT: note_on channel=1 note=60 velocity=0 time=0.05
EXTRACT: note_on channel=1 note=64 velocity=0 time=0
EXTRACT: note_on channel=1 note=67 velocity=0 time=0
EXTRACT: note_on channel=1 note=55 velocity=0 time=0
EXTRACT: note_on channel=0 note=55 velocity=0 time=0.05
EXTRACT: note_on channel=1 note=55 velocity=33 time=0.0010416666666666667
EXTRACT: note_on channel=1 note=59 velocity=33 time=0
EXTRACT: note_on channel=1 note=62 velocity=33 time=0
EXTRACT: note_on channel=1 note=43 velocity=33 time=0
EXTRACT: note_on channel=1 note=50 velocity=33 time=0
EXTRACT: control_change channel=1 control=64 value=0 time=0.0010416666666666667
EXTRACT: control_change channel=1 control=64 value=127 time=0.0010416666666666667
EXTRACT: note_on channel=0 note=59 velocity=80 time=0.4979166666666667
EXTRACT: note_on channel=0 note=59 velocity=0 time=0.24895833333333334
EXTRACT: note_on channel=0 note=62 velocity=80 time=0.0010416666666666667
EXTRACT: note_on channel=1 note=55 velocity=0 time=0.19895833333333332
EXTRACT: note_on channel=1 note=59 velocity=0 time=0
EXTRACT: note_on channel=1 note=62 velocity=0 time=0
EXTRACT: note_on channel=1 note=43 velocity=0 time=0
EXTRACT: note_on channel=1 note=50 velocity=0 time=0
EXTRACT: note_on channel=0 note=62 velocity=0 time=0.05
EXTRACT: note_on channel=0 note=59 velocity=80 time=0.0010416666666666667
EXTRACT: note_on channel=1 note=55 velocity=33 time=0
EXTRACT: note_on channel=1 note=59 velocity=33 time=0
EXTRACT: note_on channel=1 note=62 velocity=33 time=0
EXTRACT: note_on channel=1 note=43 velocity=33 time=0
EXTRACT: note_on channel=1 note=50 velocity=33 time=0
EXTRACT: note_on channel=0 note=59 velocity=0 time=0.49895833333333334
EXTRACT: note_on channel=1 note=55 velocity=0 time=0.45
EXTRACT: note_on channel=1 note=59 velocity=0 time=0
EXTRACT: note_on channel=1 note=62 velocity=0 time=0
EXTRACT: note_on channel=1 note=43 velocity=0 time=0
EXTRACT: note_on channel=1 note=50 velocity=0 time=0
EXTRACT: note_on channel=0 note=67 velocity=80 time=0.051041666666666666
EXTRACT: note_on channel=1 note=64 velocity=33 time=0
EXTRACT: note_on channel=1 note=67 velocity=33 time=0
EXTRACT: note_on channel=1 note=71 velocity=33 time=0
EXTRACT: note_on channel=1 note=52 velocity=33 time=0
EXTRACT: note_on channel=1 note=59 velocity=33 time=0
EXTRACT: control_change channel=1 control=64 value=0 time=0.0010416666666666667
EXTRACT: control_change channel=1 control=64 value=127 time=0.0010416666666666667
EXTRACT: note_on channel=1 note=64 velocity=0 time=0.946875
EXTRACT: note_on channel=1 note=67 velocity=0 time=0
EXTRACT: note_on channel=1 note=71 velocity=0 time=0
EXTRACT: note_on channel=1 note=59 velocity=0 time=0
EXTRACT: note_on channel=0 note=67 velocity=0 time=0.05
EXTRACT: note_on channel=0 note=66 velocity=80 time=0.0010416666666666667
EXTRACT: note_on channel=1 note=64 velocity=33 time=0
EXTRACT: note_on channel=1 note=67 velocity=33 time=0
EXTRACT: note_on channel=1 note=71 velocity=33 time=0
EXTRACT: note_on channel=1 note=59 velocity=33 time=0
EXTRACT: note_on channel=0 note=66 velocity=0 time=0.165625
EXTRACT: note_on channel=0 note=64 velocity=80 time=0.0010416666666666667
EXTRACT: note_on channel=0 note=64 velocity=0 time=0.165625
EXTRACT: note_on channel=0 note=66 velocity=80 time=0.0010416666666666667
EXTRACT: note_on channel=0 note=66 velocity=0 time=0.165625
EXTRACT: note_on channel=0 note=64 velocity=80 time=0.0010416666666666667
EXTRACT: note_on channel=1 note=52 velocity=0 time=0.3989583333333333
EXTRACT: note_on channel=1 note=64 velocity=0 time=0.05
EXTRACT: note_on channel=1 note=67 velocity=0 time=0
EXTRACT: note_on channel=1 note=71 velocity=0 time=0
EXTRACT: note_on channel=1 note=59 velocity=0 time=0
EXTRACT: note_on channel=0 note=64 velocity=0 time=0.05
EXTRACT: note_on channel=0 note=64 velocity=80 time=0.0010416666666666667
EXTRACT: note_on channel=1 note=62 velocity=33 time=0
EXTRACT: note_on channel=1 note=67 velocity=33 time=0
EXTRACT: note_on channel=1 note=71 velocity=33 time=0
EXTRACT: note_on channel=1 note=50 velocity=33 time=0
EXTRACT: note_on channel=1 note=59 velocity=33 time=0
EXTRACT: control_change channel=1 control=64 value=0 time=0.0010416666666666667
EXTRACT: control_change channel=1 control=64 value=127 time=0.0010416666666666667
EXTRACT: note_on channel=0 note=64 velocity=0 time=0.746875
EXTRACT: note_on channel=0 note=62 velocity=80 time=0.0010416666666666667
EXTRACT: note_on channel=1 note=62 velocity=0 time=0.19895833333333332
EXTRACT: note_on channel=1 note=67 velocity=0 time=0
EXTRACT: note_on channel=1 note=71 velocity=0 time=0
EXTRACT: note_on channel=1 note=59 velocity=0 time=0
EXTRACT: note_on channel=0 note=62 velocity=0 time=0.05
EXTRACT: note_on channel=0 note=64 velocity=80 time=0.0010416666666666667
EXTRACT: note_on channel=1 note=62 velocity=33 time=0
EXTRACT: note_on channel=1 note=67 velocity=33 time=0
EXTRACT: note_on channel=1 note=71 velocity=33 time=0
EXTRACT: note_on channel=1 note=59 velocity=33 time=0
EXTRACT: note_on channel=0 note=64 velocity=0 time=0.24895833333333334
EXTRACT: note_on channel=0 note=67 velocity=80 time=0.0010416666666666667
EXTRACT: note_on channel=0 note=67 velocity=0 time=0.24895833333333334
EXTRACT: note_on channel=0 note=71 velocity=80 time=0.0010416666666666667
EXTRACT: note_on channel=0 note=71 velocity=0 time=0.24895833333333334
EXTRACT: note_on channel=0 note=69 velocity=80 time=0.0010416666666666667
EXTRACT: note_on channel=1 note=50 velocity=0 time=0.14895833333333333
EXTRACT: note_on channel=1 note=62 velocity=0 time=0.05
EXTRACT: note_on channel=1 note=67 velocity=0 time=0
EXTRACT: note_on channel=1 note=71 velocity=0 time=0
EXTRACT: note_on channel=1 note=59 velocity=0 time=0
EXTRACT: note_on channel=1 note=60 velocity=33 time=0.051041666666666666
EXTRACT: note_on channel=1 note=64 velocity=33 time=0
EXTRACT: note_on channel=1 note=67 velocity=33 time=0
EXTRACT: note_on channel=1 note=48 velocity=33 time=0
EXTRACT: note_on channel=1 note=55 velocity=33 time=0
EXTRACT: control_change channel=1 control=64 value=0 time=0.0010416666666666667
EXTRACT: control_change channel=1 control=64 value=127 time=0.0010416666666666667
EXTRACT: note_on channel=0 note=69 velocity=0 time=0.496875
EXTRACT: note_on channel=0 note=67 velocity=80 time=0.0010416666666666667
EXTRACT: note_on channel=1 note=60 velocity=0 time=0.44895833333333335
EXTRACT: note_on channel=1 note=64 velocity=0 time=0
EXTRACT: note_on channel=1 note=67 velocity=0 time=0
EXTRACT: note_on channel=1 note=55 velocity=0 time=0
EXTRACT: note_on channel=0 note=67 velocity=0 time=0.05
EXTRACT: note_on channel=0 note=62 velocity=80 time=0.0010416666666666667
EXTRACT: note_on channel=1 note=60 velocity=33 time=0
EXTRACT: note_on channel=1 note=64 velocity=33 time=0
EXTRACT: note_on channel=1 note=67 velocity=33 time=0
EXTRACT: note_on channel=1 note=55 velocity=33 time=0
EXTRACT: note_on channel=0 note=62 velocity=0 time=0.06354166666666666
EXTRACT: note_on channel=0 note=64 velocity=80 time=0.0010416666666666667
EXTRACT: note_on channel=0 note=64 velocity=0 time=0.43333333333333335
EXTRACT: note_on channel=0 note=62 velocity=80 time=0.0020833333333333333
EXTRACT: note_on channel=0 note=62 velocity=0 time=0.24895833333333334
EXTRACT: note_on channel=0 note=59 velocity=80 time=0.0010416666666666667
EXTRACT: note_on channel=1 note=48 velocity=0 time=0.14895833333333333
EXTRACT: note_on channel=1 note=60 velocity=0 time=0.05
EXTRACT: note_on channel=1 note=64 velocity=0 time=0
EXTRACT: note_on channel=1 note=67 velocity=0 time=0
EXTRACT: note_on channel=1 note=55 velocity=0 time=0
EXTRACT: note_on channel=1 note=55 velocity=33 time=0.051041666666666666
EXTRACT: note_on channel=1 note=59 velocity=33 time=0
EXTRACT: note_on channel=1 note=62 velocity=33 time=0
EXTRACT: note_on channel=1 note=43 velocity=33 time=0
EXTRACT: note_on channel=1 note=50 velocity=33 time=0
EXTRACT: control_change channel=1 control=64 value=0 time=0.0010416666666666667
EXTRACT: control_change channel=1 control=64 value=127 time=0.0010416666666666667
EXTRACT: note_on channel=0 note=59 velocity=0 time=0.24687499999999998
EXTRACT: note_on channel=0 note=57 velocity=80 time=0.0010416666666666667
EXTRACT: note_on channel=0 note=57 velocity=0 time=0.24895833333333334
EXTRACT: note_on channel=0 note=59 velocity=80 time=0.0010416666666666667
EXTRACT: note_on channel=1 note=55 velocity=0 time=0.44895833333333335
EXTRACT: note_on channel=1 note=59 velocity=0 time=0
EXTRACT: note_on channel=1 note=62 velocity=0 time=0
EXTRACT: note_on channel=1 note=43 velocity=0 time=0
EXTRACT: note_on channel=1 note=50 velocity=0 time=0
EXTRACT: note_on channel=0 note=59 velocity=0 time=0.05
EXTRACT: note_on channel=1 note=55 velocity=33 time=0.0010416666666666667
EXTRACT: note_on channel=1 note=59 velocity=33 time=0
EXTRACT: note_on channel=1 note=62 velocity=33 time=0
EXTRACT: note_on channel=1 note=43 velocity=33 time=0
EXTRACT: note_on channel=1 note=50 velocity=33 time=0
EXTRACT: note_on channel=0 note=55 velocity=80 time=0.75
EXTRACT: note_on channel=1 note=55 velocity=0 time=0.19895833333333332
EXTRACT: note_on channel=1 note=59 velocity=0 time=0
EXTRACT: note_on channel=1 note=62 velocity=0 time=0
EXTRACT: note_on channel=1 note=43 velocity=0 time=0
EXTRACT: note_on channel=1 note=50 velocity=0 time=0
EXTRACT: note_on channel=0 note=55 velocity=0 time=0.05
EXTRACT: note_on channel=0 note=67 velocity=80 time=0.0010416666666666667
EXTRACT: note_on channel=1 note=64 velocity=33 time=0
EXTRACT: note_on channel=1 note=67 velocity=33 time=0
EXTRACT: note_on channel=1 note=71 velocity=33 time=0
EXTRACT: note_on channel=1 note=52 velocity=33 time=0
EXTRACT: note_on channel=1 note=59 velocity=33 time=0
EXTRACT: control_change channel=1 control=64 value=0 time=0.0010416666666666667
EXTRACT: control_change channel=1 control=64 value=127 time=0.0010416666666666667
EXTRACT: note_on channel=1 note=64 velocity=0 time=0.946875
EXTRACT: note_on channel=1 note=67 velocity=0 time=0
EXTRACT: note_on channel=1 note=71 velocity=0 time=0
EXTRACT: note_on channel=0 note=67 velocity=0 time=0.05
EXTRACT: note_on channel=0 note=66 velocity=80 time=0.0010416666666666667
EXTRACT: note_on channel=1 note=64 velocity=33 time=0
EXTRACT: note_on channel=1 note=67 velocity=33 time=0
EXTRACT: note_on channel=1 note=71 velocity=33 time=0
EXTRACT: note_on channel=1 note=64 velocity=0 time=0.9489583333333333
EXTRACT: note_on channel=1 note=67 velocity=0 time=0
EXTRACT: note_on channel=1 note=71 velocity=0 time=0
EXTRACT: note_on channel=0 note=66 velocity=0 time=0.05
EXTRACT: note_on channel=0 note=64 velocity=80 time=0.0010416666666666667
EXTRACT: note_on channel=1 note=64 velocity=33 time=0
EXTRACT: note_on channel=1 note=67 velocity=33 time=0
EXTRACT: note_on channel=1 note=71 velocity=33 time=0
EXTRACT: note_on channel=1 note=64 velocity=0 time=0.9489583333333333
EXTRACT: note_on channel=1 note=67 velocity=0 time=0
EXTRACT: note_on channel=1 note=71 velocity=0 time=0
EXTRACT: note_on channel=0 note=64 velocity=0 time=0.05
EXTRACT: note_on channel=0 note=62 velocity=80 time=0.0010416666666666667
EXTRACT: note_on channel=1 note=64 velocity=33 time=0
EXTRACT: note_on channel=1 note=67 velocity=33 time=0
EXTRACT: note_on channel=1 note=71 velocity=33 time=0
EXTRACT: note_on channel=1 note=52 velocity=0 time=0.7989583333333333
EXTRACT: note_on channel=1 note=59 velocity=0 time=0
EXTRACT: note_on channel=1 note=64 velocity=0 time=0.15
EXTRACT: note_on channel=1 note=67 velocity=0 time=0
EXTRACT: note_on channel=1 note=71 velocity=0 time=0
EXTRACT: note_on channel=0 note=62 velocity=0 time=0.05
EXTRACT: note_on channel=1 note=60 velocity=33 time=0.0010416666666666667
EXTRACT: note_on channel=1 note=64 velocity=33 time=0
EXTRACT: note_on channel=1 note=67 velocity=33 time=0
EXTRACT: note_on channel=1 note=48 velocity=33 time=0
EXTRACT: note_on channel=1 note=55 velocity=33 time=0
EXTRACT: control_change channel=1 control=64 value=0 time=0.0010416666666666667
EXTRACT: control_change channel=1 control=64 value=127 time=0.0010416666666666667
EXTRACT: note_on channel=0 note=62 velocity=80 time=0.4979166666666667
EXTRACT: note_on channel=0 note=62 velocity=0 time=0.24895833333333334
EXTRACT: note_on channel=0 note=59 velocity=80 time=0.0010416666666666667
EXTRACT: note_on channel=1 note=60 velocity=0 time=0.19895833333333332
EXTRACT: note_on channel=1 note=64 velocity=0 time=0
EXTRACT: note_on channel=1 note=67 velocity=0 time=0
EXTRACT: note_on channel=1 note=55 velocity=0 time=0
EXTRACT: note_on channel=0 note=59 velocity=0 time=0.05
EXTRACT: note_on channel=0 note=62 velocity=80 time=0.0010416666666666667
EXTRACT: note_on channel=1 note=60 velocity=33 time=0
EXTRACT: note_on channel=1 note=64 velocity=33 time=0
EXTRACT: note_on channel=1 note=67 velocity=33 time=0
EXTRACT: note_on channel=1 note=55 velocity=33 time=0
EXTRACT: note_on channel=0 note=62 velocity=0 time=0.49895833333333334
EXTRACT: note_on channel=0 note=64 velocity=80 time=0.0010416666666666667
EXTRACT: note_on channel=0 note=64 velocity=0 time=0.24895833333333334
EXTRACT: note_on channel=0 note=59 velocity=80 time=0.0010416666666666667
EXTRACT: note_on channel=1 note=48 velocity=0 time=0.14895833333333333
EXTRACT: note_on channel=1 note=60 velocity=0 time=0.05
EXTRACT: note_on channel=1 note=64 velocity=0 time=0
EXTRACT: note_on channel=1 note=67 velocity=0 time=0
EXTRACT: note_on channel=1 note=55 velocity=0 time=0
EXTRACT: note_on channel=1 note=55 velocity=33 time=0.051041666666666666
EXTRACT: note_on channel=1 note=59 velocity=33 time=0
EXTRACT: note_on channel=1 note=62 velocity=33 time=0
EXTRACT: note_on channel=1 note=43 velocity=33 time=0
EXTRACT: note_on channel=1 note=50 velocity=33 time=0
EXTRACT: control_change channel=1 control=64 value=0 time=0.0010416666666666667
EXTRACT: control_change channel=1 control=64 value=127 time=0.0010416666666666667
EXTRACT: note_on channel=0 note=59 velocity=0 time=0.24687499999999998
EXTRACT: note_on channel=0 note=57 velocity=80 time=0.0010416666666666667
EXTRACT: note_on channel=0 note=57 velocity=0 time=0.24895833333333334
EXTRACT: note_on channel=0 note=59 velocity=80 time=0.0010416666666666667
EXTRACT: note_on channel=0 note=59 velocity=0 time=0.24895833333333334
EXTRACT: note_on channel=0 note=57 velocity=80 time=0.0010416666666666667
EXTRACT: note_on channel=1 note=55 velocity=0 time=0.19895833333333332
EXTRACT: note_on channel=1 note=59 velocity=0 time=0
EXTRACT: note_on channel=1 note=62 velocity=0 time=0
EXTRACT: note_on channel=1 note=43 velocity=0 time=0
EXTRACT: note_on channel=1 note=50 velocity=0 time=0
EXTRACT: note_on channel=0 note=57 velocity=0 time=0.05
EXTRACT: note_on channel=0 note=55 velocity=80 time=0.0010416666666666667
EXTRACT: note_on channel=1 note=55 velocity=33 time=0
EXTRACT: note_on channel=1 note=59 velocity=33 time=0
EXTRACT: note_on channel=1 note=62 velocity=33 time=0
EXTRACT: note_on channel=1 note=43 velocity=33 time=0
EXTRACT: note_on channel=1 note=50 velocity=33 time=0
EXTRACT: note_on channel=0 note=55 velocity=0 time=0.49895833333333334
EXTRACT: note_on channel=1 note=55 velocity=0 time=0.45
EXTRACT: note_on channel=1 note=59 velocity=0 time=0
EXTRACT: note_on channel=1 note=62 velocity=0 time=0
EXTRACT: note_on channel=1 note=43 velocity=0 time=0
EXTRACT: note_on channel=1 note=50 velocity=0 time=0
EXTRACT: note_on channel=0 note=59 velocity=80 time=0.051041666666666666
EXTRACT: note_on channel=1 note=64 velocity=33 time=0
EXTRACT: note_on channel=1 note=67 velocity=33 time=0
EXTRACT: note_on channel=1 note=71 velocity=33 time=0
EXTRACT: note_on channel=1 note=52 velocity=33 time=0
EXTRACT: note_on channel=1 note=59 velocity=33 time=0
EXTRACT: control_change channel=1 control=64 value=0 time=0.0010416666666666667
EXTRACT: control_change channel=1 control=64 value=127 time=0.0010416666666666667
EXTRACT: note_on channel=0 note=59 velocity=0 time=0.24687499999999998
EXTRACT: note_on channel=0 note=62 velocity=80 time=0.0010416666666666667
EXTRACT: note_on channel=0 note=62 velocity=0 time=0.24895833333333334
EXTRACT: note_on channel=0 note=62 velocity=80 time=0.0010416666666666667
EXTRACT: note_on channel=0 note=62 velocity=0 time=0.24895833333333334
EXTRACT: note_on channel=0 note=59 velocity=80 time=0.0010416666666666667
EXTRACT: note_on channel=0 note=59 velocity=0 time=0.24895833333333334
EXTRACT: note_on channel=0 note=62 velocity=80 time=0.0010416666666666667
EXTRACT: note_on channel=0 note=62 velocity=0 time=0.7489583333333333
EXTRACT: note_on channel=0 note=55 velocity=80 time=0.0010416666666666667
EXTRACT: note_on channel=1 note=64 velocity=0 time=0.14895833333333333
EXTRACT: note_on channel=1 note=67 velocity=0 time=0
EXTRACT: note_on channel=1 note=71 velocity=0 time=0
EXTRACT: note_on channel=1 note=52 velocity=0 time=0
EXTRACT: note_on channel=1 note=59 velocity=0 time=0
EXTRACT: note_on channel=0 note=55 velocity=0 time=0.1
EXTRACT: note_on channel=0 note=59 velocity=80 time=0.0010416666666666667
EXTRACT: note_on channel=1 note=62 velocity=33 time=0
EXTRACT: note_on channel=1 note=67 velocity=33 time=0
EXTRACT: note_on channel=1 note=71 velocity=33 time=0
EXTRACT: note_on channel=1 note=50 velocity=33 time=0
EXTRACT: note_on channel=1 note=59 velocity=33 time=0
EXTRACT: control_change channel=1 control=64 value=0 time=0.0010416666666666667
EXTRACT: control_change channel=1 control=64 value=127 time=0.0010416666666666667
EXTRACT: note_on channel=0 note=59 velocity=0 time=0.3302083333333333
EXTRACT: note_on channel=0 note=62 velocity=80 time=0.0010416666666666667
EXTRACT: note_on channel=0 note=62 velocity=0 time=0.33229166666666665
EXTRACT: note_on channel=0 note=62 velocity=80 time=0.0010416666666666667
EXTRACT: note_on channel=0 note=62 velocity=0 time=0.33229166666666665
EXTRACT: note_on channel=0 note=62 velocity=80 time=0.0010416666666666667
EXTRACT: note_on channel=0 note=62 velocity=0 time=0.49895833333333334
EXTRACT: note_on channel=0 note=55 velocity=80 time=0.25104166666666666
EXTRACT: note_on channel=1 note=62 velocity=0 time=0.14895833333333333
EXTRACT: note_on channel=1 note=67 velocity=0 time=0
EXTRACT: note_on channel=1 note=71 velocity=0 time=0
EXTRACT: note_on channel=1 note=50 velocity=0 time=0
EXTRACT: note_on channel=1 note=59 velocity=0 time=0
EXTRACT: note_on channel=0 note=55 velocity=0 time=0.1
EXTRACT: note_on channel=0 note=59 velocity=80 time=0.0010416666666666667
EXTRACT: note_on channel=1 note=60 velocity=33 time=0
EXTRACT: note_on channel=1 note=64 velocity=33 time=0
EXTRACT: note_on channel=1 note=67 velocity=33 time=0
EXTRACT: note_on channel=1 note=48 velocity=33 time=0
EXTRACT: note_on channel=1 note=55 velocity=33 time=0
EXTRACT: control_change channel=1 control=64 value=0 time=0.0010416666666666667
EXTRACT: control_change channel=1 control=64 value=127 time=0.0010416666666666667
EXTRACT: note_on channel=0 note=59 velocity=0 time=0.3302083333333333
EXTRACT: note_on channel=0 note=62 velocity=80 time=0.0010416666666666667
EXTRACT: note_on channel=0 note=62 velocity=0 time=0.33229166666666665
EXTRACT: note_on channel=0 note=64 velocity=80 time=0.0010416666666666667
EXTRACT: note_on channel=0 note=64 velocity=0 time=0.33229166666666665
EXTRACT: note_on channel=0 note=59 velocity=80 time=0.0010416666666666667
EXTRACT: note_on channel=0 note=59 velocity=0 time=0.49895833333333334
EXTRACT: note_on channel=0 note=57 velocity=80 time=0.0010416666666666667
EXTRACT: note_on channel=0 note=57 velocity=0 time=0.24895833333333334
EXTRACT: note_on channel=0 note=55 velocity=80 time=0.0010416666666666667
EXTRACT: note_on channel=1 note=60 velocity=0 time=0.14895833333333333
EXTRACT: note_on channel=1 note=64 velocity=0 time=0
EXTRACT: note_on channel=1 note=67 velocity=0 time=0
EXTRACT: note_on channel=1 note=48 velocity=0 time=0
EXTRACT: note_on channel=1 note=55 velocity=0 time=0
EXTRACT: note_on channel=0 note=55 velocity=0 time=0.1
EXTRACT: note_on channel=0 note=55 velocity=80 time=0.0010416666666666667
EXTRACT: note_on channel=1 note=55 velocity=33 time=0
EXTRACT: note_on channel=1 note=59 velocity=33 time=0
EXTRACT: note_on channel=1 note=62 velocity=33 time=0
EXTRACT: note_on channel=1 note=43 velocity=33 time=0
EXTRACT: note_on channel=1 note=50 velocity=33 time=0
EXTRACT: control_change channel=1 control=64 value=0 time=0.0010416666666666667
EXTRACT: control_change channel=1 control=64 value=127 time=0.0010416666666666667
EXTRACT: note_on channel=1 note=50 velocity=0 time=0.946875
EXTRACT: note_on channel=0 note=55 velocity=0 time=0.05
EXTRACT: note_on channel=1 note=50 velocity=33 time=0.0010416666666666667
EXTRACT: note_on channel=1 note=55 velocity=0 time=0.8989583333333333
EXTRACT: note_on channel=1 note=59 velocity=0 time=0
EXTRACT: note_on channel=1 note=62 velocity=0 time=0
EXTRACT: note_on channel=1 note=43 velocity=0 time=0
EXTRACT: note_on channel=1 note=50 velocity=0 time=0.05
EXTRACT: note_on channel=0 note=59 velocity=80 time=0.051041666666666666
EXTRACT: note_on channel=1 note=64 velocity=33 time=0
EXTRACT: note_on channel=1 note=67 velocity=33 time=0
EXTRACT: note_on channel=1 note=71 velocity=33 time=0
EXTRACT: note_on channel=1 note=52 velocity=33 time=0
EXTRACT: note_on channel=1 note=59 velocity=33 time=0
EXTRACT: control_change channel=1 control=64 value=0 time=0.0010416666666666667
EXTRACT: control_change channel=1 control=64 value=127 time=0.0010416666666666667
EXTRACT: note_on channel=0 note=59 velocity=0 time=0.24687499999999998
EXTRACT: note_on channel=0 note=62 velocity=80 time=0.0010416666666666667
EXTRACT: note_on channel=0 note=62 velocity=0 time=0.24895833333333334
EXTRACT: note_on channel=0 note=62 velocity=80 time=0.0010416666666666667
EXTRACT: note_on channel=0 note=62 velocity=0 time=0.24895833333333334
EXTRACT: note_on channel=0 note=59 velocity=80 time=0.0010416666666666667
EXTRACT: note_on channel=0 note=59 velocity=0 time=0.24895833333333334
EXTRACT: note_on channel=0 note=62 velocity=80 time=0.0010416666666666667
EXTRACT: note_on channel=0 note=62 velocity=0 time=0.7489583333333333
EXTRACT: note_on channel=0 note=55 velocity=80 time=0.0010416666666666667
EXTRACT: note_on channel=1 note=64 velocity=0 time=0.14895833333333333
EXTRACT: note_on channel=1 note=67 velocity=0 time=0
EXTRACT: note_on channel=1 note=71 velocity=0 time=0
EXTRACT: note_on channel=1 note=52 velocity=0 time=0
EXTRACT: note_on channel=1 note=59 velocity=0 time=0
EXTRACT: note_on channel=0 note=55 velocity=0 time=0.1
EXTRACT: note_on channel=0 note=59 velocity=80 time=0.0010416666666666667
EXTRACT: note_on channel=1 note=62 velocity=33 time=0
EXTRACT: note_on channel=1 note=67 velocity=33 time=0
EXTRACT: note_on channel=1 note=71 velocity=33 time=0
EXTRACT: note_on channel=1 note=50 velocity=33 time=0
EXTRACT: note_on channel=1 note=59 velocity=33 time=0
EXTRACT: control_change channel=1 control=64 value=0 time=0.0010416666666666667
EXTRACT: control_change channel=1 control=64 value=127 time=0.0010416666666666667
EXTRACT: note_on channel=0 note=59 velocity=0 time=0.3302083333333333
EXTRACT: note_on channel=0 note=62 velocity=80 time=0.0010416666666666667
EXTRACT: note_on channel=0 note=62 velocity=0 time=0.33229166666666665
EXTRACT: note_on channel=0 note=62 velocity=80 time=0.0010416666666666667
EXTRACT: note_on channel=0 note=62 velocity=0 time=0.33229166666666665
EXTRACT: note_on channel=0 note=62 velocity=80 time=0.0010416666666666667
EXTRACT: note_on channel=0 note=62 velocity=0 time=0.49895833333333334
EXTRACT: note_on channel=0 note=55 velocity=80 time=0.25104166666666666
EXTRACT: note_on channel=1 note=62 velocity=0 time=0.14895833333333333
EXTRACT: note_on channel=1 note=67 velocity=0 time=0
EXTRACT: note_on channel=1 note=71 velocity=0 time=0
EXTRACT: note_on channel=1 note=50 velocity=0 time=0
EXTRACT: note_on channel=1 note=59 velocity=0 time=0
EXTRACT: note_on channel=0 note=55 velocity=0 time=0.1
EXTRACT: note_on channel=0 note=59 velocity=80 time=0.0010416666666666667
EXTRACT: note_on channel=1 note=60 velocity=33 time=0
EXTRACT: note_on channel=1 note=64 velocity=33 time=0
EXTRACT: note_on channel=1 note=67 velocity=33 time=0
EXTRACT: note_on channel=1 note=48 velocity=33 time=0
EXTRACT: note_on channel=1 note=55 velocity=33 time=0
EXTRACT: control_change channel=1 control=64 value=0 time=0.0010416666666666667
EXTRACT: control_change channel=1 control=64 value=127 time=0.0010416666666666667
EXTRACT: note_on channel=0 note=59 velocity=0 time=0.3302083333333333
EXTRACT: note_on channel=0 note=62 velocity=80 time=0.0010416666666666667
EXTRACT: note_on channel=0 note=62 velocity=0 time=0.33229166666666665
EXTRACT: note_on channel=0 note=64 velocity=80 time=0.0010416666666666667
EXTRACT: note_on channel=0 note=64 velocity=0 time=0.33229166666666665
EXTRACT: note_on channel=0 note=59 velocity=80 time=0.0010416666666666667
EXTRACT: note_on channel=0 note=59 velocity=0 time=0.49895833333333334
EXTRACT: note_on channel=0 note=57 velocity=80 time=0.0010416666666666667
EXTRACT: note_on channel=0 note=57 velocity=0 time=0.24895833333333334
EXTRACT: note_on channel=0 note=55 velocity=80 time=0.0010416666666666667
EXTRACT: note_on channel=1 note=60 velocity=0 time=0.14895833333333333
EXTRACT: note_on channel=1 note=64 velocity=0 time=0
EXTRACT: note_on channel=1 note=67 velocity=0 time=0
EXTRACT: note_on channel=1 note=48 velocity=0 time=0
EXTRACT: note_on channel=1 note=55 velocity=0 time=0
EXTRACT: note_on channel=0 note=55 velocity=0 time=0.1
EXTRACT: note_on channel=0 note=55 velocity=80 time=0.0010416666666666667
EXTRACT: note_on channel=1 note=55 velocity=33 time=0
EXTRACT: note_on channel=1 note=59 velocity=33 time=0
EXTRACT: note_on channel=1 note=62 velocity=33 time=0
EXTRACT: note_on channel=1 note=43 velocity=33 time=0
EXTRACT: note_on channel=1 note=50 velocity=33 time=0
EXTRACT: control_change channel=1 control=64 value=0 time=0.0010416666666666667
EXTRACT: control_change channel=1 control=64 value=127 time=0.0010416666666666667
EXTRACT: note_on channel=0 note=55 velocity=0 time=0.996875
EXTRACT: note_on channel=1 note=55 velocity=0 time=0.9
EXTRACT: note_on channel=1 note=59 velocity=0 time=0
EXTRACT: note_on channel=1 note=62 velocity=0 time=0
EXTRACT: note_on channel=1 note=43 velocity=0 time=0
EXTRACT: note_on channel=1 note=50 velocity=0 time=0
EXTRACT: control_change channel=1 control=64 value=0 time=0.10104166666666667
