EXTRACT: program_change channel=2 program=1 time=0
EXTRACT: control_change channel=2 control=7 value=127 time=0
EXTRACT: control_change channel=2 control=10 value=64 time=0
EXTRACT: program_change channel=1 program=33 time=0
EXTRACT: control_change channel=1 control=7 value=127 time=0
EXTRACT: control_change channel=1 control=10 value=64 time=0
EXTRACT: program_change channel=4 program=40 time=0
EXTRACT: control_change channel=4 control=7 value=127 time=0
EXTRACT: control_change channel=4 control=10 value=64 time=0
EXTRACT: program_change channel=8 program=81 time=0
EXTRACT: control_change channel=8 control=7 value=127 time=0
EXTRACT: control_change channel=8 control=10 value=64 time=0
EXTRACT: program_change channel=9 program=25 time=0
EXTRACT: control_change channel=9 control=7 value=127 time=0
EXTRACT: control_change channel=9 control=10 value=64 time=0
EXTRACT: program_change channel=9 program=25 time=0
EXTRACT: control_change channel=9 control=7 value=127 time=0
EXTRACT: control_change channel=9 control=10 value=64 time=0
EXTRACT: program_change channel=5 program=44 time=0
EXTRACT: control_change channel=5 control=7 value=127 time=0
EXTRACT: control_change channel=5 control=10 value=64 time=0
EXTRACT: program_change channel=6 program=1 time=0
EXTRACT: control_change channel=6 control=7 value=127 time=0
EXTRACT: control_change channel=6 control=10 value=64 time=0
EXTRACT: program_change channel=3 program=75 time=0
EXTRACT: control_change channel=3 control=7 value=127 time=0
EXTRACT: control_change channel=3 control=10 value=64 time=0
EXTRACT: control_change channel=2 control=93 value=127 time=0
EXTRACT: note_on channel=2 note=65 velocity=110 time=0
EXTRACT: note_on channel=2 note=69 velocity=110 time=0
EXTRACT: note_on channel=2 note=74 velocity=110 time=0
EXTRACT: note_on channel=1 note=50 velocity=110 time=0
EXTRACT: note_on channel=4 note=65 velocity=110 time=0
EXTRACT: note_on channel=2 note=65 velocity=0 time=0.722891
EXTRACT: note_on channel=2 note=69 velocity=0 time=0
EXTRACT: note_on channel=2 note=74 velocity=0 time=0
EXTRACT: note_on channel=2 note=65 velocity=110 time=0
EXTRACT: note_on channel=2 note=69 velocity=110 time=0
EXTRACT: note_on channel=2 note=74 velocity=110 time=0
EXTRACT: note_on channel=2 note=65 velocity=0 time=0.722891
EXTRACT: note_on channel=2 note=69 velocity=0 time=0
EXTRACT: note_on channel=2 note=74 velocity=0 time=0
EXTRACT: note_on channel=2 note=65 velocity=110 time=0
EXTRACT: note_on channel=2 note=69 velocity=110 time=0
EXTRACT: note_on channel=2 note=74 velocity=110 time=0
EXTRACT: note_on channel=1 note=50 velocity=0 time=0.54216825
EXTRACT: control_change channel=1 control=64 value=127 time=0
EXTRACT: note_on channel=1 note=62 velocity=75 time=0
EXTRACT: note_on channel=4 note=65 velocity=0 time=0.18072275
EXTRACT: note_on channel=2 note=65 velocity=0 time=0
EXTRACT: note_on channel=2 note=69 velocity=0 time=0
EXTRACT: note_on channel=2 note=74 velocity=0 time=0
EXTRACT: note_on channel=1 note=62 velocity=0 time=0
EXTRACT: control_change channel=2 control=64 value=127 time=0
EXTRACT: note_on channel=2 note=77 velocity=127 time=0
EXTRACT: note_on channel=4 note=64 velocity=110 time=0
EXTRACT: note_on channel=2 note=77 velocity=0 time=0.18072275
EXTRACT: note_on channel=2 note=76 velocity=110 time=0
EXTRACT: note_on channel=2 note=76 velocity=0 time=0.18072275
EXTRACT: note_on channel=2 note=74 velocity=110 time=0
EXTRACT: note_on channel=1 note=58 velocity=75 time=0.18072275
EXTRACT: note_on channel=2 note=74 velocity=0 time=0.18072275
EXTRACT: note_on channel=1 note=58 velocity=0 time=0
EXTRACT: note_on channel=4 note=64 velocity=0 time=0
EXTRACT: control_change channel=2 control=64 value=0 time=0
EXTRACT: note_on channel=2 note=65 velocity=110 time=0
EXTRACT: note_on channel=2 note=70 velocity=110 time=0
EXTRACT: note_on channel=2 note=74 velocity=110 time=0
EXTRACT: note_on channel=1 note=46 velocity=127 time=0
EXTRACT: note_on channel=4 note=62 velocity=110 time=0
EXTRACT: note_on channel=2 note=65 velocity=0 time=0.722891
EXTRACT: note_on channel=2 note=70 velocity=0 time=0
EXTRACT: note_on channel=2 note=74 velocity=0 time=0
EXTRACT: note_on channel=2 note=65 velocity=110 time=0
EXTRACT: note_on channel=2 note=70 velocity=110 time=0
EXTRACT: note_on channel=2 note=74 velocity=110 time=0
EXTRACT: note_on channel=2 note=65 velocity=0 time=0.722891
EXTRACT: note_on channel=2 note=70 velocity=0 time=0
EXTRACT: note_on channel=2 note=74 velocity=0 time=0
EXTRACT: note_on channel=2 note=65 velocity=110 time=0
EXTRACT: note_on channel=2 note=70 velocity=110 time=0
EXTRACT: note_on channel=2 note=74 velocity=110 time=0
EXTRACT: note_on channel=1 note=46 velocity=0 time=0.54216825
EXTRACT: note_on channel=1 note=58 velocity=75 time=0
EXTRACT: note_on channel=2 note=65 velocity=0 time=0.18072275
EXTRACT: note_on channel=2 note=70 velocity=0 time=0
EXTRACT: note_on channel=2 note=74 velocity=0 time=0
EXTRACT: note_on channel=1 note=58 velocity=0 time=0
EXTRACT: control_change channel=2 control=64 value=127 time=0
EXTRACT: note_on channel=2 note=74 velocity=110 time=0
EXTRACT: note_on channel=2 note=74 velocity=0 time=0.18072275
EXTRACT: note_on channel=2 note=72 velocity=110 time=0
EXTRACT: note_on channel=2 note=72 velocity=0 time=0.18072275
EXTRACT: note_on channel=2 note=70 velocity=110 time=0
EXTRACT: note_on channel=1 note=65 velocity=75 time=0.18072275
EXTRACT: note_on channel=4 note=62 velocity=0 time=0.18072275
EXTRACT: note_on channel=2 note=70 velocity=0 time=0
EXTRACT: note_on channel=1 note=65 velocity=0 time=0
EXTRACT: control_change channel=2 control=64 value=0 time=0
EXTRACT: control_change channel=1 control=64 value=0 time=0
EXTRACT: note_on channel=2 note=65 velocity=110 time=0
EXTRACT: note_on channel=2 note=69 velocity=110 time=0
EXTRACT: note_on channel=2 note=72 velocity=110 time=0
EXTRACT: note_on channel=1 note=41 velocity=75 time=0
EXTRACT: note_on channel=4 note=60 velocity=110 time=0
EXTRACT: note_on channel=2 note=65 velocity=0 time=0.722891
EXTRACT: note_on channel=2 note=69 velocity=0 time=0
EXTRACT: note_on channel=2 note=72 velocity=0 time=0
EXTRACT: note_on channel=2 note=65 velocity=110 time=0
EXTRACT: note_on channel=2 note=69 velocity=110 time=0
EXTRACT: note_on channel=2 note=72 velocity=110 time=0
EXTRACT: note_on channel=2 note=65 velocity=0 time=0.722891
EXTRACT: note_on channel=2 note=69 velocity=0 time=0
EXTRACT: note_on channel=2 note=72 velocity=0 time=0
EXTRACT: note_on channel=2 note=65 velocity=110 time=0
EXTRACT: note_on channel=2 note=69 velocity=110 time=0
EXTRACT: note_on channel=2 note=72 velocity=110 time=0
EXTRACT: note_on channel=1 note=41 velocity=0 time=0.722891
EXTRACT: note_on channel=4 note=60 velocity=0 time=0
EXTRACT: note_on channel=2 note=65 velocity=0 time=0
EXTRACT: note_on channel=2 note=69 velocity=0 time=0
EXTRACT: note_on channel=2 note=72 velocity=0 time=0
EXTRACT: note_on channel=2 note=65 velocity=110 time=0
EXTRACT: note_on channel=2 note=69 velocity=110 time=0
EXTRACT: note_on channel=2 note=72 velocity=110 time=0
EXTRACT: note_on channel=1 note=41 velocity=75 time=0
EXTRACT: note_on channel=4 note=53 velocity=110 time=0
EXTRACT: note_on channel=2 note=65 velocity=0 time=0.3614455
EXTRACT: note_on channel=2 note=69 velocity=0 time=0
EXTRACT: note_on channel=2 note=72 velocity=0 time=0
EXTRACT: note_on channel=2 note=67 velocity=110 time=0
EXTRACT: note_on channel=2 note=67 velocity=0 time=0.3614455
EXTRACT: note_on channel=1 note=41 velocity=0 time=0
EXTRACT: note_on channel=4 note=53 velocity=0 time=0
EXTRACT: note_on channel=2 note=64 velocity=110 time=0
EXTRACT: note_on channel=2 note=67 velocity=110 time=0
EXTRACT: note_on channel=2 note=72 velocity=110 time=0
EXTRACT: note_on channel=1 note=40 velocity=75 time=0
EXTRACT: note_on channel=4 note=55 velocity=110 time=0
EXTRACT: note_on channel=2 note=64 velocity=0 time=0.722891
EXTRACT: note_on channel=2 note=67 velocity=0 time=0
EXTRACT: note_on channel=2 note=72 velocity=0 time=0
EXTRACT: note_on channel=2 note=64 velocity=110 time=0
EXTRACT: note_on channel=2 note=67 velocity=110 time=0
EXTRACT: note_on channel=2 note=72 velocity=110 time=0
EXTRACT: note_on channel=2 note=64 velocity=0 time=0.722891
EXTRACT: note_on channel=2 note=67 velocity=0 time=0
EXTRACT: note_on channel=2 note=72 velocity=0 time=0
EXTRACT: note_on channel=2 note=64 velocity=110 time=0
EXTRACT: note_on channel=2 note=67 velocity=110 time=0
EXTRACT: note_on channel=2 note=72 velocity=110 time=0
EXTRACT: note_on channel=2 note=64 velocity=0 time=0.722891
EXTRACT: note_on channel=2 note=67 velocity=0 time=0
EXTRACT: note_on channel=2 note=72 velocity=0 time=0
EXTRACT: note_on channel=2 note=64 velocity=110 time=0
EXTRACT: note_on channel=2 note=67 velocity=110 time=0
EXTRACT: note_on channel=2 note=72 velocity=110 time=0
EXTRACT: note_on channel=1 note=40 velocity=0 time=0.722891
EXTRACT: note_on channel=4 note=55 velocity=0 time=0
EXTRACT: note_on channel=2 note=64 velocity=0 time=0
EXTRACT: note_on channel=2 note=67 velocity=0 time=0
EXTRACT: note_on channel=2 note=72 velocity=0 time=0
EXTRACT: note_on channel=2 note=65 velocity=110 time=0
EXTRACT: note_on channel=2 note=69 velocity=110 time=0
EXTRACT: note_on channel=2 note=74 velocity=110 time=0
EXTRACT: note_on channel=1 note=50 velocity=127 time=0
EXTRACT: note_on channel=3 note=57 velocity=110 time=0.5294115
EXTRACT: note_on channel=2 note=65 velocity=0 time=0.1764705
EXTRACT: note_on channel=2 note=69 velocity=0 time=0
EXTRACT: note_on channel=2 note=74 velocity=0 time=0
EXTRACT: note_on channel=3 note=57 velocity=0 time=0
EXTRACT: note_on channel=2 note=65 velocity=110 time=0
EXTRACT: note_on channel=2 note=69 velocity=110 time=0
EXTRACT: note_on channel=2 note=74 velocity=110 time=0
EXTRACT: note_on channel=3 note=65 velocity=110 time=0
EXTRACT: note_on channel=3 note=65 velocity=0 time=0.1764705
EXTRACT: note_on channel=3 note=65 velocity=110 time=0
EXTRACT: note_on channel=3 note=65 velocity=0 time=0.1764705
EXTRACT: note_on channel=3 note=65 velocity=110 time=0
EXTRACT: note_on channel=3 note=65 velocity=0 time=0.1764705
EXTRACT: note_on channel=3 note=65 velocity=110 time=0
EXTRACT: note_on channel=2 note=65 velocity=0 time=0.1764705
EXTRACT: note_on channel=2 note=69 velocity=0 time=0
EXTRACT: note_on channel=2 note=74 velocity=0 time=0
EXTRACT: note_on channel=3 note=65 velocity=0 time=0
EXTRACT: note_on channel=2 note=65 velocity=110 time=0
EXTRACT: note_on channel=2 note=69 velocity=110 time=0
EXTRACT: note_on channel=2 note=74 velocity=110 time=0
EXTRACT: note_on channel=3 note=65 velocity=110 time=0
EXTRACT: note_on channel=3 note=65 velocity=0 time=0.352941
EXTRACT: note_on channel=3 note=64 velocity=110 time=0
EXTRACT: note_on channel=1 note=50 velocity=0 time=0.1764705
EXTRACT: note_on channel=3 note=64 velocity=0 time=0
EXTRACT: control_change channel=1 control=64 value=127 time=0
EXTRACT: note_on channel=1 note=62 velocity=75 time=0
EXTRACT: note_on channel=3 note=64 velocity=110 time=0
EXTRACT: note_on channel=2 note=65 velocity=0 time=0.1764705
EXTRACT: note_on channel=2 note=69 velocity=0 time=0
EXTRACT: note_on channel=2 note=74 velocity=0 time=0
EXTRACT: note_on channel=1 note=62 velocity=0 time=0
EXTRACT: control_change channel=2 control=64 value=127 time=0
EXTRACT: note_on channel=2 note=77 velocity=110 time=0
EXTRACT: note_on channel=2 note=77 velocity=0 time=0.1764705
EXTRACT: note_on channel=3 note=64 velocity=0 time=0
EXTRACT: note_on channel=2 note=76 velocity=110 time=0
EXTRACT: note_on channel=3 note=62 velocity=110 time=0
EXTRACT: note_on channel=2 note=76 velocity=0 time=0.1764705
EXTRACT: note_on channel=3 note=62 velocity=0 time=0
EXTRACT: note_on channel=2 note=74 velocity=110 time=0
EXTRACT: note_on channel=3 note=65 velocity=110 time=0
EXTRACT: note_on channel=1 note=58 velocity=75 time=0.1764705
EXTRACT: note_on channel=2 note=74 velocity=0 time=0.1764705
EXTRACT: note_on channel=1 note=58 velocity=0 time=0
EXTRACT: note_on channel=3 note=65 velocity=0 time=0
EXTRACT: control_change channel=2 control=64 value=0 time=0
EXTRACT: note_on channel=2 note=65 velocity=110 time=0
EXTRACT: note_on channel=2 note=70 velocity=110 time=0
EXTRACT: note_on channel=2 note=74 velocity=110 time=0
EXTRACT: note_on channel=1 note=46 velocity=127 time=0
EXTRACT: note_on channel=3 note=57 velocity=110 time=0.5294115
EXTRACT: note_on channel=2 note=65 velocity=0 time=0.1764705
EXTRACT: note_on channel=2 note=70 velocity=0 time=0
EXTRACT: note_on channel=2 note=74 velocity=0 time=0
EXTRACT: note_on channel=3 note=57 velocity=0 time=0
EXTRACT: note_on channel=2 note=65 velocity=110 time=0
EXTRACT: note_on channel=2 note=70 velocity=110 time=0
EXTRACT: note_on channel=2 note=74 velocity=110 time=0
EXTRACT: note_on channel=3 note=65 velocity=110 time=0
EXTRACT: note_on channel=3 note=65 velocity=0 time=0.1764705
EXTRACT: note_on channel=3 note=65 velocity=110 time=0
EXTRACT: note_on channel=3 note=65 velocity=0 time=0.1764705
EXTRACT: note_on channel=3 note=65 velocity=110 time=0
EXTRACT: note_on channel=3 note=65 velocity=0 time=0.1764705
EXTRACT: note_on channel=3 note=65 velocity=110 time=0
EXTRACT: note_on channel=2 note=65 velocity=0 time=0.1764705
EXTRACT: note_on channel=2 note=70 velocity=0 time=0
EXTRACT: note_on channel=2 note=74 velocity=0 time=0
EXTRACT: note_on channel=3 note=65 velocity=0 time=0
EXTRACT: note_on channel=2 note=65 velocity=110 time=0
EXTRACT: note_on channel=2 note=70 velocity=110 time=0
EXTRACT: note_on channel=2 note=74 velocity=110 time=0
EXTRACT: note_on channel=3 note=65 velocity=110 time=0
EXTRACT: note_on channel=3 note=65 velocity=0 time=0.352941
EXTRACT: note_on channel=3 note=64 velocity=110 time=0
EXTRACT: note_on channel=1 note=46 velocity=0 time=0.1764705
EXTRACT: note_on channel=3 note=64 velocity=0 time=0
EXTRACT: note_on channel=1 note=58 velocity=75 time=0
EXTRACT: note_on channel=3 note=64 velocity=110 time=0
EXTRACT: note_on channel=2 note=65 velocity=0 time=0.1764705
EXTRACT: note_on channel=2 note=70 velocity=0 time=0
EXTRACT: note_on channel=2 note=74 velocity=0 time=0
EXTRACT: note_on channel=1 note=58 velocity=0 time=0
EXTRACT: control_change channel=2 control=64 value=127 time=0
EXTRACT: note_on channel=2 note=74 velocity=110 time=0
EXTRACT: note_on channel=2 note=74 velocity=0 time=0.1764705
EXTRACT: note_on channel=3 note=64 velocity=0 time=0
EXTRACT: note_on channel=2 note=72 velocity=110 time=0
EXTRACT: note_on channel=3 note=62 velocity=110 time=0
EXTRACT: note_on channel=2 note=72 velocity=0 time=0.1764705
EXTRACT: note_on channel=3 note=62 velocity=0 time=0
EXTRACT: note_on channel=2 note=70 velocity=110 time=0
EXTRACT: note_on channel=3 note=62 velocity=110 time=0
EXTRACT: note_on channel=1 note=65 velocity=75 time=0.1764705
EXTRACT: note_on channel=2 note=70 velocity=0 time=0.1764705
EXTRACT: note_on channel=1 note=65 velocity=0 time=0
EXTRACT: note_on channel=3 note=62 velocity=0 time=0
EXTRACT: control_change channel=2 control=64 value=0 time=0
EXTRACT: control_change channel=1 control=64 value=0 time=0
EXTRACT: note_on channel=2 note=65 velocity=110 time=0
EXTRACT: note_on channel=2 note=69 velocity=110 time=0
EXTRACT: note_on channel=2 note=72 velocity=110 time=0
EXTRACT: note_on channel=1 note=41 velocity=75 time=0
EXTRACT: note_on channel=3 note=60 velocity=110 time=0.5294115
EXTRACT: note_on channel=2 note=65 velocity=0 time=0.1764705
EXTRACT: note_on channel=2 note=69 velocity=0 time=0
EXTRACT: note_on channel=2 note=72 velocity=0 time=0
EXTRACT: note_on channel=3 note=60 velocity=0 time=0
EXTRACT: note_on channel=2 note=65 velocity=110 time=0
EXTRACT: note_on channel=2 note=69 velocity=110 time=0
EXTRACT: note_on channel=2 note=72 velocity=110 time=0
EXTRACT: note_on channel=3 note=60 velocity=110 time=0
EXTRACT: note_on channel=3 note=60 velocity=0 time=0.37499981250000003
EXTRACT: note_on channel=3 note=60 velocity=110 time=0.1544116875
EXTRACT: note_on channel=2 note=65 velocity=0 time=0.1764705
EXTRACT: note_on channel=2 note=69 velocity=0 time=0
EXTRACT: note_on channel=2 note=72 velocity=0 time=0
EXTRACT: note_on channel=3 note=60 velocity=0 time=0
EXTRACT: note_on channel=2 note=65 velocity=110 time=0
EXTRACT: note_on channel=2 note=69 velocity=110 time=0
EXTRACT: note_on channel=2 note=72 velocity=110 time=0
EXTRACT: note_on channel=3 note=60 velocity=110 time=0
EXTRACT: note_on channel=3 note=60 velocity=0 time=0.352941
EXTRACT: note_on channel=3 note=53 velocity=110 time=0
EXTRACT: note_on channel=3 note=53 velocity=0 time=0.1764705
EXTRACT: note_on channel=3 note=53 velocity=110 time=0
EXTRACT: note_on channel=1 note=41 velocity=0 time=0.1764705
EXTRACT: note_on channel=2 note=65 velocity=0 time=0
EXTRACT: note_on channel=2 note=69 velocity=0 time=0
EXTRACT: note_on channel=2 note=72 velocity=0 time=0
EXTRACT: note_on channel=2 note=65 velocity=110 time=0
EXTRACT: note_on channel=2 note=69 velocity=110 time=0
EXTRACT: note_on channel=2 note=72 velocity=110 time=0
EXTRACT: note_on channel=1 note=41 velocity=75 time=0
EXTRACT: note_on channel=3 note=53 velocity=0 time=0.1764705
EXTRACT: note_on channel=3 note=55 velocity=110 time=0
EXTRACT: note_on channel=2 note=65 velocity=0 time=0.1764705
EXTRACT: note_on channel=2 note=69 velocity=0 time=0
EXTRACT: note_on channel=2 note=72 velocity=0 time=0
EXTRACT: note_on channel=3 note=55 velocity=0 time=0
EXTRACT: note_on channel=2 note=67 velocity=110 time=0
EXTRACT: note_on channel=3 note=55 velocity=110 time=0
EXTRACT: note_on channel=2 note=67 velocity=0 time=0.352941
EXTRACT: note_on channel=1 note=41 velocity=0 time=0
EXTRACT: note_on channel=3 note=55 velocity=0 time=0
EXTRACT: note_on channel=2 note=64 velocity=110 time=0
EXTRACT: note_on channel=2 note=67 velocity=110 time=0
EXTRACT: note_on channel=2 note=72 velocity=110 time=0
EXTRACT: note_on channel=1 note=40 velocity=75 time=0
EXTRACT: note_on channel=3 note=60 velocity=110 time=0.5294115
EXTRACT: note_on channel=2 note=64 velocity=0 time=0.1764705
EXTRACT: note_on channel=2 note=67 velocity=0 time=0
EXTRACT: note_on channel=2 note=72 velocity=0 time=0
EXTRACT: note_on channel=3 note=60 velocity=0 time=0
EXTRACT: note_on channel=2 note=64 velocity=110 time=0
EXTRACT: note_on channel=2 note=67 velocity=110 time=0
EXTRACT: note_on channel=2 note=72 velocity=110 time=0
EXTRACT: note_on channel=3 note=60 velocity=110 time=0
EXTRACT: note_on channel=3 note=60 velocity=0 time=0.5294115
EXTRACT: note_on channel=3 note=53 velocity=110 time=0
EXTRACT: note_on channel=2 note=64 velocity=0 time=0.1764705
EXTRACT: note_on channel=2 note=67 velocity=0 time=0
EXTRACT: note_on channel=2 note=72 velocity=0 time=0
EXTRACT: note_on channel=3 note=53 velocity=0 time=0
EXTRACT: note_on channel=2 note=64 velocity=110 time=0
EXTRACT: note_on channel=2 note=67 velocity=110 time=0
EXTRACT: note_on channel=2 note=72 velocity=110 time=0
EXTRACT: note_on channel=3 note=53 velocity=110 time=0
EXTRACT: note_on channel=3 note=53 velocity=0 time=0.352941
EXTRACT: note_on channel=3 note=55 velocity=110 time=0
EXTRACT: note_on channel=2 note=64 velocity=0 time=0.352941
EXTRACT: note_on channel=2 note=67 velocity=0 time=0
EXTRACT: note_on channel=2 note=72 velocity=0 time=0
EXTRACT: note_on channel=3 note=55 velocity=0 time=0
EXTRACT: note_on channel=2 note=64 velocity=110 time=0
EXTRACT: note_on channel=2 note=67 velocity=110 time=0
EXTRACT: note_on channel=2 note=72 velocity=110 time=0
EXTRACT: note_on channel=3 note=55 velocity=110 time=0
EXTRACT: note_on channel=3 note=55 velocity=0 time=0.352941
EXTRACT: note_on channel=3 note=57 velocity=110 time=0
EXTRACT: note_on channel=1 note=40 velocity=0 time=0.352941
EXTRACT: note_on channel=2 note=64 velocity=0 time=0
EXTRACT: note_on channel=2 note=67 velocity=0 time=0
EXTRACT: note_on channel=2 note=72 velocity=0 time=0
EXTRACT: note_on channel=3 note=57 velocity=0 time=0
EXTRACT: note_on channel=2 note=65 velocity=110 time=0
EXTRACT: note_on channel=2 note=69 velocity=110 time=0
EXTRACT: note_on channel=2 note=74 velocity=110 time=0
EXTRACT: note_on channel=1 note=50 velocity=127 time=0
EXTRACT: note_on channel=3 note=57 velocity=110 time=0.352941
EXTRACT: note_on channel=3 note=57 velocity=0 time=0.1764705
EXTRACT: note_on channel=3 note=57 velocity=110 time=0
EXTRACT: note_on channel=2 note=65 velocity=0 time=0.1764705
EXTRACT: note_on channel=2 note=69 velocity=0 time=0
EXTRACT: note_on channel=2 note=74 velocity=0 time=0
EXTRACT: note_on channel=3 note=57 velocity=0 time=0
EXTRACT: note_on channel=2 note=65 velocity=110 time=0
EXTRACT: note_on channel=2 note=69 velocity=110 time=0
EXTRACT: note_on channel=2 note=74 velocity=110 time=0
EXTRACT: note_on channel=3 note=65 velocity=110 time=0
EXTRACT: note_on channel=3 note=65 velocity=0 time=0.1764705
EXTRACT: note_on channel=3 note=65 velocity=110 time=0
EXTRACT: note_on channel=3 note=65 velocity=0 time=0.1764705
EXTRACT: note_on channel=3 note=65 velocity=110 time=0
EXTRACT: note_on channel=3 note=65 velocity=0 time=0.1764705
EXTRACT: note_on channel=3 note=65 velocity=110 time=0
EXTRACT: note_on channel=2 note=65 velocity=0 time=0.1764705
EXTRACT: note_on channel=2 note=69 velocity=0 time=0
EXTRACT: note_on channel=2 note=74 velocity=0 time=0
EXTRACT: note_on channel=3 note=65 velocity=0 time=0
EXTRACT: note_on channel=2 note=65 velocity=110 time=0
EXTRACT: note_on channel=2 note=69 velocity=110 time=0
EXTRACT: note_on channel=2 note=74 velocity=110 time=0
EXTRACT: note_on channel=3 note=65 velocity=110 time=0
EXTRACT: note_on channel=3 note=65 velocity=0 time=0.352941
EXTRACT: note_on channel=3 note=64 velocity=110 time=0
EXTRACT: note_on channel=1 note=50 velocity=0 time=0.1764705
EXTRACT: note_on channel=3 note=64 velocity=0 time=0
EXTRACT: control_change channel=1 control=64 value=127 time=0
EXTRACT: note_on channel=1 note=62 velocity=75 time=0
EXTRACT: note_on channel=3 note=64 velocity=110 time=0
EXTRACT: note_on channel=2 note=65 velocity=0 time=0.1764705
EXTRACT: note_on channel=2 note=69 velocity=0 time=0
EXTRACT: note_on channel=2 note=74 velocity=0 time=0
EXTRACT: note_on channel=1 note=62 velocity=0 time=0
EXTRACT: control_change channel=2 control=64 value=127 time=0
EXTRACT: note_on channel=2 note=77 velocity=110 time=0
EXTRACT: note_on channel=2 note=77 velocity=0 time=0.1764705
EXTRACT: note_on channel=3 note=64 velocity=0 time=0
EXTRACT: note_on channel=2 note=76 velocity=110 time=0
EXTRACT: note_on channel=3 note=62 velocity=110 time=0
EXTRACT: note_on channel=2 note=76 velocity=0 time=0.1764705
EXTRACT: note_on channel=3 note=62 velocity=0 time=0
EXTRACT: note_on channel=2 note=74 velocity=110 time=0
EXTRACT: note_on channel=3 note=65 velocity=110 time=0
EXTRACT: note_on channel=1 note=58 velocity=75 time=0.1764705
EXTRACT: note_on channel=2 note=74 velocity=0 time=0.1764705
EXTRACT: note_on channel=1 note=58 velocity=0 time=0
EXTRACT: note_on channel=3 note=65 velocity=0 time=0
EXTRACT: control_change channel=2 control=64 value=0 time=0
EXTRACT: note_on channel=2 note=65 velocity=110 time=0
EXTRACT: note_on channel=2 note=70 velocity=110 time=0
EXTRACT: note_on channel=2 note=74 velocity=110 time=0
EXTRACT: note_on channel=1 note=46 velocity=127 time=0
EXTRACT: note_on channel=3 note=57 velocity=110 time=0.5294115
EXTRACT: note_on channel=2 note=65 velocity=0 time=0.1764705
EXTRACT: note_on channel=2 note=70 velocity=0 time=0
EXTRACT: note_on channel=2 note=74 velocity=0 time=0
EXTRACT: note_on channel=3 note=57 velocity=0 time=0
EXTRACT: note_on channel=2 note=65 velocity=110 time=0
EXTRACT: note_on channel=2 note=70 velocity=110 time=0
EXTRACT: note_on channel=2 note=74 velocity=110 time=0
EXTRACT: note_on channel=3 note=65 velocity=110 time=0
EXTRACT: note_on channel=3 note=65 velocity=0 time=0.1764705
EXTRACT: note_on channel=3 note=65 velocity=110 time=0
EXTRACT: note_on channel=3 note=65 velocity=0 time=0.1764705
EXTRACT: note_on channel=3 note=65 velocity=110 time=0
EXTRACT: note_on channel=3 note=65 velocity=0 time=0.1764705
EXTRACT: note_on channel=3 note=65 velocity=110 time=0
EXTRACT: note_on channel=2 note=65 velocity=0 time=0.1764705
EXTRACT: note_on channel=2 note=70 velocity=0 time=0
EXTRACT: note_on channel=2 note=74 velocity=0 time=0
EXTRACT: note_on channel=3 note=65 velocity=0 time=0
EXTRACT: note_on channel=2 note=65 velocity=110 time=0
EXTRACT: note_on channel=2 note=70 velocity=110 time=0
EXTRACT: note_on channel=2 note=74 velocity=110 time=0
EXTRACT: note_on channel=3 note=65 velocity=110 time=0
EXTRACT: note_on channel=3 note=65 velocity=0 time=0.352941
EXTRACT: note_on channel=3 note=64 velocity=110 time=0
EXTRACT: note_on channel=1 note=46 velocity=0 time=0.1764705
EXTRACT: note_on channel=3 note=64 velocity=0 time=0
EXTRACT: note_on channel=1 note=58 velocity=75 time=0
EXTRACT: note_on channel=3 note=64 velocity=110 time=0
EXTRACT: note_on channel=2 note=65 velocity=0 time=0.1764705
EXTRACT: note_on channel=2 note=70 velocity=0 time=0
EXTRACT: note_on channel=2 note=74 velocity=0 time=0
EXTRACT: note_on channel=1 note=58 velocity=0 time=0
EXTRACT: control_change channel=2 control=64 value=127 time=0
EXTRACT: note_on channel=2 note=74 velocity=110 time=0
EXTRACT: note_on channel=2 note=74 velocity=0 time=0.1764705
EXTRACT: note_on channel=3 note=64 velocity=0 time=0
EXTRACT: note_on channel=2 note=72 velocity=110 time=0
EXTRACT: note_on channel=3 note=62 velocity=110 time=0
EXTRACT: note_on channel=2 note=72 velocity=0 time=0.1764705
EXTRACT: note_on channel=3 note=62 velocity=0 time=0
EXTRACT: note_on channel=2 note=70 velocity=110 time=0
EXTRACT: note_on channel=3 note=62 velocity=110 time=0
EXTRACT: note_on channel=1 note=65 velocity=75 time=0.1764705
EXTRACT: note_on channel=2 note=70 velocity=0 time=0.1764705
EXTRACT: note_on channel=1 note=65 velocity=0 time=0
EXTRACT: note_on channel=3 note=62 velocity=0 time=0
EXTRACT: control_change channel=2 control=64 value=0 time=0
EXTRACT: control_change channel=1 control=64 value=0 time=0
EXTRACT: note_on channel=2 note=65 velocity=110 time=0
EXTRACT: note_on channel=2 note=69 velocity=110 time=0
EXTRACT: note_on channel=2 note=72 velocity=110 time=0
EXTRACT: note_on channel=1 note=41 velocity=75 time=0
EXTRACT: note_on channel=3 note=60 velocity=110 time=0.5294115
EXTRACT: note_on channel=2 note=65 velocity=0 time=0.1764705
EXTRACT: note_on channel=2 note=69 velocity=0 time=0
EXTRACT: note_on channel=2 note=72 velocity=0 time=0
EXTRACT: note_on channel=3 note=60 velocity=0 time=0
EXTRACT: note_on channel=2 note=65 velocity=110 time=0
EXTRACT: note_on channel=2 note=69 velocity=110 time=0
EXTRACT: note_on channel=2 note=72 velocity=110 time=0
EXTRACT: note_on channel=3 note=60 velocity=110 time=0
EXTRACT: note_on channel=3 note=60 velocity=0 time=0.5294115
EXTRACT: note_on channel=3 note=60 velocity=110 time=0
EXTRACT: note_on channel=2 note=65 velocity=0 time=0.1764705
EXTRACT: note_on channel=2 note=69 velocity=0 time=0
EXTRACT: note_on channel=2 note=72 velocity=0 time=0
EXTRACT: note_on channel=3 note=60 velocity=0 time=0
EXTRACT: note_on channel=2 note=65 velocity=110 time=0
EXTRACT: note_on channel=2 note=69 velocity=110 time=0
EXTRACT: note_on channel=2 note=72 velocity=110 time=0
EXTRACT: note_on channel=3 note=60 velocity=110 time=0
EXTRACT: note_on channel=3 note=60 velocity=0 time=0.352941
EXTRACT: note_on channel=3 note=53 velocity=110 time=0
EXTRACT: note_on channel=1 note=41 velocity=0 time=0.352941
EXTRACT: note_on channel=2 note=65 velocity=0 time=0
EXTRACT: note_on channel=2 note=69 velocity=0 time=0
EXTRACT: note_on channel=2 note=72 velocity=0 time=0
EXTRACT: note_on channel=3 note=53 velocity=0 time=0
EXTRACT: note_on channel=2 note=65 velocity=110 time=0
EXTRACT: note_on channel=2 note=69 velocity=110 time=0
EXTRACT: note_on channel=2 note=72 velocity=110 time=0
EXTRACT: note_on channel=1 note=41 velocity=75 time=0
EXTRACT: note_on channel=3 note=55 velocity=110 time=0
EXTRACT: note_on channel=2 note=65 velocity=0 time=0.352941
EXTRACT: note_on channel=2 note=69 velocity=0 time=0
EXTRACT: note_on channel=2 note=72 velocity=0 time=0
EXTRACT: note_on channel=2 note=67 velocity=110 time=0
EXTRACT: note_on channel=2 note=67 velocity=0 time=0.352941
EXTRACT: note_on channel=1 note=41 velocity=0 time=0
EXTRACT: note_on channel=3 note=55 velocity=0 time=0
EXTRACT: note_on channel=2 note=64 velocity=110 time=0
EXTRACT: note_on channel=2 note=67 velocity=110 time=0
EXTRACT: note_on channel=2 note=72 velocity=110 time=0
EXTRACT: note_on channel=1 note=40 velocity=75 time=0
EXTRACT: note_on channel=3 note=60 velocity=110 time=0
EXTRACT: note_on channel=3 note=60 velocity=0 time=0.1764705
EXTRACT: note_on channel=3 note=60 velocity=110 time=0
EXTRACT: note_on channel=3 note=60 velocity=0 time=0.1764705
EXTRACT: note_on channel=3 note=60 velocity=110 time=0
EXTRACT: note_on channel=3 note=60 velocity=0 time=0.1764705
EXTRACT: note_on channel=3 note=62 velocity=110 time=0
EXTRACT: note_on channel=2 note=64 velocity=0 time=0.1764705
EXTRACT: note_on channel=2 note=67 velocity=0 time=0
EXTRACT: note_on channel=2 note=72 velocity=0 time=0
EXTRACT: note_on channel=3 note=62 velocity=0 time=0
EXTRACT: note_on channel=2 note=64 velocity=110 time=0
EXTRACT: note_on channel=2 note=67 velocity=110 time=0
EXTRACT: note_on channel=2 note=72 velocity=110 time=0
EXTRACT: note_on channel=3 note=60 velocity=110 time=0
EXTRACT: note_on channel=3 note=60 velocity=0 time=0.352941
EXTRACT: note_on channel=3 note=53 velocity=110 time=0
EXTRACT: note_on channel=2 note=64 velocity=0 time=0.352941
EXTRACT: note_on channel=2 note=67 velocity=0 time=0
EXTRACT: note_on channel=2 note=72 velocity=0 time=0
EXTRACT: note_on channel=3 note=53 velocity=0 time=0
EXTRACT: note_on channel=2 note=64 velocity=110 time=0
EXTRACT: note_on channel=2 note=67 velocity=110 time=0
EXTRACT: note_on channel=2 note=72 velocity=110 time=0
EXTRACT: note_on channel=3 note=62 velocity=110 time=0
EXTRACT: note_on channel=3 note=62 velocity=0 time=0.5294115
EXTRACT: note_on channel=3 note=60 velocity=110 time=0
EXTRACT: note_on channel=2 note=64 velocity=0 time=0.1764705
EXTRACT: note_on channel=2 note=67 velocity=0 time=0
EXTRACT: note_on channel=2 note=72 velocity=0 time=0
EXTRACT: note_on channel=2 note=64 velocity=110 time=0
EXTRACT: note_on channel=2 note=67 velocity=110 time=0
EXTRACT: note_on channel=2 note=72 velocity=110 time=0
EXTRACT: note_on channel=3 note=60 velocity=0 time=0.352941
EXTRACT: note_on channel=3 note=57 velocity=110 time=0
EXTRACT: note_on channel=1 note=40 velocity=0 time=0.352941
EXTRACT: note_on channel=2 note=64 velocity=0 time=0
EXTRACT: note_on channel=2 note=67 velocity=0 time=0
EXTRACT: note_on channel=2 note=72 velocity=0 time=0
EXTRACT: note_on channel=3 note=57 velocity=0 time=0
EXTRACT: note_on channel=2 note=62 velocity=110 time=0
EXTRACT: note_on channel=2 note=67 velocity=110 time=0
EXTRACT: note_on channel=2 note=70 velocity=110 time=0
EXTRACT: note_on channel=1 note=43 velocity=127 time=0
EXTRACT: note_on channel=4 note=55 velocity=110 time=0
EXTRACT: note_on channel=3 note=58 velocity=110 time=0
EXTRACT: note_on channel=3 note=58 velocity=0 time=0.5294115
EXTRACT: note_on channel=3 note=57 velocity=110 time=0
EXTRACT: note_on channel=2 note=62 velocity=0 time=0.1764705
EXTRACT: note_on channel=2 note=67 velocity=0 time=0
EXTRACT: note_on channel=2 note=70 velocity=0 time=0
EXTRACT: note_on channel=2 note=62 velocity=110 time=0
EXTRACT: note_on channel=2 note=67 velocity=110 time=0
EXTRACT: note_on channel=2 note=70 velocity=110 time=0
EXTRACT: note_on channel=3 note=57 velocity=0 time=0.1985293125
EXTRACT: note_on channel=3 note=53 velocity=110 time=0.1544116875
EXTRACT: note_on channel=2 note=62 velocity=0 time=0.352941
EXTRACT: note_on channel=2 note=67 velocity=0 time=0
EXTRACT: note_on channel=2 note=70 velocity=0 time=0
EXTRACT: note_on channel=3 note=53 velocity=0 time=0
EXTRACT: note_on channel=2 note=62 velocity=110 time=0
EXTRACT: note_on channel=2 note=67 velocity=110 time=0
EXTRACT: note_on channel=2 note=70 velocity=110 time=0
EXTRACT: note_on channel=3 note=58 velocity=110 time=0
EXTRACT: note_on channel=3 note=58 velocity=0 time=0.5294115
EXTRACT: note_on channel=3 note=57 velocity=110 time=0
EXTRACT: note_on channel=4 note=55 velocity=0 time=0.1764705
EXTRACT: note_on channel=2 note=62 velocity=0 time=0
EXTRACT: note_on channel=2 note=67 velocity=0 time=0
EXTRACT: note_on channel=2 note=70 velocity=0 time=0
EXTRACT: note_on channel=2 note=62 velocity=110 time=0
EXTRACT: note_on channel=2 note=67 velocity=110 time=0
EXTRACT: note_on channel=2 note=70 velocity=110 time=0
EXTRACT: note_on channel=4 note=57 velocity=110 time=0
EXTRACT: note_on channel=3 note=57 velocity=0 time=0.1985293125
EXTRACT: note_on channel=3 note=53 velocity=110 time=0.1544116875
EXTRACT: note_on channel=1 note=43 velocity=0 time=0.352941
EXTRACT: note_on channel=2 note=62 velocity=0 time=0
EXTRACT: note_on channel=2 note=67 velocity=0 time=0
EXTRACT: note_on channel=2 note=70 velocity=0 time=0
EXTRACT: note_on channel=4 note=57 velocity=0 time=0
EXTRACT: note_on channel=3 note=53 velocity=0 time=0
EXTRACT: note_on channel=2 note=62 velocity=110 time=0
EXTRACT: note_on channel=2 note=65 velocity=110 time=0
EXTRACT: note_on channel=2 note=70 velocity=110 time=0
EXTRACT: note_on channel=1 note=46 velocity=127 time=0
EXTRACT: note_on channel=4 note=58 velocity=110 time=0
EXTRACT: note_on channel=3 note=58 velocity=110 time=0
EXTRACT: note_on channel=3 note=58 velocity=0 time=0.5294115
EXTRACT: note_on channel=3 note=57 velocity=110 time=0
EXTRACT: note_on channel=2 note=62 velocity=0 time=0.1764705
EXTRACT: note_on channel=2 note=65 velocity=0 time=0
EXTRACT: note_on channel=2 note=70 velocity=0 time=0
EXTRACT: note_on channel=2 note=62 velocity=110 time=0
EXTRACT: note_on channel=2 note=65 velocity=110 time=0
EXTRACT: note_on channel=2 note=70 velocity=110 time=0
EXTRACT: note_on channel=3 note=57 velocity=0 time=0.1985293125
EXTRACT: note_on channel=3 note=53 velocity=110 time=0.1544116875
EXTRACT: note_on channel=3 note=53 velocity=0 time=0.249999875
EXTRACT: note_on channel=2 note=62 velocity=0 time=0.102941125
EXTRACT: note_on channel=2 note=65 velocity=0 time=0
EXTRACT: note_on channel=2 note=70 velocity=0 time=0
EXTRACT: note_on channel=2 note=62 velocity=110 time=0
EXTRACT: note_on channel=2 note=65 velocity=110 time=0
EXTRACT: note_on channel=2 note=70 velocity=110 time=0
EXTRACT: note_on channel=3 note=58 velocity=110 time=0
EXTRACT: note_on channel=2 note=62 velocity=0 time=0.705882
EXTRACT: note_on channel=2 note=65 velocity=0 time=0
EXTRACT: note_on channel=2 note=70 velocity=0 time=0
EXTRACT: note_on channel=2 note=62 velocity=110 time=0
EXTRACT: note_on channel=2 note=65 velocity=110 time=0
EXTRACT: note_on channel=2 note=70 velocity=110 time=0
EXTRACT: note_on channel=3 note=58 velocity=0 time=0.352941
EXTRACT: note_on channel=3 note=53 velocity=110 time=0
EXTRACT: note_on channel=1 note=46 velocity=0 time=0.352941
EXTRACT: note_on channel=4 note=58 velocity=0 time=0
EXTRACT: note_on channel=2 note=62 velocity=0 time=0
EXTRACT: note_on channel=2 note=65 velocity=0 time=0
EXTRACT: note_on channel=2 note=70 velocity=0 time=0
EXTRACT: note_on channel=3 note=53 velocity=0 time=0
EXTRACT: note_on channel=2 note=65 velocity=110 time=0
EXTRACT: note_on channel=2 note=69 velocity=110 time=0
EXTRACT: note_on channel=2 note=72 velocity=110 time=0
EXTRACT: note_on channel=1 note=53 velocity=127 time=0
EXTRACT: note_on channel=4 note=57 velocity=110 time=0
EXTRACT: note_on channel=3 note=55 velocity=110 time=0
EXTRACT: note_on channel=3 note=55 velocity=0 time=0.5294115
EXTRACT: note_on channel=3 note=57 velocity=110 time=0
EXTRACT: note_on channel=2 note=65 velocity=0 time=0.1764705
EXTRACT: note_on channel=2 note=69 velocity=0 time=0
EXTRACT: note_on channel=2 note=72 velocity=0 time=0
EXTRACT: note_on channel=2 note=65 velocity=110 time=0
EXTRACT: note_on channel=2 note=69 velocity=110 time=0
EXTRACT: note_on channel=2 note=72 velocity=110 time=0
EXTRACT: note_on channel=3 note=57 velocity=0 time=0.1985293125
EXTRACT: note_on channel=3 note=53 velocity=110 time=0.1544116875
EXTRACT: note_on channel=2 note=65 velocity=0 time=0.352941
EXTRACT: note_on channel=2 note=69 velocity=0 time=0
EXTRACT: note_on channel=2 note=72 velocity=0 time=0
EXTRACT: note_on channel=3 note=53 velocity=0 time=0
EXTRACT: note_on channel=2 note=65 velocity=110 time=0
EXTRACT: note_on channel=2 note=69 velocity=110 time=0
EXTRACT: note_on channel=2 note=72 velocity=110 time=0
EXTRACT: note_on channel=3 note=55 velocity=110 time=0
EXTRACT: note_on channel=3 note=55 velocity=0 time=0.5294115
EXTRACT: note_on channel=3 note=57 velocity=110 time=0
EXTRACT: note_on channel=2 note=65 velocity=0 time=0.1764705
EXTRACT: note_on channel=2 note=69 velocity=0 time=0
EXTRACT: note_on channel=2 note=72 velocity=0 time=0
EXTRACT: note_on channel=2 note=65 velocity=110 time=0
EXTRACT: note_on channel=2 note=69 velocity=110 time=0
EXTRACT: note_on channel=2 note=72 velocity=110 time=0
EXTRACT: note_on channel=3 note=57 velocity=0 time=0.1985293125
EXTRACT: note_on channel=3 note=53 velocity=110 time=0.1544116875
EXTRACT: note_on channel=1 note=53 velocity=0 time=0.352941
EXTRACT: note_on channel=4 note=57 velocity=0 time=0
EXTRACT: note_on channel=2 note=65 velocity=0 time=0
EXTRACT: note_on channel=2 note=69 velocity=0 time=0
EXTRACT: note_on channel=2 note=72 velocity=0 time=0
EXTRACT: note_on channel=3 note=53 velocity=0 time=0
EXTRACT: note_on channel=2 note=64 velocity=110 time=0
EXTRACT: note_on channel=2 note=67 velocity=110 time=0
EXTRACT: note_on channel=2 note=72 velocity=110 time=0
EXTRACT: note_on channel=1 note=52 velocity=127 time=0
EXTRACT: note_on channel=4 note=55 velocity=110 time=0
EXTRACT: note_on channel=3 note=55 velocity=110 time=0
EXTRACT: note_on channel=3 note=55 velocity=0 time=0.5294115
EXTRACT: note_on channel=3 note=57 velocity=110 time=0
EXTRACT: note_on channel=2 note=64 velocity=0 time=0.1764705
EXTRACT: note_on channel=2 note=67 velocity=0 time=0
EXTRACT: note_on channel=2 note=72 velocity=0 time=0
EXTRACT: note_on channel=2 note=64 velocity=110 time=0
EXTRACT: note_on channel=2 note=67 velocity=110 time=0
EXTRACT: note_on channel=2 note=72 velocity=110 time=0
EXTRACT: note_on channel=3 note=57 velocity=0 time=0.1985293125
EXTRACT: note_on channel=3 note=53 velocity=110 time=0.1544116875
EXTRACT: note_on channel=2 note=64 velocity=0 time=0.352941
EXTRACT: note_on channel=2 note=67 velocity=0 time=0
EXTRACT: note_on channel=2 note=72 velocity=0 time=0
EXTRACT: note_on channel=3 note=53 velocity=0 time=0
EXTRACT: note_on channel=2 note=64 velocity=110 time=0
EXTRACT: note_on channel=2 note=67 velocity=110 time=0
EXTRACT: note_on channel=2 note=72 velocity=110 time=0
EXTRACT: note_on channel=3 note=57 velocity=110 time=0
EXTRACT: note_on channel=2 note=64 velocity=0 time=0.705882
EXTRACT: note_on channel=2 note=67 velocity=0 time=0
EXTRACT: note_on channel=2 note=72 velocity=0 time=0
EXTRACT: note_on channel=3 note=57 velocity=0 time=0
EXTRACT: note_on channel=2 note=64 velocity=110 time=0
EXTRACT: note_on channel=2 note=67 velocity=110 time=0
EXTRACT: note_on channel=2 note=72 velocity=110 time=0
EXTRACT: note_on channel=3 note=53 velocity=110 time=0.1764705
EXTRACT: note_on channel=3 note=53 velocity=0 time=0.1764705
EXTRACT: note_on channel=3 note=58 velocity=110 time=0
EXTRACT: note_on channel=3 note=58 velocity=0 time=0.1764705
EXTRACT: note_on channel=3 note=60 velocity=110 time=0
EXTRACT: note_on channel=1 note=52 velocity=0 time=0.1764705
EXTRACT: note_on channel=4 note=55 velocity=0 time=0
EXTRACT: note_on channel=2 note=64 velocity=0 time=0
EXTRACT: note_on channel=2 note=67 velocity=0 time=0
EXTRACT: note_on channel=2 note=72 velocity=0 time=0
EXTRACT: note_on channel=3 note=60 velocity=0 time=0
EXTRACT: note_on channel=2 note=62 velocity=110 time=0
EXTRACT: note_on channel=2 note=67 velocity=110 time=0
EXTRACT: note_on channel=2 note=70 velocity=110 time=0
EXTRACT: note_on channel=1 note=43 velocity=127 time=0
EXTRACT: note_on channel=4 note=58 velocity=110 time=0
EXTRACT: note_on channel=3 note=58 velocity=110 time=0
EXTRACT: note_on channel=3 note=58 velocity=0 time=0.5294115
EXTRACT: note_on channel=3 note=57 velocity=110 time=0
EXTRACT: note_on channel=2 note=62 velocity=0 time=0.1764705
EXTRACT: note_on channel=2 note=67 velocity=0 time=0
EXTRACT: note_on channel=2 note=70 velocity=0 time=0
EXTRACT: note_on channel=2 note=62 velocity=110 time=0
EXTRACT: note_on channel=2 note=67 velocity=110 time=0
EXTRACT: note_on channel=2 note=70 velocity=110 time=0
EXTRACT: note_on channel=3 note=57 velocity=0 time=0.1985293125
EXTRACT: note_on channel=3 note=53 velocity=110 time=0.1544116875
EXTRACT: note_on channel=2 note=62 velocity=0 time=0.352941
EXTRACT: note_on channel=2 note=67 velocity=0 time=0
EXTRACT: note_on channel=2 note=70 velocity=0 time=0
EXTRACT: note_on channel=3 note=53 velocity=0 time=0
EXTRACT: note_on channel=2 note=62 velocity=110 time=0
EXTRACT: note_on channel=2 note=67 velocity=110 time=0
EXTRACT: note_on channel=2 note=70 velocity=110 time=0
EXTRACT: note_on channel=3 note=58 velocity=110 time=0
EXTRACT: note_on channel=3 note=58 velocity=0 time=0.5294115
EXTRACT: note_on channel=3 note=57 velocity=110 time=0
EXTRACT: note_on channel=4 note=58 velocity=0 time=0.1764705
EXTRACT: note_on channel=2 note=62 velocity=0 time=0
EXTRACT: note_on channel=2 note=67 velocity=0 time=0
EXTRACT: note_on channel=2 note=70 velocity=0 time=0
EXTRACT: note_on channel=2 note=62 velocity=110 time=0
EXTRACT: note_on channel=2 note=67 velocity=110 time=0
EXTRACT: note_on channel=2 note=70 velocity=110 time=0
EXTRACT: note_on channel=4 note=60 velocity=110 time=0
EXTRACT: note_on channel=3 note=57 velocity=0 time=0.1985293125
EXTRACT: note_on channel=3 note=53 velocity=110 time=0.1544116875
EXTRACT: note_on channel=1 note=43 velocity=0 time=0.352941
EXTRACT: note_on channel=2 note=62 velocity=0 time=0
EXTRACT: note_on channel=2 note=67 velocity=0 time=0
EXTRACT: note_on channel=2 note=70 velocity=0 time=0
EXTRACT: note_on channel=4 note=60 velocity=0 time=0
EXTRACT: note_on channel=3 note=53 velocity=0 time=0
EXTRACT: note_on channel=2 note=62 velocity=110 time=0
EXTRACT: note_on channel=2 note=65 velocity=110 time=0
EXTRACT: note_on channel=2 note=70 velocity=110 time=0
EXTRACT: note_on channel=1 note=46 velocity=127 time=0
EXTRACT: note_on channel=4 note=62 velocity=110 time=0
EXTRACT: note_on channel=3 note=58 velocity=110 time=0
EXTRACT: note_on channel=3 note=58 velocity=0 time=0.5294115
EXTRACT: note_on channel=3 note=57 velocity=110 time=0
EXTRACT: note_on channel=2 note=62 velocity=0 time=0.1764705
EXTRACT: note_on channel=2 note=65 velocity=0 time=0
EXTRACT: note_on channel=2 note=70 velocity=0 time=0
EXTRACT: note_on channel=2 note=62 velocity=110 time=0
EXTRACT: note_on channel=2 note=65 velocity=110 time=0
EXTRACT: note_on channel=2 note=70 velocity=110 time=0
EXTRACT: note_on channel=3 note=57 velocity=0 time=0.1985293125
EXTRACT: note_on channel=3 note=53 velocity=110 time=0.1544116875
EXTRACT: note_on channel=2 note=62 velocity=0 time=0.352941
EXTRACT: note_on channel=2 note=65 velocity=0 time=0
EXTRACT: note_on channel=2 note=70 velocity=0 time=0
EXTRACT: note_on channel=3 note=53 velocity=0 time=0
EXTRACT: note_on channel=2 note=62 velocity=110 time=0
EXTRACT: note_on channel=2 note=65 velocity=110 time=0
EXTRACT: note_on channel=2 note=70 velocity=110 time=0
EXTRACT: note_on channel=3 note=58 velocity=110 time=0
EXTRACT: note_on channel=2 note=62 velocity=0 time=0.705882
EXTRACT: note_on channel=2 note=65 velocity=0 time=0
EXTRACT: note_on channel=2 note=70 velocity=0 time=0
EXTRACT: note_on channel=2 note=62 velocity=110 time=0
EXTRACT: note_on channel=2 note=65 velocity=110 time=0
EXTRACT: note_on channel=2 note=70 velocity=110 time=0
EXTRACT: note_on channel=3 note=58 velocity=0 time=0.352941
EXTRACT: note_on channel=3 note=53 velocity=110 time=0
EXTRACT: note_on channel=1 note=46 velocity=0 time=0.352941
EXTRACT: note_on channel=4 note=62 velocity=0 time=0
EXTRACT: note_on channel=2 note=62 velocity=0 time=0
EXTRACT: note_on channel=2 note=65 velocity=0 time=0
EXTRACT: note_on channel=2 note=70 velocity=0 time=0
EXTRACT: note_on channel=3 note=53 velocity=0 time=0
EXTRACT: note_on channel=2 note=65 velocity=110 time=0
EXTRACT: note_on channel=2 note=69 velocity=110 time=0
EXTRACT: note_on channel=2 note=72 velocity=110 time=0
EXTRACT: note_on channel=1 note=50 velocity=127 time=0
EXTRACT: note_on channel=4 note=57 velocity=110 time=0
EXTRACT: note_on channel=3 note=62 velocity=110 time=0
EXTRACT: note_on channel=3 note=62 velocity=0 time=0.5294115
EXTRACT: note_on channel=3 note=62 velocity=110 time=0
EXTRACT: note_on channel=2 note=65 velocity=0 time=0.1764705
EXTRACT: note_on channel=2 note=69 velocity=0 time=0
EXTRACT: note_on channel=2 note=72 velocity=0 time=0
EXTRACT: note_on channel=2 note=65 velocity=110 time=0
EXTRACT: note_on channel=2 note=69 velocity=110 time=0
EXTRACT: note_on channel=2 note=72 velocity=110 time=0
EXTRACT: note_on channel=3 note=62 velocity=0 time=0.352941
EXTRACT: note_on channel=3 note=62 velocity=110 time=0
EXTRACT: note_on channel=3 note=62 velocity=0 time=0.249999875
EXTRACT: note_on channel=2 note=65 velocity=0 time=0.102941125
EXTRACT: note_on channel=2 note=69 velocity=0 time=0
EXTRACT: note_on channel=2 note=72 velocity=0 time=0
EXTRACT: note_on channel=2 note=65 velocity=110 time=0
EXTRACT: note_on channel=2 note=69 velocity=110 time=0
EXTRACT: note_on channel=2 note=72 velocity=110 time=0
EXTRACT: note_on channel=3 note=60 velocity=110 time=0
EXTRACT: note_on channel=3 note=60 velocity=0 time=0.5294115
EXTRACT: note_on channel=3 note=60 velocity=110 time=0
EXTRACT: note_on channel=2 note=65 velocity=0 time=0.1764705
EXTRACT: note_on channel=2 note=69 velocity=0 time=0
EXTRACT: note_on channel=2 note=72 velocity=0 time=0
EXTRACT: note_on channel=2 note=65 velocity=110 time=0
EXTRACT: note_on channel=2 note=69 velocity=110 time=0
EXTRACT: note_on channel=2 note=72 velocity=110 time=0
EXTRACT: note_on channel=3 note=60 velocity=0 time=0.352941
EXTRACT: note_on channel=3 note=60 velocity=110 time=0
EXTRACT: note_on channel=1 note=50 velocity=0 time=0.352941
EXTRACT: note_on channel=4 note=57 velocity=0 time=0
EXTRACT: note_on channel=2 note=65 velocity=0 time=0
EXTRACT: note_on channel=2 note=69 velocity=0 time=0
EXTRACT: note_on channel=2 note=72 velocity=0 time=0
EXTRACT: note_on channel=3 note=60 velocity=0 time=0
EXTRACT: note_on channel=2 note=64 velocity=110 time=0
EXTRACT: note_on channel=2 note=67 velocity=110 time=0
EXTRACT: note_on channel=2 note=72 velocity=110 time=0
EXTRACT: note_on channel=1 note=48 velocity=127 time=0
EXTRACT: note_on channel=4 note=55 velocity=110 time=0
EXTRACT: note_on channel=3 note=62 velocity=110 time=0
EXTRACT: note_on channel=3 note=62 velocity=0 time=0.5294115
EXTRACT: note_on channel=3 note=64 velocity=110 time=0
EXTRACT: note_on channel=2 note=64 velocity=0 time=0.1764705
EXTRACT: note_on channel=2 note=67 velocity=0 time=0
EXTRACT: note_on channel=2 note=72 velocity=0 time=0
EXTRACT: note_on channel=2 note=64 velocity=110 time=0
EXTRACT: note_on channel=2 note=67 velocity=110 time=0
EXTRACT: note_on channel=2 note=72 velocity=110 time=0
EXTRACT: note_on channel=3 note=64 velocity=0 time=0.352941
EXTRACT: note_on channel=3 note=65 velocity=110 time=0
EXTRACT: note_on channel=2 note=64 velocity=0 time=0.352941
EXTRACT: note_on channel=2 note=67 velocity=0 time=0
EXTRACT: note_on channel=2 note=72 velocity=0 time=0
EXTRACT: note_on channel=3 note=65 velocity=0 time=0
EXTRACT: note_on channel=2 note=64 velocity=110 time=0
EXTRACT: note_on channel=2 note=67 velocity=110 time=0
EXTRACT: note_on channel=2 note=72 velocity=110 time=0
EXTRACT: note_on channel=3 note=67 velocity=110 time=0
EXTRACT: note_on channel=3 note=67 velocity=0 time=0.352941
EXTRACT: note_on channel=3 note=67 velocity=110 time=0
EXTRACT: note_on channel=3 note=67 velocity=0 time=0.1764705
EXTRACT: note_on channel=3 note=65 velocity=110 time=0
EXTRACT: note_on channel=2 note=64 velocity=0 time=0.1764705
EXTRACT: note_on channel=2 note=67 velocity=0 time=0
EXTRACT: note_on channel=2 note=72 velocity=0 time=0
EXTRACT: note_on channel=3 note=65 velocity=0 time=0
EXTRACT: note_on channel=2 note=64 velocity=110 time=0
EXTRACT: note_on channel=2 note=67 velocity=110 time=0
EXTRACT: note_on channel=2 note=72 velocity=110 time=0
EXTRACT: note_on channel=3 note=69 velocity=110 time=0
EXTRACT: note_on channel=3 note=69 velocity=0 time=0.1764705
EXTRACT: note_on channel=3 note=67 velocity=110 time=0
EXTRACT: note_on channel=1 note=48 velocity=0 time=0.5294115
EXTRACT: note_on channel=4 note=55 velocity=0 time=0
EXTRACT: note_on channel=2 note=64 velocity=0 time=0
EXTRACT: note_on channel=2 note=67 velocity=0 time=0
EXTRACT: note_on channel=2 note=72 velocity=0 time=0
EXTRACT: note_on channel=3 note=67 velocity=0 time=0
EXTRACT: note_on channel=2 note=62 velocity=110 time=0
EXTRACT: note_on channel=2 note=65 velocity=110 time=0
EXTRACT: note_on channel=2 note=69 velocity=110 time=0
EXTRACT: note_on channel=1 note=50 velocity=127 time=0
EXTRACT: note_on channel=4 note=65 velocity=110 time=0
EXTRACT: note_on channel=3 note=69 velocity=110 time=0
EXTRACT: note_on channel=3 note=69 velocity=0 time=0.1764705
EXTRACT: note_on channel=3 note=69 velocity=110 time=0
EXTRACT: note_on channel=3 note=69 velocity=0 time=0.1764705
EXTRACT: note_on channel=3 note=69 velocity=110 time=0
EXTRACT: note_on channel=3 note=69 velocity=0 time=0.1764705
EXTRACT: note_on channel=3 note=69 velocity=110 time=0
EXTRACT: note_on channel=2 note=62 velocity=0 time=0.1764705
EXTRACT: note_on channel=2 note=65 velocity=0 time=0
EXTRACT: note_on channel=2 note=69 velocity=0 time=0
EXTRACT: note_on channel=3 note=69 velocity=0 time=0
EXTRACT: note_on channel=2 note=62 velocity=110 time=0
EXTRACT: note_on channel=2 note=65 velocity=110 time=0
EXTRACT: note_on channel=2 note=69 velocity=110 time=0
EXTRACT: note_on channel=3 note=69 velocity=110 time=0
EXTRACT: note_on channel=3 note=69 velocity=0 time=0.352941
EXTRACT: note_on channel=3 note=69 velocity=110 time=0
EXTRACT: note_on channel=3 note=69 velocity=0 time=0.1764705
EXTRACT: note_on channel=3 note=69 velocity=110 time=0
EXTRACT: note_on channel=2 note=62 velocity=0 time=0.1764705
EXTRACT: note_on channel=2 note=65 velocity=0 time=0
EXTRACT: note_on channel=2 note=69 velocity=0 time=0
EXTRACT: note_on channel=2 note=62 velocity=110 time=0
EXTRACT: note_on channel=2 note=65 velocity=110 time=0
EXTRACT: note_on channel=2 note=69 velocity=110 time=0
EXTRACT: note_on channel=3 note=69 velocity=0 time=0.1764705
EXTRACT: note_on channel=3 note=67 velocity=110 time=0
EXTRACT: note_on channel=3 note=67 velocity=0 time=0.1764705
EXTRACT: note_on channel=3 note=67 velocity=110 time=0
EXTRACT: note_on channel=4 note=65 velocity=0 time=0.352941
EXTRACT: note_on channel=2 note=62 velocity=0 time=0
EXTRACT: note_on channel=2 note=65 velocity=0 time=0
EXTRACT: note_on channel=2 note=69 velocity=0 time=0
EXTRACT: note_on channel=2 note=62 velocity=110 time=0
EXTRACT: note_on channel=2 note=65 velocity=110 time=0
EXTRACT: note_on channel=2 note=69 velocity=110 time=0
EXTRACT: note_on channel=4 note=64 velocity=110 time=0
EXTRACT: note_on channel=1 note=50 velocity=0 time=0.705882
EXTRACT: note_on channel=2 note=62 velocity=0 time=0
EXTRACT: note_on channel=2 note=65 velocity=0 time=0
EXTRACT: note_on channel=2 note=69 velocity=0 time=0
EXTRACT: note_on channel=4 note=64 velocity=0 time=0
EXTRACT: note_on channel=3 note=67 velocity=0 time=0
EXTRACT: note_on channel=2 note=62 velocity=110 time=0
EXTRACT: note_on channel=2 note=65 velocity=110 time=0
EXTRACT: note_on channel=2 note=70 velocity=110 time=0
EXTRACT: note_on channel=1 note=46 velocity=127 time=0
EXTRACT: note_on channel=4 note=62 velocity=110 time=0
EXTRACT: note_on channel=3 note=69 velocity=110 time=0
EXTRACT: note_on channel=3 note=69 velocity=0 time=0.1764705
EXTRACT: note_on channel=3 note=69 velocity=110 time=0
EXTRACT: note_on channel=3 note=69 velocity=0 time=0.1764705
EXTRACT: note_on channel=3 note=69 velocity=110 time=0
EXTRACT: note_on channel=3 note=69 velocity=0 time=0.1764705
EXTRACT: note_on channel=3 note=69 velocity=110 time=0
EXTRACT: note_on channel=2 note=62 velocity=0 time=0.1764705
EXTRACT: note_on channel=2 note=65 velocity=0 time=0
EXTRACT: note_on channel=2 note=70 velocity=0 time=0
EXTRACT: note_on channel=3 note=69 velocity=0 time=0
EXTRACT: note_on channel=2 note=62 velocity=110 time=0
EXTRACT: note_on channel=2 note=65 velocity=110 time=0
EXTRACT: note_on channel=2 note=70 velocity=110 time=0
EXTRACT: note_on channel=3 note=72 velocity=110 time=0
EXTRACT: note_on channel=3 note=72 velocity=0 time=0.352941
EXTRACT: note_on channel=3 note=69 velocity=110 time=0
EXTRACT: note_on channel=2 note=62 velocity=0 time=0.352941
EXTRACT: note_on channel=2 note=65 velocity=0 time=0
EXTRACT: note_on channel=2 note=70 velocity=0 time=0
EXTRACT: note_on channel=3 note=69 velocity=0 time=0
EXTRACT: note_on channel=2 note=62 velocity=110 time=0
EXTRACT: note_on channel=2 note=65 velocity=110 time=0
EXTRACT: note_on channel=2 note=70 velocity=110 time=0
EXTRACT: note_on channel=3 note=69 velocity=110 time=0
EXTRACT: note_on channel=3 note=69 velocity=0 time=0.352941
EXTRACT: note_on channel=3 note=67 velocity=110 time=0
EXTRACT: note_on channel=2 note=62 velocity=0 time=0.352941
EXTRACT: note_on channel=2 note=65 velocity=0 time=0
EXTRACT: note_on channel=2 note=70 velocity=0 time=0
EXTRACT: note_on channel=2 note=62 velocity=110 time=0
EXTRACT: note_on channel=2 note=65 velocity=110 time=0
EXTRACT: note_on channel=2 note=70 velocity=110 time=0
EXTRACT: note_on channel=3 note=67 velocity=0 time=0.5294115
EXTRACT: note_on channel=3 note=65 velocity=110 time=0
EXTRACT: note_on channel=1 note=46 velocity=0 time=0.1764705
EXTRACT: note_on channel=4 note=62 velocity=0 time=0
EXTRACT: note_on channel=2 note=62 velocity=0 time=0
EXTRACT: note_on channel=2 note=65 velocity=0 time=0
EXTRACT: note_on channel=2 note=70 velocity=0 time=0
EXTRACT: note_on channel=3 note=65 velocity=0 time=0
EXTRACT: note_on channel=2 note=65 velocity=110 time=0
EXTRACT: note_on channel=2 note=69 velocity=110 time=0
EXTRACT: note_on channel=2 note=72 velocity=110 time=0
EXTRACT: note_on channel=1 note=41 velocity=127 time=0
EXTRACT: note_on channel=4 note=60 velocity=110 time=0
EXTRACT: note_on channel=3 note=67 velocity=110 time=0
EXTRACT: note_on channel=3 note=67 velocity=0 time=0.1764705
EXTRACT: note_on channel=3 note=65 velocity=110 time=0
EXTRACT: note_on channel=3 note=65 velocity=0 time=0.1764705
EXTRACT: note_on channel=3 note=67 velocity=110 time=0
EXTRACT: note_on channel=3 note=67 velocity=0 time=0.1764705
EXTRACT: note_on channel=3 note=65 velocity=110 time=0
EXTRACT: note_on channel=2 note=65 velocity=0 time=0.1764705
EXTRACT: note_on channel=2 note=69 velocity=0 time=0
EXTRACT: note_on channel=2 note=72 velocity=0 time=0
EXTRACT: note_on channel=3 note=65 velocity=0 time=0
EXTRACT: note_on channel=2 note=65 velocity=110 time=0
EXTRACT: note_on channel=2 note=69 velocity=110 time=0
EXTRACT: note_on channel=2 note=72 velocity=110 time=0
EXTRACT: note_on channel=3 note=69 velocity=110 time=0
EXTRACT: note_on channel=3 note=69 velocity=0 time=0.352941
EXTRACT: note_on channel=3 note=67 velocity=110 time=0
EXTRACT: note_on channel=3 note=67 velocity=0 time=0.1764705
EXTRACT: note_on channel=3 note=67 velocity=110 time=0
EXTRACT: note_on channel=2 note=72 velocity=0 time=0.1764705
EXTRACT: note_on channel=2 note=69 velocity=0 time=0
EXTRACT: note_on channel=2 note=65 velocity=0 time=0
EXTRACT: note_on channel=2 note=65 velocity=110 time=0
EXTRACT: note_on channel=2 note=69 velocity=110 time=0
EXTRACT: note_on channel=2 note=72 velocity=110 time=0
EXTRACT: note_on channel=3 note=67 velocity=0 time=0.1764705
EXTRACT: note_on channel=3 note=65 velocity=110 time=0
EXTRACT: note_on channel=3 note=65 velocity=0 time=0.1764705
EXTRACT: note_on channel=3 note=65 velocity=110 time=0
EXTRACT: note_on channel=4 note=60 velocity=0 time=0.352941
EXTRACT: note_on channel=2 note=65 velocity=0 time=0
EXTRACT: note_on channel=2 note=69 velocity=0 time=0
EXTRACT: note_on channel=2 note=72 velocity=0 time=0
EXTRACT: note_on channel=2 note=65 velocity=110 time=0
EXTRACT: note_on channel=2 note=69 velocity=110 time=0
EXTRACT: note_on channel=2 note=72 velocity=110 time=0
EXTRACT: note_on channel=4 note=57 velocity=110 time=0
EXTRACT: note_on channel=3 note=65 velocity=0 time=0.1764705
EXTRACT: note_on channel=3 note=62 velocity=110 time=0
EXTRACT: note_on channel=1 note=41 velocity=0 time=0.5294115
EXTRACT: note_on channel=2 note=65 velocity=0 time=0
EXTRACT: note_on channel=2 note=69 velocity=0 time=0
EXTRACT: note_on channel=2 note=72 velocity=0 time=0
EXTRACT: note_on channel=4 note=57 velocity=0 time=0
EXTRACT: note_on channel=3 note=62 velocity=0 time=0
EXTRACT: note_on channel=2 note=64 velocity=110 time=0
EXTRACT: note_on channel=2 note=67 velocity=110 time=0
EXTRACT: note_on channel=2 note=72 velocity=110 time=0
EXTRACT: note_on channel=1 note=40 velocity=127 time=0
EXTRACT: note_on channel=4 note=55 velocity=110 time=0
EXTRACT: note_on channel=3 note=65 velocity=110 time=0
EXTRACT: note_on channel=3 note=65 velocity=0 time=0.1764705
EXTRACT: note_on channel=3 note=62 velocity=110 time=0
EXTRACT: note_on channel=3 note=62 velocity=0 time=0.1764705
EXTRACT: note_on channel=3 note=65 velocity=110 time=0
EXTRACT: note_on channel=3 note=65 velocity=0 time=0.1764705
EXTRACT: note_on channel=3 note=62 velocity=110 time=0
EXTRACT: note_on channel=2 note=64 velocity=0 time=0.1764705
EXTRACT: note_on channel=2 note=67 velocity=0 time=0
EXTRACT: note_on channel=2 note=72 velocity=0 time=0
EXTRACT: note_on channel=3 note=62 velocity=0 time=0
EXTRACT: note_on channel=2 note=64 velocity=110 time=0
EXTRACT: note_on channel=2 note=67 velocity=110 time=0
EXTRACT: note_on channel=2 note=72 velocity=110 time=0
EXTRACT: note_on channel=3 note=67 velocity=110 time=0
EXTRACT: note_on channel=3 note=67 velocity=0 time=0.352941
EXTRACT: note_on channel=3 note=62 velocity=110 time=0
EXTRACT: note_on channel=2 note=64 velocity=0 time=0.352941
EXTRACT: note_on channel=2 note=67 velocity=0 time=0
EXTRACT: note_on channel=2 note=72 velocity=0 time=0
EXTRACT: note_on channel=3 note=62 velocity=0 time=0
EXTRACT: note_on channel=2 note=64 velocity=110 time=0
EXTRACT: note_on channel=2 note=67 velocity=110 time=0
EXTRACT: note_on channel=2 note=72 velocity=110 time=0
EXTRACT: note_on channel=3 note=62 velocity=110 time=0
EXTRACT: note_on channel=4 note=55 velocity=0 time=0.705882
EXTRACT: note_on channel=2 note=64 velocity=0 time=0
EXTRACT: note_on channel=2 note=67 velocity=0 time=0
EXTRACT: note_on channel=2 note=72 velocity=0 time=0
EXTRACT: note_on channel=3 note=62 velocity=0 time=0
EXTRACT: note_on channel=2 note=64 velocity=110 time=0
EXTRACT: note_on channel=2 note=67 velocity=110 time=0
EXTRACT: note_on channel=2 note=72 velocity=110 time=0
EXTRACT: note_on channel=4 note=62 velocity=110 time=0
EXTRACT: note_on channel=4 note=62 velocity=0 time=0.352941
EXTRACT: note_on channel=4 note=64 velocity=110 time=0
EXTRACT: note_on channel=3 note=64 velocity=110 time=0
EXTRACT: note_on channel=1 note=40 velocity=0 time=0.352941
EXTRACT: note_on channel=2 note=64 velocity=0 time=0
EXTRACT: note_on channel=2 note=67 velocity=0 time=0
EXTRACT: note_on channel=2 note=72 velocity=0 time=0
EXTRACT: note_on channel=4 note=64 velocity=0 time=0
EXTRACT: note_on channel=3 note=64 velocity=0 time=0
EXTRACT: note_on channel=2 note=62 velocity=110 time=0
EXTRACT: note_on channel=2 note=65 velocity=110 time=0
EXTRACT: note_on channel=2 note=69 velocity=110 time=0
EXTRACT: note_on channel=1 note=50 velocity=127 time=0
EXTRACT: note_on channel=4 note=65 velocity=110 time=0
EXTRACT: note_on channel=3 note=65 velocity=110 time=0
EXTRACT: note_on channel=3 note=65 velocity=0 time=0.5294115
EXTRACT: note_on channel=3 note=64 velocity=110 time=0
EXTRACT: note_on channel=2 note=62 velocity=0 time=0.1764705
EXTRACT: note_on channel=2 note=65 velocity=0 time=0
EXTRACT: note_on channel=2 note=69 velocity=0 time=0
EXTRACT: note_on channel=2 note=62 velocity=110 time=0
EXTRACT: note_on channel=2 note=65 velocity=110 time=0
EXTRACT: note_on channel=2 note=69 velocity=110 time=0
EXTRACT: note_on channel=3 note=64 velocity=0 time=0.352941
EXTRACT: note_on channel=3 note=60 velocity=110 time=0
EXTRACT: note_on channel=3 note=60 velocity=0 time=0.249999875
EXTRACT: note_on channel=2 note=62 velocity=0 time=0.102941125
EXTRACT: note_on channel=2 note=65 velocity=0 time=0
EXTRACT: note_on channel=2 note=69 velocity=0 time=0
EXTRACT: note_on channel=2 note=62 velocity=110 time=0
EXTRACT: note_on channel=2 note=65 velocity=110 time=0
EXTRACT: note_on channel=2 note=69 velocity=110 time=0
EXTRACT: note_on channel=3 note=65 velocity=110 time=0
EXTRACT: note_on channel=3 note=65 velocity=0 time=0.5294115
EXTRACT: note_on channel=3 note=64 velocity=110 time=0
EXTRACT: note_on channel=4 note=65 velocity=0 time=0.1764705
EXTRACT: note_on channel=2 note=62 velocity=0 time=0
EXTRACT: note_on channel=2 note=65 velocity=0 time=0
EXTRACT: note_on channel=2 note=69 velocity=0 time=0
EXTRACT: note_on channel=2 note=62 velocity=110 time=0
EXTRACT: note_on channel=2 note=65 velocity=110 time=0
EXTRACT: note_on channel=2 note=69 velocity=110 time=0
EXTRACT: note_on channel=4 note=64 velocity=110 time=0
EXTRACT: note_on channel=3 note=64 velocity=0 time=0.352941
EXTRACT: note_on channel=3 note=60 velocity=110 time=0
EXTRACT: note_on channel=3 note=60 velocity=0 time=0.249999875
EXTRACT: note_on channel=1 note=50 velocity=0 time=0.102941125
EXTRACT: note_on channel=2 note=62 velocity=0 time=0
EXTRACT: note_on channel=2 note=65 velocity=0 time=0
EXTRACT: note_on channel=2 note=69 velocity=0 time=0
EXTRACT: note_on channel=4 note=64 velocity=0 time=0
EXTRACT: note_on channel=2 note=62 velocity=110 time=0
EXTRACT: note_on channel=2 note=65 velocity=110 time=0
EXTRACT: note_on channel=2 note=70 velocity=110 time=0
EXTRACT: note_on channel=1 note=46 velocity=127 time=0
EXTRACT: note_on channel=4 note=62 velocity=110 time=0
EXTRACT: note_on channel=3 note=65 velocity=110 time=0
EXTRACT: note_on channel=3 note=65 velocity=0 time=0.5294115
EXTRACT: note_on channel=3 note=64 velocity=110 time=0
EXTRACT: note_on channel=2 note=62 velocity=0 time=0.1764705
EXTRACT: note_on channel=2 note=65 velocity=0 time=0
EXTRACT: note_on channel=2 note=70 velocity=0 time=0
EXTRACT: note_on channel=2 note=62 velocity=110 time=0
EXTRACT: note_on channel=2 note=65 velocity=110 time=0
EXTRACT: note_on channel=2 note=70 velocity=110 time=0
EXTRACT: note_on channel=3 note=64 velocity=0 time=0.352941
EXTRACT: note_on channel=3 note=60 velocity=110 time=0
EXTRACT: note_on channel=2 note=62 velocity=0 time=0.352941
EXTRACT: note_on channel=2 note=65 velocity=0 time=0
EXTRACT: note_on channel=2 note=70 velocity=0 time=0
EXTRACT: note_on channel=3 note=60 velocity=0 time=0
EXTRACT: note_on channel=2 note=62 velocity=110 time=0
EXTRACT: note_on channel=2 note=65 velocity=110 time=0
EXTRACT: note_on channel=2 note=70 velocity=110 time=0
EXTRACT: note_on channel=3 note=65 velocity=110 time=0
EXTRACT: note_on channel=2 note=62 velocity=0 time=0.705882
EXTRACT: note_on channel=2 note=65 velocity=0 time=0
EXTRACT: note_on channel=2 note=70 velocity=0 time=0
EXTRACT: note_on channel=2 note=62 velocity=110 time=0
EXTRACT: note_on channel=2 note=65 velocity=110 time=0
EXTRACT: note_on channel=2 note=70 velocity=110 time=0
EXTRACT: note_on channel=3 note=65 velocity=0 time=0.352941
EXTRACT: note_on channel=3 note=65 velocity=110 time=0
EXTRACT: note_on channel=1 note=46 velocity=0 time=0.352941
EXTRACT: note_on channel=4 note=62 velocity=0 time=0
EXTRACT: note_on channel=2 note=62 velocity=0 time=0
EXTRACT: note_on channel=2 note=65 velocity=0 time=0
EXTRACT: note_on channel=2 note=70 velocity=0 time=0
EXTRACT: note_on channel=3 note=65 velocity=0 time=0
EXTRACT: note_on channel=2 note=65 velocity=110 time=0
EXTRACT: note_on channel=2 note=69 velocity=110 time=0
EXTRACT: note_on channel=2 note=72 velocity=110 time=0
EXTRACT: note_on channel=1 note=41 velocity=127 time=0
EXTRACT: note_on channel=4 note=60 velocity=110 time=0
EXTRACT: note_on channel=3 note=69 velocity=110 time=0
EXTRACT: note_on channel=3 note=69 velocity=0 time=0.5294115
EXTRACT: note_on channel=3 note=67 velocity=110 time=0
EXTRACT: note_on channel=2 note=65 velocity=0 time=0.1764705
EXTRACT: note_on channel=2 note=69 velocity=0 time=0
EXTRACT: note_on channel=2 note=72 velocity=0 time=0
EXTRACT: note_on channel=2 note=65 velocity=110 time=0
EXTRACT: note_on channel=2 note=69 velocity=110 time=0
EXTRACT: note_on channel=2 note=72 velocity=110 time=0
EXTRACT: note_on channel=3 note=67 velocity=0 time=0.352941
EXTRACT: note_on channel=3 note=65 velocity=110 time=0
EXTRACT: note_on channel=3 note=65 velocity=0 time=0.249999875
EXTRACT: note_on channel=2 note=65 velocity=0 time=0.102941125
EXTRACT: note_on channel=2 note=69 velocity=0 time=0
EXTRACT: note_on channel=2 note=72 velocity=0 time=0
EXTRACT: note_on channel=2 note=65 velocity=110 time=0
EXTRACT: note_on channel=2 note=69 velocity=110 time=0
EXTRACT: note_on channel=2 note=72 velocity=110 time=0
EXTRACT: note_on channel=3 note=69 velocity=110 time=0
EXTRACT: note_on channel=3 note=69 velocity=0 time=0.5294115
EXTRACT: note_on channel=3 note=67 velocity=110 time=0
EXTRACT: note_on channel=4 note=60 velocity=0 time=0.1764705
EXTRACT: note_on channel=2 note=65 velocity=0 time=0
EXTRACT: note_on channel=2 note=69 velocity=0 time=0
EXTRACT: note_on channel=2 note=72 velocity=0 time=0
EXTRACT: note_on channel=2 note=65 velocity=110 time=0
EXTRACT: note_on channel=2 note=69 velocity=110 time=0
EXTRACT: note_on channel=2 note=72 velocity=110 time=0
EXTRACT: note_on channel=4 note=53 velocity=110 time=0
EXTRACT: note_on channel=3 note=67 velocity=0 time=0.352941
EXTRACT: note_on channel=3 note=65 velocity=110 time=0
EXTRACT: note_on channel=3 note=65 velocity=0 time=0.249999875
EXTRACT: note_on channel=1 note=41 velocity=0 time=0.102941125
EXTRACT: note_on channel=2 note=65 velocity=0 time=0
EXTRACT: note_on channel=2 note=69 velocity=0 time=0
EXTRACT: note_on channel=2 note=72 velocity=0 time=0
EXTRACT: note_on channel=4 note=53 velocity=0 time=0
EXTRACT: note_on channel=2 note=64 velocity=110 time=0
EXTRACT: note_on channel=2 note=67 velocity=110 time=0
EXTRACT: note_on channel=2 note=72 velocity=110 time=0
EXTRACT: note_on channel=1 note=40 velocity=127 time=0
EXTRACT: note_on channel=4 note=55 velocity=110 time=0
EXTRACT: note_on channel=3 note=69 velocity=110 time=0
EXTRACT: note_on channel=3 note=69 velocity=0 time=0.5294115
EXTRACT: note_on channel=3 note=67 velocity=110 time=0
EXTRACT: note_on channel=2 note=64 velocity=0 time=0.1764705
EXTRACT: note_on channel=2 note=67 velocity=0 time=0
EXTRACT: note_on channel=2 note=72 velocity=0 time=0
EXTRACT: note_on channel=2 note=64 velocity=110 time=0
EXTRACT: note_on channel=2 note=67 velocity=110 time=0
EXTRACT: note_on channel=2 note=72 velocity=110 time=0
EXTRACT: note_on channel=3 note=67 velocity=0 time=0.352941
EXTRACT: note_on channel=3 note=65 velocity=110 time=0
EXTRACT: note_on channel=3 note=65 velocity=0 time=0.249999875
EXTRACT: note_on channel=2 note=64 velocity=0 time=0.102941125
EXTRACT: note_on channel=2 note=67 velocity=0 time=0
EXTRACT: note_on channel=2 note=72 velocity=0 time=0
EXTRACT: note_on channel=2 note=64 velocity=110 time=0
EXTRACT: note_on channel=2 note=67 velocity=110 time=0
EXTRACT: note_on channel=2 note=72 velocity=110 time=0
EXTRACT: note_on channel=3 note=67 velocity=110 time=0
EXTRACT: note_on channel=4 note=55 velocity=0 time=0.705882
EXTRACT: note_on channel=2 note=64 velocity=0 time=0
EXTRACT: note_on channel=2 note=67 velocity=0 time=0
EXTRACT: note_on channel=2 note=72 velocity=0 time=0
EXTRACT: note_on channel=3 note=67 velocity=0 time=0
EXTRACT: note_on channel=2 note=64 velocity=110 time=0
EXTRACT: note_on channel=2 note=67 velocity=110 time=0
EXTRACT: note_on channel=2 note=72 velocity=110 time=0
EXTRACT: note_on channel=4 note=55 velocity=110 time=0
EXTRACT: note_on channel=3 note=69 velocity=110 time=0
EXTRACT: note_on channel=4 note=55 velocity=0 time=0.352941
EXTRACT: note_on channel=3 note=69 velocity=0 time=0
EXTRACT: note_on channel=4 note=57 velocity=110 time=0
EXTRACT: note_on channel=3 note=65 velocity=110 time=0
EXTRACT: note_on channel=3 note=65 velocity=0 time=0.1764705
EXTRACT: note_on channel=3 note=67 velocity=110 time=0
EXTRACT: note_on channel=1 note=40 velocity=0 time=0.1764705
EXTRACT: note_on channel=2 note=64 velocity=0 time=0
EXTRACT: note_on channel=2 note=67 velocity=0 time=0
EXTRACT: note_on channel=2 note=72 velocity=0 time=0
EXTRACT: note_on channel=4 note=57 velocity=0 time=0
EXTRACT: note_on channel=3 note=67 velocity=0 time=0
EXTRACT: note_on channel=2 note=67 velocity=110 time=0
EXTRACT: note_on channel=2 note=70 velocity=110 time=0
EXTRACT: note_on channel=2 note=74 velocity=110 time=0
EXTRACT: note_on channel=1 note=43 velocity=127 time=0
EXTRACT: note_on channel=4 note=58 velocity=110 time=0
EXTRACT: note_on channel=3 note=65 velocity=110 time=0
EXTRACT: note_on channel=2 note=67 velocity=0 time=0.705882
EXTRACT: note_on channel=2 note=70 velocity=0 time=0
EXTRACT: note_on channel=2 note=74 velocity=0 time=0
EXTRACT: note_on channel=3 note=65 velocity=0 time=0
EXTRACT: note_on channel=2 note=67 velocity=110 time=0
EXTRACT: note_on channel=2 note=70 velocity=110 time=0
EXTRACT: note_on channel=2 note=74 velocity=110 time=0
EXTRACT: note_on channel=3 note=70 velocity=110 time=0
EXTRACT: note_on channel=3 note=70 velocity=0 time=0.1764705
EXTRACT: note_on channel=3 note=70 velocity=110 time=0
EXTRACT: note_on channel=3 note=70 velocity=0 time=0.1764705
EXTRACT: note_on channel=3 note=70 velocity=110 time=0
EXTRACT: note_on channel=3 note=70 velocity=0 time=0.1764705
EXTRACT: note_on channel=3 note=70 velocity=110 time=0
EXTRACT: note_on channel=2 note=67 velocity=0 time=0.1764705
EXTRACT: note_on channel=2 note=70 velocity=0 time=0
EXTRACT: note_on channel=2 note=74 velocity=0 time=0
EXTRACT: note_on channel=3 note=70 velocity=0 time=0
EXTRACT: note_on channel=2 note=67 velocity=110 time=0
EXTRACT: note_on channel=2 note=70 velocity=110 time=0
EXTRACT: note_on channel=2 note=74 velocity=110 time=0
EXTRACT: note_on channel=3 note=70 velocity=110 time=0
EXTRACT: note_on channel=3 note=70 velocity=0 time=0.352941
EXTRACT: note_on channel=3 note=69 velocity=110 time=0
EXTRACT: note_on channel=1 note=43 velocity=0 time=0.1764705
EXTRACT: note_on channel=3 note=69 velocity=0 time=0
EXTRACT: note_on channel=1 note=43 velocity=127 time=0
EXTRACT: note_on channel=3 note=67 velocity=110 time=0
EXTRACT: note_on channel=4 note=58 velocity=0 time=0.1764705
EXTRACT: note_on channel=2 note=67 velocity=0 time=0
EXTRACT: note_on channel=2 note=70 velocity=0 time=0
EXTRACT: note_on channel=2 note=74 velocity=0 time=0
EXTRACT: note_on channel=1 note=43 velocity=0 time=0
EXTRACT: note_on channel=3 note=67 velocity=0 time=0
EXTRACT: note_on channel=2 note=67 velocity=110 time=0
EXTRACT: note_on channel=2 note=70 velocity=110 time=0
EXTRACT: note_on channel=2 note=74 velocity=110 time=0
EXTRACT: note_on channel=1 note=43 velocity=127 time=0
EXTRACT: note_on channel=4 note=58 velocity=110 time=0
EXTRACT: note_on channel=3 note=65 velocity=110 time=0
EXTRACT: note_on channel=1 note=43 velocity=0 time=0.1764705
EXTRACT: note_on channel=1 note=43 velocity=127 time=0
EXTRACT: note_on channel=1 note=43 velocity=0 time=0.1764705
EXTRACT: note_on channel=4 note=58 velocity=0 time=0
EXTRACT: note_on channel=1 note=45 velocity=127 time=0
EXTRACT: note_on channel=4 note=57 velocity=110 time=0
EXTRACT: note_on channel=2 note=67 velocity=0 time=0.352941
EXTRACT: note_on channel=2 note=70 velocity=0 time=0
EXTRACT: note_on channel=2 note=74 velocity=0 time=0
EXTRACT: note_on channel=1 note=45 velocity=0 time=0
EXTRACT: note_on channel=4 note=57 velocity=0 time=0
EXTRACT: note_on channel=3 note=65 velocity=0 time=0
EXTRACT: note_on channel=2 note=65 velocity=110 time=0
EXTRACT: note_on channel=2 note=70 velocity=110 time=0
EXTRACT: note_on channel=2 note=74 velocity=110 time=0
EXTRACT: note_on channel=1 note=46 velocity=127 time=0
EXTRACT: note_on channel=4 note=53 velocity=110 time=0
EXTRACT: note_on channel=3 note=70 velocity=110 time=0
EXTRACT: note_on channel=3 note=70 velocity=0 time=0.1764705
EXTRACT: note_on channel=3 note=70 velocity=110 time=0
EXTRACT: note_on channel=3 note=70 velocity=0 time=0.1764705
EXTRACT: note_on channel=3 note=70 velocity=110 time=0
EXTRACT: note_on channel=3 note=70 velocity=0 time=0.1764705
EXTRACT: note_on channel=3 note=70 velocity=110 time=0
EXTRACT: note_on channel=2 note=65 velocity=0 time=0.1764705
EXTRACT: note_on channel=2 note=70 velocity=0 time=0
EXTRACT: note_on channel=2 note=74 velocity=0 time=0
EXTRACT: note_on channel=3 note=70 velocity=0 time=0
EXTRACT: note_on channel=2 note=65 velocity=110 time=0
EXTRACT: note_on channel=2 note=70 velocity=110 time=0
EXTRACT: note_on channel=2 note=74 velocity=110 time=0
EXTRACT: note_on channel=3 note=70 velocity=110 time=0
EXTRACT: note_on channel=3 note=70 velocity=0 time=0.352941
EXTRACT: note_on channel=3 note=70 velocity=110 time=0
EXTRACT: note_on channel=3 note=70 velocity=0 time=0.1764705
EXTRACT: note_on channel=3 note=70 velocity=110 time=0
EXTRACT: note_on channel=2 note=65 velocity=0 time=0.1764705
EXTRACT: note_on channel=2 note=70 velocity=0 time=0
EXTRACT: note_on channel=2 note=74 velocity=0 time=0
EXTRACT: note_on channel=2 note=65 velocity=110 time=0
EXTRACT: note_on channel=2 note=70 velocity=110 time=0
EXTRACT: note_on channel=2 note=74 velocity=110 time=0
EXTRACT: note_on channel=3 note=70 velocity=0 time=0.1764705
EXTRACT: note_on channel=3 note=70 velocity=110 time=0
EXTRACT: note_on channel=3 note=70 velocity=0 time=0.352941
EXTRACT: note_on channel=3 note=70 velocity=110 time=0
EXTRACT: note_on channel=4 note=53 velocity=0 time=0.1764705
EXTRACT: note_on channel=2 note=65 velocity=0 time=0
EXTRACT: note_on channel=2 note=70 velocity=0 time=0
EXTRACT: note_on channel=2 note=74 velocity=0 time=0
EXTRACT: note_on channel=2 note=65 velocity=110 time=0
EXTRACT: note_on channel=2 note=70 velocity=110 time=0
EXTRACT: note_on channel=2 note=74 velocity=110 time=0
EXTRACT: note_on channel=4 note=55 velocity=110 time=0
EXTRACT: note_on channel=3 note=70 velocity=0 time=0.1764705
EXTRACT: note_on channel=3 note=72 velocity=110 time=0
EXTRACT: note_on channel=3 note=72 velocity=0 time=0.352941
EXTRACT: note_on channel=3 note=69 velocity=110 time=0
EXTRACT: note_on channel=1 note=46 velocity=0 time=0.1764705
EXTRACT: note_on channel=2 note=65 velocity=0 time=0
EXTRACT: note_on channel=2 note=70 velocity=0 time=0
EXTRACT: note_on channel=2 note=74 velocity=0 time=0
EXTRACT: note_on channel=4 note=55 velocity=0 time=0
EXTRACT: note_on channel=2 note=62 velocity=110 time=0
EXTRACT: note_on channel=2 note=65 velocity=110 time=0
EXTRACT: note_on channel=2 note=69 velocity=110 time=0
EXTRACT: note_on channel=1 note=50 velocity=127 time=0
EXTRACT: note_on channel=4 note=57 velocity=110 time=0
EXTRACT: note_on channel=3 note=69 velocity=0 time=1.058823
EXTRACT: note_on channel=3 note=69 velocity=110 time=0
EXTRACT: note_on channel=1 note=50 velocity=0 time=0.1764705
EXTRACT: note_on channel=3 note=69 velocity=0 time=0
EXTRACT: note_on channel=1 note=36 velocity=127 time=0
EXTRACT: note_on channel=3 note=67 velocity=110 time=0
EXTRACT: note_on channel=2 note=62 velocity=0 time=0.1764705
EXTRACT: note_on channel=2 note=65 velocity=0 time=0
EXTRACT: note_on channel=2 note=69 velocity=0 time=0
EXTRACT: note_on channel=1 note=36 velocity=0 time=0
EXTRACT: note_on channel=4 note=57 velocity=0 time=0
EXTRACT: note_on channel=2 note=60 velocity=110 time=0
EXTRACT: note_on channel=2 note=64 velocity=110 time=0
EXTRACT: note_on channel=2 note=67 velocity=110 time=0
EXTRACT: note_on channel=1 note=48 velocity=127 time=0
EXTRACT: note_on channel=4 note=55 velocity=110 time=0
EXTRACT: note_on channel=3 note=67 velocity=0 time=1.2352935
EXTRACT: note_on channel=1 note=48 velocity=0 time=0
EXTRACT: note_on channel=1 note=34 velocity=127 time=0
EXTRACT: note_on channel=3 note=67 velocity=110 time=0
EXTRACT: note_on channel=2 note=60 velocity=0 time=0.1764705
EXTRACT: note_on channel=2 note=64 velocity=0 time=0
EXTRACT: note_on channel=2 note=67 velocity=0 time=0
EXTRACT: note_on channel=1 note=34 velocity=0 time=0
EXTRACT: note_on channel=4 note=55 velocity=0 time=0
EXTRACT: note_on channel=3 note=67 velocity=0 time=0
EXTRACT: note_on channel=2 note=58 velocity=110 time=0
EXTRACT: note_on channel=2 note=62 velocity=110 time=0
EXTRACT: note_on channel=2 note=65 velocity=110 time=0
EXTRACT: note_on channel=1 note=46 velocity=127 time=0
EXTRACT: note_on channel=4 note=53 velocity=110 time=0
EXTRACT: note_on channel=3 note=65 velocity=110 time=0
EXTRACT: note_on channel=3 note=65 velocity=0 time=1.411764
EXTRACT: note_on channel=3 note=64 velocity=110 time=0
EXTRACT: note_on channel=3 note=64 velocity=0 time=0.1764705
EXTRACT: note_on channel=3 note=65 velocity=110 time=0
EXTRACT: note_on channel=3 note=65 velocity=0 time=0.352941
EXTRACT: note_on channel=3 note=64 velocity=110 time=0
EXTRACT: note_on channel=2 note=58 velocity=0 time=0.1764705
EXTRACT: note_on channel=2 note=62 velocity=0 time=0
EXTRACT: note_on channel=2 note=65 velocity=0 time=0
EXTRACT: note_on channel=4 note=53 velocity=0 time=0
EXTRACT: note_on channel=3 note=64 velocity=0 time=0
EXTRACT: note_on channel=3 note=62 velocity=110 time=0
EXTRACT: note_on channel=3 note=62 velocity=0 time=0.352941
EXTRACT: note_on channel=3 note=64 velocity=110 time=0
EXTRACT: note_on channel=1 note=46 velocity=0 time=0.352941
EXTRACT: note_on channel=3 note=64 velocity=0 time=0
EXTRACT: note_on channel=2 note=65 velocity=110 time=0
EXTRACT: note_on channel=2 note=69 velocity=110 time=0
EXTRACT: note_on channel=2 note=74 velocity=110 time=0
EXTRACT: note_on channel=1 note=62 velocity=45 time=0
EXTRACT: note_on channel=4 note=65 velocity=75 time=0
EXTRACT: note_on channel=3 note=67 velocity=110 time=0
EXTRACT: note_on channel=3 note=67 velocity=0 time=0.352941
EXTRACT: note_on channel=8 note=77 velocity=75 time=0
EXTRACT: note_on channel=3 note=65 velocity=110 time=0
EXTRACT: note_on channel=8 note=77 velocity=0 time=0.1764705
EXTRACT: note_on channel=8 note=76 velocity=75 time=0
EXTRACT: note_on channel=2 note=65 velocity=0 time=0.1764705
EXTRACT: note_on channel=2 note=69 velocity=0 time=0
EXTRACT: note_on channel=2 note=74 velocity=0 time=0
EXTRACT: note_on channel=8 note=76 velocity=0 time=0
EXTRACT: note_on channel=2 note=65 velocity=110 time=0
EXTRACT: note_on channel=2 note=69 velocity=110 time=0
EXTRACT: note_on channel=2 note=74 velocity=110 time=0
EXTRACT: note_on channel=8 note=74 velocity=75 time=0
EXTRACT: note_on channel=8 note=74 velocity=0 time=0.1764705
EXTRACT: note_on channel=8 note=72 velocity=75 time=0
EXTRACT: note_on channel=8 note=72 velocity=0 time=0.1764705
EXTRACT: note_on channel=3 note=65 velocity=0 time=0
EXTRACT: note_on channel=8 note=77 velocity=75 time=0
EXTRACT: note_on channel=8 note=77 velocity=0 time=0.1764705
EXTRACT: note_on channel=8 note=76 velocity=75 time=0
EXTRACT: note_on channel=2 note=65 velocity=0 time=0.1764705
EXTRACT: note_on channel=2 note=69 velocity=0 time=0
EXTRACT: note_on channel=2 note=74 velocity=0 time=0
EXTRACT: note_on channel=8 note=76 velocity=0 time=0
EXTRACT: note_on channel=2 note=65 velocity=110 time=0
EXTRACT: note_on channel=2 note=69 velocity=110 time=0
EXTRACT: note_on channel=2 note=74 velocity=110 time=0
EXTRACT: note_on channel=8 note=74 velocity=75 time=0
EXTRACT: note_on channel=8 note=74 velocity=0 time=0.1764705
EXTRACT: note_on channel=8 note=72 velocity=75 time=0
EXTRACT: note_on channel=8 note=72 velocity=0 time=0.1764705
EXTRACT: note_on channel=8 note=77 velocity=60 time=0
EXTRACT: note_on channel=1 note=62 velocity=0 time=0.1764705
EXTRACT: note_on channel=8 note=77 velocity=0 time=0
EXTRACT: control_change channel=1 control=64 value=127 time=0
EXTRACT: note_on channel=1 note=74 velocity=45 time=0
EXTRACT: note_on channel=8 note=76 velocity=60 time=0
EXTRACT: note_on channel=4 note=65 velocity=0 time=0.1764705
EXTRACT: note_on channel=2 note=65 velocity=0 time=0
EXTRACT: note_on channel=2 note=69 velocity=0 time=0
EXTRACT: note_on channel=2 note=74 velocity=0 time=0
EXTRACT: note_on channel=1 note=74 velocity=0 time=0
EXTRACT: note_on channel=8 note=76 velocity=0 time=0
EXTRACT: control_change channel=2 control=64 value=127 time=0
EXTRACT: note_on channel=2 note=77 velocity=127 time=0
EXTRACT: note_on channel=4 note=64 velocity=75 time=0
EXTRACT: note_on channel=8 note=74 velocity=60 time=0
EXTRACT: note_on channel=2 note=77 velocity=0 time=0.1764705
EXTRACT: note_on channel=8 note=74 velocity=0 time=0
EXTRACT: note_on channel=2 note=76 velocity=110 time=0
EXTRACT: note_on channel=8 note=72 velocity=60 time=0
EXTRACT: note_on channel=2 note=76 velocity=0 time=0.1764705
EXTRACT: note_on channel=8 note=72 velocity=0 time=0
EXTRACT: note_on channel=2 note=74 velocity=110 time=0
EXTRACT: note_on channel=8 note=70 velocity=60 time=0
EXTRACT: note_on channel=8 note=70 velocity=0 time=0.1764705
EXTRACT: note_on channel=1 note=70 velocity=45 time=0
EXTRACT: note_on channel=8 note=72 velocity=60 time=0
EXTRACT: note_on channel=2 note=74 velocity=0 time=0.1764705
EXTRACT: note_on channel=1 note=70 velocity=0 time=0
EXTRACT: note_on channel=4 note=64 velocity=0 time=0
EXTRACT: note_on channel=8 note=72 velocity=0 time=0
EXTRACT: control_change channel=2 control=64 value=0 time=0
EXTRACT: note_on channel=2 note=65 velocity=110 time=0
EXTRACT: note_on channel=2 note=70 velocity=110 time=0
EXTRACT: note_on channel=2 note=74 velocity=110 time=0
EXTRACT: note_on channel=1 note=58 velocity=45 time=0
EXTRACT: note_on channel=4 note=62 velocity=75 time=0
EXTRACT: note_on channel=8 note=77 velocity=75 time=0.352941
EXTRACT: note_on channel=8 note=77 velocity=0 time=0.1764705
EXTRACT: note_on channel=8 note=76 velocity=75 time=0
EXTRACT: note_on channel=2 note=65 velocity=0 time=0.1764705
EXTRACT: note_on channel=2 note=70 velocity=0 time=0
EXTRACT: note_on channel=2 note=74 velocity=0 time=0
EXTRACT: note_on channel=8 note=76 velocity=0 time=0
EXTRACT: note_on channel=2 note=65 velocity=110 time=0
EXTRACT: note_on channel=2 note=70 velocity=110 time=0
EXTRACT: note_on channel=2 note=74 velocity=110 time=0
EXTRACT: note_on channel=8 note=74 velocity=75 time=0
EXTRACT: note_on channel=8 note=74 velocity=0 time=0.1764705
EXTRACT: note_on channel=8 note=72 velocity=75 time=0
EXTRACT: note_on channel=8 note=72 velocity=0 time=0.1764705
EXTRACT: note_on channel=8 note=77 velocity=75 time=0
EXTRACT: note_on channel=8 note=77 velocity=0 time=0.1764705
EXTRACT: note_on channel=8 note=76 velocity=75 time=0
EXTRACT: note_on channel=2 note=65 velocity=0 time=0.1764705
EXTRACT: note_on channel=2 note=70 velocity=0 time=0
EXTRACT: note_on channel=2 note=74 velocity=0 time=0
EXTRACT: note_on channel=8 note=76 velocity=0 time=0
EXTRACT: note_on channel=2 note=65 velocity=110 time=0
EXTRACT: note_on channel=2 note=70 velocity=110 time=0
EXTRACT: note_on channel=2 note=74 velocity=110 time=0
EXTRACT: note_on channel=8 note=74 velocity=75 time=0
EXTRACT: note_on channel=8 note=74 velocity=0 time=0.1764705
EXTRACT: note_on channel=8 note=72 velocity=75 time=0
EXTRACT: note_on channel=8 note=72 velocity=0 time=0.1764705
EXTRACT: note_on channel=8 note=77 velocity=75 time=0
EXTRACT: note_on channel=1 note=58 velocity=0 time=0.1764705
EXTRACT: note_on channel=8 note=77 velocity=0 time=0
EXTRACT: note_on channel=1 note=70 velocity=45 time=0
EXTRACT: note_on channel=8 note=76 velocity=75 time=0
EXTRACT: note_on channel=2 note=65 velocity=0 time=0.1764705
EXTRACT: note_on channel=2 note=70 velocity=0 time=0
EXTRACT: note_on channel=2 note=74 velocity=0 time=0
EXTRACT: note_on channel=1 note=70 velocity=0 time=0
EXTRACT: note_on channel=8 note=76 velocity=0 time=0
EXTRACT: control_change channel=2 control=64 value=127 time=0
EXTRACT: note_on channel=2 note=74 velocity=110 time=0
EXTRACT: note_on channel=8 note=74 velocity=75 time=0
EXTRACT: note_on channel=2 note=74 velocity=0 time=0.1764705
EXTRACT: note_on channel=8 note=74 velocity=0 time=0
EXTRACT: note_on channel=2 note=72 velocity=110 time=0
EXTRACT: note_on channel=8 note=72 velocity=75 time=0
EXTRACT: note_on channel=2 note=72 velocity=0 time=0.1764705
EXTRACT: note_on channel=8 note=72 velocity=0 time=0
EXTRACT: note_on channel=2 note=70 velocity=110 time=0
EXTRACT: note_on channel=8 note=70 velocity=75 time=0
EXTRACT: note_on channel=8 note=70 velocity=0 time=0.1764705
EXTRACT: note_on channel=1 note=77 velocity=45 time=0
EXTRACT: note_on channel=8 note=72 velocity=75 time=0
EXTRACT: note_on channel=4 note=62 velocity=0 time=0.1764705
EXTRACT: note_on channel=2 note=70 velocity=0 time=0
EXTRACT: note_on channel=1 note=77 velocity=0 time=0
EXTRACT: note_on channel=8 note=72 velocity=0 time=0
EXTRACT: control_change channel=2 control=64 value=0 time=0
EXTRACT: control_change channel=1 control=64 value=0 time=0
EXTRACT: note_on channel=2 note=65 velocity=110 time=0
EXTRACT: note_on channel=2 note=69 velocity=110 time=0
EXTRACT: note_on channel=2 note=72 velocity=110 time=0
EXTRACT: note_on channel=1 note=53 velocity=45 time=0
EXTRACT: note_on channel=4 note=60 velocity=75 time=0
EXTRACT: note_on channel=8 note=77 velocity=75 time=0.352941
EXTRACT: note_on channel=8 note=77 velocity=0 time=0.1764705
EXTRACT: note_on channel=8 note=76 velocity=75 time=0
EXTRACT: note_on channel=2 note=65 velocity=0 time=0.1764705
EXTRACT: note_on channel=2 note=69 velocity=0 time=0
EXTRACT: note_on channel=2 note=72 velocity=0 time=0
EXTRACT: note_on channel=8 note=76 velocity=0 time=0
EXTRACT: note_on channel=2 note=65 velocity=110 time=0
EXTRACT: note_on channel=2 note=69 velocity=110 time=0
EXTRACT: note_on channel=2 note=72 velocity=110 time=0
EXTRACT: note_on channel=8 note=74 velocity=75 time=0
EXTRACT: note_on channel=8 note=74 velocity=0 time=0.1764705
EXTRACT: note_on channel=8 note=72 velocity=75 time=0
EXTRACT: note_on channel=8 note=72 velocity=0 time=0.1764705
EXTRACT: note_on channel=8 note=77 velocity=75 time=0
EXTRACT: note_on channel=8 note=77 velocity=0 time=0.1764705
EXTRACT: note_on channel=8 note=76 velocity=75 time=0
EXTRACT: note_on channel=2 note=65 velocity=0 time=0.1764705
EXTRACT: note_on channel=2 note=69 velocity=0 time=0
EXTRACT: note_on channel=2 note=72 velocity=0 time=0
EXTRACT: note_on channel=8 note=76 velocity=0 time=0
EXTRACT: note_on channel=2 note=65 velocity=110 time=0
EXTRACT: note_on channel=2 note=69 velocity=110 time=0
EXTRACT: note_on channel=2 note=72 velocity=110 time=0
EXTRACT: note_on channel=8 note=74 velocity=75 time=0
EXTRACT: note_on channel=8 note=74 velocity=0 time=0.1764705
EXTRACT: note_on channel=8 note=72 velocity=75 time=0
EXTRACT: note_on channel=8 note=72 velocity=0 time=0.1764705
EXTRACT: note_on channel=8 note=77 velocity=60 time=0
EXTRACT: note_on channel=8 note=77 velocity=0 time=0.1764705
EXTRACT: note_on channel=8 note=76 velocity=60 time=0
EXTRACT: note_on channel=1 note=53 velocity=0 time=0.1764705
EXTRACT: note_on channel=4 note=60 velocity=0 time=0
EXTRACT: note_on channel=2 note=65 velocity=0 time=0
EXTRACT: note_on channel=2 note=69 velocity=0 time=0
EXTRACT: note_on channel=2 note=72 velocity=0 time=0
EXTRACT: note_on channel=8 note=76 velocity=0 time=0
EXTRACT: note_on channel=2 note=65 velocity=110 time=0
EXTRACT: note_on channel=2 note=69 velocity=110 time=0
EXTRACT: note_on channel=2 note=72 velocity=110 time=0
EXTRACT: note_on channel=1 note=53 velocity=45 time=0
EXTRACT: note_on channel=4 note=53 velocity=75 time=0
EXTRACT: note_on channel=8 note=74 velocity=60 time=0
EXTRACT: note_on channel=8 note=74 velocity=0 time=0.1764705
EXTRACT: note_on channel=8 note=72 velocity=60 time=0
EXTRACT: note_on channel=2 note=65 velocity=0 time=0.1764705
EXTRACT: note_on channel=2 note=69 velocity=0 time=0
EXTRACT: note_on channel=2 note=72 velocity=0 time=0
EXTRACT: note_on channel=8 note=72 velocity=0 time=0
EXTRACT: note_on channel=2 note=67 velocity=110 time=0
EXTRACT: note_on channel=8 note=77 velocity=60 time=0
EXTRACT: note_on channel=8 note=77 velocity=0 time=0.1764705
EXTRACT: note_on channel=8 note=76 velocity=60 time=0
EXTRACT: note_on channel=2 note=67 velocity=0 time=0.1764705
EXTRACT: note_on channel=1 note=53 velocity=0 time=0
EXTRACT: note_on channel=4 note=53 velocity=0 time=0
EXTRACT: note_on channel=8 note=76 velocity=0 time=0
EXTRACT: note_on channel=2 note=64 velocity=110 time=0
EXTRACT: note_on channel=2 note=67 velocity=110 time=0
EXTRACT: note_on channel=2 note=72 velocity=110 time=0
EXTRACT: note_on channel=1 note=52 velocity=45 time=0
EXTRACT: note_on channel=4 note=55 velocity=75 time=0
EXTRACT: note_on channel=8 note=74 velocity=45 time=0
EXTRACT: note_on channel=8 note=74 velocity=0 time=0.1764705
EXTRACT: note_on channel=8 note=72 velocity=45 time=0
EXTRACT: note_on channel=8 note=72 velocity=0 time=0.1764705
EXTRACT: note_on channel=8 note=77 velocity=45 time=0
EXTRACT: note_on channel=8 note=77 velocity=0 time=0.1764705
EXTRACT: note_on channel=8 note=76 velocity=45 time=0
EXTRACT: note_on channel=2 note=64 velocity=0 time=0.1764705
EXTRACT: note_on channel=2 note=67 velocity=0 time=0
EXTRACT: note_on channel=2 note=72 velocity=0 time=0
EXTRACT: note_on channel=8 note=76 velocity=0 time=0
EXTRACT: note_on channel=2 note=64 velocity=110 time=0
EXTRACT: note_on channel=2 note=67 velocity=110 time=0
EXTRACT: note_on channel=2 note=72 velocity=110 time=0
EXTRACT: note_on channel=8 note=74 velocity=45 time=0
EXTRACT: note_on channel=8 note=74 velocity=0 time=0.1764705
EXTRACT: note_on channel=8 note=72 velocity=45 time=0
EXTRACT: note_on channel=8 note=72 velocity=0 time=0.1764705
EXTRACT: note_on channel=8 note=77 velocity=45 time=0
EXTRACT: note_on channel=8 note=77 velocity=0 time=0.1764705
EXTRACT: note_on channel=8 note=76 velocity=45 time=0
EXTRACT: note_on channel=9 note=40 velocity=110 time=0
EXTRACT: note_on channel=2 note=64 velocity=0 time=0.1764705
EXTRACT: note_on channel=2 note=67 velocity=0 time=0
EXTRACT: note_on channel=2 note=72 velocity=0 time=0
EXTRACT: note_on channel=8 note=76 velocity=0 time=0
EXTRACT: note_on channel=9 note=40 velocity=0 time=0
EXTRACT: note_on channel=2 note=64 velocity=110 time=0
EXTRACT: note_on channel=2 note=67 velocity=110 time=0
EXTRACT: note_on channel=2 note=72 velocity=110 time=0
EXTRACT: note_on channel=8 note=74 velocity=45 time=0
EXTRACT: note_on channel=9 note=40 velocity=110 time=0
EXTRACT: note_on channel=8 note=74 velocity=0 time=0.1764705
EXTRACT: note_on channel=9 note=40 velocity=0 time=0
EXTRACT: note_on channel=8 note=72 velocity=45 time=0
EXTRACT: note_on channel=9 note=40 velocity=110 time=0
EXTRACT: note_on channel=8 note=72 velocity=0 time=0.1764705
EXTRACT: note_on channel=9 note=40 velocity=0 time=0
EXTRACT: note_on channel=8 note=77 velocity=30 time=0
EXTRACT: note_on channel=9 note=40 velocity=110 time=0
EXTRACT: note_on channel=8 note=77 velocity=0 time=0.1764705
EXTRACT: note_on channel=8 note=76 velocity=30 time=0
EXTRACT: note_on channel=2 note=64 velocity=0 time=0.1764705
EXTRACT: note_on channel=2 note=67 velocity=0 time=0
EXTRACT: note_on channel=2 note=72 velocity=0 time=0
EXTRACT: note_on channel=8 note=76 velocity=0 time=0
EXTRACT: note_on channel=9 note=40 velocity=0 time=0
EXTRACT: note_on channel=2 note=64 velocity=110 time=0
EXTRACT: note_on channel=2 note=67 velocity=110 time=0
EXTRACT: note_on channel=2 note=72 velocity=110 time=0
EXTRACT: note_on channel=8 note=74 velocity=30 time=0
EXTRACT: note_on channel=9 note=40 velocity=110 time=0
EXTRACT: note_on channel=8 note=74 velocity=0 time=0.1764705
EXTRACT: note_on channel=8 note=72 velocity=30 time=0
EXTRACT: note_on channel=8 note=72 velocity=0 time=0.1764705
EXTRACT: note_on channel=9 note=40 velocity=0 time=0
EXTRACT: note_on channel=8 note=74 velocity=30 time=0
EXTRACT: note_on channel=9 note=40 velocity=110 time=0
EXTRACT: note_on channel=9 note=40 velocity=0 time=0.1764705
EXTRACT: note_on channel=9 note=40 velocity=110 time=0
EXTRACT: note_on channel=1 note=52 velocity=0 time=0.1764705
EXTRACT: note_on channel=4 note=55 velocity=0 time=0
EXTRACT: note_on channel=2 note=64 velocity=0 time=0
EXTRACT: note_on channel=2 note=67 velocity=0 time=0
EXTRACT: note_on channel=2 note=72 velocity=0 time=0
EXTRACT: note_on channel=8 note=74 velocity=0 time=0
EXTRACT: note_on channel=9 note=40 velocity=0 time=0
EXTRACT: control_change channel=9 control=64 value=127 time=0
EXTRACT: control_change channel=6 control=64 value=127 time=0
EXTRACT: note_on channel=2 note=65 velocity=92 time=0
EXTRACT: note_on channel=2 note=69 velocity=92 time=0
EXTRACT: note_on channel=2 note=74 velocity=92 time=0
EXTRACT: note_on channel=1 note=50 velocity=105 time=0
EXTRACT: note_on channel=9 note=36 velocity=127 time=0
EXTRACT: note_on channel=9 note=49 velocity=127 time=0
EXTRACT: note_on channel=9 note=57 velocity=127 time=0
EXTRACT: note_on channel=5 note=50 velocity=60 time=0
EXTRACT: note_on channel=6 note=50 velocity=75 time=0
EXTRACT: note_on channel=6 note=57 velocity=75 time=0
EXTRACT: note_on channel=6 note=62 velocity=75 time=0
EXTRACT: note_on channel=9 note=46 velocity=127 time=0.352941
EXTRACT: note_on channel=3 note=57 velocity=110 time=0.1764705
EXTRACT: note_on channel=2 note=65 velocity=0 time=0.1764705
EXTRACT: note_on channel=2 note=69 velocity=0 time=0
EXTRACT: note_on channel=2 note=74 velocity=0 time=0
EXTRACT: note_on channel=9 note=36 velocity=0 time=0
EXTRACT: note_on channel=9 note=49 velocity=0 time=0
EXTRACT: note_on channel=9 note=57 velocity=0 time=0
EXTRACT: note_on channel=9 note=46 velocity=0 time=0
EXTRACT: note_on channel=3 note=57 velocity=0 time=0
EXTRACT: note_on channel=2 note=65 velocity=92 time=0
EXTRACT: note_on channel=2 note=69 velocity=92 time=0
EXTRACT: note_on channel=2 note=74 velocity=92 time=0
EXTRACT: note_on channel=9 note=40 velocity=127 time=0
EXTRACT: note_on channel=9 note=46 velocity=127 time=0
EXTRACT: note_on channel=3 note=65 velocity=110 time=0
EXTRACT: note_on channel=9 note=46 velocity=0 time=0.1764705
EXTRACT: note_on channel=3 note=65 velocity=0 time=0
EXTRACT: note_on channel=3 note=65 velocity=110 time=0
EXTRACT: note_on channel=9 note=40 velocity=0 time=0.1764705
EXTRACT: note_on channel=3 note=65 velocity=0 time=0
EXTRACT: note_on channel=9 note=36 velocity=127 time=0
EXTRACT: note_on channel=9 note=42 velocity=127 time=0
EXTRACT: note_on channel=3 note=65 velocity=110 time=0
EXTRACT: note_on channel=9 note=42 velocity=0 time=0.1764705
EXTRACT: note_on channel=3 note=65 velocity=0 time=0
EXTRACT: note_on channel=3 note=65 velocity=110 time=0
EXTRACT: note_on channel=2 note=65 velocity=0 time=0.1764705
EXTRACT: note_on channel=2 note=69 velocity=0 time=0
EXTRACT: note_on channel=2 note=74 velocity=0 time=0
EXTRACT: note_on channel=3 note=65 velocity=0 time=0
EXTRACT: note_on channel=2 note=65 velocity=92 time=0
EXTRACT: note_on channel=2 note=69 velocity=92 time=0
EXTRACT: note_on channel=2 note=74 velocity=92 time=0
EXTRACT: note_on channel=3 note=65 velocity=110 time=0
EXTRACT: note_on channel=9 note=42 velocity=127 time=0.1764705
EXTRACT: note_on channel=9 note=36 velocity=0 time=0.1764705
EXTRACT: note_on channel=9 note=42 velocity=0 time=0
EXTRACT: note_on channel=3 note=65 velocity=0 time=0
EXTRACT: note_on channel=9 note=36 velocity=127 time=0
EXTRACT: note_on channel=9 note=42 velocity=127 time=0
EXTRACT: note_on channel=3 note=64 velocity=110 time=0
EXTRACT: note_on channel=1 note=50 velocity=0 time=0.1764705
EXTRACT: note_on channel=3 note=64 velocity=0 time=0
EXTRACT: control_change channel=1 control=64 value=127 time=0
EXTRACT: note_on channel=1 note=62 velocity=75 time=0
EXTRACT: note_on channel=3 note=64 velocity=110 time=0
EXTRACT: note_on channel=2 note=65 velocity=0 time=0.1764705
EXTRACT: note_on channel=2 note=69 velocity=0 time=0
EXTRACT: note_on channel=2 note=74 velocity=0 time=0
EXTRACT: note_on channel=1 note=62 velocity=0 time=0
EXTRACT: note_on channel=9 note=36 velocity=0 time=0
EXTRACT: note_on channel=9 note=42 velocity=0 time=0
EXTRACT: note_on channel=2 note=65 velocity=92 time=0
EXTRACT: note_on channel=2 note=69 velocity=92 time=0
EXTRACT: note_on channel=2 note=74 velocity=92 time=0
EXTRACT: note_on channel=9 note=40 velocity=127 time=0
EXTRACT: note_on channel=9 note=46 velocity=127 time=0
EXTRACT: note_on channel=3 note=64 velocity=0 time=0.1764705
EXTRACT: note_on channel=3 note=62 velocity=110 time=0
EXTRACT: note_on channel=2 note=65 velocity=0 time=0.1764705
EXTRACT: note_on channel=2 note=69 velocity=0 time=0
EXTRACT: note_on channel=2 note=74 velocity=0 time=0
EXTRACT: note_on channel=9 note=40 velocity=0 time=0
EXTRACT: note_on channel=3 note=62 velocity=0 time=0
EXTRACT: note_on channel=2 note=65 velocity=92 time=0
EXTRACT: note_on channel=3 note=65 velocity=110 time=0
EXTRACT: note_on channel=1 note=58 velocity=105 time=0.1764705
EXTRACT: note_on channel=5 note=50 velocity=0 time=0.1764705
EXTRACT: note_on channel=6 note=50 velocity=0 time=0
EXTRACT: note_on channel=6 note=57 velocity=0 time=0
EXTRACT: note_on channel=6 note=62 velocity=0 time=0
EXTRACT: note_on channel=2 note=65 velocity=0 time=0
EXTRACT: note_on channel=1 note=58 velocity=0 time=0
EXTRACT: note_on channel=9 note=46 velocity=0 time=0
EXTRACT: note_on channel=3 note=65 velocity=0 time=0
EXTRACT: control_change channel=6 control=64 value=0 time=0
EXTRACT: control_change channel=6 control=64 value=127 time=0
EXTRACT: note_on channel=2 note=62 velocity=92 time=0
EXTRACT: note_on channel=2 note=65 velocity=92 time=0
EXTRACT: note_on channel=2 note=70 velocity=92 time=0
EXTRACT: note_on channel=1 note=46 velocity=105 time=0
EXTRACT: note_on channel=9 note=36 velocity=127 time=0
EXTRACT: note_on channel=5 note=46 velocity=60 time=0
EXTRACT: note_on channel=6 note=46 velocity=75 time=0
EXTRACT: note_on channel=6 note=53 velocity=75 time=0
EXTRACT: note_on channel=6 note=58 velocity=75 time=0
EXTRACT: note_on channel=9 note=46 velocity=127 time=0.352941
EXTRACT: note_on channel=3 note=57 velocity=110 time=0.1764705
EXTRACT: note_on channel=2 note=62 velocity=0 time=0.1764705
EXTRACT: note_on channel=2 note=65 velocity=0 time=0
EXTRACT: note_on channel=2 note=70 velocity=0 time=0
EXTRACT: note_on channel=9 note=36 velocity=0 time=0
EXTRACT: note_on channel=9 note=46 velocity=0 time=0
EXTRACT: note_on channel=3 note=57 velocity=0 time=0
EXTRACT: note_on channel=2 note=62 velocity=92 time=0
EXTRACT: note_on channel=2 note=65 velocity=92 time=0
EXTRACT: note_on channel=2 note=70 velocity=92 time=0
EXTRACT: note_on channel=9 note=40 velocity=127 time=0
EXTRACT: note_on channel=9 note=46 velocity=127 time=0
EXTRACT: note_on channel=3 note=65 velocity=110 time=0
EXTRACT: note_on channel=9 note=46 velocity=0 time=0.1764705
EXTRACT: note_on channel=3 note=65 velocity=0 time=0
EXTRACT: note_on channel=3 note=65 velocity=110 time=0
EXTRACT: note_on channel=9 note=40 velocity=0 time=0.1764705
EXTRACT: note_on channel=3 note=65 velocity=0 time=0
EXTRACT: note_on channel=9 note=36 velocity=127 time=0
EXTRACT: note_on channel=9 note=42 velocity=127 time=0
EXTRACT: note_on channel=3 note=65 velocity=110 time=0
EXTRACT: note_on channel=9 note=42 velocity=0 time=0.1764705
EXTRACT: note_on channel=3 note=65 velocity=0 time=0
EXTRACT: note_on channel=3 note=65 velocity=110 time=0
EXTRACT: note_on channel=2 note=62 velocity=0 time=0.1764705
EXTRACT: note_on channel=2 note=65 velocity=0 time=0
EXTRACT: note_on channel=2 note=70 velocity=0 time=0
EXTRACT: note_on channel=3 note=65 velocity=0 time=0
EXTRACT: note_on channel=2 note=62 velocity=92 time=0
EXTRACT: note_on channel=2 note=65 velocity=92 time=0
EXTRACT: note_on channel=2 note=70 velocity=92 time=0
EXTRACT: note_on channel=3 note=65 velocity=110 time=0
EXTRACT: note_on channel=9 note=42 velocity=127 time=0.1764705
EXTRACT: note_on channel=9 note=36 velocity=0 time=0.1764705
EXTRACT: note_on channel=9 note=42 velocity=0 time=0
EXTRACT: note_on channel=3 note=65 velocity=0 time=0
EXTRACT: note_on channel=9 note=36 velocity=127 time=0
EXTRACT: note_on channel=9 note=42 velocity=127 time=0
EXTRACT: note_on channel=3 note=64 velocity=110 time=0
EXTRACT: note_on channel=1 note=46 velocity=0 time=0.1764705
EXTRACT: note_on channel=3 note=64 velocity=0 time=0
EXTRACT: note_on channel=1 note=58 velocity=75 time=0
EXTRACT: note_on channel=3 note=64 velocity=110 time=0
EXTRACT: note_on channel=2 note=62 velocity=0 time=0.1764705
EXTRACT: note_on channel=2 note=65 velocity=0 time=0
EXTRACT: note_on channel=2 note=70 velocity=0 time=0
EXTRACT: note_on channel=1 note=58 velocity=0 time=0
EXTRACT: note_on channel=9 note=36 velocity=0 time=0
EXTRACT: note_on channel=9 note=42 velocity=0 time=0
EXTRACT: note_on channel=2 note=70 velocity=92 time=0
EXTRACT: note_on channel=9 note=40 velocity=127 time=0
EXTRACT: note_on channel=9 note=46 velocity=127 time=0
EXTRACT: note_on channel=2 note=70 velocity=0 time=0.1764705
EXTRACT: note_on channel=3 note=64 velocity=0 time=0
EXTRACT: note_on channel=2 note=72 velocity=92 time=0
EXTRACT: note_on channel=3 note=62 velocity=110 time=0
EXTRACT: note_on channel=2 note=72 velocity=0 time=0.1764705
EXTRACT: note_on channel=9 note=40 velocity=0 time=0
EXTRACT: note_on channel=3 note=62 velocity=0 time=0
EXTRACT: note_on channel=2 note=74 velocity=92 time=0
EXTRACT: note_on channel=3 note=62 velocity=110 time=0
EXTRACT: note_on channel=1 note=65 velocity=75 time=0.1764705
EXTRACT: note_on channel=5 note=46 velocity=0 time=0.1764705
EXTRACT: note_on channel=6 note=46 velocity=0 time=0
EXTRACT: note_on channel=6 note=53 velocity=0 time=0
EXTRACT: note_on channel=6 note=58 velocity=0 time=0
EXTRACT: note_on channel=2 note=74 velocity=0 time=0
EXTRACT: note_on channel=1 note=65 velocity=0 time=0
EXTRACT: note_on channel=9 note=46 velocity=0 time=0
EXTRACT: note_on channel=3 note=62 velocity=0 time=0
EXTRACT: control_change channel=1 control=64 value=0 time=0
EXTRACT: control_change channel=6 control=64 value=0 time=0
EXTRACT: control_change channel=1 control=64 value=127 time=0
EXTRACT: control_change channel=6 control=64 value=127 time=0
EXTRACT: note_on channel=2 note=65 velocity=92 time=0
EXTRACT: note_on channel=2 note=69 velocity=92 time=0
EXTRACT: note_on channel=2 note=72 velocity=92 time=0
EXTRACT: note_on channel=1 note=53 velocity=75 time=0
EXTRACT: note_on channel=9 note=36 velocity=127 time=0
EXTRACT: note_on channel=5 note=53 velocity=60 time=0
EXTRACT: note_on channel=6 note=41 velocity=75 time=0
EXTRACT: note_on channel=6 note=48 velocity=75 time=0
EXTRACT: note_on channel=6 note=53 velocity=75 time=0
EXTRACT: note_on channel=9 note=46 velocity=127 time=0.352941
EXTRACT: note_on channel=3 note=60 velocity=110 time=0.1764705
EXTRACT: note_on channel=2 note=65 velocity=0 time=0.1764705
EXTRACT: note_on channel=2 note=69 velocity=0 time=0
EXTRACT: note_on channel=2 note=72 velocity=0 time=0
EXTRACT: note_on channel=9 note=36 velocity=0 time=0
EXTRACT: note_on channel=9 note=46 velocity=0 time=0
EXTRACT: note_on channel=3 note=60 velocity=0 time=0
EXTRACT: note_on channel=2 note=65 velocity=92 time=0
EXTRACT: note_on channel=2 note=69 velocity=92 time=0
EXTRACT: note_on channel=2 note=72 velocity=92 time=0
EXTRACT: note_on channel=9 note=40 velocity=127 time=0
EXTRACT: note_on channel=9 note=46 velocity=127 time=0
EXTRACT: note_on channel=3 note=60 velocity=110 time=0
EXTRACT: note_on channel=9 note=46 velocity=0 time=0.1764705
EXTRACT: note_on channel=9 note=40 velocity=0 time=0.1764705
EXTRACT: note_on channel=9 note=36 velocity=127 time=0
EXTRACT: note_on channel=9 note=42 velocity=127 time=0
EXTRACT: note_on channel=3 note=60 velocity=0 time=0.0220588125
EXTRACT: note_on channel=9 note=42 velocity=0 time=0.1544116875
EXTRACT: note_on channel=3 note=60 velocity=110 time=0
EXTRACT: note_on channel=2 note=65 velocity=0 time=0.1764705
EXTRACT: note_on channel=2 note=69 velocity=0 time=0
EXTRACT: note_on channel=2 note=72 velocity=0 time=0
EXTRACT: note_on channel=3 note=60 velocity=0 time=0
EXTRACT: note_on channel=2 note=65 velocity=92 time=0
EXTRACT: note_on channel=2 note=69 velocity=92 time=0
EXTRACT: note_on channel=2 note=72 velocity=92 time=0
EXTRACT: note_on channel=3 note=60 velocity=110 time=0
EXTRACT: note_on channel=9 note=42 velocity=127 time=0.1764705
EXTRACT: note_on channel=9 note=36 velocity=0 time=0.1764705
EXTRACT: note_on channel=9 note=42 velocity=0 time=0
EXTRACT: note_on channel=3 note=60 velocity=0 time=0
EXTRACT: note_on channel=9 note=36 velocity=127 time=0
EXTRACT: note_on channel=9 note=42 velocity=127 time=0
EXTRACT: note_on channel=3 note=53 velocity=110 time=0
EXTRACT: note_on channel=3 note=53 velocity=0 time=0.1764705
EXTRACT: note_on channel=3 note=53 velocity=110 time=0
EXTRACT: note_on channel=2 note=65 velocity=0 time=0.1764705
EXTRACT: note_on channel=2 note=69 velocity=0 time=0
EXTRACT: note_on channel=2 note=72 velocity=0 time=0
EXTRACT: note_on channel=9 note=36 velocity=0 time=0
EXTRACT: note_on channel=9 note=42 velocity=0 time=0
EXTRACT: note_on channel=2 note=65 velocity=92 time=0
EXTRACT: note_on channel=2 note=69 velocity=92 time=0
EXTRACT: note_on channel=2 note=72 velocity=92 time=0
EXTRACT: note_on channel=9 note=40 velocity=127 time=0
EXTRACT: note_on channel=9 note=46 velocity=127 time=0
EXTRACT: note_on channel=3 note=53 velocity=0 time=0.1764705
EXTRACT: note_on channel=3 note=55 velocity=110 time=0
EXTRACT: note_on channel=2 note=65 velocity=0 time=0.1764705
EXTRACT: note_on channel=2 note=69 velocity=0 time=0
EXTRACT: note_on channel=2 note=72 velocity=0 time=0
EXTRACT: note_on channel=9 note=40 velocity=0 time=0
EXTRACT: note_on channel=3 note=55 velocity=0 time=0
EXTRACT: note_on channel=2 note=65 velocity=92 time=0
EXTRACT: note_on channel=3 note=55 velocity=110 time=0
EXTRACT: note_on channel=1 note=53 velocity=0 time=0.352941
EXTRACT: note_on channel=5 note=53 velocity=0 time=0
EXTRACT: note_on channel=6 note=41 velocity=0 time=0
EXTRACT: note_on channel=6 note=48 velocity=0 time=0
EXTRACT: note_on channel=6 note=53 velocity=0 time=0
EXTRACT: note_on channel=2 note=65 velocity=0 time=0
EXTRACT: note_on channel=9 note=46 velocity=0 time=0
EXTRACT: note_on channel=3 note=55 velocity=0 time=0
EXTRACT: control_change channel=1 control=64 value=0 time=0
EXTRACT: control_change channel=6 control=64 value=0 time=0
EXTRACT: control_change channel=1 control=64 value=127 time=0
EXTRACT: control_change channel=6 control=64 value=127 time=0
EXTRACT: note_on channel=2 note=64 velocity=92 time=0
EXTRACT: note_on channel=2 note=67 velocity=92 time=0
EXTRACT: note_on channel=2 note=72 velocity=92 time=0
EXTRACT: note_on channel=1 note=52 velocity=75 time=0
EXTRACT: note_on channel=9 note=36 velocity=127 time=0
EXTRACT: note_on channel=5 note=52 velocity=60 time=0
EXTRACT: note_on channel=6 note=48 velocity=75 time=0
EXTRACT: note_on channel=6 note=55 velocity=75 time=0
EXTRACT: note_on channel=9 note=46 velocity=127 time=0.352941
EXTRACT: note_on channel=3 note=60 velocity=110 time=0.1764705
EXTRACT: note_on channel=2 note=64 velocity=0 time=0.1764705
EXTRACT: note_on channel=2 note=67 velocity=0 time=0
EXTRACT: note_on channel=2 note=72 velocity=0 time=0
EXTRACT: note_on channel=9 note=36 velocity=0 time=0
EXTRACT: note_on channel=9 note=46 velocity=0 time=0
EXTRACT: note_on channel=3 note=60 velocity=0 time=0
EXTRACT: note_on channel=2 note=64 velocity=92 time=0
EXTRACT: note_on channel=2 note=67 velocity=92 time=0
EXTRACT: note_on channel=2 note=72 velocity=92 time=0
EXTRACT: note_on channel=9 note=40 velocity=127 time=0
EXTRACT: note_on channel=9 note=46 velocity=127 time=0
EXTRACT: note_on channel=3 note=60 velocity=110 time=0
EXTRACT: note_on channel=9 note=46 velocity=0 time=0.1764705
EXTRACT: note_on channel=9 note=40 velocity=0 time=0.1764705
EXTRACT: note_on channel=9 note=36 velocity=127 time=0
EXTRACT: note_on channel=9 note=42 velocity=127 time=0
EXTRACT: note_on channel=9 note=42 velocity=0 time=0.1764705
EXTRACT: note_on channel=3 note=60 velocity=0 time=0
EXTRACT: note_on channel=3 note=53 velocity=110 time=0
EXTRACT: note_on channel=2 note=64 velocity=0 time=0.1764705
EXTRACT: note_on channel=2 note=67 velocity=0 time=0
EXTRACT: note_on channel=2 note=72 velocity=0 time=0
EXTRACT: note_on channel=3 note=53 velocity=0 time=0
EXTRACT: note_on channel=2 note=64 velocity=92 time=0
EXTRACT: note_on channel=2 note=67 velocity=92 time=0
EXTRACT: note_on channel=2 note=72 velocity=92 time=0
EXTRACT: note_on channel=3 note=53 velocity=110 time=0
EXTRACT: note_on channel=9 note=36 velocity=0 time=0.1764705
EXTRACT: note_on channel=9 note=36 velocity=127 time=0
EXTRACT: note_on channel=9 note=42 velocity=127 time=0
EXTRACT: note_on channel=9 note=36 velocity=0 time=0.1764705
EXTRACT: note_on channel=9 note=42 velocity=0 time=0
EXTRACT: note_on channel=3 note=53 velocity=0 time=0
EXTRACT: note_on channel=9 note=36 velocity=127 time=0
EXTRACT: note_on channel=9 note=42 velocity=127 time=0
EXTRACT: note_on channel=3 note=55 velocity=110 time=0
EXTRACT: note_on channel=2 note=64 velocity=0 time=0.352941
EXTRACT: note_on channel=2 note=67 velocity=0 time=0
EXTRACT: note_on channel=2 note=72 velocity=0 time=0
EXTRACT: note_on channel=9 note=36 velocity=0 time=0
EXTRACT: note_on channel=9 note=42 velocity=0 time=0
EXTRACT: note_on channel=3 note=55 velocity=0 time=0
EXTRACT: note_on channel=2 note=64 velocity=92 time=0
EXTRACT: note_on channel=2 note=67 velocity=92 time=0
EXTRACT: note_on channel=2 note=72 velocity=92 time=0
EXTRACT: note_on channel=9 note=40 velocity=127 time=0
EXTRACT: note_on channel=9 note=46 velocity=127 time=0
EXTRACT: note_on channel=3 note=55 velocity=110 time=0
EXTRACT: note_on channel=9 note=40 velocity=0 time=0.352941
EXTRACT: note_on channel=3 note=55 velocity=0 time=0
EXTRACT: note_on channel=3 note=57 velocity=110 time=0
EXTRACT: note_on channel=1 note=52 velocity=0 time=0.352941
EXTRACT: note_on channel=5 note=52 velocity=0 time=0
EXTRACT: note_on channel=6 note=48 velocity=0 time=0
EXTRACT: note_on channel=6 note=55 velocity=0 time=0
EXTRACT: note_on channel=2 note=64 velocity=0 time=0
EXTRACT: note_on channel=2 note=67 velocity=0 time=0
EXTRACT: note_on channel=2 note=72 velocity=0 time=0
EXTRACT: note_on channel=9 note=46 velocity=0 time=0
EXTRACT: note_on channel=3 note=57 velocity=0 time=0
EXTRACT: control_change channel=1 control=64 value=0 time=0
EXTRACT: control_change channel=6 control=64 value=0 time=0
EXTRACT: note_on channel=2 note=65 velocity=92 time=0
EXTRACT: note_on channel=2 note=69 velocity=92 time=0
EXTRACT: note_on channel=2 note=74 velocity=92 time=0
EXTRACT: note_on channel=1 note=50 velocity=105 time=0
EXTRACT: note_on channel=9 note=36 velocity=127 time=0
EXTRACT: note_on channel=5 note=50 velocity=60 time=0
EXTRACT: note_on channel=6 note=50 velocity=75 time=0
EXTRACT: note_on channel=6 note=57 velocity=75 time=0
EXTRACT: note_on channel=6 note=62 velocity=75 time=0
EXTRACT: note_on channel=9 note=46 velocity=127 time=0.352941
EXTRACT: note_on channel=3 note=57 velocity=110 time=0
EXTRACT: note_on channel=3 note=57 velocity=0 time=0.1764705
EXTRACT: note_on channel=3 note=57 velocity=110 time=0
EXTRACT: note_on channel=2 note=65 velocity=0 time=0.1764705
EXTRACT: note_on channel=2 note=69 velocity=0 time=0
EXTRACT: note_on channel=2 note=74 velocity=0 time=0
EXTRACT: note_on channel=9 note=36 velocity=0 time=0
EXTRACT: note_on channel=9 note=46 velocity=0 time=0
EXTRACT: note_on channel=3 note=57 velocity=0 time=0
EXTRACT: note_on channel=2 note=65 velocity=92 time=0
EXTRACT: note_on channel=2 note=69 velocity=92 time=0
EXTRACT: note_on channel=2 note=74 velocity=92 time=0
EXTRACT: note_on channel=9 note=40 velocity=127 time=0
EXTRACT: note_on channel=9 note=46 velocity=127 time=0
EXTRACT: note_on channel=3 note=65 velocity=110 time=0
EXTRACT: note_on channel=9 note=46 velocity=0 time=0.1764705
EXTRACT: note_on channel=3 note=65 velocity=0 time=0
EXTRACT: note_on channel=3 note=65 velocity=110 time=0
EXTRACT: note_on channel=9 note=40 velocity=0 time=0.1764705
EXTRACT: note_on channel=3 note=65 velocity=0 time=0
EXTRACT: note_on channel=9 note=42 velocity=127 time=0
EXTRACT: note_on channel=9 note=36 velocity=127 time=0
EXTRACT: note_on channel=3 note=65 velocity=110 time=0
EXTRACT: note_on channel=9 note=42 velocity=0 time=0.1764705
EXTRACT: note_on channel=3 note=65 velocity=0 time=0
EXTRACT: note_on channel=3 note=65 velocity=110 time=0
EXTRACT: note_on channel=2 note=74 velocity=0 time=0.1764705
EXTRACT: note_on channel=2 note=69 velocity=0 time=0
EXTRACT: note_on channel=2 note=65 velocity=0 time=0
EXTRACT: note_on channel=3 note=65 velocity=0 time=0
EXTRACT: note_on channel=2 note=65 velocity=92 time=0
EXTRACT: note_on channel=2 note=69 velocity=92 time=0
EXTRACT: note_on channel=2 note=74 velocity=92 time=0
EXTRACT: note_on channel=3 note=65 velocity=110 time=0
EXTRACT: note_on channel=9 note=42 velocity=127 time=0.1764705
EXTRACT: note_on channel=9 note=36 velocity=0 time=0.1764705
EXTRACT: note_on channel=9 note=42 velocity=0 time=0
EXTRACT: note_on channel=3 note=65 velocity=0 time=0
EXTRACT: note_on channel=9 note=36 velocity=127 time=0
EXTRACT: note_on channel=9 note=42 velocity=127 time=0
EXTRACT: note_on channel=3 note=64 velocity=110 time=0
EXTRACT: note_on channel=1 note=50 velocity=0 time=0.1764705
EXTRACT: note_on channel=3 note=64 velocity=0 time=0
EXTRACT: control_change channel=1 control=64 value=127 time=0
EXTRACT: note_on channel=3 note=64 velocity=110 time=0
EXTRACT: note_on channel=2 note=65 velocity=0 time=0.1764705
EXTRACT: note_on channel=2 note=69 velocity=0 time=0
EXTRACT: note_on channel=2 note=74 velocity=0 time=0
EXTRACT: note_on channel=9 note=36 velocity=0 time=0
EXTRACT: note_on channel=9 note=42 velocity=0 time=0
EXTRACT: note_on channel=2 note=65 velocity=92 time=0
EXTRACT: note_on channel=2 note=69 velocity=92 time=0
EXTRACT: note_on channel=2 note=74 velocity=92 time=0
EXTRACT: note_on channel=9 note=40 velocity=127 time=0
EXTRACT: note_on channel=9 note=46 velocity=127 time=0
EXTRACT: note_on channel=3 note=64 velocity=0 time=0.1764705
EXTRACT: note_on channel=3 note=62 velocity=110 time=0
EXTRACT: note_on channel=9 note=40 velocity=0 time=0.1764705
EXTRACT: note_on channel=3 note=62 velocity=0 time=0
EXTRACT: note_on channel=3 note=65 velocity=110 time=0
EXTRACT: note_on channel=1 note=58 velocity=105 time=0.1764705
EXTRACT: note_on channel=6 note=50 velocity=0 time=0.1764705
EXTRACT: note_on channel=5 note=50 velocity=0 time=0
EXTRACT: note_on channel=6 note=57 velocity=0 time=0
EXTRACT: note_on channel=6 note=62 velocity=0 time=0
EXTRACT: note_on channel=2 note=65 velocity=0 time=0
EXTRACT: note_on channel=2 note=69 velocity=0 time=0
EXTRACT: note_on channel=2 note=74 velocity=0 time=0
EXTRACT: note_on channel=1 note=58 velocity=0 time=0
EXTRACT: note_on channel=9 note=46 velocity=0 time=0
EXTRACT: note_on channel=3 note=65 velocity=0 time=0
EXTRACT: control_change channel=6 control=64 value=0 time=0
EXTRACT: control_change channel=6 control=64 value=0 time=0
EXTRACT: note_on channel=2 note=62 velocity=92 time=0
EXTRACT: note_on channel=2 note=65 velocity=92 time=0
EXTRACT: note_on channel=2 note=70 velocity=92 time=0
EXTRACT: note_on channel=1 note=46 velocity=105 time=0
EXTRACT: note_on channel=9 note=36 velocity=127 time=0
EXTRACT: note_on channel=5 note=46 velocity=60 time=0
EXTRACT: note_on channel=6 note=46 velocity=75 time=0
EXTRACT: note_on channel=6 note=53 velocity=75 time=0
EXTRACT: note_on channel=6 note=58 velocity=75 time=0
EXTRACT: note_on channel=9 note=46 velocity=127 time=0.352941
EXTRACT: note_on channel=3 note=57 velocity=110 time=0.1764705
EXTRACT: note_on channel=2 note=62 velocity=0 time=0.1764705
EXTRACT: note_on channel=2 note=65 velocity=0 time=0
EXTRACT: note_on channel=2 note=70 velocity=0 time=0
EXTRACT: note_on channel=9 note=36 velocity=0 time=0
EXTRACT: note_on channel=9 note=46 velocity=0 time=0
EXTRACT: note_on channel=3 note=57 velocity=0 time=0
EXTRACT: note_on channel=2 note=62 velocity=92 time=0
EXTRACT: note_on channel=2 note=65 velocity=92 time=0
EXTRACT: note_on channel=2 note=70 velocity=92 time=0
EXTRACT: note_on channel=9 note=40 velocity=127 time=0
EXTRACT: note_on channel=9 note=46 velocity=127 time=0
EXTRACT: note_on channel=3 note=65 velocity=110 time=0
EXTRACT: note_on channel=9 note=46 velocity=0 time=0.1764705
EXTRACT: note_on channel=3 note=65 velocity=0 time=0
EXTRACT: note_on channel=3 note=65 velocity=110 time=0
EXTRACT: note_on channel=9 note=40 velocity=0 time=0.1764705
EXTRACT: note_on channel=3 note=65 velocity=0 time=0
EXTRACT: note_on channel=9 note=36 velocity=127 time=0
EXTRACT: note_on channel=9 note=42 velocity=127 time=0
EXTRACT: note_on channel=3 note=65 velocity=110 time=0
EXTRACT: note_on channel=9 note=42 velocity=0 time=0.1764705
EXTRACT: note_on channel=3 note=65 velocity=0 time=0
EXTRACT: note_on channel=3 note=65 velocity=110 time=0
EXTRACT: note_on channel=2 note=62 velocity=0 time=0.1764705
EXTRACT: note_on channel=2 note=65 velocity=0 time=0
EXTRACT: note_on channel=2 note=70 velocity=0 time=0
EXTRACT: note_on channel=3 note=65 velocity=0 time=0
EXTRACT: note_on channel=2 note=62 velocity=92 time=0
EXTRACT: note_on channel=2 note=65 velocity=92 time=0
EXTRACT: note_on channel=2 note=70 velocity=92 time=0
EXTRACT: note_on channel=3 note=65 velocity=110 time=0
EXTRACT: note_on channel=9 note=42 velocity=127 time=0.1764705
EXTRACT: note_on channel=9 note=36 velocity=0 time=0.1764705
EXTRACT: note_on channel=9 note=42 velocity=0 time=0
EXTRACT: note_on channel=3 note=65 velocity=0 time=0
EXTRACT: note_on channel=9 note=36 velocity=127 time=0
EXTRACT: note_on channel=9 note=42 velocity=127 time=0
EXTRACT: note_on channel=3 note=64 velocity=110 time=0
EXTRACT: note_on channel=2 note=62 velocity=0 time=0.1764705
EXTRACT: note_on channel=2 note=65 velocity=0 time=0
EXTRACT: note_on channel=2 note=70 velocity=0 time=0
EXTRACT: note_on channel=1 note=46 velocity=0 time=0
EXTRACT: note_on channel=3 note=64 velocity=0 time=0
EXTRACT: control_change channel=2 control=64 value=127 time=0
EXTRACT: note_on channel=2 note=65 velocity=92 time=0
EXTRACT: note_on channel=1 note=58 velocity=75 time=0
EXTRACT: note_on channel=3 note=64 velocity=110 time=0
EXTRACT: note_on channel=2 note=65 velocity=0 time=0.1764705
EXTRACT: note_on channel=1 note=58 velocity=0 time=0
EXTRACT: note_on channel=9 note=36 velocity=0 time=0
EXTRACT: note_on channel=9 note=42 velocity=0 time=0
EXTRACT: note_on channel=2 note=74 velocity=92 time=0
EXTRACT: note_on channel=9 note=40 velocity=127 time=0
EXTRACT: note_on channel=9 note=46 velocity=127 time=0
EXTRACT: note_on channel=2 note=74 velocity=0 time=0.1764705
EXTRACT: note_on channel=3 note=64 velocity=0 time=0
EXTRACT: note_on channel=2 note=72 velocity=92 time=0
EXTRACT: note_on channel=3 note=62 velocity=110 time=0
EXTRACT: note_on channel=2 note=72 velocity=0 time=0.1764705
EXTRACT: note_on channel=9 note=40 velocity=0 time=0
EXTRACT: note_on channel=3 note=62 velocity=0 time=0
EXTRACT: note_on channel=2 note=70 velocity=92 time=0
EXTRACT: note_on channel=3 note=62 velocity=110 time=0
EXTRACT: note_on channel=2 note=70 velocity=0 time=0.1764705
EXTRACT: note_on channel=2 note=69 velocity=92 time=0
EXTRACT: note_on channel=1 note=65 velocity=75 time=0
EXTRACT: note_on channel=5 note=46 velocity=0 time=0.1764705
EXTRACT: note_on channel=6 note=46 velocity=0 time=0
EXTRACT: note_on channel=6 note=53 velocity=0 time=0
EXTRACT: note_on channel=6 note=58 velocity=0 time=0
EXTRACT: note_on channel=2 note=69 velocity=0 time=0
EXTRACT: note_on channel=1 note=65 velocity=0 time=0
EXTRACT: note_on channel=9 note=46 velocity=0 time=0
EXTRACT: note_on channel=3 note=62 velocity=0 time=0
EXTRACT: control_change channel=1 control=64 value=0 time=0
EXTRACT: control_change channel=1 control=64 value=127 time=0
EXTRACT: control_change channel=6 control=64 value=127 time=0
EXTRACT: control_change channel=6 control=64 value=127 time=0
EXTRACT: note_on channel=2 note=67 velocity=92 time=0
EXTRACT: note_on channel=1 note=53 velocity=75 time=0
EXTRACT: note_on channel=9 note=36 velocity=127 time=0
EXTRACT: note_on channel=5 note=53 velocity=60 time=0
EXTRACT: note_on channel=6 note=41 velocity=75 time=0
EXTRACT: note_on channel=6 note=48 velocity=75 time=0
EXTRACT: note_on channel=6 note=53 velocity=75 time=0
EXTRACT: note_on channel=2 note=67 velocity=0 time=0.08823525
EXTRACT: note_on channel=2 note=65 velocity=92 time=0
EXTRACT: note_on channel=2 note=69 velocity=92 time=0
EXTRACT: note_on channel=2 note=72 velocity=92 time=0.08823525
EXTRACT: note_on channel=2 note=65 velocity=0 time=0.0808823125
EXTRACT: note_on channel=9 note=46 velocity=127 time=0.0955881875
EXTRACT: note_on channel=3 note=60 velocity=110 time=0.1764705
EXTRACT: note_on channel=2 note=69 velocity=0 time=0.1764705
EXTRACT: note_on channel=2 note=72 velocity=0 time=0
EXTRACT: note_on channel=9 note=36 velocity=0 time=0
EXTRACT: note_on channel=9 note=46 velocity=0 time=0
EXTRACT: note_on channel=3 note=60 velocity=0 time=0
EXTRACT: control_change channel=2 control=64 value=0 time=0
EXTRACT: note_on channel=2 note=65 velocity=92 time=0
EXTRACT: note_on channel=2 note=69 velocity=92 time=0
EXTRACT: note_on channel=2 note=72 velocity=92 time=0
EXTRACT: note_on channel=9 note=40 velocity=127 time=0
EXTRACT: note_on channel=9 note=46 velocity=127 time=0
EXTRACT: note_on channel=3 note=60 velocity=110 time=0
EXTRACT: note_on channel=9 note=46 velocity=0 time=0.1764705
EXTRACT: note_on channel=9 note=40 velocity=0 time=0.1764705
EXTRACT: note_on channel=9 note=36 velocity=127 time=0
EXTRACT: note_on channel=9 note=42 velocity=127 time=0
EXTRACT: note_on channel=9 note=42 velocity=0 time=0.1764705
EXTRACT: note_on channel=3 note=60 velocity=0 time=0
EXTRACT: note_on channel=3 note=60 velocity=110 time=0
EXTRACT: note_on channel=2 note=65 velocity=0 time=0.1764705
EXTRACT: note_on channel=2 note=69 velocity=0 time=0
EXTRACT: note_on channel=2 note=72 velocity=0 time=0
EXTRACT: note_on channel=3 note=60 velocity=0 time=0
EXTRACT: note_on channel=2 note=65 velocity=92 time=0
EXTRACT: note_on channel=2 note=69 velocity=92 time=0
EXTRACT: note_on channel=2 note=72 velocity=92 time=0
EXTRACT: note_on channel=3 note=60 velocity=110 time=0
EXTRACT: note_on channel=9 note=42 velocity=127 time=0.1764705
EXTRACT: note_on channel=9 note=36 velocity=0 time=0.1764705
EXTRACT: note_on channel=9 note=42 velocity=0 time=0
EXTRACT: note_on channel=3 note=60 velocity=0 time=0
EXTRACT: note_on channel=9 note=36 velocity=127 time=0
EXTRACT: note_on channel=9 note=42 velocity=127 time=0
EXTRACT: note_on channel=3 note=53 velocity=110 time=0
EXTRACT: note_on channel=2 note=65 velocity=0 time=0.352941
EXTRACT: note_on channel=2 note=69 velocity=0 time=0
EXTRACT: note_on channel=2 note=72 velocity=0 time=0
EXTRACT: note_on channel=9 note=36 velocity=0 time=0
EXTRACT: note_on channel=9 note=42 velocity=0 time=0
EXTRACT: note_on channel=3 note=53 velocity=0 time=0
EXTRACT: note_on channel=2 note=65 velocity=92 time=0
EXTRACT: note_on channel=2 note=69 velocity=92 time=0
EXTRACT: note_on channel=2 note=72 velocity=92 time=0
EXTRACT: note_on channel=9 note=40 velocity=127 time=0
EXTRACT: note_on channel=9 note=46 velocity=127 time=0
EXTRACT: note_on channel=3 note=55 velocity=110 time=0
EXTRACT: note_on channel=2 note=65 velocity=0 time=0.352941
EXTRACT: note_on channel=2 note=69 velocity=0 time=0
EXTRACT: note_on channel=2 note=72 velocity=0 time=0
EXTRACT: note_on channel=9 note=40 velocity=0 time=0
EXTRACT: note_on channel=2 note=65 velocity=92 time=0
EXTRACT: note_on channel=1 note=53 velocity=0 time=0.352941
EXTRACT: note_on channel=5 note=53 velocity=0 time=0
EXTRACT: note_on channel=6 note=41 velocity=0 time=0
EXTRACT: note_on channel=6 note=48 velocity=0 time=0
EXTRACT: note_on channel=6 note=53 velocity=0 time=0
EXTRACT: note_on channel=2 note=65 velocity=0 time=0
EXTRACT: note_on channel=9 note=46 velocity=0 time=0
EXTRACT: note_on channel=3 note=55 velocity=0 time=0
EXTRACT: control_change channel=1 control=64 value=0 time=0
EXTRACT: control_change channel=6 control=64 value=0 time=0
EXTRACT: control_change channel=1 control=64 value=127 time=0
EXTRACT: control_change channel=6 control=64 value=127 time=0
EXTRACT: note_on channel=2 note=64 velocity=92 time=0
EXTRACT: note_on channel=2 note=67 velocity=92 time=0
EXTRACT: note_on channel=2 note=72 velocity=92 time=0
EXTRACT: note_on channel=1 note=52 velocity=75 time=0
EXTRACT: note_on channel=9 note=36 velocity=127 time=0
EXTRACT: note_on channel=5 note=52 velocity=60 time=0
EXTRACT: note_on channel=6 note=40 velocity=75 time=0
EXTRACT: note_on channel=6 note=48 velocity=75 time=0
EXTRACT: note_on channel=6 note=55 velocity=75 time=0
EXTRACT: note_on channel=3 note=60 velocity=110 time=0
EXTRACT: note_on channel=3 note=60 velocity=0 time=0.1764705
EXTRACT: note_on channel=3 note=60 velocity=110 time=0
EXTRACT: note_on channel=3 note=60 velocity=0 time=0.1764705
EXTRACT: note_on channel=9 note=46 velocity=127 time=0
EXTRACT: note_on channel=3 note=60 velocity=110 time=0
EXTRACT: note_on channel=3 note=60 velocity=0 time=0.1764705
EXTRACT: note_on channel=3 note=62 velocity=110 time=0
EXTRACT: note_on channel=2 note=64 velocity=0 time=0.1764705
EXTRACT: note_on channel=2 note=67 velocity=0 time=0
EXTRACT: note_on channel=2 note=72 velocity=0 time=0
EXTRACT: note_on channel=9 note=36 velocity=0 time=0
EXTRACT: note_on channel=9 note=46 velocity=0 time=0
EXTRACT: note_on channel=3 note=62 velocity=0 time=0
EXTRACT: note_on channel=2 note=64 velocity=92 time=0
EXTRACT: note_on channel=2 note=67 velocity=92 time=0
EXTRACT: note_on channel=2 note=72 velocity=92 time=0
EXTRACT: note_on channel=9 note=40 velocity=127 time=0
EXTRACT: note_on channel=9 note=46 velocity=127 time=0
EXTRACT: note_on channel=3 note=60 velocity=110 time=0
EXTRACT: note_on channel=9 note=46 velocity=0 time=0.1764705
EXTRACT: note_on channel=2 note=64 velocity=0 time=0.1764705
EXTRACT: note_on channel=2 note=67 velocity=0 time=0
EXTRACT: note_on channel=2 note=72 velocity=0 time=0
EXTRACT: note_on channel=9 note=40 velocity=0 time=0
EXTRACT: note_on channel=3 note=60 velocity=0 time=0
EXTRACT: note_on channel=2 note=65 velocity=92 time=0
EXTRACT: note_on channel=9 note=36 velocity=127 time=0
EXTRACT: note_on channel=9 note=42 velocity=127 time=0
EXTRACT: note_on channel=3 note=62 velocity=110 time=0
EXTRACT: note_on channel=9 note=42 velocity=0 time=0.1764705
EXTRACT: note_on channel=2 note=65 velocity=0 time=0.1764705
EXTRACT: note_on channel=3 note=62 velocity=0 time=0
EXTRACT: note_on channel=2 note=65 velocity=92 time=0
EXTRACT: note_on channel=2 note=74 velocity=92 time=0
EXTRACT: note_on channel=3 note=64 velocity=110 time=0
EXTRACT: note_on channel=9 note=36 velocity=0 time=0.1764705
EXTRACT: note_on channel=9 note=36 velocity=127 time=0
EXTRACT: note_on channel=9 note=42 velocity=127 time=0
EXTRACT: note_on channel=9 note=36 velocity=0 time=0.1764705
EXTRACT: note_on channel=9 note=42 velocity=0 time=0
EXTRACT: note_on channel=9 note=36 velocity=127 time=0
EXTRACT: note_on channel=9 note=42 velocity=127 time=0
EXTRACT: note_on channel=2 note=65 velocity=0 time=0.1764705
EXTRACT: note_on channel=2 note=74 velocity=0 time=0
EXTRACT: note_on channel=3 note=64 velocity=0 time=0
EXTRACT: note_on channel=2 note=65 velocity=92 time=0
EXTRACT: note_on channel=2 note=72 velocity=92 time=0
EXTRACT: note_on channel=3 note=65 velocity=110 time=0
EXTRACT: note_on channel=9 note=36 velocity=0 time=0.1764705
EXTRACT: note_on channel=9 note=42 velocity=0 time=0
EXTRACT: note_on channel=9 note=40 velocity=127 time=0
EXTRACT: note_on channel=9 note=46 velocity=127 time=0
EXTRACT: note_on channel=2 note=65 velocity=0 time=0.352941
EXTRACT: note_on channel=2 note=72 velocity=0 time=0
EXTRACT: note_on channel=9 note=40 velocity=0 time=0
EXTRACT: note_on channel=3 note=65 velocity=0 time=0
EXTRACT: note_on channel=2 note=67 velocity=92 time=0
EXTRACT: note_on channel=2 note=70 velocity=92 time=0
EXTRACT: note_on channel=3 note=69 velocity=110 time=0
EXTRACT: note_on channel=1 note=52 velocity=0 time=0.352941
EXTRACT: note_on channel=5 note=52 velocity=0 time=0
EXTRACT: note_on channel=6 note=40 velocity=0 time=0
EXTRACT: note_on channel=6 note=48 velocity=0 time=0
EXTRACT: note_on channel=6 note=55 velocity=0 time=0
EXTRACT: note_on channel=2 note=67 velocity=0 time=0
EXTRACT: note_on channel=2 note=70 velocity=0 time=0
EXTRACT: note_on channel=9 note=46 velocity=0 time=0
EXTRACT: note_on channel=3 note=69 velocity=0 time=0
EXTRACT: control_change channel=1 control=64 value=0 time=0
EXTRACT: control_change channel=6 control=64 value=0 time=0
EXTRACT: note_on channel=2 note=62 velocity=92 time=0
EXTRACT: note_on channel=2 note=67 velocity=92 time=0
EXTRACT: note_on channel=2 note=70 velocity=92 time=0
EXTRACT: note_on channel=1 note=43 velocity=127 time=0
EXTRACT: note_on channel=4 note=55 velocity=75 time=0
EXTRACT: note_on channel=9 note=36 velocity=127 time=0
EXTRACT: note_on channel=3 note=70 velocity=110 time=0
EXTRACT: note_on channel=9 note=46 velocity=127 time=0.352941
EXTRACT: note_on channel=3 note=70 velocity=0 time=0.1764705
EXTRACT: note_on channel=3 note=69 velocity=110 time=0
EXTRACT: note_on channel=2 note=62 velocity=0 time=0.1764705
EXTRACT: note_on channel=2 note=67 velocity=0 time=0
EXTRACT: note_on channel=2 note=70 velocity=0 time=0
EXTRACT: note_on channel=9 note=36 velocity=0 time=0
EXTRACT: note_on channel=9 note=46 velocity=0 time=0
EXTRACT: note_on channel=2 note=62 velocity=92 time=0
EXTRACT: note_on channel=2 note=67 velocity=92 time=0
EXTRACT: note_on channel=2 note=70 velocity=92 time=0
EXTRACT: note_on channel=9 note=40 velocity=127 time=0
EXTRACT: note_on channel=9 note=46 velocity=127 time=0
EXTRACT: note_on channel=9 note=46 velocity=0 time=0.1764705
EXTRACT: note_on channel=9 note=40 velocity=0 time=0.1764705
EXTRACT: note_on channel=3 note=69 velocity=0 time=0
EXTRACT: note_on channel=9 note=36 velocity=127 time=0
EXTRACT: note_on channel=9 note=42 velocity=127 time=0
EXTRACT: note_on channel=3 note=65 velocity=110 time=0
EXTRACT: note_on channel=9 note=42 velocity=0 time=0.1764705
EXTRACT: note_on channel=3 note=65 velocity=0 time=0.07352937500000001
EXTRACT: note_on channel=2 note=62 velocity=0 time=0.102941125
EXTRACT: note_on channel=2 note=67 velocity=0 time=0
EXTRACT: note_on channel=2 note=70 velocity=0 time=0
EXTRACT: note_on channel=2 note=62 velocity=92 time=0
EXTRACT: note_on channel=2 note=67 velocity=92 time=0
EXTRACT: note_on channel=2 note=70 velocity=92 time=0
EXTRACT: note_on channel=3 note=70 velocity=110 time=0
EXTRACT: note_on channel=9 note=42 velocity=127 time=0.1764705
EXTRACT: note_on channel=9 note=36 velocity=0 time=0.1764705
EXTRACT: note_on channel=9 note=42 velocity=0 time=0
EXTRACT: note_on channel=9 note=36 velocity=127 time=0
EXTRACT: note_on channel=9 note=42 velocity=127 time=0
EXTRACT: note_on channel=3 note=70 velocity=0 time=0.1764705
EXTRACT: note_on channel=3 note=69 velocity=110 time=0
EXTRACT: note_on channel=4 note=55 velocity=0 time=0.1764705
EXTRACT: note_on channel=2 note=62 velocity=0 time=0
EXTRACT: note_on channel=2 note=67 velocity=0 time=0
EXTRACT: note_on channel=2 note=70 velocity=0 time=0
EXTRACT: note_on channel=9 note=36 velocity=0 time=0
EXTRACT: note_on channel=9 note=42 velocity=0 time=0
EXTRACT: note_on channel=2 note=62 velocity=92 time=0
EXTRACT: note_on channel=2 note=67 velocity=92 time=0
EXTRACT: note_on channel=2 note=70 velocity=92 time=0
EXTRACT: note_on channel=4 note=57 velocity=75 time=0
EXTRACT: note_on channel=9 note=40 velocity=127 time=0
EXTRACT: note_on channel=9 note=46 velocity=127 time=0
EXTRACT: note_on channel=2 note=62 velocity=0 time=0.1764705
EXTRACT: note_on channel=2 note=67 velocity=0 time=0
EXTRACT: note_on channel=2 note=70 velocity=0 time=0
EXTRACT: note_on channel=1 note=43 velocity=0 time=0
EXTRACT: note_on channel=2 note=62 velocity=92 time=0
EXTRACT: note_on channel=1 note=43 velocity=127 time=0
EXTRACT: note_on channel=2 note=62 velocity=0 time=0.1764705
EXTRACT: note_on channel=1 note=43 velocity=0 time=0
EXTRACT: note_on channel=9 note=40 velocity=0 time=0
EXTRACT: note_on channel=3 note=69 velocity=0 time=0
EXTRACT: note_on channel=2 note=67 velocity=92 time=0
EXTRACT: note_on channel=1 note=45 velocity=127 time=0
EXTRACT: note_on channel=3 note=65 velocity=110 time=0
EXTRACT: note_on channel=3 note=65 velocity=0 time=0.249999875
EXTRACT: note_on channel=2 note=67 velocity=0 time=0.102941125
EXTRACT: note_on channel=1 note=45 velocity=0 time=0
EXTRACT: note_on channel=4 note=57 velocity=0 time=0
EXTRACT: note_on channel=9 note=46 velocity=0 time=0
EXTRACT: note_on channel=2 note=62 velocity=92 time=0
EXTRACT: note_on channel=2 note=65 velocity=92 time=0
EXTRACT: note_on channel=2 note=70 velocity=92 time=0
EXTRACT: note_on channel=1 note=46 velocity=127 time=0
EXTRACT: note_on channel=4 note=58 velocity=75 time=0
EXTRACT: note_on channel=9 note=36 velocity=127 time=0
EXTRACT: note_on channel=3 note=70 velocity=110 time=0
EXTRACT: note_on channel=9 note=46 velocity=127 time=0.352941
EXTRACT: note_on channel=3 note=70 velocity=0 time=0.1764705
EXTRACT: note_on channel=3 note=69 velocity=110 time=0
EXTRACT: note_on channel=2 note=62 velocity=0 time=0.1764705
EXTRACT: note_on channel=2 note=65 velocity=0 time=0
EXTRACT: note_on channel=2 note=70 velocity=0 time=0
EXTRACT: note_on channel=9 note=36 velocity=0 time=0
EXTRACT: note_on channel=9 note=46 velocity=0 time=0
EXTRACT: note_on channel=2 note=62 velocity=92 time=0
EXTRACT: note_on channel=2 note=65 velocity=92 time=0
EXTRACT: note_on channel=2 note=70 velocity=92 time=0
EXTRACT: note_on channel=9 note=40 velocity=127 time=0
EXTRACT: note_on channel=9 note=46 velocity=127 time=0
EXTRACT: note_on channel=9 note=46 velocity=0 time=0.1764705
EXTRACT: note_on channel=9 note=40 velocity=0 time=0.1764705
EXTRACT: note_on channel=3 note=69 velocity=0 time=0
EXTRACT: note_on channel=9 note=36 velocity=127 time=0
EXTRACT: note_on channel=9 note=42 velocity=127 time=0
EXTRACT: note_on channel=3 note=65 velocity=110 time=0
EXTRACT: note_on channel=9 note=42 velocity=0 time=0.1764705
EXTRACT: note_on channel=3 note=65 velocity=0 time=0.07352937500000001
EXTRACT: note_on channel=2 note=62 velocity=0 time=0.102941125
EXTRACT: note_on channel=2 note=65 velocity=0 time=0
EXTRACT: note_on channel=2 note=70 velocity=0 time=0
EXTRACT: note_on channel=2 note=62 velocity=92 time=0
EXTRACT: note_on channel=2 note=65 velocity=92 time=0
EXTRACT: note_on channel=2 note=70 velocity=92 time=0
EXTRACT: note_on channel=3 note=70 velocity=110 time=0
EXTRACT: note_on channel=9 note=42 velocity=127 time=0.1764705
EXTRACT: note_on channel=9 note=36 velocity=0 time=0.1764705
EXTRACT: note_on channel=9 note=42 velocity=0 time=0
EXTRACT: note_on channel=9 note=36 velocity=127 time=0
EXTRACT: note_on channel=9 note=42 velocity=127 time=0
EXTRACT: note_on channel=2 note=62 velocity=0 time=0.352941
EXTRACT: note_on channel=2 note=65 velocity=0 time=0
EXTRACT: note_on channel=2 note=70 velocity=0 time=0
EXTRACT: note_on channel=9 note=36 velocity=0 time=0
EXTRACT: note_on channel=9 note=42 velocity=0 time=0
EXTRACT: note_on channel=2 note=62 velocity=92 time=0
EXTRACT: note_on channel=2 note=65 velocity=92 time=0
EXTRACT: note_on channel=2 note=70 velocity=92 time=0
EXTRACT: note_on channel=9 note=40 velocity=127 time=0
EXTRACT: note_on channel=9 note=46 velocity=127 time=0
EXTRACT: note_on channel=9 note=40 velocity=0 time=0.352941
EXTRACT: note_on channel=3 note=70 velocity=0 time=0
EXTRACT: note_on channel=3 note=65 velocity=110 time=0
EXTRACT: note_on channel=1 note=46 velocity=0 time=0.352941
EXTRACT: note_on channel=4 note=58 velocity=0 time=0
EXTRACT: note_on channel=2 note=62 velocity=0 time=0
EXTRACT: note_on channel=2 note=65 velocity=0 time=0
EXTRACT: note_on channel=2 note=70 velocity=0 time=0
EXTRACT: note_on channel=9 note=46 velocity=0 time=0
EXTRACT: note_on channel=3 note=65 velocity=0 time=0
EXTRACT: note_on channel=2 note=60 velocity=92 time=0
EXTRACT: note_on channel=2 note=65 velocity=92 time=0
EXTRACT: note_on channel=2 note=69 velocity=92 time=0
EXTRACT: note_on channel=1 note=41 velocity=127 time=0
EXTRACT: note_on channel=4 note=57 velocity=75 time=0
EXTRACT: note_on channel=9 note=36 velocity=127 time=0
EXTRACT: note_on channel=3 note=67 velocity=110 time=0
EXTRACT: note_on channel=9 note=46 velocity=127 time=0.352941
EXTRACT: note_on channel=3 note=67 velocity=0 time=0.1764705
EXTRACT: note_on channel=3 note=69 velocity=110 time=0
EXTRACT: note_on channel=2 note=60 velocity=0 time=0.1764705
EXTRACT: note_on channel=2 note=65 velocity=0 time=0
EXTRACT: note_on channel=2 note=69 velocity=0 time=0
EXTRACT: note_on channel=9 note=36 velocity=0 time=0
EXTRACT: note_on channel=9 note=46 velocity=0 time=0
EXTRACT: note_on channel=2 note=60 velocity=92 time=0
EXTRACT: note_on channel=2 note=65 velocity=92 time=0
EXTRACT: note_on channel=2 note=69 velocity=92 time=0
EXTRACT: note_on channel=9 note=40 velocity=127 time=0
EXTRACT: note_on channel=9 note=46 velocity=127 time=0
EXTRACT: note_on channel=9 note=46 velocity=0 time=0.1764705
EXTRACT: note_on channel=9 note=40 velocity=0 time=0.1764705
EXTRACT: note_on channel=3 note=69 velocity=0 time=0
EXTRACT: note_on channel=9 note=36 velocity=127 time=0
EXTRACT: note_on channel=9 note=42 velocity=127 time=0
EXTRACT: note_on channel=3 note=65 velocity=110 time=0
EXTRACT: note_on channel=9 note=42 velocity=0 time=0.1764705
EXTRACT: note_on channel=3 note=65 velocity=0 time=0.07352937500000001
EXTRACT: note_on channel=2 note=60 velocity=0 time=0.102941125
EXTRACT: note_on channel=2 note=65 velocity=0 time=0
EXTRACT: note_on channel=2 note=69 velocity=0 time=0
EXTRACT: note_on channel=2 note=60 velocity=92 time=0
EXTRACT: note_on channel=2 note=65 velocity=92 time=0
EXTRACT: note_on channel=2 note=69 velocity=92 time=0
EXTRACT: note_on channel=3 note=67 velocity=110 time=0
EXTRACT: note_on channel=9 note=42 velocity=127 time=0.1764705
EXTRACT: note_on channel=9 note=36 velocity=0 time=0.1764705
EXTRACT: note_on channel=9 note=42 velocity=0 time=0
EXTRACT: note_on channel=9 note=36 velocity=127 time=0
EXTRACT: note_on channel=9 note=42 velocity=127 time=0
EXTRACT: note_on channel=3 note=67 velocity=0 time=0.1764705
EXTRACT: note_on channel=3 note=69 velocity=110 time=0
EXTRACT: note_on channel=2 note=60 velocity=0 time=0.1764705
EXTRACT: note_on channel=2 note=65 velocity=0 time=0
EXTRACT: note_on channel=2 note=69 velocity=0 time=0
EXTRACT: note_on channel=9 note=36 velocity=0 time=0
EXTRACT: note_on channel=9 note=42 velocity=0 time=0
EXTRACT: note_on channel=2 note=60 velocity=92 time=0
EXTRACT: note_on channel=2 note=65 velocity=92 time=0
EXTRACT: note_on channel=2 note=69 velocity=92 time=0
EXTRACT: note_on channel=9 note=40 velocity=127 time=0
EXTRACT: note_on channel=9 note=46 velocity=127 time=0
EXTRACT: note_on channel=9 note=40 velocity=0 time=0.352941
EXTRACT: note_on channel=3 note=69 velocity=0 time=0
EXTRACT: note_on channel=3 note=65 velocity=110 time=0
EXTRACT: note_on channel=3 note=65 velocity=0 time=0.249999875
EXTRACT: note_on channel=1 note=41 velocity=0 time=0.102941125
EXTRACT: note_on channel=4 note=57 velocity=0 time=0
EXTRACT: note_on channel=2 note=60 velocity=0 time=0
EXTRACT: note_on channel=2 note=65 velocity=0 time=0
EXTRACT: note_on channel=2 note=69 velocity=0 time=0
EXTRACT: note_on channel=9 note=46 velocity=0 time=0
EXTRACT: note_on channel=2 note=64 velocity=92 time=0
EXTRACT: note_on channel=2 note=67 velocity=92 time=0
EXTRACT: note_on channel=2 note=72 velocity=92 time=0
EXTRACT: note_on channel=1 note=40 velocity=127 time=0
EXTRACT: note_on channel=4 note=55 velocity=75 time=0
EXTRACT: note_on channel=9 note=36 velocity=127 time=0
EXTRACT: note_on channel=3 note=67 velocity=110 time=0
EXTRACT: note_on channel=9 note=46 velocity=127 time=0.352941
EXTRACT: note_on channel=3 note=67 velocity=0 time=0.1764705
EXTRACT: note_on channel=3 note=69 velocity=110 time=0
EXTRACT: note_on channel=2 note=64 velocity=0 time=0.1764705
EXTRACT: note_on channel=2 note=67 velocity=0 time=0
EXTRACT: note_on channel=2 note=72 velocity=0 time=0
EXTRACT: note_on channel=9 note=36 velocity=0 time=0
EXTRACT: note_on channel=9 note=46 velocity=0 time=0
EXTRACT: note_on channel=2 note=64 velocity=92 time=0
EXTRACT: note_on channel=2 note=67 velocity=92 time=0
EXTRACT: note_on channel=2 note=72 velocity=92 time=0
EXTRACT: note_on channel=9 note=40 velocity=127 time=0
EXTRACT: note_on channel=9 note=46 velocity=127 time=0
EXTRACT: note_on channel=9 note=46 velocity=0 time=0.1764705
EXTRACT: note_on channel=9 note=40 velocity=0 time=0.1764705
EXTRACT: note_on channel=3 note=69 velocity=0 time=0
EXTRACT: note_on channel=9 note=36 velocity=127 time=0
EXTRACT: note_on channel=9 note=42 velocity=127 time=0
EXTRACT: note_on channel=3 note=65 velocity=110 time=0
EXTRACT: note_on channel=9 note=42 velocity=0 time=0.1764705
EXTRACT: note_on channel=2 note=64 velocity=0 time=0.1764705
EXTRACT: note_on channel=2 note=67 velocity=0 time=0
EXTRACT: note_on channel=2 note=72 velocity=0 time=0
EXTRACT: note_on channel=3 note=65 velocity=0 time=0
EXTRACT: note_on channel=2 note=64 velocity=92 time=0
EXTRACT: note_on channel=2 note=67 velocity=92 time=0
EXTRACT: note_on channel=2 note=72 velocity=92 time=0
EXTRACT: note_on channel=3 note=67 velocity=110 time=0
EXTRACT: note_on channel=9 note=36 velocity=0 time=0.1764705
EXTRACT: note_on channel=9 note=36 velocity=127 time=0
EXTRACT: note_on channel=9 note=42 velocity=127 time=0
EXTRACT: note_on channel=9 note=36 velocity=0 time=0.1764705
EXTRACT: note_on channel=9 note=42 velocity=0 time=0
EXTRACT: note_on channel=9 note=36 velocity=127 time=0
EXTRACT: note_on channel=9 note=42 velocity=127 time=0
EXTRACT: note_on channel=4 note=55 velocity=0 time=0.352941
EXTRACT: note_on channel=2 note=64 velocity=0 time=0
EXTRACT: note_on channel=2 note=67 velocity=0 time=0
EXTRACT: note_on channel=2 note=72 velocity=0 time=0
EXTRACT: note_on channel=9 note=36 velocity=0 time=0
EXTRACT: note_on channel=9 note=42 velocity=0 time=0
EXTRACT: note_on channel=2 note=64 velocity=92 time=0
EXTRACT: note_on channel=2 note=67 velocity=92 time=0
EXTRACT: note_on channel=2 note=72 velocity=92 time=0
EXTRACT: note_on channel=4 note=57 velocity=75 time=0
EXTRACT: note_on channel=9 note=40 velocity=127 time=0
EXTRACT: note_on channel=9 note=46 velocity=127 time=0
EXTRACT: note_on channel=3 note=67 velocity=0 time=0.1764705
EXTRACT: note_on channel=3 note=65 velocity=110 time=0
EXTRACT: note_on channel=9 note=40 velocity=0 time=0.1764705
EXTRACT: note_on channel=3 note=65 velocity=0 time=0
EXTRACT: note_on channel=3 note=69 velocity=110 time=0
EXTRACT: note_on channel=3 note=69 velocity=0 time=0.1764705
EXTRACT: note_on channel=3 note=72 velocity=110 time=0
EXTRACT: note_on channel=1 note=40 velocity=0 time=0.1764705
EXTRACT: note_on channel=2 note=64 velocity=0 time=0
EXTRACT: note_on channel=2 note=67 velocity=0 time=0
EXTRACT: note_on channel=2 note=72 velocity=0 time=0
EXTRACT: note_on channel=4 note=57 velocity=0 time=0
EXTRACT: note_on channel=9 note=46 velocity=0 time=0
EXTRACT: note_on channel=3 note=72 velocity=0 time=0
EXTRACT: note_on channel=2 note=62 velocity=92 time=0
EXTRACT: note_on channel=2 note=67 velocity=92 time=0
EXTRACT: note_on channel=2 note=70 velocity=92 time=0
EXTRACT: note_on channel=1 note=43 velocity=127 time=0
EXTRACT: note_on channel=4 note=58 velocity=75 time=0
EXTRACT: note_on channel=9 note=36 velocity=127 time=0
EXTRACT: note_on channel=3 note=70 velocity=110 time=0
EXTRACT: note_on channel=9 note=46 velocity=127 time=0.352941
EXTRACT: note_on channel=3 note=70 velocity=0 time=0.1764705
EXTRACT: note_on channel=3 note=69 velocity=110 time=0
EXTRACT: note_on channel=2 note=62 velocity=0 time=0.1764705
EXTRACT: note_on channel=2 note=67 velocity=0 time=0
EXTRACT: note_on channel=2 note=70 velocity=0 time=0
EXTRACT: note_on channel=9 note=36 velocity=0 time=0
EXTRACT: note_on channel=9 note=46 velocity=0 time=0
EXTRACT: note_on channel=2 note=62 velocity=92 time=0
EXTRACT: note_on channel=2 note=67 velocity=92 time=0
EXTRACT: note_on channel=2 note=70 velocity=92 time=0
EXTRACT: note_on channel=9 note=40 velocity=127 time=0
EXTRACT: note_on channel=9 note=46 velocity=127 time=0
EXTRACT: note_on channel=9 note=46 velocity=0 time=0.1764705
EXTRACT: note_on channel=9 note=40 velocity=0 time=0.1764705
EXTRACT: note_on channel=3 note=69 velocity=0 time=0
EXTRACT: note_on channel=9 note=36 velocity=127 time=0
EXTRACT: note_on channel=9 note=42 velocity=127 time=0
EXTRACT: note_on channel=3 note=65 velocity=110 time=0
EXTRACT: note_on channel=9 note=42 velocity=0 time=0.1764705
EXTRACT: note_on channel=3 note=65 velocity=0 time=0.07352937500000001
EXTRACT: note_on channel=2 note=62 velocity=0 time=0.102941125
EXTRACT: note_on channel=2 note=67 velocity=0 time=0
EXTRACT: note_on channel=2 note=70 velocity=0 time=0
EXTRACT: note_on channel=2 note=62 velocity=92 time=0
EXTRACT: note_on channel=2 note=67 velocity=92 time=0
EXTRACT: note_on channel=2 note=70 velocity=92 time=0
EXTRACT: note_on channel=3 note=70 velocity=110 time=0
EXTRACT: note_on channel=9 note=42 velocity=127 time=0.1764705
EXTRACT: note_on channel=9 note=36 velocity=0 time=0.1764705
EXTRACT: note_on channel=9 note=42 velocity=0 time=0
EXTRACT: note_on channel=9 note=36 velocity=127 time=0
EXTRACT: note_on channel=9 note=42 velocity=127 time=0
EXTRACT: note_on channel=3 note=70 velocity=0 time=0.1764705
EXTRACT: note_on channel=3 note=69 velocity=110 time=0
EXTRACT: note_on channel=4 note=58 velocity=0 time=0.1764705
EXTRACT: note_on channel=2 note=62 velocity=0 time=0
EXTRACT: note_on channel=2 note=67 velocity=0 time=0
EXTRACT: note_on channel=2 note=70 velocity=0 time=0
EXTRACT: note_on channel=1 note=43 velocity=0 time=0
EXTRACT: note_on channel=9 note=36 velocity=0 time=0
EXTRACT: note_on channel=9 note=42 velocity=0 time=0
EXTRACT: note_on channel=2 note=62 velocity=92 time=0
EXTRACT: note_on channel=2 note=67 velocity=92 time=0
EXTRACT: note_on channel=2 note=70 velocity=92 time=0
EXTRACT: note_on channel=1 note=43 velocity=127 time=0
EXTRACT: note_on channel=4 note=60 velocity=75 time=0
EXTRACT: note_on channel=9 note=40 velocity=127 time=0
EXTRACT: note_on channel=9 note=46 velocity=127 time=0
EXTRACT: note_on channel=1 note=43 velocity=0 time=0.1764705
EXTRACT: note_on channel=1 note=43 velocity=127 time=0
EXTRACT: note_on channel=1 note=43 velocity=0 time=0.1764705
EXTRACT: note_on channel=9 note=40 velocity=0 time=0
EXTRACT: note_on channel=3 note=69 velocity=0 time=0
EXTRACT: note_on channel=1 note=45 velocity=127 time=0
EXTRACT: note_on channel=3 note=65 velocity=110 time=0
EXTRACT: note_on channel=3 note=65 velocity=0 time=0.249999875
EXTRACT: note_on channel=2 note=62 velocity=0 time=0.102941125
EXTRACT: note_on channel=2 note=67 velocity=0 time=0
EXTRACT: note_on channel=2 note=70 velocity=0 time=0
EXTRACT: note_on channel=1 note=45 velocity=0 time=0
EXTRACT: note_on channel=4 note=60 velocity=0 time=0
EXTRACT: note_on channel=9 note=46 velocity=0 time=0
EXTRACT: note_on channel=2 note=62 velocity=92 time=0
EXTRACT: note_on channel=2 note=65 velocity=92 time=0
EXTRACT: note_on channel=2 note=70 velocity=92 time=0
EXTRACT: note_on channel=1 note=46 velocity=127 time=0
EXTRACT: note_on channel=4 note=62 velocity=75 time=0
EXTRACT: note_on channel=9 note=36 velocity=127 time=0
EXTRACT: note_on channel=3 note=70 velocity=110 time=0
EXTRACT: note_on channel=9 note=46 velocity=127 time=0.352941
EXTRACT: note_on channel=3 note=70 velocity=0 time=0.1764705
EXTRACT: note_on channel=3 note=69 velocity=110 time=0
EXTRACT: note_on channel=2 note=62 velocity=0 time=0.1764705
EXTRACT: note_on channel=2 note=65 velocity=0 time=0
EXTRACT: note_on channel=2 note=70 velocity=0 time=0
EXTRACT: note_on channel=9 note=36 velocity=0 time=0
EXTRACT: note_on channel=9 note=46 velocity=0 time=0
EXTRACT: note_on channel=2 note=62 velocity=92 time=0
EXTRACT: note_on channel=2 note=65 velocity=92 time=0
EXTRACT: note_on channel=2 note=70 velocity=92 time=0
EXTRACT: note_on channel=9 note=40 velocity=127 time=0
EXTRACT: note_on channel=9 note=46 velocity=127 time=0
EXTRACT: note_on channel=9 note=46 velocity=0 time=0.1764705
EXTRACT: note_on channel=9 note=40 velocity=0 time=0.1764705
EXTRACT: note_on channel=3 note=69 velocity=0 time=0
EXTRACT: note_on channel=9 note=36 velocity=127 time=0
EXTRACT: note_on channel=9 note=42 velocity=127 time=0
EXTRACT: note_on channel=3 note=65 velocity=110 time=0
EXTRACT: note_on channel=9 note=42 velocity=0 time=0.1764705
EXTRACT: note_on channel=3 note=65 velocity=0 time=0.07352937500000001
EXTRACT: note_on channel=2 note=62 velocity=0 time=0.102941125
EXTRACT: note_on channel=2 note=65 velocity=0 time=0
EXTRACT: note_on channel=2 note=70 velocity=0 time=0
EXTRACT: note_on channel=2 note=62 velocity=92 time=0
EXTRACT: note_on channel=2 note=65 velocity=92 time=0
EXTRACT: note_on channel=2 note=70 velocity=92 time=0
EXTRACT: note_on channel=3 note=70 velocity=110 time=0
EXTRACT: note_on channel=9 note=42 velocity=127 time=0.1764705
EXTRACT: note_on channel=9 note=36 velocity=0 time=0.1764705
EXTRACT: note_on channel=9 note=42 velocity=0 time=0
EXTRACT: note_on channel=9 note=36 velocity=127 time=0
EXTRACT: note_on channel=9 note=42 velocity=127 time=0
EXTRACT: note_on channel=2 note=62 velocity=0 time=0.352941
EXTRACT: note_on channel=2 note=65 velocity=0 time=0
EXTRACT: note_on channel=2 note=70 velocity=0 time=0
EXTRACT: note_on channel=9 note=36 velocity=0 time=0
EXTRACT: note_on channel=9 note=42 velocity=0 time=0
EXTRACT: note_on channel=2 note=62 velocity=92 time=0
EXTRACT: note_on channel=2 note=65 velocity=92 time=0
EXTRACT: note_on channel=2 note=70 velocity=92 time=0
EXTRACT: note_on channel=9 note=40 velocity=127 time=0
EXTRACT: note_on channel=9 note=46 velocity=127 time=0
EXTRACT: note_on channel=9 note=40 velocity=0 time=0.352941
EXTRACT: note_on channel=3 note=70 velocity=0 time=0
EXTRACT: note_on channel=3 note=65 velocity=110 time=0
EXTRACT: note_on channel=1 note=46 velocity=0 time=0.352941
EXTRACT: note_on channel=4 note=62 velocity=0 time=0
EXTRACT: note_on channel=2 note=62 velocity=0 time=0
EXTRACT: note_on channel=2 note=65 velocity=0 time=0
EXTRACT: note_on channel=2 note=70 velocity=0 time=0
EXTRACT: note_on channel=9 note=46 velocity=0 time=0
EXTRACT: note_on channel=3 note=65 velocity=0 time=0
EXTRACT: note_on channel=2 note=60 velocity=92 time=0
EXTRACT: note_on channel=2 note=65 velocity=92 time=0
EXTRACT: note_on channel=2 note=69 velocity=92 time=0
EXTRACT: note_on channel=1 note=41 velocity=127 time=0
EXTRACT: note_on channel=4 note=57 velocity=75 time=0
EXTRACT: note_on channel=9 note=36 velocity=127 time=0
EXTRACT: note_on channel=3 note=67 velocity=110 time=0
EXTRACT: note_on channel=9 note=46 velocity=127 time=0.352941
EXTRACT: note_on channel=3 note=67 velocity=0 time=0.1764705
EXTRACT: note_on channel=3 note=69 velocity=110 time=0
EXTRACT: note_on channel=2 note=60 velocity=0 time=0.1764705
EXTRACT: note_on channel=2 note=65 velocity=0 time=0
EXTRACT: note_on channel=2 note=69 velocity=0 time=0
EXTRACT: note_on channel=9 note=36 velocity=0 time=0
EXTRACT: note_on channel=9 note=46 velocity=0 time=0
EXTRACT: note_on channel=2 note=60 velocity=92 time=0
EXTRACT: note_on channel=2 note=65 velocity=92 time=0
EXTRACT: note_on channel=2 note=69 velocity=92 time=0
EXTRACT: note_on channel=9 note=40 velocity=127 time=0
EXTRACT: note_on channel=9 note=46 velocity=127 time=0
EXTRACT: note_on channel=9 note=46 velocity=0 time=0.1764705
EXTRACT: note_on channel=9 note=40 velocity=0 time=0.1764705
EXTRACT: note_on channel=3 note=69 velocity=0 time=0
EXTRACT: note_on channel=9 note=36 velocity=127 time=0
EXTRACT: note_on channel=9 note=42 velocity=127 time=0
EXTRACT: note_on channel=3 note=72 velocity=110 time=0
EXTRACT: note_on channel=9 note=42 velocity=0 time=0.1764705
EXTRACT: note_on channel=2 note=60 velocity=0 time=0.1764705
EXTRACT: note_on channel=2 note=65 velocity=0 time=0
EXTRACT: note_on channel=2 note=69 velocity=0 time=0
EXTRACT: note_on channel=3 note=72 velocity=0 time=0
EXTRACT: note_on channel=2 note=60 velocity=92 time=0
EXTRACT: note_on channel=2 note=65 velocity=92 time=0
EXTRACT: note_on channel=2 note=69 velocity=92 time=0
EXTRACT: note_on channel=3 note=72 velocity=110 time=0
EXTRACT: note_on channel=9 note=42 velocity=127 time=0.1764705
EXTRACT: note_on channel=9 note=36 velocity=0 time=0.1764705
EXTRACT: note_on channel=9 note=42 velocity=0 time=0
EXTRACT: note_on channel=3 note=72 velocity=0 time=0
EXTRACT: note_on channel=9 note=36 velocity=127 time=0
EXTRACT: note_on channel=9 note=42 velocity=127 time=0
EXTRACT: note_on channel=3 note=69 velocity=110 time=0
EXTRACT: note_on channel=3 note=69 velocity=0 time=0.1764705
EXTRACT: note_on channel=3 note=72 velocity=110 time=0
EXTRACT: note_on channel=2 note=60 velocity=0 time=0.1764705
EXTRACT: note_on channel=2 note=65 velocity=0 time=0
EXTRACT: note_on channel=2 note=69 velocity=0 time=0
EXTRACT: note_on channel=9 note=36 velocity=0 time=0
EXTRACT: note_on channel=9 note=42 velocity=0 time=0
EXTRACT: note_on channel=2 note=60 velocity=92 time=0
EXTRACT: note_on channel=2 note=65 velocity=92 time=0
EXTRACT: note_on channel=2 note=69 velocity=92 time=0
EXTRACT: note_on channel=9 note=40 velocity=127 time=0
EXTRACT: note_on channel=9 note=46 velocity=127 time=0
EXTRACT: note_on channel=9 note=40 velocity=0 time=0.352941
EXTRACT: note_on channel=3 note=72 velocity=0 time=0
EXTRACT: note_on channel=3 note=72 velocity=110 time=0
EXTRACT: note_on channel=1 note=41 velocity=0 time=0.1764705
EXTRACT: note_on channel=1 note=40 velocity=127 time=0
EXTRACT: note_on channel=4 note=57 velocity=0 time=0.1764705
EXTRACT: note_on channel=2 note=60 velocity=0 time=0
EXTRACT: note_on channel=2 note=65 velocity=0 time=0
EXTRACT: note_on channel=2 note=69 velocity=0 time=0
EXTRACT: note_on channel=1 note=40 velocity=0 time=0
EXTRACT: note_on channel=9 note=46 velocity=0 time=0
EXTRACT: note_on channel=3 note=72 velocity=0 time=0
EXTRACT: note_on channel=2 note=64 velocity=92 time=0
EXTRACT: note_on channel=2 note=67 velocity=92 time=0
EXTRACT: note_on channel=2 note=72 velocity=92 time=0
EXTRACT: note_on channel=1 note=48 velocity=127 time=0
EXTRACT: note_on channel=4 note=55 velocity=75 time=0
EXTRACT: note_on channel=9 note=36 velocity=127 time=0
EXTRACT: note_on channel=3 note=74 velocity=110 time=0
EXTRACT: note_on channel=9 note=46 velocity=127 time=0.352941
EXTRACT: note_on channel=3 note=74 velocity=0 time=0.1764705
EXTRACT: note_on channel=3 note=72 velocity=110 time=0
EXTRACT: note_on channel=2 note=64 velocity=0 time=0.1764705
EXTRACT: note_on channel=2 note=67 velocity=0 time=0
EXTRACT: note_on channel=2 note=72 velocity=0 time=0
EXTRACT: note_on channel=9 note=36 velocity=0 time=0
EXTRACT: note_on channel=9 note=46 velocity=0 time=0
EXTRACT: note_on channel=2 note=64 velocity=92 time=0
EXTRACT: note_on channel=2 note=67 velocity=92 time=0
EXTRACT: note_on channel=2 note=72 velocity=92 time=0
EXTRACT: note_on channel=9 note=40 velocity=127 time=0
EXTRACT: note_on channel=9 note=46 velocity=127 time=0
EXTRACT: note_on channel=9 note=46 velocity=0 time=0.1764705
EXTRACT: note_on channel=9 note=40 velocity=0 time=0.1764705
EXTRACT: note_on channel=3 note=72 velocity=0 time=0
EXTRACT: note_on channel=9 note=36 velocity=127 time=0
EXTRACT: note_on channel=9 note=42 velocity=127 time=0
EXTRACT: note_on channel=3 note=69 velocity=110 time=0
EXTRACT: note_on channel=1 note=48 velocity=0 time=0.1764705
EXTRACT: note_on channel=9 note=42 velocity=0 time=0
EXTRACT: note_on channel=1 note=40 velocity=127 time=0
EXTRACT: note_on channel=2 note=64 velocity=0 time=0.1764705
EXTRACT: note_on channel=2 note=67 velocity=0 time=0
EXTRACT: note_on channel=2 note=72 velocity=0 time=0
EXTRACT: note_on channel=1 note=40 velocity=0 time=0
EXTRACT: note_on channel=3 note=69 velocity=0 time=0
EXTRACT: note_on channel=2 note=64 velocity=92 time=0
EXTRACT: note_on channel=2 note=67 velocity=92 time=0
EXTRACT: note_on channel=2 note=72 velocity=92 time=0
EXTRACT: note_on channel=1 note=48 velocity=127 time=0
EXTRACT: note_on channel=3 note=69 velocity=110 time=0
EXTRACT: note_on channel=9 note=36 velocity=0 time=0.1764705
EXTRACT: note_on channel=9 note=36 velocity=127 time=0
EXTRACT: note_on channel=9 note=42 velocity=127 time=0
EXTRACT: note_on channel=9 note=36 velocity=0 time=0.1764705
EXTRACT: note_on channel=9 note=42 velocity=0 time=0
EXTRACT: note_on channel=3 note=69 velocity=0 time=0
EXTRACT: note_on channel=9 note=36 velocity=127 time=0
EXTRACT: note_on channel=9 note=42 velocity=127 time=0
EXTRACT: note_on channel=3 note=70 velocity=110 time=0
EXTRACT: note_on channel=3 note=70 velocity=0 time=0.1764705
EXTRACT: note_on channel=3 note=69 velocity=110 time=0
EXTRACT: note_on channel=2 note=64 velocity=0 time=0.1764705
EXTRACT: note_on channel=2 note=67 velocity=0 time=0
EXTRACT: note_on channel=2 note=72 velocity=0 time=0
EXTRACT: note_on channel=9 note=36 velocity=0 time=0
EXTRACT: note_on channel=9 note=42 velocity=0 time=0
EXTRACT: note_on channel=3 note=69 velocity=0 time=0
EXTRACT: note_on channel=2 note=64 velocity=92 time=0
EXTRACT: note_on channel=2 note=67 velocity=92 time=0
EXTRACT: note_on channel=2 note=72 velocity=92 time=0
EXTRACT: note_on channel=9 note=40 velocity=127 time=0
EXTRACT: note_on channel=9 note=46 velocity=127 time=0
EXTRACT: note_on channel=3 note=67 velocity=110 time=0
EXTRACT: note_on channel=9 note=40 velocity=0 time=0.352941
EXTRACT: note_on channel=3 note=67 velocity=0 time=0
EXTRACT: note_on channel=4 note=55 velocity=0 time=0.352941
EXTRACT: note_on channel=2 note=64 velocity=0 time=0
EXTRACT: note_on channel=2 note=67 velocity=0 time=0
EXTRACT: note_on channel=2 note=72 velocity=0 time=0
EXTRACT: note_on channel=1 note=48 velocity=0 time=0
EXTRACT: note_on channel=9 note=46 velocity=0 time=0
EXTRACT: program_change channel=6 program=50 time=0
EXTRACT: note_on channel=2 note=65 velocity=60 time=0
EXTRACT: note_on channel=2 note=69 velocity=60 time=0
EXTRACT: note_on channel=2 note=74 velocity=60 time=0
EXTRACT: note_on channel=1 note=50 velocity=127 time=0
EXTRACT: note_on channel=4 note=65 velocity=75 time=0
EXTRACT: note_on channel=8 note=84 velocity=75 time=0
EXTRACT: note_on channel=9 note=36 velocity=127 time=0
EXTRACT: note_on channel=5 note=57 velocity=75 time=0
EXTRACT: note_on channel=6 note=50 velocity=75 time=0
EXTRACT: note_on channel=3 note=69 velocity=110 time=0
EXTRACT: note_on channel=3 note=69 velocity=0 time=0.1764705
EXTRACT: note_on channel=3 note=69 velocity=110 time=0
EXTRACT: note_on channel=8 note=84 velocity=0 time=0.1764705
EXTRACT: note_on channel=3 note=69 velocity=0 time=0
EXTRACT: note_on channel=9 note=46 velocity=108 time=0
EXTRACT: note_on channel=3 note=69 velocity=110 time=0
EXTRACT: note_on channel=3 note=69 velocity=0 time=0.1764705
EXTRACT: note_on channel=3 note=69 velocity=110 time=0
EXTRACT: note_on channel=2 note=65 velocity=0 time=0.1764705
EXTRACT: note_on channel=2 note=69 velocity=0 time=0
EXTRACT: note_on channel=2 note=74 velocity=0 time=0
EXTRACT: note_on channel=9 note=36 velocity=0 time=0
EXTRACT: note_on channel=9 note=46 velocity=0 time=0
EXTRACT: note_on channel=3 note=69 velocity=0 time=0
EXTRACT: note_on channel=2 note=65 velocity=60 time=0
EXTRACT: note_on channel=2 note=69 velocity=60 time=0
EXTRACT: note_on channel=2 note=74 velocity=60 time=0
EXTRACT: note_on channel=8 note=84 velocity=75 time=0
EXTRACT: note_on channel=9 note=40 velocity=127 time=0
EXTRACT: note_on channel=9 note=46 velocity=108 time=0
EXTRACT: note_on channel=3 note=69 velocity=110 time=0
EXTRACT: note_on channel=9 note=46 velocity=0 time=0.1764705
EXTRACT: note_on channel=8 note=84 velocity=0 time=0.1764705
EXTRACT: note_on channel=9 note=40 velocity=0 time=0
EXTRACT: note_on channel=3 note=69 velocity=0 time=0
EXTRACT: note_on channel=9 note=36 velocity=127 time=0
EXTRACT: note_on channel=9 note=42 velocity=108 time=0
EXTRACT: note_on channel=3 note=69 velocity=110 time=0
EXTRACT: note_on channel=9 note=42 velocity=0 time=0.1764705
EXTRACT: note_on channel=3 note=69 velocity=0 time=0
EXTRACT: note_on channel=3 note=69 velocity=110 time=0
EXTRACT: note_on channel=2 note=65 velocity=0 time=0.1764705
EXTRACT: note_on channel=2 note=69 velocity=0 time=0
EXTRACT: note_on channel=2 note=74 velocity=0 time=0
EXTRACT: note_on channel=2 note=65 velocity=60 time=0
EXTRACT: note_on channel=2 note=69 velocity=60 time=0
EXTRACT: note_on channel=2 note=74 velocity=60 time=0
EXTRACT: note_on channel=8 note=84 velocity=75 time=0
EXTRACT: note_on channel=3 note=69 velocity=0 time=0.1764705
EXTRACT: note_on channel=9 note=42 velocity=108 time=0
EXTRACT: note_on channel=3 note=67 velocity=110 time=0
EXTRACT: note_on channel=9 note=36 velocity=0 time=0.1764705
EXTRACT: note_on channel=8 note=84 velocity=0 time=0
EXTRACT: note_on channel=9 note=42 velocity=0 time=0
EXTRACT: note_on channel=3 note=67 velocity=0 time=0
EXTRACT: note_on channel=9 note=36 velocity=127 time=0
EXTRACT: note_on channel=9 note=42 velocity=108 time=0
EXTRACT: note_on channel=3 note=67 velocity=110 time=0
EXTRACT: note_on channel=4 note=65 velocity=0 time=0.352941
EXTRACT: note_on channel=2 note=65 velocity=0 time=0
EXTRACT: note_on channel=2 note=69 velocity=0 time=0
EXTRACT: note_on channel=2 note=74 velocity=0 time=0
EXTRACT: note_on channel=9 note=36 velocity=0 time=0
EXTRACT: note_on channel=9 note=42 velocity=0 time=0
EXTRACT: note_on channel=2 note=65 velocity=60 time=0
EXTRACT: note_on channel=2 note=69 velocity=60 time=0
EXTRACT: note_on channel=2 note=74 velocity=60 time=0
EXTRACT: note_on channel=4 note=64 velocity=75 time=0
EXTRACT: note_on channel=8 note=84 velocity=75 time=0
EXTRACT: note_on channel=9 note=40 velocity=127 time=0
EXTRACT: note_on channel=9 note=46 velocity=108 time=0
EXTRACT: note_on channel=8 note=84 velocity=0 time=0.352941
EXTRACT: note_on channel=9 note=40 velocity=0 time=0
EXTRACT: note_on channel=8 note=81 velocity=75 time=0
EXTRACT: note_on channel=1 note=50 velocity=0 time=0.352941
EXTRACT: note_on channel=5 note=57 velocity=0 time=0
EXTRACT: note_on channel=6 note=50 velocity=0 time=0
EXTRACT: note_on channel=2 note=65 velocity=0 time=0
EXTRACT: note_on channel=2 note=69 velocity=0 time=0
EXTRACT: note_on channel=2 note=74 velocity=0 time=0
EXTRACT: note_on channel=4 note=64 velocity=0 time=0
EXTRACT: note_on channel=8 note=81 velocity=0 time=0
EXTRACT: note_on channel=9 note=46 velocity=0 time=0
EXTRACT: note_on channel=3 note=67 velocity=0 time=0
EXTRACT: note_on channel=2 note=65 velocity=60 time=0
EXTRACT: note_on channel=2 note=70 velocity=60 time=0
EXTRACT: note_on channel=2 note=74 velocity=60 time=0
EXTRACT: note_on channel=1 note=46 velocity=127 time=0
EXTRACT: note_on channel=4 note=62 velocity=75 time=0
EXTRACT: note_on channel=8 note=84 velocity=75 time=0
EXTRACT: note_on channel=9 note=36 velocity=127 time=0
EXTRACT: note_on channel=5 note=58 velocity=75 time=0
EXTRACT: note_on channel=6 note=46 velocity=75 time=0
EXTRACT: note_on channel=3 note=69 velocity=110 time=0
EXTRACT: note_on channel=3 note=69 velocity=0 time=0.1764705
EXTRACT: note_on channel=3 note=69 velocity=110 time=0
EXTRACT: note_on channel=8 note=84 velocity=0 time=0.1764705
EXTRACT: note_on channel=3 note=69 velocity=0 time=0
EXTRACT: note_on channel=9 note=46 velocity=108 time=0
EXTRACT: note_on channel=3 note=69 velocity=110 time=0
EXTRACT: note_on channel=3 note=69 velocity=0 time=0.1764705
EXTRACT: note_on channel=3 note=69 velocity=110 time=0
EXTRACT: note_on channel=2 note=65 velocity=0 time=0.1764705
EXTRACT: note_on channel=2 note=70 velocity=0 time=0
EXTRACT: note_on channel=2 note=74 velocity=0 time=0
EXTRACT: note_on channel=9 note=36 velocity=0 time=0
EXTRACT: note_on channel=9 note=46 velocity=0 time=0
EXTRACT: note_on channel=3 note=69 velocity=0 time=0
EXTRACT: note_on channel=2 note=65 velocity=60 time=0
EXTRACT: note_on channel=2 note=70 velocity=60 time=0
EXTRACT: note_on channel=2 note=74 velocity=60 time=0
EXTRACT: note_on channel=8 note=84 velocity=75 time=0
EXTRACT: note_on channel=9 note=40 velocity=127 time=0
EXTRACT: note_on channel=9 note=46 velocity=108 time=0
EXTRACT: note_on channel=3 note=72 velocity=110 time=0
EXTRACT: note_on channel=9 note=46 velocity=0 time=0.1764705
EXTRACT: note_on channel=8 note=84 velocity=0 time=0.1764705
EXTRACT: note_on channel=9 note=40 velocity=0 time=0
EXTRACT: note_on channel=3 note=72 velocity=0 time=0
EXTRACT: note_on channel=9 note=36 velocity=127 time=0
EXTRACT: note_on channel=9 note=42 velocity=108 time=0
EXTRACT: note_on channel=3 note=69 velocity=110 time=0
EXTRACT: note_on channel=9 note=42 velocity=0 time=0.1764705
EXTRACT: note_on channel=2 note=65 velocity=0 time=0.1764705
EXTRACT: note_on channel=2 note=70 velocity=0 time=0
EXTRACT: note_on channel=2 note=74 velocity=0 time=0
EXTRACT: note_on channel=3 note=69 velocity=0 time=0
EXTRACT: note_on channel=2 note=65 velocity=60 time=0
EXTRACT: note_on channel=2 note=70 velocity=60 time=0
EXTRACT: note_on channel=2 note=74 velocity=60 time=0
EXTRACT: note_on channel=8 note=84 velocity=75 time=0
EXTRACT: note_on channel=3 note=69 velocity=110 time=0
EXTRACT: note_on channel=9 note=42 velocity=108 time=0.1764705
EXTRACT: note_on channel=9 note=36 velocity=0 time=0.1764705
EXTRACT: note_on channel=8 note=84 velocity=0 time=0
EXTRACT: note_on channel=9 note=42 velocity=0 time=0
EXTRACT: note_on channel=3 note=69 velocity=0 time=0
EXTRACT: note_on channel=9 note=36 velocity=127 time=0
EXTRACT: note_on channel=9 note=42 velocity=108 time=0
EXTRACT: note_on channel=3 note=67 velocity=110 time=0
EXTRACT: note_on channel=2 note=65 velocity=0 time=0.352941
EXTRACT: note_on channel=2 note=70 velocity=0 time=0
EXTRACT: note_on channel=2 note=74 velocity=0 time=0
EXTRACT: note_on channel=9 note=36 velocity=0 time=0
EXTRACT: note_on channel=9 note=42 velocity=0 time=0
EXTRACT: note_on channel=2 note=65 velocity=60 time=0
EXTRACT: note_on channel=2 note=70 velocity=60 time=0
EXTRACT: note_on channel=2 note=74 velocity=60 time=0
EXTRACT: note_on channel=8 note=84 velocity=75 time=0
EXTRACT: note_on channel=9 note=40 velocity=127 time=0
EXTRACT: note_on channel=9 note=46 velocity=108 time=0
EXTRACT: note_on channel=8 note=84 velocity=0 time=0.352941
EXTRACT: note_on channel=9 note=40 velocity=0 time=0
EXTRACT: note_on channel=8 note=81 velocity=75 time=0
EXTRACT: note_on channel=3 note=67 velocity=0 time=0.1764705
EXTRACT: note_on channel=3 note=65 velocity=110 time=0
EXTRACT: note_on channel=1 note=46 velocity=0 time=0.1764705
EXTRACT: note_on channel=4 note=62 velocity=0 time=0
EXTRACT: note_on channel=5 note=58 velocity=0 time=0
EXTRACT: note_on channel=6 note=46 velocity=0 time=0
EXTRACT: note_on channel=2 note=65 velocity=0 time=0
EXTRACT: note_on channel=2 note=70 velocity=0 time=0
EXTRACT: note_on channel=2 note=74 velocity=0 time=0
EXTRACT: note_on channel=8 note=81 velocity=0 time=0
EXTRACT: note_on channel=9 note=46 velocity=0 time=0
EXTRACT: note_on channel=3 note=65 velocity=0 time=0
EXTRACT: note_on channel=2 note=65 velocity=60 time=0
EXTRACT: note_on channel=2 note=69 velocity=60 time=0
EXTRACT: note_on channel=2 note=72 velocity=60 time=0
EXTRACT: note_on channel=1 note=41 velocity=127 time=0
EXTRACT: note_on channel=4 note=60 velocity=75 time=0
EXTRACT: note_on channel=8 note=84 velocity=75 time=0
EXTRACT: note_on channel=9 note=36 velocity=127 time=0
EXTRACT: note_on channel=5 note=57 velocity=75 time=0
EXTRACT: note_on channel=6 note=41 velocity=75 time=0
EXTRACT: note_on channel=3 note=67 velocity=110 time=0
EXTRACT: note_on channel=3 note=67 velocity=0 time=0.1764705
EXTRACT: note_on channel=3 note=65 velocity=110 time=0
EXTRACT: note_on channel=8 note=84 velocity=0 time=0.1764705
EXTRACT: note_on channel=3 note=65 velocity=0 time=0
EXTRACT: note_on channel=9 note=46 velocity=108 time=0
EXTRACT: note_on channel=3 note=67 velocity=110 time=0
EXTRACT: note_on channel=3 note=67 velocity=0 time=0.1764705
EXTRACT: note_on channel=3 note=65 velocity=110 time=0
EXTRACT: note_on channel=2 note=65 velocity=0 time=0.1764705
EXTRACT: note_on channel=2 note=69 velocity=0 time=0
EXTRACT: note_on channel=2 note=72 velocity=0 time=0
EXTRACT: note_on channel=9 note=36 velocity=0 time=0
EXTRACT: note_on channel=9 note=46 velocity=0 time=0
EXTRACT: note_on channel=3 note=65 velocity=0 time=0
EXTRACT: note_on channel=2 note=65 velocity=60 time=0
EXTRACT: note_on channel=2 note=69 velocity=60 time=0
EXTRACT: note_on channel=9 note=46 velocity=108 time=0
EXTRACT: note_on channel=9 note=40 velocity=127 time=0
EXTRACT: note_on channel=3 note=69 velocity=110 time=0
EXTRACT: note_on channel=8 note=84 velocity=75 time=0
EXTRACT: note_on channel=2 note=72 velocity=60 time=0
EXTRACT: note_on channel=9 note=46 velocity=0 time=0.1764705
EXTRACT: note_on channel=9 note=40 velocity=0 time=0.1764705
EXTRACT: note_on channel=8 note=84 velocity=0 time=0
EXTRACT: note_on channel=3 note=69 velocity=0 time=0
EXTRACT: note_on channel=9 note=42 velocity=108 time=0
EXTRACT: note_on channel=9 note=36 velocity=127 time=0
EXTRACT: note_on channel=3 note=67 velocity=110 time=0
EXTRACT: note_on channel=9 note=42 velocity=0 time=0.1764705
EXTRACT: note_on channel=3 note=67 velocity=0 time=0
EXTRACT: note_on channel=3 note=67 velocity=110 time=0
EXTRACT: note_on channel=2 note=72 velocity=0 time=0.1764705
EXTRACT: note_on channel=2 note=69 velocity=0 time=0
EXTRACT: note_on channel=2 note=65 velocity=0 time=0
EXTRACT: note_on channel=2 note=65 velocity=60 time=0
EXTRACT: note_on channel=2 note=69 velocity=60 time=0
EXTRACT: note_on channel=2 note=72 velocity=60 time=0
EXTRACT: note_on channel=8 note=84 velocity=75 time=0
EXTRACT: note_on channel=3 note=67 velocity=0 time=0.1764705
EXTRACT: note_on channel=9 note=42 velocity=108 time=0
EXTRACT: note_on channel=3 note=65 velocity=110 time=0
EXTRACT: note_on channel=9 note=36 velocity=0 time=0.1764705
EXTRACT: note_on channel=8 note=84 velocity=0 time=0
EXTRACT: note_on channel=9 note=42 velocity=0 time=0
EXTRACT: note_on channel=3 note=65 velocity=0 time=0
EXTRACT: note_on channel=9 note=36 velocity=127 time=0
EXTRACT: note_on channel=9 note=42 velocity=108 time=0
EXTRACT: note_on channel=3 note=65 velocity=110 time=0
EXTRACT: note_on channel=4 note=60 velocity=0 time=0.352941
EXTRACT: note_on channel=2 note=65 velocity=0 time=0
EXTRACT: note_on channel=2 note=69 velocity=0 time=0
EXTRACT: note_on channel=2 note=72 velocity=0 time=0
EXTRACT: note_on channel=9 note=36 velocity=0 time=0
EXTRACT: note_on channel=9 note=42 velocity=0 time=0
EXTRACT: note_on channel=2 note=65 velocity=60 time=0
EXTRACT: note_on channel=2 note=69 velocity=60 time=0
EXTRACT: note_on channel=2 note=72 velocity=60 time=0
EXTRACT: note_on channel=4 note=57 velocity=75 time=0
EXTRACT: note_on channel=8 note=84 velocity=75 time=0
EXTRACT: note_on channel=9 note=40 velocity=127 time=0
EXTRACT: note_on channel=9 note=46 velocity=108 time=0
EXTRACT: note_on channel=3 note=65 velocity=0 time=0.1764705
EXTRACT: note_on channel=3 note=62 velocity=110 time=0
EXTRACT: note_on channel=8 note=84 velocity=0 time=0.1764705
EXTRACT: note_on channel=9 note=40 velocity=0 time=0
EXTRACT: note_on channel=8 note=81 velocity=75 time=0
EXTRACT: note_on channel=1 note=41 velocity=0 time=0.352941
EXTRACT: note_on channel=5 note=57 velocity=0 time=0
EXTRACT: note_on channel=6 note=41 velocity=0 time=0
EXTRACT: note_on channel=2 note=65 velocity=0 time=0
EXTRACT: note_on channel=2 note=69 velocity=0 time=0
EXTRACT: note_on channel=2 note=72 velocity=0 time=0
EXTRACT: note_on channel=4 note=57 velocity=0 time=0
EXTRACT: note_on channel=8 note=81 velocity=0 time=0
EXTRACT: note_on channel=9 note=46 velocity=0 time=0
EXTRACT: note_on channel=3 note=62 velocity=0 time=0
EXTRACT: note_on channel=2 note=64 velocity=60 time=0
EXTRACT: note_on channel=2 note=67 velocity=60 time=0
EXTRACT: note_on channel=2 note=72 velocity=60 time=0
EXTRACT: note_on channel=1 note=40 velocity=127 time=0
EXTRACT: note_on channel=4 note=55 velocity=75 time=0
EXTRACT: note_on channel=8 note=79 velocity=75 time=0
EXTRACT: note_on channel=9 note=36 velocity=127 time=0
EXTRACT: note_on channel=5 note=55 velocity=75 time=0
EXTRACT: note_on channel=6 note=40 velocity=75 time=0
EXTRACT: note_on channel=3 note=65 velocity=110 time=0
EXTRACT: note_on channel=3 note=65 velocity=0 time=0.1764705
EXTRACT: note_on channel=3 note=62 velocity=110 time=0
EXTRACT: note_on channel=8 note=79 velocity=0 time=0.1764705
EXTRACT: note_on channel=3 note=62 velocity=0 time=0
EXTRACT: note_on channel=9 note=46 velocity=108 time=0
EXTRACT: note_on channel=3 note=65 velocity=110 time=0
EXTRACT: note_on channel=3 note=65 velocity=0 time=0.1764705
EXTRACT: note_on channel=3 note=62 velocity=110 time=0
EXTRACT: note_on channel=2 note=64 velocity=0 time=0.1764705
EXTRACT: note_on channel=2 note=67 velocity=0 time=0
EXTRACT: note_on channel=2 note=72 velocity=0 time=0
EXTRACT: note_on channel=9 note=36 velocity=0 time=0
EXTRACT: note_on channel=9 note=46 velocity=0 time=0
EXTRACT: note_on channel=3 note=62 velocity=0 time=0
EXTRACT: note_on channel=2 note=64 velocity=60 time=0
EXTRACT: note_on channel=2 note=67 velocity=60 time=0
EXTRACT: note_on channel=2 note=72 velocity=60 time=0
EXTRACT: note_on channel=8 note=79 velocity=75 time=0
EXTRACT: note_on channel=9 note=40 velocity=127 time=0
EXTRACT: note_on channel=9 note=46 velocity=108 time=0
EXTRACT: note_on channel=3 note=67 velocity=110 time=0
EXTRACT: note_on channel=9 note=46 velocity=0 time=0.1764705
EXTRACT: note_on channel=8 note=79 velocity=0 time=0.1764705
EXTRACT: note_on channel=9 note=40 velocity=0 time=0
EXTRACT: note_on channel=3 note=67 velocity=0 time=0
EXTRACT: note_on channel=9 note=36 velocity=127 time=0
EXTRACT: note_on channel=9 note=42 velocity=108 time=0
EXTRACT: note_on channel=3 note=62 velocity=110 time=0
EXTRACT: note_on channel=9 note=42 velocity=0 time=0.1764705
EXTRACT: note_on channel=2 note=64 velocity=0 time=0.1764705
EXTRACT: note_on channel=2 note=67 velocity=0 time=0
EXTRACT: note_on channel=2 note=72 velocity=0 time=0
EXTRACT: note_on channel=3 note=62 velocity=0 time=0
EXTRACT: note_on channel=2 note=64 velocity=60 time=0
EXTRACT: note_on channel=2 note=67 velocity=60 time=0
EXTRACT: note_on channel=2 note=72 velocity=60 time=0
EXTRACT: note_on channel=8 note=79 velocity=75 time=0
EXTRACT: note_on channel=3 note=62 velocity=110 time=0
EXTRACT: note_on channel=9 note=42 velocity=108 time=0.1764705
EXTRACT: note_on channel=9 note=36 velocity=0 time=0.1764705
EXTRACT: note_on channel=8 note=79 velocity=0 time=0
EXTRACT: note_on channel=9 note=42 velocity=0 time=0
EXTRACT: note_on channel=9 note=36 velocity=127 time=0
EXTRACT: note_on channel=9 note=42 velocity=108 time=0
EXTRACT: note_on channel=4 note=55 velocity=0 time=0.352941
EXTRACT: note_on channel=2 note=64 velocity=0 time=0
EXTRACT: note_on channel=2 note=67 velocity=0 time=0
EXTRACT: note_on channel=2 note=72 velocity=0 time=0
EXTRACT: note_on channel=9 note=36 velocity=0 time=0
EXTRACT: note_on channel=9 note=42 velocity=0 time=0
EXTRACT: note_on channel=3 note=62 velocity=0 time=0
EXTRACT: note_on channel=2 note=64 velocity=60 time=0
EXTRACT: note_on channel=2 note=67 velocity=60 time=0
EXTRACT: note_on channel=2 note=72 velocity=60 time=0
EXTRACT: note_on channel=4 note=62 velocity=75 time=0
EXTRACT: note_on channel=8 note=79 velocity=75 time=0
EXTRACT: note_on channel=9 note=40 velocity=127 time=0
EXTRACT: note_on channel=9 note=46 velocity=108 time=0
EXTRACT: note_on channel=4 note=62 velocity=0 time=0.352941
EXTRACT: note_on channel=8 note=79 velocity=0 time=0
EXTRACT: note_on channel=9 note=40 velocity=0 time=0
EXTRACT: note_on channel=4 note=64 velocity=75 time=0
EXTRACT: note_on channel=3 note=64 velocity=110 time=0
EXTRACT: note_on channel=1 note=40 velocity=0 time=0.352941
EXTRACT: note_on channel=5 note=55 velocity=0 time=0
EXTRACT: note_on channel=6 note=40 velocity=0 time=0
EXTRACT: note_on channel=2 note=64 velocity=0 time=0
EXTRACT: note_on channel=2 note=67 velocity=0 time=0
EXTRACT: note_on channel=2 note=72 velocity=0 time=0
EXTRACT: note_on channel=4 note=64 velocity=0 time=0
EXTRACT: note_on channel=9 note=46 velocity=0 time=0
EXTRACT: note_on channel=3 note=64 velocity=0 time=0
EXTRACT: note_on channel=2 note=65 velocity=60 time=0
EXTRACT: note_on channel=2 note=69 velocity=60 time=0
EXTRACT: note_on channel=2 note=74 velocity=60 time=0
EXTRACT: note_on channel=1 note=50 velocity=127 time=0
EXTRACT: note_on channel=4 note=65 velocity=75 time=0
EXTRACT: note_on channel=8 note=84 velocity=75 time=0
EXTRACT: note_on channel=9 note=36 velocity=127 time=0
EXTRACT: note_on channel=5 note=57 velocity=75 time=0
EXTRACT: note_on channel=6 note=50 velocity=75 time=0
EXTRACT: note_on channel=3 note=65 velocity=110 time=0
EXTRACT: note_on channel=8 note=84 velocity=0 time=0.352941
EXTRACT: note_on channel=9 note=46 velocity=108 time=0
EXTRACT: note_on channel=3 note=65 velocity=0 time=0.1764705
EXTRACT: note_on channel=3 note=64 velocity=110 time=0
EXTRACT: note_on channel=2 note=65 velocity=0 time=0.1764705
EXTRACT: note_on channel=2 note=69 velocity=0 time=0
EXTRACT: note_on channel=2 note=74 velocity=0 time=0
EXTRACT: note_on channel=9 note=36 velocity=0 time=0
EXTRACT: note_on channel=9 note=46 velocity=0 time=0
EXTRACT: note_on channel=2 note=65 velocity=60 time=0
EXTRACT: note_on channel=2 note=69 velocity=60 time=0
EXTRACT: note_on channel=2 note=74 velocity=60 time=0
EXTRACT: note_on channel=8 note=84 velocity=75 time=0
EXTRACT: note_on channel=9 note=40 velocity=127 time=0
EXTRACT: note_on channel=9 note=46 velocity=108 time=0
EXTRACT: note_on channel=9 note=46 velocity=0 time=0.1764705
EXTRACT: note_on channel=8 note=84 velocity=0 time=0.1764705
EXTRACT: note_on channel=9 note=40 velocity=0 time=0
EXTRACT: note_on channel=3 note=64 velocity=0 time=0
EXTRACT: note_on channel=9 note=36 velocity=127 time=0
EXTRACT: note_on channel=9 note=42 velocity=108 time=0
EXTRACT: note_on channel=3 note=60 velocity=110 time=0
EXTRACT: note_on channel=9 note=42 velocity=0 time=0.1764705
EXTRACT: note_on channel=3 note=60 velocity=0 time=0.07352937500000001
EXTRACT: note_on channel=2 note=65 velocity=0 time=0.102941125
EXTRACT: note_on channel=2 note=69 velocity=0 time=0
EXTRACT: note_on channel=2 note=74 velocity=0 time=0
EXTRACT: note_on channel=2 note=65 velocity=60 time=0
EXTRACT: note_on channel=2 note=69 velocity=60 time=0
EXTRACT: note_on channel=2 note=74 velocity=60 time=0
EXTRACT: note_on channel=8 note=84 velocity=75 time=0
EXTRACT: note_on channel=3 note=65 velocity=110 time=0
EXTRACT: note_on channel=9 note=42 velocity=108 time=0.1764705
EXTRACT: note_on channel=9 note=36 velocity=0 time=0.1764705
EXTRACT: note_on channel=8 note=84 velocity=0 time=0
EXTRACT: note_on channel=9 note=42 velocity=0 time=0
EXTRACT: note_on channel=9 note=36 velocity=127 time=0
EXTRACT: note_on channel=9 note=42 velocity=108 time=0
EXTRACT: note_on channel=3 note=65 velocity=0 time=0.1764705
EXTRACT: note_on channel=3 note=64 velocity=110 time=0
EXTRACT: note_on channel=4 note=65 velocity=0 time=0.1764705
EXTRACT: note_on channel=2 note=65 velocity=0 time=0
EXTRACT: note_on channel=2 note=69 velocity=0 time=0
EXTRACT: note_on channel=2 note=74 velocity=0 time=0
EXTRACT: note_on channel=9 note=36 velocity=0 time=0
EXTRACT: note_on channel=9 note=42 velocity=0 time=0
EXTRACT: note_on channel=2 note=65 velocity=60 time=0
EXTRACT: note_on channel=2 note=69 velocity=60 time=0
EXTRACT: note_on channel=2 note=74 velocity=60 time=0
EXTRACT: note_on channel=4 note=64 velocity=75 time=0
EXTRACT: note_on channel=8 note=84 velocity=75 time=0
EXTRACT: note_on channel=9 note=40 velocity=127 time=0
EXTRACT: note_on channel=9 note=46 velocity=108 time=0
EXTRACT: note_on channel=8 note=84 velocity=0 time=0.352941
EXTRACT: note_on channel=9 note=40 velocity=0 time=0
EXTRACT: note_on channel=3 note=64 velocity=0 time=0
EXTRACT: note_on channel=8 note=81 velocity=75 time=0
EXTRACT: note_on channel=3 note=60 velocity=110 time=0
EXTRACT: note_on channel=3 note=60 velocity=0 time=0.249999875
EXTRACT: note_on channel=1 note=50 velocity=0 time=0.102941125
EXTRACT: note_on channel=5 note=57 velocity=0 time=0
EXTRACT: note_on channel=6 note=50 velocity=0 time=0
EXTRACT: note_on channel=2 note=65 velocity=0 time=0
EXTRACT: note_on channel=2 note=69 velocity=0 time=0
EXTRACT: note_on channel=2 note=74 velocity=0 time=0
EXTRACT: note_on channel=4 note=64 velocity=0 time=0
EXTRACT: note_on channel=8 note=81 velocity=0 time=0
EXTRACT: note_on channel=9 note=46 velocity=0 time=0
EXTRACT: note_on channel=2 note=65 velocity=60 time=0
EXTRACT: note_on channel=2 note=70 velocity=60 time=0
EXTRACT: note_on channel=2 note=74 velocity=60 time=0
EXTRACT: note_on channel=1 note=46 velocity=127 time=0
EXTRACT: note_on channel=4 note=62 velocity=75 time=0
EXTRACT: note_on channel=8 note=84 velocity=75 time=0
EXTRACT: note_on channel=9 note=36 velocity=127 time=0
EXTRACT: note_on channel=5 note=58 velocity=75 time=0
EXTRACT: note_on channel=6 note=46 velocity=75 time=0
EXTRACT: note_on channel=3 note=65 velocity=110 time=0
EXTRACT: note_on channel=8 note=84 velocity=0 time=0.352941
EXTRACT: note_on channel=9 note=46 velocity=108 time=0
EXTRACT: note_on channel=3 note=65 velocity=0 time=0.1764705
EXTRACT: note_on channel=3 note=64 velocity=110 time=0
EXTRACT: note_on channel=2 note=65 velocity=0 time=0.1764705
EXTRACT: note_on channel=2 note=70 velocity=0 time=0
EXTRACT: note_on channel=2 note=74 velocity=0 time=0
EXTRACT: note_on channel=9 note=36 velocity=0 time=0
EXTRACT: note_on channel=9 note=46 velocity=0 time=0
EXTRACT: note_on channel=2 note=65 velocity=60 time=0
EXTRACT: note_on channel=2 note=70 velocity=60 time=0
EXTRACT: note_on channel=2 note=74 velocity=60 time=0
EXTRACT: note_on channel=8 note=84 velocity=75 time=0
EXTRACT: note_on channel=9 note=40 velocity=127 time=0
EXTRACT: note_on channel=9 note=46 velocity=108 time=0
EXTRACT: note_on channel=9 note=46 velocity=0 time=0.1764705
EXTRACT: note_on channel=8 note=84 velocity=0 time=0.1764705
EXTRACT: note_on channel=9 note=40 velocity=0 time=0
EXTRACT: note_on channel=3 note=64 velocity=0 time=0
EXTRACT: note_on channel=9 note=36 velocity=127 time=0
EXTRACT: note_on channel=9 note=42 velocity=108 time=0
EXTRACT: note_on channel=3 note=60 velocity=110 time=0
EXTRACT: note_on channel=9 note=42 velocity=0 time=0.1764705
EXTRACT: note_on channel=2 note=65 velocity=0 time=0.1764705
EXTRACT: note_on channel=2 note=70 velocity=0 time=0
EXTRACT: note_on channel=2 note=74 velocity=0 time=0
EXTRACT: note_on channel=3 note=60 velocity=0 time=0
EXTRACT: note_on channel=2 note=65 velocity=60 time=0
EXTRACT: note_on channel=2 note=70 velocity=60 time=0
EXTRACT: note_on channel=2 note=74 velocity=60 time=0
EXTRACT: note_on channel=8 note=84 velocity=75 time=0
EXTRACT: note_on channel=3 note=65 velocity=110 time=0
EXTRACT: note_on channel=9 note=42 velocity=108 time=0.1764705
EXTRACT: note_on channel=9 note=36 velocity=0 time=0.1764705
EXTRACT: note_on channel=8 note=84 velocity=0 time=0
EXTRACT: note_on channel=9 note=42 velocity=0 time=0
EXTRACT: note_on channel=9 note=36 velocity=127 time=0
EXTRACT: note_on channel=9 note=42 velocity=108 time=0
EXTRACT: note_on channel=2 note=65 velocity=0 time=0.352941
EXTRACT: note_on channel=2 note=70 velocity=0 time=0
EXTRACT: note_on channel=2 note=74 velocity=0 time=0
EXTRACT: note_on channel=9 note=36 velocity=0 time=0
EXTRACT: note_on channel=9 note=42 velocity=0 time=0
EXTRACT: note_on channel=2 note=65 velocity=60 time=0
EXTRACT: note_on channel=2 note=70 velocity=60 time=0
EXTRACT: note_on channel=2 note=74 velocity=60 time=0
EXTRACT: note_on channel=8 note=84 velocity=75 time=0
EXTRACT: note_on channel=9 note=40 velocity=127 time=0
EXTRACT: note_on channel=9 note=46 velocity=108 time=0
EXTRACT: note_on channel=8 note=84 velocity=0 time=0.352941
EXTRACT: note_on channel=9 note=40 velocity=0 time=0
EXTRACT: note_on channel=3 note=65 velocity=0 time=0
EXTRACT: note_on channel=8 note=81 velocity=75 time=0
EXTRACT: note_on channel=3 note=65 velocity=110 time=0
EXTRACT: note_on channel=1 note=46 velocity=0 time=0.352941
EXTRACT: note_on channel=4 note=62 velocity=0 time=0
EXTRACT: note_on channel=5 note=58 velocity=0 time=0
EXTRACT: note_on channel=6 note=46 velocity=0 time=0
EXTRACT: note_on channel=2 note=65 velocity=0 time=0
EXTRACT: note_on channel=2 note=70 velocity=0 time=0
EXTRACT: note_on channel=2 note=74 velocity=0 time=0
EXTRACT: note_on channel=8 note=81 velocity=0 time=0
EXTRACT: note_on channel=9 note=46 velocity=0 time=0
EXTRACT: note_on channel=3 note=65 velocity=0 time=0
EXTRACT: note_on channel=2 note=65 velocity=60 time=0
EXTRACT: note_on channel=2 note=69 velocity=60 time=0
EXTRACT: note_on channel=2 note=72 velocity=60 time=0
EXTRACT: note_on channel=1 note=41 velocity=127 time=0
EXTRACT: note_on channel=4 note=60 velocity=75 time=0
EXTRACT: note_on channel=8 note=84 velocity=75 time=0
EXTRACT: note_on channel=9 note=36 velocity=127 time=0
EXTRACT: note_on channel=5 note=57 velocity=75 time=0
EXTRACT: note_on channel=6 note=41 velocity=75 time=0
EXTRACT: note_on channel=3 note=69 velocity=110 time=0
EXTRACT: note_on channel=8 note=84 velocity=0 time=0.352941
EXTRACT: note_on channel=9 note=46 velocity=108 time=0
EXTRACT: note_on channel=3 note=69 velocity=0 time=0.1764705
EXTRACT: note_on channel=3 note=67 velocity=110 time=0
EXTRACT: note_on channel=2 note=65 velocity=0 time=0.1764705
EXTRACT: note_on channel=2 note=69 velocity=0 time=0
EXTRACT: note_on channel=2 note=72 velocity=0 time=0
EXTRACT: note_on channel=9 note=36 velocity=0 time=0
EXTRACT: note_on channel=9 note=46 velocity=0 time=0
EXTRACT: note_on channel=2 note=65 velocity=60 time=0
EXTRACT: note_on channel=2 note=69 velocity=60 time=0
EXTRACT: note_on channel=2 note=72 velocity=60 time=0
EXTRACT: note_on channel=8 note=84 velocity=75 time=0
EXTRACT: note_on channel=9 note=40 velocity=127 time=0
EXTRACT: note_on channel=9 note=46 velocity=108 time=0
EXTRACT: note_on channel=9 note=46 velocity=0 time=0.1764705
EXTRACT: note_on channel=8 note=84 velocity=0 time=0.1764705
EXTRACT: note_on channel=9 note=40 velocity=0 time=0
EXTRACT: note_on channel=3 note=67 velocity=0 time=0
EXTRACT: note_on channel=9 note=36 velocity=127 time=0
EXTRACT: note_on channel=9 note=42 velocity=108 time=0
EXTRACT: note_on channel=3 note=65 velocity=110 time=0
EXTRACT: note_on channel=9 note=42 velocity=0 time=0.1764705
EXTRACT: note_on channel=3 note=65 velocity=0 time=0.07352937500000001
EXTRACT: note_on channel=2 note=65 velocity=0 time=0.102941125
EXTRACT: note_on channel=2 note=69 velocity=0 time=0
EXTRACT: note_on channel=2 note=72 velocity=0 time=0
EXTRACT: note_on channel=2 note=65 velocity=60 time=0
EXTRACT: note_on channel=2 note=69 velocity=60 time=0
EXTRACT: note_on channel=2 note=72 velocity=60 time=0
EXTRACT: note_on channel=8 note=84 velocity=75 time=0
EXTRACT: note_on channel=3 note=69 velocity=110 time=0
EXTRACT: note_on channel=9 note=42 velocity=108 time=0.1764705
EXTRACT: note_on channel=9 note=36 velocity=0 time=0.1764705
EXTRACT: note_on channel=8 note=84 velocity=0 time=0
EXTRACT: note_on channel=9 note=42 velocity=0 time=0
EXTRACT: note_on channel=9 note=36 velocity=127 time=0
EXTRACT: note_on channel=9 note=42 velocity=108 time=0
EXTRACT: note_on channel=3 note=69 velocity=0 time=0.1764705
EXTRACT: note_on channel=3 note=67 velocity=110 time=0
EXTRACT: note_on channel=4 note=60 velocity=0 time=0.1764705
EXTRACT: note_on channel=2 note=65 velocity=0 time=0
EXTRACT: note_on channel=2 note=69 velocity=0 time=0
EXTRACT: note_on channel=2 note=72 velocity=0 time=0
EXTRACT: note_on channel=9 note=36 velocity=0 time=0
EXTRACT: note_on channel=9 note=42 velocity=0 time=0
EXTRACT: note_on channel=2 note=65 velocity=60 time=0
EXTRACT: note_on channel=2 note=69 velocity=60 time=0
EXTRACT: note_on channel=2 note=72 velocity=60 time=0
EXTRACT: note_on channel=4 note=53 velocity=75 time=0
EXTRACT: note_on channel=8 note=84 velocity=75 time=0
EXTRACT: note_on channel=9 note=40 velocity=127 time=0
EXTRACT: note_on channel=9 note=46 velocity=108 time=0
EXTRACT: note_on channel=8 note=84 velocity=0 time=0.352941
EXTRACT: note_on channel=9 note=40 velocity=0 time=0
EXTRACT: note_on channel=3 note=67 velocity=0 time=0
EXTRACT: note_on channel=8 note=81 velocity=75 time=0
EXTRACT: note_on channel=3 note=65 velocity=110 time=0
EXTRACT: note_on channel=3 note=65 velocity=0 time=0.249999875
EXTRACT: note_on channel=1 note=41 velocity=0 time=0.102941125
EXTRACT: note_on channel=5 note=57 velocity=0 time=0
EXTRACT: note_on channel=6 note=41 velocity=0 time=0
EXTRACT: note_on channel=2 note=65 velocity=0 time=0
EXTRACT: note_on channel=2 note=69 velocity=0 time=0
EXTRACT: note_on channel=2 note=72 velocity=0 time=0
EXTRACT: note_on channel=4 note=53 velocity=0 time=0
EXTRACT: note_on channel=8 note=81 velocity=0 time=0
EXTRACT: note_on channel=9 note=46 velocity=0 time=0
EXTRACT: note_on channel=2 note=64 velocity=60 time=0
EXTRACT: note_on channel=2 note=67 velocity=60 time=0
EXTRACT: note_on channel=2 note=72 velocity=60 time=0
EXTRACT: note_on channel=1 note=40 velocity=127 time=0
EXTRACT: note_on channel=4 note=55 velocity=75 time=0
EXTRACT: note_on channel=8 note=79 velocity=75 time=0
EXTRACT: note_on channel=9 note=36 velocity=127 time=0
EXTRACT: note_on channel=5 note=55 velocity=75 time=0
EXTRACT: note_on channel=6 note=40 velocity=75 time=0
EXTRACT: note_on channel=3 note=69 velocity=110 time=0
EXTRACT: note_on channel=8 note=79 velocity=0 time=0.352941
EXTRACT: note_on channel=9 note=46 velocity=108 time=0
EXTRACT: note_on channel=3 note=69 velocity=0 time=0.1764705
EXTRACT: note_on channel=3 note=67 velocity=110 time=0
EXTRACT: note_on channel=2 note=64 velocity=0 time=0.1764705
EXTRACT: note_on channel=2 note=67 velocity=0 time=0
EXTRACT: note_on channel=2 note=72 velocity=0 time=0
EXTRACT: note_on channel=9 note=36 velocity=0 time=0
EXTRACT: note_on channel=9 note=46 velocity=0 time=0
EXTRACT: note_on channel=2 note=64 velocity=60 time=0
EXTRACT: note_on channel=2 note=67 velocity=60 time=0
EXTRACT: note_on channel=2 note=72 velocity=60 time=0
EXTRACT: note_on channel=8 note=79 velocity=75 time=0
EXTRACT: note_on channel=9 note=40 velocity=127 time=0
EXTRACT: note_on channel=9 note=46 velocity=108 time=0
EXTRACT: note_on channel=9 note=46 velocity=0 time=0.1764705
EXTRACT: note_on channel=8 note=79 velocity=0 time=0.1764705
EXTRACT: note_on channel=9 note=40 velocity=0 time=0
EXTRACT: note_on channel=3 note=67 velocity=0 time=0
EXTRACT: note_on channel=9 note=36 velocity=127 time=0
EXTRACT: note_on channel=9 note=42 velocity=108 time=0
EXTRACT: note_on channel=3 note=65 velocity=110 time=0
EXTRACT: note_on channel=9 note=42 velocity=0 time=0.1764705
EXTRACT: note_on channel=3 note=65 velocity=0 time=0.07352937500000001
EXTRACT: note_on channel=2 note=64 velocity=0 time=0.102941125
EXTRACT: note_on channel=2 note=67 velocity=0 time=0
EXTRACT: note_on channel=2 note=72 velocity=0 time=0
EXTRACT: note_on channel=2 note=64 velocity=60 time=0
EXTRACT: note_on channel=2 note=67 velocity=60 time=0
EXTRACT: note_on channel=2 note=72 velocity=60 time=0
EXTRACT: note_on channel=8 note=79 velocity=75 time=0
EXTRACT: note_on channel=3 note=67 velocity=110 time=0
EXTRACT: note_on channel=9 note=36 velocity=0 time=0.1764705
EXTRACT: note_on channel=9 note=36 velocity=127 time=0
EXTRACT: note_on channel=9 note=42 velocity=108 time=0
EXTRACT: note_on channel=8 note=79 velocity=0 time=0.1764705
EXTRACT: note_on channel=9 note=36 velocity=0 time=0
EXTRACT: note_on channel=9 note=42 velocity=0 time=0
EXTRACT: note_on channel=9 note=36 velocity=127 time=0
EXTRACT: note_on channel=9 note=42 velocity=108 time=0
EXTRACT: note_on channel=4 note=55 velocity=0 time=0.352941
EXTRACT: note_on channel=2 note=64 velocity=0 time=0
EXTRACT: note_on channel=2 note=67 velocity=0 time=0
EXTRACT: note_on channel=2 note=72 velocity=0 time=0
EXTRACT: note_on channel=9 note=36 velocity=0 time=0
EXTRACT: note_on channel=9 note=42 velocity=0 time=0
EXTRACT: note_on channel=3 note=67 velocity=0 time=0
EXTRACT: note_on channel=2 note=64 velocity=60 time=0
EXTRACT: note_on channel=2 note=67 velocity=60 time=0
EXTRACT: note_on channel=2 note=72 velocity=60 time=0
EXTRACT: note_on channel=4 note=55 velocity=75 time=0
EXTRACT: note_on channel=8 note=79 velocity=75 time=0
EXTRACT: note_on channel=9 note=40 velocity=127 time=0
EXTRACT: note_on channel=9 note=46 velocity=108 time=0
EXTRACT: note_on channel=3 note=69 velocity=110 time=0
EXTRACT: note_on channel=4 note=55 velocity=0 time=0.352941
EXTRACT: note_on channel=8 note=79 velocity=0 time=0
EXTRACT: note_on channel=9 note=40 velocity=0 time=0
EXTRACT: note_on channel=3 note=69 velocity=0 time=0
EXTRACT: note_on channel=4 note=57 velocity=75 time=0
EXTRACT: note_on channel=8 note=81 velocity=75 time=0
EXTRACT: note_on channel=3 note=65 velocity=110 time=0
EXTRACT: note_on channel=3 note=65 velocity=0 time=0.1764705
EXTRACT: note_on channel=3 note=67 velocity=110 time=0
EXTRACT: note_on channel=1 note=40 velocity=0 time=0.1764705
EXTRACT: note_on channel=6 note=40 velocity=0 time=0
EXTRACT: note_on channel=2 note=64 velocity=0 time=0
EXTRACT: note_on channel=2 note=67 velocity=0 time=0
EXTRACT: note_on channel=2 note=72 velocity=0 time=0
EXTRACT: note_on channel=4 note=57 velocity=0 time=0
EXTRACT: note_on channel=8 note=81 velocity=0 time=0
EXTRACT: note_on channel=9 note=46 velocity=0 time=0
EXTRACT: note_on channel=3 note=67 velocity=0 time=0
EXTRACT: note_on channel=2 note=62 velocity=60 time=0
EXTRACT: note_on channel=2 note=67 velocity=60 time=0
EXTRACT: note_on channel=2 note=70 velocity=60 time=0
EXTRACT: note_on channel=1 note=43 velocity=127 time=0
EXTRACT: note_on channel=4 note=58 velocity=75 time=0
EXTRACT: note_on channel=8 note=82 velocity=75 time=0
EXTRACT: note_on channel=9 note=36 velocity=127 time=0
EXTRACT: note_on channel=6 note=43 velocity=75 time=0
EXTRACT: note_on channel=3 note=65 velocity=110 time=0
EXTRACT: note_on channel=8 note=82 velocity=0 time=0.352941
EXTRACT: note_on channel=9 note=46 velocity=108 time=0
EXTRACT: note_on channel=2 note=62 velocity=0 time=0.352941
EXTRACT: note_on channel=2 note=67 velocity=0 time=0
EXTRACT: note_on channel=2 note=70 velocity=0 time=0
EXTRACT: note_on channel=9 note=36 velocity=0 time=0
EXTRACT: note_on channel=9 note=46 velocity=0 time=0
EXTRACT: note_on channel=3 note=65 velocity=0 time=0
EXTRACT: note_on channel=2 note=62 velocity=60 time=0
EXTRACT: note_on channel=2 note=67 velocity=60 time=0
EXTRACT: note_on channel=2 note=70 velocity=60 time=0
EXTRACT: note_on channel=8 note=82 velocity=75 time=0
EXTRACT: note_on channel=9 note=40 velocity=127 time=0
EXTRACT: note_on channel=9 note=46 velocity=108 time=0
EXTRACT: note_on channel=3 note=70 velocity=110 time=0
EXTRACT: note_on channel=9 note=46 velocity=0 time=0.1764705
EXTRACT: note_on channel=3 note=70 velocity=0 time=0
EXTRACT: note_on channel=3 note=70 velocity=110 time=0
EXTRACT: note_on channel=8 note=82 velocity=0 time=0.1764705
EXTRACT: note_on channel=9 note=40 velocity=0 time=0
EXTRACT: note_on channel=3 note=70 velocity=0 time=0
EXTRACT: note_on channel=9 note=36 velocity=127 time=0
EXTRACT: note_on channel=9 note=42 velocity=108 time=0
EXTRACT: note_on channel=3 note=70 velocity=110 time=0
EXTRACT: note_on channel=9 note=42 velocity=0 time=0.1764705
EXTRACT: note_on channel=3 note=70 velocity=0 time=0
EXTRACT: note_on channel=3 note=70 velocity=110 time=0
EXTRACT: note_on channel=2 note=62 velocity=0 time=0.1764705
EXTRACT: note_on channel=2 note=67 velocity=0 time=0
EXTRACT: note_on channel=2 note=70 velocity=0 time=0
EXTRACT: note_on channel=3 note=70 velocity=0 time=0
EXTRACT: note_on channel=2 note=62 velocity=60 time=0
EXTRACT: note_on channel=2 note=67 velocity=60 time=0
EXTRACT: note_on channel=2 note=70 velocity=60 time=0
EXTRACT: note_on channel=8 note=82 velocity=75 time=0
EXTRACT: note_on channel=3 note=70 velocity=110 time=0
EXTRACT: note_on channel=9 note=42 velocity=108 time=0.1764705
EXTRACT: note_on channel=9 note=36 velocity=0 time=0.1764705
EXTRACT: note_on channel=8 note=82 velocity=0 time=0
EXTRACT: note_on channel=9 note=42 velocity=0 time=0
EXTRACT: note_on channel=3 note=70 velocity=0 time=0
EXTRACT: note_on channel=9 note=36 velocity=127 time=0
EXTRACT: note_on channel=9 note=42 velocity=108 time=0
EXTRACT: note_on channel=3 note=69 velocity=110 time=0
EXTRACT: note_on channel=3 note=69 velocity=0 time=0.1764705
EXTRACT: note_on channel=3 note=67 velocity=110 time=0
EXTRACT: note_on channel=4 note=58 velocity=0 time=0.1764705
EXTRACT: note_on channel=2 note=62 velocity=0 time=0
EXTRACT: note_on channel=2 note=67 velocity=0 time=0
EXTRACT: note_on channel=2 note=70 velocity=0 time=0
EXTRACT: note_on channel=9 note=36 velocity=0 time=0
EXTRACT: note_on channel=9 note=42 velocity=0 time=0
EXTRACT: note_on channel=3 note=67 velocity=0 time=0
EXTRACT: note_on channel=2 note=62 velocity=60 time=0
EXTRACT: note_on channel=2 note=67 velocity=60 time=0
EXTRACT: note_on channel=2 note=70 velocity=60 time=0
EXTRACT: note_on channel=4 note=58 velocity=75 time=0
EXTRACT: note_on channel=8 note=82 velocity=75 time=0
EXTRACT: note_on channel=9 note=40 velocity=127 time=0
EXTRACT: note_on channel=9 note=46 velocity=108 time=0
EXTRACT: note_on channel=3 note=65 velocity=110 time=0
EXTRACT: note_on channel=1 note=43 velocity=0 time=0.1764705
EXTRACT: note_on channel=1 note=43 velocity=127 time=0
EXTRACT: note_on channel=1 note=43 velocity=0 time=0.1764705
EXTRACT: note_on channel=4 note=58 velocity=0 time=0
EXTRACT: note_on channel=8 note=82 velocity=0 time=0
EXTRACT: note_on channel=9 note=40 velocity=0 time=0
EXTRACT: note_on channel=1 note=45 velocity=127 time=0
EXTRACT: note_on channel=4 note=57 velocity=75 time=0
EXTRACT: note_on channel=8 note=81 velocity=75 time=0
EXTRACT: note_on channel=5 note=55 velocity=0 time=0.352941
EXTRACT: note_on channel=6 note=43 velocity=0 time=0
EXTRACT: note_on channel=2 note=62 velocity=0 time=0
EXTRACT: note_on channel=2 note=67 velocity=0 time=0
EXTRACT: note_on channel=2 note=70 velocity=0 time=0
EXTRACT: note_on channel=1 note=45 velocity=0 time=0
EXTRACT: note_on channel=4 note=57 velocity=0 time=0
EXTRACT: note_on channel=8 note=81 velocity=0 time=0
EXTRACT: note_on channel=9 note=46 velocity=0 time=0
EXTRACT: note_on channel=3 note=65 velocity=0 time=0
EXTRACT: note_on channel=2 note=62 velocity=60 time=0
EXTRACT: note_on channel=2 note=65 velocity=60 time=0
EXTRACT: note_on channel=2 note=70 velocity=60 time=0
EXTRACT: note_on channel=1 note=46 velocity=127 time=0
EXTRACT: note_on channel=4 note=53 velocity=75 time=0
EXTRACT: note_on channel=8 note=77 velocity=75 time=0
EXTRACT: note_on channel=9 note=36 velocity=127 time=0
EXTRACT: note_on channel=5 note=53 velocity=75 time=0
EXTRACT: note_on channel=6 note=46 velocity=75 time=0
EXTRACT: note_on channel=3 note=70 velocity=110 time=0
EXTRACT: note_on channel=3 note=70 velocity=0 time=0.1764705
EXTRACT: note_on channel=3 note=70 velocity=110 time=0
EXTRACT: note_on channel=8 note=77 velocity=0 time=0.1764705
EXTRACT: note_on channel=3 note=70 velocity=0 time=0
EXTRACT: note_on channel=9 note=46 velocity=108 time=0
EXTRACT: note_on channel=3 note=70 velocity=110 time=0
EXTRACT: note_on channel=3 note=70 velocity=0 time=0.1764705
EXTRACT: note_on channel=3 note=70 velocity=110 time=0
EXTRACT: note_on channel=2 note=62 velocity=0 time=0.1764705
EXTRACT: note_on channel=2 note=65 velocity=0 time=0
EXTRACT: note_on channel=2 note=70 velocity=0 time=0
EXTRACT: note_on channel=9 note=36 velocity=0 time=0
EXTRACT: note_on channel=9 note=46 velocity=0 time=0
EXTRACT: note_on channel=3 note=70 velocity=0 time=0
EXTRACT: note_on channel=2 note=62 velocity=60 time=0
EXTRACT: note_on channel=2 note=65 velocity=60 time=0
EXTRACT: note_on channel=2 note=70 velocity=60 time=0
EXTRACT: note_on channel=8 note=77 velocity=75 time=0
EXTRACT: note_on channel=9 note=40 velocity=127 time=0
EXTRACT: note_on channel=9 note=46 velocity=108 time=0
EXTRACT: note_on channel=3 note=70 velocity=110 time=0
EXTRACT: note_on channel=9 note=46 velocity=0 time=0.1764705
EXTRACT: note_on channel=8 note=77 velocity=0 time=0.1764705
EXTRACT: note_on channel=9 note=40 velocity=0 time=0
EXTRACT: note_on channel=3 note=70 velocity=0 time=0
EXTRACT: note_on channel=9 note=36 velocity=127 time=0
EXTRACT: note_on channel=9 note=42 velocity=108 time=0
EXTRACT: note_on channel=3 note=70 velocity=110 time=0
EXTRACT: note_on channel=9 note=42 velocity=0 time=0.1764705
EXTRACT: note_on channel=3 note=70 velocity=0 time=0
EXTRACT: note_on channel=3 note=70 velocity=110 time=0
EXTRACT: note_on channel=2 note=62 velocity=0 time=0.1764705
EXTRACT: note_on channel=2 note=65 velocity=0 time=0
EXTRACT: note_on channel=2 note=70 velocity=0 time=0
EXTRACT: note_on channel=2 note=62 velocity=60 time=0
EXTRACT: note_on channel=2 note=65 velocity=60 time=0
EXTRACT: note_on channel=2 note=70 velocity=60 time=0
EXTRACT: note_on channel=8 note=77 velocity=75 time=0
EXTRACT: note_on channel=3 note=70 velocity=0 time=0.1764705
EXTRACT: note_on channel=9 note=42 velocity=108 time=0
EXTRACT: note_on channel=3 note=70 velocity=110 time=0
EXTRACT: note_on channel=9 note=36 velocity=0 time=0.1764705
EXTRACT: note_on channel=8 note=77 velocity=0 time=0
EXTRACT: note_on channel=9 note=42 velocity=0 time=0
EXTRACT: note_on channel=9 note=36 velocity=127 time=0
EXTRACT: note_on channel=9 note=42 velocity=108 time=0
EXTRACT: note_on channel=3 note=70 velocity=0 time=0.1764705
EXTRACT: note_on channel=3 note=70 velocity=110 time=0
EXTRACT: note_on channel=4 note=53 velocity=0 time=0.1764705
EXTRACT: note_on channel=2 note=62 velocity=0 time=0
EXTRACT: note_on channel=2 note=65 velocity=0 time=0
EXTRACT: note_on channel=2 note=70 velocity=0 time=0
EXTRACT: note_on channel=9 note=36 velocity=0 time=0
EXTRACT: note_on channel=9 note=42 velocity=0 time=0
EXTRACT: note_on channel=2 note=62 velocity=60 time=0
EXTRACT: note_on channel=2 note=65 velocity=60 time=0
EXTRACT: note_on channel=2 note=70 velocity=60 time=0
EXTRACT: note_on channel=4 note=55 velocity=75 time=0
EXTRACT: note_on channel=8 note=77 velocity=75 time=0
EXTRACT: note_on channel=9 note=40 velocity=127 time=0
EXTRACT: note_on channel=9 note=46 velocity=108 time=0
EXTRACT: note_on channel=3 note=70 velocity=0 time=0.1764705
EXTRACT: note_on channel=3 note=72 velocity=110 time=0
EXTRACT: note_on channel=8 note=77 velocity=0 time=0.1764705
EXTRACT: note_on channel=9 note=40 velocity=0 time=0
EXTRACT: note_on channel=8 note=79 velocity=75 time=0
EXTRACT: note_on channel=3 note=72 velocity=0 time=0.1764705
EXTRACT: note_on channel=3 note=69 velocity=110 time=0
EXTRACT: note_on channel=1 note=46 velocity=0 time=0.1764705
EXTRACT: note_on channel=5 note=53 velocity=0 time=0
EXTRACT: note_on channel=6 note=46 velocity=0 time=0
EXTRACT: note_on channel=2 note=62 velocity=0 time=0
EXTRACT: note_on channel=2 note=65 velocity=0 time=0
EXTRACT: note_on channel=2 note=70 velocity=0 time=0
EXTRACT: note_on channel=4 note=55 velocity=0 time=0
EXTRACT: note_on channel=8 note=79 velocity=0 time=0
EXTRACT: note_on channel=9 note=46 velocity=0 time=0
EXTRACT: note_on channel=2 note=62 velocity=60 time=0
EXTRACT: note_on channel=2 note=65 velocity=60 time=0
EXTRACT: note_on channel=2 note=69 velocity=60 time=0
EXTRACT: note_on channel=1 note=50 velocity=127 time=0
EXTRACT: note_on channel=4 note=57 velocity=75 time=0
EXTRACT: note_on channel=8 note=81 velocity=75 time=0
EXTRACT: note_on channel=9 note=36 velocity=127 time=0
EXTRACT: note_on channel=5 note=57 velocity=75 time=0
EXTRACT: note_on channel=6 note=50 velocity=75 time=0
EXTRACT: note_on channel=8 note=81 velocity=0 time=0.352941
EXTRACT: note_on channel=9 note=46 velocity=108 time=0
EXTRACT: note_on channel=9 note=36 velocity=0 time=0.352941
EXTRACT: note_on channel=9 note=46 velocity=0 time=0
EXTRACT: note_on channel=8 note=81 velocity=75 time=0
EXTRACT: note_on channel=9 note=40 velocity=127 time=0
EXTRACT: note_on channel=9 note=46 velocity=108 time=0
EXTRACT: note_on channel=9 note=46 velocity=0 time=0.1764705
EXTRACT: note_on channel=8 note=81 velocity=0 time=0.1764705
EXTRACT: note_on channel=9 note=40 velocity=0 time=0
EXTRACT: note_on channel=3 note=69 velocity=0 time=0
EXTRACT: note_on channel=9 note=36 velocity=127 time=0
EXTRACT: note_on channel=9 note=42 velocity=108 time=0
EXTRACT: note_on channel=3 note=69 velocity=110 time=0
EXTRACT: note_on channel=9 note=42 velocity=0 time=0.1764705
EXTRACT: note_on channel=3 note=69 velocity=0 time=0
EXTRACT: note_on channel=3 note=67 velocity=110 time=0
EXTRACT: note_on channel=2 note=62 velocity=0 time=0.1764705
EXTRACT: note_on channel=2 note=65 velocity=0 time=0
EXTRACT: note_on channel=2 note=69 velocity=0 time=0
EXTRACT: note_on channel=1 note=50 velocity=0 time=0
EXTRACT: note_on channel=4 note=57 velocity=0 time=0
EXTRACT: note_on channel=5 note=57 velocity=0 time=0
EXTRACT: note_on channel=6 note=50 velocity=0 time=0
EXTRACT: note_on channel=2 note=60 velocity=60 time=0
EXTRACT: note_on channel=2 note=64 velocity=60 time=0
EXTRACT: note_on channel=2 note=67 velocity=60 time=0
EXTRACT: note_on channel=1 note=48 velocity=127 time=0
EXTRACT: note_on channel=4 note=55 velocity=75 time=0
EXTRACT: note_on channel=8 note=79 velocity=75 time=0
EXTRACT: note_on channel=5 note=55 velocity=75 time=0
EXTRACT: note_on channel=6 note=48 velocity=75 time=0
EXTRACT: note_on channel=9 note=42 velocity=108 time=0.1764705
EXTRACT: note_on channel=9 note=36 velocity=0 time=0.1764705
EXTRACT: note_on channel=8 note=79 velocity=0 time=0
EXTRACT: note_on channel=9 note=42 velocity=0 time=0
EXTRACT: note_on channel=9 note=36 velocity=127 time=0
EXTRACT: note_on channel=9 note=42 velocity=108 time=0
EXTRACT: note_on channel=9 note=36 velocity=0 time=0.352941
EXTRACT: note_on channel=9 note=42 velocity=0 time=0
EXTRACT: note_on channel=8 note=79 velocity=75 time=0
EXTRACT: note_on channel=9 note=40 velocity=127 time=0
EXTRACT: note_on channel=9 note=46 velocity=108 time=0
EXTRACT: note_on channel=8 note=79 velocity=0 time=0.352941
EXTRACT: note_on channel=9 note=40 velocity=0 time=0
EXTRACT: note_on channel=3 note=67 velocity=0 time=0.1764705
EXTRACT: note_on channel=1 note=48 velocity=0 time=0
EXTRACT: note_on channel=1 note=34 velocity=127 time=0
EXTRACT: note_on channel=3 note=67 velocity=110 time=0
EXTRACT: note_on channel=2 note=60 velocity=0 time=0.1764705
EXTRACT: note_on channel=2 note=64 velocity=0 time=0
EXTRACT: note_on channel=2 note=67 velocity=0 time=0
EXTRACT: note_on channel=1 note=34 velocity=0 time=0
EXTRACT: note_on channel=4 note=55 velocity=0 time=0
EXTRACT: note_on channel=9 note=46 velocity=0 time=0
EXTRACT: note_on channel=5 note=55 velocity=0 time=0
EXTRACT: note_on channel=6 note=48 velocity=0 time=0
EXTRACT: note_on channel=3 note=67 velocity=0 time=0
EXTRACT: note_on channel=2 note=58 velocity=60 time=0
EXTRACT: note_on channel=2 note=62 velocity=60 time=0
EXTRACT: note_on channel=2 note=65 velocity=60 time=0
EXTRACT: note_on channel=1 note=46 velocity=127 time=0
EXTRACT: note_on channel=4 note=53 velocity=75 time=0
EXTRACT: note_on channel=8 note=77 velocity=75 time=0
EXTRACT: note_on channel=9 note=36 velocity=127 time=0
EXTRACT: note_on channel=5 note=53 velocity=75 time=0
EXTRACT: note_on channel=6 note=46 velocity=75 time=0
EXTRACT: note_on channel=3 note=65 velocity=110 time=0
EXTRACT: note_on channel=8 note=77 velocity=0 time=0.352941
EXTRACT: note_on channel=9 note=46 velocity=108 time=0
EXTRACT: note_on channel=9 note=36 velocity=0 time=0.352941
EXTRACT: note_on channel=9 note=46 velocity=0 time=0
EXTRACT: note_on channel=9 note=40 velocity=127 time=0
EXTRACT: note_on channel=9 note=46 velocity=108 time=0
EXTRACT: note_on channel=9 note=46 velocity=0 time=0.1764705
EXTRACT: note_on channel=9 note=40 velocity=0 time=0.1764705
EXTRACT: note_on channel=3 note=65 velocity=0 time=0
EXTRACT: note_on channel=9 note=36 velocity=127 time=0
EXTRACT: note_on channel=9 note=42 velocity=108 time=0
EXTRACT: note_on channel=3 note=64 velocity=110 time=0
EXTRACT: note_on channel=9 note=42 velocity=0 time=0.1764705
EXTRACT: note_on channel=6 note=46 velocity=0 time=0.1764705
EXTRACT: note_on channel=3 note=64 velocity=0 time=0
EXTRACT: note_on channel=3 note=65 velocity=110 time=0
EXTRACT: note_on channel=9 note=36 velocity=0 time=0.1764705
EXTRACT: note_on channel=9 note=36 velocity=127 time=0
EXTRACT: note_on channel=9 note=42 velocity=108 time=0
EXTRACT: note_on channel=9 note=36 velocity=0 time=0.1764705
EXTRACT: note_on channel=9 note=42 velocity=0 time=0
EXTRACT: note_on channel=5 note=53 velocity=0 time=0
EXTRACT: note_on channel=3 note=65 velocity=0 time=0
EXTRACT: note_on channel=9 note=36 velocity=127 time=0
EXTRACT: note_on channel=9 note=42 velocity=108 time=0
EXTRACT: note_on channel=5 note=53 velocity=75 time=0
EXTRACT: note_on channel=3 note=64 velocity=110 time=0
EXTRACT: note_on channel=3 note=64 velocity=0 time=0.1764705
EXTRACT: note_on channel=3 note=62 velocity=110 time=0
EXTRACT: note_on channel=2 note=58 velocity=0 time=0.1764705
EXTRACT: note_on channel=2 note=62 velocity=0 time=0
EXTRACT: note_on channel=2 note=65 velocity=0 time=0
EXTRACT: note_on channel=4 note=53 velocity=0 time=0
EXTRACT: note_on channel=9 note=36 velocity=0 time=0
EXTRACT: note_on channel=9 note=42 velocity=0 time=0
EXTRACT: note_on channel=5 note=53 velocity=0 time=0
EXTRACT: note_on channel=9 note=40 velocity=127 time=0
EXTRACT: note_on channel=9 note=46 velocity=108 time=0
EXTRACT: note_on channel=5 note=55 velocity=75 time=0
EXTRACT: note_on channel=3 note=62 velocity=0 time=0.1764705
EXTRACT: note_on channel=3 note=64 velocity=110 time=0
EXTRACT: note_on channel=9 note=40 velocity=0 time=0.1764705
EXTRACT: note_on channel=5 note=55 velocity=0 time=0
EXTRACT: note_on channel=5 note=57 velocity=75 time=0
EXTRACT: note_on channel=3 note=64 velocity=0 time=0.1764705
EXTRACT: note_on channel=3 note=67 velocity=110 time=0
EXTRACT: note_on channel=1 note=46 velocity=0 time=0.1764705
EXTRACT: note_on channel=9 note=46 velocity=0 time=0
EXTRACT: note_on channel=5 note=57 velocity=0 time=0
EXTRACT: note_on channel=3 note=67 velocity=0 time=0
EXTRACT: note_on channel=2 note=58 velocity=92 time=0
EXTRACT: note_on channel=2 note=62 velocity=92 time=0
EXTRACT: note_on channel=2 note=67 velocity=92 time=0
EXTRACT: note_on channel=1 note=43 velocity=108 time=0
EXTRACT: note_on channel=9 note=36 velocity=127 time=0
EXTRACT: note_on channel=5 note=58 velocity=92 time=0
EXTRACT: note_on channel=6 note=55 velocity=75 time=0
EXTRACT: note_on channel=3 note=65 velocity=110 time=0
EXTRACT: note_on channel=9 note=46 velocity=108 time=0.352941
EXTRACT: note_on channel=2 note=58 velocity=0 time=0.352941
EXTRACT: note_on channel=2 note=62 velocity=0 time=0
EXTRACT: note_on channel=2 note=67 velocity=0 time=0
EXTRACT: note_on channel=9 note=36 velocity=0 time=0
EXTRACT: note_on channel=9 note=46 velocity=0 time=0
EXTRACT: note_on channel=3 note=65 velocity=0 time=0
EXTRACT: note_on channel=2 note=58 velocity=92 time=0
EXTRACT: note_on channel=2 note=62 velocity=92 time=0
EXTRACT: note_on channel=2 note=67 velocity=92 time=0
EXTRACT: note_on channel=9 note=40 velocity=127 time=0
EXTRACT: note_on channel=9 note=46 velocity=108 time=0
EXTRACT: note_on channel=3 note=70 velocity=110 time=0
EXTRACT: note_on channel=9 note=46 velocity=0 time=0.1764705
EXTRACT: note_on channel=3 note=70 velocity=0 time=0
EXTRACT: note_on channel=3 note=70 velocity=110 time=0
EXTRACT: note_on channel=9 note=40 velocity=0 time=0.1764705
EXTRACT: note_on channel=3 note=70 velocity=0 time=0
EXTRACT: note_on channel=9 note=36 velocity=127 time=0
EXTRACT: note_on channel=9 note=42 velocity=108 time=0
EXTRACT: note_on channel=3 note=70 velocity=110 time=0
EXTRACT: note_on channel=9 note=42 velocity=0 time=0.1764705
EXTRACT: note_on channel=3 note=70 velocity=0 time=0
EXTRACT: note_on channel=3 note=70 velocity=110 time=0
EXTRACT: note_on channel=2 note=58 velocity=0 time=0.1764705
EXTRACT: note_on channel=2 note=62 velocity=0 time=0
EXTRACT: note_on channel=2 note=67 velocity=0 time=0
EXTRACT: note_on channel=3 note=70 velocity=0 time=0
EXTRACT: note_on channel=2 note=58 velocity=92 time=0
EXTRACT: note_on channel=2 note=62 velocity=92 time=0
EXTRACT: note_on channel=2 note=67 velocity=92 time=0
EXTRACT: note_on channel=3 note=70 velocity=110 time=0
EXTRACT: note_on channel=9 note=42 velocity=108 time=0.1764705
EXTRACT: note_on channel=9 note=36 velocity=0 time=0.1764705
EXTRACT: note_on channel=9 note=42 velocity=0 time=0
EXTRACT: note_on channel=3 note=70 velocity=0 time=0
EXTRACT: note_on channel=9 note=36 velocity=127 time=0
EXTRACT: note_on channel=9 note=42 velocity=108 time=0
EXTRACT: note_on channel=3 note=70 velocity=110 time=0
EXTRACT: note_on channel=2 note=58 velocity=0 time=0.1764705
EXTRACT: note_on channel=2 note=62 velocity=0 time=0
EXTRACT: note_on channel=2 note=67 velocity=0 time=0
EXTRACT: note_on channel=3 note=70 velocity=0 time=0
EXTRACT: note_on channel=2 note=58 velocity=92 time=0
EXTRACT: note_on channel=3 note=70 velocity=110 time=0
EXTRACT: note_on channel=2 note=58 velocity=0 time=0.1764705
EXTRACT: note_on channel=9 note=36 velocity=0 time=0
EXTRACT: note_on channel=9 note=42 velocity=0 time=0
EXTRACT: note_on channel=2 note=58 velocity=92 time=0
EXTRACT: note_on channel=2 note=62 velocity=92 time=0
EXTRACT: note_on channel=2 note=67 velocity=92 time=0
EXTRACT: note_on channel=9 note=40 velocity=127 time=0
EXTRACT: note_on channel=9 note=46 velocity=108 time=0
EXTRACT: note_on channel=3 note=70 velocity=0 time=0.1764705
EXTRACT: note_on channel=3 note=72 velocity=110 time=0
EXTRACT: note_on channel=9 note=40 velocity=0 time=0.1764705
EXTRACT: note_on channel=2 note=58 velocity=0 time=0.1764705
EXTRACT: note_on channel=2 note=62 velocity=0 time=0
EXTRACT: note_on channel=2 note=67 velocity=0 time=0
EXTRACT: note_on channel=1 note=43 velocity=0 time=0
EXTRACT: note_on channel=2 note=58 velocity=92 time=0
EXTRACT: note_on channel=1 note=34 velocity=108 time=0
EXTRACT: note_on channel=5 note=58 velocity=0 time=0.1764705
EXTRACT: note_on channel=6 note=55 velocity=0 time=0
EXTRACT: note_on channel=2 note=58 velocity=0 time=0
EXTRACT: note_on channel=1 note=34 velocity=0 time=0
EXTRACT: note_on channel=9 note=46 velocity=0 time=0
EXTRACT: note_on channel=3 note=72 velocity=0 time=0
EXTRACT: note_on channel=2 note=57 velocity=92 time=0
EXTRACT: note_on channel=2 note=62 velocity=92 time=0
EXTRACT: note_on channel=2 note=65 velocity=92 time=0
EXTRACT: note_on channel=2 note=69 velocity=92 time=0
EXTRACT: note_on channel=1 note=50 velocity=108 time=0
EXTRACT: note_on channel=9 note=36 velocity=127 time=0
EXTRACT: note_on channel=5 note=57 velocity=92 time=0
EXTRACT: note_on channel=6 note=53 velocity=75 time=0
EXTRACT: note_on channel=3 note=70 velocity=110 time=0
EXTRACT: note_on channel=3 note=70 velocity=0 time=0.352941
EXTRACT: note_on channel=9 note=46 velocity=108 time=0
EXTRACT: note_on channel=3 note=69 velocity=110 time=0
EXTRACT: note_on channel=3 note=69 velocity=0 time=0.1764705
EXTRACT: note_on channel=3 note=69 velocity=110 time=0
EXTRACT: note_on channel=2 note=57 velocity=0 time=0.1764705
EXTRACT: note_on channel=2 note=62 velocity=0 time=0
EXTRACT: note_on channel=2 note=65 velocity=0 time=0
EXTRACT: note_on channel=2 note=69 velocity=0 time=0
EXTRACT: note_on channel=9 note=36 velocity=0 time=0
EXTRACT: note_on channel=9 note=46 velocity=0 time=0
EXTRACT: note_on channel=2 note=57 velocity=92 time=0
EXTRACT: note_on channel=2 note=62 velocity=92 time=0
EXTRACT: note_on channel=2 note=65 velocity=92 time=0
EXTRACT: note_on channel=2 note=69 velocity=92 time=0
EXTRACT: note_on channel=9 note=40 velocity=127 time=0
EXTRACT: note_on channel=9 note=46 velocity=108 time=0
EXTRACT: note_on channel=9 note=46 velocity=0 time=0.1764705
EXTRACT: note_on channel=9 note=40 velocity=0 time=0.1764705
EXTRACT: note_on channel=9 note=36 velocity=127 time=0
EXTRACT: note_on channel=9 note=42 velocity=108 time=0
EXTRACT: note_on channel=9 note=42 velocity=0 time=0.1764705
EXTRACT: note_on channel=2 note=57 velocity=0 time=0.1764705
EXTRACT: note_on channel=2 note=62 velocity=0 time=0
EXTRACT: note_on channel=2 note=65 velocity=0 time=0
EXTRACT: note_on channel=2 note=69 velocity=0 time=0
EXTRACT: note_on channel=2 note=57 velocity=92 time=0
EXTRACT: note_on channel=2 note=62 velocity=92 time=0
EXTRACT: note_on channel=2 note=65 velocity=92 time=0
EXTRACT: note_on channel=2 note=69 velocity=92 time=0
EXTRACT: note_on channel=9 note=42 velocity=108 time=0.1764705
EXTRACT: note_on channel=9 note=36 velocity=0 time=0.1764705
EXTRACT: note_on channel=9 note=42 velocity=0 time=0
EXTRACT: note_on channel=9 note=36 velocity=127 time=0
EXTRACT: note_on channel=9 note=42 velocity=108 time=0
EXTRACT: note_on channel=3 note=69 velocity=0 time=0.1764705
EXTRACT: note_on channel=2 note=57 velocity=0 time=0.1764705
EXTRACT: note_on channel=2 note=62 velocity=0 time=0
EXTRACT: note_on channel=2 note=65 velocity=0 time=0
EXTRACT: note_on channel=2 note=69 velocity=0 time=0
EXTRACT: note_on channel=9 note=36 velocity=0 time=0
EXTRACT: note_on channel=9 note=42 velocity=0 time=0
EXTRACT: note_on channel=2 note=57 velocity=92 time=0
EXTRACT: note_on channel=2 note=62 velocity=92 time=0
EXTRACT: note_on channel=2 note=65 velocity=92 time=0
EXTRACT: note_on channel=2 note=69 velocity=92 time=0
EXTRACT: note_on channel=9 note=40 velocity=127 time=0
EXTRACT: note_on channel=9 note=46 velocity=108 time=0
EXTRACT: note_on channel=9 note=40 velocity=0 time=0.352941
EXTRACT: note_on channel=1 note=50 velocity=0 time=0.352941
EXTRACT: note_on channel=5 note=57 velocity=0 time=0
EXTRACT: note_on channel=6 note=53 velocity=0 time=0
EXTRACT: note_on channel=2 note=57 velocity=0 time=0
EXTRACT: note_on channel=2 note=62 velocity=0 time=0
EXTRACT: note_on channel=2 note=65 velocity=0 time=0
EXTRACT: note_on channel=2 note=69 velocity=0 time=0
EXTRACT: note_on channel=9 note=46 velocity=0 time=0
EXTRACT: note_on channel=2 note=58 velocity=92 time=0
EXTRACT: note_on channel=2 note=62 velocity=92 time=0
EXTRACT: note_on channel=2 note=67 velocity=92 time=0
EXTRACT: note_on channel=1 note=43 velocity=108 time=0
EXTRACT: note_on channel=9 note=36 velocity=127 time=0
EXTRACT: note_on channel=5 note=58 velocity=92 time=0
EXTRACT: note_on channel=6 note=55 velocity=75 time=0
EXTRACT: note_on channel=9 note=46 velocity=108 time=0.352941
EXTRACT: note_on channel=3 note=65 velocity=110 time=0.1764705
EXTRACT: note_on channel=2 note=58 velocity=0 time=0.1764705
EXTRACT: note_on channel=2 note=62 velocity=0 time=0
EXTRACT: note_on channel=2 note=67 velocity=0 time=0
EXTRACT: note_on channel=9 note=36 velocity=0 time=0
EXTRACT: note_on channel=9 note=46 velocity=0 time=0
EXTRACT: note_on channel=3 note=65 velocity=0 time=0
EXTRACT: note_on channel=2 note=58 velocity=92 time=0
EXTRACT: note_on channel=2 note=62 velocity=92 time=0
EXTRACT: note_on channel=2 note=67 velocity=92 time=0
EXTRACT: note_on channel=9 note=40 velocity=127 time=0
EXTRACT: note_on channel=9 note=46 velocity=108 time=0
EXTRACT: note_on channel=3 note=70 velocity=110 time=0
EXTRACT: note_on channel=9 note=46 velocity=0 time=0.1764705
EXTRACT: note_on channel=3 note=70 velocity=0 time=0
EXTRACT: note_on channel=3 note=70 velocity=110 time=0
EXTRACT: note_on channel=9 note=40 velocity=0 time=0.1764705
EXTRACT: note_on channel=3 note=70 velocity=0 time=0
EXTRACT: note_on channel=9 note=36 velocity=127 time=0
EXTRACT: note_on channel=9 note=42 velocity=108 time=0
EXTRACT: note_on channel=3 note=70 velocity=110 time=0
EXTRACT: note_on channel=9 note=42 velocity=0 time=0.1764705
EXTRACT: note_on channel=3 note=70 velocity=0 time=0
EXTRACT: note_on channel=3 note=70 velocity=110 time=0
EXTRACT: note_on channel=2 note=58 velocity=0 time=0.1764705
EXTRACT: note_on channel=2 note=62 velocity=0 time=0
EXTRACT: note_on channel=2 note=67 velocity=0 time=0
EXTRACT: note_on channel=3 note=70 velocity=0 time=0
EXTRACT: note_on channel=2 note=58 velocity=92 time=0
EXTRACT: note_on channel=2 note=62 velocity=92 time=0
EXTRACT: note_on channel=2 note=67 velocity=92 time=0
EXTRACT: note_on channel=3 note=70 velocity=110 time=0
EXTRACT: note_on channel=9 note=42 velocity=108 time=0.1764705
EXTRACT: note_on channel=9 note=36 velocity=0 time=0.1764705
EXTRACT: note_on channel=9 note=42 velocity=0 time=0
EXTRACT: note_on channel=3 note=70 velocity=0 time=0
EXTRACT: note_on channel=9 note=36 velocity=127 time=0
EXTRACT: note_on channel=9 note=42 velocity=108 time=0
EXTRACT: note_on channel=3 note=70 velocity=110 time=0
EXTRACT: note_on channel=2 note=58 velocity=0 time=0.1764705
EXTRACT: note_on channel=2 note=62 velocity=0 time=0
EXTRACT: note_on channel=2 note=67 velocity=0 time=0
EXTRACT: note_on channel=3 note=70 velocity=0 time=0
EXTRACT: note_on channel=2 note=58 velocity=92 time=0
EXTRACT: note_on channel=3 note=70 velocity=110 time=0
EXTRACT: note_on channel=2 note=58 velocity=0 time=0.1764705
EXTRACT: note_on channel=9 note=36 velocity=0 time=0
EXTRACT: note_on channel=9 note=42 velocity=0 time=0
EXTRACT: note_on channel=2 note=58 velocity=92 time=0
EXTRACT: note_on channel=2 note=62 velocity=92 time=0
EXTRACT: note_on channel=2 note=67 velocity=92 time=0
EXTRACT: note_on channel=9 note=40 velocity=127 time=0
EXTRACT: note_on channel=9 note=46 velocity=108 time=0
EXTRACT: note_on channel=3 note=70 velocity=0 time=0.1764705
EXTRACT: note_on channel=3 note=70 velocity=110 time=0
EXTRACT: note_on channel=9 note=40 velocity=0 time=0.1764705
EXTRACT: note_on channel=3 note=70 velocity=0 time=0
EXTRACT: note_on channel=3 note=72 velocity=110 time=0
EXTRACT: note_on channel=2 note=58 velocity=0 time=0.1764705
EXTRACT: note_on channel=2 note=62 velocity=0 time=0
EXTRACT: note_on channel=2 note=67 velocity=0 time=0
EXTRACT: note_on channel=1 note=43 velocity=0 time=0
EXTRACT: note_on channel=2 note=58 velocity=92 time=0
EXTRACT: note_on channel=1 note=34 velocity=108 time=0
EXTRACT: note_on channel=5 note=58 velocity=0 time=0.1764705
EXTRACT: note_on channel=6 note=55 velocity=0 time=0
EXTRACT: note_on channel=2 note=58 velocity=0 time=0
EXTRACT: note_on channel=1 note=34 velocity=0 time=0
EXTRACT: note_on channel=9 note=46 velocity=0 time=0
EXTRACT: note_on channel=3 note=72 velocity=0 time=0
EXTRACT: note_on channel=2 note=57 velocity=92 time=0
EXTRACT: note_on channel=2 note=62 velocity=92 time=0
EXTRACT: note_on channel=2 note=65 velocity=92 time=0
EXTRACT: note_on channel=2 note=69 velocity=92 time=0
EXTRACT: note_on channel=1 note=50 velocity=108 time=0
EXTRACT: note_on channel=9 note=36 velocity=127 time=0
EXTRACT: note_on channel=5 note=57 velocity=92 time=0
EXTRACT: note_on channel=6 note=53 velocity=75 time=0
EXTRACT: note_on channel=3 note=70 velocity=110 time=0
EXTRACT: note_on channel=3 note=70 velocity=0 time=0.1764705
EXTRACT: note_on channel=3 note=69 velocity=110 time=0
EXTRACT: note_on channel=3 note=69 velocity=0 time=0.1764705
EXTRACT: note_on channel=9 note=46 velocity=108 time=0
EXTRACT: note_on channel=3 note=69 velocity=110 time=0
EXTRACT: note_on channel=3 note=69 velocity=0 time=0.1764705
EXTRACT: note_on channel=3 note=67 velocity=110 time=0
EXTRACT: note_on channel=2 note=57 velocity=0 time=0.1764705
EXTRACT: note_on channel=2 note=62 velocity=0 time=0
EXTRACT: note_on channel=2 note=65 velocity=0 time=0
EXTRACT: note_on channel=2 note=69 velocity=0 time=0
EXTRACT: note_on channel=9 note=36 velocity=0 time=0
EXTRACT: note_on channel=9 note=46 velocity=0 time=0
EXTRACT: note_on channel=3 note=67 velocity=0 time=0
EXTRACT: note_on channel=2 note=57 velocity=92 time=0
EXTRACT: note_on channel=2 note=62 velocity=92 time=0
EXTRACT: note_on channel=2 note=65 velocity=92 time=0
EXTRACT: note_on channel=2 note=69 velocity=92 time=0
EXTRACT: note_on channel=9 note=40 velocity=127 time=0
EXTRACT: note_on channel=9 note=46 velocity=108 time=0
EXTRACT: note_on channel=3 note=65 velocity=110 time=0
EXTRACT: note_on channel=9 note=46 velocity=0 time=0.1764705
EXTRACT: note_on channel=3 note=65 velocity=0 time=0
EXTRACT: note_on channel=3 note=67 velocity=110 time=0
EXTRACT: note_on channel=9 note=40 velocity=0 time=0.1764705
EXTRACT: note_on channel=3 note=67 velocity=0 time=0
EXTRACT: note_on channel=9 note=36 velocity=127 time=0
EXTRACT: note_on channel=9 note=42 velocity=108 time=0
EXTRACT: note_on channel=3 note=69 velocity=110 time=0
EXTRACT: note_on channel=9 note=42 velocity=0 time=0.1764705
EXTRACT: note_on channel=2 note=57 velocity=0 time=0.1764705
EXTRACT: note_on channel=2 note=62 velocity=0 time=0
EXTRACT: note_on channel=2 note=65 velocity=0 time=0
EXTRACT: note_on channel=2 note=69 velocity=0 time=0
EXTRACT: note_on channel=1 note=50 velocity=0 time=0
EXTRACT: note_on channel=2 note=57 velocity=92 time=0
EXTRACT: note_on channel=2 note=62 velocity=92 time=0
EXTRACT: note_on channel=1 note=48 velocity=108 time=0
EXTRACT: note_on channel=2 note=69 velocity=92 time=0
EXTRACT: note_on channel=2 note=65 velocity=92 time=0
EXTRACT: note_on channel=9 note=36 velocity=0 time=0.1764705
EXTRACT: note_on channel=9 note=36 velocity=127 time=0
EXTRACT: note_on channel=9 note=42 velocity=108 time=0
EXTRACT: note_on channel=9 note=36 velocity=0 time=0.1764705
EXTRACT: note_on channel=9 note=42 velocity=0 time=0
EXTRACT: note_on channel=9 note=36 velocity=127 time=0
EXTRACT: note_on channel=9 note=42 velocity=108 time=0
EXTRACT: note_on channel=2 note=62 velocity=0 time=0.352941
EXTRACT: note_on channel=2 note=65 velocity=0 time=0
EXTRACT: note_on channel=2 note=57 velocity=0 time=0
EXTRACT: note_on channel=2 note=69 velocity=0 time=0
EXTRACT: note_on channel=1 note=48 velocity=0 time=0
EXTRACT: note_on channel=9 note=36 velocity=0 time=0
EXTRACT: note_on channel=9 note=42 velocity=0 time=0
EXTRACT: note_on channel=2 note=57 velocity=92 time=0
EXTRACT: note_on channel=2 note=62 velocity=92 time=0
EXTRACT: note_on channel=2 note=65 velocity=92 time=0
EXTRACT: note_on channel=2 note=69 velocity=92 time=0
EXTRACT: note_on channel=1 note=45 velocity=108 time=0
EXTRACT: note_on channel=9 note=40 velocity=127 time=0
EXTRACT: note_on channel=9 note=46 velocity=108 time=0
EXTRACT: note_on channel=3 note=69 velocity=0 time=0.352941
EXTRACT: note_on channel=9 note=40 velocity=0 time=0
EXTRACT: note_on channel=6 note=53 velocity=0 time=0.352941
EXTRACT: note_on channel=5 note=57 velocity=0 time=0
EXTRACT: note_on channel=2 note=57 velocity=0 time=0
EXTRACT: note_on channel=2 note=62 velocity=0 time=0
EXTRACT: note_on channel=2 note=65 velocity=0 time=0
EXTRACT: note_on channel=2 note=69 velocity=0 time=0
EXTRACT: note_on channel=1 note=45 velocity=0 time=0
EXTRACT: note_on channel=9 note=46 velocity=0 time=0
EXTRACT: note_on channel=2 note=53 velocity=92 time=0
EXTRACT: note_on channel=2 note=58 velocity=92 time=0
EXTRACT: note_on channel=2 note=62 velocity=92 time=0
EXTRACT: note_on channel=1 note=46 velocity=108 time=0
EXTRACT: note_on channel=4 note=62 velocity=75 time=0
EXTRACT: note_on channel=9 note=36 velocity=127 time=0
EXTRACT: note_on channel=5 note=62 velocity=92 time=0
EXTRACT: note_on channel=6 note=58 velocity=75 time=0
EXTRACT: note_on channel=9 note=46 velocity=108 time=0.352941
EXTRACT: note_on channel=3 note=65 velocity=110 time=0.1764705
EXTRACT: note_on channel=2 note=53 velocity=0 time=0.1764705
EXTRACT: note_on channel=2 note=58 velocity=0 time=0
EXTRACT: note_on channel=2 note=62 velocity=0 time=0
EXTRACT: note_on channel=9 note=36 velocity=0 time=0
EXTRACT: note_on channel=9 note=46 velocity=0 time=0
EXTRACT: note_on channel=3 note=65 velocity=0 time=0
EXTRACT: note_on channel=2 note=53 velocity=92 time=0
EXTRACT: note_on channel=2 note=58 velocity=92 time=0
EXTRACT: note_on channel=2 note=62 velocity=92 time=0
EXTRACT: note_on channel=9 note=40 velocity=127 time=0
EXTRACT: note_on channel=9 note=46 velocity=108 time=0
EXTRACT: note_on channel=3 note=72 velocity=110 time=0
EXTRACT: note_on channel=9 note=46 velocity=0 time=0.1764705
EXTRACT: note_on channel=3 note=72 velocity=0 time=0
EXTRACT: note_on channel=3 note=72 velocity=110 time=0
EXTRACT: note_on channel=9 note=40 velocity=0 time=0.1764705
EXTRACT: note_on channel=3 note=72 velocity=0 time=0
EXTRACT: note_on channel=9 note=36 velocity=127 time=0
EXTRACT: note_on channel=9 note=42 velocity=108 time=0
EXTRACT: note_on channel=3 note=72 velocity=110 time=0
EXTRACT: note_on channel=9 note=42 velocity=0 time=0.1764705
EXTRACT: note_on channel=3 note=72 velocity=0 time=0
EXTRACT: note_on channel=3 note=72 velocity=110 time=0
EXTRACT: note_on channel=2 note=53 velocity=0 time=0.1764705
EXTRACT: note_on channel=2 note=58 velocity=0 time=0
EXTRACT: note_on channel=2 note=62 velocity=0 time=0
EXTRACT: note_on channel=3 note=72 velocity=0 time=0
EXTRACT: note_on channel=2 note=53 velocity=92 time=0
EXTRACT: note_on channel=2 note=58 velocity=92 time=0
EXTRACT: note_on channel=2 note=62 velocity=92 time=0
EXTRACT: note_on channel=3 note=72 velocity=110 time=0
EXTRACT: note_on channel=9 note=42 velocity=108 time=0.1764705
EXTRACT: note_on channel=9 note=36 velocity=0 time=0.1764705
EXTRACT: note_on channel=9 note=42 velocity=0 time=0
EXTRACT: note_on channel=3 note=72 velocity=0 time=0
EXTRACT: note_on channel=9 note=36 velocity=127 time=0
EXTRACT: note_on channel=9 note=42 velocity=108 time=0
EXTRACT: note_on channel=3 note=72 velocity=110 time=0
EXTRACT: note_on channel=3 note=72 velocity=0 time=0.1764705
EXTRACT: note_on channel=3 note=72 velocity=110 time=0
EXTRACT: note_on channel=2 note=53 velocity=0 time=0.1764705
EXTRACT: note_on channel=2 note=58 velocity=0 time=0
EXTRACT: note_on channel=2 note=62 velocity=0 time=0
EXTRACT: note_on channel=9 note=36 velocity=0 time=0
EXTRACT: note_on channel=9 note=42 velocity=0 time=0
EXTRACT: note_on channel=3 note=72 velocity=0 time=0
EXTRACT: note_on channel=2 note=53 velocity=92 time=0
EXTRACT: note_on channel=2 note=58 velocity=92 time=0
EXTRACT: note_on channel=2 note=62 velocity=92 time=0
EXTRACT: note_on channel=9 note=40 velocity=127 time=0
EXTRACT: note_on channel=9 note=46 velocity=108 time=0
EXTRACT: note_on channel=3 note=72 velocity=110 time=0
EXTRACT: note_on channel=3 note=72 velocity=0 time=0.1764705
EXTRACT: note_on channel=3 note=72 velocity=110 time=0
EXTRACT: note_on channel=9 note=40 velocity=0 time=0.1764705
EXTRACT: note_on channel=1 note=46 velocity=0 time=0.352941
EXTRACT: note_on channel=4 note=62 velocity=0 time=0
EXTRACT: note_on channel=5 note=62 velocity=0 time=0
EXTRACT: note_on channel=6 note=58 velocity=0 time=0
EXTRACT: note_on channel=2 note=53 velocity=0 time=0
EXTRACT: note_on channel=2 note=58 velocity=0 time=0
EXTRACT: note_on channel=2 note=62 velocity=0 time=0
EXTRACT: note_on channel=9 note=46 velocity=0 time=0
EXTRACT: note_on channel=3 note=72 velocity=0 time=0
EXTRACT: note_on channel=2 note=53 velocity=92 time=0
EXTRACT: note_on channel=2 note=57 velocity=92 time=0
EXTRACT: note_on channel=2 note=60 velocity=92 time=0
EXTRACT: note_on channel=1 note=45 velocity=108 time=0
EXTRACT: note_on channel=4 note=60 velocity=75 time=0
EXTRACT: note_on channel=9 note=36 velocity=127 time=0
EXTRACT: note_on channel=5 note=60 velocity=92 time=0
EXTRACT: note_on channel=6 note=57 velocity=75 time=0
EXTRACT: note_on channel=3 note=72 velocity=127 time=0
EXTRACT: note_on channel=3 note=72 velocity=0 time=0.352941
EXTRACT: note_on channel=9 note=46 velocity=108 time=0
EXTRACT: note_on channel=3 note=65 velocity=110 time=0
EXTRACT: note_on channel=3 note=65 velocity=0 time=0.1764705
EXTRACT: note_on channel=3 note=65 velocity=110 time=0
EXTRACT: note_on channel=2 note=53 velocity=0 time=0.1764705
EXTRACT: note_on channel=2 note=57 velocity=0 time=0
EXTRACT: note_on channel=2 note=60 velocity=0 time=0
EXTRACT: note_on channel=9 note=36 velocity=0 time=0
EXTRACT: note_on channel=9 note=46 velocity=0 time=0
EXTRACT: note_on channel=2 note=53 velocity=92 time=0
EXTRACT: note_on channel=2 note=57 velocity=92 time=0
EXTRACT: note_on channel=2 note=60 velocity=92 time=0
EXTRACT: note_on channel=9 note=40 velocity=127 time=0
EXTRACT: note_on channel=9 note=46 velocity=108 time=0
EXTRACT: note_on channel=9 note=46 velocity=0 time=0.1764705
EXTRACT: note_on channel=9 note=40 velocity=0 time=0.1764705
EXTRACT: note_on channel=9 note=36 velocity=127 time=0
EXTRACT: note_on channel=9 note=42 velocity=108 time=0
EXTRACT: note_on channel=9 note=42 velocity=0 time=0.1764705
EXTRACT: note_on channel=2 note=53 velocity=0 time=0.1764705
EXTRACT: note_on channel=2 note=57 velocity=0 time=0
EXTRACT: note_on channel=2 note=60 velocity=0 time=0
EXTRACT: note_on channel=2 note=53 velocity=92 time=0
EXTRACT: note_on channel=2 note=57 velocity=92 time=0
EXTRACT: note_on channel=2 note=60 velocity=92 time=0
EXTRACT: note_on channel=9 note=42 velocity=108 time=0.1764705
EXTRACT: note_on channel=9 note=36 velocity=0 time=0.1764705
EXTRACT: note_on channel=3 note=65 velocity=0 time=0
EXTRACT: note_on channel=9 note=42 velocity=0 time=0
EXTRACT: note_on channel=9 note=36 velocity=127 time=0
EXTRACT: note_on channel=9 note=42 velocity=108 time=0
EXTRACT: note_on channel=3 note=65 velocity=110 time=0
EXTRACT: note_on channel=3 note=65 velocity=0 time=0.1764705
EXTRACT: note_on channel=3 note=70 velocity=110 time=0
EXTRACT: note_on channel=2 note=53 velocity=0 time=0.1764705
EXTRACT: note_on channel=2 note=57 velocity=0 time=0
EXTRACT: note_on channel=2 note=60 velocity=0 time=0
EXTRACT: note_on channel=9 note=36 velocity=0 time=0
EXTRACT: note_on channel=9 note=42 velocity=0 time=0
EXTRACT: note_on channel=2 note=53 velocity=92 time=0
EXTRACT: note_on channel=2 note=57 velocity=92 time=0
EXTRACT: note_on channel=2 note=60 velocity=92 time=0
EXTRACT: note_on channel=9 note=40 velocity=127 time=0
EXTRACT: note_on channel=9 note=46 velocity=108 time=0
EXTRACT: note_on channel=3 note=70 velocity=0 time=0.1764705
EXTRACT: note_on channel=3 note=72 velocity=110 time=0
EXTRACT: note_on channel=9 note=40 velocity=0 time=0.1764705
EXTRACT: note_on channel=4 note=60 velocity=0 time=0.352941
EXTRACT: note_on channel=5 note=60 velocity=0 time=0
EXTRACT: note_on channel=6 note=57 velocity=0 time=0
EXTRACT: note_on channel=2 note=53 velocity=0 time=0
EXTRACT: note_on channel=2 note=57 velocity=0 time=0
EXTRACT: note_on channel=2 note=60 velocity=0 time=0
EXTRACT: note_on channel=1 note=45 velocity=0 time=0
EXTRACT: note_on channel=9 note=46 velocity=0 time=0
EXTRACT: note_on channel=3 note=72 velocity=0 time=0
EXTRACT: note_on channel=2 note=58 velocity=92 time=0
EXTRACT: note_on channel=2 note=62 velocity=92 time=0
EXTRACT: note_on channel=2 note=65 velocity=92 time=0
EXTRACT: note_on channel=1 note=46 velocity=108 time=0
EXTRACT: note_on channel=4 note=62 velocity=75 time=0
EXTRACT: note_on channel=9 note=36 velocity=127 time=0
EXTRACT: note_on channel=5 note=58 velocity=92 time=0
EXTRACT: note_on channel=6 note=62 velocity=75 time=0
EXTRACT: note_on channel=3 note=70 velocity=110 time=0
EXTRACT: note_on channel=9 note=46 velocity=108 time=0.352941
EXTRACT: note_on channel=2 note=58 velocity=0 time=0.352941
EXTRACT: note_on channel=2 note=62 velocity=0 time=0
EXTRACT: note_on channel=2 note=65 velocity=0 time=0
EXTRACT: note_on channel=1 note=46 velocity=0 time=0
EXTRACT: note_on channel=4 note=62 velocity=0 time=0
EXTRACT: note_on channel=9 note=36 velocity=0 time=0
EXTRACT: note_on channel=9 note=46 velocity=0 time=0
EXTRACT: note_on channel=5 note=58 velocity=0 time=0
EXTRACT: note_on channel=6 note=62 velocity=0 time=0
EXTRACT: note_on channel=3 note=70 velocity=0 time=0
EXTRACT: note_on channel=2 note=57 velocity=92 time=0
EXTRACT: note_on channel=2 note=60 velocity=92 time=0
EXTRACT: note_on channel=2 note=64 velocity=92 time=0
EXTRACT: note_on channel=1 note=45 velocity=108 time=0
EXTRACT: note_on channel=4 note=60 velocity=75 time=0
EXTRACT: note_on channel=9 note=40 velocity=127 time=0
EXTRACT: note_on channel=9 note=46 velocity=108 time=0
EXTRACT: note_on channel=5 note=57 velocity=92 time=0
EXTRACT: note_on channel=6 note=60 velocity=75 time=0
EXTRACT: note_on channel=3 note=69 velocity=110 time=0
EXTRACT: note_on channel=9 note=46 velocity=0 time=0.1764705
EXTRACT: note_on channel=9 note=40 velocity=0 time=0.1764705
EXTRACT: note_on channel=9 note=36 velocity=127 time=0
EXTRACT: note_on channel=9 note=42 velocity=108 time=0
EXTRACT: note_on channel=9 note=42 velocity=0 time=0.1764705
EXTRACT: note_on channel=2 note=57 velocity=0 time=0.1764705
EXTRACT: note_on channel=2 note=60 velocity=0 time=0
EXTRACT: note_on channel=2 note=64 velocity=0 time=0
EXTRACT: note_on channel=1 note=45 velocity=0 time=0
EXTRACT: note_on channel=4 note=60 velocity=0 time=0
EXTRACT: note_on channel=5 note=57 velocity=0 time=0
EXTRACT: note_on channel=6 note=60 velocity=0 time=0
EXTRACT: note_on channel=3 note=69 velocity=0 time=0
EXTRACT: note_on channel=2 note=55 velocity=92 time=0
EXTRACT: note_on channel=2 note=58 velocity=92 time=0
EXTRACT: note_on channel=2 note=62 velocity=92 time=0
EXTRACT: note_on channel=1 note=43 velocity=108 time=0
EXTRACT: note_on channel=4 note=58 velocity=75 time=0
EXTRACT: note_on channel=5 note=55 velocity=92 time=0
EXTRACT: note_on channel=6 note=58 velocity=75 time=0
EXTRACT: note_on channel=3 note=67 velocity=110 time=0
EXTRACT: note_on channel=9 note=42 velocity=108 time=0.1764705
EXTRACT: note_on channel=9 note=36 velocity=0 time=0.1764705
EXTRACT: note_on channel=9 note=42 velocity=0 time=0
EXTRACT: note_on channel=9 note=36 velocity=127 time=0
EXTRACT: note_on channel=9 note=42 velocity=108 time=0
EXTRACT: note_on channel=2 note=55 velocity=0 time=0.352941
EXTRACT: note_on channel=2 note=58 velocity=0 time=0
EXTRACT: note_on channel=2 note=62 velocity=0 time=0
EXTRACT: note_on channel=1 note=43 velocity=0 time=0
EXTRACT: note_on channel=4 note=58 velocity=0 time=0
EXTRACT: note_on channel=9 note=36 velocity=0 time=0
EXTRACT: note_on channel=9 note=42 velocity=0 time=0
EXTRACT: note_on channel=5 note=55 velocity=0 time=0
EXTRACT: note_on channel=6 note=58 velocity=0 time=0
EXTRACT: note_on channel=3 note=67 velocity=0 time=0
EXTRACT: note_on channel=2 note=53 velocity=92 time=0
EXTRACT: note_on channel=2 note=57 velocity=92 time=0
EXTRACT: note_on channel=2 note=60 velocity=92 time=0
EXTRACT: note_on channel=1 note=41 velocity=108 time=0
EXTRACT: note_on channel=4 note=53 velocity=75 time=0
EXTRACT: note_on channel=9 note=40 velocity=127 time=0
EXTRACT: note_on channel=9 note=46 velocity=108 time=0
EXTRACT: note_on channel=5 note=53 velocity=92 time=0
EXTRACT: note_on channel=6 note=57 velocity=75 time=0
EXTRACT: note_on channel=3 note=65 velocity=110 time=0
EXTRACT: note_on channel=9 note=40 velocity=0 time=0.352941
EXTRACT: note_on channel=3 note=65 velocity=0 time=0
EXTRACT: note_on channel=3 note=69 velocity=110 time=0
EXTRACT: note_on channel=2 note=53 velocity=0 time=0.352941
EXTRACT: note_on channel=2 note=57 velocity=0 time=0
EXTRACT: note_on channel=2 note=60 velocity=0 time=0
EXTRACT: note_on channel=1 note=41 velocity=0 time=0
EXTRACT: note_on channel=4 note=53 velocity=0 time=0
EXTRACT: note_on channel=9 note=46 velocity=0 time=0
EXTRACT: note_on channel=5 note=53 velocity=0 time=0
EXTRACT: note_on channel=6 note=57 velocity=0 time=0
EXTRACT: note_on channel=3 note=69 velocity=0 time=0
EXTRACT: note_on channel=2 note=55 velocity=92 time=0
EXTRACT: note_on channel=2 note=58 velocity=92 time=0
EXTRACT: note_on channel=2 note=62 velocity=92 time=0
EXTRACT: note_on channel=1 note=43 velocity=108 time=0
EXTRACT: note_on channel=4 note=55 velocity=75 time=0
EXTRACT: note_on channel=9 note=36 velocity=127 time=0
EXTRACT: note_on channel=5 note=50 velocity=92 time=0
EXTRACT: note_on channel=6 note=58 velocity=75 time=0
EXTRACT: note_on channel=3 note=67 velocity=110 time=0
EXTRACT: note_on channel=9 note=46 velocity=108 time=0.352941
EXTRACT: note_on channel=9 note=36 velocity=0 time=0.352941
EXTRACT: note_on channel=9 note=46 velocity=0 time=0
EXTRACT: note_on channel=9 note=40 velocity=127 time=0
EXTRACT: note_on channel=9 note=46 velocity=108 time=0
EXTRACT: note_on channel=9 note=46 velocity=0 time=0.1764705
EXTRACT: note_on channel=9 note=40 velocity=0 time=0.1764705
EXTRACT: note_on channel=3 note=67 velocity=0 time=0
EXTRACT: note_on channel=9 note=36 velocity=127 time=0
EXTRACT: note_on channel=9 note=42 velocity=108 time=0
EXTRACT: note_on channel=3 note=74 velocity=110 time=0
EXTRACT: note_on channel=9 note=42 velocity=0 time=0.1764705
EXTRACT: note_on channel=2 note=55 velocity=0 time=0.1764705
EXTRACT: note_on channel=2 note=58 velocity=0 time=0
EXTRACT: note_on channel=2 note=62 velocity=0 time=0
EXTRACT: note_on channel=1 note=43 velocity=0 time=0
EXTRACT: note_on channel=4 note=55 velocity=0 time=0
EXTRACT: note_on channel=5 note=50 velocity=0 time=0
EXTRACT: note_on channel=6 note=58 velocity=0 time=0
EXTRACT: note_on channel=3 note=74 velocity=0 time=0
EXTRACT: note_on channel=2 note=57 velocity=92 time=0
EXTRACT: note_on channel=2 note=61 velocity=92 time=0
EXTRACT: note_on channel=2 note=64 velocity=92 time=0
EXTRACT: note_on channel=1 note=45 velocity=108 time=0
EXTRACT: note_on channel=4 note=57 velocity=75 time=0
EXTRACT: note_on channel=5 note=61 velocity=92 time=0
EXTRACT: note_on channel=6 note=64 velocity=75 time=0
EXTRACT: note_on channel=3 note=73 velocity=110 time=0
EXTRACT: note_on channel=9 note=36 velocity=0 time=0.1764705
EXTRACT: note_on channel=9 note=36 velocity=127 time=0
EXTRACT: note_on channel=9 note=42 velocity=108 time=0
EXTRACT: note_on channel=9 note=36 velocity=0 time=0.1764705
EXTRACT: note_on channel=9 note=42 velocity=0 time=0
EXTRACT: note_on channel=9 note=36 velocity=127 time=0
EXTRACT: note_on channel=9 note=42 velocity=108 time=0
EXTRACT: note_on channel=9 note=36 velocity=0 time=0.352941
EXTRACT: note_on channel=9 note=42 velocity=0 time=0
EXTRACT: note_on channel=3 note=73 velocity=0 time=0
EXTRACT: note_on channel=9 note=40 velocity=127 time=0
EXTRACT: note_on channel=9 note=46 velocity=108 time=0
EXTRACT: note_on channel=3 note=69 velocity=110 time=0
EXTRACT: note_on channel=3 note=69 velocity=0 time=0.1764705
EXTRACT: note_on channel=3 note=69 velocity=110 time=0
EXTRACT: note_on channel=9 note=40 velocity=0 time=0.1764705
EXTRACT: note_on channel=3 note=69 velocity=0 time=0
EXTRACT: note_on channel=3 note=77 velocity=110 time=0
EXTRACT: note_on channel=2 note=57 velocity=0 time=0.352941
EXTRACT: note_on channel=2 note=61 velocity=0 time=0
EXTRACT: note_on channel=2 note=64 velocity=0 time=0
EXTRACT: note_on channel=1 note=45 velocity=0 time=0
EXTRACT: note_on channel=4 note=57 velocity=0 time=0
EXTRACT: note_on channel=9 note=46 velocity=0 time=0
EXTRACT: note_on channel=5 note=61 velocity=0 time=0
EXTRACT: note_on channel=6 note=64 velocity=0 time=0
EXTRACT: note_on channel=2 note=69 velocity=92 time=0
EXTRACT: note_on channel=2 note=74 velocity=92 time=0
EXTRACT: note_on channel=2 note=77 velocity=92 time=0
EXTRACT: note_on channel=1 note=62 velocity=60 time=0
EXTRACT: note_on channel=9 note=36 velocity=127 time=0
EXTRACT: note_on channel=5 note=65 velocity=45 time=0
EXTRACT: note_on channel=6 note=74 velocity=45 time=0
EXTRACT: note_on channel=3 note=77 velocity=0 time=0.1764705
EXTRACT: note_on channel=3 note=79 velocity=110 time=0
EXTRACT: note_on channel=3 note=79 velocity=0 time=0.08823525
EXTRACT: note_on channel=3 note=77 velocity=110 time=0
EXTRACT: note_on channel=3 note=77 velocity=0 time=0.08823525
EXTRACT: note_on channel=8 note=77 velocity=60 time=0
EXTRACT: note_on channel=3 note=76 velocity=110 time=0
EXTRACT: note_on channel=8 note=77 velocity=0 time=0.1764705
EXTRACT: note_on channel=3 note=76 velocity=0 time=0
EXTRACT: note_on channel=8 note=76 velocity=60 time=0
EXTRACT: note_on channel=3 note=74 velocity=110 time=0
EXTRACT: note_on channel=2 note=69 velocity=0 time=0.1764705
EXTRACT: note_on channel=2 note=74 velocity=0 time=0
EXTRACT: note_on channel=2 note=77 velocity=0 time=0
EXTRACT: note_on channel=8 note=76 velocity=0 time=0
EXTRACT: note_on channel=9 note=36 velocity=0 time=0
EXTRACT: note_on channel=3 note=74 velocity=0 time=0
EXTRACT: note_on channel=2 note=69 velocity=92 time=0
EXTRACT: note_on channel=2 note=74 velocity=92 time=0
EXTRACT: note_on channel=2 note=77 velocity=92 time=0
EXTRACT: note_on channel=8 note=77 velocity=60 time=0
EXTRACT: note_on channel=9 note=39 velocity=127 time=0
EXTRACT: note_on channel=3 note=70 velocity=110 time=0
EXTRACT: note_on channel=8 note=77 velocity=0 time=0.1764705
EXTRACT: note_on channel=3 note=70 velocity=0 time=0
EXTRACT: note_on channel=8 note=74 velocity=60 time=0
EXTRACT: note_on channel=3 note=69 velocity=110 time=0
EXTRACT: note_on channel=8 note=74 velocity=0 time=0.1764705
EXTRACT: note_on channel=9 note=39 velocity=0 time=0
EXTRACT: note_on channel=3 note=69 velocity=0 time=0
EXTRACT: note_on channel=8 note=77 velocity=60 time=0
EXTRACT: note_on channel=9 note=36 velocity=127 time=0
EXTRACT: note_on channel=3 note=67 velocity=110 time=0
EXTRACT: note_on channel=8 note=77 velocity=0 time=0.1764705
EXTRACT: note_on channel=3 note=67 velocity=0 time=0
EXTRACT: note_on channel=8 note=76 velocity=60 time=0
EXTRACT: note_on channel=3 note=65 velocity=110 time=0
EXTRACT: note_on channel=2 note=69 velocity=0 time=0.1764705
EXTRACT: note_on channel=2 note=74 velocity=0 time=0
EXTRACT: note_on channel=2 note=77 velocity=0 time=0
EXTRACT: note_on channel=8 note=76 velocity=0 time=0
EXTRACT: note_on channel=3 note=65 velocity=0 time=0
EXTRACT: note_on channel=2 note=69 velocity=92 time=0
EXTRACT: note_on channel=2 note=74 velocity=92 time=0
EXTRACT: note_on channel=2 note=77 velocity=92 time=0
EXTRACT: note_on channel=8 note=77 velocity=60 time=0
EXTRACT: note_on channel=3 note=64 velocity=110 time=0
EXTRACT: note_on channel=8 note=77 velocity=0 time=0.1764705
EXTRACT: note_on channel=3 note=64 velocity=0 time=0
EXTRACT: note_on channel=8 note=74 velocity=60 time=0
EXTRACT: note_on channel=3 note=65 velocity=110 time=0
EXTRACT: note_on channel=9 note=36 velocity=0 time=0.1764705
EXTRACT: note_on channel=8 note=74 velocity=0 time=0
EXTRACT: note_on channel=3 note=65 velocity=0 time=0
EXTRACT: note_on channel=8 note=77 velocity=45 time=0
EXTRACT: note_on channel=9 note=36 velocity=127 time=0
EXTRACT: note_on channel=3 note=67 velocity=110 time=0
EXTRACT: note_on channel=8 note=77 velocity=0 time=0.1764705
EXTRACT: note_on channel=3 note=67 velocity=0 time=0
EXTRACT: note_on channel=8 note=76 velocity=45 time=0
EXTRACT: note_on channel=3 note=69 velocity=110 time=0
EXTRACT: note_on channel=2 note=69 velocity=0 time=0.1764705
EXTRACT: note_on channel=2 note=74 velocity=0 time=0
EXTRACT: note_on channel=2 note=77 velocity=0 time=0
EXTRACT: note_on channel=8 note=76 velocity=0 time=0
EXTRACT: note_on channel=9 note=36 velocity=0 time=0
EXTRACT: note_on channel=3 note=69 velocity=0 time=0
EXTRACT: note_on channel=2 note=69 velocity=92 time=0
EXTRACT: note_on channel=2 note=74 velocity=92 time=0
EXTRACT: note_on channel=2 note=77 velocity=92 time=0
EXTRACT: note_on channel=8 note=77 velocity=45 time=0
EXTRACT: note_on channel=9 note=39 velocity=127 time=0
EXTRACT: note_on channel=3 note=67 velocity=127 time=0
EXTRACT: note_on channel=8 note=77 velocity=0 time=0.1764705
EXTRACT: note_on channel=3 note=67 velocity=0 time=0
EXTRACT: note_on channel=8 note=74 velocity=45 time=0
EXTRACT: note_on channel=3 note=65 velocity=110 time=0
EXTRACT: note_on channel=8 note=74 velocity=0 time=0.1764705
EXTRACT: note_on channel=9 note=39 velocity=0 time=0
EXTRACT: note_on channel=3 note=65 velocity=0 time=0
EXTRACT: note_on channel=8 note=77 velocity=45 time=0
EXTRACT: note_on channel=3 note=64 velocity=110 time=0
EXTRACT: note_on channel=8 note=77 velocity=0 time=0.1764705
EXTRACT: note_on channel=3 note=64 velocity=0 time=0
EXTRACT: note_on channel=8 note=76 velocity=45 time=0
EXTRACT: note_on channel=3 note=64 velocity=110 time=0
EXTRACT: note_on channel=1 note=62 velocity=0 time=0.1764705
EXTRACT: note_on channel=5 note=65 velocity=0 time=0
EXTRACT: note_on channel=6 note=74 velocity=0 time=0
EXTRACT: note_on channel=2 note=69 velocity=0 time=0
EXTRACT: note_on channel=2 note=74 velocity=0 time=0
EXTRACT: note_on channel=2 note=77 velocity=0 time=0
EXTRACT: note_on channel=8 note=76 velocity=0 time=0
EXTRACT: note_on channel=3 note=64 velocity=0 time=0
EXTRACT: note_on channel=2 note=70 velocity=92 time=0
EXTRACT: note_on channel=2 note=74 velocity=92 time=0
EXTRACT: note_on channel=2 note=77 velocity=92 time=0
EXTRACT: note_on channel=1 note=58 velocity=60 time=0
EXTRACT: note_on channel=8 note=77 velocity=30 time=0
EXTRACT: note_on channel=9 note=36 velocity=127 time=0
EXTRACT: note_on channel=5 note=62 velocity=45 time=0
EXTRACT: note_on channel=6 note=70 velocity=45 time=0
EXTRACT: note_on channel=3 note=64 velocity=110 time=0
EXTRACT: note_on channel=8 note=77 velocity=0 time=0.1764705
EXTRACT: note_on channel=3 note=64 velocity=0 time=0
EXTRACT: note_on channel=8 note=74 velocity=30 time=0
EXTRACT: note_on channel=3 note=62 velocity=110 time=0
EXTRACT: note_on channel=8 note=74 velocity=0 time=0.1764705
EXTRACT: note_on channel=8 note=77 velocity=60 time=0
EXTRACT: note_on channel=8 note=77 velocity=0 time=0.1764705
EXTRACT: note_on channel=3 note=62 velocity=0 time=0
EXTRACT: note_on channel=8 note=76 velocity=60 time=0
EXTRACT: note_on channel=3 note=64 velocity=110 time=0
EXTRACT: note_on channel=2 note=70 velocity=0 time=0.1764705
EXTRACT: note_on channel=2 note=74 velocity=0 time=0
EXTRACT: note_on channel=2 note=77 velocity=0 time=0
EXTRACT: note_on channel=8 note=76 velocity=0 time=0
EXTRACT: note_on channel=9 note=36 velocity=0 time=0
EXTRACT: note_on channel=3 note=64 velocity=0 time=0
EXTRACT: note_on channel=2 note=70 velocity=92 time=0
EXTRACT: note_on channel=2 note=74 velocity=92 time=0
EXTRACT: note_on channel=2 note=77 velocity=92 time=0
EXTRACT: note_on channel=8 note=77 velocity=60 time=0
EXTRACT: note_on channel=9 note=39 velocity=127 time=0
EXTRACT: note_on channel=3 note=65 velocity=110 time=0
EXTRACT: note_on channel=8 note=77 velocity=0 time=0.1764705
EXTRACT: note_on channel=3 note=65 velocity=0 time=0
EXTRACT: note_on channel=8 note=74 velocity=60 time=0
EXTRACT: note_on channel=3 note=62 velocity=110 time=0
EXTRACT: note_on channel=8 note=74 velocity=0 time=0.1764705
EXTRACT: note_on channel=9 note=39 velocity=0 time=0
EXTRACT: note_on channel=8 note=77 velocity=60 time=0
EXTRACT: note_on channel=9 note=36 velocity=127 time=0
EXTRACT: note_on channel=8 note=77 velocity=0 time=0.1764705
EXTRACT: note_on channel=3 note=62 velocity=0 time=0
EXTRACT: note_on channel=8 note=76 velocity=60 time=0
EXTRACT: note_on channel=3 note=64 velocity=110 time=0
EXTRACT: note_on channel=2 note=70 velocity=0 time=0.1764705
EXTRACT: note_on channel=2 note=74 velocity=0 time=0
EXTRACT: note_on channel=2 note=77 velocity=0 time=0
EXTRACT: note_on channel=8 note=76 velocity=0 time=0
EXTRACT: note_on channel=3 note=64 velocity=0 time=0
EXTRACT: note_on channel=2 note=70 velocity=92 time=0
EXTRACT: note_on channel=2 note=74 velocity=92 time=0
EXTRACT: note_on channel=2 note=77 velocity=92 time=0
EXTRACT: note_on channel=8 note=77 velocity=60 time=0
EXTRACT: note_on channel=3 note=65 velocity=110 time=0
EXTRACT: note_on channel=8 note=77 velocity=0 time=0.1764705
EXTRACT: note_on channel=3 note=65 velocity=0 time=0
EXTRACT: note_on channel=8 note=74 velocity=60 time=0
EXTRACT: note_on channel=3 note=62 velocity=110 time=0
EXTRACT: note_on channel=9 note=36 velocity=0 time=0.1764705
EXTRACT: note_on channel=8 note=74 velocity=0 time=0
EXTRACT: note_on channel=8 note=77 velocity=60 time=0
EXTRACT: note_on channel=9 note=36 velocity=127 time=0
EXTRACT: note_on channel=1 note=58 velocity=0 time=0.1764705
EXTRACT: note_on channel=8 note=77 velocity=0 time=0
EXTRACT: note_on channel=3 note=62 velocity=0 time=0
EXTRACT: note_on channel=1 note=70 velocity=60 time=0
EXTRACT: note_on channel=8 note=76 velocity=60 time=0
EXTRACT: note_on channel=3 note=64 velocity=110 time=0
EXTRACT: note_on channel=2 note=70 velocity=0 time=0.1764705
EXTRACT: note_on channel=2 note=74 velocity=0 time=0
EXTRACT: note_on channel=2 note=77 velocity=0 time=0
EXTRACT: note_on channel=1 note=70 velocity=0 time=0
EXTRACT: note_on channel=8 note=76 velocity=0 time=0
EXTRACT: note_on channel=9 note=36 velocity=0 time=0
EXTRACT: note_on channel=3 note=64 velocity=0 time=0
EXTRACT: note_on channel=2 note=70 velocity=92 time=0
EXTRACT: note_on channel=2 note=74 velocity=92 time=0
EXTRACT: note_on channel=2 note=77 velocity=92 time=0
EXTRACT: note_on channel=4 note=62 velocity=75 time=0
EXTRACT: note_on channel=8 note=77 velocity=60 time=0
EXTRACT: note_on channel=9 note=39 velocity=127 time=0
EXTRACT: note_on channel=3 note=65 velocity=110 time=0
EXTRACT: note_on channel=8 note=77 velocity=0 time=0.1764705
EXTRACT: note_on channel=3 note=65 velocity=0 time=0
EXTRACT: note_on channel=8 note=74 velocity=60 time=0
EXTRACT: note_on channel=3 note=62 velocity=110 time=0
EXTRACT: note_on channel=8 note=74 velocity=0 time=0.1764705
EXTRACT: note_on channel=9 note=39 velocity=0 time=0
EXTRACT: note_on channel=1 note=77 velocity=60 time=0.1764705
EXTRACT: note_on channel=5 note=62 velocity=0 time=0.1764705
EXTRACT: note_on channel=6 note=70 velocity=0 time=0
EXTRACT: note_on channel=2 note=70 velocity=0 time=0
EXTRACT: note_on channel=2 note=74 velocity=0 time=0
EXTRACT: note_on channel=2 note=77 velocity=0 time=0
EXTRACT: note_on channel=1 note=77 velocity=0 time=0
EXTRACT: note_on channel=4 note=62 velocity=0 time=0
EXTRACT: note_on channel=3 note=62 velocity=0 time=0
EXTRACT: control_change channel=1 control=64 value=0 time=0
EXTRACT: note_on channel=2 note=69 velocity=92 time=0
EXTRACT: note_on channel=2 note=72 velocity=92 time=0
EXTRACT: note_on channel=2 note=77 velocity=92 time=0
EXTRACT: note_on channel=1 note=65 velocity=60 time=0
EXTRACT: note_on channel=4 note=60 velocity=75 time=0
EXTRACT: note_on channel=9 note=36 velocity=127 time=0
EXTRACT: note_on channel=5 note=65 velocity=45 time=0
EXTRACT: note_on channel=6 note=69 velocity=45 time=0
EXTRACT: note_on channel=8 note=77 velocity=60 time=0.352941
EXTRACT: note_on channel=8 note=77 velocity=0 time=0.1764705
EXTRACT: note_on channel=8 note=76 velocity=60 time=0
EXTRACT: note_on channel=2 note=69 velocity=0 time=0.1764705
EXTRACT: note_on channel=2 note=72 velocity=0 time=0
EXTRACT: note_on channel=2 note=77 velocity=0 time=0
EXTRACT: note_on channel=8 note=76 velocity=0 time=0
EXTRACT: note_on channel=9 note=36 velocity=0 time=0
EXTRACT: note_on channel=2 note=69 velocity=92 time=0
EXTRACT: note_on channel=2 note=72 velocity=92 time=0
EXTRACT: note_on channel=2 note=77 velocity=92 time=0
EXTRACT: note_on channel=8 note=72 velocity=60 time=0
EXTRACT: note_on channel=9 note=39 velocity=127 time=0
EXTRACT: note_on channel=8 note=72 velocity=0 time=0.1764705
EXTRACT: note_on channel=8 note=69 velocity=60 time=0
EXTRACT: note_on channel=8 note=69 velocity=0 time=0.1764705
EXTRACT: note_on channel=9 note=39 velocity=0 time=0
EXTRACT: note_on channel=8 note=77 velocity=60 time=0
EXTRACT: note_on channel=9 note=36 velocity=127 time=0
EXTRACT: note_on channel=8 note=77 velocity=0 time=0.1764705
EXTRACT: note_on channel=8 note=76 velocity=60 time=0
EXTRACT: note_on channel=2 note=69 velocity=0 time=0.1764705
EXTRACT: note_on channel=2 note=72 velocity=0 time=0
EXTRACT: note_on channel=2 note=77 velocity=0 time=0
EXTRACT: note_on channel=8 note=76 velocity=0 time=0
EXTRACT: note_on channel=2 note=69 velocity=92 time=0
EXTRACT: note_on channel=2 note=72 velocity=92 time=0
EXTRACT: note_on channel=2 note=77 velocity=92 time=0
EXTRACT: note_on channel=8 note=72 velocity=60 time=0
EXTRACT: note_on channel=8 note=72 velocity=0 time=0.1764705
EXTRACT: note_on channel=8 note=69 velocity=60 time=0
EXTRACT: note_on channel=9 note=36 velocity=0 time=0.1764705
EXTRACT: note_on channel=8 note=69 velocity=0 time=0
EXTRACT: note_on channel=8 note=77 velocity=45 time=0
EXTRACT: note_on channel=9 note=36 velocity=127 time=0
EXTRACT: note_on channel=8 note=77 velocity=0 time=0.1764705
EXTRACT: note_on channel=8 note=76 velocity=45 time=0
EXTRACT: note_on channel=4 note=60 velocity=0 time=0.1764705
EXTRACT: note_on channel=2 note=69 velocity=0 time=0
EXTRACT: note_on channel=2 note=72 velocity=0 time=0
EXTRACT: note_on channel=2 note=77 velocity=0 time=0
EXTRACT: note_on channel=8 note=76 velocity=0 time=0
EXTRACT: note_on channel=9 note=36 velocity=0 time=0
EXTRACT: note_on channel=2 note=69 velocity=92 time=0
EXTRACT: note_on channel=2 note=72 velocity=92 time=0
EXTRACT: note_on channel=2 note=77 velocity=92 time=0
EXTRACT: note_on channel=4 note=57 velocity=75 time=0
EXTRACT: note_on channel=8 note=72 velocity=45 time=0
EXTRACT: note_on channel=9 note=39 velocity=127 time=0
EXTRACT: note_on channel=8 note=72 velocity=0 time=0.1764705
EXTRACT: note_on channel=8 note=69 velocity=45 time=0
EXTRACT: note_on channel=8 note=69 velocity=0 time=0.1764705
EXTRACT: note_on channel=9 note=39 velocity=0 time=0
EXTRACT: note_on channel=8 note=77 velocity=45 time=0
EXTRACT: note_on channel=8 note=77 velocity=0 time=0.1764705
EXTRACT: note_on channel=8 note=76 velocity=45 time=0
EXTRACT: note_on channel=1 note=65 velocity=0 time=0.1764705
EXTRACT: note_on channel=5 note=65 velocity=0 time=0
EXTRACT: note_on channel=6 note=69 velocity=0 time=0
EXTRACT: note_on channel=2 note=69 velocity=0 time=0
EXTRACT: note_on channel=2 note=72 velocity=0 time=0
EXTRACT: note_on channel=2 note=77 velocity=0 time=0
EXTRACT: note_on channel=4 note=57 velocity=0 time=0
EXTRACT: note_on channel=8 note=76 velocity=0 time=0
EXTRACT: note_on channel=2 note=67 velocity=92 time=0
EXTRACT: note_on channel=2 note=72 velocity=92 time=0
EXTRACT: note_on channel=2 note=76 velocity=92 time=0
EXTRACT: note_on channel=1 note=64 velocity=60 time=0
EXTRACT: note_on channel=4 note=55 velocity=75 time=0
EXTRACT: note_on channel=8 note=72 velocity=45 time=0
EXTRACT: note_on channel=9 note=36 velocity=127 time=0
EXTRACT: note_on channel=5 note=72 velocity=45 time=0
EXTRACT: note_on channel=6 note=67 velocity=45 time=0
EXTRACT: note_on channel=8 note=72 velocity=0 time=0.1764705
EXTRACT: note_on channel=8 note=69 velocity=45 time=0
EXTRACT: note_on channel=8 note=69 velocity=0 time=0.1764705
EXTRACT: note_on channel=8 note=77 velocity=30 time=0
EXTRACT: note_on channel=8 note=77 velocity=0 time=0.1764705
EXTRACT: note_on channel=8 note=76 velocity=30 time=0
EXTRACT: note_on channel=4 note=55 velocity=0 time=0.1764705
EXTRACT: note_on channel=8 note=76 velocity=0 time=0
EXTRACT: note_on channel=9 note=36 velocity=0 time=0
EXTRACT: note_on channel=4 note=53 velocity=75 time=0
EXTRACT: note_on channel=8 note=72 velocity=30 time=0
EXTRACT: note_on channel=9 note=39 velocity=127 time=0
EXTRACT: note_on channel=8 note=72 velocity=0 time=0.1764705
EXTRACT: note_on channel=8 note=69 velocity=30 time=0
EXTRACT: note_on channel=8 note=69 velocity=0 time=0.1764705
EXTRACT: note_on channel=9 note=39 velocity=0 time=0
EXTRACT: note_on channel=8 note=77 velocity=30 time=0
EXTRACT: note_on channel=9 note=36 velocity=127 time=0
EXTRACT: note_on channel=8 note=77 velocity=0 time=0.1764705
EXTRACT: note_on channel=8 note=76 velocity=30 time=0
EXTRACT: note_on channel=4 note=53 velocity=0 time=0.1764705
EXTRACT: note_on channel=8 note=76 velocity=0 time=0
EXTRACT: note_on channel=4 note=52 velocity=75 time=0
EXTRACT: note_on channel=8 note=72 velocity=30 time=0
EXTRACT: note_on channel=8 note=72 velocity=0 time=0.1764705
EXTRACT: note_on channel=9 note=36 velocity=0 time=0
EXTRACT: note_on channel=8 note=69 velocity=30 time=0
EXTRACT: note_on channel=9 note=36 velocity=127 time=0
EXTRACT: note_on channel=8 note=69 velocity=0 time=0.1764705
EXTRACT: note_on channel=9 note=36 velocity=0 time=0
EXTRACT: note_on channel=8 note=77 velocity=30 time=0
EXTRACT: note_on channel=9 note=36 velocity=127 time=0
EXTRACT: note_on channel=8 note=77 velocity=0 time=0.1764705
EXTRACT: note_on channel=8 note=76 velocity=30 time=0
EXTRACT: note_on channel=4 note=52 velocity=0 time=0.1764705
EXTRACT: note_on channel=8 note=76 velocity=0 time=0
EXTRACT: note_on channel=9 note=36 velocity=0 time=0
EXTRACT: note_on channel=4 note=48 velocity=75 time=0
EXTRACT: note_on channel=8 note=72 velocity=30 time=0
EXTRACT: note_on channel=9 note=39 velocity=127 time=0
EXTRACT: note_on channel=8 note=72 velocity=0 time=0.1764705
EXTRACT: note_on channel=8 note=69 velocity=30 time=0
EXTRACT: note_on channel=8 note=69 velocity=0 time=0.1764705
EXTRACT: note_on channel=9 note=39 velocity=0 time=0
EXTRACT: note_on channel=8 note=77 velocity=30 time=0
EXTRACT: note_on channel=8 note=77 velocity=0 time=0.1764705
EXTRACT: note_on channel=8 note=76 velocity=30 time=0
EXTRACT: note_on channel=2 note=67 velocity=0 time=0.1764705
EXTRACT: note_on channel=2 note=72 velocity=0 time=0
EXTRACT: note_on channel=2 note=76 velocity=0 time=0
EXTRACT: note_on channel=1 note=64 velocity=0 time=0
EXTRACT: note_on channel=5 note=72 velocity=0 time=0
EXTRACT: note_on channel=6 note=67 velocity=0 time=0
EXTRACT: note_on channel=4 note=48 velocity=0 time=0
EXTRACT: note_on channel=8 note=76 velocity=0 time=0
EXTRACT: program_change channel=6 program=50 time=0
EXTRACT: note_on channel=2 note=62 velocity=92 time=0
EXTRACT: note_on channel=2 note=65 velocity=92 time=0
EXTRACT: note_on channel=2 note=69 velocity=92 time=0
EXTRACT: note_on channel=1 note=50 velocity=108 time=0
EXTRACT: note_on channel=4 note=50 velocity=75 time=0
EXTRACT: note_on channel=8 note=84 velocity=75 time=0
EXTRACT: note_on channel=9 note=36 velocity=127 time=0
EXTRACT: note_on channel=5 note=57 velocity=75 time=0
EXTRACT: note_on channel=6 note=62 velocity=75 time=0
EXTRACT: note_on channel=3 note=69 velocity=110 time=0
EXTRACT: note_on channel=3 note=69 velocity=0 time=0.1764705
EXTRACT: note_on channel=3 note=69 velocity=110 time=0
EXTRACT: note_on channel=8 note=84 velocity=0 time=0.1764705
EXTRACT: note_on channel=3 note=69 velocity=0 time=0
EXTRACT: note_on channel=9 note=46 velocity=108 time=0
EXTRACT: note_on channel=3 note=69 velocity=110 time=0
EXTRACT: note_on channel=3 note=69 velocity=0 time=0.1764705
EXTRACT: note_on channel=3 note=69 velocity=110 time=0
EXTRACT: note_on channel=2 note=62 velocity=0 time=0.1764705
EXTRACT: note_on channel=2 note=65 velocity=0 time=0
EXTRACT: note_on channel=2 note=69 velocity=0 time=0
EXTRACT: note_on channel=9 note=36 velocity=0 time=0
EXTRACT: note_on channel=9 note=46 velocity=0 time=0
EXTRACT: note_on channel=3 note=69 velocity=0 time=0
EXTRACT: note_on channel=2 note=62 velocity=92 time=0
EXTRACT: note_on channel=2 note=65 velocity=92 time=0
EXTRACT: note_on channel=2 note=69 velocity=92 time=0
EXTRACT: note_on channel=8 note=84 velocity=75 time=0
EXTRACT: note_on channel=9 note=40 velocity=127 time=0
EXTRACT: note_on channel=9 note=46 velocity=108 time=0
EXTRACT: note_on channel=3 note=69 velocity=110 time=0
EXTRACT: note_on channel=9 note=46 velocity=0 time=0.1764705
EXTRACT: note_on channel=8 note=84 velocity=0 time=0.1764705
EXTRACT: note_on channel=9 note=40 velocity=0 time=0
EXTRACT: note_on channel=3 note=69 velocity=0 time=0
EXTRACT: note_on channel=9 note=36 velocity=127 time=0
EXTRACT: note_on channel=9 note=42 velocity=108 time=0
EXTRACT: note_on channel=3 note=69 velocity=110 time=0
EXTRACT: note_on channel=9 note=42 velocity=0 time=0.1764705
EXTRACT: note_on channel=3 note=69 velocity=0 time=0
EXTRACT: note_on channel=3 note=69 velocity=110 time=0
EXTRACT: note_on channel=2 note=62 velocity=0 time=0.1764705
EXTRACT: note_on channel=2 note=65 velocity=0 time=0
EXTRACT: note_on channel=2 note=69 velocity=0 time=0
EXTRACT: note_on channel=2 note=62 velocity=92 time=0
EXTRACT: note_on channel=2 note=65 velocity=92 time=0
EXTRACT: note_on channel=2 note=69 velocity=92 time=0
EXTRACT: note_on channel=8 note=84 velocity=75 time=0
EXTRACT: note_on channel=3 note=69 velocity=0 time=0.1764705
EXTRACT: note_on channel=9 note=42 velocity=108 time=0
EXTRACT: note_on channel=3 note=67 velocity=110 time=0
EXTRACT: note_on channel=9 note=36 velocity=0 time=0.1764705
EXTRACT: note_on channel=8 note=84 velocity=0 time=0
EXTRACT: note_on channel=9 note=42 velocity=0 time=0
EXTRACT: note_on channel=3 note=67 velocity=0 time=0
EXTRACT: note_on channel=9 note=36 velocity=127 time=0
EXTRACT: note_on channel=9 note=42 velocity=108 time=0
EXTRACT: note_on channel=3 note=67 velocity=110 time=0
EXTRACT: note_on channel=4 note=50 velocity=0 time=0.352941
EXTRACT: note_on channel=2 note=62 velocity=0 time=0
EXTRACT: note_on channel=2 note=65 velocity=0 time=0
EXTRACT: note_on channel=2 note=69 velocity=0 time=0
EXTRACT: note_on channel=9 note=36 velocity=0 time=0
EXTRACT: note_on channel=9 note=42 velocity=0 time=0
EXTRACT: note_on channel=2 note=62 velocity=92 time=0
EXTRACT: note_on channel=2 note=65 velocity=92 time=0
EXTRACT: note_on channel=2 note=69 velocity=92 time=0
EXTRACT: note_on channel=4 note=50 velocity=75 time=0
EXTRACT: note_on channel=8 note=84 velocity=75 time=0
EXTRACT: note_on channel=9 note=40 velocity=127 time=0
EXTRACT: note_on channel=9 note=46 velocity=108 time=0
EXTRACT: note_on channel=4 note=50 velocity=0 time=0.352941
EXTRACT: note_on channel=8 note=84 velocity=0 time=0
EXTRACT: note_on channel=9 note=40 velocity=0 time=0
EXTRACT: note_on channel=4 note=52 velocity=75 time=0
EXTRACT: note_on channel=8 note=81 velocity=75 time=0
EXTRACT: note_on channel=1 note=50 velocity=0 time=0.352941
EXTRACT: note_on channel=5 note=57 velocity=0 time=0
EXTRACT: note_on channel=6 note=62 velocity=0 time=0
EXTRACT: note_on channel=2 note=62 velocity=0 time=0
EXTRACT: note_on channel=2 note=65 velocity=0 time=0
EXTRACT: note_on channel=2 note=69 velocity=0 time=0
EXTRACT: note_on channel=4 note=52 velocity=0 time=0
EXTRACT: note_on channel=8 note=81 velocity=0 time=0
EXTRACT: note_on channel=9 note=46 velocity=0 time=0
EXTRACT: note_on channel=3 note=67 velocity=0 time=0
EXTRACT: note_on channel=2 note=62 velocity=92 time=0
EXTRACT: note_on channel=2 note=65 velocity=92 time=0
EXTRACT: note_on channel=2 note=70 velocity=92 time=0
EXTRACT: note_on channel=1 note=46 velocity=108 time=0
EXTRACT: note_on channel=4 note=53 velocity=75 time=0
EXTRACT: note_on channel=8 note=84 velocity=75 time=0
EXTRACT: note_on channel=9 note=36 velocity=127 time=0
EXTRACT: note_on channel=5 note=58 velocity=75 time=0
EXTRACT: note_on channel=6 note=58 velocity=75 time=0
EXTRACT: note_on channel=3 note=69 velocity=110 time=0
EXTRACT: note_on channel=3 note=69 velocity=0 time=0.1764705
EXTRACT: note_on channel=3 note=69 velocity=110 time=0
EXTRACT: note_on channel=8 note=84 velocity=0 time=0.1764705
EXTRACT: note_on channel=3 note=69 velocity=0 time=0
EXTRACT: note_on channel=9 note=46 velocity=108 time=0
EXTRACT: note_on channel=3 note=69 velocity=110 time=0
EXTRACT: note_on channel=3 note=69 velocity=0 time=0.1764705
EXTRACT: note_on channel=3 note=69 velocity=110 time=0
EXTRACT: note_on channel=2 note=62 velocity=0 time=0.1764705
EXTRACT: note_on channel=2 note=65 velocity=0 time=0
EXTRACT: note_on channel=2 note=70 velocity=0 time=0
EXTRACT: note_on channel=9 note=36 velocity=0 time=0
EXTRACT: note_on channel=9 note=46 velocity=0 time=0
EXTRACT: note_on channel=3 note=69 velocity=0 time=0
EXTRACT: note_on channel=2 note=62 velocity=92 time=0
EXTRACT: note_on channel=2 note=65 velocity=92 time=0
EXTRACT: note_on channel=2 note=70 velocity=92 time=0
EXTRACT: note_on channel=8 note=84 velocity=75 time=0
EXTRACT: note_on channel=9 note=40 velocity=127 time=0
EXTRACT: note_on channel=9 note=46 velocity=108 time=0
EXTRACT: note_on channel=3 note=72 velocity=110 time=0
EXTRACT: note_on channel=9 note=46 velocity=0 time=0.1764705
EXTRACT: note_on channel=8 note=84 velocity=0 time=0.1764705
EXTRACT: note_on channel=9 note=40 velocity=0 time=0
EXTRACT: note_on channel=3 note=72 velocity=0 time=0
EXTRACT: note_on channel=9 note=36 velocity=127 time=0
EXTRACT: note_on channel=9 note=42 velocity=108 time=0
EXTRACT: note_on channel=3 note=69 velocity=110 time=0
EXTRACT: note_on channel=9 note=42 velocity=0 time=0.1764705
EXTRACT: note_on channel=2 note=62 velocity=0 time=0.1764705
EXTRACT: note_on channel=2 note=65 velocity=0 time=0
EXTRACT: note_on channel=2 note=70 velocity=0 time=0
EXTRACT: note_on channel=3 note=69 velocity=0 time=0
EXTRACT: note_on channel=2 note=62 velocity=92 time=0
EXTRACT: note_on channel=2 note=65 velocity=92 time=0
EXTRACT: note_on channel=2 note=70 velocity=92 time=0
EXTRACT: note_on channel=8 note=84 velocity=75 time=0
EXTRACT: note_on channel=3 note=69 velocity=110 time=0
EXTRACT: note_on channel=9 note=42 velocity=108 time=0.1764705
EXTRACT: note_on channel=9 note=36 velocity=0 time=0.1764705
EXTRACT: note_on channel=8 note=84 velocity=0 time=0
EXTRACT: note_on channel=9 note=42 velocity=0 time=0
EXTRACT: note_on channel=3 note=69 velocity=0 time=0
EXTRACT: note_on channel=9 note=36 velocity=127 time=0
EXTRACT: note_on channel=9 note=42 velocity=108 time=0
EXTRACT: note_on channel=3 note=67 velocity=110 time=0
EXTRACT: note_on channel=2 note=62 velocity=0 time=0.352941
EXTRACT: note_on channel=2 note=65 velocity=0 time=0
EXTRACT: note_on channel=2 note=70 velocity=0 time=0
EXTRACT: note_on channel=9 note=36 velocity=0 time=0
EXTRACT: note_on channel=9 note=42 velocity=0 time=0
EXTRACT: note_on channel=2 note=62 velocity=92 time=0
EXTRACT: note_on channel=2 note=65 velocity=92 time=0
EXTRACT: note_on channel=2 note=70 velocity=92 time=0
EXTRACT: note_on channel=8 note=84 velocity=75 time=0
EXTRACT: note_on channel=9 note=40 velocity=127 time=0
EXTRACT: note_on channel=9 note=46 velocity=108 time=0
EXTRACT: note_on channel=8 note=84 velocity=0 time=0.352941
EXTRACT: note_on channel=9 note=40 velocity=0 time=0
EXTRACT: note_on channel=8 note=81 velocity=75 time=0
EXTRACT: note_on channel=3 note=67 velocity=0 time=0.1764705
EXTRACT: note_on channel=3 note=65 velocity=110 time=0
EXTRACT: note_on channel=1 note=46 velocity=0 time=0.1764705
EXTRACT: note_on channel=4 note=53 velocity=0 time=0
EXTRACT: note_on channel=5 note=58 velocity=0 time=0
EXTRACT: note_on channel=6 note=58 velocity=0 time=0
EXTRACT: note_on channel=2 note=62 velocity=0 time=0
EXTRACT: note_on channel=2 note=65 velocity=0 time=0
EXTRACT: note_on channel=2 note=70 velocity=0 time=0
EXTRACT: note_on channel=8 note=81 velocity=0 time=0
EXTRACT: note_on channel=9 note=46 velocity=0 time=0
EXTRACT: note_on channel=3 note=65 velocity=0 time=0
EXTRACT: note_on channel=2 note=65 velocity=92 time=0
EXTRACT: note_on channel=2 note=69 velocity=92 time=0
EXTRACT: note_on channel=2 note=72 velocity=92 time=0
EXTRACT: note_on channel=1 note=41 velocity=108 time=0
EXTRACT: note_on channel=4 note=48 velocity=75 time=0
EXTRACT: note_on channel=8 note=84 velocity=75 time=0
EXTRACT: note_on channel=9 note=36 velocity=127 time=0
EXTRACT: note_on channel=5 note=57 velocity=75 time=0
EXTRACT: note_on channel=6 note=53 velocity=75 time=0
EXTRACT: note_on channel=3 note=67 velocity=110 time=0
EXTRACT: note_on channel=3 note=67 velocity=0 time=0.1764705
EXTRACT: note_on channel=3 note=65 velocity=110 time=0
EXTRACT: note_on channel=8 note=84 velocity=0 time=0.1764705
EXTRACT: note_on channel=3 note=65 velocity=0 time=0
EXTRACT: note_on channel=9 note=46 velocity=108 time=0
EXTRACT: note_on channel=3 note=67 velocity=110 time=0
EXTRACT: note_on channel=3 note=67 velocity=0 time=0.1764705
EXTRACT: note_on channel=3 note=65 velocity=110 time=0
EXTRACT: note_on channel=2 note=65 velocity=0 time=0.1764705
EXTRACT: note_on channel=2 note=69 velocity=0 time=0
EXTRACT: note_on channel=2 note=72 velocity=0 time=0
EXTRACT: note_on channel=9 note=36 velocity=0 time=0
EXTRACT: note_on channel=9 note=46 velocity=0 time=0
EXTRACT: note_on channel=3 note=65 velocity=0 time=0
EXTRACT: note_on channel=2 note=65 velocity=92 time=0
EXTRACT: note_on channel=2 note=69 velocity=92 time=0
EXTRACT: note_on channel=2 note=72 velocity=92 time=0
EXTRACT: note_on channel=8 note=84 velocity=75 time=0
EXTRACT: note_on channel=9 note=40 velocity=127 time=0
EXTRACT: note_on channel=9 note=46 velocity=108 time=0
EXTRACT: note_on channel=3 note=69 velocity=110 time=0
EXTRACT: note_on channel=9 note=46 velocity=0 time=0.1764705
EXTRACT: note_on channel=8 note=84 velocity=0 time=0.1764705
EXTRACT: note_on channel=9 note=40 velocity=0 time=0
EXTRACT: note_on channel=3 note=69 velocity=0 time=0
EXTRACT: note_on channel=9 note=36 velocity=127 time=0
EXTRACT: note_on channel=9 note=42 velocity=108 time=0
EXTRACT: note_on channel=3 note=72 velocity=110 time=0
EXTRACT: note_on channel=9 note=42 velocity=0 time=0.1764705
EXTRACT: note_on channel=3 note=72 velocity=0 time=0
EXTRACT: note_on channel=3 note=67 velocity=110 time=0
EXTRACT: note_on channel=2 note=65 velocity=0 time=0.1764705
EXTRACT: note_on channel=2 note=69 velocity=0 time=0
EXTRACT: note_on channel=2 note=72 velocity=0 time=0
EXTRACT: note_on channel=2 note=65 velocity=92 time=0
EXTRACT: note_on channel=2 note=69 velocity=92 time=0
EXTRACT: note_on channel=2 note=72 velocity=92 time=0
EXTRACT: note_on channel=8 note=84 velocity=75 time=0
EXTRACT: note_on channel=3 note=67 velocity=0 time=0.1764705
EXTRACT: note_on channel=9 note=42 velocity=108 time=0
EXTRACT: note_on channel=3 note=65 velocity=110 time=0
EXTRACT: note_on channel=9 note=36 velocity=0 time=0.1764705
EXTRACT: note_on channel=8 note=84 velocity=0 time=0
EXTRACT: note_on channel=9 note=42 velocity=0 time=0
EXTRACT: note_on channel=3 note=65 velocity=0 time=0
EXTRACT: note_on channel=9 note=36 velocity=127 time=0
EXTRACT: note_on channel=9 note=42 velocity=108 time=0
EXTRACT: note_on channel=3 note=65 velocity=110 time=0
EXTRACT: note_on channel=4 note=48 velocity=0 time=0.352941
EXTRACT: note_on channel=2 note=65 velocity=0 time=0
EXTRACT: note_on channel=2 note=69 velocity=0 time=0
EXTRACT: note_on channel=2 note=72 velocity=0 time=0
EXTRACT: note_on channel=9 note=36 velocity=0 time=0
EXTRACT: note_on channel=9 note=42 velocity=0 time=0
EXTRACT: note_on channel=2 note=65 velocity=92 time=0
EXTRACT: note_on channel=2 note=69 velocity=92 time=0
EXTRACT: note_on channel=2 note=72 velocity=92 time=0
EXTRACT: note_on channel=4 note=53 velocity=75 time=0
EXTRACT: note_on channel=8 note=84 velocity=75 time=0
EXTRACT: note_on channel=9 note=40 velocity=127 time=0
EXTRACT: note_on channel=9 note=46 velocity=108 time=0
EXTRACT: note_on channel=3 note=65 velocity=0 time=0.1764705
EXTRACT: note_on channel=3 note=62 velocity=110 time=0
EXTRACT: note_on channel=4 note=53 velocity=0 time=0.1764705
EXTRACT: note_on channel=8 note=84 velocity=0 time=0
EXTRACT: note_on channel=9 note=40 velocity=0 time=0
EXTRACT: note_on channel=4 note=55 velocity=75 time=0
EXTRACT: note_on channel=8 note=81 velocity=75 time=0
EXTRACT: note_on channel=1 note=41 velocity=0 time=0.352941
EXTRACT: note_on channel=5 note=57 velocity=0 time=0
EXTRACT: note_on channel=6 note=53 velocity=0 time=0
EXTRACT: note_on channel=2 note=65 velocity=0 time=0
EXTRACT: note_on channel=2 note=69 velocity=0 time=0
EXTRACT: note_on channel=2 note=72 velocity=0 time=0
EXTRACT: note_on channel=4 note=55 velocity=0 time=0
EXTRACT: note_on channel=8 note=81 velocity=0 time=0
EXTRACT: note_on channel=9 note=46 velocity=0 time=0
EXTRACT: note_on channel=3 note=62 velocity=0 time=0
EXTRACT: note_on channel=2 note=64 velocity=92 time=0
EXTRACT: note_on channel=2 note=67 velocity=92 time=0
EXTRACT: note_on channel=2 note=72 velocity=92 time=0
EXTRACT: note_on channel=1 note=40 velocity=108 time=0
EXTRACT: note_on channel=4 note=55 velocity=75 time=0
EXTRACT: note_on channel=8 note=79 velocity=75 time=0
EXTRACT: note_on channel=9 note=36 velocity=127 time=0
EXTRACT: note_on channel=5 note=55 velocity=75 time=0
EXTRACT: note_on channel=6 note=52 velocity=75 time=0
EXTRACT: note_on channel=3 note=65 velocity=110 time=0
EXTRACT: note_on channel=3 note=65 velocity=0 time=0.1764705
EXTRACT: note_on channel=3 note=62 velocity=110 time=0
EXTRACT: note_on channel=8 note=79 velocity=0 time=0.1764705
EXTRACT: note_on channel=3 note=62 velocity=0 time=0
EXTRACT: note_on channel=9 note=46 velocity=108 time=0
EXTRACT: note_on channel=3 note=65 velocity=110 time=0
EXTRACT: note_on channel=3 note=65 velocity=0 time=0.1764705
EXTRACT: note_on channel=3 note=62 velocity=110 time=0
EXTRACT: note_on channel=2 note=64 velocity=0 time=0.1764705
EXTRACT: note_on channel=2 note=67 velocity=0 time=0
EXTRACT: note_on channel=2 note=72 velocity=0 time=0
EXTRACT: note_on channel=9 note=36 velocity=0 time=0
EXTRACT: note_on channel=9 note=46 velocity=0 time=0
EXTRACT: note_on channel=3 note=62 velocity=0 time=0
EXTRACT: note_on channel=2 note=64 velocity=92 time=0
EXTRACT: note_on channel=2 note=67 velocity=92 time=0
EXTRACT: note_on channel=2 note=72 velocity=92 time=0
EXTRACT: note_on channel=8 note=79 velocity=75 time=0
EXTRACT: note_on channel=9 note=40 velocity=127 time=0
EXTRACT: note_on channel=9 note=46 velocity=108 time=0
EXTRACT: note_on channel=3 note=67 velocity=110 time=0
EXTRACT: note_on channel=9 note=46 velocity=0 time=0.1764705
EXTRACT: note_on channel=8 note=79 velocity=0 time=0.1764705
EXTRACT: note_on channel=9 note=40 velocity=0 time=0
EXTRACT: note_on channel=3 note=67 velocity=0 time=0
EXTRACT: note_on channel=9 note=36 velocity=127 time=0
EXTRACT: note_on channel=9 note=42 velocity=108 time=0
EXTRACT: note_on channel=3 note=62 velocity=110 time=0
EXTRACT: note_on channel=9 note=42 velocity=0 time=0.1764705
EXTRACT: note_on channel=2 note=64 velocity=0 time=0.1764705
EXTRACT: note_on channel=2 note=67 velocity=0 time=0
EXTRACT: note_on channel=2 note=72 velocity=0 time=0
EXTRACT: note_on channel=3 note=62 velocity=0 time=0
EXTRACT: note_on channel=2 note=64 velocity=92 time=0
EXTRACT: note_on channel=2 note=67 velocity=92 time=0
EXTRACT: note_on channel=2 note=72 velocity=92 time=0
EXTRACT: note_on channel=8 note=79 velocity=75 time=0
EXTRACT: note_on channel=3 note=62 velocity=110 time=0
EXTRACT: note_on channel=9 note=36 velocity=0 time=0.1764705
EXTRACT: note_on channel=9 note=36 velocity=127 time=0
EXTRACT: note_on channel=9 note=42 velocity=108 time=0
EXTRACT: note_on channel=8 note=79 velocity=0 time=0.1764705
EXTRACT: note_on channel=9 note=36 velocity=0 time=0
EXTRACT: note_on channel=9 note=42 velocity=0 time=0
EXTRACT: note_on channel=9 note=36 velocity=127 time=0
EXTRACT: note_on channel=9 note=42 velocity=108 time=0
EXTRACT: note_on channel=2 note=64 velocity=0 time=0.352941
EXTRACT: note_on channel=2 note=67 velocity=0 time=0
EXTRACT: note_on channel=2 note=72 velocity=0 time=0
EXTRACT: note_on channel=9 note=36 velocity=0 time=0
EXTRACT: note_on channel=9 note=42 velocity=0 time=0
EXTRACT: note_on channel=3 note=62 velocity=0 time=0
EXTRACT: note_on channel=2 note=64 velocity=92 time=0
EXTRACT: note_on channel=2 note=67 velocity=92 time=0
EXTRACT: note_on channel=2 note=72 velocity=92 time=0
EXTRACT: note_on channel=8 note=79 velocity=75 time=0
EXTRACT: note_on channel=9 note=40 velocity=127 time=0
EXTRACT: note_on channel=9 note=46 velocity=108 time=0
EXTRACT: note_on channel=8 note=79 velocity=0 time=0.352941
EXTRACT: note_on channel=9 note=40 velocity=0 time=0
EXTRACT: note_on channel=3 note=64 velocity=110 time=0
EXTRACT: note_on channel=1 note=40 velocity=0 time=0.352941
EXTRACT: note_on channel=4 note=55 velocity=0 time=0
EXTRACT: note_on channel=5 note=55 velocity=0 time=0
EXTRACT: note_on channel=6 note=52 velocity=0 time=0
EXTRACT: note_on channel=2 note=64 velocity=0 time=0
EXTRACT: note_on channel=2 note=67 velocity=0 time=0
EXTRACT: note_on channel=2 note=72 velocity=0 time=0
EXTRACT: note_on channel=9 note=46 velocity=0 time=0
EXTRACT: note_on channel=3 note=64 velocity=0 time=0
EXTRACT: note_on channel=2 note=62 velocity=92 time=0
EXTRACT: note_on channel=2 note=65 velocity=92 time=0
EXTRACT: note_on channel=2 note=69 velocity=92 time=0
EXTRACT: note_on channel=1 note=50 velocity=108 time=0
EXTRACT: note_on channel=4 note=53 velocity=75 time=0
EXTRACT: note_on channel=8 note=84 velocity=75 time=0
EXTRACT: note_on channel=9 note=36 velocity=127 time=0
EXTRACT: note_on channel=5 note=57 velocity=75 time=0
EXTRACT: note_on channel=6 note=62 velocity=75 time=0
EXTRACT: note_on channel=3 note=65 velocity=110 time=0
EXTRACT: note_on channel=8 note=84 velocity=0 time=0.352941
EXTRACT: note_on channel=9 note=46 velocity=108 time=0
EXTRACT: note_on channel=3 note=65 velocity=0 time=0.1764705
EXTRACT: note_on channel=3 note=67 velocity=110 time=0
EXTRACT: note_on channel=2 note=62 velocity=0 time=0.1764705
EXTRACT: note_on channel=2 note=65 velocity=0 time=0
EXTRACT: note_on channel=2 note=69 velocity=0 time=0
EXTRACT: note_on channel=9 note=36 velocity=0 time=0
EXTRACT: note_on channel=9 note=46 velocity=0 time=0
EXTRACT: note_on channel=2 note=62 velocity=92 time=0
EXTRACT: note_on channel=2 note=65 velocity=92 time=0
EXTRACT: note_on channel=2 note=69 velocity=92 time=0
EXTRACT: note_on channel=8 note=84 velocity=75 time=0
EXTRACT: note_on channel=9 note=40 velocity=127 time=0
EXTRACT: note_on channel=9 note=46 velocity=108 time=0
EXTRACT: note_on channel=9 note=46 velocity=0 time=0.1764705
EXTRACT: note_on channel=3 note=67 velocity=0 time=0.0220588125
EXTRACT: note_on channel=8 note=84 velocity=0 time=0.1544116875
EXTRACT: note_on channel=9 note=40 velocity=0 time=0
EXTRACT: note_on channel=9 note=42 velocity=108 time=0
EXTRACT: note_on channel=3 note=64 velocity=110 time=0
EXTRACT: note_on channel=9 note=36 velocity=127 time=0
EXTRACT: note_on channel=9 note=42 velocity=0 time=0.1764705
EXTRACT: note_on channel=2 note=69 velocity=0 time=0.1764705
EXTRACT: note_on channel=2 note=65 velocity=0 time=0
EXTRACT: note_on channel=2 note=62 velocity=0 time=0
EXTRACT: note_on channel=3 note=64 velocity=0 time=0
EXTRACT: note_on channel=2 note=62 velocity=92 time=0
EXTRACT: note_on channel=2 note=65 velocity=92 time=0
EXTRACT: note_on channel=2 note=69 velocity=92 time=0
EXTRACT: note_on channel=8 note=84 velocity=75 time=0
EXTRACT: note_on channel=3 note=65 velocity=110 time=0
EXTRACT: note_on channel=9 note=42 velocity=108 time=0.1764705
EXTRACT: note_on channel=9 note=36 velocity=0 time=0.1764705
EXTRACT: note_on channel=8 note=84 velocity=0 time=0
EXTRACT: note_on channel=9 note=42 velocity=0 time=0
EXTRACT: note_on channel=9 note=36 velocity=127 time=0
EXTRACT: note_on channel=9 note=42 velocity=108 time=0
EXTRACT: note_on channel=3 note=65 velocity=0 time=0.1764705
EXTRACT: note_on channel=3 note=67 velocity=110 time=0
EXTRACT: note_on channel=2 note=62 velocity=0 time=0.1764705
EXTRACT: note_on channel=2 note=65 velocity=0 time=0
EXTRACT: note_on channel=2 note=69 velocity=0 time=0
EXTRACT: note_on channel=9 note=36 velocity=0 time=0
EXTRACT: note_on channel=9 note=42 velocity=0 time=0
EXTRACT: note_on channel=2 note=62 velocity=92 time=0
EXTRACT: note_on channel=2 note=65 velocity=92 time=0
EXTRACT: note_on channel=2 note=69 velocity=92 time=0
EXTRACT: note_on channel=8 note=84 velocity=75 time=0
EXTRACT: note_on channel=9 note=40 velocity=127 time=0
EXTRACT: note_on channel=9 note=46 velocity=108 time=0
EXTRACT: note_on channel=3 note=67 velocity=0 time=0.1985293125
EXTRACT: note_on channel=8 note=84 velocity=0 time=0.1544116875
EXTRACT: note_on channel=9 note=40 velocity=0 time=0
EXTRACT: note_on channel=8 note=81 velocity=75 time=0
EXTRACT: note_on channel=3 note=64 velocity=110 time=0
EXTRACT: note_on channel=4 note=53 velocity=0 time=0.352941
EXTRACT: note_on channel=1 note=50 velocity=0 time=0
EXTRACT: note_on channel=5 note=57 velocity=0 time=0
EXTRACT: note_on channel=6 note=62 velocity=0 time=0
EXTRACT: note_on channel=2 note=62 velocity=0 time=0
EXTRACT: note_on channel=2 note=65 velocity=0 time=0
EXTRACT: note_on channel=2 note=69 velocity=0 time=0
EXTRACT: note_on channel=8 note=81 velocity=0 time=0
EXTRACT: note_on channel=9 note=46 velocity=0 time=0
EXTRACT: note_on channel=3 note=64 velocity=0 time=0
EXTRACT: note_on channel=2 note=62 velocity=92 time=0
EXTRACT: note_on channel=2 note=65 velocity=92 time=0
EXTRACT: note_on channel=2 note=70 velocity=92 time=0
EXTRACT: note_on channel=1 note=46 velocity=108 time=0
EXTRACT: note_on channel=4 note=62 velocity=75 time=0
EXTRACT: note_on channel=8 note=84 velocity=75 time=0
EXTRACT: note_on channel=9 note=36 velocity=127 time=0
EXTRACT: note_on channel=5 note=58 velocity=75 time=0
EXTRACT: note_on channel=6 note=58 velocity=75 time=0
EXTRACT: note_on channel=3 note=65 velocity=110 time=0
EXTRACT: note_on channel=8 note=84 velocity=0 time=0.352941
EXTRACT: note_on channel=9 note=46 velocity=108 time=0
EXTRACT: note_on channel=3 note=65 velocity=0 time=0.1764705
EXTRACT: note_on channel=3 note=67 velocity=110 time=0
EXTRACT: note_on channel=2 note=62 velocity=0 time=0.1764705
EXTRACT: note_on channel=2 note=65 velocity=0 time=0
EXTRACT: note_on channel=2 note=70 velocity=0 time=0
EXTRACT: note_on channel=9 note=36 velocity=0 time=0
EXTRACT: note_on channel=9 note=46 velocity=0 time=0
EXTRACT: note_on channel=2 note=62 velocity=92 time=0
EXTRACT: note_on channel=2 note=65 velocity=92 time=0
EXTRACT: note_on channel=2 note=70 velocity=92 time=0
EXTRACT: note_on channel=8 note=84 velocity=75 time=0
EXTRACT: note_on channel=9 note=40 velocity=127 time=0
EXTRACT: note_on channel=9 note=46 velocity=108 time=0
EXTRACT: note_on channel=9 note=46 velocity=0 time=0.1764705
EXTRACT: note_on channel=3 note=67 velocity=0 time=0.0220588125
EXTRACT: note_on channel=8 note=84 velocity=0 time=0.1544116875
EXTRACT: note_on channel=9 note=40 velocity=0 time=0
EXTRACT: note_on channel=9 note=36 velocity=127 time=0
EXTRACT: note_on channel=9 note=42 velocity=108 time=0
EXTRACT: note_on channel=3 note=64 velocity=110 time=0
EXTRACT: note_on channel=9 note=42 velocity=0 time=0.1764705
EXTRACT: note_on channel=2 note=62 velocity=0 time=0.1764705
EXTRACT: note_on channel=2 note=65 velocity=0 time=0
EXTRACT: note_on channel=2 note=70 velocity=0 time=0
EXTRACT: note_on channel=3 note=64 velocity=0 time=0
EXTRACT: note_on channel=2 note=62 velocity=92 time=0
EXTRACT: note_on channel=2 note=65 velocity=92 time=0
EXTRACT: note_on channel=2 note=70 velocity=92 time=0
EXTRACT: note_on channel=8 note=84 velocity=75 time=0
EXTRACT: note_on channel=3 note=65 velocity=110 time=0
EXTRACT: note_on channel=9 note=42 velocity=108 time=0.1764705
EXTRACT: note_on channel=9 note=36 velocity=0 time=0.1764705
EXTRACT: note_on channel=8 note=84 velocity=0 time=0
EXTRACT: note_on channel=9 note=42 velocity=0 time=0
EXTRACT: note_on channel=9 note=36 velocity=127 time=0
EXTRACT: note_on channel=9 note=42 velocity=108 time=0
EXTRACT: note_on channel=2 note=62 velocity=0 time=0.352941
EXTRACT: note_on channel=2 note=65 velocity=0 time=0
EXTRACT: note_on channel=2 note=70 velocity=0 time=0
EXTRACT: note_on channel=9 note=36 velocity=0 time=0
EXTRACT: note_on channel=9 note=42 velocity=0 time=0
EXTRACT: note_on channel=3 note=65 velocity=0 time=0
EXTRACT: note_on channel=2 note=62 velocity=92 time=0
EXTRACT: note_on channel=2 note=65 velocity=92 time=0
EXTRACT: note_on channel=2 note=70 velocity=92 time=0
EXTRACT: note_on channel=8 note=84 velocity=75 time=0
EXTRACT: note_on channel=9 note=40 velocity=127 time=0
EXTRACT: note_on channel=9 note=46 velocity=108 time=0
EXTRACT: note_on channel=3 note=65 velocity=110 time=0
EXTRACT: note_on channel=8 note=84 velocity=0 time=0.352941
EXTRACT: note_on channel=9 note=40 velocity=0 time=0
EXTRACT: note_on channel=8 note=81 velocity=75 time=0
EXTRACT: note_on channel=1 note=46 velocity=0 time=0.352941
EXTRACT: note_on channel=4 note=62 velocity=0 time=0
EXTRACT: note_on channel=5 note=58 velocity=0 time=0
EXTRACT: note_on channel=6 note=58 velocity=0 time=0
EXTRACT: note_on channel=2 note=62 velocity=0 time=0
EXTRACT: note_on channel=2 note=65 velocity=0 time=0
EXTRACT: note_on channel=2 note=70 velocity=0 time=0
EXTRACT: note_on channel=8 note=81 velocity=0 time=0
EXTRACT: note_on channel=9 note=46 velocity=0 time=0
EXTRACT: note_on channel=3 note=65 velocity=0 time=0
EXTRACT: note_on channel=2 note=65 velocity=92 time=0
EXTRACT: note_on channel=2 note=69 velocity=92 time=0
EXTRACT: note_on channel=2 note=72 velocity=92 time=0
EXTRACT: note_on channel=1 note=41 velocity=108 time=0
EXTRACT: note_on channel=4 note=60 velocity=75 time=0
EXTRACT: note_on channel=8 note=84 velocity=75 time=0
EXTRACT: note_on channel=9 note=36 velocity=127 time=0
EXTRACT: note_on channel=5 note=57 velocity=75 time=0
EXTRACT: note_on channel=6 note=53 velocity=75 time=0
EXTRACT: note_on channel=3 note=69 velocity=110 time=0
EXTRACT: note_on channel=8 note=84 velocity=0 time=0.352941
EXTRACT: note_on channel=9 note=46 velocity=108 time=0
EXTRACT: note_on channel=3 note=69 velocity=0 time=0.1764705
EXTRACT: note_on channel=3 note=67 velocity=110 time=0
EXTRACT: note_on channel=2 note=65 velocity=0 time=0.1764705
EXTRACT: note_on channel=2 note=69 velocity=0 time=0
EXTRACT: note_on channel=2 note=72 velocity=0 time=0
EXTRACT: note_on channel=9 note=36 velocity=0 time=0
EXTRACT: note_on channel=9 note=46 velocity=0 time=0
EXTRACT: note_on channel=2 note=65 velocity=92 time=0
EXTRACT: note_on channel=2 note=69 velocity=92 time=0
EXTRACT: note_on channel=2 note=72 velocity=92 time=0
EXTRACT: note_on channel=8 note=84 velocity=75 time=0
EXTRACT: note_on channel=9 note=40 velocity=127 time=0
EXTRACT: note_on channel=9 note=46 velocity=108 time=0
EXTRACT: note_on channel=9 note=46 velocity=0 time=0.1764705
EXTRACT: note_on channel=8 note=84 velocity=0 time=0.1764705
EXTRACT: note_on channel=9 note=40 velocity=0 time=0
EXTRACT: note_on channel=3 note=67 velocity=0 time=0
EXTRACT: note_on channel=9 note=36 velocity=127 time=0
EXTRACT: note_on channel=9 note=42 velocity=108 time=0
EXTRACT: note_on channel=3 note=65 velocity=110 time=0
EXTRACT: note_on channel=9 note=42 velocity=0 time=0.1764705
EXTRACT: note_on channel=3 note=65 velocity=0 time=0.07352937500000001
EXTRACT: note_on channel=2 note=65 velocity=0 time=0.102941125
EXTRACT: note_on channel=2 note=69 velocity=0 time=0
EXTRACT: note_on channel=2 note=72 velocity=0 time=0
EXTRACT: note_on channel=2 note=65 velocity=92 time=0
EXTRACT: note_on channel=2 note=69 velocity=92 time=0
EXTRACT: note_on channel=2 note=72 velocity=92 time=0
EXTRACT: note_on channel=8 note=84 velocity=75 time=0
EXTRACT: note_on channel=3 note=69 velocity=110 time=0
EXTRACT: note_on channel=9 note=42 velocity=108 time=0.1764705
EXTRACT: note_on channel=9 note=36 velocity=0 time=0.1764705
EXTRACT: note_on channel=8 note=84 velocity=0 time=0
EXTRACT: note_on channel=9 note=42 velocity=0 time=0
EXTRACT: note_on channel=9 note=36 velocity=127 time=0
EXTRACT: note_on channel=9 note=42 velocity=108 time=0
EXTRACT: note_on channel=3 note=69 velocity=0 time=0.1764705
EXTRACT: note_on channel=3 note=67 velocity=110 time=0
EXTRACT: note_on channel=4 note=60 velocity=0 time=0.1764705
EXTRACT: note_on channel=2 note=65 velocity=0 time=0
EXTRACT: note_on channel=2 note=69 velocity=0 time=0
EXTRACT: note_on channel=2 note=72 velocity=0 time=0
EXTRACT: note_on channel=9 note=36 velocity=0 time=0
EXTRACT: note_on channel=9 note=42 velocity=0 time=0
EXTRACT: note_on channel=2 note=65 velocity=92 time=0
EXTRACT: note_on channel=2 note=69 velocity=92 time=0
EXTRACT: note_on channel=2 note=72 velocity=92 time=0
EXTRACT: note_on channel=4 note=53 velocity=75 time=0
EXTRACT: note_on channel=8 note=84 velocity=75 time=0
EXTRACT: note_on channel=9 note=40 velocity=127 time=0
EXTRACT: note_on channel=9 note=46 velocity=108 time=0
EXTRACT: note_on channel=8 note=84 velocity=0 time=0.352941
EXTRACT: note_on channel=9 note=40 velocity=0 time=0
EXTRACT: note_on channel=3 note=67 velocity=0 time=0
EXTRACT: note_on channel=8 note=81 velocity=75 time=0
EXTRACT: note_on channel=3 note=65 velocity=110 time=0
EXTRACT: note_on channel=3 note=65 velocity=0 time=0.249999875
EXTRACT: note_on channel=1 note=41 velocity=0 time=0.102941125
EXTRACT: note_on channel=5 note=57 velocity=0 time=0
EXTRACT: note_on channel=6 note=53 velocity=0 time=0
EXTRACT: note_on channel=2 note=65 velocity=0 time=0
EXTRACT: note_on channel=2 note=69 velocity=0 time=0
EXTRACT: note_on channel=2 note=72 velocity=0 time=0
EXTRACT: note_on channel=4 note=53 velocity=0 time=0
EXTRACT: note_on channel=8 note=81 velocity=0 time=0
EXTRACT: note_on channel=9 note=46 velocity=0 time=0
EXTRACT: note_on channel=2 note=64 velocity=92 time=0
EXTRACT: note_on channel=2 note=67 velocity=92 time=0
EXTRACT: note_on channel=2 note=72 velocity=92 time=0
EXTRACT: note_on channel=1 note=40 velocity=108 time=0
EXTRACT: note_on channel=4 note=55 velocity=75 time=0
EXTRACT: note_on channel=8 note=79 velocity=75 time=0
EXTRACT: note_on channel=9 note=36 velocity=127 time=0
EXTRACT: note_on channel=5 note=55 velocity=75 time=0
EXTRACT: note_on channel=6 note=52 velocity=75 time=0
EXTRACT: note_on channel=3 note=69 velocity=110 time=0
EXTRACT: note_on channel=8 note=79 velocity=0 time=0.352941
EXTRACT: note_on channel=9 note=46 velocity=108 time=0
EXTRACT: note_on channel=3 note=69 velocity=0 time=0.1764705
EXTRACT: note_on channel=3 note=67 velocity=110 time=0
EXTRACT: note_on channel=2 note=64 velocity=0 time=0.1764705
EXTRACT: note_on channel=2 note=67 velocity=0 time=0
EXTRACT: note_on channel=2 note=72 velocity=0 time=0
EXTRACT: note_on channel=9 note=36 velocity=0 time=0
EXTRACT: note_on channel=9 note=46 velocity=0 time=0
EXTRACT: note_on channel=2 note=64 velocity=92 time=0
EXTRACT: note_on channel=2 note=67 velocity=92 time=0
EXTRACT: note_on channel=2 note=72 velocity=92 time=0
EXTRACT: note_on channel=8 note=79 velocity=75 time=0
EXTRACT: note_on channel=9 note=40 velocity=127 time=0
EXTRACT: note_on channel=9 note=46 velocity=108 time=0
EXTRACT: note_on channel=9 note=46 velocity=0 time=0.1764705
EXTRACT: note_on channel=8 note=79 velocity=0 time=0.1764705
EXTRACT: note_on channel=9 note=40 velocity=0 time=0
EXTRACT: note_on channel=3 note=67 velocity=0 time=0
EXTRACT: note_on channel=9 note=36 velocity=127 time=0
EXTRACT: note_on channel=9 note=42 velocity=108 time=0
EXTRACT: note_on channel=3 note=65 velocity=110 time=0
EXTRACT: note_on channel=9 note=42 velocity=0 time=0.1764705
EXTRACT: note_on channel=3 note=65 velocity=0 time=0.07352937500000001
EXTRACT: note_on channel=2 note=64 velocity=0 time=0.102941125
EXTRACT: note_on channel=2 note=67 velocity=0 time=0
EXTRACT: note_on channel=2 note=72 velocity=0 time=0
EXTRACT: note_on channel=2 note=64 velocity=92 time=0
EXTRACT: note_on channel=2 note=67 velocity=92 time=0
EXTRACT: note_on channel=2 note=72 velocity=92 time=0
EXTRACT: note_on channel=8 note=79 velocity=75 time=0
EXTRACT: note_on channel=3 note=67 velocity=110 time=0
EXTRACT: note_on channel=9 note=36 velocity=0 time=0.1764705
EXTRACT: note_on channel=9 note=36 velocity=127 time=0
EXTRACT: note_on channel=9 note=42 velocity=108 time=0
EXTRACT: note_on channel=8 note=79 velocity=0 time=0.1764705
EXTRACT: note_on channel=9 note=36 velocity=0 time=0
EXTRACT: note_on channel=9 note=42 velocity=0 time=0
EXTRACT: note_on channel=9 note=36 velocity=127 time=0
EXTRACT: note_on channel=9 note=42 velocity=108 time=0
EXTRACT: note_on channel=4 note=55 velocity=0 time=0.352941
EXTRACT: note_on channel=2 note=64 velocity=0 time=0
EXTRACT: note_on channel=2 note=67 velocity=0 time=0
EXTRACT: note_on channel=2 note=72 velocity=0 time=0
EXTRACT: note_on channel=9 note=36 velocity=0 time=0
EXTRACT: note_on channel=9 note=42 velocity=0 time=0
EXTRACT: note_on channel=3 note=67 velocity=0 time=0
EXTRACT: note_on channel=2 note=64 velocity=92 time=0
EXTRACT: note_on channel=2 note=67 velocity=92 time=0
EXTRACT: note_on channel=2 note=72 velocity=92 time=0
EXTRACT: note_on channel=4 note=57 velocity=75 time=0
EXTRACT: note_on channel=8 note=79 velocity=75 time=0
EXTRACT: note_on channel=9 note=40 velocity=127 time=0
EXTRACT: note_on channel=9 note=46 velocity=108 time=0
EXTRACT: note_on channel=3 note=69 velocity=110 time=0
EXTRACT: note_on channel=8 note=79 velocity=0 time=0.352941
EXTRACT: note_on channel=9 note=40 velocity=0 time=0
EXTRACT: note_on channel=3 note=69 velocity=0 time=0
EXTRACT: note_on channel=8 note=81 velocity=75 time=0
EXTRACT: note_on channel=3 note=65 velocity=110 time=0
EXTRACT: note_on channel=3 note=65 velocity=0 time=0.1764705
EXTRACT: note_on channel=3 note=67 velocity=110 time=0
EXTRACT: note_on channel=1 note=40 velocity=0 time=0.1764705
EXTRACT: note_on channel=6 note=52 velocity=0 time=0
EXTRACT: note_on channel=2 note=64 velocity=0 time=0
EXTRACT: note_on channel=2 note=67 velocity=0 time=0
EXTRACT: note_on channel=2 note=72 velocity=0 time=0
EXTRACT: note_on channel=4 note=57 velocity=0 time=0
EXTRACT: note_on channel=8 note=81 velocity=0 time=0
EXTRACT: note_on channel=9 note=46 velocity=0 time=0
EXTRACT: note_on channel=3 note=67 velocity=0 time=0
EXTRACT: note_on channel=2 note=67 velocity=92 time=0
EXTRACT: note_on channel=2 note=70 velocity=92 time=0
EXTRACT: note_on channel=2 note=74 velocity=92 time=0
EXTRACT: note_on channel=1 note=43 velocity=108 time=0
EXTRACT: note_on channel=4 note=58 velocity=75 time=0
EXTRACT: note_on channel=8 note=82 velocity=75 time=0
EXTRACT: note_on channel=9 note=36 velocity=127 time=0
EXTRACT: note_on channel=6 note=55 velocity=75 time=0
EXTRACT: note_on channel=3 note=65 velocity=110 time=0
EXTRACT: note_on channel=8 note=82 velocity=0 time=0.352941
EXTRACT: note_on channel=9 note=46 velocity=108 time=0
EXTRACT: note_on channel=2 note=67 velocity=0 time=0.352941
EXTRACT: note_on channel=2 note=70 velocity=0 time=0
EXTRACT: note_on channel=2 note=74 velocity=0 time=0
EXTRACT: note_on channel=9 note=36 velocity=0 time=0
EXTRACT: note_on channel=9 note=46 velocity=0 time=0
EXTRACT: note_on channel=3 note=65 velocity=0 time=0
EXTRACT: note_on channel=2 note=67 velocity=92 time=0
EXTRACT: note_on channel=2 note=70 velocity=92 time=0
EXTRACT: note_on channel=2 note=74 velocity=92 time=0
EXTRACT: note_on channel=8 note=82 velocity=75 time=0
EXTRACT: note_on channel=9 note=40 velocity=127 time=0
EXTRACT: note_on channel=9 note=46 velocity=108 time=0
EXTRACT: note_on channel=3 note=70 velocity=110 time=0
EXTRACT: note_on channel=9 note=46 velocity=0 time=0.1764705
EXTRACT: note_on channel=3 note=70 velocity=0 time=0
EXTRACT: note_on channel=3 note=70 velocity=110 time=0
EXTRACT: note_on channel=8 note=82 velocity=0 time=0.1764705
EXTRACT: note_on channel=9 note=40 velocity=0 time=0
EXTRACT: note_on channel=3 note=70 velocity=0 time=0
EXTRACT: note_on channel=9 note=36 velocity=127 time=0
EXTRACT: note_on channel=9 note=42 velocity=108 time=0
EXTRACT: note_on channel=3 note=70 velocity=110 time=0
EXTRACT: note_on channel=9 note=42 velocity=0 time=0.1764705
EXTRACT: note_on channel=3 note=70 velocity=0 time=0
EXTRACT: note_on channel=3 note=70 velocity=110 time=0
EXTRACT: note_on channel=2 note=67 velocity=0 time=0.1764705
EXTRACT: note_on channel=2 note=70 velocity=0 time=0
EXTRACT: note_on channel=2 note=74 velocity=0 time=0
EXTRACT: note_on channel=3 note=70 velocity=0 time=0
EXTRACT: note_on channel=2 note=67 velocity=92 time=0
EXTRACT: note_on channel=2 note=70 velocity=92 time=0
EXTRACT: note_on channel=2 note=74 velocity=92 time=0
EXTRACT: note_on channel=8 note=82 velocity=75 time=0
EXTRACT: note_on channel=3 note=70 velocity=110 time=0
EXTRACT: note_on channel=9 note=42 velocity=108 time=0.1764705
EXTRACT: note_on channel=9 note=36 velocity=0 time=0.1764705
EXTRACT: note_on channel=8 note=82 velocity=0 time=0
EXTRACT: note_on channel=9 note=42 velocity=0 time=0
EXTRACT: note_on channel=3 note=70 velocity=0 time=0
EXTRACT: note_on channel=9 note=36 velocity=127 time=0
EXTRACT: note_on channel=9 note=42 velocity=108 time=0
EXTRACT: note_on channel=3 note=69 velocity=110 time=0
EXTRACT: note_on channel=1 note=43 velocity=0 time=0.1764705
EXTRACT: note_on channel=3 note=69 velocity=0 time=0
EXTRACT: note_on channel=1 note=43 velocity=108 time=0
EXTRACT: note_on channel=3 note=67 velocity=110 time=0
EXTRACT: note_on channel=2 note=67 velocity=0 time=0.1764705
EXTRACT: note_on channel=2 note=70 velocity=0 time=0
EXTRACT: note_on channel=2 note=74 velocity=0 time=0
EXTRACT: note_on channel=1 note=43 velocity=0 time=0
EXTRACT: note_on channel=9 note=36 velocity=0 time=0
EXTRACT: note_on channel=9 note=42 velocity=0 time=0
EXTRACT: note_on channel=3 note=67 velocity=0 time=0
EXTRACT: note_on channel=2 note=67 velocity=92 time=0
EXTRACT: note_on channel=2 note=70 velocity=92 time=0
EXTRACT: note_on channel=2 note=74 velocity=92 time=0
EXTRACT: note_on channel=1 note=43 velocity=108 time=0
EXTRACT: note_on channel=8 note=82 velocity=75 time=0
EXTRACT: note_on channel=9 note=40 velocity=127 time=0
EXTRACT: note_on channel=9 note=46 velocity=108 time=0
EXTRACT: note_on channel=3 note=65 velocity=110 time=0
EXTRACT: note_on channel=1 note=43 velocity=0 time=0.1764705
EXTRACT: note_on channel=1 note=43 velocity=108 time=0
EXTRACT: note_on channel=1 note=43 velocity=0 time=0.1764705
EXTRACT: note_on channel=8 note=82 velocity=0 time=0
EXTRACT: note_on channel=9 note=40 velocity=0 time=0
EXTRACT: note_on channel=1 note=45 velocity=108 time=0
EXTRACT: note_on channel=8 note=81 velocity=75 time=0
EXTRACT: note_on channel=4 note=58 velocity=0 time=0.352941
EXTRACT: note_on channel=5 note=55 velocity=0 time=0
EXTRACT: note_on channel=6 note=55 velocity=0 time=0
EXTRACT: note_on channel=2 note=67 velocity=0 time=0
EXTRACT: note_on channel=2 note=70 velocity=0 time=0
EXTRACT: note_on channel=2 note=74 velocity=0 time=0
EXTRACT: note_on channel=1 note=45 velocity=0 time=0
EXTRACT: note_on channel=8 note=81 velocity=0 time=0
EXTRACT: note_on channel=9 note=46 velocity=0 time=0
EXTRACT: note_on channel=3 note=65 velocity=0 time=0
EXTRACT: note_on channel=2 note=65 velocity=92 time=0
EXTRACT: note_on channel=2 note=70 velocity=92 time=0
EXTRACT: note_on channel=2 note=74 velocity=92 time=0
EXTRACT: note_on channel=1 note=46 velocity=108 time=0
EXTRACT: note_on channel=4 note=53 velocity=75 time=0
EXTRACT: note_on channel=8 note=77 velocity=75 time=0
EXTRACT: note_on channel=9 note=36 velocity=127 time=0
EXTRACT: note_on channel=5 note=53 velocity=75 time=0
EXTRACT: note_on channel=6 note=58 velocity=75 time=0
EXTRACT: note_on channel=3 note=70 velocity=110 time=0
EXTRACT: note_on channel=3 note=70 velocity=0 time=0.1764705
EXTRACT: note_on channel=3 note=70 velocity=110 time=0
EXTRACT: note_on channel=8 note=77 velocity=0 time=0.1764705
EXTRACT: note_on channel=3 note=70 velocity=0 time=0
EXTRACT: note_on channel=9 note=46 velocity=108 time=0
EXTRACT: note_on channel=3 note=70 velocity=110 time=0
EXTRACT: note_on channel=3 note=70 velocity=0 time=0.1764705
EXTRACT: note_on channel=3 note=70 velocity=110 time=0
EXTRACT: note_on channel=2 note=65 velocity=0 time=0.1764705
EXTRACT: note_on channel=2 note=70 velocity=0 time=0
EXTRACT: note_on channel=2 note=74 velocity=0 time=0
EXTRACT: note_on channel=9 note=36 velocity=0 time=0
EXTRACT: note_on channel=9 note=46 velocity=0 time=0
EXTRACT: note_on channel=3 note=70 velocity=0 time=0
EXTRACT: note_on channel=2 note=65 velocity=92 time=0
EXTRACT: note_on channel=2 note=70 velocity=92 time=0
EXTRACT: note_on channel=2 note=74 velocity=92 time=0
EXTRACT: note_on channel=8 note=77 velocity=75 time=0
EXTRACT: note_on channel=9 note=40 velocity=127 time=0
EXTRACT: note_on channel=9 note=46 velocity=108 time=0
EXTRACT: note_on channel=3 note=70 velocity=110 time=0
EXTRACT: note_on channel=9 note=46 velocity=0 time=0.1764705
EXTRACT: note_on channel=8 note=77 velocity=0 time=0.1764705
EXTRACT: note_on channel=9 note=40 velocity=0 time=0
EXTRACT: note_on channel=3 note=70 velocity=0 time=0
EXTRACT: note_on channel=9 note=36 velocity=127 time=0
EXTRACT: note_on channel=9 note=42 velocity=108 time=0
EXTRACT: note_on channel=3 note=70 velocity=110 time=0
EXTRACT: note_on channel=9 note=42 velocity=0 time=0.1764705
EXTRACT: note_on channel=3 note=70 velocity=0 time=0
EXTRACT: note_on channel=3 note=70 velocity=110 time=0
EXTRACT: note_on channel=2 note=65 velocity=0 time=0.1764705
EXTRACT: note_on channel=2 note=70 velocity=0 time=0
EXTRACT: note_on channel=2 note=74 velocity=0 time=0
EXTRACT: note_on channel=2 note=65 velocity=92 time=0
EXTRACT: note_on channel=2 note=70 velocity=92 time=0
EXTRACT: note_on channel=2 note=74 velocity=92 time=0
EXTRACT: note_on channel=8 note=77 velocity=75 time=0
EXTRACT: note_on channel=3 note=70 velocity=0 time=0.1764705
EXTRACT: note_on channel=9 note=42 velocity=108 time=0
EXTRACT: note_on channel=3 note=70 velocity=110 time=0
EXTRACT: note_on channel=9 note=36 velocity=0 time=0.1764705
EXTRACT: note_on channel=8 note=77 velocity=0 time=0
EXTRACT: note_on channel=9 note=42 velocity=0 time=0
EXTRACT: note_on channel=9 note=36 velocity=127 time=0
EXTRACT: note_on channel=9 note=42 velocity=108 time=0
EXTRACT: note_on channel=3 note=70 velocity=0 time=0.1764705
EXTRACT: note_on channel=3 note=70 velocity=110 time=0
EXTRACT: note_on channel=4 note=53 velocity=0 time=0.1764705
EXTRACT: note_on channel=2 note=65 velocity=0 time=0
EXTRACT: note_on channel=2 note=70 velocity=0 time=0
EXTRACT: note_on channel=2 note=74 velocity=0 time=0
EXTRACT: note_on channel=9 note=36 velocity=0 time=0
EXTRACT: note_on channel=9 note=42 velocity=0 time=0
EXTRACT: note_on channel=2 note=65 velocity=92 time=0
EXTRACT: note_on channel=2 note=70 velocity=92 time=0
EXTRACT: note_on channel=2 note=74 velocity=92 time=0
EXTRACT: note_on channel=4 note=53 velocity=75 time=0
EXTRACT: note_on channel=8 note=77 velocity=75 time=0
EXTRACT: note_on channel=9 note=40 velocity=127 time=0
EXTRACT: note_on channel=9 note=46 velocity=108 time=0
EXTRACT: note_on channel=3 note=70 velocity=0 time=0.1764705
EXTRACT: note_on channel=3 note=72 velocity=110 time=0
EXTRACT: note_on channel=4 note=53 velocity=0 time=0.1764705
EXTRACT: note_on channel=8 note=77 velocity=0 time=0
EXTRACT: note_on channel=9 note=40 velocity=0 time=0
EXTRACT: note_on channel=4 note=55 velocity=75 time=0
EXTRACT: note_on channel=8 note=79 velocity=75 time=0
EXTRACT: note_on channel=3 note=72 velocity=0 time=0.1764705
EXTRACT: note_on channel=3 note=69 velocity=110 time=0
EXTRACT: note_on channel=1 note=46 velocity=0 time=0.1764705
EXTRACT: note_on channel=5 note=53 velocity=0 time=0
EXTRACT: note_on channel=6 note=58 velocity=0 time=0
EXTRACT: note_on channel=2 note=65 velocity=0 time=0
EXTRACT: note_on channel=2 note=70 velocity=0 time=0
EXTRACT: note_on channel=2 note=74 velocity=0 time=0
EXTRACT: note_on channel=4 note=55 velocity=0 time=0
EXTRACT: note_on channel=8 note=79 velocity=0 time=0
EXTRACT: note_on channel=9 note=46 velocity=0 time=0
EXTRACT: note_on channel=2 note=62 velocity=92 time=0
EXTRACT: note_on channel=2 note=65 velocity=92 time=0
EXTRACT: note_on channel=2 note=69 velocity=92 time=0
EXTRACT: note_on channel=1 note=50 velocity=108 time=0
EXTRACT: note_on channel=4 note=57 velocity=75 time=0
EXTRACT: note_on channel=8 note=81 velocity=75 time=0
EXTRACT: note_on channel=9 note=36 velocity=127 time=0
EXTRACT: note_on channel=5 note=57 velocity=75 time=0
EXTRACT: note_on channel=6 note=62 velocity=75 time=0
EXTRACT: note_on channel=8 note=81 velocity=0 time=0.352941
EXTRACT: note_on channel=9 note=46 velocity=108 time=0
EXTRACT: note_on channel=9 note=36 velocity=0 time=0.352941
EXTRACT: note_on channel=9 note=46 velocity=0 time=0
EXTRACT: note_on channel=8 note=81 velocity=75 time=0
EXTRACT: note_on channel=9 note=40 velocity=127 time=0
EXTRACT: note_on channel=9 note=46 velocity=108 time=0
EXTRACT: note_on channel=9 note=46 velocity=0 time=0.1764705
EXTRACT: note_on channel=8 note=81 velocity=0 time=0.1764705
EXTRACT: note_on channel=9 note=40 velocity=0 time=0
EXTRACT: note_on channel=3 note=69 velocity=0 time=0
EXTRACT: note_on channel=9 note=36 velocity=127 time=0
EXTRACT: note_on channel=9 note=42 velocity=108 time=0
EXTRACT: note_on channel=3 note=69 velocity=110 time=0
EXTRACT: note_on channel=1 note=50 velocity=0 time=0.1764705
EXTRACT: note_on channel=9 note=42 velocity=0 time=0
EXTRACT: note_on channel=3 note=69 velocity=0 time=0
EXTRACT: note_on channel=1 note=36 velocity=108 time=0
EXTRACT: note_on channel=3 note=67 velocity=110 time=0
EXTRACT: note_on channel=2 note=62 velocity=0 time=0.1764705
EXTRACT: note_on channel=2 note=65 velocity=0 time=0
EXTRACT: note_on channel=2 note=69 velocity=0 time=0
EXTRACT: note_on channel=1 note=36 velocity=0 time=0
EXTRACT: note_on channel=4 note=57 velocity=0 time=0
EXTRACT: note_on channel=5 note=57 velocity=0 time=0
EXTRACT: note_on channel=6 note=62 velocity=0 time=0
EXTRACT: note_on channel=2 note=60 velocity=92 time=0
EXTRACT: note_on channel=2 note=64 velocity=92 time=0
EXTRACT: note_on channel=2 note=67 velocity=92 time=0
EXTRACT: note_on channel=1 note=48 velocity=108 time=0
EXTRACT: note_on channel=4 note=55 velocity=75 time=0
EXTRACT: note_on channel=8 note=79 velocity=75 time=0
EXTRACT: note_on channel=5 note=55 velocity=75 time=0
EXTRACT: note_on channel=6 note=60 velocity=75 time=0
EXTRACT: note_on channel=9 note=42 velocity=108 time=0.1764705
EXTRACT: note_on channel=9 note=36 velocity=0 time=0.1764705
EXTRACT: note_on channel=8 note=79 velocity=0 time=0
EXTRACT: note_on channel=9 note=42 velocity=0 time=0
EXTRACT: note_on channel=9 note=36 velocity=127 time=0
EXTRACT: note_on channel=9 note=42 velocity=108 time=0
EXTRACT: note_on channel=9 note=36 velocity=0 time=0.352941
EXTRACT: note_on channel=9 note=42 velocity=0 time=0
EXTRACT: note_on channel=8 note=79 velocity=75 time=0
EXTRACT: note_on channel=9 note=40 velocity=127 time=0
EXTRACT: note_on channel=9 note=46 velocity=108 time=0
EXTRACT: note_on channel=8 note=79 velocity=0 time=0.352941
EXTRACT: note_on channel=9 note=40 velocity=0 time=0
EXTRACT: note_on channel=3 note=67 velocity=0 time=0.1764705
EXTRACT: note_on channel=1 note=48 velocity=0 time=0
EXTRACT: note_on channel=1 note=34 velocity=108 time=0
EXTRACT: note_on channel=3 note=67 velocity=110 time=0
EXTRACT: note_on channel=2 note=60 velocity=0 time=0.1764705
EXTRACT: note_on channel=2 note=64 velocity=0 time=0
EXTRACT: note_on channel=2 note=67 velocity=0 time=0
EXTRACT: note_on channel=1 note=34 velocity=0 time=0
EXTRACT: note_on channel=4 note=55 velocity=0 time=0
EXTRACT: note_on channel=9 note=46 velocity=0 time=0
EXTRACT: note_on channel=5 note=55 velocity=0 time=0
EXTRACT: note_on channel=6 note=60 velocity=0 time=0
EXTRACT: note_on channel=3 note=67 velocity=0 time=0
EXTRACT: note_on channel=2 note=58 velocity=92 time=0
EXTRACT: note_on channel=2 note=62 velocity=92 time=0
EXTRACT: note_on channel=2 note=65 velocity=92 time=0
EXTRACT: note_on channel=1 note=46 velocity=108 time=0
EXTRACT: note_on channel=4 note=53 velocity=75 time=0
EXTRACT: note_on channel=8 note=77 velocity=75 time=0
EXTRACT: note_on channel=9 note=36 velocity=127 time=0
EXTRACT: note_on channel=5 note=53 velocity=45 time=0
EXTRACT: note_on channel=6 note=58 velocity=45 time=0
EXTRACT: note_on channel=3 note=65 velocity=110 time=0
EXTRACT: note_on channel=8 note=77 velocity=0 time=0.352941
EXTRACT: note_on channel=9 note=46 velocity=108 time=0
EXTRACT: note_on channel=9 note=36 velocity=0 time=0.352941
EXTRACT: note_on channel=9 note=46 velocity=0 time=0
EXTRACT: note_on channel=9 note=40 velocity=127 time=0
EXTRACT: note_on channel=9 note=46 velocity=108 time=0
EXTRACT: note_on channel=9 note=46 velocity=0 time=0.1764705
EXTRACT: note_on channel=9 note=40 velocity=0 time=0.1764705
EXTRACT: note_on channel=3 note=65 velocity=0 time=0
EXTRACT: note_on channel=9 note=36 velocity=127 time=0
EXTRACT: note_on channel=9 note=42 velocity=108 time=0
EXTRACT: note_on channel=3 note=64 velocity=110 time=0
EXTRACT: note_on channel=9 note=42 velocity=0 time=0.1764705
EXTRACT: note_on channel=3 note=64 velocity=0 time=0.1764705
EXTRACT: note_on channel=3 note=65 velocity=110 time=0
EXTRACT: note_on channel=9 note=36 velocity=0 time=0.1764705
EXTRACT: note_on channel=9 note=36 velocity=127 time=0
EXTRACT: note_on channel=9 note=42 velocity=108 time=0
EXTRACT: note_on channel=9 note=36 velocity=0 time=0.1764705
EXTRACT: note_on channel=9 note=42 velocity=0 time=0
EXTRACT: note_on channel=3 note=65 velocity=0 time=0
EXTRACT: note_on channel=9 note=36 velocity=127 time=0
EXTRACT: note_on channel=9 note=42 velocity=108 time=0
EXTRACT: note_on channel=3 note=64 velocity=110 time=0
EXTRACT: note_on channel=3 note=64 velocity=0 time=0.1764705
EXTRACT: note_on channel=3 note=62 velocity=110 time=0
EXTRACT: note_on channel=2 note=58 velocity=0 time=0.1764705
EXTRACT: note_on channel=2 note=62 velocity=0 time=0
EXTRACT: note_on channel=2 note=65 velocity=0 time=0
EXTRACT: note_on channel=9 note=36 velocity=0 time=0
EXTRACT: note_on channel=9 note=42 velocity=0 time=0
EXTRACT: note_on channel=9 note=40 velocity=127 time=0
EXTRACT: note_on channel=9 note=46 velocity=108 time=0
EXTRACT: note_on channel=3 note=62 velocity=0 time=0.1764705
EXTRACT: note_on channel=3 note=64 velocity=110 time=0
EXTRACT: note_on channel=9 note=40 velocity=0 time=0.1764705
EXTRACT: note_on channel=3 note=64 velocity=0 time=0.1764705
EXTRACT: note_on channel=3 note=67 velocity=110 time=0
EXTRACT: note_on channel=1 note=46 velocity=0 time=0.1764705
EXTRACT: note_on channel=4 note=53 velocity=0 time=0
EXTRACT: note_on channel=5 note=53 velocity=0 time=0
EXTRACT: note_on channel=6 note=58 velocity=0 time=0
EXTRACT: note_on channel=9 note=46 velocity=0 time=0
EXTRACT: note_on channel=3 note=67 velocity=0 time=0
EXTRACT: note_on channel=2 note=65 velocity=92 time=0
EXTRACT: note_on channel=2 note=69 velocity=92 time=0
EXTRACT: note_on channel=2 note=74 velocity=92 time=0
EXTRACT: note_on channel=4 note=65 velocity=75 time=0
EXTRACT: note_on channel=3 note=65 velocity=110 time=0
EXTRACT: note_on channel=2 note=65 velocity=0 time=0.705882
EXTRACT: note_on channel=2 note=69 velocity=0 time=0
EXTRACT: note_on channel=2 note=74 velocity=0 time=0
EXTRACT: note_on channel=2 note=65 velocity=92 time=0
EXTRACT: note_on channel=2 note=69 velocity=92 time=0
EXTRACT: note_on channel=2 note=74 velocity=92 time=0
EXTRACT: note_on channel=3 note=65 velocity=0 time=0.352941
EXTRACT: note_on channel=2 note=65 velocity=0 time=0.352941
EXTRACT: note_on channel=2 note=69 velocity=0 time=0
EXTRACT: note_on channel=2 note=74 velocity=0 time=0
EXTRACT: note_on channel=2 note=65 velocity=92 time=0
EXTRACT: note_on channel=2 note=69 velocity=92 time=0
EXTRACT: note_on channel=2 note=74 velocity=92 time=0
EXTRACT: note_on channel=4 note=65 velocity=0 time=0.705882
EXTRACT: note_on channel=2 note=65 velocity=0 time=0
EXTRACT: note_on channel=2 note=69 velocity=0 time=0
EXTRACT: note_on channel=2 note=74 velocity=0 time=0
EXTRACT: note_on channel=2 note=65 velocity=92 time=0
EXTRACT: note_on channel=2 note=69 velocity=92 time=0
EXTRACT: note_on channel=2 note=74 velocity=92 time=0
EXTRACT: note_on channel=4 note=64 velocity=75 time=0
EXTRACT: note_on channel=2 note=65 velocity=0 time=0.705882
EXTRACT: note_on channel=2 note=69 velocity=0 time=0
EXTRACT: note_on channel=2 note=74 velocity=0 time=0
EXTRACT: note_on channel=4 note=64 velocity=0 time=0
EXTRACT: note_on channel=2 note=65 velocity=92 time=0
EXTRACT: note_on channel=2 note=70 velocity=92 time=0
EXTRACT: note_on channel=2 note=74 velocity=92 time=0
EXTRACT: note_on channel=4 note=62 velocity=75 time=0
EXTRACT: note_on channel=2 note=65 velocity=0 time=0.705882
EXTRACT: note_on channel=2 note=70 velocity=0 time=0
EXTRACT: note_on channel=2 note=74 velocity=0 time=0
EXTRACT: note_on channel=2 note=65 velocity=92 time=0
EXTRACT: note_on channel=2 note=70 velocity=92 time=0
EXTRACT: note_on channel=2 note=74 velocity=92 time=0
EXTRACT: note_on channel=2 note=65 velocity=0 time=0.705882
EXTRACT: note_on channel=2 note=70 velocity=0 time=0
EXTRACT: note_on channel=2 note=74 velocity=0 time=0
EXTRACT: note_on channel=2 note=65 velocity=92 time=0
EXTRACT: note_on channel=2 note=70 velocity=92 time=0
EXTRACT: note_on channel=2 note=74 velocity=92 time=0
EXTRACT: note_on channel=3 note=70 velocity=110 time=0
EXTRACT: note_on channel=3 note=70 velocity=0 time=0.352941
EXTRACT: note_on channel=3 note=70 velocity=110 time=0
EXTRACT: note_on channel=3 note=70 velocity=0 time=0.1764705
EXTRACT: note_on channel=3 note=70 velocity=110 time=0
EXTRACT: note_on channel=2 note=65 velocity=0 time=0.1764705
EXTRACT: note_on channel=2 note=70 velocity=0 time=0
EXTRACT: note_on channel=2 note=74 velocity=0 time=0
EXTRACT: note_on channel=2 note=65 velocity=92 time=0
EXTRACT: note_on channel=2 note=70 velocity=92 time=0
EXTRACT: note_on channel=2 note=74 velocity=92 time=0
EXTRACT: note_on channel=3 note=70 velocity=0 time=0.1764705
EXTRACT: note_on channel=3 note=72 velocity=110 time=0
EXTRACT: note_on channel=3 note=72 velocity=0 time=0.1764705
EXTRACT: note_on channel=3 note=69 velocity=110 time=0
EXTRACT: note_on channel=4 note=62 velocity=0 time=0.352941
EXTRACT: note_on channel=2 note=65 velocity=0 time=0
EXTRACT: note_on channel=2 note=70 velocity=0 time=0
EXTRACT: note_on channel=2 note=74 velocity=0 time=0
EXTRACT: note_on channel=3 note=69 velocity=0 time=0
EXTRACT: control_change channel=2 control=64 value=0 time=0
EXTRACT: note_on channel=2 note=65 velocity=92 time=0
EXTRACT: note_on channel=2 note=69 velocity=92 time=0
EXTRACT: note_on channel=2 note=72 velocity=92 time=0
EXTRACT: note_on channel=4 note=60 velocity=75 time=0
EXTRACT: note_on channel=2 note=65 velocity=0 time=1.058823
EXTRACT: note_on channel=2 note=69 velocity=0 time=0
EXTRACT: note_on channel=2 note=72 velocity=0 time=0
EXTRACT: note_on channel=2 note=70 velocity=92 time=0
EXTRACT: note_on channel=3 note=69 velocity=110 time=0
EXTRACT: note_on channel=2 note=70 velocity=0 time=0.1875
EXTRACT: note_on channel=3 note=69 velocity=0 time=0
EXTRACT: note_on channel=2 note=69 velocity=92 time=0
EXTRACT: note_on channel=3 note=67 velocity=110 time=0
EXTRACT: note_on channel=2 note=69 velocity=0 time=0.1875
EXTRACT: note_on channel=4 note=60 velocity=0 time=0
EXTRACT: note_on channel=2 note=64 velocity=92 time=0
EXTRACT: note_on channel=2 note=67 velocity=92 time=0
EXTRACT: note_on channel=2 note=72 velocity=92 time=0
EXTRACT: note_on channel=4 note=55 velocity=75 time=0
EXTRACT: note_on channel=3 note=67 velocity=0 time=1.125
EXTRACT: note_on channel=2 note=64 velocity=0 time=0.1875
EXTRACT: note_on channel=2 note=67 velocity=0 time=0
EXTRACT: note_on channel=2 note=72 velocity=0 time=0
EXTRACT: note_on channel=2 note=69 velocity=92 time=0
EXTRACT: note_on channel=3 note=67 velocity=110 time=0
EXTRACT: note_on channel=2 note=69 velocity=0 time=0.1875
EXTRACT: note_on channel=4 note=55 velocity=0 time=0
EXTRACT: note_on channel=3 note=67 velocity=0 time=0
EXTRACT: note_on channel=2 note=67 velocity=92 time=0
EXTRACT: note_on channel=3 note=65 velocity=110 time=0
EXTRACT: note_on channel=2 note=67 velocity=0 time=0.1875
EXTRACT: note_on channel=2 note=62 velocity=92 time=0
EXTRACT: note_on channel=2 note=65 velocity=92 time=0
EXTRACT: note_on channel=2 note=70 velocity=92 time=0
EXTRACT: note_on channel=4 note=53 velocity=75 time=0
EXTRACT: note_on channel=3 note=65 velocity=0 time=0.5625
EXTRACT: note_on channel=3 note=64 velocity=110 time=0.75
EXTRACT: note_on channel=3 note=64 velocity=0 time=0.1875
EXTRACT: note_on channel=3 note=65 velocity=110 time=0
EXTRACT: note_on channel=3 note=65 velocity=0 time=0.375
EXTRACT: note_on channel=3 note=64 velocity=110 time=0
EXTRACT: note_on channel=3 note=64 velocity=0 time=0.1875
EXTRACT: note_on channel=3 note=62 velocity=110 time=0
EXTRACT: note_on channel=2 note=65 velocity=0 time=0.1875
EXTRACT: note_on channel=2 note=70 velocity=0 time=0
EXTRACT: note_on channel=2 note=62 velocity=0 time=0.1875
EXTRACT: note_on channel=3 note=62 velocity=0 time=0
EXTRACT: note_on channel=2 note=65 velocity=92 time=0
EXTRACT: note_on channel=3 note=60 velocity=110 time=0
EXTRACT: note_on channel=2 note=65 velocity=0 time=0.1875
EXTRACT: note_on channel=3 note=60 velocity=0 time=0
EXTRACT: note_on channel=2 note=67 velocity=92 time=0
EXTRACT: note_on channel=3 note=57 velocity=110 time=0
EXTRACT: note_on channel=2 note=67 velocity=0 time=0.1875
EXTRACT: note_on channel=4 note=53 velocity=0 time=0
EXTRACT: note_on channel=2 note=62 velocity=92 time=0
EXTRACT: note_on channel=2 note=65 velocity=92 time=0
EXTRACT: note_on channel=2 note=69 velocity=92 time=0
EXTRACT: note_on channel=4 note=57 velocity=75 time=0
EXTRACT: note_on channel=3 note=57 velocity=0 time=1.125
EXTRACT: note_on channel=2 note=62 velocity=0 time=0
EXTRACT: note_on channel=2 note=65 velocity=0 time=0
EXTRACT: note_on channel=2 note=69 velocity=0 time=0
EXTRACT: note_on channel=2 note=70 velocity=92 time=0
EXTRACT: note_on channel=3 note=58 velocity=110 time=0
EXTRACT: note_on channel=2 note=70 velocity=0 time=0.1875
EXTRACT: note_on channel=3 note=58 velocity=0 time=0
EXTRACT: note_on channel=2 note=69 velocity=92 time=0
EXTRACT: note_on channel=3 note=57 velocity=110 time=0
EXTRACT: note_on channel=2 note=69 velocity=0 time=0.1875
EXTRACT: note_on channel=4 note=57 velocity=0 time=0
EXTRACT: note_on channel=3 note=57 velocity=0 time=0
EXTRACT: note_on channel=2 note=60 velocity=92 time=0
EXTRACT: note_on channel=2 note=64 velocity=92 time=0
EXTRACT: note_on channel=2 note=67 velocity=92 time=0
EXTRACT: note_on channel=4 note=55 velocity=75 time=0
EXTRACT: note_on channel=3 note=55 velocity=110 time=0
EXTRACT: note_on channel=2 note=60 velocity=0 time=1.125
EXTRACT: note_on channel=2 note=64 velocity=0 time=0
EXTRACT: note_on channel=2 note=67 velocity=0 time=0
EXTRACT: note_on channel=3 note=55 velocity=0 time=0
EXTRACT: note_on channel=2 note=69 velocity=92 time=0
EXTRACT: note_on channel=3 note=57 velocity=110 time=0
EXTRACT: note_on channel=2 note=69 velocity=0 time=0.1875
EXTRACT: note_on channel=3 note=57 velocity=0 time=0
EXTRACT: note_on channel=2 note=67 velocity=92 time=0
EXTRACT: note_on channel=3 note=55 velocity=110 time=0
EXTRACT: note_on channel=2 note=67 velocity=0 time=0.1875
EXTRACT: note_on channel=4 note=55 velocity=0 time=0
EXTRACT: note_on channel=3 note=55 velocity=0 time=0
EXTRACT: note_on channel=2 note=58 velocity=92 time=0
EXTRACT: note_on channel=2 note=62 velocity=92 time=0
EXTRACT: note_on channel=2 note=65 velocity=92 time=0
EXTRACT: note_on channel=4 note=53 velocity=75 time=0
EXTRACT: note_on channel=3 note=53 velocity=110 time=0
EXTRACT: note_on channel=3 note=53 velocity=0 time=1.3125
EXTRACT: note_on channel=3 note=64 velocity=110 time=0
EXTRACT: note_on channel=3 note=64 velocity=0 time=0.375
EXTRACT: note_on channel=3 note=65 velocity=110 time=0
EXTRACT: note_on channel=2 note=58 velocity=0 time=0.375
EXTRACT: note_on channel=2 note=62 velocity=0 time=0.1875
EXTRACT: note_on channel=2 note=65 velocity=0 time=0
EXTRACT: note_on channel=3 note=65 velocity=0 time=0
EXTRACT: note_on channel=2 note=53 velocity=92 time=0
EXTRACT: note_on channel=3 note=64 velocity=110 time=0
EXTRACT: note_on channel=2 note=53 velocity=0 time=0.375
EXTRACT: note_on channel=3 note=64 velocity=0 time=0
EXTRACT: note_on channel=2 note=60 velocity=92 time=0
EXTRACT: note_on channel=3 note=62 velocity=110 time=0
EXTRACT: note_on channel=2 note=60 velocity=0 time=0.375
EXTRACT: note_on channel=3 note=62 velocity=0 time=0
EXTRACT: note_on channel=2 note=60 velocity=92 time=0
EXTRACT: note_on channel=3 note=60 velocity=110 time=0
EXTRACT: note_on channel=2 note=60 velocity=0 time=0.75
EXTRACT: note_on channel=3 note=60 velocity=0 time=0
EXTRACT: note_on channel=2 note=53 velocity=92 time=0
EXTRACT: note_on channel=2 note=57 velocity=92 time=0
EXTRACT: note_on channel=2 note=60 velocity=92 time=0
EXTRACT: note_on channel=1 note=41 velocity=108 time=0
EXTRACT: note_on channel=3 note=57 velocity=110 time=0
EXTRACT: note_on channel=2 note=53 velocity=0 time=2.25
EXTRACT: note_on channel=2 note=57 velocity=0 time=0
EXTRACT: note_on channel=2 note=60 velocity=0 time=0
EXTRACT: note_on channel=1 note=41 velocity=0 time=0
EXTRACT: note_on channel=3 note=57 velocity=0 time=0
EXTRACT: note_on channel=4 note=53 velocity=0 time=0
