EXTRACT: control_change channel=0 control=121 value=0 time=0EXTRACT: program_change channel=0 program=0 time=0EXTRACT: control_change channel=0 control=7 value=100 time=0EXTRACT: control_change channel=0 control=10 value=64 time=0EXTRACT: control_change channel=0 control=91 value=0 time=0EXTRACT: control_change channel=0 control=93 value=0 time=0EXTRACT: note_on channel=0 note=54 velocity=80 time=0EXTRACT: note_on channel=0 note=57 velocity=80 time=0EXTRACT: note_on channel=0 note=61 velocity=80 time=0EXTRACT: note_on channel=0 note=71 velocity=80 time=0.6857139999999999EXTRACT: note_on channel=0 note=71 velocity=0 time=0.1621427895833333EXTRACT: note_on channel=0 note=73 velocity=80 time=0.009285710416666666EXTRACT: note_on channel=0 note=73 velocity=0 time=0.3249998645833333EXTRACT: note_on channel=0 note=71 velocity=80 time=0.017857135416666666EXTRACT: note_on channel=0 note=71 velocity=0 time=0.8135710895833332EXTRACT: note_on channel=0 note=69 velocity=80 time=0.043571410416666664EXTRACT: note_on channel=0 note=69 velocity=0 time=0.1621427895833333EXTRACT: note_on channel=0 note=66 velocity=80 time=0.009285710416666666EXTRACT: note_on channel=0 note=54 velocity=0 time=0.3764284145833333EXTRACT: note_on channel=0 note=57 velocity=0 time=0EXTRACT: note_on channel=0 note=61 velocity=0 time=0EXTRACT: note_on channel=0 note=66 velocity=0 time=0.11142852499999999EXTRACT: note_on channel=0 note=52 velocity=80 time=0.026428560416666663EXTRACT: note_on channel=0 note=56 velocity=80 time=0EXTRACT: note_on channel=0 note=59 velocity=80 time=0EXTRACT: note_on channel=0 note=73 velocity=80 time=0.34285699999999997EXTRACT: note_on channel=0 note=73 velocity=0 time=0.3249998645833333EXTRACT: note_on channel=0 note=73 velocity=80 time=0.017857135416666666EXTRACT: note_on channel=0 note=73 velocity=0 time=0.3249998645833333EXTRACT: note_on channel=0 note=73 velocity=80 time=0.017857135416666666EXTRACT: note_on channel=0 note=73 velocity=0 time=0.1621427895833333EXTRACT: note_on channel=0 note=71 velocity=80 time=0.009285710416666666EXTRACT: note_on channel=0 note=71 velocity=0 time=0.4878569395833333EXTRACT: note_on channel=0 note=69 velocity=80 time=0.026428560416666663EXTRACT: note_on channel=0 note=69 velocity=0 time=0.1621427895833333EXTRACT: note_on channel=0 note=69 velocity=80 time=0.009285710416666666EXTRACT: note_on channel=0 note=69 velocity=0 time=0.3249998645833333EXTRACT: note_on channel=0 note=66 velocity=80 time=0.017857135416666666EXTRACT: note_on channel=0 note=52 velocity=0 time=0.3764284145833333EXTRACT: note_on channel=0 note=56 velocity=0 time=0EXTRACT: note_on channel=0 note=59 velocity=0 time=0EXTRACT: note_on channel=0 note=66 velocity=0 time=0.11142852499999999EXTRACT: note_on channel=0 note=49 velocity=80 time=0.026428560416666663EXTRACT: note_on channel=0 note=52 velocity=80 time=0EXTRACT: note_on channel=0 note=56 velocity=80 time=0EXTRACT: note_on channel=0 note=71 velocity=80 time=0.6857139999999999EXTRACT: note_on channel=0 note=71 velocity=0 time=0.3249998645833333EXTRACT: note_on channel=0 note=73 velocity=80 time=0.017857135416666666EXTRACT: note_on channel=0 note=73 velocity=0 time=0.1621427895833333EXTRACT: note_on channel=0 note=71 velocity=80 time=0.009285710416666666EXTRACT: note_on channel=0 note=71 velocity=0 time=0.3249998645833333EXTRACT: note_on channel=0 note=71 velocity=80 time=0.017857135416666666EXTRACT: note_on channel=0 note=71 velocity=0 time=0.1621427895833333EXTRACT: note_on channel=0 note=71 velocity=80 time=0.009285710416666666EXTRACT: note_on channel=0 note=71 velocity=0 time=0.4878569395833333EXTRACT: note_on channel=0 note=69 velocity=80 time=0.026428560416666663EXTRACT: note_on channel=0 note=69 velocity=0 time=0.1621427895833333EXTRACT: note_on channel=0 note=71 velocity=80 time=0.009285710416666666EXTRACT: note_on channel=0 note=71 velocity=0 time=0.1621427895833333EXTRACT: note_on channel=0 note=73 velocity=80 time=0.009285710416666666EXTRACT: note_on channel=0 note=49 velocity=0 time=0.033571414583333334EXTRACT: note_on channel=0 note=52 velocity=0 time=0EXTRACT: note_on channel=0 note=56 velocity=0 time=0EXTRACT: note_on channel=0 note=73 velocity=0 time=0.128571375EXTRACT: note_on channel=0 note=71 velocity=80 time=0.009285710416666666EXTRACT: note_on channel=0 note=50 velocity=80 time=0EXTRACT: note_on channel=0 note=54 velocity=80 time=0EXTRACT: note_on channel=0 note=57 velocity=80 time=0EXTRACT: note_on channel=0 note=71 velocity=0 time=0.3249998645833333EXTRACT: note_on channel=0 note=71 velocity=80 time=0.017857135416666666EXTRACT: note_on channel=0 note=71 velocity=0 time=0.1621427895833333EXTRACT: note_on channel=0 note=71 velocity=80 time=0.009285710416666666EXTRACT: note_on channel=0 note=71 velocity=0 time=0.6507140145833333EXTRACT: note_on channel=0 note=71 velocity=80 time=0.034999985416666664EXTRACT: note_on channel=0 note=71 velocity=0 time=0.1621427895833333EXTRACT: note_on channel=0 note=73 velocity=80 time=0.009285710416666666EXTRACT: note_on channel=0 note=73 velocity=0 time=0.3249998645833333EXTRACT: note_on channel=0 note=74 velocity=80 time=0.017857135416666666EXTRACT: note_on channel=0 note=74 velocity=0 time=0.1621427895833333EXTRACT: note_on channel=0 note=73 velocity=80 time=0.009285710416666666EXTRACT: note_on channel=0 note=73 velocity=0 time=0.3249998645833333EXTRACT: note_on channel=0 note=69 velocity=80 time=0.017857135416666666EXTRACT: note_on channel=0 note=69 velocity=0 time=0.1621427895833333EXTRACT: note_on channel=0 note=69 velocity=80 time=0.009285710416666666EXTRACT: note_on channel=0 note=50 velocity=0 time=0.2049999145833333EXTRACT: note_on channel=0 note=54 velocity=0 time=0EXTRACT: note_on channel=0 note=57 velocity=0 time=0EXTRACT: note_on channel=0 note=69 velocity=0 time=0.11999995EXTRACT: note_on channel=0 note=71 velocity=80 time=0.017857135416666666EXTRACT: note_on channel=0 note=54 velocity=80 time=0EXTRACT: note_on channel=0 note=57 velocity=80 time=0EXTRACT: note_on channel=0 note=61 velocity=80 time=0EXTRACT: note_on channel=0 note=71 velocity=0 time=0.3249998645833333EXTRACT: note_on channel=0 note=73 velocity=80 time=0.017857135416666666EXTRACT: note_on channel=0 note=73 velocity=0 time=0.1621427895833333EXTRACT: note_on channel=0 note=71 velocity=80 time=0.009285710416666666EXTRACT: note_on channel=0 note=71 velocity=0 time=0.6507140145833333EXTRACT: note_on channel=0 note=69 velocity=80 time=0.034999985416666664EXTRACT: note_on channel=0 note=69 velocity=0 time=0.1621427895833333EXTRACT: note_on channel=0 note=71 velocity=80 time=0.009285710416666666EXTRACT: note_on channel=0 note=71 velocity=0 time=0.3249998645833333EXTRACT: note_on channel=0 note=73 velocity=80 time=0.017857135416666666EXTRACT: note_on channel=0 note=73 velocity=0 time=0.1621427895833333EXTRACT: note_on channel=0 note=71 velocity=80 time=0.009285710416666666EXTRACT: note_on channel=0 note=71 velocity=0 time=0.6507140145833333EXTRACT: note_on channel=0 note=69 velocity=80 time=0.034999985416666664EXTRACT: note_on channel=0 note=54 velocity=0 time=0.033571414583333334EXTRACT: note_on channel=0 note=57 velocity=0 time=0EXTRACT: note_on channel=0 note=61 velocity=0 time=0EXTRACT: note_on channel=0 note=69 velocity=0 time=0.128571375EXTRACT: note_on channel=0 note=71 velocity=80 time=0.009285710416666666EXTRACT: note_on channel=0 note=52 velocity=80 time=0EXTRACT: note_on channel=0 note=56 velocity=80 time=0EXTRACT: note_on channel=0 note=59 velocity=80 time=0EXTRACT: note_on channel=0 note=71 velocity=0 time=0.3249998645833333EXTRACT: note_on channel=0 note=73 velocity=80 time=0.017857135416666666EXTRACT: note_on channel=0 note=73 velocity=0 time=0.1621427895833333EXTRACT: note_on channel=0 note=71 velocity=80 time=0.009285710416666666EXTRACT: note_on channel=0 note=71 velocity=0 time=0.3249998645833333EXTRACT: note_on channel=0 note=69 velocity=80 time=0.017857135416666666EXTRACT: note_on channel=0 note=69 velocity=0 time=0.3249998645833333EXTRACT: note_on channel=0 note=69 velocity=80 time=0.017857135416666666EXTRACT: note_on channel=0 note=69 velocity=0 time=0.1621427895833333EXTRACT: note_on channel=0 note=71 velocity=80 time=0.009285710416666666EXTRACT: note_on channel=0 note=71 velocity=0 time=0.3249998645833333EXTRACT: note_on channel=0 note=76 velocity=80 time=0.017857135416666666EXTRACT: note_on channel=0 note=76 velocity=0 time=0.1621427895833333EXTRACT: note_on channel=0 note=73 velocity=80 time=0.009285710416666666EXTRACT: note_on channel=0 note=73 velocity=0 time=0.3249998645833333EXTRACT: note_on channel=0 note=71 velocity=80 time=0.017857135416666666EXTRACT: note_on channel=0 note=52 velocity=0 time=0.3764284145833333EXTRACT: note_on channel=0 note=56 velocity=0 time=0EXTRACT: note_on channel=0 note=59 velocity=0 time=0EXTRACT: note_on channel=0 note=71 velocity=0 time=0.11142852499999999EXTRACT: note_on channel=0 note=71 velocity=80 time=0.026428560416666663EXTRACT: note_on channel=0 note=49 velocity=80 time=0EXTRACT: note_on channel=0 note=52 velocity=80 time=0EXTRACT: note_on channel=0 note=56 velocity=80 time=0EXTRACT: note_on channel=0 note=71 velocity=0 time=0.3249998645833333EXTRACT: note_on channel=0 note=73 velocity=80 time=0.017857135416666666EXTRACT: note_on channel=0 note=73 velocity=0 time=0.3249998645833333EXTRACT: note_on channel=0 note=71 velocity=80 time=0.017857135416666666EXTRACT: note_on channel=0 note=71 velocity=0 time=0.3249998645833333EXTRACT: note_on channel=0 note=73 velocity=80 time=0.017857135416666666EXTRACT: note_on channel=0 note=73 velocity=0 time=0.3249998645833333EXTRACT: note_on channel=0 note=71 velocity=80 time=0.017857135416666666EXTRACT: note_on channel=0 note=71 velocity=0 time=0.1621427895833333EXTRACT: note_on channel=0 note=73 velocity=80 time=0.009285710416666666EXTRACT: note_on channel=0 note=73 velocity=0 time=0.3249998645833333EXTRACT: note_on channel=0 note=71 velocity=80 time=0.017857135416666666EXTRACT: note_on channel=0 note=71 velocity=0 time=0.3249998645833333EXTRACT: note_on channel=0 note=69 velocity=80 time=0.017857135416666666EXTRACT: note_on channel=0 note=49 velocity=0 time=0.3764284145833333EXTRACT: note_on channel=0 note=52 velocity=0 time=0EXTRACT: note_on channel=0 note=56 velocity=0 time=0EXTRACT: note_on channel=0 note=69 velocity=0 time=0.11142852499999999EXTRACT: note_on channel=0 note=71 velocity=80 time=0.026428560416666663EXTRACT: note_on channel=0 note=50 velocity=80 time=0EXTRACT: note_on channel=0 note=54 velocity=80 time=0EXTRACT: note_on channel=0 note=57 velocity=80 time=0EXTRACT: note_on channel=0 note=71 velocity=0 time=0.1621427895833333EXTRACT: note_on channel=0 note=73 velocity=80 time=0.009285710416666666EXTRACT: note_on channel=0 note=73 velocity=0 time=0.1621427895833333EXTRACT: note_on channel=0 note=73 velocity=80 time=0.009285710416666666EXTRACT: note_on channel=0 note=73 velocity=0 time=0.6507140145833333EXTRACT: note_on channel=0 note=69 velocity=80 time=0.034999985416666664EXTRACT: note_on channel=0 note=69 velocity=0 time=0.3249998645833333EXTRACT: note_on channel=0 note=71 velocity=80 time=0.017857135416666666EXTRACT: note_on channel=0 note=71 velocity=0 time=0.3249998645833333EXTRACT: note_on channel=0 note=69 velocity=80 time=0.017857135416666666EXTRACT: note_on channel=0 note=69 velocity=0 time=0.1621427895833333EXTRACT: note_on channel=0 note=71 velocity=80 time=0.009285710416666666EXTRACT: note_on channel=0 note=71 velocity=0 time=0.3249998645833333EXTRACT: note_on channel=0 note=69 velocity=80 time=0.017857135416666666EXTRACT: note_on channel=0 note=69 velocity=0 time=1.7907135395833331EXTRACT: note_on channel=0 note=76 velocity=80 time=1.1235709604166666EXTRACT: note_on channel=0 note=50 velocity=0 time=0.06785711458333332EXTRACT: note_on channel=0 note=54 velocity=0 time=0EXTRACT: note_on channel=0 note=57 velocity=0 time=0EXTRACT: note_on channel=0 note=76 velocity=0 time=0.25714275EXTRACT: note_on channel=0 note=73 velocity=80 time=0.017857135416666666EXTRACT: note_on channel=0 note=54 velocity=80 time=0EXTRACT: note_on channel=0 note=57 velocity=80 time=0EXTRACT: note_on channel=0 note=61 velocity=80 time=0EXTRACT: note_on channel=0 note=73 velocity=0 time=0.4878569395833333EXTRACT: note_on channel=0 note=71 velocity=80 time=0.026428560416666663EXTRACT: note_on channel=0 note=54 velocity=0 time=0.4621426645833333EXTRACT: note_on channel=0 note=57 velocity=0 time=0EXTRACT: note_on channel=0 note=61 velocity=0 time=0EXTRACT: note_on channel=0 note=71 velocity=0 time=0.025714274999999998EXTRACT: note_on channel=0 note=76 velocity=80 time=0.026428560416666663EXTRACT: note_on channel=0 note=54 velocity=80 time=0EXTRACT: note_on channel=0 note=57 velocity=80 time=0EXTRACT: note_on channel=0 note=61 velocity=80 time=0EXTRACT: note_on channel=0 note=76 velocity=0 time=0.3249998645833333EXTRACT: note_on channel=0 note=73 velocity=80 time=0.017857135416666666EXTRACT: note_on channel=0 note=73 velocity=0 time=0.4878569395833333EXTRACT: note_on channel=0 note=71 velocity=80 time=0.026428560416666663EXTRACT: note_on channel=0 note=54 velocity=0 time=0.11928566458333333EXTRACT: note_on channel=0 note=57 velocity=0 time=0EXTRACT: note_on channel=0 note=61 velocity=0 time=0EXTRACT: note_on channel=0 note=54 velocity=80 time=0.052142835416666665EXTRACT: note_on channel=0 note=57 velocity=80 time=0EXTRACT: note_on channel=0 note=61 velocity=80 time=0EXTRACT: note_on channel=0 note=71 velocity=0 time=0.31642843958333333EXTRACT: note_on channel=0 note=76 velocity=80 time=0.026428560416666663EXTRACT: note_on channel=0 note=54 velocity=0 time=0.3078570145833333EXTRACT: note_on channel=0 note=57 velocity=0 time=0EXTRACT: note_on channel=0 note=61 velocity=0 time=0EXTRACT: note_on channel=0 note=76 velocity=0 time=0.017142849999999998EXTRACT: note_on channel=0 note=73 velocity=80 time=0.017857135416666666EXTRACT: note_on channel=0 note=52 velocity=80 time=0EXTRACT: note_on channel=0 note=56 velocity=80 time=0EXTRACT: note_on channel=0 note=59 velocity=80 time=0EXTRACT: note_on channel=0 note=73 velocity=0 time=0.4878569395833333EXTRACT: note_on channel=0 note=71 velocity=80 time=0.026428560416666663EXTRACT: note_on channel=0 note=52 velocity=0 time=0.4621426645833333EXTRACT: note_on channel=0 note=56 velocity=0 time=0EXTRACT: note_on channel=0 note=59 velocity=0 time=0EXTRACT: note_on channel=0 note=71 velocity=0 time=0.025714274999999998EXTRACT: note_on channel=0 note=76 velocity=80 time=0.026428560416666663EXTRACT: note_on channel=0 note=52 velocity=80 time=0EXTRACT: note_on channel=0 note=56 velocity=80 time=0EXTRACT: note_on channel=0 note=59 velocity=80 time=0EXTRACT: note_on channel=0 note=76 velocity=0 time=0.3249998645833333EXTRACT: note_on channel=0 note=73 velocity=80 time=0.017857135416666666EXTRACT: note_on channel=0 note=73 velocity=0 time=0.4878569395833333EXTRACT: note_on channel=0 note=71 velocity=80 time=0.026428560416666663EXTRACT: note_on channel=0 note=52 velocity=0 time=0.11928566458333333EXTRACT: note_on channel=0 note=56 velocity=0 time=0EXTRACT: note_on channel=0 note=59 velocity=0 time=0EXTRACT: note_on channel=0 note=52 velocity=80 time=0.052142835416666665EXTRACT: note_on channel=0 note=56 velocity=80 time=0EXTRACT: note_on channel=0 note=59 velocity=80 time=0EXTRACT: note_on channel=0 note=71 velocity=0 time=0.31642843958333333EXTRACT: note_on channel=0 note=76 velocity=80 time=0.026428560416666663EXTRACT: note_on channel=0 note=52 velocity=0 time=0.3078570145833333EXTRACT: note_on channel=0 note=56 velocity=0 time=0EXTRACT: note_on channel=0 note=59 velocity=0 time=0EXTRACT: note_on channel=0 note=76 velocity=0 time=0.017142849999999998EXTRACT: note_on channel=0 note=73 velocity=80 time=0.017857135416666666EXTRACT: note_on channel=0 note=49 velocity=80 time=0EXTRACT: note_on channel=0 note=52 velocity=80 time=0EXTRACT: note_on channel=0 note=56 velocity=80 time=0EXTRACT: note_on channel=0 note=73 velocity=0 time=0.4878569395833333EXTRACT: note_on channel=0 note=71 velocity=80 time=0.026428560416666663EXTRACT: note_on channel=0 note=71 velocity=0 time=0.3249998645833333EXTRACT: note_on channel=0 note=69 velocity=80 time=0.017857135416666666EXTRACT: note_on channel=0 note=49 velocity=0 time=0.11928566458333333EXTRACT: note_on channel=0 note=52 velocity=0 time=0EXTRACT: note_on channel=0 note=56 velocity=0 time=0EXTRACT: note_on channel=0 note=69 velocity=0 time=0.042857124999999996EXTRACT: note_on channel=0 note=76 velocity=80 time=0.009285710416666666EXTRACT: note_on channel=0 note=49 velocity=80 time=0EXTRACT: note_on channel=0 note=52 velocity=80 time=0EXTRACT: note_on channel=0 note=56 velocity=80 time=0EXTRACT: note_on channel=0 note=76 velocity=0 time=0.3249998645833333EXTRACT: note_on channel=0 note=73 velocity=80 time=0.017857135416666666EXTRACT: note_on channel=0 note=73 velocity=0 time=0.4878569395833333EXTRACT: note_on channel=0 note=71 velocity=80 time=0.026428560416666663EXTRACT: note_on channel=0 note=49 velocity=0 time=0.11928566458333333EXTRACT: note_on channel=0 note=52 velocity=0 time=0EXTRACT: note_on channel=0 note=56 velocity=0 time=0EXTRACT: note_on channel=0 note=49 velocity=80 time=0.052142835416666665EXTRACT: note_on channel=0 note=52 velocity=80 time=0EXTRACT: note_on channel=0 note=56 velocity=80 time=0EXTRACT: note_on channel=0 note=71 velocity=0 time=0.4792855145833333EXTRACT: note_on channel=0 note=69 velocity=80 time=0.034999985416666664EXTRACT: note_on channel=0 note=49 velocity=0 time=0.13642851458333333EXTRACT: note_on channel=0 note=52 velocity=0 time=0EXTRACT: note_on channel=0 note=56 velocity=0 time=0EXTRACT: note_on channel=0 note=69 velocity=0 time=0.025714274999999998EXTRACT: note_on channel=0 note=71 velocity=80 time=0.009285710416666666EXTRACT: note_on channel=0 note=50 velocity=80 time=0EXTRACT: note_on channel=0 note=54 velocity=80 time=0EXTRACT: note_on channel=0 note=57 velocity=80 time=0EXTRACT: note_on channel=0 note=71 velocity=0 time=0.3249998645833333EXTRACT: note_on channel=0 note=73 velocity=80 time=0.017857135416666666EXTRACT: note_on channel=0 note=73 velocity=0 time=0.1621427895833333EXTRACT: note_on channel=0 note=73 velocity=80 time=0.009285710416666666EXTRACT: note_on channel=0 note=50 velocity=0 time=0.4621426645833333EXTRACT: note_on channel=0 note=54 velocity=0 time=0EXTRACT: note_on channel=0 note=57 velocity=0 time=0EXTRACT: note_on channel=0 note=50 velocity=80 time=0.052142835416666665EXTRACT: note_on channel=0 note=54 velocity=80 time=0EXTRACT: note_on channel=0 note=57 velocity=80 time=0EXTRACT: note_on channel=0 note=73 velocity=0 time=0.13642851458333333EXTRACT: note_on channel=0 note=69 velocity=80 time=0.034999985416666664EXTRACT: note_on channel=0 note=69 velocity=0 time=0.1621427895833333EXTRACT: note_on channel=0 note=71 velocity=80 time=0.009285710416666666EXTRACT: note_on channel=0 note=71 velocity=0 time=0.4878569395833333EXTRACT: note_on channel=0 note=69 velocity=80 time=0.026428560416666663EXTRACT: note_on channel=0 note=50 velocity=0 time=0.11928566458333333EXTRACT: note_on channel=0 note=54 velocity=0 time=0EXTRACT: note_on channel=0 note=57 velocity=0 time=0EXTRACT: note_on channel=0 note=50 velocity=80 time=0.052142835416666665EXTRACT: note_on channel=0 note=54 velocity=80 time=0EXTRACT: note_on channel=0 note=57 velocity=80 time=0EXTRACT: note_on channel=0 note=69 velocity=0 time=0.31642843958333333EXTRACT: note_on channel=0 note=76 velocity=80 time=0.026428560416666663EXTRACT: note_on channel=0 note=50 velocity=0 time=0.3078570145833333EXTRACT: note_on channel=0 note=54 velocity=0 time=0EXTRACT: note_on channel=0 note=57 velocity=0 time=0EXTRACT: note_on channel=0 note=76 velocity=0 time=0.017142849999999998EXTRACT: note_on channel=0 note=73 velocity=80 time=0.017857135416666666EXTRACT: note_on channel=0 note=54 velocity=80 time=0EXTRACT: note_on channel=0 note=57 velocity=80 time=0EXTRACT: note_on channel=0 note=61 velocity=80 time=0EXTRACT: note_on channel=0 note=73 velocity=0 time=0.4878569395833333EXTRACT: note_on channel=0 note=71 velocity=80 time=0.026428560416666663EXTRACT: note_on channel=0 note=54 velocity=0 time=0.4621426645833333EXTRACT: note_on channel=0 note=57 velocity=0 time=0EXTRACT: note_on channel=0 note=61 velocity=0 time=0EXTRACT: note_on channel=0 note=71 velocity=0 time=0.025714274999999998EXTRACT: note_on channel=0 note=76 velocity=80 time=0.026428560416666663EXTRACT: note_on channel=0 note=54 velocity=80 time=0EXTRACT: note_on channel=0 note=57 velocity=80 time=0EXTRACT: note_on channel=0 note=61 velocity=80 time=0EXTRACT: note_on channel=0 note=76 velocity=0 time=0.3249998645833333EXTRACT: note_on channel=0 note=73 velocity=80 time=0.017857135416666666EXTRACT: note_on channel=0 note=73 velocity=0 time=0.4878569395833333EXTRACT: note_on channel=0 note=71 velocity=80 time=0.026428560416666663EXTRACT: note_on channel=0 note=54 velocity=0 time=0.11928566458333333EXTRACT: note_on channel=0 note=57 velocity=0 time=0EXTRACT: note_on channel=0 note=61 velocity=0 time=0EXTRACT: note_on channel=0 note=54 velocity=80 time=0.052142835416666665EXTRACT: note_on channel=0 note=57 velocity=80 time=0EXTRACT: note_on channel=0 note=61 velocity=80 time=0EXTRACT: note_on channel=0 note=71 velocity=0 time=0.31642843958333333EXTRACT: note_on channel=0 note=76 velocity=80 time=0.026428560416666663EXTRACT: note_on channel=0 note=54 velocity=0 time=0.3078570145833333EXTRACT: note_on channel=0 note=57 velocity=0 time=0EXTRACT: note_on channel=0 note=61 velocity=0 time=0EXTRACT: note_on channel=0 note=76 velocity=0 time=0.017142849999999998EXTRACT: note_on channel=0 note=73 velocity=80 time=0.017857135416666666EXTRACT: note_on channel=0 note=52 velocity=80 time=0EXTRACT: note_on channel=0 note=56 velocity=80 time=0EXTRACT: note_on channel=0 note=59 velocity=80 time=0EXTRACT: note_on channel=0 note=73 velocity=0 time=0.4878569395833333EXTRACT: note_on channel=0 note=71 velocity=80 time=0.026428560416666663EXTRACT: note_on channel=0 note=52 velocity=0 time=0.4621426645833333EXTRACT: note_on channel=0 note=56 velocity=0 time=0EXTRACT: note_on channel=0 note=59 velocity=0 time=0EXTRACT: note_on channel=0 note=71 velocity=0 time=0.025714274999999998EXTRACT: note_on channel=0 note=76 velocity=80 time=0.026428560416666663EXTRACT: note_on channel=0 note=52 velocity=80 time=0EXTRACT: note_on channel=0 note=56 velocity=80 time=0EXTRACT: note_on channel=0 note=59 velocity=80 time=0EXTRACT: note_on channel=0 note=76 velocity=0 time=0.3249998645833333EXTRACT: note_on channel=0 note=73 velocity=80 time=0.017857135416666666EXTRACT: note_on channel=0 note=73 velocity=0 time=0.4878569395833333EXTRACT: note_on channel=0 note=71 velocity=80 time=0.026428560416666663EXTRACT: note_on channel=0 note=52 velocity=0 time=0.11928566458333333EXTRACT: note_on channel=0 note=56 velocity=0 time=0EXTRACT: note_on channel=0 note=59 velocity=0 time=0EXTRACT: note_on channel=0 note=52 velocity=80 time=0.052142835416666665EXTRACT: note_on channel=0 note=56 velocity=80 time=0EXTRACT: note_on channel=0 note=59 velocity=80 time=0EXTRACT: note_on channel=0 note=71 velocity=0 time=0.31642843958333333EXTRACT: note_on channel=0 note=76 velocity=80 time=0.026428560416666663EXTRACT: note_on channel=0 note=52 velocity=0 time=0.3078570145833333EXTRACT: note_on channel=0 note=56 velocity=0 time=0EXTRACT: note_on channel=0 note=59 velocity=0 time=0EXTRACT: note_on channel=0 note=76 velocity=0 time=0.017142849999999998EXTRACT: note_on channel=0 note=73 velocity=80 time=0.017857135416666666EXTRACT: note_on channel=0 note=49 velocity=80 time=0EXTRACT: note_on channel=0 note=52 velocity=80 time=0EXTRACT: note_on channel=0 note=56 velocity=80 time=0EXTRACT: note_on channel=0 note=73 velocity=0 time=0.4878569395833333EXTRACT: note_on channel=0 note=71 velocity=80 time=0.026428560416666663EXTRACT: note_on channel=0 note=71 velocity=0 time=0.3249998645833333EXTRACT: note_on channel=0 note=69 velocity=80 time=0.017857135416666666EXTRACT: note_on channel=0 note=49 velocity=0 time=0.11928566458333333EXTRACT: note_on channel=0 note=52 velocity=0 time=0EXTRACT: note_on channel=0 note=56 velocity=0 time=0EXTRACT: note_on channel=0 note=69 velocity=0 time=0.042857124999999996EXTRACT: note_on channel=0 note=76 velocity=80 time=0.009285710416666666EXTRACT: note_on channel=0 note=49 velocity=80 time=0EXTRACT: note_on channel=0 note=52 velocity=80 time=0EXTRACT: note_on channel=0 note=56 velocity=80 time=0EXTRACT: note_on channel=0 note=76 velocity=0 time=0.3249998645833333EXTRACT: note_on channel=0 note=73 velocity=80 time=0.017857135416666666EXTRACT: note_on channel=0 note=73 velocity=0 time=0.4878569395833333EXTRACT: note_on channel=0 note=71 velocity=80 time=0.026428560416666663EXTRACT: note_on channel=0 note=49 velocity=0 time=0.11928566458333333EXTRACT: note_on channel=0 note=52 velocity=0 time=0EXTRACT: note_on channel=0 note=56 velocity=0 time=0EXTRACT: note_on channel=0 note=49 velocity=80 time=0.052142835416666665EXTRACT: note_on channel=0 note=52 velocity=80 time=0EXTRACT: note_on channel=0 note=56 velocity=80 time=0EXTRACT: note_on channel=0 note=71 velocity=0 time=0.4792855145833333EXTRACT: note_on channel=0 note=69 velocity=80 time=0.034999985416666664EXTRACT: note_on channel=0 note=49 velocity=0 time=0.13642851458333333EXTRACT: note_on channel=0 note=52 velocity=0 time=0EXTRACT: note_on channel=0 note=56 velocity=0 time=0EXTRACT: note_on channel=0 note=69 velocity=0 time=0.025714274999999998EXTRACT: note_on channel=0 note=71 velocity=80 time=0.009285710416666666EXTRACT: note_on channel=0 note=50 velocity=80 time=0EXTRACT: note_on channel=0 note=54 velocity=80 time=0EXTRACT: note_on channel=0 note=57 velocity=80 time=0EXTRACT: note_on channel=0 note=71 velocity=0 time=0.3249998645833333EXTRACT: note_on channel=0 note=73 velocity=80 time=0.017857135416666666EXTRACT: note_on channel=0 note=73 velocity=0 time=0.1621427895833333EXTRACT: note_on channel=0 note=73 velocity=80 time=0.009285710416666666EXTRACT: note_on channel=0 note=73 velocity=0 time=0.4878569395833333EXTRACT: note_on channel=0 note=69 velocity=80 time=0.026428560416666663EXTRACT: note_on channel=0 note=69 velocity=0 time=0.3249998645833333EXTRACT: note_on channel=0 note=71 velocity=80 time=0.017857135416666666EXTRACT: note_on channel=0 note=71 velocity=0 time=0.4878569395833333EXTRACT: note_on channel=0 note=69 velocity=80 time=0.026428560416666663EXTRACT: note_on channel=0 note=69 velocity=0 time=0.6507140145833333EXTRACT: note_on channel=0 note=50 velocity=0 time=2.6742845999999996EXTRACT: note_on channel=0 note=54 velocity=0 time=0EXTRACT: note_on channel=0 note=57 velocity=0 time=0EXTRACT: note_on channel=0 note=69 velocity=80 time=0.10357138541666666EXTRACT: note_on channel=0 note=69 velocity=0 time=0.1621427895833333EXTRACT: note_on channel=0 note=71 velocity=80 time=0.009285710416666666EXTRACT: note_on channel=0 note=54 velocity=80 time=0EXTRACT: note_on channel=0 note=57 velocity=80 time=0EXTRACT: note_on channel=0 note=61 velocity=80 time=0EXTRACT: note_on channel=0 note=71 velocity=0 time=0.1621427895833333EXTRACT: note_on channel=0 note=73 velocity=80 time=0.009285710416666666EXTRACT: note_on channel=0 note=73 velocity=0 time=0.1621427895833333EXTRACT: note_on channel=0 note=73 velocity=80 time=0.009285710416666666EXTRACT: note_on channel=0 note=73 velocity=0 time=0.1621427895833333EXTRACT: note_on channel=0 note=73 velocity=80 time=0.009285710416666666EXTRACT: note_on channel=0 note=73 velocity=0 time=0.1621427895833333EXTRACT: note_on channel=0 note=73 velocity=80 time=0.009285710416666666EXTRACT: note_on channel=0 note=73 velocity=0 time=0.3249998645833333EXTRACT: note_on channel=0 note=69 velocity=80 time=0.017857135416666666EXTRACT: note_on channel=0 note=69 velocity=0 time=0.9764281645833333EXTRACT: note_on channel=0 note=69 velocity=80 time=0.5664283354166666EXTRACT: note_on channel=0 note=54 velocity=0 time=0.033571414583333334EXTRACT: note_on channel=0 note=57 velocity=0 time=0EXTRACT: note_on channel=0 note=61 velocity=0 time=0EXTRACT: note_on channel=0 note=69 velocity=0 time=0.128571375EXTRACT: note_on channel=0 note=73 velocity=80 time=0.009285710416666666EXTRACT: note_on channel=0 note=52 velocity=80 time=0EXTRACT: note_on channel=0 note=56 velocity=80 time=0EXTRACT: note_on channel=0 note=59 velocity=80 time=0EXTRACT: note_on channel=0 note=73 velocity=0 time=0.21642848124999997EXTRACT: note_on channel=0 note=73 velocity=80 time=0.012142852083333332EXTRACT: note_on channel=0 note=73 velocity=0 time=0.21642848124999997EXTRACT: note_on channel=0 note=73 velocity=80 time=0.012142852083333332EXTRACT: note_on channel=0 note=73 velocity=0 time=0.21642848124999997EXTRACT: note_on channel=0 note=73 velocity=80 time=0.012142852083333332EXTRACT: note_on channel=0 note=73 velocity=0 time=0.21642848124999997EXTRACT: note_on channel=0 note=71 velocity=80 time=0.012142852083333332EXTRACT: note_on channel=0 note=71 velocity=0 time=0.21642848124999997EXTRACT: note_on channel=0 note=69 velocity=80 time=0.012142852083333332EXTRACT: note_on channel=0 note=69 velocity=0 time=0.21642848124999997EXTRACT: note_on channel=0 note=73 velocity=80 time=0.012142852083333332EXTRACT: note_on channel=0 note=73 velocity=0 time=0.21642848124999997EXTRACT: note_on channel=0 note=73 velocity=80 time=0.012142852083333332EXTRACT: note_on channel=0 note=73 velocity=0 time=0.21642848124999997EXTRACT: note_on channel=0 note=73 velocity=80 time=0.012142852083333332EXTRACT: note_on channel=0 note=73 velocity=0 time=0.21642848124999997EXTRACT: note_on channel=0 note=73 velocity=80 time=0.012142852083333332EXTRACT: note_on channel=0 note=73 velocity=0 time=0.1621427895833333EXTRACT: note_on channel=0 note=71 velocity=80 time=0.009285710416666666EXTRACT: note_on channel=0 note=71 velocity=0 time=0.3249998645833333EXTRACT: note_on channel=0 note=69 velocity=80 time=0.017857135416666666EXTRACT: note_on channel=0 note=52 velocity=0 time=0.033571414583333334EXTRACT: note_on channel=0 note=56 velocity=0 time=0EXTRACT: note_on channel=0 note=59 velocity=0 time=0EXTRACT: note_on channel=0 note=69 velocity=0 time=0.128571375EXTRACT: note_on channel=0 note=71 velocity=80 time=0.009285710416666666EXTRACT: note_on channel=0 note=49 velocity=80 time=0EXTRACT: note_on channel=0 note=52 velocity=80 time=0EXTRACT: note_on channel=0 note=56 velocity=80 time=0EXTRACT: note_on channel=0 note=71 velocity=0 time=0.1621427895833333EXTRACT: note_on channel=0 note=73 velocity=80 time=0.009285710416666666EXTRACT: note_on channel=0 note=73 velocity=0 time=0.1621427895833333EXTRACT: note_on channel=0 note=73 velocity=80 time=0.009285710416666666EXTRACT: note_on channel=0 note=73 velocity=0 time=0.1621427895833333EXTRACT: note_on channel=0 note=73 velocity=80 time=0.009285710416666666EXTRACT: note_on channel=0 note=73 velocity=0 time=0.1621427895833333EXTRACT: note_on channel=0 note=73 velocity=80 time=0.009285710416666666EXTRACT: note_on channel=0 note=73 velocity=0 time=0.3249998645833333EXTRACT: note_on channel=0 note=69 velocity=80 time=0.017857135416666666EXTRACT: note_on channel=0 note=69 velocity=0 time=0.9764281645833333EXTRACT: note_on channel=0 note=69 velocity=80 time=0.28071416875EXTRACT: note_on channel=0 note=69 velocity=0 time=0.21642848124999997EXTRACT: note_on channel=0 note=69 velocity=80 time=0.012142852083333332EXTRACT: note_on channel=0 note=49 velocity=0 time=0.09071424791666666EXTRACT: note_on channel=0 note=52 velocity=0 time=0EXTRACT: note_on channel=0 note=56 velocity=0 time=0EXTRACT: note_on channel=0 note=69 velocity=0 time=0.12571423333333331EXTRACT: note_on channel=0 note=73 velocity=80 time=0.012142852083333332EXTRACT: note_on channel=0 note=50 velocity=80 time=0EXTRACT: note_on channel=0 note=54 velocity=80 time=0EXTRACT: note_on channel=0 note=57 velocity=80 time=0EXTRACT: note_on channel=0 note=73 velocity=0 time=0.21642848124999997EXTRACT: note_on channel=0 note=73 velocity=80 time=0.012142852083333332EXTRACT: note_on channel=0 note=73 velocity=0 time=0.21642848124999997EXTRACT: note_on channel=0 note=73 velocity=80 time=0.012142852083333332EXTRACT: note_on channel=0 note=73 velocity=0 time=0.21642848124999997EXTRACT: note_on channel=0 note=73 velocity=80 time=0.012142852083333332EXTRACT: note_on channel=0 note=73 velocity=0 time=0.21642848124999997EXTRACT: note_on channel=0 note=71 velocity=80 time=0.012142852083333332EXTRACT: note_on channel=0 note=71 velocity=0 time=0.21642848124999997EXTRACT: note_on channel=0 note=69 velocity=80 time=0.012142852083333332EXTRACT: note_on channel=0 note=69 velocity=0 time=0.21642848124999997EXTRACT: note_on channel=0 note=73 velocity=80 time=0.012142852083333332EXTRACT: note_on channel=0 note=73 velocity=0 time=0.21642848124999997EXTRACT: note_on channel=0 note=73 velocity=80 time=0.012142852083333332EXTRACT: note_on channel=0 note=73 velocity=0 time=0.10785709791666666EXTRACT: note_on channel=0 note=73 velocity=80 time=0.0064285687499999996EXTRACT: note_on channel=0 note=73 velocity=0 time=0.21642848124999997EXTRACT: note_on channel=0 note=73 velocity=80 time=0.012142852083333332EXTRACT: note_on channel=0 note=73 velocity=0 time=0.10785709791666666EXTRACT: note_on channel=0 note=73 velocity=80 time=0.0064285687499999996EXTRACT: note_on channel=0 note=73 velocity=0 time=0.1621427895833333EXTRACT: note_on channel=0 note=71 velocity=80 time=0.009285710416666666EXTRACT: note_on channel=0 note=50 velocity=0 time=0.3764284145833333EXTRACT: note_on channel=0 note=54 velocity=0 time=0EXTRACT: note_on channel=0 note=57 velocity=0 time=0EXTRACT: note_on channel=0 note=71 velocity=0 time=0.11142852499999999EXTRACT: note_on channel=0 note=54 velocity=80 time=0.026428560416666663EXTRACT: note_on channel=0 note=57 velocity=80 time=0EXTRACT: note_on channel=0 note=61 velocity=80 time=0EXTRACT: note_on channel=0 note=73 velocity=80 time=0.22857133333333332EXTRACT: note_on channel=0 note=73 velocity=0 time=0.21642848124999997EXTRACT: note_on channel=0 note=73 velocity=80 time=0.012142852083333332EXTRACT: note_on channel=0 note=73 velocity=0 time=0.21642848124999997EXTRACT: note_on channel=0 note=73 velocity=80 time=0.012142852083333332EXTRACT: note_on channel=0 note=73 velocity=0 time=0.21642848124999997EXTRACT: note_on channel=0 note=73 velocity=80 time=0.012142852083333332EXTRACT: note_on channel=0 note=73 velocity=0 time=0.21642848124999997EXTRACT: note_on channel=0 note=73 velocity=80 time=0.012142852083333332EXTRACT: note_on channel=0 note=73 velocity=0 time=0.21642848124999997EXTRACT: note_on channel=0 note=73 velocity=80 time=0.012142852083333332EXTRACT: note_on channel=0 note=73 velocity=0 time=0.21642848124999997EXTRACT: note_on channel=0 note=73 velocity=80 time=0.012142852083333332EXTRACT: note_on channel=0 note=73 velocity=0 time=0.21642848124999997EXTRACT: note_on channel=0 note=76 velocity=80 time=0.012142852083333332EXTRACT: note_on channel=0 note=76 velocity=0 time=0.21642848124999997EXTRACT: note_on channel=0 note=76 velocity=80 time=0.012142852083333332EXTRACT: note_on channel=0 note=54 velocity=0 time=0.5478569145833333EXTRACT: note_on channel=0 note=57 velocity=0 time=0EXTRACT: note_on channel=0 note=61 velocity=0 time=0EXTRACT: note_on channel=0 note=76 velocity=0 time=0.10285709999999999EXTRACT: note_on channel=0 note=52 velocity=80 time=0.034999985416666664EXTRACT: note_on channel=0 note=56 velocity=80 time=0EXTRACT: note_on channel=0 note=59 velocity=80 time=0EXTRACT: note_on channel=0 note=73 velocity=80 time=0.34285699999999997EXTRACT: note_on channel=0 note=73 velocity=0 time=0.21642848124999997EXTRACT: note_on channel=0 note=73 velocity=80 time=0.012142852083333332EXTRACT: note_on channel=0 note=73 velocity=0 time=0.10785709791666666EXTRACT: note_on channel=0 note=73 velocity=80 time=0.0064285687499999996EXTRACT: note_on channel=0 note=73 velocity=0 time=0.21642848124999997EXTRACT: note_on channel=0 note=73 velocity=80 time=0.012142852083333332EXTRACT: note_on channel=0 note=73 velocity=0 time=0.10785709791666666EXTRACT: note_on channel=0 note=73 velocity=80 time=0.0064285687499999996EXTRACT: note_on channel=0 note=73 velocity=0 time=0.21642848124999997EXTRACT: note_on channel=0 note=73 velocity=80 time=0.012142852083333332EXTRACT: note_on channel=0 note=73 velocity=0 time=0.10785709791666666EXTRACT: note_on channel=0 note=73 velocity=80 time=0.0064285687499999996EXTRACT: note_on channel=0 note=73 velocity=0 time=0.3249998645833333EXTRACT: note_on channel=0 note=71 velocity=80 time=0.017857135416666666EXTRACT: note_on channel=0 note=71 velocity=0 time=0.21642848124999997EXTRACT: note_on channel=0 note=69 velocity=80 time=0.012142852083333332EXTRACT: note_on channel=0 note=52 velocity=0 time=0.6621425812499999EXTRACT: note_on channel=0 note=56 velocity=0 time=0EXTRACT: note_on channel=0 note=59 velocity=0 time=0EXTRACT: note_on channel=0 note=69 velocity=0 time=0.09714281666666666EXTRACT: note_on channel=0 note=49 velocity=80 time=0.04071426875EXTRACT: note_on channel=0 note=52 velocity=80 time=0EXTRACT: note_on channel=0 note=56 velocity=80 time=0EXTRACT: note_on channel=0 note=73 velocity=80 time=0.6857139999999999EXTRACT: note_on channel=0 note=73 velocity=0 time=0.3249998645833333EXTRACT: note_on channel=0 note=73 velocity=80 time=0.017857135416666666EXTRACT: note_on channel=0 note=73 velocity=0 time=0.1621427895833333EXTRACT: note_on channel=0 note=73 velocity=80 time=0.009285710416666666EXTRACT: note_on channel=0 note=73 velocity=0 time=0.3249998645833333EXTRACT: note_on channel=0 note=71 velocity=80 time=0.017857135416666666EXTRACT: note_on channel=0 note=71 velocity=0 time=0.1621427895833333EXTRACT: note_on channel=0 note=69 velocity=80 time=0.009285710416666666EXTRACT: note_on channel=0 note=69 velocity=0 time=0.3249998645833333EXTRACT: note_on channel=0 note=69 velocity=80 time=0.017857135416666666EXTRACT: note_on channel=0 note=69 velocity=0 time=0.4878569395833333EXTRACT: note_on channel=0 note=69 velocity=80 time=0.026428560416666663EXTRACT: note_on channel=0 note=49 velocity=0 time=0.033571414583333334EXTRACT: note_on channel=0 note=52 velocity=0 time=0EXTRACT: note_on channel=0 note=56 velocity=0 time=0EXTRACT: note_on channel=0 note=69 velocity=0 time=0.128571375EXTRACT: note_on channel=0 note=73 velocity=80 time=0.009285710416666666EXTRACT: note_on channel=0 note=50 velocity=80 time=0EXTRACT: note_on channel=0 note=54 velocity=80 time=0EXTRACT: note_on channel=0 note=57 velocity=80 time=0EXTRACT: note_on channel=0 note=73 velocity=0 time=0.21642848124999997EXTRACT: note_on channel=0 note=73 velocity=80 time=0.012142852083333332EXTRACT: note_on channel=0 note=73 velocity=0 time=0.21642848124999997EXTRACT: note_on channel=0 note=73 velocity=80 time=0.012142852083333332EXTRACT: note_on channel=0 note=73 velocity=0 time=0.21642848124999997EXTRACT: note_on channel=0 note=73 velocity=80 time=0.012142852083333332EXTRACT: note_on channel=0 note=73 velocity=0 time=0.21642848124999997EXTRACT: note_on channel=0 note=71 velocity=80 time=0.012142852083333332EXTRACT: note_on channel=0 note=71 velocity=0 time=0.21642848124999997EXTRACT: note_on channel=0 note=69 velocity=80 time=0.012142852083333332EXTRACT: note_on channel=0 note=69 velocity=0 time=0.21642848124999997EXTRACT: note_on channel=0 note=71 velocity=80 time=0.012142852083333332EXTRACT: note_on channel=0 note=71 velocity=0 time=0.21642848124999997EXTRACT: note_on channel=0 note=71 velocity=80 time=0.012142852083333332EXTRACT: note_on channel=0 note=71 velocity=0 time=0.21642848124999997EXTRACT: note_on channel=0 note=73 velocity=80 time=0.012142852083333332EXTRACT: note_on channel=0 note=73 velocity=0 time=0.21642848124999997EXTRACT: note_on channel=0 note=69 velocity=80 time=0.012142852083333332EXTRACT: note_on channel=0 note=69 velocity=0 time=0.4878569395833333EXTRACT: note_on channel=0 note=69 velocity=80 time=0.026428560416666663EXTRACT: note_on channel=0 note=50 velocity=0 time=0.033571414583333334EXTRACT: note_on channel=0 note=54 velocity=0 time=0EXTRACT: note_on channel=0 note=57 velocity=0 time=0EXTRACT: note_on channel=0 note=69 velocity=0 time=0.128571375EXTRACT: note_on channel=0 note=73 velocity=80 time=0.009285710416666666EXTRACT: note_on channel=0 note=54 velocity=80 time=0EXTRACT: note_on channel=0 note=57 velocity=80 time=0EXTRACT: note_on channel=0 note=61 velocity=80 time=0EXTRACT: note_on channel=0 note=73 velocity=0 time=0.21642848124999997EXTRACT: note_on channel=0 note=73 velocity=80 time=0.012142852083333332EXTRACT: note_on channel=0 note=73 velocity=0 time=0.21642848124999997EXTRACT: note_on channel=0 note=73 velocity=80 time=0.012142852083333332EXTRACT: note_on channel=0 note=73 velocity=0 time=0.21642848124999997EXTRACT: note_on channel=0 note=73 velocity=80 time=0.012142852083333332EXTRACT: note_on channel=0 note=73 velocity=0 time=0.21642848124999997EXTRACT: note_on channel=0 note=73 velocity=80 time=0.012142852083333332EXTRACT: note_on channel=0 note=54 velocity=0 time=0.062142831249999995EXTRACT: note_on channel=0 note=57 velocity=0 time=0EXTRACT: note_on channel=0 note=61 velocity=0 time=0EXTRACT: note_on channel=0 note=54 velocity=80 time=0.052142835416666665EXTRACT: note_on channel=0 note=57 velocity=80 time=0EXTRACT: note_on channel=0 note=61 velocity=80 time=0EXTRACT: note_on channel=0 note=73 velocity=0 time=0.10214281458333332EXTRACT: note_on channel=0 note=73 velocity=80 time=0.012142852083333332EXTRACT: note_on channel=0 note=73 velocity=0 time=0.21642848124999997EXTRACT: note_on channel=0 note=73 velocity=80 time=0.012142852083333332EXTRACT: note_on channel=0 note=73 velocity=0 time=0.21642848124999997EXTRACT: note_on channel=0 note=73 velocity=80 time=0.012142852083333332EXTRACT: note_on channel=0 note=73 velocity=0 time=0.21642848124999997EXTRACT: note_on channel=0 note=73 velocity=80 time=0.012142852083333332EXTRACT: note_on channel=0 note=73 velocity=0 time=0.21642848124999997EXTRACT: note_on channel=0 note=76 velocity=80 time=0.012142852083333332EXTRACT: note_on channel=0 note=76 velocity=0 time=0.21642848124999997EXTRACT: note_on channel=0 note=73 velocity=80 time=0.012142852083333332EXTRACT: note_on channel=0 note=73 velocity=0 time=0.21642848124999997EXTRACT: note_on channel=0 note=69 velocity=80 time=0.012142852083333332EXTRACT: note_on channel=0 note=54 velocity=0 time=0.14214279791666665EXTRACT: note_on channel=0 note=57 velocity=0 time=0EXTRACT: note_on channel=0 note=61 velocity=0 time=0EXTRACT: note_on channel=0 note=69 velocity=0 time=0.07428568333333332EXTRACT: note_on channel=0 note=73 velocity=80 time=0.012142852083333332EXTRACT: note_on channel=0 note=52 velocity=80 time=0EXTRACT: note_on channel=0 note=56 velocity=80 time=0EXTRACT: note_on channel=0 note=59 velocity=80 time=0EXTRACT: note_on channel=0 note=73 velocity=0 time=0.21642848124999997EXTRACT: note_on channel=0 note=73 velocity=80 time=0.012142852083333332EXTRACT: note_on channel=0 note=73 velocity=0 time=0.21642848124999997EXTRACT: note_on channel=0 note=73 velocity=80 time=0.012142852083333332EXTRACT: note_on channel=0 note=73 velocity=0 time=0.21642848124999997EXTRACT: note_on channel=0 note=73 velocity=80 time=0.012142852083333332EXTRACT: note_on channel=0 note=73 velocity=0 time=0.21642848124999997EXTRACT: note_on channel=0 note=73 velocity=80 time=0.012142852083333332EXTRACT: note_on channel=0 note=52 velocity=0 time=0.062142831249999995EXTRACT: note_on channel=0 note=56 velocity=0 time=0EXTRACT: note_on channel=0 note=59 velocity=0 time=0EXTRACT: note_on channel=0 note=52 velocity=80 time=0.052142835416666665EXTRACT: note_on channel=0 note=56 velocity=80 time=0EXTRACT: note_on channel=0 note=59 velocity=80 time=0EXTRACT: note_on channel=0 note=73 velocity=0 time=0.10214281458333332EXTRACT: note_on channel=0 note=73 velocity=80 time=0.012142852083333332EXTRACT: note_on channel=0 note=73 velocity=0 time=0.21642848124999997EXTRACT: note_on channel=0 note=73 velocity=80 time=0.012142852083333332EXTRACT: note_on channel=0 note=73 velocity=0 time=0.21642848124999997EXTRACT: note_on channel=0 note=73 velocity=80 time=0.012142852083333332EXTRACT: note_on channel=0 note=73 velocity=0 time=0.21642848124999997EXTRACT: note_on channel=0 note=73 velocity=80 time=0.012142852083333332EXTRACT: note_on channel=0 note=73 velocity=0 time=0.21642848124999997EXTRACT: note_on channel=0 note=76 velocity=80 time=0.012142852083333332EXTRACT: note_on channel=0 note=76 velocity=0 time=0.21642848124999997EXTRACT: note_on channel=0 note=73 velocity=80 time=0.012142852083333332EXTRACT: note_on channel=0 note=73 velocity=0 time=0.21642848124999997EXTRACT: note_on channel=0 note=69 velocity=80 time=0.012142852083333332EXTRACT: note_on channel=0 note=52 velocity=0 time=0.14214279791666665EXTRACT: note_on channel=0 note=56 velocity=0 time=0EXTRACT: note_on channel=0 note=59 velocity=0 time=0EXTRACT: note_on channel=0 note=69 velocity=0 time=0.07428568333333332EXTRACT: note_on channel=0 note=73 velocity=80 time=0.012142852083333332EXTRACT: note_on channel=0 note=49 velocity=80 time=0EXTRACT: note_on channel=0 note=52 velocity=80 time=0EXTRACT: note_on channel=0 note=56 velocity=80 time=0EXTRACT: note_on channel=0 note=73 velocity=0 time=0.21642848124999997EXTRACT: note_on channel=0 note=73 velocity=80 time=0.012142852083333332EXTRACT: note_on channel=0 note=73 velocity=0 time=0.21642848124999997EXTRACT: note_on channel=0 note=73 velocity=80 time=0.012142852083333332EXTRACT: note_on channel=0 note=73 velocity=0 time=0.21642848124999997EXTRACT: note_on channel=0 note=76 velocity=80 time=0.012142852083333332EXTRACT: note_on channel=0 note=76 velocity=0 time=0.21642848124999997EXTRACT: note_on channel=0 note=73 velocity=80 time=0.012142852083333332EXTRACT: note_on channel=0 note=49 velocity=0 time=0.062142831249999995EXTRACT: note_on channel=0 note=52 velocity=0 time=0EXTRACT: note_on channel=0 note=56 velocity=0 time=0EXTRACT: note_on channel=0 note=49 velocity=80 time=0.052142835416666665EXTRACT: note_on channel=0 note=52 velocity=80 time=0EXTRACT: note_on channel=0 note=56 velocity=80 time=0EXTRACT: note_on channel=0 note=73 velocity=0 time=0.10214281458333332EXTRACT: note_on channel=0 note=69 velocity=80 time=0.012142852083333332EXTRACT: note_on channel=0 note=69 velocity=0 time=0.21642848124999997EXTRACT: note_on channel=0 note=73 velocity=80 time=0.012142852083333332EXTRACT: note_on channel=0 note=73 velocity=0 time=0.21642848124999997EXTRACT: note_on channel=0 note=73 velocity=80 time=0.012142852083333332EXTRACT: note_on channel=0 note=73 velocity=0 time=0.21642848124999997EXTRACT: note_on channel=0 note=73 velocity=80 time=0.012142852083333332EXTRACT: note_on channel=0 note=73 velocity=0 time=0.21642848124999997EXTRACT: note_on channel=0 note=76 velocity=80 time=0.012142852083333332EXTRACT: note_on channel=0 note=76 velocity=0 time=0.21642848124999997EXTRACT: note_on channel=0 note=73 velocity=80 time=0.012142852083333332EXTRACT: note_on channel=0 note=73 velocity=0 time=0.21642848124999997EXTRACT: note_on channel=0 note=69 velocity=80 time=0.012142852083333332EXTRACT: note_on channel=0 note=49 velocity=0 time=0.14214279791666665EXTRACT: note_on channel=0 note=52 velocity=0 time=0EXTRACT: note_on channel=0 note=56 velocity=0 time=0EXTRACT: note_on channel=0 note=69 velocity=0 time=0.07428568333333332EXTRACT: note_on channel=0 note=76 velocity=80 time=0.012142852083333332EXTRACT: note_on channel=0 note=50 velocity=80 time=0EXTRACT: note_on channel=0 note=54 velocity=80 time=0EXTRACT: note_on channel=0 note=57 velocity=80 time=0EXTRACT: note_on channel=0 note=76 velocity=0 time=0.21642848124999997EXTRACT: note_on channel=0 note=74 velocity=80 time=0.012142852083333332EXTRACT: note_on channel=0 note=74 velocity=0 time=0.21642848124999997EXTRACT: note_on channel=0 note=73 velocity=80 time=0.012142852083333332EXTRACT: note_on channel=0 note=73 velocity=0 time=0.21642848124999997EXTRACT: note_on channel=0 note=71 velocity=80 time=0.012142852083333332EXTRACT: note_on channel=0 note=71 velocity=0 time=0.21642848124999997EXTRACT: note_on channel=0 note=69 velocity=80 time=0.012142852083333332EXTRACT: note_on channel=0 note=50 velocity=0 time=0.062142831249999995EXTRACT: note_on channel=0 note=54 velocity=0 time=0EXTRACT: note_on channel=0 note=57 velocity=0 time=0EXTRACT: note_on channel=0 note=50 velocity=80 time=0.052142835416666665EXTRACT: note_on channel=0 note=54 velocity=80 time=0EXTRACT: note_on channel=0 note=57 velocity=80 time=0EXTRACT: note_on channel=0 note=69 velocity=0 time=0.10214281458333332EXTRACT: note_on channel=0 note=69 velocity=80 time=0.012142852083333332EXTRACT: note_on channel=0 note=69 velocity=0 time=0.21642848124999997EXTRACT: note_on channel=0 note=73 velocity=80 time=0.012142852083333332EXTRACT: note_on channel=0 note=73 velocity=0 time=0.21642848124999997EXTRACT: note_on channel=0 note=73 velocity=80 time=0.012142852083333332EXTRACT: note_on channel=0 note=73 velocity=0 time=0.21642848124999997EXTRACT: note_on channel=0 note=73 velocity=80 time=0.012142852083333332EXTRACT: note_on channel=0 note=73 velocity=0 time=0.21642848124999997EXTRACT: note_on channel=0 note=76 velocity=80 time=0.012142852083333332EXTRACT: note_on channel=0 note=76 velocity=0 time=0.21642848124999997EXTRACT: note_on channel=0 note=73 velocity=80 time=0.012142852083333332EXTRACT: note_on channel=0 note=73 velocity=0 time=0.21642848124999997EXTRACT: note_on channel=0 note=69 velocity=80 time=0.012142852083333332EXTRACT: note_on channel=0 note=50 velocity=0 time=0.14214279791666665EXTRACT: note_on channel=0 note=54 velocity=0 time=0EXTRACT: note_on channel=0 note=57 velocity=0 time=0EXTRACT: note_on channel=0 note=69 velocity=0 time=0.07428568333333332EXTRACT: note_on channel=0 note=73 velocity=80 time=0.012142852083333332EXTRACT: note_on channel=0 note=54 velocity=80 time=0EXTRACT: note_on channel=0 note=57 velocity=80 time=0EXTRACT: note_on channel=0 note=61 velocity=80 time=0EXTRACT: note_on channel=0 note=73 velocity=0 time=0.6507140145833333EXTRACT: note_on channel=0 note=73 velocity=80 time=0.034999985416666664EXTRACT: note_on channel=0 note=73 velocity=0 time=0.1621427895833333EXTRACT: note_on channel=0 note=73 velocity=80 time=0.009285710416666666EXTRACT: note_on channel=0 note=54 velocity=0 time=0.11928566458333333EXTRACT: note_on channel=0 note=57 velocity=0 time=0EXTRACT: note_on channel=0 note=61 velocity=0 time=0EXTRACT: note_on channel=0 note=73 velocity=0 time=0.042857124999999996EXTRACT: note_on channel=0 note=73 velocity=80 time=0.009285710416666666EXTRACT: note_on channel=0 note=54 velocity=80 time=0EXTRACT: note_on channel=0 note=57 velocity=80 time=0EXTRACT: note_on channel=0 note=61 velocity=80 time=0EXTRACT: note_on channel=0 note=73 velocity=0 time=0.3249998645833333EXTRACT: note_on channel=0 note=73 velocity=80 time=0.017857135416666666EXTRACT: note_on channel=0 note=73 velocity=0 time=0.1621427895833333EXTRACT: note_on channel=0 note=73 velocity=80 time=0.009285710416666666EXTRACT: note_on channel=0 note=73 velocity=0 time=0.1621427895833333EXTRACT: note_on channel=0 note=73 velocity=80 time=0.009285710416666666EXTRACT: note_on channel=0 note=73 velocity=0 time=0.3249998645833333EXTRACT: note_on channel=0 note=71 velocity=80 time=0.017857135416666666EXTRACT: note_on channel=0 note=71 velocity=0 time=0.4878569395833333EXTRACT: note_on channel=0 note=69 velocity=80 time=0.026428560416666663EXTRACT: note_on channel=0 note=54 velocity=0 time=0.08499996458333332EXTRACT: note_on channel=0 note=57 velocity=0 time=0EXTRACT: note_on channel=0 note=61 velocity=0 time=0EXTRACT: note_on channel=0 note=69 velocity=0 time=0.077142825EXTRACT: note_on channel=0 note=73 velocity=80 time=0.009285710416666666EXTRACT: note_on channel=0 note=52 velocity=80 time=0EXTRACT: note_on channel=0 note=56 velocity=80 time=0EXTRACT: note_on channel=0 note=59 velocity=80 time=0EXTRACT: note_on channel=0 note=73 velocity=0 time=0.1621427895833333EXTRACT: note_on channel=0 note=73 velocity=80 time=0.009285710416666666EXTRACT: note_on channel=0 note=73 velocity=0 time=0.1621427895833333EXTRACT: note_on channel=0 note=73 velocity=80 time=0.009285710416666666EXTRACT: note_on channel=0 note=73 velocity=0 time=0.1621427895833333EXTRACT: note_on channel=0 note=73 velocity=80 time=0.009285710416666666EXTRACT: note_on channel=0 note=73 velocity=0 time=0.1621427895833333EXTRACT: note_on channel=0 note=71 velocity=80 time=0.009285710416666666EXTRACT: note_on channel=0 note=52 velocity=0 time=0.2907141645833333EXTRACT: note_on channel=0 note=56 velocity=0 time=0EXTRACT: note_on channel=0 note=59 velocity=0 time=0EXTRACT: note_on channel=0 note=71 velocity=0 time=0.034285699999999995EXTRACT: note_on channel=0 note=69 velocity=80 time=0.017857135416666666EXTRACT: note_on channel=0 note=52 velocity=80 time=0EXTRACT: note_on channel=0 note=56 velocity=80 time=0EXTRACT: note_on channel=0 note=59 velocity=80 time=0EXTRACT: note_on channel=0 note=69 velocity=0 time=0.1621427895833333EXTRACT: note_on channel=0 note=69 velocity=80 time=0.009285710416666666EXTRACT: note_on channel=0 note=69 velocity=0 time=0.1621427895833333EXTRACT: note_on channel=0 note=73 velocity=80 time=0.009285710416666666EXTRACT: note_on channel=0 note=73 velocity=0 time=0.3249998645833333EXTRACT: note_on channel=0 note=73 velocity=80 time=0.017857135416666666EXTRACT: note_on channel=0 note=73 velocity=0 time=0.3249998645833333EXTRACT: note_on channel=0 note=71 velocity=80 time=0.017857135416666666EXTRACT: note_on channel=0 note=52 velocity=0 time=0.5992854645833333EXTRACT: note_on channel=0 note=56 velocity=0 time=0EXTRACT: note_on channel=0 note=59 velocity=0 time=0EXTRACT: note_on channel=0 note=71 velocity=0 time=0.051428549999999996EXTRACT: note_on channel=0 note=73 velocity=80 time=0.034999985416666664EXTRACT: note_on channel=0 note=49 velocity=80 time=0EXTRACT: note_on channel=0 note=52 velocity=80 time=0EXTRACT: note_on channel=0 note=56 velocity=80 time=0EXTRACT: note_on channel=0 note=73 velocity=0 time=0.1621427895833333EXTRACT: note_on channel=0 note=73 velocity=80 time=0.009285710416666666EXTRACT: note_on channel=0 note=73 velocity=0 time=0.1621427895833333EXTRACT: note_on channel=0 note=73 velocity=80 time=0.009285710416666666EXTRACT: note_on channel=0 note=73 velocity=0 time=0.1621427895833333EXTRACT: note_on channel=0 note=73 velocity=80 time=0.009285710416666666EXTRACT: note_on channel=0 note=73 velocity=0 time=0.1621427895833333EXTRACT: note_on channel=0 note=71 velocity=80 time=0.009285710416666666EXTRACT: note_on channel=0 note=49 velocity=0 time=0.2907141645833333EXTRACT: note_on channel=0 note=52 velocity=0 time=0EXTRACT: note_on channel=0 note=56 velocity=0 time=0EXTRACT: note_on channel=0 note=71 velocity=0 time=0.034285699999999995EXTRACT: note_on channel=0 note=69 velocity=80 time=0.017857135416666666EXTRACT: note_on channel=0 note=49 velocity=80 time=0EXTRACT: note_on channel=0 note=52 velocity=80 time=0EXTRACT: note_on channel=0 note=56 velocity=80 time=0EXTRACT: note_on channel=0 note=69 velocity=0 time=0.3249998645833333EXTRACT: note_on channel=0 note=73 velocity=80 time=0.017857135416666666EXTRACT: note_on channel=0 note=73 velocity=0 time=0.3249998645833333EXTRACT: note_on channel=0 note=73 velocity=80 time=0.017857135416666666EXTRACT: note_on channel=0 note=73 velocity=0 time=0.3249998645833333EXTRACT: note_on channel=0 note=71 velocity=80 time=0.017857135416666666EXTRACT: note_on channel=0 note=71 velocity=0 time=0.4878569395833333EXTRACT: note_on channel=0 note=69 velocity=80 time=0.026428560416666663EXTRACT: note_on channel=0 note=49 velocity=0 time=0.08499996458333332EXTRACT: note_on channel=0 note=52 velocity=0 time=0EXTRACT: note_on channel=0 note=56 velocity=0 time=0EXTRACT: note_on channel=0 note=69 velocity=0 time=0.077142825EXTRACT: note_on channel=0 note=73 velocity=80 time=0.009285710416666666EXTRACT: note_on channel=0 note=50 velocity=80 time=0EXTRACT: note_on channel=0 note=54 velocity=80 time=0EXTRACT: note_on channel=0 note=57 velocity=80 time=0EXTRACT: note_on channel=0 note=73 velocity=0 time=0.21642848124999997EXTRACT: note_on channel=0 note=76 velocity=80 time=0.012142852083333332EXTRACT: note_on channel=0 note=76 velocity=0 time=0.21642848124999997EXTRACT: note_on channel=0 note=73 velocity=80 time=0.012142852083333332EXTRACT: note_on channel=0 note=73 velocity=0 time=0.21642848124999997EXTRACT: note_on channel=0 note=71 velocity=80 time=0.012142852083333332EXTRACT: note_on channel=0 note=71 velocity=0 time=0.3249998645833333EXTRACT: note_on channel=0 note=69 velocity=80 time=0.017857135416666666EXTRACT: note_on channel=0 note=69 velocity=0 time=0.1621427895833333EXTRACT: note_on channel=0 note=69 velocity=80 time=0.009285710416666666EXTRACT: note_on channel=0 note=69 velocity=0 time=0.1621427895833333EXTRACT: note_on channel=0 note=71 velocity=80 time=0.009285710416666666EXTRACT: note_on channel=0 note=71 velocity=0 time=0.1621427895833333EXTRACT: note_on channel=0 note=71 velocity=80 time=0.009285710416666666EXTRACT: note_on channel=0 note=71 velocity=0 time=0.1621427895833333EXTRACT: note_on channel=0 note=71 velocity=80 time=0.009285710416666666EXTRACT: note_on channel=0 note=71 velocity=0 time=0.1621427895833333EXTRACT: note_on channel=0 note=73 velocity=80 time=0.009285710416666666EXTRACT: note_on channel=0 note=73 velocity=0 time=0.1621427895833333EXTRACT: note_on channel=0 note=69 velocity=80 time=0.009285710416666666EXTRACT: note_on channel=0 note=69 velocity=0 time=0.3249998645833333EXTRACT: note_on channel=0 note=76 velocity=80 time=0.017857135416666666EXTRACT: note_on channel=0 note=50 velocity=0 time=0.2049999145833333EXTRACT: note_on channel=0 note=54 velocity=0 time=0EXTRACT: note_on channel=0 note=57 velocity=0 time=0EXTRACT: note_on channel=0 note=76 velocity=0 time=0.11999995EXTRACT: note_on channel=0 note=73 velocity=80 time=0.017857135416666666EXTRACT: note_on channel=0 note=54 velocity=80 time=0EXTRACT: note_on channel=0 note=57 velocity=80 time=0EXTRACT: note_on channel=0 note=61 velocity=80 time=0EXTRACT: note_on channel=0 note=73 velocity=0 time=0.4878569395833333EXTRACT: note_on channel=0 note=71 velocity=80 time=0.026428560416666663EXTRACT: note_on channel=0 note=54 velocity=0 time=0.4621426645833333EXTRACT: note_on channel=0 note=57 velocity=0 time=0EXTRACT: note_on channel=0 note=61 velocity=0 time=0EXTRACT: note_on channel=0 note=71 velocity=0 time=0.025714274999999998EXTRACT: note_on channel=0 note=76 velocity=80 time=0.026428560416666663EXTRACT: note_on channel=0 note=54 velocity=80 time=0EXTRACT: note_on channel=0 note=57 velocity=80 time=0EXTRACT: note_on channel=0 note=61 velocity=80 time=0EXTRACT: note_on channel=0 note=76 velocity=0 time=0.3249998645833333EXTRACT: note_on channel=0 note=73 velocity=80 time=0.017857135416666666EXTRACT: note_on channel=0 note=73 velocity=0 time=0.4878569395833333EXTRACT: note_on channel=0 note=71 velocity=80 time=0.026428560416666663EXTRACT: note_on channel=0 note=54 velocity=0 time=0.11928566458333333EXTRACT: note_on channel=0 note=57 velocity=0 time=0EXTRACT: note_on channel=0 note=61 velocity=0 time=0EXTRACT: note_on channel=0 note=54 velocity=80 time=0.052142835416666665EXTRACT: note_on channel=0 note=57 velocity=80 time=0EXTRACT: note_on channel=0 note=61 velocity=80 time=0EXTRACT: note_on channel=0 note=71 velocity=0 time=0.31642843958333333EXTRACT: note_on channel=0 note=76 velocity=80 time=0.026428560416666663EXTRACT: note_on channel=0 note=54 velocity=0 time=0.3078570145833333EXTRACT: note_on channel=0 note=57 velocity=0 time=0EXTRACT: note_on channel=0 note=61 velocity=0 time=0EXTRACT: note_on channel=0 note=76 velocity=0 time=0.017142849999999998EXTRACT: note_on channel=0 note=73 velocity=80 time=0.017857135416666666EXTRACT: note_on channel=0 note=52 velocity=80 time=0EXTRACT: note_on channel=0 note=56 velocity=80 time=0EXTRACT: note_on channel=0 note=59 velocity=80 time=0EXTRACT: note_on channel=0 note=73 velocity=0 time=0.4878569395833333EXTRACT: note_on channel=0 note=71 velocity=80 time=0.026428560416666663EXTRACT: note_on channel=0 note=52 velocity=0 time=0.4621426645833333EXTRACT: note_on channel=0 note=56 velocity=0 time=0EXTRACT: note_on channel=0 note=59 velocity=0 time=0EXTRACT: note_on channel=0 note=71 velocity=0 time=0.025714274999999998EXTRACT: note_on channel=0 note=76 velocity=80 time=0.026428560416666663EXTRACT: note_on channel=0 note=52 velocity=80 time=0EXTRACT: note_on channel=0 note=56 velocity=80 time=0EXTRACT: note_on channel=0 note=59 velocity=80 time=0EXTRACT: note_on channel=0 note=76 velocity=0 time=0.3249998645833333EXTRACT: note_on channel=0 note=73 velocity=80 time=0.017857135416666666EXTRACT: note_on channel=0 note=73 velocity=0 time=0.4878569395833333EXTRACT: note_on channel=0 note=71 velocity=80 time=0.026428560416666663EXTRACT: note_on channel=0 note=52 velocity=0 time=0.11928566458333333EXTRACT: note_on channel=0 note=56 velocity=0 time=0EXTRACT: note_on channel=0 note=59 velocity=0 time=0EXTRACT: note_on channel=0 note=52 velocity=80 time=0.052142835416666665EXTRACT: note_on channel=0 note=56 velocity=80 time=0EXTRACT: note_on channel=0 note=59 velocity=80 time=0EXTRACT: note_on channel=0 note=71 velocity=0 time=0.31642843958333333EXTRACT: note_on channel=0 note=76 velocity=80 time=0.026428560416666663EXTRACT: note_on channel=0 note=52 velocity=0 time=0.3078570145833333EXTRACT: note_on channel=0 note=56 velocity=0 time=0EXTRACT: note_on channel=0 note=59 velocity=0 time=0EXTRACT: note_on channel=0 note=76 velocity=0 time=0.017142849999999998EXTRACT: note_on channel=0 note=73 velocity=80 time=0.017857135416666666EXTRACT: note_on channel=0 note=49 velocity=80 time=0EXTRACT: note_on channel=0 note=52 velocity=80 time=0EXTRACT: note_on channel=0 note=56 velocity=80 time=0EXTRACT: note_on channel=0 note=73 velocity=0 time=0.4878569395833333EXTRACT: note_on channel=0 note=71 velocity=80 time=0.026428560416666663EXTRACT: note_on channel=0 note=71 velocity=0 time=0.3249998645833333EXTRACT: note_on channel=0 note=69 velocity=80 time=0.017857135416666666EXTRACT: note_on channel=0 note=49 velocity=0 time=0.11928566458333333EXTRACT: note_on channel=0 note=52 velocity=0 time=0EXTRACT: note_on channel=0 note=56 velocity=0 time=0EXTRACT: note_on channel=0 note=69 velocity=0 time=0.042857124999999996EXTRACT: note_on channel=0 note=76 velocity=80 time=0.009285710416666666EXTRACT: note_on channel=0 note=49 velocity=80 time=0EXTRACT: note_on channel=0 note=52 velocity=80 time=0EXTRACT: note_on channel=0 note=56 velocity=80 time=0EXTRACT: note_on channel=0 note=76 velocity=0 time=0.3249998645833333EXTRACT: note_on channel=0 note=73 velocity=80 time=0.017857135416666666EXTRACT: note_on channel=0 note=73 velocity=0 time=0.4878569395833333EXTRACT: note_on channel=0 note=71 velocity=80 time=0.026428560416666663EXTRACT: note_on channel=0 note=49 velocity=0 time=0.11928566458333333EXTRACT: note_on channel=0 note=52 velocity=0 time=0EXTRACT: note_on channel=0 note=56 velocity=0 time=0EXTRACT: note_on channel=0 note=49 velocity=80 time=0.052142835416666665EXTRACT: note_on channel=0 note=52 velocity=80 time=0EXTRACT: note_on channel=0 note=56 velocity=80 time=0EXTRACT: note_on channel=0 note=71 velocity=0 time=0.4792855145833333EXTRACT: note_on channel=0 note=69 velocity=80 time=0.034999985416666664EXTRACT: note_on channel=0 note=49 velocity=0 time=0.13642851458333333EXTRACT: note_on channel=0 note=52 velocity=0 time=0EXTRACT: note_on channel=0 note=56 velocity=0 time=0EXTRACT: note_on channel=0 note=69 velocity=0 time=0.025714274999999998EXTRACT: note_on channel=0 note=71 velocity=80 time=0.009285710416666666EXTRACT: note_on channel=0 note=50 velocity=80 time=0EXTRACT: note_on channel=0 note=54 velocity=80 time=0EXTRACT: note_on channel=0 note=57 velocity=80 time=0EXTRACT: note_on channel=0 note=71 velocity=0 time=0.3249998645833333EXTRACT: note_on channel=0 note=73 velocity=80 time=0.017857135416666666EXTRACT: note_on channel=0 note=73 velocity=0 time=0.1621427895833333EXTRACT: note_on channel=0 note=73 velocity=80 time=0.009285710416666666EXTRACT: note_on channel=0 note=50 velocity=0 time=0.4621426645833333EXTRACT: note_on channel=0 note=54 velocity=0 time=0EXTRACT: note_on channel=0 note=57 velocity=0 time=0EXTRACT: note_on channel=0 note=50 velocity=80 time=0.052142835416666665EXTRACT: note_on channel=0 note=54 velocity=80 time=0EXTRACT: note_on channel=0 note=57 velocity=80 time=0EXTRACT: note_on channel=0 note=73 velocity=0 time=0.13642851458333333EXTRACT: note_on channel=0 note=69 velocity=80 time=0.034999985416666664EXTRACT: note_on channel=0 note=69 velocity=0 time=0.1621427895833333EXTRACT: note_on channel=0 note=71 velocity=80 time=0.009285710416666666EXTRACT: note_on channel=0 note=71 velocity=0 time=0.4878569395833333EXTRACT: note_on channel=0 note=69 velocity=80 time=0.026428560416666663EXTRACT: note_on channel=0 note=50 velocity=0 time=0.11928566458333333EXTRACT: note_on channel=0 note=54 velocity=0 time=0EXTRACT: note_on channel=0 note=57 velocity=0 time=0EXTRACT: note_on channel=0 note=50 velocity=80 time=0.052142835416666665EXTRACT: note_on channel=0 note=54 velocity=80 time=0EXTRACT: note_on channel=0 note=57 velocity=80 time=0EXTRACT: note_on channel=0 note=69 velocity=0 time=0.31642843958333333EXTRACT: note_on channel=0 note=76 velocity=80 time=0.026428560416666663EXTRACT: note_on channel=0 note=50 velocity=0 time=0.3078570145833333EXTRACT: note_on channel=0 note=54 velocity=0 time=0EXTRACT: note_on channel=0 note=57 velocity=0 time=0EXTRACT: note_on channel=0 note=76 velocity=0 time=0.017142849999999998EXTRACT: note_on channel=0 note=73 velocity=80 time=0.017857135416666666EXTRACT: note_on channel=0 note=54 velocity=80 time=0EXTRACT: note_on channel=0 note=57 velocity=80 time=0EXTRACT: note_on channel=0 note=61 velocity=80 time=0EXTRACT: note_on channel=0 note=73 velocity=0 time=0.4878569395833333EXTRACT: note_on channel=0 note=71 velocity=80 time=0.026428560416666663EXTRACT: note_on channel=0 note=54 velocity=0 time=0.4621426645833333EXTRACT: note_on channel=0 note=57 velocity=0 time=0EXTRACT: note_on channel=0 note=61 velocity=0 time=0EXTRACT: note_on channel=0 note=71 velocity=0 time=0.025714274999999998EXTRACT: note_on channel=0 note=76 velocity=80 time=0.026428560416666663EXTRACT: note_on channel=0 note=54 velocity=80 time=0EXTRACT: note_on channel=0 note=57 velocity=80 time=0EXTRACT: note_on channel=0 note=61 velocity=80 time=0EXTRACT: note_on channel=0 note=76 velocity=0 time=0.3249998645833333EXTRACT: note_on channel=0 note=73 velocity=80 time=0.017857135416666666EXTRACT: note_on channel=0 note=73 velocity=0 time=0.4878569395833333EXTRACT: note_on channel=0 note=71 velocity=80 time=0.026428560416666663EXTRACT: note_on channel=0 note=54 velocity=0 time=0.11928566458333333EXTRACT: note_on channel=0 note=57 velocity=0 time=0EXTRACT: note_on channel=0 note=61 velocity=0 time=0EXTRACT: note_on channel=0 note=54 velocity=80 time=0.052142835416666665EXTRACT: note_on channel=0 note=57 velocity=80 time=0EXTRACT: note_on channel=0 note=61 velocity=80 time=0EXTRACT: note_on channel=0 note=71 velocity=0 time=0.31642843958333333EXTRACT: note_on channel=0 note=76 velocity=80 time=0.026428560416666663EXTRACT: note_on channel=0 note=54 velocity=0 time=0.3078570145833333EXTRACT: note_on channel=0 note=57 velocity=0 time=0EXTRACT: note_on channel=0 note=61 velocity=0 time=0EXTRACT: note_on channel=0 note=76 velocity=0 time=0.017142849999999998EXTRACT: note_on channel=0 note=73 velocity=80 time=0.017857135416666666EXTRACT: note_on channel=0 note=52 velocity=80 time=0EXTRACT: note_on channel=0 note=56 velocity=80 time=0EXTRACT: note_on channel=0 note=59 velocity=80 time=0EXTRACT: note_on channel=0 note=73 velocity=0 time=0.4878569395833333EXTRACT: note_on channel=0 note=71 velocity=80 time=0.026428560416666663EXTRACT: note_on channel=0 note=52 velocity=0 time=0.4621426645833333EXTRACT: note_on channel=0 note=56 velocity=0 time=0EXTRACT: note_on channel=0 note=59 velocity=0 time=0EXTRACT: note_on channel=0 note=71 velocity=0 time=0.025714274999999998EXTRACT: note_on channel=0 note=76 velocity=80 time=0.026428560416666663EXTRACT: note_on channel=0 note=52 velocity=80 time=0EXTRACT: note_on channel=0 note=56 velocity=80 time=0EXTRACT: note_on channel=0 note=59 velocity=80 time=0EXTRACT: note_on channel=0 note=76 velocity=0 time=0.3249998645833333EXTRACT: note_on channel=0 note=73 velocity=80 time=0.017857135416666666EXTRACT: note_on channel=0 note=73 velocity=0 time=0.4878569395833333EXTRACT: note_on channel=0 note=71 velocity=80 time=0.026428560416666663EXTRACT: note_on channel=0 note=52 velocity=0 time=0.11928566458333333EXTRACT: note_on channel=0 note=56 velocity=0 time=0EXTRACT: note_on channel=0 note=59 velocity=0 time=0EXTRACT: note_on channel=0 note=52 velocity=80 time=0.052142835416666665EXTRACT: note_on channel=0 note=56 velocity=80 time=0EXTRACT: note_on channel=0 note=59 velocity=80 time=0EXTRACT: note_on channel=0 note=71 velocity=0 time=0.31642843958333333EXTRACT: note_on channel=0 note=76 velocity=80 time=0.026428560416666663EXTRACT: note_on channel=0 note=52 velocity=0 time=0.3078570145833333EXTRACT: note_on channel=0 note=56 velocity=0 time=0EXTRACT: note_on channel=0 note=59 velocity=0 time=0EXTRACT: note_on channel=0 note=76 velocity=0 time=0.017142849999999998EXTRACT: note_on channel=0 note=73 velocity=80 time=0.017857135416666666EXTRACT: note_on channel=0 note=49 velocity=80 time=0EXTRACT: note_on channel=0 note=52 velocity=80 time=0EXTRACT: note_on channel=0 note=56 velocity=80 time=0EXTRACT: note_on channel=0 note=73 velocity=0 time=0.4878569395833333EXTRACT: note_on channel=0 note=71 velocity=80 time=0.026428560416666663EXTRACT: note_on channel=0 note=49 velocity=0 time=0.4621426645833333EXTRACT: note_on channel=0 note=52 velocity=0 time=0EXTRACT: note_on channel=0 note=56 velocity=0 time=0EXTRACT: note_on channel=0 note=71 velocity=0 time=0.025714274999999998EXTRACT: note_on channel=0 note=76 velocity=80 time=0.026428560416666663EXTRACT: note_on channel=0 note=49 velocity=80 time=0EXTRACT: note_on channel=0 note=52 velocity=80 time=0EXTRACT: note_on channel=0 note=56 velocity=80 time=0EXTRACT: note_on channel=0 note=76 velocity=0 time=0.3249998645833333EXTRACT: note_on channel=0 note=73 velocity=80 time=0.017857135416666666EXTRACT: note_on channel=0 note=73 velocity=0 time=0.4878569395833333EXTRACT: note_on channel=0 note=71 velocity=80 time=0.026428560416666663EXTRACT: note_on channel=0 note=49 velocity=0 time=0.11928566458333333EXTRACT: note_on channel=0 note=52 velocity=0 time=0EXTRACT: note_on channel=0 note=56 velocity=0 time=0EXTRACT: note_on channel=0 note=49 velocity=80 time=0.052142835416666665EXTRACT: note_on channel=0 note=52 velocity=80 time=0EXTRACT: note_on channel=0 note=56 velocity=80 time=0EXTRACT: note_on channel=0 note=71 velocity=0 time=0.4792855145833333EXTRACT: note_on channel=0 note=69 velocity=80 time=0.034999985416666664EXTRACT: note_on channel=0 note=49 velocity=0 time=0.13642851458333333EXTRACT: note_on channel=0 note=52 velocity=0 time=0EXTRACT: note_on channel=0 note=56 velocity=0 time=0EXTRACT: note_on channel=0 note=69 velocity=0 time=0.025714274999999998EXTRACT: note_on channel=0 note=71 velocity=80 time=0.009285710416666666EXTRACT: note_on channel=0 note=50 velocity=80 time=0EXTRACT: note_on channel=0 note=54 velocity=80 time=0EXTRACT: note_on channel=0 note=57 velocity=80 time=0EXTRACT: note_on channel=0 note=71 velocity=0 time=0.3249998645833333EXTRACT: note_on channel=0 note=73 velocity=80 time=0.017857135416666666EXTRACT: note_on channel=0 note=73 velocity=0 time=0.1621427895833333EXTRACT: note_on channel=0 note=73 velocity=80 time=0.009285710416666666EXTRACT: note_on channel=0 note=73 velocity=0 time=0.4878569395833333EXTRACT: note_on channel=0 note=69 velocity=80 time=0.026428560416666663EXTRACT: note_on channel=0 note=69 velocity=0 time=0.3249998645833333EXTRACT: note_on channel=0 note=71 velocity=80 time=0.017857135416666666EXTRACT: note_on channel=0 note=71 velocity=0 time=0.4878569395833333EXTRACT: note_on channel=0 note=69 velocity=80 time=0.026428560416666663EXTRACT: note_on channel=0 note=69 velocity=0 time=0.6507140145833333EXTRACT: note_on channel=0 note=50 velocity=0 time=2.6742845999999996EXTRACT: note_on channel=0 note=54 velocity=0 time=0EXTRACT: note_on channel=0 note=57 velocity=0 time=0EXTRACT: note_on channel=0 note=73 velocity=80 time=0.27499988541666665EXTRACT: note_on channel=0 note=54 velocity=80 time=0EXTRACT: note_on channel=0 note=57 velocity=80 time=0EXTRACT: note_on channel=0 note=61 velocity=80 time=0EXTRACT: note_on channel=0 note=73 velocity=0 time=0.3249998645833333EXTRACT: note_on channel=0 note=74 velocity=80 time=0.017857135416666666EXTRACT: note_on channel=0 note=74 velocity=0 time=0.3249998645833333EXTRACT: note_on channel=0 note=73 velocity=80 time=0.017857135416666666EXTRACT: note_on channel=0 note=73 velocity=0 time=0.3249998645833333EXTRACT: note_on channel=0 note=71 velocity=80 time=0.017857135416666666EXTRACT: note_on channel=0 note=71 velocity=0 time=0.9764281645833333EXTRACT: note_on channel=0 note=69 velocity=80 time=0.052142835416666665EXTRACT: note_on channel=0 note=69 velocity=0 time=0.3249998645833333EXTRACT: note_on channel=0 note=71 velocity=80 time=0.017857135416666666EXTRACT: note_on channel=0 note=54 velocity=0 time=0.2049999145833333EXTRACT: note_on channel=0 note=57 velocity=0 time=0EXTRACT: note_on channel=0 note=61 velocity=0 time=0EXTRACT: note_on channel=0 note=71 velocity=0 time=0.11999995EXTRACT: note_on channel=0 note=73 velocity=80 time=0.017857135416666666EXTRACT: note_on channel=0 note=52 velocity=80 time=0EXTRACT: note_on channel=0 note=56 velocity=80 time=0EXTRACT: note_on channel=0 note=59 velocity=80 time=0EXTRACT: note_on channel=0 note=73 velocity=0 time=0.3249998645833333EXTRACT: note_on channel=0 note=74 velocity=80 time=0.017857135416666666EXTRACT: note_on channel=0 note=74 velocity=0 time=0.3249998645833333EXTRACT: note_on channel=0 note=73 velocity=80 time=0.017857135416666666EXTRACT: note_on channel=0 note=73 velocity=0 time=0.3249998645833333EXTRACT: note_on channel=0 note=71 velocity=80 time=0.017857135416666666EXTRACT: note_on channel=0 note=71 velocity=0 time=0.3249998645833333EXTRACT: note_on channel=0 note=71 velocity=80 time=0.017857135416666666EXTRACT: note_on channel=0 note=71 velocity=0 time=0.6507140145833333EXTRACT: note_on channel=0 note=69 velocity=80 time=0.034999985416666664EXTRACT: note_on channel=0 note=69 velocity=0 time=0.3249998645833333EXTRACT: note_on channel=0 note=71 velocity=80 time=0.017857135416666666EXTRACT: note_on channel=0 note=52 velocity=0 time=0.2049999145833333EXTRACT: note_on channel=0 note=56 velocity=0 time=0EXTRACT: note_on channel=0 note=59 velocity=0 time=0EXTRACT: note_on channel=0 note=71 velocity=0 time=0.11999995EXTRACT: note_on channel=0 note=73 velocity=80 time=0.017857135416666666EXTRACT: note_on channel=0 note=49 velocity=80 time=0EXTRACT: note_on channel=0 note=52 velocity=80 time=0EXTRACT: note_on channel=0 note=56 velocity=80 time=0EXTRACT: note_on channel=0 note=73 velocity=0 time=0.3249998645833333EXTRACT: note_on channel=0 note=74 velocity=80 time=0.017857135416666666EXTRACT: note_on channel=0 note=74 velocity=0 time=0.3249998645833333EXTRACT: note_on channel=0 note=73 velocity=80 time=0.017857135416666666EXTRACT: note_on channel=0 note=73 velocity=0 time=0.3249998645833333EXTRACT: note_on channel=0 note=71 velocity=80 time=0.017857135416666666EXTRACT: note_on channel=0 note=71 velocity=0 time=0.3249998645833333EXTRACT: note_on channel=0 note=71 velocity=80 time=0.017857135416666666EXTRACT: note_on channel=0 note=71 velocity=0 time=0.6507140145833333EXTRACT: note_on channel=0 note=69 velocity=80 time=0.034999985416666664EXTRACT: note_on channel=0 note=69 velocity=0 time=0.3249998645833333EXTRACT: note_on channel=0 note=71 velocity=80 time=0.017857135416666666EXTRACT: note_on channel=0 note=49 velocity=0 time=0.2049999145833333EXTRACT: note_on channel=0 note=52 velocity=0 time=0EXTRACT: note_on channel=0 note=56 velocity=0 time=0EXTRACT: note_on channel=0 note=71 velocity=0 time=0.11999995EXTRACT: note_on channel=0 note=73 velocity=80 time=0.017857135416666666EXTRACT: note_on channel=0 note=50 velocity=80 time=0EXTRACT: note_on channel=0 note=54 velocity=80 time=0EXTRACT: note_on channel=0 note=57 velocity=80 time=0EXTRACT: note_on channel=0 note=73 velocity=0 time=0.3249998645833333EXTRACT: note_on channel=0 note=74 velocity=80 time=0.017857135416666666EXTRACT: note_on channel=0 note=74 velocity=0 time=0.3249998645833333EXTRACT: note_on channel=0 note=73 velocity=80 time=0.017857135416666666EXTRACT: note_on channel=0 note=73 velocity=0 time=0.3249998645833333EXTRACT: note_on channel=0 note=71 velocity=80 time=0.017857135416666666EXTRACT: note_on channel=0 note=71 velocity=0 time=0.3249998645833333EXTRACT: note_on channel=0 note=71 velocity=80 time=0.017857135416666666EXTRACT: note_on channel=0 note=50 velocity=0 time=1.2335709145833331EXTRACT: note_on channel=0 note=54 velocity=0 time=0EXTRACT: note_on channel=0 note=57 velocity=0 time=0EXTRACT: note_on channel=0 note=71 velocity=0 time=0.06857139999999999EXTRACT: note_on channel=0 note=54 velocity=80 time=0.06928568541666666EXTRACT: note_on channel=0 note=57 velocity=80 time=0EXTRACT: note_on channel=0 note=61 velocity=80 time=0EXTRACT: note_on channel=0 note=71 velocity=80 time=0.17142849999999998EXTRACT: note_on channel=0 note=71 velocity=0 time=0.1621427895833333EXTRACT: note_on channel=0 note=73 velocity=80 time=0.009285710416666666EXTRACT: note_on channel=0 note=73 velocity=0 time=0.1621427895833333EXTRACT: note_on channel=0 note=71 velocity=80 time=0.009285710416666666EXTRACT: note_on channel=0 note=71 velocity=0 time=0.1621427895833333EXTRACT: note_on channel=0 note=73 velocity=80 time=0.009285710416666666EXTRACT: note_on channel=0 note=73 velocity=0 time=0.1621427895833333EXTRACT: note_on channel=0 note=71 velocity=80 time=0.009285710416666666EXTRACT: note_on channel=0 note=71 velocity=0 time=0.1621427895833333EXTRACT: note_on channel=0 note=73 velocity=80 time=0.009285710416666666EXTRACT: note_on channel=0 note=73 velocity=0 time=0.1621427895833333EXTRACT: note_on channel=0 note=71 velocity=80 time=0.009285710416666666EXTRACT: note_on channel=0 note=71 velocity=0 time=0.1621427895833333EXTRACT: note_on channel=0 note=73 velocity=80 time=0.009285710416666666EXTRACT: note_on channel=0 note=73 velocity=0 time=0.1621427895833333EXTRACT: note_on channel=0 note=71 velocity=80 time=0.009285710416666666EXTRACT: note_on channel=0 note=71 velocity=0 time=0.1621427895833333EXTRACT: note_on channel=0 note=73 velocity=80 time=0.009285710416666666EXTRACT: note_on channel=0 note=73 velocity=0 time=0.1621427895833333EXTRACT: note_on channel=0 note=71 velocity=80 time=0.009285710416666666EXTRACT: note_on channel=0 note=71 velocity=0 time=0.6507140145833333EXTRACT: note_on channel=0 note=54 velocity=0 time=0.06857139999999999EXTRACT: note_on channel=0 note=57 velocity=0 time=0EXTRACT: note_on channel=0 note=61 velocity=0 time=0EXTRACT: note_on channel=0 note=52 velocity=80 time=0.13785708541666666EXTRACT: note_on channel=0 note=56 velocity=80 time=0EXTRACT: note_on channel=0 note=59 velocity=80 time=0EXTRACT: note_on channel=0 note=71 velocity=80 time=0.17142849999999998EXTRACT: note_on channel=0 note=71 velocity=0 time=0.1621427895833333EXTRACT: note_on channel=0 note=73 velocity=80 time=0.009285710416666666EXTRACT: note_on channel=0 note=73 velocity=0 time=0.1621427895833333EXTRACT: note_on channel=0 note=71 velocity=80 time=0.009285710416666666EXTRACT: note_on channel=0 note=71 velocity=0 time=0.1621427895833333EXTRACT: note_on channel=0 note=73 velocity=80 time=0.009285710416666666EXTRACT: note_on channel=0 note=73 velocity=0 time=0.1621427895833333EXTRACT: note_on channel=0 note=71 velocity=80 time=0.009285710416666666EXTRACT: note_on channel=0 note=71 velocity=0 time=0.1621427895833333EXTRACT: note_on channel=0 note=73 velocity=80 time=0.009285710416666666EXTRACT: note_on channel=0 note=73 velocity=0 time=0.1621427895833333EXTRACT: note_on channel=0 note=71 velocity=80 time=0.009285710416666666EXTRACT: note_on channel=0 note=71 velocity=0 time=0.1621427895833333EXTRACT: note_on channel=0 note=73 velocity=80 time=0.009285710416666666EXTRACT: note_on channel=0 note=73 velocity=0 time=0.1621427895833333EXTRACT: note_on channel=0 note=71 velocity=80 time=0.009285710416666666EXTRACT: note_on channel=0 note=71 velocity=0 time=0.1621427895833333EXTRACT: note_on channel=0 note=73 velocity=80 time=0.009285710416666666EXTRACT: note_on channel=0 note=73 velocity=0 time=0.1621427895833333EXTRACT: note_on channel=0 note=71 velocity=80 time=0.009285710416666666EXTRACT: note_on channel=0 note=71 velocity=0 time=0.6507140145833333EXTRACT: note_on channel=0 note=52 velocity=0 time=0.06857139999999999EXTRACT: note_on channel=0 note=56 velocity=0 time=0EXTRACT: note_on channel=0 note=59 velocity=0 time=0EXTRACT: note_on channel=0 note=49 velocity=80 time=0.13785708541666666EXTRACT: note_on channel=0 note=52 velocity=80 time=0EXTRACT: note_on channel=0 note=56 velocity=80 time=0EXTRACT: note_on channel=0 note=76 velocity=80 time=0.34285699999999997EXTRACT: note_on channel=0 note=76 velocity=0 time=0.3249998645833333EXTRACT: note_on channel=0 note=73 velocity=80 time=0.017857135416666666EXTRACT: note_on channel=0 note=73 velocity=0 time=0.1621427895833333EXTRACT: note_on channel=0 note=73 velocity=80 time=0.009285710416666666EXTRACT: note_on channel=0 note=73 velocity=0 time=0.1621427895833333EXTRACT: note_on channel=0 note=73 velocity=80 time=0.009285710416666666EXTRACT: note_on channel=0 note=73 velocity=0 time=0.3249998645833333EXTRACT: note_on channel=0 note=71 velocity=80 time=0.017857135416666666EXTRACT: note_on channel=0 note=71 velocity=0 time=0.1621427895833333EXTRACT: note_on channel=0 note=71 velocity=80 time=0.009285710416666666EXTRACT: note_on channel=0 note=71 velocity=0 time=0.1621427895833333EXTRACT: note_on channel=0 note=71 velocity=80 time=0.009285710416666666EXTRACT: note_on channel=0 note=71 velocity=0 time=0.1621427895833333EXTRACT: note_on channel=0 note=73 velocity=80 time=0.009285710416666666EXTRACT: note_on channel=0 note=73 velocity=0 time=0.1621427895833333EXTRACT: note_on channel=0 note=71 velocity=80 time=0.009285710416666666EXTRACT: note_on channel=0 note=71 velocity=0 time=0.1621427895833333EXTRACT: note_on channel=0 note=69 velocity=80 time=0.009285710416666666EXTRACT: note_on channel=0 note=69 velocity=0 time=0.1621427895833333EXTRACT: note_on channel=0 note=69 velocity=80 time=0.009285710416666666EXTRACT: note_on channel=0 note=49 velocity=0 time=0.2049999145833333EXTRACT: note_on channel=0 note=52 velocity=0 time=0EXTRACT: note_on channel=0 note=56 velocity=0 time=0EXTRACT: note_on channel=0 note=69 velocity=0 time=0.11999995EXTRACT: note_on channel=0 note=50 velocity=80 time=0.017857135416666666EXTRACT: note_on channel=0 note=54 velocity=80 time=0EXTRACT: note_on channel=0 note=57 velocity=80 time=0EXTRACT: note_on channel=0 note=69 velocity=80 time=0.17142849999999998EXTRACT: note_on channel=0 note=69 velocity=0 time=0.1621427895833333EXTRACT: note_on channel=0 note=71 velocity=80 time=0.009285710416666666EXTRACT: note_on channel=0 note=71 velocity=0 time=0.1621427895833333EXTRACT: note_on channel=0 note=73 velocity=80 time=0.009285710416666666EXTRACT: note_on channel=0 note=73 velocity=0 time=0.1621427895833333EXTRACT: note_on channel=0 note=71 velocity=80 time=0.009285710416666666EXTRACT: note_on channel=0 note=71 velocity=0 time=0.1621427895833333EXTRACT: note_on channel=0 note=71 velocity=80 time=0.009285710416666666EXTRACT: note_on channel=0 note=71 velocity=0 time=0.1621427895833333EXTRACT: note_on channel=0 note=71 velocity=80 time=0.009285710416666666EXTRACT: note_on channel=0 note=71 velocity=0 time=0.1621427895833333EXTRACT: note_on channel=0 note=69 velocity=80 time=0.009285710416666666EXTRACT: note_on channel=0 note=69 velocity=0 time=0.1621427895833333EXTRACT: note_on channel=0 note=71 velocity=80 time=0.009285710416666666EXTRACT: note_on channel=0 note=71 velocity=0 time=0.1621427895833333EXTRACT: note_on channel=0 note=71 velocity=80 time=0.009285710416666666EXTRACT: note_on channel=0 note=71 velocity=0 time=0.1621427895833333EXTRACT: note_on channel=0 note=71 velocity=80 time=0.009285710416666666EXTRACT: note_on channel=0 note=71 velocity=0 time=0.1621427895833333EXTRACT: note_on channel=0 note=73 velocity=80 time=0.009285710416666666EXTRACT: note_on channel=0 note=73 velocity=0 time=0.1621427895833333EXTRACT: note_on channel=0 note=71 velocity=80 time=0.009285710416666666EXTRACT: note_on channel=0 note=71 velocity=0 time=0.1621427895833333EXTRACT: note_on channel=0 note=73 velocity=80 time=0.009285710416666666EXTRACT: note_on channel=0 note=73 velocity=0 time=0.1621427895833333EXTRACT: note_on channel=0 note=68 velocity=80 time=0.009285710416666666EXTRACT: note_on channel=0 note=50 velocity=0 time=0.2049999145833333EXTRACT: note_on channel=0 note=54 velocity=0 time=0EXTRACT: note_on channel=0 note=57 velocity=0 time=0EXTRACT: note_on channel=0 note=68 velocity=0 time=0.11999995EXTRACT: note_on channel=0 note=71 velocity=80 time=0.017857135416666666EXTRACT: note_on channel=0 note=54 velocity=80 time=0EXTRACT: note_on channel=0 note=57 velocity=80 time=0EXTRACT: note_on channel=0 note=61 velocity=80 time=0EXTRACT: note_on channel=0 note=71 velocity=0 time=0.1621427895833333EXTRACT: note_on channel=0 note=73 velocity=80 time=0.009285710416666666EXTRACT: note_on channel=0 note=73 velocity=0 time=0.1621427895833333EXTRACT: note_on channel=0 note=73 velocity=80 time=0.009285710416666666EXTRACT: note_on channel=0 note=73 velocity=0 time=0.1621427895833333EXTRACT: note_on channel=0 note=73 velocity=80 time=0.009285710416666666EXTRACT: note_on channel=0 note=73 velocity=0 time=0.1621427895833333EXTRACT: note_on channel=0 note=73 velocity=80 time=0.009285710416666666EXTRACT: note_on channel=0 note=73 velocity=0 time=0.1621427895833333EXTRACT: note_on channel=0 note=73 velocity=80 time=0.009285710416666666EXTRACT: note_on channel=0 note=54 velocity=0 time=0.11928566458333333EXTRACT: note_on channel=0 note=57 velocity=0 time=0EXTRACT: note_on channel=0 note=61 velocity=0 time=0EXTRACT: note_on channel=0 note=73 velocity=0 time=0.042857124999999996EXTRACT: note_on channel=0 note=73 velocity=80 time=0.009285710416666666EXTRACT: note_on channel=0 note=54 velocity=80 time=0EXTRACT: note_on channel=0 note=57 velocity=80 time=0EXTRACT: note_on channel=0 note=61 velocity=80 time=0EXTRACT: note_on channel=0 note=73 velocity=0 time=0.1621427895833333EXTRACT: note_on channel=0 note=73 velocity=80 time=0.009285710416666666EXTRACT: note_on channel=0 note=73 velocity=0 time=0.1621427895833333EXTRACT: note_on channel=0 note=73 velocity=80 time=0.009285710416666666EXTRACT: note_on channel=0 note=73 velocity=0 time=0.1621427895833333EXTRACT: note_on channel=0 note=73 velocity=80 time=0.009285710416666666EXTRACT: note_on channel=0 note=73 velocity=0 time=0.1621427895833333EXTRACT: note_on channel=0 note=73 velocity=80 time=0.009285710416666666EXTRACT: note_on channel=0 note=73 velocity=0 time=0.1621427895833333EXTRACT: note_on channel=0 note=76 velocity=80 time=0.009285710416666666EXTRACT: note_on channel=0 note=76 velocity=0 time=0.1621427895833333EXTRACT: note_on channel=0 note=73 velocity=80 time=0.009285710416666666EXTRACT: note_on channel=0 note=73 velocity=0 time=0.1621427895833333EXTRACT: note_on channel=0 note=73 velocity=80 time=0.009285710416666666EXTRACT: note_on channel=0 note=73 velocity=0 time=0.1621427895833333EXTRACT: note_on channel=0 note=73 velocity=80 time=0.009285710416666666EXTRACT: note_on channel=0 note=73 velocity=0 time=0.1621427895833333EXTRACT: note_on channel=0 note=69 velocity=80 time=0.009285710416666666EXTRACT: note_on channel=0 note=54 velocity=0 time=0.08499996458333332EXTRACT: note_on channel=0 note=57 velocity=0 time=0EXTRACT: note_on channel=0 note=61 velocity=0 time=0EXTRACT: note_on channel=0 note=69 velocity=0 time=0.077142825EXTRACT: note_on channel=0 note=71 velocity=80 time=0.009285710416666666EXTRACT: note_on channel=0 note=52 velocity=80 time=0EXTRACT: note_on channel=0 note=56 velocity=80 time=0EXTRACT: note_on channel=0 note=59 velocity=80 time=0EXTRACT: note_on channel=0 note=71 velocity=0 time=0.1621427895833333EXTRACT: note_on channel=0 note=73 velocity=80 time=0.009285710416666666EXTRACT: note_on channel=0 note=73 velocity=0 time=0.1621427895833333EXTRACT: note_on channel=0 note=73 velocity=80 time=0.009285710416666666EXTRACT: note_on channel=0 note=73 velocity=0 time=0.1621427895833333EXTRACT: note_on channel=0 note=73 velocity=80 time=0.009285710416666666EXTRACT: note_on channel=0 note=73 velocity=0 time=0.1621427895833333EXTRACT: note_on channel=0 note=73 velocity=80 time=0.009285710416666666EXTRACT: note_on channel=0 note=73 velocity=0 time=0.1621427895833333EXTRACT: note_on channel=0 note=73 velocity=80 time=0.009285710416666666EXTRACT: note_on channel=0 note=52 velocity=0 time=0.11928566458333333EXTRACT: note_on channel=0 note=56 velocity=0 time=0EXTRACT: note_on channel=0 note=59 velocity=0 time=0EXTRACT: note_on channel=0 note=73 velocity=0 time=0.042857124999999996EXTRACT: note_on channel=0 note=73 velocity=80 time=0.009285710416666666EXTRACT: note_on channel=0 note=52 velocity=80 time=0EXTRACT: note_on channel=0 note=56 velocity=80 time=0EXTRACT: note_on channel=0 note=59 velocity=80 time=0EXTRACT: note_on channel=0 note=73 velocity=0 time=0.1621427895833333EXTRACT: note_on channel=0 note=73 velocity=80 time=0.009285710416666666EXTRACT: note_on channel=0 note=73 velocity=0 time=0.1621427895833333EXTRACT: note_on channel=0 note=73 velocity=80 time=0.009285710416666666EXTRACT: note_on channel=0 note=73 velocity=0 time=0.1621427895833333EXTRACT: note_on channel=0 note=73 velocity=80 time=0.009285710416666666EXTRACT: note_on channel=0 note=73 velocity=0 time=0.1621427895833333EXTRACT: note_on channel=0 note=73 velocity=80 time=0.009285710416666666EXTRACT: note_on channel=0 note=73 velocity=0 time=0.1621427895833333EXTRACT: note_on channel=0 note=76 velocity=80 time=0.009285710416666666EXTRACT: note_on channel=0 note=76 velocity=0 time=0.1621427895833333EXTRACT: note_on channel=0 note=73 velocity=80 time=0.009285710416666666EXTRACT: note_on channel=0 note=73 velocity=0 time=0.1621427895833333EXTRACT: note_on channel=0 note=73 velocity=80 time=0.009285710416666666EXTRACT: note_on channel=0 note=73 velocity=0 time=0.1621427895833333EXTRACT: note_on channel=0 note=73 velocity=80 time=0.009285710416666666EXTRACT: note_on channel=0 note=73 velocity=0 time=0.1621427895833333EXTRACT: note_on channel=0 note=69 velocity=80 time=0.009285710416666666EXTRACT: note_on channel=0 note=52 velocity=0 time=0.08499996458333332EXTRACT: note_on channel=0 note=56 velocity=0 time=0EXTRACT: note_on channel=0 note=59 velocity=0 time=0EXTRACT: note_on channel=0 note=69 velocity=0 time=0.077142825EXTRACT: note_on channel=0 note=71 velocity=80 time=0.009285710416666666EXTRACT: note_on channel=0 note=49 velocity=80 time=0EXTRACT: note_on channel=0 note=52 velocity=80 time=0EXTRACT: note_on channel=0 note=56 velocity=80 time=0EXTRACT: note_on channel=0 note=71 velocity=0 time=0.1621427895833333EXTRACT: note_on channel=0 note=73 velocity=80 time=0.009285710416666666EXTRACT: note_on channel=0 note=73 velocity=0 time=0.1621427895833333EXTRACT: note_on channel=0 note=73 velocity=80 time=0.009285710416666666EXTRACT: note_on channel=0 note=73 velocity=0 time=0.1621427895833333EXTRACT: note_on channel=0 note=73 velocity=80 time=0.009285710416666666EXTRACT: note_on channel=0 note=73 velocity=0 time=0.1621427895833333EXTRACT: note_on channel=0 note=73 velocity=80 time=0.009285710416666666EXTRACT: note_on channel=0 note=73 velocity=0 time=0.1621427895833333EXTRACT: note_on channel=0 note=73 velocity=80 time=0.009285710416666666EXTRACT: note_on channel=0 note=49 velocity=0 time=0.11928566458333333EXTRACT: note_on channel=0 note=52 velocity=0 time=0EXTRACT: note_on channel=0 note=56 velocity=0 time=0EXTRACT: note_on channel=0 note=73 velocity=0 time=0.042857124999999996EXTRACT: note_on channel=0 note=73 velocity=80 time=0.009285710416666666EXTRACT: note_on channel=0 note=49 velocity=80 time=0EXTRACT: note_on channel=0 note=52 velocity=80 time=0EXTRACT: note_on channel=0 note=56 velocity=80 time=0EXTRACT: note_on channel=0 note=73 velocity=0 time=0.1621427895833333EXTRACT: note_on channel=0 note=73 velocity=80 time=0.009285710416666666EXTRACT: note_on channel=0 note=73 velocity=0 time=0.1621427895833333EXTRACT: note_on channel=0 note=73 velocity=80 time=0.009285710416666666EXTRACT: note_on channel=0 note=73 velocity=0 time=0.1621427895833333EXTRACT: note_on channel=0 note=73 velocity=80 time=0.009285710416666666EXTRACT: note_on channel=0 note=73 velocity=0 time=0.1621427895833333EXTRACT: note_on channel=0 note=73 velocity=80 time=0.009285710416666666EXTRACT: note_on channel=0 note=73 velocity=0 time=0.1621427895833333EXTRACT: note_on channel=0 note=76 velocity=80 time=0.009285710416666666EXTRACT: note_on channel=0 note=76 velocity=0 time=0.1621427895833333EXTRACT: note_on channel=0 note=73 velocity=80 time=0.009285710416666666EXTRACT: note_on channel=0 note=73 velocity=0 time=0.1621427895833333EXTRACT: note_on channel=0 note=71 velocity=80 time=0.009285710416666666EXTRACT: note_on channel=0 note=71 velocity=0 time=0.24357132708333332EXTRACT: note_on channel=0 note=69 velocity=80 time=0.013571422916666666EXTRACT: note_on channel=0 note=49 velocity=0 time=0.17071421458333333EXTRACT: note_on channel=0 note=52 velocity=0 time=0EXTRACT: note_on channel=0 note=56 velocity=0 time=0EXTRACT: note_on channel=0 note=69 velocity=0 time=0.07285711249999999EXTRACT: note_on channel=0 note=71 velocity=80 time=0.013571422916666666EXTRACT: note_on channel=0 note=50 velocity=80 time=0EXTRACT: note_on channel=0 note=54 velocity=80 time=0EXTRACT: note_on channel=0 note=57 velocity=80 time=0EXTRACT: note_on channel=0 note=71 velocity=0 time=0.21642848124999997EXTRACT: note_on channel=0 note=71 velocity=80 time=0.012142852083333332EXTRACT: note_on channel=0 note=71 velocity=0 time=0.21642848124999997EXTRACT: note_on channel=0 note=73 velocity=80 time=0.012142852083333332EXTRACT: note_on channel=0 note=73 velocity=0 time=0.21642848124999997EXTRACT: note_on channel=0 note=71 velocity=80 time=0.012142852083333332EXTRACT: note_on channel=0 note=71 velocity=0 time=0.21642848124999997EXTRACT: note_on channel=0 note=69 velocity=80 time=0.012142852083333332EXTRACT: note_on channel=0 note=50 velocity=0 time=0.062142831249999995EXTRACT: note_on channel=0 note=54 velocity=0 time=0EXTRACT: note_on channel=0 note=57 velocity=0 time=0EXTRACT: note_on channel=0 note=50 velocity=80 time=0.052142835416666665EXTRACT: note_on channel=0 note=54 velocity=80 time=0EXTRACT: note_on channel=0 note=57 velocity=80 time=0EXTRACT: note_on channel=0 note=69 velocity=0 time=0.10214281458333332EXTRACT: note_on channel=0 note=69 velocity=80 time=0.012142852083333332EXTRACT: note_on channel=0 note=69 velocity=0 time=0.21642848124999997EXTRACT: note_on channel=0 note=71 velocity=80 time=0.012142852083333332EXTRACT: note_on channel=0 note=71 velocity=0 time=0.21642848124999997EXTRACT: note_on channel=0 note=71 velocity=80 time=0.012142852083333332EXTRACT: note_on channel=0 note=71 velocity=0 time=0.21642848124999997EXTRACT: note_on channel=0 note=73 velocity=80 time=0.012142852083333332EXTRACT: note_on channel=0 note=73 velocity=0 time=0.21642848124999997EXTRACT: note_on channel=0 note=71 velocity=80 time=0.012142852083333332EXTRACT: note_on channel=0 note=71 velocity=0 time=0.21642848124999997EXTRACT: note_on channel=0 note=69 velocity=80 time=0.012142852083333332EXTRACT: note_on channel=0 note=69 velocity=0 time=0.21642848124999997EXTRACT: note_on channel=0 note=69 velocity=80 time=0.012142852083333332EXTRACT: note_on channel=0 note=50 velocity=0 time=0.14214279791666665EXTRACT: note_on channel=0 note=54 velocity=0 time=0EXTRACT: note_on channel=0 note=57 velocity=0 time=0EXTRACT: note_on channel=0 note=69 velocity=0 time=0.07428568333333332EXTRACT: note_on channel=0 note=73 velocity=80 time=0.012142852083333332EXTRACT: note_on channel=0 note=54 velocity=80 time=0EXTRACT: note_on channel=0 note=57 velocity=80 time=0EXTRACT: note_on channel=0 note=61 velocity=80 time=0EXTRACT: note_on channel=0 note=73 velocity=0 time=0.3249998645833333EXTRACT: note_on channel=0 note=73 velocity=80 time=0.017857135416666666EXTRACT: note_on channel=0 note=73 velocity=0 time=0.1621427895833333EXTRACT: note_on channel=0 note=73 velocity=80 time=0.009285710416666666EXTRACT: note_on channel=0 note=73 velocity=0 time=0.3249998645833333EXTRACT: note_on channel=0 note=69 velocity=80 time=0.017857135416666666EXTRACT: note_on channel=0 note=54 velocity=0 time=0.11928566458333333EXTRACT: note_on channel=0 note=57 velocity=0 time=0EXTRACT: note_on channel=0 note=61 velocity=0 time=0EXTRACT: note_on channel=0 note=69 velocity=0 time=0.042857124999999996EXTRACT: note_on channel=0 note=69 velocity=80 time=0.009285710416666666EXTRACT: note_on channel=0 note=54 velocity=80 time=0EXTRACT: note_on channel=0 note=57 velocity=80 time=0EXTRACT: note_on channel=0 note=61 velocity=80 time=0EXTRACT: note_on channel=0 note=69 velocity=0 time=0.9764281645833333EXTRACT: note_on channel=0 note=69 velocity=80 time=0.28071416875EXTRACT: note_on channel=0 note=69 velocity=0 time=0.21642848124999997EXTRACT: note_on channel=0 note=69 velocity=80 time=0.012142852083333332EXTRACT: note_on channel=0 note=54 velocity=0 time=0.14214279791666665EXTRACT: note_on channel=0 note=57 velocity=0 time=0EXTRACT: note_on channel=0 note=61 velocity=0 time=0EXTRACT: note_on channel=0 note=69 velocity=0 time=0.07428568333333332EXTRACT: note_on channel=0 note=73 velocity=80 time=0.012142852083333332EXTRACT: note_on channel=0 note=52 velocity=80 time=0EXTRACT: note_on channel=0 note=56 velocity=80 time=0EXTRACT: note_on channel=0 note=59 velocity=80 time=0EXTRACT: note_on channel=0 note=73 velocity=0 time=0.3249998645833333EXTRACT: note_on channel=0 note=73 velocity=80 time=0.017857135416666666EXTRACT: note_on channel=0 note=73 velocity=0 time=0.1621427895833333EXTRACT: note_on channel=0 note=73 velocity=80 time=0.009285710416666666EXTRACT: note_on channel=0 note=73 velocity=0 time=0.3249998645833333EXTRACT: note_on channel=0 note=69 velocity=80 time=0.017857135416666666EXTRACT: note_on channel=0 note=52 velocity=0 time=0.11928566458333333EXTRACT: note_on channel=0 note=56 velocity=0 time=0EXTRACT: note_on channel=0 note=59 velocity=0 time=0EXTRACT: note_on channel=0 note=69 velocity=0 time=0.042857124999999996EXTRACT: note_on channel=0 note=68 velocity=80 time=0.009285710416666666EXTRACT: note_on channel=0 note=52 velocity=80 time=0EXTRACT: note_on channel=0 note=56 velocity=80 time=0EXTRACT: note_on channel=0 note=59 velocity=80 time=0EXTRACT: note_on channel=0 note=68 velocity=0 time=1.627856464583333EXTRACT: note_on channel=0 note=52 velocity=0 time=0EXTRACT: note_on channel=0 note=56 velocity=0 time=0EXTRACT: note_on channel=0 note=59 velocity=0 time=0EXTRACT: note_on channel=0 note=73 velocity=80 time=0.08642853541666666EXTRACT: note_on channel=0 note=49 velocity=80 time=0EXTRACT: note_on channel=0 note=52 velocity=80 time=0EXTRACT: note_on channel=0 note=56 velocity=80 time=0EXTRACT: note_on channel=0 note=73 velocity=0 time=0.1621427895833333EXTRACT: note_on channel=0 note=73 velocity=80 time=0.009285710416666666EXTRACT: note_on channel=0 note=73 velocity=0 time=0.1621427895833333EXTRACT: note_on channel=0 note=73 velocity=80 time=0.009285710416666666EXTRACT: note_on channel=0 note=73 velocity=0 time=0.1621427895833333EXTRACT: note_on channel=0 note=73 velocity=80 time=0.009285710416666666EXTRACT: note_on channel=0 note=73 velocity=0 time=0.1621427895833333EXTRACT: note_on channel=0 note=73 velocity=80 time=0.009285710416666666EXTRACT: note_on channel=0 note=49 velocity=0 time=0.2907141645833333EXTRACT: note_on channel=0 note=52 velocity=0 time=0EXTRACT: note_on channel=0 note=56 velocity=0 time=0EXTRACT: note_on channel=0 note=73 velocity=0 time=0.034285699999999995EXTRACT: note_on channel=0 note=76 velocity=80 time=0.017857135416666666EXTRACT: note_on channel=0 note=49 velocity=80 time=0EXTRACT: note_on channel=0 note=52 velocity=80 time=0EXTRACT: note_on channel=0 note=56 velocity=80 time=0EXTRACT: note_on channel=0 note=76 velocity=0 time=0.3249998645833333EXTRACT: note_on channel=0 note=71 velocity=80 time=0.017857135416666666EXTRACT: note_on channel=0 note=71 velocity=0 time=0.3249998645833333EXTRACT: note_on channel=0 note=69 velocity=80 time=0.017857135416666666EXTRACT: note_on channel=0 note=69 velocity=0 time=0.1621427895833333EXTRACT: note_on channel=0 note=69 velocity=80 time=0.009285710416666666EXTRACT: note_on channel=0 note=69 velocity=0 time=0.6507140145833333EXTRACT: note_on channel=0 note=69 velocity=80 time=0.034999985416666664EXTRACT: note_on channel=0 note=49 velocity=0 time=0.08499996458333332EXTRACT: note_on channel=0 note=52 velocity=0 time=0EXTRACT: note_on channel=0 note=56 velocity=0 time=0EXTRACT: note_on channel=0 note=69 velocity=0 time=0.077142825EXTRACT: note_on channel=0 note=71 velocity=80 time=0.009285710416666666EXTRACT: note_on channel=0 note=50 velocity=80 time=0EXTRACT: note_on channel=0 note=54 velocity=80 time=0EXTRACT: note_on channel=0 note=57 velocity=80 time=0EXTRACT: note_on channel=0 note=71 velocity=0 time=0.1621427895833333EXTRACT: note_on channel=0 note=73 velocity=80 time=0.009285710416666666EXTRACT: note_on channel=0 note=73 velocity=0 time=0.1621427895833333EXTRACT: note_on channel=0 note=73 velocity=80 time=0.009285710416666666EXTRACT: note_on channel=0 note=73 velocity=0 time=0.1621427895833333EXTRACT: note_on channel=0 note=73 velocity=80 time=0.009285710416666666EXTRACT: note_on channel=0 note=73 velocity=0 time=0.1621427895833333EXTRACT: note_on channel=0 note=73 velocity=80 time=0.009285710416666666EXTRACT: note_on channel=0 note=50 velocity=0 time=0.2907141645833333EXTRACT: note_on channel=0 note=54 velocity=0 time=0EXTRACT: note_on channel=0 note=57 velocity=0 time=0EXTRACT: note_on channel=0 note=50 velocity=80 time=0.052142835416666665EXTRACT: note_on channel=0 note=54 velocity=80 time=0EXTRACT: note_on channel=0 note=57 velocity=80 time=0EXTRACT: note_on channel=0 note=73 velocity=0 time=0.14499993958333332EXTRACT: note_on channel=0 note=73 velocity=80 time=0.026428560416666663EXTRACT: note_on channel=0 note=73 velocity=0 time=0.1621427895833333EXTRACT: note_on channel=0 note=71 velocity=80 time=0.009285710416666666EXTRACT: note_on channel=0 note=71 velocity=0 time=0.3249998645833333EXTRACT: note_on channel=0 note=69 velocity=80 time=0.017857135416666666EXTRACT: note_on channel=0 note=69 velocity=0 time=0.1621427895833333EXTRACT: note_on channel=0 note=69 velocity=80 time=0.009285710416666666EXTRACT: note_on channel=0 note=69 velocity=0 time=0.4878569395833333EXTRACT: note_on channel=0 note=76 velocity=80 time=0.026428560416666663EXTRACT: note_on channel=0 note=50 velocity=0 time=0.2564284645833333EXTRACT: note_on channel=0 note=54 velocity=0 time=0EXTRACT: note_on channel=0 note=57 velocity=0 time=0EXTRACT: note_on channel=0 note=76 velocity=0 time=0.06857139999999999EXTRACT: note_on channel=0 note=73 velocity=80 time=0.017857135416666666EXTRACT: note_on channel=0 note=54 velocity=80 time=0EXTRACT: note_on channel=0 note=57 velocity=80 time=0EXTRACT: note_on channel=0 note=61 velocity=80 time=0EXTRACT: note_on channel=0 note=73 velocity=0 time=0.4878569395833333EXTRACT: note_on channel=0 note=71 velocity=80 time=0.026428560416666663EXTRACT: note_on channel=0 note=54 velocity=0 time=0.4621426645833333EXTRACT: note_on channel=0 note=57 velocity=0 time=0EXTRACT: note_on channel=0 note=61 velocity=0 time=0EXTRACT: note_on channel=0 note=71 velocity=0 time=0.025714274999999998EXTRACT: note_on channel=0 note=76 velocity=80 time=0.026428560416666663EXTRACT: note_on channel=0 note=54 velocity=80 time=0EXTRACT: note_on channel=0 note=57 velocity=80 time=0EXTRACT: note_on channel=0 note=61 velocity=80 time=0EXTRACT: note_on channel=0 note=76 velocity=0 time=0.3249998645833333EXTRACT: note_on channel=0 note=73 velocity=80 time=0.017857135416666666EXTRACT: note_on channel=0 note=73 velocity=0 time=0.4878569395833333EXTRACT: note_on channel=0 note=71 velocity=80 time=0.026428560416666663EXTRACT: note_on channel=0 note=54 velocity=0 time=0.11928566458333333EXTRACT: note_on channel=0 note=57 velocity=0 time=0EXTRACT: note_on channel=0 note=61 velocity=0 time=0EXTRACT: note_on channel=0 note=54 velocity=80 time=0.052142835416666665EXTRACT: note_on channel=0 note=57 velocity=80 time=0EXTRACT: note_on channel=0 note=61 velocity=80 time=0EXTRACT: note_on channel=0 note=71 velocity=0 time=0.31642843958333333EXTRACT: note_on channel=0 note=76 velocity=80 time=0.026428560416666663EXTRACT: note_on channel=0 note=54 velocity=0 time=0.3078570145833333EXTRACT: note_on channel=0 note=57 velocity=0 time=0EXTRACT: note_on channel=0 note=61 velocity=0 time=0EXTRACT: note_on channel=0 note=76 velocity=0 time=0.017142849999999998EXTRACT: note_on channel=0 note=73 velocity=80 time=0.017857135416666666EXTRACT: note_on channel=0 note=52 velocity=80 time=0EXTRACT: note_on channel=0 note=56 velocity=80 time=0EXTRACT: note_on channel=0 note=59 velocity=80 time=0EXTRACT: note_on channel=0 note=73 velocity=0 time=0.4878569395833333EXTRACT: note_on channel=0 note=71 velocity=80 time=0.026428560416666663EXTRACT: note_on channel=0 note=52 velocity=0 time=0.4621426645833333EXTRACT: note_on channel=0 note=56 velocity=0 time=0EXTRACT: note_on channel=0 note=59 velocity=0 time=0EXTRACT: note_on channel=0 note=71 velocity=0 time=0.025714274999999998EXTRACT: note_on channel=0 note=76 velocity=80 time=0.026428560416666663EXTRACT: note_on channel=0 note=52 velocity=80 time=0EXTRACT: note_on channel=0 note=56 velocity=80 time=0EXTRACT: note_on channel=0 note=59 velocity=80 time=0EXTRACT: note_on channel=0 note=76 velocity=0 time=0.3249998645833333EXTRACT: note_on channel=0 note=73 velocity=80 time=0.017857135416666666EXTRACT: note_on channel=0 note=73 velocity=0 time=0.4878569395833333EXTRACT: note_on channel=0 note=71 velocity=80 time=0.026428560416666663EXTRACT: note_on channel=0 note=52 velocity=0 time=0.11928566458333333EXTRACT: note_on channel=0 note=56 velocity=0 time=0EXTRACT: note_on channel=0 note=59 velocity=0 time=0EXTRACT: note_on channel=0 note=52 velocity=80 time=0.052142835416666665EXTRACT: note_on channel=0 note=56 velocity=80 time=0EXTRACT: note_on channel=0 note=59 velocity=80 time=0EXTRACT: note_on channel=0 note=71 velocity=0 time=0.31642843958333333EXTRACT: note_on channel=0 note=76 velocity=80 time=0.026428560416666663EXTRACT: note_on channel=0 note=52 velocity=0 time=0.3078570145833333EXTRACT: note_on channel=0 note=56 velocity=0 time=0EXTRACT: note_on channel=0 note=59 velocity=0 time=0EXTRACT: note_on channel=0 note=76 velocity=0 time=0.017142849999999998EXTRACT: note_on channel=0 note=73 velocity=80 time=0.017857135416666666EXTRACT: note_on channel=0 note=49 velocity=80 time=0EXTRACT: note_on channel=0 note=52 velocity=80 time=0EXTRACT: note_on channel=0 note=56 velocity=80 time=0EXTRACT: note_on channel=0 note=73 velocity=0 time=0.4878569395833333EXTRACT: note_on channel=0 note=71 velocity=80 time=0.026428560416666663EXTRACT: note_on channel=0 note=71 velocity=0 time=0.3249998645833333EXTRACT: note_on channel=0 note=69 velocity=80 time=0.017857135416666666EXTRACT: note_on channel=0 note=49 velocity=0 time=0.11928566458333333EXTRACT: note_on channel=0 note=52 velocity=0 time=0EXTRACT: note_on channel=0 note=56 velocity=0 time=0EXTRACT: note_on channel=0 note=69 velocity=0 time=0.042857124999999996EXTRACT: note_on channel=0 note=76 velocity=80 time=0.009285710416666666EXTRACT: note_on channel=0 note=49 velocity=80 time=0EXTRACT: note_on channel=0 note=52 velocity=80 time=0EXTRACT: note_on channel=0 note=56 velocity=80 time=0EXTRACT: note_on channel=0 note=76 velocity=0 time=0.3249998645833333EXTRACT: note_on channel=0 note=73 velocity=80 time=0.017857135416666666EXTRACT: note_on channel=0 note=73 velocity=0 time=0.4878569395833333EXTRACT: note_on channel=0 note=71 velocity=80 time=0.026428560416666663EXTRACT: note_on channel=0 note=49 velocity=0 time=0.11928566458333333EXTRACT: note_on channel=0 note=52 velocity=0 time=0EXTRACT: note_on channel=0 note=56 velocity=0 time=0EXTRACT: note_on channel=0 note=49 velocity=80 time=0.052142835416666665EXTRACT: note_on channel=0 note=52 velocity=80 time=0EXTRACT: note_on channel=0 note=56 velocity=80 time=0EXTRACT: note_on channel=0 note=71 velocity=0 time=0.4792855145833333EXTRACT: note_on channel=0 note=69 velocity=80 time=0.034999985416666664EXTRACT: note_on channel=0 note=49 velocity=0 time=0.13642851458333333EXTRACT: note_on channel=0 note=52 velocity=0 time=0EXTRACT: note_on channel=0 note=56 velocity=0 time=0EXTRACT: note_on channel=0 note=69 velocity=0 time=0.025714274999999998EXTRACT: note_on channel=0 note=71 velocity=80 time=0.009285710416666666EXTRACT: note_on channel=0 note=50 velocity=80 time=0EXTRACT: note_on channel=0 note=54 velocity=80 time=0EXTRACT: note_on channel=0 note=57 velocity=80 time=0EXTRACT: note_on channel=0 note=71 velocity=0 time=0.3249998645833333EXTRACT: note_on channel=0 note=73 velocity=80 time=0.017857135416666666EXTRACT: note_on channel=0 note=73 velocity=0 time=0.1621427895833333EXTRACT: note_on channel=0 note=73 velocity=80 time=0.009285710416666666EXTRACT: note_on channel=0 note=50 velocity=0 time=0.4621426645833333EXTRACT: note_on channel=0 note=54 velocity=0 time=0EXTRACT: note_on channel=0 note=57 velocity=0 time=0EXTRACT: note_on channel=0 note=50 velocity=80 time=0.052142835416666665EXTRACT: note_on channel=0 note=54 velocity=80 time=0EXTRACT: note_on channel=0 note=57 velocity=80 time=0EXTRACT: note_on channel=0 note=73 velocity=0 time=0.13642851458333333EXTRACT: note_on channel=0 note=69 velocity=80 time=0.034999985416666664EXTRACT: note_on channel=0 note=69 velocity=0 time=0.1621427895833333EXTRACT: note_on channel=0 note=71 velocity=80 time=0.009285710416666666EXTRACT: note_on channel=0 note=71 velocity=0 time=0.4878569395833333EXTRACT: note_on channel=0 note=69 velocity=80 time=0.026428560416666663EXTRACT: note_on channel=0 note=50 velocity=0 time=0.11928566458333333EXTRACT: note_on channel=0 note=54 velocity=0 time=0EXTRACT: note_on channel=0 note=57 velocity=0 time=0EXTRACT: note_on channel=0 note=50 velocity=80 time=0.052142835416666665EXTRACT: note_on channel=0 note=54 velocity=80 time=0EXTRACT: note_on channel=0 note=57 velocity=80 time=0EXTRACT: note_on channel=0 note=69 velocity=0 time=0.31642843958333333EXTRACT: note_on channel=0 note=76 velocity=80 time=0.026428560416666663EXTRACT: note_on channel=0 note=50 velocity=0 time=0.3078570145833333EXTRACT: note_on channel=0 note=54 velocity=0 time=0EXTRACT: note_on channel=0 note=57 velocity=0 time=0EXTRACT: note_on channel=0 note=76 velocity=0 time=0.017142849999999998EXTRACT: note_on channel=0 note=73 velocity=80 time=0.017857135416666666EXTRACT: note_on channel=0 note=54 velocity=80 time=0EXTRACT: note_on channel=0 note=57 velocity=80 time=0EXTRACT: note_on channel=0 note=61 velocity=80 time=0EXTRACT: note_on channel=0 note=73 velocity=0 time=0.4878569395833333EXTRACT: note_on channel=0 note=71 velocity=80 time=0.026428560416666663EXTRACT: note_on channel=0 note=54 velocity=0 time=0.4621426645833333EXTRACT: note_on channel=0 note=57 velocity=0 time=0EXTRACT: note_on channel=0 note=61 velocity=0 time=0EXTRACT: note_on channel=0 note=71 velocity=0 time=0.025714274999999998EXTRACT: note_on channel=0 note=76 velocity=80 time=0.026428560416666663EXTRACT: note_on channel=0 note=54 velocity=80 time=0EXTRACT: note_on channel=0 note=57 velocity=80 time=0EXTRACT: note_on channel=0 note=61 velocity=80 time=0EXTRACT: note_on channel=0 note=76 velocity=0 time=0.3249998645833333EXTRACT: note_on channel=0 note=73 velocity=80 time=0.017857135416666666EXTRACT: note_on channel=0 note=73 velocity=0 time=0.4878569395833333EXTRACT: note_on channel=0 note=71 velocity=80 time=0.026428560416666663EXTRACT: note_on channel=0 note=54 velocity=0 time=0.11928566458333333EXTRACT: note_on channel=0 note=57 velocity=0 time=0EXTRACT: note_on channel=0 note=61 velocity=0 time=0EXTRACT: note_on channel=0 note=54 velocity=80 time=0.052142835416666665EXTRACT: note_on channel=0 note=57 velocity=80 time=0EXTRACT: note_on channel=0 note=61 velocity=80 time=0EXTRACT: note_on channel=0 note=71 velocity=0 time=0.31642843958333333EXTRACT: note_on channel=0 note=76 velocity=80 time=0.026428560416666663EXTRACT: note_on channel=0 note=54 velocity=0 time=0.3078570145833333EXTRACT: note_on channel=0 note=57 velocity=0 time=0EXTRACT: note_on channel=0 note=61 velocity=0 time=0EXTRACT: note_on channel=0 note=76 velocity=0 time=0.017142849999999998EXTRACT: note_on channel=0 note=73 velocity=80 time=0.017857135416666666EXTRACT: note_on channel=0 note=52 velocity=80 time=0EXTRACT: note_on channel=0 note=56 velocity=80 time=0EXTRACT: note_on channel=0 note=59 velocity=80 time=0EXTRACT: note_on channel=0 note=73 velocity=0 time=0.4878569395833333EXTRACT: note_on channel=0 note=71 velocity=80 time=0.026428560416666663EXTRACT: note_on channel=0 note=52 velocity=0 time=0.4621426645833333EXTRACT: note_on channel=0 note=56 velocity=0 time=0EXTRACT: note_on channel=0 note=59 velocity=0 time=0EXTRACT: note_on channel=0 note=71 velocity=0 time=0.025714274999999998EXTRACT: note_on channel=0 note=76 velocity=80 time=0.026428560416666663EXTRACT: note_on channel=0 note=52 velocity=80 time=0EXTRACT: note_on channel=0 note=56 velocity=80 time=0EXTRACT: note_on channel=0 note=59 velocity=80 time=0EXTRACT: note_on channel=0 note=76 velocity=0 time=0.3249998645833333EXTRACT: note_on channel=0 note=73 velocity=80 time=0.017857135416666666EXTRACT: note_on channel=0 note=73 velocity=0 time=0.4878569395833333EXTRACT: note_on channel=0 note=71 velocity=80 time=0.026428560416666663EXTRACT: note_on channel=0 note=52 velocity=0 time=0.11928566458333333EXTRACT: note_on channel=0 note=56 velocity=0 time=0EXTRACT: note_on channel=0 note=59 velocity=0 time=0EXTRACT: note_on channel=0 note=52 velocity=80 time=0.052142835416666665EXTRACT: note_on channel=0 note=56 velocity=80 time=0EXTRACT: note_on channel=0 note=59 velocity=80 time=0EXTRACT: note_on channel=0 note=71 velocity=0 time=0.31642843958333333EXTRACT: note_on channel=0 note=76 velocity=80 time=0.026428560416666663EXTRACT: note_on channel=0 note=52 velocity=0 time=0.3078570145833333EXTRACT: note_on channel=0 note=56 velocity=0 time=0EXTRACT: note_on channel=0 note=59 velocity=0 time=0EXTRACT: note_on channel=0 note=76 velocity=0 time=0.017142849999999998EXTRACT: note_on channel=0 note=73 velocity=80 time=0.017857135416666666EXTRACT: note_on channel=0 note=49 velocity=80 time=0EXTRACT: note_on channel=0 note=52 velocity=80 time=0EXTRACT: note_on channel=0 note=56 velocity=80 time=0EXTRACT: note_on channel=0 note=73 velocity=0 time=0.4878569395833333EXTRACT: note_on channel=0 note=71 velocity=80 time=0.026428560416666663EXTRACT: note_on channel=0 note=49 velocity=0 time=0.4621426645833333EXTRACT: note_on channel=0 note=52 velocity=0 time=0EXTRACT: note_on channel=0 note=56 velocity=0 time=0EXTRACT: note_on channel=0 note=71 velocity=0 time=0.025714274999999998EXTRACT: note_on channel=0 note=76 velocity=80 time=0.026428560416666663EXTRACT: note_on channel=0 note=49 velocity=80 time=0EXTRACT: note_on channel=0 note=52 velocity=80 time=0EXTRACT: note_on channel=0 note=56 velocity=80 time=0EXTRACT: note_on channel=0 note=76 velocity=0 time=0.3249998645833333EXTRACT: note_on channel=0 note=73 velocity=80 time=0.017857135416666666EXTRACT: note_on channel=0 note=73 velocity=0 time=0.4878569395833333EXTRACT: note_on channel=0 note=71 velocity=80 time=0.026428560416666663EXTRACT: note_on channel=0 note=49 velocity=0 time=0.11928566458333333EXTRACT: note_on channel=0 note=52 velocity=0 time=0EXTRACT: note_on channel=0 note=56 velocity=0 time=0EXTRACT: note_on channel=0 note=49 velocity=80 time=0.052142835416666665EXTRACT: note_on channel=0 note=52 velocity=80 time=0EXTRACT: note_on channel=0 note=56 velocity=80 time=0EXTRACT: note_on channel=0 note=71 velocity=0 time=0.4792855145833333EXTRACT: note_on channel=0 note=69 velocity=80 time=0.034999985416666664EXTRACT: note_on channel=0 note=49 velocity=0 time=0.13642851458333333EXTRACT: note_on channel=0 note=52 velocity=0 time=0EXTRACT: note_on channel=0 note=56 velocity=0 time=0EXTRACT: note_on channel=0 note=69 velocity=0 time=0.025714274999999998EXTRACT: note_on channel=0 note=71 velocity=80 time=0.009285710416666666EXTRACT: note_on channel=0 note=50 velocity=80 time=0EXTRACT: note_on channel=0 note=54 velocity=80 time=0EXTRACT: note_on channel=0 note=57 velocity=80 time=0EXTRACT: note_on channel=0 note=71 velocity=0 time=0.3249998645833333EXTRACT: note_on channel=0 note=73 velocity=80 time=0.017857135416666666EXTRACT: note_on channel=0 note=73 velocity=0 time=0.1621427895833333EXTRACT: note_on channel=0 note=73 velocity=80 time=0.009285710416666666EXTRACT: note_on channel=0 note=73 velocity=0 time=0.4878569395833333EXTRACT: note_on channel=0 note=69 velocity=80 time=0.026428560416666663EXTRACT: note_on channel=0 note=69 velocity=0 time=0.3249998645833333EXTRACT: note_on channel=0 note=71 velocity=80 time=0.017857135416666666EXTRACT: note_on channel=0 note=71 velocity=0 time=0.4878569395833333EXTRACT: note_on channel=0 note=69 velocity=80 time=0.026428560416666663EXTRACT: note_on channel=0 note=69 velocity=0 time=0.6507140145833333EXTRACT: note_on channel=0 note=50 velocity=0 time=2.6742845999999996EXTRACT: note_on channel=0 note=54 velocity=0 time=0EXTRACT: note_on channel=0 note=57 velocity=0 time=0EXTRACT: note_on channel=0 note=76 velocity=80 time=0.27499988541666665EXTRACT: note_on channel=0 note=54 velocity=80 time=0EXTRACT: note_on channel=0 note=57 velocity=80 time=0EXTRACT: note_on channel=0 note=61 velocity=80 time=0EXTRACT: note_on channel=0 note=76 velocity=0 time=0.3249998645833333EXTRACT: note_on channel=0 note=73 velocity=80 time=0.017857135416666666EXTRACT: note_on channel=0 note=73 velocity=0 time=0.1621427895833333EXTRACT: note_on channel=0 note=73 velocity=80 time=0.009285710416666666EXTRACT: note_on channel=0 note=73 velocity=0 time=0.4878569395833333EXTRACT: note_on channel=0 note=74 velocity=80 time=0.026428560416666663EXTRACT: note_on channel=0 note=74 velocity=0 time=0.3249998645833333EXTRACT: note_on channel=0 note=73 velocity=80 time=0.017857135416666666EXTRACT: note_on channel=0 note=73 velocity=0 time=0.3249998645833333EXTRACT: note_on channel=0 note=74 velocity=80 time=0.017857135416666666EXTRACT: note_on channel=0 note=74 velocity=0 time=0.3249998645833333EXTRACT: note_on channel=0 note=73 velocity=80 time=0.017857135416666666EXTRACT: note_on channel=0 note=73 velocity=0 time=0.3249998645833333EXTRACT: note_on channel=0 note=69 velocity=80 time=0.017857135416666666EXTRACT: note_on channel=0 note=54 velocity=0 time=0.2049999145833333EXTRACT: note_on channel=0 note=57 velocity=0 time=0EXTRACT: note_on channel=0 note=61 velocity=0 time=0EXTRACT: note_on channel=0 note=69 velocity=0 time=0.11999995EXTRACT: note_on channel=0 note=71 velocity=80 time=0.017857135416666666EXTRACT: note_on channel=0 note=52 velocity=80 time=0EXTRACT: note_on channel=0 note=56 velocity=80 time=0EXTRACT: note_on channel=0 note=59 velocity=80 time=0EXTRACT: note_on channel=0 note=71 velocity=0 time=1.3021423145833333EXTRACT: note_on channel=0 note=69 velocity=80 time=0.41214268541666665EXTRACT: note_on channel=0 note=69 velocity=0 time=0.3249998645833333EXTRACT: note_on channel=0 note=69 velocity=80 time=0.017857135416666666EXTRACT: note_on channel=0 note=69 velocity=0 time=0.3249998645833333EXTRACT: note_on channel=0 note=69 velocity=80 time=0.017857135416666666EXTRACT: note_on channel=0 note=69 velocity=0 time=0.1621427895833333EXTRACT: note_on channel=0 note=76 velocity=80 time=0.009285710416666666EXTRACT: note_on channel=0 note=52 velocity=0 time=0.033571414583333334EXTRACT: note_on channel=0 note=56 velocity=0 time=0EXTRACT: note_on channel=0 note=59 velocity=0 time=0EXTRACT: note_on channel=0 note=49 velocity=80 time=0.13785708541666666EXTRACT: note_on channel=0 note=52 velocity=80 time=0EXTRACT: note_on channel=0 note=56 velocity=80 time=0EXTRACT: note_on channel=0 note=76 velocity=0 time=0.31642843958333333EXTRACT: note_on channel=0 note=74 velocity=80 time=0.026428560416666663EXTRACT: note_on channel=0 note=74 velocity=0 time=0.3249998645833333EXTRACT: note_on channel=0 note=73 velocity=80 time=0.017857135416666666EXTRACT: note_on channel=0 note=73 velocity=0 time=0.3249998645833333EXTRACT: note_on channel=0 note=74 velocity=80 time=0.017857135416666666EXTRACT: note_on channel=0 note=74 velocity=0 time=0.3249998645833333EXTRACT: note_on channel=0 note=73 velocity=80 time=0.017857135416666666EXTRACT: note_on channel=0 note=73 velocity=0 time=0.3249998645833333EXTRACT: note_on channel=0 note=69 velocity=80 time=0.017857135416666666EXTRACT: note_on channel=0 note=69 velocity=0 time=0.3249998645833333EXTRACT: note_on channel=0 note=71 velocity=80 time=0.017857135416666666EXTRACT: note_on channel=0 note=49 velocity=0 time=0.5478569145833333EXTRACT: note_on channel=0 note=52 velocity=0 time=0EXTRACT: note_on channel=0 note=56 velocity=0 time=0EXTRACT: note_on channel=0 note=71 velocity=0 time=0.10285709999999999EXTRACT: note_on channel=0 note=69 velocity=80 time=0.034999985416666664EXTRACT: note_on channel=0 note=50 velocity=80 time=0EXTRACT: note_on channel=0 note=54 velocity=80 time=0EXTRACT: note_on channel=0 note=57 velocity=80 time=0EXTRACT: note_on channel=0 note=69 velocity=0 time=1.3021423145833333EXTRACT: note_on channel=0 note=50 velocity=0 time=1.3028566EXTRACT: note_on channel=0 note=54 velocity=0 time=0EXTRACT: note_on channel=0 note=57 velocity=0 time=0EXTRACT: note_on channel=0 note=76 velocity=80 time=0.13785708541666666EXTRACT: note_on channel=0 note=54 velocity=80 time=0EXTRACT: note_on channel=0 note=57 velocity=80 time=0EXTRACT: note_on channel=0 note=61 velocity=80 time=0EXTRACT: note_on channel=0 note=76 velocity=0 time=0.3249998645833333EXTRACT: note_on channel=0 note=74 velocity=80 time=0.017857135416666666EXTRACT: note_on channel=0 note=74 velocity=0 time=0.3249998645833333EXTRACT: note_on channel=0 note=73 velocity=80 time=0.017857135416666666EXTRACT: note_on channel=0 note=73 velocity=0 time=0.3249998645833333EXTRACT: note_on channel=0 note=74 velocity=80 time=0.017857135416666666EXTRACT: note_on channel=0 note=74 velocity=0 time=0.3249998645833333EXTRACT: note_on channel=0 note=73 velocity=80 time=0.017857135416666666EXTRACT: note_on channel=0 note=73 velocity=0 time=0.3249998645833333EXTRACT: note_on channel=0 note=73 velocity=80 time=0.017857135416666666EXTRACT: note_on channel=0 note=73 velocity=0 time=0.3249998645833333EXTRACT: note_on channel=0 note=71 velocity=80 time=0.017857135416666666EXTRACT: note_on channel=0 note=54 velocity=0 time=0.5478569145833333EXTRACT: note_on channel=0 note=57 velocity=0 time=0EXTRACT: note_on channel=0 note=61 velocity=0 time=0EXTRACT: note_on channel=0 note=71 velocity=0 time=0.10285709999999999EXTRACT: note_on channel=0 note=52 velocity=80 time=0.034999985416666664EXTRACT: note_on channel=0 note=56 velocity=80 time=0EXTRACT: note_on channel=0 note=59 velocity=80 time=0EXTRACT: note_on channel=0 note=52 velocity=0 time=2.604998914583333EXTRACT: note_on channel=0 note=56 velocity=0 time=0EXTRACT: note_on channel=0 note=59 velocity=0 time=0EXTRACT: note_on channel=0 note=76 velocity=80 time=0.13785708541666666EXTRACT: note_on channel=0 note=49 velocity=80 time=0EXTRACT: note_on channel=0 note=52 velocity=80 time=0EXTRACT: note_on channel=0 note=56 velocity=80 time=0EXTRACT: note_on channel=0 note=76 velocity=0 time=0.3249998645833333EXTRACT: note_on channel=0 note=74 velocity=80 time=0.017857135416666666EXTRACT: note_on channel=0 note=74 velocity=0 time=0.3249998645833333EXTRACT: note_on channel=0 note=73 velocity=80 time=0.017857135416666666EXTRACT: note_on channel=0 note=73 velocity=0 time=0.3249998645833333EXTRACT: note_on channel=0 note=76 velocity=80 time=0.017857135416666666EXTRACT: note_on channel=0 note=76 velocity=0 time=0.3249998645833333EXTRACT: note_on channel=0 note=78 velocity=80 time=0.017857135416666666EXTRACT: note_on channel=0 note=78 velocity=0 time=0.4878569395833333EXTRACT: note_on channel=0 note=71 velocity=80 time=0.026428560416666663EXTRACT: note_on channel=0 note=71 velocity=0 time=0.1621427895833333EXTRACT: note_on channel=0 note=71 velocity=80 time=0.009285710416666666EXTRACT: note_on channel=0 note=49 velocity=0 time=0.5478569145833333EXTRACT: note_on channel=0 note=52 velocity=0 time=0EXTRACT: note_on channel=0 note=56 velocity=0 time=0EXTRACT: note_on channel=0 note=50 velocity=80 time=0.13785708541666666EXTRACT: note_on channel=0 note=54 velocity=80 time=0EXTRACT: note_on channel=0 note=57 velocity=80 time=0EXTRACT: note_on channel=0 note=71 velocity=0 time=0.2907141645833333EXTRACT: note_on channel=0 note=69 velocity=80 time=0.052142835416666665EXTRACT: note_on channel=0 note=69 velocity=0 time=0.9764281645833333EXTRACT: note_on channel=0 note=69 velocity=80 time=1.0807138354166665EXTRACT: note_on channel=0 note=50 velocity=0 time=0.2049999145833333EXTRACT: note_on channel=0 note=54 velocity=0 time=0EXTRACT: note_on channel=0 note=57 velocity=0 time=0EXTRACT: note_on channel=0 note=69 velocity=0 time=0.11999995EXTRACT: note_on channel=0 note=81 velocity=80 time=0.017857135416666666EXTRACT: note_on channel=0 note=54 velocity=80 time=0EXTRACT: note_on channel=0 note=57 velocity=80 time=0EXTRACT: note_on channel=0 note=61 velocity=80 time=0EXTRACT: note_on channel=0 note=81 velocity=0 time=0.3249998645833333EXTRACT: note_on channel=0 note=80 velocity=80 time=0.017857135416666666EXTRACT: note_on channel=0 note=80 velocity=0 time=0.3249998645833333EXTRACT: note_on channel=0 note=78 velocity=80 time=0.017857135416666666EXTRACT: note_on channel=0 note=54 velocity=0 time=0.2907141645833333EXTRACT: note_on channel=0 note=57 velocity=0 time=0EXTRACT: note_on channel=0 note=61 velocity=0 time=0EXTRACT: note_on channel=0 note=78 velocity=0 time=0.034285699999999995EXTRACT: note_on channel=0 note=80 velocity=80 time=0.017857135416666666EXTRACT: note_on channel=0 note=54 velocity=80 time=0EXTRACT: note_on channel=0 note=57 velocity=80 time=0EXTRACT: note_on channel=0 note=61 velocity=80 time=0EXTRACT: note_on channel=0 note=80 velocity=0 time=0.3249998645833333EXTRACT: note_on channel=0 note=78 velocity=80 time=0.017857135416666666EXTRACT: note_on channel=0 note=78 velocity=0 time=0.3249998645833333EXTRACT: note_on channel=0 note=76 velocity=80 time=0.017857135416666666EXTRACT: note_on channel=0 note=76 velocity=0 time=0.3249998645833333EXTRACT: note_on channel=0 note=73 velocity=80 time=0.017857135416666666EXTRACT: note_on channel=0 note=73 velocity=0 time=0.3249998645833333EXTRACT: note_on channel=0 note=78 velocity=80 time=0.017857135416666666EXTRACT: note_on channel=0 note=54 velocity=0 time=0.2564284645833333EXTRACT: note_on channel=0 note=57 velocity=0 time=0EXTRACT: note_on channel=0 note=61 velocity=0 time=0EXTRACT: note_on channel=0 note=78 velocity=0 time=0.06857139999999999EXTRACT: note_on channel=0 note=76 velocity=80 time=0.017857135416666666EXTRACT: note_on channel=0 note=52 velocity=80 time=0EXTRACT: note_on channel=0 note=56 velocity=80 time=0EXTRACT: note_on channel=0 note=59 velocity=80 time=0EXTRACT: note_on channel=0 note=52 velocity=0 time=0.9764281645833333EXTRACT: note_on channel=0 note=56 velocity=0 time=0EXTRACT: note_on channel=0 note=59 velocity=0 time=0EXTRACT: note_on channel=0 note=52 velocity=80 time=0.052142835416666665EXTRACT: note_on channel=0 note=56 velocity=80 time=0EXTRACT: note_on channel=0 note=59 velocity=80 time=0EXTRACT: note_on channel=0 note=76 velocity=0 time=0.27357131458333334EXTRACT: note_on channel=0 note=76 velocity=80 time=0.41214268541666665EXTRACT: note_on channel=0 note=76 velocity=0 time=0.3249998645833333EXTRACT: note_on channel=0 note=76 velocity=80 time=0.017857135416666666EXTRACT: note_on channel=0 note=76 velocity=0 time=0.3249998645833333EXTRACT: note_on channel=0 note=76 velocity=80 time=0.017857135416666666EXTRACT: note_on channel=0 note=52 velocity=0 time=0.2564284645833333EXTRACT: note_on channel=0 note=56 velocity=0 time=0EXTRACT: note_on channel=0 note=59 velocity=0 time=0EXTRACT: note_on channel=0 note=76 velocity=0 time=0.06857139999999999EXTRACT: note_on channel=0 note=81 velocity=80 time=0.017857135416666666EXTRACT: note_on channel=0 note=49 velocity=80 time=0EXTRACT: note_on channel=0 note=52 velocity=80 time=0EXTRACT: note_on channel=0 note=56 velocity=80 time=0EXTRACT: note_on channel=0 note=81 velocity=0 time=0.3249998645833333EXTRACT: note_on channel=0 note=80 velocity=80 time=0.017857135416666666EXTRACT: note_on channel=0 note=80 velocity=0 time=0.3249998645833333EXTRACT: note_on channel=0 note=78 velocity=80 time=0.017857135416666666EXTRACT: note_on channel=0 note=49 velocity=0 time=0.2907141645833333EXTRACT: note_on channel=0 note=52 velocity=0 time=0EXTRACT: note_on channel=0 note=56 velocity=0 time=0EXTRACT: note_on channel=0 note=78 velocity=0 time=0.034285699999999995EXTRACT: note_on channel=0 note=80 velocity=80 time=0.017857135416666666EXTRACT: note_on channel=0 note=49 velocity=80 time=0EXTRACT: note_on channel=0 note=52 velocity=80 time=0EXTRACT: note_on channel=0 note=56 velocity=80 time=0EXTRACT: note_on channel=0 note=80 velocity=0 time=0.3249998645833333EXTRACT: note_on channel=0 note=78 velocity=80 time=0.017857135416666666EXTRACT: note_on channel=0 note=78 velocity=0 time=0.3249998645833333EXTRACT: note_on channel=0 note=76 velocity=80 time=0.017857135416666666EXTRACT: note_on channel=0 note=76 velocity=0 time=0.3249998645833333EXTRACT: note_on channel=0 note=73 velocity=80 time=0.017857135416666666EXTRACT: note_on channel=0 note=49 velocity=0 time=0.5992854645833333EXTRACT: note_on channel=0 note=52 velocity=0 time=0EXTRACT: note_on channel=0 note=56 velocity=0 time=0EXTRACT: note_on channel=0 note=50 velocity=80 time=0.08642853541666666EXTRACT: note_on channel=0 note=54 velocity=80 time=0EXTRACT: note_on channel=0 note=57 velocity=80 time=0EXTRACT: note_on channel=0 note=50 velocity=0 time=0.9764281645833333EXTRACT: note_on channel=0 note=54 velocity=0 time=0EXTRACT: note_on channel=0 note=57 velocity=0 time=0EXTRACT: note_on channel=0 note=50 velocity=80 time=0.052142835416666665EXTRACT: note_on channel=0 note=54 velocity=80 time=0EXTRACT: note_on channel=0 note=57 velocity=80 time=0EXTRACT: note_on channel=0 note=73 velocity=0 time=0.2392856145833333EXTRACT: note_on channel=0 note=50 velocity=0 time=1.3885708499999998EXTRACT: note_on channel=0 note=54 velocity=0 time=0EXTRACT: note_on channel=0 note=57 velocity=0 time=0EXTRACT: note_on channel=0 note=78 velocity=80 time=0.08642853541666666EXTRACT: note_on channel=0 note=54 velocity=80 time=0EXTRACT: note_on channel=0 note=57 velocity=80 time=0EXTRACT: note_on channel=0 note=61 velocity=80 time=0EXTRACT: note_on channel=0 note=78 velocity=0 time=0.3249998645833333EXTRACT: note_on channel=0 note=76 velocity=80 time=0.017857135416666666EXTRACT: note_on channel=0 note=76 velocity=0 time=0.3249998645833333EXTRACT: note_on channel=0 note=73 velocity=80 time=0.017857135416666666EXTRACT: note_on channel=0 note=54 velocity=0 time=0.2907141645833333EXTRACT: note_on channel=0 note=57 velocity=0 time=0EXTRACT: note_on channel=0 note=61 velocity=0 time=0EXTRACT: note_on channel=0 note=73 velocity=0 time=0.034285699999999995EXTRACT: note_on channel=0 note=78 velocity=80 time=0.017857135416666666EXTRACT: note_on channel=0 note=54 velocity=80 time=0EXTRACT: note_on channel=0 note=57 velocity=80 time=0EXTRACT: note_on channel=0 note=61 velocity=80 time=0EXTRACT: note_on channel=0 note=78 velocity=0 time=0.3249998645833333EXTRACT: note_on channel=0 note=76 velocity=80 time=0.017857135416666666EXTRACT: note_on channel=0 note=76 velocity=0 time=0.3249998645833333EXTRACT: note_on channel=0 note=73 velocity=80 time=0.017857135416666666EXTRACT: note_on channel=0 note=73 velocity=0 time=0.3249998645833333EXTRACT: note_on channel=0 note=76 velocity=80 time=0.017857135416666666EXTRACT: note_on channel=0 note=76 velocity=0 time=0.3249998645833333EXTRACT: note_on channel=0 note=73 velocity=80 time=0.017857135416666666EXTRACT: note_on channel=0 note=54 velocity=0 time=0.2564284645833333EXTRACT: note_on channel=0 note=57 velocity=0 time=0EXTRACT: note_on channel=0 note=61 velocity=0 time=0EXTRACT: note_on channel=0 note=73 velocity=0 time=0.06857139999999999EXTRACT: note_on channel=0 note=71 velocity=80 time=0.017857135416666666EXTRACT: note_on channel=0 note=52 velocity=80 time=0EXTRACT: note_on channel=0 note=56 velocity=80 time=0EXTRACT: note_on channel=0 note=59 velocity=80 time=0EXTRACT: note_on channel=0 note=52 velocity=0 time=0.9764281645833333EXTRACT: note_on channel=0 note=56 velocity=0 time=0EXTRACT: note_on channel=0 note=59 velocity=0 time=0EXTRACT: note_on channel=0 note=52 velocity=80 time=0.052142835416666665EXTRACT: note_on channel=0 note=56 velocity=80 time=0EXTRACT: note_on channel=0 note=59 velocity=80 time=0EXTRACT: note_on channel=0 note=71 velocity=0 time=0.27357131458333334EXTRACT: note_on channel=0 note=69 velocity=80 time=1.0978566854166665EXTRACT: note_on channel=0 note=52 velocity=0 time=0.2564284645833333EXTRACT: note_on channel=0 note=56 velocity=0 time=0EXTRACT: note_on channel=0 note=59 velocity=0 time=0EXTRACT: note_on channel=0 note=69 velocity=0 time=0.06857139999999999EXTRACT: note_on channel=0 note=71 velocity=80 time=0.017857135416666666EXTRACT: note_on channel=0 note=49 velocity=80 time=0EXTRACT: note_on channel=0 note=52 velocity=80 time=0EXTRACT: note_on channel=0 note=56 velocity=80 time=0EXTRACT: note_on channel=0 note=71 velocity=0 time=0.3249998645833333EXTRACT: note_on channel=0 note=73 velocity=80 time=0.017857135416666666EXTRACT: note_on channel=0 note=73 velocity=0 time=0.3249998645833333EXTRACT: note_on channel=0 note=71 velocity=80 time=0.017857135416666666EXTRACT: note_on channel=0 note=49 velocity=0 time=0.2907141645833333EXTRACT: note_on channel=0 note=52 velocity=0 time=0EXTRACT: note_on channel=0 note=56 velocity=0 time=0EXTRACT: note_on channel=0 note=71 velocity=0 time=0.034285699999999995EXTRACT: note_on channel=0 note=73 velocity=80 time=0.017857135416666666EXTRACT: note_on channel=0 note=49 velocity=80 time=0EXTRACT: note_on channel=0 note=52 velocity=80 time=0EXTRACT: note_on channel=0 note=56 velocity=80 time=0EXTRACT: note_on channel=0 note=73 velocity=0 time=0.3249998645833333EXTRACT: note_on channel=0 note=71 velocity=80 time=0.017857135416666666EXTRACT: note_on channel=0 note=71 velocity=0 time=0.3249998645833333EXTRACT: note_on channel=0 note=69 velocity=80 time=0.017857135416666666EXTRACT: note_on channel=0 note=69 velocity=0 time=0.6507140145833333EXTRACT: note_on channel=0 note=71 velocity=80 time=0.034999985416666664EXTRACT: note_on channel=0 note=49 velocity=0 time=0.2564284645833333EXTRACT: note_on channel=0 note=52 velocity=0 time=0EXTRACT: note_on channel=0 note=56 velocity=0 time=0EXTRACT: note_on channel=0 note=50 velocity=80 time=0.08642853541666666EXTRACT: note_on channel=0 note=54 velocity=80 time=0EXTRACT: note_on channel=0 note=57 velocity=80 time=0EXTRACT: note_on channel=0 note=71 velocity=0 time=1.2849994645833331EXTRACT: note_on channel=0 note=76 velocity=80 time=3.8578555354166664EXTRACT: note_on channel=0 note=50 velocity=0 time=0.06785711458333332EXTRACT: note_on channel=0 note=54 velocity=0 time=0EXTRACT: note_on channel=0 note=57 velocity=0 time=0EXTRACT: note_on channel=0 note=76 velocity=0 time=0.25714275EXTRACT: note_on channel=0 note=73 velocity=80 time=0.017857135416666666EXTRACT: note_on channel=0 note=54 velocity=80 time=0EXTRACT: note_on channel=0 note=57 velocity=80 time=0EXTRACT: note_on channel=0 note=61 velocity=80 time=0EXTRACT: note_on channel=0 note=73 velocity=0 time=0.4878569395833333EXTRACT: note_on channel=0 note=71 velocity=80 time=0.026428560416666663EXTRACT: note_on channel=0 note=71 velocity=0 time=0.4878569395833333EXTRACT: note_on channel=0 note=76 velocity=80 time=0.026428560416666663EXTRACT: note_on channel=0 note=76 velocity=0 time=0.3249998645833333EXTRACT: note_on channel=0 note=73 velocity=80 time=0.017857135416666666EXTRACT: note_on channel=0 note=73 velocity=0 time=0.4878569395833333EXTRACT: note_on channel=0 note=71 velocity=80 time=0.026428560416666663EXTRACT: note_on channel=0 note=71 velocity=0 time=0.4878569395833333EXTRACT: note_on channel=0 note=76 velocity=80 time=0.026428560416666663EXTRACT: note_on channel=0 note=54 velocity=0 time=0.2049999145833333EXTRACT: note_on channel=0 note=57 velocity=0 time=0EXTRACT: note_on channel=0 note=61 velocity=0 time=0EXTRACT: note_on channel=0 note=76 velocity=0 time=0.11999995EXTRACT: note_on channel=0 note=73 velocity=80 time=0.017857135416666666EXTRACT: note_on channel=0 note=52 velocity=80 time=0EXTRACT: note_on channel=0 note=56 velocity=80 time=0EXTRACT: note_on channel=0 note=59 velocity=80 time=0EXTRACT: note_on channel=0 note=73 velocity=0 time=0.4878569395833333EXTRACT: note_on channel=0 note=71 velocity=80 time=0.026428560416666663EXTRACT: note_on channel=0 note=71 velocity=0 time=0.4878569395833333EXTRACT: note_on channel=0 note=76 velocity=80 time=0.026428560416666663EXTRACT: note_on channel=0 note=76 velocity=0 time=0.3249998645833333EXTRACT: note_on channel=0 note=73 velocity=80 time=0.017857135416666666EXTRACT: note_on channel=0 note=73 velocity=0 time=0.4878569395833333EXTRACT: note_on channel=0 note=71 velocity=80 time=0.026428560416666663EXTRACT: note_on channel=0 note=71 velocity=0 time=0.4878569395833333EXTRACT: note_on channel=0 note=76 velocity=80 time=0.026428560416666663EXTRACT: note_on channel=0 note=52 velocity=0 time=0.2049999145833333EXTRACT: note_on channel=0 note=56 velocity=0 time=0EXTRACT: note_on channel=0 note=59 velocity=0 time=0EXTRACT: note_on channel=0 note=76 velocity=0 time=0.11999995EXTRACT: note_on channel=0 note=73 velocity=80 time=0.017857135416666666EXTRACT: note_on channel=0 note=49 velocity=80 time=0EXTRACT: note_on channel=0 note=52 velocity=80 time=0EXTRACT: note_on channel=0 note=56 velocity=80 time=0EXTRACT: note_on channel=0 note=73 velocity=0 time=0.4878569395833333EXTRACT: note_on channel=0 note=71 velocity=80 time=0.026428560416666663EXTRACT: note_on channel=0 note=71 velocity=0 time=0.3249998645833333EXTRACT: note_on channel=0 note=69 velocity=80 time=0.017857135416666666EXTRACT: note_on channel=0 note=69 velocity=0 time=0.1621427895833333EXTRACT: note_on channel=0 note=76 velocity=80 time=0.009285710416666666EXTRACT: note_on channel=0 note=76 velocity=0 time=0.3249998645833333EXTRACT: note_on channel=0 note=73 velocity=80 time=0.017857135416666666EXTRACT: note_on channel=0 note=73 velocity=0 time=0.4878569395833333EXTRACT: note_on channel=0 note=71 velocity=80 time=0.026428560416666663EXTRACT: note_on channel=0 note=71 velocity=0 time=0.6507140145833333EXTRACT: note_on channel=0 note=69 velocity=80 time=0.034999985416666664EXTRACT: note_on channel=0 note=49 velocity=0 time=0.033571414583333334EXTRACT: note_on channel=0 note=52 velocity=0 time=0EXTRACT: note_on channel=0 note=56 velocity=0 time=0EXTRACT: note_on channel=0 note=69 velocity=0 time=0.128571375EXTRACT: note_on channel=0 note=71 velocity=80 time=0.009285710416666666EXTRACT: note_on channel=0 note=50 velocity=80 time=0EXTRACT: note_on channel=0 note=54 velocity=80 time=0EXTRACT: note_on channel=0 note=57 velocity=80 time=0EXTRACT: note_on channel=0 note=71 velocity=0 time=0.3249998645833333EXTRACT: note_on channel=0 note=73 velocity=80 time=0.017857135416666666EXTRACT: note_on channel=0 note=73 velocity=0 time=0.1621427895833333EXTRACT: note_on channel=0 note=73 velocity=80 time=0.009285710416666666EXTRACT: note_on channel=0 note=73 velocity=0 time=0.6507140145833333EXTRACT: note_on channel=0 note=69 velocity=80 time=0.034999985416666664EXTRACT: note_on channel=0 note=69 velocity=0 time=0.1621427895833333EXTRACT: note_on channel=0 note=71 velocity=80 time=0.009285710416666666EXTRACT: note_on channel=0 note=71 velocity=0 time=0.4878569395833333EXTRACT: note_on channel=0 note=69 velocity=80 time=0.026428560416666663EXTRACT: note_on channel=0 note=69 velocity=0 time=0.4878569395833333EXTRACT: note_on channel=0 note=76 velocity=80 time=0.026428560416666663EXTRACT: note_on channel=0 note=50 velocity=0 time=0.2049999145833333EXTRACT: note_on channel=0 note=54 velocity=0 time=0EXTRACT: note_on channel=0 note=57 velocity=0 time=0EXTRACT: note_on channel=0 note=76 velocity=0 time=0.11999995EXTRACT: note_on channel=0 note=73 velocity=80 time=0.017857135416666666EXTRACT: note_on channel=0 note=54 velocity=80 time=0EXTRACT: note_on channel=0 note=57 velocity=80 time=0EXTRACT: note_on channel=0 note=61 velocity=80 time=0EXTRACT: note_on channel=0 note=73 velocity=0 time=0.4878569395833333EXTRACT: note_on channel=0 note=71 velocity=80 time=0.026428560416666663EXTRACT: note_on channel=0 note=54 velocity=0 time=0.4621426645833333EXTRACT: note_on channel=0 note=57 velocity=0 time=0EXTRACT: note_on channel=0 note=61 velocity=0 time=0EXTRACT: note_on channel=0 note=71 velocity=0 time=0.025714274999999998EXTRACT: note_on channel=0 note=76 velocity=80 time=0.026428560416666663EXTRACT: note_on channel=0 note=54 velocity=80 time=0EXTRACT: note_on channel=0 note=57 velocity=80 time=0EXTRACT: note_on channel=0 note=61 velocity=80 time=0EXTRACT: note_on channel=0 note=76 velocity=0 time=0.3249998645833333EXTRACT: note_on channel=0 note=73 velocity=80 time=0.017857135416666666EXTRACT: note_on channel=0 note=73 velocity=0 time=0.4878569395833333EXTRACT: note_on channel=0 note=71 velocity=80 time=0.026428560416666663EXTRACT: note_on channel=0 note=54 velocity=0 time=0.11928566458333333EXTRACT: note_on channel=0 note=57 velocity=0 time=0EXTRACT: note_on channel=0 note=61 velocity=0 time=0EXTRACT: note_on channel=0 note=54 velocity=80 time=0.052142835416666665EXTRACT: note_on channel=0 note=57 velocity=80 time=0EXTRACT: note_on channel=0 note=61 velocity=80 time=0EXTRACT: note_on channel=0 note=71 velocity=0 time=0.31642843958333333EXTRACT: note_on channel=0 note=76 velocity=80 time=0.026428560416666663EXTRACT: note_on channel=0 note=54 velocity=0 time=0.3078570145833333EXTRACT: note_on channel=0 note=57 velocity=0 time=0EXTRACT: note_on channel=0 note=61 velocity=0 time=0EXTRACT: note_on channel=0 note=76 velocity=0 time=0.017142849999999998EXTRACT: note_on channel=0 note=73 velocity=80 time=0.017857135416666666EXTRACT: note_on channel=0 note=52 velocity=80 time=0EXTRACT: note_on channel=0 note=56 velocity=80 time=0EXTRACT: note_on channel=0 note=59 velocity=80 time=0EXTRACT: note_on channel=0 note=73 velocity=0 time=0.4878569395833333EXTRACT: note_on channel=0 note=71 velocity=80 time=0.026428560416666663EXTRACT: note_on channel=0 note=52 velocity=0 time=0.4621426645833333EXTRACT: note_on channel=0 note=56 velocity=0 time=0EXTRACT: note_on channel=0 note=59 velocity=0 time=0EXTRACT: note_on channel=0 note=71 velocity=0 time=0.025714274999999998EXTRACT: note_on channel=0 note=76 velocity=80 time=0.026428560416666663EXTRACT: note_on channel=0 note=52 velocity=80 time=0EXTRACT: note_on channel=0 note=56 velocity=80 time=0EXTRACT: note_on channel=0 note=59 velocity=80 time=0EXTRACT: note_on channel=0 note=76 velocity=0 time=0.3249998645833333EXTRACT: note_on channel=0 note=73 velocity=80 time=0.017857135416666666EXTRACT: note_on channel=0 note=73 velocity=0 time=0.4878569395833333EXTRACT: note_on channel=0 note=71 velocity=80 time=0.026428560416666663EXTRACT: note_on channel=0 note=52 velocity=0 time=0.11928566458333333EXTRACT: note_on channel=0 note=56 velocity=0 time=0EXTRACT: note_on channel=0 note=59 velocity=0 time=0EXTRACT: note_on channel=0 note=52 velocity=80 time=0.052142835416666665EXTRACT: note_on channel=0 note=56 velocity=80 time=0EXTRACT: note_on channel=0 note=59 velocity=80 time=0EXTRACT: note_on channel=0 note=71 velocity=0 time=0.31642843958333333EXTRACT: note_on channel=0 note=76 velocity=80 time=0.026428560416666663EXTRACT: note_on channel=0 note=52 velocity=0 time=0.3078570145833333EXTRACT: note_on channel=0 note=56 velocity=0 time=0EXTRACT: note_on channel=0 note=59 velocity=0 time=0EXTRACT: note_on channel=0 note=76 velocity=0 time=0.017142849999999998EXTRACT: note_on channel=0 note=73 velocity=80 time=0.017857135416666666EXTRACT: note_on channel=0 note=49 velocity=80 time=0EXTRACT: note_on channel=0 note=52 velocity=80 time=0EXTRACT: note_on channel=0 note=56 velocity=80 time=0EXTRACT: note_on channel=0 note=73 velocity=0 time=0.4878569395833333EXTRACT: note_on channel=0 note=71 velocity=80 time=0.026428560416666663EXTRACT: note_on channel=0 note=71 velocity=0 time=0.4878569395833333EXTRACT: note_on channel=0 note=76 velocity=80 time=0.026428560416666663EXTRACT: note_on channel=0 note=76 velocity=0 time=0.3249998645833333EXTRACT: note_on channel=0 note=73 velocity=80 time=0.017857135416666666EXTRACT: note_on channel=0 note=73 velocity=0 time=0.4878569395833333EXTRACT: note_on channel=0 note=71 velocity=80 time=0.026428560416666663EXTRACT: note_on channel=0 note=71 velocity=0 time=0.6507140145833333EXTRACT: note_on channel=0 note=69 velocity=80 time=0.034999985416666664EXTRACT: note_on channel=0 note=49 velocity=0 time=0.033571414583333334EXTRACT: note_on channel=0 note=52 velocity=0 time=0EXTRACT: note_on channel=0 note=56 velocity=0 time=0EXTRACT: note_on channel=0 note=69 velocity=0 time=0.128571375EXTRACT: note_on channel=0 note=71 velocity=80 time=0.009285710416666666EXTRACT: note_on channel=0 note=50 velocity=80 time=0EXTRACT: note_on channel=0 note=54 velocity=80 time=0EXTRACT: note_on channel=0 note=57 velocity=80 time=0EXTRACT: note_on channel=0 note=71 velocity=0 time=0.3249998645833333EXTRACT: note_on channel=0 note=73 velocity=80 time=0.017857135416666666EXTRACT: note_on channel=0 note=73 velocity=0 time=0.1621427895833333EXTRACT: note_on channel=0 note=73 velocity=80 time=0.009285710416666666EXTRACT: note_on channel=0 note=73 velocity=0 time=0.4878569395833333EXTRACT: note_on channel=0 note=69 velocity=80 time=0.026428560416666663EXTRACT: note_on channel=0 note=69 velocity=0 time=0.3249998645833333EXTRACT: note_on channel=0 note=71 velocity=80 time=0.017857135416666666EXTRACT: note_on channel=0 note=71 velocity=0 time=0.4878569395833333EXTRACT: note_on channel=0 note=69 velocity=80 time=0.026428560416666663EXTRACT: note_on channel=0 note=69 velocity=0 time=0.9764281645833333EXTRACT: note_on channel=0 note=50 velocity=0 time=2.34857045EXTRACT: note_on channel=0 note=54 velocity=0 time=0EXTRACT: note_on channel=0 note=57 velocity=0 time=0
MUSIC021 - gnash - i hate u, i love u ft. olivia o_brien [music video].mid
INTERVALS021 - gnash - i hate u, i love u ft. olivia o_brien [music video].mid
unison595
2m25
2M263
3m354
3M393
4m43
4M3
5m55
5M9
6m2
7m30
7M1
