EXTRACT: control_change channel=0 control=121 value=0 time=0EXTRACT: program_change channel=0 program=73 time=0EXTRACT: control_change channel=0 control=7 value=100 time=0EXTRACT: control_change channel=0 control=10 value=64 time=0EXTRACT: control_change channel=0 control=91 value=0 time=0EXTRACT: control_change channel=0 control=93 value=0 time=0EXTRACT: control_change channel=1 control=121 value=0 time=0EXTRACT: program_change channel=1 program=0 time=0EXTRACT: control_change channel=1 control=7 value=100 time=0EXTRACT: control_change channel=1 control=10 value=64 time=0EXTRACT: control_change channel=1 control=91 value=0 time=0EXTRACT: control_change channel=1 control=93 value=0 time=0EXTRACT: note_on channel=1 note=70 velocity=64 time=0EXTRACT: note_on channel=1 note=55 velocity=64 time=0EXTRACT: note_on channel=1 note=62 velocity=64 time=0EXTRACT: note_on channel=1 note=67 velocity=64 time=0EXTRACT: note_on channel=0 note=74 velocity=80 time=0.750002EXTRACT: note_on channel=0 note=74 velocity=0 time=0.3546884458333333EXTRACT: note_on channel=0 note=74 velocity=80 time=0.020312554166666663EXTRACT: note_on channel=0 note=74 velocity=0 time=0.3546884458333333EXTRACT: note_on channel=0 note=79 velocity=80 time=0.020312554166666663EXTRACT: note_on channel=0 note=79 velocity=0 time=0.3546884458333333EXTRACT: note_on channel=0 note=79 velocity=80 time=0.020312554166666663EXTRACT: note_on channel=0 note=79 velocity=0 time=0.3546884458333333EXTRACT: note_on channel=0 note=81 velocity=80 time=0.020312554166666663EXTRACT: note_on channel=0 note=81 velocity=0 time=0.3546884458333333EXTRACT: note_on channel=0 note=82 velocity=80 time=0.020312554166666663EXTRACT: note_on channel=1 note=70 velocity=0 time=0.22343809583333332EXTRACT: note_on channel=1 note=55 velocity=0 time=0EXTRACT: note_on channel=1 note=62 velocity=0 time=0EXTRACT: note_on channel=1 note=67 velocity=0 time=0EXTRACT: note_on channel=1 note=70 velocity=64 time=0.15156290416666665EXTRACT: note_on channel=1 note=58 velocity=64 time=0EXTRACT: note_on channel=1 note=65 velocity=64 time=0EXTRACT: note_on channel=0 note=82 velocity=0 time=0.3359383958333333EXTRACT: note_on channel=0 note=74 velocity=80 time=0.03906260416666666EXTRACT: note_on channel=0 note=74 velocity=0 time=0.5328139208333332EXTRACT: note_on channel=0 note=72 velocity=80 time=0.029687579166666665EXTRACT: note_on channel=1 note=70 velocity=0 time=0.12968784583333332EXTRACT: note_on channel=0 note=72 velocity=0 time=0.046875125EXTRACT: note_on channel=0 note=70 velocity=80 time=0.010937529166666666EXTRACT: note_on channel=1 note=70 velocity=64 time=0EXTRACT: note_on channel=0 note=70 velocity=0 time=0.3546884458333333EXTRACT: note_on channel=1 note=70 velocity=0 time=0EXTRACT: note_on channel=0 note=74 velocity=80 time=0.020312554166666663EXTRACT: note_on channel=1 note=74 velocity=64 time=0EXTRACT: note_on channel=1 note=58 velocity=0 time=1.3484410958333333EXTRACT: note_on channel=1 note=65 velocity=0 time=0EXTRACT: note_on channel=0 note=74 velocity=0 time=0.07500019999999999EXTRACT: note_on channel=1 note=74 velocity=0 time=0EXTRACT: note_on channel=1 note=69 velocity=64 time=0.07656270416666666EXTRACT: note_on channel=1 note=53 velocity=64 time=0EXTRACT: note_on channel=1 note=60 velocity=64 time=0EXTRACT: note_on channel=1 note=65 velocity=64 time=0EXTRACT: note_on channel=0 note=72 velocity=80 time=0.5625015EXTRACT: note_on channel=0 note=72 velocity=0 time=0.1765629708333333EXTRACT: note_on channel=0 note=72 velocity=80 time=0.010937529166666666EXTRACT: note_on channel=0 note=72 velocity=0 time=0.3546884458333333EXTRACT: note_on channel=0 note=72 velocity=80 time=0.020312554166666663EXTRACT: note_on channel=0 note=72 velocity=0 time=0.3546884458333333EXTRACT: note_on channel=0 note=72 velocity=80 time=0.020312554166666663EXTRACT: note_on channel=0 note=72 velocity=0 time=0.3546884458333333EXTRACT: note_on channel=0 note=72 velocity=80 time=0.020312554166666663EXTRACT: note_on channel=0 note=72 velocity=0 time=0.3546884458333333EXTRACT: note_on channel=0 note=74 velocity=80 time=0.020312554166666663EXTRACT: note_on channel=0 note=74 velocity=0 time=0.3546884458333333EXTRACT: note_on channel=0 note=75 velocity=80 time=0.020312554166666663EXTRACT: note_on channel=0 note=75 velocity=0 time=0.1765629708333333EXTRACT: note_on channel=0 note=72 velocity=80 time=0.010937529166666666EXTRACT: note_on channel=1 note=69 velocity=0 time=0.03593759583333333EXTRACT: note_on channel=1 note=53 velocity=0 time=0EXTRACT: note_on channel=1 note=60 velocity=0 time=0EXTRACT: note_on channel=1 note=65 velocity=0 time=0EXTRACT: note_on channel=1 note=63 velocity=64 time=0.15156290416666665EXTRACT: note_on channel=1 note=48 velocity=64 time=0EXTRACT: note_on channel=1 note=55 velocity=64 time=0EXTRACT: note_on channel=1 note=60 velocity=64 time=0EXTRACT: note_on channel=0 note=72 velocity=0 time=0.16718794583333332EXTRACT: note_on channel=0 note=70 velocity=80 time=0.020312554166666663EXTRACT: note_on channel=0 note=70 velocity=0 time=0.1765629708333333EXTRACT: note_on channel=0 note=72 velocity=80 time=0.010937529166666666EXTRACT: note_on channel=1 note=63 velocity=0 time=1.4046912458333332EXTRACT: note_on channel=1 note=60 velocity=64 time=0.09531275416666665EXTRACT: note_on channel=1 note=60 velocity=0 time=0.3546884458333333EXTRACT: note_on channel=1 note=63 velocity=64 time=0.020312554166666663EXTRACT: note_on channel=1 note=63 velocity=0 time=0.3546884458333333EXTRACT: note_on channel=1 note=67 velocity=64 time=0.020312554166666663EXTRACT: note_on channel=1 note=48 velocity=0 time=0.22343809583333332EXTRACT: note_on channel=1 note=55 velocity=0 time=0EXTRACT: note_on channel=1 note=60 velocity=0 time=0EXTRACT: note_on channel=0 note=72 velocity=0 time=0.018750049999999997EXTRACT: note_on channel=1 note=67 velocity=0 time=0.11250029999999998EXTRACT: note_on channel=1 note=70 velocity=64 time=0.020312554166666663EXTRACT: note_on channel=1 note=55 velocity=64 time=0EXTRACT: note_on channel=1 note=62 velocity=64 time=0EXTRACT: note_on channel=1 note=67 velocity=64 time=0EXTRACT: note_on channel=0 note=74 velocity=80 time=0.750002EXTRACT: note_on channel=0 note=74 velocity=0 time=0.3546884458333333EXTRACT: note_on channel=0 note=74 velocity=80 time=0.020312554166666663EXTRACT: note_on channel=0 note=74 velocity=0 time=0.3546884458333333EXTRACT: note_on channel=0 note=79 velocity=80 time=0.020312554166666663EXTRACT: note_on channel=0 note=79 velocity=0 time=0.3546884458333333EXTRACT: note_on channel=0 note=79 velocity=80 time=0.020312554166666663EXTRACT: note_on channel=0 note=79 velocity=0 time=0.3546884458333333EXTRACT: note_on channel=0 note=81 velocity=80 time=0.020312554166666663EXTRACT: note_on channel=0 note=81 velocity=0 time=0.3546884458333333EXTRACT: note_on channel=0 note=82 velocity=80 time=0.020312554166666663EXTRACT: note_on channel=1 note=70 velocity=0 time=0.22343809583333332EXTRACT: note_on channel=1 note=55 velocity=0 time=0EXTRACT: note_on channel=1 note=62 velocity=0 time=0EXTRACT: note_on channel=1 note=67 velocity=0 time=0EXTRACT: note_on channel=1 note=70 velocity=64 time=0.15156290416666665EXTRACT: note_on channel=1 note=58 velocity=64 time=0EXTRACT: note_on channel=1 note=65 velocity=64 time=0EXTRACT: note_on channel=0 note=82 velocity=0 time=0.3359383958333333EXTRACT: note_on channel=0 note=74 velocity=80 time=0.03906260416666666EXTRACT: note_on channel=0 note=74 velocity=0 time=0.5328139208333332EXTRACT: note_on channel=0 note=72 velocity=80 time=0.029687579166666665EXTRACT: note_on channel=0 note=72 velocity=0 time=0.1765629708333333EXTRACT: note_on channel=0 note=70 velocity=80 time=0.010937529166666666EXTRACT: note_on channel=0 note=70 velocity=0 time=0.3546884458333333EXTRACT: note_on channel=0 note=74 velocity=80 time=0.020312554166666663EXTRACT: note_on channel=1 note=70 velocity=0 time=0.6359391958333332EXTRACT: note_on channel=1 note=70 velocity=64 time=0.11406280416666666EXTRACT: note_on channel=1 note=70 velocity=0 time=0.3546884458333333EXTRACT: note_on channel=1 note=77 velocity=64 time=0.020312554166666663EXTRACT: note_on channel=1 note=58 velocity=0 time=0.22343809583333332EXTRACT: note_on channel=1 note=65 velocity=0 time=0EXTRACT: note_on channel=0 note=74 velocity=0 time=0.07500019999999999EXTRACT: note_on channel=1 note=77 velocity=0 time=0.05625014999999999EXTRACT: note_on channel=1 note=72 velocity=64 time=0.020312554166666663EXTRACT: note_on channel=1 note=53 velocity=64 time=0EXTRACT: note_on channel=1 note=72 velocity=0 time=0.5328139208333332EXTRACT: note_on channel=0 note=72 velocity=80 time=0.029687579166666665EXTRACT: note_on channel=1 note=72 velocity=64 time=0EXTRACT: note_on channel=0 note=72 velocity=0 time=0.1765629708333333EXTRACT: note_on channel=1 note=72 velocity=0 time=0EXTRACT: note_on channel=0 note=72 velocity=80 time=0.010937529166666666EXTRACT: note_on channel=1 note=72 velocity=64 time=0EXTRACT: note_on channel=0 note=72 velocity=0 time=0.5328139208333332EXTRACT: note_on channel=1 note=72 velocity=0 time=0EXTRACT: note_on channel=0 note=72 velocity=80 time=0.029687579166666665EXTRACT: note_on channel=1 note=72 velocity=64 time=0EXTRACT: note_on channel=0 note=72 velocity=0 time=0.1765629708333333EXTRACT: note_on channel=1 note=72 velocity=0 time=0EXTRACT: note_on channel=0 note=72 velocity=80 time=0.010937529166666666EXTRACT: note_on channel=1 note=72 velocity=64 time=0EXTRACT: note_on channel=0 note=72 velocity=0 time=0.5328139208333332EXTRACT: note_on channel=1 note=72 velocity=0 time=0EXTRACT: note_on channel=0 note=72 velocity=80 time=0.029687579166666665EXTRACT: note_on channel=1 note=72 velocity=64 time=0EXTRACT: note_on channel=0 note=72 velocity=0 time=0.1765629708333333EXTRACT: note_on channel=1 note=72 velocity=0 time=0EXTRACT: note_on channel=0 note=74 velocity=80 time=0.010937529166666666EXTRACT: note_on channel=1 note=74 velocity=64 time=0EXTRACT: note_on channel=0 note=74 velocity=0 time=0.5328139208333332EXTRACT: note_on channel=1 note=74 velocity=0 time=0EXTRACT: note_on channel=0 note=75 velocity=80 time=0.029687579166666665EXTRACT: note_on channel=1 note=75 velocity=64 time=0EXTRACT: note_on channel=1 note=53 velocity=0 time=0.03593759583333333EXTRACT: note_on channel=0 note=75 velocity=0 time=0.140625375EXTRACT: note_on channel=1 note=75 velocity=0 time=0EXTRACT: note_on channel=0 note=75 velocity=80 time=0.010937529166666666EXTRACT: note_on channel=1 note=51 velocity=64 time=0EXTRACT: note_on channel=1 note=58 velocity=64 time=0EXTRACT: note_on channel=1 note=63 velocity=64 time=0EXTRACT: note_on channel=1 note=51 velocity=0 time=1.779692245833333EXTRACT: note_on channel=1 note=58 velocity=0 time=0EXTRACT: note_on channel=1 note=63 velocity=0 time=0EXTRACT: note_on channel=1 note=58 velocity=64 time=0.09531275416666665EXTRACT: note_on channel=1 note=58 velocity=0 time=0.3546884458333333EXTRACT: note_on channel=1 note=67 velocity=64 time=0.020312554166666663EXTRACT: note_on channel=1 note=51 velocity=64 time=0EXTRACT: note_on channel=1 note=58 velocity=64 time=0EXTRACT: note_on channel=1 note=63 velocity=64 time=0EXTRACT: note_on channel=1 note=67 velocity=0 time=0.1765629708333333EXTRACT: note_on channel=1 note=51 velocity=0 time=0EXTRACT: note_on channel=1 note=58 velocity=0 time=0EXTRACT: note_on channel=1 note=63 velocity=0 time=0EXTRACT: note_on channel=1 note=65 velocity=64 time=0.010937529166666666EXTRACT: note_on channel=1 note=50 velocity=64 time=0EXTRACT: note_on channel=1 note=58 velocity=64 time=0EXTRACT: note_on channel=1 note=62 velocity=64 time=0EXTRACT: note_on channel=0 note=75 velocity=0 time=0.4109385958333333EXTRACT: note_on channel=1 note=65 velocity=0 time=0.12187532499999999EXTRACT: note_on channel=1 note=50 velocity=0 time=0EXTRACT: note_on channel=1 note=58 velocity=0 time=0EXTRACT: note_on channel=1 note=62 velocity=0 time=0EXTRACT: note_on channel=1 note=63 velocity=64 time=0.029687579166666665EXTRACT: note_on channel=1 note=48 velocity=64 time=0EXTRACT: note_on channel=1 note=55 velocity=64 time=0EXTRACT: note_on channel=1 note=60 velocity=64 time=0EXTRACT: note_on channel=0 note=74 velocity=80 time=0.5625015EXTRACT: note_on channel=1 note=48 velocity=0 time=0.1484378958333333EXTRACT: note_on channel=1 note=55 velocity=0 time=0EXTRACT: note_on channel=1 note=60 velocity=0 time=0EXTRACT: note_on channel=0 note=74 velocity=0 time=0.028125074999999996EXTRACT: note_on channel=0 note=79 velocity=80 time=0.010937529166666666EXTRACT: note_on channel=1 note=60 velocity=64 time=0EXTRACT: note_on channel=1 note=63 velocity=64 time=0EXTRACT: note_on channel=1 note=67 velocity=64 time=0EXTRACT: note_on channel=0 note=79 velocity=0 time=0.5328139208333332EXTRACT: note_on channel=0 note=81 velocity=80 time=0.029687579166666665EXTRACT: note_on channel=1 note=63 velocity=0 time=0.11093779583333332EXTRACT: note_on channel=1 note=60 velocity=0 time=0.037500099999999995EXTRACT: note_on channel=1 note=63 velocity=0 time=0EXTRACT: note_on channel=1 note=67 velocity=0 time=0EXTRACT: note_on channel=0 note=81 velocity=0 time=0.028125074999999996EXTRACT: note_on channel=0 note=82 velocity=80 time=0.010937529166666666EXTRACT: note_on channel=1 note=75 velocity=64 time=0EXTRACT: note_on channel=1 note=51 velocity=64 time=0EXTRACT: note_on channel=1 note=63 velocity=64 time=0EXTRACT: note_on channel=1 note=51 velocity=0 time=0.7109393958333332EXTRACT: note_on channel=1 note=63 velocity=0 time=0EXTRACT: note_on channel=1 note=58 velocity=64 time=0.03906260416666666EXTRACT: note_on channel=1 note=63 velocity=64 time=0EXTRACT: note_on channel=1 note=67 velocity=64 time=0EXTRACT: note_on channel=0 note=82 velocity=0 time=0.6734392958333333EXTRACT: note_on channel=1 note=75 velocity=0 time=0EXTRACT: note_on channel=1 note=58 velocity=0 time=0.037500099999999995EXTRACT: note_on channel=1 note=63 velocity=0 time=0EXTRACT: note_on channel=1 note=67 velocity=0 time=0EXTRACT: note_on channel=0 note=82 velocity=80 time=0.03906260416666666EXTRACT: note_on channel=1 note=74 velocity=64 time=0EXTRACT: note_on channel=1 note=43 velocity=64 time=0EXTRACT: note_on channel=1 note=55 velocity=64 time=0EXTRACT: note_on channel=1 note=43 velocity=0 time=0.7109393958333332EXTRACT: note_on channel=1 note=55 velocity=0 time=0EXTRACT: note_on channel=1 note=55 velocity=64 time=0.03906260416666666EXTRACT: note_on channel=1 note=58 velocity=64 time=0EXTRACT: note_on channel=1 note=62 velocity=64 time=0EXTRACT: note_on channel=0 note=82 velocity=0 time=0.4953138208333333EXTRACT: note_on channel=0 note=84 velocity=80 time=0.06718767916666667EXTRACT: note_on channel=1 note=74 velocity=0 time=0.11093779583333332EXTRACT: note_on channel=1 note=55 velocity=0 time=0.037500099999999995EXTRACT: note_on channel=1 note=58 velocity=0 time=0EXTRACT: note_on channel=1 note=62 velocity=0 time=0EXTRACT: note_on channel=0 note=84 velocity=0 time=0.028125074999999996EXTRACT: note_on channel=0 note=81 velocity=80 time=0.010937529166666666EXTRACT: note_on channel=1 note=72 velocity=64 time=0EXTRACT: note_on channel=1 note=41 velocity=64 time=0EXTRACT: note_on channel=1 note=53 velocity=64 time=0EXTRACT: note_on channel=1 note=41 velocity=0 time=0.7109393958333332EXTRACT: note_on channel=1 note=53 velocity=0 time=0EXTRACT: note_on channel=1 note=57 velocity=64 time=0.03906260416666666EXTRACT: note_on channel=1 note=60 velocity=64 time=0EXTRACT: note_on channel=1 note=65 velocity=64 time=0EXTRACT: note_on channel=0 note=81 velocity=0 time=0.6734392958333333EXTRACT: note_on channel=1 note=72 velocity=0 time=0EXTRACT: note_on channel=1 note=57 velocity=0 time=0.037500099999999995EXTRACT: note_on channel=1 note=60 velocity=0 time=0EXTRACT: note_on channel=1 note=65 velocity=0 time=0EXTRACT: note_on channel=1 note=63 velocity=64 time=0.03906260416666666EXTRACT: note_on channel=1 note=48 velocity=64 time=0EXTRACT: note_on channel=1 note=55 velocity=64 time=0EXTRACT: note_on channel=1 note=60 velocity=64 time=0EXTRACT: note_on channel=0 note=74 velocity=80 time=0.5625015EXTRACT: note_on channel=1 note=48 velocity=0 time=0.1484378958333333EXTRACT: note_on channel=1 note=55 velocity=0 time=0EXTRACT: note_on channel=1 note=60 velocity=0 time=0EXTRACT: note_on channel=0 note=74 velocity=0 time=0.028125074999999996EXTRACT: note_on channel=0 note=79 velocity=80 time=0.010937529166666666EXTRACT: note_on channel=1 note=60 velocity=64 time=0EXTRACT: note_on channel=1 note=63 velocity=64 time=0EXTRACT: note_on channel=1 note=67 velocity=64 time=0EXTRACT: note_on channel=0 note=79 velocity=0 time=0.3546884458333333EXTRACT: note_on channel=0 note=81 velocity=80 time=0.020312554166666663EXTRACT: note_on channel=1 note=63 velocity=0 time=0.2984382958333333EXTRACT: note_on channel=1 note=60 velocity=0 time=0.037500099999999995EXTRACT: note_on channel=1 note=63 velocity=0 time=0EXTRACT: note_on channel=1 note=67 velocity=0 time=0EXTRACT: note_on channel=0 note=81 velocity=0 time=0.018750049999999997EXTRACT: note_on channel=0 note=82 velocity=80 time=0.020312554166666663EXTRACT: note_on channel=1 note=75 velocity=64 time=0EXTRACT: note_on channel=1 note=51 velocity=64 time=0EXTRACT: note_on channel=1 note=63 velocity=64 time=0EXTRACT: note_on channel=0 note=82 velocity=0 time=0.3546884458333333EXTRACT: note_on channel=0 note=82 velocity=80 time=0.020312554166666663EXTRACT: note_on channel=1 note=51 velocity=0 time=0.3359383958333333EXTRACT: note_on channel=1 note=63 velocity=0 time=0EXTRACT: note_on channel=0 note=82 velocity=0 time=0.018750049999999997EXTRACT: note_on channel=0 note=82 velocity=80 time=0.020312554166666663EXTRACT: note_on channel=1 note=58 velocity=64 time=0EXTRACT: note_on channel=1 note=63 velocity=64 time=0EXTRACT: note_on channel=1 note=67 velocity=64 time=0EXTRACT: note_on channel=1 note=75 velocity=0 time=0.31718834583333333EXTRACT: note_on channel=0 note=82 velocity=0 time=0.037500099999999995EXTRACT: note_on channel=0 note=82 velocity=80 time=0.020312554166666663EXTRACT: note_on channel=1 note=75 velocity=64 time=0EXTRACT: note_on channel=1 note=58 velocity=0 time=0.3359383958333333EXTRACT: note_on channel=1 note=63 velocity=0 time=0EXTRACT: note_on channel=1 note=67 velocity=0 time=0EXTRACT: note_on channel=1 note=41 velocity=64 time=0.03906260416666666EXTRACT: note_on channel=1 note=53 velocity=64 time=0EXTRACT: note_on channel=0 note=82 velocity=0 time=0.3359383958333333EXTRACT: note_on channel=1 note=75 velocity=0 time=0EXTRACT: note_on channel=0 note=77 velocity=80 time=0.03906260416666666EXTRACT: note_on channel=1 note=77 velocity=64 time=0EXTRACT: note_on channel=1 note=41 velocity=0 time=0.3359383958333333EXTRACT: note_on channel=1 note=53 velocity=0 time=0EXTRACT: note_on channel=1 note=63 velocity=64 time=0.03906260416666666EXTRACT: note_on channel=1 note=67 velocity=64 time=0EXTRACT: note_on channel=1 note=70 velocity=64 time=0EXTRACT: note_on channel=1 note=63 velocity=0 time=0.3546884458333333EXTRACT: note_on channel=1 note=67 velocity=0 time=0EXTRACT: note_on channel=1 note=70 velocity=0 time=0EXTRACT: note_on channel=1 note=58 velocity=64 time=0.020312554166666663EXTRACT: note_on channel=0 note=77 velocity=0 time=0.31718834583333333EXTRACT: note_on channel=1 note=77 velocity=0 time=0EXTRACT: note_on channel=1 note=58 velocity=0 time=0.037500099999999995EXTRACT: note_on channel=1 note=60 velocity=64 time=0.020312554166666663EXTRACT: note_on channel=1 note=65 velocity=64 time=0EXTRACT: note_on channel=1 note=69 velocity=64 time=0EXTRACT: note_on channel=1 note=41 velocity=64 time=0EXTRACT: note_on channel=1 note=53 velocity=64 time=0EXTRACT: note_on channel=1 note=60 velocity=0 time=0.7109393958333332EXTRACT: note_on channel=1 note=65 velocity=0 time=0EXTRACT: note_on channel=1 note=69 velocity=0 time=0EXTRACT: note_on channel=1 note=60 velocity=64 time=0.03906260416666666EXTRACT: note_on channel=1 note=65 velocity=64 time=0EXTRACT: note_on channel=1 note=69 velocity=64 time=0EXTRACT: note_on channel=1 note=41 velocity=0 time=0.31718834583333333EXTRACT: note_on channel=1 note=53 velocity=0 time=0EXTRACT: note_on channel=1 note=41 velocity=64 time=0.05781265416666666EXTRACT: note_on channel=1 note=53 velocity=64 time=0EXTRACT: note_on channel=1 note=60 velocity=0 time=0.3359383958333333EXTRACT: note_on channel=1 note=65 velocity=0 time=0EXTRACT: note_on channel=1 note=69 velocity=0 time=0EXTRACT: note_on channel=1 note=41 velocity=0 time=0.018750049999999997EXTRACT: note_on channel=1 note=53 velocity=0 time=0EXTRACT: note_on channel=1 note=74 velocity=64 time=0.020312554166666663EXTRACT: note_on channel=1 note=46 velocity=64 time=0EXTRACT: note_on channel=1 note=58 velocity=64 time=0EXTRACT: note_on channel=1 note=46 velocity=0 time=0.7109393958333332EXTRACT: note_on channel=1 note=58 velocity=0 time=0EXTRACT: note_on channel=1 note=58 velocity=64 time=0.03906260416666666EXTRACT: note_on channel=1 note=62 velocity=64 time=0EXTRACT: note_on channel=1 note=65 velocity=64 time=0EXTRACT: note_on channel=0 note=77 velocity=80 time=0.5625015EXTRACT: note_on channel=1 note=74 velocity=0 time=0.11093779583333332EXTRACT: note_on channel=1 note=58 velocity=0 time=0.037500099999999995EXTRACT: note_on channel=1 note=62 velocity=0 time=0EXTRACT: note_on channel=1 note=65 velocity=0 time=0EXTRACT: note_on channel=0 note=77 velocity=0 time=0.028125074999999996EXTRACT: note_on channel=0 note=77 velocity=80 time=0.010937529166666666EXTRACT: note_on channel=1 note=74 velocity=64 time=0EXTRACT: note_on channel=1 note=46 velocity=64 time=0EXTRACT: note_on channel=1 note=58 velocity=64 time=0EXTRACT: note_on channel=0 note=77 velocity=0 time=0.1765629708333333EXTRACT: note_on channel=0 note=77 velocity=80 time=0.010937529166666666EXTRACT: note_on channel=0 note=77 velocity=0 time=0.1765629708333333EXTRACT: note_on channel=0 note=77 velocity=80 time=0.010937529166666666EXTRACT: note_on channel=1 note=46 velocity=0 time=0.3359383958333333EXTRACT: note_on channel=1 note=58 velocity=0 time=0EXTRACT: note_on channel=0 note=77 velocity=0 time=0.018750049999999997EXTRACT: note_on channel=0 note=82 velocity=80 time=0.020312554166666663EXTRACT: note_on channel=1 note=58 velocity=64 time=0EXTRACT: note_on channel=1 note=62 velocity=64 time=0EXTRACT: note_on channel=1 note=65 velocity=64 time=0EXTRACT: note_on channel=0 note=82 velocity=0 time=0.3546884458333333EXTRACT: note_on channel=0 note=82 velocity=80 time=0.020312554166666663EXTRACT: note_on channel=0 note=82 velocity=0 time=0.1765629708333333EXTRACT: note_on channel=0 note=84 velocity=80 time=0.010937529166666666EXTRACT: note_on channel=1 note=74 velocity=0 time=0.11093779583333332EXTRACT: note_on channel=1 note=58 velocity=0 time=0.037500099999999995EXTRACT: note_on channel=1 note=62 velocity=0 time=0EXTRACT: note_on channel=1 note=65 velocity=0 time=0EXTRACT: note_on channel=1 note=72 velocity=64 time=0.03906260416666666EXTRACT: note_on channel=1 note=41 velocity=64 time=0EXTRACT: note_on channel=1 note=53 velocity=64 time=0EXTRACT: note_on channel=1 note=41 velocity=0 time=0.7109393958333332EXTRACT: note_on channel=1 note=53 velocity=0 time=0EXTRACT: note_on channel=1 note=57 velocity=64 time=0.03906260416666666EXTRACT: note_on channel=1 note=60 velocity=64 time=0EXTRACT: note_on channel=1 note=65 velocity=64 time=0EXTRACT: note_on channel=0 note=84 velocity=0 time=0.6640642708333333EXTRACT: note_on channel=1 note=72 velocity=0 time=0.009375024999999999EXTRACT: note_on channel=1 note=57 velocity=0 time=0.037500099999999995EXTRACT: note_on channel=1 note=60 velocity=0 time=0EXTRACT: note_on channel=1 note=65 velocity=0 time=0EXTRACT: note_on channel=0 note=84 velocity=80 time=0.03906260416666666EXTRACT: note_on channel=1 note=72 velocity=64 time=0EXTRACT: note_on channel=1 note=41 velocity=64 time=0EXTRACT: note_on channel=1 note=53 velocity=64 time=0EXTRACT: note_on channel=0 note=84 velocity=0 time=0.1765629708333333EXTRACT: note_on channel=0 note=84 velocity=80 time=0.010937529166666666EXTRACT: note_on channel=0 note=84 velocity=0 time=0.1765629708333333EXTRACT: note_on channel=0 note=84 velocity=80 time=0.010937529166666666EXTRACT: note_on channel=1 note=41 velocity=0 time=0.3359383958333333EXTRACT: note_on channel=1 note=53 velocity=0 time=0EXTRACT: note_on channel=0 note=84 velocity=0 time=0.018750049999999997EXTRACT: note_on channel=0 note=82 velocity=80 time=0.020312554166666663EXTRACT: note_on channel=1 note=57 velocity=64 time=0EXTRACT: note_on channel=1 note=60 velocity=64 time=0EXTRACT: note_on channel=1 note=65 velocity=64 time=0EXTRACT: note_on channel=0 note=82 velocity=0 time=0.3546884458333333EXTRACT: note_on channel=0 note=81 velocity=80 time=0.020312554166666663EXTRACT: note_on channel=1 note=72 velocity=0 time=0.2984382958333333EXTRACT: note_on channel=1 note=57 velocity=0 time=0.037500099999999995EXTRACT: note_on channel=1 note=60 velocity=0 time=0EXTRACT: note_on channel=1 note=65 velocity=0 time=0EXTRACT: note_on channel=0 note=81 velocity=0 time=0.018750049999999997EXTRACT: note_on channel=0 note=82 velocity=80 time=0.020312554166666663EXTRACT: note_on channel=1 note=70 velocity=64 time=0EXTRACT: note_on channel=1 note=43 velocity=64 time=0EXTRACT: note_on channel=1 note=55 velocity=64 time=0EXTRACT: note_on channel=0 note=82 velocity=0 time=0.1765629708333333EXTRACT: note_on channel=0 note=81 velocity=80 time=0.010937529166666666EXTRACT: note_on channel=0 note=81 velocity=0 time=0.1765629708333333EXTRACT: note_on channel=0 note=79 velocity=80 time=0.010937529166666666EXTRACT: note_on channel=1 note=43 velocity=0 time=0.3359383958333333EXTRACT: note_on channel=1 note=55 velocity=0 time=0EXTRACT: note_on channel=1 note=58 velocity=64 time=0.03906260416666666EXTRACT: note_on channel=1 note=62 velocity=64 time=0EXTRACT: note_on channel=1 note=67 velocity=64 time=0EXTRACT: note_on channel=0 note=79 velocity=0 time=0.3359383958333333EXTRACT: note_on channel=0 note=74 velocity=80 time=0.22656310416666664EXTRACT: note_on channel=1 note=70 velocity=0 time=0.11093779583333332EXTRACT: note_on channel=1 note=58 velocity=0 time=0.037500099999999995EXTRACT: note_on channel=1 note=62 velocity=0 time=0EXTRACT: note_on channel=1 note=67 velocity=0 time=0EXTRACT: note_on channel=0 note=74 velocity=0 time=0.028125074999999996EXTRACT: note_on channel=0 note=82 velocity=80 time=0.010937529166666666EXTRACT: note_on channel=1 note=70 velocity=64 time=0EXTRACT: note_on channel=1 note=43 velocity=64 time=0EXTRACT: note_on channel=1 note=55 velocity=64 time=0EXTRACT: note_on channel=0 note=82 velocity=0 time=0.1765629708333333EXTRACT: note_on channel=0 note=82 velocity=80 time=0.010937529166666666EXTRACT: note_on channel=0 note=82 velocity=0 time=0.1765629708333333EXTRACT: note_on channel=0 note=82 velocity=80 time=0.010937529166666666EXTRACT: note_on channel=1 note=43 velocity=0 time=0.3359383958333333EXTRACT: note_on channel=1 note=55 velocity=0 time=0EXTRACT: note_on channel=0 note=82 velocity=0 time=0.018750049999999997EXTRACT: note_on channel=0 note=84 velocity=80 time=0.020312554166666663EXTRACT: note_on channel=1 note=58 velocity=64 time=0EXTRACT: note_on channel=1 note=62 velocity=64 time=0EXTRACT: note_on channel=1 note=67 velocity=64 time=0EXTRACT: note_on channel=0 note=84 velocity=0 time=0.3546884458333333EXTRACT: note_on channel=0 note=82 velocity=80 time=0.020312554166666663EXTRACT: note_on channel=0 note=82 velocity=0 time=0.1765629708333333EXTRACT: note_on channel=0 note=82 velocity=80 time=0.010937529166666666EXTRACT: note_on channel=1 note=70 velocity=0 time=0.11093779583333332EXTRACT: note_on channel=1 note=58 velocity=0 time=0.037500099999999995EXTRACT: note_on channel=1 note=62 velocity=0 time=0EXTRACT: note_on channel=1 note=67 velocity=0 time=0EXTRACT: note_on channel=1 note=70 velocity=64 time=0.03906260416666666EXTRACT: note_on channel=1 note=51 velocity=64 time=0EXTRACT: note_on channel=1 note=63 velocity=64 time=0EXTRACT: note_on channel=0 note=82 velocity=0 time=0.16718794583333332EXTRACT: note_on channel=0 note=81 velocity=80 time=0.020312554166666663EXTRACT: note_on channel=0 note=81 velocity=0 time=0.1765629708333333EXTRACT: note_on channel=0 note=79 velocity=80 time=0.010937529166666666EXTRACT: note_on channel=1 note=51 velocity=0 time=0.3359383958333333EXTRACT: note_on channel=1 note=63 velocity=0 time=0EXTRACT: note_on channel=0 note=79 velocity=0 time=0.018750049999999997EXTRACT: note_on channel=1 note=63 velocity=64 time=0.020312554166666663EXTRACT: note_on channel=1 note=67 velocity=64 time=0EXTRACT: note_on channel=1 note=70 velocity=64 time=0EXTRACT: note_on channel=1 note=63 velocity=0 time=0.3546884458333333EXTRACT: note_on channel=1 note=67 velocity=0 time=0EXTRACT: note_on channel=1 note=70 velocity=0 time=0EXTRACT: note_on channel=1 note=51 velocity=64 time=0.020312554166666663EXTRACT: note_on channel=0 note=75 velocity=80 time=0.1875005EXTRACT: note_on channel=1 note=70 velocity=0 time=0.11093779583333332EXTRACT: note_on channel=0 note=75 velocity=0 time=0.065625175EXTRACT: note_on channel=0 note=82 velocity=80 time=0.010937529166666666EXTRACT: note_on channel=1 note=70 velocity=64 time=0EXTRACT: note_on channel=1 note=39 velocity=64 time=0EXTRACT: note_on channel=0 note=82 velocity=0 time=0.3546884458333333EXTRACT: note_on channel=0 note=82 velocity=80 time=0.020312554166666663EXTRACT: note_on channel=1 note=51 velocity=0 time=0.31718834583333333EXTRACT: note_on channel=1 note=39 velocity=0 time=0.018750049999999997EXTRACT: note_on channel=0 note=82 velocity=0 time=0.018750049999999997EXTRACT: note_on channel=0 note=84 velocity=80 time=0.020312554166666663EXTRACT: note_on channel=1 note=63 velocity=64 time=0EXTRACT: note_on channel=1 note=67 velocity=64 time=0EXTRACT: note_on channel=1 note=70 velocity=64 time=0EXTRACT: note_on channel=0 note=84 velocity=0 time=0.3546884458333333EXTRACT: note_on channel=0 note=82 velocity=80 time=0.020312554166666663EXTRACT: note_on channel=0 note=82 velocity=0 time=0.1765629708333333EXTRACT: note_on channel=0 note=82 velocity=80 time=0.010937529166666666EXTRACT: note_on channel=1 note=70 velocity=0 time=0.11093779583333332EXTRACT: note_on channel=1 note=63 velocity=0 time=0.037500099999999995EXTRACT: note_on channel=1 note=67 velocity=0 time=0EXTRACT: note_on channel=1 note=70 velocity=0 time=0EXTRACT: note_on channel=1 note=74 velocity=64 time=0.03906260416666666EXTRACT: note_on channel=1 note=46 velocity=64 time=0EXTRACT: note_on channel=1 note=58 velocity=64 time=0EXTRACT: note_on channel=0 note=82 velocity=0 time=0.7015643708333332EXTRACT: note_on channel=1 note=46 velocity=0 time=0.009375024999999999EXTRACT: note_on channel=1 note=58 velocity=0 time=0EXTRACT: note_on channel=1 note=58 velocity=64 time=0.03906260416666666EXTRACT: note_on channel=1 note=62 velocity=64 time=0EXTRACT: note_on channel=1 note=65 velocity=64 time=0EXTRACT: note_on channel=0 note=77 velocity=80 time=0.5625015EXTRACT: note_on channel=1 note=74 velocity=0 time=0.11093779583333332EXTRACT: note_on channel=1 note=58 velocity=0 time=0.037500099999999995EXTRACT: note_on channel=1 note=62 velocity=0 time=0EXTRACT: note_on channel=1 note=65 velocity=0 time=0EXTRACT: note_on channel=0 note=77 velocity=0 time=0.028125074999999996EXTRACT: note_on channel=0 note=77 velocity=80 time=0.010937529166666666EXTRACT: note_on channel=1 note=74 velocity=64 time=0EXTRACT: note_on channel=1 note=46 velocity=64 time=0EXTRACT: note_on channel=1 note=58 velocity=64 time=0EXTRACT: note_on channel=0 note=77 velocity=0 time=0.5328139208333332EXTRACT: note_on channel=0 note=82 velocity=80 time=0.029687579166666665EXTRACT: note_on channel=1 note=46 velocity=0 time=0.1484378958333333EXTRACT: note_on channel=1 note=58 velocity=0 time=0EXTRACT: note_on channel=1 note=58 velocity=64 time=0.03906260416666666EXTRACT: note_on channel=1 note=62 velocity=64 time=0EXTRACT: note_on channel=1 note=65 velocity=64 time=0EXTRACT: note_on channel=0 note=82 velocity=0 time=0.5234388958333333EXTRACT: note_on channel=0 note=84 velocity=80 time=0.03906260416666666EXTRACT: note_on channel=1 note=74 velocity=0 time=0.11093779583333332EXTRACT: note_on channel=1 note=58 velocity=0 time=0.037500099999999995EXTRACT: note_on channel=1 note=62 velocity=0 time=0EXTRACT: note_on channel=1 note=65 velocity=0 time=0EXTRACT: note_on channel=1 note=72 velocity=64 time=0.03906260416666666EXTRACT: note_on channel=1 note=41 velocity=64 time=0EXTRACT: note_on channel=1 note=53 velocity=64 time=0EXTRACT: note_on channel=0 note=84 velocity=0 time=0.16718794583333332EXTRACT: note_on channel=0 note=81 velocity=80 time=0.020312554166666663EXTRACT: note_on channel=1 note=41 velocity=0 time=0.5234388958333333EXTRACT: note_on channel=1 note=53 velocity=0 time=0EXTRACT: note_on channel=0 note=81 velocity=0 time=0.009375024999999999EXTRACT: note_on channel=1 note=57 velocity=64 time=0.029687579166666665EXTRACT: note_on channel=1 note=60 velocity=64 time=0EXTRACT: note_on channel=1 note=65 velocity=64 time=0EXTRACT: note_on channel=0 note=84 velocity=80 time=0.375001EXTRACT: note_on channel=0 note=84 velocity=0 time=0.1765629708333333EXTRACT: note_on channel=0 note=84 velocity=80 time=0.010937529166666666EXTRACT: note_on channel=1 note=72 velocity=0 time=0.11093779583333332EXTRACT: note_on channel=1 note=57 velocity=0 time=0.037500099999999995EXTRACT: note_on channel=1 note=60 velocity=0 time=0EXTRACT: note_on channel=1 note=65 velocity=0 time=0EXTRACT: note_on channel=0 note=84 velocity=0 time=0.028125074999999996EXTRACT: note_on channel=0 note=84 velocity=80 time=0.010937529166666666EXTRACT: note_on channel=1 note=72 velocity=64 time=0EXTRACT: note_on channel=1 note=41 velocity=64 time=0EXTRACT: note_on channel=1 note=53 velocity=64 time=0EXTRACT: note_on channel=0 note=84 velocity=0 time=0.5328139208333332EXTRACT: note_on channel=0 note=84 velocity=80 time=0.029687579166666665EXTRACT: note_on channel=1 note=41 velocity=0 time=0.1484378958333333EXTRACT: note_on channel=1 note=53 velocity=0 time=0EXTRACT: note_on channel=0 note=84 velocity=0 time=0.028125074999999996EXTRACT: note_on channel=0 note=82 velocity=80 time=0.010937529166666666EXTRACT: note_on channel=1 note=57 velocity=64 time=0EXTRACT: note_on channel=1 note=60 velocity=64 time=0EXTRACT: note_on channel=1 note=65 velocity=64 time=0EXTRACT: note_on channel=0 note=82 velocity=0 time=0.5328139208333332EXTRACT: note_on channel=0 note=81 velocity=80 time=0.029687579166666665EXTRACT: note_on channel=1 note=72 velocity=0 time=0.11093779583333332EXTRACT: note_on channel=1 note=57 velocity=0 time=0.037500099999999995EXTRACT: note_on channel=1 note=60 velocity=0 time=0EXTRACT: note_on channel=1 note=65 velocity=0 time=0EXTRACT: note_on channel=0 note=81 velocity=0 time=0.028125074999999996EXTRACT: note_on channel=0 note=82 velocity=80 time=0.010937529166666666EXTRACT: note_on channel=1 note=70 velocity=64 time=0EXTRACT: note_on channel=1 note=43 velocity=64 time=0EXTRACT: note_on channel=1 note=55 velocity=64 time=0EXTRACT: note_on channel=0 note=82 velocity=0 time=0.1765629708333333EXTRACT: note_on channel=0 note=81 velocity=80 time=0.010937529166666666EXTRACT: note_on channel=0 note=81 velocity=0 time=0.1765629708333333EXTRACT: note_on channel=0 note=79 velocity=80 time=0.010937529166666666EXTRACT: note_on channel=1 note=43 velocity=0 time=0.3359383958333333EXTRACT: note_on channel=1 note=55 velocity=0 time=0EXTRACT: note_on channel=1 note=58 velocity=64 time=0.03906260416666666EXTRACT: note_on channel=1 note=62 velocity=64 time=0EXTRACT: note_on channel=1 note=67 velocity=64 time=0EXTRACT: note_on channel=0 note=79 velocity=0 time=0.3359383958333333EXTRACT: note_on channel=0 note=74 velocity=80 time=0.22656310416666664EXTRACT: note_on channel=1 note=70 velocity=0 time=0.11093779583333332EXTRACT: note_on channel=1 note=58 velocity=0 time=0.037500099999999995EXTRACT: note_on channel=1 note=62 velocity=0 time=0EXTRACT: note_on channel=1 note=67 velocity=0 time=0EXTRACT: note_on channel=0 note=74 velocity=0 time=0.028125074999999996EXTRACT: note_on channel=0 note=82 velocity=80 time=0.010937529166666666EXTRACT: note_on channel=1 note=70 velocity=64 time=0EXTRACT: note_on channel=1 note=43 velocity=64 time=0EXTRACT: note_on channel=1 note=55 velocity=64 time=0EXTRACT: note_on channel=0 note=82 velocity=0 time=0.3546884458333333EXTRACT: note_on channel=0 note=82 velocity=80 time=0.020312554166666663EXTRACT: note_on channel=1 note=43 velocity=0 time=0.3359383958333333EXTRACT: note_on channel=1 note=55 velocity=0 time=0EXTRACT: note_on channel=0 note=82 velocity=0 time=0.018750049999999997EXTRACT: note_on channel=0 note=84 velocity=80 time=0.020312554166666663EXTRACT: note_on channel=1 note=58 velocity=64 time=0EXTRACT: note_on channel=1 note=62 velocity=64 time=0EXTRACT: note_on channel=1 note=67 velocity=64 time=0EXTRACT: note_on channel=0 note=84 velocity=0 time=0.5328139208333332EXTRACT: note_on channel=0 note=81 velocity=80 time=0.029687579166666665EXTRACT: note_on channel=1 note=70 velocity=0 time=0.11093779583333332EXTRACT: note_on channel=1 note=58 velocity=0 time=0.037500099999999995EXTRACT: note_on channel=1 note=62 velocity=0 time=0EXTRACT: note_on channel=1 note=67 velocity=0 time=0EXTRACT: note_on channel=0 note=81 velocity=0 time=0.028125074999999996EXTRACT: note_on channel=0 note=82 velocity=80 time=0.010937529166666666EXTRACT: note_on channel=1 note=70 velocity=64 time=0EXTRACT: note_on channel=1 note=51 velocity=64 time=0EXTRACT: note_on channel=1 note=63 velocity=64 time=0EXTRACT: note_on channel=1 note=51 velocity=0 time=0.7109393958333332EXTRACT: note_on channel=1 note=63 velocity=0 time=0EXTRACT: note_on channel=1 note=63 velocity=64 time=0.03906260416666666EXTRACT: note_on channel=1 note=67 velocity=64 time=0EXTRACT: note_on channel=1 note=70 velocity=64 time=0EXTRACT: note_on channel=1 note=63 velocity=0 time=0.3546884458333333EXTRACT: note_on channel=1 note=67 velocity=0 time=0EXTRACT: note_on channel=1 note=70 velocity=0 time=0EXTRACT: note_on channel=1 note=51 velocity=64 time=0.020312554166666663EXTRACT: note_on channel=0 note=82 velocity=0 time=0.2984382958333333EXTRACT: note_on channel=1 note=70 velocity=0 time=0EXTRACT: note_on channel=0 note=82 velocity=80 time=0.07656270416666666EXTRACT: note_on channel=1 note=70 velocity=64 time=0EXTRACT: note_on channel=1 note=39 velocity=64 time=0EXTRACT: note_on channel=0 note=82 velocity=0 time=0.1765629708333333EXTRACT: note_on channel=0 note=82 velocity=80 time=0.010937529166666666EXTRACT: note_on channel=0 note=82 velocity=0 time=0.1765629708333333EXTRACT: note_on channel=0 note=82 velocity=80 time=0.010937529166666666EXTRACT: note_on channel=1 note=51 velocity=0 time=0.31718834583333333EXTRACT: note_on channel=1 note=39 velocity=0 time=0.018750049999999997EXTRACT: note_on channel=0 note=82 velocity=0 time=0.018750049999999997EXTRACT: note_on channel=0 note=84 velocity=80 time=0.020312554166666663EXTRACT: note_on channel=1 note=63 velocity=64 time=0EXTRACT: note_on channel=1 note=67 velocity=64 time=0EXTRACT: note_on channel=1 note=70 velocity=64 time=0EXTRACT: note_on channel=0 note=84 velocity=0 time=0.3546884458333333EXTRACT: note_on channel=0 note=82 velocity=80 time=0.020312554166666663EXTRACT: note_on channel=0 note=82 velocity=0 time=0.1765629708333333EXTRACT: note_on channel=0 note=82 velocity=80 time=0.010937529166666666EXTRACT: note_on channel=1 note=70 velocity=0 time=0.11093779583333332EXTRACT: note_on channel=1 note=63 velocity=0 time=0.037500099999999995EXTRACT: note_on channel=1 note=67 velocity=0 time=0EXTRACT: note_on channel=1 note=70 velocity=0 time=0EXTRACT: note_on channel=1 note=74 velocity=64 time=0.03906260416666666EXTRACT: note_on channel=1 note=46 velocity=64 time=0EXTRACT: note_on channel=1 note=58 velocity=64 time=0EXTRACT: note_on channel=1 note=46 velocity=0 time=0.7109393958333332EXTRACT: note_on channel=1 note=58 velocity=0 time=0EXTRACT: note_on channel=1 note=62 velocity=64 time=0.03906260416666666EXTRACT: note_on channel=1 note=65 velocity=64 time=0EXTRACT: note_on channel=1 note=62 velocity=0 time=0.3546884458333333EXTRACT: note_on channel=1 note=65 velocity=0 time=0EXTRACT: note_on channel=1 note=58 velocity=64 time=0.020312554166666663EXTRACT: note_on channel=0 note=82 velocity=0 time=0.28906327083333333EXTRACT: note_on channel=1 note=74 velocity=0 time=0.009375024999999999EXTRACT: note_on channel=1 note=58 velocity=0 time=0.05625014999999999EXTRACT: note_on channel=1 note=70 velocity=64 time=0.020312554166666663EXTRACT: note_on channel=1 note=62 velocity=64 time=0EXTRACT: note_on channel=1 note=65 velocity=64 time=0EXTRACT: note_on channel=1 note=62 velocity=0 time=0.3546884458333333EXTRACT: note_on channel=1 note=65 velocity=0 time=0EXTRACT: note_on channel=1 note=58 velocity=64 time=0.020312554166666663EXTRACT: note_on channel=1 note=70 velocity=0 time=0.3359383958333333EXTRACT: note_on channel=1 note=58 velocity=0 time=0.018750049999999997EXTRACT: note_on channel=1 note=62 velocity=64 time=0.020312554166666663EXTRACT: note_on channel=1 note=65 velocity=64 time=0EXTRACT: note_on channel=1 note=70 velocity=64 time=0EXTRACT: note_on channel=1 note=46 velocity=64 time=0EXTRACT: note_on channel=1 note=58 velocity=64 time=0EXTRACT: note_on channel=1 note=62 velocity=0 time=0.1765629708333333EXTRACT: note_on channel=1 note=65 velocity=0 time=0EXTRACT: note_on channel=1 note=70 velocity=0 time=0EXTRACT: note_on channel=1 note=46 velocity=0 time=0EXTRACT: note_on channel=1 note=58 velocity=0 time=0EXTRACT: note_on channel=1 note=60 velocity=64 time=0.010937529166666666EXTRACT: note_on channel=1 note=65 velocity=64 time=0EXTRACT: note_on channel=1 note=69 velocity=64 time=0EXTRACT: note_on channel=1 note=57 velocity=64 time=0EXTRACT: note_on channel=1 note=60 velocity=0 time=0.5328139208333332EXTRACT: note_on channel=1 note=65 velocity=0 time=0EXTRACT: note_on channel=1 note=69 velocity=0 time=0EXTRACT: note_on channel=1 note=57 velocity=0 time=0EXTRACT: note_on channel=1 note=70 velocity=64 time=0.029687579166666665EXTRACT: note_on channel=1 note=43 velocity=64 time=0EXTRACT: note_on channel=1 note=55 velocity=64 time=0EXTRACT: note_on channel=0 note=74 velocity=80 time=0.5625015EXTRACT: note_on channel=1 note=43 velocity=0 time=0.1484378958333333EXTRACT: note_on channel=1 note=55 velocity=0 time=0EXTRACT: note_on channel=0 note=74 velocity=0 time=0.028125074999999996EXTRACT: note_on channel=0 note=74 velocity=80 time=0.010937529166666666EXTRACT: note_on channel=1 note=67 velocity=64 time=0EXTRACT: note_on channel=1 note=70 velocity=64 time=0EXTRACT: note_on channel=0 note=74 velocity=0 time=0.3546884458333333EXTRACT: note_on channel=1 note=67 velocity=0 time=0EXTRACT: note_on channel=1 note=70 velocity=0 time=0EXTRACT: note_on channel=0 note=74 velocity=80 time=0.020312554166666663EXTRACT: note_on channel=1 note=62 velocity=64 time=0EXTRACT: note_on channel=0 note=74 velocity=0 time=0.3546884458333333EXTRACT: note_on channel=1 note=62 velocity=0 time=0EXTRACT: note_on channel=0 note=79 velocity=80 time=0.020312554166666663EXTRACT: note_on channel=1 note=67 velocity=64 time=0EXTRACT: note_on channel=1 note=70 velocity=64 time=0EXTRACT: note_on channel=0 note=79 velocity=0 time=0.3546884458333333EXTRACT: note_on channel=0 note=79 velocity=80 time=0.020312554166666663EXTRACT: note_on channel=1 note=67 velocity=0 time=0.3359383958333333EXTRACT: note_on channel=1 note=70 velocity=0 time=0EXTRACT: note_on channel=0 note=79 velocity=0 time=0.018750049999999997EXTRACT: note_on channel=0 note=81 velocity=80 time=0.020312554166666663EXTRACT: note_on channel=1 note=67 velocity=64 time=0EXTRACT: note_on channel=1 note=70 velocity=64 time=0EXTRACT: note_on channel=0 note=81 velocity=0 time=0.3546884458333333EXTRACT: note_on channel=1 note=67 velocity=0 time=0EXTRACT: note_on channel=1 note=70 velocity=0 time=0EXTRACT: note_on channel=0 note=82 velocity=80 time=0.020312554166666663EXTRACT: note_on channel=1 note=62 velocity=64 time=0EXTRACT: note_on channel=0 note=82 velocity=0 time=0.1765629708333333EXTRACT: note_on channel=0 note=82 velocity=80 time=0.010937529166666666EXTRACT: note_on channel=1 note=70 velocity=0 time=0.03593759583333333EXTRACT: note_on channel=1 note=62 velocity=0 time=0.13125035EXTRACT: note_on channel=1 note=70 velocity=64 time=0.020312554166666663EXTRACT: note_on channel=1 note=46 velocity=64 time=0EXTRACT: note_on channel=1 note=58 velocity=64 time=0EXTRACT: note_on channel=0 note=82 velocity=0 time=0.3453134208333333EXTRACT: note_on channel=0 note=84 velocity=80 time=0.029687579166666665EXTRACT: note_on channel=1 note=46 velocity=0 time=0.3359383958333333EXTRACT: note_on channel=1 note=58 velocity=0 time=0EXTRACT: note_on channel=1 note=70 velocity=64 time=0.03906260416666666EXTRACT: note_on channel=1 note=74 velocity=64 time=0EXTRACT: note_on channel=1 note=70 velocity=0 time=0.3546884458333333EXTRACT: note_on channel=1 note=74 velocity=0 time=0EXTRACT: note_on channel=1 note=65 velocity=64 time=0.020312554166666663EXTRACT: note_on channel=1 note=70 velocity=0 time=0.2984382958333333EXTRACT: note_on channel=0 note=84 velocity=0 time=0.018750049999999997EXTRACT: note_on channel=1 note=65 velocity=0 time=0.037500099999999995EXTRACT: note_on channel=1 note=58 velocity=64 time=0.020312554166666663EXTRACT: note_on channel=1 note=58 velocity=0 time=0.3546884458333333EXTRACT: note_on channel=1 note=74 velocity=64 time=0.020312554166666663EXTRACT: note_on channel=1 note=65 velocity=64 time=0EXTRACT: note_on channel=1 note=74 velocity=0 time=0.3546884458333333EXTRACT: note_on channel=1 note=65 velocity=0 time=0EXTRACT: note_on channel=1 note=77 velocity=64 time=0.020312554166666663EXTRACT: note_on channel=1 note=70 velocity=64 time=0EXTRACT: note_on channel=1 note=77 velocity=0 time=0.3546884458333333EXTRACT: note_on channel=1 note=82 velocity=64 time=0.020312554166666663EXTRACT: note_on channel=1 note=70 velocity=0 time=0.3359383958333333EXTRACT: note_on channel=1 note=82 velocity=0 time=0.018750049999999997EXTRACT: note_on channel=1 note=69 velocity=64 time=0.020312554166666663EXTRACT: note_on channel=1 note=77 velocity=64 time=0EXTRACT: note_on channel=1 note=81 velocity=64 time=0EXTRACT: note_on channel=1 note=41 velocity=64 time=0EXTRACT: note_on channel=1 note=53 velocity=64 time=0EXTRACT: note_on channel=1 note=41 velocity=0 time=0.3546884458333333EXTRACT: note_on channel=1 note=53 velocity=0 time=0EXTRACT: note_on channel=1 note=60 velocity=64 time=0.020312554166666663EXTRACT: note_on channel=1 note=69 velocity=0 time=0.15781292083333331EXTRACT: note_on channel=1 note=77 velocity=0 time=0EXTRACT: note_on channel=1 note=81 velocity=0 time=0EXTRACT: note_on channel=0 note=77 velocity=80 time=0.029687579166666665EXTRACT: note_on channel=1 note=77 velocity=64 time=0EXTRACT: note_on channel=1 note=60 velocity=0 time=0.16718794583333332EXTRACT: note_on channel=0 note=77 velocity=0 time=0.009375024999999999EXTRACT: note_on channel=1 note=77 velocity=0 time=0EXTRACT: note_on channel=0 note=84 velocity=80 time=0.010937529166666666EXTRACT: note_on channel=1 note=77 velocity=64 time=0EXTRACT: note_on channel=1 note=65 velocity=64 time=0EXTRACT: note_on channel=1 note=69 velocity=64 time=0EXTRACT: note_on channel=0 note=84 velocity=0 time=0.3546884458333333EXTRACT: note_on channel=0 note=84 velocity=80 time=0.020312554166666663EXTRACT: note_on channel=1 note=77 velocity=0 time=0.3359383958333333EXTRACT: note_on channel=1 note=65 velocity=0 time=0EXTRACT: note_on channel=1 note=69 velocity=0 time=0EXTRACT: note_on channel=0 note=84 velocity=0 time=0.018750049999999997EXTRACT: note_on channel=0 note=84 velocity=80 time=0.020312554166666663EXTRACT: note_on channel=1 note=77 velocity=64 time=0EXTRACT: note_on channel=1 note=41 velocity=64 time=0EXTRACT: note_on channel=1 note=53 velocity=64 time=0EXTRACT: note_on channel=0 note=84 velocity=0 time=0.1765629708333333EXTRACT: note_on channel=0 note=84 velocity=80 time=0.010937529166666666EXTRACT: note_on channel=1 note=41 velocity=0 time=0.16718794583333332EXTRACT: note_on channel=1 note=53 velocity=0 time=0EXTRACT: note_on channel=0 note=84 velocity=0 time=0.009375024999999999EXTRACT: note_on channel=0 note=84 velocity=80 time=0.010937529166666666EXTRACT: note_on channel=1 note=60 velocity=64 time=0EXTRACT: note_on channel=0 note=84 velocity=0 time=0.3546884458333333EXTRACT: note_on channel=1 note=60 velocity=0 time=0EXTRACT: note_on channel=0 note=82 velocity=80 time=0.020312554166666663EXTRACT: note_on channel=1 note=65 velocity=64 time=0EXTRACT: note_on channel=1 note=69 velocity=64 time=0EXTRACT: note_on channel=0 note=82 velocity=0 time=0.3546884458333333EXTRACT: note_on channel=1 note=65 velocity=0 time=0EXTRACT: note_on channel=1 note=69 velocity=0 time=0EXTRACT: note_on channel=0 note=81 velocity=80 time=0.020312554166666663EXTRACT: note_on channel=1 note=60 velocity=64 time=0EXTRACT: note_on channel=1 note=77 velocity=0 time=0.2984382958333333EXTRACT: note_on channel=1 note=60 velocity=0 time=0.05625014999999999EXTRACT: note_on channel=1 note=63 velocity=64 time=0.020312554166666663EXTRACT: note_on channel=1 note=48 velocity=64 time=0EXTRACT: note_on channel=0 note=81 velocity=0 time=0.3359383958333333EXTRACT: note_on channel=1 note=48 velocity=0 time=0.018750049999999997EXTRACT: note_on channel=0 note=79 velocity=80 time=0.020312554166666663EXTRACT: note_on channel=1 note=55 velocity=64 time=0EXTRACT: note_on channel=1 note=63 velocity=0 time=0.3359383958333333EXTRACT: note_on channel=1 note=55 velocity=0 time=0.018750049999999997EXTRACT: note_on channel=1 note=60 velocity=64 time=0.020312554166666663EXTRACT: note_on channel=1 note=63 velocity=64 time=0EXTRACT: note_on channel=1 note=60 velocity=0 time=0.3546884458333333EXTRACT: note_on channel=1 note=63 velocity=0 time=0EXTRACT: note_on channel=1 note=72 velocity=64 time=0.020312554166666663EXTRACT: note_on channel=1 note=55 velocity=64 time=0EXTRACT: note_on channel=1 note=72 velocity=0 time=0.3546884458333333EXTRACT: note_on channel=1 note=55 velocity=0 time=0EXTRACT: note_on channel=1 note=74 velocity=64 time=0.020312554166666663EXTRACT: note_on channel=1 note=48 velocity=64 time=0EXTRACT: note_on channel=1 note=74 velocity=0 time=0.3546884458333333EXTRACT: note_on channel=1 note=48 velocity=0 time=0EXTRACT: note_on channel=1 note=75 velocity=64 time=0.020312554166666663EXTRACT: note_on channel=1 note=55 velocity=64 time=0EXTRACT: note_on channel=1 note=75 velocity=0 time=0.3546884458333333EXTRACT: note_on channel=1 note=55 velocity=0 time=0EXTRACT: note_on channel=1 note=74 velocity=64 time=0.020312554166666663EXTRACT: note_on channel=1 note=60 velocity=64 time=0EXTRACT: note_on channel=1 note=63 velocity=64 time=0EXTRACT: note_on channel=1 note=74 velocity=0 time=0.3546884458333333EXTRACT: note_on channel=1 note=72 velocity=64 time=0.020312554166666663EXTRACT: note_on channel=0 note=79 velocity=0 time=0.2421881458333333EXTRACT: note_on channel=1 note=60 velocity=0 time=0.09375025EXTRACT: note_on channel=1 note=63 velocity=0 time=0EXTRACT: note_on channel=1 note=72 velocity=0 time=0.018750049999999997EXTRACT: note_on channel=1 note=67 velocity=64 time=0.020312554166666663EXTRACT: note_on channel=1 note=70 velocity=64 time=0EXTRACT: note_on channel=1 note=43 velocity=64 time=0EXTRACT: note_on channel=1 note=55 velocity=64 time=0EXTRACT: note_on channel=0 note=74 velocity=80 time=0.5625015EXTRACT: note_on channel=1 note=67 velocity=0 time=0.1484378958333333EXTRACT: note_on channel=1 note=70 velocity=0 time=0EXTRACT: note_on channel=1 note=43 velocity=0 time=0EXTRACT: note_on channel=1 note=55 velocity=0 time=0EXTRACT: note_on channel=0 note=74 velocity=0 time=0.028125074999999996EXTRACT: note_on channel=0 note=86 velocity=80 time=0.010937529166666666EXTRACT: note_on channel=1 note=79 velocity=64 time=0EXTRACT: note_on channel=1 note=67 velocity=64 time=0EXTRACT: note_on channel=1 note=70 velocity=64 time=0EXTRACT: note_on channel=0 note=86 velocity=0 time=0.3546884458333333EXTRACT: note_on channel=1 note=67 velocity=0 time=0EXTRACT: note_on channel=1 note=70 velocity=0 time=0EXTRACT: note_on channel=0 note=87 velocity=80 time=0.020312554166666663EXTRACT: note_on channel=1 note=62 velocity=64 time=0EXTRACT: note_on channel=0 note=87 velocity=0 time=0.3546884458333333EXTRACT: note_on channel=1 note=62 velocity=0 time=0EXTRACT: note_on channel=0 note=86 velocity=80 time=0.020312554166666663EXTRACT: note_on channel=1 note=67 velocity=64 time=0EXTRACT: note_on channel=1 note=70 velocity=64 time=0EXTRACT: note_on channel=0 note=86 velocity=0 time=0.3546884458333333EXTRACT: note_on channel=0 note=87 velocity=80 time=0.020312554166666663EXTRACT: note_on channel=1 note=79 velocity=0 time=0.2984382958333333EXTRACT: note_on channel=1 note=67 velocity=0 time=0.037500099999999995EXTRACT: note_on channel=1 note=70 velocity=0 time=0EXTRACT: note_on channel=0 note=87 velocity=0 time=0.018750049999999997EXTRACT: note_on channel=0 note=86 velocity=80 time=0.020312554166666663EXTRACT: note_on channel=1 note=67 velocity=64 time=0EXTRACT: note_on channel=1 note=70 velocity=64 time=0EXTRACT: note_on channel=0 note=86 velocity=0 time=0.1765629708333333EXTRACT: note_on channel=0 note=84 velocity=80 time=0.010937529166666666EXTRACT: note_on channel=1 note=67 velocity=0 time=0.16718794583333332EXTRACT: note_on channel=1 note=70 velocity=0 time=0EXTRACT: note_on channel=0 note=84 velocity=0 time=0.009375024999999999EXTRACT: note_on channel=0 note=82 velocity=80 time=0.010937529166666666EXTRACT: note_on channel=1 note=62 velocity=64 time=0EXTRACT: note_on channel=0 note=82 velocity=0 time=0.3546884458333333EXTRACT: note_on channel=1 note=62 velocity=0 time=0EXTRACT: note_on channel=0 note=84 velocity=80 time=0.020312554166666663EXTRACT: note_on channel=1 note=70 velocity=64 time=0EXTRACT: note_on channel=1 note=46 velocity=64 time=0EXTRACT: note_on channel=1 note=58 velocity=64 time=0EXTRACT: note_on channel=0 note=84 velocity=0 time=0.5328139208333332EXTRACT: note_on channel=0 note=86 velocity=80 time=0.029687579166666665EXTRACT: note_on channel=1 note=46 velocity=0 time=0.1484378958333333EXTRACT: note_on channel=1 note=58 velocity=0 time=0EXTRACT: note_on channel=1 note=70 velocity=64 time=0.03906260416666666EXTRACT: note_on channel=1 note=74 velocity=64 time=0EXTRACT: note_on channel=1 note=70 velocity=0 time=0.3546884458333333EXTRACT: note_on channel=1 note=74 velocity=0 time=0EXTRACT: note_on channel=1 note=65 velocity=64 time=0.020312554166666663EXTRACT: note_on channel=1 note=70 velocity=0 time=0.2984382958333333EXTRACT: note_on channel=0 note=86 velocity=0 time=0.028125074999999996EXTRACT: note_on channel=1 note=65 velocity=0 time=0.028125074999999996EXTRACT: note_on channel=1 note=58 velocity=64 time=0.020312554166666663EXTRACT: note_on channel=1 note=58 velocity=0 time=0.3546884458333333EXTRACT: note_on channel=1 note=74 velocity=64 time=0.020312554166666663EXTRACT: note_on channel=1 note=65 velocity=64 time=0EXTRACT: note_on channel=1 note=74 velocity=0 time=0.3546884458333333EXTRACT: note_on channel=1 note=65 velocity=0 time=0EXTRACT: note_on channel=1 note=77 velocity=64 time=0.020312554166666663EXTRACT: note_on channel=1 note=70 velocity=64 time=0EXTRACT: note_on channel=1 note=77 velocity=0 time=0.3546884458333333EXTRACT: note_on channel=1 note=82 velocity=64 time=0.020312554166666663EXTRACT: note_on channel=1 note=70 velocity=0 time=0.3359383958333333EXTRACT: note_on channel=1 note=82 velocity=0 time=0.018750049999999997EXTRACT: note_on channel=1 note=69 velocity=64 time=0.020312554166666663EXTRACT: note_on channel=1 note=77 velocity=64 time=0EXTRACT: note_on channel=1 note=81 velocity=64 time=0EXTRACT: note_on channel=1 note=41 velocity=64 time=0EXTRACT: note_on channel=1 note=53 velocity=64 time=0EXTRACT: note_on channel=1 note=41 velocity=0 time=0.3546884458333333EXTRACT: note_on channel=1 note=53 velocity=0 time=0EXTRACT: note_on channel=1 note=60 velocity=64 time=0.020312554166666663EXTRACT: note_on channel=1 note=69 velocity=0 time=0.15781292083333331EXTRACT: note_on channel=1 note=77 velocity=0 time=0EXTRACT: note_on channel=1 note=81 velocity=0 time=0EXTRACT: note_on channel=0 note=89 velocity=80 time=0.029687579166666665EXTRACT: note_on channel=1 note=81 velocity=64 time=0EXTRACT: note_on channel=1 note=60 velocity=0 time=0.16718794583333332EXTRACT: note_on channel=0 note=89 velocity=0 time=0.009375024999999999EXTRACT: note_on channel=1 note=81 velocity=0 time=0EXTRACT: note_on channel=0 note=89 velocity=80 time=0.010937529166666666EXTRACT: note_on channel=1 note=81 velocity=64 time=0EXTRACT: note_on channel=1 note=65 velocity=64 time=0EXTRACT: note_on channel=1 note=69 velocity=64 time=0EXTRACT: note_on channel=0 note=89 velocity=0 time=0.1765629708333333EXTRACT: note_on channel=1 note=81 velocity=0 time=0EXTRACT: note_on channel=0 note=89 velocity=80 time=0.010937529166666666EXTRACT: note_on channel=1 note=81 velocity=64 time=0EXTRACT: note_on channel=0 note=89 velocity=0 time=0.3546884458333333EXTRACT: note_on channel=1 note=81 velocity=0 time=0EXTRACT: note_on channel=0 note=89 velocity=80 time=0.020312554166666663EXTRACT: note_on channel=1 note=81 velocity=64 time=0EXTRACT: note_on channel=1 note=65 velocity=0 time=0.1484378958333333EXTRACT: note_on channel=1 note=69 velocity=0 time=0EXTRACT: note_on channel=1 note=41 velocity=64 time=0.03906260416666666EXTRACT: note_on channel=1 note=53 velocity=64 time=0EXTRACT: note_on channel=1 note=41 velocity=0 time=0.3546884458333333EXTRACT: note_on channel=1 note=53 velocity=0 time=0EXTRACT: note_on channel=1 note=60 velocity=64 time=0.020312554166666663EXTRACT: note_on channel=0 note=89 velocity=0 time=0.3265633708333333EXTRACT: note_on channel=1 note=81 velocity=0 time=0EXTRACT: note_on channel=1 note=60 velocity=0 time=0.028125074999999996EXTRACT: note_on channel=0 note=89 velocity=80 time=0.020312554166666663EXTRACT: note_on channel=1 note=81 velocity=64 time=0EXTRACT: note_on channel=1 note=65 velocity=64 time=0EXTRACT: note_on channel=1 note=69 velocity=64 time=0EXTRACT: note_on channel=0 note=89 velocity=0 time=0.23593812916666665EXTRACT: note_on channel=1 note=81 velocity=0 time=0EXTRACT: note_on channel=0 note=87 velocity=80 time=0.014062537499999998EXTRACT: note_on channel=1 note=79 velocity=64 time=0EXTRACT: note_on channel=1 note=65 velocity=0 time=0.10468777916666666EXTRACT: note_on channel=1 note=69 velocity=0 time=0EXTRACT: note_on channel=1 note=60 velocity=64 time=0.020312554166666663EXTRACT: note_on channel=0 note=87 velocity=0 time=0.11093779583333332EXTRACT: note_on channel=1 note=79 velocity=0 time=0EXTRACT: note_on channel=0 note=86 velocity=80 time=0.014062537499999998EXTRACT: note_on channel=1 note=77 velocity=64 time=0EXTRACT: note_on channel=1 note=60 velocity=0 time=0.22968811249999999EXTRACT: note_on channel=0 note=86 velocity=0 time=0.006250016666666666EXTRACT: note_on channel=1 note=77 velocity=0 time=0EXTRACT: note_on channel=0 note=82 velocity=80 time=0.014062537499999998EXTRACT: note_on channel=1 note=63 velocity=64 time=0EXTRACT: note_on channel=1 note=74 velocity=64 time=0EXTRACT: note_on channel=1 note=51 velocity=64 time=0EXTRACT: note_on channel=0 note=82 velocity=0 time=0.3546884458333333EXTRACT: note_on channel=1 note=51 velocity=0 time=0EXTRACT: note_on channel=0 note=81 velocity=80 time=0.020312554166666663EXTRACT: note_on channel=1 note=58 velocity=64 time=0EXTRACT: note_on channel=1 note=63 velocity=0 time=0.3359383958333333EXTRACT: note_on channel=1 note=74 velocity=0 time=0EXTRACT: note_on channel=0 note=81 velocity=0 time=0.018750049999999997EXTRACT: note_on channel=1 note=58 velocity=0 time=0EXTRACT: note_on channel=0 note=79 velocity=80 time=0.020312554166666663EXTRACT: note_on channel=1 note=75 velocity=64 time=0EXTRACT: note_on channel=1 note=63 velocity=64 time=0EXTRACT: note_on channel=1 note=67 velocity=64 time=0EXTRACT: note_on channel=1 note=63 velocity=0 time=0.3546884458333333EXTRACT: note_on channel=1 note=67 velocity=0 time=0EXTRACT: note_on channel=1 note=58 velocity=64 time=0.020312554166666663EXTRACT: note_on channel=1 note=75 velocity=0 time=0.3359383958333333EXTRACT: note_on channel=1 note=58 velocity=0 time=0.018750049999999997EXTRACT: note_on channel=1 note=58 velocity=64 time=0.020312554166666663EXTRACT: note_on channel=1 note=63 velocity=64 time=0EXTRACT: note_on channel=1 note=67 velocity=64 time=0EXTRACT: note_on channel=1 note=51 velocity=64 time=0EXTRACT: note_on channel=1 note=58 velocity=0 time=0.7109393958333332EXTRACT: note_on channel=1 note=63 velocity=0 time=0EXTRACT: note_on channel=1 note=67 velocity=0 time=0EXTRACT: note_on channel=1 note=51 velocity=0 time=0EXTRACT: note_on channel=1 note=58 velocity=64 time=0.03906260416666666EXTRACT: note_on channel=1 note=63 velocity=64 time=0EXTRACT: note_on channel=1 note=67 velocity=64 time=0EXTRACT: note_on channel=1 note=51 velocity=64 time=0EXTRACT: note_on channel=1 note=58 velocity=0 time=0.1765629708333333EXTRACT: note_on channel=1 note=63 velocity=0 time=0EXTRACT: note_on channel=1 note=67 velocity=0 time=0EXTRACT: note_on channel=1 note=51 velocity=0 time=0EXTRACT: note_on channel=1 note=58 velocity=64 time=0.010937529166666666EXTRACT: note_on channel=1 note=62 velocity=64 time=0EXTRACT: note_on channel=1 note=65 velocity=64 time=0EXTRACT: note_on channel=1 note=50 velocity=64 time=0EXTRACT: note_on channel=0 note=79 velocity=0 time=0.4484386958333333EXTRACT: note_on channel=1 note=58 velocity=0 time=0.084375225EXTRACT: note_on channel=1 note=62 velocity=0 time=0EXTRACT: note_on channel=1 note=65 velocity=0 time=0EXTRACT: note_on channel=1 note=50 velocity=0 time=0EXTRACT: note_on channel=1 note=55 velocity=64 time=0.029687579166666665EXTRACT: note_on channel=1 note=63 velocity=64 time=0EXTRACT: note_on channel=1 note=48 velocity=64 time=0EXTRACT: note_on channel=1 note=48 velocity=0 time=0.3546884458333333EXTRACT: note_on channel=1 note=55 velocity=64 time=0.020312554166666663EXTRACT: note_on channel=0 note=74 velocity=80 time=0.1875005EXTRACT: note_on channel=1 note=55 velocity=0 time=0.16718794583333332EXTRACT: note_on channel=0 note=74 velocity=0 time=0.009375024999999999EXTRACT: note_on channel=0 note=79 velocity=80 time=0.010937529166666666EXTRACT: note_on channel=1 note=63 velocity=64 time=0EXTRACT: note_on channel=1 note=67 velocity=64 time=0EXTRACT: note_on channel=1 note=63 velocity=0 time=0.3546884458333333EXTRACT: note_on channel=1 note=67 velocity=0 time=0EXTRACT: note_on channel=1 note=60 velocity=64 time=0.020312554166666663EXTRACT: note_on channel=0 note=79 velocity=0 time=0.15781292083333331EXTRACT: note_on channel=0 note=81 velocity=80 time=0.029687579166666665EXTRACT: note_on channel=1 note=55 velocity=0 time=0.11093779583333332EXTRACT: note_on channel=1 note=63 velocity=0 time=0EXTRACT: note_on channel=1 note=60 velocity=0 time=0.05625014999999999EXTRACT: note_on channel=0 note=81 velocity=0 time=0.009375024999999999EXTRACT: note_on channel=0 note=82 velocity=80 time=0.010937529166666666EXTRACT: note_on channel=1 note=75 velocity=64 time=0EXTRACT: note_on channel=1 note=51 velocity=64 time=0EXTRACT: note_on channel=1 note=63 velocity=64 time=0EXTRACT: note_on channel=1 note=51 velocity=0 time=0.3546884458333333EXTRACT: note_on channel=1 note=63 velocity=0 time=0EXTRACT: note_on channel=1 note=58 velocity=64 time=0.020312554166666663EXTRACT: note_on channel=1 note=58 velocity=0 time=0.3546884458333333EXTRACT: note_on channel=1 note=67 velocity=64 time=0.020312554166666663EXTRACT: note_on channel=1 note=70 velocity=64 time=0EXTRACT: note_on channel=0 note=82 velocity=0 time=0.6734392958333333EXTRACT: note_on channel=1 note=75 velocity=0 time=0EXTRACT: note_on channel=1 note=67 velocity=0 time=0.037500099999999995EXTRACT: note_on channel=1 note=70 velocity=0 time=0EXTRACT: note_on channel=0 note=82 velocity=80 time=0.03906260416666666EXTRACT: note_on channel=1 note=70 velocity=64 time=0EXTRACT: note_on channel=1 note=55 velocity=64 time=0EXTRACT: note_on channel=1 note=70 velocity=0 time=0.3546884458333333EXTRACT: note_on channel=1 note=55 velocity=0 time=0EXTRACT: note_on channel=1 note=74 velocity=64 time=0.020312554166666663EXTRACT: note_on channel=1 note=62 velocity=64 time=0EXTRACT: note_on channel=1 note=74 velocity=0 time=0.3546884458333333EXTRACT: note_on channel=1 note=62 velocity=0 time=0EXTRACT: note_on channel=1 note=79 velocity=64 time=0.020312554166666663EXTRACT: note_on channel=1 note=67 velocity=64 time=0EXTRACT: note_on channel=1 note=70 velocity=64 time=0EXTRACT: note_on channel=1 note=79 velocity=0 time=0.3546884458333333EXTRACT: note_on channel=1 note=67 velocity=0 time=0EXTRACT: note_on channel=1 note=70 velocity=0 time=0EXTRACT: note_on channel=1 note=82 velocity=64 time=0.020312554166666663EXTRACT: note_on channel=1 note=62 velocity=64 time=0EXTRACT: note_on channel=0 note=82 velocity=0 time=0.12031282083333332EXTRACT: note_on channel=0 note=84 velocity=80 time=0.06718767916666667EXTRACT: note_on channel=1 note=82 velocity=0 time=0.16718794583333332EXTRACT: note_on channel=1 note=62 velocity=0 time=0EXTRACT: note_on channel=0 note=84 velocity=0 time=0.009375024999999999EXTRACT: note_on channel=0 note=81 velocity=80 time=0.010937529166666666EXTRACT: note_on channel=1 note=72 velocity=64 time=0EXTRACT: note_on channel=1 note=53 velocity=64 time=0EXTRACT: note_on channel=1 note=53 velocity=0 time=0.3546884458333333EXTRACT: note_on channel=1 note=57 velocity=64 time=0.020312554166666663EXTRACT: note_on channel=1 note=57 velocity=0 time=0.3546884458333333EXTRACT: note_on channel=1 note=65 velocity=64 time=0.020312554166666663EXTRACT: note_on channel=1 note=69 velocity=64 time=0EXTRACT: note_on channel=0 note=81 velocity=0 time=0.6734392958333333EXTRACT: note_on channel=1 note=72 velocity=0 time=0EXTRACT: note_on channel=1 note=65 velocity=0 time=0.037500099999999995EXTRACT: note_on channel=1 note=69 velocity=0 time=0EXTRACT: note_on channel=1 note=63 velocity=64 time=0.03906260416666666EXTRACT: note_on channel=1 note=48 velocity=64 time=0EXTRACT: note_on channel=1 note=60 velocity=64 time=0EXTRACT: note_on channel=1 note=48 velocity=0 time=0.3546884458333333EXTRACT: note_on channel=1 note=60 velocity=0 time=0EXTRACT: note_on channel=1 note=55 velocity=64 time=0.020312554166666663EXTRACT: note_on channel=0 note=74 velocity=80 time=0.1875005EXTRACT: note_on channel=1 note=55 velocity=0 time=0.16718794583333332EXTRACT: note_on channel=0 note=74 velocity=0 time=0.009375024999999999EXTRACT: note_on channel=0 note=79 velocity=80 time=0.010937529166666666EXTRACT: note_on channel=1 note=63 velocity=64 time=0EXTRACT: note_on channel=1 note=67 velocity=64 time=0EXTRACT: note_on channel=0 note=79 velocity=0 time=0.3546884458333333EXTRACT: note_on channel=1 note=63 velocity=0 time=0EXTRACT: note_on channel=1 note=67 velocity=0 time=0EXTRACT: note_on channel=0 note=81 velocity=80 time=0.020312554166666663EXTRACT: note_on channel=1 note=60 velocity=64 time=0EXTRACT: note_on channel=1 note=63 velocity=0 time=0.2984382958333333EXTRACT: note_on channel=0 note=81 velocity=0 time=0.05625014999999999EXTRACT: note_on channel=1 note=60 velocity=0 time=0EXTRACT: note_on channel=0 note=82 velocity=80 time=0.020312554166666663EXTRACT: note_on channel=1 note=75 velocity=64 time=0EXTRACT: note_on channel=1 note=51 velocity=64 time=0EXTRACT: note_on channel=1 note=63 velocity=64 time=0EXTRACT: note_on channel=0 note=82 velocity=0 time=0.3546884458333333EXTRACT: note_on channel=1 note=51 velocity=0 time=0EXTRACT: note_on channel=1 note=63 velocity=0 time=0EXTRACT: note_on channel=0 note=82 velocity=80 time=0.020312554166666663EXTRACT: note_on channel=1 note=58 velocity=64 time=0EXTRACT: note_on channel=0 note=82 velocity=0 time=0.3546884458333333EXTRACT: note_on channel=1 note=58 velocity=0 time=0EXTRACT: note_on channel=0 note=82 velocity=80 time=0.020312554166666663EXTRACT: note_on channel=1 note=67 velocity=64 time=0EXTRACT: note_on channel=1 note=70 velocity=64 time=0EXTRACT: note_on channel=1 note=75 velocity=0 time=0.31718834583333333EXTRACT: note_on channel=0 note=82 velocity=0 time=0.037500099999999995EXTRACT: note_on channel=0 note=82 velocity=80 time=0.020312554166666663EXTRACT: note_on channel=1 note=75 velocity=64 time=0EXTRACT: note_on channel=1 note=67 velocity=0 time=0.3359383958333333EXTRACT: note_on channel=1 note=70 velocity=0 time=0EXTRACT: note_on channel=1 note=41 velocity=64 time=0.03906260416666666EXTRACT: note_on channel=1 note=53 velocity=64 time=0EXTRACT: note_on channel=0 note=82 velocity=0 time=0.3359383958333333EXTRACT: note_on channel=1 note=75 velocity=0 time=0EXTRACT: note_on channel=0 note=84 velocity=80 time=0.03906260416666666EXTRACT: note_on channel=1 note=77 velocity=64 time=0EXTRACT: note_on channel=1 note=41 velocity=0 time=0.3359383958333333EXTRACT: note_on channel=1 note=53 velocity=0 time=0EXTRACT: note_on channel=0 note=84 velocity=0 time=0.018750049999999997EXTRACT: note_on channel=1 note=77 velocity=0 time=0EXTRACT: note_on channel=0 note=84 velocity=80 time=0.020312554166666663EXTRACT: note_on channel=1 note=77 velocity=64 time=0EXTRACT: note_on channel=1 note=63 velocity=64 time=0EXTRACT: note_on channel=1 note=67 velocity=64 time=0EXTRACT: note_on channel=1 note=70 velocity=64 time=0EXTRACT: note_on channel=1 note=63 velocity=0 time=0.3546884458333333EXTRACT: note_on channel=1 note=67 velocity=0 time=0EXTRACT: note_on channel=1 note=70 velocity=0 time=0EXTRACT: note_on channel=1 note=58 velocity=64 time=0.020312554166666663EXTRACT: note_on channel=1 note=58 velocity=0 time=0.3546884458333333EXTRACT: note_on channel=1 note=41 velocity=64 time=0.020312554166666663EXTRACT: note_on channel=1 note=53 velocity=64 time=0EXTRACT: note_on channel=0 note=84 velocity=0 time=0.31718834583333333EXTRACT: note_on channel=1 note=41 velocity=0 time=0.037500099999999995EXTRACT: note_on channel=1 note=53 velocity=0 time=0EXTRACT: note_on channel=0 note=82 velocity=80 time=0.020312554166666663EXTRACT: note_on channel=1 note=41 velocity=64 time=0EXTRACT: note_on channel=1 note=53 velocity=64 time=0EXTRACT: note_on channel=0 note=82 velocity=0 time=0.1765629708333333EXTRACT: note_on channel=0 note=81 velocity=80 time=0.010937529166666666EXTRACT: note_on channel=1 note=41 velocity=0 time=0.16718794583333332EXTRACT: note_on channel=1 note=53 velocity=0 time=0EXTRACT: note_on channel=1 note=41 velocity=64 time=0.020312554166666663EXTRACT: note_on channel=1 note=53 velocity=64 time=0EXTRACT: note_on channel=1 note=77 velocity=0 time=0.2796882458333333EXTRACT: note_on channel=0 note=81 velocity=0 time=0.065625175EXTRACT: note_on channel=1 note=41 velocity=0 time=0.009375024999999999EXTRACT: note_on channel=1 note=53 velocity=0 time=0EXTRACT: note_on channel=0 note=82 velocity=80 time=0.020312554166666663EXTRACT: note_on channel=1 note=74 velocity=64 time=0EXTRACT: note_on channel=1 note=41 velocity=64 time=0EXTRACT: note_on channel=1 note=53 velocity=64 time=0EXTRACT: note_on channel=1 note=74 velocity=0 time=0.3546884458333333EXTRACT: note_on channel=1 note=41 velocity=0 time=0EXTRACT: note_on channel=1 note=53 velocity=0 time=0EXTRACT: note_on channel=1 note=74 velocity=64 time=0.020312554166666663EXTRACT: note_on channel=1 note=46 velocity=64 time=0EXTRACT: note_on channel=1 note=58 velocity=64 time=0EXTRACT: note_on channel=1 note=46 velocity=0 time=0.3546884458333333EXTRACT: note_on channel=1 note=58 velocity=0 time=0EXTRACT: note_on channel=1 note=62 velocity=64 time=0.020312554166666663EXTRACT: note_on channel=1 note=62 velocity=0 time=0.3546884458333333EXTRACT: note_on channel=1 note=65 velocity=64 time=0.020312554166666663EXTRACT: note_on channel=1 note=70 velocity=64 time=0EXTRACT: note_on channel=0 note=82 velocity=0 time=0.2984382958333333EXTRACT: note_on channel=1 note=74 velocity=0 time=0.018750049999999997EXTRACT: note_on channel=1 note=65 velocity=0 time=0.037500099999999995EXTRACT: note_on channel=1 note=70 velocity=0 time=0EXTRACT: note_on channel=1 note=62 velocity=64 time=0.020312554166666663EXTRACT: note_on channel=0 note=77 velocity=80 time=0.1875005EXTRACT: note_on channel=1 note=77 velocity=64 time=0EXTRACT: note_on channel=1 note=62 velocity=0 time=0.16718794583333332EXTRACT: note_on channel=0 note=77 velocity=0 time=0.009375024999999999EXTRACT: note_on channel=1 note=77 velocity=0 time=0EXTRACT: note_on channel=0 note=77 velocity=80 time=0.010937529166666666EXTRACT: note_on channel=1 note=70 velocity=64 time=0EXTRACT: note_on channel=1 note=74 velocity=64 time=0EXTRACT: note_on channel=1 note=46 velocity=64 time=0EXTRACT: note_on channel=1 note=58 velocity=64 time=0EXTRACT: note_on channel=0 note=77 velocity=0 time=0.1765629708333333EXTRACT: note_on channel=0 note=77 velocity=80 time=0.010937529166666666EXTRACT: note_on channel=1 note=46 velocity=0 time=0.16718794583333332EXTRACT: note_on channel=1 note=58 velocity=0 time=0EXTRACT: note_on channel=0 note=77 velocity=0 time=0.009375024999999999EXTRACT: note_on channel=0 note=77 velocity=80 time=0.010937529166666666EXTRACT: note_on channel=1 note=62 velocity=64 time=0EXTRACT: note_on channel=1 note=70 velocity=0 time=0.3359383958333333EXTRACT: note_on channel=1 note=74 velocity=0 time=0EXTRACT: note_on channel=0 note=77 velocity=0 time=0.018750049999999997EXTRACT: note_on channel=1 note=62 velocity=0 time=0EXTRACT: note_on channel=0 note=82 velocity=80 time=0.020312554166666663EXTRACT: note_on channel=1 note=74 velocity=64 time=0EXTRACT: note_on channel=1 note=65 velocity=64 time=0EXTRACT: note_on channel=1 note=70 velocity=64 time=0EXTRACT: note_on channel=0 note=82 velocity=0 time=0.3546884458333333EXTRACT: note_on channel=1 note=65 velocity=0 time=0EXTRACT: note_on channel=1 note=70 velocity=0 time=0EXTRACT: note_on channel=0 note=82 velocity=80 time=0.020312554166666663EXTRACT: note_on channel=1 note=62 velocity=64 time=0EXTRACT: note_on channel=1 note=74 velocity=0 time=0.15781292083333331EXTRACT: note_on channel=0 note=82 velocity=0 time=0.018750049999999997EXTRACT: note_on channel=0 note=84 velocity=80 time=0.010937529166666666EXTRACT: note_on channel=1 note=77 velocity=64 time=0EXTRACT: note_on channel=1 note=62 velocity=0 time=0.16718794583333332EXTRACT: note_on channel=1 note=72 velocity=64 time=0.020312554166666663EXTRACT: note_on channel=1 note=41 velocity=64 time=0EXTRACT: note_on channel=1 note=53 velocity=64 time=0EXTRACT: note_on channel=1 note=41 velocity=0 time=0.3546884458333333EXTRACT: note_on channel=1 note=53 velocity=0 time=0EXTRACT: note_on channel=1 note=57 velocity=64 time=0.020312554166666663EXTRACT: note_on channel=1 note=57 velocity=0 time=0.3546884458333333EXTRACT: note_on channel=1 note=60 velocity=64 time=0.020312554166666663EXTRACT: note_on channel=1 note=65 velocity=64 time=0EXTRACT: note_on channel=1 note=60 velocity=0 time=0.3546884458333333EXTRACT: note_on channel=1 note=65 velocity=0 time=0EXTRACT: note_on channel=1 note=57 velocity=64 time=0.020312554166666663EXTRACT: note_on channel=0 note=84 velocity=0 time=0.28906327083333333EXTRACT: note_on channel=1 note=77 velocity=0 time=0EXTRACT: note_on channel=1 note=72 velocity=0 time=0.009375024999999999EXTRACT: note_on channel=1 note=57 velocity=0 time=0.05625014999999999EXTRACT: note_on channel=0 note=84 velocity=80 time=0.020312554166666663EXTRACT: note_on channel=1 note=72 velocity=64 time=0EXTRACT: note_on channel=1 note=77 velocity=64 time=0EXTRACT: note_on channel=1 note=41 velocity=64 time=0EXTRACT: note_on channel=1 note=53 velocity=64 time=0EXTRACT: note_on channel=0 note=84 velocity=0 time=0.1765629708333333EXTRACT: note_on channel=1 note=72 velocity=0 time=0EXTRACT: note_on channel=1 note=77 velocity=0 time=0EXTRACT: note_on channel=0 note=84 velocity=80 time=0.010937529166666666EXTRACT: note_on channel=1 note=84 velocity=64 time=0EXTRACT: note_on channel=1 note=41 velocity=0 time=0.16718794583333332EXTRACT: note_on channel=1 note=53 velocity=0 time=0EXTRACT: note_on channel=0 note=84 velocity=0 time=0.009375024999999999EXTRACT: note_on channel=1 note=84 velocity=0 time=0EXTRACT: note_on channel=0 note=84 velocity=80 time=0.010937529166666666EXTRACT: note_on channel=1 note=84 velocity=64 time=0EXTRACT: note_on channel=1 note=57 velocity=64 time=0EXTRACT: note_on channel=0 note=84 velocity=0 time=0.3546884458333333EXTRACT: note_on channel=1 note=84 velocity=0 time=0EXTRACT: note_on channel=1 note=57 velocity=0 time=0EXTRACT: note_on channel=0 note=82 velocity=80 time=0.020312554166666663EXTRACT: note_on channel=1 note=77 velocity=64 time=0EXTRACT: note_on channel=1 note=60 velocity=64 time=0EXTRACT: note_on channel=1 note=65 velocity=64 time=0EXTRACT: note_on channel=0 note=82 velocity=0 time=0.3546884458333333EXTRACT: note_on channel=1 note=77 velocity=0 time=0EXTRACT: note_on channel=1 note=60 velocity=0 time=0EXTRACT: note_on channel=1 note=65 velocity=0 time=0EXTRACT: note_on channel=0 note=81 velocity=80 time=0.020312554166666663EXTRACT: note_on channel=1 note=81 velocity=64 time=0EXTRACT: note_on channel=1 note=57 velocity=64 time=0EXTRACT: note_on channel=0 note=81 velocity=0 time=0.3546884458333333EXTRACT: note_on channel=1 note=81 velocity=0 time=0EXTRACT: note_on channel=1 note=57 velocity=0 time=0EXTRACT: note_on channel=0 note=82 velocity=80 time=0.020312554166666663EXTRACT: note_on channel=1 note=70 velocity=64 time=0EXTRACT: note_on channel=1 note=74 velocity=64 time=0EXTRACT: note_on channel=1 note=43 velocity=64 time=0EXTRACT: note_on channel=1 note=55 velocity=64 time=0EXTRACT: note_on channel=0 note=82 velocity=0 time=0.1765629708333333EXTRACT: note_on channel=1 note=70 velocity=0 time=0EXTRACT: note_on channel=1 note=74 velocity=0 time=0EXTRACT: note_on channel=0 note=81 velocity=80 time=0.010937529166666666EXTRACT: note_on channel=1 note=81 velocity=64 time=0EXTRACT: note_on channel=1 note=43 velocity=0 time=0.16718794583333332EXTRACT: note_on channel=1 note=55 velocity=0 time=0EXTRACT: note_on channel=0 note=81 velocity=0 time=0.009375024999999999EXTRACT: note_on channel=1 note=81 velocity=0 time=0EXTRACT: note_on channel=0 note=79 velocity=80 time=0.010937529166666666EXTRACT: note_on channel=1 note=79 velocity=64 time=0EXTRACT: note_on channel=1 note=58 velocity=64 time=0EXTRACT: note_on channel=0 note=79 velocity=0 time=0.3546884458333333EXTRACT: note_on channel=1 note=79 velocity=0 time=0EXTRACT: note_on channel=1 note=58 velocity=0 time=0EXTRACT: note_on channel=1 note=62 velocity=64 time=0.020312554166666663EXTRACT: note_on channel=1 note=67 velocity=64 time=0EXTRACT: note_on channel=1 note=62 velocity=0 time=0.3546884458333333EXTRACT: note_on channel=1 note=67 velocity=0 time=0EXTRACT: note_on channel=1 note=50 velocity=64 time=0.020312554166666663EXTRACT: note_on channel=0 note=74 velocity=80 time=0.1875005EXTRACT: note_on channel=1 note=74 velocity=64 time=0EXTRACT: note_on channel=1 note=50 velocity=0 time=0.16718794583333332EXTRACT: note_on channel=0 note=74 velocity=0 time=0.009375024999999999EXTRACT: note_on channel=1 note=74 velocity=0 time=0EXTRACT: note_on channel=0 note=82 velocity=80 time=0.010937529166666666EXTRACT: note_on channel=1 note=70 velocity=64 time=0EXTRACT: note_on channel=1 note=74 velocity=64 time=0EXTRACT: note_on channel=1 note=43 velocity=64 time=0EXTRACT: note_on channel=1 note=55 velocity=64 time=0EXTRACT: note_on channel=0 note=82 velocity=0 time=0.1765629708333333EXTRACT: note_on channel=1 note=70 velocity=0 time=0EXTRACT: note_on channel=1 note=74 velocity=0 time=0EXTRACT: note_on channel=0 note=82 velocity=80 time=0.010937529166666666EXTRACT: note_on channel=1 note=82 velocity=64 time=0EXTRACT: note_on channel=1 note=43 velocity=0 time=0.16718794583333332EXTRACT: note_on channel=1 note=55 velocity=0 time=0EXTRACT: note_on channel=0 note=82 velocity=0 time=0.009375024999999999EXTRACT: note_on channel=1 note=82 velocity=0 time=0EXTRACT: note_on channel=0 note=82 velocity=80 time=0.010937529166666666EXTRACT: note_on channel=1 note=82 velocity=64 time=0EXTRACT: note_on channel=1 note=58 velocity=64 time=0EXTRACT: note_on channel=0 note=82 velocity=0 time=0.3546884458333333EXTRACT: note_on channel=1 note=82 velocity=0 time=0EXTRACT: note_on channel=1 note=58 velocity=0 time=0EXTRACT: note_on channel=0 note=84 velocity=80 time=0.020312554166666663EXTRACT: note_on channel=1 note=74 velocity=64 time=0EXTRACT: note_on channel=1 note=62 velocity=64 time=0EXTRACT: note_on channel=1 note=67 velocity=64 time=0EXTRACT: note_on channel=0 note=84 velocity=0 time=0.3546884458333333EXTRACT: note_on channel=1 note=74 velocity=0 time=0EXTRACT: note_on channel=1 note=62 velocity=0 time=0EXTRACT: note_on channel=1 note=67 velocity=0 time=0EXTRACT: note_on channel=0 note=82 velocity=80 time=0.020312554166666663EXTRACT: note_on channel=1 note=82 velocity=64 time=0EXTRACT: note_on channel=1 note=58 velocity=64 time=0EXTRACT: note_on channel=0 note=82 velocity=0 time=0.1765629708333333EXTRACT: note_on channel=1 note=82 velocity=0 time=0EXTRACT: note_on channel=0 note=82 velocity=80 time=0.010937529166666666EXTRACT: note_on channel=1 note=75 velocity=64 time=0EXTRACT: note_on channel=1 note=58 velocity=0 time=0.16718794583333332EXTRACT: note_on channel=1 note=70 velocity=64 time=0.020312554166666663EXTRACT: note_on channel=1 note=51 velocity=64 time=0EXTRACT: note_on channel=0 note=82 velocity=0 time=0.16718794583333332EXTRACT: note_on channel=1 note=75 velocity=0 time=0EXTRACT: note_on channel=1 note=70 velocity=0 time=0.009375024999999999EXTRACT: note_on channel=0 note=79 velocity=80 time=0.010937529166666666EXTRACT: note_on channel=1 note=79 velocity=64 time=0EXTRACT: note_on channel=1 note=51 velocity=0 time=0.16718794583333332EXTRACT: note_on channel=1 note=58 velocity=64 time=0.020312554166666663EXTRACT: note_on channel=0 note=79 velocity=0 time=0.3453134208333333EXTRACT: note_on channel=1 note=79 velocity=0 time=0EXTRACT: note_on channel=1 note=58 velocity=0 time=0.009375024999999999EXTRACT: note_on channel=1 note=63 velocity=64 time=0.020312554166666663EXTRACT: note_on channel=1 note=67 velocity=64 time=0EXTRACT: note_on channel=1 note=63 velocity=0 time=0.3546884458333333EXTRACT: note_on channel=1 note=67 velocity=0 time=0EXTRACT: note_on channel=1 note=58 velocity=64 time=0.020312554166666663EXTRACT: note_on channel=0 note=75 velocity=80 time=0.1875005EXTRACT: note_on channel=1 note=75 velocity=64 time=0EXTRACT: note_on channel=1 note=58 velocity=0 time=0.16718794583333332EXTRACT: note_on channel=0 note=75 velocity=0 time=0.009375024999999999EXTRACT: note_on channel=1 note=75 velocity=0 time=0EXTRACT: note_on channel=0 note=82 velocity=80 time=0.010937529166666666EXTRACT: note_on channel=1 note=70 velocity=64 time=0EXTRACT: note_on channel=1 note=75 velocity=64 time=0EXTRACT: note_on channel=1 note=51 velocity=64 time=0EXTRACT: note_on channel=0 note=82 velocity=0 time=0.3546884458333333EXTRACT: note_on channel=1 note=70 velocity=0 time=0EXTRACT: note_on channel=1 note=75 velocity=0 time=0EXTRACT: note_on channel=1 note=51 velocity=0 time=0EXTRACT: note_on channel=0 note=82 velocity=80 time=0.020312554166666663EXTRACT: note_on channel=1 note=75 velocity=64 time=0EXTRACT: note_on channel=1 note=58 velocity=64 time=0EXTRACT: note_on channel=0 note=82 velocity=0 time=0.3546884458333333EXTRACT: note_on channel=1 note=75 velocity=0 time=0EXTRACT: note_on channel=1 note=58 velocity=0 time=0EXTRACT: note_on channel=0 note=84 velocity=80 time=0.020312554166666663EXTRACT: note_on channel=1 note=75 velocity=64 time=0EXTRACT: note_on channel=1 note=63 velocity=64 time=0EXTRACT: note_on channel=1 note=67 velocity=64 time=0EXTRACT: note_on channel=0 note=84 velocity=0 time=0.3546884458333333EXTRACT: note_on channel=1 note=75 velocity=0 time=0EXTRACT: note_on channel=1 note=63 velocity=0 time=0EXTRACT: note_on channel=1 note=67 velocity=0 time=0EXTRACT: note_on channel=0 note=82 velocity=80 time=0.020312554166666663EXTRACT: note_on channel=1 note=75 velocity=64 time=0EXTRACT: note_on channel=1 note=58 velocity=64 time=0EXTRACT: note_on channel=0 note=82 velocity=0 time=0.1765629708333333EXTRACT: note_on channel=1 note=75 velocity=0 time=0EXTRACT: note_on channel=0 note=82 velocity=80 time=0.010937529166666666EXTRACT: note_on channel=1 note=74 velocity=64 time=0EXTRACT: note_on channel=1 note=58 velocity=0 time=0.16718794583333332EXTRACT: note_on channel=1 note=74 velocity=0 time=0.009375024999999999EXTRACT: note_on channel=1 note=74 velocity=64 time=0.010937529166666666EXTRACT: note_on channel=1 note=46 velocity=64 time=0EXTRACT: note_on channel=1 note=58 velocity=64 time=0EXTRACT: note_on channel=1 note=46 velocity=0 time=0.3546884458333333EXTRACT: note_on channel=1 note=58 velocity=0 time=0EXTRACT: note_on channel=1 note=62 velocity=64 time=0.020312554166666663EXTRACT: note_on channel=1 note=62 velocity=0 time=0.3546884458333333EXTRACT: note_on channel=1 note=65 velocity=64 time=0.020312554166666663EXTRACT: note_on channel=1 note=70 velocity=64 time=0EXTRACT: note_on channel=0 note=82 velocity=0 time=0.3078133208333333EXTRACT: note_on channel=1 note=74 velocity=0 time=0.009375024999999999EXTRACT: note_on channel=1 note=65 velocity=0 time=0.037500099999999995EXTRACT: note_on channel=1 note=70 velocity=0 time=0EXTRACT: note_on channel=1 note=62 velocity=64 time=0.020312554166666663EXTRACT: note_on channel=0 note=77 velocity=80 time=0.1875005EXTRACT: note_on channel=1 note=77 velocity=64 time=0EXTRACT: note_on channel=1 note=62 velocity=0 time=0.16718794583333332EXTRACT: note_on channel=0 note=77 velocity=0 time=0.009375024999999999EXTRACT: note_on channel=1 note=77 velocity=0 time=0EXTRACT: note_on channel=0 note=77 velocity=80 time=0.010937529166666666EXTRACT: note_on channel=1 note=70 velocity=64 time=0EXTRACT: note_on channel=1 note=74 velocity=64 time=0EXTRACT: note_on channel=1 note=46 velocity=64 time=0EXTRACT: note_on channel=1 note=58 velocity=64 time=0EXTRACT: note_on channel=1 note=46 velocity=0 time=0.3546884458333333EXTRACT: note_on channel=1 note=58 velocity=0 time=0EXTRACT: note_on channel=1 note=62 velocity=64 time=0.020312554166666663EXTRACT: note_on channel=0 note=77 velocity=0 time=0.15781292083333331EXTRACT: note_on channel=0 note=82 velocity=80 time=0.029687579166666665EXTRACT: note_on channel=1 note=70 velocity=0 time=0.1484378958333333EXTRACT: note_on channel=1 note=74 velocity=0 time=0EXTRACT: note_on channel=1 note=62 velocity=0 time=0.018750049999999997EXTRACT: note_on channel=1 note=74 velocity=64 time=0.020312554166666663EXTRACT: note_on channel=1 note=65 velocity=64 time=0EXTRACT: note_on channel=1 note=70 velocity=64 time=0EXTRACT: note_on channel=1 note=65 velocity=0 time=0.3546884458333333EXTRACT: note_on channel=1 note=70 velocity=0 time=0EXTRACT: note_on channel=1 note=62 velocity=64 time=0.020312554166666663EXTRACT: note_on channel=0 note=82 velocity=0 time=0.1484378958333333EXTRACT: note_on channel=0 note=84 velocity=80 time=0.03906260416666666EXTRACT: note_on channel=1 note=74 velocity=0 time=0.1484378958333333EXTRACT: note_on channel=1 note=62 velocity=0 time=0.018750049999999997EXTRACT: note_on channel=0 note=84 velocity=0 time=0.009375024999999999EXTRACT: note_on channel=0 note=84 velocity=80 time=0.010937529166666666EXTRACT: note_on channel=1 note=72 velocity=64 time=0EXTRACT: note_on channel=1 note=77 velocity=64 time=0EXTRACT: note_on channel=1 note=41 velocity=64 time=0EXTRACT: note_on channel=1 note=53 velocity=64 time=0EXTRACT: note_on channel=0 note=84 velocity=0 time=0.3546884458333333EXTRACT: note_on channel=1 note=72 velocity=0 time=0EXTRACT: note_on channel=1 note=77 velocity=0 time=0EXTRACT: note_on channel=1 note=41 velocity=0 time=0EXTRACT: note_on channel=1 note=53 velocity=0 time=0EXTRACT: note_on channel=0 note=81 velocity=80 time=0.020312554166666663EXTRACT: note_on channel=1 note=81 velocity=64 time=0EXTRACT: note_on channel=1 note=57 velocity=64 time=0EXTRACT: note_on channel=0 note=81 velocity=0 time=0.3546884458333333EXTRACT: note_on channel=1 note=81 velocity=0 time=0EXTRACT: note_on channel=1 note=57 velocity=0 time=0EXTRACT: note_on channel=1 note=60 velocity=64 time=0.020312554166666663EXTRACT: note_on channel=1 note=65 velocity=64 time=0EXTRACT: note_on channel=1 note=60 velocity=0 time=0.3546884458333333EXTRACT: note_on channel=1 note=65 velocity=0 time=0EXTRACT: note_on channel=0 note=84 velocity=80 time=0.020312554166666663EXTRACT: note_on channel=1 note=84 velocity=64 time=0EXTRACT: note_on channel=1 note=57 velocity=64 time=0EXTRACT: note_on channel=0 note=84 velocity=0 time=0.1765629708333333EXTRACT: note_on channel=1 note=84 velocity=0 time=0EXTRACT: note_on channel=0 note=84 velocity=80 time=0.010937529166666666EXTRACT: note_on channel=1 note=84 velocity=64 time=0EXTRACT: note_on channel=1 note=57 velocity=0 time=0.16718794583333332EXTRACT: note_on channel=0 note=84 velocity=0 time=0.009375024999999999EXTRACT: note_on channel=1 note=84 velocity=0 time=0EXTRACT: note_on channel=0 note=84 velocity=80 time=0.010937529166666666EXTRACT: note_on channel=1 note=72 velocity=64 time=0EXTRACT: note_on channel=1 note=77 velocity=64 time=0EXTRACT: note_on channel=1 note=41 velocity=64 time=0EXTRACT: note_on channel=1 note=53 velocity=64 time=0EXTRACT: note_on channel=1 note=41 velocity=0 time=0.3546884458333333EXTRACT: note_on channel=1 note=53 velocity=0 time=0EXTRACT: note_on channel=1 note=57 velocity=64 time=0.020312554166666663EXTRACT: note_on channel=0 note=84 velocity=0 time=0.15781292083333331EXTRACT: note_on channel=1 note=72 velocity=0 time=0EXTRACT: note_on channel=1 note=77 velocity=0 time=0EXTRACT: note_on channel=0 note=84 velocity=80 time=0.029687579166666665EXTRACT: note_on channel=1 note=84 velocity=64 time=0EXTRACT: note_on channel=1 note=57 velocity=0 time=0.16718794583333332EXTRACT: note_on channel=0 note=84 velocity=0 time=0.009375024999999999EXTRACT: note_on channel=1 note=84 velocity=0 time=0EXTRACT: note_on channel=0 note=82 velocity=80 time=0.010937529166666666EXTRACT: note_on channel=1 note=77 velocity=64 time=0EXTRACT: note_on channel=1 note=60 velocity=64 time=0EXTRACT: note_on channel=1 note=65 velocity=64 time=0EXTRACT: note_on channel=1 note=60 velocity=0 time=0.3546884458333333EXTRACT: note_on channel=1 note=65 velocity=0 time=0EXTRACT: note_on channel=1 note=57 velocity=64 time=0.020312554166666663EXTRACT: note_on channel=0 note=82 velocity=0 time=0.15781292083333331EXTRACT: note_on channel=1 note=77 velocity=0 time=0EXTRACT: note_on channel=0 note=81 velocity=80 time=0.029687579166666665EXTRACT: note_on channel=1 note=81 velocity=64 time=0EXTRACT: note_on channel=1 note=57 velocity=0 time=0.16718794583333332EXTRACT: note_on channel=0 note=81 velocity=0 time=0.009375024999999999EXTRACT: note_on channel=1 note=81 velocity=0 time=0EXTRACT: note_on channel=0 note=82 velocity=80 time=0.010937529166666666EXTRACT: note_on channel=1 note=70 velocity=64 time=0EXTRACT: note_on channel=1 note=74 velocity=64 time=0EXTRACT: note_on channel=1 note=43 velocity=64 time=0EXTRACT: note_on channel=1 note=55 velocity=64 time=0EXTRACT: note_on channel=0 note=82 velocity=0 time=0.1765629708333333EXTRACT: note_on channel=0 note=81 velocity=80 time=0.010937529166666666EXTRACT: note_on channel=1 note=43 velocity=0 time=0.16718794583333332EXTRACT: note_on channel=1 note=55 velocity=0 time=0EXTRACT: note_on channel=0 note=81 velocity=0 time=0.009375024999999999EXTRACT: note_on channel=0 note=79 velocity=80 time=0.010937529166666666EXTRACT: note_on channel=1 note=58 velocity=64 time=0EXTRACT: note_on channel=0 note=79 velocity=0 time=0.3546884458333333EXTRACT: note_on channel=1 note=58 velocity=0 time=0EXTRACT: note_on channel=1 note=62 velocity=64 time=0.020312554166666663EXTRACT: note_on channel=1 note=67 velocity=64 time=0EXTRACT: note_on channel=1 note=62 velocity=0 time=0.3546884458333333EXTRACT: note_on channel=1 note=67 velocity=0 time=0EXTRACT: note_on channel=1 note=50 velocity=64 time=0.020312554166666663EXTRACT: note_on channel=0 note=74 velocity=80 time=0.1875005EXTRACT: note_on channel=1 note=70 velocity=0 time=0.11093779583333332EXTRACT: note_on channel=1 note=74 velocity=0 time=0EXTRACT: note_on channel=1 note=50 velocity=0 time=0.05625014999999999EXTRACT: note_on channel=0 note=74 velocity=0 time=0.009375024999999999EXTRACT: note_on channel=0 note=82 velocity=80 time=0.010937529166666666EXTRACT: note_on channel=1 note=70 velocity=64 time=0EXTRACT: note_on channel=1 note=74 velocity=64 time=0EXTRACT: note_on channel=1 note=43 velocity=64 time=0EXTRACT: note_on channel=1 note=55 velocity=64 time=0EXTRACT: note_on channel=0 note=82 velocity=0 time=0.3546884458333333EXTRACT: note_on channel=1 note=70 velocity=0 time=0EXTRACT: note_on channel=1 note=74 velocity=0 time=0EXTRACT: note_on channel=1 note=43 velocity=0 time=0EXTRACT: note_on channel=1 note=55 velocity=0 time=0EXTRACT: note_on channel=0 note=82 velocity=80 time=0.020312554166666663EXTRACT: note_on channel=1 note=82 velocity=64 time=0EXTRACT: note_on channel=1 note=58 velocity=64 time=0EXTRACT: note_on channel=0 note=82 velocity=0 time=0.3546884458333333EXTRACT: note_on channel=1 note=82 velocity=0 time=0EXTRACT: note_on channel=1 note=58 velocity=0 time=0EXTRACT: note_on channel=0 note=84 velocity=80 time=0.020312554166666663EXTRACT: note_on channel=1 note=74 velocity=64 time=0EXTRACT: note_on channel=1 note=62 velocity=64 time=0EXTRACT: note_on channel=1 note=67 velocity=64 time=0EXTRACT: note_on channel=0 note=84 velocity=0 time=0.1765629708333333EXTRACT: note_on channel=0 note=82 velocity=80 time=0.010937529166666666EXTRACT: note_on channel=1 note=62 velocity=0 time=0.16718794583333332EXTRACT: note_on channel=1 note=67 velocity=0 time=0EXTRACT: note_on channel=1 note=58 velocity=64 time=0.020312554166666663EXTRACT: note_on channel=0 note=82 velocity=0 time=0.16718794583333332EXTRACT: note_on channel=0 note=81 velocity=80 time=0.020312554166666663EXTRACT: note_on channel=1 note=74 velocity=0 time=0.1484378958333333EXTRACT: note_on channel=1 note=58 velocity=0 time=0.018750049999999997EXTRACT: note_on channel=0 note=81 velocity=0 time=0.009375024999999999EXTRACT: note_on channel=0 note=82 velocity=80 time=0.010937529166666666EXTRACT: note_on channel=1 note=70 velocity=64 time=0EXTRACT: note_on channel=1 note=75 velocity=64 time=0EXTRACT: note_on channel=1 note=51 velocity=64 time=0EXTRACT: note_on channel=1 note=51 velocity=0 time=0.3546884458333333EXTRACT: note_on channel=1 note=58 velocity=64 time=0.020312554166666663EXTRACT: note_on channel=1 note=58 velocity=0 time=0.3546884458333333EXTRACT: note_on channel=1 note=63 velocity=64 time=0.020312554166666663EXTRACT: note_on channel=1 note=67 velocity=64 time=0EXTRACT: note_on channel=1 note=63 velocity=0 time=0.3546884458333333EXTRACT: note_on channel=1 note=67 velocity=0 time=0EXTRACT: note_on channel=1 note=58 velocity=64 time=0.020312554166666663EXTRACT: note_on channel=0 note=82 velocity=0 time=0.2984382958333333EXTRACT: note_on channel=1 note=70 velocity=0 time=0EXTRACT: note_on channel=1 note=75 velocity=0 time=0EXTRACT: note_on channel=1 note=58 velocity=0 time=0.05625014999999999EXTRACT: note_on channel=0 note=82 velocity=80 time=0.020312554166666663EXTRACT: note_on channel=1 note=70 velocity=64 time=0EXTRACT: note_on channel=1 note=75 velocity=64 time=0EXTRACT: note_on channel=1 note=51 velocity=64 time=0EXTRACT: note_on channel=0 note=82 velocity=0 time=0.1765629708333333EXTRACT: note_on channel=0 note=82 velocity=80 time=0.010937529166666666EXTRACT: note_on channel=1 note=51 velocity=0 time=0.16718794583333332EXTRACT: note_on channel=0 note=82 velocity=0 time=0.009375024999999999EXTRACT: note_on channel=0 note=82 velocity=80 time=0.010937529166666666EXTRACT: note_on channel=1 note=58 velocity=64 time=0EXTRACT: note_on channel=1 note=70 velocity=0 time=0.3359383958333333EXTRACT: note_on channel=1 note=75 velocity=0 time=0EXTRACT: note_on channel=0 note=82 velocity=0 time=0.018750049999999997EXTRACT: note_on channel=1 note=58 velocity=0 time=0EXTRACT: note_on channel=0 note=84 velocity=80 time=0.020312554166666663EXTRACT: note_on channel=1 note=75 velocity=64 time=0EXTRACT: note_on channel=1 note=63 velocity=64 time=0EXTRACT: note_on channel=1 note=67 velocity=64 time=0EXTRACT: note_on channel=0 note=84 velocity=0 time=0.3546884458333333EXTRACT: note_on channel=1 note=63 velocity=0 time=0EXTRACT: note_on channel=1 note=67 velocity=0 time=0EXTRACT: note_on channel=0 note=82 velocity=80 time=0.020312554166666663EXTRACT: note_on channel=1 note=58 velocity=64 time=0EXTRACT: note_on channel=0 note=82 velocity=0 time=0.1765629708333333EXTRACT: note_on channel=0 note=82 velocity=80 time=0.010937529166666666EXTRACT: note_on channel=1 note=75 velocity=0 time=0.1484378958333333EXTRACT: note_on channel=1 note=58 velocity=0 time=0.018750049999999997EXTRACT: note_on channel=1 note=74 velocity=64 time=0.020312554166666663EXTRACT: note_on channel=1 note=58 velocity=64 time=0EXTRACT: note_on channel=1 note=46 velocity=64 time=0EXTRACT: note_on channel=1 note=74 velocity=0 time=0.7109393958333332EXTRACT: note_on channel=1 note=58 velocity=0 time=0EXTRACT: note_on channel=1 note=74 velocity=64 time=0.03906260416666666EXTRACT: note_on channel=1 note=77 velocity=64 time=0EXTRACT: note_on channel=1 note=58 velocity=64 time=0EXTRACT: note_on channel=1 note=74 velocity=0 time=0.3546884458333333EXTRACT: note_on channel=1 note=77 velocity=0 time=0EXTRACT: note_on channel=1 note=70 velocity=64 time=0.020312554166666663EXTRACT: note_on channel=1 note=58 velocity=0 time=0.3359383958333333EXTRACT: note_on channel=1 note=70 velocity=0 time=0.018750049999999997EXTRACT: note_on channel=1 note=74 velocity=64 time=0.020312554166666663EXTRACT: note_on channel=1 note=77 velocity=64 time=0EXTRACT: note_on channel=1 note=58 velocity=64 time=0EXTRACT: note_on channel=1 note=74 velocity=0 time=0.3546884458333333EXTRACT: note_on channel=1 note=77 velocity=0 time=0EXTRACT: note_on channel=1 note=70 velocity=64 time=0.020312554166666663EXTRACT: note_on channel=1 note=58 velocity=0 time=0.3359383958333333EXTRACT: note_on channel=1 note=70 velocity=0 time=0.018750049999999997EXTRACT: note_on channel=1 note=74 velocity=64 time=0.020312554166666663EXTRACT: note_on channel=1 note=77 velocity=64 time=0EXTRACT: note_on channel=1 note=58 velocity=64 time=0EXTRACT: note_on channel=0 note=82 velocity=0 time=0.5890640708333332EXTRACT: note_on channel=1 note=46 velocity=0 time=0.009375024999999999EXTRACT: note_on channel=1 note=74 velocity=0 time=0.11250029999999998EXTRACT: note_on channel=1 note=77 velocity=0 time=0EXTRACT: note_on channel=1 note=58 velocity=0 time=0EXTRACT: note_on channel=0 note=86 velocity=80 time=0.03906260416666666EXTRACT: note_on channel=1 note=79 velocity=64 time=0EXTRACT: note_on channel=1 note=55 velocity=64 time=0EXTRACT: note_on channel=1 note=55 velocity=0 time=0.3546884458333333EXTRACT: note_on channel=1 note=62 velocity=64 time=0.020312554166666663EXTRACT: note_on channel=0 note=86 velocity=0 time=0.3359383958333333EXTRACT: note_on channel=1 note=62 velocity=0 time=0.018750049999999997EXTRACT: note_on channel=0 note=86 velocity=80 time=0.020312554166666663EXTRACT: note_on channel=1 note=70 velocity=64 time=0EXTRACT: note_on channel=0 note=86 velocity=0 time=0.3546884458333333EXTRACT: note_on channel=1 note=70 velocity=0 time=0EXTRACT: note_on channel=0 note=87 velocity=80 time=0.020312554166666663EXTRACT: note_on channel=1 note=67 velocity=64 time=0EXTRACT: note_on channel=1 note=79 velocity=0 time=0.2984382958333333EXTRACT: note_on channel=0 note=87 velocity=0 time=0.05625014999999999EXTRACT: note_on channel=1 note=67 velocity=0 time=0EXTRACT: note_on channel=0 note=86 velocity=80 time=0.020312554166666663EXTRACT: note_on channel=1 note=77 velocity=64 time=0EXTRACT: note_on channel=1 note=53 velocity=64 time=0EXTRACT: note_on channel=1 note=53 velocity=0 time=0.3546884458333333EXTRACT: note_on channel=1 note=62 velocity=64 time=0.020312554166666663EXTRACT: note_on channel=1 note=62 velocity=0 time=0.1765629708333333EXTRACT: note_on channel=1 note=65 velocity=64 time=0.010937529166666666EXTRACT: note_on channel=0 note=86 velocity=0 time=0.1484378958333333EXTRACT: note_on channel=1 note=65 velocity=0 time=0.028125074999999996EXTRACT: note_on channel=0 note=86 velocity=80 time=0.010937529166666666EXTRACT: note_on channel=1 note=69 velocity=64 time=0EXTRACT: note_on channel=0 note=86 velocity=0 time=0.3546884458333333EXTRACT: note_on channel=0 note=87 velocity=80 time=0.020312554166666663EXTRACT: note_on channel=1 note=77 velocity=0 time=0.2984382958333333EXTRACT: note_on channel=1 note=69 velocity=0 time=0.037500099999999995EXTRACT: note_on channel=0 note=87 velocity=0 time=0.018750049999999997EXTRACT: note_on channel=0 note=86 velocity=80 time=0.020312554166666663EXTRACT: note_on channel=1 note=77 velocity=64 time=0EXTRACT: note_on channel=1 note=55 velocity=64 time=0EXTRACT: note_on channel=1 note=55 velocity=0 time=0.3546884458333333EXTRACT: note_on channel=1 note=62 velocity=64 time=0.020312554166666663EXTRACT: note_on channel=0 note=86 velocity=0 time=0.3359383958333333EXTRACT: note_on channel=1 note=62 velocity=0 time=0.018750049999999997EXTRACT: note_on channel=0 note=86 velocity=80 time=0.020312554166666663EXTRACT: note_on channel=1 note=70 velocity=64 time=0EXTRACT: note_on channel=0 note=86 velocity=0 time=0.3546884458333333EXTRACT: note_on channel=1 note=70 velocity=0 time=0EXTRACT: note_on channel=0 note=87 velocity=80 time=0.020312554166666663EXTRACT: note_on channel=1 note=62 velocity=64 time=0EXTRACT: note_on channel=1 note=77 velocity=0 time=0.2984382958333333EXTRACT: note_on channel=0 note=87 velocity=0 time=0.05625014999999999EXTRACT: note_on channel=1 note=62 velocity=0 time=0EXTRACT: note_on channel=0 note=86 velocity=80 time=0.020312554166666663EXTRACT: note_on channel=1 note=79 velocity=64 time=0EXTRACT: note_on channel=1 note=51 velocity=64 time=0EXTRACT: note_on channel=0 note=86 velocity=0 time=0.3546884458333333EXTRACT: note_on channel=1 note=51 velocity=0 time=0EXTRACT: note_on channel=0 note=84 velocity=80 time=0.020312554166666663EXTRACT: note_on channel=1 note=60 velocity=64 time=0EXTRACT: note_on channel=1 note=79 velocity=0 time=0.3359383958333333EXTRACT: note_on channel=0 note=84 velocity=0 time=0.018750049999999997EXTRACT: note_on channel=1 note=60 velocity=0 time=0EXTRACT: note_on channel=0 note=82 velocity=80 time=0.020312554166666663EXTRACT: note_on channel=1 note=82 velocity=64 time=0EXTRACT: note_on channel=1 note=67 velocity=64 time=0EXTRACT: note_on channel=0 note=82 velocity=0 time=0.1765629708333333EXTRACT: note_on channel=1 note=82 velocity=0 time=0EXTRACT: note_on channel=0 note=79 velocity=80 time=0.010937529166666666EXTRACT: note_on channel=1 note=79 velocity=64 time=0EXTRACT: note_on channel=0 note=79 velocity=0 time=0.3546884458333333EXTRACT: note_on channel=1 note=79 velocity=0 time=0EXTRACT: note_on channel=0 note=79 velocity=80 time=0.020312554166666663EXTRACT: note_on channel=1 note=79 velocity=64 time=0EXTRACT: note_on channel=1 note=67 velocity=0 time=0.1484378958333333EXTRACT: note_on channel=0 note=79 velocity=0 time=0.028125074999999996EXTRACT: note_on channel=1 note=79 velocity=0 time=0EXTRACT: note_on channel=0 note=86 velocity=80 time=0.010937529166666666EXTRACT: note_on channel=1 note=79 velocity=64 time=0EXTRACT: note_on channel=1 note=55 velocity=64 time=0EXTRACT: note_on channel=0 note=86 velocity=0 time=0.3546884458333333EXTRACT: note_on channel=1 note=55 velocity=0 time=0EXTRACT: note_on channel=0 note=86 velocity=80 time=0.020312554166666663EXTRACT: note_on channel=1 note=62 velocity=64 time=0EXTRACT: note_on channel=1 note=62 velocity=0 time=0.3546884458333333EXTRACT: note_on channel=1 note=70 velocity=64 time=0.020312554166666663EXTRACT: note_on channel=0 note=86 velocity=0 time=0.15781292083333331EXTRACT: note_on channel=0 note=86 velocity=80 time=0.029687579166666665EXTRACT: note_on channel=1 note=79 velocity=0 time=0.12968784583333332EXTRACT: note_on channel=1 note=70 velocity=0 time=0.037500099999999995EXTRACT: note_on channel=0 note=86 velocity=0 time=0.009375024999999999EXTRACT: note_on channel=0 note=87 velocity=80 time=0.010937529166666666EXTRACT: note_on channel=1 note=79 velocity=64 time=0EXTRACT: note_on channel=1 note=67 velocity=64 time=0EXTRACT: note_on channel=0 note=87 velocity=0 time=0.3546884458333333EXTRACT: note_on channel=1 note=79 velocity=0 time=0EXTRACT: note_on channel=1 note=67 velocity=0 time=0EXTRACT: note_on channel=0 note=86 velocity=80 time=0.020312554166666663EXTRACT: note_on channel=1 note=77 velocity=64 time=0EXTRACT: note_on channel=1 note=53 velocity=64 time=0EXTRACT: note_on channel=1 note=53 velocity=0 time=0.3546884458333333EXTRACT: note_on channel=1 note=62 velocity=64 time=0.020312554166666663EXTRACT: note_on channel=1 note=62 velocity=0 time=0.1765629708333333EXTRACT: note_on channel=1 note=65 velocity=64 time=0.010937529166666666EXTRACT: note_on channel=1 note=65 velocity=0 time=0.1765629708333333EXTRACT: note_on channel=1 note=69 velocity=64 time=0.010937529166666666EXTRACT: note_on channel=0 note=86 velocity=0 time=0.19843802916666664EXTRACT: note_on channel=1 note=77 velocity=0 time=0EXTRACT: note_on channel=0 note=86 velocity=80 time=0.051562637499999994EXTRACT: note_on channel=1 note=77 velocity=64 time=0EXTRACT: note_on channel=1 note=69 velocity=0 time=0.10468777916666666EXTRACT: note_on channel=1 note=62 velocity=64 time=0.020312554166666663EXTRACT: note_on channel=0 note=86 velocity=0 time=0.11093779583333332EXTRACT: note_on channel=1 note=77 velocity=0 time=0EXTRACT: note_on channel=0 note=87 velocity=80 time=0.014062537499999998EXTRACT: note_on channel=1 note=77 velocity=64 time=0EXTRACT: note_on channel=1 note=62 velocity=0 time=0.22968811249999999EXTRACT: note_on channel=0 note=87 velocity=0 time=0.006250016666666666EXTRACT: note_on channel=1 note=77 velocity=0 time=0EXTRACT: note_on channel=0 note=86 velocity=80 time=0.014062537499999998EXTRACT: note_on channel=1 note=77 velocity=64 time=0EXTRACT: note_on channel=1 note=53 velocity=64 time=0EXTRACT: note_on channel=1 note=53 velocity=0 time=0.3546884458333333EXTRACT: note_on channel=1 note=60 velocity=64 time=0.020312554166666663EXTRACT: note_on channel=1 note=60 velocity=0 time=0.3546884458333333EXTRACT: note_on channel=1 note=69 velocity=64 time=0.020312554166666663EXTRACT: note_on channel=0 note=86 velocity=0 time=0.19843802916666664EXTRACT: note_on channel=1 note=77 velocity=0 time=0EXTRACT: note_on channel=0 note=86 velocity=80 time=0.051562637499999994EXTRACT: note_on channel=1 note=77 velocity=64 time=0EXTRACT: note_on channel=1 note=69 velocity=0 time=0.10468777916666666EXTRACT: note_on channel=1 note=65 velocity=64 time=0.020312554166666663EXTRACT: note_on channel=0 note=86 velocity=0 time=0.11093779583333332EXTRACT: note_on channel=1 note=77 velocity=0 time=0EXTRACT: note_on channel=0 note=87 velocity=80 time=0.014062537499999998EXTRACT: note_on channel=1 note=77 velocity=64 time=0EXTRACT: note_on channel=1 note=65 velocity=0 time=0.22968811249999999EXTRACT: note_on channel=0 note=87 velocity=0 time=0.006250016666666666EXTRACT: note_on channel=1 note=77 velocity=0 time=0EXTRACT: note_on channel=0 note=86 velocity=80 time=0.014062537499999998EXTRACT: note_on channel=1 note=79 velocity=64 time=0EXTRACT: note_on channel=1 note=51 velocity=64 time=0EXTRACT: note_on channel=0 note=86 velocity=0 time=0.3546884458333333EXTRACT: note_on channel=1 note=51 velocity=0 time=0EXTRACT: note_on channel=0 note=84 velocity=80 time=0.020312554166666663EXTRACT: note_on channel=1 note=60 velocity=64 time=0EXTRACT: note_on channel=1 note=79 velocity=0 time=0.3359383958333333EXTRACT: note_on channel=0 note=84 velocity=0 time=0.018750049999999997EXTRACT: note_on channel=1 note=60 velocity=0 time=0EXTRACT: note_on channel=0 note=82 velocity=80 time=0.020312554166666663EXTRACT: note_on channel=1 note=82 velocity=64 time=0EXTRACT: note_on channel=1 note=67 velocity=64 time=0EXTRACT: note_on channel=0 note=82 velocity=0 time=0.1765629708333333EXTRACT: note_on channel=1 note=82 velocity=0 time=0EXTRACT: note_on channel=0 note=79 velocity=80 time=0.010937529166666666EXTRACT: note_on channel=1 note=79 velocity=64 time=0EXTRACT: note_on channel=1 note=67 velocity=0 time=0.16718794583333332EXTRACT: note_on channel=1 note=60 velocity=64 time=0.020312554166666663EXTRACT: note_on channel=0 note=79 velocity=0 time=0.16718794583333332EXTRACT: note_on channel=1 note=79 velocity=0 time=0EXTRACT: note_on channel=0 note=79 velocity=80 time=0.020312554166666663EXTRACT: note_on channel=1 note=79 velocity=64 time=0EXTRACT: note_on channel=1 note=60 velocity=0 time=0.16718794583333332EXTRACT: note_on channel=0 note=79 velocity=0 time=0.009375024999999999EXTRACT: note_on channel=1 note=79 velocity=0 time=0EXTRACT: note_on channel=0 note=86 velocity=80 time=0.010937529166666666EXTRACT: note_on channel=1 note=79 velocity=64 time=0EXTRACT: note_on channel=1 note=82 velocity=64 time=0EXTRACT: note_on channel=1 note=55 velocity=64 time=0EXTRACT: note_on channel=1 note=55 velocity=0 time=0.3546884458333333EXTRACT: note_on channel=1 note=62 velocity=64 time=0.020312554166666663EXTRACT: note_on channel=0 note=86 velocity=0 time=0.3359383958333333EXTRACT: note_on channel=1 note=79 velocity=0 time=0EXTRACT: note_on channel=1 note=82 velocity=0 time=0EXTRACT: note_on channel=1 note=62 velocity=0 time=0.018750049999999997EXTRACT: note_on channel=0 note=86 velocity=80 time=0.020312554166666663EXTRACT: note_on channel=1 note=79 velocity=64 time=0EXTRACT: note_on channel=1 note=82 velocity=64 time=0EXTRACT: note_on channel=1 note=70 velocity=64 time=0EXTRACT: note_on channel=0 note=86 velocity=0 time=0.3546884458333333EXTRACT: note_on channel=1 note=70 velocity=0 time=0EXTRACT: note_on channel=0 note=87 velocity=80 time=0.020312554166666663EXTRACT: note_on channel=1 note=67 velocity=64 time=0EXTRACT: note_on channel=1 note=67 velocity=0 time=0.1765629708333333EXTRACT: note_on channel=1 note=55 velocity=64 time=0.010937529166666666EXTRACT: note_on channel=1 note=79 velocity=0 time=0.1484378958333333EXTRACT: note_on channel=1 note=82 velocity=0 time=0EXTRACT: note_on channel=0 note=87 velocity=0 time=0.018750049999999997EXTRACT: note_on channel=1 note=55 velocity=0 time=0.009375024999999999EXTRACT: note_on channel=0 note=86 velocity=80 time=0.010937529166666666EXTRACT: note_on channel=1 note=77 velocity=64 time=0EXTRACT: note_on channel=1 note=81 velocity=64 time=0EXTRACT: note_on channel=1 note=53 velocity=64 time=0EXTRACT: note_on channel=1 note=53 velocity=0 time=0.3546884458333333EXTRACT: note_on channel=1 note=62 velocity=64 time=0.020312554166666663EXTRACT: note_on channel=1 note=62 velocity=0 time=0.1765629708333333EXTRACT: note_on channel=1 note=69 velocity=64 time=0.010937529166666666EXTRACT: note_on channel=0 note=86 velocity=0 time=0.1484378958333333EXTRACT: note_on channel=1 note=77 velocity=0 time=0EXTRACT: note_on channel=1 note=81 velocity=0 time=0EXTRACT: note_on channel=0 note=86 velocity=80 time=0.03906260416666666EXTRACT: note_on channel=1 note=77 velocity=64 time=0EXTRACT: note_on channel=1 note=81 velocity=64 time=0EXTRACT: note_on channel=1 note=69 velocity=0 time=0.16718794583333332EXTRACT: note_on channel=1 note=63 velocity=64 time=0.020312554166666663EXTRACT: note_on channel=0 note=86 velocity=0 time=0.16718794583333332EXTRACT: note_on channel=0 note=87 velocity=80 time=0.020312554166666663EXTRACT: note_on channel=1 note=63 velocity=0 time=0.16718794583333332EXTRACT: note_on channel=1 note=53 velocity=64 time=0.020312554166666663EXTRACT: note_on channel=1 note=77 velocity=0 time=0.1484378958333333EXTRACT: note_on channel=1 note=81 velocity=0 time=0EXTRACT: note_on channel=0 note=87 velocity=0 time=0.018750049999999997EXTRACT: note_on channel=1 note=53 velocity=0 time=0.009375024999999999EXTRACT: note_on channel=0 note=86 velocity=80 time=0.010937529166666666EXTRACT: note_on channel=1 note=77 velocity=64 time=0EXTRACT: note_on channel=1 note=82 velocity=64 time=0EXTRACT: note_on channel=1 note=53 velocity=64 time=0EXTRACT: note_on channel=1 note=53 velocity=0 time=0.1765629708333333EXTRACT: note_on channel=1 note=58 velocity=64 time=0.010937529166666666EXTRACT: note_on channel=1 note=58 velocity=0 time=0.1765629708333333EXTRACT: note_on channel=1 note=62 velocity=64 time=0.010937529166666666EXTRACT: note_on channel=1 note=62 velocity=0 time=0.1765629708333333EXTRACT: note_on channel=1 note=65 velocity=64 time=0.010937529166666666EXTRACT: note_on channel=0 note=86 velocity=0 time=0.1484378958333333EXTRACT: note_on channel=1 note=77 velocity=0 time=0EXTRACT: note_on channel=1 note=82 velocity=0 time=0EXTRACT: note_on channel=0 note=86 velocity=80 time=0.03906260416666666EXTRACT: note_on channel=1 note=77 velocity=64 time=0EXTRACT: note_on channel=1 note=82 velocity=64 time=0EXTRACT: note_on channel=1 note=65 velocity=0 time=0.16718794583333332EXTRACT: note_on channel=1 note=62 velocity=64 time=0.020312554166666663EXTRACT: note_on channel=0 note=86 velocity=0 time=0.16718794583333332EXTRACT: note_on channel=0 note=87 velocity=80 time=0.020312554166666663EXTRACT: note_on channel=1 note=62 velocity=0 time=0.16718794583333332EXTRACT: note_on channel=1 note=53 velocity=64 time=0.020312554166666663EXTRACT: note_on channel=1 note=77 velocity=0 time=0.1484378958333333EXTRACT: note_on channel=1 note=82 velocity=0 time=0EXTRACT: note_on channel=0 note=87 velocity=0 time=0.018750049999999997EXTRACT: note_on channel=1 note=53 velocity=0 time=0.009375024999999999EXTRACT: note_on channel=0 note=86 velocity=80 time=0.010937529166666666EXTRACT: note_on channel=1 note=79 velocity=64 time=0EXTRACT: note_on channel=1 note=82 velocity=64 time=0EXTRACT: note_on channel=1 note=51 velocity=64 time=0EXTRACT: note_on channel=0 note=86 velocity=0 time=0.3546884458333333EXTRACT: note_on channel=1 note=51 velocity=0 time=0EXTRACT: note_on channel=0 note=84 velocity=80 time=0.020312554166666663EXTRACT: note_on channel=1 note=60 velocity=64 time=0EXTRACT: note_on channel=1 note=79 velocity=0 time=0.3359383958333333EXTRACT: note_on channel=1 note=82 velocity=0 time=0EXTRACT: note_on channel=0 note=84 velocity=0 time=0.018750049999999997EXTRACT: note_on channel=1 note=60 velocity=0 time=0EXTRACT: note_on channel=0 note=82 velocity=80 time=0.020312554166666663EXTRACT: note_on channel=1 note=75 velocity=64 time=0EXTRACT: note_on channel=1 note=67 velocity=64 time=0EXTRACT: note_on channel=0 note=82 velocity=0 time=0.1765629708333333EXTRACT: note_on channel=1 note=75 velocity=0 time=0EXTRACT: note_on channel=0 note=79 velocity=80 time=0.010937529166666666EXTRACT: note_on channel=1 note=79 velocity=64 time=0EXTRACT: note_on channel=1 note=67 velocity=0 time=0.16718794583333332EXTRACT: note_on channel=1 note=60 velocity=64 time=0.020312554166666663EXTRACT: note_on channel=0 note=79 velocity=0 time=0.16718794583333332EXTRACT: note_on channel=1 note=79 velocity=0 time=0EXTRACT: note_on channel=0 note=79 velocity=80 time=0.020312554166666663EXTRACT: note_on channel=1 note=79 velocity=64 time=0EXTRACT: note_on channel=1 note=60 velocity=0 time=0.16718794583333332EXTRACT: note_on channel=0 note=79 velocity=0 time=0.009375024999999999EXTRACT: note_on channel=1 note=79 velocity=0 time=0EXTRACT: note_on channel=0 note=91 velocity=80 time=0.010937529166666666EXTRACT: note_on channel=1 note=79 velocity=64 time=0EXTRACT: note_on channel=1 note=86 velocity=64 time=0EXTRACT: note_on channel=1 note=55 velocity=64 time=0EXTRACT: note_on channel=1 note=55 velocity=0 time=0.3546884458333333EXTRACT: note_on channel=1 note=62 velocity=64 time=0.020312554166666663EXTRACT: note_on channel=0 note=91 velocity=0 time=0.3359383958333333EXTRACT: note_on channel=1 note=79 velocity=0 time=0EXTRACT: note_on channel=1 note=86 velocity=0 time=0EXTRACT: note_on channel=1 note=62 velocity=0 time=0.018750049999999997EXTRACT: note_on channel=0 note=86 velocity=80 time=0.020312554166666663EXTRACT: note_on channel=1 note=74 velocity=64 time=0EXTRACT: note_on channel=1 note=79 velocity=64 time=0EXTRACT: note_on channel=1 note=70 velocity=64 time=0EXTRACT: note_on channel=1 note=70 velocity=0 time=0.3546884458333333EXTRACT: note_on channel=1 note=67 velocity=64 time=0.020312554166666663EXTRACT: note_on channel=1 note=67 velocity=0 time=0.1765629708333333EXTRACT: note_on channel=1 note=55 velocity=64 time=0.010937529166666666EXTRACT: note_on channel=0 note=86 velocity=0 time=0.1484378958333333EXTRACT: note_on channel=1 note=74 velocity=0 time=0EXTRACT: note_on channel=1 note=79 velocity=0 time=0EXTRACT: note_on channel=1 note=55 velocity=0 time=0.028125074999999996EXTRACT: note_on channel=0 note=84 velocity=80 time=0.010937529166666666EXTRACT: note_on channel=1 note=72 velocity=64 time=0EXTRACT: note_on channel=1 note=81 velocity=64 time=0EXTRACT: note_on channel=1 note=53 velocity=64 time=0EXTRACT: note_on channel=0 note=84 velocity=0 time=0.3546884458333333EXTRACT: note_on channel=1 note=72 velocity=0 time=0EXTRACT: note_on channel=1 note=81 velocity=0 time=0EXTRACT: note_on channel=1 note=53 velocity=0 time=0EXTRACT: note_on channel=0 note=86 velocity=80 time=0.020312554166666663EXTRACT: note_on channel=1 note=74 velocity=64 time=0EXTRACT: note_on channel=1 note=81 velocity=64 time=0EXTRACT: note_on channel=1 note=62 velocity=64 time=0EXTRACT: note_on channel=1 note=62 velocity=0 time=0.1765629708333333EXTRACT: note_on channel=1 note=69 velocity=64 time=0.010937529166666666EXTRACT: note_on channel=1 note=69 velocity=0 time=0.1765629708333333EXTRACT: note_on channel=1 note=63 velocity=64 time=0.010937529166666666EXTRACT: note_on channel=1 note=63 velocity=0 time=0.1765629708333333EXTRACT: note_on channel=1 note=57 velocity=64 time=0.010937529166666666EXTRACT: note_on channel=0 note=86 velocity=0 time=0.3265633708333333EXTRACT: note_on channel=1 note=74 velocity=0 time=0EXTRACT: note_on channel=1 note=81 velocity=0 time=0EXTRACT: note_on channel=1 note=57 velocity=0 time=0.028125074999999996EXTRACT: note_on channel=0 note=86 velocity=80 time=0.020312554166666663EXTRACT: note_on channel=1 note=74 velocity=64 time=0EXTRACT: note_on channel=1 note=53 velocity=64 time=0EXTRACT: note_on channel=0 note=86 velocity=0 time=0.1765629708333333EXTRACT: note_on channel=1 note=74 velocity=0 time=0EXTRACT: note_on channel=1 note=53 velocity=0 time=0EXTRACT: note_on channel=0 note=86 velocity=80 time=0.010937529166666666EXTRACT: note_on channel=1 note=74 velocity=64 time=0EXTRACT: note_on channel=1 note=82 velocity=64 time=0EXTRACT: note_on channel=1 note=53 velocity=64 time=0EXTRACT: note_on channel=1 note=53 velocity=0 time=0.3546884458333333EXTRACT: note_on channel=1 note=62 velocity=64 time=0.020312554166666663EXTRACT: note_on channel=1 note=62 velocity=0 time=0.3546884458333333EXTRACT: note_on channel=1 note=70 velocity=64 time=0.020312554166666663EXTRACT: note_on channel=0 note=86 velocity=0 time=0.13906287083333332EXTRACT: note_on channel=1 note=74 velocity=0 time=0EXTRACT: note_on channel=1 note=82 velocity=0 time=0EXTRACT: note_on channel=0 note=84 velocity=80 time=0.04843762916666666EXTRACT: note_on channel=1 note=72 velocity=64 time=0EXTRACT: note_on channel=1 note=70 velocity=0 time=0.16718794583333332EXTRACT: note_on channel=1 note=62 velocity=64 time=0.020312554166666663EXTRACT: note_on channel=0 note=84 velocity=0 time=0.16718794583333332EXTRACT: note_on channel=1 note=72 velocity=0 time=0EXTRACT: note_on channel=0 note=84 velocity=80 time=0.020312554166666663EXTRACT: note_on channel=1 note=72 velocity=64 time=0EXTRACT: note_on channel=1 note=62 velocity=0 time=0.16718794583333332EXTRACT: note_on channel=0 note=84 velocity=0 time=0.009375024999999999EXTRACT: note_on channel=1 note=72 velocity=0 time=0EXTRACT: note_on channel=0 note=82 velocity=80 time=0.010937529166666666EXTRACT: note_on channel=1 note=75 velocity=64 time=0EXTRACT: note_on channel=1 note=51 velocity=64 time=0EXTRACT: note_on channel=0 note=82 velocity=0 time=0.1765629708333333EXTRACT: note_on channel=0 note=81 velocity=80 time=0.010937529166666666EXTRACT: note_on channel=1 note=51 velocity=0 time=0.16718794583333332EXTRACT: note_on channel=0 note=81 velocity=0 time=0.009375024999999999EXTRACT: note_on channel=0 note=79 velocity=80 time=0.010937529166666666EXTRACT: note_on channel=1 note=60 velocity=64 time=0EXTRACT: note_on channel=1 note=75 velocity=0 time=0.3359383958333333EXTRACT: note_on channel=1 note=60 velocity=0 time=0.018750049999999997EXTRACT: note_on channel=1 note=70 velocity=64 time=0.020312554166666663EXTRACT: note_on channel=1 note=67 velocity=64 time=0EXTRACT: note_on channel=0 note=79 velocity=0 time=0.5140638708333333EXTRACT: note_on channel=0 note=79 velocity=80 time=0.04843762916666666EXTRACT: note_on channel=1 note=70 velocity=0 time=0.1484378958333333EXTRACT: note_on channel=1 note=67 velocity=0 time=0EXTRACT: note_on channel=0 note=79 velocity=0 time=0.028125074999999996EXTRACT: note_on channel=0 note=79 velocity=80 time=0.010937529166666666EXTRACT: note_on channel=1 note=70 velocity=64 time=0EXTRACT: note_on channel=1 note=75 velocity=64 time=0EXTRACT: note_on channel=1 note=51 velocity=64 time=0EXTRACT: note_on channel=1 note=63 velocity=64 time=0EXTRACT: note_on channel=0 note=79 velocity=0 time=0.3546884458333333EXTRACT: note_on channel=1 note=70 velocity=0 time=0EXTRACT: note_on channel=1 note=75 velocity=0 time=0EXTRACT: note_on channel=1 note=51 velocity=0 time=0EXTRACT: note_on channel=1 note=63 velocity=0 time=0EXTRACT: note_on channel=0 note=81 velocity=80 time=0.020312554166666663EXTRACT: note_on channel=1 note=70 velocity=64 time=0EXTRACT: note_on channel=1 note=75 velocity=64 time=0EXTRACT: note_on channel=1 note=51 velocity=64 time=0EXTRACT: note_on channel=1 note=63 velocity=64 time=0EXTRACT: note_on channel=0 note=81 velocity=0 time=0.1765629708333333EXTRACT: note_on channel=1 note=70 velocity=0 time=0EXTRACT: note_on channel=1 note=75 velocity=0 time=0EXTRACT: note_on channel=0 note=82 velocity=80 time=0.010937529166666666EXTRACT: note_on channel=1 note=70 velocity=64 time=0EXTRACT: note_on channel=1 note=75 velocity=64 time=0EXTRACT: note_on channel=1 note=51 velocity=0 time=0.16718794583333332EXTRACT: note_on channel=1 note=63 velocity=0 time=0EXTRACT: note_on channel=1 note=51 velocity=64 time=0.020312554166666663EXTRACT: note_on channel=1 note=63 velocity=64 time=0EXTRACT: note_on channel=0 note=82 velocity=0 time=0.16718794583333332EXTRACT: note_on channel=1 note=70 velocity=0 time=0EXTRACT: note_on channel=1 note=75 velocity=0 time=0EXTRACT: note_on channel=0 note=79 velocity=80 time=0.020312554166666663EXTRACT: note_on channel=1 note=70 velocity=64 time=0EXTRACT: note_on channel=1 note=75 velocity=64 time=0EXTRACT: note_on channel=1 note=51 velocity=0 time=0.16718794583333332EXTRACT: note_on channel=1 note=63 velocity=0 time=0EXTRACT: note_on channel=1 note=51 velocity=64 time=0.020312554166666663EXTRACT: note_on channel=1 note=63 velocity=64 time=0EXTRACT: note_on channel=1 note=51 velocity=0 time=0.3546884458333333EXTRACT: note_on channel=1 note=63 velocity=0 time=0EXTRACT: note_on channel=1 note=51 velocity=64 time=0.020312554166666663EXTRACT: note_on channel=1 note=63 velocity=64 time=0EXTRACT: note_on channel=0 note=79 velocity=0 time=0.3265633708333333EXTRACT: note_on channel=1 note=70 velocity=0 time=0EXTRACT: note_on channel=1 note=75 velocity=0 time=0EXTRACT: note_on channel=1 note=51 velocity=0 time=0.028125074999999996EXTRACT: note_on channel=1 note=63 velocity=0 time=0EXTRACT: note_on channel=1 note=51 velocity=64 time=0.020312554166666663EXTRACT: note_on channel=1 note=63 velocity=64 time=0EXTRACT: note_on channel=0 note=87 velocity=80 time=0.1875005EXTRACT: note_on channel=1 note=75 velocity=64 time=0EXTRACT: note_on channel=1 note=79 velocity=64 time=0EXTRACT: note_on channel=1 note=51 velocity=0 time=0.16718794583333332EXTRACT: note_on channel=1 note=63 velocity=0 time=0EXTRACT: note_on channel=0 note=87 velocity=0 time=0.009375024999999999EXTRACT: note_on channel=1 note=75 velocity=0 time=0EXTRACT: note_on channel=1 note=79 velocity=0 time=0EXTRACT: note_on channel=0 note=86 velocity=80 time=0.010937529166666666EXTRACT: note_on channel=1 note=74 velocity=64 time=0EXTRACT: note_on channel=1 note=79 velocity=64 time=0EXTRACT: note_on channel=1 note=51 velocity=64 time=0EXTRACT: note_on channel=1 note=63 velocity=64 time=0EXTRACT: note_on channel=0 note=86 velocity=0 time=0.3546884458333333EXTRACT: note_on channel=1 note=74 velocity=0 time=0EXTRACT: note_on channel=1 note=79 velocity=0 time=0EXTRACT: note_on channel=1 note=51 velocity=0 time=0EXTRACT: note_on channel=1 note=63 velocity=0 time=0EXTRACT: note_on channel=0 note=84 velocity=80 time=0.020312554166666663EXTRACT: note_on channel=1 note=72 velocity=64 time=0EXTRACT: note_on channel=1 note=51 velocity=64 time=0EXTRACT: note_on channel=1 note=63 velocity=64 time=0EXTRACT: note_on channel=0 note=84 velocity=0 time=0.1765629708333333EXTRACT: note_on channel=1 note=72 velocity=0 time=0EXTRACT: note_on channel=0 note=82 velocity=80 time=0.010937529166666666EXTRACT: note_on channel=1 note=70 velocity=64 time=0EXTRACT: note_on channel=1 note=51 velocity=0 time=0.16718794583333332EXTRACT: note_on channel=1 note=63 velocity=0 time=0EXTRACT: note_on channel=0 note=82 velocity=0 time=0.009375024999999999EXTRACT: note_on channel=1 note=70 velocity=0 time=0EXTRACT: note_on channel=0 note=84 velocity=80 time=0.010937529166666666EXTRACT: note_on channel=1 note=72 velocity=64 time=0EXTRACT: note_on channel=1 note=77 velocity=64 time=0EXTRACT: note_on channel=1 note=50 velocity=64 time=0EXTRACT: note_on channel=1 note=62 velocity=64 time=0EXTRACT: note_on channel=0 note=84 velocity=0 time=0.3546884458333333EXTRACT: note_on channel=1 note=72 velocity=0 time=0EXTRACT: note_on channel=1 note=77 velocity=0 time=0EXTRACT: note_on channel=1 note=50 velocity=0 time=0EXTRACT: note_on channel=1 note=62 velocity=0 time=0EXTRACT: note_on channel=0 note=86 velocity=80 time=0.020312554166666663EXTRACT: note_on channel=1 note=74 velocity=64 time=0EXTRACT: note_on channel=1 note=77 velocity=64 time=0EXTRACT: note_on channel=1 note=50 velocity=64 time=0EXTRACT: note_on channel=1 note=62 velocity=64 time=0EXTRACT: note_on channel=1 note=50 velocity=0 time=0.3546884458333333EXTRACT: note_on channel=1 note=62 velocity=0 time=0EXTRACT: note_on channel=1 note=50 velocity=64 time=0.020312554166666663EXTRACT: note_on channel=1 note=62 velocity=64 time=0EXTRACT: note_on channel=0 note=86 velocity=0 time=0.3359383958333333EXTRACT: note_on channel=1 note=74 velocity=0 time=0EXTRACT: note_on channel=1 note=77 velocity=0 time=0EXTRACT: note_on channel=1 note=50 velocity=0 time=0.018750049999999997EXTRACT: note_on channel=1 note=62 velocity=0 time=0EXTRACT: note_on channel=0 note=87 velocity=80 time=0.020312554166666663EXTRACT: note_on channel=1 note=74 velocity=64 time=0EXTRACT: note_on channel=1 note=77 velocity=64 time=0EXTRACT: note_on channel=1 note=50 velocity=64 time=0EXTRACT: note_on channel=1 note=62 velocity=64 time=0EXTRACT: note_on channel=0 note=87 velocity=0 time=0.3546884458333333EXTRACT: note_on channel=1 note=74 velocity=0 time=0EXTRACT: note_on channel=1 note=77 velocity=0 time=0EXTRACT: note_on channel=1 note=50 velocity=0 time=0EXTRACT: note_on channel=1 note=62 velocity=0 time=0EXTRACT: note_on channel=0 note=86 velocity=80 time=0.020312554166666663EXTRACT: note_on channel=1 note=74 velocity=64 time=0EXTRACT: note_on channel=1 note=77 velocity=64 time=0EXTRACT: note_on channel=1 note=50 velocity=64 time=0EXTRACT: note_on channel=1 note=62 velocity=64 time=0EXTRACT: note_on channel=1 note=50 velocity=0 time=0.3546884458333333EXTRACT: note_on channel=1 note=62 velocity=0 time=0EXTRACT: note_on channel=1 note=50 velocity=64 time=0.020312554166666663EXTRACT: note_on channel=1 note=62 velocity=64 time=0EXTRACT: note_on channel=1 note=50 velocity=0 time=0.3546884458333333EXTRACT: note_on channel=1 note=62 velocity=0 time=0EXTRACT: note_on channel=1 note=50 velocity=64 time=0.020312554166666663EXTRACT: note_on channel=1 note=62 velocity=64 time=0EXTRACT: note_on channel=0 note=86 velocity=0 time=0.31718834583333333EXTRACT: note_on channel=1 note=74 velocity=0 time=0EXTRACT: note_on channel=1 note=77 velocity=0 time=0EXTRACT: note_on channel=1 note=50 velocity=0 time=0.037500099999999995EXTRACT: note_on channel=1 note=62 velocity=0 time=0EXTRACT: note_on channel=0 note=84 velocity=80 time=0.020312554166666663EXTRACT: note_on channel=1 note=72 velocity=64 time=0EXTRACT: note_on channel=1 note=50 velocity=64 time=0EXTRACT: note_on channel=1 note=62 velocity=64 time=0EXTRACT: note_on channel=0 note=84 velocity=0 time=0.1765629708333333EXTRACT: note_on channel=1 note=72 velocity=0 time=0EXTRACT: note_on channel=0 note=82 velocity=80 time=0.010937529166666666EXTRACT: note_on channel=1 note=70 velocity=64 time=0EXTRACT: note_on channel=1 note=74 velocity=64 time=0EXTRACT: note_on channel=1 note=50 velocity=0 time=0.16718794583333332EXTRACT: note_on channel=1 note=62 velocity=0 time=0EXTRACT: note_on channel=1 note=70 velocity=0 time=0.009375024999999999EXTRACT: note_on channel=1 note=74 velocity=0 time=0EXTRACT: note_on channel=1 note=70 velocity=64 time=0.010937529166666666EXTRACT: note_on channel=1 note=74 velocity=64 time=0EXTRACT: note_on channel=1 note=46 velocity=64 time=0EXTRACT: note_on channel=1 note=58 velocity=64 time=0EXTRACT: note_on channel=1 note=46 velocity=0 time=0.3546884458333333EXTRACT: note_on channel=1 note=58 velocity=0 time=0EXTRACT: note_on channel=1 note=53 velocity=64 time=0.020312554166666663EXTRACT: note_on channel=1 note=53 velocity=0 time=0.3546884458333333EXTRACT: note_on channel=1 note=62 velocity=64 time=0.020312554166666663EXTRACT: note_on channel=0 note=82 velocity=0 time=0.3078133208333333EXTRACT: note_on channel=1 note=70 velocity=0 time=0.009375024999999999EXTRACT: note_on channel=1 note=74 velocity=0 time=0EXTRACT: note_on channel=1 note=62 velocity=0 time=0.037500099999999995EXTRACT: note_on channel=1 note=53 velocity=64 time=0.020312554166666663EXTRACT: note_on channel=0 note=77 velocity=80 time=0.1875005EXTRACT: note_on channel=1 note=65 velocity=64 time=0EXTRACT: note_on channel=1 note=53 velocity=0 time=0.16718794583333332EXTRACT: note_on channel=0 note=77 velocity=0 time=0.009375024999999999EXTRACT: note_on channel=1 note=65 velocity=0 time=0EXTRACT: note_on channel=0 note=77 velocity=80 time=0.010937529166666666EXTRACT: note_on channel=1 note=65 velocity=64 time=0EXTRACT: note_on channel=1 note=70 velocity=64 time=0EXTRACT: note_on channel=1 note=46 velocity=64 time=0EXTRACT: note_on channel=1 note=58 velocity=64 time=0EXTRACT: note_on channel=0 note=77 velocity=0 time=0.1765629708333333EXTRACT: note_on channel=1 note=65 velocity=0 time=0EXTRACT: note_on channel=1 note=70 velocity=0 time=0EXTRACT: note_on channel=0 note=77 velocity=80 time=0.010937529166666666EXTRACT: note_on channel=1 note=65 velocity=64 time=0EXTRACT: note_on channel=1 note=70 velocity=64 time=0EXTRACT: note_on channel=0 note=77 velocity=0 time=0.1765629708333333EXTRACT: note_on channel=1 note=65 velocity=0 time=0EXTRACT: note_on channel=1 note=70 velocity=0 time=0EXTRACT: note_on channel=0 note=77 velocity=80 time=0.010937529166666666EXTRACT: note_on channel=1 note=65 velocity=64 time=0EXTRACT: note_on channel=1 note=70 velocity=64 time=0EXTRACT: note_on channel=1 note=46 velocity=0 time=0.15781292083333331EXTRACT: note_on channel=1 note=58 velocity=0 time=0EXTRACT: note_on channel=1 note=58 velocity=64 time=0.029687579166666665EXTRACT: note_on channel=0 note=77 velocity=0 time=0.16718794583333332EXTRACT: note_on channel=1 note=65 velocity=0 time=0EXTRACT: note_on channel=1 note=70 velocity=0 time=0EXTRACT: note_on channel=1 note=58 velocity=0 time=0.009375024999999999EXTRACT: note_on channel=0 note=82 velocity=80 time=0.010937529166666666EXTRACT: note_on channel=1 note=70 velocity=64 time=0EXTRACT: note_on channel=1 note=74 velocity=64 time=0EXTRACT: note_on channel=1 note=62 velocity=64 time=0EXTRACT: note_on channel=1 note=62 velocity=0 time=0.1765629708333333EXTRACT: note_on channel=1 note=58 velocity=64 time=0.010937529166666666EXTRACT: note_on channel=0 note=82 velocity=0 time=0.16718794583333332EXTRACT: note_on channel=1 note=70 velocity=0 time=0EXTRACT: note_on channel=1 note=74 velocity=0 time=0EXTRACT: note_on channel=1 note=58 velocity=0 time=0.009375024999999999EXTRACT: note_on channel=0 note=82 velocity=80 time=0.010937529166666666EXTRACT: note_on channel=1 note=70 velocity=64 time=0EXTRACT: note_on channel=1 note=53 velocity=64 time=0EXTRACT: note_on channel=0 note=82 velocity=0 time=0.1765629708333333EXTRACT: note_on channel=1 note=70 velocity=0 time=0EXTRACT: note_on channel=0 note=84 velocity=80 time=0.010937529166666666EXTRACT: note_on channel=1 note=72 velocity=64 time=0EXTRACT: note_on channel=1 note=77 velocity=64 time=0EXTRACT: note_on channel=1 note=53 velocity=0 time=0.16718794583333332EXTRACT: note_on channel=1 note=41 velocity=64 time=0.020312554166666663EXTRACT: note_on channel=1 note=53 velocity=64 time=0EXTRACT: note_on channel=1 note=41 velocity=0 time=0.3546884458333333EXTRACT: note_on channel=1 note=53 velocity=0 time=0EXTRACT: note_on channel=1 note=60 velocity=64 time=0.020312554166666663EXTRACT: note_on channel=1 note=60 velocity=0 time=0.3546884458333333EXTRACT: note_on channel=1 note=65 velocity=64 time=0.020312554166666663EXTRACT: note_on channel=1 note=65 velocity=0 time=0.3546884458333333EXTRACT: note_on channel=1 note=60 velocity=64 time=0.020312554166666663EXTRACT: note_on channel=1 note=60 velocity=0 time=0.1765629708333333EXTRACT: note_on channel=1 note=57 velocity=64 time=0.010937529166666666EXTRACT: note_on channel=0 note=84 velocity=0 time=0.10156277083333333EXTRACT: note_on channel=1 note=72 velocity=0 time=0EXTRACT: note_on channel=1 note=77 velocity=0 time=0EXTRACT: note_on channel=1 note=57 velocity=0 time=0.07500019999999999EXTRACT: note_on channel=0 note=84 velocity=80 time=0.010937529166666666EXTRACT: note_on channel=1 note=72 velocity=64 time=0EXTRACT: note_on channel=1 note=77 velocity=64 time=0EXTRACT: note_on channel=1 note=41 velocity=64 time=0EXTRACT: note_on channel=1 note=53 velocity=64 time=0EXTRACT: note_on channel=0 note=84 velocity=0 time=0.1765629708333333EXTRACT: note_on channel=1 note=72 velocity=0 time=0EXTRACT: note_on channel=1 note=77 velocity=0 time=0EXTRACT: note_on channel=0 note=84 velocity=80 time=0.010937529166666666EXTRACT: note_on channel=1 note=72 velocity=64 time=0EXTRACT: note_on channel=1 note=77 velocity=64 time=0EXTRACT: note_on channel=1 note=41 velocity=0 time=0.16718794583333332EXTRACT: note_on channel=1 note=53 velocity=0 time=0EXTRACT: note_on channel=0 note=84 velocity=0 time=0.009375024999999999EXTRACT: note_on channel=1 note=72 velocity=0 time=0EXTRACT: note_on channel=1 note=77 velocity=0 time=0EXTRACT: note_on channel=0 note=84 velocity=80 time=0.010937529166666666EXTRACT: note_on channel=1 note=72 velocity=64 time=0EXTRACT: note_on channel=1 note=77 velocity=64 time=0EXTRACT: note_on channel=1 note=57 velocity=64 time=0EXTRACT: note_on channel=1 note=57 velocity=0 time=0.1765629708333333EXTRACT: note_on channel=1 note=60 velocity=64 time=0.010937529166666666EXTRACT: note_on channel=0 note=84 velocity=0 time=0.16718794583333332EXTRACT: note_on channel=1 note=72 velocity=0 time=0EXTRACT: note_on channel=1 note=77 velocity=0 time=0EXTRACT: note_on channel=0 note=82 velocity=80 time=0.020312554166666663EXTRACT: note_on channel=1 note=70 velocity=64 time=0EXTRACT: note_on channel=1 note=77 velocity=64 time=0EXTRACT: note_on channel=1 note=60 velocity=0 time=0.16718794583333332EXTRACT: note_on channel=1 note=57 velocity=64 time=0.020312554166666663EXTRACT: note_on channel=0 note=82 velocity=0 time=0.16718794583333332EXTRACT: note_on channel=1 note=70 velocity=0 time=0EXTRACT: note_on channel=1 note=77 velocity=0 time=0EXTRACT: note_on channel=0 note=81 velocity=80 time=0.020312554166666663EXTRACT: note_on channel=1 note=69 velocity=64 time=0EXTRACT: note_on channel=1 note=77 velocity=64 time=0EXTRACT: note_on channel=1 note=57 velocity=0 time=0.16718794583333332EXTRACT: note_on channel=1 note=53 velocity=64 time=0.020312554166666663EXTRACT: note_on channel=0 note=81 velocity=0 time=0.16718794583333332EXTRACT: note_on channel=1 note=69 velocity=0 time=0EXTRACT: note_on channel=1 note=77 velocity=0 time=0EXTRACT: note_on channel=1 note=53 velocity=0 time=0.009375024999999999EXTRACT: note_on channel=0 note=82 velocity=80 time=0.010937529166666666EXTRACT: note_on channel=1 note=70 velocity=64 time=0EXTRACT: note_on channel=1 note=74 velocity=64 time=0EXTRACT: note_on channel=1 note=43 velocity=64 time=0EXTRACT: note_on channel=1 note=55 velocity=64 time=0EXTRACT: note_on channel=0 note=82 velocity=0 time=0.1765629708333333EXTRACT: note_on channel=1 note=70 velocity=0 time=0EXTRACT: note_on channel=1 note=74 velocity=0 time=0EXTRACT: note_on channel=0 note=81 velocity=80 time=0.010937529166666666EXTRACT: note_on channel=1 note=69 velocity=64 time=0EXTRACT: note_on channel=1 note=43 velocity=0 time=0.16718794583333332EXTRACT: note_on channel=1 note=55 velocity=0 time=0EXTRACT: note_on channel=0 note=81 velocity=0 time=0.009375024999999999EXTRACT: note_on channel=1 note=69 velocity=0 time=0EXTRACT: note_on channel=0 note=79 velocity=80 time=0.010937529166666666EXTRACT: note_on channel=1 note=67 velocity=64 time=0EXTRACT: note_on channel=1 note=50 velocity=64 time=0EXTRACT: note_on channel=1 note=50 velocity=0 time=0.3546884458333333EXTRACT: note_on channel=1 note=58 velocity=64 time=0.020312554166666663EXTRACT: note_on channel=0 note=79 velocity=0 time=0.3359383958333333EXTRACT: note_on channel=1 note=67 velocity=0 time=0EXTRACT: note_on channel=1 note=58 velocity=0 time=0.018750049999999997EXTRACT: note_on channel=1 note=50 velocity=64 time=0.020312554166666663EXTRACT: note_on channel=0 note=82 velocity=80 time=0.1875005EXTRACT: note_on channel=1 note=70 velocity=64 time=0EXTRACT: note_on channel=1 note=50 velocity=0 time=0.16718794583333332EXTRACT: note_on channel=0 note=82 velocity=0 time=0.009375024999999999EXTRACT: note_on channel=1 note=70 velocity=0 time=0EXTRACT: note_on channel=0 note=82 velocity=80 time=0.010937529166666666EXTRACT: note_on channel=1 note=70 velocity=64 time=0EXTRACT: note_on channel=1 note=77 velocity=64 time=0EXTRACT: note_on channel=1 note=43 velocity=64 time=0EXTRACT: note_on channel=1 note=55 velocity=64 time=0EXTRACT: note_on channel=0 note=82 velocity=0 time=0.1765629708333333EXTRACT: note_on channel=1 note=70 velocity=0 time=0EXTRACT: note_on channel=1 note=77 velocity=0 time=0EXTRACT: note_on channel=0 note=82 velocity=80 time=0.010937529166666666EXTRACT: note_on channel=1 note=70 velocity=64 time=0EXTRACT: note_on channel=1 note=77 velocity=64 time=0EXTRACT: note_on channel=0 note=82 velocity=0 time=0.1765629708333333EXTRACT: note_on channel=1 note=70 velocity=0 time=0EXTRACT: note_on channel=1 note=77 velocity=0 time=0EXTRACT: note_on channel=0 note=82 velocity=80 time=0.010937529166666666EXTRACT: note_on channel=1 note=70 velocity=64 time=0EXTRACT: note_on channel=1 note=77 velocity=64 time=0EXTRACT: note_on channel=1 note=43 velocity=0 time=0.15781292083333331EXTRACT: note_on channel=1 note=55 velocity=0 time=0EXTRACT: note_on channel=1 note=55 velocity=64 time=0.029687579166666665EXTRACT: note_on channel=0 note=82 velocity=0 time=0.16718794583333332EXTRACT: note_on channel=1 note=70 velocity=0 time=0EXTRACT: note_on channel=1 note=77 velocity=0 time=0EXTRACT: note_on channel=1 note=55 velocity=0 time=0.009375024999999999EXTRACT: note_on channel=0 note=84 velocity=80 time=0.010937529166666666EXTRACT: note_on channel=1 note=72 velocity=64 time=0EXTRACT: note_on channel=1 note=77 velocity=64 time=0EXTRACT: note_on channel=1 note=58 velocity=64 time=0EXTRACT: note_on channel=1 note=58 velocity=0 time=0.1765629708333333EXTRACT: note_on channel=1 note=55 velocity=64 time=0.010937529166666666EXTRACT: note_on channel=0 note=84 velocity=0 time=0.16718794583333332EXTRACT: note_on channel=1 note=72 velocity=0 time=0EXTRACT: note_on channel=1 note=77 velocity=0 time=0EXTRACT: note_on channel=1 note=55 velocity=0 time=0.009375024999999999EXTRACT: note_on channel=0 note=82 velocity=80 time=0.010937529166666666EXTRACT: note_on channel=1 note=70 velocity=64 time=0EXTRACT: note_on channel=1 note=50 velocity=64 time=0EXTRACT: note_on channel=0 note=82 velocity=0 time=0.1765629708333333EXTRACT: note_on channel=1 note=70 velocity=0 time=0EXTRACT: note_on channel=0 note=82 velocity=80 time=0.010937529166666666EXTRACT: note_on channel=1 note=70 velocity=64 time=0EXTRACT: note_on channel=1 note=75 velocity=64 time=0EXTRACT: note_on channel=1 note=50 velocity=0 time=0.16718794583333332EXTRACT: note_on channel=1 note=70 velocity=0 time=0.009375024999999999EXTRACT: note_on channel=1 note=75 velocity=0 time=0EXTRACT: note_on channel=1 note=70 velocity=64 time=0.010937529166666666EXTRACT: note_on channel=1 note=75 velocity=64 time=0EXTRACT: note_on channel=1 note=51 velocity=64 time=0EXTRACT: note_on channel=1 note=51 velocity=0 time=0.3546884458333333EXTRACT: note_on channel=1 note=46 velocity=64 time=0.020312554166666663EXTRACT: note_on channel=1 note=46 velocity=0 time=0.1765629708333333EXTRACT: note_on channel=1 note=51 velocity=64 time=0.010937529166666666EXTRACT: note_on channel=1 note=51 velocity=0 time=0.1765629708333333EXTRACT: note_on channel=1 note=55 velocity=64 time=0.010937529166666666EXTRACT: note_on channel=0 note=82 velocity=0 time=0.3078133208333333EXTRACT: note_on channel=1 note=70 velocity=0 time=0.009375024999999999EXTRACT: note_on channel=1 note=75 velocity=0 time=0EXTRACT: note_on channel=1 note=55 velocity=0 time=0.037500099999999995EXTRACT: note_on channel=1 note=51 velocity=64 time=0.020312554166666663EXTRACT: note_on channel=0 note=74 velocity=80 time=0.1875005EXTRACT: note_on channel=1 note=74 velocity=64 time=0EXTRACT: note_on channel=1 note=51 velocity=0 time=0.16718794583333332EXTRACT: note_on channel=0 note=74 velocity=0 time=0.009375024999999999EXTRACT: note_on channel=1 note=74 velocity=0 time=0EXTRACT: note_on channel=0 note=82 velocity=80 time=0.010937529166666666EXTRACT: note_on channel=1 note=70 velocity=64 time=0EXTRACT: note_on channel=1 note=75 velocity=64 time=0EXTRACT: note_on channel=1 note=51 velocity=64 time=0EXTRACT: note_on channel=0 note=82 velocity=0 time=0.3546884458333333EXTRACT: note_on channel=1 note=70 velocity=0 time=0EXTRACT: note_on channel=1 note=75 velocity=0 time=0EXTRACT: note_on channel=0 note=82 velocity=80 time=0.020312554166666663EXTRACT: note_on channel=1 note=70 velocity=64 time=0EXTRACT: note_on channel=1 note=75 velocity=64 time=0EXTRACT: note_on channel=1 note=51 velocity=0 time=0.15781292083333331EXTRACT: note_on channel=1 note=51 velocity=64 time=0.029687579166666665EXTRACT: note_on channel=0 note=82 velocity=0 time=0.16718794583333332EXTRACT: note_on channel=1 note=70 velocity=0 time=0EXTRACT: note_on channel=1 note=75 velocity=0 time=0EXTRACT: note_on channel=0 note=84 velocity=80 time=0.020312554166666663EXTRACT: note_on channel=1 note=72 velocity=64 time=0EXTRACT: note_on channel=1 note=79 velocity=64 time=0EXTRACT: note_on channel=1 note=51 velocity=0 time=0.3453134208333333EXTRACT: note_on channel=0 note=84 velocity=0 time=0.009375024999999999EXTRACT: note_on channel=1 note=72 velocity=0 time=0EXTRACT: note_on channel=1 note=79 velocity=0 time=0EXTRACT: note_on channel=0 note=82 velocity=80 time=0.020312554166666663EXTRACT: note_on channel=1 note=70 velocity=64 time=0EXTRACT: note_on channel=1 note=79 velocity=64 time=0EXTRACT: note_on channel=1 note=51 velocity=64 time=0EXTRACT: note_on channel=0 note=82 velocity=0 time=0.1765629708333333EXTRACT: note_on channel=1 note=70 velocity=0 time=0EXTRACT: note_on channel=1 note=79 velocity=0 time=0EXTRACT: note_on channel=0 note=82 velocity=80 time=0.010937529166666666EXTRACT: note_on channel=1 note=70 velocity=64 time=0EXTRACT: note_on channel=1 note=77 velocity=64 time=0EXTRACT: note_on channel=1 note=51 velocity=0 time=0.16718794583333332EXTRACT: note_on channel=1 note=46 velocity=64 time=0.020312554166666663EXTRACT: note_on channel=1 note=58 velocity=64 time=0EXTRACT: note_on channel=0 note=82 velocity=0 time=0.16718794583333332EXTRACT: note_on channel=1 note=70 velocity=0 time=0EXTRACT: note_on channel=1 note=77 velocity=0 time=0EXTRACT: note_on channel=0 note=84 velocity=80 time=0.020312554166666663EXTRACT: note_on channel=1 note=72 velocity=64 time=0EXTRACT: note_on channel=1 note=46 velocity=0 time=0.16718794583333332EXTRACT: note_on channel=1 note=58 velocity=0 time=0EXTRACT: note_on channel=0 note=84 velocity=0 time=0.009375024999999999EXTRACT: note_on channel=1 note=72 velocity=0 time=0EXTRACT: note_on channel=0 note=86 velocity=80 time=0.010937529166666666EXTRACT: note_on channel=1 note=74 velocity=64 time=0EXTRACT: note_on channel=1 note=53 velocity=64 time=0EXTRACT: note_on channel=0 note=86 velocity=0 time=0.3546884458333333EXTRACT: note_on channel=1 note=74 velocity=0 time=0EXTRACT: note_on channel=1 note=53 velocity=0 time=0EXTRACT: note_on channel=1 note=62 velocity=64 time=0.020312554166666663EXTRACT: note_on channel=1 note=62 velocity=0 time=0.3546884458333333EXTRACT: note_on channel=1 note=53 velocity=64 time=0.020312554166666663EXTRACT: note_on channel=0 note=77 velocity=80 time=0.1875005EXTRACT: note_on channel=1 note=65 velocity=64 time=0EXTRACT: note_on channel=1 note=53 velocity=0 time=0.16718794583333332EXTRACT: note_on channel=0 note=77 velocity=0 time=0.009375024999999999EXTRACT: note_on channel=1 note=65 velocity=0 time=0EXTRACT: note_on channel=0 note=77 velocity=80 time=0.010937529166666666EXTRACT: note_on channel=1 note=65 velocity=64 time=0EXTRACT: note_on channel=1 note=70 velocity=64 time=0EXTRACT: note_on channel=1 note=46 velocity=64 time=0EXTRACT: note_on channel=1 note=58 velocity=64 time=0EXTRACT: note_on channel=0 note=77 velocity=0 time=0.1765629708333333EXTRACT: note_on channel=1 note=65 velocity=0 time=0EXTRACT: note_on channel=1 note=70 velocity=0 time=0EXTRACT: note_on channel=0 note=77 velocity=80 time=0.010937529166666666EXTRACT: note_on channel=1 note=65 velocity=64 time=0EXTRACT: note_on channel=1 note=70 velocity=64 time=0EXTRACT: note_on channel=0 note=77 velocity=0 time=0.1765629708333333EXTRACT: note_on channel=1 note=65 velocity=0 time=0EXTRACT: note_on channel=1 note=70 velocity=0 time=0EXTRACT: note_on channel=0 note=77 velocity=80 time=0.010937529166666666EXTRACT: note_on channel=1 note=65 velocity=64 time=0EXTRACT: note_on channel=1 note=70 velocity=64 time=0EXTRACT: note_on channel=1 note=46 velocity=0 time=0.15781292083333331EXTRACT: note_on channel=1 note=58 velocity=0 time=0EXTRACT: note_on channel=1 note=58 velocity=64 time=0.029687579166666665EXTRACT: note_on channel=0 note=77 velocity=0 time=0.16718794583333332EXTRACT: note_on channel=1 note=65 velocity=0 time=0EXTRACT: note_on channel=1 note=70 velocity=0 time=0EXTRACT: note_on channel=1 note=58 velocity=0 time=0.009375024999999999EXTRACT: note_on channel=0 note=82 velocity=80 time=0.010937529166666666EXTRACT: note_on channel=1 note=70 velocity=64 time=0EXTRACT: note_on channel=1 note=74 velocity=64 time=0EXTRACT: note_on channel=1 note=62 velocity=64 time=0EXTRACT: note_on channel=1 note=62 velocity=0 time=0.1765629708333333EXTRACT: note_on channel=1 note=58 velocity=64 time=0.010937529166666666EXTRACT: note_on channel=0 note=82 velocity=0 time=0.16718794583333332EXTRACT: note_on channel=1 note=70 velocity=0 time=0EXTRACT: note_on channel=1 note=74 velocity=0 time=0EXTRACT: note_on channel=1 note=58 velocity=0 time=0.009375024999999999EXTRACT: note_on channel=0 note=82 velocity=80 time=0.010937529166666666EXTRACT: note_on channel=1 note=70 velocity=64 time=0EXTRACT: note_on channel=1 note=53 velocity=64 time=0EXTRACT: note_on channel=0 note=82 velocity=0 time=0.1765629708333333EXTRACT: note_on channel=1 note=70 velocity=0 time=0EXTRACT: note_on channel=0 note=84 velocity=80 time=0.010937529166666666EXTRACT: note_on channel=1 note=72 velocity=64 time=0EXTRACT: note_on channel=1 note=77 velocity=64 time=0EXTRACT: note_on channel=1 note=53 velocity=0 time=0.16718794583333332EXTRACT: note_on channel=1 note=41 velocity=64 time=0.020312554166666663EXTRACT: note_on channel=1 note=53 velocity=64 time=0EXTRACT: note_on channel=0 note=84 velocity=0 time=0.16718794583333332EXTRACT: note_on channel=1 note=72 velocity=0 time=0EXTRACT: note_on channel=1 note=77 velocity=0 time=0EXTRACT: note_on channel=0 note=81 velocity=80 time=0.020312554166666663EXTRACT: note_on channel=1 note=69 velocity=64 time=0EXTRACT: note_on channel=1 note=41 velocity=0 time=0.16718794583333332EXTRACT: note_on channel=1 note=53 velocity=0 time=0EXTRACT: note_on channel=1 note=60 velocity=64 time=0.020312554166666663EXTRACT: note_on channel=0 note=81 velocity=0 time=0.3453134208333333EXTRACT: note_on channel=1 note=69 velocity=0 time=0EXTRACT: note_on channel=1 note=60 velocity=0 time=0.009375024999999999EXTRACT: note_on channel=1 note=65 velocity=64 time=0.020312554166666663EXTRACT: note_on channel=1 note=65 velocity=0 time=0.3546884458333333EXTRACT: note_on channel=0 note=84 velocity=80 time=0.020312554166666663EXTRACT: note_on channel=1 note=72 velocity=64 time=0EXTRACT: note_on channel=1 note=77 velocity=64 time=0EXTRACT: note_on channel=1 note=60 velocity=64 time=0EXTRACT: note_on channel=0 note=84 velocity=0 time=0.1765629708333333EXTRACT: note_on channel=1 note=72 velocity=0 time=0EXTRACT: note_on channel=1 note=77 velocity=0 time=0EXTRACT: note_on channel=1 note=60 velocity=0 time=0EXTRACT: note_on channel=0 note=84 velocity=80 time=0.010937529166666666EXTRACT: note_on channel=1 note=72 velocity=64 time=0EXTRACT: note_on channel=1 note=77 velocity=64 time=0EXTRACT: note_on channel=1 note=57 velocity=64 time=0EXTRACT: note_on channel=0 note=84 velocity=0 time=0.1765629708333333EXTRACT: note_on channel=1 note=72 velocity=0 time=0EXTRACT: note_on channel=1 note=77 velocity=0 time=0EXTRACT: note_on channel=1 note=57 velocity=0 time=0EXTRACT: note_on channel=0 note=84 velocity=80 time=0.010937529166666666EXTRACT: note_on channel=1 note=72 velocity=64 time=0EXTRACT: note_on channel=1 note=77 velocity=64 time=0EXTRACT: note_on channel=1 note=41 velocity=64 time=0EXTRACT: note_on channel=1 note=53 velocity=64 time=0EXTRACT: note_on channel=1 note=41 velocity=0 time=0.1765629708333333EXTRACT: note_on channel=1 note=53 velocity=0 time=0EXTRACT: note_on channel=1 note=57 velocity=64 time=0.010937529166666666EXTRACT: note_on channel=1 note=57 velocity=0 time=0.1765629708333333EXTRACT: note_on channel=1 note=60 velocity=64 time=0.010937529166666666EXTRACT: note_on channel=0 note=84 velocity=0 time=0.15781292083333331EXTRACT: note_on channel=1 note=72 velocity=0 time=0EXTRACT: note_on channel=1 note=77 velocity=0 time=0EXTRACT: note_on channel=0 note=84 velocity=80 time=0.029687579166666665EXTRACT: note_on channel=1 note=72 velocity=64 time=0EXTRACT: note_on channel=1 note=77 velocity=64 time=0EXTRACT: note_on channel=0 note=84 velocity=0 time=0.1765629708333333EXTRACT: note_on channel=1 note=72 velocity=0 time=0EXTRACT: note_on channel=1 note=77 velocity=0 time=0EXTRACT: note_on channel=0 note=82 velocity=80 time=0.010937529166666666EXTRACT: note_on channel=1 note=70 velocity=64 time=0EXTRACT: note_on channel=1 note=77 velocity=64 time=0EXTRACT: note_on channel=1 note=60 velocity=0 time=0.15781292083333331EXTRACT: note_on channel=1 note=57 velocity=64 time=0.029687579166666665EXTRACT: note_on channel=1 note=57 velocity=0 time=0.1765629708333333EXTRACT: note_on channel=1 note=53 velocity=64 time=0.010937529166666666EXTRACT: note_on channel=0 note=82 velocity=0 time=0.15781292083333331EXTRACT: note_on channel=1 note=70 velocity=0 time=0EXTRACT: note_on channel=1 note=77 velocity=0 time=0EXTRACT: note_on channel=0 note=81 velocity=80 time=0.029687579166666665EXTRACT: note_on channel=1 note=69 velocity=64 time=0EXTRACT: note_on channel=1 note=77 velocity=64 time=0EXTRACT: note_on channel=1 note=53 velocity=0 time=0.16718794583333332EXTRACT: note_on channel=0 note=81 velocity=0 time=0.009375024999999999EXTRACT: note_on channel=1 note=69 velocity=0 time=0EXTRACT: note_on channel=1 note=77 velocity=0 time=0EXTRACT: note_on channel=0 note=82 velocity=80 time=0.010937529166666666EXTRACT: note_on channel=1 note=70 velocity=64 time=0EXTRACT: note_on channel=1 note=74 velocity=64 time=0EXTRACT: note_on channel=1 note=43 velocity=64 time=0EXTRACT: note_on channel=1 note=55 velocity=64 time=0EXTRACT: note_on channel=0 note=82 velocity=0 time=0.1765629708333333EXTRACT: note_on channel=1 note=70 velocity=0 time=0EXTRACT: note_on channel=1 note=74 velocity=0 time=0EXTRACT: note_on channel=0 note=81 velocity=80 time=0.010937529166666666EXTRACT: note_on channel=1 note=69 velocity=64 time=0EXTRACT: note_on channel=1 note=43 velocity=0 time=0.16718794583333332EXTRACT: note_on channel=1 note=55 velocity=0 time=0EXTRACT: note_on channel=0 note=81 velocity=0 time=0.009375024999999999EXTRACT: note_on channel=1 note=69 velocity=0 time=0EXTRACT: note_on channel=0 note=79 velocity=80 time=0.010937529166666666EXTRACT: note_on channel=1 note=67 velocity=64 time=0EXTRACT: note_on channel=1 note=50 velocity=64 time=0EXTRACT: note_on channel=1 note=50 velocity=0 time=0.3546884458333333EXTRACT: note_on channel=1 note=58 velocity=64 time=0.020312554166666663EXTRACT: note_on channel=0 note=79 velocity=0 time=0.3359383958333333EXTRACT: note_on channel=1 note=67 velocity=0 time=0EXTRACT: note_on channel=1 note=58 velocity=0 time=0.018750049999999997EXTRACT: note_on channel=1 note=50 velocity=64 time=0.020312554166666663EXTRACT: note_on channel=0 note=74 velocity=80 time=0.1875005EXTRACT: note_on channel=1 note=74 velocity=64 time=0EXTRACT: note_on channel=1 note=50 velocity=0 time=0.16718794583333332EXTRACT: note_on channel=0 note=74 velocity=0 time=0.009375024999999999EXTRACT: note_on channel=1 note=74 velocity=0 time=0EXTRACT: note_on channel=0 note=82 velocity=80 time=0.010937529166666666EXTRACT: note_on channel=1 note=70 velocity=64 time=0EXTRACT: note_on channel=1 note=77 velocity=64 time=0EXTRACT: note_on channel=1 note=43 velocity=64 time=0EXTRACT: note_on channel=1 note=55 velocity=64 time=0EXTRACT: note_on channel=0 note=82 velocity=0 time=0.3546884458333333EXTRACT: note_on channel=1 note=70 velocity=0 time=0EXTRACT: note_on channel=1 note=77 velocity=0 time=0EXTRACT: note_on channel=0 note=82 velocity=80 time=0.020312554166666663EXTRACT: note_on channel=1 note=70 velocity=64 time=0EXTRACT: note_on channel=1 note=77 velocity=64 time=0EXTRACT: note_on channel=1 note=43 velocity=0 time=0.15781292083333331EXTRACT: note_on channel=1 note=55 velocity=0 time=0EXTRACT: note_on channel=1 note=55 velocity=64 time=0.029687579166666665EXTRACT: note_on channel=0 note=82 velocity=0 time=0.16718794583333332EXTRACT: note_on channel=1 note=70 velocity=0 time=0EXTRACT: note_on channel=1 note=77 velocity=0 time=0EXTRACT: note_on channel=1 note=55 velocity=0 time=0.009375024999999999EXTRACT: note_on channel=0 note=84 velocity=80 time=0.010937529166666666EXTRACT: note_on channel=1 note=70 velocity=64 time=0EXTRACT: note_on channel=1 note=77 velocity=64 time=0EXTRACT: note_on channel=1 note=58 velocity=64 time=0EXTRACT: note_on channel=1 note=58 velocity=0 time=0.1765629708333333EXTRACT: note_on channel=1 note=55 velocity=64 time=0.010937529166666666EXTRACT: note_on channel=1 note=55 velocity=0 time=0.1765629708333333EXTRACT: note_on channel=1 note=50 velocity=64 time=0.010937529166666666EXTRACT: note_on channel=0 note=84 velocity=0 time=0.15781292083333331EXTRACT: note_on channel=1 note=70 velocity=0 time=0EXTRACT: note_on channel=1 note=77 velocity=0 time=0EXTRACT: note_on channel=0 note=81 velocity=80 time=0.029687579166666665EXTRACT: note_on channel=1 note=69 velocity=64 time=0EXTRACT: note_on channel=1 note=50 velocity=0 time=0.16718794583333332EXTRACT: note_on channel=0 note=81 velocity=0 time=0.009375024999999999EXTRACT: note_on channel=1 note=69 velocity=0 time=0EXTRACT: note_on channel=0 note=82 velocity=80 time=0.010937529166666666EXTRACT: note_on channel=1 note=70 velocity=64 time=0EXTRACT: note_on channel=1 note=75 velocity=64 time=0EXTRACT: note_on channel=1 note=51 velocity=64 time=0EXTRACT: note_on channel=1 note=51 velocity=0 time=0.3546884458333333EXTRACT: note_on channel=1 note=46 velocity=64 time=0.020312554166666663EXTRACT: note_on channel=1 note=46 velocity=0 time=0.1765629708333333EXTRACT: note_on channel=1 note=51 velocity=64 time=0.010937529166666666EXTRACT: note_on channel=1 note=51 velocity=0 time=0.1765629708333333EXTRACT: note_on channel=1 note=55 velocity=64 time=0.010937529166666666EXTRACT: note_on channel=1 note=55 velocity=0 time=0.3546884458333333EXTRACT: note_on channel=1 note=51 velocity=64 time=0.020312554166666663EXTRACT: note_on channel=0 note=82 velocity=0 time=0.2984382958333333EXTRACT: note_on channel=1 note=70 velocity=0 time=0EXTRACT: note_on channel=1 note=75 velocity=0 time=0EXTRACT: note_on channel=1 note=51 velocity=0 time=0.05625014999999999EXTRACT: note_on channel=0 note=82 velocity=80 time=0.020312554166666663EXTRACT: note_on channel=1 note=70 velocity=64 time=0EXTRACT: note_on channel=1 note=75 velocity=64 time=0EXTRACT: note_on channel=1 note=51 velocity=64 time=0EXTRACT: note_on channel=0 note=82 velocity=0 time=0.3546884458333333EXTRACT: note_on channel=1 note=70 velocity=0 time=0EXTRACT: note_on channel=1 note=75 velocity=0 time=0EXTRACT: note_on channel=0 note=82 velocity=80 time=0.020312554166666663EXTRACT: note_on channel=1 note=70 velocity=64 time=0EXTRACT: note_on channel=1 note=75 velocity=64 time=0EXTRACT: note_on channel=1 note=51 velocity=0 time=0.15781292083333331EXTRACT: note_on channel=1 note=51 velocity=64 time=0.029687579166666665EXTRACT: note_on channel=0 note=82 velocity=0 time=0.16718794583333332EXTRACT: note_on channel=1 note=70 velocity=0 time=0EXTRACT: note_on channel=1 note=75 velocity=0 time=0EXTRACT: note_on channel=0 note=84 velocity=80 time=0.020312554166666663EXTRACT: note_on channel=1 note=72 velocity=64 time=0EXTRACT: note_on channel=0 note=84 velocity=0 time=0.1765629708333333EXTRACT: note_on channel=1 note=72 velocity=0 time=0EXTRACT: note_on channel=0 note=82 velocity=80 time=0.010937529166666666EXTRACT: note_on channel=1 note=70 velocity=64 time=0EXTRACT: note_on channel=1 note=51 velocity=0 time=0.15781292083333331EXTRACT: note_on channel=1 note=51 velocity=64 time=0.029687579166666665EXTRACT: note_on channel=0 note=82 velocity=0 time=0.16718794583333332EXTRACT: note_on channel=1 note=70 velocity=0 time=0EXTRACT: note_on channel=0 note=82 velocity=80 time=0.020312554166666663EXTRACT: note_on channel=1 note=69 velocity=64 time=0EXTRACT: note_on channel=1 note=51 velocity=0 time=0.16718794583333332EXTRACT: note_on channel=0 note=82 velocity=0 time=0.009375024999999999EXTRACT: note_on channel=1 note=69 velocity=0 time=0EXTRACT: note_on channel=0 note=82 velocity=80 time=0.010937529166666666EXTRACT: note_on channel=1 note=70 velocity=64 time=0EXTRACT: note_on channel=1 note=74 velocity=64 time=0EXTRACT: note_on channel=1 note=46 velocity=64 time=0EXTRACT: note_on channel=1 note=58 velocity=64 time=0EXTRACT: note_on channel=1 note=46 velocity=0 time=0.3546884458333333EXTRACT: note_on channel=1 note=58 velocity=0 time=0EXTRACT: note_on channel=1 note=53 velocity=64 time=0.020312554166666663EXTRACT: note_on channel=1 note=53 velocity=0 time=0.3546884458333333EXTRACT: note_on channel=1 note=62 velocity=64 time=0.020312554166666663EXTRACT: note_on channel=0 note=82 velocity=0 time=0.31718834583333333EXTRACT: note_on channel=1 note=70 velocity=0 time=0EXTRACT: note_on channel=1 note=74 velocity=0 time=0EXTRACT: note_on channel=1 note=62 velocity=0 time=0.037500099999999995EXTRACT: note_on channel=1 note=53 velocity=64 time=0.020312554166666663EXTRACT: note_on channel=0 note=77 velocity=80 time=0.1875005EXTRACT: note_on channel=1 note=65 velocity=64 time=0EXTRACT: note_on channel=1 note=53 velocity=0 time=0.16718794583333332EXTRACT: note_on channel=0 note=77 velocity=0 time=0.009375024999999999EXTRACT: note_on channel=1 note=65 velocity=0 time=0EXTRACT: note_on channel=0 note=77 velocity=80 time=0.010937529166666666EXTRACT: note_on channel=1 note=65 velocity=64 time=0EXTRACT: note_on channel=1 note=70 velocity=64 time=0EXTRACT: note_on channel=1 note=46 velocity=64 time=0EXTRACT: note_on channel=1 note=58 velocity=64 time=0EXTRACT: note_on channel=0 note=77 velocity=0 time=0.1765629708333333EXTRACT: note_on channel=1 note=65 velocity=0 time=0EXTRACT: note_on channel=1 note=70 velocity=0 time=0EXTRACT: note_on channel=0 note=77 velocity=80 time=0.010937529166666666EXTRACT: note_on channel=1 note=65 velocity=64 time=0EXTRACT: note_on channel=1 note=70 velocity=64 time=0EXTRACT: note_on channel=0 note=77 velocity=0 time=0.1765629708333333EXTRACT: note_on channel=1 note=65 velocity=0 time=0EXTRACT: note_on channel=1 note=70 velocity=0 time=0EXTRACT: note_on channel=0 note=77 velocity=80 time=0.010937529166666666EXTRACT: note_on channel=1 note=65 velocity=64 time=0EXTRACT: note_on channel=1 note=70 velocity=64 time=0EXTRACT: note_on channel=1 note=46 velocity=0 time=0.15781292083333331EXTRACT: note_on channel=1 note=58 velocity=0 time=0EXTRACT: note_on channel=1 note=58 velocity=64 time=0.029687579166666665EXTRACT: note_on channel=0 note=77 velocity=0 time=0.16718794583333332EXTRACT: note_on channel=1 note=65 velocity=0 time=0EXTRACT: note_on channel=1 note=70 velocity=0 time=0EXTRACT: note_on channel=1 note=58 velocity=0 time=0.009375024999999999EXTRACT: note_on channel=0 note=82 velocity=80 time=0.010937529166666666EXTRACT: note_on channel=1 note=70 velocity=64 time=0EXTRACT: note_on channel=1 note=74 velocity=64 time=0EXTRACT: note_on channel=1 note=62 velocity=64 time=0EXTRACT: note_on channel=1 note=62 velocity=0 time=0.1765629708333333EXTRACT: note_on channel=1 note=58 velocity=64 time=0.010937529166666666EXTRACT: note_on channel=0 note=82 velocity=0 time=0.16718794583333332EXTRACT: note_on channel=1 note=70 velocity=0 time=0EXTRACT: note_on channel=1 note=74 velocity=0 time=0EXTRACT: note_on channel=1 note=58 velocity=0 time=0.009375024999999999EXTRACT: note_on channel=0 note=82 velocity=80 time=0.010937529166666666EXTRACT: note_on channel=1 note=70 velocity=64 time=0EXTRACT: note_on channel=1 note=53 velocity=64 time=0EXTRACT: note_on channel=0 note=82 velocity=0 time=0.1765629708333333EXTRACT: note_on channel=1 note=70 velocity=0 time=0EXTRACT: note_on channel=0 note=84 velocity=80 time=0.010937529166666666EXTRACT: note_on channel=1 note=72 velocity=64 time=0EXTRACT: note_on channel=1 note=77 velocity=64 time=0EXTRACT: note_on channel=1 note=53 velocity=0 time=0.16718794583333332EXTRACT: note_on channel=1 note=72 velocity=0 time=0.009375024999999999EXTRACT: note_on channel=1 note=77 velocity=0 time=0EXTRACT: note_on channel=1 note=72 velocity=64 time=0.010937529166666666EXTRACT: note_on channel=1 note=77 velocity=64 time=0EXTRACT: note_on channel=1 note=41 velocity=64 time=0EXTRACT: note_on channel=1 note=53 velocity=64 time=0EXTRACT: note_on channel=1 note=41 velocity=0 time=0.3546884458333333EXTRACT: note_on channel=1 note=53 velocity=0 time=0EXTRACT: note_on channel=1 note=60 velocity=64 time=0.020312554166666663EXTRACT: note_on channel=1 note=60 velocity=0 time=0.3546884458333333EXTRACT: note_on channel=1 note=65 velocity=64 time=0.020312554166666663EXTRACT: note_on channel=1 note=65 velocity=0 time=0.3546884458333333EXTRACT: note_on channel=1 note=60 velocity=64 time=0.020312554166666663EXTRACT: note_on channel=1 note=60 velocity=0 time=0.1765629708333333EXTRACT: note_on channel=1 note=57 velocity=64 time=0.010937529166666666EXTRACT: note_on channel=0 note=84 velocity=0 time=0.10156277083333333EXTRACT: note_on channel=1 note=72 velocity=0 time=0.009375024999999999EXTRACT: note_on channel=1 note=77 velocity=0 time=0EXTRACT: note_on channel=1 note=57 velocity=0 time=0.065625175EXTRACT: note_on channel=0 note=84 velocity=80 time=0.010937529166666666EXTRACT: note_on channel=1 note=72 velocity=64 time=0EXTRACT: note_on channel=1 note=77 velocity=64 time=0EXTRACT: note_on channel=1 note=41 velocity=64 time=0EXTRACT: note_on channel=1 note=53 velocity=64 time=0EXTRACT: note_on channel=0 note=84 velocity=0 time=0.1765629708333333EXTRACT: note_on channel=1 note=72 velocity=0 time=0EXTRACT: note_on channel=1 note=77 velocity=0 time=0EXTRACT: note_on channel=0 note=84 velocity=80 time=0.010937529166666666EXTRACT: note_on channel=1 note=72 velocity=64 time=0EXTRACT: note_on channel=1 note=77 velocity=64 time=0EXTRACT: note_on channel=0 note=84 velocity=0 time=0.1765629708333333EXTRACT: note_on channel=1 note=72 velocity=0 time=0EXTRACT: note_on channel=1 note=77 velocity=0 time=0EXTRACT: note_on channel=0 note=84 velocity=80 time=0.010937529166666666EXTRACT: note_on channel=1 note=72 velocity=64 time=0EXTRACT: note_on channel=1 note=77 velocity=64 time=0EXTRACT: note_on channel=1 note=41 velocity=0 time=0.15781292083333331EXTRACT: note_on channel=1 note=53 velocity=0 time=0EXTRACT: note_on channel=1 note=60 velocity=64 time=0.029687579166666665EXTRACT: note_on channel=1 note=60 velocity=0 time=0.1765629708333333EXTRACT: note_on channel=1 note=65 velocity=64 time=0.010937529166666666EXTRACT: note_on channel=0 note=84 velocity=0 time=0.15781292083333331EXTRACT: note_on channel=1 note=72 velocity=0 time=0EXTRACT: note_on channel=1 note=77 velocity=0 time=0EXTRACT: note_on channel=1 note=65 velocity=0 time=0.018750049999999997EXTRACT: note_on channel=0 note=86 velocity=80 time=0.010937529166666666EXTRACT: note_on channel=1 note=74 velocity=64 time=0EXTRACT: note_on channel=1 note=82 velocity=64 time=0EXTRACT: note_on channel=1 note=57 velocity=64 time=0EXTRACT: note_on channel=0 note=86 velocity=0 time=0.1765629708333333EXTRACT: note_on channel=1 note=74 velocity=0 time=0EXTRACT: note_on channel=1 note=82 velocity=0 time=0EXTRACT: note_on channel=0 note=87 velocity=80 time=0.010937529166666666EXTRACT: note_on channel=1 note=75 velocity=64 time=0EXTRACT: note_on channel=1 note=82 velocity=64 time=0EXTRACT: note_on channel=1 note=57 velocity=0 time=0.16718794583333332EXTRACT: note_on channel=1 note=53 velocity=64 time=0.020312554166666663EXTRACT: note_on channel=0 note=87 velocity=0 time=0.16718794583333332EXTRACT: note_on channel=1 note=75 velocity=0 time=0EXTRACT: note_on channel=1 note=82 velocity=0 time=0EXTRACT: note_on channel=1 note=53 velocity=0 time=0.009375024999999999EXTRACT: note_on channel=0 note=86 velocity=80 time=0.010937529166666666EXTRACT: note_on channel=1 note=74 velocity=64 time=0EXTRACT: note_on channel=1 note=79 velocity=64 time=0EXTRACT: note_on channel=1 note=46 velocity=64 time=0EXTRACT: note_on channel=1 note=58 velocity=64 time=0EXTRACT: note_on channel=1 note=46 velocity=0 time=0.3546884458333333EXTRACT: note_on channel=1 note=58 velocity=0 time=0EXTRACT: note_on channel=1 note=53 velocity=64 time=0.020312554166666663EXTRACT: note_on channel=1 note=53 velocity=0 time=0.3546884458333333EXTRACT: note_on channel=1 note=62 velocity=64 time=0.020312554166666663EXTRACT: note_on channel=0 note=86 velocity=0 time=0.31718834583333333EXTRACT: note_on channel=1 note=74 velocity=0 time=0EXTRACT: note_on channel=1 note=79 velocity=0 time=0EXTRACT: note_on channel=1 note=62 velocity=0 time=0.037500099999999995EXTRACT: note_on channel=1 note=53 velocity=64 time=0.020312554166666663EXTRACT: note_on channel=0 note=86 velocity=80 time=0.1875005EXTRACT: note_on channel=1 note=74 velocity=64 time=0EXTRACT: note_on channel=1 note=79 velocity=64 time=0EXTRACT: note_on channel=1 note=53 velocity=0 time=0.16718794583333332EXTRACT: note_on channel=0 note=86 velocity=0 time=0.009375024999999999EXTRACT: note_on channel=1 note=74 velocity=0 time=0EXTRACT: note_on channel=1 note=79 velocity=0 time=0EXTRACT: note_on channel=0 note=86 velocity=80 time=0.010937529166666666EXTRACT: note_on channel=1 note=74 velocity=64 time=0EXTRACT: note_on channel=1 note=79 velocity=64 time=0EXTRACT: note_on channel=1 note=46 velocity=64 time=0EXTRACT: note_on channel=1 note=58 velocity=64 time=0EXTRACT: note_on channel=0 note=86 velocity=0 time=0.1765629708333333EXTRACT: note_on channel=1 note=74 velocity=0 time=0EXTRACT: note_on channel=1 note=79 velocity=0 time=0EXTRACT: note_on channel=0 note=86 velocity=80 time=0.010937529166666666EXTRACT: note_on channel=1 note=74 velocity=64 time=0EXTRACT: note_on channel=1 note=79 velocity=64 time=0EXTRACT: note_on channel=0 note=86 velocity=0 time=0.1765629708333333EXTRACT: note_on channel=1 note=74 velocity=0 time=0EXTRACT: note_on channel=1 note=79 velocity=0 time=0EXTRACT: note_on channel=0 note=86 velocity=80 time=0.010937529166666666EXTRACT: note_on channel=1 note=74 velocity=64 time=0EXTRACT: note_on channel=1 note=79 velocity=64 time=0EXTRACT: note_on channel=1 note=46 velocity=0 time=0.15781292083333331EXTRACT: note_on channel=1 note=58 velocity=0 time=0EXTRACT: note_on channel=1 note=58 velocity=64 time=0.029687579166666665EXTRACT: note_on channel=0 note=86 velocity=0 time=0.16718794583333332EXTRACT: note_on channel=1 note=74 velocity=0 time=0EXTRACT: note_on channel=1 note=79 velocity=0 time=0EXTRACT: note_on channel=1 note=58 velocity=0 time=0.009375024999999999EXTRACT: note_on channel=0 note=86 velocity=80 time=0.010937529166666666EXTRACT: note_on channel=1 note=74 velocity=64 time=0EXTRACT: note_on channel=1 note=79 velocity=64 time=0EXTRACT: note_on channel=1 note=62 velocity=64 time=0EXTRACT: note_on channel=1 note=62 velocity=0 time=0.1765629708333333EXTRACT: note_on channel=1 note=58 velocity=64 time=0.010937529166666666EXTRACT: note_on channel=0 note=86 velocity=0 time=0.16718794583333332EXTRACT: note_on channel=1 note=74 velocity=0 time=0EXTRACT: note_on channel=1 note=79 velocity=0 time=0EXTRACT: note_on channel=1 note=58 velocity=0 time=0.009375024999999999EXTRACT: note_on channel=0 note=86 velocity=80 time=0.010937529166666666EXTRACT: note_on channel=1 note=74 velocity=64 time=0EXTRACT: note_on channel=1 note=79 velocity=64 time=0EXTRACT: note_on channel=1 note=53 velocity=64 time=0EXTRACT: note_on channel=0 note=86 velocity=0 time=0.1765629708333333EXTRACT: note_on channel=1 note=74 velocity=0 time=0EXTRACT: note_on channel=1 note=79 velocity=0 time=0EXTRACT: note_on channel=0 note=87 velocity=80 time=0.010937529166666666EXTRACT: note_on channel=1 note=75 velocity=64 time=0EXTRACT: note_on channel=1 note=79 velocity=64 time=0EXTRACT: note_on channel=1 note=53 velocity=0 time=0.16718794583333332EXTRACT: note_on channel=1 note=51 velocity=64 time=0.020312554166666663EXTRACT: note_on channel=1 note=51 velocity=0 time=0.3546884458333333EXTRACT: note_on channel=1 note=46 velocity=64 time=0.020312554166666663EXTRACT: note_on channel=1 note=46 velocity=0 time=0.3546884458333333EXTRACT: note_on channel=1 note=55 velocity=64 time=0.020312554166666663EXTRACT: note_on channel=1 note=55 velocity=0 time=0.1765629708333333EXTRACT: note_on channel=1 note=51 velocity=64 time=0.010937529166666666EXTRACT: note_on channel=1 note=51 velocity=0 time=0.1765629708333333EXTRACT: note_on channel=1 note=46 velocity=64 time=0.010937529166666666EXTRACT: note_on channel=0 note=87 velocity=0 time=0.28906327083333333EXTRACT: note_on channel=1 note=75 velocity=0 time=0EXTRACT: note_on channel=1 note=79 velocity=0 time=0EXTRACT: note_on channel=1 note=46 velocity=0 time=0.065625175EXTRACT: note_on channel=0 note=87 velocity=80 time=0.020312554166666663EXTRACT: note_on channel=1 note=75 velocity=64 time=0EXTRACT: note_on channel=1 note=79 velocity=64 time=0EXTRACT: note_on channel=1 note=51 velocity=64 time=0EXTRACT: note_on channel=0 note=87 velocity=0 time=0.3546884458333333EXTRACT: note_on channel=1 note=75 velocity=0 time=0EXTRACT: note_on channel=1 note=79 velocity=0 time=0EXTRACT: note_on channel=0 note=87 velocity=80 time=0.020312554166666663EXTRACT: note_on channel=1 note=75 velocity=64 time=0EXTRACT: note_on channel=1 note=79 velocity=64 time=0EXTRACT: note_on channel=1 note=51 velocity=0 time=0.15781292083333331EXTRACT: note_on channel=1 note=51 velocity=64 time=0.029687579166666665EXTRACT: note_on channel=0 note=87 velocity=0 time=0.16718794583333332EXTRACT: note_on channel=1 note=75 velocity=0 time=0EXTRACT: note_on channel=1 note=79 velocity=0 time=0EXTRACT: note_on channel=0 note=87 velocity=80 time=0.020312554166666663EXTRACT: note_on channel=1 note=75 velocity=64 time=0EXTRACT: note_on channel=1 note=79 velocity=64 time=0EXTRACT: note_on channel=1 note=51 velocity=0 time=0.3453134208333333EXTRACT: note_on channel=0 note=87 velocity=0 time=0.009375024999999999EXTRACT: note_on channel=1 note=75 velocity=0 time=0EXTRACT: note_on channel=1 note=79 velocity=0 time=0EXTRACT: note_on channel=0 note=87 velocity=80 time=0.020312554166666663EXTRACT: note_on channel=1 note=75 velocity=64 time=0EXTRACT: note_on channel=1 note=79 velocity=64 time=0EXTRACT: note_on channel=1 note=51 velocity=64 time=0EXTRACT: note_on channel=0 note=87 velocity=0 time=0.1765629708333333EXTRACT: note_on channel=1 note=75 velocity=0 time=0EXTRACT: note_on channel=1 note=79 velocity=0 time=0EXTRACT: note_on channel=0 note=86 velocity=80 time=0.010937529166666666EXTRACT: note_on channel=1 note=74 velocity=64 time=0EXTRACT: note_on channel=1 note=77 velocity=64 time=0EXTRACT: note_on channel=1 note=51 velocity=0 time=0.16718794583333332EXTRACT: note_on channel=1 note=74 velocity=0 time=0.009375024999999999EXTRACT: note_on channel=1 note=77 velocity=0 time=0EXTRACT: note_on channel=1 note=74 velocity=64 time=0.010937529166666666EXTRACT: note_on channel=1 note=77 velocity=64 time=0EXTRACT: note_on channel=1 note=46 velocity=64 time=0EXTRACT: note_on channel=1 note=58 velocity=64 time=0EXTRACT: note_on channel=1 note=46 velocity=0 time=0.3546884458333333EXTRACT: note_on channel=1 note=58 velocity=0 time=0EXTRACT: note_on channel=1 note=53 velocity=64 time=0.020312554166666663EXTRACT: note_on channel=0 note=86 velocity=0 time=0.3265633708333333EXTRACT: note_on channel=1 note=74 velocity=0 time=0.009375024999999999EXTRACT: note_on channel=1 note=77 velocity=0 time=0EXTRACT: note_on channel=1 note=53 velocity=0 time=0.018750049999999997EXTRACT: note_on channel=1 note=62 velocity=64 time=0.020312554166666663EXTRACT: note_on channel=1 note=62 velocity=0 time=0.3546884458333333EXTRACT: note_on channel=1 note=53 velocity=64 time=0.020312554166666663EXTRACT: note_on channel=0 note=86 velocity=80 time=0.1875005EXTRACT: note_on channel=1 note=74 velocity=64 time=0EXTRACT: note_on channel=1 note=53 velocity=0 time=0.16718794583333332EXTRACT: note_on channel=0 note=86 velocity=0 time=0.009375024999999999EXTRACT: note_on channel=1 note=74 velocity=0 time=0EXTRACT: note_on channel=0 note=86 velocity=80 time=0.010937529166666666EXTRACT: note_on channel=1 note=74 velocity=64 time=0EXTRACT: note_on channel=1 note=46 velocity=64 time=0EXTRACT: note_on channel=1 note=58 velocity=64 time=0EXTRACT: note_on channel=1 note=46 velocity=0 time=0.1765629708333333EXTRACT: note_on channel=1 note=58 velocity=0 time=0EXTRACT: note_on channel=1 note=53 velocity=64 time=0.010937529166666666EXTRACT: note_on channel=0 note=86 velocity=0 time=0.16718794583333332EXTRACT: note_on channel=1 note=74 velocity=0 time=0EXTRACT: note_on channel=0 note=86 velocity=80 time=0.020312554166666663EXTRACT: note_on channel=1 note=74 velocity=64 time=0EXTRACT: note_on channel=1 note=53 velocity=0 time=0.16718794583333332EXTRACT: note_on channel=0 note=86 velocity=0 time=0.009375024999999999EXTRACT: note_on channel=1 note=74 velocity=0 time=0EXTRACT: note_on channel=0 note=86 velocity=80 time=0.010937529166666666EXTRACT: note_on channel=1 note=74 velocity=64 time=0EXTRACT: note_on channel=1 note=58 velocity=64 time=0EXTRACT: note_on channel=1 note=58 velocity=0 time=0.1765629708333333EXTRACT: note_on channel=1 note=62 velocity=64 time=0.010937529166666666EXTRACT: note_on channel=1 note=62 velocity=0 time=0.1765629708333333EXTRACT: note_on channel=1 note=58 velocity=64 time=0.010937529166666666EXTRACT: note_on channel=0 note=86 velocity=0 time=0.15781292083333331EXTRACT: note_on channel=1 note=74 velocity=0 time=0EXTRACT: note_on channel=1 note=58 velocity=0 time=0.018750049999999997EXTRACT: note_on channel=0 note=86 velocity=80 time=0.010937529166666666EXTRACT: note_on channel=1 note=74 velocity=64 time=0EXTRACT: note_on channel=1 note=53 velocity=64 time=0EXTRACT: note_on channel=0 note=86 velocity=0 time=0.1765629708333333EXTRACT: note_on channel=1 note=74 velocity=0 time=0EXTRACT: note_on channel=1 note=53 velocity=0 time=0EXTRACT: note_on channel=0 note=87 velocity=80 time=0.010937529166666666EXTRACT: note_on channel=1 note=75 velocity=64 time=0EXTRACT: note_on channel=1 note=50 velocity=64 time=0EXTRACT: note_on channel=0 note=87 velocity=0 time=0.1765629708333333EXTRACT: note_on channel=1 note=75 velocity=0 time=0EXTRACT: note_on channel=1 note=50 velocity=0 time=0EXTRACT: note_on channel=0 note=84 velocity=80 time=0.010937529166666666EXTRACT: note_on channel=1 note=72 velocity=64 time=0EXTRACT: note_on channel=1 note=77 velocity=64 time=0EXTRACT: note_on channel=1 note=41 velocity=64 time=0EXTRACT: note_on channel=1 note=53 velocity=64 time=0EXTRACT: note_on channel=1 note=41 velocity=0 time=0.3546884458333333EXTRACT: note_on channel=1 note=53 velocity=0 time=0EXTRACT: note_on channel=1 note=60 velocity=64 time=0.020312554166666663EXTRACT: note_on channel=0 note=84 velocity=0 time=0.3359383958333333EXTRACT: note_on channel=1 note=72 velocity=0 time=0EXTRACT: note_on channel=1 note=77 velocity=0 time=0EXTRACT: note_on channel=1 note=60 velocity=0 time=0.018750049999999997EXTRACT: note_on channel=1 note=65 velocity=64 time=0.020312554166666663EXTRACT: note_on channel=1 note=65 velocity=0 time=0.3546884458333333EXTRACT: note_on channel=0 note=84 velocity=80 time=0.020312554166666663EXTRACT: note_on channel=1 note=72 velocity=64 time=0EXTRACT: note_on channel=1 note=77 velocity=64 time=0EXTRACT: note_on channel=1 note=60 velocity=64 time=0EXTRACT: note_on channel=0 note=84 velocity=0 time=0.1765629708333333EXTRACT: note_on channel=1 note=72 velocity=0 time=0EXTRACT: note_on channel=1 note=77 velocity=0 time=0EXTRACT: note_on channel=1 note=60 velocity=0 time=0EXTRACT: note_on channel=0 note=84 velocity=80 time=0.010937529166666666EXTRACT: note_on channel=1 note=72 velocity=64 time=0EXTRACT: note_on channel=1 note=77 velocity=64 time=0EXTRACT: note_on channel=1 note=57 velocity=64 time=0EXTRACT: note_on channel=0 note=84 velocity=0 time=0.1765629708333333EXTRACT: note_on channel=1 note=72 velocity=0 time=0EXTRACT: note_on channel=1 note=77 velocity=0 time=0EXTRACT: note_on channel=1 note=57 velocity=0 time=0EXTRACT: note_on channel=0 note=84 velocity=80 time=0.010937529166666666EXTRACT: note_on channel=1 note=72 velocity=64 time=0EXTRACT: note_on channel=1 note=77 velocity=64 time=0EXTRACT: note_on channel=1 note=41 velocity=64 time=0EXTRACT: note_on channel=1 note=53 velocity=64 time=0EXTRACT: note_on channel=1 note=41 velocity=0 time=0.1765629708333333EXTRACT: note_on channel=1 note=53 velocity=0 time=0EXTRACT: note_on channel=1 note=57 velocity=64 time=0.010937529166666666EXTRACT: note_on channel=1 note=57 velocity=0 time=0.1765629708333333EXTRACT: note_on channel=1 note=60 velocity=64 time=0.010937529166666666EXTRACT: note_on channel=0 note=84 velocity=0 time=0.15781292083333331EXTRACT: note_on channel=1 note=72 velocity=0 time=0EXTRACT: note_on channel=1 note=77 velocity=0 time=0EXTRACT: note_on channel=0 note=84 velocity=80 time=0.029687579166666665EXTRACT: note_on channel=1 note=72 velocity=64 time=0EXTRACT: note_on channel=1 note=77 velocity=64 time=0EXTRACT: note_on channel=1 note=60 velocity=0 time=0.16718794583333332EXTRACT: note_on channel=0 note=84 velocity=0 time=0.009375024999999999EXTRACT: note_on channel=1 note=72 velocity=0 time=0EXTRACT: note_on channel=1 note=77 velocity=0 time=0EXTRACT: note_on channel=0 note=86 velocity=80 time=0.010937529166666666EXTRACT: note_on channel=1 note=74 velocity=64 time=0EXTRACT: note_on channel=1 note=82 velocity=64 time=0EXTRACT: note_on channel=1 note=65 velocity=64 time=0EXTRACT: note_on channel=1 note=65 velocity=0 time=0.1765629708333333EXTRACT: note_on channel=1 note=57 velocity=64 time=0.010937529166666666EXTRACT: note_on channel=1 note=57 velocity=0 time=0.1765629708333333EXTRACT: note_on channel=1 note=53 velocity=64 time=0.010937529166666666EXTRACT: note_on channel=0 note=86 velocity=0 time=0.15781292083333331EXTRACT: note_on channel=1 note=74 velocity=0 time=0EXTRACT: note_on channel=1 note=82 velocity=0 time=0EXTRACT: note_on channel=0 note=87 velocity=80 time=0.029687579166666665EXTRACT: note_on channel=1 note=75 velocity=64 time=0EXTRACT: note_on channel=1 note=82 velocity=64 time=0EXTRACT: note_on channel=1 note=53 velocity=0 time=0.16718794583333332EXTRACT: note_on channel=0 note=87 velocity=0 time=0.009375024999999999EXTRACT: note_on channel=1 note=75 velocity=0 time=0EXTRACT: note_on channel=1 note=82 velocity=0 time=0EXTRACT: note_on channel=0 note=86 velocity=80 time=0.010937529166666666EXTRACT: note_on channel=1 note=74 velocity=64 time=0EXTRACT: note_on channel=1 note=79 velocity=64 time=0EXTRACT: note_on channel=1 note=55 velocity=64 time=0EXTRACT: note_on channel=1 note=55 velocity=0 time=0.1765629708333333EXTRACT: note_on channel=1 note=50 velocity=64 time=0.010937529166666666EXTRACT: note_on channel=1 note=50 velocity=0 time=0.1765629708333333EXTRACT: note_on channel=1 note=55 velocity=64 time=0.010937529166666666EXTRACT: note_on channel=1 note=55 velocity=0 time=0.1765629708333333EXTRACT: note_on channel=1 note=57 velocity=64 time=0.010937529166666666EXTRACT: note_on channel=1 note=57 velocity=0 time=0.1765629708333333EXTRACT: note_on channel=1 note=58 velocity=64 time=0.010937529166666666EXTRACT: note_on channel=1 note=58 velocity=0 time=0.3546884458333333EXTRACT: note_on channel=1 note=55 velocity=64 time=0.020312554166666663EXTRACT: note_on channel=0 note=86 velocity=0 time=0.2984382958333333EXTRACT: note_on channel=1 note=74 velocity=0 time=0EXTRACT: note_on channel=1 note=79 velocity=0 time=0EXTRACT: note_on channel=1 note=55 velocity=0 time=0.05625014999999999EXTRACT: note_on channel=1 note=43 velocity=64 time=0.020312554166666663EXTRACT: note_on channel=1 note=55 velocity=64 time=0EXTRACT: note_on channel=0 note=86 velocity=80 time=0.25000066666666665EXTRACT: note_on channel=1 note=74 velocity=64 time=0EXTRACT: note_on channel=1 note=79 velocity=64 time=0EXTRACT: note_on channel=1 note=43 velocity=0 time=0.10468777916666666EXTRACT: note_on channel=1 note=55 velocity=0 time=0EXTRACT: note_on channel=1 note=58 velocity=64 time=0.020312554166666663EXTRACT: note_on channel=0 note=86 velocity=0 time=0.11093779583333332EXTRACT: note_on channel=1 note=74 velocity=0 time=0EXTRACT: note_on channel=1 note=79 velocity=0 time=0EXTRACT: note_on channel=0 note=86 velocity=80 time=0.014062537499999998EXTRACT: note_on channel=1 note=74 velocity=64 time=0EXTRACT: note_on channel=1 note=79 velocity=64 time=0EXTRACT: note_on channel=1 note=58 velocity=0 time=0.22968811249999999EXTRACT: note_on channel=0 note=86 velocity=0 time=0.006250016666666666EXTRACT: note_on channel=1 note=74 velocity=0 time=0EXTRACT: note_on channel=1 note=79 velocity=0 time=0EXTRACT: note_on channel=0 note=86 velocity=80 time=0.014062537499999998EXTRACT: note_on channel=1 note=74 velocity=64 time=0EXTRACT: note_on channel=1 note=79 velocity=64 time=0EXTRACT: note_on channel=1 note=62 velocity=64 time=0EXTRACT: note_on channel=1 note=62 velocity=0 time=0.1765629708333333EXTRACT: note_on channel=1 note=58 velocity=64 time=0.010937529166666666EXTRACT: note_on channel=1 note=58 velocity=0 time=0.1765629708333333EXTRACT: note_on channel=1 note=43 velocity=64 time=0.010937529166666666EXTRACT: note_on channel=1 note=55 velocity=64 time=0EXTRACT: note_on channel=0 note=86 velocity=0 time=0.15781292083333331EXTRACT: note_on channel=1 note=74 velocity=0 time=0EXTRACT: note_on channel=1 note=79 velocity=0 time=0EXTRACT: note_on channel=0 note=86 velocity=80 time=0.029687579166666665EXTRACT: note_on channel=1 note=74 velocity=64 time=0EXTRACT: note_on channel=1 note=43 velocity=0 time=0.16718794583333332EXTRACT: note_on channel=1 note=55 velocity=0 time=0EXTRACT: note_on channel=0 note=86 velocity=0 time=0.009375024999999999EXTRACT: note_on channel=1 note=74 velocity=0 time=0EXTRACT: note_on channel=0 note=87 velocity=80 time=0.010937529166666666EXTRACT: note_on channel=1 note=75 velocity=64 time=0EXTRACT: note_on channel=1 note=81 velocity=64 time=0EXTRACT: note_on channel=1 note=51 velocity=64 time=0EXTRACT: note_on channel=1 note=51 velocity=0 time=0.3546884458333333EXTRACT: note_on channel=1 note=46 velocity=64 time=0.020312554166666663EXTRACT: note_on channel=1 note=46 velocity=0 time=0.3546884458333333EXTRACT: note_on channel=1 note=55 velocity=64 time=0.020312554166666663EXTRACT: note_on channel=1 note=55 velocity=0 time=0.1765629708333333EXTRACT: note_on channel=1 note=51 velocity=64 time=0.010937529166666666EXTRACT: note_on channel=1 note=51 velocity=0 time=0.1765629708333333EXTRACT: note_on channel=1 note=46 velocity=64 time=0.010937529166666666EXTRACT: note_on channel=0 note=87 velocity=0 time=0.2984382958333333EXTRACT: note_on channel=1 note=75 velocity=0 time=0EXTRACT: note_on channel=1 note=81 velocity=0 time=0EXTRACT: note_on channel=1 note=46 velocity=0 time=0.05625014999999999EXTRACT: note_on channel=1 note=51 velocity=64 time=0.020312554166666663EXTRACT: note_on channel=0 note=87 velocity=80 time=0.25000066666666665EXTRACT: note_on channel=1 note=75 velocity=64 time=0EXTRACT: note_on channel=1 note=81 velocity=64 time=0EXTRACT: note_on channel=1 note=84 velocity=64 time=0EXTRACT: note_on channel=0 note=87 velocity=0 time=0.23593812916666665EXTRACT: note_on channel=1 note=75 velocity=0 time=0EXTRACT: note_on channel=1 note=81 velocity=0 time=0EXTRACT: note_on channel=1 note=84 velocity=0 time=0EXTRACT: note_on channel=0 note=87 velocity=80 time=0.014062537499999998EXTRACT: note_on channel=1 note=75 velocity=64 time=0EXTRACT: note_on channel=1 note=81 velocity=64 time=0EXTRACT: note_on channel=1 note=84 velocity=64 time=0EXTRACT: note_on channel=1 note=51 velocity=0 time=0.0328125875EXTRACT: note_on channel=1 note=51 velocity=64 time=0.029687579166666665EXTRACT: note_on channel=0 note=87 velocity=0 time=0.1734379625EXTRACT: note_on channel=1 note=75 velocity=0 time=0EXTRACT: note_on channel=1 note=81 velocity=0 time=0EXTRACT: note_on channel=1 note=84 velocity=0 time=0EXTRACT: note_on channel=0 note=87 velocity=80 time=0.014062537499999998EXTRACT: note_on channel=1 note=75 velocity=64 time=0EXTRACT: note_on channel=1 note=81 velocity=64 time=0EXTRACT: note_on channel=1 note=84 velocity=64 time=0EXTRACT: note_on channel=1 note=51 velocity=0 time=0.3453134208333333EXTRACT: note_on channel=0 note=87 velocity=0 time=0.009375024999999999EXTRACT: note_on channel=1 note=75 velocity=0 time=0EXTRACT: note_on channel=1 note=81 velocity=0 time=0EXTRACT: note_on channel=1 note=84 velocity=0 time=0EXTRACT: note_on channel=0 note=87 velocity=80 time=0.020312554166666663EXTRACT: note_on channel=1 note=75 velocity=64 time=0EXTRACT: note_on channel=1 note=87 velocity=64 time=0EXTRACT: note_on channel=1 note=51 velocity=64 time=0EXTRACT: note_on channel=0 note=87 velocity=0 time=0.1765629708333333EXTRACT: note_on channel=1 note=75 velocity=0 time=0EXTRACT: note_on channel=1 note=87 velocity=0 time=0EXTRACT: note_on channel=0 note=89 velocity=80 time=0.010937529166666666EXTRACT: note_on channel=1 note=77 velocity=64 time=0EXTRACT: note_on channel=1 note=82 velocity=64 time=0EXTRACT: note_on channel=1 note=86 velocity=64 time=0EXTRACT: note_on channel=1 note=51 velocity=0 time=0.16718794583333332EXTRACT: note_on channel=1 note=46 velocity=64 time=0.020312554166666663EXTRACT: note_on channel=1 note=58 velocity=64 time=0EXTRACT: note_on channel=1 note=46 velocity=0 time=0.3546884458333333EXTRACT: note_on channel=1 note=58 velocity=0 time=0EXTRACT: note_on channel=1 note=53 velocity=64 time=0.020312554166666663EXTRACT: note_on channel=1 note=53 velocity=0 time=0.3546884458333333EXTRACT: note_on channel=1 note=62 velocity=64 time=0.020312554166666663EXTRACT: note_on channel=1 note=62 velocity=0 time=0.3546884458333333EXTRACT: note_on channel=1 note=53 velocity=64 time=0.020312554166666663EXTRACT: note_on channel=1 note=53 velocity=0 time=0.3546884458333333EXTRACT: note_on channel=1 note=60 velocity=64 time=0.020312554166666663EXTRACT: note_on channel=1 note=60 velocity=0 time=0.3546884458333333EXTRACT: note_on channel=1 note=53 velocity=64 time=0.020312554166666663EXTRACT: note_on channel=1 note=53 velocity=0 time=0.3546884458333333EXTRACT: note_on channel=1 note=58 velocity=64 time=0.020312554166666663EXTRACT: note_on channel=1 note=58 velocity=0 time=0.3546884458333333EXTRACT: note_on channel=1 note=46 velocity=64 time=0.020312554166666663EXTRACT: note_on channel=0 note=89 velocity=0 time=0.2140630708333333EXTRACT: note_on channel=1 note=77 velocity=0 time=0EXTRACT: note_on channel=1 note=82 velocity=0 time=0EXTRACT: note_on channel=1 note=86 velocity=0 time=0EXTRACT: note_on channel=1 note=46 velocity=0 time=0.140625375EXTRACT: note_on channel=0 note=87 velocity=80 time=0.020312554166666663EXTRACT: note_on channel=1 note=75 velocity=64 time=0EXTRACT: note_on channel=1 note=79 velocity=64 time=0EXTRACT: note_on channel=1 note=82 velocity=64 time=0EXTRACT: note_on channel=1 note=51 velocity=64 time=0EXTRACT: note_on channel=0 note=87 velocity=0 time=0.3546884458333333EXTRACT: note_on channel=1 note=75 velocity=0 time=0EXTRACT: note_on channel=1 note=79 velocity=0 time=0EXTRACT: note_on channel=1 note=82 velocity=0 time=0EXTRACT: note_on channel=1 note=51 velocity=0 time=0EXTRACT: note_on channel=0 note=87 velocity=80 time=0.020312554166666663EXTRACT: note_on channel=1 note=75 velocity=64 time=0EXTRACT: note_on channel=1 note=79 velocity=64 time=0EXTRACT: note_on channel=1 note=82 velocity=64 time=0EXTRACT: note_on channel=1 note=51 velocity=64 time=0EXTRACT: note_on channel=1 note=51 velocity=0 time=0.3546884458333333EXTRACT: note_on channel=1 note=51 velocity=64 time=0.020312554166666663EXTRACT: note_on channel=0 note=87 velocity=0 time=0.3359383958333333EXTRACT: note_on channel=1 note=75 velocity=0 time=0EXTRACT: note_on channel=1 note=79 velocity=0 time=0EXTRACT: note_on channel=1 note=82 velocity=0 time=0EXTRACT: note_on channel=0 note=87 velocity=80 time=0.03906260416666666EXTRACT: note_on channel=1 note=75 velocity=64 time=0EXTRACT: note_on channel=1 note=79 velocity=64 time=0EXTRACT: note_on channel=1 note=82 velocity=64 time=0EXTRACT: note_on channel=1 note=51 velocity=0 time=0.3359383958333333EXTRACT: note_on channel=0 note=87 velocity=0 time=0.018750049999999997EXTRACT: note_on channel=1 note=75 velocity=0 time=0EXTRACT: note_on channel=1 note=79 velocity=0 time=0EXTRACT: note_on channel=1 note=82 velocity=0 time=0EXTRACT: note_on channel=0 note=87 velocity=80 time=0.020312554166666663EXTRACT: note_on channel=1 note=75 velocity=64 time=0EXTRACT: note_on channel=1 note=79 velocity=64 time=0EXTRACT: note_on channel=1 note=82 velocity=64 time=0EXTRACT: note_on channel=1 note=51 velocity=64 time=0EXTRACT: note_on channel=1 note=51 velocity=0 time=0.3546884458333333EXTRACT: note_on channel=1 note=46 velocity=64 time=0.020312554166666663EXTRACT: note_on channel=0 note=87 velocity=0 time=0.3359383958333333EXTRACT: note_on channel=1 note=75 velocity=0 time=0EXTRACT: note_on channel=1 note=79 velocity=0 time=0EXTRACT: note_on channel=1 note=82 velocity=0 time=0EXTRACT: note_on channel=1 note=46 velocity=0 time=0.018750049999999997EXTRACT: note_on channel=0 note=87 velocity=80 time=0.020312554166666663EXTRACT: note_on channel=1 note=75 velocity=64 time=0EXTRACT: note_on channel=1 note=79 velocity=64 time=0EXTRACT: note_on channel=1 note=82 velocity=64 time=0EXTRACT: note_on channel=1 note=51 velocity=64 time=0EXTRACT: note_on channel=0 note=87 velocity=0 time=0.3546884458333333EXTRACT: note_on channel=1 note=75 velocity=0 time=0EXTRACT: note_on channel=1 note=79 velocity=0 time=0EXTRACT: note_on channel=1 note=82 velocity=0 time=0EXTRACT: note_on channel=0 note=89 velocity=80 time=0.020312554166666663EXTRACT: note_on channel=1 note=77 velocity=64 time=0EXTRACT: note_on channel=1 note=82 velocity=64 time=0EXTRACT: note_on channel=1 note=86 velocity=64 time=0EXTRACT: note_on channel=1 note=51 velocity=0 time=0.3359383958333333EXTRACT: note_on channel=1 note=46 velocity=64 time=0.03906260416666666EXTRACT: note_on channel=1 note=58 velocity=64 time=0EXTRACT: note_on channel=0 note=89 velocity=0 time=0.3359383958333333EXTRACT: note_on channel=1 note=77 velocity=0 time=0EXTRACT: note_on channel=1 note=82 velocity=0 time=0EXTRACT: note_on channel=1 note=86 velocity=0 time=0EXTRACT: note_on channel=1 note=46 velocity=0 time=0.018750049999999997EXTRACT: note_on channel=1 note=58 velocity=0 time=0EXTRACT: note_on channel=0 note=86 velocity=80 time=0.020312554166666663EXTRACT: note_on channel=1 note=74 velocity=64 time=0EXTRACT: note_on channel=1 note=77 velocity=64 time=0EXTRACT: note_on channel=1 note=82 velocity=64 time=0EXTRACT: note_on channel=1 note=53 velocity=64 time=0EXTRACT: note_on channel=1 note=53 velocity=0 time=0.3546884458333333EXTRACT: note_on channel=1 note=62 velocity=64 time=0.020312554166666663EXTRACT: note_on channel=1 note=62 velocity=0 time=0.3546884458333333EXTRACT: note_on channel=1 note=53 velocity=64 time=0.020312554166666663EXTRACT: note_on channel=0 note=86 velocity=0 time=0.31718834583333333EXTRACT: note_on channel=1 note=74 velocity=0 time=0EXTRACT: note_on channel=1 note=77 velocity=0 time=0EXTRACT: note_on channel=1 note=82 velocity=0 time=0EXTRACT: note_on channel=1 note=53 velocity=0 time=0.037500099999999995EXTRACT: note_on channel=1 note=60 velocity=64 time=0.020312554166666663EXTRACT: note_on channel=1 note=60 velocity=0 time=0.3546884458333333EXTRACT: note_on channel=1 note=53 velocity=64 time=0.020312554166666663EXTRACT: note_on channel=1 note=53 velocity=0 time=0.3546884458333333EXTRACT: note_on channel=1 note=58 velocity=64 time=0.020312554166666663EXTRACT: note_on channel=1 note=58 velocity=0 time=0.3546884458333333EXTRACT: note_on channel=1 note=46 velocity=64 time=0.020312554166666663EXTRACT: note_on channel=1 note=46 velocity=0 time=0.3546884458333333EXTRACT: note_on channel=0 note=87 velocity=80 time=0.020312554166666663EXTRACT: note_on channel=1 note=75 velocity=64 time=0EXTRACT: note_on channel=1 note=79 velocity=64 time=0EXTRACT: note_on channel=1 note=82 velocity=64 time=0EXTRACT: note_on channel=1 note=51 velocity=64 time=0EXTRACT: note_on channel=0 note=87 velocity=0 time=0.3546884458333333EXTRACT: note_on channel=1 note=75 velocity=0 time=0EXTRACT: note_on channel=1 note=79 velocity=0 time=0EXTRACT: note_on channel=1 note=82 velocity=0 time=0EXTRACT: note_on channel=1 note=51 velocity=0 time=0EXTRACT: note_on channel=0 note=87 velocity=80 time=0.020312554166666663EXTRACT: note_on channel=1 note=75 velocity=64 time=0EXTRACT: note_on channel=1 note=79 velocity=64 time=0EXTRACT: note_on channel=1 note=82 velocity=64 time=0EXTRACT: note_on channel=1 note=51 velocity=64 time=0EXTRACT: note_on channel=1 note=51 velocity=0 time=0.3546884458333333EXTRACT: note_on channel=1 note=51 velocity=64 time=0.020312554166666663EXTRACT: note_on channel=0 note=87 velocity=0 time=0.3359383958333333EXTRACT: note_on channel=1 note=75 velocity=0 time=0EXTRACT: note_on channel=1 note=79 velocity=0 time=0EXTRACT: note_on channel=1 note=82 velocity=0 time=0EXTRACT: note_on channel=0 note=87 velocity=80 time=0.03906260416666666EXTRACT: note_on channel=1 note=75 velocity=64 time=0EXTRACT: note_on channel=1 note=79 velocity=64 time=0EXTRACT: note_on channel=1 note=82 velocity=64 time=0EXTRACT: note_on channel=1 note=51 velocity=0 time=0.3359383958333333EXTRACT: note_on channel=0 note=87 velocity=0 time=0.018750049999999997EXTRACT: note_on channel=1 note=75 velocity=0 time=0EXTRACT: note_on channel=1 note=79 velocity=0 time=0EXTRACT: note_on channel=1 note=82 velocity=0 time=0EXTRACT: note_on channel=0 note=87 velocity=80 time=0.020312554166666663EXTRACT: note_on channel=1 note=75 velocity=64 time=0EXTRACT: note_on channel=1 note=79 velocity=64 time=0EXTRACT: note_on channel=1 note=82 velocity=64 time=0EXTRACT: note_on channel=1 note=51 velocity=64 time=0EXTRACT: note_on channel=1 note=51 velocity=0 time=0.3546884458333333EXTRACT: note_on channel=1 note=46 velocity=64 time=0.020312554166666663EXTRACT: note_on channel=0 note=87 velocity=0 time=0.3359383958333333EXTRACT: note_on channel=1 note=75 velocity=0 time=0EXTRACT: note_on channel=1 note=79 velocity=0 time=0EXTRACT: note_on channel=1 note=82 velocity=0 time=0EXTRACT: note_on channel=1 note=46 velocity=0 time=0.018750049999999997EXTRACT: note_on channel=0 note=87 velocity=80 time=0.020312554166666663EXTRACT: note_on channel=1 note=75 velocity=64 time=0EXTRACT: note_on channel=1 note=79 velocity=64 time=0EXTRACT: note_on channel=1 note=82 velocity=64 time=0EXTRACT: note_on channel=1 note=51 velocity=64 time=0EXTRACT: note_on channel=0 note=87 velocity=0 time=0.3546884458333333EXTRACT: note_on channel=1 note=75 velocity=0 time=0EXTRACT: note_on channel=1 note=79 velocity=0 time=0EXTRACT: note_on channel=1 note=82 velocity=0 time=0EXTRACT: note_on channel=0 note=89 velocity=80 time=0.020312554166666663EXTRACT: note_on channel=1 note=77 velocity=64 time=0EXTRACT: note_on channel=1 note=82 velocity=64 time=0EXTRACT: note_on channel=1 note=86 velocity=64 time=0EXTRACT: note_on channel=1 note=51 velocity=0 time=0.3359383958333333EXTRACT: note_on channel=1 note=46 velocity=64 time=0.03906260416666666EXTRACT: note_on channel=1 note=58 velocity=64 time=0EXTRACT: note_on channel=0 note=89 velocity=0 time=0.3359383958333333EXTRACT: note_on channel=1 note=77 velocity=0 time=0EXTRACT: note_on channel=1 note=82 velocity=0 time=0EXTRACT: note_on channel=1 note=86 velocity=0 time=0EXTRACT: note_on channel=1 note=46 velocity=0 time=0.018750049999999997EXTRACT: note_on channel=1 note=58 velocity=0 time=0EXTRACT: note_on channel=0 note=86 velocity=80 time=0.020312554166666663EXTRACT: note_on channel=1 note=74 velocity=64 time=0EXTRACT: note_on channel=1 note=77 velocity=64 time=0EXTRACT: note_on channel=1 note=82 velocity=64 time=0EXTRACT: note_on channel=1 note=53 velocity=64 time=0EXTRACT: note_on channel=1 note=53 velocity=0 time=0.3546884458333333EXTRACT: note_on channel=1 note=62 velocity=64 time=0.020312554166666663EXTRACT: note_on channel=1 note=62 velocity=0 time=0.3546884458333333EXTRACT: note_on channel=1 note=53 velocity=64 time=0.020312554166666663EXTRACT: note_on channel=1 note=53 velocity=0 time=0.3546884458333333EXTRACT: note_on channel=1 note=60 velocity=64 time=0.020312554166666663EXTRACT: note_on channel=1 note=60 velocity=0 time=0.3546884458333333EXTRACT: note_on channel=1 note=53 velocity=64 time=0.020312554166666663EXTRACT: note_on channel=1 note=53 velocity=0 time=0.3546884458333333EXTRACT: note_on channel=1 note=58 velocity=64 time=0.020312554166666663EXTRACT: note_on channel=0 note=86 velocity=0 time=0.26093819583333333EXTRACT: note_on channel=1 note=74 velocity=0 time=0EXTRACT: note_on channel=1 note=77 velocity=0 time=0EXTRACT: note_on channel=1 note=82 velocity=0 time=0EXTRACT: note_on channel=1 note=58 velocity=0 time=0.09375025EXTRACT: note_on channel=1 note=46 velocity=64 time=0.020312554166666663EXTRACT: note_on channel=1 note=46 velocity=0 time=0.3546884458333333EXTRACT: note_on channel=0 note=87 velocity=80 time=0.020312554166666663EXTRACT: note_on channel=1 note=75 velocity=64 time=0EXTRACT: note_on channel=1 note=79 velocity=64 time=0EXTRACT: note_on channel=1 note=82 velocity=64 time=0EXTRACT: note_on channel=1 note=51 velocity=64 time=0EXTRACT: note_on channel=0 note=87 velocity=0 time=0.3546884458333333EXTRACT: note_on channel=1 note=75 velocity=0 time=0EXTRACT: note_on channel=1 note=79 velocity=0 time=0EXTRACT: note_on channel=1 note=82 velocity=0 time=0EXTRACT: note_on channel=1 note=51 velocity=0 time=0EXTRACT: note_on channel=0 note=87 velocity=80 time=0.020312554166666663EXTRACT: note_on channel=1 note=75 velocity=64 time=0EXTRACT: note_on channel=1 note=79 velocity=64 time=0EXTRACT: note_on channel=1 note=82 velocity=64 time=0EXTRACT: note_on channel=1 note=51 velocity=64 time=0EXTRACT: note_on channel=0 note=87 velocity=0 time=0.7109393958333332EXTRACT: note_on channel=1 note=75 velocity=0 time=0EXTRACT: note_on channel=1 note=79 velocity=0 time=0EXTRACT: note_on channel=1 note=82 velocity=0 time=0EXTRACT: note_on channel=1 note=51 velocity=0 time=0EXTRACT: note_on channel=0 note=87 velocity=80 time=0.03906260416666666EXTRACT: note_on channel=1 note=75 velocity=64 time=0EXTRACT: note_on channel=1 note=79 velocity=64 time=0EXTRACT: note_on channel=1 note=82 velocity=64 time=0EXTRACT: note_on channel=1 note=51 velocity=64 time=0EXTRACT: note_on channel=0 note=87 velocity=0 time=0.3546884458333333EXTRACT: note_on channel=1 note=75 velocity=0 time=0EXTRACT: note_on channel=1 note=79 velocity=0 time=0EXTRACT: note_on channel=1 note=82 velocity=0 time=0EXTRACT: note_on channel=1 note=51 velocity=0 time=0EXTRACT: note_on channel=0 note=87 velocity=80 time=0.020312554166666663EXTRACT: note_on channel=1 note=75 velocity=64 time=0EXTRACT: note_on channel=1 note=79 velocity=64 time=0EXTRACT: note_on channel=1 note=82 velocity=64 time=0EXTRACT: note_on channel=1 note=51 velocity=64 time=0EXTRACT: note_on channel=1 note=51 velocity=0 time=0.7109393958333332EXTRACT: note_on channel=1 note=51 velocity=64 time=0.03906260416666666EXTRACT: note_on channel=0 note=87 velocity=0 time=0.31718834583333333EXTRACT: note_on channel=1 note=75 velocity=0 time=0EXTRACT: note_on channel=1 note=79 velocity=0 time=0EXTRACT: note_on channel=1 note=82 velocity=0 time=0EXTRACT: note_on channel=0 note=89 velocity=80 time=0.05781265416666666EXTRACT: note_on channel=1 note=77 velocity=64 time=0EXTRACT: note_on channel=1 note=82 velocity=64 time=0EXTRACT: note_on channel=1 note=86 velocity=64 time=0EXTRACT: note_on channel=1 note=51 velocity=0 time=0.3359383958333333EXTRACT: note_on channel=0 note=89 velocity=0 time=0.018750049999999997EXTRACT: note_on channel=1 note=77 velocity=0 time=0EXTRACT: note_on channel=1 note=82 velocity=0 time=0EXTRACT: note_on channel=1 note=86 velocity=0 time=0EXTRACT: note_on channel=0 note=86 velocity=80 time=0.020312554166666663EXTRACT: note_on channel=1 note=74 velocity=64 time=0EXTRACT: note_on channel=1 note=77 velocity=64 time=0EXTRACT: note_on channel=1 note=82 velocity=64 time=0EXTRACT: note_on channel=1 note=46 velocity=64 time=0EXTRACT: note_on channel=0 note=86 velocity=0 time=2.848445095833333EXTRACT: note_on channel=1 note=74 velocity=0 time=0EXTRACT: note_on channel=1 note=77 velocity=0 time=0EXTRACT: note_on channel=1 note=82 velocity=0 time=0EXTRACT: note_on channel=1 note=46 velocity=0 time=0
MUSIC028 - Christina Perri - Jar of Hearts [Official Music Video].mid
INTERVALS028 - Christina Perri - Jar of Hearts [Official Music Video].mid
unison586
2m75
2M100
3m6
3M22
4m28
4M0
5m8
5M11
6m1
7m0
7M0
