EXTRACT: control_change channel=0 control=101 value=0 time=0
EXTRACT: control_change channel=0 control=100 value=0 time=0
EXTRACT: control_change channel=0 control=6 value=12 time=0
EXTRACT: control_change channel=0 control=38 value=0 time=0
EXTRACT: control_change channel=1 control=101 value=0 time=0
EXTRACT: control_change channel=1 control=100 value=0 time=0
EXTRACT: control_change channel=1 control=6 value=12 time=0
EXTRACT: control_change channel=1 control=38 value=0 time=0
EXTRACT: control_change channel=2 control=101 value=0 time=0
EXTRACT: control_change channel=2 control=100 value=0 time=0
EXTRACT: control_change channel=2 control=6 value=12 time=0
EXTRACT: control_change channel=2 control=38 value=0 time=0
EXTRACT: control_change channel=3 control=101 value=0 time=0
EXTRACT: control_change channel=3 control=100 value=0 time=0
EXTRACT: control_change channel=3 control=6 value=12 time=0
EXTRACT: control_change channel=3 control=38 value=0 time=0
EXTRACT: control_change channel=4 control=101 value=0 time=0
EXTRACT: control_change channel=4 control=100 value=0 time=0
EXTRACT: control_change channel=4 control=6 value=12 time=0
EXTRACT: control_change channel=4 control=38 value=0 time=0
EXTRACT: control_change channel=5 control=101 value=0 time=0
EXTRACT: control_change channel=5 control=100 value=0 time=0
EXTRACT: control_change channel=5 control=6 value=12 time=0
EXTRACT: control_change channel=5 control=38 value=0 time=0
EXTRACT: control_change channel=6 control=101 value=0 time=0
EXTRACT: control_change channel=6 control=100 value=0 time=0
EXTRACT: control_change channel=6 control=6 value=12 time=0
EXTRACT: control_change channel=6 control=38 value=0 time=0
EXTRACT: control_change channel=7 control=101 value=0 time=0
EXTRACT: control_change channel=7 control=100 value=0 time=0
EXTRACT: control_change channel=7 control=6 value=12 time=0
EXTRACT: control_change channel=7 control=38 value=0 time=0
EXTRACT: control_change channel=8 control=101 value=0 time=0
EXTRACT: control_change channel=8 control=100 value=0 time=0
EXTRACT: control_change channel=8 control=6 value=12 time=0
EXTRACT: control_change channel=8 control=38 value=0 time=0
EXTRACT: control_change channel=9 control=101 value=0 time=0
EXTRACT: control_change channel=9 control=100 value=0 time=0
EXTRACT: control_change channel=9 control=6 value=12 time=0
EXTRACT: control_change channel=9 control=38 value=0 time=0
EXTRACT: control_change channel=10 control=101 value=0 time=0
EXTRACT: control_change channel=10 control=100 value=0 time=0
EXTRACT: control_change channel=10 control=6 value=12 time=0
EXTRACT: control_change channel=10 control=38 value=0 time=0
EXTRACT: control_change channel=11 control=101 value=0 time=0
EXTRACT: control_change channel=11 control=100 value=0 time=0
EXTRACT: control_change channel=11 control=6 value=12 time=0
EXTRACT: control_change channel=11 control=38 value=0 time=0
EXTRACT: control_change channel=12 control=101 value=0 time=0
EXTRACT: control_change channel=12 control=100 value=0 time=0
EXTRACT: control_change channel=12 control=6 value=12 time=0
EXTRACT: control_change channel=12 control=38 value=0 time=0
EXTRACT: control_change channel=13 control=101 value=0 time=0
EXTRACT: control_change channel=13 control=100 value=0 time=0
EXTRACT: control_change channel=13 control=6 value=12 time=0
EXTRACT: control_change channel=13 control=38 value=0 time=0
EXTRACT: control_change channel=14 control=101 value=0 time=0
EXTRACT: control_change channel=14 control=100 value=0 time=0
EXTRACT: control_change channel=14 control=6 value=12 time=0
EXTRACT: control_change channel=14 control=38 value=0 time=0
EXTRACT: control_change channel=15 control=101 value=0 time=0
EXTRACT: control_change channel=15 control=100 value=0 time=0
EXTRACT: control_change channel=15 control=6 value=12 time=0
EXTRACT: control_change channel=15 control=38 value=0 time=0
EXTRACT: pitchwheel channel=1 pitch=0 time=0
EXTRACT: control_change channel=1 control=7 value=95 time=0
EXTRACT: control_change channel=1 control=10 value=63 time=0
EXTRACT: control_change channel=1 control=93 value=0 time=0
EXTRACT: control_change channel=1 control=91 value=0 time=0
EXTRACT: control_change channel=1 control=95 value=0 time=0
EXTRACT: control_change channel=1 control=92 value=0 time=0
EXTRACT: control_change channel=1 control=11 value=127 time=0
EXTRACT: program_change channel=1 program=57 time=0
EXTRACT: pitchwheel channel=0 pitch=0 time=0
EXTRACT: control_change channel=0 control=7 value=87 time=0
EXTRACT: control_change channel=0 control=10 value=63 time=0
EXTRACT: control_change channel=0 control=93 value=0 time=0
EXTRACT: control_change channel=0 control=91 value=0 time=0
EXTRACT: control_change channel=0 control=95 value=0 time=0
EXTRACT: control_change channel=0 control=92 value=0 time=0
EXTRACT: control_change channel=0 control=11 value=127 time=0
EXTRACT: program_change channel=0 program=33 time=0
EXTRACT: pitchwheel channel=9 pitch=0 time=0
EXTRACT: control_change channel=9 control=7 value=79 time=0
EXTRACT: control_change channel=9 control=10 value=63 time=0
EXTRACT: control_change channel=9 control=93 value=0 time=0
EXTRACT: control_change channel=9 control=91 value=0 time=0
EXTRACT: control_change channel=9 control=95 value=0 time=0
EXTRACT: control_change channel=9 control=92 value=0 time=0
EXTRACT: control_change channel=9 control=11 value=127 time=0
EXTRACT: program_change channel=9 program=0 time=0
EXTRACT: pitchwheel channel=2 pitch=0 time=0
EXTRACT: control_change channel=2 control=7 value=55 time=0
EXTRACT: control_change channel=2 control=10 value=63 time=0
EXTRACT: control_change channel=2 control=93 value=0 time=0
EXTRACT: control_change channel=2 control=91 value=0 time=0
EXTRACT: control_change channel=2 control=95 value=0 time=0
EXTRACT: control_change channel=2 control=92 value=0 time=0
EXTRACT: control_change channel=2 control=11 value=127 time=0
EXTRACT: program_change channel=2 program=1 time=0
EXTRACT: control_change channel=3 control=7 value=55 time=0
EXTRACT: control_change channel=3 control=10 value=63 time=0
EXTRACT: control_change channel=3 control=93 value=0 time=0
EXTRACT: control_change channel=3 control=91 value=0 time=0
EXTRACT: control_change channel=3 control=95 value=0 time=0
EXTRACT: control_change channel=3 control=92 value=0 time=0
EXTRACT: control_change channel=3 control=11 value=127 time=0
EXTRACT: program_change channel=3 program=1 time=0
EXTRACT: pitchwheel channel=4 pitch=0 time=0
EXTRACT: control_change channel=4 control=7 value=47 time=0
EXTRACT: control_change channel=4 control=10 value=63 time=0
EXTRACT: control_change channel=4 control=93 value=0 time=0
EXTRACT: control_change channel=4 control=91 value=0 time=0
EXTRACT: control_change channel=4 control=95 value=0 time=0
EXTRACT: control_change channel=4 control=92 value=0 time=0
EXTRACT: control_change channel=4 control=11 value=127 time=0
EXTRACT: program_change channel=4 program=29 time=0
EXTRACT: control_change channel=5 control=7 value=47 time=0
EXTRACT: control_change channel=5 control=10 value=63 time=0
EXTRACT: control_change channel=5 control=93 value=0 time=0
EXTRACT: control_change channel=5 control=91 value=0 time=0
EXTRACT: control_change channel=5 control=95 value=0 time=0
EXTRACT: control_change channel=5 control=92 value=0 time=0
EXTRACT: control_change channel=5 control=11 value=127 time=0
EXTRACT: program_change channel=5 program=29 time=0
EXTRACT: pitchwheel channel=6 pitch=0 time=0
EXTRACT: control_change channel=6 control=7 value=55 time=0
EXTRACT: control_change channel=6 control=10 value=63 time=0
EXTRACT: control_change channel=6 control=93 value=0 time=0
EXTRACT: control_change channel=6 control=91 value=0 time=0
EXTRACT: control_change channel=6 control=95 value=0 time=0
EXTRACT: control_change channel=6 control=92 value=0 time=0
EXTRACT: control_change channel=6 control=11 value=127 time=0
EXTRACT: program_change channel=6 program=27 time=0
EXTRACT: control_change channel=7 control=7 value=55 time=0
EXTRACT: control_change channel=7 control=10 value=63 time=0
EXTRACT: control_change channel=7 control=93 value=0 time=0
EXTRACT: control_change channel=7 control=91 value=0 time=0
EXTRACT: control_change channel=7 control=95 value=0 time=0
EXTRACT: control_change channel=7 control=92 value=0 time=0
EXTRACT: control_change channel=7 control=11 value=127 time=0
EXTRACT: program_change channel=7 program=27 time=0
EXTRACT: pitchwheel channel=8 pitch=0 time=0
EXTRACT: control_change channel=8 control=7 value=55 time=0
EXTRACT: control_change channel=8 control=10 value=63 time=0
EXTRACT: control_change channel=8 control=93 value=0 time=0
EXTRACT: control_change channel=8 control=91 value=0 time=0
EXTRACT: control_change channel=8 control=95 value=0 time=0
EXTRACT: control_change channel=8 control=92 value=0 time=0
EXTRACT: control_change channel=8 control=11 value=127 time=0
EXTRACT: program_change channel=8 program=2 time=0
EXTRACT: control_change channel=10 control=7 value=55 time=0
EXTRACT: control_change channel=10 control=10 value=63 time=0
EXTRACT: control_change channel=10 control=93 value=0 time=0
EXTRACT: control_change channel=10 control=91 value=0 time=0
EXTRACT: control_change channel=10 control=95 value=0 time=0
EXTRACT: control_change channel=10 control=92 value=0 time=0
EXTRACT: control_change channel=10 control=11 value=127 time=0
EXTRACT: program_change channel=10 program=2 time=0
EXTRACT: pitchwheel channel=11 pitch=0 time=0
EXTRACT: control_change channel=11 control=7 value=103 time=0
EXTRACT: control_change channel=11 control=10 value=63 time=0
EXTRACT: control_change channel=11 control=93 value=0 time=0
EXTRACT: control_change channel=11 control=91 value=0 time=0
EXTRACT: control_change channel=11 control=95 value=0 time=0
EXTRACT: control_change channel=11 control=92 value=0 time=0
EXTRACT: control_change channel=11 control=11 value=127 time=0
EXTRACT: program_change channel=11 program=80 time=0
EXTRACT: control_change channel=12 control=7 value=103 time=0
EXTRACT: control_change channel=12 control=10 value=63 time=0
EXTRACT: control_change channel=12 control=93 value=0 time=0
EXTRACT: control_change channel=12 control=91 value=0 time=0
EXTRACT: control_change channel=12 control=95 value=0 time=0
EXTRACT: control_change channel=12 control=92 value=0 time=0
EXTRACT: control_change channel=12 control=11 value=127 time=0
EXTRACT: program_change channel=12 program=80 time=0
EXTRACT: pitchwheel channel=13 pitch=0 time=0
EXTRACT: control_change channel=13 control=7 value=103 time=0
EXTRACT: control_change channel=13 control=10 value=63 time=0
EXTRACT: control_change channel=13 control=93 value=0 time=0
EXTRACT: control_change channel=13 control=91 value=0 time=0
EXTRACT: control_change channel=13 control=95 value=0 time=0
EXTRACT: control_change channel=13 control=92 value=0 time=0
EXTRACT: control_change channel=13 control=11 value=127 time=0
EXTRACT: program_change channel=13 program=101 time=0
EXTRACT: control_change channel=14 control=7 value=103 time=0
EXTRACT: control_change channel=14 control=10 value=63 time=0
EXTRACT: control_change channel=14 control=93 value=0 time=0
EXTRACT: control_change channel=14 control=91 value=0 time=0
EXTRACT: control_change channel=14 control=95 value=0 time=0
EXTRACT: control_change channel=14 control=92 value=0 time=0
EXTRACT: control_change channel=14 control=11 value=127 time=0
EXTRACT: program_change channel=14 program=101 time=0
EXTRACT: pitchwheel channel=15 pitch=0 time=0
EXTRACT: control_change channel=15 control=7 value=39 time=0
EXTRACT: control_change channel=15 control=10 value=63 time=0
EXTRACT: control_change channel=15 control=93 value=0 time=0
EXTRACT: control_change channel=15 control=91 value=0 time=0
EXTRACT: control_change channel=15 control=95 value=0 time=0
EXTRACT: control_change channel=15 control=92 value=0 time=0
EXTRACT: control_change channel=15 control=11 value=127 time=0
EXTRACT: program_change channel=15 program=16 time=0
EXTRACT: note_on channel=9 note=46 velocity=95 time=1.8421024999999998
EXTRACT: note_on channel=0 note=50 velocity=95 time=0.2631575
EXTRACT: note_off channel=9 note=46 velocity=95 time=0
EXTRACT: note_on channel=9 note=42 velocity=95 time=0
EXTRACT: note_off channel=0 note=50 velocity=95 time=0.2631575
EXTRACT: note_on channel=0 note=50 velocity=95 time=0
EXTRACT: note_off channel=0 note=50 velocity=95 time=0.2631575
EXTRACT: note_on channel=0 note=50 velocity=95 time=0
EXTRACT: note_off channel=9 note=42 velocity=95 time=0
EXTRACT: note_on channel=9 note=42 velocity=95 time=0
EXTRACT: note_on channel=9 note=39 velocity=95 time=0
EXTRACT: note_off channel=0 note=50 velocity=95 time=0.2631575
EXTRACT: note_on channel=0 note=50 velocity=95 time=0
EXTRACT: note_off channel=9 note=42 velocity=95 time=0
EXTRACT: note_off channel=9 note=39 velocity=95 time=0
EXTRACT: note_on channel=9 note=42 velocity=95 time=0
EXTRACT: note_off channel=0 note=50 velocity=95 time=0.13157875
EXTRACT: note_on channel=0 note=50 velocity=95 time=0
EXTRACT: note_off channel=0 note=50 velocity=95 time=0.13157875
EXTRACT: note_on channel=0 note=50 velocity=95 time=0
EXTRACT: note_off channel=9 note=42 velocity=95 time=0
EXTRACT: note_on channel=9 note=42 velocity=95 time=0
EXTRACT: note_off channel=0 note=50 velocity=95 time=0.2631575
EXTRACT: note_on channel=0 note=45 velocity=95 time=0
EXTRACT: note_off channel=9 note=42 velocity=95 time=0
EXTRACT: note_on channel=9 note=42 velocity=95 time=0
EXTRACT: note_off channel=0 note=45 velocity=95 time=0.2631575
EXTRACT: note_off channel=9 note=42 velocity=95 time=0
EXTRACT: note_on channel=9 note=42 velocity=95 time=0
EXTRACT: note_on channel=9 note=31 velocity=95 time=0
EXTRACT: note_off channel=9 note=42 velocity=95 time=0.2631575
EXTRACT: note_off channel=9 note=31 velocity=95 time=0
EXTRACT: note_on channel=9 note=42 velocity=95 time=0
EXTRACT: note_on channel=0 note=50 velocity=95 time=0.2631575
EXTRACT: note_off channel=9 note=42 velocity=95 time=0
EXTRACT: note_on channel=9 note=42 velocity=95 time=0
EXTRACT: note_off channel=0 note=50 velocity=95 time=0.2631575
EXTRACT: note_on channel=0 note=50 velocity=95 time=0
EXTRACT: note_off channel=9 note=42 velocity=95 time=0
EXTRACT: note_on channel=9 note=42 velocity=95 time=0
EXTRACT: note_off channel=0 note=50 velocity=95 time=0.2631575
EXTRACT: note_on channel=0 note=50 velocity=95 time=0
EXTRACT: note_off channel=9 note=42 velocity=95 time=0
EXTRACT: note_on channel=9 note=42 velocity=95 time=0
EXTRACT: note_on channel=9 note=39 velocity=95 time=0
EXTRACT: note_off channel=0 note=50 velocity=95 time=0.2631575
EXTRACT: note_on channel=0 note=50 velocity=95 time=0
EXTRACT: note_off channel=9 note=42 velocity=95 time=0
EXTRACT: note_off channel=9 note=39 velocity=95 time=0
EXTRACT: note_on channel=9 note=42 velocity=95 time=0
EXTRACT: note_off channel=0 note=50 velocity=95 time=0.13157875
EXTRACT: note_on channel=0 note=50 velocity=95 time=0
EXTRACT: note_off channel=0 note=50 velocity=95 time=0.13157875
EXTRACT: note_on channel=0 note=50 velocity=95 time=0
EXTRACT: note_off channel=9 note=42 velocity=95 time=0
EXTRACT: note_on channel=9 note=42 velocity=95 time=0
EXTRACT: note_off channel=0 note=50 velocity=95 time=0.2631575
EXTRACT: note_on channel=0 note=45 velocity=95 time=0
EXTRACT: note_off channel=9 note=42 velocity=95 time=0
EXTRACT: note_on channel=9 note=42 velocity=95 time=0
EXTRACT: note_off channel=0 note=45 velocity=95 time=0.2631575
EXTRACT: note_off channel=9 note=42 velocity=95 time=0
EXTRACT: note_on channel=9 note=42 velocity=95 time=0
EXTRACT: note_on channel=9 note=31 velocity=95 time=0
EXTRACT: note_on channel=8 note=79 velocity=127 time=0
EXTRACT: note_on channel=8 note=74 velocity=127 time=0
EXTRACT: note_off channel=9 note=42 velocity=95 time=0.2631575
EXTRACT: note_off channel=9 note=31 velocity=95 time=0
EXTRACT: note_on channel=9 note=42 velocity=95 time=0
EXTRACT: note_on channel=0 note=50 velocity=95 time=0.2631575
EXTRACT: note_off channel=9 note=42 velocity=95 time=0
EXTRACT: note_on channel=9 note=42 velocity=95 time=0
EXTRACT: note_off channel=8 note=79 velocity=127 time=0
EXTRACT: note_off channel=8 note=74 velocity=127 time=0
EXTRACT: note_on channel=8 note=81 velocity=127 time=0
EXTRACT: note_on channel=8 note=74 velocity=127 time=0
EXTRACT: note_off channel=0 note=50 velocity=95 time=0.2631575
EXTRACT: note_on channel=0 note=50 velocity=95 time=0
EXTRACT: note_off channel=9 note=42 velocity=95 time=0
EXTRACT: note_on channel=9 note=42 velocity=95 time=0
EXTRACT: note_off channel=0 note=50 velocity=95 time=0.2631575
EXTRACT: note_on channel=0 note=50 velocity=95 time=0
EXTRACT: note_off channel=9 note=42 velocity=95 time=0
EXTRACT: note_on channel=9 note=42 velocity=95 time=0
EXTRACT: note_on channel=9 note=39 velocity=95 time=0
EXTRACT: note_off channel=0 note=50 velocity=95 time=0.2631575
EXTRACT: note_on channel=0 note=50 velocity=95 time=0
EXTRACT: note_off channel=9 note=42 velocity=95 time=0
EXTRACT: note_off channel=9 note=39 velocity=95 time=0
EXTRACT: note_on channel=9 note=42 velocity=95 time=0
EXTRACT: note_off channel=0 note=50 velocity=95 time=0.13157875
EXTRACT: note_on channel=0 note=50 velocity=95 time=0
EXTRACT: note_off channel=0 note=50 velocity=95 time=0.13157875
EXTRACT: note_on channel=0 note=50 velocity=95 time=0
EXTRACT: note_off channel=9 note=42 velocity=95 time=0
EXTRACT: note_on channel=9 note=42 velocity=95 time=0
EXTRACT: note_off channel=0 note=50 velocity=95 time=0.2631575
EXTRACT: note_on channel=0 note=45 velocity=95 time=0
EXTRACT: note_off channel=9 note=42 velocity=95 time=0
EXTRACT: note_on channel=9 note=42 velocity=95 time=0
EXTRACT: note_off channel=0 note=45 velocity=95 time=0.2631575
EXTRACT: note_off channel=9 note=42 velocity=95 time=0
EXTRACT: note_on channel=9 note=42 velocity=95 time=0
EXTRACT: note_on channel=9 note=31 velocity=95 time=0
EXTRACT: note_off channel=9 note=42 velocity=95 time=0.2631575
EXTRACT: note_off channel=9 note=31 velocity=95 time=0
EXTRACT: note_on channel=9 note=42 velocity=95 time=0
EXTRACT: note_on channel=0 note=50 velocity=95 time=0
EXTRACT: note_off channel=9 note=42 velocity=95 time=0
EXTRACT: note_on channel=9 note=42 velocity=95 time=0
EXTRACT: note_off channel=8 note=81 velocity=127 time=0
EXTRACT: note_off channel=8 note=74 velocity=127 time=0
EXTRACT: note_off channel=0 note=50 velocity=95 time=0.2654865
EXTRACT: note_on channel=0 note=50 velocity=95 time=0
EXTRACT: note_off channel=9 note=42 velocity=95 time=0
EXTRACT: note_on channel=9 note=42 velocity=95 time=0
EXTRACT: note_off channel=0 note=50 velocity=95 time=0.2654865
EXTRACT: note_on channel=0 note=50 velocity=95 time=0
EXTRACT: note_off channel=9 note=42 velocity=95 time=0
EXTRACT: note_on channel=9 note=42 velocity=95 time=0
EXTRACT: note_on channel=9 note=39 velocity=95 time=0
EXTRACT: note_off channel=0 note=50 velocity=95 time=0.2654865
EXTRACT: note_on channel=0 note=50 velocity=95 time=0
EXTRACT: note_off channel=9 note=42 velocity=95 time=0
EXTRACT: note_off channel=9 note=39 velocity=95 time=0
EXTRACT: note_on channel=9 note=42 velocity=95 time=0
EXTRACT: note_off channel=0 note=50 velocity=95 time=0.13274325
EXTRACT: note_on channel=0 note=50 velocity=95 time=0
EXTRACT: note_off channel=0 note=50 velocity=95 time=0.13274325
EXTRACT: note_on channel=0 note=50 velocity=95 time=0
EXTRACT: note_off channel=9 note=42 velocity=95 time=0
EXTRACT: note_on channel=9 note=42 velocity=95 time=0
EXTRACT: note_off channel=0 note=50 velocity=95 time=0.2654865
EXTRACT: note_on channel=0 note=45 velocity=95 time=0
EXTRACT: note_off channel=9 note=42 velocity=95 time=0
EXTRACT: note_on channel=9 note=42 velocity=95 time=0
EXTRACT: note_off channel=0 note=45 velocity=95 time=0.2654865
EXTRACT: note_off channel=9 note=42 velocity=95 time=0
EXTRACT: note_on channel=9 note=42 velocity=95 time=0
EXTRACT: note_on channel=9 note=31 velocity=95 time=0
EXTRACT: note_on channel=8 note=86 velocity=127 time=0
EXTRACT: note_on channel=8 note=79 velocity=127 time=0
EXTRACT: note_on channel=8 note=74 velocity=95 time=0
EXTRACT: note_off channel=9 note=42 velocity=95 time=0.2654865
EXTRACT: note_off channel=9 note=31 velocity=95 time=0
EXTRACT: note_on channel=9 note=42 velocity=95 time=0
EXTRACT: note_on channel=0 note=50 velocity=95 time=0.2654865
EXTRACT: note_off channel=9 note=42 velocity=95 time=0
EXTRACT: note_on channel=9 note=42 velocity=95 time=0
EXTRACT: note_off channel=8 note=86 velocity=127 time=0
EXTRACT: note_off channel=8 note=79 velocity=127 time=0
EXTRACT: note_off channel=8 note=74 velocity=95 time=0
EXTRACT: note_on channel=8 note=81 velocity=127 time=0
EXTRACT: note_on channel=8 note=74 velocity=127 time=0
EXTRACT: note_off channel=0 note=50 velocity=95 time=0.2654865
EXTRACT: note_on channel=0 note=50 velocity=95 time=0
EXTRACT: note_off channel=9 note=42 velocity=95 time=0
EXTRACT: note_on channel=9 note=42 velocity=95 time=0
EXTRACT: note_off channel=0 note=50 velocity=95 time=0.2654865
EXTRACT: note_on channel=0 note=50 velocity=95 time=0
EXTRACT: note_off channel=9 note=42 velocity=95 time=0
EXTRACT: note_on channel=9 note=42 velocity=95 time=0
EXTRACT: note_on channel=9 note=39 velocity=95 time=0
EXTRACT: note_off channel=0 note=50 velocity=95 time=0.2654865
EXTRACT: note_on channel=0 note=50 velocity=95 time=0
EXTRACT: note_off channel=9 note=42 velocity=95 time=0
EXTRACT: note_off channel=9 note=39 velocity=95 time=0
EXTRACT: note_on channel=9 note=42 velocity=95 time=0
EXTRACT: note_off channel=0 note=50 velocity=95 time=0.13274325
EXTRACT: note_on channel=0 note=50 velocity=95 time=0
EXTRACT: note_off channel=0 note=50 velocity=95 time=0.13274325
EXTRACT: note_on channel=0 note=50 velocity=95 time=0
EXTRACT: note_off channel=9 note=42 velocity=95 time=0
EXTRACT: note_on channel=9 note=42 velocity=95 time=0
EXTRACT: note_off channel=0 note=50 velocity=95 time=0.2654865
EXTRACT: note_on channel=0 note=45 velocity=95 time=0
EXTRACT: note_off channel=9 note=42 velocity=95 time=0
EXTRACT: note_on channel=9 note=42 velocity=95 time=0
EXTRACT: note_off channel=0 note=45 velocity=95 time=0.2654865
EXTRACT: note_off channel=9 note=42 velocity=95 time=0
EXTRACT: note_on channel=9 note=42 velocity=95 time=0
EXTRACT: note_on channel=9 note=31 velocity=95 time=0
EXTRACT: note_off channel=9 note=42 velocity=95 time=0.2654865
EXTRACT: note_off channel=9 note=31 velocity=95 time=0
EXTRACT: note_on channel=9 note=42 velocity=95 time=0
EXTRACT: note_on channel=0 note=50 velocity=95 time=0.2654865
EXTRACT: note_off channel=9 note=42 velocity=95 time=0
EXTRACT: note_on channel=9 note=42 velocity=95 time=0
EXTRACT: note_off channel=8 note=81 velocity=127 time=0
EXTRACT: note_off channel=8 note=74 velocity=127 time=0
EXTRACT: note_off channel=0 note=50 velocity=95 time=0.2654865
EXTRACT: note_on channel=0 note=50 velocity=95 time=0
EXTRACT: note_off channel=9 note=42 velocity=95 time=0
EXTRACT: note_on channel=9 note=42 velocity=95 time=0
EXTRACT: note_off channel=0 note=50 velocity=95 time=0.2654865
EXTRACT: note_on channel=0 note=50 velocity=95 time=0
EXTRACT: note_off channel=9 note=42 velocity=95 time=0
EXTRACT: note_on channel=9 note=42 velocity=95 time=0
EXTRACT: note_on channel=9 note=39 velocity=95 time=0
EXTRACT: note_off channel=0 note=50 velocity=95 time=0.2654865
EXTRACT: note_on channel=0 note=50 velocity=95 time=0
EXTRACT: note_off channel=9 note=42 velocity=95 time=0
EXTRACT: note_off channel=9 note=39 velocity=95 time=0
EXTRACT: note_on channel=9 note=42 velocity=95 time=0
EXTRACT: note_off channel=0 note=50 velocity=95 time=0.13274325
EXTRACT: note_on channel=0 note=50 velocity=95 time=0
EXTRACT: note_off channel=0 note=50 velocity=95 time=0.13274325
EXTRACT: note_on channel=0 note=50 velocity=95 time=0
EXTRACT: note_off channel=9 note=42 velocity=95 time=0
EXTRACT: note_on channel=9 note=42 velocity=95 time=0
EXTRACT: note_off channel=0 note=50 velocity=95 time=0.2654865
EXTRACT: note_on channel=0 note=45 velocity=95 time=0
EXTRACT: note_off channel=9 note=42 velocity=95 time=0
EXTRACT: note_on channel=9 note=42 velocity=95 time=0
EXTRACT: note_off channel=0 note=45 velocity=95 time=0.2654865
EXTRACT: note_off channel=9 note=42 velocity=95 time=0
EXTRACT: note_on channel=9 note=42 velocity=95 time=0
EXTRACT: note_on channel=9 note=31 velocity=95 time=0
EXTRACT: note_on channel=8 note=86 velocity=127 time=0
EXTRACT: note_on channel=8 note=79 velocity=127 time=0
EXTRACT: note_on channel=13 note=62 velocity=95 time=0
EXTRACT: note_off channel=9 note=42 velocity=95 time=0.2654865
EXTRACT: note_off channel=9 note=31 velocity=95 time=0
EXTRACT: note_on channel=9 note=42 velocity=95 time=0
EXTRACT: note_on channel=0 note=50 velocity=95 time=0.2654865
EXTRACT: note_off channel=9 note=42 velocity=95 time=0
EXTRACT: note_on channel=9 note=42 velocity=95 time=0
EXTRACT: note_on channel=6 note=62 velocity=95 time=0
EXTRACT: note_on channel=6 note=50 velocity=95 time=0
EXTRACT: note_off channel=8 note=86 velocity=127 time=0
EXTRACT: note_off channel=8 note=79 velocity=127 time=0
EXTRACT: note_on channel=8 note=81 velocity=127 time=0
EXTRACT: note_on channel=8 note=74 velocity=127 time=0
EXTRACT: note_off channel=13 note=62 velocity=95 time=0
EXTRACT: note_on channel=13 note=57 velocity=95 time=0
EXTRACT: note_off channel=0 note=50 velocity=95 time=0.2654865
EXTRACT: note_on channel=0 note=50 velocity=95 time=0
EXTRACT: note_off channel=9 note=42 velocity=95 time=0
EXTRACT: note_on channel=9 note=42 velocity=95 time=0
EXTRACT: note_off channel=6 note=50 velocity=95 time=0
EXTRACT: note_off channel=0 note=50 velocity=95 time=0.2654865
EXTRACT: note_on channel=0 note=50 velocity=95 time=0
EXTRACT: note_off channel=9 note=42 velocity=95 time=0
EXTRACT: note_on channel=9 note=42 velocity=95 time=0
EXTRACT: note_on channel=9 note=39 velocity=95 time=0
EXTRACT: note_on channel=6 note=50 velocity=95 time=0
EXTRACT: note_off channel=0 note=50 velocity=95 time=0.2654865
EXTRACT: note_on channel=0 note=50 velocity=95 time=0
EXTRACT: note_off channel=9 note=42 velocity=95 time=0
EXTRACT: note_off channel=9 note=39 velocity=95 time=0
EXTRACT: note_on channel=9 note=42 velocity=95 time=0
EXTRACT: note_off channel=6 note=50 velocity=95 time=0
EXTRACT: note_on channel=6 note=69 velocity=95 time=0
EXTRACT: note_off channel=0 note=50 velocity=95 time=0.13274325
EXTRACT: note_on channel=0 note=50 velocity=95 time=0
EXTRACT: note_off channel=0 note=50 velocity=95 time=0.13274325
EXTRACT: note_on channel=0 note=50 velocity=95 time=0
EXTRACT: note_off channel=9 note=42 velocity=95 time=0
EXTRACT: note_on channel=9 note=42 velocity=95 time=0
EXTRACT: note_off channel=0 note=50 velocity=95 time=0.2654865
EXTRACT: note_on channel=0 note=45 velocity=95 time=0
EXTRACT: note_off channel=9 note=42 velocity=95 time=0
EXTRACT: note_on channel=9 note=42 velocity=95 time=0
EXTRACT: note_off channel=6 note=62 velocity=95 time=0
EXTRACT: note_on channel=6 note=62 velocity=95 time=0
EXTRACT: note_off channel=0 note=45 velocity=95 time=0.2654865
EXTRACT: note_off channel=9 note=42 velocity=95 time=0
EXTRACT: note_on channel=9 note=42 velocity=95 time=0
EXTRACT: note_on channel=9 note=31 velocity=95 time=0
EXTRACT: note_on channel=6 note=66 velocity=95 time=0
EXTRACT: note_off channel=13 note=57 velocity=95 time=0
EXTRACT: note_off channel=9 note=42 velocity=95 time=0.2654865
EXTRACT: note_off channel=9 note=31 velocity=95 time=0
EXTRACT: note_on channel=9 note=42 velocity=95 time=0
EXTRACT: note_off channel=6 note=62 velocity=95 time=0
EXTRACT: note_off channel=6 note=66 velocity=95 time=0
EXTRACT: note_on channel=6 note=62 velocity=95 time=0
EXTRACT: note_on channel=0 note=50 velocity=95 time=0
EXTRACT: note_off channel=9 note=42 velocity=95 time=0
EXTRACT: note_on channel=9 note=42 velocity=95 time=0
EXTRACT: note_off channel=6 note=69 velocity=95 time=0
EXTRACT: note_on channel=6 note=69 velocity=95 time=0
EXTRACT: note_off channel=8 note=81 velocity=127 time=0
EXTRACT: note_off channel=8 note=74 velocity=127 time=0
EXTRACT: note_off channel=0 note=50 velocity=95 time=0.2631575
EXTRACT: note_on channel=0 note=50 velocity=95 time=0
EXTRACT: note_off channel=9 note=42 velocity=95 time=0
EXTRACT: note_on channel=9 note=42 velocity=95 time=0
EXTRACT: note_off channel=6 note=69 velocity=95 time=0
EXTRACT: note_on channel=6 note=73 velocity=95 time=0
EXTRACT: note_off channel=0 note=50 velocity=95 time=0.2631575
EXTRACT: note_on channel=0 note=50 velocity=95 time=0
EXTRACT: note_off channel=9 note=42 velocity=95 time=0
EXTRACT: note_on channel=9 note=42 velocity=95 time=0
EXTRACT: note_on channel=9 note=39 velocity=95 time=0
EXTRACT: note_off channel=6 note=62 velocity=95 time=0
EXTRACT: note_on channel=6 note=62 velocity=95 time=0
EXTRACT: note_off channel=0 note=50 velocity=95 time=0.2631575
EXTRACT: note_on channel=0 note=50 velocity=95 time=0
EXTRACT: note_off channel=9 note=42 velocity=95 time=0
EXTRACT: note_off channel=9 note=39 velocity=95 time=0
EXTRACT: note_on channel=9 note=42 velocity=95 time=0
EXTRACT: note_off channel=6 note=73 velocity=95 time=0
EXTRACT: note_on channel=6 note=69 velocity=95 time=0
EXTRACT: note_off channel=0 note=50 velocity=95 time=0.13157875
EXTRACT: note_on channel=0 note=50 velocity=95 time=0
EXTRACT: note_off channel=0 note=50 velocity=95 time=0.13157875
EXTRACT: note_on channel=0 note=50 velocity=95 time=0
EXTRACT: note_off channel=9 note=42 velocity=95 time=0
EXTRACT: note_on channel=9 note=42 velocity=95 time=0
EXTRACT: note_off channel=0 note=50 velocity=95 time=0.2631575
EXTRACT: note_on channel=0 note=45 velocity=95 time=0
EXTRACT: note_off channel=9 note=42 velocity=95 time=0
EXTRACT: note_on channel=9 note=42 velocity=95 time=0
EXTRACT: note_off channel=6 note=62 velocity=95 time=0
EXTRACT: note_on channel=6 note=62 velocity=95 time=0
EXTRACT: note_off channel=0 note=45 velocity=95 time=0.2631575
EXTRACT: note_off channel=9 note=42 velocity=95 time=0
EXTRACT: note_on channel=9 note=42 velocity=95 time=0
EXTRACT: note_on channel=9 note=31 velocity=95 time=0
EXTRACT: note_off channel=6 note=69 velocity=95 time=0
EXTRACT: note_on channel=6 note=64 velocity=95 time=0
EXTRACT: note_off channel=9 note=42 velocity=95 time=0.2631575
EXTRACT: note_off channel=9 note=31 velocity=95 time=0
EXTRACT: note_on channel=9 note=42 velocity=95 time=0
EXTRACT: note_on channel=9 note=39 velocity=95 time=0
EXTRACT: note_off channel=6 note=62 velocity=95 time=0
EXTRACT: note_on channel=6 note=62 velocity=95 time=0
EXTRACT: note_on channel=0 note=50 velocity=95 time=0.2631575
EXTRACT: note_off channel=9 note=42 velocity=95 time=0
EXTRACT: note_off channel=9 note=39 velocity=95 time=0
EXTRACT: note_on channel=9 note=42 velocity=95 time=0
EXTRACT: note_off channel=6 note=62 velocity=95 time=0
EXTRACT: note_on channel=6 note=62 velocity=95 time=0
EXTRACT: note_off channel=0 note=50 velocity=95 time=0.2631575
EXTRACT: note_on channel=0 note=50 velocity=95 time=0
EXTRACT: note_off channel=9 note=42 velocity=95 time=0
EXTRACT: note_on channel=9 note=42 velocity=95 time=0
EXTRACT: note_off channel=6 note=64 velocity=95 time=0
EXTRACT: note_on channel=6 note=71 velocity=95 time=0
EXTRACT: note_off channel=0 note=50 velocity=95 time=0.2631575
EXTRACT: note_on channel=0 note=50 velocity=95 time=0
EXTRACT: note_off channel=9 note=42 velocity=95 time=0
EXTRACT: note_on channel=9 note=42 velocity=95 time=0
EXTRACT: note_on channel=9 note=39 velocity=95 time=0
EXTRACT: note_off channel=6 note=62 velocity=95 time=0
EXTRACT: note_on channel=6 note=62 velocity=95 time=0
EXTRACT: note_off channel=0 note=50 velocity=95 time=0.2631575
EXTRACT: note_on channel=0 note=50 velocity=95 time=0
EXTRACT: note_off channel=9 note=42 velocity=95 time=0
EXTRACT: note_off channel=9 note=39 velocity=95 time=0
EXTRACT: note_on channel=9 note=42 velocity=95 time=0
EXTRACT: note_on channel=6 note=67 velocity=95 time=0
EXTRACT: note_off channel=0 note=50 velocity=95 time=0.13157875
EXTRACT: note_on channel=0 note=50 velocity=95 time=0
EXTRACT: note_off channel=0 note=50 velocity=95 time=0.13157875
EXTRACT: note_on channel=0 note=50 velocity=95 time=0
EXTRACT: note_off channel=9 note=42 velocity=95 time=0
EXTRACT: note_on channel=9 note=42 velocity=95 time=0
EXTRACT: note_off channel=6 note=62 velocity=95 time=0
EXTRACT: note_on channel=6 note=62 velocity=95 time=0
EXTRACT: note_off channel=0 note=50 velocity=95 time=0.2631575
EXTRACT: note_on channel=0 note=45 velocity=95 time=0
EXTRACT: note_off channel=9 note=42 velocity=95 time=0
EXTRACT: note_on channel=9 note=42 velocity=95 time=0
EXTRACT: note_off channel=6 note=62 velocity=95 time=0
EXTRACT: note_on channel=6 note=62 velocity=95 time=0
EXTRACT: note_off channel=0 note=45 velocity=95 time=0.2631575
EXTRACT: note_off channel=9 note=42 velocity=95 time=0
EXTRACT: note_on channel=9 note=42 velocity=95 time=0
EXTRACT: note_on channel=9 note=31 velocity=95 time=0
EXTRACT: note_off channel=6 note=62 velocity=95 time=0
EXTRACT: note_on channel=6 note=62 velocity=95 time=0
EXTRACT: note_off channel=9 note=42 velocity=95 time=0.2631575
EXTRACT: note_off channel=9 note=31 velocity=95 time=0
EXTRACT: note_on channel=9 note=42 velocity=95 time=0
EXTRACT: note_off channel=6 note=62 velocity=95 time=0
EXTRACT: note_on channel=6 note=62 velocity=95 time=0
EXTRACT: note_on channel=0 note=50 velocity=95 time=0.2631575
EXTRACT: note_off channel=9 note=42 velocity=95 time=0
EXTRACT: note_on channel=9 note=42 velocity=95 time=0
EXTRACT: note_off channel=6 note=71 velocity=95 time=0
EXTRACT: note_off channel=6 note=67 velocity=95 time=0
EXTRACT: note_off channel=6 note=62 velocity=95 time=0
EXTRACT: note_on channel=6 note=61 velocity=95 time=0
EXTRACT: note_off channel=0 note=50 velocity=95 time=0.2631575
EXTRACT: note_on channel=0 note=50 velocity=95 time=0
EXTRACT: note_off channel=9 note=42 velocity=95 time=0
EXTRACT: note_on channel=9 note=42 velocity=95 time=0
EXTRACT: note_on channel=6 note=69 velocity=95 time=0
EXTRACT: note_off channel=0 note=50 velocity=95 time=0.2631575
EXTRACT: note_on channel=0 note=50 velocity=95 time=0
EXTRACT: note_off channel=9 note=42 velocity=95 time=0
EXTRACT: note_on channel=9 note=42 velocity=95 time=0
EXTRACT: note_on channel=9 note=39 velocity=95 time=0
EXTRACT: note_off channel=6 note=61 velocity=95 time=0
EXTRACT: note_on channel=6 note=61 velocity=95 time=0
EXTRACT: note_off channel=0 note=50 velocity=95 time=0.2631575
EXTRACT: note_on channel=0 note=50 velocity=95 time=0
EXTRACT: note_off channel=9 note=42 velocity=95 time=0
EXTRACT: note_off channel=9 note=39 velocity=95 time=0
EXTRACT: note_on channel=9 note=42 velocity=95 time=0
EXTRACT: note_off channel=6 note=69 velocity=95 time=0
EXTRACT: note_on channel=6 note=64 velocity=95 time=0
EXTRACT: note_off channel=0 note=50 velocity=95 time=0.13157875
EXTRACT: note_on channel=0 note=50 velocity=95 time=0
EXTRACT: note_off channel=0 note=50 velocity=95 time=0.13157875
EXTRACT: note_on channel=0 note=50 velocity=95 time=0
EXTRACT: note_off channel=9 note=42 velocity=95 time=0
EXTRACT: note_on channel=9 note=42 velocity=95 time=0
EXTRACT: note_off channel=6 note=61 velocity=95 time=0
EXTRACT: note_on channel=6 note=62 velocity=95 time=0
EXTRACT: note_off channel=0 note=50 velocity=95 time=0.2631575
EXTRACT: note_on channel=0 note=45 velocity=95 time=0
EXTRACT: note_off channel=9 note=42 velocity=95 time=0
EXTRACT: note_on channel=9 note=42 velocity=95 time=0
EXTRACT: note_off channel=6 note=62 velocity=95 time=0
EXTRACT: note_on channel=6 note=61 velocity=95 time=0
EXTRACT: note_off channel=0 note=45 velocity=95 time=0.2631575
EXTRACT: note_off channel=9 note=42 velocity=95 time=0
EXTRACT: note_on channel=9 note=42 velocity=95 time=0
EXTRACT: note_on channel=9 note=31 velocity=95 time=0
EXTRACT: note_off channel=6 note=64 velocity=95 time=0
EXTRACT: note_off channel=6 note=61 velocity=95 time=0
EXTRACT: note_on channel=6 note=59 velocity=95 time=0
EXTRACT: note_on channel=8 note=79 velocity=127 time=0
EXTRACT: note_on channel=8 note=74 velocity=127 time=0
EXTRACT: note_off channel=9 note=42 velocity=95 time=0.2631575
EXTRACT: note_off channel=9 note=31 velocity=95 time=0
EXTRACT: note_on channel=9 note=42 velocity=95 time=0
EXTRACT: note_on channel=6 note=69 velocity=95 time=0
EXTRACT: note_on channel=0 note=50 velocity=95 time=0.2631575
EXTRACT: note_off channel=9 note=42 velocity=95 time=0
EXTRACT: note_on channel=9 note=42 velocity=95 time=0
EXTRACT: note_on channel=4 note=62 velocity=95 time=0
EXTRACT: note_on channel=4 note=50 velocity=95 time=0
EXTRACT: note_off channel=6 note=59 velocity=95 time=0
EXTRACT: note_on channel=6 note=62 velocity=95 time=0
EXTRACT: note_off channel=8 note=79 velocity=127 time=0
EXTRACT: note_off channel=8 note=74 velocity=127 time=0
EXTRACT: note_on channel=8 note=81 velocity=127 time=0
EXTRACT: note_on channel=8 note=74 velocity=127 time=0
EXTRACT: note_off channel=0 note=50 velocity=95 time=0.2631575
EXTRACT: note_on channel=0 note=50 velocity=95 time=0
EXTRACT: note_off channel=9 note=42 velocity=95 time=0
EXTRACT: note_on channel=9 note=42 velocity=95 time=0
EXTRACT: note_off channel=6 note=62 velocity=95 time=0
EXTRACT: note_on channel=6 note=62 velocity=95 time=0
EXTRACT: note_on channel=11 note=57 velocity=95 time=0
EXTRACT: note_off channel=0 note=50 velocity=95 time=0.2631575
EXTRACT: note_on channel=0 note=50 velocity=95 time=0
EXTRACT: note_off channel=9 note=42 velocity=95 time=0
EXTRACT: note_on channel=9 note=42 velocity=95 time=0
EXTRACT: note_on channel=9 note=39 velocity=95 time=0
EXTRACT: note_off channel=4 note=62 velocity=95 time=0
EXTRACT: note_off channel=4 note=50 velocity=95 time=0
EXTRACT: note_on channel=4 note=62 velocity=95 time=0
EXTRACT: note_off channel=6 note=62 velocity=95 time=0
EXTRACT: note_on channel=6 note=66 velocity=95 time=0
EXTRACT: note_off channel=11 note=57 velocity=95 time=0
EXTRACT: note_on channel=11 note=57 velocity=95 time=0
EXTRACT: note_off channel=0 note=50 velocity=95 time=0.2631575
EXTRACT: note_on channel=0 note=50 velocity=95 time=0
EXTRACT: note_off channel=9 note=42 velocity=95 time=0
EXTRACT: note_off channel=9 note=39 velocity=95 time=0
EXTRACT: note_on channel=9 note=42 velocity=95 time=0
EXTRACT: note_on channel=4 note=69 velocity=95 time=0
EXTRACT: note_on channel=4 note=66 velocity=95 time=0
EXTRACT: note_off channel=6 note=69 velocity=95 time=0
EXTRACT: note_on channel=6 note=69 velocity=95 time=0
EXTRACT: note_off channel=11 note=57 velocity=95 time=0
EXTRACT: note_on channel=11 note=55 velocity=95 time=0
EXTRACT: note_off channel=0 note=50 velocity=95 time=0.13157875
EXTRACT: note_on channel=0 note=50 velocity=95 time=0
EXTRACT: note_off channel=0 note=50 velocity=95 time=0.13157875
EXTRACT: note_on channel=0 note=50 velocity=95 time=0
EXTRACT: note_off channel=9 note=42 velocity=95 time=0
EXTRACT: note_on channel=9 note=42 velocity=95 time=0
EXTRACT: note_off channel=11 note=55 velocity=95 time=0
EXTRACT: note_on channel=11 note=54 velocity=95 time=0
EXTRACT: note_off channel=0 note=50 velocity=95 time=0.2631575
EXTRACT: note_on channel=0 note=45 velocity=95 time=0
EXTRACT: note_off channel=9 note=42 velocity=95 time=0
EXTRACT: note_on channel=9 note=42 velocity=95 time=0
EXTRACT: note_on channel=4 note=50 velocity=95 time=0
EXTRACT: note_off channel=6 note=66 velocity=95 time=0
EXTRACT: note_on channel=6 note=50 velocity=95 time=0
EXTRACT: note_off channel=11 note=54 velocity=95 time=0
EXTRACT: note_off channel=0 note=45 velocity=95 time=0.2631575
EXTRACT: note_off channel=9 note=42 velocity=95 time=0
EXTRACT: note_on channel=9 note=42 velocity=95 time=0
EXTRACT: note_on channel=9 note=31 velocity=95 time=0
EXTRACT: note_off channel=4 note=69 velocity=95 time=0
EXTRACT: note_off channel=4 note=66 velocity=95 time=0
EXTRACT: note_on channel=4 note=66 velocity=95 time=0
EXTRACT: note_off channel=6 note=69 velocity=95 time=0
EXTRACT: note_on channel=6 note=71 velocity=95 time=0
EXTRACT: note_off channel=9 note=42 velocity=95 time=0.2631575
EXTRACT: note_off channel=9 note=31 velocity=95 time=0
EXTRACT: note_on channel=9 note=42 velocity=95 time=0
EXTRACT: note_off channel=4 note=50 velocity=95 time=0
EXTRACT: note_on channel=4 note=50 velocity=95 time=0
EXTRACT: note_off channel=6 note=50 velocity=95 time=0
EXTRACT: note_on channel=6 note=62 velocity=95 time=0
EXTRACT: note_on channel=0 note=50 velocity=95 time=0.2631575
EXTRACT: note_off channel=9 note=42 velocity=95 time=0
EXTRACT: note_on channel=9 note=42 velocity=95 time=0
EXTRACT: note_off channel=4 note=66 velocity=95 time=0
EXTRACT: note_on channel=4 note=64 velocity=95 time=0
EXTRACT: note_off channel=6 note=71 velocity=95 time=0
EXTRACT: note_on channel=6 note=69 velocity=95 time=0
EXTRACT: note_off channel=8 note=81 velocity=127 time=0
EXTRACT: note_off channel=8 note=74 velocity=127 time=0
EXTRACT: note_off channel=0 note=50 velocity=95 time=0.2631575
EXTRACT: note_on channel=0 note=50 velocity=95 time=0
EXTRACT: note_off channel=9 note=42 velocity=95 time=0
EXTRACT: note_on channel=9 note=42 velocity=95 time=0
EXTRACT: note_off channel=4 note=64 velocity=95 time=0
EXTRACT: note_on channel=4 note=73 velocity=95 time=0
EXTRACT: note_off channel=6 note=69 velocity=95 time=0
EXTRACT: note_on channel=6 note=73 velocity=95 time=0
EXTRACT: note_on channel=11 note=55 velocity=95 time=0
EXTRACT: note_off channel=0 note=50 velocity=95 time=0.2631575
EXTRACT: note_on channel=0 note=50 velocity=95 time=0
EXTRACT: note_off channel=9 note=42 velocity=95 time=0
EXTRACT: note_on channel=9 note=42 velocity=95 time=0
EXTRACT: note_on channel=9 note=39 velocity=95 time=0
EXTRACT: note_off channel=4 note=62 velocity=95 time=0
EXTRACT: note_off channel=4 note=50 velocity=95 time=0
EXTRACT: note_on channel=4 note=62 velocity=95 time=0
EXTRACT: note_off channel=6 note=62 velocity=95 time=0
EXTRACT: note_on channel=6 note=62 velocity=95 time=0
EXTRACT: note_off channel=11 note=55 velocity=95 time=0
EXTRACT: note_on channel=11 note=57 velocity=95 time=0
EXTRACT: note_off channel=0 note=50 velocity=95 time=0.2631575
EXTRACT: note_on channel=0 note=50 velocity=95 time=0
EXTRACT: note_off channel=9 note=42 velocity=95 time=0
EXTRACT: note_off channel=9 note=39 velocity=95 time=0
EXTRACT: note_on channel=9 note=42 velocity=95 time=0
EXTRACT: note_off channel=4 note=73 velocity=95 time=0
EXTRACT: note_on channel=4 note=69 velocity=95 time=0
EXTRACT: note_off channel=6 note=73 velocity=95 time=0
EXTRACT: note_on channel=6 note=69 velocity=95 time=0
EXTRACT: note_off channel=11 note=57 velocity=95 time=0
EXTRACT: note_on channel=11 note=55 velocity=95 time=0
EXTRACT: note_off channel=0 note=50 velocity=95 time=0.13157875
EXTRACT: note_on channel=0 note=50 velocity=95 time=0
EXTRACT: note_off channel=0 note=50 velocity=95 time=0.13157875
EXTRACT: note_on channel=0 note=50 velocity=95 time=0
EXTRACT: note_off channel=9 note=42 velocity=95 time=0
EXTRACT: note_on channel=9 note=42 velocity=95 time=0
EXTRACT: note_off channel=11 note=55 velocity=95 time=0
EXTRACT: note_on channel=11 note=54 velocity=95 time=0
EXTRACT: note_off channel=0 note=50 velocity=95 time=0.2631575
EXTRACT: note_on channel=0 note=45 velocity=95 time=0
EXTRACT: note_off channel=9 note=42 velocity=95 time=0
EXTRACT: note_on channel=9 note=42 velocity=95 time=0
EXTRACT: note_off channel=4 note=62 velocity=95 time=0
EXTRACT: note_on channel=4 note=62 velocity=95 time=0
EXTRACT: note_on channel=4 note=50 velocity=95 time=0
EXTRACT: note_off channel=6 note=62 velocity=95 time=0
EXTRACT: note_on channel=6 note=62 velocity=95 time=0
EXTRACT: note_off channel=11 note=54 velocity=95 time=0
EXTRACT: note_off channel=0 note=45 velocity=95 time=0.2631575
EXTRACT: note_off channel=9 note=42 velocity=95 time=0
EXTRACT: note_on channel=9 note=42 velocity=95 time=0
EXTRACT: note_on channel=9 note=31 velocity=95 time=0
EXTRACT: note_off channel=4 note=69 velocity=95 time=0
EXTRACT: note_on channel=4 note=64 velocity=95 time=0
EXTRACT: note_off channel=6 note=69 velocity=95 time=0
EXTRACT: note_on channel=6 note=64 velocity=95 time=0
EXTRACT: note_off channel=9 note=42 velocity=95 time=0.2631575
EXTRACT: note_off channel=9 note=31 velocity=95 time=0
EXTRACT: note_on channel=9 note=42 velocity=95 time=0
EXTRACT: note_on channel=9 note=39 velocity=95 time=0
EXTRACT: note_off channel=4 note=62 velocity=95 time=0
EXTRACT: note_off channel=4 note=50 velocity=95 time=0
EXTRACT: note_on channel=4 note=50 velocity=95 time=0
EXTRACT: note_off channel=6 note=62 velocity=95 time=0
EXTRACT: note_on channel=6 note=62 velocity=95 time=0
EXTRACT: note_on channel=0 note=50 velocity=95 time=0.2631575
EXTRACT: note_off channel=9 note=42 velocity=95 time=0
EXTRACT: note_off channel=9 note=39 velocity=95 time=0
EXTRACT: note_on channel=9 note=42 velocity=95 time=0
EXTRACT: note_off channel=4 note=64 velocity=95 time=0
EXTRACT: note_on channel=4 note=62 velocity=95 time=0
EXTRACT: note_off channel=6 note=62 velocity=95 time=0
EXTRACT: note_on channel=6 note=62 velocity=95 time=0
EXTRACT: note_off channel=0 note=50 velocity=95 time=0.2631575
EXTRACT: note_on channel=0 note=50 velocity=95 time=0
EXTRACT: note_off channel=9 note=42 velocity=95 time=0
EXTRACT: note_on channel=9 note=42 velocity=95 time=0
EXTRACT: note_off channel=4 note=62 velocity=95 time=0
EXTRACT: note_on channel=4 note=71 velocity=95 time=0
EXTRACT: note_off channel=6 note=64 velocity=95 time=0
EXTRACT: note_on channel=6 note=71 velocity=95 time=0
EXTRACT: note_on channel=11 note=55 velocity=95 time=0
EXTRACT: note_off channel=11 note=55 velocity=95 time=0.13157875
EXTRACT: note_on channel=11 note=55 velocity=95 time=0
EXTRACT: note_off channel=0 note=50 velocity=95 time=0.13157875
EXTRACT: note_on channel=0 note=50 velocity=95 time=0
EXTRACT: note_off channel=9 note=42 velocity=95 time=0
EXTRACT: note_on channel=9 note=42 velocity=95 time=0
EXTRACT: note_on channel=9 note=39 velocity=95 time=0
EXTRACT: note_off channel=4 note=50 velocity=95 time=0
EXTRACT: note_on channel=4 note=50 velocity=95 time=0
EXTRACT: note_off channel=6 note=62 velocity=95 time=0
EXTRACT: note_on channel=6 note=62 velocity=95 time=0
EXTRACT: note_off channel=11 note=55 velocity=95 time=0
EXTRACT: note_on channel=11 note=57 velocity=95 time=0
EXTRACT: note_off channel=0 note=50 velocity=95 time=0.2631575
EXTRACT: note_on channel=0 note=50 velocity=95 time=0
EXTRACT: note_off channel=9 note=42 velocity=95 time=0
EXTRACT: note_off channel=9 note=39 velocity=95 time=0
EXTRACT: note_on channel=9 note=42 velocity=95 time=0
EXTRACT: note_off channel=4 note=71 velocity=95 time=0
EXTRACT: note_on channel=4 note=67 velocity=95 time=0
EXTRACT: note_on channel=6 note=67 velocity=95 time=0
EXTRACT: note_off channel=11 note=57 velocity=95 time=0
EXTRACT: note_on channel=11 note=57 velocity=95 time=0
EXTRACT: note_off channel=0 note=50 velocity=95 time=0.13157875
EXTRACT: note_on channel=0 note=50 velocity=95 time=0
EXTRACT: note_off channel=0 note=50 velocity=95 time=0.13157875
EXTRACT: note_on channel=0 note=50 velocity=95 time=0
EXTRACT: note_off channel=9 note=42 velocity=95 time=0
EXTRACT: note_on channel=9 note=42 velocity=95 time=0
EXTRACT: note_off channel=6 note=62 velocity=95 time=0
EXTRACT: note_on channel=6 note=62 velocity=95 time=0
EXTRACT: note_off channel=11 note=57 velocity=95 time=0
EXTRACT: note_on channel=11 note=57 velocity=95 time=0
EXTRACT: note_off channel=0 note=50 velocity=95 time=0.2631575
EXTRACT: note_on channel=0 note=45 velocity=95 time=0
EXTRACT: note_off channel=9 note=42 velocity=95 time=0
EXTRACT: note_on channel=9 note=42 velocity=95 time=0
EXTRACT: note_off channel=4 note=50 velocity=95 time=0
EXTRACT: note_on channel=4 note=50 velocity=95 time=0
EXTRACT: note_off channel=6 note=62 velocity=95 time=0
EXTRACT: note_on channel=6 note=62 velocity=95 time=0
EXTRACT: note_off channel=11 note=57 velocity=95 time=0
EXTRACT: note_on channel=11 note=54 velocity=95 time=0
EXTRACT: note_off channel=0 note=45 velocity=95 time=0.2631575
EXTRACT: note_off channel=9 note=42 velocity=95 time=0
EXTRACT: note_on channel=9 note=42 velocity=95 time=0
EXTRACT: note_on channel=9 note=31 velocity=95 time=0
EXTRACT: note_off channel=4 note=67 velocity=95 time=0
EXTRACT: note_on channel=4 note=62 velocity=95 time=0
EXTRACT: note_off channel=6 note=62 velocity=95 time=0
EXTRACT: note_on channel=6 note=62 velocity=95 time=0
EXTRACT: note_off channel=11 note=54 velocity=95 time=0
EXTRACT: note_off channel=9 note=42 velocity=95 time=0.2631575
EXTRACT: note_off channel=9 note=31 velocity=95 time=0
EXTRACT: note_on channel=9 note=42 velocity=95 time=0
EXTRACT: note_off channel=4 note=50 velocity=95 time=0
EXTRACT: note_on channel=4 note=50 velocity=95 time=0
EXTRACT: note_off channel=6 note=62 velocity=95 time=0
EXTRACT: note_on channel=6 note=62 velocity=95 time=0
EXTRACT: note_on channel=0 note=50 velocity=95 time=0.2631575
EXTRACT: note_off channel=9 note=42 velocity=95 time=0
EXTRACT: note_on channel=9 note=42 velocity=95 time=0
EXTRACT: note_off channel=4 note=62 velocity=95 time=0
EXTRACT: note_on channel=4 note=61 velocity=95 time=0
EXTRACT: note_off channel=6 note=71 velocity=95 time=0
EXTRACT: note_off channel=6 note=67 velocity=95 time=0
EXTRACT: note_off channel=6 note=62 velocity=95 time=0
EXTRACT: note_on channel=6 note=61 velocity=95 time=0
EXTRACT: note_off channel=0 note=50 velocity=95 time=0.2631575
EXTRACT: note_on channel=0 note=50 velocity=95 time=0
EXTRACT: note_off channel=9 note=42 velocity=95 time=0
EXTRACT: note_on channel=9 note=42 velocity=95 time=0
EXTRACT: note_off channel=4 note=61 velocity=95 time=0
EXTRACT: note_on channel=4 note=69 velocity=95 time=0
EXTRACT: note_on channel=6 note=69 velocity=95 time=0
EXTRACT: note_off channel=0 note=50 velocity=95 time=0.2631575
EXTRACT: note_on channel=0 note=50 velocity=95 time=0
EXTRACT: note_off channel=9 note=42 velocity=95 time=0
EXTRACT: note_on channel=9 note=42 velocity=95 time=0
EXTRACT: note_on channel=9 note=39 velocity=95 time=0
EXTRACT: note_off channel=6 note=61 velocity=95 time=0
EXTRACT: note_on channel=6 note=61 velocity=95 time=0
EXTRACT: note_off channel=0 note=50 velocity=95 time=0.2631575
EXTRACT: note_on channel=0 note=50 velocity=95 time=0
EXTRACT: note_off channel=9 note=42 velocity=95 time=0
EXTRACT: note_off channel=9 note=39 velocity=95 time=0
EXTRACT: note_on channel=9 note=42 velocity=95 time=0
EXTRACT: note_off channel=4 note=69 velocity=95 time=0
EXTRACT: note_on channel=4 note=64 velocity=95 time=0
EXTRACT: note_off channel=6 note=69 velocity=95 time=0
EXTRACT: note_on channel=6 note=64 velocity=95 time=0
EXTRACT: note_off channel=0 note=50 velocity=95 time=0.13157875
EXTRACT: note_on channel=0 note=50 velocity=95 time=0
EXTRACT: note_off channel=0 note=50 velocity=95 time=0.13157875
EXTRACT: note_on channel=0 note=50 velocity=95 time=0
EXTRACT: note_off channel=9 note=42 velocity=95 time=0
EXTRACT: note_on channel=9 note=42 velocity=95 time=0
EXTRACT: note_off channel=4 note=64 velocity=95 time=0
EXTRACT: note_on channel=4 note=62 velocity=95 time=0
EXTRACT: note_off channel=6 note=61 velocity=95 time=0
EXTRACT: note_on channel=6 note=62 velocity=95 time=0
EXTRACT: note_off channel=0 note=50 velocity=95 time=0.2631575
EXTRACT: note_on channel=0 note=45 velocity=95 time=0
EXTRACT: note_off channel=9 note=42 velocity=95 time=0
EXTRACT: note_on channel=9 note=42 velocity=95 time=0
EXTRACT: note_off channel=4 note=62 velocity=95 time=0
EXTRACT: note_on channel=4 note=61 velocity=95 time=0
EXTRACT: note_off channel=6 note=62 velocity=95 time=0
EXTRACT: note_on channel=6 note=61 velocity=95 time=0
EXTRACT: note_off channel=0 note=45 velocity=95 time=0.2631575
EXTRACT: note_off channel=9 note=42 velocity=95 time=0
EXTRACT: note_on channel=9 note=42 velocity=95 time=0
EXTRACT: note_on channel=9 note=31 velocity=95 time=0
EXTRACT: note_off channel=4 note=61 velocity=95 time=0
EXTRACT: note_on channel=4 note=59 velocity=95 time=0
EXTRACT: note_off channel=6 note=64 velocity=95 time=0
EXTRACT: note_off channel=6 note=61 velocity=95 time=0
EXTRACT: note_on channel=6 note=59 velocity=95 time=0
EXTRACT: note_on channel=8 note=79 velocity=127 time=0
EXTRACT: note_on channel=8 note=74 velocity=127 time=0
EXTRACT: note_off channel=9 note=42 velocity=95 time=0.2631575
EXTRACT: note_off channel=9 note=31 velocity=95 time=0
EXTRACT: note_on channel=9 note=42 velocity=95 time=0
EXTRACT: note_off channel=4 note=59 velocity=95 time=0
EXTRACT: note_on channel=4 note=57 velocity=95 time=0
EXTRACT: note_on channel=6 note=69 velocity=95 time=0
EXTRACT: note_on channel=1 note=67 velocity=95 time=0
EXTRACT: note_on channel=0 note=50 velocity=95 time=0
EXTRACT: note_off channel=9 note=42 velocity=95 time=0
EXTRACT: note_on channel=9 note=42 velocity=95 time=0
EXTRACT: note_on channel=9 note=36 velocity=95 time=0
EXTRACT: note_on channel=2 note=66 velocity=127 time=0
EXTRACT: note_on channel=2 note=62 velocity=127 time=0
EXTRACT: note_on channel=2 note=57 velocity=95 time=0
EXTRACT: note_on channel=2 note=50 velocity=95 time=0
EXTRACT: note_off channel=4 note=50 velocity=95 time=0
EXTRACT: note_off channel=4 note=57 velocity=95 time=0
EXTRACT: note_on channel=4 note=62 velocity=95 time=0
EXTRACT: note_on channel=4 note=50 velocity=95 time=0
EXTRACT: note_off channel=6 note=59 velocity=95 time=0
EXTRACT: note_on channel=6 note=62 velocity=95 time=0
EXTRACT: note_off channel=8 note=79 velocity=127 time=0
EXTRACT: note_off channel=8 note=74 velocity=127 time=0
EXTRACT: note_on channel=8 note=81 velocity=127 time=0
EXTRACT: note_on channel=8 note=74 velocity=127 time=0
EXTRACT: note_on channel=11 note=67 velocity=95 time=0
EXTRACT: note_off channel=1 note=67 velocity=95 time=0.2654865
EXTRACT: note_on channel=1 note=66 velocity=95 time=0
EXTRACT: note_off channel=0 note=50 velocity=95 time=0
EXTRACT: note_on channel=0 note=50 velocity=95 time=0
EXTRACT: note_off channel=9 note=42 velocity=95 time=0
EXTRACT: note_on channel=9 note=42 velocity=95 time=0
EXTRACT: note_off channel=2 note=66 velocity=127 time=0
EXTRACT: note_off channel=2 note=62 velocity=127 time=0
EXTRACT: note_off channel=2 note=57 velocity=95 time=0
EXTRACT: note_off channel=2 note=50 velocity=95 time=0
EXTRACT: note_on channel=2 note=66 velocity=127 time=0
EXTRACT: note_on channel=2 note=62 velocity=127 time=0
EXTRACT: note_on channel=2 note=57 velocity=95 time=0
EXTRACT: note_on channel=2 note=50 velocity=95 time=0
EXTRACT: note_off channel=6 note=62 velocity=95 time=0
EXTRACT: note_on channel=6 note=62 velocity=95 time=0
EXTRACT: note_off channel=11 note=67 velocity=95 time=0
EXTRACT: note_on channel=11 note=66 velocity=95 time=0
EXTRACT: note_off channel=1 note=66 velocity=95 time=0.2654865
EXTRACT: note_off channel=0 note=50 velocity=95 time=0
EXTRACT: note_on channel=0 note=50 velocity=95 time=0
EXTRACT: note_off channel=9 note=36 velocity=95 time=0
EXTRACT: note_off channel=9 note=42 velocity=95 time=0
EXTRACT: note_on channel=9 note=42 velocity=95 time=0
EXTRACT: note_on channel=9 note=38 velocity=95 time=0
EXTRACT: note_off channel=2 note=66 velocity=127 time=0
EXTRACT: note_off channel=2 note=62 velocity=127 time=0
EXTRACT: note_off channel=2 note=57 velocity=95 time=0
EXTRACT: note_off channel=2 note=50 velocity=95 time=0
EXTRACT: note_on channel=2 note=66 velocity=127 time=0
EXTRACT: note_on channel=2 note=62 velocity=127 time=0
EXTRACT: note_on channel=2 note=57 velocity=95 time=0
EXTRACT: note_on channel=2 note=50 velocity=95 time=0
EXTRACT: note_off channel=4 note=62 velocity=95 time=0
EXTRACT: note_off channel=4 note=50 velocity=95 time=0
EXTRACT: note_on channel=4 note=62 velocity=95 time=0
EXTRACT: note_off channel=6 note=62 velocity=95 time=0
EXTRACT: note_on channel=6 note=66 velocity=95 time=0
EXTRACT: note_off channel=11 note=66 velocity=95 time=0
EXTRACT: note_off channel=0 note=50 velocity=95 time=0.2654865
EXTRACT: note_on channel=0 note=50 velocity=95 time=0
EXTRACT: note_off channel=9 note=42 velocity=95 time=0
EXTRACT: note_on channel=9 note=42 velocity=95 time=0
EXTRACT: note_off channel=2 note=66 velocity=127 time=0
EXTRACT: note_off channel=2 note=62 velocity=127 time=0
EXTRACT: note_off channel=2 note=57 velocity=95 time=0
EXTRACT: note_off channel=2 note=50 velocity=95 time=0
EXTRACT: note_on channel=2 note=66 velocity=127 time=0
EXTRACT: note_on channel=2 note=62 velocity=127 time=0
EXTRACT: note_on channel=2 note=57 velocity=95 time=0
EXTRACT: note_on channel=2 note=50 velocity=95 time=0
EXTRACT: note_on channel=4 note=69 velocity=95 time=0
EXTRACT: note_on channel=4 note=66 velocity=95 time=0
EXTRACT: note_off channel=6 note=69 velocity=95 time=0
EXTRACT: note_on channel=6 note=69 velocity=95 time=0
EXTRACT: note_off channel=0 note=50 velocity=95 time=0.13274325
EXTRACT: note_on channel=0 note=50 velocity=95 time=0
EXTRACT: note_off channel=0 note=50 velocity=95 time=0.13274325
EXTRACT: note_on channel=0 note=50 velocity=95 time=0
EXTRACT: note_off channel=9 note=38 velocity=95 time=0
EXTRACT: note_off channel=9 note=42 velocity=95 time=0
EXTRACT: note_on channel=9 note=42 velocity=95 time=0
EXTRACT: note_off channel=2 note=66 velocity=127 time=0
EXTRACT: note_off channel=2 note=62 velocity=127 time=0
EXTRACT: note_off channel=2 note=57 velocity=95 time=0
EXTRACT: note_off channel=2 note=50 velocity=95 time=0
EXTRACT: note_on channel=2 note=66 velocity=127 time=0
EXTRACT: note_on channel=2 note=62 velocity=127 time=0
EXTRACT: note_on channel=2 note=57 velocity=95 time=0
EXTRACT: note_on channel=2 note=50 velocity=95 time=0
EXTRACT: note_off channel=0 note=50 velocity=95 time=0.2654865
EXTRACT: note_on channel=0 note=45 velocity=95 time=0
EXTRACT: note_off channel=9 note=42 velocity=95 time=0
EXTRACT: note_on channel=9 note=42 velocity=95 time=0
EXTRACT: note_on channel=9 note=36 velocity=95 time=0
EXTRACT: note_off channel=2 note=66 velocity=127 time=0
EXTRACT: note_off channel=2 note=62 velocity=127 time=0
EXTRACT: note_off channel=2 note=57 velocity=95 time=0
EXTRACT: note_off channel=2 note=50 velocity=95 time=0
EXTRACT: note_on channel=2 note=66 velocity=127 time=0
EXTRACT: note_on channel=2 note=62 velocity=127 time=0
EXTRACT: note_on channel=2 note=57 velocity=95 time=0
EXTRACT: note_on channel=2 note=50 velocity=95 time=0
EXTRACT: note_on channel=4 note=50 velocity=95 time=0
EXTRACT: note_off channel=6 note=66 velocity=95 time=0
EXTRACT: note_on channel=6 note=50 velocity=95 time=0
EXTRACT: note_on channel=1 note=66 velocity=95 time=0.2654865
EXTRACT: note_off channel=0 note=45 velocity=95 time=0
EXTRACT: note_off channel=9 note=42 velocity=95 time=0
EXTRACT: note_off channel=9 note=36 velocity=95 time=0
EXTRACT: note_on channel=9 note=42 velocity=95 time=0
EXTRACT: note_on channel=9 note=38 velocity=95 time=0
EXTRACT: note_off channel=2 note=66 velocity=127 time=0
EXTRACT: note_off channel=2 note=62 velocity=127 time=0
EXTRACT: note_off channel=2 note=57 velocity=95 time=0
EXTRACT: note_off channel=2 note=50 velocity=95 time=0
EXTRACT: note_on channel=2 note=66 velocity=127 time=0
EXTRACT: note_on channel=2 note=62 velocity=127 time=0
EXTRACT: note_on channel=2 note=57 velocity=95 time=0
EXTRACT: note_on channel=2 note=50 velocity=95 time=0
EXTRACT: note_off channel=4 note=69 velocity=95 time=0
EXTRACT: note_off channel=4 note=66 velocity=95 time=0
EXTRACT: note_on channel=4 note=66 velocity=95 time=0
EXTRACT: note_off channel=6 note=69 velocity=95 time=0
EXTRACT: note_on channel=6 note=71 velocity=95 time=0
EXTRACT: note_on channel=11 note=66 velocity=95 time=0
EXTRACT: note_off channel=1 note=66 velocity=95 time=0.2654865
EXTRACT: note_on channel=1 note=66 velocity=95 time=0
EXTRACT: note_off channel=9 note=42 velocity=95 time=0
EXTRACT: note_on channel=9 note=42 velocity=95 time=0
EXTRACT: note_off channel=2 note=66 velocity=127 time=0
EXTRACT: note_off channel=2 note=62 velocity=127 time=0
EXTRACT: note_off channel=2 note=57 velocity=95 time=0
EXTRACT: note_off channel=2 note=50 velocity=95 time=0
EXTRACT: note_on channel=2 note=66 velocity=127 time=0
EXTRACT: note_on channel=2 note=62 velocity=127 time=0
EXTRACT: note_on channel=2 note=57 velocity=95 time=0
EXTRACT: note_on channel=2 note=50 velocity=95 time=0
EXTRACT: note_off channel=4 note=50 velocity=95 time=0
EXTRACT: note_on channel=4 note=50 velocity=95 time=0
EXTRACT: note_off channel=6 note=50 velocity=95 time=0
EXTRACT: note_on channel=6 note=62 velocity=95 time=0
EXTRACT: note_off channel=11 note=66 velocity=95 time=0
EXTRACT: note_on channel=11 note=66 velocity=95 time=0
EXTRACT: note_off channel=1 note=66 velocity=95 time=0.2654865
EXTRACT: note_on channel=1 note=66 velocity=95 time=0
EXTRACT: note_on channel=0 note=50 velocity=95 time=0
EXTRACT: note_off channel=9 note=38 velocity=95 time=0
EXTRACT: note_off channel=9 note=42 velocity=95 time=0
EXTRACT: note_on channel=9 note=42 velocity=95 time=0
EXTRACT: note_on channel=9 note=36 velocity=95 time=0
EXTRACT: note_off channel=2 note=66 velocity=127 time=0
EXTRACT: note_off channel=2 note=62 velocity=127 time=0
EXTRACT: note_off channel=2 note=57 velocity=95 time=0
EXTRACT: note_off channel=2 note=50 velocity=95 time=0
EXTRACT: note_on channel=2 note=64 velocity=127 time=0
EXTRACT: note_on channel=2 note=61 velocity=127 time=0
EXTRACT: note_on channel=2 note=57 velocity=95 time=0
EXTRACT: note_on channel=2 note=50 velocity=95 time=0
EXTRACT: note_off channel=4 note=66 velocity=95 time=0
EXTRACT: note_on channel=4 note=64 velocity=95 time=0
EXTRACT: note_off channel=6 note=71 velocity=95 time=0
EXTRACT: note_on channel=6 note=69 velocity=95 time=0
EXTRACT: note_off channel=8 note=81 velocity=127 time=0
EXTRACT: note_off channel=8 note=74 velocity=127 time=0
EXTRACT: note_off channel=11 note=66 velocity=95 time=0
EXTRACT: note_on channel=11 note=66 velocity=95 time=0
EXTRACT: note_off channel=0 note=50 velocity=95 time=0.2654865
EXTRACT: note_on channel=0 note=50 velocity=95 time=0
EXTRACT: note_off channel=9 note=42 velocity=95 time=0
EXTRACT: note_on channel=9 note=42 velocity=95 time=0
EXTRACT: note_off channel=2 note=64 velocity=127 time=0
EXTRACT: note_off channel=2 note=61 velocity=127 time=0
EXTRACT: note_off channel=2 note=57 velocity=95 time=0
EXTRACT: note_off channel=2 note=50 velocity=95 time=0
EXTRACT: note_on channel=2 note=64 velocity=127 time=0
EXTRACT: note_on channel=2 note=61 velocity=127 time=0
EXTRACT: note_on channel=2 note=57 velocity=95 time=0
EXTRACT: note_on channel=2 note=50 velocity=95 time=0
EXTRACT: note_off channel=4 note=64 velocity=95 time=0
EXTRACT: note_on channel=4 note=73 velocity=95 time=0
EXTRACT: note_off channel=6 note=69 velocity=95 time=0
EXTRACT: note_on channel=6 note=73 velocity=95 time=0
EXTRACT: note_off channel=1 note=66 velocity=95 time=0.2654865
EXTRACT: note_on channel=1 note=64 velocity=95 time=0
EXTRACT: note_off channel=0 note=50 velocity=95 time=0
EXTRACT: note_on channel=0 note=50 velocity=95 time=0
EXTRACT: note_off channel=9 note=36 velocity=95 time=0
EXTRACT: note_off channel=9 note=42 velocity=95 time=0
EXTRACT: note_on channel=9 note=42 velocity=95 time=0
EXTRACT: note_on channel=9 note=38 velocity=95 time=0
EXTRACT: note_off channel=2 note=64 velocity=127 time=0
EXTRACT: note_off channel=2 note=61 velocity=127 time=0
EXTRACT: note_off channel=2 note=57 velocity=95 time=0
EXTRACT: note_off channel=2 note=50 velocity=95 time=0
EXTRACT: note_on channel=2 note=64 velocity=127 time=0
EXTRACT: note_on channel=2 note=61 velocity=127 time=0
EXTRACT: note_on channel=2 note=57 velocity=95 time=0
EXTRACT: note_on channel=2 note=50 velocity=95 time=0
EXTRACT: note_off channel=4 note=62 velocity=95 time=0
EXTRACT: note_off channel=4 note=50 velocity=95 time=0
EXTRACT: note_on channel=4 note=62 velocity=95 time=0
EXTRACT: note_off channel=6 note=62 velocity=95 time=0
EXTRACT: note_on channel=6 note=62 velocity=95 time=0
EXTRACT: note_off channel=11 note=66 velocity=95 time=0
EXTRACT: note_on channel=11 note=64 velocity=95 time=0
EXTRACT: note_off channel=1 note=64 velocity=95 time=0.2654865
EXTRACT: note_on channel=1 note=66 velocity=95 time=0
EXTRACT: note_off channel=0 note=50 velocity=95 time=0
EXTRACT: note_on channel=0 note=50 velocity=95 time=0
EXTRACT: note_off channel=9 note=42 velocity=95 time=0
EXTRACT: note_on channel=9 note=42 velocity=95 time=0
EXTRACT: note_off channel=2 note=64 velocity=127 time=0
EXTRACT: note_off channel=2 note=61 velocity=127 time=0
EXTRACT: note_off channel=2 note=57 velocity=95 time=0
EXTRACT: note_off channel=2 note=50 velocity=95 time=0
EXTRACT: note_on channel=2 note=64 velocity=127 time=0
EXTRACT: note_on channel=2 note=61 velocity=127 time=0
EXTRACT: note_on channel=2 note=57 velocity=95 time=0
EXTRACT: note_on channel=2 note=50 velocity=95 time=0
EXTRACT: note_off channel=4 note=73 velocity=95 time=0
EXTRACT: note_on channel=4 note=69 velocity=95 time=0
EXTRACT: note_off channel=6 note=73 velocity=95 time=0
EXTRACT: note_on channel=6 note=69 velocity=95 time=0
EXTRACT: note_off channel=11 note=64 velocity=95 time=0
EXTRACT: note_on channel=11 note=66 velocity=95 time=0
EXTRACT: note_off channel=0 note=50 velocity=95 time=0.13274325
EXTRACT: note_on channel=0 note=50 velocity=95 time=0
EXTRACT: note_off channel=0 note=50 velocity=95 time=0.13274325
EXTRACT: note_on channel=0 note=50 velocity=95 time=0
EXTRACT: note_off channel=9 note=38 velocity=95 time=0
EXTRACT: note_off channel=9 note=42 velocity=95 time=0
EXTRACT: note_on channel=9 note=42 velocity=95 time=0
EXTRACT: note_off channel=2 note=64 velocity=127 time=0
EXTRACT: note_off channel=2 note=61 velocity=127 time=0
EXTRACT: note_off channel=2 note=57 velocity=95 time=0
EXTRACT: note_off channel=2 note=50 velocity=95 time=0
EXTRACT: note_on channel=2 note=64 velocity=127 time=0
EXTRACT: note_on channel=2 note=61 velocity=127 time=0
EXTRACT: note_on channel=2 note=57 velocity=95 time=0
EXTRACT: note_on channel=2 note=50 velocity=95 time=0
EXTRACT: note_off channel=1 note=66 velocity=95 time=0.2654865
EXTRACT: note_off channel=0 note=50 velocity=95 time=0
EXTRACT: note_on channel=0 note=45 velocity=95 time=0
EXTRACT: note_off channel=9 note=42 velocity=95 time=0
EXTRACT: note_on channel=9 note=42 velocity=95 time=0
EXTRACT: note_on channel=9 note=36 velocity=95 time=0
EXTRACT: note_off channel=2 note=64 velocity=127 time=0
EXTRACT: note_off channel=2 note=61 velocity=127 time=0
EXTRACT: note_off channel=2 note=57 velocity=95 time=0
EXTRACT: note_off channel=2 note=50 velocity=95 time=0
EXTRACT: note_on channel=2 note=64 velocity=127 time=0
EXTRACT: note_on channel=2 note=61 velocity=127 time=0
EXTRACT: note_on channel=2 note=57 velocity=95 time=0
EXTRACT: note_on channel=2 note=50 velocity=95 time=0
EXTRACT: note_off channel=4 note=62 velocity=95 time=0
EXTRACT: note_on channel=4 note=62 velocity=95 time=0
EXTRACT: note_on channel=4 note=50 velocity=95 time=0
EXTRACT: note_off channel=6 note=62 velocity=95 time=0
EXTRACT: note_on channel=6 note=62 velocity=95 time=0
EXTRACT: note_off channel=11 note=66 velocity=95 time=0
EXTRACT: note_on channel=1 note=64 velocity=95 time=0.2654865
EXTRACT: note_off channel=0 note=45 velocity=95 time=0
EXTRACT: note_off channel=9 note=42 velocity=95 time=0
EXTRACT: note_off channel=9 note=36 velocity=95 time=0
EXTRACT: note_on channel=9 note=42 velocity=95 time=0
EXTRACT: note_on channel=9 note=38 velocity=95 time=0
EXTRACT: note_off channel=2 note=64 velocity=127 time=0
EXTRACT: note_off channel=2 note=61 velocity=127 time=0
EXTRACT: note_off channel=2 note=57 velocity=95 time=0
EXTRACT: note_off channel=2 note=50 velocity=95 time=0
EXTRACT: note_on channel=2 note=64 velocity=127 time=0
EXTRACT: note_on channel=2 note=61 velocity=127 time=0
EXTRACT: note_on channel=2 note=57 velocity=95 time=0
EXTRACT: note_on channel=2 note=50 velocity=95 time=0
EXTRACT: note_off channel=4 note=69 velocity=95 time=0
EXTRACT: note_on channel=4 note=64 velocity=95 time=0
EXTRACT: note_off channel=6 note=69 velocity=95 time=0
EXTRACT: note_on channel=6 note=64 velocity=95 time=0
EXTRACT: note_on channel=11 note=64 velocity=95 time=0
EXTRACT: note_off channel=1 note=64 velocity=95 time=0.2654865
EXTRACT: note_on channel=1 note=64 velocity=95 time=0
EXTRACT: note_off channel=9 note=42 velocity=95 time=0
EXTRACT: note_off channel=9 note=38 velocity=95 time=0
EXTRACT: note_on channel=9 note=42 velocity=95 time=0
EXTRACT: note_on channel=9 note=36 velocity=95 time=0
EXTRACT: note_off channel=2 note=64 velocity=127 time=0
EXTRACT: note_off channel=2 note=61 velocity=127 time=0
EXTRACT: note_off channel=2 note=57 velocity=95 time=0
EXTRACT: note_off channel=2 note=50 velocity=95 time=0
EXTRACT: note_on channel=2 note=64 velocity=127 time=0
EXTRACT: note_on channel=2 note=61 velocity=127 time=0
EXTRACT: note_on channel=2 note=57 velocity=95 time=0
EXTRACT: note_on channel=2 note=50 velocity=95 time=0
EXTRACT: note_off channel=4 note=62 velocity=95 time=0
EXTRACT: note_off channel=4 note=50 velocity=95 time=0
EXTRACT: note_on channel=4 note=50 velocity=95 time=0
EXTRACT: note_off channel=6 note=62 velocity=95 time=0
EXTRACT: note_on channel=6 note=62 velocity=95 time=0
EXTRACT: note_off channel=11 note=64 velocity=95 time=0
EXTRACT: note_on channel=11 note=64 velocity=95 time=0
EXTRACT: note_off channel=1 note=64 velocity=95 time=0.2654865
EXTRACT: note_on channel=1 note=62 velocity=95 time=0
EXTRACT: note_on channel=0 note=50 velocity=95 time=0
EXTRACT: note_off channel=9 note=42 velocity=95 time=0
EXTRACT: note_off channel=9 note=36 velocity=95 time=0
EXTRACT: note_on channel=9 note=42 velocity=95 time=0
EXTRACT: note_on channel=9 note=36 velocity=95 time=0
EXTRACT: note_off channel=2 note=64 velocity=127 time=0
EXTRACT: note_off channel=2 note=61 velocity=127 time=0
EXTRACT: note_off channel=2 note=57 velocity=95 time=0
EXTRACT: note_off channel=2 note=50 velocity=95 time=0
EXTRACT: note_on channel=2 note=62 velocity=127 time=0
EXTRACT: note_on channel=2 note=59 velocity=127 time=0
EXTRACT: note_on channel=2 note=55 velocity=95 time=0
EXTRACT: note_off channel=4 note=64 velocity=95 time=0
EXTRACT: note_on channel=4 note=62 velocity=95 time=0
EXTRACT: note_off channel=6 note=62 velocity=95 time=0
EXTRACT: note_on channel=6 note=62 velocity=95 time=0
EXTRACT: note_off channel=11 note=64 velocity=95 time=0
EXTRACT: note_on channel=11 note=62 velocity=95 time=0
EXTRACT: note_off channel=0 note=50 velocity=95 time=0.2654865
EXTRACT: note_on channel=0 note=50 velocity=95 time=0
EXTRACT: note_off channel=9 note=42 velocity=95 time=0
EXTRACT: note_on channel=9 note=42 velocity=95 time=0
EXTRACT: note_off channel=2 note=62 velocity=127 time=0
EXTRACT: note_off channel=2 note=59 velocity=127 time=0
EXTRACT: note_off channel=2 note=55 velocity=95 time=0
EXTRACT: note_on channel=2 note=62 velocity=127 time=0
EXTRACT: note_on channel=2 note=59 velocity=127 time=0
EXTRACT: note_on channel=2 note=55 velocity=95 time=0
EXTRACT: note_off channel=4 note=62 velocity=95 time=0
EXTRACT: note_on channel=4 note=71 velocity=95 time=0
EXTRACT: note_off channel=6 note=64 velocity=95 time=0
EXTRACT: note_on channel=6 note=71 velocity=95 time=0
EXTRACT: note_off channel=1 note=62 velocity=95 time=0.2654865
EXTRACT: note_on channel=1 note=59 velocity=95 time=0
EXTRACT: note_off channel=0 note=50 velocity=95 time=0
EXTRACT: note_on channel=0 note=50 velocity=95 time=0
EXTRACT: note_off channel=9 note=36 velocity=95 time=0
EXTRACT: note_off channel=9 note=42 velocity=95 time=0
EXTRACT: note_on channel=9 note=42 velocity=95 time=0
EXTRACT: note_on channel=9 note=38 velocity=95 time=0
EXTRACT: note_off channel=2 note=62 velocity=127 time=0
EXTRACT: note_off channel=2 note=59 velocity=127 time=0
EXTRACT: note_off channel=2 note=55 velocity=95 time=0
EXTRACT: note_on channel=2 note=62 velocity=127 time=0
EXTRACT: note_on channel=2 note=59 velocity=127 time=0
EXTRACT: note_on channel=2 note=55 velocity=95 time=0
EXTRACT: note_off channel=4 note=50 velocity=95 time=0
EXTRACT: note_on channel=4 note=50 velocity=95 time=0
EXTRACT: note_off channel=6 note=62 velocity=95 time=0
EXTRACT: note_on channel=6 note=62 velocity=95 time=0
EXTRACT: note_off channel=11 note=62 velocity=95 time=0
EXTRACT: note_on channel=11 note=59 velocity=95 time=0
EXTRACT: note_off channel=1 note=59 velocity=95 time=0.2654865
EXTRACT: note_on channel=1 note=62 velocity=95 time=0
EXTRACT: note_off channel=0 note=50 velocity=95 time=0
EXTRACT: note_on channel=0 note=50 velocity=95 time=0
EXTRACT: note_off channel=9 note=42 velocity=95 time=0
EXTRACT: note_on channel=9 note=42 velocity=95 time=0
EXTRACT: note_off channel=2 note=62 velocity=127 time=0
EXTRACT: note_off channel=2 note=59 velocity=127 time=0
EXTRACT: note_off channel=2 note=55 velocity=95 time=0
EXTRACT: note_on channel=2 note=62 velocity=127 time=0
EXTRACT: note_on channel=2 note=59 velocity=127 time=0
EXTRACT: note_on channel=2 note=55 velocity=95 time=0
EXTRACT: note_off channel=4 note=71 velocity=95 time=0
EXTRACT: note_on channel=4 note=67 velocity=95 time=0
EXTRACT: note_on channel=6 note=67 velocity=95 time=0
EXTRACT: note_off channel=11 note=59 velocity=95 time=0
EXTRACT: note_on channel=11 note=62 velocity=95 time=0
EXTRACT: note_off channel=0 note=50 velocity=95 time=0.13274325
EXTRACT: note_on channel=0 note=50 velocity=95 time=0
EXTRACT: note_off channel=0 note=50 velocity=95 time=0.13274325
EXTRACT: note_on channel=0 note=50 velocity=95 time=0
EXTRACT: note_off channel=9 note=38 velocity=95 time=0
EXTRACT: note_off channel=9 note=42 velocity=95 time=0
EXTRACT: note_on channel=9 note=42 velocity=95 time=0
EXTRACT: note_off channel=2 note=62 velocity=127 time=0
EXTRACT: note_off channel=2 note=59 velocity=127 time=0
EXTRACT: note_off channel=2 note=55 velocity=95 time=0
EXTRACT: note_on channel=2 note=62 velocity=127 time=0
EXTRACT: note_on channel=2 note=59 velocity=127 time=0
EXTRACT: note_on channel=2 note=55 velocity=95 time=0
EXTRACT: note_off channel=6 note=62 velocity=95 time=0
EXTRACT: note_on channel=6 note=62 velocity=95 time=0
EXTRACT: note_off channel=1 note=62 velocity=95 time=0.2654865
EXTRACT: note_on channel=1 note=62 velocity=95 time=0
EXTRACT: note_off channel=0 note=50 velocity=95 time=0
EXTRACT: note_on channel=0 note=45 velocity=95 time=0
EXTRACT: note_off channel=9 note=42 velocity=95 time=0
EXTRACT: note_on channel=9 note=42 velocity=95 time=0
EXTRACT: note_on channel=9 note=36 velocity=95 time=0
EXTRACT: note_off channel=2 note=62 velocity=127 time=0
EXTRACT: note_off channel=2 note=59 velocity=127 time=0
EXTRACT: note_off channel=2 note=55 velocity=95 time=0
EXTRACT: note_on channel=2 note=62 velocity=127 time=0
EXTRACT: note_on channel=2 note=59 velocity=127 time=0
EXTRACT: note_on channel=2 note=55 velocity=95 time=0
EXTRACT: note_off channel=4 note=50 velocity=95 time=0
EXTRACT: note_on channel=4 note=50 velocity=95 time=0
EXTRACT: note_off channel=6 note=62 velocity=95 time=0
EXTRACT: note_on channel=6 note=62 velocity=95 time=0
EXTRACT: note_off channel=11 note=62 velocity=95 time=0
EXTRACT: note_on channel=11 note=62 velocity=95 time=0
EXTRACT: note_off channel=1 note=62 velocity=95 time=0.2654865
EXTRACT: note_on channel=1 note=62 velocity=95 time=0
EXTRACT: note_off channel=0 note=45 velocity=95 time=0
EXTRACT: note_off channel=9 note=42 velocity=95 time=0
EXTRACT: note_off channel=9 note=36 velocity=95 time=0
EXTRACT: note_on channel=9 note=42 velocity=95 time=0
EXTRACT: note_on channel=9 note=38 velocity=95 time=0
EXTRACT: note_off channel=2 note=62 velocity=127 time=0
EXTRACT: note_off channel=2 note=59 velocity=127 time=0
EXTRACT: note_off channel=2 note=55 velocity=95 time=0
EXTRACT: note_on channel=2 note=62 velocity=127 time=0
EXTRACT: note_on channel=2 note=59 velocity=127 time=0
EXTRACT: note_on channel=2 note=55 velocity=95 time=0
EXTRACT: note_off channel=4 note=67 velocity=95 time=0
EXTRACT: note_on channel=4 note=62 velocity=95 time=0
EXTRACT: note_off channel=6 note=62 velocity=95 time=0
EXTRACT: note_on channel=6 note=62 velocity=95 time=0
EXTRACT: note_off channel=11 note=62 velocity=95 time=0
EXTRACT: note_on channel=11 note=62 velocity=95 time=0
EXTRACT: note_off channel=1 note=62 velocity=95 time=0.2654865
EXTRACT: note_on channel=1 note=59 velocity=95 time=0
EXTRACT: note_off channel=9 note=42 velocity=95 time=0
EXTRACT: note_on channel=9 note=42 velocity=95 time=0
EXTRACT: note_off channel=2 note=62 velocity=127 time=0
EXTRACT: note_off channel=2 note=59 velocity=127 time=0
EXTRACT: note_off channel=2 note=55 velocity=95 time=0
EXTRACT: note_on channel=2 note=62 velocity=127 time=0
EXTRACT: note_on channel=2 note=59 velocity=127 time=0
EXTRACT: note_on channel=2 note=55 velocity=95 time=0
EXTRACT: note_off channel=4 note=50 velocity=95 time=0
EXTRACT: note_on channel=4 note=50 velocity=95 time=0
EXTRACT: note_off channel=6 note=62 velocity=95 time=0
EXTRACT: note_on channel=6 note=62 velocity=95 time=0
EXTRACT: note_off channel=11 note=62 velocity=95 time=0
EXTRACT: note_on channel=11 note=59 velocity=95 time=0
EXTRACT: note_off channel=1 note=59 velocity=95 time=0.2654865
EXTRACT: note_on channel=1 note=57 velocity=95 time=0
EXTRACT: note_on channel=0 note=50 velocity=95 time=0
EXTRACT: note_off channel=9 note=38 velocity=95 time=0
EXTRACT: note_off channel=9 note=42 velocity=95 time=0
EXTRACT: note_on channel=9 note=42 velocity=95 time=0
EXTRACT: note_on channel=9 note=36 velocity=95 time=0
EXTRACT: note_off channel=2 note=62 velocity=127 time=0
EXTRACT: note_off channel=2 note=59 velocity=127 time=0
EXTRACT: note_off channel=2 note=55 velocity=95 time=0
EXTRACT: note_on channel=2 note=64 velocity=127 time=0
EXTRACT: note_on channel=2 note=61 velocity=127 time=0
EXTRACT: note_on channel=2 note=57 velocity=95 time=0
EXTRACT: note_on channel=2 note=50 velocity=95 time=0
EXTRACT: note_off channel=4 note=62 velocity=95 time=0
EXTRACT: note_on channel=4 note=61 velocity=95 time=0
EXTRACT: note_off channel=6 note=71 velocity=95 time=0
EXTRACT: note_off channel=6 note=67 velocity=95 time=0
EXTRACT: note_off channel=6 note=62 velocity=95 time=0
EXTRACT: note_on channel=6 note=61 velocity=95 time=0
EXTRACT: note_off channel=11 note=59 velocity=95 time=0
EXTRACT: note_on channel=11 note=57 velocity=95 time=0
EXTRACT: note_off channel=0 note=50 velocity=95 time=0.2654865
EXTRACT: note_on channel=0 note=50 velocity=95 time=0
EXTRACT: note_off channel=9 note=42 velocity=95 time=0
EXTRACT: note_on channel=9 note=42 velocity=95 time=0
EXTRACT: note_off channel=2 note=64 velocity=127 time=0
EXTRACT: note_off channel=2 note=61 velocity=127 time=0
EXTRACT: note_off channel=2 note=57 velocity=95 time=0
EXTRACT: note_off channel=2 note=50 velocity=95 time=0
EXTRACT: note_on channel=2 note=64 velocity=127 time=0
EXTRACT: note_on channel=2 note=61 velocity=127 time=0
EXTRACT: note_on channel=2 note=57 velocity=95 time=0
EXTRACT: note_on channel=2 note=50 velocity=95 time=0
EXTRACT: note_off channel=4 note=61 velocity=95 time=0
EXTRACT: note_on channel=4 note=69 velocity=95 time=0
EXTRACT: note_on channel=6 note=69 velocity=95 time=0
EXTRACT: note_off channel=1 note=57 velocity=95 time=0.2654865
EXTRACT: note_off channel=0 note=50 velocity=95 time=0
EXTRACT: note_on channel=0 note=50 velocity=95 time=0
EXTRACT: note_off channel=9 note=36 velocity=95 time=0
EXTRACT: note_off channel=9 note=42 velocity=95 time=0
EXTRACT: note_on channel=9 note=42 velocity=95 time=0
EXTRACT: note_on channel=9 note=38 velocity=95 time=0
EXTRACT: note_off channel=2 note=64 velocity=127 time=0
EXTRACT: note_off channel=2 note=61 velocity=127 time=0
EXTRACT: note_off channel=2 note=57 velocity=95 time=0
EXTRACT: note_off channel=2 note=50 velocity=95 time=0
EXTRACT: note_on channel=2 note=64 velocity=127 time=0
EXTRACT: note_on channel=2 note=61 velocity=127 time=0
EXTRACT: note_on channel=2 note=57 velocity=95 time=0
EXTRACT: note_on channel=2 note=50 velocity=95 time=0
EXTRACT: note_off channel=6 note=61 velocity=95 time=0
EXTRACT: note_on channel=6 note=61 velocity=95 time=0
EXTRACT: note_off channel=11 note=57 velocity=95 time=0
EXTRACT: note_off channel=0 note=50 velocity=95 time=0.2654865
EXTRACT: note_on channel=0 note=50 velocity=95 time=0
EXTRACT: note_off channel=9 note=42 velocity=95 time=0
EXTRACT: note_on channel=9 note=42 velocity=95 time=0
EXTRACT: note_off channel=2 note=64 velocity=127 time=0
EXTRACT: note_off channel=2 note=61 velocity=127 time=0
EXTRACT: note_off channel=2 note=57 velocity=95 time=0
EXTRACT: note_off channel=2 note=50 velocity=95 time=0
EXTRACT: note_on channel=2 note=64 velocity=127 time=0
EXTRACT: note_on channel=2 note=61 velocity=127 time=0
EXTRACT: note_on channel=2 note=57 velocity=95 time=0
EXTRACT: note_on channel=2 note=50 velocity=95 time=0
EXTRACT: note_off channel=4 note=69 velocity=95 time=0
EXTRACT: note_on channel=4 note=64 velocity=95 time=0
EXTRACT: note_off channel=6 note=69 velocity=95 time=0
EXTRACT: note_on channel=6 note=64 velocity=95 time=0
EXTRACT: note_off channel=0 note=50 velocity=95 time=0.13274325
EXTRACT: note_on channel=0 note=50 velocity=95 time=0
EXTRACT: note_off channel=0 note=50 velocity=95 time=0.13274325
EXTRACT: note_on channel=0 note=50 velocity=95 time=0
EXTRACT: note_off channel=9 note=38 velocity=95 time=0
EXTRACT: note_off channel=9 note=42 velocity=95 time=0
EXTRACT: note_on channel=9 note=42 velocity=95 time=0
EXTRACT: note_off channel=2 note=64 velocity=127 time=0
EXTRACT: note_off channel=2 note=61 velocity=127 time=0
EXTRACT: note_off channel=2 note=57 velocity=95 time=0
EXTRACT: note_off channel=2 note=50 velocity=95 time=0
EXTRACT: note_on channel=2 note=64 velocity=127 time=0
EXTRACT: note_on channel=2 note=61 velocity=127 time=0
EXTRACT: note_on channel=2 note=57 velocity=95 time=0
EXTRACT: note_on channel=2 note=50 velocity=95 time=0
EXTRACT: note_off channel=4 note=64 velocity=95 time=0
EXTRACT: note_on channel=4 note=62 velocity=95 time=0
EXTRACT: note_off channel=6 note=61 velocity=95 time=0
EXTRACT: note_on channel=6 note=62 velocity=95 time=0
EXTRACT: note_off channel=0 note=50 velocity=95 time=0.2654865
EXTRACT: note_on channel=0 note=45 velocity=95 time=0
EXTRACT: note_off channel=9 note=42 velocity=95 time=0
EXTRACT: note_on channel=9 note=42 velocity=95 time=0
EXTRACT: note_on channel=9 note=36 velocity=95 time=0
EXTRACT: note_off channel=2 note=64 velocity=127 time=0
EXTRACT: note_off channel=2 note=61 velocity=127 time=0
EXTRACT: note_off channel=2 note=57 velocity=95 time=0
EXTRACT: note_off channel=2 note=50 velocity=95 time=0
EXTRACT: note_on channel=2 note=64 velocity=127 time=0
EXTRACT: note_on channel=2 note=61 velocity=127 time=0
EXTRACT: note_on channel=2 note=57 velocity=95 time=0
EXTRACT: note_on channel=2 note=50 velocity=95 time=0
EXTRACT: note_off channel=4 note=62 velocity=95 time=0
EXTRACT: note_on channel=4 note=61 velocity=95 time=0
EXTRACT: note_off channel=6 note=62 velocity=95 time=0
EXTRACT: note_on channel=6 note=61 velocity=95 time=0
EXTRACT: note_on channel=1 note=55 velocity=95 time=0.2654865
EXTRACT: note_off channel=0 note=45 velocity=95 time=0
EXTRACT: note_off channel=9 note=42 velocity=95 time=0
EXTRACT: note_off channel=9 note=36 velocity=95 time=0
EXTRACT: note_on channel=9 note=42 velocity=95 time=0
EXTRACT: note_on channel=9 note=38 velocity=95 time=0
EXTRACT: note_off channel=2 note=64 velocity=127 time=0
EXTRACT: note_off channel=2 note=61 velocity=127 time=0
EXTRACT: note_off channel=2 note=57 velocity=95 time=0
EXTRACT: note_off channel=2 note=50 velocity=95 time=0
EXTRACT: note_on channel=2 note=64 velocity=127 time=0
EXTRACT: note_on channel=2 note=61 velocity=127 time=0
EXTRACT: note_on channel=2 note=57 velocity=95 time=0
EXTRACT: note_on channel=2 note=50 velocity=95 time=0
EXTRACT: note_off channel=4 note=61 velocity=95 time=0
EXTRACT: note_on channel=4 note=59 velocity=95 time=0
EXTRACT: note_off channel=6 note=64 velocity=95 time=0
EXTRACT: note_off channel=6 note=61 velocity=95 time=0
EXTRACT: note_on channel=6 note=59 velocity=95 time=0
EXTRACT: note_on channel=8 note=79 velocity=127 time=0
EXTRACT: note_on channel=8 note=74 velocity=127 time=0
EXTRACT: note_on channel=11 note=67 velocity=95 time=0
EXTRACT: note_off channel=1 note=55 velocity=95 time=0.2654865
EXTRACT: note_on channel=1 note=55 velocity=95 time=0
EXTRACT: note_off channel=9 note=42 velocity=95 time=0
EXTRACT: note_off channel=9 note=38 velocity=95 time=0
EXTRACT: note_on channel=9 note=42 velocity=95 time=0
EXTRACT: note_on channel=9 note=36 velocity=95 time=0
EXTRACT: note_off channel=2 note=64 velocity=127 time=0
EXTRACT: note_off channel=2 note=61 velocity=127 time=0
EXTRACT: note_off channel=2 note=57 velocity=95 time=0
EXTRACT: note_off channel=2 note=50 velocity=95 time=0
EXTRACT: note_on channel=2 note=64 velocity=127 time=0
EXTRACT: note_on channel=2 note=61 velocity=127 time=0
EXTRACT: note_on channel=2 note=57 velocity=95 time=0
EXTRACT: note_on channel=2 note=50 velocity=95 time=0
EXTRACT: note_off channel=4 note=59 velocity=95 time=0
EXTRACT: note_on channel=4 note=61 velocity=95 time=0
EXTRACT: note_on channel=6 note=69 velocity=95 time=0
EXTRACT: note_off channel=11 note=67 velocity=95 time=0
EXTRACT: note_on channel=11 note=67 velocity=95 time=0
EXTRACT: note_off channel=1 note=55 velocity=95 time=0.2654865
EXTRACT: note_on channel=1 note=55 velocity=95 time=0
EXTRACT: note_on channel=0 note=38 velocity=95 time=0
EXTRACT: note_off channel=9 note=42 velocity=95 time=0
EXTRACT: note_off channel=9 note=36 velocity=95 time=0
EXTRACT: note_on channel=9 note=42 velocity=95 time=0
EXTRACT: note_on channel=9 note=36 velocity=95 time=0
EXTRACT: note_off channel=2 note=64 velocity=127 time=0
EXTRACT: note_off channel=2 note=61 velocity=127 time=0
EXTRACT: note_off channel=2 note=57 velocity=95 time=0
EXTRACT: note_off channel=2 note=50 velocity=95 time=0
EXTRACT: note_on channel=2 note=66 velocity=127 time=0
EXTRACT: note_on channel=2 note=62 velocity=127 time=0
EXTRACT: note_on channel=2 note=57 velocity=95 time=0
EXTRACT: note_on channel=2 note=50 velocity=95 time=0
EXTRACT: note_off channel=4 note=50 velocity=95 time=0
EXTRACT: note_off channel=4 note=61 velocity=95 time=0
EXTRACT: note_on channel=4 note=62 velocity=95 time=0
EXTRACT: note_on channel=4 note=50 velocity=95 time=0
EXTRACT: note_off channel=6 note=59 velocity=95 time=0
EXTRACT: note_on channel=6 note=62 velocity=95 time=0
EXTRACT: note_off channel=8 note=79 velocity=127 time=0
EXTRACT: note_off channel=8 note=74 velocity=127 time=0
EXTRACT: note_on channel=8 note=81 velocity=127 time=0
EXTRACT: note_on channel=8 note=74 velocity=127 time=0
EXTRACT: note_off channel=11 note=67 velocity=95 time=0
EXTRACT: note_on channel=11 note=67 velocity=95 time=0
EXTRACT: note_off channel=1 note=55 velocity=95 time=0.2654865
EXTRACT: note_on channel=1 note=54 velocity=95 time=0
EXTRACT: note_off channel=0 note=38 velocity=95 time=0
EXTRACT: note_on channel=0 note=38 velocity=95 time=0
EXTRACT: note_off channel=9 note=42 velocity=95 time=0
EXTRACT: note_on channel=9 note=42 velocity=95 time=0
EXTRACT: note_off channel=2 note=66 velocity=127 time=0
EXTRACT: note_off channel=2 note=62 velocity=127 time=0
EXTRACT: note_off channel=2 note=57 velocity=95 time=0
EXTRACT: note_off channel=2 note=50 velocity=95 time=0
EXTRACT: note_on channel=2 note=66 velocity=127 time=0
EXTRACT: note_on channel=2 note=62 velocity=127 time=0
EXTRACT: note_on channel=2 note=57 velocity=95 time=0
EXTRACT: note_on channel=2 note=50 velocity=95 time=0
EXTRACT: note_off channel=6 note=62 velocity=95 time=0
EXTRACT: note_on channel=6 note=62 velocity=95 time=0
EXTRACT: note_off channel=11 note=67 velocity=95 time=0
EXTRACT: note_on channel=11 note=66 velocity=95 time=0
EXTRACT: note_off channel=1 note=54 velocity=95 time=0.2654865
EXTRACT: note_off channel=0 note=38 velocity=95 time=0
EXTRACT: note_on channel=0 note=38 velocity=95 time=0
EXTRACT: note_off channel=9 note=36 velocity=95 time=0
EXTRACT: note_off channel=9 note=42 velocity=95 time=0
EXTRACT: note_on channel=9 note=42 velocity=95 time=0
EXTRACT: note_on channel=9 note=38 velocity=95 time=0
EXTRACT: note_off channel=2 note=66 velocity=127 time=0
EXTRACT: note_off channel=2 note=62 velocity=127 time=0
EXTRACT: note_off channel=2 note=57 velocity=95 time=0
EXTRACT: note_off channel=2 note=50 velocity=95 time=0
EXTRACT: note_on channel=2 note=66 velocity=127 time=0
EXTRACT: note_on channel=2 note=62 velocity=127 time=0
EXTRACT: note_on channel=2 note=57 velocity=95 time=0
EXTRACT: note_on channel=2 note=50 velocity=95 time=0
EXTRACT: note_off channel=4 note=62 velocity=95 time=0
EXTRACT: note_off channel=4 note=50 velocity=95 time=0
EXTRACT: note_on channel=4 note=62 velocity=95 time=0
EXTRACT: note_off channel=6 note=62 velocity=95 time=0
EXTRACT: note_on channel=6 note=66 velocity=95 time=0
EXTRACT: note_off channel=11 note=66 velocity=95 time=0
EXTRACT: note_off channel=0 note=38 velocity=95 time=0.2654865
EXTRACT: note_on channel=0 note=38 velocity=95 time=0
EXTRACT: note_off channel=9 note=42 velocity=95 time=0
EXTRACT: note_on channel=9 note=42 velocity=95 time=0
EXTRACT: note_off channel=2 note=66 velocity=127 time=0
EXTRACT: note_off channel=2 note=62 velocity=127 time=0
EXTRACT: note_off channel=2 note=57 velocity=95 time=0
EXTRACT: note_off channel=2 note=50 velocity=95 time=0
EXTRACT: note_on channel=2 note=66 velocity=127 time=0
EXTRACT: note_on channel=2 note=62 velocity=127 time=0
EXTRACT: note_on channel=2 note=57 velocity=95 time=0
EXTRACT: note_on channel=2 note=50 velocity=95 time=0
EXTRACT: note_on channel=4 note=69 velocity=95 time=0
EXTRACT: note_on channel=4 note=66 velocity=95 time=0
EXTRACT: note_off channel=6 note=69 velocity=95 time=0
EXTRACT: note_on channel=6 note=69 velocity=95 time=0
EXTRACT: note_off channel=0 note=38 velocity=95 time=0.13274325
EXTRACT: note_on channel=0 note=38 velocity=95 time=0
EXTRACT: note_off channel=0 note=38 velocity=95 time=0.13274325
EXTRACT: note_on channel=0 note=38 velocity=95 time=0
EXTRACT: note_off channel=9 note=38 velocity=95 time=0
EXTRACT: note_off channel=9 note=42 velocity=95 time=0
EXTRACT: note_on channel=9 note=42 velocity=95 time=0
EXTRACT: note_off channel=2 note=66 velocity=127 time=0
EXTRACT: note_off channel=2 note=62 velocity=127 time=0
EXTRACT: note_off channel=2 note=57 velocity=95 time=0
EXTRACT: note_off channel=2 note=50 velocity=95 time=0
EXTRACT: note_on channel=2 note=66 velocity=127 time=0
EXTRACT: note_on channel=2 note=62 velocity=127 time=0
EXTRACT: note_on channel=2 note=57 velocity=95 time=0
EXTRACT: note_on channel=2 note=50 velocity=95 time=0
EXTRACT: note_off channel=0 note=38 velocity=95 time=0.2654865
EXTRACT: note_on channel=0 note=33 velocity=95 time=0
EXTRACT: note_off channel=9 note=42 velocity=95 time=0
EXTRACT: note_on channel=9 note=42 velocity=95 time=0
EXTRACT: note_on channel=9 note=36 velocity=95 time=0
EXTRACT: note_off channel=2 note=66 velocity=127 time=0
EXTRACT: note_off channel=2 note=62 velocity=127 time=0
EXTRACT: note_off channel=2 note=57 velocity=95 time=0
EXTRACT: note_off channel=2 note=50 velocity=95 time=0
EXTRACT: note_on channel=2 note=66 velocity=127 time=0
EXTRACT: note_on channel=2 note=62 velocity=127 time=0
EXTRACT: note_on channel=2 note=57 velocity=95 time=0
EXTRACT: note_on channel=2 note=50 velocity=95 time=0
EXTRACT: note_on channel=4 note=50 velocity=95 time=0
EXTRACT: note_off channel=6 note=66 velocity=95 time=0
EXTRACT: note_on channel=6 note=50 velocity=95 time=0
EXTRACT: note_on channel=11 note=66 velocity=95 time=0
EXTRACT: note_off channel=0 note=33 velocity=95 time=0.2654865
EXTRACT: note_off channel=9 note=42 velocity=95 time=0
EXTRACT: note_off channel=9 note=36 velocity=95 time=0
EXTRACT: note_on channel=9 note=42 velocity=95 time=0
EXTRACT: note_on channel=9 note=38 velocity=95 time=0
EXTRACT: note_off channel=2 note=66 velocity=127 time=0
EXTRACT: note_off channel=2 note=62 velocity=127 time=0
EXTRACT: note_off channel=2 note=57 velocity=95 time=0
EXTRACT: note_off channel=2 note=50 velocity=95 time=0
EXTRACT: note_on channel=2 note=66 velocity=127 time=0
EXTRACT: note_on channel=2 note=62 velocity=127 time=0
EXTRACT: note_on channel=2 note=57 velocity=95 time=0
EXTRACT: note_on channel=2 note=50 velocity=95 time=0
EXTRACT: note_off channel=4 note=69 velocity=95 time=0
EXTRACT: note_off channel=4 note=66 velocity=95 time=0
EXTRACT: note_on channel=4 note=66 velocity=95 time=0
EXTRACT: note_off channel=6 note=69 velocity=95 time=0
EXTRACT: note_on channel=6 note=71 velocity=95 time=0
EXTRACT: note_off channel=11 note=66 velocity=95 time=0
EXTRACT: note_on channel=11 note=66 velocity=95 time=0
EXTRACT: note_off channel=9 note=42 velocity=95 time=0.2654865
EXTRACT: note_on channel=9 note=42 velocity=95 time=0
EXTRACT: note_off channel=2 note=66 velocity=127 time=0
EXTRACT: note_off channel=2 note=62 velocity=127 time=0
EXTRACT: note_off channel=2 note=57 velocity=95 time=0
EXTRACT: note_off channel=2 note=50 velocity=95 time=0
EXTRACT: note_on channel=2 note=66 velocity=127 time=0
EXTRACT: note_on channel=2 note=62 velocity=127 time=0
EXTRACT: note_on channel=2 note=57 velocity=95 time=0
EXTRACT: note_on channel=2 note=50 velocity=95 time=0
EXTRACT: note_off channel=4 note=50 velocity=95 time=0
EXTRACT: note_on channel=4 note=50 velocity=95 time=0
EXTRACT: note_off channel=6 note=50 velocity=95 time=0
EXTRACT: note_on channel=6 note=62 velocity=95 time=0
EXTRACT: note_off channel=11 note=66 velocity=95 time=0
EXTRACT: note_on channel=11 note=66 velocity=95 time=0
EXTRACT: note_on channel=0 note=37 velocity=95 time=0.2654865
EXTRACT: note_off channel=9 note=38 velocity=95 time=0
EXTRACT: note_off channel=9 note=42 velocity=95 time=0
EXTRACT: note_on channel=9 note=42 velocity=95 time=0
EXTRACT: note_on channel=9 note=36 velocity=95 time=0
EXTRACT: note_off channel=2 note=66 velocity=127 time=0
EXTRACT: note_off channel=2 note=62 velocity=127 time=0
EXTRACT: note_off channel=2 note=57 velocity=95 time=0
EXTRACT: note_off channel=2 note=50 velocity=95 time=0
EXTRACT: note_on channel=2 note=64 velocity=127 time=0
EXTRACT: note_on channel=2 note=61 velocity=127 time=0
EXTRACT: note_on channel=2 note=57 velocity=95 time=0
EXTRACT: note_on channel=2 note=50 velocity=95 time=0
EXTRACT: note_off channel=4 note=66 velocity=95 time=0
EXTRACT: note_on channel=4 note=64 velocity=95 time=0
EXTRACT: note_off channel=6 note=71 velocity=95 time=0
EXTRACT: note_on channel=6 note=69 velocity=95 time=0
EXTRACT: note_off channel=8 note=81 velocity=127 time=0
EXTRACT: note_off channel=8 note=74 velocity=127 time=0
EXTRACT: note_off channel=11 note=66 velocity=95 time=0
EXTRACT: note_on channel=11 note=66 velocity=95 time=0
EXTRACT: note_off channel=0 note=37 velocity=95 time=0.2654865
EXTRACT: note_on channel=0 note=37 velocity=95 time=0
EXTRACT: note_off channel=9 note=42 velocity=95 time=0
EXTRACT: note_on channel=9 note=42 velocity=95 time=0
EXTRACT: note_off channel=2 note=64 velocity=127 time=0
EXTRACT: note_off channel=2 note=61 velocity=127 time=0
EXTRACT: note_off channel=2 note=57 velocity=95 time=0
EXTRACT: note_off channel=2 note=50 velocity=95 time=0
EXTRACT: note_on channel=2 note=64 velocity=127 time=0
EXTRACT: note_on channel=2 note=61 velocity=127 time=0
EXTRACT: note_on channel=2 note=57 velocity=95 time=0
EXTRACT: note_on channel=2 note=50 velocity=95 time=0
EXTRACT: note_off channel=4 note=64 velocity=95 time=0
EXTRACT: note_on channel=4 note=73 velocity=95 time=0
EXTRACT: note_off channel=6 note=62 velocity=95 time=0
EXTRACT: note_on channel=6 note=64 velocity=95 time=0
EXTRACT: note_off channel=0 note=37 velocity=95 time=0.2654865
EXTRACT: note_on channel=0 note=37 velocity=95 time=0
EXTRACT: note_off channel=9 note=36 velocity=95 time=0
EXTRACT: note_off channel=9 note=42 velocity=95 time=0
EXTRACT: note_on channel=9 note=42 velocity=95 time=0
EXTRACT: note_on channel=9 note=38 velocity=95 time=0
EXTRACT: note_off channel=2 note=64 velocity=127 time=0
EXTRACT: note_off channel=2 note=61 velocity=127 time=0
EXTRACT: note_off channel=2 note=57 velocity=95 time=0
EXTRACT: note_off channel=2 note=50 velocity=95 time=0
EXTRACT: note_on channel=2 note=64 velocity=127 time=0
EXTRACT: note_on channel=2 note=61 velocity=127 time=0
EXTRACT: note_on channel=2 note=57 velocity=95 time=0
EXTRACT: note_on channel=2 note=50 velocity=95 time=0
EXTRACT: note_off channel=4 note=62 velocity=95 time=0
EXTRACT: note_off channel=4 note=50 velocity=95 time=0
EXTRACT: note_on channel=4 note=62 velocity=95 time=0
EXTRACT: note_off channel=6 note=69 velocity=95 time=0
EXTRACT: note_on channel=6 note=73 velocity=95 time=0
EXTRACT: note_off channel=11 note=66 velocity=95 time=0
EXTRACT: note_on channel=11 note=64 velocity=95 time=0
EXTRACT: note_off channel=0 note=37 velocity=95 time=0.2654865
EXTRACT: note_on channel=0 note=37 velocity=95 time=0
EXTRACT: note_off channel=9 note=42 velocity=95 time=0
EXTRACT: note_on channel=9 note=42 velocity=95 time=0
EXTRACT: note_off channel=2 note=64 velocity=127 time=0
EXTRACT: note_off channel=2 note=61 velocity=127 time=0
EXTRACT: note_off channel=2 note=57 velocity=95 time=0
EXTRACT: note_off channel=2 note=50 velocity=95 time=0
EXTRACT: note_on channel=2 note=64 velocity=127 time=0
EXTRACT: note_on channel=2 note=61 velocity=127 time=0
EXTRACT: note_on channel=2 note=57 velocity=95 time=0
EXTRACT: note_on channel=2 note=50 velocity=95 time=0
EXTRACT: note_off channel=4 note=73 velocity=95 time=0
EXTRACT: note_on channel=4 note=69 velocity=95 time=0
EXTRACT: note_off channel=6 note=73 velocity=95 time=0
EXTRACT: note_on channel=6 note=71 velocity=95 time=0
EXTRACT: note_off channel=11 note=64 velocity=95 time=0
EXTRACT: note_on channel=11 note=66 velocity=95 time=0
EXTRACT: note_off channel=0 note=37 velocity=95 time=0.13274325
EXTRACT: note_on channel=0 note=37 velocity=95 time=0
EXTRACT: note_off channel=0 note=37 velocity=95 time=0.13274325
EXTRACT: note_on channel=0 note=37 velocity=95 time=0
EXTRACT: note_off channel=9 note=38 velocity=95 time=0
EXTRACT: note_off channel=9 note=42 velocity=95 time=0
EXTRACT: note_on channel=9 note=42 velocity=95 time=0
EXTRACT: note_off channel=2 note=64 velocity=127 time=0
EXTRACT: note_off channel=2 note=61 velocity=127 time=0
EXTRACT: note_off channel=2 note=57 velocity=95 time=0
EXTRACT: note_off channel=2 note=50 velocity=95 time=0
EXTRACT: note_on channel=2 note=64 velocity=127 time=0
EXTRACT: note_on channel=2 note=61 velocity=127 time=0
EXTRACT: note_on channel=2 note=57 velocity=95 time=0
EXTRACT: note_on channel=2 note=50 velocity=95 time=0
EXTRACT: note_off channel=6 note=64 velocity=95 time=0
EXTRACT: note_on channel=6 note=69 velocity=95 time=0
EXTRACT: note_off channel=11 note=66 velocity=95 time=0
EXTRACT: note_off channel=0 note=37 velocity=95 time=0.2654865
EXTRACT: note_on channel=0 note=33 velocity=95 time=0
EXTRACT: note_off channel=9 note=42 velocity=95 time=0
EXTRACT: note_on channel=9 note=42 velocity=95 time=0
EXTRACT: note_on channel=9 note=36 velocity=95 time=0
EXTRACT: note_off channel=2 note=64 velocity=127 time=0
EXTRACT: note_off channel=2 note=61 velocity=127 time=0
EXTRACT: note_off channel=2 note=57 velocity=95 time=0
EXTRACT: note_off channel=2 note=50 velocity=95 time=0
EXTRACT: note_on channel=2 note=64 velocity=127 time=0
EXTRACT: note_on channel=2 note=61 velocity=127 time=0
EXTRACT: note_on channel=2 note=57 velocity=95 time=0
EXTRACT: note_on channel=2 note=50 velocity=95 time=0
EXTRACT: note_off channel=4 note=62 velocity=95 time=0
EXTRACT: note_on channel=4 note=62 velocity=95 time=0
EXTRACT: note_on channel=4 note=50 velocity=95 time=0
EXTRACT: note_off channel=6 note=69 velocity=95 time=0
EXTRACT: note_on channel=6 note=62 velocity=95 time=0
EXTRACT: note_off channel=0 note=33 velocity=95 time=0.2654865
EXTRACT: note_off channel=9 note=42 velocity=95 time=0
EXTRACT: note_off channel=9 note=36 velocity=95 time=0
EXTRACT: note_on channel=9 note=42 velocity=95 time=0
EXTRACT: note_on channel=9 note=38 velocity=95 time=0
EXTRACT: note_off channel=2 note=64 velocity=127 time=0
EXTRACT: note_off channel=2 note=61 velocity=127 time=0
EXTRACT: note_off channel=2 note=57 velocity=95 time=0
EXTRACT: note_off channel=2 note=50 velocity=95 time=0
EXTRACT: note_on channel=2 note=64 velocity=127 time=0
EXTRACT: note_on channel=2 note=61 velocity=127 time=0
EXTRACT: note_on channel=2 note=57 velocity=95 time=0
EXTRACT: note_on channel=2 note=50 velocity=95 time=0
EXTRACT: note_off channel=4 note=69 velocity=95 time=0
EXTRACT: note_on channel=4 note=64 velocity=95 time=0
EXTRACT: note_off channel=6 note=71 velocity=95 time=0
EXTRACT: note_on channel=6 note=73 velocity=95 time=0
EXTRACT: note_on channel=11 note=64 velocity=95 time=0
EXTRACT: note_off channel=9 note=42 velocity=95 time=0.2654865
EXTRACT: note_on channel=9 note=42 velocity=95 time=0
EXTRACT: note_off channel=2 note=64 velocity=127 time=0
EXTRACT: note_off channel=2 note=61 velocity=127 time=0
EXTRACT: note_off channel=2 note=57 velocity=95 time=0
EXTRACT: note_off channel=2 note=50 velocity=95 time=0
EXTRACT: note_on channel=2 note=64 velocity=127 time=0
EXTRACT: note_on channel=2 note=61 velocity=127 time=0
EXTRACT: note_on channel=2 note=57 velocity=95 time=0
EXTRACT: note_on channel=2 note=50 velocity=95 time=0
EXTRACT: note_off channel=4 note=62 velocity=95 time=0
EXTRACT: note_off channel=4 note=50 velocity=95 time=0
EXTRACT: note_on channel=4 note=50 velocity=95 time=0
EXTRACT: note_off channel=6 note=62 velocity=95 time=0
EXTRACT: note_on channel=6 note=62 velocity=95 time=0
EXTRACT: note_off channel=11 note=64 velocity=95 time=0
EXTRACT: note_on channel=11 note=64 velocity=95 time=0
EXTRACT: note_on channel=0 note=35 velocity=95 time=0.2654865
EXTRACT: note_off channel=9 note=38 velocity=95 time=0
EXTRACT: note_off channel=9 note=42 velocity=95 time=0
EXTRACT: note_on channel=9 note=42 velocity=95 time=0
EXTRACT: note_on channel=9 note=36 velocity=95 time=0
EXTRACT: note_off channel=2 note=64 velocity=127 time=0
EXTRACT: note_off channel=2 note=61 velocity=127 time=0
EXTRACT: note_off channel=2 note=57 velocity=95 time=0
EXTRACT: note_off channel=2 note=50 velocity=95 time=0
EXTRACT: note_on channel=2 note=62 velocity=127 time=0
EXTRACT: note_on channel=2 note=59 velocity=127 time=0
EXTRACT: note_on channel=2 note=55 velocity=95 time=0
EXTRACT: note_off channel=4 note=64 velocity=95 time=0
EXTRACT: note_off channel=4 note=50 velocity=95 time=0
EXTRACT: note_on channel=4 note=67 velocity=95 time=0
EXTRACT: note_off channel=6 note=73 velocity=95 time=0
EXTRACT: note_on channel=6 note=67 velocity=95 time=0
EXTRACT: note_off channel=11 note=64 velocity=95 time=0
EXTRACT: note_on channel=11 note=64 velocity=95 time=0
EXTRACT: note_off channel=0 note=35 velocity=95 time=0.2654865
EXTRACT: note_on channel=0 note=35 velocity=95 time=0
EXTRACT: note_off channel=9 note=42 velocity=95 time=0
EXTRACT: note_on channel=9 note=42 velocity=95 time=0
EXTRACT: note_off channel=2 note=62 velocity=127 time=0
EXTRACT: note_off channel=2 note=59 velocity=127 time=0
EXTRACT: note_off channel=2 note=55 velocity=95 time=0
EXTRACT: note_on channel=2 note=62 velocity=127 time=0
EXTRACT: note_on channel=2 note=59 velocity=127 time=0
EXTRACT: note_on channel=2 note=55 velocity=95 time=0
EXTRACT: note_on channel=4 note=62 velocity=95 time=0
EXTRACT: note_off channel=6 note=62 velocity=95 time=0
EXTRACT: note_on channel=6 note=62 velocity=95 time=0
EXTRACT: note_off channel=0 note=35 velocity=95 time=0.2654865
EXTRACT: note_on channel=0 note=35 velocity=95 time=0
EXTRACT: note_off channel=9 note=36 velocity=95 time=0
EXTRACT: note_off channel=9 note=42 velocity=95 time=0
EXTRACT: note_on channel=9 note=42 velocity=95 time=0
EXTRACT: note_on channel=9 note=38 velocity=95 time=0
EXTRACT: note_off channel=2 note=62 velocity=127 time=0
EXTRACT: note_off channel=2 note=59 velocity=127 time=0
EXTRACT: note_off channel=2 note=55 velocity=95 time=0
EXTRACT: note_on channel=2 note=62 velocity=127 time=0
EXTRACT: note_on channel=2 note=59 velocity=127 time=0
EXTRACT: note_on channel=2 note=55 velocity=95 time=0
EXTRACT: note_off channel=4 note=62 velocity=95 time=0
EXTRACT: note_on channel=4 note=59 velocity=95 time=0
EXTRACT: note_off channel=6 note=67 velocity=95 time=0
EXTRACT: note_on channel=6 note=71 velocity=95 time=0
EXTRACT: note_off channel=11 note=64 velocity=95 time=0
EXTRACT: note_on channel=11 note=62 velocity=95 time=0
EXTRACT: note_off channel=0 note=35 velocity=95 time=0.2654865
EXTRACT: note_on channel=0 note=35 velocity=95 time=0
EXTRACT: note_off channel=9 note=42 velocity=95 time=0
EXTRACT: note_on channel=9 note=42 velocity=95 time=0
EXTRACT: note_off channel=2 note=62 velocity=127 time=0
EXTRACT: note_off channel=2 note=59 velocity=127 time=0
EXTRACT: note_off channel=2 note=55 velocity=95 time=0
EXTRACT: note_on channel=2 note=62 velocity=127 time=0
EXTRACT: note_on channel=2 note=59 velocity=127 time=0
EXTRACT: note_on channel=2 note=55 velocity=95 time=0
EXTRACT: note_off channel=4 note=67 velocity=95 time=0
EXTRACT: note_on channel=4 note=66 velocity=95 time=0
EXTRACT: note_off channel=6 note=71 velocity=95 time=0
EXTRACT: note_on channel=6 note=66 velocity=95 time=0
EXTRACT: note_off channel=11 note=62 velocity=95 time=0
EXTRACT: note_on channel=11 note=64 velocity=95 time=0
EXTRACT: note_off channel=0 note=35 velocity=95 time=0.13274325
EXTRACT: note_on channel=0 note=35 velocity=95 time=0
EXTRACT: note_off channel=0 note=35 velocity=95 time=0.13274325
EXTRACT: note_on channel=0 note=35 velocity=95 time=0
EXTRACT: note_off channel=9 note=38 velocity=95 time=0
EXTRACT: note_off channel=9 note=42 velocity=95 time=0
EXTRACT: note_on channel=9 note=42 velocity=95 time=0
EXTRACT: note_off channel=2 note=62 velocity=127 time=0
EXTRACT: note_off channel=2 note=59 velocity=127 time=0
EXTRACT: note_off channel=2 note=55 velocity=95 time=0
EXTRACT: note_on channel=2 note=62 velocity=127 time=0
EXTRACT: note_on channel=2 note=59 velocity=127 time=0
EXTRACT: note_on channel=2 note=55 velocity=95 time=0
EXTRACT: note_off channel=4 note=59 velocity=95 time=0
EXTRACT: note_on channel=4 note=62 velocity=95 time=0
EXTRACT: note_off channel=6 note=66 velocity=95 time=0
EXTRACT: note_on channel=6 note=67 velocity=95 time=0
EXTRACT: note_off channel=0 note=35 velocity=95 time=0.2654865
EXTRACT: note_on channel=0 note=33 velocity=95 time=0
EXTRACT: note_off channel=9 note=42 velocity=95 time=0
EXTRACT: note_on channel=9 note=42 velocity=95 time=0
EXTRACT: note_on channel=9 note=36 velocity=95 time=0
EXTRACT: note_off channel=2 note=62 velocity=127 time=0
EXTRACT: note_off channel=2 note=59 velocity=127 time=0
EXTRACT: note_off channel=2 note=55 velocity=95 time=0
EXTRACT: note_on channel=2 note=62 velocity=127 time=0
EXTRACT: note_on channel=2 note=59 velocity=127 time=0
EXTRACT: note_on channel=2 note=55 velocity=95 time=0
EXTRACT: note_off channel=4 note=62 velocity=95 time=0
EXTRACT: note_on channel=4 note=59 velocity=95 time=0
EXTRACT: note_off channel=6 note=62 velocity=95 time=0
EXTRACT: note_on channel=6 note=62 velocity=95 time=0
EXTRACT: note_off channel=11 note=64 velocity=95 time=0
EXTRACT: note_off channel=0 note=33 velocity=95 time=0.2654865
EXTRACT: note_off channel=9 note=42 velocity=95 time=0
EXTRACT: note_off channel=9 note=36 velocity=95 time=0
EXTRACT: note_on channel=9 note=42 velocity=95 time=0
EXTRACT: note_on channel=9 note=38 velocity=95 time=0
EXTRACT: note_off channel=2 note=62 velocity=127 time=0
EXTRACT: note_off channel=2 note=59 velocity=127 time=0
EXTRACT: note_off channel=2 note=55 velocity=95 time=0
EXTRACT: note_on channel=2 note=62 velocity=127 time=0
EXTRACT: note_on channel=2 note=59 velocity=127 time=0
EXTRACT: note_on channel=2 note=55 velocity=95 time=0
EXTRACT: note_off channel=4 note=66 velocity=95 time=0
EXTRACT: note_on channel=4 note=64 velocity=95 time=0
EXTRACT: note_off channel=6 note=67 velocity=95 time=0
EXTRACT: note_on channel=6 note=71 velocity=95 time=0
EXTRACT: note_on channel=1 note=55 velocity=95 time=0.2654865
EXTRACT: note_off channel=9 note=42 velocity=95 time=0
EXTRACT: note_on channel=9 note=42 velocity=95 time=0
EXTRACT: note_off channel=2 note=62 velocity=127 time=0
EXTRACT: note_off channel=2 note=59 velocity=127 time=0
EXTRACT: note_off channel=2 note=55 velocity=95 time=0
EXTRACT: note_on channel=2 note=62 velocity=127 time=0
EXTRACT: note_on channel=2 note=59 velocity=127 time=0
EXTRACT: note_on channel=2 note=55 velocity=95 time=0
EXTRACT: note_off channel=4 note=59 velocity=95 time=0
EXTRACT: note_on channel=4 note=59 velocity=95 time=0
EXTRACT: note_on channel=11 note=55 velocity=95 time=0
EXTRACT: note_off channel=1 note=55 velocity=95 time=0.2654865
EXTRACT: note_on channel=1 note=57 velocity=95 time=0
EXTRACT: note_on channel=0 note=33 velocity=95 time=0
EXTRACT: note_off channel=9 note=38 velocity=95 time=0
EXTRACT: note_off channel=9 note=42 velocity=95 time=0
EXTRACT: note_on channel=9 note=42 velocity=95 time=0
EXTRACT: note_on channel=9 note=36 velocity=95 time=0
EXTRACT: note_off channel=2 note=62 velocity=127 time=0
EXTRACT: note_off channel=2 note=59 velocity=127 time=0
EXTRACT: note_off channel=2 note=55 velocity=95 time=0
EXTRACT: note_on channel=2 note=64 velocity=127 time=0
EXTRACT: note_on channel=2 note=61 velocity=127 time=0
EXTRACT: note_on channel=2 note=57 velocity=95 time=0
EXTRACT: note_on channel=2 note=50 velocity=95 time=0
EXTRACT: note_off channel=4 note=64 velocity=95 time=0
EXTRACT: note_off channel=4 note=59 velocity=95 time=0
EXTRACT: note_on channel=4 note=61 velocity=95 time=0
EXTRACT: note_off channel=6 note=62 velocity=95 time=0
EXTRACT: note_off channel=6 note=71 velocity=95 time=0
EXTRACT: note_on channel=6 note=61 velocity=95 time=0
EXTRACT: note_off channel=11 note=55 velocity=95 time=0
EXTRACT: note_on channel=11 note=57 velocity=95 time=0
EXTRACT: note_off channel=1 note=57 velocity=95 time=0.2654865
EXTRACT: note_on channel=1 note=57 velocity=95 time=0
EXTRACT: note_off channel=0 note=33 velocity=95 time=0
EXTRACT: note_on channel=0 note=33 velocity=95 time=0
EXTRACT: note_off channel=9 note=42 velocity=95 time=0
EXTRACT: note_on channel=9 note=42 velocity=95 time=0
EXTRACT: note_off channel=2 note=64 velocity=127 time=0
EXTRACT: note_off channel=2 note=61 velocity=127 time=0
EXTRACT: note_off channel=2 note=57 velocity=95 time=0
EXTRACT: note_off channel=2 note=50 velocity=95 time=0
EXTRACT: note_on channel=2 note=64 velocity=127 time=0
EXTRACT: note_on channel=2 note=61 velocity=127 time=0
EXTRACT: note_on channel=2 note=57 velocity=95 time=0
EXTRACT: note_on channel=2 note=50 velocity=95 time=0
EXTRACT: note_on channel=4 note=52 velocity=95 time=0
EXTRACT: note_off channel=6 note=61 velocity=95 time=0
EXTRACT: note_on channel=6 note=61 velocity=95 time=0
EXTRACT: note_off channel=11 note=57 velocity=95 time=0
EXTRACT: note_on channel=11 note=57 velocity=95 time=0
EXTRACT: note_off channel=1 note=57 velocity=95 time=0.2654865
EXTRACT: note_on channel=1 note=57 velocity=95 time=0
EXTRACT: note_off channel=0 note=33 velocity=95 time=0
EXTRACT: note_on channel=0 note=33 velocity=95 time=0
EXTRACT: note_off channel=9 note=36 velocity=95 time=0
EXTRACT: note_off channel=9 note=42 velocity=95 time=0
EXTRACT: note_on channel=9 note=42 velocity=95 time=0
EXTRACT: note_on channel=9 note=38 velocity=95 time=0
EXTRACT: note_off channel=2 note=64 velocity=127 time=0
EXTRACT: note_off channel=2 note=61 velocity=127 time=0
EXTRACT: note_off channel=2 note=57 velocity=95 time=0
EXTRACT: note_off channel=2 note=50 velocity=95 time=0
EXTRACT: note_on channel=2 note=64 velocity=127 time=0
EXTRACT: note_on channel=2 note=61 velocity=127 time=0
EXTRACT: note_on channel=2 note=57 velocity=95 time=0
EXTRACT: note_on channel=2 note=50 velocity=95 time=0
EXTRACT: note_off channel=4 note=61 velocity=95 time=0
EXTRACT: note_on channel=4 note=61 velocity=95 time=0
EXTRACT: note_on channel=6 note=69 velocity=95 time=0
EXTRACT: note_off channel=11 note=57 velocity=95 time=0
EXTRACT: note_on channel=11 note=57 velocity=95 time=0
EXTRACT: note_off channel=1 note=57 velocity=95 time=0.2654865
EXTRACT: note_on channel=1 note=59 velocity=95 time=0
EXTRACT: note_off channel=0 note=33 velocity=95 time=0
EXTRACT: note_on channel=0 note=33 velocity=95 time=0
EXTRACT: note_off channel=9 note=42 velocity=95 time=0
EXTRACT: note_on channel=9 note=42 velocity=95 time=0
EXTRACT: note_off channel=2 note=64 velocity=127 time=0
EXTRACT: note_off channel=2 note=61 velocity=127 time=0
EXTRACT: note_off channel=2 note=57 velocity=95 time=0
EXTRACT: note_off channel=2 note=50 velocity=95 time=0
EXTRACT: note_on channel=2 note=64 velocity=127 time=0
EXTRACT: note_on channel=2 note=61 velocity=127 time=0
EXTRACT: note_on channel=2 note=57 velocity=95 time=0
EXTRACT: note_on channel=2 note=50 velocity=95 time=0
EXTRACT: note_off channel=4 note=61 velocity=95 time=0
EXTRACT: note_on channel=4 note=64 velocity=95 time=0
EXTRACT: note_off channel=6 note=61 velocity=95 time=0
EXTRACT: note_off channel=6 note=69 velocity=95 time=0
EXTRACT: note_on channel=6 note=64 velocity=95 time=0
EXTRACT: note_off channel=11 note=57 velocity=95 time=0
EXTRACT: note_on channel=11 note=59 velocity=95 time=0
EXTRACT: note_off channel=0 note=33 velocity=95 time=0.13274325
EXTRACT: note_on channel=0 note=33 velocity=95 time=0
EXTRACT: note_off channel=1 note=59 velocity=95 time=0.13274325
EXTRACT: note_off channel=0 note=33 velocity=95 time=0
EXTRACT: note_on channel=0 note=35 velocity=95 time=0
EXTRACT: note_off channel=9 note=38 velocity=95 time=0
EXTRACT: note_off channel=9 note=42 velocity=95 time=0
EXTRACT: note_on channel=9 note=42 velocity=95 time=0
EXTRACT: note_off channel=2 note=64 velocity=127 time=0
EXTRACT: note_off channel=2 note=61 velocity=127 time=0
EXTRACT: note_off channel=2 note=57 velocity=95 time=0
EXTRACT: note_off channel=2 note=50 velocity=95 time=0
EXTRACT: note_on channel=2 note=64 velocity=127 time=0
EXTRACT: note_on channel=2 note=61 velocity=127 time=0
EXTRACT: note_on channel=2 note=57 velocity=95 time=0
EXTRACT: note_on channel=2 note=50 velocity=95 time=0
EXTRACT: note_off channel=4 note=64 velocity=95 time=0
EXTRACT: note_on channel=4 note=62 velocity=95 time=0
EXTRACT: note_off channel=6 note=64 velocity=95 time=0
EXTRACT: note_on channel=6 note=62 velocity=95 time=0
EXTRACT: note_off channel=11 note=59 velocity=95 time=0
EXTRACT: note_off channel=0 note=35 velocity=95 time=0.2654865
EXTRACT: note_on channel=0 note=33 velocity=95 time=0
EXTRACT: note_off channel=9 note=42 velocity=95 time=0
EXTRACT: note_on channel=9 note=42 velocity=95 time=0
EXTRACT: note_on channel=9 note=36 velocity=95 time=0
EXTRACT: note_off channel=2 note=64 velocity=127 time=0
EXTRACT: note_off channel=2 note=61 velocity=127 time=0
EXTRACT: note_off channel=2 note=57 velocity=95 time=0
EXTRACT: note_off channel=2 note=50 velocity=95 time=0
EXTRACT: note_on channel=2 note=64 velocity=127 time=0
EXTRACT: note_on channel=2 note=61 velocity=127 time=0
EXTRACT: note_on channel=2 note=57 velocity=95 time=0
EXTRACT: note_on channel=2 note=50 velocity=95 time=0
EXTRACT: note_off channel=4 note=62 velocity=95 time=0
EXTRACT: note_on channel=4 note=61 velocity=95 time=0
EXTRACT: note_off channel=6 note=62 velocity=95 time=0
EXTRACT: note_on channel=6 note=61 velocity=95 time=0
EXTRACT: note_off channel=0 note=33 velocity=95 time=0.2654865
EXTRACT: note_on channel=0 note=37 velocity=95 time=0
EXTRACT: note_off channel=9 note=42 velocity=95 time=0
EXTRACT: note_off channel=9 note=36 velocity=95 time=0
EXTRACT: note_on channel=9 note=42 velocity=95 time=0
EXTRACT: note_on channel=9 note=38 velocity=95 time=0
EXTRACT: note_off channel=2 note=64 velocity=127 time=0
EXTRACT: note_off channel=2 note=61 velocity=127 time=0
EXTRACT: note_off channel=2 note=57 velocity=95 time=0
EXTRACT: note_off channel=2 note=50 velocity=95 time=0
EXTRACT: note_on channel=2 note=64 velocity=127 time=0
EXTRACT: note_on channel=2 note=61 velocity=127 time=0
EXTRACT: note_on channel=2 note=57 velocity=95 time=0
EXTRACT: note_on channel=2 note=50 velocity=95 time=0
EXTRACT: note_off channel=4 note=52 velocity=95 time=0
EXTRACT: note_off channel=4 note=61 velocity=95 time=0
EXTRACT: note_on channel=4 note=59 velocity=95 time=0
EXTRACT: note_off channel=6 note=61 velocity=95 time=0
EXTRACT: note_on channel=6 note=64 velocity=95 time=0
EXTRACT: note_on channel=6 note=59 velocity=95 time=0
EXTRACT: note_on channel=8 note=79 velocity=127 time=0
EXTRACT: note_on channel=8 note=74 velocity=127 time=0
EXTRACT: note_off channel=0 note=37 velocity=95 time=0.2654865
EXTRACT: note_on channel=0 note=33 velocity=95 time=0
EXTRACT: note_off channel=9 note=42 velocity=95 time=0
EXTRACT: note_off channel=9 note=38 velocity=95 time=0
EXTRACT: note_on channel=9 note=42 velocity=95 time=0
EXTRACT: note_on channel=9 note=36 velocity=95 time=0
EXTRACT: note_off channel=2 note=64 velocity=127 time=0
EXTRACT: note_off channel=2 note=61 velocity=127 time=0
EXTRACT: note_off channel=2 note=57 velocity=95 time=0
EXTRACT: note_off channel=2 note=50 velocity=95 time=0
EXTRACT: note_on channel=2 note=64 velocity=127 time=0
EXTRACT: note_on channel=2 note=61 velocity=127 time=0
EXTRACT: note_on channel=2 note=57 velocity=95 time=0
EXTRACT: note_on channel=2 note=50 velocity=95 time=0
EXTRACT: note_off channel=4 note=59 velocity=95 time=0
EXTRACT: note_on channel=4 note=57 velocity=95 time=0
EXTRACT: note_off channel=6 note=64 velocity=95 time=0
EXTRACT: note_off channel=6 note=59 velocity=95 time=0
EXTRACT: note_on channel=6 note=57 velocity=95 time=0
EXTRACT: note_off channel=0 note=33 velocity=95 time=0.2654865
EXTRACT: note_on channel=0 note=38 velocity=95 time=0
EXTRACT: note_off channel=9 note=42 velocity=95 time=0
EXTRACT: note_off channel=9 note=36 velocity=95 time=0
EXTRACT: note_on channel=9 note=42 velocity=95 time=0
EXTRACT: note_on channel=9 note=36 velocity=95 time=0
EXTRACT: note_off channel=2 note=64 velocity=127 time=0
EXTRACT: note_off channel=2 note=61 velocity=127 time=0
EXTRACT: note_off channel=2 note=57 velocity=95 time=0
EXTRACT: note_off channel=2 note=50 velocity=95 time=0
EXTRACT: note_on channel=2 note=66 velocity=127 time=0
EXTRACT: note_on channel=2 note=62 velocity=127 time=0
EXTRACT: note_on channel=2 note=57 velocity=95 time=0
EXTRACT: note_on channel=2 note=50 velocity=95 time=0
EXTRACT: note_off channel=4 note=57 velocity=95 time=0
EXTRACT: note_on channel=4 note=62 velocity=95 time=0
EXTRACT: note_on channel=4 note=50 velocity=95 time=0
EXTRACT: note_off channel=6 note=57 velocity=95 time=0
EXTRACT: note_on channel=6 note=62 velocity=95 time=0
EXTRACT: note_off channel=8 note=79 velocity=127 time=0
EXTRACT: note_off channel=8 note=74 velocity=127 time=0
EXTRACT: note_on channel=8 note=81 velocity=127 time=0
EXTRACT: note_on channel=8 note=74 velocity=127 time=0
EXTRACT: note_on channel=11 note=50 velocity=95 time=0
EXTRACT: note_off channel=0 note=38 velocity=95 time=0.2654865
EXTRACT: note_on channel=0 note=38 velocity=95 time=0
EXTRACT: note_off channel=9 note=42 velocity=95 time=0
EXTRACT: note_on channel=9 note=42 velocity=95 time=0
EXTRACT: note_off channel=2 note=66 velocity=127 time=0
EXTRACT: note_off channel=2 note=62 velocity=127 time=0
EXTRACT: note_off channel=2 note=57 velocity=95 time=0
EXTRACT: note_off channel=2 note=50 velocity=95 time=0
EXTRACT: note_on channel=2 note=66 velocity=127 time=0
EXTRACT: note_on channel=2 note=62 velocity=127 time=0
EXTRACT: note_on channel=2 note=57 velocity=95 time=0
EXTRACT: note_on channel=2 note=50 velocity=95 time=0
EXTRACT: note_off channel=11 note=50 velocity=95 time=0
EXTRACT: note_on channel=11 note=50 velocity=95 time=0
EXTRACT: note_off channel=0 note=38 velocity=95 time=0.2654865
EXTRACT: note_on channel=0 note=38 velocity=95 time=0
EXTRACT: note_off channel=9 note=36 velocity=95 time=0
EXTRACT: note_off channel=9 note=42 velocity=95 time=0
EXTRACT: note_on channel=9 note=42 velocity=95 time=0
EXTRACT: note_on channel=9 note=38 velocity=95 time=0
EXTRACT: note_off channel=2 note=66 velocity=127 time=0
EXTRACT: note_off channel=2 note=62 velocity=127 time=0
EXTRACT: note_off channel=2 note=57 velocity=95 time=0
EXTRACT: note_off channel=2 note=50 velocity=95 time=0
EXTRACT: note_on channel=2 note=66 velocity=127 time=0
EXTRACT: note_on channel=2 note=62 velocity=127 time=0
EXTRACT: note_on channel=2 note=57 velocity=95 time=0
EXTRACT: note_on channel=2 note=50 velocity=95 time=0
EXTRACT: note_off channel=4 note=62 velocity=95 time=0
EXTRACT: note_off channel=4 note=50 velocity=95 time=0
EXTRACT: note_on channel=4 note=62 velocity=95 time=0
EXTRACT: note_on channel=6 note=74 velocity=95 time=0
EXTRACT: note_off channel=11 note=50 velocity=95 time=0
EXTRACT: note_on channel=11 note=50 velocity=95 time=0
EXTRACT: note_off channel=0 note=38 velocity=95 time=0.2654865
EXTRACT: note_on channel=0 note=38 velocity=95 time=0
EXTRACT: note_off channel=9 note=42 velocity=95 time=0
EXTRACT: note_on channel=9 note=42 velocity=95 time=0
EXTRACT: note_off channel=2 note=66 velocity=127 time=0
EXTRACT: note_off channel=2 note=62 velocity=127 time=0
EXTRACT: note_off channel=2 note=57 velocity=95 time=0
EXTRACT: note_off channel=2 note=50 velocity=95 time=0
EXTRACT: note_on channel=2 note=66 velocity=127 time=0
EXTRACT: note_on channel=2 note=62 velocity=127 time=0
EXTRACT: note_on channel=2 note=57 velocity=95 time=0
EXTRACT: note_on channel=2 note=50 velocity=95 time=0
EXTRACT: note_on channel=4 note=69 velocity=95 time=0
EXTRACT: note_on channel=4 note=66 velocity=95 time=0
EXTRACT: note_off channel=6 note=62 velocity=95 time=0
EXTRACT: note_on channel=6 note=62 velocity=95 time=0
EXTRACT: note_off channel=11 note=50 velocity=95 time=0
EXTRACT: note_on channel=11 note=57 velocity=95 time=0
EXTRACT: note_off channel=0 note=38 velocity=95 time=0.13274325
EXTRACT: note_on channel=0 note=38 velocity=95 time=0
EXTRACT: note_off channel=0 note=38 velocity=95 time=0.13274325
EXTRACT: note_on channel=0 note=38 velocity=95 time=0
EXTRACT: note_off channel=9 note=38 velocity=95 time=0
EXTRACT: note_off channel=9 note=42 velocity=95 time=0
EXTRACT: note_on channel=9 note=42 velocity=95 time=0
EXTRACT: note_off channel=2 note=66 velocity=127 time=0
EXTRACT: note_off channel=2 note=62 velocity=127 time=0
EXTRACT: note_off channel=2 note=57 velocity=95 time=0
EXTRACT: note_off channel=2 note=50 velocity=95 time=0
EXTRACT: note_on channel=2 note=66 velocity=127 time=0
EXTRACT: note_on channel=2 note=62 velocity=127 time=0
EXTRACT: note_on channel=2 note=57 velocity=95 time=0
EXTRACT: note_on channel=2 note=50 velocity=95 time=0
EXTRACT: note_on channel=6 note=69 velocity=95 time=0
EXTRACT: note_off channel=11 note=57 velocity=95 time=0
EXTRACT: note_off channel=0 note=38 velocity=95 time=0.2654865
EXTRACT: note_on channel=0 note=33 velocity=95 time=0
EXTRACT: note_off channel=9 note=42 velocity=95 time=0
EXTRACT: note_on channel=9 note=42 velocity=95 time=0
EXTRACT: note_on channel=9 note=36 velocity=95 time=0
EXTRACT: note_off channel=2 note=66 velocity=127 time=0
EXTRACT: note_off channel=2 note=62 velocity=127 time=0
EXTRACT: note_off channel=2 note=57 velocity=95 time=0
EXTRACT: note_off channel=2 note=50 velocity=95 time=0
EXTRACT: note_on channel=2 note=66 velocity=127 time=0
EXTRACT: note_on channel=2 note=62 velocity=127 time=0
EXTRACT: note_on channel=2 note=57 velocity=95 time=0
EXTRACT: note_on channel=2 note=50 velocity=95 time=0
EXTRACT: note_on channel=4 note=50 velocity=95 time=0
EXTRACT: note_off channel=0 note=33 velocity=95 time=0.2654865
EXTRACT: note_off channel=9 note=42 velocity=95 time=0
EXTRACT: note_off channel=9 note=36 velocity=95 time=0
EXTRACT: note_on channel=9 note=42 velocity=95 time=0
EXTRACT: note_on channel=9 note=38 velocity=95 time=0
EXTRACT: note_off channel=2 note=66 velocity=127 time=0
EXTRACT: note_off channel=2 note=62 velocity=127 time=0
EXTRACT: note_off channel=2 note=57 velocity=95 time=0
EXTRACT: note_off channel=2 note=50 velocity=95 time=0
EXTRACT: note_on channel=2 note=66 velocity=127 time=0
EXTRACT: note_on channel=2 note=62 velocity=127 time=0
EXTRACT: note_on channel=2 note=57 velocity=95 time=0
EXTRACT: note_on channel=2 note=50 velocity=95 time=0
EXTRACT: note_off channel=4 note=69 velocity=95 time=0
EXTRACT: note_off channel=4 note=66 velocity=95 time=0
EXTRACT: note_on channel=4 note=66 velocity=95 time=0
EXTRACT: note_off channel=6 note=69 velocity=95 time=0
EXTRACT: note_on channel=6 note=66 velocity=95 time=0
EXTRACT: note_off channel=9 note=42 velocity=95 time=0.2654865
EXTRACT: note_on channel=9 note=42 velocity=95 time=0
EXTRACT: note_off channel=2 note=66 velocity=127 time=0
EXTRACT: note_off channel=2 note=62 velocity=127 time=0
EXTRACT: note_off channel=2 note=57 velocity=95 time=0
EXTRACT: note_off channel=2 note=50 velocity=95 time=0
EXTRACT: note_on channel=2 note=66 velocity=127 time=0
EXTRACT: note_on channel=2 note=62 velocity=127 time=0
EXTRACT: note_on channel=2 note=57 velocity=95 time=0
EXTRACT: note_on channel=2 note=50 velocity=95 time=0
EXTRACT: note_off channel=4 note=50 velocity=95 time=0
EXTRACT: note_on channel=4 note=50 velocity=95 time=0
EXTRACT: note_off channel=6 note=74 velocity=95 time=0
EXTRACT: note_off channel=6 note=62 velocity=95 time=0
EXTRACT: note_on channel=6 note=62 velocity=95 time=0
EXTRACT: note_on channel=0 note=37 velocity=95 time=0.2654865
EXTRACT: note_off channel=9 note=38 velocity=95 time=0
EXTRACT: note_off channel=9 note=42 velocity=95 time=0
EXTRACT: note_on channel=9 note=42 velocity=95 time=0
EXTRACT: note_on channel=9 note=36 velocity=95 time=0
EXTRACT: note_off channel=2 note=66 velocity=127 time=0
EXTRACT: note_off channel=2 note=62 velocity=127 time=0
EXTRACT: note_off channel=2 note=57 velocity=95 time=0
EXTRACT: note_off channel=2 note=50 velocity=95 time=0
EXTRACT: note_on channel=2 note=64 velocity=127 time=0
EXTRACT: note_on channel=2 note=61 velocity=127 time=0
EXTRACT: note_on channel=2 note=57 velocity=95 time=0
EXTRACT: note_on channel=2 note=50 velocity=95 time=0
EXTRACT: note_off channel=4 note=66 velocity=95 time=0
EXTRACT: note_on channel=4 note=64 velocity=95 time=0
EXTRACT: note_off channel=6 note=66 velocity=95 time=0
EXTRACT: note_off channel=6 note=62 velocity=95 time=0
EXTRACT: note_on channel=6 note=64 velocity=95 time=0
EXTRACT: note_off channel=8 note=81 velocity=127 time=0
EXTRACT: note_off channel=8 note=74 velocity=127 time=0
EXTRACT: note_on channel=11 note=49 velocity=95 time=0
EXTRACT: note_off channel=0 note=37 velocity=95 time=0.2654865
EXTRACT: note_on channel=0 note=37 velocity=95 time=0
EXTRACT: note_off channel=9 note=42 velocity=95 time=0
EXTRACT: note_on channel=9 note=42 velocity=95 time=0
EXTRACT: note_off channel=2 note=64 velocity=127 time=0
EXTRACT: note_off channel=2 note=61 velocity=127 time=0
EXTRACT: note_off channel=2 note=57 velocity=95 time=0
EXTRACT: note_off channel=2 note=50 velocity=95 time=0
EXTRACT: note_on channel=2 note=64 velocity=127 time=0
EXTRACT: note_on channel=2 note=61 velocity=127 time=0
EXTRACT: note_on channel=2 note=57 velocity=95 time=0
EXTRACT: note_on channel=2 note=50 velocity=95 time=0
EXTRACT: note_off channel=4 note=64 velocity=95 time=0
EXTRACT: note_on channel=4 note=73 velocity=95 time=0
EXTRACT: note_on channel=6 note=73 velocity=95 time=0
EXTRACT: note_off channel=11 note=49 velocity=95 time=0
EXTRACT: note_on channel=11 note=49 velocity=95 time=0
EXTRACT: note_off channel=0 note=37 velocity=95 time=0.2654865
EXTRACT: note_on channel=0 note=37 velocity=95 time=0
EXTRACT: note_off channel=9 note=36 velocity=95 time=0
EXTRACT: note_off channel=9 note=42 velocity=95 time=0
EXTRACT: note_on channel=9 note=42 velocity=95 time=0
EXTRACT: note_on channel=9 note=38 velocity=95 time=0
EXTRACT: note_off channel=2 note=64 velocity=127 time=0
EXTRACT: note_off channel=2 note=61 velocity=127 time=0
EXTRACT: note_off channel=2 note=57 velocity=95 time=0
EXTRACT: note_off channel=2 note=50 velocity=95 time=0
EXTRACT: note_on channel=2 note=64 velocity=127 time=0
EXTRACT: note_on channel=2 note=61 velocity=127 time=0
EXTRACT: note_on channel=2 note=57 velocity=95 time=0
EXTRACT: note_on channel=2 note=50 velocity=95 time=0
EXTRACT: note_off channel=4 note=62 velocity=95 time=0
EXTRACT: note_off channel=4 note=50 velocity=95 time=0
EXTRACT: note_on channel=4 note=62 velocity=95 time=0
EXTRACT: note_off channel=6 note=64 velocity=95 time=0
EXTRACT: note_on channel=6 note=62 velocity=95 time=0
EXTRACT: note_off channel=11 note=49 velocity=95 time=0
EXTRACT: note_on channel=11 note=49 velocity=95 time=0
EXTRACT: note_off channel=0 note=37 velocity=95 time=0.2654865
EXTRACT: note_on channel=0 note=37 velocity=95 time=0
EXTRACT: note_off channel=9 note=42 velocity=95 time=0
EXTRACT: note_on channel=9 note=42 velocity=95 time=0
EXTRACT: note_off channel=2 note=64 velocity=127 time=0
EXTRACT: note_off channel=2 note=61 velocity=127 time=0
EXTRACT: note_off channel=2 note=57 velocity=95 time=0
EXTRACT: note_off channel=2 note=50 velocity=95 time=0
EXTRACT: note_on channel=2 note=64 velocity=127 time=0
EXTRACT: note_on channel=2 note=61 velocity=127 time=0
EXTRACT: note_on channel=2 note=57 velocity=95 time=0
EXTRACT: note_on channel=2 note=50 velocity=95 time=0
EXTRACT: note_off channel=4 note=73 velocity=95 time=0
EXTRACT: note_on channel=4 note=69 velocity=95 time=0
EXTRACT: note_off channel=6 note=73 velocity=95 time=0
EXTRACT: note_on channel=6 note=69 velocity=95 time=0
EXTRACT: note_off channel=11 note=49 velocity=95 time=0
EXTRACT: note_on channel=11 note=57 velocity=95 time=0
EXTRACT: note_off channel=0 note=37 velocity=95 time=0.13274325
EXTRACT: note_on channel=0 note=37 velocity=95 time=0
EXTRACT: note_off channel=0 note=37 velocity=95 time=0.13274325
EXTRACT: note_on channel=0 note=37 velocity=95 time=0
EXTRACT: note_off channel=9 note=38 velocity=95 time=0
EXTRACT: note_off channel=9 note=42 velocity=95 time=0
EXTRACT: note_on channel=9 note=42 velocity=95 time=0
EXTRACT: note_off channel=2 note=64 velocity=127 time=0
EXTRACT: note_off channel=2 note=61 velocity=127 time=0
EXTRACT: note_off channel=2 note=57 velocity=95 time=0
EXTRACT: note_off channel=2 note=50 velocity=95 time=0
EXTRACT: note_on channel=2 note=64 velocity=127 time=0
EXTRACT: note_on channel=2 note=61 velocity=127 time=0
EXTRACT: note_on channel=2 note=57 velocity=95 time=0
EXTRACT: note_on channel=2 note=50 velocity=95 time=0
EXTRACT: note_off channel=11 note=57 velocity=95 time=0
EXTRACT: note_off channel=0 note=37 velocity=95 time=0.2654865
EXTRACT: note_on channel=0 note=32 velocity=95 time=0
EXTRACT: note_off channel=9 note=42 velocity=95 time=0
EXTRACT: note_on channel=9 note=42 velocity=95 time=0
EXTRACT: note_on channel=9 note=36 velocity=95 time=0
EXTRACT: note_off channel=2 note=64 velocity=127 time=0
EXTRACT: note_off channel=2 note=61 velocity=127 time=0
EXTRACT: note_off channel=2 note=57 velocity=95 time=0
EXTRACT: note_off channel=2 note=50 velocity=95 time=0
EXTRACT: note_on channel=2 note=64 velocity=127 time=0
EXTRACT: note_on channel=2 note=61 velocity=127 time=0
EXTRACT: note_on channel=2 note=57 velocity=95 time=0
EXTRACT: note_on channel=2 note=50 velocity=95 time=0
EXTRACT: note_off channel=4 note=62 velocity=95 time=0
EXTRACT: note_on channel=4 note=62 velocity=95 time=0
EXTRACT: note_on channel=4 note=50 velocity=95 time=0
EXTRACT: note_off channel=6 note=62 velocity=95 time=0
EXTRACT: note_on channel=6 note=62 velocity=95 time=0
EXTRACT: note_off channel=0 note=32 velocity=95 time=0.2654865
EXTRACT: note_off channel=9 note=42 velocity=95 time=0
EXTRACT: note_off channel=9 note=36 velocity=95 time=0
EXTRACT: note_on channel=9 note=46 velocity=95 time=0
EXTRACT: note_on channel=9 note=38 velocity=95 time=0
EXTRACT: note_off channel=2 note=64 velocity=127 time=0
EXTRACT: note_off channel=2 note=61 velocity=127 time=0
EXTRACT: note_off channel=2 note=57 velocity=95 time=0
EXTRACT: note_off channel=2 note=50 velocity=95 time=0
EXTRACT: note_on channel=2 note=64 velocity=127 time=0
EXTRACT: note_on channel=2 note=61 velocity=127 time=0
EXTRACT: note_on channel=2 note=57 velocity=95 time=0
EXTRACT: note_on channel=2 note=50 velocity=95 time=0
EXTRACT: note_off channel=4 note=69 velocity=95 time=0
EXTRACT: note_on channel=4 note=64 velocity=95 time=0
EXTRACT: note_off channel=6 note=69 velocity=95 time=0
EXTRACT: note_on channel=6 note=64 velocity=95 time=0
EXTRACT: note_off channel=2 note=64 velocity=127 time=0.2654865
EXTRACT: note_off channel=2 note=61 velocity=127 time=0
EXTRACT: note_off channel=2 note=57 velocity=95 time=0
EXTRACT: note_off channel=2 note=50 velocity=95 time=0
EXTRACT: note_on channel=2 note=64 velocity=127 time=0
EXTRACT: note_on channel=2 note=61 velocity=127 time=0
EXTRACT: note_on channel=2 note=57 velocity=95 time=0
EXTRACT: note_on channel=2 note=50 velocity=95 time=0
EXTRACT: note_off channel=4 note=62 velocity=95 time=0
EXTRACT: note_off channel=4 note=50 velocity=95 time=0
EXTRACT: note_on channel=4 note=50 velocity=95 time=0
EXTRACT: note_off channel=6 note=62 velocity=95 time=0
EXTRACT: note_on channel=6 note=62 velocity=95 time=0
EXTRACT: note_on channel=11 note=62 velocity=95 time=0
EXTRACT: note_on channel=0 note=35 velocity=95 time=0.2654865
EXTRACT: note_off channel=9 note=46 velocity=95 time=0
EXTRACT: note_off channel=9 note=38 velocity=95 time=0
EXTRACT: note_on channel=9 note=42 velocity=95 time=0
EXTRACT: note_on channel=9 note=36 velocity=95 time=0
EXTRACT: note_off channel=2 note=64 velocity=127 time=0
EXTRACT: note_off channel=2 note=61 velocity=127 time=0
EXTRACT: note_off channel=2 note=57 velocity=95 time=0
EXTRACT: note_off channel=2 note=50 velocity=95 time=0
EXTRACT: note_on channel=2 note=62 velocity=127 time=0
EXTRACT: note_on channel=2 note=59 velocity=127 time=0
EXTRACT: note_on channel=2 note=55 velocity=95 time=0
EXTRACT: note_off channel=4 note=64 velocity=95 time=0
EXTRACT: note_off channel=4 note=50 velocity=95 time=0
EXTRACT: note_on channel=4 note=67 velocity=95 time=0
EXTRACT: note_off channel=6 note=64 velocity=95 time=0
EXTRACT: note_off channel=6 note=62 velocity=95 time=0
EXTRACT: note_on channel=6 note=62 velocity=95 time=0
EXTRACT: note_off channel=11 note=62 velocity=95 time=0
EXTRACT: note_on channel=11 note=62 velocity=95 time=0
EXTRACT: note_off channel=0 note=35 velocity=95 time=0.2654865
EXTRACT: note_on channel=0 note=35 velocity=95 time=0
EXTRACT: note_off channel=9 note=42 velocity=95 time=0
EXTRACT: note_on channel=9 note=42 velocity=95 time=0
EXTRACT: note_off channel=2 note=62 velocity=127 time=0
EXTRACT: note_off channel=2 note=59 velocity=127 time=0
EXTRACT: note_off channel=2 note=55 velocity=95 time=0
EXTRACT: note_on channel=2 note=62 velocity=127 time=0
EXTRACT: note_on channel=2 note=59 velocity=127 time=0
EXTRACT: note_on channel=2 note=55 velocity=95 time=0
EXTRACT: note_on channel=4 note=62 velocity=95 time=0
EXTRACT: note_on channel=6 note=71 velocity=95 time=0
EXTRACT: note_off channel=11 note=62 velocity=95 time=0
EXTRACT: note_on channel=11 note=57 velocity=95 time=0
EXTRACT: note_off channel=0 note=35 velocity=95 time=0.2654865
EXTRACT: note_on channel=0 note=35 velocity=95 time=0
EXTRACT: note_off channel=9 note=36 velocity=95 time=0
EXTRACT: note_off channel=9 note=42 velocity=95 time=0
EXTRACT: note_on channel=9 note=42 velocity=95 time=0
EXTRACT: note_on channel=9 note=38 velocity=95 time=0
EXTRACT: note_off channel=2 note=62 velocity=127 time=0
EXTRACT: note_off channel=2 note=59 velocity=127 time=0
EXTRACT: note_off channel=2 note=55 velocity=95 time=0
EXTRACT: note_on channel=2 note=62 velocity=127 time=0
EXTRACT: note_on channel=2 note=59 velocity=127 time=0
EXTRACT: note_on channel=2 note=55 velocity=95 time=0
EXTRACT: note_off channel=4 note=62 velocity=95 time=0
EXTRACT: note_on channel=4 note=59 velocity=95 time=0
EXTRACT: note_off channel=6 note=62 velocity=95 time=0
EXTRACT: note_on channel=6 note=62 velocity=95 time=0
EXTRACT: note_off channel=11 note=57 velocity=95 time=0
EXTRACT: note_off channel=0 note=35 velocity=95 time=0.2654865
EXTRACT: note_on channel=0 note=35 velocity=95 time=0
EXTRACT: note_off channel=9 note=42 velocity=95 time=0
EXTRACT: note_on channel=9 note=42 velocity=95 time=0
EXTRACT: note_off channel=2 note=62 velocity=127 time=0
EXTRACT: note_off channel=2 note=59 velocity=127 time=0
EXTRACT: note_off channel=2 note=55 velocity=95 time=0
EXTRACT: note_on channel=2 note=62 velocity=127 time=0
EXTRACT: note_on channel=2 note=59 velocity=127 time=0
EXTRACT: note_on channel=2 note=55 velocity=95 time=0
EXTRACT: note_off channel=4 note=67 velocity=95 time=0
EXTRACT: note_on channel=4 note=66 velocity=95 time=0
EXTRACT: note_on channel=6 note=67 velocity=95 time=0
EXTRACT: note_off channel=0 note=35 velocity=95 time=0.13274325
EXTRACT: note_on channel=0 note=35 velocity=95 time=0
EXTRACT: note_off channel=0 note=35 velocity=95 time=0.13274325
EXTRACT: note_on channel=0 note=35 velocity=95 time=0
EXTRACT: note_off channel=9 note=38 velocity=95 time=0
EXTRACT: note_off channel=9 note=42 velocity=95 time=0
EXTRACT: note_on channel=9 note=42 velocity=95 time=0
EXTRACT: note_off channel=2 note=62 velocity=127 time=0
EXTRACT: note_off channel=2 note=59 velocity=127 time=0
EXTRACT: note_off channel=2 note=55 velocity=95 time=0
EXTRACT: note_on channel=2 note=62 velocity=127 time=0
EXTRACT: note_on channel=2 note=59 velocity=127 time=0
EXTRACT: note_on channel=2 note=55 velocity=95 time=0
EXTRACT: note_off channel=4 note=59 velocity=95 time=0
EXTRACT: note_on channel=4 note=62 velocity=95 time=0
EXTRACT: note_off channel=6 note=71 velocity=95 time=0
EXTRACT: note_off channel=0 note=35 velocity=95 time=0.2654865
EXTRACT: note_off channel=9 note=42 velocity=95 time=0
EXTRACT: note_on channel=9 note=42 velocity=95 time=0
EXTRACT: note_on channel=9 note=36 velocity=95 time=0
EXTRACT: note_off channel=2 note=62 velocity=127 time=0
EXTRACT: note_off channel=2 note=59 velocity=127 time=0
EXTRACT: note_off channel=2 note=55 velocity=95 time=0
EXTRACT: note_on channel=2 note=62 velocity=127 time=0
EXTRACT: note_on channel=2 note=59 velocity=127 time=0
EXTRACT: note_on channel=2 note=55 velocity=95 time=0
EXTRACT: note_off channel=4 note=62 velocity=95 time=0
EXTRACT: note_on channel=4 note=59 velocity=95 time=0
EXTRACT: note_on channel=11 note=62 velocity=95 time=0
EXTRACT: note_on channel=0 note=38 velocity=95 time=0.2654865
EXTRACT: note_off channel=9 note=42 velocity=95 time=0
EXTRACT: note_off channel=9 note=36 velocity=95 time=0
EXTRACT: note_on channel=9 note=42 velocity=95 time=0
EXTRACT: note_on channel=9 note=38 velocity=95 time=0
EXTRACT: note_off channel=2 note=62 velocity=127 time=0
EXTRACT: note_off channel=2 note=59 velocity=127 time=0
EXTRACT: note_off channel=2 note=55 velocity=95 time=0
EXTRACT: note_on channel=2 note=62 velocity=127 time=0
EXTRACT: note_on channel=2 note=59 velocity=127 time=0
EXTRACT: note_on channel=2 note=55 velocity=95 time=0
EXTRACT: note_off channel=4 note=66 velocity=95 time=0
EXTRACT: note_on channel=4 note=64 velocity=95 time=0
EXTRACT: note_off channel=11 note=62 velocity=95 time=0
EXTRACT: note_on channel=11 note=62 velocity=95 time=0
EXTRACT: pitchwheel channel=0 pitch=-384 time=0.066371625
EXTRACT: pitchwheel channel=0 pitch=-768 time=0.066371625
EXTRACT: pitchwheel channel=0 pitch=-1280 time=0.066371625
EXTRACT: pitchwheel channel=0 pitch=-1664 time=0.066371625
EXTRACT: note_off channel=9 note=42 velocity=95 time=0
EXTRACT: note_on channel=9 note=42 velocity=95 time=0
EXTRACT: note_off channel=2 note=62 velocity=127 time=0
EXTRACT: note_off channel=2 note=59 velocity=127 time=0
EXTRACT: note_off channel=2 note=55 velocity=95 time=0
EXTRACT: note_on channel=2 note=62 velocity=127 time=0
EXTRACT: note_on channel=2 note=59 velocity=127 time=0
EXTRACT: note_on channel=2 note=55 velocity=95 time=0
EXTRACT: note_off channel=4 note=59 velocity=95 time=0
EXTRACT: note_on channel=4 note=59 velocity=95 time=0
EXTRACT: note_off channel=11 note=62 velocity=95 time=0
EXTRACT: note_on channel=11 note=57 velocity=95 time=0
EXTRACT: pitchwheel channel=0 pitch=-2176 time=0.066371625
EXTRACT: pitchwheel channel=0 pitch=-2560 time=0.066371625
EXTRACT: pitchwheel channel=0 pitch=-3072 time=0.066371625
EXTRACT: pitchwheel channel=0 pitch=-3456 time=0.066371625
EXTRACT: pitchwheel channel=0 pitch=0 time=0
EXTRACT: note_off channel=0 note=38 velocity=95 time=0
EXTRACT: note_on channel=0 note=33 velocity=95 time=0
EXTRACT: note_off channel=9 note=38 velocity=95 time=0
EXTRACT: note_off channel=9 note=42 velocity=95 time=0
EXTRACT: note_on channel=9 note=42 velocity=95 time=0
EXTRACT: note_on channel=9 note=36 velocity=95 time=0
EXTRACT: note_off channel=2 note=62 velocity=127 time=0
EXTRACT: note_off channel=2 note=59 velocity=127 time=0
EXTRACT: note_off channel=2 note=55 velocity=95 time=0
EXTRACT: note_on channel=2 note=64 velocity=127 time=0
EXTRACT: note_on channel=2 note=61 velocity=127 time=0
EXTRACT: note_on channel=2 note=57 velocity=95 time=0
EXTRACT: note_on channel=2 note=50 velocity=95 time=0
EXTRACT: note_off channel=4 note=64 velocity=95 time=0
EXTRACT: note_off channel=4 note=59 velocity=95 time=0
EXTRACT: note_on channel=4 note=61 velocity=95 time=0
EXTRACT: note_off channel=6 note=62 velocity=95 time=0
EXTRACT: note_off channel=6 note=67 velocity=95 time=0
EXTRACT: note_on channel=6 note=64 velocity=95 time=0
EXTRACT: note_off channel=11 note=57 velocity=95 time=0
EXTRACT: note_off channel=0 note=33 velocity=95 time=0.2654865
EXTRACT: note_on channel=0 note=33 velocity=95 time=0
EXTRACT: note_off channel=9 note=42 velocity=95 time=0
EXTRACT: note_on channel=9 note=42 velocity=95 time=0
EXTRACT: note_off channel=2 note=64 velocity=127 time=0
EXTRACT: note_off channel=2 note=61 velocity=127 time=0
EXTRACT: note_off channel=2 note=57 velocity=95 time=0
EXTRACT: note_off channel=2 note=50 velocity=95 time=0
EXTRACT: note_on channel=2 note=64 velocity=127 time=0
EXTRACT: note_on channel=2 note=61 velocity=127 time=0
EXTRACT: note_on channel=2 note=57 velocity=95 time=0
EXTRACT: note_on channel=2 note=50 velocity=95 time=0
EXTRACT: note_on channel=4 note=52 velocity=95 time=0
EXTRACT: note_off channel=0 note=33 velocity=95 time=0.2654865
EXTRACT: note_on channel=0 note=33 velocity=95 time=0
EXTRACT: note_off channel=9 note=36 velocity=95 time=0
EXTRACT: note_off channel=9 note=42 velocity=95 time=0
EXTRACT: note_on channel=9 note=42 velocity=95 time=0
EXTRACT: note_on channel=9 note=38 velocity=95 time=0
EXTRACT: note_off channel=2 note=64 velocity=127 time=0
EXTRACT: note_off channel=2 note=61 velocity=127 time=0
EXTRACT: note_off channel=2 note=57 velocity=95 time=0
EXTRACT: note_off channel=2 note=50 velocity=95 time=0
EXTRACT: note_on channel=2 note=64 velocity=127 time=0
EXTRACT: note_on channel=2 note=61 velocity=127 time=0
EXTRACT: note_on channel=2 note=57 velocity=95 time=0
EXTRACT: note_on channel=2 note=50 velocity=95 time=0
EXTRACT: note_off channel=4 note=61 velocity=95 time=0
EXTRACT: note_on channel=4 note=61 velocity=95 time=0
EXTRACT: note_off channel=0 note=33 velocity=95 time=0.2654865
EXTRACT: note_on channel=0 note=33 velocity=95 time=0
EXTRACT: note_off channel=9 note=42 velocity=95 time=0
EXTRACT: note_on channel=9 note=42 velocity=95 time=0
EXTRACT: note_off channel=2 note=64 velocity=127 time=0
EXTRACT: note_off channel=2 note=61 velocity=127 time=0
EXTRACT: note_off channel=2 note=57 velocity=95 time=0
EXTRACT: note_off channel=2 note=50 velocity=95 time=0
EXTRACT: note_on channel=2 note=64 velocity=127 time=0
EXTRACT: note_on channel=2 note=61 velocity=127 time=0
EXTRACT: note_on channel=2 note=57 velocity=95 time=0
EXTRACT: note_on channel=2 note=50 velocity=95 time=0
EXTRACT: note_off channel=4 note=61 velocity=95 time=0
EXTRACT: note_on channel=4 note=64 velocity=95 time=0
EXTRACT: note_off channel=6 note=64 velocity=95 time=0
EXTRACT: note_on channel=6 note=62 velocity=95 time=0
EXTRACT: note_on channel=11 note=67 velocity=95 time=0
EXTRACT: note_off channel=0 note=33 velocity=95 time=0.13274325
EXTRACT: note_on channel=0 note=33 velocity=95 time=0
EXTRACT: note_off channel=0 note=33 velocity=95 time=0.13274325
EXTRACT: note_on channel=0 note=35 velocity=95 time=0
EXTRACT: note_off channel=9 note=38 velocity=95 time=0
EXTRACT: note_off channel=9 note=42 velocity=95 time=0
EXTRACT: note_on channel=9 note=42 velocity=95 time=0
EXTRACT: note_off channel=2 note=64 velocity=127 time=0
EXTRACT: note_off channel=2 note=61 velocity=127 time=0
EXTRACT: note_off channel=2 note=57 velocity=95 time=0
EXTRACT: note_off channel=2 note=50 velocity=95 time=0
EXTRACT: note_on channel=2 note=64 velocity=127 time=0
EXTRACT: note_on channel=2 note=61 velocity=127 time=0
EXTRACT: note_on channel=2 note=57 velocity=95 time=0
EXTRACT: note_on channel=2 note=50 velocity=95 time=0
EXTRACT: note_off channel=4 note=64 velocity=95 time=0
EXTRACT: note_on channel=4 note=62 velocity=95 time=0
EXTRACT: note_off channel=6 note=62 velocity=95 time=0
EXTRACT: note_on channel=6 note=61 velocity=95 time=0
EXTRACT: note_off channel=11 note=67 velocity=95 time=0
EXTRACT: note_on channel=11 note=66 velocity=95 time=0
EXTRACT: note_off channel=0 note=35 velocity=95 time=0.2654865
EXTRACT: note_on channel=0 note=33 velocity=95 time=0
EXTRACT: note_off channel=9 note=42 velocity=95 time=0
EXTRACT: note_on channel=9 note=42 velocity=95 time=0
EXTRACT: note_on channel=9 note=36 velocity=95 time=0
EXTRACT: note_off channel=2 note=64 velocity=127 time=0
EXTRACT: note_off channel=2 note=61 velocity=127 time=0
EXTRACT: note_off channel=2 note=57 velocity=95 time=0
EXTRACT: note_off channel=2 note=50 velocity=95 time=0
EXTRACT: note_on channel=2 note=64 velocity=127 time=0
EXTRACT: note_on channel=2 note=61 velocity=127 time=0
EXTRACT: note_on channel=2 note=57 velocity=95 time=0
EXTRACT: note_on channel=2 note=50 velocity=95 time=0
EXTRACT: note_off channel=4 note=62 velocity=95 time=0
EXTRACT: note_on channel=4 note=61 velocity=95 time=0
EXTRACT: note_off channel=6 note=61 velocity=95 time=0
EXTRACT: note_on channel=6 note=59 velocity=95 time=0
EXTRACT: note_off channel=11 note=66 velocity=95 time=0
EXTRACT: note_on channel=11 note=64 velocity=95 time=0
EXTRACT: note_off channel=0 note=33 velocity=95 time=0.2654865
EXTRACT: note_on channel=0 note=37 velocity=95 time=0
EXTRACT: note_off channel=9 note=42 velocity=95 time=0
EXTRACT: note_off channel=9 note=36 velocity=95 time=0
EXTRACT: note_on channel=9 note=38 velocity=95 time=0
EXTRACT: note_off channel=2 note=64 velocity=127 time=0
EXTRACT: note_off channel=2 note=61 velocity=127 time=0
EXTRACT: note_off channel=2 note=57 velocity=95 time=0
EXTRACT: note_off channel=2 note=50 velocity=95 time=0
EXTRACT: note_on channel=2 note=64 velocity=127 time=0
EXTRACT: note_on channel=2 note=61 velocity=127 time=0
EXTRACT: note_on channel=2 note=57 velocity=95 time=0
EXTRACT: note_on channel=2 note=50 velocity=95 time=0
EXTRACT: note_off channel=4 note=52 velocity=95 time=0
EXTRACT: note_off channel=4 note=61 velocity=95 time=0
EXTRACT: note_on channel=4 note=59 velocity=95 time=0
EXTRACT: note_off channel=6 note=59 velocity=95 time=0
EXTRACT: note_on channel=6 note=57 velocity=95 time=0
EXTRACT: note_off channel=11 note=64 velocity=95 time=0
EXTRACT: note_on channel=1 note=57 velocity=95 time=0.2654865
EXTRACT: note_off channel=0 note=37 velocity=95 time=0
EXTRACT: note_on channel=0 note=33 velocity=95 time=0
EXTRACT: note_off channel=9 note=38 velocity=95 time=0
EXTRACT: note_on channel=9 note=36 velocity=95 time=0
EXTRACT: note_off channel=2 note=64 velocity=127 time=0
EXTRACT: note_off channel=2 note=61 velocity=127 time=0
EXTRACT: note_off channel=2 note=57 velocity=95 time=0
EXTRACT: note_off channel=2 note=50 velocity=95 time=0
EXTRACT: note_on channel=2 note=64 velocity=127 time=0
EXTRACT: note_on channel=2 note=61 velocity=127 time=0
EXTRACT: note_on channel=2 note=57 velocity=95 time=0
EXTRACT: note_on channel=2 note=50 velocity=95 time=0
EXTRACT: note_off channel=4 note=59 velocity=95 time=0
EXTRACT: note_on channel=4 note=57 velocity=95 time=0
EXTRACT: note_off channel=6 note=57 velocity=95 time=0
EXTRACT: note_on channel=6 note=55 velocity=95 time=0
EXTRACT: note_off channel=1 note=57 velocity=95 time=0.2654865
EXTRACT: note_on channel=1 note=59 velocity=95 time=0
EXTRACT: note_off channel=0 note=33 velocity=95 time=0
EXTRACT: note_on channel=0 note=43 velocity=95 time=0
EXTRACT: note_off channel=9 note=36 velocity=95 time=0
EXTRACT: note_on channel=9 note=49 velocity=95 time=0
EXTRACT: note_on channel=9 note=36 velocity=95 time=0
EXTRACT: note_off channel=2 note=64 velocity=127 time=0
EXTRACT: note_off channel=2 note=61 velocity=127 time=0
EXTRACT: note_off channel=2 note=57 velocity=95 time=0
EXTRACT: note_off channel=2 note=50 velocity=95 time=0
EXTRACT: note_on channel=2 note=71 velocity=127 time=0
EXTRACT: note_on channel=2 note=67 velocity=127 time=0
EXTRACT: note_on channel=2 note=62 velocity=95 time=0
EXTRACT: note_off channel=4 note=57 velocity=95 time=0
EXTRACT: note_on channel=4 note=67 velocity=95 time=0
EXTRACT: note_on channel=4 note=59 velocity=95 time=0
EXTRACT: note_on channel=4 note=55 velocity=95 time=0
EXTRACT: note_on channel=4 note=50 velocity=95 time=0
EXTRACT: note_on channel=4 note=43 velocity=95 time=0
EXTRACT: note_off channel=6 note=55 velocity=95 time=0
EXTRACT: note_on channel=6 note=67 velocity=95 time=0
EXTRACT: note_on channel=6 note=59 velocity=95 time=0
EXTRACT: note_on channel=6 note=55 velocity=95 time=0
EXTRACT: note_on channel=6 note=50 velocity=95 time=0
EXTRACT: note_on channel=6 note=43 velocity=95 time=0
EXTRACT: note_off channel=1 note=59 velocity=95 time=0.2654865
EXTRACT: note_on channel=1 note=59 velocity=95 time=0
EXTRACT: note_off channel=0 note=43 velocity=95 time=0
EXTRACT: note_on channel=0 note=43 velocity=95 time=0
EXTRACT: note_off channel=9 note=49 velocity=95 time=0
EXTRACT: note_off channel=9 note=36 velocity=95 time=0
EXTRACT: note_on channel=9 note=42 velocity=95 time=0
EXTRACT: note_on channel=9 note=36 velocity=95 time=0
EXTRACT: note_off channel=2 note=71 velocity=127 time=0
EXTRACT: note_off channel=2 note=67 velocity=127 time=0
EXTRACT: note_off channel=2 note=62 velocity=95 time=0
EXTRACT: note_on channel=2 note=71 velocity=127 time=0
EXTRACT: note_on channel=2 note=67 velocity=127 time=0
EXTRACT: note_on channel=2 note=62 velocity=95 time=0
EXTRACT: note_off channel=1 note=59 velocity=95 time=0.2654865
EXTRACT: note_on channel=1 note=59 velocity=95 time=0
EXTRACT: note_off channel=0 note=43 velocity=95 time=0
EXTRACT: note_on channel=0 note=43 velocity=95 time=0
EXTRACT: note_off channel=9 note=42 velocity=95 time=0
EXTRACT: note_off channel=9 note=36 velocity=95 time=0
EXTRACT: note_on channel=9 note=42 velocity=95 time=0
EXTRACT: note_on channel=9 note=38 velocity=95 time=0
EXTRACT: note_on channel=9 note=36 velocity=95 time=0
EXTRACT: note_off channel=2 note=71 velocity=127 time=0
EXTRACT: note_off channel=2 note=67 velocity=127 time=0
EXTRACT: note_off channel=2 note=62 velocity=95 time=0
EXTRACT: note_on channel=2 note=71 velocity=127 time=0
EXTRACT: note_on channel=2 note=67 velocity=127 time=0
EXTRACT: note_on channel=2 note=62 velocity=95 time=0
EXTRACT: note_off channel=1 note=59 velocity=95 time=0.2654865
EXTRACT: note_on channel=1 note=57 velocity=95 time=0
EXTRACT: note_off channel=0 note=43 velocity=95 time=0
EXTRACT: note_on channel=0 note=43 velocity=95 time=0
EXTRACT: note_off channel=9 note=42 velocity=95 time=0
EXTRACT: note_off channel=9 note=38 velocity=95 time=0
EXTRACT: note_off channel=9 note=36 velocity=95 time=0
EXTRACT: note_on channel=9 note=42 velocity=95 time=0
EXTRACT: note_on channel=9 note=36 velocity=95 time=0
EXTRACT: note_off channel=2 note=71 velocity=127 time=0
EXTRACT: note_off channel=2 note=67 velocity=127 time=0
EXTRACT: note_off channel=2 note=62 velocity=95 time=0
EXTRACT: note_on channel=2 note=71 velocity=127 time=0
EXTRACT: note_on channel=2 note=67 velocity=127 time=0
EXTRACT: note_on channel=2 note=62 velocity=95 time=0
EXTRACT: note_off channel=4 note=67 velocity=95 time=0
EXTRACT: note_off channel=4 note=59 velocity=95 time=0
EXTRACT: note_off channel=4 note=55 velocity=95 time=0
EXTRACT: note_on channel=4 note=67 velocity=95 time=0
EXTRACT: note_off channel=0 note=43 velocity=95 time=0.2654865
EXTRACT: note_on channel=0 note=43 velocity=95 time=0
EXTRACT: note_off channel=9 note=42 velocity=95 time=0
EXTRACT: note_off channel=9 note=36 velocity=95 time=0
EXTRACT: note_on channel=9 note=42 velocity=95 time=0
EXTRACT: note_on channel=9 note=38 velocity=95 time=0
EXTRACT: note_on channel=9 note=36 velocity=95 time=0
EXTRACT: note_off channel=2 note=71 velocity=127 time=0
EXTRACT: note_off channel=2 note=67 velocity=127 time=0
EXTRACT: note_off channel=2 note=62 velocity=95 time=0
EXTRACT: note_on channel=2 note=71 velocity=127 time=0
EXTRACT: note_on channel=2 note=67 velocity=127 time=0
EXTRACT: note_on channel=2 note=62 velocity=95 time=0
EXTRACT: note_off channel=4 note=67 velocity=95 time=0
EXTRACT: note_on channel=4 note=66 velocity=95 time=0
EXTRACT: note_off channel=1 note=57 velocity=95 time=0.2654865
EXTRACT: note_off channel=0 note=43 velocity=95 time=0
EXTRACT: note_on channel=0 note=43 velocity=95 time=0
EXTRACT: note_off channel=9 note=42 velocity=95 time=0
EXTRACT: note_off channel=9 note=38 velocity=95 time=0
EXTRACT: note_off channel=9 note=36 velocity=95 time=0
EXTRACT: note_on channel=9 note=42 velocity=95 time=0
EXTRACT: note_on channel=9 note=36 velocity=95 time=0
EXTRACT: note_off channel=2 note=71 velocity=127 time=0
EXTRACT: note_off channel=2 note=67 velocity=127 time=0
EXTRACT: note_off channel=2 note=62 velocity=95 time=0
EXTRACT: note_on channel=2 note=71 velocity=127 time=0
EXTRACT: note_on channel=2 note=67 velocity=127 time=0
EXTRACT: note_on channel=2 note=62 velocity=95 time=0
EXTRACT: note_off channel=4 note=66 velocity=95 time=0
EXTRACT: note_on channel=4 note=62 velocity=95 time=0
EXTRACT: note_on channel=1 note=54 velocity=95 time=0.2654865
EXTRACT: note_off channel=0 note=43 velocity=95 time=0
EXTRACT: note_on channel=0 note=43 velocity=95 time=0
EXTRACT: note_off channel=9 note=42 velocity=95 time=0
EXTRACT: note_off channel=9 note=36 velocity=95 time=0
EXTRACT: note_on channel=9 note=42 velocity=95 time=0
EXTRACT: note_on channel=9 note=38 velocity=95 time=0
EXTRACT: note_on channel=9 note=36 velocity=95 time=0
EXTRACT: note_off channel=2 note=71 velocity=127 time=0
EXTRACT: note_off channel=2 note=67 velocity=127 time=0
EXTRACT: note_off channel=2 note=62 velocity=95 time=0
EXTRACT: note_on channel=2 note=71 velocity=127 time=0
EXTRACT: note_on channel=2 note=67 velocity=127 time=0
EXTRACT: note_on channel=2 note=62 velocity=95 time=0
EXTRACT: note_off channel=4 note=62 velocity=95 time=0
EXTRACT: note_on channel=4 note=59 velocity=95 time=0
EXTRACT: note_off channel=1 note=54 velocity=95 time=0.2654865
EXTRACT: note_on channel=1 note=57 velocity=95 time=0
EXTRACT: note_off channel=0 note=43 velocity=95 time=0
EXTRACT: note_on channel=0 note=43 velocity=95 time=0
EXTRACT: note_off channel=9 note=42 velocity=95 time=0
EXTRACT: note_off channel=9 note=38 velocity=95 time=0
EXTRACT: note_off channel=9 note=36 velocity=95 time=0
EXTRACT: note_on channel=9 note=42 velocity=95 time=0
EXTRACT: note_on channel=9 note=36 velocity=95 time=0
EXTRACT: note_off channel=2 note=71 velocity=127 time=0
EXTRACT: note_off channel=2 note=67 velocity=127 time=0
EXTRACT: note_off channel=2 note=62 velocity=95 time=0
EXTRACT: note_on channel=2 note=71 velocity=127 time=0
EXTRACT: note_on channel=2 note=67 velocity=127 time=0
EXTRACT: note_on channel=2 note=62 velocity=95 time=0
EXTRACT: note_off channel=1 note=57 velocity=95 time=0.2654865
EXTRACT: note_on channel=1 note=59 velocity=95 time=0
EXTRACT: note_off channel=0 note=43 velocity=95 time=0
EXTRACT: note_on channel=0 note=43 velocity=95 time=0
EXTRACT: note_off channel=9 note=42 velocity=95 time=0
EXTRACT: note_off channel=9 note=36 velocity=95 time=0
EXTRACT: note_on channel=9 note=42 velocity=95 time=0
EXTRACT: note_on channel=9 note=38 velocity=95 time=0
EXTRACT: note_on channel=9 note=36 velocity=95 time=0
EXTRACT: note_off channel=2 note=71 velocity=127 time=0
EXTRACT: note_off channel=2 note=67 velocity=127 time=0
EXTRACT: note_off channel=2 note=62 velocity=95 time=0
EXTRACT: note_on channel=2 note=73 velocity=127 time=0
EXTRACT: note_on channel=2 note=69 velocity=127 time=0
EXTRACT: note_on channel=2 note=64 velocity=95 time=0
EXTRACT: note_on channel=2 note=55 velocity=95 time=0
EXTRACT: note_on channel=2 note=43 velocity=95 time=0
EXTRACT: note_off channel=4 note=50 velocity=95 time=0
EXTRACT: note_off channel=4 note=43 velocity=95 time=0
EXTRACT: note_off channel=4 note=59 velocity=95 time=0
EXTRACT: note_on channel=4 note=67 velocity=95 time=0
EXTRACT: note_on channel=4 note=61 velocity=95 time=0
EXTRACT: note_on channel=4 note=57 velocity=95 time=0
EXTRACT: note_on channel=4 note=52 velocity=95 time=0
EXTRACT: note_on channel=4 note=43 velocity=95 time=0
EXTRACT: note_off channel=6 note=67 velocity=95 time=0
EXTRACT: note_off channel=6 note=59 velocity=95 time=0
EXTRACT: note_off channel=6 note=55 velocity=95 time=0
EXTRACT: note_off channel=6 note=50 velocity=95 time=0
EXTRACT: note_off channel=6 note=43 velocity=95 time=0
EXTRACT: note_on channel=6 note=64 velocity=95 time=0
EXTRACT: note_on channel=6 note=61 velocity=95 time=0
EXTRACT: note_on channel=6 note=57 velocity=95 time=0
EXTRACT: note_on channel=6 note=52 velocity=95 time=0
EXTRACT: note_on channel=6 note=43 velocity=95 time=0
EXTRACT: note_off channel=1 note=59 velocity=95 time=0.2654865
EXTRACT: note_off channel=0 note=43 velocity=95 time=0
EXTRACT: note_on channel=0 note=43 velocity=95 time=0
EXTRACT: note_off channel=9 note=42 velocity=95 time=0
EXTRACT: note_off channel=9 note=38 velocity=95 time=0
EXTRACT: note_off channel=9 note=36 velocity=95 time=0
EXTRACT: note_on channel=9 note=42 velocity=95 time=0
EXTRACT: note_on channel=9 note=36 velocity=95 time=0
EXTRACT: note_off channel=2 note=73 velocity=127 time=0
EXTRACT: note_off channel=2 note=69 velocity=127 time=0
EXTRACT: note_off channel=2 note=64 velocity=95 time=0
EXTRACT: note_off channel=2 note=55 velocity=95 time=0
EXTRACT: note_off channel=2 note=43 velocity=95 time=0
EXTRACT: note_on channel=2 note=55 velocity=95 time=0
EXTRACT: note_on channel=2 note=43 velocity=95 time=0
EXTRACT: note_on channel=1 note=57 velocity=95 time=0.2654865
EXTRACT: note_off channel=0 note=43 velocity=95 time=0
EXTRACT: note_on channel=0 note=43 velocity=95 time=0
EXTRACT: note_off channel=9 note=42 velocity=95 time=0
EXTRACT: note_off channel=9 note=36 velocity=95 time=0
EXTRACT: note_on channel=9 note=42 velocity=95 time=0
EXTRACT: note_on channel=9 note=38 velocity=95 time=0
EXTRACT: note_on channel=9 note=36 velocity=95 time=0
EXTRACT: note_off channel=2 note=55 velocity=95 time=0
EXTRACT: note_off channel=2 note=43 velocity=95 time=0
EXTRACT: note_on channel=2 note=55 velocity=95 time=0
EXTRACT: note_on channel=2 note=43 velocity=95 time=0
EXTRACT: note_off channel=1 note=57 velocity=95 time=0.13274325
EXTRACT: note_on channel=1 note=59 velocity=95 time=0
EXTRACT: note_off channel=1 note=59 velocity=95 time=0.13274325
EXTRACT: note_on channel=1 note=62 velocity=95 time=0
EXTRACT: note_off channel=0 note=43 velocity=95 time=0
EXTRACT: note_on channel=0 note=43 velocity=95 time=0
EXTRACT: note_off channel=9 note=42 velocity=95 time=0
EXTRACT: note_off channel=9 note=38 velocity=95 time=0
EXTRACT: note_off channel=9 note=36 velocity=95 time=0
EXTRACT: note_on channel=9 note=42 velocity=95 time=0
EXTRACT: note_on channel=9 note=36 velocity=95 time=0
EXTRACT: note_off channel=2 note=55 velocity=95 time=0
EXTRACT: note_off channel=2 note=43 velocity=95 time=0
EXTRACT: note_on channel=2 note=73 velocity=127 time=0
EXTRACT: note_on channel=2 note=69 velocity=127 time=0
EXTRACT: note_on channel=2 note=64 velocity=95 time=0
EXTRACT: note_on channel=2 note=55 velocity=95 time=0
EXTRACT: note_on channel=2 note=43 velocity=95 time=0
EXTRACT: note_off channel=4 note=67 velocity=95 time=0
EXTRACT: note_off channel=4 note=61 velocity=95 time=0
EXTRACT: note_off channel=4 note=57 velocity=95 time=0
EXTRACT: note_off channel=4 note=52 velocity=95 time=0
EXTRACT: note_off channel=4 note=43 velocity=95 time=0
EXTRACT: note_on channel=4 note=61 velocity=95 time=0
EXTRACT: note_off channel=0 note=43 velocity=95 time=0.2654865
EXTRACT: note_on channel=0 note=43 velocity=95 time=0
EXTRACT: note_off channel=9 note=42 velocity=95 time=0
EXTRACT: note_off channel=9 note=36 velocity=95 time=0
EXTRACT: note_on channel=9 note=42 velocity=95 time=0
EXTRACT: note_on channel=9 note=38 velocity=95 time=0
EXTRACT: note_on channel=9 note=36 velocity=95 time=0
EXTRACT: note_off channel=2 note=73 velocity=127 time=0
EXTRACT: note_off channel=2 note=69 velocity=127 time=0
EXTRACT: note_off channel=2 note=64 velocity=95 time=0
EXTRACT: note_off channel=2 note=55 velocity=95 time=0
EXTRACT: note_off channel=2 note=43 velocity=95 time=0
EXTRACT: note_on channel=2 note=69 velocity=47 time=0
EXTRACT: note_on channel=2 note=64 velocity=47 time=0
EXTRACT: note_on channel=2 note=55 velocity=95 time=0
EXTRACT: note_on channel=2 note=43 velocity=95 time=0
EXTRACT: note_off channel=4 note=61 velocity=95 time=0
EXTRACT: note_on channel=4 note=64 velocity=95 time=0
EXTRACT: note_on channel=4 note=61 velocity=95 time=0
EXTRACT: note_off channel=1 note=62 velocity=95 time=0.2654865
EXTRACT: note_off channel=0 note=43 velocity=95 time=0
EXTRACT: note_on channel=0 note=43 velocity=95 time=0
EXTRACT: note_off channel=9 note=42 velocity=95 time=0
EXTRACT: note_off channel=9 note=38 velocity=95 time=0
EXTRACT: note_off channel=9 note=36 velocity=95 time=0
EXTRACT: note_on channel=9 note=42 velocity=95 time=0
EXTRACT: note_on channel=9 note=36 velocity=95 time=0
EXTRACT: note_off channel=2 note=69 velocity=47 time=0
EXTRACT: note_off channel=2 note=64 velocity=47 time=0
EXTRACT: note_off channel=2 note=55 velocity=95 time=0
EXTRACT: note_off channel=2 note=43 velocity=95 time=0
EXTRACT: note_on channel=2 note=55 velocity=95 time=0
EXTRACT: note_on channel=2 note=43 velocity=95 time=0
EXTRACT: note_off channel=4 note=64 velocity=95 time=0
EXTRACT: note_on channel=4 note=69 velocity=95 time=0
EXTRACT: note_off channel=0 note=43 velocity=95 time=0.2654865
EXTRACT: note_on channel=0 note=43 velocity=95 time=0
EXTRACT: note_off channel=9 note=42 velocity=95 time=0
EXTRACT: note_off channel=9 note=36 velocity=95 time=0
EXTRACT: note_on channel=9 note=42 velocity=95 time=0
EXTRACT: note_on channel=9 note=38 velocity=95 time=0
EXTRACT: note_on channel=9 note=36 velocity=95 time=0
EXTRACT: note_off channel=2 note=55 velocity=95 time=0
EXTRACT: note_off channel=2 note=43 velocity=95 time=0
EXTRACT: note_on channel=2 note=55 velocity=95 time=0
EXTRACT: note_on channel=2 note=43 velocity=95 time=0
EXTRACT: note_off channel=4 note=61 velocity=95 time=0
EXTRACT: note_on channel=4 note=61 velocity=95 time=0
EXTRACT: note_on channel=8 note=79 velocity=127 time=0
EXTRACT: note_on channel=8 note=74 velocity=127 time=0
EXTRACT: note_off channel=0 note=43 velocity=95 time=0.2654865
EXTRACT: note_on channel=0 note=43 velocity=95 time=0
EXTRACT: note_off channel=9 note=42 velocity=95 time=0
EXTRACT: note_off channel=9 note=38 velocity=95 time=0
EXTRACT: note_off channel=9 note=36 velocity=95 time=0
EXTRACT: note_on channel=9 note=42 velocity=95 time=0
EXTRACT: note_on channel=9 note=36 velocity=95 time=0
EXTRACT: note_off channel=2 note=55 velocity=95 time=0
EXTRACT: note_off channel=2 note=43 velocity=95 time=0
EXTRACT: note_on channel=2 note=55 velocity=95 time=0
EXTRACT: note_on channel=2 note=43 velocity=95 time=0
EXTRACT: note_on channel=1 note=66 velocity=95 time=0.2654865
EXTRACT: note_off channel=0 note=43 velocity=95 time=0
EXTRACT: note_on channel=0 note=43 velocity=95 time=0
EXTRACT: note_off channel=9 note=42 velocity=95 time=0
EXTRACT: note_off channel=9 note=36 velocity=95 time=0
EXTRACT: note_on channel=9 note=49 velocity=95 time=0
EXTRACT: note_on channel=9 note=36 velocity=95 time=0
EXTRACT: note_off channel=2 note=55 velocity=95 time=0
EXTRACT: note_off channel=2 note=43 velocity=95 time=0
EXTRACT: note_on channel=2 note=71 velocity=95 time=0
EXTRACT: note_on channel=2 note=67 velocity=95 time=0
EXTRACT: note_on channel=2 note=62 velocity=95 time=0
EXTRACT: note_on channel=2 note=55 velocity=95 time=0
EXTRACT: note_on channel=2 note=43 velocity=95 time=0
EXTRACT: note_off channel=4 note=69 velocity=95 time=0
EXTRACT: note_off channel=4 note=61 velocity=95 time=0
EXTRACT: note_on channel=4 note=67 velocity=95 time=0
EXTRACT: note_on channel=4 note=59 velocity=95 time=0
EXTRACT: note_on channel=4 note=55 velocity=95 time=0
EXTRACT: note_on channel=4 note=50 velocity=95 time=0
EXTRACT: note_on channel=4 note=43 velocity=95 time=0
EXTRACT: note_off channel=6 note=64 velocity=95 time=0
EXTRACT: note_off channel=6 note=61 velocity=95 time=0
EXTRACT: note_off channel=6 note=57 velocity=95 time=0
EXTRACT: note_off channel=6 note=52 velocity=95 time=0
EXTRACT: note_off channel=6 note=43 velocity=95 time=0
EXTRACT: note_on channel=6 note=67 velocity=95 time=0
EXTRACT: note_on channel=6 note=59 velocity=95 time=0
EXTRACT: note_on channel=6 note=55 velocity=95 time=0
EXTRACT: note_on channel=6 note=50 velocity=95 time=0
EXTRACT: note_on channel=6 note=43 velocity=95 time=0
EXTRACT: note_off channel=8 note=79 velocity=127 time=0
EXTRACT: note_off channel=8 note=74 velocity=127 time=0
EXTRACT: note_on channel=8 note=81 velocity=79 time=0
EXTRACT: note_on channel=8 note=74 velocity=79 time=0
EXTRACT: note_off channel=1 note=66 velocity=95 time=0.2654865
EXTRACT: note_on channel=1 note=66 velocity=95 time=0
EXTRACT: note_off channel=0 note=43 velocity=95 time=0
EXTRACT: note_on channel=0 note=43 velocity=95 time=0
EXTRACT: note_off channel=9 note=49 velocity=95 time=0
EXTRACT: note_off channel=9 note=36 velocity=95 time=0
EXTRACT: note_on channel=9 note=42 velocity=95 time=0
EXTRACT: note_on channel=9 note=36 velocity=95 time=0
EXTRACT: note_off channel=2 note=71 velocity=95 time=0
EXTRACT: note_off channel=2 note=67 velocity=95 time=0
EXTRACT: note_off channel=2 note=62 velocity=95 time=0
EXTRACT: note_off channel=2 note=55 velocity=95 time=0
EXTRACT: note_off channel=2 note=43 velocity=95 time=0
EXTRACT: note_on channel=2 note=55 velocity=95 time=0
EXTRACT: note_on channel=2 note=43 velocity=95 time=0
EXTRACT: note_off channel=0 note=43 velocity=95 time=0.2654865
EXTRACT: note_on channel=0 note=43 velocity=95 time=0
EXTRACT: note_off channel=9 note=42 velocity=95 time=0
EXTRACT: note_off channel=9 note=36 velocity=95 time=0
EXTRACT: note_on channel=9 note=42 velocity=95 time=0
EXTRACT: note_on channel=9 note=38 velocity=95 time=0
EXTRACT: note_on channel=9 note=36 velocity=95 time=0
EXTRACT: note_off channel=2 note=55 velocity=95 time=0
EXTRACT: note_off channel=2 note=43 velocity=95 time=0
EXTRACT: note_on channel=2 note=55 velocity=95 time=0
EXTRACT: note_on channel=2 note=43 velocity=95 time=0
EXTRACT: note_off channel=1 note=66 velocity=95 time=0.2654865
EXTRACT: note_on channel=1 note=64 velocity=95 time=0
EXTRACT: note_off channel=0 note=43 velocity=95 time=0
EXTRACT: note_on channel=0 note=43 velocity=95 time=0
EXTRACT: note_off channel=9 note=42 velocity=95 time=0
EXTRACT: note_off channel=9 note=38 velocity=95 time=0
EXTRACT: note_off channel=9 note=36 velocity=95 time=0
EXTRACT: note_on channel=9 note=42 velocity=95 time=0
EXTRACT: note_on channel=9 note=36 velocity=95 time=0
EXTRACT: note_off channel=2 note=55 velocity=95 time=0
EXTRACT: note_off channel=2 note=43 velocity=95 time=0
EXTRACT: note_on channel=2 note=55 velocity=95 time=0
EXTRACT: note_on channel=2 note=43 velocity=95 time=0
EXTRACT: note_off channel=4 note=67 velocity=95 time=0
EXTRACT: note_off channel=4 note=59 velocity=95 time=0
EXTRACT: note_off channel=4 note=55 velocity=95 time=0
EXTRACT: note_on channel=4 note=67 velocity=95 time=0
EXTRACT: note_off channel=1 note=64 velocity=95 time=0.2654865
EXTRACT: note_on channel=1 note=64 velocity=95 time=0
EXTRACT: note_off channel=0 note=43 velocity=95 time=0
EXTRACT: note_on channel=0 note=43 velocity=95 time=0
EXTRACT: note_off channel=9 note=42 velocity=95 time=0
EXTRACT: note_off channel=9 note=36 velocity=95 time=0
EXTRACT: note_on channel=9 note=42 velocity=95 time=0
EXTRACT: note_on channel=9 note=38 velocity=95 time=0
EXTRACT: note_on channel=9 note=36 velocity=95 time=0
EXTRACT: note_off channel=2 note=55 velocity=95 time=0
EXTRACT: note_off channel=2 note=43 velocity=95 time=0
EXTRACT: note_on channel=2 note=55 velocity=95 time=0
EXTRACT: note_on channel=2 note=43 velocity=95 time=0
EXTRACT: note_off channel=4 note=67 velocity=95 time=0
EXTRACT: note_on channel=4 note=66 velocity=95 time=0
EXTRACT: note_off channel=0 note=43 velocity=95 time=0.2654865
EXTRACT: note_on channel=0 note=43 velocity=95 time=0
EXTRACT: note_off channel=9 note=42 velocity=95 time=0
EXTRACT: note_off channel=9 note=38 velocity=95 time=0
EXTRACT: note_off channel=9 note=36 velocity=95 time=0
EXTRACT: note_on channel=9 note=42 velocity=95 time=0
EXTRACT: note_on channel=9 note=36 velocity=95 time=0
EXTRACT: note_off channel=2 note=55 velocity=95 time=0
EXTRACT: note_off channel=2 note=43 velocity=95 time=0
EXTRACT: note_on channel=2 note=71 velocity=95 time=0
EXTRACT: note_on channel=2 note=67 velocity=95 time=0
EXTRACT: note_on channel=2 note=62 velocity=95 time=0
EXTRACT: note_on channel=2 note=55 velocity=95 time=0
EXTRACT: note_on channel=2 note=43 velocity=95 time=0
EXTRACT: note_off channel=4 note=66 velocity=95 time=0
EXTRACT: note_on channel=4 note=62 velocity=95 time=0
EXTRACT: note_off channel=1 note=64 velocity=95 time=0.2654865
EXTRACT: note_on channel=1 note=62 velocity=95 time=0
EXTRACT: note_off channel=0 note=43 velocity=95 time=0
EXTRACT: note_on channel=0 note=43 velocity=95 time=0
EXTRACT: note_off channel=9 note=42 velocity=95 time=0
EXTRACT: note_off channel=9 note=36 velocity=95 time=0
EXTRACT: note_on channel=9 note=42 velocity=95 time=0
EXTRACT: note_on channel=9 note=38 velocity=95 time=0
EXTRACT: note_on channel=9 note=36 velocity=95 time=0
EXTRACT: note_off channel=2 note=71 velocity=95 time=0
EXTRACT: note_off channel=2 note=67 velocity=95 time=0
EXTRACT: note_off channel=2 note=62 velocity=95 time=0
EXTRACT: note_off channel=2 note=55 velocity=95 time=0
EXTRACT: note_off channel=2 note=43 velocity=95 time=0
EXTRACT: note_on channel=2 note=71 velocity=47 time=0
EXTRACT: note_on channel=2 note=62 velocity=47 time=0
EXTRACT: note_on channel=2 note=55 velocity=95 time=0
EXTRACT: note_on channel=2 note=43 velocity=95 time=0
EXTRACT: note_off channel=4 note=62 velocity=95 time=0
EXTRACT: note_on channel=4 note=59 velocity=95 time=0
EXTRACT: note_off channel=1 note=62 velocity=95 time=0.2654865
EXTRACT: note_on channel=1 note=59 velocity=95 time=0
EXTRACT: note_off channel=0 note=43 velocity=95 time=0
EXTRACT: note_on channel=0 note=43 velocity=95 time=0
EXTRACT: note_off channel=9 note=42 velocity=95 time=0
EXTRACT: note_off channel=9 note=38 velocity=95 time=0
EXTRACT: note_off channel=9 note=36 velocity=95 time=0
EXTRACT: note_on channel=9 note=42 velocity=95 time=0
EXTRACT: note_on channel=9 note=36 velocity=95 time=0
EXTRACT: note_off channel=2 note=71 velocity=47 time=0
EXTRACT: note_off channel=2 note=62 velocity=47 time=0
EXTRACT: note_off channel=2 note=55 velocity=95 time=0
EXTRACT: note_off channel=2 note=43 velocity=95 time=0
EXTRACT: note_on channel=2 note=55 velocity=95 time=0
EXTRACT: note_on channel=2 note=43 velocity=95 time=0
EXTRACT: note_off channel=1 note=59 velocity=95 time=0.2654865
EXTRACT: note_off channel=0 note=43 velocity=95 time=0
EXTRACT: note_on channel=0 note=43 velocity=95 time=0
EXTRACT: note_off channel=9 note=42 velocity=95 time=0
EXTRACT: note_off channel=9 note=36 velocity=95 time=0
EXTRACT: note_on channel=9 note=42 velocity=95 time=0
EXTRACT: note_on channel=9 note=38 velocity=95 time=0
EXTRACT: note_on channel=9 note=36 velocity=95 time=0
EXTRACT: note_off channel=2 note=55 velocity=95 time=0
EXTRACT: note_off channel=2 note=43 velocity=95 time=0
EXTRACT: note_on channel=2 note=73 velocity=127 time=0
EXTRACT: note_on channel=2 note=69 velocity=127 time=0
EXTRACT: note_on channel=2 note=64 velocity=95 time=0
EXTRACT: note_on channel=2 note=55 velocity=95 time=0
EXTRACT: note_on channel=2 note=43 velocity=95 time=0
EXTRACT: note_off channel=4 note=50 velocity=95 time=0
EXTRACT: note_off channel=4 note=43 velocity=95 time=0
EXTRACT: note_off channel=4 note=59 velocity=95 time=0
EXTRACT: note_on channel=4 note=67 velocity=95 time=0
EXTRACT: note_on channel=4 note=61 velocity=95 time=0
EXTRACT: note_on channel=4 note=57 velocity=95 time=0
EXTRACT: note_on channel=4 note=52 velocity=95 time=0
EXTRACT: note_on channel=4 note=43 velocity=95 time=0
EXTRACT: note_off channel=6 note=67 velocity=95 time=0
EXTRACT: note_off channel=6 note=59 velocity=95 time=0
EXTRACT: note_off channel=6 note=55 velocity=95 time=0
EXTRACT: note_off channel=6 note=50 velocity=95 time=0
EXTRACT: note_off channel=6 note=43 velocity=95 time=0
EXTRACT: note_on channel=6 note=64 velocity=95 time=0
EXTRACT: note_on channel=6 note=61 velocity=95 time=0
EXTRACT: note_on channel=6 note=57 velocity=95 time=0
EXTRACT: note_on channel=6 note=52 velocity=95 time=0
EXTRACT: note_on channel=6 note=43 velocity=95 time=0
EXTRACT: note_off channel=8 note=81 velocity=79 time=0
EXTRACT: note_off channel=8 note=74 velocity=79 time=0
EXTRACT: note_on channel=1 note=62 velocity=95 time=0.2654865
EXTRACT: note_off channel=0 note=43 velocity=95 time=0
EXTRACT: note_on channel=0 note=43 velocity=95 time=0
EXTRACT: note_off channel=9 note=42 velocity=95 time=0
EXTRACT: note_off channel=9 note=38 velocity=95 time=0
EXTRACT: note_off channel=9 note=36 velocity=95 time=0
EXTRACT: note_on channel=9 note=42 velocity=95 time=0
EXTRACT: note_on channel=9 note=36 velocity=95 time=0
EXTRACT: note_off channel=2 note=73 velocity=127 time=0
EXTRACT: note_off channel=2 note=69 velocity=127 time=0
EXTRACT: note_off channel=2 note=64 velocity=95 time=0
EXTRACT: note_off channel=2 note=55 velocity=95 time=0
EXTRACT: note_off channel=2 note=43 velocity=95 time=0
EXTRACT: note_on channel=2 note=55 velocity=95 time=0
EXTRACT: note_on channel=2 note=43 velocity=95 time=0
EXTRACT: note_on channel=11 note=74 velocity=95 time=0
EXTRACT: note_off channel=1 note=62 velocity=95 time=0.2654865
EXTRACT: note_on channel=1 note=62 velocity=95 time=0
EXTRACT: note_off channel=0 note=43 velocity=95 time=0
EXTRACT: note_on channel=0 note=43 velocity=95 time=0
EXTRACT: note_off channel=9 note=42 velocity=95 time=0
EXTRACT: note_off channel=9 note=36 velocity=95 time=0
EXTRACT: note_on channel=9 note=42 velocity=95 time=0
EXTRACT: note_on channel=9 note=38 velocity=95 time=0
EXTRACT: note_on channel=9 note=36 velocity=95 time=0
EXTRACT: note_off channel=2 note=55 velocity=95 time=0
EXTRACT: note_off channel=2 note=43 velocity=95 time=0
EXTRACT: note_on channel=2 note=55 velocity=95 time=0
EXTRACT: note_on channel=2 note=43 velocity=95 time=0
EXTRACT: note_off channel=11 note=74 velocity=95 time=0
EXTRACT: note_on channel=11 note=74 velocity=95 time=0
EXTRACT: note_off channel=1 note=62 velocity=95 time=0.2654865
EXTRACT: note_on channel=1 note=59 velocity=95 time=0
EXTRACT: note_off channel=0 note=43 velocity=95 time=0
EXTRACT: note_on channel=0 note=43 velocity=95 time=0
EXTRACT: note_off channel=9 note=42 velocity=95 time=0
EXTRACT: note_off channel=9 note=38 velocity=95 time=0
EXTRACT: note_off channel=9 note=36 velocity=95 time=0
EXTRACT: note_on channel=9 note=42 velocity=95 time=0
EXTRACT: note_on channel=9 note=36 velocity=95 time=0
EXTRACT: note_off channel=2 note=55 velocity=95 time=0
EXTRACT: note_off channel=2 note=43 velocity=95 time=0
EXTRACT: note_on channel=2 note=73 velocity=127 time=0
EXTRACT: note_on channel=2 note=69 velocity=127 time=0
EXTRACT: note_on channel=2 note=64 velocity=95 time=0
EXTRACT: note_on channel=2 note=55 velocity=95 time=0
EXTRACT: note_on channel=2 note=43 velocity=95 time=0
EXTRACT: note_off channel=4 note=67 velocity=95 time=0
EXTRACT: note_off channel=4 note=61 velocity=95 time=0
EXTRACT: note_off channel=4 note=57 velocity=95 time=0
EXTRACT: note_off channel=4 note=52 velocity=95 time=0
EXTRACT: note_off channel=4 note=43 velocity=95 time=0
EXTRACT: note_on channel=4 note=61 velocity=95 time=0
EXTRACT: note_off channel=11 note=74 velocity=95 time=0
EXTRACT: note_on channel=11 note=71 velocity=95 time=0
EXTRACT: note_off channel=1 note=59 velocity=95 time=0.2654865
EXTRACT: note_off channel=0 note=43 velocity=95 time=0
EXTRACT: note_on channel=0 note=43 velocity=95 time=0
EXTRACT: note_off channel=9 note=42 velocity=95 time=0
EXTRACT: note_off channel=9 note=36 velocity=95 time=0
EXTRACT: note_on channel=9 note=42 velocity=95 time=0
EXTRACT: note_on channel=9 note=38 velocity=95 time=0
EXTRACT: note_on channel=9 note=36 velocity=95 time=0
EXTRACT: note_off channel=2 note=73 velocity=127 time=0
EXTRACT: note_off channel=2 note=69 velocity=127 time=0
EXTRACT: note_off channel=2 note=64 velocity=95 time=0
EXTRACT: note_off channel=2 note=55 velocity=95 time=0
EXTRACT: note_off channel=2 note=43 velocity=95 time=0
EXTRACT: note_on channel=2 note=69 velocity=111 time=0
EXTRACT: note_on channel=2 note=64 velocity=47 time=0
EXTRACT: note_on channel=2 note=55 velocity=95 time=0
EXTRACT: note_on channel=2 note=43 velocity=95 time=0
EXTRACT: note_off channel=4 note=61 velocity=95 time=0
EXTRACT: note_on channel=4 note=64 velocity=95 time=0
EXTRACT: note_on channel=4 note=61 velocity=95 time=0
EXTRACT: note_off channel=11 note=71 velocity=95 time=0
EXTRACT: note_off channel=0 note=43 velocity=95 time=0.2654865
EXTRACT: note_on channel=0 note=43 velocity=95 time=0
EXTRACT: note_off channel=9 note=42 velocity=95 time=0
EXTRACT: note_off channel=9 note=38 velocity=95 time=0
EXTRACT: note_off channel=9 note=36 velocity=95 time=0
EXTRACT: note_on channel=9 note=42 velocity=95 time=0
EXTRACT: note_on channel=9 note=36 velocity=95 time=0
EXTRACT: note_off channel=2 note=69 velocity=111 time=0
EXTRACT: note_off channel=2 note=64 velocity=47 time=0
EXTRACT: note_off channel=2 note=55 velocity=95 time=0
EXTRACT: note_off channel=2 note=43 velocity=95 time=0
EXTRACT: note_on channel=2 note=55 velocity=95 time=0
EXTRACT: note_on channel=2 note=43 velocity=95 time=0
EXTRACT: note_off channel=4 note=64 velocity=95 time=0
EXTRACT: note_on channel=4 note=69 velocity=95 time=0
EXTRACT: note_off channel=0 note=43 velocity=95 time=0.2654865
EXTRACT: note_on channel=0 note=43 velocity=95 time=0
EXTRACT: note_off channel=9 note=42 velocity=95 time=0
EXTRACT: note_off channel=9 note=36 velocity=95 time=0
EXTRACT: note_on channel=9 note=42 velocity=95 time=0
EXTRACT: note_on channel=9 note=38 velocity=95 time=0
EXTRACT: note_on channel=9 note=36 velocity=95 time=0
EXTRACT: note_off channel=2 note=55 velocity=95 time=0
EXTRACT: note_off channel=2 note=43 velocity=95 time=0
EXTRACT: note_on channel=2 note=55 velocity=95 time=0
EXTRACT: note_on channel=2 note=43 velocity=95 time=0
EXTRACT: note_off channel=4 note=61 velocity=95 time=0
EXTRACT: note_on channel=4 note=61 velocity=95 time=0
EXTRACT: note_off channel=0 note=43 velocity=95 time=0.2654865
EXTRACT: note_on channel=0 note=43 velocity=95 time=0
EXTRACT: note_off channel=9 note=42 velocity=95 time=0
EXTRACT: note_off channel=9 note=38 velocity=95 time=0
EXTRACT: note_off channel=9 note=36 velocity=95 time=0
EXTRACT: note_on channel=9 note=42 velocity=95 time=0
EXTRACT: note_on channel=9 note=36 velocity=95 time=0
EXTRACT: note_off channel=2 note=55 velocity=95 time=0
EXTRACT: note_off channel=2 note=43 velocity=95 time=0
EXTRACT: note_on channel=2 note=55 velocity=95 time=0
EXTRACT: note_on channel=2 note=43 velocity=95 time=0
EXTRACT: note_on channel=11 note=55 velocity=95 time=0
EXTRACT: note_off channel=11 note=55 velocity=95 time=0.13274325
EXTRACT: note_on channel=11 note=57 velocity=95 time=0
EXTRACT: note_off channel=0 note=43 velocity=95 time=0.13274325
EXTRACT: note_on channel=0 note=43 velocity=95 time=0
EXTRACT: note_off channel=9 note=42 velocity=95 time=0
EXTRACT: note_off channel=9 note=36 velocity=95 time=0
EXTRACT: note_on channel=9 note=49 velocity=95 time=0
EXTRACT: note_on channel=9 note=36 velocity=95 time=0
EXTRACT: note_off channel=2 note=55 velocity=95 time=0
EXTRACT: note_off channel=2 note=43 velocity=95 time=0
EXTRACT: note_on channel=2 note=71 velocity=127 time=0
EXTRACT: note_on channel=2 note=67 velocity=127 time=0
EXTRACT: note_on channel=2 note=62 velocity=95 time=0
EXTRACT: note_on channel=2 note=55 velocity=95 time=0
EXTRACT: note_on channel=2 note=43 velocity=95 time=0
EXTRACT: note_off channel=4 note=69 velocity=95 time=0
EXTRACT: note_off channel=4 note=61 velocity=95 time=0
EXTRACT: note_on channel=4 note=67 velocity=95 time=0
EXTRACT: note_on channel=4 note=59 velocity=95 time=0
EXTRACT: note_on channel=4 note=55 velocity=95 time=0
EXTRACT: note_on channel=4 note=50 velocity=95 time=0
EXTRACT: note_on channel=4 note=43 velocity=95 time=0
EXTRACT: note_off channel=6 note=64 velocity=95 time=0
EXTRACT: note_off channel=6 note=61 velocity=95 time=0
EXTRACT: note_off channel=6 note=57 velocity=95 time=0
EXTRACT: note_off channel=6 note=52 velocity=95 time=0
EXTRACT: note_off channel=6 note=43 velocity=95 time=0
EXTRACT: note_on channel=6 note=67 velocity=95 time=0
EXTRACT: note_on channel=6 note=59 velocity=95 time=0
EXTRACT: note_on channel=6 note=55 velocity=95 time=0
EXTRACT: note_on channel=6 note=50 velocity=95 time=0
EXTRACT: note_on channel=6 note=43 velocity=95 time=0
EXTRACT: note_off channel=11 note=57 velocity=95 time=0
EXTRACT: note_on channel=11 note=64 velocity=95 time=0
EXTRACT: note_off channel=0 note=43 velocity=95 time=0.2654865
EXTRACT: note_on channel=0 note=43 velocity=95 time=0
EXTRACT: note_off channel=9 note=49 velocity=95 time=0
EXTRACT: note_off channel=9 note=36 velocity=95 time=0
EXTRACT: note_on channel=9 note=42 velocity=95 time=0
EXTRACT: note_on channel=9 note=36 velocity=95 time=0
EXTRACT: note_off channel=2 note=71 velocity=127 time=0
EXTRACT: note_off channel=2 note=67 velocity=127 time=0
EXTRACT: note_off channel=2 note=62 velocity=95 time=0
EXTRACT: note_off channel=2 note=55 velocity=95 time=0
EXTRACT: note_off channel=2 note=43 velocity=95 time=0
EXTRACT: note_on channel=2 note=55 velocity=95 time=0
EXTRACT: note_on channel=2 note=43 velocity=95 time=0
EXTRACT: note_off channel=0 note=43 velocity=95 time=0.2654865
EXTRACT: note_on channel=0 note=43 velocity=95 time=0
EXTRACT: note_off channel=9 note=42 velocity=95 time=0
EXTRACT: note_off channel=9 note=36 velocity=95 time=0
EXTRACT: note_on channel=9 note=42 velocity=95 time=0
EXTRACT: note_on channel=9 note=38 velocity=95 time=0
EXTRACT: note_on channel=9 note=36 velocity=95 time=0
EXTRACT: note_off channel=2 note=55 velocity=95 time=0
EXTRACT: note_off channel=2 note=43 velocity=95 time=0
EXTRACT: note_on channel=2 note=55 velocity=95 time=0
EXTRACT: note_on channel=2 note=43 velocity=95 time=0
EXTRACT: note_off channel=0 note=43 velocity=95 time=0.2654865
EXTRACT: note_on channel=0 note=43 velocity=95 time=0
EXTRACT: note_off channel=9 note=42 velocity=95 time=0
EXTRACT: note_off channel=9 note=38 velocity=95 time=0
EXTRACT: note_off channel=9 note=36 velocity=95 time=0
EXTRACT: note_on channel=9 note=42 velocity=95 time=0
EXTRACT: note_on channel=9 note=36 velocity=95 time=0
EXTRACT: note_off channel=2 note=55 velocity=95 time=0
EXTRACT: note_off channel=2 note=43 velocity=95 time=0
EXTRACT: note_on channel=2 note=71 velocity=127 time=0
EXTRACT: note_on channel=2 note=67 velocity=127 time=0
EXTRACT: note_on channel=2 note=62 velocity=95 time=0
EXTRACT: note_on channel=2 note=55 velocity=95 time=0
EXTRACT: note_on channel=2 note=43 velocity=95 time=0
EXTRACT: note_off channel=4 note=67 velocity=95 time=0
EXTRACT: note_off channel=4 note=59 velocity=95 time=0
EXTRACT: note_off channel=4 note=55 velocity=95 time=0
EXTRACT: note_on channel=4 note=67 velocity=95 time=0
EXTRACT: note_off channel=11 note=64 velocity=95 time=0
EXTRACT: note_on channel=11 note=59 velocity=95 time=0
EXTRACT: note_off channel=0 note=43 velocity=95 time=0.2654865
EXTRACT: note_on channel=0 note=43 velocity=95 time=0
EXTRACT: note_off channel=9 note=42 velocity=95 time=0
EXTRACT: note_off channel=9 note=36 velocity=95 time=0
EXTRACT: note_on channel=9 note=42 velocity=95 time=0
EXTRACT: note_on channel=9 note=38 velocity=95 time=0
EXTRACT: note_on channel=9 note=36 velocity=95 time=0
EXTRACT: note_off channel=2 note=71 velocity=127 time=0
EXTRACT: note_off channel=2 note=67 velocity=127 time=0
EXTRACT: note_off channel=2 note=62 velocity=95 time=0
EXTRACT: note_off channel=2 note=55 velocity=95 time=0
EXTRACT: note_off channel=2 note=43 velocity=95 time=0
EXTRACT: note_on channel=2 note=67 velocity=111 time=0
EXTRACT: note_on channel=2 note=62 velocity=47 time=0
EXTRACT: note_on channel=2 note=55 velocity=95 time=0
EXTRACT: note_on channel=2 note=43 velocity=95 time=0
EXTRACT: note_off channel=4 note=67 velocity=95 time=0
EXTRACT: note_on channel=4 note=66 velocity=95 time=0
EXTRACT: note_off channel=11 note=59 velocity=95 time=0
EXTRACT: note_off channel=0 note=43 velocity=95 time=0.2654865
EXTRACT: note_on channel=0 note=43 velocity=95 time=0
EXTRACT: note_off channel=9 note=42 velocity=95 time=0
EXTRACT: note_off channel=9 note=38 velocity=95 time=0
EXTRACT: note_off channel=9 note=36 velocity=95 time=0
EXTRACT: note_on channel=9 note=42 velocity=95 time=0
EXTRACT: note_on channel=9 note=36 velocity=95 time=0
EXTRACT: note_off channel=2 note=67 velocity=111 time=0
EXTRACT: note_off channel=2 note=62 velocity=47 time=0
EXTRACT: note_off channel=2 note=55 velocity=95 time=0
EXTRACT: note_off channel=2 note=43 velocity=95 time=0
EXTRACT: note_on channel=2 note=55 velocity=95 time=0
EXTRACT: note_on channel=2 note=43 velocity=95 time=0
EXTRACT: note_off channel=4 note=66 velocity=95 time=0
EXTRACT: note_on channel=4 note=62 velocity=95 time=0
EXTRACT: note_off channel=0 note=43 velocity=95 time=0.2654865
EXTRACT: note_on channel=0 note=43 velocity=95 time=0
EXTRACT: note_off channel=9 note=42 velocity=95 time=0
EXTRACT: note_off channel=9 note=36 velocity=95 time=0
EXTRACT: note_on channel=9 note=42 velocity=95 time=0
EXTRACT: note_on channel=9 note=38 velocity=95 time=0
EXTRACT: note_on channel=9 note=36 velocity=95 time=0
EXTRACT: note_off channel=2 note=55 velocity=95 time=0
EXTRACT: note_off channel=2 note=43 velocity=95 time=0
EXTRACT: note_on channel=2 note=71 velocity=127 time=0
EXTRACT: note_on channel=2 note=67 velocity=127 time=0
EXTRACT: note_on channel=2 note=62 velocity=95 time=0
EXTRACT: note_on channel=2 note=55 velocity=95 time=0
EXTRACT: note_on channel=2 note=43 velocity=95 time=0
EXTRACT: note_off channel=4 note=62 velocity=95 time=0
EXTRACT: note_on channel=4 note=59 velocity=95 time=0
EXTRACT: note_off channel=0 note=43 velocity=95 time=0.2654865
EXTRACT: note_on channel=0 note=43 velocity=95 time=0
EXTRACT: note_off channel=9 note=42 velocity=95 time=0
EXTRACT: note_off channel=9 note=38 velocity=95 time=0
EXTRACT: note_off channel=9 note=36 velocity=95 time=0
EXTRACT: note_on channel=9 note=42 velocity=95 time=0
EXTRACT: note_on channel=9 note=36 velocity=95 time=0
EXTRACT: note_off channel=2 note=71 velocity=127 time=0
EXTRACT: note_off channel=2 note=67 velocity=127 time=0
EXTRACT: note_off channel=2 note=62 velocity=95 time=0
EXTRACT: note_off channel=2 note=55 velocity=95 time=0
EXTRACT: note_off channel=2 note=43 velocity=95 time=0
EXTRACT: note_on channel=2 note=55 velocity=95 time=0
EXTRACT: note_on channel=2 note=43 velocity=95 time=0
EXTRACT: note_on channel=11 note=55 velocity=95 time=0
EXTRACT: note_off channel=11 note=55 velocity=95 time=0.13274325
EXTRACT: note_on channel=11 note=57 velocity=95 time=0
EXTRACT: note_off channel=0 note=43 velocity=95 time=0.13274325
EXTRACT: note_on channel=0 note=43 velocity=95 time=0
EXTRACT: note_off channel=9 note=42 velocity=95 time=0
EXTRACT: note_off channel=9 note=36 velocity=95 time=0
EXTRACT: note_on channel=9 note=42 velocity=95 time=0
EXTRACT: note_on channel=9 note=38 velocity=95 time=0
EXTRACT: note_on channel=9 note=36 velocity=95 time=0
EXTRACT: note_off channel=2 note=55 velocity=95 time=0
EXTRACT: note_off channel=2 note=43 velocity=95 time=0
EXTRACT: note_on channel=2 note=73 velocity=127 time=0
EXTRACT: note_on channel=2 note=69 velocity=127 time=0
EXTRACT: note_on channel=2 note=64 velocity=95 time=0
EXTRACT: note_on channel=2 note=55 velocity=95 time=0
EXTRACT: note_on channel=2 note=43 velocity=95 time=0
EXTRACT: note_off channel=4 note=50 velocity=95 time=0
EXTRACT: note_off channel=4 note=43 velocity=95 time=0
EXTRACT: note_off channel=4 note=59 velocity=95 time=0
EXTRACT: note_on channel=4 note=67 velocity=95 time=0
EXTRACT: note_on channel=4 note=61 velocity=95 time=0
EXTRACT: note_on channel=4 note=57 velocity=95 time=0
EXTRACT: note_on channel=4 note=52 velocity=95 time=0
EXTRACT: note_on channel=4 note=43 velocity=95 time=0
EXTRACT: note_off channel=6 note=67 velocity=95 time=0
EXTRACT: note_off channel=6 note=59 velocity=95 time=0
EXTRACT: note_off channel=6 note=55 velocity=95 time=0
EXTRACT: note_off channel=6 note=50 velocity=95 time=0
EXTRACT: note_off channel=6 note=43 velocity=95 time=0
EXTRACT: note_on channel=6 note=64 velocity=95 time=0
EXTRACT: note_on channel=6 note=61 velocity=95 time=0
EXTRACT: note_on channel=6 note=57 velocity=95 time=0
EXTRACT: note_on channel=6 note=52 velocity=95 time=0
EXTRACT: note_on channel=6 note=43 velocity=95 time=0
EXTRACT: note_off channel=11 note=57 velocity=95 time=0
EXTRACT: note_on channel=11 note=66 velocity=95 time=0
EXTRACT: note_off channel=0 note=43 velocity=95 time=0.2654865
EXTRACT: note_on channel=0 note=43 velocity=95 time=0
EXTRACT: note_off channel=9 note=42 velocity=95 time=0
EXTRACT: note_off channel=9 note=38 velocity=95 time=0
EXTRACT: note_off channel=9 note=36 velocity=95 time=0
EXTRACT: note_on channel=9 note=42 velocity=95 time=0
EXTRACT: note_on channel=9 note=36 velocity=95 time=0
EXTRACT: note_off channel=2 note=73 velocity=127 time=0
EXTRACT: note_off channel=2 note=69 velocity=127 time=0
EXTRACT: note_off channel=2 note=64 velocity=95 time=0
EXTRACT: note_off channel=2 note=55 velocity=95 time=0
EXTRACT: note_off channel=2 note=43 velocity=95 time=0
EXTRACT: note_on channel=2 note=55 velocity=95 time=0
EXTRACT: note_on channel=2 note=43 velocity=95 time=0
EXTRACT: note_off channel=0 note=43 velocity=95 time=0.2654865
EXTRACT: note_on channel=0 note=43 velocity=95 time=0
EXTRACT: note_off channel=9 note=42 velocity=95 time=0
EXTRACT: note_off channel=9 note=36 velocity=95 time=0
EXTRACT: note_on channel=9 note=42 velocity=95 time=0
EXTRACT: note_on channel=9 note=38 velocity=95 time=0
EXTRACT: note_on channel=9 note=36 velocity=95 time=0
EXTRACT: note_off channel=2 note=55 velocity=95 time=0
EXTRACT: note_off channel=2 note=43 velocity=95 time=0
EXTRACT: note_on channel=2 note=55 velocity=95 time=0
EXTRACT: note_on channel=2 note=43 velocity=95 time=0
EXTRACT: note_off channel=0 note=43 velocity=95 time=0.2654865
EXTRACT: note_on channel=0 note=43 velocity=95 time=0
EXTRACT: note_off channel=9 note=42 velocity=95 time=0
EXTRACT: note_off channel=9 note=38 velocity=95 time=0
EXTRACT: note_off channel=9 note=36 velocity=95 time=0
EXTRACT: note_on channel=9 note=42 velocity=95 time=0
EXTRACT: note_on channel=9 note=36 velocity=95 time=0
EXTRACT: note_off channel=2 note=55 velocity=95 time=0
EXTRACT: note_off channel=2 note=43 velocity=95 time=0
EXTRACT: note_on channel=2 note=73 velocity=127 time=0
EXTRACT: note_on channel=2 note=69 velocity=127 time=0
EXTRACT: note_on channel=2 note=64 velocity=95 time=0
EXTRACT: note_on channel=2 note=55 velocity=95 time=0
EXTRACT: note_on channel=2 note=43 velocity=95 time=0
EXTRACT: note_off channel=4 note=67 velocity=95 time=0
EXTRACT: note_off channel=4 note=61 velocity=95 time=0
EXTRACT: note_off channel=4 note=57 velocity=95 time=0
EXTRACT: note_off channel=4 note=52 velocity=95 time=0
EXTRACT: note_off channel=4 note=43 velocity=95 time=0
EXTRACT: note_on channel=4 note=61 velocity=95 time=0
EXTRACT: note_off channel=11 note=66 velocity=95 time=0
EXTRACT: note_on channel=11 note=64 velocity=95 time=0
EXTRACT: note_off channel=0 note=43 velocity=95 time=0.2654865
EXTRACT: note_on channel=0 note=43 velocity=95 time=0
EXTRACT: note_off channel=9 note=42 velocity=95 time=0
EXTRACT: note_off channel=9 note=36 velocity=95 time=0
EXTRACT: note_on channel=9 note=42 velocity=95 time=0
EXTRACT: note_on channel=9 note=38 velocity=95 time=0
EXTRACT: note_on channel=9 note=36 velocity=95 time=0
EXTRACT: note_off channel=2 note=73 velocity=127 time=0
EXTRACT: note_off channel=2 note=69 velocity=127 time=0
EXTRACT: note_off channel=2 note=64 velocity=95 time=0
EXTRACT: note_off channel=2 note=55 velocity=95 time=0
EXTRACT: note_off channel=2 note=43 velocity=95 time=0
EXTRACT: note_on channel=2 note=69 velocity=111 time=0
EXTRACT: note_on channel=2 note=64 velocity=47 time=0
EXTRACT: note_on channel=2 note=55 velocity=95 time=0
EXTRACT: note_on channel=2 note=43 velocity=95 time=0
EXTRACT: note_off channel=4 note=61 velocity=95 time=0
EXTRACT: note_on channel=4 note=64 velocity=95 time=0
EXTRACT: note_on channel=4 note=61 velocity=95 time=0
EXTRACT: note_off channel=0 note=43 velocity=95 time=0.2654865
EXTRACT: note_on channel=0 note=43 velocity=95 time=0
EXTRACT: note_off channel=9 note=42 velocity=95 time=0
EXTRACT: note_off channel=9 note=38 velocity=95 time=0
EXTRACT: note_off channel=9 note=36 velocity=95 time=0
EXTRACT: note_on channel=9 note=42 velocity=95 time=0
EXTRACT: note_on channel=9 note=36 velocity=95 time=0
EXTRACT: note_off channel=2 note=69 velocity=111 time=0
EXTRACT: note_off channel=2 note=64 velocity=47 time=0
EXTRACT: note_off channel=2 note=55 velocity=95 time=0
EXTRACT: note_off channel=2 note=43 velocity=95 time=0
EXTRACT: note_on channel=2 note=55 velocity=95 time=0
EXTRACT: note_on channel=2 note=43 velocity=95 time=0
EXTRACT: note_off channel=4 note=64 velocity=95 time=0
EXTRACT: note_on channel=4 note=69 velocity=95 time=0
EXTRACT: note_off channel=11 note=64 velocity=95 time=0
EXTRACT: note_off channel=0 note=43 velocity=95 time=0.2654865
EXTRACT: note_on channel=0 note=43 velocity=95 time=0
EXTRACT: note_off channel=9 note=42 velocity=95 time=0
EXTRACT: note_off channel=9 note=36 velocity=95 time=0
EXTRACT: note_on channel=9 note=38 velocity=95 time=0
EXTRACT: note_off channel=2 note=55 velocity=95 time=0
EXTRACT: note_off channel=2 note=43 velocity=95 time=0
EXTRACT: note_on channel=2 note=55 velocity=95 time=0
EXTRACT: note_on channel=2 note=43 velocity=95 time=0
EXTRACT: note_off channel=4 note=61 velocity=95 time=0
EXTRACT: note_on channel=4 note=61 velocity=95 time=0
EXTRACT: note_on channel=8 note=79 velocity=127 time=0
EXTRACT: note_on channel=8 note=74 velocity=127 time=0
EXTRACT: note_on channel=1 note=57 velocity=95 time=0.2654865
EXTRACT: note_off channel=0 note=43 velocity=95 time=0
EXTRACT: note_on channel=0 note=43 velocity=95 time=0
EXTRACT: note_off channel=9 note=38 velocity=95 time=0
EXTRACT: note_on channel=9 note=36 velocity=95 time=0
EXTRACT: note_off channel=2 note=55 velocity=95 time=0
EXTRACT: note_off channel=2 note=43 velocity=95 time=0
EXTRACT: note_on channel=2 note=55 velocity=95 time=0
EXTRACT: note_on channel=2 note=43 velocity=95 time=0
EXTRACT: note_on channel=11 note=57 velocity=95 time=0
EXTRACT: note_off channel=1 note=57 velocity=95 time=0.13274325
EXTRACT: note_on channel=1 note=59 velocity=95 time=0
EXTRACT: note_off channel=11 note=57 velocity=95 time=0
EXTRACT: note_on channel=11 note=59 velocity=95 time=0
EXTRACT: note_off channel=1 note=59 velocity=95 time=0.13274325
EXTRACT: note_on channel=1 note=57 velocity=95 time=0
EXTRACT: note_off channel=0 note=43 velocity=95 time=0
EXTRACT: note_on channel=0 note=30 velocity=95 time=0
EXTRACT: note_off channel=9 note=36 velocity=95 time=0
EXTRACT: note_on channel=9 note=49 velocity=95 time=0
EXTRACT: note_on channel=9 note=36 velocity=95 time=0
EXTRACT: note_off channel=2 note=55 velocity=95 time=0
EXTRACT: note_off channel=2 note=43 velocity=95 time=0
EXTRACT: note_on channel=2 note=69 velocity=127 time=0
EXTRACT: note_on channel=2 note=66 velocity=127 time=0
EXTRACT: note_on channel=2 note=62 velocity=95 time=0
EXTRACT: note_on channel=2 note=54 velocity=95 time=0
EXTRACT: note_on channel=2 note=42 velocity=95 time=0
EXTRACT: note_off channel=4 note=69 velocity=95 time=0
EXTRACT: note_off channel=4 note=61 velocity=95 time=0
EXTRACT: note_on channel=4 note=57 velocity=95 time=0
EXTRACT: note_off channel=6 note=64 velocity=95 time=0
EXTRACT: note_off channel=6 note=61 velocity=95 time=0
EXTRACT: note_off channel=6 note=57 velocity=95 time=0
EXTRACT: note_off channel=6 note=52 velocity=95 time=0
EXTRACT: note_off channel=6 note=43 velocity=95 time=0
EXTRACT: note_on channel=6 note=50 velocity=95 time=0
EXTRACT: note_off channel=8 note=79 velocity=127 time=0
EXTRACT: note_off channel=8 note=74 velocity=127 time=0
EXTRACT: note_on channel=8 note=81 velocity=79 time=0
EXTRACT: note_on channel=8 note=74 velocity=79 time=0
EXTRACT: note_off channel=11 note=59 velocity=95 time=0
EXTRACT: note_on channel=11 note=57 velocity=95 time=0
EXTRACT: note_off channel=1 note=57 velocity=95 time=0.2654865
EXTRACT: note_on channel=4 note=62 velocity=95 time=0
EXTRACT: note_off channel=6 note=50 velocity=95 time=0
EXTRACT: note_on channel=6 note=57 velocity=95 time=0
EXTRACT: note_off channel=11 note=57 velocity=95 time=0
EXTRACT: note_off channel=9 note=49 velocity=95 time=0.2654865
EXTRACT: note_off channel=9 note=36 velocity=95 time=0
EXTRACT: note_off channel=4 note=62 velocity=95 time=0
EXTRACT: note_on channel=4 note=64 velocity=95 time=0
EXTRACT: note_off channel=6 note=57 velocity=95 time=0
EXTRACT: note_on channel=6 note=50 velocity=95 time=0
EXTRACT: note_on channel=1 note=62 velocity=95 time=0.2654865
EXTRACT: note_on channel=9 note=42 velocity=95 time=0
EXTRACT: note_on channel=9 note=38 velocity=95 time=0
EXTRACT: note_off channel=4 note=64 velocity=95 time=0
EXTRACT: note_on channel=4 note=62 velocity=95 time=0
EXTRACT: note_on channel=6 note=62 velocity=95 time=0
EXTRACT: note_on channel=11 note=62 velocity=95 time=0
EXTRACT: note_off channel=1 note=62 velocity=95 time=0.2654865
EXTRACT: note_off channel=9 note=42 velocity=95 time=0
EXTRACT: note_off channel=9 note=38 velocity=95 time=0
EXTRACT: note_on channel=9 note=42 velocity=95 time=0
EXTRACT: note_off channel=11 note=62 velocity=95 time=0
EXTRACT: note_on channel=1 note=57 velocity=95 time=0.2654865
EXTRACT: note_off channel=9 note=42 velocity=95 time=0
EXTRACT: note_on channel=9 note=42 velocity=95 time=0
EXTRACT: note_off channel=4 note=62 velocity=95 time=0
EXTRACT: note_on channel=4 note=61 velocity=95 time=0
EXTRACT: note_off channel=6 note=62 velocity=95 time=0
EXTRACT: note_on channel=6 note=61 velocity=95 time=0
EXTRACT: note_on channel=11 note=57 velocity=95 time=0
EXTRACT: note_off channel=1 note=57 velocity=95 time=0.2654865
EXTRACT: note_off channel=0 note=30 velocity=95 time=0
EXTRACT: note_off channel=9 note=42 velocity=95 time=0
EXTRACT: note_on channel=9 note=46 velocity=95 time=0
EXTRACT: note_on channel=9 note=38 velocity=95 time=0
EXTRACT: note_off channel=11 note=57 velocity=95 time=0
EXTRACT: note_on channel=1 note=57 velocity=95 time=0.2654865
EXTRACT: note_on channel=11 note=57 velocity=95 time=0
EXTRACT: note_off channel=1 note=57 velocity=95 time=0.13274325
EXTRACT: note_on channel=1 note=59 velocity=95 time=0
EXTRACT: note_off channel=11 note=57 velocity=95 time=0
EXTRACT: note_on channel=11 note=59 velocity=95 time=0
EXTRACT: note_off channel=1 note=59 velocity=95 time=0.13274325
EXTRACT: note_on channel=1 note=57 velocity=95 time=0
EXTRACT: note_on channel=0 note=31 velocity=95 time=0
EXTRACT: note_off channel=9 note=46 velocity=95 time=0
EXTRACT: note_off channel=9 note=38 velocity=95 time=0
EXTRACT: note_on channel=9 note=49 velocity=95 time=0
EXTRACT: note_on channel=9 note=36 velocity=95 time=0
EXTRACT: note_off channel=2 note=69 velocity=127 time=0
EXTRACT: note_off channel=2 note=66 velocity=127 time=0
EXTRACT: note_off channel=2 note=62 velocity=95 time=0
EXTRACT: note_off channel=2 note=54 velocity=95 time=0
EXTRACT: note_off channel=2 note=42 velocity=95 time=0
EXTRACT: note_on channel=2 note=71 velocity=127 time=0
EXTRACT: note_on channel=2 note=67 velocity=127 time=0
EXTRACT: note_on channel=2 note=62 velocity=95 time=0
EXTRACT: note_off channel=4 note=57 velocity=95 time=0
EXTRACT: note_off channel=4 note=61 velocity=95 time=0
EXTRACT: note_on channel=4 note=59 velocity=95 time=0
EXTRACT: note_off channel=6 note=50 velocity=95 time=0
EXTRACT: note_off channel=6 note=61 velocity=95 time=0
EXTRACT: note_on channel=6 note=67 velocity=95 time=0
EXTRACT: note_on channel=6 note=59 velocity=95 time=0
EXTRACT: note_on channel=6 note=55 velocity=95 time=0
EXTRACT: note_on channel=6 note=50 velocity=95 time=0
EXTRACT: note_on channel=6 note=43 velocity=95 time=0
EXTRACT: note_off channel=8 note=81 velocity=79 time=0
EXTRACT: note_off channel=8 note=74 velocity=79 time=0
EXTRACT: note_off channel=11 note=59 velocity=95 time=0
EXTRACT: note_on channel=11 note=57 velocity=95 time=0
EXTRACT: note_off channel=1 note=57 velocity=95 time=0.2654865
EXTRACT: note_off channel=11 note=57 velocity=95 time=0
EXTRACT: note_off channel=9 note=49 velocity=95 time=0.2654865
EXTRACT: note_off channel=9 note=36 velocity=95 time=0
EXTRACT: note_on channel=1 note=64 velocity=95 time=0.2654865
EXTRACT: note_off channel=0 note=31 velocity=95 time=0
EXTRACT: note_on channel=0 note=33 velocity=95 time=0
EXTRACT: note_on channel=9 note=49 velocity=95 time=0
EXTRACT: note_on channel=9 note=36 velocity=95 time=0
EXTRACT: note_off channel=2 note=71 velocity=127 time=0
EXTRACT: note_off channel=2 note=67 velocity=127 time=0
EXTRACT: note_off channel=2 note=62 velocity=95 time=0
EXTRACT: note_on channel=2 note=73 velocity=127 time=0
EXTRACT: note_on channel=2 note=69 velocity=127 time=0
EXTRACT: note_on channel=2 note=64 velocity=95 time=0
EXTRACT: note_on channel=2 note=57 velocity=95 time=0
EXTRACT: note_off channel=4 note=59 velocity=95 time=0
EXTRACT: note_on channel=4 note=57 velocity=95 time=0
EXTRACT: note_off channel=6 note=67 velocity=95 time=0
EXTRACT: note_off channel=6 note=59 velocity=95 time=0
EXTRACT: note_off channel=6 note=55 velocity=95 time=0
EXTRACT: note_off channel=6 note=50 velocity=95 time=0
EXTRACT: note_off channel=6 note=43 velocity=95 time=0
EXTRACT: note_on channel=6 note=67 velocity=95 time=0
EXTRACT: note_on channel=6 note=61 velocity=95 time=0
EXTRACT: note_on channel=6 note=57 velocity=95 time=0
EXTRACT: note_on channel=6 note=52 velocity=95 time=0
EXTRACT: note_on channel=6 note=45 velocity=95 time=0
EXTRACT: note_on channel=11 note=64 velocity=95 time=0
EXTRACT: note_off channel=1 note=64 velocity=95 time=0.2654865
EXTRACT: note_off channel=9 note=49 velocity=95 time=0
EXTRACT: note_off channel=9 note=36 velocity=95 time=0
EXTRACT: note_off channel=11 note=64 velocity=95 time=0
EXTRACT: note_off channel=0 note=33 velocity=95 time=0.530973
EXTRACT: note_on channel=0 note=50 velocity=95 time=0.530973
EXTRACT: note_on channel=9 note=42 velocity=95 time=0
EXTRACT: note_off channel=2 note=73 velocity=127 time=0
EXTRACT: note_off channel=2 note=69 velocity=127 time=0
EXTRACT: note_off channel=2 note=64 velocity=95 time=0
EXTRACT: note_off channel=2 note=57 velocity=95 time=0
EXTRACT: note_on channel=2 note=50 velocity=127 time=0
EXTRACT: note_off channel=4 note=57 velocity=95 time=0
EXTRACT: note_off channel=6 note=67 velocity=95 time=0
EXTRACT: note_off channel=6 note=61 velocity=95 time=0
EXTRACT: note_off channel=6 note=57 velocity=95 time=0
EXTRACT: note_off channel=6 note=52 velocity=95 time=0
EXTRACT: note_off channel=6 note=45 velocity=95 time=0
EXTRACT: note_on channel=11 note=66 velocity=95 time=0
EXTRACT: note_off channel=0 note=50 velocity=95 time=0.2654865
EXTRACT: note_on channel=0 note=50 velocity=95 time=0
EXTRACT: note_off channel=9 note=42 velocity=95 time=0
EXTRACT: note_on channel=9 note=42 velocity=95 time=0
EXTRACT: note_off channel=11 note=66 velocity=95 time=0
EXTRACT: note_on channel=11 note=64 velocity=95 time=0
EXTRACT: note_off channel=0 note=50 velocity=95 time=0.2654865
EXTRACT: note_on channel=0 note=50 velocity=95 time=0
EXTRACT: note_off channel=9 note=42 velocity=95 time=0
EXTRACT: note_on channel=9 note=42 velocity=95 time=0
EXTRACT: note_on channel=9 note=39 velocity=95 time=0
EXTRACT: note_off channel=11 note=64 velocity=95 time=0
EXTRACT: note_on channel=11 note=62 velocity=95 time=0
EXTRACT: note_off channel=0 note=50 velocity=95 time=0.2654865
EXTRACT: note_on channel=0 note=50 velocity=95 time=0
EXTRACT: note_off channel=9 note=42 velocity=95 time=0
EXTRACT: note_off channel=9 note=39 velocity=95 time=0
EXTRACT: note_on channel=9 note=42 velocity=95 time=0
EXTRACT: note_off channel=11 note=62 velocity=95 time=0
EXTRACT: note_off channel=0 note=50 velocity=95 time=0.13274325
EXTRACT: note_on channel=0 note=50 velocity=95 time=0
EXTRACT: note_off channel=0 note=50 velocity=95 time=0.13274325
EXTRACT: note_on channel=0 note=50 velocity=95 time=0
EXTRACT: note_off channel=9 note=42 velocity=95 time=0
EXTRACT: note_on channel=9 note=42 velocity=95 time=0
EXTRACT: note_off channel=0 note=50 velocity=95 time=0.2654865
EXTRACT: note_on channel=0 note=45 velocity=95 time=0
EXTRACT: note_off channel=9 note=42 velocity=95 time=0
EXTRACT: note_on channel=9 note=42 velocity=95 time=0
EXTRACT: note_off channel=0 note=45 velocity=95 time=0.2654865
EXTRACT: note_off channel=9 note=42 velocity=95 time=0
EXTRACT: note_on channel=9 note=42 velocity=95 time=0
EXTRACT: note_on channel=9 note=31 velocity=95 time=0
EXTRACT: note_on channel=11 note=62 velocity=95 time=0
EXTRACT: note_off channel=9 note=42 velocity=95 time=0.2654865
EXTRACT: note_off channel=9 note=31 velocity=95 time=0
EXTRACT: note_on channel=9 note=42 velocity=95 time=0
EXTRACT: note_off channel=11 note=62 velocity=95 time=0
EXTRACT: note_on channel=11 note=57 velocity=95 time=0
EXTRACT: note_on channel=0 note=50 velocity=95 time=0.2654865
EXTRACT: note_off channel=9 note=42 velocity=95 time=0
EXTRACT: note_on channel=9 note=42 velocity=95 time=0
EXTRACT: note_off channel=2 note=50 velocity=127 time=0
EXTRACT: note_on channel=2 note=50 velocity=111 time=0
EXTRACT: note_off channel=11 note=57 velocity=95 time=0
EXTRACT: note_off channel=0 note=50 velocity=95 time=0.2654865
EXTRACT: note_on channel=0 note=50 velocity=95 time=0
EXTRACT: note_off channel=9 note=42 velocity=95 time=0
EXTRACT: note_on channel=9 note=42 velocity=95 time=0
EXTRACT: note_off channel=0 note=50 velocity=95 time=0.2654865
EXTRACT: note_on channel=0 note=50 velocity=95 time=0
EXTRACT: note_off channel=9 note=42 velocity=95 time=0
EXTRACT: note_on channel=9 note=42 velocity=95 time=0
EXTRACT: note_on channel=9 note=39 velocity=95 time=0
EXTRACT: note_off channel=0 note=50 velocity=95 time=0.2654865
EXTRACT: note_on channel=0 note=50 velocity=95 time=0
EXTRACT: note_off channel=9 note=42 velocity=95 time=0
EXTRACT: note_off channel=9 note=39 velocity=95 time=0
EXTRACT: note_on channel=9 note=42 velocity=95 time=0
EXTRACT: note_off channel=0 note=50 velocity=95 time=0.13274325
EXTRACT: note_on channel=0 note=50 velocity=95 time=0
EXTRACT: note_off channel=0 note=50 velocity=95 time=0.13274325
EXTRACT: note_on channel=0 note=50 velocity=95 time=0
EXTRACT: note_off channel=9 note=42 velocity=95 time=0
EXTRACT: note_on channel=9 note=42 velocity=95 time=0
EXTRACT: note_off channel=0 note=50 velocity=95 time=0.2654865
EXTRACT: note_on channel=0 note=45 velocity=95 time=0
EXTRACT: note_off channel=9 note=42 velocity=95 time=0
EXTRACT: note_on channel=9 note=42 velocity=95 time=0
EXTRACT: note_on channel=11 note=57 velocity=95 time=0
EXTRACT: note_off channel=11 note=57 velocity=95 time=0.13274325
EXTRACT: note_on channel=11 note=59 velocity=95 time=0
EXTRACT: note_off channel=0 note=45 velocity=95 time=0.13274325
EXTRACT: note_off channel=9 note=42 velocity=95 time=0
EXTRACT: note_on channel=9 note=42 velocity=95 time=0
EXTRACT: note_on channel=9 note=31 velocity=95 time=0
EXTRACT: note_off channel=11 note=59 velocity=95 time=0
EXTRACT: note_on channel=11 note=57 velocity=95 time=0
EXTRACT: note_off channel=11 note=57 velocity=95 time=0.13274325
EXTRACT: note_on channel=11 note=54 velocity=95 time=0.066371625
EXTRACT: note_off channel=9 note=42 velocity=95 time=0.066371625
EXTRACT: note_off channel=9 note=31 velocity=95 time=0
EXTRACT: note_on channel=9 note=42 velocity=95 time=0
EXTRACT: note_off channel=11 note=54 velocity=95 time=0.066371625
EXTRACT: note_on channel=0 note=50 velocity=95 time=0.19911487500000002
EXTRACT: note_off channel=9 note=42 velocity=95 time=0
EXTRACT: note_on channel=9 note=42 velocity=95 time=0
EXTRACT: note_off channel=2 note=50 velocity=111 time=0
EXTRACT: note_on channel=7 note=62 velocity=95 time=0
EXTRACT: note_on channel=7 note=57 velocity=95 time=0
EXTRACT: note_on channel=7 note=50 velocity=95 time=0
EXTRACT: note_on channel=11 note=50 velocity=95 time=0
EXTRACT: pitchwheel channel=7 pitch=0 time=0.0884955
EXTRACT: pitchwheel channel=7 pitch=0 time=0
EXTRACT: pitchwheel channel=7 pitch=0 time=0
EXTRACT: pitchwheel channel=7 pitch=128 time=0.0884955
EXTRACT: pitchwheel channel=7 pitch=128 time=0
EXTRACT: pitchwheel channel=7 pitch=128 time=0
EXTRACT: note_off channel=0 note=50 velocity=95 time=0.0884955
EXTRACT: note_on channel=0 note=50 velocity=95 time=0
EXTRACT: note_off channel=9 note=42 velocity=95 time=0
EXTRACT: note_on channel=9 note=42 velocity=95 time=0
EXTRACT: pitchwheel channel=7 pitch=0 time=0
EXTRACT: pitchwheel channel=7 pitch=0 time=0
EXTRACT: pitchwheel channel=7 pitch=0 time=0
EXTRACT: note_off channel=11 note=50 velocity=95 time=0
EXTRACT: pitchwheel channel=7 pitch=128 time=0.0884955
EXTRACT: pitchwheel channel=7 pitch=128 time=0
EXTRACT: pitchwheel channel=7 pitch=128 time=0
EXTRACT: pitchwheel channel=7 pitch=0 time=0.0884955
EXTRACT: pitchwheel channel=7 pitch=0 time=0
EXTRACT: pitchwheel channel=7 pitch=0 time=0
EXTRACT: note_off channel=0 note=50 velocity=95 time=0.0884955
EXTRACT: note_on channel=0 note=50 velocity=95 time=0
EXTRACT: note_off channel=9 note=42 velocity=95 time=0
EXTRACT: note_on channel=9 note=42 velocity=95 time=0
EXTRACT: note_on channel=9 note=39 velocity=95 time=0
EXTRACT: pitchwheel channel=7 pitch=128 time=0
EXTRACT: pitchwheel channel=7 pitch=128 time=0
EXTRACT: pitchwheel channel=7 pitch=128 time=0
EXTRACT: pitchwheel channel=7 pitch=0 time=0.0884955
EXTRACT: pitchwheel channel=7 pitch=0 time=0
EXTRACT: pitchwheel channel=7 pitch=0 time=0
EXTRACT: pitchwheel channel=7 pitch=128 time=0.0884955
EXTRACT: pitchwheel channel=7 pitch=128 time=0
EXTRACT: pitchwheel channel=7 pitch=128 time=0
EXTRACT: note_off channel=0 note=50 velocity=95 time=0.0884955
EXTRACT: note_on channel=0 note=50 velocity=95 time=0
EXTRACT: note_off channel=9 note=42 velocity=95 time=0
EXTRACT: note_off channel=9 note=39 velocity=95 time=0
EXTRACT: note_on channel=9 note=42 velocity=95 time=0
EXTRACT: pitchwheel channel=7 pitch=0 time=0
EXTRACT: pitchwheel channel=7 pitch=0 time=0
EXTRACT: pitchwheel channel=7 pitch=0 time=0
EXTRACT: pitchwheel channel=7 pitch=128 time=0.0884955
EXTRACT: pitchwheel channel=7 pitch=128 time=0
EXTRACT: pitchwheel channel=7 pitch=128 time=0
EXTRACT: note_off channel=0 note=50 velocity=95 time=0.04424775
EXTRACT: note_on channel=0 note=50 velocity=95 time=0
EXTRACT: pitchwheel channel=7 pitch=0 time=0.04424775
EXTRACT: pitchwheel channel=7 pitch=0 time=0
EXTRACT: pitchwheel channel=7 pitch=0 time=0
EXTRACT: note_off channel=0 note=50 velocity=95 time=0.0884955
EXTRACT: note_on channel=0 note=50 velocity=95 time=0
EXTRACT: note_off channel=9 note=42 velocity=95 time=0
EXTRACT: note_on channel=9 note=42 velocity=95 time=0
EXTRACT: pitchwheel channel=7 pitch=128 time=0
EXTRACT: pitchwheel channel=7 pitch=128 time=0
EXTRACT: pitchwheel channel=7 pitch=128 time=0
EXTRACT: pitchwheel channel=7 pitch=0 time=0.0884955
EXTRACT: pitchwheel channel=7 pitch=0 time=0
EXTRACT: pitchwheel channel=7 pitch=0 time=0
EXTRACT: pitchwheel channel=7 pitch=128 time=0.0884955
EXTRACT: pitchwheel channel=7 pitch=128 time=0
EXTRACT: pitchwheel channel=7 pitch=128 time=0
EXTRACT: note_off channel=0 note=50 velocity=95 time=0.0884955
EXTRACT: note_on channel=0 note=45 velocity=95 time=0
EXTRACT: note_off channel=9 note=42 velocity=95 time=0
EXTRACT: note_on channel=9 note=42 velocity=95 time=0
EXTRACT: pitchwheel channel=7 pitch=0 time=0
EXTRACT: pitchwheel channel=7 pitch=0 time=0
EXTRACT: pitchwheel channel=7 pitch=0 time=0
EXTRACT: note_on channel=11 note=66 velocity=95 time=0
EXTRACT: pitchwheel channel=7 pitch=128 time=0.0884955
EXTRACT: pitchwheel channel=7 pitch=128 time=0
EXTRACT: pitchwheel channel=7 pitch=128 time=0
EXTRACT: pitchwheel channel=7 pitch=0 time=0.0884955
EXTRACT: pitchwheel channel=7 pitch=0 time=0
EXTRACT: pitchwheel channel=7 pitch=0 time=0
EXTRACT: note_off channel=0 note=45 velocity=95 time=0.0884955
EXTRACT: note_off channel=9 note=42 velocity=95 time=0
EXTRACT: note_on channel=9 note=42 velocity=95 time=0
EXTRACT: note_on channel=9 note=31 velocity=95 time=0
EXTRACT: pitchwheel channel=7 pitch=128 time=0
EXTRACT: pitchwheel channel=7 pitch=128 time=0
EXTRACT: pitchwheel channel=7 pitch=128 time=0
EXTRACT: note_off channel=11 note=66 velocity=95 time=0
EXTRACT: note_on channel=11 note=64 velocity=95 time=0
EXTRACT: pitchwheel channel=7 pitch=0 time=0.0884955
EXTRACT: pitchwheel channel=7 pitch=0 time=0
EXTRACT: pitchwheel channel=7 pitch=0 time=0
EXTRACT: pitchwheel channel=7 pitch=128 time=0.0884955
EXTRACT: pitchwheel channel=7 pitch=128 time=0
EXTRACT: pitchwheel channel=7 pitch=128 time=0
EXTRACT: note_off channel=9 note=42 velocity=95 time=0.0884955
EXTRACT: note_off channel=9 note=31 velocity=95 time=0
EXTRACT: note_on channel=9 note=42 velocity=95 time=0
EXTRACT: pitchwheel channel=7 pitch=0 time=0
EXTRACT: pitchwheel channel=7 pitch=0 time=0
EXTRACT: pitchwheel channel=7 pitch=0 time=0
EXTRACT: note_off channel=11 note=64 velocity=95 time=0
EXTRACT: note_on channel=11 note=62 velocity=95 time=0
EXTRACT: pitchwheel channel=7 pitch=128 time=0.0884955
EXTRACT: pitchwheel channel=7 pitch=128 time=0
EXTRACT: pitchwheel channel=7 pitch=128 time=0
EXTRACT: pitchwheel channel=7 pitch=0 time=0.0884955
EXTRACT: pitchwheel channel=7 pitch=0 time=0
EXTRACT: pitchwheel channel=7 pitch=0 time=0
EXTRACT: note_on channel=0 note=50 velocity=95 time=0.0884955
EXTRACT: note_off channel=9 note=42 velocity=95 time=0
EXTRACT: note_on channel=9 note=42 velocity=95 time=0
EXTRACT: pitchwheel channel=7 pitch=128 time=0
EXTRACT: pitchwheel channel=7 pitch=128 time=0
EXTRACT: pitchwheel channel=7 pitch=128 time=0
EXTRACT: note_off channel=11 note=62 velocity=95 time=0
EXTRACT: pitchwheel channel=7 pitch=0 time=0.0884955
EXTRACT: pitchwheel channel=7 pitch=0 time=0
EXTRACT: pitchwheel channel=7 pitch=0 time=0
EXTRACT: pitchwheel channel=7 pitch=128 time=0.0884955
EXTRACT: pitchwheel channel=7 pitch=128 time=0
EXTRACT: pitchwheel channel=7 pitch=128 time=0
EXTRACT: note_off channel=0 note=50 velocity=95 time=0.0884955
EXTRACT: note_on channel=0 note=50 velocity=95 time=0
EXTRACT: note_off channel=9 note=42 velocity=95 time=0
EXTRACT: note_on channel=9 note=42 velocity=95 time=0
EXTRACT: pitchwheel channel=7 pitch=0 time=0
EXTRACT: pitchwheel channel=7 pitch=0 time=0
EXTRACT: pitchwheel channel=7 pitch=0 time=0
EXTRACT: pitchwheel channel=7 pitch=128 time=0.0884955
EXTRACT: pitchwheel channel=7 pitch=128 time=0
EXTRACT: pitchwheel channel=7 pitch=128 time=0
EXTRACT: pitchwheel channel=7 pitch=0 time=0.0884955
EXTRACT: pitchwheel channel=7 pitch=0 time=0
EXTRACT: pitchwheel channel=7 pitch=0 time=0
EXTRACT: note_off channel=0 note=50 velocity=95 time=0.0884955
EXTRACT: note_on channel=0 note=50 velocity=95 time=0
EXTRACT: note_off channel=9 note=42 velocity=95 time=0
EXTRACT: note_on channel=9 note=42 velocity=95 time=0
EXTRACT: note_on channel=9 note=39 velocity=95 time=0
EXTRACT: pitchwheel channel=7 pitch=128 time=0
EXTRACT: pitchwheel channel=7 pitch=128 time=0
EXTRACT: pitchwheel channel=7 pitch=128 time=0
EXTRACT: pitchwheel channel=7 pitch=0 time=0.0884955
EXTRACT: pitchwheel channel=7 pitch=0 time=0
EXTRACT: pitchwheel channel=7 pitch=0 time=0
EXTRACT: pitchwheel channel=7 pitch=128 time=0.0884955
EXTRACT: pitchwheel channel=7 pitch=128 time=0
EXTRACT: pitchwheel channel=7 pitch=128 time=0
EXTRACT: note_off channel=0 note=50 velocity=95 time=0.0884955
EXTRACT: note_on channel=0 note=50 velocity=95 time=0
EXTRACT: note_off channel=9 note=42 velocity=95 time=0
EXTRACT: note_off channel=9 note=39 velocity=95 time=0
EXTRACT: note_on channel=9 note=42 velocity=95 time=0
EXTRACT: pitchwheel channel=7 pitch=0 time=0
EXTRACT: pitchwheel channel=7 pitch=0 time=0
EXTRACT: pitchwheel channel=7 pitch=0 time=0
EXTRACT: pitchwheel channel=7 pitch=128 time=0.0884955
EXTRACT: pitchwheel channel=7 pitch=128 time=0
EXTRACT: pitchwheel channel=7 pitch=128 time=0
EXTRACT: note_off channel=0 note=50 velocity=95 time=0.04424775
EXTRACT: note_on channel=0 note=50 velocity=95 time=0
EXTRACT: pitchwheel channel=7 pitch=0 time=0.04424775
EXTRACT: pitchwheel channel=7 pitch=0 time=0
EXTRACT: pitchwheel channel=7 pitch=0 time=0
EXTRACT: note_off channel=0 note=50 velocity=95 time=0.0884955
EXTRACT: note_on channel=0 note=50 velocity=95 time=0
EXTRACT: note_off channel=9 note=42 velocity=95 time=0
EXTRACT: note_on channel=9 note=42 velocity=95 time=0
EXTRACT: pitchwheel channel=7 pitch=128 time=0
EXTRACT: pitchwheel channel=7 pitch=128 time=0
EXTRACT: pitchwheel channel=7 pitch=128 time=0
EXTRACT: pitchwheel channel=7 pitch=0 time=0.0884955
EXTRACT: pitchwheel channel=7 pitch=0 time=0
EXTRACT: pitchwheel channel=7 pitch=0 time=0
EXTRACT: pitchwheel channel=7 pitch=128 time=0.0884955
EXTRACT: pitchwheel channel=7 pitch=128 time=0
EXTRACT: pitchwheel channel=7 pitch=128 time=0
EXTRACT: note_off channel=0 note=50 velocity=95 time=0.0884955
EXTRACT: note_on channel=0 note=45 velocity=95 time=0
EXTRACT: note_off channel=9 note=42 velocity=95 time=0
EXTRACT: note_on channel=9 note=42 velocity=95 time=0
EXTRACT: pitchwheel channel=7 pitch=0 time=0
EXTRACT: pitchwheel channel=7 pitch=0 time=0
EXTRACT: pitchwheel channel=7 pitch=0 time=0
EXTRACT: pitchwheel channel=7 pitch=128 time=0.0884955
EXTRACT: pitchwheel channel=7 pitch=128 time=0
EXTRACT: pitchwheel channel=7 pitch=128 time=0
EXTRACT: pitchwheel channel=7 pitch=0 time=0.0884955
EXTRACT: pitchwheel channel=7 pitch=0 time=0
EXTRACT: pitchwheel channel=7 pitch=0 time=0
EXTRACT: note_off channel=0 note=45 velocity=95 time=0.0884955
EXTRACT: note_off channel=9 note=42 velocity=95 time=0
EXTRACT: note_on channel=9 note=42 velocity=95 time=0
EXTRACT: note_on channel=9 note=31 velocity=95 time=0
EXTRACT: pitchwheel channel=7 pitch=128 time=0
EXTRACT: pitchwheel channel=7 pitch=128 time=0
EXTRACT: pitchwheel channel=7 pitch=128 time=0
EXTRACT: note_on channel=8 note=79 velocity=127 time=0
EXTRACT: note_on channel=8 note=74 velocity=127 time=0
EXTRACT: pitchwheel channel=7 pitch=0 time=0.0884955
EXTRACT: pitchwheel channel=7 pitch=0 time=0
EXTRACT: pitchwheel channel=7 pitch=0 time=0
EXTRACT: pitchwheel channel=7 pitch=128 time=0.0884955
EXTRACT: pitchwheel channel=7 pitch=128 time=0
EXTRACT: pitchwheel channel=7 pitch=128 time=0
EXTRACT: note_off channel=9 note=42 velocity=95 time=0.0884955
EXTRACT: note_off channel=9 note=31 velocity=95 time=0
EXTRACT: note_on channel=9 note=42 velocity=95 time=0
EXTRACT: note_on channel=9 note=39 velocity=95 time=0
EXTRACT: pitchwheel channel=7 pitch=0 time=0
EXTRACT: pitchwheel channel=7 pitch=0 time=0
EXTRACT: pitchwheel channel=7 pitch=0 time=0
EXTRACT: pitchwheel channel=7 pitch=128 time=0.0884955
EXTRACT: pitchwheel channel=7 pitch=128 time=0
EXTRACT: pitchwheel channel=7 pitch=128 time=0
EXTRACT: pitchwheel channel=7 pitch=0 time=0.0884955
EXTRACT: pitchwheel channel=7 pitch=0 time=0
EXTRACT: pitchwheel channel=7 pitch=0 time=0
EXTRACT: note_on channel=1 note=54 velocity=95 time=0.0884955
EXTRACT: note_on channel=0 note=50 velocity=95 time=0
EXTRACT: note_off channel=9 note=42 velocity=95 time=0
EXTRACT: note_off channel=9 note=39 velocity=95 time=0
EXTRACT: note_on channel=9 note=42 velocity=95 time=0
EXTRACT: note_on channel=9 note=36 velocity=95 time=0
EXTRACT: note_on channel=9 note=38 velocity=95 time=0
EXTRACT: note_on channel=2 note=66 velocity=127 time=0
EXTRACT: note_on channel=2 note=62 velocity=127 time=0
EXTRACT: note_on channel=2 note=57 velocity=95 time=0
EXTRACT: note_on channel=2 note=50 velocity=95 time=0
EXTRACT: pitchwheel channel=7 pitch=128 time=0
EXTRACT: pitchwheel channel=7 pitch=0 time=0
EXTRACT: note_off channel=7 note=62 velocity=95 time=0
EXTRACT: pitchwheel channel=7 pitch=128 time=0
EXTRACT: pitchwheel channel=7 pitch=0 time=0
EXTRACT: note_off channel=7 note=57 velocity=95 time=0
EXTRACT: pitchwheel channel=7 pitch=128 time=0
EXTRACT: pitchwheel channel=7 pitch=0 time=0
EXTRACT: note_off channel=7 note=50 velocity=95 time=0
EXTRACT: note_on channel=6 note=62 velocity=95 time=0
EXTRACT: note_off channel=8 note=79 velocity=127 time=0
EXTRACT: note_off channel=8 note=74 velocity=127 time=0
EXTRACT: note_on channel=8 note=81 velocity=127 time=0
EXTRACT: note_on channel=8 note=74 velocity=127 time=0
EXTRACT: note_off channel=0 note=50 velocity=95 time=0.2654865
EXTRACT: note_on channel=0 note=50 velocity=95 time=0
EXTRACT: note_off channel=9 note=42 velocity=95 time=0
EXTRACT: note_off channel=9 note=38 velocity=95 time=0
EXTRACT: note_on channel=9 note=42 velocity=95 time=0
EXTRACT: note_off channel=2 note=66 velocity=127 time=0
EXTRACT: note_off channel=2 note=62 velocity=127 time=0
EXTRACT: note_off channel=2 note=57 velocity=95 time=0
EXTRACT: note_off channel=2 note=50 velocity=95 time=0
EXTRACT: note_on channel=2 note=66 velocity=127 time=0
EXTRACT: note_on channel=2 note=62 velocity=127 time=0
EXTRACT: note_on channel=2 note=57 velocity=95 time=0
EXTRACT: note_on channel=2 note=50 velocity=95 time=0
EXTRACT: note_off channel=6 note=62 velocity=95 time=0
EXTRACT: note_on channel=6 note=62 velocity=95 time=0
EXTRACT: note_off channel=0 note=50 velocity=95 time=0.2654865
EXTRACT: note_on channel=0 note=50 velocity=95 time=0
EXTRACT: note_off channel=9 note=36 velocity=95 time=0
EXTRACT: note_off channel=9 note=42 velocity=95 time=0
EXTRACT: note_on channel=9 note=42 velocity=95 time=0
EXTRACT: note_on channel=9 note=38 velocity=95 time=0
EXTRACT: note_on channel=9 note=39 velocity=95 time=0
EXTRACT: note_off channel=2 note=66 velocity=127 time=0
EXTRACT: note_off channel=2 note=62 velocity=127 time=0
EXTRACT: note_off channel=2 note=57 velocity=95 time=0
EXTRACT: note_off channel=2 note=50 velocity=95 time=0
EXTRACT: note_on channel=2 note=66 velocity=127 time=0
EXTRACT: note_on channel=2 note=62 velocity=127 time=0
EXTRACT: note_on channel=2 note=57 velocity=95 time=0
EXTRACT: note_on channel=2 note=50 velocity=95 time=0
EXTRACT: note_on channel=6 note=66 velocity=95 time=0
EXTRACT: note_off channel=1 note=54 velocity=95 time=0.2654865
EXTRACT: note_on channel=1 note=55 velocity=95 time=0
EXTRACT: note_off channel=0 note=50 velocity=95 time=0
EXTRACT: note_on channel=0 note=50 velocity=95 time=0
EXTRACT: note_off channel=9 note=42 velocity=95 time=0
EXTRACT: note_off channel=9 note=39 velocity=95 time=0
EXTRACT: note_on channel=9 note=42 velocity=95 time=0
EXTRACT: note_off channel=2 note=66 velocity=127 time=0
EXTRACT: note_off channel=2 note=62 velocity=127 time=0
EXTRACT: note_off channel=2 note=57 velocity=95 time=0
EXTRACT: note_off channel=2 note=50 velocity=95 time=0
EXTRACT: note_on channel=2 note=66 velocity=127 time=0
EXTRACT: note_on channel=2 note=62 velocity=127 time=0
EXTRACT: note_on channel=2 note=57 velocity=95 time=0
EXTRACT: note_on channel=2 note=50 velocity=95 time=0
EXTRACT: note_off channel=6 note=66 velocity=95 time=0
EXTRACT: note_on channel=6 note=69 velocity=95 time=0
EXTRACT: note_on channel=11 note=66 velocity=95 time=0
EXTRACT: note_off channel=0 note=50 velocity=95 time=0.13274325
EXTRACT: note_on channel=0 note=50 velocity=95 time=0
EXTRACT: note_off channel=0 note=50 velocity=95 time=0.13274325
EXTRACT: note_on channel=0 note=50 velocity=95 time=0
EXTRACT: note_off channel=9 note=38 velocity=95 time=0
EXTRACT: note_off channel=9 note=42 velocity=95 time=0
EXTRACT: note_on channel=9 note=42 velocity=95 time=0
EXTRACT: note_off channel=2 note=66 velocity=127 time=0
EXTRACT: note_off channel=2 note=62 velocity=127 time=0
EXTRACT: note_off channel=2 note=57 velocity=95 time=0
EXTRACT: note_off channel=2 note=50 velocity=95 time=0
EXTRACT: note_on channel=2 note=66 velocity=127 time=0
EXTRACT: note_on channel=2 note=62 velocity=127 time=0
EXTRACT: note_on channel=2 note=57 velocity=95 time=0
EXTRACT: note_on channel=2 note=50 velocity=95 time=0
EXTRACT: note_off channel=6 note=62 velocity=95 time=0
EXTRACT: note_on channel=6 note=66 velocity=95 time=0
EXTRACT: note_off channel=11 note=66 velocity=95 time=0
EXTRACT: note_on channel=11 note=66 velocity=95 time=0
EXTRACT: note_off channel=0 note=50 velocity=95 time=0.2654865
EXTRACT: note_on channel=0 note=45 velocity=95 time=0
EXTRACT: note_off channel=9 note=42 velocity=95 time=0
EXTRACT: note_on channel=9 note=42 velocity=95 time=0
EXTRACT: note_on channel=9 note=36 velocity=95 time=0
EXTRACT: note_off channel=2 note=66 velocity=127 time=0
EXTRACT: note_off channel=2 note=62 velocity=127 time=0
EXTRACT: note_off channel=2 note=57 velocity=95 time=0
EXTRACT: note_off channel=2 note=50 velocity=95 time=0
EXTRACT: note_on channel=2 note=66 velocity=127 time=0
EXTRACT: note_on channel=2 note=62 velocity=127 time=0
EXTRACT: note_on channel=2 note=57 velocity=95 time=0
EXTRACT: note_on channel=2 note=50 velocity=95 time=0
EXTRACT: note_off channel=6 note=66 velocity=95 time=0
EXTRACT: note_on channel=6 note=62 velocity=95 time=0
EXTRACT: note_off channel=11 note=66 velocity=95 time=0
EXTRACT: note_on channel=11 note=69 velocity=95 time=0
EXTRACT: note_off channel=1 note=55 velocity=95 time=0.2654865
EXTRACT: note_on channel=1 note=57 velocity=95 time=0
EXTRACT: note_off channel=0 note=45 velocity=95 time=0
EXTRACT: note_off channel=9 note=42 velocity=95 time=0
EXTRACT: note_off channel=9 note=36 velocity=95 time=0
EXTRACT: note_on channel=9 note=42 velocity=95 time=0
EXTRACT: note_on channel=9 note=38 velocity=95 time=0
EXTRACT: note_on channel=9 note=31 velocity=95 time=0
EXTRACT: note_off channel=2 note=66 velocity=127 time=0
EXTRACT: note_off channel=2 note=62 velocity=127 time=0
EXTRACT: note_off channel=2 note=57 velocity=95 time=0
EXTRACT: note_off channel=2 note=50 velocity=95 time=0
EXTRACT: note_on channel=2 note=66 velocity=127 time=0
EXTRACT: note_on channel=2 note=62 velocity=127 time=0
EXTRACT: note_on channel=2 note=57 velocity=95 time=0
EXTRACT: note_on channel=2 note=50 velocity=95 time=0
EXTRACT: note_off channel=6 note=69 velocity=95 time=0
EXTRACT: note_on channel=6 note=66 velocity=95 time=0
EXTRACT: note_off channel=11 note=69 velocity=95 time=0
EXTRACT: note_on channel=11 note=71 velocity=95 time=0
EXTRACT: note_off channel=9 note=42 velocity=95 time=0.2654865
EXTRACT: note_off channel=9 note=31 velocity=95 time=0
EXTRACT: note_on channel=9 note=42 velocity=95 time=0
EXTRACT: note_off channel=2 note=66 velocity=127 time=0
EXTRACT: note_off channel=2 note=62 velocity=127 time=0
EXTRACT: note_off channel=2 note=57 velocity=95 time=0
EXTRACT: note_off channel=2 note=50 velocity=95 time=0
EXTRACT: note_on channel=2 note=66 velocity=127 time=0
EXTRACT: note_on channel=2 note=62 velocity=127 time=0
EXTRACT: note_on channel=2 note=57 velocity=95 time=0
EXTRACT: note_on channel=2 note=50 velocity=95 time=0
EXTRACT: note_off channel=6 note=62 velocity=95 time=0
EXTRACT: note_on channel=6 note=62 velocity=95 time=0
EXTRACT: note_off channel=1 note=57 velocity=95 time=0.2654865
EXTRACT: note_on channel=1 note=57 velocity=95 time=0
EXTRACT: note_on channel=0 note=50 velocity=95 time=0
EXTRACT: note_off channel=9 note=38 velocity=95 time=0
EXTRACT: note_off channel=9 note=42 velocity=95 time=0
EXTRACT: note_on channel=9 note=42 velocity=95 time=0
EXTRACT: note_on channel=9 note=36 velocity=95 time=0
EXTRACT: note_off channel=2 note=66 velocity=127 time=0
EXTRACT: note_off channel=2 note=62 velocity=127 time=0
EXTRACT: note_off channel=2 note=57 velocity=95 time=0
EXTRACT: note_off channel=2 note=50 velocity=95 time=0
EXTRACT: note_on channel=2 note=64 velocity=127 time=0
EXTRACT: note_on channel=2 note=61 velocity=127 time=0
EXTRACT: note_on channel=2 note=57 velocity=95 time=0
EXTRACT: note_on channel=2 note=50 velocity=95 time=0
EXTRACT: note_on channel=4 note=62 velocity=95 time=0
EXTRACT: note_off channel=6 note=66 velocity=95 time=0
EXTRACT: note_off channel=6 note=62 velocity=95 time=0
EXTRACT: note_on channel=6 note=64 velocity=95 time=0
EXTRACT: note_off channel=8 note=81 velocity=127 time=0
EXTRACT: note_off channel=8 note=74 velocity=127 time=0
EXTRACT: note_off channel=0 note=50 velocity=95 time=0.2654865
EXTRACT: note_on channel=0 note=50 velocity=95 time=0
EXTRACT: note_off channel=9 note=42 velocity=95 time=0
EXTRACT: note_on channel=9 note=42 velocity=95 time=0
EXTRACT: note_off channel=2 note=64 velocity=127 time=0
EXTRACT: note_off channel=2 note=61 velocity=127 time=0
EXTRACT: note_off channel=2 note=57 velocity=95 time=0
EXTRACT: note_off channel=2 note=50 velocity=95 time=0
EXTRACT: note_on channel=2 note=64 velocity=127 time=0
EXTRACT: note_on channel=2 note=61 velocity=127 time=0
EXTRACT: note_on channel=2 note=57 velocity=95 time=0
EXTRACT: note_on channel=2 note=50 velocity=95 time=0
EXTRACT: note_on channel=6 note=73 velocity=95 time=0
EXTRACT: note_off channel=11 note=71 velocity=95 time=0.13274325
EXTRACT: note_on channel=11 note=69 velocity=95 time=0
EXTRACT: note_off channel=0 note=50 velocity=95 time=0.13274325
EXTRACT: note_on channel=0 note=50 velocity=95 time=0
EXTRACT: note_off channel=9 note=36 velocity=95 time=0
EXTRACT: note_off channel=9 note=42 velocity=95 time=0
EXTRACT: note_on channel=9 note=42 velocity=95 time=0
EXTRACT: note_on channel=9 note=38 velocity=95 time=0
EXTRACT: note_on channel=9 note=39 velocity=95 time=0
EXTRACT: note_off channel=2 note=64 velocity=127 time=0
EXTRACT: note_off channel=2 note=61 velocity=127 time=0
EXTRACT: note_off channel=2 note=57 velocity=95 time=0
EXTRACT: note_off channel=2 note=50 velocity=95 time=0
EXTRACT: note_on channel=2 note=64 velocity=127 time=0
EXTRACT: note_on channel=2 note=61 velocity=127 time=0
EXTRACT: note_on channel=2 note=57 velocity=95 time=0
EXTRACT: note_on channel=2 note=50 velocity=95 time=0
EXTRACT: note_off channel=6 note=64 velocity=95 time=0
EXTRACT: note_on channel=6 note=62 velocity=95 time=0
EXTRACT: note_off channel=11 note=69 velocity=95 time=0
EXTRACT: note_on channel=11 note=67 velocity=95 time=0
EXTRACT: note_off channel=11 note=67 velocity=95 time=0.13274325
EXTRACT: note_on channel=11 note=66 velocity=95 time=0
EXTRACT: note_off channel=1 note=57 velocity=95 time=0.13274325
EXTRACT: note_on channel=1 note=59 velocity=95 time=0
EXTRACT: note_off channel=0 note=50 velocity=95 time=0
EXTRACT: note_on channel=0 note=50 velocity=95 time=0
EXTRACT: note_off channel=9 note=42 velocity=95 time=0
EXTRACT: note_off channel=9 note=39 velocity=95 time=0
EXTRACT: note_on channel=9 note=42 velocity=95 time=0
EXTRACT: note_off channel=2 note=64 velocity=127 time=0
EXTRACT: note_off channel=2 note=61 velocity=127 time=0
EXTRACT: note_off channel=2 note=57 velocity=95 time=0
EXTRACT: note_off channel=2 note=50 velocity=95 time=0
EXTRACT: note_on channel=2 note=64 velocity=127 time=0
EXTRACT: note_on channel=2 note=61 velocity=127 time=0
EXTRACT: note_on channel=2 note=57 velocity=95 time=0
EXTRACT: note_on channel=2 note=50 velocity=95 time=0
EXTRACT: note_off channel=6 note=73 velocity=95 time=0
EXTRACT: note_on channel=6 note=69 velocity=95 time=0
EXTRACT: note_off channel=0 note=50 velocity=95 time=0.13274325
EXTRACT: note_on channel=0 note=50 velocity=95 time=0
EXTRACT: note_off channel=11 note=66 velocity=95 time=0
EXTRACT: note_on channel=11 note=66 velocity=95 time=0
EXTRACT: note_off channel=0 note=50 velocity=95 time=0.13274325
EXTRACT: note_on channel=0 note=50 velocity=95 time=0
EXTRACT: note_off channel=9 note=38 velocity=95 time=0
EXTRACT: note_off channel=9 note=42 velocity=95 time=0
EXTRACT: note_on channel=9 note=42 velocity=95 time=0
EXTRACT: note_off channel=2 note=64 velocity=127 time=0
EXTRACT: note_off channel=2 note=61 velocity=127 time=0
EXTRACT: note_off channel=2 note=57 velocity=95 time=0
EXTRACT: note_off channel=2 note=50 velocity=95 time=0
EXTRACT: note_on channel=2 note=64 velocity=127 time=0
EXTRACT: note_on channel=2 note=61 velocity=127 time=0
EXTRACT: note_on channel=2 note=57 velocity=95 time=0
EXTRACT: note_on channel=2 note=50 velocity=95 time=0
EXTRACT: note_off channel=11 note=66 velocity=95 time=0.13274325
EXTRACT: note_off channel=0 note=50 velocity=95 time=0.13274325
EXTRACT: note_on channel=0 note=45 velocity=95 time=0
EXTRACT: note_off channel=9 note=42 velocity=95 time=0
EXTRACT: note_on channel=9 note=42 velocity=95 time=0
EXTRACT: note_on channel=9 note=36 velocity=95 time=0
EXTRACT: note_off channel=2 note=64 velocity=127 time=0
EXTRACT: note_off channel=2 note=61 velocity=127 time=0
EXTRACT: note_off channel=2 note=57 velocity=95 time=0
EXTRACT: note_off channel=2 note=50 velocity=95 time=0
EXTRACT: note_on channel=2 note=64 velocity=127 time=0
EXTRACT: note_on channel=2 note=61 velocity=127 time=0
EXTRACT: note_on channel=2 note=57 velocity=95 time=0
EXTRACT: note_on channel=2 note=50 velocity=95 time=0
EXTRACT: note_off channel=6 note=62 velocity=95 time=0
EXTRACT: note_on channel=6 note=62 velocity=95 time=0
EXTRACT: note_on channel=11 note=62 velocity=95 time=0
EXTRACT: note_off channel=11 note=62 velocity=95 time=0.13274325
EXTRACT: note_on channel=11 note=59 velocity=95 time=0
EXTRACT: note_off channel=1 note=59 velocity=95 time=0.13274325
EXTRACT: note_on channel=1 note=61 velocity=95 time=0
EXTRACT: note_off channel=0 note=45 velocity=95 time=0
EXTRACT: note_off channel=9 note=42 velocity=95 time=0
EXTRACT: note_off channel=9 note=36 velocity=95 time=0
EXTRACT: note_on channel=9 note=42 velocity=95 time=0
EXTRACT: note_on channel=9 note=38 velocity=95 time=0
EXTRACT: note_on channel=9 note=31 velocity=95 time=0
EXTRACT: note_off channel=2 note=64 velocity=127 time=0
EXTRACT: note_off channel=2 note=61 velocity=127 time=0
EXTRACT: note_off channel=2 note=57 velocity=95 time=0
EXTRACT: note_off channel=2 note=50 velocity=95 time=0
EXTRACT: note_on channel=2 note=64 velocity=127 time=0
EXTRACT: note_on channel=2 note=61 velocity=127 time=0
EXTRACT: note_on channel=2 note=57 velocity=95 time=0
EXTRACT: note_on channel=2 note=50 velocity=95 time=0
EXTRACT: note_off channel=6 note=69 velocity=95 time=0
EXTRACT: note_on channel=6 note=64 velocity=95 time=0
EXTRACT: note_off channel=11 note=59 velocity=95 time=0.13274325
EXTRACT: pitchwheel channel=12 pitch=0 time=0
EXTRACT: note_on channel=12 note=56 velocity=95 time=0
EXTRACT: pitchwheel channel=12 pitch=128 time=0.026548650000000003
EXTRACT: pitchwheel channel=12 pitch=256 time=0.026548650000000003
EXTRACT: pitchwheel channel=12 pitch=384 time=0.026548650000000003
EXTRACT: pitchwheel channel=12 pitch=512 time=0.026548650000000003
EXTRACT: note_off channel=9 note=42 velocity=95 time=0.026548650000000003
EXTRACT: note_off channel=9 note=31 velocity=95 time=0
EXTRACT: note_on channel=9 note=42 velocity=95 time=0
EXTRACT: note_off channel=2 note=64 velocity=127 time=0
EXTRACT: note_off channel=2 note=61 velocity=127 time=0
EXTRACT: note_off channel=2 note=57 velocity=95 time=0
EXTRACT: note_off channel=2 note=50 velocity=95 time=0
EXTRACT: note_on channel=2 note=64 velocity=127 time=0
EXTRACT: note_on channel=2 note=61 velocity=127 time=0
EXTRACT: note_on channel=2 note=57 velocity=95 time=0
EXTRACT: note_on channel=2 note=50 velocity=95 time=0
EXTRACT: note_off channel=6 note=62 velocity=95 time=0
EXTRACT: note_on channel=6 note=62 velocity=95 time=0
EXTRACT: pitchwheel channel=12 pitch=640 time=0
EXTRACT: pitchwheel channel=12 pitch=640 time=0
EXTRACT: pitchwheel channel=12 pitch=640 time=0.13274325
EXTRACT: pitchwheel channel=12 pitch=512 time=0.026548650000000003
EXTRACT: pitchwheel channel=12 pitch=384 time=0.026548650000000003
EXTRACT: pitchwheel channel=12 pitch=256 time=0.026548650000000003
EXTRACT: pitchwheel channel=12 pitch=128 time=0.026548650000000003
EXTRACT: note_on channel=0 note=50 velocity=95 time=0.026548650000000003
EXTRACT: note_off channel=9 note=38 velocity=95 time=0
EXTRACT: note_off channel=9 note=42 velocity=95 time=0
EXTRACT: note_on channel=9 note=42 velocity=95 time=0
EXTRACT: note_on channel=9 note=36 velocity=95 time=0
EXTRACT: note_off channel=2 note=64 velocity=127 time=0
EXTRACT: note_off channel=2 note=61 velocity=127 time=0
EXTRACT: note_off channel=2 note=57 velocity=95 time=0
EXTRACT: note_off channel=2 note=50 velocity=95 time=0
EXTRACT: note_on channel=2 note=62 velocity=127 time=0
EXTRACT: note_on channel=2 note=59 velocity=127 time=0
EXTRACT: note_on channel=2 note=55 velocity=95 time=0
EXTRACT: note_off channel=4 note=62 velocity=95 time=0
EXTRACT: note_on channel=4 note=62 velocity=95 time=0
EXTRACT: note_off channel=6 note=64 velocity=95 time=0
EXTRACT: note_off channel=6 note=62 velocity=95 time=0
EXTRACT: note_on channel=6 note=62 velocity=95 time=0
EXTRACT: pitchwheel channel=12 pitch=0 time=0
EXTRACT: pitchwheel channel=12 pitch=0 time=0
EXTRACT: note_off channel=1 note=61 velocity=95 time=0.13274325
EXTRACT: note_on channel=1 note=62 velocity=95 time=0
EXTRACT: pitchwheel channel=12 pitch=0 time=0
EXTRACT: pitchwheel channel=12 pitch=0 time=0
EXTRACT: note_off channel=12 note=56 velocity=95 time=0
EXTRACT: note_off channel=0 note=50 velocity=95 time=0.13274325
EXTRACT: note_on channel=0 note=50 velocity=95 time=0
EXTRACT: note_off channel=9 note=42 velocity=95 time=0
EXTRACT: note_on channel=9 note=42 velocity=95 time=0
EXTRACT: note_off channel=2 note=62 velocity=127 time=0
EXTRACT: note_off channel=2 note=59 velocity=127 time=0
EXTRACT: note_off channel=2 note=55 velocity=95 time=0
EXTRACT: note_on channel=2 note=62 velocity=127 time=0
EXTRACT: note_on channel=2 note=59 velocity=127 time=0
EXTRACT: note_on channel=2 note=55 velocity=95 time=0
EXTRACT: note_on channel=6 note=71 velocity=95 time=0
EXTRACT: note_off channel=0 note=50 velocity=95 time=0.2654865
EXTRACT: note_on channel=0 note=50 velocity=95 time=0
EXTRACT: note_off channel=9 note=36 velocity=95 time=0
EXTRACT: note_off channel=9 note=42 velocity=95 time=0
EXTRACT: note_on channel=9 note=42 velocity=95 time=0
EXTRACT: note_on channel=9 note=38 velocity=95 time=0
EXTRACT: note_on channel=9 note=39 velocity=95 time=0
EXTRACT: note_off channel=2 note=62 velocity=127 time=0
EXTRACT: note_off channel=2 note=59 velocity=127 time=0
EXTRACT: note_off channel=2 note=55 velocity=95 time=0
EXTRACT: note_on channel=2 note=62 velocity=127 time=0
EXTRACT: note_on channel=2 note=59 velocity=127 time=0
EXTRACT: note_on channel=2 note=55 velocity=95 time=0
EXTRACT: note_off channel=6 note=62 velocity=95 time=0
EXTRACT: note_on channel=6 note=62 velocity=95 time=0
EXTRACT: note_on channel=11 note=66 velocity=95 time=0.13274325
EXTRACT: note_off channel=0 note=50 velocity=95 time=0.13274325
EXTRACT: note_on channel=0 note=50 velocity=95 time=0
EXTRACT: note_off channel=9 note=42 velocity=95 time=0
EXTRACT: note_off channel=9 note=39 velocity=95 time=0
EXTRACT: note_on channel=9 note=42 velocity=95 time=0
EXTRACT: note_off channel=2 note=62 velocity=127 time=0
EXTRACT: note_off channel=2 note=59 velocity=127 time=0
EXTRACT: note_off channel=2 note=55 velocity=95 time=0
EXTRACT: note_on channel=2 note=62 velocity=127 time=0
EXTRACT: note_on channel=2 note=59 velocity=127 time=0
EXTRACT: note_on channel=2 note=55 velocity=95 time=0
EXTRACT: note_off channel=6 note=71 velocity=95 time=0
EXTRACT: note_on channel=6 note=67 velocity=95 time=0
EXTRACT: note_off channel=11 note=66 velocity=95 time=0.04424775
EXTRACT: note_on channel=11 note=69 velocity=95 time=0
EXTRACT: note_off channel=0 note=50 velocity=95 time=0.0884955
EXTRACT: note_on channel=0 note=50 velocity=95 time=0
EXTRACT: note_off channel=11 note=69 velocity=95 time=0.0884955
EXTRACT: note_on channel=11 note=71 velocity=95 time=0
EXTRACT: note_off channel=0 note=50 velocity=95 time=0.04424775
EXTRACT: note_on channel=0 note=50 velocity=95 time=0
EXTRACT: note_off channel=9 note=38 velocity=95 time=0
EXTRACT: note_off channel=9 note=42 velocity=95 time=0
EXTRACT: note_on channel=9 note=42 velocity=95 time=0
EXTRACT: note_off channel=2 note=62 velocity=127 time=0
EXTRACT: note_off channel=2 note=59 velocity=127 time=0
EXTRACT: note_off channel=2 note=55 velocity=95 time=0
EXTRACT: note_on channel=2 note=62 velocity=127 time=0
EXTRACT: note_on channel=2 note=59 velocity=127 time=0
EXTRACT: note_on channel=2 note=55 velocity=95 time=0
EXTRACT: note_off channel=11 note=71 velocity=95 time=0.13274325
EXTRACT: note_on channel=11 note=74 velocity=95 time=0
EXTRACT: note_off channel=0 note=50 velocity=95 time=0.13274325
EXTRACT: note_on channel=0 note=45 velocity=95 time=0
EXTRACT: note_off channel=9 note=42 velocity=95 time=0
EXTRACT: note_on channel=9 note=42 velocity=95 time=0
EXTRACT: note_on channel=9 note=36 velocity=95 time=0
EXTRACT: note_off channel=2 note=62 velocity=127 time=0
EXTRACT: note_off channel=2 note=59 velocity=127 time=0
EXTRACT: note_off channel=2 note=55 velocity=95 time=0
EXTRACT: note_on channel=2 note=62 velocity=127 time=0
EXTRACT: note_on channel=2 note=59 velocity=127 time=0
EXTRACT: note_on channel=2 note=55 velocity=95 time=0
EXTRACT: note_off channel=6 note=62 velocity=95 time=0
EXTRACT: note_on channel=6 note=62 velocity=95 time=0
EXTRACT: note_off channel=0 note=45 velocity=95 time=0.2654865
EXTRACT: note_off channel=9 note=42 velocity=95 time=0
EXTRACT: note_off channel=9 note=36 velocity=95 time=0
EXTRACT: note_on channel=9 note=42 velocity=95 time=0
EXTRACT: note_on channel=9 note=38 velocity=95 time=0
EXTRACT: note_on channel=9 note=31 velocity=95 time=0
EXTRACT: note_off channel=2 note=62 velocity=127 time=0
EXTRACT: note_off channel=2 note=59 velocity=127 time=0
EXTRACT: note_off channel=2 note=55 velocity=95 time=0
EXTRACT: note_on channel=2 note=62 velocity=127 time=0
EXTRACT: note_on channel=2 note=59 velocity=127 time=0
EXTRACT: note_on channel=2 note=55 velocity=95 time=0
EXTRACT: note_off channel=6 note=62 velocity=95 time=0
EXTRACT: note_on channel=6 note=62 velocity=95 time=0
EXTRACT: note_off channel=11 note=74 velocity=95 time=0.13274325
EXTRACT: note_off channel=9 note=42 velocity=95 time=0.13274325
EXTRACT: note_off channel=9 note=31 velocity=95 time=0
EXTRACT: note_on channel=9 note=42 velocity=95 time=0
EXTRACT: note_off channel=2 note=62 velocity=127 time=0
EXTRACT: note_off channel=2 note=59 velocity=127 time=0
EXTRACT: note_off channel=2 note=55 velocity=95 time=0
EXTRACT: note_on channel=2 note=62 velocity=127 time=0
EXTRACT: note_on channel=2 note=59 velocity=127 time=0
EXTRACT: note_on channel=2 note=55 velocity=95 time=0
EXTRACT: note_off channel=6 note=62 velocity=95 time=0
EXTRACT: note_on channel=6 note=62 velocity=95 time=0
EXTRACT: note_on channel=11 note=71 velocity=95 time=0.13274325
EXTRACT: note_off channel=1 note=62 velocity=95 time=0.13274325
EXTRACT: note_on channel=0 note=50 velocity=95 time=0
EXTRACT: note_off channel=9 note=38 velocity=95 time=0
EXTRACT: note_off channel=9 note=42 velocity=95 time=0
EXTRACT: note_on channel=9 note=42 velocity=95 time=0
EXTRACT: note_on channel=9 note=36 velocity=95 time=0
EXTRACT: note_off channel=2 note=62 velocity=127 time=0
EXTRACT: note_off channel=2 note=59 velocity=127 time=0
EXTRACT: note_off channel=2 note=55 velocity=95 time=0
EXTRACT: note_on channel=2 note=64 velocity=127 time=0
EXTRACT: note_on channel=2 note=61 velocity=127 time=0
EXTRACT: note_on channel=2 note=57 velocity=95 time=0
EXTRACT: note_on channel=2 note=50 velocity=95 time=0
EXTRACT: note_off channel=4 note=62 velocity=95 time=0
EXTRACT: note_off channel=6 note=67 velocity=95 time=0
EXTRACT: note_off channel=6 note=62 velocity=95 time=0
EXTRACT: note_on channel=6 note=64 velocity=95 time=0
EXTRACT: note_off channel=11 note=71 velocity=95 time=0
EXTRACT: note_on channel=11 note=69 velocity=95 time=0
EXTRACT: note_off channel=11 note=69 velocity=95 time=0.13274325
EXTRACT: note_on channel=11 note=66 velocity=95 time=0
EXTRACT: note_off channel=0 note=50 velocity=95 time=0.13274325
EXTRACT: note_on channel=0 note=50 velocity=95 time=0
EXTRACT: note_off channel=9 note=42 velocity=95 time=0
EXTRACT: note_on channel=9 note=42 velocity=95 time=0
EXTRACT: note_off channel=2 note=64 velocity=127 time=0
EXTRACT: note_off channel=2 note=61 velocity=127 time=0
EXTRACT: note_off channel=2 note=57 velocity=95 time=0
EXTRACT: note_off channel=2 note=50 velocity=95 time=0
EXTRACT: note_on channel=2 note=64 velocity=127 time=0
EXTRACT: note_on channel=2 note=61 velocity=127 time=0
EXTRACT: note_on channel=2 note=57 velocity=95 time=0
EXTRACT: note_on channel=2 note=50 velocity=95 time=0
EXTRACT: note_on channel=6 note=69 velocity=95 time=0
EXTRACT: note_off channel=11 note=66 velocity=95 time=0
EXTRACT: note_on channel=11 note=64 velocity=95 time=0
EXTRACT: note_off channel=11 note=64 velocity=95 time=0.13274325
EXTRACT: note_on channel=11 note=62 velocity=95 time=0
EXTRACT: note_off channel=0 note=50 velocity=95 time=0.13274325
EXTRACT: note_on channel=0 note=50 velocity=95 time=0
EXTRACT: note_off channel=9 note=36 velocity=95 time=0
EXTRACT: note_off channel=9 note=42 velocity=95 time=0
EXTRACT: note_on channel=9 note=42 velocity=95 time=0
EXTRACT: note_on channel=9 note=38 velocity=95 time=0
EXTRACT: note_on channel=9 note=39 velocity=95 time=0
EXTRACT: note_off channel=2 note=64 velocity=127 time=0
EXTRACT: note_off channel=2 note=61 velocity=127 time=0
EXTRACT: note_off channel=2 note=57 velocity=95 time=0
EXTRACT: note_off channel=2 note=50 velocity=95 time=0
EXTRACT: note_on channel=2 note=64 velocity=127 time=0
EXTRACT: note_on channel=2 note=61 velocity=127 time=0
EXTRACT: note_on channel=2 note=57 velocity=95 time=0
EXTRACT: note_on channel=2 note=50 velocity=95 time=0
EXTRACT: note_off channel=11 note=62 velocity=95 time=0
EXTRACT: note_on channel=11 note=57 velocity=95 time=0
EXTRACT: note_off channel=0 note=50 velocity=95 time=0.2654865
EXTRACT: note_on channel=0 note=50 velocity=95 time=0
EXTRACT: note_off channel=9 note=42 velocity=95 time=0
EXTRACT: note_off channel=9 note=39 velocity=95 time=0
EXTRACT: note_on channel=9 note=42 velocity=95 time=0
EXTRACT: note_off channel=2 note=64 velocity=127 time=0
EXTRACT: note_off channel=2 note=61 velocity=127 time=0
EXTRACT: note_off channel=2 note=57 velocity=95 time=0
EXTRACT: note_off channel=2 note=50 velocity=95 time=0
EXTRACT: note_on channel=2 note=64 velocity=127 time=0
EXTRACT: note_on channel=2 note=61 velocity=127 time=0
EXTRACT: note_on channel=2 note=57 velocity=95 time=0
EXTRACT: note_on channel=2 note=50 velocity=95 time=0
EXTRACT: note_off channel=6 note=64 velocity=95 time=0
EXTRACT: note_off channel=6 note=69 velocity=95 time=0
EXTRACT: note_on channel=6 note=62 velocity=95 time=0
EXTRACT: note_off channel=11 note=57 velocity=95 time=0
EXTRACT: note_off channel=0 note=50 velocity=95 time=0.13274325
EXTRACT: note_on channel=0 note=50 velocity=95 time=0
EXTRACT: note_on channel=12 note=62 velocity=95 time=0.066371625
EXTRACT: note_off channel=0 note=50 velocity=95 time=0.066371625
EXTRACT: note_on channel=0 note=50 velocity=95 time=0
EXTRACT: note_off channel=9 note=38 velocity=95 time=0
EXTRACT: note_off channel=9 note=42 velocity=95 time=0
EXTRACT: note_on channel=9 note=42 velocity=95 time=0
EXTRACT: note_off channel=2 note=64 velocity=127 time=0
EXTRACT: note_off channel=2 note=61 velocity=127 time=0
EXTRACT: note_off channel=2 note=57 velocity=95 time=0
EXTRACT: note_off channel=2 note=50 velocity=95 time=0
EXTRACT: note_on channel=2 note=64 velocity=127 time=0
EXTRACT: note_on channel=2 note=61 velocity=127 time=0
EXTRACT: note_on channel=2 note=57 velocity=95 time=0
EXTRACT: note_on channel=2 note=50 velocity=95 time=0
EXTRACT: note_on channel=4 note=61 velocity=95 time=0
EXTRACT: note_off channel=6 note=62 velocity=95 time=0
EXTRACT: note_on channel=6 note=61 velocity=95 time=0
EXTRACT: note_off channel=12 note=62 velocity=95 time=0
EXTRACT: note_on channel=12 note=64 velocity=95 time=0
EXTRACT: note_off channel=0 note=50 velocity=95 time=0.2654865
EXTRACT: note_on channel=0 note=45 velocity=95 time=0
EXTRACT: note_off channel=9 note=42 velocity=95 time=0
EXTRACT: note_on channel=9 note=42 velocity=95 time=0
EXTRACT: note_on channel=9 note=36 velocity=95 time=0
EXTRACT: note_off channel=2 note=64 velocity=127 time=0
EXTRACT: note_off channel=2 note=61 velocity=127 time=0
EXTRACT: note_off channel=2 note=57 velocity=95 time=0
EXTRACT: note_off channel=2 note=50 velocity=95 time=0
EXTRACT: note_on channel=2 note=64 velocity=127 time=0
EXTRACT: note_on channel=2 note=61 velocity=127 time=0
EXTRACT: note_on channel=2 note=57 velocity=95 time=0
EXTRACT: note_on channel=2 note=50 velocity=95 time=0
EXTRACT: note_off channel=4 note=61 velocity=95 time=0
EXTRACT: note_on channel=4 note=62 velocity=95 time=0
EXTRACT: note_off channel=6 note=61 velocity=95 time=0
EXTRACT: note_on channel=6 note=59 velocity=95 time=0
EXTRACT: note_off channel=0 note=45 velocity=95 time=0.2654865
EXTRACT: note_off channel=9 note=42 velocity=95 time=0
EXTRACT: note_off channel=9 note=36 velocity=95 time=0
EXTRACT: note_on channel=9 note=46 velocity=95 time=0
EXTRACT: note_on channel=9 note=38 velocity=95 time=0
EXTRACT: note_on channel=9 note=31 velocity=95 time=0
EXTRACT: note_off channel=2 note=64 velocity=127 time=0
EXTRACT: note_off channel=2 note=61 velocity=127 time=0
EXTRACT: note_off channel=2 note=57 velocity=95 time=0
EXTRACT: note_off channel=2 note=50 velocity=95 time=0
EXTRACT: note_on channel=2 note=64 velocity=127 time=0
EXTRACT: note_on channel=2 note=61 velocity=127 time=0
EXTRACT: note_on channel=2 note=57 velocity=95 time=0
EXTRACT: note_on channel=2 note=50 velocity=95 time=0
EXTRACT: note_off channel=4 note=62 velocity=95 time=0
EXTRACT: note_on channel=4 note=64 velocity=95 time=0
EXTRACT: note_off channel=6 note=59 velocity=95 time=0
EXTRACT: note_on channel=6 note=69 velocity=95 time=0
EXTRACT: note_on channel=8 note=79 velocity=127 time=0
EXTRACT: note_on channel=8 note=74 velocity=127 time=0
EXTRACT: note_off channel=9 note=46 velocity=95 time=0.2654865
EXTRACT: note_off channel=9 note=38 velocity=95 time=0
EXTRACT: note_off channel=9 note=31 velocity=95 time=0
EXTRACT: note_on channel=9 note=46 velocity=95 time=0
EXTRACT: note_on channel=9 note=36 velocity=95 time=0
EXTRACT: note_off channel=2 note=64 velocity=127 time=0
EXTRACT: note_off channel=2 note=61 velocity=127 time=0
EXTRACT: note_off channel=2 note=57 velocity=95 time=0
EXTRACT: note_off channel=2 note=50 velocity=95 time=0
EXTRACT: note_on channel=2 note=64 velocity=127 time=0
EXTRACT: note_on channel=2 note=61 velocity=127 time=0
EXTRACT: note_on channel=2 note=57 velocity=95 time=0
EXTRACT: note_on channel=2 note=50 velocity=95 time=0
EXTRACT: note_off channel=6 note=69 velocity=95 time=0
EXTRACT: note_on channel=6 note=61 velocity=95 time=0
EXTRACT: note_off channel=12 note=64 velocity=95 time=0
EXTRACT: note_on channel=12 note=62 velocity=95 time=0
EXTRACT: pitchwheel channel=12 pitch=256 time=0.066371625
EXTRACT: pitchwheel channel=12 pitch=640 time=0.066371625
EXTRACT: pitchwheel channel=12 pitch=1024 time=0.066371625
EXTRACT: note_on channel=1 note=54 velocity=95 time=0
EXTRACT: note_on channel=0 note=38 velocity=95 time=0
EXTRACT: note_off channel=9 note=46 velocity=95 time=0
EXTRACT: note_off channel=9 note=36 velocity=95 time=0
EXTRACT: note_on channel=9 note=42 velocity=95 time=0
EXTRACT: note_on channel=9 note=36 velocity=95 time=0
EXTRACT: note_off channel=2 note=64 velocity=127 time=0
EXTRACT: note_off channel=2 note=61 velocity=127 time=0
EXTRACT: note_off channel=2 note=57 velocity=95 time=0
EXTRACT: note_off channel=2 note=50 velocity=95 time=0
EXTRACT: note_on channel=2 note=66 velocity=127 time=0
EXTRACT: note_on channel=2 note=62 velocity=127 time=0
EXTRACT: note_on channel=2 note=57 velocity=95 time=0
EXTRACT: note_on channel=2 note=50 velocity=95 time=0
EXTRACT: note_off channel=4 note=64 velocity=95 time=0
EXTRACT: note_on channel=4 note=62 velocity=95 time=0
EXTRACT: note_on channel=4 note=50 velocity=95 time=0
EXTRACT: note_off channel=6 note=61 velocity=95 time=0
EXTRACT: note_on channel=6 note=62 velocity=95 time=0
EXTRACT: note_off channel=8 note=79 velocity=127 time=0
EXTRACT: note_off channel=8 note=74 velocity=127 time=0
EXTRACT: note_on channel=8 note=81 velocity=127 time=0
EXTRACT: note_on channel=8 note=74 velocity=127 time=0
EXTRACT: pitchwheel channel=12 pitch=1408 time=0
EXTRACT: pitchwheel channel=12 pitch=0 time=0
EXTRACT: note_off channel=12 note=62 velocity=95 time=0
EXTRACT: note_on channel=11 note=64 velocity=95 time=0
EXTRACT: note_off channel=0 note=38 velocity=95 time=0.2631575
EXTRACT: note_on channel=0 note=38 velocity=95 time=0
EXTRACT: note_off channel=9 note=42 velocity=95 time=0
EXTRACT: note_on channel=9 note=42 velocity=95 time=0
EXTRACT: note_off channel=2 note=66 velocity=127 time=0
EXTRACT: note_off channel=2 note=62 velocity=127 time=0
EXTRACT: note_off channel=2 note=57 velocity=95 time=0
EXTRACT: note_off channel=2 note=50 velocity=95 time=0
EXTRACT: note_on channel=2 note=66 velocity=127 time=0
EXTRACT: note_on channel=2 note=62 velocity=127 time=0
EXTRACT: note_on channel=2 note=57 velocity=95 time=0
EXTRACT: note_on channel=2 note=50 velocity=95 time=0
EXTRACT: note_off channel=6 note=62 velocity=95 time=0
EXTRACT: note_on channel=6 note=62 velocity=95 time=0
EXTRACT: note_off channel=11 note=64 velocity=95 time=0
EXTRACT: note_on channel=11 note=69 velocity=95 time=0
EXTRACT: note_off channel=0 note=38 velocity=95 time=0.2631575
EXTRACT: note_on channel=0 note=38 velocity=95 time=0
EXTRACT: note_off channel=9 note=36 velocity=95 time=0
EXTRACT: note_off channel=9 note=42 velocity=95 time=0
EXTRACT: note_on channel=9 note=42 velocity=95 time=0
EXTRACT: note_on channel=9 note=38 velocity=95 time=0
EXTRACT: note_on channel=9 note=39 velocity=95 time=0
EXTRACT: note_off channel=2 note=66 velocity=127 time=0
EXTRACT: note_off channel=2 note=62 velocity=127 time=0
EXTRACT: note_off channel=2 note=57 velocity=95 time=0
EXTRACT: note_off channel=2 note=50 velocity=95 time=0
EXTRACT: note_on channel=2 note=66 velocity=127 time=0
EXTRACT: note_on channel=2 note=62 velocity=127 time=0
EXTRACT: note_on channel=2 note=57 velocity=95 time=0
EXTRACT: note_on channel=2 note=50 velocity=95 time=0
EXTRACT: note_off channel=4 note=62 velocity=95 time=0
EXTRACT: note_off channel=4 note=50 velocity=95 time=0
EXTRACT: note_on channel=4 note=62 velocity=95 time=0
EXTRACT: note_on channel=6 note=66 velocity=95 time=0
EXTRACT: note_off channel=11 note=69 velocity=95 time=0
EXTRACT: note_on channel=11 note=66 velocity=95 time=0
EXTRACT: note_off channel=1 note=54 velocity=95 time=0.2631575
EXTRACT: note_on channel=1 note=55 velocity=95 time=0
EXTRACT: note_off channel=0 note=38 velocity=95 time=0
EXTRACT: note_on channel=0 note=38 velocity=95 time=0
EXTRACT: note_off channel=9 note=42 velocity=95 time=0
EXTRACT: note_off channel=9 note=39 velocity=95 time=0
EXTRACT: note_on channel=9 note=42 velocity=95 time=0
EXTRACT: note_off channel=2 note=66 velocity=127 time=0
EXTRACT: note_off channel=2 note=62 velocity=127 time=0
EXTRACT: note_off channel=2 note=57 velocity=95 time=0
EXTRACT: note_off channel=2 note=50 velocity=95 time=0
EXTRACT: note_on channel=2 note=66 velocity=127 time=0
EXTRACT: note_on channel=2 note=62 velocity=127 time=0
EXTRACT: note_on channel=2 note=57 velocity=95 time=0
EXTRACT: note_on channel=2 note=50 velocity=95 time=0
EXTRACT: note_on channel=4 note=69 velocity=95 time=0
EXTRACT: note_on channel=4 note=66 velocity=95 time=0
EXTRACT: note_off channel=6 note=66 velocity=95 time=0
EXTRACT: note_on channel=6 note=69 velocity=95 time=0
EXTRACT: note_off channel=0 note=38 velocity=95 time=0.13157875
EXTRACT: note_on channel=0 note=38 velocity=95 time=0
EXTRACT: note_off channel=0 note=38 velocity=95 time=0.13157875
EXTRACT: note_on channel=0 note=38 velocity=95 time=0
EXTRACT: note_off channel=9 note=38 velocity=95 time=0
EXTRACT: note_off channel=9 note=42 velocity=95 time=0
EXTRACT: note_on channel=9 note=42 velocity=95 time=0
EXTRACT: note_off channel=2 note=66 velocity=127 time=0
EXTRACT: note_off channel=2 note=62 velocity=127 time=0
EXTRACT: note_off channel=2 note=57 velocity=95 time=0
EXTRACT: note_off channel=2 note=50 velocity=95 time=0
EXTRACT: note_on channel=2 note=66 velocity=127 time=0
EXTRACT: note_on channel=2 note=62 velocity=127 time=0
EXTRACT: note_on channel=2 note=57 velocity=95 time=0
EXTRACT: note_on channel=2 note=50 velocity=95 time=0
EXTRACT: note_off channel=6 note=62 velocity=95 time=0
EXTRACT: note_on channel=6 note=66 velocity=95 time=0
EXTRACT: note_off channel=11 note=66 velocity=95 time=0
EXTRACT: note_off channel=0 note=38 velocity=95 time=0.2631575
EXTRACT: note_on channel=0 note=38 velocity=95 time=0
EXTRACT: note_off channel=9 note=42 velocity=95 time=0
EXTRACT: note_on channel=9 note=46 velocity=95 time=0
EXTRACT: note_on channel=9 note=36 velocity=95 time=0
EXTRACT: note_off channel=2 note=66 velocity=127 time=0
EXTRACT: note_off channel=2 note=62 velocity=127 time=0
EXTRACT: note_off channel=2 note=57 velocity=95 time=0
EXTRACT: note_off channel=2 note=50 velocity=95 time=0
EXTRACT: note_on channel=2 note=66 velocity=127 time=0
EXTRACT: note_on channel=2 note=62 velocity=127 time=0
EXTRACT: note_on channel=2 note=57 velocity=95 time=0
EXTRACT: note_on channel=2 note=50 velocity=95 time=0
EXTRACT: note_off channel=4 note=62 velocity=95 time=0
EXTRACT: note_on channel=4 note=50 velocity=95 time=0
EXTRACT: note_off channel=6 note=66 velocity=95 time=0
EXTRACT: note_on channel=6 note=62 velocity=95 time=0
EXTRACT: note_off channel=1 note=55 velocity=95 time=0.2631575
EXTRACT: note_on channel=1 note=57 velocity=95 time=0
EXTRACT: note_off channel=0 note=38 velocity=95 time=0
EXTRACT: note_on channel=0 note=38 velocity=95 time=0
EXTRACT: note_off channel=9 note=46 velocity=95 time=0
EXTRACT: note_off channel=9 note=36 velocity=95 time=0
EXTRACT: note_on channel=9 note=42 velocity=95 time=0
EXTRACT: note_on channel=9 note=38 velocity=95 time=0
EXTRACT: note_on channel=9 note=31 velocity=95 time=0
EXTRACT: note_off channel=2 note=66 velocity=127 time=0
EXTRACT: note_off channel=2 note=62 velocity=127 time=0
EXTRACT: note_off channel=2 note=57 velocity=95 time=0
EXTRACT: note_off channel=2 note=50 velocity=95 time=0
EXTRACT: note_on channel=2 note=66 velocity=127 time=0
EXTRACT: note_on channel=2 note=62 velocity=127 time=0
EXTRACT: note_on channel=2 note=57 velocity=95 time=0
EXTRACT: note_on channel=2 note=50 velocity=95 time=0
EXTRACT: note_off channel=4 note=69 velocity=95 time=0
EXTRACT: note_off channel=4 note=66 velocity=95 time=0
EXTRACT: note_on channel=4 note=66 velocity=95 time=0
EXTRACT: note_off channel=6 note=69 velocity=95 time=0
EXTRACT: note_on channel=6 note=66 velocity=95 time=0
EXTRACT: note_off channel=0 note=38 velocity=95 time=0.2631575
EXTRACT: note_on channel=0 note=40 velocity=95 time=0
EXTRACT: note_off channel=9 note=42 velocity=95 time=0
EXTRACT: note_off channel=9 note=31 velocity=95 time=0
EXTRACT: note_on channel=9 note=42 velocity=95 time=0
EXTRACT: note_off channel=2 note=66 velocity=127 time=0
EXTRACT: note_off channel=2 note=62 velocity=127 time=0
EXTRACT: note_off channel=2 note=57 velocity=95 time=0
EXTRACT: note_off channel=2 note=50 velocity=95 time=0
EXTRACT: note_on channel=2 note=66 velocity=127 time=0
EXTRACT: note_on channel=2 note=62 velocity=127 time=0
EXTRACT: note_on channel=2 note=57 velocity=95 time=0
EXTRACT: note_on channel=2 note=50 velocity=95 time=0
EXTRACT: note_off channel=4 note=50 velocity=95 time=0
EXTRACT: note_on channel=4 note=62 velocity=95 time=0
EXTRACT: note_on channel=4 note=50 velocity=95 time=0
EXTRACT: note_off channel=6 note=62 velocity=95 time=0
EXTRACT: note_on channel=6 note=62 velocity=95 time=0
EXTRACT: note_off channel=1 note=57 velocity=95 time=0.2631575
EXTRACT: note_on channel=1 note=57 velocity=95 time=0
EXTRACT: note_off channel=0 note=40 velocity=95 time=0
EXTRACT: note_on channel=0 note=37 velocity=95 time=0
EXTRACT: note_off channel=9 note=38 velocity=95 time=0
EXTRACT: note_off channel=9 note=42 velocity=95 time=0
EXTRACT: note_on channel=9 note=42 velocity=95 time=0
EXTRACT: note_on channel=9 note=36 velocity=95 time=0
EXTRACT: note_off channel=2 note=66 velocity=127 time=0
EXTRACT: note_off channel=2 note=62 velocity=127 time=0
EXTRACT: note_off channel=2 note=57 velocity=95 time=0
EXTRACT: note_off channel=2 note=50 velocity=95 time=0
EXTRACT: note_on channel=2 note=64 velocity=127 time=0
EXTRACT: note_on channel=2 note=61 velocity=127 time=0
EXTRACT: note_on channel=2 note=57 velocity=95 time=0
EXTRACT: note_on channel=2 note=50 velocity=95 time=0
EXTRACT: note_off channel=4 note=66 velocity=95 time=0
EXTRACT: note_on channel=4 note=64 velocity=95 time=0
EXTRACT: note_off channel=6 note=66 velocity=95 time=0
EXTRACT: note_off channel=6 note=62 velocity=95 time=0
EXTRACT: note_on channel=6 note=64 velocity=95 time=0
EXTRACT: note_off channel=8 note=81 velocity=127 time=0
EXTRACT: note_off channel=8 note=74 velocity=127 time=0
EXTRACT: note_off channel=0 note=37 velocity=95 time=0.2631575
EXTRACT: note_on channel=0 note=37 velocity=95 time=0
EXTRACT: note_off channel=9 note=42 velocity=95 time=0
EXTRACT: note_on channel=9 note=42 velocity=95 time=0
EXTRACT: note_off channel=2 note=64 velocity=127 time=0
EXTRACT: note_off channel=2 note=61 velocity=127 time=0
EXTRACT: note_off channel=2 note=57 velocity=95 time=0
EXTRACT: note_off channel=2 note=50 velocity=95 time=0
EXTRACT: note_on channel=2 note=64 velocity=127 time=0
EXTRACT: note_on channel=2 note=61 velocity=127 time=0
EXTRACT: note_on channel=2 note=57 velocity=95 time=0
EXTRACT: note_on channel=2 note=50 velocity=95 time=0
EXTRACT: note_off channel=4 note=64 velocity=95 time=0
EXTRACT: note_on channel=4 note=73 velocity=95 time=0
EXTRACT: note_on channel=6 note=73 velocity=95 time=0
EXTRACT: note_on channel=11 note=64 velocity=95 time=0
EXTRACT: note_off channel=11 note=64 velocity=95 time=0.13157875
EXTRACT: note_on channel=11 note=64 velocity=95 time=0
EXTRACT: note_off channel=0 note=37 velocity=95 time=0.13157875
EXTRACT: note_on channel=0 note=37 velocity=95 time=0
EXTRACT: note_off channel=9 note=36 velocity=95 time=0
EXTRACT: note_off channel=9 note=42 velocity=95 time=0
EXTRACT: note_on channel=9 note=42 velocity=95 time=0
EXTRACT: note_on channel=9 note=38 velocity=95 time=0
EXTRACT: note_on channel=9 note=39 velocity=95 time=0
EXTRACT: note_off channel=2 note=64 velocity=127 time=0
EXTRACT: note_off channel=2 note=61 velocity=127 time=0
EXTRACT: note_off channel=2 note=57 velocity=95 time=0
EXTRACT: note_off channel=2 note=50 velocity=95 time=0
EXTRACT: note_on channel=2 note=64 velocity=127 time=0
EXTRACT: note_on channel=2 note=61 velocity=127 time=0
EXTRACT: note_on channel=2 note=57 velocity=95 time=0
EXTRACT: note_on channel=2 note=50 velocity=95 time=0
EXTRACT: note_off channel=4 note=62 velocity=95 time=0
EXTRACT: note_off channel=4 note=50 velocity=95 time=0
EXTRACT: note_on channel=4 note=62 velocity=95 time=0
EXTRACT: note_off channel=6 note=64 velocity=95 time=0
EXTRACT: note_on channel=6 note=62 velocity=95 time=0
EXTRACT: note_off channel=11 note=64 velocity=95 time=0
EXTRACT: note_on channel=11 note=64 velocity=95 time=0
EXTRACT: note_off channel=11 note=64 velocity=95 time=0.13157875
EXTRACT: note_on channel=11 note=69 velocity=95 time=0
EXTRACT: note_off channel=1 note=57 velocity=95 time=0.13157875
EXTRACT: note_on channel=1 note=59 velocity=95 time=0
EXTRACT: note_off channel=0 note=37 velocity=95 time=0
EXTRACT: note_on channel=0 note=37 velocity=95 time=0
EXTRACT: note_off channel=9 note=42 velocity=95 time=0
EXTRACT: note_off channel=9 note=39 velocity=95 time=0
EXTRACT: note_on channel=9 note=42 velocity=95 time=0
EXTRACT: note_off channel=2 note=64 velocity=127 time=0
EXTRACT: note_off channel=2 note=61 velocity=127 time=0
EXTRACT: note_off channel=2 note=57 velocity=95 time=0
EXTRACT: note_off channel=2 note=50 velocity=95 time=0
EXTRACT: note_on channel=2 note=64 velocity=127 time=0
EXTRACT: note_on channel=2 note=61 velocity=127 time=0
EXTRACT: note_on channel=2 note=57 velocity=95 time=0
EXTRACT: note_on channel=2 note=50 velocity=95 time=0
EXTRACT: note_off channel=4 note=73 velocity=95 time=0
EXTRACT: note_on channel=4 note=69 velocity=95 time=0
EXTRACT: note_off channel=6 note=73 velocity=95 time=0
EXTRACT: note_on channel=6 note=69 velocity=95 time=0
EXTRACT: note_off channel=11 note=69 velocity=95 time=0
EXTRACT: note_on channel=11 note=66 velocity=95 time=0
EXTRACT: note_off channel=0 note=37 velocity=95 time=0.13157875
EXTRACT: note_on channel=0 note=37 velocity=95 time=0
EXTRACT: note_off channel=0 note=37 velocity=95 time=0.13157875
EXTRACT: note_on channel=0 note=37 velocity=95 time=0
EXTRACT: note_off channel=9 note=38 velocity=95 time=0
EXTRACT: note_off channel=9 note=42 velocity=95 time=0
EXTRACT: note_on channel=9 note=42 velocity=95 time=0
EXTRACT: note_off channel=2 note=64 velocity=127 time=0
EXTRACT: note_off channel=2 note=61 velocity=127 time=0
EXTRACT: note_off channel=2 note=57 velocity=95 time=0
EXTRACT: note_off channel=2 note=50 velocity=95 time=0
EXTRACT: note_on channel=2 note=64 velocity=127 time=0
EXTRACT: note_on channel=2 note=61 velocity=127 time=0
EXTRACT: note_on channel=2 note=57 velocity=95 time=0
EXTRACT: note_on channel=2 note=50 velocity=95 time=0
EXTRACT: note_off channel=11 note=66 velocity=95 time=0
EXTRACT: note_off channel=0 note=37 velocity=95 time=0.2631575
EXTRACT: note_on channel=0 note=33 velocity=95 time=0
EXTRACT: note_off channel=9 note=42 velocity=95 time=0
EXTRACT: note_on channel=9 note=42 velocity=95 time=0
EXTRACT: note_on channel=9 note=36 velocity=95 time=0
EXTRACT: note_off channel=2 note=64 velocity=127 time=0
EXTRACT: note_off channel=2 note=61 velocity=127 time=0
EXTRACT: note_off channel=2 note=57 velocity=95 time=0
EXTRACT: note_off channel=2 note=50 velocity=95 time=0
EXTRACT: note_on channel=2 note=64 velocity=127 time=0
EXTRACT: note_on channel=2 note=61 velocity=127 time=0
EXTRACT: note_on channel=2 note=57 velocity=95 time=0
EXTRACT: note_on channel=2 note=50 velocity=95 time=0
EXTRACT: note_off channel=4 note=62 velocity=95 time=0
EXTRACT: note_on channel=4 note=62 velocity=95 time=0
EXTRACT: note_on channel=4 note=50 velocity=95 time=0
EXTRACT: note_off channel=6 note=62 velocity=95 time=0
EXTRACT: note_on channel=6 note=62 velocity=95 time=0
EXTRACT: note_off channel=1 note=59 velocity=95 time=0.2631575
EXTRACT: note_on channel=1 note=61 velocity=95 time=0
EXTRACT: note_off channel=0 note=33 velocity=95 time=0
EXTRACT: note_off channel=9 note=42 velocity=95 time=0
EXTRACT: note_off channel=9 note=36 velocity=95 time=0
EXTRACT: note_on channel=9 note=42 velocity=95 time=0
EXTRACT: note_on channel=9 note=38 velocity=95 time=0
EXTRACT: note_on channel=9 note=31 velocity=95 time=0
EXTRACT: note_off channel=2 note=64 velocity=127 time=0
EXTRACT: note_off channel=2 note=61 velocity=127 time=0
EXTRACT: note_off channel=2 note=57 velocity=95 time=0
EXTRACT: note_off channel=2 note=50 velocity=95 time=0
EXTRACT: note_on channel=2 note=64 velocity=127 time=0
EXTRACT: note_on channel=2 note=61 velocity=127 time=0
EXTRACT: note_on channel=2 note=57 velocity=95 time=0
EXTRACT: note_on channel=2 note=50 velocity=95 time=0
EXTRACT: note_off channel=4 note=69 velocity=95 time=0
EXTRACT: note_on channel=4 note=64 velocity=95 time=0
EXTRACT: note_off channel=6 note=69 velocity=95 time=0
EXTRACT: note_on channel=6 note=64 velocity=95 time=0
EXTRACT: note_off channel=9 note=42 velocity=95 time=0.2631575
EXTRACT: note_off channel=9 note=31 velocity=95 time=0
EXTRACT: note_on channel=9 note=42 velocity=95 time=0
EXTRACT: note_off channel=2 note=64 velocity=127 time=0
EXTRACT: note_off channel=2 note=61 velocity=127 time=0
EXTRACT: note_off channel=2 note=57 velocity=95 time=0
EXTRACT: note_off channel=2 note=50 velocity=95 time=0
EXTRACT: note_on channel=2 note=64 velocity=127 time=0
EXTRACT: note_on channel=2 note=61 velocity=127 time=0
EXTRACT: note_on channel=2 note=57 velocity=95 time=0
EXTRACT: note_on channel=2 note=50 velocity=95 time=0
EXTRACT: note_off channel=4 note=62 velocity=95 time=0
EXTRACT: note_off channel=4 note=50 velocity=95 time=0
EXTRACT: note_on channel=4 note=50 velocity=95 time=0
EXTRACT: note_off channel=6 note=62 velocity=95 time=0
EXTRACT: note_on channel=6 note=62 velocity=95 time=0
EXTRACT: note_on channel=0 note=35 velocity=95 time=0.2631575
EXTRACT: note_off channel=9 note=38 velocity=95 time=0
EXTRACT: note_off channel=9 note=42 velocity=95 time=0
EXTRACT: note_on channel=9 note=42 velocity=95 time=0
EXTRACT: note_on channel=9 note=36 velocity=95 time=0
EXTRACT: note_off channel=2 note=64 velocity=127 time=0
EXTRACT: note_off channel=2 note=61 velocity=127 time=0
EXTRACT: note_off channel=2 note=57 velocity=95 time=0
EXTRACT: note_off channel=2 note=50 velocity=95 time=0
EXTRACT: note_on channel=2 note=62 velocity=127 time=0
EXTRACT: note_on channel=2 note=59 velocity=127 time=0
EXTRACT: note_on channel=2 note=55 velocity=95 time=0
EXTRACT: note_off channel=4 note=64 velocity=95 time=0
EXTRACT: note_on channel=4 note=67 velocity=95 time=0
EXTRACT: note_off channel=6 note=64 velocity=95 time=0
EXTRACT: note_off channel=6 note=62 velocity=95 time=0
EXTRACT: note_off channel=1 note=61 velocity=95 time=0.13157875
EXTRACT: note_on channel=1 note=62 velocity=95 time=0
EXTRACT: note_off channel=0 note=35 velocity=95 time=0.13157875
EXTRACT: note_on channel=0 note=35 velocity=95 time=0
EXTRACT: note_off channel=9 note=42 velocity=95 time=0
EXTRACT: note_on channel=9 note=42 velocity=95 time=0
EXTRACT: note_off channel=2 note=62 velocity=127 time=0
EXTRACT: note_off channel=2 note=59 velocity=127 time=0
EXTRACT: note_off channel=2 note=55 velocity=95 time=0
EXTRACT: note_on channel=2 note=62 velocity=127 time=0
EXTRACT: note_on channel=2 note=59 velocity=127 time=0
EXTRACT: note_on channel=2 note=55 velocity=95 time=0
EXTRACT: note_off channel=4 note=50 velocity=95 time=0
EXTRACT: note_on channel=4 note=62 velocity=95 time=0
EXTRACT: note_on channel=6 note=62 velocity=95 time=0
EXTRACT: note_on channel=11 note=57 velocity=95 time=0
EXTRACT: note_off channel=0 note=35 velocity=95 time=0.2631575
EXTRACT: note_on channel=0 note=35 velocity=95 time=0
EXTRACT: note_off channel=9 note=36 velocity=95 time=0
EXTRACT: note_off channel=9 note=42 velocity=95 time=0
EXTRACT: note_on channel=9 note=42 velocity=95 time=0
EXTRACT: note_on channel=9 note=38 velocity=95 time=0
EXTRACT: note_on channel=9 note=39 velocity=95 time=0
EXTRACT: note_off channel=2 note=62 velocity=127 time=0
EXTRACT: note_off channel=2 note=59 velocity=127 time=0
EXTRACT: note_off channel=2 note=55 velocity=95 time=0
EXTRACT: note_on channel=2 note=62 velocity=127 time=0
EXTRACT: note_on channel=2 note=59 velocity=127 time=0
EXTRACT: note_on channel=2 note=55 velocity=95 time=0
EXTRACT: note_off channel=4 note=67 velocity=95 time=0
EXTRACT: note_off channel=4 note=62 velocity=95 time=0
EXTRACT: note_on channel=4 note=71 velocity=95 time=0
EXTRACT: note_on channel=4 note=62 velocity=95 time=0
EXTRACT: note_off channel=6 note=62 velocity=95 time=0
EXTRACT: note_on channel=6 note=59 velocity=95 time=0
EXTRACT: note_off channel=11 note=57 velocity=95 time=0
EXTRACT: note_on channel=11 note=59 velocity=95 time=0
EXTRACT: note_off channel=0 note=35 velocity=95 time=0.2631575
EXTRACT: note_on channel=0 note=35 velocity=95 time=0
EXTRACT: note_off channel=9 note=42 velocity=95 time=0
EXTRACT: note_off channel=9 note=39 velocity=95 time=0
EXTRACT: note_on channel=9 note=42 velocity=95 time=0
EXTRACT: note_off channel=2 note=62 velocity=127 time=0
EXTRACT: note_off channel=2 note=59 velocity=127 time=0
EXTRACT: note_off channel=2 note=55 velocity=95 time=0
EXTRACT: note_on channel=2 note=62 velocity=127 time=0
EXTRACT: note_on channel=2 note=59 velocity=127 time=0
EXTRACT: note_on channel=2 note=55 velocity=95 time=0
EXTRACT: note_off channel=4 note=71 velocity=95 time=0
EXTRACT: note_on channel=4 note=69 velocity=95 time=0
EXTRACT: note_off channel=6 note=59 velocity=95 time=0
EXTRACT: note_on channel=6 note=69 velocity=95 time=0
EXTRACT: note_on channel=6 note=67 velocity=95 time=0
EXTRACT: note_on channel=6 note=62 velocity=95 time=0
EXTRACT: note_off channel=11 note=59 velocity=95 time=0
EXTRACT: note_on channel=11 note=62 velocity=95 time=0
EXTRACT: note_off channel=0 note=35 velocity=95 time=0.13157875
EXTRACT: note_on channel=0 note=35 velocity=95 time=0
EXTRACT: note_off channel=0 note=35 velocity=95 time=0.13157875
EXTRACT: note_on channel=0 note=35 velocity=95 time=0
EXTRACT: note_off channel=9 note=38 velocity=95 time=0
EXTRACT: note_off channel=9 note=42 velocity=95 time=0
EXTRACT: note_on channel=9 note=42 velocity=95 time=0
EXTRACT: note_off channel=2 note=62 velocity=127 time=0
EXTRACT: note_off channel=2 note=59 velocity=127 time=0
EXTRACT: note_off channel=2 note=55 velocity=95 time=0
EXTRACT: note_on channel=2 note=62 velocity=127 time=0
EXTRACT: note_on channel=2 note=59 velocity=127 time=0
EXTRACT: note_on channel=2 note=55 velocity=95 time=0
EXTRACT: note_off channel=11 note=62 velocity=95 time=0
EXTRACT: note_off channel=0 note=35 velocity=95 time=0.2631575
EXTRACT: note_on channel=0 note=33 velocity=95 time=0
EXTRACT: note_off channel=9 note=42 velocity=95 time=0
EXTRACT: note_on channel=9 note=42 velocity=95 time=0
EXTRACT: note_on channel=9 note=36 velocity=95 time=0
EXTRACT: note_off channel=2 note=62 velocity=127 time=0
EXTRACT: note_off channel=2 note=59 velocity=127 time=0
EXTRACT: note_off channel=2 note=55 velocity=95 time=0
EXTRACT: note_on channel=2 note=62 velocity=127 time=0
EXTRACT: note_on channel=2 note=59 velocity=127 time=0
EXTRACT: note_on channel=2 note=55 velocity=95 time=0
EXTRACT: note_off channel=4 note=69 velocity=95 time=0
EXTRACT: note_on channel=4 note=67 velocity=95 time=0
EXTRACT: note_off channel=6 note=69 velocity=95 time=0
EXTRACT: note_off channel=6 note=67 velocity=95 time=0
EXTRACT: note_on channel=6 note=67 velocity=95 time=0
EXTRACT: note_off channel=0 note=33 velocity=95 time=0.2631575
EXTRACT: note_off channel=9 note=42 velocity=95 time=0
EXTRACT: note_off channel=9 note=36 velocity=95 time=0
EXTRACT: note_on channel=9 note=42 velocity=95 time=0
EXTRACT: note_on channel=9 note=38 velocity=95 time=0
EXTRACT: note_on channel=9 note=31 velocity=95 time=0
EXTRACT: note_off channel=2 note=62 velocity=127 time=0
EXTRACT: note_off channel=2 note=59 velocity=127 time=0
EXTRACT: note_off channel=2 note=55 velocity=95 time=0
EXTRACT: note_on channel=2 note=62 velocity=127 time=0
EXTRACT: note_on channel=2 note=59 velocity=127 time=0
EXTRACT: note_on channel=2 note=55 velocity=95 time=0
EXTRACT: note_on channel=0 note=35 velocity=95 time=0.2631575
EXTRACT: note_off channel=9 note=42 velocity=95 time=0
EXTRACT: note_off channel=9 note=31 velocity=95 time=0
EXTRACT: note_on channel=9 note=42 velocity=95 time=0
EXTRACT: note_off channel=2 note=62 velocity=127 time=0
EXTRACT: note_off channel=2 note=59 velocity=127 time=0
EXTRACT: note_off channel=2 note=55 velocity=95 time=0
EXTRACT: note_on channel=2 note=62 velocity=127 time=0
EXTRACT: note_on channel=2 note=59 velocity=127 time=0
EXTRACT: note_on channel=2 note=55 velocity=95 time=0
EXTRACT: note_off channel=6 note=62 velocity=95 time=0
EXTRACT: note_off channel=6 note=67 velocity=95 time=0
EXTRACT: note_on channel=6 note=66 velocity=95 time=0
EXTRACT: note_off channel=1 note=62 velocity=95 time=0.2631575
EXTRACT: note_off channel=0 note=35 velocity=95 time=0
EXTRACT: note_on channel=0 note=33 velocity=95 time=0
EXTRACT: note_off channel=9 note=38 velocity=95 time=0
EXTRACT: note_off channel=9 note=42 velocity=95 time=0
EXTRACT: note_on channel=9 note=42 velocity=95 time=0
EXTRACT: note_on channel=9 note=36 velocity=95 time=0
EXTRACT: note_off channel=2 note=62 velocity=127 time=0
EXTRACT: note_off channel=2 note=59 velocity=127 time=0
EXTRACT: note_off channel=2 note=55 velocity=95 time=0
EXTRACT: note_on channel=2 note=64 velocity=127 time=0
EXTRACT: note_on channel=2 note=61 velocity=127 time=0
EXTRACT: note_on channel=2 note=57 velocity=95 time=0
EXTRACT: note_on channel=2 note=50 velocity=95 time=0
EXTRACT: note_off channel=4 note=62 velocity=95 time=0
EXTRACT: note_off channel=4 note=67 velocity=95 time=0
EXTRACT: note_on channel=4 note=64 velocity=95 time=0
EXTRACT: note_off channel=6 note=66 velocity=95 time=0
EXTRACT: note_on channel=6 note=64 velocity=95 time=0
EXTRACT: note_on channel=11 note=69 velocity=95 time=0
EXTRACT: note_off channel=11 note=69 velocity=95 time=0.13157875
EXTRACT: note_on channel=11 note=69 velocity=95 time=0
EXTRACT: note_off channel=0 note=33 velocity=95 time=0.13157875
EXTRACT: note_on channel=0 note=33 velocity=95 time=0
EXTRACT: note_off channel=9 note=42 velocity=95 time=0
EXTRACT: note_on channel=9 note=42 velocity=95 time=0
EXTRACT: note_off channel=2 note=64 velocity=127 time=0
EXTRACT: note_off channel=2 note=61 velocity=127 time=0
EXTRACT: note_off channel=2 note=57 velocity=95 time=0
EXTRACT: note_off channel=2 note=50 velocity=95 time=0
EXTRACT: note_on channel=2 note=64 velocity=127 time=0
EXTRACT: note_on channel=2 note=61 velocity=127 time=0
EXTRACT: note_on channel=2 note=57 velocity=95 time=0
EXTRACT: note_on channel=2 note=50 velocity=95 time=0
EXTRACT: note_off channel=6 note=64 velocity=95 time=0
EXTRACT: note_on channel=6 note=73 velocity=95 time=0
EXTRACT: note_off channel=11 note=69 velocity=95 time=0
EXTRACT: note_on channel=11 note=67 velocity=95 time=0
EXTRACT: note_off channel=11 note=67 velocity=95 time=0.13157875
EXTRACT: note_off channel=0 note=33 velocity=95 time=0.13157875
EXTRACT: note_on channel=0 note=33 velocity=95 time=0
EXTRACT: note_off channel=9 note=36 velocity=95 time=0
EXTRACT: note_off channel=9 note=42 velocity=95 time=0
EXTRACT: note_on channel=9 note=42 velocity=95 time=0
EXTRACT: note_on channel=9 note=38 velocity=95 time=0
EXTRACT: note_on channel=9 note=39 velocity=95 time=0
EXTRACT: note_off channel=2 note=64 velocity=127 time=0
EXTRACT: note_off channel=2 note=61 velocity=127 time=0
EXTRACT: note_off channel=2 note=57 velocity=95 time=0
EXTRACT: note_off channel=2 note=50 velocity=95 time=0
EXTRACT: note_on channel=2 note=64 velocity=127 time=0
EXTRACT: note_on channel=2 note=61 velocity=127 time=0
EXTRACT: note_on channel=2 note=57 velocity=95 time=0
EXTRACT: note_on channel=2 note=50 velocity=95 time=0
EXTRACT: note_off channel=6 note=73 velocity=95 time=0
EXTRACT: note_on channel=6 note=64 velocity=95 time=0
EXTRACT: note_off channel=0 note=33 velocity=95 time=0.2631575
EXTRACT: note_on channel=0 note=33 velocity=95 time=0
EXTRACT: note_off channel=9 note=42 velocity=95 time=0
EXTRACT: note_off channel=9 note=39 velocity=95 time=0
EXTRACT: note_on channel=9 note=42 velocity=95 time=0
EXTRACT: note_off channel=2 note=64 velocity=127 time=0
EXTRACT: note_off channel=2 note=61 velocity=127 time=0
EXTRACT: note_off channel=2 note=57 velocity=95 time=0
EXTRACT: note_off channel=2 note=50 velocity=95 time=0
EXTRACT: note_on channel=2 note=64 velocity=127 time=0
EXTRACT: note_on channel=2 note=61 velocity=127 time=0
EXTRACT: note_on channel=2 note=57 velocity=95 time=0
EXTRACT: note_on channel=2 note=50 velocity=95 time=0
EXTRACT: note_off channel=4 note=64 velocity=95 time=0
EXTRACT: note_on channel=4 note=62 velocity=95 time=0
EXTRACT: note_off channel=6 note=64 velocity=95 time=0
EXTRACT: note_on channel=6 note=62 velocity=95 time=0
EXTRACT: note_off channel=0 note=33 velocity=95 time=0.2631575
EXTRACT: note_on channel=0 note=35 velocity=95 time=0
EXTRACT: note_off channel=9 note=38 velocity=95 time=0
EXTRACT: note_off channel=9 note=42 velocity=95 time=0
EXTRACT: note_on channel=9 note=42 velocity=95 time=0
EXTRACT: note_off channel=2 note=64 velocity=127 time=0
EXTRACT: note_off channel=2 note=61 velocity=127 time=0
EXTRACT: note_off channel=2 note=57 velocity=95 time=0
EXTRACT: note_off channel=2 note=50 velocity=95 time=0
EXTRACT: note_on channel=2 note=64 velocity=127 time=0
EXTRACT: note_on channel=2 note=61 velocity=127 time=0
EXTRACT: note_on channel=2 note=57 velocity=95 time=0
EXTRACT: note_on channel=2 note=50 velocity=95 time=0
EXTRACT: note_off channel=4 note=62 velocity=95 time=0
EXTRACT: note_on channel=4 note=61 velocity=95 time=0
EXTRACT: note_off channel=6 note=62 velocity=95 time=0
EXTRACT: note_on channel=6 note=61 velocity=95 time=0
EXTRACT: note_off channel=0 note=35 velocity=95 time=0.2631575
EXTRACT: note_on channel=0 note=33 velocity=95 time=0
EXTRACT: note_off channel=9 note=42 velocity=95 time=0
EXTRACT: note_on channel=9 note=42 velocity=95 time=0
EXTRACT: note_on channel=9 note=36 velocity=95 time=0
EXTRACT: note_off channel=2 note=64 velocity=127 time=0
EXTRACT: note_off channel=2 note=61 velocity=127 time=0
EXTRACT: note_off channel=2 note=57 velocity=95 time=0
EXTRACT: note_off channel=2 note=50 velocity=95 time=0
EXTRACT: note_on channel=2 note=64 velocity=127 time=0
EXTRACT: note_on channel=2 note=61 velocity=127 time=0
EXTRACT: note_on channel=2 note=57 velocity=95 time=0
EXTRACT: note_on channel=2 note=50 velocity=95 time=0
EXTRACT: note_off channel=4 note=61 velocity=95 time=0
EXTRACT: note_on channel=4 note=59 velocity=95 time=0
EXTRACT: note_off channel=6 note=61 velocity=95 time=0
EXTRACT: note_on channel=6 note=59 velocity=95 time=0
EXTRACT: note_off channel=0 note=33 velocity=95 time=0.2631575
EXTRACT: note_on channel=0 note=37 velocity=95 time=0
EXTRACT: note_off channel=9 note=42 velocity=95 time=0
EXTRACT: note_off channel=9 note=36 velocity=95 time=0
EXTRACT: note_on channel=9 note=42 velocity=95 time=0
EXTRACT: note_on channel=9 note=38 velocity=95 time=0
EXTRACT: note_on channel=9 note=31 velocity=95 time=0
EXTRACT: note_off channel=2 note=64 velocity=127 time=0
EXTRACT: note_off channel=2 note=61 velocity=127 time=0
EXTRACT: note_off channel=2 note=57 velocity=95 time=0
EXTRACT: note_off channel=2 note=50 velocity=95 time=0
EXTRACT: note_on channel=2 note=64 velocity=127 time=0
EXTRACT: note_on channel=2 note=61 velocity=127 time=0
EXTRACT: note_on channel=2 note=57 velocity=95 time=0
EXTRACT: note_on channel=2 note=50 velocity=95 time=0
EXTRACT: note_off channel=4 note=59 velocity=95 time=0
EXTRACT: note_on channel=4 note=57 velocity=95 time=0
EXTRACT: note_off channel=6 note=59 velocity=95 time=0
EXTRACT: note_on channel=6 note=69 velocity=95 time=0
EXTRACT: note_on channel=8 note=79 velocity=127 time=0
EXTRACT: note_on channel=8 note=74 velocity=127 time=0
EXTRACT: note_off channel=0 note=37 velocity=95 time=0.2631575
EXTRACT: note_on channel=0 note=33 velocity=95 time=0
EXTRACT: note_off channel=9 note=42 velocity=95 time=0
EXTRACT: note_off channel=9 note=38 velocity=95 time=0
EXTRACT: note_off channel=9 note=31 velocity=95 time=0
EXTRACT: note_on channel=9 note=42 velocity=95 time=0
EXTRACT: note_on channel=9 note=36 velocity=95 time=0
EXTRACT: note_off channel=2 note=64 velocity=127 time=0
EXTRACT: note_off channel=2 note=61 velocity=127 time=0
EXTRACT: note_off channel=2 note=57 velocity=95 time=0
EXTRACT: note_off channel=2 note=50 velocity=95 time=0
EXTRACT: note_on channel=2 note=64 velocity=127 time=0
EXTRACT: note_on channel=2 note=61 velocity=127 time=0
EXTRACT: note_on channel=2 note=57 velocity=95 time=0
EXTRACT: note_on channel=2 note=50 velocity=95 time=0
EXTRACT: note_off channel=6 note=69 velocity=95 time=0
EXTRACT: note_on channel=6 note=61 velocity=95 time=0
EXTRACT: note_on channel=1 note=54 velocity=95 time=0.2631575
EXTRACT: note_off channel=0 note=33 velocity=95 time=0
EXTRACT: note_on channel=0 note=38 velocity=95 time=0
EXTRACT: note_off channel=9 note=42 velocity=95 time=0
EXTRACT: note_off channel=9 note=36 velocity=95 time=0
EXTRACT: note_on channel=9 note=49 velocity=95 time=0
EXTRACT: note_on channel=9 note=36 velocity=95 time=0
EXTRACT: note_off channel=2 note=64 velocity=127 time=0
EXTRACT: note_off channel=2 note=61 velocity=127 time=0
EXTRACT: note_off channel=2 note=57 velocity=95 time=0
EXTRACT: note_off channel=2 note=50 velocity=95 time=0
EXTRACT: note_on channel=2 note=66 velocity=127 time=0
EXTRACT: note_on channel=2 note=62 velocity=127 time=0
EXTRACT: note_on channel=2 note=57 velocity=95 time=0
EXTRACT: note_on channel=2 note=50 velocity=95 time=0
EXTRACT: note_off channel=4 note=57 velocity=95 time=0
EXTRACT: note_on channel=4 note=62 velocity=95 time=0
EXTRACT: note_on channel=4 note=50 velocity=95 time=0
EXTRACT: note_off channel=6 note=61 velocity=95 time=0
EXTRACT: note_on channel=6 note=62 velocity=95 time=0
EXTRACT: note_off channel=8 note=79 velocity=127 time=0
EXTRACT: note_off channel=8 note=74 velocity=127 time=0
EXTRACT: note_on channel=8 note=81 velocity=127 time=0
EXTRACT: note_on channel=8 note=74 velocity=127 time=0
EXTRACT: note_on channel=11 note=66 velocity=95 time=0
EXTRACT: note_off channel=11 note=66 velocity=95 time=0.13157875
EXTRACT: note_on channel=11 note=66 velocity=95 time=0
EXTRACT: note_off channel=0 note=38 velocity=95 time=0.13157875
EXTRACT: note_on channel=0 note=38 velocity=95 time=0
EXTRACT: note_off channel=9 note=49 velocity=95 time=0
EXTRACT: note_on channel=9 note=42 velocity=95 time=0
EXTRACT: note_off channel=2 note=66 velocity=127 time=0
EXTRACT: note_off channel=2 note=62 velocity=127 time=0
EXTRACT: note_off channel=2 note=57 velocity=95 time=0
EXTRACT: note_off channel=2 note=50 velocity=95 time=0
EXTRACT: note_on channel=2 note=66 velocity=127 time=0
EXTRACT: note_on channel=2 note=62 velocity=127 time=0
EXTRACT: note_on channel=2 note=57 velocity=95 time=0
EXTRACT: note_on channel=2 note=50 velocity=95 time=0
EXTRACT: note_off channel=11 note=66 velocity=95 time=0
EXTRACT: note_on channel=11 note=66 velocity=95 time=0
EXTRACT: note_off channel=11 note=66 velocity=95 time=0.13157875
EXTRACT: note_on channel=11 note=64 velocity=95 time=0
EXTRACT: note_off channel=0 note=38 velocity=95 time=0.13157875
EXTRACT: note_on channel=0 note=38 velocity=95 time=0
EXTRACT: note_off channel=9 note=36 velocity=95 time=0
EXTRACT: note_off channel=9 note=42 velocity=95 time=0
EXTRACT: note_on channel=9 note=42 velocity=95 time=0
EXTRACT: note_on channel=9 note=38 velocity=95 time=0
EXTRACT: note_on channel=9 note=39 velocity=95 time=0
EXTRACT: note_off channel=2 note=66 velocity=127 time=0
EXTRACT: note_off channel=2 note=62 velocity=127 time=0
EXTRACT: note_off channel=2 note=57 velocity=95 time=0
EXTRACT: note_off channel=2 note=50 velocity=95 time=0
EXTRACT: note_on channel=2 note=66 velocity=127 time=0
EXTRACT: note_on channel=2 note=62 velocity=127 time=0
EXTRACT: note_on channel=2 note=57 velocity=95 time=0
EXTRACT: note_on channel=2 note=50 velocity=95 time=0
EXTRACT: note_off channel=4 note=62 velocity=95 time=0
EXTRACT: note_off channel=4 note=50 velocity=95 time=0
EXTRACT: note_on channel=4 note=62 velocity=95 time=0
EXTRACT: note_on channel=6 note=74 velocity=95 time=0
EXTRACT: note_off channel=11 note=64 velocity=95 time=0.13157875
EXTRACT: note_off channel=1 note=54 velocity=95 time=0.13157875
EXTRACT: note_on channel=1 note=55 velocity=95 time=0
EXTRACT: note_off channel=0 note=38 velocity=95 time=0
EXTRACT: note_on channel=0 note=38 velocity=95 time=0
EXTRACT: note_off channel=9 note=42 velocity=95 time=0
EXTRACT: note_off channel=9 note=39 velocity=95 time=0
EXTRACT: note_on channel=9 note=42 velocity=95 time=0
EXTRACT: note_off channel=2 note=66 velocity=127 time=0
EXTRACT: note_off channel=2 note=62 velocity=127 time=0
EXTRACT: note_off channel=2 note=57 velocity=95 time=0
EXTRACT: note_off channel=2 note=50 velocity=95 time=0
EXTRACT: note_on channel=2 note=66 velocity=127 time=0
EXTRACT: note_on channel=2 note=62 velocity=127 time=0
EXTRACT: note_on channel=2 note=57 velocity=95 time=0
EXTRACT: note_on channel=2 note=50 velocity=95 time=0
EXTRACT: note_on channel=4 note=69 velocity=95 time=0
EXTRACT: note_on channel=4 note=66 velocity=95 time=0
EXTRACT: note_off channel=6 note=74 velocity=95 time=0
EXTRACT: note_on channel=6 note=69 velocity=95 time=0
EXTRACT: note_off channel=0 note=38 velocity=95 time=0.13157875
EXTRACT: note_on channel=0 note=38 velocity=95 time=0
EXTRACT: note_off channel=0 note=38 velocity=95 time=0.13157875
EXTRACT: note_on channel=0 note=38 velocity=95 time=0
EXTRACT: note_off channel=9 note=38 velocity=95 time=0
EXTRACT: note_off channel=9 note=42 velocity=95 time=0
EXTRACT: note_on channel=9 note=42 velocity=95 time=0
EXTRACT: note_off channel=2 note=66 velocity=127 time=0
EXTRACT: note_off channel=2 note=62 velocity=127 time=0
EXTRACT: note_off channel=2 note=57 velocity=95 time=0
EXTRACT: note_off channel=2 note=50 velocity=95 time=0
EXTRACT: note_on channel=2 note=66 velocity=127 time=0
EXTRACT: note_on channel=2 note=62 velocity=127 time=0
EXTRACT: note_on channel=2 note=57 velocity=95 time=0
EXTRACT: note_on channel=2 note=50 velocity=95 time=0
EXTRACT: note_off channel=0 note=38 velocity=95 time=0.2631575
EXTRACT: note_on channel=0 note=38 velocity=95 time=0
EXTRACT: note_off channel=9 note=42 velocity=95 time=0
EXTRACT: note_on channel=9 note=42 velocity=95 time=0
EXTRACT: note_on channel=9 note=36 velocity=95 time=0
EXTRACT: note_off channel=2 note=66 velocity=127 time=0
EXTRACT: note_off channel=2 note=62 velocity=127 time=0
EXTRACT: note_off channel=2 note=57 velocity=95 time=0
EXTRACT: note_off channel=2 note=50 velocity=95 time=0
EXTRACT: note_on channel=2 note=66 velocity=127 time=0
EXTRACT: note_on channel=2 note=62 velocity=127 time=0
EXTRACT: note_on channel=2 note=57 velocity=95 time=0
EXTRACT: note_on channel=2 note=50 velocity=95 time=0
EXTRACT: note_off channel=4 note=62 velocity=95 time=0
EXTRACT: note_on channel=4 note=50 velocity=95 time=0
EXTRACT: note_off channel=6 note=62 velocity=95 time=0
EXTRACT: note_on channel=6 note=62 velocity=95 time=0
EXTRACT: note_off channel=1 note=55 velocity=95 time=0.2631575
EXTRACT: note_on channel=1 note=57 velocity=95 time=0
EXTRACT: note_off channel=0 note=38 velocity=95 time=0
EXTRACT: note_on channel=0 note=38 velocity=95 time=0
EXTRACT: note_off channel=9 note=42 velocity=95 time=0
EXTRACT: note_off channel=9 note=36 velocity=95 time=0
EXTRACT: note_on channel=9 note=42 velocity=95 time=0
EXTRACT: note_on channel=9 note=38 velocity=95 time=0
EXTRACT: note_on channel=9 note=31 velocity=95 time=0
EXTRACT: note_off channel=2 note=66 velocity=127 time=0
EXTRACT: note_off channel=2 note=62 velocity=127 time=0
EXTRACT: note_off channel=2 note=57 velocity=95 time=0
EXTRACT: note_off channel=2 note=50 velocity=95 time=0
EXTRACT: note_on channel=2 note=66 velocity=127 time=0
EXTRACT: note_on channel=2 note=62 velocity=127 time=0
EXTRACT: note_on channel=2 note=57 velocity=95 time=0
EXTRACT: note_on channel=2 note=50 velocity=95 time=0
EXTRACT: note_off channel=4 note=69 velocity=95 time=0
EXTRACT: note_off channel=4 note=66 velocity=95 time=0
EXTRACT: note_on channel=4 note=66 velocity=95 time=0
EXTRACT: note_off channel=6 note=69 velocity=95 time=0
EXTRACT: note_on channel=6 note=66 velocity=95 time=0
EXTRACT: note_off channel=0 note=38 velocity=95 time=0.2631575
EXTRACT: note_on channel=0 note=38 velocity=95 time=0
EXTRACT: note_off channel=9 note=42 velocity=95 time=0
EXTRACT: note_off channel=9 note=38 velocity=95 time=0
EXTRACT: note_off channel=9 note=31 velocity=95 time=0
EXTRACT: note_on channel=9 note=42 velocity=95 time=0
EXTRACT: note_on channel=9 note=36 velocity=95 time=0
EXTRACT: note_off channel=2 note=66 velocity=127 time=0
EXTRACT: note_off channel=2 note=62 velocity=127 time=0
EXTRACT: note_off channel=2 note=57 velocity=95 time=0
EXTRACT: note_off channel=2 note=50 velocity=95 time=0
EXTRACT: note_on channel=2 note=66 velocity=127 time=0
EXTRACT: note_on channel=2 note=62 velocity=127 time=0
EXTRACT: note_on channel=2 note=57 velocity=95 time=0
EXTRACT: note_on channel=2 note=50 velocity=95 time=0
EXTRACT: note_off channel=4 note=50 velocity=95 time=0
EXTRACT: note_on channel=4 note=62 velocity=95 time=0
EXTRACT: note_on channel=4 note=50 velocity=95 time=0
EXTRACT: note_off channel=6 note=62 velocity=95 time=0
EXTRACT: note_on channel=6 note=62 velocity=95 time=0
EXTRACT: note_on channel=11 note=66 velocity=95 time=0
EXTRACT: note_off channel=11 note=66 velocity=95 time=0.13157875
EXTRACT: note_on channel=11 note=66 velocity=95 time=0
EXTRACT: note_off channel=1 note=57 velocity=95 time=0.13157875
EXTRACT: note_on channel=1 note=57 velocity=95 time=0
EXTRACT: note_off channel=0 note=38 velocity=95 time=0
EXTRACT: note_on channel=0 note=37 velocity=95 time=0
EXTRACT: note_off channel=9 note=42 velocity=95 time=0
EXTRACT: note_off channel=9 note=36 velocity=95 time=0
EXTRACT: note_on channel=9 note=42 velocity=95 time=0
EXTRACT: note_on channel=9 note=36 velocity=95 time=0
EXTRACT: note_off channel=2 note=66 velocity=127 time=0
EXTRACT: note_off channel=2 note=62 velocity=127 time=0
EXTRACT: note_off channel=2 note=57 velocity=95 time=0
EXTRACT: note_off channel=2 note=50 velocity=95 time=0
EXTRACT: note_on channel=2 note=64 velocity=127 time=0
EXTRACT: note_on channel=2 note=61 velocity=127 time=0
EXTRACT: note_on channel=2 note=57 velocity=95 time=0
EXTRACT: note_on channel=2 note=50 velocity=95 time=0
EXTRACT: note_off channel=4 note=66 velocity=95 time=0
EXTRACT: note_on channel=4 note=64 velocity=95 time=0
EXTRACT: note_off channel=6 note=66 velocity=95 time=0
EXTRACT: note_off channel=6 note=62 velocity=95 time=0
EXTRACT: note_on channel=6 note=69 velocity=95 time=0
EXTRACT: note_off channel=8 note=81 velocity=127 time=0
EXTRACT: note_off channel=8 note=74 velocity=127 time=0
EXTRACT: note_off channel=11 note=66 velocity=95 time=0
EXTRACT: note_on channel=11 note=66 velocity=95 time=0
EXTRACT: note_off channel=0 note=37 velocity=95 time=0.2631575
EXTRACT: note_on channel=0 note=37 velocity=95 time=0
EXTRACT: note_off channel=9 note=42 velocity=95 time=0
EXTRACT: note_on channel=9 note=42 velocity=95 time=0
EXTRACT: note_off channel=2 note=64 velocity=127 time=0
EXTRACT: note_off channel=2 note=61 velocity=127 time=0
EXTRACT: note_off channel=2 note=57 velocity=95 time=0
EXTRACT: note_off channel=2 note=50 velocity=95 time=0
EXTRACT: note_on channel=2 note=64 velocity=127 time=0
EXTRACT: note_on channel=2 note=61 velocity=127 time=0
EXTRACT: note_on channel=2 note=57 velocity=95 time=0
EXTRACT: note_on channel=2 note=50 velocity=95 time=0
EXTRACT: note_off channel=4 note=64 velocity=95 time=0
EXTRACT: note_on channel=4 note=73 velocity=95 time=0
EXTRACT: note_on channel=6 note=64 velocity=95 time=0
EXTRACT: note_off channel=11 note=66 velocity=95 time=0
EXTRACT: note_on channel=11 note=64 velocity=95 time=0
EXTRACT: note_off channel=0 note=37 velocity=95 time=0.2631575
EXTRACT: note_on channel=0 note=37 velocity=95 time=0
EXTRACT: note_off channel=9 note=36 velocity=95 time=0
EXTRACT: note_off channel=9 note=42 velocity=95 time=0
EXTRACT: note_on channel=9 note=42 velocity=95 time=0
EXTRACT: note_on channel=9 note=38 velocity=95 time=0
EXTRACT: note_on channel=9 note=39 velocity=95 time=0
EXTRACT: note_off channel=2 note=64 velocity=127 time=0
EXTRACT: note_off channel=2 note=61 velocity=127 time=0
EXTRACT: note_off channel=2 note=57 velocity=95 time=0
EXTRACT: note_off channel=2 note=50 velocity=95 time=0
EXTRACT: note_on channel=2 note=64 velocity=127 time=0
EXTRACT: note_on channel=2 note=61 velocity=127 time=0
EXTRACT: note_on channel=2 note=57 velocity=95 time=0
EXTRACT: note_on channel=2 note=50 velocity=95 time=0
EXTRACT: note_off channel=4 note=62 velocity=95 time=0
EXTRACT: note_off channel=4 note=50 velocity=95 time=0
EXTRACT: note_on channel=4 note=62 velocity=95 time=0
EXTRACT: note_off channel=6 note=64 velocity=95 time=0
EXTRACT: note_on channel=6 note=61 velocity=95 time=0
EXTRACT: note_off channel=11 note=64 velocity=95 time=0
EXTRACT: note_on channel=11 note=64 velocity=95 time=0
EXTRACT: note_off channel=11 note=64 velocity=95 time=0.13157875
EXTRACT: note_off channel=1 note=57 velocity=95 time=0.13157875
EXTRACT: note_on channel=1 note=59 velocity=95 time=0
EXTRACT: note_off channel=0 note=37 velocity=95 time=0
EXTRACT: note_on channel=0 note=37 velocity=95 time=0
EXTRACT: note_off channel=9 note=42 velocity=95 time=0
EXTRACT: note_off channel=9 note=39 velocity=95 time=0
EXTRACT: note_on channel=9 note=42 velocity=95 time=0
EXTRACT: note_off channel=2 note=64 velocity=127 time=0
EXTRACT: note_off channel=2 note=61 velocity=127 time=0
EXTRACT: note_off channel=2 note=57 velocity=95 time=0
EXTRACT: note_off channel=2 note=50 velocity=95 time=0
EXTRACT: note_on channel=2 note=64 velocity=127 time=0
EXTRACT: note_on channel=2 note=61 velocity=127 time=0
EXTRACT: note_on channel=2 note=57 velocity=95 time=0
EXTRACT: note_on channel=2 note=50 velocity=95 time=0
EXTRACT: note_off channel=4 note=73 velocity=95 time=0
EXTRACT: note_on channel=4 note=69 velocity=95 time=0
EXTRACT: note_off channel=6 note=69 velocity=95 time=0
EXTRACT: note_on channel=6 note=71 velocity=95 time=0
EXTRACT: note_off channel=0 note=37 velocity=95 time=0.13157875
EXTRACT: note_on channel=0 note=37 velocity=95 time=0
EXTRACT: note_off channel=0 note=37 velocity=95 time=0.13157875
EXTRACT: note_on channel=0 note=37 velocity=95 time=0
EXTRACT: note_off channel=9 note=38 velocity=95 time=0
EXTRACT: note_off channel=9 note=42 velocity=95 time=0
EXTRACT: note_on channel=9 note=42 velocity=95 time=0
EXTRACT: note_off channel=2 note=64 velocity=127 time=0
EXTRACT: note_off channel=2 note=61 velocity=127 time=0
EXTRACT: note_off channel=2 note=57 velocity=95 time=0
EXTRACT: note_off channel=2 note=50 velocity=95 time=0
EXTRACT: note_on channel=2 note=64 velocity=127 time=0
EXTRACT: note_on channel=2 note=61 velocity=127 time=0
EXTRACT: note_on channel=2 note=57 velocity=95 time=0
EXTRACT: note_on channel=2 note=50 velocity=95 time=0
EXTRACT: note_off channel=0 note=37 velocity=95 time=0.2631575
EXTRACT: note_on channel=0 note=37 velocity=95 time=0
EXTRACT: note_off channel=9 note=42 velocity=95 time=0
EXTRACT: note_on channel=9 note=42 velocity=95 time=0
EXTRACT: note_on channel=9 note=36 velocity=95 time=0
EXTRACT: note_on channel=9 note=31 velocity=95 time=0
EXTRACT: note_off channel=2 note=64 velocity=127 time=0
EXTRACT: note_off channel=2 note=61 velocity=127 time=0
EXTRACT: note_off channel=2 note=57 velocity=95 time=0
EXTRACT: note_off channel=2 note=50 velocity=95 time=0
EXTRACT: note_on channel=2 note=64 velocity=127 time=0
EXTRACT: note_on channel=2 note=61 velocity=127 time=0
EXTRACT: note_on channel=2 note=57 velocity=95 time=0
EXTRACT: note_on channel=2 note=50 velocity=95 time=0
EXTRACT: note_off channel=4 note=62 velocity=95 time=0
EXTRACT: note_on channel=4 note=62 velocity=95 time=0
EXTRACT: note_on channel=4 note=50 velocity=95 time=0
EXTRACT: note_off channel=6 note=61 velocity=95 time=0
EXTRACT: note_on channel=6 note=61 velocity=95 time=0
EXTRACT: note_off channel=1 note=59 velocity=95 time=0.2631575
EXTRACT: note_on channel=1 note=61 velocity=95 time=0
EXTRACT: note_off channel=0 note=37 velocity=95 time=0
EXTRACT: note_off channel=9 note=42 velocity=95 time=0
EXTRACT: note_off channel=9 note=36 velocity=95 time=0
EXTRACT: note_off channel=9 note=31 velocity=95 time=0
EXTRACT: note_on channel=9 note=46 velocity=95 time=0
EXTRACT: note_on channel=9 note=38 velocity=95 time=0
EXTRACT: note_off channel=2 note=64 velocity=127 time=0
EXTRACT: note_off channel=2 note=61 velocity=127 time=0
EXTRACT: note_off channel=2 note=57 velocity=95 time=0
EXTRACT: note_off channel=2 note=50 velocity=95 time=0
EXTRACT: note_on channel=2 note=64 velocity=127 time=0
EXTRACT: note_on channel=2 note=61 velocity=127 time=0
EXTRACT: note_on channel=2 note=57 velocity=95 time=0
EXTRACT: note_on channel=2 note=50 velocity=95 time=0
EXTRACT: note_off channel=4 note=69 velocity=95 time=0
EXTRACT: note_on channel=4 note=64 velocity=95 time=0
EXTRACT: note_off channel=6 note=71 velocity=95 time=0
EXTRACT: note_on channel=6 note=69 velocity=95 time=0
EXTRACT: note_off channel=2 note=64 velocity=127 time=0.2631575
EXTRACT: note_off channel=2 note=61 velocity=127 time=0
EXTRACT: note_off channel=2 note=57 velocity=95 time=0
EXTRACT: note_off channel=2 note=50 velocity=95 time=0
EXTRACT: note_on channel=2 note=64 velocity=127 time=0
EXTRACT: note_on channel=2 note=61 velocity=127 time=0
EXTRACT: note_on channel=2 note=57 velocity=95 time=0
EXTRACT: note_on channel=2 note=50 velocity=95 time=0
EXTRACT: note_off channel=4 note=62 velocity=95 time=0
EXTRACT: note_off channel=4 note=50 velocity=95 time=0
EXTRACT: note_on channel=4 note=50 velocity=95 time=0
EXTRACT: note_off channel=6 note=61 velocity=95 time=0
EXTRACT: note_on channel=6 note=61 velocity=95 time=0
EXTRACT: note_on channel=0 note=35 velocity=95 time=0.2631575
EXTRACT: note_off channel=9 note=46 velocity=95 time=0
EXTRACT: note_off channel=9 note=38 velocity=95 time=0
EXTRACT: note_on channel=9 note=42 velocity=95 time=0
EXTRACT: note_on channel=9 note=36 velocity=95 time=0
EXTRACT: note_off channel=2 note=64 velocity=127 time=0
EXTRACT: note_off channel=2 note=61 velocity=127 time=0
EXTRACT: note_off channel=2 note=57 velocity=95 time=0
EXTRACT: note_off channel=2 note=50 velocity=95 time=0
EXTRACT: note_on channel=2 note=62 velocity=127 time=0
EXTRACT: note_on channel=2 note=59 velocity=127 time=0
EXTRACT: note_on channel=2 note=55 velocity=95 time=0
EXTRACT: note_off channel=4 note=64 velocity=95 time=0
EXTRACT: note_off channel=6 note=69 velocity=95 time=0
EXTRACT: note_off channel=6 note=61 velocity=95 time=0
EXTRACT: note_on channel=6 note=67 velocity=95 time=0
EXTRACT: note_on channel=11 note=66 velocity=95 time=0
EXTRACT: note_off channel=1 note=61 velocity=95 time=0.13157875
EXTRACT: note_on channel=1 note=62 velocity=95 time=0
EXTRACT: note_off channel=11 note=66 velocity=95 time=0
EXTRACT: note_on channel=11 note=66 velocity=95 time=0
EXTRACT: note_off channel=0 note=35 velocity=95 time=0.13157875
EXTRACT: note_on channel=0 note=35 velocity=95 time=0
EXTRACT: note_off channel=9 note=42 velocity=95 time=0
EXTRACT: note_on channel=9 note=42 velocity=95 time=0
EXTRACT: note_off channel=2 note=62 velocity=127 time=0
EXTRACT: note_off channel=2 note=59 velocity=127 time=0
EXTRACT: note_off channel=2 note=55 velocity=95 time=0
EXTRACT: note_on channel=2 note=62 velocity=127 time=0
EXTRACT: note_on channel=2 note=59 velocity=127 time=0
EXTRACT: note_on channel=2 note=55 velocity=95 time=0
EXTRACT: note_on channel=4 note=62 velocity=95 time=0
EXTRACT: note_on channel=6 note=62 velocity=95 time=0
EXTRACT: note_off channel=11 note=66 velocity=95 time=0
EXTRACT: note_on channel=11 note=66 velocity=95 time=0
EXTRACT: note_off channel=11 note=66 velocity=95 time=0.13157875
EXTRACT: note_on channel=11 note=64 velocity=95 time=0
EXTRACT: note_off channel=0 note=35 velocity=95 time=0.13157875
EXTRACT: note_on channel=0 note=35 velocity=95 time=0
EXTRACT: note_off channel=9 note=36 velocity=95 time=0
EXTRACT: note_off channel=9 note=42 velocity=95 time=0
EXTRACT: note_on channel=9 note=42 velocity=95 time=0
EXTRACT: note_on channel=9 note=38 velocity=95 time=0
EXTRACT: note_on channel=9 note=39 velocity=95 time=0
EXTRACT: note_off channel=2 note=62 velocity=127 time=0
EXTRACT: note_off channel=2 note=59 velocity=127 time=0
EXTRACT: note_off channel=2 note=55 velocity=95 time=0
EXTRACT: note_on channel=2 note=62 velocity=127 time=0
EXTRACT: note_on channel=2 note=59 velocity=127 time=0
EXTRACT: note_on channel=2 note=55 velocity=95 time=0
EXTRACT: note_off channel=4 note=50 velocity=95 time=0
EXTRACT: note_off channel=4 note=62 velocity=95 time=0
EXTRACT: note_on channel=4 note=62 velocity=95 time=0
EXTRACT: note_on channel=4 note=50 velocity=95 time=0
EXTRACT: note_off channel=6 note=62 velocity=95 time=0
EXTRACT: note_on channel=6 note=59 velocity=95 time=0
EXTRACT: note_off channel=11 note=64 velocity=95 time=0.13157875
EXTRACT: note_off channel=0 note=35 velocity=95 time=0.13157875
EXTRACT: note_on channel=0 note=35 velocity=95 time=0
EXTRACT: note_off channel=9 note=42 velocity=95 time=0
EXTRACT: note_off channel=9 note=39 velocity=95 time=0
EXTRACT: note_on channel=9 note=42 velocity=95 time=0
EXTRACT: note_off channel=2 note=62 velocity=127 time=0
EXTRACT: note_off channel=2 note=59 velocity=127 time=0
EXTRACT: note_off channel=2 note=55 velocity=95 time=0
EXTRACT: note_on channel=2 note=62 velocity=127 time=0
EXTRACT: note_on channel=2 note=59 velocity=127 time=0
EXTRACT: note_on channel=2 note=55 velocity=95 time=0
EXTRACT: note_off channel=6 note=67 velocity=95 time=0
EXTRACT: note_on channel=6 note=69 velocity=95 time=0
EXTRACT: note_off channel=0 note=35 velocity=95 time=0.2631575
EXTRACT: note_on channel=0 note=35 velocity=95 time=0
EXTRACT: note_off channel=9 note=38 velocity=95 time=0
EXTRACT: note_off channel=9 note=42 velocity=95 time=0
EXTRACT: note_on channel=9 note=42 velocity=95 time=0
EXTRACT: note_off channel=2 note=62 velocity=127 time=0
EXTRACT: note_off channel=2 note=59 velocity=127 time=0
EXTRACT: note_off channel=2 note=55 velocity=95 time=0
EXTRACT: note_on channel=2 note=62 velocity=127 time=0
EXTRACT: note_on channel=2 note=59 velocity=127 time=0
EXTRACT: note_on channel=2 note=55 velocity=95 time=0
EXTRACT: note_off channel=6 note=59 velocity=95 time=0
EXTRACT: note_on channel=6 note=62 velocity=95 time=0
EXTRACT: note_off channel=0 note=35 velocity=95 time=0.2631575
EXTRACT: note_on channel=0 note=43 velocity=95 time=0
EXTRACT: note_off channel=9 note=42 velocity=95 time=0
EXTRACT: note_on channel=9 note=42 velocity=95 time=0
EXTRACT: note_on channel=9 note=36 velocity=95 time=0
EXTRACT: note_off channel=2 note=62 velocity=127 time=0
EXTRACT: note_off channel=2 note=59 velocity=127 time=0
EXTRACT: note_off channel=2 note=55 velocity=95 time=0
EXTRACT: note_on channel=2 note=62 velocity=127 time=0
EXTRACT: note_on channel=2 note=59 velocity=127 time=0
EXTRACT: note_on channel=2 note=55 velocity=95 time=0
EXTRACT: note_off channel=4 note=50 velocity=95 time=0
EXTRACT: note_on channel=4 note=50 velocity=95 time=0
EXTRACT: note_off channel=6 note=69 velocity=95 time=0
EXTRACT: note_on channel=6 note=71 velocity=95 time=0
EXTRACT: note_off channel=0 note=43 velocity=95 time=0.2631575
EXTRACT: note_off channel=9 note=42 velocity=95 time=0
EXTRACT: note_off channel=9 note=36 velocity=95 time=0
EXTRACT: note_on channel=9 note=42 velocity=95 time=0
EXTRACT: note_on channel=9 note=38 velocity=95 time=0
EXTRACT: note_on channel=9 note=31 velocity=95 time=0
EXTRACT: note_off channel=2 note=62 velocity=127 time=0
EXTRACT: note_off channel=2 note=59 velocity=127 time=0
EXTRACT: note_off channel=2 note=55 velocity=95 time=0
EXTRACT: note_on channel=2 note=62 velocity=127 time=0
EXTRACT: note_on channel=2 note=59 velocity=127 time=0
EXTRACT: note_on channel=2 note=55 velocity=95 time=0
EXTRACT: note_off channel=6 note=62 velocity=95 time=0
EXTRACT: note_on channel=6 note=67 velocity=95 time=0
EXTRACT: note_on channel=0 note=35 velocity=95 time=0.2631575
EXTRACT: note_off channel=9 note=42 velocity=95 time=0
EXTRACT: note_off channel=9 note=31 velocity=95 time=0
EXTRACT: note_on channel=9 note=42 velocity=95 time=0
EXTRACT: note_off channel=2 note=62 velocity=127 time=0
EXTRACT: note_off channel=2 note=59 velocity=127 time=0
EXTRACT: note_off channel=2 note=55 velocity=95 time=0
EXTRACT: note_on channel=2 note=62 velocity=127 time=0
EXTRACT: note_on channel=2 note=59 velocity=127 time=0
EXTRACT: note_on channel=2 note=55 velocity=95 time=0
EXTRACT: note_off channel=4 note=50 velocity=95 time=0
EXTRACT: note_on channel=4 note=50 velocity=95 time=0
EXTRACT: note_off channel=6 note=67 velocity=95 time=0
EXTRACT: note_on channel=6 note=62 velocity=95 time=0
EXTRACT: note_on channel=11 note=66 velocity=95 time=0
EXTRACT: note_off channel=11 note=66 velocity=95 time=0.13157875
EXTRACT: note_on channel=11 note=66 velocity=95 time=0
EXTRACT: note_off channel=1 note=62 velocity=95 time=0.13157875
EXTRACT: note_on channel=1 note=64 velocity=95 time=0
EXTRACT: note_off channel=0 note=35 velocity=95 time=0
EXTRACT: note_on channel=0 note=33 velocity=95 time=0
EXTRACT: note_off channel=9 note=38 velocity=95 time=0
EXTRACT: note_off channel=9 note=42 velocity=95 time=0
EXTRACT: note_on channel=9 note=42 velocity=95 time=0
EXTRACT: note_on channel=9 note=36 velocity=95 time=0
EXTRACT: note_off channel=2 note=62 velocity=127 time=0
EXTRACT: note_off channel=2 note=59 velocity=127 time=0
EXTRACT: note_off channel=2 note=55 velocity=95 time=0
EXTRACT: note_on channel=2 note=64 velocity=127 time=0
EXTRACT: note_on channel=2 note=61 velocity=127 time=0
EXTRACT: note_on channel=2 note=57 velocity=95 time=0
EXTRACT: note_on channel=2 note=50 velocity=95 time=0
EXTRACT: note_off channel=4 note=62 velocity=95 time=0
EXTRACT: note_on channel=4 note=64 velocity=95 time=0
EXTRACT: note_off channel=6 note=71 velocity=95 time=0
EXTRACT: note_off channel=6 note=62 velocity=95 time=0
EXTRACT: note_on channel=6 note=66 velocity=95 time=0
EXTRACT: note_off channel=11 note=66 velocity=95 time=0
EXTRACT: note_on channel=11 note=66 velocity=95 time=0
EXTRACT: note_off channel=0 note=33 velocity=95 time=0.2631575
EXTRACT: note_on channel=0 note=33 velocity=95 time=0
EXTRACT: note_off channel=9 note=42 velocity=95 time=0
EXTRACT: note_on channel=9 note=42 velocity=95 time=0
EXTRACT: note_off channel=2 note=64 velocity=127 time=0
EXTRACT: note_off channel=2 note=61 velocity=127 time=0
EXTRACT: note_off channel=2 note=57 velocity=95 time=0
EXTRACT: note_off channel=2 note=50 velocity=95 time=0
EXTRACT: note_on channel=2 note=64 velocity=127 time=0
EXTRACT: note_on channel=2 note=61 velocity=127 time=0
EXTRACT: note_on channel=2 note=57 velocity=95 time=0
EXTRACT: note_on channel=2 note=50 velocity=95 time=0
EXTRACT: note_on channel=6 note=64 velocity=95 time=0
EXTRACT: note_off channel=11 note=66 velocity=95 time=0
EXTRACT: note_on channel=11 note=64 velocity=95 time=0
EXTRACT: note_off channel=0 note=33 velocity=95 time=0.2631575
EXTRACT: note_on channel=0 note=33 velocity=95 time=0
EXTRACT: note_off channel=9 note=36 velocity=95 time=0
EXTRACT: note_off channel=9 note=42 velocity=95 time=0
EXTRACT: note_on channel=9 note=42 velocity=95 time=0
EXTRACT: note_on channel=9 note=38 velocity=95 time=0
EXTRACT: note_on channel=9 note=39 velocity=95 time=0
EXTRACT: note_off channel=2 note=64 velocity=127 time=0
EXTRACT: note_off channel=2 note=61 velocity=127 time=0
EXTRACT: note_off channel=2 note=57 velocity=95 time=0
EXTRACT: note_off channel=2 note=50 velocity=95 time=0
EXTRACT: note_on channel=2 note=64 velocity=127 time=0
EXTRACT: note_on channel=2 note=61 velocity=127 time=0
EXTRACT: note_on channel=2 note=57 velocity=95 time=0
EXTRACT: note_on channel=2 note=50 velocity=95 time=0
EXTRACT: note_off channel=6 note=66 velocity=95 time=0
EXTRACT: note_on channel=6 note=66 velocity=95 time=0
EXTRACT: note_off channel=11 note=64 velocity=95 time=0
EXTRACT: note_on channel=11 note=66 velocity=95 time=0
EXTRACT: note_off channel=0 note=33 velocity=95 time=0.2631575
EXTRACT: note_on channel=0 note=33 velocity=95 time=0
EXTRACT: note_off channel=9 note=42 velocity=95 time=0
EXTRACT: note_off channel=9 note=39 velocity=95 time=0
EXTRACT: note_on channel=9 note=42 velocity=95 time=0
EXTRACT: note_off channel=2 note=64 velocity=127 time=0
EXTRACT: note_off channel=2 note=61 velocity=127 time=0
EXTRACT: note_off channel=2 note=57 velocity=95 time=0
EXTRACT: note_off channel=2 note=50 velocity=95 time=0
EXTRACT: note_on channel=2 note=64 velocity=127 time=0
EXTRACT: note_on channel=2 note=61 velocity=127 time=0
EXTRACT: note_on channel=2 note=57 velocity=95 time=0
EXTRACT: note_on channel=2 note=50 velocity=95 time=0
EXTRACT: note_off channel=4 note=64 velocity=95 time=0
EXTRACT: note_on channel=4 note=62 velocity=95 time=0
EXTRACT: note_off channel=6 note=64 velocity=95 time=0
EXTRACT: note_off channel=6 note=66 velocity=95 time=0
EXTRACT: note_on channel=6 note=62 velocity=95 time=0
EXTRACT: note_off channel=11 note=66 velocity=95 time=0
EXTRACT: note_on channel=11 note=64 velocity=95 time=0
EXTRACT: note_off channel=0 note=33 velocity=95 time=0.2631575
EXTRACT: note_on channel=0 note=35 velocity=95 time=0
EXTRACT: note_off channel=9 note=38 velocity=95 time=0
EXTRACT: note_off channel=9 note=42 velocity=95 time=0
EXTRACT: note_on channel=9 note=42 velocity=95 time=0
EXTRACT: note_off channel=2 note=64 velocity=127 time=0
EXTRACT: note_off channel=2 note=61 velocity=127 time=0
EXTRACT: note_off channel=2 note=57 velocity=95 time=0
EXTRACT: note_off channel=2 note=50 velocity=95 time=0
EXTRACT: note_on channel=2 note=64 velocity=127 time=0
EXTRACT: note_on channel=2 note=61 velocity=127 time=0
EXTRACT: note_on channel=2 note=57 velocity=95 time=0
EXTRACT: note_on channel=2 note=50 velocity=95 time=0
EXTRACT: note_off channel=4 note=50 velocity=95 time=0
EXTRACT: note_off channel=4 note=62 velocity=95 time=0
EXTRACT: note_on channel=4 note=61 velocity=95 time=0
EXTRACT: note_off channel=6 note=62 velocity=95 time=0
EXTRACT: note_on channel=6 note=61 velocity=95 time=0
EXTRACT: note_off channel=11 note=64 velocity=95 time=0
EXTRACT: note_on channel=11 note=66 velocity=95 time=0
EXTRACT: note_off channel=0 note=35 velocity=95 time=0.2631575
EXTRACT: note_on channel=0 note=33 velocity=95 time=0
EXTRACT: note_off channel=9 note=42 velocity=95 time=0
EXTRACT: note_on channel=9 note=42 velocity=95 time=0
EXTRACT: note_on channel=9 note=36 velocity=95 time=0
EXTRACT: note_off channel=2 note=64 velocity=127 time=0
EXTRACT: note_off channel=2 note=61 velocity=127 time=0
EXTRACT: note_off channel=2 note=57 velocity=95 time=0
EXTRACT: note_off channel=2 note=50 velocity=95 time=0
EXTRACT: note_on channel=2 note=64 velocity=127 time=0
EXTRACT: note_on channel=2 note=61 velocity=127 time=0
EXTRACT: note_on channel=2 note=57 velocity=95 time=0
EXTRACT: note_on channel=2 note=50 velocity=95 time=0
EXTRACT: note_off channel=4 note=61 velocity=95 time=0
EXTRACT: note_on channel=4 note=59 velocity=95 time=0
EXTRACT: note_off channel=6 note=61 velocity=95 time=0
EXTRACT: note_on channel=6 note=59 velocity=95 time=0
EXTRACT: note_off channel=11 note=66 velocity=95 time=0
EXTRACT: note_on channel=11 note=64 velocity=95 time=0
EXTRACT: note_off channel=1 note=64 velocity=95 time=0.2631575
EXTRACT: note_on channel=1 note=62 velocity=95 time=0
EXTRACT: note_off channel=0 note=33 velocity=95 time=0
EXTRACT: note_on channel=0 note=37 velocity=95 time=0
EXTRACT: note_off channel=9 note=42 velocity=95 time=0
EXTRACT: note_off channel=9 note=36 velocity=95 time=0
EXTRACT: note_on channel=9 note=38 velocity=95 time=0
EXTRACT: note_on channel=9 note=31 velocity=95 time=0
EXTRACT: note_off channel=2 note=64 velocity=127 time=0
EXTRACT: note_off channel=2 note=61 velocity=127 time=0
EXTRACT: note_off channel=2 note=57 velocity=95 time=0
EXTRACT: note_off channel=2 note=50 velocity=95 time=0
EXTRACT: note_on channel=2 note=64 velocity=127 time=0
EXTRACT: note_on channel=2 note=61 velocity=127 time=0
EXTRACT: note_on channel=2 note=57 velocity=95 time=0
EXTRACT: note_on channel=2 note=50 velocity=95 time=0
EXTRACT: note_off channel=4 note=59 velocity=95 time=0
EXTRACT: note_on channel=4 note=57 velocity=95 time=0
EXTRACT: note_off channel=6 note=59 velocity=95 time=0
EXTRACT: note_on channel=6 note=57 velocity=95 time=0
EXTRACT: note_off channel=11 note=64 velocity=95 time=0
EXTRACT: note_on channel=11 note=66 velocity=95 time=0
EXTRACT: note_off channel=1 note=62 velocity=95 time=0.2631575
EXTRACT: note_on channel=1 note=62 velocity=95 time=0
EXTRACT: note_off channel=0 note=37 velocity=95 time=0
EXTRACT: note_on channel=0 note=33 velocity=95 time=0
EXTRACT: note_off channel=9 note=38 velocity=95 time=0
EXTRACT: note_off channel=9 note=31 velocity=95 time=0
EXTRACT: note_on channel=9 note=36 velocity=95 time=0
EXTRACT: note_off channel=2 note=64 velocity=127 time=0
EXTRACT: note_off channel=2 note=61 velocity=127 time=0
EXTRACT: note_off channel=2 note=57 velocity=95 time=0
EXTRACT: note_off channel=2 note=50 velocity=95 time=0
EXTRACT: note_on channel=2 note=64 velocity=127 time=0
EXTRACT: note_on channel=2 note=61 velocity=127 time=0
EXTRACT: note_on channel=2 note=57 velocity=95 time=0
EXTRACT: note_on channel=2 note=50 velocity=95 time=0
EXTRACT: note_off channel=6 note=57 velocity=95 time=0
EXTRACT: note_on channel=6 note=55 velocity=95 time=0
EXTRACT: note_off channel=11 note=66 velocity=95 time=0
EXTRACT: note_on channel=11 note=64 velocity=95 time=0
EXTRACT: note_off channel=1 note=62 velocity=95 time=0
EXTRACT: note_on channel=1 note=62 velocity=95 time=0
EXTRACT: note_off channel=0 note=33 velocity=95 time=0
EXTRACT: note_on channel=0 note=43 velocity=95 time=0
EXTRACT: note_off channel=9 note=36 velocity=95 time=0
EXTRACT: note_on channel=9 note=49 velocity=95 time=0
EXTRACT: note_on channel=9 note=36 velocity=95 time=0
EXTRACT: note_off channel=2 note=64 velocity=127 time=0
EXTRACT: note_off channel=2 note=61 velocity=127 time=0
EXTRACT: note_off channel=2 note=57 velocity=95 time=0
EXTRACT: note_off channel=2 note=50 velocity=95 time=0
EXTRACT: note_on channel=2 note=71 velocity=127 time=0
EXTRACT: note_on channel=2 note=67 velocity=127 time=0
EXTRACT: note_on channel=2 note=62 velocity=95 time=0
EXTRACT: note_off channel=4 note=57 velocity=95 time=0
EXTRACT: note_on channel=4 note=67 velocity=95 time=0
EXTRACT: note_on channel=4 note=59 velocity=95 time=0
EXTRACT: note_on channel=4 note=55 velocity=95 time=0
EXTRACT: note_on channel=4 note=50 velocity=95 time=0
EXTRACT: note_on channel=4 note=43 velocity=95 time=0
EXTRACT: note_off channel=6 note=55 velocity=95 time=0
EXTRACT: note_on channel=6 note=67 velocity=95 time=0
EXTRACT: note_on channel=6 note=59 velocity=95 time=0
EXTRACT: note_on channel=6 note=55 velocity=95 time=0
EXTRACT: note_on channel=6 note=50 velocity=95 time=0
EXTRACT: note_on channel=6 note=43 velocity=95 time=0
EXTRACT: note_off channel=11 note=64 velocity=95 time=0
EXTRACT: note_off channel=0 note=43 velocity=95 time=0.2654865
EXTRACT: note_on channel=0 note=43 velocity=95 time=0
EXTRACT: note_off channel=9 note=49 velocity=95 time=0
EXTRACT: note_off channel=9 note=36 velocity=95 time=0
EXTRACT: note_on channel=9 note=42 velocity=95 time=0
EXTRACT: note_on channel=9 note=36 velocity=95 time=0
EXTRACT: note_off channel=2 note=71 velocity=127 time=0
EXTRACT: note_off channel=2 note=67 velocity=127 time=0
EXTRACT: note_off channel=2 note=62 velocity=95 time=0
EXTRACT: note_on channel=2 note=71 velocity=127 time=0
EXTRACT: note_on channel=2 note=67 velocity=127 time=0
EXTRACT: note_on channel=2 note=62 velocity=95 time=0
EXTRACT: note_off channel=1 note=62 velocity=95 time=0.2654865
EXTRACT: note_on channel=1 note=62 velocity=95 time=0
EXTRACT: note_off channel=0 note=43 velocity=95 time=0
EXTRACT: note_on channel=0 note=43 velocity=95 time=0
EXTRACT: note_off channel=9 note=42 velocity=95 time=0
EXTRACT: note_off channel=9 note=36 velocity=95 time=0
EXTRACT: note_on channel=9 note=42 velocity=95 time=0
EXTRACT: note_on channel=9 note=38 velocity=95 time=0
EXTRACT: note_on channel=9 note=36 velocity=95 time=0
EXTRACT: note_off channel=2 note=71 velocity=127 time=0
EXTRACT: note_off channel=2 note=67 velocity=127 time=0
EXTRACT: note_off channel=2 note=62 velocity=95 time=0
EXTRACT: note_on channel=2 note=71 velocity=127 time=0
EXTRACT: note_on channel=2 note=67 velocity=127 time=0
EXTRACT: note_on channel=2 note=62 velocity=95 time=0
EXTRACT: note_off channel=1 note=62 velocity=95 time=0.2654865
EXTRACT: note_on channel=1 note=62 velocity=95 time=0
EXTRACT: note_off channel=0 note=43 velocity=95 time=0
EXTRACT: note_on channel=0 note=43 velocity=95 time=0
EXTRACT: note_off channel=9 note=42 velocity=95 time=0
EXTRACT: note_off channel=9 note=38 velocity=95 time=0
EXTRACT: note_off channel=9 note=36 velocity=95 time=0
EXTRACT: note_on channel=9 note=42 velocity=95 time=0
EXTRACT: note_on channel=9 note=36 velocity=95 time=0
EXTRACT: note_off channel=2 note=71 velocity=127 time=0
EXTRACT: note_off channel=2 note=67 velocity=127 time=0
EXTRACT: note_off channel=2 note=62 velocity=95 time=0
EXTRACT: note_on channel=2 note=71 velocity=127 time=0
EXTRACT: note_on channel=2 note=67 velocity=127 time=0
EXTRACT: note_on channel=2 note=62 velocity=95 time=0
EXTRACT: note_off channel=4 note=67 velocity=95 time=0
EXTRACT: note_off channel=4 note=59 velocity=95 time=0
EXTRACT: note_off channel=4 note=55 velocity=95 time=0
EXTRACT: note_off channel=4 note=50 velocity=95 time=0
EXTRACT: note_off channel=4 note=43 velocity=95 time=0
EXTRACT: note_on channel=4 note=67 velocity=95 time=0
EXTRACT: note_on channel=4 note=59 velocity=95 time=0
EXTRACT: note_on channel=4 note=55 velocity=95 time=0
EXTRACT: note_on channel=4 note=50 velocity=95 time=0
EXTRACT: note_on channel=4 note=43 velocity=95 time=0
EXTRACT: note_off channel=0 note=43 velocity=95 time=0.2654865
EXTRACT: note_on channel=0 note=43 velocity=95 time=0
EXTRACT: note_off channel=9 note=42 velocity=95 time=0
EXTRACT: note_off channel=9 note=36 velocity=95 time=0
EXTRACT: note_on channel=9 note=42 velocity=95 time=0
EXTRACT: note_on channel=9 note=38 velocity=95 time=0
EXTRACT: note_on channel=9 note=36 velocity=95 time=0
EXTRACT: note_off channel=2 note=71 velocity=127 time=0
EXTRACT: note_off channel=2 note=67 velocity=127 time=0
EXTRACT: note_off channel=2 note=62 velocity=95 time=0
EXTRACT: note_on channel=2 note=71 velocity=127 time=0
EXTRACT: note_on channel=2 note=67 velocity=127 time=0
EXTRACT: note_on channel=2 note=62 velocity=95 time=0
EXTRACT: note_off channel=1 note=62 velocity=95 time=0.2654865
EXTRACT: note_on channel=1 note=62 velocity=95 time=0
EXTRACT: note_off channel=0 note=43 velocity=95 time=0
EXTRACT: note_on channel=0 note=43 velocity=95 time=0
EXTRACT: note_off channel=9 note=42 velocity=95 time=0
EXTRACT: note_off channel=9 note=38 velocity=95 time=0
EXTRACT: note_off channel=9 note=36 velocity=95 time=0
EXTRACT: note_on channel=9 note=42 velocity=95 time=0
EXTRACT: note_on channel=9 note=36 velocity=95 time=0
EXTRACT: note_off channel=2 note=71 velocity=127 time=0
EXTRACT: note_off channel=2 note=67 velocity=127 time=0
EXTRACT: note_off channel=2 note=62 velocity=95 time=0
EXTRACT: note_on channel=2 note=71 velocity=127 time=0
EXTRACT: note_on channel=2 note=67 velocity=127 time=0
EXTRACT: note_on channel=2 note=62 velocity=95 time=0
EXTRACT: note_off channel=1 note=62 velocity=95 time=0.2654865
EXTRACT: note_on channel=1 note=62 velocity=95 time=0
EXTRACT: note_off channel=0 note=43 velocity=95 time=0
EXTRACT: note_on channel=0 note=43 velocity=95 time=0
EXTRACT: note_off channel=9 note=42 velocity=95 time=0
EXTRACT: note_off channel=9 note=36 velocity=95 time=0
EXTRACT: note_on channel=9 note=42 velocity=95 time=0
EXTRACT: note_on channel=9 note=38 velocity=95 time=0
EXTRACT: note_on channel=9 note=36 velocity=95 time=0
EXTRACT: note_off channel=2 note=71 velocity=127 time=0
EXTRACT: note_off channel=2 note=67 velocity=127 time=0
EXTRACT: note_off channel=2 note=62 velocity=95 time=0
EXTRACT: note_on channel=2 note=71 velocity=127 time=0
EXTRACT: note_on channel=2 note=67 velocity=127 time=0
EXTRACT: note_on channel=2 note=62 velocity=95 time=0
EXTRACT: note_off channel=1 note=62 velocity=95 time=0.2654865
EXTRACT: note_on channel=1 note=62 velocity=95 time=0
EXTRACT: note_off channel=0 note=43 velocity=95 time=0
EXTRACT: note_on channel=0 note=43 velocity=95 time=0
EXTRACT: note_off channel=9 note=42 velocity=95 time=0
EXTRACT: note_off channel=9 note=38 velocity=95 time=0
EXTRACT: note_off channel=9 note=36 velocity=95 time=0
EXTRACT: note_on channel=9 note=42 velocity=95 time=0
EXTRACT: note_on channel=9 note=36 velocity=95 time=0
EXTRACT: note_off channel=2 note=71 velocity=127 time=0
EXTRACT: note_off channel=2 note=67 velocity=127 time=0
EXTRACT: note_off channel=2 note=62 velocity=95 time=0
EXTRACT: note_on channel=2 note=71 velocity=127 time=0
EXTRACT: note_on channel=2 note=67 velocity=127 time=0
EXTRACT: note_on channel=2 note=62 velocity=95 time=0
EXTRACT: note_off channel=1 note=62 velocity=95 time=0.2654865
EXTRACT: note_on channel=1 note=61 velocity=95 time=0
EXTRACT: note_off channel=0 note=43 velocity=95 time=0
EXTRACT: note_on channel=0 note=43 velocity=95 time=0
EXTRACT: note_off channel=9 note=42 velocity=95 time=0
EXTRACT: note_off channel=9 note=36 velocity=95 time=0
EXTRACT: note_on channel=9 note=42 velocity=95 time=0
EXTRACT: note_on channel=9 note=38 velocity=95 time=0
EXTRACT: note_on channel=9 note=36 velocity=95 time=0
EXTRACT: note_off channel=2 note=71 velocity=127 time=0
EXTRACT: note_off channel=2 note=67 velocity=127 time=0
EXTRACT: note_off channel=2 note=62 velocity=95 time=0
EXTRACT: note_on channel=2 note=73 velocity=127 time=0
EXTRACT: note_on channel=2 note=69 velocity=127 time=0
EXTRACT: note_on channel=2 note=64 velocity=95 time=0
EXTRACT: note_on channel=2 note=55 velocity=95 time=0
EXTRACT: note_on channel=2 note=43 velocity=95 time=0
EXTRACT: note_off channel=4 note=67 velocity=95 time=0
EXTRACT: note_off channel=4 note=59 velocity=95 time=0
EXTRACT: note_off channel=4 note=55 velocity=95 time=0
EXTRACT: note_off channel=4 note=50 velocity=95 time=0
EXTRACT: note_off channel=4 note=43 velocity=95 time=0
EXTRACT: note_on channel=4 note=67 velocity=95 time=0
EXTRACT: note_on channel=4 note=61 velocity=95 time=0
EXTRACT: note_on channel=4 note=57 velocity=95 time=0
EXTRACT: note_on channel=4 note=52 velocity=95 time=0
EXTRACT: note_on channel=4 note=43 velocity=95 time=0
EXTRACT: note_off channel=6 note=67 velocity=95 time=0
EXTRACT: note_off channel=6 note=59 velocity=95 time=0
EXTRACT: note_off channel=6 note=55 velocity=95 time=0
EXTRACT: note_off channel=6 note=50 velocity=95 time=0
EXTRACT: note_off channel=6 note=43 velocity=95 time=0
EXTRACT: note_on channel=6 note=64 velocity=95 time=0
EXTRACT: note_on channel=6 note=61 velocity=95 time=0
EXTRACT: note_on channel=6 note=57 velocity=95 time=0
EXTRACT: note_on channel=6 note=52 velocity=95 time=0
EXTRACT: note_on channel=6 note=43 velocity=95 time=0
EXTRACT: note_off channel=0 note=43 velocity=95 time=0.2654865
EXTRACT: note_on channel=0 note=43 velocity=95 time=0
EXTRACT: note_off channel=9 note=42 velocity=95 time=0
EXTRACT: note_off channel=9 note=38 velocity=95 time=0
EXTRACT: note_off channel=9 note=36 velocity=95 time=0
EXTRACT: note_on channel=9 note=42 velocity=95 time=0
EXTRACT: note_on channel=9 note=36 velocity=95 time=0
EXTRACT: note_off channel=2 note=73 velocity=127 time=0
EXTRACT: note_off channel=2 note=69 velocity=127 time=0
EXTRACT: note_off channel=2 note=64 velocity=95 time=0
EXTRACT: note_off channel=2 note=55 velocity=95 time=0
EXTRACT: note_off channel=2 note=43 velocity=95 time=0
EXTRACT: note_on channel=2 note=55 velocity=95 time=0
EXTRACT: note_on channel=2 note=43 velocity=95 time=0
EXTRACT: note_off channel=1 note=61 velocity=95 time=0.2654865
EXTRACT: note_on channel=1 note=62 velocity=95 time=0
EXTRACT: note_off channel=0 note=43 velocity=95 time=0
EXTRACT: note_on channel=0 note=43 velocity=95 time=0
EXTRACT: note_off channel=9 note=42 velocity=95 time=0
EXTRACT: note_off channel=9 note=36 velocity=95 time=0
EXTRACT: note_on channel=9 note=42 velocity=95 time=0
EXTRACT: note_on channel=9 note=38 velocity=95 time=0
EXTRACT: note_on channel=9 note=36 velocity=95 time=0
EXTRACT: note_off channel=2 note=55 velocity=95 time=0
EXTRACT: note_off channel=2 note=43 velocity=95 time=0
EXTRACT: note_on channel=2 note=55 velocity=95 time=0
EXTRACT: note_on channel=2 note=43 velocity=95 time=0
EXTRACT: note_off channel=1 note=62 velocity=95 time=0.13274325
EXTRACT: note_on channel=1 note=61 velocity=95 time=0
EXTRACT: note_off channel=1 note=61 velocity=95 time=0.13274325
EXTRACT: note_on channel=1 note=62 velocity=95 time=0
EXTRACT: note_off channel=0 note=43 velocity=95 time=0
EXTRACT: note_on channel=0 note=43 velocity=95 time=0
EXTRACT: note_off channel=9 note=42 velocity=95 time=0
EXTRACT: note_off channel=9 note=38 velocity=95 time=0
EXTRACT: note_off channel=9 note=36 velocity=95 time=0
EXTRACT: note_on channel=9 note=42 velocity=95 time=0
EXTRACT: note_on channel=9 note=36 velocity=95 time=0
EXTRACT: note_off channel=2 note=55 velocity=95 time=0
EXTRACT: note_off channel=2 note=43 velocity=95 time=0
EXTRACT: note_on channel=2 note=73 velocity=127 time=0
EXTRACT: note_on channel=2 note=69 velocity=127 time=0
EXTRACT: note_on channel=2 note=64 velocity=95 time=0
EXTRACT: note_on channel=2 note=55 velocity=95 time=0
EXTRACT: note_on channel=2 note=43 velocity=95 time=0
EXTRACT: note_off channel=4 note=67 velocity=95 time=0
EXTRACT: note_off channel=4 note=61 velocity=95 time=0
EXTRACT: note_off channel=4 note=57 velocity=95 time=0
EXTRACT: note_off channel=4 note=52 velocity=95 time=0
EXTRACT: note_off channel=4 note=43 velocity=95 time=0
EXTRACT: note_on channel=4 note=67 velocity=95 time=0
EXTRACT: note_on channel=4 note=61 velocity=95 time=0
EXTRACT: note_on channel=4 note=57 velocity=95 time=0
EXTRACT: note_on channel=4 note=52 velocity=95 time=0
EXTRACT: note_on channel=4 note=43 velocity=95 time=0
EXTRACT: note_off channel=0 note=43 velocity=95 time=0.2654865
EXTRACT: note_on channel=0 note=43 velocity=95 time=0
EXTRACT: note_off channel=9 note=42 velocity=95 time=0
EXTRACT: note_off channel=9 note=36 velocity=95 time=0
EXTRACT: note_on channel=9 note=42 velocity=95 time=0
EXTRACT: note_on channel=9 note=38 velocity=95 time=0
EXTRACT: note_on channel=9 note=36 velocity=95 time=0
EXTRACT: note_off channel=2 note=73 velocity=127 time=0
EXTRACT: note_off channel=2 note=69 velocity=127 time=0
EXTRACT: note_off channel=2 note=64 velocity=95 time=0
EXTRACT: note_off channel=2 note=55 velocity=95 time=0
EXTRACT: note_off channel=2 note=43 velocity=95 time=0
EXTRACT: note_on channel=2 note=69 velocity=47 time=0
EXTRACT: note_on channel=2 note=64 velocity=47 time=0
EXTRACT: note_on channel=2 note=55 velocity=95 time=0
EXTRACT: note_on channel=2 note=43 velocity=95 time=0
EXTRACT: note_off channel=4 note=67 velocity=95 time=0
EXTRACT: note_on channel=4 note=69 velocity=95 time=0
EXTRACT: note_off channel=1 note=62 velocity=95 time=0.2654865
EXTRACT: note_off channel=0 note=43 velocity=95 time=0
EXTRACT: note_on channel=0 note=43 velocity=95 time=0
EXTRACT: note_off channel=9 note=42 velocity=95 time=0
EXTRACT: note_off channel=9 note=38 velocity=95 time=0
EXTRACT: note_off channel=9 note=36 velocity=95 time=0
EXTRACT: note_on channel=9 note=42 velocity=95 time=0
EXTRACT: note_on channel=9 note=36 velocity=95 time=0
EXTRACT: note_off channel=2 note=69 velocity=47 time=0
EXTRACT: note_off channel=2 note=64 velocity=47 time=0
EXTRACT: note_off channel=2 note=55 velocity=95 time=0
EXTRACT: note_off channel=2 note=43 velocity=95 time=0
EXTRACT: note_on channel=2 note=55 velocity=95 time=0
EXTRACT: note_on channel=2 note=43 velocity=95 time=0
EXTRACT: note_off channel=0 note=43 velocity=95 time=0.13274325
EXTRACT: note_on channel=0 note=43 velocity=95 time=0
EXTRACT: note_off channel=0 note=43 velocity=95 time=0.13274325
EXTRACT: note_on channel=0 note=43 velocity=95 time=0
EXTRACT: note_off channel=9 note=42 velocity=95 time=0
EXTRACT: note_off channel=9 note=36 velocity=95 time=0
EXTRACT: note_on channel=9 note=42 velocity=95 time=0
EXTRACT: note_on channel=9 note=38 velocity=95 time=0
EXTRACT: note_on channel=9 note=36 velocity=95 time=0
EXTRACT: note_off channel=2 note=55 velocity=95 time=0
EXTRACT: note_off channel=2 note=43 velocity=95 time=0
EXTRACT: note_on channel=2 note=55 velocity=95 time=0
EXTRACT: note_on channel=2 note=43 velocity=95 time=0
EXTRACT: note_on channel=8 note=79 velocity=127 time=0
EXTRACT: note_on channel=8 note=74 velocity=127 time=0
EXTRACT: note_off channel=0 note=43 velocity=95 time=0.2654865
EXTRACT: note_on channel=0 note=43 velocity=95 time=0
EXTRACT: note_off channel=9 note=42 velocity=95 time=0
EXTRACT: note_off channel=9 note=38 velocity=95 time=0
EXTRACT: note_off channel=9 note=36 velocity=95 time=0
EXTRACT: note_on channel=9 note=42 velocity=95 time=0
EXTRACT: note_on channel=9 note=36 velocity=95 time=0
EXTRACT: note_off channel=2 note=55 velocity=95 time=0
EXTRACT: note_off channel=2 note=43 velocity=95 time=0
EXTRACT: note_on channel=2 note=55 velocity=95 time=0
EXTRACT: note_on channel=2 note=43 velocity=95 time=0
EXTRACT: note_on channel=1 note=66 velocity=95 time=0.2654865
EXTRACT: note_off channel=0 note=43 velocity=95 time=0
EXTRACT: note_on channel=0 note=43 velocity=95 time=0
EXTRACT: note_off channel=9 note=42 velocity=95 time=0
EXTRACT: note_off channel=9 note=36 velocity=95 time=0
EXTRACT: note_on channel=9 note=49 velocity=95 time=0
EXTRACT: note_on channel=9 note=38 velocity=95 time=0
EXTRACT: note_on channel=9 note=36 velocity=95 time=0
EXTRACT: note_off channel=2 note=55 velocity=95 time=0
EXTRACT: note_off channel=2 note=43 velocity=95 time=0
EXTRACT: note_on channel=2 note=71 velocity=95 time=0
EXTRACT: note_on channel=2 note=67 velocity=95 time=0
EXTRACT: note_on channel=2 note=62 velocity=95 time=0
EXTRACT: note_on channel=2 note=55 velocity=95 time=0
EXTRACT: note_on channel=2 note=43 velocity=95 time=0
EXTRACT: note_off channel=4 note=61 velocity=95 time=0
EXTRACT: note_off channel=4 note=57 velocity=95 time=0
EXTRACT: note_off channel=4 note=52 velocity=95 time=0
EXTRACT: note_off channel=4 note=43 velocity=95 time=0
EXTRACT: note_off channel=4 note=69 velocity=95 time=0
EXTRACT: note_on channel=4 note=67 velocity=95 time=0
EXTRACT: note_on channel=4 note=59 velocity=95 time=0
EXTRACT: note_on channel=4 note=55 velocity=95 time=0
EXTRACT: note_on channel=4 note=50 velocity=95 time=0
EXTRACT: note_on channel=4 note=43 velocity=95 time=0
EXTRACT: note_off channel=6 note=64 velocity=95 time=0
EXTRACT: note_off channel=6 note=61 velocity=95 time=0
EXTRACT: note_off channel=6 note=57 velocity=95 time=0
EXTRACT: note_off channel=6 note=52 velocity=95 time=0
EXTRACT: note_off channel=6 note=43 velocity=95 time=0
EXTRACT: note_on channel=6 note=67 velocity=95 time=0
EXTRACT: note_on channel=6 note=59 velocity=95 time=0
EXTRACT: note_on channel=6 note=55 velocity=95 time=0
EXTRACT: note_on channel=6 note=50 velocity=95 time=0
EXTRACT: note_on channel=6 note=43 velocity=95 time=0
EXTRACT: note_off channel=8 note=79 velocity=127 time=0
EXTRACT: note_off channel=8 note=74 velocity=127 time=0
EXTRACT: note_on channel=8 note=81 velocity=127 time=0
EXTRACT: note_on channel=8 note=74 velocity=127 time=0
EXTRACT: note_off channel=1 note=66 velocity=95 time=0.2654865
EXTRACT: note_on channel=1 note=66 velocity=95 time=0
EXTRACT: note_off channel=0 note=43 velocity=95 time=0
EXTRACT: note_on channel=0 note=43 velocity=95 time=0
EXTRACT: note_off channel=9 note=49 velocity=95 time=0
EXTRACT: note_off channel=9 note=38 velocity=95 time=0
EXTRACT: note_off channel=9 note=36 velocity=95 time=0
EXTRACT: note_on channel=9 note=42 velocity=95 time=0
EXTRACT: note_on channel=9 note=36 velocity=95 time=0
EXTRACT: note_off channel=2 note=71 velocity=95 time=0
EXTRACT: note_off channel=2 note=67 velocity=95 time=0
EXTRACT: note_off channel=2 note=62 velocity=95 time=0
EXTRACT: note_off channel=2 note=55 velocity=95 time=0
EXTRACT: note_off channel=2 note=43 velocity=95 time=0
EXTRACT: note_on channel=2 note=55 velocity=95 time=0
EXTRACT: note_on channel=2 note=43 velocity=95 time=0
EXTRACT: note_off channel=0 note=43 velocity=95 time=0.2654865
EXTRACT: note_on channel=0 note=43 velocity=95 time=0
EXTRACT: note_off channel=9 note=42 velocity=95 time=0
EXTRACT: note_off channel=9 note=36 velocity=95 time=0
EXTRACT: note_on channel=9 note=42 velocity=95 time=0
EXTRACT: note_on channel=9 note=38 velocity=95 time=0
EXTRACT: note_on channel=9 note=36 velocity=95 time=0
EXTRACT: note_off channel=2 note=55 velocity=95 time=0
EXTRACT: note_off channel=2 note=43 velocity=95 time=0
EXTRACT: note_on channel=2 note=55 velocity=95 time=0
EXTRACT: note_on channel=2 note=43 velocity=95 time=0
EXTRACT: note_off channel=1 note=66 velocity=95 time=0.2654865
EXTRACT: note_on channel=1 note=66 velocity=95 time=0
EXTRACT: note_off channel=0 note=43 velocity=95 time=0
EXTRACT: note_on channel=0 note=43 velocity=95 time=0
EXTRACT: note_off channel=9 note=42 velocity=95 time=0
EXTRACT: note_off channel=9 note=38 velocity=95 time=0
EXTRACT: note_off channel=9 note=36 velocity=95 time=0
EXTRACT: note_on channel=9 note=42 velocity=95 time=0
EXTRACT: note_on channel=9 note=36 velocity=95 time=0
EXTRACT: note_off channel=2 note=55 velocity=95 time=0
EXTRACT: note_off channel=2 note=43 velocity=95 time=0
EXTRACT: note_on channel=2 note=55 velocity=95 time=0
EXTRACT: note_on channel=2 note=43 velocity=95 time=0
EXTRACT: note_off channel=4 note=67 velocity=95 time=0
EXTRACT: note_off channel=4 note=59 velocity=95 time=0
EXTRACT: note_off channel=4 note=55 velocity=95 time=0
EXTRACT: note_on channel=4 note=67 velocity=95 time=0
EXTRACT: note_off channel=1 note=66 velocity=95 time=0.2654865
EXTRACT: note_on channel=1 note=64 velocity=95 time=0
EXTRACT: note_off channel=0 note=43 velocity=95 time=0
EXTRACT: note_on channel=0 note=43 velocity=95 time=0
EXTRACT: note_off channel=9 note=42 velocity=95 time=0
EXTRACT: note_off channel=9 note=36 velocity=95 time=0
EXTRACT: note_on channel=9 note=42 velocity=95 time=0
EXTRACT: note_on channel=9 note=38 velocity=95 time=0
EXTRACT: note_on channel=9 note=36 velocity=95 time=0
EXTRACT: note_off channel=2 note=55 velocity=95 time=0
EXTRACT: note_off channel=2 note=43 velocity=95 time=0
EXTRACT: note_on channel=2 note=55 velocity=95 time=0
EXTRACT: note_on channel=2 note=43 velocity=95 time=0
EXTRACT: note_off channel=4 note=67 velocity=95 time=0
EXTRACT: note_on channel=4 note=66 velocity=95 time=0
EXTRACT: note_off channel=1 note=64 velocity=95 time=0.2654865
EXTRACT: note_on channel=1 note=64 velocity=95 time=0
EXTRACT: note_off channel=0 note=43 velocity=95 time=0
EXTRACT: note_on channel=0 note=43 velocity=95 time=0
EXTRACT: note_off channel=9 note=42 velocity=95 time=0
EXTRACT: note_off channel=9 note=38 velocity=95 time=0
EXTRACT: note_off channel=9 note=36 velocity=95 time=0
EXTRACT: note_on channel=9 note=42 velocity=95 time=0
EXTRACT: note_on channel=9 note=36 velocity=95 time=0
EXTRACT: note_off channel=2 note=55 velocity=95 time=0
EXTRACT: note_off channel=2 note=43 velocity=95 time=0
EXTRACT: note_on channel=2 note=71 velocity=95 time=0
EXTRACT: note_on channel=2 note=67 velocity=95 time=0
EXTRACT: note_on channel=2 note=62 velocity=95 time=0
EXTRACT: note_on channel=2 note=55 velocity=95 time=0
EXTRACT: note_on channel=2 note=43 velocity=95 time=0
EXTRACT: note_off channel=4 note=66 velocity=95 time=0
EXTRACT: note_on channel=4 note=62 velocity=95 time=0
EXTRACT: note_off channel=0 note=43 velocity=95 time=0.2654865
EXTRACT: note_on channel=0 note=38 velocity=95 time=0
EXTRACT: note_off channel=9 note=42 velocity=95 time=0
EXTRACT: note_off channel=9 note=36 velocity=95 time=0
EXTRACT: note_on channel=9 note=42 velocity=95 time=0
EXTRACT: note_on channel=9 note=38 velocity=95 time=0
EXTRACT: note_on channel=9 note=36 velocity=95 time=0
EXTRACT: note_off channel=2 note=71 velocity=95 time=0
EXTRACT: note_off channel=2 note=67 velocity=95 time=0
EXTRACT: note_off channel=2 note=62 velocity=95 time=0
EXTRACT: note_off channel=2 note=55 velocity=95 time=0
EXTRACT: note_off channel=2 note=43 velocity=95 time=0
EXTRACT: note_on channel=2 note=71 velocity=47 time=0
EXTRACT: note_on channel=2 note=62 velocity=47 time=0
EXTRACT: note_on channel=2 note=55 velocity=95 time=0
EXTRACT: note_on channel=2 note=43 velocity=95 time=0
EXTRACT: note_off channel=4 note=62 velocity=95 time=0
EXTRACT: note_on channel=4 note=59 velocity=95 time=0
EXTRACT: note_off channel=1 note=64 velocity=95 time=0.2654865
EXTRACT: note_on channel=1 note=62 velocity=95 time=0
EXTRACT: note_off channel=9 note=42 velocity=95 time=0
EXTRACT: note_off channel=9 note=38 velocity=95 time=0
EXTRACT: note_off channel=9 note=36 velocity=95 time=0
EXTRACT: note_on channel=9 note=42 velocity=95 time=0
EXTRACT: note_on channel=9 note=36 velocity=95 time=0
EXTRACT: note_off channel=2 note=71 velocity=47 time=0
EXTRACT: note_off channel=2 note=62 velocity=47 time=0
EXTRACT: note_off channel=2 note=55 velocity=95 time=0
EXTRACT: note_off channel=2 note=43 velocity=95 time=0
EXTRACT: note_on channel=2 note=55 velocity=95 time=0
EXTRACT: note_on channel=2 note=43 velocity=95 time=0
EXTRACT: note_off channel=1 note=62 velocity=95 time=0.2654865
EXTRACT: note_on channel=1 note=59 velocity=95 time=0
EXTRACT: note_off channel=0 note=38 velocity=95 time=0
EXTRACT: note_on channel=0 note=43 velocity=95 time=0
EXTRACT: note_off channel=9 note=42 velocity=95 time=0
EXTRACT: note_off channel=9 note=36 velocity=95 time=0
EXTRACT: note_on channel=9 note=42 velocity=95 time=0
EXTRACT: note_on channel=9 note=38 velocity=95 time=0
EXTRACT: note_on channel=9 note=36 velocity=95 time=0
EXTRACT: note_off channel=2 note=55 velocity=95 time=0
EXTRACT: note_off channel=2 note=43 velocity=95 time=0
EXTRACT: note_on channel=2 note=73 velocity=127 time=0
EXTRACT: note_on channel=2 note=69 velocity=127 time=0
EXTRACT: note_on channel=2 note=64 velocity=95 time=0
EXTRACT: note_on channel=2 note=55 velocity=95 time=0
EXTRACT: note_on channel=2 note=43 velocity=95 time=0
EXTRACT: note_off channel=4 note=50 velocity=95 time=0
EXTRACT: note_off channel=4 note=43 velocity=95 time=0
EXTRACT: note_off channel=4 note=59 velocity=95 time=0
EXTRACT: note_on channel=4 note=67 velocity=95 time=0
EXTRACT: note_on channel=4 note=61 velocity=95 time=0
EXTRACT: note_on channel=4 note=57 velocity=95 time=0
EXTRACT: note_on channel=4 note=52 velocity=95 time=0
EXTRACT: note_on channel=4 note=43 velocity=95 time=0
EXTRACT: note_off channel=6 note=67 velocity=95 time=0
EXTRACT: note_off channel=6 note=59 velocity=95 time=0
EXTRACT: note_off channel=6 note=55 velocity=95 time=0
EXTRACT: note_off channel=6 note=50 velocity=95 time=0
EXTRACT: note_off channel=6 note=43 velocity=95 time=0
EXTRACT: note_on channel=6 note=64 velocity=95 time=0
EXTRACT: note_on channel=6 note=61 velocity=95 time=0
EXTRACT: note_on channel=6 note=57 velocity=95 time=0
EXTRACT: note_on channel=6 note=52 velocity=95 time=0
EXTRACT: note_on channel=6 note=43 velocity=95 time=0
EXTRACT: note_off channel=8 note=81 velocity=127 time=0
EXTRACT: note_off channel=8 note=74 velocity=127 time=0
EXTRACT: note_off channel=0 note=43 velocity=95 time=0.2654865
EXTRACT: note_on channel=0 note=43 velocity=95 time=0
EXTRACT: note_off channel=9 note=42 velocity=95 time=0
EXTRACT: note_off channel=9 note=38 velocity=95 time=0
EXTRACT: note_off channel=9 note=36 velocity=95 time=0
EXTRACT: note_on channel=9 note=42 velocity=95 time=0
EXTRACT: note_on channel=9 note=36 velocity=95 time=0
EXTRACT: note_off channel=2 note=73 velocity=127 time=0
EXTRACT: note_off channel=2 note=69 velocity=127 time=0
EXTRACT: note_off channel=2 note=64 velocity=95 time=0
EXTRACT: note_off channel=2 note=55 velocity=95 time=0
EXTRACT: note_off channel=2 note=43 velocity=95 time=0
EXTRACT: note_on channel=2 note=55 velocity=95 time=0
EXTRACT: note_on channel=2 note=43 velocity=95 time=0
EXTRACT: note_off channel=1 note=59 velocity=95 time=0.2654865
EXTRACT: note_on channel=1 note=62 velocity=95 time=0
EXTRACT: note_off channel=0 note=43 velocity=95 time=0
EXTRACT: note_on channel=0 note=43 velocity=95 time=0
EXTRACT: note_off channel=9 note=42 velocity=95 time=0
EXTRACT: note_off channel=9 note=36 velocity=95 time=0
EXTRACT: note_on channel=9 note=42 velocity=95 time=0
EXTRACT: note_on channel=9 note=38 velocity=95 time=0
EXTRACT: note_on channel=9 note=36 velocity=95 time=0
EXTRACT: note_off channel=2 note=55 velocity=95 time=0
EXTRACT: note_off channel=2 note=43 velocity=95 time=0
EXTRACT: note_on channel=2 note=55 velocity=95 time=0
EXTRACT: note_on channel=2 note=43 velocity=95 time=0
EXTRACT: note_on channel=11 note=74 velocity=95 time=0
EXTRACT: note_off channel=1 note=62 velocity=95 time=0.2654865
EXTRACT: note_on channel=1 note=62 velocity=95 time=0
EXTRACT: note_off channel=0 note=43 velocity=95 time=0
EXTRACT: note_on channel=0 note=43 velocity=95 time=0
EXTRACT: note_off channel=9 note=42 velocity=95 time=0
EXTRACT: note_off channel=9 note=38 velocity=95 time=0
EXTRACT: note_off channel=9 note=36 velocity=95 time=0
EXTRACT: note_on channel=9 note=42 velocity=95 time=0
EXTRACT: note_on channel=9 note=36 velocity=95 time=0
EXTRACT: note_off channel=2 note=55 velocity=95 time=0
EXTRACT: note_off channel=2 note=43 velocity=95 time=0
EXTRACT: note_on channel=2 note=73 velocity=127 time=0
EXTRACT: note_on channel=2 note=69 velocity=127 time=0
EXTRACT: note_on channel=2 note=64 velocity=95 time=0
EXTRACT: note_on channel=2 note=55 velocity=95 time=0
EXTRACT: note_on channel=2 note=43 velocity=95 time=0
EXTRACT: note_off channel=4 note=67 velocity=95 time=0
EXTRACT: note_off channel=4 note=61 velocity=95 time=0
EXTRACT: note_off channel=4 note=57 velocity=95 time=0
EXTRACT: note_off channel=4 note=52 velocity=95 time=0
EXTRACT: note_off channel=4 note=43 velocity=95 time=0
EXTRACT: note_on channel=4 note=61 velocity=95 time=0
EXTRACT: note_off channel=11 note=74 velocity=95 time=0
EXTRACT: note_on channel=11 note=74 velocity=95 time=0
EXTRACT: note_off channel=1 note=62 velocity=95 time=0.2654865
EXTRACT: note_on channel=1 note=59 velocity=95 time=0
EXTRACT: note_off channel=0 note=43 velocity=95 time=0
EXTRACT: note_on channel=0 note=43 velocity=95 time=0
EXTRACT: note_off channel=9 note=42 velocity=95 time=0
EXTRACT: note_off channel=9 note=36 velocity=95 time=0
EXTRACT: note_on channel=9 note=42 velocity=95 time=0
EXTRACT: note_on channel=9 note=38 velocity=95 time=0
EXTRACT: note_on channel=9 note=36 velocity=95 time=0
EXTRACT: note_off channel=2 note=73 velocity=127 time=0
EXTRACT: note_off channel=2 note=69 velocity=127 time=0
EXTRACT: note_off channel=2 note=64 velocity=95 time=0
EXTRACT: note_off channel=2 note=55 velocity=95 time=0
EXTRACT: note_off channel=2 note=43 velocity=95 time=0
EXTRACT: note_on channel=2 note=69 velocity=111 time=0
EXTRACT: note_on channel=2 note=64 velocity=47 time=0
EXTRACT: note_on channel=2 note=55 velocity=95 time=0
EXTRACT: note_on channel=2 note=43 velocity=95 time=0
EXTRACT: note_off channel=4 note=61 velocity=95 time=0
EXTRACT: note_on channel=4 note=64 velocity=95 time=0
EXTRACT: note_on channel=4 note=61 velocity=95 time=0
EXTRACT: note_off channel=11 note=74 velocity=95 time=0
EXTRACT: note_on channel=11 note=71 velocity=95 time=0
EXTRACT: note_off channel=1 note=59 velocity=95 time=0.2654865
EXTRACT: note_off channel=0 note=43 velocity=95 time=0
EXTRACT: note_on channel=0 note=43 velocity=95 time=0
EXTRACT: note_off channel=9 note=42 velocity=95 time=0
EXTRACT: note_off channel=9 note=38 velocity=95 time=0
EXTRACT: note_off channel=9 note=36 velocity=95 time=0
EXTRACT: note_on channel=9 note=42 velocity=95 time=0
EXTRACT: note_on channel=9 note=36 velocity=95 time=0
EXTRACT: note_off channel=2 note=69 velocity=111 time=0
EXTRACT: note_off channel=2 note=64 velocity=47 time=0
EXTRACT: note_off channel=2 note=55 velocity=95 time=0
EXTRACT: note_off channel=2 note=43 velocity=95 time=0
EXTRACT: note_on channel=2 note=55 velocity=95 time=0
EXTRACT: note_on channel=2 note=43 velocity=95 time=0
EXTRACT: note_off channel=4 note=64 velocity=95 time=0
EXTRACT: note_on channel=4 note=69 velocity=95 time=0
EXTRACT: note_off channel=11 note=71 velocity=95 time=0
EXTRACT: note_off channel=0 note=43 velocity=95 time=0.13274325
EXTRACT: note_on channel=0 note=43 velocity=95 time=0
EXTRACT: note_off channel=0 note=43 velocity=95 time=0.13274325
EXTRACT: note_on channel=0 note=43 velocity=95 time=0
EXTRACT: note_off channel=9 note=42 velocity=95 time=0
EXTRACT: note_off channel=9 note=36 velocity=95 time=0
EXTRACT: note_on channel=9 note=42 velocity=95 time=0
EXTRACT: note_on channel=9 note=38 velocity=95 time=0
EXTRACT: note_on channel=9 note=36 velocity=95 time=0
EXTRACT: note_off channel=2 note=55 velocity=95 time=0
EXTRACT: note_off channel=2 note=43 velocity=95 time=0
EXTRACT: note_on channel=2 note=55 velocity=95 time=0
EXTRACT: note_on channel=2 note=43 velocity=95 time=0
EXTRACT: note_off channel=4 note=61 velocity=95 time=0
EXTRACT: note_on channel=4 note=61 velocity=95 time=0
EXTRACT: note_off channel=0 note=43 velocity=95 time=0.2654865
EXTRACT: note_on channel=0 note=43 velocity=95 time=0
EXTRACT: note_off channel=9 note=42 velocity=95 time=0
EXTRACT: note_off channel=9 note=38 velocity=95 time=0
EXTRACT: note_off channel=9 note=36 velocity=95 time=0
EXTRACT: note_on channel=9 note=42 velocity=95 time=0
EXTRACT: note_on channel=9 note=36 velocity=95 time=0
EXTRACT: note_off channel=2 note=55 velocity=95 time=0
EXTRACT: note_off channel=2 note=43 velocity=95 time=0
EXTRACT: note_on channel=2 note=55 velocity=95 time=0
EXTRACT: note_on channel=2 note=43 velocity=95 time=0
EXTRACT: note_on channel=11 note=55 velocity=95 time=0
EXTRACT: note_off channel=11 note=55 velocity=95 time=0.13274325
EXTRACT: note_on channel=11 note=57 velocity=95 time=0
EXTRACT: note_off channel=0 note=43 velocity=95 time=0.13274325
EXTRACT: note_on channel=0 note=43 velocity=95 time=0
EXTRACT: note_off channel=9 note=42 velocity=95 time=0
EXTRACT: note_off channel=9 note=36 velocity=95 time=0
EXTRACT: note_on channel=9 note=49 velocity=95 time=0
EXTRACT: note_on channel=9 note=38 velocity=95 time=0
EXTRACT: note_on channel=9 note=36 velocity=95 time=0
EXTRACT: note_off channel=2 note=55 velocity=95 time=0
EXTRACT: note_off channel=2 note=43 velocity=95 time=0
EXTRACT: note_on channel=2 note=71 velocity=127 time=0
EXTRACT: note_on channel=2 note=67 velocity=127 time=0
EXTRACT: note_on channel=2 note=62 velocity=95 time=0
EXTRACT: note_on channel=2 note=55 velocity=95 time=0
EXTRACT: note_on channel=2 note=43 velocity=95 time=0
EXTRACT: note_off channel=4 note=69 velocity=95 time=0
EXTRACT: note_off channel=4 note=61 velocity=95 time=0
EXTRACT: note_on channel=4 note=57 velocity=95 time=0
EXTRACT: note_off channel=6 note=64 velocity=95 time=0
EXTRACT: note_off channel=6 note=61 velocity=95 time=0
EXTRACT: note_off channel=6 note=57 velocity=95 time=0
EXTRACT: note_off channel=6 note=52 velocity=95 time=0
EXTRACT: note_off channel=6 note=43 velocity=95 time=0
EXTRACT: note_on channel=6 note=67 velocity=95 time=0
EXTRACT: note_on channel=6 note=59 velocity=95 time=0
EXTRACT: note_on channel=6 note=55 velocity=95 time=0
EXTRACT: note_on channel=6 note=50 velocity=95 time=0
EXTRACT: note_on channel=6 note=43 velocity=95 time=0
EXTRACT: note_off channel=11 note=57 velocity=95 time=0
EXTRACT: note_on channel=11 note=62 velocity=95 time=0
EXTRACT: note_off channel=0 note=43 velocity=95 time=0.2654865
EXTRACT: note_on channel=0 note=43 velocity=95 time=0
EXTRACT: note_off channel=9 note=49 velocity=95 time=0
EXTRACT: note_off channel=9 note=38 velocity=95 time=0
EXTRACT: note_off channel=9 note=36 velocity=95 time=0
EXTRACT: note_on channel=9 note=42 velocity=95 time=0
EXTRACT: note_on channel=9 note=36 velocity=95 time=0
EXTRACT: note_off channel=2 note=71 velocity=127 time=0
EXTRACT: note_off channel=2 note=67 velocity=127 time=0
EXTRACT: note_off channel=2 note=62 velocity=95 time=0
EXTRACT: note_off channel=2 note=55 velocity=95 time=0
EXTRACT: note_off channel=2 note=43 velocity=95 time=0
EXTRACT: note_on channel=2 note=55 velocity=95 time=0
EXTRACT: note_on channel=2 note=43 velocity=95 time=0
EXTRACT: note_on channel=4 note=62 velocity=95 time=0
EXTRACT: note_off channel=0 note=43 velocity=95 time=0.2654865
EXTRACT: note_on channel=0 note=43 velocity=95 time=0
EXTRACT: note_off channel=9 note=42 velocity=95 time=0
EXTRACT: note_off channel=9 note=36 velocity=95 time=0
EXTRACT: note_on channel=9 note=42 velocity=95 time=0
EXTRACT: note_on channel=9 note=38 velocity=95 time=0
EXTRACT: note_on channel=9 note=36 velocity=95 time=0
EXTRACT: note_off channel=2 note=55 velocity=95 time=0
EXTRACT: note_off channel=2 note=43 velocity=95 time=0
EXTRACT: note_on channel=2 note=55 velocity=95 time=0
EXTRACT: note_on channel=2 note=43 velocity=95 time=0
EXTRACT: note_off channel=4 note=62 velocity=95 time=0
EXTRACT: note_on channel=4 note=64 velocity=95 time=0
EXTRACT: note_off channel=0 note=43 velocity=95 time=0.2654865
EXTRACT: note_on channel=0 note=43 velocity=95 time=0
EXTRACT: note_off channel=9 note=42 velocity=95 time=0
EXTRACT: note_off channel=9 note=38 velocity=95 time=0
EXTRACT: note_off channel=9 note=36 velocity=95 time=0
EXTRACT: note_on channel=9 note=42 velocity=95 time=0
EXTRACT: note_on channel=9 note=36 velocity=95 time=0
EXTRACT: note_off channel=2 note=55 velocity=95 time=0
EXTRACT: note_off channel=2 note=43 velocity=95 time=0
EXTRACT: note_on channel=2 note=71 velocity=127 time=0
EXTRACT: note_on channel=2 note=67 velocity=127 time=0
EXTRACT: note_on channel=2 note=62 velocity=95 time=0
EXTRACT: note_on channel=2 note=55 velocity=95 time=0
EXTRACT: note_on channel=2 note=43 velocity=95 time=0
EXTRACT: note_off channel=4 note=64 velocity=95 time=0
EXTRACT: note_on channel=4 note=62 velocity=95 time=0
EXTRACT: note_off channel=11 note=62 velocity=95 time=0
EXTRACT: note_on channel=11 note=59 velocity=95 time=0
EXTRACT: note_off channel=0 note=43 velocity=95 time=0.2654865
EXTRACT: note_on channel=0 note=43 velocity=95 time=0
EXTRACT: note_off channel=9 note=42 velocity=95 time=0
EXTRACT: note_off channel=9 note=36 velocity=95 time=0
EXTRACT: note_on channel=9 note=42 velocity=95 time=0
EXTRACT: note_on channel=9 note=38 velocity=95 time=0
EXTRACT: note_on channel=9 note=36 velocity=95 time=0
EXTRACT: note_off channel=2 note=71 velocity=127 time=0
EXTRACT: note_off channel=2 note=67 velocity=127 time=0
EXTRACT: note_off channel=2 note=62 velocity=95 time=0
EXTRACT: note_off channel=2 note=55 velocity=95 time=0
EXTRACT: note_off channel=2 note=43 velocity=95 time=0
EXTRACT: note_on channel=2 note=67 velocity=111 time=0
EXTRACT: note_on channel=2 note=62 velocity=47 time=0
EXTRACT: note_on channel=2 note=55 velocity=95 time=0
EXTRACT: note_on channel=2 note=43 velocity=95 time=0
EXTRACT: note_off channel=0 note=43 velocity=95 time=0.2654865
EXTRACT: note_on channel=0 note=43 velocity=95 time=0
EXTRACT: note_off channel=9 note=42 velocity=95 time=0
EXTRACT: note_off channel=9 note=38 velocity=95 time=0
EXTRACT: note_off channel=9 note=36 velocity=95 time=0
EXTRACT: note_on channel=9 note=42 velocity=95 time=0
EXTRACT: note_on channel=9 note=36 velocity=95 time=0
EXTRACT: note_off channel=2 note=67 velocity=111 time=0
EXTRACT: note_off channel=2 note=62 velocity=47 time=0
EXTRACT: note_off channel=2 note=55 velocity=95 time=0
EXTRACT: note_off channel=2 note=43 velocity=95 time=0
EXTRACT: note_on channel=2 note=55 velocity=95 time=0
EXTRACT: note_on channel=2 note=43 velocity=95 time=0
EXTRACT: note_off channel=4 note=62 velocity=95 time=0
EXTRACT: note_on channel=4 note=61 velocity=95 time=0
EXTRACT: note_off channel=11 note=59 velocity=95 time=0
EXTRACT: note_off channel=0 note=43 velocity=95 time=0.2654865
EXTRACT: note_on channel=0 note=38 velocity=95 time=0
EXTRACT: note_off channel=9 note=42 velocity=95 time=0
EXTRACT: note_off channel=9 note=36 velocity=95 time=0
EXTRACT: note_on channel=9 note=42 velocity=95 time=0
EXTRACT: note_on channel=9 note=38 velocity=95 time=0
EXTRACT: note_on channel=9 note=36 velocity=95 time=0
EXTRACT: note_off channel=2 note=55 velocity=95 time=0
EXTRACT: note_off channel=2 note=43 velocity=95 time=0
EXTRACT: note_on channel=2 note=71 velocity=127 time=0
EXTRACT: note_on channel=2 note=67 velocity=127 time=0
EXTRACT: note_on channel=2 note=62 velocity=95 time=0
EXTRACT: note_on channel=2 note=55 velocity=95 time=0
EXTRACT: note_on channel=2 note=43 velocity=95 time=0
EXTRACT: note_on channel=11 note=55 velocity=95 time=0
EXTRACT: note_off channel=9 note=42 velocity=95 time=0.2654865
EXTRACT: note_off channel=9 note=38 velocity=95 time=0
EXTRACT: note_off channel=9 note=36 velocity=95 time=0
EXTRACT: note_on channel=9 note=42 velocity=95 time=0
EXTRACT: note_on channel=9 note=36 velocity=95 time=0
EXTRACT: note_off channel=2 note=71 velocity=127 time=0
EXTRACT: note_off channel=2 note=67 velocity=127 time=0
EXTRACT: note_off channel=2 note=62 velocity=95 time=0
EXTRACT: note_off channel=2 note=55 velocity=95 time=0
EXTRACT: note_off channel=2 note=43 velocity=95 time=0
EXTRACT: note_on channel=2 note=55 velocity=95 time=0
EXTRACT: note_on channel=2 note=43 velocity=95 time=0
EXTRACT: note_off channel=11 note=55 velocity=95 time=0
EXTRACT: note_on channel=11 note=57 velocity=95 time=0
EXTRACT: note_off channel=0 note=38 velocity=95 time=0.2654865
EXTRACT: note_on channel=0 note=43 velocity=95 time=0
EXTRACT: note_off channel=9 note=42 velocity=95 time=0
EXTRACT: note_off channel=9 note=36 velocity=95 time=0
EXTRACT: note_on channel=9 note=42 velocity=95 time=0
EXTRACT: note_on channel=9 note=38 velocity=95 time=0
EXTRACT: note_on channel=9 note=36 velocity=95 time=0
EXTRACT: note_off channel=2 note=55 velocity=95 time=0
EXTRACT: note_off channel=2 note=43 velocity=95 time=0
EXTRACT: note_on channel=2 note=73 velocity=127 time=0
EXTRACT: note_on channel=2 note=69 velocity=127 time=0
EXTRACT: note_on channel=2 note=64 velocity=95 time=0
EXTRACT: note_on channel=2 note=55 velocity=95 time=0
EXTRACT: note_on channel=2 note=43 velocity=95 time=0
EXTRACT: note_off channel=4 note=57 velocity=95 time=0
EXTRACT: note_off channel=4 note=61 velocity=95 time=0
EXTRACT: note_on channel=4 note=67 velocity=95 time=0
EXTRACT: note_on channel=4 note=61 velocity=95 time=0
EXTRACT: note_on channel=4 note=57 velocity=95 time=0
EXTRACT: note_on channel=4 note=52 velocity=95 time=0
EXTRACT: note_on channel=4 note=43 velocity=95 time=0
EXTRACT: note_off channel=6 note=67 velocity=95 time=0
EXTRACT: note_off channel=6 note=59 velocity=95 time=0
EXTRACT: note_off channel=6 note=55 velocity=95 time=0
EXTRACT: note_off channel=6 note=50 velocity=95 time=0
EXTRACT: note_off channel=6 note=43 velocity=95 time=0
EXTRACT: note_on channel=6 note=64 velocity=95 time=0
EXTRACT: note_on channel=6 note=61 velocity=95 time=0
EXTRACT: note_on channel=6 note=57 velocity=95 time=0
EXTRACT: note_on channel=6 note=52 velocity=95 time=0
EXTRACT: note_on channel=6 note=43 velocity=95 time=0
EXTRACT: note_off channel=11 note=57 velocity=95 time=0
EXTRACT: note_on channel=12 note=62 velocity=95 time=0
EXTRACT: pitchwheel channel=12 pitch=0 time=0.066371625
EXTRACT: pitchwheel channel=12 pitch=128 time=0.066371625
EXTRACT: pitchwheel channel=12 pitch=256 time=0.066371625
EXTRACT: note_off channel=0 note=43 velocity=95 time=0.066371625
EXTRACT: note_on channel=0 note=43 velocity=95 time=0
EXTRACT: note_off channel=9 note=42 velocity=95 time=0
EXTRACT: note_off channel=9 note=38 velocity=95 time=0
EXTRACT: note_off channel=9 note=36 velocity=95 time=0
EXTRACT: note_on channel=9 note=42 velocity=95 time=0
EXTRACT: note_on channel=9 note=36 velocity=95 time=0
EXTRACT: note_off channel=2 note=73 velocity=127 time=0
EXTRACT: note_off channel=2 note=69 velocity=127 time=0
EXTRACT: note_off channel=2 note=64 velocity=95 time=0
EXTRACT: note_off channel=2 note=55 velocity=95 time=0
EXTRACT: note_off channel=2 note=43 velocity=95 time=0
EXTRACT: note_on channel=2 note=55 velocity=95 time=0
EXTRACT: note_on channel=2 note=43 velocity=95 time=0
EXTRACT: pitchwheel channel=12 pitch=256 time=0
EXTRACT: pitchwheel channel=12 pitch=384 time=0.066371625
EXTRACT: pitchwheel channel=12 pitch=512 time=0.066371625
EXTRACT: pitchwheel channel=12 pitch=512 time=0.066371625
EXTRACT: note_off channel=0 note=43 velocity=95 time=0.066371625
EXTRACT: note_on channel=0 note=43 velocity=95 time=0
EXTRACT: note_off channel=9 note=42 velocity=95 time=0
EXTRACT: note_off channel=9 note=36 velocity=95 time=0
EXTRACT: note_on channel=9 note=42 velocity=95 time=0
EXTRACT: note_on channel=9 note=38 velocity=95 time=0
EXTRACT: note_on channel=9 note=36 velocity=95 time=0
EXTRACT: note_off channel=2 note=55 velocity=95 time=0
EXTRACT: note_off channel=2 note=43 velocity=95 time=0
EXTRACT: note_on channel=2 note=55 velocity=95 time=0
EXTRACT: note_on channel=2 note=43 velocity=95 time=0
EXTRACT: pitchwheel channel=12 pitch=640 time=0
EXTRACT: pitchwheel channel=12 pitch=768 time=0.066371625
EXTRACT: pitchwheel channel=12 pitch=768 time=0.066371625
EXTRACT: pitchwheel channel=12 pitch=896 time=0.066371625
EXTRACT: note_off channel=0 note=43 velocity=95 time=0.066371625
EXTRACT: note_on channel=0 note=43 velocity=95 time=0
EXTRACT: note_off channel=9 note=42 velocity=95 time=0
EXTRACT: note_off channel=9 note=38 velocity=95 time=0
EXTRACT: note_off channel=9 note=36 velocity=95 time=0
EXTRACT: note_on channel=9 note=42 velocity=95 time=0
EXTRACT: note_on channel=9 note=36 velocity=95 time=0
EXTRACT: note_off channel=2 note=55 velocity=95 time=0
EXTRACT: note_off channel=2 note=43 velocity=95 time=0
EXTRACT: note_on channel=2 note=73 velocity=127 time=0
EXTRACT: note_on channel=2 note=69 velocity=127 time=0
EXTRACT: note_on channel=2 note=64 velocity=95 time=0
EXTRACT: note_on channel=2 note=55 velocity=95 time=0
EXTRACT: note_on channel=2 note=43 velocity=95 time=0
EXTRACT: note_off channel=4 note=67 velocity=95 time=0
EXTRACT: note_off channel=4 note=61 velocity=95 time=0
EXTRACT: note_off channel=4 note=57 velocity=95 time=0
EXTRACT: note_off channel=4 note=52 velocity=95 time=0
EXTRACT: note_off channel=4 note=43 velocity=95 time=0
EXTRACT: note_on channel=4 note=61 velocity=95 time=0
EXTRACT: pitchwheel channel=12 pitch=1024 time=0
EXTRACT: pitchwheel channel=12 pitch=1024 time=0.066371625
EXTRACT: pitchwheel channel=12 pitch=1152 time=0.066371625
EXTRACT: pitchwheel channel=12 pitch=1280 time=0.066371625
EXTRACT: note_off channel=0 note=43 velocity=95 time=0.066371625
EXTRACT: note_on channel=0 note=43 velocity=95 time=0
EXTRACT: note_off channel=9 note=42 velocity=95 time=0
EXTRACT: note_off channel=9 note=36 velocity=95 time=0
EXTRACT: note_on channel=9 note=42 velocity=95 time=0
EXTRACT: note_on channel=9 note=38 velocity=95 time=0
EXTRACT: note_on channel=9 note=36 velocity=95 time=0
EXTRACT: note_off channel=2 note=73 velocity=127 time=0
EXTRACT: note_off channel=2 note=69 velocity=127 time=0
EXTRACT: note_off channel=2 note=64 velocity=95 time=0
EXTRACT: note_off channel=2 note=55 velocity=95 time=0
EXTRACT: note_off channel=2 note=43 velocity=95 time=0
EXTRACT: note_on channel=2 note=69 velocity=111 time=0
EXTRACT: note_on channel=2 note=64 velocity=47 time=0
EXTRACT: note_on channel=2 note=55 velocity=95 time=0
EXTRACT: note_on channel=2 note=43 velocity=95 time=0
EXTRACT: note_off channel=4 note=61 velocity=95 time=0
EXTRACT: note_on channel=4 note=64 velocity=95 time=0
EXTRACT: note_on channel=4 note=61 velocity=95 time=0
EXTRACT: pitchwheel channel=12 pitch=1408 time=0
EXTRACT: pitchwheel channel=12 pitch=0 time=0
EXTRACT: note_off channel=12 note=62 velocity=95 time=0
EXTRACT: note_on channel=12 note=64 velocity=95 time=0
EXTRACT: pitchwheel channel=12 pitch=128 time=0.066371625
EXTRACT: pitchwheel channel=12 pitch=384 time=0.066371625
EXTRACT: pitchwheel channel=12 pitch=640 time=0.066371625
EXTRACT: note_off channel=0 note=43 velocity=95 time=0.066371625
EXTRACT: note_on channel=0 note=43 velocity=95 time=0
EXTRACT: note_off channel=9 note=42 velocity=95 time=0
EXTRACT: note_off channel=9 note=38 velocity=95 time=0
EXTRACT: note_off channel=9 note=36 velocity=95 time=0
EXTRACT: note_on channel=9 note=42 velocity=95 time=0
EXTRACT: note_on channel=9 note=36 velocity=95 time=0
EXTRACT: note_off channel=2 note=69 velocity=111 time=0
EXTRACT: note_off channel=2 note=64 velocity=47 time=0
EXTRACT: note_off channel=2 note=55 velocity=95 time=0
EXTRACT: note_off channel=2 note=43 velocity=95 time=0
EXTRACT: note_on channel=2 note=55 velocity=95 time=0
EXTRACT: note_on channel=2 note=43 velocity=95 time=0
EXTRACT: note_off channel=4 note=64 velocity=95 time=0
EXTRACT: note_on channel=4 note=69 velocity=95 time=0
EXTRACT: pitchwheel channel=12 pitch=768 time=0
EXTRACT: pitchwheel channel=12 pitch=1024 time=0.066371625
EXTRACT: pitchwheel channel=12 pitch=1280 time=0.066371625
EXTRACT: pitchwheel channel=12 pitch=1536 time=0.066371625
EXTRACT: note_off channel=0 note=43 velocity=95 time=0.066371625
EXTRACT: note_on channel=0 note=38 velocity=95 time=0
EXTRACT: note_off channel=9 note=42 velocity=95 time=0
EXTRACT: note_off channel=9 note=36 velocity=95 time=0
EXTRACT: note_on channel=9 note=38 velocity=95 time=0
EXTRACT: note_off channel=2 note=55 velocity=95 time=0
EXTRACT: note_off channel=2 note=43 velocity=95 time=0
EXTRACT: note_on channel=2 note=55 velocity=95 time=0
EXTRACT: note_on channel=2 note=43 velocity=95 time=0
EXTRACT: note_off channel=4 note=61 velocity=95 time=0
EXTRACT: note_on channel=4 note=61 velocity=95 time=0
EXTRACT: note_on channel=8 note=79 velocity=127 time=0
EXTRACT: note_on channel=8 note=74 velocity=127 time=0
EXTRACT: pitchwheel channel=12 pitch=1664 time=0
EXTRACT: pitchwheel channel=12 pitch=1920 time=0.066371625
EXTRACT: pitchwheel channel=12 pitch=2176 time=0.066371625
EXTRACT: pitchwheel channel=12 pitch=2304 time=0.066371625
EXTRACT: note_on channel=1 note=57 velocity=95 time=0.066371625
EXTRACT: note_off channel=9 note=38 velocity=95 time=0
EXTRACT: note_on channel=9 note=36 velocity=95 time=0
EXTRACT: note_off channel=2 note=55 velocity=95 time=0
EXTRACT: note_off channel=2 note=43 velocity=95 time=0
EXTRACT: note_on channel=2 note=55 velocity=95 time=0
EXTRACT: note_on channel=2 note=43 velocity=95 time=0
EXTRACT: pitchwheel channel=12 pitch=2560 time=0
EXTRACT: pitchwheel channel=12 pitch=2816 time=0.066371625
EXTRACT: note_off channel=1 note=57 velocity=95 time=0.066371625
EXTRACT: note_on channel=1 note=59 velocity=95 time=0
EXTRACT: pitchwheel channel=12 pitch=3072 time=0
EXTRACT: pitchwheel channel=12 pitch=3200 time=0.066371625
EXTRACT: note_off channel=1 note=59 velocity=95 time=0.066371625
EXTRACT: note_on channel=1 note=57 velocity=95 time=0
EXTRACT: note_off channel=0 note=38 velocity=95 time=0
EXTRACT: note_on channel=0 note=30 velocity=95 time=0
EXTRACT: note_off channel=9 note=36 velocity=95 time=0
EXTRACT: note_on channel=9 note=49 velocity=95 time=0
EXTRACT: note_on channel=9 note=36 velocity=95 time=0
EXTRACT: note_off channel=2 note=55 velocity=95 time=0
EXTRACT: note_off channel=2 note=43 velocity=95 time=0
EXTRACT: note_on channel=2 note=69 velocity=127 time=0
EXTRACT: note_on channel=2 note=66 velocity=127 time=0
EXTRACT: note_on channel=2 note=62 velocity=95 time=0
EXTRACT: note_on channel=2 note=54 velocity=95 time=0
EXTRACT: note_on channel=2 note=42 velocity=95 time=0
EXTRACT: note_off channel=4 note=69 velocity=95 time=0
EXTRACT: note_off channel=4 note=61 velocity=95 time=0
EXTRACT: note_on channel=4 note=57 velocity=95 time=0
EXTRACT: note_off channel=6 note=64 velocity=95 time=0
EXTRACT: note_off channel=6 note=61 velocity=95 time=0
EXTRACT: note_off channel=6 note=57 velocity=95 time=0
EXTRACT: note_off channel=6 note=52 velocity=95 time=0
EXTRACT: note_off channel=6 note=43 velocity=95 time=0
EXTRACT: note_on channel=6 note=50 velocity=95 time=0
EXTRACT: note_off channel=8 note=79 velocity=127 time=0
EXTRACT: note_off channel=8 note=74 velocity=127 time=0
EXTRACT: note_on channel=8 note=81 velocity=127 time=0
EXTRACT: note_on channel=8 note=74 velocity=127 time=0
EXTRACT: pitchwheel channel=12 pitch=3456 time=0
EXTRACT: pitchwheel channel=12 pitch=0 time=0
EXTRACT: note_off channel=12 note=64 velocity=95 time=0
EXTRACT: note_on channel=12 note=69 velocity=95 time=0
EXTRACT: pitchwheel channel=12 pitch=0 time=0.066371625
EXTRACT: pitchwheel channel=12 pitch=0 time=0.066371625
EXTRACT: pitchwheel channel=12 pitch=0 time=0.066371625
EXTRACT: note_off channel=1 note=57 velocity=95 time=0.066371625
EXTRACT: note_on channel=4 note=62 velocity=95 time=0
EXTRACT: note_off channel=6 note=50 velocity=95 time=0
EXTRACT: note_on channel=6 note=57 velocity=95 time=0
EXTRACT: pitchwheel channel=12 pitch=0 time=0
EXTRACT: pitchwheel channel=12 pitch=0 time=0.066371625
EXTRACT: pitchwheel channel=12 pitch=0 time=0.066371625
EXTRACT: pitchwheel channel=12 pitch=0 time=0.066371625
EXTRACT: note_off channel=9 note=49 velocity=95 time=0.066371625
EXTRACT: note_off channel=9 note=36 velocity=95 time=0
EXTRACT: note_off channel=4 note=62 velocity=95 time=0
EXTRACT: note_on channel=4 note=64 velocity=95 time=0
EXTRACT: note_off channel=6 note=57 velocity=95 time=0
EXTRACT: note_on channel=6 note=50 velocity=95 time=0
EXTRACT: pitchwheel channel=12 pitch=0 time=0
EXTRACT: pitchwheel channel=12 pitch=0 time=0.066371625
EXTRACT: pitchwheel channel=12 pitch=0 time=0.066371625
EXTRACT: pitchwheel channel=12 pitch=0 time=0.066371625
EXTRACT: note_on channel=1 note=62 velocity=95 time=0.066371625
EXTRACT: note_on channel=9 note=42 velocity=95 time=0
EXTRACT: note_on channel=9 note=38 velocity=95 time=0
EXTRACT: note_off channel=4 note=64 velocity=95 time=0
EXTRACT: note_on channel=4 note=62 velocity=95 time=0
EXTRACT: note_on channel=6 note=62 velocity=95 time=0
EXTRACT: pitchwheel channel=12 pitch=0 time=0
EXTRACT: pitchwheel channel=12 pitch=0 time=0.066371625
EXTRACT: pitchwheel channel=12 pitch=0 time=0.066371625
EXTRACT: pitchwheel channel=12 pitch=0 time=0.066371625
EXTRACT: note_off channel=1 note=62 velocity=95 time=0.066371625
EXTRACT: note_off channel=9 note=42 velocity=95 time=0
EXTRACT: note_off channel=9 note=38 velocity=95 time=0
EXTRACT: note_on channel=9 note=42 velocity=95 time=0
EXTRACT: pitchwheel channel=12 pitch=0 time=0
EXTRACT: pitchwheel channel=12 pitch=0 time=0
EXTRACT: note_on channel=1 note=57 velocity=95 time=0.2654865
EXTRACT: note_off channel=9 note=42 velocity=95 time=0
EXTRACT: note_on channel=9 note=42 velocity=95 time=0
EXTRACT: note_off channel=4 note=62 velocity=95 time=0
EXTRACT: note_on channel=4 note=61 velocity=95 time=0
EXTRACT: note_off channel=6 note=62 velocity=95 time=0
EXTRACT: note_on channel=6 note=61 velocity=95 time=0
EXTRACT: note_off channel=1 note=57 velocity=95 time=0.2654865
EXTRACT: note_off channel=0 note=30 velocity=95 time=0
EXTRACT: note_off channel=9 note=42 velocity=95 time=0
EXTRACT: note_on channel=9 note=46 velocity=95 time=0
EXTRACT: note_on channel=9 note=38 velocity=95 time=0
EXTRACT: note_on channel=1 note=57 velocity=95 time=0.2654865
EXTRACT: note_off channel=1 note=57 velocity=95 time=0.13274325
EXTRACT: note_on channel=1 note=59 velocity=95 time=0
EXTRACT: note_off channel=1 note=59 velocity=95 time=0.13274325
EXTRACT: note_on channel=1 note=57 velocity=95 time=0
EXTRACT: note_on channel=0 note=31 velocity=95 time=0
EXTRACT: note_off channel=9 note=46 velocity=95 time=0
EXTRACT: note_off channel=9 note=38 velocity=95 time=0
EXTRACT: note_on channel=9 note=49 velocity=95 time=0
EXTRACT: note_on channel=9 note=36 velocity=95 time=0
EXTRACT: note_off channel=2 note=69 velocity=127 time=0
EXTRACT: note_off channel=2 note=66 velocity=127 time=0
EXTRACT: note_off channel=2 note=62 velocity=95 time=0
EXTRACT: note_off channel=2 note=54 velocity=95 time=0
EXTRACT: note_off channel=2 note=42 velocity=95 time=0
EXTRACT: note_on channel=2 note=71 velocity=127 time=0
EXTRACT: note_on channel=2 note=67 velocity=127 time=0
EXTRACT: note_on channel=2 note=62 velocity=95 time=0
EXTRACT: note_off channel=4 note=57 velocity=95 time=0
EXTRACT: note_off channel=4 note=61 velocity=95 time=0
EXTRACT: note_on channel=4 note=59 velocity=95 time=0
EXTRACT: note_off channel=6 note=50 velocity=95 time=0
EXTRACT: note_off channel=6 note=61 velocity=95 time=0
EXTRACT: note_on channel=6 note=67 velocity=95 time=0
EXTRACT: note_on channel=6 note=59 velocity=95 time=0
EXTRACT: note_on channel=6 note=55 velocity=95 time=0
EXTRACT: note_on channel=6 note=50 velocity=95 time=0
EXTRACT: note_on channel=6 note=43 velocity=95 time=0
EXTRACT: note_off channel=8 note=81 velocity=127 time=0
EXTRACT: note_off channel=8 note=74 velocity=127 time=0
EXTRACT: note_off channel=1 note=57 velocity=95 time=0.2654865
EXTRACT: note_off channel=9 note=49 velocity=95 time=0.2654865
EXTRACT: note_off channel=9 note=36 velocity=95 time=0
EXTRACT: note_on channel=1 note=64 velocity=95 time=0.2654865
EXTRACT: note_off channel=0 note=31 velocity=95 time=0
EXTRACT: note_on channel=0 note=33 velocity=95 time=0
EXTRACT: note_on channel=9 note=49 velocity=95 time=0
EXTRACT: note_on channel=9 note=36 velocity=95 time=0
EXTRACT: note_off channel=2 note=71 velocity=127 time=0
EXTRACT: note_off channel=2 note=67 velocity=127 time=0
EXTRACT: note_off channel=2 note=62 velocity=95 time=0
EXTRACT: note_on channel=2 note=73 velocity=127 time=0
EXTRACT: note_on channel=2 note=69 velocity=127 time=0
EXTRACT: note_on channel=2 note=64 velocity=95 time=0
EXTRACT: note_on channel=2 note=57 velocity=95 time=0
EXTRACT: note_off channel=4 note=59 velocity=95 time=0
EXTRACT: note_on channel=4 note=57 velocity=95 time=0
EXTRACT: note_off channel=6 note=67 velocity=95 time=0
EXTRACT: note_off channel=6 note=59 velocity=95 time=0
EXTRACT: note_off channel=6 note=55 velocity=95 time=0
EXTRACT: note_off channel=6 note=50 velocity=95 time=0
EXTRACT: note_off channel=6 note=43 velocity=95 time=0
EXTRACT: note_on channel=6 note=67 velocity=95 time=0
EXTRACT: note_on channel=6 note=61 velocity=95 time=0
EXTRACT: note_on channel=6 note=57 velocity=95 time=0
EXTRACT: note_on channel=6 note=52 velocity=95 time=0
EXTRACT: note_on channel=6 note=45 velocity=95 time=0
EXTRACT: note_off channel=1 note=64 velocity=95 time=0.2654865
EXTRACT: note_off channel=9 note=49 velocity=95 time=0
EXTRACT: note_off channel=9 note=36 velocity=95 time=0
EXTRACT: note_on channel=9 note=70 velocity=95 time=0
EXTRACT: note_off channel=2 note=73 velocity=127 time=0
EXTRACT: note_off channel=2 note=69 velocity=127 time=0
EXTRACT: note_off channel=2 note=64 velocity=95 time=0
EXTRACT: note_off channel=2 note=57 velocity=95 time=0
EXTRACT: note_off channel=4 note=57 velocity=95 time=0
EXTRACT: note_off channel=12 note=69 velocity=95 time=0
EXTRACT: note_off channel=9 note=70 velocity=95 time=0.1363635
EXTRACT: note_on channel=9 note=39 velocity=95 time=0.4090905
EXTRACT: note_off channel=9 note=39 velocity=95 time=0.1363635
EXTRACT: note_on channel=9 note=70 velocity=95 time=0.4090905
EXTRACT: note_off channel=9 note=70 velocity=95 time=0.1363635
EXTRACT: note_off channel=0 note=33 velocity=95 time=0.1363635
EXTRACT: note_on channel=9 note=39 velocity=95 time=0.272727
EXTRACT: note_off channel=9 note=39 velocity=95 time=0.1363635
EXTRACT: note_on channel=1 note=67 velocity=95 time=0.1363635
EXTRACT: note_on channel=11 note=67 velocity=95 time=0
EXTRACT: note_off channel=1 note=67 velocity=95 time=0.1363635
EXTRACT: note_on channel=1 note=64 velocity=95 time=0
EXTRACT: note_off channel=11 note=67 velocity=95 time=0
EXTRACT: note_on channel=11 note=64 velocity=95 time=0
EXTRACT: note_off channel=1 note=64 velocity=95 time=0.1363635
EXTRACT: note_on channel=1 note=67 velocity=95 time=0
EXTRACT: note_on channel=0 note=43 velocity=95 time=0
EXTRACT: note_on channel=9 note=70 velocity=95 time=0
EXTRACT: note_on channel=2 note=67 velocity=127 time=0
EXTRACT: note_on channel=2 note=62 velocity=127 time=0
EXTRACT: note_on channel=2 note=59 velocity=95 time=0
EXTRACT: note_off channel=6 note=67 velocity=95 time=0
EXTRACT: note_off channel=6 note=61 velocity=95 time=0
EXTRACT: note_off channel=6 note=57 velocity=95 time=0
EXTRACT: note_off channel=6 note=52 velocity=95 time=0
EXTRACT: note_off channel=6 note=45 velocity=95 time=0
EXTRACT: note_off channel=11 note=64 velocity=95 time=0
EXTRACT: note_on channel=11 note=67 velocity=95 time=0
EXTRACT: note_on channel=15 note=71 velocity=95 time=0
EXTRACT: note_on channel=15 note=67 velocity=95 time=0
EXTRACT: note_on channel=15 note=62 velocity=95 time=0
EXTRACT: note_off channel=9 note=70 velocity=95 time=0.1363635
EXTRACT: note_off channel=1 note=67 velocity=95 time=0.1363635
EXTRACT: note_off channel=11 note=67 velocity=95 time=0
EXTRACT: note_on channel=9 note=39 velocity=95 time=0.272727
EXTRACT: note_off channel=9 note=39 velocity=95 time=0.1363635
EXTRACT: note_on channel=1 note=67 velocity=95 time=0.1363635
EXTRACT: note_on channel=11 note=67 velocity=95 time=0
EXTRACT: note_off channel=1 note=67 velocity=95 time=0.1363635
EXTRACT: note_on channel=1 note=64 velocity=95 time=0
EXTRACT: note_off channel=11 note=67 velocity=95 time=0
EXTRACT: note_on channel=11 note=64 velocity=95 time=0
EXTRACT: note_off channel=1 note=64 velocity=95 time=0.1363635
EXTRACT: note_on channel=1 note=67 velocity=95 time=0
EXTRACT: note_on channel=9 note=70 velocity=95 time=0
EXTRACT: note_off channel=11 note=64 velocity=95 time=0
EXTRACT: note_on channel=11 note=67 velocity=95 time=0
EXTRACT: note_off channel=9 note=70 velocity=95 time=0.1363635
EXTRACT: note_off channel=1 note=67 velocity=95 time=0.1363635
EXTRACT: note_off channel=11 note=67 velocity=95 time=0
EXTRACT: note_off channel=0 note=43 velocity=95 time=0.272727
EXTRACT: note_on channel=9 note=39 velocity=95 time=0
EXTRACT: note_off channel=9 note=39 velocity=95 time=0.1363635
EXTRACT: note_on channel=1 note=67 velocity=95 time=0.1363635
EXTRACT: note_on channel=11 note=67 velocity=95 time=0
EXTRACT: note_off channel=1 note=67 velocity=95 time=0.1363635
EXTRACT: note_on channel=1 note=64 velocity=95 time=0
EXTRACT: note_off channel=11 note=67 velocity=95 time=0
EXTRACT: note_on channel=11 note=64 velocity=95 time=0
EXTRACT: note_off channel=1 note=64 velocity=95 time=0.1363635
EXTRACT: note_on channel=1 note=64 velocity=95 time=0
EXTRACT: note_on channel=9 note=70 velocity=95 time=0
EXTRACT: note_off channel=2 note=67 velocity=127 time=0
EXTRACT: note_off channel=2 note=62 velocity=127 time=0
EXTRACT: note_off channel=2 note=59 velocity=95 time=0
EXTRACT: note_on channel=2 note=67 velocity=127 time=0
EXTRACT: note_on channel=2 note=64 velocity=127 time=0
EXTRACT: note_on channel=2 note=60 velocity=95 time=0
EXTRACT: note_off channel=11 note=64 velocity=95 time=0
EXTRACT: note_on channel=11 note=64 velocity=95 time=0
EXTRACT: note_off channel=15 note=71 velocity=95 time=0
EXTRACT: note_off channel=15 note=67 velocity=95 time=0
EXTRACT: note_off channel=15 note=62 velocity=95 time=0
EXTRACT: note_on channel=15 note=72 velocity=95 time=0
EXTRACT: note_on channel=15 note=67 velocity=95 time=0
EXTRACT: note_on channel=15 note=64 velocity=95 time=0
EXTRACT: note_off channel=1 note=64 velocity=95 time=0.1363635
EXTRACT: note_on channel=1 note=69 velocity=95 time=0
EXTRACT: note_off channel=9 note=70 velocity=95 time=0
EXTRACT: note_off channel=11 note=64 velocity=95 time=0
EXTRACT: note_on channel=12 note=69 velocity=95 time=0
EXTRACT: pitchwheel channel=1 pitch=128 time=0.06818175
EXTRACT: pitchwheel channel=12 pitch=128 time=0
EXTRACT: pitchwheel channel=1 pitch=256 time=0.06818175
EXTRACT: pitchwheel channel=12 pitch=256 time=0
EXTRACT: pitchwheel channel=1 pitch=512 time=0.06818175
EXTRACT: pitchwheel channel=12 pitch=512 time=0
EXTRACT: pitchwheel channel=1 pitch=640 time=0.06818175
EXTRACT: pitchwheel channel=12 pitch=640 time=0
EXTRACT: pitchwheel channel=1 pitch=768 time=0.06818175
EXTRACT: pitchwheel channel=12 pitch=768 time=0
EXTRACT: pitchwheel channel=1 pitch=1024 time=0.06818175
EXTRACT: note_on channel=9 note=39 velocity=95 time=0
EXTRACT: note_on channel=6 note=67 velocity=95 time=0
EXTRACT: pitchwheel channel=12 pitch=1024 time=0
EXTRACT: pitchwheel channel=1 pitch=1152 time=0.06818175
EXTRACT: pitchwheel channel=12 pitch=1152 time=0
EXTRACT: pitchwheel channel=1 pitch=1408 time=0.06818175
EXTRACT: pitchwheel channel=1 pitch=0 time=0
EXTRACT: note_off channel=1 note=69 velocity=95 time=0
EXTRACT: note_on channel=1 note=71 velocity=95 time=0
EXTRACT: note_off channel=9 note=39 velocity=95 time=0
EXTRACT: pitchwheel channel=12 pitch=1408 time=0
EXTRACT: pitchwheel channel=12 pitch=0 time=0
EXTRACT: note_off channel=12 note=69 velocity=95 time=0
EXTRACT: note_on channel=12 note=71 velocity=95 time=0
EXTRACT: note_on channel=9 note=70 velocity=95 time=0.4090905
EXTRACT: note_on channel=6 note=64 velocity=95 time=0
EXTRACT: note_off channel=1 note=71 velocity=95 time=0.1363635
EXTRACT: note_off channel=9 note=70 velocity=95 time=0
EXTRACT: note_off channel=12 note=71 velocity=95 time=0
EXTRACT: note_off channel=6 note=64 velocity=95 time=0.1363635
EXTRACT: note_on channel=6 note=60 velocity=95 time=0
EXTRACT: note_on channel=9 note=39 velocity=95 time=0.272727
EXTRACT: note_off channel=6 note=60 velocity=95 time=0
EXTRACT: note_on channel=6 note=55 velocity=95 time=0
EXTRACT: note_off channel=9 note=39 velocity=95 time=0.1363635
EXTRACT: note_off channel=6 note=55 velocity=95 time=0.1363635
EXTRACT: note_on channel=6 note=64 velocity=95 time=0
EXTRACT: note_on channel=9 note=70 velocity=95 time=0.272727
EXTRACT: note_off channel=2 note=67 velocity=127 time=0
EXTRACT: note_off channel=2 note=64 velocity=127 time=0
EXTRACT: note_off channel=2 note=60 velocity=95 time=0
EXTRACT: note_on channel=2 note=67 velocity=127 time=0
EXTRACT: note_on channel=2 note=62 velocity=127 time=0
EXTRACT: note_on channel=2 note=59 velocity=95 time=0
EXTRACT: note_off channel=6 note=67 velocity=95 time=0
EXTRACT: note_off channel=6 note=64 velocity=95 time=0
EXTRACT: note_off channel=15 note=72 velocity=95 time=0
EXTRACT: note_off channel=15 note=67 velocity=95 time=0
EXTRACT: note_off channel=15 note=64 velocity=95 time=0
EXTRACT: note_on channel=15 note=71 velocity=95 time=0
EXTRACT: note_on channel=15 note=67 velocity=95 time=0
EXTRACT: note_on channel=15 note=62 velocity=95 time=0
EXTRACT: note_off channel=9 note=70 velocity=95 time=0.1363635
EXTRACT: note_on channel=1 note=67 velocity=95 time=0.272727
EXTRACT: note_on channel=11 note=67 velocity=95 time=0
EXTRACT: note_off channel=1 note=67 velocity=95 time=0.1363635
EXTRACT: note_on channel=1 note=67 velocity=95 time=0
EXTRACT: note_on channel=9 note=39 velocity=95 time=0
EXTRACT: note_on channel=6 note=67 velocity=95 time=0
EXTRACT: note_off channel=11 note=67 velocity=95 time=0
EXTRACT: note_on channel=11 note=67 velocity=95 time=0
EXTRACT: note_off channel=1 note=67 velocity=95 time=0.1363635
EXTRACT: note_on channel=1 note=64 velocity=95 time=0
EXTRACT: note_off channel=9 note=39 velocity=95 time=0
EXTRACT: note_off channel=11 note=67 velocity=95 time=0
EXTRACT: note_on channel=11 note=64 velocity=95 time=0
EXTRACT: note_off channel=1 note=64 velocity=95 time=0.1363635
EXTRACT: note_on channel=1 note=67 velocity=95 time=0
EXTRACT: note_off channel=11 note=64 velocity=95 time=0
EXTRACT: note_on channel=11 note=67 velocity=95 time=0
EXTRACT: note_off channel=1 note=67 velocity=95 time=0.272727
EXTRACT: note_on channel=9 note=70 velocity=95 time=0
EXTRACT: note_off channel=6 note=67 velocity=95 time=0
EXTRACT: note_off channel=11 note=67 velocity=95 time=0
EXTRACT: note_off channel=9 note=70 velocity=95 time=0.1363635
EXTRACT: note_on channel=9 note=39 velocity=95 time=0.4090905
EXTRACT: note_on channel=6 note=67 velocity=95 time=0
EXTRACT: note_on channel=1 note=64 velocity=95 time=0.1363635
EXTRACT: note_off channel=9 note=39 velocity=95 time=0
EXTRACT: note_on channel=11 note=64 velocity=95 time=0
EXTRACT: note_off channel=1 note=64 velocity=95 time=0.1363635
EXTRACT: note_on channel=1 note=67 velocity=95 time=0
EXTRACT: note_off channel=11 note=64 velocity=95 time=0
EXTRACT: note_on channel=11 note=67 velocity=95 time=0
EXTRACT: note_off channel=1 note=67 velocity=95 time=0.272727
EXTRACT: note_on channel=1 note=69 velocity=95 time=0
EXTRACT: note_on channel=9 note=70 velocity=95 time=0
EXTRACT: note_off channel=2 note=67 velocity=127 time=0
EXTRACT: note_off channel=2 note=62 velocity=127 time=0
EXTRACT: note_off channel=2 note=59 velocity=95 time=0
EXTRACT: note_on channel=2 note=67 velocity=127 time=0
EXTRACT: note_on channel=2 note=64 velocity=127 time=0
EXTRACT: note_on channel=2 note=60 velocity=95 time=0
EXTRACT: note_off channel=6 note=67 velocity=95 time=0
EXTRACT: note_off channel=11 note=67 velocity=95 time=0
EXTRACT: note_on channel=12 note=69 velocity=95 time=0
EXTRACT: note_off channel=15 note=71 velocity=95 time=0
EXTRACT: note_off channel=15 note=67 velocity=95 time=0
EXTRACT: note_off channel=15 note=62 velocity=95 time=0
EXTRACT: note_on channel=15 note=72 velocity=95 time=0
EXTRACT: note_on channel=15 note=67 velocity=95 time=0
EXTRACT: note_on channel=15 note=64 velocity=95 time=0
EXTRACT: pitchwheel channel=1 pitch=128 time=0.06818175
EXTRACT: pitchwheel channel=12 pitch=128 time=0
EXTRACT: pitchwheel channel=1 pitch=256 time=0.06818175
EXTRACT: note_off channel=9 note=70 velocity=95 time=0
EXTRACT: pitchwheel channel=12 pitch=256 time=0
EXTRACT: pitchwheel channel=1 pitch=512 time=0.06818175
EXTRACT: pitchwheel channel=12 pitch=512 time=0
EXTRACT: pitchwheel channel=1 pitch=640 time=0.06818175
EXTRACT: pitchwheel channel=12 pitch=640 time=0
EXTRACT: pitchwheel channel=1 pitch=768 time=0.06818175
EXTRACT: pitchwheel channel=12 pitch=768 time=0
EXTRACT: pitchwheel channel=1 pitch=1024 time=0.06818175
EXTRACT: pitchwheel channel=12 pitch=1024 time=0
EXTRACT: pitchwheel channel=1 pitch=1152 time=0.06818175
EXTRACT: pitchwheel channel=12 pitch=1152 time=0
EXTRACT: pitchwheel channel=1 pitch=1408 time=0.06818175
EXTRACT: pitchwheel channel=1 pitch=0 time=0
EXTRACT: note_off channel=1 note=69 velocity=95 time=0
EXTRACT: note_on channel=1 note=71 velocity=95 time=0
EXTRACT: note_on channel=9 note=39 velocity=95 time=0
EXTRACT: note_on channel=6 note=67 velocity=95 time=0
EXTRACT: pitchwheel channel=12 pitch=1408 time=0
EXTRACT: pitchwheel channel=12 pitch=0 time=0
EXTRACT: note_off channel=12 note=69 velocity=95 time=0
EXTRACT: note_on channel=12 note=71 velocity=95 time=0
EXTRACT: note_off channel=9 note=39 velocity=95 time=0.1363635
EXTRACT: note_off channel=1 note=71 velocity=95 time=0.1363635
EXTRACT: note_off channel=12 note=71 velocity=95 time=0
EXTRACT: note_on channel=9 note=70 velocity=95 time=0.272727
EXTRACT: note_off channel=6 note=67 velocity=95 time=0
EXTRACT: note_off channel=9 note=70 velocity=95 time=0.1363635
EXTRACT: note_on channel=9 note=39 velocity=95 time=0.4090905
EXTRACT: note_on channel=6 note=67 velocity=95 time=0
EXTRACT: note_off channel=9 note=39 velocity=95 time=0.1363635
EXTRACT: note_on channel=1 note=57 velocity=95 time=0.1363635
EXTRACT: note_off channel=1 note=57 velocity=95 time=0
EXTRACT: note_on channel=1 note=59 velocity=95 time=0
EXTRACT: note_on channel=0 note=55 velocity=95 time=0
EXTRACT: note_on channel=9 note=70 velocity=95 time=0
EXTRACT: note_off channel=2 note=67 velocity=127 time=0
EXTRACT: note_off channel=2 note=64 velocity=127 time=0
EXTRACT: note_off channel=2 note=60 velocity=95 time=0
EXTRACT: note_on channel=2 note=67 velocity=127 time=0
EXTRACT: note_on channel=2 note=62 velocity=127 time=0
EXTRACT: note_on channel=2 note=59 velocity=95 time=0
EXTRACT: note_off channel=6 note=67 velocity=95 time=0
EXTRACT: note_off channel=15 note=72 velocity=95 time=0
EXTRACT: note_off channel=15 note=67 velocity=95 time=0
EXTRACT: note_off channel=15 note=64 velocity=95 time=0
EXTRACT: note_on channel=15 note=71 velocity=95 time=0
EXTRACT: note_on channel=15 note=67 velocity=95 time=0
EXTRACT: note_on channel=15 note=62 velocity=95 time=0
EXTRACT: note_off channel=9 note=70 velocity=95 time=0.14150925
EXTRACT: note_off channel=1 note=59 velocity=95 time=0.14150925
EXTRACT: note_on channel=1 note=59 velocity=95 time=0
EXTRACT: note_off channel=1 note=59 velocity=95 time=0.2830185
EXTRACT: note_on channel=1 note=59 velocity=95 time=0
EXTRACT: note_on channel=9 note=39 velocity=95 time=0
EXTRACT: note_on channel=6 note=67 velocity=95 time=0
EXTRACT: note_off channel=9 note=39 velocity=95 time=0.14150925
EXTRACT: note_off channel=1 note=59 velocity=95 time=0.14150925
EXTRACT: note_on channel=1 note=57 velocity=95 time=0
EXTRACT: note_on channel=4 note=67 velocity=95 time=0
EXTRACT: note_off channel=1 note=57 velocity=95 time=0.2830185
EXTRACT: note_on channel=1 note=60 velocity=95 time=0
EXTRACT: note_on channel=9 note=70 velocity=95 time=0
EXTRACT: note_on channel=4 note=64 velocity=95 time=0
EXTRACT: note_off channel=6 note=67 velocity=95 time=0
EXTRACT: note_off channel=9 note=70 velocity=95 time=0.14150925
EXTRACT: note_off channel=1 note=60 velocity=95 time=0.14150925
EXTRACT: note_on channel=1 note=59 velocity=95 time=0
EXTRACT: note_off channel=4 note=64 velocity=95 time=0
EXTRACT: note_on channel=4 note=62 velocity=95 time=0
EXTRACT: note_off channel=1 note=59 velocity=95 time=0.2830185
EXTRACT: note_on channel=1 note=57 velocity=95 time=0
EXTRACT: note_on channel=9 note=39 velocity=95 time=0
EXTRACT: note_off channel=4 note=62 velocity=95 time=0
EXTRACT: note_on channel=4 note=59 velocity=95 time=0
EXTRACT: note_on channel=6 note=67 velocity=95 time=0
EXTRACT: note_off channel=9 note=39 velocity=95 time=0.14150925
EXTRACT: note_off channel=1 note=57 velocity=95 time=0.14150925
EXTRACT: note_on channel=1 note=55 velocity=95 time=0
EXTRACT: note_off channel=4 note=59 velocity=95 time=0
EXTRACT: note_on channel=4 note=57 velocity=95 time=0
EXTRACT: note_off channel=1 note=55 velocity=95 time=0
EXTRACT: note_on channel=1 note=57 velocity=95 time=0
EXTRACT: note_off channel=0 note=55 velocity=95 time=0
EXTRACT: note_on channel=9 note=70 velocity=95 time=0
EXTRACT: note_off channel=2 note=67 velocity=127 time=0
EXTRACT: note_off channel=2 note=62 velocity=127 time=0
EXTRACT: note_off channel=2 note=59 velocity=95 time=0
EXTRACT: note_on channel=2 note=67 velocity=127 time=0
EXTRACT: note_on channel=2 note=64 velocity=127 time=0
EXTRACT: note_on channel=2 note=60 velocity=95 time=0
EXTRACT: note_off channel=4 note=67 velocity=95 time=0
EXTRACT: note_off channel=4 note=57 velocity=95 time=0
EXTRACT: note_off channel=6 note=67 velocity=95 time=0
EXTRACT: note_off channel=15 note=71 velocity=95 time=0
EXTRACT: note_off channel=15 note=67 velocity=95 time=0
EXTRACT: note_off channel=15 note=62 velocity=95 time=0
EXTRACT: note_on channel=15 note=72 velocity=95 time=0
EXTRACT: note_on channel=15 note=67 velocity=95 time=0
EXTRACT: note_on channel=15 note=64 velocity=95 time=0
EXTRACT: note_off channel=9 note=70 velocity=95 time=0.13043475
EXTRACT: note_off channel=1 note=57 velocity=95 time=0.39130424999999996
EXTRACT: note_on channel=1 note=57 velocity=95 time=0
EXTRACT: note_on channel=9 note=39 velocity=95 time=0
EXTRACT: note_on channel=6 note=67 velocity=95 time=0
EXTRACT: note_off channel=9 note=39 velocity=95 time=0.13043475
EXTRACT: note_off channel=1 note=57 velocity=95 time=0.13043475
EXTRACT: note_on channel=1 note=59 velocity=95 time=0
EXTRACT: note_on channel=4 note=60 velocity=95 time=0
EXTRACT: note_on channel=9 note=70 velocity=95 time=0.2608695
EXTRACT: note_off channel=6 note=67 velocity=95 time=0
EXTRACT: note_on channel=11 note=69 velocity=95 time=0
EXTRACT: note_off channel=9 note=70 velocity=95 time=0.13043475
EXTRACT: note_off channel=1 note=59 velocity=95 time=0.13043475
EXTRACT: note_off channel=4 note=60 velocity=95 time=0
EXTRACT: note_on channel=4 note=57 velocity=95 time=0
EXTRACT: note_off channel=11 note=69 velocity=95 time=0
EXTRACT: note_on channel=11 note=67 velocity=95 time=0
EXTRACT: note_on channel=0 note=45 velocity=95 time=0.2608695
EXTRACT: note_on channel=9 note=39 velocity=95 time=0
EXTRACT: note_off channel=4 note=57 velocity=95 time=0
EXTRACT: note_on channel=4 note=55 velocity=95 time=0
EXTRACT: note_off channel=11 note=67 velocity=95 time=0
EXTRACT: note_on channel=11 note=64 velocity=95 time=0
EXTRACT: note_off channel=9 note=39 velocity=95 time=0.13043475
EXTRACT: note_off channel=11 note=64 velocity=95 time=0.043478249999999996
EXTRACT: note_on channel=11 note=62 velocity=95 time=0
EXTRACT: note_off channel=4 note=55 velocity=95 time=0.08695649999999999
EXTRACT: note_on channel=4 note=52 velocity=95 time=0
EXTRACT: note_off channel=11 note=62 velocity=95 time=0.08695649999999999
EXTRACT: note_on channel=11 note=64 velocity=95 time=0
EXTRACT: note_off channel=4 note=52 velocity=95 time=0.043478249999999996
EXTRACT: note_on channel=4 note=50 velocity=95 time=0
EXTRACT: note_off channel=0 note=45 velocity=95 time=0
EXTRACT: note_on channel=0 note=33 velocity=95 time=0
EXTRACT: note_on channel=9 note=46 velocity=95 time=0
EXTRACT: note_off channel=2 note=67 velocity=127 time=0
EXTRACT: note_off channel=2 note=64 velocity=127 time=0
EXTRACT: note_off channel=2 note=60 velocity=95 time=0
EXTRACT: note_on channel=2 note=69 velocity=95 time=0
EXTRACT: note_on channel=2 note=64 velocity=95 time=0
EXTRACT: note_on channel=2 note=60 velocity=95 time=0
EXTRACT: note_on channel=2 note=57 velocity=95 time=0
EXTRACT: note_on channel=2 note=45 velocity=95 time=0
EXTRACT: note_off channel=4 note=50 velocity=95 time=0
EXTRACT: note_on channel=4 note=45 velocity=95 time=0
EXTRACT: note_off channel=15 note=72 velocity=95 time=0
EXTRACT: note_off channel=15 note=67 velocity=95 time=0
EXTRACT: note_off channel=15 note=64 velocity=95 time=0
EXTRACT: note_off channel=9 note=46 velocity=95 time=0.13274325
EXTRACT: note_off channel=2 note=69 velocity=95 time=0.13274325
EXTRACT: note_off channel=2 note=64 velocity=95 time=0
EXTRACT: note_off channel=2 note=60 velocity=95 time=0
EXTRACT: note_off channel=2 note=57 velocity=95 time=0
EXTRACT: note_off channel=2 note=45 velocity=95 time=0
EXTRACT: note_on channel=2 note=57 velocity=95 time=0
EXTRACT: note_on channel=2 note=45 velocity=95 time=0
EXTRACT: note_on channel=4 note=52 velocity=95 time=0
EXTRACT: note_off channel=11 note=64 velocity=95 time=0
EXTRACT: note_on channel=9 note=46 velocity=95 time=0.2654865
EXTRACT: note_off channel=2 note=57 velocity=95 time=0
EXTRACT: note_off channel=2 note=45 velocity=95 time=0
EXTRACT: note_on channel=2 note=57 velocity=95 time=0
EXTRACT: note_on channel=2 note=45 velocity=95 time=0
EXTRACT: note_off channel=4 note=52 velocity=95 time=0
EXTRACT: note_on channel=4 note=64 velocity=95 time=0
EXTRACT: note_on channel=4 note=60 velocity=95 time=0
EXTRACT: note_on channel=4 note=57 velocity=95 time=0
EXTRACT: note_off channel=9 note=46 velocity=95 time=0.13274325
EXTRACT: note_off channel=0 note=33 velocity=95 time=0.13274325
EXTRACT: note_on channel=0 note=33 velocity=95 time=0
EXTRACT: note_off channel=2 note=57 velocity=95 time=0
EXTRACT: note_off channel=2 note=45 velocity=95 time=0
EXTRACT: note_on channel=2 note=69 velocity=95 time=0
EXTRACT: note_on channel=2 note=64 velocity=95 time=0
EXTRACT: note_on channel=2 note=60 velocity=95 time=0
EXTRACT: note_on channel=2 note=57 velocity=95 time=0
EXTRACT: note_on channel=2 note=45 velocity=95 time=0
EXTRACT: note_off channel=4 note=45 velocity=95 time=0
EXTRACT: note_off channel=4 note=64 velocity=95 time=0
EXTRACT: note_off channel=4 note=60 velocity=95 time=0
EXTRACT: note_off channel=4 note=57 velocity=95 time=0
EXTRACT: note_on channel=4 note=64 velocity=95 time=0
EXTRACT: note_on channel=4 note=60 velocity=95 time=0
EXTRACT: note_on channel=4 note=57 velocity=95 time=0
EXTRACT: note_on channel=4 note=52 velocity=95 time=0
EXTRACT: note_on channel=4 note=45 velocity=95 time=0
EXTRACT: note_on channel=11 note=64 velocity=95 time=0
EXTRACT: note_off channel=0 note=33 velocity=95 time=0.2654865
EXTRACT: note_on channel=0 note=33 velocity=95 time=0
EXTRACT: note_on channel=9 note=46 velocity=95 time=0
EXTRACT: note_off channel=2 note=69 velocity=95 time=0
EXTRACT: note_off channel=2 note=64 velocity=95 time=0
EXTRACT: note_off channel=2 note=60 velocity=95 time=0
EXTRACT: note_off channel=2 note=57 velocity=95 time=0
EXTRACT: note_off channel=2 note=45 velocity=95 time=0
EXTRACT: note_on channel=2 note=57 velocity=95 time=0
EXTRACT: note_on channel=2 note=45 velocity=95 time=0
EXTRACT: note_off channel=11 note=64 velocity=95 time=0
EXTRACT: pitchwheel channel=12 pitch=0 time=0
EXTRACT: note_on channel=12 note=65 velocity=95 time=0
EXTRACT: pitchwheel channel=12 pitch=128 time=0.05309730000000001
EXTRACT: pitchwheel channel=12 pitch=256 time=0.05309730000000001
EXTRACT: note_off channel=9 note=46 velocity=95 time=0.026548650000000003
EXTRACT: pitchwheel channel=12 pitch=384 time=0.026548650000000003
EXTRACT: pitchwheel channel=12 pitch=512 time=0.05309730000000001
EXTRACT: note_off channel=0 note=33 velocity=95 time=0.05309730000000001
EXTRACT: note_on channel=0 note=33 velocity=95 time=0
EXTRACT: note_off channel=2 note=57 velocity=95 time=0
EXTRACT: note_off channel=2 note=45 velocity=95 time=0
EXTRACT: note_on channel=2 note=57 velocity=95 time=0
EXTRACT: note_on channel=2 note=45 velocity=95 time=0
EXTRACT: note_off channel=4 note=64 velocity=95 time=0
EXTRACT: note_off channel=4 note=60 velocity=95 time=0
EXTRACT: note_off channel=4 note=57 velocity=95 time=0
EXTRACT: note_off channel=4 note=52 velocity=95 time=0
EXTRACT: note_on channel=4 note=64 velocity=95 time=0
EXTRACT: note_on channel=4 note=60 velocity=95 time=0
EXTRACT: note_on channel=4 note=57 velocity=95 time=0
EXTRACT: note_on channel=4 note=52 velocity=95 time=0
EXTRACT: pitchwheel channel=12 pitch=640 time=0
EXTRACT: pitchwheel channel=12 pitch=640 time=0
EXTRACT: note_off channel=0 note=33 velocity=95 time=0.2654865
EXTRACT: note_on channel=0 note=33 velocity=95 time=0
EXTRACT: note_on channel=9 note=46 velocity=95 time=0
EXTRACT: note_off channel=2 note=57 velocity=95 time=0
EXTRACT: note_off channel=2 note=45 velocity=95 time=0
EXTRACT: note_on channel=2 note=57 velocity=95 time=0
EXTRACT: note_on channel=2 note=45 velocity=95 time=0
EXTRACT: note_off channel=4 note=64 velocity=95 time=0
EXTRACT: note_off channel=4 note=60 velocity=95 time=0
EXTRACT: note_off channel=4 note=57 velocity=95 time=0
EXTRACT: note_off channel=4 note=52 velocity=95 time=0
EXTRACT: note_on channel=4 note=64 velocity=95 time=0
EXTRACT: note_on channel=4 note=60 velocity=95 time=0
EXTRACT: note_on channel=4 note=57 velocity=95 time=0
EXTRACT: note_on channel=4 note=52 velocity=95 time=0
EXTRACT: pitchwheel channel=12 pitch=640 time=0
EXTRACT: pitchwheel channel=12 pitch=512 time=0.05309730000000001
EXTRACT: pitchwheel channel=12 pitch=384 time=0.05309730000000001
EXTRACT: note_off channel=9 note=46 velocity=95 time=0.026548650000000003
EXTRACT: pitchwheel channel=12 pitch=256 time=0.026548650000000003
EXTRACT: pitchwheel channel=12 pitch=128 time=0.05309730000000001
EXTRACT: note_off channel=0 note=33 velocity=95 time=0.05309730000000001
EXTRACT: note_on channel=0 note=31 velocity=95 time=0
EXTRACT: note_off channel=2 note=57 velocity=95 time=0
EXTRACT: note_off channel=2 note=45 velocity=95 time=0
EXTRACT: note_on channel=2 note=57 velocity=95 time=0
EXTRACT: note_on channel=2 note=45 velocity=95 time=0
EXTRACT: note_off channel=4 note=45 velocity=95 time=0
EXTRACT: note_off channel=4 note=64 velocity=95 time=0
EXTRACT: note_off channel=4 note=60 velocity=95 time=0
EXTRACT: note_off channel=4 note=57 velocity=95 time=0
EXTRACT: note_off channel=4 note=52 velocity=95 time=0
EXTRACT: note_on channel=4 note=62 velocity=95 time=0
EXTRACT: note_on channel=4 note=55 velocity=95 time=0
EXTRACT: note_on channel=4 note=50 velocity=95 time=0
EXTRACT: note_on channel=4 note=43 velocity=95 time=0
EXTRACT: pitchwheel channel=12 pitch=0 time=0
EXTRACT: pitchwheel channel=12 pitch=0 time=0
EXTRACT: note_off channel=0 note=31 velocity=95 time=0.2654865
EXTRACT: note_on channel=0 note=29 velocity=95 time=0
EXTRACT: note_on channel=9 note=49 velocity=95 time=0
EXTRACT: note_on channel=9 note=36 velocity=95 time=0
EXTRACT: note_off channel=2 note=57 velocity=95 time=0
EXTRACT: note_off channel=2 note=45 velocity=95 time=0
EXTRACT: note_on channel=2 note=72 velocity=95 time=0
EXTRACT: note_on channel=2 note=69 velocity=95 time=0
EXTRACT: note_on channel=2 note=65 velocity=95 time=0
EXTRACT: note_on channel=2 note=53 velocity=95 time=0
EXTRACT: note_on channel=2 note=41 velocity=95 time=0
EXTRACT: note_off channel=4 note=62 velocity=95 time=0
EXTRACT: note_off channel=4 note=55 velocity=95 time=0
EXTRACT: note_off channel=4 note=50 velocity=95 time=0
EXTRACT: note_off channel=4 note=43 velocity=95 time=0
EXTRACT: note_on channel=4 note=57 velocity=95 time=0
EXTRACT: pitchwheel channel=12 pitch=0 time=0
EXTRACT: pitchwheel channel=12 pitch=0 time=0
EXTRACT: note_off channel=12 note=65 velocity=95 time=0
EXTRACT: note_off channel=0 note=29 velocity=95 time=0.2654865
EXTRACT: note_on channel=0 note=29 velocity=95 time=0
EXTRACT: note_off channel=2 note=72 velocity=95 time=0
EXTRACT: note_off channel=2 note=69 velocity=95 time=0
EXTRACT: note_off channel=2 note=65 velocity=95 time=0
EXTRACT: note_off channel=2 note=53 velocity=95 time=0
EXTRACT: note_off channel=2 note=41 velocity=95 time=0
EXTRACT: note_on channel=2 note=72 velocity=95 time=0
EXTRACT: note_on channel=2 note=69 velocity=95 time=0
EXTRACT: note_on channel=2 note=65 velocity=95 time=0
EXTRACT: note_on channel=2 note=53 velocity=95 time=0
EXTRACT: note_on channel=2 note=41 velocity=95 time=0
EXTRACT: note_on channel=4 note=48 velocity=95 time=0
EXTRACT: pitchwheel channel=12 pitch=0 time=0
EXTRACT: note_on channel=12 note=69 velocity=95 time=0
EXTRACT: pitchwheel channel=12 pitch=128 time=0.07466807812500001
EXTRACT: pitchwheel channel=12 pitch=256 time=0.07466807812500001
EXTRACT: pitchwheel channel=12 pitch=384 time=0.07466807812500001
EXTRACT: note_off channel=0 note=29 velocity=95 time=0.04148226562500001
EXTRACT: note_on channel=0 note=29 velocity=95 time=0
EXTRACT: note_off channel=9 note=49 velocity=95 time=0
EXTRACT: note_off channel=9 note=36 velocity=95 time=0
EXTRACT: note_off channel=2 note=72 velocity=95 time=0
EXTRACT: note_off channel=2 note=69 velocity=95 time=0
EXTRACT: note_off channel=2 note=65 velocity=95 time=0
EXTRACT: note_off channel=2 note=53 velocity=95 time=0
EXTRACT: note_off channel=2 note=41 velocity=95 time=0
EXTRACT: note_on channel=2 note=72 velocity=95 time=0
EXTRACT: note_on channel=2 note=69 velocity=95 time=0
EXTRACT: note_on channel=2 note=65 velocity=95 time=0
EXTRACT: note_on channel=2 note=53 velocity=95 time=0
EXTRACT: note_on channel=2 note=41 velocity=95 time=0
EXTRACT: note_off channel=4 note=48 velocity=95 time=0
EXTRACT: note_on channel=4 note=53 velocity=95 time=0
EXTRACT: pitchwheel channel=12 pitch=512 time=0.0331858125
EXTRACT: pitchwheel channel=12 pitch=640 time=0.07466807812500001
EXTRACT: pitchwheel channel=12 pitch=768 time=0.07466807812500001
EXTRACT: pitchwheel channel=12 pitch=896 time=0.07466807812500001
EXTRACT: note_off channel=0 note=29 velocity=95 time=0.008296453125
EXTRACT: note_on channel=0 note=29 velocity=95 time=0
EXTRACT: note_off channel=2 note=72 velocity=95 time=0
EXTRACT: note_off channel=2 note=69 velocity=95 time=0
EXTRACT: note_off channel=2 note=65 velocity=95 time=0
EXTRACT: note_off channel=2 note=53 velocity=95 time=0
EXTRACT: note_off channel=2 note=41 velocity=95 time=0
EXTRACT: note_on channel=2 note=72 velocity=95 time=0
EXTRACT: note_on channel=2 note=69 velocity=95 time=0
EXTRACT: note_on channel=2 note=65 velocity=95 time=0
EXTRACT: note_on channel=2 note=53 velocity=95 time=0
EXTRACT: note_on channel=2 note=41 velocity=95 time=0
EXTRACT: note_off channel=4 note=57 velocity=95 time=0
EXTRACT: note_on channel=4 note=60 velocity=95 time=0
EXTRACT: pitchwheel channel=12 pitch=1024 time=0.066371625
EXTRACT: pitchwheel channel=12 pitch=1152 time=0.07466807812500001
EXTRACT: pitchwheel channel=12 pitch=1280 time=0.07466807812500001
EXTRACT: note_off channel=0 note=29 velocity=95 time=0.049778718750000006
EXTRACT: note_on channel=0 note=29 velocity=95 time=0
EXTRACT: note_off channel=2 note=72 velocity=95 time=0
EXTRACT: note_off channel=2 note=69 velocity=95 time=0
EXTRACT: note_off channel=2 note=65 velocity=95 time=0
EXTRACT: note_off channel=2 note=53 velocity=95 time=0
EXTRACT: note_off channel=2 note=41 velocity=95 time=0
EXTRACT: note_on channel=2 note=72 velocity=95 time=0
EXTRACT: note_on channel=2 note=69 velocity=95 time=0
EXTRACT: note_on channel=2 note=65 velocity=95 time=0
EXTRACT: note_on channel=2 note=53 velocity=95 time=0
EXTRACT: note_on channel=2 note=41 velocity=95 time=0
EXTRACT: note_off channel=4 note=53 velocity=95 time=0
EXTRACT: note_on channel=4 note=48 velocity=95 time=0
EXTRACT: pitchwheel channel=12 pitch=1408 time=0.024889359375000003
EXTRACT: pitchwheel channel=12 pitch=1536 time=0.07466807812500001
EXTRACT: pitchwheel channel=12 pitch=1664 time=0.07466807812500001
EXTRACT: pitchwheel channel=12 pitch=1792 time=0.07466807812500001
EXTRACT: note_off channel=0 note=29 velocity=95 time=0.01659290625
EXTRACT: note_on channel=0 note=29 velocity=95 time=0
EXTRACT: note_on channel=9 note=48 velocity=95 time=0
EXTRACT: note_off channel=2 note=72 velocity=95 time=0
EXTRACT: note_off channel=2 note=69 velocity=95 time=0
EXTRACT: note_off channel=2 note=65 velocity=95 time=0
EXTRACT: note_off channel=2 note=53 velocity=95 time=0
EXTRACT: note_off channel=2 note=41 velocity=95 time=0
EXTRACT: note_on channel=2 note=72 velocity=95 time=0
EXTRACT: note_on channel=2 note=69 velocity=95 time=0
EXTRACT: note_on channel=2 note=65 velocity=95 time=0
EXTRACT: note_on channel=2 note=53 velocity=95 time=0
EXTRACT: note_on channel=2 note=41 velocity=95 time=0
EXTRACT: note_off channel=4 note=48 velocity=95 time=0
EXTRACT: note_on channel=4 note=53 velocity=95 time=0
EXTRACT: pitchwheel channel=12 pitch=1920 time=0.058075171875000005
EXTRACT: pitchwheel channel=12 pitch=2048 time=0.07466807812500001
EXTRACT: pitchwheel channel=12 pitch=2176 time=0.07466807812500001
EXTRACT: note_off channel=0 note=29 velocity=95 time=0.058075171875000005
EXTRACT: note_on channel=0 note=29 velocity=95 time=0
EXTRACT: note_off channel=9 note=48 velocity=95 time=0
EXTRACT: note_on channel=9 note=47 velocity=95 time=0
EXTRACT: note_off channel=2 note=72 velocity=95 time=0
EXTRACT: note_off channel=2 note=69 velocity=95 time=0
EXTRACT: note_off channel=2 note=65 velocity=95 time=0
EXTRACT: note_off channel=2 note=53 velocity=95 time=0
EXTRACT: note_off channel=2 note=41 velocity=95 time=0
EXTRACT: note_on channel=2 note=72 velocity=95 time=0
EXTRACT: note_on channel=2 note=69 velocity=95 time=0
EXTRACT: note_on channel=2 note=65 velocity=95 time=0
EXTRACT: note_on channel=2 note=53 velocity=95 time=0
EXTRACT: note_on channel=2 note=41 velocity=95 time=0
EXTRACT: note_off channel=4 note=60 velocity=95 time=0
EXTRACT: note_off channel=4 note=53 velocity=95 time=0
EXTRACT: note_on channel=4 note=57 velocity=95 time=0
EXTRACT: note_on channel=4 note=53 velocity=95 time=0
EXTRACT: pitchwheel channel=12 pitch=2304 time=0.01659290625
EXTRACT: note_off channel=9 note=47 velocity=95 time=0.07190259375000001
EXTRACT: note_on channel=9 note=47 velocity=95 time=0
EXTRACT: pitchwheel channel=12 pitch=2432 time=0.002765484375
EXTRACT: pitchwheel channel=12 pitch=2560 time=0.07466807812500001
EXTRACT: note_off channel=9 note=47 velocity=95 time=0.0110619375
EXTRACT: note_on channel=9 note=47 velocity=95 time=0
EXTRACT: pitchwheel channel=12 pitch=2688 time=0.063606140625
EXTRACT: note_off channel=0 note=29 velocity=95 time=0.024889359375000003
EXTRACT: note_on channel=0 note=29 velocity=95 time=0
EXTRACT: note_off channel=9 note=47 velocity=95 time=0
EXTRACT: note_on channel=9 note=47 velocity=95 time=0
EXTRACT: note_off channel=2 note=72 velocity=95 time=0
EXTRACT: note_off channel=2 note=69 velocity=95 time=0
EXTRACT: note_off channel=2 note=65 velocity=95 time=0
EXTRACT: note_off channel=2 note=53 velocity=95 time=0
EXTRACT: note_off channel=2 note=41 velocity=95 time=0
EXTRACT: note_on channel=2 note=72 velocity=95 time=0
EXTRACT: note_on channel=2 note=69 velocity=95 time=0
EXTRACT: note_on channel=2 note=65 velocity=95 time=0
EXTRACT: note_on channel=2 note=53 velocity=95 time=0
EXTRACT: note_on channel=2 note=41 velocity=95 time=0
EXTRACT: pitchwheel channel=12 pitch=2816 time=0.049778718750000006
EXTRACT: pitchwheel channel=12 pitch=2944 time=0.07466807812500001
EXTRACT: pitchwheel channel=12 pitch=3072 time=0.07466807812500001
EXTRACT: note_off channel=0 note=29 velocity=95 time=0
EXTRACT: note_on channel=0 note=29 velocity=95 time=0
EXTRACT: note_off channel=9 note=47 velocity=95 time=0
EXTRACT: note_on channel=9 note=49 velocity=95 time=0
EXTRACT: note_on channel=9 note=36 velocity=95 time=0
EXTRACT: note_off channel=2 note=72 velocity=95 time=0
EXTRACT: note_off channel=2 note=69 velocity=95 time=0
EXTRACT: note_off channel=2 note=65 velocity=95 time=0
EXTRACT: note_off channel=2 note=53 velocity=95 time=0
EXTRACT: note_off channel=2 note=41 velocity=95 time=0
EXTRACT: note_on channel=2 note=71 velocity=95 time=0
EXTRACT: note_on channel=2 note=67 velocity=95 time=0
EXTRACT: note_on channel=2 note=62 velocity=95 time=0
EXTRACT: note_on channel=2 note=53 velocity=95 time=0
EXTRACT: note_on channel=2 note=41 velocity=95 time=0
EXTRACT: note_off channel=4 note=57 velocity=95 time=0
EXTRACT: note_off channel=4 note=53 velocity=95 time=0
EXTRACT: note_on channel=4 note=59 velocity=95 time=0
EXTRACT: pitchwheel channel=12 pitch=3200 time=0.008152171875
EXTRACT: pitchwheel channel=12 pitch=3328 time=0.073369546875
EXTRACT: pitchwheel channel=12 pitch=3456 time=0.073369546875
EXTRACT: pitchwheel channel=12 pitch=3584 time=0.073369546875
EXTRACT: note_off channel=0 note=29 velocity=95 time=0.0326086875
EXTRACT: note_on channel=0 note=29 velocity=95 time=0
EXTRACT: note_off channel=2 note=71 velocity=95 time=0
EXTRACT: note_off channel=2 note=67 velocity=95 time=0
EXTRACT: note_off channel=2 note=62 velocity=95 time=0
EXTRACT: note_off channel=2 note=53 velocity=95 time=0
EXTRACT: note_off channel=2 note=41 velocity=95 time=0
EXTRACT: note_on channel=2 note=71 velocity=95 time=0
EXTRACT: note_on channel=2 note=67 velocity=95 time=0
EXTRACT: note_on channel=2 note=62 velocity=95 time=0
EXTRACT: note_on channel=2 note=53 velocity=95 time=0
EXTRACT: note_on channel=2 note=41 velocity=95 time=0
EXTRACT: note_on channel=4 note=50 velocity=95 time=0
EXTRACT: pitchwheel channel=12 pitch=3712 time=0.040760859375
EXTRACT: pitchwheel channel=12 pitch=3840 time=0.073369546875
EXTRACT: note_off channel=9 note=36 velocity=95 time=0.01630434375
EXTRACT: note_on channel=9 note=48 velocity=95 time=0
EXTRACT: pitchwheel channel=12 pitch=3968 time=0.05706520312499999
EXTRACT: note_off channel=0 note=29 velocity=95 time=0.073369546875
EXTRACT: note_on channel=0 note=29 velocity=95 time=0
EXTRACT: note_off channel=9 note=49 velocity=95 time=0
EXTRACT: note_off channel=2 note=71 velocity=95 time=0
EXTRACT: note_off channel=2 note=67 velocity=95 time=0
EXTRACT: note_off channel=2 note=62 velocity=95 time=0
EXTRACT: note_off channel=2 note=53 velocity=95 time=0
EXTRACT: note_off channel=2 note=41 velocity=95 time=0
EXTRACT: note_on channel=2 note=71 velocity=95 time=0
EXTRACT: note_on channel=2 note=67 velocity=95 time=0
EXTRACT: note_on channel=2 note=62 velocity=95 time=0
EXTRACT: note_on channel=2 note=53 velocity=95 time=0
EXTRACT: note_on channel=2 note=41 velocity=95 time=0
EXTRACT: note_off channel=4 note=50 velocity=95 time=0
EXTRACT: note_on channel=4 note=55 velocity=95 time=0
EXTRACT: pitchwheel channel=12 pitch=4096 time=0
EXTRACT: pitchwheel channel=12 pitch=4224 time=0.073369546875
EXTRACT: note_off channel=9 note=48 velocity=95 time=0.05706520312499999
EXTRACT: note_on channel=9 note=48 velocity=95 time=0
EXTRACT: pitchwheel channel=12 pitch=4352 time=0.01630434375
EXTRACT: pitchwheel channel=12 pitch=4480 time=0.073369546875
EXTRACT: note_off channel=0 note=29 velocity=95 time=0.040760859375
EXTRACT: note_on channel=0 note=29 velocity=95 time=0
EXTRACT: note_off channel=9 note=48 velocity=95 time=0
EXTRACT: note_on channel=9 note=48 velocity=95 time=0
EXTRACT: note_off channel=2 note=71 velocity=95 time=0
EXTRACT: note_off channel=2 note=67 velocity=95 time=0
EXTRACT: note_off channel=2 note=62 velocity=95 time=0
EXTRACT: note_off channel=2 note=53 velocity=95 time=0
EXTRACT: note_off channel=2 note=41 velocity=95 time=0
EXTRACT: note_on channel=2 note=71 velocity=95 time=0
EXTRACT: note_on channel=2 note=67 velocity=95 time=0
EXTRACT: note_on channel=2 note=62 velocity=95 time=0
EXTRACT: note_on channel=2 note=53 velocity=95 time=0
EXTRACT: note_on channel=2 note=41 velocity=95 time=0
EXTRACT: note_off channel=4 note=59 velocity=95 time=0
EXTRACT: note_on channel=4 note=59 velocity=95 time=0
EXTRACT: pitchwheel channel=12 pitch=4608 time=0.0326086875
EXTRACT: pitchwheel channel=12 pitch=4736 time=0.073369546875
EXTRACT: pitchwheel channel=12 pitch=4864 time=0.073369546875
EXTRACT: pitchwheel channel=12 pitch=4992 time=0.073369546875
EXTRACT: note_off channel=0 note=29 velocity=95 time=0.008152171875
EXTRACT: note_on channel=0 note=29 velocity=95 time=0
EXTRACT: note_off channel=9 note=48 velocity=95 time=0
EXTRACT: note_on channel=9 note=47 velocity=95 time=0
EXTRACT: note_off channel=2 note=71 velocity=95 time=0
EXTRACT: note_off channel=2 note=67 velocity=95 time=0
EXTRACT: note_off channel=2 note=62 velocity=95 time=0
EXTRACT: note_off channel=2 note=53 velocity=95 time=0
EXTRACT: note_off channel=2 note=41 velocity=95 time=0
EXTRACT: note_on channel=2 note=71 velocity=95 time=0
EXTRACT: note_on channel=2 note=67 velocity=95 time=0
EXTRACT: note_on channel=2 note=62 velocity=95 time=0
EXTRACT: note_on channel=2 note=53 velocity=95 time=0
EXTRACT: note_on channel=2 note=41 velocity=95 time=0
EXTRACT: note_off channel=4 note=55 velocity=95 time=0
EXTRACT: note_on channel=4 note=50 velocity=95 time=0
EXTRACT: pitchwheel channel=12 pitch=5120 time=0.065217375
EXTRACT: pitchwheel channel=12 pitch=5248 time=0.073369546875
EXTRACT: pitchwheel channel=12 pitch=5376 time=0.073369546875
EXTRACT: note_off channel=0 note=29 velocity=95 time=0.048913031249999996
EXTRACT: note_on channel=0 note=29 velocity=95 time=0
EXTRACT: note_off channel=9 note=47 velocity=95 time=0
EXTRACT: note_on channel=9 note=47 velocity=95 time=0
EXTRACT: note_off channel=2 note=71 velocity=95 time=0
EXTRACT: note_off channel=2 note=67 velocity=95 time=0
EXTRACT: note_off channel=2 note=62 velocity=95 time=0
EXTRACT: note_off channel=2 note=53 velocity=95 time=0
EXTRACT: note_off channel=2 note=41 velocity=95 time=0
EXTRACT: note_on channel=2 note=71 velocity=95 time=0
EXTRACT: note_on channel=2 note=67 velocity=95 time=0
EXTRACT: note_on channel=2 note=62 velocity=95 time=0
EXTRACT: note_on channel=2 note=53 velocity=95 time=0
EXTRACT: note_on channel=2 note=41 velocity=95 time=0
EXTRACT: note_off channel=4 note=50 velocity=95 time=0
EXTRACT: note_on channel=4 note=55 velocity=95 time=0
EXTRACT: pitchwheel channel=12 pitch=5504 time=0.024456515624999998
EXTRACT: pitchwheel channel=12 pitch=5632 time=0.073369546875
EXTRACT: pitchwheel channel=12 pitch=5760 time=0.073369546875
EXTRACT: pitchwheel channel=12 pitch=5888 time=0.073369546875
EXTRACT: note_off channel=0 note=29 velocity=95 time=0.01630434375
EXTRACT: note_on channel=0 note=29 velocity=95 time=0
EXTRACT: note_off channel=9 note=47 velocity=95 time=0
EXTRACT: note_on channel=9 note=45 velocity=95 time=0
EXTRACT: note_off channel=2 note=71 velocity=95 time=0
EXTRACT: note_off channel=2 note=67 velocity=95 time=0
EXTRACT: note_off channel=2 note=62 velocity=95 time=0
EXTRACT: note_off channel=2 note=53 velocity=95 time=0
EXTRACT: note_off channel=2 note=41 velocity=95 time=0
EXTRACT: note_on channel=2 note=71 velocity=95 time=0
EXTRACT: note_on channel=2 note=67 velocity=95 time=0
EXTRACT: note_on channel=2 note=62 velocity=95 time=0
EXTRACT: note_on channel=2 note=53 velocity=95 time=0
EXTRACT: note_on channel=2 note=41 velocity=95 time=0
EXTRACT: note_off channel=4 note=59 velocity=95 time=0
EXTRACT: note_off channel=4 note=55 velocity=95 time=0
EXTRACT: note_on channel=4 note=59 velocity=95 time=0
EXTRACT: note_on channel=4 note=55 velocity=95 time=0
EXTRACT: pitchwheel channel=12 pitch=6016 time=0.05706520312499999
EXTRACT: pitchwheel channel=12 pitch=6144 time=0.073369546875
EXTRACT: pitchwheel channel=12 pitch=6272 time=0.073369546875
EXTRACT: note_off channel=0 note=29 velocity=95 time=0.05706520312499999
EXTRACT: note_on channel=0 note=29 velocity=95 time=0
EXTRACT: note_off channel=9 note=45 velocity=95 time=0
EXTRACT: note_on channel=9 note=45 velocity=95 time=0
EXTRACT: note_off channel=2 note=71 velocity=95 time=0
EXTRACT: note_off channel=2 note=67 velocity=95 time=0
EXTRACT: note_off channel=2 note=62 velocity=95 time=0
EXTRACT: note_off channel=2 note=53 velocity=95 time=0
EXTRACT: note_off channel=2 note=41 velocity=95 time=0
EXTRACT: note_on channel=2 note=71 velocity=95 time=0
EXTRACT: note_on channel=2 note=67 velocity=95 time=0
EXTRACT: note_on channel=2 note=62 velocity=95 time=0
EXTRACT: note_on channel=2 note=53 velocity=95 time=0
EXTRACT: note_on channel=2 note=41 velocity=95 time=0
EXTRACT: pitchwheel channel=12 pitch=6400 time=0.01630434375
EXTRACT: pitchwheel channel=12 pitch=6528 time=0.073369546875
EXTRACT: pitchwheel channel=12 pitch=6656 time=0.073369546875
EXTRACT: pitchwheel channel=12 pitch=6784 time=0.073369546875
EXTRACT: note_off channel=0 note=29 velocity=95 time=0
EXTRACT: note_on channel=0 note=29 velocity=95 time=0
EXTRACT: note_off channel=9 note=45 velocity=95 time=0
EXTRACT: note_on channel=9 note=49 velocity=95 time=0
EXTRACT: note_on channel=9 note=36 velocity=95 time=0
EXTRACT: note_off channel=2 note=71 velocity=95 time=0
EXTRACT: note_off channel=2 note=67 velocity=95 time=0
EXTRACT: note_off channel=2 note=62 velocity=95 time=0
EXTRACT: note_off channel=2 note=53 velocity=95 time=0
EXTRACT: note_off channel=2 note=41 velocity=95 time=0
EXTRACT: note_on channel=2 note=76 velocity=95 time=0
EXTRACT: note_on channel=2 note=72 velocity=95 time=0
EXTRACT: note_on channel=2 note=65 velocity=95 time=0
EXTRACT: note_on channel=2 note=53 velocity=95 time=0
EXTRACT: note_off channel=4 note=59 velocity=95 time=0
EXTRACT: note_off channel=4 note=55 velocity=95 time=0
EXTRACT: note_on channel=4 note=57 velocity=95 time=0
EXTRACT: pitchwheel channel=12 pitch=6912 time=0.04849134374999999
EXTRACT: pitchwheel channel=12 pitch=7040 time=0.07273701562499998
EXTRACT: pitchwheel channel=12 pitch=7040 time=0.008081890625
EXTRACT: note_off channel=0 note=29 velocity=95 time=0.12931025
EXTRACT: note_on channel=0 note=29 velocity=95 time=0
EXTRACT: note_off channel=2 note=76 velocity=95 time=0
EXTRACT: note_off channel=2 note=72 velocity=95 time=0
EXTRACT: note_off channel=2 note=65 velocity=95 time=0
EXTRACT: note_off channel=2 note=53 velocity=95 time=0
EXTRACT: note_on channel=2 note=76 velocity=95 time=0
EXTRACT: note_on channel=2 note=72 velocity=95 time=0
EXTRACT: note_on channel=2 note=65 velocity=95 time=0
EXTRACT: note_on channel=2 note=53 velocity=95 time=0
EXTRACT: note_on channel=4 note=48 velocity=95 time=0
EXTRACT: note_off channel=9 note=36 velocity=95 time=0.12931025
EXTRACT: note_on channel=9 note=47 velocity=95 time=0
EXTRACT: note_off channel=0 note=29 velocity=95 time=0.12931025
EXTRACT: note_on channel=0 note=29 velocity=95 time=0
EXTRACT: note_off channel=9 note=49 velocity=95 time=0
EXTRACT: note_off channel=2 note=76 velocity=95 time=0
EXTRACT: note_off channel=2 note=72 velocity=95 time=0
EXTRACT: note_off channel=2 note=65 velocity=95 time=0
EXTRACT: note_off channel=2 note=53 velocity=95 time=0
EXTRACT: note_on channel=2 note=76 velocity=95 time=0
EXTRACT: note_on channel=2 note=72 velocity=95 time=0
EXTRACT: note_on channel=2 note=65 velocity=95 time=0
EXTRACT: note_on channel=2 note=53 velocity=95 time=0
EXTRACT: note_off channel=4 note=48 velocity=95 time=0
EXTRACT: note_on channel=4 note=53 velocity=95 time=0
EXTRACT: note_off channel=9 note=47 velocity=95 time=0.12931025
EXTRACT: note_on channel=9 note=47 velocity=95 time=0
EXTRACT: note_off channel=0 note=29 velocity=95 time=0.12931025
EXTRACT: note_on channel=0 note=29 velocity=95 time=0
EXTRACT: note_off channel=9 note=47 velocity=95 time=0
EXTRACT: note_on channel=9 note=47 velocity=95 time=0
EXTRACT: note_off channel=2 note=76 velocity=95 time=0
EXTRACT: note_off channel=2 note=72 velocity=95 time=0
EXTRACT: note_off channel=2 note=65 velocity=95 time=0
EXTRACT: note_off channel=2 note=53 velocity=95 time=0
EXTRACT: note_on channel=2 note=76 velocity=95 time=0
EXTRACT: note_on channel=2 note=72 velocity=95 time=0
EXTRACT: note_on channel=2 note=65 velocity=95 time=0
EXTRACT: note_on channel=2 note=53 velocity=95 time=0
EXTRACT: note_off channel=4 note=57 velocity=95 time=0
EXTRACT: note_on channel=4 note=60 velocity=95 time=0
EXTRACT: note_off channel=0 note=29 velocity=95 time=0.2586205
EXTRACT: note_on channel=0 note=29 velocity=95 time=0
EXTRACT: note_off channel=9 note=47 velocity=95 time=0
EXTRACT: note_off channel=2 note=76 velocity=95 time=0
EXTRACT: note_off channel=2 note=72 velocity=95 time=0
EXTRACT: note_off channel=2 note=65 velocity=95 time=0
EXTRACT: note_off channel=2 note=53 velocity=95 time=0
EXTRACT: note_on channel=2 note=76 velocity=95 time=0
EXTRACT: note_on channel=2 note=72 velocity=95 time=0
EXTRACT: note_on channel=2 note=65 velocity=95 time=0
EXTRACT: note_on channel=2 note=53 velocity=95 time=0
EXTRACT: note_off channel=4 note=53 velocity=95 time=0
EXTRACT: note_on channel=4 note=48 velocity=95 time=0
EXTRACT: note_off channel=0 note=29 velocity=95 time=0.2586205
EXTRACT: note_on channel=0 note=29 velocity=95 time=0
EXTRACT: note_on channel=9 note=48 velocity=95 time=0
EXTRACT: note_off channel=2 note=76 velocity=95 time=0
EXTRACT: note_off channel=2 note=72 velocity=95 time=0
EXTRACT: note_off channel=2 note=65 velocity=95 time=0
EXTRACT: note_off channel=2 note=53 velocity=95 time=0
EXTRACT: note_on channel=2 note=76 velocity=95 time=0
EXTRACT: note_on channel=2 note=72 velocity=95 time=0
EXTRACT: note_on channel=2 note=65 velocity=95 time=0
EXTRACT: note_on channel=2 note=53 velocity=95 time=0
EXTRACT: note_off channel=4 note=48 velocity=95 time=0
EXTRACT: note_on channel=4 note=53 velocity=95 time=0
EXTRACT: note_off channel=0 note=29 velocity=95 time=0.2586205
EXTRACT: note_on channel=0 note=29 velocity=95 time=0
EXTRACT: note_off channel=9 note=48 velocity=95 time=0
EXTRACT: note_on channel=9 note=48 velocity=95 time=0
EXTRACT: note_off channel=2 note=76 velocity=95 time=0
EXTRACT: note_off channel=2 note=72 velocity=95 time=0
EXTRACT: note_off channel=2 note=65 velocity=95 time=0
EXTRACT: note_off channel=2 note=53 velocity=95 time=0
EXTRACT: note_on channel=2 note=76 velocity=95 time=0
EXTRACT: note_on channel=2 note=72 velocity=95 time=0
EXTRACT: note_on channel=2 note=65 velocity=95 time=0
EXTRACT: note_on channel=2 note=53 velocity=95 time=0
EXTRACT: note_off channel=4 note=60 velocity=95 time=0
EXTRACT: note_off channel=4 note=53 velocity=95 time=0
EXTRACT: note_on channel=4 note=57 velocity=95 time=0
EXTRACT: note_on channel=4 note=53 velocity=95 time=0
EXTRACT: note_off channel=9 note=48 velocity=95 time=0.08620683333333332
EXTRACT: note_on channel=9 note=48 velocity=95 time=0
EXTRACT: note_off channel=9 note=48 velocity=95 time=0.08620683333333332
EXTRACT: note_on channel=9 note=48 velocity=95 time=0
EXTRACT: note_off channel=0 note=29 velocity=95 time=0.08620683333333332
EXTRACT: note_on channel=0 note=29 velocity=95 time=0
EXTRACT: note_off channel=9 note=48 velocity=95 time=0
EXTRACT: note_on channel=9 note=48 velocity=95 time=0
EXTRACT: note_off channel=2 note=76 velocity=95 time=0
EXTRACT: note_off channel=2 note=72 velocity=95 time=0
EXTRACT: note_off channel=2 note=65 velocity=95 time=0
EXTRACT: note_off channel=2 note=53 velocity=95 time=0
EXTRACT: note_on channel=2 note=76 velocity=95 time=0
EXTRACT: note_on channel=2 note=72 velocity=95 time=0
EXTRACT: note_on channel=2 note=65 velocity=95 time=0
EXTRACT: note_on channel=2 note=53 velocity=95 time=0
EXTRACT: note_off channel=9 note=48 velocity=95 time=0.08620683333333332
EXTRACT: note_on channel=9 note=48 velocity=95 time=0
EXTRACT: note_off channel=9 note=48 velocity=95 time=0.08620683333333332
EXTRACT: note_on channel=9 note=48 velocity=95 time=0
EXTRACT: note_off channel=0 note=29 velocity=95 time=0
EXTRACT: note_on channel=0 note=29 velocity=95 time=0
EXTRACT: note_off channel=9 note=48 velocity=95 time=0
EXTRACT: note_on channel=9 note=49 velocity=95 time=0
EXTRACT: note_on channel=9 note=36 velocity=95 time=0
EXTRACT: note_off channel=2 note=76 velocity=95 time=0
EXTRACT: note_off channel=2 note=72 velocity=95 time=0
EXTRACT: note_off channel=2 note=65 velocity=95 time=0
EXTRACT: note_off channel=2 note=53 velocity=95 time=0
EXTRACT: note_on channel=2 note=76 velocity=95 time=0
EXTRACT: note_on channel=2 note=72 velocity=95 time=0
EXTRACT: note_on channel=2 note=65 velocity=95 time=0
EXTRACT: note_on channel=2 note=53 velocity=95 time=0
EXTRACT: note_off channel=4 note=57 velocity=95 time=0
EXTRACT: note_off channel=4 note=53 velocity=95 time=0
EXTRACT: note_on channel=4 note=59 velocity=95 time=0
EXTRACT: pitchwheel channel=12 pitch=7040 time=0.06355925
EXTRACT: note_off channel=0 note=29 velocity=95 time=0.19067774999999998
EXTRACT: note_on channel=0 note=29 velocity=95 time=0
EXTRACT: note_off channel=2 note=76 velocity=95 time=0
EXTRACT: note_off channel=2 note=72 velocity=95 time=0
EXTRACT: note_off channel=2 note=65 velocity=95 time=0
EXTRACT: note_off channel=2 note=53 velocity=95 time=0
EXTRACT: note_on channel=2 note=74 velocity=95 time=0
EXTRACT: note_on channel=2 note=72 velocity=95 time=0
EXTRACT: note_on channel=2 note=65 velocity=95 time=0
EXTRACT: note_on channel=2 note=53 velocity=95 time=0
EXTRACT: note_on channel=4 note=50 velocity=95 time=0
EXTRACT: note_off channel=9 note=36 velocity=95 time=0.1271185
EXTRACT: note_on channel=9 note=47 velocity=95 time=0
EXTRACT: note_off channel=0 note=29 velocity=95 time=0.1271185
EXTRACT: note_on channel=0 note=29 velocity=95 time=0
EXTRACT: note_off channel=9 note=49 velocity=95 time=0
EXTRACT: note_off channel=2 note=74 velocity=95 time=0
EXTRACT: note_off channel=2 note=72 velocity=95 time=0
EXTRACT: note_off channel=2 note=65 velocity=95 time=0
EXTRACT: note_off channel=2 note=53 velocity=95 time=0
EXTRACT: note_on channel=2 note=76 velocity=95 time=0
EXTRACT: note_on channel=2 note=72 velocity=95 time=0
EXTRACT: note_on channel=2 note=65 velocity=95 time=0
EXTRACT: note_on channel=2 note=53 velocity=95 time=0
EXTRACT: note_off channel=4 note=50 velocity=95 time=0
EXTRACT: note_on channel=4 note=55 velocity=95 time=0
EXTRACT: note_off channel=9 note=47 velocity=95 time=0.1271185
EXTRACT: note_on channel=9 note=47 velocity=95 time=0
EXTRACT: note_off channel=0 note=29 velocity=95 time=0.1271185
EXTRACT: note_on channel=0 note=29 velocity=95 time=0
EXTRACT: note_off channel=9 note=47 velocity=95 time=0
EXTRACT: note_on channel=9 note=47 velocity=95 time=0
EXTRACT: note_off channel=2 note=76 velocity=95 time=0
EXTRACT: note_off channel=2 note=72 velocity=95 time=0
EXTRACT: note_off channel=2 note=65 velocity=95 time=0
EXTRACT: note_off channel=2 note=53 velocity=95 time=0
EXTRACT: note_on channel=2 note=74 velocity=95 time=0
EXTRACT: note_on channel=2 note=72 velocity=95 time=0
EXTRACT: note_on channel=2 note=65 velocity=95 time=0
EXTRACT: note_on channel=2 note=53 velocity=95 time=0
EXTRACT: note_off channel=4 note=59 velocity=95 time=0
EXTRACT: note_on channel=4 note=59 velocity=95 time=0
EXTRACT: note_off channel=0 note=29 velocity=95 time=0.254237
EXTRACT: note_on channel=0 note=29 velocity=95 time=0
EXTRACT: note_off channel=9 note=47 velocity=95 time=0
EXTRACT: note_on channel=9 note=45 velocity=95 time=0
EXTRACT: note_off channel=2 note=74 velocity=95 time=0
EXTRACT: note_off channel=2 note=72 velocity=95 time=0
EXTRACT: note_off channel=2 note=65 velocity=95 time=0
EXTRACT: note_off channel=2 note=53 velocity=95 time=0
EXTRACT: note_on channel=2 note=76 velocity=95 time=0
EXTRACT: note_on channel=2 note=72 velocity=95 time=0
EXTRACT: note_on channel=2 note=65 velocity=95 time=0
EXTRACT: note_on channel=2 note=53 velocity=95 time=0
EXTRACT: note_off channel=4 note=55 velocity=95 time=0
EXTRACT: note_on channel=4 note=50 velocity=95 time=0
EXTRACT: note_off channel=0 note=29 velocity=95 time=0.254237
EXTRACT: note_on channel=0 note=29 velocity=95 time=0
EXTRACT: note_off channel=9 note=45 velocity=95 time=0
EXTRACT: note_on channel=9 note=45 velocity=95 time=0
EXTRACT: note_off channel=2 note=76 velocity=95 time=0
EXTRACT: note_off channel=2 note=72 velocity=95 time=0
EXTRACT: note_off channel=2 note=65 velocity=95 time=0
EXTRACT: note_off channel=2 note=53 velocity=95 time=0
EXTRACT: note_on channel=2 note=74 velocity=95 time=0
EXTRACT: note_on channel=2 note=72 velocity=95 time=0
EXTRACT: note_on channel=2 note=65 velocity=95 time=0
EXTRACT: note_on channel=2 note=53 velocity=95 time=0
EXTRACT: note_off channel=4 note=50 velocity=95 time=0
EXTRACT: note_on channel=4 note=55 velocity=95 time=0
EXTRACT: note_off channel=0 note=29 velocity=95 time=0.254237
EXTRACT: note_on channel=0 note=29 velocity=95 time=0
EXTRACT: note_off channel=9 note=45 velocity=95 time=0
EXTRACT: note_on channel=9 note=45 velocity=95 time=0
EXTRACT: note_off channel=2 note=74 velocity=95 time=0
EXTRACT: note_off channel=2 note=72 velocity=95 time=0
EXTRACT: note_off channel=2 note=65 velocity=95 time=0
EXTRACT: note_off channel=2 note=53 velocity=95 time=0
EXTRACT: note_on channel=2 note=76 velocity=95 time=0
EXTRACT: note_on channel=2 note=72 velocity=95 time=0
EXTRACT: note_on channel=2 note=65 velocity=95 time=0
EXTRACT: note_on channel=2 note=53 velocity=95 time=0
EXTRACT: note_off channel=4 note=59 velocity=95 time=0
EXTRACT: note_off channel=4 note=55 velocity=95 time=0
EXTRACT: note_on channel=4 note=59 velocity=95 time=0
EXTRACT: note_on channel=4 note=55 velocity=95 time=0
EXTRACT: note_off channel=9 note=45 velocity=95 time=0.08474566666666666
EXTRACT: note_on channel=9 note=45 velocity=95 time=0
EXTRACT: note_off channel=9 note=45 velocity=95 time=0.08474566666666666
EXTRACT: note_on channel=9 note=45 velocity=95 time=0
EXTRACT: note_off channel=0 note=29 velocity=95 time=0.08474566666666666
EXTRACT: note_on channel=0 note=29 velocity=95 time=0
EXTRACT: note_off channel=9 note=45 velocity=95 time=0
EXTRACT: note_on channel=9 note=45 velocity=95 time=0
EXTRACT: note_off channel=2 note=76 velocity=95 time=0
EXTRACT: note_off channel=2 note=72 velocity=95 time=0
EXTRACT: note_off channel=2 note=65 velocity=95 time=0
EXTRACT: note_off channel=2 note=53 velocity=95 time=0
EXTRACT: note_on channel=2 note=74 velocity=95 time=0
EXTRACT: note_on channel=2 note=72 velocity=95 time=0
EXTRACT: note_on channel=2 note=65 velocity=95 time=0
EXTRACT: note_on channel=2 note=53 velocity=95 time=0
EXTRACT: note_off channel=9 note=45 velocity=95 time=0.08474566666666666
EXTRACT: note_on channel=9 note=45 velocity=95 time=0
EXTRACT: note_off channel=9 note=45 velocity=95 time=0.08474566666666666
EXTRACT: note_on channel=9 note=45 velocity=95 time=0
EXTRACT: note_on channel=1 note=64 velocity=95 time=0
EXTRACT: note_off channel=0 note=29 velocity=95 time=0
EXTRACT: note_on channel=0 note=33 velocity=95 time=0
EXTRACT: note_off channel=9 note=45 velocity=95 time=0
EXTRACT: note_on channel=9 note=49 velocity=95 time=0
EXTRACT: note_on channel=9 note=36 velocity=95 time=0
EXTRACT: note_off channel=2 note=74 velocity=95 time=0
EXTRACT: note_off channel=2 note=72 velocity=95 time=0
EXTRACT: note_off channel=2 note=65 velocity=95 time=0
EXTRACT: note_off channel=2 note=53 velocity=95 time=0
EXTRACT: note_on channel=2 note=76 velocity=95 time=0
EXTRACT: note_on channel=2 note=72 velocity=95 time=0
EXTRACT: note_on channel=2 note=69 velocity=95 time=0
EXTRACT: note_on channel=2 note=45 velocity=95 time=0
EXTRACT: note_on channel=2 note=57 velocity=95 time=0
EXTRACT: note_off channel=4 note=59 velocity=95 time=0
EXTRACT: note_off channel=4 note=55 velocity=95 time=0
EXTRACT: note_on channel=4 note=64 velocity=95 time=0
EXTRACT: note_on channel=4 note=60 velocity=95 time=0
EXTRACT: note_on channel=4 note=57 velocity=95 time=0
EXTRACT: note_on channel=4 note=52 velocity=95 time=0
EXTRACT: note_on channel=4 note=45 velocity=95 time=0
EXTRACT: pitchwheel channel=12 pitch=7040 time=0
EXTRACT: pitchwheel channel=12 pitch=0 time=0
EXTRACT: note_off channel=12 note=69 velocity=95 time=0
EXTRACT: pitchwheel channel=12 pitch=0 time=0
EXTRACT: note_on channel=12 note=69 velocity=95 time=0
EXTRACT: pitchwheel channel=12 pitch=128 time=0.015231071875
EXTRACT: pitchwheel channel=12 pitch=256 time=0.015231071875
EXTRACT: pitchwheel channel=12 pitch=384 time=0.015231071875
EXTRACT: pitchwheel channel=12 pitch=512 time=0.015231071875
EXTRACT: pitchwheel channel=12 pitch=640 time=0.015231071875
EXTRACT: pitchwheel channel=12 pitch=768 time=0.015231071875
EXTRACT: pitchwheel channel=12 pitch=896 time=0.015231071875
EXTRACT: pitchwheel channel=12 pitch=1024 time=0.015231071875
EXTRACT: pitchwheel channel=12 pitch=1152 time=0.015231071875
EXTRACT: pitchwheel channel=12 pitch=1280 time=0.015231071875
EXTRACT: pitchwheel channel=12 pitch=1408 time=0.015231071875
EXTRACT: pitchwheel channel=12 pitch=1536 time=0.015231071875
EXTRACT: pitchwheel channel=12 pitch=1664 time=0.015231071875
EXTRACT: pitchwheel channel=12 pitch=1792 time=0.015231071875
EXTRACT: pitchwheel channel=12 pitch=1920 time=0.015231071875
EXTRACT: pitchwheel channel=12 pitch=2048 time=0.015231071875
EXTRACT: note_off channel=0 note=33 velocity=95 time=0.00840335
EXTRACT: note_on channel=0 note=33 velocity=95 time=0
EXTRACT: note_off channel=2 note=76 velocity=95 time=0
EXTRACT: note_off channel=2 note=72 velocity=95 time=0
EXTRACT: note_off channel=2 note=69 velocity=95 time=0
EXTRACT: note_off channel=2 note=45 velocity=95 time=0
EXTRACT: note_off channel=2 note=57 velocity=95 time=0
EXTRACT: note_on channel=2 note=45 velocity=95 time=0
EXTRACT: note_on channel=2 note=57 velocity=95 time=0
EXTRACT: pitchwheel channel=12 pitch=2176 time=0.0068277218750000005
EXTRACT: pitchwheel channel=12 pitch=2304 time=0.015231071875
EXTRACT: pitchwheel channel=12 pitch=2432 time=0.015231071875
EXTRACT: pitchwheel channel=12 pitch=2560 time=0.015231071875
EXTRACT: pitchwheel channel=12 pitch=2688 time=0.015231071875
EXTRACT: pitchwheel channel=12 pitch=2816 time=0.015231071875
EXTRACT: pitchwheel channel=12 pitch=2944 time=0.015231071875
EXTRACT: pitchwheel channel=12 pitch=3072 time=0.015231071875
EXTRACT: note_off channel=9 note=36 velocity=95 time=0.012605025
EXTRACT: note_on channel=9 note=47 velocity=95 time=0
EXTRACT: pitchwheel channel=12 pitch=3200 time=0.0026260468750000003
EXTRACT: pitchwheel channel=12 pitch=3328 time=0.015231071875
EXTRACT: pitchwheel channel=12 pitch=3456 time=0.015231071875
EXTRACT: pitchwheel channel=12 pitch=3584 time=0.015231071875
EXTRACT: pitchwheel channel=12 pitch=3712 time=0.015231071875
EXTRACT: pitchwheel channel=12 pitch=3840 time=0.015231071875
EXTRACT: pitchwheel channel=12 pitch=3968 time=0.015231071875
EXTRACT: pitchwheel channel=12 pitch=4096 time=0.015231071875
EXTRACT: pitchwheel channel=12 pitch=4224 time=0.015231071875
EXTRACT: note_off channel=1 note=64 velocity=95 time=0.001575628125
EXTRACT: note_on channel=1 note=64 velocity=95 time=0
EXTRACT: note_off channel=0 note=33 velocity=95 time=0
EXTRACT: note_on channel=0 note=33 velocity=95 time=0
EXTRACT: note_off channel=9 note=49 velocity=95 time=0
EXTRACT: note_off channel=2 note=45 velocity=95 time=0
EXTRACT: note_off channel=2 note=57 velocity=95 time=0
EXTRACT: note_on channel=2 note=45 velocity=95 time=0
EXTRACT: note_on channel=2 note=57 velocity=95 time=0
EXTRACT: pitchwheel channel=12 pitch=4352 time=0.013655443750000001
EXTRACT: pitchwheel channel=12 pitch=4480 time=0.015231071875
EXTRACT: pitchwheel channel=12 pitch=4608 time=0.015231071875
EXTRACT: pitchwheel channel=12 pitch=4736 time=0.015231071875
EXTRACT: pitchwheel channel=12 pitch=4864 time=0.015231071875
EXTRACT: pitchwheel channel=12 pitch=4992 time=0.015231071875
EXTRACT: pitchwheel channel=12 pitch=5120 time=0.015231071875
EXTRACT: pitchwheel channel=12 pitch=5248 time=0.015231071875
EXTRACT: note_off channel=9 note=47 velocity=95 time=0.005777303125
EXTRACT: note_on channel=9 note=47 velocity=95 time=0
EXTRACT: pitchwheel channel=12 pitch=5376 time=0.009453768750000001
EXTRACT: pitchwheel channel=12 pitch=5504 time=0.015231071875
EXTRACT: pitchwheel channel=12 pitch=5632 time=0.015231071875
EXTRACT: pitchwheel channel=12 pitch=5760 time=0.015231071875
EXTRACT: pitchwheel channel=12 pitch=5888 time=0.015231071875
EXTRACT: pitchwheel channel=12 pitch=6016 time=0.015231071875
EXTRACT: pitchwheel channel=12 pitch=6144 time=0.015231071875
EXTRACT: pitchwheel channel=12 pitch=6272 time=0.015231071875
EXTRACT: note_off channel=0 note=33 velocity=95 time=0.009978978125000001
EXTRACT: note_on channel=0 note=33 velocity=95 time=0
EXTRACT: note_off channel=9 note=47 velocity=95 time=0
EXTRACT: note_on channel=9 note=47 velocity=95 time=0
EXTRACT: note_off channel=2 note=45 velocity=95 time=0
EXTRACT: note_off channel=2 note=57 velocity=95 time=0
EXTRACT: note_on channel=2 note=45 velocity=95 time=0
EXTRACT: note_on channel=2 note=57 velocity=95 time=0
EXTRACT: pitchwheel channel=12 pitch=6400 time=0.005252093750000001
EXTRACT: pitchwheel channel=12 pitch=6528 time=0.015231071875
EXTRACT: pitchwheel channel=12 pitch=6656 time=0.015231071875
EXTRACT: pitchwheel channel=12 pitch=6784 time=0.015231071875
EXTRACT: pitchwheel channel=12 pitch=6912 time=0.015231071875
EXTRACT: pitchwheel channel=12 pitch=7040 time=0.015231071875
EXTRACT: pitchwheel channel=12 pitch=7168 time=0.015231071875
EXTRACT: pitchwheel channel=12 pitch=7296 time=0.015231071875
EXTRACT: pitchwheel channel=12 pitch=7424 time=0.015231071875
EXTRACT: pitchwheel channel=12 pitch=7552 time=0.015231071875
EXTRACT: pitchwheel channel=12 pitch=7680 time=0.015231071875
EXTRACT: pitchwheel channel=12 pitch=7808 time=0.015231071875
EXTRACT: pitchwheel channel=12 pitch=7936 time=0.015231071875
EXTRACT: pitchwheel channel=12 pitch=8064 time=0.015231071875
EXTRACT: pitchwheel channel=12 pitch=8064 time=0.015231071875
EXTRACT: pitchwheel channel=12 pitch=8064 time=0.015231071875
EXTRACT: pitchwheel channel=12 pitch=8064 time=0.015231071875
EXTRACT: note_off channel=1 note=64 velocity=95 time=0.00315125625
EXTRACT: note_on channel=1 note=64 velocity=95 time=0
EXTRACT: note_off channel=0 note=33 velocity=95 time=0
EXTRACT: note_on channel=0 note=33 velocity=95 time=0
EXTRACT: note_off channel=9 note=47 velocity=95 time=0
EXTRACT: note_off channel=2 note=45 velocity=95 time=0
EXTRACT: note_off channel=2 note=57 velocity=95 time=0
EXTRACT: note_on channel=2 note=45 velocity=95 time=0
EXTRACT: note_on channel=2 note=57 velocity=95 time=0
EXTRACT: pitchwheel channel=12 pitch=8064 time=0
EXTRACT: note_on channel=9 note=47 velocity=95 time=0.12605025
EXTRACT: note_off channel=0 note=33 velocity=95 time=0.12605025
EXTRACT: note_on channel=0 note=33 velocity=95 time=0
EXTRACT: note_off channel=9 note=47 velocity=95 time=0
EXTRACT: note_on channel=9 note=47 velocity=95 time=0
EXTRACT: note_off channel=2 note=45 velocity=95 time=0
EXTRACT: note_off channel=2 note=57 velocity=95 time=0
EXTRACT: note_on channel=2 note=45 velocity=95 time=0
EXTRACT: note_on channel=2 note=57 velocity=95 time=0
EXTRACT: note_off channel=9 note=47 velocity=95 time=0.12605025
EXTRACT: note_on channel=9 note=47 velocity=95 time=0
EXTRACT: note_off channel=1 note=64 velocity=95 time=0.12605025
EXTRACT: note_on channel=1 note=64 velocity=95 time=0
EXTRACT: note_off channel=0 note=33 velocity=95 time=0
EXTRACT: note_on channel=0 note=33 velocity=95 time=0
EXTRACT: note_off channel=9 note=47 velocity=95 time=0
EXTRACT: note_on channel=9 note=47 velocity=95 time=0
EXTRACT: note_on channel=9 note=36 velocity=95 time=0
EXTRACT: note_off channel=2 note=45 velocity=95 time=0
EXTRACT: note_off channel=2 note=57 velocity=95 time=0
EXTRACT: note_on channel=2 note=81 velocity=95 time=0
EXTRACT: note_on channel=2 note=69 velocity=95 time=0
EXTRACT: note_on channel=2 note=45 velocity=95 time=0
EXTRACT: note_on channel=2 note=57 velocity=95 time=0
EXTRACT: pitchwheel channel=12 pitch=8064 time=0.16806700000000002
EXTRACT: note_off channel=0 note=33 velocity=95 time=0.08403350000000001
EXTRACT: note_on channel=0 note=33 velocity=95 time=0
EXTRACT: note_off channel=9 note=47 velocity=95 time=0
EXTRACT: note_off channel=9 note=36 velocity=95 time=0
EXTRACT: note_on channel=9 note=45 velocity=95 time=0
EXTRACT: note_on channel=9 note=36 velocity=95 time=0
EXTRACT: note_off channel=2 note=81 velocity=95 time=0
EXTRACT: note_off channel=2 note=69 velocity=95 time=0
EXTRACT: note_off channel=2 note=45 velocity=95 time=0
EXTRACT: note_off channel=2 note=57 velocity=95 time=0
EXTRACT: note_on channel=2 note=45 velocity=95 time=0
EXTRACT: note_on channel=2 note=57 velocity=95 time=0
EXTRACT: note_off channel=1 note=64 velocity=95 time=0.2521005
EXTRACT: note_on channel=1 note=64 velocity=95 time=0
EXTRACT: note_off channel=0 note=33 velocity=95 time=0
EXTRACT: note_on channel=0 note=33 velocity=95 time=0
EXTRACT: note_off channel=9 note=45 velocity=95 time=0
EXTRACT: note_off channel=9 note=36 velocity=95 time=0
EXTRACT: note_on channel=9 note=49 velocity=95 time=0
EXTRACT: note_on channel=9 note=36 velocity=95 time=0
EXTRACT: note_off channel=2 note=45 velocity=95 time=0
EXTRACT: note_off channel=2 note=57 velocity=95 time=0
EXTRACT: note_on channel=2 note=76 velocity=95 time=0
EXTRACT: note_on channel=2 note=69 velocity=95 time=0
EXTRACT: note_on channel=2 note=45 velocity=95 time=0
EXTRACT: note_on channel=2 note=57 velocity=95 time=0
EXTRACT: note_off channel=4 note=64 velocity=95 time=0
EXTRACT: note_off channel=4 note=60 velocity=95 time=0
EXTRACT: note_off channel=4 note=57 velocity=95 time=0
EXTRACT: note_off channel=4 note=52 velocity=95 time=0
EXTRACT: note_off channel=4 note=45 velocity=95 time=0
EXTRACT: note_on channel=4 note=67 velocity=95 time=0
EXTRACT: note_on channel=4 note=60 velocity=95 time=0
EXTRACT: note_on channel=4 note=57 velocity=95 time=0
EXTRACT: note_on channel=4 note=52 velocity=95 time=0
EXTRACT: note_on channel=4 note=45 velocity=95 time=0
EXTRACT: note_off channel=0 note=33 velocity=95 time=0.2521005
EXTRACT: note_on channel=0 note=33 velocity=95 time=0
EXTRACT: note_off channel=2 note=76 velocity=95 time=0
EXTRACT: note_off channel=2 note=69 velocity=95 time=0
EXTRACT: note_off channel=2 note=45 velocity=95 time=0
EXTRACT: note_off channel=2 note=57 velocity=95 time=0
EXTRACT: note_on channel=2 note=45 velocity=95 time=0
EXTRACT: note_on channel=2 note=57 velocity=95 time=0
EXTRACT: pitchwheel channel=12 pitch=8064 time=0.08403350000000001
EXTRACT: note_off channel=9 note=36 velocity=95 time=0.042016750000000005
EXTRACT: note_on channel=9 note=48 velocity=95 time=0
EXTRACT: note_off channel=1 note=64 velocity=95 time=0.12605025
EXTRACT: note_off channel=0 note=33 velocity=95 time=0
EXTRACT: note_on channel=0 note=33 velocity=95 time=0
EXTRACT: note_off channel=9 note=49 velocity=95 time=0
EXTRACT: note_off channel=2 note=45 velocity=95 time=0
EXTRACT: note_off channel=2 note=57 velocity=95 time=0
EXTRACT: note_on channel=2 note=81 velocity=95 time=0
EXTRACT: note_on channel=2 note=76 velocity=95 time=0
EXTRACT: note_on channel=2 note=69 velocity=95 time=0
EXTRACT: note_on channel=2 note=45 velocity=95 time=0
EXTRACT: note_on channel=2 note=57 velocity=95 time=0
EXTRACT: note_off channel=9 note=48 velocity=95 time=0.12605025
EXTRACT: note_on channel=9 note=48 velocity=95 time=0
EXTRACT: note_off channel=0 note=33 velocity=95 time=0.12605025
EXTRACT: note_on channel=0 note=33 velocity=95 time=0
EXTRACT: note_off channel=9 note=48 velocity=95 time=0
EXTRACT: note_on channel=9 note=48 velocity=95 time=0
EXTRACT: note_off channel=2 note=81 velocity=95 time=0
EXTRACT: note_off channel=2 note=76 velocity=95 time=0
EXTRACT: note_off channel=2 note=69 velocity=95 time=0
EXTRACT: note_off channel=2 note=45 velocity=95 time=0
EXTRACT: note_off channel=2 note=57 velocity=95 time=0
EXTRACT: note_on channel=2 note=45 velocity=95 time=0
EXTRACT: note_on channel=2 note=57 velocity=95 time=0
EXTRACT: note_off channel=0 note=33 velocity=95 time=0.2521005
EXTRACT: note_on channel=0 note=33 velocity=95 time=0
EXTRACT: note_off channel=9 note=48 velocity=95 time=0
EXTRACT: note_on channel=9 note=48 velocity=95 time=0
EXTRACT: note_off channel=2 note=45 velocity=95 time=0
EXTRACT: note_off channel=2 note=57 velocity=95 time=0
EXTRACT: note_on channel=2 note=81 velocity=95 time=0
EXTRACT: note_on channel=2 note=69 velocity=95 time=0
EXTRACT: note_on channel=2 note=45 velocity=95 time=0
EXTRACT: note_on channel=2 note=57 velocity=95 time=0
EXTRACT: pitchwheel channel=12 pitch=8064 time=0
EXTRACT: pitchwheel channel=12 pitch=8064 time=0
EXTRACT: note_off channel=9 note=48 velocity=95 time=0.08403350000000001
EXTRACT: note_on channel=9 note=48 velocity=95 time=0
EXTRACT: note_off channel=9 note=48 velocity=95 time=0.08403350000000001
EXTRACT: note_on channel=9 note=48 velocity=95 time=0
EXTRACT: note_off channel=0 note=33 velocity=95 time=0.08403350000000001
EXTRACT: note_on channel=0 note=33 velocity=95 time=0
EXTRACT: note_off channel=9 note=48 velocity=95 time=0
EXTRACT: note_on channel=9 note=48 velocity=95 time=0
EXTRACT: note_off channel=2 note=81 velocity=95 time=0
EXTRACT: note_off channel=2 note=69 velocity=95 time=0
EXTRACT: note_off channel=2 note=45 velocity=95 time=0
EXTRACT: note_off channel=2 note=57 velocity=95 time=0
EXTRACT: note_on channel=2 note=45 velocity=95 time=0
EXTRACT: note_on channel=2 note=57 velocity=95 time=0
EXTRACT: note_off channel=9 note=48 velocity=95 time=0.08403350000000001
EXTRACT: note_on channel=9 note=48 velocity=95 time=0
EXTRACT: pitchwheel channel=12 pitch=8064 time=0
EXTRACT: note_off channel=9 note=48 velocity=95 time=0.08403350000000001
EXTRACT: note_on channel=9 note=48 velocity=95 time=0
EXTRACT: note_off channel=0 note=33 velocity=95 time=0.08403350000000001
EXTRACT: note_on channel=0 note=33 velocity=95 time=0
EXTRACT: note_off channel=9 note=48 velocity=95 time=0
EXTRACT: note_on channel=9 note=45 velocity=95 time=0
EXTRACT: note_off channel=2 note=45 velocity=95 time=0
EXTRACT: note_off channel=2 note=57 velocity=95 time=0
EXTRACT: note_on channel=2 note=76 velocity=95 time=0
EXTRACT: note_on channel=2 note=69 velocity=95 time=0
EXTRACT: note_on channel=2 note=45 velocity=95 time=0
EXTRACT: note_on channel=2 note=57 velocity=95 time=0
EXTRACT: note_off channel=9 note=45 velocity=95 time=0.08403350000000001
EXTRACT: note_on channel=9 note=45 velocity=95 time=0
EXTRACT: note_off channel=9 note=45 velocity=95 time=0.08403350000000001
EXTRACT: note_on channel=9 note=45 velocity=95 time=0
EXTRACT: pitchwheel channel=12 pitch=8064 time=0
EXTRACT: note_on channel=1 note=61 velocity=95 time=0.08403350000000001
EXTRACT: note_off channel=0 note=33 velocity=95 time=0
EXTRACT: note_on channel=0 note=33 velocity=95 time=0
EXTRACT: note_off channel=9 note=45 velocity=95 time=0
EXTRACT: note_on channel=9 note=45 velocity=95 time=0
EXTRACT: note_off channel=2 note=76 velocity=95 time=0
EXTRACT: note_off channel=2 note=69 velocity=95 time=0
EXTRACT: note_off channel=2 note=45 velocity=95 time=0
EXTRACT: note_off channel=2 note=57 velocity=95 time=0
EXTRACT: note_on channel=2 note=45 velocity=95 time=0
EXTRACT: note_on channel=2 note=57 velocity=95 time=0
EXTRACT: note_off channel=9 note=45 velocity=95 time=0.08403350000000001
EXTRACT: note_on channel=9 note=45 velocity=95 time=0
EXTRACT: note_off channel=9 note=45 velocity=95 time=0.08403350000000001
EXTRACT: note_on channel=9 note=45 velocity=95 time=0
EXTRACT: note_off channel=1 note=61 velocity=95 time=0.08403350000000001
EXTRACT: note_on channel=1 note=61 velocity=95 time=0
EXTRACT: note_off channel=0 note=33 velocity=95 time=0
EXTRACT: note_on channel=0 note=33 velocity=95 time=0
EXTRACT: note_off channel=9 note=45 velocity=95 time=0
EXTRACT: note_on channel=9 note=49 velocity=95 time=0
EXTRACT: note_on channel=9 note=48 velocity=95 time=0
EXTRACT: note_on channel=9 note=36 velocity=95 time=0
EXTRACT: note_on channel=9 note=45 velocity=95 time=0
EXTRACT: note_off channel=2 note=45 velocity=95 time=0
EXTRACT: note_off channel=2 note=57 velocity=95 time=0
EXTRACT: note_on channel=2 note=73 velocity=95 time=0
EXTRACT: note_on channel=2 note=69 velocity=95 time=0
EXTRACT: note_on channel=2 note=64 velocity=95 time=0
EXTRACT: note_on channel=2 note=57 velocity=95 time=0
EXTRACT: note_on channel=2 note=45 velocity=95 time=0
EXTRACT: note_off channel=4 note=67 velocity=95 time=0
EXTRACT: note_off channel=4 note=60 velocity=95 time=0
EXTRACT: note_off channel=4 note=57 velocity=95 time=0
EXTRACT: note_off channel=4 note=52 velocity=95 time=0
EXTRACT: note_off channel=4 note=45 velocity=95 time=0
EXTRACT: note_on channel=4 note=64 velocity=95 time=0
EXTRACT: note_on channel=4 note=61 velocity=95 time=0
EXTRACT: note_on channel=4 note=57 velocity=95 time=0
EXTRACT: note_on channel=4 note=52 velocity=95 time=0
EXTRACT: note_on channel=4 note=45 velocity=95 time=0
EXTRACT: pitchwheel channel=12 pitch=8064 time=0
EXTRACT: pitchwheel channel=12 pitch=8064 time=0
EXTRACT: pitchwheel channel=12 pitch=0 time=0
EXTRACT: note_off channel=12 note=69 velocity=95 time=0
EXTRACT: note_off channel=1 note=61 velocity=95 time=0.2521005
EXTRACT: note_on channel=1 note=59 velocity=95 time=0
EXTRACT: note_off channel=0 note=33 velocity=95 time=0
EXTRACT: note_on channel=0 note=33 velocity=95 time=0
EXTRACT: note_off channel=9 note=48 velocity=95 time=0
EXTRACT: note_off channel=9 note=36 velocity=95 time=0
EXTRACT: note_off channel=9 note=45 velocity=95 time=0
EXTRACT: note_on channel=9 note=48 velocity=95 time=0
EXTRACT: note_on channel=9 note=36 velocity=95 time=0
EXTRACT: note_on channel=9 note=45 velocity=95 time=0
EXTRACT: note_off channel=2 note=73 velocity=95 time=0
EXTRACT: note_off channel=2 note=69 velocity=95 time=0
EXTRACT: note_off channel=2 note=64 velocity=95 time=0
EXTRACT: note_off channel=2 note=57 velocity=95 time=0
EXTRACT: note_off channel=2 note=45 velocity=95 time=0
EXTRACT: note_on channel=2 note=57 velocity=95 time=0
EXTRACT: note_on channel=2 note=45 velocity=95 time=0
EXTRACT: note_off channel=1 note=59 velocity=95 time=0.2521005
EXTRACT: note_on channel=1 note=61 velocity=95 time=0
EXTRACT: note_off channel=0 note=33 velocity=95 time=0
EXTRACT: note_on channel=0 note=33 velocity=95 time=0
EXTRACT: note_off channel=9 note=49 velocity=95 time=0
EXTRACT: note_off channel=9 note=48 velocity=95 time=0
EXTRACT: note_off channel=9 note=36 velocity=95 time=0
EXTRACT: note_off channel=9 note=45 velocity=95 time=0
EXTRACT: note_on channel=9 note=48 velocity=95 time=0
EXTRACT: note_on channel=9 note=36 velocity=95 time=0
EXTRACT: note_on channel=9 note=45 velocity=95 time=0
EXTRACT: note_off channel=2 note=57 velocity=95 time=0
EXTRACT: note_off channel=2 note=45 velocity=95 time=0
EXTRACT: note_on channel=2 note=57 velocity=95 time=0
EXTRACT: note_on channel=2 note=45 velocity=95 time=0
EXTRACT: note_off channel=1 note=61 velocity=95 time=0.2521005
EXTRACT: note_on channel=1 note=62 velocity=95 time=0
EXTRACT: note_off channel=0 note=33 velocity=95 time=0
EXTRACT: note_on channel=0 note=33 velocity=95 time=0
EXTRACT: note_off channel=9 note=48 velocity=95 time=0
EXTRACT: note_off channel=9 note=36 velocity=95 time=0
EXTRACT: note_off channel=9 note=45 velocity=95 time=0
EXTRACT: note_on channel=9 note=48 velocity=95 time=0
EXTRACT: note_on channel=9 note=36 velocity=95 time=0
EXTRACT: note_on channel=9 note=45 velocity=95 time=0
EXTRACT: note_off channel=2 note=57 velocity=95 time=0
EXTRACT: note_off channel=2 note=45 velocity=95 time=0
EXTRACT: note_on channel=2 note=57 velocity=95 time=0
EXTRACT: note_on channel=2 note=45 velocity=95 time=0
EXTRACT: note_off channel=0 note=33 velocity=95 time=0.2521005
EXTRACT: note_on channel=0 note=33 velocity=95 time=0
EXTRACT: note_off channel=9 note=48 velocity=95 time=0
EXTRACT: note_off channel=9 note=36 velocity=95 time=0
EXTRACT: note_off channel=9 note=45 velocity=95 time=0
EXTRACT: note_on channel=9 note=48 velocity=95 time=0
EXTRACT: note_on channel=9 note=36 velocity=95 time=0
EXTRACT: note_on channel=9 note=45 velocity=95 time=0
EXTRACT: note_off channel=2 note=57 velocity=95 time=0
EXTRACT: note_off channel=2 note=45 velocity=95 time=0
EXTRACT: note_on channel=2 note=57 velocity=95 time=0
EXTRACT: note_on channel=2 note=45 velocity=95 time=0
EXTRACT: note_off channel=1 note=62 velocity=95 time=0.2521005
EXTRACT: note_on channel=1 note=61 velocity=95 time=0
EXTRACT: note_off channel=0 note=33 velocity=95 time=0
EXTRACT: note_on channel=0 note=33 velocity=95 time=0
EXTRACT: note_off channel=9 note=48 velocity=95 time=0
EXTRACT: note_off channel=9 note=36 velocity=95 time=0
EXTRACT: note_off channel=9 note=45 velocity=95 time=0
EXTRACT: note_on channel=9 note=48 velocity=95 time=0
EXTRACT: note_on channel=9 note=36 velocity=95 time=0
EXTRACT: note_on channel=9 note=45 velocity=95 time=0
EXTRACT: note_off channel=2 note=57 velocity=95 time=0
EXTRACT: note_off channel=2 note=45 velocity=95 time=0
EXTRACT: note_on channel=2 note=57 velocity=95 time=0
EXTRACT: note_on channel=2 note=45 velocity=95 time=0
EXTRACT: note_off channel=1 note=61 velocity=95 time=0.2521005
EXTRACT: note_off channel=0 note=33 velocity=95 time=0
EXTRACT: note_on channel=0 note=33 velocity=95 time=0
EXTRACT: note_off channel=9 note=48 velocity=95 time=0
EXTRACT: note_off channel=9 note=36 velocity=95 time=0
EXTRACT: note_off channel=9 note=45 velocity=95 time=0
EXTRACT: note_on channel=9 note=48 velocity=95 time=0
EXTRACT: note_on channel=9 note=36 velocity=95 time=0
EXTRACT: note_on channel=9 note=45 velocity=95 time=0
EXTRACT: note_off channel=2 note=57 velocity=95 time=0
EXTRACT: note_off channel=2 note=45 velocity=95 time=0
EXTRACT: note_on channel=2 note=57 velocity=95 time=0
EXTRACT: note_on channel=2 note=45 velocity=95 time=0
EXTRACT: note_on channel=1 note=62 velocity=95 time=0.2521005
EXTRACT: note_off channel=0 note=33 velocity=95 time=0
EXTRACT: note_on channel=0 note=33 velocity=95 time=0
EXTRACT: note_off channel=9 note=48 velocity=95 time=0
EXTRACT: note_off channel=9 note=36 velocity=95 time=0
EXTRACT: note_off channel=9 note=45 velocity=95 time=0
EXTRACT: note_on channel=9 note=48 velocity=95 time=0
EXTRACT: note_on channel=9 note=36 velocity=95 time=0
EXTRACT: note_on channel=9 note=45 velocity=95 time=0
EXTRACT: note_off channel=2 note=57 velocity=95 time=0
EXTRACT: note_off channel=2 note=45 velocity=95 time=0
EXTRACT: note_on channel=2 note=57 velocity=95 time=0
EXTRACT: note_on channel=2 note=45 velocity=95 time=0
EXTRACT: note_off channel=1 note=62 velocity=95 time=0
EXTRACT: note_on channel=1 note=64 velocity=95 time=0
EXTRACT: note_off channel=0 note=33 velocity=95 time=0
EXTRACT: note_on channel=0 note=33 velocity=95 time=0
EXTRACT: note_off channel=9 note=48 velocity=95 time=0
EXTRACT: note_off channel=9 note=36 velocity=95 time=0
EXTRACT: note_off channel=9 note=45 velocity=95 time=0
EXTRACT: note_on channel=9 note=48 velocity=95 time=0
EXTRACT: note_on channel=9 note=36 velocity=95 time=0
EXTRACT: note_on channel=9 note=45 velocity=95 time=0
EXTRACT: note_off channel=2 note=57 velocity=95 time=0
EXTRACT: note_off channel=2 note=45 velocity=95 time=0
EXTRACT: note_on channel=2 note=73 velocity=47 time=0
EXTRACT: note_on channel=2 note=64 velocity=47 time=0
EXTRACT: note_on channel=2 note=57 velocity=95 time=0
EXTRACT: note_on channel=2 note=45 velocity=95 time=0
EXTRACT: note_off channel=1 note=64 velocity=95 time=0.267857
EXTRACT: note_on channel=1 note=62 velocity=95 time=0
EXTRACT: note_off channel=0 note=33 velocity=95 time=0
EXTRACT: note_on channel=0 note=33 velocity=95 time=0
EXTRACT: note_off channel=9 note=48 velocity=95 time=0
EXTRACT: note_off channel=9 note=36 velocity=95 time=0
EXTRACT: note_off channel=9 note=45 velocity=95 time=0
EXTRACT: note_on channel=9 note=48 velocity=95 time=0
EXTRACT: note_on channel=9 note=36 velocity=95 time=0
EXTRACT: note_on channel=9 note=45 velocity=95 time=0
EXTRACT: note_off channel=2 note=73 velocity=47 time=0
EXTRACT: note_off channel=2 note=64 velocity=47 time=0
EXTRACT: note_off channel=2 note=57 velocity=95 time=0
EXTRACT: note_off channel=2 note=45 velocity=95 time=0
EXTRACT: note_on channel=2 note=57 velocity=95 time=0
EXTRACT: note_on channel=2 note=45 velocity=95 time=0
EXTRACT: note_off channel=1 note=62 velocity=95 time=0.267857
EXTRACT: note_on channel=1 note=64 velocity=95 time=0
EXTRACT: note_off channel=0 note=33 velocity=95 time=0
EXTRACT: note_on channel=0 note=33 velocity=95 time=0
EXTRACT: note_off channel=9 note=48 velocity=95 time=0
EXTRACT: note_off channel=9 note=36 velocity=95 time=0
EXTRACT: note_off channel=9 note=45 velocity=95 time=0
EXTRACT: note_on channel=9 note=48 velocity=95 time=0
EXTRACT: note_on channel=9 note=36 velocity=95 time=0
EXTRACT: note_on channel=9 note=45 velocity=95 time=0
EXTRACT: note_off channel=2 note=57 velocity=95 time=0
EXTRACT: note_off channel=2 note=45 velocity=95 time=0
EXTRACT: note_on channel=2 note=57 velocity=95 time=0
EXTRACT: note_on channel=2 note=45 velocity=95 time=0
EXTRACT: note_off channel=1 note=64 velocity=95 time=0.267857
EXTRACT: note_on channel=1 note=66 velocity=95 time=0
EXTRACT: note_off channel=0 note=33 velocity=95 time=0
EXTRACT: note_on channel=0 note=33 velocity=95 time=0
EXTRACT: note_off channel=9 note=48 velocity=95 time=0
EXTRACT: note_off channel=9 note=36 velocity=95 time=0
EXTRACT: note_off channel=9 note=45 velocity=95 time=0
EXTRACT: note_on channel=9 note=48 velocity=95 time=0
EXTRACT: note_on channel=9 note=36 velocity=95 time=0
EXTRACT: note_on channel=9 note=45 velocity=95 time=0
EXTRACT: note_off channel=2 note=57 velocity=95 time=0
EXTRACT: note_off channel=2 note=45 velocity=95 time=0
EXTRACT: note_on channel=2 note=57 velocity=95 time=0
EXTRACT: note_on channel=2 note=45 velocity=95 time=0
EXTRACT: note_off channel=0 note=33 velocity=95 time=0.267857
EXTRACT: note_on channel=0 note=33 velocity=95 time=0
EXTRACT: note_off channel=9 note=48 velocity=95 time=0
EXTRACT: note_off channel=9 note=36 velocity=95 time=0
EXTRACT: note_off channel=9 note=45 velocity=95 time=0
EXTRACT: note_on channel=9 note=48 velocity=95 time=0
EXTRACT: note_on channel=9 note=36 velocity=95 time=0
EXTRACT: note_on channel=9 note=45 velocity=95 time=0
EXTRACT: note_off channel=2 note=57 velocity=95 time=0
EXTRACT: note_off channel=2 note=45 velocity=95 time=0
EXTRACT: note_on channel=2 note=57 velocity=95 time=0
EXTRACT: note_on channel=2 note=45 velocity=95 time=0
EXTRACT: note_off channel=1 note=66 velocity=95 time=0.267857
EXTRACT: note_on channel=1 note=67 velocity=95 time=0
EXTRACT: note_off channel=0 note=33 velocity=95 time=0
EXTRACT: note_off channel=9 note=48 velocity=95 time=0
EXTRACT: note_off channel=9 note=36 velocity=95 time=0
EXTRACT: note_off channel=9 note=45 velocity=95 time=0
EXTRACT: note_on channel=9 note=48 velocity=95 time=0
EXTRACT: note_on channel=9 note=36 velocity=95 time=0
EXTRACT: note_on channel=9 note=45 velocity=95 time=0
EXTRACT: note_off channel=2 note=57 velocity=95 time=0
EXTRACT: note_off channel=2 note=45 velocity=95 time=0
EXTRACT: note_off channel=1 note=67 velocity=95 time=0.267857
EXTRACT: note_on channel=0 note=43 velocity=95 time=0
EXTRACT: note_off channel=9 note=48 velocity=95 time=0
EXTRACT: note_off channel=9 note=36 velocity=95 time=0
EXTRACT: note_off channel=9 note=45 velocity=95 time=0
EXTRACT: note_on channel=9 note=49 velocity=95 time=0
EXTRACT: note_on channel=9 note=48 velocity=95 time=0
EXTRACT: note_on channel=9 note=36 velocity=95 time=0
EXTRACT: note_on channel=9 note=45 velocity=95 time=0
EXTRACT: note_on channel=2 note=67 velocity=127 time=0
EXTRACT: note_on channel=2 note=62 velocity=127 time=0
EXTRACT: note_on channel=2 note=59 velocity=127 time=0
EXTRACT: note_on channel=2 note=55 velocity=127 time=0
EXTRACT: note_off channel=4 note=64 velocity=95 time=0
EXTRACT: note_off channel=4 note=61 velocity=95 time=0
EXTRACT: note_off channel=4 note=57 velocity=95 time=0
EXTRACT: note_off channel=4 note=52 velocity=95 time=0
EXTRACT: note_off channel=4 note=45 velocity=95 time=0
EXTRACT: note_on channel=4 note=67 velocity=95 time=0
EXTRACT: note_on channel=4 note=59 velocity=95 time=0
EXTRACT: note_on channel=4 note=55 velocity=95 time=0
EXTRACT: note_on channel=4 note=50 velocity=95 time=0
EXTRACT: note_on channel=4 note=43 velocity=95 time=0
EXTRACT: note_on channel=11 note=71 velocity=95 time=0
EXTRACT: note_off channel=11 note=71 velocity=95 time=0.267857
EXTRACT: note_on channel=11 note=69 velocity=95 time=0
EXTRACT: note_off channel=0 note=43 velocity=95 time=0
EXTRACT: note_on channel=0 note=38 velocity=95 time=0
EXTRACT: note_off channel=9 note=49 velocity=95 time=0
EXTRACT: note_off channel=9 note=48 velocity=95 time=0
EXTRACT: note_off channel=9 note=36 velocity=95 time=0
EXTRACT: note_off channel=9 note=45 velocity=95 time=0
EXTRACT: note_on channel=9 note=49 velocity=95 time=0
EXTRACT: note_on channel=9 note=36 velocity=95 time=0
EXTRACT: note_off channel=2 note=67 velocity=127 time=0
EXTRACT: note_off channel=2 note=62 velocity=127 time=0
EXTRACT: note_off channel=2 note=59 velocity=127 time=0
EXTRACT: note_off channel=2 note=55 velocity=127 time=0
EXTRACT: note_on channel=2 note=69 velocity=127 time=0
EXTRACT: note_on channel=2 note=66 velocity=127 time=0
EXTRACT: note_on channel=2 note=62 velocity=111 time=0
EXTRACT: note_on channel=2 note=50 velocity=95 time=0
EXTRACT: note_off channel=4 note=67 velocity=95 time=0
EXTRACT: note_off channel=4 note=59 velocity=95 time=0
EXTRACT: note_off channel=4 note=55 velocity=95 time=0
EXTRACT: note_off channel=4 note=50 velocity=95 time=0
EXTRACT: note_off channel=4 note=43 velocity=95 time=0
EXTRACT: note_on channel=4 note=66 velocity=95 time=0
EXTRACT: note_on channel=4 note=62 velocity=95 time=0
EXTRACT: note_on channel=4 note=57 velocity=95 time=0
EXTRACT: note_on channel=4 note=50 velocity=95 time=0
EXTRACT: note_off channel=11 note=69 velocity=95 time=0
EXTRACT: note_on channel=11 note=67 velocity=95 time=0
EXTRACT: note_off channel=11 note=67 velocity=95 time=0.13157875
EXTRACT: note_on channel=11 note=67 velocity=95 time=0
EXTRACT: note_off channel=11 note=67 velocity=95 time=0.2631575
EXTRACT: note_on channel=11 note=66 velocity=95 time=0
EXTRACT: note_off channel=0 note=38 velocity=95 time=0.13157875
EXTRACT: note_on channel=0 note=38 velocity=95 time=0
EXTRACT: note_off channel=9 note=49 velocity=95 time=0
EXTRACT: note_off channel=9 note=36 velocity=95 time=0
EXTRACT: note_on channel=9 note=49 velocity=95 time=0
EXTRACT: note_on channel=9 note=38 velocity=95 time=0
EXTRACT: note_off channel=4 note=66 velocity=95 time=0.2631575
EXTRACT: note_off channel=4 note=62 velocity=95 time=0
EXTRACT: note_off channel=4 note=57 velocity=95 time=0
EXTRACT: note_off channel=4 note=50 velocity=95 time=0
EXTRACT: note_on channel=4 note=66 velocity=95 time=0
EXTRACT: note_on channel=4 note=62 velocity=95 time=0
EXTRACT: note_on channel=4 note=57 velocity=95 time=0
EXTRACT: note_on channel=4 note=50 velocity=95 time=0
EXTRACT: note_off channel=9 note=38 velocity=95 time=0.13157875
EXTRACT: note_on channel=9 note=38 velocity=95 time=0
EXTRACT: note_off channel=11 note=66 velocity=95 time=0
EXTRACT: note_off channel=0 note=38 velocity=95 time=0.13157875
EXTRACT: note_on channel=0 note=38 velocity=95 time=0
EXTRACT: note_off channel=9 note=49 velocity=95 time=0
EXTRACT: note_off channel=9 note=38 velocity=95 time=0
EXTRACT: note_on channel=9 note=49 velocity=95 time=0
EXTRACT: note_on channel=9 note=36 velocity=95 time=0
EXTRACT: note_off channel=0 note=38 velocity=95 time=0.2631575
EXTRACT: note_on channel=0 note=38 velocity=95 time=0
EXTRACT: note_off channel=9 note=36 velocity=95 time=0
EXTRACT: note_on channel=9 note=36 velocity=95 time=0
EXTRACT: note_off channel=0 note=38 velocity=95 time=0.2631575
EXTRACT: note_on channel=0 note=38 velocity=95 time=0
EXTRACT: note_off channel=9 note=49 velocity=95 time=0
EXTRACT: note_off channel=9 note=36 velocity=95 time=0
EXTRACT: note_on channel=9 note=49 velocity=95 time=0
EXTRACT: note_on channel=11 note=66 velocity=95 time=0
EXTRACT: note_off channel=0 note=38 velocity=95 time=0.2631575
EXTRACT: note_on channel=0 note=38 velocity=95 time=0
EXTRACT: note_on channel=9 note=36 velocity=95 time=0
EXTRACT: note_off channel=11 note=66 velocity=95 time=0
EXTRACT: note_on channel=11 note=66 velocity=95 time=0
EXTRACT: note_off channel=9 note=36 velocity=95 time=0.13157875
EXTRACT: note_on channel=9 note=38 velocity=95 time=0
EXTRACT: note_off channel=0 note=38 velocity=95 time=0
EXTRACT: note_on channel=0 note=31 velocity=95 time=0
EXTRACT: note_off channel=9 note=49 velocity=95 time=0
EXTRACT: note_off channel=9 note=38 velocity=95 time=0
EXTRACT: note_on channel=9 note=49 velocity=95 time=0
EXTRACT: note_on channel=9 note=36 velocity=95 time=0
EXTRACT: note_off channel=2 note=69 velocity=127 time=0
EXTRACT: note_off channel=2 note=66 velocity=127 time=0
EXTRACT: note_off channel=2 note=62 velocity=111 time=0
EXTRACT: note_off channel=2 note=50 velocity=95 time=0
EXTRACT: note_off channel=4 note=66 velocity=95 time=0
EXTRACT: note_off channel=4 note=62 velocity=95 time=0
EXTRACT: note_off channel=4 note=57 velocity=95 time=0
EXTRACT: note_off channel=4 note=50 velocity=95 time=0
EXTRACT: note_on channel=4 note=67 velocity=95 time=0
EXTRACT: note_on channel=4 note=59 velocity=95 time=0
EXTRACT: note_on channel=4 note=55 velocity=95 time=0
EXTRACT: note_on channel=4 note=50 velocity=95 time=0
EXTRACT: note_on channel=4 note=43 velocity=95 time=0
EXTRACT: note_off channel=11 note=66 velocity=95 time=0
EXTRACT: note_on channel=11 note=64 velocity=95 time=0
EXTRACT: note_off channel=0 note=31 velocity=95 time=0.521739
EXTRACT: note_on channel=0 note=31 velocity=95 time=0
EXTRACT: note_off channel=9 note=49 velocity=95 time=0
EXTRACT: note_off channel=9 note=36 velocity=95 time=0
EXTRACT: note_on channel=9 note=49 velocity=95 time=0
EXTRACT: note_on channel=9 note=38 velocity=95 time=0
EXTRACT: note_off channel=11 note=64 velocity=95 time=0
EXTRACT: note_off channel=0 note=31 velocity=95 time=0.2608695
EXTRACT: note_on channel=0 note=33 velocity=95 time=0
EXTRACT: note_off channel=4 note=67 velocity=95 time=0
EXTRACT: note_off channel=4 note=59 velocity=95 time=0
EXTRACT: note_off channel=4 note=55 velocity=95 time=0
EXTRACT: note_off channel=4 note=50 velocity=95 time=0
EXTRACT: note_off channel=4 note=43 velocity=95 time=0
EXTRACT: note_on channel=4 note=64 velocity=95 time=0
EXTRACT: note_on channel=4 note=61 velocity=95 time=0
EXTRACT: note_on channel=4 note=57 velocity=95 time=0
EXTRACT: note_on channel=4 note=52 velocity=95 time=0
EXTRACT: note_on channel=4 note=45 velocity=95 time=0
EXTRACT: note_off channel=9 note=49 velocity=95 time=0.2608695
EXTRACT: note_off channel=9 note=38 velocity=95 time=0
EXTRACT: note_on channel=9 note=49 velocity=95 time=0
EXTRACT: note_on channel=9 note=36 velocity=95 time=0
EXTRACT: note_off channel=9 note=36 velocity=95 time=0.2608695
EXTRACT: note_on channel=9 note=36 velocity=95 time=0
EXTRACT: note_off channel=4 note=64 velocity=95 time=0
EXTRACT: note_off channel=4 note=61 velocity=95 time=0
EXTRACT: note_off channel=4 note=57 velocity=95 time=0
EXTRACT: note_off channel=4 note=52 velocity=95 time=0
EXTRACT: note_off channel=4 note=45 velocity=95 time=0
EXTRACT: note_on channel=11 note=71 velocity=95 time=0
EXTRACT: note_off channel=0 note=33 velocity=95 time=0.2608695
EXTRACT: note_on channel=0 note=43 velocity=95 time=0
EXTRACT: note_off channel=9 note=49 velocity=95 time=0
EXTRACT: note_off channel=9 note=36 velocity=95 time=0
EXTRACT: note_on channel=9 note=49 velocity=95 time=0
EXTRACT: note_on channel=9 note=36 velocity=95 time=0
EXTRACT: note_on channel=4 note=67 velocity=95 time=0
EXTRACT: note_on channel=4 note=59 velocity=95 time=0
EXTRACT: note_on channel=4 note=55 velocity=95 time=0
EXTRACT: note_on channel=4 note=50 velocity=95 time=0
EXTRACT: note_on channel=4 note=43 velocity=95 time=0
EXTRACT: note_off channel=11 note=71 velocity=95 time=0
EXTRACT: note_on channel=11 note=69 velocity=95 time=0
EXTRACT: note_on channel=2 note=71 velocity=95 time=0.2608695
EXTRACT: note_on channel=2 note=67 velocity=95 time=0
EXTRACT: note_on channel=2 note=62 velocity=95 time=0
EXTRACT: note_on channel=2 note=55 velocity=95 time=0
EXTRACT: note_on channel=2 note=43 velocity=95 time=0
EXTRACT: note_off channel=11 note=69 velocity=95 time=0
EXTRACT: note_on channel=11 note=66 velocity=95 time=0
EXTRACT: note_off channel=0 note=43 velocity=95 time=0.2608695
EXTRACT: note_on channel=0 note=38 velocity=95 time=0
EXTRACT: note_off channel=9 note=49 velocity=95 time=0
EXTRACT: note_off channel=9 note=36 velocity=95 time=0
EXTRACT: note_on channel=9 note=49 velocity=95 time=0
EXTRACT: note_on channel=9 note=36 velocity=95 time=0
EXTRACT: note_off channel=2 note=71 velocity=95 time=0
EXTRACT: note_off channel=2 note=67 velocity=95 time=0
EXTRACT: note_off channel=2 note=62 velocity=95 time=0
EXTRACT: note_off channel=2 note=55 velocity=95 time=0
EXTRACT: note_off channel=2 note=43 velocity=95 time=0
EXTRACT: note_on channel=2 note=69 velocity=127 time=0
EXTRACT: note_on channel=2 note=66 velocity=127 time=0
EXTRACT: note_on channel=2 note=62 velocity=95 time=0
EXTRACT: note_on channel=2 note=50 velocity=79 time=0
EXTRACT: note_off channel=4 note=67 velocity=95 time=0
EXTRACT: note_off channel=4 note=59 velocity=95 time=0
EXTRACT: note_off channel=4 note=55 velocity=95 time=0
EXTRACT: note_off channel=4 note=50 velocity=95 time=0
EXTRACT: note_off channel=4 note=43 velocity=95 time=0
EXTRACT: note_on channel=4 note=66 velocity=95 time=0
EXTRACT: note_on channel=4 note=62 velocity=95 time=0
EXTRACT: note_on channel=4 note=57 velocity=95 time=0
EXTRACT: note_on channel=4 note=50 velocity=95 time=0
EXTRACT: note_off channel=11 note=66 velocity=95 time=0
EXTRACT: note_on channel=11 note=66 velocity=95 time=0
EXTRACT: note_off channel=11 note=66 velocity=95 time=0.2608695
EXTRACT: note_on channel=11 note=66 velocity=95 time=0
EXTRACT: note_off channel=0 note=38 velocity=95 time=0.2608695
EXTRACT: note_on channel=0 note=38 velocity=95 time=0
EXTRACT: note_off channel=9 note=49 velocity=95 time=0
EXTRACT: note_off channel=9 note=36 velocity=95 time=0
EXTRACT: note_on channel=9 note=49 velocity=95 time=0
EXTRACT: note_on channel=9 note=38 velocity=95 time=0
EXTRACT: note_off channel=4 note=66 velocity=95 time=0.2608695
EXTRACT: note_off channel=4 note=62 velocity=95 time=0
EXTRACT: note_off channel=4 note=57 velocity=95 time=0
EXTRACT: note_off channel=4 note=50 velocity=95 time=0
EXTRACT: note_on channel=4 note=66 velocity=95 time=0
EXTRACT: note_on channel=4 note=62 velocity=95 time=0
EXTRACT: note_on channel=4 note=57 velocity=95 time=0
EXTRACT: note_on channel=4 note=50 velocity=95 time=0
EXTRACT: note_off channel=11 note=66 velocity=95 time=0
EXTRACT: note_off channel=9 note=38 velocity=95 time=0.13043475
EXTRACT: note_on channel=9 note=38 velocity=95 time=0
EXTRACT: note_off channel=0 note=38 velocity=95 time=0.13043475
EXTRACT: note_on channel=0 note=38 velocity=95 time=0
EXTRACT: note_off channel=9 note=49 velocity=95 time=0
EXTRACT: note_off channel=9 note=38 velocity=95 time=0
EXTRACT: note_on channel=9 note=49 velocity=95 time=0
EXTRACT: note_on channel=9 note=36 velocity=95 time=0
EXTRACT: note_on channel=11 note=66 velocity=95 time=0
EXTRACT: note_off channel=0 note=38 velocity=95 time=0.2608695
EXTRACT: note_on channel=0 note=38 velocity=95 time=0
EXTRACT: note_off channel=9 note=36 velocity=95 time=0
EXTRACT: note_on channel=9 note=36 velocity=95 time=0
EXTRACT: note_off channel=11 note=66 velocity=95 time=0.13043475
EXTRACT: note_on channel=11 note=66 velocity=95 time=0
EXTRACT: note_off channel=0 note=38 velocity=95 time=0.13043475
EXTRACT: note_on channel=0 note=38 velocity=95 time=0
EXTRACT: note_off channel=9 note=49 velocity=95 time=0
EXTRACT: note_off channel=9 note=36 velocity=95 time=0
EXTRACT: note_on channel=9 note=49 velocity=95 time=0
EXTRACT: note_off channel=0 note=38 velocity=95 time=0.2608695
EXTRACT: note_on channel=0 note=35 velocity=95 time=0
EXTRACT: note_on channel=9 note=36 velocity=95 time=0
EXTRACT: note_off channel=11 note=66 velocity=95 time=0
EXTRACT: note_on channel=11 note=66 velocity=95 time=0
EXTRACT: note_off channel=0 note=35 velocity=95 time=0.13043475
EXTRACT: note_on channel=0 note=33 velocity=95 time=0
EXTRACT: note_off channel=9 note=36 velocity=95 time=0
EXTRACT: note_on channel=9 note=38 velocity=95 time=0
EXTRACT: note_off channel=0 note=33 velocity=95 time=0.13043475
EXTRACT: note_on channel=0 note=31 velocity=95 time=0
EXTRACT: note_off channel=9 note=49 velocity=95 time=0
EXTRACT: note_off channel=9 note=38 velocity=95 time=0
EXTRACT: note_on channel=9 note=49 velocity=95 time=0
EXTRACT: note_on channel=9 note=36 velocity=95 time=0
EXTRACT: note_off channel=2 note=69 velocity=127 time=0
EXTRACT: note_off channel=2 note=66 velocity=127 time=0
EXTRACT: note_off channel=2 note=62 velocity=95 time=0
EXTRACT: note_off channel=2 note=50 velocity=79 time=0
EXTRACT: note_off channel=4 note=66 velocity=95 time=0
EXTRACT: note_off channel=4 note=62 velocity=95 time=0
EXTRACT: note_off channel=4 note=57 velocity=95 time=0
EXTRACT: note_off channel=4 note=50 velocity=95 time=0
EXTRACT: note_on channel=4 note=67 velocity=95 time=0
EXTRACT: note_on channel=4 note=59 velocity=95 time=0
EXTRACT: note_on channel=4 note=55 velocity=95 time=0
EXTRACT: note_on channel=4 note=50 velocity=95 time=0
EXTRACT: note_on channel=4 note=43 velocity=95 time=0
EXTRACT: note_off channel=11 note=66 velocity=95 time=0
EXTRACT: note_on channel=11 note=64 velocity=95 time=0
EXTRACT: note_off channel=0 note=31 velocity=95 time=0.521739
EXTRACT: note_on channel=0 note=31 velocity=95 time=0
EXTRACT: note_off channel=9 note=49 velocity=95 time=0
EXTRACT: note_off channel=9 note=36 velocity=95 time=0
EXTRACT: note_on channel=9 note=49 velocity=95 time=0
EXTRACT: note_on channel=9 note=38 velocity=95 time=0
EXTRACT: note_off channel=11 note=64 velocity=95 time=0
EXTRACT: note_off channel=0 note=31 velocity=95 time=0.2608695
EXTRACT: note_on channel=0 note=33 velocity=95 time=0
EXTRACT: note_off channel=4 note=67 velocity=95 time=0
EXTRACT: note_off channel=4 note=59 velocity=95 time=0
EXTRACT: note_off channel=4 note=55 velocity=95 time=0
EXTRACT: note_off channel=4 note=50 velocity=95 time=0
EXTRACT: note_off channel=4 note=43 velocity=95 time=0
EXTRACT: note_on channel=4 note=64 velocity=95 time=0
EXTRACT: note_on channel=4 note=61 velocity=95 time=0
EXTRACT: note_on channel=4 note=57 velocity=95 time=0
EXTRACT: note_on channel=4 note=52 velocity=95 time=0
EXTRACT: note_on channel=4 note=45 velocity=95 time=0
EXTRACT: note_off channel=9 note=49 velocity=95 time=0.2608695
EXTRACT: note_off channel=9 note=38 velocity=95 time=0
EXTRACT: note_on channel=9 note=49 velocity=95 time=0
EXTRACT: note_on channel=9 note=36 velocity=95 time=0
EXTRACT: note_off channel=9 note=36 velocity=95 time=0.2608695
EXTRACT: note_on channel=9 note=36 velocity=95 time=0
EXTRACT: note_off channel=4 note=64 velocity=95 time=0
EXTRACT: note_off channel=4 note=61 velocity=95 time=0
EXTRACT: note_off channel=4 note=57 velocity=95 time=0
EXTRACT: note_off channel=4 note=52 velocity=95 time=0
EXTRACT: note_off channel=4 note=45 velocity=95 time=0
EXTRACT: note_on channel=11 note=71 velocity=95 time=0
EXTRACT: note_off channel=0 note=33 velocity=95 time=0.2608695
EXTRACT: note_on channel=0 note=43 velocity=95 time=0
EXTRACT: note_off channel=9 note=49 velocity=95 time=0
EXTRACT: note_off channel=9 note=36 velocity=95 time=0
EXTRACT: note_on channel=9 note=49 velocity=95 time=0
EXTRACT: note_on channel=9 note=36 velocity=95 time=0
EXTRACT: note_on channel=2 note=71 velocity=127 time=0
EXTRACT: note_on channel=2 note=67 velocity=127 time=0
EXTRACT: note_on channel=2 note=62 velocity=95 time=0
EXTRACT: note_on channel=2 note=55 velocity=79 time=0
EXTRACT: note_on channel=2 note=43 velocity=79 time=0
EXTRACT: note_on channel=4 note=67 velocity=95 time=0
EXTRACT: note_on channel=4 note=59 velocity=95 time=0
EXTRACT: note_on channel=4 note=55 velocity=95 time=0
EXTRACT: note_on channel=4 note=50 velocity=95 time=0
EXTRACT: note_on channel=4 note=43 velocity=95 time=0
EXTRACT: note_off channel=11 note=71 velocity=95 time=0
EXTRACT: note_on channel=11 note=69 velocity=95 time=0
EXTRACT: note_off channel=11 note=69 velocity=95 time=0.2608695
EXTRACT: note_on channel=11 note=67 velocity=95 time=0
EXTRACT: note_off channel=0 note=43 velocity=95 time=0.2608695
EXTRACT: note_on channel=0 note=38 velocity=95 time=0
EXTRACT: note_off channel=9 note=49 velocity=95 time=0
EXTRACT: note_off channel=9 note=36 velocity=95 time=0
EXTRACT: note_on channel=9 note=49 velocity=95 time=0
EXTRACT: note_on channel=9 note=36 velocity=95 time=0
EXTRACT: note_off channel=2 note=71 velocity=127 time=0
EXTRACT: note_off channel=2 note=67 velocity=127 time=0
EXTRACT: note_off channel=2 note=62 velocity=95 time=0
EXTRACT: note_off channel=2 note=55 velocity=79 time=0
EXTRACT: note_off channel=2 note=43 velocity=79 time=0
EXTRACT: note_on channel=2 note=69 velocity=127 time=0
EXTRACT: note_on channel=2 note=66 velocity=127 time=0
EXTRACT: note_on channel=2 note=62 velocity=95 time=0
EXTRACT: note_on channel=2 note=50 velocity=79 time=0
EXTRACT: note_off channel=4 note=67 velocity=95 time=0
EXTRACT: note_off channel=4 note=59 velocity=95 time=0
EXTRACT: note_off channel=4 note=55 velocity=95 time=0
EXTRACT: note_off channel=4 note=50 velocity=95 time=0
EXTRACT: note_off channel=4 note=43 velocity=95 time=0
EXTRACT: note_on channel=4 note=66 velocity=95 time=0
EXTRACT: note_on channel=4 note=62 velocity=95 time=0
EXTRACT: note_on channel=4 note=57 velocity=95 time=0
EXTRACT: note_on channel=4 note=50 velocity=95 time=0
EXTRACT: note_off channel=11 note=67 velocity=95 time=0
EXTRACT: note_on channel=11 note=67 velocity=95 time=0
EXTRACT: note_off channel=11 note=67 velocity=95 time=0.2608695
EXTRACT: note_on channel=11 note=66 velocity=95 time=0
EXTRACT: note_off channel=0 note=38 velocity=95 time=0.2608695
EXTRACT: note_on channel=0 note=38 velocity=95 time=0
EXTRACT: note_off channel=9 note=49 velocity=95 time=0
EXTRACT: note_off channel=9 note=36 velocity=95 time=0
EXTRACT: note_on channel=9 note=49 velocity=95 time=0
EXTRACT: note_on channel=9 note=38 velocity=95 time=0
EXTRACT: note_off channel=4 note=66 velocity=95 time=0.2608695
EXTRACT: note_off channel=4 note=62 velocity=95 time=0
EXTRACT: note_off channel=4 note=57 velocity=95 time=0
EXTRACT: note_off channel=4 note=50 velocity=95 time=0
EXTRACT: note_on channel=4 note=66 velocity=95 time=0
EXTRACT: note_on channel=4 note=62 velocity=95 time=0
EXTRACT: note_on channel=4 note=57 velocity=95 time=0
EXTRACT: note_on channel=4 note=50 velocity=95 time=0
EXTRACT: note_off channel=11 note=66 velocity=95 time=0
EXTRACT: note_off channel=0 note=38 velocity=95 time=0.2608695
EXTRACT: note_on channel=0 note=38 velocity=95 time=0
EXTRACT: note_off channel=9 note=49 velocity=95 time=0
EXTRACT: note_off channel=9 note=38 velocity=95 time=0
EXTRACT: note_on channel=9 note=49 velocity=95 time=0
EXTRACT: note_on channel=9 note=36 velocity=95 time=0
EXTRACT: note_on channel=11 note=67 velocity=95 time=0
EXTRACT: note_off channel=0 note=38 velocity=95 time=0.2608695
EXTRACT: note_on channel=0 note=38 velocity=95 time=0
EXTRACT: note_off channel=9 note=36 velocity=95 time=0
EXTRACT: note_on channel=9 note=36 velocity=95 time=0
EXTRACT: note_off channel=11 note=67 velocity=95 time=0
EXTRACT: note_on channel=11 note=66 velocity=95 time=0
EXTRACT: note_off channel=0 note=38 velocity=95 time=0.2608695
EXTRACT: note_on channel=0 note=38 velocity=95 time=0
EXTRACT: note_off channel=9 note=49 velocity=95 time=0
EXTRACT: note_off channel=9 note=36 velocity=95 time=0
EXTRACT: note_on channel=9 note=49 velocity=95 time=0
EXTRACT: note_on channel=9 note=36 velocity=95 time=0
EXTRACT: note_off channel=0 note=38 velocity=95 time=0.2608695
EXTRACT: note_on channel=0 note=35 velocity=95 time=0
EXTRACT: note_off channel=11 note=66 velocity=95 time=0
EXTRACT: note_off channel=0 note=35 velocity=95 time=0.13043475
EXTRACT: note_on channel=0 note=33 velocity=95 time=0
EXTRACT: note_off channel=0 note=33 velocity=95 time=0
EXTRACT: note_on channel=0 note=31 velocity=95 time=0
EXTRACT: note_off channel=9 note=49 velocity=95 time=0
EXTRACT: note_off channel=9 note=36 velocity=95 time=0
EXTRACT: note_on channel=9 note=49 velocity=95 time=0
EXTRACT: note_on channel=9 note=36 velocity=95 time=0
EXTRACT: note_off channel=2 note=69 velocity=127 time=0
EXTRACT: note_off channel=2 note=66 velocity=127 time=0
EXTRACT: note_off channel=2 note=62 velocity=95 time=0
EXTRACT: note_off channel=2 note=50 velocity=79 time=0
EXTRACT: note_off channel=4 note=66 velocity=95 time=0
EXTRACT: note_off channel=4 note=62 velocity=95 time=0
EXTRACT: note_off channel=4 note=57 velocity=95 time=0
EXTRACT: note_off channel=4 note=50 velocity=95 time=0
EXTRACT: note_on channel=4 note=67 velocity=95 time=0
EXTRACT: note_on channel=4 note=59 velocity=95 time=0
EXTRACT: note_on channel=4 note=55 velocity=95 time=0
EXTRACT: note_on channel=4 note=50 velocity=95 time=0
EXTRACT: note_on channel=4 note=43 velocity=95 time=0
EXTRACT: note_on channel=11 note=67 velocity=95 time=0
EXTRACT: note_off channel=11 note=67 velocity=95 time=0.13157875
EXTRACT: note_on channel=12 note=69 velocity=95 time=0
EXTRACT: pitchwheel channel=12 pitch=-512 time=0.065789375
EXTRACT: pitchwheel channel=12 pitch=-1024 time=0.065789375
EXTRACT: pitchwheel channel=12 pitch=-1536 time=0.065789375
EXTRACT: pitchwheel channel=12 pitch=-2048 time=0.065789375
EXTRACT: pitchwheel channel=12 pitch=0 time=0
EXTRACT: note_off channel=12 note=69 velocity=95 time=0
EXTRACT: note_on channel=11 note=66 velocity=95 time=0
EXTRACT: note_off channel=0 note=31 velocity=95 time=0.13157875
EXTRACT: note_on channel=0 note=31 velocity=95 time=0
EXTRACT: note_off channel=9 note=49 velocity=95 time=0
EXTRACT: note_off channel=9 note=36 velocity=95 time=0
EXTRACT: note_on channel=9 note=49 velocity=95 time=0
EXTRACT: note_on channel=9 note=38 velocity=95 time=0
EXTRACT: note_off channel=0 note=31 velocity=95 time=0.2631575
EXTRACT: note_on channel=0 note=33 velocity=95 time=0
EXTRACT: note_off channel=4 note=67 velocity=95 time=0
EXTRACT: note_off channel=4 note=59 velocity=95 time=0
EXTRACT: note_off channel=4 note=55 velocity=95 time=0
EXTRACT: note_off channel=4 note=50 velocity=95 time=0
EXTRACT: note_off channel=4 note=43 velocity=95 time=0
EXTRACT: note_on channel=4 note=64 velocity=95 time=0
EXTRACT: note_on channel=4 note=61 velocity=95 time=0
EXTRACT: note_on channel=4 note=57 velocity=95 time=0
EXTRACT: note_on channel=4 note=52 velocity=95 time=0
EXTRACT: note_on channel=4 note=45 velocity=95 time=0
EXTRACT: note_off channel=11 note=66 velocity=95 time=0.13157875
EXTRACT: note_off channel=9 note=49 velocity=95 time=0.13157875
EXTRACT: note_off channel=9 note=38 velocity=95 time=0
EXTRACT: note_on channel=9 note=49 velocity=95 time=0
EXTRACT: note_on channel=9 note=36 velocity=95 time=0
EXTRACT: note_on channel=11 note=67 velocity=95 time=0
EXTRACT: note_off channel=9 note=36 velocity=95 time=0.2631575
EXTRACT: note_on channel=9 note=36 velocity=95 time=0
EXTRACT: note_off channel=4 note=64 velocity=95 time=0
EXTRACT: note_off channel=4 note=61 velocity=95 time=0
EXTRACT: note_off channel=4 note=57 velocity=95 time=0
EXTRACT: note_off channel=4 note=52 velocity=95 time=0
EXTRACT: note_off channel=4 note=45 velocity=95 time=0
EXTRACT: note_off channel=11 note=67 velocity=95 time=0
EXTRACT: note_on channel=11 note=66 velocity=95 time=0
EXTRACT: note_off channel=0 note=33 velocity=95 time=0.2631575
EXTRACT: note_on channel=0 note=43 velocity=95 time=0
EXTRACT: note_off channel=9 note=49 velocity=95 time=0
EXTRACT: note_off channel=9 note=36 velocity=95 time=0
EXTRACT: note_on channel=9 note=49 velocity=95 time=0
EXTRACT: note_on channel=9 note=36 velocity=95 time=0
EXTRACT: note_on channel=2 note=71 velocity=127 time=0
EXTRACT: note_on channel=2 note=67 velocity=127 time=0
EXTRACT: note_on channel=2 note=62 velocity=95 time=0
EXTRACT: note_on channel=2 note=55 velocity=79 time=0
EXTRACT: note_on channel=2 note=43 velocity=79 time=0
EXTRACT: note_on channel=4 note=67 velocity=95 time=0
EXTRACT: note_on channel=4 note=59 velocity=95 time=0
EXTRACT: note_on channel=4 note=55 velocity=95 time=0
EXTRACT: note_on channel=4 note=50 velocity=95 time=0
EXTRACT: note_on channel=4 note=43 velocity=95 time=0
EXTRACT: note_off channel=11 note=66 velocity=95 time=0.2631575
EXTRACT: note_off channel=0 note=43 velocity=95 time=0.2631575
EXTRACT: note_on channel=0 note=38 velocity=95 time=0
EXTRACT: note_off channel=9 note=49 velocity=95 time=0
EXTRACT: note_off channel=9 note=36 velocity=95 time=0
EXTRACT: note_on channel=9 note=49 velocity=95 time=0
EXTRACT: note_on channel=9 note=36 velocity=95 time=0
EXTRACT: note_off channel=2 note=71 velocity=127 time=0
EXTRACT: note_off channel=2 note=67 velocity=127 time=0
EXTRACT: note_off channel=2 note=62 velocity=95 time=0
EXTRACT: note_off channel=2 note=55 velocity=79 time=0
EXTRACT: note_off channel=2 note=43 velocity=79 time=0
EXTRACT: note_on channel=2 note=73 velocity=127 time=0
EXTRACT: note_on channel=2 note=69 velocity=127 time=0
EXTRACT: note_on channel=2 note=66 velocity=95 time=0
EXTRACT: note_off channel=4 note=67 velocity=95 time=0
EXTRACT: note_off channel=4 note=59 velocity=95 time=0
EXTRACT: note_off channel=4 note=55 velocity=95 time=0
EXTRACT: note_off channel=4 note=50 velocity=95 time=0
EXTRACT: note_off channel=4 note=43 velocity=95 time=0
EXTRACT: note_on channel=4 note=66 velocity=95 time=0
EXTRACT: note_on channel=4 note=62 velocity=95 time=0
EXTRACT: note_on channel=4 note=57 velocity=95 time=0
EXTRACT: note_on channel=4 note=50 velocity=95 time=0
EXTRACT: note_on channel=6 note=62 velocity=95 time=0
EXTRACT: note_on channel=11 note=67 velocity=95 time=0
EXTRACT: note_off channel=11 note=67 velocity=95 time=0.2631575
EXTRACT: note_on channel=11 note=66 velocity=95 time=0
EXTRACT: note_off channel=0 note=38 velocity=95 time=0.2631575
EXTRACT: note_on channel=0 note=38 velocity=95 time=0
EXTRACT: note_off channel=9 note=49 velocity=95 time=0
EXTRACT: note_off channel=9 note=36 velocity=95 time=0
EXTRACT: note_on channel=9 note=49 velocity=95 time=0
EXTRACT: note_on channel=9 note=38 velocity=95 time=0
EXTRACT: note_off channel=2 note=73 velocity=127 time=0
EXTRACT: note_off channel=2 note=69 velocity=127 time=0
EXTRACT: note_off channel=2 note=66 velocity=95 time=0
EXTRACT: note_on channel=2 note=73 velocity=127 time=0
EXTRACT: note_on channel=2 note=69 velocity=127 time=0
EXTRACT: note_on channel=2 note=66 velocity=95 time=0
EXTRACT: note_off channel=2 note=73 velocity=127 time=0.2631575
EXTRACT: note_off channel=2 note=69 velocity=127 time=0
EXTRACT: note_off channel=2 note=66 velocity=95 time=0
EXTRACT: note_on channel=2 note=73 velocity=127 time=0
EXTRACT: note_on channel=2 note=69 velocity=127 time=0
EXTRACT: note_on channel=2 note=66 velocity=95 time=0
EXTRACT: note_off channel=4 note=66 velocity=95 time=0
EXTRACT: note_off channel=4 note=62 velocity=95 time=0
EXTRACT: note_off channel=4 note=57 velocity=95 time=0
EXTRACT: note_off channel=4 note=50 velocity=95 time=0
EXTRACT: note_on channel=4 note=66 velocity=95 time=0
EXTRACT: note_on channel=4 note=62 velocity=95 time=0
EXTRACT: note_on channel=4 note=57 velocity=95 time=0
EXTRACT: note_on channel=4 note=50 velocity=95 time=0
EXTRACT: note_on channel=6 note=69 velocity=95 time=0
EXTRACT: note_off channel=11 note=66 velocity=95 time=0
EXTRACT: note_off channel=0 note=38 velocity=95 time=0.2631575
EXTRACT: note_on channel=0 note=38 velocity=95 time=0
EXTRACT: note_off channel=9 note=49 velocity=95 time=0
EXTRACT: note_off channel=9 note=38 velocity=95 time=0
EXTRACT: note_on channel=9 note=49 velocity=95 time=0
EXTRACT: note_on channel=9 note=36 velocity=95 time=0
EXTRACT: note_off channel=2 note=73 velocity=127 time=0
EXTRACT: note_off channel=2 note=69 velocity=127 time=0
EXTRACT: note_off channel=2 note=66 velocity=95 time=0
EXTRACT: note_on channel=2 note=73 velocity=127 time=0
EXTRACT: note_on channel=2 note=69 velocity=127 time=0
EXTRACT: note_on channel=2 note=66 velocity=95 time=0
EXTRACT: note_on channel=11 note=67 velocity=95 time=0
EXTRACT: note_off channel=0 note=38 velocity=95 time=0.2631575
EXTRACT: note_on channel=0 note=38 velocity=95 time=0
EXTRACT: note_off channel=9 note=36 velocity=95 time=0
EXTRACT: note_on channel=9 note=36 velocity=95 time=0
EXTRACT: note_off channel=2 note=73 velocity=127 time=0
EXTRACT: note_off channel=2 note=69 velocity=127 time=0
EXTRACT: note_off channel=2 note=66 velocity=95 time=0
EXTRACT: note_on channel=2 note=73 velocity=127 time=0
EXTRACT: note_on channel=2 note=69 velocity=127 time=0
EXTRACT: note_on channel=2 note=66 velocity=95 time=0
EXTRACT: note_off channel=6 note=62 velocity=95 time=0
EXTRACT: note_on channel=6 note=62 velocity=95 time=0
EXTRACT: note_off channel=11 note=67 velocity=95 time=0
EXTRACT: note_on channel=11 note=66 velocity=95 time=0
EXTRACT: note_off channel=0 note=38 velocity=95 time=0.2631575
EXTRACT: note_on channel=0 note=38 velocity=95 time=0
EXTRACT: note_off channel=9 note=49 velocity=95 time=0
EXTRACT: note_off channel=9 note=36 velocity=95 time=0
EXTRACT: note_on channel=9 note=49 velocity=95 time=0
EXTRACT: note_on channel=9 note=36 velocity=95 time=0
EXTRACT: note_off channel=2 note=73 velocity=127 time=0
EXTRACT: note_off channel=2 note=69 velocity=127 time=0
EXTRACT: note_off channel=2 note=66 velocity=95 time=0
EXTRACT: note_on channel=2 note=73 velocity=127 time=0
EXTRACT: note_on channel=2 note=69 velocity=127 time=0
EXTRACT: note_on channel=2 note=66 velocity=95 time=0
EXTRACT: note_off channel=6 note=69 velocity=95 time=0
EXTRACT: note_on channel=6 note=66 velocity=95 time=0
EXTRACT: note_off channel=0 note=38 velocity=95 time=0.2631575
EXTRACT: note_on channel=0 note=38 velocity=95 time=0
EXTRACT: note_off channel=2 note=73 velocity=127 time=0
EXTRACT: note_off channel=2 note=69 velocity=127 time=0
EXTRACT: note_off channel=2 note=66 velocity=95 time=0
EXTRACT: note_on channel=2 note=73 velocity=127 time=0
EXTRACT: note_on channel=2 note=69 velocity=127 time=0
EXTRACT: note_on channel=2 note=66 velocity=95 time=0
EXTRACT: note_off channel=6 note=62 velocity=95 time=0
EXTRACT: note_on channel=6 note=62 velocity=95 time=0
EXTRACT: note_off channel=11 note=66 velocity=95 time=0
EXTRACT: note_off channel=0 note=38 velocity=95 time=0.2631575
EXTRACT: note_on channel=0 note=37 velocity=95 time=0
EXTRACT: note_off channel=9 note=49 velocity=95 time=0
EXTRACT: note_off channel=9 note=36 velocity=95 time=0
EXTRACT: note_on channel=9 note=49 velocity=95 time=0
EXTRACT: note_on channel=9 note=36 velocity=95 time=0
EXTRACT: note_off channel=2 note=73 velocity=127 time=0
EXTRACT: note_off channel=2 note=69 velocity=127 time=0
EXTRACT: note_off channel=2 note=66 velocity=95 time=0
EXTRACT: note_on channel=2 note=69 velocity=127 time=0
EXTRACT: note_on channel=2 note=64 velocity=127 time=0
EXTRACT: note_on channel=2 note=61 velocity=95 time=0
EXTRACT: note_off channel=4 note=66 velocity=95 time=0
EXTRACT: note_off channel=4 note=62 velocity=95 time=0
EXTRACT: note_off channel=4 note=57 velocity=95 time=0
EXTRACT: note_off channel=4 note=50 velocity=95 time=0
EXTRACT: note_on channel=4 note=64 velocity=95 time=0
EXTRACT: note_on channel=4 note=61 velocity=95 time=0
EXTRACT: note_on channel=4 note=57 velocity=95 time=0
EXTRACT: note_on channel=4 note=52 velocity=95 time=0
EXTRACT: note_on channel=4 note=45 velocity=95 time=0
EXTRACT: note_off channel=6 note=66 velocity=95 time=0
EXTRACT: note_on channel=6 note=64 velocity=95 time=0
EXTRACT: note_on channel=11 note=67 velocity=95 time=0
EXTRACT: note_off channel=2 note=69 velocity=127 time=0.2631575
EXTRACT: note_off channel=2 note=64 velocity=127 time=0
EXTRACT: note_off channel=2 note=61 velocity=95 time=0
EXTRACT: note_on channel=2 note=69 velocity=127 time=0
EXTRACT: note_on channel=2 note=64 velocity=127 time=0
EXTRACT: note_on channel=2 note=61 velocity=95 time=0
EXTRACT: note_off channel=6 note=64 velocity=95 time=0
EXTRACT: note_on channel=6 note=73 velocity=95 time=0
EXTRACT: note_off channel=11 note=67 velocity=95 time=0
EXTRACT: note_on channel=11 note=66 velocity=95 time=0
EXTRACT: note_off channel=0 note=37 velocity=95 time=0.2631575
EXTRACT: note_on channel=0 note=37 velocity=95 time=0
EXTRACT: note_off channel=9 note=49 velocity=95 time=0
EXTRACT: note_off channel=9 note=36 velocity=95 time=0
EXTRACT: note_on channel=9 note=49 velocity=95 time=0
EXTRACT: note_on channel=9 note=38 velocity=95 time=0
EXTRACT: note_off channel=2 note=69 velocity=127 time=0
EXTRACT: note_off channel=2 note=64 velocity=127 time=0
EXTRACT: note_off channel=2 note=61 velocity=95 time=0
EXTRACT: note_on channel=2 note=69 velocity=127 time=0
EXTRACT: note_on channel=2 note=64 velocity=127 time=0
EXTRACT: note_on channel=2 note=61 velocity=95 time=0
EXTRACT: note_off channel=6 note=62 velocity=95 time=0
EXTRACT: note_on channel=6 note=62 velocity=95 time=0
EXTRACT: note_off channel=0 note=37 velocity=95 time=0.2631575
EXTRACT: note_on channel=0 note=37 velocity=95 time=0
EXTRACT: note_off channel=2 note=69 velocity=127 time=0
EXTRACT: note_off channel=2 note=64 velocity=127 time=0
EXTRACT: note_off channel=2 note=61 velocity=95 time=0
EXTRACT: note_on channel=2 note=69 velocity=127 time=0
EXTRACT: note_on channel=2 note=64 velocity=127 time=0
EXTRACT: note_on channel=2 note=61 velocity=95 time=0
EXTRACT: note_off channel=4 note=64 velocity=95 time=0
EXTRACT: note_off channel=4 note=61 velocity=95 time=0
EXTRACT: note_off channel=4 note=57 velocity=95 time=0
EXTRACT: note_off channel=4 note=52 velocity=95 time=0
EXTRACT: note_off channel=4 note=45 velocity=95 time=0
EXTRACT: note_on channel=4 note=64 velocity=95 time=0
EXTRACT: note_on channel=4 note=61 velocity=95 time=0
EXTRACT: note_on channel=4 note=57 velocity=95 time=0
EXTRACT: note_on channel=4 note=52 velocity=95 time=0
EXTRACT: note_on channel=4 note=45 velocity=95 time=0
EXTRACT: note_off channel=6 note=73 velocity=95 time=0
EXTRACT: note_on channel=6 note=69 velocity=95 time=0
EXTRACT: note_off channel=11 note=66 velocity=95 time=0
EXTRACT: note_off channel=0 note=37 velocity=95 time=0.2631575
EXTRACT: note_on channel=0 note=37 velocity=95 time=0
EXTRACT: note_off channel=9 note=49 velocity=95 time=0
EXTRACT: note_off channel=9 note=38 velocity=95 time=0
EXTRACT: note_on channel=9 note=49 velocity=95 time=0
EXTRACT: note_on channel=9 note=36 velocity=95 time=0
EXTRACT: note_off channel=2 note=69 velocity=127 time=0
EXTRACT: note_off channel=2 note=64 velocity=127 time=0
EXTRACT: note_off channel=2 note=61 velocity=95 time=0
EXTRACT: note_on channel=2 note=69 velocity=127 time=0
EXTRACT: note_on channel=2 note=64 velocity=127 time=0
EXTRACT: note_on channel=2 note=61 velocity=95 time=0
EXTRACT: note_on channel=11 note=67 velocity=95 time=0
EXTRACT: note_off channel=0 note=37 velocity=95 time=0.2631575
EXTRACT: note_on channel=0 note=37 velocity=95 time=0
EXTRACT: note_off channel=9 note=36 velocity=95 time=0
EXTRACT: note_on channel=9 note=36 velocity=95 time=0
EXTRACT: note_off channel=2 note=69 velocity=127 time=0
EXTRACT: note_off channel=2 note=64 velocity=127 time=0
EXTRACT: note_off channel=2 note=61 velocity=95 time=0
EXTRACT: note_on channel=2 note=69 velocity=127 time=0
EXTRACT: note_on channel=2 note=64 velocity=127 time=0
EXTRACT: note_on channel=2 note=61 velocity=95 time=0
EXTRACT: note_off channel=6 note=62 velocity=95 time=0
EXTRACT: note_on channel=6 note=62 velocity=95 time=0
EXTRACT: note_off channel=11 note=67 velocity=95 time=0
EXTRACT: note_on channel=11 note=66 velocity=95 time=0
EXTRACT: note_on channel=1 note=54 velocity=95 time=0.2631575
EXTRACT: note_off channel=0 note=37 velocity=95 time=0
EXTRACT: note_on channel=0 note=37 velocity=95 time=0
EXTRACT: note_off channel=9 note=49 velocity=95 time=0
EXTRACT: note_off channel=9 note=36 velocity=95 time=0
EXTRACT: note_on channel=9 note=49 velocity=95 time=0
EXTRACT: note_on channel=9 note=36 velocity=95 time=0
EXTRACT: note_off channel=2 note=69 velocity=127 time=0
EXTRACT: note_off channel=2 note=64 velocity=127 time=0
EXTRACT: note_off channel=2 note=61 velocity=95 time=0
EXTRACT: note_on channel=2 note=69 velocity=127 time=0
EXTRACT: note_on channel=2 note=64 velocity=127 time=0
EXTRACT: note_on channel=2 note=61 velocity=95 time=0
EXTRACT: note_off channel=6 note=69 velocity=95 time=0
EXTRACT: note_on channel=6 note=64 velocity=95 time=0
EXTRACT: note_off channel=0 note=37 velocity=95 time=0.2631575
EXTRACT: note_on channel=0 note=37 velocity=95 time=0
EXTRACT: note_off channel=2 note=69 velocity=127 time=0
EXTRACT: note_off channel=2 note=64 velocity=127 time=0
EXTRACT: note_off channel=2 note=61 velocity=95 time=0
EXTRACT: note_on channel=2 note=69 velocity=127 time=0
EXTRACT: note_on channel=2 note=64 velocity=127 time=0
EXTRACT: note_on channel=2 note=61 velocity=95 time=0
EXTRACT: note_off channel=6 note=62 velocity=95 time=0
EXTRACT: note_on channel=6 note=62 velocity=95 time=0
EXTRACT: note_off channel=11 note=66 velocity=95 time=0
EXTRACT: note_off channel=1 note=54 velocity=95 time=0.2631575
EXTRACT: note_on channel=1 note=54 velocity=95 time=0
EXTRACT: note_off channel=0 note=37 velocity=95 time=0
EXTRACT: note_on channel=0 note=35 velocity=95 time=0
EXTRACT: note_off channel=9 note=49 velocity=95 time=0
EXTRACT: note_off channel=9 note=36 velocity=95 time=0
EXTRACT: note_on channel=9 note=49 velocity=95 time=0
EXTRACT: note_on channel=9 note=36 velocity=95 time=0
EXTRACT: note_off channel=2 note=69 velocity=127 time=0
EXTRACT: note_off channel=2 note=64 velocity=127 time=0
EXTRACT: note_off channel=2 note=61 velocity=95 time=0
EXTRACT: note_on channel=2 note=69 velocity=127 time=0
EXTRACT: note_on channel=2 note=62 velocity=127 time=0
EXTRACT: note_on channel=2 note=59 velocity=95 time=0
EXTRACT: note_off channel=4 note=64 velocity=95 time=0
EXTRACT: note_off channel=4 note=61 velocity=95 time=0
EXTRACT: note_off channel=4 note=57 velocity=95 time=0
EXTRACT: note_off channel=4 note=52 velocity=95 time=0
EXTRACT: note_off channel=4 note=45 velocity=95 time=0
EXTRACT: note_on channel=4 note=67 velocity=95 time=0
EXTRACT: note_on channel=4 note=59 velocity=95 time=0
EXTRACT: note_on channel=4 note=55 velocity=95 time=0
EXTRACT: note_on channel=4 note=50 velocity=95 time=0
EXTRACT: note_on channel=4 note=43 velocity=95 time=0
EXTRACT: note_off channel=6 note=62 velocity=95 time=0
EXTRACT: note_on channel=6 note=62 velocity=95 time=0
EXTRACT: note_on channel=11 note=67 velocity=95 time=0
EXTRACT: note_off channel=0 note=35 velocity=95 time=0.2631575
EXTRACT: note_on channel=0 note=35 velocity=95 time=0
EXTRACT: note_off channel=2 note=69 velocity=127 time=0
EXTRACT: note_off channel=2 note=62 velocity=127 time=0
EXTRACT: note_off channel=2 note=59 velocity=95 time=0
EXTRACT: note_on channel=2 note=69 velocity=127 time=0
EXTRACT: note_on channel=2 note=62 velocity=127 time=0
EXTRACT: note_on channel=2 note=59 velocity=95 time=0
EXTRACT: note_off channel=6 note=64 velocity=95 time=0
EXTRACT: note_off channel=6 note=62 velocity=95 time=0
EXTRACT: note_on channel=6 note=71 velocity=95 time=0
EXTRACT: note_on channel=6 note=62 velocity=95 time=0
EXTRACT: note_off channel=11 note=67 velocity=95 time=0
EXTRACT: note_on channel=11 note=66 velocity=95 time=0
EXTRACT: note_off channel=0 note=35 velocity=95 time=0.2631575
EXTRACT: note_on channel=0 note=35 velocity=95 time=0
EXTRACT: note_off channel=9 note=49 velocity=95 time=0
EXTRACT: note_off channel=9 note=36 velocity=95 time=0
EXTRACT: note_on channel=9 note=49 velocity=95 time=0
EXTRACT: note_on channel=9 note=38 velocity=95 time=0
EXTRACT: note_off channel=2 note=69 velocity=127 time=0
EXTRACT: note_off channel=2 note=62 velocity=127 time=0
EXTRACT: note_off channel=2 note=59 velocity=95 time=0
EXTRACT: note_on channel=2 note=69 velocity=127 time=0
EXTRACT: note_on channel=2 note=62 velocity=127 time=0
EXTRACT: note_on channel=2 note=59 velocity=95 time=0
EXTRACT: note_off channel=6 note=62 velocity=95 time=0
EXTRACT: note_on channel=6 note=62 velocity=95 time=0
EXTRACT: note_off channel=1 note=54 velocity=95 time=0.2631575
EXTRACT: note_on channel=1 note=55 velocity=95 time=0
EXTRACT: note_off channel=0 note=35 velocity=95 time=0
EXTRACT: note_on channel=0 note=35 velocity=95 time=0
EXTRACT: note_off channel=2 note=69 velocity=127 time=0
EXTRACT: note_off channel=2 note=62 velocity=127 time=0
EXTRACT: note_off channel=2 note=59 velocity=95 time=0
EXTRACT: note_on channel=2 note=69 velocity=127 time=0
EXTRACT: note_on channel=2 note=62 velocity=127 time=0
EXTRACT: note_on channel=2 note=59 velocity=95 time=0
EXTRACT: note_off channel=4 note=67 velocity=95 time=0
EXTRACT: note_off channel=4 note=59 velocity=95 time=0
EXTRACT: note_off channel=4 note=55 velocity=95 time=0
EXTRACT: note_off channel=4 note=50 velocity=95 time=0
EXTRACT: note_off channel=4 note=43 velocity=95 time=0
EXTRACT: note_on channel=4 note=67 velocity=95 time=0
EXTRACT: note_on channel=4 note=59 velocity=95 time=0
EXTRACT: note_on channel=4 note=55 velocity=95 time=0
EXTRACT: note_on channel=4 note=50 velocity=95 time=0
EXTRACT: note_on channel=4 note=43 velocity=95 time=0
EXTRACT: note_off channel=6 note=71 velocity=95 time=0
EXTRACT: note_on channel=6 note=67 velocity=95 time=0
EXTRACT: note_off channel=11 note=66 velocity=95 time=0
EXTRACT: note_off channel=0 note=35 velocity=95 time=0.2631575
EXTRACT: note_on channel=0 note=35 velocity=95 time=0
EXTRACT: note_off channel=9 note=49 velocity=95 time=0
EXTRACT: note_off channel=9 note=38 velocity=95 time=0
EXTRACT: note_on channel=9 note=49 velocity=95 time=0
EXTRACT: note_on channel=9 note=36 velocity=95 time=0
EXTRACT: note_off channel=2 note=69 velocity=127 time=0
EXTRACT: note_off channel=2 note=62 velocity=127 time=0
EXTRACT: note_off channel=2 note=59 velocity=95 time=0
EXTRACT: note_on channel=2 note=69 velocity=127 time=0
EXTRACT: note_on channel=2 note=62 velocity=127 time=0
EXTRACT: note_on channel=2 note=59 velocity=95 time=0
EXTRACT: note_off channel=6 note=62 velocity=95 time=0
EXTRACT: note_on channel=6 note=62 velocity=95 time=0
EXTRACT: note_on channel=11 note=67 velocity=95 time=0
EXTRACT: note_off channel=0 note=35 velocity=95 time=0.2631575
EXTRACT: note_on channel=0 note=35 velocity=95 time=0
EXTRACT: note_off channel=9 note=36 velocity=95 time=0
EXTRACT: note_on channel=9 note=36 velocity=95 time=0
EXTRACT: note_off channel=2 note=69 velocity=127 time=0
EXTRACT: note_off channel=2 note=62 velocity=127 time=0
EXTRACT: note_off channel=2 note=59 velocity=95 time=0
EXTRACT: note_on channel=2 note=69 velocity=127 time=0
EXTRACT: note_on channel=2 note=62 velocity=127 time=0
EXTRACT: note_on channel=2 note=59 velocity=95 time=0
EXTRACT: note_off channel=6 note=62 velocity=95 time=0
EXTRACT: note_on channel=6 note=62 velocity=95 time=0
EXTRACT: note_off channel=11 note=67 velocity=95 time=0
EXTRACT: note_on channel=11 note=66 velocity=95 time=0
EXTRACT: note_off channel=1 note=55 velocity=95 time=0.2631575
EXTRACT: note_on channel=1 note=57 velocity=95 time=0
EXTRACT: note_off channel=0 note=35 velocity=95 time=0
EXTRACT: note_on channel=0 note=35 velocity=95 time=0
EXTRACT: note_off channel=9 note=49 velocity=95 time=0
EXTRACT: note_off channel=9 note=36 velocity=95 time=0
EXTRACT: note_on channel=9 note=49 velocity=95 time=0
EXTRACT: note_on channel=9 note=36 velocity=95 time=0
EXTRACT: note_off channel=2 note=69 velocity=127 time=0
EXTRACT: note_off channel=2 note=62 velocity=127 time=0
EXTRACT: note_off channel=2 note=59 velocity=95 time=0
EXTRACT: note_on channel=2 note=69 velocity=127 time=0
EXTRACT: note_on channel=2 note=62 velocity=127 time=0
EXTRACT: note_on channel=2 note=59 velocity=95 time=0
EXTRACT: note_off channel=6 note=62 velocity=95 time=0
EXTRACT: note_on channel=6 note=62 velocity=95 time=0
EXTRACT: note_off channel=0 note=35 velocity=95 time=0.2631575
EXTRACT: note_on channel=0 note=35 velocity=95 time=0
EXTRACT: note_off channel=2 note=69 velocity=127 time=0
EXTRACT: note_off channel=2 note=62 velocity=127 time=0
EXTRACT: note_off channel=2 note=59 velocity=95 time=0
EXTRACT: note_on channel=2 note=69 velocity=127 time=0
EXTRACT: note_on channel=2 note=62 velocity=127 time=0
EXTRACT: note_on channel=2 note=59 velocity=95 time=0
EXTRACT: note_off channel=6 note=62 velocity=95 time=0
EXTRACT: note_on channel=6 note=62 velocity=95 time=0
EXTRACT: note_off channel=11 note=66 velocity=95 time=0
EXTRACT: note_off channel=1 note=57 velocity=95 time=0.2631575
EXTRACT: note_on channel=1 note=57 velocity=95 time=0
EXTRACT: note_off channel=0 note=35 velocity=95 time=0
EXTRACT: note_on channel=0 note=33 velocity=95 time=0
EXTRACT: note_off channel=9 note=49 velocity=95 time=0
EXTRACT: note_off channel=9 note=36 velocity=95 time=0
EXTRACT: note_on channel=9 note=49 velocity=95 time=0
EXTRACT: note_on channel=9 note=36 velocity=95 time=0
EXTRACT: note_off channel=2 note=69 velocity=127 time=0
EXTRACT: note_off channel=2 note=62 velocity=127 time=0
EXTRACT: note_off channel=2 note=59 velocity=95 time=0
EXTRACT: note_on channel=2 note=69 velocity=127 time=0
EXTRACT: note_on channel=2 note=64 velocity=127 time=0
EXTRACT: note_on channel=2 note=61 velocity=95 time=0
EXTRACT: note_off channel=4 note=67 velocity=95 time=0
EXTRACT: note_off channel=4 note=59 velocity=95 time=0
EXTRACT: note_off channel=4 note=55 velocity=95 time=0
EXTRACT: note_off channel=4 note=50 velocity=95 time=0
EXTRACT: note_off channel=4 note=43 velocity=95 time=0
EXTRACT: note_on channel=4 note=64 velocity=95 time=0
EXTRACT: note_on channel=4 note=61 velocity=95 time=0
EXTRACT: note_on channel=4 note=57 velocity=95 time=0
EXTRACT: note_on channel=4 note=52 velocity=95 time=0
EXTRACT: note_on channel=4 note=45 velocity=95 time=0
EXTRACT: note_off channel=6 note=67 velocity=95 time=0
EXTRACT: note_off channel=6 note=62 velocity=95 time=0
EXTRACT: note_on channel=6 note=61 velocity=95 time=0
EXTRACT: note_off channel=0 note=33 velocity=95 time=0.2631575
EXTRACT: note_on channel=0 note=33 velocity=95 time=0
EXTRACT: note_off channel=2 note=69 velocity=127 time=0
EXTRACT: note_off channel=2 note=64 velocity=127 time=0
EXTRACT: note_off channel=2 note=61 velocity=95 time=0
EXTRACT: note_on channel=2 note=69 velocity=95 time=0
EXTRACT: note_on channel=2 note=64 velocity=127 time=0
EXTRACT: note_on channel=2 note=61 velocity=95 time=0
EXTRACT: note_on channel=6 note=69 velocity=95 time=0
EXTRACT: note_off channel=0 note=33 velocity=95 time=0.2631575
EXTRACT: note_on channel=0 note=33 velocity=95 time=0
EXTRACT: note_off channel=9 note=49 velocity=95 time=0
EXTRACT: note_off channel=9 note=36 velocity=95 time=0
EXTRACT: note_on channel=9 note=49 velocity=95 time=0
EXTRACT: note_on channel=9 note=38 velocity=95 time=0
EXTRACT: note_off channel=2 note=69 velocity=95 time=0
EXTRACT: note_off channel=2 note=64 velocity=127 time=0
EXTRACT: note_off channel=2 note=61 velocity=95 time=0
EXTRACT: note_on channel=2 note=69 velocity=127 time=0
EXTRACT: note_on channel=2 note=64 velocity=127 time=0
EXTRACT: note_on channel=2 note=61 velocity=95 time=0
EXTRACT: note_off channel=6 note=61 velocity=95 time=0
EXTRACT: note_on channel=6 note=61 velocity=95 time=0
EXTRACT: note_off channel=1 note=57 velocity=95 time=0.2631575
EXTRACT: note_on channel=1 note=59 velocity=95 time=0
EXTRACT: note_off channel=0 note=33 velocity=95 time=0
EXTRACT: note_on channel=0 note=33 velocity=95 time=0
EXTRACT: note_off channel=2 note=69 velocity=127 time=0
EXTRACT: note_off channel=2 note=64 velocity=127 time=0
EXTRACT: note_off channel=2 note=61 velocity=95 time=0
EXTRACT: note_on channel=2 note=69 velocity=127 time=0
EXTRACT: note_on channel=2 note=64 velocity=127 time=0
EXTRACT: note_on channel=2 note=61 velocity=95 time=0
EXTRACT: note_off channel=4 note=64 velocity=95 time=0
EXTRACT: note_off channel=4 note=61 velocity=95 time=0
EXTRACT: note_off channel=4 note=57 velocity=95 time=0
EXTRACT: note_off channel=4 note=52 velocity=95 time=0
EXTRACT: note_off channel=4 note=45 velocity=95 time=0
EXTRACT: note_on channel=4 note=64 velocity=95 time=0
EXTRACT: note_on channel=4 note=61 velocity=95 time=0
EXTRACT: note_on channel=4 note=57 velocity=95 time=0
EXTRACT: note_on channel=4 note=52 velocity=95 time=0
EXTRACT: note_on channel=4 note=45 velocity=95 time=0
EXTRACT: note_off channel=6 note=69 velocity=95 time=0
EXTRACT: note_on channel=6 note=64 velocity=95 time=0
EXTRACT: note_off channel=0 note=33 velocity=95 time=0.2631575
EXTRACT: note_on channel=0 note=35 velocity=95 time=0
EXTRACT: note_off channel=9 note=49 velocity=95 time=0
EXTRACT: note_off channel=9 note=38 velocity=95 time=0
EXTRACT: note_on channel=9 note=49 velocity=95 time=0
EXTRACT: note_off channel=2 note=69 velocity=127 time=0
EXTRACT: note_off channel=2 note=64 velocity=127 time=0
EXTRACT: note_off channel=2 note=61 velocity=95 time=0
EXTRACT: note_on channel=2 note=69 velocity=127 time=0
EXTRACT: note_on channel=2 note=64 velocity=127 time=0
EXTRACT: note_on channel=2 note=61 velocity=95 time=0
EXTRACT: note_off channel=6 note=61 velocity=95 time=0
EXTRACT: note_on channel=6 note=62 velocity=95 time=0
EXTRACT: note_off channel=0 note=35 velocity=95 time=0.2631575
EXTRACT: note_on channel=0 note=33 velocity=95 time=0
EXTRACT: note_off channel=9 note=49 velocity=95 time=0
EXTRACT: note_on channel=9 note=36 velocity=95 time=0
EXTRACT: note_off channel=2 note=69 velocity=127 time=0
EXTRACT: note_off channel=2 note=64 velocity=127 time=0
EXTRACT: note_off channel=2 note=61 velocity=95 time=0
EXTRACT: note_on channel=2 note=69 velocity=127 time=0
EXTRACT: note_on channel=2 note=64 velocity=127 time=0
EXTRACT: note_on channel=2 note=61 velocity=95 time=0
EXTRACT: note_off channel=6 note=62 velocity=95 time=0
EXTRACT: note_on channel=6 note=61 velocity=95 time=0
EXTRACT: note_off channel=1 note=59 velocity=95 time=0.2631575
EXTRACT: note_on channel=1 note=61 velocity=95 time=0
EXTRACT: note_off channel=0 note=33 velocity=95 time=0
EXTRACT: note_on channel=0 note=37 velocity=95 time=0
EXTRACT: note_off channel=9 note=36 velocity=95 time=0
EXTRACT: note_on channel=9 note=38 velocity=95 time=0
EXTRACT: note_off channel=2 note=69 velocity=127 time=0
EXTRACT: note_off channel=2 note=64 velocity=127 time=0
EXTRACT: note_off channel=2 note=61 velocity=95 time=0
EXTRACT: note_on channel=2 note=69 velocity=127 time=0
EXTRACT: note_on channel=2 note=64 velocity=127 time=0
EXTRACT: note_on channel=2 note=61 velocity=95 time=0
EXTRACT: note_off channel=6 note=61 velocity=95 time=0
EXTRACT: note_on channel=6 note=59 velocity=95 time=0
EXTRACT: note_off channel=0 note=37 velocity=95 time=0.2631575
EXTRACT: note_on channel=0 note=33 velocity=95 time=0
EXTRACT: note_off channel=9 note=38 velocity=95 time=0
EXTRACT: note_on channel=9 note=36 velocity=95 time=0
EXTRACT: note_off channel=2 note=69 velocity=127 time=0
EXTRACT: note_off channel=2 note=64 velocity=127 time=0
EXTRACT: note_off channel=2 note=61 velocity=95 time=0
EXTRACT: note_on channel=2 note=69 velocity=127 time=0
EXTRACT: note_on channel=2 note=64 velocity=127 time=0
EXTRACT: note_on channel=2 note=61 velocity=95 time=0
EXTRACT: note_off channel=6 note=64 velocity=95 time=0
EXTRACT: note_off channel=6 note=59 velocity=95 time=0
EXTRACT: note_on channel=6 note=69 velocity=95 time=0
EXTRACT: note_off channel=1 note=61 velocity=95 time=0.2631575
EXTRACT: note_on channel=1 note=61 velocity=95 time=0
EXTRACT: note_off channel=0 note=33 velocity=95 time=0
EXTRACT: note_on channel=0 note=38 velocity=95 time=0
EXTRACT: note_off channel=9 note=36 velocity=95 time=0
EXTRACT: note_on channel=9 note=42 velocity=95 time=0
EXTRACT: note_on channel=9 note=36 velocity=95 time=0
EXTRACT: note_off channel=2 note=69 velocity=127 time=0
EXTRACT: note_off channel=2 note=64 velocity=127 time=0
EXTRACT: note_off channel=2 note=61 velocity=95 time=0
EXTRACT: note_on channel=2 note=73 velocity=127 time=0
EXTRACT: note_on channel=2 note=69 velocity=127 time=0
EXTRACT: note_on channel=2 note=66 velocity=95 time=0
EXTRACT: note_off channel=4 note=64 velocity=95 time=0
EXTRACT: note_off channel=4 note=61 velocity=95 time=0
EXTRACT: note_off channel=4 note=57 velocity=95 time=0
EXTRACT: note_off channel=4 note=52 velocity=95 time=0
EXTRACT: note_off channel=4 note=45 velocity=95 time=0
EXTRACT: note_on channel=4 note=62 velocity=95 time=0
EXTRACT: note_on channel=4 note=50 velocity=95 time=0
EXTRACT: note_off channel=6 note=69 velocity=95 time=0
EXTRACT: note_on channel=6 note=62 velocity=95 time=0
EXTRACT: note_off channel=9 note=42 velocity=95 time=0.2631575
EXTRACT: note_on channel=9 note=42 velocity=95 time=0
EXTRACT: note_off channel=9 note=36 velocity=95 time=0.2631575
EXTRACT: note_off channel=9 note=42 velocity=95 time=0
EXTRACT: note_on channel=9 note=42 velocity=95 time=0
EXTRACT: note_on channel=9 note=38 velocity=95 time=0
EXTRACT: note_off channel=2 note=73 velocity=127 time=0
EXTRACT: note_off channel=2 note=69 velocity=127 time=0
EXTRACT: note_off channel=2 note=66 velocity=95 time=0
EXTRACT: note_on channel=2 note=73 velocity=127 time=0
EXTRACT: note_on channel=2 note=69 velocity=127 time=0
EXTRACT: note_on channel=2 note=66 velocity=95 time=0
EXTRACT: note_off channel=4 note=62 velocity=95 time=0
EXTRACT: note_off channel=4 note=50 velocity=95 time=0
EXTRACT: note_on channel=4 note=62 velocity=95 time=0
EXTRACT: note_off channel=1 note=61 velocity=95 time=0.2631575
EXTRACT: note_on channel=1 note=62 velocity=95 time=0
EXTRACT: note_off channel=0 note=38 velocity=95 time=0
EXTRACT: note_on channel=0 note=38 velocity=95 time=0
EXTRACT: note_off channel=9 note=42 velocity=95 time=0
EXTRACT: note_on channel=9 note=42 velocity=95 time=0
EXTRACT: note_off channel=2 note=73 velocity=127 time=0
EXTRACT: note_off channel=2 note=69 velocity=127 time=0
EXTRACT: note_off channel=2 note=66 velocity=95 time=0
EXTRACT: note_on channel=2 note=73 velocity=127 time=0
EXTRACT: note_on channel=2 note=69 velocity=127 time=0
EXTRACT: note_on channel=2 note=66 velocity=95 time=0
EXTRACT: note_on channel=4 note=69 velocity=95 time=0
EXTRACT: note_on channel=4 note=66 velocity=95 time=0
EXTRACT: note_on channel=6 note=69 velocity=95 time=0
EXTRACT: note_off channel=0 note=38 velocity=95 time=0.2631575
EXTRACT: note_on channel=0 note=38 velocity=95 time=0
EXTRACT: note_off channel=9 note=38 velocity=95 time=0
EXTRACT: note_off channel=9 note=42 velocity=95 time=0
EXTRACT: note_on channel=9 note=42 velocity=95 time=0
EXTRACT: note_on channel=9 note=36 velocity=95 time=0
EXTRACT: note_off channel=2 note=73 velocity=127 time=0
EXTRACT: note_off channel=2 note=69 velocity=127 time=0
EXTRACT: note_off channel=2 note=66 velocity=95 time=0
EXTRACT: note_on channel=2 note=73 velocity=127 time=0
EXTRACT: note_on channel=2 note=69 velocity=127 time=0
EXTRACT: note_on channel=2 note=66 velocity=95 time=0
EXTRACT: note_off channel=0 note=38 velocity=95 time=0.2631575
EXTRACT: note_on channel=0 note=45 velocity=95 time=0
EXTRACT: note_off channel=9 note=42 velocity=95 time=0
EXTRACT: note_off channel=9 note=36 velocity=95 time=0
EXTRACT: note_on channel=9 note=42 velocity=95 time=0
EXTRACT: note_on channel=9 note=36 velocity=95 time=0
EXTRACT: note_off channel=2 note=73 velocity=127 time=0
EXTRACT: note_off channel=2 note=69 velocity=127 time=0
EXTRACT: note_off channel=2 note=66 velocity=95 time=0
EXTRACT: note_on channel=2 note=73 velocity=127 time=0
EXTRACT: note_on channel=2 note=69 velocity=127 time=0
EXTRACT: note_on channel=2 note=66 velocity=95 time=0
EXTRACT: note_on channel=4 note=50 velocity=95 time=0
EXTRACT: note_off channel=6 note=62 velocity=95 time=0
EXTRACT: note_on channel=6 note=62 velocity=95 time=0
EXTRACT: note_off channel=1 note=62 velocity=95 time=0.2631575
EXTRACT: note_on channel=1 note=64 velocity=95 time=0
EXTRACT: note_off channel=0 note=45 velocity=95 time=0
EXTRACT: note_on channel=0 note=38 velocity=95 time=0
EXTRACT: note_off channel=9 note=42 velocity=95 time=0
EXTRACT: note_off channel=9 note=36 velocity=95 time=0
EXTRACT: note_on channel=9 note=42 velocity=95 time=0
EXTRACT: note_on channel=9 note=38 velocity=95 time=0
EXTRACT: note_off channel=2 note=73 velocity=127 time=0
EXTRACT: note_off channel=2 note=69 velocity=127 time=0
EXTRACT: note_off channel=2 note=66 velocity=95 time=0
EXTRACT: note_on channel=2 note=73 velocity=127 time=0
EXTRACT: note_on channel=2 note=69 velocity=127 time=0
EXTRACT: note_on channel=2 note=66 velocity=95 time=0
EXTRACT: note_off channel=4 note=69 velocity=95 time=0
EXTRACT: note_off channel=4 note=66 velocity=95 time=0
EXTRACT: note_on channel=4 note=66 velocity=95 time=0
EXTRACT: note_off channel=6 note=69 velocity=95 time=0
EXTRACT: note_on channel=6 note=66 velocity=95 time=0
EXTRACT: note_off channel=0 note=38 velocity=95 time=0.2631575
EXTRACT: note_on channel=0 note=45 velocity=95 time=0
EXTRACT: note_off channel=9 note=42 velocity=95 time=0
EXTRACT: note_off channel=9 note=38 velocity=95 time=0
EXTRACT: note_on channel=9 note=42 velocity=95 time=0
EXTRACT: note_off channel=2 note=73 velocity=127 time=0
EXTRACT: note_off channel=2 note=69 velocity=127 time=0
EXTRACT: note_off channel=2 note=66 velocity=95 time=0
EXTRACT: note_on channel=2 note=73 velocity=127 time=0
EXTRACT: note_on channel=2 note=69 velocity=127 time=0
EXTRACT: note_on channel=2 note=66 velocity=95 time=0
EXTRACT: note_off channel=4 note=50 velocity=95 time=0
EXTRACT: note_on channel=4 note=50 velocity=95 time=0
EXTRACT: note_off channel=6 note=62 velocity=95 time=0
EXTRACT: note_on channel=6 note=62 velocity=95 time=0
EXTRACT: note_off channel=1 note=64 velocity=95 time=0.2631575
EXTRACT: note_on channel=1 note=61 velocity=95 time=0
EXTRACT: note_off channel=0 note=45 velocity=95 time=0
EXTRACT: note_on channel=0 note=37 velocity=95 time=0
EXTRACT: note_off channel=9 note=42 velocity=95 time=0
EXTRACT: note_on channel=9 note=42 velocity=95 time=0
EXTRACT: note_on channel=9 note=36 velocity=95 time=0
EXTRACT: note_off channel=2 note=73 velocity=127 time=0
EXTRACT: note_off channel=2 note=69 velocity=127 time=0
EXTRACT: note_off channel=2 note=66 velocity=95 time=0
EXTRACT: note_on channel=2 note=69 velocity=127 time=0
EXTRACT: note_on channel=2 note=64 velocity=127 time=0
EXTRACT: note_on channel=2 note=61 velocity=95 time=0
EXTRACT: note_off channel=4 note=66 velocity=95 time=0
EXTRACT: note_on channel=4 note=64 velocity=95 time=0
EXTRACT: note_off channel=6 note=66 velocity=95 time=0
EXTRACT: note_on channel=6 note=64 velocity=95 time=0
EXTRACT: note_off channel=9 note=42 velocity=95 time=0.2631575
EXTRACT: note_on channel=9 note=42 velocity=95 time=0
EXTRACT: note_off channel=2 note=69 velocity=127 time=0
EXTRACT: note_off channel=2 note=64 velocity=127 time=0
EXTRACT: note_off channel=2 note=61 velocity=95 time=0
EXTRACT: note_on channel=2 note=69 velocity=127 time=0
EXTRACT: note_on channel=2 note=64 velocity=127 time=0
EXTRACT: note_on channel=2 note=61 velocity=95 time=0
EXTRACT: note_off channel=4 note=64 velocity=95 time=0
EXTRACT: note_on channel=4 note=73 velocity=95 time=0
EXTRACT: note_off channel=6 note=64 velocity=95 time=0
EXTRACT: note_on channel=6 note=73 velocity=95 time=0
EXTRACT: note_off channel=9 note=36 velocity=95 time=0.2631575
EXTRACT: note_off channel=9 note=42 velocity=95 time=0
EXTRACT: note_on channel=9 note=42 velocity=95 time=0
EXTRACT: note_on channel=9 note=38 velocity=95 time=0
EXTRACT: note_off channel=2 note=69 velocity=127 time=0
EXTRACT: note_off channel=2 note=64 velocity=127 time=0
EXTRACT: note_off channel=2 note=61 velocity=95 time=0
EXTRACT: note_on channel=2 note=69 velocity=127 time=0
EXTRACT: note_on channel=2 note=64 velocity=127 time=0
EXTRACT: note_on channel=2 note=61 velocity=95 time=0
EXTRACT: note_off channel=4 note=62 velocity=95 time=0
EXTRACT: note_off channel=4 note=50 velocity=95 time=0
EXTRACT: note_on channel=4 note=62 velocity=95 time=0
EXTRACT: note_off channel=6 note=62 velocity=95 time=0
EXTRACT: note_on channel=6 note=62 velocity=95 time=0
EXTRACT: note_off channel=1 note=61 velocity=95 time=0.2631575
EXTRACT: note_on channel=1 note=62 velocity=95 time=0
EXTRACT: note_off channel=0 note=37 velocity=95 time=0
EXTRACT: note_on channel=0 note=45 velocity=95 time=0
EXTRACT: note_off channel=9 note=42 velocity=95 time=0
EXTRACT: note_on channel=9 note=42 velocity=95 time=0
EXTRACT: note_off channel=2 note=69 velocity=127 time=0
EXTRACT: note_off channel=2 note=64 velocity=127 time=0
EXTRACT: note_off channel=2 note=61 velocity=95 time=0
EXTRACT: note_on channel=2 note=69 velocity=127 time=0
EXTRACT: note_on channel=2 note=64 velocity=127 time=0
EXTRACT: note_on channel=2 note=61 velocity=95 time=0
EXTRACT: note_off channel=4 note=73 velocity=95 time=0
EXTRACT: note_on channel=4 note=69 velocity=95 time=0
EXTRACT: note_off channel=6 note=73 velocity=95 time=0
EXTRACT: note_on channel=6 note=69 velocity=95 time=0
EXTRACT: note_off channel=9 note=38 velocity=95 time=0.2631575
EXTRACT: note_off channel=9 note=42 velocity=95 time=0
EXTRACT: note_on channel=9 note=42 velocity=95 time=0
EXTRACT: note_on channel=9 note=36 velocity=95 time=0
EXTRACT: note_off channel=2 note=69 velocity=127 time=0
EXTRACT: note_off channel=2 note=64 velocity=127 time=0
EXTRACT: note_off channel=2 note=61 velocity=95 time=0
EXTRACT: note_on channel=2 note=69 velocity=127 time=0
EXTRACT: note_on channel=2 note=64 velocity=127 time=0
EXTRACT: note_on channel=2 note=61 velocity=95 time=0
EXTRACT: note_off channel=0 note=45 velocity=95 time=0.2631575
EXTRACT: note_on channel=0 note=49 velocity=95 time=0
EXTRACT: note_off channel=9 note=42 velocity=95 time=0
EXTRACT: note_off channel=9 note=36 velocity=95 time=0
EXTRACT: note_on channel=9 note=42 velocity=95 time=0
EXTRACT: note_on channel=9 note=36 velocity=95 time=0
EXTRACT: note_off channel=2 note=69 velocity=127 time=0
EXTRACT: note_off channel=2 note=64 velocity=127 time=0
EXTRACT: note_off channel=2 note=61 velocity=95 time=0
EXTRACT: note_on channel=2 note=69 velocity=127 time=0
EXTRACT: note_on channel=2 note=64 velocity=127 time=0
EXTRACT: note_on channel=2 note=61 velocity=95 time=0
EXTRACT: note_off channel=4 note=62 velocity=95 time=0
EXTRACT: note_on channel=4 note=62 velocity=95 time=0
EXTRACT: note_on channel=4 note=50 velocity=95 time=0
EXTRACT: note_off channel=6 note=62 velocity=95 time=0
EXTRACT: note_on channel=6 note=62 velocity=95 time=0
EXTRACT: note_off channel=1 note=62 velocity=95 time=0.2631575
EXTRACT: note_on channel=1 note=64 velocity=95 time=0
EXTRACT: note_off channel=0 note=49 velocity=95 time=0
EXTRACT: note_on channel=0 note=45 velocity=95 time=0
EXTRACT: note_off channel=9 note=42 velocity=95 time=0
EXTRACT: note_off channel=9 note=36 velocity=95 time=0
EXTRACT: note_on channel=9 note=42 velocity=95 time=0
EXTRACT: note_on channel=9 note=38 velocity=95 time=0
EXTRACT: note_off channel=2 note=69 velocity=127 time=0
EXTRACT: note_off channel=2 note=64 velocity=127 time=0
EXTRACT: note_off channel=2 note=61 velocity=95 time=0
EXTRACT: note_on channel=2 note=69 velocity=127 time=0
EXTRACT: note_on channel=2 note=64 velocity=127 time=0
EXTRACT: note_on channel=2 note=61 velocity=95 time=0
EXTRACT: note_off channel=4 note=69 velocity=95 time=0
EXTRACT: note_on channel=4 note=64 velocity=95 time=0
EXTRACT: note_off channel=6 note=69 velocity=95 time=0
EXTRACT: note_on channel=6 note=64 velocity=95 time=0
EXTRACT: note_off channel=0 note=45 velocity=95 time=0.2631575
EXTRACT: note_on channel=0 note=37 velocity=95 time=0
EXTRACT: note_off channel=9 note=42 velocity=95 time=0
EXTRACT: note_off channel=9 note=38 velocity=95 time=0
EXTRACT: note_on channel=9 note=42 velocity=95 time=0
EXTRACT: note_off channel=2 note=69 velocity=127 time=0
EXTRACT: note_off channel=2 note=64 velocity=127 time=0
EXTRACT: note_off channel=2 note=61 velocity=95 time=0
EXTRACT: note_on channel=2 note=69 velocity=127 time=0
EXTRACT: note_on channel=2 note=64 velocity=127 time=0
EXTRACT: note_on channel=2 note=61 velocity=95 time=0
EXTRACT: note_off channel=4 note=62 velocity=95 time=0
EXTRACT: note_off channel=4 note=50 velocity=95 time=0
EXTRACT: note_on channel=4 note=50 velocity=95 time=0
EXTRACT: note_off channel=6 note=62 velocity=95 time=0
EXTRACT: note_on channel=6 note=62 velocity=95 time=0
EXTRACT: note_off channel=1 note=64 velocity=95 time=0.2631575
EXTRACT: note_on channel=1 note=61 velocity=95 time=0
EXTRACT: note_off channel=0 note=37 velocity=95 time=0
EXTRACT: note_on channel=0 note=35 velocity=95 time=0
EXTRACT: note_off channel=9 note=42 velocity=95 time=0
EXTRACT: note_on channel=9 note=42 velocity=95 time=0
EXTRACT: note_on channel=9 note=36 velocity=95 time=0
EXTRACT: note_off channel=2 note=69 velocity=127 time=0
EXTRACT: note_off channel=2 note=64 velocity=127 time=0
EXTRACT: note_off channel=2 note=61 velocity=95 time=0
EXTRACT: note_on channel=2 note=69 velocity=127 time=0
EXTRACT: note_on channel=2 note=62 velocity=127 time=0
EXTRACT: note_on channel=2 note=59 velocity=95 time=0
EXTRACT: note_off channel=4 note=64 velocity=95 time=0
EXTRACT: note_on channel=4 note=62 velocity=95 time=0
EXTRACT: note_off channel=6 note=62 velocity=95 time=0
EXTRACT: note_on channel=6 note=62 velocity=95 time=0
EXTRACT: note_off channel=9 note=42 velocity=95 time=0.2631575
EXTRACT: note_on channel=9 note=42 velocity=95 time=0
EXTRACT: note_off channel=2 note=69 velocity=127 time=0
EXTRACT: note_off channel=2 note=62 velocity=127 time=0
EXTRACT: note_off channel=2 note=59 velocity=95 time=0
EXTRACT: note_on channel=2 note=69 velocity=127 time=0
EXTRACT: note_on channel=2 note=62 velocity=127 time=0
EXTRACT: note_on channel=2 note=59 velocity=95 time=0
EXTRACT: note_off channel=4 note=62 velocity=95 time=0
EXTRACT: note_on channel=4 note=71 velocity=95 time=0
EXTRACT: note_off channel=6 note=64 velocity=95 time=0
EXTRACT: note_off channel=6 note=62 velocity=95 time=0
EXTRACT: note_on channel=6 note=71 velocity=95 time=0
EXTRACT: note_on channel=6 note=62 velocity=95 time=0
EXTRACT: note_off channel=9 note=36 velocity=95 time=0.2631575
EXTRACT: note_off channel=9 note=42 velocity=95 time=0
EXTRACT: note_on channel=9 note=42 velocity=95 time=0
EXTRACT: note_on channel=9 note=38 velocity=95 time=0
EXTRACT: note_off channel=2 note=69 velocity=127 time=0
EXTRACT: note_off channel=2 note=62 velocity=127 time=0
EXTRACT: note_off channel=2 note=59 velocity=95 time=0
EXTRACT: note_on channel=2 note=69 velocity=127 time=0
EXTRACT: note_on channel=2 note=62 velocity=127 time=0
EXTRACT: note_on channel=2 note=59 velocity=95 time=0
EXTRACT: note_off channel=4 note=50 velocity=95 time=0
EXTRACT: note_on channel=4 note=50 velocity=95 time=0
EXTRACT: note_off channel=6 note=62 velocity=95 time=0
EXTRACT: note_on channel=6 note=62 velocity=95 time=0
EXTRACT: note_off channel=1 note=61 velocity=95 time=0.2631575
EXTRACT: note_on channel=1 note=62 velocity=95 time=0
EXTRACT: note_off channel=0 note=35 velocity=95 time=0
EXTRACT: note_on channel=0 note=35 velocity=95 time=0
EXTRACT: note_off channel=9 note=42 velocity=95 time=0
EXTRACT: note_on channel=9 note=42 velocity=95 time=0
EXTRACT: note_off channel=2 note=69 velocity=127 time=0
EXTRACT: note_off channel=2 note=62 velocity=127 time=0
EXTRACT: note_off channel=2 note=59 velocity=95 time=0
EXTRACT: note_on channel=2 note=69 velocity=127 time=0
EXTRACT: note_on channel=2 note=62 velocity=127 time=0
EXTRACT: note_on channel=2 note=59 velocity=95 time=0
EXTRACT: note_off channel=4 note=71 velocity=95 time=0
EXTRACT: note_on channel=4 note=67 velocity=95 time=0
EXTRACT: note_off channel=6 note=71 velocity=95 time=0
EXTRACT: note_on channel=6 note=67 velocity=95 time=0
EXTRACT: note_off channel=0 note=35 velocity=95 time=0.2631575
EXTRACT: note_on channel=0 note=37 velocity=95 time=0
EXTRACT: note_off channel=9 note=38 velocity=95 time=0
EXTRACT: note_off channel=9 note=42 velocity=95 time=0
EXTRACT: note_on channel=9 note=42 velocity=95 time=0
EXTRACT: note_on channel=9 note=36 velocity=95 time=0
EXTRACT: note_off channel=2 note=69 velocity=127 time=0
EXTRACT: note_off channel=2 note=62 velocity=127 time=0
EXTRACT: note_off channel=2 note=59 velocity=95 time=0
EXTRACT: note_on channel=2 note=69 velocity=127 time=0
EXTRACT: note_on channel=2 note=62 velocity=127 time=0
EXTRACT: note_on channel=2 note=59 velocity=95 time=0
EXTRACT: note_off channel=6 note=62 velocity=95 time=0
EXTRACT: note_on channel=6 note=62 velocity=95 time=0
EXTRACT: note_off channel=0 note=37 velocity=95 time=0.2631575
EXTRACT: note_on channel=0 note=38 velocity=95 time=0
EXTRACT: note_off channel=9 note=42 velocity=95 time=0
EXTRACT: note_off channel=9 note=36 velocity=95 time=0
EXTRACT: note_on channel=9 note=42 velocity=95 time=0
EXTRACT: note_on channel=9 note=36 velocity=95 time=0
EXTRACT: note_off channel=2 note=69 velocity=127 time=0
EXTRACT: note_off channel=2 note=62 velocity=127 time=0
EXTRACT: note_off channel=2 note=59 velocity=95 time=0
EXTRACT: note_on channel=2 note=69 velocity=127 time=0
EXTRACT: note_on channel=2 note=62 velocity=127 time=0
EXTRACT: note_on channel=2 note=59 velocity=95 time=0
EXTRACT: note_off channel=4 note=50 velocity=95 time=0
EXTRACT: note_on channel=4 note=50 velocity=95 time=0
EXTRACT: note_off channel=6 note=62 velocity=95 time=0
EXTRACT: note_on channel=6 note=62 velocity=95 time=0
EXTRACT: note_off channel=1 note=62 velocity=95 time=0.2631575
EXTRACT: note_on channel=1 note=64 velocity=95 time=0
EXTRACT: note_off channel=0 note=38 velocity=95 time=0
EXTRACT: note_on channel=0 note=37 velocity=95 time=0
EXTRACT: note_off channel=9 note=42 velocity=95 time=0
EXTRACT: note_off channel=9 note=36 velocity=95 time=0
EXTRACT: note_on channel=9 note=42 velocity=95 time=0
EXTRACT: note_on channel=9 note=38 velocity=95 time=0
EXTRACT: note_off channel=2 note=69 velocity=127 time=0
EXTRACT: note_off channel=2 note=62 velocity=127 time=0
EXTRACT: note_off channel=2 note=59 velocity=95 time=0
EXTRACT: note_on channel=2 note=69 velocity=127 time=0
EXTRACT: note_on channel=2 note=62 velocity=127 time=0
EXTRACT: note_on channel=2 note=59 velocity=95 time=0
EXTRACT: note_off channel=4 note=67 velocity=95 time=0
EXTRACT: note_on channel=4 note=62 velocity=95 time=0
EXTRACT: note_off channel=6 note=62 velocity=95 time=0
EXTRACT: note_on channel=6 note=62 velocity=95 time=0
EXTRACT: note_off channel=9 note=42 velocity=95 time=0.2631575
EXTRACT: note_off channel=9 note=38 velocity=95 time=0
EXTRACT: note_on channel=9 note=42 velocity=95 time=0
EXTRACT: note_off channel=2 note=69 velocity=127 time=0
EXTRACT: note_off channel=2 note=62 velocity=127 time=0
EXTRACT: note_off channel=2 note=59 velocity=95 time=0
EXTRACT: note_on channel=2 note=69 velocity=127 time=0
EXTRACT: note_on channel=2 note=62 velocity=127 time=0
EXTRACT: note_on channel=2 note=59 velocity=95 time=0
EXTRACT: note_off channel=4 note=50 velocity=95 time=0
EXTRACT: note_on channel=4 note=50 velocity=95 time=0
EXTRACT: note_off channel=6 note=62 velocity=95 time=0
EXTRACT: note_on channel=6 note=62 velocity=95 time=0
EXTRACT: note_off channel=1 note=64 velocity=95 time=0.2631575
EXTRACT: note_on channel=1 note=66 velocity=95 time=0
EXTRACT: note_off channel=0 note=37 velocity=95 time=0
EXTRACT: note_on channel=0 note=33 velocity=95 time=0
EXTRACT: note_off channel=9 note=42 velocity=95 time=0
EXTRACT: note_on channel=9 note=42 velocity=95 time=0
EXTRACT: note_on channel=9 note=36 velocity=95 time=0
EXTRACT: note_off channel=2 note=69 velocity=127 time=0
EXTRACT: note_off channel=2 note=62 velocity=127 time=0
EXTRACT: note_off channel=2 note=59 velocity=95 time=0
EXTRACT: note_on channel=2 note=69 velocity=127 time=0
EXTRACT: note_on channel=2 note=64 velocity=127 time=0
EXTRACT: note_on channel=2 note=61 velocity=95 time=0
EXTRACT: note_off channel=4 note=62 velocity=95 time=0
EXTRACT: note_on channel=4 note=61 velocity=95 time=0
EXTRACT: note_off channel=6 note=67 velocity=95 time=0
EXTRACT: note_off channel=6 note=62 velocity=95 time=0
EXTRACT: note_on channel=6 note=61 velocity=95 time=0
EXTRACT: note_off channel=9 note=42 velocity=95 time=0.2631575
EXTRACT: note_on channel=9 note=42 velocity=95 time=0
EXTRACT: note_off channel=2 note=69 velocity=127 time=0
EXTRACT: note_off channel=2 note=64 velocity=127 time=0
EXTRACT: note_off channel=2 note=61 velocity=95 time=0
EXTRACT: note_on channel=2 note=69 velocity=127 time=0
EXTRACT: note_on channel=2 note=64 velocity=127 time=0
EXTRACT: note_on channel=2 note=61 velocity=95 time=0
EXTRACT: note_off channel=4 note=61 velocity=95 time=0
EXTRACT: note_on channel=4 note=69 velocity=95 time=0
EXTRACT: note_on channel=6 note=69 velocity=95 time=0
EXTRACT: note_off channel=1 note=66 velocity=95 time=0.2631575
EXTRACT: note_on channel=1 note=64 velocity=95 time=0
EXTRACT: note_off channel=9 note=36 velocity=95 time=0
EXTRACT: note_off channel=9 note=42 velocity=95 time=0
EXTRACT: note_on channel=9 note=42 velocity=95 time=0
EXTRACT: note_on channel=9 note=38 velocity=95 time=0
EXTRACT: note_off channel=2 note=69 velocity=127 time=0
EXTRACT: note_off channel=2 note=64 velocity=127 time=0
EXTRACT: note_off channel=2 note=61 velocity=95 time=0
EXTRACT: note_on channel=2 note=69 velocity=127 time=0
EXTRACT: note_on channel=2 note=64 velocity=127 time=0
EXTRACT: note_on channel=2 note=61 velocity=95 time=0
EXTRACT: note_off channel=6 note=61 velocity=95 time=0
EXTRACT: note_on channel=6 note=61 velocity=95 time=0
EXTRACT: note_off channel=0 note=33 velocity=95 time=0.2631575
EXTRACT: note_on channel=0 note=33 velocity=95 time=0
EXTRACT: note_off channel=9 note=42 velocity=95 time=0
EXTRACT: note_on channel=9 note=42 velocity=95 time=0
EXTRACT: note_off channel=2 note=69 velocity=127 time=0
EXTRACT: note_off channel=2 note=64 velocity=127 time=0
EXTRACT: note_off channel=2 note=61 velocity=95 time=0
EXTRACT: note_on channel=2 note=69 velocity=127 time=0
EXTRACT: note_on channel=2 note=64 velocity=127 time=0
EXTRACT: note_on channel=2 note=61 velocity=95 time=0
EXTRACT: note_off channel=4 note=69 velocity=95 time=0
EXTRACT: note_on channel=4 note=64 velocity=95 time=0
EXTRACT: note_off channel=6 note=69 velocity=95 time=0
EXTRACT: note_on channel=6 note=64 velocity=95 time=0
EXTRACT: note_off channel=1 note=64 velocity=95 time=0.2631575
EXTRACT: note_on channel=1 note=62 velocity=95 time=0
EXTRACT: note_off channel=0 note=33 velocity=95 time=0
EXTRACT: note_on channel=0 note=35 velocity=95 time=0
EXTRACT: note_off channel=9 note=38 velocity=95 time=0
EXTRACT: note_off channel=9 note=42 velocity=95 time=0
EXTRACT: note_on channel=9 note=42 velocity=95 time=0
EXTRACT: note_on channel=9 note=36 velocity=95 time=0
EXTRACT: note_off channel=2 note=69 velocity=127 time=0
EXTRACT: note_off channel=2 note=64 velocity=127 time=0
EXTRACT: note_off channel=2 note=61 velocity=95 time=0
EXTRACT: note_on channel=2 note=69 velocity=127 time=0
EXTRACT: note_on channel=2 note=64 velocity=127 time=0
EXTRACT: note_on channel=2 note=61 velocity=95 time=0
EXTRACT: note_off channel=4 note=64 velocity=95 time=0
EXTRACT: note_on channel=4 note=62 velocity=95 time=0
EXTRACT: note_off channel=6 note=61 velocity=95 time=0
EXTRACT: note_on channel=6 note=62 velocity=95 time=0
EXTRACT: note_off channel=0 note=35 velocity=95 time=0.2631575
EXTRACT: note_on channel=0 note=33 velocity=95 time=0
EXTRACT: note_off channel=9 note=42 velocity=95 time=0
EXTRACT: note_off channel=9 note=36 velocity=95 time=0
EXTRACT: note_on channel=9 note=42 velocity=95 time=0
EXTRACT: note_on channel=9 note=36 velocity=95 time=0
EXTRACT: note_off channel=2 note=69 velocity=127 time=0
EXTRACT: note_off channel=2 note=64 velocity=127 time=0
EXTRACT: note_off channel=2 note=61 velocity=95 time=0
EXTRACT: note_on channel=2 note=69 velocity=127 time=0
EXTRACT: note_on channel=2 note=64 velocity=127 time=0
EXTRACT: note_on channel=2 note=61 velocity=95 time=0
EXTRACT: note_off channel=4 note=62 velocity=95 time=0
EXTRACT: note_on channel=4 note=61 velocity=95 time=0
EXTRACT: note_off channel=6 note=62 velocity=95 time=0
EXTRACT: note_on channel=6 note=61 velocity=95 time=0
EXTRACT: note_off channel=1 note=62 velocity=95 time=0.2631575
EXTRACT: note_on channel=1 note=61 velocity=95 time=0
EXTRACT: note_off channel=0 note=33 velocity=95 time=0
EXTRACT: note_on channel=0 note=37 velocity=95 time=0
EXTRACT: note_off channel=9 note=42 velocity=95 time=0
EXTRACT: note_off channel=9 note=36 velocity=95 time=0
EXTRACT: note_on channel=9 note=42 velocity=95 time=0
EXTRACT: note_on channel=9 note=38 velocity=95 time=0
EXTRACT: note_off channel=2 note=69 velocity=127 time=0
EXTRACT: note_off channel=2 note=64 velocity=127 time=0
EXTRACT: note_off channel=2 note=61 velocity=95 time=0
EXTRACT: note_on channel=2 note=69 velocity=127 time=0
EXTRACT: note_on channel=2 note=64 velocity=127 time=0
EXTRACT: note_on channel=2 note=61 velocity=95 time=0
EXTRACT: note_off channel=4 note=61 velocity=95 time=0
EXTRACT: note_on channel=4 note=59 velocity=95 time=0
EXTRACT: note_off channel=6 note=61 velocity=95 time=0
EXTRACT: note_on channel=6 note=59 velocity=95 time=0
EXTRACT: note_off channel=0 note=37 velocity=95 time=0.2631575
EXTRACT: note_on channel=0 note=33 velocity=95 time=0
EXTRACT: note_off channel=9 note=42 velocity=95 time=0
EXTRACT: note_off channel=9 note=38 velocity=95 time=0
EXTRACT: note_on channel=9 note=42 velocity=95 time=0
EXTRACT: note_on channel=9 note=36 velocity=95 time=0
EXTRACT: note_off channel=2 note=69 velocity=127 time=0
EXTRACT: note_off channel=2 note=64 velocity=127 time=0
EXTRACT: note_off channel=2 note=61 velocity=95 time=0
EXTRACT: note_on channel=2 note=69 velocity=127 time=0
EXTRACT: note_on channel=2 note=64 velocity=127 time=0
EXTRACT: note_on channel=2 note=61 velocity=95 time=0
EXTRACT: note_off channel=4 note=59 velocity=95 time=0
EXTRACT: note_on channel=4 note=61 velocity=95 time=0
EXTRACT: note_off channel=6 note=64 velocity=95 time=0
EXTRACT: note_off channel=6 note=59 velocity=95 time=0
EXTRACT: note_on channel=6 note=69 velocity=95 time=0
EXTRACT: note_off channel=1 note=61 velocity=95 time=0
EXTRACT: note_on channel=1 note=61 velocity=95 time=0
EXTRACT: note_off channel=0 note=33 velocity=95 time=0
EXTRACT: note_on channel=0 note=38 velocity=95 time=0
EXTRACT: note_off channel=9 note=42 velocity=95 time=0
EXTRACT: note_off channel=9 note=36 velocity=95 time=0
EXTRACT: note_on channel=9 note=42 velocity=95 time=0
EXTRACT: note_on channel=9 note=36 velocity=95 time=0
EXTRACT: note_off channel=2 note=69 velocity=127 time=0
EXTRACT: note_off channel=2 note=64 velocity=127 time=0
EXTRACT: note_off channel=2 note=61 velocity=95 time=0
EXTRACT: note_on channel=2 note=73 velocity=127 time=0
EXTRACT: note_on channel=2 note=69 velocity=127 time=0
EXTRACT: note_on channel=2 note=66 velocity=95 time=0
EXTRACT: note_off channel=4 note=50 velocity=95 time=0
EXTRACT: note_off channel=4 note=61 velocity=95 time=0
EXTRACT: note_on channel=4 note=62 velocity=95 time=0
EXTRACT: note_on channel=4 note=50 velocity=95 time=0
EXTRACT: note_off channel=6 note=69 velocity=95 time=0
EXTRACT: note_on channel=6 note=62 velocity=95 time=0
EXTRACT: note_off channel=9 note=42 velocity=95 time=0.2608695
EXTRACT: note_on channel=9 note=42 velocity=95 time=0
EXTRACT: note_off channel=9 note=36 velocity=95 time=0.2608695
EXTRACT: note_off channel=9 note=42 velocity=95 time=0
EXTRACT: note_on channel=9 note=42 velocity=95 time=0
EXTRACT: note_on channel=9 note=38 velocity=95 time=0
EXTRACT: note_off channel=2 note=73 velocity=127 time=0
EXTRACT: note_off channel=2 note=69 velocity=127 time=0
EXTRACT: note_off channel=2 note=66 velocity=95 time=0
EXTRACT: note_on channel=2 note=73 velocity=127 time=0
EXTRACT: note_on channel=2 note=69 velocity=127 time=0
EXTRACT: note_on channel=2 note=66 velocity=95 time=0
EXTRACT: note_off channel=4 note=62 velocity=95 time=0
EXTRACT: note_off channel=4 note=50 velocity=95 time=0
EXTRACT: note_on channel=4 note=62 velocity=95 time=0
EXTRACT: note_off channel=1 note=61 velocity=95 time=0.2608695
EXTRACT: note_on channel=1 note=62 velocity=95 time=0
EXTRACT: note_off channel=0 note=38 velocity=95 time=0
EXTRACT: note_on channel=0 note=38 velocity=95 time=0
EXTRACT: note_off channel=9 note=42 velocity=95 time=0
EXTRACT: note_on channel=9 note=42 velocity=95 time=0
EXTRACT: note_off channel=2 note=73 velocity=127 time=0
EXTRACT: note_off channel=2 note=69 velocity=127 time=0
EXTRACT: note_off channel=2 note=66 velocity=95 time=0
EXTRACT: note_on channel=2 note=73 velocity=127 time=0
EXTRACT: note_on channel=2 note=69 velocity=127 time=0
EXTRACT: note_on channel=2 note=66 velocity=95 time=0
EXTRACT: note_on channel=4 note=69 velocity=95 time=0
EXTRACT: note_on channel=4 note=66 velocity=95 time=0
EXTRACT: note_on channel=6 note=69 velocity=95 time=0
EXTRACT: note_off channel=0 note=38 velocity=95 time=0.2608695
EXTRACT: note_on channel=0 note=38 velocity=95 time=0
EXTRACT: note_off channel=9 note=38 velocity=95 time=0
EXTRACT: note_off channel=9 note=42 velocity=95 time=0
EXTRACT: note_on channel=9 note=42 velocity=95 time=0
EXTRACT: note_on channel=9 note=36 velocity=95 time=0
EXTRACT: note_off channel=2 note=73 velocity=127 time=0
EXTRACT: note_off channel=2 note=69 velocity=127 time=0
EXTRACT: note_off channel=2 note=66 velocity=95 time=0
EXTRACT: note_on channel=2 note=73 velocity=127 time=0
EXTRACT: note_on channel=2 note=69 velocity=127 time=0
EXTRACT: note_on channel=2 note=66 velocity=95 time=0
EXTRACT: note_off channel=0 note=38 velocity=95 time=0.2608695
EXTRACT: note_on channel=0 note=38 velocity=95 time=0
EXTRACT: note_off channel=9 note=42 velocity=95 time=0
EXTRACT: note_off channel=9 note=36 velocity=95 time=0
EXTRACT: note_on channel=9 note=42 velocity=95 time=0
EXTRACT: note_on channel=9 note=36 velocity=95 time=0
EXTRACT: note_off channel=2 note=73 velocity=127 time=0
EXTRACT: note_off channel=2 note=69 velocity=127 time=0
EXTRACT: note_off channel=2 note=66 velocity=95 time=0
EXTRACT: note_on channel=2 note=73 velocity=127 time=0
EXTRACT: note_on channel=2 note=69 velocity=127 time=0
EXTRACT: note_on channel=2 note=66 velocity=95 time=0
EXTRACT: note_on channel=4 note=50 velocity=95 time=0
EXTRACT: note_off channel=6 note=62 velocity=95 time=0
EXTRACT: note_on channel=6 note=62 velocity=95 time=0
EXTRACT: note_off channel=1 note=62 velocity=95 time=0.2608695
EXTRACT: note_on channel=1 note=64 velocity=95 time=0
EXTRACT: note_off channel=0 note=38 velocity=95 time=0
EXTRACT: note_on channel=0 note=38 velocity=95 time=0
EXTRACT: note_off channel=9 note=42 velocity=95 time=0
EXTRACT: note_off channel=9 note=36 velocity=95 time=0
EXTRACT: note_on channel=9 note=42 velocity=95 time=0
EXTRACT: note_on channel=9 note=38 velocity=95 time=0
EXTRACT: note_off channel=2 note=73 velocity=127 time=0
EXTRACT: note_off channel=2 note=69 velocity=127 time=0
EXTRACT: note_off channel=2 note=66 velocity=95 time=0
EXTRACT: note_on channel=2 note=73 velocity=127 time=0
EXTRACT: note_on channel=2 note=69 velocity=127 time=0
EXTRACT: note_on channel=2 note=66 velocity=95 time=0
EXTRACT: note_off channel=4 note=69 velocity=95 time=0
EXTRACT: note_off channel=4 note=66 velocity=95 time=0
EXTRACT: note_on channel=4 note=66 velocity=95 time=0
EXTRACT: note_off channel=6 note=69 velocity=95 time=0
EXTRACT: note_on channel=6 note=66 velocity=95 time=0
EXTRACT: note_off channel=0 note=38 velocity=95 time=0.2608695
EXTRACT: note_on channel=0 note=38 velocity=95 time=0
EXTRACT: note_off channel=9 note=42 velocity=95 time=0
EXTRACT: note_off channel=9 note=38 velocity=95 time=0
EXTRACT: note_on channel=9 note=42 velocity=95 time=0
EXTRACT: note_off channel=2 note=73 velocity=127 time=0
EXTRACT: note_off channel=2 note=69 velocity=127 time=0
EXTRACT: note_off channel=2 note=66 velocity=95 time=0
EXTRACT: note_on channel=2 note=73 velocity=127 time=0
EXTRACT: note_on channel=2 note=69 velocity=127 time=0
EXTRACT: note_on channel=2 note=66 velocity=95 time=0
EXTRACT: note_off channel=4 note=50 velocity=95 time=0
EXTRACT: note_on channel=4 note=50 velocity=95 time=0
EXTRACT: note_off channel=6 note=62 velocity=95 time=0
EXTRACT: note_on channel=6 note=62 velocity=95 time=0
EXTRACT: note_off channel=1 note=64 velocity=95 time=0.2608695
EXTRACT: note_on channel=1 note=61 velocity=95 time=0
EXTRACT: note_off channel=0 note=38 velocity=95 time=0
EXTRACT: note_on channel=0 note=37 velocity=95 time=0
EXTRACT: note_off channel=9 note=42 velocity=95 time=0
EXTRACT: note_on channel=9 note=42 velocity=95 time=0
EXTRACT: note_on channel=9 note=36 velocity=95 time=0
EXTRACT: note_off channel=2 note=73 velocity=127 time=0
EXTRACT: note_off channel=2 note=69 velocity=127 time=0
EXTRACT: note_off channel=2 note=66 velocity=95 time=0
EXTRACT: note_on channel=2 note=69 velocity=127 time=0
EXTRACT: note_on channel=2 note=64 velocity=127 time=0
EXTRACT: note_on channel=2 note=61 velocity=95 time=0
EXTRACT: note_off channel=4 note=66 velocity=95 time=0
EXTRACT: note_on channel=4 note=64 velocity=95 time=0
EXTRACT: note_off channel=6 note=66 velocity=95 time=0
EXTRACT: note_on channel=6 note=64 velocity=95 time=0
EXTRACT: note_off channel=0 note=37 velocity=95 time=0.2608695
EXTRACT: note_on channel=0 note=37 velocity=95 time=0
EXTRACT: note_off channel=9 note=42 velocity=95 time=0
EXTRACT: note_on channel=9 note=42 velocity=95 time=0
EXTRACT: note_off channel=2 note=69 velocity=127 time=0
EXTRACT: note_off channel=2 note=64 velocity=127 time=0
EXTRACT: note_off channel=2 note=61 velocity=95 time=0
EXTRACT: note_on channel=2 note=69 velocity=127 time=0
EXTRACT: note_on channel=2 note=64 velocity=127 time=0
EXTRACT: note_on channel=2 note=61 velocity=95 time=0
EXTRACT: note_off channel=4 note=64 velocity=95 time=0
EXTRACT: note_on channel=4 note=73 velocity=95 time=0
EXTRACT: note_off channel=6 note=64 velocity=95 time=0
EXTRACT: note_on channel=6 note=73 velocity=95 time=0
EXTRACT: note_off channel=0 note=37 velocity=95 time=0.2608695
EXTRACT: note_on channel=0 note=37 velocity=95 time=0
EXTRACT: note_off channel=9 note=36 velocity=95 time=0
EXTRACT: note_off channel=9 note=42 velocity=95 time=0
EXTRACT: note_on channel=9 note=42 velocity=95 time=0
EXTRACT: note_on channel=9 note=38 velocity=95 time=0
EXTRACT: note_off channel=2 note=69 velocity=127 time=0
EXTRACT: note_off channel=2 note=64 velocity=127 time=0
EXTRACT: note_off channel=2 note=61 velocity=95 time=0
EXTRACT: note_on channel=2 note=69 velocity=127 time=0
EXTRACT: note_on channel=2 note=64 velocity=127 time=0
EXTRACT: note_on channel=2 note=61 velocity=95 time=0
EXTRACT: note_off channel=4 note=62 velocity=95 time=0
EXTRACT: note_off channel=4 note=50 velocity=95 time=0
EXTRACT: note_on channel=4 note=62 velocity=95 time=0
EXTRACT: note_off channel=6 note=62 velocity=95 time=0
EXTRACT: note_on channel=6 note=62 velocity=95 time=0
EXTRACT: note_off channel=1 note=61 velocity=95 time=0.2608695
EXTRACT: note_on channel=1 note=62 velocity=95 time=0
EXTRACT: note_off channel=0 note=37 velocity=95 time=0
EXTRACT: note_on channel=0 note=37 velocity=95 time=0
EXTRACT: note_off channel=9 note=42 velocity=95 time=0
EXTRACT: note_on channel=9 note=42 velocity=95 time=0
EXTRACT: note_off channel=2 note=69 velocity=127 time=0
EXTRACT: note_off channel=2 note=64 velocity=127 time=0
EXTRACT: note_off channel=2 note=61 velocity=95 time=0
EXTRACT: note_on channel=2 note=69 velocity=127 time=0
EXTRACT: note_on channel=2 note=64 velocity=127 time=0
EXTRACT: note_on channel=2 note=61 velocity=95 time=0
EXTRACT: note_off channel=4 note=73 velocity=95 time=0
EXTRACT: note_on channel=4 note=69 velocity=95 time=0
EXTRACT: note_off channel=6 note=73 velocity=95 time=0
EXTRACT: note_on channel=6 note=69 velocity=95 time=0
EXTRACT: note_off channel=0 note=37 velocity=95 time=0.2608695
EXTRACT: note_on channel=0 note=37 velocity=95 time=0
EXTRACT: note_off channel=9 note=38 velocity=95 time=0
EXTRACT: note_off channel=9 note=42 velocity=95 time=0
EXTRACT: note_on channel=9 note=42 velocity=95 time=0
EXTRACT: note_on channel=9 note=36 velocity=95 time=0
EXTRACT: note_off channel=2 note=69 velocity=127 time=0
EXTRACT: note_off channel=2 note=64 velocity=127 time=0
EXTRACT: note_off channel=2 note=61 velocity=95 time=0
EXTRACT: note_on channel=2 note=69 velocity=127 time=0
EXTRACT: note_on channel=2 note=64 velocity=127 time=0
EXTRACT: note_on channel=2 note=61 velocity=95 time=0
EXTRACT: note_off channel=0 note=37 velocity=95 time=0.2608695
EXTRACT: note_on channel=0 note=37 velocity=95 time=0
EXTRACT: note_off channel=9 note=42 velocity=95 time=0
EXTRACT: note_off channel=9 note=36 velocity=95 time=0
EXTRACT: note_on channel=9 note=42 velocity=95 time=0
EXTRACT: note_on channel=9 note=36 velocity=95 time=0
EXTRACT: note_off channel=2 note=69 velocity=127 time=0
EXTRACT: note_off channel=2 note=64 velocity=127 time=0
EXTRACT: note_off channel=2 note=61 velocity=95 time=0
EXTRACT: note_on channel=2 note=69 velocity=127 time=0
EXTRACT: note_on channel=2 note=64 velocity=127 time=0
EXTRACT: note_on channel=2 note=61 velocity=95 time=0
EXTRACT: note_off channel=4 note=62 velocity=95 time=0
EXTRACT: note_on channel=4 note=62 velocity=95 time=0
EXTRACT: note_on channel=4 note=50 velocity=95 time=0
EXTRACT: note_off channel=6 note=62 velocity=95 time=0
EXTRACT: note_on channel=6 note=62 velocity=95 time=0
EXTRACT: note_off channel=1 note=62 velocity=95 time=0.2608695
EXTRACT: note_on channel=1 note=64 velocity=95 time=0
EXTRACT: note_off channel=0 note=37 velocity=95 time=0
EXTRACT: note_on channel=0 note=37 velocity=95 time=0
EXTRACT: note_off channel=9 note=42 velocity=95 time=0
EXTRACT: note_off channel=9 note=36 velocity=95 time=0
EXTRACT: note_on channel=9 note=42 velocity=95 time=0
EXTRACT: note_on channel=9 note=38 velocity=95 time=0
EXTRACT: note_off channel=2 note=69 velocity=127 time=0
EXTRACT: note_off channel=2 note=64 velocity=127 time=0
EXTRACT: note_off channel=2 note=61 velocity=95 time=0
EXTRACT: note_on channel=2 note=69 velocity=127 time=0
EXTRACT: note_on channel=2 note=64 velocity=127 time=0
EXTRACT: note_on channel=2 note=61 velocity=95 time=0
EXTRACT: note_off channel=4 note=69 velocity=95 time=0
EXTRACT: note_on channel=4 note=64 velocity=95 time=0
EXTRACT: note_off channel=6 note=69 velocity=95 time=0
EXTRACT: note_on channel=6 note=64 velocity=95 time=0
EXTRACT: note_off channel=0 note=37 velocity=95 time=0.2608695
EXTRACT: note_on channel=0 note=37 velocity=95 time=0
EXTRACT: note_off channel=9 note=42 velocity=95 time=0
EXTRACT: note_off channel=9 note=38 velocity=95 time=0
EXTRACT: note_on channel=9 note=42 velocity=95 time=0
EXTRACT: note_off channel=2 note=69 velocity=127 time=0
EXTRACT: note_off channel=2 note=64 velocity=127 time=0
EXTRACT: note_off channel=2 note=61 velocity=95 time=0
EXTRACT: note_on channel=2 note=69 velocity=127 time=0
EXTRACT: note_on channel=2 note=64 velocity=127 time=0
EXTRACT: note_on channel=2 note=61 velocity=95 time=0
EXTRACT: note_off channel=4 note=62 velocity=95 time=0
EXTRACT: note_off channel=4 note=50 velocity=95 time=0
EXTRACT: note_on channel=4 note=50 velocity=95 time=0
EXTRACT: note_off channel=6 note=62 velocity=95 time=0
EXTRACT: note_on channel=6 note=62 velocity=95 time=0
EXTRACT: note_off channel=1 note=64 velocity=95 time=0.2608695
EXTRACT: note_on channel=1 note=61 velocity=95 time=0
EXTRACT: note_off channel=0 note=37 velocity=95 time=0
EXTRACT: note_on channel=0 note=35 velocity=95 time=0
EXTRACT: note_off channel=9 note=42 velocity=95 time=0
EXTRACT: note_on channel=9 note=42 velocity=95 time=0
EXTRACT: note_on channel=9 note=36 velocity=95 time=0
EXTRACT: note_off channel=2 note=69 velocity=127 time=0
EXTRACT: note_off channel=2 note=64 velocity=127 time=0
EXTRACT: note_off channel=2 note=61 velocity=95 time=0
EXTRACT: note_on channel=2 note=69 velocity=127 time=0
EXTRACT: note_on channel=2 note=62 velocity=127 time=0
EXTRACT: note_on channel=2 note=59 velocity=95 time=0
EXTRACT: note_off channel=4 note=64 velocity=95 time=0
EXTRACT: note_on channel=4 note=62 velocity=95 time=0
EXTRACT: note_off channel=6 note=62 velocity=95 time=0
EXTRACT: note_on channel=6 note=62 velocity=95 time=0
EXTRACT: note_off channel=0 note=35 velocity=95 time=0.2608695
EXTRACT: note_on channel=0 note=35 velocity=95 time=0
EXTRACT: note_off channel=9 note=42 velocity=95 time=0
EXTRACT: note_on channel=9 note=42 velocity=95 time=0
EXTRACT: note_off channel=2 note=69 velocity=127 time=0
EXTRACT: note_off channel=2 note=62 velocity=127 time=0
EXTRACT: note_off channel=2 note=59 velocity=95 time=0
EXTRACT: note_on channel=2 note=69 velocity=127 time=0
EXTRACT: note_on channel=2 note=62 velocity=127 time=0
EXTRACT: note_on channel=2 note=59 velocity=95 time=0
EXTRACT: note_off channel=4 note=62 velocity=95 time=0
EXTRACT: note_on channel=4 note=71 velocity=95 time=0
EXTRACT: note_off channel=6 note=64 velocity=95 time=0
EXTRACT: note_off channel=6 note=62 velocity=95 time=0
EXTRACT: note_on channel=6 note=71 velocity=95 time=0
EXTRACT: note_on channel=6 note=62 velocity=95 time=0
EXTRACT: note_off channel=0 note=35 velocity=95 time=0.2608695
EXTRACT: note_on channel=0 note=35 velocity=95 time=0
EXTRACT: note_off channel=9 note=36 velocity=95 time=0
EXTRACT: note_off channel=9 note=42 velocity=95 time=0
EXTRACT: note_on channel=9 note=42 velocity=95 time=0
EXTRACT: note_on channel=9 note=38 velocity=95 time=0
EXTRACT: note_off channel=2 note=69 velocity=127 time=0
EXTRACT: note_off channel=2 note=62 velocity=127 time=0
EXTRACT: note_off channel=2 note=59 velocity=95 time=0
EXTRACT: note_on channel=2 note=69 velocity=127 time=0
EXTRACT: note_on channel=2 note=62 velocity=127 time=0
EXTRACT: note_on channel=2 note=59 velocity=95 time=0
EXTRACT: note_off channel=4 note=50 velocity=95 time=0
EXTRACT: note_on channel=4 note=50 velocity=95 time=0
EXTRACT: note_off channel=6 note=62 velocity=95 time=0
EXTRACT: note_on channel=6 note=62 velocity=95 time=0
EXTRACT: note_off channel=1 note=61 velocity=95 time=0.2608695
EXTRACT: note_on channel=1 note=62 velocity=95 time=0
EXTRACT: note_off channel=0 note=35 velocity=95 time=0
EXTRACT: note_on channel=0 note=35 velocity=95 time=0
EXTRACT: note_off channel=9 note=42 velocity=95 time=0
EXTRACT: note_on channel=9 note=42 velocity=95 time=0
EXTRACT: note_off channel=2 note=69 velocity=127 time=0
EXTRACT: note_off channel=2 note=62 velocity=127 time=0
EXTRACT: note_off channel=2 note=59 velocity=95 time=0
EXTRACT: note_on channel=2 note=69 velocity=127 time=0
EXTRACT: note_on channel=2 note=62 velocity=127 time=0
EXTRACT: note_on channel=2 note=59 velocity=95 time=0
EXTRACT: note_off channel=4 note=71 velocity=95 time=0
EXTRACT: note_on channel=4 note=67 velocity=95 time=0
EXTRACT: note_off channel=6 note=71 velocity=95 time=0
EXTRACT: note_on channel=6 note=67 velocity=95 time=0
EXTRACT: note_off channel=0 note=35 velocity=95 time=0.2608695
EXTRACT: note_on channel=0 note=35 velocity=95 time=0
EXTRACT: note_off channel=9 note=38 velocity=95 time=0
EXTRACT: note_off channel=9 note=42 velocity=95 time=0
EXTRACT: note_on channel=9 note=42 velocity=95 time=0
EXTRACT: note_on channel=9 note=36 velocity=95 time=0
EXTRACT: note_off channel=2 note=69 velocity=127 time=0
EXTRACT: note_off channel=2 note=62 velocity=127 time=0
EXTRACT: note_off channel=2 note=59 velocity=95 time=0
EXTRACT: note_on channel=2 note=69 velocity=127 time=0
EXTRACT: note_on channel=2 note=62 velocity=127 time=0
EXTRACT: note_on channel=2 note=59 velocity=95 time=0
EXTRACT: note_off channel=6 note=62 velocity=95 time=0
EXTRACT: note_on channel=6 note=62 velocity=95 time=0
EXTRACT: note_off channel=0 note=35 velocity=95 time=0.2608695
EXTRACT: note_on channel=0 note=35 velocity=95 time=0
EXTRACT: note_off channel=9 note=42 velocity=95 time=0
EXTRACT: note_off channel=9 note=36 velocity=95 time=0
EXTRACT: note_on channel=9 note=42 velocity=95 time=0
EXTRACT: note_on channel=9 note=36 velocity=95 time=0
EXTRACT: note_off channel=2 note=69 velocity=127 time=0
EXTRACT: note_off channel=2 note=62 velocity=127 time=0
EXTRACT: note_off channel=2 note=59 velocity=95 time=0
EXTRACT: note_on channel=2 note=69 velocity=127 time=0
EXTRACT: note_on channel=2 note=62 velocity=127 time=0
EXTRACT: note_on channel=2 note=59 velocity=95 time=0
EXTRACT: note_off channel=4 note=50 velocity=95 time=0
EXTRACT: note_on channel=4 note=50 velocity=95 time=0
EXTRACT: note_off channel=6 note=62 velocity=95 time=0
EXTRACT: note_on channel=6 note=62 velocity=95 time=0
EXTRACT: note_off channel=1 note=62 velocity=95 time=0.2608695
EXTRACT: note_on channel=1 note=64 velocity=95 time=0
EXTRACT: note_off channel=0 note=35 velocity=95 time=0
EXTRACT: note_on channel=0 note=35 velocity=95 time=0
EXTRACT: note_off channel=9 note=42 velocity=95 time=0
EXTRACT: note_off channel=9 note=36 velocity=95 time=0
EXTRACT: note_on channel=9 note=42 velocity=95 time=0
EXTRACT: note_on channel=9 note=38 velocity=95 time=0
EXTRACT: note_off channel=2 note=69 velocity=127 time=0
EXTRACT: note_off channel=2 note=62 velocity=127 time=0
EXTRACT: note_off channel=2 note=59 velocity=95 time=0
EXTRACT: note_on channel=2 note=69 velocity=127 time=0
EXTRACT: note_on channel=2 note=62 velocity=127 time=0
EXTRACT: note_on channel=2 note=59 velocity=95 time=0
EXTRACT: note_off channel=4 note=67 velocity=95 time=0
EXTRACT: note_on channel=4 note=62 velocity=95 time=0
EXTRACT: note_off channel=6 note=62 velocity=95 time=0
EXTRACT: note_on channel=6 note=62 velocity=95 time=0
EXTRACT: note_on channel=0 note=40 velocity=95 time=0.19565212499999998
EXTRACT: note_off channel=0 note=35 velocity=95 time=0.065217375
EXTRACT: note_off channel=0 note=40 velocity=95 time=0
EXTRACT: note_on channel=0 note=42 velocity=95 time=0
EXTRACT: note_off channel=9 note=42 velocity=95 time=0
EXTRACT: note_off channel=9 note=38 velocity=95 time=0
EXTRACT: note_on channel=9 note=42 velocity=95 time=0
EXTRACT: note_off channel=2 note=69 velocity=127 time=0
EXTRACT: note_off channel=2 note=62 velocity=127 time=0
EXTRACT: note_off channel=2 note=59 velocity=95 time=0
EXTRACT: note_on channel=2 note=69 velocity=127 time=0
EXTRACT: note_on channel=2 note=62 velocity=127 time=0
EXTRACT: note_on channel=2 note=59 velocity=95 time=0
EXTRACT: note_off channel=4 note=50 velocity=95 time=0
EXTRACT: note_on channel=4 note=50 velocity=95 time=0
EXTRACT: note_off channel=6 note=62 velocity=95 time=0
EXTRACT: note_on channel=6 note=62 velocity=95 time=0
EXTRACT: note_off channel=1 note=64 velocity=95 time=0.2608695
EXTRACT: note_on channel=1 note=66 velocity=95 time=0
EXTRACT: note_off channel=0 note=42 velocity=95 time=0
EXTRACT: note_on channel=0 note=33 velocity=95 time=0
EXTRACT: note_off channel=9 note=42 velocity=95 time=0
EXTRACT: note_on channel=9 note=42 velocity=95 time=0
EXTRACT: note_on channel=9 note=36 velocity=95 time=0
EXTRACT: note_off channel=2 note=69 velocity=127 time=0
EXTRACT: note_off channel=2 note=62 velocity=127 time=0
EXTRACT: note_off channel=2 note=59 velocity=95 time=0
EXTRACT: note_on channel=2 note=69 velocity=127 time=0
EXTRACT: note_on channel=2 note=64 velocity=127 time=0
EXTRACT: note_on channel=2 note=61 velocity=95 time=0
EXTRACT: note_off channel=4 note=62 velocity=95 time=0
EXTRACT: note_on channel=4 note=61 velocity=95 time=0
EXTRACT: note_off channel=6 note=67 velocity=95 time=0
EXTRACT: note_off channel=6 note=62 velocity=95 time=0
EXTRACT: note_on channel=6 note=61 velocity=95 time=0
EXTRACT: note_off channel=0 note=33 velocity=95 time=0.2608695
EXTRACT: note_on channel=0 note=33 velocity=95 time=0
EXTRACT: note_off channel=9 note=42 velocity=95 time=0
EXTRACT: note_off channel=9 note=36 velocity=95 time=0
EXTRACT: note_on channel=9 note=42 velocity=95 time=0
EXTRACT: note_on channel=9 note=36 velocity=95 time=0
EXTRACT: note_off channel=2 note=69 velocity=127 time=0
EXTRACT: note_off channel=2 note=64 velocity=127 time=0
EXTRACT: note_off channel=2 note=61 velocity=95 time=0
EXTRACT: note_on channel=2 note=69 velocity=127 time=0
EXTRACT: note_on channel=2 note=64 velocity=127 time=0
EXTRACT: note_on channel=2 note=61 velocity=95 time=0
EXTRACT: note_off channel=4 note=61 velocity=95 time=0
EXTRACT: note_on channel=4 note=69 velocity=95 time=0
EXTRACT: note_on channel=6 note=69 velocity=95 time=0
EXTRACT: note_off channel=1 note=66 velocity=95 time=0.2608695
EXTRACT: note_on channel=1 note=64 velocity=95 time=0
EXTRACT: note_off channel=0 note=33 velocity=95 time=0
EXTRACT: note_on channel=0 note=33 velocity=95 time=0
EXTRACT: note_off channel=9 note=42 velocity=95 time=0
EXTRACT: note_off channel=9 note=36 velocity=95 time=0
EXTRACT: note_on channel=9 note=42 velocity=95 time=0
EXTRACT: note_on channel=9 note=38 velocity=95 time=0
EXTRACT: note_on channel=9 note=36 velocity=95 time=0
EXTRACT: note_off channel=2 note=69 velocity=127 time=0
EXTRACT: note_off channel=2 note=64 velocity=127 time=0
EXTRACT: note_off channel=2 note=61 velocity=95 time=0
EXTRACT: note_on channel=2 note=69 velocity=127 time=0
EXTRACT: note_on channel=2 note=64 velocity=127 time=0
EXTRACT: note_on channel=2 note=61 velocity=95 time=0
EXTRACT: note_off channel=6 note=61 velocity=95 time=0
EXTRACT: note_on channel=6 note=61 velocity=95 time=0
EXTRACT: note_off channel=0 note=33 velocity=95 time=0.2608695
EXTRACT: note_on channel=0 note=33 velocity=95 time=0
EXTRACT: note_off channel=9 note=42 velocity=95 time=0
EXTRACT: note_off channel=9 note=38 velocity=95 time=0
EXTRACT: note_off channel=9 note=36 velocity=95 time=0
EXTRACT: note_on channel=9 note=42 velocity=95 time=0
EXTRACT: note_on channel=9 note=36 velocity=95 time=0
EXTRACT: note_off channel=2 note=69 velocity=127 time=0
EXTRACT: note_off channel=2 note=64 velocity=127 time=0
EXTRACT: note_off channel=2 note=61 velocity=95 time=0
EXTRACT: note_on channel=2 note=69 velocity=127 time=0
EXTRACT: note_on channel=2 note=64 velocity=127 time=0
EXTRACT: note_on channel=2 note=61 velocity=95 time=0
EXTRACT: note_off channel=4 note=69 velocity=95 time=0
EXTRACT: note_on channel=4 note=64 velocity=95 time=0
EXTRACT: note_off channel=6 note=69 velocity=95 time=0
EXTRACT: note_on channel=6 note=64 velocity=95 time=0
EXTRACT: note_off channel=1 note=64 velocity=95 time=0.2608695
EXTRACT: note_on channel=1 note=62 velocity=95 time=0
EXTRACT: note_off channel=0 note=33 velocity=95 time=0
EXTRACT: note_on channel=0 note=33 velocity=95 time=0
EXTRACT: note_off channel=9 note=42 velocity=95 time=0
EXTRACT: note_off channel=9 note=36 velocity=95 time=0
EXTRACT: note_on channel=9 note=42 velocity=95 time=0
EXTRACT: note_on channel=9 note=38 velocity=95 time=0
EXTRACT: note_on channel=9 note=36 velocity=95 time=0
EXTRACT: note_off channel=2 note=69 velocity=127 time=0
EXTRACT: note_off channel=2 note=64 velocity=127 time=0
EXTRACT: note_off channel=2 note=61 velocity=95 time=0
EXTRACT: note_on channel=2 note=69 velocity=127 time=0
EXTRACT: note_on channel=2 note=64 velocity=127 time=0
EXTRACT: note_on channel=2 note=61 velocity=95 time=0
EXTRACT: note_off channel=4 note=64 velocity=95 time=0
EXTRACT: note_on channel=4 note=62 velocity=95 time=0
EXTRACT: note_off channel=6 note=61 velocity=95 time=0
EXTRACT: note_on channel=6 note=62 velocity=95 time=0
EXTRACT: note_off channel=0 note=33 velocity=95 time=0.2608695
EXTRACT: note_on channel=0 note=33 velocity=95 time=0
EXTRACT: note_off channel=9 note=42 velocity=95 time=0
EXTRACT: note_off channel=9 note=38 velocity=95 time=0
EXTRACT: note_off channel=9 note=36 velocity=95 time=0
EXTRACT: note_on channel=9 note=42 velocity=95 time=0
EXTRACT: note_on channel=9 note=36 velocity=95 time=0
EXTRACT: note_off channel=2 note=69 velocity=127 time=0
EXTRACT: note_off channel=2 note=64 velocity=127 time=0
EXTRACT: note_off channel=2 note=61 velocity=95 time=0
EXTRACT: note_on channel=2 note=69 velocity=127 time=0
EXTRACT: note_on channel=2 note=64 velocity=127 time=0
EXTRACT: note_on channel=2 note=61 velocity=95 time=0
EXTRACT: note_off channel=4 note=62 velocity=95 time=0
EXTRACT: note_on channel=4 note=61 velocity=95 time=0
EXTRACT: note_off channel=6 note=62 velocity=95 time=0
EXTRACT: note_on channel=6 note=61 velocity=95 time=0
EXTRACT: note_on channel=0 note=38 velocity=95 time=0.19565212499999998
EXTRACT: note_off channel=1 note=62 velocity=95 time=0.065217375
EXTRACT: note_on channel=1 note=61 velocity=95 time=0
EXTRACT: note_off channel=0 note=33 velocity=95 time=0
EXTRACT: note_off channel=0 note=38 velocity=95 time=0
EXTRACT: note_on channel=0 note=40 velocity=95 time=0
EXTRACT: note_off channel=9 note=42 velocity=95 time=0
EXTRACT: note_off channel=9 note=36 velocity=95 time=0
EXTRACT: note_on channel=9 note=42 velocity=95 time=0
EXTRACT: note_on channel=9 note=38 velocity=95 time=0
EXTRACT: note_on channel=9 note=36 velocity=95 time=0
EXTRACT: note_off channel=2 note=69 velocity=127 time=0
EXTRACT: note_off channel=2 note=64 velocity=127 time=0
EXTRACT: note_off channel=2 note=61 velocity=95 time=0
EXTRACT: note_on channel=2 note=69 velocity=127 time=0
EXTRACT: note_on channel=2 note=64 velocity=127 time=0
EXTRACT: note_on channel=2 note=61 velocity=95 time=0
EXTRACT: note_off channel=4 note=61 velocity=95 time=0
EXTRACT: note_on channel=4 note=59 velocity=95 time=0
EXTRACT: note_off channel=6 note=61 velocity=95 time=0
EXTRACT: note_on channel=6 note=59 velocity=95 time=0
EXTRACT: note_off channel=0 note=40 velocity=95 time=0.2608695
EXTRACT: note_on channel=0 note=33 velocity=95 time=0
EXTRACT: note_off channel=9 note=42 velocity=95 time=0
EXTRACT: note_off channel=9 note=38 velocity=95 time=0
EXTRACT: note_off channel=9 note=36 velocity=95 time=0
EXTRACT: note_on channel=9 note=42 velocity=95 time=0
EXTRACT: note_on channel=9 note=36 velocity=95 time=0
EXTRACT: note_off channel=2 note=69 velocity=127 time=0
EXTRACT: note_off channel=2 note=64 velocity=127 time=0
EXTRACT: note_off channel=2 note=61 velocity=95 time=0
EXTRACT: note_on channel=2 note=69 velocity=127 time=0
EXTRACT: note_on channel=2 note=64 velocity=127 time=0
EXTRACT: note_on channel=2 note=61 velocity=95 time=0
EXTRACT: note_off channel=4 note=59 velocity=95 time=0
EXTRACT: note_on channel=4 note=61 velocity=95 time=0
EXTRACT: note_off channel=6 note=64 velocity=95 time=0
EXTRACT: note_off channel=6 note=59 velocity=95 time=0
EXTRACT: note_on channel=6 note=69 velocity=95 time=0
EXTRACT: note_off channel=1 note=61 velocity=95 time=0.2608695
EXTRACT: note_on channel=1 note=66 velocity=47 time=0
EXTRACT: note_on channel=1 note=61 velocity=95 time=0
EXTRACT: note_on channel=1 note=54 velocity=47 time=0
EXTRACT: note_off channel=0 note=33 velocity=95 time=0
EXTRACT: note_on channel=0 note=31 velocity=95 time=0
EXTRACT: note_off channel=9 note=42 velocity=95 time=0
EXTRACT: note_off channel=9 note=36 velocity=95 time=0
EXTRACT: note_on channel=9 note=42 velocity=95 time=0
EXTRACT: note_on channel=9 note=38 velocity=95 time=0
EXTRACT: note_on channel=9 note=36 velocity=95 time=0
EXTRACT: note_off channel=2 note=69 velocity=127 time=0
EXTRACT: note_off channel=2 note=64 velocity=127 time=0
EXTRACT: note_off channel=2 note=61 velocity=95 time=0
EXTRACT: note_on channel=2 note=71 velocity=127 time=0
EXTRACT: note_on channel=2 note=67 velocity=127 time=0
EXTRACT: note_on channel=2 note=62 velocity=95 time=0
EXTRACT: note_off channel=4 note=50 velocity=95 time=0
EXTRACT: note_off channel=4 note=61 velocity=95 time=0
EXTRACT: note_on channel=4 note=67 velocity=95 time=0
EXTRACT: note_on channel=4 note=59 velocity=95 time=0
EXTRACT: note_on channel=4 note=55 velocity=95 time=0
EXTRACT: note_on channel=4 note=50 velocity=95 time=0
EXTRACT: note_on channel=4 note=43 velocity=95 time=0
EXTRACT: note_off channel=6 note=69 velocity=95 time=0
EXTRACT: note_on channel=6 note=67 velocity=95 time=0
EXTRACT: note_on channel=6 note=59 velocity=95 time=0
EXTRACT: note_on channel=6 note=55 velocity=95 time=0
EXTRACT: note_on channel=6 note=50 velocity=95 time=0
EXTRACT: note_on channel=6 note=43 velocity=95 time=0
EXTRACT: note_off channel=0 note=31 velocity=95 time=0.2608695
EXTRACT: note_on channel=0 note=31 velocity=95 time=0
EXTRACT: note_off channel=9 note=42 velocity=95 time=0
EXTRACT: note_off channel=9 note=38 velocity=95 time=0
EXTRACT: note_off channel=9 note=36 velocity=95 time=0
EXTRACT: note_on channel=9 note=42 velocity=95 time=0
EXTRACT: note_on channel=9 note=36 velocity=95 time=0
EXTRACT: note_off channel=2 note=71 velocity=127 time=0
EXTRACT: note_off channel=2 note=67 velocity=127 time=0
EXTRACT: note_off channel=2 note=62 velocity=95 time=0
EXTRACT: note_on channel=2 note=71 velocity=127 time=0
EXTRACT: note_on channel=2 note=67 velocity=127 time=0
EXTRACT: note_on channel=2 note=62 velocity=95 time=0
EXTRACT: note_off channel=0 note=31 velocity=95 time=0.2608695
EXTRACT: note_on channel=0 note=31 velocity=95 time=0
EXTRACT: note_off channel=9 note=42 velocity=95 time=0
EXTRACT: note_off channel=9 note=36 velocity=95 time=0
EXTRACT: note_on channel=9 note=42 velocity=95 time=0
EXTRACT: note_on channel=9 note=38 velocity=95 time=0
EXTRACT: note_on channel=9 note=36 velocity=95 time=0
EXTRACT: note_off channel=2 note=71 velocity=127 time=0
EXTRACT: note_off channel=2 note=67 velocity=127 time=0
EXTRACT: note_off channel=2 note=62 velocity=95 time=0
EXTRACT: note_on channel=2 note=71 velocity=127 time=0
EXTRACT: note_on channel=2 note=67 velocity=127 time=0
EXTRACT: note_on channel=2 note=62 velocity=95 time=0
EXTRACT: note_off channel=1 note=66 velocity=47 time=0.2608695
EXTRACT: note_off channel=1 note=61 velocity=95 time=0
EXTRACT: note_off channel=1 note=54 velocity=47 time=0
EXTRACT: note_on channel=1 note=67 velocity=47 time=0
EXTRACT: note_on channel=1 note=62 velocity=95 time=0
EXTRACT: note_on channel=1 note=55 velocity=47 time=0
EXTRACT: note_off channel=0 note=31 velocity=95 time=0
EXTRACT: note_on channel=0 note=31 velocity=95 time=0
EXTRACT: note_off channel=9 note=42 velocity=95 time=0
EXTRACT: note_off channel=9 note=38 velocity=95 time=0
EXTRACT: note_off channel=9 note=36 velocity=95 time=0
EXTRACT: note_on channel=9 note=42 velocity=95 time=0
EXTRACT: note_on channel=9 note=36 velocity=95 time=0
EXTRACT: note_off channel=2 note=71 velocity=127 time=0
EXTRACT: note_off channel=2 note=67 velocity=127 time=0
EXTRACT: note_off channel=2 note=62 velocity=95 time=0
EXTRACT: note_on channel=2 note=71 velocity=127 time=0
EXTRACT: note_on channel=2 note=67 velocity=127 time=0
EXTRACT: note_on channel=2 note=62 velocity=95 time=0
EXTRACT: note_off channel=4 note=67 velocity=95 time=0
EXTRACT: note_off channel=4 note=59 velocity=95 time=0
EXTRACT: note_off channel=4 note=55 velocity=95 time=0
EXTRACT: note_off channel=4 note=50 velocity=95 time=0
EXTRACT: note_off channel=4 note=43 velocity=95 time=0
EXTRACT: note_on channel=4 note=67 velocity=95 time=0
EXTRACT: note_on channel=4 note=59 velocity=95 time=0
EXTRACT: note_on channel=4 note=55 velocity=95 time=0
EXTRACT: note_on channel=4 note=50 velocity=95 time=0
EXTRACT: note_on channel=4 note=43 velocity=95 time=0
EXTRACT: note_off channel=0 note=31 velocity=95 time=0.2608695
EXTRACT: note_on channel=0 note=31 velocity=95 time=0
EXTRACT: note_off channel=9 note=42 velocity=95 time=0
EXTRACT: note_off channel=9 note=36 velocity=95 time=0
EXTRACT: note_on channel=9 note=42 velocity=95 time=0
EXTRACT: note_on channel=9 note=38 velocity=95 time=0
EXTRACT: note_on channel=9 note=36 velocity=95 time=0
EXTRACT: note_off channel=2 note=71 velocity=127 time=0
EXTRACT: note_off channel=2 note=67 velocity=127 time=0
EXTRACT: note_off channel=2 note=62 velocity=95 time=0
EXTRACT: note_on channel=2 note=71 velocity=127 time=0
EXTRACT: note_on channel=2 note=67 velocity=127 time=0
EXTRACT: note_on channel=2 note=62 velocity=95 time=0
EXTRACT: note_on channel=0 note=37 velocity=95 time=0.19565212499999998
EXTRACT: note_off channel=0 note=31 velocity=95 time=0.065217375
EXTRACT: note_off channel=0 note=37 velocity=95 time=0
EXTRACT: note_on channel=0 note=38 velocity=95 time=0
EXTRACT: note_off channel=9 note=42 velocity=95 time=0
EXTRACT: note_off channel=9 note=38 velocity=95 time=0
EXTRACT: note_off channel=9 note=36 velocity=95 time=0
EXTRACT: note_on channel=9 note=42 velocity=95 time=0
EXTRACT: note_on channel=9 note=36 velocity=95 time=0
EXTRACT: note_off channel=2 note=71 velocity=127 time=0
EXTRACT: note_off channel=2 note=67 velocity=127 time=0
EXTRACT: note_off channel=2 note=62 velocity=95 time=0
EXTRACT: note_on channel=2 note=71 velocity=127 time=0
EXTRACT: note_on channel=2 note=67 velocity=127 time=0
EXTRACT: note_on channel=2 note=62 velocity=95 time=0
EXTRACT: note_on channel=0 note=37 velocity=95 time=0.19565212499999998
EXTRACT: note_off channel=1 note=67 velocity=47 time=0.065217375
EXTRACT: note_off channel=1 note=62 velocity=95 time=0
EXTRACT: note_off channel=1 note=55 velocity=47 time=0
EXTRACT: note_on channel=1 note=69 velocity=47 time=0
EXTRACT: note_on channel=1 note=64 velocity=95 time=0
EXTRACT: note_on channel=1 note=57 velocity=47 time=0
EXTRACT: note_off channel=0 note=38 velocity=95 time=0
EXTRACT: note_off channel=0 note=37 velocity=95 time=0
EXTRACT: note_on channel=0 note=38 velocity=95 time=0
EXTRACT: note_off channel=9 note=42 velocity=95 time=0
EXTRACT: note_off channel=9 note=36 velocity=95 time=0
EXTRACT: note_on channel=9 note=42 velocity=95 time=0
EXTRACT: note_on channel=9 note=38 velocity=95 time=0
EXTRACT: note_on channel=9 note=36 velocity=95 time=0
EXTRACT: note_off channel=2 note=71 velocity=127 time=0
EXTRACT: note_off channel=2 note=67 velocity=127 time=0
EXTRACT: note_off channel=2 note=62 velocity=95 time=0
EXTRACT: note_on channel=2 note=71 velocity=127 time=0
EXTRACT: note_on channel=2 note=67 velocity=127 time=0
EXTRACT: note_on channel=2 note=62 velocity=95 time=0
EXTRACT: note_off channel=9 note=42 velocity=95 time=0.2608695
EXTRACT: note_off channel=9 note=38 velocity=95 time=0
EXTRACT: note_off channel=9 note=36 velocity=95 time=0
EXTRACT: note_on channel=9 note=42 velocity=95 time=0
EXTRACT: note_on channel=9 note=36 velocity=95 time=0
EXTRACT: note_off channel=2 note=71 velocity=127 time=0
EXTRACT: note_off channel=2 note=67 velocity=127 time=0
EXTRACT: note_off channel=2 note=62 velocity=95 time=0
EXTRACT: note_on channel=2 note=71 velocity=127 time=0
EXTRACT: note_on channel=2 note=67 velocity=127 time=0
EXTRACT: note_on channel=2 note=62 velocity=95 time=0
EXTRACT: note_off channel=1 note=69 velocity=47 time=0.2608695
EXTRACT: note_off channel=1 note=64 velocity=95 time=0
EXTRACT: note_off channel=1 note=57 velocity=47 time=0
EXTRACT: note_on channel=1 note=66 velocity=47 time=0
EXTRACT: note_on channel=1 note=61 velocity=95 time=0
EXTRACT: note_on channel=1 note=54 velocity=47 time=0
EXTRACT: note_off channel=0 note=38 velocity=95 time=0
EXTRACT: note_on channel=0 note=31 velocity=95 time=0
EXTRACT: note_off channel=9 note=42 velocity=95 time=0
EXTRACT: note_off channel=9 note=36 velocity=95 time=0
EXTRACT: note_on channel=9 note=42 velocity=95 time=0
EXTRACT: note_on channel=9 note=38 velocity=95 time=0
EXTRACT: note_on channel=9 note=36 velocity=95 time=0
EXTRACT: note_off channel=2 note=71 velocity=127 time=0
EXTRACT: note_off channel=2 note=67 velocity=127 time=0
EXTRACT: note_off channel=2 note=62 velocity=95 time=0
EXTRACT: note_on channel=2 note=73 velocity=127 time=0
EXTRACT: note_on channel=2 note=69 velocity=127 time=0
EXTRACT: note_on channel=2 note=64 velocity=95 time=0
EXTRACT: note_off channel=4 note=67 velocity=95 time=0
EXTRACT: note_off channel=4 note=59 velocity=95 time=0
EXTRACT: note_off channel=4 note=55 velocity=95 time=0
EXTRACT: note_off channel=4 note=50 velocity=95 time=0
EXTRACT: note_off channel=4 note=43 velocity=95 time=0
EXTRACT: note_on channel=4 note=61 velocity=95 time=0
EXTRACT: note_on channel=4 note=57 velocity=95 time=0
EXTRACT: note_on channel=4 note=52 velocity=95 time=0
EXTRACT: note_on channel=4 note=45 velocity=95 time=0
EXTRACT: note_off channel=6 note=67 velocity=95 time=0
EXTRACT: note_off channel=6 note=59 velocity=95 time=0
EXTRACT: note_off channel=6 note=55 velocity=95 time=0
EXTRACT: note_off channel=6 note=50 velocity=95 time=0
EXTRACT: note_off channel=6 note=43 velocity=95 time=0
EXTRACT: note_on channel=6 note=64 velocity=95 time=0
EXTRACT: note_on channel=6 note=61 velocity=95 time=0
EXTRACT: note_on channel=6 note=57 velocity=95 time=0
EXTRACT: note_on channel=6 note=52 velocity=95 time=0
EXTRACT: note_on channel=6 note=45 velocity=95 time=0
EXTRACT: note_on channel=6 note=43 velocity=95 time=0
EXTRACT: note_off channel=0 note=31 velocity=95 time=0.2608695
EXTRACT: note_on channel=0 note=31 velocity=95 time=0
EXTRACT: note_off channel=9 note=42 velocity=95 time=0
EXTRACT: note_off channel=9 note=38 velocity=95 time=0
EXTRACT: note_off channel=9 note=36 velocity=95 time=0
EXTRACT: note_on channel=9 note=42 velocity=95 time=0
EXTRACT: note_on channel=9 note=36 velocity=95 time=0
EXTRACT: note_off channel=2 note=73 velocity=127 time=0
EXTRACT: note_off channel=2 note=69 velocity=127 time=0
EXTRACT: note_off channel=2 note=64 velocity=95 time=0
EXTRACT: note_on channel=2 note=73 velocity=127 time=0
EXTRACT: note_on channel=2 note=69 velocity=127 time=0
EXTRACT: note_on channel=2 note=64 velocity=95 time=0
EXTRACT: note_off channel=0 note=31 velocity=95 time=0.2608695
EXTRACT: note_on channel=0 note=31 velocity=95 time=0
EXTRACT: note_off channel=9 note=42 velocity=95 time=0
EXTRACT: note_off channel=9 note=36 velocity=95 time=0
EXTRACT: note_on channel=9 note=42 velocity=95 time=0
EXTRACT: note_on channel=9 note=38 velocity=95 time=0
EXTRACT: note_on channel=9 note=36 velocity=95 time=0
EXTRACT: note_off channel=2 note=73 velocity=127 time=0
EXTRACT: note_off channel=2 note=69 velocity=127 time=0
EXTRACT: note_off channel=2 note=64 velocity=95 time=0
EXTRACT: note_on channel=2 note=73 velocity=127 time=0
EXTRACT: note_on channel=2 note=69 velocity=127 time=0
EXTRACT: note_on channel=2 note=64 velocity=95 time=0
EXTRACT: note_off channel=1 note=66 velocity=47 time=0.2608695
EXTRACT: note_off channel=1 note=61 velocity=95 time=0
EXTRACT: note_off channel=1 note=54 velocity=47 time=0
EXTRACT: note_on channel=1 note=67 velocity=47 time=0
EXTRACT: note_on channel=1 note=62 velocity=95 time=0
EXTRACT: note_on channel=1 note=55 velocity=47 time=0
EXTRACT: note_off channel=0 note=31 velocity=95 time=0
EXTRACT: note_on channel=0 note=31 velocity=95 time=0
EXTRACT: note_off channel=9 note=42 velocity=95 time=0
EXTRACT: note_off channel=9 note=38 velocity=95 time=0
EXTRACT: note_off channel=9 note=36 velocity=95 time=0
EXTRACT: note_on channel=9 note=42 velocity=95 time=0
EXTRACT: note_on channel=9 note=36 velocity=95 time=0
EXTRACT: note_off channel=2 note=73 velocity=127 time=0
EXTRACT: note_off channel=2 note=69 velocity=127 time=0
EXTRACT: note_off channel=2 note=64 velocity=95 time=0
EXTRACT: note_on channel=2 note=73 velocity=127 time=0
EXTRACT: note_on channel=2 note=69 velocity=127 time=0
EXTRACT: note_on channel=2 note=64 velocity=95 time=0
EXTRACT: note_off channel=4 note=61 velocity=95 time=0
EXTRACT: note_off channel=4 note=57 velocity=95 time=0
EXTRACT: note_off channel=4 note=52 velocity=95 time=0
EXTRACT: note_off channel=4 note=45 velocity=95 time=0
EXTRACT: note_on channel=4 note=61 velocity=95 time=0
EXTRACT: note_on channel=4 note=57 velocity=95 time=0
EXTRACT: note_on channel=4 note=52 velocity=95 time=0
EXTRACT: note_on channel=4 note=45 velocity=95 time=0
EXTRACT: note_off channel=0 note=31 velocity=95 time=0.2608695
EXTRACT: note_on channel=0 note=31 velocity=95 time=0
EXTRACT: note_off channel=9 note=42 velocity=95 time=0
EXTRACT: note_off channel=9 note=36 velocity=95 time=0
EXTRACT: note_on channel=9 note=42 velocity=95 time=0
EXTRACT: note_on channel=9 note=38 velocity=95 time=0
EXTRACT: note_on channel=9 note=36 velocity=95 time=0
EXTRACT: note_off channel=2 note=73 velocity=127 time=0
EXTRACT: note_off channel=2 note=69 velocity=127 time=0
EXTRACT: note_off channel=2 note=64 velocity=95 time=0
EXTRACT: note_on channel=2 note=73 velocity=127 time=0
EXTRACT: note_on channel=2 note=69 velocity=127 time=0
EXTRACT: note_on channel=2 note=64 velocity=95 time=0
EXTRACT: note_off channel=0 note=31 velocity=95 time=0.2608695
EXTRACT: note_on channel=0 note=31 velocity=95 time=0
EXTRACT: note_off channel=9 note=42 velocity=95 time=0
EXTRACT: note_off channel=9 note=38 velocity=95 time=0
EXTRACT: note_off channel=9 note=36 velocity=95 time=0
EXTRACT: note_on channel=9 note=42 velocity=95 time=0
EXTRACT: note_on channel=9 note=36 velocity=95 time=0
EXTRACT: note_off channel=2 note=73 velocity=127 time=0
EXTRACT: note_off channel=2 note=69 velocity=127 time=0
EXTRACT: note_off channel=2 note=64 velocity=95 time=0
EXTRACT: note_on channel=2 note=73 velocity=127 time=0
EXTRACT: note_on channel=2 note=69 velocity=127 time=0
EXTRACT: note_on channel=2 note=64 velocity=95 time=0
EXTRACT: note_on channel=0 note=37 velocity=95 time=0.19565212499999998
EXTRACT: note_off channel=1 note=67 velocity=47 time=0.065217375
EXTRACT: note_off channel=1 note=62 velocity=95 time=0
EXTRACT: note_off channel=1 note=55 velocity=47 time=0
EXTRACT: note_on channel=1 note=69 velocity=47 time=0
EXTRACT: note_on channel=1 note=64 velocity=95 time=0
EXTRACT: note_on channel=1 note=57 velocity=47 time=0
EXTRACT: note_off channel=0 note=31 velocity=95 time=0
EXTRACT: note_off channel=0 note=37 velocity=95 time=0
EXTRACT: note_on channel=0 note=38 velocity=95 time=0
EXTRACT: note_off channel=9 note=42 velocity=95 time=0
EXTRACT: note_off channel=9 note=36 velocity=95 time=0
EXTRACT: note_on channel=9 note=42 velocity=95 time=0
EXTRACT: note_on channel=9 note=38 velocity=95 time=0
EXTRACT: note_on channel=9 note=36 velocity=95 time=0
EXTRACT: note_off channel=2 note=73 velocity=127 time=0
EXTRACT: note_off channel=2 note=69 velocity=127 time=0
EXTRACT: note_off channel=2 note=64 velocity=95 time=0
EXTRACT: note_on channel=2 note=73 velocity=127 time=0
EXTRACT: note_on channel=2 note=69 velocity=127 time=0
EXTRACT: note_on channel=2 note=64 velocity=95 time=0
EXTRACT: note_off channel=9 note=42 velocity=95 time=0.2608695
EXTRACT: note_off channel=9 note=38 velocity=95 time=0
EXTRACT: note_off channel=9 note=36 velocity=95 time=0
EXTRACT: note_on channel=9 note=42 velocity=95 time=0
EXTRACT: note_on channel=9 note=36 velocity=95 time=0
EXTRACT: note_off channel=2 note=73 velocity=127 time=0
EXTRACT: note_off channel=2 note=69 velocity=127 time=0
EXTRACT: note_off channel=2 note=64 velocity=95 time=0
EXTRACT: note_on channel=2 note=73 velocity=127 time=0
EXTRACT: note_on channel=2 note=69 velocity=127 time=0
EXTRACT: note_on channel=2 note=64 velocity=95 time=0
EXTRACT: note_off channel=1 note=69 velocity=47 time=0.2608695
EXTRACT: note_off channel=1 note=64 velocity=95 time=0
EXTRACT: note_off channel=1 note=57 velocity=47 time=0
EXTRACT: note_on channel=1 note=66 velocity=47 time=0
EXTRACT: note_on channel=1 note=61 velocity=95 time=0
EXTRACT: note_on channel=1 note=54 velocity=47 time=0
EXTRACT: note_off channel=0 note=38 velocity=95 time=0
EXTRACT: note_on channel=0 note=31 velocity=95 time=0
EXTRACT: note_off channel=9 note=42 velocity=95 time=0
EXTRACT: note_off channel=9 note=36 velocity=95 time=0
EXTRACT: note_on channel=9 note=42 velocity=95 time=0
EXTRACT: note_on channel=9 note=38 velocity=95 time=0
EXTRACT: note_on channel=9 note=36 velocity=95 time=0
EXTRACT: note_off channel=2 note=73 velocity=127 time=0
EXTRACT: note_off channel=2 note=69 velocity=127 time=0
EXTRACT: note_off channel=2 note=64 velocity=95 time=0
EXTRACT: note_on channel=2 note=71 velocity=127 time=0
EXTRACT: note_on channel=2 note=67 velocity=127 time=0
EXTRACT: note_on channel=2 note=62 velocity=95 time=0
EXTRACT: note_off channel=4 note=61 velocity=95 time=0
EXTRACT: note_off channel=4 note=57 velocity=95 time=0
EXTRACT: note_off channel=4 note=52 velocity=95 time=0
EXTRACT: note_off channel=4 note=45 velocity=95 time=0
EXTRACT: note_on channel=4 note=67 velocity=95 time=0
EXTRACT: note_on channel=4 note=59 velocity=95 time=0
EXTRACT: note_on channel=4 note=55 velocity=95 time=0
EXTRACT: note_on channel=4 note=50 velocity=95 time=0
EXTRACT: note_on channel=4 note=43 velocity=95 time=0
EXTRACT: note_off channel=6 note=64 velocity=95 time=0
EXTRACT: note_off channel=6 note=61 velocity=95 time=0
EXTRACT: note_off channel=6 note=57 velocity=95 time=0
EXTRACT: note_off channel=6 note=52 velocity=95 time=0
EXTRACT: note_off channel=6 note=45 velocity=95 time=0
EXTRACT: note_off channel=6 note=43 velocity=95 time=0
EXTRACT: note_on channel=6 note=67 velocity=95 time=0
EXTRACT: note_on channel=6 note=59 velocity=95 time=0
EXTRACT: note_on channel=6 note=55 velocity=95 time=0
EXTRACT: note_on channel=6 note=50 velocity=95 time=0
EXTRACT: note_on channel=6 note=43 velocity=95 time=0
EXTRACT: note_off channel=0 note=31 velocity=95 time=0.2608695
EXTRACT: note_on channel=0 note=31 velocity=95 time=0
EXTRACT: note_off channel=9 note=42 velocity=95 time=0
EXTRACT: note_off channel=9 note=38 velocity=95 time=0
EXTRACT: note_off channel=9 note=36 velocity=95 time=0
EXTRACT: note_on channel=9 note=42 velocity=95 time=0
EXTRACT: note_on channel=9 note=36 velocity=95 time=0
EXTRACT: note_off channel=2 note=71 velocity=127 time=0
EXTRACT: note_off channel=2 note=67 velocity=127 time=0
EXTRACT: note_off channel=2 note=62 velocity=95 time=0
EXTRACT: note_on channel=2 note=71 velocity=127 time=0
EXTRACT: note_on channel=2 note=67 velocity=127 time=0
EXTRACT: note_on channel=2 note=62 velocity=95 time=0
EXTRACT: note_off channel=0 note=31 velocity=95 time=0.2608695
EXTRACT: note_on channel=0 note=31 velocity=95 time=0
EXTRACT: note_off channel=9 note=42 velocity=95 time=0
EXTRACT: note_off channel=9 note=36 velocity=95 time=0
EXTRACT: note_on channel=9 note=42 velocity=95 time=0
EXTRACT: note_on channel=9 note=38 velocity=95 time=0
EXTRACT: note_on channel=9 note=36 velocity=95 time=0
EXTRACT: note_off channel=2 note=71 velocity=127 time=0
EXTRACT: note_off channel=2 note=67 velocity=127 time=0
EXTRACT: note_off channel=2 note=62 velocity=95 time=0
EXTRACT: note_on channel=2 note=71 velocity=127 time=0
EXTRACT: note_on channel=2 note=67 velocity=127 time=0
EXTRACT: note_on channel=2 note=62 velocity=95 time=0
EXTRACT: note_off channel=1 note=66 velocity=47 time=0.2608695
EXTRACT: note_off channel=1 note=61 velocity=95 time=0
EXTRACT: note_off channel=1 note=54 velocity=47 time=0
EXTRACT: note_on channel=1 note=67 velocity=47 time=0
EXTRACT: note_on channel=1 note=62 velocity=95 time=0
EXTRACT: note_on channel=1 note=55 velocity=47 time=0
EXTRACT: note_off channel=0 note=31 velocity=95 time=0
EXTRACT: note_on channel=0 note=31 velocity=95 time=0
EXTRACT: note_off channel=9 note=42 velocity=95 time=0
EXTRACT: note_off channel=9 note=38 velocity=95 time=0
EXTRACT: note_off channel=9 note=36 velocity=95 time=0
EXTRACT: note_on channel=9 note=42 velocity=95 time=0
EXTRACT: note_on channel=9 note=36 velocity=95 time=0
EXTRACT: note_off channel=2 note=71 velocity=127 time=0
EXTRACT: note_off channel=2 note=67 velocity=127 time=0
EXTRACT: note_off channel=2 note=62 velocity=95 time=0
EXTRACT: note_on channel=2 note=71 velocity=127 time=0
EXTRACT: note_on channel=2 note=67 velocity=127 time=0
EXTRACT: note_on channel=2 note=62 velocity=95 time=0
EXTRACT: note_off channel=4 note=67 velocity=95 time=0
EXTRACT: note_off channel=4 note=59 velocity=95 time=0
EXTRACT: note_off channel=4 note=55 velocity=95 time=0
EXTRACT: note_off channel=4 note=50 velocity=95 time=0
EXTRACT: note_off channel=4 note=43 velocity=95 time=0
EXTRACT: note_on channel=4 note=67 velocity=95 time=0
EXTRACT: note_on channel=4 note=59 velocity=95 time=0
EXTRACT: note_on channel=4 note=55 velocity=95 time=0
EXTRACT: note_on channel=4 note=50 velocity=95 time=0
EXTRACT: note_on channel=4 note=43 velocity=95 time=0
EXTRACT: note_off channel=0 note=31 velocity=95 time=0.2608695
EXTRACT: note_on channel=0 note=31 velocity=95 time=0
EXTRACT: note_off channel=9 note=42 velocity=95 time=0
EXTRACT: note_off channel=9 note=36 velocity=95 time=0
EXTRACT: note_on channel=9 note=42 velocity=95 time=0
EXTRACT: note_on channel=9 note=38 velocity=95 time=0
EXTRACT: note_on channel=9 note=36 velocity=95 time=0
EXTRACT: note_off channel=2 note=71 velocity=127 time=0
EXTRACT: note_off channel=2 note=67 velocity=127 time=0
EXTRACT: note_off channel=2 note=62 velocity=95 time=0
EXTRACT: note_on channel=2 note=71 velocity=127 time=0
EXTRACT: note_on channel=2 note=67 velocity=127 time=0
EXTRACT: note_on channel=2 note=62 velocity=95 time=0
EXTRACT: note_off channel=0 note=31 velocity=95 time=0.2608695
EXTRACT: note_on channel=0 note=31 velocity=95 time=0
EXTRACT: note_off channel=9 note=42 velocity=95 time=0
EXTRACT: note_off channel=9 note=38 velocity=95 time=0
EXTRACT: note_off channel=9 note=36 velocity=95 time=0
EXTRACT: note_on channel=9 note=42 velocity=95 time=0
EXTRACT: note_on channel=9 note=36 velocity=95 time=0
EXTRACT: note_off channel=2 note=71 velocity=127 time=0
EXTRACT: note_off channel=2 note=67 velocity=127 time=0
EXTRACT: note_off channel=2 note=62 velocity=95 time=0
EXTRACT: note_on channel=2 note=71 velocity=127 time=0
EXTRACT: note_on channel=2 note=67 velocity=127 time=0
EXTRACT: note_on channel=2 note=62 velocity=95 time=0
EXTRACT: note_off channel=1 note=67 velocity=47 time=0.2608695
EXTRACT: note_off channel=1 note=62 velocity=95 time=0
EXTRACT: note_off channel=1 note=55 velocity=47 time=0
EXTRACT: note_on channel=1 note=69 velocity=47 time=0
EXTRACT: note_on channel=1 note=64 velocity=95 time=0
EXTRACT: note_on channel=1 note=57 velocity=47 time=0
EXTRACT: note_off channel=0 note=31 velocity=95 time=0
EXTRACT: note_on channel=0 note=31 velocity=95 time=0
EXTRACT: note_off channel=9 note=42 velocity=95 time=0
EXTRACT: note_off channel=9 note=36 velocity=95 time=0
EXTRACT: note_on channel=9 note=42 velocity=95 time=0
EXTRACT: note_on channel=9 note=38 velocity=95 time=0
EXTRACT: note_on channel=9 note=36 velocity=95 time=0
EXTRACT: note_off channel=2 note=71 velocity=127 time=0
EXTRACT: note_off channel=2 note=67 velocity=127 time=0
EXTRACT: note_off channel=2 note=62 velocity=95 time=0
EXTRACT: note_on channel=2 note=71 velocity=127 time=0
EXTRACT: note_on channel=2 note=67 velocity=127 time=0
EXTRACT: note_on channel=2 note=62 velocity=95 time=0
EXTRACT: note_on channel=0 note=37 velocity=95 time=0.19565212499999998
EXTRACT: note_off channel=0 note=31 velocity=95 time=0.065217375
EXTRACT: note_off channel=0 note=37 velocity=95 time=0
EXTRACT: note_on channel=0 note=38 velocity=95 time=0
EXTRACT: note_off channel=9 note=42 velocity=95 time=0
EXTRACT: note_off channel=9 note=38 velocity=95 time=0
EXTRACT: note_off channel=9 note=36 velocity=95 time=0
EXTRACT: note_on channel=9 note=42 velocity=95 time=0
EXTRACT: note_on channel=9 note=36 velocity=95 time=0
EXTRACT: note_off channel=2 note=71 velocity=127 time=0
EXTRACT: note_off channel=2 note=67 velocity=127 time=0
EXTRACT: note_off channel=2 note=62 velocity=95 time=0
EXTRACT: note_on channel=2 note=71 velocity=127 time=0
EXTRACT: note_on channel=2 note=67 velocity=127 time=0
EXTRACT: note_on channel=2 note=62 velocity=95 time=0
EXTRACT: note_off channel=1 note=69 velocity=47 time=0.2608695
EXTRACT: note_off channel=1 note=64 velocity=95 time=0
EXTRACT: note_off channel=1 note=57 velocity=47 time=0
EXTRACT: note_on channel=1 note=66 velocity=47 time=0
EXTRACT: note_on channel=1 note=61 velocity=95 time=0
EXTRACT: note_on channel=1 note=54 velocity=47 time=0
EXTRACT: note_off channel=0 note=38 velocity=95 time=0
EXTRACT: note_on channel=0 note=31 velocity=95 time=0
EXTRACT: note_off channel=9 note=42 velocity=95 time=0
EXTRACT: note_off channel=9 note=36 velocity=95 time=0
EXTRACT: note_on channel=9 note=42 velocity=95 time=0
EXTRACT: note_on channel=9 note=38 velocity=95 time=0
EXTRACT: note_on channel=9 note=36 velocity=95 time=0
EXTRACT: note_off channel=2 note=71 velocity=127 time=0
EXTRACT: note_off channel=2 note=67 velocity=127 time=0
EXTRACT: note_off channel=2 note=62 velocity=95 time=0
EXTRACT: note_on channel=2 note=73 velocity=127 time=0
EXTRACT: note_on channel=2 note=69 velocity=127 time=0
EXTRACT: note_on channel=2 note=64 velocity=95 time=0
EXTRACT: note_off channel=4 note=67 velocity=95 time=0
EXTRACT: note_off channel=4 note=59 velocity=95 time=0
EXTRACT: note_off channel=4 note=55 velocity=95 time=0
EXTRACT: note_off channel=4 note=50 velocity=95 time=0
EXTRACT: note_off channel=4 note=43 velocity=95 time=0
EXTRACT: note_on channel=4 note=61 velocity=95 time=0
EXTRACT: note_on channel=4 note=57 velocity=95 time=0
EXTRACT: note_on channel=4 note=52 velocity=95 time=0
EXTRACT: note_on channel=4 note=45 velocity=95 time=0
EXTRACT: note_off channel=6 note=67 velocity=95 time=0
EXTRACT: note_off channel=6 note=59 velocity=95 time=0
EXTRACT: note_off channel=6 note=55 velocity=95 time=0
EXTRACT: note_off channel=6 note=50 velocity=95 time=0
EXTRACT: note_off channel=6 note=43 velocity=95 time=0
EXTRACT: note_on channel=6 note=64 velocity=95 time=0
EXTRACT: note_on channel=6 note=61 velocity=95 time=0
EXTRACT: note_on channel=6 note=57 velocity=95 time=0
EXTRACT: note_on channel=6 note=52 velocity=95 time=0
EXTRACT: note_on channel=6 note=45 velocity=95 time=0
EXTRACT: note_on channel=6 note=43 velocity=95 time=0
EXTRACT: note_off channel=0 note=31 velocity=95 time=0.2608695
EXTRACT: note_on channel=0 note=31 velocity=95 time=0
EXTRACT: note_off channel=9 note=42 velocity=95 time=0
EXTRACT: note_off channel=9 note=38 velocity=95 time=0
EXTRACT: note_off channel=9 note=36 velocity=95 time=0
EXTRACT: note_on channel=9 note=42 velocity=95 time=0
EXTRACT: note_on channel=9 note=36 velocity=95 time=0
EXTRACT: note_off channel=2 note=73 velocity=127 time=0
EXTRACT: note_off channel=2 note=69 velocity=127 time=0
EXTRACT: note_off channel=2 note=64 velocity=95 time=0
EXTRACT: note_on channel=2 note=73 velocity=127 time=0
EXTRACT: note_on channel=2 note=69 velocity=127 time=0
EXTRACT: note_on channel=2 note=64 velocity=95 time=0
EXTRACT: note_off channel=0 note=31 velocity=95 time=0.2608695
EXTRACT: note_on channel=0 note=31 velocity=95 time=0
EXTRACT: note_off channel=9 note=42 velocity=95 time=0
EXTRACT: note_off channel=9 note=36 velocity=95 time=0
EXTRACT: note_on channel=9 note=42 velocity=95 time=0
EXTRACT: note_on channel=9 note=38 velocity=95 time=0
EXTRACT: note_on channel=9 note=36 velocity=95 time=0
EXTRACT: note_off channel=2 note=73 velocity=127 time=0
EXTRACT: note_off channel=2 note=69 velocity=127 time=0
EXTRACT: note_off channel=2 note=64 velocity=95 time=0
EXTRACT: note_on channel=2 note=73 velocity=127 time=0
EXTRACT: note_on channel=2 note=69 velocity=127 time=0
EXTRACT: note_on channel=2 note=64 velocity=95 time=0
EXTRACT: note_off channel=1 note=66 velocity=47 time=0.2608695
EXTRACT: note_off channel=1 note=61 velocity=95 time=0
EXTRACT: note_off channel=1 note=54 velocity=47 time=0
EXTRACT: note_on channel=1 note=67 velocity=47 time=0
EXTRACT: note_on channel=1 note=62 velocity=95 time=0
EXTRACT: note_on channel=1 note=55 velocity=47 time=0
EXTRACT: note_off channel=0 note=31 velocity=95 time=0
EXTRACT: note_on channel=0 note=31 velocity=95 time=0
EXTRACT: note_off channel=9 note=42 velocity=95 time=0
EXTRACT: note_off channel=9 note=38 velocity=95 time=0
EXTRACT: note_off channel=9 note=36 velocity=95 time=0
EXTRACT: note_on channel=9 note=42 velocity=95 time=0
EXTRACT: note_on channel=9 note=36 velocity=95 time=0
EXTRACT: note_off channel=2 note=73 velocity=127 time=0
EXTRACT: note_off channel=2 note=69 velocity=127 time=0
EXTRACT: note_off channel=2 note=64 velocity=95 time=0
EXTRACT: note_on channel=2 note=73 velocity=127 time=0
EXTRACT: note_on channel=2 note=69 velocity=127 time=0
EXTRACT: note_on channel=2 note=64 velocity=95 time=0
EXTRACT: note_off channel=4 note=61 velocity=95 time=0
EXTRACT: note_off channel=4 note=57 velocity=95 time=0
EXTRACT: note_off channel=4 note=52 velocity=95 time=0
EXTRACT: note_off channel=4 note=45 velocity=95 time=0
EXTRACT: note_on channel=4 note=61 velocity=95 time=0
EXTRACT: note_on channel=4 note=57 velocity=95 time=0
EXTRACT: note_on channel=4 note=52 velocity=95 time=0
EXTRACT: note_on channel=4 note=45 velocity=95 time=0
EXTRACT: note_off channel=0 note=31 velocity=95 time=0.2608695
EXTRACT: note_on channel=0 note=31 velocity=95 time=0
EXTRACT: note_off channel=9 note=42 velocity=95 time=0
EXTRACT: note_off channel=9 note=36 velocity=95 time=0
EXTRACT: note_on channel=9 note=42 velocity=95 time=0
EXTRACT: note_on channel=9 note=38 velocity=95 time=0
EXTRACT: note_on channel=9 note=36 velocity=95 time=0
EXTRACT: note_off channel=2 note=73 velocity=127 time=0
EXTRACT: note_off channel=2 note=69 velocity=127 time=0
EXTRACT: note_off channel=2 note=64 velocity=95 time=0
EXTRACT: note_on channel=2 note=73 velocity=127 time=0
EXTRACT: note_on channel=2 note=69 velocity=127 time=0
EXTRACT: note_on channel=2 note=64 velocity=95 time=0
EXTRACT: note_off channel=0 note=31 velocity=95 time=0.2608695
EXTRACT: note_on channel=0 note=31 velocity=95 time=0
EXTRACT: note_off channel=9 note=42 velocity=95 time=0
EXTRACT: note_off channel=9 note=38 velocity=95 time=0
EXTRACT: note_off channel=9 note=36 velocity=95 time=0
EXTRACT: note_on channel=9 note=42 velocity=95 time=0
EXTRACT: note_on channel=9 note=36 velocity=95 time=0
EXTRACT: note_off channel=2 note=73 velocity=127 time=0
EXTRACT: note_off channel=2 note=69 velocity=127 time=0
EXTRACT: note_off channel=2 note=64 velocity=95 time=0
EXTRACT: note_on channel=2 note=73 velocity=127 time=0
EXTRACT: note_on channel=2 note=69 velocity=127 time=0
EXTRACT: note_on channel=2 note=64 velocity=95 time=0
EXTRACT: note_off channel=0 note=31 velocity=95 time=0.13043475
EXTRACT: note_on channel=0 note=31 velocity=95 time=0
EXTRACT: note_off channel=1 note=67 velocity=47 time=0.13043475
EXTRACT: note_off channel=1 note=62 velocity=95 time=0
EXTRACT: note_off channel=1 note=55 velocity=47 time=0
EXTRACT: note_off channel=0 note=31 velocity=95 time=0
EXTRACT: note_on channel=0 note=31 velocity=95 time=0
EXTRACT: note_off channel=9 note=42 velocity=95 time=0
EXTRACT: note_off channel=9 note=36 velocity=95 time=0
EXTRACT: note_on channel=9 note=42 velocity=95 time=0
EXTRACT: note_on channel=9 note=38 velocity=95 time=0
EXTRACT: note_on channel=9 note=36 velocity=95 time=0
EXTRACT: note_off channel=2 note=73 velocity=127 time=0
EXTRACT: note_off channel=2 note=69 velocity=127 time=0
EXTRACT: note_off channel=2 note=64 velocity=95 time=0
EXTRACT: note_on channel=2 note=73 velocity=127 time=0
EXTRACT: note_on channel=2 note=69 velocity=127 time=0
EXTRACT: note_on channel=2 note=64 velocity=95 time=0
EXTRACT: note_off channel=0 note=31 velocity=95 time=0.2608695
EXTRACT: note_on channel=0 note=31 velocity=95 time=0
EXTRACT: note_off channel=9 note=42 velocity=95 time=0
EXTRACT: note_off channel=9 note=38 velocity=95 time=0
EXTRACT: note_off channel=9 note=36 velocity=95 time=0
EXTRACT: note_on channel=9 note=42 velocity=95 time=0
EXTRACT: note_on channel=9 note=36 velocity=95 time=0
EXTRACT: note_off channel=2 note=73 velocity=127 time=0
EXTRACT: note_off channel=2 note=69 velocity=127 time=0
EXTRACT: note_off channel=2 note=64 velocity=95 time=0
EXTRACT: note_on channel=2 note=73 velocity=127 time=0
EXTRACT: note_on channel=2 note=69 velocity=127 time=0
EXTRACT: note_on channel=2 note=64 velocity=95 time=0
EXTRACT: note_on channel=1 note=66 velocity=47 time=0.2608695
EXTRACT: note_on channel=1 note=61 velocity=95 time=0
EXTRACT: note_on channel=1 note=54 velocity=47 time=0
EXTRACT: note_off channel=0 note=31 velocity=95 time=0
EXTRACT: note_on channel=0 note=31 velocity=95 time=0
EXTRACT: note_off channel=9 note=42 velocity=95 time=0
EXTRACT: note_off channel=9 note=36 velocity=95 time=0
EXTRACT: note_on channel=9 note=42 velocity=95 time=0
EXTRACT: note_on channel=9 note=38 velocity=95 time=0
EXTRACT: note_on channel=9 note=36 velocity=95 time=0
EXTRACT: note_off channel=2 note=73 velocity=127 time=0
EXTRACT: note_off channel=2 note=69 velocity=127 time=0
EXTRACT: note_off channel=2 note=64 velocity=95 time=0
EXTRACT: note_on channel=2 note=71 velocity=127 time=0
EXTRACT: note_on channel=2 note=67 velocity=127 time=0
EXTRACT: note_on channel=2 note=62 velocity=95 time=0
EXTRACT: note_off channel=4 note=61 velocity=95 time=0
EXTRACT: note_off channel=4 note=57 velocity=95 time=0
EXTRACT: note_off channel=4 note=52 velocity=95 time=0
EXTRACT: note_off channel=4 note=45 velocity=95 time=0
EXTRACT: note_on channel=4 note=67 velocity=95 time=0
EXTRACT: note_on channel=4 note=59 velocity=95 time=0
EXTRACT: note_on channel=4 note=55 velocity=95 time=0
EXTRACT: note_on channel=4 note=50 velocity=95 time=0
EXTRACT: note_on channel=4 note=43 velocity=95 time=0
EXTRACT: note_off channel=6 note=64 velocity=95 time=0
EXTRACT: note_off channel=6 note=61 velocity=95 time=0
EXTRACT: note_off channel=6 note=57 velocity=95 time=0
EXTRACT: note_off channel=6 note=52 velocity=95 time=0
EXTRACT: note_off channel=6 note=45 velocity=95 time=0
EXTRACT: note_off channel=6 note=43 velocity=95 time=0
EXTRACT: note_on channel=6 note=67 velocity=95 time=0
EXTRACT: note_on channel=6 note=59 velocity=95 time=0
EXTRACT: note_on channel=6 note=55 velocity=95 time=0
EXTRACT: note_on channel=6 note=50 velocity=95 time=0
EXTRACT: note_on channel=6 note=43 velocity=95 time=0
EXTRACT: note_off channel=0 note=31 velocity=95 time=0.2608695
EXTRACT: note_on channel=0 note=31 velocity=95 time=0
EXTRACT: note_off channel=9 note=42 velocity=95 time=0
EXTRACT: note_off channel=9 note=38 velocity=95 time=0
EXTRACT: note_off channel=9 note=36 velocity=95 time=0
EXTRACT: note_on channel=9 note=42 velocity=95 time=0
EXTRACT: note_on channel=9 note=36 velocity=95 time=0
EXTRACT: note_off channel=2 note=71 velocity=127 time=0
EXTRACT: note_off channel=2 note=67 velocity=127 time=0
EXTRACT: note_off channel=2 note=62 velocity=95 time=0
EXTRACT: note_on channel=2 note=71 velocity=127 time=0
EXTRACT: note_on channel=2 note=67 velocity=127 time=0
EXTRACT: note_on channel=2 note=62 velocity=95 time=0
EXTRACT: note_off channel=0 note=31 velocity=95 time=0.2608695
EXTRACT: note_on channel=0 note=31 velocity=95 time=0
EXTRACT: note_off channel=9 note=42 velocity=95 time=0
EXTRACT: note_off channel=9 note=36 velocity=95 time=0
EXTRACT: note_on channel=9 note=42 velocity=95 time=0
EXTRACT: note_on channel=9 note=38 velocity=95 time=0
EXTRACT: note_on channel=9 note=36 velocity=95 time=0
EXTRACT: note_off channel=2 note=71 velocity=127 time=0
EXTRACT: note_off channel=2 note=67 velocity=127 time=0
EXTRACT: note_off channel=2 note=62 velocity=95 time=0
EXTRACT: note_on channel=2 note=71 velocity=127 time=0
EXTRACT: note_on channel=2 note=67 velocity=127 time=0
EXTRACT: note_on channel=2 note=62 velocity=95 time=0
EXTRACT: note_off channel=1 note=66 velocity=47 time=0.2608695
EXTRACT: note_off channel=1 note=61 velocity=95 time=0
EXTRACT: note_off channel=1 note=54 velocity=47 time=0
EXTRACT: note_on channel=1 note=67 velocity=47 time=0
EXTRACT: note_on channel=1 note=62 velocity=95 time=0
EXTRACT: note_on channel=1 note=55 velocity=47 time=0
EXTRACT: note_off channel=0 note=31 velocity=95 time=0
EXTRACT: note_on channel=0 note=31 velocity=95 time=0
EXTRACT: note_off channel=9 note=42 velocity=95 time=0
EXTRACT: note_off channel=9 note=38 velocity=95 time=0
EXTRACT: note_off channel=9 note=36 velocity=95 time=0
EXTRACT: note_on channel=9 note=42 velocity=95 time=0
EXTRACT: note_on channel=9 note=36 velocity=95 time=0
EXTRACT: note_off channel=2 note=71 velocity=127 time=0
EXTRACT: note_off channel=2 note=67 velocity=127 time=0
EXTRACT: note_off channel=2 note=62 velocity=95 time=0
EXTRACT: note_on channel=2 note=71 velocity=127 time=0
EXTRACT: note_on channel=2 note=67 velocity=127 time=0
EXTRACT: note_on channel=2 note=62 velocity=95 time=0
EXTRACT: note_off channel=4 note=67 velocity=95 time=0
EXTRACT: note_off channel=4 note=59 velocity=95 time=0
EXTRACT: note_off channel=4 note=55 velocity=95 time=0
EXTRACT: note_off channel=4 note=50 velocity=95 time=0
EXTRACT: note_off channel=4 note=43 velocity=95 time=0
EXTRACT: note_on channel=4 note=67 velocity=95 time=0
EXTRACT: note_on channel=4 note=59 velocity=95 time=0
EXTRACT: note_on channel=4 note=55 velocity=95 time=0
EXTRACT: note_on channel=4 note=50 velocity=95 time=0
EXTRACT: note_on channel=4 note=43 velocity=95 time=0
EXTRACT: note_off channel=0 note=31 velocity=95 time=0.2608695
EXTRACT: note_on channel=0 note=31 velocity=95 time=0
EXTRACT: note_off channel=9 note=42 velocity=95 time=0
EXTRACT: note_off channel=9 note=36 velocity=95 time=0
EXTRACT: note_on channel=9 note=42 velocity=95 time=0
EXTRACT: note_on channel=9 note=38 velocity=95 time=0
EXTRACT: note_on channel=9 note=36 velocity=95 time=0
EXTRACT: note_off channel=2 note=71 velocity=127 time=0
EXTRACT: note_off channel=2 note=67 velocity=127 time=0
EXTRACT: note_off channel=2 note=62 velocity=95 time=0
EXTRACT: note_on channel=2 note=71 velocity=127 time=0
EXTRACT: note_on channel=2 note=67 velocity=127 time=0
EXTRACT: note_on channel=2 note=62 velocity=95 time=0
EXTRACT: note_off channel=0 note=31 velocity=95 time=0.2608695
EXTRACT: note_on channel=0 note=31 velocity=95 time=0
EXTRACT: note_off channel=9 note=42 velocity=95 time=0
EXTRACT: note_off channel=9 note=38 velocity=95 time=0
EXTRACT: note_off channel=9 note=36 velocity=95 time=0
EXTRACT: note_on channel=9 note=42 velocity=95 time=0
EXTRACT: note_on channel=9 note=36 velocity=95 time=0
EXTRACT: note_off channel=2 note=71 velocity=127 time=0
EXTRACT: note_off channel=2 note=67 velocity=127 time=0
EXTRACT: note_off channel=2 note=62 velocity=95 time=0
EXTRACT: note_on channel=2 note=71 velocity=127 time=0
EXTRACT: note_on channel=2 note=67 velocity=127 time=0
EXTRACT: note_on channel=2 note=62 velocity=95 time=0
EXTRACT: note_off channel=1 note=67 velocity=47 time=0.2608695
EXTRACT: note_off channel=1 note=62 velocity=95 time=0
EXTRACT: note_off channel=1 note=55 velocity=47 time=0
EXTRACT: note_on channel=1 note=69 velocity=47 time=0
EXTRACT: note_on channel=1 note=64 velocity=95 time=0
EXTRACT: note_on channel=1 note=57 velocity=47 time=0
EXTRACT: note_off channel=0 note=31 velocity=95 time=0
EXTRACT: note_on channel=0 note=31 velocity=95 time=0
EXTRACT: note_off channel=9 note=42 velocity=95 time=0
EXTRACT: note_off channel=9 note=36 velocity=95 time=0
EXTRACT: note_on channel=9 note=42 velocity=95 time=0
EXTRACT: note_on channel=9 note=38 velocity=95 time=0
EXTRACT: note_on channel=9 note=36 velocity=95 time=0
EXTRACT: note_off channel=2 note=71 velocity=127 time=0
EXTRACT: note_off channel=2 note=67 velocity=127 time=0
EXTRACT: note_off channel=2 note=62 velocity=95 time=0
EXTRACT: note_on channel=2 note=71 velocity=127 time=0
EXTRACT: note_on channel=2 note=67 velocity=127 time=0
EXTRACT: note_on channel=2 note=62 velocity=95 time=0
EXTRACT: note_off channel=0 note=31 velocity=95 time=0.2608695
EXTRACT: note_on channel=0 note=31 velocity=95 time=0
EXTRACT: note_off channel=9 note=42 velocity=95 time=0
EXTRACT: note_off channel=9 note=38 velocity=95 time=0
EXTRACT: note_off channel=9 note=36 velocity=95 time=0
EXTRACT: note_on channel=9 note=42 velocity=95 time=0
EXTRACT: note_on channel=9 note=36 velocity=95 time=0
EXTRACT: note_off channel=2 note=71 velocity=127 time=0
EXTRACT: note_off channel=2 note=67 velocity=127 time=0
EXTRACT: note_off channel=2 note=62 velocity=95 time=0
EXTRACT: note_on channel=2 note=71 velocity=127 time=0
EXTRACT: note_on channel=2 note=67 velocity=127 time=0
EXTRACT: note_on channel=2 note=62 velocity=95 time=0
EXTRACT: note_off channel=1 note=69 velocity=47 time=0
EXTRACT: note_off channel=1 note=64 velocity=95 time=0
EXTRACT: note_off channel=1 note=57 velocity=47 time=0
EXTRACT: note_on channel=1 note=66 velocity=47 time=0
EXTRACT: note_on channel=1 note=61 velocity=95 time=0
EXTRACT: note_on channel=1 note=54 velocity=47 time=0
EXTRACT: note_off channel=0 note=31 velocity=95 time=0
EXTRACT: note_on channel=0 note=31 velocity=95 time=0
EXTRACT: note_off channel=9 note=42 velocity=95 time=0
EXTRACT: note_off channel=9 note=36 velocity=95 time=0
EXTRACT: note_on channel=9 note=42 velocity=95 time=0
EXTRACT: note_on channel=9 note=38 velocity=95 time=0
EXTRACT: note_on channel=9 note=36 velocity=95 time=0
EXTRACT: note_off channel=2 note=71 velocity=127 time=0
EXTRACT: note_off channel=2 note=67 velocity=127 time=0
EXTRACT: note_off channel=2 note=62 velocity=95 time=0
EXTRACT: note_on channel=2 note=73 velocity=127 time=0
EXTRACT: note_on channel=2 note=69 velocity=127 time=0
EXTRACT: note_on channel=2 note=64 velocity=95 time=0
EXTRACT: note_off channel=4 note=67 velocity=95 time=0
EXTRACT: note_off channel=4 note=59 velocity=95 time=0
EXTRACT: note_off channel=4 note=55 velocity=95 time=0
EXTRACT: note_off channel=4 note=50 velocity=95 time=0
EXTRACT: note_off channel=4 note=43 velocity=95 time=0
EXTRACT: note_on channel=4 note=61 velocity=95 time=0
EXTRACT: note_on channel=4 note=57 velocity=95 time=0
EXTRACT: note_on channel=4 note=52 velocity=95 time=0
EXTRACT: note_on channel=4 note=45 velocity=95 time=0
EXTRACT: note_off channel=6 note=67 velocity=95 time=0
EXTRACT: note_off channel=6 note=59 velocity=95 time=0
EXTRACT: note_off channel=6 note=55 velocity=95 time=0
EXTRACT: note_off channel=6 note=50 velocity=95 time=0
EXTRACT: note_off channel=6 note=43 velocity=95 time=0
EXTRACT: note_on channel=6 note=64 velocity=95 time=0
EXTRACT: note_on channel=6 note=61 velocity=95 time=0
EXTRACT: note_on channel=6 note=57 velocity=95 time=0
EXTRACT: note_on channel=6 note=52 velocity=95 time=0
EXTRACT: note_on channel=6 note=45 velocity=95 time=0
EXTRACT: note_on channel=6 note=43 velocity=95 time=0
EXTRACT: note_off channel=0 note=31 velocity=95 time=0.2631575
EXTRACT: note_on channel=0 note=31 velocity=95 time=0
EXTRACT: note_off channel=9 note=42 velocity=95 time=0
EXTRACT: note_off channel=9 note=38 velocity=95 time=0
EXTRACT: note_off channel=9 note=36 velocity=95 time=0
EXTRACT: note_on channel=9 note=42 velocity=95 time=0
EXTRACT: note_on channel=9 note=36 velocity=95 time=0
EXTRACT: note_off channel=2 note=73 velocity=127 time=0
EXTRACT: note_off channel=2 note=69 velocity=127 time=0
EXTRACT: note_off channel=2 note=64 velocity=95 time=0
EXTRACT: note_on channel=2 note=73 velocity=127 time=0
EXTRACT: note_on channel=2 note=69 velocity=127 time=0
EXTRACT: note_on channel=2 note=64 velocity=95 time=0
EXTRACT: note_off channel=0 note=31 velocity=95 time=0.2631575
EXTRACT: note_on channel=0 note=31 velocity=95 time=0
EXTRACT: note_off channel=9 note=42 velocity=95 time=0
EXTRACT: note_off channel=9 note=36 velocity=95 time=0
EXTRACT: note_on channel=9 note=42 velocity=95 time=0
EXTRACT: note_on channel=9 note=38 velocity=95 time=0
EXTRACT: note_on channel=9 note=36 velocity=95 time=0
EXTRACT: note_off channel=2 note=73 velocity=127 time=0
EXTRACT: note_off channel=2 note=69 velocity=127 time=0
EXTRACT: note_off channel=2 note=64 velocity=95 time=0
EXTRACT: note_on channel=2 note=73 velocity=127 time=0
EXTRACT: note_on channel=2 note=69 velocity=127 time=0
EXTRACT: note_on channel=2 note=64 velocity=95 time=0
EXTRACT: note_off channel=1 note=66 velocity=47 time=0.2631575
EXTRACT: note_off channel=1 note=61 velocity=95 time=0
EXTRACT: note_off channel=1 note=54 velocity=47 time=0
EXTRACT: note_on channel=1 note=67 velocity=47 time=0
EXTRACT: note_on channel=1 note=62 velocity=95 time=0
EXTRACT: note_on channel=1 note=55 velocity=47 time=0
EXTRACT: note_off channel=0 note=31 velocity=95 time=0
EXTRACT: note_on channel=0 note=31 velocity=95 time=0
EXTRACT: note_off channel=9 note=42 velocity=95 time=0
EXTRACT: note_off channel=9 note=38 velocity=95 time=0
EXTRACT: note_off channel=9 note=36 velocity=95 time=0
EXTRACT: note_on channel=9 note=42 velocity=95 time=0
EXTRACT: note_on channel=9 note=36 velocity=95 time=0
EXTRACT: note_off channel=2 note=73 velocity=127 time=0
EXTRACT: note_off channel=2 note=69 velocity=127 time=0
EXTRACT: note_off channel=2 note=64 velocity=95 time=0
EXTRACT: note_on channel=2 note=73 velocity=127 time=0
EXTRACT: note_on channel=2 note=69 velocity=127 time=0
EXTRACT: note_on channel=2 note=64 velocity=95 time=0
EXTRACT: note_off channel=4 note=61 velocity=95 time=0
EXTRACT: note_off channel=4 note=57 velocity=95 time=0
EXTRACT: note_off channel=4 note=52 velocity=95 time=0
EXTRACT: note_off channel=4 note=45 velocity=95 time=0
EXTRACT: note_on channel=4 note=61 velocity=95 time=0
EXTRACT: note_on channel=4 note=57 velocity=95 time=0
EXTRACT: note_on channel=4 note=52 velocity=95 time=0
EXTRACT: note_on channel=4 note=45 velocity=95 time=0
EXTRACT: note_off channel=0 note=31 velocity=95 time=0.2631575
EXTRACT: note_on channel=0 note=31 velocity=95 time=0
EXTRACT: note_off channel=9 note=42 velocity=95 time=0
EXTRACT: note_off channel=9 note=36 velocity=95 time=0
EXTRACT: note_on channel=9 note=42 velocity=95 time=0
EXTRACT: note_on channel=9 note=38 velocity=95 time=0
EXTRACT: note_on channel=9 note=36 velocity=95 time=0
EXTRACT: note_off channel=2 note=73 velocity=127 time=0
EXTRACT: note_off channel=2 note=69 velocity=127 time=0
EXTRACT: note_off channel=2 note=64 velocity=95 time=0
EXTRACT: note_on channel=2 note=73 velocity=127 time=0
EXTRACT: note_on channel=2 note=69 velocity=127 time=0
EXTRACT: note_on channel=2 note=64 velocity=95 time=0
EXTRACT: note_off channel=0 note=31 velocity=95 time=0.2631575
EXTRACT: note_on channel=0 note=31 velocity=95 time=0
EXTRACT: note_off channel=9 note=42 velocity=95 time=0
EXTRACT: note_off channel=9 note=38 velocity=95 time=0
EXTRACT: note_off channel=9 note=36 velocity=95 time=0
EXTRACT: note_on channel=9 note=42 velocity=95 time=0
EXTRACT: note_on channel=9 note=36 velocity=95 time=0
EXTRACT: note_off channel=2 note=73 velocity=127 time=0
EXTRACT: note_off channel=2 note=69 velocity=127 time=0
EXTRACT: note_off channel=2 note=64 velocity=95 time=0
EXTRACT: note_on channel=2 note=73 velocity=127 time=0
EXTRACT: note_on channel=2 note=69 velocity=127 time=0
EXTRACT: note_on channel=2 note=64 velocity=95 time=0
EXTRACT: note_off channel=1 note=67 velocity=47 time=0.2631575
EXTRACT: note_off channel=1 note=62 velocity=95 time=0
EXTRACT: note_off channel=1 note=55 velocity=47 time=0
EXTRACT: note_off channel=0 note=31 velocity=95 time=0
EXTRACT: note_on channel=0 note=31 velocity=95 time=0
EXTRACT: note_off channel=9 note=42 velocity=95 time=0
EXTRACT: note_off channel=9 note=36 velocity=95 time=0
EXTRACT: note_on channel=9 note=38 velocity=95 time=0
EXTRACT: note_off channel=2 note=73 velocity=127 time=0
EXTRACT: note_off channel=2 note=69 velocity=127 time=0
EXTRACT: note_off channel=2 note=64 velocity=95 time=0
EXTRACT: note_on channel=2 note=73 velocity=127 time=0
EXTRACT: note_on channel=2 note=69 velocity=127 time=0
EXTRACT: note_on channel=2 note=64 velocity=95 time=0
EXTRACT: note_off channel=0 note=31 velocity=95 time=0.2631575
EXTRACT: note_on channel=0 note=31 velocity=95 time=0
EXTRACT: note_off channel=9 note=38 velocity=95 time=0
EXTRACT: note_on channel=9 note=36 velocity=95 time=0
EXTRACT: note_off channel=2 note=73 velocity=127 time=0
EXTRACT: note_off channel=2 note=69 velocity=127 time=0
EXTRACT: note_off channel=2 note=64 velocity=95 time=0
EXTRACT: note_on channel=2 note=73 velocity=127 time=0
EXTRACT: note_on channel=2 note=69 velocity=127 time=0
EXTRACT: note_on channel=2 note=64 velocity=95 time=0
EXTRACT: note_on channel=1 note=61 velocity=95 time=0
EXTRACT: note_off channel=0 note=31 velocity=95 time=0
EXTRACT: note_on channel=0 note=30 velocity=95 time=0
EXTRACT: note_off channel=9 note=36 velocity=95 time=0
EXTRACT: note_on channel=9 note=49 velocity=95 time=0
EXTRACT: note_on channel=9 note=36 velocity=95 time=0
EXTRACT: note_off channel=2 note=73 velocity=127 time=0
EXTRACT: note_off channel=2 note=69 velocity=127 time=0
EXTRACT: note_off channel=2 note=64 velocity=95 time=0
EXTRACT: note_on channel=2 note=74 velocity=127 time=0
EXTRACT: note_on channel=2 note=69 velocity=127 time=0
EXTRACT: note_on channel=2 note=66 velocity=95 time=0
EXTRACT: note_off channel=4 note=61 velocity=95 time=0
EXTRACT: note_off channel=4 note=57 velocity=95 time=0
EXTRACT: note_off channel=4 note=52 velocity=95 time=0
EXTRACT: note_off channel=4 note=45 velocity=95 time=0
EXTRACT: note_on channel=4 note=57 velocity=95 time=0
EXTRACT: note_off channel=6 note=64 velocity=95 time=0
EXTRACT: note_off channel=6 note=61 velocity=95 time=0
EXTRACT: note_off channel=6 note=57 velocity=95 time=0
EXTRACT: note_off channel=6 note=52 velocity=95 time=0
EXTRACT: note_off channel=6 note=45 velocity=95 time=0
EXTRACT: note_off channel=6 note=43 velocity=95 time=0
EXTRACT: note_on channel=6 note=50 velocity=95 time=0
EXTRACT: note_on channel=4 note=62 velocity=95 time=0.2654865
EXTRACT: note_off channel=6 note=50 velocity=95 time=0
EXTRACT: note_on channel=6 note=57 velocity=95 time=0
EXTRACT: note_off channel=9 note=49 velocity=95 time=0.2654865
EXTRACT: note_off channel=9 note=36 velocity=95 time=0
EXTRACT: note_off channel=4 note=62 velocity=95 time=0
EXTRACT: note_on channel=4 note=64 velocity=95 time=0
EXTRACT: note_off channel=6 note=57 velocity=95 time=0
EXTRACT: note_on channel=6 note=50 velocity=95 time=0
EXTRACT: note_off channel=1 note=61 velocity=95 time=0.2654865
EXTRACT: note_on channel=1 note=62 velocity=95 time=0
EXTRACT: note_on channel=9 note=42 velocity=95 time=0
EXTRACT: note_on channel=9 note=38 velocity=95 time=0
EXTRACT: note_off channel=4 note=64 velocity=95 time=0
EXTRACT: note_on channel=4 note=62 velocity=95 time=0
EXTRACT: note_on channel=6 note=62 velocity=95 time=0
EXTRACT: note_off channel=9 note=42 velocity=95 time=0.2654865
EXTRACT: note_off channel=9 note=38 velocity=95 time=0
EXTRACT: note_on channel=9 note=42 velocity=95 time=0
EXTRACT: note_off channel=9 note=42 velocity=95 time=0.2654865
EXTRACT: note_on channel=9 note=42 velocity=95 time=0
EXTRACT: note_off channel=4 note=62 velocity=95 time=0
EXTRACT: note_on channel=4 note=61 velocity=95 time=0
EXTRACT: note_off channel=6 note=62 velocity=95 time=0
EXTRACT: note_on channel=6 note=61 velocity=95 time=0
EXTRACT: note_off channel=1 note=62 velocity=95 time=0.2654865
EXTRACT: note_on channel=1 note=57 velocity=95 time=0
EXTRACT: note_off channel=0 note=30 velocity=95 time=0
EXTRACT: note_off channel=9 note=42 velocity=95 time=0
EXTRACT: note_on channel=9 note=46 velocity=95 time=0
EXTRACT: note_on channel=9 note=38 velocity=95 time=0
EXTRACT: note_on channel=0 note=30 velocity=95 time=0.2654865
EXTRACT: note_off channel=1 note=57 velocity=95 time=0
EXTRACT: note_on channel=1 note=55 velocity=95 time=0
EXTRACT: note_off channel=0 note=30 velocity=95 time=0
EXTRACT: note_on channel=0 note=31 velocity=95 time=0
EXTRACT: note_off channel=9 note=46 velocity=95 time=0
EXTRACT: note_off channel=9 note=38 velocity=95 time=0
EXTRACT: note_on channel=9 note=49 velocity=95 time=0
EXTRACT: note_on channel=9 note=36 velocity=95 time=0
EXTRACT: note_off channel=2 note=74 velocity=127 time=0
EXTRACT: note_off channel=2 note=69 velocity=127 time=0
EXTRACT: note_off channel=2 note=66 velocity=95 time=0
EXTRACT: note_on channel=2 note=71 velocity=127 time=0
EXTRACT: note_on channel=2 note=67 velocity=127 time=0
EXTRACT: note_on channel=2 note=62 velocity=95 time=0
EXTRACT: note_off channel=4 note=57 velocity=95 time=0
EXTRACT: note_off channel=4 note=61 velocity=95 time=0
EXTRACT: note_on channel=4 note=59 velocity=95 time=0
EXTRACT: note_on channel=4 note=55 velocity=95 time=0
EXTRACT: note_on channel=4 note=50 velocity=95 time=0
EXTRACT: note_on channel=4 note=43 velocity=95 time=0
EXTRACT: note_off channel=6 note=50 velocity=95 time=0
EXTRACT: note_off channel=6 note=61 velocity=95 time=0
EXTRACT: note_on channel=6 note=59 velocity=95 time=0
EXTRACT: note_on channel=6 note=55 velocity=95 time=0
EXTRACT: note_on channel=6 note=50 velocity=95 time=0
EXTRACT: note_on channel=6 note=43 velocity=95 time=0
EXTRACT: note_off channel=1 note=55 velocity=95 time=0.535714
EXTRACT: note_off channel=0 note=31 velocity=95 time=0
EXTRACT: note_on channel=0 note=31 velocity=95 time=0
EXTRACT: note_off channel=9 note=49 velocity=95 time=0
EXTRACT: note_off channel=9 note=36 velocity=95 time=0
EXTRACT: note_off channel=0 note=31 velocity=95 time=0.267857
EXTRACT: note_on channel=0 note=33 velocity=95 time=0
EXTRACT: note_on channel=9 note=49 velocity=95 time=0
EXTRACT: note_on channel=9 note=36 velocity=95 time=0
EXTRACT: note_off channel=2 note=71 velocity=127 time=0
EXTRACT: note_off channel=2 note=67 velocity=127 time=0
EXTRACT: note_off channel=2 note=62 velocity=95 time=0
EXTRACT: note_on channel=2 note=73 velocity=127 time=0
EXTRACT: note_on channel=2 note=69 velocity=127 time=0
EXTRACT: note_on channel=2 note=64 velocity=95 time=0
EXTRACT: note_off channel=4 note=59 velocity=95 time=0
EXTRACT: note_off channel=4 note=55 velocity=95 time=0
EXTRACT: note_off channel=4 note=50 velocity=95 time=0
EXTRACT: note_off channel=4 note=43 velocity=95 time=0
EXTRACT: note_on channel=4 note=61 velocity=95 time=0
EXTRACT: note_on channel=4 note=57 velocity=95 time=0
EXTRACT: note_on channel=4 note=52 velocity=95 time=0
EXTRACT: note_on channel=4 note=45 velocity=95 time=0
EXTRACT: note_off channel=6 note=59 velocity=95 time=0
EXTRACT: note_off channel=6 note=55 velocity=95 time=0
EXTRACT: note_off channel=6 note=50 velocity=95 time=0
EXTRACT: note_off channel=6 note=43 velocity=95 time=0
EXTRACT: note_on channel=6 note=61 velocity=95 time=0
EXTRACT: note_on channel=6 note=57 velocity=95 time=0
EXTRACT: note_on channel=6 note=52 velocity=95 time=0
EXTRACT: note_on channel=6 note=45 velocity=95 time=0
EXTRACT: note_off channel=9 note=49 velocity=95 time=0.267857
EXTRACT: note_off channel=9 note=36 velocity=95 time=0
EXTRACT: note_on channel=1 note=55 velocity=95 time=0.535714
EXTRACT: note_off channel=0 note=33 velocity=95 time=0
EXTRACT: note_off channel=2 note=73 velocity=127 time=0
EXTRACT: note_off channel=2 note=69 velocity=127 time=0
EXTRACT: note_off channel=2 note=64 velocity=95 time=0
EXTRACT: note_on channel=2 note=73 velocity=95 time=0
EXTRACT: note_on channel=2 note=69 velocity=95 time=0
EXTRACT: note_on channel=2 note=64 velocity=47 time=0
EXTRACT: note_on channel=11 note=67 velocity=95 time=0
EXTRACT: note_off channel=1 note=55 velocity=95 time=0.267857
EXTRACT: note_on channel=1 note=55 velocity=95 time=0
EXTRACT: note_off channel=11 note=67 velocity=95 time=0
EXTRACT: note_on channel=11 note=67 velocity=95 time=0
EXTRACT: note_off channel=1 note=55 velocity=95 time=0.267857
EXTRACT: note_on channel=1 note=55 velocity=95 time=0
EXTRACT: note_on channel=0 note=50 velocity=95 time=0
EXTRACT: note_on channel=9 note=42 velocity=95 time=0
EXTRACT: note_off channel=2 note=73 velocity=95 time=0
EXTRACT: note_off channel=2 note=69 velocity=95 time=0
EXTRACT: note_off channel=2 note=64 velocity=47 time=0
EXTRACT: note_off channel=4 note=61 velocity=95 time=0
EXTRACT: note_off channel=4 note=57 velocity=95 time=0
EXTRACT: note_off channel=4 note=52 velocity=95 time=0
EXTRACT: note_off channel=4 note=45 velocity=95 time=0
EXTRACT: note_off channel=6 note=61 velocity=95 time=0
EXTRACT: note_off channel=6 note=57 velocity=95 time=0
EXTRACT: note_off channel=6 note=52 velocity=95 time=0
EXTRACT: note_off channel=6 note=45 velocity=95 time=0
EXTRACT: note_off channel=11 note=67 velocity=95 time=0
EXTRACT: note_on channel=11 note=67 velocity=95 time=0
EXTRACT: note_off channel=1 note=55 velocity=95 time=0.267857
EXTRACT: note_on channel=1 note=54 velocity=95 time=0
EXTRACT: note_off channel=0 note=50 velocity=95 time=0
EXTRACT: note_on channel=0 note=50 velocity=95 time=0
EXTRACT: note_off channel=11 note=67 velocity=95 time=0
EXTRACT: note_on channel=11 note=66 velocity=95 time=0
EXTRACT: note_off channel=1 note=54 velocity=95 time=0.267857
EXTRACT: note_off channel=0 note=50 velocity=95 time=0
EXTRACT: note_on channel=0 note=50 velocity=95 time=0
EXTRACT: note_off channel=9 note=42 velocity=95 time=0
EXTRACT: note_on channel=9 note=42 velocity=95 time=0
EXTRACT: note_on channel=9 note=39 velocity=95 time=0
EXTRACT: note_off channel=11 note=66 velocity=95 time=0
EXTRACT: note_off channel=0 note=50 velocity=95 time=0.267857
EXTRACT: note_on channel=0 note=50 velocity=95 time=0
EXTRACT: note_off channel=0 note=50 velocity=95 time=0.1339285
EXTRACT: note_on channel=0 note=50 velocity=95 time=0
EXTRACT: note_off channel=0 note=50 velocity=95 time=0.1339285
EXTRACT: note_on channel=0 note=50 velocity=95 time=0
EXTRACT: note_off channel=9 note=42 velocity=95 time=0
EXTRACT: note_off channel=9 note=39 velocity=95 time=0
EXTRACT: note_on channel=9 note=42 velocity=95 time=0
EXTRACT: note_off channel=0 note=50 velocity=95 time=0.267857
EXTRACT: note_on channel=0 note=45 velocity=95 time=0
EXTRACT: note_off channel=0 note=45 velocity=95 time=0.267857
EXTRACT: note_off channel=9 note=42 velocity=95 time=0
EXTRACT: note_on channel=9 note=42 velocity=95 time=0
EXTRACT: note_on channel=9 note=31 velocity=95 time=0
EXTRACT: note_on channel=0 note=50 velocity=95 time=0
EXTRACT: note_off channel=9 note=42 velocity=95 time=0
EXTRACT: note_off channel=9 note=31 velocity=95 time=0
EXTRACT: note_on channel=9 note=42 velocity=95 time=0
EXTRACT: note_off channel=0 note=50 velocity=95 time=0.2631575
EXTRACT: note_on channel=0 note=50 velocity=95 time=0
EXTRACT: note_off channel=0 note=50 velocity=95 time=0.2631575
EXTRACT: note_on channel=0 note=50 velocity=95 time=0
EXTRACT: note_off channel=9 note=42 velocity=95 time=0
EXTRACT: note_on channel=9 note=42 velocity=95 time=0
EXTRACT: note_on channel=9 note=39 velocity=95 time=0
EXTRACT: note_off channel=0 note=50 velocity=95 time=0.2631575
EXTRACT: note_on channel=0 note=50 velocity=95 time=0
EXTRACT: note_off channel=0 note=50 velocity=95 time=0.13157875
EXTRACT: note_on channel=0 note=50 velocity=95 time=0
EXTRACT: note_off channel=0 note=50 velocity=95 time=0.13157875
EXTRACT: note_on channel=0 note=50 velocity=95 time=0
EXTRACT: note_off channel=9 note=42 velocity=95 time=0
EXTRACT: note_off channel=9 note=39 velocity=95 time=0
EXTRACT: note_on channel=9 note=42 velocity=95 time=0
EXTRACT: note_off channel=0 note=50 velocity=95 time=0.2631575
EXTRACT: note_on channel=0 note=45 velocity=95 time=0
EXTRACT: note_on channel=1 note=55 velocity=95 time=0.2631575
EXTRACT: note_off channel=0 note=45 velocity=95 time=0
EXTRACT: note_off channel=9 note=42 velocity=95 time=0
EXTRACT: note_on channel=9 note=42 velocity=95 time=0
EXTRACT: note_on channel=9 note=31 velocity=95 time=0
EXTRACT: note_on channel=2 note=79 velocity=95 time=0
EXTRACT: note_on channel=2 note=74 velocity=127 time=0
EXTRACT: note_on channel=11 note=67 velocity=95 time=0
EXTRACT: note_off channel=1 note=55 velocity=95 time=0.2631575
EXTRACT: note_on channel=1 note=55 velocity=95 time=0
EXTRACT: note_off channel=9 note=42 velocity=95 time=0
EXTRACT: note_off channel=9 note=31 velocity=95 time=0
EXTRACT: note_on channel=9 note=46 velocity=95 time=0
EXTRACT: note_off channel=11 note=67 velocity=95 time=0
EXTRACT: note_on channel=11 note=67 velocity=95 time=0
EXTRACT: note_off channel=1 note=55 velocity=95 time=0.2631575
EXTRACT: note_on channel=1 note=55 velocity=95 time=0
EXTRACT: note_on channel=0 note=50 velocity=95 time=0
EXTRACT: note_off channel=9 note=46 velocity=95 time=0
EXTRACT: note_on channel=9 note=42 velocity=95 time=0
EXTRACT: note_off channel=2 note=79 velocity=95 time=0
EXTRACT: note_off channel=2 note=74 velocity=127 time=0
EXTRACT: note_on channel=2 note=81 velocity=95 time=0
EXTRACT: note_on channel=2 note=74 velocity=127 time=0
EXTRACT: note_off channel=11 note=67 velocity=95 time=0
EXTRACT: note_on channel=11 note=67 velocity=95 time=0
EXTRACT: note_off channel=1 note=55 velocity=95 time=0.2631575
EXTRACT: note_on channel=1 note=54 velocity=95 time=0
EXTRACT: note_off channel=0 note=50 velocity=95 time=0
EXTRACT: note_on channel=0 note=50 velocity=95 time=0
EXTRACT: note_off channel=11 note=67 velocity=95 time=0
EXTRACT: note_on channel=11 note=66 velocity=95 time=0
EXTRACT: note_off channel=1 note=54 velocity=95 time=0.2631575
EXTRACT: note_off channel=0 note=50 velocity=95 time=0
EXTRACT: note_on channel=0 note=50 velocity=95 time=0
EXTRACT: note_off channel=9 note=42 velocity=95 time=0
EXTRACT: note_on channel=9 note=42 velocity=95 time=0
EXTRACT: note_on channel=9 note=39 velocity=95 time=0
EXTRACT: note_off channel=11 note=66 velocity=95 time=0
EXTRACT: note_off channel=0 note=50 velocity=95 time=0.2631575
EXTRACT: note_on channel=0 note=50 velocity=95 time=0
EXTRACT: note_off channel=0 note=50 velocity=95 time=0.13157875
EXTRACT: note_on channel=0 note=50 velocity=95 time=0
EXTRACT: note_off channel=0 note=50 velocity=95 time=0.13157875
EXTRACT: note_on channel=0 note=50 velocity=95 time=0
EXTRACT: note_off channel=9 note=42 velocity=95 time=0
EXTRACT: note_off channel=9 note=39 velocity=95 time=0
EXTRACT: note_on channel=9 note=42 velocity=95 time=0
EXTRACT: note_off channel=0 note=50 velocity=95 time=0.2631575
EXTRACT: note_on channel=0 note=45 velocity=95 time=0
EXTRACT: note_off channel=0 note=45 velocity=95 time=0.2631575
EXTRACT: note_off channel=9 note=42 velocity=95 time=0
EXTRACT: note_on channel=9 note=42 velocity=95 time=0
EXTRACT: note_on channel=9 note=31 velocity=95 time=0
EXTRACT: note_on channel=0 note=50 velocity=95 time=0
EXTRACT: note_off channel=9 note=42 velocity=95 time=0
EXTRACT: note_off channel=9 note=31 velocity=95 time=0
EXTRACT: note_on channel=9 note=42 velocity=95 time=0
EXTRACT: note_off channel=2 note=81 velocity=95 time=0
EXTRACT: note_off channel=2 note=74 velocity=127 time=0
EXTRACT: note_on channel=2 note=71 velocity=127 time=0
EXTRACT: note_on channel=2 note=62 velocity=127 time=0
EXTRACT: note_off channel=0 note=50 velocity=95 time=0.2608695
EXTRACT: note_on channel=0 note=50 velocity=95 time=0
EXTRACT: note_off channel=2 note=71 velocity=127 time=0
EXTRACT: note_off channel=2 note=62 velocity=127 time=0
EXTRACT: note_on channel=2 note=67 velocity=127 time=0
EXTRACT: note_off channel=0 note=50 velocity=95 time=0.2608695
EXTRACT: note_on channel=0 note=50 velocity=95 time=0
EXTRACT: note_off channel=9 note=42 velocity=95 time=0
EXTRACT: note_on channel=9 note=42 velocity=95 time=0
EXTRACT: note_on channel=9 note=39 velocity=95 time=0
EXTRACT: note_off channel=2 note=67 velocity=127 time=0
EXTRACT: note_on channel=2 note=62 velocity=127 time=0
EXTRACT: note_off channel=0 note=50 velocity=95 time=0.2608695
EXTRACT: note_on channel=0 note=50 velocity=95 time=0
EXTRACT: note_off channel=2 note=62 velocity=127 time=0
EXTRACT: note_on channel=2 note=64 velocity=127 time=0
EXTRACT: note_on channel=2 note=61 velocity=127 time=0
EXTRACT: note_off channel=0 note=50 velocity=95 time=0.13043475
EXTRACT: note_on channel=0 note=50 velocity=95 time=0
EXTRACT: note_off channel=0 note=50 velocity=95 time=0.13043475
EXTRACT: note_on channel=0 note=50 velocity=95 time=0
EXTRACT: note_off channel=9 note=42 velocity=95 time=0
EXTRACT: note_off channel=9 note=39 velocity=95 time=0
EXTRACT: note_on channel=9 note=42 velocity=95 time=0
EXTRACT: note_off channel=0 note=50 velocity=95 time=0.2608695
EXTRACT: note_on channel=0 note=45 velocity=95 time=0
EXTRACT: note_off channel=2 note=64 velocity=127 time=0
EXTRACT: note_off channel=2 note=61 velocity=127 time=0
EXTRACT: note_off channel=0 note=45 velocity=95 time=0.2608695
EXTRACT: note_off channel=9 note=42 velocity=95 time=0
EXTRACT: note_on channel=9 note=42 velocity=95 time=0
EXTRACT: note_on channel=9 note=31 velocity=95 time=0
EXTRACT: note_off channel=9 note=42 velocity=95 time=0.2608695
EXTRACT: note_off channel=9 note=31 velocity=95 time=0
EXTRACT: note_on channel=9 note=46 velocity=95 time=0
EXTRACT: note_on channel=9 note=39 velocity=95 time=0
EXTRACT: note_on channel=1 note=55 velocity=95 time=0.2608695
EXTRACT: note_on channel=0 note=50 velocity=95 time=0
EXTRACT: note_off channel=9 note=46 velocity=95 time=0
EXTRACT: note_off channel=9 note=39 velocity=95 time=0
EXTRACT: note_on channel=9 note=42 velocity=95 time=0
EXTRACT: note_on channel=11 note=67 velocity=95 time=0
EXTRACT: note_off channel=1 note=55 velocity=95 time=0.2608695
EXTRACT: note_on channel=1 note=54 velocity=95 time=0
EXTRACT: note_off channel=0 note=50 velocity=95 time=0
EXTRACT: note_on channel=0 note=50 velocity=95 time=0
EXTRACT: note_off channel=11 note=67 velocity=95 time=0
EXTRACT: note_on channel=11 note=66 velocity=95 time=0
EXTRACT: note_off channel=1 note=54 velocity=95 time=0.2608695
EXTRACT: note_off channel=0 note=50 velocity=95 time=0
EXTRACT: note_on channel=0 note=50 velocity=95 time=0
EXTRACT: note_off channel=9 note=42 velocity=95 time=0
EXTRACT: note_on channel=9 note=42 velocity=95 time=0
EXTRACT: note_on channel=9 note=39 velocity=95 time=0
EXTRACT: note_off channel=11 note=66 velocity=95 time=0
EXTRACT: note_off channel=0 note=50 velocity=95 time=0.2608695
EXTRACT: note_on channel=0 note=50 velocity=95 time=0
EXTRACT: note_off channel=0 note=50 velocity=95 time=0.13043475
EXTRACT: note_on channel=0 note=50 velocity=95 time=0
EXTRACT: note_off channel=0 note=50 velocity=95 time=0.13043475
EXTRACT: note_on channel=0 note=50 velocity=95 time=0
EXTRACT: note_off channel=9 note=42 velocity=95 time=0
EXTRACT: note_off channel=9 note=39 velocity=95 time=0
EXTRACT: note_on channel=9 note=42 velocity=95 time=0
EXTRACT: note_off channel=0 note=50 velocity=95 time=0.2608695
EXTRACT: note_on channel=0 note=45 velocity=95 time=0
EXTRACT: note_off channel=0 note=45 velocity=95 time=0.2608695
EXTRACT: note_off channel=9 note=42 velocity=95 time=0
EXTRACT: note_on channel=9 note=42 velocity=95 time=0
EXTRACT: note_on channel=9 note=31 velocity=95 time=0
EXTRACT: note_on channel=0 note=50 velocity=95 time=0.521739
EXTRACT: note_off channel=9 note=42 velocity=95 time=0
EXTRACT: note_off channel=9 note=31 velocity=95 time=0
EXTRACT: note_on channel=9 note=42 velocity=95 time=0
EXTRACT: note_off channel=0 note=50 velocity=95 time=0.2608695
EXTRACT: note_on channel=0 note=50 velocity=95 time=0
EXTRACT: note_off channel=0 note=50 velocity=95 time=0.2608695
EXTRACT: note_on channel=0 note=50 velocity=95 time=0
EXTRACT: note_off channel=9 note=42 velocity=95 time=0
EXTRACT: note_on channel=9 note=42 velocity=95 time=0
EXTRACT: note_on channel=9 note=39 velocity=95 time=0
EXTRACT: note_off channel=0 note=50 velocity=95 time=0.2608695
EXTRACT: note_on channel=0 note=50 velocity=95 time=0
EXTRACT: note_off channel=0 note=50 velocity=95 time=0.13043475
EXTRACT: note_on channel=0 note=50 velocity=95 time=0
EXTRACT: note_off channel=0 note=50 velocity=95 time=0.13043475
EXTRACT: note_on channel=0 note=50 velocity=95 time=0
EXTRACT: note_off channel=9 note=42 velocity=95 time=0
EXTRACT: note_off channel=9 note=39 velocity=95 time=0
EXTRACT: note_on channel=9 note=42 velocity=95 time=0
EXTRACT: note_off channel=0 note=50 velocity=95 time=0.2608695
EXTRACT: note_on channel=0 note=45 velocity=95 time=0
EXTRACT: note_off channel=0 note=45 velocity=95 time=0.2608695
EXTRACT: note_off channel=9 note=42 velocity=95 time=0
EXTRACT: note_on channel=9 note=42 velocity=95 time=0
EXTRACT: note_on channel=9 note=31 velocity=95 time=0
EXTRACT: note_on channel=0 note=31 velocity=95 time=0
EXTRACT: note_off channel=9 note=42 velocity=95 time=0
EXTRACT: note_off channel=9 note=31 velocity=95 time=0
EXTRACT: note_on channel=2 note=71 velocity=127 time=0
EXTRACT: note_on channel=2 note=62 velocity=127 time=0
EXTRACT: note_off channel=2 note=71 velocity=127 time=0.2586205
EXTRACT: note_off channel=2 note=62 velocity=127 time=0
EXTRACT: note_on channel=2 note=67 velocity=127 time=0
EXTRACT: note_off channel=0 note=31 velocity=95 time=0.2586205
EXTRACT: note_on channel=0 note=31 velocity=95 time=0
EXTRACT: note_off channel=2 note=67 velocity=127 time=0
EXTRACT: note_on channel=2 note=62 velocity=127 time=0
EXTRACT: note_off channel=0 note=31 velocity=95 time=0.2586205
EXTRACT: note_on channel=0 note=33 velocity=95 time=0
EXTRACT: note_off channel=2 note=62 velocity=127 time=0
EXTRACT: note_on channel=2 note=64 velocity=127 time=0
EXTRACT: note_on channel=2 note=61 velocity=127 time=0
EXTRACT: note_off channel=2 note=64 velocity=127 time=0.517241
EXTRACT: note_off channel=2 note=61 velocity=127 time=0
EXTRACT: note_on channel=9 note=31 velocity=95 time=1.2931024999999998
EXTRACT: note_off channel=9 note=31 velocity=95 time=0.517241
EXTRACT: note_on channel=9 note=31 velocity=95 time=0.517241
EXTRACT: note_off channel=9 note=31 velocity=95 time=0.517241
EXTRACT: note_on channel=9 note=31 velocity=95 time=0.517241
EXTRACT: note_off channel=9 note=31 velocity=95 time=0.517241
EXTRACT: note_on channel=9 note=31 velocity=95 time=0.517241
EXTRACT: note_off channel=9 note=31 velocity=95 time=0
EXTRACT: note_on channel=9 note=31 velocity=95 time=0.521739
EXTRACT: note_off channel=9 note=31 velocity=95 time=0.521739
EXTRACT: note_on channel=9 note=31 velocity=95 time=0.521739
EXTRACT: note_off channel=9 note=31 velocity=95 time=0.521739
EXTRACT: note_on channel=9 note=31 velocity=95 time=0.521739
EXTRACT: note_off channel=9 note=31 velocity=95 time=0.521739
EXTRACT: note_on channel=9 note=31 velocity=95 time=0.521739
EXTRACT: note_off channel=0 note=33 velocity=95 time=0.521739
EXTRACT: note_off channel=9 note=31 velocity=95 time=0
MUSIC011 - Queen_-_Under_Pressure_(3)(1).mid
INTERVALS011 - Queen_-_Under_Pressure_(3)(1).mid
unison1
2m0
2M6
3M350
3m267
4M223
4m0
5M275
5m50
6M95
7m28
7M8