EXTRACT: control_change channel=1 control=10 value=64 time=0
EXTRACT: control_change channel=1 control=7 value=79 time=0
EXTRACT: pitchwheel channel=1 pitch=0 time=0
EXTRACT: control_change channel=1 control=101 value=0 time=0
EXTRACT: control_change channel=1 control=100 value=0 time=0
EXTRACT: control_change channel=1 control=6 value=12 time=0
EXTRACT: control_change channel=1 control=10 value=64 time=0
EXTRACT: control_change channel=1 control=7 value=79 time=0
EXTRACT: pitchwheel channel=1 pitch=0 time=0
EXTRACT: program_change channel=1 program=48 time=0
EXTRACT: control_change channel=1 control=101 value=0 time=0
EXTRACT: control_change channel=1 control=100 value=0 time=0
EXTRACT: control_change channel=1 control=6 value=12 time=0
EXTRACT: control_change channel=1 control=10 value=64 time=0
EXTRACT: control_change channel=1 control=7 value=79 time=0
EXTRACT: pitchwheel channel=1 pitch=0 time=0
EXTRACT: program_change channel=1 program=48 time=0
EXTRACT: control_change channel=1 control=10 value=64 time=0
EXTRACT: control_change channel=1 control=7 value=79 time=0
EXTRACT: pitchwheel channel=1 pitch=0 time=0
EXTRACT: program_change channel=1 program=48 time=0
EXTRACT: control_change channel=1 control=101 value=0 time=0
EXTRACT: control_change channel=1 control=100 value=0 time=0
EXTRACT: control_change channel=1 control=6 value=12 time=0
EXTRACT: control_change channel=1 control=10 value=64 time=0
EXTRACT: control_change channel=1 control=7 value=79 time=0
EXTRACT: pitchwheel channel=1 pitch=0 time=0
EXTRACT: program_change channel=1 program=48 time=0
EXTRACT: control_change channel=1 control=10 value=64 time=0
EXTRACT: control_change channel=1 control=7 value=79 time=0
EXTRACT: pitchwheel channel=1 pitch=0 time=0
EXTRACT: program_change channel=1 program=48 time=0
EXTRACT: control_change channel=2 control=10 value=64 time=0
EXTRACT: control_change channel=2 control=7 value=107 time=0
EXTRACT: pitchwheel channel=2 pitch=0 time=0
EXTRACT: control_change channel=2 control=101 value=0 time=0
EXTRACT: control_change channel=2 control=100 value=0 time=0
EXTRACT: control_change channel=2 control=6 value=12 time=0
EXTRACT: control_change channel=2 control=10 value=64 time=0
EXTRACT: control_change channel=2 control=7 value=107 time=0
EXTRACT: pitchwheel channel=2 pitch=0 time=0
EXTRACT: program_change channel=2 program=35 time=0
EXTRACT: control_change channel=2 control=101 value=0 time=0
EXTRACT: control_change channel=2 control=100 value=0 time=0
EXTRACT: control_change channel=2 control=6 value=12 time=0
EXTRACT: control_change channel=2 control=10 value=64 time=0
EXTRACT: control_change channel=2 control=7 value=107 time=0
EXTRACT: pitchwheel channel=2 pitch=0 time=0
EXTRACT: program_change channel=2 program=35 time=0
EXTRACT: control_change channel=2 control=10 value=64 time=0
EXTRACT: control_change channel=2 control=7 value=107 time=0
EXTRACT: pitchwheel channel=2 pitch=0 time=0
EXTRACT: program_change channel=2 program=35 time=0
EXTRACT: control_change channel=2 control=101 value=0 time=0
EXTRACT: control_change channel=2 control=100 value=0 time=0
EXTRACT: control_change channel=2 control=6 value=12 time=0
EXTRACT: control_change channel=2 control=10 value=64 time=0
EXTRACT: control_change channel=2 control=7 value=107 time=0
EXTRACT: pitchwheel channel=2 pitch=0 time=0
EXTRACT: program_change channel=2 program=35 time=0
EXTRACT: control_change channel=2 control=10 value=64 time=0
EXTRACT: control_change channel=2 control=7 value=107 time=0
EXTRACT: pitchwheel channel=2 pitch=0 time=0
EXTRACT: program_change channel=2 program=35 time=0
EXTRACT: control_change channel=9 control=10 value=64 time=0
EXTRACT: control_change channel=9 control=7 value=100 time=0
EXTRACT: pitchwheel channel=9 pitch=0 time=0
EXTRACT: control_change channel=9 control=101 value=0 time=0
EXTRACT: control_change channel=9 control=100 value=0 time=0
EXTRACT: control_change channel=9 control=6 value=12 time=0
EXTRACT: control_change channel=9 control=10 value=64 time=0
EXTRACT: control_change channel=9 control=7 value=100 time=0
EXTRACT: pitchwheel channel=9 pitch=0 time=0
EXTRACT: program_change channel=9 program=0 time=0
EXTRACT: control_change channel=9 control=101 value=0 time=0
EXTRACT: control_change channel=9 control=100 value=0 time=0
EXTRACT: control_change channel=9 control=6 value=12 time=0
EXTRACT: control_change channel=9 control=10 value=64 time=0
EXTRACT: control_change channel=9 control=7 value=100 time=0
EXTRACT: pitchwheel channel=9 pitch=0 time=0
EXTRACT: program_change channel=9 program=0 time=0
EXTRACT: control_change channel=9 control=10 value=64 time=0
EXTRACT: control_change channel=9 control=7 value=100 time=0
EXTRACT: pitchwheel channel=9 pitch=0 time=0
EXTRACT: program_change channel=9 program=0 time=0
EXTRACT: control_change channel=9 control=101 value=0 time=0
EXTRACT: control_change channel=9 control=100 value=0 time=0
EXTRACT: control_change channel=9 control=6 value=12 time=0
EXTRACT: control_change channel=9 control=10 value=64 time=0
EXTRACT: control_change channel=9 control=7 value=100 time=0
EXTRACT: pitchwheel channel=9 pitch=0 time=0
EXTRACT: program_change channel=9 program=0 time=0
EXTRACT: control_change channel=9 control=10 value=64 time=0
EXTRACT: control_change channel=9 control=7 value=100 time=0
EXTRACT: pitchwheel channel=9 pitch=0 time=0
EXTRACT: program_change channel=9 program=0 time=0
EXTRACT: control_change channel=4 control=10 value=64 time=0
EXTRACT: control_change channel=4 control=7 value=100 time=0
EXTRACT: pitchwheel channel=4 pitch=0 time=0
EXTRACT: control_change channel=4 control=101 value=0 time=0
EXTRACT: control_change channel=4 control=100 value=0 time=0
EXTRACT: control_change channel=4 control=6 value=12 time=0
EXTRACT: control_change channel=4 control=10 value=64 time=0
EXTRACT: control_change channel=4 control=7 value=100 time=0
EXTRACT: pitchwheel channel=4 pitch=0 time=0
EXTRACT: program_change channel=4 program=16 time=0
EXTRACT: control_change channel=4 control=101 value=0 time=0
EXTRACT: control_change channel=4 control=100 value=0 time=0
EXTRACT: control_change channel=4 control=6 value=12 time=0
EXTRACT: control_change channel=4 control=10 value=64 time=0
EXTRACT: control_change channel=4 control=7 value=100 time=0
EXTRACT: pitchwheel channel=4 pitch=0 time=0
EXTRACT: program_change channel=4 program=16 time=0
EXTRACT: control_change channel=4 control=10 value=64 time=0
EXTRACT: control_change channel=4 control=7 value=100 time=0
EXTRACT: pitchwheel channel=4 pitch=0 time=0
EXTRACT: program_change channel=4 program=16 time=0
EXTRACT: control_change channel=4 control=101 value=0 time=0
EXTRACT: control_change channel=4 control=100 value=0 time=0
EXTRACT: control_change channel=4 control=6 value=12 time=0
EXTRACT: control_change channel=4 control=10 value=64 time=0
EXTRACT: control_change channel=4 control=7 value=100 time=0
EXTRACT: pitchwheel channel=4 pitch=0 time=0
EXTRACT: program_change channel=4 program=16 time=0
EXTRACT: control_change channel=4 control=10 value=64 time=0
EXTRACT: control_change channel=4 control=7 value=100 time=0
EXTRACT: pitchwheel channel=4 pitch=0 time=0
EXTRACT: program_change channel=4 program=16 time=0
EXTRACT: control_change channel=5 control=10 value=64 time=0
EXTRACT: control_change channel=5 control=7 value=100 time=0
EXTRACT: pitchwheel channel=5 pitch=0 time=0
EXTRACT: control_change channel=5 control=101 value=0 time=0
EXTRACT: control_change channel=5 control=100 value=0 time=0
EXTRACT: control_change channel=5 control=6 value=12 time=0
EXTRACT: control_change channel=5 control=10 value=64 time=0
EXTRACT: control_change channel=5 control=7 value=100 time=0
EXTRACT: pitchwheel channel=5 pitch=0 time=0
EXTRACT: program_change channel=5 program=0 time=0
EXTRACT: control_change channel=5 control=101 value=0 time=0
EXTRACT: control_change channel=5 control=100 value=0 time=0
EXTRACT: control_change channel=5 control=6 value=12 time=0
EXTRACT: control_change channel=5 control=10 value=64 time=0
EXTRACT: control_change channel=5 control=7 value=100 time=0
EXTRACT: pitchwheel channel=5 pitch=0 time=0
EXTRACT: program_change channel=5 program=0 time=0
EXTRACT: control_change channel=5 control=10 value=64 time=0
EXTRACT: control_change channel=5 control=7 value=100 time=0
EXTRACT: pitchwheel channel=5 pitch=0 time=0
EXTRACT: program_change channel=5 program=0 time=0
EXTRACT: control_change channel=5 control=101 value=0 time=0
EXTRACT: control_change channel=5 control=100 value=0 time=0
EXTRACT: control_change channel=5 control=6 value=12 time=0
EXTRACT: control_change channel=5 control=10 value=64 time=0
EXTRACT: control_change channel=5 control=7 value=100 time=0
EXTRACT: pitchwheel channel=5 pitch=0 time=0
EXTRACT: program_change channel=5 program=0 time=0
EXTRACT: control_change channel=5 control=10 value=64 time=0
EXTRACT: control_change channel=5 control=7 value=100 time=0
EXTRACT: pitchwheel channel=5 pitch=0 time=0
EXTRACT: program_change channel=5 program=0 time=0
EXTRACT: control_change channel=6 control=10 value=64 time=0
EXTRACT: control_change channel=6 control=7 value=100 time=0
EXTRACT: pitchwheel channel=6 pitch=0 time=0
EXTRACT: control_change channel=6 control=101 value=0 time=0
EXTRACT: control_change channel=6 control=100 value=0 time=0
EXTRACT: control_change channel=6 control=6 value=12 time=0
EXTRACT: control_change channel=6 control=10 value=64 time=0
EXTRACT: control_change channel=6 control=7 value=100 time=0
EXTRACT: pitchwheel channel=6 pitch=0 time=0
EXTRACT: program_change channel=6 program=0 time=0
EXTRACT: control_change channel=6 control=101 value=0 time=0
EXTRACT: control_change channel=6 control=100 value=0 time=0
EXTRACT: control_change channel=6 control=6 value=12 time=0
EXTRACT: control_change channel=6 control=10 value=64 time=0
EXTRACT: control_change channel=6 control=7 value=100 time=0
EXTRACT: pitchwheel channel=6 pitch=0 time=0
EXTRACT: program_change channel=6 program=0 time=0
EXTRACT: control_change channel=6 control=10 value=64 time=0
EXTRACT: control_change channel=6 control=7 value=100 time=0
EXTRACT: pitchwheel channel=6 pitch=0 time=0
EXTRACT: program_change channel=6 program=0 time=0
EXTRACT: control_change channel=6 control=101 value=0 time=0
EXTRACT: control_change channel=6 control=100 value=0 time=0
EXTRACT: control_change channel=6 control=6 value=12 time=0
EXTRACT: control_change channel=6 control=10 value=64 time=0
EXTRACT: control_change channel=6 control=7 value=100 time=0
EXTRACT: pitchwheel channel=6 pitch=0 time=0
EXTRACT: program_change channel=6 program=0 time=0
EXTRACT: control_change channel=6 control=10 value=64 time=0
EXTRACT: control_change channel=6 control=7 value=100 time=0
EXTRACT: pitchwheel channel=6 pitch=0 time=0
EXTRACT: program_change channel=6 program=0 time=0
EXTRACT: note_off channel=0 note=60 velocity=0 time=0
EXTRACT: note_off channel=0 note=61 velocity=0 time=0.0054347812499999995
EXTRACT: note_off channel=0 note=60 velocity=0 time=0.0054347812499999995
EXTRACT: note_off channel=0 note=78 velocity=0 time=0.0054347812499999995
EXTRACT: note_off channel=0 note=68 velocity=0 time=0.0054347812499999995
EXTRACT: note_off channel=0 note=72 velocity=0 time=0.0054347812499999995
EXTRACT: note_off channel=0 note=82 velocity=0 time=0.0054347812499999995
EXTRACT: note_off channel=0 note=78 velocity=0 time=0.0054347812499999995
EXTRACT: note_off channel=0 note=70 velocity=0 time=0.0054347812499999995
EXTRACT: note_off channel=0 note=70 velocity=0 time=0.0054347812499999995
EXTRACT: note_off channel=0 note=70 velocity=0 time=0.0054347812499999995
EXTRACT: note_off channel=0 note=82 velocity=0 time=0.0054347812499999995
EXTRACT: note_off channel=0 note=80 velocity=0 time=0.0054347812499999995
EXTRACT: note_off channel=0 note=61 velocity=0 time=0.0054347812499999995
EXTRACT: note_off channel=0 note=72 velocity=0 time=0.0054347812499999995
EXTRACT: note_off channel=0 note=61 velocity=0 time=0.0054347812499999995
EXTRACT: note_off channel=0 note=60 velocity=0 time=0.5434781249999999
EXTRACT: note_off channel=0 note=60 velocity=0 time=0.77717371875
EXTRACT: note_off channel=0 note=61 velocity=0 time=0.13586953124999998
EXTRACT: note_on channel=4 note=57 velocity=100 time=0.54891290625
EXTRACT: note_on channel=4 note=50 velocity=100 time=0
EXTRACT: note_on channel=5 note=65 velocity=100 time=0
EXTRACT: note_on channel=6 note=77 velocity=100 time=0
EXTRACT: note_off channel=5 note=65 velocity=64 time=0.23913037499999998
EXTRACT: note_off channel=6 note=77 velocity=64 time=0
EXTRACT: note_on channel=5 note=62 velocity=100 time=0.021739124999999998
EXTRACT: note_on channel=6 note=77 velocity=100 time=0
EXTRACT: note_off channel=0 note=78 velocity=0 time=0.0326086875
EXTRACT: note_off channel=5 note=62 velocity=64 time=0.2065216875
EXTRACT: note_off channel=6 note=77 velocity=64 time=0
EXTRACT: note_on channel=5 note=57 velocity=100 time=0.021739124999999998
EXTRACT: note_on channel=6 note=69 velocity=100 time=0
EXTRACT: note_off channel=5 note=57 velocity=64 time=0.23913037499999998
EXTRACT: note_off channel=6 note=69 velocity=64 time=0
EXTRACT: note_on channel=5 note=65 velocity=100 time=0.021739124999999998
EXTRACT: note_off channel=5 note=65 velocity=64 time=0.23913037499999998
EXTRACT: note_on channel=5 note=62 velocity=100 time=0.021739124999999998
EXTRACT: note_on channel=6 note=77 velocity=100 time=0
EXTRACT: note_off channel=0 note=68 velocity=0 time=0.027173906249999998
EXTRACT: note_off channel=5 note=62 velocity=64 time=0.21195646875
EXTRACT: note_off channel=6 note=77 velocity=64 time=0
EXTRACT: note_on channel=5 note=57 velocity=100 time=0.021739124999999998
EXTRACT: note_on channel=6 note=77 velocity=100 time=0
EXTRACT: note_off channel=5 note=57 velocity=64 time=0.23913037499999998
EXTRACT: note_off channel=6 note=77 velocity=64 time=0
EXTRACT: note_on channel=5 note=65 velocity=100 time=0.021739124999999998
EXTRACT: note_on channel=6 note=69 velocity=100 time=0
EXTRACT: note_off channel=0 note=72 velocity=0 time=0.1630434375
EXTRACT: note_off channel=5 note=65 velocity=64 time=0.0760869375
EXTRACT: note_off channel=6 note=69 velocity=64 time=0
EXTRACT: note_on channel=5 note=62 velocity=100 time=0.021739124999999998
EXTRACT: note_off channel=0 note=82 velocity=0 time=0.12499996875
EXTRACT: note_off channel=5 note=62 velocity=64 time=0.11413040624999998
EXTRACT: note_on channel=5 note=65 velocity=100 time=0.021739124999999998
EXTRACT: note_on channel=6 note=77 velocity=100 time=0
EXTRACT: note_off channel=5 note=65 velocity=64 time=0.23913037499999998
EXTRACT: note_off channel=6 note=77 velocity=64 time=0
EXTRACT: note_on channel=5 note=62 velocity=100 time=0.021739124999999998
EXTRACT: note_on channel=6 note=77 velocity=100 time=0
EXTRACT: note_off channel=0 note=70 velocity=0 time=0.12499996875
EXTRACT: note_off channel=0 note=78 velocity=0 time=0.09782606249999999
EXTRACT: note_off channel=5 note=62 velocity=64 time=0.01630434375
EXTRACT: note_off channel=6 note=77 velocity=64 time=0
EXTRACT: note_on channel=5 note=57 velocity=100 time=0.021739124999999998
EXTRACT: note_on channel=6 note=77 velocity=100 time=0
EXTRACT: note_off channel=5 note=57 velocity=64 time=0.23913037499999998
EXTRACT: note_off channel=6 note=77 velocity=64 time=0
EXTRACT: note_on channel=5 note=65 velocity=100 time=0.021739124999999998
EXTRACT: note_on channel=6 note=77 velocity=100 time=0
EXTRACT: note_off channel=5 note=65 velocity=64 time=0.23913037499999998
EXTRACT: note_off channel=6 note=77 velocity=64 time=0
EXTRACT: note_on channel=5 note=62 velocity=100 time=0.021739124999999998
EXTRACT: note_on channel=6 note=77 velocity=100 time=0
EXTRACT: note_off channel=0 note=70 velocity=0 time=0.021739124999999998
EXTRACT: note_off channel=5 note=62 velocity=64 time=0.21739124999999998
EXTRACT: note_off channel=6 note=77 velocity=64 time=0
EXTRACT: note_on channel=5 note=57 velocity=100 time=0.021739124999999998
EXTRACT: note_off channel=5 note=57 velocity=64 time=0.23913037499999998
EXTRACT: note_on channel=5 note=65 velocity=100 time=0.021739124999999998
EXTRACT: note_on channel=6 note=79 velocity=100 time=0
EXTRACT: note_off channel=5 note=65 velocity=64 time=0.23913037499999998
EXTRACT: note_on channel=5 note=67 velocity=100 time=0.021739124999999998
EXTRACT: note_off channel=4 note=50 velocity=64 time=0.23913037499999998
EXTRACT: note_off channel=4 note=57 velocity=64 time=0
EXTRACT: note_off channel=5 note=67 velocity=64 time=0
EXTRACT: note_off channel=6 note=79 velocity=64 time=0
EXTRACT: note_on channel=4 note=57 velocity=100 time=0.021739124999999998
EXTRACT: note_on channel=4 note=52 velocity=100 time=0
EXTRACT: note_on channel=5 note=64 velocity=100 time=0
EXTRACT: note_on channel=6 note=76 velocity=100 time=0
EXTRACT: note_off channel=5 note=64 velocity=64 time=0.23913037499999998
EXTRACT: note_off channel=6 note=76 velocity=64 time=0
EXTRACT: note_on channel=5 note=60 velocity=100 time=0.021739124999999998
EXTRACT: note_on channel=6 note=74 velocity=100 time=0
EXTRACT: note_off channel=0 note=70 velocity=0 time=0.010869562499999999
EXTRACT: note_off channel=5 note=60 velocity=64 time=0.22826081249999997
EXTRACT: note_off channel=6 note=74 velocity=64 time=0
EXTRACT: note_on channel=5 note=57 velocity=100 time=0.021739124999999998
EXTRACT: note_on channel=6 note=76 velocity=100 time=0
EXTRACT: note_off channel=0 note=82 velocity=0 time=0.23369559374999999
EXTRACT: note_off channel=5 note=57 velocity=64 time=0.0054347812499999995
EXTRACT: note_off channel=6 note=76 velocity=64 time=0
EXTRACT: note_on channel=5 note=64 velocity=100 time=0.021739124999999998
EXTRACT: note_on channel=6 note=74 velocity=100 time=0
EXTRACT: note_off channel=5 note=64 velocity=64 time=0.23913037499999998
EXTRACT: note_off channel=6 note=74 velocity=64 time=0
EXTRACT: note_on channel=5 note=60 velocity=100 time=0.021739124999999998
EXTRACT: note_on channel=6 note=76 velocity=100 time=0
EXTRACT: note_off channel=0 note=72 velocity=0 time=0.0760869375
EXTRACT: note_off channel=5 note=60 velocity=64 time=0.1630434375
EXTRACT: note_off channel=6 note=76 velocity=64 time=0
EXTRACT: note_on channel=5 note=57 velocity=100 time=0.021739124999999998
EXTRACT: note_on channel=6 note=74 velocity=100 time=0
EXTRACT: note_off channel=0 note=80 velocity=0 time=0.16847821875
EXTRACT: note_off channel=5 note=57 velocity=64 time=0.07065215624999999
EXTRACT: note_off channel=6 note=74 velocity=64 time=0
EXTRACT: note_off channel=0 note=61 velocity=0 time=0
EXTRACT: note_on channel=5 note=64 velocity=100 time=0.021739124999999998
EXTRACT: note_on channel=6 note=76 velocity=100 time=0
EXTRACT: note_off channel=0 note=61 velocity=0 time=0.09239128124999998
EXTRACT: note_off channel=5 note=64 velocity=64 time=0.14673909375
EXTRACT: note_off channel=6 note=76 velocity=64 time=0
EXTRACT: note_on channel=5 note=60 velocity=100 time=0.021739124999999998
EXTRACT: note_on channel=6 note=74 velocity=100 time=0
EXTRACT: note_off channel=5 note=60 velocity=64 time=0.23913037499999998
EXTRACT: note_off channel=6 note=74 velocity=64 time=0
EXTRACT: note_on channel=5 note=64 velocity=100 time=0.021739124999999998
EXTRACT: note_on channel=6 note=76 velocity=100 time=0
EXTRACT: note_off channel=5 note=64 velocity=64 time=0.23913037499999998
EXTRACT: note_off channel=6 note=76 velocity=64 time=0
EXTRACT: note_on channel=5 note=60 velocity=100 time=0.021739124999999998
EXTRACT: note_on channel=6 note=69 velocity=100 time=0
EXTRACT: note_off channel=5 note=60 velocity=64 time=0.23913037499999998
EXTRACT: note_off channel=6 note=69 velocity=64 time=0
EXTRACT: note_on channel=5 note=57 velocity=100 time=0.021739124999999998
EXTRACT: note_on channel=6 note=69 velocity=100 time=0
EXTRACT: note_off channel=5 note=57 velocity=64 time=0.23913037499999998
EXTRACT: note_on channel=5 note=64 velocity=100 time=0.021739124999999998
EXTRACT: note_off channel=5 note=64 velocity=64 time=0.23913037499999998
EXTRACT: note_off channel=6 note=69 velocity=64 time=0
EXTRACT: note_on channel=5 note=60 velocity=100 time=0.021739124999999998
EXTRACT: note_off channel=5 note=60 velocity=64 time=0.23913037499999998
EXTRACT: note_on channel=5 note=57 velocity=100 time=0.021739124999999998
EXTRACT: note_off channel=5 note=57 velocity=64 time=0.23913037499999998
EXTRACT: note_on channel=5 note=64 velocity=100 time=0.021739124999999998
EXTRACT: note_off channel=5 note=64 velocity=64 time=0.23913037499999998
EXTRACT: note_on channel=5 note=60 velocity=100 time=0.021739124999999998
EXTRACT: note_off channel=4 note=52 velocity=64 time=0.23913037499999998
EXTRACT: note_off channel=4 note=57 velocity=64 time=0
EXTRACT: note_off channel=5 note=60 velocity=64 time=0
EXTRACT: note_on channel=4 note=57 velocity=100 time=0.021739124999999998
EXTRACT: note_on channel=4 note=50 velocity=100 time=0
EXTRACT: note_on channel=5 note=65 velocity=100 time=0
EXTRACT: note_on channel=6 note=77 velocity=100 time=0
EXTRACT: note_off channel=5 note=65 velocity=64 time=0.23913037499999998
EXTRACT: note_off channel=6 note=77 velocity=64 time=0
EXTRACT: note_on channel=5 note=62 velocity=100 time=0.021739124999999998
EXTRACT: note_on channel=6 note=77 velocity=100 time=0
EXTRACT: note_off channel=5 note=62 velocity=64 time=0.23913037499999998
EXTRACT: note_off channel=6 note=77 velocity=64 time=0
EXTRACT: note_on channel=5 note=57 velocity=100 time=0.021739124999999998
EXTRACT: note_on channel=6 note=69 velocity=100 time=0
EXTRACT: note_off channel=5 note=57 velocity=64 time=0.23913037499999998
EXTRACT: note_off channel=6 note=69 velocity=64 time=0
EXTRACT: note_on channel=5 note=65 velocity=100 time=0.021739124999999998
EXTRACT: note_off channel=5 note=65 velocity=64 time=0.23913037499999998
EXTRACT: note_on channel=5 note=62 velocity=100 time=0.021739124999999998
EXTRACT: note_on channel=6 note=77 velocity=100 time=0
EXTRACT: note_off channel=5 note=62 velocity=64 time=0.23913037499999998
EXTRACT: note_off channel=6 note=77 velocity=64 time=0
EXTRACT: note_on channel=5 note=57 velocity=100 time=0.021739124999999998
EXTRACT: note_on channel=6 note=77 velocity=100 time=0
EXTRACT: note_off channel=5 note=57 velocity=64 time=0.23913037499999998
EXTRACT: note_off channel=6 note=77 velocity=64 time=0
EXTRACT: note_on channel=5 note=65 velocity=100 time=0.021739124999999998
EXTRACT: note_on channel=6 note=69 velocity=100 time=0
EXTRACT: note_off channel=5 note=65 velocity=64 time=0.23913037499999998
EXTRACT: note_off channel=6 note=69 velocity=64 time=0
EXTRACT: note_on channel=5 note=62 velocity=100 time=0.021739124999999998
EXTRACT: note_off channel=5 note=62 velocity=64 time=0.23913037499999998
EXTRACT: note_on channel=5 note=65 velocity=100 time=0.021739124999999998
EXTRACT: note_on channel=6 note=77 velocity=100 time=0
EXTRACT: note_off channel=5 note=65 velocity=64 time=0.23913037499999998
EXTRACT: note_off channel=6 note=77 velocity=64 time=0
EXTRACT: note_on channel=5 note=62 velocity=100 time=0.021739124999999998
EXTRACT: note_on channel=6 note=77 velocity=100 time=0
EXTRACT: note_off channel=5 note=62 velocity=64 time=0.23913037499999998
EXTRACT: note_off channel=6 note=77 velocity=64 time=0
EXTRACT: note_on channel=5 note=57 velocity=100 time=0.021739124999999998
EXTRACT: note_on channel=6 note=77 velocity=100 time=0
EXTRACT: note_off channel=5 note=57 velocity=64 time=0.23913037499999998
EXTRACT: note_off channel=6 note=77 velocity=64 time=0
EXTRACT: note_on channel=5 note=65 velocity=100 time=0.021739124999999998
EXTRACT: note_on channel=6 note=77 velocity=100 time=0
EXTRACT: note_off channel=5 note=65 velocity=64 time=0.23913037499999998
EXTRACT: note_off channel=6 note=77 velocity=64 time=0
EXTRACT: note_on channel=5 note=62 velocity=100 time=0.021739124999999998
EXTRACT: note_on channel=6 note=77 velocity=100 time=0
EXTRACT: note_off channel=5 note=62 velocity=64 time=0.23913037499999998
EXTRACT: note_off channel=6 note=77 velocity=64 time=0
EXTRACT: note_on channel=5 note=57 velocity=100 time=0.021739124999999998
EXTRACT: note_off channel=5 note=57 velocity=64 time=0.23913037499999998
EXTRACT: note_on channel=5 note=65 velocity=100 time=0.021739124999999998
EXTRACT: note_on channel=6 note=79 velocity=100 time=0
EXTRACT: note_off channel=5 note=65 velocity=64 time=0.23913037499999998
EXTRACT: note_on channel=5 note=67 velocity=100 time=0.021739124999999998
EXTRACT: note_off channel=4 note=50 velocity=64 time=0.23913037499999998
EXTRACT: note_off channel=4 note=57 velocity=64 time=0
EXTRACT: note_off channel=5 note=67 velocity=64 time=0
EXTRACT: note_off channel=6 note=79 velocity=64 time=0
EXTRACT: note_on channel=4 note=57 velocity=100 time=0.021739124999999998
EXTRACT: note_on channel=4 note=52 velocity=100 time=0
EXTRACT: note_on channel=5 note=64 velocity=100 time=0
EXTRACT: note_on channel=6 note=76 velocity=100 time=0
EXTRACT: note_off channel=5 note=64 velocity=64 time=0.23913037499999998
EXTRACT: note_off channel=6 note=76 velocity=64 time=0
EXTRACT: note_on channel=5 note=60 velocity=100 time=0.021739124999999998
EXTRACT: note_on channel=6 note=74 velocity=100 time=0
EXTRACT: note_off channel=5 note=60 velocity=64 time=0.23913037499999998
EXTRACT: note_off channel=6 note=74 velocity=64 time=0
EXTRACT: note_on channel=5 note=57 velocity=100 time=0.021739124999999998
EXTRACT: note_on channel=6 note=76 velocity=100 time=0
EXTRACT: note_off channel=5 note=57 velocity=64 time=0.23913037499999998
EXTRACT: note_off channel=6 note=76 velocity=64 time=0
EXTRACT: note_on channel=5 note=64 velocity=100 time=0.021739124999999998
EXTRACT: note_on channel=6 note=74 velocity=100 time=0
EXTRACT: note_off channel=5 note=64 velocity=64 time=0.23913037499999998
EXTRACT: note_off channel=6 note=74 velocity=64 time=0
EXTRACT: note_on channel=5 note=60 velocity=100 time=0.021739124999999998
EXTRACT: note_on channel=6 note=76 velocity=100 time=0
EXTRACT: note_off channel=5 note=60 velocity=64 time=0.23913037499999998
EXTRACT: note_off channel=6 note=76 velocity=64 time=0
EXTRACT: note_on channel=5 note=57 velocity=100 time=0.021739124999999998
EXTRACT: note_on channel=6 note=74 velocity=100 time=0
EXTRACT: note_off channel=5 note=57 velocity=64 time=0.23913037499999998
EXTRACT: note_on channel=5 note=64 velocity=100 time=0.021739124999999998
EXTRACT: note_off channel=5 note=64 velocity=64 time=0.23913037499999998
EXTRACT: note_off channel=6 note=74 velocity=64 time=0
EXTRACT: note_on channel=5 note=60 velocity=100 time=0.021739124999999998
EXTRACT: note_off channel=5 note=60 velocity=64 time=0.23913037499999998
EXTRACT: note_on channel=5 note=64 velocity=100 time=0.021739124999999998
EXTRACT: note_off channel=5 note=64 velocity=64 time=0.23913037499999998
EXTRACT: note_on channel=5 note=60 velocity=100 time=0.021739124999999998
EXTRACT: note_on channel=6 note=76 velocity=100 time=0
EXTRACT: note_off channel=5 note=60 velocity=64 time=0.23913037499999998
EXTRACT: note_off channel=6 note=76 velocity=64 time=0
EXTRACT: note_on channel=5 note=57 velocity=100 time=0.021739124999999998
EXTRACT: note_on channel=6 note=76 velocity=100 time=0
EXTRACT: note_off channel=5 note=57 velocity=64 time=0.23913037499999998
EXTRACT: note_off channel=6 note=76 velocity=64 time=0
EXTRACT: note_on channel=5 note=64 velocity=100 time=0.021739124999999998
EXTRACT: note_on channel=6 note=74 velocity=100 time=0
EXTRACT: note_off channel=5 note=64 velocity=64 time=0.23913037499999998
EXTRACT: note_off channel=6 note=74 velocity=64 time=0
EXTRACT: note_on channel=5 note=60 velocity=100 time=0.021739124999999998
EXTRACT: note_on channel=6 note=76 velocity=100 time=0
EXTRACT: note_off channel=5 note=60 velocity=64 time=0.23913037499999998
EXTRACT: note_off channel=6 note=76 velocity=64 time=0
EXTRACT: note_on channel=5 note=57 velocity=100 time=0.021739124999999998
EXTRACT: note_on channel=6 note=74 velocity=100 time=0
EXTRACT: note_off channel=5 note=57 velocity=64 time=0.23913037499999998
EXTRACT: note_on channel=5 note=64 velocity=100 time=0.021739124999999998
EXTRACT: note_off channel=5 note=64 velocity=64 time=0.23913037499999998
EXTRACT: note_off channel=6 note=74 velocity=64 time=0
EXTRACT: note_on channel=5 note=60 velocity=100 time=0.021739124999999998
EXTRACT: note_off channel=4 note=52 velocity=64 time=0.23913037499999998
EXTRACT: note_off channel=4 note=57 velocity=64 time=0
EXTRACT: note_off channel=5 note=60 velocity=64 time=0
EXTRACT: note_on channel=9 note=45 velocity=98 time=0.021739124999999998
EXTRACT: note_on channel=9 note=46 velocity=38 time=0
EXTRACT: note_on channel=4 note=57 velocity=100 time=0
EXTRACT: note_on channel=4 note=50 velocity=100 time=0
EXTRACT: note_on channel=5 note=65 velocity=100 time=0
EXTRACT: note_on channel=6 note=81 velocity=100 time=0
EXTRACT: note_off channel=9 note=45 velocity=64 time=0.10869562499999999
EXTRACT: note_off channel=9 note=46 velocity=64 time=0
EXTRACT: note_on channel=9 note=46 velocity=38 time=0.021739124999999998
EXTRACT: note_off channel=9 note=46 velocity=64 time=0.10869562499999999
EXTRACT: note_off channel=5 note=65 velocity=64 time=0
EXTRACT: note_off channel=6 note=81 velocity=64 time=0
EXTRACT: note_on channel=9 note=46 velocity=38 time=0.021739124999999998
EXTRACT: note_on channel=5 note=62 velocity=100 time=0
EXTRACT: note_on channel=6 note=81 velocity=100 time=0
EXTRACT: note_off channel=9 note=46 velocity=64 time=0.10869562499999999
EXTRACT: note_on channel=9 note=46 velocity=38 time=0.021739124999999998
EXTRACT: note_off channel=9 note=46 velocity=64 time=0.10869562499999999
EXTRACT: note_off channel=5 note=62 velocity=64 time=0
EXTRACT: note_off channel=6 note=81 velocity=64 time=0
EXTRACT: note_on channel=9 note=45 velocity=95 time=0.021739124999999998
EXTRACT: note_on channel=9 note=46 velocity=38 time=0
EXTRACT: note_on channel=5 note=57 velocity=100 time=0
EXTRACT: note_on channel=6 note=79 velocity=100 time=0
EXTRACT: note_off channel=9 note=45 velocity=64 time=0.10869562499999999
EXTRACT: note_off channel=9 note=46 velocity=64 time=0
EXTRACT: note_on channel=9 note=46 velocity=38 time=0.021739124999999998
EXTRACT: note_off channel=9 note=46 velocity=64 time=0.10869562499999999
EXTRACT: note_off channel=5 note=57 velocity=64 time=0
EXTRACT: note_off channel=6 note=79 velocity=64 time=0
EXTRACT: note_on channel=9 note=46 velocity=38 time=0.021739124999999998
EXTRACT: note_on channel=5 note=65 velocity=100 time=0
EXTRACT: note_on channel=6 note=79 velocity=100 time=0
EXTRACT: note_off channel=9 note=46 velocity=64 time=0.10869562499999999
EXTRACT: note_on channel=9 note=46 velocity=38 time=0.021739124999999998
EXTRACT: note_off channel=9 note=46 velocity=64 time=0.10869562499999999
EXTRACT: note_off channel=5 note=65 velocity=64 time=0
EXTRACT: note_off channel=6 note=79 velocity=64 time=0
EXTRACT: note_on channel=9 note=45 velocity=98 time=0.021739124999999998
EXTRACT: note_on channel=9 note=46 velocity=38 time=0
EXTRACT: note_on channel=5 note=62 velocity=100 time=0
EXTRACT: note_on channel=6 note=77 velocity=100 time=0
EXTRACT: note_off channel=9 note=45 velocity=64 time=0.10869562499999999
EXTRACT: note_off channel=9 note=46 velocity=64 time=0
EXTRACT: note_on channel=9 note=46 velocity=38 time=0.021739124999999998
EXTRACT: note_off channel=9 note=46 velocity=64 time=0.10869562499999999
EXTRACT: note_off channel=5 note=62 velocity=64 time=0
EXTRACT: note_off channel=6 note=77 velocity=64 time=0
EXTRACT: note_on channel=9 note=46 velocity=38 time=0.021739124999999998
EXTRACT: note_on channel=5 note=57 velocity=100 time=0
EXTRACT: note_on channel=6 note=76 velocity=100 time=0
EXTRACT: note_off channel=9 note=46 velocity=64 time=0.10869562499999999
EXTRACT: note_on channel=9 note=46 velocity=38 time=0.021739124999999998
EXTRACT: note_off channel=9 note=46 velocity=64 time=0.10869562499999999
EXTRACT: note_off channel=5 note=57 velocity=64 time=0
EXTRACT: note_off channel=6 note=76 velocity=64 time=0
EXTRACT: note_on channel=9 note=45 velocity=95 time=0.021739124999999998
EXTRACT: note_on channel=9 note=46 velocity=38 time=0
EXTRACT: note_on channel=5 note=65 velocity=100 time=0
EXTRACT: note_on channel=6 note=76 velocity=100 time=0
EXTRACT: note_off channel=9 note=45 velocity=64 time=0.10869562499999999
EXTRACT: note_off channel=9 note=46 velocity=64 time=0
EXTRACT: note_off channel=6 note=76 velocity=64 time=0
EXTRACT: note_on channel=9 note=46 velocity=38 time=0.021739124999999998
EXTRACT: note_on channel=6 note=77 velocity=100 time=0
EXTRACT: note_off channel=9 note=46 velocity=64 time=0.10869562499999999
EXTRACT: note_off channel=5 note=65 velocity=64 time=0
EXTRACT: note_off channel=6 note=77 velocity=64 time=0
EXTRACT: note_on channel=9 note=46 velocity=38 time=0.021739124999999998
EXTRACT: note_on channel=5 note=62 velocity=100 time=0
EXTRACT: note_on channel=6 note=79 velocity=100 time=0
EXTRACT: note_off channel=9 note=46 velocity=64 time=0.10869562499999999
EXTRACT: note_on channel=9 note=46 velocity=38 time=0.021739124999999998
EXTRACT: note_off channel=9 note=46 velocity=64 time=0.10869562499999999
EXTRACT: note_off channel=5 note=62 velocity=64 time=0
EXTRACT: note_on channel=9 note=45 velocity=98 time=0.021739124999999998
EXTRACT: note_on channel=9 note=46 velocity=38 time=0
EXTRACT: note_on channel=5 note=65 velocity=100 time=0
EXTRACT: note_off channel=9 note=45 velocity=64 time=0.10869562499999999
EXTRACT: note_off channel=9 note=46 velocity=64 time=0
EXTRACT: note_on channel=9 note=46 velocity=38 time=0.021739124999999998
EXTRACT: note_off channel=9 note=46 velocity=64 time=0.10869562499999999
EXTRACT: note_off channel=5 note=65 velocity=64 time=0
EXTRACT: note_off channel=6 note=79 velocity=64 time=0
EXTRACT: note_on channel=9 note=46 velocity=38 time=0.021739124999999998
EXTRACT: note_on channel=5 note=62 velocity=100 time=0
EXTRACT: note_on channel=6 note=79 velocity=100 time=0
EXTRACT: note_off channel=9 note=46 velocity=64 time=0.10869562499999999
EXTRACT: note_on channel=9 note=46 velocity=38 time=0.021739124999999998
EXTRACT: note_off channel=9 note=46 velocity=64 time=0.10869562499999999
EXTRACT: note_off channel=5 note=62 velocity=64 time=0
EXTRACT: note_off channel=6 note=79 velocity=64 time=0
EXTRACT: note_on channel=9 note=45 velocity=95 time=0.021739124999999998
EXTRACT: note_on channel=9 note=46 velocity=38 time=0
EXTRACT: note_on channel=5 note=57 velocity=100 time=0
EXTRACT: note_on channel=6 note=77 velocity=100 time=0
EXTRACT: note_off channel=9 note=45 velocity=64 time=0.10869562499999999
EXTRACT: note_off channel=9 note=46 velocity=64 time=0
EXTRACT: note_on channel=9 note=46 velocity=38 time=0.021739124999999998
EXTRACT: note_off channel=9 note=46 velocity=64 time=0.10869562499999999
EXTRACT: note_off channel=5 note=57 velocity=64 time=0
EXTRACT: note_off channel=6 note=77 velocity=64 time=0
EXTRACT: note_on channel=9 note=46 velocity=38 time=0.021739124999999998
EXTRACT: note_on channel=5 note=65 velocity=100 time=0
EXTRACT: note_on channel=6 note=77 velocity=100 time=0
EXTRACT: note_off channel=9 note=46 velocity=64 time=0.10869562499999999
EXTRACT: note_on channel=9 note=46 velocity=38 time=0.021739124999999998
EXTRACT: note_off channel=9 note=46 velocity=64 time=0.10869562499999999
EXTRACT: note_off channel=5 note=65 velocity=64 time=0
EXTRACT: note_off channel=6 note=77 velocity=64 time=0
EXTRACT: note_on channel=9 note=45 velocity=98 time=0.021739124999999998
EXTRACT: note_on channel=9 note=46 velocity=38 time=0
EXTRACT: note_on channel=5 note=62 velocity=100 time=0
EXTRACT: note_on channel=6 note=76 velocity=100 time=0
EXTRACT: note_off channel=9 note=45 velocity=64 time=0.10869562499999999
EXTRACT: note_off channel=9 note=46 velocity=64 time=0
EXTRACT: note_on channel=9 note=46 velocity=38 time=0.021739124999999998
EXTRACT: note_off channel=9 note=46 velocity=64 time=0.10869562499999999
EXTRACT: note_off channel=5 note=62 velocity=64 time=0
EXTRACT: note_on channel=9 note=46 velocity=38 time=0.021739124999999998
EXTRACT: note_on channel=5 note=57 velocity=100 time=0
EXTRACT: note_off channel=9 note=46 velocity=64 time=0.10869562499999999
EXTRACT: note_on channel=9 note=46 velocity=38 time=0.021739124999999998
EXTRACT: note_off channel=9 note=46 velocity=64 time=0.10869562499999999
EXTRACT: note_off channel=5 note=57 velocity=64 time=0
EXTRACT: note_off channel=6 note=76 velocity=64 time=0
EXTRACT: note_on channel=9 note=45 velocity=95 time=0.021739124999999998
EXTRACT: note_on channel=9 note=46 velocity=38 time=0
EXTRACT: note_on channel=5 note=65 velocity=100 time=0
EXTRACT: note_on channel=6 note=74 velocity=100 time=0
EXTRACT: note_off channel=9 note=45 velocity=64 time=0.10869562499999999
EXTRACT: note_off channel=9 note=46 velocity=64 time=0
EXTRACT: note_on channel=9 note=46 velocity=38 time=0.021739124999999998
EXTRACT: note_off channel=9 note=46 velocity=64 time=0.10869562499999999
EXTRACT: note_off channel=5 note=65 velocity=64 time=0
EXTRACT: note_off channel=6 note=74 velocity=64 time=0
EXTRACT: note_on channel=9 note=46 velocity=38 time=0.021739124999999998
EXTRACT: note_on channel=5 note=67 velocity=100 time=0
EXTRACT: note_on channel=6 note=79 velocity=100 time=0
EXTRACT: note_off channel=9 note=46 velocity=64 time=0.10869562499999999
EXTRACT: note_on channel=9 note=46 velocity=38 time=0.021739124999999998
EXTRACT: note_off channel=9 note=46 velocity=64 time=0.10869562499999999
EXTRACT: note_off channel=4 note=50 velocity=64 time=0
EXTRACT: note_off channel=4 note=57 velocity=64 time=0
EXTRACT: note_off channel=5 note=67 velocity=64 time=0
EXTRACT: note_on channel=9 note=45 velocity=98 time=0.021739124999999998
EXTRACT: note_on channel=9 note=46 velocity=34 time=0
EXTRACT: note_on channel=4 note=57 velocity=100 time=0
EXTRACT: note_on channel=4 note=52 velocity=100 time=0
EXTRACT: note_on channel=5 note=64 velocity=100 time=0
EXTRACT: note_off channel=9 note=45 velocity=64 time=0.10869562499999999
EXTRACT: note_off channel=9 note=46 velocity=64 time=0
EXTRACT: note_on channel=9 note=46 velocity=38 time=0.021739124999999998
EXTRACT: note_off channel=9 note=46 velocity=64 time=0.10869562499999999
EXTRACT: note_off channel=5 note=64 velocity=64 time=0
EXTRACT: note_off channel=6 note=79 velocity=64 time=0
EXTRACT: note_on channel=9 note=46 velocity=38 time=0.021739124999999998
EXTRACT: note_on channel=5 note=60 velocity=100 time=0
EXTRACT: note_on channel=6 note=79 velocity=100 time=0
EXTRACT: note_off channel=9 note=46 velocity=64 time=0.10869562499999999
EXTRACT: note_on channel=9 note=46 velocity=36 time=0.021739124999999998
EXTRACT: note_off channel=9 note=46 velocity=64 time=0.10869562499999999
EXTRACT: note_off channel=5 note=60 velocity=64 time=0
EXTRACT: note_off channel=6 note=79 velocity=64 time=0
EXTRACT: note_on channel=9 note=45 velocity=95 time=0.021739124999999998
EXTRACT: note_on channel=9 note=46 velocity=38 time=0
EXTRACT: note_on channel=5 note=57 velocity=100 time=0
EXTRACT: note_on channel=6 note=77 velocity=100 time=0
EXTRACT: note_off channel=9 note=45 velocity=64 time=0.10869562499999999
EXTRACT: note_off channel=9 note=46 velocity=64 time=0
EXTRACT: note_on channel=9 note=46 velocity=36 time=0.021739124999999998
EXTRACT: note_off channel=9 note=46 velocity=64 time=0.10869562499999999
EXTRACT: note_off channel=5 note=57 velocity=64 time=0
EXTRACT: note_off channel=6 note=77 velocity=64 time=0
EXTRACT: note_on channel=9 note=46 velocity=38 time=0.021739124999999998
EXTRACT: note_on channel=5 note=64 velocity=100 time=0
EXTRACT: note_on channel=6 note=77 velocity=100 time=0
EXTRACT: note_off channel=9 note=46 velocity=64 time=0.10869562499999999
EXTRACT: note_on channel=9 note=46 velocity=36 time=0.021739124999999998
EXTRACT: note_off channel=9 note=46 velocity=64 time=0.10869562499999999
EXTRACT: note_off channel=5 note=64 velocity=64 time=0
EXTRACT: note_off channel=6 note=77 velocity=64 time=0
EXTRACT: note_on channel=9 note=45 velocity=98 time=0.021739124999999998
EXTRACT: note_on channel=9 note=46 velocity=38 time=0
EXTRACT: note_on channel=5 note=60 velocity=100 time=0
EXTRACT: note_on channel=6 note=76 velocity=100 time=0
EXTRACT: note_off channel=9 note=45 velocity=64 time=0.10869562499999999
EXTRACT: note_off channel=9 note=46 velocity=64 time=0
EXTRACT: note_on channel=9 note=46 velocity=36 time=0.021739124999999998
EXTRACT: note_off channel=9 note=46 velocity=64 time=0.10869562499999999
EXTRACT: note_off channel=5 note=60 velocity=64 time=0
EXTRACT: note_on channel=9 note=46 velocity=36 time=0.021739124999999998
EXTRACT: note_on channel=5 note=57 velocity=100 time=0
EXTRACT: note_off channel=9 note=46 velocity=64 time=0.10869562499999999
EXTRACT: note_on channel=9 note=46 velocity=38 time=0.021739124999999998
EXTRACT: note_off channel=9 note=46 velocity=64 time=0.10869562499999999
EXTRACT: note_off channel=5 note=57 velocity=64 time=0
EXTRACT: note_off channel=6 note=76 velocity=64 time=0
EXTRACT: note_on channel=9 note=45 velocity=95 time=0.021739124999999998
EXTRACT: note_on channel=9 note=46 velocity=38 time=0
EXTRACT: note_on channel=5 note=64 velocity=100 time=0
EXTRACT: note_on channel=6 note=74 velocity=100 time=0
EXTRACT: note_off channel=9 note=45 velocity=64 time=0.10869562499999999
EXTRACT: note_off channel=9 note=46 velocity=64 time=0
EXTRACT: note_on channel=9 note=46 velocity=38 time=0.021739124999999998
EXTRACT: note_off channel=9 note=46 velocity=64 time=0.10869562499999999
EXTRACT: note_off channel=5 note=64 velocity=64 time=0
EXTRACT: note_off channel=6 note=74 velocity=64 time=0
EXTRACT: note_on channel=9 note=46 velocity=38 time=0.021739124999999998
EXTRACT: note_on channel=5 note=60 velocity=100 time=0
EXTRACT: note_on channel=6 note=69 velocity=100 time=0
EXTRACT: note_off channel=9 note=46 velocity=64 time=0.10869562499999999
EXTRACT: note_on channel=9 note=46 velocity=38 time=0.021739124999999998
EXTRACT: note_off channel=9 note=46 velocity=64 time=0.10869562499999999
EXTRACT: note_off channel=5 note=60 velocity=64 time=0
EXTRACT: note_on channel=9 note=45 velocity=98 time=0.021739124999999998
EXTRACT: note_on channel=9 note=46 velocity=34 time=0
EXTRACT: note_on channel=5 note=64 velocity=100 time=0
EXTRACT: note_off channel=9 note=45 velocity=64 time=0.10869562499999999
EXTRACT: note_off channel=9 note=46 velocity=64 time=0
EXTRACT: note_on channel=9 note=46 velocity=38 time=0.021739124999999998
EXTRACT: note_off channel=9 note=46 velocity=64 time=0.10869562499999999
EXTRACT: note_off channel=5 note=64 velocity=64 time=0
EXTRACT: note_on channel=9 note=46 velocity=38 time=0.021739124999999998
EXTRACT: note_on channel=5 note=60 velocity=100 time=0
EXTRACT: note_off channel=9 note=46 velocity=64 time=0.10869562499999999
EXTRACT: note_on channel=9 note=46 velocity=38 time=0.021739124999999998
EXTRACT: note_off channel=9 note=46 velocity=64 time=0.10869562499999999
EXTRACT: note_off channel=5 note=60 velocity=64 time=0
EXTRACT: note_on channel=9 note=45 velocity=95 time=0.021739124999999998
EXTRACT: note_on channel=9 note=46 velocity=38 time=0
EXTRACT: note_on channel=5 note=57 velocity=100 time=0
EXTRACT: note_off channel=9 note=45 velocity=64 time=0.10869562499999999
EXTRACT: note_off channel=9 note=46 velocity=64 time=0
EXTRACT: note_on channel=9 note=46 velocity=38 time=0.021739124999999998
EXTRACT: note_off channel=9 note=46 velocity=64 time=0.10869562499999999
EXTRACT: note_off channel=5 note=57 velocity=64 time=0
EXTRACT: note_on channel=9 note=46 velocity=36 time=0.021739124999999998
EXTRACT: note_on channel=5 note=64 velocity=100 time=0
EXTRACT: note_off channel=9 note=46 velocity=64 time=0.10869562499999999
EXTRACT: note_on channel=9 note=46 velocity=36 time=0.021739124999999998
EXTRACT: note_off channel=9 note=46 velocity=64 time=0.10869562499999999
EXTRACT: note_off channel=5 note=64 velocity=64 time=0
EXTRACT: note_off channel=6 note=69 velocity=64 time=0
EXTRACT: note_on channel=9 note=45 velocity=98 time=0.021739124999999998
EXTRACT: note_on channel=9 note=46 velocity=36 time=0
EXTRACT: note_on channel=5 note=60 velocity=100 time=0
EXTRACT: note_off channel=9 note=45 velocity=64 time=0.10869562499999999
EXTRACT: note_off channel=9 note=46 velocity=64 time=0
EXTRACT: note_on channel=9 note=46 velocity=36 time=0.021739124999999998
EXTRACT: note_off channel=9 note=46 velocity=64 time=0.10869562499999999
EXTRACT: note_off channel=5 note=60 velocity=64 time=0
EXTRACT: note_on channel=9 note=46 velocity=33 time=0.021739124999999998
EXTRACT: note_on channel=5 note=57 velocity=100 time=0
EXTRACT: note_on channel=6 note=69 velocity=100 time=0
EXTRACT: note_off channel=9 note=46 velocity=64 time=0.10869562499999999
EXTRACT: note_on channel=9 note=46 velocity=36 time=0.021739124999999998
EXTRACT: note_off channel=9 note=46 velocity=64 time=0.10869562499999999
EXTRACT: note_off channel=5 note=57 velocity=64 time=0
EXTRACT: note_off channel=6 note=69 velocity=64 time=0
EXTRACT: note_on channel=9 note=45 velocity=95 time=0.021739124999999998
EXTRACT: note_on channel=9 note=46 velocity=36 time=0
EXTRACT: note_on channel=5 note=64 velocity=100 time=0
EXTRACT: note_off channel=9 note=45 velocity=64 time=0.10869562499999999
EXTRACT: note_off channel=9 note=46 velocity=64 time=0
EXTRACT: note_on channel=9 note=46 velocity=36 time=0.021739124999999998
EXTRACT: note_off channel=9 note=46 velocity=64 time=0.10869562499999999
EXTRACT: note_off channel=5 note=64 velocity=64 time=0
EXTRACT: note_on channel=9 note=46 velocity=36 time=0.021739124999999998
EXTRACT: note_on channel=5 note=60 velocity=100 time=0
EXTRACT: note_on channel=6 note=81 velocity=100 time=0
EXTRACT: note_off channel=9 note=46 velocity=64 time=0.10869562499999999
EXTRACT: note_on channel=9 note=46 velocity=36 time=0.021739124999999998
EXTRACT: note_off channel=9 note=46 velocity=64 time=0.10869562499999999
EXTRACT: note_off channel=4 note=52 velocity=64 time=0
EXTRACT: note_off channel=4 note=57 velocity=64 time=0
EXTRACT: note_off channel=5 note=60 velocity=64 time=0
EXTRACT: note_on channel=9 note=45 velocity=98 time=0.021739124999999998
EXTRACT: note_on channel=9 note=46 velocity=33 time=0
EXTRACT: note_on channel=4 note=50 velocity=100 time=0
EXTRACT: note_on channel=4 note=57 velocity=100 time=0
EXTRACT: note_on channel=5 note=65 velocity=100 time=0
EXTRACT: note_off channel=9 note=45 velocity=64 time=0.10869562499999999
EXTRACT: note_off channel=9 note=46 velocity=64 time=0
EXTRACT: note_on channel=9 note=46 velocity=36 time=0.021739124999999998
EXTRACT: note_off channel=9 note=46 velocity=64 time=0.10869562499999999
EXTRACT: note_off channel=5 note=65 velocity=64 time=0
EXTRACT: note_off channel=6 note=81 velocity=64 time=0
EXTRACT: note_on channel=9 note=46 velocity=36 time=0.021739124999999998
EXTRACT: note_on channel=5 note=62 velocity=100 time=0
EXTRACT: note_on channel=6 note=81 velocity=100 time=0
EXTRACT: note_off channel=9 note=46 velocity=64 time=0.10869562499999999
EXTRACT: note_on channel=9 note=46 velocity=36 time=0.021739124999999998
EXTRACT: note_off channel=9 note=46 velocity=64 time=0.10869562499999999
EXTRACT: note_off channel=5 note=62 velocity=64 time=0
EXTRACT: note_off channel=6 note=81 velocity=64 time=0
EXTRACT: note_on channel=9 note=45 velocity=95 time=0.021739124999999998
EXTRACT: note_on channel=9 note=46 velocity=36 time=0
EXTRACT: note_on channel=5 note=57 velocity=100 time=0
EXTRACT: note_on channel=6 note=79 velocity=100 time=0
EXTRACT: note_off channel=9 note=45 velocity=64 time=0.10869562499999999
EXTRACT: note_off channel=9 note=46 velocity=64 time=0
EXTRACT: note_on channel=9 note=46 velocity=36 time=0.021739124999999998
EXTRACT: note_off channel=9 note=46 velocity=64 time=0.10869562499999999
EXTRACT: note_off channel=5 note=57 velocity=64 time=0
EXTRACT: note_off channel=6 note=79 velocity=64 time=0
EXTRACT: note_on channel=9 note=46 velocity=33 time=0.021739124999999998
EXTRACT: note_on channel=5 note=65 velocity=100 time=0
EXTRACT: note_on channel=6 note=79 velocity=100 time=0
EXTRACT: note_off channel=9 note=46 velocity=64 time=0.10869562499999999
EXTRACT: note_on channel=9 note=46 velocity=36 time=0.021739124999999998
EXTRACT: note_off channel=9 note=46 velocity=64 time=0.10869562499999999
EXTRACT: note_off channel=5 note=65 velocity=64 time=0
EXTRACT: note_off channel=6 note=79 velocity=64 time=0
EXTRACT: note_on channel=9 note=45 velocity=98 time=0.021739124999999998
EXTRACT: note_on channel=9 note=46 velocity=36 time=0
EXTRACT: note_on channel=5 note=62 velocity=100 time=0
EXTRACT: note_on channel=6 note=77 velocity=100 time=0
EXTRACT: note_off channel=9 note=45 velocity=64 time=0.10869562499999999
EXTRACT: note_off channel=9 note=46 velocity=64 time=0
EXTRACT: note_on channel=9 note=46 velocity=36 time=0.021739124999999998
EXTRACT: note_off channel=9 note=46 velocity=64 time=0.10869562499999999
EXTRACT: note_off channel=5 note=62 velocity=64 time=0
EXTRACT: note_on channel=9 note=46 velocity=36 time=0.021739124999999998
EXTRACT: note_on channel=5 note=57 velocity=100 time=0
EXTRACT: note_off channel=9 note=46 velocity=64 time=0.10869562499999999
EXTRACT: note_on channel=9 note=46 velocity=36 time=0.021739124999999998
EXTRACT: note_off channel=9 note=46 velocity=64 time=0.10869562499999999
EXTRACT: note_off channel=5 note=57 velocity=64 time=0
EXTRACT: note_off channel=6 note=77 velocity=64 time=0
EXTRACT: note_on channel=9 note=45 velocity=95 time=0.021739124999999998
EXTRACT: note_on channel=9 note=46 velocity=36 time=0
EXTRACT: note_on channel=5 note=65 velocity=100 time=0
EXTRACT: note_on channel=6 note=76 velocity=100 time=0
EXTRACT: note_off channel=9 note=45 velocity=64 time=0.10869562499999999
EXTRACT: note_off channel=9 note=46 velocity=64 time=0
EXTRACT: note_on channel=9 note=46 velocity=36 time=0.021739124999999998
EXTRACT: note_off channel=9 note=46 velocity=64 time=0.10869562499999999
EXTRACT: note_off channel=5 note=65 velocity=64 time=0
EXTRACT: note_off channel=6 note=76 velocity=64 time=0
EXTRACT: note_on channel=9 note=46 velocity=36 time=0.021739124999999998
EXTRACT: note_on channel=5 note=62 velocity=100 time=0
EXTRACT: note_on channel=6 note=79 velocity=100 time=0
EXTRACT: note_off channel=9 note=46 velocity=64 time=0.10869562499999999
EXTRACT: note_on channel=9 note=46 velocity=36 time=0.021739124999999998
EXTRACT: note_off channel=9 note=46 velocity=64 time=0.10869562499999999
EXTRACT: note_off channel=5 note=62 velocity=64 time=0
EXTRACT: note_on channel=9 note=45 velocity=98 time=0.021739124999999998
EXTRACT: note_on channel=9 note=46 velocity=36 time=0
EXTRACT: note_on channel=5 note=65 velocity=100 time=0
EXTRACT: note_off channel=9 note=45 velocity=64 time=0.10869562499999999
EXTRACT: note_off channel=9 note=46 velocity=64 time=0
EXTRACT: note_on channel=9 note=46 velocity=36 time=0.021739124999999998
EXTRACT: note_off channel=9 note=46 velocity=64 time=0.10869562499999999
EXTRACT: note_off channel=5 note=65 velocity=64 time=0
EXTRACT: note_off channel=6 note=79 velocity=64 time=0
EXTRACT: note_on channel=9 note=46 velocity=36 time=0.021739124999999998
EXTRACT: note_on channel=5 note=62 velocity=100 time=0
EXTRACT: note_on channel=6 note=79 velocity=100 time=0
EXTRACT: note_off channel=9 note=46 velocity=64 time=0.10869562499999999
EXTRACT: note_on channel=9 note=46 velocity=36 time=0.021739124999999998
EXTRACT: note_off channel=9 note=46 velocity=64 time=0.10869562499999999
EXTRACT: note_off channel=5 note=62 velocity=64 time=0
EXTRACT: note_off channel=6 note=79 velocity=64 time=0
EXTRACT: note_on channel=9 note=45 velocity=95 time=0.021739124999999998
EXTRACT: note_on channel=9 note=46 velocity=36 time=0
EXTRACT: note_on channel=5 note=57 velocity=100 time=0
EXTRACT: note_on channel=6 note=77 velocity=100 time=0
EXTRACT: note_off channel=9 note=45 velocity=64 time=0.10869562499999999
EXTRACT: note_off channel=9 note=46 velocity=64 time=0
EXTRACT: note_on channel=9 note=46 velocity=36 time=0.021739124999999998
EXTRACT: note_off channel=9 note=46 velocity=64 time=0.10869562499999999
EXTRACT: note_off channel=5 note=57 velocity=64 time=0
EXTRACT: note_off channel=6 note=77 velocity=64 time=0
EXTRACT: note_on channel=9 note=46 velocity=36 time=0.021739124999999998
EXTRACT: note_on channel=5 note=65 velocity=100 time=0
EXTRACT: note_on channel=6 note=77 velocity=100 time=0
EXTRACT: note_off channel=9 note=46 velocity=64 time=0.10869562499999999
EXTRACT: note_on channel=9 note=46 velocity=35 time=0.021739124999999998
EXTRACT: note_off channel=9 note=46 velocity=64 time=0.10869562499999999
EXTRACT: note_off channel=5 note=65 velocity=64 time=0
EXTRACT: note_off channel=6 note=77 velocity=64 time=0
EXTRACT: note_on channel=9 note=45 velocity=98 time=0.021739124999999998
EXTRACT: note_on channel=9 note=46 velocity=35 time=0
EXTRACT: note_on channel=5 note=62 velocity=100 time=0
EXTRACT: note_on channel=6 note=76 velocity=100 time=0
EXTRACT: note_off channel=9 note=45 velocity=64 time=0.10869562499999999
EXTRACT: note_off channel=9 note=46 velocity=64 time=0
EXTRACT: note_on channel=9 note=46 velocity=35 time=0.021739124999999998
EXTRACT: note_off channel=9 note=46 velocity=64 time=0.10869562499999999
EXTRACT: note_off channel=5 note=62 velocity=64 time=0
EXTRACT: note_on channel=9 note=46 velocity=35 time=0.021739124999999998
EXTRACT: note_on channel=5 note=57 velocity=100 time=0
EXTRACT: note_off channel=9 note=46 velocity=64 time=0.10869562499999999
EXTRACT: note_on channel=9 note=46 velocity=35 time=0.021739124999999998
EXTRACT: note_off channel=9 note=46 velocity=64 time=0.10869562499999999
EXTRACT: note_off channel=5 note=57 velocity=64 time=0
EXTRACT: note_off channel=6 note=76 velocity=64 time=0
EXTRACT: note_on channel=9 note=45 velocity=95 time=0.021739124999999998
EXTRACT: note_on channel=9 note=46 velocity=34 time=0
EXTRACT: note_on channel=5 note=65 velocity=100 time=0
EXTRACT: note_on channel=6 note=74 velocity=100 time=0
EXTRACT: note_off channel=9 note=45 velocity=64 time=0.10869562499999999
EXTRACT: note_off channel=9 note=46 velocity=64 time=0
EXTRACT: note_on channel=9 note=46 velocity=33 time=0.021739124999999998
EXTRACT: note_off channel=9 note=46 velocity=64 time=0.10869562499999999
EXTRACT: note_off channel=5 note=65 velocity=64 time=0
EXTRACT: note_off channel=6 note=74 velocity=64 time=0
EXTRACT: note_on channel=9 note=46 velocity=34 time=0.021739124999999998
EXTRACT: note_on channel=5 note=62 velocity=100 time=0
EXTRACT: note_on channel=6 note=74 velocity=100 time=0
EXTRACT: note_off channel=9 note=46 velocity=64 time=0.10869562499999999
EXTRACT: note_on channel=9 note=46 velocity=34 time=0.021739124999999998
EXTRACT: note_off channel=9 note=46 velocity=64 time=0.10869562499999999
EXTRACT: note_off channel=4 note=57 velocity=64 time=0
EXTRACT: note_off channel=4 note=50 velocity=64 time=0
EXTRACT: note_off channel=5 note=62 velocity=64 time=0
EXTRACT: note_on channel=9 note=45 velocity=98 time=0.021739124999999998
EXTRACT: note_on channel=9 note=46 velocity=33 time=0
EXTRACT: note_on channel=4 note=46 velocity=100 time=0
EXTRACT: note_on channel=5 note=65 velocity=100 time=0
EXTRACT: note_off channel=9 note=45 velocity=64 time=0.10869562499999999
EXTRACT: note_off channel=9 note=46 velocity=64 time=0
EXTRACT: note_on channel=9 note=46 velocity=33 time=0.021739124999999998
EXTRACT: note_off channel=9 note=46 velocity=64 time=0.10869562499999999
EXTRACT: note_off channel=5 note=65 velocity=64 time=0
EXTRACT: note_off channel=6 note=74 velocity=64 time=0
EXTRACT: note_on channel=9 note=46 velocity=33 time=0.021739124999999998
EXTRACT: note_on channel=5 note=62 velocity=100 time=0
EXTRACT: note_on channel=6 note=77 velocity=100 time=0
EXTRACT: note_off channel=9 note=46 velocity=64 time=0.10869562499999999
EXTRACT: note_off channel=6 note=77 velocity=64 time=0
EXTRACT: note_on channel=9 note=46 velocity=33 time=0.021739124999999998
EXTRACT: note_off channel=9 note=46 velocity=64 time=0.10869562499999999
EXTRACT: note_off channel=5 note=62 velocity=64 time=0
EXTRACT: note_on channel=9 note=45 velocity=95 time=0.021739124999999998
EXTRACT: note_on channel=9 note=46 velocity=33 time=0
EXTRACT: note_on channel=5 note=58 velocity=100 time=0
EXTRACT: note_on channel=6 note=79 velocity=100 time=0
EXTRACT: note_off channel=9 note=45 velocity=64 time=0.10869562499999999
EXTRACT: note_off channel=9 note=46 velocity=64 time=0
EXTRACT: note_on channel=9 note=46 velocity=33 time=0.021739124999999998
EXTRACT: note_off channel=9 note=46 velocity=64 time=0.10869562499999999
EXTRACT: note_off channel=5 note=58 velocity=64 time=0
EXTRACT: note_off channel=6 note=79 velocity=64 time=0
EXTRACT: note_on channel=9 note=46 velocity=33 time=0.021739124999999998
EXTRACT: note_on channel=5 note=65 velocity=100 time=0
EXTRACT: note_on channel=6 note=79 velocity=100 time=0
EXTRACT: note_off channel=9 note=46 velocity=64 time=0.10869562499999999
EXTRACT: note_on channel=9 note=46 velocity=33 time=0.021739124999999998
EXTRACT: note_off channel=9 note=46 velocity=64 time=0.10869562499999999
EXTRACT: note_off channel=5 note=65 velocity=64 time=0
EXTRACT: note_off channel=6 note=79 velocity=64 time=0
EXTRACT: note_on channel=9 note=45 velocity=98 time=0.021739124999999998
EXTRACT: note_on channel=9 note=46 velocity=33 time=0
EXTRACT: note_on channel=5 note=62 velocity=100 time=0
EXTRACT: note_on channel=6 note=79 velocity=100 time=0
EXTRACT: note_off channel=9 note=45 velocity=64 time=0.10869562499999999
EXTRACT: note_off channel=9 note=46 velocity=64 time=0
EXTRACT: note_on channel=9 note=46 velocity=33 time=0.021739124999999998
EXTRACT: note_off channel=9 note=46 velocity=64 time=0.10869562499999999
EXTRACT: note_off channel=5 note=62 velocity=64 time=0
EXTRACT: note_off channel=6 note=79 velocity=64 time=0
EXTRACT: note_on channel=9 note=46 velocity=33 time=0.021739124999999998
EXTRACT: note_on channel=5 note=58 velocity=100 time=0
EXTRACT: note_on channel=6 note=79 velocity=100 time=0
EXTRACT: note_off channel=9 note=46 velocity=64 time=0.10869562499999999
EXTRACT: note_on channel=9 note=46 velocity=33 time=0.021739124999999998
EXTRACT: note_off channel=9 note=46 velocity=64 time=0.10869562499999999
EXTRACT: note_off channel=5 note=58 velocity=64 time=0
EXTRACT: note_off channel=6 note=79 velocity=64 time=0
EXTRACT: note_on channel=9 note=45 velocity=95 time=0.021739124999999998
EXTRACT: note_on channel=9 note=46 velocity=33 time=0
EXTRACT: note_on channel=5 note=65 velocity=100 time=0
EXTRACT: note_on channel=6 note=77 velocity=100 time=0
EXTRACT: note_off channel=9 note=45 velocity=64 time=0.10869562499999999
EXTRACT: note_off channel=9 note=46 velocity=64 time=0
EXTRACT: note_on channel=9 note=46 velocity=33 time=0.021739124999999998
EXTRACT: note_off channel=9 note=46 velocity=64 time=0.10869562499999999
EXTRACT: note_off channel=5 note=65 velocity=64 time=0
EXTRACT: note_off channel=6 note=77 velocity=64 time=0
EXTRACT: note_on channel=9 note=46 velocity=33 time=0.021739124999999998
EXTRACT: note_on channel=5 note=62 velocity=100 time=0
EXTRACT: note_on channel=6 note=81 velocity=100 time=0
EXTRACT: note_off channel=9 note=46 velocity=64 time=0.10869562499999999
EXTRACT: note_on channel=9 note=46 velocity=33 time=0.021739124999999998
EXTRACT: note_off channel=9 note=46 velocity=64 time=0.10869562499999999
EXTRACT: note_off channel=4 note=46 velocity=64 time=0
EXTRACT: note_off channel=5 note=62 velocity=64 time=0
EXTRACT: note_off channel=6 note=81 velocity=64 time=0
EXTRACT: note_on channel=9 note=45 velocity=98 time=0.021739124999999998
EXTRACT: note_on channel=9 note=46 velocity=33 time=0
EXTRACT: note_on channel=4 note=50 velocity=100 time=0
EXTRACT: note_on channel=4 note=55 velocity=100 time=0
EXTRACT: note_on channel=5 note=65 velocity=100 time=0
EXTRACT: note_off channel=9 note=45 velocity=64 time=0.10869562499999999
EXTRACT: note_off channel=9 note=46 velocity=64 time=0
EXTRACT: note_off channel=4 note=50 velocity=64 time=0.13043475
EXTRACT: note_off channel=4 note=55 velocity=64 time=0
EXTRACT: note_off channel=5 note=65 velocity=64 time=0
EXTRACT: note_on channel=5 note=65 velocity=100 time=0.28260862499999995
EXTRACT: note_on channel=5 note=62 velocity=100 time=0
EXTRACT: note_on channel=6 note=81 velocity=100 time=0
EXTRACT: note_off channel=5 note=65 velocity=64 time=0.23913037499999998
EXTRACT: note_off channel=5 note=62 velocity=64 time=0
EXTRACT: note_off channel=6 note=81 velocity=64 time=0.2608695
EXTRACT: note_on channel=6 note=79 velocity=100 time=0.021739124999999998
EXTRACT: note_off channel=6 note=79 velocity=64 time=0.23913037499999998
EXTRACT: note_on channel=6 note=77 velocity=100 time=0.021739124999999998
EXTRACT: note_off channel=6 note=77 velocity=64 time=0.23913037499999998
EXTRACT: note_on channel=6 note=79 velocity=100 time=0.021739124999999998
EXTRACT: note_off channel=6 note=79 velocity=64 time=0.23913037499999998
EXTRACT: note_on channel=1 note=62 velocity=100 time=0.28260862499999995
EXTRACT: note_on channel=1 note=69 velocity=100 time=0
EXTRACT: note_on channel=2 note=38 velocity=100 time=0
EXTRACT: note_on channel=9 note=45 velocity=98 time=0
EXTRACT: note_on channel=9 note=46 velocity=38 time=0
EXTRACT: note_on channel=4 note=50 velocity=100 time=0
EXTRACT: note_on channel=4 note=57 velocity=100 time=0
EXTRACT: note_on channel=5 note=50 velocity=100 time=0
EXTRACT: note_on channel=5 note=57 velocity=100 time=0
EXTRACT: note_on channel=6 note=81 velocity=100 time=0
EXTRACT: note_off channel=9 note=45 velocity=64 time=0.10869562499999999
EXTRACT: note_off channel=9 note=46 velocity=64 time=0
EXTRACT: note_on channel=9 note=46 velocity=38 time=0.021739124999999998
EXTRACT: note_off channel=2 note=38 velocity=64 time=0.10869562499999999
EXTRACT: note_off channel=9 note=46 velocity=64 time=0
EXTRACT: note_on channel=2 note=38 velocity=100 time=0.021739124999999998
EXTRACT: note_on channel=9 note=46 velocity=38 time=0
EXTRACT: note_off channel=9 note=46 velocity=64 time=0.10869562499999999
EXTRACT: note_on channel=9 note=46 velocity=38 time=0.021739124999999998
EXTRACT: note_off channel=2 note=38 velocity=64 time=0.10869562499999999
EXTRACT: note_off channel=9 note=46 velocity=64 time=0
EXTRACT: note_off channel=6 note=81 velocity=64 time=0
EXTRACT: note_on channel=2 note=38 velocity=100 time=0.021739124999999998
EXTRACT: note_on channel=9 note=45 velocity=95 time=0
EXTRACT: note_on channel=9 note=46 velocity=38 time=0
EXTRACT: note_on channel=6 note=77 velocity=100 time=0
EXTRACT: note_off channel=9 note=45 velocity=64 time=0.10869562499999999
EXTRACT: note_off channel=9 note=46 velocity=64 time=0
EXTRACT: note_on channel=9 note=46 velocity=38 time=0.021739124999999998
EXTRACT: note_off channel=2 note=38 velocity=64 time=0.10869562499999999
EXTRACT: note_off channel=9 note=46 velocity=64 time=0
EXTRACT: note_off channel=6 note=77 velocity=64 time=0
EXTRACT: note_on channel=2 note=38 velocity=100 time=0.021739124999999998
EXTRACT: note_on channel=9 note=46 velocity=38 time=0
EXTRACT: note_on channel=6 note=74 velocity=100 time=0
EXTRACT: note_off channel=9 note=46 velocity=64 time=0.10869562499999999
EXTRACT: note_on channel=9 note=46 velocity=38 time=0.021739124999999998
EXTRACT: note_off channel=1 note=62 velocity=64 time=0.10869562499999999
EXTRACT: note_off channel=1 note=69 velocity=64 time=0
EXTRACT: note_off channel=2 note=38 velocity=64 time=0
EXTRACT: note_off channel=9 note=46 velocity=64 time=0
EXTRACT: note_off channel=4 note=50 velocity=64 time=0
EXTRACT: note_off channel=4 note=57 velocity=64 time=0
EXTRACT: note_off channel=5 note=50 velocity=64 time=0
EXTRACT: note_off channel=5 note=57 velocity=64 time=0
EXTRACT: note_on channel=1 note=70 velocity=100 time=0.021739124999999998
EXTRACT: note_on channel=1 note=65 velocity=100 time=0
EXTRACT: note_on channel=2 note=34 velocity=100 time=0
EXTRACT: note_on channel=9 note=45 velocity=98 time=0
EXTRACT: note_on channel=9 note=46 velocity=38 time=0
EXTRACT: note_on channel=4 note=58 velocity=100 time=0
EXTRACT: note_on channel=4 note=53 velocity=100 time=0
EXTRACT: note_on channel=5 note=58 velocity=100 time=0
EXTRACT: note_on channel=5 note=53 velocity=100 time=0
EXTRACT: note_off channel=9 note=45 velocity=64 time=0.10869562499999999
EXTRACT: note_off channel=9 note=46 velocity=64 time=0
EXTRACT: note_on channel=9 note=46 velocity=38 time=0.021739124999999998
EXTRACT: note_off channel=2 note=34 velocity=64 time=0.10869562499999999
EXTRACT: note_off channel=9 note=46 velocity=64 time=0
EXTRACT: note_on channel=2 note=34 velocity=100 time=0.021739124999999998
EXTRACT: note_on channel=9 note=46 velocity=38 time=0
EXTRACT: note_off channel=9 note=46 velocity=64 time=0.10869562499999999
EXTRACT: note_on channel=9 note=46 velocity=38 time=0.021739124999999998
EXTRACT: note_off channel=2 note=34 velocity=64 time=0.10869562499999999
EXTRACT: note_off channel=9 note=46 velocity=64 time=0
EXTRACT: note_off channel=6 note=74 velocity=64 time=0
EXTRACT: note_on channel=2 note=34 velocity=100 time=0.021739124999999998
EXTRACT: note_on channel=9 note=45 velocity=95 time=0
EXTRACT: note_on channel=9 note=46 velocity=38 time=0
EXTRACT: note_off channel=9 note=45 velocity=64 time=0.10869562499999999
EXTRACT: note_off channel=9 note=46 velocity=64 time=0
EXTRACT: note_on channel=9 note=46 velocity=38 time=0.021739124999999998
EXTRACT: note_off channel=2 note=34 velocity=64 time=0.10869562499999999
EXTRACT: note_off channel=9 note=46 velocity=64 time=0
EXTRACT: note_on channel=2 note=34 velocity=100 time=0.021739124999999998
EXTRACT: note_on channel=9 note=46 velocity=38 time=0
EXTRACT: note_off channel=9 note=46 velocity=64 time=0.10869562499999999
EXTRACT: note_on channel=9 note=46 velocity=38 time=0.021739124999999998
EXTRACT: note_off channel=1 note=70 velocity=64 time=0.10869562499999999
EXTRACT: note_off channel=1 note=65 velocity=64 time=0
EXTRACT: note_off channel=2 note=34 velocity=64 time=0
EXTRACT: note_off channel=9 note=46 velocity=64 time=0
EXTRACT: note_off channel=4 note=58 velocity=64 time=0
EXTRACT: note_off channel=4 note=53 velocity=64 time=0
EXTRACT: note_off channel=5 note=58 velocity=64 time=0
EXTRACT: note_off channel=5 note=53 velocity=64 time=0
EXTRACT: note_on channel=1 note=69 velocity=100 time=0.021739124999999998
EXTRACT: note_on channel=1 note=65 velocity=100 time=0
EXTRACT: note_on channel=2 note=41 velocity=100 time=0
EXTRACT: note_on channel=9 note=45 velocity=98 time=0
EXTRACT: note_on channel=9 note=46 velocity=38 time=0
EXTRACT: note_on channel=4 note=57 velocity=100 time=0
EXTRACT: note_on channel=4 note=53 velocity=100 time=0
EXTRACT: note_on channel=5 note=57 velocity=100 time=0
EXTRACT: note_on channel=5 note=53 velocity=100 time=0
EXTRACT: note_off channel=9 note=45 velocity=64 time=0.10869562499999999
EXTRACT: note_off channel=9 note=46 velocity=64 time=0
EXTRACT: note_on channel=9 note=46 velocity=38 time=0.021739124999999998
EXTRACT: note_off channel=2 note=41 velocity=64 time=0.10869562499999999
EXTRACT: note_off channel=9 note=46 velocity=64 time=0
EXTRACT: note_on channel=2 note=41 velocity=100 time=0.021739124999999998
EXTRACT: note_on channel=9 note=46 velocity=38 time=0
EXTRACT: note_on channel=6 note=79 velocity=100 time=0
EXTRACT: note_off channel=9 note=46 velocity=64 time=0.10869562499999999
EXTRACT: note_on channel=9 note=46 velocity=38 time=0.021739124999999998
EXTRACT: note_off channel=2 note=41 velocity=64 time=0.10869562499999999
EXTRACT: note_off channel=9 note=46 velocity=64 time=0
EXTRACT: note_off channel=6 note=79 velocity=64 time=0
EXTRACT: note_on channel=2 note=41 velocity=100 time=0.021739124999999998
EXTRACT: note_on channel=9 note=45 velocity=95 time=0
EXTRACT: note_on channel=9 note=46 velocity=38 time=0
EXTRACT: note_on channel=6 note=79 velocity=100 time=0
EXTRACT: note_off channel=9 note=45 velocity=64 time=0.10869562499999999
EXTRACT: note_off channel=9 note=46 velocity=64 time=0
EXTRACT: note_on channel=9 note=46 velocity=38 time=0.021739124999999998
EXTRACT: note_off channel=1 note=65 velocity=64 time=0.10869562499999999
EXTRACT: note_off channel=1 note=69 velocity=64 time=0
EXTRACT: note_off channel=2 note=41 velocity=64 time=0
EXTRACT: note_off channel=9 note=46 velocity=64 time=0
EXTRACT: note_off channel=4 note=57 velocity=64 time=0
EXTRACT: note_off channel=4 note=53 velocity=64 time=0
EXTRACT: note_off channel=5 note=57 velocity=64 time=0
EXTRACT: note_off channel=5 note=53 velocity=64 time=0
EXTRACT: note_off channel=6 note=79 velocity=64 time=0
EXTRACT: note_on channel=1 note=67 velocity=100 time=0.021739124999999998
EXTRACT: note_on channel=1 note=62 velocity=100 time=0
EXTRACT: note_on channel=2 note=43 velocity=100 time=0
EXTRACT: note_on channel=9 note=46 velocity=38 time=0
EXTRACT: note_on channel=4 note=55 velocity=100 time=0
EXTRACT: note_on channel=4 note=50 velocity=100 time=0
EXTRACT: note_on channel=5 note=55 velocity=100 time=0
EXTRACT: note_on channel=5 note=50 velocity=100 time=0
EXTRACT: note_on channel=6 note=79 velocity=100 time=0
EXTRACT: note_off channel=9 note=46 velocity=64 time=0.10869562499999999
EXTRACT: note_on channel=9 note=46 velocity=38 time=0.021739124999999998
EXTRACT: note_off channel=2 note=43 velocity=64 time=0.10869562499999999
EXTRACT: note_off channel=9 note=46 velocity=64 time=0
EXTRACT: note_on channel=2 note=43 velocity=100 time=0.021739124999999998
EXTRACT: note_on channel=9 note=45 velocity=98 time=0
EXTRACT: note_on channel=9 note=46 velocity=38 time=0
EXTRACT: note_off channel=9 note=45 velocity=64 time=0.10869562499999999
EXTRACT: note_off channel=9 note=46 velocity=64 time=0
EXTRACT: note_on channel=9 note=46 velocity=38 time=0.021739124999999998
EXTRACT: note_off channel=2 note=43 velocity=64 time=0.10869562499999999
EXTRACT: note_off channel=9 note=46 velocity=64 time=0
EXTRACT: note_off channel=6 note=79 velocity=64 time=0
EXTRACT: note_on channel=2 note=41 velocity=100 time=0.021739124999999998
EXTRACT: note_on channel=9 note=46 velocity=38 time=0
EXTRACT: note_on channel=6 note=77 velocity=100 time=0
EXTRACT: note_off channel=9 note=46 velocity=64 time=0.10869562499999999
EXTRACT: note_on channel=9 note=46 velocity=38 time=0.021739124999999998
EXTRACT: note_off channel=2 note=41 velocity=64 time=0.10869562499999999
EXTRACT: note_off channel=9 note=46 velocity=64 time=0
EXTRACT: note_off channel=6 note=77 velocity=64 time=0
EXTRACT: note_on channel=2 note=43 velocity=100 time=0.021739124999999998
EXTRACT: note_on channel=9 note=45 velocity=95 time=0
EXTRACT: note_on channel=9 note=46 velocity=38 time=0
EXTRACT: note_on channel=6 note=79 velocity=100 time=0
EXTRACT: note_off channel=9 note=45 velocity=64 time=0.10869562499999999
EXTRACT: note_off channel=9 note=46 velocity=64 time=0
EXTRACT: note_on channel=9 note=46 velocity=38 time=0.021739124999999998
EXTRACT: note_off channel=2 note=43 velocity=64 time=0.10869562499999999
EXTRACT: note_off channel=9 note=46 velocity=64 time=0
EXTRACT: note_off channel=5 note=55 velocity=64 time=0
EXTRACT: note_off channel=5 note=50 velocity=64 time=0
EXTRACT: note_on channel=2 note=41 velocity=100 time=0.021739124999999998
EXTRACT: note_on channel=9 note=46 velocity=38 time=0
EXTRACT: note_off channel=9 note=46 velocity=64 time=0.10869562499999999
EXTRACT: note_on channel=9 note=46 velocity=38 time=0.021739124999999998
EXTRACT: note_off channel=1 note=67 velocity=64 time=0.10869562499999999
EXTRACT: note_off channel=1 note=62 velocity=64 time=0
EXTRACT: note_off channel=2 note=41 velocity=64 time=0
EXTRACT: note_off channel=9 note=46 velocity=64 time=0
EXTRACT: note_off channel=4 note=55 velocity=64 time=0
EXTRACT: note_off channel=4 note=50 velocity=64 time=0
EXTRACT: note_off channel=6 note=79 velocity=64 time=0
EXTRACT: note_on channel=1 note=62 velocity=100 time=0.021739124999999998
EXTRACT: note_on channel=1 note=69 velocity=100 time=0
EXTRACT: note_on channel=2 note=38 velocity=100 time=0
EXTRACT: note_on channel=9 note=45 velocity=98 time=0
EXTRACT: note_on channel=9 note=46 velocity=38 time=0
EXTRACT: note_on channel=4 note=50 velocity=100 time=0
EXTRACT: note_on channel=4 note=57 velocity=100 time=0
EXTRACT: note_on channel=5 note=50 velocity=100 time=0
EXTRACT: note_on channel=5 note=57 velocity=100 time=0
EXTRACT: note_on channel=6 note=81 velocity=100 time=0
EXTRACT: note_off channel=9 note=45 velocity=64 time=0.10869562499999999
EXTRACT: note_off channel=9 note=46 velocity=64 time=0
EXTRACT: note_on channel=9 note=46 velocity=33 time=0.021739124999999998
EXTRACT: note_off channel=2 note=38 velocity=64 time=0.10869562499999999
EXTRACT: note_off channel=9 note=46 velocity=64 time=0
EXTRACT: note_on channel=2 note=38 velocity=100 time=0.021739124999999998
EXTRACT: note_on channel=9 note=46 velocity=38 time=0
EXTRACT: note_off channel=9 note=46 velocity=64 time=0.10869562499999999
EXTRACT: note_on channel=9 note=46 velocity=38 time=0.021739124999999998
EXTRACT: note_off channel=2 note=38 velocity=64 time=0.10869562499999999
EXTRACT: note_off channel=9 note=46 velocity=64 time=0
EXTRACT: note_off channel=6 note=81 velocity=64 time=0
EXTRACT: note_on channel=2 note=38 velocity=100 time=0.021739124999999998
EXTRACT: note_on channel=9 note=45 velocity=95 time=0
EXTRACT: note_on channel=9 note=46 velocity=38 time=0
EXTRACT: note_on channel=6 note=77 velocity=100 time=0
EXTRACT: note_off channel=9 note=45 velocity=64 time=0.10869562499999999
EXTRACT: note_off channel=9 note=46 velocity=64 time=0
EXTRACT: note_on channel=9 note=46 velocity=38 time=0.021739124999999998
EXTRACT: note_off channel=2 note=38 velocity=64 time=0.10869562499999999
EXTRACT: note_off channel=9 note=46 velocity=64 time=0
EXTRACT: note_off channel=6 note=77 velocity=64 time=0
EXTRACT: note_on channel=2 note=38 velocity=100 time=0.021739124999999998
EXTRACT: note_on channel=9 note=46 velocity=38 time=0
EXTRACT: note_on channel=6 note=74 velocity=100 time=0
EXTRACT: note_off channel=9 note=46 velocity=64 time=0.10869562499999999
EXTRACT: note_on channel=9 note=46 velocity=38 time=0.021739124999999998
EXTRACT: note_off channel=1 note=62 velocity=64 time=0.10869562499999999
EXTRACT: note_off channel=1 note=69 velocity=64 time=0
EXTRACT: note_off channel=2 note=38 velocity=64 time=0
EXTRACT: note_off channel=9 note=46 velocity=64 time=0
EXTRACT: note_off channel=4 note=50 velocity=64 time=0
EXTRACT: note_off channel=4 note=57 velocity=64 time=0
EXTRACT: note_off channel=5 note=50 velocity=64 time=0
EXTRACT: note_off channel=5 note=57 velocity=64 time=0
EXTRACT: note_on channel=1 note=70 velocity=100 time=0.021739124999999998
EXTRACT: note_on channel=1 note=65 velocity=100 time=0
EXTRACT: note_on channel=2 note=34 velocity=100 time=0
EXTRACT: note_on channel=9 note=45 velocity=98 time=0
EXTRACT: note_on channel=9 note=46 velocity=38 time=0
EXTRACT: note_on channel=4 note=58 velocity=100 time=0
EXTRACT: note_on channel=4 note=53 velocity=100 time=0
EXTRACT: note_on channel=5 note=58 velocity=100 time=0
EXTRACT: note_on channel=5 note=53 velocity=100 time=0
EXTRACT: note_off channel=9 note=45 velocity=64 time=0.10869562499999999
EXTRACT: note_off channel=9 note=46 velocity=64 time=0
EXTRACT: note_on channel=9 note=46 velocity=38 time=0.021739124999999998
EXTRACT: note_off channel=2 note=34 velocity=64 time=0.10869562499999999
EXTRACT: note_off channel=9 note=46 velocity=64 time=0
EXTRACT: note_on channel=2 note=34 velocity=100 time=0.021739124999999998
EXTRACT: note_on channel=9 note=46 velocity=38 time=0
EXTRACT: note_off channel=9 note=46 velocity=64 time=0.10869562499999999
EXTRACT: note_on channel=9 note=46 velocity=38 time=0.021739124999999998
EXTRACT: note_off channel=2 note=34 velocity=64 time=0.10869562499999999
EXTRACT: note_off channel=9 note=46 velocity=64 time=0
EXTRACT: note_off channel=6 note=74 velocity=64 time=0
EXTRACT: note_on channel=2 note=34 velocity=100 time=0.021739124999999998
EXTRACT: note_on channel=9 note=45 velocity=95 time=0
EXTRACT: note_on channel=9 note=46 velocity=38 time=0
EXTRACT: note_off channel=9 note=45 velocity=64 time=0.10869562499999999
EXTRACT: note_off channel=9 note=46 velocity=64 time=0
EXTRACT: note_on channel=9 note=46 velocity=38 time=0.021739124999999998
EXTRACT: note_off channel=2 note=34 velocity=64 time=0.10869562499999999
EXTRACT: note_off channel=9 note=46 velocity=64 time=0
EXTRACT: note_on channel=2 note=34 velocity=100 time=0.021739124999999998
EXTRACT: note_on channel=9 note=46 velocity=38 time=0
EXTRACT: note_off channel=9 note=46 velocity=64 time=0.10869562499999999
EXTRACT: note_on channel=9 note=46 velocity=38 time=0.021739124999999998
EXTRACT: note_off channel=1 note=70 velocity=64 time=0.10869562499999999
EXTRACT: note_off channel=1 note=65 velocity=64 time=0
EXTRACT: note_off channel=2 note=34 velocity=64 time=0
EXTRACT: note_off channel=9 note=46 velocity=64 time=0
EXTRACT: note_off channel=4 note=58 velocity=64 time=0
EXTRACT: note_off channel=4 note=53 velocity=64 time=0
EXTRACT: note_off channel=5 note=58 velocity=64 time=0
EXTRACT: note_off channel=5 note=53 velocity=64 time=0
EXTRACT: note_on channel=1 note=69 velocity=100 time=0.021739124999999998
EXTRACT: note_on channel=1 note=65 velocity=100 time=0
EXTRACT: note_on channel=2 note=41 velocity=100 time=0
EXTRACT: note_on channel=9 note=45 velocity=98 time=0
EXTRACT: note_on channel=9 note=46 velocity=38 time=0
EXTRACT: note_on channel=4 note=57 velocity=100 time=0
EXTRACT: note_on channel=4 note=53 velocity=100 time=0
EXTRACT: note_on channel=5 note=57 velocity=100 time=0
EXTRACT: note_on channel=5 note=53 velocity=100 time=0
EXTRACT: note_off channel=9 note=45 velocity=64 time=0.10869562499999999
EXTRACT: note_off channel=9 note=46 velocity=64 time=0
EXTRACT: note_on channel=9 note=46 velocity=38 time=0.021739124999999998
EXTRACT: note_off channel=2 note=41 velocity=64 time=0.10869562499999999
EXTRACT: note_off channel=9 note=46 velocity=64 time=0
EXTRACT: note_on channel=2 note=41 velocity=100 time=0.021739124999999998
EXTRACT: note_on channel=9 note=46 velocity=38 time=0
EXTRACT: note_on channel=6 note=74 velocity=100 time=0
EXTRACT: note_off channel=9 note=46 velocity=64 time=0.10869562499999999
EXTRACT: note_on channel=9 note=46 velocity=38 time=0.021739124999999998
EXTRACT: note_off channel=2 note=41 velocity=64 time=0.10869562499999999
EXTRACT: note_off channel=9 note=46 velocity=64 time=0
EXTRACT: note_off channel=6 note=74 velocity=64 time=0
EXTRACT: note_on channel=2 note=41 velocity=100 time=0.021739124999999998
EXTRACT: note_on channel=9 note=45 velocity=95 time=0
EXTRACT: note_on channel=9 note=46 velocity=38 time=0
EXTRACT: note_on channel=6 note=74 velocity=100 time=0
EXTRACT: note_off channel=9 note=45 velocity=64 time=0.10869562499999999
EXTRACT: note_off channel=9 note=46 velocity=64 time=0
EXTRACT: note_on channel=9 note=46 velocity=38 time=0.021739124999999998
EXTRACT: note_off channel=1 note=65 velocity=64 time=0.10869562499999999
EXTRACT: note_off channel=1 note=69 velocity=64 time=0
EXTRACT: note_off channel=2 note=41 velocity=64 time=0
EXTRACT: note_off channel=9 note=46 velocity=64 time=0
EXTRACT: note_off channel=4 note=57 velocity=64 time=0
EXTRACT: note_off channel=4 note=53 velocity=64 time=0
EXTRACT: note_off channel=5 note=57 velocity=64 time=0
EXTRACT: note_off channel=5 note=53 velocity=64 time=0
EXTRACT: note_off channel=6 note=74 velocity=64 time=0
EXTRACT: note_on channel=1 note=67 velocity=100 time=0.021739124999999998
EXTRACT: note_on channel=1 note=62 velocity=100 time=0
EXTRACT: note_on channel=2 note=43 velocity=100 time=0
EXTRACT: note_on channel=9 note=46 velocity=38 time=0
EXTRACT: note_on channel=4 note=55 velocity=100 time=0
EXTRACT: note_on channel=4 note=50 velocity=100 time=0
EXTRACT: note_on channel=5 note=55 velocity=100 time=0
EXTRACT: note_on channel=5 note=50 velocity=100 time=0
EXTRACT: note_on channel=6 note=84 velocity=100 time=0
EXTRACT: note_off channel=9 note=46 velocity=64 time=0.10869562499999999
EXTRACT: note_on channel=9 note=46 velocity=38 time=0.021739124999999998
EXTRACT: note_off channel=2 note=43 velocity=64 time=0.10869562499999999
EXTRACT: note_off channel=9 note=46 velocity=64 time=0
EXTRACT: note_on channel=2 note=43 velocity=100 time=0.021739124999999998
EXTRACT: note_on channel=9 note=45 velocity=98 time=0
EXTRACT: note_on channel=9 note=46 velocity=38 time=0
EXTRACT: note_off channel=9 note=45 velocity=64 time=0.10869562499999999
EXTRACT: note_off channel=9 note=46 velocity=64 time=0
EXTRACT: note_on channel=9 note=46 velocity=38 time=0.021739124999999998
EXTRACT: note_off channel=2 note=43 velocity=64 time=0.10869562499999999
EXTRACT: note_off channel=9 note=46 velocity=64 time=0
EXTRACT: note_off channel=6 note=84 velocity=64 time=0
EXTRACT: note_on channel=2 note=41 velocity=100 time=0.021739124999999998
EXTRACT: note_on channel=9 note=46 velocity=38 time=0
EXTRACT: note_on channel=6 note=82 velocity=100 time=0
EXTRACT: note_off channel=9 note=46 velocity=64 time=0.10869562499999999
EXTRACT: note_on channel=9 note=46 velocity=38 time=0.021739124999999998
EXTRACT: note_off channel=2 note=41 velocity=64 time=0.10869562499999999
EXTRACT: note_off channel=9 note=46 velocity=64 time=0
EXTRACT: note_off channel=6 note=82 velocity=64 time=0
EXTRACT: note_on channel=2 note=43 velocity=100 time=0.021739124999999998
EXTRACT: note_on channel=9 note=45 velocity=95 time=0
EXTRACT: note_on channel=9 note=46 velocity=36 time=0
EXTRACT: note_on channel=6 note=81 velocity=100 time=0
EXTRACT: note_off channel=9 note=45 velocity=64 time=0.10869562499999999
EXTRACT: note_off channel=9 note=46 velocity=64 time=0
EXTRACT: note_on channel=9 note=46 velocity=36 time=0.021739124999999998
EXTRACT: note_off channel=2 note=43 velocity=64 time=0.10869562499999999
EXTRACT: note_off channel=9 note=46 velocity=64 time=0
EXTRACT: note_off channel=5 note=55 velocity=64 time=0
EXTRACT: note_off channel=5 note=50 velocity=64 time=0
EXTRACT: note_off channel=6 note=81 velocity=64 time=0
EXTRACT: note_on channel=2 note=41 velocity=100 time=0.021739124999999998
EXTRACT: note_on channel=9 note=46 velocity=36 time=0
EXTRACT: note_on channel=6 note=79 velocity=100 time=0
EXTRACT: note_off channel=9 note=46 velocity=64 time=0.10869562499999999
EXTRACT: note_on channel=9 note=46 velocity=36 time=0.021739124999999998
EXTRACT: note_off channel=1 note=67 velocity=64 time=0.10869562499999999
EXTRACT: note_off channel=1 note=62 velocity=64 time=0
EXTRACT: note_off channel=2 note=41 velocity=64 time=0
EXTRACT: note_off channel=9 note=46 velocity=64 time=0
EXTRACT: note_off channel=4 note=50 velocity=64 time=0
EXTRACT: note_off channel=4 note=55 velocity=64 time=0
EXTRACT: note_off channel=6 note=79 velocity=64 time=0
EXTRACT: note_on channel=1 note=62 velocity=100 time=0.021739124999999998
EXTRACT: note_on channel=1 note=69 velocity=100 time=0
EXTRACT: note_on channel=2 note=38 velocity=100 time=0
EXTRACT: note_on channel=9 note=45 velocity=98 time=0
EXTRACT: note_on channel=9 note=46 velocity=36 time=0
EXTRACT: note_on channel=4 note=50 velocity=100 time=0
EXTRACT: note_on channel=4 note=57 velocity=100 time=0
EXTRACT: note_on channel=5 note=50 velocity=100 time=0
EXTRACT: note_on channel=5 note=57 velocity=100 time=0
EXTRACT: note_on channel=6 note=81 velocity=100 time=0
EXTRACT: note_off channel=9 note=45 velocity=64 time=0.10869562499999999
EXTRACT: note_off channel=9 note=46 velocity=64 time=0
EXTRACT: note_on channel=9 note=46 velocity=36 time=0.021739124999999998
EXTRACT: note_off channel=2 note=38 velocity=64 time=0.10869562499999999
EXTRACT: note_off channel=9 note=46 velocity=64 time=0
EXTRACT: note_on channel=2 note=38 velocity=100 time=0.021739124999999998
EXTRACT: note_on channel=9 note=46 velocity=36 time=0
EXTRACT: note_off channel=9 note=46 velocity=64 time=0.10869562499999999
EXTRACT: note_on channel=9 note=46 velocity=36 time=0.021739124999999998
EXTRACT: note_off channel=2 note=38 velocity=64 time=0.10869562499999999
EXTRACT: note_off channel=9 note=46 velocity=64 time=0
EXTRACT: note_off channel=6 note=81 velocity=64 time=0
EXTRACT: note_on channel=2 note=38 velocity=100 time=0.021739124999999998
EXTRACT: note_on channel=9 note=45 velocity=95 time=0
EXTRACT: note_on channel=9 note=46 velocity=36 time=0
EXTRACT: note_on channel=6 note=77 velocity=100 time=0
EXTRACT: note_off channel=9 note=45 velocity=64 time=0.10869562499999999
EXTRACT: note_off channel=9 note=46 velocity=64 time=0
EXTRACT: note_on channel=9 note=46 velocity=36 time=0.021739124999999998
EXTRACT: note_off channel=2 note=38 velocity=64 time=0.10869562499999999
EXTRACT: note_off channel=9 note=46 velocity=64 time=0
EXTRACT: note_off channel=6 note=77 velocity=64 time=0
EXTRACT: note_on channel=2 note=38 velocity=100 time=0.021739124999999998
EXTRACT: note_on channel=9 note=46 velocity=36 time=0
EXTRACT: note_on channel=6 note=74 velocity=100 time=0
EXTRACT: note_off channel=9 note=46 velocity=64 time=0.10869562499999999
EXTRACT: note_on channel=9 note=46 velocity=36 time=0.021739124999999998
EXTRACT: note_off channel=1 note=62 velocity=64 time=0.10869562499999999
EXTRACT: note_off channel=1 note=69 velocity=64 time=0
EXTRACT: note_off channel=2 note=38 velocity=64 time=0
EXTRACT: note_off channel=9 note=46 velocity=64 time=0
EXTRACT: note_off channel=4 note=50 velocity=64 time=0
EXTRACT: note_off channel=4 note=57 velocity=64 time=0
EXTRACT: note_off channel=5 note=50 velocity=64 time=0
EXTRACT: note_off channel=5 note=57 velocity=64 time=0
EXTRACT: note_on channel=1 note=70 velocity=100 time=0.021739124999999998
EXTRACT: note_on channel=1 note=65 velocity=100 time=0
EXTRACT: note_on channel=2 note=34 velocity=100 time=0
EXTRACT: note_on channel=9 note=45 velocity=98 time=0
EXTRACT: note_on channel=9 note=46 velocity=36 time=0
EXTRACT: note_on channel=4 note=58 velocity=100 time=0
EXTRACT: note_on channel=4 note=53 velocity=100 time=0
EXTRACT: note_on channel=5 note=58 velocity=100 time=0
EXTRACT: note_on channel=5 note=53 velocity=100 time=0
EXTRACT: note_off channel=9 note=45 velocity=64 time=0.10869562499999999
EXTRACT: note_off channel=9 note=46 velocity=64 time=0
EXTRACT: note_on channel=9 note=46 velocity=36 time=0.021739124999999998
EXTRACT: note_off channel=2 note=34 velocity=64 time=0.10869562499999999
EXTRACT: note_off channel=9 note=46 velocity=64 time=0
EXTRACT: note_on channel=2 note=34 velocity=100 time=0.021739124999999998
EXTRACT: note_on channel=9 note=46 velocity=36 time=0
EXTRACT: note_off channel=9 note=46 velocity=64 time=0.10869562499999999
EXTRACT: note_on channel=9 note=46 velocity=36 time=0.021739124999999998
EXTRACT: note_off channel=2 note=34 velocity=64 time=0.10869562499999999
EXTRACT: note_off channel=9 note=46 velocity=64 time=0
EXTRACT: note_off channel=6 note=74 velocity=64 time=0
EXTRACT: note_on channel=2 note=34 velocity=100 time=0.021739124999999998
EXTRACT: note_on channel=9 note=45 velocity=95 time=0
EXTRACT: note_on channel=9 note=46 velocity=36 time=0
EXTRACT: note_off channel=9 note=45 velocity=64 time=0.10869562499999999
EXTRACT: note_off channel=9 note=46 velocity=64 time=0
EXTRACT: note_on channel=9 note=46 velocity=34 time=0.021739124999999998
EXTRACT: note_off channel=2 note=34 velocity=64 time=0.10869562499999999
EXTRACT: note_off channel=9 note=46 velocity=64 time=0
EXTRACT: note_on channel=2 note=34 velocity=100 time=0.021739124999999998
EXTRACT: note_on channel=9 note=46 velocity=36 time=0
EXTRACT: note_off channel=9 note=46 velocity=64 time=0.10869562499999999
EXTRACT: note_on channel=9 note=46 velocity=36 time=0.021739124999999998
EXTRACT: note_off channel=1 note=70 velocity=64 time=0.10869562499999999
EXTRACT: note_off channel=1 note=65 velocity=64 time=0
EXTRACT: note_off channel=2 note=34 velocity=64 time=0
EXTRACT: note_off channel=9 note=46 velocity=64 time=0
EXTRACT: note_off channel=4 note=58 velocity=64 time=0
EXTRACT: note_off channel=4 note=53 velocity=64 time=0
EXTRACT: note_off channel=5 note=58 velocity=64 time=0
EXTRACT: note_off channel=5 note=53 velocity=64 time=0
EXTRACT: note_on channel=1 note=69 velocity=100 time=0.021739124999999998
EXTRACT: note_on channel=1 note=65 velocity=100 time=0
EXTRACT: note_on channel=2 note=41 velocity=100 time=0
EXTRACT: note_on channel=9 note=45 velocity=98 time=0
EXTRACT: note_on channel=9 note=46 velocity=36 time=0
EXTRACT: note_on channel=4 note=57 velocity=100 time=0
EXTRACT: note_on channel=4 note=53 velocity=100 time=0
EXTRACT: note_on channel=5 note=57 velocity=100 time=0
EXTRACT: note_on channel=5 note=53 velocity=100 time=0
EXTRACT: note_off channel=9 note=45 velocity=64 time=0.10869562499999999
EXTRACT: note_off channel=9 note=46 velocity=64 time=0
EXTRACT: note_on channel=9 note=46 velocity=34 time=0.021739124999999998
EXTRACT: note_off channel=2 note=41 velocity=64 time=0.10869562499999999
EXTRACT: note_off channel=9 note=46 velocity=64 time=0
EXTRACT: note_on channel=2 note=41 velocity=100 time=0.021739124999999998
EXTRACT: note_on channel=9 note=46 velocity=36 time=0
EXTRACT: note_on channel=6 note=74 velocity=100 time=0
EXTRACT: note_off channel=9 note=46 velocity=64 time=0.10869562499999999
EXTRACT: note_on channel=9 note=46 velocity=36 time=0.021739124999999998
EXTRACT: note_off channel=2 note=41 velocity=64 time=0.10869562499999999
EXTRACT: note_off channel=9 note=46 velocity=64 time=0
EXTRACT: note_off channel=6 note=74 velocity=64 time=0
EXTRACT: note_on channel=2 note=41 velocity=100 time=0.021739124999999998
EXTRACT: note_on channel=9 note=45 velocity=95 time=0
EXTRACT: note_on channel=9 note=46 velocity=36 time=0
EXTRACT: note_on channel=6 note=74 velocity=100 time=0
EXTRACT: note_off channel=9 note=45 velocity=64 time=0.10869562499999999
EXTRACT: note_off channel=9 note=46 velocity=64 time=0
EXTRACT: note_on channel=9 note=46 velocity=36 time=0.021739124999999998
EXTRACT: note_off channel=1 note=65 velocity=64 time=0.10869562499999999
EXTRACT: note_off channel=1 note=69 velocity=64 time=0
EXTRACT: note_off channel=2 note=41 velocity=64 time=0
EXTRACT: note_off channel=9 note=46 velocity=64 time=0
EXTRACT: note_off channel=4 note=57 velocity=64 time=0
EXTRACT: note_off channel=4 note=53 velocity=64 time=0
EXTRACT: note_off channel=5 note=57 velocity=64 time=0
EXTRACT: note_off channel=5 note=53 velocity=64 time=0
EXTRACT: note_off channel=6 note=74 velocity=64 time=0
EXTRACT: note_on channel=1 note=67 velocity=100 time=0.021739124999999998
EXTRACT: note_on channel=1 note=62 velocity=100 time=0
EXTRACT: note_on channel=2 note=43 velocity=100 time=0
EXTRACT: note_on channel=9 note=46 velocity=36 time=0
EXTRACT: note_on channel=4 note=55 velocity=100 time=0
EXTRACT: note_on channel=4 note=50 velocity=100 time=0
EXTRACT: note_on channel=5 note=55 velocity=100 time=0
EXTRACT: note_on channel=5 note=50 velocity=100 time=0
EXTRACT: note_on channel=6 note=84 velocity=100 time=0
EXTRACT: note_off channel=9 note=46 velocity=64 time=0.10869562499999999
EXTRACT: note_on channel=9 note=46 velocity=36 time=0.021739124999999998
EXTRACT: note_off channel=2 note=43 velocity=64 time=0.10869562499999999
EXTRACT: note_off channel=9 note=46 velocity=64 time=0
EXTRACT: note_on channel=2 note=43 velocity=100 time=0.021739124999999998
EXTRACT: note_on channel=9 note=45 velocity=98 time=0
EXTRACT: note_on channel=9 note=46 velocity=36 time=0
EXTRACT: note_off channel=9 note=45 velocity=64 time=0.10869562499999999
EXTRACT: note_off channel=9 note=46 velocity=64 time=0
EXTRACT: note_on channel=9 note=46 velocity=34 time=0.021739124999999998
EXTRACT: note_off channel=2 note=43 velocity=64 time=0.10869562499999999
EXTRACT: note_off channel=9 note=46 velocity=64 time=0
EXTRACT: note_off channel=6 note=84 velocity=64 time=0
EXTRACT: note_on channel=2 note=41 velocity=100 time=0.021739124999999998
EXTRACT: note_on channel=9 note=46 velocity=36 time=0
EXTRACT: note_on channel=6 note=82 velocity=100 time=0
EXTRACT: note_off channel=9 note=46 velocity=64 time=0.10869562499999999
EXTRACT: note_on channel=9 note=46 velocity=36 time=0.021739124999999998
EXTRACT: note_off channel=2 note=41 velocity=64 time=0.10869562499999999
EXTRACT: note_off channel=9 note=46 velocity=64 time=0
EXTRACT: note_off channel=6 note=82 velocity=64 time=0
EXTRACT: note_on channel=2 note=43 velocity=100 time=0.021739124999999998
EXTRACT: note_on channel=9 note=45 velocity=95 time=0
EXTRACT: note_on channel=9 note=46 velocity=36 time=0
EXTRACT: note_on channel=6 note=81 velocity=100 time=0
EXTRACT: note_off channel=9 note=45 velocity=64 time=0.10869562499999999
EXTRACT: note_off channel=9 note=46 velocity=64 time=0
EXTRACT: note_on channel=9 note=46 velocity=36 time=0.021739124999999998
EXTRACT: note_off channel=2 note=43 velocity=64 time=0.10869562499999999
EXTRACT: note_off channel=9 note=46 velocity=64 time=0
EXTRACT: note_off channel=5 note=55 velocity=64 time=0
EXTRACT: note_off channel=5 note=50 velocity=64 time=0
EXTRACT: note_off channel=6 note=81 velocity=64 time=0
EXTRACT: note_on channel=2 note=41 velocity=100 time=0.021739124999999998
EXTRACT: note_on channel=9 note=46 velocity=36 time=0
EXTRACT: note_on channel=6 note=79 velocity=100 time=0
EXTRACT: note_off channel=9 note=46 velocity=64 time=0.10869562499999999
EXTRACT: note_on channel=9 note=46 velocity=36 time=0.021739124999999998
EXTRACT: note_off channel=1 note=67 velocity=64 time=0.10869562499999999
EXTRACT: note_off channel=1 note=62 velocity=64 time=0
EXTRACT: note_off channel=2 note=41 velocity=64 time=0
EXTRACT: note_off channel=9 note=46 velocity=64 time=0
EXTRACT: note_off channel=4 note=50 velocity=64 time=0
EXTRACT: note_off channel=4 note=55 velocity=64 time=0
EXTRACT: note_off channel=6 note=79 velocity=64 time=0
EXTRACT: note_on channel=1 note=62 velocity=100 time=0.021739124999999998
EXTRACT: note_on channel=1 note=69 velocity=100 time=0
EXTRACT: note_on channel=2 note=38 velocity=100 time=0
EXTRACT: note_on channel=9 note=45 velocity=98 time=0
EXTRACT: note_on channel=9 note=46 velocity=36 time=0
EXTRACT: note_on channel=4 note=50 velocity=100 time=0
EXTRACT: note_on channel=4 note=57 velocity=100 time=0
EXTRACT: note_on channel=5 note=50 velocity=100 time=0
EXTRACT: note_on channel=5 note=57 velocity=100 time=0
EXTRACT: note_on channel=6 note=81 velocity=100 time=0
EXTRACT: note_off channel=9 note=45 velocity=64 time=0.10869562499999999
EXTRACT: note_off channel=9 note=46 velocity=64 time=0
EXTRACT: note_on channel=9 note=46 velocity=36 time=0.021739124999999998
EXTRACT: note_off channel=2 note=38 velocity=64 time=0.10869562499999999
EXTRACT: note_off channel=9 note=46 velocity=64 time=0
EXTRACT: note_on channel=2 note=38 velocity=100 time=0.021739124999999998
EXTRACT: note_on channel=9 note=46 velocity=34 time=0
EXTRACT: note_off channel=9 note=46 velocity=64 time=0.10869562499999999
EXTRACT: note_on channel=9 note=46 velocity=36 time=0.021739124999999998
EXTRACT: note_off channel=2 note=38 velocity=64 time=0.10869562499999999
EXTRACT: note_off channel=9 note=46 velocity=64 time=0
EXTRACT: note_off channel=6 note=81 velocity=64 time=0
EXTRACT: note_on channel=2 note=38 velocity=100 time=0.021739124999999998
EXTRACT: note_on channel=9 note=45 velocity=95 time=0
EXTRACT: note_on channel=9 note=46 velocity=36 time=0
EXTRACT: note_on channel=6 note=77 velocity=100 time=0
EXTRACT: note_off channel=9 note=45 velocity=64 time=0.10869562499999999
EXTRACT: note_off channel=9 note=46 velocity=64 time=0
EXTRACT: note_on channel=9 note=46 velocity=36 time=0.021739124999999998
EXTRACT: note_off channel=2 note=38 velocity=64 time=0.10869562499999999
EXTRACT: note_off channel=9 note=46 velocity=64 time=0
EXTRACT: note_off channel=6 note=77 velocity=64 time=0
EXTRACT: note_on channel=2 note=38 velocity=100 time=0.021739124999999998
EXTRACT: note_on channel=9 note=46 velocity=36 time=0
EXTRACT: note_on channel=6 note=74 velocity=100 time=0
EXTRACT: note_off channel=9 note=46 velocity=64 time=0.10869562499999999
EXTRACT: note_on channel=9 note=46 velocity=36 time=0.021739124999999998
EXTRACT: note_off channel=1 note=62 velocity=64 time=0.10869562499999999
EXTRACT: note_off channel=1 note=69 velocity=64 time=0
EXTRACT: note_off channel=2 note=38 velocity=64 time=0
EXTRACT: note_off channel=9 note=46 velocity=64 time=0
EXTRACT: note_off channel=4 note=50 velocity=64 time=0
EXTRACT: note_off channel=4 note=57 velocity=64 time=0
EXTRACT: note_off channel=5 note=50 velocity=64 time=0
EXTRACT: note_off channel=5 note=57 velocity=64 time=0
EXTRACT: note_on channel=1 note=70 velocity=100 time=0.021739124999999998
EXTRACT: note_on channel=1 note=65 velocity=100 time=0
EXTRACT: note_on channel=2 note=34 velocity=100 time=0
EXTRACT: note_on channel=9 note=45 velocity=98 time=0
EXTRACT: note_on channel=9 note=46 velocity=36 time=0
EXTRACT: note_on channel=4 note=58 velocity=100 time=0
EXTRACT: note_on channel=4 note=53 velocity=100 time=0
EXTRACT: note_on channel=5 note=58 velocity=100 time=0
EXTRACT: note_on channel=5 note=53 velocity=100 time=0
EXTRACT: note_off channel=9 note=45 velocity=64 time=0.10869562499999999
EXTRACT: note_off channel=9 note=46 velocity=64 time=0
EXTRACT: note_on channel=9 note=46 velocity=36 time=0.021739124999999998
EXTRACT: note_off channel=2 note=34 velocity=64 time=0.10869562499999999
EXTRACT: note_off channel=9 note=46 velocity=64 time=0
EXTRACT: note_on channel=2 note=34 velocity=100 time=0.021739124999999998
EXTRACT: note_on channel=9 note=46 velocity=34 time=0
EXTRACT: note_off channel=9 note=46 velocity=64 time=0.10869562499999999
EXTRACT: note_on channel=9 note=46 velocity=36 time=0.021739124999999998
EXTRACT: note_off channel=2 note=34 velocity=64 time=0.10869562499999999
EXTRACT: note_off channel=9 note=46 velocity=64 time=0
EXTRACT: note_off channel=6 note=74 velocity=64 time=0
EXTRACT: note_on channel=2 note=34 velocity=100 time=0.021739124999999998
EXTRACT: note_on channel=9 note=45 velocity=95 time=0
EXTRACT: note_on channel=9 note=46 velocity=36 time=0
EXTRACT: note_off channel=9 note=45 velocity=64 time=0.10869562499999999
EXTRACT: note_off channel=9 note=46 velocity=64 time=0
EXTRACT: note_on channel=9 note=46 velocity=36 time=0.021739124999999998
EXTRACT: note_off channel=2 note=34 velocity=64 time=0.10869562499999999
EXTRACT: note_off channel=9 note=46 velocity=64 time=0
EXTRACT: note_on channel=2 note=34 velocity=100 time=0.021739124999999998
EXTRACT: note_on channel=9 note=46 velocity=34 time=0
EXTRACT: note_off channel=9 note=46 velocity=64 time=0.10869562499999999
EXTRACT: note_on channel=9 note=46 velocity=36 time=0.021739124999999998
EXTRACT: note_off channel=1 note=70 velocity=64 time=0.10869562499999999
EXTRACT: note_off channel=1 note=65 velocity=64 time=0
EXTRACT: note_off channel=2 note=34 velocity=64 time=0
EXTRACT: note_off channel=9 note=46 velocity=64 time=0
EXTRACT: note_off channel=4 note=58 velocity=64 time=0
EXTRACT: note_off channel=4 note=53 velocity=64 time=0
EXTRACT: note_off channel=5 note=58 velocity=64 time=0
EXTRACT: note_off channel=5 note=53 velocity=64 time=0
EXTRACT: note_on channel=1 note=69 velocity=100 time=0.021739124999999998
EXTRACT: note_on channel=1 note=65 velocity=100 time=0
EXTRACT: note_on channel=2 note=41 velocity=100 time=0
EXTRACT: note_on channel=9 note=45 velocity=98 time=0
EXTRACT: note_on channel=9 note=46 velocity=36 time=0
EXTRACT: note_on channel=4 note=57 velocity=100 time=0
EXTRACT: note_on channel=4 note=53 velocity=100 time=0
EXTRACT: note_on channel=5 note=57 velocity=100 time=0
EXTRACT: note_on channel=5 note=53 velocity=100 time=0
EXTRACT: note_off channel=9 note=45 velocity=64 time=0.10869562499999999
EXTRACT: note_off channel=9 note=46 velocity=64 time=0
EXTRACT: note_on channel=9 note=46 velocity=36 time=0.021739124999999998
EXTRACT: note_off channel=2 note=41 velocity=64 time=0.10869562499999999
EXTRACT: note_off channel=9 note=46 velocity=64 time=0
EXTRACT: note_on channel=2 note=41 velocity=100 time=0.021739124999999998
EXTRACT: note_on channel=9 note=46 velocity=36 time=0
EXTRACT: note_off channel=9 note=46 velocity=64 time=0.10869562499999999
EXTRACT: note_on channel=9 note=46 velocity=36 time=0.021739124999999998
EXTRACT: note_off channel=2 note=41 velocity=64 time=0.10869562499999999
EXTRACT: note_off channel=9 note=46 velocity=64 time=0
EXTRACT: note_on channel=2 note=41 velocity=100 time=0.021739124999999998
EXTRACT: note_on channel=9 note=45 velocity=95 time=0
EXTRACT: note_on channel=9 note=46 velocity=36 time=0
EXTRACT: note_off channel=9 note=45 velocity=64 time=0.10869562499999999
EXTRACT: note_off channel=9 note=46 velocity=64 time=0
EXTRACT: note_on channel=9 note=46 velocity=36 time=0.021739124999999998
EXTRACT: note_off channel=1 note=65 velocity=64 time=0.10869562499999999
EXTRACT: note_off channel=1 note=69 velocity=64 time=0
EXTRACT: note_off channel=2 note=41 velocity=64 time=0
EXTRACT: note_off channel=9 note=46 velocity=64 time=0
EXTRACT: note_off channel=4 note=57 velocity=64 time=0
EXTRACT: note_off channel=4 note=53 velocity=64 time=0
EXTRACT: note_off channel=5 note=57 velocity=64 time=0
EXTRACT: note_off channel=5 note=53 velocity=64 time=0
EXTRACT: note_on channel=1 note=67 velocity=100 time=0.021739124999999998
EXTRACT: note_on channel=1 note=62 velocity=100 time=0
EXTRACT: note_on channel=2 note=43 velocity=100 time=0
EXTRACT: note_on channel=9 note=46 velocity=36 time=0
EXTRACT: note_on channel=4 note=55 velocity=100 time=0
EXTRACT: note_on channel=4 note=50 velocity=100 time=0
EXTRACT: note_on channel=5 note=55 velocity=100 time=0
EXTRACT: note_on channel=5 note=50 velocity=100 time=0
EXTRACT: note_off channel=9 note=46 velocity=64 time=0.10869562499999999
EXTRACT: note_on channel=9 note=46 velocity=35 time=0.021739124999999998
EXTRACT: note_off channel=2 note=43 velocity=64 time=0.10869562499999999
EXTRACT: note_off channel=9 note=46 velocity=64 time=0
EXTRACT: note_on channel=2 note=43 velocity=100 time=0.021739124999999998
EXTRACT: note_on channel=9 note=45 velocity=98 time=0
EXTRACT: note_on channel=9 note=46 velocity=35 time=0
EXTRACT: note_off channel=9 note=45 velocity=64 time=0.10869562499999999
EXTRACT: note_off channel=9 note=46 velocity=64 time=0
EXTRACT: note_on channel=9 note=46 velocity=35 time=0.021739124999999998
EXTRACT: note_off channel=2 note=43 velocity=64 time=0.10869562499999999
EXTRACT: note_off channel=9 note=46 velocity=64 time=0
EXTRACT: note_on channel=2 note=41 velocity=100 time=0.021739124999999998
EXTRACT: note_on channel=9 note=46 velocity=35 time=0
EXTRACT: note_off channel=9 note=46 velocity=64 time=0.10869562499999999
EXTRACT: note_on channel=9 note=46 velocity=35 time=0.021739124999999998
EXTRACT: note_off channel=2 note=41 velocity=64 time=0.10869562499999999
EXTRACT: note_off channel=9 note=46 velocity=64 time=0
EXTRACT: note_on channel=2 note=43 velocity=100 time=0.021739124999999998
EXTRACT: note_on channel=9 note=45 velocity=95 time=0
EXTRACT: note_on channel=9 note=46 velocity=34 time=0
EXTRACT: note_on channel=6 note=77 velocity=100 time=0
EXTRACT: note_off channel=9 note=45 velocity=64 time=0.10869562499999999
EXTRACT: note_off channel=9 note=46 velocity=64 time=0
EXTRACT: note_on channel=9 note=46 velocity=34 time=0.021739124999999998
EXTRACT: note_off channel=2 note=43 velocity=64 time=0.10869562499999999
EXTRACT: note_off channel=9 note=46 velocity=64 time=0
EXTRACT: note_off channel=5 note=55 velocity=64 time=0
EXTRACT: note_off channel=5 note=50 velocity=64 time=0
EXTRACT: note_off channel=6 note=77 velocity=64 time=0
EXTRACT: note_on channel=2 note=41 velocity=100 time=0.021739124999999998
EXTRACT: note_on channel=9 note=46 velocity=34 time=0
EXTRACT: note_on channel=6 note=79 velocity=100 time=0
EXTRACT: note_off channel=9 note=46 velocity=64 time=0.10869562499999999
EXTRACT: note_on channel=9 note=46 velocity=34 time=0.021739124999999998
EXTRACT: note_off channel=1 note=67 velocity=64 time=0.10869562499999999
EXTRACT: note_off channel=1 note=62 velocity=64 time=0
EXTRACT: note_off channel=2 note=41 velocity=64 time=0
EXTRACT: note_off channel=9 note=46 velocity=64 time=0
EXTRACT: note_off channel=4 note=55 velocity=64 time=0
EXTRACT: note_off channel=4 note=50 velocity=64 time=0
EXTRACT: note_off channel=6 note=79 velocity=64 time=0
EXTRACT: note_on channel=1 note=57 velocity=100 time=0.021739124999999998
EXTRACT: note_on channel=1 note=62 velocity=100 time=0
EXTRACT: note_on channel=2 note=38 velocity=100 time=0
EXTRACT: note_on channel=9 note=45 velocity=98 time=0
EXTRACT: note_on channel=9 note=46 velocity=34 time=0
EXTRACT: note_on channel=4 note=57 velocity=100 time=0
EXTRACT: note_on channel=4 note=62 velocity=100 time=0
EXTRACT: note_on channel=5 note=57 velocity=100 time=0
EXTRACT: note_on channel=5 note=62 velocity=100 time=0
EXTRACT: note_on channel=6 note=81 velocity=100 time=0
EXTRACT: note_off channel=9 note=45 velocity=64 time=0.10869562499999999
EXTRACT: note_off channel=9 note=46 velocity=64 time=0
EXTRACT: note_on channel=9 note=46 velocity=34 time=0.021739124999999998
EXTRACT: note_off channel=2 note=38 velocity=64 time=0.10869562499999999
EXTRACT: note_off channel=9 note=46 velocity=64 time=0
EXTRACT: note_on channel=2 note=38 velocity=100 time=0.021739124999999998
EXTRACT: note_on channel=9 note=46 velocity=34 time=0
EXTRACT: note_off channel=9 note=46 velocity=64 time=0.10869562499999999
EXTRACT: note_on channel=9 note=46 velocity=34 time=0.021739124999999998
EXTRACT: note_off channel=2 note=38 velocity=64 time=0.10869562499999999
EXTRACT: note_off channel=9 note=46 velocity=64 time=0
EXTRACT: note_off channel=6 note=81 velocity=64 time=0
EXTRACT: note_on channel=2 note=38 velocity=100 time=0.021739124999999998
EXTRACT: note_on channel=9 note=45 velocity=95 time=0
EXTRACT: note_on channel=9 note=46 velocity=34 time=0
EXTRACT: note_on channel=6 note=81 velocity=100 time=0
EXTRACT: note_off channel=9 note=45 velocity=64 time=0.10869562499999999
EXTRACT: note_off channel=9 note=46 velocity=64 time=0
EXTRACT: note_on channel=9 note=46 velocity=34 time=0.021739124999999998
EXTRACT: note_off channel=2 note=38 velocity=64 time=0.10869562499999999
EXTRACT: note_off channel=9 note=46 velocity=64 time=0
EXTRACT: note_on channel=2 note=38 velocity=100 time=0.021739124999999998
EXTRACT: note_on channel=9 note=46 velocity=34 time=0
EXTRACT: note_off channel=9 note=46 velocity=64 time=0.10869562499999999
EXTRACT: note_on channel=9 note=46 velocity=34 time=0.021739124999999998
EXTRACT: note_off channel=2 note=38 velocity=64 time=0.10869562499999999
EXTRACT: note_off channel=9 note=46 velocity=64 time=0
EXTRACT: note_off channel=6 note=81 velocity=64 time=0
EXTRACT: note_on channel=2 note=38 velocity=100 time=0.021739124999999998
EXTRACT: note_on channel=9 note=45 velocity=98 time=0
EXTRACT: note_on channel=9 note=46 velocity=34 time=0
EXTRACT: note_on channel=6 note=81 velocity=100 time=0
EXTRACT: note_off channel=9 note=45 velocity=64 time=0.10869562499999999
EXTRACT: note_off channel=9 note=46 velocity=64 time=0
EXTRACT: note_on channel=9 note=46 velocity=34 time=0.021739124999999998
EXTRACT: note_off channel=2 note=38 velocity=64 time=0.10869562499999999
EXTRACT: note_off channel=9 note=46 velocity=64 time=0
EXTRACT: note_off channel=6 note=81 velocity=64 time=0
EXTRACT: note_on channel=2 note=38 velocity=100 time=0.021739124999999998
EXTRACT: note_on channel=9 note=46 velocity=34 time=0
EXTRACT: note_on channel=6 note=79 velocity=100 time=0
EXTRACT: note_off channel=9 note=46 velocity=64 time=0.10869562499999999
EXTRACT: note_on channel=9 note=46 velocity=34 time=0.021739124999999998
EXTRACT: note_off channel=2 note=38 velocity=64 time=0.10869562499999999
EXTRACT: note_off channel=9 note=46 velocity=64 time=0
EXTRACT: note_off channel=6 note=79 velocity=64 time=0
EXTRACT: note_on channel=2 note=38 velocity=100 time=0.021739124999999998
EXTRACT: note_on channel=9 note=45 velocity=95 time=0
EXTRACT: note_on channel=9 note=46 velocity=34 time=0
EXTRACT: note_on channel=6 note=77 velocity=100 time=0
EXTRACT: note_off channel=9 note=45 velocity=64 time=0.10869562499999999
EXTRACT: note_off channel=9 note=46 velocity=64 time=0
EXTRACT: note_on channel=9 note=46 velocity=34 time=0.021739124999999998
EXTRACT: note_off channel=2 note=38 velocity=64 time=0.10869562499999999
EXTRACT: note_off channel=9 note=46 velocity=64 time=0
EXTRACT: note_off channel=6 note=77 velocity=64 time=0
EXTRACT: note_on channel=2 note=38 velocity=100 time=0.021739124999999998
EXTRACT: note_on channel=9 note=46 velocity=34 time=0
EXTRACT: note_on channel=6 note=79 velocity=100 time=0
EXTRACT: note_off channel=9 note=46 velocity=64 time=0.10869562499999999
EXTRACT: note_on channel=9 note=46 velocity=34 time=0.021739124999999998
EXTRACT: note_off channel=1 note=57 velocity=64 time=0.10869562499999999
EXTRACT: note_off channel=1 note=62 velocity=64 time=0
EXTRACT: note_off channel=2 note=38 velocity=64 time=0
EXTRACT: note_off channel=9 note=46 velocity=64 time=0
EXTRACT: note_off channel=4 note=57 velocity=64 time=0
EXTRACT: note_off channel=4 note=62 velocity=64 time=0
EXTRACT: note_off channel=5 note=57 velocity=64 time=0
EXTRACT: note_off channel=5 note=62 velocity=64 time=0
EXTRACT: note_on channel=1 note=62 velocity=100 time=0.021739124999999998
EXTRACT: note_on channel=1 note=55 velocity=100 time=0
EXTRACT: note_on channel=2 note=43 velocity=100 time=0
EXTRACT: note_on channel=9 note=45 velocity=98 time=0
EXTRACT: note_on channel=9 note=46 velocity=34 time=0
EXTRACT: note_on channel=4 note=62 velocity=100 time=0
EXTRACT: note_on channel=4 note=55 velocity=100 time=0
EXTRACT: note_on channel=5 note=62 velocity=100 time=0
EXTRACT: note_on channel=5 note=55 velocity=100 time=0
EXTRACT: note_off channel=9 note=45 velocity=64 time=0.10869562499999999
EXTRACT: note_off channel=9 note=46 velocity=64 time=0
EXTRACT: note_on channel=9 note=46 velocity=34 time=0.021739124999999998
EXTRACT: note_off channel=2 note=43 velocity=64 time=0.10869562499999999
EXTRACT: note_off channel=9 note=46 velocity=64 time=0
EXTRACT: note_off channel=6 note=79 velocity=64 time=0
EXTRACT: note_on channel=2 note=43 velocity=100 time=0.021739124999999998
EXTRACT: note_on channel=9 note=46 velocity=34 time=0
EXTRACT: note_on channel=6 note=81 velocity=100 time=0
EXTRACT: note_off channel=9 note=46 velocity=64 time=0.10869562499999999
EXTRACT: note_on channel=9 note=46 velocity=34 time=0.021739124999999998
EXTRACT: note_off channel=2 note=43 velocity=64 time=0.10869562499999999
EXTRACT: note_off channel=9 note=46 velocity=64 time=0
EXTRACT: note_off channel=6 note=81 velocity=64 time=0
EXTRACT: note_on channel=2 note=43 velocity=100 time=0.021739124999999998
EXTRACT: note_on channel=9 note=45 velocity=95 time=0
EXTRACT: note_on channel=9 note=46 velocity=34 time=0
EXTRACT: note_on channel=6 note=79 velocity=100 time=0
EXTRACT: note_off channel=9 note=45 velocity=64 time=0.10869562499999999
EXTRACT: note_off channel=9 note=46 velocity=64 time=0
EXTRACT: note_on channel=9 note=46 velocity=34 time=0.021739124999999998
EXTRACT: note_off channel=2 note=43 velocity=64 time=0.10869562499999999
EXTRACT: note_off channel=9 note=46 velocity=64 time=0
EXTRACT: note_on channel=2 note=43 velocity=100 time=0.021739124999999998
EXTRACT: note_on channel=9 note=46 velocity=34 time=0
EXTRACT: note_off channel=9 note=46 velocity=64 time=0.10869562499999999
EXTRACT: note_on channel=9 note=46 velocity=34 time=0.021739124999999998
EXTRACT: note_off channel=2 note=43 velocity=64 time=0.10869562499999999
EXTRACT: note_off channel=9 note=46 velocity=64 time=0
EXTRACT: note_on channel=2 note=43 velocity=100 time=0.021739124999999998
EXTRACT: note_on channel=9 note=45 velocity=98 time=0
EXTRACT: note_on channel=9 note=46 velocity=34 time=0
EXTRACT: note_off channel=9 note=45 velocity=64 time=0.10869562499999999
EXTRACT: note_off channel=9 note=46 velocity=64 time=0
EXTRACT: note_on channel=9 note=46 velocity=34 time=0.021739124999999998
EXTRACT: note_off channel=2 note=43 velocity=64 time=0.10869562499999999
EXTRACT: note_off channel=9 note=46 velocity=64 time=0
EXTRACT: note_off channel=6 note=79 velocity=64 time=0
EXTRACT: note_on channel=2 note=43 velocity=100 time=0.021739124999999998
EXTRACT: note_on channel=9 note=46 velocity=34 time=0
EXTRACT: note_off channel=9 note=46 velocity=64 time=0.10869562499999999
EXTRACT: note_on channel=9 note=46 velocity=34 time=0.021739124999999998
EXTRACT: note_off channel=2 note=43 velocity=64 time=0.10869562499999999
EXTRACT: note_off channel=9 note=46 velocity=64 time=0
EXTRACT: note_on channel=2 note=43 velocity=100 time=0.021739124999999998
EXTRACT: note_on channel=9 note=45 velocity=95 time=0
EXTRACT: note_on channel=9 note=46 velocity=34 time=0
EXTRACT: note_on channel=6 note=77 velocity=100 time=0
EXTRACT: note_off channel=9 note=45 velocity=64 time=0.10869562499999999
EXTRACT: note_off channel=9 note=46 velocity=64 time=0
EXTRACT: note_on channel=9 note=46 velocity=34 time=0.021739124999999998
EXTRACT: note_off channel=2 note=43 velocity=64 time=0.10869562499999999
EXTRACT: note_off channel=9 note=46 velocity=64 time=0
EXTRACT: note_off channel=6 note=77 velocity=64 time=0
EXTRACT: note_on channel=2 note=43 velocity=100 time=0.021739124999999998
EXTRACT: note_on channel=9 note=46 velocity=34 time=0
EXTRACT: note_on channel=6 note=79 velocity=100 time=0
EXTRACT: note_off channel=9 note=46 velocity=64 time=0.10869562499999999
EXTRACT: note_on channel=9 note=46 velocity=34 time=0.021739124999999998
EXTRACT: note_off channel=1 note=62 velocity=64 time=0.10869562499999999
EXTRACT: note_off channel=1 note=55 velocity=64 time=0
EXTRACT: note_off channel=2 note=43 velocity=64 time=0
EXTRACT: note_off channel=9 note=46 velocity=64 time=0
EXTRACT: note_off channel=4 note=62 velocity=64 time=0
EXTRACT: note_off channel=4 note=55 velocity=64 time=0
EXTRACT: note_off channel=5 note=62 velocity=64 time=0
EXTRACT: note_off channel=5 note=55 velocity=64 time=0
EXTRACT: note_off channel=6 note=79 velocity=64 time=0
EXTRACT: note_on channel=1 note=61 velocity=100 time=0.021739124999999998
EXTRACT: note_on channel=1 note=57 velocity=100 time=0
EXTRACT: note_on channel=2 note=45 velocity=100 time=0
EXTRACT: note_on channel=9 note=45 velocity=98 time=0
EXTRACT: note_on channel=9 note=46 velocity=34 time=0
EXTRACT: note_on channel=4 note=61 velocity=100 time=0
EXTRACT: note_on channel=4 note=57 velocity=100 time=0
EXTRACT: note_on channel=5 note=61 velocity=100 time=0
EXTRACT: note_on channel=5 note=57 velocity=100 time=0
EXTRACT: note_on channel=6 note=85 velocity=100 time=0
EXTRACT: note_off channel=9 note=45 velocity=64 time=0.10869562499999999
EXTRACT: note_off channel=9 note=46 velocity=64 time=0
EXTRACT: note_on channel=9 note=46 velocity=34 time=0.021739124999999998
EXTRACT: note_off channel=2 note=45 velocity=64 time=0.10869562499999999
EXTRACT: note_off channel=9 note=46 velocity=64 time=0
EXTRACT: note_on channel=2 note=45 velocity=100 time=0.021739124999999998
EXTRACT: note_on channel=9 note=46 velocity=34 time=0
EXTRACT: note_off channel=9 note=46 velocity=64 time=0.10869562499999999
EXTRACT: note_on channel=9 note=46 velocity=34 time=0.021739124999999998
EXTRACT: note_off channel=2 note=45 velocity=64 time=0.10869562499999999
EXTRACT: note_off channel=9 note=46 velocity=64 time=0
EXTRACT: note_off channel=6 note=85 velocity=64 time=0
EXTRACT: note_on channel=2 note=45 velocity=100 time=0.021739124999999998
EXTRACT: note_on channel=9 note=45 velocity=95 time=0
EXTRACT: note_on channel=9 note=46 velocity=34 time=0
EXTRACT: note_on channel=6 note=85 velocity=100 time=0
EXTRACT: note_off channel=9 note=45 velocity=64 time=0.10869562499999999
EXTRACT: note_off channel=9 note=46 velocity=64 time=0
EXTRACT: note_on channel=9 note=46 velocity=34 time=0.021739124999999998
EXTRACT: note_off channel=2 note=45 velocity=64 time=0.10869562499999999
EXTRACT: note_off channel=9 note=46 velocity=64 time=0
EXTRACT: note_on channel=2 note=45 velocity=100 time=0.021739124999999998
EXTRACT: note_on channel=9 note=46 velocity=34 time=0
EXTRACT: note_off channel=9 note=46 velocity=64 time=0.10869562499999999
EXTRACT: note_on channel=9 note=46 velocity=34 time=0.021739124999999998
EXTRACT: note_off channel=1 note=61 velocity=64 time=0.10869562499999999
EXTRACT: note_off channel=1 note=57 velocity=64 time=0
EXTRACT: note_off channel=2 note=45 velocity=64 time=0
EXTRACT: note_off channel=9 note=46 velocity=64 time=0
EXTRACT: note_off channel=4 note=61 velocity=64 time=0
EXTRACT: note_off channel=4 note=57 velocity=64 time=0
EXTRACT: note_off channel=5 note=61 velocity=64 time=0
EXTRACT: note_off channel=5 note=57 velocity=64 time=0
EXTRACT: note_off channel=6 note=85 velocity=64 time=0
EXTRACT: note_on channel=1 note=64 velocity=100 time=0.021739124999999998
EXTRACT: note_on channel=1 note=57 velocity=100 time=0
EXTRACT: note_on channel=2 note=43 velocity=100 time=0
EXTRACT: note_on channel=9 note=45 velocity=98 time=0
EXTRACT: note_on channel=9 note=46 velocity=34 time=0
EXTRACT: note_on channel=4 note=64 velocity=100 time=0
EXTRACT: note_on channel=4 note=57 velocity=100 time=0
EXTRACT: note_on channel=5 note=64 velocity=100 time=0
EXTRACT: note_on channel=5 note=57 velocity=100 time=0
EXTRACT: note_on channel=6 note=88 velocity=100 time=0
EXTRACT: note_off channel=9 note=45 velocity=64 time=0.10869562499999999
EXTRACT: note_off channel=9 note=46 velocity=64 time=0
EXTRACT: note_on channel=9 note=46 velocity=34 time=0.021739124999999998
EXTRACT: note_off channel=2 note=43 velocity=64 time=0.10869562499999999
EXTRACT: note_off channel=9 note=46 velocity=64 time=0
EXTRACT: note_on channel=2 note=43 velocity=100 time=0.021739124999999998
EXTRACT: note_on channel=9 note=46 velocity=34 time=0
EXTRACT: note_off channel=9 note=46 velocity=64 time=0.10869562499999999
EXTRACT: note_on channel=9 note=46 velocity=34 time=0.021739124999999998
EXTRACT: note_off channel=2 note=43 velocity=64 time=0.10869562499999999
EXTRACT: note_off channel=9 note=46 velocity=64 time=0
EXTRACT: note_off channel=6 note=88 velocity=64 time=0
EXTRACT: note_on channel=2 note=43 velocity=100 time=0.021739124999999998
EXTRACT: note_on channel=9 note=45 velocity=95 time=0
EXTRACT: note_on channel=9 note=46 velocity=34 time=0
EXTRACT: note_on channel=6 note=79 velocity=100 time=0
EXTRACT: note_off channel=9 note=45 velocity=64 time=0.10869562499999999
EXTRACT: note_off channel=9 note=46 velocity=64 time=0
EXTRACT: note_on channel=9 note=46 velocity=34 time=0.021739124999999998
EXTRACT: note_off channel=2 note=43 velocity=64 time=0.10869562499999999
EXTRACT: note_off channel=9 note=46 velocity=64 time=0
EXTRACT: note_off channel=6 note=79 velocity=64 time=0
EXTRACT: note_on channel=2 note=43 velocity=100 time=0.021739124999999998
EXTRACT: note_on channel=9 note=46 velocity=34 time=0
EXTRACT: note_on channel=6 note=79 velocity=100 time=0
EXTRACT: note_off channel=9 note=46 velocity=64 time=0.10869562499999999
EXTRACT: note_on channel=9 note=46 velocity=34 time=0.021739124999999998
EXTRACT: note_off channel=1 note=64 velocity=64 time=0.10869562499999999
EXTRACT: note_off channel=1 note=57 velocity=64 time=0
EXTRACT: note_off channel=2 note=43 velocity=64 time=0
EXTRACT: note_off channel=9 note=46 velocity=64 time=0
EXTRACT: note_off channel=4 note=64 velocity=64 time=0
EXTRACT: note_off channel=4 note=57 velocity=64 time=0
EXTRACT: note_off channel=5 note=64 velocity=64 time=0
EXTRACT: note_off channel=5 note=57 velocity=64 time=0
EXTRACT: note_on channel=1 note=57 velocity=100 time=0.021739124999999998
EXTRACT: note_on channel=1 note=53 velocity=100 time=0
EXTRACT: note_on channel=2 note=41 velocity=100 time=0
EXTRACT: note_on channel=9 note=45 velocity=98 time=0
EXTRACT: note_on channel=9 note=46 velocity=34 time=0
EXTRACT: note_on channel=4 note=57 velocity=100 time=0
EXTRACT: note_on channel=4 note=53 velocity=100 time=0
EXTRACT: note_on channel=5 note=57 velocity=100 time=0
EXTRACT: note_on channel=5 note=53 velocity=100 time=0
EXTRACT: note_off channel=9 note=45 velocity=64 time=0.10869562499999999
EXTRACT: note_off channel=9 note=46 velocity=64 time=0
EXTRACT: note_on channel=9 note=46 velocity=34 time=0.021739124999999998
EXTRACT: note_off channel=2 note=41 velocity=64 time=0.10869562499999999
EXTRACT: note_off channel=9 note=46 velocity=64 time=0
EXTRACT: note_off channel=6 note=79 velocity=64 time=0
EXTRACT: note_on channel=2 note=41 velocity=100 time=0.021739124999999998
EXTRACT: note_on channel=9 note=46 velocity=34 time=0
EXTRACT: note_on channel=6 note=77 velocity=100 time=0
EXTRACT: note_off channel=9 note=46 velocity=64 time=0.10869562499999999
EXTRACT: note_on channel=9 note=46 velocity=34 time=0.021739124999999998
EXTRACT: note_off channel=2 note=41 velocity=64 time=0.10869562499999999
EXTRACT: note_off channel=9 note=46 velocity=64 time=0
EXTRACT: note_off channel=6 note=77 velocity=64 time=0
EXTRACT: note_on channel=2 note=41 velocity=100 time=0.021739124999999998
EXTRACT: note_on channel=9 note=45 velocity=95 time=0
EXTRACT: note_on channel=9 note=46 velocity=34 time=0
EXTRACT: note_on channel=6 note=74 velocity=100 time=0
EXTRACT: note_off channel=9 note=45 velocity=64 time=0.10869562499999999
EXTRACT: note_off channel=9 note=46 velocity=64 time=0
EXTRACT: note_on channel=9 note=46 velocity=34 time=0.021739124999999998
EXTRACT: note_off channel=2 note=41 velocity=64 time=0.10869562499999999
EXTRACT: note_off channel=9 note=46 velocity=64 time=0
EXTRACT: note_on channel=2 note=41 velocity=100 time=0.021739124999999998
EXTRACT: note_on channel=9 note=46 velocity=34 time=0
EXTRACT: note_off channel=9 note=46 velocity=64 time=0.10869562499999999
EXTRACT: note_on channel=9 note=46 velocity=34 time=0.021739124999999998
EXTRACT: note_off channel=2 note=41 velocity=64 time=0.10869562499999999
EXTRACT: note_off channel=9 note=46 velocity=64 time=0
EXTRACT: note_off channel=6 note=74 velocity=64 time=0
EXTRACT: note_on channel=2 note=41 velocity=100 time=0.021739124999999998
EXTRACT: note_on channel=9 note=45 velocity=98 time=0
EXTRACT: note_on channel=9 note=46 velocity=34 time=0
EXTRACT: note_off channel=9 note=45 velocity=64 time=0.10869562499999999
EXTRACT: note_off channel=9 note=46 velocity=64 time=0
EXTRACT: note_on channel=9 note=46 velocity=34 time=0.021739124999999998
EXTRACT: note_off channel=2 note=41 velocity=64 time=0.10869562499999999
EXTRACT: note_off channel=9 note=46 velocity=64 time=0
EXTRACT: note_on channel=2 note=38 velocity=100 time=0.021739124999999998
EXTRACT: note_on channel=9 note=46 velocity=34 time=0
EXTRACT: note_on channel=6 note=74 velocity=100 time=0
EXTRACT: note_off channel=9 note=46 velocity=64 time=0.10869562499999999
EXTRACT: note_on channel=9 note=46 velocity=34 time=0.021739124999999998
EXTRACT: note_off channel=2 note=38 velocity=64 time=0.10869562499999999
EXTRACT: note_off channel=9 note=46 velocity=64 time=0
EXTRACT: note_on channel=2 note=41 velocity=100 time=0.021739124999999998
EXTRACT: note_on channel=9 note=45 velocity=95 time=0
EXTRACT: note_on channel=9 note=46 velocity=34 time=0
EXTRACT: note_off channel=9 note=45 velocity=64 time=0.10869562499999999
EXTRACT: note_off channel=9 note=46 velocity=64 time=0
EXTRACT: note_on channel=9 note=46 velocity=34 time=0.021739124999999998
EXTRACT: note_off channel=2 note=41 velocity=64 time=0.10869562499999999
EXTRACT: note_off channel=9 note=46 velocity=64 time=0
EXTRACT: note_off channel=6 note=74 velocity=64 time=0
EXTRACT: note_on channel=2 note=38 velocity=100 time=0.021739124999999998
EXTRACT: note_on channel=9 note=46 velocity=34 time=0
EXTRACT: note_on channel=6 note=74 velocity=100 time=0
EXTRACT: note_off channel=9 note=46 velocity=64 time=0.10869562499999999
EXTRACT: note_on channel=9 note=46 velocity=34 time=0.021739124999999998
EXTRACT: note_off channel=1 note=57 velocity=64 time=0.10869562499999999
EXTRACT: note_off channel=1 note=53 velocity=64 time=0
EXTRACT: note_off channel=2 note=38 velocity=64 time=0
EXTRACT: note_off channel=9 note=46 velocity=64 time=0
EXTRACT: note_off channel=4 note=57 velocity=64 time=0
EXTRACT: note_off channel=4 note=53 velocity=64 time=0
EXTRACT: note_off channel=5 note=57 velocity=64 time=0
EXTRACT: note_off channel=5 note=53 velocity=64 time=0
EXTRACT: note_off channel=6 note=74 velocity=64 time=0
EXTRACT: note_on channel=1 note=59 velocity=100 time=0.021739124999999998
EXTRACT: note_on channel=1 note=55 velocity=100 time=0
EXTRACT: note_on channel=2 note=43 velocity=100 time=0
EXTRACT: note_on channel=9 note=45 velocity=98 time=0
EXTRACT: note_on channel=9 note=46 velocity=34 time=0
EXTRACT: note_on channel=4 note=59 velocity=100 time=0
EXTRACT: note_on channel=4 note=55 velocity=100 time=0
EXTRACT: note_on channel=5 note=59 velocity=100 time=0
EXTRACT: note_on channel=5 note=55 velocity=100 time=0
EXTRACT: note_on channel=6 note=79 velocity=100 time=0
EXTRACT: note_off channel=9 note=45 velocity=64 time=0.10869562499999999
EXTRACT: note_off channel=9 note=46 velocity=64 time=0
EXTRACT: note_on channel=9 note=46 velocity=34 time=0.021739124999999998
EXTRACT: note_off channel=2 note=43 velocity=64 time=0.10869562499999999
EXTRACT: note_off channel=9 note=46 velocity=64 time=0
EXTRACT: note_off channel=6 note=79 velocity=64 time=0
EXTRACT: note_on channel=2 note=43 velocity=100 time=0.021739124999999998
EXTRACT: note_on channel=9 note=46 velocity=34 time=0
EXTRACT: note_on channel=6 note=79 velocity=100 time=0
EXTRACT: note_off channel=9 note=46 velocity=64 time=0.10869562499999999
EXTRACT: note_on channel=9 note=46 velocity=34 time=0.021739124999999998
EXTRACT: note_off channel=2 note=43 velocity=64 time=0.10869562499999999
EXTRACT: note_off channel=9 note=46 velocity=64 time=0
EXTRACT: note_off channel=6 note=79 velocity=64 time=0
EXTRACT: note_on channel=2 note=43 velocity=100 time=0.021739124999999998
EXTRACT: note_on channel=9 note=45 velocity=95 time=0
EXTRACT: note_on channel=9 note=46 velocity=34 time=0
EXTRACT: note_on channel=6 note=77 velocity=100 time=0
EXTRACT: note_off channel=9 note=45 velocity=64 time=0.10869562499999999
EXTRACT: note_off channel=9 note=46 velocity=64 time=0
EXTRACT: note_on channel=9 note=46 velocity=34 time=0.021739124999999998
EXTRACT: note_off channel=2 note=43 velocity=64 time=0.10869562499999999
EXTRACT: note_off channel=9 note=46 velocity=64 time=0
EXTRACT: note_off channel=6 note=77 velocity=64 time=0
EXTRACT: note_on channel=2 note=43 velocity=100 time=0.021739124999999998
EXTRACT: note_on channel=9 note=46 velocity=34 time=0
EXTRACT: note_on channel=6 note=79 velocity=100 time=0
EXTRACT: note_off channel=9 note=46 velocity=64 time=0.10869562499999999
EXTRACT: note_on channel=9 note=46 velocity=34 time=0.021739124999999998
EXTRACT: note_off channel=2 note=43 velocity=64 time=0.10869562499999999
EXTRACT: note_off channel=9 note=46 velocity=64 time=0
EXTRACT: note_on channel=2 note=43 velocity=100 time=0.021739124999999998
EXTRACT: note_on channel=9 note=45 velocity=98 time=0
EXTRACT: note_on channel=9 note=46 velocity=34 time=0
EXTRACT: note_off channel=9 note=45 velocity=64 time=0.10869562499999999
EXTRACT: note_off channel=9 note=46 velocity=64 time=0
EXTRACT: note_on channel=9 note=46 velocity=34 time=0.021739124999999998
EXTRACT: note_off channel=2 note=43 velocity=64 time=0.10869562499999999
EXTRACT: note_off channel=9 note=46 velocity=64 time=0
EXTRACT: note_off channel=6 note=79 velocity=64 time=0
EXTRACT: note_on channel=2 note=43 velocity=100 time=0.021739124999999998
EXTRACT: note_on channel=9 note=46 velocity=34 time=0
EXTRACT: note_on channel=6 note=79 velocity=100 time=0
EXTRACT: note_off channel=9 note=46 velocity=64 time=0.10869562499999999
EXTRACT: note_on channel=9 note=46 velocity=34 time=0.021739124999999998
EXTRACT: note_off channel=2 note=43 velocity=64 time=0.10869562499999999
EXTRACT: note_off channel=9 note=46 velocity=64 time=0
EXTRACT: note_off channel=6 note=79 velocity=64 time=0
EXTRACT: note_on channel=2 note=43 velocity=100 time=0.021739124999999998
EXTRACT: note_on channel=9 note=45 velocity=95 time=0
EXTRACT: note_on channel=9 note=46 velocity=34 time=0
EXTRACT: note_on channel=6 note=77 velocity=100 time=0
EXTRACT: note_off channel=9 note=45 velocity=64 time=0.10869562499999999
EXTRACT: note_off channel=9 note=46 velocity=64 time=0
EXTRACT: note_on channel=9 note=46 velocity=34 time=0.021739124999999998
EXTRACT: note_off channel=2 note=43 velocity=64 time=0.10869562499999999
EXTRACT: note_off channel=9 note=46 velocity=64 time=0
EXTRACT: note_off channel=6 note=77 velocity=64 time=0
EXTRACT: note_on channel=2 note=43 velocity=100 time=0.021739124999999998
EXTRACT: note_on channel=9 note=46 velocity=34 time=0
EXTRACT: note_on channel=6 note=79 velocity=100 time=0
EXTRACT: note_off channel=9 note=46 velocity=64 time=0.10869562499999999
EXTRACT: note_on channel=9 note=46 velocity=34 time=0.021739124999999998
EXTRACT: note_off channel=1 note=59 velocity=64 time=0.10869562499999999
EXTRACT: note_off channel=1 note=55 velocity=64 time=0
EXTRACT: note_off channel=2 note=43 velocity=64 time=0
EXTRACT: note_off channel=9 note=46 velocity=64 time=0
EXTRACT: note_off channel=4 note=59 velocity=64 time=0
EXTRACT: note_off channel=4 note=55 velocity=64 time=0
EXTRACT: note_off channel=5 note=59 velocity=64 time=0
EXTRACT: note_off channel=5 note=55 velocity=64 time=0
EXTRACT: note_off channel=6 note=79 velocity=64 time=0
EXTRACT: note_on channel=1 note=57 velocity=100 time=0.021739124999999998
EXTRACT: note_on channel=1 note=61 velocity=100 time=0
EXTRACT: note_on channel=2 note=45 velocity=100 time=0
EXTRACT: note_on channel=9 note=45 velocity=98 time=0
EXTRACT: note_on channel=9 note=46 velocity=34 time=0
EXTRACT: note_on channel=4 note=57 velocity=100 time=0
EXTRACT: note_on channel=4 note=61 velocity=100 time=0
EXTRACT: note_on channel=5 note=57 velocity=100 time=0
EXTRACT: note_on channel=5 note=61 velocity=100 time=0
EXTRACT: note_on channel=6 note=79 velocity=100 time=0
EXTRACT: note_off channel=9 note=45 velocity=64 time=0.10869562499999999
EXTRACT: note_off channel=9 note=46 velocity=64 time=0
EXTRACT: note_on channel=9 note=46 velocity=34 time=0.021739124999999998
EXTRACT: note_off channel=2 note=45 velocity=64 time=0.10869562499999999
EXTRACT: note_off channel=9 note=46 velocity=64 time=0
EXTRACT: note_off channel=6 note=79 velocity=64 time=0
EXTRACT: note_on channel=2 note=45 velocity=100 time=0.021739124999999998
EXTRACT: note_on channel=9 note=46 velocity=34 time=0
EXTRACT: note_on channel=6 note=79 velocity=100 time=0
EXTRACT: note_off channel=9 note=46 velocity=64 time=0.10869562499999999
EXTRACT: note_on channel=9 note=46 velocity=34 time=0.021739124999999998
EXTRACT: note_off channel=2 note=45 velocity=64 time=0.10869562499999999
EXTRACT: note_off channel=9 note=46 velocity=64 time=0
EXTRACT: note_off channel=6 note=79 velocity=64 time=0
EXTRACT: note_on channel=2 note=45 velocity=100 time=0.021739124999999998
EXTRACT: note_on channel=9 note=45 velocity=95 time=0
EXTRACT: note_on channel=9 note=46 velocity=34 time=0
EXTRACT: note_on channel=6 note=77 velocity=100 time=0
EXTRACT: note_off channel=9 note=45 velocity=64 time=0.10869562499999999
EXTRACT: note_off channel=9 note=46 velocity=64 time=0
EXTRACT: note_on channel=9 note=46 velocity=34 time=0.021739124999999998
EXTRACT: note_off channel=2 note=45 velocity=64 time=0.10869562499999999
EXTRACT: note_off channel=9 note=46 velocity=64 time=0
EXTRACT: note_off channel=6 note=77 velocity=64 time=0
EXTRACT: note_on channel=2 note=45 velocity=100 time=0.021739124999999998
EXTRACT: note_on channel=9 note=46 velocity=34 time=0
EXTRACT: note_on channel=6 note=79 velocity=100 time=0
EXTRACT: note_off channel=9 note=46 velocity=64 time=0.10869562499999999
EXTRACT: note_on channel=9 note=46 velocity=34 time=0.021739124999999998
EXTRACT: note_off channel=2 note=45 velocity=64 time=0.10869562499999999
EXTRACT: note_off channel=9 note=46 velocity=64 time=0
EXTRACT: note_off channel=6 note=79 velocity=64 time=0
EXTRACT: note_on channel=2 note=45 velocity=100 time=0.021739124999999998
EXTRACT: note_on channel=9 note=45 velocity=98 time=0
EXTRACT: note_on channel=9 note=46 velocity=34 time=0
EXTRACT: note_off channel=9 note=45 velocity=64 time=0.10869562499999999
EXTRACT: note_off channel=9 note=46 velocity=64 time=0
EXTRACT: note_on channel=9 note=46 velocity=34 time=0.021739124999999998
EXTRACT: note_off channel=2 note=45 velocity=64 time=0.10869562499999999
EXTRACT: note_off channel=9 note=46 velocity=64 time=0
EXTRACT: note_on channel=2 note=45 velocity=100 time=0.021739124999999998
EXTRACT: note_on channel=9 note=46 velocity=34 time=0
EXTRACT: note_on channel=6 note=81 velocity=100 time=0
EXTRACT: note_off channel=9 note=46 velocity=64 time=0.10869562499999999
EXTRACT: note_on channel=9 note=46 velocity=34 time=0.021739124999999998
EXTRACT: note_off channel=2 note=45 velocity=64 time=0.10869562499999999
EXTRACT: note_off channel=9 note=46 velocity=64 time=0
EXTRACT: note_off channel=6 note=81 velocity=64 time=0
EXTRACT: note_on channel=2 note=45 velocity=100 time=0.021739124999999998
EXTRACT: note_on channel=9 note=45 velocity=95 time=0
EXTRACT: note_on channel=9 note=46 velocity=34 time=0
EXTRACT: note_on channel=6 note=81 velocity=100 time=0
EXTRACT: note_off channel=9 note=45 velocity=64 time=0.10869562499999999
EXTRACT: note_off channel=9 note=46 velocity=64 time=0
EXTRACT: note_on channel=9 note=46 velocity=34 time=0.021739124999999998
EXTRACT: note_off channel=2 note=45 velocity=64 time=0.10869562499999999
EXTRACT: note_off channel=9 note=46 velocity=64 time=0
EXTRACT: note_off channel=6 note=81 velocity=64 time=0
EXTRACT: note_on channel=2 note=45 velocity=100 time=0.021739124999999998
EXTRACT: note_on channel=9 note=46 velocity=34 time=0
EXTRACT: note_on channel=6 note=81 velocity=100 time=0
EXTRACT: note_off channel=9 note=46 velocity=64 time=0.10869562499999999
EXTRACT: note_on channel=9 note=46 velocity=34 time=0.021739124999999998
EXTRACT: note_off channel=1 note=57 velocity=64 time=0.10869562499999999
EXTRACT: note_off channel=1 note=61 velocity=64 time=0
EXTRACT: note_off channel=2 note=45 velocity=64 time=0
EXTRACT: note_off channel=9 note=46 velocity=64 time=0
EXTRACT: note_off channel=4 note=57 velocity=64 time=0
EXTRACT: note_off channel=4 note=61 velocity=64 time=0
EXTRACT: note_off channel=5 note=57 velocity=64 time=0
EXTRACT: note_off channel=5 note=61 velocity=64 time=0
EXTRACT: note_off channel=6 note=81 velocity=64 time=0
EXTRACT: note_on channel=1 note=57 velocity=100 time=0.021739124999999998
EXTRACT: note_on channel=1 note=50 velocity=100 time=0
EXTRACT: note_on channel=2 note=38 velocity=100 time=0
EXTRACT: note_on channel=4 note=50 velocity=100 time=0
EXTRACT: note_on channel=4 note=57 velocity=100 time=0
EXTRACT: note_on channel=5 note=57 velocity=100 time=0
EXTRACT: note_on channel=5 note=50 velocity=100 time=0
EXTRACT: note_on channel=5 note=65 velocity=100 time=0
EXTRACT: note_on channel=6 note=79 velocity=100 time=0
EXTRACT: note_off channel=1 note=57 velocity=64 time=0.23913037499999998
EXTRACT: note_off channel=1 note=50 velocity=64 time=0
EXTRACT: note_off channel=2 note=38 velocity=64 time=0
EXTRACT: note_off channel=5 note=57 velocity=64 time=0
EXTRACT: note_off channel=5 note=50 velocity=64 time=0
EXTRACT: note_off channel=5 note=65 velocity=64 time=0
EXTRACT: note_off channel=6 note=79 velocity=64 time=0
EXTRACT: note_on channel=5 note=62 velocity=100 time=0.021739124999999998
EXTRACT: note_on channel=6 note=77 velocity=100 time=0
EXTRACT: note_off channel=5 note=62 velocity=64 time=0.23913037499999998
EXTRACT: note_off channel=6 note=77 velocity=64 time=0
EXTRACT: note_on channel=5 note=57 velocity=100 time=0.021739124999999998
EXTRACT: note_on channel=6 note=81 velocity=100 time=0
EXTRACT: note_off channel=5 note=57 velocity=64 time=0.23913037499999998
EXTRACT: note_off channel=6 note=81 velocity=64 time=0
EXTRACT: note_on channel=5 note=65 velocity=100 time=0.021739124999999998
EXTRACT: note_off channel=5 note=65 velocity=64 time=0.23913037499999998
EXTRACT: note_on channel=5 note=62 velocity=100 time=0.021739124999999998
EXTRACT: note_off channel=5 note=62 velocity=64 time=0.23913037499999998
EXTRACT: note_on channel=5 note=57 velocity=100 time=0.021739124999999998
EXTRACT: note_off channel=5 note=57 velocity=64 time=0.23913037499999998
EXTRACT: note_on channel=5 note=65 velocity=100 time=0.021739124999999998
EXTRACT: note_off channel=5 note=65 velocity=64 time=0.23913037499999998
EXTRACT: note_on channel=5 note=62 velocity=100 time=0.021739124999999998
EXTRACT: note_off channel=5 note=62 velocity=64 time=0.23913037499999998
EXTRACT: note_on channel=5 note=65 velocity=100 time=0.021739124999999998
EXTRACT: note_off channel=5 note=65 velocity=64 time=0.23913037499999998
EXTRACT: note_on channel=5 note=62 velocity=100 time=0.021739124999999998
EXTRACT: note_off channel=5 note=62 velocity=64 time=0.23913037499999998
EXTRACT: note_on channel=5 note=57 velocity=100 time=0.021739124999999998
EXTRACT: note_off channel=5 note=57 velocity=64 time=0.23913037499999998
EXTRACT: note_on channel=5 note=65 velocity=100 time=0.021739124999999998
EXTRACT: note_off channel=5 note=65 velocity=64 time=0.23913037499999998
EXTRACT: note_on channel=5 note=62 velocity=100 time=0.021739124999999998
EXTRACT: note_off channel=5 note=62 velocity=64 time=0.23913037499999998
EXTRACT: note_on channel=5 note=57 velocity=100 time=0.021739124999999998
EXTRACT: note_off channel=5 note=57 velocity=64 time=0.23913037499999998
EXTRACT: note_on channel=5 note=65 velocity=100 time=0.021739124999999998
EXTRACT: note_off channel=5 note=65 velocity=64 time=0.23913037499999998
EXTRACT: note_on channel=5 note=67 velocity=100 time=0.021739124999999998
EXTRACT: note_off channel=4 note=57 velocity=64 time=0.23913037499999998
EXTRACT: note_off channel=4 note=50 velocity=64 time=0
EXTRACT: note_off channel=5 note=67 velocity=64 time=0
EXTRACT: note_on channel=4 note=57 velocity=100 time=0.021739124999999998
EXTRACT: note_on channel=4 note=52 velocity=100 time=0
EXTRACT: note_on channel=5 note=64 velocity=100 time=0
EXTRACT: note_off channel=5 note=64 velocity=64 time=0.23913037499999998
EXTRACT: note_on channel=5 note=60 velocity=100 time=0.021739124999999998
EXTRACT: note_off channel=5 note=60 velocity=64 time=0.23913037499999998
EXTRACT: note_on channel=5 note=57 velocity=100 time=0.021739124999999998
EXTRACT: note_off channel=5 note=57 velocity=64 time=0.23913037499999998
EXTRACT: note_on channel=5 note=64 velocity=100 time=0.021739124999999998
EXTRACT: note_off channel=5 note=64 velocity=64 time=0.23913037499999998
EXTRACT: note_on channel=5 note=60 velocity=100 time=0.021739124999999998
EXTRACT: note_off channel=5 note=60 velocity=64 time=0.23913037499999998
EXTRACT: note_on channel=5 note=57 velocity=100 time=0.021739124999999998
EXTRACT: note_off channel=5 note=57 velocity=64 time=0.23913037499999998
EXTRACT: note_on channel=5 note=64 velocity=100 time=0.021739124999999998
EXTRACT: note_off channel=5 note=64 velocity=64 time=0.23913037499999998
EXTRACT: note_on channel=5 note=60 velocity=100 time=0.021739124999999998
EXTRACT: note_off channel=5 note=60 velocity=64 time=0.23913037499999998
EXTRACT: note_on channel=5 note=64 velocity=100 time=0.021739124999999998
EXTRACT: note_off channel=5 note=64 velocity=64 time=0.23913037499999998
EXTRACT: note_on channel=5 note=60 velocity=100 time=0.021739124999999998
EXTRACT: note_off channel=5 note=60 velocity=64 time=0.23913037499999998
EXTRACT: note_on channel=5 note=57 velocity=100 time=0.021739124999999998
EXTRACT: note_off channel=5 note=57 velocity=64 time=0.23913037499999998
EXTRACT: note_on channel=5 note=64 velocity=100 time=0.021739124999999998
EXTRACT: note_off channel=5 note=64 velocity=64 time=0.23913037499999998
EXTRACT: note_on channel=5 note=60 velocity=100 time=0.021739124999999998
EXTRACT: note_off channel=5 note=60 velocity=64 time=0.23913037499999998
EXTRACT: note_on channel=5 note=57 velocity=100 time=0.021739124999999998
EXTRACT: note_off channel=5 note=57 velocity=64 time=0.23913037499999998
EXTRACT: note_on channel=5 note=64 velocity=100 time=0.021739124999999998
EXTRACT: note_off channel=5 note=64 velocity=64 time=0.23913037499999998
EXTRACT: note_on channel=5 note=60 velocity=100 time=0.021739124999999998
EXTRACT: note_off channel=4 note=52 velocity=64 time=0.23913037499999998
EXTRACT: note_off channel=4 note=57 velocity=64 time=0
EXTRACT: note_off channel=5 note=60 velocity=64 time=0
EXTRACT: note_on channel=2 note=38 velocity=75 time=0.021739124999999998
EXTRACT: note_on channel=9 note=45 velocity=98 time=0
EXTRACT: note_on channel=9 note=46 velocity=36 time=0
EXTRACT: note_on channel=4 note=57 velocity=100 time=0
EXTRACT: note_on channel=4 note=50 velocity=100 time=0
EXTRACT: note_on channel=5 note=65 velocity=100 time=0
EXTRACT: note_on channel=6 note=77 velocity=100 time=0
EXTRACT: note_off channel=9 note=45 velocity=64 time=0.10869562499999999
EXTRACT: note_off channel=9 note=46 velocity=64 time=0
EXTRACT: note_on channel=9 note=46 velocity=36 time=0.021739124999999998
EXTRACT: note_off channel=2 note=38 velocity=64 time=0.10869562499999999
EXTRACT: note_off channel=9 note=46 velocity=64 time=0
EXTRACT: note_off channel=5 note=65 velocity=64 time=0
EXTRACT: note_off channel=6 note=77 velocity=64 time=0
EXTRACT: note_on channel=2 note=38 velocity=75 time=0.021739124999999998
EXTRACT: note_on channel=9 note=46 velocity=36 time=0
EXTRACT: note_on channel=5 note=62 velocity=100 time=0
EXTRACT: note_on channel=6 note=77 velocity=100 time=0
EXTRACT: note_off channel=9 note=46 velocity=64 time=0.10869562499999999
EXTRACT: note_on channel=9 note=46 velocity=36 time=0.021739124999999998
EXTRACT: note_off channel=2 note=38 velocity=64 time=0.10869562499999999
EXTRACT: note_off channel=9 note=46 velocity=64 time=0
EXTRACT: note_off channel=5 note=62 velocity=64 time=0
EXTRACT: note_off channel=6 note=77 velocity=64 time=0
EXTRACT: note_on channel=2 note=38 velocity=75 time=0.021739124999999998
EXTRACT: note_on channel=9 note=45 velocity=95 time=0
EXTRACT: note_on channel=9 note=46 velocity=36 time=0
EXTRACT: note_on channel=5 note=57 velocity=100 time=0
EXTRACT: note_on channel=6 note=69 velocity=100 time=0
EXTRACT: note_off channel=9 note=45 velocity=64 time=0.10869562499999999
EXTRACT: note_off channel=9 note=46 velocity=64 time=0
EXTRACT: note_on channel=9 note=46 velocity=36 time=0.021739124999999998
EXTRACT: note_off channel=2 note=38 velocity=64 time=0.10869562499999999
EXTRACT: note_off channel=9 note=46 velocity=64 time=0
EXTRACT: note_off channel=5 note=57 velocity=64 time=0
EXTRACT: note_off channel=6 note=69 velocity=64 time=0
EXTRACT: note_on channel=2 note=38 velocity=75 time=0.021739124999999998
EXTRACT: note_on channel=9 note=46 velocity=36 time=0
EXTRACT: note_on channel=5 note=65 velocity=100 time=0
EXTRACT: note_off channel=9 note=46 velocity=64 time=0.10869562499999999
EXTRACT: note_on channel=9 note=46 velocity=36 time=0.021739124999999998
EXTRACT: note_off channel=2 note=38 velocity=64 time=0.10869562499999999
EXTRACT: note_off channel=9 note=46 velocity=64 time=0
EXTRACT: note_off channel=5 note=65 velocity=64 time=0
EXTRACT: note_on channel=2 note=38 velocity=75 time=0.021739124999999998
EXTRACT: note_on channel=9 note=45 velocity=98 time=0
EXTRACT: note_on channel=9 note=46 velocity=36 time=0
EXTRACT: note_on channel=5 note=62 velocity=100 time=0
EXTRACT: note_on channel=6 note=77 velocity=100 time=0
EXTRACT: note_off channel=9 note=45 velocity=64 time=0.10869562499999999
EXTRACT: note_off channel=9 note=46 velocity=64 time=0
EXTRACT: note_on channel=9 note=46 velocity=36 time=0.021739124999999998
EXTRACT: note_off channel=2 note=38 velocity=64 time=0.10869562499999999
EXTRACT: note_off channel=9 note=46 velocity=64 time=0
EXTRACT: note_off channel=5 note=62 velocity=64 time=0
EXTRACT: note_off channel=6 note=77 velocity=64 time=0
EXTRACT: note_on channel=2 note=38 velocity=75 time=0.021739124999999998
EXTRACT: note_on channel=9 note=46 velocity=35 time=0
EXTRACT: note_on channel=5 note=57 velocity=100 time=0
EXTRACT: note_on channel=6 note=77 velocity=100 time=0
EXTRACT: note_off channel=9 note=46 velocity=64 time=0.10869562499999999
EXTRACT: note_on channel=9 note=46 velocity=36 time=0.021739124999999998
EXTRACT: note_off channel=2 note=38 velocity=64 time=0.10869562499999999
EXTRACT: note_off channel=9 note=46 velocity=64 time=0
EXTRACT: note_off channel=5 note=57 velocity=64 time=0
EXTRACT: note_off channel=6 note=77 velocity=64 time=0
EXTRACT: note_on channel=2 note=38 velocity=75 time=0.021739124999999998
EXTRACT: note_on channel=9 note=45 velocity=95 time=0
EXTRACT: note_on channel=9 note=46 velocity=36 time=0
EXTRACT: note_on channel=5 note=65 velocity=100 time=0
EXTRACT: note_on channel=6 note=69 velocity=100 time=0
EXTRACT: note_off channel=9 note=45 velocity=64 time=0.10869562499999999
EXTRACT: note_off channel=9 note=46 velocity=64 time=0
EXTRACT: note_on channel=9 note=46 velocity=34 time=0.021739124999999998
EXTRACT: note_off channel=2 note=38 velocity=64 time=0.10869562499999999
EXTRACT: note_off channel=9 note=46 velocity=64 time=0
EXTRACT: note_off channel=5 note=65 velocity=64 time=0
EXTRACT: note_off channel=6 note=69 velocity=64 time=0
EXTRACT: note_on channel=2 note=38 velocity=75 time=0.021739124999999998
EXTRACT: note_on channel=9 note=46 velocity=36 time=0
EXTRACT: note_on channel=5 note=62 velocity=100 time=0
EXTRACT: note_off channel=9 note=46 velocity=64 time=0.10869562499999999
EXTRACT: note_on channel=9 note=46 velocity=36 time=0.021739124999999998
EXTRACT: note_off channel=2 note=38 velocity=64 time=0.10869562499999999
EXTRACT: note_off channel=9 note=46 velocity=64 time=0
EXTRACT: note_off channel=5 note=62 velocity=64 time=0
EXTRACT: note_on channel=2 note=38 velocity=75 time=0.021739124999999998
EXTRACT: note_on channel=9 note=45 velocity=98 time=0
EXTRACT: note_on channel=9 note=46 velocity=36 time=0
EXTRACT: note_on channel=5 note=65 velocity=100 time=0
EXTRACT: note_on channel=6 note=77 velocity=100 time=0
EXTRACT: note_off channel=9 note=45 velocity=64 time=0.10869562499999999
EXTRACT: note_off channel=9 note=46 velocity=64 time=0
EXTRACT: note_on channel=9 note=46 velocity=36 time=0.021739124999999998
EXTRACT: note_off channel=2 note=38 velocity=64 time=0.10869562499999999
EXTRACT: note_off channel=9 note=46 velocity=64 time=0
EXTRACT: note_off channel=5 note=65 velocity=64 time=0
EXTRACT: note_off channel=6 note=77 velocity=64 time=0
EXTRACT: note_on channel=2 note=38 velocity=75 time=0.021739124999999998
EXTRACT: note_on channel=9 note=46 velocity=36 time=0
EXTRACT: note_on channel=5 note=62 velocity=100 time=0
EXTRACT: note_on channel=6 note=77 velocity=100 time=0
EXTRACT: note_off channel=9 note=46 velocity=64 time=0.10869562499999999
EXTRACT: note_on channel=9 note=46 velocity=36 time=0.021739124999999998
EXTRACT: note_off channel=2 note=38 velocity=64 time=0.10869562499999999
EXTRACT: note_off channel=9 note=46 velocity=64 time=0
EXTRACT: note_off channel=5 note=62 velocity=64 time=0
EXTRACT: note_off channel=6 note=77 velocity=64 time=0
EXTRACT: note_on channel=2 note=38 velocity=75 time=0.021739124999999998
EXTRACT: note_on channel=9 note=45 velocity=95 time=0
EXTRACT: note_on channel=9 note=46 velocity=36 time=0
EXTRACT: note_on channel=5 note=57 velocity=100 time=0
EXTRACT: note_on channel=6 note=77 velocity=100 time=0
EXTRACT: note_off channel=9 note=45 velocity=64 time=0.10869562499999999
EXTRACT: note_off channel=9 note=46 velocity=64 time=0
EXTRACT: note_on channel=9 note=46 velocity=36 time=0.021739124999999998
EXTRACT: note_off channel=2 note=38 velocity=64 time=0.10869562499999999
EXTRACT: note_off channel=9 note=46 velocity=64 time=0
EXTRACT: note_off channel=5 note=57 velocity=64 time=0
EXTRACT: note_off channel=6 note=77 velocity=64 time=0
EXTRACT: note_on channel=2 note=38 velocity=75 time=0.021739124999999998
EXTRACT: note_on channel=9 note=46 velocity=36 time=0
EXTRACT: note_on channel=5 note=65 velocity=100 time=0
EXTRACT: note_on channel=6 note=77 velocity=100 time=0
EXTRACT: note_off channel=9 note=46 velocity=64 time=0.10869562499999999
EXTRACT: note_on channel=9 note=46 velocity=34 time=0.021739124999999998
EXTRACT: note_off channel=2 note=38 velocity=64 time=0.10869562499999999
EXTRACT: note_off channel=9 note=46 velocity=64 time=0
EXTRACT: note_off channel=5 note=65 velocity=64 time=0
EXTRACT: note_off channel=6 note=77 velocity=64 time=0
EXTRACT: note_on channel=2 note=38 velocity=75 time=0.021739124999999998
EXTRACT: note_on channel=9 note=45 velocity=98 time=0
EXTRACT: note_on channel=9 note=46 velocity=36 time=0
EXTRACT: note_on channel=5 note=62 velocity=100 time=0
EXTRACT: note_on channel=6 note=77 velocity=100 time=0
EXTRACT: note_off channel=9 note=45 velocity=64 time=0.10869562499999999
EXTRACT: note_off channel=9 note=46 velocity=64 time=0
EXTRACT: note_on channel=9 note=46 velocity=36 time=0.021739124999999998
EXTRACT: note_off channel=2 note=38 velocity=64 time=0.10869562499999999
EXTRACT: note_off channel=9 note=46 velocity=64 time=0
EXTRACT: note_off channel=5 note=62 velocity=64 time=0
EXTRACT: note_off channel=6 note=77 velocity=64 time=0
EXTRACT: note_on channel=2 note=38 velocity=75 time=0.021739124999999998
EXTRACT: note_on channel=9 note=46 velocity=36 time=0
EXTRACT: note_on channel=5 note=57 velocity=100 time=0
EXTRACT: note_off channel=9 note=46 velocity=64 time=0.10869562499999999
EXTRACT: note_on channel=9 note=46 velocity=36 time=0.021739124999999998
EXTRACT: note_off channel=2 note=38 velocity=64 time=0.10869562499999999
EXTRACT: note_off channel=9 note=46 velocity=64 time=0
EXTRACT: note_off channel=5 note=57 velocity=64 time=0
EXTRACT: note_on channel=2 note=38 velocity=75 time=0.021739124999999998
EXTRACT: note_on channel=9 note=45 velocity=95 time=0
EXTRACT: note_on channel=9 note=46 velocity=36 time=0
EXTRACT: note_on channel=5 note=65 velocity=100 time=0
EXTRACT: note_on channel=6 note=79 velocity=100 time=0
EXTRACT: note_off channel=9 note=45 velocity=64 time=0.10869562499999999
EXTRACT: note_off channel=9 note=46 velocity=64 time=0
EXTRACT: note_on channel=9 note=46 velocity=34 time=0.021739124999999998
EXTRACT: note_off channel=2 note=38 velocity=64 time=0.10869562499999999
EXTRACT: note_off channel=9 note=46 velocity=64 time=0
EXTRACT: note_off channel=5 note=65 velocity=64 time=0
EXTRACT: note_on channel=2 note=38 velocity=75 time=0.021739124999999998
EXTRACT: note_on channel=9 note=46 velocity=36 time=0
EXTRACT: note_on channel=5 note=67 velocity=100 time=0
EXTRACT: note_off channel=9 note=46 velocity=64 time=0.10869562499999999
EXTRACT: note_on channel=9 note=46 velocity=36 time=0.021739124999999998
EXTRACT: note_off channel=2 note=38 velocity=64 time=0.10869562499999999
EXTRACT: note_off channel=9 note=46 velocity=64 time=0
EXTRACT: note_off channel=4 note=50 velocity=64 time=0
EXTRACT: note_off channel=4 note=57 velocity=64 time=0
EXTRACT: note_off channel=5 note=67 velocity=64 time=0
EXTRACT: note_off channel=6 note=79 velocity=64 time=0
EXTRACT: note_on channel=2 note=45 velocity=75 time=0.021739124999999998
EXTRACT: note_on channel=9 note=45 velocity=98 time=0
EXTRACT: note_on channel=9 note=46 velocity=36 time=0
EXTRACT: note_on channel=4 note=57 velocity=100 time=0
EXTRACT: note_on channel=4 note=52 velocity=100 time=0
EXTRACT: note_on channel=5 note=64 velocity=100 time=0
EXTRACT: note_on channel=6 note=76 velocity=100 time=0
EXTRACT: note_off channel=9 note=45 velocity=64 time=0.10869562499999999
EXTRACT: note_off channel=9 note=46 velocity=64 time=0
EXTRACT: note_on channel=9 note=46 velocity=36 time=0.021739124999999998
EXTRACT: note_off channel=2 note=45 velocity=64 time=0.10869562499999999
EXTRACT: note_off channel=9 note=46 velocity=64 time=0
EXTRACT: note_off channel=5 note=64 velocity=64 time=0
EXTRACT: note_off channel=6 note=76 velocity=64 time=0
EXTRACT: note_on channel=2 note=45 velocity=75 time=0.021739124999999998
EXTRACT: note_on channel=9 note=46 velocity=36 time=0
EXTRACT: note_on channel=5 note=60 velocity=100 time=0
EXTRACT: note_on channel=6 note=74 velocity=100 time=0
EXTRACT: note_off channel=9 note=46 velocity=64 time=0.10869562499999999
EXTRACT: note_on channel=9 note=46 velocity=36 time=0.021739124999999998
EXTRACT: note_off channel=2 note=45 velocity=64 time=0.10869562499999999
EXTRACT: note_off channel=9 note=46 velocity=64 time=0
EXTRACT: note_off channel=5 note=60 velocity=64 time=0
EXTRACT: note_off channel=6 note=74 velocity=64 time=0
EXTRACT: note_on channel=2 note=45 velocity=75 time=0.021739124999999998
EXTRACT: note_on channel=9 note=45 velocity=95 time=0
EXTRACT: note_on channel=9 note=46 velocity=34 time=0
EXTRACT: note_on channel=5 note=57 velocity=100 time=0
EXTRACT: note_on channel=6 note=76 velocity=100 time=0
EXTRACT: note_off channel=9 note=45 velocity=64 time=0.10869562499999999
EXTRACT: note_off channel=9 note=46 velocity=64 time=0
EXTRACT: note_on channel=9 note=46 velocity=36 time=0.021739124999999998
EXTRACT: note_off channel=2 note=45 velocity=64 time=0.10869562499999999
EXTRACT: note_off channel=9 note=46 velocity=64 time=0
EXTRACT: note_off channel=5 note=57 velocity=64 time=0
EXTRACT: note_off channel=6 note=76 velocity=64 time=0
EXTRACT: note_on channel=2 note=45 velocity=75 time=0.021739124999999998
EXTRACT: note_on channel=9 note=46 velocity=36 time=0
EXTRACT: note_on channel=5 note=64 velocity=100 time=0
EXTRACT: note_on channel=6 note=74 velocity=100 time=0
EXTRACT: note_off channel=9 note=46 velocity=64 time=0.10869562499999999
EXTRACT: note_on channel=9 note=46 velocity=36 time=0.021739124999999998
EXTRACT: note_off channel=2 note=45 velocity=64 time=0.10869562499999999
EXTRACT: note_off channel=9 note=46 velocity=64 time=0
EXTRACT: note_off channel=5 note=64 velocity=64 time=0
EXTRACT: note_off channel=6 note=74 velocity=64 time=0
EXTRACT: note_on channel=2 note=45 velocity=75 time=0.021739124999999998
EXTRACT: note_on channel=9 note=45 velocity=98 time=0
EXTRACT: note_on channel=9 note=46 velocity=36 time=0
EXTRACT: note_on channel=5 note=60 velocity=100 time=0
EXTRACT: note_on channel=6 note=76 velocity=100 time=0
EXTRACT: note_off channel=9 note=45 velocity=64 time=0.10869562499999999
EXTRACT: note_off channel=9 note=46 velocity=64 time=0
EXTRACT: note_on channel=9 note=46 velocity=36 time=0.021739124999999998
EXTRACT: note_off channel=2 note=45 velocity=64 time=0.10869562499999999
EXTRACT: note_off channel=9 note=46 velocity=64 time=0
EXTRACT: note_off channel=5 note=60 velocity=64 time=0
EXTRACT: note_off channel=6 note=76 velocity=64 time=0
EXTRACT: note_on channel=2 note=45 velocity=75 time=0.021739124999999998
EXTRACT: note_on channel=9 note=46 velocity=34 time=0
EXTRACT: note_on channel=5 note=57 velocity=100 time=0
EXTRACT: note_on channel=6 note=74 velocity=100 time=0
EXTRACT: note_off channel=9 note=46 velocity=64 time=0.10869562499999999
EXTRACT: note_on channel=9 note=46 velocity=36 time=0.021739124999999998
EXTRACT: note_off channel=2 note=45 velocity=64 time=0.10869562499999999
EXTRACT: note_off channel=9 note=46 velocity=64 time=0
EXTRACT: note_off channel=5 note=57 velocity=64 time=0
EXTRACT: note_off channel=6 note=74 velocity=64 time=0
EXTRACT: note_on channel=2 note=45 velocity=75 time=0.021739124999999998
EXTRACT: note_on channel=9 note=45 velocity=95 time=0
EXTRACT: note_on channel=9 note=46 velocity=36 time=0
EXTRACT: note_on channel=5 note=64 velocity=100 time=0
EXTRACT: note_on channel=6 note=76 velocity=100 time=0
EXTRACT: note_off channel=9 note=45 velocity=64 time=0.10869562499999999
EXTRACT: note_off channel=9 note=46 velocity=64 time=0
EXTRACT: note_on channel=9 note=46 velocity=36 time=0.021739124999999998
EXTRACT: note_off channel=2 note=45 velocity=64 time=0.10869562499999999
EXTRACT: note_off channel=9 note=46 velocity=64 time=0
EXTRACT: note_off channel=5 note=64 velocity=64 time=0
EXTRACT: note_off channel=6 note=76 velocity=64 time=0
EXTRACT: note_on channel=2 note=45 velocity=75 time=0.021739124999999998
EXTRACT: note_on channel=9 note=46 velocity=36 time=0
EXTRACT: note_on channel=5 note=60 velocity=100 time=0
EXTRACT: note_on channel=6 note=74 velocity=100 time=0
EXTRACT: note_off channel=9 note=46 velocity=64 time=0.10869562499999999
EXTRACT: note_on channel=9 note=46 velocity=36 time=0.021739124999999998
EXTRACT: note_off channel=2 note=45 velocity=64 time=0.10869562499999999
EXTRACT: note_off channel=9 note=46 velocity=64 time=0
EXTRACT: note_off channel=5 note=60 velocity=64 time=0
EXTRACT: note_off channel=6 note=74 velocity=64 time=0
EXTRACT: note_on channel=2 note=45 velocity=75 time=0.021739124999999998
EXTRACT: note_on channel=9 note=45 velocity=98 time=0
EXTRACT: note_on channel=9 note=46 velocity=36 time=0
EXTRACT: note_on channel=5 note=64 velocity=100 time=0
EXTRACT: note_on channel=6 note=76 velocity=100 time=0
EXTRACT: note_off channel=9 note=45 velocity=64 time=0.10869562499999999
EXTRACT: note_off channel=9 note=46 velocity=64 time=0
EXTRACT: note_on channel=9 note=46 velocity=36 time=0.021739124999999998
EXTRACT: note_off channel=2 note=45 velocity=64 time=0.10869562499999999
EXTRACT: note_off channel=9 note=46 velocity=64 time=0
EXTRACT: note_off channel=5 note=64 velocity=64 time=0
EXTRACT: note_off channel=6 note=76 velocity=64 time=0
EXTRACT: note_on channel=2 note=45 velocity=75 time=0.021739124999999998
EXTRACT: note_on channel=9 note=46 velocity=36 time=0
EXTRACT: note_on channel=5 note=60 velocity=100 time=0
EXTRACT: note_on channel=6 note=69 velocity=100 time=0
EXTRACT: note_off channel=9 note=46 velocity=64 time=0.10869562499999999
EXTRACT: note_on channel=9 note=46 velocity=36 time=0.021739124999999998
EXTRACT: note_off channel=2 note=45 velocity=64 time=0.10869562499999999
EXTRACT: note_off channel=9 note=46 velocity=64 time=0
EXTRACT: note_off channel=5 note=60 velocity=64 time=0
EXTRACT: note_off channel=6 note=69 velocity=64 time=0
EXTRACT: note_on channel=2 note=45 velocity=75 time=0.021739124999999998
EXTRACT: note_on channel=9 note=45 velocity=95 time=0
EXTRACT: note_on channel=9 note=46 velocity=36 time=0
EXTRACT: note_on channel=5 note=57 velocity=100 time=0
EXTRACT: note_on channel=6 note=69 velocity=100 time=0
EXTRACT: note_off channel=9 note=45 velocity=64 time=0.10869562499999999
EXTRACT: note_off channel=9 note=46 velocity=64 time=0
EXTRACT: note_on channel=9 note=46 velocity=36 time=0.021739124999999998
EXTRACT: note_off channel=2 note=45 velocity=64 time=0.10869562499999999
EXTRACT: note_off channel=9 note=46 velocity=64 time=0
EXTRACT: note_off channel=5 note=57 velocity=64 time=0
EXTRACT: note_on channel=2 note=45 velocity=75 time=0.021739124999999998
EXTRACT: note_on channel=9 note=46 velocity=34 time=0
EXTRACT: note_on channel=5 note=64 velocity=100 time=0
EXTRACT: note_off channel=9 note=46 velocity=64 time=0.10869562499999999
EXTRACT: note_on channel=9 note=46 velocity=36 time=0.021739124999999998
EXTRACT: note_off channel=2 note=45 velocity=64 time=0.10869562499999999
EXTRACT: note_off channel=9 note=46 velocity=64 time=0
EXTRACT: note_off channel=5 note=64 velocity=64 time=0
EXTRACT: note_off channel=6 note=69 velocity=64 time=0
EXTRACT: note_on channel=2 note=45 velocity=75 time=0.021739124999999998
EXTRACT: note_on channel=9 note=45 velocity=98 time=0
EXTRACT: note_on channel=9 note=46 velocity=36 time=0
EXTRACT: note_on channel=5 note=60 velocity=100 time=0
EXTRACT: note_off channel=9 note=45 velocity=64 time=0.10869562499999999
EXTRACT: note_off channel=9 note=46 velocity=64 time=0
EXTRACT: note_on channel=9 note=46 velocity=36 time=0.021739124999999998
EXTRACT: note_off channel=2 note=45 velocity=64 time=0.10869562499999999
EXTRACT: note_off channel=9 note=46 velocity=64 time=0
EXTRACT: note_off channel=5 note=60 velocity=64 time=0
EXTRACT: note_on channel=2 note=45 velocity=75 time=0.021739124999999998
EXTRACT: note_on channel=9 note=46 velocity=36 time=0
EXTRACT: note_on channel=5 note=57 velocity=100 time=0
EXTRACT: note_off channel=9 note=46 velocity=64 time=0.10869562499999999
EXTRACT: note_on channel=9 note=46 velocity=36 time=0.021739124999999998
EXTRACT: note_off channel=2 note=45 velocity=64 time=0.10869562499999999
EXTRACT: note_off channel=9 note=46 velocity=64 time=0
EXTRACT: note_off channel=5 note=57 velocity=64 time=0
EXTRACT: note_on channel=2 note=45 velocity=75 time=0.021739124999999998
EXTRACT: note_on channel=9 note=45 velocity=95 time=0
EXTRACT: note_on channel=9 note=46 velocity=36 time=0
EXTRACT: note_on channel=5 note=64 velocity=100 time=0
EXTRACT: note_off channel=9 note=45 velocity=64 time=0.10869562499999999
EXTRACT: note_off channel=9 note=46 velocity=64 time=0
EXTRACT: note_on channel=9 note=46 velocity=34 time=0.021739124999999998
EXTRACT: note_off channel=2 note=45 velocity=64 time=0.10869562499999999
EXTRACT: note_off channel=9 note=46 velocity=64 time=0
EXTRACT: note_off channel=5 note=64 velocity=64 time=0
EXTRACT: note_on channel=2 note=45 velocity=75 time=0.021739124999999998
EXTRACT: note_on channel=9 note=46 velocity=36 time=0
EXTRACT: note_on channel=5 note=60 velocity=100 time=0
EXTRACT: note_off channel=9 note=46 velocity=64 time=0.10869562499999999
EXTRACT: note_on channel=9 note=46 velocity=36 time=0.021739124999999998
EXTRACT: note_off channel=2 note=45 velocity=64 time=0.10869562499999999
EXTRACT: note_off channel=9 note=46 velocity=64 time=0
EXTRACT: note_off channel=4 note=52 velocity=64 time=0
EXTRACT: note_off channel=4 note=57 velocity=64 time=0
EXTRACT: note_off channel=5 note=60 velocity=64 time=0
EXTRACT: note_on channel=2 note=38 velocity=75 time=0.021739124999999998
EXTRACT: note_on channel=9 note=45 velocity=98 time=0
EXTRACT: note_on channel=9 note=46 velocity=36 time=0
EXTRACT: note_on channel=4 note=57 velocity=100 time=0
EXTRACT: note_on channel=4 note=50 velocity=100 time=0
EXTRACT: note_on channel=5 note=65 velocity=100 time=0
EXTRACT: note_on channel=6 note=77 velocity=100 time=0
EXTRACT: note_off channel=9 note=45 velocity=64 time=0.10869562499999999
EXTRACT: note_off channel=9 note=46 velocity=64 time=0
EXTRACT: note_on channel=9 note=46 velocity=36 time=0.021739124999999998
EXTRACT: note_off channel=2 note=38 velocity=64 time=0.10869562499999999
EXTRACT: note_off channel=9 note=46 velocity=64 time=0
EXTRACT: note_off channel=5 note=65 velocity=64 time=0
EXTRACT: note_off channel=6 note=77 velocity=64 time=0
EXTRACT: note_on channel=2 note=38 velocity=75 time=0.021739124999999998
EXTRACT: note_on channel=9 note=46 velocity=36 time=0
EXTRACT: note_on channel=5 note=62 velocity=100 time=0
EXTRACT: note_on channel=6 note=77 velocity=100 time=0
EXTRACT: note_off channel=9 note=46 velocity=64 time=0.10869562499999999
EXTRACT: note_on channel=9 note=46 velocity=34 time=0.021739124999999998
EXTRACT: note_off channel=2 note=38 velocity=64 time=0.10869562499999999
EXTRACT: note_off channel=9 note=46 velocity=64 time=0
EXTRACT: note_off channel=5 note=62 velocity=64 time=0
EXTRACT: note_off channel=6 note=77 velocity=64 time=0
EXTRACT: note_on channel=2 note=38 velocity=75 time=0.021739124999999998
EXTRACT: note_on channel=9 note=45 velocity=95 time=0
EXTRACT: note_on channel=9 note=46 velocity=36 time=0
EXTRACT: note_on channel=5 note=57 velocity=100 time=0
EXTRACT: note_on channel=6 note=69 velocity=100 time=0
EXTRACT: note_off channel=9 note=45 velocity=64 time=0.10869562499999999
EXTRACT: note_off channel=9 note=46 velocity=64 time=0
EXTRACT: note_on channel=9 note=46 velocity=36 time=0.021739124999999998
EXTRACT: note_off channel=2 note=38 velocity=64 time=0.10869562499999999
EXTRACT: note_off channel=9 note=46 velocity=64 time=0
EXTRACT: note_off channel=5 note=57 velocity=64 time=0
EXTRACT: note_off channel=6 note=69 velocity=64 time=0
EXTRACT: note_on channel=2 note=38 velocity=75 time=0.021739124999999998
EXTRACT: note_on channel=9 note=46 velocity=36 time=0
EXTRACT: note_on channel=5 note=65 velocity=100 time=0
EXTRACT: note_off channel=9 note=46 velocity=64 time=0.10869562499999999
EXTRACT: note_on channel=9 note=46 velocity=36 time=0.021739124999999998
EXTRACT: note_off channel=2 note=38 velocity=64 time=0.10869562499999999
EXTRACT: note_off channel=9 note=46 velocity=64 time=0
EXTRACT: note_off channel=5 note=65 velocity=64 time=0
EXTRACT: note_on channel=2 note=38 velocity=75 time=0.021739124999999998
EXTRACT: note_on channel=9 note=45 velocity=98 time=0
EXTRACT: note_on channel=9 note=46 velocity=36 time=0
EXTRACT: note_on channel=5 note=62 velocity=100 time=0
EXTRACT: note_on channel=6 note=77 velocity=100 time=0
EXTRACT: note_off channel=9 note=45 velocity=64 time=0.10869562499999999
EXTRACT: note_off channel=9 note=46 velocity=64 time=0
EXTRACT: note_on channel=9 note=46 velocity=36 time=0.021739124999999998
EXTRACT: note_off channel=2 note=38 velocity=64 time=0.10869562499999999
EXTRACT: note_off channel=9 note=46 velocity=64 time=0
EXTRACT: note_off channel=5 note=62 velocity=64 time=0
EXTRACT: note_off channel=6 note=77 velocity=64 time=0
EXTRACT: note_on channel=2 note=38 velocity=75 time=0.021739124999999998
EXTRACT: note_on channel=9 note=46 velocity=36 time=0
EXTRACT: note_on channel=5 note=57 velocity=100 time=0
EXTRACT: note_on channel=6 note=77 velocity=100 time=0
EXTRACT: note_off channel=9 note=46 velocity=64 time=0.10869562499999999
EXTRACT: note_on channel=9 note=46 velocity=34 time=0.021739124999999998
EXTRACT: note_off channel=2 note=38 velocity=64 time=0.10869562499999999
EXTRACT: note_off channel=9 note=46 velocity=64 time=0
EXTRACT: note_off channel=5 note=57 velocity=64 time=0
EXTRACT: note_off channel=6 note=77 velocity=64 time=0
EXTRACT: note_on channel=2 note=38 velocity=75 time=0.021739124999999998
EXTRACT: note_on channel=9 note=45 velocity=95 time=0
EXTRACT: note_on channel=9 note=46 velocity=36 time=0
EXTRACT: note_on channel=5 note=65 velocity=100 time=0
EXTRACT: note_on channel=6 note=69 velocity=100 time=0
EXTRACT: note_off channel=9 note=45 velocity=64 time=0.10869562499999999
EXTRACT: note_off channel=9 note=46 velocity=64 time=0
EXTRACT: note_on channel=9 note=46 velocity=36 time=0.021739124999999998
EXTRACT: note_off channel=2 note=38 velocity=64 time=0.10869562499999999
EXTRACT: note_off channel=9 note=46 velocity=64 time=0
EXTRACT: note_off channel=5 note=65 velocity=64 time=0
EXTRACT: note_off channel=6 note=69 velocity=64 time=0
EXTRACT: note_on channel=2 note=38 velocity=75 time=0.021739124999999998
EXTRACT: note_on channel=9 note=46 velocity=36 time=0
EXTRACT: note_on channel=5 note=62 velocity=100 time=0
EXTRACT: note_off channel=9 note=46 velocity=64 time=0.10869562499999999
EXTRACT: note_on channel=9 note=46 velocity=36 time=0.021739124999999998
EXTRACT: note_off channel=2 note=38 velocity=64 time=0.10869562499999999
EXTRACT: note_off channel=9 note=46 velocity=64 time=0
EXTRACT: note_off channel=5 note=62 velocity=64 time=0
EXTRACT: note_on channel=2 note=38 velocity=75 time=0.021739124999999998
EXTRACT: note_on channel=9 note=45 velocity=98 time=0
EXTRACT: note_on channel=9 note=46 velocity=36 time=0
EXTRACT: note_on channel=5 note=65 velocity=100 time=0
EXTRACT: note_on channel=6 note=77 velocity=100 time=0
EXTRACT: note_off channel=9 note=45 velocity=64 time=0.10869562499999999
EXTRACT: note_off channel=9 note=46 velocity=64 time=0
EXTRACT: note_on channel=9 note=46 velocity=36 time=0.021739124999999998
EXTRACT: note_off channel=2 note=38 velocity=64 time=0.10869562499999999
EXTRACT: note_off channel=9 note=46 velocity=64 time=0
EXTRACT: note_off channel=5 note=65 velocity=64 time=0
EXTRACT: note_off channel=6 note=77 velocity=64 time=0
EXTRACT: note_on channel=2 note=38 velocity=75 time=0.021739124999999998
EXTRACT: note_on channel=9 note=46 velocity=36 time=0
EXTRACT: note_on channel=5 note=62 velocity=100 time=0
EXTRACT: note_on channel=6 note=77 velocity=100 time=0
EXTRACT: note_off channel=9 note=46 velocity=64 time=0.10869562499999999
EXTRACT: note_on channel=9 note=46 velocity=34 time=0.021739124999999998
EXTRACT: note_off channel=2 note=38 velocity=64 time=0.10869562499999999
EXTRACT: note_off channel=9 note=46 velocity=64 time=0
EXTRACT: note_off channel=5 note=62 velocity=64 time=0
EXTRACT: note_off channel=6 note=77 velocity=64 time=0
EXTRACT: note_on channel=2 note=38 velocity=75 time=0.021739124999999998
EXTRACT: note_on channel=9 note=45 velocity=95 time=0
EXTRACT: note_on channel=9 note=46 velocity=36 time=0
EXTRACT: note_on channel=5 note=57 velocity=100 time=0
EXTRACT: note_on channel=6 note=77 velocity=100 time=0
EXTRACT: note_off channel=9 note=45 velocity=64 time=0.10869562499999999
EXTRACT: note_off channel=9 note=46 velocity=64 time=0
EXTRACT: note_on channel=9 note=46 velocity=36 time=0.021739124999999998
EXTRACT: note_off channel=2 note=38 velocity=64 time=0.10869562499999999
EXTRACT: note_off channel=9 note=46 velocity=64 time=0
EXTRACT: note_off channel=5 note=57 velocity=64 time=0
EXTRACT: note_off channel=6 note=77 velocity=64 time=0
EXTRACT: note_on channel=2 note=38 velocity=75 time=0.021739124999999998
EXTRACT: note_on channel=9 note=46 velocity=36 time=0
EXTRACT: note_on channel=5 note=65 velocity=100 time=0
EXTRACT: note_on channel=6 note=77 velocity=100 time=0
EXTRACT: note_off channel=9 note=46 velocity=64 time=0.10869562499999999
EXTRACT: note_on channel=9 note=46 velocity=36 time=0.021739124999999998
EXTRACT: note_off channel=2 note=38 velocity=64 time=0.10869562499999999
EXTRACT: note_off channel=9 note=46 velocity=64 time=0
EXTRACT: note_off channel=5 note=65 velocity=64 time=0
EXTRACT: note_off channel=6 note=77 velocity=64 time=0
EXTRACT: note_on channel=2 note=38 velocity=75 time=0.021739124999999998
EXTRACT: note_on channel=9 note=45 velocity=98 time=0
EXTRACT: note_on channel=9 note=46 velocity=36 time=0
EXTRACT: note_on channel=5 note=62 velocity=100 time=0
EXTRACT: note_on channel=6 note=77 velocity=100 time=0
EXTRACT: note_off channel=9 note=45 velocity=64 time=0.10869562499999999
EXTRACT: note_off channel=9 note=46 velocity=64 time=0
EXTRACT: note_on channel=9 note=46 velocity=36 time=0.021739124999999998
EXTRACT: note_off channel=2 note=38 velocity=64 time=0.10869562499999999
EXTRACT: note_off channel=9 note=46 velocity=64 time=0
EXTRACT: note_off channel=5 note=62 velocity=64 time=0
EXTRACT: note_off channel=6 note=77 velocity=64 time=0
EXTRACT: note_on channel=2 note=38 velocity=75 time=0.021739124999999998
EXTRACT: note_on channel=9 note=46 velocity=36 time=0
EXTRACT: note_on channel=5 note=57 velocity=100 time=0
EXTRACT: note_off channel=9 note=46 velocity=64 time=0.10869562499999999
EXTRACT: note_on channel=9 note=46 velocity=36 time=0.021739124999999998
EXTRACT: note_off channel=2 note=38 velocity=64 time=0.10869562499999999
EXTRACT: note_off channel=9 note=46 velocity=64 time=0
EXTRACT: note_off channel=5 note=57 velocity=64 time=0
EXTRACT: note_on channel=2 note=38 velocity=75 time=0.021739124999999998
EXTRACT: note_on channel=9 note=45 velocity=95 time=0
EXTRACT: note_on channel=9 note=46 velocity=36 time=0
EXTRACT: note_on channel=5 note=65 velocity=100 time=0
EXTRACT: note_on channel=6 note=79 velocity=100 time=0
EXTRACT: note_off channel=9 note=45 velocity=64 time=0.10869562499999999
EXTRACT: note_off channel=9 note=46 velocity=64 time=0
EXTRACT: note_on channel=9 note=46 velocity=36 time=0.021739124999999998
EXTRACT: note_off channel=2 note=38 velocity=64 time=0.10869562499999999
EXTRACT: note_off channel=9 note=46 velocity=64 time=0
EXTRACT: note_off channel=5 note=65 velocity=64 time=0
EXTRACT: note_on channel=2 note=38 velocity=75 time=0.021739124999999998
EXTRACT: note_on channel=9 note=46 velocity=36 time=0
EXTRACT: note_on channel=5 note=67 velocity=100 time=0
EXTRACT: note_off channel=9 note=46 velocity=64 time=0.10869562499999999
EXTRACT: note_on channel=9 note=46 velocity=36 time=0.021739124999999998
EXTRACT: note_off channel=2 note=38 velocity=64 time=0.10869562499999999
EXTRACT: note_off channel=9 note=46 velocity=64 time=0
EXTRACT: note_off channel=4 note=50 velocity=64 time=0
EXTRACT: note_off channel=4 note=57 velocity=64 time=0
EXTRACT: note_off channel=5 note=67 velocity=64 time=0
EXTRACT: note_off channel=6 note=79 velocity=64 time=0
EXTRACT: note_on channel=2 note=45 velocity=75 time=0.021739124999999998
EXTRACT: note_on channel=9 note=45 velocity=98 time=0
EXTRACT: note_on channel=9 note=46 velocity=36 time=0
EXTRACT: note_on channel=4 note=57 velocity=100 time=0
EXTRACT: note_on channel=4 note=52 velocity=100 time=0
EXTRACT: note_on channel=5 note=64 velocity=100 time=0
EXTRACT: note_on channel=6 note=76 velocity=100 time=0
EXTRACT: note_off channel=9 note=45 velocity=64 time=0.10869562499999999
EXTRACT: note_off channel=9 note=46 velocity=64 time=0
EXTRACT: note_on channel=9 note=46 velocity=36 time=0.021739124999999998
EXTRACT: note_off channel=2 note=45 velocity=64 time=0.10869562499999999
EXTRACT: note_off channel=9 note=46 velocity=64 time=0
EXTRACT: note_off channel=5 note=64 velocity=64 time=0
EXTRACT: note_off channel=6 note=76 velocity=64 time=0
EXTRACT: note_on channel=2 note=45 velocity=75 time=0.021739124999999998
EXTRACT: note_on channel=9 note=46 velocity=36 time=0
EXTRACT: note_on channel=5 note=60 velocity=100 time=0
EXTRACT: note_on channel=6 note=74 velocity=100 time=0
EXTRACT: note_off channel=9 note=46 velocity=64 time=0.10869562499999999
EXTRACT: note_on channel=9 note=46 velocity=36 time=0.021739124999999998
EXTRACT: note_off channel=2 note=45 velocity=64 time=0.10869562499999999
EXTRACT: note_off channel=9 note=46 velocity=64 time=0
EXTRACT: note_off channel=5 note=60 velocity=64 time=0
EXTRACT: note_off channel=6 note=74 velocity=64 time=0
EXTRACT: note_on channel=2 note=45 velocity=75 time=0.021739124999999998
EXTRACT: note_on channel=9 note=45 velocity=95 time=0
EXTRACT: note_on channel=9 note=46 velocity=34 time=0
EXTRACT: note_on channel=5 note=57 velocity=100 time=0
EXTRACT: note_on channel=6 note=76 velocity=100 time=0
EXTRACT: note_off channel=9 note=45 velocity=64 time=0.10869562499999999
EXTRACT: note_off channel=9 note=46 velocity=64 time=0
EXTRACT: note_on channel=9 note=46 velocity=36 time=0.021739124999999998
EXTRACT: note_off channel=2 note=45 velocity=64 time=0.10869562499999999
EXTRACT: note_off channel=9 note=46 velocity=64 time=0
EXTRACT: note_off channel=5 note=57 velocity=64 time=0
EXTRACT: note_off channel=6 note=76 velocity=64 time=0
EXTRACT: note_on channel=2 note=45 velocity=75 time=0.021739124999999998
EXTRACT: note_on channel=9 note=46 velocity=36 time=0
EXTRACT: note_on channel=5 note=64 velocity=100 time=0
EXTRACT: note_on channel=6 note=74 velocity=100 time=0
EXTRACT: note_off channel=9 note=46 velocity=64 time=0.10869562499999999
EXTRACT: note_on channel=9 note=46 velocity=36 time=0.021739124999999998
EXTRACT: note_off channel=2 note=45 velocity=64 time=0.10869562499999999
EXTRACT: note_off channel=9 note=46 velocity=64 time=0
EXTRACT: note_off channel=5 note=64 velocity=64 time=0
EXTRACT: note_off channel=6 note=74 velocity=64 time=0
EXTRACT: note_on channel=2 note=45 velocity=75 time=0.021739124999999998
EXTRACT: note_on channel=9 note=45 velocity=98 time=0
EXTRACT: note_on channel=9 note=46 velocity=36 time=0
EXTRACT: note_on channel=5 note=60 velocity=100 time=0
EXTRACT: note_on channel=6 note=76 velocity=100 time=0
EXTRACT: note_off channel=9 note=45 velocity=64 time=0.10869562499999999
EXTRACT: note_off channel=9 note=46 velocity=64 time=0
EXTRACT: note_on channel=9 note=46 velocity=36 time=0.021739124999999998
EXTRACT: note_off channel=2 note=45 velocity=64 time=0.10869562499999999
EXTRACT: note_off channel=9 note=46 velocity=64 time=0
EXTRACT: note_off channel=5 note=60 velocity=64 time=0
EXTRACT: note_off channel=6 note=76 velocity=64 time=0
EXTRACT: note_on channel=2 note=45 velocity=75 time=0.021739124999999998
EXTRACT: note_on channel=9 note=46 velocity=36 time=0
EXTRACT: note_on channel=5 note=57 velocity=100 time=0
EXTRACT: note_on channel=6 note=74 velocity=100 time=0
EXTRACT: note_off channel=9 note=46 velocity=64 time=0.10869562499999999
EXTRACT: note_on channel=9 note=46 velocity=36 time=0.021739124999999998
EXTRACT: note_off channel=2 note=45 velocity=64 time=0.10869562499999999
EXTRACT: note_off channel=9 note=46 velocity=64 time=0
EXTRACT: note_off channel=5 note=57 velocity=64 time=0
EXTRACT: note_on channel=2 note=45 velocity=75 time=0.021739124999999998
EXTRACT: note_on channel=9 note=45 velocity=95 time=0
EXTRACT: note_on channel=9 note=46 velocity=36 time=0
EXTRACT: note_on channel=5 note=64 velocity=100 time=0
EXTRACT: note_off channel=9 note=45 velocity=64 time=0.10869562499999999
EXTRACT: note_off channel=9 note=46 velocity=64 time=0
EXTRACT: note_on channel=9 note=46 velocity=36 time=0.021739124999999998
EXTRACT: note_off channel=2 note=45 velocity=64 time=0.10869562499999999
EXTRACT: note_off channel=9 note=46 velocity=64 time=0
EXTRACT: note_off channel=5 note=64 velocity=64 time=0
EXTRACT: note_off channel=6 note=74 velocity=64 time=0
EXTRACT: note_on channel=2 note=45 velocity=75 time=0.021739124999999998
EXTRACT: note_on channel=9 note=46 velocity=36 time=0
EXTRACT: note_on channel=5 note=60 velocity=100 time=0
EXTRACT: note_off channel=9 note=46 velocity=64 time=0.10869562499999999
EXTRACT: note_on channel=9 note=46 velocity=36 time=0.021739124999999998
EXTRACT: note_off channel=2 note=45 velocity=64 time=0.10869562499999999
EXTRACT: note_off channel=9 note=46 velocity=64 time=0
EXTRACT: note_off channel=5 note=60 velocity=64 time=0
EXTRACT: note_on channel=2 note=45 velocity=75 time=0.021739124999999998
EXTRACT: note_on channel=9 note=45 velocity=98 time=0
EXTRACT: note_on channel=9 note=46 velocity=41 time=0
EXTRACT: note_on channel=5 note=64 velocity=100 time=0
EXTRACT: note_off channel=9 note=45 velocity=64 time=0.10869562499999999
EXTRACT: note_off channel=9 note=46 velocity=64 time=0
EXTRACT: note_off channel=2 note=45 velocity=64 time=0.13043475
EXTRACT: note_off channel=5 note=64 velocity=64 time=0
EXTRACT: note_on channel=2 note=45 velocity=75 time=0.021739124999999998
EXTRACT: note_on channel=5 note=60 velocity=100 time=0
EXTRACT: note_on channel=6 note=76 velocity=100 time=0
EXTRACT: note_off channel=2 note=45 velocity=64 time=0.23913037499999998
EXTRACT: note_off channel=5 note=60 velocity=64 time=0
EXTRACT: note_off channel=6 note=76 velocity=64 time=0
EXTRACT: note_on channel=2 note=45 velocity=75 time=0.021739124999999998
EXTRACT: note_on channel=5 note=57 velocity=100 time=0
EXTRACT: note_on channel=6 note=76 velocity=100 time=0
EXTRACT: note_off channel=2 note=45 velocity=64 time=0.23913037499999998
EXTRACT: note_off channel=5 note=57 velocity=64 time=0
EXTRACT: note_off channel=6 note=76 velocity=64 time=0
EXTRACT: note_on channel=2 note=45 velocity=75 time=0.021739124999999998
EXTRACT: note_on channel=5 note=64 velocity=100 time=0
EXTRACT: note_on channel=6 note=74 velocity=100 time=0
EXTRACT: note_off channel=2 note=45 velocity=64 time=0.23913037499999998
EXTRACT: note_off channel=5 note=64 velocity=64 time=0
EXTRACT: note_off channel=6 note=74 velocity=64 time=0
EXTRACT: note_on channel=2 note=45 velocity=75 time=0.021739124999999998
EXTRACT: note_on channel=5 note=60 velocity=100 time=0
EXTRACT: note_on channel=6 note=76 velocity=100 time=0
EXTRACT: note_off channel=2 note=45 velocity=64 time=0.23913037499999998
EXTRACT: note_off channel=5 note=60 velocity=64 time=0
EXTRACT: note_off channel=6 note=76 velocity=64 time=0
EXTRACT: note_on channel=2 note=45 velocity=75 time=0.021739124999999998
EXTRACT: note_on channel=5 note=57 velocity=100 time=0
EXTRACT: note_on channel=6 note=74 velocity=100 time=0
EXTRACT: note_off channel=2 note=45 velocity=64 time=0.23913037499999998
EXTRACT: note_off channel=5 note=57 velocity=64 time=0
EXTRACT: note_on channel=2 note=45 velocity=75 time=0.021739124999999998
EXTRACT: note_on channel=5 note=64 velocity=100 time=0
EXTRACT: note_off channel=2 note=45 velocity=64 time=0.23913037499999998
EXTRACT: note_off channel=5 note=64 velocity=64 time=0
EXTRACT: note_off channel=6 note=74 velocity=64 time=0
EXTRACT: note_on channel=2 note=45 velocity=75 time=0.021739124999999998
EXTRACT: note_on channel=5 note=60 velocity=100 time=0
EXTRACT: note_off channel=2 note=45 velocity=64 time=0.23913037499999998
EXTRACT: note_off channel=4 note=52 velocity=64 time=0
EXTRACT: note_off channel=4 note=57 velocity=64 time=0
EXTRACT: note_off channel=5 note=60 velocity=64 time=0
EXTRACT: note_on channel=2 note=38 velocity=75 time=0.021739124999999998
EXTRACT: note_on channel=9 note=45 velocity=98 time=0
EXTRACT: note_on channel=9 note=46 velocity=35 time=0
EXTRACT: note_on channel=4 note=57 velocity=100 time=0
EXTRACT: note_on channel=4 note=50 velocity=100 time=0
EXTRACT: note_on channel=5 note=65 velocity=100 time=0
EXTRACT: note_on channel=6 note=81 velocity=100 time=0
EXTRACT: note_off channel=9 note=45 velocity=64 time=0.10869562499999999
EXTRACT: note_off channel=9 note=46 velocity=64 time=0
EXTRACT: note_on channel=9 note=46 velocity=36 time=0.021739124999999998
EXTRACT: note_off channel=2 note=38 velocity=64 time=0.10869562499999999
EXTRACT: note_off channel=9 note=46 velocity=64 time=0
EXTRACT: note_off channel=5 note=65 velocity=64 time=0
EXTRACT: note_off channel=6 note=81 velocity=64 time=0
EXTRACT: note_on channel=2 note=38 velocity=75 time=0.021739124999999998
EXTRACT: note_on channel=9 note=46 velocity=36 time=0
EXTRACT: note_on channel=5 note=62 velocity=100 time=0
EXTRACT: note_on channel=6 note=81 velocity=100 time=0
EXTRACT: note_off channel=9 note=46 velocity=64 time=0.10869562499999999
EXTRACT: note_on channel=9 note=46 velocity=36 time=0.021739124999999998
EXTRACT: note_off channel=2 note=38 velocity=64 time=0.10869562499999999
EXTRACT: note_off channel=9 note=46 velocity=64 time=0
EXTRACT: note_off channel=5 note=62 velocity=64 time=0
EXTRACT: note_off channel=6 note=81 velocity=64 time=0
EXTRACT: note_on channel=2 note=38 velocity=75 time=0.021739124999999998
EXTRACT: note_on channel=9 note=45 velocity=95 time=0
EXTRACT: note_on channel=9 note=46 velocity=36 time=0
EXTRACT: note_on channel=5 note=57 velocity=100 time=0
EXTRACT: note_on channel=6 note=79 velocity=100 time=0
EXTRACT: note_off channel=9 note=45 velocity=64 time=0.10869562499999999
EXTRACT: note_off channel=9 note=46 velocity=64 time=0
EXTRACT: note_on channel=9 note=46 velocity=36 time=0.021739124999999998
EXTRACT: note_off channel=2 note=38 velocity=64 time=0.10869562499999999
EXTRACT: note_off channel=9 note=46 velocity=64 time=0
EXTRACT: note_off channel=5 note=57 velocity=64 time=0
EXTRACT: note_off channel=6 note=79 velocity=64 time=0
EXTRACT: note_on channel=2 note=38 velocity=75 time=0.021739124999999998
EXTRACT: note_on channel=9 note=46 velocity=36 time=0
EXTRACT: note_on channel=5 note=65 velocity=100 time=0
EXTRACT: note_on channel=6 note=79 velocity=100 time=0
EXTRACT: note_off channel=9 note=46 velocity=64 time=0.10869562499999999
EXTRACT: note_on channel=9 note=46 velocity=36 time=0.021739124999999998
EXTRACT: note_off channel=2 note=38 velocity=64 time=0.10869562499999999
EXTRACT: note_off channel=9 note=46 velocity=64 time=0
EXTRACT: note_off channel=5 note=65 velocity=64 time=0
EXTRACT: note_off channel=6 note=79 velocity=64 time=0
EXTRACT: note_on channel=2 note=38 velocity=75 time=0.021739124999999998
EXTRACT: note_on channel=9 note=45 velocity=98 time=0
EXTRACT: note_on channel=9 note=46 velocity=36 time=0
EXTRACT: note_on channel=5 note=62 velocity=100 time=0
EXTRACT: note_on channel=6 note=77 velocity=100 time=0
EXTRACT: note_off channel=9 note=45 velocity=64 time=0.10869562499999999
EXTRACT: note_off channel=9 note=46 velocity=64 time=0
EXTRACT: note_on channel=9 note=46 velocity=36 time=0.021739124999999998
EXTRACT: note_off channel=2 note=38 velocity=64 time=0.10869562499999999
EXTRACT: note_off channel=9 note=46 velocity=64 time=0
EXTRACT: note_off channel=5 note=62 velocity=64 time=0
EXTRACT: note_off channel=6 note=77 velocity=64 time=0
EXTRACT: note_on channel=2 note=38 velocity=75 time=0.021739124999999998
EXTRACT: note_on channel=9 note=46 velocity=36 time=0
EXTRACT: note_on channel=5 note=57 velocity=100 time=0
EXTRACT: note_on channel=6 note=76 velocity=100 time=0
EXTRACT: note_off channel=9 note=46 velocity=64 time=0.10869562499999999
EXTRACT: note_on channel=9 note=46 velocity=36 time=0.021739124999999998
EXTRACT: note_off channel=2 note=38 velocity=64 time=0.10869562499999999
EXTRACT: note_off channel=9 note=46 velocity=64 time=0
EXTRACT: note_off channel=5 note=57 velocity=64 time=0
EXTRACT: note_off channel=6 note=76 velocity=64 time=0
EXTRACT: note_on channel=2 note=38 velocity=75 time=0.021739124999999998
EXTRACT: note_on channel=9 note=45 velocity=95 time=0
EXTRACT: note_on channel=9 note=46 velocity=36 time=0
EXTRACT: note_on channel=5 note=65 velocity=100 time=0
EXTRACT: note_on channel=6 note=76 velocity=100 time=0
EXTRACT: note_off channel=9 note=45 velocity=64 time=0.10869562499999999
EXTRACT: note_off channel=9 note=46 velocity=64 time=0
EXTRACT: note_off channel=6 note=76 velocity=64 time=0
EXTRACT: note_on channel=9 note=46 velocity=36 time=0.021739124999999998
EXTRACT: note_on channel=6 note=77 velocity=100 time=0
EXTRACT: note_off channel=2 note=38 velocity=64 time=0.10869562499999999
EXTRACT: note_off channel=9 note=46 velocity=64 time=0
EXTRACT: note_off channel=5 note=65 velocity=64 time=0
EXTRACT: note_off channel=6 note=77 velocity=64 time=0
EXTRACT: note_on channel=2 note=38 velocity=75 time=0.021739124999999998
EXTRACT: note_on channel=9 note=46 velocity=36 time=0
EXTRACT: note_on channel=5 note=62 velocity=100 time=0
EXTRACT: note_on channel=6 note=79 velocity=100 time=0
EXTRACT: note_off channel=9 note=46 velocity=64 time=0.10869562499999999
EXTRACT: note_on channel=9 note=46 velocity=36 time=0.021739124999999998
EXTRACT: note_off channel=2 note=38 velocity=64 time=0.10869562499999999
EXTRACT: note_off channel=9 note=46 velocity=64 time=0
EXTRACT: note_off channel=5 note=62 velocity=64 time=0
EXTRACT: note_on channel=2 note=38 velocity=75 time=0.021739124999999998
EXTRACT: note_on channel=9 note=45 velocity=98 time=0
EXTRACT: note_on channel=9 note=46 velocity=36 time=0
EXTRACT: note_on channel=5 note=65 velocity=100 time=0
EXTRACT: note_off channel=9 note=45 velocity=64 time=0.10869562499999999
EXTRACT: note_off channel=9 note=46 velocity=64 time=0
EXTRACT: note_on channel=9 note=46 velocity=36 time=0.021739124999999998
EXTRACT: note_off channel=2 note=38 velocity=64 time=0.10869562499999999
EXTRACT: note_off channel=9 note=46 velocity=64 time=0
EXTRACT: note_off channel=5 note=65 velocity=64 time=0
EXTRACT: note_off channel=6 note=79 velocity=64 time=0
EXTRACT: note_on channel=2 note=38 velocity=75 time=0.021739124999999998
EXTRACT: note_on channel=9 note=46 velocity=36 time=0
EXTRACT: note_on channel=5 note=62 velocity=100 time=0
EXTRACT: note_on channel=6 note=79 velocity=100 time=0
EXTRACT: note_off channel=9 note=46 velocity=64 time=0.10869562499999999
EXTRACT: note_on channel=9 note=46 velocity=36 time=0.021739124999999998
EXTRACT: note_off channel=2 note=38 velocity=64 time=0.10869562499999999
EXTRACT: note_off channel=9 note=46 velocity=64 time=0
EXTRACT: note_off channel=5 note=62 velocity=64 time=0
EXTRACT: note_off channel=6 note=79 velocity=64 time=0
EXTRACT: note_on channel=2 note=38 velocity=75 time=0.021739124999999998
EXTRACT: note_on channel=9 note=45 velocity=95 time=0
EXTRACT: note_on channel=9 note=46 velocity=36 time=0
EXTRACT: note_on channel=5 note=57 velocity=100 time=0
EXTRACT: note_on channel=6 note=77 velocity=100 time=0
EXTRACT: note_off channel=9 note=45 velocity=64 time=0.10869562499999999
EXTRACT: note_off channel=9 note=46 velocity=64 time=0
EXTRACT: note_on channel=9 note=46 velocity=36 time=0.021739124999999998
EXTRACT: note_off channel=2 note=38 velocity=64 time=0.10869562499999999
EXTRACT: note_off channel=9 note=46 velocity=64 time=0
EXTRACT: note_off channel=5 note=57 velocity=64 time=0
EXTRACT: note_off channel=6 note=77 velocity=64 time=0
EXTRACT: note_on channel=2 note=38 velocity=75 time=0.021739124999999998
EXTRACT: note_on channel=9 note=46 velocity=36 time=0
EXTRACT: note_on channel=5 note=65 velocity=100 time=0
EXTRACT: note_on channel=6 note=77 velocity=100 time=0
EXTRACT: note_off channel=9 note=46 velocity=64 time=0.10869562499999999
EXTRACT: note_on channel=9 note=46 velocity=36 time=0.021739124999999998
EXTRACT: note_off channel=2 note=38 velocity=64 time=0.10869562499999999
EXTRACT: note_off channel=9 note=46 velocity=64 time=0
EXTRACT: note_off channel=5 note=65 velocity=64 time=0
EXTRACT: note_off channel=6 note=77 velocity=64 time=0
EXTRACT: note_on channel=2 note=38 velocity=75 time=0.021739124999999998
EXTRACT: note_on channel=9 note=45 velocity=98 time=0
EXTRACT: note_on channel=9 note=46 velocity=36 time=0
EXTRACT: note_on channel=5 note=62 velocity=100 time=0
EXTRACT: note_on channel=6 note=76 velocity=100 time=0
EXTRACT: note_off channel=9 note=45 velocity=64 time=0.10869562499999999
EXTRACT: note_off channel=9 note=46 velocity=64 time=0
EXTRACT: note_on channel=9 note=46 velocity=36 time=0.021739124999999998
EXTRACT: note_off channel=2 note=38 velocity=64 time=0.10869562499999999
EXTRACT: note_off channel=9 note=46 velocity=64 time=0
EXTRACT: note_off channel=5 note=62 velocity=64 time=0
EXTRACT: note_on channel=2 note=38 velocity=75 time=0.021739124999999998
EXTRACT: note_on channel=9 note=46 velocity=36 time=0
EXTRACT: note_on channel=5 note=57 velocity=100 time=0
EXTRACT: note_off channel=9 note=46 velocity=64 time=0.10869562499999999
EXTRACT: note_on channel=9 note=46 velocity=38 time=0.021739124999999998
EXTRACT: note_off channel=2 note=38 velocity=64 time=0.10869562499999999
EXTRACT: note_off channel=9 note=46 velocity=64 time=0
EXTRACT: note_off channel=5 note=57 velocity=64 time=0
EXTRACT: note_off channel=6 note=76 velocity=64 time=0
EXTRACT: note_on channel=2 note=38 velocity=75 time=0.021739124999999998
EXTRACT: note_on channel=9 note=45 velocity=95 time=0
EXTRACT: note_on channel=9 note=46 velocity=38 time=0
EXTRACT: note_on channel=5 note=65 velocity=100 time=0
EXTRACT: note_on channel=6 note=74 velocity=100 time=0
EXTRACT: note_off channel=9 note=45 velocity=64 time=0.10869562499999999
EXTRACT: note_off channel=9 note=46 velocity=64 time=0
EXTRACT: note_on channel=9 note=46 velocity=38 time=0.021739124999999998
EXTRACT: note_off channel=2 note=38 velocity=64 time=0.10869562499999999
EXTRACT: note_off channel=9 note=46 velocity=64 time=0
EXTRACT: note_off channel=5 note=65 velocity=64 time=0
EXTRACT: note_off channel=6 note=74 velocity=64 time=0
EXTRACT: note_on channel=2 note=38 velocity=75 time=0.021739124999999998
EXTRACT: note_on channel=9 note=46 velocity=38 time=0
EXTRACT: note_on channel=5 note=67 velocity=100 time=0
EXTRACT: note_on channel=6 note=79 velocity=100 time=0
EXTRACT: note_off channel=9 note=46 velocity=64 time=0.10869562499999999
EXTRACT: note_on channel=9 note=46 velocity=38 time=0.021739124999999998
EXTRACT: note_off channel=2 note=38 velocity=64 time=0.10869562499999999
EXTRACT: note_off channel=9 note=46 velocity=64 time=0
EXTRACT: note_off channel=4 note=50 velocity=64 time=0
EXTRACT: note_off channel=4 note=57 velocity=64 time=0
EXTRACT: note_off channel=5 note=67 velocity=64 time=0
EXTRACT: note_on channel=2 note=45 velocity=75 time=0.021739124999999998
EXTRACT: note_on channel=9 note=45 velocity=98 time=0
EXTRACT: note_on channel=9 note=46 velocity=38 time=0
EXTRACT: note_on channel=4 note=57 velocity=100 time=0
EXTRACT: note_on channel=4 note=52 velocity=100 time=0
EXTRACT: note_on channel=5 note=64 velocity=100 time=0
EXTRACT: note_off channel=9 note=45 velocity=64 time=0.10869562499999999
EXTRACT: note_off channel=9 note=46 velocity=64 time=0
EXTRACT: note_on channel=9 note=46 velocity=38 time=0.021739124999999998
EXTRACT: note_off channel=2 note=45 velocity=64 time=0.10869562499999999
EXTRACT: note_off channel=9 note=46 velocity=64 time=0
EXTRACT: note_off channel=5 note=64 velocity=64 time=0
EXTRACT: note_off channel=6 note=79 velocity=64 time=0
EXTRACT: note_on channel=2 note=45 velocity=75 time=0.021739124999999998
EXTRACT: note_on channel=9 note=46 velocity=38 time=0
EXTRACT: note_on channel=5 note=60 velocity=100 time=0
EXTRACT: note_on channel=6 note=79 velocity=100 time=0
EXTRACT: note_off channel=9 note=46 velocity=64 time=0.10869562499999999
EXTRACT: note_on channel=9 note=46 velocity=38 time=0.021739124999999998
EXTRACT: note_off channel=2 note=45 velocity=64 time=0.10869562499999999
EXTRACT: note_off channel=9 note=46 velocity=64 time=0
EXTRACT: note_off channel=5 note=60 velocity=64 time=0
EXTRACT: note_off channel=6 note=79 velocity=64 time=0
EXTRACT: note_on channel=2 note=45 velocity=75 time=0.021739124999999998
EXTRACT: note_on channel=9 note=45 velocity=95 time=0
EXTRACT: note_on channel=9 note=46 velocity=38 time=0
EXTRACT: note_on channel=5 note=57 velocity=100 time=0
EXTRACT: note_on channel=6 note=77 velocity=100 time=0
EXTRACT: note_off channel=9 note=45 velocity=64 time=0.10869562499999999
EXTRACT: note_off channel=9 note=46 velocity=64 time=0
EXTRACT: note_on channel=9 note=46 velocity=38 time=0.021739124999999998
EXTRACT: note_off channel=2 note=45 velocity=64 time=0.10869562499999999
EXTRACT: note_off channel=9 note=46 velocity=64 time=0
EXTRACT: note_off channel=5 note=57 velocity=64 time=0
EXTRACT: note_off channel=6 note=77 velocity=64 time=0
EXTRACT: note_on channel=2 note=45 velocity=75 time=0.021739124999999998
EXTRACT: note_on channel=9 note=46 velocity=38 time=0
EXTRACT: note_on channel=5 note=64 velocity=100 time=0
EXTRACT: note_on channel=6 note=77 velocity=100 time=0
EXTRACT: note_off channel=9 note=46 velocity=64 time=0.10869562499999999
EXTRACT: note_on channel=9 note=46 velocity=38 time=0.021739124999999998
EXTRACT: note_off channel=2 note=45 velocity=64 time=0.10869562499999999
EXTRACT: note_off channel=9 note=46 velocity=64 time=0
EXTRACT: note_off channel=5 note=64 velocity=64 time=0
EXTRACT: note_off channel=6 note=77 velocity=64 time=0
EXTRACT: note_on channel=2 note=45 velocity=75 time=0.021739124999999998
EXTRACT: note_on channel=9 note=45 velocity=98 time=0
EXTRACT: note_on channel=9 note=46 velocity=38 time=0
EXTRACT: note_on channel=5 note=60 velocity=100 time=0
EXTRACT: note_on channel=6 note=76 velocity=100 time=0
EXTRACT: note_off channel=9 note=45 velocity=64 time=0.10869562499999999
EXTRACT: note_off channel=9 note=46 velocity=64 time=0
EXTRACT: note_on channel=9 note=46 velocity=38 time=0.021739124999999998
EXTRACT: note_off channel=2 note=45 velocity=64 time=0.10869562499999999
EXTRACT: note_off channel=9 note=46 velocity=64 time=0
EXTRACT: note_off channel=5 note=60 velocity=64 time=0
EXTRACT: note_on channel=2 note=45 velocity=75 time=0.021739124999999998
EXTRACT: note_on channel=9 note=46 velocity=38 time=0
EXTRACT: note_on channel=5 note=57 velocity=100 time=0
EXTRACT: note_off channel=9 note=46 velocity=64 time=0.10869562499999999
EXTRACT: note_on channel=9 note=46 velocity=38 time=0.021739124999999998
EXTRACT: note_off channel=2 note=45 velocity=64 time=0.10869562499999999
EXTRACT: note_off channel=9 note=46 velocity=64 time=0
EXTRACT: note_off channel=5 note=57 velocity=64 time=0
EXTRACT: note_off channel=6 note=76 velocity=64 time=0
EXTRACT: note_on channel=2 note=45 velocity=75 time=0.021739124999999998
EXTRACT: note_on channel=9 note=45 velocity=95 time=0
EXTRACT: note_on channel=9 note=46 velocity=38 time=0
EXTRACT: note_on channel=5 note=64 velocity=100 time=0
EXTRACT: note_on channel=6 note=74 velocity=100 time=0
EXTRACT: note_off channel=9 note=45 velocity=64 time=0.10869562499999999
EXTRACT: note_off channel=9 note=46 velocity=64 time=0
EXTRACT: note_on channel=9 note=46 velocity=35 time=0.021739124999999998
EXTRACT: note_off channel=2 note=45 velocity=64 time=0.10869562499999999
EXTRACT: note_off channel=9 note=46 velocity=64 time=0
EXTRACT: note_off channel=5 note=64 velocity=64 time=0
EXTRACT: note_off channel=6 note=74 velocity=64 time=0
EXTRACT: note_on channel=2 note=45 velocity=75 time=0.021739124999999998
EXTRACT: note_on channel=9 note=46 velocity=38 time=0
EXTRACT: note_on channel=5 note=60 velocity=100 time=0
EXTRACT: note_on channel=6 note=69 velocity=100 time=0
EXTRACT: note_off channel=9 note=46 velocity=64 time=0.10869562499999999
EXTRACT: note_on channel=9 note=46 velocity=36 time=0.021739124999999998
EXTRACT: note_off channel=2 note=45 velocity=64 time=0.10869562499999999
EXTRACT: note_off channel=9 note=46 velocity=64 time=0
EXTRACT: note_off channel=5 note=60 velocity=64 time=0
EXTRACT: note_on channel=2 note=45 velocity=75 time=0.021739124999999998
EXTRACT: note_on channel=9 note=45 velocity=98 time=0
EXTRACT: note_on channel=9 note=46 velocity=36 time=0
EXTRACT: note_on channel=5 note=64 velocity=100 time=0
EXTRACT: note_off channel=9 note=45 velocity=64 time=0.10869562499999999
EXTRACT: note_off channel=9 note=46 velocity=64 time=0
EXTRACT: note_on channel=9 note=46 velocity=38 time=0.021739124999999998
EXTRACT: note_off channel=2 note=45 velocity=64 time=0.10869562499999999
EXTRACT: note_off channel=9 note=46 velocity=64 time=0
EXTRACT: note_off channel=5 note=64 velocity=64 time=0
EXTRACT: note_on channel=2 note=45 velocity=75 time=0.021739124999999998
EXTRACT: note_on channel=9 note=46 velocity=38 time=0
EXTRACT: note_on channel=5 note=60 velocity=100 time=0
EXTRACT: note_off channel=9 note=46 velocity=64 time=0.10869562499999999
EXTRACT: note_on channel=9 note=46 velocity=36 time=0.021739124999999998
EXTRACT: note_off channel=2 note=45 velocity=64 time=0.10869562499999999
EXTRACT: note_off channel=9 note=46 velocity=64 time=0
EXTRACT: note_off channel=5 note=60 velocity=64 time=0
EXTRACT: note_on channel=2 note=45 velocity=75 time=0.021739124999999998
EXTRACT: note_on channel=9 note=45 velocity=95 time=0
EXTRACT: note_on channel=9 note=46 velocity=38 time=0
EXTRACT: note_on channel=5 note=57 velocity=100 time=0
EXTRACT: note_off channel=9 note=45 velocity=64 time=0.10869562499999999
EXTRACT: note_off channel=9 note=46 velocity=64 time=0
EXTRACT: note_on channel=9 note=46 velocity=38 time=0.021739124999999998
EXTRACT: note_off channel=2 note=45 velocity=64 time=0.10869562499999999
EXTRACT: note_off channel=9 note=46 velocity=64 time=0
EXTRACT: note_off channel=5 note=57 velocity=64 time=0
EXTRACT: note_on channel=2 note=45 velocity=75 time=0.021739124999999998
EXTRACT: note_on channel=9 note=46 velocity=38 time=0
EXTRACT: note_on channel=5 note=64 velocity=100 time=0
EXTRACT: note_off channel=9 note=46 velocity=64 time=0.10869562499999999
EXTRACT: note_on channel=9 note=46 velocity=38 time=0.021739124999999998
EXTRACT: note_off channel=2 note=45 velocity=64 time=0.10869562499999999
EXTRACT: note_off channel=9 note=46 velocity=64 time=0
EXTRACT: note_off channel=5 note=64 velocity=64 time=0
EXTRACT: note_off channel=6 note=69 velocity=64 time=0
EXTRACT: note_on channel=2 note=45 velocity=75 time=0.021739124999999998
EXTRACT: note_on channel=9 note=45 velocity=98 time=0
EXTRACT: note_on channel=9 note=46 velocity=36 time=0
EXTRACT: note_on channel=5 note=60 velocity=100 time=0
EXTRACT: note_off channel=9 note=45 velocity=64 time=0.10869562499999999
EXTRACT: note_off channel=9 note=46 velocity=64 time=0
EXTRACT: note_on channel=9 note=46 velocity=38 time=0.021739124999999998
EXTRACT: note_off channel=2 note=45 velocity=64 time=0.10869562499999999
EXTRACT: note_off channel=9 note=46 velocity=64 time=0
EXTRACT: note_off channel=5 note=60 velocity=64 time=0
EXTRACT: note_on channel=2 note=45 velocity=75 time=0.021739124999999998
EXTRACT: note_on channel=9 note=46 velocity=36 time=0
EXTRACT: note_on channel=5 note=57 velocity=100 time=0
EXTRACT: note_on channel=6 note=69 velocity=100 time=0
EXTRACT: note_off channel=9 note=46 velocity=64 time=0.10869562499999999
EXTRACT: note_on channel=9 note=46 velocity=38 time=0.021739124999999998
EXTRACT: note_off channel=2 note=45 velocity=64 time=0.10869562499999999
EXTRACT: note_off channel=9 note=46 velocity=64 time=0
EXTRACT: note_off channel=5 note=57 velocity=64 time=0
EXTRACT: note_off channel=6 note=69 velocity=64 time=0
EXTRACT: note_on channel=2 note=45 velocity=75 time=0.021739124999999998
EXTRACT: note_on channel=9 note=45 velocity=95 time=0
EXTRACT: note_on channel=9 note=46 velocity=36 time=0
EXTRACT: note_on channel=5 note=64 velocity=100 time=0
EXTRACT: note_off channel=9 note=45 velocity=64 time=0.10869562499999999
EXTRACT: note_off channel=9 note=46 velocity=64 time=0
EXTRACT: note_on channel=9 note=46 velocity=38 time=0.021739124999999998
EXTRACT: note_off channel=2 note=45 velocity=64 time=0.10869562499999999
EXTRACT: note_off channel=9 note=46 velocity=64 time=0
EXTRACT: note_off channel=5 note=64 velocity=64 time=0
EXTRACT: note_on channel=2 note=45 velocity=75 time=0.021739124999999998
EXTRACT: note_on channel=9 note=46 velocity=38 time=0
EXTRACT: note_on channel=5 note=60 velocity=100 time=0
EXTRACT: note_on channel=6 note=81 velocity=100 time=0
EXTRACT: note_off channel=9 note=46 velocity=64 time=0.10869562499999999
EXTRACT: note_on channel=9 note=46 velocity=38 time=0.021739124999999998
EXTRACT: note_off channel=2 note=45 velocity=64 time=0.10869562499999999
EXTRACT: note_off channel=9 note=46 velocity=64 time=0
EXTRACT: note_off channel=4 note=52 velocity=64 time=0
EXTRACT: note_off channel=4 note=57 velocity=64 time=0
EXTRACT: note_off channel=5 note=60 velocity=64 time=0
EXTRACT: note_on channel=2 note=38 velocity=75 time=0.021739124999999998
EXTRACT: note_on channel=9 note=45 velocity=98 time=0
EXTRACT: note_on channel=9 note=46 velocity=38 time=0
EXTRACT: note_on channel=4 note=50 velocity=100 time=0
EXTRACT: note_on channel=4 note=57 velocity=100 time=0
EXTRACT: note_on channel=5 note=65 velocity=100 time=0
EXTRACT: note_off channel=9 note=45 velocity=64 time=0.10869562499999999
EXTRACT: note_off channel=9 note=46 velocity=64 time=0
EXTRACT: note_on channel=9 note=46 velocity=38 time=0.021739124999999998
EXTRACT: note_off channel=2 note=38 velocity=64 time=0.10869562499999999
EXTRACT: note_off channel=9 note=46 velocity=64 time=0
EXTRACT: note_off channel=5 note=65 velocity=64 time=0
EXTRACT: note_off channel=6 note=81 velocity=64 time=0
EXTRACT: note_on channel=2 note=38 velocity=75 time=0.021739124999999998
EXTRACT: note_on channel=9 note=46 velocity=38 time=0
EXTRACT: note_on channel=5 note=62 velocity=100 time=0
EXTRACT: note_on channel=6 note=81 velocity=100 time=0
EXTRACT: note_off channel=9 note=46 velocity=64 time=0.10869562499999999
EXTRACT: note_on channel=9 note=46 velocity=38 time=0.021739124999999998
EXTRACT: note_off channel=2 note=38 velocity=64 time=0.10869562499999999
EXTRACT: note_off channel=9 note=46 velocity=64 time=0
EXTRACT: note_off channel=5 note=62 velocity=64 time=0
EXTRACT: note_off channel=6 note=81 velocity=64 time=0
EXTRACT: note_on channel=2 note=38 velocity=75 time=0.021739124999999998
EXTRACT: note_on channel=9 note=45 velocity=95 time=0
EXTRACT: note_on channel=9 note=46 velocity=35 time=0
EXTRACT: note_on channel=5 note=57 velocity=100 time=0
EXTRACT: note_on channel=6 note=79 velocity=100 time=0
EXTRACT: note_off channel=9 note=45 velocity=64 time=0.10869562499999999
EXTRACT: note_off channel=9 note=46 velocity=64 time=0
EXTRACT: note_on channel=9 note=46 velocity=35 time=0.021739124999999998
EXTRACT: note_off channel=2 note=38 velocity=64 time=0.10869562499999999
EXTRACT: note_off channel=9 note=46 velocity=64 time=0
EXTRACT: note_off channel=5 note=57 velocity=64 time=0
EXTRACT: note_off channel=6 note=79 velocity=64 time=0
EXTRACT: note_on channel=2 note=38 velocity=75 time=0.021739124999999998
EXTRACT: note_on channel=9 note=46 velocity=35 time=0
EXTRACT: note_on channel=5 note=65 velocity=100 time=0
EXTRACT: note_on channel=6 note=79 velocity=100 time=0
EXTRACT: note_off channel=9 note=46 velocity=64 time=0.10869562499999999
EXTRACT: note_on channel=9 note=46 velocity=35 time=0.021739124999999998
EXTRACT: note_off channel=2 note=38 velocity=64 time=0.10869562499999999
EXTRACT: note_off channel=9 note=46 velocity=64 time=0
EXTRACT: note_off channel=5 note=65 velocity=64 time=0
EXTRACT: note_off channel=6 note=79 velocity=64 time=0
EXTRACT: note_on channel=2 note=38 velocity=75 time=0.021739124999999998
EXTRACT: note_on channel=9 note=45 velocity=98 time=0
EXTRACT: note_on channel=9 note=46 velocity=35 time=0
EXTRACT: note_on channel=5 note=62 velocity=100 time=0
EXTRACT: note_on channel=6 note=77 velocity=100 time=0
EXTRACT: note_off channel=9 note=45 velocity=64 time=0.10869562499999999
EXTRACT: note_off channel=9 note=46 velocity=64 time=0
EXTRACT: note_on channel=9 note=46 velocity=35 time=0.021739124999999998
EXTRACT: note_off channel=2 note=38 velocity=64 time=0.10869562499999999
EXTRACT: note_off channel=9 note=46 velocity=64 time=0
EXTRACT: note_off channel=5 note=62 velocity=64 time=0
EXTRACT: note_on channel=2 note=38 velocity=75 time=0.021739124999999998
EXTRACT: note_on channel=9 note=46 velocity=35 time=0
EXTRACT: note_on channel=5 note=57 velocity=100 time=0
EXTRACT: note_off channel=9 note=46 velocity=64 time=0.10869562499999999
EXTRACT: note_on channel=9 note=46 velocity=35 time=0.021739124999999998
EXTRACT: note_off channel=2 note=38 velocity=64 time=0.10869562499999999
EXTRACT: note_off channel=9 note=46 velocity=64 time=0
EXTRACT: note_off channel=5 note=57 velocity=64 time=0
EXTRACT: note_off channel=6 note=77 velocity=64 time=0
EXTRACT: note_on channel=2 note=38 velocity=75 time=0.021739124999999998
EXTRACT: note_on channel=9 note=45 velocity=95 time=0
EXTRACT: note_on channel=9 note=46 velocity=35 time=0
EXTRACT: note_on channel=5 note=65 velocity=100 time=0
EXTRACT: note_on channel=6 note=76 velocity=100 time=0
EXTRACT: note_off channel=9 note=45 velocity=64 time=0.10869562499999999
EXTRACT: note_off channel=9 note=46 velocity=64 time=0
EXTRACT: note_on channel=9 note=46 velocity=35 time=0.021739124999999998
EXTRACT: note_off channel=2 note=38 velocity=64 time=0.10869562499999999
EXTRACT: note_off channel=9 note=46 velocity=64 time=0
EXTRACT: note_off channel=5 note=65 velocity=64 time=0
EXTRACT: note_off channel=6 note=76 velocity=64 time=0
EXTRACT: note_on channel=2 note=38 velocity=75 time=0.021739124999999998
EXTRACT: note_on channel=9 note=46 velocity=35 time=0
EXTRACT: note_on channel=5 note=62 velocity=100 time=0
EXTRACT: note_on channel=6 note=79 velocity=100 time=0
EXTRACT: note_off channel=9 note=46 velocity=64 time=0.10869562499999999
EXTRACT: note_on channel=9 note=46 velocity=35 time=0.021739124999999998
EXTRACT: note_off channel=2 note=38 velocity=64 time=0.10869562499999999
EXTRACT: note_off channel=9 note=46 velocity=64 time=0
EXTRACT: note_off channel=5 note=62 velocity=64 time=0
EXTRACT: note_on channel=2 note=38 velocity=75 time=0.021739124999999998
EXTRACT: note_on channel=9 note=45 velocity=98 time=0
EXTRACT: note_on channel=9 note=46 velocity=35 time=0
EXTRACT: note_on channel=5 note=65 velocity=100 time=0
EXTRACT: note_off channel=9 note=45 velocity=64 time=0.10869562499999999
EXTRACT: note_off channel=9 note=46 velocity=64 time=0
EXTRACT: note_on channel=9 note=46 velocity=35 time=0.021739124999999998
EXTRACT: note_off channel=2 note=38 velocity=64 time=0.10869562499999999
EXTRACT: note_off channel=9 note=46 velocity=64 time=0
EXTRACT: note_off channel=5 note=65 velocity=64 time=0
EXTRACT: note_off channel=6 note=79 velocity=64 time=0
EXTRACT: note_on channel=2 note=38 velocity=75 time=0.021739124999999998
EXTRACT: note_on channel=9 note=46 velocity=35 time=0
EXTRACT: note_on channel=5 note=62 velocity=100 time=0
EXTRACT: note_on channel=6 note=79 velocity=100 time=0
EXTRACT: note_off channel=9 note=46 velocity=64 time=0.10869562499999999
EXTRACT: note_on channel=9 note=46 velocity=35 time=0.021739124999999998
EXTRACT: note_off channel=2 note=38 velocity=64 time=0.10869562499999999
EXTRACT: note_off channel=9 note=46 velocity=64 time=0
EXTRACT: note_off channel=5 note=62 velocity=64 time=0
EXTRACT: note_off channel=6 note=79 velocity=64 time=0
EXTRACT: note_on channel=2 note=38 velocity=75 time=0.021739124999999998
EXTRACT: note_on channel=9 note=45 velocity=95 time=0
EXTRACT: note_on channel=9 note=46 velocity=35 time=0
EXTRACT: note_on channel=5 note=57 velocity=100 time=0
EXTRACT: note_on channel=6 note=77 velocity=100 time=0
EXTRACT: note_off channel=9 note=45 velocity=64 time=0.10869562499999999
EXTRACT: note_off channel=9 note=46 velocity=64 time=0
EXTRACT: note_on channel=9 note=46 velocity=35 time=0.021739124999999998
EXTRACT: note_off channel=2 note=38 velocity=64 time=0.10869562499999999
EXTRACT: note_off channel=9 note=46 velocity=64 time=0
EXTRACT: note_off channel=5 note=57 velocity=64 time=0
EXTRACT: note_off channel=6 note=77 velocity=64 time=0
EXTRACT: note_on channel=2 note=38 velocity=75 time=0.021739124999999998
EXTRACT: note_on channel=9 note=46 velocity=35 time=0
EXTRACT: note_on channel=5 note=65 velocity=100 time=0
EXTRACT: note_on channel=6 note=77 velocity=100 time=0
EXTRACT: note_off channel=9 note=46 velocity=64 time=0.10869562499999999
EXTRACT: note_on channel=9 note=46 velocity=35 time=0.021739124999999998
EXTRACT: note_off channel=2 note=38 velocity=64 time=0.10869562499999999
EXTRACT: note_off channel=9 note=46 velocity=64 time=0
EXTRACT: note_off channel=5 note=65 velocity=64 time=0
EXTRACT: note_off channel=6 note=77 velocity=64 time=0
EXTRACT: note_on channel=2 note=38 velocity=75 time=0.021739124999999998
EXTRACT: note_on channel=9 note=45 velocity=98 time=0
EXTRACT: note_on channel=9 note=46 velocity=35 time=0
EXTRACT: note_on channel=5 note=62 velocity=100 time=0
EXTRACT: note_on channel=6 note=76 velocity=100 time=0
EXTRACT: note_off channel=9 note=45 velocity=64 time=0.10869562499999999
EXTRACT: note_off channel=9 note=46 velocity=64 time=0
EXTRACT: note_on channel=9 note=46 velocity=35 time=0.021739124999999998
EXTRACT: note_off channel=2 note=38 velocity=64 time=0.10869562499999999
EXTRACT: note_off channel=9 note=46 velocity=64 time=0
EXTRACT: note_off channel=5 note=62 velocity=64 time=0
EXTRACT: note_on channel=2 note=38 velocity=75 time=0.021739124999999998
EXTRACT: note_on channel=9 note=46 velocity=35 time=0
EXTRACT: note_on channel=5 note=57 velocity=100 time=0
EXTRACT: note_off channel=9 note=46 velocity=64 time=0.10869562499999999
EXTRACT: note_on channel=9 note=46 velocity=35 time=0.021739124999999998
EXTRACT: note_off channel=2 note=38 velocity=64 time=0.10869562499999999
EXTRACT: note_off channel=9 note=46 velocity=64 time=0
EXTRACT: note_off channel=5 note=57 velocity=64 time=0
EXTRACT: note_off channel=6 note=76 velocity=64 time=0
EXTRACT: note_on channel=2 note=38 velocity=75 time=0.021739124999999998
EXTRACT: note_on channel=9 note=45 velocity=95 time=0
EXTRACT: note_on channel=9 note=46 velocity=35 time=0
EXTRACT: note_on channel=5 note=65 velocity=100 time=0
EXTRACT: note_on channel=6 note=74 velocity=100 time=0
EXTRACT: note_off channel=9 note=45 velocity=64 time=0.10869562499999999
EXTRACT: note_off channel=9 note=46 velocity=64 time=0
EXTRACT: note_on channel=9 note=46 velocity=35 time=0.021739124999999998
EXTRACT: note_off channel=2 note=38 velocity=64 time=0.10869562499999999
EXTRACT: note_off channel=9 note=46 velocity=64 time=0
EXTRACT: note_off channel=5 note=65 velocity=64 time=0
EXTRACT: note_off channel=6 note=74 velocity=64 time=0
EXTRACT: note_on channel=2 note=38 velocity=75 time=0.021739124999999998
EXTRACT: note_on channel=9 note=46 velocity=35 time=0
EXTRACT: note_on channel=5 note=62 velocity=100 time=0
EXTRACT: note_on channel=6 note=74 velocity=100 time=0
EXTRACT: note_off channel=9 note=46 velocity=64 time=0.10869562499999999
EXTRACT: note_on channel=9 note=46 velocity=35 time=0.021739124999999998
EXTRACT: note_off channel=2 note=38 velocity=64 time=0.10869562499999999
EXTRACT: note_off channel=9 note=46 velocity=64 time=0
EXTRACT: note_off channel=4 note=57 velocity=64 time=0
EXTRACT: note_off channel=4 note=50 velocity=64 time=0
EXTRACT: note_off channel=5 note=62 velocity=64 time=0
EXTRACT: note_on channel=2 note=34 velocity=75 time=0.021739124999999998
EXTRACT: note_on channel=9 note=45 velocity=98 time=0
EXTRACT: note_on channel=9 note=46 velocity=35 time=0
EXTRACT: note_on channel=4 note=46 velocity=100 time=0
EXTRACT: note_on channel=5 note=65 velocity=100 time=0
EXTRACT: note_off channel=9 note=45 velocity=64 time=0.10869562499999999
EXTRACT: note_off channel=9 note=46 velocity=64 time=0
EXTRACT: note_on channel=9 note=46 velocity=35 time=0.021739124999999998
EXTRACT: note_off channel=2 note=34 velocity=64 time=0.10869562499999999
EXTRACT: note_off channel=9 note=46 velocity=64 time=0
EXTRACT: note_off channel=5 note=65 velocity=64 time=0
EXTRACT: note_off channel=6 note=74 velocity=64 time=0
EXTRACT: note_on channel=2 note=34 velocity=75 time=0.021739124999999998
EXTRACT: note_on channel=9 note=46 velocity=35 time=0
EXTRACT: note_on channel=5 note=62 velocity=100 time=0
EXTRACT: note_on channel=6 note=77 velocity=100 time=0
EXTRACT: note_off channel=9 note=46 velocity=64 time=0.10869562499999999
EXTRACT: note_off channel=6 note=77 velocity=64 time=0
EXTRACT: note_on channel=9 note=46 velocity=35 time=0.021739124999999998
EXTRACT: note_off channel=2 note=34 velocity=64 time=0.10869562499999999
EXTRACT: note_off channel=9 note=46 velocity=64 time=0
EXTRACT: note_off channel=5 note=62 velocity=64 time=0
EXTRACT: note_on channel=2 note=34 velocity=75 time=0.021739124999999998
EXTRACT: note_on channel=9 note=45 velocity=95 time=0
EXTRACT: note_on channel=9 note=46 velocity=35 time=0
EXTRACT: note_on channel=5 note=58 velocity=100 time=0
EXTRACT: note_on channel=6 note=79 velocity=100 time=0
EXTRACT: note_off channel=9 note=45 velocity=64 time=0.10869562499999999
EXTRACT: note_off channel=9 note=46 velocity=64 time=0
EXTRACT: note_on channel=9 note=46 velocity=35 time=0.021739124999999998
EXTRACT: note_off channel=2 note=34 velocity=64 time=0.10869562499999999
EXTRACT: note_off channel=9 note=46 velocity=64 time=0
EXTRACT: note_off channel=5 note=58 velocity=64 time=0
EXTRACT: note_off channel=6 note=79 velocity=64 time=0
EXTRACT: note_on channel=2 note=34 velocity=75 time=0.021739124999999998
EXTRACT: note_on channel=9 note=46 velocity=35 time=0
EXTRACT: note_on channel=5 note=65 velocity=100 time=0
EXTRACT: note_on channel=6 note=79 velocity=100 time=0
EXTRACT: note_off channel=9 note=46 velocity=64 time=0.10869562499999999
EXTRACT: note_on channel=9 note=46 velocity=35 time=0.021739124999999998
EXTRACT: note_off channel=2 note=34 velocity=64 time=0.10869562499999999
EXTRACT: note_off channel=9 note=46 velocity=64 time=0
EXTRACT: note_off channel=5 note=65 velocity=64 time=0
EXTRACT: note_off channel=6 note=79 velocity=64 time=0
EXTRACT: note_on channel=2 note=34 velocity=75 time=0.021739124999999998
EXTRACT: note_on channel=9 note=45 velocity=98 time=0
EXTRACT: note_on channel=9 note=46 velocity=35 time=0
EXTRACT: note_on channel=5 note=62 velocity=100 time=0
EXTRACT: note_on channel=6 note=79 velocity=100 time=0
EXTRACT: note_off channel=9 note=45 velocity=64 time=0.10869562499999999
EXTRACT: note_off channel=9 note=46 velocity=64 time=0
EXTRACT: note_on channel=9 note=46 velocity=35 time=0.021739124999999998
EXTRACT: note_off channel=2 note=34 velocity=64 time=0.10869562499999999
EXTRACT: note_off channel=9 note=46 velocity=64 time=0
EXTRACT: note_off channel=5 note=62 velocity=64 time=0
EXTRACT: note_off channel=6 note=79 velocity=64 time=0
EXTRACT: note_on channel=2 note=34 velocity=75 time=0.021739124999999998
EXTRACT: note_on channel=9 note=46 velocity=35 time=0
EXTRACT: note_on channel=5 note=58 velocity=100 time=0
EXTRACT: note_on channel=6 note=79 velocity=100 time=0
EXTRACT: note_off channel=9 note=46 velocity=64 time=0.10869562499999999
EXTRACT: note_on channel=9 note=46 velocity=35 time=0.021739124999999998
EXTRACT: note_off channel=2 note=34 velocity=64 time=0.10869562499999999
EXTRACT: note_off channel=9 note=46 velocity=64 time=0
EXTRACT: note_off channel=5 note=58 velocity=64 time=0
EXTRACT: note_off channel=6 note=79 velocity=64 time=0
EXTRACT: note_on channel=2 note=34 velocity=75 time=0.021739124999999998
EXTRACT: note_on channel=9 note=45 velocity=95 time=0
EXTRACT: note_on channel=9 note=46 velocity=35 time=0
EXTRACT: note_on channel=5 note=65 velocity=100 time=0
EXTRACT: note_on channel=6 note=77 velocity=100 time=0
EXTRACT: note_off channel=9 note=45 velocity=64 time=0.10869562499999999
EXTRACT: note_off channel=9 note=46 velocity=64 time=0
EXTRACT: note_on channel=9 note=46 velocity=35 time=0.021739124999999998
EXTRACT: note_off channel=2 note=34 velocity=64 time=0.10869562499999999
EXTRACT: note_off channel=9 note=46 velocity=64 time=0
EXTRACT: note_off channel=5 note=65 velocity=64 time=0
EXTRACT: note_off channel=6 note=77 velocity=64 time=0
EXTRACT: note_on channel=2 note=34 velocity=75 time=0.021739124999999998
EXTRACT: note_on channel=9 note=46 velocity=35 time=0
EXTRACT: note_on channel=5 note=62 velocity=100 time=0
EXTRACT: note_on channel=6 note=81 velocity=100 time=0
EXTRACT: note_off channel=9 note=46 velocity=64 time=0.10869562499999999
EXTRACT: note_on channel=9 note=46 velocity=35 time=0.021739124999999998
EXTRACT: note_off channel=2 note=34 velocity=64 time=0.10869562499999999
EXTRACT: note_off channel=9 note=46 velocity=64 time=0
EXTRACT: note_off channel=4 note=46 velocity=64 time=0
EXTRACT: note_off channel=5 note=62 velocity=64 time=0
EXTRACT: note_off channel=6 note=81 velocity=64 time=0
EXTRACT: note_on channel=2 note=34 velocity=75 time=0.021739124999999998
EXTRACT: note_on channel=9 note=45 velocity=98 time=0
EXTRACT: note_on channel=9 note=46 velocity=35 time=0
EXTRACT: note_on channel=4 note=50 velocity=100 time=0
EXTRACT: note_on channel=4 note=55 velocity=100 time=0
EXTRACT: note_on channel=5 note=65 velocity=100 time=0
EXTRACT: note_off channel=9 note=45 velocity=64 time=0.10869562499999999
EXTRACT: note_off channel=9 note=46 velocity=64 time=0
EXTRACT: note_off channel=2 note=34 velocity=64 time=0.13043475
EXTRACT: note_off channel=4 note=50 velocity=64 time=0
EXTRACT: note_off channel=4 note=55 velocity=64 time=0
EXTRACT: note_off channel=5 note=65 velocity=64 time=0
EXTRACT: note_on channel=2 note=34 velocity=75 time=0.021739124999999998
EXTRACT: note_off channel=2 note=34 velocity=64 time=0.23913037499999998
EXTRACT: note_on channel=2 note=34 velocity=75 time=0.021739124999999998
EXTRACT: note_on channel=5 note=65 velocity=100 time=0
EXTRACT: note_on channel=5 note=62 velocity=100 time=0
EXTRACT: note_on channel=6 note=81 velocity=100 time=0
EXTRACT: note_off channel=2 note=34 velocity=64 time=0.23913037499999998
EXTRACT: note_off channel=5 note=65 velocity=64 time=0
EXTRACT: note_off channel=5 note=62 velocity=64 time=0
EXTRACT: note_on channel=2 note=34 velocity=75 time=0.021739124999999998
EXTRACT: note_off channel=2 note=34 velocity=64 time=0.23913037499999998
EXTRACT: note_off channel=6 note=81 velocity=64 time=0
EXTRACT: note_on channel=2 note=34 velocity=75 time=0.021739124999999998
EXTRACT: note_on channel=6 note=79 velocity=100 time=0
EXTRACT: note_off channel=2 note=34 velocity=64 time=0.23913037499999998
EXTRACT: note_off channel=6 note=79 velocity=64 time=0
EXTRACT: note_on channel=2 note=34 velocity=75 time=0.021739124999999998
EXTRACT: note_on channel=6 note=77 velocity=100 time=0
EXTRACT: note_off channel=2 note=34 velocity=64 time=0.23913037499999998
EXTRACT: note_off channel=6 note=77 velocity=64 time=0
EXTRACT: note_on channel=2 note=34 velocity=75 time=0.021739124999999998
EXTRACT: note_on channel=6 note=79 velocity=100 time=0
EXTRACT: note_off channel=2 note=34 velocity=64 time=0.23913037499999998
EXTRACT: note_off channel=6 note=79 velocity=64 time=0
EXTRACT: note_on channel=2 note=34 velocity=75 time=0.021739124999999998
EXTRACT: note_off channel=2 note=34 velocity=64 time=0.23913037499999998
EXTRACT: note_on channel=1 note=62 velocity=100 time=0.021739124999999998
EXTRACT: note_on channel=1 note=69 velocity=100 time=0
EXTRACT: note_on channel=2 note=38 velocity=100 time=0
EXTRACT: note_on channel=9 note=45 velocity=98 time=0
EXTRACT: note_on channel=9 note=46 velocity=39 time=0
EXTRACT: note_on channel=4 note=50 velocity=100 time=0
EXTRACT: note_on channel=4 note=57 velocity=100 time=0
EXTRACT: note_on channel=5 note=50 velocity=100 time=0
EXTRACT: note_on channel=5 note=57 velocity=100 time=0
EXTRACT: note_on channel=6 note=81 velocity=100 time=0
EXTRACT: note_off channel=9 note=45 velocity=64 time=0.10869562499999999
EXTRACT: note_off channel=9 note=46 velocity=64 time=0
EXTRACT: note_on channel=9 note=46 velocity=39 time=0.021739124999999998
EXTRACT: note_off channel=2 note=38 velocity=64 time=0.10869562499999999
EXTRACT: note_off channel=9 note=46 velocity=64 time=0
EXTRACT: note_on channel=2 note=38 velocity=100 time=0.021739124999999998
EXTRACT: note_on channel=9 note=46 velocity=39 time=0
EXTRACT: note_off channel=9 note=46 velocity=64 time=0.10869562499999999
EXTRACT: note_on channel=9 note=46 velocity=39 time=0.021739124999999998
EXTRACT: note_off channel=2 note=38 velocity=64 time=0.10869562499999999
EXTRACT: note_off channel=9 note=46 velocity=64 time=0
EXTRACT: note_off channel=6 note=81 velocity=64 time=0
EXTRACT: note_on channel=2 note=38 velocity=100 time=0.021739124999999998
EXTRACT: note_on channel=9 note=45 velocity=95 time=0
EXTRACT: note_on channel=9 note=46 velocity=39 time=0
EXTRACT: note_on channel=6 note=77 velocity=100 time=0
EXTRACT: note_off channel=9 note=45 velocity=64 time=0.10869562499999999
EXTRACT: note_off channel=9 note=46 velocity=64 time=0
EXTRACT: note_on channel=9 note=46 velocity=39 time=0.021739124999999998
EXTRACT: note_off channel=2 note=38 velocity=64 time=0.10869562499999999
EXTRACT: note_off channel=9 note=46 velocity=64 time=0
EXTRACT: note_off channel=6 note=77 velocity=64 time=0
EXTRACT: note_on channel=2 note=38 velocity=100 time=0.021739124999999998
EXTRACT: note_on channel=9 note=46 velocity=39 time=0
EXTRACT: note_on channel=6 note=74 velocity=100 time=0
EXTRACT: note_off channel=9 note=46 velocity=64 time=0.10869562499999999
EXTRACT: note_on channel=9 note=46 velocity=39 time=0.021739124999999998
EXTRACT: note_off channel=1 note=62 velocity=64 time=0.10869562499999999
EXTRACT: note_off channel=1 note=69 velocity=64 time=0
EXTRACT: note_off channel=2 note=38 velocity=64 time=0
EXTRACT: note_off channel=9 note=46 velocity=64 time=0
EXTRACT: note_off channel=4 note=50 velocity=64 time=0
EXTRACT: note_off channel=4 note=57 velocity=64 time=0
EXTRACT: note_off channel=5 note=50 velocity=64 time=0
EXTRACT: note_off channel=5 note=57 velocity=64 time=0
EXTRACT: note_on channel=1 note=70 velocity=100 time=0.021739124999999998
EXTRACT: note_on channel=1 note=65 velocity=100 time=0
EXTRACT: note_on channel=2 note=34 velocity=100 time=0
EXTRACT: note_on channel=9 note=45 velocity=98 time=0
EXTRACT: note_on channel=9 note=46 velocity=39 time=0
EXTRACT: note_on channel=4 note=58 velocity=100 time=0
EXTRACT: note_on channel=4 note=53 velocity=100 time=0
EXTRACT: note_on channel=5 note=58 velocity=100 time=0
EXTRACT: note_on channel=5 note=53 velocity=100 time=0
EXTRACT: note_off channel=9 note=45 velocity=64 time=0.10869562499999999
EXTRACT: note_off channel=9 note=46 velocity=64 time=0
EXTRACT: note_on channel=9 note=46 velocity=39 time=0.021739124999999998
EXTRACT: note_off channel=2 note=34 velocity=64 time=0.10869562499999999
EXTRACT: note_off channel=9 note=46 velocity=64 time=0
EXTRACT: note_on channel=2 note=34 velocity=100 time=0.021739124999999998
EXTRACT: note_on channel=9 note=46 velocity=39 time=0
EXTRACT: note_off channel=9 note=46 velocity=64 time=0.10869562499999999
EXTRACT: note_on channel=9 note=46 velocity=39 time=0.021739124999999998
EXTRACT: note_off channel=2 note=34 velocity=64 time=0.10869562499999999
EXTRACT: note_off channel=9 note=46 velocity=64 time=0
EXTRACT: note_off channel=6 note=74 velocity=64 time=0
EXTRACT: note_on channel=2 note=34 velocity=100 time=0.021739124999999998
EXTRACT: note_on channel=9 note=45 velocity=95 time=0
EXTRACT: note_on channel=9 note=46 velocity=39 time=0
EXTRACT: note_off channel=9 note=45 velocity=64 time=0.10869562499999999
EXTRACT: note_off channel=9 note=46 velocity=64 time=0
EXTRACT: note_on channel=9 note=46 velocity=39 time=0.021739124999999998
EXTRACT: note_off channel=2 note=34 velocity=64 time=0.10869562499999999
EXTRACT: note_off channel=9 note=46 velocity=64 time=0
EXTRACT: note_on channel=2 note=34 velocity=100 time=0.021739124999999998
EXTRACT: note_on channel=9 note=46 velocity=39 time=0
EXTRACT: note_off channel=9 note=46 velocity=64 time=0.10869562499999999
EXTRACT: note_on channel=9 note=46 velocity=39 time=0.021739124999999998
EXTRACT: note_off channel=1 note=70 velocity=64 time=0.10869562499999999
EXTRACT: note_off channel=1 note=65 velocity=64 time=0
EXTRACT: note_off channel=2 note=34 velocity=64 time=0
EXTRACT: note_off channel=9 note=46 velocity=64 time=0
EXTRACT: note_off channel=4 note=58 velocity=64 time=0
EXTRACT: note_off channel=4 note=53 velocity=64 time=0
EXTRACT: note_off channel=5 note=58 velocity=64 time=0
EXTRACT: note_off channel=5 note=53 velocity=64 time=0
EXTRACT: note_on channel=1 note=69 velocity=100 time=0.021739124999999998
EXTRACT: note_on channel=1 note=65 velocity=100 time=0
EXTRACT: note_on channel=2 note=41 velocity=100 time=0
EXTRACT: note_on channel=9 note=45 velocity=98 time=0
EXTRACT: note_on channel=9 note=46 velocity=39 time=0
EXTRACT: note_on channel=4 note=57 velocity=100 time=0
EXTRACT: note_on channel=4 note=53 velocity=100 time=0
EXTRACT: note_on channel=5 note=57 velocity=100 time=0
EXTRACT: note_on channel=5 note=53 velocity=100 time=0
EXTRACT: note_off channel=9 note=45 velocity=64 time=0.10869562499999999
EXTRACT: note_off channel=9 note=46 velocity=64 time=0
EXTRACT: note_on channel=9 note=46 velocity=39 time=0.021739124999999998
EXTRACT: note_off channel=2 note=41 velocity=64 time=0.10869562499999999
EXTRACT: note_off channel=9 note=46 velocity=64 time=0
EXTRACT: note_on channel=2 note=41 velocity=100 time=0.021739124999999998
EXTRACT: note_on channel=9 note=46 velocity=39 time=0
EXTRACT: note_on channel=6 note=79 velocity=100 time=0
EXTRACT: note_off channel=9 note=46 velocity=64 time=0.10869562499999999
EXTRACT: note_on channel=9 note=46 velocity=39 time=0.021739124999999998
EXTRACT: note_off channel=2 note=41 velocity=64 time=0.10869562499999999
EXTRACT: note_off channel=9 note=46 velocity=64 time=0
EXTRACT: note_off channel=6 note=79 velocity=64 time=0
EXTRACT: note_on channel=2 note=41 velocity=100 time=0.021739124999999998
EXTRACT: note_on channel=9 note=45 velocity=95 time=0
EXTRACT: note_on channel=9 note=46 velocity=39 time=0
EXTRACT: note_on channel=6 note=79 velocity=100 time=0
EXTRACT: note_off channel=9 note=45 velocity=64 time=0.10869562499999999
EXTRACT: note_off channel=9 note=46 velocity=64 time=0
EXTRACT: note_on channel=9 note=46 velocity=39 time=0.021739124999999998
EXTRACT: note_off channel=1 note=65 velocity=64 time=0.10869562499999999
EXTRACT: note_off channel=1 note=69 velocity=64 time=0
EXTRACT: note_off channel=2 note=41 velocity=64 time=0
EXTRACT: note_off channel=9 note=46 velocity=64 time=0
EXTRACT: note_off channel=4 note=57 velocity=64 time=0
EXTRACT: note_off channel=4 note=53 velocity=64 time=0
EXTRACT: note_off channel=5 note=57 velocity=64 time=0
EXTRACT: note_off channel=5 note=53 velocity=64 time=0
EXTRACT: note_off channel=6 note=79 velocity=64 time=0
EXTRACT: note_on channel=1 note=67 velocity=100 time=0.021739124999999998
EXTRACT: note_on channel=1 note=62 velocity=100 time=0
EXTRACT: note_on channel=2 note=43 velocity=100 time=0
EXTRACT: note_on channel=9 note=46 velocity=39 time=0
EXTRACT: note_on channel=4 note=55 velocity=100 time=0
EXTRACT: note_on channel=4 note=50 velocity=100 time=0
EXTRACT: note_on channel=5 note=55 velocity=100 time=0
EXTRACT: note_on channel=5 note=50 velocity=100 time=0
EXTRACT: note_on channel=6 note=79 velocity=100 time=0
EXTRACT: note_off channel=9 note=46 velocity=64 time=0.10869562499999999
EXTRACT: note_on channel=9 note=46 velocity=40 time=0.021739124999999998
EXTRACT: note_off channel=2 note=43 velocity=64 time=0.10869562499999999
EXTRACT: note_off channel=9 note=46 velocity=64 time=0
EXTRACT: note_on channel=2 note=43 velocity=100 time=0.021739124999999998
EXTRACT: note_on channel=9 note=45 velocity=98 time=0
EXTRACT: note_on channel=9 note=46 velocity=39 time=0
EXTRACT: note_off channel=9 note=45 velocity=64 time=0.10869562499999999
EXTRACT: note_off channel=9 note=46 velocity=64 time=0
EXTRACT: note_on channel=9 note=46 velocity=39 time=0.021739124999999998
EXTRACT: note_off channel=2 note=43 velocity=64 time=0.10869562499999999
EXTRACT: note_off channel=9 note=46 velocity=64 time=0
EXTRACT: note_off channel=6 note=79 velocity=64 time=0
EXTRACT: note_on channel=2 note=41 velocity=100 time=0.021739124999999998
EXTRACT: note_on channel=9 note=46 velocity=39 time=0
EXTRACT: note_on channel=6 note=77 velocity=100 time=0
EXTRACT: note_off channel=9 note=46 velocity=64 time=0.10869562499999999
EXTRACT: note_on channel=9 note=46 velocity=39 time=0.021739124999999998
EXTRACT: note_off channel=2 note=41 velocity=64 time=0.10869562499999999
EXTRACT: note_off channel=9 note=46 velocity=64 time=0
EXTRACT: note_off channel=6 note=77 velocity=64 time=0
EXTRACT: note_on channel=2 note=43 velocity=100 time=0.021739124999999998
EXTRACT: note_on channel=9 note=45 velocity=95 time=0
EXTRACT: note_on channel=9 note=46 velocity=39 time=0
EXTRACT: note_on channel=6 note=79 velocity=100 time=0
EXTRACT: note_off channel=9 note=45 velocity=64 time=0.10869562499999999
EXTRACT: note_off channel=9 note=46 velocity=64 time=0
EXTRACT: note_on channel=9 note=46 velocity=39 time=0.021739124999999998
EXTRACT: note_off channel=2 note=43 velocity=64 time=0.10869562499999999
EXTRACT: note_off channel=9 note=46 velocity=64 time=0
EXTRACT: note_off channel=5 note=55 velocity=64 time=0
EXTRACT: note_off channel=5 note=50 velocity=64 time=0
EXTRACT: note_on channel=2 note=41 velocity=100 time=0.021739124999999998
EXTRACT: note_on channel=9 note=46 velocity=39 time=0
EXTRACT: note_off channel=9 note=46 velocity=64 time=0.10869562499999999
EXTRACT: note_on channel=9 note=46 velocity=39 time=0.021739124999999998
EXTRACT: note_off channel=1 note=67 velocity=64 time=0.10869562499999999
EXTRACT: note_off channel=1 note=62 velocity=64 time=0
EXTRACT: note_off channel=2 note=41 velocity=64 time=0
EXTRACT: note_off channel=9 note=46 velocity=64 time=0
EXTRACT: note_off channel=4 note=55 velocity=64 time=0
EXTRACT: note_off channel=4 note=50 velocity=64 time=0
EXTRACT: note_off channel=6 note=79 velocity=64 time=0
EXTRACT: note_on channel=1 note=62 velocity=100 time=0.021739124999999998
EXTRACT: note_on channel=1 note=69 velocity=100 time=0
EXTRACT: note_on channel=2 note=38 velocity=100 time=0
EXTRACT: note_on channel=9 note=45 velocity=98 time=0
EXTRACT: note_on channel=9 note=46 velocity=39 time=0
EXTRACT: note_on channel=4 note=50 velocity=100 time=0
EXTRACT: note_on channel=4 note=57 velocity=100 time=0
EXTRACT: note_on channel=5 note=50 velocity=100 time=0
EXTRACT: note_on channel=5 note=57 velocity=100 time=0
EXTRACT: note_on channel=6 note=81 velocity=100 time=0
EXTRACT: note_off channel=9 note=45 velocity=64 time=0.10869562499999999
EXTRACT: note_off channel=9 note=46 velocity=64 time=0
EXTRACT: note_on channel=9 note=46 velocity=39 time=0.021739124999999998
EXTRACT: note_off channel=2 note=38 velocity=64 time=0.10869562499999999
EXTRACT: note_off channel=9 note=46 velocity=64 time=0
EXTRACT: note_on channel=2 note=38 velocity=100 time=0.021739124999999998
EXTRACT: note_on channel=9 note=46 velocity=39 time=0
EXTRACT: note_off channel=9 note=46 velocity=64 time=0.10869562499999999
EXTRACT: note_on channel=9 note=46 velocity=39 time=0.021739124999999998
EXTRACT: note_off channel=2 note=38 velocity=64 time=0.10869562499999999
EXTRACT: note_off channel=9 note=46 velocity=64 time=0
EXTRACT: note_off channel=6 note=81 velocity=64 time=0
EXTRACT: note_on channel=2 note=38 velocity=100 time=0.021739124999999998
EXTRACT: note_on channel=9 note=45 velocity=95 time=0
EXTRACT: note_on channel=9 note=46 velocity=39 time=0
EXTRACT: note_on channel=6 note=77 velocity=100 time=0
EXTRACT: note_off channel=9 note=45 velocity=64 time=0.10869562499999999
EXTRACT: note_off channel=9 note=46 velocity=64 time=0
EXTRACT: note_on channel=9 note=46 velocity=39 time=0.021739124999999998
EXTRACT: note_off channel=2 note=38 velocity=64 time=0.10869562499999999
EXTRACT: note_off channel=9 note=46 velocity=64 time=0
EXTRACT: note_off channel=6 note=77 velocity=64 time=0
EXTRACT: note_on channel=2 note=38 velocity=100 time=0.021739124999999998
EXTRACT: note_on channel=9 note=46 velocity=39 time=0
EXTRACT: note_on channel=6 note=74 velocity=100 time=0
EXTRACT: note_off channel=9 note=46 velocity=64 time=0.10869562499999999
EXTRACT: note_on channel=9 note=46 velocity=39 time=0.021739124999999998
EXTRACT: note_off channel=1 note=62 velocity=64 time=0.10869562499999999
EXTRACT: note_off channel=1 note=69 velocity=64 time=0
EXTRACT: note_off channel=2 note=38 velocity=64 time=0
EXTRACT: note_off channel=9 note=46 velocity=64 time=0
EXTRACT: note_off channel=4 note=50 velocity=64 time=0
EXTRACT: note_off channel=4 note=57 velocity=64 time=0
EXTRACT: note_off channel=5 note=50 velocity=64 time=0
EXTRACT: note_off channel=5 note=57 velocity=64 time=0
EXTRACT: note_on channel=1 note=70 velocity=100 time=0.021739124999999998
EXTRACT: note_on channel=1 note=65 velocity=100 time=0
EXTRACT: note_on channel=2 note=34 velocity=100 time=0
EXTRACT: note_on channel=9 note=45 velocity=98 time=0
EXTRACT: note_on channel=9 note=46 velocity=39 time=0
EXTRACT: note_on channel=4 note=58 velocity=100 time=0
EXTRACT: note_on channel=4 note=53 velocity=100 time=0
EXTRACT: note_on channel=5 note=58 velocity=100 time=0
EXTRACT: note_on channel=5 note=53 velocity=100 time=0
EXTRACT: note_off channel=9 note=45 velocity=64 time=0.10869562499999999
EXTRACT: note_off channel=9 note=46 velocity=64 time=0
EXTRACT: note_on channel=9 note=46 velocity=39 time=0.021739124999999998
EXTRACT: note_off channel=2 note=34 velocity=64 time=0.10869562499999999
EXTRACT: note_off channel=9 note=46 velocity=64 time=0
EXTRACT: note_on channel=2 note=34 velocity=100 time=0.021739124999999998
EXTRACT: note_on channel=9 note=46 velocity=39 time=0
EXTRACT: note_off channel=9 note=46 velocity=64 time=0.10869562499999999
EXTRACT: note_on channel=9 note=46 velocity=39 time=0.021739124999999998
EXTRACT: note_off channel=2 note=34 velocity=64 time=0.10869562499999999
EXTRACT: note_off channel=9 note=46 velocity=64 time=0
EXTRACT: note_off channel=6 note=74 velocity=64 time=0
EXTRACT: note_on channel=2 note=34 velocity=100 time=0.021739124999999998
EXTRACT: note_on channel=9 note=45 velocity=95 time=0
EXTRACT: note_on channel=9 note=46 velocity=39 time=0
EXTRACT: note_off channel=9 note=45 velocity=64 time=0.10869562499999999
EXTRACT: note_off channel=9 note=46 velocity=64 time=0
EXTRACT: note_on channel=9 note=46 velocity=40 time=0.021739124999999998
EXTRACT: note_off channel=2 note=34 velocity=64 time=0.10869562499999999
EXTRACT: note_off channel=9 note=46 velocity=64 time=0
EXTRACT: note_on channel=2 note=34 velocity=100 time=0.021739124999999998
EXTRACT: note_on channel=9 note=46 velocity=39 time=0
EXTRACT: note_off channel=9 note=46 velocity=64 time=0.10869562499999999
EXTRACT: note_on channel=9 note=46 velocity=39 time=0.021739124999999998
EXTRACT: note_off channel=1 note=70 velocity=64 time=0.10869562499999999
EXTRACT: note_off channel=1 note=65 velocity=64 time=0
EXTRACT: note_off channel=2 note=34 velocity=64 time=0
EXTRACT: note_off channel=9 note=46 velocity=64 time=0
EXTRACT: note_off channel=4 note=58 velocity=64 time=0
EXTRACT: note_off channel=4 note=53 velocity=64 time=0
EXTRACT: note_off channel=5 note=58 velocity=64 time=0
EXTRACT: note_off channel=5 note=53 velocity=64 time=0
EXTRACT: note_on channel=1 note=69 velocity=100 time=0.021739124999999998
EXTRACT: note_on channel=1 note=65 velocity=100 time=0
EXTRACT: note_on channel=2 note=41 velocity=100 time=0
EXTRACT: note_on channel=9 note=45 velocity=98 time=0
EXTRACT: note_on channel=9 note=46 velocity=39 time=0
EXTRACT: note_on channel=4 note=57 velocity=100 time=0
EXTRACT: note_on channel=4 note=53 velocity=100 time=0
EXTRACT: note_on channel=5 note=57 velocity=100 time=0
EXTRACT: note_on channel=5 note=53 velocity=100 time=0
EXTRACT: note_off channel=9 note=45 velocity=64 time=0.10869562499999999
EXTRACT: note_off channel=9 note=46 velocity=64 time=0
EXTRACT: note_on channel=9 note=46 velocity=39 time=0.021739124999999998
EXTRACT: note_off channel=2 note=41 velocity=64 time=0.10869562499999999
EXTRACT: note_off channel=9 note=46 velocity=64 time=0
EXTRACT: note_on channel=2 note=41 velocity=100 time=0.021739124999999998
EXTRACT: note_on channel=9 note=46 velocity=39 time=0
EXTRACT: note_on channel=6 note=74 velocity=100 time=0
EXTRACT: note_off channel=9 note=46 velocity=64 time=0.10869562499999999
EXTRACT: note_on channel=9 note=46 velocity=39 time=0.021739124999999998
EXTRACT: note_off channel=2 note=41 velocity=64 time=0.10869562499999999
EXTRACT: note_off channel=9 note=46 velocity=64 time=0
EXTRACT: note_off channel=6 note=74 velocity=64 time=0
EXTRACT: note_on channel=2 note=41 velocity=100 time=0.021739124999999998
EXTRACT: note_on channel=9 note=45 velocity=95 time=0
EXTRACT: note_on channel=9 note=46 velocity=39 time=0
EXTRACT: note_on channel=6 note=74 velocity=100 time=0
EXTRACT: note_off channel=9 note=45 velocity=64 time=0.10869562499999999
EXTRACT: note_off channel=9 note=46 velocity=64 time=0
EXTRACT: note_on channel=9 note=46 velocity=39 time=0.021739124999999998
EXTRACT: note_off channel=1 note=65 velocity=64 time=0.10869562499999999
EXTRACT: note_off channel=1 note=69 velocity=64 time=0
EXTRACT: note_off channel=2 note=41 velocity=64 time=0
EXTRACT: note_off channel=9 note=46 velocity=64 time=0
EXTRACT: note_off channel=4 note=57 velocity=64 time=0
EXTRACT: note_off channel=4 note=53 velocity=64 time=0
EXTRACT: note_off channel=5 note=57 velocity=64 time=0
EXTRACT: note_off channel=5 note=53 velocity=64 time=0
EXTRACT: note_off channel=6 note=74 velocity=64 time=0
EXTRACT: note_on channel=1 note=67 velocity=100 time=0.021739124999999998
EXTRACT: note_on channel=1 note=62 velocity=100 time=0
EXTRACT: note_on channel=2 note=43 velocity=100 time=0
EXTRACT: note_on channel=9 note=46 velocity=39 time=0
EXTRACT: note_on channel=4 note=55 velocity=100 time=0
EXTRACT: note_on channel=4 note=50 velocity=100 time=0
EXTRACT: note_on channel=5 note=55 velocity=100 time=0
EXTRACT: note_on channel=5 note=50 velocity=100 time=0
EXTRACT: note_on channel=6 note=84 velocity=100 time=0
EXTRACT: note_off channel=9 note=46 velocity=64 time=0.10869562499999999
EXTRACT: note_on channel=9 note=46 velocity=39 time=0.021739124999999998
EXTRACT: note_off channel=2 note=43 velocity=64 time=0.10869562499999999
EXTRACT: note_off channel=9 note=46 velocity=64 time=0
EXTRACT: note_on channel=2 note=43 velocity=100 time=0.021739124999999998
EXTRACT: note_on channel=9 note=45 velocity=98 time=0
EXTRACT: note_on channel=9 note=46 velocity=39 time=0
EXTRACT: note_off channel=9 note=45 velocity=64 time=0.10869562499999999
EXTRACT: note_off channel=9 note=46 velocity=64 time=0
EXTRACT: note_on channel=9 note=46 velocity=34 time=0.021739124999999998
EXTRACT: note_off channel=2 note=43 velocity=64 time=0.10869562499999999
EXTRACT: note_off channel=9 note=46 velocity=64 time=0
EXTRACT: note_off channel=6 note=84 velocity=64 time=0
EXTRACT: note_on channel=2 note=41 velocity=100 time=0.021739124999999998
EXTRACT: note_on channel=9 note=46 velocity=39 time=0
EXTRACT: note_on channel=6 note=82 velocity=100 time=0
EXTRACT: note_off channel=9 note=46 velocity=64 time=0.10869562499999999
EXTRACT: note_on channel=9 note=46 velocity=39 time=0.021739124999999998
EXTRACT: note_off channel=2 note=41 velocity=64 time=0.10869562499999999
EXTRACT: note_off channel=9 note=46 velocity=64 time=0
EXTRACT: note_off channel=6 note=82 velocity=64 time=0
EXTRACT: note_on channel=2 note=43 velocity=100 time=0.021739124999999998
EXTRACT: note_on channel=9 note=45 velocity=95 time=0
EXTRACT: note_on channel=9 note=46 velocity=39 time=0
EXTRACT: note_on channel=6 note=81 velocity=100 time=0
EXTRACT: note_off channel=9 note=45 velocity=64 time=0.10869562499999999
EXTRACT: note_off channel=9 note=46 velocity=64 time=0
EXTRACT: note_on channel=9 note=46 velocity=39 time=0.021739124999999998
EXTRACT: note_off channel=2 note=43 velocity=64 time=0.10869562499999999
EXTRACT: note_off channel=9 note=46 velocity=64 time=0
EXTRACT: note_off channel=5 note=55 velocity=64 time=0
EXTRACT: note_off channel=5 note=50 velocity=64 time=0
EXTRACT: note_off channel=6 note=81 velocity=64 time=0
EXTRACT: note_on channel=2 note=41 velocity=100 time=0.021739124999999998
EXTRACT: note_on channel=9 note=46 velocity=39 time=0
EXTRACT: note_on channel=6 note=79 velocity=100 time=0
EXTRACT: note_off channel=9 note=46 velocity=64 time=0.10869562499999999
EXTRACT: note_on channel=9 note=46 velocity=39 time=0.021739124999999998
EXTRACT: note_off channel=1 note=67 velocity=64 time=0.10869562499999999
EXTRACT: note_off channel=1 note=62 velocity=64 time=0
EXTRACT: note_off channel=2 note=41 velocity=64 time=0
EXTRACT: note_off channel=9 note=46 velocity=64 time=0
EXTRACT: note_off channel=4 note=50 velocity=64 time=0
EXTRACT: note_off channel=4 note=55 velocity=64 time=0
EXTRACT: note_off channel=6 note=79 velocity=64 time=0
EXTRACT: note_on channel=1 note=62 velocity=100 time=0.021739124999999998
EXTRACT: note_on channel=1 note=69 velocity=100 time=0
EXTRACT: note_on channel=2 note=38 velocity=100 time=0
EXTRACT: note_on channel=9 note=45 velocity=98 time=0
EXTRACT: note_on channel=9 note=46 velocity=39 time=0
EXTRACT: note_on channel=4 note=50 velocity=100 time=0
EXTRACT: note_on channel=4 note=57 velocity=100 time=0
EXTRACT: note_on channel=5 note=50 velocity=100 time=0
EXTRACT: note_on channel=5 note=57 velocity=100 time=0
EXTRACT: note_on channel=6 note=81 velocity=100 time=0
EXTRACT: note_off channel=9 note=45 velocity=64 time=0.10869562499999999
EXTRACT: note_off channel=9 note=46 velocity=64 time=0
EXTRACT: note_on channel=9 note=46 velocity=39 time=0.021739124999999998
EXTRACT: note_off channel=2 note=38 velocity=64 time=0.10869562499999999
EXTRACT: note_off channel=9 note=46 velocity=64 time=0
EXTRACT: note_on channel=2 note=38 velocity=100 time=0.021739124999999998
EXTRACT: note_on channel=9 note=46 velocity=39 time=0
EXTRACT: note_off channel=9 note=46 velocity=64 time=0.10869562499999999
EXTRACT: note_on channel=9 note=46 velocity=39 time=0.021739124999999998
EXTRACT: note_off channel=2 note=38 velocity=64 time=0.10869562499999999
EXTRACT: note_off channel=9 note=46 velocity=64 time=0
EXTRACT: note_off channel=6 note=81 velocity=64 time=0
EXTRACT: note_on channel=2 note=38 velocity=100 time=0.021739124999999998
EXTRACT: note_on channel=9 note=45 velocity=95 time=0
EXTRACT: note_on channel=9 note=46 velocity=39 time=0
EXTRACT: note_on channel=6 note=77 velocity=100 time=0
EXTRACT: note_off channel=9 note=45 velocity=64 time=0.10869562499999999
EXTRACT: note_off channel=9 note=46 velocity=64 time=0
EXTRACT: note_on channel=9 note=46 velocity=40 time=0.021739124999999998
EXTRACT: note_off channel=2 note=38 velocity=64 time=0.10869562499999999
EXTRACT: note_off channel=9 note=46 velocity=64 time=0
EXTRACT: note_off channel=6 note=77 velocity=64 time=0
EXTRACT: note_on channel=2 note=38 velocity=100 time=0.021739124999999998
EXTRACT: note_on channel=9 note=46 velocity=40 time=0
EXTRACT: note_on channel=6 note=74 velocity=100 time=0
EXTRACT: note_off channel=9 note=46 velocity=64 time=0.10869562499999999
EXTRACT: note_on channel=9 note=46 velocity=40 time=0.021739124999999998
EXTRACT: note_off channel=1 note=62 velocity=64 time=0.10869562499999999
EXTRACT: note_off channel=1 note=69 velocity=64 time=0
EXTRACT: note_off channel=2 note=38 velocity=64 time=0
EXTRACT: note_off channel=9 note=46 velocity=64 time=0
EXTRACT: note_off channel=4 note=50 velocity=64 time=0
EXTRACT: note_off channel=4 note=57 velocity=64 time=0
EXTRACT: note_off channel=5 note=50 velocity=64 time=0
EXTRACT: note_off channel=5 note=57 velocity=64 time=0
EXTRACT: note_on channel=1 note=70 velocity=100 time=0.021739124999999998
EXTRACT: note_on channel=1 note=65 velocity=100 time=0
EXTRACT: note_on channel=2 note=34 velocity=100 time=0
EXTRACT: note_on channel=9 note=45 velocity=98 time=0
EXTRACT: note_on channel=9 note=46 velocity=40 time=0
EXTRACT: note_on channel=4 note=58 velocity=100 time=0
EXTRACT: note_on channel=4 note=53 velocity=100 time=0
EXTRACT: note_on channel=5 note=58 velocity=100 time=0
EXTRACT: note_on channel=5 note=53 velocity=100 time=0
EXTRACT: note_off channel=9 note=45 velocity=64 time=0.10869562499999999
EXTRACT: note_off channel=9 note=46 velocity=64 time=0
EXTRACT: note_on channel=9 note=46 velocity=40 time=0.021739124999999998
EXTRACT: note_off channel=2 note=34 velocity=64 time=0.10869562499999999
EXTRACT: note_off channel=9 note=46 velocity=64 time=0
EXTRACT: note_on channel=2 note=34 velocity=100 time=0.021739124999999998
EXTRACT: note_on channel=9 note=46 velocity=38 time=0
EXTRACT: note_off channel=9 note=46 velocity=64 time=0.10869562499999999
EXTRACT: note_on channel=9 note=46 velocity=40 time=0.021739124999999998
EXTRACT: note_off channel=2 note=34 velocity=64 time=0.10869562499999999
EXTRACT: note_off channel=9 note=46 velocity=64 time=0
EXTRACT: note_off channel=6 note=74 velocity=64 time=0
EXTRACT: note_on channel=2 note=34 velocity=100 time=0.021739124999999998
EXTRACT: note_on channel=9 note=45 velocity=95 time=0
EXTRACT: note_on channel=9 note=46 velocity=40 time=0
EXTRACT: note_off channel=9 note=45 velocity=64 time=0.10869562499999999
EXTRACT: note_off channel=9 note=46 velocity=64 time=0
EXTRACT: note_on channel=9 note=46 velocity=40 time=0.021739124999999998
EXTRACT: note_off channel=2 note=34 velocity=64 time=0.10869562499999999
EXTRACT: note_off channel=9 note=46 velocity=64 time=0
EXTRACT: note_on channel=2 note=34 velocity=100 time=0.021739124999999998
EXTRACT: note_on channel=9 note=46 velocity=40 time=0
EXTRACT: note_off channel=9 note=46 velocity=64 time=0.10869562499999999
EXTRACT: note_on channel=9 note=46 velocity=36 time=0.021739124999999998
EXTRACT: note_off channel=1 note=70 velocity=64 time=0.10869562499999999
EXTRACT: note_off channel=1 note=65 velocity=64 time=0
EXTRACT: note_off channel=2 note=34 velocity=64 time=0
EXTRACT: note_off channel=9 note=46 velocity=64 time=0
EXTRACT: note_off channel=4 note=58 velocity=64 time=0
EXTRACT: note_off channel=4 note=53 velocity=64 time=0
EXTRACT: note_off channel=5 note=58 velocity=64 time=0
EXTRACT: note_off channel=5 note=53 velocity=64 time=0
EXTRACT: note_on channel=1 note=69 velocity=100 time=0.021739124999999998
EXTRACT: note_on channel=1 note=65 velocity=100 time=0
EXTRACT: note_on channel=2 note=41 velocity=100 time=0
EXTRACT: note_on channel=9 note=45 velocity=98 time=0
EXTRACT: note_on channel=9 note=46 velocity=40 time=0
EXTRACT: note_on channel=4 note=57 velocity=100 time=0
EXTRACT: note_on channel=4 note=53 velocity=100 time=0
EXTRACT: note_on channel=5 note=57 velocity=100 time=0
EXTRACT: note_on channel=5 note=53 velocity=100 time=0
EXTRACT: note_off channel=9 note=45 velocity=64 time=0.10869562499999999
EXTRACT: note_off channel=9 note=46 velocity=64 time=0
EXTRACT: note_on channel=9 note=46 velocity=40 time=0.021739124999999998
EXTRACT: note_off channel=2 note=41 velocity=64 time=0.10869562499999999
EXTRACT: note_off channel=9 note=46 velocity=64 time=0
EXTRACT: note_on channel=2 note=41 velocity=100 time=0.021739124999999998
EXTRACT: note_on channel=9 note=46 velocity=40 time=0
EXTRACT: note_on channel=6 note=74 velocity=100 time=0
EXTRACT: note_off channel=9 note=46 velocity=64 time=0.10869562499999999
EXTRACT: note_on channel=9 note=46 velocity=40 time=0.021739124999999998
EXTRACT: note_off channel=2 note=41 velocity=64 time=0.10869562499999999
EXTRACT: note_off channel=9 note=46 velocity=64 time=0
EXTRACT: note_off channel=6 note=74 velocity=64 time=0
EXTRACT: note_on channel=2 note=41 velocity=100 time=0.021739124999999998
EXTRACT: note_on channel=9 note=45 velocity=95 time=0
EXTRACT: note_on channel=9 note=46 velocity=40 time=0
EXTRACT: note_on channel=6 note=74 velocity=100 time=0
EXTRACT: note_off channel=9 note=45 velocity=64 time=0.10869562499999999
EXTRACT: note_off channel=9 note=46 velocity=64 time=0
EXTRACT: note_on channel=9 note=46 velocity=40 time=0.021739124999999998
EXTRACT: note_off channel=1 note=65 velocity=64 time=0.10869562499999999
EXTRACT: note_off channel=1 note=69 velocity=64 time=0
EXTRACT: note_off channel=2 note=41 velocity=64 time=0
EXTRACT: note_off channel=9 note=46 velocity=64 time=0
EXTRACT: note_off channel=4 note=57 velocity=64 time=0
EXTRACT: note_off channel=4 note=53 velocity=64 time=0
EXTRACT: note_off channel=5 note=57 velocity=64 time=0
EXTRACT: note_off channel=5 note=53 velocity=64 time=0
EXTRACT: note_off channel=6 note=74 velocity=64 time=0
EXTRACT: note_on channel=1 note=67 velocity=100 time=0.021739124999999998
EXTRACT: note_on channel=1 note=62 velocity=100 time=0
EXTRACT: note_on channel=2 note=43 velocity=100 time=0
EXTRACT: note_on channel=9 note=46 velocity=40 time=0
EXTRACT: note_on channel=4 note=55 velocity=100 time=0
EXTRACT: note_on channel=4 note=50 velocity=100 time=0
EXTRACT: note_on channel=5 note=55 velocity=100 time=0
EXTRACT: note_on channel=5 note=50 velocity=100 time=0
EXTRACT: note_on channel=6 note=84 velocity=100 time=0
EXTRACT: note_off channel=9 note=46 velocity=64 time=0.10869562499999999
EXTRACT: note_on channel=9 note=46 velocity=40 time=0.021739124999999998
EXTRACT: note_off channel=2 note=43 velocity=64 time=0.10869562499999999
EXTRACT: note_off channel=9 note=46 velocity=64 time=0
EXTRACT: note_on channel=2 note=43 velocity=100 time=0.021739124999999998
EXTRACT: note_on channel=9 note=45 velocity=98 time=0
EXTRACT: note_on channel=9 note=46 velocity=40 time=0
EXTRACT: note_off channel=9 note=45 velocity=64 time=0.10869562499999999
EXTRACT: note_off channel=9 note=46 velocity=64 time=0
EXTRACT: note_on channel=9 note=46 velocity=40 time=0.021739124999999998
EXTRACT: note_off channel=2 note=43 velocity=64 time=0.10869562499999999
EXTRACT: note_off channel=9 note=46 velocity=64 time=0
EXTRACT: note_off channel=6 note=84 velocity=64 time=0
EXTRACT: note_on channel=2 note=41 velocity=100 time=0.021739124999999998
EXTRACT: note_on channel=9 note=46 velocity=40 time=0
EXTRACT: note_on channel=6 note=82 velocity=100 time=0
EXTRACT: note_off channel=9 note=46 velocity=64 time=0.10869562499999999
EXTRACT: note_on channel=9 note=46 velocity=40 time=0.021739124999999998
EXTRACT: note_off channel=2 note=41 velocity=64 time=0.10869562499999999
EXTRACT: note_off channel=9 note=46 velocity=64 time=0
EXTRACT: note_off channel=6 note=82 velocity=64 time=0
EXTRACT: note_on channel=2 note=43 velocity=100 time=0.021739124999999998
EXTRACT: note_on channel=9 note=45 velocity=95 time=0
EXTRACT: note_on channel=9 note=46 velocity=36 time=0
EXTRACT: note_on channel=6 note=81 velocity=100 time=0
EXTRACT: note_off channel=9 note=45 velocity=64 time=0.10869562499999999
EXTRACT: note_off channel=9 note=46 velocity=64 time=0
EXTRACT: note_on channel=9 note=46 velocity=40 time=0.021739124999999998
EXTRACT: note_off channel=2 note=43 velocity=64 time=0.10869562499999999
EXTRACT: note_off channel=9 note=46 velocity=64 time=0
EXTRACT: note_off channel=5 note=55 velocity=64 time=0
EXTRACT: note_off channel=5 note=50 velocity=64 time=0
EXTRACT: note_off channel=6 note=81 velocity=64 time=0
EXTRACT: note_on channel=2 note=41 velocity=100 time=0.021739124999999998
EXTRACT: note_on channel=9 note=46 velocity=40 time=0
EXTRACT: note_on channel=6 note=79 velocity=100 time=0
EXTRACT: note_off channel=9 note=46 velocity=64 time=0.10869562499999999
EXTRACT: note_on channel=9 note=46 velocity=40 time=0.021739124999999998
EXTRACT: note_off channel=1 note=67 velocity=64 time=0.10869562499999999
EXTRACT: note_off channel=1 note=62 velocity=64 time=0
EXTRACT: note_off channel=2 note=41 velocity=64 time=0
EXTRACT: note_off channel=9 note=46 velocity=64 time=0
EXTRACT: note_off channel=4 note=50 velocity=64 time=0
EXTRACT: note_off channel=4 note=55 velocity=64 time=0
EXTRACT: note_off channel=6 note=79 velocity=64 time=0
EXTRACT: note_on channel=1 note=62 velocity=100 time=0.021739124999999998
EXTRACT: note_on channel=1 note=69 velocity=100 time=0
EXTRACT: note_on channel=2 note=38 velocity=100 time=0
EXTRACT: note_on channel=9 note=45 velocity=98 time=0
EXTRACT: note_on channel=9 note=46 velocity=40 time=0
EXTRACT: note_on channel=4 note=50 velocity=100 time=0
EXTRACT: note_on channel=4 note=57 velocity=100 time=0
EXTRACT: note_on channel=5 note=50 velocity=100 time=0
EXTRACT: note_on channel=5 note=57 velocity=100 time=0
EXTRACT: note_on channel=6 note=81 velocity=100 time=0
EXTRACT: note_off channel=9 note=45 velocity=64 time=0.10869562499999999
EXTRACT: note_off channel=9 note=46 velocity=64 time=0
EXTRACT: note_on channel=9 note=46 velocity=40 time=0.021739124999999998
EXTRACT: note_off channel=2 note=38 velocity=64 time=0.10869562499999999
EXTRACT: note_off channel=9 note=46 velocity=64 time=0
EXTRACT: note_on channel=2 note=38 velocity=100 time=0.021739124999999998
EXTRACT: note_on channel=9 note=46 velocity=40 time=0
EXTRACT: note_off channel=9 note=46 velocity=64 time=0.10869562499999999
EXTRACT: note_on channel=9 note=46 velocity=40 time=0.021739124999999998
EXTRACT: note_off channel=2 note=38 velocity=64 time=0.10869562499999999
EXTRACT: note_off channel=9 note=46 velocity=64 time=0
EXTRACT: note_off channel=6 note=81 velocity=64 time=0
EXTRACT: note_on channel=2 note=38 velocity=100 time=0.021739124999999998
EXTRACT: note_on channel=9 note=45 velocity=95 time=0
EXTRACT: note_on channel=9 note=46 velocity=40 time=0
EXTRACT: note_on channel=6 note=77 velocity=100 time=0
EXTRACT: note_off channel=9 note=45 velocity=64 time=0.10869562499999999
EXTRACT: note_off channel=9 note=46 velocity=64 time=0
EXTRACT: note_on channel=9 note=46 velocity=36 time=0.021739124999999998
EXTRACT: note_off channel=2 note=38 velocity=64 time=0.10869562499999999
EXTRACT: note_off channel=9 note=46 velocity=64 time=0
EXTRACT: note_off channel=6 note=77 velocity=64 time=0
EXTRACT: note_on channel=2 note=38 velocity=100 time=0.021739124999999998
EXTRACT: note_on channel=9 note=46 velocity=40 time=0
EXTRACT: note_on channel=6 note=74 velocity=100 time=0
EXTRACT: note_off channel=9 note=46 velocity=64 time=0.10869562499999999
EXTRACT: note_on channel=9 note=46 velocity=40 time=0.021739124999999998
EXTRACT: note_off channel=1 note=62 velocity=64 time=0.10869562499999999
EXTRACT: note_off channel=1 note=69 velocity=64 time=0
EXTRACT: note_off channel=2 note=38 velocity=64 time=0
EXTRACT: note_off channel=9 note=46 velocity=64 time=0
EXTRACT: note_off channel=4 note=50 velocity=64 time=0
EXTRACT: note_off channel=4 note=57 velocity=64 time=0
EXTRACT: note_off channel=5 note=50 velocity=64 time=0
EXTRACT: note_off channel=5 note=57 velocity=64 time=0
EXTRACT: note_on channel=1 note=70 velocity=100 time=0.021739124999999998
EXTRACT: note_on channel=1 note=65 velocity=100 time=0
EXTRACT: note_on channel=2 note=34 velocity=100 time=0
EXTRACT: note_on channel=9 note=45 velocity=98 time=0
EXTRACT: note_on channel=9 note=46 velocity=40 time=0
EXTRACT: note_on channel=4 note=58 velocity=100 time=0
EXTRACT: note_on channel=4 note=53 velocity=100 time=0
EXTRACT: note_on channel=5 note=58 velocity=100 time=0
EXTRACT: note_on channel=5 note=53 velocity=100 time=0
EXTRACT: note_off channel=9 note=45 velocity=64 time=0.10869562499999999
EXTRACT: note_off channel=9 note=46 velocity=64 time=0
EXTRACT: note_on channel=9 note=46 velocity=36 time=0.021739124999999998
EXTRACT: note_off channel=2 note=34 velocity=64 time=0.10869562499999999
EXTRACT: note_off channel=9 note=46 velocity=64 time=0
EXTRACT: note_on channel=2 note=34 velocity=100 time=0.021739124999999998
EXTRACT: note_on channel=9 note=46 velocity=40 time=0
EXTRACT: note_off channel=9 note=46 velocity=64 time=0.10869562499999999
EXTRACT: note_on channel=9 note=46 velocity=40 time=0.021739124999999998
EXTRACT: note_off channel=2 note=34 velocity=64 time=0.10869562499999999
EXTRACT: note_off channel=9 note=46 velocity=64 time=0
EXTRACT: note_off channel=6 note=74 velocity=64 time=0
EXTRACT: note_on channel=2 note=34 velocity=100 time=0.021739124999999998
EXTRACT: note_on channel=9 note=45 velocity=95 time=0
EXTRACT: note_on channel=9 note=46 velocity=40 time=0
EXTRACT: note_off channel=9 note=45 velocity=64 time=0.10869562499999999
EXTRACT: note_off channel=9 note=46 velocity=64 time=0
EXTRACT: note_on channel=9 note=46 velocity=40 time=0.021739124999999998
EXTRACT: note_off channel=2 note=34 velocity=64 time=0.10869562499999999
EXTRACT: note_off channel=9 note=46 velocity=64 time=0
EXTRACT: note_on channel=2 note=34 velocity=100 time=0.021739124999999998
EXTRACT: note_on channel=9 note=46 velocity=40 time=0
EXTRACT: note_off channel=9 note=46 velocity=64 time=0.10869562499999999
EXTRACT: note_on channel=9 note=46 velocity=40 time=0.021739124999999998
EXTRACT: note_off channel=1 note=70 velocity=64 time=0.10869562499999999
EXTRACT: note_off channel=1 note=65 velocity=64 time=0
EXTRACT: note_off channel=2 note=34 velocity=64 time=0
EXTRACT: note_off channel=9 note=46 velocity=64 time=0
EXTRACT: note_off channel=4 note=58 velocity=64 time=0
EXTRACT: note_off channel=4 note=53 velocity=64 time=0
EXTRACT: note_off channel=5 note=58 velocity=64 time=0
EXTRACT: note_off channel=5 note=53 velocity=64 time=0
EXTRACT: note_on channel=1 note=69 velocity=100 time=0.021739124999999998
EXTRACT: note_on channel=1 note=65 velocity=100 time=0
EXTRACT: note_on channel=2 note=41 velocity=100 time=0
EXTRACT: note_on channel=9 note=45 velocity=98 time=0
EXTRACT: note_on channel=9 note=46 velocity=40 time=0
EXTRACT: note_on channel=4 note=57 velocity=100 time=0
EXTRACT: note_on channel=4 note=53 velocity=100 time=0
EXTRACT: note_on channel=5 note=57 velocity=100 time=0
EXTRACT: note_on channel=5 note=53 velocity=100 time=0
EXTRACT: note_off channel=9 note=45 velocity=64 time=0.10869562499999999
EXTRACT: note_off channel=9 note=46 velocity=64 time=0
EXTRACT: note_on channel=9 note=46 velocity=40 time=0.021739124999999998
EXTRACT: note_off channel=2 note=41 velocity=64 time=0.10869562499999999
EXTRACT: note_off channel=9 note=46 velocity=64 time=0
EXTRACT: note_on channel=2 note=41 velocity=100 time=0.021739124999999998
EXTRACT: note_on channel=9 note=46 velocity=40 time=0
EXTRACT: note_off channel=9 note=46 velocity=64 time=0.10869562499999999
EXTRACT: note_on channel=9 note=46 velocity=40 time=0.021739124999999998
EXTRACT: note_off channel=2 note=41 velocity=64 time=0.10869562499999999
EXTRACT: note_off channel=9 note=46 velocity=64 time=0
EXTRACT: note_on channel=2 note=41 velocity=100 time=0.021739124999999998
EXTRACT: note_on channel=9 note=45 velocity=95 time=0
EXTRACT: note_on channel=9 note=46 velocity=40 time=0
EXTRACT: note_off channel=9 note=45 velocity=64 time=0.10869562499999999
EXTRACT: note_off channel=9 note=46 velocity=64 time=0
EXTRACT: note_on channel=9 note=46 velocity=40 time=0.021739124999999998
EXTRACT: note_off channel=1 note=65 velocity=64 time=0.10869562499999999
EXTRACT: note_off channel=1 note=69 velocity=64 time=0
EXTRACT: note_off channel=2 note=41 velocity=64 time=0
EXTRACT: note_off channel=9 note=46 velocity=64 time=0
EXTRACT: note_off channel=4 note=57 velocity=64 time=0
EXTRACT: note_off channel=4 note=53 velocity=64 time=0
EXTRACT: note_off channel=5 note=57 velocity=64 time=0
EXTRACT: note_off channel=5 note=53 velocity=64 time=0
EXTRACT: note_on channel=1 note=67 velocity=100 time=0.021739124999999998
EXTRACT: note_on channel=1 note=62 velocity=100 time=0
EXTRACT: note_on channel=2 note=43 velocity=100 time=0
EXTRACT: note_on channel=9 note=46 velocity=40 time=0
EXTRACT: note_on channel=4 note=55 velocity=100 time=0
EXTRACT: note_on channel=4 note=50 velocity=100 time=0
EXTRACT: note_on channel=5 note=55 velocity=100 time=0
EXTRACT: note_on channel=5 note=50 velocity=100 time=0
EXTRACT: note_off channel=9 note=46 velocity=64 time=0.10869562499999999
EXTRACT: note_on channel=9 note=46 velocity=40 time=0.021739124999999998
EXTRACT: note_off channel=2 note=43 velocity=64 time=0.10869562499999999
EXTRACT: note_off channel=9 note=46 velocity=64 time=0
EXTRACT: note_on channel=2 note=43 velocity=100 time=0.021739124999999998
EXTRACT: note_on channel=9 note=45 velocity=98 time=0
EXTRACT: note_on channel=9 note=46 velocity=40 time=0
EXTRACT: note_off channel=9 note=45 velocity=64 time=0.10869562499999999
EXTRACT: note_off channel=9 note=46 velocity=64 time=0
EXTRACT: note_on channel=9 note=46 velocity=40 time=0.021739124999999998
EXTRACT: note_off channel=2 note=43 velocity=64 time=0.10869562499999999
EXTRACT: note_off channel=9 note=46 velocity=64 time=0
EXTRACT: note_on channel=2 note=41 velocity=100 time=0.021739124999999998
EXTRACT: note_on channel=9 note=46 velocity=41 time=0
EXTRACT: note_off channel=9 note=46 velocity=64 time=0.10869562499999999
EXTRACT: note_on channel=9 note=46 velocity=41 time=0.021739124999999998
EXTRACT: note_off channel=2 note=41 velocity=64 time=0.10869562499999999
EXTRACT: note_off channel=9 note=46 velocity=64 time=0
EXTRACT: note_on channel=2 note=43 velocity=100 time=0.021739124999999998
EXTRACT: note_on channel=9 note=45 velocity=95 time=0
EXTRACT: note_on channel=9 note=46 velocity=41 time=0
EXTRACT: note_on channel=6 note=77 velocity=100 time=0
EXTRACT: note_off channel=9 note=45 velocity=64 time=0.10869562499999999
EXTRACT: note_off channel=9 note=46 velocity=64 time=0
EXTRACT: note_on channel=9 note=46 velocity=41 time=0.021739124999999998
EXTRACT: note_off channel=2 note=43 velocity=64 time=0.10869562499999999
EXTRACT: note_off channel=9 note=46 velocity=64 time=0
EXTRACT: note_off channel=5 note=55 velocity=64 time=0
EXTRACT: note_off channel=5 note=50 velocity=64 time=0
EXTRACT: note_off channel=6 note=77 velocity=64 time=0
EXTRACT: note_on channel=2 note=41 velocity=100 time=0.021739124999999998
EXTRACT: note_on channel=9 note=46 velocity=41 time=0
EXTRACT: note_on channel=6 note=79 velocity=100 time=0
EXTRACT: note_off channel=9 note=46 velocity=64 time=0.10869562499999999
EXTRACT: note_on channel=9 note=46 velocity=41 time=0.021739124999999998
EXTRACT: note_off channel=1 note=67 velocity=64 time=0.10869562499999999
EXTRACT: note_off channel=1 note=62 velocity=64 time=0
EXTRACT: note_off channel=2 note=41 velocity=64 time=0
EXTRACT: note_off channel=9 note=46 velocity=64 time=0
EXTRACT: note_off channel=4 note=55 velocity=64 time=0
EXTRACT: note_off channel=4 note=50 velocity=64 time=0
EXTRACT: note_off channel=6 note=79 velocity=64 time=0
EXTRACT: note_on channel=1 note=57 velocity=100 time=0.021739124999999998
EXTRACT: note_on channel=1 note=62 velocity=100 time=0
EXTRACT: note_on channel=2 note=38 velocity=100 time=0
EXTRACT: note_on channel=9 note=45 velocity=98 time=0
EXTRACT: note_on channel=9 note=46 velocity=41 time=0
EXTRACT: note_on channel=4 note=57 velocity=100 time=0
EXTRACT: note_on channel=4 note=62 velocity=100 time=0
EXTRACT: note_on channel=5 note=57 velocity=100 time=0
EXTRACT: note_on channel=5 note=62 velocity=100 time=0
EXTRACT: note_on channel=6 note=81 velocity=100 time=0
EXTRACT: note_off channel=9 note=45 velocity=64 time=0.10869562499999999
EXTRACT: note_off channel=9 note=46 velocity=64 time=0
EXTRACT: note_on channel=9 note=46 velocity=41 time=0.021739124999999998
EXTRACT: note_off channel=2 note=38 velocity=64 time=0.10869562499999999
EXTRACT: note_off channel=9 note=46 velocity=64 time=0
EXTRACT: note_on channel=2 note=38 velocity=100 time=0.021739124999999998
EXTRACT: note_on channel=9 note=46 velocity=41 time=0
EXTRACT: note_off channel=9 note=46 velocity=64 time=0.10869562499999999
EXTRACT: note_on channel=9 note=46 velocity=41 time=0.021739124999999998
EXTRACT: note_off channel=2 note=38 velocity=64 time=0.10869562499999999
EXTRACT: note_off channel=9 note=46 velocity=64 time=0
EXTRACT: note_off channel=6 note=81 velocity=64 time=0
EXTRACT: note_on channel=2 note=38 velocity=100 time=0.021739124999999998
EXTRACT: note_on channel=9 note=45 velocity=95 time=0
EXTRACT: note_on channel=9 note=46 velocity=41 time=0
EXTRACT: note_on channel=6 note=81 velocity=100 time=0
EXTRACT: note_off channel=9 note=45 velocity=64 time=0.10869562499999999
EXTRACT: note_off channel=9 note=46 velocity=64 time=0
EXTRACT: note_on channel=9 note=46 velocity=41 time=0.021739124999999998
EXTRACT: note_off channel=2 note=38 velocity=64 time=0.10869562499999999
EXTRACT: note_off channel=9 note=46 velocity=64 time=0
EXTRACT: note_on channel=2 note=38 velocity=100 time=0.021739124999999998
EXTRACT: note_on channel=9 note=46 velocity=41 time=0
EXTRACT: note_off channel=9 note=46 velocity=64 time=0.10869562499999999
EXTRACT: note_on channel=9 note=46 velocity=36 time=0.021739124999999998
EXTRACT: note_off channel=2 note=38 velocity=64 time=0.10869562499999999
EXTRACT: note_off channel=9 note=46 velocity=64 time=0
EXTRACT: note_off channel=6 note=81 velocity=64 time=0
EXTRACT: note_on channel=2 note=38 velocity=100 time=0.021739124999999998
EXTRACT: note_on channel=9 note=45 velocity=98 time=0
EXTRACT: note_on channel=9 note=46 velocity=41 time=0
EXTRACT: note_on channel=6 note=81 velocity=100 time=0
EXTRACT: note_off channel=9 note=45 velocity=64 time=0.10869562499999999
EXTRACT: note_off channel=9 note=46 velocity=64 time=0
EXTRACT: note_on channel=9 note=46 velocity=41 time=0.021739124999999998
EXTRACT: note_off channel=2 note=38 velocity=64 time=0.10869562499999999
EXTRACT: note_off channel=9 note=46 velocity=64 time=0
EXTRACT: note_off channel=6 note=81 velocity=64 time=0
EXTRACT: note_on channel=2 note=38 velocity=100 time=0.021739124999999998
EXTRACT: note_on channel=9 note=46 velocity=41 time=0
EXTRACT: note_on channel=6 note=79 velocity=100 time=0
EXTRACT: note_off channel=9 note=46 velocity=64 time=0.10869562499999999
EXTRACT: note_on channel=9 note=46 velocity=41 time=0.021739124999999998
EXTRACT: note_off channel=2 note=38 velocity=64 time=0.10869562499999999
EXTRACT: note_off channel=9 note=46 velocity=64 time=0
EXTRACT: note_off channel=6 note=79 velocity=64 time=0
EXTRACT: note_on channel=2 note=38 velocity=100 time=0.021739124999999998
EXTRACT: note_on channel=9 note=45 velocity=95 time=0
EXTRACT: note_on channel=9 note=46 velocity=41 time=0
EXTRACT: note_on channel=6 note=77 velocity=100 time=0
EXTRACT: note_off channel=9 note=45 velocity=64 time=0.10869562499999999
EXTRACT: note_off channel=9 note=46 velocity=64 time=0
EXTRACT: note_on channel=9 note=46 velocity=41 time=0.021739124999999998
EXTRACT: note_off channel=2 note=38 velocity=64 time=0.10869562499999999
EXTRACT: note_off channel=9 note=46 velocity=64 time=0
EXTRACT: note_off channel=6 note=77 velocity=64 time=0
EXTRACT: note_on channel=2 note=38 velocity=100 time=0.021739124999999998
EXTRACT: note_on channel=9 note=46 velocity=36 time=0
EXTRACT: note_on channel=6 note=79 velocity=100 time=0
EXTRACT: note_off channel=9 note=46 velocity=64 time=0.10869562499999999
EXTRACT: note_on channel=9 note=46 velocity=41 time=0.021739124999999998
EXTRACT: note_off channel=1 note=57 velocity=64 time=0.10869562499999999
EXTRACT: note_off channel=1 note=62 velocity=64 time=0
EXTRACT: note_off channel=2 note=38 velocity=64 time=0
EXTRACT: note_off channel=9 note=46 velocity=64 time=0
EXTRACT: note_off channel=4 note=57 velocity=64 time=0
EXTRACT: note_off channel=4 note=62 velocity=64 time=0
EXTRACT: note_off channel=5 note=57 velocity=64 time=0
EXTRACT: note_off channel=5 note=62 velocity=64 time=0
EXTRACT: note_on channel=1 note=62 velocity=100 time=0.021739124999999998
EXTRACT: note_on channel=1 note=55 velocity=100 time=0
EXTRACT: note_on channel=2 note=43 velocity=100 time=0
EXTRACT: note_on channel=9 note=45 velocity=98 time=0
EXTRACT: note_on channel=9 note=46 velocity=41 time=0
EXTRACT: note_on channel=4 note=62 velocity=100 time=0
EXTRACT: note_on channel=4 note=55 velocity=100 time=0
EXTRACT: note_on channel=5 note=62 velocity=100 time=0
EXTRACT: note_on channel=5 note=55 velocity=100 time=0
EXTRACT: note_off channel=9 note=45 velocity=64 time=0.10869562499999999
EXTRACT: note_off channel=9 note=46 velocity=64 time=0
EXTRACT: note_on channel=9 note=46 velocity=41 time=0.021739124999999998
EXTRACT: note_off channel=2 note=43 velocity=64 time=0.10869562499999999
EXTRACT: note_off channel=9 note=46 velocity=64 time=0
EXTRACT: note_off channel=6 note=79 velocity=64 time=0
EXTRACT: note_on channel=2 note=43 velocity=100 time=0.021739124999999998
EXTRACT: note_on channel=9 note=46 velocity=41 time=0
EXTRACT: note_on channel=6 note=81 velocity=100 time=0
EXTRACT: note_off channel=9 note=46 velocity=64 time=0.10869562499999999
EXTRACT: note_on channel=9 note=46 velocity=41 time=0.021739124999999998
EXTRACT: note_off channel=2 note=43 velocity=64 time=0.10869562499999999
EXTRACT: note_off channel=9 note=46 velocity=64 time=0
EXTRACT: note_off channel=6 note=81 velocity=64 time=0
EXTRACT: note_on channel=2 note=43 velocity=100 time=0.021739124999999998
EXTRACT: note_on channel=9 note=45 velocity=95 time=0
EXTRACT: note_on channel=9 note=46 velocity=41 time=0
EXTRACT: note_on channel=6 note=79 velocity=100 time=0
EXTRACT: note_off channel=9 note=45 velocity=64 time=0.10869562499999999
EXTRACT: note_off channel=9 note=46 velocity=64 time=0
EXTRACT: note_on channel=9 note=46 velocity=41 time=0.021739124999999998
EXTRACT: note_off channel=2 note=43 velocity=64 time=0.10869562499999999
EXTRACT: note_off channel=9 note=46 velocity=64 time=0
EXTRACT: note_on channel=2 note=43 velocity=100 time=0.021739124999999998
EXTRACT: note_on channel=9 note=46 velocity=41 time=0
EXTRACT: note_off channel=9 note=46 velocity=64 time=0.10869562499999999
EXTRACT: note_on channel=9 note=46 velocity=41 time=0.021739124999999998
EXTRACT: note_off channel=2 note=43 velocity=64 time=0.10869562499999999
EXTRACT: note_off channel=9 note=46 velocity=64 time=0
EXTRACT: note_on channel=2 note=43 velocity=100 time=0.021739124999999998
EXTRACT: note_on channel=9 note=45 velocity=98 time=0
EXTRACT: note_on channel=9 note=46 velocity=41 time=0
EXTRACT: note_off channel=9 note=45 velocity=64 time=0.10869562499999999
EXTRACT: note_off channel=9 note=46 velocity=64 time=0
EXTRACT: note_on channel=9 note=46 velocity=41 time=0.021739124999999998
EXTRACT: note_off channel=2 note=43 velocity=64 time=0.10869562499999999
EXTRACT: note_off channel=9 note=46 velocity=64 time=0
EXTRACT: note_off channel=6 note=79 velocity=64 time=0
EXTRACT: note_on channel=2 note=43 velocity=100 time=0.021739124999999998
EXTRACT: note_on channel=9 note=46 velocity=41 time=0
EXTRACT: note_off channel=9 note=46 velocity=64 time=0.10869562499999999
EXTRACT: note_on channel=9 note=46 velocity=41 time=0.021739124999999998
EXTRACT: note_off channel=2 note=43 velocity=64 time=0.10869562499999999
EXTRACT: note_off channel=9 note=46 velocity=64 time=0
EXTRACT: note_on channel=2 note=43 velocity=100 time=0.021739124999999998
EXTRACT: note_on channel=9 note=45 velocity=95 time=0
EXTRACT: note_on channel=9 note=46 velocity=41 time=0
EXTRACT: note_on channel=6 note=77 velocity=100 time=0
EXTRACT: note_off channel=9 note=45 velocity=64 time=0.10869562499999999
EXTRACT: note_off channel=9 note=46 velocity=64 time=0
EXTRACT: note_on channel=9 note=46 velocity=41 time=0.021739124999999998
EXTRACT: note_off channel=2 note=43 velocity=64 time=0.10869562499999999
EXTRACT: note_off channel=9 note=46 velocity=64 time=0
EXTRACT: note_off channel=6 note=77 velocity=64 time=0
EXTRACT: note_on channel=2 note=43 velocity=100 time=0.021739124999999998
EXTRACT: note_on channel=9 note=46 velocity=41 time=0
EXTRACT: note_on channel=6 note=79 velocity=100 time=0
EXTRACT: note_off channel=9 note=46 velocity=64 time=0.10869562499999999
EXTRACT: note_on channel=9 note=46 velocity=41 time=0.021739124999999998
EXTRACT: note_off channel=1 note=62 velocity=64 time=0.10869562499999999
EXTRACT: note_off channel=1 note=55 velocity=64 time=0
EXTRACT: note_off channel=2 note=43 velocity=64 time=0
EXTRACT: note_off channel=9 note=46 velocity=64 time=0
EXTRACT: note_off channel=4 note=62 velocity=64 time=0
EXTRACT: note_off channel=4 note=55 velocity=64 time=0
EXTRACT: note_off channel=5 note=62 velocity=64 time=0
EXTRACT: note_off channel=5 note=55 velocity=64 time=0
EXTRACT: note_off channel=6 note=79 velocity=64 time=0
EXTRACT: note_on channel=1 note=61 velocity=100 time=0.021739124999999998
EXTRACT: note_on channel=1 note=57 velocity=100 time=0
EXTRACT: note_on channel=2 note=45 velocity=100 time=0
EXTRACT: note_on channel=9 note=45 velocity=98 time=0
EXTRACT: note_on channel=9 note=46 velocity=41 time=0
EXTRACT: note_on channel=4 note=61 velocity=100 time=0
EXTRACT: note_on channel=4 note=57 velocity=100 time=0
EXTRACT: note_on channel=5 note=61 velocity=100 time=0
EXTRACT: note_on channel=5 note=57 velocity=100 time=0
EXTRACT: note_on channel=6 note=85 velocity=100 time=0
EXTRACT: note_off channel=9 note=45 velocity=64 time=0.10869562499999999
EXTRACT: note_off channel=9 note=46 velocity=64 time=0
EXTRACT: note_on channel=9 note=46 velocity=41 time=0.021739124999999998
EXTRACT: note_off channel=2 note=45 velocity=64 time=0.10869562499999999
EXTRACT: note_off channel=9 note=46 velocity=64 time=0
EXTRACT: note_on channel=2 note=45 velocity=100 time=0.021739124999999998
EXTRACT: note_on channel=9 note=46 velocity=41 time=0
EXTRACT: note_off channel=9 note=46 velocity=64 time=0.10869562499999999
EXTRACT: note_on channel=9 note=46 velocity=41 time=0.021739124999999998
EXTRACT: note_off channel=2 note=45 velocity=64 time=0.10869562499999999
EXTRACT: note_off channel=9 note=46 velocity=64 time=0
EXTRACT: note_off channel=6 note=85 velocity=64 time=0
EXTRACT: note_on channel=2 note=45 velocity=100 time=0.021739124999999998
EXTRACT: note_on channel=9 note=45 velocity=95 time=0
EXTRACT: note_on channel=9 note=46 velocity=41 time=0
EXTRACT: note_on channel=6 note=85 velocity=100 time=0
EXTRACT: note_off channel=9 note=45 velocity=64 time=0.10869562499999999
EXTRACT: note_off channel=9 note=46 velocity=64 time=0
EXTRACT: note_on channel=9 note=46 velocity=41 time=0.021739124999999998
EXTRACT: note_off channel=2 note=45 velocity=64 time=0.10869562499999999
EXTRACT: note_off channel=9 note=46 velocity=64 time=0
EXTRACT: note_on channel=2 note=45 velocity=100 time=0.021739124999999998
EXTRACT: note_on channel=9 note=46 velocity=41 time=0
EXTRACT: note_off channel=9 note=46 velocity=64 time=0.10869562499999999
EXTRACT: note_on channel=9 note=46 velocity=36 time=0.021739124999999998
EXTRACT: note_off channel=1 note=61 velocity=64 time=0.10869562499999999
EXTRACT: note_off channel=1 note=57 velocity=64 time=0
EXTRACT: note_off channel=2 note=45 velocity=64 time=0
EXTRACT: note_off channel=9 note=46 velocity=64 time=0
EXTRACT: note_off channel=4 note=61 velocity=64 time=0
EXTRACT: note_off channel=4 note=57 velocity=64 time=0
EXTRACT: note_off channel=5 note=61 velocity=64 time=0
EXTRACT: note_off channel=5 note=57 velocity=64 time=0
EXTRACT: note_off channel=6 note=85 velocity=64 time=0
EXTRACT: note_on channel=1 note=64 velocity=100 time=0.021739124999999998
EXTRACT: note_on channel=1 note=57 velocity=100 time=0
EXTRACT: note_on channel=2 note=43 velocity=100 time=0
EXTRACT: note_on channel=9 note=45 velocity=98 time=0
EXTRACT: note_on channel=9 note=46 velocity=41 time=0
EXTRACT: note_on channel=4 note=64 velocity=100 time=0
EXTRACT: note_on channel=4 note=57 velocity=100 time=0
EXTRACT: note_on channel=5 note=64 velocity=100 time=0
EXTRACT: note_on channel=5 note=57 velocity=100 time=0
EXTRACT: note_on channel=6 note=88 velocity=100 time=0
EXTRACT: note_off channel=9 note=45 velocity=64 time=0.10869562499999999
EXTRACT: note_off channel=9 note=46 velocity=64 time=0
EXTRACT: note_on channel=9 note=46 velocity=36 time=0.021739124999999998
EXTRACT: note_off channel=2 note=43 velocity=64 time=0.10869562499999999
EXTRACT: note_off channel=9 note=46 velocity=64 time=0
EXTRACT: note_on channel=2 note=43 velocity=100 time=0.021739124999999998
EXTRACT: note_on channel=9 note=46 velocity=41 time=0
EXTRACT: note_off channel=9 note=46 velocity=64 time=0.10869562499999999
EXTRACT: note_on channel=9 note=46 velocity=36 time=0.021739124999999998
EXTRACT: note_off channel=2 note=43 velocity=64 time=0.10869562499999999
EXTRACT: note_off channel=9 note=46 velocity=64 time=0
EXTRACT: note_off channel=6 note=88 velocity=64 time=0
EXTRACT: note_on channel=2 note=43 velocity=100 time=0.021739124999999998
EXTRACT: note_on channel=9 note=45 velocity=95 time=0
EXTRACT: note_on channel=9 note=46 velocity=41 time=0
EXTRACT: note_on channel=6 note=79 velocity=100 time=0
EXTRACT: note_off channel=9 note=45 velocity=64 time=0.10869562499999999
EXTRACT: note_off channel=9 note=46 velocity=64 time=0
EXTRACT: note_on channel=9 note=46 velocity=41 time=0.021739124999999998
EXTRACT: note_off channel=2 note=43 velocity=64 time=0.10869562499999999
EXTRACT: note_off channel=9 note=46 velocity=64 time=0
EXTRACT: note_off channel=6 note=79 velocity=64 time=0
EXTRACT: note_on channel=2 note=43 velocity=100 time=0.021739124999999998
EXTRACT: note_on channel=9 note=46 velocity=36 time=0
EXTRACT: note_on channel=6 note=79 velocity=100 time=0
EXTRACT: note_off channel=9 note=46 velocity=64 time=0.10869562499999999
EXTRACT: note_on channel=9 note=46 velocity=41 time=0.021739124999999998
EXTRACT: note_off channel=1 note=64 velocity=64 time=0.10869562499999999
EXTRACT: note_off channel=1 note=57 velocity=64 time=0
EXTRACT: note_off channel=2 note=43 velocity=64 time=0
EXTRACT: note_off channel=9 note=46 velocity=64 time=0
EXTRACT: note_off channel=4 note=64 velocity=64 time=0
EXTRACT: note_off channel=4 note=57 velocity=64 time=0
EXTRACT: note_off channel=5 note=64 velocity=64 time=0
EXTRACT: note_off channel=5 note=57 velocity=64 time=0
EXTRACT: note_on channel=1 note=57 velocity=100 time=0.021739124999999998
EXTRACT: note_on channel=1 note=53 velocity=100 time=0
EXTRACT: note_on channel=2 note=41 velocity=100 time=0
EXTRACT: note_on channel=9 note=45 velocity=98 time=0
EXTRACT: note_on channel=9 note=46 velocity=41 time=0
EXTRACT: note_on channel=4 note=57 velocity=100 time=0
EXTRACT: note_on channel=4 note=53 velocity=100 time=0
EXTRACT: note_on channel=5 note=57 velocity=100 time=0
EXTRACT: note_on channel=5 note=53 velocity=100 time=0
EXTRACT: note_off channel=9 note=45 velocity=64 time=0.10869562499999999
EXTRACT: note_off channel=9 note=46 velocity=64 time=0
EXTRACT: note_on channel=9 note=46 velocity=41 time=0.021739124999999998
EXTRACT: note_off channel=2 note=41 velocity=64 time=0.10869562499999999
EXTRACT: note_off channel=9 note=46 velocity=64 time=0
EXTRACT: note_off channel=6 note=79 velocity=64 time=0
EXTRACT: note_on channel=2 note=41 velocity=100 time=0.021739124999999998
EXTRACT: note_on channel=9 note=46 velocity=41 time=0
EXTRACT: note_on channel=6 note=77 velocity=100 time=0
EXTRACT: note_off channel=9 note=46 velocity=64 time=0.10869562499999999
EXTRACT: note_on channel=9 note=46 velocity=41 time=0.021739124999999998
EXTRACT: note_off channel=2 note=41 velocity=64 time=0.10869562499999999
EXTRACT: note_off channel=9 note=46 velocity=64 time=0
EXTRACT: note_off channel=6 note=77 velocity=64 time=0
EXTRACT: note_on channel=2 note=41 velocity=100 time=0.021739124999999998
EXTRACT: note_on channel=9 note=45 velocity=95 time=0
EXTRACT: note_on channel=9 note=46 velocity=41 time=0
EXTRACT: note_on channel=6 note=74 velocity=100 time=0
EXTRACT: note_off channel=9 note=45 velocity=64 time=0.10869562499999999
EXTRACT: note_off channel=9 note=46 velocity=64 time=0
EXTRACT: note_on channel=9 note=46 velocity=41 time=0.021739124999999998
EXTRACT: note_off channel=2 note=41 velocity=64 time=0.10869562499999999
EXTRACT: note_off channel=9 note=46 velocity=64 time=0
EXTRACT: note_on channel=2 note=41 velocity=100 time=0.021739124999999998
EXTRACT: note_on channel=9 note=46 velocity=41 time=0
EXTRACT: note_off channel=9 note=46 velocity=64 time=0.10869562499999999
EXTRACT: note_on channel=9 note=46 velocity=41 time=0.021739124999999998
EXTRACT: note_off channel=2 note=41 velocity=64 time=0.10869562499999999
EXTRACT: note_off channel=9 note=46 velocity=64 time=0
EXTRACT: note_off channel=6 note=74 velocity=64 time=0
EXTRACT: note_on channel=2 note=41 velocity=100 time=0.021739124999999998
EXTRACT: note_on channel=9 note=45 velocity=98 time=0
EXTRACT: note_on channel=9 note=46 velocity=41 time=0
EXTRACT: note_off channel=9 note=45 velocity=64 time=0.10869562499999999
EXTRACT: note_off channel=9 note=46 velocity=64 time=0
EXTRACT: note_on channel=9 note=46 velocity=41 time=0.021739124999999998
EXTRACT: note_off channel=2 note=41 velocity=64 time=0.10869562499999999
EXTRACT: note_off channel=9 note=46 velocity=64 time=0
EXTRACT: note_on channel=2 note=38 velocity=100 time=0.021739124999999998
EXTRACT: note_on channel=9 note=46 velocity=41 time=0
EXTRACT: note_on channel=6 note=74 velocity=100 time=0
EXTRACT: note_off channel=9 note=46 velocity=64 time=0.10869562499999999
EXTRACT: note_on channel=9 note=46 velocity=41 time=0.021739124999999998
EXTRACT: note_off channel=2 note=38 velocity=64 time=0.10869562499999999
EXTRACT: note_off channel=9 note=46 velocity=64 time=0
EXTRACT: note_on channel=2 note=41 velocity=100 time=0.021739124999999998
EXTRACT: note_on channel=9 note=45 velocity=95 time=0
EXTRACT: note_on channel=9 note=46 velocity=41 time=0
EXTRACT: note_off channel=9 note=45 velocity=64 time=0.10869562499999999
EXTRACT: note_off channel=9 note=46 velocity=64 time=0
EXTRACT: note_on channel=9 note=46 velocity=41 time=0.021739124999999998
EXTRACT: note_off channel=2 note=41 velocity=64 time=0.10869562499999999
EXTRACT: note_off channel=9 note=46 velocity=64 time=0
EXTRACT: note_off channel=6 note=74 velocity=64 time=0
EXTRACT: note_on channel=2 note=38 velocity=100 time=0.021739124999999998
EXTRACT: note_on channel=9 note=46 velocity=41 time=0
EXTRACT: note_on channel=6 note=74 velocity=100 time=0
EXTRACT: note_off channel=9 note=46 velocity=64 time=0.10869562499999999
EXTRACT: note_on channel=9 note=46 velocity=41 time=0.021739124999999998
EXTRACT: note_off channel=1 note=57 velocity=64 time=0.10869562499999999
EXTRACT: note_off channel=1 note=53 velocity=64 time=0
EXTRACT: note_off channel=2 note=38 velocity=64 time=0
EXTRACT: note_off channel=9 note=46 velocity=64 time=0
EXTRACT: note_off channel=4 note=57 velocity=64 time=0
EXTRACT: note_off channel=4 note=53 velocity=64 time=0
EXTRACT: note_off channel=5 note=57 velocity=64 time=0
EXTRACT: note_off channel=5 note=53 velocity=64 time=0
EXTRACT: note_off channel=6 note=74 velocity=64 time=0
EXTRACT: note_on channel=1 note=59 velocity=100 time=0.021739124999999998
EXTRACT: note_on channel=1 note=55 velocity=100 time=0
EXTRACT: note_on channel=2 note=43 velocity=100 time=0
EXTRACT: note_on channel=9 note=45 velocity=98 time=0
EXTRACT: note_on channel=9 note=46 velocity=41 time=0
EXTRACT: note_on channel=4 note=59 velocity=100 time=0
EXTRACT: note_on channel=4 note=55 velocity=100 time=0
EXTRACT: note_on channel=5 note=59 velocity=100 time=0
EXTRACT: note_on channel=5 note=55 velocity=100 time=0
EXTRACT: note_on channel=6 note=79 velocity=100 time=0
EXTRACT: note_off channel=9 note=45 velocity=64 time=0.10869562499999999
EXTRACT: note_off channel=9 note=46 velocity=64 time=0
EXTRACT: note_on channel=9 note=46 velocity=41 time=0.021739124999999998
EXTRACT: note_off channel=2 note=43 velocity=64 time=0.10869562499999999
EXTRACT: note_off channel=9 note=46 velocity=64 time=0
EXTRACT: note_off channel=6 note=79 velocity=64 time=0
EXTRACT: note_on channel=2 note=43 velocity=100 time=0.021739124999999998
EXTRACT: note_on channel=9 note=46 velocity=41 time=0
EXTRACT: note_on channel=6 note=79 velocity=100 time=0
EXTRACT: note_off channel=9 note=46 velocity=64 time=0.10869562499999999
EXTRACT: note_on channel=9 note=46 velocity=36 time=0.021739124999999998
EXTRACT: note_off channel=2 note=43 velocity=64 time=0.10869562499999999
EXTRACT: note_off channel=9 note=46 velocity=64 time=0
EXTRACT: note_off channel=6 note=79 velocity=64 time=0
EXTRACT: note_on channel=2 note=43 velocity=100 time=0.021739124999999998
EXTRACT: note_on channel=9 note=45 velocity=95 time=0
EXTRACT: note_on channel=9 note=46 velocity=41 time=0
EXTRACT: note_on channel=6 note=77 velocity=100 time=0
EXTRACT: note_off channel=9 note=45 velocity=64 time=0.10869562499999999
EXTRACT: note_off channel=9 note=46 velocity=64 time=0
EXTRACT: note_on channel=9 note=46 velocity=36 time=0.021739124999999998
EXTRACT: note_off channel=2 note=43 velocity=64 time=0.10869562499999999
EXTRACT: note_off channel=9 note=46 velocity=64 time=0
EXTRACT: note_off channel=6 note=77 velocity=64 time=0
EXTRACT: note_on channel=2 note=43 velocity=100 time=0.021739124999999998
EXTRACT: note_on channel=9 note=46 velocity=36 time=0
EXTRACT: note_on channel=6 note=79 velocity=100 time=0
EXTRACT: note_off channel=9 note=46 velocity=64 time=0.10869562499999999
EXTRACT: note_on channel=9 note=46 velocity=41 time=0.021739124999999998
EXTRACT: note_off channel=2 note=43 velocity=64 time=0.10869562499999999
EXTRACT: note_off channel=9 note=46 velocity=64 time=0
EXTRACT: note_on channel=2 note=43 velocity=100 time=0.021739124999999998
EXTRACT: note_on channel=9 note=45 velocity=98 time=0
EXTRACT: note_on channel=9 note=46 velocity=41 time=0
EXTRACT: note_off channel=9 note=45 velocity=64 time=0.10869562499999999
EXTRACT: note_off channel=9 note=46 velocity=64 time=0
EXTRACT: note_on channel=9 note=46 velocity=41 time=0.021739124999999998
EXTRACT: note_off channel=2 note=43 velocity=64 time=0.10869562499999999
EXTRACT: note_off channel=9 note=46 velocity=64 time=0
EXTRACT: note_off channel=6 note=79 velocity=64 time=0
EXTRACT: note_on channel=2 note=43 velocity=100 time=0.021739124999999998
EXTRACT: note_on channel=9 note=46 velocity=41 time=0
EXTRACT: note_on channel=6 note=79 velocity=100 time=0
EXTRACT: note_off channel=9 note=46 velocity=64 time=0.10869562499999999
EXTRACT: note_on channel=9 note=46 velocity=41 time=0.021739124999999998
EXTRACT: note_off channel=2 note=43 velocity=64 time=0.10869562499999999
EXTRACT: note_off channel=9 note=46 velocity=64 time=0
EXTRACT: note_off channel=6 note=79 velocity=64 time=0
EXTRACT: note_on channel=2 note=43 velocity=100 time=0.021739124999999998
EXTRACT: note_on channel=9 note=45 velocity=95 time=0
EXTRACT: note_on channel=9 note=46 velocity=41 time=0
EXTRACT: note_on channel=6 note=77 velocity=100 time=0
EXTRACT: note_off channel=9 note=45 velocity=64 time=0.10869562499999999
EXTRACT: note_off channel=9 note=46 velocity=64 time=0
EXTRACT: note_on channel=9 note=46 velocity=41 time=0.021739124999999998
EXTRACT: note_off channel=2 note=43 velocity=64 time=0.10869562499999999
EXTRACT: note_off channel=9 note=46 velocity=64 time=0
EXTRACT: note_off channel=6 note=77 velocity=64 time=0
EXTRACT: note_on channel=2 note=43 velocity=100 time=0.021739124999999998
EXTRACT: note_on channel=9 note=46 velocity=41 time=0
EXTRACT: note_on channel=6 note=79 velocity=100 time=0
EXTRACT: note_off channel=9 note=46 velocity=64 time=0.10869562499999999
EXTRACT: note_on channel=9 note=46 velocity=41 time=0.021739124999999998
EXTRACT: note_off channel=1 note=59 velocity=64 time=0.10869562499999999
EXTRACT: note_off channel=1 note=55 velocity=64 time=0
EXTRACT: note_off channel=2 note=43 velocity=64 time=0
EXTRACT: note_off channel=9 note=46 velocity=64 time=0
EXTRACT: note_off channel=4 note=59 velocity=64 time=0
EXTRACT: note_off channel=4 note=55 velocity=64 time=0
EXTRACT: note_off channel=5 note=59 velocity=64 time=0
EXTRACT: note_off channel=5 note=55 velocity=64 time=0
EXTRACT: note_off channel=6 note=79 velocity=64 time=0
EXTRACT: note_on channel=1 note=57 velocity=100 time=0.021739124999999998
EXTRACT: note_on channel=1 note=61 velocity=100 time=0
EXTRACT: note_on channel=2 note=45 velocity=100 time=0
EXTRACT: note_on channel=9 note=45 velocity=98 time=0
EXTRACT: note_on channel=9 note=46 velocity=41 time=0
EXTRACT: note_on channel=4 note=57 velocity=100 time=0
EXTRACT: note_on channel=4 note=61 velocity=100 time=0
EXTRACT: note_on channel=5 note=57 velocity=100 time=0
EXTRACT: note_on channel=5 note=61 velocity=100 time=0
EXTRACT: note_on channel=6 note=79 velocity=100 time=0
EXTRACT: note_off channel=9 note=45 velocity=64 time=0.10869562499999999
EXTRACT: note_off channel=9 note=46 velocity=64 time=0
EXTRACT: note_on channel=9 note=46 velocity=41 time=0.021739124999999998
EXTRACT: note_off channel=2 note=45 velocity=64 time=0.10869562499999999
EXTRACT: note_off channel=9 note=46 velocity=64 time=0
EXTRACT: note_off channel=6 note=79 velocity=64 time=0
EXTRACT: note_on channel=2 note=45 velocity=100 time=0.021739124999999998
EXTRACT: note_on channel=9 note=46 velocity=41 time=0
EXTRACT: note_on channel=6 note=79 velocity=100 time=0
EXTRACT: note_off channel=9 note=46 velocity=64 time=0.10869562499999999
EXTRACT: note_on channel=9 note=46 velocity=41 time=0.021739124999999998
EXTRACT: note_off channel=2 note=45 velocity=64 time=0.10869562499999999
EXTRACT: note_off channel=9 note=46 velocity=64 time=0
EXTRACT: note_off channel=6 note=79 velocity=64 time=0
EXTRACT: note_on channel=2 note=45 velocity=100 time=0.021739124999999998
EXTRACT: note_on channel=9 note=45 velocity=95 time=0
EXTRACT: note_on channel=9 note=46 velocity=41 time=0
EXTRACT: note_on channel=6 note=77 velocity=100 time=0
EXTRACT: note_off channel=9 note=45 velocity=64 time=0.10869562499999999
EXTRACT: note_off channel=9 note=46 velocity=64 time=0
EXTRACT: note_on channel=9 note=46 velocity=41 time=0.021739124999999998
EXTRACT: note_off channel=2 note=45 velocity=64 time=0.10869562499999999
EXTRACT: note_off channel=9 note=46 velocity=64 time=0
EXTRACT: note_off channel=6 note=77 velocity=64 time=0
EXTRACT: note_on channel=2 note=45 velocity=100 time=0.021739124999999998
EXTRACT: note_on channel=9 note=46 velocity=41 time=0
EXTRACT: note_on channel=6 note=79 velocity=100 time=0
EXTRACT: note_off channel=9 note=46 velocity=64 time=0.10869562499999999
EXTRACT: note_on channel=9 note=46 velocity=41 time=0.021739124999999998
EXTRACT: note_off channel=2 note=45 velocity=64 time=0.10869562499999999
EXTRACT: note_off channel=9 note=46 velocity=64 time=0
EXTRACT: note_off channel=6 note=79 velocity=64 time=0
EXTRACT: note_on channel=2 note=45 velocity=100 time=0.021739124999999998
EXTRACT: note_on channel=9 note=45 velocity=98 time=0
EXTRACT: note_on channel=9 note=46 velocity=41 time=0
EXTRACT: note_off channel=9 note=45 velocity=64 time=0.10869562499999999
EXTRACT: note_off channel=9 note=46 velocity=64 time=0
EXTRACT: note_on channel=9 note=46 velocity=41 time=0.021739124999999998
EXTRACT: note_off channel=2 note=45 velocity=64 time=0.10869562499999999
EXTRACT: note_off channel=9 note=46 velocity=64 time=0
EXTRACT: note_on channel=2 note=45 velocity=100 time=0.021739124999999998
EXTRACT: note_on channel=9 note=46 velocity=41 time=0
EXTRACT: note_on channel=6 note=81 velocity=100 time=0
EXTRACT: note_off channel=9 note=46 velocity=64 time=0.10869562499999999
EXTRACT: note_on channel=9 note=46 velocity=41 time=0.021739124999999998
EXTRACT: note_off channel=2 note=45 velocity=64 time=0.10869562499999999
EXTRACT: note_off channel=9 note=46 velocity=64 time=0
EXTRACT: note_off channel=6 note=81 velocity=64 time=0
EXTRACT: note_on channel=2 note=45 velocity=100 time=0.021739124999999998
EXTRACT: note_on channel=9 note=45 velocity=95 time=0
EXTRACT: note_on channel=9 note=46 velocity=41 time=0
EXTRACT: note_on channel=6 note=81 velocity=100 time=0
EXTRACT: note_off channel=9 note=45 velocity=64 time=0.10869562499999999
EXTRACT: note_off channel=9 note=46 velocity=64 time=0
EXTRACT: note_on channel=9 note=46 velocity=41 time=0.021739124999999998
EXTRACT: note_off channel=2 note=45 velocity=64 time=0.10869562499999999
EXTRACT: note_off channel=9 note=46 velocity=64 time=0
EXTRACT: note_off channel=6 note=81 velocity=64 time=0
EXTRACT: note_on channel=2 note=45 velocity=100 time=0.021739124999999998
EXTRACT: note_on channel=9 note=46 velocity=36 time=0
EXTRACT: note_on channel=6 note=81 velocity=100 time=0
EXTRACT: note_off channel=9 note=46 velocity=64 time=0.10869562499999999
EXTRACT: note_on channel=9 note=46 velocity=41 time=0.021739124999999998
EXTRACT: note_off channel=1 note=57 velocity=64 time=0.10869562499999999
EXTRACT: note_off channel=1 note=61 velocity=64 time=0
EXTRACT: note_off channel=2 note=45 velocity=64 time=0
EXTRACT: note_off channel=9 note=46 velocity=64 time=0
EXTRACT: note_off channel=4 note=57 velocity=64 time=0
EXTRACT: note_off channel=4 note=61 velocity=64 time=0
EXTRACT: note_off channel=5 note=57 velocity=64 time=0
EXTRACT: note_off channel=5 note=61 velocity=64 time=0
EXTRACT: note_off channel=6 note=81 velocity=64 time=0
EXTRACT: note_on channel=1 note=57 velocity=100 time=0.021739124999999998
EXTRACT: note_on channel=1 note=50 velocity=100 time=0
EXTRACT: note_on channel=2 note=38 velocity=100 time=0
EXTRACT: note_on channel=4 note=57 velocity=100 time=0
EXTRACT: note_on channel=4 note=50 velocity=100 time=0
EXTRACT: note_on channel=4 note=57 velocity=100 time=0
EXTRACT: note_on channel=4 note=50 velocity=100 time=0
EXTRACT: note_on channel=5 note=57 velocity=100 time=0
EXTRACT: note_on channel=5 note=50 velocity=100 time=0
EXTRACT: note_on channel=5 note=65 velocity=100 time=0
EXTRACT: note_on channel=6 note=79 velocity=100 time=0
EXTRACT: note_off channel=1 note=57 velocity=64 time=0.23913037499999998
EXTRACT: note_off channel=1 note=50 velocity=64 time=0
EXTRACT: note_off channel=2 note=38 velocity=64 time=0
EXTRACT: note_off channel=4 note=57 velocity=64 time=0
EXTRACT: note_off channel=4 note=50 velocity=64 time=0
EXTRACT: note_off channel=5 note=57 velocity=64 time=0
EXTRACT: note_off channel=5 note=50 velocity=64 time=0
EXTRACT: note_off channel=5 note=65 velocity=64 time=0
EXTRACT: note_off channel=6 note=79 velocity=64 time=0
EXTRACT: note_on channel=5 note=62 velocity=100 time=0.021739124999999998
EXTRACT: note_on channel=6 note=77 velocity=100 time=0
EXTRACT: note_off channel=5 note=62 velocity=64 time=0.23913037499999998
EXTRACT: note_off channel=6 note=77 velocity=64 time=0
EXTRACT: note_on channel=5 note=57 velocity=100 time=0.021739124999999998
EXTRACT: note_on channel=6 note=81 velocity=100 time=0
EXTRACT: note_off channel=5 note=57 velocity=64 time=0.23913037499999998
EXTRACT: note_off channel=6 note=81 velocity=64 time=0
EXTRACT: note_on channel=5 note=65 velocity=100 time=0.021739124999999998
EXTRACT: note_off channel=5 note=65 velocity=64 time=0.23913037499999998
EXTRACT: note_on channel=5 note=62 velocity=100 time=0.021739124999999998
EXTRACT: note_off channel=5 note=62 velocity=64 time=0.23913037499999998
EXTRACT: note_on channel=5 note=57 velocity=100 time=0.021739124999999998
EXTRACT: note_off channel=5 note=57 velocity=64 time=0.23913037499999998
EXTRACT: note_on channel=5 note=65 velocity=100 time=0.021739124999999998
EXTRACT: note_off channel=5 note=65 velocity=64 time=0.23913037499999998
EXTRACT: note_on channel=5 note=62 velocity=100 time=0.021739124999999998
EXTRACT: note_off channel=5 note=62 velocity=64 time=0.23913037499999998
EXTRACT: note_on channel=5 note=65 velocity=100 time=0.021739124999999998
EXTRACT: note_off channel=5 note=65 velocity=64 time=0.23913037499999998
EXTRACT: note_on channel=5 note=62 velocity=100 time=0.021739124999999998
EXTRACT: note_off channel=5 note=62 velocity=64 time=0.23913037499999998
EXTRACT: note_on channel=5 note=57 velocity=100 time=0.021739124999999998
EXTRACT: note_off channel=5 note=57 velocity=64 time=0.23913037499999998
EXTRACT: note_on channel=5 note=65 velocity=100 time=0.021739124999999998
EXTRACT: note_off channel=5 note=65 velocity=64 time=0.23913037499999998
EXTRACT: note_on channel=5 note=62 velocity=100 time=0.021739124999999998
EXTRACT: note_off channel=5 note=62 velocity=64 time=0.23913037499999998
EXTRACT: note_on channel=5 note=57 velocity=100 time=0.021739124999999998
EXTRACT: note_off channel=5 note=57 velocity=64 time=0.23913037499999998
EXTRACT: note_on channel=5 note=65 velocity=100 time=0.021739124999999998
EXTRACT: note_off channel=5 note=65 velocity=64 time=0.23913037499999998
EXTRACT: note_on channel=5 note=67 velocity=100 time=0.021739124999999998
EXTRACT: note_off channel=4 note=50 velocity=64 time=0.23913037499999998
EXTRACT: note_off channel=4 note=57 velocity=64 time=0
EXTRACT: note_off channel=5 note=67 velocity=64 time=0
EXTRACT: note_on channel=4 note=57 velocity=100 time=0.021739124999999998
EXTRACT: note_on channel=4 note=52 velocity=100 time=0
EXTRACT: note_on channel=5 note=64 velocity=100 time=0
EXTRACT: note_off channel=5 note=64 velocity=64 time=0.23913037499999998
EXTRACT: note_on channel=5 note=60 velocity=100 time=0.021739124999999998
EXTRACT: note_off channel=5 note=60 velocity=64 time=0.23913037499999998
EXTRACT: note_on channel=5 note=57 velocity=100 time=0.021739124999999998
EXTRACT: note_off channel=5 note=57 velocity=64 time=0.23913037499999998
EXTRACT: note_on channel=5 note=64 velocity=100 time=0.021739124999999998
EXTRACT: note_off channel=5 note=64 velocity=64 time=0.23913037499999998
EXTRACT: note_on channel=5 note=60 velocity=100 time=0.021739124999999998
EXTRACT: note_off channel=5 note=60 velocity=64 time=0.23913037499999998
EXTRACT: note_on channel=5 note=57 velocity=100 time=0.021739124999999998
EXTRACT: note_off channel=5 note=57 velocity=64 time=0.23913037499999998
EXTRACT: note_on channel=5 note=64 velocity=100 time=0.021739124999999998
EXTRACT: note_off channel=5 note=64 velocity=64 time=0.23913037499999998
EXTRACT: note_on channel=5 note=60 velocity=100 time=0.021739124999999998
EXTRACT: note_off channel=5 note=60 velocity=64 time=0.23913037499999998
EXTRACT: note_on channel=5 note=64 velocity=100 time=0.021739124999999998
EXTRACT: note_off channel=5 note=64 velocity=64 time=0.23913037499999998
EXTRACT: note_on channel=5 note=60 velocity=100 time=0.021739124999999998
EXTRACT: note_off channel=5 note=60 velocity=64 time=0.23913037499999998
EXTRACT: note_on channel=5 note=57 velocity=100 time=0.021739124999999998
EXTRACT: note_off channel=5 note=57 velocity=64 time=0.23913037499999998
EXTRACT: note_on channel=5 note=64 velocity=100 time=0.021739124999999998
EXTRACT: note_off channel=5 note=64 velocity=64 time=0.23913037499999998
EXTRACT: note_on channel=5 note=60 velocity=100 time=0.021739124999999998
EXTRACT: note_off channel=5 note=60 velocity=64 time=0.23913037499999998
EXTRACT: note_on channel=5 note=57 velocity=100 time=0.021739124999999998
EXTRACT: note_off channel=5 note=57 velocity=64 time=0.23913037499999998
EXTRACT: note_on channel=5 note=64 velocity=100 time=0.021739124999999998
EXTRACT: note_off channel=5 note=64 velocity=64 time=0.23913037499999998
EXTRACT: note_on channel=5 note=60 velocity=100 time=0.021739124999999998
EXTRACT: note_off channel=4 note=52 velocity=64 time=0.23913037499999998
EXTRACT: note_off channel=4 note=57 velocity=64 time=0
EXTRACT: note_off channel=5 note=60 velocity=64 time=0
EXTRACT: note_on channel=4 note=57 velocity=100 time=0.021739124999999998
EXTRACT: note_on channel=4 note=50 velocity=100 time=0
EXTRACT: note_on channel=5 note=65 velocity=100 time=0
EXTRACT: note_on channel=6 note=77 velocity=100 time=0
EXTRACT: note_off channel=5 note=65 velocity=64 time=0.23913037499999998
EXTRACT: note_off channel=6 note=77 velocity=64 time=0
EXTRACT: note_on channel=5 note=62 velocity=100 time=0.021739124999999998
EXTRACT: note_on channel=6 note=77 velocity=100 time=0
EXTRACT: note_off channel=5 note=62 velocity=64 time=0.23913037499999998
EXTRACT: note_off channel=6 note=77 velocity=64 time=0
EXTRACT: note_on channel=5 note=57 velocity=100 time=0.021739124999999998
EXTRACT: note_on channel=6 note=69 velocity=100 time=0
EXTRACT: note_off channel=5 note=57 velocity=64 time=0.23913037499999998
EXTRACT: note_off channel=6 note=69 velocity=64 time=0
EXTRACT: note_on channel=5 note=65 velocity=100 time=0.021739124999999998
EXTRACT: note_off channel=5 note=65 velocity=64 time=0.23913037499999998
EXTRACT: note_on channel=5 note=62 velocity=100 time=0.021739124999999998
EXTRACT: note_on channel=6 note=77 velocity=100 time=0
EXTRACT: note_off channel=5 note=62 velocity=64 time=0.23913037499999998
EXTRACT: note_off channel=6 note=77 velocity=64 time=0
EXTRACT: note_on channel=5 note=57 velocity=100 time=0.021739124999999998
EXTRACT: note_on channel=6 note=77 velocity=100 time=0
EXTRACT: note_off channel=5 note=57 velocity=64 time=0.23913037499999998
EXTRACT: note_off channel=6 note=77 velocity=64 time=0
EXTRACT: note_on channel=5 note=65 velocity=100 time=0.021739124999999998
EXTRACT: note_on channel=6 note=69 velocity=100 time=0
EXTRACT: note_off channel=5 note=65 velocity=64 time=0.23913037499999998
EXTRACT: note_off channel=6 note=69 velocity=64 time=0
EXTRACT: note_on channel=5 note=62 velocity=100 time=0.021739124999999998
EXTRACT: note_off channel=5 note=62 velocity=64 time=0.23913037499999998
EXTRACT: note_on channel=5 note=65 velocity=100 time=0.021739124999999998
EXTRACT: note_on channel=6 note=77 velocity=100 time=0
EXTRACT: note_off channel=5 note=65 velocity=64 time=0.23913037499999998
EXTRACT: note_off channel=6 note=77 velocity=64 time=0
EXTRACT: note_on channel=5 note=62 velocity=100 time=0.021739124999999998
EXTRACT: note_on channel=6 note=77 velocity=100 time=0
EXTRACT: note_off channel=5 note=62 velocity=64 time=0.23913037499999998
EXTRACT: note_off channel=6 note=77 velocity=64 time=0
EXTRACT: note_on channel=5 note=57 velocity=100 time=0.021739124999999998
EXTRACT: note_on channel=6 note=77 velocity=100 time=0
EXTRACT: note_off channel=5 note=57 velocity=64 time=0.23913037499999998
EXTRACT: note_off channel=6 note=77 velocity=64 time=0
EXTRACT: note_on channel=5 note=65 velocity=100 time=0.021739124999999998
EXTRACT: note_on channel=6 note=77 velocity=100 time=0
EXTRACT: note_off channel=5 note=65 velocity=64 time=0.23913037499999998
EXTRACT: note_off channel=6 note=77 velocity=64 time=0
EXTRACT: note_on channel=5 note=62 velocity=100 time=0.021739124999999998
EXTRACT: note_on channel=6 note=77 velocity=100 time=0
EXTRACT: note_off channel=5 note=62 velocity=64 time=0.23913037499999998
EXTRACT: note_off channel=6 note=77 velocity=64 time=0
EXTRACT: note_on channel=5 note=57 velocity=100 time=0.021739124999999998
EXTRACT: note_off channel=5 note=57 velocity=64 time=0.23913037499999998
EXTRACT: note_on channel=5 note=65 velocity=100 time=0.021739124999999998
EXTRACT: note_on channel=6 note=79 velocity=100 time=0
EXTRACT: note_off channel=5 note=65 velocity=64 time=0.23913037499999998
EXTRACT: note_on channel=5 note=67 velocity=100 time=0.021739124999999998
EXTRACT: note_off channel=4 note=50 velocity=64 time=0.23913037499999998
EXTRACT: note_off channel=4 note=57 velocity=64 time=0
EXTRACT: note_off channel=5 note=67 velocity=64 time=0
EXTRACT: note_off channel=6 note=79 velocity=64 time=0
EXTRACT: note_on channel=4 note=57 velocity=100 time=0.021739124999999998
EXTRACT: note_on channel=4 note=52 velocity=100 time=0
EXTRACT: note_on channel=5 note=64 velocity=100 time=0
EXTRACT: note_on channel=6 note=76 velocity=100 time=0
EXTRACT: note_off channel=5 note=64 velocity=64 time=0.23913037499999998
EXTRACT: note_off channel=6 note=76 velocity=64 time=0
EXTRACT: note_on channel=5 note=60 velocity=100 time=0.021739124999999998
EXTRACT: note_on channel=6 note=74 velocity=100 time=0
EXTRACT: note_off channel=5 note=60 velocity=64 time=0.23913037499999998
EXTRACT: note_off channel=6 note=74 velocity=64 time=0
EXTRACT: note_on channel=5 note=57 velocity=100 time=0.021739124999999998
EXTRACT: note_on channel=6 note=76 velocity=100 time=0
EXTRACT: note_off channel=5 note=57 velocity=64 time=0.23913037499999998
EXTRACT: note_off channel=6 note=76 velocity=64 time=0
EXTRACT: note_on channel=5 note=64 velocity=100 time=0.021739124999999998
EXTRACT: note_on channel=6 note=74 velocity=100 time=0
EXTRACT: note_off channel=5 note=64 velocity=64 time=0.23913037499999998
EXTRACT: note_off channel=6 note=74 velocity=64 time=0
EXTRACT: note_on channel=5 note=60 velocity=100 time=0.021739124999999998
EXTRACT: note_on channel=6 note=76 velocity=100 time=0
EXTRACT: note_off channel=5 note=60 velocity=64 time=0.23913037499999998
EXTRACT: note_off channel=6 note=76 velocity=64 time=0
EXTRACT: note_on channel=5 note=57 velocity=100 time=0.021739124999999998
EXTRACT: note_on channel=6 note=74 velocity=100 time=0
EXTRACT: note_off channel=5 note=57 velocity=64 time=0.23913037499999998
EXTRACT: note_off channel=6 note=74 velocity=64 time=0
EXTRACT: note_on channel=5 note=64 velocity=100 time=0.021739124999999998
EXTRACT: note_on channel=6 note=76 velocity=100 time=0
EXTRACT: note_off channel=5 note=64 velocity=64 time=0.23913037499999998
EXTRACT: note_off channel=6 note=76 velocity=64 time=0
EXTRACT: note_on channel=5 note=60 velocity=100 time=0.021739124999999998
EXTRACT: note_on channel=6 note=74 velocity=100 time=0
EXTRACT: note_off channel=5 note=60 velocity=64 time=0.23913037499999998
EXTRACT: note_off channel=6 note=74 velocity=64 time=0
EXTRACT: note_on channel=5 note=64 velocity=100 time=0.021739124999999998
EXTRACT: note_on channel=6 note=76 velocity=100 time=0
EXTRACT: note_off channel=5 note=64 velocity=64 time=0.23913037499999998
EXTRACT: note_off channel=6 note=76 velocity=64 time=0
EXTRACT: note_on channel=5 note=60 velocity=100 time=0.021739124999999998
EXTRACT: note_on channel=6 note=69 velocity=100 time=0
EXTRACT: note_off channel=5 note=60 velocity=64 time=0.23913037499999998
EXTRACT: note_off channel=6 note=69 velocity=64 time=0
EXTRACT: note_on channel=5 note=57 velocity=100 time=0.021739124999999998
EXTRACT: note_on channel=6 note=69 velocity=100 time=0
EXTRACT: note_off channel=5 note=57 velocity=64 time=0.23913037499999998
EXTRACT: note_on channel=5 note=64 velocity=100 time=0.021739124999999998
EXTRACT: note_off channel=5 note=64 velocity=64 time=0.23913037499999998
EXTRACT: note_off channel=6 note=69 velocity=64 time=0
EXTRACT: note_on channel=5 note=60 velocity=100 time=0.021739124999999998
EXTRACT: note_off channel=5 note=60 velocity=64 time=0.23913037499999998
EXTRACT: note_on channel=5 note=57 velocity=100 time=0.021739124999999998
EXTRACT: note_off channel=5 note=57 velocity=64 time=0.23913037499999998
EXTRACT: note_on channel=5 note=64 velocity=100 time=0.021739124999999998
EXTRACT: note_off channel=5 note=64 velocity=64 time=0.23913037499999998
EXTRACT: note_on channel=5 note=60 velocity=100 time=0.021739124999999998
EXTRACT: note_off channel=4 note=52 velocity=64 time=0.23913037499999998
EXTRACT: note_off channel=4 note=57 velocity=64 time=0
EXTRACT: note_off channel=5 note=60 velocity=64 time=0
EXTRACT: note_on channel=6 note=77 velocity=100 time=0.021739124999999998
EXTRACT: note_off channel=6 note=77 velocity=64 time=0.23913037499999998
EXTRACT: note_on channel=6 note=77 velocity=100 time=0.021739124999999998
EXTRACT: note_off channel=6 note=77 velocity=64 time=0.23913037499999998
EXTRACT: note_on channel=6 note=69 velocity=100 time=0.021739124999999998
EXTRACT: note_off channel=6 note=69 velocity=64 time=0.23913037499999998
EXTRACT: note_on channel=6 note=77 velocity=100 time=0.28260862499999995
EXTRACT: note_off channel=6 note=77 velocity=64 time=0.23913037499999998
EXTRACT: note_on channel=6 note=77 velocity=100 time=0.021739124999999998
EXTRACT: note_off channel=6 note=77 velocity=64 time=0.23913037499999998
EXTRACT: note_on channel=6 note=69 velocity=100 time=0.021739124999999998
EXTRACT: note_off channel=6 note=69 velocity=64 time=0.23913037499999998
EXTRACT: control_change channel=1 control=101 value=0 time=0.28260862499999995
EXTRACT: control_change channel=1 control=100 value=0 time=0
EXTRACT: control_change channel=1 control=6 value=12 time=0
EXTRACT: control_change channel=1 control=10 value=64 time=0
EXTRACT: control_change channel=1 control=7 value=79 time=0
EXTRACT: pitchwheel channel=1 pitch=0 time=0
EXTRACT: program_change channel=1 program=48 time=0
EXTRACT: control_change channel=2 control=101 value=0 time=0
EXTRACT: control_change channel=2 control=100 value=0 time=0
EXTRACT: control_change channel=2 control=6 value=12 time=0
EXTRACT: control_change channel=2 control=10 value=64 time=0
EXTRACT: control_change channel=2 control=7 value=107 time=0
EXTRACT: pitchwheel channel=2 pitch=0 time=0
EXTRACT: program_change channel=2 program=35 time=0
EXTRACT: control_change channel=9 control=101 value=0 time=0
EXTRACT: control_change channel=9 control=100 value=0 time=0
EXTRACT: control_change channel=9 control=6 value=12 time=0
EXTRACT: control_change channel=9 control=10 value=64 time=0
EXTRACT: control_change channel=9 control=7 value=100 time=0
EXTRACT: pitchwheel channel=9 pitch=0 time=0
EXTRACT: program_change channel=9 program=0 time=0
EXTRACT: control_change channel=4 control=101 value=0 time=0
EXTRACT: control_change channel=4 control=100 value=0 time=0
EXTRACT: control_change channel=4 control=6 value=12 time=0
EXTRACT: control_change channel=4 control=10 value=64 time=0
EXTRACT: control_change channel=4 control=7 value=100 time=0
EXTRACT: pitchwheel channel=4 pitch=0 time=0
EXTRACT: program_change channel=4 program=16 time=0
EXTRACT: control_change channel=5 control=101 value=0 time=0
EXTRACT: control_change channel=5 control=100 value=0 time=0
EXTRACT: control_change channel=5 control=6 value=12 time=0
EXTRACT: control_change channel=5 control=10 value=64 time=0
EXTRACT: control_change channel=5 control=7 value=100 time=0
EXTRACT: pitchwheel channel=5 pitch=0 time=0
EXTRACT: program_change channel=5 program=0 time=0
EXTRACT: control_change channel=6 control=101 value=0 time=0
EXTRACT: control_change channel=6 control=100 value=0 time=0
EXTRACT: control_change channel=6 control=6 value=12 time=0
EXTRACT: control_change channel=6 control=10 value=64 time=0
EXTRACT: control_change channel=6 control=7 value=100 time=0
EXTRACT: pitchwheel channel=6 pitch=0 time=0
EXTRACT: program_change channel=6 program=0 time=0
EXTRACT: control_change channel=1 control=101 value=0 time=0.0054347812499999995
EXTRACT: control_change channel=1 control=100 value=0 time=0
EXTRACT: control_change channel=1 control=6 value=12 time=0
EXTRACT: control_change channel=1 control=10 value=64 time=0
EXTRACT: control_change channel=1 control=7 value=79 time=0
EXTRACT: pitchwheel channel=1 pitch=0 time=0
EXTRACT: program_change channel=1 program=48 time=0
EXTRACT: control_change channel=1 control=101 value=0 time=0
EXTRACT: control_change channel=1 control=100 value=0 time=0
EXTRACT: control_change channel=1 control=6 value=12 time=0
EXTRACT: control_change channel=1 control=10 value=64 time=0
EXTRACT: control_change channel=1 control=7 value=79 time=0
EXTRACT: pitchwheel channel=1 pitch=0 time=0
EXTRACT: program_change channel=1 program=48 time=0
EXTRACT: control_change channel=2 control=101 value=0 time=0
EXTRACT: control_change channel=2 control=100 value=0 time=0
EXTRACT: control_change channel=2 control=6 value=12 time=0
EXTRACT: control_change channel=2 control=10 value=64 time=0
EXTRACT: control_change channel=2 control=7 value=107 time=0
EXTRACT: pitchwheel channel=2 pitch=0 time=0
EXTRACT: program_change channel=2 program=35 time=0
EXTRACT: control_change channel=2 control=101 value=0 time=0
EXTRACT: control_change channel=2 control=100 value=0 time=0
EXTRACT: control_change channel=2 control=6 value=12 time=0
EXTRACT: control_change channel=2 control=10 value=64 time=0
EXTRACT: control_change channel=2 control=7 value=107 time=0
EXTRACT: pitchwheel channel=2 pitch=0 time=0
EXTRACT: program_change channel=2 program=35 time=0
EXTRACT: control_change channel=9 control=101 value=0 time=0
EXTRACT: control_change channel=9 control=100 value=0 time=0
EXTRACT: control_change channel=9 control=6 value=12 time=0
EXTRACT: control_change channel=9 control=10 value=64 time=0
EXTRACT: control_change channel=9 control=7 value=100 time=0
EXTRACT: pitchwheel channel=9 pitch=0 time=0
EXTRACT: program_change channel=9 program=0 time=0
EXTRACT: control_change channel=9 control=101 value=0 time=0
EXTRACT: control_change channel=9 control=100 value=0 time=0
EXTRACT: control_change channel=9 control=6 value=12 time=0
EXTRACT: control_change channel=9 control=10 value=64 time=0
EXTRACT: control_change channel=9 control=7 value=100 time=0
EXTRACT: pitchwheel channel=9 pitch=0 time=0
EXTRACT: program_change channel=9 program=0 time=0
EXTRACT: control_change channel=4 control=101 value=0 time=0
EXTRACT: control_change channel=4 control=100 value=0 time=0
EXTRACT: control_change channel=4 control=6 value=12 time=0
EXTRACT: control_change channel=4 control=10 value=64 time=0
EXTRACT: control_change channel=4 control=7 value=100 time=0
EXTRACT: pitchwheel channel=4 pitch=0 time=0
EXTRACT: program_change channel=4 program=16 time=0
EXTRACT: control_change channel=4 control=101 value=0 time=0
EXTRACT: control_change channel=4 control=100 value=0 time=0
EXTRACT: control_change channel=4 control=6 value=12 time=0
EXTRACT: control_change channel=4 control=10 value=64 time=0
EXTRACT: control_change channel=4 control=7 value=100 time=0
EXTRACT: pitchwheel channel=4 pitch=0 time=0
EXTRACT: program_change channel=4 program=16 time=0
EXTRACT: control_change channel=5 control=101 value=0 time=0
EXTRACT: control_change channel=5 control=100 value=0 time=0
EXTRACT: control_change channel=5 control=6 value=12 time=0
EXTRACT: control_change channel=5 control=10 value=64 time=0
EXTRACT: control_change channel=5 control=7 value=100 time=0
EXTRACT: pitchwheel channel=5 pitch=0 time=0
EXTRACT: program_change channel=5 program=0 time=0
EXTRACT: control_change channel=5 control=101 value=0 time=0
EXTRACT: control_change channel=5 control=100 value=0 time=0
EXTRACT: control_change channel=5 control=6 value=12 time=0
EXTRACT: control_change channel=5 control=10 value=64 time=0
EXTRACT: control_change channel=5 control=7 value=100 time=0
EXTRACT: pitchwheel channel=5 pitch=0 time=0
EXTRACT: program_change channel=5 program=0 time=0
EXTRACT: control_change channel=6 control=101 value=0 time=0
EXTRACT: control_change channel=6 control=100 value=0 time=0
EXTRACT: control_change channel=6 control=6 value=12 time=0
EXTRACT: control_change channel=6 control=10 value=64 time=0
EXTRACT: control_change channel=6 control=7 value=100 time=0
EXTRACT: pitchwheel channel=6 pitch=0 time=0
EXTRACT: program_change channel=6 program=0 time=0
EXTRACT: control_change channel=6 control=101 value=0 time=0
EXTRACT: control_change channel=6 control=100 value=0 time=0
EXTRACT: control_change channel=6 control=6 value=12 time=0
EXTRACT: control_change channel=6 control=10 value=64 time=0
EXTRACT: control_change channel=6 control=7 value=100 time=0
EXTRACT: pitchwheel channel=6 pitch=0 time=0
EXTRACT: program_change channel=6 program=0 time=0
