EXTRACT: sysex data=(126,127,9,1) time=0
EXTRACT: sysex data=(65,16,66,18,64,0,127,0,65) time=0.10447756666666666
EXTRACT: sysex data=(65,16,66,18,64,1,52,93,46) time=0.11567159166666666
EXTRACT: control_change channel=3 control=121 value=0 time=0.6753728416666666
EXTRACT: control_change channel=4 control=121 value=0 time=0
EXTRACT: control_change channel=15 control=121 value=0 time=0
EXTRACT: control_change channel=2 control=121 value=0 time=0.1473879958333333
EXTRACT: pitchwheel channel=15 pitch=0 time=0.0895522
EXTRACT: control_change channel=15 control=11 value=127 time=0.09328354166666666
EXTRACT: control_change channel=15 control=7 value=100 time=0.02985073333333333
EXTRACT: control_change channel=2 control=32 value=0 time=0.0018656708333333332
EXTRACT: control_change channel=2 control=0 value=0 time=0
EXTRACT: control_change channel=15 control=10 value=64 time=0.016791037499999998
EXTRACT: control_change channel=15 control=91 value=0 time=0.024253720833333332
EXTRACT: control_change channel=3 control=32 value=0 time=0.026119391666666665
EXTRACT: control_change channel=3 control=0 value=0 time=0
EXTRACT: control_change channel=4 control=32 value=0 time=0
EXTRACT: control_change channel=4 control=0 value=0 time=0
EXTRACT: control_change channel=15 control=93 value=0 time=0.0037313416666666663
EXTRACT: program_change channel=2 program=0 time=0.11753726249999999
EXTRACT: control_change channel=2 control=7 value=100 time=0.09328354166666666
EXTRACT: program_change channel=3 program=73 time=0.011194025
EXTRACT: program_change channel=4 program=52 time=0
EXTRACT: control_change channel=9 control=121 value=0 time=0.016791037499999998
EXTRACT: control_change channel=9 control=93 value=24 time=0.01865670833333333
EXTRACT: control_change channel=9 control=91 value=48 time=0.009328354166666665
EXTRACT: control_change channel=9 control=11 value=127 time=0.009328354166666665
EXTRACT: control_change channel=9 control=7 value=103 time=0.009328354166666665
EXTRACT: control_change channel=3 control=7 value=109 time=0.009328354166666665
EXTRACT: control_change channel=4 control=7 value=100 time=0
EXTRACT: pitchwheel channel=9 pitch=0 time=0
EXTRACT: control_change channel=2 control=10 value=54 time=0.0037313416666666663
EXTRACT: program_change channel=9 program=0 time=0.014925366666666665
EXTRACT: control_change channel=2 control=11 value=127 time=0.055970124999999996
EXTRACT: control_change channel=3 control=10 value=64 time=0.013059695833333333
EXTRACT: control_change channel=4 control=10 value=64 time=0
EXTRACT: control_change channel=2 control=91 value=80 time=0.033582074999999996
EXTRACT: control_change channel=3 control=11 value=127 time=0.03731341666666666
EXTRACT: control_change channel=4 control=11 value=127 time=0
EXTRACT: control_change channel=2 control=93 value=0 time=0.02238805
EXTRACT: control_change channel=3 control=91 value=80 time=0.024253720833333332
EXTRACT: control_change channel=4 control=91 value=80 time=0
EXTRACT: control_change channel=2 control=94 value=0 time=0.0503731125
EXTRACT: control_change channel=3 control=93 value=0 time=0.009328354166666665
EXTRACT: control_change channel=4 control=93 value=0 time=0
EXTRACT: control_change channel=3 control=94 value=0 time=0.07462683333333332
EXTRACT: control_change channel=4 control=94 value=0 time=0
EXTRACT: note_on channel=9 note=42 velocity=87 time=1.6194022833333332
EXTRACT: note_on channel=9 note=42 velocity=0 time=0.16044769166666664
EXTRACT: note_on channel=9 note=42 velocity=75 time=0.7350743083333333
EXTRACT: note_on channel=9 note=42 velocity=0 time=0.17350738749999997
EXTRACT: note_on channel=9 note=42 velocity=87 time=0.7220146125
EXTRACT: note_on channel=9 note=42 velocity=0 time=0.16044769166666664
EXTRACT: note_on channel=9 note=42 velocity=75 time=0.7350743083333333
EXTRACT: note_on channel=9 note=42 velocity=0 time=0.17350738749999997
EXTRACT: note_on channel=2 note=45 velocity=67 time=0.7220146125
EXTRACT: note_on channel=2 note=52 velocity=67 time=0
EXTRACT: note_on channel=2 note=57 velocity=67 time=0
EXTRACT: note_on channel=2 note=61 velocity=67 time=0.22388049999999998
EXTRACT: control_change channel=2 control=64 value=127 time=0.12686561666666665
EXTRACT: note_on channel=2 note=64 velocity=71 time=0.09701488333333333
EXTRACT: note_on channel=2 note=61 velocity=0 time=0.03171640416666666
EXTRACT: note_on channel=2 note=57 velocity=0 time=0.09141787083333333
EXTRACT: note_on channel=2 note=61 velocity=71 time=0.100746225
EXTRACT: note_on channel=2 note=64 velocity=0 time=0.020522379166666663
EXTRACT: note_on channel=2 note=61 velocity=0 time=0.18843275416666666
EXTRACT: note_on channel=2 note=57 velocity=69 time=0.014925366666666665
EXTRACT: note_on channel=2 note=61 velocity=70 time=0.22388049999999998
EXTRACT: note_on channel=2 note=61 velocity=0 time=0.22014915833333332
EXTRACT: note_on channel=2 note=64 velocity=65 time=0.0037313416666666663
EXTRACT: note_on channel=2 note=57 velocity=0 time=0.007462683333333333
EXTRACT: note_on channel=2 note=61 velocity=70 time=0.21641781666666665
EXTRACT: note_on channel=2 note=64 velocity=0 time=0.03171640416666666
EXTRACT: note_on channel=2 note=61 velocity=0 time=0.1791044
EXTRACT: note_on channel=2 note=57 velocity=71 time=0.013059695833333333
EXTRACT: note_on channel=2 note=61 velocity=70 time=0.22388049999999998
EXTRACT: note_on channel=2 note=61 velocity=0 time=0.20149245
EXTRACT: note_on channel=2 note=64 velocity=67 time=0.02238805
EXTRACT: note_on channel=2 note=57 velocity=0 time=0.09888055416666666
EXTRACT: note_on channel=2 note=61 velocity=70 time=0.12499994583333332
EXTRACT: note_on channel=2 note=64 velocity=0 time=0.01865670833333333
EXTRACT: note_on channel=2 note=61 velocity=0 time=0.18843275416666666
EXTRACT: note_on channel=2 note=57 velocity=69 time=0.016791037499999998
EXTRACT: note_on channel=2 note=61 velocity=70 time=0.22388049999999998
EXTRACT: note_on channel=2 note=45 velocity=0 time=0.16604470416666664
EXTRACT: note_on channel=2 note=57 velocity=0 time=0.014925366666666665
EXTRACT: note_on channel=2 note=61 velocity=0 time=0.016791037499999998
EXTRACT: note_on channel=2 note=64 velocity=65 time=0.026119391666666665
EXTRACT: note_on channel=2 note=52 velocity=0 time=0.0037313416666666663
EXTRACT: note_on channel=2 note=64 velocity=0 time=0.18843275416666666
EXTRACT: note_on channel=2 note=61 velocity=68 time=0.03171640416666666
EXTRACT: note_on channel=2 note=61 velocity=0 time=0.1529850083333333
EXTRACT: note_on channel=2 note=44 velocity=71 time=0.07089549166666666
EXTRACT: note_on channel=2 note=52 velocity=71 time=0
EXTRACT: note_on channel=2 note=56 velocity=71 time=0
EXTRACT: control_change channel=2 control=64 value=0 time=0.02238805
EXTRACT: note_on channel=2 note=61 velocity=65 time=0.20149245
EXTRACT: control_change channel=2 control=64 value=127 time=0.07462683333333332
EXTRACT: note_on channel=2 note=61 velocity=0 time=0.14925366666666665
EXTRACT: note_on channel=2 note=64 velocity=71 time=0
EXTRACT: note_on channel=2 note=61 velocity=65 time=0.22388049999999998
EXTRACT: note_on channel=2 note=64 velocity=0 time=0.011194025
EXTRACT: note_on channel=2 note=56 velocity=0 time=0
EXTRACT: note_on channel=2 note=61 velocity=0 time=0.19962677916666666
EXTRACT: note_on channel=2 note=56 velocity=72 time=0.013059695833333333
EXTRACT: note_on channel=2 note=61 velocity=69 time=0.22388049999999998
EXTRACT: note_on channel=2 note=61 velocity=0 time=0.19216409583333333
EXTRACT: note_on channel=2 note=64 velocity=69 time=0.03171640416666666
EXTRACT: note_on channel=2 note=56 velocity=0 time=0.04664177083333333
EXTRACT: note_on channel=2 note=61 velocity=68 time=0.17723872916666664
EXTRACT: note_on channel=2 note=64 velocity=0 time=0.0037313416666666663
EXTRACT: note_on channel=2 note=61 velocity=0 time=0.19776110833333332
EXTRACT: note_on channel=2 note=56 velocity=70 time=0.02238805
EXTRACT: note_on channel=2 note=61 velocity=68 time=0.22388049999999998
EXTRACT: note_on channel=2 note=61 velocity=0 time=0.19776110833333332
EXTRACT: note_on channel=2 note=64 velocity=71 time=0.026119391666666665
EXTRACT: note_on channel=2 note=56 velocity=0 time=0.08395518749999999
EXTRACT: note_on channel=2 note=61 velocity=66 time=0.13992531249999998
EXTRACT: note_on channel=2 note=64 velocity=0 time=0.03171640416666666
EXTRACT: note_on channel=2 note=61 velocity=0 time=0.1585820208333333
EXTRACT: note_on channel=2 note=56 velocity=72 time=0.033582074999999996
EXTRACT: note_on channel=2 note=61 velocity=68 time=0.22388049999999998
EXTRACT: note_on channel=2 note=61 velocity=0 time=0.1753730583333333
EXTRACT: note_on channel=2 note=64 velocity=71 time=0.048507441666666665
EXTRACT: note_on channel=2 note=44 velocity=0 time=0.05223878333333333
EXTRACT: note_on channel=2 note=52 velocity=0 time=0.05783579583333333
EXTRACT: note_on channel=2 note=56 velocity=0 time=0.039179087499999994
EXTRACT: note_on channel=2 note=61 velocity=67 time=0.07462683333333332
EXTRACT: note_on channel=2 note=64 velocity=0 time=0.016791037499999998
EXTRACT: note_on channel=2 note=61 velocity=0 time=0.16791037499999997
EXTRACT: note_on channel=2 note=42 velocity=72 time=0.039179087499999994
EXTRACT: note_on channel=2 note=49 velocity=72 time=0
EXTRACT: note_on channel=2 note=54 velocity=72 time=0
EXTRACT: control_change channel=2 control=64 value=0 time=0.05410445416666666
EXTRACT: note_on channel=2 note=61 velocity=68 time=0.1697760458333333
EXTRACT: control_change channel=2 control=64 value=127 time=0.10447756666666666
EXTRACT: note_on channel=2 note=61 velocity=0 time=0.03544774583333333
EXTRACT: note_on channel=2 note=66 velocity=75 time=0.08395518749999999
EXTRACT: note_on channel=2 note=54 velocity=0 time=0.100746225
EXTRACT: note_on channel=2 note=61 velocity=75 time=0.12313427499999999
EXTRACT: note_on channel=2 note=66 velocity=0 time=0.0037313416666666663
EXTRACT: note_on channel=2 note=61 velocity=0 time=0.20149245
EXTRACT: note_on channel=2 note=54 velocity=75 time=0.01865670833333333
EXTRACT: note_on channel=2 note=61 velocity=73 time=0.22388049999999998
EXTRACT: note_on channel=2 note=54 velocity=0 time=0.04104475833333333
EXTRACT: note_on channel=2 note=66 velocity=68 time=0.18283574166666666
EXTRACT: note_on channel=2 note=61 velocity=0 time=0.026119391666666665
EXTRACT: note_on channel=2 note=61 velocity=69 time=0.19776110833333332
EXTRACT: note_on channel=2 note=66 velocity=0 time=0.027985062499999998
EXTRACT: note_on channel=2 note=61 velocity=0 time=0.1847014125
EXTRACT: note_on channel=2 note=54 velocity=68 time=0.011194025
EXTRACT: note_on channel=2 note=61 velocity=68 time=0.22388049999999998
EXTRACT: note_on channel=2 note=54 velocity=0 time=0.04104475833333333
EXTRACT: note_on channel=2 note=61 velocity=0 time=0.16791037499999997
EXTRACT: note_on channel=2 note=66 velocity=68 time=0.014925366666666665
EXTRACT: note_on channel=2 note=61 velocity=73 time=0.22388049999999998
EXTRACT: note_on channel=2 note=66 velocity=0 time=0.016791037499999998
EXTRACT: note_on channel=2 note=61 velocity=0 time=0.15671634999999998
EXTRACT: note_on channel=2 note=54 velocity=73 time=0.0503731125
EXTRACT: note_on channel=2 note=61 velocity=75 time=0.22388049999999998
EXTRACT: note_on channel=2 note=49 velocity=0 time=0.1529850083333333
EXTRACT: note_on channel=2 note=61 velocity=0 time=0.0018656708333333332
EXTRACT: note_on channel=2 note=42 velocity=0 time=0.01865670833333333
EXTRACT: note_on channel=2 note=66 velocity=75 time=0.0503731125
EXTRACT: note_on channel=2 note=54 velocity=0 time=0.08768652916666665
EXTRACT: note_on channel=2 note=61 velocity=78 time=0.13619397083333332
EXTRACT: note_on channel=2 note=66 velocity=0 time=0.013059695833333333
EXTRACT: note_on channel=2 note=61 velocity=0 time=0.19962677916666666
EXTRACT: note_on channel=2 note=38 velocity=76 time=0.011194025
EXTRACT: note_on channel=2 note=45 velocity=76 time=0
EXTRACT: note_on channel=2 note=50 velocity=76 time=0
EXTRACT: note_on channel=2 note=57 velocity=76 time=0
EXTRACT: control_change channel=2 control=64 value=0 time=0.033582074999999996
EXTRACT: note_on channel=2 note=62 velocity=75 time=0.190298425
EXTRACT: control_change channel=2 control=64 value=127 time=0.09888055416666666
EXTRACT: note_on channel=2 note=66 velocity=74 time=0.12499994583333332
EXTRACT: note_on channel=2 note=62 velocity=0 time=0.04664177083333333
EXTRACT: note_on channel=2 note=57 velocity=0 time=0.17723872916666664
EXTRACT: note_on channel=2 note=62 velocity=74 time=0
EXTRACT: note_on channel=2 note=66 velocity=0 time=0.011194025
EXTRACT: note_on channel=2 note=57 velocity=75 time=0.21268647499999999
EXTRACT: note_on channel=2 note=62 velocity=0 time=0.0055970125
EXTRACT: note_on channel=2 note=62 velocity=79 time=0.21828348749999998
EXTRACT: note_on channel=2 note=57 velocity=0 time=0.22014915833333332
EXTRACT: note_on channel=2 note=66 velocity=76 time=0.0037313416666666663
EXTRACT: note_on channel=2 note=62 velocity=0 time=0.01865670833333333
EXTRACT: note_on channel=2 note=62 velocity=76 time=0.20522379166666666
EXTRACT: note_on channel=2 note=66 velocity=0 time=0.016791037499999998
EXTRACT: note_on channel=2 note=62 velocity=0 time=0.18843275416666666
EXTRACT: note_on channel=2 note=57 velocity=76 time=0.01865670833333333
EXTRACT: note_on channel=2 note=62 velocity=76 time=0.22388049999999998
EXTRACT: note_on channel=2 note=57 velocity=0 time=0.027985062499999998
EXTRACT: note_on channel=2 note=62 velocity=0 time=0.17723872916666664
EXTRACT: note_on channel=2 note=66 velocity=75 time=0.01865670833333333
EXTRACT: note_on channel=2 note=62 velocity=75 time=0.22388049999999998
EXTRACT: note_on channel=2 note=66 velocity=0 time=0.016791037499999998
EXTRACT: pitchwheel channel=3 pitch=-4329 time=0.19402976666666666
EXTRACT: pitchwheel channel=3 pitch=-4174 time=0.0037313416666666663
EXTRACT: note_on channel=2 note=62 velocity=0 time=0.009328354166666665
EXTRACT: note_on channel=2 note=57 velocity=72 time=0
EXTRACT: note_on channel=3 note=76 velocity=90 time=0
EXTRACT: pitchwheel channel=3 pitch=-4174 time=0.020522379166666663
EXTRACT: pitchwheel channel=3 pitch=-4174 time=0.013059695833333333
EXTRACT: pitchwheel channel=3 pitch=-4019 time=0.007462683333333333
EXTRACT: pitchwheel channel=3 pitch=-4019 time=0.0037313416666666663
EXTRACT: pitchwheel channel=3 pitch=-4019 time=0.011194025
EXTRACT: pitchwheel channel=3 pitch=-3865 time=0.007462683333333333
EXTRACT: pitchwheel channel=3 pitch=-3865 time=0.0018656708333333332
EXTRACT: pitchwheel channel=3 pitch=-3865 time=0.0055970125
EXTRACT: pitchwheel channel=3 pitch=-3865 time=0.0055970125
EXTRACT: pitchwheel channel=3 pitch=-3710 time=0.0018656708333333332
EXTRACT: pitchwheel channel=3 pitch=-3710 time=0.0055970125
EXTRACT: pitchwheel channel=3 pitch=-3710 time=0.0055970125
EXTRACT: pitchwheel channel=3 pitch=-3556 time=0.0037313416666666663
EXTRACT: pitchwheel channel=3 pitch=-3556 time=0.0018656708333333332
EXTRACT: pitchwheel channel=3 pitch=-3556 time=0.007462683333333333
EXTRACT: pitchwheel channel=3 pitch=-3401 time=0.0018656708333333332
EXTRACT: pitchwheel channel=3 pitch=-3401 time=0.0037313416666666663
EXTRACT: pitchwheel channel=3 pitch=-3401 time=0.0037313416666666663
EXTRACT: pitchwheel channel=3 pitch=-3247 time=0.0055970125
EXTRACT: pitchwheel channel=3 pitch=-3247 time=0
EXTRACT: pitchwheel channel=3 pitch=-3247 time=0.0037313416666666663
EXTRACT: pitchwheel channel=3 pitch=-3092 time=0.0055970125
EXTRACT: pitchwheel channel=3 pitch=-3092 time=0
EXTRACT: pitchwheel channel=3 pitch=-3092 time=0.0037313416666666663
EXTRACT: pitchwheel channel=3 pitch=-3092 time=0.0037313416666666663
EXTRACT: pitchwheel channel=3 pitch=-2938 time=0.0037313416666666663
EXTRACT: pitchwheel channel=3 pitch=-2938 time=0.0018656708333333332
EXTRACT: pitchwheel channel=3 pitch=-2938 time=0.0037313416666666663
EXTRACT: pitchwheel channel=3 pitch=-2783 time=0.0018656708333333332
EXTRACT: pitchwheel channel=3 pitch=-2783 time=0.0018656708333333332
EXTRACT: pitchwheel channel=3 pitch=-2783 time=0.0018656708333333332
EXTRACT: pitchwheel channel=3 pitch=-2628 time=0.0055970125
EXTRACT: pitchwheel channel=3 pitch=-2628 time=0
EXTRACT: pitchwheel channel=3 pitch=-2628 time=0.0037313416666666663
EXTRACT: pitchwheel channel=3 pitch=-2474 time=0.0037313416666666663
EXTRACT: pitchwheel channel=3 pitch=-2474 time=0
EXTRACT: pitchwheel channel=3 pitch=-2474 time=0.0018656708333333332
EXTRACT: pitchwheel channel=3 pitch=-2474 time=0.0037313416666666663
EXTRACT: pitchwheel channel=3 pitch=-2319 time=0.0018656708333333332
EXTRACT: pitchwheel channel=3 pitch=-2319 time=0.0018656708333333332
EXTRACT: pitchwheel channel=3 pitch=-2319 time=0.0018656708333333332
EXTRACT: pitchwheel channel=3 pitch=-2165 time=0.0037313416666666663
EXTRACT: pitchwheel channel=3 pitch=-2165 time=0
EXTRACT: pitchwheel channel=3 pitch=-2165 time=0.0037313416666666663
EXTRACT: pitchwheel channel=3 pitch=-2010 time=0.0037313416666666663
EXTRACT: pitchwheel channel=3 pitch=-2010 time=0
EXTRACT: pitchwheel channel=3 pitch=-2010 time=0.0018656708333333332
EXTRACT: pitchwheel channel=3 pitch=-2010 time=0.0037313416666666663
EXTRACT: pitchwheel channel=3 pitch=-1856 time=0.0018656708333333332
EXTRACT: pitchwheel channel=3 pitch=-1856 time=0.0018656708333333332
EXTRACT: pitchwheel channel=3 pitch=-1856 time=0.0018656708333333332
EXTRACT: pitchwheel channel=3 pitch=-1701 time=0.0018656708333333332
EXTRACT: pitchwheel channel=3 pitch=-1701 time=0.0018656708333333332
EXTRACT: pitchwheel channel=3 pitch=-1701 time=0.0037313416666666663
EXTRACT: pitchwheel channel=3 pitch=-1547 time=0.0018656708333333332
EXTRACT: pitchwheel channel=3 pitch=-1547 time=0
EXTRACT: pitchwheel channel=3 pitch=-1547 time=0.0037313416666666663
EXTRACT: pitchwheel channel=3 pitch=-1392 time=0.0037313416666666663
EXTRACT: pitchwheel channel=3 pitch=-1392 time=0
EXTRACT: pitchwheel channel=3 pitch=-1392 time=0.0018656708333333332
EXTRACT: pitchwheel channel=3 pitch=-1237 time=0.0037313416666666663
EXTRACT: pitchwheel channel=3 pitch=-1237 time=0
EXTRACT: pitchwheel channel=3 pitch=-1237 time=0.0037313416666666663
EXTRACT: note_on channel=2 note=62 velocity=71 time=0.0018656708333333332
EXTRACT: pitchwheel channel=3 pitch=-1083 time=0
EXTRACT: pitchwheel channel=3 pitch=-1083 time=0
EXTRACT: pitchwheel channel=3 pitch=-928 time=0.0037313416666666663
EXTRACT: pitchwheel channel=3 pitch=-928 time=0.0018656708333333332
EXTRACT: pitchwheel channel=3 pitch=-928 time=0.0018656708333333332
EXTRACT: pitchwheel channel=3 pitch=-774 time=0.0018656708333333332
EXTRACT: pitchwheel channel=3 pitch=-774 time=0.0018656708333333332
EXTRACT: pitchwheel channel=3 pitch=-774 time=0.0018656708333333332
EXTRACT: pitchwheel channel=3 pitch=-1 time=0.0037313416666666663
EXTRACT: note_on channel=2 note=57 velocity=0 time=0.027985062499999998
EXTRACT: note_on channel=2 note=62 velocity=0 time=0.1529850083333333
EXTRACT: note_on channel=2 note=66 velocity=69 time=0.026119391666666665
EXTRACT: note_on channel=2 note=66 velocity=0 time=0.21641781666666665
EXTRACT: note_on channel=2 note=62 velocity=68 time=0.007462683333333333
EXTRACT: note_on channel=2 note=38 velocity=0 time=0.0503731125
EXTRACT: note_on channel=2 note=50 velocity=0 time=0.009328354166666665
EXTRACT: note_on channel=2 note=45 velocity=0 time=0
EXTRACT: note_on channel=2 note=62 velocity=0 time=0.0503731125
EXTRACT: control_change channel=2 control=64 value=0 time=0.09701488333333333
EXTRACT: note_on channel=2 note=45 velocity=78 time=0.016791037499999998
EXTRACT: note_on channel=2 note=52 velocity=78 time=0
EXTRACT: note_on channel=2 note=57 velocity=78 time=0
EXTRACT: note_on channel=2 note=61 velocity=72 time=0.22388049999999998
EXTRACT: control_change channel=2 control=64 value=127 time=0.12686561666666665
EXTRACT: note_on channel=3 note=76 velocity=0 time=0.0895522
EXTRACT: note_on channel=2 note=64 velocity=76 time=0
EXTRACT: note_on channel=3 note=73 velocity=86 time=0
EXTRACT: note_on channel=2 note=61 velocity=0 time=0.03171640416666666
EXTRACT: note_on channel=2 note=57 velocity=0 time=0.09141787083333333
EXTRACT: note_on channel=2 note=61 velocity=76 time=0.100746225
EXTRACT: note_on channel=2 note=64 velocity=0 time=0.020522379166666663
EXTRACT: note_on channel=2 note=61 velocity=0 time=0.18843275416666666
EXTRACT: note_on channel=2 note=57 velocity=74 time=0.014925366666666665
EXTRACT: note_on channel=2 note=61 velocity=75 time=0.22388049999999998
EXTRACT: note_on channel=2 note=61 velocity=0 time=0.22014915833333332
EXTRACT: note_on channel=2 note=64 velocity=70 time=0.0037313416666666663
EXTRACT: note_on channel=2 note=57 velocity=0 time=0.007462683333333333
EXTRACT: note_on channel=2 note=61 velocity=75 time=0.21641781666666665
EXTRACT: note_on channel=2 note=64 velocity=0 time=0.03171640416666666
EXTRACT: note_on channel=2 note=61 velocity=0 time=0.1791044
EXTRACT: note_on channel=3 note=73 velocity=0 time=0.0055970125
EXTRACT: note_on channel=2 note=57 velocity=76 time=0.007462683333333333
EXTRACT: note_on channel=2 note=61 velocity=75 time=0.22388049999999998
EXTRACT: note_on channel=2 note=61 velocity=0 time=0.20149245
EXTRACT: note_on channel=2 note=64 velocity=73 time=0.02238805
EXTRACT: note_on channel=2 note=57 velocity=0 time=0.09888055416666666
EXTRACT: note_on channel=2 note=61 velocity=75 time=0.12499994583333332
EXTRACT: note_on channel=2 note=64 velocity=0 time=0.01865670833333333
EXTRACT: note_on channel=2 note=61 velocity=0 time=0.18843275416666666
EXTRACT: note_on channel=2 note=57 velocity=74 time=0
EXTRACT: note_on channel=3 note=71 velocity=86 time=0
EXTRACT: note_on channel=3 note=71 velocity=0 time=0.21641781666666665
EXTRACT: note_on channel=2 note=61 velocity=75 time=0
EXTRACT: note_on channel=3 note=69 velocity=81 time=0
EXTRACT: note_on channel=2 note=45 velocity=0 time=0.16604470416666664
EXTRACT: note_on channel=2 note=57 velocity=0 time=0.014925366666666665
EXTRACT: note_on channel=2 note=61 velocity=0 time=0.016791037499999998
EXTRACT: note_on channel=2 note=64 velocity=70 time=0.026119391666666665
EXTRACT: note_on channel=2 note=52 velocity=0 time=0.0037313416666666663
EXTRACT: note_on channel=2 note=64 velocity=0 time=0.18843275416666666
EXTRACT: note_on channel=2 note=61 velocity=75 time=0.03171640416666666
EXTRACT: note_on channel=2 note=61 velocity=0 time=0.1529850083333333
EXTRACT: note_on channel=3 note=69 velocity=0 time=0.06343280833333333
EXTRACT: note_on channel=2 note=44 velocity=75 time=0.007462683333333333
EXTRACT: note_on channel=2 note=52 velocity=77 time=0
EXTRACT: note_on channel=2 note=56 velocity=75 time=0
EXTRACT: note_on channel=3 note=66 velocity=63 time=0
EXTRACT: control_change channel=2 control=64 value=0 time=0.02238805
EXTRACT: note_on channel=3 note=66 velocity=0 time=0.19402976666666666
EXTRACT: note_on channel=2 note=61 velocity=70 time=0.007462683333333333
EXTRACT: control_change channel=2 control=64 value=127 time=0.07462683333333332
EXTRACT: note_on channel=2 note=61 velocity=0 time=0.14925366666666665
EXTRACT: note_on channel=2 note=64 velocity=74 time=0
EXTRACT: note_on channel=2 note=61 velocity=70 time=0.22388049999999998
EXTRACT: note_on channel=2 note=64 velocity=0 time=0.011194025
EXTRACT: note_on channel=2 note=56 velocity=0 time=0
EXTRACT: note_on channel=2 note=61 velocity=0 time=0.19962677916666666
EXTRACT: note_on channel=2 note=56 velocity=77 time=0
EXTRACT: note_on channel=3 note=76 velocity=89 time=0
EXTRACT: note_on channel=3 note=76 velocity=0 time=0.18656708333333333
EXTRACT: note_on channel=2 note=61 velocity=74 time=0
EXTRACT: note_on channel=3 note=76 velocity=78 time=0
EXTRACT: note_on channel=2 note=61 velocity=0 time=0.19216409583333333
EXTRACT: note_on channel=2 note=64 velocity=74 time=0.03171640416666666
EXTRACT: note_on channel=2 note=56 velocity=0 time=0.04664177083333333
EXTRACT: note_on channel=3 note=76 velocity=0 time=0.1697760458333333
EXTRACT: note_on channel=2 note=61 velocity=74 time=0
EXTRACT: note_on channel=3 note=73 velocity=87 time=0
EXTRACT: note_on channel=2 note=64 velocity=0 time=0.0037313416666666663
EXTRACT: note_on channel=2 note=61 velocity=0 time=0.19776110833333332
EXTRACT: note_on channel=2 note=56 velocity=75 time=0.02238805
EXTRACT: note_on channel=2 note=61 velocity=73 time=0.22388049999999998
EXTRACT: note_on channel=2 note=61 velocity=0 time=0.19776110833333332
EXTRACT: note_on channel=2 note=64 velocity=74 time=0.026119391666666665
EXTRACT: note_on channel=2 note=56 velocity=0 time=0.08395518749999999
EXTRACT: note_on channel=2 note=61 velocity=71 time=0.13992531249999998
EXTRACT: note_on channel=2 note=64 velocity=0 time=0.03171640416666666
EXTRACT: note_on channel=2 note=61 velocity=0 time=0.1585820208333333
EXTRACT: note_on channel=3 note=73 velocity=0 time=0.026119391666666665
EXTRACT: note_on channel=2 note=56 velocity=77 time=0
EXTRACT: note_on channel=3 note=71 velocity=88 time=0
EXTRACT: note_on channel=3 note=71 velocity=0 time=0.21641781666666665
EXTRACT: note_on channel=2 note=61 velocity=73 time=0
EXTRACT: note_on channel=3 note=69 velocity=83 time=0
EXTRACT: note_on channel=2 note=61 velocity=0 time=0.1753730583333333
EXTRACT: note_on channel=2 note=64 velocity=76 time=0.048507441666666665
EXTRACT: note_on channel=2 note=44 velocity=0 time=0.05223878333333333
EXTRACT: note_on channel=2 note=52 velocity=0 time=0.05783579583333333
EXTRACT: note_on channel=2 note=56 velocity=0 time=0.039179087499999994
EXTRACT: note_on channel=2 note=61 velocity=72 time=0.07462683333333332
EXTRACT: note_on channel=2 note=64 velocity=0 time=0.016791037499999998
EXTRACT: note_on channel=2 note=61 velocity=0 time=0.16791037499999997
EXTRACT: note_on channel=3 note=69 velocity=0 time=0.03171640416666666
EXTRACT: note_on channel=2 note=42 velocity=75 time=0.007462683333333333
EXTRACT: note_on channel=2 note=49 velocity=75 time=0
EXTRACT: note_on channel=2 note=54 velocity=75 time=0
EXTRACT: note_on channel=3 note=66 velocity=62 time=0
EXTRACT: control_change channel=2 control=64 value=0 time=0.05410445416666666
EXTRACT: note_on channel=3 note=66 velocity=0 time=0.16231336249999997
EXTRACT: note_on channel=2 note=61 velocity=71 time=0.007462683333333333
EXTRACT: control_change channel=2 control=64 value=127 time=0.10447756666666666
EXTRACT: note_on channel=2 note=61 velocity=0 time=0.03544774583333333
EXTRACT: note_on channel=2 note=66 velocity=72 time=0.08395518749999999
EXTRACT: note_on channel=2 note=54 velocity=0 time=0.100746225
EXTRACT: note_on channel=2 note=61 velocity=73 time=0.12313427499999999
EXTRACT: note_on channel=2 note=66 velocity=0 time=0.0037313416666666663
EXTRACT: note_on channel=2 note=61 velocity=0 time=0.20149245
EXTRACT: note_on channel=2 note=54 velocity=69 time=0
EXTRACT: note_on channel=3 note=76 velocity=85 time=0
EXTRACT: note_on channel=2 note=61 velocity=72 time=0.22388049999999998
EXTRACT: note_on channel=2 note=54 velocity=0 time=0.04104475833333333
EXTRACT: note_on channel=3 note=76 velocity=0 time=0.13992531249999998
EXTRACT: note_on channel=2 note=66 velocity=73 time=0
EXTRACT: note_on channel=3 note=76 velocity=78 time=0
EXTRACT: note_on channel=2 note=61 velocity=0 time=0.026119391666666665
EXTRACT: note_on channel=3 note=76 velocity=0 time=0.1791044
EXTRACT: note_on channel=2 note=61 velocity=72 time=0
EXTRACT: note_on channel=3 note=73 velocity=85 time=0
EXTRACT: note_on channel=2 note=66 velocity=0 time=0.027985062499999998
EXTRACT: note_on channel=2 note=61 velocity=0 time=0.1847014125
EXTRACT: note_on channel=2 note=54 velocity=74 time=0.011194025
EXTRACT: note_on channel=2 note=61 velocity=70 time=0.22388049999999998
EXTRACT: note_on channel=2 note=54 velocity=0 time=0.04104475833333333
EXTRACT: note_on channel=2 note=61 velocity=0 time=0.16791037499999997
EXTRACT: note_on channel=2 note=66 velocity=74 time=0.014925366666666665
EXTRACT: note_on channel=2 note=61 velocity=73 time=0.22388049999999998
EXTRACT: note_on channel=2 note=66 velocity=0 time=0.016791037499999998
EXTRACT: note_on channel=2 note=61 velocity=0 time=0.15671634999999998
EXTRACT: note_on channel=3 note=73 velocity=0 time=0.04291042916666666
EXTRACT: note_on channel=2 note=54 velocity=74 time=0
EXTRACT: note_on channel=3 note=71 velocity=85 time=0
EXTRACT: note_on channel=3 note=71 velocity=0 time=0.21641781666666665
EXTRACT: note_on channel=2 note=61 velocity=71 time=0
EXTRACT: note_on channel=3 note=69 velocity=79 time=0
EXTRACT: note_on channel=2 note=49 velocity=0 time=0.1529850083333333
EXTRACT: note_on channel=2 note=61 velocity=0 time=0.0018656708333333332
EXTRACT: note_on channel=2 note=42 velocity=0 time=0.01865670833333333
EXTRACT: note_on channel=2 note=66 velocity=75 time=0.0503731125
EXTRACT: note_on channel=2 note=54 velocity=0 time=0.08768652916666665
EXTRACT: note_on channel=2 note=61 velocity=71 time=0.13619397083333332
EXTRACT: note_on channel=2 note=66 velocity=0 time=0.013059695833333333
EXTRACT: note_on channel=2 note=61 velocity=0 time=0.19962677916666666
EXTRACT: note_on channel=3 note=69 velocity=0 time=0.0037313416666666663
EXTRACT: note_on channel=2 note=38 velocity=76 time=0.007462683333333333
EXTRACT: note_on channel=2 note=45 velocity=76 time=0
EXTRACT: note_on channel=2 note=54 velocity=76 time=0
EXTRACT: note_on channel=3 note=66 velocity=61 time=0
EXTRACT: control_change channel=2 control=64 value=0 time=0.033582074999999996
EXTRACT: note_on channel=3 note=66 velocity=0 time=0.18283574166666666
EXTRACT: note_on channel=2 note=62 velocity=71 time=0.007462683333333333
EXTRACT: control_change channel=2 control=64 value=127 time=0.09888055416666666
EXTRACT: note_on channel=2 note=66 velocity=74 time=0.12499994583333332
EXTRACT: note_on channel=2 note=62 velocity=0 time=0.04664177083333333
EXTRACT: note_on channel=2 note=54 velocity=0 time=0.17723872916666664
EXTRACT: note_on channel=2 note=62 velocity=74 time=0
EXTRACT: note_on channel=2 note=66 velocity=0 time=0.011194025
EXTRACT: note_on channel=2 note=54 velocity=75 time=0
EXTRACT: note_on channel=3 note=76 velocity=89 time=0
EXTRACT: note_on channel=2 note=62 velocity=0 time=0.0055970125
EXTRACT: note_on channel=3 note=76 velocity=0 time=0.18097007083333333
EXTRACT: note_on channel=2 note=62 velocity=74 time=0
EXTRACT: note_on channel=3 note=76 velocity=82 time=0
EXTRACT: note_on channel=2 note=54 velocity=0 time=0.22014915833333332
EXTRACT: note_on channel=2 note=66 velocity=74 time=0.0037313416666666663
EXTRACT: note_on channel=2 note=62 velocity=0 time=0.01865670833333333
EXTRACT: note_on channel=3 note=76 velocity=0 time=0.19776110833333332
EXTRACT: note_on channel=2 note=62 velocity=77 time=0
EXTRACT: note_on channel=3 note=73 velocity=87 time=0
EXTRACT: note_on channel=2 note=66 velocity=0 time=0.016791037499999998
EXTRACT: note_on channel=2 note=62 velocity=0 time=0.18843275416666666
EXTRACT: note_on channel=2 note=54 velocity=75 time=0.01865670833333333
EXTRACT: note_on channel=2 note=62 velocity=74 time=0.22388049999999998
EXTRACT: note_on channel=2 note=54 velocity=0 time=0.027985062499999998
EXTRACT: note_on channel=2 note=62 velocity=0 time=0.17723872916666664
EXTRACT: note_on channel=2 note=66 velocity=74 time=0.01865670833333333
EXTRACT: note_on channel=3 note=73 velocity=0 time=0.21641781666666665
EXTRACT: note_on channel=2 note=62 velocity=78 time=0.007462683333333333
EXTRACT: note_on channel=3 note=71 velocity=88 time=0
EXTRACT: note_on channel=2 note=66 velocity=0 time=0.016791037499999998
EXTRACT: note_on channel=2 note=62 velocity=0 time=0.2070894625
EXTRACT: note_on channel=2 note=54 velocity=75 time=0
EXTRACT: note_on channel=2 note=62 velocity=75 time=0.22388049999999998
EXTRACT: note_on channel=2 note=54 velocity=0 time=0.0447761
EXTRACT: note_on channel=2 note=62 velocity=0 time=0.1529850083333333
EXTRACT: note_on channel=2 note=66 velocity=75 time=0.026119391666666665
EXTRACT: note_on channel=2 note=66 velocity=0 time=0.21641781666666665
EXTRACT: note_on channel=3 note=71 velocity=0 time=0
EXTRACT: note_on channel=2 note=62 velocity=75 time=0.007462683333333333
EXTRACT: note_on channel=3 note=69 velocity=84 time=0
EXTRACT: note_on channel=2 note=38 velocity=0 time=0.0503731125
EXTRACT: note_on channel=2 note=45 velocity=0 time=0.009328354166666665
EXTRACT: note_on channel=2 note=62 velocity=0 time=0.0503731125
EXTRACT: control_change channel=2 control=64 value=0 time=0.09701488333333333
EXTRACT: note_on channel=2 note=45 velocity=75 time=0.016791037499999998
EXTRACT: note_on channel=2 note=52 velocity=75 time=0
EXTRACT: note_on channel=2 note=57 velocity=75 time=0
EXTRACT: note_on channel=2 note=61 velocity=72 time=0.22388049999999998
EXTRACT: control_change channel=2 control=64 value=127 time=0.12686561666666665
EXTRACT: note_on channel=2 note=64 velocity=76 time=0.09701488333333333
EXTRACT: note_on channel=2 note=61 velocity=0 time=0.03171640416666666
EXTRACT: note_on channel=2 note=57 velocity=0 time=0.09141787083333333
EXTRACT: note_on channel=3 note=69 velocity=0 time=0.0447761
EXTRACT: pitchwheel channel=3 pitch=-8192 time=0.04104475833333333
EXTRACT: note_on channel=2 note=61 velocity=76 time=0
EXTRACT: note_on channel=3 note=76 velocity=86 time=0
EXTRACT: note_on channel=2 note=64 velocity=0 time=0.020522379166666663
EXTRACT: pitchwheel channel=3 pitch=-8035 time=0.0018656708333333332
EXTRACT: pitchwheel channel=3 pitch=-7877 time=0.013059695833333333
EXTRACT: pitchwheel channel=3 pitch=-7720 time=0.013059695833333333
EXTRACT: pitchwheel channel=3 pitch=-7562 time=0.009328354166666665
EXTRACT: pitchwheel channel=3 pitch=-7405 time=0.009328354166666665
EXTRACT: pitchwheel channel=3 pitch=-7247 time=0.0055970125
EXTRACT: pitchwheel channel=3 pitch=-7090 time=0.007462683333333333
EXTRACT: pitchwheel channel=3 pitch=-6932 time=0.0055970125
EXTRACT: pitchwheel channel=3 pitch=-6775 time=0.0055970125
EXTRACT: pitchwheel channel=3 pitch=-6617 time=0.007462683333333333
EXTRACT: pitchwheel channel=3 pitch=-6460 time=0.0055970125
EXTRACT: pitchwheel channel=3 pitch=-6302 time=0.007462683333333333
EXTRACT: pitchwheel channel=3 pitch=-6145 time=0.0018656708333333332
EXTRACT: pitchwheel channel=3 pitch=-5987 time=0.007462683333333333
EXTRACT: pitchwheel channel=3 pitch=-5830 time=0.0018656708333333332
EXTRACT: pitchwheel channel=3 pitch=-5672 time=0.007462683333333333
EXTRACT: pitchwheel channel=3 pitch=-5515 time=0.0018656708333333332
EXTRACT: pitchwheel channel=3 pitch=-5357 time=0.0037313416666666663
EXTRACT: pitchwheel channel=3 pitch=-5199 time=0.0055970125
EXTRACT: pitchwheel channel=3 pitch=-5042 time=0.0037313416666666663
EXTRACT: pitchwheel channel=3 pitch=-4884 time=0.0037313416666666663
EXTRACT: pitchwheel channel=3 pitch=-4727 time=0.0018656708333333332
EXTRACT: pitchwheel channel=3 pitch=-4569 time=0.007462683333333333
EXTRACT: pitchwheel channel=3 pitch=-4412 time=0.0018656708333333332
EXTRACT: pitchwheel channel=3 pitch=-4254 time=0.0037313416666666663
EXTRACT: pitchwheel channel=3 pitch=-4097 time=0.0037313416666666663
EXTRACT: pitchwheel channel=3 pitch=-3939 time=0.0037313416666666663
EXTRACT: pitchwheel channel=3 pitch=-3782 time=0.0018656708333333332
EXTRACT: pitchwheel channel=3 pitch=-3624 time=0.0037313416666666663
EXTRACT: pitchwheel channel=3 pitch=-3467 time=0.0037313416666666663
EXTRACT: pitchwheel channel=3 pitch=-3309 time=0.0018656708333333332
EXTRACT: pitchwheel channel=3 pitch=-3152 time=0.0037313416666666663
EXTRACT: pitchwheel channel=3 pitch=-2994 time=0.0037313416666666663
EXTRACT: pitchwheel channel=3 pitch=-2837 time=0.0018656708333333332
EXTRACT: pitchwheel channel=3 pitch=-2679 time=0.0037313416666666663
EXTRACT: pitchwheel channel=3 pitch=-2521 time=0.0037313416666666663
EXTRACT: pitchwheel channel=3 pitch=-2364 time=0.0018656708333333332
EXTRACT: pitchwheel channel=3 pitch=-2206 time=0.0037313416666666663
EXTRACT: note_on channel=2 note=61 velocity=0 time=0.0037313416666666663
EXTRACT: pitchwheel channel=3 pitch=-2049 time=0
EXTRACT: pitchwheel channel=3 pitch=-1891 time=0.0018656708333333332
EXTRACT: pitchwheel channel=3 pitch=-1734 time=0.0037313416666666663
EXTRACT: pitchwheel channel=3 pitch=-1576 time=0.0037313416666666663
EXTRACT: pitchwheel channel=3 pitch=-1261 time=0.0018656708333333332
EXTRACT: note_on channel=2 note=57 velocity=74 time=0.0037313416666666663
EXTRACT: pitchwheel channel=3 pitch=-1104 time=0
EXTRACT: pitchwheel channel=3 pitch=-946 time=0.0037313416666666663
EXTRACT: pitchwheel channel=3 pitch=-789 time=0.0037313416666666663
EXTRACT: pitchwheel channel=3 pitch=-631 time=0.0018656708333333332
EXTRACT: pitchwheel channel=3 pitch=-316 time=0.0037313416666666663
EXTRACT: pitchwheel channel=3 pitch=-159 time=0.0037313416666666663
EXTRACT: pitchwheel channel=3 pitch=-1 time=0.0018656708333333332
EXTRACT: note_on channel=2 note=61 velocity=75 time=0.20522379166666666
EXTRACT: note_on channel=2 note=61 velocity=0 time=0.22014915833333332
EXTRACT: note_on channel=2 note=64 velocity=70 time=0.0037313416666666663
EXTRACT: note_on channel=2 note=57 velocity=0 time=0.007462683333333333
EXTRACT: note_on channel=3 note=76 velocity=0 time=0.20895513333333332
EXTRACT: note_on channel=2 note=61 velocity=75 time=0
EXTRACT: note_on channel=3 note=73 velocity=86 time=0
EXTRACT: note_on channel=2 note=64 velocity=0 time=0.03171640416666666
EXTRACT: note_on channel=2 note=61 velocity=0 time=0.1791044
EXTRACT: note_on channel=2 note=57 velocity=76 time=0.013059695833333333
EXTRACT: note_on channel=2 note=61 velocity=75 time=0.22388049999999998
EXTRACT: note_on channel=2 note=61 velocity=0 time=0.20149245
EXTRACT: note_on channel=2 note=64 velocity=73 time=0.02238805
EXTRACT: note_on channel=2 note=57 velocity=0 time=0.09888055416666666
EXTRACT: note_on channel=2 note=61 velocity=75 time=0.12499994583333332
EXTRACT: note_on channel=2 note=64 velocity=0 time=0.01865670833333333
EXTRACT: note_on channel=2 note=61 velocity=0 time=0.18843275416666666
EXTRACT: note_on channel=3 note=73 velocity=0 time=0.009328354166666665
EXTRACT: note_on channel=2 note=57 velocity=74 time=0
EXTRACT: note_on channel=3 note=71 velocity=86 time=0
EXTRACT: note_on channel=3 note=71 velocity=0 time=0.21641781666666665
EXTRACT: note_on channel=2 note=61 velocity=75 time=0
EXTRACT: note_on channel=3 note=69 velocity=81 time=0
EXTRACT: note_on channel=2 note=45 velocity=0 time=0.16604470416666664
EXTRACT: note_on channel=2 note=57 velocity=0 time=0.014925366666666665
EXTRACT: note_on channel=2 note=61 velocity=0 time=0.016791037499999998
EXTRACT: note_on channel=2 note=64 velocity=70 time=0.026119391666666665
EXTRACT: note_on channel=2 note=52 velocity=0 time=0.0037313416666666663
EXTRACT: note_on channel=2 note=64 velocity=0 time=0.18843275416666666
EXTRACT: note_on channel=2 note=61 velocity=75 time=0.03171640416666666
EXTRACT: note_on channel=2 note=61 velocity=0 time=0.1529850083333333
EXTRACT: note_on channel=3 note=69 velocity=0 time=0.06343280833333333
EXTRACT: pitchwheel channel=3 pitch=405 time=0.0037313416666666663
EXTRACT: note_on channel=2 note=44 velocity=75 time=0
EXTRACT: note_on channel=2 note=52 velocity=77 time=0
EXTRACT: note_on channel=2 note=56 velocity=75 time=0
EXTRACT: note_on channel=3 note=77 velocity=86 time=0
EXTRACT: pitchwheel channel=3 pitch=567 time=0
EXTRACT: control_change channel=2 control=64 value=0 time=0.02238805
EXTRACT: pitchwheel channel=3 pitch=729 time=0.06529847916666666
EXTRACT: pitchwheel channel=3 pitch=891 time=0.039179087499999994
EXTRACT: pitchwheel channel=3 pitch=1053 time=0.027985062499999998
EXTRACT: pitchwheel channel=3 pitch=1216 time=0.024253720833333332
EXTRACT: pitchwheel channel=3 pitch=1378 time=0.02238805
EXTRACT: pitchwheel channel=3 pitch=1540 time=0.01865670833333333
EXTRACT: note_on channel=2 note=61 velocity=70 time=0.0037313416666666663
EXTRACT: pitchwheel channel=3 pitch=1702 time=0.014925366666666665
EXTRACT: pitchwheel channel=3 pitch=1864 time=0.014925366666666665
EXTRACT: pitchwheel channel=3 pitch=2027 time=0.014925366666666665
EXTRACT: pitchwheel channel=3 pitch=2189 time=0.016791037499999998
EXTRACT: control_change channel=2 control=64 value=127 time=0.013059695833333333
EXTRACT: pitchwheel channel=3 pitch=2351 time=0.0018656708333333332
EXTRACT: pitchwheel channel=3 pitch=2513 time=0.013059695833333333
EXTRACT: pitchwheel channel=3 pitch=2675 time=0.013059695833333333
EXTRACT: pitchwheel channel=3 pitch=2838 time=0.011194025
EXTRACT: pitchwheel channel=3 pitch=3000 time=0.013059695833333333
EXTRACT: pitchwheel channel=3 pitch=3162 time=0.009328354166666665
EXTRACT: pitchwheel channel=3 pitch=3324 time=0.013059695833333333
EXTRACT: pitchwheel channel=3 pitch=3486 time=0.011194025
EXTRACT: pitchwheel channel=3 pitch=3649 time=0.009328354166666665
EXTRACT: pitchwheel channel=3 pitch=3811 time=0.011194025
EXTRACT: pitchwheel channel=3 pitch=3973 time=0.009328354166666665
EXTRACT: pitchwheel channel=3 pitch=4135 time=0.011194025
EXTRACT: pitchwheel channel=3 pitch=4298 time=0.007462683333333333
EXTRACT: pitchwheel channel=3 pitch=4460 time=0.011194025
EXTRACT: note_on channel=2 note=61 velocity=0 time=0.0037313416666666663
EXTRACT: note_on channel=2 note=64 velocity=74 time=0
EXTRACT: pitchwheel channel=3 pitch=4460 time=0.0037313416666666663
EXTRACT: pitchwheel channel=3 pitch=4298 time=0.06716414999999999
EXTRACT: pitchwheel channel=3 pitch=4135 time=0.027985062499999998
EXTRACT: pitchwheel channel=3 pitch=3973 time=0.024253720833333332
EXTRACT: pitchwheel channel=3 pitch=3811 time=0.014925366666666665
EXTRACT: pitchwheel channel=3 pitch=3649 time=0.01865670833333333
EXTRACT: pitchwheel channel=3 pitch=3486 time=0.013059695833333333
EXTRACT: pitchwheel channel=3 pitch=3324 time=0.013059695833333333
EXTRACT: pitchwheel channel=3 pitch=3162 time=0.013059695833333333
EXTRACT: pitchwheel channel=3 pitch=3000 time=0.011194025
EXTRACT: pitchwheel channel=3 pitch=2838 time=0.013059695833333333
EXTRACT: note_on channel=2 note=61 velocity=70 time=0.0037313416666666663
EXTRACT: pitchwheel channel=3 pitch=2675 time=0.0055970125
EXTRACT: note_on channel=2 note=64 velocity=0 time=0.0055970125
EXTRACT: note_on channel=2 note=56 velocity=0 time=0
EXTRACT: pitchwheel channel=3 pitch=2513 time=0.0055970125
EXTRACT: pitchwheel channel=3 pitch=2351 time=0.007462683333333333
EXTRACT: pitchwheel channel=3 pitch=2189 time=0.009328354166666665
EXTRACT: pitchwheel channel=3 pitch=2027 time=0.009328354166666665
EXTRACT: pitchwheel channel=3 pitch=1864 time=0.007462683333333333
EXTRACT: pitchwheel channel=3 pitch=1702 time=0.009328354166666665
EXTRACT: pitchwheel channel=3 pitch=1540 time=0.009328354166666665
EXTRACT: pitchwheel channel=3 pitch=1378 time=0.007462683333333333
EXTRACT: pitchwheel channel=3 pitch=1216 time=0.007462683333333333
EXTRACT: pitchwheel channel=3 pitch=1053 time=0.007462683333333333
EXTRACT: pitchwheel channel=3 pitch=891 time=0.0055970125
EXTRACT: pitchwheel channel=3 pitch=729 time=0.007462683333333333
EXTRACT: pitchwheel channel=3 pitch=567 time=0.007462683333333333
EXTRACT: pitchwheel channel=3 pitch=405 time=0.0055970125
EXTRACT: pitchwheel channel=3 pitch=242 time=0.007462683333333333
EXTRACT: pitchwheel channel=3 pitch=0 time=0.007462683333333333
EXTRACT: pitchwheel channel=3 pitch=-82 time=0.0055970125
EXTRACT: note_on channel=3 note=77 velocity=0 time=0.05410445416666666
EXTRACT: pitchwheel channel=3 pitch=-8192 time=0.016791037499999998
EXTRACT: note_on channel=2 note=61 velocity=0 time=0.0018656708333333332
EXTRACT: pitchwheel channel=3 pitch=-8032 time=0
EXTRACT: note_on channel=2 note=56 velocity=77 time=0
EXTRACT: note_on channel=3 note=73 velocity=86 time=0
EXTRACT: pitchwheel channel=3 pitch=-7871 time=0.026119391666666665
EXTRACT: pitchwheel channel=3 pitch=-7711 time=0.01865670833333333
EXTRACT: pitchwheel channel=3 pitch=-7550 time=0.011194025
EXTRACT: pitchwheel channel=3 pitch=-7389 time=0.011194025
EXTRACT: pitchwheel channel=3 pitch=-7229 time=0.009328354166666665
EXTRACT: pitchwheel channel=3 pitch=-7068 time=0.009328354166666665
EXTRACT: pitchwheel channel=3 pitch=-6908 time=0.009328354166666665
EXTRACT: pitchwheel channel=3 pitch=-6747 time=0.0055970125
EXTRACT: pitchwheel channel=3 pitch=-6586 time=0.007462683333333333
EXTRACT: pitchwheel channel=3 pitch=-6426 time=0.007462683333333333
EXTRACT: pitchwheel channel=3 pitch=-6265 time=0.0055970125
EXTRACT: pitchwheel channel=3 pitch=-6104 time=0.0055970125
EXTRACT: pitchwheel channel=3 pitch=-5944 time=0.0055970125
EXTRACT: pitchwheel channel=3 pitch=-5783 time=0.0055970125
EXTRACT: pitchwheel channel=3 pitch=-5623 time=0.0055970125
EXTRACT: pitchwheel channel=3 pitch=-5462 time=0.0037313416666666663
EXTRACT: pitchwheel channel=3 pitch=-5301 time=0.0055970125
EXTRACT: pitchwheel channel=3 pitch=-5141 time=0.0055970125
EXTRACT: pitchwheel channel=3 pitch=-4980 time=0.0037313416666666663
EXTRACT: pitchwheel channel=3 pitch=-4820 time=0.0055970125
EXTRACT: pitchwheel channel=3 pitch=-4659 time=0.0037313416666666663
EXTRACT: pitchwheel channel=3 pitch=-4498 time=0.0055970125
EXTRACT: pitchwheel channel=3 pitch=-4338 time=0.0018656708333333332
EXTRACT: pitchwheel channel=3 pitch=-4177 time=0.007462683333333333
EXTRACT: pitchwheel channel=3 pitch=-4016 time=0.0018656708333333332
EXTRACT: pitchwheel channel=3 pitch=-3856 time=0.0055970125
EXTRACT: pitchwheel channel=3 pitch=-3695 time=0.0037313416666666663
EXTRACT: pitchwheel channel=3 pitch=-3535 time=0.0037313416666666663
EXTRACT: pitchwheel channel=3 pitch=-3374 time=0.0018656708333333332
EXTRACT: pitchwheel channel=3 pitch=-3213 time=0.0055970125
EXTRACT: pitchwheel channel=3 pitch=-3053 time=0.0037313416666666663
EXTRACT: pitchwheel channel=3 pitch=-2892 time=0.0037313416666666663
EXTRACT: pitchwheel channel=3 pitch=-2731 time=0.0018656708333333332
EXTRACT: note_on channel=2 note=61 velocity=74 time=0.0055970125
EXTRACT: pitchwheel channel=3 pitch=-2571 time=0
EXTRACT: pitchwheel channel=3 pitch=-2410 time=0.0037313416666666663
EXTRACT: pitchwheel channel=3 pitch=-2250 time=0.0018656708333333332
EXTRACT: pitchwheel channel=3 pitch=-2089 time=0.0037313416666666663
EXTRACT: pitchwheel channel=3 pitch=-1928 time=0.0037313416666666663
EXTRACT: pitchwheel channel=3 pitch=-1768 time=0.0018656708333333332
EXTRACT: pitchwheel channel=3 pitch=-1607 time=0.0037313416666666663
EXTRACT: pitchwheel channel=3 pitch=-1447 time=0.0018656708333333332
EXTRACT: pitchwheel channel=3 pitch=-1286 time=0.0037313416666666663
EXTRACT: pitchwheel channel=3 pitch=-1125 time=0.0055970125
EXTRACT: pitchwheel channel=3 pitch=-965 time=0.0037313416666666663
EXTRACT: pitchwheel channel=3 pitch=-804 time=0.0018656708333333332
EXTRACT: pitchwheel channel=3 pitch=-643 time=0.0037313416666666663
EXTRACT: pitchwheel channel=3 pitch=-483 time=0.0018656708333333332
EXTRACT: pitchwheel channel=3 pitch=-322 time=0.0037313416666666663
EXTRACT: pitchwheel channel=3 pitch=-162 time=0.0037313416666666663
EXTRACT: pitchwheel channel=3 pitch=-1 time=0.0018656708333333332
EXTRACT: note_on channel=2 note=61 velocity=0 time=0.14179098333333331
EXTRACT: note_on channel=2 note=64 velocity=74 time=0.03171640416666666
EXTRACT: note_on channel=2 note=56 velocity=0 time=0.04664177083333333
EXTRACT: note_on channel=2 note=61 velocity=74 time=0.17723872916666664
EXTRACT: note_on channel=2 note=64 velocity=0 time=0.0037313416666666663
EXTRACT: note_on channel=2 note=61 velocity=0 time=0.19776110833333332
EXTRACT: note_on channel=3 note=73 velocity=0 time=0.0037313416666666663
EXTRACT: note_on channel=2 note=56 velocity=75 time=0
EXTRACT: note_on channel=3 note=69 velocity=83 time=0
EXTRACT: note_on channel=2 note=61 velocity=68 time=0.22388049999999998
EXTRACT: note_on channel=2 note=61 velocity=0 time=0.19776110833333332
EXTRACT: note_on channel=3 note=69 velocity=0 time=0.01865670833333333
EXTRACT: note_on channel=2 note=64 velocity=74 time=0.007462683333333333
EXTRACT: note_on channel=2 note=56 velocity=0 time=0.08395518749999999
EXTRACT: note_on channel=2 note=61 velocity=71 time=0.13992531249999998
EXTRACT: note_on channel=2 note=64 velocity=0 time=0.03171640416666666
EXTRACT: note_on channel=2 note=61 velocity=0 time=0.1585820208333333
EXTRACT: note_on channel=2 note=56 velocity=77 time=0.033582074999999996
EXTRACT: note_on channel=2 note=61 velocity=73 time=0
EXTRACT: note_on channel=3 note=71 velocity=87 time=0
EXTRACT: note_on channel=2 note=61 velocity=0 time=0.1753730583333333
EXTRACT: note_on channel=2 note=64 velocity=76 time=0.048507441666666665
EXTRACT: note_on channel=2 note=44 velocity=0 time=0.05223878333333333
EXTRACT: note_on channel=2 note=52 velocity=0 time=0.05783579583333333
EXTRACT: note_on channel=2 note=56 velocity=0 time=0.039179087499999994
EXTRACT: note_on channel=3 note=71 velocity=0 time=0.06716414999999999
EXTRACT: note_on channel=2 note=61 velocity=72 time=0
EXTRACT: note_on channel=3 note=69 velocity=80 time=0
EXTRACT: note_on channel=2 note=64 velocity=0 time=0.016791037499999998
EXTRACT: note_on channel=2 note=61 velocity=0 time=0.16791037499999997
EXTRACT: note_on channel=3 note=69 velocity=0 time=0.03171640416666666
EXTRACT: note_on channel=2 note=42 velocity=73 time=0
EXTRACT: note_on channel=2 note=49 velocity=73 time=0
EXTRACT: note_on channel=2 note=54 velocity=73 time=0
EXTRACT: note_on channel=3 note=66 velocity=86 time=0
EXTRACT: control_change channel=2 control=64 value=0 time=0.05410445416666666
EXTRACT: note_on channel=2 note=61 velocity=68 time=0.1697760458333333
EXTRACT: control_change channel=2 control=64 value=127 time=0.10447756666666666
EXTRACT: note_on channel=2 note=61 velocity=0 time=0.03544774583333333
EXTRACT: note_on channel=3 note=66 velocity=0 time=0.039179087499999994
EXTRACT: note_on channel=2 note=66 velocity=72 time=0
EXTRACT: note_on channel=3 note=66 velocity=78 time=0
EXTRACT: note_on channel=2 note=54 velocity=0 time=0.100746225
EXTRACT: note_on channel=3 note=66 velocity=0 time=0.11567159166666666
EXTRACT: note_on channel=2 note=61 velocity=73 time=0
EXTRACT: note_on channel=3 note=69 velocity=87 time=0
EXTRACT: note_on channel=2 note=66 velocity=0 time=0.0037313416666666663
EXTRACT: note_on channel=2 note=61 velocity=0 time=0.20149245
EXTRACT: note_on channel=2 note=54 velocity=69 time=0.01865670833333333
EXTRACT: note_on channel=2 note=61 velocity=72 time=0.22388049999999998
EXTRACT: note_on channel=2 note=54 velocity=0 time=0.04104475833333333
EXTRACT: note_on channel=3 note=69 velocity=0 time=0.17723872916666664
EXTRACT: note_on channel=2 note=66 velocity=73 time=0.0055970125
EXTRACT: note_on channel=3 note=66 velocity=65 time=0
EXTRACT: note_on channel=2 note=61 velocity=0 time=0.026119391666666665
EXTRACT: note_on channel=3 note=66 velocity=0 time=0.1791044
EXTRACT: note_on channel=2 note=61 velocity=72 time=0.01865670833333333
EXTRACT: note_on channel=2 note=66 velocity=0 time=0.027985062499999998
EXTRACT: note_on channel=2 note=61 velocity=0 time=0.1847014125
EXTRACT: note_on channel=2 note=54 velocity=74 time=0.011194025
EXTRACT: note_on channel=2 note=61 velocity=70 time=0.22388049999999998
EXTRACT: note_on channel=2 note=54 velocity=0 time=0.04104475833333333
EXTRACT: note_on channel=2 note=61 velocity=0 time=0.16791037499999997
EXTRACT: note_on channel=2 note=66 velocity=74 time=0.014925366666666665
EXTRACT: note_on channel=2 note=61 velocity=73 time=0.22388049999999998
EXTRACT: note_on channel=2 note=66 velocity=0 time=0.016791037499999998
EXTRACT: note_on channel=2 note=61 velocity=0 time=0.15671634999999998
EXTRACT: note_on channel=2 note=54 velocity=74 time=0.0503731125
EXTRACT: note_on channel=2 note=61 velocity=71 time=0
EXTRACT: note_on channel=3 note=66 velocity=80 time=0
EXTRACT: note_on channel=2 note=49 velocity=0 time=0.1529850083333333
EXTRACT: note_on channel=2 note=61 velocity=0 time=0.0018656708333333332
EXTRACT: note_on channel=2 note=42 velocity=0 time=0.01865670833333333
EXTRACT: note_on channel=3 note=66 velocity=0 time=0.011194025
EXTRACT: note_on channel=2 note=66 velocity=75 time=0
EXTRACT: note_on channel=3 note=66 velocity=82 time=0
EXTRACT: note_on channel=2 note=54 velocity=0 time=0.08768652916666665
EXTRACT: note_on channel=3 note=66 velocity=0 time=0.09701488333333333
EXTRACT: note_on channel=2 note=61 velocity=71 time=0
EXTRACT: note_on channel=3 note=66 velocity=81 time=0
EXTRACT: note_on channel=2 note=66 velocity=0 time=0.013059695833333333
EXTRACT: note_on channel=3 note=66 velocity=0 time=0.1847014125
EXTRACT: note_on channel=2 note=61 velocity=0 time=0.014925366666666665
EXTRACT: note_on channel=2 note=38 velocity=76 time=0
EXTRACT: note_on channel=2 note=45 velocity=76 time=0
EXTRACT: note_on channel=2 note=54 velocity=76 time=0
EXTRACT: note_on channel=3 note=71 velocity=85 time=0
EXTRACT: control_change channel=2 control=64 value=0 time=0.033582074999999996
EXTRACT: note_on channel=3 note=71 velocity=0 time=0.18283574166666666
EXTRACT: note_on channel=2 note=62 velocity=71 time=0
EXTRACT: note_on channel=3 note=69 velocity=74 time=0
EXTRACT: control_change channel=2 control=64 value=127 time=0.09888055416666666
EXTRACT: note_on channel=3 note=69 velocity=0 time=0.11753726249999999
EXTRACT: note_on channel=2 note=66 velocity=74 time=0
EXTRACT: note_on channel=3 note=71 velocity=83 time=0
EXTRACT: note_on channel=2 note=62 velocity=0 time=0.04664177083333333
EXTRACT: note_on channel=2 note=54 velocity=0 time=0.17723872916666664
EXTRACT: note_on channel=2 note=62 velocity=74 time=0
EXTRACT: note_on channel=2 note=66 velocity=0 time=0.011194025
EXTRACT: note_on channel=2 note=54 velocity=75 time=0.21268647499999999
EXTRACT: note_on channel=2 note=62 velocity=0 time=0.0055970125
EXTRACT: note_on channel=2 note=62 velocity=74 time=0.21828348749999998
EXTRACT: note_on channel=3 note=71 velocity=0 time=0.21641781666666665
EXTRACT: note_on channel=2 note=54 velocity=0 time=0.0037313416666666663
EXTRACT: note_on channel=2 note=66 velocity=74 time=0.0037313416666666663
EXTRACT: note_on channel=3 note=73 velocity=81 time=0
EXTRACT: note_on channel=2 note=62 velocity=0 time=0.01865670833333333
EXTRACT: note_on channel=2 note=62 velocity=77 time=0.20522379166666666
EXTRACT: note_on channel=2 note=66 velocity=0 time=0.016791037499999998
EXTRACT: note_on channel=2 note=62 velocity=0 time=0.18843275416666666
EXTRACT: note_on channel=2 note=54 velocity=75 time=0.01865670833333333
EXTRACT: note_on channel=2 note=62 velocity=74 time=0.22388049999999998
EXTRACT: note_on channel=2 note=54 velocity=0 time=0.027985062499999998
EXTRACT: note_on channel=2 note=62 velocity=0 time=0.17723872916666664
EXTRACT: note_on channel=3 note=73 velocity=0 time=0.011194025
EXTRACT: note_on channel=2 note=66 velocity=74 time=0.007462683333333333
EXTRACT: note_on channel=2 note=62 velocity=78 time=0.22388049999999998
EXTRACT: note_on channel=2 note=66 velocity=0 time=0.016791037499999998
EXTRACT: note_on channel=2 note=62 velocity=0 time=0.2070894625
EXTRACT: note_on channel=2 note=54 velocity=75 time=0
EXTRACT: note_on channel=2 note=62 velocity=78 time=0.22388049999999998
EXTRACT: note_on channel=2 note=54 velocity=0 time=0.0447761
EXTRACT: pitchwheel channel=3 pitch=-4221 time=0.15111933749999998
EXTRACT: note_on channel=2 note=62 velocity=0 time=0.0018656708333333332
EXTRACT: note_on channel=2 note=66 velocity=78 time=0
EXTRACT: note_on channel=3 note=76 velocity=90 time=0
EXTRACT: note_on channel=2 note=66 velocity=0 time=0.21641781666666665
EXTRACT: note_on channel=2 note=62 velocity=78 time=0.007462683333333333
EXTRACT: note_on channel=2 note=38 velocity=0 time=0.0503731125
EXTRACT: note_on channel=2 note=45 velocity=0 time=0.009328354166666665
EXTRACT: note_on channel=2 note=62 velocity=0 time=0.0503731125
EXTRACT: pitchwheel channel=3 pitch=-3787 time=0.02238805
EXTRACT: pitchwheel channel=3 pitch=-3649 time=0.0037313416666666663
EXTRACT: pitchwheel channel=3 pitch=-3512 time=0.05223878333333333
EXTRACT: control_change channel=2 control=64 value=0 time=0.01865670833333333
EXTRACT: pitchwheel channel=3 pitch=-3374 time=0.0037313416666666663
EXTRACT: note_on channel=2 note=45 velocity=78 time=0.013059695833333333
EXTRACT: note_on channel=2 note=52 velocity=78 time=0
EXTRACT: note_on channel=2 note=57 velocity=78 time=0
EXTRACT: pitchwheel channel=3 pitch=-3236 time=0.0037313416666666663
EXTRACT: pitchwheel channel=3 pitch=-3099 time=0.014925366666666665
EXTRACT: pitchwheel channel=3 pitch=-2961 time=0.011194025
EXTRACT: pitchwheel channel=3 pitch=-2823 time=0.011194025
EXTRACT: pitchwheel channel=3 pitch=-2686 time=0.011194025
EXTRACT: pitchwheel channel=3 pitch=-2548 time=0.009328354166666665
EXTRACT: pitchwheel channel=3 pitch=-2410 time=0.011194025
EXTRACT: pitchwheel channel=3 pitch=-2273 time=0.009328354166666665
EXTRACT: pitchwheel channel=3 pitch=-2135 time=0.007462683333333333
EXTRACT: pitchwheel channel=3 pitch=-1997 time=0.007462683333333333
EXTRACT: pitchwheel channel=3 pitch=-1860 time=0.007462683333333333
EXTRACT: pitchwheel channel=3 pitch=-1722 time=0.009328354166666665
EXTRACT: pitchwheel channel=3 pitch=-1584 time=0.0055970125
EXTRACT: pitchwheel channel=3 pitch=-1447 time=0.0055970125
EXTRACT: pitchwheel channel=3 pitch=-1309 time=0.009328354166666665
EXTRACT: pitchwheel channel=3 pitch=-1171 time=0.0055970125
EXTRACT: pitchwheel channel=3 pitch=-1034 time=0.0055970125
EXTRACT: pitchwheel channel=3 pitch=-896 time=0.0055970125
EXTRACT: pitchwheel channel=3 pitch=-758 time=0.0055970125
EXTRACT: pitchwheel channel=3 pitch=-621 time=0.0055970125
EXTRACT: pitchwheel channel=3 pitch=-483 time=0.0055970125
EXTRACT: pitchwheel channel=3 pitch=-345 time=0.0055970125
EXTRACT: pitchwheel channel=3 pitch=-208 time=0.0055970125
EXTRACT: pitchwheel channel=3 pitch=-70 time=0.0055970125
EXTRACT: pitchwheel channel=3 pitch=0 time=0.0055970125
EXTRACT: note_on channel=2 note=61 velocity=72 time=0.033582074999999996
EXTRACT: control_change channel=2 control=64 value=127 time=0.12686561666666665
EXTRACT: note_on channel=2 note=64 velocity=76 time=0.09701488333333333
EXTRACT: note_on channel=2 note=61 velocity=0 time=0.03171640416666666
EXTRACT: note_on channel=2 note=57 velocity=0 time=0.09141787083333333
EXTRACT: note_on channel=2 note=61 velocity=76 time=0.100746225
EXTRACT: note_on channel=2 note=64 velocity=0 time=0.020522379166666663
EXTRACT: note_on channel=2 note=61 velocity=0 time=0.18843275416666666
EXTRACT: note_on channel=3 note=76 velocity=0 time=0.007462683333333333
EXTRACT: note_on channel=2 note=57 velocity=74 time=0
EXTRACT: note_on channel=3 note=73 velocity=86 time=0
EXTRACT: note_on channel=2 note=61 velocity=75 time=0.22388049999999998
EXTRACT: note_on channel=2 note=61 velocity=0 time=0.22014915833333332
EXTRACT: note_on channel=2 note=64 velocity=70 time=0.0037313416666666663
EXTRACT: note_on channel=2 note=57 velocity=0 time=0.007462683333333333
EXTRACT: note_on channel=2 note=61 velocity=75 time=0.21641781666666665
EXTRACT: note_on channel=2 note=64 velocity=0 time=0.03171640416666666
EXTRACT: note_on channel=2 note=61 velocity=0 time=0.1791044
EXTRACT: note_on channel=3 note=73 velocity=0 time=0.0055970125
EXTRACT: note_on channel=2 note=57 velocity=76 time=0.007462683333333333
EXTRACT: note_on channel=2 note=61 velocity=75 time=0.22388049999999998
EXTRACT: note_on channel=2 note=61 velocity=0 time=0.20149245
EXTRACT: note_on channel=2 note=64 velocity=73 time=0.02238805
EXTRACT: note_on channel=2 note=57 velocity=0 time=0.09888055416666666
EXTRACT: pitchwheel channel=3 pitch=-8192 time=0.09141787083333333
EXTRACT: note_on channel=2 note=61 velocity=75 time=0
EXTRACT: note_on channel=3 note=78 velocity=90 time=0
EXTRACT: pitchwheel channel=3 pitch=-8035 time=0.0037313416666666663
EXTRACT: pitchwheel channel=3 pitch=-7877 time=0.013059695833333333
EXTRACT: note_on channel=2 note=64 velocity=0 time=0.0018656708333333332
EXTRACT: pitchwheel channel=3 pitch=-7720 time=0.011194025
EXTRACT: pitchwheel channel=3 pitch=-7562 time=0.009328354166666665
EXTRACT: pitchwheel channel=3 pitch=-7405 time=0.009328354166666665
EXTRACT: pitchwheel channel=3 pitch=-7247 time=0.0055970125
EXTRACT: pitchwheel channel=3 pitch=-7090 time=0.007462683333333333
EXTRACT: pitchwheel channel=3 pitch=-6932 time=0.0055970125
EXTRACT: pitchwheel channel=3 pitch=-6775 time=0.0055970125
EXTRACT: pitchwheel channel=3 pitch=-6617 time=0.007462683333333333
EXTRACT: pitchwheel channel=3 pitch=-6460 time=0.0055970125
EXTRACT: pitchwheel channel=3 pitch=-6302 time=0.0055970125
EXTRACT: pitchwheel channel=3 pitch=-6145 time=0.0037313416666666663
EXTRACT: pitchwheel channel=3 pitch=-5987 time=0.0055970125
EXTRACT: pitchwheel channel=3 pitch=-5830 time=0.0037313416666666663
EXTRACT: pitchwheel channel=3 pitch=-5672 time=0.007462683333333333
EXTRACT: pitchwheel channel=3 pitch=-5515 time=0.0018656708333333332
EXTRACT: pitchwheel channel=3 pitch=-5357 time=0.0037313416666666663
EXTRACT: pitchwheel channel=3 pitch=-5199 time=0.0055970125
EXTRACT: pitchwheel channel=3 pitch=-5042 time=0.0037313416666666663
EXTRACT: pitchwheel channel=3 pitch=-4884 time=0.0037313416666666663
EXTRACT: pitchwheel channel=3 pitch=-4727 time=0.0018656708333333332
EXTRACT: pitchwheel channel=3 pitch=-4569 time=0.007462683333333333
EXTRACT: pitchwheel channel=3 pitch=-4412 time=0.0018656708333333332
EXTRACT: pitchwheel channel=3 pitch=-4254 time=0.0037313416666666663
EXTRACT: pitchwheel channel=3 pitch=-4097 time=0.0037313416666666663
EXTRACT: pitchwheel channel=3 pitch=-3939 time=0.0018656708333333332
EXTRACT: pitchwheel channel=3 pitch=-3782 time=0.0037313416666666663
EXTRACT: pitchwheel channel=3 pitch=-3624 time=0.0037313416666666663
EXTRACT: pitchwheel channel=3 pitch=-3467 time=0.0018656708333333332
EXTRACT: pitchwheel channel=3 pitch=-3309 time=0.0037313416666666663
EXTRACT: pitchwheel channel=3 pitch=-3152 time=0.0037313416666666663
EXTRACT: pitchwheel channel=3 pitch=-2994 time=0.0037313416666666663
EXTRACT: pitchwheel channel=3 pitch=-2837 time=0.0018656708333333332
EXTRACT: pitchwheel channel=3 pitch=-2679 time=0.0037313416666666663
EXTRACT: pitchwheel channel=3 pitch=-2521 time=0.0037313416666666663
EXTRACT: pitchwheel channel=3 pitch=-2364 time=0.0018656708333333332
EXTRACT: pitchwheel channel=3 pitch=-2206 time=0.0037313416666666663
EXTRACT: pitchwheel channel=3 pitch=-2049 time=0.0037313416666666663
EXTRACT: pitchwheel channel=3 pitch=-1891 time=0.0018656708333333332
EXTRACT: pitchwheel channel=3 pitch=-1734 time=0.0037313416666666663
EXTRACT: pitchwheel channel=3 pitch=-1576 time=0.0037313416666666663
EXTRACT: pitchwheel channel=3 pitch=-1261 time=0.0018656708333333332
EXTRACT: pitchwheel channel=3 pitch=-1104 time=0.0037313416666666663
EXTRACT: note_on channel=2 note=61 velocity=0 time=0.0018656708333333332
EXTRACT: pitchwheel channel=3 pitch=-946 time=0.0018656708333333332
EXTRACT: pitchwheel channel=3 pitch=-789 time=0.0018656708333333332
EXTRACT: pitchwheel channel=3 pitch=-631 time=0.0037313416666666663
EXTRACT: pitchwheel channel=3 pitch=-316 time=0.0037313416666666663
EXTRACT: pitchwheel channel=3 pitch=-159 time=0.0018656708333333332
EXTRACT: note_on channel=2 note=57 velocity=74 time=0.0037313416666666663
EXTRACT: pitchwheel channel=3 pitch=-1 time=0
EXTRACT: note_on channel=2 note=61 velocity=75 time=0.22388049999999998
EXTRACT: note_on channel=2 note=45 velocity=0 time=0.16604470416666664
EXTRACT: note_on channel=2 note=57 velocity=0 time=0.014925366666666665
EXTRACT: note_on channel=2 note=61 velocity=0 time=0.016791037499999998
EXTRACT: note_on channel=3 note=78 velocity=0 time=0.01865670833333333
EXTRACT: note_on channel=2 note=64 velocity=70 time=0
EXTRACT: note_on channel=3 note=76 velocity=81 time=0
EXTRACT: note_on channel=2 note=52 velocity=0 time=0.0037313416666666663
EXTRACT: note_on channel=3 note=76 velocity=0 time=0.17350738749999997
EXTRACT: note_on channel=2 note=64 velocity=0 time=0.014925366666666665
EXTRACT: note_on channel=2 note=61 velocity=75 time=0.0055970125
EXTRACT: note_on channel=3 note=76 velocity=89 time=0
EXTRACT: note_on channel=2 note=61 velocity=0 time=0.1529850083333333
EXTRACT: note_on channel=2 note=44 velocity=75 time=0.03544774583333333
EXTRACT: note_on channel=2 note=52 velocity=77 time=0
EXTRACT: note_on channel=2 note=56 velocity=75 time=0
EXTRACT: control_change channel=2 control=64 value=0 time=0.02238805
EXTRACT: note_on channel=2 note=61 velocity=70 time=0.20149245
EXTRACT: control_change channel=2 control=64 value=127 time=0.07462683333333332
EXTRACT: note_on channel=2 note=61 velocity=0 time=0.14925366666666665
EXTRACT: note_on channel=2 note=64 velocity=74 time=0
EXTRACT: note_on channel=3 note=76 velocity=0 time=0.18656708333333333
EXTRACT: note_on channel=2 note=61 velocity=70 time=0
EXTRACT: note_on channel=3 note=76 velocity=85 time=0
EXTRACT: note_on channel=2 note=64 velocity=0 time=0.011194025
EXTRACT: note_on channel=2 note=56 velocity=0 time=0
EXTRACT: note_on channel=3 note=76 velocity=0 time=0.09328354166666666
EXTRACT: note_on channel=3 note=74 velocity=78 time=0.007462683333333333
EXTRACT: note_on channel=2 note=61 velocity=0 time=0.09888055416666666
EXTRACT: note_on channel=3 note=74 velocity=0 time=0.0055970125
EXTRACT: note_on channel=2 note=56 velocity=77 time=0.007462683333333333
EXTRACT: note_on channel=3 note=73 velocity=87 time=0
EXTRACT: note_on channel=2 note=61 velocity=70 time=0.22388049999999998
EXTRACT: note_on channel=2 note=61 velocity=0 time=0.19216409583333333
EXTRACT: note_on channel=2 note=64 velocity=74 time=0.03171640416666666
EXTRACT: note_on channel=2 note=56 velocity=0 time=0.04664177083333333
EXTRACT: note_on channel=2 note=61 velocity=74 time=0.17723872916666664
EXTRACT: note_on channel=2 note=64 velocity=0 time=0.0037313416666666663
EXTRACT: pitchwheel channel=3 pitch=206 time=0.0055970125
EXTRACT: pitchwheel channel=3 pitch=0 time=0.0018656708333333332
EXTRACT: pitchwheel channel=3 pitch=-70 time=0.0018656708333333332
EXTRACT: pitchwheel channel=3 pitch=-70 time=0.0037313416666666663
EXTRACT: pitchwheel channel=3 pitch=-208 time=0.0018656708333333332
EXTRACT: pitchwheel channel=3 pitch=-208 time=0.0018656708333333332
EXTRACT: pitchwheel channel=3 pitch=-345 time=0.0037313416666666663
EXTRACT: pitchwheel channel=3 pitch=-483 time=0.0018656708333333332
EXTRACT: pitchwheel channel=3 pitch=-621 time=0.0037313416666666663
EXTRACT: pitchwheel channel=3 pitch=-621 time=0.0037313416666666663
EXTRACT: pitchwheel channel=3 pitch=-758 time=0.0037313416666666663
EXTRACT: pitchwheel channel=3 pitch=-896 time=0.0055970125
EXTRACT: pitchwheel channel=3 pitch=-1034 time=0.0037313416666666663
EXTRACT: pitchwheel channel=3 pitch=-1171 time=0.0055970125
EXTRACT: pitchwheel channel=3 pitch=-1171 time=0.0018656708333333332
EXTRACT: pitchwheel channel=3 pitch=-1309 time=0.0037313416666666663
EXTRACT: pitchwheel channel=3 pitch=-1309 time=0.0018656708333333332
EXTRACT: pitchwheel channel=3 pitch=-1447 time=0.0037313416666666663
EXTRACT: pitchwheel channel=3 pitch=-1447 time=0.0037313416666666663
EXTRACT: pitchwheel channel=3 pitch=-1584 time=0.0018656708333333332
EXTRACT: pitchwheel channel=3 pitch=-1722 time=0.0055970125
EXTRACT: pitchwheel channel=3 pitch=-1860 time=0.0018656708333333332
EXTRACT: pitchwheel channel=3 pitch=-1860 time=0.0018656708333333332
EXTRACT: pitchwheel channel=3 pitch=-1997 time=0.0055970125
EXTRACT: pitchwheel channel=3 pitch=-1997 time=0.0018656708333333332
EXTRACT: pitchwheel channel=3 pitch=-2135 time=0.0018656708333333332
EXTRACT: pitchwheel channel=3 pitch=-2135 time=0.0037313416666666663
EXTRACT: pitchwheel channel=3 pitch=-2273 time=0.0037313416666666663
EXTRACT: pitchwheel channel=3 pitch=-2410 time=0.0018656708333333332
EXTRACT: pitchwheel channel=3 pitch=-2548 time=0.0055970125
EXTRACT: pitchwheel channel=3 pitch=-2548 time=0.0018656708333333332
EXTRACT: pitchwheel channel=3 pitch=-2686 time=0.0055970125
EXTRACT: pitchwheel channel=3 pitch=-2686 time=0.0018656708333333332
EXTRACT: pitchwheel channel=3 pitch=-2686 time=0.0018656708333333332
EXTRACT: pitchwheel channel=3 pitch=-2686 time=0.0037313416666666663
EXTRACT: pitchwheel channel=3 pitch=-2686 time=0.0018656708333333332
EXTRACT: pitchwheel channel=3 pitch=-2823 time=0.0018656708333333332
EXTRACT: pitchwheel channel=3 pitch=-2961 time=0.0037313416666666663
EXTRACT: pitchwheel channel=3 pitch=-3099 time=0.0018656708333333332
EXTRACT: pitchwheel channel=3 pitch=-3236 time=0.0018656708333333332
EXTRACT: pitchwheel channel=3 pitch=-3236 time=0.0018656708333333332
EXTRACT: pitchwheel channel=3 pitch=-3374 time=0.0055970125
EXTRACT: pitchwheel channel=3 pitch=-3512 time=0.0018656708333333332
EXTRACT: pitchwheel channel=3 pitch=-3649 time=0.0055970125
EXTRACT: pitchwheel channel=3 pitch=-3787 time=0.0037313416666666663
EXTRACT: pitchwheel channel=3 pitch=-3787 time=0.0037313416666666663
EXTRACT: pitchwheel channel=3 pitch=-3925 time=0.007462683333333333
EXTRACT: pitchwheel channel=3 pitch=-4062 time=0.0018656708333333332
EXTRACT: pitchwheel channel=3 pitch=-4062 time=0.0018656708333333332
EXTRACT: pitchwheel channel=3 pitch=-4200 time=0.0018656708333333332
EXTRACT: pitchwheel channel=3 pitch=-4200 time=0.0037313416666666663
EXTRACT: pitchwheel channel=3 pitch=-4200 time=0.0018656708333333332
EXTRACT: pitchwheel channel=3 pitch=-4200 time=0.0018656708333333332
EXTRACT: pitchwheel channel=3 pitch=-4200 time=0.0037313416666666663
EXTRACT: pitchwheel channel=3 pitch=-4200 time=0.0018656708333333332
EXTRACT: pitchwheel channel=3 pitch=-4200 time=0.0018656708333333332
EXTRACT: pitchwheel channel=3 pitch=-4338 time=0.0018656708333333332
EXTRACT: pitchwheel channel=3 pitch=-4338 time=0.0037313416666666663
EXTRACT: pitchwheel channel=3 pitch=-4338 time=0.0018656708333333332
EXTRACT: pitchwheel channel=3 pitch=-4338 time=0.0018656708333333332
EXTRACT: pitchwheel channel=3 pitch=-4338 time=0.0055970125
EXTRACT: pitchwheel channel=3 pitch=-4338 time=0.0018656708333333332
EXTRACT: pitchwheel channel=3 pitch=-4338 time=0.0018656708333333332
EXTRACT: note_on channel=2 note=61 velocity=0 time=0.0037313416666666663
EXTRACT: pitchwheel channel=3 pitch=-4338 time=0
EXTRACT: pitchwheel channel=3 pitch=-4338 time=0.0037313416666666663
EXTRACT: pitchwheel channel=3 pitch=-4338 time=0.0037313416666666663
EXTRACT: pitchwheel channel=3 pitch=-4338 time=0.0018656708333333332
EXTRACT: pitchwheel channel=3 pitch=-4200 time=0.0018656708333333332
EXTRACT: pitchwheel channel=3 pitch=-4062 time=0.0018656708333333332
EXTRACT: pitchwheel channel=3 pitch=-4062 time=0.0037313416666666663
EXTRACT: pitchwheel channel=3 pitch=-3925 time=0.0018656708333333332
EXTRACT: pitchwheel channel=3 pitch=-3787 time=0.0018656708333333332
EXTRACT: note_on channel=2 note=56 velocity=75 time=0.0018656708333333332
EXTRACT: pitchwheel channel=3 pitch=-3787 time=0.0018656708333333332
EXTRACT: pitchwheel channel=3 pitch=-3649 time=0.0018656708333333332
EXTRACT: pitchwheel channel=3 pitch=-3512 time=0.0037313416666666663
EXTRACT: pitchwheel channel=3 pitch=-3374 time=0.0037313416666666663
EXTRACT: pitchwheel channel=3 pitch=-3374 time=0.0018656708333333332
EXTRACT: pitchwheel channel=3 pitch=-3236 time=0.0018656708333333332
EXTRACT: pitchwheel channel=3 pitch=-3099 time=0.0055970125
EXTRACT: pitchwheel channel=3 pitch=-2961 time=0.0018656708333333332
EXTRACT: pitchwheel channel=3 pitch=-2961 time=0.0055970125
EXTRACT: pitchwheel channel=3 pitch=-2823 time=0.0018656708333333332
EXTRACT: pitchwheel channel=3 pitch=-2548 time=0.0018656708333333332
EXTRACT: pitchwheel channel=3 pitch=-2410 time=0.0055970125
EXTRACT: pitchwheel channel=3 pitch=-2273 time=0.0018656708333333332
EXTRACT: pitchwheel channel=3 pitch=-2135 time=0.0018656708333333332
EXTRACT: pitchwheel channel=3 pitch=-1997 time=0.0037313416666666663
EXTRACT: pitchwheel channel=3 pitch=-1722 time=0.0018656708333333332
EXTRACT: pitchwheel channel=3 pitch=-1584 time=0.0018656708333333332
EXTRACT: pitchwheel channel=3 pitch=-1584 time=0.0037313416666666663
EXTRACT: pitchwheel channel=3 pitch=-1447 time=0.0018656708333333332
EXTRACT: pitchwheel channel=3 pitch=-1309 time=0.0018656708333333332
EXTRACT: pitchwheel channel=3 pitch=-1171 time=0.0018656708333333332
EXTRACT: pitchwheel channel=3 pitch=-1034 time=0.0037313416666666663
EXTRACT: pitchwheel channel=3 pitch=-896 time=0.0018656708333333332
EXTRACT: pitchwheel channel=3 pitch=-758 time=0.0018656708333333332
EXTRACT: pitchwheel channel=3 pitch=-621 time=0.0037313416666666663
EXTRACT: pitchwheel channel=3 pitch=-621 time=0.0018656708333333332
EXTRACT: pitchwheel channel=3 pitch=-483 time=0.0018656708333333332
EXTRACT: pitchwheel channel=3 pitch=-208 time=0.0018656708333333332
EXTRACT: pitchwheel channel=3 pitch=0 time=0.0037313416666666663
EXTRACT: note_on channel=3 note=73 velocity=0 time=0.13992531249999998
EXTRACT: note_on channel=2 note=61 velocity=68 time=0.0055970125
EXTRACT: note_on channel=2 note=61 velocity=0 time=0.19776110833333332
EXTRACT: note_on channel=2 note=64 velocity=74 time=0.026119391666666665
EXTRACT: note_on channel=2 note=56 velocity=0 time=0.08395518749999999
EXTRACT: note_on channel=2 note=61 velocity=71 time=0.13992531249999998
EXTRACT: note_on channel=2 note=64 velocity=0 time=0.03171640416666666
EXTRACT: note_on channel=2 note=61 velocity=0 time=0.1585820208333333
EXTRACT: note_on channel=2 note=56 velocity=77 time=0
EXTRACT: note_on channel=3 note=73 velocity=88 time=0
EXTRACT: note_on channel=3 note=73 velocity=0 time=0.18843275416666666
EXTRACT: pitchwheel channel=3 pitch=-4552 time=0.02238805
EXTRACT: pitchwheel channel=3 pitch=-4386 time=0.0037313416666666663
EXTRACT: note_on channel=2 note=61 velocity=73 time=0
EXTRACT: note_on channel=3 note=73 velocity=84 time=0
EXTRACT: pitchwheel channel=3 pitch=-4221 time=0.04104475833333333
EXTRACT: pitchwheel channel=3 pitch=-4055 time=0.02238805
EXTRACT: pitchwheel channel=3 pitch=-3890 time=0.016791037499999998
EXTRACT: pitchwheel channel=3 pitch=-3724 time=0.014925366666666665
EXTRACT: pitchwheel channel=3 pitch=-3559 time=0.011194025
EXTRACT: pitchwheel channel=3 pitch=-3393 time=0.011194025
EXTRACT: pitchwheel channel=3 pitch=-3228 time=0.011194025
EXTRACT: pitchwheel channel=3 pitch=-3062 time=0.009328354166666665
EXTRACT: pitchwheel channel=3 pitch=-2897 time=0.007462683333333333
EXTRACT: pitchwheel channel=3 pitch=-2731 time=0.011194025
EXTRACT: pitchwheel channel=3 pitch=-2566 time=0.007462683333333333
EXTRACT: pitchwheel channel=3 pitch=-2401 time=0.007462683333333333
EXTRACT: note_on channel=2 note=61 velocity=0 time=0.0037313416666666663
EXTRACT: pitchwheel channel=3 pitch=-2235 time=0.0037313416666666663
EXTRACT: pitchwheel channel=3 pitch=-2070 time=0.0055970125
EXTRACT: pitchwheel channel=3 pitch=-1904 time=0.009328354166666665
EXTRACT: pitchwheel channel=3 pitch=-1739 time=0.0055970125
EXTRACT: pitchwheel channel=3 pitch=-1573 time=0.0055970125
EXTRACT: pitchwheel channel=3 pitch=-1408 time=0.007462683333333333
EXTRACT: pitchwheel channel=3 pitch=-1242 time=0.007462683333333333
EXTRACT: note_on channel=2 note=64 velocity=76 time=0.0037313416666666663
EXTRACT: pitchwheel channel=3 pitch=-1077 time=0.0018656708333333332
EXTRACT: pitchwheel channel=3 pitch=-911 time=0.0055970125
EXTRACT: pitchwheel channel=3 pitch=-746 time=0.0037313416666666663
EXTRACT: pitchwheel channel=3 pitch=-580 time=0.0055970125
EXTRACT: pitchwheel channel=3 pitch=-415 time=0.0055970125
EXTRACT: pitchwheel channel=3 pitch=-249 time=0.007462683333333333
EXTRACT: pitchwheel channel=3 pitch=-84 time=0.0037313416666666663
EXTRACT: pitchwheel channel=3 pitch=0 time=0.0055970125
EXTRACT: note_on channel=2 note=44 velocity=0 time=0.013059695833333333
EXTRACT: note_on channel=2 note=52 velocity=0 time=0.05783579583333333
EXTRACT: note_on channel=2 note=56 velocity=0 time=0.039179087499999994
EXTRACT: note_on channel=2 note=61 velocity=72 time=0.07462683333333332
EXTRACT: note_on channel=2 note=64 velocity=0 time=0.016791037499999998
EXTRACT: note_on channel=2 note=61 velocity=0 time=0.16791037499999997
EXTRACT: note_on channel=3 note=73 velocity=0 time=0.03171640416666666
EXTRACT: note_on channel=2 note=42 velocity=76 time=0
EXTRACT: note_on channel=2 note=49 velocity=76 time=0
EXTRACT: note_on channel=2 note=54 velocity=73 time=0
EXTRACT: note_on channel=3 note=66 velocity=86 time=0
EXTRACT: control_change channel=2 control=64 value=0 time=0.05410445416666666
EXTRACT: note_on channel=2 note=61 velocity=78 time=0.1697760458333333
EXTRACT: control_change channel=2 control=64 value=127 time=0.10447756666666666
EXTRACT: note_on channel=2 note=61 velocity=0 time=0.03544774583333333
EXTRACT: note_on channel=3 note=66 velocity=0 time=0.04104475833333333
EXTRACT: note_on channel=2 note=66 velocity=78 time=0
EXTRACT: note_on channel=3 note=66 velocity=79 time=0
EXTRACT: note_on channel=2 note=54 velocity=0 time=0.100746225
EXTRACT: note_on channel=3 note=66 velocity=0 time=0.11567159166666666
EXTRACT: note_on channel=2 note=61 velocity=79 time=0
EXTRACT: note_on channel=3 note=69 velocity=86 time=0
EXTRACT: note_on channel=2 note=66 velocity=0 time=0.0037313416666666663
EXTRACT: note_on channel=2 note=61 velocity=0 time=0.20149245
EXTRACT: note_on channel=2 note=54 velocity=80 time=0.01865670833333333
EXTRACT: note_on channel=2 note=61 velocity=81 time=0.22388049999999998
EXTRACT: note_on channel=2 note=54 velocity=0 time=0.04104475833333333
EXTRACT: note_on channel=2 note=66 velocity=81 time=0.18283574166666666
EXTRACT: note_on channel=2 note=61 velocity=0 time=0.026119391666666665
EXTRACT: note_on channel=3 note=69 velocity=0 time=0.190298425
EXTRACT: note_on channel=2 note=61 velocity=82 time=0
EXTRACT: note_on channel=3 note=66 velocity=85 time=0
EXTRACT: note_on channel=2 note=66 velocity=0 time=0.027985062499999998
EXTRACT: note_on channel=2 note=61 velocity=0 time=0.1847014125
EXTRACT: note_on channel=2 note=54 velocity=82 time=0.011194025
EXTRACT: note_on channel=3 note=66 velocity=0 time=0.21641781666666665
EXTRACT: note_on channel=2 note=61 velocity=82 time=0.007462683333333333
EXTRACT: note_on channel=3 note=64 velocity=57 time=0
EXTRACT: note_on channel=2 note=54 velocity=0 time=0.04104475833333333
EXTRACT: note_on channel=2 note=61 velocity=0 time=0.16791037499999997
EXTRACT: note_on channel=3 note=64 velocity=0 time=0.007462683333333333
EXTRACT: note_on channel=2 note=66 velocity=81 time=0.007462683333333333
EXTRACT: note_on channel=2 note=61 velocity=81 time=0.22388049999999998
EXTRACT: note_on channel=2 note=66 velocity=0 time=0.016791037499999998
EXTRACT: note_on channel=2 note=61 velocity=0 time=0.15671634999999998
EXTRACT: note_on channel=2 note=54 velocity=80 time=0.0503731125
EXTRACT: note_on channel=2 note=61 velocity=79 time=0
EXTRACT: note_on channel=3 note=64 velocity=85 time=0
EXTRACT: note_on channel=2 note=49 velocity=0 time=0.1529850083333333
EXTRACT: note_on channel=2 note=61 velocity=0 time=0.0018656708333333332
EXTRACT: note_on channel=2 note=42 velocity=0 time=0.01865670833333333
EXTRACT: note_on channel=3 note=64 velocity=0 time=0.04291042916666666
EXTRACT: note_on channel=2 note=66 velocity=79 time=0.007462683333333333
EXTRACT: note_on channel=3 note=66 velocity=88 time=0
EXTRACT: note_on channel=2 note=54 velocity=0 time=0.08768652916666665
EXTRACT: note_on channel=2 note=61 velocity=79 time=0.13619397083333332
EXTRACT: note_on channel=2 note=66 velocity=0 time=0.013059695833333333
EXTRACT: note_on channel=2 note=61 velocity=0 time=0.19962677916666666
EXTRACT: note_on channel=3 note=66 velocity=0 time=0.0037313416666666663
EXTRACT: note_on channel=2 note=38 velocity=81 time=0
EXTRACT: note_on channel=2 note=45 velocity=81 time=0
EXTRACT: note_on channel=2 note=54 velocity=81 time=0
EXTRACT: note_on channel=3 note=71 velocity=87 time=0
EXTRACT: pitchwheel channel=3 pitch=-1 time=0
EXTRACT: control_change channel=2 control=64 value=0 time=0.033582074999999996
EXTRACT: pitchwheel channel=3 pitch=-415 time=0
EXTRACT: pitchwheel channel=3 pitch=-580 time=0.0018656708333333332
EXTRACT: pitchwheel channel=3 pitch=-746 time=0.0018656708333333332
EXTRACT: pitchwheel channel=3 pitch=-1 time=0.0018656708333333332
EXTRACT: pitchwheel channel=3 pitch=-310 time=0.0055970125
EXTRACT: pitchwheel channel=3 pitch=-465 time=0.0018656708333333332
EXTRACT: pitchwheel channel=3 pitch=-465 time=0.0018656708333333332
EXTRACT: pitchwheel channel=3 pitch=-619 time=0.0037313416666666663
EXTRACT: pitchwheel channel=3 pitch=-928 time=0.0018656708333333332
EXTRACT: pitchwheel channel=3 pitch=-1083 time=0.0055970125
EXTRACT: pitchwheel channel=3 pitch=-1237 time=0.0018656708333333332
EXTRACT: pitchwheel channel=3 pitch=-1237 time=0.0018656708333333332
EXTRACT: pitchwheel channel=3 pitch=-1547 time=0.0018656708333333332
EXTRACT: pitchwheel channel=3 pitch=-1547 time=0.0037313416666666663
EXTRACT: pitchwheel channel=3 pitch=-1856 time=0.0037313416666666663
EXTRACT: pitchwheel channel=3 pitch=-1856 time=0.0018656708333333332
EXTRACT: pitchwheel channel=3 pitch=-2010 time=0.0018656708333333332
EXTRACT: pitchwheel channel=3 pitch=-2165 time=0.0018656708333333332
EXTRACT: pitchwheel channel=3 pitch=-2319 time=0.0018656708333333332
EXTRACT: pitchwheel channel=3 pitch=-2474 time=0.0018656708333333332
EXTRACT: pitchwheel channel=3 pitch=-2628 time=0.0055970125
EXTRACT: pitchwheel channel=3 pitch=-2628 time=0.0018656708333333332
EXTRACT: pitchwheel channel=3 pitch=-2628 time=0.0018656708333333332
EXTRACT: pitchwheel channel=3 pitch=-2783 time=0.0018656708333333332
EXTRACT: pitchwheel channel=3 pitch=-2938 time=0.0018656708333333332
EXTRACT: pitchwheel channel=3 pitch=-3092 time=0.0037313416666666663
EXTRACT: pitchwheel channel=3 pitch=-3092 time=0.0018656708333333332
EXTRACT: pitchwheel channel=3 pitch=-3247 time=0.0018656708333333332
EXTRACT: pitchwheel channel=3 pitch=-3247 time=0.0018656708333333332
EXTRACT: pitchwheel channel=3 pitch=-3556 time=0.0018656708333333332
EXTRACT: pitchwheel channel=3 pitch=-3865 time=0.0018656708333333332
EXTRACT: pitchwheel channel=3 pitch=-3865 time=0.0055970125
EXTRACT: pitchwheel channel=3 pitch=-4019 time=0.0018656708333333332
EXTRACT: pitchwheel channel=3 pitch=-4329 time=0.0018656708333333332
EXTRACT: pitchwheel channel=3 pitch=-4329 time=0.0018656708333333332
EXTRACT: pitchwheel channel=3 pitch=-4483 time=0.0018656708333333332
EXTRACT: pitchwheel channel=3 pitch=-4483 time=0.0018656708333333332
EXTRACT: pitchwheel channel=3 pitch=-4638 time=0.0037313416666666663
EXTRACT: pitchwheel channel=3 pitch=-4947 time=0.0037313416666666663
EXTRACT: pitchwheel channel=3 pitch=-4947 time=0.0018656708333333332
EXTRACT: pitchwheel channel=3 pitch=-5256 time=0.0018656708333333332
EXTRACT: pitchwheel channel=3 pitch=-5410 time=0.0018656708333333332
EXTRACT: pitchwheel channel=3 pitch=-5874 time=0.0055970125
EXTRACT: pitchwheel channel=3 pitch=-5874 time=0.0018656708333333332
EXTRACT: pitchwheel channel=3 pitch=-5874 time=0.0018656708333333332
EXTRACT: pitchwheel channel=3 pitch=-6183 time=0.0018656708333333332
EXTRACT: pitchwheel channel=3 pitch=-6338 time=0.0037313416666666663
EXTRACT: pitchwheel channel=3 pitch=-6647 time=0.0037313416666666663
EXTRACT: pitchwheel channel=3 pitch=-6801 time=0.0018656708333333332
EXTRACT: pitchwheel channel=3 pitch=-6956 time=0.0018656708333333332
EXTRACT: pitchwheel channel=3 pitch=-7111 time=0.0037313416666666663
EXTRACT: pitchwheel channel=3 pitch=-7265 time=0.0018656708333333332
EXTRACT: pitchwheel channel=3 pitch=-7420 time=0.0037313416666666663
EXTRACT: pitchwheel channel=3 pitch=-7420 time=0.0018656708333333332
EXTRACT: pitchwheel channel=3 pitch=-7574 time=0.0018656708333333332
EXTRACT: pitchwheel channel=3 pitch=-7883 time=0.0018656708333333332
EXTRACT: pitchwheel channel=3 pitch=-8192 time=0.0018656708333333332
EXTRACT: pitchwheel channel=3 pitch=-8192 time=0.0018656708333333332
EXTRACT: pitchwheel channel=3 pitch=-8192 time=0.0018656708333333332
EXTRACT: pitchwheel channel=3 pitch=-8192 time=0.0037313416666666663
EXTRACT: pitchwheel channel=3 pitch=-8192 time=0.0018656708333333332
EXTRACT: pitchwheel channel=3 pitch=-8192 time=0.0018656708333333332
EXTRACT: pitchwheel channel=3 pitch=-8192 time=0.0018656708333333332
EXTRACT: pitchwheel channel=3 pitch=-8192 time=0.0018656708333333332
EXTRACT: pitchwheel channel=3 pitch=-8192 time=0.0018656708333333332
EXTRACT: pitchwheel channel=3 pitch=-8192 time=0.0037313416666666663
EXTRACT: pitchwheel channel=3 pitch=-8192 time=0.0018656708333333332
EXTRACT: pitchwheel channel=3 pitch=-8192 time=0.0018656708333333332
EXTRACT: pitchwheel channel=3 pitch=-8192 time=0.0018656708333333332
EXTRACT: pitchwheel channel=3 pitch=-8192 time=0.0018656708333333332
EXTRACT: pitchwheel channel=3 pitch=-8192 time=0.0018656708333333332
EXTRACT: pitchwheel channel=3 pitch=-8192 time=0.0018656708333333332
EXTRACT: pitchwheel channel=3 pitch=-8192 time=0.0037313416666666663
EXTRACT: pitchwheel channel=3 pitch=-8192 time=0.0018656708333333332
EXTRACT: pitchwheel channel=3 pitch=-8192 time=0.0018656708333333332
EXTRACT: pitchwheel channel=3 pitch=-8192 time=0.0018656708333333332
EXTRACT: pitchwheel channel=3 pitch=-8192 time=0.0018656708333333332
EXTRACT: pitchwheel channel=3 pitch=-8192 time=0.0018656708333333332
EXTRACT: note_on channel=2 note=57 velocity=78 time=0.0037313416666666663
EXTRACT: pitchwheel channel=3 pitch=-8192 time=0
EXTRACT: pitchwheel channel=3 pitch=-8192 time=0.0018656708333333332
EXTRACT: pitchwheel channel=3 pitch=-8192 time=0.0018656708333333332
EXTRACT: pitchwheel channel=3 pitch=-8192 time=0.0018656708333333332
EXTRACT: pitchwheel channel=3 pitch=-8192 time=0.0018656708333333332
EXTRACT: pitchwheel channel=3 pitch=-8192 time=0.0018656708333333332
EXTRACT: pitchwheel channel=3 pitch=-8192 time=0.0037313416666666663
EXTRACT: pitchwheel channel=3 pitch=-8027 time=0.0018656708333333332
EXTRACT: pitchwheel channel=3 pitch=-7696 time=0.0037313416666666663
EXTRACT: pitchwheel channel=3 pitch=-7531 time=0.0037313416666666663
EXTRACT: pitchwheel channel=3 pitch=-7365 time=0.0055970125
EXTRACT: pitchwheel channel=3 pitch=-7200 time=0.0037313416666666663
EXTRACT: pitchwheel channel=3 pitch=-6869 time=0.0037313416666666663
EXTRACT: pitchwheel channel=3 pitch=-6869 time=0.0018656708333333332
EXTRACT: pitchwheel channel=3 pitch=-6703 time=0.0037313416666666663
EXTRACT: pitchwheel channel=3 pitch=-6207 time=0.0037313416666666663
EXTRACT: pitchwheel channel=3 pitch=-6207 time=0.0037313416666666663
EXTRACT: pitchwheel channel=3 pitch=-6041 time=0.0018656708333333332
EXTRACT: pitchwheel channel=3 pitch=-5876 time=0.0018656708333333332
EXTRACT: pitchwheel channel=3 pitch=-5876 time=0.0037313416666666663
EXTRACT: pitchwheel channel=3 pitch=-5710 time=0.0018656708333333332
EXTRACT: pitchwheel channel=3 pitch=-5545 time=0.0018656708333333332
EXTRACT: pitchwheel channel=3 pitch=-5379 time=0.0018656708333333332
EXTRACT: pitchwheel channel=3 pitch=-5214 time=0.0018656708333333332
EXTRACT: pitchwheel channel=3 pitch=-4883 time=0.0018656708333333332
EXTRACT: pitchwheel channel=3 pitch=-4717 time=0.0055970125
EXTRACT: pitchwheel channel=3 pitch=-4221 time=0.0018656708333333332
EXTRACT: pitchwheel channel=3 pitch=-3890 time=0.0018656708333333332
EXTRACT: pitchwheel channel=3 pitch=-3890 time=0.0037313416666666663
EXTRACT: pitchwheel channel=3 pitch=-3724 time=0.0037313416666666663
EXTRACT: pitchwheel channel=3 pitch=-3559 time=0.0018656708333333332
EXTRACT: pitchwheel channel=3 pitch=-3393 time=0.0018656708333333332
EXTRACT: pitchwheel channel=3 pitch=-3393 time=0.0018656708333333332
EXTRACT: pitchwheel channel=3 pitch=-3228 time=0.0018656708333333332
EXTRACT: pitchwheel channel=3 pitch=-2897 time=0.0018656708333333332
EXTRACT: pitchwheel channel=3 pitch=-2731 time=0.0018656708333333332
EXTRACT: pitchwheel channel=3 pitch=-2566 time=0.0037313416666666663
EXTRACT: control_change channel=2 control=64 value=127 time=0.0018656708333333332
EXTRACT: pitchwheel channel=3 pitch=-2401 time=0
EXTRACT: pitchwheel channel=3 pitch=-2401 time=0.0018656708333333332
EXTRACT: pitchwheel channel=3 pitch=-2235 time=0.0018656708333333332
EXTRACT: pitchwheel channel=3 pitch=-1904 time=0.0018656708333333332
EXTRACT: pitchwheel channel=3 pitch=-1739 time=0.0018656708333333332
EXTRACT: pitchwheel channel=3 pitch=-1573 time=0.0055970125
EXTRACT: pitchwheel channel=3 pitch=-1408 time=0.0018656708333333332
EXTRACT: pitchwheel channel=3 pitch=-1242 time=0.0018656708333333332
EXTRACT: pitchwheel channel=3 pitch=-1242 time=0.0018656708333333332
EXTRACT: pitchwheel channel=3 pitch=-1077 time=0.0018656708333333332
EXTRACT: pitchwheel channel=3 pitch=-911 time=0.0037313416666666663
EXTRACT: pitchwheel channel=3 pitch=-746 time=0.0018656708333333332
EXTRACT: pitchwheel channel=3 pitch=-580 time=0.0018656708333333332
EXTRACT: pitchwheel channel=3 pitch=-415 time=0.0018656708333333332
EXTRACT: pitchwheel channel=3 pitch=-249 time=0.0018656708333333332
EXTRACT: pitchwheel channel=3 pitch=-249 time=0.0018656708333333332
EXTRACT: pitchwheel channel=3 pitch=0 time=0.0018656708333333332
EXTRACT: note_on channel=2 note=66 velocity=78 time=0.0895522
EXTRACT: note_on channel=2 note=57 velocity=0 time=0.04664177083333333
EXTRACT: note_on channel=2 note=54 velocity=0 time=0.17723872916666664
EXTRACT: note_on channel=2 note=57 velocity=79 time=0
EXTRACT: note_on channel=2 note=66 velocity=0 time=0.011194025
EXTRACT: note_on channel=2 note=54 velocity=79 time=0.21268647499999999
EXTRACT: note_on channel=2 note=57 velocity=0 time=0.0055970125
EXTRACT: note_on channel=3 note=71 velocity=0 time=0.16044769166666664
EXTRACT: note_on channel=2 note=57 velocity=79 time=0
EXTRACT: note_on channel=3 note=71 velocity=89 time=0
EXTRACT: note_on channel=3 note=71 velocity=0 time=0.21641781666666665
EXTRACT: note_on channel=2 note=54 velocity=0 time=0.0037313416666666663
EXTRACT: note_on channel=2 note=66 velocity=79 time=0
EXTRACT: note_on channel=3 note=69 velocity=82 time=0
EXTRACT: note_on channel=2 note=57 velocity=0 time=0.01865670833333333
EXTRACT: note_on channel=3 note=69 velocity=0 time=0.19776110833333332
EXTRACT: note_on channel=2 note=57 velocity=79 time=0
EXTRACT: note_on channel=3 note=71 velocity=87 time=0
EXTRACT: note_on channel=2 note=66 velocity=0 time=0.016791037499999998
EXTRACT: note_on channel=2 note=57 velocity=0 time=0.18843275416666666
EXTRACT: note_on channel=2 note=54 velocity=79 time=0.01865670833333333
EXTRACT: note_on channel=2 note=57 velocity=79 time=0.22388049999999998
EXTRACT: note_on channel=2 note=54 velocity=0 time=0.027985062499999998
EXTRACT: note_on channel=2 note=57 velocity=0 time=0.17723872916666664
EXTRACT: note_on channel=3 note=71 velocity=0 time=0.011194025
EXTRACT: note_on channel=2 note=66 velocity=79 time=0.007462683333333333
EXTRACT: note_on channel=3 note=73 velocity=79 time=0
EXTRACT: note_on channel=2 note=57 velocity=79 time=0.22388049999999998
EXTRACT: note_on channel=2 note=66 velocity=0 time=0.016791037499999998
EXTRACT: note_on channel=3 note=73 velocity=0 time=0.19962677916666666
EXTRACT: note_on channel=2 note=57 velocity=0 time=0.007462683333333333
EXTRACT: note_on channel=2 note=54 velocity=79 time=0
EXTRACT: note_on channel=2 note=57 velocity=79 time=0.22388049999999998
EXTRACT: note_on channel=2 note=54 velocity=0 time=0.0447761
EXTRACT: note_on channel=2 note=57 velocity=0 time=0.1529850083333333
EXTRACT: note_on channel=2 note=66 velocity=79 time=0.026119391666666665
EXTRACT: note_on channel=2 note=66 velocity=0 time=0.21641781666666665
EXTRACT: note_on channel=2 note=57 velocity=79 time=0.007462683333333333
EXTRACT: note_on channel=2 note=38 velocity=0 time=0.014925366666666665
EXTRACT: note_on channel=2 note=45 velocity=0 time=0.009328354166666665
EXTRACT: note_on channel=2 note=57 velocity=0 time=0.0503731125
EXTRACT: control_change channel=2 control=64 value=0 time=0.09701488333333333
EXTRACT: note_on channel=2 note=40 velocity=76 time=0
EXTRACT: note_on channel=2 note=47 velocity=76 time=0
EXTRACT: note_on channel=2 note=54 velocity=76 time=0
EXTRACT: note_on channel=3 note=71 velocity=89 time=0
EXTRACT: control_change channel=2 control=64 value=0 time=0.033582074999999996
EXTRACT: note_on channel=3 note=71 velocity=0 time=0.18283574166666666
EXTRACT: note_on channel=2 note=56 velocity=75 time=0
EXTRACT: note_on channel=3 note=73 velocity=80 time=0
EXTRACT: control_change channel=2 control=64 value=127 time=0.09888055416666666
EXTRACT: note_on channel=3 note=73 velocity=0 time=0.08395518749999999
EXTRACT: note_on channel=2 note=64 velocity=74 time=0
EXTRACT: note_on channel=3 note=73 velocity=82 time=0
EXTRACT: note_on channel=2 note=56 velocity=0 time=0.04664177083333333
EXTRACT: note_on channel=3 note=73 velocity=0 time=0.13619397083333332
EXTRACT: note_on channel=2 note=54 velocity=0 time=0.04104475833333333
EXTRACT: note_on channel=2 note=56 velocity=74 time=0
EXTRACT: note_on channel=3 note=73 velocity=88 time=0
EXTRACT: note_on channel=2 note=64 velocity=0 time=0.011194025
EXTRACT: note_on channel=2 note=54 velocity=75 time=0.21268647499999999
EXTRACT: note_on channel=2 note=56 velocity=0 time=0.0055970125
EXTRACT: note_on channel=3 note=73 velocity=0 time=0.1958954375
EXTRACT: note_on channel=2 note=56 velocity=74 time=0
EXTRACT: note_on channel=3 note=71 velocity=84 time=0
EXTRACT: note_on channel=3 note=71 velocity=0 time=0.18283574166666666
EXTRACT: note_on channel=2 note=54 velocity=0 time=0.03731341666666666
EXTRACT: note_on channel=2 note=64 velocity=74 time=0
EXTRACT: note_on channel=3 note=71 velocity=87 time=0
EXTRACT: note_on channel=2 note=56 velocity=0 time=0.01865670833333333
EXTRACT: note_on channel=3 note=71 velocity=0 time=0.19776110833333332
EXTRACT: note_on channel=2 note=56 velocity=77 time=0
EXTRACT: note_on channel=3 note=69 velocity=85 time=0
EXTRACT: note_on channel=2 note=64 velocity=0 time=0.016791037499999998
EXTRACT: note_on channel=2 note=56 velocity=0 time=0.18843275416666666
EXTRACT: note_on channel=3 note=69 velocity=0 time=0.011194025
EXTRACT: note_on channel=2 note=47 velocity=0 time=0
EXTRACT: note_on channel=2 note=40 velocity=0 time=0
EXTRACT: note_on channel=2 note=42 velocity=76 time=0
EXTRACT: note_on channel=2 note=49 velocity=76 time=0
EXTRACT: note_on channel=2 note=54 velocity=75 time=0
EXTRACT: note_on channel=3 note=71 velocity=94 time=0
EXTRACT: control_change channel=2 control=64 value=0 time=0.0951492125
EXTRACT: control_change channel=2 control=64 value=127 time=0.09701488333333333
EXTRACT: note_on channel=2 note=57 velocity=74 time=0.03171640416666666
EXTRACT: note_on channel=2 note=54 velocity=0 time=0.027985062499999998
EXTRACT: note_on channel=3 note=71 velocity=0 time=0.13992531249999998
EXTRACT: note_on channel=2 note=57 velocity=0 time=0.03731341666666666
EXTRACT: note_on channel=2 note=64 velocity=74 time=0
EXTRACT: note_on channel=3 note=71 velocity=86 time=0
EXTRACT: note_on channel=3 note=71 velocity=0 time=0.21641781666666665
EXTRACT: note_on channel=2 note=57 velocity=78 time=0
EXTRACT: note_on channel=3 note=69 velocity=86 time=0
EXTRACT: note_on channel=2 note=64 velocity=0 time=0.016791037499999998
EXTRACT: note_on channel=3 note=69 velocity=0 time=0.19962677916666666
EXTRACT: note_on channel=2 note=57 velocity=0 time=0.007462683333333333
EXTRACT: note_on channel=2 note=54 velocity=75 time=0
EXTRACT: note_on channel=3 note=71 velocity=86 time=0
EXTRACT: note_on channel=3 note=71 velocity=0 time=0.21641781666666665
EXTRACT: note_on channel=2 note=57 velocity=78 time=0
EXTRACT: note_on channel=3 note=69 velocity=88 time=0
EXTRACT: note_on channel=2 note=54 velocity=0 time=0.0447761
EXTRACT: note_on channel=3 note=69 velocity=0 time=0.15111933749999998
EXTRACT: note_on channel=2 note=57 velocity=0 time=0.0018656708333333332
EXTRACT: note_on channel=2 note=64 velocity=78 time=0
EXTRACT: note_on channel=3 note=69 velocity=85 time=0
EXTRACT: note_on channel=3 note=69 velocity=0 time=0.11567159166666666
EXTRACT: note_on channel=3 note=69 velocity=88 time=0
EXTRACT: note_on channel=2 note=64 velocity=0 time=0.06343280833333333
EXTRACT: note_on channel=2 note=57 velocity=78 time=0.007462683333333333
EXTRACT: note_on channel=2 note=42 velocity=0 time=0.0503731125
EXTRACT: note_on channel=2 note=49 velocity=0 time=0.009328354166666665
EXTRACT: note_on channel=2 note=57 velocity=0 time=0.0503731125
EXTRACT: note_on channel=2 note=38 velocity=76 time=0.11380592083333332
EXTRACT: note_on channel=2 note=45 velocity=76 time=0
EXTRACT: note_on channel=2 note=54 velocity=76 time=0
EXTRACT: control_change channel=2 control=64 value=0 time=0.033582074999999996
EXTRACT: control_change channel=2 control=64 value=0 time=0.07835817499999999
EXTRACT: note_on channel=2 note=57 velocity=71 time=0.11194024999999999
EXTRACT: control_change channel=2 control=64 value=127 time=0.09888055416666666
EXTRACT: note_on channel=3 note=69 velocity=0 time=0.11380592083333332
EXTRACT: note_on channel=2 note=62 velocity=74 time=0
EXTRACT: note_on channel=3 note=71 velocity=87 time=0
EXTRACT: note_on channel=2 note=57 velocity=0 time=0.04664177083333333
EXTRACT: note_on channel=3 note=71 velocity=0 time=0.08582085833333332
EXTRACT: note_on channel=3 note=69 velocity=78 time=0
EXTRACT: note_on channel=2 note=54 velocity=0 time=0.08395518749999999
EXTRACT: note_on channel=2 note=57 velocity=74 time=0
EXTRACT: note_on channel=2 note=62 velocity=0 time=0.011194025
EXTRACT: note_on channel=3 note=69 velocity=0 time=0.20522379166666666
EXTRACT: note_on channel=2 note=54 velocity=75 time=0
EXTRACT: note_on channel=3 note=71 velocity=89 time=0
EXTRACT: note_on channel=2 note=57 velocity=0 time=0.0055970125
EXTRACT: note_on channel=3 note=71 velocity=0 time=0.21082080416666665
EXTRACT: note_on channel=2 note=57 velocity=74 time=0
EXTRACT: note_on channel=3 note=69 velocity=78 time=0
EXTRACT: note_on channel=3 note=69 velocity=0 time=0.21641781666666665
EXTRACT: note_on channel=2 note=54 velocity=0 time=0.0037313416666666663
EXTRACT: note_on channel=2 note=62 velocity=74 time=0
EXTRACT: note_on channel=3 note=71 velocity=86 time=0
EXTRACT: note_on channel=2 note=57 velocity=0 time=0.01865670833333333
EXTRACT: note_on channel=2 note=57 velocity=77 time=0.20522379166666666
EXTRACT: note_on channel=2 note=62 velocity=0 time=0.016791037499999998
EXTRACT: note_on channel=2 note=57 velocity=0 time=0.18843275416666666
EXTRACT: note_on channel=2 note=54 velocity=75 time=0.01865670833333333
EXTRACT: note_on channel=3 note=71 velocity=0 time=0.21641781666666665
EXTRACT: note_on channel=2 note=57 velocity=74 time=0
EXTRACT: note_on channel=3 note=69 velocity=86 time=0
EXTRACT: note_on channel=2 note=54 velocity=0 time=0.027985062499999998
EXTRACT: note_on channel=2 note=57 velocity=0 time=0.17723872916666664
EXTRACT: note_on channel=3 note=69 velocity=0 time=0.011194025
EXTRACT: note_on channel=2 note=62 velocity=74 time=0
EXTRACT: note_on channel=3 note=71 velocity=88 time=0
EXTRACT: note_on channel=3 note=71 velocity=0 time=0.13619397083333332
EXTRACT: note_on channel=3 note=69 velocity=78 time=0
EXTRACT: note_on channel=2 note=57 velocity=78 time=0.08395518749999999
EXTRACT: note_on channel=2 note=62 velocity=0 time=0.016791037499999998
EXTRACT: note_on channel=3 note=69 velocity=0 time=0.19962677916666666
EXTRACT: note_on channel=2 note=57 velocity=0 time=0.007462683333333333
EXTRACT: note_on channel=2 note=54 velocity=75 time=0
EXTRACT: note_on channel=3 note=71 velocity=89 time=0
EXTRACT: note_on channel=3 note=71 velocity=0 time=0.21641781666666665
EXTRACT: note_on channel=2 note=57 velocity=78 time=0
EXTRACT: note_on channel=3 note=69 velocity=78 time=0
EXTRACT: note_on channel=2 note=54 velocity=0 time=0.0447761
EXTRACT: note_on channel=3 note=69 velocity=0 time=0.14179098333333331
EXTRACT: note_on channel=2 note=57 velocity=0 time=0.011194025
EXTRACT: note_on channel=2 note=62 velocity=78 time=0
EXTRACT: note_on channel=3 note=69 velocity=88 time=0
EXTRACT: note_on channel=3 note=69 velocity=0 time=0.18656708333333333
EXTRACT: note_on channel=2 note=62 velocity=0 time=0.02985073333333333
EXTRACT: note_on channel=2 note=57 velocity=78 time=0
EXTRACT: note_on channel=3 note=69 velocity=83 time=0
EXTRACT: note_on channel=2 note=38 velocity=0 time=0.0503731125
EXTRACT: note_on channel=2 note=45 velocity=0 time=0.009328354166666665
EXTRACT: note_on channel=2 note=57 velocity=0 time=0.0503731125
EXTRACT: control_change channel=2 control=64 value=0 time=0.09701488333333333
EXTRACT: note_on channel=3 note=69 velocity=0 time=0.009328354166666665
EXTRACT: note_on channel=2 note=40 velocity=76 time=0
EXTRACT: note_on channel=2 note=47 velocity=76 time=0
EXTRACT: note_on channel=2 note=54 velocity=76 time=0
EXTRACT: note_on channel=3 note=71 velocity=90 time=0
EXTRACT: control_change channel=2 control=64 value=0 time=0.033582074999999996
EXTRACT: note_on channel=3 note=71 velocity=0 time=0.18283574166666666
EXTRACT: note_on channel=2 note=56 velocity=71 time=0
EXTRACT: note_on channel=3 note=73 velocity=78 time=0
EXTRACT: control_change channel=2 control=64 value=127 time=0.09888055416666666
EXTRACT: note_on channel=3 note=73 velocity=0 time=0.08768652916666665
EXTRACT: note_on channel=2 note=64 velocity=74 time=0
EXTRACT: note_on channel=3 note=73 velocity=86 time=0
EXTRACT: note_on channel=2 note=56 velocity=0 time=0.04664177083333333
EXTRACT: note_on channel=3 note=73 velocity=0 time=0.13992531249999998
EXTRACT: note_on channel=2 note=54 velocity=0 time=0.03731341666666666
EXTRACT: note_on channel=2 note=56 velocity=74 time=0
EXTRACT: note_on channel=3 note=73 velocity=86 time=0
EXTRACT: note_on channel=2 note=64 velocity=0 time=0.011194025
EXTRACT: note_on channel=3 note=73 velocity=0 time=0.1753730583333333
EXTRACT: note_on channel=2 note=54 velocity=75 time=0
EXTRACT: note_on channel=3 note=73 velocity=90 time=0
EXTRACT: note_on channel=2 note=56 velocity=0 time=0.0055970125
EXTRACT: note_on channel=2 note=56 velocity=74 time=0.21828348749999998
EXTRACT: note_on channel=3 note=73 velocity=0 time=0.21641781666666665
EXTRACT: note_on channel=2 note=54 velocity=0 time=0.0037313416666666663
EXTRACT: note_on channel=2 note=64 velocity=74 time=0.0037313416666666663
EXTRACT: note_on channel=2 note=56 velocity=0 time=0.01865670833333333
EXTRACT: note_on channel=2 note=56 velocity=77 time=0
EXTRACT: note_on channel=3 note=71 velocity=85 time=0
EXTRACT: note_on channel=2 note=64 velocity=0 time=0.016791037499999998
EXTRACT: note_on channel=3 note=71 velocity=0 time=0.16791037499999997
EXTRACT: note_on channel=2 note=56 velocity=0 time=0.020522379166666663
EXTRACT: note_on channel=2 note=47 velocity=0 time=0.011194025
EXTRACT: note_on channel=2 note=40 velocity=0 time=0
EXTRACT: note_on channel=2 note=42 velocity=76 time=0
EXTRACT: note_on channel=2 note=49 velocity=76 time=0
EXTRACT: note_on channel=2 note=54 velocity=75 time=0
EXTRACT: note_on channel=3 note=71 velocity=90 time=0
EXTRACT: control_change channel=2 control=64 value=0 time=0.05970146666666666
EXTRACT: control_change channel=2 control=64 value=127 time=0.05223878333333333
EXTRACT: note_on channel=3 note=71 velocity=0 time=0.10447756666666666
EXTRACT: note_on channel=2 note=57 velocity=74 time=0
EXTRACT: note_on channel=3 note=69 velocity=85 time=0
EXTRACT: note_on channel=2 note=54 velocity=0 time=0.027985062499999998
EXTRACT: note_on channel=2 note=57 velocity=0 time=0.17723872916666664
EXTRACT: note_on channel=3 note=69 velocity=0 time=0.011194025
EXTRACT: note_on channel=2 note=64 velocity=74 time=0
EXTRACT: note_on channel=3 note=71 velocity=90 time=0
EXTRACT: note_on channel=3 note=71 velocity=0 time=0.21641781666666665
EXTRACT: note_on channel=2 note=57 velocity=78 time=0
EXTRACT: note_on channel=3 note=69 velocity=85 time=0
EXTRACT: note_on channel=2 note=64 velocity=0 time=0.016791037499999998
EXTRACT: note_on channel=3 note=69 velocity=0 time=0.19962677916666666
EXTRACT: note_on channel=2 note=57 velocity=0 time=0.007462683333333333
EXTRACT: note_on channel=2 note=54 velocity=75 time=0
EXTRACT: note_on channel=3 note=71 velocity=90 time=0
EXTRACT: note_on channel=3 note=71 velocity=0 time=0.21641781666666665
EXTRACT: note_on channel=2 note=57 velocity=78 time=0
EXTRACT: note_on channel=3 note=69 velocity=85 time=0
EXTRACT: note_on channel=2 note=54 velocity=0 time=0.0447761
EXTRACT: note_on channel=2 note=57 velocity=0 time=0.1529850083333333
EXTRACT: note_on channel=3 note=69 velocity=0 time=0.01865670833333333
EXTRACT: note_on channel=2 note=64 velocity=78 time=0
EXTRACT: note_on channel=3 note=71 velocity=88 time=0
EXTRACT: note_on channel=3 note=71 velocity=0 time=0.21641781666666665
EXTRACT: note_on channel=2 note=64 velocity=0 time=0
EXTRACT: note_on channel=2 note=57 velocity=78 time=0
EXTRACT: note_on channel=3 note=73 velocity=81 time=0
EXTRACT: note_on channel=2 note=42 velocity=0 time=0.0503731125
EXTRACT: note_on channel=2 note=49 velocity=0 time=0.009328354166666665
EXTRACT: note_on channel=2 note=57 velocity=0 time=0.0503731125
EXTRACT: note_on channel=3 note=73 velocity=0 time=0.10634323749999999
EXTRACT: note_on channel=2 note=38 velocity=74 time=0
EXTRACT: note_on channel=2 note=45 velocity=74 time=0
EXTRACT: note_on channel=2 note=54 velocity=74 time=0
EXTRACT: note_on channel=3 note=66 velocity=76 time=0
EXTRACT: control_change channel=2 control=64 value=0 time=0.10634323749999999
EXTRACT: note_on channel=2 note=57 velocity=73 time=0.11753726249999999
EXTRACT: control_change channel=2 control=64 value=127 time=0.09888055416666666
EXTRACT: note_on channel=2 note=66 velocity=70 time=0.12499994583333332
EXTRACT: note_on channel=2 note=57 velocity=0 time=0.04664177083333333
EXTRACT: note_on channel=2 note=54 velocity=0 time=0.17723872916666664
EXTRACT: note_on channel=2 note=57 velocity=70 time=0
EXTRACT: note_on channel=2 note=66 velocity=0 time=0.011194025
EXTRACT: note_on channel=3 note=66 velocity=0 time=0.20522379166666666
EXTRACT: note_on channel=2 note=54 velocity=69 time=0.007462683333333333
EXTRACT: note_on channel=2 note=57 velocity=0 time=0.0055970125
EXTRACT: note_on channel=2 note=57 velocity=69 time=0
EXTRACT: note_on channel=3 note=69 velocity=79 time=0
EXTRACT: note_on channel=3 note=69 velocity=0 time=0.21641781666666665
EXTRACT: note_on channel=2 note=54 velocity=0 time=0.0037313416666666663
EXTRACT: note_on channel=2 note=66 velocity=69 time=0
EXTRACT: note_on channel=3 note=71 velocity=86 time=0
EXTRACT: note_on channel=2 note=57 velocity=0 time=0.01865670833333333
EXTRACT: note_on channel=3 note=71 velocity=0 time=0.19776110833333332
EXTRACT: note_on channel=2 note=57 velocity=67 time=0
EXTRACT: note_on channel=3 note=69 velocity=82 time=0
EXTRACT: note_on channel=2 note=66 velocity=0 time=0.016791037499999998
EXTRACT: note_on channel=2 note=57 velocity=0 time=0.18843275416666666
EXTRACT: note_on channel=3 note=69 velocity=0 time=0.011194025
EXTRACT: note_on channel=2 note=54 velocity=65 time=0
EXTRACT: note_on channel=3 note=71 velocity=83 time=0
EXTRACT: note_on channel=2 note=56 velocity=64 time=0.22388049999999998
EXTRACT: note_on channel=2 note=54 velocity=0 time=0.027985062499999998
EXTRACT: note_on channel=2 note=56 velocity=0 time=0.17723872916666664
EXTRACT: note_on channel=2 note=64 velocity=64 time=0.01865670833333333
EXTRACT: note_on channel=2 note=56 velocity=61 time=0.22388049999999998
EXTRACT: note_on channel=2 note=64 velocity=0 time=0.016791037499999998
EXTRACT: note_on channel=3 note=71 velocity=0 time=0.1697760458333333
EXTRACT: pitchwheel channel=3 pitch=-8192 time=0.020522379166666663
EXTRACT: note_on channel=2 note=56 velocity=0 time=0.016791037499999998
EXTRACT: note_on channel=2 note=54 velocity=58 time=0
EXTRACT: note_on channel=3 note=73 velocity=77 time=0
EXTRACT: pitchwheel channel=3 pitch=-8035 time=0.020522379166666663
EXTRACT: pitchwheel channel=3 pitch=-7877 time=0.013059695833333333
EXTRACT: pitchwheel channel=3 pitch=-7720 time=0.013059695833333333
EXTRACT: pitchwheel channel=3 pitch=-7562 time=0.009328354166666665
EXTRACT: pitchwheel channel=3 pitch=-7405 time=0.009328354166666665
EXTRACT: pitchwheel channel=3 pitch=-7247 time=0.0055970125
EXTRACT: pitchwheel channel=3 pitch=-7090 time=0.0055970125
EXTRACT: pitchwheel channel=3 pitch=-6932 time=0.007462683333333333
EXTRACT: pitchwheel channel=3 pitch=-6775 time=0.0055970125
EXTRACT: pitchwheel channel=3 pitch=-6617 time=0.007462683333333333
EXTRACT: pitchwheel channel=3 pitch=-6460 time=0.0055970125
EXTRACT: pitchwheel channel=3 pitch=-6302 time=0.0055970125
EXTRACT: pitchwheel channel=3 pitch=-6145 time=0.0037313416666666663
EXTRACT: pitchwheel channel=3 pitch=-5987 time=0.0055970125
EXTRACT: pitchwheel channel=3 pitch=-5830 time=0.0037313416666666663
EXTRACT: pitchwheel channel=3 pitch=-5672 time=0.0055970125
EXTRACT: pitchwheel channel=3 pitch=-5515 time=0.0037313416666666663
EXTRACT: pitchwheel channel=3 pitch=-5357 time=0.0037313416666666663
EXTRACT: pitchwheel channel=3 pitch=-5199 time=0.0055970125
EXTRACT: pitchwheel channel=3 pitch=-5042 time=0.0037313416666666663
EXTRACT: pitchwheel channel=3 pitch=-4884 time=0.0018656708333333332
EXTRACT: pitchwheel channel=3 pitch=-4727 time=0.0037313416666666663
EXTRACT: pitchwheel channel=3 pitch=-4569 time=0.007462683333333333
EXTRACT: pitchwheel channel=3 pitch=-4412 time=0.0018656708333333332
EXTRACT: pitchwheel channel=3 pitch=-4254 time=0.0037313416666666663
EXTRACT: pitchwheel channel=3 pitch=-4097 time=0.0037313416666666663
EXTRACT: pitchwheel channel=3 pitch=-3939 time=0.0018656708333333332
EXTRACT: pitchwheel channel=3 pitch=-3782 time=0.0037313416666666663
EXTRACT: pitchwheel channel=3 pitch=-3624 time=0.0037313416666666663
EXTRACT: pitchwheel channel=3 pitch=-3467 time=0.0018656708333333332
EXTRACT: pitchwheel channel=3 pitch=-3309 time=0.0037313416666666663
EXTRACT: pitchwheel channel=3 pitch=-3152 time=0.0037313416666666663
EXTRACT: pitchwheel channel=3 pitch=-2994 time=0.0018656708333333332
EXTRACT: pitchwheel channel=3 pitch=-2837 time=0.0037313416666666663
EXTRACT: pitchwheel channel=3 pitch=-2679 time=0.0037313416666666663
EXTRACT: pitchwheel channel=3 pitch=-2521 time=0.0018656708333333332
EXTRACT: pitchwheel channel=3 pitch=-2364 time=0.0037313416666666663
EXTRACT: pitchwheel channel=3 pitch=-2206 time=0.0037313416666666663
EXTRACT: pitchwheel channel=3 pitch=-2049 time=0.0018656708333333332
EXTRACT: pitchwheel channel=3 pitch=-1891 time=0.0037313416666666663
EXTRACT: pitchwheel channel=3 pitch=-1734 time=0.0037313416666666663
EXTRACT: pitchwheel channel=3 pitch=-1576 time=0.0018656708333333332
EXTRACT: pitchwheel channel=3 pitch=-1261 time=0.0037313416666666663
EXTRACT: pitchwheel channel=3 pitch=-1104 time=0.0037313416666666663
EXTRACT: note_on channel=2 note=56 velocity=57 time=0.0018656708333333332
EXTRACT: pitchwheel channel=3 pitch=-946 time=0.0018656708333333332
EXTRACT: pitchwheel channel=3 pitch=-789 time=0.0018656708333333332
EXTRACT: pitchwheel channel=3 pitch=-631 time=0.0037313416666666663
EXTRACT: pitchwheel channel=3 pitch=-316 time=0.0037313416666666663
EXTRACT: pitchwheel channel=3 pitch=-159 time=0.0018656708333333332
EXTRACT: pitchwheel channel=3 pitch=-1 time=0.0037313416666666663
EXTRACT: note_on channel=2 note=54 velocity=0 time=0.027985062499999998
EXTRACT: note_on channel=2 note=56 velocity=0 time=0.1529850083333333
EXTRACT: note_on channel=2 note=64 velocity=54 time=0.026119391666666665
EXTRACT: note_on channel=2 note=64 velocity=0 time=0.21641781666666665
EXTRACT: note_on channel=2 note=56 velocity=52 time=0.007462683333333333
EXTRACT: note_on channel=2 note=56 velocity=0 time=0.11007457916666666
EXTRACT: control_change channel=2 control=64 value=0 time=0.09701488333333333
EXTRACT: note_on channel=2 note=54 velocity=54 time=0
EXTRACT: control_change channel=2 control=64 value=0 time=0.033582074999999996
EXTRACT: note_on channel=2 note=57 velocity=51 time=0.190298425
EXTRACT: control_change channel=2 control=64 value=127 time=0.09888055416666666
EXTRACT: note_on channel=2 note=66 velocity=51 time=0.12499994583333332
EXTRACT: note_on channel=2 note=57 velocity=0 time=0.04664177083333333
EXTRACT: note_on channel=2 note=54 velocity=0 time=0.17723872916666664
EXTRACT: note_on channel=2 note=57 velocity=50 time=0
EXTRACT: note_on channel=2 note=66 velocity=0 time=0.011194025
EXTRACT: note_on channel=3 note=73 velocity=0 time=0.20522379166666666
EXTRACT: note_on channel=2 note=54 velocity=49 time=0.007462683333333333
EXTRACT: note_on channel=2 note=57 velocity=0 time=0.0055970125
EXTRACT: note_on channel=2 note=57 velocity=49 time=0.21828348749999998
EXTRACT: note_on channel=2 note=54 velocity=0 time=0.22014915833333332
EXTRACT: note_on channel=2 note=66 velocity=47 time=0.0037313416666666663
EXTRACT: note_on channel=2 note=57 velocity=0 time=0.01865670833333333
EXTRACT: note_on channel=2 note=38 velocity=0 time=0.19776110833333332
EXTRACT: note_on channel=2 note=57 velocity=41 time=0.007462683333333333
EXTRACT: note_on channel=2 note=45 velocity=0 time=0.0018656708333333332
EXTRACT: note_on channel=2 note=66 velocity=0 time=0.014925366666666665
EXTRACT: note_on channel=2 note=57 velocity=0 time=0.14365665416666665
EXTRACT: control_change channel=2 control=64 value=0 time=0.009328354166666665
EXTRACT: note_on channel=2 note=33 velocity=95 time=0
EXTRACT: note_on channel=2 note=45 velocity=95 time=0
EXTRACT: note_on channel=2 note=57 velocity=95 time=0
EXTRACT: note_on channel=2 note=61 velocity=89 time=0
EXTRACT: note_on channel=3 note=81 velocity=101 time=0
EXTRACT: control_change channel=2 control=64 value=127 time=0.12686561666666665
EXTRACT: note_on channel=3 note=81 velocity=0 time=0.05410445416666666
EXTRACT: note_on channel=2 note=69 velocity=93 time=0
EXTRACT: note_on channel=3 note=81 velocity=99 time=0
EXTRACT: note_on channel=2 note=61 velocity=0 time=0.03171640416666666
EXTRACT: note_on channel=2 note=57 velocity=0 time=0.09141787083333333
EXTRACT: note_on channel=3 note=81 velocity=0 time=0.061567137499999994
EXTRACT: note_on channel=2 note=61 velocity=93 time=0
EXTRACT: note_on channel=3 note=81 velocity=100 time=0
EXTRACT: note_on channel=2 note=69 velocity=0 time=0.020522379166666663
EXTRACT: note_on channel=2 note=61 velocity=0 time=0.18843275416666666
EXTRACT: note_on channel=2 note=57 velocity=91 time=0.014925366666666665
EXTRACT: note_on channel=3 note=81 velocity=0 time=0.18656708333333333
EXTRACT: pitchwheel channel=3 pitch=4513 time=0.020522379166666663
EXTRACT: note_on channel=2 note=61 velocity=92 time=0
EXTRACT: note_on channel=3 note=80 velocity=99 time=0
EXTRACT: pitchwheel channel=3 pitch=4513 time=0.10261189583333333
EXTRACT: pitchwheel channel=3 pitch=4513 time=0.0018656708333333332
EXTRACT: pitchwheel channel=3 pitch=4513 time=0.0037313416666666663
EXTRACT: pitchwheel channel=3 pitch=4513 time=0.0018656708333333332
EXTRACT: pitchwheel channel=3 pitch=4346 time=0.0037313416666666663
EXTRACT: pitchwheel channel=3 pitch=4178 time=0.0018656708333333332
EXTRACT: pitchwheel channel=3 pitch=4178 time=0.0055970125
EXTRACT: pitchwheel channel=3 pitch=4178 time=0.0055970125
EXTRACT: pitchwheel channel=3 pitch=4011 time=0.0037313416666666663
EXTRACT: pitchwheel channel=3 pitch=3844 time=0.0055970125
EXTRACT: pitchwheel channel=3 pitch=3844 time=0.0037313416666666663
EXTRACT: pitchwheel channel=3 pitch=3844 time=0.0018656708333333332
EXTRACT: pitchwheel channel=3 pitch=3844 time=0.0037313416666666663
EXTRACT: pitchwheel channel=3 pitch=3677 time=0.0018656708333333332
EXTRACT: pitchwheel channel=3 pitch=3510 time=0.0037313416666666663
EXTRACT: pitchwheel channel=3 pitch=3510 time=0.0018656708333333332
EXTRACT: pitchwheel channel=3 pitch=3342 time=0.0037313416666666663
EXTRACT: pitchwheel channel=3 pitch=3175 time=0.0018656708333333332
EXTRACT: pitchwheel channel=3 pitch=3008 time=0.0037313416666666663
EXTRACT: pitchwheel channel=3 pitch=3008 time=0.0018656708333333332
EXTRACT: pitchwheel channel=3 pitch=3008 time=0.0037313416666666663
EXTRACT: pitchwheel channel=3 pitch=2841 time=0.0037313416666666663
EXTRACT: pitchwheel channel=3 pitch=2674 time=0.0018656708333333332
EXTRACT: pitchwheel channel=3 pitch=2674 time=0.0037313416666666663
EXTRACT: pitchwheel channel=3 pitch=2507 time=0.0018656708333333332
EXTRACT: pitchwheel channel=3 pitch=2507 time=0.0037313416666666663
EXTRACT: pitchwheel channel=3 pitch=2339 time=0.0018656708333333332
EXTRACT: pitchwheel channel=3 pitch=2172 time=0.0037313416666666663
EXTRACT: pitchwheel channel=3 pitch=2005 time=0.0018656708333333332
EXTRACT: pitchwheel channel=3 pitch=2005 time=0.0037313416666666663
EXTRACT: pitchwheel channel=3 pitch=1838 time=0.0018656708333333332
EXTRACT: pitchwheel channel=3 pitch=1504 time=0.0037313416666666663
EXTRACT: pitchwheel channel=3 pitch=1504 time=0.0037313416666666663
EXTRACT: pitchwheel channel=3 pitch=1336 time=0.0018656708333333332
EXTRACT: pitchwheel channel=3 pitch=1169 time=0.0037313416666666663
EXTRACT: pitchwheel channel=3 pitch=1002 time=0.0018656708333333332
EXTRACT: pitchwheel channel=3 pitch=835 time=0.0037313416666666663
EXTRACT: pitchwheel channel=3 pitch=668 time=0.0018656708333333332
EXTRACT: note_on channel=2 note=61 velocity=0 time=0.0037313416666666663
EXTRACT: pitchwheel channel=3 pitch=501 time=0
EXTRACT: pitchwheel channel=3 pitch=501 time=0.0018656708333333332
EXTRACT: note_on channel=2 note=69 velocity=87 time=0.0018656708333333332
EXTRACT: pitchwheel channel=3 pitch=0 time=0.0018656708333333332
EXTRACT: pitchwheel channel=3 pitch=-1 time=0.0018656708333333332
EXTRACT: note_on channel=2 note=57 velocity=0 time=0.0037313416666666663
EXTRACT: pitchwheel channel=3 pitch=-168 time=0
EXTRACT: pitchwheel channel=3 pitch=0 time=0.0018656708333333332
EXTRACT: note_on channel=3 note=80 velocity=0 time=0.1641790333333333
EXTRACT: note_on channel=2 note=61 velocity=92 time=0
EXTRACT: note_on channel=3 note=80 velocity=101 time=0
EXTRACT: note_on channel=2 note=69 velocity=0 time=0.03171640416666666
EXTRACT: note_on channel=2 note=33 velocity=0 time=0.10634323749999999
EXTRACT: note_on channel=2 note=45 velocity=0 time=0.009328354166666665
EXTRACT: note_on channel=2 note=61 velocity=0 time=0.06343280833333333
EXTRACT: note_on channel=2 note=40 velocity=95 time=0.013059695833333333
EXTRACT: note_on channel=2 note=47 velocity=95 time=0
EXTRACT: note_on channel=2 note=56 velocity=93 time=0
EXTRACT: control_change channel=2 control=64 value=0 time=0.18656708333333333
EXTRACT: note_on channel=3 note=80 velocity=0 time=0.02985073333333333
EXTRACT: note_on channel=2 note=59 velocity=92 time=0.007462683333333333
EXTRACT: note_on channel=3 note=78 velocity=82 time=0
EXTRACT: control_change channel=2 control=64 value=127 time=0.09888055416666666
EXTRACT: note_on channel=2 note=59 velocity=0 time=0.10261189583333333
EXTRACT: note_on channel=3 note=78 velocity=0 time=0.013059695833333333
EXTRACT: note_on channel=2 note=68 velocity=90 time=0.009328354166666665
EXTRACT: note_on channel=2 note=56 velocity=0 time=0.09888055416666666
EXTRACT: note_on channel=2 note=59 velocity=92 time=0.12499994583333332
EXTRACT: note_on channel=2 note=68 velocity=0 time=0.01865670833333333
EXTRACT: note_on channel=2 note=59 velocity=0 time=0.18843275416666666
EXTRACT: note_on channel=2 note=56 velocity=91 time=0
EXTRACT: note_on channel=3 note=80 velocity=98 time=0
EXTRACT: note_on channel=3 note=80 velocity=0 time=0.190298425
EXTRACT: note_on channel=2 note=59 velocity=92 time=0
EXTRACT: note_on channel=3 note=80 velocity=93 time=0
EXTRACT: note_on channel=2 note=56 velocity=0 time=0.18097007083333333
EXTRACT: note_on channel=2 note=59 velocity=0 time=0.016791037499999998
EXTRACT: note_on channel=2 note=68 velocity=87 time=0.026119391666666665
EXTRACT: note_on channel=3 note=80 velocity=0 time=0.17350738749999997
EXTRACT: note_on channel=2 note=68 velocity=0 time=0.01865670833333333
EXTRACT: pitchwheel channel=3 pitch=-4180 time=0.02238805
EXTRACT: note_on channel=2 note=59 velocity=92 time=0
EXTRACT: note_on channel=3 note=81 velocity=99 time=0
EXTRACT: note_on channel=2 note=47 velocity=0 time=0.1473879958333333
EXTRACT: note_on channel=2 note=40 velocity=0 time=0
EXTRACT: note_on channel=2 note=59 velocity=0 time=0.0055970125
EXTRACT: pitchwheel channel=3 pitch=-4180 time=0.0037313416666666663
EXTRACT: pitchwheel channel=3 pitch=-4180 time=0.0018656708333333332
EXTRACT: pitchwheel channel=3 pitch=-4180 time=0.0018656708333333332
EXTRACT: pitchwheel channel=3 pitch=-4180 time=0.0018656708333333332
EXTRACT: pitchwheel channel=3 pitch=-4180 time=0.0037313416666666663
EXTRACT: pitchwheel channel=3 pitch=-4013 time=0.0018656708333333332
EXTRACT: pitchwheel channel=3 pitch=-3846 time=0.0037313416666666663
EXTRACT: pitchwheel channel=3 pitch=-3512 time=0.0037313416666666663
EXTRACT: pitchwheel channel=3 pitch=-3512 time=0.0037313416666666663
EXTRACT: pitchwheel channel=3 pitch=-3344 time=0.0018656708333333332
EXTRACT: pitchwheel channel=3 pitch=-3344 time=0.0037313416666666663
EXTRACT: pitchwheel channel=3 pitch=-3344 time=0.0018656708333333332
EXTRACT: pitchwheel channel=3 pitch=-3010 time=0.0018656708333333332
EXTRACT: pitchwheel channel=3 pitch=-3010 time=0.0018656708333333332
EXTRACT: pitchwheel channel=3 pitch=-3010 time=0.0018656708333333332
EXTRACT: pitchwheel channel=3 pitch=-3010 time=0.0018656708333333332
EXTRACT: pitchwheel channel=3 pitch=-2843 time=0.0018656708333333332
EXTRACT: pitchwheel channel=3 pitch=-2676 time=0.0018656708333333332
EXTRACT: pitchwheel channel=3 pitch=-2509 time=0.0037313416666666663
EXTRACT: pitchwheel channel=3 pitch=-2509 time=0.0018656708333333332
EXTRACT: pitchwheel channel=3 pitch=-2509 time=0.0018656708333333332
EXTRACT: pitchwheel channel=3 pitch=-2341 time=0.0018656708333333332
EXTRACT: pitchwheel channel=3 pitch=-2174 time=0.0018656708333333332
EXTRACT: pitchwheel channel=3 pitch=-2174 time=0.0018656708333333332
EXTRACT: pitchwheel channel=3 pitch=-2007 time=0.0018656708333333332
EXTRACT: pitchwheel channel=3 pitch=-1673 time=0.0018656708333333332
EXTRACT: pitchwheel channel=3 pitch=-1506 time=0.0018656708333333332
EXTRACT: pitchwheel channel=3 pitch=-1506 time=0.0018656708333333332
EXTRACT: pitchwheel channel=3 pitch=-1171 time=0.0018656708333333332
EXTRACT: pitchwheel channel=3 pitch=-1004 time=0.0018656708333333332
EXTRACT: note_on channel=2 note=42 velocity=92 time=0.0018656708333333332
EXTRACT: note_on channel=2 note=49 velocity=94 time=0
EXTRACT: note_on channel=2 note=57 velocity=92 time=0
EXTRACT: pitchwheel channel=3 pitch=-837 time=0
EXTRACT: pitchwheel channel=3 pitch=-503 time=0.0018656708333333332
EXTRACT: pitchwheel channel=3 pitch=-503 time=0.0018656708333333332
EXTRACT: pitchwheel channel=3 pitch=-168 time=0.0018656708333333332
EXTRACT: pitchwheel channel=3 pitch=0 time=0.0018656708333333332
EXTRACT: control_change channel=2 control=64 value=0 time=0.08022384583333332
EXTRACT: note_on channel=3 note=81 velocity=0 time=0.12873128749999999
EXTRACT: note_on channel=2 note=61 velocity=87 time=0
EXTRACT: note_on channel=3 note=78 velocity=99 time=0
EXTRACT: control_change channel=2 control=64 value=127 time=0.07462683333333332
EXTRACT: note_on channel=2 note=61 velocity=0 time=0.14925366666666665
EXTRACT: note_on channel=2 note=69 velocity=91 time=0
EXTRACT: note_on channel=2 note=61 velocity=87 time=0.22388049999999998
EXTRACT: note_on channel=2 note=69 velocity=0 time=0.011194025
EXTRACT: note_on channel=2 note=57 velocity=0 time=0
EXTRACT: note_on channel=2 note=61 velocity=0 time=0.19962677916666666
EXTRACT: note_on channel=2 note=57 velocity=94 time=0.013059695833333333
EXTRACT: note_on channel=2 note=61 velocity=91 time=0.22388049999999998
EXTRACT: note_on channel=2 note=61 velocity=0 time=0.19216409583333333
EXTRACT: note_on channel=2 note=69 velocity=91 time=0.03171640416666666
EXTRACT: note_on channel=2 note=57 velocity=0 time=0.04664177083333333
EXTRACT: note_on channel=2 note=61 velocity=91 time=0.17723872916666664
EXTRACT: note_on channel=2 note=69 velocity=0 time=0.0037313416666666663
EXTRACT: pitchwheel channel=3 pitch=-168 time=0.14179098333333331
EXTRACT: pitchwheel channel=3 pitch=-168 time=0.0018656708333333332
EXTRACT: pitchwheel channel=3 pitch=-335 time=0.0037313416666666663
EXTRACT: pitchwheel channel=3 pitch=-335 time=0.0037313416666666663
EXTRACT: pitchwheel channel=3 pitch=-335 time=0.0037313416666666663
EXTRACT: pitchwheel channel=3 pitch=-670 time=0.009328354166666665
EXTRACT: pitchwheel channel=3 pitch=-670 time=0.0018656708333333332
EXTRACT: pitchwheel channel=3 pitch=-837 time=0.0037313416666666663
EXTRACT: pitchwheel channel=3 pitch=-1171 time=0.0037313416666666663
EXTRACT: pitchwheel channel=3 pitch=-1171 time=0.0037313416666666663
EXTRACT: pitchwheel channel=3 pitch=-1171 time=0.0018656708333333332
EXTRACT: pitchwheel channel=3 pitch=-1171 time=0
EXTRACT: pitchwheel channel=3 pitch=-1171 time=0.0018656708333333332
EXTRACT: pitchwheel channel=3 pitch=-1338 time=0
EXTRACT: pitchwheel channel=3 pitch=-1338 time=0.0018656708333333332
EXTRACT: pitchwheel channel=3 pitch=-1506 time=0
EXTRACT: pitchwheel channel=3 pitch=-1506 time=0.0018656708333333332
EXTRACT: pitchwheel channel=3 pitch=-1506 time=0
EXTRACT: pitchwheel channel=3 pitch=-1673 time=0.0037313416666666663
EXTRACT: pitchwheel channel=3 pitch=-2007 time=0
EXTRACT: pitchwheel channel=3 pitch=-2007 time=0.0018656708333333332
EXTRACT: pitchwheel channel=3 pitch=-2007 time=0.0018656708333333332
EXTRACT: pitchwheel channel=3 pitch=-2007 time=0
EXTRACT: pitchwheel channel=3 pitch=-2007 time=0.0018656708333333332
EXTRACT: pitchwheel channel=3 pitch=-2174 time=0
EXTRACT: pitchwheel channel=3 pitch=-2174 time=0.0018656708333333332
EXTRACT: pitchwheel channel=3 pitch=-2174 time=0
EXTRACT: note_on channel=2 note=61 velocity=0 time=0.0018656708333333332
EXTRACT: pitchwheel channel=3 pitch=-2341 time=0
EXTRACT: pitchwheel channel=3 pitch=-2341 time=0
EXTRACT: pitchwheel channel=3 pitch=-2341 time=0
EXTRACT: pitchwheel channel=3 pitch=-2509 time=0.0018656708333333332
EXTRACT: pitchwheel channel=3 pitch=-2676 time=0.0018656708333333332
EXTRACT: pitchwheel channel=3 pitch=-2676 time=0
EXTRACT: pitchwheel channel=3 pitch=-2676 time=0
EXTRACT: pitchwheel channel=3 pitch=-2676 time=0.0018656708333333332
EXTRACT: pitchwheel channel=3 pitch=-2843 time=0.0018656708333333332
EXTRACT: pitchwheel channel=3 pitch=-2843 time=0
EXTRACT: pitchwheel channel=3 pitch=-2843 time=0
EXTRACT: pitchwheel channel=3 pitch=-3010 time=0.0018656708333333332
EXTRACT: pitchwheel channel=3 pitch=-3010 time=0
EXTRACT: pitchwheel channel=3 pitch=-3010 time=0.0018656708333333332
EXTRACT: pitchwheel channel=3 pitch=-3177 time=0
EXTRACT: pitchwheel channel=3 pitch=-3344 time=0.0018656708333333332
EXTRACT: pitchwheel channel=3 pitch=-3344 time=0
EXTRACT: note_on channel=2 note=49 velocity=0 time=0.0018656708333333332
EXTRACT: note_on channel=2 note=42 velocity=0 time=0
EXTRACT: pitchwheel channel=3 pitch=-3344 time=0
EXTRACT: pitchwheel channel=3 pitch=-3344 time=0
EXTRACT: pitchwheel channel=3 pitch=-3344 time=0.0018656708333333332
EXTRACT: pitchwheel channel=3 pitch=-3679 time=0
EXTRACT: pitchwheel channel=3 pitch=-3679 time=0.0018656708333333332
EXTRACT: pitchwheel channel=3 pitch=-3679 time=0
EXTRACT: pitchwheel channel=3 pitch=-3679 time=0
EXTRACT: pitchwheel channel=3 pitch=-3846 time=0.0018656708333333332
EXTRACT: note_on channel=2 note=38 velocity=92 time=0.0018656708333333332
EXTRACT: note_on channel=2 note=50 velocity=94 time=0
EXTRACT: note_on channel=2 note=57 velocity=92 time=0
EXTRACT: pitchwheel channel=3 pitch=-3846 time=0
EXTRACT: pitchwheel channel=3 pitch=-3846 time=0
EXTRACT: pitchwheel channel=3 pitch=-4013 time=0
EXTRACT: pitchwheel channel=3 pitch=-4013 time=0.0018656708333333332
EXTRACT: pitchwheel channel=3 pitch=-4180 time=0.0018656708333333332
EXTRACT: pitchwheel channel=3 pitch=-4180 time=0
EXTRACT: pitchwheel channel=3 pitch=-4180 time=0.0018656708333333332
EXTRACT: pitchwheel channel=3 pitch=-4348 time=0
EXTRACT: pitchwheel channel=3 pitch=-4348 time=0.0018656708333333332
EXTRACT: pitchwheel channel=3 pitch=-4348 time=0
EXTRACT: pitchwheel channel=3 pitch=-4348 time=0.0018656708333333332
EXTRACT: pitchwheel channel=3 pitch=-4348 time=0
EXTRACT: pitchwheel channel=3 pitch=-4348 time=0
EXTRACT: pitchwheel channel=3 pitch=-4348 time=0.0018656708333333332
EXTRACT: pitchwheel channel=3 pitch=-4515 time=0.0018656708333333332
EXTRACT: pitchwheel channel=3 pitch=-4515 time=0
EXTRACT: pitchwheel channel=3 pitch=-4515 time=0
EXTRACT: pitchwheel channel=3 pitch=-4515 time=0.0018656708333333332
EXTRACT: pitchwheel channel=3 pitch=-4515 time=0.0018656708333333332
EXTRACT: pitchwheel channel=3 pitch=-4515 time=0
EXTRACT: pitchwheel channel=3 pitch=-4682 time=0
EXTRACT: pitchwheel channel=3 pitch=-4682 time=0.0018656708333333332
EXTRACT: pitchwheel channel=3 pitch=-4682 time=0
EXTRACT: pitchwheel channel=3 pitch=-4682 time=0.0018656708333333332
EXTRACT: pitchwheel channel=3 pitch=-4682 time=0
EXTRACT: pitchwheel channel=3 pitch=-4682 time=0.0018656708333333332
EXTRACT: pitchwheel channel=3 pitch=-4682 time=0
EXTRACT: pitchwheel channel=3 pitch=-4682 time=0.0018656708333333332
EXTRACT: pitchwheel channel=3 pitch=-4682 time=0
EXTRACT: pitchwheel channel=3 pitch=-4682 time=0.0018656708333333332
EXTRACT: pitchwheel channel=3 pitch=-4682 time=0
EXTRACT: pitchwheel channel=3 pitch=-4682 time=0.0018656708333333332
EXTRACT: pitchwheel channel=3 pitch=-4682 time=0
EXTRACT: pitchwheel channel=3 pitch=-4682 time=0
EXTRACT: pitchwheel channel=3 pitch=-4682 time=0.0018656708333333332
EXTRACT: pitchwheel channel=3 pitch=-4682 time=0.0018656708333333332
EXTRACT: pitchwheel channel=3 pitch=-4682 time=0
EXTRACT: pitchwheel channel=3 pitch=-4682 time=0
EXTRACT: pitchwheel channel=3 pitch=-4682 time=0.0018656708333333332
EXTRACT: pitchwheel channel=3 pitch=-4682 time=0.0018656708333333332
EXTRACT: pitchwheel channel=3 pitch=-4682 time=0
EXTRACT: pitchwheel channel=3 pitch=-4515 time=0.0018656708333333332
EXTRACT: pitchwheel channel=3 pitch=-4515 time=0
EXTRACT: pitchwheel channel=3 pitch=-4515 time=0.0018656708333333332
EXTRACT: pitchwheel channel=3 pitch=-4515 time=0
EXTRACT: pitchwheel channel=3 pitch=-4515 time=0.0018656708333333332
EXTRACT: pitchwheel channel=3 pitch=-4348 time=0
EXTRACT: pitchwheel channel=3 pitch=-4348 time=0
EXTRACT: pitchwheel channel=3 pitch=-4348 time=0.0018656708333333332
EXTRACT: pitchwheel channel=3 pitch=-4180 time=0.0018656708333333332
EXTRACT: pitchwheel channel=3 pitch=-4180 time=0
EXTRACT: pitchwheel channel=3 pitch=-4180 time=0
EXTRACT: pitchwheel channel=3 pitch=-4180 time=0.0018656708333333332
EXTRACT: pitchwheel channel=3 pitch=-4013 time=0.0018656708333333332
EXTRACT: pitchwheel channel=3 pitch=-3846 time=0
EXTRACT: pitchwheel channel=3 pitch=-3846 time=0.0018656708333333332
EXTRACT: pitchwheel channel=3 pitch=-3846 time=0
EXTRACT: pitchwheel channel=3 pitch=-3846 time=0.0018656708333333332
EXTRACT: pitchwheel channel=3 pitch=-3679 time=0
EXTRACT: pitchwheel channel=3 pitch=-3679 time=0.0018656708333333332
EXTRACT: pitchwheel channel=3 pitch=-3679 time=0
EXTRACT: pitchwheel channel=3 pitch=-3679 time=0.0018656708333333332
EXTRACT: pitchwheel channel=3 pitch=-3512 time=0
EXTRACT: pitchwheel channel=3 pitch=-3512 time=0.0018656708333333332
EXTRACT: pitchwheel channel=3 pitch=-3344 time=0
EXTRACT: pitchwheel channel=3 pitch=-3344 time=0.0018656708333333332
EXTRACT: pitchwheel channel=3 pitch=-3177 time=0
EXTRACT: pitchwheel channel=3 pitch=-3177 time=0
EXTRACT: pitchwheel channel=3 pitch=-2843 time=0.0037313416666666663
EXTRACT: pitchwheel channel=3 pitch=-2843 time=0
EXTRACT: pitchwheel channel=3 pitch=-2843 time=0.0018656708333333332
EXTRACT: pitchwheel channel=3 pitch=-2843 time=0.0018656708333333332
EXTRACT: pitchwheel channel=3 pitch=-2843 time=0
EXTRACT: pitchwheel channel=3 pitch=-2676 time=0.0018656708333333332
EXTRACT: pitchwheel channel=3 pitch=-2509 time=0
EXTRACT: pitchwheel channel=3 pitch=-2509 time=0.0018656708333333332
EXTRACT: pitchwheel channel=3 pitch=-2509 time=0
EXTRACT: pitchwheel channel=3 pitch=-2509 time=0.0018656708333333332
EXTRACT: pitchwheel channel=3 pitch=-2341 time=0
EXTRACT: pitchwheel channel=3 pitch=-2341 time=0
EXTRACT: pitchwheel channel=3 pitch=-2341 time=0.0018656708333333332
EXTRACT: pitchwheel channel=3 pitch=-2174 time=0.0018656708333333332
EXTRACT: pitchwheel channel=3 pitch=-2174 time=0
EXTRACT: pitchwheel channel=3 pitch=-2174 time=0
EXTRACT: pitchwheel channel=3 pitch=-2174 time=0.0018656708333333332
EXTRACT: pitchwheel channel=3 pitch=-2174 time=0.0018656708333333332
EXTRACT: pitchwheel channel=3 pitch=-2174 time=0
EXTRACT: pitchwheel channel=3 pitch=-2007 time=0
EXTRACT: pitchwheel channel=3 pitch=-1840 time=0.0018656708333333332
EXTRACT: pitchwheel channel=3 pitch=-1840 time=0
EXTRACT: pitchwheel channel=3 pitch=-1840 time=0.0018656708333333332
EXTRACT: pitchwheel channel=3 pitch=-1840 time=0
EXTRACT: pitchwheel channel=3 pitch=-1673 time=0.0018656708333333332
EXTRACT: pitchwheel channel=3 pitch=-1673 time=0
EXTRACT: pitchwheel channel=3 pitch=-1506 time=0.0037313416666666663
EXTRACT: pitchwheel channel=3 pitch=-1338 time=0.0018656708333333332
EXTRACT: pitchwheel channel=3 pitch=-1338 time=0.0037313416666666663
EXTRACT: pitchwheel channel=3 pitch=-1004 time=0.007462683333333333
EXTRACT: pitchwheel channel=3 pitch=-837 time=0.0018656708333333332
EXTRACT: control_change channel=2 control=64 value=0 time=0.0037313416666666663
EXTRACT: pitchwheel channel=3 pitch=-670 time=0
EXTRACT: pitchwheel channel=3 pitch=-503 time=0.0037313416666666663
EXTRACT: pitchwheel channel=3 pitch=-335 time=0.0018656708333333332
EXTRACT: pitchwheel channel=3 pitch=-168 time=0.0037313416666666663
EXTRACT: pitchwheel channel=3 pitch=-1 time=0.0037313416666666663
EXTRACT: note_on channel=2 note=62 velocity=89 time=0.10261189583333333
EXTRACT: control_change channel=2 control=64 value=127 time=0.0018656708333333332
EXTRACT: note_on channel=2 note=62 velocity=0 time=0.1958954375
EXTRACT: note_on channel=2 note=69 velocity=91 time=0.026119391666666665
EXTRACT: note_on channel=2 note=57 velocity=0 time=0.08395518749999999
EXTRACT: note_on channel=2 note=62 velocity=88 time=0.13992531249999998
EXTRACT: note_on channel=2 note=69 velocity=0 time=0.03171640416666666
EXTRACT: note_on channel=3 note=78 velocity=0 time=0.09701488333333333
EXTRACT: note_on channel=2 note=62 velocity=0 time=0.061567137499999994
EXTRACT: note_on channel=2 note=57 velocity=94 time=0
EXTRACT: note_on channel=3 note=78 velocity=100 time=0
EXTRACT: note_on channel=2 note=62 velocity=90 time=0.22388049999999998
EXTRACT: note_on channel=2 note=62 velocity=0 time=0.1753730583333333
EXTRACT: note_on channel=3 note=78 velocity=0 time=0.04104475833333333
EXTRACT: note_on channel=2 note=69 velocity=93 time=0
EXTRACT: note_on channel=3 note=80 velocity=100 time=0
EXTRACT: note_on channel=2 note=57 velocity=0 time=0.14925366666666665
EXTRACT: note_on channel=2 note=62 velocity=89 time=0.07462683333333332
EXTRACT: note_on channel=2 note=69 velocity=0 time=0.016791037499999998
EXTRACT: note_on channel=2 note=38 velocity=0 time=0.09141787083333333
EXTRACT: note_on channel=2 note=50 velocity=0 time=0.05783579583333333
EXTRACT: note_on channel=2 note=62 velocity=0 time=0.01865670833333333
EXTRACT: note_on channel=3 note=80 velocity=0 time=0.03171640416666666
EXTRACT: control_change channel=2 control=64 value=0 time=0.0018656708333333332
EXTRACT: note_on channel=2 note=33 velocity=95 time=0
EXTRACT: note_on channel=2 note=45 velocity=95 time=0
EXTRACT: note_on channel=2 note=57 velocity=95 time=0
EXTRACT: note_on channel=3 note=81 velocity=100 time=0
EXTRACT: note_on channel=3 note=81 velocity=0 time=0.21641781666666665
EXTRACT: note_on channel=2 note=61 velocity=89 time=0
EXTRACT: note_on channel=3 note=76 velocity=96 time=0
EXTRACT: control_change channel=2 control=64 value=127 time=0.12686561666666665
EXTRACT: note_on channel=2 note=69 velocity=93 time=0.09701488333333333
EXTRACT: note_on channel=2 note=61 velocity=0 time=0.03171640416666666
EXTRACT: note_on channel=2 note=57 velocity=0 time=0.09141787083333333
EXTRACT: note_on channel=3 note=76 velocity=0 time=0.06716414999999999
EXTRACT: note_on channel=2 note=61 velocity=93 time=0
EXTRACT: note_on channel=3 note=76 velocity=92 time=0
EXTRACT: note_on channel=2 note=69 velocity=0 time=0.020522379166666663
EXTRACT: note_on channel=2 note=61 velocity=0 time=0.18843275416666666
EXTRACT: note_on channel=2 note=57 velocity=91 time=0.014925366666666665
EXTRACT: note_on channel=3 note=76 velocity=0 time=0.190298425
EXTRACT: pitchwheel channel=3 pitch=4680 time=0.024253720833333332
EXTRACT: note_on channel=2 note=61 velocity=92 time=0
EXTRACT: note_on channel=3 note=80 velocity=100 time=0
EXTRACT: pitchwheel channel=3 pitch=4346 time=0.10634323749999999
EXTRACT: pitchwheel channel=3 pitch=4178 time=0.026119391666666665
EXTRACT: pitchwheel channel=3 pitch=4011 time=0.011194025
EXTRACT: pitchwheel channel=3 pitch=3844 time=0.007462683333333333
EXTRACT: pitchwheel channel=3 pitch=3677 time=0.0055970125
EXTRACT: pitchwheel channel=3 pitch=3510 time=0.007462683333333333
EXTRACT: pitchwheel channel=3 pitch=3342 time=0.0037313416666666663
EXTRACT: pitchwheel channel=3 pitch=3175 time=0.0055970125
EXTRACT: pitchwheel channel=3 pitch=3008 time=0.0055970125
EXTRACT: pitchwheel channel=3 pitch=2841 time=0.0037313416666666663
EXTRACT: pitchwheel channel=3 pitch=2674 time=0.0037313416666666663
EXTRACT: pitchwheel channel=3 pitch=2507 time=0.0018656708333333332
EXTRACT: pitchwheel channel=3 pitch=2339 time=0.0037313416666666663
EXTRACT: pitchwheel channel=3 pitch=2172 time=0.0037313416666666663
EXTRACT: pitchwheel channel=3 pitch=2005 time=0.0037313416666666663
EXTRACT: pitchwheel channel=3 pitch=1838 time=0.0037313416666666663
EXTRACT: pitchwheel channel=3 pitch=1671 time=0.0018656708333333332
EXTRACT: pitchwheel channel=3 pitch=1504 time=0.0037313416666666663
EXTRACT: pitchwheel channel=3 pitch=1336 time=0.0037313416666666663
EXTRACT: pitchwheel channel=3 pitch=1169 time=0.0018656708333333332
EXTRACT: pitchwheel channel=3 pitch=1002 time=0.0037313416666666663
EXTRACT: note_on channel=2 note=61 velocity=0 time=0.0018656708333333332
EXTRACT: pitchwheel channel=3 pitch=835 time=0
EXTRACT: note_on channel=2 note=69 velocity=87 time=0.0037313416666666663
EXTRACT: pitchwheel channel=3 pitch=668 time=0
EXTRACT: pitchwheel channel=3 pitch=501 time=0.0018656708333333332
EXTRACT: pitchwheel channel=3 pitch=333 time=0.0018656708333333332
EXTRACT: note_on channel=2 note=57 velocity=0 time=0.0037313416666666663
EXTRACT: pitchwheel channel=3 pitch=0 time=0
EXTRACT: pitchwheel channel=3 pitch=-1 time=0.0018656708333333332
EXTRACT: pitchwheel channel=3 pitch=0 time=0.0018656708333333332
EXTRACT: pitchwheel channel=3 pitch=0 time=0.03731341666666666
EXTRACT: note_on channel=3 note=80 velocity=0 time=0.14179098333333331
EXTRACT: note_on channel=2 note=61 velocity=92 time=0
EXTRACT: note_on channel=3 note=80 velocity=100 time=0
EXTRACT: note_on channel=2 note=69 velocity=0 time=0.03171640416666666
EXTRACT: note_on channel=2 note=33 velocity=0 time=0.10634323749999999
EXTRACT: note_on channel=2 note=45 velocity=0 time=0.009328354166666665
EXTRACT: note_on channel=2 note=61 velocity=0 time=0.06343280833333333
EXTRACT: note_on channel=2 note=40 velocity=95 time=0.013059695833333333
EXTRACT: note_on channel=2 note=52 velocity=95 time=0
EXTRACT: note_on channel=2 note=59 velocity=93 time=0
EXTRACT: control_change channel=2 control=64 value=0 time=0.18656708333333333
EXTRACT: note_on channel=2 note=64 velocity=92 time=0.03731341666666666
EXTRACT: control_change channel=2 control=64 value=127 time=0.09888055416666666
EXTRACT: note_on channel=2 note=64 velocity=0 time=0.10261189583333333
EXTRACT: note_on channel=3 note=80 velocity=0 time=0.011194025
EXTRACT: note_on channel=2 note=68 velocity=90 time=0.011194025
EXTRACT: note_on channel=2 note=59 velocity=0 time=0.09888055416666666
EXTRACT: note_on channel=2 note=64 velocity=92 time=0.12499994583333332
EXTRACT: note_on channel=2 note=68 velocity=0 time=0.01865670833333333
EXTRACT: note_on channel=2 note=64 velocity=0 time=0.18843275416666666
EXTRACT: note_on channel=2 note=59 velocity=91 time=0.016791037499999998
EXTRACT: pitchwheel channel=3 pitch=-4030 time=0.21082080416666665
EXTRACT: note_on channel=2 note=64 velocity=92 time=0
EXTRACT: note_on channel=3 note=81 velocity=100 time=0
EXTRACT: pitchwheel channel=3 pitch=-3761 time=0.13246262916666665
EXTRACT: pitchwheel channel=3 pitch=-3627 time=0.0018656708333333332
EXTRACT: pitchwheel channel=3 pitch=-3492 time=0.020522379166666663
EXTRACT: pitchwheel channel=3 pitch=-3358 time=0.007462683333333333
EXTRACT: pitchwheel channel=3 pitch=-3224 time=0.007462683333333333
EXTRACT: pitchwheel channel=3 pitch=-3090 time=0.0037313416666666663
EXTRACT: pitchwheel channel=3 pitch=-2955 time=0.0055970125
EXTRACT: note_on channel=2 note=59 velocity=0 time=0.0018656708333333332
EXTRACT: pitchwheel channel=3 pitch=-2821 time=0.0018656708333333332
EXTRACT: pitchwheel channel=3 pitch=-2687 time=0.0037313416666666663
EXTRACT: pitchwheel channel=3 pitch=-2552 time=0.0055970125
EXTRACT: pitchwheel channel=3 pitch=-2418 time=0.0018656708333333332
EXTRACT: note_on channel=2 note=64 velocity=0 time=0.0037313416666666663
EXTRACT: pitchwheel channel=3 pitch=-2284 time=0
EXTRACT: pitchwheel channel=3 pitch=-2150 time=0.0018656708333333332
EXTRACT: pitchwheel channel=3 pitch=-2015 time=0.0055970125
EXTRACT: pitchwheel channel=3 pitch=-1881 time=0.0018656708333333332
EXTRACT: pitchwheel channel=3 pitch=-1747 time=0.0018656708333333332
EXTRACT: pitchwheel channel=3 pitch=-1612 time=0.0037313416666666663
EXTRACT: pitchwheel channel=3 pitch=-1478 time=0.0037313416666666663
EXTRACT: pitchwheel channel=3 pitch=-1344 time=0.0018656708333333332
EXTRACT: pitchwheel channel=3 pitch=-1210 time=0.0018656708333333332
EXTRACT: pitchwheel channel=3 pitch=-1075 time=0.0018656708333333332
EXTRACT: note_on channel=2 note=68 velocity=87 time=0.0018656708333333332
EXTRACT: pitchwheel channel=3 pitch=-941 time=0
EXTRACT: pitchwheel channel=3 pitch=-807 time=0.0018656708333333332
EXTRACT: pitchwheel channel=3 pitch=-672 time=0.0037313416666666663
EXTRACT: pitchwheel channel=3 pitch=-538 time=0.0018656708333333332
EXTRACT: pitchwheel channel=3 pitch=-404 time=0.0018656708333333332
EXTRACT: pitchwheel channel=3 pitch=-270 time=0.0018656708333333332
EXTRACT: pitchwheel channel=3 pitch=-135 time=0.0018656708333333332
EXTRACT: pitchwheel channel=3 pitch=-1 time=0.0037313416666666663
EXTRACT: pitchwheel channel=3 pitch=0 time=0.0018656708333333332
EXTRACT: note_on channel=2 note=68 velocity=0 time=0.17350738749999997
EXTRACT: note_on channel=2 note=64 velocity=92 time=0.03171640416666666
EXTRACT: note_on channel=2 note=52 velocity=0 time=0.1473879958333333
EXTRACT: note_on channel=2 note=40 velocity=0 time=0
EXTRACT: note_on channel=2 note=64 velocity=0 time=0.0055970125
EXTRACT: note_on channel=3 note=81 velocity=0 time=0.05970146666666666
EXTRACT: note_on channel=2 note=42 velocity=92 time=0
EXTRACT: note_on channel=2 note=49 velocity=94 time=0
EXTRACT: note_on channel=2 note=57 velocity=92 time=0
EXTRACT: note_on channel=3 note=78 velocity=100 time=0
EXTRACT: control_change channel=2 control=64 value=0 time=0.08768652916666665
EXTRACT: note_on channel=2 note=61 velocity=90 time=0.13619397083333332
EXTRACT: control_change channel=2 control=64 value=127 time=0.07462683333333332
EXTRACT: note_on channel=2 note=61 velocity=0 time=0.14925366666666665
EXTRACT: note_on channel=2 note=69 velocity=91 time=0
EXTRACT: note_on channel=2 note=61 velocity=87 time=0.22388049999999998
EXTRACT: note_on channel=2 note=69 velocity=0 time=0.011194025
EXTRACT: note_on channel=2 note=57 velocity=0 time=0
EXTRACT: note_on channel=2 note=61 velocity=0 time=0.19962677916666666
EXTRACT: note_on channel=2 note=57 velocity=94 time=0.013059695833333333
EXTRACT: note_on channel=2 note=61 velocity=91 time=0.22388049999999998
EXTRACT: note_on channel=2 note=61 velocity=0 time=0.19216409583333333
EXTRACT: note_on channel=2 note=69 velocity=91 time=0.03171640416666666
EXTRACT: note_on channel=2 note=57 velocity=0 time=0.04664177083333333
EXTRACT: note_on channel=2 note=61 velocity=91 time=0.17723872916666664
EXTRACT: note_on channel=2 note=69 velocity=0 time=0.0037313416666666663
EXTRACT: note_on channel=2 note=61 velocity=0 time=0.19776110833333332
EXTRACT: note_on channel=3 note=78 velocity=0 time=0
EXTRACT: note_on channel=2 note=49 velocity=0 time=0.014925366666666665
EXTRACT: note_on channel=2 note=42 velocity=0 time=0
EXTRACT: note_on channel=2 note=38 velocity=92 time=0
EXTRACT: note_on channel=2 note=50 velocity=94 time=0
EXTRACT: note_on channel=2 note=57 velocity=92 time=0
EXTRACT: note_on channel=3 note=81 velocity=100 time=0
EXTRACT: control_change channel=2 control=64 value=0 time=0.10820890833333333
EXTRACT: note_on channel=2 note=62 velocity=89 time=0.11567159166666666
EXTRACT: control_change channel=2 control=64 value=127 time=0.0018656708333333332
EXTRACT: note_on channel=2 note=62 velocity=0 time=0.1958954375
EXTRACT: note_on channel=2 note=69 velocity=91 time=0.026119391666666665
EXTRACT: note_on channel=2 note=57 velocity=0 time=0.08395518749999999
EXTRACT: note_on channel=2 note=62 velocity=88 time=0.13992531249999998
EXTRACT: note_on channel=2 note=69 velocity=0 time=0.03171640416666666
EXTRACT: note_on channel=3 note=81 velocity=0 time=0.1529850083333333
EXTRACT: note_on channel=2 note=62 velocity=0 time=0.0055970125
EXTRACT: pitchwheel channel=3 pitch=-8192 time=0.024253720833333332
EXTRACT: pitchwheel channel=3 pitch=-8058 time=0.0018656708333333332
EXTRACT: note_on channel=2 note=57 velocity=94 time=0
EXTRACT: note_on channel=3 note=85 velocity=100 time=0
EXTRACT: pitchwheel channel=3 pitch=-7924 time=0.024253720833333332
EXTRACT: pitchwheel channel=3 pitch=-7790 time=0.013059695833333333
EXTRACT: pitchwheel channel=3 pitch=-7655 time=0.007462683333333333
EXTRACT: pitchwheel channel=3 pitch=-7521 time=0.009328354166666665
EXTRACT: pitchwheel channel=3 pitch=-7387 time=0.009328354166666665
EXTRACT: pitchwheel channel=3 pitch=-7252 time=0.0055970125
EXTRACT: pitchwheel channel=3 pitch=-7118 time=0.0055970125
EXTRACT: pitchwheel channel=3 pitch=-6984 time=0.0055970125
EXTRACT: pitchwheel channel=3 pitch=-6850 time=0.007462683333333333
EXTRACT: pitchwheel channel=3 pitch=-6715 time=0.0037313416666666663
EXTRACT: pitchwheel channel=3 pitch=-6581 time=0.0055970125
EXTRACT: pitchwheel channel=3 pitch=-6447 time=0.0037313416666666663
EXTRACT: pitchwheel channel=3 pitch=-6312 time=0.0037313416666666663
EXTRACT: pitchwheel channel=3 pitch=-6178 time=0.0055970125
EXTRACT: pitchwheel channel=3 pitch=-6044 time=0.0037313416666666663
EXTRACT: pitchwheel channel=3 pitch=-5910 time=0.0037313416666666663
EXTRACT: pitchwheel channel=3 pitch=-5775 time=0.0055970125
EXTRACT: pitchwheel channel=3 pitch=-5641 time=0.0018656708333333332
EXTRACT: pitchwheel channel=3 pitch=-5507 time=0.0037313416666666663
EXTRACT: pitchwheel channel=3 pitch=-5372 time=0.0055970125
EXTRACT: pitchwheel channel=3 pitch=-5238 time=0.0018656708333333332
EXTRACT: pitchwheel channel=3 pitch=-5104 time=0.0037313416666666663
EXTRACT: pitchwheel channel=3 pitch=-4970 time=0.0018656708333333332
EXTRACT: pitchwheel channel=3 pitch=-4835 time=0.0055970125
EXTRACT: pitchwheel channel=3 pitch=-4701 time=0.0018656708333333332
EXTRACT: pitchwheel channel=3 pitch=-4567 time=0.0037313416666666663
EXTRACT: pitchwheel channel=3 pitch=-4432 time=0.0018656708333333332
EXTRACT: pitchwheel channel=3 pitch=-4298 time=0.0037313416666666663
EXTRACT: pitchwheel channel=3 pitch=-4164 time=0.0037313416666666663
EXTRACT: pitchwheel channel=3 pitch=-4030 time=0.0018656708333333332
EXTRACT: pitchwheel channel=3 pitch=-3895 time=0.0018656708333333332
EXTRACT: pitchwheel channel=3 pitch=-3761 time=0.0055970125
EXTRACT: pitchwheel channel=3 pitch=-3627 time=0.0018656708333333332
EXTRACT: pitchwheel channel=3 pitch=-3492 time=0.0018656708333333332
EXTRACT: pitchwheel channel=3 pitch=-3358 time=0.0018656708333333332
EXTRACT: pitchwheel channel=3 pitch=-3224 time=0.0055970125
EXTRACT: pitchwheel channel=3 pitch=-3090 time=0.0018656708333333332
EXTRACT: pitchwheel channel=3 pitch=-2955 time=0.0018656708333333332
EXTRACT: pitchwheel channel=3 pitch=-2821 time=0.0018656708333333332
EXTRACT: pitchwheel channel=3 pitch=-2687 time=0.0018656708333333332
EXTRACT: pitchwheel channel=3 pitch=-2552 time=0.0018656708333333332
EXTRACT: pitchwheel channel=3 pitch=-2418 time=0.0055970125
EXTRACT: pitchwheel channel=3 pitch=-2284 time=0.0018656708333333332
EXTRACT: pitchwheel channel=3 pitch=-2150 time=0.0018656708333333332
EXTRACT: pitchwheel channel=3 pitch=-2015 time=0.0018656708333333332
EXTRACT: pitchwheel channel=3 pitch=-1881 time=0.0037313416666666663
EXTRACT: pitchwheel channel=3 pitch=-1747 time=0.0018656708333333332
EXTRACT: pitchwheel channel=3 pitch=-1612 time=0.0018656708333333332
EXTRACT: pitchwheel channel=3 pitch=-1478 time=0.0018656708333333332
EXTRACT: pitchwheel channel=3 pitch=-1344 time=0.0018656708333333332
EXTRACT: pitchwheel channel=3 pitch=-1210 time=0.0018656708333333332
EXTRACT: pitchwheel channel=3 pitch=-1075 time=0.0037313416666666663
EXTRACT: pitchwheel channel=3 pitch=-941 time=0.0018656708333333332
EXTRACT: note_on channel=2 note=62 velocity=90 time=0.0018656708333333332
EXTRACT: pitchwheel channel=3 pitch=-807 time=0
EXTRACT: pitchwheel channel=3 pitch=-672 time=0.0018656708333333332
EXTRACT: pitchwheel channel=3 pitch=-538 time=0.0018656708333333332
EXTRACT: pitchwheel channel=3 pitch=-404 time=0.0018656708333333332
EXTRACT: pitchwheel channel=3 pitch=-270 time=0.0037313416666666663
EXTRACT: pitchwheel channel=3 pitch=-135 time=0.0018656708333333332
EXTRACT: pitchwheel channel=3 pitch=-1 time=0.0018656708333333332
EXTRACT: note_on channel=2 note=62 velocity=0 time=0.16231336249999997
EXTRACT: note_on channel=3 note=85 velocity=0 time=0.011194025
EXTRACT: note_on channel=2 note=69 velocity=93 time=0
EXTRACT: note_on channel=3 note=85 velocity=100 time=0
EXTRACT: note_on channel=2 note=57 velocity=0 time=0.14925366666666665
EXTRACT: note_on channel=2 note=62 velocity=89 time=0.07462683333333332
EXTRACT: note_on channel=2 note=69 velocity=0 time=0.016791037499999998
EXTRACT: note_on channel=2 note=38 velocity=0 time=0.09141787083333333
EXTRACT: note_on channel=2 note=50 velocity=0 time=0.05783579583333333
EXTRACT: note_on channel=2 note=62 velocity=0 time=0.01865670833333333
EXTRACT: note_on channel=3 note=85 velocity=0 time=0.0055970125
EXTRACT: control_change channel=2 control=64 value=0 time=0.027985062499999998
EXTRACT: note_on channel=2 note=45 velocity=95 time=0
EXTRACT: note_on channel=2 note=52 velocity=95 time=0
EXTRACT: note_on channel=2 note=57 velocity=95 time=0
EXTRACT: note_on channel=3 note=85 velocity=100 time=0
EXTRACT: note_on channel=2 note=61 velocity=89 time=0.22388049999999998
EXTRACT: note_on channel=3 note=85 velocity=0 time=0.05410445416666666
EXTRACT: note_on channel=3 note=85 velocity=100 time=0
EXTRACT: control_change channel=2 control=64 value=127 time=0.04291042916666666
EXTRACT: note_on channel=2 note=69 velocity=93 time=0.09701488333333333
EXTRACT: note_on channel=2 note=61 velocity=0 time=0.03171640416666666
EXTRACT: note_on channel=2 note=57 velocity=0 time=0.09141787083333333
EXTRACT: note_on channel=3 note=85 velocity=0 time=0.09328354166666666
EXTRACT: note_on channel=2 note=61 velocity=93 time=0.007462683333333333
EXTRACT: note_on channel=2 note=69 velocity=0 time=0.020522379166666663
EXTRACT: note_on channel=2 note=61 velocity=0 time=0.18843275416666666
EXTRACT: note_on channel=2 note=57 velocity=91 time=0.014925366666666665
EXTRACT: pitchwheel channel=3 pitch=-4030 time=0.22201482916666665
EXTRACT: note_on channel=2 note=61 velocity=92 time=0
EXTRACT: note_on channel=3 note=88 velocity=100 time=0
EXTRACT: pitchwheel channel=3 pitch=-3895 time=0.0018656708333333332
EXTRACT: pitchwheel channel=3 pitch=-3761 time=0.04104475833333333
EXTRACT: pitchwheel channel=3 pitch=-3627 time=0.01865670833333333
EXTRACT: pitchwheel channel=3 pitch=-3492 time=0.011194025
EXTRACT: pitchwheel channel=3 pitch=-3358 time=0.013059695833333333
EXTRACT: pitchwheel channel=3 pitch=-3224 time=0.011194025
EXTRACT: pitchwheel channel=3 pitch=-3090 time=0.011194025
EXTRACT: pitchwheel channel=3 pitch=-2955 time=0.007462683333333333
EXTRACT: pitchwheel channel=3 pitch=-2821 time=0.007462683333333333
EXTRACT: pitchwheel channel=3 pitch=-2687 time=0.007462683333333333
EXTRACT: pitchwheel channel=3 pitch=-2552 time=0.007462683333333333
EXTRACT: pitchwheel channel=3 pitch=-2418 time=0.007462683333333333
EXTRACT: pitchwheel channel=3 pitch=-2284 time=0.0037313416666666663
EXTRACT: pitchwheel channel=3 pitch=-2150 time=0.007462683333333333
EXTRACT: pitchwheel channel=3 pitch=-2015 time=0.007462683333333333
EXTRACT: pitchwheel channel=3 pitch=-1881 time=0.0037313416666666663
EXTRACT: pitchwheel channel=3 pitch=-1747 time=0.0037313416666666663
EXTRACT: pitchwheel channel=3 pitch=-1612 time=0.007462683333333333
EXTRACT: pitchwheel channel=3 pitch=-1478 time=0.0037313416666666663
EXTRACT: pitchwheel channel=3 pitch=-1344 time=0.009328354166666665
EXTRACT: pitchwheel channel=3 pitch=-1210 time=0.0037313416666666663
EXTRACT: pitchwheel channel=3 pitch=-1075 time=0.0037313416666666663
EXTRACT: pitchwheel channel=3 pitch=-941 time=0.0037313416666666663
EXTRACT: pitchwheel channel=3 pitch=-807 time=0.007462683333333333
EXTRACT: pitchwheel channel=3 pitch=-672 time=0.0037313416666666663
EXTRACT: pitchwheel channel=3 pitch=-538 time=0.0037313416666666663
EXTRACT: note_on channel=2 note=61 velocity=0 time=0.0018656708333333332
EXTRACT: pitchwheel channel=3 pitch=-404 time=0.0018656708333333332
EXTRACT: note_on channel=2 note=69 velocity=87 time=0.0018656708333333332
EXTRACT: pitchwheel channel=3 pitch=-270 time=0.0018656708333333332
EXTRACT: pitchwheel channel=3 pitch=-135 time=0.0037313416666666663
EXTRACT: note_on channel=2 note=57 velocity=0 time=0.0018656708333333332
EXTRACT: pitchwheel channel=3 pitch=-1 time=0.0018656708333333332
EXTRACT: pitchwheel channel=3 pitch=0 time=0.0037313416666666663
EXTRACT: note_on channel=3 note=88 velocity=0 time=0.20335812083333332
EXTRACT: note_on channel=2 note=61 velocity=92 time=0
EXTRACT: note_on channel=3 note=85 velocity=100 time=0
EXTRACT: note_on channel=2 note=69 velocity=0 time=0.03171640416666666
EXTRACT: note_on channel=2 note=52 velocity=0 time=0.10634323749999999
EXTRACT: note_on channel=2 note=45 velocity=0 time=0.009328354166666665
EXTRACT: note_on channel=2 note=61 velocity=0 time=0.06343280833333333
EXTRACT: note_on channel=2 note=40 velocity=95 time=0.013059695833333333
EXTRACT: note_on channel=2 note=52 velocity=95 time=0
EXTRACT: note_on channel=2 note=56 velocity=93 time=0
EXTRACT: control_change channel=2 control=64 value=0 time=0.18656708333333333
EXTRACT: note_on channel=2 note=59 velocity=92 time=0.03731341666666666
EXTRACT: pitchwheel channel=3 pitch=-1 time=0.0037313416666666663
EXTRACT: pitchwheel channel=3 pitch=-135 time=0.027985062499999998
EXTRACT: pitchwheel channel=3 pitch=-270 time=0.013059695833333333
EXTRACT: pitchwheel channel=3 pitch=-404 time=0.0055970125
EXTRACT: pitchwheel channel=3 pitch=-538 time=0.007462683333333333
EXTRACT: pitchwheel channel=3 pitch=-672 time=0.007462683333333333
EXTRACT: pitchwheel channel=3 pitch=-807 time=0.0055970125
EXTRACT: pitchwheel channel=3 pitch=-941 time=0.0055970125
EXTRACT: pitchwheel channel=3 pitch=-1075 time=0.0055970125
EXTRACT: pitchwheel channel=3 pitch=-1210 time=0.0037313416666666663
EXTRACT: pitchwheel channel=3 pitch=-1344 time=0.0037313416666666663
EXTRACT: pitchwheel channel=3 pitch=-1478 time=0.0037313416666666663
EXTRACT: pitchwheel channel=3 pitch=-1612 time=0.0037313416666666663
EXTRACT: control_change channel=2 control=64 value=127 time=0.0018656708333333332
EXTRACT: pitchwheel channel=3 pitch=-1747 time=0.0018656708333333332
EXTRACT: pitchwheel channel=3 pitch=-1881 time=0.0037313416666666663
EXTRACT: pitchwheel channel=3 pitch=-2015 time=0.0037313416666666663
EXTRACT: pitchwheel channel=3 pitch=-2150 time=0.0037313416666666663
EXTRACT: pitchwheel channel=3 pitch=-2284 time=0.0037313416666666663
EXTRACT: pitchwheel channel=3 pitch=-2418 time=0.0037313416666666663
EXTRACT: pitchwheel channel=3 pitch=-2552 time=0.0018656708333333332
EXTRACT: pitchwheel channel=3 pitch=-2687 time=0.0037313416666666663
EXTRACT: pitchwheel channel=3 pitch=-2821 time=0.0037313416666666663
EXTRACT: pitchwheel channel=3 pitch=-2955 time=0.0018656708333333332
EXTRACT: pitchwheel channel=3 pitch=-3090 time=0.0037313416666666663
EXTRACT: pitchwheel channel=3 pitch=-3224 time=0.0018656708333333332
EXTRACT: pitchwheel channel=3 pitch=-3358 time=0.0018656708333333332
EXTRACT: pitchwheel channel=3 pitch=-3492 time=0.0018656708333333332
EXTRACT: pitchwheel channel=3 pitch=-3627 time=0.0037313416666666663
EXTRACT: pitchwheel channel=3 pitch=-3761 time=0.0018656708333333332
EXTRACT: pitchwheel channel=3 pitch=-3895 time=0.0037313416666666663
EXTRACT: pitchwheel channel=3 pitch=-4030 time=0.0018656708333333332
EXTRACT: pitchwheel channel=3 pitch=-4164 time=0.0018656708333333332
EXTRACT: pitchwheel channel=3 pitch=-4298 time=0.0037313416666666663
EXTRACT: pitchwheel channel=3 pitch=-4432 time=0.0018656708333333332
EXTRACT: pitchwheel channel=3 pitch=-4567 time=0.0018656708333333332
EXTRACT: pitchwheel channel=3 pitch=-4701 time=0.0018656708333333332
EXTRACT: pitchwheel channel=3 pitch=-4835 time=0.0037313416666666663
EXTRACT: pitchwheel channel=3 pitch=-4970 time=0.0018656708333333332
EXTRACT: pitchwheel channel=3 pitch=-5104 time=0.0018656708333333332
EXTRACT: pitchwheel channel=3 pitch=-5238 time=0.0018656708333333332
EXTRACT: pitchwheel channel=3 pitch=-5372 time=0.0037313416666666663
EXTRACT: pitchwheel channel=3 pitch=-5507 time=0.0018656708333333332
EXTRACT: pitchwheel channel=3 pitch=-5641 time=0.0018656708333333332
EXTRACT: pitchwheel channel=3 pitch=-5775 time=0.0018656708333333332
EXTRACT: pitchwheel channel=3 pitch=-5910 time=0.0018656708333333332
EXTRACT: pitchwheel channel=3 pitch=-6044 time=0
EXTRACT: pitchwheel channel=3 pitch=-6178 time=0.0018656708333333332
EXTRACT: pitchwheel channel=3 pitch=-6312 time=0.0018656708333333332
EXTRACT: pitchwheel channel=3 pitch=-6447 time=0.0018656708333333332
EXTRACT: pitchwheel channel=3 pitch=-6581 time=0.0037313416666666663
EXTRACT: pitchwheel channel=3 pitch=-6715 time=0.0018656708333333332
EXTRACT: pitchwheel channel=3 pitch=-6850 time=0.0018656708333333332
EXTRACT: pitchwheel channel=3 pitch=-6984 time=0.0018656708333333332
EXTRACT: pitchwheel channel=3 pitch=-7118 time=0.0018656708333333332
EXTRACT: note_on channel=2 note=59 velocity=0 time=0.0018656708333333332
EXTRACT: pitchwheel channel=3 pitch=-7252 time=0
EXTRACT: pitchwheel channel=3 pitch=-7387 time=0.0018656708333333332
EXTRACT: pitchwheel channel=3 pitch=-7521 time=0.0018656708333333332
EXTRACT: pitchwheel channel=3 pitch=-7655 time=0.0018656708333333332
EXTRACT: pitchwheel channel=3 pitch=-7790 time=0.0018656708333333332
EXTRACT: pitchwheel channel=3 pitch=-7924 time=0.0018656708333333332
EXTRACT: pitchwheel channel=3 pitch=-8058 time=0.0018656708333333332
EXTRACT: pitchwheel channel=3 pitch=-8192 time=0.0018656708333333332
EXTRACT: note_on channel=3 note=85 velocity=0 time=0.0018656708333333332
EXTRACT: note_on channel=2 note=68 velocity=90 time=0.007462683333333333
EXTRACT: note_on channel=2 note=56 velocity=0 time=0.09888055416666666
EXTRACT: pitchwheel channel=3 pitch=0 time=0.009328354166666665
EXTRACT: note_on channel=2 note=59 velocity=92 time=0.11567159166666666
EXTRACT: note_on channel=2 note=68 velocity=0 time=0.01865670833333333
EXTRACT: note_on channel=2 note=59 velocity=0 time=0.18843275416666666
EXTRACT: note_on channel=2 note=56 velocity=91 time=0
EXTRACT: note_on channel=3 note=86 velocity=100 time=0
EXTRACT: note_on channel=3 note=86 velocity=0 time=0.21641781666666665
EXTRACT: note_on channel=2 note=59 velocity=92 time=0.007462683333333333
EXTRACT: note_on channel=3 note=85 velocity=88 time=0
EXTRACT: note_on channel=2 note=56 velocity=0 time=0.18097007083333333
EXTRACT: note_on channel=2 note=59 velocity=0 time=0.016791037499999998
EXTRACT: note_on channel=3 note=85 velocity=0 time=0.01865670833333333
EXTRACT: note_on channel=2 note=68 velocity=87 time=0
EXTRACT: note_on channel=3 note=83 velocity=96 time=0
EXTRACT: note_on channel=2 note=68 velocity=0 time=0.19216409583333333
EXTRACT: note_on channel=3 note=83 velocity=0 time=0.024253720833333332
EXTRACT: note_on channel=2 note=59 velocity=92 time=0.007462683333333333
EXTRACT: note_on channel=3 note=81 velocity=87 time=0
EXTRACT: note_on channel=2 note=52 velocity=0 time=0.1473879958333333
EXTRACT: note_on channel=2 note=40 velocity=0 time=0
EXTRACT: note_on channel=2 note=59 velocity=0 time=0.0055970125
EXTRACT: note_on channel=3 note=81 velocity=0 time=0.03171640416666666
EXTRACT: pitchwheel channel=3 pitch=-8192 time=0.02985073333333333
EXTRACT: pitchwheel channel=3 pitch=-8058 time=0.0018656708333333332
EXTRACT: note_on channel=2 note=42 velocity=92 time=0
EXTRACT: note_on channel=2 note=49 velocity=94 time=0
EXTRACT: note_on channel=2 note=57 velocity=92 time=0
EXTRACT: note_on channel=3 note=85 velocity=100 time=0
EXTRACT: pitchwheel channel=3 pitch=-7924 time=0.020522379166666663
EXTRACT: pitchwheel channel=3 pitch=-7790 time=0.011194025
EXTRACT: pitchwheel channel=3 pitch=-7655 time=0.009328354166666665
EXTRACT: pitchwheel channel=3 pitch=-7521 time=0.007462683333333333
EXTRACT: pitchwheel channel=3 pitch=-7387 time=0.007462683333333333
EXTRACT: pitchwheel channel=3 pitch=-7252 time=0.007462683333333333
EXTRACT: pitchwheel channel=3 pitch=-7118 time=0.0055970125
EXTRACT: pitchwheel channel=3 pitch=-6984 time=0.0037313416666666663
EXTRACT: pitchwheel channel=3 pitch=-6850 time=0.0055970125
EXTRACT: pitchwheel channel=3 pitch=-6715 time=0.0037313416666666663
EXTRACT: control_change channel=2 control=64 value=0 time=0.0055970125
EXTRACT: pitchwheel channel=3 pitch=-6581 time=0
EXTRACT: pitchwheel channel=3 pitch=-6447 time=0.0055970125
EXTRACT: pitchwheel channel=3 pitch=-6312 time=0.0018656708333333332
EXTRACT: pitchwheel channel=3 pitch=-6178 time=0.0055970125
EXTRACT: pitchwheel channel=3 pitch=-6044 time=0.0037313416666666663
EXTRACT: pitchwheel channel=3 pitch=-5910 time=0.0037313416666666663
EXTRACT: pitchwheel channel=3 pitch=-5775 time=0.0037313416666666663
EXTRACT: pitchwheel channel=3 pitch=-5641 time=0.0018656708333333332
EXTRACT: pitchwheel channel=3 pitch=-5507 time=0.0037313416666666663
EXTRACT: pitchwheel channel=3 pitch=-5372 time=0.0037313416666666663
EXTRACT: pitchwheel channel=3 pitch=-5238 time=0.0037313416666666663
EXTRACT: pitchwheel channel=3 pitch=-5104 time=0.0018656708333333332
EXTRACT: pitchwheel channel=3 pitch=-4970 time=0.0037313416666666663
EXTRACT: pitchwheel channel=3 pitch=-4835 time=0.0037313416666666663
EXTRACT: pitchwheel channel=3 pitch=-4701 time=0.0018656708333333332
EXTRACT: pitchwheel channel=3 pitch=-4567 time=0.0018656708333333332
EXTRACT: pitchwheel channel=3 pitch=-4432 time=0.0037313416666666663
EXTRACT: pitchwheel channel=3 pitch=-4298 time=0.0037313416666666663
EXTRACT: pitchwheel channel=3 pitch=-4164 time=0.0018656708333333332
EXTRACT: pitchwheel channel=3 pitch=-4030 time=0.0037313416666666663
EXTRACT: pitchwheel channel=3 pitch=-3895 time=0.0018656708333333332
EXTRACT: pitchwheel channel=3 pitch=-3761 time=0.0037313416666666663
EXTRACT: pitchwheel channel=3 pitch=-3627 time=0.0018656708333333332
EXTRACT: pitchwheel channel=3 pitch=-3492 time=0.0018656708333333332
EXTRACT: pitchwheel channel=3 pitch=-3358 time=0.0018656708333333332
EXTRACT: pitchwheel channel=3 pitch=-3224 time=0.0037313416666666663
EXTRACT: pitchwheel channel=3 pitch=-3090 time=0.0018656708333333332
EXTRACT: pitchwheel channel=3 pitch=-2955 time=0.0018656708333333332
EXTRACT: pitchwheel channel=3 pitch=-2821 time=0.0037313416666666663
EXTRACT: pitchwheel channel=3 pitch=-2687 time=0.0018656708333333332
EXTRACT: pitchwheel channel=3 pitch=-2552 time=0.0018656708333333332
EXTRACT: pitchwheel channel=3 pitch=-2418 time=0.0018656708333333332
EXTRACT: pitchwheel channel=3 pitch=-2284 time=0.0018656708333333332
EXTRACT: pitchwheel channel=3 pitch=-2150 time=0.0018656708333333332
EXTRACT: pitchwheel channel=3 pitch=-2015 time=0.0037313416666666663
EXTRACT: pitchwheel channel=3 pitch=-1881 time=0.0018656708333333332
EXTRACT: pitchwheel channel=3 pitch=-1747 time=0.0018656708333333332
EXTRACT: pitchwheel channel=3 pitch=-1612 time=0.0018656708333333332
EXTRACT: pitchwheel channel=3 pitch=-1478 time=0.0018656708333333332
EXTRACT: pitchwheel channel=3 pitch=-1344 time=0.0018656708333333332
EXTRACT: pitchwheel channel=3 pitch=-1210 time=0.0018656708333333332
EXTRACT: pitchwheel channel=3 pitch=-1075 time=0.0018656708333333332
EXTRACT: pitchwheel channel=3 pitch=-941 time=0.0018656708333333332
EXTRACT: pitchwheel channel=3 pitch=-807 time=0.0037313416666666663
EXTRACT: pitchwheel channel=3 pitch=-672 time=0.0018656708333333332
EXTRACT: pitchwheel channel=3 pitch=-538 time=0.0018656708333333332
EXTRACT: pitchwheel channel=3 pitch=-404 time=0.0018656708333333332
EXTRACT: pitchwheel channel=3 pitch=-270 time=0.0018656708333333332
EXTRACT: pitchwheel channel=3 pitch=-135 time=0.0018656708333333332
EXTRACT: pitchwheel channel=3 pitch=-1 time=0.0018656708333333332
EXTRACT: pitchwheel channel=3 pitch=0 time=0.0018656708333333332
EXTRACT: note_on channel=2 note=61 velocity=87 time=0.0055970125
EXTRACT: control_change channel=2 control=64 value=127 time=0.07462683333333332
EXTRACT: note_on channel=3 note=85 velocity=0 time=0.007462683333333333
EXTRACT: pitchwheel channel=3 pitch=-8192 time=0.026119391666666665
EXTRACT: pitchwheel channel=3 pitch=-8058 time=0.0018656708333333332
EXTRACT: note_on channel=3 note=85 velocity=100 time=0
EXTRACT: pitchwheel channel=3 pitch=-7924 time=0.013059695833333333
EXTRACT: pitchwheel channel=3 pitch=-7790 time=0.009328354166666665
EXTRACT: pitchwheel channel=3 pitch=-7655 time=0.007462683333333333
EXTRACT: pitchwheel channel=3 pitch=-7521 time=0.0055970125
EXTRACT: pitchwheel channel=3 pitch=-7387 time=0.0055970125
EXTRACT: pitchwheel channel=3 pitch=-7252 time=0.0055970125
EXTRACT: pitchwheel channel=3 pitch=-7118 time=0.0037313416666666663
EXTRACT: pitchwheel channel=3 pitch=-6984 time=0.0037313416666666663
EXTRACT: pitchwheel channel=3 pitch=-6850 time=0.0037313416666666663
EXTRACT: pitchwheel channel=3 pitch=-6715 time=0.0037313416666666663
EXTRACT: pitchwheel channel=3 pitch=-6581 time=0.0037313416666666663
EXTRACT: pitchwheel channel=3 pitch=-6447 time=0.0037313416666666663
EXTRACT: pitchwheel channel=3 pitch=-6312 time=0.0018656708333333332
EXTRACT: pitchwheel channel=3 pitch=-6178 time=0.0037313416666666663
EXTRACT: pitchwheel channel=3 pitch=-6044 time=0.0018656708333333332
EXTRACT: pitchwheel channel=3 pitch=-5910 time=0.0037313416666666663
EXTRACT: pitchwheel channel=3 pitch=-5775 time=0.0018656708333333332
EXTRACT: pitchwheel channel=3 pitch=-5641 time=0.0037313416666666663
EXTRACT: pitchwheel channel=3 pitch=-5507 time=0.0018656708333333332
EXTRACT: pitchwheel channel=3 pitch=-5372 time=0.0037313416666666663
EXTRACT: pitchwheel channel=3 pitch=-5238 time=0.0037313416666666663
EXTRACT: pitchwheel channel=3 pitch=-5104 time=0
EXTRACT: pitchwheel channel=3 pitch=-4970 time=0.0037313416666666663
EXTRACT: pitchwheel channel=3 pitch=-4835 time=0.0018656708333333332
EXTRACT: pitchwheel channel=3 pitch=-4701 time=0.0018656708333333332
EXTRACT: note_on channel=2 note=61 velocity=0 time=0.0037313416666666663
EXTRACT: note_on channel=2 note=69 velocity=91 time=0
EXTRACT: pitchwheel channel=3 pitch=-4567 time=0
EXTRACT: pitchwheel channel=3 pitch=-4432 time=0
EXTRACT: pitchwheel channel=3 pitch=-4298 time=0.0037313416666666663
EXTRACT: pitchwheel channel=3 pitch=-4164 time=0.0018656708333333332
EXTRACT: pitchwheel channel=3 pitch=-4030 time=0.0018656708333333332
EXTRACT: pitchwheel channel=3 pitch=-3895 time=0.0018656708333333332
EXTRACT: pitchwheel channel=3 pitch=-3761 time=0.0018656708333333332
EXTRACT: pitchwheel channel=3 pitch=-3627 time=0.0018656708333333332
EXTRACT: pitchwheel channel=3 pitch=-3492 time=0.0018656708333333332
EXTRACT: pitchwheel channel=3 pitch=-3358 time=0.0037313416666666663
EXTRACT: pitchwheel channel=3 pitch=-3224 time=0
EXTRACT: pitchwheel channel=3 pitch=-3090 time=0.0018656708333333332
EXTRACT: pitchwheel channel=3 pitch=-2955 time=0.0037313416666666663
EXTRACT: pitchwheel channel=3 pitch=-2821 time=0
EXTRACT: pitchwheel channel=3 pitch=-2687 time=0.0018656708333333332
EXTRACT: pitchwheel channel=3 pitch=-2552 time=0.0018656708333333332
EXTRACT: pitchwheel channel=3 pitch=-2418 time=0.0018656708333333332
EXTRACT: pitchwheel channel=3 pitch=-2284 time=0.0018656708333333332
EXTRACT: pitchwheel channel=3 pitch=-2150 time=0.0018656708333333332
EXTRACT: pitchwheel channel=3 pitch=-2015 time=0.0018656708333333332
EXTRACT: pitchwheel channel=3 pitch=-1881 time=0
EXTRACT: pitchwheel channel=3 pitch=-1747 time=0.0018656708333333332
EXTRACT: pitchwheel channel=3 pitch=-1612 time=0.0037313416666666663
EXTRACT: pitchwheel channel=3 pitch=-1478 time=0.0018656708333333332
EXTRACT: pitchwheel channel=3 pitch=-1344 time=0
EXTRACT: pitchwheel channel=3 pitch=-1210 time=0.0018656708333333332
EXTRACT: pitchwheel channel=3 pitch=-1075 time=0.0018656708333333332
EXTRACT: pitchwheel channel=3 pitch=-941 time=0.0018656708333333332
EXTRACT: pitchwheel channel=3 pitch=-807 time=0
EXTRACT: pitchwheel channel=3 pitch=-672 time=0.0018656708333333332
EXTRACT: pitchwheel channel=3 pitch=-538 time=0.0018656708333333332
EXTRACT: pitchwheel channel=3 pitch=-404 time=0.0018656708333333332
EXTRACT: pitchwheel channel=3 pitch=-270 time=0
EXTRACT: pitchwheel channel=3 pitch=-135 time=0.0018656708333333332
EXTRACT: pitchwheel channel=3 pitch=-1 time=0.0018656708333333332
EXTRACT: pitchwheel channel=3 pitch=0 time=0.0018656708333333332
EXTRACT: note_on channel=2 note=61 velocity=87 time=0.1641790333333333
EXTRACT: note_on channel=2 note=69 velocity=0 time=0.011194025
EXTRACT: note_on channel=2 note=57 velocity=0 time=0
EXTRACT: note_on channel=2 note=61 velocity=0 time=0.19962677916666666
EXTRACT: note_on channel=2 note=57 velocity=90 time=0.013059695833333333
EXTRACT: note_on channel=3 note=85 velocity=0 time=0.1791044
EXTRACT: pitchwheel channel=3 pitch=-8192 time=0.039179087499999994
EXTRACT: pitchwheel channel=3 pitch=-8058 time=0.0018656708333333332
EXTRACT: note_on channel=2 note=61 velocity=89 time=0
EXTRACT: note_on channel=3 note=85 velocity=100 time=0
EXTRACT: pitchwheel channel=3 pitch=-7924 time=0.016791037499999998
EXTRACT: pitchwheel channel=3 pitch=-7790 time=0.011194025
EXTRACT: pitchwheel channel=3 pitch=-7655 time=0.0055970125
EXTRACT: pitchwheel channel=3 pitch=-7521 time=0.007462683333333333
EXTRACT: pitchwheel channel=3 pitch=-7387 time=0.0055970125
EXTRACT: pitchwheel channel=3 pitch=-7252 time=0.0037313416666666663
EXTRACT: pitchwheel channel=3 pitch=-7118 time=0.0037313416666666663
EXTRACT: pitchwheel channel=3 pitch=-6984 time=0.0037313416666666663
EXTRACT: pitchwheel channel=3 pitch=-6850 time=0.0055970125
EXTRACT: pitchwheel channel=3 pitch=-6715 time=0.0018656708333333332
EXTRACT: pitchwheel channel=3 pitch=-6581 time=0.0055970125
EXTRACT: pitchwheel channel=3 pitch=-6447 time=0.0018656708333333332
EXTRACT: pitchwheel channel=3 pitch=-6312 time=0.0037313416666666663
EXTRACT: pitchwheel channel=3 pitch=-6178 time=0.0018656708333333332
EXTRACT: pitchwheel channel=3 pitch=-6044 time=0.0037313416666666663
EXTRACT: pitchwheel channel=3 pitch=-5910 time=0.0018656708333333332
EXTRACT: pitchwheel channel=3 pitch=-5775 time=0.0037313416666666663
EXTRACT: pitchwheel channel=3 pitch=-5641 time=0.0018656708333333332
EXTRACT: pitchwheel channel=3 pitch=-5507 time=0.0037313416666666663
EXTRACT: pitchwheel channel=3 pitch=-5372 time=0.0018656708333333332
EXTRACT: pitchwheel channel=3 pitch=-5238 time=0.0037313416666666663
EXTRACT: pitchwheel channel=3 pitch=-5104 time=0.0018656708333333332
EXTRACT: pitchwheel channel=3 pitch=-4970 time=0.0018656708333333332
EXTRACT: pitchwheel channel=3 pitch=-4835 time=0.0037313416666666663
EXTRACT: pitchwheel channel=3 pitch=-4701 time=0
EXTRACT: pitchwheel channel=3 pitch=-4567 time=0.0037313416666666663
EXTRACT: pitchwheel channel=3 pitch=-4432 time=0.0018656708333333332
EXTRACT: pitchwheel channel=3 pitch=-4298 time=0.0018656708333333332
EXTRACT: pitchwheel channel=3 pitch=-4164 time=0.0018656708333333332
EXTRACT: pitchwheel channel=3 pitch=-4030 time=0.0037313416666666663
EXTRACT: pitchwheel channel=3 pitch=-3895 time=0
EXTRACT: pitchwheel channel=3 pitch=-3761 time=0.0037313416666666663
EXTRACT: pitchwheel channel=3 pitch=-3627 time=0.0018656708333333332
EXTRACT: pitchwheel channel=3 pitch=-3492 time=0
EXTRACT: pitchwheel channel=3 pitch=-3358 time=0.0037313416666666663
EXTRACT: pitchwheel channel=3 pitch=-3224 time=0.0018656708333333332
EXTRACT: pitchwheel channel=3 pitch=-3090 time=0
EXTRACT: pitchwheel channel=3 pitch=-2955 time=0.0037313416666666663
EXTRACT: pitchwheel channel=3 pitch=-2821 time=0.0018656708333333332
EXTRACT: pitchwheel channel=3 pitch=-2687 time=0
EXTRACT: pitchwheel channel=3 pitch=-2552 time=0.0018656708333333332
EXTRACT: pitchwheel channel=3 pitch=-2418 time=0.0037313416666666663
EXTRACT: pitchwheel channel=3 pitch=-2284 time=0
EXTRACT: pitchwheel channel=3 pitch=-2150 time=0.0018656708333333332
EXTRACT: pitchwheel channel=3 pitch=-2015 time=0.0018656708333333332
EXTRACT: pitchwheel channel=3 pitch=-1881 time=0.0018656708333333332
EXTRACT: pitchwheel channel=3 pitch=-1747 time=0.0018656708333333332
EXTRACT: pitchwheel channel=3 pitch=-1612 time=0.0018656708333333332
EXTRACT: pitchwheel channel=3 pitch=-1478 time=0.0018656708333333332
EXTRACT: pitchwheel channel=3 pitch=-1344 time=0.0018656708333333332
EXTRACT: pitchwheel channel=3 pitch=-1210 time=0
EXTRACT: pitchwheel channel=3 pitch=-1075 time=0.0018656708333333332
EXTRACT: pitchwheel channel=3 pitch=-941 time=0.0018656708333333332
EXTRACT: pitchwheel channel=3 pitch=-807 time=0.0018656708333333332
EXTRACT: pitchwheel channel=3 pitch=-672 time=0
EXTRACT: pitchwheel channel=3 pitch=-538 time=0.0018656708333333332
EXTRACT: pitchwheel channel=3 pitch=-404 time=0.0018656708333333332
EXTRACT: pitchwheel channel=3 pitch=-270 time=0.0018656708333333332
EXTRACT: pitchwheel channel=3 pitch=-135 time=0
EXTRACT: pitchwheel channel=3 pitch=-1 time=0.0018656708333333332
EXTRACT: pitchwheel channel=3 pitch=0 time=0.0018656708333333332
EXTRACT: note_on channel=2 note=61 velocity=0 time=0.02238805
EXTRACT: note_on channel=2 note=69 velocity=88 time=0.03171640416666666
EXTRACT: note_on channel=2 note=57 velocity=0 time=0.04664177083333333
EXTRACT: note_on channel=3 note=85 velocity=0 time=0.1473879958333333
EXTRACT: pitchwheel channel=3 pitch=8191 time=0.020522379166666663
EXTRACT: note_on channel=2 note=61 velocity=88 time=0
EXTRACT: note_on channel=3 note=81 velocity=97 time=0
EXTRACT: note_on channel=2 note=69 velocity=0 time=0.0037313416666666663
EXTRACT: pitchwheel channel=3 pitch=8056 time=0.06343280833333333
EXTRACT: pitchwheel channel=3 pitch=7788 time=0.0018656708333333332
EXTRACT: pitchwheel channel=3 pitch=7519 time=0.0018656708333333332
EXTRACT: pitchwheel channel=3 pitch=7519 time=0.0018656708333333332
EXTRACT: pitchwheel channel=3 pitch=7385 time=0.0037313416666666663
EXTRACT: pitchwheel channel=3 pitch=7116 time=0.0018656708333333332
EXTRACT: pitchwheel channel=3 pitch=7116 time=0.0018656708333333332
EXTRACT: pitchwheel channel=3 pitch=6982 time=0
EXTRACT: pitchwheel channel=3 pitch=6713 time=0.0018656708333333332
EXTRACT: pitchwheel channel=3 pitch=6310 time=0.0018656708333333332
EXTRACT: pitchwheel channel=3 pitch=6042 time=0.0018656708333333332
EXTRACT: pitchwheel channel=3 pitch=6042 time=0.0037313416666666663
EXTRACT: pitchwheel channel=3 pitch=5908 time=0.0018656708333333332
EXTRACT: pitchwheel channel=3 pitch=5773 time=0
EXTRACT: pitchwheel channel=3 pitch=5505 time=0.0018656708333333332
EXTRACT: pitchwheel channel=3 pitch=5370 time=0.0018656708333333332
EXTRACT: pitchwheel channel=3 pitch=5370 time=0.0018656708333333332
EXTRACT: pitchwheel channel=3 pitch=5236 time=0.0018656708333333332
EXTRACT: pitchwheel channel=3 pitch=4833 time=0.0018656708333333332
EXTRACT: pitchwheel channel=3 pitch=4699 time=0.0018656708333333332
EXTRACT: pitchwheel channel=3 pitch=4430 time=0
EXTRACT: pitchwheel channel=3 pitch=4162 time=0.0018656708333333332
EXTRACT: pitchwheel channel=3 pitch=3893 time=0.0037313416666666663
EXTRACT: pitchwheel channel=3 pitch=3625 time=0.0018656708333333332
EXTRACT: pitchwheel channel=3 pitch=3356 time=0.0037313416666666663
EXTRACT: pitchwheel channel=3 pitch=3356 time=0.0018656708333333332
EXTRACT: pitchwheel channel=3 pitch=3222 time=0
EXTRACT: pitchwheel channel=3 pitch=3088 time=0.0018656708333333332
EXTRACT: pitchwheel channel=3 pitch=2550 time=0.0018656708333333332
EXTRACT: pitchwheel channel=3 pitch=2550 time=0.0018656708333333332
EXTRACT: pitchwheel channel=3 pitch=2550 time=0.0018656708333333332
EXTRACT: pitchwheel channel=3 pitch=2148 time=0.0018656708333333332
EXTRACT: pitchwheel channel=3 pitch=2013 time=0.0018656708333333332
EXTRACT: pitchwheel channel=3 pitch=1745 time=0
EXTRACT: pitchwheel channel=3 pitch=1745 time=0.0018656708333333332
EXTRACT: pitchwheel channel=3 pitch=1610 time=0.0018656708333333332
EXTRACT: pitchwheel channel=3 pitch=1476 time=0.0018656708333333332
EXTRACT: pitchwheel channel=3 pitch=1208 time=0.0018656708333333332
EXTRACT: pitchwheel channel=3 pitch=939 time=0
EXTRACT: pitchwheel channel=3 pitch=670 time=0.0018656708333333332
EXTRACT: pitchwheel channel=3 pitch=670 time=0.0018656708333333332
EXTRACT: pitchwheel channel=3 pitch=670 time=0.0018656708333333332
EXTRACT: pitchwheel channel=3 pitch=0 time=0.0055970125
EXTRACT: note_on channel=2 note=61 velocity=0 time=0.055970124999999996
EXTRACT: note_on channel=3 note=81 velocity=0 time=0.014925366666666665
EXTRACT: note_on channel=2 note=49 velocity=0 time=0
EXTRACT: note_on channel=2 note=42 velocity=0 time=0
EXTRACT: note_on channel=2 note=38 velocity=88 time=0.007462683333333333
EXTRACT: note_on channel=2 note=50 velocity=88 time=0
EXTRACT: note_on channel=2 note=57 velocity=88 time=0
EXTRACT: note_on channel=3 note=78 velocity=90 time=0
EXTRACT: control_change channel=2 control=64 value=0 time=0.10820890833333333
EXTRACT: note_on channel=2 note=62 velocity=88 time=0.11567159166666666
EXTRACT: control_change channel=2 control=64 value=127 time=0.0018656708333333332
EXTRACT: note_on channel=2 note=62 velocity=0 time=0.1958954375
EXTRACT: note_on channel=2 note=69 velocity=87 time=0.026119391666666665
EXTRACT: note_on channel=2 note=57 velocity=0 time=0.08395518749999999
EXTRACT: note_on channel=2 note=62 velocity=87 time=0.13992531249999998
EXTRACT: note_on channel=2 note=69 velocity=0 time=0.03171640416666666
EXTRACT: note_on channel=3 note=78 velocity=0 time=0.15111933749999998
EXTRACT: note_on channel=2 note=62 velocity=0 time=0.007462683333333333
EXTRACT: note_on channel=2 note=57 velocity=87 time=0
EXTRACT: note_on channel=3 note=81 velocity=95 time=0
EXTRACT: note_on channel=3 note=81 velocity=0 time=0.19216409583333333
EXTRACT: note_on channel=2 note=62 velocity=87 time=0
EXTRACT: note_on channel=3 note=81 velocity=92 time=0
EXTRACT: note_on channel=2 note=62 velocity=0 time=0.1753730583333333
EXTRACT: note_on channel=2 note=69 velocity=93 time=0.048507441666666665
EXTRACT: note_on channel=2 note=57 velocity=0 time=0.14925366666666665
EXTRACT: note_on channel=3 note=81 velocity=0 time=0.0447761
EXTRACT: note_on channel=2 note=62 velocity=89 time=0
EXTRACT: note_on channel=3 note=81 velocity=95 time=0
EXTRACT: note_on channel=2 note=69 velocity=0 time=0.016791037499999998
EXTRACT: note_on channel=2 note=38 velocity=0 time=0.09141787083333333
EXTRACT: note_on channel=2 note=50 velocity=0 time=0.05783579583333333
EXTRACT: note_on channel=2 note=62 velocity=0 time=0.01865670833333333
EXTRACT: note_on channel=3 note=81 velocity=0 time=0.0037313416666666663
EXTRACT: control_change channel=2 control=64 value=0 time=0.02985073333333333
EXTRACT: note_on channel=2 note=33 velocity=91 time=0
EXTRACT: note_on channel=2 note=45 velocity=91 time=0
EXTRACT: note_on channel=2 note=57 velocity=91 time=0
EXTRACT: note_on channel=3 note=81 velocity=99 time=0
EXTRACT: note_on channel=2 note=61 velocity=83 time=0.22388049999999998
EXTRACT: control_change channel=2 control=64 value=127 time=0.12686561666666665
EXTRACT: note_on channel=2 note=69 velocity=86 time=0.09701488333333333
EXTRACT: note_on channel=2 note=61 velocity=0 time=0.03171640416666666
EXTRACT: note_on channel=2 note=57 velocity=0 time=0.09141787083333333
EXTRACT: note_on channel=3 note=81 velocity=0 time=0.09328354166666666
EXTRACT: note_on channel=2 note=61 velocity=86 time=0
EXTRACT: note_on channel=3 note=76 velocity=95 time=0
EXTRACT: note_on channel=2 note=69 velocity=0 time=0.020522379166666663
EXTRACT: note_on channel=3 note=76 velocity=0 time=0.16044769166666664
EXTRACT: note_on channel=2 note=61 velocity=0 time=0.027985062499999998
EXTRACT: note_on channel=2 note=57 velocity=84 time=0
EXTRACT: note_on channel=3 note=76 velocity=97 time=0
EXTRACT: note_on channel=2 note=61 velocity=85 time=0.22388049999999998
EXTRACT: note_on channel=2 note=61 velocity=0 time=0.22014915833333332
EXTRACT: note_on channel=2 note=69 velocity=80 time=0.0037313416666666663
EXTRACT: note_on channel=2 note=57 velocity=0 time=0.007462683333333333
EXTRACT: note_on channel=3 note=76 velocity=0 time=0.18097007083333333
EXTRACT: note_on channel=2 note=61 velocity=85 time=0
EXTRACT: note_on channel=3 note=76 velocity=95 time=0
EXTRACT: note_on channel=2 note=69 velocity=0 time=0.03171640416666666
EXTRACT: note_on channel=2 note=33 velocity=0 time=0.10634323749999999
EXTRACT: note_on channel=2 note=45 velocity=0 time=0.009328354166666665
EXTRACT: note_on channel=3 note=76 velocity=0 time=0.033582074999999996
EXTRACT: note_on channel=2 note=61 velocity=0 time=0.02985073333333333
EXTRACT: note_on channel=2 note=40 velocity=88 time=0
EXTRACT: note_on channel=2 note=47 velocity=88 time=0
EXTRACT: note_on channel=2 note=59 velocity=86 time=0
EXTRACT: note_on channel=3 note=78 velocity=97 time=0
EXTRACT: control_change channel=2 control=64 value=0 time=0.18656708333333333
EXTRACT: note_on channel=3 note=78 velocity=0 time=0.02985073333333333
EXTRACT: note_on channel=2 note=64 velocity=85 time=0
EXTRACT: note_on channel=3 note=76 velocity=97 time=0
EXTRACT: control_change channel=2 control=64 value=127 time=0.09888055416666666
EXTRACT: note_on channel=2 note=64 velocity=0 time=0.10261189583333333
EXTRACT: note_on channel=2 note=68 velocity=83 time=0.02238805
EXTRACT: note_on channel=2 note=59 velocity=0 time=0.09888055416666666
EXTRACT: note_on channel=3 note=76 velocity=0 time=0.0895522
EXTRACT: note_on channel=2 note=64 velocity=85 time=0
EXTRACT: note_on channel=3 note=76 velocity=92 time=0
EXTRACT: note_on channel=2 note=68 velocity=0 time=0.01865670833333333
EXTRACT: note_on channel=3 note=76 velocity=0 time=0.1641790333333333
EXTRACT: note_on channel=2 note=64 velocity=0 time=0.024253720833333332
EXTRACT: pitchwheel channel=3 pitch=-8192 time=0.009328354166666665
EXTRACT: note_on channel=2 note=59 velocity=84 time=0
EXTRACT: note_on channel=3 note=78 velocity=100 time=0
EXTRACT: pitchwheel channel=3 pitch=-8058 time=0.013059695833333333
EXTRACT: pitchwheel channel=3 pitch=-7924 time=0.007462683333333333
EXTRACT: pitchwheel channel=3 pitch=-7790 time=0.0055970125
EXTRACT: pitchwheel channel=3 pitch=-7655 time=0.0055970125
EXTRACT: pitchwheel channel=3 pitch=-7521 time=0.0037313416666666663
EXTRACT: pitchwheel channel=3 pitch=-7387 time=0.0037313416666666663
EXTRACT: pitchwheel channel=3 pitch=-7252 time=0.0037313416666666663
EXTRACT: pitchwheel channel=3 pitch=-7118 time=0.0037313416666666663
EXTRACT: pitchwheel channel=3 pitch=-6984 time=0.0037313416666666663
EXTRACT: pitchwheel channel=3 pitch=-6850 time=0.0018656708333333332
EXTRACT: pitchwheel channel=3 pitch=-6715 time=0.0037313416666666663
EXTRACT: pitchwheel channel=3 pitch=-6581 time=0.0018656708333333332
EXTRACT: pitchwheel channel=3 pitch=-6447 time=0.0037313416666666663
EXTRACT: pitchwheel channel=3 pitch=-6312 time=0.0037313416666666663
EXTRACT: pitchwheel channel=3 pitch=-6178 time=0
EXTRACT: pitchwheel channel=3 pitch=-6044 time=0.0037313416666666663
EXTRACT: pitchwheel channel=3 pitch=-5910 time=0.0018656708333333332
EXTRACT: pitchwheel channel=3 pitch=-5775 time=0.0018656708333333332
EXTRACT: pitchwheel channel=3 pitch=-5641 time=0.0018656708333333332
EXTRACT: pitchwheel channel=3 pitch=-5507 time=0.0037313416666666663
EXTRACT: pitchwheel channel=3 pitch=-5372 time=0
EXTRACT: pitchwheel channel=3 pitch=-5238 time=0.0037313416666666663
EXTRACT: pitchwheel channel=3 pitch=-5104 time=0.0018656708333333332
EXTRACT: pitchwheel channel=3 pitch=-4970 time=0.0018656708333333332
EXTRACT: pitchwheel channel=3 pitch=-4835 time=0
EXTRACT: pitchwheel channel=3 pitch=-4701 time=0.0037313416666666663
EXTRACT: pitchwheel channel=3 pitch=-4567 time=0.0018656708333333332
EXTRACT: pitchwheel channel=3 pitch=-4432 time=0.0018656708333333332
EXTRACT: pitchwheel channel=3 pitch=-4298 time=0
EXTRACT: pitchwheel channel=3 pitch=-4164 time=0.0037313416666666663
EXTRACT: pitchwheel channel=3 pitch=-4030 time=0.0018656708333333332
EXTRACT: pitchwheel channel=3 pitch=-3895 time=0.0018656708333333332
EXTRACT: pitchwheel channel=3 pitch=-3761 time=0
EXTRACT: pitchwheel channel=3 pitch=-3627 time=0.0018656708333333332
EXTRACT: pitchwheel channel=3 pitch=-3492 time=0.0018656708333333332
EXTRACT: pitchwheel channel=3 pitch=-3358 time=0.0018656708333333332
EXTRACT: pitchwheel channel=3 pitch=-3224 time=0.0018656708333333332
EXTRACT: pitchwheel channel=3 pitch=-3090 time=0
EXTRACT: pitchwheel channel=3 pitch=-2955 time=0.0018656708333333332
EXTRACT: pitchwheel channel=3 pitch=-2821 time=0.0018656708333333332
EXTRACT: pitchwheel channel=3 pitch=-2687 time=0.0018656708333333332
EXTRACT: pitchwheel channel=3 pitch=-2552 time=0.0018656708333333332
EXTRACT: pitchwheel channel=3 pitch=-2418 time=0
EXTRACT: pitchwheel channel=3 pitch=-2284 time=0.0018656708333333332
EXTRACT: pitchwheel channel=3 pitch=-2150 time=0.0018656708333333332
EXTRACT: pitchwheel channel=3 pitch=-2015 time=0.0018656708333333332
EXTRACT: pitchwheel channel=3 pitch=-1881 time=0
EXTRACT: pitchwheel channel=3 pitch=-1747 time=0.0018656708333333332
EXTRACT: pitchwheel channel=3 pitch=-1612 time=0.0018656708333333332
EXTRACT: pitchwheel channel=3 pitch=-1344 time=0.0018656708333333332
EXTRACT: pitchwheel channel=3 pitch=-1210 time=0.0018656708333333332
EXTRACT: pitchwheel channel=3 pitch=-1075 time=0
EXTRACT: pitchwheel channel=3 pitch=-941 time=0.0018656708333333332
EXTRACT: pitchwheel channel=3 pitch=-807 time=0.0018656708333333332
EXTRACT: pitchwheel channel=3 pitch=-672 time=0.0018656708333333332
EXTRACT: pitchwheel channel=3 pitch=-404 time=0.0018656708333333332
EXTRACT: pitchwheel channel=3 pitch=-270 time=0
EXTRACT: pitchwheel channel=3 pitch=-135 time=0.0018656708333333332
EXTRACT: pitchwheel channel=3 pitch=-1 time=0.0018656708333333332
EXTRACT: note_on channel=2 note=64 velocity=85 time=0.08395518749999999
EXTRACT: note_on channel=2 note=59 velocity=0 time=0.18097007083333333
EXTRACT: note_on channel=2 note=64 velocity=0 time=0.016791037499999998
EXTRACT: note_on channel=2 note=68 velocity=80 time=0.026119391666666665
EXTRACT: note_on channel=3 note=78 velocity=0 time=0.18843275416666666
EXTRACT: note_on channel=2 note=68 velocity=0 time=0.0037313416666666663
EXTRACT: pitchwheel channel=3 pitch=-8192 time=0.02238805
EXTRACT: note_on channel=2 note=64 velocity=85 time=0
EXTRACT: note_on channel=3 note=78 velocity=100 time=0
EXTRACT: pitchwheel channel=3 pitch=-8058 time=0.009328354166666665
EXTRACT: pitchwheel channel=3 pitch=-7924 time=0.007462683333333333
EXTRACT: pitchwheel channel=3 pitch=-7790 time=0.0055970125
EXTRACT: pitchwheel channel=3 pitch=-7655 time=0.007462683333333333
EXTRACT: pitchwheel channel=3 pitch=-7521 time=0.0037313416666666663
EXTRACT: pitchwheel channel=3 pitch=-7387 time=0.0037313416666666663
EXTRACT: pitchwheel channel=3 pitch=-7252 time=0.0037313416666666663
EXTRACT: pitchwheel channel=3 pitch=-7118 time=0.0037313416666666663
EXTRACT: pitchwheel channel=3 pitch=-6984 time=0.0018656708333333332
EXTRACT: pitchwheel channel=3 pitch=-6850 time=0.0037313416666666663
EXTRACT: pitchwheel channel=3 pitch=-6715 time=0.0018656708333333332
EXTRACT: pitchwheel channel=3 pitch=-6581 time=0.0037313416666666663
EXTRACT: pitchwheel channel=3 pitch=-6447 time=0.0037313416666666663
EXTRACT: pitchwheel channel=3 pitch=-6312 time=0.0018656708333333332
EXTRACT: pitchwheel channel=3 pitch=-6178 time=0.0018656708333333332
EXTRACT: pitchwheel channel=3 pitch=-6044 time=0.0018656708333333332
EXTRACT: pitchwheel channel=3 pitch=-5910 time=0.0018656708333333332
EXTRACT: pitchwheel channel=3 pitch=-5775 time=0.0037313416666666663
EXTRACT: pitchwheel channel=3 pitch=-5641 time=0.0018656708333333332
EXTRACT: pitchwheel channel=3 pitch=-5507 time=0.0018656708333333332
EXTRACT: pitchwheel channel=3 pitch=-5372 time=0.0018656708333333332
EXTRACT: pitchwheel channel=3 pitch=-5238 time=0.0037313416666666663
EXTRACT: pitchwheel channel=3 pitch=-5104 time=0
EXTRACT: pitchwheel channel=3 pitch=-4970 time=0.0018656708333333332
EXTRACT: pitchwheel channel=3 pitch=-4835 time=0.0018656708333333332
EXTRACT: pitchwheel channel=3 pitch=-4701 time=0.0037313416666666663
EXTRACT: pitchwheel channel=3 pitch=-4567 time=0
EXTRACT: pitchwheel channel=3 pitch=-4432 time=0.0018656708333333332
EXTRACT: pitchwheel channel=3 pitch=-4298 time=0.0018656708333333332
EXTRACT: pitchwheel channel=3 pitch=-4164 time=0.0037313416666666663
EXTRACT: pitchwheel channel=3 pitch=-4030 time=0
EXTRACT: pitchwheel channel=3 pitch=-3895 time=0.0018656708333333332
EXTRACT: pitchwheel channel=3 pitch=-3761 time=0.0018656708333333332
EXTRACT: pitchwheel channel=3 pitch=-3627 time=0.0018656708333333332
EXTRACT: pitchwheel channel=3 pitch=-3492 time=0.0018656708333333332
EXTRACT: pitchwheel channel=3 pitch=-3358 time=0
EXTRACT: pitchwheel channel=3 pitch=-3224 time=0.0018656708333333332
EXTRACT: pitchwheel channel=3 pitch=-3090 time=0.0018656708333333332
EXTRACT: pitchwheel channel=3 pitch=-2955 time=0.0018656708333333332
EXTRACT: pitchwheel channel=3 pitch=-2821 time=0
EXTRACT: pitchwheel channel=3 pitch=-2687 time=0.0018656708333333332
EXTRACT: pitchwheel channel=3 pitch=-2552 time=0.0018656708333333332
EXTRACT: pitchwheel channel=3 pitch=-2418 time=0.0018656708333333332
EXTRACT: pitchwheel channel=3 pitch=-2284 time=0.0018656708333333332
EXTRACT: pitchwheel channel=3 pitch=-2150 time=0
EXTRACT: pitchwheel channel=3 pitch=-2015 time=0.0018656708333333332
EXTRACT: pitchwheel channel=3 pitch=-1881 time=0.0018656708333333332
EXTRACT: pitchwheel channel=3 pitch=-1747 time=0.0018656708333333332
EXTRACT: pitchwheel channel=3 pitch=-1612 time=0.0018656708333333332
EXTRACT: pitchwheel channel=3 pitch=-1344 time=0
EXTRACT: pitchwheel channel=3 pitch=-1210 time=0.0018656708333333332
EXTRACT: pitchwheel channel=3 pitch=-1075 time=0.0018656708333333332
EXTRACT: pitchwheel channel=3 pitch=-941 time=0.0018656708333333332
EXTRACT: pitchwheel channel=3 pitch=-807 time=0.0018656708333333332
EXTRACT: pitchwheel channel=3 pitch=-672 time=0
EXTRACT: pitchwheel channel=3 pitch=-404 time=0.0018656708333333332
EXTRACT: pitchwheel channel=3 pitch=-270 time=0.0018656708333333332
EXTRACT: pitchwheel channel=3 pitch=-135 time=0.0018656708333333332
EXTRACT: pitchwheel channel=3 pitch=-1 time=0.0018656708333333332
EXTRACT: note_on channel=2 note=47 velocity=0 time=0.009328354166666665
EXTRACT: note_on channel=2 note=40 velocity=0 time=0
EXTRACT: note_on channel=2 note=64 velocity=0 time=0.0055970125
EXTRACT: note_on channel=2 note=42 velocity=85 time=0.07089549166666666
EXTRACT: note_on channel=2 note=49 velocity=87 time=0
EXTRACT: note_on channel=2 note=57 velocity=85 time=0
EXTRACT: control_change channel=2 control=64 value=0 time=0.08768652916666665
EXTRACT: note_on channel=3 note=78 velocity=0 time=0.100746225
EXTRACT: pitchwheel channel=3 pitch=-8192 time=0.024253720833333332
EXTRACT: pitchwheel channel=3 pitch=-8058 time=0.0018656708333333332
EXTRACT: note_on channel=2 note=61 velocity=83 time=0
EXTRACT: note_on channel=3 note=78 velocity=100 time=0
EXTRACT: pitchwheel channel=3 pitch=-7924 time=0.01865670833333333
EXTRACT: pitchwheel channel=3 pitch=-7790 time=0.011194025
EXTRACT: pitchwheel channel=3 pitch=-7655 time=0.009328354166666665
EXTRACT: pitchwheel channel=3 pitch=-7521 time=0.007462683333333333
EXTRACT: pitchwheel channel=3 pitch=-7387 time=0.007462683333333333
EXTRACT: pitchwheel channel=3 pitch=-7252 time=0.0055970125
EXTRACT: pitchwheel channel=3 pitch=-7118 time=0.0055970125
EXTRACT: pitchwheel channel=3 pitch=-6984 time=0.0055970125
EXTRACT: control_change channel=2 control=64 value=127 time=0.0037313416666666663
EXTRACT: pitchwheel channel=3 pitch=-6850 time=0.0018656708333333332
EXTRACT: pitchwheel channel=3 pitch=-6715 time=0.0055970125
EXTRACT: pitchwheel channel=3 pitch=-6581 time=0.0018656708333333332
EXTRACT: pitchwheel channel=3 pitch=-6447 time=0.0037313416666666663
EXTRACT: pitchwheel channel=3 pitch=-6312 time=0.0055970125
EXTRACT: pitchwheel channel=3 pitch=-6178 time=0.0037313416666666663
EXTRACT: pitchwheel channel=3 pitch=-6044 time=0.0037313416666666663
EXTRACT: pitchwheel channel=3 pitch=-5910 time=0.0037313416666666663
EXTRACT: pitchwheel channel=3 pitch=-5775 time=0.0037313416666666663
EXTRACT: pitchwheel channel=3 pitch=-5641 time=0.0037313416666666663
EXTRACT: pitchwheel channel=3 pitch=-5507 time=0.0037313416666666663
EXTRACT: pitchwheel channel=3 pitch=-5372 time=0.0037313416666666663
EXTRACT: pitchwheel channel=3 pitch=-5238 time=0.0018656708333333332
EXTRACT: pitchwheel channel=3 pitch=-5104 time=0.0018656708333333332
EXTRACT: pitchwheel channel=3 pitch=-4970 time=0.0037313416666666663
EXTRACT: pitchwheel channel=3 pitch=-4835 time=0.0037313416666666663
EXTRACT: pitchwheel channel=3 pitch=-4701 time=0.0018656708333333332
EXTRACT: pitchwheel channel=3 pitch=-4567 time=0.0037313416666666663
EXTRACT: pitchwheel channel=3 pitch=-4432 time=0.0018656708333333332
EXTRACT: pitchwheel channel=3 pitch=-4298 time=0.0037313416666666663
EXTRACT: pitchwheel channel=3 pitch=-4164 time=0.0018656708333333332
EXTRACT: pitchwheel channel=3 pitch=-4030 time=0.0037313416666666663
EXTRACT: pitchwheel channel=3 pitch=-3895 time=0.0018656708333333332
EXTRACT: pitchwheel channel=3 pitch=-3761 time=0.0037313416666666663
EXTRACT: pitchwheel channel=3 pitch=-3627 time=0.0018656708333333332
EXTRACT: pitchwheel channel=3 pitch=-3492 time=0.0037313416666666663
EXTRACT: pitchwheel channel=3 pitch=-3358 time=0
EXTRACT: pitchwheel channel=3 pitch=-3224 time=0.0018656708333333332
EXTRACT: pitchwheel channel=3 pitch=-3090 time=0.0037313416666666663
EXTRACT: pitchwheel channel=3 pitch=-2955 time=0.0018656708333333332
EXTRACT: pitchwheel channel=3 pitch=-2821 time=0.0018656708333333332
EXTRACT: pitchwheel channel=3 pitch=-2687 time=0.0037313416666666663
EXTRACT: pitchwheel channel=3 pitch=-2552 time=0.0018656708333333332
EXTRACT: pitchwheel channel=3 pitch=-2418 time=0.0018656708333333332
EXTRACT: pitchwheel channel=3 pitch=-2284 time=0.0018656708333333332
EXTRACT: pitchwheel channel=3 pitch=-2150 time=0.0018656708333333332
EXTRACT: pitchwheel channel=3 pitch=-2015 time=0.0037313416666666663
EXTRACT: pitchwheel channel=3 pitch=-1881 time=0.0018656708333333332
EXTRACT: pitchwheel channel=3 pitch=-1747 time=0.0018656708333333332
EXTRACT: pitchwheel channel=3 pitch=-1612 time=0.0018656708333333332
EXTRACT: pitchwheel channel=3 pitch=-1478 time=0.0018656708333333332
EXTRACT: pitchwheel channel=3 pitch=-1344 time=0.0037313416666666663
EXTRACT: pitchwheel channel=3 pitch=-1210 time=0.0018656708333333332
EXTRACT: pitchwheel channel=3 pitch=-1075 time=0
EXTRACT: pitchwheel channel=3 pitch=-941 time=0.0018656708333333332
EXTRACT: pitchwheel channel=3 pitch=-807 time=0.0018656708333333332
EXTRACT: pitchwheel channel=3 pitch=-672 time=0.0018656708333333332
EXTRACT: pitchwheel channel=3 pitch=-538 time=0.0018656708333333332
EXTRACT: pitchwheel channel=3 pitch=-404 time=0.0018656708333333332
EXTRACT: pitchwheel channel=3 pitch=-270 time=0.0018656708333333332
EXTRACT: pitchwheel channel=3 pitch=-135 time=0.0018656708333333332
EXTRACT: pitchwheel channel=3 pitch=-1 time=0.0018656708333333332
EXTRACT: pitchwheel channel=3 pitch=0 time=0.0018656708333333332
EXTRACT: note_on channel=2 note=61 velocity=0 time=0.011194025
EXTRACT: note_on channel=2 note=66 velocity=84 time=0
EXTRACT: note_on channel=2 note=61 velocity=80 time=0.22388049999999998
EXTRACT: note_on channel=2 note=66 velocity=0 time=0.011194025
EXTRACT: note_on channel=2 note=57 velocity=0 time=0
EXTRACT: note_on channel=2 note=61 velocity=0 time=0.19962677916666666
EXTRACT: note_on channel=2 note=57 velocity=87 time=0.013059695833333333
EXTRACT: note_on channel=2 note=61 velocity=84 time=0.22388049999999998
EXTRACT: note_on channel=2 note=61 velocity=0 time=0.19216409583333333
EXTRACT: note_on channel=2 note=66 velocity=84 time=0.03171640416666666
EXTRACT: note_on channel=2 note=57 velocity=0 time=0.04664177083333333
EXTRACT: note_on channel=2 note=61 velocity=84 time=0.17723872916666664
EXTRACT: note_on channel=2 note=66 velocity=0 time=0.0037313416666666663
EXTRACT: pitchwheel channel=3 pitch=-135 time=0.048507441666666665
EXTRACT: pitchwheel channel=3 pitch=-135 time=0.0018656708333333332
EXTRACT: pitchwheel channel=3 pitch=-270 time=0.0018656708333333332
EXTRACT: pitchwheel channel=3 pitch=-404 time=0.0037313416666666663
EXTRACT: pitchwheel channel=3 pitch=-538 time=0.0018656708333333332
EXTRACT: pitchwheel channel=3 pitch=-538 time=0.0018656708333333332
EXTRACT: pitchwheel channel=3 pitch=-807 time=0.0055970125
EXTRACT: pitchwheel channel=3 pitch=-941 time=0.0055970125
EXTRACT: pitchwheel channel=3 pitch=-1210 time=0.0037313416666666663
EXTRACT: pitchwheel channel=3 pitch=-1210 time=0.0037313416666666663
EXTRACT: pitchwheel channel=3 pitch=-1344 time=0.0055970125
EXTRACT: pitchwheel channel=3 pitch=-1478 time=0.0018656708333333332
EXTRACT: pitchwheel channel=3 pitch=-1612 time=0.0018656708333333332
EXTRACT: pitchwheel channel=3 pitch=-1612 time=0.0018656708333333332
EXTRACT: pitchwheel channel=3 pitch=-1747 time=0.0018656708333333332
EXTRACT: pitchwheel channel=3 pitch=-1881 time=0.0037313416666666663
EXTRACT: pitchwheel channel=3 pitch=-2015 time=0.0037313416666666663
EXTRACT: pitchwheel channel=3 pitch=-2150 time=0.0018656708333333332
EXTRACT: pitchwheel channel=3 pitch=-2150 time=0.0037313416666666663
EXTRACT: pitchwheel channel=3 pitch=-2552 time=0.0037313416666666663
EXTRACT: pitchwheel channel=3 pitch=-2687 time=0.0037313416666666663
EXTRACT: pitchwheel channel=3 pitch=-2821 time=0.0018656708333333332
EXTRACT: pitchwheel channel=3 pitch=-2955 time=0.0018656708333333332
EXTRACT: pitchwheel channel=3 pitch=-2955 time=0.0018656708333333332
EXTRACT: pitchwheel channel=3 pitch=-2955 time=0.0037313416666666663
EXTRACT: pitchwheel channel=3 pitch=-2955 time=0.0018656708333333332
EXTRACT: pitchwheel channel=3 pitch=-3090 time=0.0018656708333333332
EXTRACT: pitchwheel channel=3 pitch=-3090 time=0.0018656708333333332
EXTRACT: pitchwheel channel=3 pitch=-3224 time=0.0018656708333333332
EXTRACT: pitchwheel channel=3 pitch=-3358 time=0.0018656708333333332
EXTRACT: pitchwheel channel=3 pitch=-3492 time=0.0055970125
EXTRACT: pitchwheel channel=3 pitch=-3627 time=0.0037313416666666663
EXTRACT: pitchwheel channel=3 pitch=-3761 time=0.0037313416666666663
EXTRACT: pitchwheel channel=3 pitch=-3761 time=0.0037313416666666663
EXTRACT: pitchwheel channel=3 pitch=-3895 time=0.0018656708333333332
EXTRACT: pitchwheel channel=3 pitch=-3895 time=0.0018656708333333332
EXTRACT: pitchwheel channel=3 pitch=-3895 time=0.0018656708333333332
EXTRACT: pitchwheel channel=3 pitch=-3895 time=0.0018656708333333332
EXTRACT: pitchwheel channel=3 pitch=-3895 time=0.0018656708333333332
EXTRACT: pitchwheel channel=3 pitch=-4030 time=0.0037313416666666663
EXTRACT: pitchwheel channel=3 pitch=-4030 time=0.0018656708333333332
EXTRACT: pitchwheel channel=3 pitch=-4030 time=0.0018656708333333332
EXTRACT: pitchwheel channel=3 pitch=-4030 time=0.0018656708333333332
EXTRACT: pitchwheel channel=3 pitch=-4164 time=0.0018656708333333332
EXTRACT: pitchwheel channel=3 pitch=-4164 time=0.0018656708333333332
EXTRACT: pitchwheel channel=3 pitch=-4298 time=0.0055970125
EXTRACT: pitchwheel channel=3 pitch=-4298 time=0.0018656708333333332
EXTRACT: pitchwheel channel=3 pitch=-4298 time=0.0018656708333333332
EXTRACT: pitchwheel channel=3 pitch=-4298 time=0.0018656708333333332
EXTRACT: pitchwheel channel=3 pitch=-4298 time=0.0018656708333333332
EXTRACT: pitchwheel channel=3 pitch=-4298 time=0.0018656708333333332
EXTRACT: pitchwheel channel=3 pitch=-4298 time=0.0037313416666666663
EXTRACT: pitchwheel channel=3 pitch=-4298 time=0.0018656708333333332
EXTRACT: pitchwheel channel=3 pitch=-4298 time=0.0018656708333333332
EXTRACT: pitchwheel channel=3 pitch=-4298 time=0.0018656708333333332
EXTRACT: pitchwheel channel=3 pitch=-4298 time=0.0018656708333333332
EXTRACT: note_on channel=2 note=61 velocity=0 time=0.0018656708333333332
EXTRACT: pitchwheel channel=3 pitch=-4298 time=0
EXTRACT: pitchwheel channel=3 pitch=-4298 time=0.0037313416666666663
EXTRACT: pitchwheel channel=3 pitch=-4298 time=0.0018656708333333332
EXTRACT: pitchwheel channel=3 pitch=-4298 time=0.0018656708333333332
EXTRACT: pitchwheel channel=3 pitch=-4298 time=0.0037313416666666663
EXTRACT: pitchwheel channel=3 pitch=-4298 time=0.0018656708333333332
EXTRACT: note_on channel=2 note=49 velocity=0 time=0.0018656708333333332
EXTRACT: note_on channel=2 note=42 velocity=0 time=0
EXTRACT: pitchwheel channel=3 pitch=-4298 time=0.0018656708333333332
EXTRACT: pitchwheel channel=3 pitch=-4164 time=0.0018656708333333332
EXTRACT: note_on channel=2 note=38 velocity=85 time=0.0037313416666666663
EXTRACT: note_on channel=2 note=50 velocity=87 time=0
EXTRACT: note_on channel=2 note=57 velocity=85 time=0
EXTRACT: pitchwheel channel=3 pitch=-4030 time=0
EXTRACT: pitchwheel channel=3 pitch=-3895 time=0.0037313416666666663
EXTRACT: pitchwheel channel=3 pitch=-3761 time=0.0037313416666666663
EXTRACT: pitchwheel channel=3 pitch=-3761 time=0.0037313416666666663
EXTRACT: pitchwheel channel=3 pitch=-3627 time=0.0037313416666666663
EXTRACT: pitchwheel channel=3 pitch=-3492 time=0.0018656708333333332
EXTRACT: pitchwheel channel=3 pitch=-3358 time=0.0037313416666666663
EXTRACT: pitchwheel channel=3 pitch=-3358 time=0.0018656708333333332
EXTRACT: pitchwheel channel=3 pitch=-3224 time=0.0037313416666666663
EXTRACT: pitchwheel channel=3 pitch=-3224 time=0.0018656708333333332
EXTRACT: pitchwheel channel=3 pitch=-3090 time=0.0018656708333333332
EXTRACT: pitchwheel channel=3 pitch=-3090 time=0.0055970125
EXTRACT: pitchwheel channel=3 pitch=-2955 time=0.0018656708333333332
EXTRACT: pitchwheel channel=3 pitch=-2821 time=0.0018656708333333332
EXTRACT: pitchwheel channel=3 pitch=-2821 time=0.0037313416666666663
EXTRACT: pitchwheel channel=3 pitch=-2687 time=0.0037313416666666663
EXTRACT: pitchwheel channel=3 pitch=-2552 time=0.0018656708333333332
EXTRACT: pitchwheel channel=3 pitch=-2418 time=0.0018656708333333332
EXTRACT: pitchwheel channel=3 pitch=-2418 time=0.0018656708333333332
EXTRACT: pitchwheel channel=3 pitch=-2284 time=0.0037313416666666663
EXTRACT: pitchwheel channel=3 pitch=-2284 time=0.0037313416666666663
EXTRACT: pitchwheel channel=3 pitch=-2150 time=0.0018656708333333332
EXTRACT: pitchwheel channel=3 pitch=-2150 time=0.0018656708333333332
EXTRACT: pitchwheel channel=3 pitch=-2015 time=0.0018656708333333332
EXTRACT: pitchwheel channel=3 pitch=-2015 time=0.0018656708333333332
EXTRACT: pitchwheel channel=3 pitch=-1881 time=0.0018656708333333332
EXTRACT: pitchwheel channel=3 pitch=-1747 time=0.0037313416666666663
EXTRACT: pitchwheel channel=3 pitch=-1747 time=0.0018656708333333332
EXTRACT: pitchwheel channel=3 pitch=-1612 time=0.0018656708333333332
EXTRACT: pitchwheel channel=3 pitch=-1478 time=0.0018656708333333332
EXTRACT: pitchwheel channel=3 pitch=-1344 time=0.0018656708333333332
EXTRACT: pitchwheel channel=3 pitch=-1344 time=0.0055970125
EXTRACT: pitchwheel channel=3 pitch=-1210 time=0.0037313416666666663
EXTRACT: pitchwheel channel=3 pitch=-1075 time=0.0018656708333333332
EXTRACT: pitchwheel channel=3 pitch=-941 time=0.0037313416666666663
EXTRACT: pitchwheel channel=3 pitch=-807 time=0.0037313416666666663
EXTRACT: pitchwheel channel=3 pitch=-672 time=0.0018656708333333332
EXTRACT: pitchwheel channel=3 pitch=-672 time=0.0018656708333333332
EXTRACT: pitchwheel channel=3 pitch=-538 time=0.0018656708333333332
EXTRACT: pitchwheel channel=3 pitch=-270 time=0.0018656708333333332
EXTRACT: control_change channel=2 control=64 value=0 time=0.0018656708333333332
EXTRACT: pitchwheel channel=3 pitch=-270 time=0
EXTRACT: pitchwheel channel=3 pitch=-270 time=0.0037313416666666663
EXTRACT: pitchwheel channel=3 pitch=-135 time=0.0018656708333333332
EXTRACT: pitchwheel channel=3 pitch=-1 time=0.0018656708333333332
EXTRACT: pitchwheel channel=3 pitch=0 time=0.0018656708333333332
EXTRACT: note_on channel=2 note=62 velocity=82 time=0.10634323749999999
EXTRACT: control_change channel=2 control=64 value=127 time=0.0018656708333333332
EXTRACT: note_on channel=2 note=62 velocity=0 time=0.1958954375
EXTRACT: note_on channel=3 note=78 velocity=0 time=0.020522379166666663
EXTRACT: note_on channel=2 note=66 velocity=84 time=0.0055970125
EXTRACT: note_on channel=2 note=57 velocity=0 time=0.08395518749999999
EXTRACT: note_on channel=2 note=62 velocity=81 time=0.13992531249999998
EXTRACT: note_on channel=2 note=66 velocity=0 time=0.03171640416666666
EXTRACT: note_on channel=2 note=62 velocity=0 time=0.1585820208333333
EXTRACT: note_on channel=2 note=57 velocity=87 time=0
EXTRACT: note_on channel=3 note=81 velocity=95 time=0
EXTRACT: note_on channel=3 note=81 velocity=0 time=0.19216409583333333
EXTRACT: note_on channel=2 note=62 velocity=83 time=0
EXTRACT: note_on channel=3 note=81 velocity=92 time=0
EXTRACT: note_on channel=2 note=62 velocity=0 time=0.1753730583333333
EXTRACT: note_on channel=2 note=66 velocity=86 time=0.048507441666666665
EXTRACT: note_on channel=2 note=57 velocity=0 time=0.14925366666666665
EXTRACT: note_on channel=3 note=81 velocity=0 time=0.0447761
EXTRACT: note_on channel=2 note=62 velocity=82 time=0
EXTRACT: note_on channel=3 note=81 velocity=88 time=0
EXTRACT: note_on channel=2 note=66 velocity=0 time=0.016791037499999998
EXTRACT: note_on channel=2 note=38 velocity=0 time=0.09141787083333333
EXTRACT: note_on channel=2 note=50 velocity=0 time=0.05783579583333333
EXTRACT: note_on channel=2 note=62 velocity=0 time=0.01865670833333333
EXTRACT: note_on channel=3 note=81 velocity=0 time=0.0037313416666666663
EXTRACT: control_change channel=2 control=64 value=0 time=0.02985073333333333
EXTRACT: note_on channel=2 note=33 velocity=85 time=0
EXTRACT: note_on channel=2 note=45 velocity=85 time=0
EXTRACT: note_on channel=2 note=57 velocity=85 time=0
EXTRACT: note_on channel=3 note=81 velocity=98 time=0
EXTRACT: note_on channel=2 note=61 velocity=82 time=0.22388049999999998
EXTRACT: control_change channel=2 control=64 value=127 time=0.12686561666666665
EXTRACT: note_on channel=2 note=64 velocity=86 time=0.09701488333333333
EXTRACT: note_on channel=2 note=61 velocity=0 time=0.03171640416666666
EXTRACT: note_on channel=2 note=57 velocity=0 time=0.09141787083333333
EXTRACT: note_on channel=3 note=81 velocity=0 time=0.09328354166666666
EXTRACT: note_on channel=2 note=61 velocity=86 time=0
EXTRACT: note_on channel=3 note=76 velocity=86 time=0
EXTRACT: note_on channel=2 note=64 velocity=0 time=0.020522379166666663
EXTRACT: note_on channel=3 note=76 velocity=0 time=0.16044769166666664
EXTRACT: note_on channel=2 note=61 velocity=0 time=0.027985062499999998
EXTRACT: note_on channel=2 note=57 velocity=84 time=0
EXTRACT: note_on channel=3 note=76 velocity=95 time=0
EXTRACT: note_on channel=2 note=61 velocity=85 time=0.22388049999999998
EXTRACT: note_on channel=2 note=61 velocity=0 time=0.22014915833333332
EXTRACT: note_on channel=2 note=64 velocity=80 time=0.0037313416666666663
EXTRACT: note_on channel=2 note=57 velocity=0 time=0.007462683333333333
EXTRACT: note_on channel=3 note=76 velocity=0 time=0.18097007083333333
EXTRACT: note_on channel=2 note=61 velocity=85 time=0
EXTRACT: note_on channel=3 note=76 velocity=86 time=0
EXTRACT: note_on channel=2 note=64 velocity=0 time=0.03171640416666666
EXTRACT: note_on channel=2 note=33 velocity=0 time=0.10634323749999999
EXTRACT: note_on channel=2 note=45 velocity=0 time=0.009328354166666665
EXTRACT: note_on channel=3 note=76 velocity=0 time=0.033582074999999996
EXTRACT: note_on channel=2 note=61 velocity=0 time=0.02985073333333333
EXTRACT: note_on channel=2 note=40 velocity=85 time=0
EXTRACT: note_on channel=2 note=47 velocity=85 time=0
EXTRACT: note_on channel=2 note=56 velocity=85 time=0
EXTRACT: note_on channel=3 note=76 velocity=91 time=0
EXTRACT: control_change channel=2 control=64 value=0 time=0.18656708333333333
EXTRACT: note_on channel=3 note=76 velocity=0 time=0.02985073333333333
EXTRACT: note_on channel=2 note=59 velocity=85 time=0
EXTRACT: note_on channel=3 note=73 velocity=92 time=0
EXTRACT: control_change channel=2 control=64 value=127 time=0.09888055416666666
EXTRACT: note_on channel=2 note=59 velocity=0 time=0.10261189583333333
EXTRACT: note_on channel=2 note=64 velocity=83 time=0.02238805
EXTRACT: note_on channel=2 note=56 velocity=0 time=0.09888055416666666
EXTRACT: note_on channel=3 note=73 velocity=0 time=0.0895522
EXTRACT: note_on channel=2 note=59 velocity=85 time=0
EXTRACT: note_on channel=3 note=73 velocity=92 time=0
EXTRACT: note_on channel=2 note=64 velocity=0 time=0.01865670833333333
EXTRACT: note_on channel=3 note=73 velocity=0 time=0.1641790333333333
EXTRACT: note_on channel=2 note=59 velocity=0 time=0.024253720833333332
EXTRACT: pitchwheel channel=3 pitch=-4164 time=0.0055970125
EXTRACT: pitchwheel channel=3 pitch=-4030 time=0.0037313416666666663
EXTRACT: note_on channel=2 note=56 velocity=84 time=0
EXTRACT: note_on channel=3 note=73 velocity=93 time=0
EXTRACT: pitchwheel channel=3 pitch=-3895 time=0.01865670833333333
EXTRACT: pitchwheel channel=3 pitch=-3761 time=0.007462683333333333
EXTRACT: pitchwheel channel=3 pitch=-3627 time=0.009328354166666665
EXTRACT: pitchwheel channel=3 pitch=-3492 time=0.009328354166666665
EXTRACT: pitchwheel channel=3 pitch=-3358 time=0.0055970125
EXTRACT: pitchwheel channel=3 pitch=-3224 time=0.0055970125
EXTRACT: pitchwheel channel=3 pitch=-3090 time=0.0055970125
EXTRACT: pitchwheel channel=3 pitch=-2955 time=0.0037313416666666663
EXTRACT: pitchwheel channel=3 pitch=-2821 time=0.0055970125
EXTRACT: pitchwheel channel=3 pitch=-2687 time=0.0055970125
EXTRACT: pitchwheel channel=3 pitch=-2552 time=0.0018656708333333332
EXTRACT: pitchwheel channel=3 pitch=-2418 time=0.0037313416666666663
EXTRACT: pitchwheel channel=3 pitch=-2284 time=0.0055970125
EXTRACT: pitchwheel channel=3 pitch=-2150 time=0.0018656708333333332
EXTRACT: pitchwheel channel=3 pitch=-2015 time=0.0037313416666666663
EXTRACT: pitchwheel channel=3 pitch=-1881 time=0.0018656708333333332
EXTRACT: pitchwheel channel=3 pitch=-1747 time=0.0037313416666666663
EXTRACT: pitchwheel channel=3 pitch=-1612 time=0.0037313416666666663
EXTRACT: pitchwheel channel=3 pitch=-1478 time=0.0055970125
EXTRACT: pitchwheel channel=3 pitch=-1344 time=0.0018656708333333332
EXTRACT: pitchwheel channel=3 pitch=-1210 time=0.0037313416666666663
EXTRACT: pitchwheel channel=3 pitch=-1075 time=0.0018656708333333332
EXTRACT: pitchwheel channel=3 pitch=-941 time=0.0037313416666666663
EXTRACT: pitchwheel channel=3 pitch=-672 time=0.0018656708333333332
EXTRACT: pitchwheel channel=3 pitch=-538 time=0.0037313416666666663
EXTRACT: pitchwheel channel=3 pitch=-404 time=0.0018656708333333332
EXTRACT: pitchwheel channel=3 pitch=-270 time=0.0037313416666666663
EXTRACT: pitchwheel channel=3 pitch=-135 time=0.0037313416666666663
EXTRACT: pitchwheel channel=3 pitch=-1 time=0.0018656708333333332
EXTRACT: note_on channel=2 note=59 velocity=85 time=0.08768652916666665
EXTRACT: note_on channel=2 note=56 velocity=0 time=0.18097007083333333
EXTRACT: note_on channel=2 note=59 velocity=0 time=0.016791037499999998
EXTRACT: note_on channel=3 note=73 velocity=0 time=0.01865670833333333
EXTRACT: note_on channel=2 note=64 velocity=80 time=0.007462683333333333
EXTRACT: note_on channel=3 note=71 velocity=93 time=0
EXTRACT: note_on channel=2 note=64 velocity=0 time=0.19216409583333333
EXTRACT: note_on channel=3 note=71 velocity=0 time=0.024253720833333332
EXTRACT: note_on channel=2 note=59 velocity=85 time=0
EXTRACT: note_on channel=3 note=69 velocity=89 time=0
EXTRACT: note_on channel=2 note=47 velocity=0 time=0.1473879958333333
EXTRACT: note_on channel=2 note=40 velocity=0 time=0
EXTRACT: note_on channel=2 note=59 velocity=0 time=0.0055970125
EXTRACT: note_on channel=2 note=42 velocity=85 time=0.07089549166666666
EXTRACT: note_on channel=2 note=49 velocity=85 time=0
EXTRACT: note_on channel=2 note=57 velocity=85 time=0
EXTRACT: control_change channel=2 control=64 value=0 time=0.08768652916666665
EXTRACT: note_on channel=3 note=69 velocity=0 time=0.100746225
EXTRACT: note_on channel=2 note=61 velocity=76 time=0
EXTRACT: note_on channel=3 note=69 velocity=87 time=0
EXTRACT: control_change channel=2 control=64 value=127 time=0.07462683333333332
EXTRACT: note_on channel=2 note=61 velocity=0 time=0.14925366666666665
EXTRACT: note_on channel=2 note=66 velocity=77 time=0
EXTRACT: note_on channel=2 note=61 velocity=76 time=0.22388049999999998
EXTRACT: note_on channel=2 note=66 velocity=0 time=0.011194025
EXTRACT: note_on channel=2 note=57 velocity=0 time=0
EXTRACT: note_on channel=2 note=61 velocity=0 time=0.19962677916666666
EXTRACT: note_on channel=2 note=57 velocity=75 time=0.013059695833333333
EXTRACT: note_on channel=2 note=61 velocity=78 time=0.22388049999999998
EXTRACT: note_on channel=2 note=61 velocity=0 time=0.19216409583333333
EXTRACT: note_on channel=3 note=69 velocity=0 time=0.020522379166666663
EXTRACT: note_on channel=2 note=66 velocity=74 time=0.011194025
EXTRACT: note_on channel=2 note=57 velocity=0 time=0.04664177083333333
EXTRACT: note_on channel=2 note=61 velocity=75 time=0.17723872916666664
EXTRACT: note_on channel=2 note=66 velocity=0 time=0.0037313416666666663
EXTRACT: note_on channel=2 note=61 velocity=0 time=0.19776110833333332
EXTRACT: note_on channel=2 note=49 velocity=0 time=0.014925366666666665
EXTRACT: note_on channel=2 note=42 velocity=0 time=0
EXTRACT: note_on channel=2 note=38 velocity=76 time=0
EXTRACT: note_on channel=2 note=45 velocity=76 time=0
EXTRACT: note_on channel=2 note=57 velocity=76 time=0
EXTRACT: note_on channel=3 note=71 velocity=87 time=0
EXTRACT: control_change channel=2 control=64 value=0 time=0.10820890833333333
EXTRACT: note_on channel=2 note=62 velocity=73 time=0.11567159166666666
EXTRACT: control_change channel=2 control=64 value=127 time=0.0018656708333333332
EXTRACT: note_on channel=2 note=62 velocity=0 time=0.1958954375
EXTRACT: note_on channel=3 note=71 velocity=0 time=0.020522379166666663
EXTRACT: note_on channel=2 note=66 velocity=73 time=0.0055970125
EXTRACT: note_on channel=3 note=73 velocity=86 time=0
EXTRACT: note_on channel=2 note=57 velocity=0 time=0.08395518749999999
EXTRACT: note_on channel=2 note=62 velocity=73 time=0.13992531249999998
EXTRACT: note_on channel=2 note=66 velocity=0 time=0.03171640416666666
EXTRACT: note_on channel=2 note=62 velocity=0 time=0.1585820208333333
EXTRACT: note_on channel=3 note=73 velocity=0 time=0.027985062499999998
EXTRACT: note_on channel=2 note=57 velocity=73 time=0.0055970125
EXTRACT: note_on channel=2 note=62 velocity=73 time=0.22388049999999998
EXTRACT: note_on channel=2 note=62 velocity=0 time=0.1753730583333333
EXTRACT: note_on channel=2 note=66 velocity=73 time=0.048507441666666665
EXTRACT: note_on channel=2 note=57 velocity=0 time=0.14925366666666665
EXTRACT: note_on channel=2 note=62 velocity=68 time=0.07462683333333332
EXTRACT: note_on channel=2 note=66 velocity=0 time=0.016791037499999998
EXTRACT: note_on channel=2 note=62 velocity=0 time=0.16791037499999997
EXTRACT: note_on channel=2 note=57 velocity=67 time=0
EXTRACT: note_on channel=2 note=62 velocity=74 time=0.22388049999999998
EXTRACT: note_on channel=2 note=62 velocity=0 time=0.19776110833333332
EXTRACT: note_on channel=2 note=66 velocity=80 time=0.026119391666666665
EXTRACT: note_on channel=2 note=57 velocity=0 time=0.08395518749999999
EXTRACT: note_on channel=2 note=62 velocity=85 time=0.13992531249999998
EXTRACT: note_on channel=2 note=66 velocity=0 time=0.03171640416666666
EXTRACT: note_on channel=2 note=62 velocity=0 time=0.1585820208333333
EXTRACT: note_on channel=2 note=57 velocity=90 time=0.033582074999999996
EXTRACT: note_on channel=2 note=62 velocity=96 time=0.22388049999999998
EXTRACT: note_on channel=2 note=62 velocity=0 time=0.1753730583333333
EXTRACT: note_on channel=2 note=66 velocity=95 time=0.048507441666666665
EXTRACT: note_on channel=2 note=57 velocity=0 time=0.14925366666666665
EXTRACT: note_on channel=2 note=62 velocity=81 time=0.07462683333333332
EXTRACT: control_change channel=2 control=64 value=0 time=0
EXTRACT: note_on channel=2 note=66 velocity=0 time=0.016791037499999998
EXTRACT: note_on channel=2 note=38 velocity=0 time=0.100746225
EXTRACT: note_on channel=2 note=45 velocity=0 time=0.02985073333333333
EXTRACT: note_on channel=2 note=62 velocity=0 time=0.03731341666666666
EXTRACT: note_on channel=2 note=45 velocity=79 time=0
EXTRACT: note_on channel=2 note=52 velocity=79 time=0
EXTRACT: note_on channel=2 note=57 velocity=75 time=0
EXTRACT: note_on channel=2 note=61 velocity=75 time=0.22388049999999998
EXTRACT: control_change channel=2 control=64 value=127 time=0.12686561666666665
EXTRACT: note_on channel=2 note=64 velocity=79 time=0.09701488333333333
EXTRACT: note_on channel=2 note=61 velocity=0 time=0.03171640416666666
EXTRACT: note_on channel=2 note=57 velocity=0 time=0.09141787083333333
EXTRACT: pitchwheel channel=3 pitch=-4444 time=0.08768652916666665
EXTRACT: pitchwheel channel=3 pitch=-4305 time=0.0018656708333333332
EXTRACT: note_on channel=2 note=61 velocity=79 time=0
EXTRACT: note_on channel=3 note=76 velocity=90 time=0
EXTRACT: note_on channel=2 note=64 velocity=0 time=0.020522379166666663
EXTRACT: pitchwheel channel=3 pitch=-4166 time=0.011194025
EXTRACT: pitchwheel channel=3 pitch=-4027 time=0.016791037499999998
EXTRACT: pitchwheel channel=3 pitch=-3888 time=0.016791037499999998
EXTRACT: pitchwheel channel=3 pitch=-3750 time=0.011194025
EXTRACT: pitchwheel channel=3 pitch=-3611 time=0.009328354166666665
EXTRACT: pitchwheel channel=3 pitch=-3472 time=0.011194025
EXTRACT: pitchwheel channel=3 pitch=-3333 time=0.0055970125
EXTRACT: pitchwheel channel=3 pitch=-3194 time=0.007462683333333333
EXTRACT: pitchwheel channel=3 pitch=-3055 time=0.011194025
EXTRACT: pitchwheel channel=3 pitch=-2917 time=0.0055970125
EXTRACT: pitchwheel channel=3 pitch=-2778 time=0.007462683333333333
EXTRACT: pitchwheel channel=3 pitch=-2639 time=0.007462683333333333
EXTRACT: pitchwheel channel=3 pitch=-2500 time=0.0037313416666666663
EXTRACT: pitchwheel channel=3 pitch=-2361 time=0.0055970125
EXTRACT: pitchwheel channel=3 pitch=-2222 time=0.007462683333333333
EXTRACT: pitchwheel channel=3 pitch=-2084 time=0.0037313416666666663
EXTRACT: pitchwheel channel=3 pitch=-1945 time=0.007462683333333333
EXTRACT: pitchwheel channel=3 pitch=-1806 time=0.0037313416666666663
EXTRACT: pitchwheel channel=3 pitch=-1667 time=0.0055970125
EXTRACT: pitchwheel channel=3 pitch=-1528 time=0.0037313416666666663
EXTRACT: pitchwheel channel=3 pitch=-1389 time=0.007462683333333333
EXTRACT: pitchwheel channel=3 pitch=-1251 time=0.0037313416666666663
EXTRACT: pitchwheel channel=3 pitch=-1112 time=0.0018656708333333332
EXTRACT: pitchwheel channel=3 pitch=-973 time=0.007462683333333333
EXTRACT: pitchwheel channel=3 pitch=-834 time=0.0037313416666666663
EXTRACT: note_on channel=2 note=61 velocity=0 time=0.0018656708333333332
EXTRACT: pitchwheel channel=3 pitch=-695 time=0.0018656708333333332
EXTRACT: pitchwheel channel=3 pitch=-556 time=0.007462683333333333
EXTRACT: pitchwheel channel=3 pitch=-418 time=0.0018656708333333332
EXTRACT: note_on channel=2 note=57 velocity=77 time=0.0037313416666666663
EXTRACT: pitchwheel channel=3 pitch=-279 time=0
EXTRACT: pitchwheel channel=3 pitch=-140 time=0.0037313416666666663
EXTRACT: pitchwheel channel=3 pitch=-1 time=0.0037313416666666663
EXTRACT: pitchwheel channel=3 pitch=0 time=0.0037313416666666663
EXTRACT: note_on channel=2 note=61 velocity=78 time=0.21268647499999999
EXTRACT: note_on channel=2 note=61 velocity=0 time=0.22014915833333332
EXTRACT: note_on channel=2 note=64 velocity=82 time=0.0037313416666666663
EXTRACT: note_on channel=2 note=57 velocity=0 time=0.007462683333333333
EXTRACT: note_on channel=3 note=76 velocity=0 time=0.20895513333333332
EXTRACT: note_on channel=2 note=61 velocity=82 time=0
EXTRACT: note_on channel=3 note=73 velocity=86 time=0
EXTRACT: note_on channel=2 note=64 velocity=0 time=0.03171640416666666
EXTRACT: note_on channel=2 note=61 velocity=0 time=0.1791044
EXTRACT: note_on channel=2 note=57 velocity=82 time=0.013059695833333333
EXTRACT: note_on channel=2 note=61 velocity=78 time=0.22388049999999998
EXTRACT: note_on channel=2 note=61 velocity=0 time=0.20149245
EXTRACT: note_on channel=2 note=64 velocity=76 time=0.02238805
EXTRACT: note_on channel=2 note=57 velocity=0 time=0.09888055416666666
EXTRACT: note_on channel=2 note=61 velocity=78 time=0.12499994583333332
EXTRACT: note_on channel=2 note=64 velocity=0 time=0.01865670833333333
EXTRACT: note_on channel=2 note=61 velocity=0 time=0.18843275416666666
EXTRACT: note_on channel=3 note=73 velocity=0 time=0.009328354166666665
EXTRACT: note_on channel=2 note=57 velocity=77 time=0
EXTRACT: note_on channel=3 note=71 velocity=86 time=0
EXTRACT: note_on channel=3 note=71 velocity=0 time=0.21641781666666665
EXTRACT: note_on channel=2 note=61 velocity=78 time=0
EXTRACT: note_on channel=3 note=69 velocity=81 time=0
EXTRACT: note_on channel=2 note=45 velocity=0 time=0.16604470416666664
EXTRACT: note_on channel=2 note=57 velocity=0 time=0.014925366666666665
EXTRACT: note_on channel=2 note=61 velocity=0 time=0.016791037499999998
EXTRACT: note_on channel=2 note=64 velocity=73 time=0.026119391666666665
EXTRACT: note_on channel=2 note=52 velocity=0 time=0.0037313416666666663
EXTRACT: note_on channel=2 note=64 velocity=0 time=0.18843275416666666
EXTRACT: note_on channel=2 note=61 velocity=78 time=0.03171640416666666
EXTRACT: note_on channel=2 note=61 velocity=0 time=0.1529850083333333
EXTRACT: note_on channel=3 note=69 velocity=0 time=0.06343280833333333
EXTRACT: note_on channel=2 note=44 velocity=78 time=0.007462683333333333
EXTRACT: note_on channel=2 note=52 velocity=80 time=0
EXTRACT: note_on channel=2 note=56 velocity=78 time=0
EXTRACT: control_change channel=2 control=64 value=0 time=0.02238805
EXTRACT: note_on channel=2 note=61 velocity=73 time=0.20149245
EXTRACT: control_change channel=2 control=64 value=127 time=0.07462683333333332
EXTRACT: note_on channel=2 note=61 velocity=0 time=0.14925366666666665
EXTRACT: note_on channel=2 note=64 velocity=77 time=0
EXTRACT: pitchwheel channel=3 pitch=-4166 time=0.20522379166666666
EXTRACT: pitchwheel channel=3 pitch=-4027 time=0.0018656708333333332
EXTRACT: note_on channel=2 note=61 velocity=73 time=0
EXTRACT: note_on channel=3 note=76 velocity=89 time=0
EXTRACT: note_on channel=2 note=64 velocity=0 time=0.011194025
EXTRACT: note_on channel=2 note=56 velocity=0 time=0
EXTRACT: pitchwheel channel=3 pitch=-3888 time=0.01865670833333333
EXTRACT: pitchwheel channel=3 pitch=-3750 time=0.020522379166666663
EXTRACT: pitchwheel channel=3 pitch=-3611 time=0.014925366666666665
EXTRACT: pitchwheel channel=3 pitch=-3472 time=0.011194025
EXTRACT: pitchwheel channel=3 pitch=-3333 time=0.013059695833333333
EXTRACT: pitchwheel channel=3 pitch=-3194 time=0.009328354166666665
EXTRACT: pitchwheel channel=3 pitch=-3055 time=0.007462683333333333
EXTRACT: pitchwheel channel=3 pitch=-2917 time=0.011194025
EXTRACT: pitchwheel channel=3 pitch=-2778 time=0.007462683333333333
EXTRACT: pitchwheel channel=3 pitch=-2639 time=0.007462683333333333
EXTRACT: pitchwheel channel=3 pitch=-2500 time=0.007462683333333333
EXTRACT: pitchwheel channel=3 pitch=-2361 time=0.007462683333333333
EXTRACT: pitchwheel channel=3 pitch=-2222 time=0.0055970125
EXTRACT: pitchwheel channel=3 pitch=-2084 time=0.007462683333333333
EXTRACT: pitchwheel channel=3 pitch=-1945 time=0.0055970125
EXTRACT: pitchwheel channel=3 pitch=-1806 time=0.0055970125
EXTRACT: pitchwheel channel=3 pitch=-1667 time=0.007462683333333333
EXTRACT: pitchwheel channel=3 pitch=-1528 time=0.0055970125
EXTRACT: pitchwheel channel=3 pitch=-1389 time=0.0055970125
EXTRACT: pitchwheel channel=3 pitch=-1251 time=0.0037313416666666663
EXTRACT: pitchwheel channel=3 pitch=-1112 time=0.0055970125
EXTRACT: pitchwheel channel=3 pitch=-973 time=0.0055970125
EXTRACT: note_on channel=2 note=61 velocity=0 time=0.0055970125
EXTRACT: pitchwheel channel=3 pitch=-834 time=0
EXTRACT: pitchwheel channel=3 pitch=-695 time=0.0037313416666666663
EXTRACT: pitchwheel channel=3 pitch=-556 time=0.0055970125
EXTRACT: note_on channel=2 note=56 velocity=80 time=0.0037313416666666663
EXTRACT: pitchwheel channel=3 pitch=-418 time=0.0018656708333333332
EXTRACT: pitchwheel channel=3 pitch=-279 time=0.0055970125
EXTRACT: pitchwheel channel=3 pitch=-140 time=0.0018656708333333332
EXTRACT: pitchwheel channel=3 pitch=-1 time=0.0055970125
EXTRACT: pitchwheel channel=3 pitch=0 time=0.0055970125
EXTRACT: note_on channel=2 note=61 velocity=77 time=0.20335812083333332
EXTRACT: note_on channel=2 note=61 velocity=0 time=0.19216409583333333
EXTRACT: note_on channel=2 note=64 velocity=77 time=0.03171640416666666
EXTRACT: note_on channel=2 note=56 velocity=0 time=0.04664177083333333
EXTRACT: note_on channel=3 note=76 velocity=0 time=0.1697760458333333
EXTRACT: note_on channel=2 note=61 velocity=77 time=0
EXTRACT: note_on channel=3 note=73 velocity=87 time=0
EXTRACT: note_on channel=2 note=64 velocity=0 time=0.0037313416666666663
EXTRACT: note_on channel=2 note=61 velocity=0 time=0.19776110833333332
EXTRACT: note_on channel=2 note=56 velocity=78 time=0.02238805
EXTRACT: note_on channel=2 note=61 velocity=71 time=0.22388049999999998
EXTRACT: note_on channel=2 note=61 velocity=0 time=0.19776110833333332
EXTRACT: note_on channel=2 note=64 velocity=77 time=0.026119391666666665
EXTRACT: note_on channel=2 note=56 velocity=0 time=0.08395518749999999
EXTRACT: note_on channel=2 note=61 velocity=74 time=0.13992531249999998
EXTRACT: note_on channel=2 note=64 velocity=0 time=0.03171640416666666
EXTRACT: note_on channel=2 note=61 velocity=0 time=0.1585820208333333
EXTRACT: note_on channel=3 note=73 velocity=0 time=0.026119391666666665
EXTRACT: note_on channel=2 note=56 velocity=80 time=0
EXTRACT: note_on channel=3 note=71 velocity=88 time=0
EXTRACT: note_on channel=3 note=71 velocity=0 time=0.18843275416666666
EXTRACT: pitchwheel channel=3 pitch=-8192 time=0.01865670833333333
EXTRACT: pitchwheel channel=3 pitch=-8192 time=0.0018656708333333332
EXTRACT: note_on channel=2 note=61 velocity=76 time=0
EXTRACT: note_on channel=3 note=71 velocity=76 time=0
EXTRACT: pitchwheel channel=3 pitch=-8054 time=0.15111933749999998
EXTRACT: pitchwheel channel=3 pitch=-8054 time=0.0018656708333333332
EXTRACT: pitchwheel channel=3 pitch=-8054 time=0.0018656708333333332
EXTRACT: pitchwheel channel=3 pitch=-8054 time=0.0037313416666666663
EXTRACT: pitchwheel channel=3 pitch=-7915 time=0.0018656708333333332
EXTRACT: pitchwheel channel=3 pitch=-7776 time=0.0018656708333333332
EXTRACT: pitchwheel channel=3 pitch=-7776 time=0.0037313416666666663
EXTRACT: pitchwheel channel=3 pitch=-7637 time=0.0018656708333333332
EXTRACT: pitchwheel channel=3 pitch=-7498 time=0.0055970125
EXTRACT: note_on channel=2 note=61 velocity=0 time=0.0018656708333333332
EXTRACT: pitchwheel channel=3 pitch=-7498 time=0
EXTRACT: pitchwheel channel=3 pitch=-7359 time=0.0037313416666666663
EXTRACT: pitchwheel channel=3 pitch=-7221 time=0.0055970125
EXTRACT: pitchwheel channel=3 pitch=-7082 time=0.0018656708333333332
EXTRACT: pitchwheel channel=3 pitch=-7082 time=0.0055970125
EXTRACT: pitchwheel channel=3 pitch=-6943 time=0.0018656708333333332
EXTRACT: pitchwheel channel=3 pitch=-6804 time=0.0018656708333333332
EXTRACT: pitchwheel channel=3 pitch=-6804 time=0.0037313416666666663
EXTRACT: pitchwheel channel=3 pitch=-6665 time=0.0018656708333333332
EXTRACT: pitchwheel channel=3 pitch=-6526 time=0.0037313416666666663
EXTRACT: pitchwheel channel=3 pitch=-6388 time=0.0018656708333333332
EXTRACT: pitchwheel channel=3 pitch=-5832 time=0.0018656708333333332
EXTRACT: pitchwheel channel=3 pitch=-5693 time=0.0055970125
EXTRACT: pitchwheel channel=3 pitch=-5277 time=0.0018656708333333332
EXTRACT: pitchwheel channel=3 pitch=-4999 time=0.0037313416666666663
EXTRACT: pitchwheel channel=3 pitch=-4860 time=0.0018656708333333332
EXTRACT: note_on channel=2 note=64 velocity=74 time=0.0018656708333333332
EXTRACT: pitchwheel channel=3 pitch=-4444 time=0.0018656708333333332
EXTRACT: pitchwheel channel=3 pitch=-4166 time=0.0018656708333333332
EXTRACT: pitchwheel channel=3 pitch=-4027 time=0.0018656708333333332
EXTRACT: pitchwheel channel=3 pitch=-3750 time=0.0037313416666666663
EXTRACT: pitchwheel channel=3 pitch=-3472 time=0.0018656708333333332
EXTRACT: pitchwheel channel=3 pitch=-3333 time=0.0037313416666666663
EXTRACT: pitchwheel channel=3 pitch=-2917 time=0.0018656708333333332
EXTRACT: pitchwheel channel=3 pitch=-2639 time=0.0018656708333333332
EXTRACT: pitchwheel channel=3 pitch=-2500 time=0.0037313416666666663
EXTRACT: pitchwheel channel=3 pitch=-2222 time=0.0018656708333333332
EXTRACT: pitchwheel channel=3 pitch=-1945 time=0.0018656708333333332
EXTRACT: pitchwheel channel=3 pitch=-1528 time=0.0037313416666666663
EXTRACT: pitchwheel channel=3 pitch=-1251 time=0.0018656708333333332
EXTRACT: pitchwheel channel=3 pitch=-140 time=0.0037313416666666663
EXTRACT: pitchwheel channel=3 pitch=0 time=0.0018656708333333332
EXTRACT: note_on channel=2 note=44 velocity=0 time=0.014925366666666665
EXTRACT: note_on channel=2 note=52 velocity=0 time=0.05783579583333333
EXTRACT: note_on channel=2 note=56 velocity=0 time=0.039179087499999994
EXTRACT: note_on channel=2 note=61 velocity=75 time=0.07462683333333332
EXTRACT: note_on channel=2 note=64 velocity=0 time=0.016791037499999998
EXTRACT: note_on channel=2 note=61 velocity=0 time=0.16791037499999997
EXTRACT: note_on channel=3 note=71 velocity=0 time=0.03171640416666666
EXTRACT: note_on channel=2 note=42 velocity=76 time=0.007462683333333333
EXTRACT: note_on channel=2 note=49 velocity=76 time=0
EXTRACT: note_on channel=2 note=54 velocity=76 time=0
EXTRACT: control_change channel=2 control=64 value=0 time=0.05410445416666666
EXTRACT: note_on channel=2 note=61 velocity=71 time=0.1697760458333333
EXTRACT: control_change channel=2 control=64 value=127 time=0.10447756666666666
EXTRACT: note_on channel=2 note=61 velocity=0 time=0.03544774583333333
EXTRACT: note_on channel=2 note=66 velocity=75 time=0.08395518749999999
EXTRACT: note_on channel=2 note=54 velocity=0 time=0.100746225
EXTRACT: note_on channel=2 note=61 velocity=76 time=0.12313427499999999
EXTRACT: note_on channel=2 note=66 velocity=0 time=0.0037313416666666663
EXTRACT: note_on channel=2 note=61 velocity=0 time=0.20149245
EXTRACT: note_on channel=2 note=54 velocity=72 time=0
EXTRACT: note_on channel=3 note=76 velocity=83 time=0
EXTRACT: note_on channel=2 note=61 velocity=75 time=0.22388049999999998
EXTRACT: note_on channel=2 note=54 velocity=0 time=0.04104475833333333
EXTRACT: note_on channel=3 note=76 velocity=0 time=0.13992531249999998
EXTRACT: note_on channel=2 note=66 velocity=76 time=0
EXTRACT: note_on channel=3 note=76 velocity=80 time=0
EXTRACT: note_on channel=2 note=61 velocity=0 time=0.026119391666666665
EXTRACT: note_on channel=3 note=76 velocity=0 time=0.1791044
EXTRACT: note_on channel=2 note=61 velocity=75 time=0
EXTRACT: note_on channel=3 note=73 velocity=85 time=0
EXTRACT: note_on channel=2 note=66 velocity=0 time=0.027985062499999998
EXTRACT: note_on channel=2 note=61 velocity=0 time=0.1847014125
EXTRACT: note_on channel=2 note=54 velocity=77 time=0.011194025
EXTRACT: note_on channel=2 note=61 velocity=73 time=0.22388049999999998
EXTRACT: note_on channel=2 note=54 velocity=0 time=0.04104475833333333
EXTRACT: note_on channel=2 note=61 velocity=0 time=0.16791037499999997
EXTRACT: note_on channel=2 note=66 velocity=77 time=0.014925366666666665
EXTRACT: note_on channel=2 note=61 velocity=76 time=0.22388049999999998
EXTRACT: note_on channel=2 note=66 velocity=0 time=0.016791037499999998
EXTRACT: note_on channel=2 note=61 velocity=0 time=0.15671634999999998
EXTRACT: note_on channel=3 note=73 velocity=0 time=0.04291042916666666
EXTRACT: note_on channel=2 note=54 velocity=77 time=0
EXTRACT: note_on channel=3 note=71 velocity=85 time=0
EXTRACT: note_on channel=3 note=71 velocity=0 time=0.21641781666666665
EXTRACT: note_on channel=2 note=61 velocity=74 time=0
EXTRACT: note_on channel=3 note=69 velocity=85 time=0
EXTRACT: note_on channel=2 note=49 velocity=0 time=0.1529850083333333
EXTRACT: note_on channel=2 note=61 velocity=0 time=0.0018656708333333332
EXTRACT: note_on channel=2 note=42 velocity=0 time=0.01865670833333333
EXTRACT: note_on channel=2 note=66 velocity=78 time=0.0503731125
EXTRACT: note_on channel=2 note=54 velocity=0 time=0.08768652916666665
EXTRACT: note_on channel=2 note=61 velocity=74 time=0.13619397083333332
EXTRACT: note_on channel=2 note=66 velocity=0 time=0.013059695833333333
EXTRACT: note_on channel=3 note=69 velocity=0 time=0.16791037499999997
EXTRACT: pitchwheel channel=3 pitch=-3992 time=0.024253720833333332
EXTRACT: pitchwheel channel=3 pitch=-3852 time=0.0037313416666666663
EXTRACT: note_on channel=2 note=61 velocity=0 time=0.0037313416666666663
EXTRACT: note_on channel=2 note=38 velocity=79 time=0
EXTRACT: note_on channel=2 note=50 velocity=79 time=0
EXTRACT: note_on channel=2 note=54 velocity=79 time=0
EXTRACT: note_on channel=3 note=74 velocity=91 time=0
EXTRACT: control_change channel=2 control=64 value=0 time=0.033582074999999996
EXTRACT: pitchwheel channel=3 pitch=-3712 time=0.009328354166666665
EXTRACT: pitchwheel channel=3 pitch=-3572 time=0.027985062499999998
EXTRACT: pitchwheel channel=3 pitch=-3432 time=0.016791037499999998
EXTRACT: pitchwheel channel=3 pitch=-3292 time=0.01865670833333333
EXTRACT: pitchwheel channel=3 pitch=-3152 time=0.013059695833333333
EXTRACT: pitchwheel channel=3 pitch=-3012 time=0.014925366666666665
EXTRACT: pitchwheel channel=3 pitch=-2872 time=0.013059695833333333
EXTRACT: pitchwheel channel=3 pitch=-2731 time=0.011194025
EXTRACT: pitchwheel channel=3 pitch=-2591 time=0.009328354166666665
EXTRACT: pitchwheel channel=3 pitch=-2451 time=0.011194025
EXTRACT: pitchwheel channel=3 pitch=-2311 time=0.009328354166666665
EXTRACT: pitchwheel channel=3 pitch=-2171 time=0.007462683333333333
EXTRACT: pitchwheel channel=3 pitch=-2031 time=0.011194025
EXTRACT: pitchwheel channel=3 pitch=-1891 time=0.0055970125
EXTRACT: note_on channel=2 note=62 velocity=79 time=0.011194025
EXTRACT: pitchwheel channel=3 pitch=-1751 time=0
EXTRACT: pitchwheel channel=3 pitch=-1611 time=0.007462683333333333
EXTRACT: pitchwheel channel=3 pitch=-1471 time=0.0055970125
EXTRACT: pitchwheel channel=3 pitch=-1331 time=0.007462683333333333
EXTRACT: pitchwheel channel=3 pitch=-1191 time=0.007462683333333333
EXTRACT: pitchwheel channel=3 pitch=-1051 time=0.007462683333333333
EXTRACT: pitchwheel channel=3 pitch=-911 time=0.0055970125
EXTRACT: pitchwheel channel=3 pitch=-771 time=0.007462683333333333
EXTRACT: pitchwheel channel=3 pitch=-631 time=0.007462683333333333
EXTRACT: pitchwheel channel=3 pitch=-491 time=0.0055970125
EXTRACT: pitchwheel channel=3 pitch=-351 time=0.007462683333333333
EXTRACT: pitchwheel channel=3 pitch=-211 time=0.0037313416666666663
EXTRACT: pitchwheel channel=3 pitch=-71 time=0.007462683333333333
EXTRACT: pitchwheel channel=3 pitch=0 time=0.0055970125
EXTRACT: control_change channel=2 control=64 value=127 time=0.013059695833333333
EXTRACT: note_on channel=2 note=66 velocity=77 time=0.12499994583333332
EXTRACT: note_on channel=2 note=62 velocity=0 time=0.04664177083333333
EXTRACT: note_on channel=2 note=54 velocity=0 time=0.17723872916666664
EXTRACT: note_on channel=2 note=62 velocity=82 time=0
EXTRACT: note_on channel=2 note=66 velocity=0 time=0.011194025
EXTRACT: note_on channel=3 note=74 velocity=0 time=0.15671634999999998
EXTRACT: note_on channel=2 note=54 velocity=88 time=0
EXTRACT: note_on channel=3 note=74 velocity=89 time=0
EXTRACT: note_on channel=2 note=62 velocity=0 time=0.0055970125
EXTRACT: note_on channel=2 note=62 velocity=92 time=0.21828348749999998
EXTRACT: note_on channel=3 note=74 velocity=0 time=0.03731341666666666
EXTRACT: note_on channel=3 note=74 velocity=89 time=0
EXTRACT: note_on channel=2 note=54 velocity=0 time=0.14552232499999998
EXTRACT: note_on channel=2 note=66 velocity=93 time=0.0037313416666666663
EXTRACT: note_on channel=2 note=62 velocity=0 time=0.01865670833333333
EXTRACT: note_on channel=3 note=74 velocity=0 time=0.09328354166666666
EXTRACT: note_on channel=3 note=74 velocity=79 time=0
EXTRACT: note_on channel=2 note=62 velocity=90 time=0.07462683333333332
EXTRACT: note_on channel=2 note=66 velocity=0 time=0.016791037499999998
EXTRACT: note_on channel=2 note=62 velocity=0 time=0.18843275416666666
EXTRACT: note_on channel=3 note=74 velocity=0 time=0.011194025
EXTRACT: note_on channel=2 note=54 velocity=92 time=0.007462683333333333
EXTRACT: note_on channel=3 note=73 velocity=91 time=0
EXTRACT: note_on channel=2 note=62 velocity=92 time=0.22388049999999998
EXTRACT: note_on channel=2 note=54 velocity=0 time=0.027985062499999998
EXTRACT: note_on channel=2 note=62 velocity=0 time=0.17723872916666664
EXTRACT: note_on channel=2 note=66 velocity=88 time=0.01865670833333333
EXTRACT: note_on channel=3 note=73 velocity=0 time=0.18097007083333333
EXTRACT: note_on channel=2 note=62 velocity=87 time=0
EXTRACT: note_on channel=3 note=73 velocity=79 time=0
EXTRACT: note_on channel=2 note=66 velocity=0 time=0.016791037499999998
EXTRACT: note_on channel=3 note=73 velocity=0 time=0.1641790333333333
EXTRACT: pitchwheel channel=3 pitch=8191 time=0.03731341666666666
EXTRACT: note_on channel=2 note=62 velocity=0 time=0.0055970125
EXTRACT: note_on channel=2 note=54 velocity=82 time=0
EXTRACT: note_on channel=3 note=71 velocity=88 time=0
EXTRACT: pitchwheel channel=3 pitch=7630 time=0.11194024999999999
EXTRACT: pitchwheel channel=3 pitch=7350 time=0.0037313416666666663
EXTRACT: pitchwheel channel=3 pitch=7350 time=0.0037313416666666663
EXTRACT: pitchwheel channel=3 pitch=7210 time=0.0055970125
EXTRACT: pitchwheel channel=3 pitch=7070 time=0.0037313416666666663
EXTRACT: pitchwheel channel=3 pitch=6930 time=0.0018656708333333332
EXTRACT: pitchwheel channel=3 pitch=6650 time=0.0037313416666666663
EXTRACT: pitchwheel channel=3 pitch=6090 time=0.0037313416666666663
EXTRACT: pitchwheel channel=3 pitch=5950 time=0.0037313416666666663
EXTRACT: pitchwheel channel=3 pitch=5950 time=0.0018656708333333332
EXTRACT: pitchwheel channel=3 pitch=5810 time=0.007462683333333333
EXTRACT: pitchwheel channel=3 pitch=5670 time=0.0037313416666666663
EXTRACT: pitchwheel channel=3 pitch=4970 time=0.0018656708333333332
EXTRACT: pitchwheel channel=3 pitch=4690 time=0.0037313416666666663
EXTRACT: pitchwheel channel=3 pitch=4410 time=0.0037313416666666663
EXTRACT: pitchwheel channel=3 pitch=4270 time=0.0037313416666666663
EXTRACT: pitchwheel channel=3 pitch=3990 time=0.0018656708333333332
EXTRACT: pitchwheel channel=3 pitch=3850 time=0.0037313416666666663
EXTRACT: pitchwheel channel=3 pitch=3710 time=0.0037313416666666663
EXTRACT: pitchwheel channel=3 pitch=3430 time=0.0037313416666666663
EXTRACT: pitchwheel channel=3 pitch=3150 time=0.0018656708333333332
EXTRACT: pitchwheel channel=3 pitch=2730 time=0.0037313416666666663
EXTRACT: pitchwheel channel=3 pitch=2589 time=0.0037313416666666663
EXTRACT: pitchwheel channel=3 pitch=2169 time=0.0037313416666666663
EXTRACT: pitchwheel channel=3 pitch=1889 time=0.0018656708333333332
EXTRACT: pitchwheel channel=3 pitch=1889 time=0.0037313416666666663
EXTRACT: pitchwheel channel=3 pitch=1469 time=0.0037313416666666663
EXTRACT: pitchwheel channel=3 pitch=1049 time=0.0037313416666666663
EXTRACT: pitchwheel channel=3 pitch=629 time=0.0018656708333333332
EXTRACT: pitchwheel channel=3 pitch=489 time=0.0037313416666666663
EXTRACT: pitchwheel channel=3 pitch=209 time=0.0037313416666666663
EXTRACT: pitchwheel channel=3 pitch=0 time=0.0018656708333333332
EXTRACT: note_on channel=2 note=62 velocity=81 time=0.0055970125
EXTRACT: note_on channel=2 note=54 velocity=0 time=0.0447761
EXTRACT: note_on channel=2 note=62 velocity=0 time=0.1529850083333333
EXTRACT: note_on channel=3 note=71 velocity=0 time=0.01865670833333333
EXTRACT: note_on channel=2 note=66 velocity=81 time=0
EXTRACT: note_on channel=3 note=69 velocity=84 time=0
EXTRACT: note_on channel=2 note=66 velocity=0 time=0.21641781666666665
EXTRACT: note_on channel=2 note=62 velocity=81 time=0.007462683333333333
EXTRACT: note_on channel=2 note=38 velocity=0 time=0.0503731125
EXTRACT: note_on channel=2 note=50 velocity=0 time=0.009328354166666665
EXTRACT: note_on channel=2 note=62 velocity=0 time=0.0503731125
EXTRACT: note_on channel=3 note=69 velocity=0 time=0.07089549166666666
EXTRACT: control_change channel=2 control=64 value=0 time=0.026119391666666665
EXTRACT: note_on channel=2 note=33 velocity=81 time=0
EXTRACT: note_on channel=2 note=45 velocity=81 time=0
EXTRACT: note_on channel=2 note=57 velocity=81 time=0
EXTRACT: note_on channel=3 note=69 velocity=91 time=0
EXTRACT: note_on channel=2 note=61 velocity=79 time=0.22388049999999998
EXTRACT: control_change channel=2 control=64 value=127 time=0.12686561666666665
EXTRACT: note_on channel=2 note=64 velocity=79 time=0.09701488333333333
EXTRACT: note_on channel=2 note=61 velocity=0 time=0.03171640416666666
EXTRACT: note_on channel=2 note=57 velocity=0 time=0.09141787083333333
EXTRACT: note_on channel=3 note=69 velocity=0 time=0.055970124999999996
EXTRACT: pitchwheel channel=3 pitch=-8052 time=0.03544774583333333
EXTRACT: pitchwheel channel=3 pitch=-7912 time=0.0018656708333333332
EXTRACT: note_on channel=2 note=61 velocity=79 time=0
EXTRACT: note_on channel=3 note=76 velocity=93 time=0
EXTRACT: pitchwheel channel=3 pitch=-7772 time=0.009328354166666665
EXTRACT: pitchwheel channel=3 pitch=-7632 time=0.007462683333333333
EXTRACT: note_on channel=2 note=64 velocity=0 time=0.0037313416666666663
EXTRACT: pitchwheel channel=3 pitch=-7492 time=0.0018656708333333332
EXTRACT: pitchwheel channel=3 pitch=-7352 time=0.0037313416666666663
EXTRACT: pitchwheel channel=3 pitch=-7212 time=0.0037313416666666663
EXTRACT: pitchwheel channel=3 pitch=-7072 time=0.0055970125
EXTRACT: pitchwheel channel=3 pitch=-6932 time=0.0037313416666666663
EXTRACT: pitchwheel channel=3 pitch=-6792 time=0.0018656708333333332
EXTRACT: pitchwheel channel=3 pitch=-6652 time=0.0037313416666666663
EXTRACT: pitchwheel channel=3 pitch=-6512 time=0.0018656708333333332
EXTRACT: pitchwheel channel=3 pitch=-6372 time=0.0037313416666666663
EXTRACT: pitchwheel channel=3 pitch=-6232 time=0.0018656708333333332
EXTRACT: pitchwheel channel=3 pitch=-6092 time=0.0037313416666666663
EXTRACT: pitchwheel channel=3 pitch=-5952 time=0.0018656708333333332
EXTRACT: pitchwheel channel=3 pitch=-5812 time=0.0018656708333333332
EXTRACT: pitchwheel channel=3 pitch=-5672 time=0.0018656708333333332
EXTRACT: pitchwheel channel=3 pitch=-5532 time=0.0037313416666666663
EXTRACT: pitchwheel channel=3 pitch=-5392 time=0
EXTRACT: pitchwheel channel=3 pitch=-5252 time=0.0037313416666666663
EXTRACT: pitchwheel channel=3 pitch=-5112 time=0.0018656708333333332
EXTRACT: pitchwheel channel=3 pitch=-4972 time=0
EXTRACT: pitchwheel channel=3 pitch=-4832 time=0.0037313416666666663
EXTRACT: pitchwheel channel=3 pitch=-4692 time=0
EXTRACT: pitchwheel channel=3 pitch=-4552 time=0.0037313416666666663
EXTRACT: pitchwheel channel=3 pitch=-4412 time=0.0018656708333333332
EXTRACT: pitchwheel channel=3 pitch=-4272 time=0
EXTRACT: pitchwheel channel=3 pitch=-4132 time=0.0018656708333333332
EXTRACT: pitchwheel channel=3 pitch=-3992 time=0.0037313416666666663
EXTRACT: pitchwheel channel=3 pitch=-3852 time=0
EXTRACT: pitchwheel channel=3 pitch=-3712 time=0.0018656708333333332
EXTRACT: pitchwheel channel=3 pitch=-3572 time=0.0018656708333333332
EXTRACT: pitchwheel channel=3 pitch=-3432 time=0.0018656708333333332
EXTRACT: pitchwheel channel=3 pitch=-3292 time=0
EXTRACT: pitchwheel channel=3 pitch=-3152 time=0.0037313416666666663
EXTRACT: pitchwheel channel=3 pitch=-3012 time=0
EXTRACT: pitchwheel channel=3 pitch=-2872 time=0.0018656708333333332
EXTRACT: pitchwheel channel=3 pitch=-2731 time=0.0018656708333333332
EXTRACT: pitchwheel channel=3 pitch=-2591 time=0.0018656708333333332
EXTRACT: pitchwheel channel=3 pitch=-2451 time=0
EXTRACT: pitchwheel channel=3 pitch=-2311 time=0.0018656708333333332
EXTRACT: pitchwheel channel=3 pitch=-2171 time=0.0018656708333333332
EXTRACT: pitchwheel channel=3 pitch=-2031 time=0.0018656708333333332
EXTRACT: pitchwheel channel=3 pitch=-1891 time=0
EXTRACT: pitchwheel channel=3 pitch=-1751 time=0.0018656708333333332
EXTRACT: pitchwheel channel=3 pitch=-1611 time=0.0018656708333333332
EXTRACT: pitchwheel channel=3 pitch=-1471 time=0
EXTRACT: pitchwheel channel=3 pitch=-1331 time=0.0018656708333333332
EXTRACT: pitchwheel channel=3 pitch=-1191 time=0.0018656708333333332
EXTRACT: pitchwheel channel=3 pitch=-911 time=0.0018656708333333332
EXTRACT: pitchwheel channel=3 pitch=-771 time=0
EXTRACT: pitchwheel channel=3 pitch=-631 time=0.0018656708333333332
EXTRACT: pitchwheel channel=3 pitch=-491 time=0.0018656708333333332
EXTRACT: pitchwheel channel=3 pitch=-351 time=0.0018656708333333332
EXTRACT: pitchwheel channel=3 pitch=-211 time=0
EXTRACT: pitchwheel channel=3 pitch=-71 time=0.0018656708333333332
EXTRACT: note_on channel=2 note=61 velocity=0 time=0.08582085833333332
EXTRACT: note_on channel=2 note=57 velocity=77 time=0.014925366666666665
EXTRACT: note_on channel=3 note=76 velocity=0 time=0.21641781666666665
EXTRACT: note_on channel=2 note=61 velocity=78 time=0
EXTRACT: note_on channel=3 note=73 velocity=76 time=0
EXTRACT: note_on channel=3 note=73 velocity=0 time=0.19402976666666666
EXTRACT: note_on channel=2 note=61 velocity=0 time=0.026119391666666665
EXTRACT: note_on channel=2 note=64 velocity=73 time=0.0037313416666666663
EXTRACT: note_on channel=3 note=73 velocity=90 time=0
EXTRACT: note_on channel=2 note=57 velocity=0 time=0.007462683333333333
EXTRACT: note_on channel=2 note=61 velocity=78 time=0.21641781666666665
EXTRACT: note_on channel=2 note=64 velocity=0 time=0.03171640416666666
EXTRACT: note_on channel=2 note=61 velocity=0 time=0.1791044
EXTRACT: note_on channel=2 note=57 velocity=79 time=0.013059695833333333
EXTRACT: note_on channel=2 note=61 velocity=78 time=0.22388049999999998
EXTRACT: note_on channel=2 note=61 velocity=0 time=0.20149245
EXTRACT: note_on channel=3 note=73 velocity=0 time=0.014925366666666665
EXTRACT: note_on channel=2 note=64 velocity=76 time=0.007462683333333333
EXTRACT: note_on channel=2 note=57 velocity=0 time=0.09888055416666666
EXTRACT: note_on channel=2 note=61 velocity=78 time=0.12499994583333332
EXTRACT: note_on channel=2 note=64 velocity=0 time=0.01865670833333333
EXTRACT: note_on channel=2 note=61 velocity=0 time=0.18843275416666666
EXTRACT: note_on channel=2 note=57 velocity=77 time=0.016791037499999998
EXTRACT: note_on channel=2 note=61 velocity=78 time=0
EXTRACT: note_on channel=3 note=71 velocity=90 time=0
EXTRACT: note_on channel=2 note=45 velocity=0 time=0.16604470416666664
EXTRACT: note_on channel=2 note=57 velocity=0 time=0.014925366666666665
EXTRACT: note_on channel=2 note=61 velocity=0 time=0.016791037499999998
EXTRACT: note_on channel=3 note=71 velocity=0 time=0.01865670833333333
EXTRACT: note_on channel=2 note=64 velocity=73 time=0
EXTRACT: note_on channel=3 note=69 velocity=85 time=0
EXTRACT: note_on channel=2 note=33 velocity=0 time=0.0037313416666666663
EXTRACT: note_on channel=2 note=64 velocity=0 time=0.18843275416666666
EXTRACT: note_on channel=2 note=61 velocity=78 time=0.03171640416666666
EXTRACT: note_on channel=2 note=61 velocity=0 time=0.1529850083333333
EXTRACT: note_on channel=3 note=69 velocity=0 time=0.06343280833333333
EXTRACT: note_on channel=2 note=32 velocity=80 time=0.007462683333333333
EXTRACT: note_on channel=2 note=44 velocity=78 time=0
EXTRACT: note_on channel=2 note=56 velocity=78 time=0
EXTRACT: control_change channel=2 control=64 value=0 time=0.02238805
EXTRACT: note_on channel=2 note=61 velocity=78 time=0.20149245
EXTRACT: control_change channel=2 control=64 value=127 time=0.07462683333333332
EXTRACT: note_on channel=2 note=61 velocity=0 time=0.14925366666666665
EXTRACT: note_on channel=2 note=64 velocity=77 time=0
EXTRACT: note_on channel=2 note=61 velocity=78 time=0
EXTRACT: note_on channel=3 note=69 velocity=80 time=0
EXTRACT: note_on channel=2 note=64 velocity=0 time=0.011194025
EXTRACT: note_on channel=2 note=56 velocity=0 time=0
EXTRACT: note_on channel=3 note=69 velocity=0 time=0.1753730583333333
EXTRACT: note_on channel=2 note=61 velocity=0 time=0.024253720833333332
EXTRACT: pitchwheel channel=3 pitch=-8052 time=0.0037313416666666663
EXTRACT: pitchwheel channel=3 pitch=-7912 time=0.0018656708333333332
EXTRACT: note_on channel=2 note=56 velocity=80 time=0
EXTRACT: note_on channel=3 note=76 velocity=92 time=0
EXTRACT: pitchwheel channel=3 pitch=-7772 time=0.013059695833333333
EXTRACT: pitchwheel channel=3 pitch=-7632 time=0.009328354166666665
EXTRACT: pitchwheel channel=3 pitch=-7492 time=0.0055970125
EXTRACT: pitchwheel channel=3 pitch=-7352 time=0.0055970125
EXTRACT: pitchwheel channel=3 pitch=-7212 time=0.0055970125
EXTRACT: pitchwheel channel=3 pitch=-7072 time=0.0037313416666666663
EXTRACT: pitchwheel channel=3 pitch=-6932 time=0.0037313416666666663
EXTRACT: pitchwheel channel=3 pitch=-6792 time=0.0037313416666666663
EXTRACT: pitchwheel channel=3 pitch=-6652 time=0.0037313416666666663
EXTRACT: pitchwheel channel=3 pitch=-6512 time=0.0037313416666666663
EXTRACT: pitchwheel channel=3 pitch=-6372 time=0.0037313416666666663
EXTRACT: pitchwheel channel=3 pitch=-6232 time=0.0018656708333333332
EXTRACT: pitchwheel channel=3 pitch=-6092 time=0.0037313416666666663
EXTRACT: pitchwheel channel=3 pitch=-5952 time=0.0037313416666666663
EXTRACT: pitchwheel channel=3 pitch=-5812 time=0.0018656708333333332
EXTRACT: pitchwheel channel=3 pitch=-5672 time=0.0018656708333333332
EXTRACT: pitchwheel channel=3 pitch=-5532 time=0.0037313416666666663
EXTRACT: pitchwheel channel=3 pitch=-5392 time=0.0018656708333333332
EXTRACT: pitchwheel channel=3 pitch=-5252 time=0.0037313416666666663
EXTRACT: pitchwheel channel=3 pitch=-5112 time=0.0018656708333333332
EXTRACT: pitchwheel channel=3 pitch=-4972 time=0.0018656708333333332
EXTRACT: pitchwheel channel=3 pitch=-4832 time=0.0018656708333333332
EXTRACT: pitchwheel channel=3 pitch=-4692 time=0.0037313416666666663
EXTRACT: pitchwheel channel=3 pitch=-4552 time=0
EXTRACT: pitchwheel channel=3 pitch=-4412 time=0.0037313416666666663
EXTRACT: pitchwheel channel=3 pitch=-4272 time=0.0018656708333333332
EXTRACT: pitchwheel channel=3 pitch=-4132 time=0.0018656708333333332
EXTRACT: pitchwheel channel=3 pitch=-3992 time=0.0018656708333333332
EXTRACT: pitchwheel channel=3 pitch=-3852 time=0.0018656708333333332
EXTRACT: pitchwheel channel=3 pitch=-3712 time=0.0018656708333333332
EXTRACT: pitchwheel channel=3 pitch=-3572 time=0.0018656708333333332
EXTRACT: pitchwheel channel=3 pitch=-3432 time=0.0018656708333333332
EXTRACT: pitchwheel channel=3 pitch=-3292 time=0.0018656708333333332
EXTRACT: pitchwheel channel=3 pitch=-3152 time=0.0018656708333333332
EXTRACT: pitchwheel channel=3 pitch=-3012 time=0.0018656708333333332
EXTRACT: pitchwheel channel=3 pitch=-2872 time=0.0018656708333333332
EXTRACT: pitchwheel channel=3 pitch=-2731 time=0.0018656708333333332
EXTRACT: pitchwheel channel=3 pitch=-2591 time=0.0018656708333333332
EXTRACT: pitchwheel channel=3 pitch=-2451 time=0
EXTRACT: pitchwheel channel=3 pitch=-2311 time=0.0037313416666666663
EXTRACT: pitchwheel channel=3 pitch=-2171 time=0
EXTRACT: pitchwheel channel=3 pitch=-2031 time=0.0018656708333333332
EXTRACT: pitchwheel channel=3 pitch=-1891 time=0.0018656708333333332
EXTRACT: pitchwheel channel=3 pitch=-1751 time=0.0018656708333333332
EXTRACT: pitchwheel channel=3 pitch=-1611 time=0
EXTRACT: pitchwheel channel=3 pitch=-1471 time=0.0037313416666666663
EXTRACT: pitchwheel channel=3 pitch=-1331 time=0
EXTRACT: pitchwheel channel=3 pitch=-1191 time=0.0018656708333333332
EXTRACT: pitchwheel channel=3 pitch=-1051 time=0.0018656708333333332
EXTRACT: pitchwheel channel=3 pitch=-911 time=0.0018656708333333332
EXTRACT: pitchwheel channel=3 pitch=-771 time=0.0018656708333333332
EXTRACT: pitchwheel channel=3 pitch=-631 time=0
EXTRACT: pitchwheel channel=3 pitch=-491 time=0.0018656708333333332
EXTRACT: pitchwheel channel=3 pitch=-351 time=0.0018656708333333332
EXTRACT: pitchwheel channel=3 pitch=-211 time=0.0018656708333333332
EXTRACT: pitchwheel channel=3 pitch=-71 time=0
EXTRACT: pitchwheel channel=3 pitch=0 time=0.0018656708333333332
EXTRACT: note_on channel=2 note=61 velocity=73 time=0.07462683333333332
EXTRACT: note_on channel=2 note=61 velocity=0 time=0.19216409583333333
EXTRACT: note_on channel=2 note=64 velocity=77 time=0.03171640416666666
EXTRACT: note_on channel=2 note=56 velocity=0 time=0.04664177083333333
EXTRACT: note_on channel=3 note=76 velocity=0 time=0.17350738749999997
EXTRACT: note_on channel=2 note=61 velocity=77 time=0
EXTRACT: note_on channel=3 note=73 velocity=83 time=0
EXTRACT: note_on channel=2 note=64 velocity=0 time=0.0037313416666666663
EXTRACT: note_on channel=2 note=61 velocity=0 time=0.19776110833333332
EXTRACT: note_on channel=2 note=56 velocity=78 time=0.02238805
EXTRACT: note_on channel=2 note=61 velocity=78 time=0.22388049999999998
EXTRACT: note_on channel=2 note=61 velocity=0 time=0.19776110833333332
EXTRACT: note_on channel=2 note=64 velocity=77 time=0.026119391666666665
EXTRACT: note_on channel=2 note=56 velocity=0 time=0.08395518749999999
EXTRACT: note_on channel=2 note=61 velocity=74 time=0.13992531249999998
EXTRACT: note_on channel=2 note=64 velocity=0 time=0.03171640416666666
EXTRACT: note_on channel=3 note=73 velocity=0 time=0.1473879958333333
EXTRACT: note_on channel=2 note=61 velocity=0 time=0.011194025
EXTRACT: pitchwheel channel=3 pitch=-4132 time=0.020522379166666663
EXTRACT: note_on channel=2 note=56 velocity=80 time=0
EXTRACT: note_on channel=3 note=73 velocity=87 time=0
EXTRACT: pitchwheel channel=3 pitch=-3992 time=0.0951492125
EXTRACT: pitchwheel channel=3 pitch=-3852 time=0.0018656708333333332
EXTRACT: pitchwheel channel=3 pitch=-3712 time=0.026119391666666665
EXTRACT: pitchwheel channel=3 pitch=-3572 time=0.013059695833333333
EXTRACT: pitchwheel channel=3 pitch=-3432 time=0.007462683333333333
EXTRACT: pitchwheel channel=3 pitch=-3292 time=0.007462683333333333
EXTRACT: pitchwheel channel=3 pitch=-3152 time=0.007462683333333333
EXTRACT: pitchwheel channel=3 pitch=-3012 time=0.0037313416666666663
EXTRACT: pitchwheel channel=3 pitch=-2872 time=0.0055970125
EXTRACT: pitchwheel channel=3 pitch=-2731 time=0.007462683333333333
EXTRACT: pitchwheel channel=3 pitch=-2591 time=0.0018656708333333332
EXTRACT: pitchwheel channel=3 pitch=-2451 time=0.0055970125
EXTRACT: pitchwheel channel=3 pitch=-2311 time=0.0055970125
EXTRACT: pitchwheel channel=3 pitch=-2171 time=0.0037313416666666663
EXTRACT: pitchwheel channel=3 pitch=-2031 time=0.0018656708333333332
EXTRACT: pitchwheel channel=3 pitch=-1891 time=0.0055970125
EXTRACT: pitchwheel channel=3 pitch=-1751 time=0.0018656708333333332
EXTRACT: pitchwheel channel=3 pitch=-1611 time=0.0055970125
EXTRACT: pitchwheel channel=3 pitch=-1471 time=0.0018656708333333332
EXTRACT: pitchwheel channel=3 pitch=-1331 time=0.0055970125
EXTRACT: pitchwheel channel=3 pitch=-1191 time=0.0018656708333333332
EXTRACT: pitchwheel channel=3 pitch=-1051 time=0.0037313416666666663
EXTRACT: pitchwheel channel=3 pitch=-911 time=0.0018656708333333332
EXTRACT: note_on channel=2 note=61 velocity=76 time=0.0018656708333333332
EXTRACT: pitchwheel channel=3 pitch=-771 time=0.0018656708333333332
EXTRACT: pitchwheel channel=3 pitch=-631 time=0.0037313416666666663
EXTRACT: pitchwheel channel=3 pitch=-491 time=0.0018656708333333332
EXTRACT: pitchwheel channel=3 pitch=-351 time=0.0018656708333333332
EXTRACT: pitchwheel channel=3 pitch=-211 time=0.0037313416666666663
EXTRACT: pitchwheel channel=3 pitch=-71 time=0.0018656708333333332
EXTRACT: pitchwheel channel=3 pitch=0 time=0.0018656708333333332
EXTRACT: note_on channel=2 note=61 velocity=0 time=0.1585820208333333
EXTRACT: note_on channel=2 note=64 velocity=79 time=0.048507441666666665
EXTRACT: note_on channel=2 note=44 velocity=0 time=0.05223878333333333
EXTRACT: note_on channel=2 note=32 velocity=0 time=0.05783579583333333
EXTRACT: note_on channel=2 note=56 velocity=0 time=0.039179087499999994
EXTRACT: note_on channel=2 note=61 velocity=75 time=0.07462683333333332
EXTRACT: note_on channel=2 note=64 velocity=0 time=0.016791037499999998
EXTRACT: note_on channel=3 note=73 velocity=0 time=0.16604470416666664
EXTRACT: note_on channel=2 note=61 velocity=0 time=0.0018656708333333332
EXTRACT: pitchwheel channel=3 pitch=8191 time=0.03171640416666666
EXTRACT: note_on channel=2 note=30 velocity=79 time=0
EXTRACT: note_on channel=2 note=42 velocity=79 time=0
EXTRACT: note_on channel=2 note=54 velocity=76 time=0
EXTRACT: note_on channel=3 note=66 velocity=82 time=0
EXTRACT: pitchwheel channel=3 pitch=8034 time=0.026119391666666665
EXTRACT: pitchwheel channel=3 pitch=7878 time=0.007462683333333333
EXTRACT: pitchwheel channel=3 pitch=7722 time=0.0055970125
EXTRACT: pitchwheel channel=3 pitch=7566 time=0.0055970125
EXTRACT: pitchwheel channel=3 pitch=7410 time=0.0055970125
EXTRACT: control_change channel=2 control=64 value=0 time=0.0037313416666666663
EXTRACT: pitchwheel channel=3 pitch=7254 time=0
EXTRACT: pitchwheel channel=3 pitch=7098 time=0.0037313416666666663
EXTRACT: pitchwheel channel=3 pitch=6942 time=0.0055970125
EXTRACT: pitchwheel channel=3 pitch=6786 time=0.0018656708333333332
EXTRACT: pitchwheel channel=3 pitch=6630 time=0.0037313416666666663
EXTRACT: pitchwheel channel=3 pitch=6474 time=0.0037313416666666663
EXTRACT: pitchwheel channel=3 pitch=6318 time=0.0018656708333333332
EXTRACT: pitchwheel channel=3 pitch=6162 time=0.0055970125
EXTRACT: pitchwheel channel=3 pitch=6006 time=0.0018656708333333332
EXTRACT: pitchwheel channel=3 pitch=5850 time=0.0018656708333333332
EXTRACT: pitchwheel channel=3 pitch=5694 time=0.0037313416666666663
EXTRACT: pitchwheel channel=3 pitch=5538 time=0.0037313416666666663
EXTRACT: pitchwheel channel=3 pitch=5382 time=0.0018656708333333332
EXTRACT: pitchwheel channel=3 pitch=5226 time=0.0018656708333333332
EXTRACT: pitchwheel channel=3 pitch=5070 time=0.0037313416666666663
EXTRACT: pitchwheel channel=3 pitch=4914 time=0.0018656708333333332
EXTRACT: pitchwheel channel=3 pitch=4758 time=0.0018656708333333332
EXTRACT: pitchwheel channel=3 pitch=4602 time=0.0037313416666666663
EXTRACT: pitchwheel channel=3 pitch=4446 time=0.0018656708333333332
EXTRACT: pitchwheel channel=3 pitch=4290 time=0.0018656708333333332
EXTRACT: pitchwheel channel=3 pitch=4134 time=0.0018656708333333332
EXTRACT: pitchwheel channel=3 pitch=3978 time=0.0018656708333333332
EXTRACT: pitchwheel channel=3 pitch=3822 time=0.0037313416666666663
EXTRACT: pitchwheel channel=3 pitch=3666 time=0.0018656708333333332
EXTRACT: pitchwheel channel=3 pitch=3510 time=0
EXTRACT: pitchwheel channel=3 pitch=3354 time=0.0037313416666666663
EXTRACT: pitchwheel channel=3 pitch=3198 time=0.0018656708333333332
EXTRACT: pitchwheel channel=3 pitch=3042 time=0.0018656708333333332
EXTRACT: pitchwheel channel=3 pitch=2886 time=0.0018656708333333332
EXTRACT: pitchwheel channel=3 pitch=2730 time=0.0018656708333333332
EXTRACT: pitchwheel channel=3 pitch=2573 time=0.0018656708333333332
EXTRACT: pitchwheel channel=3 pitch=2417 time=0.0018656708333333332
EXTRACT: pitchwheel channel=3 pitch=2261 time=0.0018656708333333332
EXTRACT: pitchwheel channel=3 pitch=2105 time=0.0018656708333333332
EXTRACT: pitchwheel channel=3 pitch=1949 time=0.0018656708333333332
EXTRACT: pitchwheel channel=3 pitch=1793 time=0.0018656708333333332
EXTRACT: pitchwheel channel=3 pitch=1637 time=0.0018656708333333332
EXTRACT: pitchwheel channel=3 pitch=1481 time=0.0018656708333333332
EXTRACT: pitchwheel channel=3 pitch=1325 time=0.0018656708333333332
EXTRACT: pitchwheel channel=3 pitch=1169 time=0
EXTRACT: pitchwheel channel=3 pitch=1013 time=0.0018656708333333332
EXTRACT: pitchwheel channel=3 pitch=857 time=0.0018656708333333332
EXTRACT: pitchwheel channel=3 pitch=701 time=0.0018656708333333332
EXTRACT: pitchwheel channel=3 pitch=545 time=0.0018656708333333332
EXTRACT: pitchwheel channel=3 pitch=389 time=0.0018656708333333332
EXTRACT: note_on channel=2 note=61 velocity=71 time=0.06716414999999999
EXTRACT: control_change channel=2 control=64 value=127 time=0.10447756666666666
EXTRACT: note_on channel=2 note=61 velocity=0 time=0.03544774583333333
EXTRACT: note_on channel=2 note=66 velocity=75 time=0.08395518749999999
EXTRACT: note_on channel=2 note=54 velocity=0 time=0.100746225
EXTRACT: note_on channel=3 note=66 velocity=0 time=0.09141787083333333
EXTRACT: pitchwheel channel=3 pitch=-8192 time=0.024253720833333332
EXTRACT: note_on channel=2 note=61 velocity=76 time=0
EXTRACT: note_on channel=3 note=73 velocity=92 time=0
EXTRACT: note_on channel=2 note=66 velocity=0 time=0.0037313416666666663
EXTRACT: pitchwheel channel=3 pitch=-8058 time=0.007462683333333333
EXTRACT: pitchwheel channel=3 pitch=-7924 time=0.007462683333333333
EXTRACT: pitchwheel channel=3 pitch=-7790 time=0.007462683333333333
EXTRACT: pitchwheel channel=3 pitch=-7655 time=0.0055970125
EXTRACT: pitchwheel channel=3 pitch=-7521 time=0.0037313416666666663
EXTRACT: pitchwheel channel=3 pitch=-7387 time=0.0037313416666666663
EXTRACT: pitchwheel channel=3 pitch=-7252 time=0.0037313416666666663
EXTRACT: pitchwheel channel=3 pitch=-7118 time=0.0037313416666666663
EXTRACT: pitchwheel channel=3 pitch=-6984 time=0.0018656708333333332
EXTRACT: pitchwheel channel=3 pitch=-6850 time=0.0037313416666666663
EXTRACT: pitchwheel channel=3 pitch=-6715 time=0.0018656708333333332
EXTRACT: pitchwheel channel=3 pitch=-6581 time=0.0037313416666666663
EXTRACT: pitchwheel channel=3 pitch=-6447 time=0.0037313416666666663
EXTRACT: pitchwheel channel=3 pitch=-6312 time=0.0018656708333333332
EXTRACT: pitchwheel channel=3 pitch=-6178 time=0.0018656708333333332
EXTRACT: pitchwheel channel=3 pitch=-6044 time=0.0037313416666666663
EXTRACT: pitchwheel channel=3 pitch=-5910 time=0
EXTRACT: pitchwheel channel=3 pitch=-5775 time=0.0037313416666666663
EXTRACT: pitchwheel channel=3 pitch=-5641 time=0.0018656708333333332
EXTRACT: pitchwheel channel=3 pitch=-5507 time=0.0018656708333333332
EXTRACT: pitchwheel channel=3 pitch=-5372 time=0.0018656708333333332
EXTRACT: pitchwheel channel=3 pitch=-5238 time=0.0037313416666666663
EXTRACT: pitchwheel channel=3 pitch=-5104 time=0.0018656708333333332
EXTRACT: pitchwheel channel=3 pitch=-4970 time=0
EXTRACT: pitchwheel channel=3 pitch=-4835 time=0.0018656708333333332
EXTRACT: pitchwheel channel=3 pitch=-4701 time=0.0037313416666666663
EXTRACT: pitchwheel channel=3 pitch=-4567 time=0
EXTRACT: pitchwheel channel=3 pitch=-4432 time=0.0018656708333333332
EXTRACT: pitchwheel channel=3 pitch=-4298 time=0.0018656708333333332
EXTRACT: pitchwheel channel=3 pitch=-4164 time=0.0037313416666666663
EXTRACT: pitchwheel channel=3 pitch=-4030 time=0
EXTRACT: pitchwheel channel=3 pitch=-3895 time=0.0018656708333333332
EXTRACT: pitchwheel channel=3 pitch=-3761 time=0.0018656708333333332
EXTRACT: pitchwheel channel=3 pitch=-3627 time=0.0018656708333333332
EXTRACT: pitchwheel channel=3 pitch=-3492 time=0.0018656708333333332
EXTRACT: pitchwheel channel=3 pitch=-3358 time=0
EXTRACT: pitchwheel channel=3 pitch=-3224 time=0.0018656708333333332
EXTRACT: pitchwheel channel=3 pitch=-3090 time=0.0018656708333333332
EXTRACT: pitchwheel channel=3 pitch=-2955 time=0.0018656708333333332
EXTRACT: pitchwheel channel=3 pitch=-2821 time=0.0018656708333333332
EXTRACT: pitchwheel channel=3 pitch=-2687 time=0
EXTRACT: pitchwheel channel=3 pitch=-2552 time=0.0018656708333333332
EXTRACT: pitchwheel channel=3 pitch=-2418 time=0.0018656708333333332
EXTRACT: pitchwheel channel=3 pitch=-2284 time=0.0018656708333333332
EXTRACT: pitchwheel channel=3 pitch=-2150 time=0.0018656708333333332
EXTRACT: pitchwheel channel=3 pitch=-2015 time=0
EXTRACT: pitchwheel channel=3 pitch=-1881 time=0.0018656708333333332
EXTRACT: pitchwheel channel=3 pitch=-1747 time=0.0018656708333333332
EXTRACT: pitchwheel channel=3 pitch=-1612 time=0.0018656708333333332
EXTRACT: pitchwheel channel=3 pitch=-1344 time=0.0018656708333333332
EXTRACT: pitchwheel channel=3 pitch=-1210 time=0
EXTRACT: pitchwheel channel=3 pitch=-1075 time=0.0018656708333333332
EXTRACT: pitchwheel channel=3 pitch=-941 time=0.0018656708333333332
EXTRACT: pitchwheel channel=3 pitch=-807 time=0.0018656708333333332
EXTRACT: pitchwheel channel=3 pitch=-672 time=0.0018656708333333332
EXTRACT: pitchwheel channel=3 pitch=-404 time=0
EXTRACT: pitchwheel channel=3 pitch=-270 time=0.0018656708333333332
EXTRACT: pitchwheel channel=3 pitch=-135 time=0.0018656708333333332
EXTRACT: pitchwheel channel=3 pitch=-1 time=0.0018656708333333332
EXTRACT: note_on channel=2 note=61 velocity=0 time=0.06529847916666666
EXTRACT: note_on channel=2 note=54 velocity=72 time=0.01865670833333333
EXTRACT: note_on channel=3 note=73 velocity=0 time=0.21641781666666665
EXTRACT: note_on channel=2 note=61 velocity=75 time=0
EXTRACT: note_on channel=3 note=71 velocity=82 time=0
EXTRACT: note_on channel=2 note=54 velocity=0 time=0.04104475833333333
EXTRACT: note_on channel=3 note=71 velocity=0 time=0.1753730583333333
EXTRACT: note_on channel=2 note=66 velocity=76 time=0
EXTRACT: note_on channel=3 note=73 velocity=92 time=0
EXTRACT: note_on channel=2 note=61 velocity=0 time=0.026119391666666665
EXTRACT: note_on channel=2 note=61 velocity=75 time=0.19776110833333332
EXTRACT: note_on channel=2 note=66 velocity=0 time=0.027985062499999998
EXTRACT: note_on channel=2 note=61 velocity=0 time=0.1847014125
EXTRACT: note_on channel=2 note=54 velocity=77 time=0.011194025
EXTRACT: pitchwheel channel=3 pitch=0 time=0.14179098333333331
EXTRACT: pitchwheel channel=3 pitch=-71 time=0.027985062499999998
EXTRACT: pitchwheel channel=3 pitch=-211 time=0.011194025
EXTRACT: pitchwheel channel=3 pitch=-351 time=0.011194025
EXTRACT: pitchwheel channel=3 pitch=-491 time=0.0055970125
EXTRACT: pitchwheel channel=3 pitch=-631 time=0.0037313416666666663
EXTRACT: pitchwheel channel=3 pitch=-771 time=0.007462683333333333
EXTRACT: pitchwheel channel=3 pitch=-911 time=0.0037313416666666663
EXTRACT: pitchwheel channel=3 pitch=-1051 time=0.007462683333333333
EXTRACT: note_on channel=2 note=61 velocity=73 time=0.0037313416666666663
EXTRACT: pitchwheel channel=3 pitch=-1191 time=0
EXTRACT: pitchwheel channel=3 pitch=-1331 time=0.0018656708333333332
EXTRACT: pitchwheel channel=3 pitch=-1471 time=0.007462683333333333
EXTRACT: pitchwheel channel=3 pitch=-1611 time=0.0037313416666666663
EXTRACT: pitchwheel channel=3 pitch=-1751 time=0.0037313416666666663
EXTRACT: pitchwheel channel=3 pitch=-1891 time=0.0037313416666666663
EXTRACT: pitchwheel channel=3 pitch=-2031 time=0.0037313416666666663
EXTRACT: pitchwheel channel=3 pitch=-2171 time=0.0037313416666666663
EXTRACT: pitchwheel channel=3 pitch=-2311 time=0.0037313416666666663
EXTRACT: pitchwheel channel=3 pitch=-2591 time=0.0018656708333333332
EXTRACT: pitchwheel channel=3 pitch=-2731 time=0.0037313416666666663
EXTRACT: note_on channel=2 note=54 velocity=0 time=0.0037313416666666663
EXTRACT: pitchwheel channel=3 pitch=-2872 time=0
EXTRACT: pitchwheel channel=3 pitch=-3012 time=0.0037313416666666663
EXTRACT: pitchwheel channel=3 pitch=-3152 time=0.0037313416666666663
EXTRACT: pitchwheel channel=3 pitch=-3432 time=0.0037313416666666663
EXTRACT: pitchwheel channel=3 pitch=-3572 time=0.0037313416666666663
EXTRACT: pitchwheel channel=3 pitch=-3852 time=0.0037313416666666663
EXTRACT: pitchwheel channel=3 pitch=-3992 time=0.0037313416666666663
EXTRACT: pitchwheel channel=3 pitch=-4132 time=0.0018656708333333332
EXTRACT: pitchwheel channel=3 pitch=-4412 time=0.0037313416666666663
EXTRACT: pitchwheel channel=3 pitch=-4552 time=0.0037313416666666663
EXTRACT: pitchwheel channel=3 pitch=-4832 time=0.0037313416666666663
EXTRACT: pitchwheel channel=3 pitch=-5112 time=0.0037313416666666663
EXTRACT: pitchwheel channel=3 pitch=-5252 time=0.0037313416666666663
EXTRACT: pitchwheel channel=3 pitch=-5532 time=0.0037313416666666663
EXTRACT: pitchwheel channel=3 pitch=-5812 time=0.0037313416666666663
EXTRACT: pitchwheel channel=3 pitch=-5952 time=0.0037313416666666663
EXTRACT: pitchwheel channel=3 pitch=-6232 time=0.0018656708333333332
EXTRACT: pitchwheel channel=3 pitch=-6512 time=0.0037313416666666663
EXTRACT: pitchwheel channel=3 pitch=-6792 time=0.0037313416666666663
EXTRACT: pitchwheel channel=3 pitch=-7072 time=0.0037313416666666663
EXTRACT: pitchwheel channel=3 pitch=-7352 time=0.0037313416666666663
EXTRACT: pitchwheel channel=3 pitch=-7492 time=0.0037313416666666663
EXTRACT: pitchwheel channel=3 pitch=-7772 time=0.0037313416666666663
EXTRACT: pitchwheel channel=3 pitch=-8052 time=0.0037313416666666663
EXTRACT: note_on channel=2 note=61 velocity=0 time=0.08582085833333332
EXTRACT: note_on channel=3 note=73 velocity=0 time=0.007462683333333333
EXTRACT: note_on channel=2 note=66 velocity=77 time=0.007462683333333333
EXTRACT: pitchwheel channel=3 pitch=0 time=0.12686561666666665
EXTRACT: note_on channel=2 note=61 velocity=76 time=0.09701488333333333
EXTRACT: note_on channel=2 note=66 velocity=0 time=0.016791037499999998
EXTRACT: note_on channel=2 note=61 velocity=0 time=0.15671634999999998
EXTRACT: note_on channel=2 note=54 velocity=77 time=0
EXTRACT: note_on channel=3 note=69 velocity=90 time=0
EXTRACT: note_on channel=2 note=61 velocity=74 time=0.22388049999999998
EXTRACT: note_on channel=2 note=30 velocity=0 time=0.1529850083333333
EXTRACT: note_on channel=2 note=61 velocity=0 time=0.0018656708333333332
EXTRACT: note_on channel=3 note=69 velocity=0 time=0.014925366666666665
EXTRACT: note_on channel=2 note=42 velocity=0 time=0.0037313416666666663
EXTRACT: note_on channel=2 note=66 velocity=78 time=0
EXTRACT: note_on channel=3 note=69 velocity=87 time=0
EXTRACT: note_on channel=2 note=54 velocity=0 time=0.08768652916666665
EXTRACT: note_on channel=3 note=69 velocity=0 time=0.0951492125
EXTRACT: note_on channel=2 note=61 velocity=74 time=0.04104475833333333
EXTRACT: note_on channel=3 note=69 velocity=82 time=0
EXTRACT: note_on channel=2 note=66 velocity=0 time=0.013059695833333333
EXTRACT: note_on channel=3 note=69 velocity=0 time=0.18283574166666666
EXTRACT: note_on channel=2 note=61 velocity=0 time=0.016791037499999998
EXTRACT: pitchwheel channel=3 pitch=-3992 time=0.0018656708333333332
EXTRACT: note_on channel=2 note=26 velocity=79 time=0
EXTRACT: note_on channel=2 note=38 velocity=79 time=0
EXTRACT: note_on channel=2 note=54 velocity=79 time=0
EXTRACT: note_on channel=3 note=74 velocity=94 time=0
EXTRACT: control_change channel=2 control=64 value=0 time=0.033582074999999996
EXTRACT: pitchwheel channel=3 pitch=-3852 time=0.05783579583333333
EXTRACT: pitchwheel channel=3 pitch=-3852 time=0.0018656708333333332
EXTRACT: pitchwheel channel=3 pitch=-3852 time=0.0018656708333333332
EXTRACT: pitchwheel channel=3 pitch=-3852 time=0.0037313416666666663
EXTRACT: pitchwheel channel=3 pitch=-3712 time=0.0018656708333333332
EXTRACT: pitchwheel channel=3 pitch=-3572 time=0.0018656708333333332
EXTRACT: pitchwheel channel=3 pitch=-3572 time=0.0018656708333333332
EXTRACT: pitchwheel channel=3 pitch=-3432 time=0.0037313416666666663
EXTRACT: pitchwheel channel=3 pitch=-3292 time=0.0018656708333333332
EXTRACT: pitchwheel channel=3 pitch=-3292 time=0.0018656708333333332
EXTRACT: pitchwheel channel=3 pitch=-3152 time=0.0037313416666666663
EXTRACT: pitchwheel channel=3 pitch=-3012 time=0.0037313416666666663
EXTRACT: pitchwheel channel=3 pitch=-2872 time=0.0055970125
EXTRACT: pitchwheel channel=3 pitch=-2872 time=0.0055970125
EXTRACT: pitchwheel channel=3 pitch=-2731 time=0.0018656708333333332
EXTRACT: pitchwheel channel=3 pitch=-2591 time=0.0018656708333333332
EXTRACT: pitchwheel channel=3 pitch=-2451 time=0.0055970125
EXTRACT: pitchwheel channel=3 pitch=-2451 time=0.0018656708333333332
EXTRACT: pitchwheel channel=3 pitch=-2451 time=0.0018656708333333332
EXTRACT: pitchwheel channel=3 pitch=-2451 time=0.0037313416666666663
EXTRACT: pitchwheel channel=3 pitch=-2311 time=0.0018656708333333332
EXTRACT: pitchwheel channel=3 pitch=-2171 time=0.0018656708333333332
EXTRACT: pitchwheel channel=3 pitch=-2031 time=0.0037313416666666663
EXTRACT: pitchwheel channel=3 pitch=-2031 time=0.0018656708333333332
EXTRACT: pitchwheel channel=3 pitch=-1891 time=0.0018656708333333332
EXTRACT: pitchwheel channel=3 pitch=-1891 time=0.0037313416666666663
EXTRACT: pitchwheel channel=3 pitch=-1891 time=0.0018656708333333332
EXTRACT: pitchwheel channel=3 pitch=-1751 time=0.0018656708333333332
EXTRACT: pitchwheel channel=3 pitch=-1751 time=0.0037313416666666663
EXTRACT: pitchwheel channel=3 pitch=-1751 time=0.0018656708333333332
EXTRACT: pitchwheel channel=3 pitch=-1611 time=0.0018656708333333332
EXTRACT: pitchwheel channel=3 pitch=-1611 time=0.0037313416666666663
EXTRACT: pitchwheel channel=3 pitch=-1611 time=0.0018656708333333332
EXTRACT: pitchwheel channel=3 pitch=-1471 time=0.0018656708333333332
EXTRACT: pitchwheel channel=3 pitch=-1331 time=0.0018656708333333332
EXTRACT: pitchwheel channel=3 pitch=-1191 time=0.0037313416666666663
EXTRACT: pitchwheel channel=3 pitch=-1191 time=0.0018656708333333332
EXTRACT: pitchwheel channel=3 pitch=-1051 time=0.0018656708333333332
EXTRACT: pitchwheel channel=3 pitch=-1051 time=0.0037313416666666663
EXTRACT: pitchwheel channel=3 pitch=-1051 time=0.0018656708333333332
EXTRACT: pitchwheel channel=3 pitch=-911 time=0.0018656708333333332
EXTRACT: pitchwheel channel=3 pitch=-911 time=0.0037313416666666663
EXTRACT: pitchwheel channel=3 pitch=-911 time=0.0037313416666666663
EXTRACT: pitchwheel channel=3 pitch=-771 time=0.0037313416666666663
EXTRACT: pitchwheel channel=3 pitch=-631 time=0.0018656708333333332
EXTRACT: pitchwheel channel=3 pitch=-491 time=0.0018656708333333332
EXTRACT: pitchwheel channel=3 pitch=-351 time=0.0037313416666666663
EXTRACT: pitchwheel channel=3 pitch=-351 time=0.0018656708333333332
EXTRACT: pitchwheel channel=3 pitch=-351 time=0.0018656708333333332
EXTRACT: pitchwheel channel=3 pitch=-351 time=0.0018656708333333332
EXTRACT: note_on channel=2 note=57 velocity=74 time=0.0018656708333333332
EXTRACT: pitchwheel channel=3 pitch=-351 time=0.0018656708333333332
EXTRACT: pitchwheel channel=3 pitch=-211 time=0.0018656708333333332
EXTRACT: pitchwheel channel=3 pitch=-211 time=0.0018656708333333332
EXTRACT: pitchwheel channel=3 pitch=-71 time=0.0037313416666666663
EXTRACT: pitchwheel channel=3 pitch=-71 time=0.0018656708333333332
EXTRACT: pitchwheel channel=3 pitch=-71 time=0.0018656708333333332
EXTRACT: pitchwheel channel=3 pitch=0 time=0.0037313416666666663
EXTRACT: pitchwheel channel=3 pitch=-211 time=0.0018656708333333332
EXTRACT: pitchwheel channel=3 pitch=0 time=0.0018656708333333332
EXTRACT: control_change channel=2 control=64 value=127 time=0.07835817499999999
EXTRACT: note_on channel=2 note=66 velocity=77 time=0.12499994583333332
EXTRACT: note_on channel=2 note=57 velocity=0 time=0.04664177083333333
EXTRACT: note_on channel=2 note=54 velocity=0 time=0.17723872916666664
EXTRACT: note_on channel=2 note=57 velocity=77 time=0
EXTRACT: note_on channel=2 note=66 velocity=0 time=0.011194025
EXTRACT: note_on channel=3 note=74 velocity=0 time=0.20522379166666666
EXTRACT: pitchwheel channel=3 pitch=349 time=0.0055970125
EXTRACT: note_on channel=2 note=54 velocity=78 time=0
EXTRACT: note_on channel=3 note=71 velocity=93 time=0
EXTRACT: pitchwheel channel=3 pitch=489 time=0
EXTRACT: note_on channel=2 note=57 velocity=0 time=0.0055970125
EXTRACT: pitchwheel channel=3 pitch=629 time=0.009328354166666665
EXTRACT: pitchwheel channel=3 pitch=769 time=0.007462683333333333
EXTRACT: pitchwheel channel=3 pitch=909 time=0.007462683333333333
EXTRACT: pitchwheel channel=3 pitch=1049 time=0.0018656708333333332
EXTRACT: pitchwheel channel=3 pitch=1189 time=0.0055970125
EXTRACT: pitchwheel channel=3 pitch=1329 time=0.0037313416666666663
EXTRACT: pitchwheel channel=3 pitch=1469 time=0.0037313416666666663
EXTRACT: pitchwheel channel=3 pitch=1609 time=0.0018656708333333332
EXTRACT: pitchwheel channel=3 pitch=1749 time=0.0018656708333333332
EXTRACT: pitchwheel channel=3 pitch=1889 time=0.0055970125
EXTRACT: pitchwheel channel=3 pitch=2029 time=0.0018656708333333332
EXTRACT: pitchwheel channel=3 pitch=2169 time=0.0037313416666666663
EXTRACT: pitchwheel channel=3 pitch=2309 time=0.0018656708333333332
EXTRACT: pitchwheel channel=3 pitch=2589 time=0.0018656708333333332
EXTRACT: pitchwheel channel=3 pitch=2730 time=0.0037313416666666663
EXTRACT: pitchwheel channel=3 pitch=2870 time=0.0018656708333333332
EXTRACT: pitchwheel channel=3 pitch=3010 time=0.0018656708333333332
EXTRACT: pitchwheel channel=3 pitch=3150 time=0.0037313416666666663
EXTRACT: pitchwheel channel=3 pitch=3430 time=0.0018656708333333332
EXTRACT: pitchwheel channel=3 pitch=3570 time=0.0018656708333333332
EXTRACT: pitchwheel channel=3 pitch=3710 time=0.0018656708333333332
EXTRACT: pitchwheel channel=3 pitch=3990 time=0.0037313416666666663
EXTRACT: pitchwheel channel=3 pitch=4130 time=0.0018656708333333332
EXTRACT: pitchwheel channel=3 pitch=4410 time=0.0018656708333333332
EXTRACT: pitchwheel channel=3 pitch=4550 time=0.0037313416666666663
EXTRACT: pitchwheel channel=3 pitch=4830 time=0.0018656708333333332
EXTRACT: pitchwheel channel=3 pitch=5110 time=0.0018656708333333332
EXTRACT: pitchwheel channel=3 pitch=5250 time=0.0037313416666666663
EXTRACT: pitchwheel channel=3 pitch=5530 time=0.0018656708333333332
EXTRACT: pitchwheel channel=3 pitch=5810 time=0.0018656708333333332
EXTRACT: pitchwheel channel=3 pitch=5950 time=0.0037313416666666663
EXTRACT: pitchwheel channel=3 pitch=6230 time=0.0018656708333333332
EXTRACT: pitchwheel channel=3 pitch=6510 time=0.0018656708333333332
EXTRACT: pitchwheel channel=3 pitch=6790 time=0.0037313416666666663
EXTRACT: pitchwheel channel=3 pitch=7070 time=0.0018656708333333332
EXTRACT: pitchwheel channel=3 pitch=7350 time=0.0018656708333333332
EXTRACT: pitchwheel channel=3 pitch=7630 time=0.0018656708333333332
EXTRACT: pitchwheel channel=3 pitch=7910 time=0.0037313416666666663
EXTRACT: pitchwheel channel=3 pitch=8191 time=0.0018656708333333332
EXTRACT: note_on channel=2 note=57 velocity=77 time=0.09888055416666666
EXTRACT: note_on channel=2 note=54 velocity=0 time=0.22014915833333332
EXTRACT: note_on channel=2 note=66 velocity=77 time=0.0037313416666666663
EXTRACT: note_on channel=2 note=57 velocity=0 time=0.01865670833333333
EXTRACT: pitchwheel channel=3 pitch=7910 time=0.09888055416666666
EXTRACT: pitchwheel channel=3 pitch=7770 time=0.024253720833333332
EXTRACT: pitchwheel channel=3 pitch=7630 time=0.011194025
EXTRACT: pitchwheel channel=3 pitch=7490 time=0.007462683333333333
EXTRACT: pitchwheel channel=3 pitch=7350 time=0.0037313416666666663
EXTRACT: pitchwheel channel=3 pitch=7210 time=0.0055970125
EXTRACT: pitchwheel channel=3 pitch=7070 time=0.0037313416666666663
EXTRACT: pitchwheel channel=3 pitch=6930 time=0.0055970125
EXTRACT: pitchwheel channel=3 pitch=6790 time=0.0055970125
EXTRACT: pitchwheel channel=3 pitch=6650 time=0.0037313416666666663
EXTRACT: pitchwheel channel=3 pitch=6510 time=0.0037313416666666663
EXTRACT: pitchwheel channel=3 pitch=6370 time=0.0037313416666666663
EXTRACT: pitchwheel channel=3 pitch=6230 time=0.0037313416666666663
EXTRACT: pitchwheel channel=3 pitch=6090 time=0.0018656708333333332
EXTRACT: pitchwheel channel=3 pitch=5950 time=0.0018656708333333332
EXTRACT: pitchwheel channel=3 pitch=5810 time=0.0055970125
EXTRACT: pitchwheel channel=3 pitch=5670 time=0.0018656708333333332
EXTRACT: pitchwheel channel=3 pitch=5530 time=0.0018656708333333332
EXTRACT: pitchwheel channel=3 pitch=5390 time=0.0037313416666666663
EXTRACT: pitchwheel channel=3 pitch=5250 time=0.0018656708333333332
EXTRACT: pitchwheel channel=3 pitch=5110 time=0.0018656708333333332
EXTRACT: note_on channel=2 note=57 velocity=80 time=0.0037313416666666663
EXTRACT: pitchwheel channel=3 pitch=4970 time=0
EXTRACT: pitchwheel channel=3 pitch=0 time=0
EXTRACT: pitchwheel channel=3 pitch=4830 time=0.0018656708333333332
EXTRACT: pitchwheel channel=3 pitch=4690 time=0.0018656708333333332
EXTRACT: pitchwheel channel=3 pitch=4550 time=0.0037313416666666663
EXTRACT: pitchwheel channel=3 pitch=4410 time=0.0018656708333333332
EXTRACT: pitchwheel channel=3 pitch=4270 time=0.0018656708333333332
EXTRACT: pitchwheel channel=3 pitch=4130 time=0.0018656708333333332
EXTRACT: note_on channel=2 note=66 velocity=0 time=0.0037313416666666663
EXTRACT: pitchwheel channel=3 pitch=3990 time=0
EXTRACT: pitchwheel channel=3 pitch=3850 time=0.0018656708333333332
EXTRACT: pitchwheel channel=3 pitch=3710 time=0.0018656708333333332
EXTRACT: pitchwheel channel=3 pitch=3430 time=0.0037313416666666663
EXTRACT: pitchwheel channel=3 pitch=3290 time=0.0018656708333333332
EXTRACT: pitchwheel channel=3 pitch=3150 time=0.0018656708333333332
EXTRACT: pitchwheel channel=3 pitch=3010 time=0.0037313416666666663
EXTRACT: pitchwheel channel=3 pitch=2730 time=0.0018656708333333332
EXTRACT: pitchwheel channel=3 pitch=2589 time=0.0018656708333333332
EXTRACT: pitchwheel channel=3 pitch=2449 time=0.0037313416666666663
EXTRACT: pitchwheel channel=3 pitch=2169 time=0.0018656708333333332
EXTRACT: pitchwheel channel=3 pitch=2029 time=0.0018656708333333332
EXTRACT: pitchwheel channel=3 pitch=1889 time=0.0037313416666666663
EXTRACT: pitchwheel channel=3 pitch=1609 time=0.0018656708333333332
EXTRACT: pitchwheel channel=3 pitch=1469 time=0.0018656708333333332
EXTRACT: pitchwheel channel=3 pitch=1189 time=0.0018656708333333332
EXTRACT: pitchwheel channel=3 pitch=1049 time=0.0037313416666666663
EXTRACT: pitchwheel channel=3 pitch=769 time=0.0018656708333333332
EXTRACT: pitchwheel channel=3 pitch=629 time=0.0018656708333333332
EXTRACT: pitchwheel channel=3 pitch=0 time=0.0037313416666666663
EXTRACT: note_on channel=2 note=57 velocity=0 time=0.14179098333333331
EXTRACT: note_on channel=3 note=71 velocity=0 time=0.011194025
EXTRACT: note_on channel=2 note=54 velocity=78 time=0
EXTRACT: note_on channel=3 note=69 velocity=91 time=0
EXTRACT: note_on channel=2 note=57 velocity=77 time=0.22388049999999998
EXTRACT: note_on channel=2 note=54 velocity=0 time=0.027985062499999998
EXTRACT: note_on channel=2 note=57 velocity=0 time=0.17723872916666664
EXTRACT: note_on channel=2 note=66 velocity=77 time=0.01865670833333333
EXTRACT: note_on channel=2 note=57 velocity=81 time=0.22388049999999998
EXTRACT: note_on channel=2 note=66 velocity=0 time=0.016791037499999998
EXTRACT: note_on channel=2 note=57 velocity=0 time=0.2070894625
EXTRACT: note_on channel=2 note=54 velocity=78 time=0
EXTRACT: note_on channel=2 note=57 velocity=81 time=0.22388049999999998
EXTRACT: note_on channel=2 note=54 velocity=0 time=0.0447761
EXTRACT: note_on channel=2 note=57 velocity=0 time=0.1529850083333333
EXTRACT: note_on channel=2 note=66 velocity=76 time=0.026119391666666665
EXTRACT: note_on channel=3 note=69 velocity=0 time=0.18843275416666666
EXTRACT: note_on channel=2 note=66 velocity=0 time=0.027985062499999998
EXTRACT: note_on channel=2 note=57 velocity=76 time=0
EXTRACT: note_on channel=3 note=69 velocity=88 time=0
EXTRACT: note_on channel=2 note=38 velocity=0 time=0.0503731125
EXTRACT: note_on channel=2 note=26 velocity=0 time=0.009328354166666665
EXTRACT: note_on channel=2 note=57 velocity=0 time=0.0503731125
EXTRACT: control_change channel=2 control=64 value=0 time=0.09701488333333333
EXTRACT: note_on channel=3 note=69 velocity=0 time=0.009328354166666665
EXTRACT: note_on channel=2 note=28 velocity=79 time=0
EXTRACT: note_on channel=2 note=40 velocity=79 time=0
EXTRACT: note_on channel=2 note=54 velocity=79 time=0
EXTRACT: note_on channel=3 note=71 velocity=90 time=0
EXTRACT: control_change channel=2 control=64 value=0 time=0.033582074999999996
EXTRACT: note_on channel=3 note=71 velocity=0 time=0.18283574166666666
EXTRACT: note_on channel=2 note=56 velocity=74 time=0
EXTRACT: note_on channel=3 note=73 velocity=84 time=0
EXTRACT: control_change channel=2 control=64 value=127 time=0.09888055416666666
EXTRACT: note_on channel=3 note=73 velocity=0 time=0.08395518749999999
EXTRACT: note_on channel=2 note=64 velocity=77 time=0
EXTRACT: note_on channel=3 note=73 velocity=87 time=0
EXTRACT: note_on channel=2 note=56 velocity=0 time=0.04664177083333333
EXTRACT: note_on channel=3 note=73 velocity=0 time=0.13992531249999998
EXTRACT: note_on channel=2 note=54 velocity=0 time=0.03731341666666666
EXTRACT: note_on channel=2 note=56 velocity=77 time=0
EXTRACT: note_on channel=3 note=73 velocity=94 time=0
EXTRACT: note_on channel=2 note=64 velocity=0 time=0.011194025
EXTRACT: note_on channel=2 note=54 velocity=78 time=0.21268647499999999
EXTRACT: note_on channel=2 note=56 velocity=0 time=0.0055970125
EXTRACT: note_on channel=3 note=73 velocity=0 time=0.21082080416666665
EXTRACT: note_on channel=2 note=56 velocity=77 time=0
EXTRACT: note_on channel=3 note=71 velocity=87 time=0
EXTRACT: note_on channel=3 note=71 velocity=0 time=0.18656708333333333
EXTRACT: note_on channel=2 note=54 velocity=0 time=0.033582074999999996
EXTRACT: note_on channel=2 note=64 velocity=77 time=0
EXTRACT: note_on channel=3 note=71 velocity=91 time=0
EXTRACT: note_on channel=2 note=56 velocity=0 time=0.01865670833333333
EXTRACT: note_on channel=3 note=71 velocity=0 time=0.19776110833333332
EXTRACT: note_on channel=2 note=56 velocity=80 time=0
EXTRACT: note_on channel=3 note=69 velocity=86 time=0
EXTRACT: note_on channel=2 note=64 velocity=0 time=0.016791037499999998
EXTRACT: note_on channel=2 note=56 velocity=0 time=0.18843275416666666
EXTRACT: note_on channel=3 note=69 velocity=0 time=0.011194025
EXTRACT: note_on channel=2 note=40 velocity=0 time=0
EXTRACT: note_on channel=2 note=28 velocity=0 time=0
EXTRACT: note_on channel=2 note=30 velocity=79 time=0
EXTRACT: note_on channel=2 note=42 velocity=79 time=0
EXTRACT: note_on channel=2 note=54 velocity=78 time=0
EXTRACT: note_on channel=3 note=71 velocity=93 time=0
EXTRACT: control_change channel=2 control=64 value=0 time=0.14552232499999998
EXTRACT: note_on channel=2 note=57 velocity=77 time=0.07835817499999999
EXTRACT: control_change channel=2 control=64 value=127 time=0.01865670833333333
EXTRACT: note_on channel=2 note=54 velocity=0 time=0.009328354166666665
EXTRACT: note_on channel=3 note=71 velocity=0 time=0.15111933749999998
EXTRACT: note_on channel=2 note=57 velocity=0 time=0.026119391666666665
EXTRACT: note_on channel=2 note=64 velocity=77 time=0
EXTRACT: note_on channel=3 note=71 velocity=91 time=0
EXTRACT: note_on channel=3 note=71 velocity=0 time=0.21641781666666665
EXTRACT: note_on channel=2 note=57 velocity=81 time=0
EXTRACT: note_on channel=3 note=69 velocity=86 time=0
EXTRACT: note_on channel=2 note=64 velocity=0 time=0.016791037499999998
EXTRACT: note_on channel=3 note=69 velocity=0 time=0.16791037499999997
EXTRACT: note_on channel=2 note=57 velocity=0 time=0.039179087499999994
EXTRACT: note_on channel=2 note=54 velocity=78 time=0
EXTRACT: note_on channel=3 note=71 velocity=91 time=0
EXTRACT: note_on channel=3 note=71 velocity=0 time=0.21641781666666665
EXTRACT: note_on channel=2 note=57 velocity=81 time=0
EXTRACT: note_on channel=3 note=69 velocity=86 time=0
EXTRACT: note_on channel=2 note=54 velocity=0 time=0.0447761
EXTRACT: note_on channel=3 note=69 velocity=0 time=0.14179098333333331
EXTRACT: note_on channel=2 note=57 velocity=0 time=0.011194025
EXTRACT: note_on channel=2 note=64 velocity=81 time=0
EXTRACT: note_on channel=3 note=69 velocity=88 time=0
EXTRACT: note_on channel=3 note=69 velocity=0 time=0.10820890833333333
EXTRACT: note_on channel=3 note=69 velocity=86 time=0
EXTRACT: note_on channel=2 note=64 velocity=0 time=0.07089549166666666
EXTRACT: note_on channel=2 note=57 velocity=81 time=0.007462683333333333
EXTRACT: note_on channel=2 note=42 velocity=0 time=0.0503731125
EXTRACT: note_on channel=2 note=30 velocity=0 time=0.009328354166666665
EXTRACT: note_on channel=2 note=57 velocity=0 time=0.0503731125
EXTRACT: control_change channel=2 control=64 value=0 time=0.09701488333333333
EXTRACT: note_on channel=2 note=38 velocity=79 time=0.016791037499999998
EXTRACT: note_on channel=2 note=50 velocity=79 time=0
EXTRACT: note_on channel=2 note=54 velocity=79 time=0
EXTRACT: control_change channel=2 control=64 value=0 time=0.033582074999999996
EXTRACT: note_on channel=2 note=57 velocity=74 time=0.190298425
EXTRACT: control_change channel=2 control=64 value=127 time=0.09888055416666666
EXTRACT: note_on channel=3 note=69 velocity=0 time=0.12313427499999999
EXTRACT: note_on channel=2 note=62 velocity=77 time=0
EXTRACT: note_on channel=3 note=71 velocity=91 time=0
EXTRACT: note_on channel=2 note=57 velocity=0 time=0.04664177083333333
EXTRACT: note_on channel=3 note=71 velocity=0 time=0.06343280833333333
EXTRACT: note_on channel=3 note=69 velocity=85 time=0
EXTRACT: note_on channel=2 note=54 velocity=0 time=0.11194024999999999
EXTRACT: note_on channel=2 note=57 velocity=77 time=0
EXTRACT: note_on channel=2 note=62 velocity=0 time=0.011194025
EXTRACT: note_on channel=3 note=69 velocity=0 time=0.20522379166666666
EXTRACT: note_on channel=2 note=54 velocity=78 time=0
EXTRACT: note_on channel=3 note=71 velocity=89 time=0
EXTRACT: note_on channel=2 note=57 velocity=0 time=0.0055970125
EXTRACT: note_on channel=3 note=71 velocity=0 time=0.21082080416666665
EXTRACT: note_on channel=2 note=57 velocity=77 time=0
EXTRACT: note_on channel=3 note=69 velocity=81 time=0
EXTRACT: note_on channel=3 note=69 velocity=0 time=0.21641781666666665
EXTRACT: note_on channel=2 note=54 velocity=0 time=0.0037313416666666663
EXTRACT: note_on channel=2 note=62 velocity=77 time=0
EXTRACT: note_on channel=3 note=71 velocity=89 time=0
EXTRACT: note_on channel=2 note=57 velocity=0 time=0.01865670833333333
EXTRACT: note_on channel=2 note=57 velocity=80 time=0.20522379166666666
EXTRACT: note_on channel=2 note=62 velocity=0 time=0.016791037499999998
EXTRACT: note_on channel=2 note=57 velocity=0 time=0.18843275416666666
EXTRACT: note_on channel=2 note=54 velocity=78 time=0.01865670833333333
EXTRACT: note_on channel=3 note=71 velocity=0 time=0.21641781666666665
EXTRACT: note_on channel=2 note=57 velocity=77 time=0
EXTRACT: note_on channel=3 note=69 velocity=88 time=0
EXTRACT: note_on channel=2 note=54 velocity=0 time=0.027985062499999998
EXTRACT: note_on channel=3 note=69 velocity=0 time=0.1585820208333333
EXTRACT: note_on channel=2 note=57 velocity=0 time=0.01865670833333333
EXTRACT: note_on channel=2 note=62 velocity=77 time=0
EXTRACT: note_on channel=3 note=71 velocity=91 time=0
EXTRACT: note_on channel=3 note=69 velocity=85 time=0
EXTRACT: note_on channel=3 note=71 velocity=0 time=0.0037313416666666663
EXTRACT: note_on channel=2 note=57 velocity=81 time=0.10820890833333333
EXTRACT: note_on channel=2 note=62 velocity=0 time=0.016791037499999998
EXTRACT: note_on channel=3 note=69 velocity=0 time=0.19962677916666666
EXTRACT: note_on channel=2 note=57 velocity=0 time=0.007462683333333333
EXTRACT: note_on channel=2 note=54 velocity=78 time=0
EXTRACT: note_on channel=3 note=71 velocity=89 time=0
EXTRACT: note_on channel=3 note=71 velocity=0 time=0.21641781666666665
EXTRACT: note_on channel=2 note=57 velocity=81 time=0
EXTRACT: note_on channel=3 note=69 velocity=81 time=0
EXTRACT: note_on channel=2 note=54 velocity=0 time=0.0447761
EXTRACT: note_on channel=3 note=69 velocity=0 time=0.13059695833333332
EXTRACT: note_on channel=2 note=57 velocity=0 time=0.02238805
EXTRACT: note_on channel=2 note=62 velocity=81 time=0
EXTRACT: note_on channel=3 note=69 velocity=89 time=0
EXTRACT: note_on channel=2 note=62 velocity=0 time=0.21641781666666665
EXTRACT: note_on channel=2 note=57 velocity=81 time=0.007462683333333333
EXTRACT: note_on channel=2 note=38 velocity=0 time=0.03544774583333333
EXTRACT: note_on channel=2 note=50 velocity=0 time=0.009328354166666665
EXTRACT: note_on channel=2 note=57 velocity=0 time=0.0503731125
EXTRACT: control_change channel=2 control=64 value=0 time=0.09701488333333333
EXTRACT: note_on channel=3 note=69 velocity=0 time=0.009328354166666665
EXTRACT: note_on channel=2 note=28 velocity=79 time=0
EXTRACT: note_on channel=2 note=40 velocity=79 time=0
EXTRACT: note_on channel=2 note=54 velocity=79 time=0
EXTRACT: note_on channel=3 note=73 velocity=92 time=0
EXTRACT: control_change channel=2 control=64 value=0 time=0.033582074999999996
EXTRACT: note_on channel=3 note=73 velocity=0 time=0.15111933749999998
EXTRACT: note_on channel=2 note=56 velocity=74 time=0
EXTRACT: note_on channel=3 note=73 velocity=85 time=0
EXTRACT: control_change channel=2 control=64 value=127 time=0.09888055416666666
EXTRACT: note_on channel=3 note=73 velocity=0 time=0.08582085833333332
EXTRACT: note_on channel=2 note=64 velocity=77 time=0
EXTRACT: note_on channel=3 note=73 velocity=85 time=0
EXTRACT: note_on channel=2 note=56 velocity=0 time=0.04664177083333333
EXTRACT: note_on channel=3 note=73 velocity=0 time=0.13805964166666665
EXTRACT: note_on channel=2 note=54 velocity=0 time=0.039179087499999994
EXTRACT: note_on channel=2 note=56 velocity=77 time=0
EXTRACT: note_on channel=3 note=73 velocity=85 time=0
EXTRACT: note_on channel=2 note=64 velocity=0 time=0.011194025
EXTRACT: note_on channel=3 note=73 velocity=0 time=0.17350738749999997
EXTRACT: note_on channel=2 note=54 velocity=78 time=0
EXTRACT: note_on channel=3 note=73 velocity=90 time=0
EXTRACT: note_on channel=2 note=56 velocity=0 time=0.0055970125
EXTRACT: note_on channel=2 note=56 velocity=77 time=0.21828348749999998
EXTRACT: note_on channel=3 note=73 velocity=0 time=0.21641781666666665
EXTRACT: note_on channel=2 note=54 velocity=0 time=0.0037313416666666663
EXTRACT: note_on channel=2 note=64 velocity=77 time=0.0037313416666666663
EXTRACT: note_on channel=2 note=56 velocity=0 time=0.01865670833333333
EXTRACT: note_on channel=2 note=56 velocity=80 time=0.026119391666666665
EXTRACT: note_on channel=2 note=64 velocity=0 time=0.016791037499999998
EXTRACT: note_on channel=2 note=56 velocity=0 time=0.18843275416666666
EXTRACT: note_on channel=2 note=40 velocity=0 time=0.011194025
EXTRACT: note_on channel=2 note=28 velocity=0 time=0
EXTRACT: note_on channel=2 note=30 velocity=79 time=0
EXTRACT: note_on channel=2 note=42 velocity=79 time=0
EXTRACT: note_on channel=2 note=54 velocity=78 time=0
EXTRACT: note_on channel=3 note=71 velocity=94 time=0
EXTRACT: control_change channel=2 control=64 value=0 time=0.18656708333333333
EXTRACT: note_on channel=3 note=71 velocity=0 time=0.02985073333333333
EXTRACT: note_on channel=2 note=57 velocity=77 time=0
EXTRACT: note_on channel=3 note=69 velocity=85 time=0
EXTRACT: note_on channel=2 note=54 velocity=0 time=0.027985062499999998
EXTRACT: control_change channel=2 control=64 value=127 time=0.04291042916666666
EXTRACT: note_on channel=2 note=57 velocity=0 time=0.13432829999999998
EXTRACT: note_on channel=3 note=69 velocity=0 time=0.011194025
EXTRACT: note_on channel=2 note=64 velocity=77 time=0
EXTRACT: note_on channel=3 note=71 velocity=93 time=0
EXTRACT: note_on channel=3 note=71 velocity=0 time=0.21641781666666665
EXTRACT: note_on channel=2 note=57 velocity=81 time=0
EXTRACT: note_on channel=3 note=69 velocity=87 time=0
EXTRACT: note_on channel=2 note=64 velocity=0 time=0.016791037499999998
EXTRACT: note_on channel=3 note=69 velocity=0 time=0.19962677916666666
EXTRACT: note_on channel=2 note=57 velocity=0 time=0.007462683333333333
EXTRACT: note_on channel=2 note=54 velocity=78 time=0
EXTRACT: note_on channel=3 note=71 velocity=93 time=0
EXTRACT: note_on channel=3 note=71 velocity=0 time=0.21641781666666665
EXTRACT: note_on channel=2 note=57 velocity=81 time=0
EXTRACT: note_on channel=3 note=69 velocity=87 time=0
EXTRACT: note_on channel=2 note=54 velocity=0 time=0.0447761
EXTRACT: note_on channel=2 note=57 velocity=0 time=0.1529850083333333
EXTRACT: note_on channel=3 note=69 velocity=0 time=0.01865670833333333
EXTRACT: note_on channel=2 note=64 velocity=81 time=0
EXTRACT: note_on channel=3 note=71 velocity=93 time=0
EXTRACT: note_on channel=3 note=71 velocity=0 time=0.21641781666666665
EXTRACT: note_on channel=2 note=64 velocity=0 time=0
EXTRACT: note_on channel=2 note=57 velocity=81 time=0
EXTRACT: note_on channel=3 note=73 velocity=87 time=0
EXTRACT: note_on channel=2 note=42 velocity=0 time=0.0503731125
EXTRACT: note_on channel=2 note=30 velocity=0 time=0.009328354166666665
EXTRACT: note_on channel=2 note=57 velocity=0 time=0.0503731125
EXTRACT: note_on channel=3 note=73 velocity=0 time=0.10634323749999999
EXTRACT: note_on channel=2 note=38 velocity=79 time=0
EXTRACT: note_on channel=2 note=50 velocity=79 time=0
EXTRACT: note_on channel=2 note=54 velocity=79 time=0
EXTRACT: control_change channel=2 control=64 value=0 time=0
EXTRACT: note_on channel=3 note=66 velocity=87 time=0
EXTRACT: note_on channel=2 note=57 velocity=76 time=0.22388049999999998
EXTRACT: control_change channel=2 control=64 value=127 time=0.09888055416666666
EXTRACT: note_on channel=2 note=62 velocity=80 time=0.12499994583333332
EXTRACT: note_on channel=2 note=57 velocity=0 time=0.04664177083333333
EXTRACT: note_on channel=2 note=54 velocity=0 time=0.17723872916666664
EXTRACT: note_on channel=2 note=57 velocity=81 time=0
EXTRACT: note_on channel=2 note=62 velocity=0 time=0.011194025
EXTRACT: note_on channel=3 note=66 velocity=0 time=0.20522379166666666
EXTRACT: note_on channel=2 note=54 velocity=75 time=0.007462683333333333
EXTRACT: note_on channel=2 note=57 velocity=0 time=0.0055970125
EXTRACT: note_on channel=2 note=57 velocity=75 time=0
EXTRACT: note_on channel=3 note=69 velocity=79 time=0
EXTRACT: note_on channel=3 note=69 velocity=0 time=0.21641781666666665
EXTRACT: note_on channel=2 note=54 velocity=0 time=0.0037313416666666663
EXTRACT: note_on channel=2 note=62 velocity=75 time=0
EXTRACT: note_on channel=3 note=71 velocity=86 time=0
EXTRACT: note_on channel=2 note=57 velocity=0 time=0.01865670833333333
EXTRACT: note_on channel=3 note=71 velocity=0 time=0.19776110833333332
EXTRACT: note_on channel=2 note=57 velocity=75 time=0
EXTRACT: note_on channel=3 note=69 velocity=82 time=0
EXTRACT: note_on channel=2 note=62 velocity=0 time=0.016791037499999998
EXTRACT: note_on channel=2 note=57 velocity=0 time=0.18843275416666666
EXTRACT: note_on channel=3 note=69 velocity=0 time=0.011194025
EXTRACT: note_on channel=2 note=54 velocity=78 time=0
EXTRACT: note_on channel=3 note=71 velocity=91 time=0
EXTRACT: note_on channel=2 note=56 velocity=79 time=0.22388049999999998
EXTRACT: note_on channel=2 note=54 velocity=0 time=0.027985062499999998
EXTRACT: note_on channel=2 note=56 velocity=0 time=0.17723872916666664
EXTRACT: note_on channel=2 note=64 velocity=82 time=0.01865670833333333
EXTRACT: note_on channel=2 note=56 velocity=82 time=0.22388049999999998
EXTRACT: note_on channel=2 note=64 velocity=0 time=0.016791037499999998
EXTRACT: note_on channel=3 note=71 velocity=0 time=0.1585820208333333
EXTRACT: note_on channel=2 note=56 velocity=0 time=0.048507441666666665
EXTRACT: note_on channel=2 note=54 velocity=82 time=0
EXTRACT: note_on channel=3 note=71 velocity=82 time=0
EXTRACT: pitchwheel channel=3 pitch=355 time=0.09328354166666666
EXTRACT: pitchwheel channel=3 pitch=498 time=0.0037313416666666663
EXTRACT: pitchwheel channel=3 pitch=640 time=0.01865670833333333
EXTRACT: pitchwheel channel=3 pitch=783 time=0.009328354166666665
EXTRACT: pitchwheel channel=3 pitch=925 time=0.007462683333333333
EXTRACT: pitchwheel channel=3 pitch=1067 time=0.0055970125
EXTRACT: pitchwheel channel=3 pitch=1210 time=0.0037313416666666663
EXTRACT: pitchwheel channel=3 pitch=1352 time=0.0055970125
EXTRACT: pitchwheel channel=3 pitch=1495 time=0.0037313416666666663
EXTRACT: pitchwheel channel=3 pitch=1637 time=0.0018656708333333332
EXTRACT: pitchwheel channel=3 pitch=1780 time=0.0037313416666666663
EXTRACT: pitchwheel channel=3 pitch=1922 time=0.0037313416666666663
EXTRACT: pitchwheel channel=3 pitch=2065 time=0.0018656708333333332
EXTRACT: pitchwheel channel=3 pitch=2207 time=0.0037313416666666663
EXTRACT: pitchwheel channel=3 pitch=2350 time=0.0037313416666666663
EXTRACT: pitchwheel channel=3 pitch=2492 time=0.0037313416666666663
EXTRACT: pitchwheel channel=3 pitch=2635 time=0.0018656708333333332
EXTRACT: pitchwheel channel=3 pitch=2777 time=0.0037313416666666663
EXTRACT: pitchwheel channel=3 pitch=2919 time=0.0037313416666666663
EXTRACT: pitchwheel channel=3 pitch=3204 time=0.0018656708333333332
EXTRACT: pitchwheel channel=3 pitch=3347 time=0.0037313416666666663
EXTRACT: pitchwheel channel=3 pitch=3489 time=0.0037313416666666663
EXTRACT: pitchwheel channel=3 pitch=3774 time=0.0018656708333333332
EXTRACT: pitchwheel channel=3 pitch=3917 time=0.0037313416666666663
EXTRACT: pitchwheel channel=3 pitch=4202 time=0.0037313416666666663
EXTRACT: pitchwheel channel=3 pitch=4344 time=0.0018656708333333332
EXTRACT: pitchwheel channel=3 pitch=4629 time=0.0037313416666666663
EXTRACT: pitchwheel channel=3 pitch=4914 time=0.0037313416666666663
EXTRACT: pitchwheel channel=3 pitch=5056 time=0.0018656708333333332
EXTRACT: pitchwheel channel=3 pitch=5341 time=0.0037313416666666663
EXTRACT: pitchwheel channel=3 pitch=5626 time=0.0037313416666666663
EXTRACT: pitchwheel channel=3 pitch=5911 time=0.0018656708333333332
EXTRACT: note_on channel=2 note=56 velocity=83 time=0.0018656708333333332
EXTRACT: pitchwheel channel=3 pitch=6196 time=0.0018656708333333332
EXTRACT: pitchwheel channel=3 pitch=6481 time=0.0037313416666666663
EXTRACT: pitchwheel channel=3 pitch=6766 time=0.0037313416666666663
EXTRACT: pitchwheel channel=3 pitch=7051 time=0.0018656708333333332
EXTRACT: pitchwheel channel=3 pitch=7336 time=0.0037313416666666663
EXTRACT: pitchwheel channel=3 pitch=7621 time=0.0037313416666666663
EXTRACT: pitchwheel channel=3 pitch=7906 time=0.0018656708333333332
EXTRACT: pitchwheel channel=3 pitch=8191 time=0.0037313416666666663
EXTRACT: note_on channel=2 note=54 velocity=0 time=0.020522379166666663
EXTRACT: note_on channel=2 note=56 velocity=0 time=0.1529850083333333
EXTRACT: note_on channel=2 note=64 velocity=83 time=0.026119391666666665
EXTRACT: note_on channel=2 note=64 velocity=0 time=0.21641781666666665
EXTRACT: note_on channel=2 note=56 velocity=83 time=0.007462683333333333
EXTRACT: note_on channel=2 note=56 velocity=0 time=0.11007457916666666
EXTRACT: control_change channel=2 control=64 value=0 time=0.09701488333333333
EXTRACT: note_on channel=2 note=54 velocity=86 time=0.016791037499999998
EXTRACT: control_change channel=2 control=64 value=0 time=0.033582074999999996
EXTRACT: note_on channel=2 note=57 velocity=88 time=0.190298425
EXTRACT: control_change channel=2 control=64 value=127 time=0.09888055416666666
EXTRACT: note_on channel=2 note=66 velocity=88 time=0.12499994583333332
EXTRACT: note_on channel=2 note=57 velocity=0 time=0.04664177083333333
EXTRACT: pitchwheel channel=3 pitch=8191 time=0.11194024999999999
EXTRACT: note_on channel=2 note=54 velocity=0 time=0.06529847916666666
EXTRACT: note_on channel=2 note=57 velocity=88 time=0
EXTRACT: pitchwheel channel=3 pitch=8048 time=0.0037313416666666663
EXTRACT: note_on channel=2 note=66 velocity=0 time=0.007462683333333333
EXTRACT: pitchwheel channel=3 pitch=7906 time=0.01865670833333333
EXTRACT: pitchwheel channel=3 pitch=7763 time=0.02238805
EXTRACT: pitchwheel channel=3 pitch=7621 time=0.01865670833333333
EXTRACT: pitchwheel channel=3 pitch=7478 time=0.01865670833333333
EXTRACT: pitchwheel channel=3 pitch=7336 time=0.013059695833333333
EXTRACT: pitchwheel channel=3 pitch=7193 time=0.013059695833333333
EXTRACT: pitchwheel channel=3 pitch=7051 time=0.009328354166666665
EXTRACT: pitchwheel channel=3 pitch=6908 time=0.014925366666666665
EXTRACT: pitchwheel channel=3 pitch=6766 time=0.007462683333333333
EXTRACT: pitchwheel channel=3 pitch=6623 time=0.014925366666666665
EXTRACT: pitchwheel channel=3 pitch=6481 time=0.009328354166666665
EXTRACT: pitchwheel channel=3 pitch=6339 time=0.007462683333333333
EXTRACT: pitchwheel channel=3 pitch=6196 time=0.009328354166666665
EXTRACT: pitchwheel channel=3 pitch=6054 time=0.009328354166666665
EXTRACT: pitchwheel channel=3 pitch=5911 time=0.009328354166666665
EXTRACT: pitchwheel channel=3 pitch=5769 time=0.009328354166666665
EXTRACT: pitchwheel channel=3 pitch=5626 time=0.0037313416666666663
EXTRACT: note_on channel=2 note=54 velocity=89 time=0.0037313416666666663
EXTRACT: note_on channel=2 note=57 velocity=0 time=0.0055970125
EXTRACT: pitchwheel channel=3 pitch=5484 time=0
EXTRACT: pitchwheel channel=3 pitch=5341 time=0.009328354166666665
EXTRACT: pitchwheel channel=3 pitch=5199 time=0.009328354166666665
EXTRACT: pitchwheel channel=3 pitch=5056 time=0.0037313416666666663
EXTRACT: pitchwheel channel=3 pitch=4914 time=0.009328354166666665
EXTRACT: pitchwheel channel=3 pitch=4771 time=0.0037313416666666663
EXTRACT: pitchwheel channel=3 pitch=4629 time=0.009328354166666665
EXTRACT: pitchwheel channel=3 pitch=4487 time=0.0055970125
EXTRACT: pitchwheel channel=3 pitch=4344 time=0.009328354166666665
EXTRACT: pitchwheel channel=3 pitch=4202 time=0.0037313416666666663
EXTRACT: pitchwheel channel=3 pitch=4059 time=0.0037313416666666663
EXTRACT: pitchwheel channel=3 pitch=3917 time=0.009328354166666665
EXTRACT: pitchwheel channel=3 pitch=3774 time=0.0055970125
EXTRACT: pitchwheel channel=3 pitch=3632 time=0.0037313416666666663
EXTRACT: pitchwheel channel=3 pitch=3489 time=0.009328354166666665
EXTRACT: pitchwheel channel=3 pitch=3347 time=0.0037313416666666663
EXTRACT: pitchwheel channel=3 pitch=3204 time=0.0055970125
EXTRACT: pitchwheel channel=3 pitch=3062 time=0.009328354166666665
EXTRACT: pitchwheel channel=3 pitch=2919 time=0.0037313416666666663
EXTRACT: pitchwheel channel=3 pitch=2777 time=0.0055970125
EXTRACT: pitchwheel channel=3 pitch=2635 time=0.0037313416666666663
EXTRACT: pitchwheel channel=3 pitch=2492 time=0.0037313416666666663
EXTRACT: pitchwheel channel=3 pitch=2350 time=0.009328354166666665
EXTRACT: pitchwheel channel=3 pitch=2207 time=0.0055970125
EXTRACT: pitchwheel channel=3 pitch=2065 time=0.0037313416666666663
EXTRACT: pitchwheel channel=3 pitch=1922 time=0.0055970125
EXTRACT: pitchwheel channel=3 pitch=1780 time=0.0037313416666666663
EXTRACT: pitchwheel channel=3 pitch=1637 time=0.0037313416666666663
EXTRACT: pitchwheel channel=3 pitch=1495 time=0.0055970125
EXTRACT: pitchwheel channel=3 pitch=1352 time=0.0037313416666666663
EXTRACT: pitchwheel channel=3 pitch=1210 time=0.0055970125
EXTRACT: pitchwheel channel=3 pitch=1067 time=0.0037313416666666663
EXTRACT: pitchwheel channel=3 pitch=925 time=0.0055970125
EXTRACT: pitchwheel channel=3 pitch=783 time=0.007462683333333333
EXTRACT: pitchwheel channel=3 pitch=640 time=0.0055970125
EXTRACT: pitchwheel channel=3 pitch=498 time=0.0037313416666666663
EXTRACT: pitchwheel channel=3 pitch=355 time=0.0055970125
EXTRACT: pitchwheel channel=3 pitch=213 time=0.0037313416666666663
EXTRACT: note_on channel=2 note=57 velocity=90 time=0.0055970125
EXTRACT: pitchwheel channel=3 pitch=0 time=0
EXTRACT: note_on channel=3 note=71 velocity=0 time=0.055970124999999996
EXTRACT: note_on channel=2 note=54 velocity=0 time=0.1641790333333333
EXTRACT: note_on channel=2 note=66 velocity=90 time=0.0037313416666666663
EXTRACT: note_on channel=2 note=57 velocity=0 time=0.01865670833333333
EXTRACT: note_on channel=2 note=57 velocity=90 time=0.20522379166666666
EXTRACT: note_on channel=2 note=66 velocity=0 time=0.016791037499999998
EXTRACT: note_on channel=2 note=57 velocity=0 time=0.18843275416666666
EXTRACT: note_on channel=2 note=54 velocity=90 time=0.01865670833333333
EXTRACT: note_on channel=2 note=59 velocity=90 time=0.22388049999999998
EXTRACT: note_on channel=2 note=68 velocity=90 time=0.22388049999999998
EXTRACT: note_on channel=2 note=59 velocity=0 time=0.014925366666666665
EXTRACT: note_on channel=2 note=59 velocity=86 time=0.20895513333333332
EXTRACT: note_on channel=2 note=54 velocity=0 time=0.0447761
EXTRACT: note_on channel=2 note=68 velocity=0 time=0.07276116249999999
EXTRACT: note_on channel=2 note=54 velocity=80 time=0.10634323749999999
EXTRACT: note_on channel=2 note=59 velocity=0 time=0.020522379166666663
EXTRACT: note_on channel=2 note=59 velocity=79 time=0.20335812083333332
EXTRACT: note_on channel=2 note=54 velocity=0 time=0.11567159166666666
EXTRACT: note_on channel=2 note=59 velocity=0 time=0.08022384583333332
EXTRACT: note_on channel=2 note=68 velocity=75 time=0.027985062499999998
EXTRACT: note_on channel=2 note=68 velocity=0 time=0.23880586666666664
EXTRACT: control_change channel=2 control=64 value=0 time=0.14552232499999998
EXTRACT: note_on channel=2 note=38 velocity=0 time=0.055970124999999996
EXTRACT: note_on channel=2 note=33 velocity=95 time=0.007462683333333333
EXTRACT: note_on channel=2 note=45 velocity=95 time=0
EXTRACT: note_on channel=2 note=57 velocity=95 time=0
EXTRACT: note_on channel=2 note=50 velocity=0 time=0.0018656708333333332
EXTRACT: note_on channel=2 note=61 velocity=89 time=0
EXTRACT: note_on channel=3 note=81 velocity=101 time=0
EXTRACT: control_change channel=2 control=64 value=127 time=0.12686561666666665
EXTRACT: note_on channel=3 note=81 velocity=0 time=0.05410445416666666
EXTRACT: note_on channel=2 note=69 velocity=93 time=0
EXTRACT: note_on channel=3 note=81 velocity=99 time=0
EXTRACT: note_on channel=2 note=61 velocity=0 time=0.03171640416666666
EXTRACT: note_on channel=2 note=57 velocity=0 time=0.09141787083333333
EXTRACT: note_on channel=3 note=81 velocity=0 time=0.061567137499999994
EXTRACT: note_on channel=2 note=61 velocity=93 time=0
EXTRACT: note_on channel=3 note=81 velocity=100 time=0
EXTRACT: note_on channel=2 note=69 velocity=0 time=0.020522379166666663
EXTRACT: note_on channel=2 note=61 velocity=0 time=0.18843275416666666
EXTRACT: note_on channel=2 note=57 velocity=91 time=0.014925366666666665
EXTRACT: note_on channel=3 note=81 velocity=0 time=0.18656708333333333
EXTRACT: pitchwheel channel=3 pitch=4513 time=0.020522379166666663
EXTRACT: note_on channel=2 note=61 velocity=92 time=0
EXTRACT: note_on channel=3 note=80 velocity=99 time=0
EXTRACT: pitchwheel channel=3 pitch=4513 time=0.10261189583333333
EXTRACT: pitchwheel channel=3 pitch=4513 time=0.0018656708333333332
EXTRACT: pitchwheel channel=3 pitch=4513 time=0.0037313416666666663
EXTRACT: pitchwheel channel=3 pitch=4513 time=0.0018656708333333332
EXTRACT: pitchwheel channel=3 pitch=4346 time=0.0037313416666666663
EXTRACT: pitchwheel channel=3 pitch=4178 time=0.0018656708333333332
EXTRACT: pitchwheel channel=3 pitch=4178 time=0.0055970125
EXTRACT: pitchwheel channel=3 pitch=4178 time=0.0055970125
EXTRACT: pitchwheel channel=3 pitch=4011 time=0.0037313416666666663
EXTRACT: pitchwheel channel=3 pitch=3844 time=0.0055970125
EXTRACT: pitchwheel channel=3 pitch=3844 time=0.0037313416666666663
EXTRACT: pitchwheel channel=3 pitch=3844 time=0.0018656708333333332
EXTRACT: pitchwheel channel=3 pitch=3844 time=0.0037313416666666663
EXTRACT: pitchwheel channel=3 pitch=3677 time=0.0018656708333333332
EXTRACT: pitchwheel channel=3 pitch=3510 time=0.0037313416666666663
EXTRACT: pitchwheel channel=3 pitch=3510 time=0.0018656708333333332
EXTRACT: pitchwheel channel=3 pitch=3342 time=0.0037313416666666663
EXTRACT: pitchwheel channel=3 pitch=3175 time=0.0018656708333333332
EXTRACT: pitchwheel channel=3 pitch=3008 time=0.0037313416666666663
EXTRACT: pitchwheel channel=3 pitch=3008 time=0.0018656708333333332
EXTRACT: pitchwheel channel=3 pitch=3008 time=0.0037313416666666663
EXTRACT: pitchwheel channel=3 pitch=2841 time=0.0037313416666666663
EXTRACT: pitchwheel channel=3 pitch=2674 time=0.0018656708333333332
EXTRACT: pitchwheel channel=3 pitch=2674 time=0.0037313416666666663
EXTRACT: pitchwheel channel=3 pitch=2507 time=0.0018656708333333332
EXTRACT: pitchwheel channel=3 pitch=2507 time=0.0037313416666666663
EXTRACT: pitchwheel channel=3 pitch=2339 time=0.0018656708333333332
EXTRACT: pitchwheel channel=3 pitch=2172 time=0.0037313416666666663
EXTRACT: pitchwheel channel=3 pitch=2005 time=0.0018656708333333332
EXTRACT: pitchwheel channel=3 pitch=2005 time=0.0037313416666666663
EXTRACT: pitchwheel channel=3 pitch=1838 time=0.0018656708333333332
EXTRACT: pitchwheel channel=3 pitch=1504 time=0.0037313416666666663
EXTRACT: pitchwheel channel=3 pitch=1504 time=0.0037313416666666663
EXTRACT: pitchwheel channel=3 pitch=1336 time=0.0018656708333333332
EXTRACT: pitchwheel channel=3 pitch=1169 time=0.0037313416666666663
EXTRACT: pitchwheel channel=3 pitch=1002 time=0.0018656708333333332
EXTRACT: pitchwheel channel=3 pitch=835 time=0.0037313416666666663
EXTRACT: pitchwheel channel=3 pitch=668 time=0.0018656708333333332
EXTRACT: note_on channel=2 note=61 velocity=0 time=0.0037313416666666663
EXTRACT: pitchwheel channel=3 pitch=501 time=0
EXTRACT: pitchwheel channel=3 pitch=501 time=0.0018656708333333332
EXTRACT: note_on channel=2 note=69 velocity=87 time=0.0018656708333333332
EXTRACT: pitchwheel channel=3 pitch=0 time=0.0018656708333333332
EXTRACT: pitchwheel channel=3 pitch=-1 time=0.0018656708333333332
EXTRACT: note_on channel=2 note=57 velocity=0 time=0.0037313416666666663
EXTRACT: pitchwheel channel=3 pitch=-168 time=0
EXTRACT: pitchwheel channel=3 pitch=0 time=0.0018656708333333332
EXTRACT: note_on channel=3 note=80 velocity=0 time=0.1641790333333333
EXTRACT: note_on channel=2 note=61 velocity=92 time=0
EXTRACT: note_on channel=3 note=80 velocity=101 time=0
EXTRACT: note_on channel=2 note=69 velocity=0 time=0.03171640416666666
EXTRACT: note_on channel=2 note=33 velocity=0 time=0.10634323749999999
EXTRACT: note_on channel=2 note=45 velocity=0 time=0.009328354166666665
EXTRACT: note_on channel=2 note=61 velocity=0 time=0.06343280833333333
EXTRACT: note_on channel=2 note=40 velocity=95 time=0.013059695833333333
EXTRACT: note_on channel=2 note=47 velocity=95 time=0
EXTRACT: note_on channel=2 note=56 velocity=93 time=0
EXTRACT: control_change channel=2 control=64 value=0 time=0.18656708333333333
EXTRACT: note_on channel=3 note=80 velocity=0 time=0.02985073333333333
EXTRACT: note_on channel=2 note=59 velocity=92 time=0.007462683333333333
EXTRACT: note_on channel=3 note=78 velocity=79 time=0
EXTRACT: control_change channel=2 control=64 value=127 time=0.09888055416666666
EXTRACT: note_on channel=2 note=59 velocity=0 time=0.10261189583333333
EXTRACT: note_on channel=3 note=78 velocity=0 time=0.013059695833333333
EXTRACT: note_on channel=2 note=68 velocity=90 time=0.009328354166666665
EXTRACT: note_on channel=2 note=56 velocity=0 time=0.09888055416666666
EXTRACT: note_on channel=2 note=59 velocity=92 time=0.12499994583333332
EXTRACT: note_on channel=2 note=68 velocity=0 time=0.01865670833333333
EXTRACT: note_on channel=2 note=59 velocity=0 time=0.18843275416666666
EXTRACT: note_on channel=2 note=56 velocity=91 time=0
EXTRACT: note_on channel=3 note=80 velocity=98 time=0
EXTRACT: note_on channel=3 note=80 velocity=0 time=0.190298425
EXTRACT: note_on channel=2 note=59 velocity=92 time=0
EXTRACT: note_on channel=3 note=80 velocity=93 time=0
EXTRACT: note_on channel=2 note=56 velocity=0 time=0.18097007083333333
EXTRACT: note_on channel=2 note=59 velocity=0 time=0.016791037499999998
EXTRACT: note_on channel=2 note=68 velocity=87 time=0.026119391666666665
EXTRACT: note_on channel=3 note=80 velocity=0 time=0.17350738749999997
EXTRACT: note_on channel=2 note=68 velocity=0 time=0.01865670833333333
EXTRACT: pitchwheel channel=3 pitch=-4180 time=0.02238805
EXTRACT: note_on channel=2 note=59 velocity=92 time=0
EXTRACT: note_on channel=3 note=81 velocity=99 time=0
EXTRACT: note_on channel=2 note=47 velocity=0 time=0.1473879958333333
EXTRACT: note_on channel=2 note=40 velocity=0 time=0
EXTRACT: note_on channel=2 note=59 velocity=0 time=0.0055970125
EXTRACT: pitchwheel channel=3 pitch=-4180 time=0.0037313416666666663
EXTRACT: pitchwheel channel=3 pitch=-4180 time=0.0018656708333333332
EXTRACT: pitchwheel channel=3 pitch=-4180 time=0.0018656708333333332
EXTRACT: pitchwheel channel=3 pitch=-4180 time=0.0018656708333333332
EXTRACT: pitchwheel channel=3 pitch=-4180 time=0.0037313416666666663
EXTRACT: pitchwheel channel=3 pitch=-4013 time=0.0018656708333333332
EXTRACT: pitchwheel channel=3 pitch=-3846 time=0.0037313416666666663
EXTRACT: pitchwheel channel=3 pitch=-3512 time=0.0037313416666666663
EXTRACT: pitchwheel channel=3 pitch=-3512 time=0.0037313416666666663
EXTRACT: pitchwheel channel=3 pitch=-3344 time=0.0018656708333333332
EXTRACT: pitchwheel channel=3 pitch=-3344 time=0.0037313416666666663
EXTRACT: pitchwheel channel=3 pitch=-3344 time=0.0018656708333333332
EXTRACT: pitchwheel channel=3 pitch=-3010 time=0.0018656708333333332
EXTRACT: pitchwheel channel=3 pitch=-3010 time=0.0018656708333333332
EXTRACT: pitchwheel channel=3 pitch=-3010 time=0.0018656708333333332
EXTRACT: pitchwheel channel=3 pitch=-3010 time=0.0018656708333333332
EXTRACT: pitchwheel channel=3 pitch=-2843 time=0.0018656708333333332
EXTRACT: pitchwheel channel=3 pitch=-2676 time=0.0018656708333333332
EXTRACT: pitchwheel channel=3 pitch=-2509 time=0.0037313416666666663
EXTRACT: pitchwheel channel=3 pitch=-2509 time=0.0018656708333333332
EXTRACT: pitchwheel channel=3 pitch=-2509 time=0.0018656708333333332
EXTRACT: pitchwheel channel=3 pitch=-2341 time=0.0018656708333333332
EXTRACT: pitchwheel channel=3 pitch=-2174 time=0.0018656708333333332
EXTRACT: pitchwheel channel=3 pitch=-2174 time=0.0018656708333333332
EXTRACT: pitchwheel channel=3 pitch=-2007 time=0.0018656708333333332
EXTRACT: pitchwheel channel=3 pitch=-1673 time=0.0018656708333333332
EXTRACT: pitchwheel channel=3 pitch=-1506 time=0.0018656708333333332
EXTRACT: pitchwheel channel=3 pitch=-1506 time=0.0018656708333333332
EXTRACT: pitchwheel channel=3 pitch=-1171 time=0.0018656708333333332
EXTRACT: pitchwheel channel=3 pitch=-1004 time=0.0018656708333333332
EXTRACT: note_on channel=2 note=30 velocity=94 time=0.0018656708333333332
EXTRACT: note_on channel=2 note=42 velocity=92 time=0
EXTRACT: note_on channel=2 note=57 velocity=92 time=0
EXTRACT: pitchwheel channel=3 pitch=-837 time=0
EXTRACT: pitchwheel channel=3 pitch=-503 time=0.0018656708333333332
EXTRACT: pitchwheel channel=3 pitch=-503 time=0.0018656708333333332
EXTRACT: pitchwheel channel=3 pitch=-168 time=0.0018656708333333332
EXTRACT: pitchwheel channel=3 pitch=0 time=0.0018656708333333332
EXTRACT: control_change channel=2 control=64 value=0 time=0.08022384583333332
EXTRACT: note_on channel=3 note=81 velocity=0 time=0.12873128749999999
EXTRACT: note_on channel=2 note=61 velocity=87 time=0
EXTRACT: note_on channel=3 note=78 velocity=99 time=0
EXTRACT: control_change channel=2 control=64 value=127 time=0.07462683333333332
EXTRACT: note_on channel=2 note=61 velocity=0 time=0.14925366666666665
EXTRACT: note_on channel=2 note=69 velocity=91 time=0
EXTRACT: note_on channel=2 note=61 velocity=87 time=0.22388049999999998
EXTRACT: note_on channel=2 note=69 velocity=0 time=0.011194025
EXTRACT: note_on channel=2 note=57 velocity=0 time=0
EXTRACT: note_on channel=2 note=61 velocity=0 time=0.19962677916666666
EXTRACT: note_on channel=2 note=57 velocity=94 time=0.013059695833333333
EXTRACT: note_on channel=2 note=61 velocity=91 time=0.22388049999999998
EXTRACT: note_on channel=2 note=61 velocity=0 time=0.19216409583333333
EXTRACT: note_on channel=2 note=69 velocity=91 time=0.03171640416666666
EXTRACT: note_on channel=2 note=57 velocity=0 time=0.04664177083333333
EXTRACT: note_on channel=2 note=61 velocity=91 time=0.17723872916666664
EXTRACT: note_on channel=2 note=69 velocity=0 time=0.0037313416666666663
EXTRACT: pitchwheel channel=3 pitch=-168 time=0.14179098333333331
EXTRACT: pitchwheel channel=3 pitch=-168 time=0.0018656708333333332
EXTRACT: pitchwheel channel=3 pitch=-335 time=0.0037313416666666663
EXTRACT: pitchwheel channel=3 pitch=-335 time=0.0037313416666666663
EXTRACT: pitchwheel channel=3 pitch=-335 time=0.0037313416666666663
EXTRACT: pitchwheel channel=3 pitch=-670 time=0.009328354166666665
EXTRACT: pitchwheel channel=3 pitch=-670 time=0.0018656708333333332
EXTRACT: pitchwheel channel=3 pitch=-837 time=0.0037313416666666663
EXTRACT: pitchwheel channel=3 pitch=-1171 time=0.0037313416666666663
EXTRACT: pitchwheel channel=3 pitch=-1171 time=0.0037313416666666663
EXTRACT: pitchwheel channel=3 pitch=-1171 time=0.0018656708333333332
EXTRACT: pitchwheel channel=3 pitch=-1171 time=0
EXTRACT: pitchwheel channel=3 pitch=-1171 time=0.0018656708333333332
EXTRACT: pitchwheel channel=3 pitch=-1338 time=0
EXTRACT: pitchwheel channel=3 pitch=-1338 time=0.0018656708333333332
EXTRACT: pitchwheel channel=3 pitch=-1506 time=0
EXTRACT: pitchwheel channel=3 pitch=-1506 time=0.0018656708333333332
EXTRACT: pitchwheel channel=3 pitch=-1506 time=0
EXTRACT: pitchwheel channel=3 pitch=-1673 time=0.0037313416666666663
EXTRACT: pitchwheel channel=3 pitch=-2007 time=0
EXTRACT: pitchwheel channel=3 pitch=-2007 time=0.0018656708333333332
EXTRACT: pitchwheel channel=3 pitch=-2007 time=0.0018656708333333332
EXTRACT: pitchwheel channel=3 pitch=-2007 time=0
EXTRACT: pitchwheel channel=3 pitch=-2007 time=0.0018656708333333332
EXTRACT: pitchwheel channel=3 pitch=-2174 time=0
EXTRACT: pitchwheel channel=3 pitch=-2174 time=0.0018656708333333332
EXTRACT: pitchwheel channel=3 pitch=-2174 time=0
EXTRACT: note_on channel=2 note=61 velocity=0 time=0.0018656708333333332
EXTRACT: pitchwheel channel=3 pitch=-2341 time=0
EXTRACT: pitchwheel channel=3 pitch=-2341 time=0
EXTRACT: pitchwheel channel=3 pitch=-2341 time=0
EXTRACT: pitchwheel channel=3 pitch=-2509 time=0.0018656708333333332
EXTRACT: pitchwheel channel=3 pitch=-2676 time=0.0018656708333333332
EXTRACT: pitchwheel channel=3 pitch=-2676 time=0
EXTRACT: pitchwheel channel=3 pitch=-2676 time=0
EXTRACT: pitchwheel channel=3 pitch=-2676 time=0.0018656708333333332
EXTRACT: pitchwheel channel=3 pitch=-2843 time=0.0018656708333333332
EXTRACT: pitchwheel channel=3 pitch=-2843 time=0
EXTRACT: pitchwheel channel=3 pitch=-2843 time=0
EXTRACT: pitchwheel channel=3 pitch=-3010 time=0.0018656708333333332
EXTRACT: pitchwheel channel=3 pitch=-3010 time=0
EXTRACT: pitchwheel channel=3 pitch=-3010 time=0.0018656708333333332
EXTRACT: pitchwheel channel=3 pitch=-3177 time=0
EXTRACT: pitchwheel channel=3 pitch=-3344 time=0.0018656708333333332
EXTRACT: pitchwheel channel=3 pitch=-3344 time=0
EXTRACT: note_on channel=2 note=42 velocity=0 time=0.0018656708333333332
EXTRACT: note_on channel=2 note=30 velocity=0 time=0
EXTRACT: pitchwheel channel=3 pitch=-3344 time=0
EXTRACT: pitchwheel channel=3 pitch=-3344 time=0
EXTRACT: pitchwheel channel=3 pitch=-3344 time=0.0018656708333333332
EXTRACT: pitchwheel channel=3 pitch=-3679 time=0
EXTRACT: pitchwheel channel=3 pitch=-3679 time=0.0018656708333333332
EXTRACT: pitchwheel channel=3 pitch=-3679 time=0
EXTRACT: pitchwheel channel=3 pitch=-3679 time=0
EXTRACT: pitchwheel channel=3 pitch=-3846 time=0.0018656708333333332
EXTRACT: note_on channel=2 note=38 velocity=92 time=0.0018656708333333332
EXTRACT: note_on channel=2 note=50 velocity=94 time=0
EXTRACT: note_on channel=2 note=57 velocity=92 time=0
EXTRACT: pitchwheel channel=3 pitch=-3846 time=0
EXTRACT: pitchwheel channel=3 pitch=-3846 time=0
EXTRACT: pitchwheel channel=3 pitch=-4013 time=0
EXTRACT: pitchwheel channel=3 pitch=-4013 time=0.0018656708333333332
EXTRACT: pitchwheel channel=3 pitch=-4180 time=0.0018656708333333332
EXTRACT: pitchwheel channel=3 pitch=-4180 time=0
EXTRACT: pitchwheel channel=3 pitch=-4180 time=0.0018656708333333332
EXTRACT: pitchwheel channel=3 pitch=-4348 time=0
EXTRACT: pitchwheel channel=3 pitch=-4348 time=0.0018656708333333332
EXTRACT: pitchwheel channel=3 pitch=-4348 time=0
EXTRACT: pitchwheel channel=3 pitch=-4348 time=0.0018656708333333332
EXTRACT: pitchwheel channel=3 pitch=-4348 time=0
EXTRACT: pitchwheel channel=3 pitch=-4348 time=0
EXTRACT: pitchwheel channel=3 pitch=-4348 time=0.0018656708333333332
EXTRACT: pitchwheel channel=3 pitch=-4515 time=0.0018656708333333332
EXTRACT: pitchwheel channel=3 pitch=-4515 time=0
EXTRACT: pitchwheel channel=3 pitch=-4515 time=0
EXTRACT: pitchwheel channel=3 pitch=-4515 time=0.0018656708333333332
EXTRACT: pitchwheel channel=3 pitch=-4515 time=0.0018656708333333332
EXTRACT: pitchwheel channel=3 pitch=-4515 time=0
EXTRACT: pitchwheel channel=3 pitch=-4682 time=0
EXTRACT: pitchwheel channel=3 pitch=-4682 time=0.0018656708333333332
EXTRACT: pitchwheel channel=3 pitch=-4682 time=0
EXTRACT: pitchwheel channel=3 pitch=-4682 time=0.0018656708333333332
EXTRACT: pitchwheel channel=3 pitch=-4682 time=0
EXTRACT: pitchwheel channel=3 pitch=-4682 time=0.0018656708333333332
EXTRACT: pitchwheel channel=3 pitch=-4682 time=0
EXTRACT: pitchwheel channel=3 pitch=-4682 time=0.0018656708333333332
EXTRACT: pitchwheel channel=3 pitch=-4682 time=0
EXTRACT: pitchwheel channel=3 pitch=-4682 time=0.0018656708333333332
EXTRACT: pitchwheel channel=3 pitch=-4682 time=0
EXTRACT: pitchwheel channel=3 pitch=-4682 time=0.0018656708333333332
EXTRACT: pitchwheel channel=3 pitch=-4682 time=0
EXTRACT: pitchwheel channel=3 pitch=-4682 time=0
EXTRACT: pitchwheel channel=3 pitch=-4682 time=0.0018656708333333332
EXTRACT: pitchwheel channel=3 pitch=-4682 time=0.0018656708333333332
EXTRACT: pitchwheel channel=3 pitch=-4682 time=0
EXTRACT: pitchwheel channel=3 pitch=-4682 time=0
EXTRACT: pitchwheel channel=3 pitch=-4682 time=0.0018656708333333332
EXTRACT: pitchwheel channel=3 pitch=-4682 time=0.0018656708333333332
EXTRACT: pitchwheel channel=3 pitch=-4682 time=0
EXTRACT: pitchwheel channel=3 pitch=-4515 time=0.0018656708333333332
EXTRACT: pitchwheel channel=3 pitch=-4515 time=0
EXTRACT: pitchwheel channel=3 pitch=-4515 time=0.0018656708333333332
EXTRACT: pitchwheel channel=3 pitch=-4515 time=0
EXTRACT: pitchwheel channel=3 pitch=-4515 time=0.0018656708333333332
EXTRACT: pitchwheel channel=3 pitch=-4348 time=0
EXTRACT: pitchwheel channel=3 pitch=-4348 time=0
EXTRACT: pitchwheel channel=3 pitch=-4348 time=0.0018656708333333332
EXTRACT: pitchwheel channel=3 pitch=-4180 time=0.0018656708333333332
EXTRACT: pitchwheel channel=3 pitch=-4180 time=0
EXTRACT: pitchwheel channel=3 pitch=-4180 time=0
EXTRACT: pitchwheel channel=3 pitch=-4180 time=0.0018656708333333332
EXTRACT: pitchwheel channel=3 pitch=-4013 time=0.0018656708333333332
EXTRACT: pitchwheel channel=3 pitch=-3846 time=0
EXTRACT: pitchwheel channel=3 pitch=-3846 time=0.0018656708333333332
EXTRACT: pitchwheel channel=3 pitch=-3846 time=0
EXTRACT: pitchwheel channel=3 pitch=-3846 time=0.0018656708333333332
EXTRACT: pitchwheel channel=3 pitch=-3679 time=0
EXTRACT: pitchwheel channel=3 pitch=-3679 time=0.0018656708333333332
EXTRACT: pitchwheel channel=3 pitch=-3679 time=0
EXTRACT: pitchwheel channel=3 pitch=-3679 time=0.0018656708333333332
EXTRACT: pitchwheel channel=3 pitch=-3512 time=0
EXTRACT: pitchwheel channel=3 pitch=-3512 time=0.0018656708333333332
EXTRACT: pitchwheel channel=3 pitch=-3344 time=0
EXTRACT: pitchwheel channel=3 pitch=-3344 time=0.0018656708333333332
EXTRACT: pitchwheel channel=3 pitch=-3177 time=0
EXTRACT: pitchwheel channel=3 pitch=-3177 time=0
EXTRACT: pitchwheel channel=3 pitch=-2843 time=0.0037313416666666663
EXTRACT: pitchwheel channel=3 pitch=-2843 time=0
EXTRACT: pitchwheel channel=3 pitch=-2843 time=0.0018656708333333332
EXTRACT: pitchwheel channel=3 pitch=-2843 time=0.0018656708333333332
EXTRACT: pitchwheel channel=3 pitch=-2843 time=0
EXTRACT: pitchwheel channel=3 pitch=-2676 time=0.0018656708333333332
EXTRACT: pitchwheel channel=3 pitch=-2509 time=0
EXTRACT: pitchwheel channel=3 pitch=-2509 time=0.0018656708333333332
EXTRACT: pitchwheel channel=3 pitch=-2509 time=0
EXTRACT: pitchwheel channel=3 pitch=-2509 time=0.0018656708333333332
EXTRACT: pitchwheel channel=3 pitch=-2341 time=0
EXTRACT: pitchwheel channel=3 pitch=-2341 time=0
EXTRACT: pitchwheel channel=3 pitch=-2341 time=0.0018656708333333332
EXTRACT: pitchwheel channel=3 pitch=-2174 time=0.0018656708333333332
EXTRACT: pitchwheel channel=3 pitch=-2174 time=0
EXTRACT: pitchwheel channel=3 pitch=-2174 time=0
EXTRACT: pitchwheel channel=3 pitch=-2174 time=0.0018656708333333332
EXTRACT: pitchwheel channel=3 pitch=-2174 time=0.0018656708333333332
EXTRACT: pitchwheel channel=3 pitch=-2174 time=0
EXTRACT: pitchwheel channel=3 pitch=-2007 time=0
EXTRACT: pitchwheel channel=3 pitch=-1840 time=0.0018656708333333332
EXTRACT: pitchwheel channel=3 pitch=-1840 time=0
EXTRACT: pitchwheel channel=3 pitch=-1840 time=0.0018656708333333332
EXTRACT: pitchwheel channel=3 pitch=-1840 time=0
EXTRACT: pitchwheel channel=3 pitch=-1673 time=0.0018656708333333332
EXTRACT: pitchwheel channel=3 pitch=-1673 time=0
EXTRACT: pitchwheel channel=3 pitch=-1506 time=0.0037313416666666663
EXTRACT: pitchwheel channel=3 pitch=-1338 time=0.0018656708333333332
EXTRACT: pitchwheel channel=3 pitch=-1338 time=0.0037313416666666663
EXTRACT: pitchwheel channel=3 pitch=-1004 time=0.007462683333333333
EXTRACT: pitchwheel channel=3 pitch=-837 time=0.0018656708333333332
EXTRACT: control_change channel=2 control=64 value=0 time=0.0037313416666666663
EXTRACT: pitchwheel channel=3 pitch=-670 time=0
EXTRACT: pitchwheel channel=3 pitch=-503 time=0.0037313416666666663
EXTRACT: pitchwheel channel=3 pitch=-335 time=0.0018656708333333332
EXTRACT: pitchwheel channel=3 pitch=-168 time=0.0037313416666666663
EXTRACT: pitchwheel channel=3 pitch=-1 time=0.0037313416666666663
EXTRACT: note_on channel=2 note=62 velocity=89 time=0.10261189583333333
EXTRACT: control_change channel=2 control=64 value=127 time=0.0018656708333333332
EXTRACT: note_on channel=2 note=62 velocity=0 time=0.1958954375
EXTRACT: note_on channel=2 note=69 velocity=91 time=0.026119391666666665
EXTRACT: note_on channel=2 note=57 velocity=0 time=0.08395518749999999
EXTRACT: note_on channel=2 note=62 velocity=88 time=0.13992531249999998
EXTRACT: note_on channel=2 note=69 velocity=0 time=0.03171640416666666
EXTRACT: note_on channel=3 note=78 velocity=0 time=0.13992531249999998
EXTRACT: note_on channel=2 note=62 velocity=0 time=0.01865670833333333
EXTRACT: note_on channel=2 note=57 velocity=94 time=0
EXTRACT: note_on channel=3 note=78 velocity=100 time=0
EXTRACT: note_on channel=2 note=62 velocity=90 time=0.22388049999999998
EXTRACT: note_on channel=2 note=62 velocity=0 time=0.1753730583333333
EXTRACT: note_on channel=3 note=78 velocity=0 time=0.04104475833333333
EXTRACT: note_on channel=2 note=69 velocity=93 time=0
EXTRACT: note_on channel=3 note=80 velocity=100 time=0
EXTRACT: note_on channel=2 note=57 velocity=0 time=0.14925366666666665
EXTRACT: note_on channel=2 note=62 velocity=89 time=0.07462683333333332
EXTRACT: note_on channel=2 note=69 velocity=0 time=0.016791037499999998
EXTRACT: note_on channel=2 note=50 velocity=0 time=0.14925366666666665
EXTRACT: note_on channel=2 note=38 velocity=0 time=0.0018656708333333332
EXTRACT: note_on channel=2 note=62 velocity=0 time=0.016791037499999998
EXTRACT: note_on channel=3 note=80 velocity=0 time=0.03171640416666666
EXTRACT: control_change channel=2 control=64 value=0 time=0.0018656708333333332
EXTRACT: note_on channel=2 note=33 velocity=95 time=0
EXTRACT: note_on channel=2 note=45 velocity=95 time=0
EXTRACT: note_on channel=2 note=57 velocity=95 time=0
EXTRACT: note_on channel=3 note=81 velocity=100 time=0
EXTRACT: note_on channel=3 note=81 velocity=0 time=0.21641781666666665
EXTRACT: note_on channel=2 note=61 velocity=89 time=0
EXTRACT: note_on channel=3 note=76 velocity=96 time=0
EXTRACT: control_change channel=2 control=64 value=127 time=0.12686561666666665
EXTRACT: note_on channel=2 note=69 velocity=93 time=0.09701488333333333
EXTRACT: note_on channel=2 note=61 velocity=0 time=0.03171640416666666
EXTRACT: note_on channel=2 note=57 velocity=0 time=0.09141787083333333
EXTRACT: note_on channel=3 note=76 velocity=0 time=0.06716414999999999
EXTRACT: note_on channel=2 note=61 velocity=93 time=0
EXTRACT: note_on channel=3 note=76 velocity=92 time=0
EXTRACT: note_on channel=2 note=69 velocity=0 time=0.020522379166666663
EXTRACT: note_on channel=2 note=61 velocity=0 time=0.18843275416666666
EXTRACT: note_on channel=2 note=57 velocity=91 time=0.014925366666666665
EXTRACT: note_on channel=3 note=76 velocity=0 time=0.190298425
EXTRACT: pitchwheel channel=3 pitch=4680 time=0.024253720833333332
EXTRACT: note_on channel=2 note=61 velocity=92 time=0
EXTRACT: note_on channel=3 note=80 velocity=100 time=0
EXTRACT: pitchwheel channel=3 pitch=4346 time=0.10634323749999999
EXTRACT: pitchwheel channel=3 pitch=4178 time=0.026119391666666665
EXTRACT: pitchwheel channel=3 pitch=4011 time=0.011194025
EXTRACT: pitchwheel channel=3 pitch=3844 time=0.007462683333333333
EXTRACT: pitchwheel channel=3 pitch=3677 time=0.0055970125
EXTRACT: pitchwheel channel=3 pitch=3510 time=0.007462683333333333
EXTRACT: pitchwheel channel=3 pitch=3342 time=0.0037313416666666663
EXTRACT: pitchwheel channel=3 pitch=3175 time=0.0055970125
EXTRACT: pitchwheel channel=3 pitch=3008 time=0.0055970125
EXTRACT: pitchwheel channel=3 pitch=2841 time=0.0037313416666666663
EXTRACT: pitchwheel channel=3 pitch=2674 time=0.0037313416666666663
EXTRACT: pitchwheel channel=3 pitch=2507 time=0.0018656708333333332
EXTRACT: pitchwheel channel=3 pitch=2339 time=0.0037313416666666663
EXTRACT: pitchwheel channel=3 pitch=2172 time=0.0037313416666666663
EXTRACT: pitchwheel channel=3 pitch=2005 time=0.0037313416666666663
EXTRACT: pitchwheel channel=3 pitch=1838 time=0.0037313416666666663
EXTRACT: pitchwheel channel=3 pitch=1671 time=0.0018656708333333332
EXTRACT: pitchwheel channel=3 pitch=1504 time=0.0037313416666666663
EXTRACT: pitchwheel channel=3 pitch=1336 time=0.0037313416666666663
EXTRACT: pitchwheel channel=3 pitch=1169 time=0.0018656708333333332
EXTRACT: pitchwheel channel=3 pitch=1002 time=0.0037313416666666663
EXTRACT: note_on channel=2 note=61 velocity=0 time=0.0018656708333333332
EXTRACT: pitchwheel channel=3 pitch=835 time=0
EXTRACT: note_on channel=2 note=69 velocity=87 time=0.0037313416666666663
EXTRACT: pitchwheel channel=3 pitch=668 time=0
EXTRACT: pitchwheel channel=3 pitch=501 time=0.0018656708333333332
EXTRACT: pitchwheel channel=3 pitch=333 time=0.0018656708333333332
EXTRACT: note_on channel=2 note=57 velocity=0 time=0.0037313416666666663
EXTRACT: pitchwheel channel=3 pitch=0 time=0
EXTRACT: pitchwheel channel=3 pitch=-1 time=0.0018656708333333332
EXTRACT: pitchwheel channel=3 pitch=0 time=0.0018656708333333332
EXTRACT: pitchwheel channel=3 pitch=0 time=0.03731341666666666
EXTRACT: note_on channel=3 note=80 velocity=0 time=0.14179098333333331
EXTRACT: note_on channel=2 note=61 velocity=92 time=0
EXTRACT: note_on channel=3 note=80 velocity=100 time=0
EXTRACT: note_on channel=2 note=69 velocity=0 time=0.03171640416666666
EXTRACT: note_on channel=2 note=33 velocity=0 time=0.10634323749999999
EXTRACT: note_on channel=2 note=45 velocity=0 time=0.009328354166666665
EXTRACT: note_on channel=2 note=61 velocity=0 time=0.06343280833333333
EXTRACT: note_on channel=2 note=40 velocity=90 time=0.013059695833333333
EXTRACT: note_on channel=2 note=52 velocity=90 time=0
EXTRACT: note_on channel=2 note=59 velocity=90 time=0
EXTRACT: control_change channel=2 control=64 value=0 time=0.18656708333333333
EXTRACT: note_on channel=2 note=64 velocity=92 time=0.03731341666666666
EXTRACT: pitchwheel channel=3 pitch=-73 time=0.04664177083333333
EXTRACT: pitchwheel channel=3 pitch=-218 time=0.02238805
EXTRACT: pitchwheel channel=3 pitch=-363 time=0.009328354166666665
EXTRACT: pitchwheel channel=3 pitch=-508 time=0.007462683333333333
EXTRACT: pitchwheel channel=3 pitch=-653 time=0.0055970125
EXTRACT: pitchwheel channel=3 pitch=-798 time=0.0055970125
EXTRACT: control_change channel=2 control=64 value=127 time=0.0018656708333333332
EXTRACT: pitchwheel channel=3 pitch=-943 time=0.0037313416666666663
EXTRACT: pitchwheel channel=3 pitch=-1088 time=0.0037313416666666663
EXTRACT: pitchwheel channel=3 pitch=-1233 time=0.0037313416666666663
EXTRACT: pitchwheel channel=3 pitch=-1378 time=0.0037313416666666663
EXTRACT: pitchwheel channel=3 pitch=-1523 time=0.0037313416666666663
EXTRACT: pitchwheel channel=3 pitch=-1668 time=0.0037313416666666663
EXTRACT: pitchwheel channel=3 pitch=-1813 time=0.0037313416666666663
EXTRACT: pitchwheel channel=3 pitch=-1958 time=0.0037313416666666663
EXTRACT: pitchwheel channel=3 pitch=-2103 time=0.0018656708333333332
EXTRACT: pitchwheel channel=3 pitch=-2248 time=0.0037313416666666663
EXTRACT: pitchwheel channel=3 pitch=-2393 time=0.0018656708333333332
EXTRACT: pitchwheel channel=3 pitch=-2538 time=0.0037313416666666663
EXTRACT: pitchwheel channel=3 pitch=-2683 time=0.0018656708333333332
EXTRACT: pitchwheel channel=3 pitch=-2828 time=0.0037313416666666663
EXTRACT: pitchwheel channel=3 pitch=-2973 time=0.0018656708333333332
EXTRACT: pitchwheel channel=3 pitch=-3118 time=0.0018656708333333332
EXTRACT: pitchwheel channel=3 pitch=-3263 time=0.0037313416666666663
EXTRACT: pitchwheel channel=3 pitch=-3408 time=0.0018656708333333332
EXTRACT: pitchwheel channel=3 pitch=-3553 time=0.0018656708333333332
EXTRACT: pitchwheel channel=3 pitch=-3698 time=0.0018656708333333332
EXTRACT: pitchwheel channel=3 pitch=-3843 time=0.0018656708333333332
EXTRACT: pitchwheel channel=3 pitch=-3988 time=0.0037313416666666663
EXTRACT: pitchwheel channel=3 pitch=-4133 time=0.0018656708333333332
EXTRACT: pitchwheel channel=3 pitch=-4278 time=0.0018656708333333332
EXTRACT: pitchwheel channel=3 pitch=-4423 time=0.0018656708333333332
EXTRACT: pitchwheel channel=3 pitch=-4568 time=0.0018656708333333332
EXTRACT: pitchwheel channel=3 pitch=-4713 time=0.0018656708333333332
EXTRACT: pitchwheel channel=3 pitch=-4858 time=0.0018656708333333332
EXTRACT: pitchwheel channel=3 pitch=-5003 time=0.0018656708333333332
EXTRACT: pitchwheel channel=3 pitch=-5148 time=0.0018656708333333332
EXTRACT: pitchwheel channel=3 pitch=-5293 time=0.0018656708333333332
EXTRACT: pitchwheel channel=3 pitch=-5438 time=0.0018656708333333332
EXTRACT: pitchwheel channel=3 pitch=-5583 time=0.0018656708333333332
EXTRACT: pitchwheel channel=3 pitch=-5728 time=0.0018656708333333332
EXTRACT: pitchwheel channel=3 pitch=-5873 time=0.0018656708333333332
EXTRACT: pitchwheel channel=3 pitch=-6018 time=0.0018656708333333332
EXTRACT: pitchwheel channel=3 pitch=-6163 time=0.0018656708333333332
EXTRACT: pitchwheel channel=3 pitch=-6308 time=0.0018656708333333332
EXTRACT: pitchwheel channel=3 pitch=-6453 time=0.0018656708333333332
EXTRACT: pitchwheel channel=3 pitch=-6598 time=0.0018656708333333332
EXTRACT: pitchwheel channel=3 pitch=-6888 time=0.0018656708333333332
EXTRACT: note_on channel=2 note=64 velocity=0 time=0.0018656708333333332
EXTRACT: pitchwheel channel=3 pitch=-7033 time=0
EXTRACT: pitchwheel channel=3 pitch=-7178 time=0.0018656708333333332
EXTRACT: pitchwheel channel=3 pitch=-7323 time=0.0018656708333333332
EXTRACT: pitchwheel channel=3 pitch=-7468 time=0.0018656708333333332
EXTRACT: pitchwheel channel=3 pitch=-7758 time=0.0018656708333333332
EXTRACT: pitchwheel channel=3 pitch=-7903 time=0.0018656708333333332
EXTRACT: pitchwheel channel=3 pitch=-8048 time=0.0018656708333333332
EXTRACT: pitchwheel channel=3 pitch=-8192 time=0.0018656708333333332
EXTRACT: note_on channel=2 note=68 velocity=90 time=0.009328354166666665
EXTRACT: note_on channel=2 note=59 velocity=0 time=0.09888055416666666
EXTRACT: note_on channel=3 note=80 velocity=0 time=0.024253720833333332
EXTRACT: note_on channel=2 note=64 velocity=92 time=0.100746225
EXTRACT: note_on channel=2 note=68 velocity=0 time=0.01865670833333333
EXTRACT: note_on channel=2 note=64 velocity=0 time=0.18843275416666666
EXTRACT: note_on channel=2 note=59 velocity=91 time=0.016791037499999998
EXTRACT: pitchwheel channel=3 pitch=-4030 time=0.21082080416666665
EXTRACT: note_on channel=2 note=64 velocity=92 time=0
EXTRACT: note_on channel=3 note=81 velocity=100 time=0
EXTRACT: pitchwheel channel=3 pitch=-3761 time=0.13246262916666665
EXTRACT: pitchwheel channel=3 pitch=-3627 time=0.0018656708333333332
EXTRACT: pitchwheel channel=3 pitch=-3492 time=0.020522379166666663
EXTRACT: pitchwheel channel=3 pitch=-3358 time=0.007462683333333333
EXTRACT: pitchwheel channel=3 pitch=-3224 time=0.007462683333333333
EXTRACT: pitchwheel channel=3 pitch=-3090 time=0.0037313416666666663
EXTRACT: pitchwheel channel=3 pitch=-2955 time=0.0055970125
EXTRACT: note_on channel=2 note=59 velocity=0 time=0.0018656708333333332
EXTRACT: pitchwheel channel=3 pitch=-2821 time=0.0018656708333333332
EXTRACT: pitchwheel channel=3 pitch=-2687 time=0.0037313416666666663
EXTRACT: pitchwheel channel=3 pitch=-2552 time=0.0055970125
EXTRACT: pitchwheel channel=3 pitch=-2418 time=0.0018656708333333332
EXTRACT: note_on channel=2 note=64 velocity=0 time=0.0037313416666666663
EXTRACT: pitchwheel channel=3 pitch=-2284 time=0
EXTRACT: pitchwheel channel=3 pitch=-2150 time=0.0018656708333333332
EXTRACT: pitchwheel channel=3 pitch=-2015 time=0.0055970125
EXTRACT: pitchwheel channel=3 pitch=-1881 time=0.0018656708333333332
EXTRACT: pitchwheel channel=3 pitch=-1747 time=0.0018656708333333332
EXTRACT: pitchwheel channel=3 pitch=-1612 time=0.0037313416666666663
EXTRACT: pitchwheel channel=3 pitch=-1478 time=0.0037313416666666663
EXTRACT: pitchwheel channel=3 pitch=-1344 time=0.0018656708333333332
EXTRACT: pitchwheel channel=3 pitch=-1210 time=0.0018656708333333332
EXTRACT: pitchwheel channel=3 pitch=-1075 time=0.0018656708333333332
EXTRACT: note_on channel=2 note=68 velocity=87 time=0.0018656708333333332
EXTRACT: pitchwheel channel=3 pitch=-941 time=0
EXTRACT: pitchwheel channel=3 pitch=-807 time=0.0018656708333333332
EXTRACT: pitchwheel channel=3 pitch=-672 time=0.0037313416666666663
EXTRACT: pitchwheel channel=3 pitch=-538 time=0.0018656708333333332
EXTRACT: pitchwheel channel=3 pitch=-404 time=0.0018656708333333332
EXTRACT: pitchwheel channel=3 pitch=-270 time=0.0018656708333333332
EXTRACT: pitchwheel channel=3 pitch=-135 time=0.0018656708333333332
EXTRACT: pitchwheel channel=3 pitch=-1 time=0.0037313416666666663
EXTRACT: pitchwheel channel=3 pitch=0 time=0.0018656708333333332
EXTRACT: note_on channel=2 note=68 velocity=0 time=0.17350738749999997
EXTRACT: note_on channel=2 note=64 velocity=92 time=0.03171640416666666
EXTRACT: note_on channel=2 note=52 velocity=0 time=0.1473879958333333
EXTRACT: note_on channel=2 note=40 velocity=0 time=0
EXTRACT: note_on channel=2 note=64 velocity=0 time=0.0055970125
EXTRACT: note_on channel=3 note=81 velocity=0 time=0.05970146666666666
EXTRACT: note_on channel=2 note=42 velocity=92 time=0
EXTRACT: note_on channel=2 note=49 velocity=94 time=0
EXTRACT: note_on channel=2 note=57 velocity=92 time=0
EXTRACT: note_on channel=3 note=78 velocity=100 time=0
EXTRACT: control_change channel=2 control=64 value=0 time=0.08768652916666665
EXTRACT: note_on channel=2 note=61 velocity=90 time=0.13619397083333332
EXTRACT: control_change channel=2 control=64 value=127 time=0.07462683333333332
EXTRACT: note_on channel=2 note=61 velocity=0 time=0.14925366666666665
EXTRACT: note_on channel=2 note=69 velocity=91 time=0
EXTRACT: note_on channel=2 note=61 velocity=87 time=0.22388049999999998
EXTRACT: note_on channel=2 note=69 velocity=0 time=0.011194025
EXTRACT: note_on channel=2 note=57 velocity=0 time=0
EXTRACT: note_on channel=2 note=61 velocity=0 time=0.19962677916666666
EXTRACT: note_on channel=2 note=57 velocity=94 time=0.013059695833333333
EXTRACT: note_on channel=2 note=61 velocity=91 time=0.22388049999999998
EXTRACT: note_on channel=2 note=61 velocity=0 time=0.19216409583333333
EXTRACT: note_on channel=2 note=69 velocity=91 time=0.03171640416666666
EXTRACT: note_on channel=2 note=57 velocity=0 time=0.04664177083333333
EXTRACT: note_on channel=2 note=61 velocity=91 time=0.17723872916666664
EXTRACT: note_on channel=2 note=69 velocity=0 time=0.0037313416666666663
EXTRACT: note_on channel=2 note=61 velocity=0 time=0.19776110833333332
EXTRACT: note_on channel=3 note=78 velocity=0 time=0
EXTRACT: note_on channel=2 note=49 velocity=0 time=0.014925366666666665
EXTRACT: note_on channel=2 note=42 velocity=0 time=0
EXTRACT: note_on channel=2 note=38 velocity=92 time=0
EXTRACT: note_on channel=2 note=50 velocity=94 time=0
EXTRACT: note_on channel=2 note=57 velocity=92 time=0
EXTRACT: note_on channel=3 note=81 velocity=100 time=0
EXTRACT: control_change channel=2 control=64 value=0 time=0.10820890833333333
EXTRACT: note_on channel=2 note=62 velocity=89 time=0.11567159166666666
EXTRACT: control_change channel=2 control=64 value=127 time=0.0018656708333333332
EXTRACT: note_on channel=2 note=62 velocity=0 time=0.1958954375
EXTRACT: note_on channel=2 note=69 velocity=91 time=0.026119391666666665
EXTRACT: note_on channel=2 note=57 velocity=0 time=0.08395518749999999
EXTRACT: note_on channel=2 note=62 velocity=88 time=0.13992531249999998
EXTRACT: note_on channel=2 note=69 velocity=0 time=0.03171640416666666
EXTRACT: note_on channel=3 note=81 velocity=0 time=0.1529850083333333
EXTRACT: note_on channel=2 note=62 velocity=0 time=0.0055970125
EXTRACT: pitchwheel channel=3 pitch=-8192 time=0.024253720833333332
EXTRACT: pitchwheel channel=3 pitch=-8058 time=0.0018656708333333332
EXTRACT: note_on channel=2 note=57 velocity=94 time=0
EXTRACT: note_on channel=3 note=85 velocity=100 time=0
EXTRACT: pitchwheel channel=3 pitch=-7924 time=0.024253720833333332
EXTRACT: pitchwheel channel=3 pitch=-7790 time=0.013059695833333333
EXTRACT: pitchwheel channel=3 pitch=-7655 time=0.007462683333333333
EXTRACT: pitchwheel channel=3 pitch=-7521 time=0.009328354166666665
EXTRACT: pitchwheel channel=3 pitch=-7387 time=0.009328354166666665
EXTRACT: pitchwheel channel=3 pitch=-7252 time=0.0055970125
EXTRACT: pitchwheel channel=3 pitch=-7118 time=0.0055970125
EXTRACT: pitchwheel channel=3 pitch=-6984 time=0.0055970125
EXTRACT: pitchwheel channel=3 pitch=-6850 time=0.007462683333333333
EXTRACT: pitchwheel channel=3 pitch=-6715 time=0.0037313416666666663
EXTRACT: pitchwheel channel=3 pitch=-6581 time=0.0055970125
EXTRACT: pitchwheel channel=3 pitch=-6447 time=0.0037313416666666663
EXTRACT: pitchwheel channel=3 pitch=-6312 time=0.0037313416666666663
EXTRACT: pitchwheel channel=3 pitch=-6178 time=0.0055970125
EXTRACT: pitchwheel channel=3 pitch=-6044 time=0.0037313416666666663
EXTRACT: pitchwheel channel=3 pitch=-5910 time=0.0037313416666666663
EXTRACT: pitchwheel channel=3 pitch=-5775 time=0.0055970125
EXTRACT: pitchwheel channel=3 pitch=-5641 time=0.0018656708333333332
EXTRACT: pitchwheel channel=3 pitch=-5507 time=0.0037313416666666663
EXTRACT: pitchwheel channel=3 pitch=-5372 time=0.0055970125
EXTRACT: pitchwheel channel=3 pitch=-5238 time=0.0018656708333333332
EXTRACT: pitchwheel channel=3 pitch=-5104 time=0.0037313416666666663
EXTRACT: pitchwheel channel=3 pitch=-4970 time=0.0018656708333333332
EXTRACT: pitchwheel channel=3 pitch=-4835 time=0.0055970125
EXTRACT: pitchwheel channel=3 pitch=-4701 time=0.0018656708333333332
EXTRACT: pitchwheel channel=3 pitch=-4567 time=0.0037313416666666663
EXTRACT: pitchwheel channel=3 pitch=-4432 time=0.0018656708333333332
EXTRACT: pitchwheel channel=3 pitch=-4298 time=0.0037313416666666663
EXTRACT: pitchwheel channel=3 pitch=-4164 time=0.0037313416666666663
EXTRACT: pitchwheel channel=3 pitch=-4030 time=0.0018656708333333332
EXTRACT: pitchwheel channel=3 pitch=-3895 time=0.0018656708333333332
EXTRACT: pitchwheel channel=3 pitch=-3761 time=0.0055970125
EXTRACT: pitchwheel channel=3 pitch=-3627 time=0.0018656708333333332
EXTRACT: pitchwheel channel=3 pitch=-3492 time=0.0018656708333333332
EXTRACT: pitchwheel channel=3 pitch=-3358 time=0.0018656708333333332
EXTRACT: pitchwheel channel=3 pitch=-3224 time=0.0055970125
EXTRACT: pitchwheel channel=3 pitch=-3090 time=0.0018656708333333332
EXTRACT: pitchwheel channel=3 pitch=-2955 time=0.0018656708333333332
EXTRACT: pitchwheel channel=3 pitch=-2821 time=0.0018656708333333332
EXTRACT: pitchwheel channel=3 pitch=-2687 time=0.0018656708333333332
EXTRACT: pitchwheel channel=3 pitch=-2552 time=0.0018656708333333332
EXTRACT: pitchwheel channel=3 pitch=-2418 time=0.0055970125
EXTRACT: pitchwheel channel=3 pitch=-2284 time=0.0018656708333333332
EXTRACT: pitchwheel channel=3 pitch=-2150 time=0.0018656708333333332
EXTRACT: pitchwheel channel=3 pitch=-2015 time=0.0018656708333333332
EXTRACT: pitchwheel channel=3 pitch=-1881 time=0.0037313416666666663
EXTRACT: pitchwheel channel=3 pitch=-1747 time=0.0018656708333333332
EXTRACT: pitchwheel channel=3 pitch=-1612 time=0.0018656708333333332
EXTRACT: pitchwheel channel=3 pitch=-1478 time=0.0018656708333333332
EXTRACT: pitchwheel channel=3 pitch=-1344 time=0.0018656708333333332
EXTRACT: pitchwheel channel=3 pitch=-1210 time=0.0018656708333333332
EXTRACT: pitchwheel channel=3 pitch=-1075 time=0.0037313416666666663
EXTRACT: pitchwheel channel=3 pitch=-941 time=0.0018656708333333332
EXTRACT: note_on channel=2 note=62 velocity=90 time=0.0018656708333333332
EXTRACT: pitchwheel channel=3 pitch=-807 time=0
EXTRACT: pitchwheel channel=3 pitch=-672 time=0.0018656708333333332
EXTRACT: pitchwheel channel=3 pitch=-538 time=0.0018656708333333332
EXTRACT: pitchwheel channel=3 pitch=-404 time=0.0018656708333333332
EXTRACT: pitchwheel channel=3 pitch=-270 time=0.0037313416666666663
EXTRACT: pitchwheel channel=3 pitch=-135 time=0.0018656708333333332
EXTRACT: pitchwheel channel=3 pitch=-1 time=0.0018656708333333332
EXTRACT: note_on channel=2 note=62 velocity=0 time=0.16231336249999997
EXTRACT: note_on channel=3 note=85 velocity=0 time=0.011194025
EXTRACT: note_on channel=2 note=69 velocity=93 time=0
EXTRACT: note_on channel=3 note=85 velocity=100 time=0
EXTRACT: note_on channel=2 note=57 velocity=0 time=0.14925366666666665
EXTRACT: note_on channel=2 note=62 velocity=89 time=0.07462683333333332
EXTRACT: note_on channel=2 note=69 velocity=0 time=0.016791037499999998
EXTRACT: note_on channel=2 note=38 velocity=0 time=0.09141787083333333
EXTRACT: note_on channel=2 note=50 velocity=0 time=0.05783579583333333
EXTRACT: note_on channel=2 note=62 velocity=0 time=0.01865670833333333
EXTRACT: note_on channel=3 note=85 velocity=0 time=0.0055970125
EXTRACT: control_change channel=2 control=64 value=0 time=0.027985062499999998
EXTRACT: note_on channel=2 note=45 velocity=95 time=0
EXTRACT: note_on channel=2 note=52 velocity=95 time=0
EXTRACT: note_on channel=2 note=57 velocity=95 time=0
EXTRACT: note_on channel=3 note=85 velocity=100 time=0
EXTRACT: note_on channel=2 note=61 velocity=89 time=0.22388049999999998
EXTRACT: note_on channel=3 note=85 velocity=0 time=0.05410445416666666
EXTRACT: note_on channel=3 note=85 velocity=100 time=0
EXTRACT: control_change channel=2 control=64 value=127 time=0.04291042916666666
EXTRACT: note_on channel=2 note=69 velocity=93 time=0.09701488333333333
EXTRACT: note_on channel=2 note=61 velocity=0 time=0.03171640416666666
EXTRACT: pitchwheel channel=3 pitch=0 time=0.013059695833333333
EXTRACT: pitchwheel channel=3 pitch=-73 time=0.020522379166666663
EXTRACT: pitchwheel channel=3 pitch=-218 time=0.007462683333333333
EXTRACT: pitchwheel channel=3 pitch=-363 time=0.0055970125
EXTRACT: pitchwheel channel=3 pitch=-508 time=0.0055970125
EXTRACT: pitchwheel channel=3 pitch=-653 time=0.0037313416666666663
EXTRACT: pitchwheel channel=3 pitch=-798 time=0.0037313416666666663
EXTRACT: pitchwheel channel=3 pitch=-943 time=0.0037313416666666663
EXTRACT: pitchwheel channel=3 pitch=-1088 time=0.0037313416666666663
EXTRACT: pitchwheel channel=3 pitch=-1233 time=0.0037313416666666663
EXTRACT: pitchwheel channel=3 pitch=-1378 time=0.0037313416666666663
EXTRACT: pitchwheel channel=3 pitch=-1523 time=0.0018656708333333332
EXTRACT: pitchwheel channel=3 pitch=-1668 time=0.0037313416666666663
EXTRACT: pitchwheel channel=3 pitch=-1813 time=0.0018656708333333332
EXTRACT: pitchwheel channel=3 pitch=-1958 time=0.0018656708333333332
EXTRACT: pitchwheel channel=3 pitch=-2103 time=0.0037313416666666663
EXTRACT: pitchwheel channel=3 pitch=-2248 time=0.0018656708333333332
EXTRACT: note_on channel=2 note=57 velocity=0 time=0.0018656708333333332
EXTRACT: pitchwheel channel=3 pitch=-2393 time=0
EXTRACT: pitchwheel channel=3 pitch=-2538 time=0.0037313416666666663
EXTRACT: pitchwheel channel=3 pitch=-2683 time=0.0018656708333333332
EXTRACT: pitchwheel channel=3 pitch=-2828 time=0.0018656708333333332
EXTRACT: pitchwheel channel=3 pitch=-2973 time=0.0018656708333333332
EXTRACT: pitchwheel channel=3 pitch=-3118 time=0.0018656708333333332
EXTRACT: pitchwheel channel=3 pitch=-3263 time=0.0018656708333333332
EXTRACT: pitchwheel channel=3 pitch=-3408 time=0.0018656708333333332
EXTRACT: pitchwheel channel=3 pitch=-3553 time=0.0018656708333333332
EXTRACT: pitchwheel channel=3 pitch=-3698 time=0.0018656708333333332
EXTRACT: pitchwheel channel=3 pitch=-3843 time=0.0018656708333333332
EXTRACT: pitchwheel channel=3 pitch=-3988 time=0.0018656708333333332
EXTRACT: pitchwheel channel=3 pitch=-4133 time=0.0018656708333333332
EXTRACT: pitchwheel channel=3 pitch=-4278 time=0.0018656708333333332
EXTRACT: pitchwheel channel=3 pitch=-4423 time=0.0018656708333333332
EXTRACT: pitchwheel channel=3 pitch=-4568 time=0.0018656708333333332
EXTRACT: pitchwheel channel=3 pitch=-4713 time=0.0018656708333333332
EXTRACT: pitchwheel channel=3 pitch=-4858 time=0.0018656708333333332
EXTRACT: pitchwheel channel=3 pitch=-5148 time=0.0018656708333333332
EXTRACT: pitchwheel channel=3 pitch=-5293 time=0.0018656708333333332
EXTRACT: pitchwheel channel=3 pitch=-5438 time=0.0018656708333333332
EXTRACT: pitchwheel channel=3 pitch=-5583 time=0.0018656708333333332
EXTRACT: pitchwheel channel=3 pitch=-5728 time=0.0018656708333333332
EXTRACT: pitchwheel channel=3 pitch=-6018 time=0.0018656708333333332
EXTRACT: pitchwheel channel=3 pitch=-6163 time=0.0018656708333333332
EXTRACT: pitchwheel channel=3 pitch=-6308 time=0.0018656708333333332
EXTRACT: pitchwheel channel=3 pitch=-6598 time=0.0018656708333333332
EXTRACT: pitchwheel channel=3 pitch=-6743 time=0.0018656708333333332
EXTRACT: pitchwheel channel=3 pitch=-6888 time=0.0018656708333333332
EXTRACT: pitchwheel channel=3 pitch=-7178 time=0.0018656708333333332
EXTRACT: pitchwheel channel=3 pitch=-7323 time=0.0018656708333333332
EXTRACT: pitchwheel channel=3 pitch=-7613 time=0.0018656708333333332
EXTRACT: pitchwheel channel=3 pitch=-7758 time=0.0018656708333333332
EXTRACT: pitchwheel channel=3 pitch=-8048 time=0.0018656708333333332
EXTRACT: pitchwheel channel=3 pitch=-8192 time=0.0018656708333333332
EXTRACT: note_on channel=3 note=85 velocity=0 time=0.027985062499999998
EXTRACT: note_on channel=2 note=61 velocity=93 time=0.007462683333333333
EXTRACT: note_on channel=2 note=69 velocity=0 time=0.020522379166666663
EXTRACT: note_on channel=2 note=61 velocity=0 time=0.18843275416666666
EXTRACT: note_on channel=2 note=57 velocity=91 time=0.014925366666666665
EXTRACT: pitchwheel channel=3 pitch=-4030 time=0.22201482916666665
EXTRACT: note_on channel=2 note=61 velocity=92 time=0
EXTRACT: note_on channel=3 note=88 velocity=100 time=0
EXTRACT: pitchwheel channel=3 pitch=-3895 time=0.0018656708333333332
EXTRACT: pitchwheel channel=3 pitch=-3761 time=0.04104475833333333
EXTRACT: pitchwheel channel=3 pitch=-3627 time=0.01865670833333333
EXTRACT: pitchwheel channel=3 pitch=-3492 time=0.011194025
EXTRACT: pitchwheel channel=3 pitch=-3358 time=0.013059695833333333
EXTRACT: pitchwheel channel=3 pitch=-3224 time=0.011194025
EXTRACT: pitchwheel channel=3 pitch=-3090 time=0.011194025
EXTRACT: pitchwheel channel=3 pitch=-2955 time=0.007462683333333333
EXTRACT: pitchwheel channel=3 pitch=-2821 time=0.007462683333333333
EXTRACT: pitchwheel channel=3 pitch=-2687 time=0.007462683333333333
EXTRACT: pitchwheel channel=3 pitch=-2552 time=0.007462683333333333
EXTRACT: pitchwheel channel=3 pitch=-2418 time=0.007462683333333333
EXTRACT: pitchwheel channel=3 pitch=-2284 time=0.0037313416666666663
EXTRACT: pitchwheel channel=3 pitch=-2150 time=0.007462683333333333
EXTRACT: pitchwheel channel=3 pitch=-2015 time=0.007462683333333333
EXTRACT: pitchwheel channel=3 pitch=-1881 time=0.0037313416666666663
EXTRACT: pitchwheel channel=3 pitch=-1747 time=0.0037313416666666663
EXTRACT: pitchwheel channel=3 pitch=-1612 time=0.007462683333333333
EXTRACT: pitchwheel channel=3 pitch=-1478 time=0.0037313416666666663
EXTRACT: pitchwheel channel=3 pitch=-1344 time=0.009328354166666665
EXTRACT: pitchwheel channel=3 pitch=-1210 time=0.0037313416666666663
EXTRACT: pitchwheel channel=3 pitch=-1075 time=0.0037313416666666663
EXTRACT: pitchwheel channel=3 pitch=-941 time=0.0037313416666666663
EXTRACT: pitchwheel channel=3 pitch=-807 time=0.007462683333333333
EXTRACT: pitchwheel channel=3 pitch=-672 time=0.0037313416666666663
EXTRACT: pitchwheel channel=3 pitch=-538 time=0.0037313416666666663
EXTRACT: note_on channel=2 note=61 velocity=0 time=0.0018656708333333332
EXTRACT: pitchwheel channel=3 pitch=-404 time=0.0018656708333333332
EXTRACT: note_on channel=2 note=69 velocity=87 time=0.0018656708333333332
EXTRACT: pitchwheel channel=3 pitch=-270 time=0.0018656708333333332
EXTRACT: pitchwheel channel=3 pitch=-135 time=0.0037313416666666663
EXTRACT: note_on channel=2 note=57 velocity=0 time=0.0018656708333333332
EXTRACT: pitchwheel channel=3 pitch=-1 time=0.0018656708333333332
EXTRACT: pitchwheel channel=3 pitch=0 time=0.0037313416666666663
EXTRACT: note_on channel=3 note=88 velocity=0 time=0.08022384583333332
EXTRACT: note_on channel=2 note=61 velocity=92 time=0
EXTRACT: note_on channel=3 note=85 velocity=100 time=0
EXTRACT: note_on channel=2 note=69 velocity=0 time=0.03171640416666666
EXTRACT: note_on channel=2 note=52 velocity=0 time=0.10634323749999999
EXTRACT: note_on channel=2 note=45 velocity=0 time=0.009328354166666665
EXTRACT: note_on channel=2 note=61 velocity=0 time=0.06343280833333333
EXTRACT: note_on channel=2 note=40 velocity=95 time=0.013059695833333333
EXTRACT: note_on channel=2 note=52 velocity=95 time=0
EXTRACT: note_on channel=2 note=59 velocity=93 time=0
EXTRACT: control_change channel=2 control=64 value=0 time=0.18656708333333333
EXTRACT: note_on channel=2 note=64 velocity=92 time=0.03731341666666666
EXTRACT: pitchwheel channel=3 pitch=-1 time=0.0037313416666666663
EXTRACT: pitchwheel channel=3 pitch=-135 time=0.027985062499999998
EXTRACT: pitchwheel channel=3 pitch=-270 time=0.013059695833333333
EXTRACT: pitchwheel channel=3 pitch=-404 time=0.0055970125
EXTRACT: pitchwheel channel=3 pitch=-538 time=0.007462683333333333
EXTRACT: pitchwheel channel=3 pitch=-672 time=0.007462683333333333
EXTRACT: pitchwheel channel=3 pitch=-807 time=0.0055970125
EXTRACT: pitchwheel channel=3 pitch=-941 time=0.0055970125
EXTRACT: pitchwheel channel=3 pitch=-1075 time=0.0055970125
EXTRACT: pitchwheel channel=3 pitch=-1210 time=0.0037313416666666663
EXTRACT: pitchwheel channel=3 pitch=-1344 time=0.0037313416666666663
EXTRACT: pitchwheel channel=3 pitch=-1478 time=0.0037313416666666663
EXTRACT: pitchwheel channel=3 pitch=-1612 time=0.0037313416666666663
EXTRACT: control_change channel=2 control=64 value=127 time=0.0018656708333333332
EXTRACT: pitchwheel channel=3 pitch=-1747 time=0.0018656708333333332
EXTRACT: pitchwheel channel=3 pitch=-1881 time=0.0037313416666666663
EXTRACT: pitchwheel channel=3 pitch=-2015 time=0.0037313416666666663
EXTRACT: pitchwheel channel=3 pitch=-2150 time=0.0037313416666666663
EXTRACT: pitchwheel channel=3 pitch=-2284 time=0.0037313416666666663
EXTRACT: pitchwheel channel=3 pitch=-2418 time=0.0037313416666666663
EXTRACT: pitchwheel channel=3 pitch=-2552 time=0.0018656708333333332
EXTRACT: pitchwheel channel=3 pitch=-2687 time=0.0037313416666666663
EXTRACT: pitchwheel channel=3 pitch=-2821 time=0.0037313416666666663
EXTRACT: pitchwheel channel=3 pitch=-2955 time=0.0018656708333333332
EXTRACT: pitchwheel channel=3 pitch=-3090 time=0.0037313416666666663
EXTRACT: pitchwheel channel=3 pitch=-3224 time=0.0018656708333333332
EXTRACT: pitchwheel channel=3 pitch=-3358 time=0.0018656708333333332
EXTRACT: pitchwheel channel=3 pitch=-3492 time=0.0018656708333333332
EXTRACT: pitchwheel channel=3 pitch=-3627 time=0.0037313416666666663
EXTRACT: pitchwheel channel=3 pitch=-3761 time=0.0018656708333333332
EXTRACT: pitchwheel channel=3 pitch=-3895 time=0.0037313416666666663
EXTRACT: pitchwheel channel=3 pitch=-4030 time=0.0018656708333333332
EXTRACT: pitchwheel channel=3 pitch=-4164 time=0.0018656708333333332
EXTRACT: pitchwheel channel=3 pitch=-4298 time=0.0037313416666666663
EXTRACT: pitchwheel channel=3 pitch=-4432 time=0.0018656708333333332
EXTRACT: pitchwheel channel=3 pitch=-4567 time=0.0018656708333333332
EXTRACT: pitchwheel channel=3 pitch=-4701 time=0.0018656708333333332
EXTRACT: pitchwheel channel=3 pitch=-4835 time=0.0037313416666666663
EXTRACT: pitchwheel channel=3 pitch=-4970 time=0.0018656708333333332
EXTRACT: pitchwheel channel=3 pitch=-5104 time=0.0018656708333333332
EXTRACT: pitchwheel channel=3 pitch=-5238 time=0.0018656708333333332
EXTRACT: pitchwheel channel=3 pitch=-5372 time=0.0037313416666666663
EXTRACT: pitchwheel channel=3 pitch=-5507 time=0.0018656708333333332
EXTRACT: pitchwheel channel=3 pitch=-5641 time=0.0018656708333333332
EXTRACT: pitchwheel channel=3 pitch=-5775 time=0.0018656708333333332
EXTRACT: pitchwheel channel=3 pitch=-5910 time=0.0018656708333333332
EXTRACT: pitchwheel channel=3 pitch=-6044 time=0
EXTRACT: pitchwheel channel=3 pitch=-6178 time=0.0018656708333333332
EXTRACT: pitchwheel channel=3 pitch=-6312 time=0.0018656708333333332
EXTRACT: pitchwheel channel=3 pitch=-6447 time=0.0018656708333333332
EXTRACT: pitchwheel channel=3 pitch=-6581 time=0.0037313416666666663
EXTRACT: pitchwheel channel=3 pitch=-6715 time=0.0018656708333333332
EXTRACT: pitchwheel channel=3 pitch=-6850 time=0.0018656708333333332
EXTRACT: pitchwheel channel=3 pitch=-6984 time=0.0018656708333333332
EXTRACT: pitchwheel channel=3 pitch=-7118 time=0.0018656708333333332
EXTRACT: note_on channel=2 note=64 velocity=0 time=0.0018656708333333332
EXTRACT: pitchwheel channel=3 pitch=-7252 time=0
EXTRACT: pitchwheel channel=3 pitch=-7387 time=0.0018656708333333332
EXTRACT: pitchwheel channel=3 pitch=-7521 time=0.0018656708333333332
EXTRACT: pitchwheel channel=3 pitch=-7655 time=0.0018656708333333332
EXTRACT: pitchwheel channel=3 pitch=-7790 time=0.0018656708333333332
EXTRACT: pitchwheel channel=3 pitch=-7924 time=0.0018656708333333332
EXTRACT: pitchwheel channel=3 pitch=-8058 time=0.0018656708333333332
EXTRACT: pitchwheel channel=3 pitch=-8192 time=0.0018656708333333332
EXTRACT: note_on channel=3 note=85 velocity=0 time=0.0018656708333333332
EXTRACT: note_on channel=2 note=68 velocity=90 time=0.007462683333333333
EXTRACT: note_on channel=2 note=59 velocity=0 time=0.09888055416666666
EXTRACT: pitchwheel channel=3 pitch=0 time=0.009328354166666665
EXTRACT: note_on channel=2 note=64 velocity=92 time=0.11567159166666666
EXTRACT: note_on channel=2 note=68 velocity=0 time=0.01865670833333333
EXTRACT: note_on channel=2 note=64 velocity=0 time=0.18843275416666666
EXTRACT: note_on channel=2 note=59 velocity=91 time=0
EXTRACT: note_on channel=3 note=86 velocity=100 time=0
EXTRACT: note_on channel=3 note=86 velocity=0 time=0.21641781666666665
EXTRACT: note_on channel=2 note=64 velocity=92 time=0.007462683333333333
EXTRACT: note_on channel=3 note=85 velocity=88 time=0
EXTRACT: note_on channel=2 note=59 velocity=0 time=0.18097007083333333
EXTRACT: note_on channel=2 note=64 velocity=0 time=0.016791037499999998
EXTRACT: note_on channel=3 note=85 velocity=0 time=0.01865670833333333
EXTRACT: note_on channel=2 note=68 velocity=87 time=0
EXTRACT: note_on channel=3 note=83 velocity=96 time=0
EXTRACT: note_on channel=2 note=68 velocity=0 time=0.19216409583333333
EXTRACT: note_on channel=3 note=83 velocity=0 time=0.024253720833333332
EXTRACT: note_on channel=2 note=64 velocity=92 time=0.007462683333333333
EXTRACT: note_on channel=3 note=81 velocity=87 time=0
EXTRACT: note_on channel=2 note=52 velocity=0 time=0.1473879958333333
EXTRACT: note_on channel=2 note=40 velocity=0 time=0
EXTRACT: note_on channel=2 note=64 velocity=0 time=0.0055970125
EXTRACT: note_on channel=3 note=81 velocity=0 time=0.03171640416666666
EXTRACT: pitchwheel channel=3 pitch=-8192 time=0.02985073333333333
EXTRACT: pitchwheel channel=3 pitch=-8058 time=0.0018656708333333332
EXTRACT: note_on channel=2 note=42 velocity=92 time=0
EXTRACT: note_on channel=2 note=49 velocity=94 time=0
EXTRACT: note_on channel=2 note=57 velocity=92 time=0
EXTRACT: note_on channel=3 note=85 velocity=100 time=0
EXTRACT: pitchwheel channel=3 pitch=-7924 time=0.020522379166666663
EXTRACT: pitchwheel channel=3 pitch=-7790 time=0.011194025
EXTRACT: pitchwheel channel=3 pitch=-7655 time=0.009328354166666665
EXTRACT: pitchwheel channel=3 pitch=-7521 time=0.007462683333333333
EXTRACT: pitchwheel channel=3 pitch=-7387 time=0.007462683333333333
EXTRACT: pitchwheel channel=3 pitch=-7252 time=0.007462683333333333
EXTRACT: pitchwheel channel=3 pitch=-7118 time=0.0055970125
EXTRACT: pitchwheel channel=3 pitch=-6984 time=0.0037313416666666663
EXTRACT: pitchwheel channel=3 pitch=-6850 time=0.0055970125
EXTRACT: pitchwheel channel=3 pitch=-6715 time=0.0037313416666666663
EXTRACT: control_change channel=2 control=64 value=0 time=0.0055970125
EXTRACT: pitchwheel channel=3 pitch=-6581 time=0
EXTRACT: pitchwheel channel=3 pitch=-6447 time=0.0055970125
EXTRACT: pitchwheel channel=3 pitch=-6312 time=0.0018656708333333332
EXTRACT: pitchwheel channel=3 pitch=-6178 time=0.0055970125
EXTRACT: pitchwheel channel=3 pitch=-6044 time=0.0037313416666666663
EXTRACT: pitchwheel channel=3 pitch=-5910 time=0.0037313416666666663
EXTRACT: pitchwheel channel=3 pitch=-5775 time=0.0037313416666666663
EXTRACT: pitchwheel channel=3 pitch=-5641 time=0.0018656708333333332
EXTRACT: pitchwheel channel=3 pitch=-5507 time=0.0037313416666666663
EXTRACT: pitchwheel channel=3 pitch=-5372 time=0.0037313416666666663
EXTRACT: pitchwheel channel=3 pitch=-5238 time=0.0037313416666666663
EXTRACT: pitchwheel channel=3 pitch=-5104 time=0.0018656708333333332
EXTRACT: pitchwheel channel=3 pitch=-4970 time=0.0037313416666666663
EXTRACT: pitchwheel channel=3 pitch=-4835 time=0.0037313416666666663
EXTRACT: pitchwheel channel=3 pitch=-4701 time=0.0018656708333333332
EXTRACT: pitchwheel channel=3 pitch=-4567 time=0.0018656708333333332
EXTRACT: pitchwheel channel=3 pitch=-4432 time=0.0037313416666666663
EXTRACT: pitchwheel channel=3 pitch=-4298 time=0.0037313416666666663
EXTRACT: pitchwheel channel=3 pitch=-4164 time=0.0018656708333333332
EXTRACT: pitchwheel channel=3 pitch=-4030 time=0.0037313416666666663
EXTRACT: pitchwheel channel=3 pitch=-3895 time=0.0018656708333333332
EXTRACT: pitchwheel channel=3 pitch=-3761 time=0.0037313416666666663
EXTRACT: pitchwheel channel=3 pitch=-3627 time=0.0018656708333333332
EXTRACT: pitchwheel channel=3 pitch=-3492 time=0.0018656708333333332
EXTRACT: pitchwheel channel=3 pitch=-3358 time=0.0018656708333333332
EXTRACT: pitchwheel channel=3 pitch=-3224 time=0.0037313416666666663
EXTRACT: pitchwheel channel=3 pitch=-3090 time=0.0018656708333333332
EXTRACT: pitchwheel channel=3 pitch=-2955 time=0.0018656708333333332
EXTRACT: pitchwheel channel=3 pitch=-2821 time=0.0037313416666666663
EXTRACT: pitchwheel channel=3 pitch=-2687 time=0.0018656708333333332
EXTRACT: pitchwheel channel=3 pitch=-2552 time=0.0018656708333333332
EXTRACT: pitchwheel channel=3 pitch=-2418 time=0.0018656708333333332
EXTRACT: pitchwheel channel=3 pitch=-2284 time=0.0018656708333333332
EXTRACT: pitchwheel channel=3 pitch=-2150 time=0.0018656708333333332
EXTRACT: pitchwheel channel=3 pitch=-2015 time=0.0037313416666666663
EXTRACT: pitchwheel channel=3 pitch=-1881 time=0.0018656708333333332
EXTRACT: pitchwheel channel=3 pitch=-1747 time=0.0018656708333333332
EXTRACT: pitchwheel channel=3 pitch=-1612 time=0.0018656708333333332
EXTRACT: pitchwheel channel=3 pitch=-1478 time=0.0018656708333333332
EXTRACT: pitchwheel channel=3 pitch=-1344 time=0.0018656708333333332
EXTRACT: pitchwheel channel=3 pitch=-1210 time=0.0018656708333333332
EXTRACT: pitchwheel channel=3 pitch=-1075 time=0.0018656708333333332
EXTRACT: pitchwheel channel=3 pitch=-941 time=0.0018656708333333332
EXTRACT: pitchwheel channel=3 pitch=-807 time=0.0037313416666666663
EXTRACT: pitchwheel channel=3 pitch=-672 time=0.0018656708333333332
EXTRACT: pitchwheel channel=3 pitch=-538 time=0.0018656708333333332
EXTRACT: pitchwheel channel=3 pitch=-404 time=0.0018656708333333332
EXTRACT: pitchwheel channel=3 pitch=-270 time=0.0018656708333333332
EXTRACT: pitchwheel channel=3 pitch=-135 time=0.0018656708333333332
EXTRACT: pitchwheel channel=3 pitch=-1 time=0.0018656708333333332
EXTRACT: pitchwheel channel=3 pitch=0 time=0.0018656708333333332
EXTRACT: note_on channel=2 note=61 velocity=87 time=0.0055970125
EXTRACT: control_change channel=2 control=64 value=127 time=0.07462683333333332
EXTRACT: note_on channel=3 note=85 velocity=0 time=0.016791037499999998
EXTRACT: pitchwheel channel=3 pitch=-8058 time=0.03171640416666666
EXTRACT: pitchwheel channel=3 pitch=-7924 time=0.0018656708333333332
EXTRACT: note_on channel=3 note=85 velocity=100 time=0
EXTRACT: pitchwheel channel=3 pitch=-7790 time=0.013059695833333333
EXTRACT: pitchwheel channel=3 pitch=-7655 time=0.009328354166666665
EXTRACT: pitchwheel channel=3 pitch=-7521 time=0.007462683333333333
EXTRACT: pitchwheel channel=3 pitch=-7387 time=0.007462683333333333
EXTRACT: pitchwheel channel=3 pitch=-7252 time=0.0055970125
EXTRACT: pitchwheel channel=3 pitch=-7118 time=0.0037313416666666663
EXTRACT: pitchwheel channel=3 pitch=-6984 time=0.0055970125
EXTRACT: pitchwheel channel=3 pitch=-6850 time=0.0037313416666666663
EXTRACT: pitchwheel channel=3 pitch=-6715 time=0.0055970125
EXTRACT: pitchwheel channel=3 pitch=-6581 time=0.0018656708333333332
EXTRACT: pitchwheel channel=3 pitch=-6447 time=0.0037313416666666663
EXTRACT: pitchwheel channel=3 pitch=-6312 time=0.0037313416666666663
EXTRACT: pitchwheel channel=3 pitch=-6178 time=0.0037313416666666663
EXTRACT: pitchwheel channel=3 pitch=-6044 time=0.0037313416666666663
EXTRACT: pitchwheel channel=3 pitch=-5910 time=0.0018656708333333332
EXTRACT: pitchwheel channel=3 pitch=-5775 time=0.0037313416666666663
EXTRACT: pitchwheel channel=3 pitch=-5641 time=0.0018656708333333332
EXTRACT: note_on channel=2 note=61 velocity=0 time=0.0037313416666666663
EXTRACT: note_on channel=2 note=69 velocity=91 time=0
EXTRACT: pitchwheel channel=3 pitch=-5507 time=0
EXTRACT: pitchwheel channel=3 pitch=-5372 time=0.0018656708333333332
EXTRACT: pitchwheel channel=3 pitch=-5238 time=0.0018656708333333332
EXTRACT: pitchwheel channel=3 pitch=-5104 time=0.0037313416666666663
EXTRACT: pitchwheel channel=3 pitch=-4970 time=0.0037313416666666663
EXTRACT: pitchwheel channel=3 pitch=-4835 time=0.0018656708333333332
EXTRACT: pitchwheel channel=3 pitch=-4701 time=0.0018656708333333332
EXTRACT: pitchwheel channel=3 pitch=-4567 time=0.0018656708333333332
EXTRACT: pitchwheel channel=3 pitch=-4432 time=0.0037313416666666663
EXTRACT: pitchwheel channel=3 pitch=-4298 time=0
EXTRACT: pitchwheel channel=3 pitch=-4164 time=0.0037313416666666663
EXTRACT: pitchwheel channel=3 pitch=-4030 time=0.0018656708333333332
EXTRACT: pitchwheel channel=3 pitch=-3895 time=0.0037313416666666663
EXTRACT: pitchwheel channel=3 pitch=-3761 time=0
EXTRACT: pitchwheel channel=3 pitch=-3627 time=0.0018656708333333332
EXTRACT: pitchwheel channel=3 pitch=-3492 time=0.0037313416666666663
EXTRACT: pitchwheel channel=3 pitch=-3358 time=0.0018656708333333332
EXTRACT: pitchwheel channel=3 pitch=-3224 time=0
EXTRACT: pitchwheel channel=3 pitch=-3090 time=0.0037313416666666663
EXTRACT: pitchwheel channel=3 pitch=-2955 time=0.0018656708333333332
EXTRACT: pitchwheel channel=3 pitch=-2821 time=0.0018656708333333332
EXTRACT: pitchwheel channel=3 pitch=-2687 time=0
EXTRACT: pitchwheel channel=3 pitch=-2552 time=0.0037313416666666663
EXTRACT: pitchwheel channel=3 pitch=-2418 time=0.0018656708333333332
EXTRACT: pitchwheel channel=3 pitch=-2284 time=0.0018656708333333332
EXTRACT: pitchwheel channel=3 pitch=-2150 time=0.0018656708333333332
EXTRACT: pitchwheel channel=3 pitch=-2015 time=0
EXTRACT: pitchwheel channel=3 pitch=-1881 time=0.0037313416666666663
EXTRACT: pitchwheel channel=3 pitch=-1747 time=0.0018656708333333332
EXTRACT: pitchwheel channel=3 pitch=-1612 time=0.0018656708333333332
EXTRACT: pitchwheel channel=3 pitch=-1478 time=0
EXTRACT: pitchwheel channel=3 pitch=-1344 time=0.0018656708333333332
EXTRACT: pitchwheel channel=3 pitch=-1210 time=0.0018656708333333332
EXTRACT: pitchwheel channel=3 pitch=-1075 time=0.0018656708333333332
EXTRACT: pitchwheel channel=3 pitch=-941 time=0.0018656708333333332
EXTRACT: pitchwheel channel=3 pitch=-807 time=0.0018656708333333332
EXTRACT: pitchwheel channel=3 pitch=-672 time=0
EXTRACT: pitchwheel channel=3 pitch=-538 time=0.0018656708333333332
EXTRACT: pitchwheel channel=3 pitch=-404 time=0.0018656708333333332
EXTRACT: pitchwheel channel=3 pitch=-270 time=0.0018656708333333332
EXTRACT: pitchwheel channel=3 pitch=-135 time=0.0018656708333333332
EXTRACT: pitchwheel channel=3 pitch=-1 time=0.0018656708333333332
EXTRACT: note_on channel=2 note=61 velocity=87 time=0.14365665416666665
EXTRACT: note_on channel=2 note=69 velocity=0 time=0.011194025
EXTRACT: note_on channel=2 note=57 velocity=0 time=0
EXTRACT: note_on channel=2 note=61 velocity=0 time=0.19962677916666666
EXTRACT: note_on channel=2 note=57 velocity=94 time=0.013059695833333333
EXTRACT: note_on channel=3 note=85 velocity=0 time=0.18656708333333333
EXTRACT: pitchwheel channel=3 pitch=-8192 time=0.03171640416666666
EXTRACT: pitchwheel channel=3 pitch=-8058 time=0.0018656708333333332
EXTRACT: note_on channel=2 note=61 velocity=91 time=0
EXTRACT: note_on channel=3 note=85 velocity=95 time=0
EXTRACT: pitchwheel channel=3 pitch=-7924 time=0.016791037499999998
EXTRACT: pitchwheel channel=3 pitch=-7790 time=0.011194025
EXTRACT: pitchwheel channel=3 pitch=-7655 time=0.0055970125
EXTRACT: pitchwheel channel=3 pitch=-7521 time=0.007462683333333333
EXTRACT: pitchwheel channel=3 pitch=-7387 time=0.0055970125
EXTRACT: pitchwheel channel=3 pitch=-7252 time=0.0037313416666666663
EXTRACT: pitchwheel channel=3 pitch=-7118 time=0.0037313416666666663
EXTRACT: pitchwheel channel=3 pitch=-6984 time=0.0037313416666666663
EXTRACT: pitchwheel channel=3 pitch=-6850 time=0.0055970125
EXTRACT: pitchwheel channel=3 pitch=-6715 time=0.0018656708333333332
EXTRACT: pitchwheel channel=3 pitch=-6581 time=0.0055970125
EXTRACT: pitchwheel channel=3 pitch=-6447 time=0.0018656708333333332
EXTRACT: pitchwheel channel=3 pitch=-6312 time=0.0037313416666666663
EXTRACT: pitchwheel channel=3 pitch=-6178 time=0.0018656708333333332
EXTRACT: pitchwheel channel=3 pitch=-6044 time=0.0037313416666666663
EXTRACT: pitchwheel channel=3 pitch=-5910 time=0.0018656708333333332
EXTRACT: pitchwheel channel=3 pitch=-5775 time=0.0037313416666666663
EXTRACT: pitchwheel channel=3 pitch=-5641 time=0.0018656708333333332
EXTRACT: pitchwheel channel=3 pitch=-5507 time=0.0037313416666666663
EXTRACT: pitchwheel channel=3 pitch=-5372 time=0.0018656708333333332
EXTRACT: pitchwheel channel=3 pitch=-5238 time=0.0037313416666666663
EXTRACT: pitchwheel channel=3 pitch=-5104 time=0.0018656708333333332
EXTRACT: pitchwheel channel=3 pitch=-4970 time=0.0018656708333333332
EXTRACT: pitchwheel channel=3 pitch=-4835 time=0.0037313416666666663
EXTRACT: pitchwheel channel=3 pitch=-4701 time=0
EXTRACT: pitchwheel channel=3 pitch=-4567 time=0.0037313416666666663
EXTRACT: pitchwheel channel=3 pitch=-4432 time=0.0018656708333333332
EXTRACT: pitchwheel channel=3 pitch=-4298 time=0.0018656708333333332
EXTRACT: pitchwheel channel=3 pitch=-4164 time=0.0018656708333333332
EXTRACT: pitchwheel channel=3 pitch=-4030 time=0.0037313416666666663
EXTRACT: pitchwheel channel=3 pitch=-3895 time=0
EXTRACT: pitchwheel channel=3 pitch=-3761 time=0.0037313416666666663
EXTRACT: pitchwheel channel=3 pitch=-3627 time=0.0018656708333333332
EXTRACT: pitchwheel channel=3 pitch=-3492 time=0
EXTRACT: pitchwheel channel=3 pitch=-3358 time=0.0037313416666666663
EXTRACT: pitchwheel channel=3 pitch=-3224 time=0.0018656708333333332
EXTRACT: pitchwheel channel=3 pitch=-3090 time=0
EXTRACT: pitchwheel channel=3 pitch=-2955 time=0.0037313416666666663
EXTRACT: pitchwheel channel=3 pitch=-2821 time=0.0018656708333333332
EXTRACT: pitchwheel channel=3 pitch=-2687 time=0
EXTRACT: pitchwheel channel=3 pitch=-2552 time=0.0018656708333333332
EXTRACT: pitchwheel channel=3 pitch=-2418 time=0.0037313416666666663
EXTRACT: pitchwheel channel=3 pitch=-2284 time=0
EXTRACT: pitchwheel channel=3 pitch=-2150 time=0.0018656708333333332
EXTRACT: pitchwheel channel=3 pitch=-2015 time=0.0018656708333333332
EXTRACT: pitchwheel channel=3 pitch=-1881 time=0.0018656708333333332
EXTRACT: pitchwheel channel=3 pitch=-1747 time=0.0018656708333333332
EXTRACT: pitchwheel channel=3 pitch=-1612 time=0.0018656708333333332
EXTRACT: pitchwheel channel=3 pitch=-1478 time=0.0018656708333333332
EXTRACT: pitchwheel channel=3 pitch=-1344 time=0.0018656708333333332
EXTRACT: pitchwheel channel=3 pitch=-1210 time=0
EXTRACT: pitchwheel channel=3 pitch=-1075 time=0.0018656708333333332
EXTRACT: pitchwheel channel=3 pitch=-941 time=0.0018656708333333332
EXTRACT: pitchwheel channel=3 pitch=-807 time=0.0018656708333333332
EXTRACT: pitchwheel channel=3 pitch=-672 time=0
EXTRACT: pitchwheel channel=3 pitch=-538 time=0.0018656708333333332
EXTRACT: pitchwheel channel=3 pitch=-404 time=0.0018656708333333332
EXTRACT: pitchwheel channel=3 pitch=-270 time=0.0018656708333333332
EXTRACT: pitchwheel channel=3 pitch=-135 time=0
EXTRACT: pitchwheel channel=3 pitch=-1 time=0.0018656708333333332
EXTRACT: pitchwheel channel=3 pitch=0 time=0.0018656708333333332
EXTRACT: note_on channel=2 note=61 velocity=0 time=0.02238805
EXTRACT: note_on channel=2 note=69 velocity=91 time=0.03171640416666666
EXTRACT: note_on channel=2 note=57 velocity=0 time=0.04664177083333333
EXTRACT: note_on channel=3 note=85 velocity=0 time=0.1473879958333333
EXTRACT: pitchwheel channel=3 pitch=8191 time=0.020522379166666663
EXTRACT: note_on channel=2 note=61 velocity=91 time=0
EXTRACT: note_on channel=3 note=81 velocity=93 time=0
EXTRACT: note_on channel=2 note=69 velocity=0 time=0.0037313416666666663
EXTRACT: pitchwheel channel=3 pitch=8056 time=0.06343280833333333
EXTRACT: pitchwheel channel=3 pitch=7788 time=0.0018656708333333332
EXTRACT: pitchwheel channel=3 pitch=7519 time=0.0018656708333333332
EXTRACT: pitchwheel channel=3 pitch=7519 time=0.0018656708333333332
EXTRACT: pitchwheel channel=3 pitch=7385 time=0.0037313416666666663
EXTRACT: pitchwheel channel=3 pitch=7116 time=0.0018656708333333332
EXTRACT: pitchwheel channel=3 pitch=7116 time=0.0018656708333333332
EXTRACT: pitchwheel channel=3 pitch=6982 time=0
EXTRACT: pitchwheel channel=3 pitch=6713 time=0.0018656708333333332
EXTRACT: pitchwheel channel=3 pitch=6310 time=0.0018656708333333332
EXTRACT: pitchwheel channel=3 pitch=6042 time=0.0018656708333333332
EXTRACT: pitchwheel channel=3 pitch=6042 time=0.0037313416666666663
EXTRACT: pitchwheel channel=3 pitch=5908 time=0.0018656708333333332
EXTRACT: pitchwheel channel=3 pitch=5773 time=0
EXTRACT: pitchwheel channel=3 pitch=5505 time=0.0018656708333333332
EXTRACT: pitchwheel channel=3 pitch=5370 time=0.0018656708333333332
EXTRACT: pitchwheel channel=3 pitch=5370 time=0.0018656708333333332
EXTRACT: pitchwheel channel=3 pitch=5236 time=0.0018656708333333332
EXTRACT: pitchwheel channel=3 pitch=4833 time=0.0018656708333333332
EXTRACT: pitchwheel channel=3 pitch=4699 time=0.0018656708333333332
EXTRACT: pitchwheel channel=3 pitch=4430 time=0
EXTRACT: pitchwheel channel=3 pitch=4162 time=0.0018656708333333332
EXTRACT: pitchwheel channel=3 pitch=3893 time=0.0037313416666666663
EXTRACT: pitchwheel channel=3 pitch=3625 time=0.0018656708333333332
EXTRACT: pitchwheel channel=3 pitch=3356 time=0.0037313416666666663
EXTRACT: pitchwheel channel=3 pitch=3356 time=0.0018656708333333332
EXTRACT: pitchwheel channel=3 pitch=3222 time=0
EXTRACT: pitchwheel channel=3 pitch=3088 time=0.0018656708333333332
EXTRACT: pitchwheel channel=3 pitch=2550 time=0.0018656708333333332
EXTRACT: pitchwheel channel=3 pitch=2550 time=0.0018656708333333332
EXTRACT: pitchwheel channel=3 pitch=2550 time=0.0018656708333333332
EXTRACT: pitchwheel channel=3 pitch=2148 time=0.0018656708333333332
EXTRACT: pitchwheel channel=3 pitch=2013 time=0.0018656708333333332
EXTRACT: pitchwheel channel=3 pitch=1745 time=0
EXTRACT: pitchwheel channel=3 pitch=1745 time=0.0018656708333333332
EXTRACT: pitchwheel channel=3 pitch=1610 time=0.0018656708333333332
EXTRACT: pitchwheel channel=3 pitch=1476 time=0.0018656708333333332
EXTRACT: pitchwheel channel=3 pitch=1208 time=0.0018656708333333332
EXTRACT: pitchwheel channel=3 pitch=939 time=0
EXTRACT: pitchwheel channel=3 pitch=670 time=0.0018656708333333332
EXTRACT: pitchwheel channel=3 pitch=670 time=0.0018656708333333332
EXTRACT: pitchwheel channel=3 pitch=670 time=0.0018656708333333332
EXTRACT: pitchwheel channel=3 pitch=0 time=0.0055970125
EXTRACT: note_on channel=2 note=61 velocity=0 time=0.055970124999999996
EXTRACT: note_on channel=3 note=81 velocity=0 time=0.014925366666666665
EXTRACT: note_on channel=2 note=49 velocity=0 time=0
EXTRACT: note_on channel=2 note=42 velocity=0 time=0
EXTRACT: note_on channel=2 note=38 velocity=92 time=0.007462683333333333
EXTRACT: note_on channel=2 note=50 velocity=94 time=0
EXTRACT: note_on channel=2 note=57 velocity=92 time=0
EXTRACT: note_on channel=3 note=78 velocity=88 time=0
EXTRACT: control_change channel=2 control=64 value=0 time=0.10820890833333333
EXTRACT: note_on channel=2 note=62 velocity=89 time=0.11567159166666666
EXTRACT: control_change channel=2 control=64 value=127 time=0.0018656708333333332
EXTRACT: note_on channel=2 note=62 velocity=0 time=0.1958954375
EXTRACT: note_on channel=2 note=69 velocity=91 time=0.026119391666666665
EXTRACT: note_on channel=2 note=57 velocity=0 time=0.08395518749999999
EXTRACT: note_on channel=2 note=62 velocity=88 time=0.13992531249999998
EXTRACT: note_on channel=2 note=69 velocity=0 time=0.03171640416666666
EXTRACT: note_on channel=3 note=78 velocity=0 time=0.15111933749999998
EXTRACT: note_on channel=2 note=62 velocity=0 time=0.007462683333333333
EXTRACT: note_on channel=2 note=57 velocity=94 time=0
EXTRACT: note_on channel=3 note=81 velocity=99 time=0
EXTRACT: note_on channel=3 note=81 velocity=0 time=0.19216409583333333
EXTRACT: note_on channel=2 note=62 velocity=90 time=0
EXTRACT: note_on channel=3 note=81 velocity=100 time=0
EXTRACT: note_on channel=2 note=62 velocity=0 time=0.1753730583333333
EXTRACT: note_on channel=2 note=69 velocity=93 time=0.048507441666666665
EXTRACT: note_on channel=2 note=57 velocity=0 time=0.14925366666666665
EXTRACT: note_on channel=3 note=81 velocity=0 time=0.0447761
EXTRACT: note_on channel=2 note=62 velocity=89 time=0
EXTRACT: note_on channel=3 note=81 velocity=99 time=0
EXTRACT: note_on channel=2 note=69 velocity=0 time=0.016791037499999998
EXTRACT: note_on channel=2 note=38 velocity=0 time=0.09141787083333333
EXTRACT: note_on channel=2 note=50 velocity=0 time=0.05783579583333333
EXTRACT: note_on channel=2 note=62 velocity=0 time=0.01865670833333333
EXTRACT: note_on channel=3 note=81 velocity=0 time=0.0037313416666666663
EXTRACT: control_change channel=2 control=64 value=0 time=0.02985073333333333
EXTRACT: note_on channel=2 note=33 velocity=91 time=0
EXTRACT: note_on channel=2 note=45 velocity=91 time=0
EXTRACT: note_on channel=2 note=57 velocity=91 time=0
EXTRACT: note_on channel=3 note=81 velocity=102 time=0
EXTRACT: note_on channel=2 note=61 velocity=89 time=0.22388049999999998
EXTRACT: control_change channel=2 control=64 value=127 time=0.12686561666666665
EXTRACT: note_on channel=2 note=69 velocity=92 time=0.09701488333333333
EXTRACT: note_on channel=2 note=61 velocity=0 time=0.03171640416666666
EXTRACT: note_on channel=2 note=57 velocity=0 time=0.09141787083333333
EXTRACT: note_on channel=3 note=81 velocity=0 time=0.09328354166666666
EXTRACT: note_on channel=2 note=61 velocity=92 time=0
EXTRACT: note_on channel=3 note=76 velocity=86 time=0
EXTRACT: note_on channel=2 note=69 velocity=0 time=0.020522379166666663
EXTRACT: note_on channel=3 note=76 velocity=0 time=0.16044769166666664
EXTRACT: note_on channel=2 note=61 velocity=0 time=0.027985062499999998
EXTRACT: note_on channel=2 note=57 velocity=90 time=0
EXTRACT: note_on channel=3 note=76 velocity=97 time=0
EXTRACT: note_on channel=2 note=61 velocity=91 time=0.22388049999999998
EXTRACT: note_on channel=2 note=61 velocity=0 time=0.22014915833333332
EXTRACT: note_on channel=2 note=69 velocity=86 time=0.0037313416666666663
EXTRACT: note_on channel=2 note=57 velocity=0 time=0.007462683333333333
EXTRACT: note_on channel=3 note=76 velocity=0 time=0.18097007083333333
EXTRACT: note_on channel=2 note=61 velocity=91 time=0
EXTRACT: note_on channel=3 note=76 velocity=88 time=0
EXTRACT: note_on channel=2 note=69 velocity=0 time=0.03171640416666666
EXTRACT: note_on channel=2 note=33 velocity=0 time=0.10634323749999999
EXTRACT: note_on channel=2 note=45 velocity=0 time=0.009328354166666665
EXTRACT: note_on channel=3 note=76 velocity=0 time=0.05410445416666666
EXTRACT: note_on channel=2 note=61 velocity=0 time=0.009328354166666665
EXTRACT: note_on channel=2 note=40 velocity=94 time=0
EXTRACT: note_on channel=2 note=47 velocity=94 time=0
EXTRACT: note_on channel=2 note=56 velocity=92 time=0
EXTRACT: note_on channel=3 note=78 velocity=97 time=0
EXTRACT: control_change channel=2 control=64 value=0 time=0.18656708333333333
EXTRACT: note_on channel=3 note=78 velocity=0 time=0.02985073333333333
EXTRACT: note_on channel=2 note=59 velocity=91 time=0
EXTRACT: note_on channel=3 note=76 velocity=94 time=0
EXTRACT: control_change channel=2 control=64 value=127 time=0.09888055416666666
EXTRACT: note_on channel=2 note=59 velocity=0 time=0.10261189583333333
EXTRACT: note_on channel=2 note=68 velocity=89 time=0.02238805
EXTRACT: note_on channel=2 note=56 velocity=0 time=0.09888055416666666
EXTRACT: note_on channel=3 note=76 velocity=0 time=0.0895522
EXTRACT: note_on channel=2 note=59 velocity=91 time=0
EXTRACT: note_on channel=3 note=76 velocity=87 time=0
EXTRACT: note_on channel=2 note=68 velocity=0 time=0.01865670833333333
EXTRACT: note_on channel=3 note=76 velocity=0 time=0.1641790333333333
EXTRACT: note_on channel=2 note=59 velocity=0 time=0.024253720833333332
EXTRACT: pitchwheel channel=3 pitch=8191 time=0.0037313416666666663
EXTRACT: pitchwheel channel=3 pitch=8191 time=0.0037313416666666663
EXTRACT: pitchwheel channel=3 pitch=8191 time=0.0018656708333333332
EXTRACT: pitchwheel channel=3 pitch=7901 time=0.0018656708333333332
EXTRACT: note_on channel=2 note=56 velocity=90 time=0
EXTRACT: note_on channel=3 note=71 velocity=100 time=0
EXTRACT: pitchwheel channel=3 pitch=7611 time=0
EXTRACT: pitchwheel channel=3 pitch=7611 time=0.0055970125
EXTRACT: pitchwheel channel=3 pitch=7466 time=0.0037313416666666663
EXTRACT: pitchwheel channel=3 pitch=7611 time=0.0037313416666666663
EXTRACT: pitchwheel channel=3 pitch=7321 time=0
EXTRACT: pitchwheel channel=3 pitch=7176 time=0.0037313416666666663
EXTRACT: pitchwheel channel=3 pitch=7031 time=0.0018656708333333332
EXTRACT: pitchwheel channel=3 pitch=6886 time=0.0018656708333333332
EXTRACT: pitchwheel channel=3 pitch=6886 time=0.0018656708333333332
EXTRACT: pitchwheel channel=3 pitch=6886 time=0.0037313416666666663
EXTRACT: pitchwheel channel=3 pitch=6741 time=0.0037313416666666663
EXTRACT: pitchwheel channel=3 pitch=6596 time=0.0018656708333333332
EXTRACT: pitchwheel channel=3 pitch=6161 time=0
EXTRACT: pitchwheel channel=3 pitch=6161 time=0.0037313416666666663
EXTRACT: pitchwheel channel=3 pitch=6161 time=0.0037313416666666663
EXTRACT: pitchwheel channel=3 pitch=6161 time=0
EXTRACT: pitchwheel channel=3 pitch=6016 time=0.0037313416666666663
EXTRACT: pitchwheel channel=3 pitch=5871 time=0
EXTRACT: pitchwheel channel=3 pitch=5871 time=0.0018656708333333332
EXTRACT: pitchwheel channel=3 pitch=5726 time=0.0018656708333333332
EXTRACT: pitchwheel channel=3 pitch=5291 time=0.0018656708333333332
EXTRACT: pitchwheel channel=3 pitch=5291 time=0.0018656708333333332
EXTRACT: pitchwheel channel=3 pitch=5291 time=0.0018656708333333332
EXTRACT: pitchwheel channel=3 pitch=5291 time=0.0018656708333333332
EXTRACT: pitchwheel channel=3 pitch=5291 time=0.0018656708333333332
EXTRACT: pitchwheel channel=3 pitch=5291 time=0.0018656708333333332
EXTRACT: pitchwheel channel=3 pitch=5146 time=0.0037313416666666663
EXTRACT: pitchwheel channel=3 pitch=5146 time=0
EXTRACT: pitchwheel channel=3 pitch=5001 time=0.0037313416666666663
EXTRACT: pitchwheel channel=3 pitch=5001 time=0
EXTRACT: pitchwheel channel=3 pitch=5001 time=0
EXTRACT: pitchwheel channel=3 pitch=4856 time=0.0018656708333333332
EXTRACT: pitchwheel channel=3 pitch=4856 time=0.0018656708333333332
EXTRACT: pitchwheel channel=3 pitch=4711 time=0.0018656708333333332
EXTRACT: pitchwheel channel=3 pitch=4711 time=0
EXTRACT: pitchwheel channel=3 pitch=4421 time=0.0018656708333333332
EXTRACT: pitchwheel channel=3 pitch=4421 time=0.0018656708333333332
EXTRACT: pitchwheel channel=3 pitch=4421 time=0
EXTRACT: pitchwheel channel=3 pitch=4276 time=0.0037313416666666663
EXTRACT: pitchwheel channel=3 pitch=4276 time=0
EXTRACT: pitchwheel channel=3 pitch=4131 time=0
EXTRACT: pitchwheel channel=3 pitch=4131 time=0.0018656708333333332
EXTRACT: pitchwheel channel=3 pitch=4131 time=0.0018656708333333332
EXTRACT: pitchwheel channel=3 pitch=3986 time=0.0018656708333333332
EXTRACT: pitchwheel channel=3 pitch=3986 time=0
EXTRACT: pitchwheel channel=3 pitch=3986 time=0.0018656708333333332
EXTRACT: pitchwheel channel=3 pitch=3841 time=0
EXTRACT: pitchwheel channel=3 pitch=3406 time=0.0018656708333333332
EXTRACT: pitchwheel channel=3 pitch=3406 time=0.0018656708333333332
EXTRACT: pitchwheel channel=3 pitch=3406 time=0.0018656708333333332
EXTRACT: pitchwheel channel=3 pitch=3406 time=0.0018656708333333332
EXTRACT: pitchwheel channel=3 pitch=3406 time=0
EXTRACT: pitchwheel channel=3 pitch=3406 time=0
EXTRACT: pitchwheel channel=3 pitch=3406 time=0.0037313416666666663
EXTRACT: pitchwheel channel=3 pitch=3261 time=0.0018656708333333332
EXTRACT: pitchwheel channel=3 pitch=3261 time=0.0018656708333333332
EXTRACT: pitchwheel channel=3 pitch=3261 time=0
EXTRACT: pitchwheel channel=3 pitch=3261 time=0
EXTRACT: pitchwheel channel=3 pitch=3116 time=0.0018656708333333332
EXTRACT: pitchwheel channel=3 pitch=3116 time=0
EXTRACT: pitchwheel channel=3 pitch=3116 time=0.0018656708333333332
EXTRACT: pitchwheel channel=3 pitch=2971 time=0.0018656708333333332
EXTRACT: pitchwheel channel=3 pitch=2971 time=0
EXTRACT: pitchwheel channel=3 pitch=2971 time=0.0018656708333333332
EXTRACT: pitchwheel channel=3 pitch=2826 time=0
EXTRACT: pitchwheel channel=3 pitch=2826 time=0.0018656708333333332
EXTRACT: pitchwheel channel=3 pitch=2826 time=0
EXTRACT: pitchwheel channel=3 pitch=2681 time=0.0018656708333333332
EXTRACT: pitchwheel channel=3 pitch=2681 time=0.0018656708333333332
EXTRACT: pitchwheel channel=3 pitch=2681 time=0
EXTRACT: pitchwheel channel=3 pitch=2391 time=0.0018656708333333332
EXTRACT: pitchwheel channel=3 pitch=2101 time=0
EXTRACT: pitchwheel channel=3 pitch=2101 time=0
EXTRACT: pitchwheel channel=3 pitch=2101 time=0.0018656708333333332
EXTRACT: pitchwheel channel=3 pitch=2101 time=0.0018656708333333332
EXTRACT: pitchwheel channel=3 pitch=1811 time=0
EXTRACT: pitchwheel channel=3 pitch=1811 time=0.0018656708333333332
EXTRACT: pitchwheel channel=3 pitch=1811 time=0
EXTRACT: pitchwheel channel=3 pitch=1666 time=0.0018656708333333332
EXTRACT: pitchwheel channel=3 pitch=1666 time=0
EXTRACT: pitchwheel channel=3 pitch=1666 time=0.0018656708333333332
EXTRACT: pitchwheel channel=3 pitch=1666 time=0.0018656708333333332
EXTRACT: pitchwheel channel=3 pitch=1666 time=0.0018656708333333332
EXTRACT: pitchwheel channel=3 pitch=1521 time=0
EXTRACT: pitchwheel channel=3 pitch=1521 time=0
EXTRACT: pitchwheel channel=3 pitch=1521 time=0.0018656708333333332
EXTRACT: pitchwheel channel=3 pitch=1231 time=0.0018656708333333332
EXTRACT: pitchwheel channel=3 pitch=1231 time=0
EXTRACT: pitchwheel channel=3 pitch=1231 time=0.0018656708333333332
EXTRACT: pitchwheel channel=3 pitch=1231 time=0.0018656708333333332
EXTRACT: pitchwheel channel=3 pitch=1086 time=0
EXTRACT: pitchwheel channel=3 pitch=1086 time=0
EXTRACT: pitchwheel channel=3 pitch=1086 time=0.0018656708333333332
EXTRACT: pitchwheel channel=3 pitch=1086 time=0.0018656708333333332
EXTRACT: pitchwheel channel=3 pitch=796 time=0.0018656708333333332
EXTRACT: pitchwheel channel=3 pitch=651 time=0.0037313416666666663
EXTRACT: pitchwheel channel=3 pitch=506 time=0.0037313416666666663
EXTRACT: pitchwheel channel=3 pitch=216 time=0.0018656708333333332
EXTRACT: note_on channel=2 note=59 velocity=91 time=0.07276116249999999
EXTRACT: note_on channel=2 note=56 velocity=0 time=0.18097007083333333
EXTRACT: note_on channel=2 note=59 velocity=0 time=0.016791037499999998
EXTRACT: note_on channel=2 note=68 velocity=86 time=0.026119391666666665
EXTRACT: note_on channel=3 note=71 velocity=0 time=0.18843275416666666
EXTRACT: note_on channel=2 note=68 velocity=0 time=0.0037313416666666663
EXTRACT: pitchwheel channel=3 pitch=-8192 time=0.02238805
EXTRACT: note_on channel=2 note=59 velocity=91 time=0
EXTRACT: note_on channel=3 note=71 velocity=94 time=0
EXTRACT: pitchwheel channel=3 pitch=-8058 time=0.009328354166666665
EXTRACT: pitchwheel channel=3 pitch=-7924 time=0.007462683333333333
EXTRACT: pitchwheel channel=3 pitch=-7790 time=0.0055970125
EXTRACT: pitchwheel channel=3 pitch=-7655 time=0.007462683333333333
EXTRACT: pitchwheel channel=3 pitch=-7521 time=0.0037313416666666663
EXTRACT: pitchwheel channel=3 pitch=-7387 time=0.0037313416666666663
EXTRACT: pitchwheel channel=3 pitch=-7252 time=0.0037313416666666663
EXTRACT: pitchwheel channel=3 pitch=-7118 time=0.0037313416666666663
EXTRACT: pitchwheel channel=3 pitch=-6984 time=0.0018656708333333332
EXTRACT: pitchwheel channel=3 pitch=-6850 time=0.0037313416666666663
EXTRACT: pitchwheel channel=3 pitch=-6715 time=0.0018656708333333332
EXTRACT: pitchwheel channel=3 pitch=-6581 time=0.0037313416666666663
EXTRACT: pitchwheel channel=3 pitch=-6447 time=0.0037313416666666663
EXTRACT: pitchwheel channel=3 pitch=-6312 time=0.0018656708333333332
EXTRACT: pitchwheel channel=3 pitch=-6178 time=0.0018656708333333332
EXTRACT: pitchwheel channel=3 pitch=-6044 time=0.0018656708333333332
EXTRACT: pitchwheel channel=3 pitch=-5910 time=0.0018656708333333332
EXTRACT: pitchwheel channel=3 pitch=-5775 time=0.0037313416666666663
EXTRACT: pitchwheel channel=3 pitch=-5641 time=0.0018656708333333332
EXTRACT: pitchwheel channel=3 pitch=-5507 time=0.0018656708333333332
EXTRACT: pitchwheel channel=3 pitch=-5372 time=0.0018656708333333332
EXTRACT: pitchwheel channel=3 pitch=-5238 time=0.0037313416666666663
EXTRACT: pitchwheel channel=3 pitch=-5104 time=0
EXTRACT: pitchwheel channel=3 pitch=-4970 time=0.0018656708333333332
EXTRACT: pitchwheel channel=3 pitch=-4835 time=0.0018656708333333332
EXTRACT: pitchwheel channel=3 pitch=-4701 time=0.0037313416666666663
EXTRACT: pitchwheel channel=3 pitch=-4567 time=0
EXTRACT: pitchwheel channel=3 pitch=-4432 time=0.0018656708333333332
EXTRACT: pitchwheel channel=3 pitch=-4298 time=0.0018656708333333332
EXTRACT: pitchwheel channel=3 pitch=-4164 time=0.0037313416666666663
EXTRACT: pitchwheel channel=3 pitch=-4030 time=0
EXTRACT: pitchwheel channel=3 pitch=-3895 time=0.0018656708333333332
EXTRACT: pitchwheel channel=3 pitch=-3761 time=0.0018656708333333332
EXTRACT: pitchwheel channel=3 pitch=-3627 time=0.0018656708333333332
EXTRACT: pitchwheel channel=3 pitch=-3492 time=0.0018656708333333332
EXTRACT: pitchwheel channel=3 pitch=-3358 time=0
EXTRACT: pitchwheel channel=3 pitch=-3224 time=0.0018656708333333332
EXTRACT: pitchwheel channel=3 pitch=-3090 time=0.0018656708333333332
EXTRACT: pitchwheel channel=3 pitch=-2955 time=0.0018656708333333332
EXTRACT: pitchwheel channel=3 pitch=-2821 time=0
EXTRACT: pitchwheel channel=3 pitch=-2687 time=0.0018656708333333332
EXTRACT: pitchwheel channel=3 pitch=-2552 time=0.0018656708333333332
EXTRACT: pitchwheel channel=3 pitch=-2418 time=0.0018656708333333332
EXTRACT: pitchwheel channel=3 pitch=-2284 time=0.0018656708333333332
EXTRACT: pitchwheel channel=3 pitch=-2150 time=0
EXTRACT: pitchwheel channel=3 pitch=-2015 time=0.0018656708333333332
EXTRACT: pitchwheel channel=3 pitch=-1881 time=0.0018656708333333332
EXTRACT: pitchwheel channel=3 pitch=-1747 time=0.0018656708333333332
EXTRACT: pitchwheel channel=3 pitch=-1612 time=0.0018656708333333332
EXTRACT: pitchwheel channel=3 pitch=-1344 time=0
EXTRACT: pitchwheel channel=3 pitch=-1210 time=0.0018656708333333332
EXTRACT: pitchwheel channel=3 pitch=-1075 time=0.0018656708333333332
EXTRACT: pitchwheel channel=3 pitch=-941 time=0.0018656708333333332
EXTRACT: pitchwheel channel=3 pitch=-807 time=0.0018656708333333332
EXTRACT: pitchwheel channel=3 pitch=-672 time=0
EXTRACT: pitchwheel channel=3 pitch=-404 time=0.0018656708333333332
EXTRACT: pitchwheel channel=3 pitch=-270 time=0.0018656708333333332
EXTRACT: pitchwheel channel=3 pitch=-135 time=0.0018656708333333332
EXTRACT: pitchwheel channel=3 pitch=-1 time=0.0018656708333333332
EXTRACT: note_on channel=2 note=47 velocity=0 time=0.009328354166666665
EXTRACT: note_on channel=2 note=40 velocity=0 time=0
EXTRACT: note_on channel=2 note=59 velocity=0 time=0.0055970125
EXTRACT: note_on channel=2 note=42 velocity=91 time=0.07089549166666666
EXTRACT: note_on channel=2 note=49 velocity=93 time=0
EXTRACT: note_on channel=2 note=57 velocity=91 time=0
EXTRACT: control_change channel=2 control=64 value=0 time=0.08768652916666665
EXTRACT: note_on channel=3 note=71 velocity=0 time=0.100746225
EXTRACT: note_on channel=2 note=61 velocity=89 time=0
EXTRACT: note_on channel=3 note=69 velocity=92 time=0
EXTRACT: control_change channel=2 control=64 value=127 time=0.07462683333333332
EXTRACT: note_on channel=2 note=61 velocity=0 time=0.14925366666666665
EXTRACT: note_on channel=2 note=66 velocity=90 time=0
EXTRACT: note_on channel=2 note=61 velocity=86 time=0.22388049999999998
EXTRACT: note_on channel=2 note=66 velocity=0 time=0.011194025
EXTRACT: note_on channel=2 note=57 velocity=0 time=0
EXTRACT: note_on channel=2 note=61 velocity=0 time=0.19962677916666666
EXTRACT: note_on channel=2 note=57 velocity=93 time=0.013059695833333333
EXTRACT: note_on channel=2 note=61 velocity=90 time=0.22388049999999998
EXTRACT: note_on channel=2 note=61 velocity=0 time=0.19216409583333333
EXTRACT: note_on channel=2 note=66 velocity=90 time=0.03171640416666666
EXTRACT: note_on channel=2 note=57 velocity=0 time=0.04664177083333333
EXTRACT: note_on channel=2 note=61 velocity=90 time=0.17723872916666664
EXTRACT: note_on channel=2 note=66 velocity=0 time=0.0037313416666666663
EXTRACT: note_on channel=3 note=69 velocity=0 time=0.18283574166666666
EXTRACT: note_on channel=2 note=61 velocity=0 time=0.014925366666666665
EXTRACT: note_on channel=2 note=49 velocity=0 time=0.014925366666666665
EXTRACT: note_on channel=2 note=42 velocity=0 time=0
EXTRACT: pitchwheel channel=3 pitch=-8048 time=0
EXTRACT: note_on channel=2 note=38 velocity=91 time=0
EXTRACT: note_on channel=2 note=50 velocity=93 time=0
EXTRACT: note_on channel=2 note=57 velocity=91 time=0
EXTRACT: note_on channel=3 note=73 velocity=87 time=0
EXTRACT: control_change channel=2 control=64 value=0 time=0.10820890833333333
EXTRACT: note_on channel=2 note=62 velocity=88 time=0.11567159166666666
EXTRACT: control_change channel=2 control=64 value=127 time=0.0018656708333333332
EXTRACT: pitchwheel channel=3 pitch=-7613 time=0.02238805
EXTRACT: pitchwheel channel=3 pitch=-7468 time=0.0018656708333333332
EXTRACT: pitchwheel channel=3 pitch=-7468 time=0.0018656708333333332
EXTRACT: pitchwheel channel=3 pitch=-7468 time=0
EXTRACT: pitchwheel channel=3 pitch=-7323 time=0.0018656708333333332
EXTRACT: pitchwheel channel=3 pitch=-7178 time=0.0018656708333333332
EXTRACT: pitchwheel channel=3 pitch=-7033 time=0.0018656708333333332
EXTRACT: pitchwheel channel=3 pitch=-7033 time=0.0018656708333333332
EXTRACT: pitchwheel channel=3 pitch=-6888 time=0
EXTRACT: pitchwheel channel=3 pitch=-6743 time=0.0018656708333333332
EXTRACT: pitchwheel channel=3 pitch=-6598 time=0.0018656708333333332
EXTRACT: pitchwheel channel=3 pitch=-6453 time=0.0018656708333333332
EXTRACT: pitchwheel channel=3 pitch=-6453 time=0
EXTRACT: pitchwheel channel=3 pitch=-6308 time=0.0018656708333333332
EXTRACT: pitchwheel channel=3 pitch=-6163 time=0
EXTRACT: pitchwheel channel=3 pitch=-6163 time=0.0018656708333333332
EXTRACT: pitchwheel channel=3 pitch=-6018 time=0
EXTRACT: pitchwheel channel=3 pitch=-5873 time=0.0037313416666666663
EXTRACT: pitchwheel channel=3 pitch=-5873 time=0.0018656708333333332
EXTRACT: pitchwheel channel=3 pitch=-5728 time=0
EXTRACT: pitchwheel channel=3 pitch=-5583 time=0.0018656708333333332
EXTRACT: pitchwheel channel=3 pitch=-5438 time=0
EXTRACT: pitchwheel channel=3 pitch=-5003 time=0.0018656708333333332
EXTRACT: pitchwheel channel=3 pitch=-5003 time=0.0018656708333333332
EXTRACT: pitchwheel channel=3 pitch=-4858 time=0.0018656708333333332
EXTRACT: pitchwheel channel=3 pitch=-4713 time=0
EXTRACT: pitchwheel channel=3 pitch=-4568 time=0.0018656708333333332
EXTRACT: pitchwheel channel=3 pitch=-4278 time=0
EXTRACT: pitchwheel channel=3 pitch=-3988 time=0.0018656708333333332
EXTRACT: pitchwheel channel=3 pitch=-3843 time=0
EXTRACT: pitchwheel channel=3 pitch=-3698 time=0.0018656708333333332
EXTRACT: pitchwheel channel=3 pitch=-3553 time=0
EXTRACT: pitchwheel channel=3 pitch=-3408 time=0.0018656708333333332
EXTRACT: pitchwheel channel=3 pitch=-3263 time=0.0018656708333333332
EXTRACT: pitchwheel channel=3 pitch=-3118 time=0
EXTRACT: pitchwheel channel=3 pitch=-2973 time=0.0018656708333333332
EXTRACT: pitchwheel channel=3 pitch=-2538 time=0.0018656708333333332
EXTRACT: pitchwheel channel=3 pitch=-2103 time=0.0018656708333333332
EXTRACT: pitchwheel channel=3 pitch=-1668 time=0.0018656708333333332
EXTRACT: pitchwheel channel=3 pitch=-1523 time=0.0018656708333333332
EXTRACT: pitchwheel channel=3 pitch=-1378 time=0.0018656708333333332
EXTRACT: pitchwheel channel=3 pitch=-1233 time=0
EXTRACT: pitchwheel channel=3 pitch=-943 time=0.0018656708333333332
EXTRACT: pitchwheel channel=3 pitch=-798 time=0
EXTRACT: pitchwheel channel=3 pitch=-653 time=0.0018656708333333332
EXTRACT: pitchwheel channel=3 pitch=-508 time=0.0018656708333333332
EXTRACT: pitchwheel channel=3 pitch=-218 time=0
EXTRACT: pitchwheel channel=3 pitch=0 time=0.0055970125
EXTRACT: note_on channel=2 note=62 velocity=0 time=0.10820890833333333
EXTRACT: note_on channel=2 note=66 velocity=90 time=0.026119391666666665
EXTRACT: note_on channel=2 note=57 velocity=0 time=0.08395518749999999
EXTRACT: note_on channel=2 note=62 velocity=87 time=0.13992531249999998
EXTRACT: note_on channel=2 note=66 velocity=0 time=0.03171640416666666
EXTRACT: note_on channel=2 note=62 velocity=0 time=0.1585820208333333
EXTRACT: note_on channel=3 note=73 velocity=0 time=0.026119391666666665
EXTRACT: note_on channel=2 note=57 velocity=93 time=0.007462683333333333
EXTRACT: note_on channel=2 note=62 velocity=89 time=0.22388049999999998
EXTRACT: note_on channel=2 note=62 velocity=0 time=0.1753730583333333
EXTRACT: note_on channel=2 note=66 velocity=92 time=0.048507441666666665
EXTRACT: note_on channel=2 note=57 velocity=0 time=0.14925366666666665
EXTRACT: note_on channel=2 note=62 velocity=88 time=0.07462683333333332
EXTRACT: note_on channel=2 note=66 velocity=0 time=0.016791037499999998
EXTRACT: note_on channel=2 note=38 velocity=0 time=0.09141787083333333
EXTRACT: note_on channel=2 note=50 velocity=0 time=0.05783579583333333
EXTRACT: note_on channel=2 note=62 velocity=0 time=0.01865670833333333
EXTRACT: control_change channel=2 control=64 value=0 time=0.033582074999999996
EXTRACT: note_on channel=2 note=35 velocity=92 time=0
EXTRACT: note_on channel=2 note=47 velocity=92 time=0
EXTRACT: note_on channel=2 note=56 velocity=92 time=0
EXTRACT: note_on channel=3 note=69 velocity=98 time=0
EXTRACT: note_on channel=4 note=64 velocity=98 time=0
EXTRACT: note_on channel=15 note=64 velocity=1 time=0
EXTRACT: note_on channel=2 note=59 velocity=88 time=0.22388049999999998
EXTRACT: note_on channel=4 note=64 velocity=0 time=0.03544774583333333
EXTRACT: note_on channel=3 note=69 velocity=0 time=0
EXTRACT: note_on channel=3 note=69 velocity=91 time=0
EXTRACT: note_on channel=4 note=64 velocity=91 time=0
EXTRACT: control_change channel=2 control=64 value=127 time=0.05223878333333333
EXTRACT: note_on channel=2 note=64 velocity=92 time=0.09701488333333333
EXTRACT: note_on channel=2 note=59 velocity=0 time=0.03171640416666666
EXTRACT: note_on channel=4 note=64 velocity=0 time=0.07649250416666666
EXTRACT: note_on channel=2 note=56 velocity=0 time=0.014925366666666665
EXTRACT: note_on channel=3 note=69 velocity=0 time=0.01865670833333333
EXTRACT: note_on channel=3 note=76 velocity=91 time=0
EXTRACT: note_on channel=4 note=64 velocity=91 time=0
EXTRACT: note_on channel=2 note=59 velocity=92 time=0.07462683333333332
EXTRACT: note_on channel=2 note=64 velocity=0 time=0.020522379166666663
EXTRACT: note_on channel=4 note=64 velocity=0 time=0.16044769166666664
EXTRACT: note_on channel=3 note=76 velocity=0 time=0
EXTRACT: note_on channel=2 note=59 velocity=0 time=0.027985062499999998
EXTRACT: pitchwheel channel=3 pitch=8191 time=0
EXTRACT: note_on channel=2 note=56 velocity=90 time=0
EXTRACT: note_on channel=3 note=71 velocity=97 time=0
EXTRACT: note_on channel=4 note=64 velocity=97 time=0
EXTRACT: pitchwheel channel=3 pitch=7898 time=0.02985073333333333
EXTRACT: pitchwheel channel=3 pitch=7898 time=0
EXTRACT: pitchwheel channel=3 pitch=7898 time=0.0037313416666666663
EXTRACT: pitchwheel channel=3 pitch=7898 time=0.009328354166666665
EXTRACT: pitchwheel channel=3 pitch=7898 time=0.0037313416666666663
EXTRACT: pitchwheel channel=3 pitch=7898 time=0.0037313416666666663
EXTRACT: pitchwheel channel=3 pitch=7898 time=0.0055970125
EXTRACT: pitchwheel channel=3 pitch=7898 time=0.0037313416666666663
EXTRACT: pitchwheel channel=3 pitch=7898 time=0.0037313416666666663
EXTRACT: pitchwheel channel=3 pitch=7898 time=0.0055970125
EXTRACT: pitchwheel channel=3 pitch=7898 time=0.0037313416666666663
EXTRACT: pitchwheel channel=3 pitch=7898 time=0.0037313416666666663
EXTRACT: pitchwheel channel=3 pitch=7898 time=0.0055970125
EXTRACT: pitchwheel channel=3 pitch=7752 time=0
EXTRACT: pitchwheel channel=3 pitch=7752 time=0.0037313416666666663
EXTRACT: pitchwheel channel=3 pitch=7752 time=0.0037313416666666663
EXTRACT: pitchwheel channel=3 pitch=7752 time=0.0055970125
EXTRACT: pitchwheel channel=3 pitch=7752 time=0.0037313416666666663
EXTRACT: pitchwheel channel=3 pitch=7752 time=0.0037313416666666663
EXTRACT: pitchwheel channel=3 pitch=7605 time=0.0018656708333333332
EXTRACT: pitchwheel channel=3 pitch=7605 time=0.0037313416666666663
EXTRACT: pitchwheel channel=3 pitch=7605 time=0.0037313416666666663
EXTRACT: pitchwheel channel=3 pitch=7605 time=0.0037313416666666663
EXTRACT: pitchwheel channel=3 pitch=7459 time=0.0055970125
EXTRACT: pitchwheel channel=3 pitch=7459 time=0
EXTRACT: pitchwheel channel=3 pitch=7459 time=0.0037313416666666663
EXTRACT: pitchwheel channel=3 pitch=7459 time=0.0037313416666666663
EXTRACT: pitchwheel channel=3 pitch=7459 time=0.0055970125
EXTRACT: pitchwheel channel=3 pitch=7313 time=0
EXTRACT: pitchwheel channel=3 pitch=7313 time=0.0037313416666666663
EXTRACT: pitchwheel channel=3 pitch=7313 time=0.0037313416666666663
EXTRACT: pitchwheel channel=3 pitch=7313 time=0.0055970125
EXTRACT: pitchwheel channel=3 pitch=7167 time=0
EXTRACT: pitchwheel channel=3 pitch=7167 time=0.0037313416666666663
EXTRACT: pitchwheel channel=3 pitch=7167 time=0.0037313416666666663
EXTRACT: pitchwheel channel=3 pitch=7020 time=0.0037313416666666663
EXTRACT: pitchwheel channel=3 pitch=7020 time=0.0018656708333333332
EXTRACT: pitchwheel channel=3 pitch=7020 time=0.0037313416666666663
EXTRACT: pitchwheel channel=3 pitch=6874 time=0.0037313416666666663
EXTRACT: pitchwheel channel=3 pitch=6728 time=0.011194025
EXTRACT: pitchwheel channel=3 pitch=6581 time=0.009328354166666665
EXTRACT: pitchwheel channel=3 pitch=6435 time=0.007462683333333333
EXTRACT: pitchwheel channel=3 pitch=6289 time=0.009328354166666665
EXTRACT: pitchwheel channel=3 pitch=6143 time=0.007462683333333333
EXTRACT: pitchwheel channel=3 pitch=5996 time=0.007462683333333333
EXTRACT: note_on channel=2 note=59 velocity=91 time=0.0037313416666666663
EXTRACT: pitchwheel channel=3 pitch=5850 time=0.0018656708333333332
EXTRACT: pitchwheel channel=3 pitch=5704 time=0.009328354166666665
EXTRACT: pitchwheel channel=3 pitch=5558 time=0.0055970125
EXTRACT: pitchwheel channel=3 pitch=5411 time=0.007462683333333333
EXTRACT: pitchwheel channel=3 pitch=5265 time=0.0055970125
EXTRACT: pitchwheel channel=3 pitch=5119 time=0.0055970125
EXTRACT: pitchwheel channel=3 pitch=4972 time=0.0055970125
EXTRACT: pitchwheel channel=3 pitch=4826 time=0.007462683333333333
EXTRACT: pitchwheel channel=3 pitch=4680 time=0.0055970125
EXTRACT: pitchwheel channel=3 pitch=4534 time=0.0055970125
EXTRACT: pitchwheel channel=3 pitch=4387 time=0.0055970125
EXTRACT: pitchwheel channel=3 pitch=4241 time=0.0055970125
EXTRACT: pitchwheel channel=3 pitch=4095 time=0.0037313416666666663
EXTRACT: pitchwheel channel=3 pitch=3948 time=0.0055970125
EXTRACT: pitchwheel channel=3 pitch=3802 time=0.0037313416666666663
EXTRACT: pitchwheel channel=3 pitch=3656 time=0.0055970125
EXTRACT: pitchwheel channel=3 pitch=3510 time=0.0055970125
EXTRACT: pitchwheel channel=3 pitch=3363 time=0.0037313416666666663
EXTRACT: pitchwheel channel=3 pitch=3217 time=0.0055970125
EXTRACT: pitchwheel channel=3 pitch=3071 time=0.0037313416666666663
EXTRACT: pitchwheel channel=3 pitch=2925 time=0.0055970125
EXTRACT: pitchwheel channel=3 pitch=2778 time=0.0037313416666666663
EXTRACT: pitchwheel channel=3 pitch=2632 time=0.0055970125
EXTRACT: pitchwheel channel=3 pitch=2486 time=0.0037313416666666663
EXTRACT: pitchwheel channel=3 pitch=2339 time=0.0037313416666666663
EXTRACT: pitchwheel channel=3 pitch=2193 time=0.0055970125
EXTRACT: pitchwheel channel=3 pitch=2047 time=0.0037313416666666663
EXTRACT: pitchwheel channel=3 pitch=1901 time=0.0037313416666666663
EXTRACT: pitchwheel channel=3 pitch=1754 time=0.0037313416666666663
EXTRACT: pitchwheel channel=3 pitch=1608 time=0.0037313416666666663
EXTRACT: pitchwheel channel=3 pitch=1462 time=0.0055970125
EXTRACT: pitchwheel channel=3 pitch=1315 time=0.0037313416666666663
EXTRACT: pitchwheel channel=3 pitch=1169 time=0.0018656708333333332
EXTRACT: pitchwheel channel=3 pitch=1023 time=0.0055970125
EXTRACT: pitchwheel channel=3 pitch=877 time=0.0037313416666666663
EXTRACT: pitchwheel channel=3 pitch=730 time=0.0037313416666666663
EXTRACT: pitchwheel channel=3 pitch=584 time=0.0037313416666666663
EXTRACT: pitchwheel channel=3 pitch=438 time=0.0037313416666666663
EXTRACT: note_on channel=4 note=64 velocity=0 time=0.007462683333333333
EXTRACT: note_on channel=3 note=71 velocity=0 time=0
EXTRACT: pitchwheel channel=3 pitch=0 time=0.0018656708333333332
EXTRACT: note_on channel=2 note=59 velocity=0 time=0.027985062499999998
EXTRACT: note_on channel=2 note=64 velocity=86 time=0
EXTRACT: note_on channel=3 note=71 velocity=93 time=0
EXTRACT: note_on channel=4 note=64 velocity=93 time=0
EXTRACT: note_on channel=2 note=56 velocity=0 time=0.007462683333333333
EXTRACT: note_on channel=2 note=59 velocity=91 time=0.21641781666666665
EXTRACT: note_on channel=2 note=64 velocity=0 time=0.03171640416666666
EXTRACT: note_on channel=4 note=64 velocity=0 time=0.15111933749999998
EXTRACT: note_on channel=2 note=59 velocity=0 time=0.027985062499999998
EXTRACT: note_on channel=3 note=71 velocity=0 time=0.0055970125
EXTRACT: note_on channel=2 note=56 velocity=92 time=0
EXTRACT: note_on channel=3 note=69 velocity=97 time=0
EXTRACT: note_on channel=4 note=64 velocity=97 time=0
EXTRACT: control_change channel=2 control=64 value=0 time=0.18656708333333333
EXTRACT: note_on channel=2 note=59 velocity=91 time=0.03731341666666666
EXTRACT: note_on channel=4 note=64 velocity=0 time=0.03544774583333333
EXTRACT: note_on channel=3 note=69 velocity=0 time=0
EXTRACT: note_on channel=3 note=69 velocity=91 time=0
EXTRACT: note_on channel=4 note=64 velocity=91 time=0
EXTRACT: control_change channel=2 control=64 value=127 time=0.024253720833333332
EXTRACT: note_on channel=2 note=59 velocity=0 time=0.10261189583333333
EXTRACT: note_on channel=2 note=64 velocity=89 time=0.02238805
EXTRACT: note_on channel=2 note=56 velocity=0 time=0.09888055416666666
EXTRACT: note_on channel=4 note=64 velocity=0 time=0.011194025
EXTRACT: note_on channel=3 note=69 velocity=0 time=0.03171640416666666
EXTRACT: note_on channel=3 note=76 velocity=91 time=0
EXTRACT: note_on channel=4 note=64 velocity=91 time=0
EXTRACT: note_on channel=2 note=59 velocity=91 time=0.07462683333333332
EXTRACT: note_on channel=2 note=64 velocity=0 time=0.01865670833333333
EXTRACT: note_on channel=4 note=64 velocity=0 time=0.16231336249999997
EXTRACT: note_on channel=3 note=76 velocity=0 time=0
EXTRACT: note_on channel=2 note=59 velocity=0 time=0.026119391666666665
EXTRACT: note_on channel=2 note=56 velocity=90 time=0
EXTRACT: note_on channel=3 note=73 velocity=97 time=0
EXTRACT: note_on channel=4 note=64 velocity=97 time=0
EXTRACT: note_on channel=2 note=59 velocity=91 time=0.22388049999999998
EXTRACT: note_on channel=2 note=56 velocity=0 time=0.18097007083333333
EXTRACT: note_on channel=2 note=59 velocity=0 time=0.016791037499999998
EXTRACT: note_on channel=2 note=64 velocity=86 time=0.026119391666666665
EXTRACT: note_on channel=3 note=73 velocity=0 time=0.10447756666666666
EXTRACT: note_on channel=3 note=73 velocity=89 time=0
EXTRACT: note_on channel=2 note=64 velocity=0 time=0.04291042916666666
EXTRACT: note_on channel=2 note=59 velocity=91 time=0.03171640416666666
EXTRACT: note_on channel=3 note=73 velocity=0 time=0.04664177083333333
EXTRACT: note_on channel=3 note=73 velocity=87 time=0.027985062499999998
EXTRACT: note_on channel=2 note=47 velocity=0 time=0.03544774583333333
EXTRACT: note_on channel=2 note=35 velocity=0 time=0
EXTRACT: note_on channel=2 note=59 velocity=0 time=0.04291042916666666
EXTRACT: note_on channel=3 note=73 velocity=0 time=0.033582074999999996
EXTRACT: note_on channel=4 note=64 velocity=0 time=0.02985073333333333
EXTRACT: note_on channel=15 note=64 velocity=0 time=0.0037313416666666663
EXTRACT: note_on channel=2 note=37 velocity=92 time=0
EXTRACT: note_on channel=2 note=49 velocity=92 time=0
EXTRACT: note_on channel=2 note=57 velocity=92 time=0
EXTRACT: note_on channel=3 note=73 velocity=98 time=0
EXTRACT: note_on channel=4 note=66 velocity=98 time=0
EXTRACT: note_on channel=15 note=66 velocity=1 time=0
EXTRACT: control_change channel=2 control=64 value=0 time=0.08768652916666665
EXTRACT: note_on channel=2 note=61 velocity=89 time=0.13619397083333332
EXTRACT: note_on channel=4 note=66 velocity=0 time=0.03544774583333333
EXTRACT: note_on channel=3 note=73 velocity=0 time=0
EXTRACT: note_on channel=15 note=66 velocity=0 time=0.03544774583333333
EXTRACT: control_change channel=2 control=64 value=127 time=0
EXTRACT: note_on channel=3 note=73 velocity=96 time=0
EXTRACT: note_on channel=4 note=64 velocity=96 time=0
EXTRACT: note_on channel=15 note=64 velocity=1 time=0
EXTRACT: note_on channel=2 note=61 velocity=0 time=0.14925366666666665
EXTRACT: note_on channel=2 note=66 velocity=88 time=0
EXTRACT: note_on channel=4 note=64 velocity=0 time=0.10820890833333333
EXTRACT: note_on channel=3 note=73 velocity=0 time=0
EXTRACT: note_on channel=3 note=73 velocity=95 time=0
EXTRACT: note_on channel=4 note=64 velocity=95 time=0
EXTRACT: note_on channel=2 note=61 velocity=90 time=0.07462683333333332
EXTRACT: note_on channel=2 note=66 velocity=0 time=0.011194025
EXTRACT: note_on channel=2 note=57 velocity=0 time=0
EXTRACT: note_on channel=4 note=64 velocity=0 time=0.1697760458333333
EXTRACT: note_on channel=3 note=73 velocity=0 time=0
EXTRACT: note_on channel=2 note=61 velocity=0 time=0.02985073333333333
EXTRACT: note_on channel=2 note=57 velocity=90 time=0
EXTRACT: note_on channel=3 note=73 velocity=99 time=0
EXTRACT: note_on channel=4 note=64 velocity=99 time=0
EXTRACT: note_on channel=2 note=61 velocity=90 time=0.22388049999999998
EXTRACT: note_on channel=4 note=64 velocity=0 time=0.16231336249999997
EXTRACT: note_on channel=3 note=73 velocity=0 time=0
EXTRACT: note_on channel=2 note=61 velocity=0 time=0.02985073333333333
EXTRACT: note_on channel=2 note=66 velocity=90 time=0
EXTRACT: note_on channel=3 note=73 velocity=96 time=0
EXTRACT: note_on channel=4 note=64 velocity=96 time=0
EXTRACT: note_on channel=2 note=57 velocity=0 time=0.04664177083333333
EXTRACT: note_on channel=2 note=61 velocity=86 time=0.17723872916666664
EXTRACT: note_on channel=2 note=66 velocity=0 time=0.0037313416666666663
EXTRACT: note_on channel=2 note=61 velocity=0 time=0.19776110833333332
EXTRACT: note_on channel=4 note=64 velocity=0 time=0.014925366666666665
EXTRACT: note_on channel=3 note=73 velocity=0 time=0
EXTRACT: note_on channel=15 note=64 velocity=0 time=0.0037313416666666663
EXTRACT: note_on channel=2 note=57 velocity=90 time=0
EXTRACT: note_on channel=3 note=74 velocity=98 time=0
EXTRACT: note_on channel=4 note=66 velocity=98 time=0
EXTRACT: note_on channel=15 note=66 velocity=1 time=0
EXTRACT: note_on channel=2 note=61 velocity=90 time=0.22388049999999998
EXTRACT: note_on channel=4 note=66 velocity=0 time=0.03544774583333333
EXTRACT: note_on channel=3 note=74 velocity=0 time=0
EXTRACT: note_on channel=15 note=66 velocity=0 time=0.03544774583333333
EXTRACT: note_on channel=3 note=73 velocity=96 time=0
EXTRACT: note_on channel=4 note=64 velocity=96 time=0
EXTRACT: note_on channel=15 note=64 velocity=1 time=0
EXTRACT: note_on channel=2 note=61 velocity=0 time=0.12313427499999999
EXTRACT: note_on channel=2 note=66 velocity=90 time=0.026119391666666665
EXTRACT: note_on channel=2 note=57 velocity=0 time=0.08395518749999999
EXTRACT: note_on channel=4 note=64 velocity=0 time=0.024253720833333332
EXTRACT: note_on channel=3 note=73 velocity=0 time=0
EXTRACT: note_on channel=3 note=73 velocity=95 time=0
EXTRACT: note_on channel=4 note=64 velocity=95 time=0
EXTRACT: note_on channel=2 note=61 velocity=90 time=0.07462683333333332
EXTRACT: note_on channel=2 note=66 velocity=0 time=0.03171640416666666
EXTRACT: note_on channel=4 note=64 velocity=0 time=0.14925366666666665
EXTRACT: note_on channel=3 note=73 velocity=0 time=0
EXTRACT: note_on channel=2 note=61 velocity=0 time=0.009328354166666665
EXTRACT: note_on channel=2 note=57 velocity=90 time=0
EXTRACT: note_on channel=3 note=73 velocity=96 time=0
EXTRACT: note_on channel=4 note=64 velocity=96 time=0
EXTRACT: note_on channel=2 note=61 velocity=90 time=0.22388049999999998
EXTRACT: note_on channel=2 note=61 velocity=0 time=0.1753730583333333
EXTRACT: note_on channel=4 note=64 velocity=0 time=0.04104475833333333
EXTRACT: note_on channel=3 note=73 velocity=0 time=0
EXTRACT: note_on channel=2 note=66 velocity=89 time=0.007462683333333333
EXTRACT: note_on channel=2 note=57 velocity=0 time=0.14925366666666665
EXTRACT: note_on channel=2 note=61 velocity=86 time=0.07462683333333332
EXTRACT: note_on channel=2 note=66 velocity=0 time=0.016791037499999998
EXTRACT: note_on channel=2 note=49 velocity=0 time=0.09888055416666666
EXTRACT: note_on channel=2 note=37 velocity=0 time=0
EXTRACT: note_on channel=2 note=61 velocity=0 time=0.06902982083333332
EXTRACT: control_change channel=2 control=64 value=0 time=0.0037313416666666663
EXTRACT: note_on channel=2 note=38 velocity=92 time=0
EXTRACT: note_on channel=2 note=50 velocity=92 time=0
EXTRACT: note_on channel=2 note=57 velocity=92 time=0
EXTRACT: note_on channel=3 note=69 velocity=98 time=0
EXTRACT: note_on channel=4 note=64 velocity=98 time=0
EXTRACT: note_on channel=2 note=62 velocity=88 time=0.22388049999999998
EXTRACT: control_change channel=2 control=64 value=127 time=0.12686561666666665
EXTRACT: note_on channel=2 note=69 velocity=92 time=0.0951492125
EXTRACT: note_on channel=2 note=62 velocity=0 time=0.03171640416666666
EXTRACT: note_on channel=2 note=57 velocity=0 time=0.09141787083333333
EXTRACT: note_on channel=4 note=64 velocity=0 time=0.05783579583333333
EXTRACT: note_on channel=3 note=69 velocity=0 time=0.03544774583333333
EXTRACT: note_on channel=2 note=62 velocity=92 time=0
EXTRACT: note_on channel=3 note=76 velocity=85 time=0
EXTRACT: note_on channel=4 note=64 velocity=91 time=0
EXTRACT: note_on channel=2 note=69 velocity=0 time=0.020522379166666663
EXTRACT: note_on channel=4 note=64 velocity=0 time=0.16044769166666664
EXTRACT: note_on channel=3 note=76 velocity=0 time=0
EXTRACT: note_on channel=2 note=62 velocity=0 time=0.027985062499999998
EXTRACT: pitchwheel channel=3 pitch=8043 time=0.0055970125
EXTRACT: note_on channel=2 note=57 velocity=90 time=0
EXTRACT: note_on channel=3 note=71 velocity=97 time=0
EXTRACT: note_on channel=4 note=64 velocity=97 time=0
EXTRACT: pitchwheel channel=3 pitch=7895 time=0.05223878333333333
EXTRACT: pitchwheel channel=3 pitch=7748 time=0.02238805
EXTRACT: pitchwheel channel=3 pitch=7600 time=0.020522379166666663
EXTRACT: pitchwheel channel=3 pitch=7453 time=0.014925366666666665
EXTRACT: pitchwheel channel=3 pitch=7305 time=0.013059695833333333
EXTRACT: pitchwheel channel=3 pitch=7157 time=0.013059695833333333
EXTRACT: pitchwheel channel=3 pitch=7010 time=0.013059695833333333
EXTRACT: pitchwheel channel=3 pitch=6862 time=0.007462683333333333
EXTRACT: pitchwheel channel=3 pitch=6715 time=0.011194025
EXTRACT: pitchwheel channel=3 pitch=6567 time=0.011194025
EXTRACT: pitchwheel channel=3 pitch=6419 time=0.007462683333333333
EXTRACT: pitchwheel channel=3 pitch=6272 time=0.009328354166666665
EXTRACT: pitchwheel channel=3 pitch=6124 time=0.009328354166666665
EXTRACT: pitchwheel channel=3 pitch=5977 time=0.0055970125
EXTRACT: pitchwheel channel=3 pitch=5829 time=0.009328354166666665
EXTRACT: note_on channel=2 note=62 velocity=91 time=0.0037313416666666663
EXTRACT: pitchwheel channel=3 pitch=5681 time=0.0018656708333333332
EXTRACT: pitchwheel channel=3 pitch=5534 time=0.009328354166666665
EXTRACT: pitchwheel channel=3 pitch=5386 time=0.0055970125
EXTRACT: pitchwheel channel=3 pitch=5239 time=0.007462683333333333
EXTRACT: pitchwheel channel=3 pitch=5091 time=0.0055970125
EXTRACT: pitchwheel channel=3 pitch=4943 time=0.007462683333333333
EXTRACT: pitchwheel channel=3 pitch=4796 time=0.0055970125
EXTRACT: pitchwheel channel=3 pitch=4648 time=0.007462683333333333
EXTRACT: pitchwheel channel=3 pitch=4501 time=0.0055970125
EXTRACT: pitchwheel channel=3 pitch=4353 time=0.007462683333333333
EXTRACT: pitchwheel channel=3 pitch=4205 time=0.0037313416666666663
EXTRACT: pitchwheel channel=3 pitch=4058 time=0.0055970125
EXTRACT: pitchwheel channel=3 pitch=3910 time=0.007462683333333333
EXTRACT: pitchwheel channel=3 pitch=3763 time=0.0037313416666666663
EXTRACT: pitchwheel channel=3 pitch=3615 time=0.007462683333333333
EXTRACT: pitchwheel channel=3 pitch=3467 time=0.0037313416666666663
EXTRACT: pitchwheel channel=3 pitch=3320 time=0.0037313416666666663
EXTRACT: pitchwheel channel=3 pitch=3172 time=0.007462683333333333
EXTRACT: pitchwheel channel=3 pitch=3025 time=0.0037313416666666663
EXTRACT: pitchwheel channel=3 pitch=2877 time=0.0055970125
EXTRACT: pitchwheel channel=3 pitch=2730 time=0.0055970125
EXTRACT: pitchwheel channel=3 pitch=2582 time=0.0037313416666666663
EXTRACT: pitchwheel channel=3 pitch=2434 time=0.0037313416666666663
EXTRACT: pitchwheel channel=3 pitch=2287 time=0.0055970125
EXTRACT: pitchwheel channel=3 pitch=2139 time=0.0055970125
EXTRACT: pitchwheel channel=3 pitch=1992 time=0.0037313416666666663
EXTRACT: pitchwheel channel=3 pitch=1844 time=0.0055970125
EXTRACT: pitchwheel channel=3 pitch=1696 time=0.0037313416666666663
EXTRACT: pitchwheel channel=3 pitch=1549 time=0.0037313416666666663
EXTRACT: pitchwheel channel=3 pitch=1401 time=0.0055970125
EXTRACT: pitchwheel channel=3 pitch=1254 time=0.0037313416666666663
EXTRACT: pitchwheel channel=3 pitch=1106 time=0.0037313416666666663
EXTRACT: pitchwheel channel=3 pitch=958 time=0.0055970125
EXTRACT: pitchwheel channel=3 pitch=811 time=0.0037313416666666663
EXTRACT: pitchwheel channel=3 pitch=663 time=0.0037313416666666663
EXTRACT: pitchwheel channel=3 pitch=516 time=0.0055970125
EXTRACT: note_on channel=4 note=64 velocity=0 time=0.0018656708333333332
EXTRACT: note_on channel=3 note=71 velocity=0 time=0
EXTRACT: pitchwheel channel=3 pitch=368 time=0.0018656708333333332
EXTRACT: pitchwheel channel=3 pitch=220 time=0.0037313416666666663
EXTRACT: note_on channel=2 note=62 velocity=0 time=0.024253720833333332
EXTRACT: note_on channel=2 note=69 velocity=86 time=0
EXTRACT: note_on channel=3 note=69 velocity=93 time=0
EXTRACT: note_on channel=4 note=64 velocity=98 time=0
EXTRACT: note_on channel=2 note=57 velocity=0 time=0.007462683333333333
EXTRACT: note_on channel=2 note=62 velocity=91 time=0.21641781666666665
EXTRACT: note_on channel=2 note=69 velocity=0 time=0.03171640416666666
EXTRACT: note_on channel=2 note=62 velocity=0 time=0.1791044
EXTRACT: note_on channel=2 note=57 velocity=92 time=0.013059695833333333
EXTRACT: control_change channel=2 control=64 value=0 time=0.18656708333333333
EXTRACT: note_on channel=2 note=62 velocity=91 time=0.03731341666666666
EXTRACT: control_change channel=2 control=64 value=127 time=0.09888055416666666
EXTRACT: note_on channel=2 note=62 velocity=0 time=0.10261189583333333
EXTRACT: note_on channel=4 note=64 velocity=0 time=0.016791037499999998
EXTRACT: note_on channel=3 note=69 velocity=0 time=0
EXTRACT: note_on channel=2 note=69 velocity=89 time=0.0055970125
EXTRACT: note_on channel=2 note=57 velocity=0 time=0.09888055416666666
EXTRACT: note_on channel=2 note=62 velocity=91 time=0.12499994583333332
EXTRACT: note_on channel=2 note=69 velocity=0 time=0.01865670833333333
EXTRACT: note_on channel=2 note=62 velocity=0 time=0.18843275416666666
EXTRACT: note_on channel=2 note=57 velocity=90 time=0
EXTRACT: note_on channel=3 note=73 velocity=96 time=0
EXTRACT: note_on channel=4 note=64 velocity=96 time=0
EXTRACT: note_on channel=4 note=64 velocity=0 time=0.19402976666666666
EXTRACT: note_on channel=3 note=73 velocity=0 time=0
EXTRACT: note_on channel=2 note=62 velocity=91 time=0
EXTRACT: note_on channel=3 note=73 velocity=92 time=0
EXTRACT: note_on channel=4 note=64 velocity=96 time=0
EXTRACT: note_on channel=2 note=57 velocity=0 time=0.18097007083333333
EXTRACT: note_on channel=2 note=62 velocity=0 time=0.016791037499999998
EXTRACT: note_on channel=2 note=69 velocity=86 time=0.026119391666666665
EXTRACT: note_on channel=2 note=69 velocity=0 time=0.19216409583333333
EXTRACT: note_on channel=2 note=62 velocity=91 time=0.03171640416666666
EXTRACT: note_on channel=2 note=50 velocity=0 time=0.11007457916666666
EXTRACT: note_on channel=2 note=38 velocity=0 time=0
EXTRACT: note_on channel=2 note=62 velocity=0 time=0.04291042916666666
EXTRACT: note_on channel=4 note=64 velocity=0 time=0.03544774583333333
EXTRACT: note_on channel=3 note=73 velocity=0 time=0
EXTRACT: pitchwheel channel=3 pitch=8191 time=0.02238805
EXTRACT: pitchwheel channel=4 pitch=8191 time=0
EXTRACT: pitchwheel channel=15 pitch=8191 time=0
EXTRACT: note_on channel=15 note=64 velocity=0 time=0.009328354166666665
EXTRACT: note_on channel=2 note=35 velocity=92 time=0
EXTRACT: note_on channel=2 note=47 velocity=92 time=0
EXTRACT: note_on channel=2 note=59 velocity=92 time=0
EXTRACT: note_on channel=3 note=71 velocity=98 time=0
EXTRACT: note_on channel=4 note=62 velocity=98 time=0
EXTRACT: note_on channel=15 note=62 velocity=1 time=0
EXTRACT: control_change channel=2 control=64 value=0 time=0.08768652916666665
EXTRACT: note_on channel=2 note=62 velocity=89 time=0.13619397083333332
EXTRACT: control_change channel=2 control=64 value=127 time=0.07462683333333332
EXTRACT: note_on channel=2 note=62 velocity=0 time=0.14925366666666665
EXTRACT: note_on channel=2 note=71 velocity=88 time=0
EXTRACT: note_on channel=2 note=62 velocity=90 time=0.22388049999999998
EXTRACT: note_on channel=2 note=71 velocity=0 time=0.011194025
EXTRACT: note_on channel=2 note=59 velocity=0 time=0
EXTRACT: pitchwheel channel=3 pitch=8043 time=0.03544774583333333
EXTRACT: pitchwheel channel=4 pitch=8043 time=0
EXTRACT: pitchwheel channel=15 pitch=8043 time=0
EXTRACT: pitchwheel channel=3 pitch=7895 time=0.03171640416666666
EXTRACT: pitchwheel channel=4 pitch=7895 time=0
EXTRACT: pitchwheel channel=15 pitch=7895 time=0
EXTRACT: pitchwheel channel=3 pitch=7748 time=0.013059695833333333
EXTRACT: pitchwheel channel=4 pitch=7748 time=0
EXTRACT: pitchwheel channel=15 pitch=7748 time=0
EXTRACT: pitchwheel channel=3 pitch=7600 time=0.009328354166666665
EXTRACT: pitchwheel channel=4 pitch=7600 time=0
EXTRACT: pitchwheel channel=15 pitch=7600 time=0
EXTRACT: pitchwheel channel=3 pitch=7453 time=0.007462683333333333
EXTRACT: pitchwheel channel=4 pitch=7453 time=0
EXTRACT: pitchwheel channel=15 pitch=7453 time=0
EXTRACT: pitchwheel channel=3 pitch=7305 time=0.009328354166666665
EXTRACT: pitchwheel channel=4 pitch=7305 time=0
EXTRACT: pitchwheel channel=15 pitch=7305 time=0
EXTRACT: pitchwheel channel=3 pitch=7157 time=0.0055970125
EXTRACT: pitchwheel channel=4 pitch=7157 time=0
EXTRACT: pitchwheel channel=15 pitch=7157 time=0
EXTRACT: pitchwheel channel=3 pitch=7010 time=0.0055970125
EXTRACT: pitchwheel channel=4 pitch=7010 time=0
EXTRACT: pitchwheel channel=15 pitch=7010 time=0
EXTRACT: pitchwheel channel=3 pitch=6862 time=0.0055970125
EXTRACT: pitchwheel channel=4 pitch=6862 time=0
EXTRACT: pitchwheel channel=15 pitch=6862 time=0
EXTRACT: pitchwheel channel=3 pitch=6715 time=0.0055970125
EXTRACT: pitchwheel channel=4 pitch=6715 time=0
EXTRACT: pitchwheel channel=15 pitch=6715 time=0
EXTRACT: pitchwheel channel=3 pitch=6567 time=0.0055970125
EXTRACT: pitchwheel channel=4 pitch=6567 time=0
EXTRACT: pitchwheel channel=15 pitch=6567 time=0
EXTRACT: pitchwheel channel=3 pitch=6419 time=0.0055970125
EXTRACT: pitchwheel channel=4 pitch=6419 time=0
EXTRACT: pitchwheel channel=15 pitch=6419 time=0
EXTRACT: pitchwheel channel=3 pitch=6272 time=0.0018656708333333332
EXTRACT: pitchwheel channel=4 pitch=6272 time=0
EXTRACT: pitchwheel channel=15 pitch=6272 time=0
EXTRACT: pitchwheel channel=3 pitch=6124 time=0.0055970125
EXTRACT: pitchwheel channel=4 pitch=6124 time=0
EXTRACT: pitchwheel channel=15 pitch=6124 time=0
EXTRACT: pitchwheel channel=3 pitch=5977 time=0.0037313416666666663
EXTRACT: pitchwheel channel=4 pitch=5977 time=0
EXTRACT: pitchwheel channel=15 pitch=5977 time=0
EXTRACT: pitchwheel channel=3 pitch=5829 time=0.0055970125
EXTRACT: pitchwheel channel=4 pitch=5829 time=0
EXTRACT: pitchwheel channel=15 pitch=5829 time=0
EXTRACT: pitchwheel channel=3 pitch=5681 time=0.0037313416666666663
EXTRACT: pitchwheel channel=4 pitch=5681 time=0
EXTRACT: pitchwheel channel=15 pitch=5681 time=0
EXTRACT: pitchwheel channel=3 pitch=5534 time=0.0018656708333333332
EXTRACT: pitchwheel channel=4 pitch=5534 time=0
EXTRACT: pitchwheel channel=15 pitch=5534 time=0
EXTRACT: pitchwheel channel=3 pitch=5386 time=0.0055970125
EXTRACT: pitchwheel channel=4 pitch=5386 time=0
EXTRACT: pitchwheel channel=15 pitch=5386 time=0
EXTRACT: pitchwheel channel=3 pitch=5239 time=0.0037313416666666663
EXTRACT: pitchwheel channel=4 pitch=5239 time=0
EXTRACT: pitchwheel channel=15 pitch=5239 time=0
EXTRACT: pitchwheel channel=3 pitch=5091 time=0.0018656708333333332
EXTRACT: pitchwheel channel=4 pitch=5091 time=0
EXTRACT: pitchwheel channel=15 pitch=5091 time=0
EXTRACT: pitchwheel channel=3 pitch=4943 time=0.0037313416666666663
EXTRACT: pitchwheel channel=4 pitch=4943 time=0
EXTRACT: pitchwheel channel=15 pitch=4943 time=0
EXTRACT: pitchwheel channel=3 pitch=4796 time=0.0055970125
EXTRACT: pitchwheel channel=4 pitch=4796 time=0
EXTRACT: pitchwheel channel=15 pitch=4796 time=0
EXTRACT: pitchwheel channel=3 pitch=4648 time=0.0018656708333333332
EXTRACT: pitchwheel channel=4 pitch=4648 time=0
EXTRACT: pitchwheel channel=15 pitch=4648 time=0
EXTRACT: pitchwheel channel=3 pitch=4501 time=0.0037313416666666663
EXTRACT: pitchwheel channel=4 pitch=4501 time=0
EXTRACT: pitchwheel channel=15 pitch=4501 time=0
EXTRACT: pitchwheel channel=3 pitch=4353 time=0.0018656708333333332
EXTRACT: pitchwheel channel=4 pitch=4353 time=0
EXTRACT: pitchwheel channel=15 pitch=4353 time=0
EXTRACT: pitchwheel channel=3 pitch=4205 time=0.0037313416666666663
EXTRACT: pitchwheel channel=4 pitch=4205 time=0
EXTRACT: pitchwheel channel=15 pitch=4205 time=0
EXTRACT: pitchwheel channel=3 pitch=4058 time=0.0018656708333333332
EXTRACT: pitchwheel channel=4 pitch=4058 time=0
EXTRACT: pitchwheel channel=15 pitch=4058 time=0
EXTRACT: note_on channel=2 note=62 velocity=0 time=0.0037313416666666663
EXTRACT: pitchwheel channel=3 pitch=3910 time=0
EXTRACT: pitchwheel channel=4 pitch=3910 time=0
EXTRACT: pitchwheel channel=15 pitch=3910 time=0
EXTRACT: pitchwheel channel=3 pitch=3763 time=0.0018656708333333332
EXTRACT: pitchwheel channel=4 pitch=3763 time=0
EXTRACT: pitchwheel channel=15 pitch=3763 time=0
EXTRACT: pitchwheel channel=3 pitch=3615 time=0.0037313416666666663
EXTRACT: pitchwheel channel=4 pitch=3615 time=0
EXTRACT: pitchwheel channel=15 pitch=3615 time=0
EXTRACT: pitchwheel channel=3 pitch=3467 time=0.0018656708333333332
EXTRACT: pitchwheel channel=4 pitch=3467 time=0
EXTRACT: pitchwheel channel=15 pitch=3467 time=0
EXTRACT: pitchwheel channel=3 pitch=3320 time=0.0037313416666666663
EXTRACT: pitchwheel channel=4 pitch=3320 time=0
EXTRACT: pitchwheel channel=15 pitch=3320 time=0
EXTRACT: note_on channel=2 note=59 velocity=90 time=0.0018656708333333332
EXTRACT: pitchwheel channel=3 pitch=3172 time=0
EXTRACT: pitchwheel channel=4 pitch=3172 time=0
EXTRACT: pitchwheel channel=15 pitch=3172 time=0
EXTRACT: pitchwheel channel=3 pitch=3025 time=0.0037313416666666663
EXTRACT: pitchwheel channel=4 pitch=3025 time=0
EXTRACT: pitchwheel channel=15 pitch=3025 time=0
EXTRACT: pitchwheel channel=3 pitch=2877 time=0.0018656708333333332
EXTRACT: pitchwheel channel=4 pitch=2877 time=0
EXTRACT: pitchwheel channel=15 pitch=2877 time=0
EXTRACT: pitchwheel channel=3 pitch=2730 time=0.0037313416666666663
EXTRACT: pitchwheel channel=4 pitch=2730 time=0
EXTRACT: pitchwheel channel=15 pitch=2730 time=0
EXTRACT: pitchwheel channel=3 pitch=2582 time=0.0018656708333333332
EXTRACT: pitchwheel channel=4 pitch=2582 time=0
EXTRACT: pitchwheel channel=15 pitch=2582 time=0
EXTRACT: pitchwheel channel=3 pitch=2287 time=0.0037313416666666663
EXTRACT: pitchwheel channel=4 pitch=2287 time=0
EXTRACT: pitchwheel channel=15 pitch=2287 time=0
EXTRACT: pitchwheel channel=3 pitch=2139 time=0.0018656708333333332
EXTRACT: pitchwheel channel=4 pitch=2139 time=0
EXTRACT: pitchwheel channel=15 pitch=2139 time=0
EXTRACT: pitchwheel channel=3 pitch=1992 time=0.0037313416666666663
EXTRACT: pitchwheel channel=4 pitch=1992 time=0
EXTRACT: pitchwheel channel=15 pitch=1992 time=0
EXTRACT: pitchwheel channel=3 pitch=1844 time=0.0018656708333333332
EXTRACT: pitchwheel channel=4 pitch=1844 time=0
EXTRACT: pitchwheel channel=15 pitch=1844 time=0
EXTRACT: pitchwheel channel=3 pitch=1696 time=0.0037313416666666663
EXTRACT: pitchwheel channel=4 pitch=1696 time=0
EXTRACT: pitchwheel channel=15 pitch=1696 time=0
EXTRACT: pitchwheel channel=3 pitch=1549 time=0.0018656708333333332
EXTRACT: pitchwheel channel=4 pitch=1549 time=0
EXTRACT: pitchwheel channel=15 pitch=1549 time=0
EXTRACT: pitchwheel channel=3 pitch=1254 time=0.0037313416666666663
EXTRACT: pitchwheel channel=4 pitch=1254 time=0
EXTRACT: pitchwheel channel=15 pitch=1254 time=0
EXTRACT: pitchwheel channel=3 pitch=1106 time=0.0018656708333333332
EXTRACT: pitchwheel channel=4 pitch=1106 time=0
EXTRACT: pitchwheel channel=15 pitch=1106 time=0
EXTRACT: pitchwheel channel=3 pitch=958 time=0.0037313416666666663
EXTRACT: pitchwheel channel=4 pitch=958 time=0
EXTRACT: pitchwheel channel=15 pitch=958 time=0
EXTRACT: pitchwheel channel=3 pitch=663 time=0.0018656708333333332
EXTRACT: pitchwheel channel=4 pitch=663 time=0
EXTRACT: pitchwheel channel=15 pitch=663 time=0
EXTRACT: pitchwheel channel=3 pitch=516 time=0.0037313416666666663
EXTRACT: pitchwheel channel=4 pitch=516 time=0
EXTRACT: pitchwheel channel=15 pitch=516 time=0
EXTRACT: pitchwheel channel=3 pitch=368 time=0.0018656708333333332
EXTRACT: pitchwheel channel=4 pitch=368 time=0
EXTRACT: pitchwheel channel=15 pitch=368 time=0
EXTRACT: pitchwheel channel=3 pitch=0 time=0.03171640416666666
EXTRACT: pitchwheel channel=4 pitch=0 time=0
EXTRACT: pitchwheel channel=15 pitch=0 time=0
EXTRACT: note_on channel=2 note=62 velocity=90 time=0.1473879958333333
EXTRACT: note_on channel=2 note=62 velocity=0 time=0.19216409583333333
EXTRACT: note_on channel=2 note=71 velocity=90 time=0.03171640416666666
EXTRACT: note_on channel=2 note=59 velocity=0 time=0.04664177083333333
EXTRACT: note_on channel=2 note=62 velocity=86 time=0.17723872916666664
EXTRACT: note_on channel=2 note=71 velocity=0 time=0.0037313416666666663
EXTRACT: note_on channel=4 note=62 velocity=0 time=0.14552232499999998
EXTRACT: note_on channel=3 note=71 velocity=0 time=0.03731341666666666
EXTRACT: note_on channel=2 note=62 velocity=0 time=0.014925366666666665
EXTRACT: note_on channel=2 note=47 velocity=0 time=0.0018939375
EXTRACT: note_on channel=2 note=35 velocity=0 time=0
EXTRACT: note_on channel=2 note=37 velocity=92 time=0
EXTRACT: note_on channel=2 note=49 velocity=92 time=0
EXTRACT: note_on channel=2 note=61 velocity=90 time=0
EXTRACT: note_on channel=3 note=71 velocity=91 time=0
EXTRACT: note_on channel=4 note=62 velocity=91 time=0
EXTRACT: control_change channel=2 control=64 value=0 time=0.1363635
EXTRACT: note_on channel=2 note=64 velocity=90 time=0.090909
EXTRACT: control_change channel=2 control=64 value=127 time=0
EXTRACT: note_on channel=2 note=64 velocity=0 time=0.200757375
EXTRACT: note_on channel=4 note=62 velocity=0 time=0.018939375
EXTRACT: note_on channel=3 note=71 velocity=0 time=0
EXTRACT: note_on channel=2 note=69 velocity=90 time=0.00757575
EXTRACT: note_on channel=2 note=61 velocity=0 time=0.0852271875
EXTRACT: note_on channel=2 note=64 velocity=90 time=0.1420453125
EXTRACT: note_on channel=2 note=69 velocity=0 time=0.0321969375
EXTRACT: note_on channel=2 note=64 velocity=0 time=0.1609846875
EXTRACT: note_on channel=15 note=62 velocity=0 time=0.00390625
EXTRACT: note_on channel=2 note=61 velocity=90 time=0
EXTRACT: note_on channel=3 note=73 velocity=86 time=0
EXTRACT: note_on channel=4 note=64 velocity=86 time=0
EXTRACT: note_on channel=15 note=64 velocity=1 time=0
EXTRACT: note_on channel=2 note=64 velocity=90 time=0.234375
EXTRACT: note_on channel=2 note=64 velocity=0 time=0.18359375
EXTRACT: note_on channel=2 note=69 velocity=89 time=0.05078125
EXTRACT: note_on channel=2 note=61 velocity=0 time=0.15625
EXTRACT: note_on channel=2 note=64 velocity=86 time=0.078125
EXTRACT: note_on channel=2 note=69 velocity=0 time=0.017578125
EXTRACT: note_on channel=4 note=64 velocity=0 time=0.14453125
EXTRACT: note_on channel=2 note=64 velocity=0 time=0.03125
EXTRACT: note_on channel=2 note=49 velocity=0 time=0
EXTRACT: note_on channel=2 note=37 velocity=0 time=0
EXTRACT: note_on channel=3 note=73 velocity=0 time=0.033203125
EXTRACT: note_on channel=2 note=38 velocity=90 time=0
EXTRACT: note_on channel=2 note=50 velocity=90 time=0
EXTRACT: note_on channel=2 note=62 velocity=90 time=0
EXTRACT: note_on channel=3 note=69 velocity=79 time=0
EXTRACT: note_on channel=4 note=64 velocity=79 time=0
EXTRACT: control_change channel=2 control=64 value=0 time=0.22177397916666666
EXTRACT: note_on channel=2 note=66 velocity=81 time=0.016129016666666666
EXTRACT: note_on channel=2 note=69 velocity=82 time=0.24193525
EXTRACT: control_change channel=2 control=64 value=127 time=0.00604838125
EXTRACT: note_on channel=2 note=66 velocity=0 time=0.06249993958333333
EXTRACT: note_on channel=2 note=62 velocity=0 time=0.10080635416666667
EXTRACT: note_on channel=2 note=66 velocity=82 time=0.072580575
EXTRACT: note_on channel=2 note=69 velocity=0 time=0.11895149791666666
EXTRACT: note_on channel=2 note=62 velocity=78 time=0.12298375208333333
EXTRACT: note_on channel=2 note=66 velocity=0 time=0.0020161270833333332
EXTRACT: note_on channel=2 note=66 velocity=78 time=0.23060327916666662
EXTRACT: note_on channel=2 note=66 velocity=0 time=0.2413791333333333
EXTRACT: note_on channel=2 note=69 velocity=78 time=0.017241366666666664
EXTRACT: note_on channel=2 note=62 velocity=0 time=0.18534469166666664
EXTRACT: note_on channel=2 note=66 velocity=78 time=0.07327580833333332
EXTRACT: note_on channel=2 note=69 velocity=0 time=0.04094824583333333
EXTRACT: note_on channel=2 note=66 velocity=0 time=0.19396537499999997
EXTRACT: note_on channel=4 note=64 velocity=0 time=0.015086195833333331
EXTRACT: note_on channel=3 note=69 velocity=0 time=0
EXTRACT: note_on channel=2 note=64 velocity=78 time=0.008928566666666667
EXTRACT: note_on channel=2 note=68 velocity=78 time=0.267857
EXTRACT: note_on channel=2 note=71 velocity=78 time=0.267857
EXTRACT: note_on channel=2 note=68 velocity=0 time=0.053571400000000005
EXTRACT: note_on channel=2 note=68 velocity=76 time=0.21428560000000002
EXTRACT: note_on channel=2 note=64 velocity=0 time=0.060267825000000004
EXTRACT: note_on channel=2 note=71 velocity=0 time=0.19866060833333335
EXTRACT: note_on channel=15 note=64 velocity=0 time=0.0044642833333333335
EXTRACT: note_on channel=2 note=64 velocity=75 time=0.0044642833333333335
EXTRACT: note_on channel=2 note=68 velocity=0 time=0.06473210833333333
EXTRACT: note_on channel=2 note=68 velocity=74 time=0.20312489166666667
EXTRACT: note_on channel=2 note=71 velocity=72 time=0.267857
EXTRACT: note_on channel=2 note=68 velocity=0 time=0.10267851666666666
EXTRACT: note_on channel=2 note=68 velocity=69 time=0.16517848333333335
EXTRACT: note_on channel=2 note=71 velocity=0 time=0.053571400000000005
EXTRACT: note_on channel=2 note=38 velocity=0 time=0.14508920833333333
EXTRACT: note_on channel=2 note=50 velocity=0 time=0.008928566666666667
EXTRACT: control_change channel=2 control=64 value=0 time=0.015624991666666668
EXTRACT: note_on channel=2 note=64 velocity=0 time=0.006696425000000001
EXTRACT: note_on channel=2 note=68 velocity=0 time=0.02901784166666667
EXTRACT: note_on channel=2 note=45 velocity=85 time=0.0055970125
EXTRACT: note_on channel=2 note=52 velocity=85 time=0
EXTRACT: note_on channel=2 note=61 velocity=85 time=0
EXTRACT: note_on channel=2 note=64 velocity=85 time=0
EXTRACT: note_on channel=2 note=69 velocity=85 time=0
EXTRACT: note_on channel=3 note=81 velocity=97 time=0
EXTRACT: note_on channel=3 note=81 velocity=0 time=0.18097007083333333
EXTRACT: note_on channel=3 note=81 velocity=94 time=0
EXTRACT: note_on channel=3 note=81 velocity=0 time=0.1847014125
EXTRACT: note_on channel=3 note=81 velocity=100 time=0
EXTRACT: note_on channel=3 note=81 velocity=0 time=0.4104475833333333
EXTRACT: pitchwheel channel=3 pitch=4513 time=0.020522379166666663
EXTRACT: note_on channel=3 note=80 velocity=99 time=0
EXTRACT: pitchwheel channel=3 pitch=4513 time=0.10261189583333333
EXTRACT: pitchwheel channel=3 pitch=4513 time=0.0018656708333333332
EXTRACT: pitchwheel channel=3 pitch=4513 time=0.0037313416666666663
EXTRACT: pitchwheel channel=3 pitch=4513 time=0.0018656708333333332
EXTRACT: pitchwheel channel=3 pitch=4346 time=0.0037313416666666663
EXTRACT: pitchwheel channel=3 pitch=4178 time=0.0018656708333333332
EXTRACT: pitchwheel channel=3 pitch=4178 time=0.0055970125
EXTRACT: pitchwheel channel=3 pitch=4178 time=0.0055970125
EXTRACT: pitchwheel channel=3 pitch=4011 time=0.0037313416666666663
EXTRACT: pitchwheel channel=3 pitch=3844 time=0.0055970125
EXTRACT: pitchwheel channel=3 pitch=3844 time=0.0037313416666666663
EXTRACT: pitchwheel channel=3 pitch=3844 time=0.0018656708333333332
EXTRACT: pitchwheel channel=3 pitch=3844 time=0.0037313416666666663
EXTRACT: pitchwheel channel=3 pitch=3677 time=0.0018656708333333332
EXTRACT: pitchwheel channel=3 pitch=3510 time=0.0037313416666666663
EXTRACT: pitchwheel channel=3 pitch=3510 time=0.0018656708333333332
EXTRACT: pitchwheel channel=3 pitch=3342 time=0.0037313416666666663
EXTRACT: pitchwheel channel=3 pitch=3175 time=0.0018656708333333332
EXTRACT: pitchwheel channel=3 pitch=3008 time=0.0037313416666666663
EXTRACT: pitchwheel channel=3 pitch=3008 time=0.0018656708333333332
EXTRACT: control_change channel=2 control=64 value=127 time=0.0037313416666666663
EXTRACT: pitchwheel channel=3 pitch=3008 time=0
EXTRACT: pitchwheel channel=3 pitch=2841 time=0.0037313416666666663
EXTRACT: pitchwheel channel=3 pitch=2674 time=0.0018656708333333332
EXTRACT: pitchwheel channel=3 pitch=2674 time=0.0037313416666666663
EXTRACT: pitchwheel channel=3 pitch=2507 time=0.0018656708333333332
EXTRACT: pitchwheel channel=3 pitch=2507 time=0.0037313416666666663
EXTRACT: pitchwheel channel=3 pitch=2339 time=0.0018656708333333332
EXTRACT: pitchwheel channel=3 pitch=2172 time=0.0037313416666666663
EXTRACT: pitchwheel channel=3 pitch=2005 time=0.0018656708333333332
EXTRACT: pitchwheel channel=3 pitch=2005 time=0.0037313416666666663
EXTRACT: pitchwheel channel=3 pitch=1838 time=0.0018656708333333332
EXTRACT: pitchwheel channel=3 pitch=1504 time=0.0037313416666666663
EXTRACT: pitchwheel channel=3 pitch=1504 time=0.0037313416666666663
EXTRACT: pitchwheel channel=3 pitch=1336 time=0.0018656708333333332
EXTRACT: pitchwheel channel=3 pitch=1169 time=0.0037313416666666663
EXTRACT: pitchwheel channel=3 pitch=1002 time=0.0018656708333333332
EXTRACT: pitchwheel channel=3 pitch=835 time=0.0037313416666666663
EXTRACT: pitchwheel channel=3 pitch=668 time=0.0018656708333333332
EXTRACT: pitchwheel channel=3 pitch=501 time=0.0037313416666666663
EXTRACT: pitchwheel channel=3 pitch=501 time=0.0018656708333333332
EXTRACT: pitchwheel channel=3 pitch=0 time=0.0037313416666666663
EXTRACT: pitchwheel channel=3 pitch=-1 time=0.0018656708333333332
EXTRACT: pitchwheel channel=3 pitch=-168 time=0.0037313416666666663
EXTRACT: pitchwheel channel=3 pitch=0 time=0.0018656708333333332
EXTRACT: note_on channel=2 note=69 velocity=0 time=0.11753726249999999
EXTRACT: note_on channel=2 note=45 velocity=0 time=0.014925366666666665
EXTRACT: note_on channel=2 note=52 velocity=0 time=0.02238805
EXTRACT: note_on channel=3 note=80 velocity=0 time=0.009328354166666665
EXTRACT: note_on channel=2 note=61 velocity=0 time=0.011194025
EXTRACT: note_on channel=2 note=64 velocity=0 time=0.011194025
EXTRACT: note_on channel=3 note=80 velocity=101 time=0
EXTRACT: note_on channel=2 note=44 velocity=81 time=0.22388049999999998
EXTRACT: note_on channel=2 note=52 velocity=81 time=0
EXTRACT: note_on channel=2 note=59 velocity=81 time=0
EXTRACT: note_on channel=2 note=64 velocity=81 time=0
EXTRACT: note_on channel=2 note=68 velocity=81 time=0
EXTRACT: control_change channel=2 control=64 value=0 time=0.10820890833333333
EXTRACT: note_on channel=3 note=80 velocity=0 time=0.3320894083333333
EXTRACT: control_change channel=2 control=64 value=127 time=0.2518655625
EXTRACT: note_on channel=3 note=80 velocity=98 time=0
EXTRACT: note_on channel=3 note=80 velocity=0 time=0.190298425
EXTRACT: note_on channel=3 note=80 velocity=93 time=0
EXTRACT: note_on channel=2 note=59 velocity=0 time=0.11753726249999999
EXTRACT: note_on channel=2 note=44 velocity=0 time=0.009328354166666665
EXTRACT: note_on channel=2 note=64 velocity=0 time=0.0055970125
EXTRACT: note_on channel=2 note=52 velocity=0 time=0.016791037499999998
EXTRACT: note_on channel=2 note=68 velocity=0 time=0.007462683333333333
EXTRACT: note_on channel=3 note=80 velocity=0 time=0.24067153749999998
EXTRACT: pitchwheel channel=3 pitch=-4180 time=0.04104475833333333
EXTRACT: note_on channel=3 note=81 velocity=97 time=0
EXTRACT: pitchwheel channel=3 pitch=-3873 time=0.04664177083333333
EXTRACT: pitchwheel channel=3 pitch=-3724 time=0.0018656708333333332
EXTRACT: pitchwheel channel=3 pitch=-3575 time=0.01865670833333333
EXTRACT: pitchwheel channel=3 pitch=-3427 time=0.009328354166666665
EXTRACT: pitchwheel channel=3 pitch=-3278 time=0.0055970125
EXTRACT: pitchwheel channel=3 pitch=-3129 time=0.0037313416666666663
EXTRACT: pitchwheel channel=3 pitch=-2980 time=0.007462683333333333
EXTRACT: pitchwheel channel=3 pitch=-2831 time=0.0037313416666666663
EXTRACT: pitchwheel channel=3 pitch=-2682 time=0.0018656708333333332
EXTRACT: pitchwheel channel=3 pitch=-2533 time=0.0037313416666666663
EXTRACT: pitchwheel channel=3 pitch=-2384 time=0.0037313416666666663
EXTRACT: pitchwheel channel=3 pitch=-2235 time=0.0037313416666666663
EXTRACT: pitchwheel channel=3 pitch=-2086 time=0.0037313416666666663
EXTRACT: pitchwheel channel=3 pitch=-1937 time=0.0018656708333333332
EXTRACT: pitchwheel channel=3 pitch=-1788 time=0.0037313416666666663
EXTRACT: pitchwheel channel=3 pitch=-1639 time=0.0018656708333333332
EXTRACT: pitchwheel channel=3 pitch=-1490 time=0.0018656708333333332
EXTRACT: pitchwheel channel=3 pitch=-1341 time=0.0037313416666666663
EXTRACT: pitchwheel channel=3 pitch=-1192 time=0.0018656708333333332
EXTRACT: pitchwheel channel=3 pitch=-1044 time=0.0037313416666666663
EXTRACT: pitchwheel channel=3 pitch=-895 time=0.0018656708333333332
EXTRACT: pitchwheel channel=3 pitch=-746 time=0.0018656708333333332
EXTRACT: pitchwheel channel=3 pitch=-597 time=0.0018656708333333332
EXTRACT: pitchwheel channel=3 pitch=-448 time=0.0018656708333333332
EXTRACT: pitchwheel channel=3 pitch=-299 time=0.0037313416666666663
EXTRACT: pitchwheel channel=3 pitch=-150 time=0.0018656708333333332
EXTRACT: pitchwheel channel=3 pitch=-1 time=0.0018656708333333332
EXTRACT: note_on channel=2 note=42 velocity=83 time=0.07649250416666666
EXTRACT: note_on channel=2 note=49 velocity=83 time=0
EXTRACT: note_on channel=2 note=57 velocity=83 time=0
EXTRACT: note_on channel=2 note=61 velocity=83 time=0
EXTRACT: note_on channel=2 note=66 velocity=83 time=0
EXTRACT: control_change channel=2 control=64 value=0 time=0.04104475833333333
EXTRACT: note_on channel=3 note=81 velocity=0 time=0.1753730583333333
EXTRACT: note_on channel=3 note=78 velocity=93 time=0
EXTRACT: control_change channel=2 control=64 value=127 time=0.7854474208333333
EXTRACT: note_on channel=2 note=49 velocity=0 time=0.18843275416666666
EXTRACT: note_on channel=2 note=42 velocity=0 time=0.06716414999999999
EXTRACT: note_on channel=2 note=66 velocity=0 time=0.048507441666666665
EXTRACT: note_on channel=2 note=57 velocity=0 time=0.011194025
EXTRACT: note_on channel=2 note=61 velocity=0 time=0.007462683333333333
EXTRACT: pitchwheel channel=3 pitch=-168 time=0.38059685
EXTRACT: pitchwheel channel=3 pitch=-168 time=0.0018656708333333332
EXTRACT: pitchwheel channel=3 pitch=-335 time=0.0037313416666666663
EXTRACT: pitchwheel channel=3 pitch=-335 time=0.0037313416666666663
EXTRACT: pitchwheel channel=3 pitch=-335 time=0.0037313416666666663
EXTRACT: pitchwheel channel=3 pitch=-670 time=0.009328354166666665
EXTRACT: control_change channel=2 control=64 value=0 time=0.0018656708333333332
EXTRACT: pitchwheel channel=3 pitch=-670 time=0
EXTRACT: pitchwheel channel=3 pitch=-837 time=0.0037313416666666663
EXTRACT: pitchwheel channel=3 pitch=-1171 time=0.0037313416666666663
EXTRACT: pitchwheel channel=3 pitch=-1171 time=0.0037313416666666663
EXTRACT: pitchwheel channel=3 pitch=-1171 time=0.0018656708333333332
EXTRACT: pitchwheel channel=3 pitch=-1171 time=0
EXTRACT: pitchwheel channel=3 pitch=-1171 time=0.0018656708333333332
EXTRACT: pitchwheel channel=3 pitch=-1338 time=0
EXTRACT: pitchwheel channel=3 pitch=-1338 time=0.0018656708333333332
EXTRACT: pitchwheel channel=3 pitch=-1506 time=0
EXTRACT: pitchwheel channel=3 pitch=-1506 time=0.0018656708333333332
EXTRACT: pitchwheel channel=3 pitch=-1506 time=0
EXTRACT: pitchwheel channel=3 pitch=-1673 time=0.0037313416666666663
EXTRACT: pitchwheel channel=3 pitch=-2007 time=0
EXTRACT: pitchwheel channel=3 pitch=-2007 time=0.0018656708333333332
EXTRACT: pitchwheel channel=3 pitch=-2007 time=0.0018656708333333332
EXTRACT: pitchwheel channel=3 pitch=-2007 time=0
EXTRACT: pitchwheel channel=3 pitch=-2007 time=0.0018656708333333332
EXTRACT: pitchwheel channel=3 pitch=-2174 time=0
EXTRACT: pitchwheel channel=3 pitch=-2174 time=0.0018656708333333332
EXTRACT: pitchwheel channel=3 pitch=-2174 time=0
EXTRACT: pitchwheel channel=3 pitch=-2341 time=0.0018656708333333332
EXTRACT: pitchwheel channel=3 pitch=-2341 time=0
EXTRACT: pitchwheel channel=3 pitch=-2341 time=0
EXTRACT: pitchwheel channel=3 pitch=-2509 time=0.0018656708333333332
EXTRACT: pitchwheel channel=3 pitch=-2676 time=0.0018656708333333332
EXTRACT: pitchwheel channel=3 pitch=-2676 time=0
EXTRACT: pitchwheel channel=3 pitch=-2676 time=0
EXTRACT: pitchwheel channel=3 pitch=-2676 time=0.0018656708333333332
EXTRACT: pitchwheel channel=3 pitch=-2843 time=0.0018656708333333332
EXTRACT: pitchwheel channel=3 pitch=-2843 time=0
EXTRACT: pitchwheel channel=3 pitch=-2843 time=0
EXTRACT: pitchwheel channel=3 pitch=-3010 time=0.0018656708333333332
EXTRACT: pitchwheel channel=3 pitch=-3010 time=0
EXTRACT: pitchwheel channel=3 pitch=-3010 time=0.0018656708333333332
EXTRACT: pitchwheel channel=3 pitch=-3177 time=0
EXTRACT: pitchwheel channel=3 pitch=-3344 time=0.0018656708333333332
EXTRACT: pitchwheel channel=3 pitch=-3344 time=0
EXTRACT: pitchwheel channel=3 pitch=-3344 time=0.0018656708333333332
EXTRACT: pitchwheel channel=3 pitch=-3344 time=0
EXTRACT: pitchwheel channel=3 pitch=-3344 time=0.0018656708333333332
EXTRACT: pitchwheel channel=3 pitch=-3679 time=0
EXTRACT: pitchwheel channel=3 pitch=-3679 time=0.0018656708333333332
EXTRACT: pitchwheel channel=3 pitch=-3679 time=0
EXTRACT: pitchwheel channel=3 pitch=-3679 time=0
EXTRACT: pitchwheel channel=3 pitch=-3846 time=0.0018656708333333332
EXTRACT: note_on channel=2 note=38 velocity=79 time=0.0018656708333333332
EXTRACT: note_on channel=2 note=45 velocity=79 time=0
EXTRACT: note_on channel=2 note=57 velocity=79 time=0
EXTRACT: note_on channel=2 note=62 velocity=79 time=0
EXTRACT: note_on channel=2 note=66 velocity=79 time=0
EXTRACT: pitchwheel channel=3 pitch=-3846 time=0
EXTRACT: pitchwheel channel=3 pitch=-3846 time=0
EXTRACT: pitchwheel channel=3 pitch=-4013 time=0
EXTRACT: pitchwheel channel=3 pitch=-4013 time=0.0018656708333333332
EXTRACT: pitchwheel channel=3 pitch=-4180 time=0.0018656708333333332
EXTRACT: pitchwheel channel=3 pitch=-4180 time=0
EXTRACT: pitchwheel channel=3 pitch=-4180 time=0.0018656708333333332
EXTRACT: pitchwheel channel=3 pitch=-4348 time=0
EXTRACT: pitchwheel channel=3 pitch=-4348 time=0.0018656708333333332
EXTRACT: pitchwheel channel=3 pitch=-4348 time=0
EXTRACT: pitchwheel channel=3 pitch=-4348 time=0.0018656708333333332
EXTRACT: pitchwheel channel=3 pitch=-4348 time=0
EXTRACT: pitchwheel channel=3 pitch=-4348 time=0
EXTRACT: pitchwheel channel=3 pitch=-4348 time=0.0018656708333333332
EXTRACT: pitchwheel channel=3 pitch=-4515 time=0.0018656708333333332
EXTRACT: pitchwheel channel=3 pitch=-4515 time=0
EXTRACT: pitchwheel channel=3 pitch=-4515 time=0
EXTRACT: pitchwheel channel=3 pitch=-4515 time=0.0018656708333333332
EXTRACT: pitchwheel channel=3 pitch=-4515 time=0.0018656708333333332
EXTRACT: pitchwheel channel=3 pitch=-4515 time=0
EXTRACT: pitchwheel channel=3 pitch=-4682 time=0
EXTRACT: pitchwheel channel=3 pitch=-4682 time=0.0018656708333333332
EXTRACT: pitchwheel channel=3 pitch=-4682 time=0
EXTRACT: pitchwheel channel=3 pitch=-4682 time=0.0018656708333333332
EXTRACT: pitchwheel channel=3 pitch=-4682 time=0
EXTRACT: pitchwheel channel=3 pitch=-4682 time=0.0018656708333333332
EXTRACT: pitchwheel channel=3 pitch=-4682 time=0
EXTRACT: pitchwheel channel=3 pitch=-4682 time=0.0018656708333333332
EXTRACT: pitchwheel channel=3 pitch=-4682 time=0
EXTRACT: pitchwheel channel=3 pitch=-4682 time=0.0018656708333333332
EXTRACT: pitchwheel channel=3 pitch=-4682 time=0
EXTRACT: pitchwheel channel=3 pitch=-4682 time=0.0018656708333333332
EXTRACT: pitchwheel channel=3 pitch=-4682 time=0
EXTRACT: pitchwheel channel=3 pitch=-4682 time=0
EXTRACT: pitchwheel channel=3 pitch=-4682 time=0.0018656708333333332
EXTRACT: pitchwheel channel=3 pitch=-4682 time=0.0018656708333333332
EXTRACT: pitchwheel channel=3 pitch=-4682 time=0
EXTRACT: pitchwheel channel=3 pitch=-4682 time=0
EXTRACT: pitchwheel channel=3 pitch=-4682 time=0.0018656708333333332
EXTRACT: pitchwheel channel=3 pitch=-4682 time=0.0018656708333333332
EXTRACT: pitchwheel channel=3 pitch=-4682 time=0
EXTRACT: pitchwheel channel=3 pitch=-4515 time=0.0018656708333333332
EXTRACT: pitchwheel channel=3 pitch=-4515 time=0
EXTRACT: pitchwheel channel=3 pitch=-4515 time=0.0018656708333333332
EXTRACT: pitchwheel channel=3 pitch=-4515 time=0
EXTRACT: pitchwheel channel=3 pitch=-4515 time=0.0018656708333333332
EXTRACT: pitchwheel channel=3 pitch=-4348 time=0
EXTRACT: pitchwheel channel=3 pitch=-4348 time=0
EXTRACT: pitchwheel channel=3 pitch=-4348 time=0.0018656708333333332
EXTRACT: pitchwheel channel=3 pitch=-4180 time=0.0018656708333333332
EXTRACT: pitchwheel channel=3 pitch=-4180 time=0
EXTRACT: pitchwheel channel=3 pitch=-4180 time=0
EXTRACT: pitchwheel channel=3 pitch=-4180 time=0.0018656708333333332
EXTRACT: pitchwheel channel=3 pitch=-4013 time=0.0018656708333333332
EXTRACT: pitchwheel channel=3 pitch=-3846 time=0
EXTRACT: pitchwheel channel=3 pitch=-3846 time=0.0018656708333333332
EXTRACT: pitchwheel channel=3 pitch=-3846 time=0
EXTRACT: pitchwheel channel=3 pitch=-3846 time=0.0018656708333333332
EXTRACT: pitchwheel channel=3 pitch=-3679 time=0
EXTRACT: pitchwheel channel=3 pitch=-3679 time=0.0018656708333333332
EXTRACT: pitchwheel channel=3 pitch=-3679 time=0
EXTRACT: pitchwheel channel=3 pitch=-3679 time=0.0018656708333333332
EXTRACT: pitchwheel channel=3 pitch=-3512 time=0
EXTRACT: pitchwheel channel=3 pitch=-3512 time=0.0018656708333333332
EXTRACT: pitchwheel channel=3 pitch=-3344 time=0
EXTRACT: pitchwheel channel=3 pitch=-3344 time=0.0018656708333333332
EXTRACT: pitchwheel channel=3 pitch=-3177 time=0
EXTRACT: pitchwheel channel=3 pitch=-3177 time=0
EXTRACT: pitchwheel channel=3 pitch=-2843 time=0.0037313416666666663
EXTRACT: pitchwheel channel=3 pitch=-2843 time=0
EXTRACT: pitchwheel channel=3 pitch=-2843 time=0.0018656708333333332
EXTRACT: pitchwheel channel=3 pitch=-2843 time=0.0018656708333333332
EXTRACT: pitchwheel channel=3 pitch=-2843 time=0
EXTRACT: pitchwheel channel=3 pitch=-2676 time=0.0018656708333333332
EXTRACT: pitchwheel channel=3 pitch=-2509 time=0
EXTRACT: pitchwheel channel=3 pitch=-2509 time=0.0018656708333333332
EXTRACT: pitchwheel channel=3 pitch=-2509 time=0
EXTRACT: pitchwheel channel=3 pitch=-2509 time=0.0018656708333333332
EXTRACT: pitchwheel channel=3 pitch=-2341 time=0
EXTRACT: pitchwheel channel=3 pitch=-2341 time=0
EXTRACT: pitchwheel channel=3 pitch=-2341 time=0.0018656708333333332
EXTRACT: pitchwheel channel=3 pitch=-2174 time=0.0018656708333333332
EXTRACT: pitchwheel channel=3 pitch=-2174 time=0
EXTRACT: pitchwheel channel=3 pitch=-2174 time=0
EXTRACT: pitchwheel channel=3 pitch=-2174 time=0.0018656708333333332
EXTRACT: pitchwheel channel=3 pitch=-2174 time=0.0018656708333333332
EXTRACT: pitchwheel channel=3 pitch=-2174 time=0
EXTRACT: pitchwheel channel=3 pitch=-2007 time=0
EXTRACT: pitchwheel channel=3 pitch=-1840 time=0.0018656708333333332
EXTRACT: pitchwheel channel=3 pitch=-1840 time=0
EXTRACT: pitchwheel channel=3 pitch=-1840 time=0.0018656708333333332
EXTRACT: pitchwheel channel=3 pitch=-1840 time=0
EXTRACT: pitchwheel channel=3 pitch=-1673 time=0.0018656708333333332
EXTRACT: pitchwheel channel=3 pitch=-1673 time=0
EXTRACT: pitchwheel channel=3 pitch=-1506 time=0.0037313416666666663
EXTRACT: pitchwheel channel=3 pitch=-1338 time=0.0018656708333333332
EXTRACT: pitchwheel channel=3 pitch=-1338 time=0.0037313416666666663
EXTRACT: pitchwheel channel=3 pitch=-1004 time=0.007462683333333333
EXTRACT: pitchwheel channel=3 pitch=-837 time=0.0018656708333333332
EXTRACT: pitchwheel channel=3 pitch=-670 time=0.0037313416666666663
EXTRACT: pitchwheel channel=3 pitch=-503 time=0.0037313416666666663
EXTRACT: pitchwheel channel=3 pitch=-335 time=0.0018656708333333332
EXTRACT: pitchwheel channel=3 pitch=-168 time=0.0037313416666666663
EXTRACT: pitchwheel channel=3 pitch=-1 time=0.0037313416666666663
EXTRACT: note_on channel=3 note=78 velocity=0 time=0.6791041833333332
EXTRACT: note_on channel=3 note=78 velocity=94 time=0
EXTRACT: control_change channel=2 control=64 value=127 time=0.414178925
EXTRACT: note_on channel=3 note=78 velocity=0 time=0.026119391666666665
EXTRACT: note_on channel=3 note=80 velocity=94 time=0
EXTRACT: note_on channel=2 note=38 velocity=0 time=0.4029849
EXTRACT: note_on channel=2 note=45 velocity=0 time=0.01865670833333333
EXTRACT: note_on channel=2 note=62 velocity=0 time=0.014925366666666665
EXTRACT: note_on channel=2 note=57 velocity=0 time=0
EXTRACT: note_on channel=3 note=80 velocity=0 time=0.0037313416666666663
EXTRACT: note_on channel=2 note=66 velocity=0 time=0.0037313416666666663
EXTRACT: note_on channel=2 note=45 velocity=79 time=0
EXTRACT: note_on channel=2 note=52 velocity=79 time=0
EXTRACT: note_on channel=2 note=61 velocity=79 time=0
EXTRACT: note_on channel=2 note=64 velocity=79 time=0
EXTRACT: note_on channel=2 note=69 velocity=79 time=0
EXTRACT: note_on channel=3 note=81 velocity=99 time=0
EXTRACT: control_change channel=2 control=64 value=0 time=0.0895522
EXTRACT: control_change channel=2 control=64 value=0 time=0.009328354166666665
EXTRACT: note_on channel=3 note=81 velocity=0 time=0.11753726249999999
EXTRACT: control_change channel=2 control=64 value=127 time=0
EXTRACT: note_on channel=3 note=76 velocity=91 time=0
EXTRACT: note_on channel=3 note=76 velocity=0 time=0.414178925
EXTRACT: note_on channel=3 note=76 velocity=92 time=0
EXTRACT: note_on channel=3 note=76 velocity=0 time=0.414178925
EXTRACT: pitchwheel channel=3 pitch=4680 time=0.024253720833333332
EXTRACT: note_on channel=3 note=80 velocity=100 time=0
EXTRACT: pitchwheel channel=3 pitch=4346 time=0.10634323749999999
EXTRACT: pitchwheel channel=3 pitch=4178 time=0.026119391666666665
EXTRACT: pitchwheel channel=3 pitch=4011 time=0.011194025
EXTRACT: pitchwheel channel=3 pitch=3844 time=0.007462683333333333
EXTRACT: pitchwheel channel=3 pitch=3677 time=0.0055970125
EXTRACT: pitchwheel channel=3 pitch=3510 time=0.007462683333333333
EXTRACT: pitchwheel channel=3 pitch=3342 time=0.0037313416666666663
EXTRACT: pitchwheel channel=3 pitch=3175 time=0.0055970125
EXTRACT: pitchwheel channel=3 pitch=3008 time=0.0055970125
EXTRACT: pitchwheel channel=3 pitch=2841 time=0.0037313416666666663
EXTRACT: pitchwheel channel=3 pitch=2674 time=0.0037313416666666663
EXTRACT: pitchwheel channel=3 pitch=2507 time=0.0018656708333333332
EXTRACT: pitchwheel channel=3 pitch=2339 time=0.0037313416666666663
EXTRACT: pitchwheel channel=3 pitch=2172 time=0.0037313416666666663
EXTRACT: pitchwheel channel=3 pitch=2005 time=0.0037313416666666663
EXTRACT: pitchwheel channel=3 pitch=1838 time=0.0037313416666666663
EXTRACT: pitchwheel channel=3 pitch=1671 time=0.0018656708333333332
EXTRACT: pitchwheel channel=3 pitch=1504 time=0.0037313416666666663
EXTRACT: pitchwheel channel=3 pitch=1336 time=0.0037313416666666663
EXTRACT: pitchwheel channel=3 pitch=1169 time=0.0018656708333333332
EXTRACT: pitchwheel channel=3 pitch=1002 time=0.0037313416666666663
EXTRACT: pitchwheel channel=3 pitch=835 time=0.0018656708333333332
EXTRACT: pitchwheel channel=3 pitch=668 time=0.0037313416666666663
EXTRACT: pitchwheel channel=3 pitch=501 time=0.0018656708333333332
EXTRACT: pitchwheel channel=3 pitch=333 time=0.0018656708333333332
EXTRACT: pitchwheel channel=3 pitch=0 time=0.0037313416666666663
EXTRACT: pitchwheel channel=3 pitch=-1 time=0.0018656708333333332
EXTRACT: pitchwheel channel=3 pitch=0 time=0.0018656708333333332
EXTRACT: pitchwheel channel=3 pitch=0 time=0.03731341666666666
EXTRACT: note_on channel=2 note=69 velocity=0 time=0.07835817499999999
EXTRACT: note_on channel=2 note=45 velocity=0 time=0.014925366666666665
EXTRACT: note_on channel=2 note=52 velocity=0 time=0.02238805
EXTRACT: note_on channel=2 note=61 velocity=0 time=0.020522379166666663
EXTRACT: note_on channel=3 note=80 velocity=0 time=0.0055970125
EXTRACT: note_on channel=2 note=64 velocity=0 time=0.0055970125
EXTRACT: note_on channel=3 note=80 velocity=100 time=0
EXTRACT: note_on channel=2 note=44 velocity=79 time=0.22388049999999998
EXTRACT: note_on channel=2 note=52 velocity=79 time=0
EXTRACT: note_on channel=2 note=59 velocity=79 time=0
EXTRACT: note_on channel=2 note=64 velocity=79 time=0
EXTRACT: note_on channel=2 note=68 velocity=79 time=0
EXTRACT: control_change channel=2 control=64 value=0 time=0.10820890833333333
EXTRACT: note_on channel=3 note=80 velocity=0 time=0.3283580666666666
EXTRACT: control_change channel=2 control=64 value=127 time=0.25559690416666664
EXTRACT: pitchwheel channel=3 pitch=-4030 time=0.414178925
EXTRACT: note_on channel=3 note=81 velocity=98 time=0
EXTRACT: note_on channel=2 note=59 velocity=0 time=0.11753726249999999
EXTRACT: note_on channel=2 note=44 velocity=0 time=0.009328354166666665
EXTRACT: note_on channel=2 note=64 velocity=0 time=0.0055970125
EXTRACT: pitchwheel channel=3 pitch=-3761 time=0
EXTRACT: pitchwheel channel=3 pitch=-3627 time=0.0018656708333333332
EXTRACT: note_on channel=2 note=52 velocity=0 time=0.014925366666666665
EXTRACT: pitchwheel channel=3 pitch=-3492 time=0.0055970125
EXTRACT: note_on channel=2 note=68 velocity=0 time=0.0018656708333333332
EXTRACT: pitchwheel channel=3 pitch=-3358 time=0.0055970125
EXTRACT: pitchwheel channel=3 pitch=-3224 time=0.007462683333333333
EXTRACT: pitchwheel channel=3 pitch=-3090 time=0.0037313416666666663
EXTRACT: pitchwheel channel=3 pitch=-2955 time=0.0055970125
EXTRACT: pitchwheel channel=3 pitch=-2821 time=0.0037313416666666663
EXTRACT: pitchwheel channel=3 pitch=-2687 time=0.0037313416666666663
EXTRACT: pitchwheel channel=3 pitch=-2552 time=0.0055970125
EXTRACT: pitchwheel channel=3 pitch=-2418 time=0.0018656708333333332
EXTRACT: pitchwheel channel=3 pitch=-2284 time=0.0037313416666666663
EXTRACT: pitchwheel channel=3 pitch=-2150 time=0.0018656708333333332
EXTRACT: pitchwheel channel=3 pitch=-2015 time=0.0055970125
EXTRACT: pitchwheel channel=3 pitch=-1881 time=0.0018656708333333332
EXTRACT: pitchwheel channel=3 pitch=-1747 time=0.0018656708333333332
EXTRACT: pitchwheel channel=3 pitch=-1612 time=0.0037313416666666663
EXTRACT: pitchwheel channel=3 pitch=-1478 time=0.0037313416666666663
EXTRACT: pitchwheel channel=3 pitch=-1344 time=0.0018656708333333332
EXTRACT: pitchwheel channel=3 pitch=-1210 time=0.0018656708333333332
EXTRACT: pitchwheel channel=3 pitch=-1075 time=0.0018656708333333332
EXTRACT: pitchwheel channel=3 pitch=-941 time=0.0018656708333333332
EXTRACT: pitchwheel channel=3 pitch=-807 time=0.0018656708333333332
EXTRACT: pitchwheel channel=3 pitch=-672 time=0.0037313416666666663
EXTRACT: pitchwheel channel=3 pitch=-538 time=0.0018656708333333332
EXTRACT: pitchwheel channel=3 pitch=-404 time=0.0018656708333333332
EXTRACT: pitchwheel channel=3 pitch=-270 time=0.0018656708333333332
EXTRACT: pitchwheel channel=3 pitch=-135 time=0.0018656708333333332
EXTRACT: pitchwheel channel=3 pitch=-1 time=0.0037313416666666663
EXTRACT: pitchwheel channel=3 pitch=0 time=0.0018656708333333332
EXTRACT: note_on channel=3 note=81 velocity=0 time=0.19776110833333332
EXTRACT: note_on channel=3 note=78 velocity=87 time=0.007462683333333333
EXTRACT: note_on channel=3 note=78 velocity=0 time=0.18283574166666666
EXTRACT: note_on channel=2 note=42 velocity=79 time=0
EXTRACT: note_on channel=2 note=49 velocity=79 time=0
EXTRACT: note_on channel=2 note=57 velocity=79 time=0
EXTRACT: note_on channel=2 note=61 velocity=79 time=0
EXTRACT: note_on channel=2 note=66 velocity=79 time=0
EXTRACT: note_on channel=3 note=78 velocity=97 time=0
EXTRACT: control_change channel=2 control=64 value=0 time=0.04104475833333333
EXTRACT: control_change channel=2 control=64 value=127 time=0.9682831624999999
EXTRACT: note_on channel=2 note=49 velocity=0 time=0.18843275416666666
EXTRACT: note_on channel=2 note=42 velocity=0 time=0.06716414999999999
EXTRACT: note_on channel=2 note=66 velocity=0 time=0.048507441666666665
EXTRACT: note_on channel=2 note=57 velocity=0 time=0.011194025
EXTRACT: note_on channel=2 note=61 velocity=0 time=0.007462683333333333
EXTRACT: control_change channel=2 control=64 value=0 time=0.4048505708333333
EXTRACT: note_on channel=3 note=78 velocity=0 time=0.03171640416666666
EXTRACT: note_on channel=2 note=38 velocity=79 time=0.02238805
EXTRACT: note_on channel=2 note=45 velocity=79 time=0
EXTRACT: note_on channel=2 note=62 velocity=79 time=0
EXTRACT: note_on channel=2 note=66 velocity=79 time=0
EXTRACT: note_on channel=2 note=69 velocity=79 time=0
EXTRACT: note_on channel=3 note=81 velocity=95 time=0
EXTRACT: note_on channel=2 note=62 velocity=0 time=0.8358205333333333
EXTRACT: note_on channel=3 note=81 velocity=0 time=0.020522379166666663
EXTRACT: pitchwheel channel=3 pitch=-4171 time=0.033582074999999996
EXTRACT: pitchwheel channel=3 pitch=-4022 time=0.0018656708333333332
EXTRACT: note_on channel=2 note=57 velocity=87 time=0
EXTRACT: note_on channel=2 note=62 velocity=87 time=0
EXTRACT: note_on channel=3 note=85 velocity=95 time=0
EXTRACT: pitchwheel channel=3 pitch=-3873 time=0.02238805
EXTRACT: pitchwheel channel=3 pitch=-3724 time=0.011194025
EXTRACT: pitchwheel channel=3 pitch=-3575 time=0.009328354166666665
EXTRACT: pitchwheel channel=3 pitch=-3427 time=0.007462683333333333
EXTRACT: pitchwheel channel=3 pitch=-3278 time=0.007462683333333333
EXTRACT: pitchwheel channel=3 pitch=-3129 time=0.0055970125
EXTRACT: pitchwheel channel=3 pitch=-2980 time=0.0055970125
EXTRACT: pitchwheel channel=3 pitch=-2831 time=0.0037313416666666663
EXTRACT: pitchwheel channel=3 pitch=-2682 time=0.0055970125
EXTRACT: pitchwheel channel=3 pitch=-2533 time=0.0037313416666666663
EXTRACT: pitchwheel channel=3 pitch=-2384 time=0.0055970125
EXTRACT: pitchwheel channel=3 pitch=-2235 time=0.0037313416666666663
EXTRACT: pitchwheel channel=3 pitch=-2086 time=0.0037313416666666663
EXTRACT: pitchwheel channel=3 pitch=-1937 time=0.0037313416666666663
EXTRACT: pitchwheel channel=3 pitch=-1788 time=0.0037313416666666663
EXTRACT: pitchwheel channel=3 pitch=-1639 time=0.0037313416666666663
EXTRACT: pitchwheel channel=3 pitch=-1490 time=0.0018656708333333332
EXTRACT: pitchwheel channel=3 pitch=-1341 time=0.0037313416666666663
EXTRACT: pitchwheel channel=3 pitch=-1192 time=0.0037313416666666663
EXTRACT: pitchwheel channel=3 pitch=-1044 time=0.0037313416666666663
EXTRACT: pitchwheel channel=3 pitch=-895 time=0.0018656708333333332
EXTRACT: pitchwheel channel=3 pitch=-746 time=0.0037313416666666663
EXTRACT: pitchwheel channel=3 pitch=-597 time=0.0018656708333333332
EXTRACT: pitchwheel channel=3 pitch=-448 time=0.0037313416666666663
EXTRACT: pitchwheel channel=3 pitch=-299 time=0.0018656708333333332
EXTRACT: pitchwheel channel=3 pitch=-150 time=0.0037313416666666663
EXTRACT: pitchwheel channel=3 pitch=-1 time=0.0018656708333333332
EXTRACT: note_on channel=3 note=85 velocity=0 time=0.27238794166666663
EXTRACT: note_on channel=3 note=85 velocity=95 time=0
EXTRACT: control_change channel=2 control=64 value=127 time=0.14552232499999998
EXTRACT: note_on channel=2 note=69 velocity=0 time=0.16604470416666664
EXTRACT: note_on channel=2 note=38 velocity=0 time=0.09141787083333333
EXTRACT: note_on channel=2 note=62 velocity=0 time=0.0018656708333333332
EXTRACT: note_on channel=2 note=57 velocity=0 time=0
EXTRACT: note_on channel=3 note=85 velocity=0 time=0.009328354166666665
EXTRACT: note_on channel=2 note=45 velocity=0 time=0.007462683333333333
EXTRACT: note_on channel=2 note=66 velocity=0 time=0.02238805
EXTRACT: note_on channel=2 note=45 velocity=76 time=0
EXTRACT: note_on channel=2 note=52 velocity=76 time=0
EXTRACT: note_on channel=2 note=61 velocity=76 time=0
EXTRACT: note_on channel=2 note=69 velocity=76 time=0
EXTRACT: note_on channel=3 note=85 velocity=94 time=0
EXTRACT: control_change channel=2 control=64 value=127 time=0.2272725
EXTRACT: note_on channel=3 note=85 velocity=0 time=0.0549241875
EXTRACT: note_on channel=3 note=85 velocity=95 time=0
EXTRACT: note_on channel=2 note=61 velocity=0 time=0.056818125
EXTRACT: note_on channel=2 note=69 velocity=0 time=0.0473484375
EXTRACT: note_on channel=2 note=57 velocity=73 time=0.03787875
EXTRACT: note_on channel=2 note=64 velocity=73 time=0
EXTRACT: note_on channel=3 note=85 velocity=0 time=0.21969675
EXTRACT: note_on channel=2 note=57 velocity=0 time=0.15909075
EXTRACT: note_on channel=2 note=64 velocity=0 time=0.0359848125
EXTRACT: note_on channel=2 note=61 velocity=76 time=0.0397726875
EXTRACT: note_on channel=2 note=69 velocity=76 time=0
EXTRACT: pitchwheel channel=3 pitch=-4030 time=0.2253785625
EXTRACT: note_on channel=3 note=88 velocity=100 time=0
EXTRACT: pitchwheel channel=3 pitch=-3895 time=0.0018939375
EXTRACT: pitchwheel channel=3 pitch=-3761 time=0.041666625
EXTRACT: pitchwheel channel=3 pitch=-3627 time=0.018939375
EXTRACT: pitchwheel channel=3 pitch=-3492 time=0.011363625
EXTRACT: pitchwheel channel=3 pitch=-3358 time=0.0132575625
EXTRACT: pitchwheel channel=3 pitch=-3224 time=0.011363625
EXTRACT: pitchwheel channel=3 pitch=-3090 time=0.011363625
EXTRACT: pitchwheel channel=3 pitch=-2955 time=0.00757575
EXTRACT: pitchwheel channel=3 pitch=-2821 time=0.00757575
EXTRACT: pitchwheel channel=3 pitch=-2687 time=0.00757575
EXTRACT: pitchwheel channel=3 pitch=-2552 time=0.00757575
EXTRACT: note_on channel=2 note=61 velocity=0 time=0.0018939375
EXTRACT: pitchwheel channel=3 pitch=-2418 time=0.0056818125
EXTRACT: pitchwheel channel=3 pitch=-2284 time=0.003787875
EXTRACT: pitchwheel channel=3 pitch=-2150 time=0.00757575
EXTRACT: pitchwheel channel=3 pitch=-2015 time=0.00757575
EXTRACT: pitchwheel channel=3 pitch=-1881 time=0.003787875
EXTRACT: pitchwheel channel=3 pitch=-1747 time=0.003787875
EXTRACT: pitchwheel channel=3 pitch=-1612 time=0.00757575
EXTRACT: pitchwheel channel=3 pitch=-1478 time=0.003787875
EXTRACT: note_on channel=2 note=69 velocity=0 time=0.003787875
EXTRACT: pitchwheel channel=3 pitch=-1344 time=0.0056818125
EXTRACT: pitchwheel channel=3 pitch=-1210 time=0.003787875
EXTRACT: pitchwheel channel=3 pitch=-1075 time=0.003787875
EXTRACT: pitchwheel channel=3 pitch=-941 time=0.003787875
EXTRACT: pitchwheel channel=3 pitch=-807 time=0.00757575
EXTRACT: pitchwheel channel=3 pitch=-672 time=0.003787875
EXTRACT: pitchwheel channel=3 pitch=-538 time=0.003787875
EXTRACT: pitchwheel channel=3 pitch=-404 time=0.003787875
EXTRACT: note_on channel=2 note=57 velocity=74 time=0.0018939375
EXTRACT: note_on channel=2 note=64 velocity=74 time=0
EXTRACT: pitchwheel channel=3 pitch=-270 time=0.0018939375
EXTRACT: pitchwheel channel=3 pitch=-135 time=0.003787875
EXTRACT: pitchwheel channel=3 pitch=-1 time=0.003787875
EXTRACT: pitchwheel channel=3 pitch=0 time=0.003787875
EXTRACT: note_on channel=3 note=88 velocity=0 time=0.2064391875
EXTRACT: note_on channel=3 note=85 velocity=93 time=0
EXTRACT: note_on channel=2 note=57 velocity=0 time=0.151515
EXTRACT: note_on channel=2 note=64 velocity=0 time=0.0359848125
EXTRACT: note_on channel=3 note=85 velocity=0 time=0.0094696875
EXTRACT: note_on channel=2 note=52 velocity=0 time=0.02272725
EXTRACT: note_on channel=2 note=45 velocity=0 time=0
EXTRACT: note_on channel=2 note=40 velocity=76 time=0.00757575
EXTRACT: note_on channel=2 note=47 velocity=76 time=0
EXTRACT: note_on channel=2 note=59 velocity=75 time=0
EXTRACT: note_on channel=2 note=68 velocity=75 time=0
EXTRACT: note_on channel=3 note=85 velocity=96 time=0.003787875
EXTRACT: control_change channel=2 control=64 value=0 time=0.0814393125
EXTRACT: control_change channel=2 control=64 value=127 time=0.0549241875
EXTRACT: pitchwheel channel=3 pitch=-1 time=0.090909
EXTRACT: pitchwheel channel=3 pitch=-135 time=0.0284090625
EXTRACT: pitchwheel channel=3 pitch=-270 time=0.0132575625
EXTRACT: pitchwheel channel=3 pitch=-404 time=0.0056818125
EXTRACT: pitchwheel channel=3 pitch=-538 time=0.00757575
EXTRACT: pitchwheel channel=3 pitch=-672 time=0.00757575
EXTRACT: pitchwheel channel=3 pitch=-807 time=0.0056818125
EXTRACT: pitchwheel channel=3 pitch=-941 time=0.0056818125
EXTRACT: pitchwheel channel=3 pitch=-1075 time=0.0056818125
EXTRACT: pitchwheel channel=3 pitch=-1210 time=0.003787875
EXTRACT: pitchwheel channel=3 pitch=-1344 time=0.003787875
EXTRACT: pitchwheel channel=3 pitch=-1478 time=0.003787875
EXTRACT: pitchwheel channel=3 pitch=-1612 time=0.003787875
EXTRACT: pitchwheel channel=3 pitch=-1747 time=0.003787875
EXTRACT: pitchwheel channel=3 pitch=-1881 time=0.003787875
EXTRACT: pitchwheel channel=3 pitch=-2015 time=0.003787875
EXTRACT: pitchwheel channel=3 pitch=-2150 time=0.003787875
EXTRACT: pitchwheel channel=3 pitch=-2284 time=0.003787875
EXTRACT: pitchwheel channel=3 pitch=-2418 time=0.003787875
EXTRACT: pitchwheel channel=3 pitch=-2552 time=0.0018939375
EXTRACT: pitchwheel channel=3 pitch=-2687 time=0.003787875
EXTRACT: pitchwheel channel=3 pitch=-2821 time=0.003787875
EXTRACT: pitchwheel channel=3 pitch=-2955 time=0.0018939375
EXTRACT: pitchwheel channel=3 pitch=-3090 time=0.003787875
EXTRACT: pitchwheel channel=3 pitch=-3224 time=0.0018939375
EXTRACT: pitchwheel channel=3 pitch=-3358 time=0.0018939375
EXTRACT: note_on channel=2 note=59 velocity=0 time=0.0018939375
EXTRACT: pitchwheel channel=3 pitch=-3492 time=0
EXTRACT: pitchwheel channel=3 pitch=-3627 time=0.003787875
EXTRACT: pitchwheel channel=3 pitch=-3761 time=0.0018939375
EXTRACT: pitchwheel channel=3 pitch=-3895 time=0.003787875
EXTRACT: pitchwheel channel=3 pitch=-4030 time=0.0018939375
EXTRACT: pitchwheel channel=3 pitch=-4164 time=0.0018939375
EXTRACT: pitchwheel channel=3 pitch=-4298 time=0.003787875
EXTRACT: pitchwheel channel=3 pitch=-4432 time=0.0018939375
EXTRACT: pitchwheel channel=3 pitch=-4567 time=0.0018939375
EXTRACT: pitchwheel channel=3 pitch=-4701 time=0.0018939375
EXTRACT: pitchwheel channel=3 pitch=-4835 time=0.003787875
EXTRACT: pitchwheel channel=3 pitch=-4970 time=0.0018939375
EXTRACT: pitchwheel channel=3 pitch=-5104 time=0.0018939375
EXTRACT: pitchwheel channel=3 pitch=-5238 time=0.0018939375
EXTRACT: pitchwheel channel=3 pitch=-5372 time=0.003787875
EXTRACT: pitchwheel channel=3 pitch=-5507 time=0.0018939375
EXTRACT: pitchwheel channel=3 pitch=-5641 time=0.0018939375
EXTRACT: pitchwheel channel=3 pitch=-5775 time=0.0018939375
EXTRACT: pitchwheel channel=3 pitch=-5910 time=0.0018939375
EXTRACT: pitchwheel channel=3 pitch=-6044 time=0
EXTRACT: pitchwheel channel=3 pitch=-6178 time=0.0018939375
EXTRACT: note_on channel=2 note=68 velocity=0 time=0.0018939375
EXTRACT: pitchwheel channel=3 pitch=-6312 time=0
EXTRACT: pitchwheel channel=3 pitch=-6447 time=0.0018939375
EXTRACT: pitchwheel channel=3 pitch=-6581 time=0.003787875
EXTRACT: pitchwheel channel=3 pitch=-6715 time=0.0018939375
EXTRACT: pitchwheel channel=3 pitch=-6850 time=0.0018939375
EXTRACT: pitchwheel channel=3 pitch=-6984 time=0.0018939375
EXTRACT: pitchwheel channel=3 pitch=-7118 time=0.0018939375
EXTRACT: pitchwheel channel=3 pitch=-7252 time=0.0018939375
EXTRACT: pitchwheel channel=3 pitch=-7387 time=0.0018939375
EXTRACT: pitchwheel channel=3 pitch=-7521 time=0.0018939375
EXTRACT: pitchwheel channel=3 pitch=-7655 time=0.0018939375
EXTRACT: pitchwheel channel=3 pitch=-7790 time=0.0018939375
EXTRACT: pitchwheel channel=3 pitch=-7924 time=0.0018939375
EXTRACT: pitchwheel channel=3 pitch=-8058 time=0.0018939375
EXTRACT: pitchwheel channel=3 pitch=-8192 time=0.0018939375
EXTRACT: note_on channel=3 note=85 velocity=0 time=0.0018939375
EXTRACT: note_on channel=2 note=56 velocity=73 time=0.00757575
EXTRACT: note_on channel=2 note=64 velocity=73 time=0
EXTRACT: pitchwheel channel=3 pitch=0 time=0.109848375
EXTRACT: note_on channel=2 note=56 velocity=0 time=0.268939125
EXTRACT: note_on channel=2 note=64 velocity=0 time=0.0359848125
EXTRACT: note_on channel=2 note=59 velocity=78 time=0
EXTRACT: note_on channel=2 note=68 velocity=78 time=0
EXTRACT: note_on channel=3 note=86 velocity=95 time=0
EXTRACT: note_on channel=3 note=86 velocity=0 time=0.21969675
EXTRACT: note_on channel=3 note=85 velocity=88 time=0.00757575
EXTRACT: note_on channel=2 note=59 velocity=0 time=0.1420453125
EXTRACT: note_on channel=2 note=68 velocity=0 time=0.0473484375
EXTRACT: note_on channel=3 note=85 velocity=0 time=0.030303
EXTRACT: note_on channel=2 note=56 velocity=74 time=0
EXTRACT: note_on channel=2 note=64 velocity=74 time=0
EXTRACT: note_on channel=3 note=83 velocity=96 time=0
EXTRACT: note_on channel=3 note=83 velocity=0 time=0.21969675
EXTRACT: note_on channel=3 note=81 velocity=87 time=0.00757575
EXTRACT: note_on channel=2 note=40 velocity=0 time=0.1306816875
EXTRACT: note_on channel=2 note=56 velocity=0 time=0.0208333125
EXTRACT: note_on channel=3 note=81 velocity=0 time=0.0359848125
EXTRACT: note_on channel=2 note=64 velocity=0 time=0
EXTRACT: note_on channel=2 note=47 velocity=0 time=0.003787875
EXTRACT: pitchwheel channel=3 pitch=-8192 time=0.026515125
EXTRACT: pitchwheel channel=3 pitch=-8058 time=0.0018939375
EXTRACT: note_on channel=2 note=42 velocity=73 time=0
EXTRACT: note_on channel=2 note=49 velocity=73 time=0
EXTRACT: note_on channel=2 note=61 velocity=76 time=0
EXTRACT: note_on channel=2 note=69 velocity=76 time=0
EXTRACT: note_on channel=3 note=85 velocity=100 time=0
EXTRACT: pitchwheel channel=3 pitch=-7924 time=0.0208333125
EXTRACT: control_change channel=2 control=64 value=0 time=0.0018939375
EXTRACT: pitchwheel channel=3 pitch=-7790 time=0.0094696875
EXTRACT: pitchwheel channel=3 pitch=-7655 time=0.0094696875
EXTRACT: pitchwheel channel=3 pitch=-7521 time=0.00757575
EXTRACT: pitchwheel channel=3 pitch=-7387 time=0.00757575
EXTRACT: pitchwheel channel=3 pitch=-7252 time=0.00757575
EXTRACT: pitchwheel channel=3 pitch=-7118 time=0.0056818125
EXTRACT: pitchwheel channel=3 pitch=-6984 time=0.003787875
EXTRACT: pitchwheel channel=3 pitch=-6850 time=0.0056818125
EXTRACT: pitchwheel channel=3 pitch=-6715 time=0.003787875
EXTRACT: pitchwheel channel=3 pitch=-6581 time=0.0056818125
EXTRACT: pitchwheel channel=3 pitch=-6447 time=0.0056818125
EXTRACT: pitchwheel channel=3 pitch=-6312 time=0.0018939375
EXTRACT: pitchwheel channel=3 pitch=-6178 time=0.0056818125
EXTRACT: pitchwheel channel=3 pitch=-6044 time=0.003787875
EXTRACT: pitchwheel channel=3 pitch=-5910 time=0.003787875
EXTRACT: pitchwheel channel=3 pitch=-5775 time=0.003787875
EXTRACT: pitchwheel channel=3 pitch=-5641 time=0.0018939375
EXTRACT: pitchwheel channel=3 pitch=-5507 time=0.003787875
EXTRACT: pitchwheel channel=3 pitch=-5372 time=0.003787875
EXTRACT: pitchwheel channel=3 pitch=-5238 time=0.003787875
EXTRACT: pitchwheel channel=3 pitch=-5104 time=0.0018939375
EXTRACT: pitchwheel channel=3 pitch=-4970 time=0.003787875
EXTRACT: pitchwheel channel=3 pitch=-4835 time=0.003787875
EXTRACT: pitchwheel channel=3 pitch=-4701 time=0.0018939375
EXTRACT: pitchwheel channel=3 pitch=-4567 time=0.0018939375
EXTRACT: pitchwheel channel=3 pitch=-4432 time=0.003787875
EXTRACT: pitchwheel channel=3 pitch=-4298 time=0.003787875
EXTRACT: pitchwheel channel=3 pitch=-4164 time=0.0018939375
EXTRACT: pitchwheel channel=3 pitch=-4030 time=0.003787875
EXTRACT: pitchwheel channel=3 pitch=-3895 time=0.0018939375
EXTRACT: pitchwheel channel=3 pitch=-3761 time=0.003787875
EXTRACT: pitchwheel channel=3 pitch=-3627 time=0.0018939375
EXTRACT: pitchwheel channel=3 pitch=-3492 time=0.0018939375
EXTRACT: pitchwheel channel=3 pitch=-3358 time=0.0018939375
EXTRACT: pitchwheel channel=3 pitch=-3224 time=0.003787875
EXTRACT: pitchwheel channel=3 pitch=-3090 time=0.0018939375
EXTRACT: pitchwheel channel=3 pitch=-2955 time=0.0018939375
EXTRACT: pitchwheel channel=3 pitch=-2821 time=0.003787875
EXTRACT: pitchwheel channel=3 pitch=-2687 time=0.0018939375
EXTRACT: pitchwheel channel=3 pitch=-2552 time=0.0018939375
EXTRACT: pitchwheel channel=3 pitch=-2418 time=0.0018939375
EXTRACT: pitchwheel channel=3 pitch=-2284 time=0.0018939375
EXTRACT: pitchwheel channel=3 pitch=-2150 time=0.0018939375
EXTRACT: pitchwheel channel=3 pitch=-2015 time=0.003787875
EXTRACT: pitchwheel channel=3 pitch=-1881 time=0.0018939375
EXTRACT: pitchwheel channel=3 pitch=-1747 time=0.0018939375
EXTRACT: pitchwheel channel=3 pitch=-1612 time=0.0018939375
EXTRACT: pitchwheel channel=3 pitch=-1478 time=0.0018939375
EXTRACT: pitchwheel channel=3 pitch=-1344 time=0.0018939375
EXTRACT: pitchwheel channel=3 pitch=-1210 time=0.0018939375
EXTRACT: pitchwheel channel=3 pitch=-1075 time=0.0018939375
EXTRACT: pitchwheel channel=3 pitch=-941 time=0.0018939375
EXTRACT: pitchwheel channel=3 pitch=-807 time=0.003787875
EXTRACT: pitchwheel channel=3 pitch=-672 time=0.0018939375
EXTRACT: pitchwheel channel=3 pitch=-538 time=0.0018939375
EXTRACT: pitchwheel channel=3 pitch=-404 time=0.0018939375
EXTRACT: pitchwheel channel=3 pitch=-270 time=0.0018939375
EXTRACT: pitchwheel channel=3 pitch=-135 time=0.0018939375
EXTRACT: pitchwheel channel=3 pitch=-1 time=0.0018939375
EXTRACT: pitchwheel channel=3 pitch=0 time=0.0018939375
EXTRACT: note_on channel=3 note=85 velocity=0 time=0.0700756875
EXTRACT: control_change channel=2 control=64 value=127 time=0.011363625
EXTRACT: pitchwheel channel=3 pitch=-8058 time=0.0321969375
EXTRACT: pitchwheel channel=3 pitch=-7924 time=0.0018939375
EXTRACT: note_on channel=3 note=85 velocity=100 time=0
EXTRACT: pitchwheel channel=3 pitch=-7790 time=0.0132575625
EXTRACT: note_on channel=2 note=61 velocity=0 time=0.0094696875
EXTRACT: pitchwheel channel=3 pitch=-7655 time=0
EXTRACT: pitchwheel channel=3 pitch=-7521 time=0.00757575
EXTRACT: pitchwheel channel=3 pitch=-7387 time=0.00757575
EXTRACT: pitchwheel channel=3 pitch=-7252 time=0.0056818125
EXTRACT: pitchwheel channel=3 pitch=-7118 time=0.003787875
EXTRACT: pitchwheel channel=3 pitch=-6984 time=0.0056818125
EXTRACT: pitchwheel channel=3 pitch=-6850 time=0.003787875
EXTRACT: pitchwheel channel=3 pitch=-6715 time=0.0056818125
EXTRACT: pitchwheel channel=3 pitch=-6581 time=0.0018939375
EXTRACT: pitchwheel channel=3 pitch=-6447 time=0.003787875
EXTRACT: note_on channel=2 note=69 velocity=0 time=0.0018939375
EXTRACT: pitchwheel channel=3 pitch=-6312 time=0.0018939375
EXTRACT: pitchwheel channel=3 pitch=-6178 time=0.003787875
EXTRACT: pitchwheel channel=3 pitch=-6044 time=0.003787875
EXTRACT: pitchwheel channel=3 pitch=-5910 time=0.0018939375
EXTRACT: pitchwheel channel=3 pitch=-5775 time=0.003787875
EXTRACT: pitchwheel channel=3 pitch=-5641 time=0.0018939375
EXTRACT: pitchwheel channel=3 pitch=-5507 time=0.003787875
EXTRACT: pitchwheel channel=3 pitch=-5372 time=0.0018939375
EXTRACT: pitchwheel channel=3 pitch=-5238 time=0.0018939375
EXTRACT: pitchwheel channel=3 pitch=-5104 time=0.003787875
EXTRACT: pitchwheel channel=3 pitch=-4970 time=0.003787875
EXTRACT: pitchwheel channel=3 pitch=-4835 time=0.0018939375
EXTRACT: pitchwheel channel=3 pitch=-4701 time=0.0018939375
EXTRACT: note_on channel=2 note=57 velocity=73 time=0.0018939375
EXTRACT: note_on channel=2 note=66 velocity=73 time=0
EXTRACT: pitchwheel channel=3 pitch=-4567 time=0
EXTRACT: pitchwheel channel=3 pitch=-4432 time=0.003787875
EXTRACT: pitchwheel channel=3 pitch=-4298 time=0
EXTRACT: pitchwheel channel=3 pitch=-4164 time=0.003787875
EXTRACT: pitchwheel channel=3 pitch=-4030 time=0.0018939375
EXTRACT: pitchwheel channel=3 pitch=-3895 time=0.003787875
EXTRACT: pitchwheel channel=3 pitch=-3761 time=0
EXTRACT: pitchwheel channel=3 pitch=-3627 time=0.0018939375
EXTRACT: pitchwheel channel=3 pitch=-3492 time=0.003787875
EXTRACT: pitchwheel channel=3 pitch=-3358 time=0.0018939375
EXTRACT: pitchwheel channel=3 pitch=-3224 time=0
EXTRACT: pitchwheel channel=3 pitch=-3090 time=0.003787875
EXTRACT: pitchwheel channel=3 pitch=-2955 time=0.0018939375
EXTRACT: pitchwheel channel=3 pitch=-2821 time=0.0018939375
EXTRACT: pitchwheel channel=3 pitch=-2687 time=0
EXTRACT: pitchwheel channel=3 pitch=-2552 time=0.003787875
EXTRACT: pitchwheel channel=3 pitch=-2418 time=0.0018939375
EXTRACT: pitchwheel channel=3 pitch=-2284 time=0.0018939375
EXTRACT: pitchwheel channel=3 pitch=-2150 time=0.0018939375
EXTRACT: pitchwheel channel=3 pitch=-2015 time=0
EXTRACT: pitchwheel channel=3 pitch=-1881 time=0.003787875
EXTRACT: pitchwheel channel=3 pitch=-1747 time=0.0018939375
EXTRACT: pitchwheel channel=3 pitch=-1612 time=0.0018939375
EXTRACT: pitchwheel channel=3 pitch=-1478 time=0
EXTRACT: pitchwheel channel=3 pitch=-1344 time=0.0018939375
EXTRACT: pitchwheel channel=3 pitch=-1210 time=0.0018939375
EXTRACT: pitchwheel channel=3 pitch=-1075 time=0.0018939375
EXTRACT: pitchwheel channel=3 pitch=-941 time=0.0018939375
EXTRACT: pitchwheel channel=3 pitch=-807 time=0.0018939375
EXTRACT: pitchwheel channel=3 pitch=-672 time=0
EXTRACT: pitchwheel channel=3 pitch=-538 time=0.0018939375
EXTRACT: pitchwheel channel=3 pitch=-404 time=0.0018939375
EXTRACT: pitchwheel channel=3 pitch=-270 time=0.0018939375
EXTRACT: pitchwheel channel=3 pitch=-135 time=0.0018939375
EXTRACT: pitchwheel channel=3 pitch=-1 time=0.0018939375
EXTRACT: note_on channel=2 note=57 velocity=0 time=0.314393625
EXTRACT: note_on channel=2 note=66 velocity=0 time=0.0359848125
EXTRACT: note_on channel=2 note=61 velocity=76 time=0.0397726875
EXTRACT: note_on channel=2 note=69 velocity=76 time=0
EXTRACT: note_on channel=3 note=85 velocity=0 time=0.17424225
EXTRACT: pitchwheel channel=3 pitch=-8192 time=0.0473484375
EXTRACT: pitchwheel channel=3 pitch=-8058 time=0.0018939375
EXTRACT: note_on channel=3 note=85 velocity=100 time=0
EXTRACT: pitchwheel channel=3 pitch=-7924 time=0.0170454375
EXTRACT: pitchwheel channel=3 pitch=-7790 time=0.011363625
EXTRACT: pitchwheel channel=3 pitch=-7655 time=0.0056818125
EXTRACT: pitchwheel channel=3 pitch=-7521 time=0.00757575
EXTRACT: pitchwheel channel=3 pitch=-7387 time=0.0056818125
EXTRACT: pitchwheel channel=3 pitch=-7252 time=0.003787875
EXTRACT: pitchwheel channel=3 pitch=-7118 time=0.003787875
EXTRACT: pitchwheel channel=3 pitch=-6984 time=0.003787875
EXTRACT: pitchwheel channel=3 pitch=-6850 time=0.0056818125
EXTRACT: pitchwheel channel=3 pitch=-6715 time=0.0018939375
EXTRACT: pitchwheel channel=3 pitch=-6581 time=0.0056818125
EXTRACT: pitchwheel channel=3 pitch=-6447 time=0.0018939375
EXTRACT: pitchwheel channel=3 pitch=-6312 time=0.003787875
EXTRACT: pitchwheel channel=3 pitch=-6178 time=0.0018939375
EXTRACT: pitchwheel channel=3 pitch=-6044 time=0.003787875
EXTRACT: pitchwheel channel=3 pitch=-5910 time=0.0018939375
EXTRACT: pitchwheel channel=3 pitch=-5775 time=0.003787875
EXTRACT: pitchwheel channel=3 pitch=-5641 time=0.0018939375
EXTRACT: pitchwheel channel=3 pitch=-5507 time=0.003787875
EXTRACT: pitchwheel channel=3 pitch=-5372 time=0.0018939375
EXTRACT: pitchwheel channel=3 pitch=-5238 time=0.003787875
EXTRACT: pitchwheel channel=3 pitch=-5104 time=0.0018939375
EXTRACT: pitchwheel channel=3 pitch=-4970 time=0.0018939375
EXTRACT: pitchwheel channel=3 pitch=-4835 time=0.003787875
EXTRACT: pitchwheel channel=3 pitch=-4701 time=0
EXTRACT: pitchwheel channel=3 pitch=-4567 time=0.003787875
EXTRACT: pitchwheel channel=3 pitch=-4432 time=0.0018939375
EXTRACT: pitchwheel channel=3 pitch=-4298 time=0.0018939375
EXTRACT: pitchwheel channel=3 pitch=-4164 time=0.0018939375
EXTRACT: pitchwheel channel=3 pitch=-4030 time=0.003787875
EXTRACT: pitchwheel channel=3 pitch=-3895 time=0
EXTRACT: pitchwheel channel=3 pitch=-3761 time=0.003787875
EXTRACT: pitchwheel channel=3 pitch=-3627 time=0.0018939375
EXTRACT: pitchwheel channel=3 pitch=-3492 time=0
EXTRACT: pitchwheel channel=3 pitch=-3358 time=0.003787875
EXTRACT: pitchwheel channel=3 pitch=-3224 time=0.0018939375
EXTRACT: pitchwheel channel=3 pitch=-3090 time=0
EXTRACT: pitchwheel channel=3 pitch=-2955 time=0.003787875
EXTRACT: pitchwheel channel=3 pitch=-2821 time=0.0018939375
EXTRACT: pitchwheel channel=3 pitch=-2687 time=0
EXTRACT: pitchwheel channel=3 pitch=-2552 time=0.0018939375
EXTRACT: note_on channel=2 note=61 velocity=0 time=0.0018939375
EXTRACT: pitchwheel channel=3 pitch=-2418 time=0.0018939375
EXTRACT: pitchwheel channel=3 pitch=-2284 time=0
EXTRACT: pitchwheel channel=3 pitch=-2150 time=0.0018939375
EXTRACT: pitchwheel channel=3 pitch=-2015 time=0.0018939375
EXTRACT: pitchwheel channel=3 pitch=-1881 time=0.0018939375
EXTRACT: pitchwheel channel=3 pitch=-1747 time=0.0018939375
EXTRACT: pitchwheel channel=3 pitch=-1612 time=0.0018939375
EXTRACT: pitchwheel channel=3 pitch=-1478 time=0.0018939375
EXTRACT: pitchwheel channel=3 pitch=-1344 time=0.0018939375
EXTRACT: pitchwheel channel=3 pitch=-1210 time=0
EXTRACT: pitchwheel channel=3 pitch=-1075 time=0.0018939375
EXTRACT: pitchwheel channel=3 pitch=-941 time=0.0018939375
EXTRACT: pitchwheel channel=3 pitch=-807 time=0.0018939375
EXTRACT: pitchwheel channel=3 pitch=-672 time=0
EXTRACT: pitchwheel channel=3 pitch=-538 time=0.0018939375
EXTRACT: pitchwheel channel=3 pitch=-404 time=0.0018939375
EXTRACT: pitchwheel channel=3 pitch=-270 time=0.0018939375
EXTRACT: pitchwheel channel=3 pitch=-135 time=0
EXTRACT: pitchwheel channel=3 pitch=-1 time=0.0018939375
EXTRACT: pitchwheel channel=3 pitch=0 time=0.0018939375
EXTRACT: note_on channel=2 note=69 velocity=0 time=0.0170454375
EXTRACT: note_on channel=2 note=57 velocity=74 time=0.03787875
EXTRACT: note_on channel=2 note=66 velocity=74 time=0
EXTRACT: note_on channel=3 note=85 velocity=0 time=0.1969695
EXTRACT: pitchwheel channel=3 pitch=8191 time=0.0208333125
EXTRACT: note_on channel=3 note=81 velocity=97 time=0
EXTRACT: pitchwheel channel=3 pitch=8056 time=0.06818175
EXTRACT: pitchwheel channel=3 pitch=7788 time=0.0018939375
EXTRACT: pitchwheel channel=3 pitch=7519 time=0.0018939375
EXTRACT: pitchwheel channel=3 pitch=7519 time=0.0018939375
EXTRACT: pitchwheel channel=3 pitch=7385 time=0.003787875
EXTRACT: pitchwheel channel=3 pitch=7116 time=0.0018939375
EXTRACT: pitchwheel channel=3 pitch=7116 time=0.0018939375
EXTRACT: pitchwheel channel=3 pitch=6982 time=0
EXTRACT: pitchwheel channel=3 pitch=6713 time=0.0018939375
EXTRACT: pitchwheel channel=3 pitch=6310 time=0.0018939375
EXTRACT: pitchwheel channel=3 pitch=6042 time=0.0018939375
EXTRACT: pitchwheel channel=3 pitch=6042 time=0.003787875
EXTRACT: pitchwheel channel=3 pitch=5908 time=0.0018939375
EXTRACT: pitchwheel channel=3 pitch=5773 time=0
EXTRACT: pitchwheel channel=3 pitch=5505 time=0.0018939375
EXTRACT: pitchwheel channel=3 pitch=5370 time=0.0018939375
EXTRACT: pitchwheel channel=3 pitch=5370 time=0.0018939375
EXTRACT: pitchwheel channel=3 pitch=5236 time=0.0018939375
EXTRACT: pitchwheel channel=3 pitch=4833 time=0.0018939375
EXTRACT: pitchwheel channel=3 pitch=4699 time=0.0018939375
EXTRACT: pitchwheel channel=3 pitch=4430 time=0
EXTRACT: pitchwheel channel=3 pitch=4162 time=0.0018939375
EXTRACT: pitchwheel channel=3 pitch=3893 time=0.003787875
EXTRACT: pitchwheel channel=3 pitch=3625 time=0.0018939375
EXTRACT: pitchwheel channel=3 pitch=3356 time=0.003787875
EXTRACT: pitchwheel channel=3 pitch=3356 time=0.0018939375
EXTRACT: pitchwheel channel=3 pitch=3222 time=0
EXTRACT: pitchwheel channel=3 pitch=3088 time=0.0018939375
EXTRACT: pitchwheel channel=3 pitch=2550 time=0.0018939375
EXTRACT: pitchwheel channel=3 pitch=2550 time=0.0018939375
EXTRACT: pitchwheel channel=3 pitch=2550 time=0.0018939375
EXTRACT: pitchwheel channel=3 pitch=2148 time=0.0018939375
EXTRACT: pitchwheel channel=3 pitch=2013 time=0.0018939375
EXTRACT: pitchwheel channel=3 pitch=1745 time=0
EXTRACT: pitchwheel channel=3 pitch=1745 time=0.0018939375
EXTRACT: pitchwheel channel=3 pitch=1610 time=0.0018939375
EXTRACT: pitchwheel channel=3 pitch=1476 time=0.0018939375
EXTRACT: pitchwheel channel=3 pitch=1208 time=0.0018939375
EXTRACT: pitchwheel channel=3 pitch=939 time=0
EXTRACT: pitchwheel channel=3 pitch=670 time=0.0018939375
EXTRACT: pitchwheel channel=3 pitch=670 time=0.0018939375
EXTRACT: pitchwheel channel=3 pitch=670 time=0.0018939375
EXTRACT: pitchwheel channel=3 pitch=0 time=0.0056818125
EXTRACT: note_on channel=2 note=57 velocity=0 time=0.003787875
EXTRACT: note_on channel=2 note=66 velocity=0 time=0.0359848125
EXTRACT: note_on channel=3 note=81 velocity=0 time=0.0321969375
EXTRACT: note_on channel=2 note=49 velocity=0 time=0
EXTRACT: note_on channel=2 note=42 velocity=0 time=0
EXTRACT: note_on channel=2 note=38 velocity=73 time=0.00757575
EXTRACT: note_on channel=2 note=45 velocity=73 time=0
EXTRACT: note_on channel=2 note=62 velocity=75 time=0
EXTRACT: note_on channel=2 note=69 velocity=75 time=0
EXTRACT: note_on channel=3 note=78 velocity=90 time=0
EXTRACT: control_change channel=2 control=64 value=0 time=0.039179087499999994
EXTRACT: control_change channel=2 control=64 value=127 time=0.048507441666666665
EXTRACT: note_on channel=2 note=62 velocity=0 time=0.2705222708333333
EXTRACT: note_on channel=2 note=69 velocity=0 time=0.04664177083333333
EXTRACT: note_on channel=3 note=78 velocity=0 time=0.027985062499999998
EXTRACT: note_on channel=2 note=57 velocity=75 time=0.009328354166666665
EXTRACT: note_on channel=2 note=66 velocity=75 time=0
EXTRACT: note_on channel=2 note=57 velocity=0 time=0.37313416666666666
EXTRACT: note_on channel=2 note=66 velocity=0 time=0.03544774583333333
EXTRACT: note_on channel=2 note=62 velocity=86 time=0
EXTRACT: note_on channel=2 note=69 velocity=86 time=0
EXTRACT: note_on channel=3 note=81 velocity=100 time=0
EXTRACT: note_on channel=3 note=81 velocity=0 time=0.19216409583333333
EXTRACT: note_on channel=3 note=81 velocity=98 time=0
EXTRACT: note_on channel=2 note=62 velocity=0 time=0.13992531249999998
EXTRACT: note_on channel=2 note=69 velocity=0 time=0.04664177083333333
EXTRACT: note_on channel=2 note=57 velocity=83 time=0.03731341666666666
EXTRACT: note_on channel=2 note=66 velocity=83 time=0
EXTRACT: note_on channel=3 note=81 velocity=0 time=0.19402976666666666
EXTRACT: note_on channel=3 note=81 velocity=100 time=0
EXTRACT: note_on channel=2 note=38 velocity=0 time=0.11007457916666666
EXTRACT: note_on channel=2 note=57 velocity=0 time=0.039179087499999994
EXTRACT: note_on channel=2 note=45 velocity=0 time=0.01865670833333333
EXTRACT: note_on channel=2 note=66 velocity=0 time=0.016791037499999998
EXTRACT: note_on channel=3 note=81 velocity=0 time=0.0037313416666666663
EXTRACT: note_on channel=2 note=45 velocity=76 time=0
EXTRACT: note_on channel=2 note=52 velocity=76 time=0
EXTRACT: note_on channel=2 note=61 velocity=76 time=0
EXTRACT: note_on channel=2 note=69 velocity=76 time=0
EXTRACT: note_on channel=3 note=81 velocity=91 time=0
EXTRACT: control_change channel=2 control=64 value=127 time=0.22058799999999998
EXTRACT: note_on channel=2 note=61 velocity=0 time=0.1378675
EXTRACT: note_on channel=2 note=69 velocity=0 time=0.045955833333333335
EXTRACT: note_on channel=2 note=57 velocity=73 time=0.03676466666666667
EXTRACT: note_on channel=2 note=64 velocity=73 time=0
EXTRACT: note_on channel=3 note=81 velocity=0 time=0.20036743333333332
EXTRACT: note_on channel=3 note=76 velocity=83 time=0
EXTRACT: note_on channel=2 note=57 velocity=0 time=0.14705866666666667
EXTRACT: note_on channel=3 note=76 velocity=0 time=0.031249966666666667
EXTRACT: note_on channel=2 note=64 velocity=0 time=0.0036764666666666665
EXTRACT: note_on channel=2 note=61 velocity=76 time=0
EXTRACT: note_on channel=2 note=69 velocity=76 time=0
EXTRACT: note_on channel=3 note=76 velocity=90 time=0
EXTRACT: note_on channel=2 note=61 velocity=0 time=0.3584555
EXTRACT: note_on channel=2 note=69 velocity=0 time=0.045955833333333335
EXTRACT: note_on channel=2 note=57 velocity=74 time=0.03676466666666667
EXTRACT: note_on channel=2 note=64 velocity=74 time=0
EXTRACT: note_on channel=3 note=76 velocity=0 time=0.18566156666666667
EXTRACT: note_on channel=3 note=76 velocity=88 time=0
EXTRACT: note_on channel=2 note=52 velocity=0 time=0.10661753333333333
EXTRACT: note_on channel=2 note=45 velocity=0 time=0
EXTRACT: note_on channel=2 note=57 velocity=0 time=0.04044113333333333
EXTRACT: note_on channel=2 note=64 velocity=0 time=0.03492643333333333
EXTRACT: note_on channel=3 note=76 velocity=0 time=0.029411733333333332
EXTRACT: note_on channel=2 note=44 velocity=76 time=0
EXTRACT: note_on channel=2 note=52 velocity=76 time=0
EXTRACT: note_on channel=2 note=59 velocity=75 time=0
EXTRACT: note_on channel=2 note=68 velocity=75 time=0
EXTRACT: note_on channel=3 note=78 velocity=97 time=0
EXTRACT: control_change channel=2 control=64 value=0 time=0.0827205
EXTRACT: control_change channel=2 control=64 value=127 time=0.0606617
EXTRACT: note_on channel=3 note=78 velocity=0 time=0.06985286666666667
EXTRACT: note_on channel=3 note=76 velocity=90 time=0
EXTRACT: note_on channel=2 note=59 velocity=0 time=0.1378675
EXTRACT: note_on channel=2 note=68 velocity=0 time=0.045955833333333335
EXTRACT: note_on channel=2 note=56 velocity=73 time=0.03676466666666667
EXTRACT: note_on channel=2 note=64 velocity=73 time=0
EXTRACT: note_on channel=3 note=76 velocity=0 time=0.18566156666666667
EXTRACT: note_on channel=3 note=76 velocity=90 time=0
EXTRACT: note_on channel=2 note=56 velocity=0 time=0.14705866666666667
EXTRACT: note_on channel=2 note=64 velocity=0 time=0.03492643333333333
EXTRACT: note_on channel=3 note=76 velocity=0 time=0.027573499999999997
EXTRACT: note_on channel=2 note=59 velocity=78 time=0.0110294
EXTRACT: note_on channel=2 note=68 velocity=78 time=0
EXTRACT: pitchwheel channel=3 pitch=-8192 time=0.20955859999999998
EXTRACT: note_on channel=3 note=78 velocity=100 time=0
EXTRACT: pitchwheel channel=3 pitch=-7448 time=0.03676466666666667
EXTRACT: pitchwheel channel=3 pitch=-7448 time=0.0018382333333333333
EXTRACT: pitchwheel channel=3 pitch=-7448 time=0.0018382333333333333
EXTRACT: pitchwheel channel=3 pitch=-7448 time=0.0018382333333333333
EXTRACT: pitchwheel channel=3 pitch=-7448 time=0.0036764666666666665
EXTRACT: pitchwheel channel=3 pitch=-7299 time=0.0018382333333333333
EXTRACT: pitchwheel channel=3 pitch=-7150 time=0.0018382333333333333
EXTRACT: pitchwheel channel=3 pitch=-7150 time=0.0018382333333333333
EXTRACT: pitchwheel channel=3 pitch=-7001 time=0.0018382333333333333
EXTRACT: pitchwheel channel=3 pitch=-6852 time=0.0018382333333333333
EXTRACT: pitchwheel channel=3 pitch=-6703 time=0.0018382333333333333
EXTRACT: pitchwheel channel=3 pitch=-6554 time=0.0018382333333333333
EXTRACT: pitchwheel channel=3 pitch=-6405 time=0.0018382333333333333
EXTRACT: pitchwheel channel=3 pitch=-6256 time=0.0036764666666666665
EXTRACT: pitchwheel channel=3 pitch=-6256 time=0.0036764666666666665
EXTRACT: pitchwheel channel=3 pitch=-6107 time=0.0018382333333333333
EXTRACT: pitchwheel channel=3 pitch=-5958 time=0.0018382333333333333
EXTRACT: pitchwheel channel=3 pitch=-5958 time=0.0018382333333333333
EXTRACT: pitchwheel channel=3 pitch=-5810 time=0.0018382333333333333
EXTRACT: pitchwheel channel=3 pitch=-5661 time=0.0036764666666666665
EXTRACT: pitchwheel channel=3 pitch=-5661 time=0.0018382333333333333
EXTRACT: pitchwheel channel=3 pitch=-5512 time=0.0018382333333333333
EXTRACT: pitchwheel channel=3 pitch=-5363 time=0.0018382333333333333
EXTRACT: pitchwheel channel=3 pitch=-5214 time=0.0018382333333333333
EXTRACT: pitchwheel channel=3 pitch=-4916 time=0.0036764666666666665
EXTRACT: pitchwheel channel=3 pitch=-4618 time=0.0036764666666666665
EXTRACT: pitchwheel channel=3 pitch=-4618 time=0.0018382333333333333
EXTRACT: pitchwheel channel=3 pitch=-4320 time=0.0018382333333333333
EXTRACT: pitchwheel channel=3 pitch=-4171 time=0.0018382333333333333
EXTRACT: pitchwheel channel=3 pitch=-4022 time=0.0018382333333333333
EXTRACT: pitchwheel channel=3 pitch=-3873 time=0.0018382333333333333
EXTRACT: pitchwheel channel=3 pitch=-3724 time=0.0018382333333333333
EXTRACT: pitchwheel channel=3 pitch=-3575 time=0.0036764666666666665
EXTRACT: pitchwheel channel=3 pitch=-3129 time=0.0018382333333333333
EXTRACT: pitchwheel channel=3 pitch=-2831 time=0.0018382333333333333
EXTRACT: pitchwheel channel=3 pitch=-2831 time=0.0018382333333333333
EXTRACT: pitchwheel channel=3 pitch=-2384 time=0.0018382333333333333
EXTRACT: pitchwheel channel=3 pitch=-2235 time=0.0018382333333333333
EXTRACT: pitchwheel channel=3 pitch=-1937 time=0.0018382333333333333
EXTRACT: pitchwheel channel=3 pitch=-1639 time=0.0018382333333333333
EXTRACT: pitchwheel channel=3 pitch=-1044 time=0.0018382333333333333
EXTRACT: pitchwheel channel=3 pitch=-746 time=0.0018382333333333333
EXTRACT: pitchwheel channel=3 pitch=-448 time=0.0018382333333333333
EXTRACT: pitchwheel channel=3 pitch=0 time=0.0018382333333333333
EXTRACT: note_on channel=2 note=59 velocity=0 time=0.0110294
EXTRACT: note_on channel=2 note=68 velocity=0 time=0.045955833333333335
EXTRACT: note_on channel=2 note=56 velocity=74 time=0.03676466666666667
EXTRACT: note_on channel=2 note=64 velocity=74 time=0
EXTRACT: note_on channel=3 note=78 velocity=0 time=0.18566156666666667
EXTRACT: pitchwheel channel=3 pitch=-8192 time=0.027573499999999997
EXTRACT: note_on channel=3 note=78 velocity=100 time=0
EXTRACT: pitchwheel channel=3 pitch=-7448 time=0.038602899999999996
EXTRACT: pitchwheel channel=3 pitch=-7448 time=0.0018382333333333333
EXTRACT: pitchwheel channel=3 pitch=-7448 time=0.0018382333333333333
EXTRACT: pitchwheel channel=3 pitch=-7448 time=0.0018382333333333333
EXTRACT: pitchwheel channel=3 pitch=-7448 time=0.0036764666666666665
EXTRACT: pitchwheel channel=3 pitch=-7299 time=0.0018382333333333333
EXTRACT: pitchwheel channel=3 pitch=-7150 time=0.0018382333333333333
EXTRACT: pitchwheel channel=3 pitch=-7150 time=0.0018382333333333333
EXTRACT: pitchwheel channel=3 pitch=-7001 time=0.0018382333333333333
EXTRACT: pitchwheel channel=3 pitch=-6852 time=0.0018382333333333333
EXTRACT: pitchwheel channel=3 pitch=-6703 time=0.0018382333333333333
EXTRACT: pitchwheel channel=3 pitch=-6554 time=0.0018382333333333333
EXTRACT: pitchwheel channel=3 pitch=-6405 time=0.0018382333333333333
EXTRACT: pitchwheel channel=3 pitch=-6256 time=0.0036764666666666665
EXTRACT: pitchwheel channel=3 pitch=-6256 time=0.0036764666666666665
EXTRACT: pitchwheel channel=3 pitch=-6107 time=0.0018382333333333333
EXTRACT: pitchwheel channel=3 pitch=-5958 time=0.0018382333333333333
EXTRACT: pitchwheel channel=3 pitch=-5958 time=0.0018382333333333333
EXTRACT: pitchwheel channel=3 pitch=-5810 time=0.0018382333333333333
EXTRACT: pitchwheel channel=3 pitch=-5661 time=0.0036764666666666665
EXTRACT: pitchwheel channel=3 pitch=-5661 time=0.0018382333333333333
EXTRACT: pitchwheel channel=3 pitch=-5512 time=0.0018382333333333333
EXTRACT: pitchwheel channel=3 pitch=-5363 time=0.0018382333333333333
EXTRACT: pitchwheel channel=3 pitch=-5214 time=0.0018382333333333333
EXTRACT: pitchwheel channel=3 pitch=-4916 time=0.0036764666666666665
EXTRACT: pitchwheel channel=3 pitch=-4618 time=0.0036764666666666665
EXTRACT: pitchwheel channel=3 pitch=-4618 time=0.0036764666666666665
EXTRACT: pitchwheel channel=3 pitch=-4320 time=0.0018382333333333333
EXTRACT: pitchwheel channel=3 pitch=-4171 time=0.0018382333333333333
EXTRACT: pitchwheel channel=3 pitch=-4022 time=0.0018382333333333333
EXTRACT: pitchwheel channel=3 pitch=-3873 time=0.0018382333333333333
EXTRACT: pitchwheel channel=3 pitch=-3724 time=0.0018382333333333333
EXTRACT: pitchwheel channel=3 pitch=-3575 time=0.0018382333333333333
EXTRACT: pitchwheel channel=3 pitch=-3129 time=0.0018382333333333333
EXTRACT: pitchwheel channel=3 pitch=-2831 time=0.0018382333333333333
EXTRACT: pitchwheel channel=3 pitch=-2831 time=0.0018382333333333333
EXTRACT: pitchwheel channel=3 pitch=-2384 time=0.0018382333333333333
EXTRACT: pitchwheel channel=3 pitch=-2235 time=0.0018382333333333333
EXTRACT: pitchwheel channel=3 pitch=-1937 time=0.0018382333333333333
EXTRACT: pitchwheel channel=3 pitch=-1639 time=0.0018382333333333333
EXTRACT: pitchwheel channel=3 pitch=-1044 time=0.0018382333333333333
EXTRACT: note_on channel=2 note=44 velocity=0 time=0.0018382333333333333
EXTRACT: pitchwheel channel=3 pitch=-746 time=0
EXTRACT: pitchwheel channel=3 pitch=-448 time=0.0018382333333333333
EXTRACT: pitchwheel channel=3 pitch=0 time=0.0018382333333333333
EXTRACT: note_on channel=2 note=56 velocity=0 time=0.0165441
EXTRACT: note_on channel=2 note=64 velocity=0 time=0.03492643333333333
EXTRACT: note_on channel=2 note=52 velocity=0 time=0.0036764666666666665
EXTRACT: note_on channel=2 note=42 velocity=73 time=0.03492643333333333
EXTRACT: note_on channel=2 note=49 velocity=73 time=0
EXTRACT: note_on channel=2 note=57 velocity=76 time=0
EXTRACT: note_on channel=2 note=66 velocity=76 time=0
EXTRACT: control_change channel=2 control=64 value=0 time=0.0220588
EXTRACT: note_on channel=3 note=78 velocity=0 time=0.16360276666666665
EXTRACT: pitchwheel channel=3 pitch=-8192 time=0.02389703333333333
EXTRACT: pitchwheel channel=3 pitch=-8058 time=0.0018382333333333333
EXTRACT: note_on channel=3 note=78 velocity=100 time=0
EXTRACT: control_change channel=2 control=64 value=127 time=0.07352933333333334
EXTRACT: note_on channel=2 note=57 velocity=0 time=0.06433816666666667
EXTRACT: pitchwheel channel=3 pitch=-7895 time=0.02389703333333333
EXTRACT: pitchwheel channel=3 pitch=-7895 time=0.0036764666666666665
EXTRACT: pitchwheel channel=3 pitch=-7746 time=0.0018382333333333333
EXTRACT: pitchwheel channel=3 pitch=-7746 time=0.0036764666666666665
EXTRACT: pitchwheel channel=3 pitch=-7597 time=0.0018382333333333333
EXTRACT: note_on channel=2 note=66 velocity=0 time=0.0110294
EXTRACT: pitchwheel channel=3 pitch=-7597 time=0
EXTRACT: pitchwheel channel=3 pitch=-7448 time=0.0018382333333333333
EXTRACT: pitchwheel channel=3 pitch=-7299 time=0.0018382333333333333
EXTRACT: pitchwheel channel=3 pitch=-7150 time=0.0036764666666666665
EXTRACT: pitchwheel channel=3 pitch=-7150 time=0.0018382333333333333
EXTRACT: pitchwheel channel=3 pitch=-7001 time=0.0018382333333333333
EXTRACT: pitchwheel channel=3 pitch=-6852 time=0.0036764666666666665
EXTRACT: pitchwheel channel=3 pitch=-6852 time=0.0036764666666666665
EXTRACT: pitchwheel channel=3 pitch=-6703 time=0.0018382333333333333
EXTRACT: pitchwheel channel=3 pitch=-6554 time=0.0018382333333333333
EXTRACT: pitchwheel channel=3 pitch=-6405 time=0.0036764666666666665
EXTRACT: pitchwheel channel=3 pitch=-6405 time=0.0018382333333333333
EXTRACT: pitchwheel channel=3 pitch=-6256 time=0.0018382333333333333
EXTRACT: pitchwheel channel=3 pitch=-6107 time=0.0055147
EXTRACT: note_on channel=2 note=54 velocity=81 time=0.0018382333333333333
EXTRACT: note_on channel=2 note=61 velocity=81 time=0
EXTRACT: pitchwheel channel=3 pitch=-6107 time=0.0018382333333333333
EXTRACT: pitchwheel channel=3 pitch=-5958 time=0.0018382333333333333
EXTRACT: pitchwheel channel=3 pitch=-5810 time=0.0018382333333333333
EXTRACT: pitchwheel channel=3 pitch=-5661 time=0.0036764666666666665
EXTRACT: pitchwheel channel=3 pitch=-5661 time=0.0018382333333333333
EXTRACT: pitchwheel channel=3 pitch=-5512 time=0.0018382333333333333
EXTRACT: pitchwheel channel=3 pitch=-5363 time=0.0055147
EXTRACT: pitchwheel channel=3 pitch=-5363 time=0.0018382333333333333
EXTRACT: pitchwheel channel=3 pitch=-5214 time=0.0018382333333333333
EXTRACT: pitchwheel channel=3 pitch=-5065 time=0.0018382333333333333
EXTRACT: pitchwheel channel=3 pitch=-5065 time=0.0018382333333333333
EXTRACT: pitchwheel channel=3 pitch=-4916 time=0.0018382333333333333
EXTRACT: pitchwheel channel=3 pitch=-4767 time=0.0036764666666666665
EXTRACT: pitchwheel channel=3 pitch=-4618 time=0.0036764666666666665
EXTRACT: pitchwheel channel=3 pitch=-4618 time=0.0036764666666666665
EXTRACT: pitchwheel channel=3 pitch=-4469 time=0.0018382333333333333
EXTRACT: pitchwheel channel=3 pitch=-4320 time=0.0036764666666666665
EXTRACT: pitchwheel channel=3 pitch=-4320 time=0.0018382333333333333
EXTRACT: pitchwheel channel=3 pitch=-4171 time=0.0018382333333333333
EXTRACT: pitchwheel channel=3 pitch=-4022 time=0.0018382333333333333
EXTRACT: pitchwheel channel=3 pitch=-3873 time=0.0018382333333333333
EXTRACT: pitchwheel channel=3 pitch=-3724 time=0.0018382333333333333
EXTRACT: pitchwheel channel=3 pitch=-3575 time=0.0018382333333333333
EXTRACT: pitchwheel channel=3 pitch=-3427 time=0.0018382333333333333
EXTRACT: pitchwheel channel=3 pitch=-3427 time=0.0018382333333333333
EXTRACT: pitchwheel channel=3 pitch=-3278 time=0.0018382333333333333
EXTRACT: pitchwheel channel=3 pitch=-3129 time=0.0036764666666666665
EXTRACT: pitchwheel channel=3 pitch=-2980 time=0.0036764666666666665
EXTRACT: pitchwheel channel=3 pitch=-2980 time=0.0018382333333333333
EXTRACT: pitchwheel channel=3 pitch=-2831 time=0.0018382333333333333
EXTRACT: pitchwheel channel=3 pitch=-2682 time=0.0018382333333333333
EXTRACT: pitchwheel channel=3 pitch=-2533 time=0.0018382333333333333
EXTRACT: pitchwheel channel=3 pitch=-2235 time=0.0018382333333333333
EXTRACT: pitchwheel channel=3 pitch=-2235 time=0.0018382333333333333
EXTRACT: pitchwheel channel=3 pitch=-1937 time=0.0018382333333333333
EXTRACT: pitchwheel channel=3 pitch=-1788 time=0.0018382333333333333
EXTRACT: pitchwheel channel=3 pitch=-1490 time=0.0018382333333333333
EXTRACT: pitchwheel channel=3 pitch=-1192 time=0.0018382333333333333
EXTRACT: pitchwheel channel=3 pitch=-1044 time=0.0018382333333333333
EXTRACT: pitchwheel channel=3 pitch=-895 time=0.0018382333333333333
EXTRACT: pitchwheel channel=3 pitch=-597 time=0.0018382333333333333
EXTRACT: pitchwheel channel=3 pitch=-597 time=0.0036764666666666665
EXTRACT: pitchwheel channel=3 pitch=-448 time=0.0018382333333333333
EXTRACT: pitchwheel channel=3 pitch=-448 time=0.0018382333333333333
EXTRACT: pitchwheel channel=3 pitch=-299 time=0.0018382333333333333
EXTRACT: pitchwheel channel=3 pitch=0 time=0.0018382333333333333
EXTRACT: note_on channel=2 note=54 velocity=0 time=0.2647056
EXTRACT: note_on channel=2 note=61 velocity=0 time=0.03492643333333333
EXTRACT: note_on channel=2 note=57 velocity=94 time=0.038602899999999996
EXTRACT: note_on channel=2 note=66 velocity=94 time=0
EXTRACT: note_on channel=2 note=57 velocity=0 time=0.3584555
EXTRACT: note_on channel=3 note=78 velocity=0 time=0.038602899999999996
EXTRACT: note_on channel=2 note=66 velocity=0 time=0.007352933333333333
EXTRACT: pitchwheel channel=3 pitch=8191 time=0.029411733333333332
EXTRACT: pitchwheel channel=3 pitch=8191 time=0.0018382333333333333
EXTRACT: pitchwheel channel=3 pitch=8191 time=0.0018382333333333333
EXTRACT: pitchwheel channel=3 pitch=8191 time=0
EXTRACT: note_on channel=2 note=54 velocity=96 time=0.0036764666666666665
EXTRACT: note_on channel=2 note=61 velocity=96 time=0
EXTRACT: note_on channel=3 note=74 velocity=89 time=0
EXTRACT: pitchwheel channel=3 pitch=8191 time=0.0018382333333333333
EXTRACT: pitchwheel channel=3 pitch=8191 time=0.0036764666666666665
EXTRACT: pitchwheel channel=3 pitch=8042 time=0.0110294
EXTRACT: pitchwheel channel=3 pitch=8191 time=0.0018382333333333333
EXTRACT: pitchwheel channel=3 pitch=8191 time=0.0018382333333333333
EXTRACT: pitchwheel channel=3 pitch=8191 time=0.0018382333333333333
EXTRACT: pitchwheel channel=3 pitch=8191 time=0
EXTRACT: pitchwheel channel=3 pitch=8191 time=0.0018382333333333333
EXTRACT: pitchwheel channel=3 pitch=8191 time=0.0018382333333333333
EXTRACT: pitchwheel channel=3 pitch=8191 time=0.0018382333333333333
EXTRACT: pitchwheel channel=3 pitch=8191 time=0.0018382333333333333
EXTRACT: pitchwheel channel=3 pitch=8191 time=0.0018382333333333333
EXTRACT: pitchwheel channel=3 pitch=8191 time=0.0018382333333333333
EXTRACT: pitchwheel channel=3 pitch=8191 time=0.0036764666666666665
EXTRACT: pitchwheel channel=3 pitch=8191 time=0
EXTRACT: pitchwheel channel=3 pitch=8191 time=0
EXTRACT: pitchwheel channel=3 pitch=8191 time=0.0036764666666666665
EXTRACT: pitchwheel channel=3 pitch=8031 time=0.0018382333333333333
EXTRACT: pitchwheel channel=3 pitch=7872 time=0.0018382333333333333
EXTRACT: pitchwheel channel=3 pitch=7872 time=0.0018382333333333333
EXTRACT: pitchwheel channel=3 pitch=7872 time=0
EXTRACT: pitchwheel channel=3 pitch=7713 time=0.0018382333333333333
EXTRACT: pitchwheel channel=3 pitch=7713 time=0.0018382333333333333
EXTRACT: pitchwheel channel=3 pitch=7554 time=0
EXTRACT: pitchwheel channel=3 pitch=7554 time=0.0018382333333333333
EXTRACT: pitchwheel channel=3 pitch=7554 time=0
EXTRACT: pitchwheel channel=3 pitch=7554 time=0.0018382333333333333
EXTRACT: pitchwheel channel=3 pitch=7395 time=0.0018382333333333333
EXTRACT: pitchwheel channel=3 pitch=7395 time=0.0018382333333333333
EXTRACT: pitchwheel channel=3 pitch=7395 time=0
EXTRACT: pitchwheel channel=3 pitch=7236 time=0.0018382333333333333
EXTRACT: pitchwheel channel=3 pitch=7236 time=0
EXTRACT: pitchwheel channel=3 pitch=7236 time=0.0018382333333333333
EXTRACT: pitchwheel channel=3 pitch=7236 time=0.0018382333333333333
EXTRACT: pitchwheel channel=3 pitch=7077 time=0
EXTRACT: pitchwheel channel=3 pitch=7077 time=0.0018382333333333333
EXTRACT: pitchwheel channel=3 pitch=6918 time=0.0018382333333333333
EXTRACT: pitchwheel channel=3 pitch=6918 time=0
EXTRACT: pitchwheel channel=3 pitch=6918 time=0
EXTRACT: pitchwheel channel=3 pitch=6918 time=0.0036764666666666665
EXTRACT: pitchwheel channel=3 pitch=6759 time=0.0018382333333333333
EXTRACT: pitchwheel channel=3 pitch=6759 time=0
EXTRACT: pitchwheel channel=3 pitch=6759 time=0.0018382333333333333
EXTRACT: pitchwheel channel=3 pitch=6759 time=0.0018382333333333333
EXTRACT: pitchwheel channel=3 pitch=6600 time=0.0018382333333333333
EXTRACT: pitchwheel channel=3 pitch=6600 time=0
EXTRACT: pitchwheel channel=3 pitch=6600 time=0
EXTRACT: pitchwheel channel=3 pitch=6441 time=0.0036764666666666665
EXTRACT: pitchwheel channel=3 pitch=6441 time=0
EXTRACT: pitchwheel channel=3 pitch=6282 time=0.0018382333333333333
EXTRACT: pitchwheel channel=3 pitch=6282 time=0
EXTRACT: pitchwheel channel=3 pitch=6123 time=0.0018382333333333333
EXTRACT: pitchwheel channel=3 pitch=6123 time=0.0018382333333333333
EXTRACT: pitchwheel channel=3 pitch=5964 time=0.0018382333333333333
EXTRACT: pitchwheel channel=3 pitch=5964 time=0
EXTRACT: pitchwheel channel=3 pitch=5646 time=0.0018382333333333333
EXTRACT: pitchwheel channel=3 pitch=5646 time=0
EXTRACT: pitchwheel channel=3 pitch=5646 time=0.0018382333333333333
EXTRACT: pitchwheel channel=3 pitch=5646 time=0.0018382333333333333
EXTRACT: pitchwheel channel=3 pitch=5487 time=0.0018382333333333333
EXTRACT: pitchwheel channel=3 pitch=5487 time=0
EXTRACT: pitchwheel channel=3 pitch=5487 time=0.0018382333333333333
EXTRACT: pitchwheel channel=3 pitch=5327 time=0.0018382333333333333
EXTRACT: pitchwheel channel=3 pitch=5327 time=0
EXTRACT: pitchwheel channel=3 pitch=5168 time=0.0018382333333333333
EXTRACT: pitchwheel channel=3 pitch=5168 time=0
EXTRACT: pitchwheel channel=3 pitch=5009 time=0.0018382333333333333
EXTRACT: pitchwheel channel=3 pitch=5009 time=0.0018382333333333333
EXTRACT: pitchwheel channel=3 pitch=5009 time=0
EXTRACT: pitchwheel channel=3 pitch=4850 time=0.0018382333333333333
EXTRACT: pitchwheel channel=3 pitch=4850 time=0
EXTRACT: pitchwheel channel=3 pitch=4691 time=0.0018382333333333333
EXTRACT: pitchwheel channel=3 pitch=4691 time=0.0018382333333333333
EXTRACT: pitchwheel channel=3 pitch=4373 time=0
EXTRACT: pitchwheel channel=3 pitch=4373 time=0.0018382333333333333
EXTRACT: pitchwheel channel=3 pitch=4373 time=0
EXTRACT: pitchwheel channel=3 pitch=4373 time=0.0018382333333333333
EXTRACT: pitchwheel channel=3 pitch=4373 time=0
EXTRACT: pitchwheel channel=3 pitch=4373 time=0.0018382333333333333
EXTRACT: pitchwheel channel=3 pitch=4214 time=0.0018382333333333333
EXTRACT: pitchwheel channel=3 pitch=4214 time=0
EXTRACT: pitchwheel channel=3 pitch=4214 time=0
EXTRACT: pitchwheel channel=3 pitch=4055 time=0.0018382333333333333
EXTRACT: pitchwheel channel=3 pitch=3578 time=0
EXTRACT: pitchwheel channel=3 pitch=3101 time=0.0055147
EXTRACT: pitchwheel channel=3 pitch=3101 time=0.0055147
EXTRACT: pitchwheel channel=3 pitch=2942 time=0.0036764666666666665
EXTRACT: pitchwheel channel=3 pitch=2783 time=0.0018382333333333333
EXTRACT: pitchwheel channel=3 pitch=2146 time=0.0018382333333333333
EXTRACT: pitchwheel channel=3 pitch=1669 time=0.0055147
EXTRACT: pitchwheel channel=3 pitch=1351 time=0.0036764666666666665
EXTRACT: pitchwheel channel=3 pitch=1033 time=0.0055147
EXTRACT: pitchwheel channel=3 pitch=715 time=0.0018382333333333333
EXTRACT: pitchwheel channel=3 pitch=397 time=0.0036764666666666665
EXTRACT: pitchwheel channel=3 pitch=397 time=0.0018382333333333333
EXTRACT: pitchwheel channel=3 pitch=238 time=0.0018382333333333333
EXTRACT: pitchwheel channel=3 pitch=0 time=0.0165441
EXTRACT: note_on channel=2 note=54 velocity=0 time=0.18933803333333332
EXTRACT: note_on channel=2 note=61 velocity=0 time=0.03492643333333333
EXTRACT: note_on channel=2 note=49 velocity=0 time=0.031249966666666667
EXTRACT: note_on channel=2 note=42 velocity=0 time=0
EXTRACT: note_on channel=2 note=38 velocity=90 time=0.007352933333333333
EXTRACT: note_on channel=2 note=45 velocity=90 time=0
EXTRACT: note_on channel=2 note=57 velocity=90 time=0
EXTRACT: note_on channel=2 note=66 velocity=90 time=0
EXTRACT: control_change channel=2 control=64 value=0 time=0.09191166666666667
EXTRACT: control_change channel=2 control=64 value=127 time=0.0716911
EXTRACT: note_on channel=2 note=57 velocity=0 time=0.19485273333333333
EXTRACT: note_on channel=2 note=66 velocity=0 time=0.045955833333333335
EXTRACT: note_on channel=2 note=54 velocity=80 time=0.03676466666666667
EXTRACT: note_on channel=2 note=62 velocity=80 time=0
EXTRACT: note_on channel=2 note=54 velocity=0 time=0.3676466666666667
EXTRACT: note_on channel=2 note=62 velocity=0 time=0.03492643333333333
EXTRACT: note_on channel=3 note=74 velocity=0 time=0.025735266666666666
EXTRACT: note_on channel=2 note=57 velocity=74 time=0.012867633333333333
EXTRACT: note_on channel=2 note=66 velocity=74 time=0
EXTRACT: note_on channel=2 note=57 velocity=0 time=0.3584555
EXTRACT: note_on channel=2 note=66 velocity=0 time=0.045955833333333335
EXTRACT: note_on channel=2 note=54 velocity=71 time=0.03676466666666667
EXTRACT: note_on channel=2 note=62 velocity=71 time=0
EXTRACT: note_on channel=2 note=38 velocity=0 time=0.3290437666666666
EXTRACT: note_on channel=2 note=54 velocity=0 time=0.038602899999999996
EXTRACT: note_on channel=2 note=45 velocity=0 time=0.018382333333333334
EXTRACT: note_on channel=2 note=62 velocity=0 time=0.0165441
EXTRACT: control_change channel=2 control=64 value=0 time=0.012867633333333333
EXTRACT: note_on channel=2 note=33 velocity=96 time=0.009328354166666665
EXTRACT: note_on channel=2 note=45 velocity=96 time=0
EXTRACT: note_on channel=2 note=57 velocity=96 time=0
EXTRACT: note_on channel=2 note=61 velocity=89 time=0
EXTRACT: note_on channel=3 note=81 velocity=101 time=0
EXTRACT: control_change channel=2 control=64 value=127 time=0.12686561666666665
EXTRACT: note_on channel=3 note=81 velocity=0 time=0.05410445416666666
EXTRACT: note_on channel=2 note=69 velocity=93 time=0
EXTRACT: note_on channel=3 note=81 velocity=99 time=0
EXTRACT: note_on channel=2 note=61 velocity=0 time=0.03171640416666666
EXTRACT: note_on channel=2 note=57 velocity=0 time=0.09141787083333333
EXTRACT: note_on channel=3 note=81 velocity=0 time=0.061567137499999994
EXTRACT: note_on channel=2 note=61 velocity=93 time=0
EXTRACT: note_on channel=3 note=81 velocity=100 time=0
EXTRACT: note_on channel=2 note=69 velocity=0 time=0.020522379166666663
EXTRACT: note_on channel=2 note=61 velocity=0 time=0.18843275416666666
EXTRACT: note_on channel=2 note=57 velocity=91 time=0.014925366666666665
EXTRACT: note_on channel=3 note=81 velocity=0 time=0.18656708333333333
EXTRACT: pitchwheel channel=3 pitch=4513 time=0.020522379166666663
EXTRACT: note_on channel=2 note=61 velocity=92 time=0
EXTRACT: note_on channel=3 note=80 velocity=99 time=0
EXTRACT: pitchwheel channel=3 pitch=4513 time=0.10261189583333333
EXTRACT: pitchwheel channel=3 pitch=4513 time=0.0018656708333333332
EXTRACT: pitchwheel channel=3 pitch=4513 time=0.0037313416666666663
EXTRACT: pitchwheel channel=3 pitch=4513 time=0.0018656708333333332
EXTRACT: pitchwheel channel=3 pitch=4346 time=0.0037313416666666663
EXTRACT: pitchwheel channel=3 pitch=4178 time=0.0018656708333333332
EXTRACT: pitchwheel channel=3 pitch=4178 time=0.0055970125
EXTRACT: pitchwheel channel=3 pitch=4178 time=0.0055970125
EXTRACT: pitchwheel channel=3 pitch=4011 time=0.0037313416666666663
EXTRACT: pitchwheel channel=3 pitch=3844 time=0.0055970125
EXTRACT: pitchwheel channel=3 pitch=3844 time=0.0037313416666666663
EXTRACT: pitchwheel channel=3 pitch=3844 time=0.0018656708333333332
EXTRACT: pitchwheel channel=3 pitch=3844 time=0.0037313416666666663
EXTRACT: pitchwheel channel=3 pitch=3677 time=0.0018656708333333332
EXTRACT: pitchwheel channel=3 pitch=3510 time=0.0037313416666666663
EXTRACT: pitchwheel channel=3 pitch=3510 time=0.0018656708333333332
EXTRACT: pitchwheel channel=3 pitch=3342 time=0.0037313416666666663
EXTRACT: pitchwheel channel=3 pitch=3175 time=0.0018656708333333332
EXTRACT: pitchwheel channel=3 pitch=3008 time=0.0037313416666666663
EXTRACT: pitchwheel channel=3 pitch=3008 time=0.0018656708333333332
EXTRACT: pitchwheel channel=3 pitch=3008 time=0.0037313416666666663
EXTRACT: pitchwheel channel=3 pitch=2841 time=0.0037313416666666663
EXTRACT: pitchwheel channel=3 pitch=2674 time=0.0018656708333333332
EXTRACT: pitchwheel channel=3 pitch=2674 time=0.0037313416666666663
EXTRACT: pitchwheel channel=3 pitch=2507 time=0.0018656708333333332
EXTRACT: pitchwheel channel=3 pitch=2507 time=0.0037313416666666663
EXTRACT: pitchwheel channel=3 pitch=2339 time=0.0018656708333333332
EXTRACT: pitchwheel channel=3 pitch=2172 time=0.0037313416666666663
EXTRACT: pitchwheel channel=3 pitch=2005 time=0.0018656708333333332
EXTRACT: pitchwheel channel=3 pitch=2005 time=0.0037313416666666663
EXTRACT: pitchwheel channel=3 pitch=1838 time=0.0018656708333333332
EXTRACT: pitchwheel channel=3 pitch=1504 time=0.0037313416666666663
EXTRACT: pitchwheel channel=3 pitch=1504 time=0.0037313416666666663
EXTRACT: pitchwheel channel=3 pitch=1336 time=0.0018656708333333332
EXTRACT: pitchwheel channel=3 pitch=1169 time=0.0037313416666666663
EXTRACT: pitchwheel channel=3 pitch=1002 time=0.0018656708333333332
EXTRACT: pitchwheel channel=3 pitch=835 time=0.0037313416666666663
EXTRACT: pitchwheel channel=3 pitch=668 time=0.0018656708333333332
EXTRACT: note_on channel=2 note=61 velocity=0 time=0.0037313416666666663
EXTRACT: pitchwheel channel=3 pitch=501 time=0
EXTRACT: pitchwheel channel=3 pitch=501 time=0.0018656708333333332
EXTRACT: note_on channel=2 note=69 velocity=87 time=0.0018656708333333332
EXTRACT: pitchwheel channel=3 pitch=0 time=0.0018656708333333332
EXTRACT: pitchwheel channel=3 pitch=-1 time=0.0018656708333333332
EXTRACT: note_on channel=2 note=57 velocity=0 time=0.0037313416666666663
EXTRACT: pitchwheel channel=3 pitch=-168 time=0
EXTRACT: pitchwheel channel=3 pitch=0 time=0.0018656708333333332
EXTRACT: note_on channel=3 note=80 velocity=0 time=0.1641790333333333
EXTRACT: note_on channel=2 note=61 velocity=92 time=0
EXTRACT: note_on channel=3 note=80 velocity=101 time=0
EXTRACT: note_on channel=2 note=69 velocity=0 time=0.03171640416666666
EXTRACT: note_on channel=2 note=33 velocity=0 time=0.10634323749999999
EXTRACT: note_on channel=2 note=45 velocity=0 time=0.009328354166666665
EXTRACT: note_on channel=2 note=61 velocity=0 time=0.06343280833333333
EXTRACT: note_on channel=2 note=40 velocity=95 time=0.013059695833333333
EXTRACT: note_on channel=2 note=47 velocity=95 time=0
EXTRACT: note_on channel=2 note=56 velocity=93 time=0
EXTRACT: control_change channel=2 control=64 value=0 time=0.18656708333333333
EXTRACT: note_on channel=3 note=80 velocity=0 time=0.02985073333333333
EXTRACT: note_on channel=2 note=59 velocity=92 time=0.007462683333333333
EXTRACT: note_on channel=3 note=78 velocity=82 time=0
EXTRACT: control_change channel=2 control=64 value=127 time=0.09888055416666666
EXTRACT: note_on channel=2 note=59 velocity=0 time=0.10261189583333333
EXTRACT: note_on channel=3 note=78 velocity=0 time=0.013059695833333333
EXTRACT: note_on channel=2 note=68 velocity=90 time=0.009328354166666665
EXTRACT: note_on channel=2 note=56 velocity=0 time=0.09888055416666666
EXTRACT: note_on channel=2 note=59 velocity=92 time=0.12499994583333332
EXTRACT: note_on channel=2 note=68 velocity=0 time=0.01865670833333333
EXTRACT: note_on channel=2 note=59 velocity=0 time=0.18843275416666666
EXTRACT: note_on channel=2 note=56 velocity=91 time=0
EXTRACT: note_on channel=3 note=80 velocity=98 time=0
EXTRACT: note_on channel=3 note=80 velocity=0 time=0.190298425
EXTRACT: note_on channel=2 note=59 velocity=92 time=0
EXTRACT: note_on channel=3 note=80 velocity=93 time=0
EXTRACT: note_on channel=2 note=56 velocity=0 time=0.18097007083333333
EXTRACT: note_on channel=2 note=59 velocity=0 time=0.016791037499999998
EXTRACT: note_on channel=2 note=68 velocity=87 time=0.026119391666666665
EXTRACT: note_on channel=3 note=80 velocity=0 time=0.17350738749999997
EXTRACT: note_on channel=2 note=68 velocity=0 time=0.01865670833333333
EXTRACT: pitchwheel channel=3 pitch=-4180 time=0.02238805
EXTRACT: note_on channel=2 note=59 velocity=92 time=0
EXTRACT: note_on channel=3 note=81 velocity=99 time=0
EXTRACT: note_on channel=2 note=47 velocity=0 time=0.1473879958333333
EXTRACT: note_on channel=2 note=40 velocity=0 time=0
EXTRACT: note_on channel=2 note=59 velocity=0 time=0.0055970125
EXTRACT: pitchwheel channel=3 pitch=-4180 time=0.0037313416666666663
EXTRACT: pitchwheel channel=3 pitch=-4180 time=0.0018656708333333332
EXTRACT: pitchwheel channel=3 pitch=-4180 time=0.0018656708333333332
EXTRACT: pitchwheel channel=3 pitch=-4180 time=0.0018656708333333332
EXTRACT: pitchwheel channel=3 pitch=-4180 time=0.0037313416666666663
EXTRACT: pitchwheel channel=3 pitch=-4013 time=0.0018656708333333332
EXTRACT: pitchwheel channel=3 pitch=-3846 time=0.0037313416666666663
EXTRACT: pitchwheel channel=3 pitch=-3512 time=0.0037313416666666663
EXTRACT: pitchwheel channel=3 pitch=-3512 time=0.0037313416666666663
EXTRACT: pitchwheel channel=3 pitch=-3344 time=0.0018656708333333332
EXTRACT: pitchwheel channel=3 pitch=-3344 time=0.0037313416666666663
EXTRACT: pitchwheel channel=3 pitch=-3344 time=0.0018656708333333332
EXTRACT: pitchwheel channel=3 pitch=-3010 time=0.0018656708333333332
EXTRACT: pitchwheel channel=3 pitch=-3010 time=0.0018656708333333332
EXTRACT: pitchwheel channel=3 pitch=-3010 time=0.0018656708333333332
EXTRACT: pitchwheel channel=3 pitch=-3010 time=0.0018656708333333332
EXTRACT: pitchwheel channel=3 pitch=-2843 time=0.0018656708333333332
EXTRACT: pitchwheel channel=3 pitch=-2676 time=0.0018656708333333332
EXTRACT: pitchwheel channel=3 pitch=-2509 time=0.0037313416666666663
EXTRACT: pitchwheel channel=3 pitch=-2509 time=0.0018656708333333332
EXTRACT: pitchwheel channel=3 pitch=-2509 time=0.0018656708333333332
EXTRACT: pitchwheel channel=3 pitch=-2341 time=0.0018656708333333332
EXTRACT: pitchwheel channel=3 pitch=-2174 time=0.0018656708333333332
EXTRACT: pitchwheel channel=3 pitch=-2174 time=0.0018656708333333332
EXTRACT: pitchwheel channel=3 pitch=-2007 time=0.0018656708333333332
EXTRACT: pitchwheel channel=3 pitch=-1673 time=0.0018656708333333332
EXTRACT: pitchwheel channel=3 pitch=-1506 time=0.0018656708333333332
EXTRACT: pitchwheel channel=3 pitch=-1506 time=0.0018656708333333332
EXTRACT: pitchwheel channel=3 pitch=-1171 time=0.0018656708333333332
EXTRACT: pitchwheel channel=3 pitch=-1004 time=0.0018656708333333332
EXTRACT: note_on channel=2 note=30 velocity=94 time=0.0018656708333333332
EXTRACT: note_on channel=2 note=42 velocity=92 time=0
EXTRACT: note_on channel=2 note=57 velocity=92 time=0
EXTRACT: pitchwheel channel=3 pitch=-837 time=0
EXTRACT: pitchwheel channel=3 pitch=-503 time=0.0018656708333333332
EXTRACT: pitchwheel channel=3 pitch=-503 time=0.0018656708333333332
EXTRACT: pitchwheel channel=3 pitch=-168 time=0.0018656708333333332
EXTRACT: pitchwheel channel=3 pitch=0 time=0.0018656708333333332
EXTRACT: control_change channel=2 control=64 value=0 time=0.08022384583333332
EXTRACT: note_on channel=3 note=81 velocity=0 time=0.12873128749999999
EXTRACT: note_on channel=2 note=61 velocity=87 time=0
EXTRACT: note_on channel=3 note=78 velocity=99 time=0
EXTRACT: control_change channel=2 control=64 value=127 time=0.07462683333333332
EXTRACT: note_on channel=2 note=61 velocity=0 time=0.14925366666666665
EXTRACT: note_on channel=2 note=69 velocity=91 time=0
EXTRACT: note_on channel=2 note=61 velocity=87 time=0.22388049999999998
EXTRACT: note_on channel=2 note=69 velocity=0 time=0.011194025
EXTRACT: note_on channel=2 note=57 velocity=0 time=0
EXTRACT: note_on channel=2 note=61 velocity=0 time=0.19962677916666666
EXTRACT: note_on channel=2 note=57 velocity=94 time=0.013059695833333333
EXTRACT: note_on channel=2 note=61 velocity=91 time=0.22388049999999998
EXTRACT: note_on channel=2 note=42 velocity=0 time=0.15485067916666664
EXTRACT: note_on channel=2 note=61 velocity=0 time=0.03731341666666666
EXTRACT: note_on channel=2 note=42 velocity=92 time=0.03171640416666666
EXTRACT: note_on channel=2 note=69 velocity=91 time=0
EXTRACT: note_on channel=2 note=57 velocity=0 time=0.04664177083333333
EXTRACT: note_on channel=2 note=61 velocity=91 time=0.17723872916666664
EXTRACT: note_on channel=2 note=69 velocity=0 time=0.0037313416666666663
EXTRACT: pitchwheel channel=3 pitch=-168 time=0.14179098333333331
EXTRACT: pitchwheel channel=3 pitch=-168 time=0.0018656708333333332
EXTRACT: pitchwheel channel=3 pitch=-335 time=0.0037313416666666663
EXTRACT: pitchwheel channel=3 pitch=-335 time=0.0037313416666666663
EXTRACT: pitchwheel channel=3 pitch=-335 time=0.0037313416666666663
EXTRACT: pitchwheel channel=3 pitch=-670 time=0.009328354166666665
EXTRACT: pitchwheel channel=3 pitch=-670 time=0.0018656708333333332
EXTRACT: pitchwheel channel=3 pitch=-837 time=0.0037313416666666663
EXTRACT: pitchwheel channel=3 pitch=-1171 time=0.0037313416666666663
EXTRACT: pitchwheel channel=3 pitch=-1171 time=0.0037313416666666663
EXTRACT: pitchwheel channel=3 pitch=-1171 time=0.0018656708333333332
EXTRACT: pitchwheel channel=3 pitch=-1171 time=0
EXTRACT: pitchwheel channel=3 pitch=-1171 time=0.0018656708333333332
EXTRACT: pitchwheel channel=3 pitch=-1338 time=0
EXTRACT: pitchwheel channel=3 pitch=-1338 time=0.0018656708333333332
EXTRACT: pitchwheel channel=3 pitch=-1506 time=0
EXTRACT: pitchwheel channel=3 pitch=-1506 time=0.0018656708333333332
EXTRACT: pitchwheel channel=3 pitch=-1506 time=0
EXTRACT: pitchwheel channel=3 pitch=-1673 time=0.0037313416666666663
EXTRACT: pitchwheel channel=3 pitch=-2007 time=0
EXTRACT: pitchwheel channel=3 pitch=-2007 time=0.0018656708333333332
EXTRACT: pitchwheel channel=3 pitch=-2007 time=0.0018656708333333332
EXTRACT: pitchwheel channel=3 pitch=-2007 time=0
EXTRACT: pitchwheel channel=3 pitch=-2007 time=0.0018656708333333332
EXTRACT: pitchwheel channel=3 pitch=-2174 time=0
EXTRACT: pitchwheel channel=3 pitch=-2174 time=0.0018656708333333332
EXTRACT: pitchwheel channel=3 pitch=-2174 time=0
EXTRACT: note_on channel=2 note=61 velocity=0 time=0.0018656708333333332
EXTRACT: pitchwheel channel=3 pitch=-2341 time=0
EXTRACT: pitchwheel channel=3 pitch=-2341 time=0
EXTRACT: pitchwheel channel=3 pitch=-2341 time=0
EXTRACT: pitchwheel channel=3 pitch=-2509 time=0.0018656708333333332
EXTRACT: pitchwheel channel=3 pitch=-2676 time=0.0018656708333333332
EXTRACT: pitchwheel channel=3 pitch=-2676 time=0
EXTRACT: pitchwheel channel=3 pitch=-2676 time=0
EXTRACT: pitchwheel channel=3 pitch=-2676 time=0.0018656708333333332
EXTRACT: pitchwheel channel=3 pitch=-2843 time=0.0018656708333333332
EXTRACT: pitchwheel channel=3 pitch=-2843 time=0
EXTRACT: pitchwheel channel=3 pitch=-2843 time=0
EXTRACT: pitchwheel channel=3 pitch=-3010 time=0.0018656708333333332
EXTRACT: pitchwheel channel=3 pitch=-3010 time=0
EXTRACT: pitchwheel channel=3 pitch=-3010 time=0.0018656708333333332
EXTRACT: pitchwheel channel=3 pitch=-3177 time=0
EXTRACT: pitchwheel channel=3 pitch=-3344 time=0.0018656708333333332
EXTRACT: pitchwheel channel=3 pitch=-3344 time=0
EXTRACT: note_on channel=2 note=42 velocity=0 time=0.0018656708333333332
EXTRACT: note_on channel=2 note=30 velocity=0 time=0
EXTRACT: pitchwheel channel=3 pitch=-3344 time=0
EXTRACT: pitchwheel channel=3 pitch=-3344 time=0
EXTRACT: pitchwheel channel=3 pitch=-3344 time=0.0018656708333333332
EXTRACT: pitchwheel channel=3 pitch=-3679 time=0
EXTRACT: pitchwheel channel=3 pitch=-3679 time=0.0018656708333333332
EXTRACT: pitchwheel channel=3 pitch=-3679 time=0
EXTRACT: pitchwheel channel=3 pitch=-3679 time=0
EXTRACT: pitchwheel channel=3 pitch=-3846 time=0.0018656708333333332
EXTRACT: note_on channel=2 note=38 velocity=92 time=0.0018656708333333332
EXTRACT: note_on channel=2 note=45 velocity=94 time=0
EXTRACT: note_on channel=2 note=57 velocity=92 time=0
EXTRACT: pitchwheel channel=3 pitch=-3846 time=0
EXTRACT: pitchwheel channel=3 pitch=-3846 time=0
EXTRACT: pitchwheel channel=3 pitch=-4013 time=0
EXTRACT: pitchwheel channel=3 pitch=-4013 time=0.0018656708333333332
EXTRACT: pitchwheel channel=3 pitch=-4180 time=0.0018656708333333332
EXTRACT: pitchwheel channel=3 pitch=-4180 time=0
EXTRACT: pitchwheel channel=3 pitch=-4180 time=0.0018656708333333332
EXTRACT: pitchwheel channel=3 pitch=-4348 time=0
EXTRACT: pitchwheel channel=3 pitch=-4348 time=0.0018656708333333332
EXTRACT: pitchwheel channel=3 pitch=-4348 time=0
EXTRACT: pitchwheel channel=3 pitch=-4348 time=0.0018656708333333332
EXTRACT: pitchwheel channel=3 pitch=-4348 time=0
EXTRACT: pitchwheel channel=3 pitch=-4348 time=0
EXTRACT: pitchwheel channel=3 pitch=-4348 time=0.0018656708333333332
EXTRACT: pitchwheel channel=3 pitch=-4515 time=0.0018656708333333332
EXTRACT: pitchwheel channel=3 pitch=-4515 time=0
EXTRACT: pitchwheel channel=3 pitch=-4515 time=0
EXTRACT: pitchwheel channel=3 pitch=-4515 time=0.0018656708333333332
EXTRACT: pitchwheel channel=3 pitch=-4515 time=0.0018656708333333332
EXTRACT: pitchwheel channel=3 pitch=-4515 time=0
EXTRACT: pitchwheel channel=3 pitch=-4682 time=0
EXTRACT: pitchwheel channel=3 pitch=-4682 time=0.0018656708333333332
EXTRACT: pitchwheel channel=3 pitch=-4682 time=0
EXTRACT: pitchwheel channel=3 pitch=-4682 time=0.0018656708333333332
EXTRACT: pitchwheel channel=3 pitch=-4682 time=0
EXTRACT: pitchwheel channel=3 pitch=-4682 time=0.0018656708333333332
EXTRACT: pitchwheel channel=3 pitch=-4682 time=0
EXTRACT: pitchwheel channel=3 pitch=-4682 time=0.0018656708333333332
EXTRACT: pitchwheel channel=3 pitch=-4682 time=0
EXTRACT: pitchwheel channel=3 pitch=-4682 time=0.0018656708333333332
EXTRACT: pitchwheel channel=3 pitch=-4682 time=0
EXTRACT: pitchwheel channel=3 pitch=-4682 time=0.0018656708333333332
EXTRACT: pitchwheel channel=3 pitch=-4682 time=0
EXTRACT: pitchwheel channel=3 pitch=-4682 time=0
EXTRACT: pitchwheel channel=3 pitch=-4682 time=0.0018656708333333332
EXTRACT: pitchwheel channel=3 pitch=-4682 time=0.0018656708333333332
EXTRACT: pitchwheel channel=3 pitch=-4682 time=0
EXTRACT: pitchwheel channel=3 pitch=-4682 time=0
EXTRACT: pitchwheel channel=3 pitch=-4682 time=0.0018656708333333332
EXTRACT: pitchwheel channel=3 pitch=-4682 time=0.0018656708333333332
EXTRACT: pitchwheel channel=3 pitch=-4682 time=0
EXTRACT: pitchwheel channel=3 pitch=-4515 time=0.0018656708333333332
EXTRACT: pitchwheel channel=3 pitch=-4515 time=0
EXTRACT: pitchwheel channel=3 pitch=-4515 time=0.0018656708333333332
EXTRACT: pitchwheel channel=3 pitch=-4515 time=0
EXTRACT: pitchwheel channel=3 pitch=-4515 time=0.0018656708333333332
EXTRACT: pitchwheel channel=3 pitch=-4348 time=0
EXTRACT: pitchwheel channel=3 pitch=-4348 time=0
EXTRACT: pitchwheel channel=3 pitch=-4348 time=0.0018656708333333332
EXTRACT: pitchwheel channel=3 pitch=-4180 time=0.0018656708333333332
EXTRACT: pitchwheel channel=3 pitch=-4180 time=0
EXTRACT: pitchwheel channel=3 pitch=-4180 time=0
EXTRACT: pitchwheel channel=3 pitch=-4180 time=0.0018656708333333332
EXTRACT: pitchwheel channel=3 pitch=-4013 time=0.0018656708333333332
EXTRACT: pitchwheel channel=3 pitch=-3846 time=0
EXTRACT: pitchwheel channel=3 pitch=-3846 time=0.0018656708333333332
EXTRACT: pitchwheel channel=3 pitch=-3846 time=0
EXTRACT: pitchwheel channel=3 pitch=-3846 time=0.0018656708333333332
EXTRACT: pitchwheel channel=3 pitch=-3679 time=0
EXTRACT: pitchwheel channel=3 pitch=-3679 time=0.0018656708333333332
EXTRACT: pitchwheel channel=3 pitch=-3679 time=0
EXTRACT: pitchwheel channel=3 pitch=-3679 time=0.0018656708333333332
EXTRACT: pitchwheel channel=3 pitch=-3512 time=0
EXTRACT: pitchwheel channel=3 pitch=-3512 time=0.0018656708333333332
EXTRACT: pitchwheel channel=3 pitch=-3344 time=0
EXTRACT: pitchwheel channel=3 pitch=-3344 time=0.0018656708333333332
EXTRACT: pitchwheel channel=3 pitch=-3177 time=0
EXTRACT: pitchwheel channel=3 pitch=-3177 time=0
EXTRACT: pitchwheel channel=3 pitch=-2843 time=0.0037313416666666663
EXTRACT: pitchwheel channel=3 pitch=-2843 time=0
EXTRACT: pitchwheel channel=3 pitch=-2843 time=0.0018656708333333332
EXTRACT: pitchwheel channel=3 pitch=-2843 time=0.0018656708333333332
EXTRACT: pitchwheel channel=3 pitch=-2843 time=0
EXTRACT: pitchwheel channel=3 pitch=-2676 time=0.0018656708333333332
EXTRACT: pitchwheel channel=3 pitch=-2509 time=0
EXTRACT: pitchwheel channel=3 pitch=-2509 time=0.0018656708333333332
EXTRACT: pitchwheel channel=3 pitch=-2509 time=0
EXTRACT: pitchwheel channel=3 pitch=-2509 time=0.0018656708333333332
EXTRACT: pitchwheel channel=3 pitch=-2341 time=0
EXTRACT: pitchwheel channel=3 pitch=-2341 time=0
EXTRACT: pitchwheel channel=3 pitch=-2341 time=0.0018656708333333332
EXTRACT: pitchwheel channel=3 pitch=-2174 time=0.0018656708333333332
EXTRACT: pitchwheel channel=3 pitch=-2174 time=0
EXTRACT: pitchwheel channel=3 pitch=-2174 time=0
EXTRACT: pitchwheel channel=3 pitch=-2174 time=0.0018656708333333332
EXTRACT: pitchwheel channel=3 pitch=-2174 time=0.0018656708333333332
EXTRACT: pitchwheel channel=3 pitch=-2174 time=0
EXTRACT: pitchwheel channel=3 pitch=-2007 time=0
EXTRACT: pitchwheel channel=3 pitch=-1840 time=0.0018656708333333332
EXTRACT: pitchwheel channel=3 pitch=-1840 time=0
EXTRACT: pitchwheel channel=3 pitch=-1840 time=0.0018656708333333332
EXTRACT: pitchwheel channel=3 pitch=-1840 time=0
EXTRACT: pitchwheel channel=3 pitch=-1673 time=0.0018656708333333332
EXTRACT: pitchwheel channel=3 pitch=-1673 time=0
EXTRACT: pitchwheel channel=3 pitch=-1506 time=0.0037313416666666663
EXTRACT: pitchwheel channel=3 pitch=-1338 time=0.0018656708333333332
EXTRACT: pitchwheel channel=3 pitch=-1338 time=0.0037313416666666663
EXTRACT: pitchwheel channel=3 pitch=-1004 time=0.007462683333333333
EXTRACT: pitchwheel channel=3 pitch=-837 time=0.0018656708333333332
EXTRACT: control_change channel=2 control=64 value=0 time=0.0037313416666666663
EXTRACT: pitchwheel channel=3 pitch=-670 time=0
EXTRACT: pitchwheel channel=3 pitch=-503 time=0.0037313416666666663
EXTRACT: pitchwheel channel=3 pitch=-335 time=0.0018656708333333332
EXTRACT: pitchwheel channel=3 pitch=-168 time=0.0037313416666666663
EXTRACT: pitchwheel channel=3 pitch=-1 time=0.0037313416666666663
EXTRACT: note_on channel=2 note=62 velocity=89 time=0.048507441666666665
EXTRACT: control_change channel=2 control=64 value=127 time=0.0018656708333333332
EXTRACT: note_on channel=2 note=62 velocity=0 time=0.1958954375
EXTRACT: note_on channel=2 note=69 velocity=91 time=0.026119391666666665
EXTRACT: note_on channel=2 note=57 velocity=0 time=0.08395518749999999
EXTRACT: note_on channel=2 note=62 velocity=88 time=0.13992531249999998
EXTRACT: note_on channel=2 note=69 velocity=0 time=0.03171640416666666
EXTRACT: note_on channel=2 note=45 velocity=0 time=0.13246262916666665
EXTRACT: note_on channel=3 note=78 velocity=0 time=0.009328354166666665
EXTRACT: note_on channel=2 note=62 velocity=0 time=0.016791037499999998
EXTRACT: note_on channel=2 note=38 velocity=0 time=0.026119391666666665
EXTRACT: note_on channel=2 note=45 velocity=92 time=0
EXTRACT: note_on channel=2 note=50 velocity=94 time=0
EXTRACT: note_on channel=2 note=57 velocity=94 time=0
EXTRACT: note_on channel=3 note=78 velocity=100 time=0
EXTRACT: note_on channel=2 note=62 velocity=90 time=0.22388049999999998
EXTRACT: note_on channel=2 note=45 velocity=0 time=0.1641790333333333
EXTRACT: note_on channel=2 note=62 velocity=0 time=0.011194025
EXTRACT: note_on channel=3 note=78 velocity=0 time=0.04104475833333333
EXTRACT: note_on channel=2 note=45 velocity=87 time=0
EXTRACT: note_on channel=2 note=69 velocity=93 time=0
EXTRACT: note_on channel=3 note=80 velocity=100 time=0
EXTRACT: note_on channel=2 note=57 velocity=0 time=0.14925366666666665
EXTRACT: note_on channel=2 note=62 velocity=89 time=0.07462683333333332
EXTRACT: note_on channel=2 note=69 velocity=0 time=0.016791037499999998
EXTRACT: note_on channel=2 note=50 velocity=0 time=0.14925366666666665
EXTRACT: note_on channel=2 note=45 velocity=0 time=0.0018656708333333332
EXTRACT: note_on channel=2 note=62 velocity=0 time=0.016791037499999998
EXTRACT: note_on channel=3 note=80 velocity=0 time=0.03171640416666666
EXTRACT: control_change channel=2 control=64 value=0 time=0.0018656708333333332
EXTRACT: note_on channel=2 note=33 velocity=95 time=0
EXTRACT: note_on channel=2 note=45 velocity=95 time=0
EXTRACT: note_on channel=2 note=57 velocity=95 time=0
EXTRACT: note_on channel=3 note=81 velocity=100 time=0
EXTRACT: note_on channel=3 note=81 velocity=0 time=0.21641781666666665
EXTRACT: note_on channel=2 note=61 velocity=89 time=0
EXTRACT: note_on channel=3 note=76 velocity=96 time=0
EXTRACT: control_change channel=2 control=64 value=127 time=0.12686561666666665
EXTRACT: note_on channel=2 note=69 velocity=93 time=0.09701488333333333
EXTRACT: note_on channel=2 note=61 velocity=0 time=0.03171640416666666
EXTRACT: note_on channel=2 note=57 velocity=0 time=0.09141787083333333
EXTRACT: note_on channel=3 note=76 velocity=0 time=0.06716414999999999
EXTRACT: note_on channel=2 note=61 velocity=93 time=0
EXTRACT: note_on channel=3 note=76 velocity=92 time=0
EXTRACT: note_on channel=2 note=69 velocity=0 time=0.020522379166666663
EXTRACT: note_on channel=2 note=61 velocity=0 time=0.18843275416666666
EXTRACT: note_on channel=2 note=57 velocity=91 time=0.014925366666666665
EXTRACT: note_on channel=3 note=76 velocity=0 time=0.190298425
EXTRACT: pitchwheel channel=3 pitch=4680 time=0.024253720833333332
EXTRACT: note_on channel=2 note=61 velocity=92 time=0
EXTRACT: note_on channel=3 note=80 velocity=100 time=0
EXTRACT: pitchwheel channel=3 pitch=4346 time=0.10634323749999999
EXTRACT: pitchwheel channel=3 pitch=4178 time=0.026119391666666665
EXTRACT: pitchwheel channel=3 pitch=4011 time=0.011194025
EXTRACT: pitchwheel channel=3 pitch=3844 time=0.007462683333333333
EXTRACT: pitchwheel channel=3 pitch=3677 time=0.0055970125
EXTRACT: note_on channel=2 note=57 velocity=0 time=0.0018656708333333332
EXTRACT: pitchwheel channel=3 pitch=3510 time=0.0055970125
EXTRACT: pitchwheel channel=3 pitch=3342 time=0.0037313416666666663
EXTRACT: pitchwheel channel=3 pitch=3175 time=0.0055970125
EXTRACT: pitchwheel channel=3 pitch=3008 time=0.0055970125
EXTRACT: pitchwheel channel=3 pitch=2841 time=0.0037313416666666663
EXTRACT: pitchwheel channel=3 pitch=2674 time=0.0037313416666666663
EXTRACT: pitchwheel channel=3 pitch=2507 time=0.0018656708333333332
EXTRACT: pitchwheel channel=3 pitch=2339 time=0.0037313416666666663
EXTRACT: pitchwheel channel=3 pitch=2172 time=0.0037313416666666663
EXTRACT: pitchwheel channel=3 pitch=2005 time=0.0037313416666666663
EXTRACT: pitchwheel channel=3 pitch=1838 time=0.0037313416666666663
EXTRACT: pitchwheel channel=3 pitch=1671 time=0.0018656708333333332
EXTRACT: pitchwheel channel=3 pitch=1504 time=0.0037313416666666663
EXTRACT: pitchwheel channel=3 pitch=1336 time=0.0037313416666666663
EXTRACT: pitchwheel channel=3 pitch=1169 time=0.0018656708333333332
EXTRACT: pitchwheel channel=3 pitch=1002 time=0.0037313416666666663
EXTRACT: note_on channel=2 note=61 velocity=0 time=0.0018656708333333332
EXTRACT: pitchwheel channel=3 pitch=835 time=0
EXTRACT: note_on channel=2 note=57 velocity=95 time=0.0037313416666666663
EXTRACT: note_on channel=2 note=69 velocity=87 time=0
EXTRACT: pitchwheel channel=3 pitch=668 time=0
EXTRACT: pitchwheel channel=3 pitch=501 time=0.0018656708333333332
EXTRACT: pitchwheel channel=3 pitch=333 time=0.0018656708333333332
EXTRACT: pitchwheel channel=3 pitch=0 time=0.0037313416666666663
EXTRACT: pitchwheel channel=3 pitch=-1 time=0.0018656708333333332
EXTRACT: pitchwheel channel=3 pitch=0 time=0.0018656708333333332
EXTRACT: pitchwheel channel=3 pitch=0 time=0.03731341666666666
EXTRACT: note_on channel=3 note=80 velocity=0 time=0.14179098333333331
EXTRACT: note_on channel=2 note=61 velocity=92 time=0
EXTRACT: note_on channel=3 note=80 velocity=100 time=0
EXTRACT: note_on channel=2 note=69 velocity=0 time=0.03171640416666666
EXTRACT: note_on channel=2 note=33 velocity=0 time=0.10634323749999999
EXTRACT: note_on channel=2 note=57 velocity=0 time=0.009328354166666665
EXTRACT: note_on channel=2 note=45 velocity=0 time=0.0037313416666666663
EXTRACT: note_on channel=2 note=61 velocity=0 time=0.05970146666666666
EXTRACT: note_on channel=2 note=40 velocity=95 time=0.013059695833333333
EXTRACT: note_on channel=2 note=47 velocity=95 time=0
EXTRACT: note_on channel=2 note=59 velocity=93 time=0
EXTRACT: control_change channel=2 control=64 value=0 time=0.18656708333333333
EXTRACT: note_on channel=2 note=64 velocity=92 time=0.03731341666666666
EXTRACT: pitchwheel channel=3 pitch=238 time=0.0447761
EXTRACT: pitchwheel channel=3 pitch=238 time=0.0037313416666666663
EXTRACT: pitchwheel channel=3 pitch=0 time=0.0037313416666666663
EXTRACT: pitchwheel channel=3 pitch=0 time=0
EXTRACT: pitchwheel channel=3 pitch=0 time=0.0037313416666666663
EXTRACT: pitchwheel channel=3 pitch=0 time=0.0037313416666666663
EXTRACT: pitchwheel channel=3 pitch=-81 time=0.0018656708333333332
EXTRACT: pitchwheel channel=3 pitch=-81 time=0.0055970125
EXTRACT: pitchwheel channel=3 pitch=-240 time=0.0018656708333333332
EXTRACT: pitchwheel channel=3 pitch=-240 time=0.0055970125
EXTRACT: pitchwheel channel=3 pitch=-399 time=0
EXTRACT: pitchwheel channel=3 pitch=-558 time=0.007462683333333333
EXTRACT: pitchwheel channel=3 pitch=-558 time=0
EXTRACT: pitchwheel channel=3 pitch=-717 time=0.0055970125
EXTRACT: pitchwheel channel=3 pitch=-717 time=0
EXTRACT: pitchwheel channel=3 pitch=-876 time=0.0037313416666666663
EXTRACT: pitchwheel channel=3 pitch=-876 time=0.0018656708333333332
EXTRACT: pitchwheel channel=3 pitch=-876 time=0.0018656708333333332
EXTRACT: control_change channel=2 control=64 value=127 time=0.0037313416666666663
EXTRACT: pitchwheel channel=3 pitch=-1035 time=0
EXTRACT: pitchwheel channel=3 pitch=-1035 time=0
EXTRACT: pitchwheel channel=3 pitch=-1194 time=0.0037313416666666663
EXTRACT: pitchwheel channel=3 pitch=-1194 time=0
EXTRACT: pitchwheel channel=3 pitch=-1353 time=0.0037313416666666663
EXTRACT: pitchwheel channel=3 pitch=-1353 time=0
EXTRACT: pitchwheel channel=3 pitch=-1512 time=0.0037313416666666663
EXTRACT: pitchwheel channel=3 pitch=-1512 time=0.0018656708333333332
EXTRACT: pitchwheel channel=3 pitch=-1512 time=0.0018656708333333332
EXTRACT: pitchwheel channel=3 pitch=-1671 time=0.0018656708333333332
EXTRACT: pitchwheel channel=3 pitch=-1671 time=0.0018656708333333332
EXTRACT: pitchwheel channel=3 pitch=-1830 time=0
EXTRACT: pitchwheel channel=3 pitch=-1830 time=0.0037313416666666663
EXTRACT: pitchwheel channel=3 pitch=-1989 time=0.0018656708333333332
EXTRACT: pitchwheel channel=3 pitch=-1989 time=0.0018656708333333332
EXTRACT: pitchwheel channel=3 pitch=-2148 time=0.0018656708333333332
EXTRACT: pitchwheel channel=3 pitch=-2148 time=0.0018656708333333332
EXTRACT: pitchwheel channel=3 pitch=-2307 time=0.0018656708333333332
EXTRACT: pitchwheel channel=3 pitch=-2307 time=0.0018656708333333332
EXTRACT: pitchwheel channel=3 pitch=-2466 time=0.0018656708333333332
EXTRACT: pitchwheel channel=3 pitch=-2625 time=0.0018656708333333332
EXTRACT: pitchwheel channel=3 pitch=-2625 time=0.0037313416666666663
EXTRACT: pitchwheel channel=3 pitch=-2785 time=0
EXTRACT: pitchwheel channel=3 pitch=-2944 time=0.0018656708333333332
EXTRACT: pitchwheel channel=3 pitch=-2944 time=0
EXTRACT: pitchwheel channel=3 pitch=-3103 time=0.0037313416666666663
EXTRACT: pitchwheel channel=3 pitch=-3103 time=0.0018656708333333332
EXTRACT: pitchwheel channel=3 pitch=-3262 time=0.0018656708333333332
EXTRACT: pitchwheel channel=3 pitch=-3262 time=0.0018656708333333332
EXTRACT: pitchwheel channel=3 pitch=-3421 time=0.0018656708333333332
EXTRACT: pitchwheel channel=3 pitch=-3421 time=0
EXTRACT: pitchwheel channel=3 pitch=-3580 time=0.0018656708333333332
EXTRACT: pitchwheel channel=3 pitch=-3580 time=0.0018656708333333332
EXTRACT: pitchwheel channel=3 pitch=-3739 time=0.0018656708333333332
EXTRACT: pitchwheel channel=3 pitch=-3898 time=0.0018656708333333332
EXTRACT: pitchwheel channel=3 pitch=-3898 time=0
EXTRACT: pitchwheel channel=3 pitch=-4057 time=0.0037313416666666663
EXTRACT: pitchwheel channel=3 pitch=-4057 time=0
EXTRACT: pitchwheel channel=3 pitch=-4216 time=0.0018656708333333332
EXTRACT: pitchwheel channel=3 pitch=-4216 time=0.0018656708333333332
EXTRACT: pitchwheel channel=3 pitch=-4375 time=0.0018656708333333332
EXTRACT: pitchwheel channel=3 pitch=-4534 time=0.0018656708333333332
EXTRACT: pitchwheel channel=3 pitch=-4534 time=0
EXTRACT: pitchwheel channel=3 pitch=-4693 time=0.0037313416666666663
EXTRACT: pitchwheel channel=3 pitch=-4693 time=0
EXTRACT: pitchwheel channel=3 pitch=-4852 time=0.0018656708333333332
EXTRACT: pitchwheel channel=3 pitch=-5011 time=0.0018656708333333332
EXTRACT: pitchwheel channel=3 pitch=-5011 time=0
EXTRACT: pitchwheel channel=3 pitch=-5170 time=0.0037313416666666663
EXTRACT: pitchwheel channel=3 pitch=-5170 time=0
EXTRACT: pitchwheel channel=3 pitch=-5329 time=0.0018656708333333332
EXTRACT: pitchwheel channel=3 pitch=-5489 time=0.0018656708333333332
EXTRACT: pitchwheel channel=3 pitch=-5648 time=0.0018656708333333332
EXTRACT: pitchwheel channel=3 pitch=-5807 time=0.0018656708333333332
EXTRACT: pitchwheel channel=3 pitch=-5966 time=0.0018656708333333332
EXTRACT: pitchwheel channel=3 pitch=-5966 time=0.0018656708333333332
EXTRACT: pitchwheel channel=3 pitch=-6125 time=0.0018656708333333332
EXTRACT: pitchwheel channel=3 pitch=-6125 time=0
EXTRACT: pitchwheel channel=3 pitch=-6284 time=0.0037313416666666663
EXTRACT: pitchwheel channel=3 pitch=-6443 time=0
EXTRACT: note_on channel=2 note=64 velocity=0 time=0.0018656708333333332
EXTRACT: pitchwheel channel=3 pitch=-6602 time=0
EXTRACT: pitchwheel channel=3 pitch=-6761 time=0.0018656708333333332
EXTRACT: pitchwheel channel=3 pitch=-6761 time=0.0018656708333333332
EXTRACT: pitchwheel channel=3 pitch=-6920 time=0.0018656708333333332
EXTRACT: pitchwheel channel=3 pitch=-6920 time=0
EXTRACT: pitchwheel channel=3 pitch=-7079 time=0.0018656708333333332
EXTRACT: pitchwheel channel=3 pitch=-7238 time=0.0018656708333333332
EXTRACT: pitchwheel channel=3 pitch=-7397 time=0.0018656708333333332
EXTRACT: pitchwheel channel=3 pitch=-7556 time=0.0018656708333333332
EXTRACT: pitchwheel channel=3 pitch=-7556 time=0
EXTRACT: pitchwheel channel=3 pitch=-7715 time=0.0037313416666666663
EXTRACT: pitchwheel channel=3 pitch=-7874 time=0
EXTRACT: pitchwheel channel=3 pitch=-8033 time=0.0018656708333333332
EXTRACT: note_on channel=2 note=68 velocity=90 time=0.0037313416666666663
EXTRACT: pitchwheel channel=3 pitch=-8192 time=0
EXTRACT: note_on channel=3 note=80 velocity=0 time=0.07276116249999999
EXTRACT: note_on channel=2 note=59 velocity=0 time=0.026119391666666665
EXTRACT: note_on channel=2 note=64 velocity=92 time=0.12499994583333332
EXTRACT: note_on channel=2 note=68 velocity=0 time=0.01865670833333333
EXTRACT: note_on channel=2 note=64 velocity=0 time=0.18843275416666666
EXTRACT: note_on channel=2 note=59 velocity=91 time=0.016791037499999998
EXTRACT: pitchwheel channel=3 pitch=-4030 time=0.21082080416666665
EXTRACT: note_on channel=2 note=64 velocity=92 time=0
EXTRACT: note_on channel=3 note=81 velocity=100 time=0
EXTRACT: pitchwheel channel=3 pitch=-3761 time=0.13246262916666665
EXTRACT: pitchwheel channel=3 pitch=-3627 time=0.0018656708333333332
EXTRACT: pitchwheel channel=3 pitch=-3492 time=0.020522379166666663
EXTRACT: pitchwheel channel=3 pitch=-3358 time=0.007462683333333333
EXTRACT: pitchwheel channel=3 pitch=-3224 time=0.007462683333333333
EXTRACT: pitchwheel channel=3 pitch=-3090 time=0.0037313416666666663
EXTRACT: pitchwheel channel=3 pitch=-2955 time=0.0055970125
EXTRACT: note_on channel=2 note=59 velocity=0 time=0.0018656708333333332
EXTRACT: pitchwheel channel=3 pitch=-2821 time=0.0018656708333333332
EXTRACT: pitchwheel channel=3 pitch=-2687 time=0.0037313416666666663
EXTRACT: pitchwheel channel=3 pitch=-2552 time=0.0055970125
EXTRACT: pitchwheel channel=3 pitch=-2418 time=0.0018656708333333332
EXTRACT: note_on channel=2 note=64 velocity=0 time=0.0037313416666666663
EXTRACT: pitchwheel channel=3 pitch=-2284 time=0
EXTRACT: pitchwheel channel=3 pitch=-2150 time=0.0018656708333333332
EXTRACT: pitchwheel channel=3 pitch=-2015 time=0.0055970125
EXTRACT: pitchwheel channel=3 pitch=-1881 time=0.0018656708333333332
EXTRACT: pitchwheel channel=3 pitch=-1747 time=0.0018656708333333332
EXTRACT: pitchwheel channel=3 pitch=-1612 time=0.0037313416666666663
EXTRACT: pitchwheel channel=3 pitch=-1478 time=0.0037313416666666663
EXTRACT: pitchwheel channel=3 pitch=-1344 time=0.0018656708333333332
EXTRACT: pitchwheel channel=3 pitch=-1210 time=0.0018656708333333332
EXTRACT: pitchwheel channel=3 pitch=-1075 time=0.0018656708333333332
EXTRACT: note_on channel=2 note=68 velocity=87 time=0.0018656708333333332
EXTRACT: pitchwheel channel=3 pitch=-941 time=0
EXTRACT: pitchwheel channel=3 pitch=-807 time=0.0018656708333333332
EXTRACT: pitchwheel channel=3 pitch=-672 time=0.0037313416666666663
EXTRACT: pitchwheel channel=3 pitch=-538 time=0.0018656708333333332
EXTRACT: pitchwheel channel=3 pitch=-404 time=0.0018656708333333332
EXTRACT: pitchwheel channel=3 pitch=-270 time=0.0018656708333333332
EXTRACT: pitchwheel channel=3 pitch=-135 time=0.0018656708333333332
EXTRACT: pitchwheel channel=3 pitch=-1 time=0.0037313416666666663
EXTRACT: pitchwheel channel=3 pitch=0 time=0.0018656708333333332
EXTRACT: note_on channel=2 note=68 velocity=0 time=0.17350738749999997
EXTRACT: note_on channel=2 note=64 velocity=92 time=0.03171640416666666
EXTRACT: note_on channel=2 note=47 velocity=0 time=0.1473879958333333
EXTRACT: note_on channel=2 note=40 velocity=0 time=0
EXTRACT: note_on channel=2 note=64 velocity=0 time=0.0018656708333333332
EXTRACT: note_on channel=3 note=81 velocity=0 time=0.05970146666666666
EXTRACT: note_on channel=2 note=30 velocity=94 time=0
EXTRACT: note_on channel=2 note=42 velocity=92 time=0
EXTRACT: note_on channel=2 note=57 velocity=92 time=0
EXTRACT: note_on channel=3 note=78 velocity=100 time=0
EXTRACT: control_change channel=2 control=64 value=0 time=0.08768652916666665
EXTRACT: note_on channel=2 note=61 velocity=90 time=0.13619397083333332
EXTRACT: control_change channel=2 control=64 value=127 time=0.07462683333333332
EXTRACT: note_on channel=2 note=61 velocity=0 time=0.14925366666666665
EXTRACT: note_on channel=2 note=69 velocity=91 time=0
EXTRACT: note_on channel=2 note=61 velocity=87 time=0.22388049999999998
EXTRACT: note_on channel=2 note=69 velocity=0 time=0.011194025
EXTRACT: note_on channel=2 note=57 velocity=0 time=0
EXTRACT: note_on channel=2 note=61 velocity=0 time=0.19962677916666666
EXTRACT: note_on channel=2 note=57 velocity=94 time=0.013059695833333333
EXTRACT: note_on channel=2 note=61 velocity=91 time=0.22388049999999998
EXTRACT: note_on channel=2 note=61 velocity=0 time=0.19216409583333333
EXTRACT: note_on channel=2 note=69 velocity=91 time=0.03171640416666666
EXTRACT: note_on channel=2 note=57 velocity=0 time=0.04664177083333333
EXTRACT: note_on channel=2 note=61 velocity=91 time=0.17723872916666664
EXTRACT: note_on channel=2 note=69 velocity=0 time=0.0037313416666666663
EXTRACT: note_on channel=2 note=61 velocity=0 time=0.19776110833333332
EXTRACT: note_on channel=3 note=78 velocity=0 time=0
EXTRACT: note_on channel=2 note=42 velocity=0 time=0.014925366666666665
EXTRACT: note_on channel=2 note=30 velocity=0 time=0
EXTRACT: note_on channel=2 note=38 velocity=92 time=0
EXTRACT: note_on channel=2 note=50 velocity=94 time=0
EXTRACT: note_on channel=2 note=57 velocity=92 time=0
EXTRACT: note_on channel=3 note=81 velocity=100 time=0
EXTRACT: control_change channel=2 control=64 value=0 time=0.10820890833333333
EXTRACT: note_on channel=2 note=62 velocity=89 time=0.11567159166666666
EXTRACT: control_change channel=2 control=64 value=127 time=0.0018656708333333332
EXTRACT: note_on channel=2 note=62 velocity=0 time=0.1958954375
EXTRACT: note_on channel=2 note=69 velocity=91 time=0.026119391666666665
EXTRACT: note_on channel=2 note=57 velocity=0 time=0.08395518749999999
EXTRACT: note_on channel=2 note=62 velocity=88 time=0.13992531249999998
EXTRACT: note_on channel=2 note=69 velocity=0 time=0.03171640416666666
EXTRACT: note_on channel=3 note=81 velocity=0 time=0.1529850083333333
EXTRACT: note_on channel=2 note=62 velocity=0 time=0.0055970125
EXTRACT: pitchwheel channel=3 pitch=-8192 time=0.024253720833333332
EXTRACT: pitchwheel channel=3 pitch=-8058 time=0.0018656708333333332
EXTRACT: note_on channel=2 note=57 velocity=94 time=0
EXTRACT: note_on channel=3 note=85 velocity=100 time=0
EXTRACT: pitchwheel channel=3 pitch=-7924 time=0.024253720833333332
EXTRACT: pitchwheel channel=3 pitch=-7790 time=0.013059695833333333
EXTRACT: pitchwheel channel=3 pitch=-7655 time=0.007462683333333333
EXTRACT: pitchwheel channel=3 pitch=-7521 time=0.009328354166666665
EXTRACT: pitchwheel channel=3 pitch=-7387 time=0.009328354166666665
EXTRACT: pitchwheel channel=3 pitch=-7252 time=0.0055970125
EXTRACT: pitchwheel channel=3 pitch=-7118 time=0.0055970125
EXTRACT: pitchwheel channel=3 pitch=-6984 time=0.0055970125
EXTRACT: pitchwheel channel=3 pitch=-6850 time=0.007462683333333333
EXTRACT: pitchwheel channel=3 pitch=-6715 time=0.0037313416666666663
EXTRACT: pitchwheel channel=3 pitch=-6581 time=0.0055970125
EXTRACT: pitchwheel channel=3 pitch=-6447 time=0.0037313416666666663
EXTRACT: pitchwheel channel=3 pitch=-6312 time=0.0037313416666666663
EXTRACT: pitchwheel channel=3 pitch=-6178 time=0.0055970125
EXTRACT: pitchwheel channel=3 pitch=-6044 time=0.0037313416666666663
EXTRACT: pitchwheel channel=3 pitch=-5910 time=0.0037313416666666663
EXTRACT: pitchwheel channel=3 pitch=-5775 time=0.0055970125
EXTRACT: pitchwheel channel=3 pitch=-5641 time=0.0018656708333333332
EXTRACT: pitchwheel channel=3 pitch=-5507 time=0.0037313416666666663
EXTRACT: pitchwheel channel=3 pitch=-5372 time=0.0055970125
EXTRACT: pitchwheel channel=3 pitch=-5238 time=0.0018656708333333332
EXTRACT: pitchwheel channel=3 pitch=-5104 time=0.0037313416666666663
EXTRACT: pitchwheel channel=3 pitch=-4970 time=0.0018656708333333332
EXTRACT: pitchwheel channel=3 pitch=-4835 time=0.0055970125
EXTRACT: pitchwheel channel=3 pitch=-4701 time=0.0018656708333333332
EXTRACT: pitchwheel channel=3 pitch=-4567 time=0.0037313416666666663
EXTRACT: pitchwheel channel=3 pitch=-4432 time=0.0018656708333333332
EXTRACT: pitchwheel channel=3 pitch=-4298 time=0.0037313416666666663
EXTRACT: pitchwheel channel=3 pitch=-4164 time=0.0037313416666666663
EXTRACT: pitchwheel channel=3 pitch=-4030 time=0.0018656708333333332
EXTRACT: pitchwheel channel=3 pitch=-3895 time=0.0018656708333333332
EXTRACT: pitchwheel channel=3 pitch=-3761 time=0.0055970125
EXTRACT: pitchwheel channel=3 pitch=-3627 time=0.0018656708333333332
EXTRACT: pitchwheel channel=3 pitch=-3492 time=0.0018656708333333332
EXTRACT: pitchwheel channel=3 pitch=-3358 time=0.0018656708333333332
EXTRACT: pitchwheel channel=3 pitch=-3224 time=0.0055970125
EXTRACT: pitchwheel channel=3 pitch=-3090 time=0.0018656708333333332
EXTRACT: pitchwheel channel=3 pitch=-2955 time=0.0018656708333333332
EXTRACT: pitchwheel channel=3 pitch=-2821 time=0.0018656708333333332
EXTRACT: pitchwheel channel=3 pitch=-2687 time=0.0018656708333333332
EXTRACT: pitchwheel channel=3 pitch=-2552 time=0.0018656708333333332
EXTRACT: pitchwheel channel=3 pitch=-2418 time=0.0055970125
EXTRACT: pitchwheel channel=3 pitch=-2284 time=0.0018656708333333332
EXTRACT: pitchwheel channel=3 pitch=-2150 time=0.0018656708333333332
EXTRACT: pitchwheel channel=3 pitch=-2015 time=0.0018656708333333332
EXTRACT: pitchwheel channel=3 pitch=-1881 time=0.0037313416666666663
EXTRACT: pitchwheel channel=3 pitch=-1747 time=0.0018656708333333332
EXTRACT: pitchwheel channel=3 pitch=-1612 time=0.0018656708333333332
EXTRACT: pitchwheel channel=3 pitch=-1478 time=0.0018656708333333332
EXTRACT: pitchwheel channel=3 pitch=-1344 time=0.0018656708333333332
EXTRACT: pitchwheel channel=3 pitch=-1210 time=0.0018656708333333332
EXTRACT: pitchwheel channel=3 pitch=-1075 time=0.0037313416666666663
EXTRACT: pitchwheel channel=3 pitch=-941 time=0.0018656708333333332
EXTRACT: note_on channel=2 note=62 velocity=90 time=0.0018656708333333332
EXTRACT: pitchwheel channel=3 pitch=-807 time=0
EXTRACT: pitchwheel channel=3 pitch=-672 time=0.0018656708333333332
EXTRACT: pitchwheel channel=3 pitch=-538 time=0.0018656708333333332
EXTRACT: pitchwheel channel=3 pitch=-404 time=0.0018656708333333332
EXTRACT: pitchwheel channel=3 pitch=-270 time=0.0037313416666666663
EXTRACT: pitchwheel channel=3 pitch=-135 time=0.0018656708333333332
EXTRACT: pitchwheel channel=3 pitch=-1 time=0.0018656708333333332
EXTRACT: note_on channel=2 note=62 velocity=0 time=0.16231336249999997
EXTRACT: note_on channel=3 note=85 velocity=0 time=0.011194025
EXTRACT: note_on channel=2 note=69 velocity=93 time=0
EXTRACT: note_on channel=3 note=85 velocity=100 time=0
EXTRACT: note_on channel=2 note=57 velocity=0 time=0.14925366666666665
EXTRACT: note_on channel=2 note=62 velocity=89 time=0.07462683333333332
EXTRACT: note_on channel=2 note=69 velocity=0 time=0.016791037499999998
EXTRACT: note_on channel=2 note=38 velocity=0 time=0.09141787083333333
EXTRACT: note_on channel=2 note=50 velocity=0 time=0.05783579583333333
EXTRACT: note_on channel=2 note=62 velocity=0 time=0.01865670833333333
EXTRACT: note_on channel=3 note=85 velocity=0 time=0.0055970125
EXTRACT: control_change channel=2 control=64 value=0 time=0.027985062499999998
EXTRACT: note_on channel=2 note=33 velocity=95 time=0
EXTRACT: note_on channel=2 note=45 velocity=95 time=0
EXTRACT: note_on channel=2 note=57 velocity=95 time=0
EXTRACT: note_on channel=3 note=85 velocity=100 time=0
EXTRACT: note_on channel=2 note=61 velocity=89 time=0.22388049999999998
EXTRACT: note_on channel=3 note=85 velocity=0 time=0.05410445416666666
EXTRACT: note_on channel=3 note=85 velocity=100 time=0
EXTRACT: control_change channel=2 control=64 value=127 time=0.04291042916666666
EXTRACT: note_on channel=2 note=69 velocity=93 time=0.09701488333333333
EXTRACT: note_on channel=2 note=61 velocity=0 time=0.03171640416666666
EXTRACT: note_on channel=2 note=57 velocity=0 time=0.09141787083333333
EXTRACT: note_on channel=3 note=85 velocity=0 time=0.09328354166666666
EXTRACT: note_on channel=2 note=61 velocity=93 time=0.007462683333333333
EXTRACT: note_on channel=2 note=69 velocity=0 time=0.020522379166666663
EXTRACT: note_on channel=2 note=45 velocity=0 time=0.12313427499999999
EXTRACT: note_on channel=2 note=33 velocity=0 time=0
EXTRACT: note_on channel=2 note=61 velocity=0 time=0.06529847916666666
EXTRACT: note_on channel=2 note=33 velocity=95 time=0.014925366666666665
EXTRACT: note_on channel=2 note=45 velocity=95 time=0
EXTRACT: note_on channel=2 note=57 velocity=91 time=0
EXTRACT: pitchwheel channel=3 pitch=-4030 time=0.22201482916666665
EXTRACT: note_on channel=2 note=61 velocity=92 time=0
EXTRACT: note_on channel=3 note=88 velocity=100 time=0
EXTRACT: pitchwheel channel=3 pitch=-3895 time=0.0018656708333333332
EXTRACT: pitchwheel channel=3 pitch=-3761 time=0.04104475833333333
EXTRACT: pitchwheel channel=3 pitch=-3627 time=0.01865670833333333
EXTRACT: pitchwheel channel=3 pitch=-3492 time=0.011194025
EXTRACT: pitchwheel channel=3 pitch=-3358 time=0.013059695833333333
EXTRACT: pitchwheel channel=3 pitch=-3224 time=0.011194025
EXTRACT: pitchwheel channel=3 pitch=-3090 time=0.011194025
EXTRACT: pitchwheel channel=3 pitch=-2955 time=0.007462683333333333
EXTRACT: pitchwheel channel=3 pitch=-2821 time=0.007462683333333333
EXTRACT: pitchwheel channel=3 pitch=-2687 time=0.007462683333333333
EXTRACT: pitchwheel channel=3 pitch=-2552 time=0.007462683333333333
EXTRACT: pitchwheel channel=3 pitch=-2418 time=0.007462683333333333
EXTRACT: pitchwheel channel=3 pitch=-2284 time=0.0037313416666666663
EXTRACT: pitchwheel channel=3 pitch=-2150 time=0.007462683333333333
EXTRACT: pitchwheel channel=3 pitch=-2015 time=0.007462683333333333
EXTRACT: pitchwheel channel=3 pitch=-1881 time=0.0037313416666666663
EXTRACT: pitchwheel channel=3 pitch=-1747 time=0.0037313416666666663
EXTRACT: pitchwheel channel=3 pitch=-1612 time=0.007462683333333333
EXTRACT: pitchwheel channel=3 pitch=-1478 time=0.0037313416666666663
EXTRACT: pitchwheel channel=3 pitch=-1344 time=0.009328354166666665
EXTRACT: pitchwheel channel=3 pitch=-1210 time=0.0037313416666666663
EXTRACT: pitchwheel channel=3 pitch=-1075 time=0.0037313416666666663
EXTRACT: pitchwheel channel=3 pitch=-941 time=0.0037313416666666663
EXTRACT: pitchwheel channel=3 pitch=-807 time=0.007462683333333333
EXTRACT: pitchwheel channel=3 pitch=-672 time=0.0037313416666666663
EXTRACT: pitchwheel channel=3 pitch=-538 time=0.0037313416666666663
EXTRACT: note_on channel=2 note=61 velocity=0 time=0.0018656708333333332
EXTRACT: pitchwheel channel=3 pitch=-404 time=0.0018656708333333332
EXTRACT: note_on channel=2 note=69 velocity=87 time=0.0018656708333333332
EXTRACT: pitchwheel channel=3 pitch=-270 time=0.0018656708333333332
EXTRACT: pitchwheel channel=3 pitch=-135 time=0.0037313416666666663
EXTRACT: note_on channel=2 note=57 velocity=0 time=0.0018656708333333332
EXTRACT: pitchwheel channel=3 pitch=-1 time=0.0018656708333333332
EXTRACT: pitchwheel channel=3 pitch=0 time=0.0037313416666666663
EXTRACT: note_on channel=3 note=88 velocity=0 time=0.20335812083333332
EXTRACT: note_on channel=2 note=61 velocity=92 time=0
EXTRACT: note_on channel=3 note=85 velocity=100 time=0
EXTRACT: note_on channel=2 note=69 velocity=0 time=0.03171640416666666
EXTRACT: note_on channel=2 note=33 velocity=0 time=0.10634323749999999
EXTRACT: note_on channel=2 note=45 velocity=0 time=0.009328354166666665
EXTRACT: note_on channel=2 note=61 velocity=0 time=0.06343280833333333
EXTRACT: note_on channel=2 note=40 velocity=95 time=0.013059695833333333
EXTRACT: note_on channel=2 note=52 velocity=95 time=0
EXTRACT: note_on channel=2 note=59 velocity=93 time=0
EXTRACT: control_change channel=2 control=64 value=0 time=0.18656708333333333
EXTRACT: note_on channel=2 note=64 velocity=92 time=0.03731341666666666
EXTRACT: pitchwheel channel=3 pitch=-1 time=0.0037313416666666663
EXTRACT: pitchwheel channel=3 pitch=-135 time=0.027985062499999998
EXTRACT: pitchwheel channel=3 pitch=-270 time=0.013059695833333333
EXTRACT: pitchwheel channel=3 pitch=-404 time=0.0055970125
EXTRACT: pitchwheel channel=3 pitch=-538 time=0.007462683333333333
EXTRACT: pitchwheel channel=3 pitch=-672 time=0.007462683333333333
EXTRACT: pitchwheel channel=3 pitch=-807 time=0.0055970125
EXTRACT: pitchwheel channel=3 pitch=-941 time=0.0055970125
EXTRACT: pitchwheel channel=3 pitch=-1075 time=0.0055970125
EXTRACT: pitchwheel channel=3 pitch=-1210 time=0.0037313416666666663
EXTRACT: pitchwheel channel=3 pitch=-1344 time=0.0037313416666666663
EXTRACT: pitchwheel channel=3 pitch=-1478 time=0.0037313416666666663
EXTRACT: pitchwheel channel=3 pitch=-1612 time=0.0037313416666666663
EXTRACT: control_change channel=2 control=64 value=127 time=0.0018656708333333332
EXTRACT: pitchwheel channel=3 pitch=-1747 time=0.0018656708333333332
EXTRACT: pitchwheel channel=3 pitch=-1881 time=0.0037313416666666663
EXTRACT: pitchwheel channel=3 pitch=-2015 time=0.0037313416666666663
EXTRACT: pitchwheel channel=3 pitch=-2150 time=0.0037313416666666663
EXTRACT: pitchwheel channel=3 pitch=-2284 time=0.0037313416666666663
EXTRACT: pitchwheel channel=3 pitch=-2418 time=0.0037313416666666663
EXTRACT: pitchwheel channel=3 pitch=-2552 time=0.0018656708333333332
EXTRACT: pitchwheel channel=3 pitch=-2687 time=0.0037313416666666663
EXTRACT: pitchwheel channel=3 pitch=-2821 time=0.0037313416666666663
EXTRACT: pitchwheel channel=3 pitch=-2955 time=0.0018656708333333332
EXTRACT: pitchwheel channel=3 pitch=-3090 time=0.0037313416666666663
EXTRACT: pitchwheel channel=3 pitch=-3224 time=0.0018656708333333332
EXTRACT: pitchwheel channel=3 pitch=-3358 time=0.0018656708333333332
EXTRACT: pitchwheel channel=3 pitch=-3492 time=0.0018656708333333332
EXTRACT: pitchwheel channel=3 pitch=-3627 time=0.0037313416666666663
EXTRACT: pitchwheel channel=3 pitch=-3761 time=0.0018656708333333332
EXTRACT: pitchwheel channel=3 pitch=-3895 time=0.0037313416666666663
EXTRACT: pitchwheel channel=3 pitch=-4030 time=0.0018656708333333332
EXTRACT: pitchwheel channel=3 pitch=-4164 time=0.0018656708333333332
EXTRACT: pitchwheel channel=3 pitch=-4298 time=0.0037313416666666663
EXTRACT: pitchwheel channel=3 pitch=-4432 time=0.0018656708333333332
EXTRACT: pitchwheel channel=3 pitch=-4567 time=0.0018656708333333332
EXTRACT: pitchwheel channel=3 pitch=-4701 time=0.0018656708333333332
EXTRACT: pitchwheel channel=3 pitch=-4835 time=0.0037313416666666663
EXTRACT: pitchwheel channel=3 pitch=-4970 time=0.0018656708333333332
EXTRACT: pitchwheel channel=3 pitch=-5104 time=0.0018656708333333332
EXTRACT: pitchwheel channel=3 pitch=-5238 time=0.0018656708333333332
EXTRACT: pitchwheel channel=3 pitch=-5372 time=0.0037313416666666663
EXTRACT: pitchwheel channel=3 pitch=-5507 time=0.0018656708333333332
EXTRACT: pitchwheel channel=3 pitch=-5641 time=0.0018656708333333332
EXTRACT: pitchwheel channel=3 pitch=-5775 time=0.0018656708333333332
EXTRACT: pitchwheel channel=3 pitch=-5910 time=0.0018656708333333332
EXTRACT: pitchwheel channel=3 pitch=-6044 time=0
EXTRACT: pitchwheel channel=3 pitch=-6178 time=0.0018656708333333332
EXTRACT: pitchwheel channel=3 pitch=-6312 time=0.0018656708333333332
EXTRACT: pitchwheel channel=3 pitch=-6447 time=0.0018656708333333332
EXTRACT: pitchwheel channel=3 pitch=-6581 time=0.0037313416666666663
EXTRACT: pitchwheel channel=3 pitch=-6715 time=0.0018656708333333332
EXTRACT: pitchwheel channel=3 pitch=-6850 time=0.0018656708333333332
EXTRACT: pitchwheel channel=3 pitch=-6984 time=0.0018656708333333332
EXTRACT: pitchwheel channel=3 pitch=-7118 time=0.0018656708333333332
EXTRACT: note_on channel=2 note=64 velocity=0 time=0.0018656708333333332
EXTRACT: pitchwheel channel=3 pitch=-7252 time=0
EXTRACT: pitchwheel channel=3 pitch=-7387 time=0.0018656708333333332
EXTRACT: pitchwheel channel=3 pitch=-7521 time=0.0018656708333333332
EXTRACT: pitchwheel channel=3 pitch=-7655 time=0.0018656708333333332
EXTRACT: pitchwheel channel=3 pitch=-7790 time=0.0018656708333333332
EXTRACT: pitchwheel channel=3 pitch=-7924 time=0.0018656708333333332
EXTRACT: pitchwheel channel=3 pitch=-8058 time=0.0018656708333333332
EXTRACT: pitchwheel channel=3 pitch=-8192 time=0.0018656708333333332
EXTRACT: note_on channel=3 note=85 velocity=0 time=0.0018656708333333332
EXTRACT: note_on channel=2 note=68 velocity=90 time=0.007462683333333333
EXTRACT: note_on channel=2 note=59 velocity=0 time=0.09888055416666666
EXTRACT: pitchwheel channel=3 pitch=0 time=0.009328354166666665
EXTRACT: note_on channel=2 note=64 velocity=92 time=0.11567159166666666
EXTRACT: note_on channel=2 note=68 velocity=0 time=0.01865670833333333
EXTRACT: note_on channel=2 note=52 velocity=0 time=0.12313427499999999
EXTRACT: note_on channel=2 note=40 velocity=0 time=0
EXTRACT: note_on channel=2 note=64 velocity=0 time=0.06529847916666666
EXTRACT: note_on channel=2 note=40 velocity=95 time=0
EXTRACT: note_on channel=2 note=47 velocity=95 time=0
EXTRACT: note_on channel=2 note=59 velocity=91 time=0
EXTRACT: note_on channel=3 note=86 velocity=100 time=0
EXTRACT: note_on channel=3 note=86 velocity=0 time=0.21641781666666665
EXTRACT: note_on channel=2 note=64 velocity=92 time=0.007462683333333333
EXTRACT: note_on channel=3 note=85 velocity=88 time=0
EXTRACT: note_on channel=2 note=59 velocity=0 time=0.18097007083333333
EXTRACT: note_on channel=2 note=64 velocity=0 time=0.016791037499999998
EXTRACT: note_on channel=3 note=85 velocity=0 time=0.01865670833333333
EXTRACT: note_on channel=2 note=68 velocity=87 time=0
EXTRACT: note_on channel=3 note=83 velocity=96 time=0
EXTRACT: note_on channel=2 note=68 velocity=0 time=0.19216409583333333
EXTRACT: note_on channel=3 note=83 velocity=0 time=0.024253720833333332
EXTRACT: note_on channel=2 note=64 velocity=92 time=0.007462683333333333
EXTRACT: note_on channel=3 note=81 velocity=87 time=0
EXTRACT: note_on channel=2 note=47 velocity=0 time=0.1473879958333333
EXTRACT: note_on channel=2 note=40 velocity=0 time=0
EXTRACT: note_on channel=2 note=64 velocity=0 time=0.0055970125
EXTRACT: note_on channel=3 note=81 velocity=0 time=0.03171640416666666
EXTRACT: pitchwheel channel=3 pitch=-8192 time=0.02985073333333333
EXTRACT: pitchwheel channel=3 pitch=-8058 time=0.0018656708333333332
EXTRACT: note_on channel=2 note=42 velocity=92 time=0
EXTRACT: note_on channel=2 note=49 velocity=94 time=0
EXTRACT: note_on channel=2 note=57 velocity=92 time=0
EXTRACT: note_on channel=3 note=85 velocity=100 time=0
EXTRACT: pitchwheel channel=3 pitch=-7924 time=0.020522379166666663
EXTRACT: pitchwheel channel=3 pitch=-7790 time=0.011194025
EXTRACT: pitchwheel channel=3 pitch=-7655 time=0.009328354166666665
EXTRACT: pitchwheel channel=3 pitch=-7521 time=0.007462683333333333
EXTRACT: pitchwheel channel=3 pitch=-7387 time=0.007462683333333333
EXTRACT: pitchwheel channel=3 pitch=-7252 time=0.007462683333333333
EXTRACT: pitchwheel channel=3 pitch=-7118 time=0.0055970125
EXTRACT: pitchwheel channel=3 pitch=-6984 time=0.0037313416666666663
EXTRACT: pitchwheel channel=3 pitch=-6850 time=0.0055970125
EXTRACT: pitchwheel channel=3 pitch=-6715 time=0.0037313416666666663
EXTRACT: control_change channel=2 control=64 value=0 time=0.0055970125
EXTRACT: pitchwheel channel=3 pitch=-6581 time=0
EXTRACT: pitchwheel channel=3 pitch=-6447 time=0.0055970125
EXTRACT: pitchwheel channel=3 pitch=-6312 time=0.0018656708333333332
EXTRACT: pitchwheel channel=3 pitch=-6178 time=0.0055970125
EXTRACT: pitchwheel channel=3 pitch=-6044 time=0.0037313416666666663
EXTRACT: pitchwheel channel=3 pitch=-5910 time=0.0037313416666666663
EXTRACT: pitchwheel channel=3 pitch=-5775 time=0.0037313416666666663
EXTRACT: pitchwheel channel=3 pitch=-5641 time=0.0018656708333333332
EXTRACT: pitchwheel channel=3 pitch=-5507 time=0.0037313416666666663
EXTRACT: pitchwheel channel=3 pitch=-5372 time=0.0037313416666666663
EXTRACT: pitchwheel channel=3 pitch=-5238 time=0.0037313416666666663
EXTRACT: pitchwheel channel=3 pitch=-5104 time=0.0018656708333333332
EXTRACT: pitchwheel channel=3 pitch=-4970 time=0.0037313416666666663
EXTRACT: pitchwheel channel=3 pitch=-4835 time=0.0037313416666666663
EXTRACT: pitchwheel channel=3 pitch=-4701 time=0.0018656708333333332
EXTRACT: pitchwheel channel=3 pitch=-4567 time=0.0018656708333333332
EXTRACT: pitchwheel channel=3 pitch=-4432 time=0.0037313416666666663
EXTRACT: pitchwheel channel=3 pitch=-4298 time=0.0037313416666666663
EXTRACT: pitchwheel channel=3 pitch=-4164 time=0.0018656708333333332
EXTRACT: pitchwheel channel=3 pitch=-4030 time=0.0037313416666666663
EXTRACT: pitchwheel channel=3 pitch=-3895 time=0.0018656708333333332
EXTRACT: pitchwheel channel=3 pitch=-3761 time=0.0037313416666666663
EXTRACT: pitchwheel channel=3 pitch=-3627 time=0.0018656708333333332
EXTRACT: pitchwheel channel=3 pitch=-3492 time=0.0018656708333333332
EXTRACT: pitchwheel channel=3 pitch=-3358 time=0.0018656708333333332
EXTRACT: pitchwheel channel=3 pitch=-3224 time=0.0037313416666666663
EXTRACT: pitchwheel channel=3 pitch=-3090 time=0.0018656708333333332
EXTRACT: pitchwheel channel=3 pitch=-2955 time=0.0018656708333333332
EXTRACT: pitchwheel channel=3 pitch=-2821 time=0.0037313416666666663
EXTRACT: pitchwheel channel=3 pitch=-2687 time=0.0018656708333333332
EXTRACT: pitchwheel channel=3 pitch=-2552 time=0.0018656708333333332
EXTRACT: pitchwheel channel=3 pitch=-2418 time=0.0018656708333333332
EXTRACT: pitchwheel channel=3 pitch=-2284 time=0.0018656708333333332
EXTRACT: pitchwheel channel=3 pitch=-2150 time=0.0018656708333333332
EXTRACT: pitchwheel channel=3 pitch=-2015 time=0.0037313416666666663
EXTRACT: pitchwheel channel=3 pitch=-1881 time=0.0018656708333333332
EXTRACT: pitchwheel channel=3 pitch=-1747 time=0.0018656708333333332
EXTRACT: pitchwheel channel=3 pitch=-1612 time=0.0018656708333333332
EXTRACT: pitchwheel channel=3 pitch=-1478 time=0.0018656708333333332
EXTRACT: pitchwheel channel=3 pitch=-1344 time=0.0018656708333333332
EXTRACT: pitchwheel channel=3 pitch=-1210 time=0.0018656708333333332
EXTRACT: pitchwheel channel=3 pitch=-1075 time=0.0018656708333333332
EXTRACT: pitchwheel channel=3 pitch=-941 time=0.0018656708333333332
EXTRACT: pitchwheel channel=3 pitch=-807 time=0.0037313416666666663
EXTRACT: pitchwheel channel=3 pitch=-672 time=0.0018656708333333332
EXTRACT: pitchwheel channel=3 pitch=-538 time=0.0018656708333333332
EXTRACT: pitchwheel channel=3 pitch=-404 time=0.0018656708333333332
EXTRACT: pitchwheel channel=3 pitch=-270 time=0.0018656708333333332
EXTRACT: pitchwheel channel=3 pitch=-135 time=0.0018656708333333332
EXTRACT: pitchwheel channel=3 pitch=-1 time=0.0018656708333333332
EXTRACT: pitchwheel channel=3 pitch=0 time=0.0018656708333333332
EXTRACT: note_on channel=2 note=61 velocity=87 time=0.0055970125
EXTRACT: control_change channel=2 control=64 value=127 time=0.07462683333333332
EXTRACT: note_on channel=3 note=85 velocity=0 time=0.007462683333333333
EXTRACT: pitchwheel channel=3 pitch=-8058 time=0.02985073333333333
EXTRACT: pitchwheel channel=3 pitch=-7924 time=0.0018656708333333332
EXTRACT: note_on channel=3 note=85 velocity=100 time=0
EXTRACT: pitchwheel channel=3 pitch=-7790 time=0.007462683333333333
EXTRACT: pitchwheel channel=3 pitch=-7655 time=0.009328354166666665
EXTRACT: pitchwheel channel=3 pitch=-7521 time=0.007462683333333333
EXTRACT: pitchwheel channel=3 pitch=-7387 time=0.0055970125
EXTRACT: pitchwheel channel=3 pitch=-7252 time=0.007462683333333333
EXTRACT: pitchwheel channel=3 pitch=-7118 time=0.0037313416666666663
EXTRACT: pitchwheel channel=3 pitch=-6984 time=0.0037313416666666663
EXTRACT: pitchwheel channel=3 pitch=-6850 time=0.0055970125
EXTRACT: pitchwheel channel=3 pitch=-6715 time=0.0037313416666666663
EXTRACT: pitchwheel channel=3 pitch=-6581 time=0.0037313416666666663
EXTRACT: pitchwheel channel=3 pitch=-6447 time=0.0037313416666666663
EXTRACT: pitchwheel channel=3 pitch=-6312 time=0.0037313416666666663
EXTRACT: pitchwheel channel=3 pitch=-6178 time=0.0037313416666666663
EXTRACT: pitchwheel channel=3 pitch=-6044 time=0.0018656708333333332
EXTRACT: pitchwheel channel=3 pitch=-5910 time=0.0037313416666666663
EXTRACT: pitchwheel channel=3 pitch=-5775 time=0.0037313416666666663
EXTRACT: pitchwheel channel=3 pitch=-5641 time=0.0018656708333333332
EXTRACT: pitchwheel channel=3 pitch=-5507 time=0.0037313416666666663
EXTRACT: pitchwheel channel=3 pitch=-5372 time=0.0018656708333333332
EXTRACT: pitchwheel channel=3 pitch=-5238 time=0.0018656708333333332
EXTRACT: pitchwheel channel=3 pitch=-5104 time=0.0037313416666666663
EXTRACT: pitchwheel channel=3 pitch=-4970 time=0.0018656708333333332
EXTRACT: note_on channel=2 note=61 velocity=0 time=0.0018656708333333332
EXTRACT: note_on channel=2 note=69 velocity=91 time=0
EXTRACT: pitchwheel channel=3 pitch=-4835 time=0
EXTRACT: pitchwheel channel=3 pitch=-4701 time=0.0037313416666666663
EXTRACT: pitchwheel channel=3 pitch=-4567 time=0.0018656708333333332
EXTRACT: pitchwheel channel=3 pitch=-4432 time=0.0018656708333333332
EXTRACT: pitchwheel channel=3 pitch=-4298 time=0.0018656708333333332
EXTRACT: pitchwheel channel=3 pitch=-4164 time=0.0037313416666666663
EXTRACT: pitchwheel channel=3 pitch=-4030 time=0.0018656708333333332
EXTRACT: pitchwheel channel=3 pitch=-3895 time=0.0018656708333333332
EXTRACT: pitchwheel channel=3 pitch=-3761 time=0.0018656708333333332
EXTRACT: pitchwheel channel=3 pitch=-3627 time=0.0018656708333333332
EXTRACT: pitchwheel channel=3 pitch=-3492 time=0.0037313416666666663
EXTRACT: pitchwheel channel=3 pitch=-3358 time=0
EXTRACT: pitchwheel channel=3 pitch=-3224 time=0.0018656708333333332
EXTRACT: pitchwheel channel=3 pitch=-3090 time=0.0037313416666666663
EXTRACT: pitchwheel channel=3 pitch=-2955 time=0.0018656708333333332
EXTRACT: pitchwheel channel=3 pitch=-2821 time=0
EXTRACT: pitchwheel channel=3 pitch=-2687 time=0.0018656708333333332
EXTRACT: pitchwheel channel=3 pitch=-2552 time=0.0037313416666666663
EXTRACT: pitchwheel channel=3 pitch=-2418 time=0.0018656708333333332
EXTRACT: pitchwheel channel=3 pitch=-2284 time=0
EXTRACT: pitchwheel channel=3 pitch=-2150 time=0.0018656708333333332
EXTRACT: pitchwheel channel=3 pitch=-2015 time=0.0018656708333333332
EXTRACT: pitchwheel channel=3 pitch=-1881 time=0.0037313416666666663
EXTRACT: pitchwheel channel=3 pitch=-1747 time=0.0018656708333333332
EXTRACT: pitchwheel channel=3 pitch=-1612 time=0
EXTRACT: pitchwheel channel=3 pitch=-1478 time=0.0018656708333333332
EXTRACT: pitchwheel channel=3 pitch=-1344 time=0.0018656708333333332
EXTRACT: pitchwheel channel=3 pitch=-1210 time=0.0018656708333333332
EXTRACT: pitchwheel channel=3 pitch=-1075 time=0.0018656708333333332
EXTRACT: pitchwheel channel=3 pitch=-941 time=0
EXTRACT: pitchwheel channel=3 pitch=-807 time=0.0018656708333333332
EXTRACT: pitchwheel channel=3 pitch=-672 time=0.0018656708333333332
EXTRACT: pitchwheel channel=3 pitch=-538 time=0.0018656708333333332
EXTRACT: pitchwheel channel=3 pitch=-404 time=0.0018656708333333332
EXTRACT: pitchwheel channel=3 pitch=-270 time=0.0018656708333333332
EXTRACT: pitchwheel channel=3 pitch=-135 time=0.0018656708333333332
EXTRACT: pitchwheel channel=3 pitch=-1 time=0.0018656708333333332
EXTRACT: note_on channel=2 note=61 velocity=87 time=0.15485067916666664
EXTRACT: note_on channel=2 note=69 velocity=0 time=0.011194025
EXTRACT: note_on channel=2 note=57 velocity=0 time=0
EXTRACT: note_on channel=2 note=49 velocity=0 time=0.12126860416666665
EXTRACT: note_on channel=2 note=42 velocity=0 time=0
EXTRACT: note_on channel=2 note=61 velocity=0 time=0.07835817499999999
EXTRACT: note_on channel=2 note=42 velocity=92 time=0.013059695833333333
EXTRACT: note_on channel=2 note=49 velocity=94 time=0
EXTRACT: note_on channel=2 note=57 velocity=94 time=0
EXTRACT: note_on channel=3 note=85 velocity=0 time=0.17164171666666664
EXTRACT: pitchwheel channel=3 pitch=-8192 time=0.04664177083333333
EXTRACT: pitchwheel channel=3 pitch=-8058 time=0.0018656708333333332
EXTRACT: note_on channel=2 note=61 velocity=91 time=0
EXTRACT: note_on channel=3 note=85 velocity=100 time=0
EXTRACT: pitchwheel channel=3 pitch=-7924 time=0.016791037499999998
EXTRACT: pitchwheel channel=3 pitch=-7790 time=0.011194025
EXTRACT: pitchwheel channel=3 pitch=-7655 time=0.0055970125
EXTRACT: pitchwheel channel=3 pitch=-7521 time=0.007462683333333333
EXTRACT: pitchwheel channel=3 pitch=-7387 time=0.0055970125
EXTRACT: pitchwheel channel=3 pitch=-7252 time=0.0037313416666666663
EXTRACT: pitchwheel channel=3 pitch=-7118 time=0.0037313416666666663
EXTRACT: pitchwheel channel=3 pitch=-6984 time=0.0037313416666666663
EXTRACT: pitchwheel channel=3 pitch=-6850 time=0.0055970125
EXTRACT: pitchwheel channel=3 pitch=-6715 time=0.0018656708333333332
EXTRACT: pitchwheel channel=3 pitch=-6581 time=0.0055970125
EXTRACT: pitchwheel channel=3 pitch=-6447 time=0.0018656708333333332
EXTRACT: pitchwheel channel=3 pitch=-6312 time=0.0037313416666666663
EXTRACT: pitchwheel channel=3 pitch=-6178 time=0.0018656708333333332
EXTRACT: pitchwheel channel=3 pitch=-6044 time=0.0037313416666666663
EXTRACT: pitchwheel channel=3 pitch=-5910 time=0.0018656708333333332
EXTRACT: pitchwheel channel=3 pitch=-5775 time=0.0037313416666666663
EXTRACT: pitchwheel channel=3 pitch=-5641 time=0.0018656708333333332
EXTRACT: pitchwheel channel=3 pitch=-5507 time=0.0037313416666666663
EXTRACT: pitchwheel channel=3 pitch=-5372 time=0.0018656708333333332
EXTRACT: pitchwheel channel=3 pitch=-5238 time=0.0037313416666666663
EXTRACT: pitchwheel channel=3 pitch=-5104 time=0.0018656708333333332
EXTRACT: pitchwheel channel=3 pitch=-4970 time=0.0018656708333333332
EXTRACT: pitchwheel channel=3 pitch=-4835 time=0.0037313416666666663
EXTRACT: pitchwheel channel=3 pitch=-4701 time=0
EXTRACT: pitchwheel channel=3 pitch=-4567 time=0.0037313416666666663
EXTRACT: pitchwheel channel=3 pitch=-4432 time=0.0018656708333333332
EXTRACT: pitchwheel channel=3 pitch=-4298 time=0.0018656708333333332
EXTRACT: pitchwheel channel=3 pitch=-4164 time=0.0018656708333333332
EXTRACT: pitchwheel channel=3 pitch=-4030 time=0.0037313416666666663
EXTRACT: pitchwheel channel=3 pitch=-3895 time=0
EXTRACT: pitchwheel channel=3 pitch=-3761 time=0.0037313416666666663
EXTRACT: pitchwheel channel=3 pitch=-3627 time=0.0018656708333333332
EXTRACT: pitchwheel channel=3 pitch=-3492 time=0
EXTRACT: pitchwheel channel=3 pitch=-3358 time=0.0037313416666666663
EXTRACT: pitchwheel channel=3 pitch=-3224 time=0.0018656708333333332
EXTRACT: pitchwheel channel=3 pitch=-3090 time=0
EXTRACT: pitchwheel channel=3 pitch=-2955 time=0.0037313416666666663
EXTRACT: pitchwheel channel=3 pitch=-2821 time=0.0018656708333333332
EXTRACT: pitchwheel channel=3 pitch=-2687 time=0
EXTRACT: pitchwheel channel=3 pitch=-2552 time=0.0018656708333333332
EXTRACT: pitchwheel channel=3 pitch=-2418 time=0.0037313416666666663
EXTRACT: pitchwheel channel=3 pitch=-2284 time=0
EXTRACT: pitchwheel channel=3 pitch=-2150 time=0.0018656708333333332
EXTRACT: pitchwheel channel=3 pitch=-2015 time=0.0018656708333333332
EXTRACT: pitchwheel channel=3 pitch=-1881 time=0.0018656708333333332
EXTRACT: pitchwheel channel=3 pitch=-1747 time=0.0018656708333333332
EXTRACT: pitchwheel channel=3 pitch=-1612 time=0.0018656708333333332
EXTRACT: pitchwheel channel=3 pitch=-1478 time=0.0018656708333333332
EXTRACT: pitchwheel channel=3 pitch=-1344 time=0.0018656708333333332
EXTRACT: pitchwheel channel=3 pitch=-1210 time=0
EXTRACT: pitchwheel channel=3 pitch=-1075 time=0.0018656708333333332
EXTRACT: pitchwheel channel=3 pitch=-941 time=0.0018656708333333332
EXTRACT: pitchwheel channel=3 pitch=-807 time=0.0018656708333333332
EXTRACT: pitchwheel channel=3 pitch=-672 time=0
EXTRACT: pitchwheel channel=3 pitch=-538 time=0.0018656708333333332
EXTRACT: pitchwheel channel=3 pitch=-404 time=0.0018656708333333332
EXTRACT: pitchwheel channel=3 pitch=-270 time=0.0018656708333333332
EXTRACT: pitchwheel channel=3 pitch=-135 time=0
EXTRACT: pitchwheel channel=3 pitch=-1 time=0.0018656708333333332
EXTRACT: pitchwheel channel=3 pitch=0 time=0.0018656708333333332
EXTRACT: note_on channel=2 note=61 velocity=0 time=0.02238805
EXTRACT: note_on channel=2 note=69 velocity=91 time=0.03171640416666666
EXTRACT: note_on channel=2 note=57 velocity=0 time=0.04664177083333333
EXTRACT: note_on channel=3 note=85 velocity=0 time=0.1473879958333333
EXTRACT: pitchwheel channel=3 pitch=8191 time=0.020522379166666663
EXTRACT: note_on channel=2 note=61 velocity=91 time=0
EXTRACT: note_on channel=3 note=81 velocity=97 time=0
EXTRACT: note_on channel=2 note=69 velocity=0 time=0.0037313416666666663
EXTRACT: pitchwheel channel=3 pitch=8056 time=0.06343280833333333
EXTRACT: pitchwheel channel=3 pitch=7788 time=0.0018656708333333332
EXTRACT: pitchwheel channel=3 pitch=7519 time=0.0018656708333333332
EXTRACT: pitchwheel channel=3 pitch=7519 time=0.0018656708333333332
EXTRACT: pitchwheel channel=3 pitch=7385 time=0.0037313416666666663
EXTRACT: pitchwheel channel=3 pitch=7116 time=0.0018656708333333332
EXTRACT: pitchwheel channel=3 pitch=7116 time=0.0018656708333333332
EXTRACT: pitchwheel channel=3 pitch=6982 time=0
EXTRACT: pitchwheel channel=3 pitch=6713 time=0.0018656708333333332
EXTRACT: pitchwheel channel=3 pitch=6310 time=0.0018656708333333332
EXTRACT: pitchwheel channel=3 pitch=6042 time=0.0018656708333333332
EXTRACT: pitchwheel channel=3 pitch=6042 time=0.0037313416666666663
EXTRACT: pitchwheel channel=3 pitch=5908 time=0.0018656708333333332
EXTRACT: pitchwheel channel=3 pitch=5773 time=0
EXTRACT: pitchwheel channel=3 pitch=5505 time=0.0018656708333333332
EXTRACT: pitchwheel channel=3 pitch=5370 time=0.0018656708333333332
EXTRACT: pitchwheel channel=3 pitch=5370 time=0.0018656708333333332
EXTRACT: pitchwheel channel=3 pitch=5236 time=0.0018656708333333332
EXTRACT: pitchwheel channel=3 pitch=4833 time=0.0018656708333333332
EXTRACT: pitchwheel channel=3 pitch=4699 time=0.0018656708333333332
EXTRACT: pitchwheel channel=3 pitch=4430 time=0
EXTRACT: pitchwheel channel=3 pitch=4162 time=0.0018656708333333332
EXTRACT: pitchwheel channel=3 pitch=3893 time=0.0037313416666666663
EXTRACT: pitchwheel channel=3 pitch=3625 time=0.0018656708333333332
EXTRACT: pitchwheel channel=3 pitch=3356 time=0.0037313416666666663
EXTRACT: pitchwheel channel=3 pitch=3356 time=0.0018656708333333332
EXTRACT: pitchwheel channel=3 pitch=3222 time=0
EXTRACT: pitchwheel channel=3 pitch=3088 time=0.0018656708333333332
EXTRACT: pitchwheel channel=3 pitch=2550 time=0.0018656708333333332
EXTRACT: pitchwheel channel=3 pitch=2550 time=0.0018656708333333332
EXTRACT: pitchwheel channel=3 pitch=2550 time=0.0018656708333333332
EXTRACT: pitchwheel channel=3 pitch=2148 time=0.0018656708333333332
EXTRACT: pitchwheel channel=3 pitch=2013 time=0.0018656708333333332
EXTRACT: pitchwheel channel=3 pitch=1745 time=0
EXTRACT: pitchwheel channel=3 pitch=1745 time=0.0018656708333333332
EXTRACT: pitchwheel channel=3 pitch=1610 time=0.0018656708333333332
EXTRACT: pitchwheel channel=3 pitch=1476 time=0.0018656708333333332
EXTRACT: pitchwheel channel=3 pitch=1208 time=0.0018656708333333332
EXTRACT: pitchwheel channel=3 pitch=939 time=0
EXTRACT: pitchwheel channel=3 pitch=670 time=0.0018656708333333332
EXTRACT: pitchwheel channel=3 pitch=670 time=0.0018656708333333332
EXTRACT: pitchwheel channel=3 pitch=670 time=0.0018656708333333332
EXTRACT: pitchwheel channel=3 pitch=0 time=0.0055970125
EXTRACT: note_on channel=2 note=61 velocity=0 time=0.055970124999999996
EXTRACT: note_on channel=3 note=81 velocity=0 time=0.014925366666666665
EXTRACT: note_on channel=2 note=49 velocity=0 time=0
EXTRACT: note_on channel=2 note=42 velocity=0 time=0
EXTRACT: note_on channel=2 note=38 velocity=92 time=0.007462683333333333
EXTRACT: note_on channel=2 note=50 velocity=94 time=0
EXTRACT: note_on channel=2 note=57 velocity=92 time=0
EXTRACT: note_on channel=3 note=78 velocity=90 time=0
EXTRACT: control_change channel=2 control=64 value=0 time=0.10820890833333333
EXTRACT: note_on channel=2 note=62 velocity=89 time=0.11567159166666666
EXTRACT: control_change channel=2 control=64 value=127 time=0.0018656708333333332
EXTRACT: note_on channel=2 note=62 velocity=0 time=0.1958954375
EXTRACT: note_on channel=2 note=69 velocity=91 time=0.026119391666666665
EXTRACT: note_on channel=2 note=57 velocity=0 time=0.08395518749999999
EXTRACT: note_on channel=2 note=62 velocity=88 time=0.13992531249999998
EXTRACT: note_on channel=2 note=69 velocity=0 time=0.03171640416666666
EXTRACT: note_on channel=2 note=50 velocity=0 time=0.07835817499999999
EXTRACT: note_on channel=2 note=38 velocity=0 time=0
EXTRACT: note_on channel=3 note=78 velocity=0 time=0.07276116249999999
EXTRACT: note_on channel=2 note=62 velocity=0 time=0.007462683333333333
EXTRACT: note_on channel=2 note=38 velocity=92 time=0
EXTRACT: note_on channel=2 note=50 velocity=94 time=0
EXTRACT: note_on channel=2 note=57 velocity=94 time=0
EXTRACT: note_on channel=3 note=81 velocity=99 time=0
EXTRACT: note_on channel=3 note=81 velocity=0 time=0.19216409583333333
EXTRACT: note_on channel=2 note=62 velocity=90 time=0
EXTRACT: note_on channel=3 note=81 velocity=98 time=0
EXTRACT: note_on channel=2 note=62 velocity=0 time=0.1753730583333333
EXTRACT: note_on channel=2 note=69 velocity=93 time=0.048507441666666665
EXTRACT: note_on channel=2 note=57 velocity=0 time=0.14925366666666665
EXTRACT: note_on channel=3 note=81 velocity=0 time=0.0447761
EXTRACT: note_on channel=2 note=62 velocity=89 time=0
EXTRACT: note_on channel=3 note=81 velocity=91 time=0
EXTRACT: note_on channel=2 note=69 velocity=0 time=0.016791037499999998
EXTRACT: note_on channel=2 note=38 velocity=0 time=0.09141787083333333
EXTRACT: note_on channel=2 note=50 velocity=0 time=0.05783579583333333
EXTRACT: note_on channel=2 note=62 velocity=0 time=0.01865670833333333
EXTRACT: note_on channel=3 note=81 velocity=0 time=0.0037313416666666663
EXTRACT: control_change channel=2 control=64 value=0 time=0.02985073333333333
EXTRACT: note_on channel=2 note=33 velocity=86 time=0
EXTRACT: note_on channel=2 note=45 velocity=86 time=0
EXTRACT: note_on channel=2 note=57 velocity=86 time=0
EXTRACT: note_on channel=3 note=81 velocity=99 time=0
EXTRACT: note_on channel=2 note=61 velocity=84 time=0.16791037499999997
EXTRACT: control_change channel=2 control=64 value=127 time=0.12686561666666665
EXTRACT: note_on channel=2 note=69 velocity=87 time=0.09701488333333333
EXTRACT: note_on channel=2 note=61 velocity=0 time=0.03171640416666666
EXTRACT: note_on channel=2 note=57 velocity=0 time=0.09141787083333333
EXTRACT: note_on channel=3 note=81 velocity=0 time=0.09328354166666666
EXTRACT: note_on channel=2 note=61 velocity=87 time=0
EXTRACT: note_on channel=3 note=76 velocity=91 time=0
EXTRACT: note_on channel=2 note=69 velocity=0 time=0.020522379166666663
EXTRACT: note_on channel=3 note=76 velocity=0 time=0.16044769166666664
EXTRACT: note_on channel=2 note=61 velocity=0 time=0.027985062499999998
EXTRACT: note_on channel=2 note=57 velocity=85 time=0
EXTRACT: note_on channel=3 note=76 velocity=96 time=0
EXTRACT: note_on channel=2 note=61 velocity=86 time=0.22388049999999998
EXTRACT: note_on channel=2 note=61 velocity=0 time=0.22014915833333332
EXTRACT: note_on channel=2 note=69 velocity=81 time=0.0037313416666666663
EXTRACT: note_on channel=2 note=57 velocity=0 time=0.007462683333333333
EXTRACT: note_on channel=3 note=76 velocity=0 time=0.18097007083333333
EXTRACT: note_on channel=2 note=61 velocity=86 time=0
EXTRACT: note_on channel=3 note=76 velocity=95 time=0
EXTRACT: note_on channel=2 note=69 velocity=0 time=0.03171640416666666
EXTRACT: note_on channel=2 note=33 velocity=0 time=0.10634323749999999
EXTRACT: note_on channel=2 note=45 velocity=0 time=0.009328354166666665
EXTRACT: note_on channel=2 note=61 velocity=0 time=0.06343280833333333
EXTRACT: note_on channel=3 note=76 velocity=0 time=0.0055970125
EXTRACT: note_on channel=2 note=40 velocity=89 time=0
EXTRACT: note_on channel=2 note=47 velocity=89 time=0
EXTRACT: note_on channel=2 note=56 velocity=87 time=0
EXTRACT: note_on channel=3 note=78 velocity=97 time=0
EXTRACT: control_change channel=2 control=64 value=0 time=0.18656708333333333
EXTRACT: note_on channel=3 note=78 velocity=0 time=0.02985073333333333
EXTRACT: note_on channel=2 note=59 velocity=86 time=0
EXTRACT: note_on channel=3 note=76 velocity=97 time=0
EXTRACT: control_change channel=2 control=64 value=127 time=0.09888055416666666
EXTRACT: note_on channel=2 note=59 velocity=0 time=0.10261189583333333
EXTRACT: note_on channel=2 note=68 velocity=84 time=0.02238805
EXTRACT: note_on channel=2 note=56 velocity=0 time=0.09888055416666666
EXTRACT: note_on channel=3 note=76 velocity=0 time=0.0895522
EXTRACT: note_on channel=2 note=59 velocity=86 time=0
EXTRACT: note_on channel=3 note=76 velocity=92 time=0
EXTRACT: note_on channel=2 note=68 velocity=0 time=0.01865670833333333
EXTRACT: note_on channel=3 note=76 velocity=0 time=0.1641790333333333
EXTRACT: note_on channel=2 note=59 velocity=0 time=0.024253720833333332
EXTRACT: pitchwheel channel=3 pitch=-8192 time=0.007462683333333333
EXTRACT: note_on channel=2 note=56 velocity=85 time=0
EXTRACT: note_on channel=3 note=78 velocity=100 time=0
EXTRACT: note_on channel=2 note=59 velocity=86 time=0.22388049999999998
EXTRACT: pitchwheel channel=3 pitch=-8192 time=0.09888055416666666
EXTRACT: pitchwheel channel=3 pitch=-8192 time=0.0037313416666666663
EXTRACT: pitchwheel channel=3 pitch=-8042 time=0.0018656708333333332
EXTRACT: pitchwheel channel=3 pitch=-7892 time=0.0037313416666666663
EXTRACT: pitchwheel channel=3 pitch=-7892 time=0.0018656708333333332
EXTRACT: pitchwheel channel=3 pitch=-7742 time=0.0018656708333333332
EXTRACT: pitchwheel channel=3 pitch=-7591 time=0.0055970125
EXTRACT: pitchwheel channel=3 pitch=-7441 time=0.007462683333333333
EXTRACT: pitchwheel channel=3 pitch=-7441 time=0.0055970125
EXTRACT: pitchwheel channel=3 pitch=-7291 time=0
EXTRACT: pitchwheel channel=3 pitch=-7140 time=0.0037313416666666663
EXTRACT: pitchwheel channel=3 pitch=-6990 time=0.0037313416666666663
EXTRACT: pitchwheel channel=3 pitch=-6840 time=0.0037313416666666663
EXTRACT: pitchwheel channel=3 pitch=-6689 time=0.0037313416666666663
EXTRACT: pitchwheel channel=3 pitch=-6689 time=0.0018656708333333332
EXTRACT: pitchwheel channel=3 pitch=-6539 time=0.0018656708333333332
EXTRACT: pitchwheel channel=3 pitch=-6389 time=0.0018656708333333332
EXTRACT: pitchwheel channel=3 pitch=-6389 time=0.0037313416666666663
EXTRACT: pitchwheel channel=3 pitch=-6239 time=0.0018656708333333332
EXTRACT: pitchwheel channel=3 pitch=-6088 time=0.0018656708333333332
EXTRACT: pitchwheel channel=3 pitch=-5938 time=0.0037313416666666663
EXTRACT: pitchwheel channel=3 pitch=-5938 time=0
EXTRACT: pitchwheel channel=3 pitch=-5788 time=0.0018656708333333332
EXTRACT: pitchwheel channel=3 pitch=-5637 time=0.0037313416666666663
EXTRACT: pitchwheel channel=3 pitch=-5637 time=0.0018656708333333332
EXTRACT: pitchwheel channel=3 pitch=-5487 time=0.0018656708333333332
EXTRACT: pitchwheel channel=3 pitch=-5337 time=0.0018656708333333332
EXTRACT: pitchwheel channel=3 pitch=-5186 time=0.0037313416666666663
EXTRACT: pitchwheel channel=3 pitch=-5186 time=0.0018656708333333332
EXTRACT: note_on channel=2 note=56 velocity=0 time=0.0018656708333333332
EXTRACT: pitchwheel channel=3 pitch=-5036 time=0
EXTRACT: pitchwheel channel=3 pitch=-4886 time=0.0018656708333333332
EXTRACT: pitchwheel channel=3 pitch=-4736 time=0.0018656708333333332
EXTRACT: pitchwheel channel=3 pitch=-4585 time=0
EXTRACT: pitchwheel channel=3 pitch=-4435 time=0.0018656708333333332
EXTRACT: pitchwheel channel=3 pitch=-4285 time=0.0018656708333333332
EXTRACT: pitchwheel channel=3 pitch=-4285 time=0.0018656708333333332
EXTRACT: pitchwheel channel=3 pitch=-4134 time=0
EXTRACT: pitchwheel channel=3 pitch=-3984 time=0.0018656708333333332
EXTRACT: pitchwheel channel=3 pitch=-3834 time=0.0018656708333333332
EXTRACT: pitchwheel channel=3 pitch=-3834 time=0.0018656708333333332
EXTRACT: pitchwheel channel=3 pitch=-3683 time=0
EXTRACT: note_on channel=2 note=59 velocity=0 time=0.0018656708333333332
EXTRACT: pitchwheel channel=3 pitch=-3533 time=0
EXTRACT: pitchwheel channel=3 pitch=-3383 time=0.0018656708333333332
EXTRACT: pitchwheel channel=3 pitch=-3233 time=0.0018656708333333332
EXTRACT: pitchwheel channel=3 pitch=-3082 time=0
EXTRACT: pitchwheel channel=3 pitch=-2932 time=0.0018656708333333332
EXTRACT: pitchwheel channel=3 pitch=-2782 time=0.0018656708333333332
EXTRACT: pitchwheel channel=3 pitch=-2481 time=0.0018656708333333332
EXTRACT: pitchwheel channel=3 pitch=-2331 time=0
EXTRACT: pitchwheel channel=3 pitch=-1729 time=0.0018656708333333332
EXTRACT: pitchwheel channel=3 pitch=-1429 time=0.0037313416666666663
EXTRACT: pitchwheel channel=3 pitch=-1429 time=0.0018656708333333332
EXTRACT: pitchwheel channel=3 pitch=-1279 time=0.0018656708333333332
EXTRACT: pitchwheel channel=3 pitch=-1128 time=0.0018656708333333332
EXTRACT: pitchwheel channel=3 pitch=-828 time=0
EXTRACT: pitchwheel channel=3 pitch=-677 time=0.0018656708333333332
EXTRACT: pitchwheel channel=3 pitch=-527 time=0.0018656708333333332
EXTRACT: note_on channel=2 note=68 velocity=81 time=0.0018656708333333332
EXTRACT: pitchwheel channel=3 pitch=-377 time=0
EXTRACT: pitchwheel channel=3 pitch=-76 time=0
EXTRACT: pitchwheel channel=3 pitch=0 time=0.0018656708333333332
EXTRACT: note_on channel=3 note=78 velocity=0 time=0.18656708333333333
EXTRACT: note_on channel=2 note=68 velocity=0 time=0.0037313416666666663
EXTRACT: pitchwheel channel=3 pitch=-8192 time=0.02238805
EXTRACT: note_on channel=2 note=59 velocity=86 time=0
EXTRACT: note_on channel=3 note=78 velocity=100 time=0
EXTRACT: pitchwheel channel=3 pitch=-8058 time=0.009328354166666665
EXTRACT: pitchwheel channel=3 pitch=-7924 time=0.007462683333333333
EXTRACT: pitchwheel channel=3 pitch=-7790 time=0.0055970125
EXTRACT: pitchwheel channel=3 pitch=-7655 time=0.007462683333333333
EXTRACT: pitchwheel channel=3 pitch=-7521 time=0.0037313416666666663
EXTRACT: pitchwheel channel=3 pitch=-7387 time=0.0037313416666666663
EXTRACT: pitchwheel channel=3 pitch=-7252 time=0.0037313416666666663
EXTRACT: pitchwheel channel=3 pitch=-7118 time=0.0037313416666666663
EXTRACT: pitchwheel channel=3 pitch=-6984 time=0.0018656708333333332
EXTRACT: pitchwheel channel=3 pitch=-6850 time=0.0037313416666666663
EXTRACT: pitchwheel channel=3 pitch=-6715 time=0.0018656708333333332
EXTRACT: pitchwheel channel=3 pitch=-6581 time=0.0037313416666666663
EXTRACT: pitchwheel channel=3 pitch=-6447 time=0.0037313416666666663
EXTRACT: pitchwheel channel=3 pitch=-6312 time=0.0018656708333333332
EXTRACT: pitchwheel channel=3 pitch=-6178 time=0.0018656708333333332
EXTRACT: pitchwheel channel=3 pitch=-6044 time=0.0018656708333333332
EXTRACT: pitchwheel channel=3 pitch=-5910 time=0.0018656708333333332
EXTRACT: pitchwheel channel=3 pitch=-5775 time=0.0037313416666666663
EXTRACT: pitchwheel channel=3 pitch=-5641 time=0.0018656708333333332
EXTRACT: pitchwheel channel=3 pitch=-5507 time=0.0018656708333333332
EXTRACT: pitchwheel channel=3 pitch=-5372 time=0.0018656708333333332
EXTRACT: pitchwheel channel=3 pitch=-5238 time=0.0037313416666666663
EXTRACT: pitchwheel channel=3 pitch=-5104 time=0
EXTRACT: pitchwheel channel=3 pitch=-4970 time=0.0018656708333333332
EXTRACT: pitchwheel channel=3 pitch=-4835 time=0.0018656708333333332
EXTRACT: pitchwheel channel=3 pitch=-4701 time=0.0037313416666666663
EXTRACT: pitchwheel channel=3 pitch=-4567 time=0
EXTRACT: pitchwheel channel=3 pitch=-4432 time=0.0018656708333333332
EXTRACT: pitchwheel channel=3 pitch=-4298 time=0.0018656708333333332
EXTRACT: pitchwheel channel=3 pitch=-4164 time=0.0037313416666666663
EXTRACT: pitchwheel channel=3 pitch=-4030 time=0
EXTRACT: pitchwheel channel=3 pitch=-3895 time=0.0018656708333333332
EXTRACT: pitchwheel channel=3 pitch=-3761 time=0.0018656708333333332
EXTRACT: pitchwheel channel=3 pitch=-3627 time=0.0018656708333333332
EXTRACT: pitchwheel channel=3 pitch=-3492 time=0.0018656708333333332
EXTRACT: pitchwheel channel=3 pitch=-3358 time=0
EXTRACT: pitchwheel channel=3 pitch=-3224 time=0.0018656708333333332
EXTRACT: pitchwheel channel=3 pitch=-3090 time=0.0018656708333333332
EXTRACT: pitchwheel channel=3 pitch=-2955 time=0.0018656708333333332
EXTRACT: pitchwheel channel=3 pitch=-2821 time=0
EXTRACT: pitchwheel channel=3 pitch=-2687 time=0.0018656708333333332
EXTRACT: pitchwheel channel=3 pitch=-2552 time=0.0018656708333333332
EXTRACT: pitchwheel channel=3 pitch=-2418 time=0.0018656708333333332
EXTRACT: pitchwheel channel=3 pitch=-2284 time=0.0018656708333333332
EXTRACT: pitchwheel channel=3 pitch=-2150 time=0
EXTRACT: pitchwheel channel=3 pitch=-2015 time=0.0018656708333333332
EXTRACT: pitchwheel channel=3 pitch=-1881 time=0.0018656708333333332
EXTRACT: pitchwheel channel=3 pitch=-1747 time=0.0018656708333333332
EXTRACT: pitchwheel channel=3 pitch=-1612 time=0.0018656708333333332
EXTRACT: pitchwheel channel=3 pitch=-1344 time=0
EXTRACT: pitchwheel channel=3 pitch=-1210 time=0.0018656708333333332
EXTRACT: pitchwheel channel=3 pitch=-1075 time=0.0018656708333333332
EXTRACT: pitchwheel channel=3 pitch=-941 time=0.0018656708333333332
EXTRACT: pitchwheel channel=3 pitch=-807 time=0.0018656708333333332
EXTRACT: pitchwheel channel=3 pitch=-672 time=0
EXTRACT: pitchwheel channel=3 pitch=-404 time=0.0018656708333333332
EXTRACT: pitchwheel channel=3 pitch=-270 time=0.0018656708333333332
EXTRACT: pitchwheel channel=3 pitch=-135 time=0.0018656708333333332
EXTRACT: pitchwheel channel=3 pitch=-1 time=0.0018656708333333332
EXTRACT: note_on channel=2 note=47 velocity=0 time=0.009328354166666665
EXTRACT: note_on channel=2 note=40 velocity=0 time=0
EXTRACT: note_on channel=2 note=59 velocity=0 time=0.0055970125
EXTRACT: note_on channel=2 note=42 velocity=86 time=0.07089549166666666
EXTRACT: note_on channel=2 note=49 velocity=88 time=0
EXTRACT: note_on channel=2 note=57 velocity=86 time=0
EXTRACT: control_change channel=2 control=64 value=0 time=0.08768652916666665
EXTRACT: note_on channel=3 note=78 velocity=0 time=0.100746225
EXTRACT: pitchwheel channel=3 pitch=-8192 time=0.024253720833333332
EXTRACT: pitchwheel channel=3 pitch=-8058 time=0.0018656708333333332
EXTRACT: note_on channel=2 note=61 velocity=84 time=0
EXTRACT: note_on channel=3 note=78 velocity=100 time=0
EXTRACT: pitchwheel channel=3 pitch=-7924 time=0.01865670833333333
EXTRACT: pitchwheel channel=3 pitch=-7790 time=0.011194025
EXTRACT: pitchwheel channel=3 pitch=-7655 time=0.009328354166666665
EXTRACT: pitchwheel channel=3 pitch=-7521 time=0.007462683333333333
EXTRACT: pitchwheel channel=3 pitch=-7387 time=0.007462683333333333
EXTRACT: pitchwheel channel=3 pitch=-7252 time=0.0055970125
EXTRACT: pitchwheel channel=3 pitch=-7118 time=0.0055970125
EXTRACT: pitchwheel channel=3 pitch=-6984 time=0.0055970125
EXTRACT: control_change channel=2 control=64 value=127 time=0.0037313416666666663
EXTRACT: pitchwheel channel=3 pitch=-6850 time=0.0018656708333333332
EXTRACT: pitchwheel channel=3 pitch=-6715 time=0.0055970125
EXTRACT: pitchwheel channel=3 pitch=-6581 time=0.0018656708333333332
EXTRACT: pitchwheel channel=3 pitch=-6447 time=0.0037313416666666663
EXTRACT: pitchwheel channel=3 pitch=-6312 time=0.0055970125
EXTRACT: pitchwheel channel=3 pitch=-6178 time=0.0037313416666666663
EXTRACT: pitchwheel channel=3 pitch=-6044 time=0.0037313416666666663
EXTRACT: pitchwheel channel=3 pitch=-5910 time=0.0037313416666666663
EXTRACT: pitchwheel channel=3 pitch=-5775 time=0.0037313416666666663
EXTRACT: pitchwheel channel=3 pitch=-5641 time=0.0037313416666666663
EXTRACT: pitchwheel channel=3 pitch=-5507 time=0.0037313416666666663
EXTRACT: pitchwheel channel=3 pitch=-5372 time=0.0037313416666666663
EXTRACT: pitchwheel channel=3 pitch=-5238 time=0.0018656708333333332
EXTRACT: pitchwheel channel=3 pitch=-5104 time=0.0018656708333333332
EXTRACT: pitchwheel channel=3 pitch=-4970 time=0.0037313416666666663
EXTRACT: pitchwheel channel=3 pitch=-4835 time=0.0037313416666666663
EXTRACT: pitchwheel channel=3 pitch=-4701 time=0.0018656708333333332
EXTRACT: pitchwheel channel=3 pitch=-4567 time=0.0037313416666666663
EXTRACT: pitchwheel channel=3 pitch=-4432 time=0.0018656708333333332
EXTRACT: pitchwheel channel=3 pitch=-4298 time=0.0037313416666666663
EXTRACT: pitchwheel channel=3 pitch=-4164 time=0.0018656708333333332
EXTRACT: pitchwheel channel=3 pitch=-4030 time=0.0037313416666666663
EXTRACT: pitchwheel channel=3 pitch=-3895 time=0.0018656708333333332
EXTRACT: pitchwheel channel=3 pitch=-3761 time=0.0037313416666666663
EXTRACT: pitchwheel channel=3 pitch=-3627 time=0.0018656708333333332
EXTRACT: pitchwheel channel=3 pitch=-3492 time=0.0037313416666666663
EXTRACT: pitchwheel channel=3 pitch=-3358 time=0
EXTRACT: pitchwheel channel=3 pitch=-3224 time=0.0018656708333333332
EXTRACT: pitchwheel channel=3 pitch=-3090 time=0.0037313416666666663
EXTRACT: pitchwheel channel=3 pitch=-2955 time=0.0018656708333333332
EXTRACT: pitchwheel channel=3 pitch=-2821 time=0.0018656708333333332
EXTRACT: pitchwheel channel=3 pitch=-2687 time=0.0037313416666666663
EXTRACT: pitchwheel channel=3 pitch=-2552 time=0.0018656708333333332
EXTRACT: pitchwheel channel=3 pitch=-2418 time=0.0018656708333333332
EXTRACT: pitchwheel channel=3 pitch=-2284 time=0.0018656708333333332
EXTRACT: pitchwheel channel=3 pitch=-2150 time=0.0018656708333333332
EXTRACT: pitchwheel channel=3 pitch=-2015 time=0.0037313416666666663
EXTRACT: pitchwheel channel=3 pitch=-1881 time=0.0018656708333333332
EXTRACT: pitchwheel channel=3 pitch=-1747 time=0.0018656708333333332
EXTRACT: pitchwheel channel=3 pitch=-1612 time=0.0018656708333333332
EXTRACT: pitchwheel channel=3 pitch=-1478 time=0.0018656708333333332
EXTRACT: pitchwheel channel=3 pitch=-1344 time=0.0037313416666666663
EXTRACT: pitchwheel channel=3 pitch=-1210 time=0.0018656708333333332
EXTRACT: pitchwheel channel=3 pitch=-1075 time=0
EXTRACT: pitchwheel channel=3 pitch=-941 time=0.0018656708333333332
EXTRACT: pitchwheel channel=3 pitch=-807 time=0.0018656708333333332
EXTRACT: pitchwheel channel=3 pitch=-672 time=0.0018656708333333332
EXTRACT: pitchwheel channel=3 pitch=-538 time=0.0018656708333333332
EXTRACT: pitchwheel channel=3 pitch=-404 time=0.0018656708333333332
EXTRACT: pitchwheel channel=3 pitch=-270 time=0.0018656708333333332
EXTRACT: pitchwheel channel=3 pitch=-135 time=0.0018656708333333332
EXTRACT: pitchwheel channel=3 pitch=-1 time=0.0018656708333333332
EXTRACT: pitchwheel channel=3 pitch=0 time=0.0018656708333333332
EXTRACT: note_on channel=2 note=61 velocity=0 time=0.011194025
EXTRACT: note_on channel=2 note=66 velocity=85 time=0
EXTRACT: note_on channel=2 note=61 velocity=85 time=0.22388049999999998
EXTRACT: note_on channel=2 note=66 velocity=0 time=0.011194025
EXTRACT: note_on channel=2 note=57 velocity=0 time=0
EXTRACT: note_on channel=2 note=61 velocity=0 time=0.19962677916666666
EXTRACT: note_on channel=2 note=57 velocity=85 time=0.013059695833333333
EXTRACT: note_on channel=2 note=61 velocity=85 time=0.22388049999999998
EXTRACT: note_on channel=2 note=61 velocity=0 time=0.19216409583333333
EXTRACT: note_on channel=2 note=66 velocity=85 time=0.03171640416666666
EXTRACT: note_on channel=2 note=57 velocity=0 time=0.04664177083333333
EXTRACT: note_on channel=2 note=61 velocity=85 time=0.17723872916666664
EXTRACT: note_on channel=2 note=66 velocity=0 time=0.0037313416666666663
EXTRACT: note_on channel=3 note=78 velocity=0 time=0.18097007083333333
EXTRACT: note_on channel=2 note=61 velocity=0 time=0.016791037499999998
EXTRACT: pitchwheel channel=3 pitch=-3834 time=0.0055970125
EXTRACT: pitchwheel channel=3 pitch=-3683 time=0.0037313416666666663
EXTRACT: note_on channel=2 note=49 velocity=0 time=0.0055970125
EXTRACT: note_on channel=2 note=42 velocity=0 time=0
EXTRACT: note_on channel=2 note=38 velocity=85 time=0.007462683333333333
EXTRACT: note_on channel=2 note=45 velocity=85 time=0
EXTRACT: note_on channel=2 note=57 velocity=85 time=0
EXTRACT: note_on channel=3 note=81 velocity=100 time=0
EXTRACT: pitchwheel channel=3 pitch=-3533 time=0.027985062499999998
EXTRACT: pitchwheel channel=3 pitch=-3383 time=0.020522379166666663
EXTRACT: pitchwheel channel=3 pitch=-3233 time=0.013059695833333333
EXTRACT: pitchwheel channel=3 pitch=-3082 time=0.011194025
EXTRACT: pitchwheel channel=3 pitch=-2932 time=0.011194025
EXTRACT: pitchwheel channel=3 pitch=-2782 time=0.009328354166666665
EXTRACT: pitchwheel channel=3 pitch=-2631 time=0.007462683333333333
EXTRACT: control_change channel=2 control=64 value=0 time=0.007462683333333333
EXTRACT: pitchwheel channel=3 pitch=-2481 time=0.0037313416666666663
EXTRACT: pitchwheel channel=3 pitch=-2331 time=0.0055970125
EXTRACT: pitchwheel channel=3 pitch=-2180 time=0.007462683333333333
EXTRACT: pitchwheel channel=3 pitch=-2030 time=0.007462683333333333
EXTRACT: pitchwheel channel=3 pitch=-1880 time=0.0055970125
EXTRACT: pitchwheel channel=3 pitch=-1729 time=0.0037313416666666663
EXTRACT: pitchwheel channel=3 pitch=-1579 time=0.007462683333333333
EXTRACT: pitchwheel channel=3 pitch=-1429 time=0.007462683333333333
EXTRACT: pitchwheel channel=3 pitch=-1279 time=0.0037313416666666663
EXTRACT: pitchwheel channel=3 pitch=-1128 time=0.0055970125
EXTRACT: pitchwheel channel=3 pitch=-978 time=0.007462683333333333
EXTRACT: pitchwheel channel=3 pitch=-828 time=0.0037313416666666663
EXTRACT: pitchwheel channel=3 pitch=-677 time=0.007462683333333333
EXTRACT: pitchwheel channel=3 pitch=-527 time=0.0018656708333333332
EXTRACT: pitchwheel channel=3 pitch=-377 time=0.0037313416666666663
EXTRACT: pitchwheel channel=3 pitch=-226 time=0.007462683333333333
EXTRACT: pitchwheel channel=3 pitch=-76 time=0.0037313416666666663
EXTRACT: pitchwheel channel=3 pitch=0 time=0.0037313416666666663
EXTRACT: note_on channel=2 note=62 velocity=85 time=0.01865670833333333
EXTRACT: control_change channel=2 control=64 value=127 time=0.0018656708333333332
EXTRACT: note_on channel=2 note=62 velocity=0 time=0.1958954375
EXTRACT: note_on channel=2 note=66 velocity=85 time=0.026119391666666665
EXTRACT: note_on channel=2 note=57 velocity=0 time=0.08395518749999999
EXTRACT: note_on channel=2 note=62 velocity=85 time=0.13992531249999998
EXTRACT: note_on channel=2 note=66 velocity=0 time=0.03171640416666666
EXTRACT: note_on channel=3 note=81 velocity=0 time=0.1529850083333333
EXTRACT: note_on channel=2 note=62 velocity=0 time=0.0055970125
EXTRACT: note_on channel=2 note=57 velocity=85 time=0
EXTRACT: note_on channel=3 note=81 velocity=95 time=0
EXTRACT: note_on channel=3 note=81 velocity=0 time=0.19216409583333333
EXTRACT: note_on channel=2 note=62 velocity=85 time=0
EXTRACT: note_on channel=3 note=81 velocity=92 time=0
EXTRACT: note_on channel=2 note=62 velocity=0 time=0.1753730583333333
EXTRACT: note_on channel=2 note=66 velocity=85 time=0.048507441666666665
EXTRACT: note_on channel=2 note=57 velocity=0 time=0.14925366666666665
EXTRACT: note_on channel=3 note=81 velocity=0 time=0.0447761
EXTRACT: note_on channel=2 note=62 velocity=83 time=0
EXTRACT: note_on channel=3 note=81 velocity=88 time=0
EXTRACT: note_on channel=2 note=66 velocity=0 time=0.016791037499999998
EXTRACT: note_on channel=2 note=38 velocity=0 time=0.09141787083333333
EXTRACT: note_on channel=2 note=45 velocity=0 time=0.05783579583333333
EXTRACT: note_on channel=2 note=62 velocity=0 time=0.01865670833333333
EXTRACT: note_on channel=3 note=81 velocity=0 time=0.0037313416666666663
EXTRACT: control_change channel=2 control=64 value=0 time=0.02985073333333333
EXTRACT: note_on channel=2 note=33 velocity=83 time=0
EXTRACT: note_on channel=2 note=45 velocity=83 time=0
EXTRACT: note_on channel=2 note=52 velocity=83 time=0
EXTRACT: note_on channel=3 note=81 velocity=95 time=0
EXTRACT: note_on channel=2 note=57 velocity=83 time=0.22388049999999998
EXTRACT: control_change channel=2 control=64 value=127 time=0.12686561666666665
EXTRACT: note_on channel=2 note=61 velocity=83 time=0.09701488333333333
EXTRACT: note_on channel=2 note=57 velocity=0 time=0.03171640416666666
EXTRACT: note_on channel=2 note=52 velocity=0 time=0.09141787083333333
EXTRACT: note_on channel=3 note=81 velocity=0 time=0.09328354166666666
EXTRACT: note_on channel=2 note=57 velocity=83 time=0
EXTRACT: note_on channel=3 note=76 velocity=86 time=0
EXTRACT: note_on channel=2 note=61 velocity=0 time=0.020522379166666663
EXTRACT: note_on channel=3 note=76 velocity=0 time=0.16044769166666664
EXTRACT: note_on channel=2 note=57 velocity=0 time=0.027985062499999998
EXTRACT: note_on channel=2 note=52 velocity=80 time=0
EXTRACT: note_on channel=3 note=76 velocity=91 time=0
EXTRACT: note_on channel=2 note=57 velocity=80 time=0.22388049999999998
EXTRACT: note_on channel=2 note=57 velocity=0 time=0.22014915833333332
EXTRACT: note_on channel=2 note=61 velocity=80 time=0.0037313416666666663
EXTRACT: note_on channel=2 note=52 velocity=0 time=0.007462683333333333
EXTRACT: note_on channel=3 note=76 velocity=0 time=0.18097007083333333
EXTRACT: note_on channel=2 note=57 velocity=79 time=0
EXTRACT: note_on channel=3 note=76 velocity=86 time=0
EXTRACT: note_on channel=2 note=61 velocity=0 time=0.03171640416666666
EXTRACT: note_on channel=2 note=33 velocity=0 time=0.10634323749999999
EXTRACT: note_on channel=2 note=45 velocity=0 time=0.009328354166666665
EXTRACT: note_on channel=3 note=76 velocity=0 time=0.033582074999999996
EXTRACT: note_on channel=2 note=57 velocity=0 time=0.02985073333333333
EXTRACT: note_on channel=2 note=40 velocity=79 time=0
EXTRACT: note_on channel=2 note=47 velocity=79 time=0
EXTRACT: note_on channel=2 note=52 velocity=79 time=0
EXTRACT: note_on channel=3 note=78 velocity=91 time=0
EXTRACT: control_change channel=2 control=64 value=0 time=0.18656708333333333
EXTRACT: note_on channel=3 note=78 velocity=0 time=0.02985073333333333
EXTRACT: note_on channel=2 note=56 velocity=79 time=0
EXTRACT: note_on channel=3 note=76 velocity=92 time=0
EXTRACT: control_change channel=2 control=64 value=127 time=0.09888055416666666
EXTRACT: note_on channel=2 note=56 velocity=0 time=0.10261189583333333
EXTRACT: note_on channel=2 note=59 velocity=79 time=0.02238805
EXTRACT: note_on channel=2 note=52 velocity=0 time=0.09888055416666666
EXTRACT: note_on channel=2 note=56 velocity=79 time=0.12499994583333332
EXTRACT: note_on channel=2 note=59 velocity=0 time=0.01865670833333333
EXTRACT: note_on channel=2 note=56 velocity=0 time=0.10820890833333333
EXTRACT: note_on channel=2 note=52 velocity=79 time=0.016791037499999998
EXTRACT: note_on channel=3 note=76 velocity=0 time=0.0018656708333333332
EXTRACT: pitchwheel channel=3 pitch=5034 time=0.21641781666666665
EXTRACT: pitchwheel channel=3 pitch=5034 time=0.0037313416666666663
EXTRACT: note_on channel=2 note=56 velocity=79 time=0
EXTRACT: note_on channel=3 note=71 velocity=93 time=0
EXTRACT: pitchwheel channel=3 pitch=5034 time=0.0037313416666666663
EXTRACT: pitchwheel channel=3 pitch=5034 time=0.011194025
EXTRACT: pitchwheel channel=3 pitch=5034 time=0.013059695833333333
EXTRACT: pitchwheel channel=3 pitch=5034 time=0.0037313416666666663
EXTRACT: pitchwheel channel=3 pitch=5034 time=0.0037313416666666663
EXTRACT: pitchwheel channel=3 pitch=5034 time=0.009328354166666665
EXTRACT: pitchwheel channel=3 pitch=4884 time=0.016791037499999998
EXTRACT: pitchwheel channel=3 pitch=4734 time=0.011194025
EXTRACT: pitchwheel channel=3 pitch=4283 time=0.013059695833333333
EXTRACT: pitchwheel channel=3 pitch=4283 time=0.009328354166666665
EXTRACT: pitchwheel channel=3 pitch=4132 time=0.007462683333333333
EXTRACT: pitchwheel channel=3 pitch=3832 time=0.0037313416666666663
EXTRACT: pitchwheel channel=3 pitch=3681 time=0.0055970125
EXTRACT: pitchwheel channel=3 pitch=3681 time=0.0037313416666666663
EXTRACT: pitchwheel channel=3 pitch=3531 time=0.007462683333333333
EXTRACT: pitchwheel channel=3 pitch=3381 time=0.0037313416666666663
EXTRACT: pitchwheel channel=3 pitch=2780 time=0.0055970125
EXTRACT: pitchwheel channel=3 pitch=2479 time=0.007462683333333333
EXTRACT: pitchwheel channel=3 pitch=2329 time=0.009328354166666665
EXTRACT: pitchwheel channel=3 pitch=2178 time=0.0037313416666666663
EXTRACT: pitchwheel channel=3 pitch=1878 time=0.007462683333333333
EXTRACT: pitchwheel channel=3 pitch=1727 time=0.0055970125
EXTRACT: pitchwheel channel=3 pitch=1427 time=0.0037313416666666663
EXTRACT: pitchwheel channel=3 pitch=1277 time=0.0037313416666666663
EXTRACT: pitchwheel channel=3 pitch=1126 time=0.0037313416666666663
EXTRACT: note_on channel=2 note=52 velocity=0 time=0.0037313416666666663
EXTRACT: pitchwheel channel=3 pitch=826 time=0
EXTRACT: pitchwheel channel=3 pitch=375 time=0.0055970125
EXTRACT: pitchwheel channel=3 pitch=224 time=0.0037313416666666663
EXTRACT: note_on channel=2 note=56 velocity=0 time=0.007462683333333333
EXTRACT: note_on channel=2 note=59 velocity=79 time=0.026119391666666665
EXTRACT: note_on channel=3 note=71 velocity=0 time=0.190298425
EXTRACT: note_on channel=2 note=59 velocity=0 time=0.0018656708333333332
EXTRACT: note_on channel=2 note=56 velocity=79 time=0
EXTRACT: note_on channel=3 note=69 velocity=92 time=0
EXTRACT: note_on channel=2 note=47 velocity=0 time=0.1473879958333333
EXTRACT: note_on channel=2 note=40 velocity=0 time=0
EXTRACT: note_on channel=2 note=56 velocity=0 time=0.0055970125
EXTRACT: note_on channel=2 note=42 velocity=78 time=0.07089549166666666
EXTRACT: note_on channel=2 note=49 velocity=78 time=0
EXTRACT: note_on channel=2 note=54 velocity=78 time=0
EXTRACT: control_change channel=2 control=64 value=0 time=0.08768652916666665
EXTRACT: note_on channel=3 note=69 velocity=0 time=0.100746225
EXTRACT: note_on channel=2 note=57 velocity=76 time=0
EXTRACT: note_on channel=3 note=69 velocity=89 time=0
EXTRACT: control_change channel=2 control=64 value=127 time=0.07462683333333332
EXTRACT: note_on channel=2 note=57 velocity=0 time=0.14925366666666665
EXTRACT: note_on channel=2 note=61 velocity=76 time=0
EXTRACT: note_on channel=2 note=57 velocity=76 time=0.22388049999999998
EXTRACT: note_on channel=2 note=61 velocity=0 time=0.011194025
EXTRACT: note_on channel=2 note=54 velocity=0 time=0
EXTRACT: note_on channel=2 note=57 velocity=0 time=0.19962677916666666
EXTRACT: note_on channel=2 note=54 velocity=76 time=0.013059695833333333
EXTRACT: note_on channel=2 note=57 velocity=75 time=0.22388049999999998
EXTRACT: note_on channel=2 note=57 velocity=0 time=0.19216409583333333
EXTRACT: note_on channel=2 note=61 velocity=75 time=0.03171640416666666
EXTRACT: note_on channel=2 note=54 velocity=0 time=0.04664177083333333
EXTRACT: note_on channel=2 note=57 velocity=75 time=0.17723872916666664
EXTRACT: note_on channel=2 note=61 velocity=0 time=0.0037313416666666663
EXTRACT: note_on channel=3 note=69 velocity=0 time=0.17723872916666664
EXTRACT: note_on channel=2 note=57 velocity=0 time=0.020522379166666663
EXTRACT: pitchwheel channel=3 pitch=-8042 time=0.009328354166666665
EXTRACT: note_on channel=2 note=49 velocity=0 time=0.0055970125
EXTRACT: note_on channel=2 note=42 velocity=0 time=0
EXTRACT: note_on channel=2 note=38 velocity=75 time=0
EXTRACT: note_on channel=2 note=45 velocity=75 time=0
EXTRACT: note_on channel=2 note=50 velocity=75 time=0
EXTRACT: note_on channel=3 note=73 velocity=81 time=0
EXTRACT: control_change channel=2 control=64 value=0 time=0.10820890833333333
EXTRACT: pitchwheel channel=3 pitch=-7742 time=0.0018656708333333332
EXTRACT: pitchwheel channel=3 pitch=-7742 time=0.0037313416666666663
EXTRACT: pitchwheel channel=3 pitch=-7742 time=0.0037313416666666663
EXTRACT: pitchwheel channel=3 pitch=-7742 time=0.0018656708333333332
EXTRACT: pitchwheel channel=3 pitch=-7591 time=0.0037313416666666663
EXTRACT: pitchwheel channel=3 pitch=-7591 time=0.007462683333333333
EXTRACT: pitchwheel channel=3 pitch=-7441 time=0.0018656708333333332
EXTRACT: pitchwheel channel=3 pitch=-7291 time=0.007462683333333333
EXTRACT: pitchwheel channel=3 pitch=-7291 time=0.0037313416666666663
EXTRACT: pitchwheel channel=3 pitch=-7140 time=0.0018656708333333332
EXTRACT: pitchwheel channel=3 pitch=-6990 time=0.009328354166666665
EXTRACT: pitchwheel channel=3 pitch=-6840 time=0.011194025
EXTRACT: pitchwheel channel=3 pitch=-6840 time=0.0055970125
EXTRACT: pitchwheel channel=3 pitch=-6689 time=0.0037313416666666663
EXTRACT: pitchwheel channel=3 pitch=-6539 time=0.0037313416666666663
EXTRACT: pitchwheel channel=3 pitch=-6389 time=0.0055970125
EXTRACT: pitchwheel channel=3 pitch=-6389 time=0.0037313416666666663
EXTRACT: pitchwheel channel=3 pitch=-6239 time=0.0037313416666666663
EXTRACT: pitchwheel channel=3 pitch=-6088 time=0.0055970125
EXTRACT: pitchwheel channel=3 pitch=-5938 time=0.0055970125
EXTRACT: pitchwheel channel=3 pitch=-5938 time=0.007462683333333333
EXTRACT: pitchwheel channel=3 pitch=-5788 time=0.0037313416666666663
EXTRACT: pitchwheel channel=3 pitch=-5637 time=0.0018656708333333332
EXTRACT: pitchwheel channel=3 pitch=-5487 time=0.0037313416666666663
EXTRACT: note_on channel=2 note=54 velocity=75 time=0.0037313416666666663
EXTRACT: pitchwheel channel=3 pitch=-5337 time=0
EXTRACT: control_change channel=2 control=64 value=127 time=0.0018656708333333332
EXTRACT: pitchwheel channel=3 pitch=-5036 time=0.0018656708333333332
EXTRACT: pitchwheel channel=3 pitch=-5036 time=0.0055970125
EXTRACT: pitchwheel channel=3 pitch=-4886 time=0.0037313416666666663
EXTRACT: pitchwheel channel=3 pitch=-4736 time=0.0037313416666666663
EXTRACT: pitchwheel channel=3 pitch=-4585 time=0.0018656708333333332
EXTRACT: pitchwheel channel=3 pitch=-4435 time=0.0037313416666666663
EXTRACT: pitchwheel channel=3 pitch=-4134 time=0.0037313416666666663
EXTRACT: pitchwheel channel=3 pitch=-3533 time=0.0055970125
EXTRACT: pitchwheel channel=3 pitch=-3233 time=0.007462683333333333
EXTRACT: pitchwheel channel=3 pitch=-2782 time=0.0018656708333333332
EXTRACT: pitchwheel channel=3 pitch=-2331 time=0.007462683333333333
EXTRACT: pitchwheel channel=3 pitch=-1880 time=0.0055970125
EXTRACT: pitchwheel channel=3 pitch=-1429 time=0.0037313416666666663
EXTRACT: pitchwheel channel=3 pitch=-1429 time=0.007462683333333333
EXTRACT: pitchwheel channel=3 pitch=-1128 time=0.0018656708333333332
EXTRACT: pitchwheel channel=3 pitch=-828 time=0.0037313416666666663
EXTRACT: pitchwheel channel=3 pitch=-527 time=0.0037313416666666663
EXTRACT: pitchwheel channel=3 pitch=-377 time=0.0037313416666666663
EXTRACT: pitchwheel channel=3 pitch=0 time=0.0018656708333333332
EXTRACT: pitchwheel channel=3 pitch=0 time=0.0037313416666666663
EXTRACT: note_on channel=2 note=54 velocity=0 time=0.11380592083333332
EXTRACT: note_on channel=2 note=57 velocity=75 time=0.026119391666666665
EXTRACT: note_on channel=2 note=50 velocity=0 time=0.08395518749999999
EXTRACT: note_on channel=2 note=54 velocity=75 time=0.13992531249999998
EXTRACT: note_on channel=2 note=57 velocity=0 time=0.03171640416666666
EXTRACT: note_on channel=2 note=54 velocity=0 time=0.1585820208333333
EXTRACT: note_on channel=2 note=50 velocity=75 time=0.033582074999999996
EXTRACT: note_on channel=3 note=73 velocity=0 time=0.21082080416666665
EXTRACT: note_on channel=2 note=54 velocity=74 time=0
EXTRACT: note_on channel=3 note=71 velocity=81 time=0
EXTRACT: note_on channel=2 note=54 velocity=0 time=0.1753730583333333
EXTRACT: note_on channel=3 note=71 velocity=0 time=0.04104475833333333
EXTRACT: note_on channel=2 note=57 velocity=74 time=0.007462683333333333
EXTRACT: note_on channel=3 note=69 velocity=81 time=0
EXTRACT: note_on channel=2 note=50 velocity=0 time=0.14925366666666665
EXTRACT: note_on channel=2 note=54 velocity=74 time=0.07462683333333332
EXTRACT: note_on channel=2 note=57 velocity=0 time=0.016791037499999998
EXTRACT: note_on channel=2 note=54 velocity=0 time=0.16791037499999997
EXTRACT: note_on channel=2 note=50 velocity=74 time=0.039179087499999994
EXTRACT: note_on channel=2 note=54 velocity=74 time=0.22388049999999998
EXTRACT: note_on channel=2 note=54 velocity=0 time=0.19776110833333332
EXTRACT: note_on channel=2 note=57 velocity=74 time=0.026119391666666665
EXTRACT: note_on channel=2 note=50 velocity=0 time=0.08395518749999999
EXTRACT: note_on channel=2 note=54 velocity=73 time=0.13992531249999998
EXTRACT: note_on channel=2 note=57 velocity=0 time=0.03171640416666666
EXTRACT: note_on channel=2 note=54 velocity=0 time=0.1585820208333333
EXTRACT: note_on channel=3 note=69 velocity=0 time=0.027985062499999998
EXTRACT: note_on channel=2 note=50 velocity=73 time=0.0055970125
EXTRACT: note_on channel=2 note=54 velocity=73 time=0.22388049999999998
EXTRACT: note_on channel=2 note=54 velocity=0 time=0.1753730583333333
EXTRACT: note_on channel=2 note=57 velocity=72 time=0.048507441666666665
EXTRACT: note_on channel=2 note=50 velocity=0 time=0.14925366666666665
EXTRACT: note_on channel=2 note=54 velocity=72 time=0.07462683333333332
EXTRACT: note_on channel=2 note=57 velocity=0 time=0.016791037499999998
EXTRACT: note_on channel=2 note=54 velocity=0 time=0.16791037499999997
EXTRACT: control_change channel=2 control=64 value=0 time=0.033582074999999996
EXTRACT: note_on channel=2 note=50 velocity=72 time=0.0055970125
EXTRACT: control_change channel=2 control=64 value=0 time=0.10820890833333333
EXTRACT: note_on channel=2 note=56 velocity=72 time=0.11567159166666666
EXTRACT: control_change channel=2 control=64 value=127 time=0.0018656708333333332
EXTRACT: note_on channel=2 note=56 velocity=0 time=0.1958954375
EXTRACT: note_on channel=2 note=59 velocity=72 time=0.026119391666666665
EXTRACT: note_on channel=2 note=50 velocity=0 time=0.08395518749999999
EXTRACT: note_on channel=2 note=56 velocity=72 time=0.13992531249999998
EXTRACT: note_on channel=2 note=59 velocity=0 time=0.03171640416666666
EXTRACT: note_on channel=2 note=56 velocity=0 time=0.1585820208333333
EXTRACT: note_on channel=2 note=50 velocity=72 time=0.033582074999999996
EXTRACT: note_on channel=2 note=56 velocity=72 time=0.22388049999999998
EXTRACT: note_on channel=2 note=56 velocity=0 time=0.1753730583333333
EXTRACT: note_on channel=2 note=59 velocity=72 time=0.048507441666666665
EXTRACT: note_on channel=2 note=50 velocity=0 time=0.14925366666666665
EXTRACT: note_on channel=2 note=56 velocity=72 time=0.07462683333333332
EXTRACT: note_on channel=2 note=59 velocity=0 time=0.016791037499999998
EXTRACT: note_on channel=2 note=56 velocity=0 time=0.16791037499999997
EXTRACT: note_on channel=2 note=50 velocity=72 time=0.039179087499999994
EXTRACT: control_change channel=2 control=64 value=0 time=0.08022384583333332
EXTRACT: control_change channel=2 control=64 value=127 time=0.08768652916666665
EXTRACT: note_on channel=2 note=57 velocity=71 time=0.055970124999999996
EXTRACT: note_on channel=2 note=57 velocity=0 time=0.19776110833333332
EXTRACT: note_on channel=2 note=61 velocity=71 time=0.026119391666666665
EXTRACT: note_on channel=2 note=50 velocity=0 time=0.08395518749999999
EXTRACT: note_on channel=2 note=57 velocity=69 time=0.13992531249999998
EXTRACT: note_on channel=2 note=61 velocity=0 time=0.03171640416666666
EXTRACT: note_on channel=2 note=57 velocity=0 time=0.1585820208333333
EXTRACT: note_on channel=2 note=50 velocity=69 time=0.033582074999999996
EXTRACT: note_on channel=2 note=57 velocity=68 time=0.22388049999999998
EXTRACT: note_on channel=2 note=57 velocity=0 time=0.1753730583333333
EXTRACT: note_on channel=2 note=61 velocity=68 time=0.048507441666666665
EXTRACT: note_on channel=2 note=50 velocity=0 time=0.14925366666666665
EXTRACT: note_on channel=2 note=57 velocity=67 time=0.07462683333333332
EXTRACT: note_on channel=2 note=61 velocity=0 time=0.016791037499999998
EXTRACT: note_on channel=2 note=57 velocity=0 time=0.16791037499999997
EXTRACT: control_change channel=2 control=64 value=0 time=0.033582074999999996
EXTRACT: note_on channel=2 note=54 velocity=68 time=0.0055970125
EXTRACT: control_change channel=2 control=64 value=0 time=0.10820890833333333
EXTRACT: note_on channel=2 note=57 velocity=68 time=0.11567159166666666
EXTRACT: control_change channel=2 control=64 value=127 time=0.0018656708333333332
EXTRACT: note_on channel=2 note=57 velocity=0 time=0.1958954375
EXTRACT: note_on channel=2 note=62 velocity=68 time=0.026119391666666665
EXTRACT: note_on channel=2 note=54 velocity=0 time=0.08395518749999999
EXTRACT: note_on channel=2 note=57 velocity=68 time=0.13992531249999998
EXTRACT: note_on channel=2 note=62 velocity=0 time=0.03171640416666666
EXTRACT: note_on channel=2 note=57 velocity=0 time=0.1585820208333333
EXTRACT: note_on channel=2 note=54 velocity=66 time=0.033582074999999996
EXTRACT: note_on channel=2 note=57 velocity=66 time=0.22388049999999998
EXTRACT: note_on channel=2 note=57 velocity=0 time=0.1753730583333333
EXTRACT: note_on channel=2 note=62 velocity=66 time=0.048507441666666665
EXTRACT: note_on channel=2 note=54 velocity=0 time=0.14925366666666665
EXTRACT: note_on channel=2 note=57 velocity=65 time=0.07462683333333332
EXTRACT: note_on channel=2 note=62 velocity=0 time=0.016791037499999998
EXTRACT: note_on channel=2 note=57 velocity=0 time=0.16791037499999997
EXTRACT: note_on channel=2 note=54 velocity=64 time=0.039179087499999994
EXTRACT: note_on channel=2 note=57 velocity=64 time=0.22388049999999998
EXTRACT: note_on channel=2 note=57 velocity=0 time=0.19776110833333332
EXTRACT: note_on channel=2 note=62 velocity=64 time=0.026119391666666665
EXTRACT: note_on channel=2 note=54 velocity=0 time=0.08395518749999999
EXTRACT: note_on channel=2 note=57 velocity=64 time=0.13992531249999998
EXTRACT: note_on channel=2 note=62 velocity=0 time=0.03171640416666666
EXTRACT: note_on channel=2 note=57 velocity=0 time=0.1585820208333333
EXTRACT: note_on channel=2 note=54 velocity=64 time=0.033582074999999996
EXTRACT: note_on channel=2 note=57 velocity=64 time=0.22388049999999998
EXTRACT: note_on channel=2 note=57 velocity=0 time=0.1753730583333333
EXTRACT: note_on channel=2 note=62 velocity=64 time=0.048507441666666665
EXTRACT: note_on channel=2 note=54 velocity=0 time=0.14925366666666665
EXTRACT: note_on channel=2 note=57 velocity=64 time=0.07462683333333332
EXTRACT: note_on channel=2 note=62 velocity=0 time=0.016791037499999998
EXTRACT: note_on channel=2 note=45 velocity=0 time=0.10261189583333333
EXTRACT: note_on channel=2 note=38 velocity=0 time=0
EXTRACT: note_on channel=2 note=57 velocity=0 time=0.06529847916666666
EXTRACT: control_change channel=2 control=64 value=0 time=0.033582074999999996
EXTRACT: note_on channel=2 note=33 velocity=72 time=0.0055970125
EXTRACT: note_on channel=2 note=40 velocity=72 time=0
EXTRACT: note_on channel=2 note=45 velocity=72 time=0
EXTRACT: note_on channel=2 note=52 velocity=72 time=0
EXTRACT: note_on channel=2 note=52 velocity=0 time=5.4085797458333325
EXTRACT: note_on channel=2 note=45 velocity=0 time=0
EXTRACT: note_on channel=2 note=40 velocity=0 time=0
EXTRACT: note_on channel=2 note=33 velocity=0 time=0
