EXTRACT: control_change channel=0 control=101 value=0 time=0
EXTRACT: control_change channel=0 control=100 value=0 time=0
EXTRACT: control_change channel=0 control=6 value=12 time=0
EXTRACT: control_change channel=0 control=38 value=0 time=0
EXTRACT: control_change channel=1 control=101 value=0 time=0
EXTRACT: control_change channel=1 control=100 value=0 time=0
EXTRACT: control_change channel=1 control=6 value=12 time=0
EXTRACT: control_change channel=1 control=38 value=0 time=0
EXTRACT: control_change channel=2 control=101 value=0 time=0
EXTRACT: control_change channel=2 control=100 value=0 time=0
EXTRACT: control_change channel=2 control=6 value=12 time=0
EXTRACT: control_change channel=2 control=38 value=0 time=0
EXTRACT: control_change channel=3 control=101 value=0 time=0
EXTRACT: control_change channel=3 control=100 value=0 time=0
EXTRACT: control_change channel=3 control=6 value=12 time=0
EXTRACT: control_change channel=3 control=38 value=0 time=0
EXTRACT: control_change channel=4 control=101 value=0 time=0
EXTRACT: control_change channel=4 control=100 value=0 time=0
EXTRACT: control_change channel=4 control=6 value=12 time=0
EXTRACT: control_change channel=4 control=38 value=0 time=0
EXTRACT: control_change channel=5 control=101 value=0 time=0
EXTRACT: control_change channel=5 control=100 value=0 time=0
EXTRACT: control_change channel=5 control=6 value=12 time=0
EXTRACT: control_change channel=5 control=38 value=0 time=0
EXTRACT: control_change channel=6 control=101 value=0 time=0
EXTRACT: control_change channel=6 control=100 value=0 time=0
EXTRACT: control_change channel=6 control=6 value=12 time=0
EXTRACT: control_change channel=6 control=38 value=0 time=0
EXTRACT: control_change channel=7 control=101 value=0 time=0
EXTRACT: control_change channel=7 control=100 value=0 time=0
EXTRACT: control_change channel=7 control=6 value=12 time=0
EXTRACT: control_change channel=7 control=38 value=0 time=0
EXTRACT: control_change channel=8 control=101 value=0 time=0
EXTRACT: control_change channel=8 control=100 value=0 time=0
EXTRACT: control_change channel=8 control=6 value=12 time=0
EXTRACT: control_change channel=8 control=38 value=0 time=0
EXTRACT: control_change channel=9 control=101 value=0 time=0
EXTRACT: control_change channel=9 control=100 value=0 time=0
EXTRACT: control_change channel=9 control=6 value=12 time=0
EXTRACT: control_change channel=9 control=38 value=0 time=0
EXTRACT: control_change channel=10 control=101 value=0 time=0
EXTRACT: control_change channel=10 control=100 value=0 time=0
EXTRACT: control_change channel=10 control=6 value=12 time=0
EXTRACT: control_change channel=10 control=38 value=0 time=0
EXTRACT: control_change channel=11 control=101 value=0 time=0
EXTRACT: control_change channel=11 control=100 value=0 time=0
EXTRACT: control_change channel=11 control=6 value=12 time=0
EXTRACT: control_change channel=11 control=38 value=0 time=0
EXTRACT: control_change channel=12 control=101 value=0 time=0
EXTRACT: control_change channel=12 control=100 value=0 time=0
EXTRACT: control_change channel=12 control=6 value=12 time=0
EXTRACT: control_change channel=12 control=38 value=0 time=0
EXTRACT: control_change channel=13 control=101 value=0 time=0
EXTRACT: control_change channel=13 control=100 value=0 time=0
EXTRACT: control_change channel=13 control=6 value=12 time=0
EXTRACT: control_change channel=13 control=38 value=0 time=0
EXTRACT: control_change channel=14 control=101 value=0 time=0
EXTRACT: control_change channel=14 control=100 value=0 time=0
EXTRACT: control_change channel=14 control=6 value=12 time=0
EXTRACT: control_change channel=14 control=38 value=0 time=0
EXTRACT: control_change channel=15 control=101 value=0 time=0
EXTRACT: control_change channel=15 control=100 value=0 time=0
EXTRACT: control_change channel=15 control=6 value=12 time=0
EXTRACT: control_change channel=15 control=38 value=0 time=0
EXTRACT: pitchwheel channel=2 pitch=0 time=0
EXTRACT: control_change channel=2 control=7 value=127 time=0
EXTRACT: control_change channel=2 control=10 value=63 time=0
EXTRACT: control_change channel=2 control=93 value=0 time=0
EXTRACT: control_change channel=2 control=91 value=0 time=0
EXTRACT: control_change channel=2 control=95 value=0 time=0
EXTRACT: control_change channel=2 control=92 value=0 time=0
EXTRACT: control_change channel=2 control=11 value=127 time=0
EXTRACT: program_change channel=2 program=23 time=0
EXTRACT: control_change channel=3 control=7 value=127 time=0
EXTRACT: control_change channel=3 control=10 value=63 time=0
EXTRACT: control_change channel=3 control=93 value=0 time=0
EXTRACT: control_change channel=3 control=91 value=0 time=0
EXTRACT: control_change channel=3 control=95 value=0 time=0
EXTRACT: control_change channel=3 control=92 value=0 time=0
EXTRACT: control_change channel=3 control=11 value=127 time=0
EXTRACT: program_change channel=3 program=23 time=0
EXTRACT: pitchwheel channel=4 pitch=0 time=0
EXTRACT: control_change channel=4 control=7 value=103 time=0
EXTRACT: control_change channel=4 control=10 value=63 time=0
EXTRACT: control_change channel=4 control=93 value=0 time=0
EXTRACT: control_change channel=4 control=91 value=0 time=0
EXTRACT: control_change channel=4 control=95 value=0 time=0
EXTRACT: control_change channel=4 control=92 value=0 time=0
EXTRACT: control_change channel=4 control=11 value=127 time=0
EXTRACT: program_change channel=4 program=30 time=0
EXTRACT: control_change channel=5 control=7 value=103 time=0
EXTRACT: control_change channel=5 control=10 value=63 time=0
EXTRACT: control_change channel=5 control=93 value=0 time=0
EXTRACT: control_change channel=5 control=91 value=0 time=0
EXTRACT: control_change channel=5 control=95 value=0 time=0
EXTRACT: control_change channel=5 control=92 value=0 time=0
EXTRACT: control_change channel=5 control=11 value=127 time=0
EXTRACT: program_change channel=5 program=30 time=0
EXTRACT: pitchwheel channel=0 pitch=0 time=0
EXTRACT: control_change channel=0 control=7 value=127 time=0
EXTRACT: control_change channel=0 control=10 value=63 time=0
EXTRACT: control_change channel=0 control=93 value=0 time=0
EXTRACT: control_change channel=0 control=91 value=0 time=0
EXTRACT: control_change channel=0 control=95 value=0 time=0
EXTRACT: control_change channel=0 control=92 value=0 time=0
EXTRACT: control_change channel=0 control=11 value=127 time=0
EXTRACT: program_change channel=0 program=34 time=0
EXTRACT: control_change channel=1 control=7 value=127 time=0
EXTRACT: control_change channel=1 control=10 value=63 time=0
EXTRACT: control_change channel=1 control=93 value=0 time=0
EXTRACT: control_change channel=1 control=91 value=0 time=0
EXTRACT: control_change channel=1 control=95 value=0 time=0
EXTRACT: control_change channel=1 control=92 value=0 time=0
EXTRACT: control_change channel=1 control=11 value=127 time=0
EXTRACT: program_change channel=1 program=34 time=0
EXTRACT: pitchwheel channel=8 pitch=0 time=0
EXTRACT: control_change channel=8 control=7 value=95 time=0
EXTRACT: control_change channel=8 control=10 value=127 time=0
EXTRACT: control_change channel=8 control=93 value=87 time=0
EXTRACT: control_change channel=8 control=91 value=127 time=0
EXTRACT: control_change channel=8 control=95 value=0 time=0
EXTRACT: control_change channel=8 control=92 value=0 time=0
EXTRACT: control_change channel=8 control=11 value=127 time=0
EXTRACT: program_change channel=8 program=90 time=0
EXTRACT: control_change channel=10 control=7 value=95 time=0
EXTRACT: control_change channel=10 control=10 value=127 time=0
EXTRACT: control_change channel=10 control=93 value=87 time=0
EXTRACT: control_change channel=10 control=91 value=127 time=0
EXTRACT: control_change channel=10 control=95 value=0 time=0
EXTRACT: control_change channel=10 control=92 value=0 time=0
EXTRACT: control_change channel=10 control=11 value=127 time=0
EXTRACT: program_change channel=10 program=90 time=0
EXTRACT: pitchwheel channel=6 pitch=0 time=0
EXTRACT: control_change channel=6 control=7 value=103 time=0
EXTRACT: control_change channel=6 control=10 value=63 time=0
EXTRACT: control_change channel=6 control=93 value=0 time=0
EXTRACT: control_change channel=6 control=91 value=0 time=0
EXTRACT: control_change channel=6 control=95 value=0 time=0
EXTRACT: control_change channel=6 control=92 value=0 time=0
EXTRACT: control_change channel=6 control=11 value=127 time=0
EXTRACT: program_change channel=6 program=18 time=0
EXTRACT: control_change channel=7 control=7 value=103 time=0
EXTRACT: control_change channel=7 control=10 value=63 time=0
EXTRACT: control_change channel=7 control=93 value=0 time=0
EXTRACT: control_change channel=7 control=91 value=0 time=0
EXTRACT: control_change channel=7 control=95 value=0 time=0
EXTRACT: control_change channel=7 control=92 value=0 time=0
EXTRACT: control_change channel=7 control=11 value=127 time=0
EXTRACT: program_change channel=7 program=18 time=0
EXTRACT: pitchwheel channel=9 pitch=0 time=0
EXTRACT: control_change channel=9 control=7 value=103 time=0
EXTRACT: control_change channel=9 control=10 value=63 time=0
EXTRACT: control_change channel=9 control=93 value=0 time=0
EXTRACT: control_change channel=9 control=91 value=0 time=0
EXTRACT: control_change channel=9 control=95 value=0 time=0
EXTRACT: control_change channel=9 control=92 value=0 time=0
EXTRACT: control_change channel=9 control=11 value=127 time=0
EXTRACT: program_change channel=9 program=0 time=0
EXTRACT: note_on channel=8 note=56 velocity=79 time=1.739128
EXTRACT: note_on channel=6 note=58 velocity=95 time=0
EXTRACT: note_on channel=6 note=46 velocity=95 time=0
EXTRACT: note_off channel=8 note=56 velocity=79 time=1.739128
EXTRACT: note_on channel=8 note=56 velocity=63 time=0
EXTRACT: note_off channel=6 note=58 velocity=95 time=0
EXTRACT: note_off channel=6 note=46 velocity=95 time=0
EXTRACT: note_on channel=6 note=58 velocity=95 time=0
EXTRACT: note_on channel=6 note=46 velocity=95 time=0
EXTRACT: note_off channel=8 note=56 velocity=63 time=1.739128
EXTRACT: note_on channel=8 note=53 velocity=79 time=0
EXTRACT: note_off channel=6 note=58 velocity=95 time=0
EXTRACT: note_off channel=6 note=46 velocity=95 time=0
EXTRACT: note_on channel=6 note=55 velocity=95 time=0
EXTRACT: note_on channel=6 note=43 velocity=95 time=0
EXTRACT: note_off channel=8 note=53 velocity=79 time=1.739128
EXTRACT: note_on channel=8 note=53 velocity=79 time=0
EXTRACT: note_off channel=6 note=55 velocity=95 time=0
EXTRACT: note_off channel=6 note=43 velocity=95 time=0
EXTRACT: note_on channel=6 note=55 velocity=95 time=0
EXTRACT: note_on channel=6 note=43 velocity=95 time=0
EXTRACT: note_off channel=8 note=53 velocity=79 time=1.739128
EXTRACT: note_on channel=8 note=56 velocity=79 time=0
EXTRACT: note_off channel=6 note=55 velocity=95 time=0
EXTRACT: note_off channel=6 note=43 velocity=95 time=0
EXTRACT: note_on channel=6 note=58 velocity=95 time=0
EXTRACT: note_on channel=6 note=46 velocity=95 time=0
EXTRACT: note_off channel=8 note=56 velocity=79 time=1.739128
EXTRACT: note_on channel=8 note=56 velocity=79 time=0
EXTRACT: note_off channel=6 note=58 velocity=95 time=0
EXTRACT: note_off channel=6 note=46 velocity=95 time=0
EXTRACT: note_on channel=6 note=58 velocity=95 time=0
EXTRACT: note_on channel=6 note=46 velocity=95 time=0
EXTRACT: note_off channel=8 note=56 velocity=79 time=1.739128
EXTRACT: note_on channel=10 note=51 velocity=79 time=0
EXTRACT: note_off channel=6 note=58 velocity=95 time=0
EXTRACT: note_off channel=6 note=46 velocity=95 time=0
EXTRACT: note_on channel=7 note=53 velocity=95 time=0
EXTRACT: note_on channel=7 note=41 velocity=95 time=0
EXTRACT: note_on channel=9 note=35 velocity=127 time=0
EXTRACT: note_on channel=9 note=42 velocity=111 time=0
EXTRACT: note_off channel=9 note=35 velocity=127 time=0.217391
EXTRACT: note_off channel=9 note=42 velocity=111 time=0
EXTRACT: note_on channel=9 note=42 velocity=79 time=0
EXTRACT: note_off channel=9 note=42 velocity=79 time=0.217391
EXTRACT: note_on channel=9 note=42 velocity=95 time=0
EXTRACT: note_on channel=9 note=40 velocity=111 time=0
EXTRACT: note_off channel=9 note=42 velocity=95 time=0.217391
EXTRACT: note_off channel=9 note=40 velocity=111 time=0
EXTRACT: note_on channel=9 note=42 velocity=79 time=0
EXTRACT: note_off channel=9 note=42 velocity=79 time=0.217391
EXTRACT: note_on channel=9 note=35 velocity=127 time=0
EXTRACT: note_on channel=9 note=42 velocity=79 time=0
EXTRACT: note_off channel=9 note=35 velocity=127 time=0.217391
EXTRACT: note_off channel=9 note=42 velocity=79 time=0
EXTRACT: note_on channel=9 note=42 velocity=79 time=0
EXTRACT: note_off channel=9 note=42 velocity=79 time=0.217391
EXTRACT: note_on channel=9 note=38 velocity=111 time=0
EXTRACT: note_on channel=9 note=54 velocity=111 time=0
EXTRACT: note_on channel=9 note=41 velocity=111 time=0
EXTRACT: note_on channel=9 note=39 velocity=95 time=0
EXTRACT: note_on channel=9 note=42 velocity=95 time=0
EXTRACT: note_off channel=9 note=38 velocity=111 time=0.217391
EXTRACT: note_off channel=9 note=54 velocity=111 time=0
EXTRACT: note_off channel=9 note=41 velocity=111 time=0
EXTRACT: note_off channel=9 note=39 velocity=95 time=0
EXTRACT: note_off channel=9 note=42 velocity=95 time=0
EXTRACT: note_on channel=9 note=42 velocity=79 time=0
EXTRACT: note_off channel=10 note=51 velocity=79 time=0.217391
EXTRACT: note_off channel=7 note=53 velocity=95 time=0
EXTRACT: note_off channel=7 note=41 velocity=95 time=0
EXTRACT: note_off channel=9 note=42 velocity=79 time=0
EXTRACT: note_on channel=9 note=42 velocity=95 time=0
EXTRACT: note_on channel=9 note=35 velocity=127 time=0
EXTRACT: note_off channel=9 note=42 velocity=95 time=0.217391
EXTRACT: note_off channel=9 note=35 velocity=127 time=0
EXTRACT: note_on channel=9 note=42 velocity=79 time=0
EXTRACT: note_off channel=9 note=42 velocity=79 time=0.217391
EXTRACT: note_on channel=9 note=42 velocity=95 time=0
EXTRACT: note_on channel=9 note=40 velocity=111 time=0
EXTRACT: note_off channel=9 note=42 velocity=95 time=0.217391
EXTRACT: note_off channel=9 note=40 velocity=111 time=0
EXTRACT: note_on channel=9 note=42 velocity=79 time=0
EXTRACT: note_off channel=9 note=42 velocity=79 time=0.217391
EXTRACT: note_on channel=9 note=42 velocity=95 time=0
EXTRACT: note_off channel=9 note=42 velocity=95 time=0.217391
EXTRACT: note_on channel=9 note=35 velocity=127 time=0
EXTRACT: note_on channel=9 note=42 velocity=63 time=0
EXTRACT: note_off channel=9 note=35 velocity=127 time=0.217391
EXTRACT: note_off channel=9 note=42 velocity=63 time=0
EXTRACT: note_on channel=9 note=42 velocity=95 time=0
EXTRACT: note_on channel=9 note=39 velocity=111 time=0
EXTRACT: note_on channel=9 note=41 velocity=111 time=0
EXTRACT: note_on channel=9 note=38 velocity=111 time=0
EXTRACT: note_on channel=9 note=54 velocity=127 time=0
EXTRACT: note_off channel=9 note=42 velocity=95 time=0.217391
EXTRACT: note_off channel=9 note=39 velocity=111 time=0
EXTRACT: note_off channel=9 note=41 velocity=111 time=0
EXTRACT: note_off channel=9 note=38 velocity=111 time=0
EXTRACT: note_off channel=9 note=54 velocity=127 time=0
EXTRACT: note_on channel=9 note=42 velocity=79 time=0
EXTRACT: note_off channel=9 note=42 velocity=79 time=0.217391
EXTRACT: note_on channel=9 note=42 velocity=79 time=0
EXTRACT: note_on channel=9 note=35 velocity=127 time=0
EXTRACT: note_off channel=9 note=42 velocity=79 time=0.217391
EXTRACT: note_off channel=9 note=35 velocity=127 time=0
EXTRACT: note_on channel=9 note=42 velocity=63 time=0
EXTRACT: note_off channel=9 note=42 velocity=63 time=0.217391
EXTRACT: note_on channel=9 note=42 velocity=95 time=0
EXTRACT: note_on channel=9 note=40 velocity=111 time=0
EXTRACT: note_off channel=9 note=42 velocity=95 time=0.217391
EXTRACT: note_off channel=9 note=40 velocity=111 time=0
EXTRACT: note_on channel=9 note=42 velocity=79 time=0
EXTRACT: note_off channel=9 note=42 velocity=79 time=0.217391
EXTRACT: note_on channel=9 note=35 velocity=127 time=0
EXTRACT: note_on channel=9 note=42 velocity=95 time=0
EXTRACT: note_off channel=9 note=35 velocity=127 time=0.217391
EXTRACT: note_off channel=9 note=42 velocity=95 time=0
EXTRACT: note_on channel=9 note=42 velocity=63 time=0
EXTRACT: note_off channel=9 note=42 velocity=63 time=0.217391
EXTRACT: note_on channel=9 note=42 velocity=95 time=0
EXTRACT: note_on channel=9 note=39 velocity=95 time=0
EXTRACT: note_on channel=9 note=38 velocity=95 time=0
EXTRACT: note_on channel=9 note=41 velocity=111 time=0
EXTRACT: note_on channel=9 note=54 velocity=127 time=0
EXTRACT: note_off channel=9 note=42 velocity=95 time=0.217391
EXTRACT: note_off channel=9 note=39 velocity=95 time=0
EXTRACT: note_off channel=9 note=38 velocity=95 time=0
EXTRACT: note_off channel=9 note=41 velocity=111 time=0
EXTRACT: note_off channel=9 note=54 velocity=127 time=0
EXTRACT: note_on channel=9 note=42 velocity=63 time=0
EXTRACT: note_off channel=9 note=42 velocity=63 time=0.217391
EXTRACT: note_on channel=9 note=42 velocity=79 time=0
EXTRACT: note_on channel=9 note=35 velocity=127 time=0
EXTRACT: note_off channel=9 note=42 velocity=79 time=0.217391
EXTRACT: note_off channel=9 note=35 velocity=127 time=0
EXTRACT: note_on channel=9 note=42 velocity=63 time=0
EXTRACT: note_off channel=9 note=42 velocity=63 time=0.217391
EXTRACT: note_on channel=9 note=42 velocity=79 time=0
EXTRACT: note_on channel=9 note=40 velocity=111 time=0
EXTRACT: note_off channel=9 note=42 velocity=79 time=0.217391
EXTRACT: note_off channel=9 note=40 velocity=111 time=0
EXTRACT: note_on channel=9 note=42 velocity=79 time=0
EXTRACT: note_off channel=9 note=42 velocity=79 time=0.217391
EXTRACT: note_on channel=9 note=42 velocity=79 time=0
EXTRACT: note_off channel=9 note=42 velocity=79 time=0.217391
EXTRACT: note_on channel=9 note=35 velocity=127 time=0
EXTRACT: note_on channel=9 note=42 velocity=79 time=0
EXTRACT: note_off channel=9 note=35 velocity=127 time=0.217391
EXTRACT: note_off channel=9 note=42 velocity=79 time=0
EXTRACT: note_on channel=9 note=42 velocity=95 time=0
EXTRACT: note_on channel=9 note=38 velocity=111 time=0
EXTRACT: note_on channel=9 note=39 velocity=95 time=0
EXTRACT: note_on channel=9 note=54 velocity=111 time=0
EXTRACT: note_on channel=9 note=41 velocity=111 time=0
EXTRACT: note_off channel=9 note=42 velocity=95 time=0.217391
EXTRACT: note_off channel=9 note=38 velocity=111 time=0
EXTRACT: note_off channel=9 note=39 velocity=95 time=0
EXTRACT: note_off channel=9 note=54 velocity=111 time=0
EXTRACT: note_off channel=9 note=41 velocity=111 time=0
EXTRACT: note_on channel=9 note=42 velocity=95 time=0
EXTRACT: note_off channel=9 note=42 velocity=95 time=0.217391
EXTRACT: note_on channel=9 note=42 velocity=79 time=0
EXTRACT: note_on channel=9 note=35 velocity=127 time=0
EXTRACT: note_off channel=9 note=42 velocity=79 time=0.217391
EXTRACT: note_off channel=9 note=35 velocity=127 time=0
EXTRACT: note_on channel=9 note=42 velocity=79 time=0
EXTRACT: note_off channel=9 note=42 velocity=79 time=0.217391
EXTRACT: note_on channel=9 note=40 velocity=111 time=0
EXTRACT: note_on channel=9 note=42 velocity=95 time=0
EXTRACT: note_off channel=9 note=40 velocity=111 time=0.217391
EXTRACT: note_off channel=9 note=42 velocity=95 time=0
EXTRACT: note_on channel=9 note=42 velocity=79 time=0
EXTRACT: note_off channel=9 note=42 velocity=79 time=0.217391
EXTRACT: note_on channel=9 note=42 velocity=79 time=0
EXTRACT: note_on channel=9 note=35 velocity=127 time=0
EXTRACT: note_off channel=9 note=42 velocity=79 time=0.217391
EXTRACT: note_off channel=9 note=35 velocity=127 time=0
EXTRACT: note_on channel=9 note=42 velocity=79 time=0
EXTRACT: note_off channel=9 note=42 velocity=79 time=0.217391
EXTRACT: note_on channel=9 note=38 velocity=111 time=0
EXTRACT: note_on channel=9 note=39 velocity=95 time=0
EXTRACT: note_on channel=9 note=41 velocity=111 time=0
EXTRACT: note_on channel=9 note=54 velocity=95 time=0
EXTRACT: note_on channel=9 note=42 velocity=95 time=0
EXTRACT: note_off channel=9 note=38 velocity=111 time=0.217391
EXTRACT: note_off channel=9 note=39 velocity=95 time=0
EXTRACT: note_off channel=9 note=41 velocity=111 time=0
EXTRACT: note_off channel=9 note=54 velocity=95 time=0
EXTRACT: note_off channel=9 note=42 velocity=95 time=0
EXTRACT: note_on channel=9 note=42 velocity=79 time=0
EXTRACT: note_off channel=9 note=42 velocity=79 time=0.217391
EXTRACT: note_on channel=9 note=35 velocity=127 time=0
EXTRACT: note_on channel=9 note=42 velocity=95 time=0
EXTRACT: note_off channel=9 note=35 velocity=127 time=0.217391
EXTRACT: note_off channel=9 note=42 velocity=95 time=0
EXTRACT: note_on channel=9 note=42 velocity=79 time=0
EXTRACT: note_off channel=9 note=42 velocity=79 time=0.217391
EXTRACT: note_on channel=9 note=42 velocity=95 time=0
EXTRACT: note_on channel=9 note=40 velocity=111 time=0
EXTRACT: note_off channel=9 note=42 velocity=95 time=0.217391
EXTRACT: note_off channel=9 note=40 velocity=111 time=0
EXTRACT: note_on channel=9 note=42 velocity=79 time=0
EXTRACT: note_off channel=9 note=42 velocity=79 time=0.217391
EXTRACT: note_on channel=9 note=42 velocity=79 time=0
EXTRACT: note_off channel=9 note=42 velocity=79 time=0.217391
EXTRACT: note_on channel=9 note=35 velocity=127 time=0
EXTRACT: note_on channel=9 note=42 velocity=79 time=0
EXTRACT: note_off channel=9 note=35 velocity=127 time=0.217391
EXTRACT: note_off channel=9 note=42 velocity=79 time=0
EXTRACT: note_on channel=9 note=38 velocity=111 time=0
EXTRACT: note_on channel=9 note=39 velocity=111 time=0
EXTRACT: note_on channel=9 note=54 velocity=95 time=0
EXTRACT: note_on channel=9 note=41 velocity=111 time=0
EXTRACT: note_on channel=9 note=42 velocity=95 time=0
EXTRACT: note_off channel=9 note=38 velocity=111 time=0.217391
EXTRACT: note_off channel=9 note=39 velocity=111 time=0
EXTRACT: note_off channel=9 note=54 velocity=95 time=0
EXTRACT: note_off channel=9 note=41 velocity=111 time=0
EXTRACT: note_off channel=9 note=42 velocity=95 time=0
EXTRACT: note_on channel=9 note=42 velocity=79 time=0
EXTRACT: note_off channel=9 note=42 velocity=79 time=0.217391
EXTRACT: note_on channel=9 note=42 velocity=79 time=0
EXTRACT: note_on channel=9 note=35 velocity=127 time=0
EXTRACT: note_off channel=9 note=42 velocity=79 time=0.217391
EXTRACT: note_off channel=9 note=35 velocity=127 time=0
EXTRACT: note_on channel=9 note=42 velocity=79 time=0
EXTRACT: note_on channel=9 note=82 velocity=79 time=0
EXTRACT: note_off channel=9 note=42 velocity=79 time=0.217391
EXTRACT: note_off channel=9 note=82 velocity=79 time=0
EXTRACT: note_on channel=9 note=40 velocity=111 time=0
EXTRACT: note_on channel=9 note=42 velocity=95 time=0
EXTRACT: note_on channel=9 note=82 velocity=95 time=0
EXTRACT: note_off channel=9 note=40 velocity=111 time=0.217391
EXTRACT: note_off channel=9 note=42 velocity=95 time=0
EXTRACT: note_off channel=9 note=82 velocity=95 time=0
EXTRACT: note_on channel=9 note=42 velocity=79 time=0
EXTRACT: note_off channel=9 note=42 velocity=79 time=0.217391
EXTRACT: note_on channel=9 note=42 velocity=79 time=0
EXTRACT: note_on channel=9 note=35 velocity=127 time=0
EXTRACT: note_on channel=9 note=82 velocity=79 time=0
EXTRACT: note_off channel=9 note=42 velocity=79 time=0.217391
EXTRACT: note_off channel=9 note=35 velocity=127 time=0
EXTRACT: note_off channel=9 note=82 velocity=79 time=0
EXTRACT: note_on channel=9 note=42 velocity=79 time=0
EXTRACT: note_off channel=9 note=42 velocity=79 time=0.217391
EXTRACT: note_on channel=9 note=39 velocity=95 time=0
EXTRACT: note_on channel=9 note=38 velocity=95 time=0
EXTRACT: note_on channel=9 note=41 velocity=111 time=0
EXTRACT: note_on channel=9 note=54 velocity=95 time=0
EXTRACT: note_on channel=9 note=42 velocity=95 time=0
EXTRACT: note_off channel=9 note=39 velocity=95 time=0.217391
EXTRACT: note_off channel=9 note=38 velocity=95 time=0
EXTRACT: note_off channel=9 note=41 velocity=111 time=0
EXTRACT: note_off channel=9 note=54 velocity=95 time=0
EXTRACT: note_off channel=9 note=42 velocity=95 time=0
EXTRACT: note_on channel=9 note=42 velocity=95 time=0
EXTRACT: note_on channel=9 note=82 velocity=79 time=0
EXTRACT: note_off channel=9 note=42 velocity=95 time=0.217391
EXTRACT: note_off channel=9 note=82 velocity=79 time=0
EXTRACT: note_on channel=9 note=35 velocity=127 time=0
EXTRACT: note_on channel=9 note=42 velocity=95 time=0
EXTRACT: note_on channel=9 note=82 velocity=79 time=0
EXTRACT: note_off channel=9 note=35 velocity=127 time=0.217391
EXTRACT: note_off channel=9 note=42 velocity=95 time=0
EXTRACT: note_off channel=9 note=82 velocity=79 time=0
EXTRACT: note_on channel=9 note=42 velocity=79 time=0
EXTRACT: note_off channel=9 note=42 velocity=79 time=0.217391
EXTRACT: note_on channel=9 note=40 velocity=111 time=0
EXTRACT: note_on channel=9 note=42 velocity=95 time=0
EXTRACT: note_on channel=9 note=82 velocity=95 time=0
EXTRACT: note_off channel=9 note=40 velocity=111 time=0.217391
EXTRACT: note_off channel=9 note=42 velocity=95 time=0
EXTRACT: note_off channel=9 note=82 velocity=95 time=0
EXTRACT: note_on channel=9 note=42 velocity=95 time=0
EXTRACT: note_off channel=9 note=42 velocity=95 time=0.217391
EXTRACT: note_on channel=9 note=42 velocity=95 time=0
EXTRACT: note_off channel=9 note=42 velocity=95 time=0.217391
EXTRACT: note_on channel=9 note=42 velocity=95 time=0
EXTRACT: note_on channel=9 note=35 velocity=127 time=0
EXTRACT: note_on channel=9 note=40 velocity=111 time=0
EXTRACT: note_off channel=9 note=42 velocity=95 time=0.217391
EXTRACT: note_off channel=9 note=35 velocity=127 time=0
EXTRACT: note_off channel=9 note=40 velocity=111 time=0
EXTRACT: note_on channel=9 note=42 velocity=95 time=0
EXTRACT: note_on channel=9 note=54 velocity=95 time=0
EXTRACT: note_on channel=9 note=39 velocity=95 time=0
EXTRACT: note_on channel=9 note=41 velocity=111 time=0
EXTRACT: note_on channel=9 note=38 velocity=95 time=0
EXTRACT: note_on channel=0 note=28 velocity=95 time=0.217391
EXTRACT: note_off channel=9 note=42 velocity=95 time=0
EXTRACT: note_off channel=9 note=54 velocity=95 time=0
EXTRACT: note_off channel=9 note=39 velocity=95 time=0
EXTRACT: note_off channel=9 note=41 velocity=111 time=0
EXTRACT: note_off channel=9 note=38 velocity=95 time=0
EXTRACT: note_on channel=9 note=51 velocity=111 time=0
EXTRACT: note_on channel=9 note=35 velocity=127 time=0
EXTRACT: note_off channel=9 note=51 velocity=111 time=0.217391
EXTRACT: note_off channel=9 note=35 velocity=127 time=0
EXTRACT: note_on channel=9 note=49 velocity=111 time=0
EXTRACT: note_on channel=9 note=35 velocity=127 time=0
EXTRACT: note_off channel=0 note=28 velocity=95 time=0.217391
EXTRACT: note_on channel=0 note=31 velocity=95 time=0
EXTRACT: note_off channel=9 note=49 velocity=111 time=0
EXTRACT: note_off channel=9 note=35 velocity=127 time=0
EXTRACT: note_on channel=9 note=42 velocity=47 time=0
EXTRACT: note_off channel=0 note=31 velocity=95 time=0.217391
EXTRACT: note_on channel=0 note=35 velocity=95 time=0
EXTRACT: note_off channel=9 note=42 velocity=47 time=0
EXTRACT: note_on channel=9 note=42 velocity=63 time=0
EXTRACT: note_on channel=9 note=51 velocity=63 time=0
EXTRACT: note_on channel=9 note=40 velocity=111 time=0
EXTRACT: note_off channel=0 note=35 velocity=95 time=0.217391
EXTRACT: note_on channel=0 note=43 velocity=95 time=0
EXTRACT: note_off channel=9 note=42 velocity=63 time=0
EXTRACT: note_off channel=9 note=51 velocity=63 time=0
EXTRACT: note_off channel=9 note=40 velocity=111 time=0
EXTRACT: note_on channel=9 note=42 velocity=15 time=0
EXTRACT: note_off channel=0 note=43 velocity=95 time=0.217391
EXTRACT: note_on channel=0 note=40 velocity=95 time=0
EXTRACT: note_off channel=9 note=42 velocity=15 time=0
EXTRACT: note_on channel=9 note=35 velocity=127 time=0
EXTRACT: note_on channel=9 note=42 velocity=63 time=0
EXTRACT: note_on channel=9 note=51 velocity=63 time=0
EXTRACT: note_off channel=9 note=35 velocity=127 time=0.217391
EXTRACT: note_off channel=9 note=42 velocity=63 time=0
EXTRACT: note_off channel=9 note=51 velocity=63 time=0
EXTRACT: note_on channel=9 note=42 velocity=31 time=0
EXTRACT: note_off channel=0 note=40 velocity=95 time=0.217391
EXTRACT: note_off channel=9 note=42 velocity=31 time=0
EXTRACT: note_on channel=9 note=38 velocity=111 time=0
EXTRACT: note_on channel=9 note=54 velocity=111 time=0
EXTRACT: note_on channel=9 note=41 velocity=111 time=0
EXTRACT: note_on channel=9 note=39 velocity=95 time=0
EXTRACT: note_on channel=9 note=42 velocity=79 time=0
EXTRACT: note_on channel=9 note=51 velocity=63 time=0
EXTRACT: note_on channel=1 note=40 velocity=95 time=0.16304325
EXTRACT: note_off channel=1 note=40 velocity=95 time=0.05434775
EXTRACT: pitchwheel channel=1 pitch=0 time=0
EXTRACT: note_on channel=1 note=40 velocity=95 time=0
EXTRACT: note_off channel=9 note=38 velocity=111 time=0
EXTRACT: note_off channel=9 note=54 velocity=111 time=0
EXTRACT: note_off channel=9 note=41 velocity=111 time=0
EXTRACT: note_off channel=9 note=39 velocity=95 time=0
EXTRACT: note_off channel=9 note=42 velocity=79 time=0
EXTRACT: note_off channel=9 note=51 velocity=63 time=0
EXTRACT: note_on channel=9 note=42 velocity=31 time=0
EXTRACT: pitchwheel channel=1 pitch=128 time=0.019474610416666666
EXTRACT: pitchwheel channel=1 pitch=256 time=0.019474610416666666
EXTRACT: pitchwheel channel=1 pitch=384 time=0.019474610416666666
EXTRACT: pitchwheel channel=1 pitch=512 time=0.019474610416666666
EXTRACT: pitchwheel channel=1 pitch=640 time=0.019474610416666666
EXTRACT: pitchwheel channel=1 pitch=768 time=0.019474610416666666
EXTRACT: pitchwheel channel=1 pitch=896 time=0.019474610416666666
EXTRACT: pitchwheel channel=1 pitch=1024 time=0.019474610416666666
EXTRACT: pitchwheel channel=1 pitch=1152 time=0.019474610416666666
EXTRACT: pitchwheel channel=1 pitch=1280 time=0.019474610416666666
EXTRACT: pitchwheel channel=1 pitch=1408 time=0.019474610416666666
EXTRACT: pitchwheel channel=1 pitch=1408 time=0.0031702854166666666
EXTRACT: note_off channel=9 note=42 velocity=31 time=0
EXTRACT: note_on channel=9 note=35 velocity=127 time=0
EXTRACT: note_on channel=9 note=42 velocity=63 time=0
EXTRACT: note_on channel=9 note=51 velocity=63 time=0
EXTRACT: pitchwheel channel=1 pitch=1408 time=0.217391
EXTRACT: pitchwheel channel=1 pitch=0 time=0
EXTRACT: note_off channel=1 note=40 velocity=95 time=0
EXTRACT: note_on channel=0 note=40 velocity=95 time=0
EXTRACT: note_off channel=9 note=35 velocity=127 time=0
EXTRACT: note_off channel=9 note=42 velocity=63 time=0
EXTRACT: note_off channel=9 note=51 velocity=63 time=0
EXTRACT: note_on channel=9 note=42 velocity=31 time=0
EXTRACT: note_off channel=0 note=40 velocity=95 time=0.217391
EXTRACT: note_on channel=0 note=38 velocity=95 time=0
EXTRACT: note_off channel=9 note=42 velocity=31 time=0
EXTRACT: note_on channel=9 note=40 velocity=111 time=0
EXTRACT: note_on channel=9 note=42 velocity=79 time=0
EXTRACT: note_on channel=9 note=51 velocity=63 time=0
EXTRACT: note_off channel=0 note=38 velocity=95 time=0.217391
EXTRACT: note_off channel=9 note=40 velocity=111 time=0
EXTRACT: note_off channel=9 note=42 velocity=79 time=0
EXTRACT: note_off channel=9 note=51 velocity=63 time=0
EXTRACT: note_on channel=9 note=42 velocity=31 time=0
EXTRACT: note_on channel=0 note=38 velocity=95 time=0.217391
EXTRACT: note_off channel=9 note=42 velocity=31 time=0
EXTRACT: note_on channel=9 note=42 velocity=63 time=0
EXTRACT: note_on channel=9 note=51 velocity=63 time=0
EXTRACT: note_off channel=0 note=38 velocity=95 time=0.217391
EXTRACT: note_off channel=9 note=42 velocity=63 time=0
EXTRACT: note_off channel=9 note=51 velocity=63 time=0
EXTRACT: note_on channel=9 note=35 velocity=127 time=0
EXTRACT: note_on channel=9 note=42 velocity=31 time=0
EXTRACT: note_off channel=9 note=35 velocity=127 time=0.217391
EXTRACT: note_off channel=9 note=42 velocity=31 time=0
EXTRACT: note_on channel=9 note=42 velocity=79 time=0
EXTRACT: note_on channel=9 note=51 velocity=63 time=0
EXTRACT: note_on channel=9 note=39 velocity=111 time=0
EXTRACT: note_on channel=9 note=41 velocity=111 time=0
EXTRACT: note_on channel=9 note=38 velocity=111 time=0
EXTRACT: note_on channel=9 note=54 velocity=127 time=0
EXTRACT: note_on channel=0 note=28 velocity=95 time=0.217391
EXTRACT: note_off channel=9 note=42 velocity=79 time=0
EXTRACT: note_off channel=9 note=51 velocity=63 time=0
EXTRACT: note_off channel=9 note=39 velocity=111 time=0
EXTRACT: note_off channel=9 note=41 velocity=111 time=0
EXTRACT: note_off channel=9 note=38 velocity=111 time=0
EXTRACT: note_off channel=9 note=54 velocity=127 time=0
EXTRACT: note_on channel=9 note=42 velocity=31 time=0
EXTRACT: note_off channel=9 note=42 velocity=31 time=0.217391
EXTRACT: note_on channel=9 note=42 velocity=79 time=0
EXTRACT: note_on channel=9 note=51 velocity=63 time=0
EXTRACT: note_on channel=9 note=35 velocity=127 time=0
EXTRACT: note_off channel=0 note=28 velocity=95 time=0.217391
EXTRACT: note_on channel=0 note=31 velocity=95 time=0
EXTRACT: note_off channel=9 note=42 velocity=79 time=0
EXTRACT: note_off channel=9 note=51 velocity=63 time=0
EXTRACT: note_off channel=9 note=35 velocity=127 time=0
EXTRACT: note_on channel=9 note=42 velocity=47 time=0
EXTRACT: note_off channel=0 note=31 velocity=95 time=0.217391
EXTRACT: note_on channel=0 note=35 velocity=95 time=0
EXTRACT: note_off channel=9 note=42 velocity=47 time=0
EXTRACT: note_on channel=9 note=42 velocity=79 time=0
EXTRACT: note_on channel=9 note=51 velocity=63 time=0
EXTRACT: note_on channel=9 note=40 velocity=111 time=0
EXTRACT: note_off channel=0 note=35 velocity=95 time=0.217391
EXTRACT: note_on channel=0 note=43 velocity=95 time=0
EXTRACT: note_off channel=9 note=42 velocity=79 time=0
EXTRACT: note_off channel=9 note=51 velocity=63 time=0
EXTRACT: note_off channel=9 note=40 velocity=111 time=0
EXTRACT: note_on channel=9 note=42 velocity=47 time=0
EXTRACT: note_off channel=0 note=43 velocity=95 time=0.217391
EXTRACT: note_on channel=0 note=40 velocity=95 time=0
EXTRACT: note_off channel=9 note=42 velocity=47 time=0
EXTRACT: note_on channel=9 note=35 velocity=127 time=0
EXTRACT: note_on channel=9 note=42 velocity=79 time=0
EXTRACT: note_on channel=9 note=51 velocity=63 time=0
EXTRACT: note_off channel=9 note=35 velocity=127 time=0.217391
EXTRACT: note_off channel=9 note=42 velocity=79 time=0
EXTRACT: note_off channel=9 note=51 velocity=63 time=0
EXTRACT: note_on channel=9 note=42 velocity=47 time=0
EXTRACT: note_off channel=0 note=40 velocity=95 time=0.217391
EXTRACT: note_off channel=9 note=42 velocity=47 time=0
EXTRACT: note_on channel=9 note=42 velocity=79 time=0
EXTRACT: note_on channel=9 note=51 velocity=63 time=0
EXTRACT: note_on channel=9 note=39 velocity=95 time=0
EXTRACT: note_on channel=9 note=38 velocity=95 time=0
EXTRACT: note_on channel=9 note=41 velocity=111 time=0
EXTRACT: note_on channel=9 note=54 velocity=127 time=0
EXTRACT: note_on channel=1 note=40 velocity=95 time=0.16304325
EXTRACT: note_off channel=1 note=40 velocity=95 time=0.05434775
EXTRACT: pitchwheel channel=1 pitch=0 time=0
EXTRACT: note_on channel=1 note=40 velocity=95 time=0
EXTRACT: note_off channel=9 note=42 velocity=79 time=0
EXTRACT: note_off channel=9 note=51 velocity=63 time=0
EXTRACT: note_off channel=9 note=39 velocity=95 time=0
EXTRACT: note_off channel=9 note=38 velocity=95 time=0
EXTRACT: note_off channel=9 note=41 velocity=111 time=0
EXTRACT: note_off channel=9 note=54 velocity=127 time=0
EXTRACT: note_on channel=9 note=42 velocity=47 time=0
EXTRACT: pitchwheel channel=1 pitch=128 time=0.019474610416666666
EXTRACT: pitchwheel channel=1 pitch=256 time=0.019474610416666666
EXTRACT: pitchwheel channel=1 pitch=384 time=0.019474610416666666
EXTRACT: pitchwheel channel=1 pitch=512 time=0.019474610416666666
EXTRACT: pitchwheel channel=1 pitch=640 time=0.019474610416666666
EXTRACT: pitchwheel channel=1 pitch=768 time=0.019474610416666666
EXTRACT: pitchwheel channel=1 pitch=896 time=0.019474610416666666
EXTRACT: pitchwheel channel=1 pitch=1024 time=0.019474610416666666
EXTRACT: pitchwheel channel=1 pitch=1152 time=0.019474610416666666
EXTRACT: pitchwheel channel=1 pitch=1280 time=0.019474610416666666
EXTRACT: pitchwheel channel=1 pitch=1408 time=0.019474610416666666
EXTRACT: pitchwheel channel=1 pitch=1408 time=0.0031702854166666666
EXTRACT: note_off channel=9 note=42 velocity=47 time=0
EXTRACT: note_on channel=9 note=35 velocity=127 time=0
EXTRACT: note_on channel=9 note=42 velocity=79 time=0
EXTRACT: note_on channel=9 note=51 velocity=63 time=0
EXTRACT: pitchwheel channel=1 pitch=1408 time=0.217391
EXTRACT: pitchwheel channel=1 pitch=0 time=0
EXTRACT: note_off channel=1 note=40 velocity=95 time=0
EXTRACT: note_on channel=0 note=40 velocity=95 time=0
EXTRACT: note_off channel=9 note=35 velocity=127 time=0
EXTRACT: note_off channel=9 note=42 velocity=79 time=0
EXTRACT: note_off channel=9 note=51 velocity=63 time=0
EXTRACT: note_on channel=9 note=42 velocity=47 time=0
EXTRACT: note_off channel=0 note=40 velocity=95 time=0.217391
EXTRACT: note_on channel=0 note=38 velocity=95 time=0
EXTRACT: note_off channel=9 note=42 velocity=47 time=0
EXTRACT: note_on channel=9 note=40 velocity=111 time=0
EXTRACT: note_on channel=9 note=42 velocity=79 time=0
EXTRACT: note_on channel=9 note=51 velocity=63 time=0
EXTRACT: note_off channel=0 note=38 velocity=95 time=0.217391
EXTRACT: note_off channel=9 note=40 velocity=111 time=0
EXTRACT: note_off channel=9 note=42 velocity=79 time=0
EXTRACT: note_off channel=9 note=51 velocity=63 time=0
EXTRACT: note_on channel=9 note=42 velocity=47 time=0
EXTRACT: note_off channel=9 note=42 velocity=47 time=0.217391
EXTRACT: note_on channel=9 note=42 velocity=95 time=0
EXTRACT: note_on channel=9 note=51 velocity=79 time=0
EXTRACT: note_off channel=9 note=42 velocity=95 time=0.217391
EXTRACT: note_off channel=9 note=51 velocity=79 time=0
EXTRACT: note_on channel=9 note=35 velocity=127 time=0
EXTRACT: note_on channel=9 note=42 velocity=47 time=0
EXTRACT: note_off channel=9 note=35 velocity=127 time=0.217391
EXTRACT: note_off channel=9 note=42 velocity=47 time=0
EXTRACT: note_on channel=9 note=38 velocity=111 time=0
EXTRACT: note_on channel=9 note=39 velocity=95 time=0
EXTRACT: note_on channel=9 note=54 velocity=111 time=0
EXTRACT: note_on channel=9 note=41 velocity=111 time=0
EXTRACT: note_on channel=9 note=42 velocity=95 time=0
EXTRACT: note_on channel=9 note=51 velocity=79 time=0
EXTRACT: note_on channel=0 note=28 velocity=95 time=0.217391
EXTRACT: note_off channel=9 note=38 velocity=111 time=0
EXTRACT: note_off channel=9 note=39 velocity=95 time=0
EXTRACT: note_off channel=9 note=54 velocity=111 time=0
EXTRACT: note_off channel=9 note=41 velocity=111 time=0
EXTRACT: note_off channel=9 note=42 velocity=95 time=0
EXTRACT: note_off channel=9 note=51 velocity=79 time=0
EXTRACT: note_on channel=9 note=42 velocity=47 time=0
EXTRACT: note_off channel=9 note=42 velocity=47 time=0.217391
EXTRACT: note_on channel=9 note=35 velocity=127 time=0
EXTRACT: note_on channel=9 note=42 velocity=79 time=0
EXTRACT: note_on channel=9 note=51 velocity=63 time=0
EXTRACT: note_off channel=0 note=28 velocity=95 time=0.217391
EXTRACT: note_on channel=0 note=31 velocity=95 time=0
EXTRACT: note_off channel=9 note=35 velocity=127 time=0
EXTRACT: note_off channel=9 note=42 velocity=79 time=0
EXTRACT: note_off channel=9 note=51 velocity=63 time=0
EXTRACT: note_on channel=9 note=42 velocity=47 time=0
EXTRACT: note_off channel=0 note=31 velocity=95 time=0.217391
EXTRACT: note_on channel=0 note=35 velocity=95 time=0
EXTRACT: note_off channel=9 note=42 velocity=47 time=0
EXTRACT: note_on channel=9 note=40 velocity=111 time=0
EXTRACT: note_on channel=9 note=42 velocity=95 time=0
EXTRACT: note_on channel=9 note=51 velocity=79 time=0
EXTRACT: note_off channel=0 note=35 velocity=95 time=0.217391
EXTRACT: note_on channel=0 note=43 velocity=95 time=0
EXTRACT: note_off channel=9 note=40 velocity=111 time=0
EXTRACT: note_off channel=9 note=42 velocity=95 time=0
EXTRACT: note_off channel=9 note=51 velocity=79 time=0
EXTRACT: note_on channel=9 note=42 velocity=47 time=0
EXTRACT: note_off channel=0 note=43 velocity=95 time=0.217391
EXTRACT: note_on channel=0 note=40 velocity=95 time=0
EXTRACT: note_off channel=9 note=42 velocity=47 time=0
EXTRACT: note_on channel=9 note=35 velocity=127 time=0
EXTRACT: note_on channel=9 note=42 velocity=79 time=0
EXTRACT: note_on channel=9 note=51 velocity=63 time=0
EXTRACT: note_off channel=9 note=35 velocity=127 time=0.217391
EXTRACT: note_off channel=9 note=42 velocity=79 time=0
EXTRACT: note_off channel=9 note=51 velocity=63 time=0
EXTRACT: note_on channel=9 note=42 velocity=47 time=0
EXTRACT: note_off channel=0 note=40 velocity=95 time=0.217391
EXTRACT: note_off channel=9 note=42 velocity=47 time=0
EXTRACT: note_on channel=9 note=38 velocity=111 time=0
EXTRACT: note_on channel=9 note=39 velocity=95 time=0
EXTRACT: note_on channel=9 note=41 velocity=111 time=0
EXTRACT: note_on channel=9 note=54 velocity=95 time=0
EXTRACT: note_on channel=9 note=42 velocity=95 time=0
EXTRACT: note_on channel=9 note=51 velocity=79 time=0
EXTRACT: note_on channel=1 note=40 velocity=95 time=0.16304325
EXTRACT: note_off channel=1 note=40 velocity=95 time=0.05434775
EXTRACT: pitchwheel channel=1 pitch=0 time=0
EXTRACT: note_on channel=1 note=40 velocity=95 time=0
EXTRACT: note_off channel=9 note=38 velocity=111 time=0
EXTRACT: note_off channel=9 note=39 velocity=95 time=0
EXTRACT: note_off channel=9 note=41 velocity=111 time=0
EXTRACT: note_off channel=9 note=54 velocity=95 time=0
EXTRACT: note_off channel=9 note=42 velocity=95 time=0
EXTRACT: note_off channel=9 note=51 velocity=79 time=0
EXTRACT: note_on channel=9 note=42 velocity=47 time=0
EXTRACT: pitchwheel channel=1 pitch=128 time=0.019474610416666666
EXTRACT: pitchwheel channel=1 pitch=256 time=0.019474610416666666
EXTRACT: pitchwheel channel=1 pitch=384 time=0.019474610416666666
EXTRACT: pitchwheel channel=1 pitch=512 time=0.019474610416666666
EXTRACT: pitchwheel channel=1 pitch=640 time=0.019474610416666666
EXTRACT: pitchwheel channel=1 pitch=768 time=0.019474610416666666
EXTRACT: pitchwheel channel=1 pitch=896 time=0.019474610416666666
EXTRACT: pitchwheel channel=1 pitch=1024 time=0.019474610416666666
EXTRACT: pitchwheel channel=1 pitch=1152 time=0.019474610416666666
EXTRACT: pitchwheel channel=1 pitch=1280 time=0.019474610416666666
EXTRACT: pitchwheel channel=1 pitch=1408 time=0.019474610416666666
EXTRACT: pitchwheel channel=1 pitch=1408 time=0.0031702854166666666
EXTRACT: note_off channel=9 note=42 velocity=47 time=0
EXTRACT: note_on channel=9 note=35 velocity=127 time=0
EXTRACT: note_on channel=9 note=42 velocity=95 time=0
EXTRACT: note_on channel=9 note=51 velocity=79 time=0
EXTRACT: pitchwheel channel=1 pitch=1408 time=0.217391
EXTRACT: pitchwheel channel=1 pitch=0 time=0
EXTRACT: note_off channel=1 note=40 velocity=95 time=0
EXTRACT: note_on channel=0 note=40 velocity=79 time=0
EXTRACT: note_off channel=9 note=35 velocity=127 time=0
EXTRACT: note_off channel=9 note=42 velocity=95 time=0
EXTRACT: note_off channel=9 note=51 velocity=79 time=0
EXTRACT: note_on channel=9 note=42 velocity=47 time=0
EXTRACT: note_off channel=0 note=40 velocity=79 time=0.217391
EXTRACT: note_on channel=0 note=38 velocity=95 time=0
EXTRACT: note_off channel=9 note=42 velocity=47 time=0
EXTRACT: note_on channel=9 note=42 velocity=95 time=0
EXTRACT: note_on channel=9 note=51 velocity=79 time=0
EXTRACT: note_on channel=9 note=40 velocity=111 time=0
EXTRACT: note_off channel=0 note=38 velocity=95 time=0.217391
EXTRACT: note_off channel=9 note=42 velocity=95 time=0
EXTRACT: note_off channel=9 note=51 velocity=79 time=0
EXTRACT: note_off channel=9 note=40 velocity=111 time=0
EXTRACT: note_on channel=9 note=42 velocity=47 time=0
EXTRACT: note_on channel=0 note=38 velocity=95 time=0.217391
EXTRACT: note_off channel=9 note=42 velocity=47 time=0
EXTRACT: note_on channel=9 note=42 velocity=79 time=0
EXTRACT: note_on channel=9 note=51 velocity=63 time=0
EXTRACT: note_off channel=0 note=38 velocity=95 time=0.217391
EXTRACT: note_off channel=9 note=42 velocity=79 time=0
EXTRACT: note_off channel=9 note=51 velocity=63 time=0
EXTRACT: note_on channel=9 note=35 velocity=127 time=0
EXTRACT: note_on channel=9 note=42 velocity=47 time=0
EXTRACT: note_off channel=9 note=35 velocity=127 time=0.217391
EXTRACT: note_off channel=9 note=42 velocity=47 time=0
EXTRACT: note_on channel=9 note=38 velocity=111 time=0
EXTRACT: note_on channel=9 note=39 velocity=111 time=0
EXTRACT: note_on channel=9 note=54 velocity=95 time=0
EXTRACT: note_on channel=9 note=41 velocity=111 time=0
EXTRACT: note_on channel=9 note=42 velocity=95 time=0
EXTRACT: note_on channel=9 note=51 velocity=79 time=0
EXTRACT: note_on channel=0 note=28 velocity=95 time=0.217391
EXTRACT: note_off channel=9 note=38 velocity=111 time=0
EXTRACT: note_off channel=9 note=39 velocity=111 time=0
EXTRACT: note_off channel=9 note=54 velocity=95 time=0
EXTRACT: note_off channel=9 note=41 velocity=111 time=0
EXTRACT: note_off channel=9 note=42 velocity=95 time=0
EXTRACT: note_off channel=9 note=51 velocity=79 time=0
EXTRACT: note_on channel=9 note=42 velocity=47 time=0
EXTRACT: note_off channel=9 note=42 velocity=47 time=0.217391
EXTRACT: note_on channel=9 note=42 velocity=79 time=0
EXTRACT: note_on channel=9 note=51 velocity=63 time=0
EXTRACT: note_on channel=9 note=35 velocity=127 time=0
EXTRACT: note_off channel=0 note=28 velocity=95 time=0.217391
EXTRACT: note_on channel=0 note=31 velocity=95 time=0
EXTRACT: note_off channel=9 note=42 velocity=79 time=0
EXTRACT: note_off channel=9 note=51 velocity=63 time=0
EXTRACT: note_off channel=9 note=35 velocity=127 time=0
EXTRACT: note_on channel=9 note=42 velocity=47 time=0
EXTRACT: note_off channel=0 note=31 velocity=95 time=0.217391
EXTRACT: note_on channel=0 note=35 velocity=95 time=0
EXTRACT: note_off channel=9 note=42 velocity=47 time=0
EXTRACT: note_on channel=9 note=40 velocity=111 time=0
EXTRACT: note_on channel=9 note=42 velocity=95 time=0
EXTRACT: note_on channel=9 note=51 velocity=79 time=0
EXTRACT: note_off channel=0 note=35 velocity=95 time=0.217391
EXTRACT: note_on channel=0 note=43 velocity=95 time=0
EXTRACT: note_off channel=9 note=40 velocity=111 time=0
EXTRACT: note_off channel=9 note=42 velocity=95 time=0
EXTRACT: note_off channel=9 note=51 velocity=79 time=0
EXTRACT: note_on channel=9 note=42 velocity=47 time=0
EXTRACT: note_off channel=0 note=43 velocity=95 time=0.217391
EXTRACT: note_on channel=0 note=40 velocity=95 time=0
EXTRACT: note_off channel=9 note=42 velocity=47 time=0
EXTRACT: note_on channel=9 note=42 velocity=79 time=0
EXTRACT: note_on channel=9 note=51 velocity=63 time=0
EXTRACT: note_on channel=9 note=35 velocity=127 time=0
EXTRACT: note_off channel=9 note=42 velocity=79 time=0.217391
EXTRACT: note_off channel=9 note=51 velocity=63 time=0
EXTRACT: note_off channel=9 note=35 velocity=127 time=0
EXTRACT: note_on channel=9 note=42 velocity=47 time=0
EXTRACT: note_off channel=0 note=40 velocity=95 time=0.217391
EXTRACT: note_off channel=9 note=42 velocity=47 time=0
EXTRACT: note_on channel=9 note=39 velocity=95 time=0
EXTRACT: note_on channel=9 note=38 velocity=95 time=0
EXTRACT: note_on channel=9 note=41 velocity=111 time=0
EXTRACT: note_on channel=9 note=54 velocity=95 time=0
EXTRACT: note_on channel=9 note=42 velocity=95 time=0
EXTRACT: note_on channel=9 note=51 velocity=79 time=0
EXTRACT: note_on channel=1 note=40 velocity=95 time=0.16304325
EXTRACT: note_off channel=1 note=40 velocity=95 time=0.05434775
EXTRACT: pitchwheel channel=1 pitch=0 time=0
EXTRACT: note_on channel=1 note=40 velocity=95 time=0
EXTRACT: note_off channel=9 note=39 velocity=95 time=0
EXTRACT: note_off channel=9 note=38 velocity=95 time=0
EXTRACT: note_off channel=9 note=41 velocity=111 time=0
EXTRACT: note_off channel=9 note=54 velocity=95 time=0
EXTRACT: note_off channel=9 note=42 velocity=95 time=0
EXTRACT: note_off channel=9 note=51 velocity=79 time=0
EXTRACT: note_on channel=9 note=42 velocity=31 time=0
EXTRACT: pitchwheel channel=1 pitch=128 time=0.019474610416666666
EXTRACT: pitchwheel channel=1 pitch=256 time=0.019474610416666666
EXTRACT: pitchwheel channel=1 pitch=384 time=0.019474610416666666
EXTRACT: pitchwheel channel=1 pitch=512 time=0.019474610416666666
EXTRACT: pitchwheel channel=1 pitch=640 time=0.019474610416666666
EXTRACT: pitchwheel channel=1 pitch=768 time=0.019474610416666666
EXTRACT: pitchwheel channel=1 pitch=896 time=0.019474610416666666
EXTRACT: pitchwheel channel=1 pitch=1024 time=0.019474610416666666
EXTRACT: pitchwheel channel=1 pitch=1152 time=0.019474610416666666
EXTRACT: pitchwheel channel=1 pitch=1280 time=0.019474610416666666
EXTRACT: pitchwheel channel=1 pitch=1408 time=0.019474610416666666
EXTRACT: pitchwheel channel=1 pitch=1408 time=0.0031702854166666666
EXTRACT: note_off channel=9 note=42 velocity=31 time=0
EXTRACT: note_on channel=9 note=35 velocity=127 time=0
EXTRACT: note_on channel=9 note=42 velocity=95 time=0
EXTRACT: note_on channel=9 note=51 velocity=79 time=0
EXTRACT: pitchwheel channel=1 pitch=1408 time=0.217391
EXTRACT: pitchwheel channel=1 pitch=0 time=0
EXTRACT: note_off channel=1 note=40 velocity=95 time=0
EXTRACT: note_on channel=0 note=40 velocity=95 time=0
EXTRACT: note_off channel=9 note=35 velocity=127 time=0
EXTRACT: note_off channel=9 note=42 velocity=95 time=0
EXTRACT: note_off channel=9 note=51 velocity=79 time=0
EXTRACT: note_on channel=9 note=42 velocity=47 time=0
EXTRACT: note_off channel=0 note=40 velocity=95 time=0.217391
EXTRACT: note_on channel=0 note=38 velocity=95 time=0
EXTRACT: note_off channel=9 note=42 velocity=47 time=0
EXTRACT: note_on channel=9 note=40 velocity=111 time=0
EXTRACT: note_on channel=9 note=42 velocity=95 time=0
EXTRACT: note_on channel=9 note=51 velocity=79 time=0
EXTRACT: note_off channel=0 note=38 velocity=95 time=0.217391
EXTRACT: note_off channel=9 note=40 velocity=111 time=0
EXTRACT: note_off channel=9 note=42 velocity=95 time=0
EXTRACT: note_off channel=9 note=51 velocity=79 time=0
EXTRACT: note_on channel=9 note=42 velocity=47 time=0
EXTRACT: note_off channel=9 note=42 velocity=47 time=0.217391
EXTRACT: note_on channel=9 note=42 velocity=79 time=0
EXTRACT: note_on channel=9 note=51 velocity=63 time=0
EXTRACT: note_off channel=9 note=42 velocity=79 time=0.217391
EXTRACT: note_off channel=9 note=51 velocity=63 time=0
EXTRACT: note_on channel=9 note=35 velocity=127 time=0
EXTRACT: note_on channel=9 note=42 velocity=47 time=0
EXTRACT: note_off channel=9 note=35 velocity=127 time=0.217391
EXTRACT: note_off channel=9 note=42 velocity=47 time=0
EXTRACT: note_on channel=9 note=54 velocity=95 time=0
EXTRACT: note_on channel=9 note=39 velocity=95 time=0
EXTRACT: note_on channel=9 note=41 velocity=111 time=0
EXTRACT: note_on channel=9 note=38 velocity=95 time=0
EXTRACT: note_on channel=9 note=42 velocity=95 time=0
EXTRACT: note_on channel=9 note=51 velocity=79 time=0
EXTRACT: note_off channel=9 note=54 velocity=95 time=0.217391
EXTRACT: note_off channel=9 note=39 velocity=95 time=0
EXTRACT: note_off channel=9 note=41 velocity=111 time=0
EXTRACT: note_off channel=9 note=38 velocity=95 time=0
EXTRACT: note_off channel=9 note=42 velocity=95 time=0
EXTRACT: note_off channel=9 note=51 velocity=79 time=0
EXTRACT: note_on channel=9 note=42 velocity=47 time=0
EXTRACT: note_off channel=9 note=42 velocity=47 time=0.217391
EXTRACT: note_on channel=9 note=42 velocity=95 time=0
EXTRACT: note_on channel=9 note=51 velocity=79 time=0
EXTRACT: note_on channel=9 note=35 velocity=127 time=0
EXTRACT: note_on channel=2 note=71 velocity=95 time=0.217391
EXTRACT: note_on channel=0 note=40 velocity=79 time=0
EXTRACT: note_off channel=9 note=42 velocity=95 time=0
EXTRACT: note_off channel=9 note=51 velocity=79 time=0
EXTRACT: note_off channel=9 note=35 velocity=127 time=0
EXTRACT: note_on channel=9 note=42 velocity=31 time=0
EXTRACT: note_off channel=2 note=71 velocity=95 time=0.217391
EXTRACT: note_on channel=2 note=71 velocity=127 time=0
EXTRACT: note_off channel=0 note=40 velocity=79 time=0
EXTRACT: note_on channel=0 note=40 velocity=95 time=0
EXTRACT: note_off channel=9 note=42 velocity=31 time=0
EXTRACT: note_on channel=9 note=42 velocity=95 time=0
EXTRACT: note_on channel=9 note=51 velocity=79 time=0
EXTRACT: note_on channel=9 note=40 velocity=111 time=0
EXTRACT: note_off channel=2 note=71 velocity=127 time=0.217391
EXTRACT: note_on channel=2 note=71 velocity=127 time=0
EXTRACT: note_off channel=0 note=40 velocity=95 time=0
EXTRACT: note_off channel=9 note=42 velocity=95 time=0
EXTRACT: note_off channel=9 note=51 velocity=79 time=0
EXTRACT: note_off channel=9 note=40 velocity=111 time=0
EXTRACT: note_on channel=9 note=42 velocity=47 time=0
EXTRACT: note_off channel=2 note=71 velocity=127 time=0.217391
EXTRACT: note_on channel=2 note=69 velocity=127 time=0
EXTRACT: note_on channel=0 note=40 velocity=95 time=0
EXTRACT: note_off channel=9 note=42 velocity=47 time=0
EXTRACT: note_on channel=9 note=35 velocity=127 time=0
EXTRACT: note_on channel=9 note=42 velocity=95 time=0
EXTRACT: note_on channel=9 note=51 velocity=79 time=0
EXTRACT: note_off channel=2 note=69 velocity=127 time=0.217391
EXTRACT: note_on channel=2 note=71 velocity=127 time=0
EXTRACT: note_off channel=0 note=40 velocity=95 time=0
EXTRACT: note_off channel=9 note=35 velocity=127 time=0
EXTRACT: note_off channel=9 note=42 velocity=95 time=0
EXTRACT: note_off channel=9 note=51 velocity=79 time=0
EXTRACT: note_on channel=9 note=42 velocity=47 time=0
EXTRACT: note_off channel=2 note=71 velocity=127 time=0.217391
EXTRACT: note_on channel=2 note=69 velocity=127 time=0
EXTRACT: note_off channel=9 note=42 velocity=47 time=0
EXTRACT: note_on channel=9 note=38 velocity=111 time=0
EXTRACT: note_on channel=9 note=54 velocity=111 time=0
EXTRACT: note_on channel=9 note=41 velocity=111 time=0
EXTRACT: note_on channel=9 note=39 velocity=95 time=0
EXTRACT: note_on channel=9 note=42 velocity=95 time=0
EXTRACT: note_on channel=9 note=51 velocity=79 time=0
EXTRACT: note_off channel=2 note=69 velocity=127 time=0.217391
EXTRACT: note_on channel=2 note=71 velocity=127 time=0
EXTRACT: note_on channel=0 note=38 velocity=95 time=0
EXTRACT: note_off channel=9 note=38 velocity=111 time=0
EXTRACT: note_off channel=9 note=54 velocity=111 time=0
EXTRACT: note_off channel=9 note=41 velocity=111 time=0
EXTRACT: note_off channel=9 note=39 velocity=95 time=0
EXTRACT: note_off channel=9 note=42 velocity=95 time=0
EXTRACT: note_off channel=9 note=51 velocity=79 time=0
EXTRACT: note_on channel=9 note=42 velocity=47 time=0
EXTRACT: note_off channel=2 note=71 velocity=127 time=0.217391
EXTRACT: note_on channel=2 note=74 velocity=111 time=0
EXTRACT: note_off channel=0 note=38 velocity=95 time=0
EXTRACT: note_on channel=0 note=38 velocity=95 time=0
EXTRACT: note_off channel=9 note=42 velocity=47 time=0
EXTRACT: note_on channel=9 note=35 velocity=127 time=0
EXTRACT: note_on channel=9 note=42 velocity=79 time=0
EXTRACT: note_on channel=9 note=51 velocity=63 time=0
EXTRACT: note_off channel=2 note=74 velocity=111 time=0.217391
EXTRACT: note_on channel=2 note=71 velocity=111 time=0
EXTRACT: note_off channel=0 note=38 velocity=95 time=0
EXTRACT: note_off channel=9 note=35 velocity=127 time=0
EXTRACT: note_off channel=9 note=42 velocity=79 time=0
EXTRACT: note_off channel=9 note=51 velocity=63 time=0
EXTRACT: note_on channel=9 note=42 velocity=47 time=0
EXTRACT: note_off channel=2 note=71 velocity=111 time=0.217391
EXTRACT: note_on channel=2 note=69 velocity=127 time=0
EXTRACT: note_on channel=0 note=38 velocity=95 time=0
EXTRACT: note_off channel=9 note=42 velocity=47 time=0
EXTRACT: note_on channel=9 note=40 velocity=111 time=0
EXTRACT: note_on channel=9 note=42 velocity=95 time=0
EXTRACT: note_on channel=9 note=51 velocity=79 time=0
EXTRACT: note_off channel=2 note=69 velocity=127 time=0.217391
EXTRACT: note_off channel=0 note=38 velocity=95 time=0
EXTRACT: note_off channel=9 note=40 velocity=111 time=0
EXTRACT: note_off channel=9 note=42 velocity=95 time=0
EXTRACT: note_off channel=9 note=51 velocity=79 time=0
EXTRACT: note_on channel=9 note=42 velocity=47 time=0
EXTRACT: note_on channel=2 note=71 velocity=127 time=0.217391
EXTRACT: note_off channel=9 note=42 velocity=47 time=0
EXTRACT: note_on channel=9 note=42 velocity=79 time=0
EXTRACT: note_on channel=9 note=51 velocity=63 time=0
EXTRACT: note_off channel=2 note=71 velocity=127 time=0.217391
EXTRACT: note_off channel=9 note=42 velocity=79 time=0
EXTRACT: note_off channel=9 note=51 velocity=63 time=0
EXTRACT: note_on channel=9 note=35 velocity=127 time=0
EXTRACT: note_on channel=9 note=42 velocity=47 time=0
EXTRACT: note_off channel=9 note=35 velocity=127 time=0.217391
EXTRACT: note_off channel=9 note=42 velocity=47 time=0
EXTRACT: note_on channel=9 note=42 velocity=95 time=0
EXTRACT: note_on channel=9 note=51 velocity=79 time=0
EXTRACT: note_on channel=9 note=39 velocity=111 time=0
EXTRACT: note_on channel=9 note=41 velocity=111 time=0
EXTRACT: note_on channel=9 note=38 velocity=111 time=0
EXTRACT: note_on channel=9 note=54 velocity=127 time=0
EXTRACT: note_on channel=2 note=71 velocity=127 time=0.217391
EXTRACT: note_off channel=9 note=42 velocity=95 time=0
EXTRACT: note_off channel=9 note=51 velocity=79 time=0
EXTRACT: note_off channel=9 note=39 velocity=111 time=0
EXTRACT: note_off channel=9 note=41 velocity=111 time=0
EXTRACT: note_off channel=9 note=38 velocity=111 time=0
EXTRACT: note_off channel=9 note=54 velocity=127 time=0
EXTRACT: note_on channel=9 note=42 velocity=31 time=0
EXTRACT: note_off channel=2 note=71 velocity=127 time=0.217391
EXTRACT: note_on channel=2 note=71 velocity=111 time=0
EXTRACT: note_off channel=9 note=42 velocity=31 time=0
EXTRACT: note_on channel=9 note=35 velocity=127 time=0
EXTRACT: note_on channel=9 note=42 velocity=79 time=0
EXTRACT: note_on channel=9 note=51 velocity=63 time=0
EXTRACT: note_off channel=2 note=71 velocity=111 time=0.217391
EXTRACT: note_on channel=2 note=71 velocity=111 time=0
EXTRACT: note_on channel=0 note=40 velocity=95 time=0
EXTRACT: note_off channel=9 note=35 velocity=127 time=0
EXTRACT: note_off channel=9 note=42 velocity=79 time=0
EXTRACT: note_off channel=9 note=51 velocity=63 time=0
EXTRACT: note_on channel=9 note=42 velocity=47 time=0
EXTRACT: note_off channel=2 note=71 velocity=111 time=0.217391
EXTRACT: note_on channel=2 note=71 velocity=111 time=0
EXTRACT: note_off channel=0 note=40 velocity=95 time=0
EXTRACT: note_on channel=0 note=40 velocity=95 time=0
EXTRACT: note_off channel=9 note=42 velocity=47 time=0
EXTRACT: note_on channel=9 note=40 velocity=111 time=0
EXTRACT: note_on channel=9 note=42 velocity=95 time=0
EXTRACT: note_on channel=9 note=51 velocity=79 time=0
EXTRACT: note_off channel=2 note=71 velocity=111 time=0.217391
EXTRACT: note_on channel=2 note=71 velocity=111 time=0
EXTRACT: note_off channel=0 note=40 velocity=95 time=0
EXTRACT: note_off channel=9 note=40 velocity=111 time=0
EXTRACT: note_off channel=9 note=42 velocity=95 time=0
EXTRACT: note_off channel=9 note=51 velocity=79 time=0
EXTRACT: note_on channel=9 note=42 velocity=47 time=0
EXTRACT: note_off channel=2 note=71 velocity=111 time=0.217391
EXTRACT: note_on channel=2 note=71 velocity=111 time=0
EXTRACT: note_on channel=0 note=40 velocity=95 time=0
EXTRACT: note_off channel=9 note=42 velocity=47 time=0
EXTRACT: note_on channel=9 note=35 velocity=127 time=0
EXTRACT: note_on channel=9 note=42 velocity=79 time=0
EXTRACT: note_on channel=9 note=51 velocity=63 time=0
EXTRACT: note_off channel=2 note=71 velocity=111 time=0.217391
EXTRACT: note_on channel=2 note=71 velocity=127 time=0
EXTRACT: note_off channel=0 note=40 velocity=95 time=0
EXTRACT: note_off channel=9 note=35 velocity=127 time=0
EXTRACT: note_off channel=9 note=42 velocity=79 time=0
EXTRACT: note_off channel=9 note=51 velocity=63 time=0
EXTRACT: note_on channel=9 note=42 velocity=47 time=0
EXTRACT: note_off channel=2 note=71 velocity=127 time=0.217391
EXTRACT: note_on channel=2 note=69 velocity=127 time=0
EXTRACT: note_off channel=9 note=42 velocity=47 time=0
EXTRACT: note_on channel=9 note=39 velocity=95 time=0
EXTRACT: note_on channel=9 note=38 velocity=95 time=0
EXTRACT: note_on channel=9 note=41 velocity=111 time=0
EXTRACT: note_on channel=9 note=54 velocity=127 time=0
EXTRACT: note_on channel=9 note=42 velocity=95 time=0
EXTRACT: note_on channel=9 note=51 velocity=79 time=0
EXTRACT: note_off channel=2 note=69 velocity=127 time=0.217391
EXTRACT: note_on channel=2 note=67 velocity=111 time=0
EXTRACT: note_on channel=0 note=38 velocity=95 time=0
EXTRACT: note_off channel=9 note=39 velocity=95 time=0
EXTRACT: note_off channel=9 note=38 velocity=95 time=0
EXTRACT: note_off channel=9 note=41 velocity=111 time=0
EXTRACT: note_off channel=9 note=54 velocity=127 time=0
EXTRACT: note_off channel=9 note=42 velocity=95 time=0
EXTRACT: note_off channel=9 note=51 velocity=79 time=0
EXTRACT: note_on channel=9 note=42 velocity=47 time=0
EXTRACT: note_off channel=2 note=67 velocity=111 time=0.217391
EXTRACT: note_on channel=2 note=69 velocity=127 time=0
EXTRACT: note_off channel=0 note=38 velocity=95 time=0
EXTRACT: note_on channel=0 note=38 velocity=95 time=0
EXTRACT: note_off channel=9 note=42 velocity=47 time=0
EXTRACT: note_on channel=9 note=42 velocity=79 time=0
EXTRACT: note_on channel=9 note=51 velocity=63 time=0
EXTRACT: note_on channel=9 note=35 velocity=127 time=0
EXTRACT: note_off channel=2 note=69 velocity=127 time=0.217391
EXTRACT: note_on channel=2 note=67 velocity=111 time=0
EXTRACT: note_off channel=0 note=38 velocity=95 time=0
EXTRACT: note_off channel=9 note=42 velocity=79 time=0
EXTRACT: note_off channel=9 note=51 velocity=63 time=0
EXTRACT: note_off channel=9 note=35 velocity=127 time=0
EXTRACT: note_on channel=9 note=42 velocity=47 time=0
EXTRACT: note_off channel=2 note=67 velocity=111 time=0.217391
EXTRACT: note_on channel=2 note=71 velocity=127 time=0
EXTRACT: note_on channel=0 note=38 velocity=95 time=0
EXTRACT: note_off channel=9 note=42 velocity=47 time=0
EXTRACT: note_on channel=9 note=42 velocity=95 time=0
EXTRACT: note_on channel=9 note=51 velocity=79 time=0
EXTRACT: note_on channel=9 note=40 velocity=111 time=0
EXTRACT: note_off channel=2 note=71 velocity=127 time=0.217391
EXTRACT: note_off channel=0 note=38 velocity=95 time=0
EXTRACT: note_off channel=9 note=42 velocity=95 time=0
EXTRACT: note_off channel=9 note=51 velocity=79 time=0
EXTRACT: note_off channel=9 note=40 velocity=111 time=0
EXTRACT: note_on channel=9 note=42 velocity=47 time=0
EXTRACT: note_off channel=9 note=42 velocity=47 time=0.217391
EXTRACT: note_on channel=9 note=42 velocity=79 time=0
EXTRACT: note_on channel=9 note=51 velocity=63 time=0
EXTRACT: note_off channel=9 note=42 velocity=79 time=0.217391
EXTRACT: note_off channel=9 note=51 velocity=63 time=0
EXTRACT: note_on channel=9 note=35 velocity=127 time=0
EXTRACT: note_on channel=9 note=42 velocity=47 time=0
EXTRACT: note_off channel=9 note=35 velocity=127 time=0.217391
EXTRACT: note_off channel=9 note=42 velocity=47 time=0
EXTRACT: note_on channel=9 note=42 velocity=95 time=0
EXTRACT: note_on channel=9 note=51 velocity=79 time=0
EXTRACT: note_on channel=9 note=38 velocity=111 time=0
EXTRACT: note_on channel=9 note=39 velocity=95 time=0
EXTRACT: note_on channel=9 note=54 velocity=111 time=0
EXTRACT: note_on channel=9 note=41 velocity=111 time=0
EXTRACT: note_on channel=2 note=71 velocity=127 time=0.217391
EXTRACT: note_off channel=9 note=42 velocity=95 time=0
EXTRACT: note_off channel=9 note=51 velocity=79 time=0
EXTRACT: note_off channel=9 note=38 velocity=111 time=0
EXTRACT: note_off channel=9 note=39 velocity=95 time=0
EXTRACT: note_off channel=9 note=54 velocity=111 time=0
EXTRACT: note_off channel=9 note=41 velocity=111 time=0
EXTRACT: note_on channel=9 note=42 velocity=31 time=0
EXTRACT: note_off channel=2 note=71 velocity=127 time=0.217391
EXTRACT: note_on channel=2 note=69 velocity=111 time=0
EXTRACT: note_off channel=9 note=42 velocity=31 time=0
EXTRACT: note_on channel=9 note=42 velocity=79 time=0
EXTRACT: note_on channel=9 note=35 velocity=127 time=0
EXTRACT: note_on channel=9 note=51 velocity=63 time=0
EXTRACT: note_off channel=2 note=69 velocity=111 time=0.217391
EXTRACT: note_on channel=2 note=67 velocity=111 time=0
EXTRACT: note_on channel=0 note=36 velocity=95 time=0
EXTRACT: note_off channel=9 note=42 velocity=79 time=0
EXTRACT: note_off channel=9 note=35 velocity=127 time=0
EXTRACT: note_off channel=9 note=51 velocity=63 time=0
EXTRACT: note_on channel=9 note=42 velocity=47 time=0
EXTRACT: note_off channel=2 note=67 velocity=111 time=0.217391
EXTRACT: note_on channel=2 note=64 velocity=111 time=0
EXTRACT: note_off channel=0 note=36 velocity=95 time=0
EXTRACT: note_on channel=0 note=36 velocity=95 time=0
EXTRACT: note_off channel=9 note=42 velocity=47 time=0
EXTRACT: note_on channel=9 note=40 velocity=111 time=0
EXTRACT: note_on channel=9 note=51 velocity=63 time=0
EXTRACT: note_on channel=9 note=42 velocity=95 time=0
EXTRACT: note_off channel=2 note=64 velocity=111 time=0.217391
EXTRACT: note_on channel=2 note=62 velocity=111 time=0
EXTRACT: note_off channel=0 note=36 velocity=95 time=0
EXTRACT: note_off channel=9 note=40 velocity=111 time=0
EXTRACT: note_off channel=9 note=51 velocity=63 time=0
EXTRACT: note_off channel=9 note=42 velocity=95 time=0
EXTRACT: note_on channel=9 note=42 velocity=47 time=0
EXTRACT: note_off channel=2 note=62 velocity=111 time=0.217391
EXTRACT: note_on channel=2 note=64 velocity=127 time=0
EXTRACT: note_on channel=0 note=36 velocity=95 time=0
EXTRACT: note_off channel=9 note=42 velocity=47 time=0
EXTRACT: note_on channel=9 note=42 velocity=79 time=0
EXTRACT: note_on channel=9 note=51 velocity=63 time=0
EXTRACT: note_on channel=9 note=35 velocity=127 time=0
EXTRACT: note_off channel=2 note=64 velocity=127 time=0.217391
EXTRACT: note_off channel=0 note=36 velocity=95 time=0
EXTRACT: note_off channel=9 note=42 velocity=79 time=0
EXTRACT: note_off channel=9 note=51 velocity=63 time=0
EXTRACT: note_off channel=9 note=35 velocity=127 time=0
EXTRACT: note_on channel=9 note=42 velocity=47 time=0
EXTRACT: note_on channel=2 note=64 velocity=127 time=0.217391
EXTRACT: note_off channel=9 note=42 velocity=47 time=0
EXTRACT: note_on channel=9 note=38 velocity=111 time=0
EXTRACT: note_on channel=9 note=39 velocity=95 time=0
EXTRACT: note_on channel=9 note=41 velocity=111 time=0
EXTRACT: note_on channel=9 note=54 velocity=95 time=0
EXTRACT: note_on channel=9 note=42 velocity=95 time=0
EXTRACT: note_on channel=9 note=51 velocity=63 time=0
EXTRACT: note_off channel=2 note=64 velocity=127 time=0.217391
EXTRACT: note_on channel=2 note=64 velocity=111 time=0
EXTRACT: note_on channel=0 note=38 velocity=95 time=0
EXTRACT: note_off channel=9 note=38 velocity=111 time=0
EXTRACT: note_off channel=9 note=39 velocity=95 time=0
EXTRACT: note_off channel=9 note=41 velocity=111 time=0
EXTRACT: note_off channel=9 note=54 velocity=95 time=0
EXTRACT: note_off channel=9 note=42 velocity=95 time=0
EXTRACT: note_off channel=9 note=51 velocity=63 time=0
EXTRACT: note_on channel=9 note=42 velocity=31 time=0
EXTRACT: note_off channel=2 note=64 velocity=111 time=0.217391
EXTRACT: note_on channel=2 note=66 velocity=127 time=0
EXTRACT: note_off channel=0 note=38 velocity=95 time=0
EXTRACT: note_on channel=0 note=38 velocity=95 time=0
EXTRACT: note_off channel=9 note=42 velocity=31 time=0
EXTRACT: note_on channel=9 note=51 velocity=63 time=0
EXTRACT: note_on channel=9 note=35 velocity=127 time=0
EXTRACT: note_on channel=9 note=42 velocity=79 time=0
EXTRACT: note_off channel=2 note=66 velocity=127 time=0.217391
EXTRACT: note_on channel=2 note=64 velocity=127 time=0
EXTRACT: note_off channel=0 note=38 velocity=95 time=0
EXTRACT: note_off channel=9 note=51 velocity=63 time=0
EXTRACT: note_off channel=9 note=35 velocity=127 time=0
EXTRACT: note_off channel=9 note=42 velocity=79 time=0
EXTRACT: note_on channel=9 note=42 velocity=47 time=0
EXTRACT: note_off channel=2 note=64 velocity=127 time=0.217391
EXTRACT: note_on channel=2 note=62 velocity=127 time=0
EXTRACT: note_on channel=0 note=38 velocity=95 time=0
EXTRACT: note_off channel=9 note=42 velocity=47 time=0
EXTRACT: note_on channel=9 note=42 velocity=95 time=0
EXTRACT: note_on channel=9 note=51 velocity=63 time=0
EXTRACT: note_on channel=9 note=40 velocity=111 time=0
EXTRACT: note_off channel=2 note=62 velocity=127 time=0.217391
EXTRACT: note_on channel=2 note=59 velocity=127 time=0
EXTRACT: note_off channel=0 note=38 velocity=95 time=0
EXTRACT: note_off channel=9 note=42 velocity=95 time=0
EXTRACT: note_off channel=9 note=51 velocity=63 time=0
EXTRACT: note_off channel=9 note=40 velocity=111 time=0
EXTRACT: note_on channel=9 note=42 velocity=47 time=0
EXTRACT: note_off channel=2 note=59 velocity=127 time=0.217391
EXTRACT: note_on channel=2 note=62 velocity=111 time=0
EXTRACT: note_off channel=9 note=42 velocity=47 time=0
EXTRACT: note_on channel=9 note=42 velocity=79 time=0
EXTRACT: note_on channel=9 note=51 velocity=63 time=0
EXTRACT: note_off channel=2 note=62 velocity=111 time=0.217391
EXTRACT: note_off channel=9 note=42 velocity=79 time=0
EXTRACT: note_off channel=9 note=51 velocity=63 time=0
EXTRACT: note_on channel=9 note=35 velocity=127 time=0
EXTRACT: note_on channel=9 note=42 velocity=47 time=0
EXTRACT: note_on channel=2 note=64 velocity=127 time=0.217391
EXTRACT: note_off channel=9 note=35 velocity=127 time=0
EXTRACT: note_off channel=9 note=42 velocity=47 time=0
EXTRACT: note_on channel=9 note=38 velocity=111 time=0
EXTRACT: note_on channel=9 note=39 velocity=111 time=0
EXTRACT: note_on channel=9 note=54 velocity=95 time=0
EXTRACT: note_on channel=9 note=41 velocity=111 time=0
EXTRACT: note_on channel=9 note=42 velocity=95 time=0
EXTRACT: note_on channel=9 note=51 velocity=63 time=0
EXTRACT: note_off channel=2 note=64 velocity=127 time=0.217391
EXTRACT: note_off channel=9 note=38 velocity=111 time=0
EXTRACT: note_off channel=9 note=39 velocity=111 time=0
EXTRACT: note_off channel=9 note=54 velocity=95 time=0
EXTRACT: note_off channel=9 note=41 velocity=111 time=0
EXTRACT: note_off channel=9 note=42 velocity=95 time=0
EXTRACT: note_off channel=9 note=51 velocity=63 time=0
EXTRACT: note_on channel=9 note=42 velocity=47 time=0
EXTRACT: note_on channel=2 note=67 velocity=127 time=0.217391
EXTRACT: note_off channel=9 note=42 velocity=47 time=0
EXTRACT: note_on channel=9 note=42 velocity=79 time=0
EXTRACT: note_on channel=9 note=35 velocity=127 time=0
EXTRACT: note_on channel=9 note=51 velocity=63 time=0
EXTRACT: note_off channel=2 note=67 velocity=127 time=0.217391
EXTRACT: note_on channel=2 note=64 velocity=127 time=0
EXTRACT: note_on channel=0 note=40 velocity=79 time=0
EXTRACT: note_off channel=9 note=42 velocity=79 time=0
EXTRACT: note_off channel=9 note=35 velocity=127 time=0
EXTRACT: note_off channel=9 note=51 velocity=63 time=0
EXTRACT: note_on channel=9 note=42 velocity=47 time=0
EXTRACT: note_off channel=2 note=64 velocity=127 time=0.217391
EXTRACT: note_off channel=0 note=40 velocity=79 time=0
EXTRACT: note_on channel=0 note=40 velocity=95 time=0
EXTRACT: note_off channel=9 note=42 velocity=47 time=0
EXTRACT: note_on channel=9 note=40 velocity=111 time=0
EXTRACT: note_on channel=9 note=42 velocity=95 time=0
EXTRACT: note_on channel=9 note=51 velocity=63 time=0
EXTRACT: note_off channel=0 note=40 velocity=95 time=0.217391
EXTRACT: note_off channel=9 note=40 velocity=111 time=0
EXTRACT: note_off channel=9 note=42 velocity=95 time=0
EXTRACT: note_off channel=9 note=51 velocity=63 time=0
EXTRACT: note_on channel=9 note=42 velocity=47 time=0
EXTRACT: note_on channel=0 note=40 velocity=95 time=0.217391
EXTRACT: note_off channel=9 note=42 velocity=47 time=0
EXTRACT: note_on channel=9 note=42 velocity=79 time=0
EXTRACT: note_on channel=9 note=35 velocity=127 time=0
EXTRACT: note_on channel=9 note=51 velocity=79 time=0
EXTRACT: note_off channel=0 note=40 velocity=95 time=0.217391
EXTRACT: note_off channel=9 note=42 velocity=79 time=0
EXTRACT: note_off channel=9 note=35 velocity=127 time=0
EXTRACT: note_off channel=9 note=51 velocity=79 time=0
EXTRACT: note_on channel=9 note=42 velocity=47 time=0
EXTRACT: note_on channel=2 note=64 velocity=127 time=0.217391
EXTRACT: note_off channel=9 note=42 velocity=47 time=0
EXTRACT: note_on channel=9 note=39 velocity=95 time=0
EXTRACT: note_on channel=9 note=38 velocity=95 time=0
EXTRACT: note_on channel=9 note=41 velocity=111 time=0
EXTRACT: note_on channel=9 note=54 velocity=95 time=0
EXTRACT: note_on channel=9 note=42 velocity=95 time=0
EXTRACT: note_on channel=9 note=51 velocity=79 time=0
EXTRACT: note_off channel=2 note=64 velocity=127 time=0.217391
EXTRACT: note_on channel=0 note=38 velocity=95 time=0
EXTRACT: note_off channel=9 note=39 velocity=95 time=0
EXTRACT: note_off channel=9 note=38 velocity=95 time=0
EXTRACT: note_off channel=9 note=41 velocity=111 time=0
EXTRACT: note_off channel=9 note=54 velocity=95 time=0
EXTRACT: note_off channel=9 note=42 velocity=95 time=0
EXTRACT: note_off channel=9 note=51 velocity=79 time=0
EXTRACT: note_on channel=9 note=42 velocity=47 time=0
EXTRACT: note_on channel=2 note=66 velocity=127 time=0.217391
EXTRACT: note_off channel=0 note=38 velocity=95 time=0
EXTRACT: note_on channel=0 note=38 velocity=95 time=0
EXTRACT: note_off channel=9 note=42 velocity=47 time=0
EXTRACT: note_on channel=9 note=35 velocity=127 time=0
EXTRACT: note_on channel=9 note=42 velocity=95 time=0
EXTRACT: note_on channel=9 note=51 velocity=63 time=0
EXTRACT: note_off channel=2 note=66 velocity=127 time=0.217391
EXTRACT: note_on channel=2 note=62 velocity=127 time=0
EXTRACT: note_off channel=0 note=38 velocity=95 time=0
EXTRACT: note_off channel=9 note=35 velocity=127 time=0
EXTRACT: note_off channel=9 note=42 velocity=95 time=0
EXTRACT: note_off channel=9 note=51 velocity=63 time=0
EXTRACT: note_on channel=9 note=42 velocity=47 time=0
EXTRACT: note_off channel=2 note=62 velocity=127 time=0.217391
EXTRACT: note_on channel=0 note=38 velocity=95 time=0
EXTRACT: note_off channel=9 note=42 velocity=47 time=0
EXTRACT: note_on channel=9 note=40 velocity=111 time=0
EXTRACT: note_on channel=9 note=42 velocity=95 time=0
EXTRACT: note_on channel=9 note=51 velocity=79 time=0
EXTRACT: note_off channel=0 note=38 velocity=95 time=0.217391
EXTRACT: note_off channel=9 note=40 velocity=111 time=0
EXTRACT: note_off channel=9 note=42 velocity=95 time=0
EXTRACT: note_off channel=9 note=51 velocity=79 time=0
EXTRACT: note_on channel=9 note=42 velocity=47 time=0
EXTRACT: note_off channel=9 note=42 velocity=47 time=0.217391
EXTRACT: note_on channel=9 note=42 velocity=79 time=0
EXTRACT: note_on channel=9 note=51 velocity=63 time=0
EXTRACT: note_off channel=9 note=42 velocity=79 time=0.217391
EXTRACT: note_off channel=9 note=51 velocity=63 time=0
EXTRACT: note_on channel=9 note=35 velocity=127 time=0
EXTRACT: note_on channel=9 note=42 velocity=47 time=0
EXTRACT: note_off channel=9 note=35 velocity=127 time=0.217391
EXTRACT: note_off channel=9 note=42 velocity=47 time=0
EXTRACT: note_on channel=9 note=54 velocity=95 time=0
EXTRACT: note_on channel=9 note=39 velocity=95 time=0
EXTRACT: note_on channel=9 note=41 velocity=111 time=0
EXTRACT: note_on channel=9 note=38 velocity=95 time=0
EXTRACT: note_on channel=9 note=42 velocity=95 time=0
EXTRACT: note_on channel=9 note=51 velocity=79 time=0
EXTRACT: note_off channel=9 note=54 velocity=95 time=0.217391
EXTRACT: note_off channel=9 note=39 velocity=95 time=0
EXTRACT: note_off channel=9 note=41 velocity=111 time=0
EXTRACT: note_off channel=9 note=38 velocity=95 time=0
EXTRACT: note_off channel=9 note=42 velocity=95 time=0
EXTRACT: note_off channel=9 note=51 velocity=79 time=0
EXTRACT: note_on channel=9 note=42 velocity=47 time=0
EXTRACT: note_off channel=9 note=42 velocity=47 time=0.217391
EXTRACT: note_on channel=9 note=49 velocity=79 time=0
EXTRACT: note_on channel=9 note=35 velocity=127 time=0
EXTRACT: note_on channel=2 note=71 velocity=127 time=0.217391
EXTRACT: note_on channel=0 note=40 velocity=79 time=0
EXTRACT: note_off channel=9 note=49 velocity=79 time=0
EXTRACT: note_off channel=9 note=35 velocity=127 time=0
EXTRACT: note_on channel=9 note=42 velocity=47 time=0
EXTRACT: note_off channel=2 note=71 velocity=127 time=0.217391
EXTRACT: note_on channel=2 note=71 velocity=127 time=0
EXTRACT: note_off channel=0 note=40 velocity=79 time=0
EXTRACT: note_on channel=0 note=40 velocity=95 time=0
EXTRACT: note_off channel=9 note=42 velocity=47 time=0
EXTRACT: note_on channel=9 note=42 velocity=79 time=0
EXTRACT: note_on channel=9 note=51 velocity=79 time=0
EXTRACT: note_on channel=9 note=40 velocity=111 time=0
EXTRACT: note_off channel=2 note=71 velocity=127 time=0.217391
EXTRACT: note_on channel=2 note=71 velocity=111 time=0
EXTRACT: note_off channel=0 note=40 velocity=95 time=0
EXTRACT: note_off channel=9 note=42 velocity=79 time=0
EXTRACT: note_off channel=9 note=51 velocity=79 time=0
EXTRACT: note_off channel=9 note=40 velocity=111 time=0
EXTRACT: note_on channel=9 note=42 velocity=47 time=0
EXTRACT: note_off channel=2 note=71 velocity=111 time=0.217391
EXTRACT: note_on channel=2 note=71 velocity=127 time=0
EXTRACT: note_on channel=0 note=40 velocity=95 time=0
EXTRACT: note_off channel=9 note=42 velocity=47 time=0
EXTRACT: note_on channel=9 note=35 velocity=127 time=0
EXTRACT: note_on channel=9 note=42 velocity=79 time=0
EXTRACT: note_on channel=9 note=51 velocity=63 time=0
EXTRACT: note_off channel=2 note=71 velocity=127 time=0.217391
EXTRACT: note_on channel=2 note=71 velocity=127 time=0
EXTRACT: note_off channel=0 note=40 velocity=95 time=0
EXTRACT: note_off channel=9 note=35 velocity=127 time=0
EXTRACT: note_off channel=9 note=42 velocity=79 time=0
EXTRACT: note_off channel=9 note=51 velocity=63 time=0
EXTRACT: note_on channel=9 note=42 velocity=47 time=0
EXTRACT: note_off channel=2 note=71 velocity=127 time=0.217391
EXTRACT: note_on channel=2 note=69 velocity=127 time=0
EXTRACT: note_off channel=9 note=42 velocity=47 time=0
EXTRACT: note_on channel=9 note=38 velocity=111 time=0
EXTRACT: note_on channel=9 note=54 velocity=111 time=0
EXTRACT: note_on channel=9 note=41 velocity=111 time=0
EXTRACT: note_on channel=9 note=39 velocity=95 time=0
EXTRACT: note_on channel=9 note=42 velocity=95 time=0
EXTRACT: note_on channel=9 note=51 velocity=79 time=0
EXTRACT: note_off channel=2 note=69 velocity=127 time=0.217391
EXTRACT: note_on channel=2 note=71 velocity=127 time=0
EXTRACT: note_on channel=0 note=38 velocity=95 time=0
EXTRACT: note_off channel=9 note=38 velocity=111 time=0
EXTRACT: note_off channel=9 note=54 velocity=111 time=0
EXTRACT: note_off channel=9 note=41 velocity=111 time=0
EXTRACT: note_off channel=9 note=39 velocity=95 time=0
EXTRACT: note_off channel=9 note=42 velocity=95 time=0
EXTRACT: note_off channel=9 note=51 velocity=79 time=0
EXTRACT: note_on channel=9 note=42 velocity=47 time=0
EXTRACT: note_off channel=2 note=71 velocity=127 time=0.217391
EXTRACT: note_on channel=2 note=74 velocity=111 time=0
EXTRACT: note_off channel=0 note=38 velocity=95 time=0
EXTRACT: note_on channel=0 note=38 velocity=95 time=0
EXTRACT: note_off channel=9 note=42 velocity=47 time=0
EXTRACT: note_on channel=9 note=35 velocity=127 time=0
EXTRACT: note_on channel=9 note=42 velocity=79 time=0
EXTRACT: note_on channel=9 note=51 velocity=63 time=0
EXTRACT: note_off channel=2 note=74 velocity=111 time=0.217391
EXTRACT: note_on channel=2 note=71 velocity=127 time=0
EXTRACT: note_off channel=0 note=38 velocity=95 time=0
EXTRACT: note_off channel=9 note=35 velocity=127 time=0
EXTRACT: note_off channel=9 note=42 velocity=79 time=0
EXTRACT: note_off channel=9 note=51 velocity=63 time=0
EXTRACT: note_on channel=9 note=42 velocity=47 time=0
EXTRACT: note_off channel=2 note=71 velocity=127 time=0.217391
EXTRACT: note_on channel=2 note=69 velocity=127 time=0
EXTRACT: note_on channel=0 note=38 velocity=95 time=0
EXTRACT: note_off channel=9 note=42 velocity=47 time=0
EXTRACT: note_on channel=9 note=40 velocity=111 time=0
EXTRACT: note_on channel=9 note=42 velocity=95 time=0
EXTRACT: note_on channel=9 note=51 velocity=79 time=0
EXTRACT: note_off channel=2 note=69 velocity=127 time=0.217391
EXTRACT: note_off channel=0 note=38 velocity=95 time=0
EXTRACT: note_off channel=9 note=40 velocity=111 time=0
EXTRACT: note_off channel=9 note=42 velocity=95 time=0
EXTRACT: note_off channel=9 note=51 velocity=79 time=0
EXTRACT: note_on channel=9 note=42 velocity=47 time=0
EXTRACT: note_on channel=2 note=71 velocity=127 time=0.217391
EXTRACT: note_off channel=9 note=42 velocity=47 time=0
EXTRACT: note_on channel=9 note=42 velocity=79 time=0
EXTRACT: note_on channel=9 note=51 velocity=63 time=0
EXTRACT: note_off channel=2 note=71 velocity=127 time=0.217391
EXTRACT: note_off channel=9 note=42 velocity=79 time=0
EXTRACT: note_off channel=9 note=51 velocity=63 time=0
EXTRACT: note_on channel=9 note=35 velocity=127 time=0
EXTRACT: note_on channel=9 note=42 velocity=47 time=0
EXTRACT: note_off channel=9 note=35 velocity=127 time=0.217391
EXTRACT: note_off channel=9 note=42 velocity=47 time=0
EXTRACT: note_on channel=9 note=42 velocity=95 time=0
EXTRACT: note_on channel=9 note=39 velocity=111 time=0
EXTRACT: note_on channel=9 note=41 velocity=111 time=0
EXTRACT: note_on channel=9 note=38 velocity=111 time=0
EXTRACT: note_on channel=9 note=54 velocity=127 time=0
EXTRACT: note_on channel=9 note=51 velocity=79 time=0
EXTRACT: note_on channel=2 note=71 velocity=127 time=0.217391
EXTRACT: note_off channel=9 note=42 velocity=95 time=0
EXTRACT: note_off channel=9 note=39 velocity=111 time=0
EXTRACT: note_off channel=9 note=41 velocity=111 time=0
EXTRACT: note_off channel=9 note=38 velocity=111 time=0
EXTRACT: note_off channel=9 note=54 velocity=127 time=0
EXTRACT: note_off channel=9 note=51 velocity=79 time=0
EXTRACT: note_on channel=9 note=42 velocity=47 time=0
EXTRACT: note_off channel=2 note=71 velocity=127 time=0.217391
EXTRACT: note_on channel=2 note=71 velocity=111 time=0
EXTRACT: note_off channel=9 note=42 velocity=47 time=0
EXTRACT: note_on channel=9 note=42 velocity=79 time=0
EXTRACT: note_on channel=9 note=35 velocity=127 time=0
EXTRACT: note_on channel=9 note=51 velocity=79 time=0
EXTRACT: note_off channel=2 note=71 velocity=111 time=0.217391
EXTRACT: note_on channel=2 note=71 velocity=111 time=0
EXTRACT: note_on channel=0 note=40 velocity=79 time=0
EXTRACT: note_off channel=9 note=42 velocity=79 time=0
EXTRACT: note_off channel=9 note=35 velocity=127 time=0
EXTRACT: note_off channel=9 note=51 velocity=79 time=0
EXTRACT: note_on channel=9 note=42 velocity=47 time=0
EXTRACT: note_off channel=2 note=71 velocity=111 time=0.217391
EXTRACT: note_on channel=2 note=71 velocity=111 time=0
EXTRACT: note_off channel=0 note=40 velocity=79 time=0
EXTRACT: note_on channel=0 note=40 velocity=95 time=0
EXTRACT: note_off channel=9 note=42 velocity=47 time=0
EXTRACT: note_on channel=9 note=40 velocity=111 time=0
EXTRACT: note_on channel=9 note=42 velocity=95 time=0
EXTRACT: note_on channel=9 note=51 velocity=79 time=0
EXTRACT: note_off channel=2 note=71 velocity=111 time=0.217391
EXTRACT: note_on channel=2 note=71 velocity=127 time=0
EXTRACT: note_off channel=0 note=40 velocity=95 time=0
EXTRACT: note_off channel=9 note=40 velocity=111 time=0
EXTRACT: note_off channel=9 note=42 velocity=95 time=0
EXTRACT: note_off channel=9 note=51 velocity=79 time=0
EXTRACT: note_on channel=9 note=42 velocity=47 time=0
EXTRACT: note_off channel=2 note=71 velocity=127 time=0.217391
EXTRACT: note_on channel=2 note=69 velocity=111 time=0
EXTRACT: note_on channel=0 note=40 velocity=95 time=0
EXTRACT: note_off channel=9 note=42 velocity=47 time=0
EXTRACT: note_on channel=9 note=35 velocity=127 time=0
EXTRACT: note_on channel=9 note=51 velocity=63 time=0
EXTRACT: note_on channel=9 note=42 velocity=95 time=0
EXTRACT: note_off channel=2 note=69 velocity=111 time=0.217391
EXTRACT: note_on channel=2 note=71 velocity=111 time=0
EXTRACT: note_off channel=0 note=40 velocity=95 time=0
EXTRACT: note_off channel=9 note=35 velocity=127 time=0
EXTRACT: note_off channel=9 note=51 velocity=63 time=0
EXTRACT: note_off channel=9 note=42 velocity=95 time=0
EXTRACT: note_on channel=9 note=42 velocity=47 time=0
EXTRACT: note_off channel=2 note=71 velocity=111 time=0.217391
EXTRACT: note_on channel=2 note=69 velocity=127 time=0
EXTRACT: note_off channel=9 note=42 velocity=47 time=0
EXTRACT: note_on channel=9 note=51 velocity=79 time=0
EXTRACT: note_on channel=9 note=39 velocity=95 time=0
EXTRACT: note_on channel=9 note=38 velocity=95 time=0
EXTRACT: note_on channel=9 note=41 velocity=111 time=0
EXTRACT: note_on channel=9 note=54 velocity=127 time=0
EXTRACT: note_on channel=9 note=42 velocity=95 time=0
EXTRACT: note_off channel=2 note=69 velocity=127 time=0.217391
EXTRACT: note_on channel=2 note=67 velocity=111 time=0
EXTRACT: note_on channel=0 note=38 velocity=95 time=0
EXTRACT: note_off channel=9 note=51 velocity=79 time=0
EXTRACT: note_off channel=9 note=39 velocity=95 time=0
EXTRACT: note_off channel=9 note=38 velocity=95 time=0
EXTRACT: note_off channel=9 note=41 velocity=111 time=0
EXTRACT: note_off channel=9 note=54 velocity=127 time=0
EXTRACT: note_off channel=9 note=42 velocity=95 time=0
EXTRACT: note_on channel=9 note=42 velocity=47 time=0
EXTRACT: note_off channel=2 note=67 velocity=111 time=0.217391
EXTRACT: note_on channel=2 note=69 velocity=127 time=0
EXTRACT: note_off channel=0 note=38 velocity=95 time=0
EXTRACT: note_on channel=0 note=38 velocity=95 time=0
EXTRACT: note_off channel=9 note=42 velocity=47 time=0
EXTRACT: note_on channel=9 note=51 velocity=79 time=0
EXTRACT: note_on channel=9 note=35 velocity=127 time=0
EXTRACT: note_on channel=9 note=42 velocity=95 time=0
EXTRACT: note_off channel=2 note=69 velocity=127 time=0.217391
EXTRACT: note_on channel=2 note=67 velocity=111 time=0
EXTRACT: note_off channel=0 note=38 velocity=95 time=0
EXTRACT: note_off channel=9 note=51 velocity=79 time=0
EXTRACT: note_off channel=9 note=35 velocity=127 time=0
EXTRACT: note_off channel=9 note=42 velocity=95 time=0
EXTRACT: note_on channel=9 note=42 velocity=63 time=0
EXTRACT: note_off channel=2 note=67 velocity=111 time=0.217391
EXTRACT: note_on channel=2 note=71 velocity=127 time=0
EXTRACT: note_on channel=0 note=38 velocity=95 time=0
EXTRACT: note_off channel=9 note=42 velocity=63 time=0
EXTRACT: note_on channel=9 note=51 velocity=79 time=0
EXTRACT: note_on channel=9 note=40 velocity=111 time=0
EXTRACT: note_on channel=9 note=42 velocity=95 time=0
EXTRACT: note_off channel=2 note=71 velocity=127 time=0.217391
EXTRACT: note_off channel=0 note=38 velocity=95 time=0
EXTRACT: note_off channel=9 note=51 velocity=79 time=0
EXTRACT: note_off channel=9 note=40 velocity=111 time=0
EXTRACT: note_off channel=9 note=42 velocity=95 time=0
EXTRACT: note_on channel=9 note=42 velocity=47 time=0
EXTRACT: note_off channel=9 note=42 velocity=47 time=0.217391
EXTRACT: note_on channel=9 note=51 velocity=79 time=0
EXTRACT: note_on channel=9 note=42 velocity=79 time=0
EXTRACT: note_off channel=9 note=51 velocity=79 time=0.217391
EXTRACT: note_off channel=9 note=42 velocity=79 time=0
EXTRACT: note_on channel=9 note=35 velocity=127 time=0
EXTRACT: note_on channel=9 note=42 velocity=47 time=0
EXTRACT: note_off channel=9 note=35 velocity=127 time=0.217391
EXTRACT: note_off channel=9 note=42 velocity=47 time=0
EXTRACT: note_on channel=9 note=38 velocity=111 time=0
EXTRACT: note_on channel=9 note=39 velocity=95 time=0
EXTRACT: note_on channel=9 note=54 velocity=111 time=0
EXTRACT: note_on channel=9 note=41 velocity=111 time=0
EXTRACT: note_on channel=9 note=42 velocity=95 time=0
EXTRACT: note_on channel=9 note=51 velocity=79 time=0
EXTRACT: note_on channel=2 note=71 velocity=127 time=0.217391
EXTRACT: note_off channel=9 note=38 velocity=111 time=0
EXTRACT: note_off channel=9 note=39 velocity=95 time=0
EXTRACT: note_off channel=9 note=54 velocity=111 time=0
EXTRACT: note_off channel=9 note=41 velocity=111 time=0
EXTRACT: note_off channel=9 note=42 velocity=95 time=0
EXTRACT: note_off channel=9 note=51 velocity=79 time=0
EXTRACT: note_on channel=9 note=42 velocity=47 time=0
EXTRACT: note_off channel=2 note=71 velocity=127 time=0.217391
EXTRACT: note_on channel=2 note=69 velocity=127 time=0
EXTRACT: note_off channel=9 note=42 velocity=47 time=0
EXTRACT: note_on channel=9 note=35 velocity=127 time=0
EXTRACT: note_on channel=9 note=42 velocity=79 time=0
EXTRACT: note_on channel=9 note=51 velocity=63 time=0
EXTRACT: note_off channel=2 note=69 velocity=127 time=0.217391
EXTRACT: note_on channel=2 note=67 velocity=111 time=0
EXTRACT: note_on channel=0 note=36 velocity=95 time=0
EXTRACT: note_off channel=9 note=35 velocity=127 time=0
EXTRACT: note_off channel=9 note=42 velocity=79 time=0
EXTRACT: note_off channel=9 note=51 velocity=63 time=0
EXTRACT: note_on channel=9 note=42 velocity=47 time=0
EXTRACT: note_off channel=2 note=67 velocity=111 time=0.217391
EXTRACT: note_on channel=2 note=64 velocity=127 time=0
EXTRACT: note_off channel=0 note=36 velocity=95 time=0
EXTRACT: note_on channel=0 note=36 velocity=95 time=0
EXTRACT: note_off channel=9 note=42 velocity=47 time=0
EXTRACT: note_on channel=9 note=40 velocity=111 time=0
EXTRACT: note_on channel=9 note=42 velocity=95 time=0
EXTRACT: note_on channel=9 note=51 velocity=79 time=0
EXTRACT: note_off channel=2 note=64 velocity=127 time=0.217391
EXTRACT: note_off channel=0 note=36 velocity=95 time=0
EXTRACT: note_off channel=9 note=40 velocity=111 time=0
EXTRACT: note_off channel=9 note=42 velocity=95 time=0
EXTRACT: note_off channel=9 note=51 velocity=79 time=0
EXTRACT: note_on channel=9 note=42 velocity=47 time=0
EXTRACT: note_on channel=2 note=64 velocity=127 time=0.217391
EXTRACT: note_on channel=0 note=36 velocity=95 time=0
EXTRACT: note_off channel=9 note=42 velocity=47 time=0
EXTRACT: note_on channel=9 note=42 velocity=79 time=0
EXTRACT: note_on channel=9 note=51 velocity=63 time=0
EXTRACT: note_on channel=9 note=35 velocity=127 time=0
EXTRACT: note_off channel=2 note=64 velocity=127 time=0.217391
EXTRACT: note_off channel=0 note=36 velocity=95 time=0
EXTRACT: note_off channel=9 note=42 velocity=79 time=0
EXTRACT: note_off channel=9 note=51 velocity=63 time=0
EXTRACT: note_off channel=9 note=35 velocity=127 time=0
EXTRACT: note_on channel=9 note=42 velocity=47 time=0
EXTRACT: note_on channel=2 note=64 velocity=111 time=0.217391
EXTRACT: note_off channel=9 note=42 velocity=47 time=0
EXTRACT: note_on channel=9 note=38 velocity=111 time=0
EXTRACT: note_on channel=9 note=39 velocity=95 time=0
EXTRACT: note_on channel=9 note=41 velocity=111 time=0
EXTRACT: note_on channel=9 note=54 velocity=95 time=0
EXTRACT: note_on channel=9 note=42 velocity=95 time=0
EXTRACT: note_on channel=9 note=51 velocity=79 time=0
EXTRACT: note_off channel=2 note=64 velocity=111 time=0.217391
EXTRACT: note_on channel=2 note=64 velocity=111 time=0
EXTRACT: note_on channel=0 note=38 velocity=95 time=0
EXTRACT: note_off channel=9 note=38 velocity=111 time=0
EXTRACT: note_off channel=9 note=39 velocity=95 time=0
EXTRACT: note_off channel=9 note=41 velocity=111 time=0
EXTRACT: note_off channel=9 note=54 velocity=95 time=0
EXTRACT: note_off channel=9 note=42 velocity=95 time=0
EXTRACT: note_off channel=9 note=51 velocity=79 time=0
EXTRACT: note_on channel=9 note=42 velocity=47 time=0
EXTRACT: note_off channel=2 note=64 velocity=111 time=0.217391
EXTRACT: note_on channel=2 note=66 velocity=127 time=0
EXTRACT: note_off channel=0 note=38 velocity=95 time=0
EXTRACT: note_on channel=0 note=38 velocity=95 time=0
EXTRACT: note_off channel=9 note=42 velocity=47 time=0
EXTRACT: note_on channel=9 note=35 velocity=127 time=0
EXTRACT: note_on channel=9 note=42 velocity=63 time=0
EXTRACT: note_on channel=9 note=51 velocity=63 time=0
EXTRACT: note_off channel=2 note=66 velocity=127 time=0.217391
EXTRACT: note_on channel=2 note=64 velocity=111 time=0
EXTRACT: note_off channel=0 note=38 velocity=95 time=0
EXTRACT: note_off channel=9 note=35 velocity=127 time=0
EXTRACT: note_off channel=9 note=42 velocity=63 time=0
EXTRACT: note_off channel=9 note=51 velocity=63 time=0
EXTRACT: note_on channel=9 note=42 velocity=47 time=0
EXTRACT: note_off channel=2 note=64 velocity=111 time=0.217391
EXTRACT: note_on channel=2 note=62 velocity=111 time=0
EXTRACT: note_on channel=0 note=38 velocity=95 time=0
EXTRACT: note_off channel=9 note=42 velocity=47 time=0
EXTRACT: note_on channel=9 note=42 velocity=95 time=0
EXTRACT: note_on channel=9 note=40 velocity=111 time=0
EXTRACT: note_on channel=9 note=51 velocity=79 time=0
EXTRACT: note_off channel=2 note=62 velocity=111 time=0.217391
EXTRACT: note_off channel=0 note=38 velocity=95 time=0
EXTRACT: note_off channel=9 note=42 velocity=95 time=0
EXTRACT: note_off channel=9 note=40 velocity=111 time=0
EXTRACT: note_off channel=9 note=51 velocity=79 time=0
EXTRACT: note_on channel=9 note=42 velocity=47 time=0
EXTRACT: note_on channel=2 note=62 velocity=127 time=0.217391
EXTRACT: note_off channel=9 note=42 velocity=47 time=0
EXTRACT: note_on channel=9 note=42 velocity=79 time=0
EXTRACT: note_on channel=9 note=51 velocity=63 time=0
EXTRACT: note_off channel=2 note=62 velocity=127 time=0.217391
EXTRACT: note_off channel=9 note=42 velocity=79 time=0
EXTRACT: note_off channel=9 note=51 velocity=63 time=0
EXTRACT: note_on channel=9 note=35 velocity=127 time=0
EXTRACT: note_on channel=9 note=42 velocity=47 time=0
EXTRACT: note_on channel=2 note=64 velocity=127 time=0.217391
EXTRACT: note_off channel=9 note=35 velocity=127 time=0
EXTRACT: note_off channel=9 note=42 velocity=47 time=0
EXTRACT: note_on channel=9 note=38 velocity=111 time=0
EXTRACT: note_on channel=9 note=39 velocity=111 time=0
EXTRACT: note_on channel=9 note=54 velocity=95 time=0
EXTRACT: note_on channel=9 note=41 velocity=111 time=0
EXTRACT: note_on channel=9 note=42 velocity=95 time=0
EXTRACT: note_on channel=9 note=51 velocity=79 time=0
EXTRACT: note_off channel=2 note=64 velocity=127 time=0.217391
EXTRACT: note_off channel=9 note=38 velocity=111 time=0
EXTRACT: note_off channel=9 note=39 velocity=111 time=0
EXTRACT: note_off channel=9 note=54 velocity=95 time=0
EXTRACT: note_off channel=9 note=41 velocity=111 time=0
EXTRACT: note_off channel=9 note=42 velocity=95 time=0
EXTRACT: note_off channel=9 note=51 velocity=79 time=0
EXTRACT: note_on channel=9 note=42 velocity=47 time=0
EXTRACT: note_on channel=2 note=67 velocity=111 time=0.217391
EXTRACT: note_off channel=9 note=42 velocity=47 time=0
EXTRACT: note_on channel=9 note=42 velocity=79 time=0
EXTRACT: note_on channel=9 note=51 velocity=63 time=0
EXTRACT: note_on channel=9 note=35 velocity=127 time=0
EXTRACT: note_off channel=2 note=67 velocity=111 time=0.217391
EXTRACT: note_on channel=2 note=64 velocity=111 time=0
EXTRACT: note_on channel=0 note=40 velocity=95 time=0
EXTRACT: note_off channel=9 note=42 velocity=79 time=0
EXTRACT: note_off channel=9 note=51 velocity=63 time=0
EXTRACT: note_off channel=9 note=35 velocity=127 time=0
EXTRACT: note_on channel=9 note=42 velocity=63 time=0
EXTRACT: note_off channel=2 note=64 velocity=111 time=0.217391
EXTRACT: note_off channel=0 note=40 velocity=95 time=0
EXTRACT: note_on channel=0 note=40 velocity=95 time=0
EXTRACT: note_off channel=9 note=42 velocity=63 time=0
EXTRACT: note_on channel=9 note=40 velocity=111 time=0
EXTRACT: note_on channel=9 note=42 velocity=95 time=0
EXTRACT: note_on channel=9 note=51 velocity=79 time=0
EXTRACT: note_off channel=0 note=40 velocity=95 time=0.217391
EXTRACT: note_off channel=9 note=40 velocity=111 time=0
EXTRACT: note_off channel=9 note=42 velocity=95 time=0
EXTRACT: note_off channel=9 note=51 velocity=79 time=0
EXTRACT: note_on channel=9 note=42 velocity=47 time=0
EXTRACT: note_on channel=0 note=40 velocity=95 time=0.217391
EXTRACT: note_off channel=9 note=42 velocity=47 time=0
EXTRACT: note_on channel=9 note=42 velocity=79 time=0
EXTRACT: note_on channel=9 note=51 velocity=63 time=0
EXTRACT: note_on channel=9 note=35 velocity=127 time=0
EXTRACT: note_off channel=0 note=40 velocity=95 time=0.217391
EXTRACT: note_off channel=9 note=42 velocity=79 time=0
EXTRACT: note_off channel=9 note=51 velocity=63 time=0
EXTRACT: note_off channel=9 note=35 velocity=127 time=0
EXTRACT: note_on channel=9 note=42 velocity=47 time=0
EXTRACT: note_on channel=2 note=71 velocity=127 time=0.217391
EXTRACT: note_off channel=9 note=42 velocity=47 time=0
EXTRACT: note_on channel=9 note=39 velocity=95 time=0
EXTRACT: note_on channel=9 note=38 velocity=95 time=0
EXTRACT: note_on channel=9 note=41 velocity=111 time=0
EXTRACT: note_on channel=9 note=54 velocity=95 time=0
EXTRACT: note_on channel=9 note=51 velocity=79 time=0
EXTRACT: note_on channel=9 note=42 velocity=95 time=0
EXTRACT: note_off channel=2 note=71 velocity=127 time=0.217391
EXTRACT: note_on channel=2 note=71 velocity=127 time=0
EXTRACT: note_on channel=0 note=38 velocity=95 time=0
EXTRACT: note_off channel=9 note=39 velocity=95 time=0
EXTRACT: note_off channel=9 note=38 velocity=95 time=0
EXTRACT: note_off channel=9 note=41 velocity=111 time=0
EXTRACT: note_off channel=9 note=54 velocity=95 time=0
EXTRACT: note_off channel=9 note=51 velocity=79 time=0
EXTRACT: note_off channel=9 note=42 velocity=95 time=0
EXTRACT: note_on channel=9 note=42 velocity=47 time=0
EXTRACT: note_off channel=2 note=71 velocity=127 time=0.217391
EXTRACT: note_on channel=2 note=74 velocity=111 time=0
EXTRACT: note_off channel=0 note=38 velocity=95 time=0
EXTRACT: note_on channel=0 note=38 velocity=95 time=0
EXTRACT: note_off channel=9 note=42 velocity=47 time=0
EXTRACT: note_on channel=9 note=35 velocity=127 time=0
EXTRACT: note_on channel=9 note=42 velocity=79 time=0
EXTRACT: note_on channel=9 note=51 velocity=63 time=0
EXTRACT: note_off channel=2 note=74 velocity=111 time=0.217391
EXTRACT: note_on channel=2 note=71 velocity=111 time=0
EXTRACT: note_off channel=0 note=38 velocity=95 time=0
EXTRACT: note_off channel=9 note=35 velocity=127 time=0
EXTRACT: note_off channel=9 note=42 velocity=79 time=0
EXTRACT: note_off channel=9 note=51 velocity=63 time=0
EXTRACT: note_on channel=9 note=42 velocity=47 time=0
EXTRACT: note_off channel=2 note=71 velocity=111 time=0.217391
EXTRACT: note_on channel=2 note=69 velocity=127 time=0
EXTRACT: note_on channel=0 note=38 velocity=95 time=0
EXTRACT: note_off channel=9 note=42 velocity=47 time=0
EXTRACT: note_on channel=9 note=40 velocity=111 time=0
EXTRACT: note_on channel=9 note=42 velocity=95 time=0
EXTRACT: note_on channel=9 note=51 velocity=79 time=0
EXTRACT: note_off channel=2 note=69 velocity=127 time=0.217391
EXTRACT: note_off channel=0 note=38 velocity=95 time=0
EXTRACT: note_off channel=9 note=40 velocity=111 time=0
EXTRACT: note_off channel=9 note=42 velocity=95 time=0
EXTRACT: note_off channel=9 note=51 velocity=79 time=0
EXTRACT: note_on channel=9 note=42 velocity=47 time=0
EXTRACT: note_on channel=2 note=71 velocity=127 time=0.217391
EXTRACT: note_off channel=9 note=42 velocity=47 time=0
EXTRACT: note_on channel=9 note=42 velocity=79 time=0
EXTRACT: note_on channel=9 note=51 velocity=63 time=0
EXTRACT: note_off channel=2 note=71 velocity=127 time=0.217391
EXTRACT: note_off channel=9 note=42 velocity=79 time=0
EXTRACT: note_off channel=9 note=51 velocity=63 time=0
EXTRACT: note_on channel=9 note=35 velocity=127 time=0
EXTRACT: note_on channel=9 note=42 velocity=63 time=0
EXTRACT: note_on channel=2 note=69 velocity=127 time=0.217391
EXTRACT: note_off channel=9 note=35 velocity=127 time=0
EXTRACT: note_off channel=9 note=42 velocity=63 time=0
EXTRACT: note_on channel=9 note=42 velocity=95 time=0
EXTRACT: note_on channel=9 note=54 velocity=95 time=0
EXTRACT: note_on channel=9 note=39 velocity=95 time=0
EXTRACT: note_on channel=9 note=41 velocity=111 time=0
EXTRACT: note_on channel=9 note=38 velocity=95 time=0
EXTRACT: note_on channel=9 note=51 velocity=79 time=0
EXTRACT: note_off channel=2 note=69 velocity=127 time=0.217391
EXTRACT: note_on channel=0 note=28 velocity=95 time=0
EXTRACT: note_off channel=9 note=42 velocity=95 time=0
EXTRACT: note_off channel=9 note=54 velocity=95 time=0
EXTRACT: note_off channel=9 note=39 velocity=95 time=0
EXTRACT: note_off channel=9 note=41 velocity=111 time=0
EXTRACT: note_off channel=9 note=38 velocity=95 time=0
EXTRACT: note_off channel=9 note=51 velocity=79 time=0
EXTRACT: note_on channel=9 note=42 velocity=47 time=0
EXTRACT: note_on channel=2 note=71 velocity=127 time=0.217391
EXTRACT: note_off channel=9 note=42 velocity=47 time=0
EXTRACT: note_on channel=9 note=35 velocity=127 time=0
EXTRACT: note_on channel=9 note=49 velocity=111 time=0
EXTRACT: note_on channel=9 note=54 velocity=95 time=0
EXTRACT: note_off channel=2 note=71 velocity=127 time=0.217391
EXTRACT: note_on channel=2 note=71 velocity=127 time=0
EXTRACT: note_off channel=0 note=28 velocity=95 time=0
EXTRACT: note_on channel=0 note=31 velocity=95 time=0
EXTRACT: note_off channel=9 note=35 velocity=127 time=0
EXTRACT: note_off channel=9 note=49 velocity=111 time=0
EXTRACT: note_off channel=9 note=54 velocity=95 time=0
EXTRACT: note_on channel=9 note=42 velocity=47 time=0
EXTRACT: note_off channel=0 note=31 velocity=95 time=0.217391
EXTRACT: note_on channel=0 note=35 velocity=95 time=0
EXTRACT: note_off channel=9 note=42 velocity=47 time=0
EXTRACT: note_on channel=9 note=42 velocity=63 time=0
EXTRACT: note_on channel=9 note=51 velocity=63 time=0
EXTRACT: note_on channel=9 note=40 velocity=111 time=0
EXTRACT: note_off channel=0 note=35 velocity=95 time=0.217391
EXTRACT: note_on channel=0 note=43 velocity=95 time=0
EXTRACT: note_off channel=9 note=42 velocity=63 time=0
EXTRACT: note_off channel=9 note=51 velocity=63 time=0
EXTRACT: note_off channel=9 note=40 velocity=111 time=0
EXTRACT: note_on channel=9 note=42 velocity=15 time=0
EXTRACT: note_off channel=2 note=71 velocity=127 time=0.217391
EXTRACT: note_off channel=0 note=43 velocity=95 time=0
EXTRACT: note_on channel=0 note=40 velocity=95 time=0
EXTRACT: note_off channel=9 note=42 velocity=15 time=0
EXTRACT: note_on channel=9 note=35 velocity=127 time=0
EXTRACT: note_on channel=9 note=42 velocity=63 time=0
EXTRACT: note_on channel=9 note=51 velocity=63 time=0
EXTRACT: note_off channel=9 note=35 velocity=127 time=0.217391
EXTRACT: note_off channel=9 note=42 velocity=63 time=0
EXTRACT: note_off channel=9 note=51 velocity=63 time=0
EXTRACT: note_on channel=9 note=42 velocity=31 time=0
EXTRACT: note_off channel=0 note=40 velocity=95 time=0.217391
EXTRACT: note_off channel=9 note=42 velocity=31 time=0
EXTRACT: note_on channel=9 note=38 velocity=111 time=0
EXTRACT: note_on channel=9 note=54 velocity=111 time=0
EXTRACT: note_on channel=9 note=41 velocity=111 time=0
EXTRACT: note_on channel=9 note=39 velocity=95 time=0
EXTRACT: note_on channel=9 note=42 velocity=79 time=0
EXTRACT: note_on channel=9 note=51 velocity=63 time=0
EXTRACT: note_on channel=1 note=40 velocity=95 time=0.16304325
EXTRACT: note_off channel=1 note=40 velocity=95 time=0.05434775
EXTRACT: pitchwheel channel=1 pitch=0 time=0
EXTRACT: note_on channel=1 note=40 velocity=95 time=0
EXTRACT: note_off channel=9 note=38 velocity=111 time=0
EXTRACT: note_off channel=9 note=54 velocity=111 time=0
EXTRACT: note_off channel=9 note=41 velocity=111 time=0
EXTRACT: note_off channel=9 note=39 velocity=95 time=0
EXTRACT: note_off channel=9 note=42 velocity=79 time=0
EXTRACT: note_off channel=9 note=51 velocity=63 time=0
EXTRACT: note_on channel=9 note=42 velocity=31 time=0
EXTRACT: pitchwheel channel=1 pitch=128 time=0.019474610416666666
EXTRACT: pitchwheel channel=1 pitch=256 time=0.019474610416666666
EXTRACT: pitchwheel channel=1 pitch=384 time=0.019474610416666666
EXTRACT: pitchwheel channel=1 pitch=512 time=0.019474610416666666
EXTRACT: pitchwheel channel=1 pitch=640 time=0.019474610416666666
EXTRACT: pitchwheel channel=1 pitch=768 time=0.019474610416666666
EXTRACT: pitchwheel channel=1 pitch=896 time=0.019474610416666666
EXTRACT: pitchwheel channel=1 pitch=1024 time=0.019474610416666666
EXTRACT: pitchwheel channel=1 pitch=1152 time=0.019474610416666666
EXTRACT: pitchwheel channel=1 pitch=1280 time=0.019474610416666666
EXTRACT: pitchwheel channel=1 pitch=1408 time=0.019474610416666666
EXTRACT: note_on channel=2 note=71 velocity=127 time=0.0031702854166666666
EXTRACT: pitchwheel channel=1 pitch=1408 time=0
EXTRACT: note_off channel=9 note=42 velocity=31 time=0
EXTRACT: note_on channel=9 note=35 velocity=127 time=0
EXTRACT: note_on channel=9 note=42 velocity=63 time=0
EXTRACT: note_on channel=9 note=51 velocity=63 time=0
EXTRACT: note_off channel=2 note=71 velocity=127 time=0.217391
EXTRACT: note_on channel=2 note=71 velocity=111 time=0
EXTRACT: pitchwheel channel=1 pitch=1408 time=0
EXTRACT: pitchwheel channel=1 pitch=0 time=0
EXTRACT: note_off channel=1 note=40 velocity=95 time=0
EXTRACT: note_on channel=0 note=40 velocity=95 time=0
EXTRACT: note_off channel=9 note=35 velocity=127 time=0
EXTRACT: note_off channel=9 note=42 velocity=63 time=0
EXTRACT: note_off channel=9 note=51 velocity=63 time=0
EXTRACT: note_on channel=9 note=42 velocity=31 time=0
EXTRACT: note_off channel=2 note=71 velocity=111 time=0.217391
EXTRACT: note_off channel=0 note=40 velocity=95 time=0
EXTRACT: note_on channel=0 note=38 velocity=95 time=0
EXTRACT: note_off channel=9 note=42 velocity=31 time=0
EXTRACT: note_on channel=9 note=40 velocity=111 time=0
EXTRACT: note_on channel=9 note=42 velocity=79 time=0
EXTRACT: note_on channel=9 note=51 velocity=63 time=0
EXTRACT: note_off channel=0 note=38 velocity=95 time=0.217391
EXTRACT: note_off channel=9 note=40 velocity=111 time=0
EXTRACT: note_off channel=9 note=42 velocity=79 time=0
EXTRACT: note_off channel=9 note=51 velocity=63 time=0
EXTRACT: note_on channel=9 note=42 velocity=31 time=0
EXTRACT: note_on channel=0 note=38 velocity=95 time=0.217391
EXTRACT: note_off channel=9 note=42 velocity=31 time=0
EXTRACT: note_on channel=9 note=42 velocity=63 time=0
EXTRACT: note_on channel=9 note=51 velocity=63 time=0
EXTRACT: note_off channel=0 note=38 velocity=95 time=0.217391
EXTRACT: note_off channel=9 note=42 velocity=63 time=0
EXTRACT: note_off channel=9 note=51 velocity=63 time=0
EXTRACT: note_on channel=9 note=35 velocity=127 time=0
EXTRACT: note_on channel=9 note=42 velocity=31 time=0
EXTRACT: note_off channel=9 note=35 velocity=127 time=0.217391
EXTRACT: note_off channel=9 note=42 velocity=31 time=0
EXTRACT: note_on channel=9 note=42 velocity=79 time=0
EXTRACT: note_on channel=9 note=51 velocity=63 time=0
EXTRACT: note_on channel=9 note=39 velocity=111 time=0
EXTRACT: note_on channel=9 note=41 velocity=111 time=0
EXTRACT: note_on channel=9 note=38 velocity=111 time=0
EXTRACT: note_on channel=9 note=54 velocity=127 time=0
EXTRACT: note_on channel=2 note=71 velocity=127 time=0.217391
EXTRACT: note_on channel=0 note=28 velocity=95 time=0
EXTRACT: note_off channel=9 note=42 velocity=79 time=0
EXTRACT: note_off channel=9 note=51 velocity=63 time=0
EXTRACT: note_off channel=9 note=39 velocity=111 time=0
EXTRACT: note_off channel=9 note=41 velocity=111 time=0
EXTRACT: note_off channel=9 note=38 velocity=111 time=0
EXTRACT: note_off channel=9 note=54 velocity=127 time=0
EXTRACT: note_on channel=9 note=42 velocity=31 time=0
EXTRACT: note_off channel=2 note=71 velocity=127 time=0.217391
EXTRACT: note_off channel=9 note=42 velocity=31 time=0
EXTRACT: note_on channel=9 note=42 velocity=79 time=0
EXTRACT: note_on channel=9 note=51 velocity=63 time=0
EXTRACT: note_on channel=9 note=35 velocity=127 time=0
EXTRACT: note_on channel=2 note=71 velocity=111 time=0.217391
EXTRACT: note_off channel=0 note=28 velocity=95 time=0
EXTRACT: note_on channel=0 note=31 velocity=95 time=0
EXTRACT: note_off channel=9 note=42 velocity=79 time=0
EXTRACT: note_off channel=9 note=51 velocity=63 time=0
EXTRACT: note_off channel=9 note=35 velocity=127 time=0
EXTRACT: note_on channel=9 note=42 velocity=47 time=0
EXTRACT: note_off channel=2 note=71 velocity=111 time=0.217391
EXTRACT: note_on channel=2 note=71 velocity=111 time=0
EXTRACT: note_off channel=0 note=31 velocity=95 time=0
EXTRACT: note_on channel=0 note=35 velocity=95 time=0
EXTRACT: note_off channel=9 note=42 velocity=47 time=0
EXTRACT: note_on channel=9 note=42 velocity=79 time=0
EXTRACT: note_on channel=9 note=51 velocity=63 time=0
EXTRACT: note_on channel=9 note=40 velocity=111 time=0
EXTRACT: note_off channel=2 note=71 velocity=111 time=0.217391
EXTRACT: note_on channel=2 note=71 velocity=111 time=0
EXTRACT: note_off channel=0 note=35 velocity=95 time=0
EXTRACT: note_on channel=0 note=43 velocity=95 time=0
EXTRACT: note_off channel=9 note=42 velocity=79 time=0
EXTRACT: note_off channel=9 note=51 velocity=63 time=0
EXTRACT: note_off channel=9 note=40 velocity=111 time=0
EXTRACT: note_on channel=9 note=42 velocity=47 time=0
EXTRACT: note_off channel=2 note=71 velocity=111 time=0.217391
EXTRACT: note_on channel=2 note=71 velocity=127 time=0
EXTRACT: note_off channel=0 note=43 velocity=95 time=0
EXTRACT: note_on channel=0 note=40 velocity=95 time=0
EXTRACT: note_off channel=9 note=42 velocity=47 time=0
EXTRACT: note_on channel=9 note=35 velocity=127 time=0
EXTRACT: note_on channel=9 note=42 velocity=79 time=0
EXTRACT: note_on channel=9 note=51 velocity=63 time=0
EXTRACT: note_off channel=2 note=71 velocity=127 time=0.217391
EXTRACT: note_off channel=9 note=35 velocity=127 time=0
EXTRACT: note_off channel=9 note=42 velocity=79 time=0
EXTRACT: note_off channel=9 note=51 velocity=63 time=0
EXTRACT: note_on channel=9 note=42 velocity=47 time=0
EXTRACT: note_on channel=2 note=71 velocity=95 time=0.217391
EXTRACT: note_off channel=0 note=40 velocity=95 time=0
EXTRACT: note_off channel=9 note=42 velocity=47 time=0
EXTRACT: note_on channel=9 note=42 velocity=79 time=0
EXTRACT: note_on channel=9 note=51 velocity=63 time=0
EXTRACT: note_on channel=9 note=39 velocity=95 time=0
EXTRACT: note_on channel=9 note=38 velocity=95 time=0
EXTRACT: note_on channel=9 note=41 velocity=111 time=0
EXTRACT: note_on channel=9 note=54 velocity=127 time=0
EXTRACT: note_on channel=1 note=40 velocity=95 time=0.16304325
EXTRACT: note_off channel=2 note=71 velocity=95 time=0.05434775
EXTRACT: note_on channel=2 note=71 velocity=127 time=0
EXTRACT: note_off channel=1 note=40 velocity=95 time=0
EXTRACT: pitchwheel channel=1 pitch=0 time=0
EXTRACT: note_on channel=1 note=40 velocity=95 time=0
EXTRACT: note_off channel=9 note=42 velocity=79 time=0
EXTRACT: note_off channel=9 note=51 velocity=63 time=0
EXTRACT: note_off channel=9 note=39 velocity=95 time=0
EXTRACT: note_off channel=9 note=38 velocity=95 time=0
EXTRACT: note_off channel=9 note=41 velocity=111 time=0
EXTRACT: note_off channel=9 note=54 velocity=127 time=0
EXTRACT: note_on channel=9 note=42 velocity=47 time=0
EXTRACT: pitchwheel channel=1 pitch=128 time=0.019474610416666666
EXTRACT: pitchwheel channel=1 pitch=256 time=0.019474610416666666
EXTRACT: pitchwheel channel=1 pitch=384 time=0.019474610416666666
EXTRACT: pitchwheel channel=1 pitch=512 time=0.019474610416666666
EXTRACT: pitchwheel channel=1 pitch=640 time=0.019474610416666666
EXTRACT: pitchwheel channel=1 pitch=768 time=0.019474610416666666
EXTRACT: pitchwheel channel=1 pitch=896 time=0.019474610416666666
EXTRACT: pitchwheel channel=1 pitch=1024 time=0.019474610416666666
EXTRACT: pitchwheel channel=1 pitch=1152 time=0.019474610416666666
EXTRACT: pitchwheel channel=1 pitch=1280 time=0.019474610416666666
EXTRACT: pitchwheel channel=1 pitch=1408 time=0.019474610416666666
EXTRACT: pitchwheel channel=1 pitch=1408 time=0.0031702854166666666
EXTRACT: note_off channel=9 note=42 velocity=47 time=0
EXTRACT: note_on channel=9 note=35 velocity=127 time=0
EXTRACT: note_on channel=9 note=42 velocity=79 time=0
EXTRACT: note_on channel=9 note=51 velocity=63 time=0
EXTRACT: note_off channel=2 note=71 velocity=127 time=0.217391
EXTRACT: note_on channel=2 note=71 velocity=127 time=0
EXTRACT: pitchwheel channel=1 pitch=1408 time=0
EXTRACT: pitchwheel channel=1 pitch=0 time=0
EXTRACT: note_off channel=1 note=40 velocity=95 time=0
EXTRACT: note_on channel=0 note=40 velocity=95 time=0
EXTRACT: note_off channel=9 note=35 velocity=127 time=0
EXTRACT: note_off channel=9 note=42 velocity=79 time=0
EXTRACT: note_off channel=9 note=51 velocity=63 time=0
EXTRACT: note_on channel=9 note=42 velocity=47 time=0
EXTRACT: note_off channel=2 note=71 velocity=127 time=0.217391
EXTRACT: note_off channel=0 note=40 velocity=95 time=0
EXTRACT: note_on channel=0 note=38 velocity=95 time=0
EXTRACT: note_off channel=9 note=42 velocity=47 time=0
EXTRACT: note_on channel=9 note=40 velocity=111 time=0
EXTRACT: note_on channel=9 note=42 velocity=79 time=0
EXTRACT: note_on channel=9 note=51 velocity=63 time=0
EXTRACT: note_off channel=0 note=38 velocity=95 time=0.217391
EXTRACT: note_off channel=9 note=40 velocity=111 time=0
EXTRACT: note_off channel=9 note=42 velocity=79 time=0
EXTRACT: note_off channel=9 note=51 velocity=63 time=0
EXTRACT: note_on channel=9 note=42 velocity=47 time=0
EXTRACT: note_off channel=9 note=42 velocity=47 time=0.217391
EXTRACT: note_on channel=9 note=42 velocity=95 time=0
EXTRACT: note_on channel=9 note=51 velocity=79 time=0
EXTRACT: note_off channel=9 note=42 velocity=95 time=0.217391
EXTRACT: note_off channel=9 note=51 velocity=79 time=0
EXTRACT: note_on channel=9 note=35 velocity=127 time=0
EXTRACT: note_on channel=9 note=42 velocity=47 time=0
EXTRACT: note_off channel=9 note=35 velocity=127 time=0.217391
EXTRACT: note_off channel=9 note=42 velocity=47 time=0
EXTRACT: note_on channel=9 note=38 velocity=111 time=0
EXTRACT: note_on channel=9 note=39 velocity=95 time=0
EXTRACT: note_on channel=9 note=54 velocity=111 time=0
EXTRACT: note_on channel=9 note=41 velocity=111 time=0
EXTRACT: note_on channel=9 note=42 velocity=95 time=0
EXTRACT: note_on channel=9 note=51 velocity=79 time=0
EXTRACT: note_on channel=2 note=69 velocity=127 time=0.217391
EXTRACT: note_on channel=0 note=28 velocity=95 time=0
EXTRACT: note_off channel=9 note=38 velocity=111 time=0
EXTRACT: note_off channel=9 note=39 velocity=95 time=0
EXTRACT: note_off channel=9 note=54 velocity=111 time=0
EXTRACT: note_off channel=9 note=41 velocity=111 time=0
EXTRACT: note_off channel=9 note=42 velocity=95 time=0
EXTRACT: note_off channel=9 note=51 velocity=79 time=0
EXTRACT: note_on channel=9 note=42 velocity=47 time=0
EXTRACT: note_off channel=9 note=42 velocity=47 time=0.217391
EXTRACT: note_on channel=9 note=35 velocity=127 time=0
EXTRACT: note_on channel=9 note=42 velocity=79 time=0
EXTRACT: note_on channel=9 note=51 velocity=63 time=0
EXTRACT: note_off channel=2 note=69 velocity=127 time=0.217391
EXTRACT: note_on channel=2 note=67 velocity=95 time=0
EXTRACT: note_off channel=0 note=28 velocity=95 time=0
EXTRACT: note_on channel=0 note=31 velocity=95 time=0
EXTRACT: note_off channel=9 note=35 velocity=127 time=0
EXTRACT: note_off channel=9 note=42 velocity=79 time=0
EXTRACT: note_off channel=9 note=51 velocity=63 time=0
EXTRACT: note_on channel=9 note=42 velocity=47 time=0
EXTRACT: note_off channel=2 note=67 velocity=95 time=0.217391
EXTRACT: note_on channel=2 note=69 velocity=127 time=0
EXTRACT: note_off channel=0 note=31 velocity=95 time=0
EXTRACT: note_on channel=0 note=35 velocity=95 time=0
EXTRACT: note_off channel=9 note=42 velocity=47 time=0
EXTRACT: note_on channel=9 note=40 velocity=111 time=0
EXTRACT: note_on channel=9 note=42 velocity=95 time=0
EXTRACT: note_on channel=9 note=51 velocity=79 time=0
EXTRACT: note_off channel=2 note=69 velocity=127 time=0.217391
EXTRACT: note_off channel=0 note=35 velocity=95 time=0
EXTRACT: note_on channel=0 note=43 velocity=95 time=0
EXTRACT: note_off channel=9 note=40 velocity=111 time=0
EXTRACT: note_off channel=9 note=42 velocity=95 time=0
EXTRACT: note_off channel=9 note=51 velocity=79 time=0
EXTRACT: note_on channel=9 note=42 velocity=47 time=0
EXTRACT: note_on channel=2 note=67 velocity=111 time=0.217391
EXTRACT: note_off channel=0 note=43 velocity=95 time=0
EXTRACT: note_on channel=0 note=40 velocity=95 time=0
EXTRACT: note_off channel=9 note=42 velocity=47 time=0
EXTRACT: note_on channel=9 note=35 velocity=127 time=0
EXTRACT: note_on channel=9 note=42 velocity=79 time=0
EXTRACT: note_on channel=9 note=51 velocity=63 time=0
EXTRACT: note_off channel=2 note=67 velocity=111 time=0.217391
EXTRACT: note_on channel=2 note=69 velocity=111 time=0
EXTRACT: note_off channel=9 note=35 velocity=127 time=0
EXTRACT: note_off channel=9 note=42 velocity=79 time=0
EXTRACT: note_off channel=9 note=51 velocity=63 time=0
EXTRACT: note_on channel=9 note=42 velocity=47 time=0
EXTRACT: note_off channel=2 note=69 velocity=111 time=0.217391
EXTRACT: note_on channel=2 note=67 velocity=111 time=0
EXTRACT: note_off channel=0 note=40 velocity=95 time=0
EXTRACT: note_off channel=9 note=42 velocity=47 time=0
EXTRACT: note_on channel=9 note=38 velocity=111 time=0
EXTRACT: note_on channel=9 note=39 velocity=95 time=0
EXTRACT: note_on channel=9 note=41 velocity=111 time=0
EXTRACT: note_on channel=9 note=54 velocity=95 time=0
EXTRACT: note_on channel=9 note=42 velocity=95 time=0
EXTRACT: note_on channel=9 note=51 velocity=79 time=0
EXTRACT: note_on channel=1 note=40 velocity=95 time=0.16304325
EXTRACT: note_off channel=2 note=67 velocity=111 time=0.05434775
EXTRACT: note_on channel=2 note=69 velocity=127 time=0
EXTRACT: note_off channel=1 note=40 velocity=95 time=0
EXTRACT: pitchwheel channel=1 pitch=0 time=0
EXTRACT: note_on channel=1 note=40 velocity=95 time=0
EXTRACT: note_off channel=9 note=38 velocity=111 time=0
EXTRACT: note_off channel=9 note=39 velocity=95 time=0
EXTRACT: note_off channel=9 note=41 velocity=111 time=0
EXTRACT: note_off channel=9 note=54 velocity=95 time=0
EXTRACT: note_off channel=9 note=42 velocity=95 time=0
EXTRACT: note_off channel=9 note=51 velocity=79 time=0
EXTRACT: note_on channel=9 note=42 velocity=47 time=0
EXTRACT: pitchwheel channel=1 pitch=128 time=0.019474610416666666
EXTRACT: pitchwheel channel=1 pitch=256 time=0.019474610416666666
EXTRACT: pitchwheel channel=1 pitch=384 time=0.019474610416666666
EXTRACT: pitchwheel channel=1 pitch=512 time=0.019474610416666666
EXTRACT: pitchwheel channel=1 pitch=640 time=0.019474610416666666
EXTRACT: pitchwheel channel=1 pitch=768 time=0.019474610416666666
EXTRACT: pitchwheel channel=1 pitch=896 time=0.019474610416666666
EXTRACT: pitchwheel channel=1 pitch=1024 time=0.019474610416666666
EXTRACT: pitchwheel channel=1 pitch=1152 time=0.019474610416666666
EXTRACT: pitchwheel channel=1 pitch=1280 time=0.019474610416666666
EXTRACT: pitchwheel channel=1 pitch=1408 time=0.019474610416666666
EXTRACT: pitchwheel channel=1 pitch=1408 time=0.0031702854166666666
EXTRACT: note_off channel=9 note=42 velocity=47 time=0
EXTRACT: note_on channel=9 note=35 velocity=127 time=0
EXTRACT: note_on channel=9 note=42 velocity=95 time=0
EXTRACT: note_on channel=9 note=51 velocity=79 time=0
EXTRACT: note_off channel=2 note=69 velocity=127 time=0.217391
EXTRACT: note_on channel=2 note=67 velocity=111 time=0
EXTRACT: pitchwheel channel=1 pitch=1408 time=0
EXTRACT: pitchwheel channel=1 pitch=0 time=0
EXTRACT: note_off channel=1 note=40 velocity=95 time=0
EXTRACT: note_on channel=0 note=40 velocity=95 time=0
EXTRACT: note_off channel=9 note=35 velocity=127 time=0
EXTRACT: note_off channel=9 note=42 velocity=95 time=0
EXTRACT: note_off channel=9 note=51 velocity=79 time=0
EXTRACT: note_on channel=9 note=42 velocity=47 time=0
EXTRACT: note_off channel=2 note=67 velocity=111 time=0.217391
EXTRACT: note_on channel=2 note=69 velocity=127 time=0
EXTRACT: note_off channel=0 note=40 velocity=95 time=0
EXTRACT: note_on channel=0 note=38 velocity=95 time=0
EXTRACT: note_off channel=9 note=42 velocity=47 time=0
EXTRACT: note_on channel=9 note=42 velocity=95 time=0
EXTRACT: note_on channel=9 note=51 velocity=79 time=0
EXTRACT: note_on channel=9 note=40 velocity=111 time=0
EXTRACT: note_off channel=2 note=69 velocity=127 time=0.217391
EXTRACT: note_off channel=0 note=38 velocity=95 time=0
EXTRACT: note_off channel=9 note=42 velocity=95 time=0
EXTRACT: note_off channel=9 note=51 velocity=79 time=0
EXTRACT: note_off channel=9 note=40 velocity=111 time=0
EXTRACT: note_on channel=9 note=42 velocity=47 time=0
EXTRACT: note_on channel=2 note=67 velocity=127 time=0.217391
EXTRACT: note_on channel=0 note=38 velocity=95 time=0
EXTRACT: note_off channel=9 note=42 velocity=47 time=0
EXTRACT: note_on channel=9 note=42 velocity=79 time=0
EXTRACT: note_on channel=9 note=51 velocity=63 time=0
EXTRACT: note_off channel=2 note=67 velocity=127 time=0.217391
EXTRACT: note_off channel=0 note=38 velocity=95 time=0
EXTRACT: note_off channel=9 note=42 velocity=79 time=0
EXTRACT: note_off channel=9 note=51 velocity=63 time=0
EXTRACT: note_on channel=9 note=35 velocity=127 time=0
EXTRACT: note_on channel=9 note=42 velocity=47 time=0
EXTRACT: note_off channel=9 note=35 velocity=127 time=0.217391
EXTRACT: note_off channel=9 note=42 velocity=47 time=0
EXTRACT: note_on channel=9 note=38 velocity=111 time=0
EXTRACT: note_on channel=9 note=39 velocity=111 time=0
EXTRACT: note_on channel=9 note=54 velocity=95 time=0
EXTRACT: note_on channel=9 note=41 velocity=111 time=0
EXTRACT: note_on channel=9 note=42 velocity=95 time=0
EXTRACT: note_on channel=9 note=51 velocity=79 time=0
EXTRACT: note_on channel=2 note=69 velocity=127 time=0.217391
EXTRACT: note_on channel=0 note=28 velocity=95 time=0
EXTRACT: note_off channel=9 note=38 velocity=111 time=0
EXTRACT: note_off channel=9 note=39 velocity=111 time=0
EXTRACT: note_off channel=9 note=54 velocity=95 time=0
EXTRACT: note_off channel=9 note=41 velocity=111 time=0
EXTRACT: note_off channel=9 note=42 velocity=95 time=0
EXTRACT: note_off channel=9 note=51 velocity=79 time=0
EXTRACT: note_on channel=9 note=42 velocity=47 time=0
EXTRACT: note_off channel=9 note=42 velocity=47 time=0.217391
EXTRACT: note_on channel=9 note=42 velocity=79 time=0
EXTRACT: note_on channel=9 note=51 velocity=63 time=0
EXTRACT: note_on channel=9 note=35 velocity=127 time=0
EXTRACT: note_off channel=2 note=69 velocity=127 time=0.217391
EXTRACT: note_on channel=2 note=67 velocity=111 time=0
EXTRACT: note_off channel=0 note=28 velocity=95 time=0
EXTRACT: note_on channel=0 note=31 velocity=95 time=0
EXTRACT: note_off channel=9 note=42 velocity=79 time=0
EXTRACT: note_off channel=9 note=51 velocity=63 time=0
EXTRACT: note_off channel=9 note=35 velocity=127 time=0
EXTRACT: note_on channel=9 note=42 velocity=47 time=0
EXTRACT: note_off channel=2 note=67 velocity=111 time=0.217391
EXTRACT: note_on channel=2 note=69 velocity=127 time=0
EXTRACT: note_off channel=0 note=31 velocity=95 time=0
EXTRACT: note_on channel=0 note=35 velocity=95 time=0
EXTRACT: note_off channel=9 note=42 velocity=47 time=0
EXTRACT: note_on channel=9 note=40 velocity=111 time=0
EXTRACT: note_on channel=9 note=42 velocity=95 time=0
EXTRACT: note_on channel=9 note=51 velocity=79 time=0
EXTRACT: note_off channel=2 note=69 velocity=127 time=0.217391
EXTRACT: note_off channel=0 note=35 velocity=95 time=0
EXTRACT: note_on channel=0 note=43 velocity=95 time=0
EXTRACT: note_off channel=9 note=40 velocity=111 time=0
EXTRACT: note_off channel=9 note=42 velocity=95 time=0
EXTRACT: note_off channel=9 note=51 velocity=79 time=0
EXTRACT: note_on channel=9 note=42 velocity=47 time=0
EXTRACT: note_on channel=2 note=67 velocity=111 time=0.217391
EXTRACT: note_off channel=0 note=43 velocity=95 time=0
EXTRACT: note_on channel=0 note=40 velocity=95 time=0
EXTRACT: note_off channel=9 note=42 velocity=47 time=0
EXTRACT: note_on channel=9 note=42 velocity=79 time=0
EXTRACT: note_on channel=9 note=51 velocity=63 time=0
EXTRACT: note_on channel=9 note=35 velocity=127 time=0
EXTRACT: note_off channel=2 note=67 velocity=111 time=0.217391
EXTRACT: note_on channel=2 note=69 velocity=111 time=0
EXTRACT: note_off channel=9 note=42 velocity=79 time=0
EXTRACT: note_off channel=9 note=51 velocity=63 time=0
EXTRACT: note_off channel=9 note=35 velocity=127 time=0
EXTRACT: note_on channel=9 note=42 velocity=47 time=0
EXTRACT: note_off channel=2 note=69 velocity=111 time=0.217391
EXTRACT: note_off channel=0 note=40 velocity=95 time=0
EXTRACT: note_off channel=9 note=42 velocity=47 time=0
EXTRACT: note_on channel=9 note=39 velocity=95 time=0
EXTRACT: note_on channel=9 note=38 velocity=95 time=0
EXTRACT: note_on channel=9 note=41 velocity=111 time=0
EXTRACT: note_on channel=9 note=54 velocity=95 time=0
EXTRACT: note_on channel=9 note=42 velocity=95 time=0
EXTRACT: note_on channel=9 note=51 velocity=79 time=0
EXTRACT: note_on channel=1 note=40 velocity=95 time=0.16304325
EXTRACT: note_on channel=2 note=69 velocity=127 time=0.05434775
EXTRACT: note_off channel=1 note=40 velocity=95 time=0
EXTRACT: pitchwheel channel=1 pitch=0 time=0
EXTRACT: note_on channel=1 note=40 velocity=95 time=0
EXTRACT: note_off channel=9 note=39 velocity=95 time=0
EXTRACT: note_off channel=9 note=38 velocity=95 time=0
EXTRACT: note_off channel=9 note=41 velocity=111 time=0
EXTRACT: note_off channel=9 note=54 velocity=95 time=0
EXTRACT: note_off channel=9 note=42 velocity=95 time=0
EXTRACT: note_off channel=9 note=51 velocity=79 time=0
EXTRACT: note_on channel=9 note=42 velocity=31 time=0
EXTRACT: pitchwheel channel=1 pitch=128 time=0.019474610416666666
EXTRACT: pitchwheel channel=1 pitch=256 time=0.019474610416666666
EXTRACT: pitchwheel channel=1 pitch=384 time=0.019474610416666666
EXTRACT: pitchwheel channel=1 pitch=512 time=0.019474610416666666
EXTRACT: pitchwheel channel=1 pitch=640 time=0.019474610416666666
EXTRACT: pitchwheel channel=1 pitch=768 time=0.019474610416666666
EXTRACT: pitchwheel channel=1 pitch=896 time=0.019474610416666666
EXTRACT: pitchwheel channel=1 pitch=1024 time=0.019474610416666666
EXTRACT: pitchwheel channel=1 pitch=1152 time=0.019474610416666666
EXTRACT: pitchwheel channel=1 pitch=1280 time=0.019474610416666666
EXTRACT: pitchwheel channel=1 pitch=1408 time=0.019474610416666666
EXTRACT: pitchwheel channel=1 pitch=1408 time=0.0031702854166666666
EXTRACT: note_off channel=9 note=42 velocity=31 time=0
EXTRACT: note_on channel=9 note=35 velocity=127 time=0
EXTRACT: note_on channel=9 note=42 velocity=95 time=0
EXTRACT: note_on channel=9 note=51 velocity=79 time=0
EXTRACT: note_off channel=2 note=69 velocity=127 time=0.217391
EXTRACT: note_on channel=2 note=67 velocity=95 time=0
EXTRACT: pitchwheel channel=1 pitch=1408 time=0
EXTRACT: pitchwheel channel=1 pitch=0 time=0
EXTRACT: note_off channel=1 note=40 velocity=95 time=0
EXTRACT: note_on channel=0 note=40 velocity=95 time=0
EXTRACT: note_off channel=9 note=35 velocity=127 time=0
EXTRACT: note_off channel=9 note=42 velocity=95 time=0
EXTRACT: note_off channel=9 note=51 velocity=79 time=0
EXTRACT: note_on channel=9 note=42 velocity=47 time=0
EXTRACT: note_off channel=2 note=67 velocity=95 time=0.217391
EXTRACT: note_on channel=2 note=69 velocity=127 time=0
EXTRACT: note_off channel=0 note=40 velocity=95 time=0
EXTRACT: note_on channel=0 note=38 velocity=95 time=0
EXTRACT: note_off channel=9 note=42 velocity=47 time=0
EXTRACT: note_on channel=9 note=40 velocity=111 time=0
EXTRACT: note_on channel=9 note=42 velocity=95 time=0
EXTRACT: note_on channel=9 note=51 velocity=79 time=0
EXTRACT: note_off channel=2 note=69 velocity=127 time=0.217391
EXTRACT: note_off channel=0 note=38 velocity=95 time=0
EXTRACT: note_off channel=9 note=40 velocity=111 time=0
EXTRACT: note_off channel=9 note=42 velocity=95 time=0
EXTRACT: note_off channel=9 note=51 velocity=79 time=0
EXTRACT: note_on channel=9 note=42 velocity=47 time=0
EXTRACT: note_on channel=2 note=67 velocity=127 time=0.217391
EXTRACT: note_off channel=9 note=42 velocity=47 time=0
EXTRACT: note_on channel=9 note=42 velocity=79 time=0
EXTRACT: note_on channel=9 note=51 velocity=63 time=0
EXTRACT: note_off channel=2 note=67 velocity=127 time=0.217391
EXTRACT: note_off channel=9 note=42 velocity=79 time=0
EXTRACT: note_off channel=9 note=51 velocity=63 time=0
EXTRACT: note_on channel=9 note=35 velocity=127 time=0
EXTRACT: note_on channel=9 note=42 velocity=47 time=0
EXTRACT: note_on channel=2 note=69 velocity=127 time=0.217391
EXTRACT: note_off channel=9 note=35 velocity=127 time=0
EXTRACT: note_off channel=9 note=42 velocity=47 time=0
EXTRACT: note_on channel=9 note=54 velocity=95 time=0
EXTRACT: note_on channel=9 note=39 velocity=95 time=0
EXTRACT: note_on channel=9 note=41 velocity=111 time=0
EXTRACT: note_on channel=9 note=38 velocity=95 time=0
EXTRACT: note_on channel=9 note=42 velocity=95 time=0
EXTRACT: note_on channel=9 note=51 velocity=79 time=0
EXTRACT: note_off channel=2 note=69 velocity=127 time=0.217391
EXTRACT: note_on channel=0 note=28 velocity=95 time=0
EXTRACT: note_off channel=9 note=54 velocity=95 time=0
EXTRACT: note_off channel=9 note=39 velocity=95 time=0
EXTRACT: note_off channel=9 note=41 velocity=111 time=0
EXTRACT: note_off channel=9 note=38 velocity=95 time=0
EXTRACT: note_off channel=9 note=42 velocity=95 time=0
EXTRACT: note_off channel=9 note=51 velocity=79 time=0
EXTRACT: note_on channel=9 note=42 velocity=47 time=0
EXTRACT: note_on channel=2 note=67 velocity=127 time=0.217391
EXTRACT: note_off channel=9 note=42 velocity=47 time=0
EXTRACT: note_on channel=9 note=42 velocity=95 time=0
EXTRACT: note_on channel=9 note=51 velocity=79 time=0
EXTRACT: note_on channel=9 note=35 velocity=127 time=0
EXTRACT: note_off channel=2 note=67 velocity=127 time=0.217391
EXTRACT: note_on channel=2 note=64 velocity=111 time=0
EXTRACT: note_off channel=0 note=28 velocity=95 time=0
EXTRACT: note_on channel=0 note=31 velocity=95 time=0
EXTRACT: note_off channel=9 note=42 velocity=95 time=0
EXTRACT: note_off channel=9 note=51 velocity=79 time=0
EXTRACT: note_off channel=9 note=35 velocity=127 time=0
EXTRACT: note_on channel=9 note=42 velocity=31 time=0
EXTRACT: note_off channel=2 note=64 velocity=111 time=0.217391
EXTRACT: note_off channel=0 note=31 velocity=95 time=0
EXTRACT: note_on channel=0 note=35 velocity=95 time=0
EXTRACT: note_off channel=9 note=42 velocity=31 time=0
EXTRACT: note_on channel=9 note=42 velocity=95 time=0
EXTRACT: note_on channel=9 note=51 velocity=79 time=0
EXTRACT: note_on channel=9 note=40 velocity=111 time=0
EXTRACT: note_off channel=0 note=35 velocity=95 time=0.217391
EXTRACT: note_on channel=0 note=43 velocity=95 time=0
EXTRACT: note_off channel=9 note=42 velocity=95 time=0
EXTRACT: note_off channel=9 note=51 velocity=79 time=0
EXTRACT: note_off channel=9 note=40 velocity=111 time=0
EXTRACT: note_on channel=9 note=42 velocity=47 time=0
EXTRACT: note_off channel=0 note=43 velocity=95 time=0.217391
EXTRACT: note_on channel=0 note=40 velocity=95 time=0
EXTRACT: note_off channel=9 note=42 velocity=47 time=0
EXTRACT: note_on channel=9 note=35 velocity=127 time=0
EXTRACT: note_on channel=9 note=42 velocity=95 time=0
EXTRACT: note_on channel=9 note=51 velocity=79 time=0
EXTRACT: note_off channel=9 note=35 velocity=127 time=0.217391
EXTRACT: note_off channel=9 note=42 velocity=95 time=0
EXTRACT: note_off channel=9 note=51 velocity=79 time=0
EXTRACT: note_on channel=9 note=42 velocity=47 time=0
EXTRACT: note_on channel=2 note=64 velocity=111 time=0.217391
EXTRACT: note_off channel=0 note=40 velocity=95 time=0
EXTRACT: note_off channel=9 note=42 velocity=47 time=0
EXTRACT: note_on channel=9 note=38 velocity=111 time=0
EXTRACT: note_on channel=9 note=54 velocity=111 time=0
EXTRACT: note_on channel=9 note=41 velocity=111 time=0
EXTRACT: note_on channel=9 note=39 velocity=95 time=0
EXTRACT: note_on channel=9 note=42 velocity=95 time=0
EXTRACT: note_on channel=9 note=51 velocity=79 time=0
EXTRACT: note_on channel=1 note=40 velocity=95 time=0.16304325
EXTRACT: note_off channel=2 note=64 velocity=111 time=0.05434775
EXTRACT: note_off channel=1 note=40 velocity=95 time=0
EXTRACT: pitchwheel channel=1 pitch=0 time=0
EXTRACT: note_on channel=1 note=40 velocity=95 time=0
EXTRACT: note_off channel=9 note=38 velocity=111 time=0
EXTRACT: note_off channel=9 note=54 velocity=111 time=0
EXTRACT: note_off channel=9 note=41 velocity=111 time=0
EXTRACT: note_off channel=9 note=39 velocity=95 time=0
EXTRACT: note_off channel=9 note=42 velocity=95 time=0
EXTRACT: note_off channel=9 note=51 velocity=79 time=0
EXTRACT: note_on channel=9 note=42 velocity=47 time=0
EXTRACT: pitchwheel channel=1 pitch=128 time=0.019474610416666666
EXTRACT: pitchwheel channel=1 pitch=256 time=0.019474610416666666
EXTRACT: pitchwheel channel=1 pitch=384 time=0.019474610416666666
EXTRACT: pitchwheel channel=1 pitch=512 time=0.019474610416666666
EXTRACT: pitchwheel channel=1 pitch=640 time=0.019474610416666666
EXTRACT: pitchwheel channel=1 pitch=768 time=0.019474610416666666
EXTRACT: pitchwheel channel=1 pitch=896 time=0.019474610416666666
EXTRACT: pitchwheel channel=1 pitch=1024 time=0.019474610416666666
EXTRACT: pitchwheel channel=1 pitch=1152 time=0.019474610416666666
EXTRACT: pitchwheel channel=1 pitch=1280 time=0.019474610416666666
EXTRACT: pitchwheel channel=1 pitch=1408 time=0.019474610416666666
EXTRACT: note_on channel=2 note=66 velocity=127 time=0.0031702854166666666
EXTRACT: pitchwheel channel=1 pitch=1408 time=0
EXTRACT: note_off channel=9 note=42 velocity=47 time=0
EXTRACT: note_on channel=9 note=35 velocity=127 time=0
EXTRACT: note_on channel=9 note=42 velocity=79 time=0
EXTRACT: note_on channel=9 note=51 velocity=63 time=0
EXTRACT: note_off channel=2 note=66 velocity=127 time=0.217391
EXTRACT: note_on channel=2 note=62 velocity=111 time=0
EXTRACT: pitchwheel channel=1 pitch=1408 time=0
EXTRACT: pitchwheel channel=1 pitch=0 time=0
EXTRACT: note_off channel=1 note=40 velocity=95 time=0
EXTRACT: note_on channel=0 note=40 velocity=95 time=0
EXTRACT: note_off channel=9 note=35 velocity=127 time=0
EXTRACT: note_off channel=9 note=42 velocity=79 time=0
EXTRACT: note_off channel=9 note=51 velocity=63 time=0
EXTRACT: note_on channel=9 note=42 velocity=47 time=0
EXTRACT: note_off channel=2 note=62 velocity=111 time=0.217391
EXTRACT: note_off channel=0 note=40 velocity=95 time=0
EXTRACT: note_on channel=0 note=38 velocity=95 time=0
EXTRACT: note_off channel=9 note=42 velocity=47 time=0
EXTRACT: note_on channel=9 note=40 velocity=111 time=0
EXTRACT: note_on channel=9 note=42 velocity=95 time=0
EXTRACT: note_on channel=9 note=51 velocity=79 time=0
EXTRACT: note_off channel=0 note=38 velocity=95 time=0.217391
EXTRACT: note_off channel=9 note=40 velocity=111 time=0
EXTRACT: note_off channel=9 note=42 velocity=95 time=0
EXTRACT: note_off channel=9 note=51 velocity=79 time=0
EXTRACT: note_on channel=9 note=42 velocity=47 time=0
EXTRACT: note_on channel=0 note=38 velocity=95 time=0.217391
EXTRACT: note_off channel=9 note=42 velocity=47 time=0
EXTRACT: note_on channel=9 note=42 velocity=79 time=0
EXTRACT: note_on channel=9 note=51 velocity=63 time=0
EXTRACT: note_off channel=0 note=38 velocity=95 time=0.217391
EXTRACT: note_off channel=9 note=42 velocity=79 time=0
EXTRACT: note_off channel=9 note=51 velocity=63 time=0
EXTRACT: note_on channel=9 note=35 velocity=127 time=0
EXTRACT: note_on channel=9 note=42 velocity=47 time=0
EXTRACT: note_on channel=2 note=69 velocity=127 time=0.217391
EXTRACT: note_off channel=9 note=35 velocity=127 time=0
EXTRACT: note_off channel=9 note=42 velocity=47 time=0
EXTRACT: note_on channel=9 note=42 velocity=95 time=0
EXTRACT: note_on channel=9 note=51 velocity=79 time=0
EXTRACT: note_on channel=9 note=39 velocity=111 time=0
EXTRACT: note_on channel=9 note=41 velocity=111 time=0
EXTRACT: note_on channel=9 note=38 velocity=111 time=0
EXTRACT: note_on channel=9 note=54 velocity=127 time=0
EXTRACT: note_off channel=2 note=69 velocity=127 time=0.217391
EXTRACT: note_on channel=0 note=28 velocity=95 time=0
EXTRACT: note_off channel=9 note=42 velocity=95 time=0
EXTRACT: note_off channel=9 note=51 velocity=79 time=0
EXTRACT: note_off channel=9 note=39 velocity=111 time=0
EXTRACT: note_off channel=9 note=41 velocity=111 time=0
EXTRACT: note_off channel=9 note=38 velocity=111 time=0
EXTRACT: note_off channel=9 note=54 velocity=127 time=0
EXTRACT: note_on channel=9 note=42 velocity=31 time=0
EXTRACT: note_on channel=2 note=67 velocity=127 time=0.217391
EXTRACT: note_off channel=9 note=42 velocity=31 time=0
EXTRACT: note_on channel=9 note=35 velocity=127 time=0
EXTRACT: note_on channel=9 note=42 velocity=79 time=0
EXTRACT: note_on channel=9 note=51 velocity=63 time=0
EXTRACT: note_off channel=2 note=67 velocity=127 time=0.217391
EXTRACT: note_on channel=2 note=64 velocity=111 time=0
EXTRACT: note_off channel=0 note=28 velocity=95 time=0
EXTRACT: note_on channel=0 note=31 velocity=95 time=0
EXTRACT: note_off channel=9 note=35 velocity=127 time=0
EXTRACT: note_off channel=9 note=42 velocity=79 time=0
EXTRACT: note_off channel=9 note=51 velocity=63 time=0
EXTRACT: note_on channel=9 note=42 velocity=47 time=0
EXTRACT: note_off channel=2 note=64 velocity=111 time=0.217391
EXTRACT: note_off channel=0 note=31 velocity=95 time=0
EXTRACT: note_on channel=0 note=35 velocity=95 time=0
EXTRACT: note_off channel=9 note=42 velocity=47 time=0
EXTRACT: note_on channel=9 note=40 velocity=111 time=0
EXTRACT: note_on channel=9 note=42 velocity=95 time=0
EXTRACT: note_on channel=9 note=51 velocity=79 time=0
EXTRACT: note_off channel=0 note=35 velocity=95 time=0.217391
EXTRACT: note_on channel=0 note=43 velocity=95 time=0
EXTRACT: note_off channel=9 note=40 velocity=111 time=0
EXTRACT: note_off channel=9 note=42 velocity=95 time=0
EXTRACT: note_off channel=9 note=51 velocity=79 time=0
EXTRACT: note_on channel=9 note=42 velocity=47 time=0
EXTRACT: note_off channel=0 note=43 velocity=95 time=0.217391
EXTRACT: note_on channel=0 note=40 velocity=95 time=0
EXTRACT: note_off channel=9 note=42 velocity=47 time=0
EXTRACT: note_on channel=9 note=35 velocity=127 time=0
EXTRACT: note_on channel=9 note=42 velocity=79 time=0
EXTRACT: note_on channel=9 note=51 velocity=63 time=0
EXTRACT: note_off channel=9 note=35 velocity=127 time=0.217391
EXTRACT: note_off channel=9 note=42 velocity=79 time=0
EXTRACT: note_off channel=9 note=51 velocity=63 time=0
EXTRACT: note_on channel=9 note=42 velocity=47 time=0
EXTRACT: note_on channel=2 note=64 velocity=127 time=0.217391
EXTRACT: note_off channel=0 note=40 velocity=95 time=0
EXTRACT: note_off channel=9 note=42 velocity=47 time=0
EXTRACT: note_on channel=9 note=39 velocity=95 time=0
EXTRACT: note_on channel=9 note=38 velocity=95 time=0
EXTRACT: note_on channel=9 note=41 velocity=111 time=0
EXTRACT: note_on channel=9 note=54 velocity=127 time=0
EXTRACT: note_on channel=9 note=42 velocity=95 time=0
EXTRACT: note_on channel=9 note=51 velocity=79 time=0
EXTRACT: note_on channel=1 note=40 velocity=95 time=0.16304325
EXTRACT: note_off channel=2 note=64 velocity=127 time=0.05434775
EXTRACT: note_off channel=1 note=40 velocity=95 time=0
EXTRACT: pitchwheel channel=1 pitch=0 time=0
EXTRACT: note_on channel=1 note=40 velocity=95 time=0
EXTRACT: note_off channel=9 note=39 velocity=95 time=0
EXTRACT: note_off channel=9 note=38 velocity=95 time=0
EXTRACT: note_off channel=9 note=41 velocity=111 time=0
EXTRACT: note_off channel=9 note=54 velocity=127 time=0
EXTRACT: note_off channel=9 note=42 velocity=95 time=0
EXTRACT: note_off channel=9 note=51 velocity=79 time=0
EXTRACT: note_on channel=9 note=42 velocity=47 time=0
EXTRACT: pitchwheel channel=1 pitch=128 time=0.019474610416666666
EXTRACT: pitchwheel channel=1 pitch=256 time=0.019474610416666666
EXTRACT: pitchwheel channel=1 pitch=384 time=0.019474610416666666
EXTRACT: pitchwheel channel=1 pitch=512 time=0.019474610416666666
EXTRACT: pitchwheel channel=1 pitch=640 time=0.019474610416666666
EXTRACT: pitchwheel channel=1 pitch=768 time=0.019474610416666666
EXTRACT: pitchwheel channel=1 pitch=896 time=0.019474610416666666
EXTRACT: pitchwheel channel=1 pitch=1024 time=0.019474610416666666
EXTRACT: pitchwheel channel=1 pitch=1152 time=0.019474610416666666
EXTRACT: pitchwheel channel=1 pitch=1280 time=0.019474610416666666
EXTRACT: pitchwheel channel=1 pitch=1408 time=0.019474610416666666
EXTRACT: note_on channel=2 note=66 velocity=127 time=0.0031702854166666666
EXTRACT: pitchwheel channel=1 pitch=1408 time=0
EXTRACT: note_off channel=9 note=42 velocity=47 time=0
EXTRACT: note_on channel=9 note=42 velocity=79 time=0
EXTRACT: note_on channel=9 note=51 velocity=63 time=0
EXTRACT: note_on channel=9 note=35 velocity=127 time=0
EXTRACT: note_off channel=2 note=66 velocity=127 time=0.217391
EXTRACT: note_on channel=2 note=62 velocity=111 time=0
EXTRACT: pitchwheel channel=1 pitch=1408 time=0
EXTRACT: pitchwheel channel=1 pitch=0 time=0
EXTRACT: note_off channel=1 note=40 velocity=95 time=0
EXTRACT: note_on channel=0 note=40 velocity=95 time=0
EXTRACT: note_off channel=9 note=42 velocity=79 time=0
EXTRACT: note_off channel=9 note=51 velocity=63 time=0
EXTRACT: note_off channel=9 note=35 velocity=127 time=0
EXTRACT: note_on channel=9 note=42 velocity=47 time=0
EXTRACT: note_off channel=2 note=62 velocity=111 time=0.217391
EXTRACT: note_off channel=0 note=40 velocity=95 time=0
EXTRACT: note_on channel=0 note=38 velocity=95 time=0
EXTRACT: note_off channel=9 note=42 velocity=47 time=0
EXTRACT: note_on channel=9 note=42 velocity=95 time=0
EXTRACT: note_on channel=9 note=51 velocity=79 time=0
EXTRACT: note_on channel=9 note=40 velocity=111 time=0
EXTRACT: note_off channel=0 note=38 velocity=95 time=0.217391
EXTRACT: note_off channel=9 note=42 velocity=95 time=0
EXTRACT: note_off channel=9 note=51 velocity=79 time=0
EXTRACT: note_off channel=9 note=40 velocity=111 time=0
EXTRACT: note_on channel=9 note=42 velocity=47 time=0
EXTRACT: note_off channel=9 note=42 velocity=47 time=0.217391
EXTRACT: note_on channel=9 note=42 velocity=79 time=0
EXTRACT: note_on channel=9 note=51 velocity=63 time=0
EXTRACT: note_off channel=9 note=42 velocity=79 time=0.217391
EXTRACT: note_off channel=9 note=51 velocity=63 time=0
EXTRACT: note_on channel=9 note=35 velocity=127 time=0
EXTRACT: note_on channel=9 note=42 velocity=47 time=0
EXTRACT: note_off channel=9 note=35 velocity=127 time=0.217391
EXTRACT: note_off channel=9 note=42 velocity=47 time=0
EXTRACT: note_on channel=9 note=42 velocity=95 time=0
EXTRACT: note_on channel=9 note=51 velocity=79 time=0
EXTRACT: note_on channel=9 note=38 velocity=111 time=0
EXTRACT: note_on channel=9 note=39 velocity=95 time=0
EXTRACT: note_on channel=9 note=54 velocity=111 time=0
EXTRACT: note_on channel=9 note=41 velocity=111 time=0
EXTRACT: note_off channel=9 note=42 velocity=95 time=0.217391
EXTRACT: note_off channel=9 note=51 velocity=79 time=0
EXTRACT: note_off channel=9 note=38 velocity=111 time=0
EXTRACT: note_off channel=9 note=39 velocity=95 time=0
EXTRACT: note_off channel=9 note=54 velocity=111 time=0
EXTRACT: note_off channel=9 note=41 velocity=111 time=0
EXTRACT: note_on channel=9 note=42 velocity=31 time=0
EXTRACT: note_off channel=9 note=42 velocity=31 time=0.217391
EXTRACT: note_on channel=9 note=35 velocity=127 time=0
EXTRACT: note_on channel=9 note=42 velocity=79 time=0
EXTRACT: note_on channel=9 note=51 velocity=63 time=0
EXTRACT: note_on channel=2 note=71 velocity=127 time=0.217391
EXTRACT: note_on channel=0 note=40 velocity=79 time=0
EXTRACT: note_off channel=9 note=35 velocity=127 time=0
EXTRACT: note_off channel=9 note=42 velocity=79 time=0
EXTRACT: note_off channel=9 note=51 velocity=63 time=0
EXTRACT: note_on channel=9 note=42 velocity=47 time=0
EXTRACT: note_off channel=2 note=71 velocity=127 time=0.217391
EXTRACT: note_on channel=2 note=71 velocity=111 time=0
EXTRACT: note_off channel=0 note=40 velocity=79 time=0
EXTRACT: note_on channel=0 note=40 velocity=95 time=0
EXTRACT: note_off channel=9 note=42 velocity=47 time=0
EXTRACT: note_on channel=9 note=40 velocity=111 time=0
EXTRACT: note_on channel=9 note=51 velocity=63 time=0
EXTRACT: note_on channel=9 note=42 velocity=95 time=0
EXTRACT: note_off channel=2 note=71 velocity=111 time=0.217391
EXTRACT: note_on channel=2 note=71 velocity=111 time=0
EXTRACT: note_off channel=0 note=40 velocity=95 time=0
EXTRACT: note_off channel=9 note=40 velocity=111 time=0
EXTRACT: note_off channel=9 note=51 velocity=63 time=0
EXTRACT: note_off channel=9 note=42 velocity=95 time=0
EXTRACT: note_on channel=9 note=42 velocity=47 time=0
EXTRACT: note_off channel=2 note=71 velocity=111 time=0.217391
EXTRACT: note_on channel=2 note=69 velocity=127 time=0
EXTRACT: note_on channel=0 note=40 velocity=95 time=0
EXTRACT: note_off channel=9 note=42 velocity=47 time=0
EXTRACT: note_on channel=9 note=42 velocity=79 time=0
EXTRACT: note_on channel=9 note=51 velocity=63 time=0
EXTRACT: note_on channel=9 note=35 velocity=127 time=0
EXTRACT: note_off channel=2 note=69 velocity=127 time=0.217391
EXTRACT: note_on channel=2 note=71 velocity=111 time=0
EXTRACT: note_off channel=0 note=40 velocity=95 time=0
EXTRACT: note_off channel=9 note=42 velocity=79 time=0
EXTRACT: note_off channel=9 note=51 velocity=63 time=0
EXTRACT: note_off channel=9 note=35 velocity=127 time=0
EXTRACT: note_on channel=9 note=42 velocity=47 time=0
EXTRACT: note_off channel=2 note=71 velocity=111 time=0.217391
EXTRACT: note_on channel=2 note=69 velocity=127 time=0
EXTRACT: note_off channel=9 note=42 velocity=47 time=0
EXTRACT: note_on channel=9 note=38 velocity=111 time=0
EXTRACT: note_on channel=9 note=39 velocity=95 time=0
EXTRACT: note_on channel=9 note=41 velocity=111 time=0
EXTRACT: note_on channel=9 note=54 velocity=95 time=0
EXTRACT: note_on channel=9 note=42 velocity=95 time=0
EXTRACT: note_on channel=9 note=51 velocity=63 time=0
EXTRACT: note_off channel=2 note=69 velocity=127 time=0.217391
EXTRACT: note_on channel=2 note=71 velocity=111 time=0
EXTRACT: note_on channel=0 note=38 velocity=95 time=0
EXTRACT: note_off channel=9 note=38 velocity=111 time=0
EXTRACT: note_off channel=9 note=39 velocity=95 time=0
EXTRACT: note_off channel=9 note=41 velocity=111 time=0
EXTRACT: note_off channel=9 note=54 velocity=95 time=0
EXTRACT: note_off channel=9 note=42 velocity=95 time=0
EXTRACT: note_off channel=9 note=51 velocity=63 time=0
EXTRACT: note_on channel=9 note=42 velocity=31 time=0
EXTRACT: note_off channel=2 note=71 velocity=111 time=0.217391
EXTRACT: note_on channel=2 note=74 velocity=111 time=0
EXTRACT: note_off channel=0 note=38 velocity=95 time=0
EXTRACT: note_on channel=0 note=38 velocity=95 time=0
EXTRACT: note_off channel=9 note=42 velocity=31 time=0
EXTRACT: note_on channel=9 note=51 velocity=63 time=0
EXTRACT: note_on channel=9 note=35 velocity=127 time=0
EXTRACT: note_on channel=9 note=42 velocity=79 time=0
EXTRACT: note_off channel=2 note=74 velocity=111 time=0.217391
EXTRACT: note_on channel=2 note=71 velocity=111 time=0
EXTRACT: note_off channel=0 note=38 velocity=95 time=0
EXTRACT: note_off channel=9 note=51 velocity=63 time=0
EXTRACT: note_off channel=9 note=35 velocity=127 time=0
EXTRACT: note_off channel=9 note=42 velocity=79 time=0
EXTRACT: note_on channel=9 note=42 velocity=47 time=0
EXTRACT: note_off channel=2 note=71 velocity=111 time=0.217391
EXTRACT: note_on channel=2 note=69 velocity=127 time=0
EXTRACT: note_on channel=0 note=38 velocity=95 time=0
EXTRACT: note_off channel=9 note=42 velocity=47 time=0
EXTRACT: note_on channel=9 note=42 velocity=95 time=0
EXTRACT: note_on channel=9 note=51 velocity=63 time=0
EXTRACT: note_on channel=9 note=40 velocity=111 time=0
EXTRACT: note_off channel=2 note=69 velocity=127 time=0.217391
EXTRACT: note_off channel=0 note=38 velocity=95 time=0
EXTRACT: note_off channel=9 note=42 velocity=95 time=0
EXTRACT: note_off channel=9 note=51 velocity=63 time=0
EXTRACT: note_off channel=9 note=40 velocity=111 time=0
EXTRACT: note_on channel=9 note=42 velocity=47 time=0
EXTRACT: note_on channel=2 note=71 velocity=127 time=0.217391
EXTRACT: note_off channel=9 note=42 velocity=47 time=0
EXTRACT: note_on channel=9 note=42 velocity=79 time=0
EXTRACT: note_on channel=9 note=51 velocity=63 time=0
EXTRACT: note_off channel=2 note=71 velocity=127 time=0.217391
EXTRACT: note_off channel=9 note=42 velocity=79 time=0
EXTRACT: note_off channel=9 note=51 velocity=63 time=0
EXTRACT: note_on channel=9 note=35 velocity=127 time=0
EXTRACT: note_on channel=9 note=42 velocity=47 time=0
EXTRACT: note_off channel=9 note=35 velocity=127 time=0.217391
EXTRACT: note_off channel=9 note=42 velocity=47 time=0
EXTRACT: note_on channel=9 note=38 velocity=111 time=0
EXTRACT: note_on channel=9 note=39 velocity=111 time=0
EXTRACT: note_on channel=9 note=54 velocity=95 time=0
EXTRACT: note_on channel=9 note=41 velocity=111 time=0
EXTRACT: note_on channel=9 note=42 velocity=95 time=0
EXTRACT: note_on channel=9 note=51 velocity=63 time=0
EXTRACT: note_on channel=2 note=71 velocity=127 time=0.217391
EXTRACT: note_off channel=9 note=38 velocity=111 time=0
EXTRACT: note_off channel=9 note=39 velocity=111 time=0
EXTRACT: note_off channel=9 note=54 velocity=95 time=0
EXTRACT: note_off channel=9 note=41 velocity=111 time=0
EXTRACT: note_off channel=9 note=42 velocity=95 time=0
EXTRACT: note_off channel=9 note=51 velocity=63 time=0
EXTRACT: note_on channel=9 note=42 velocity=47 time=0
EXTRACT: note_off channel=2 note=71 velocity=127 time=0.217391
EXTRACT: note_on channel=2 note=71 velocity=111 time=0
EXTRACT: note_off channel=9 note=42 velocity=47 time=0
EXTRACT: note_on channel=9 note=42 velocity=79 time=0
EXTRACT: note_on channel=9 note=35 velocity=127 time=0
EXTRACT: note_on channel=9 note=51 velocity=63 time=0
EXTRACT: note_off channel=2 note=71 velocity=111 time=0.217391
EXTRACT: note_on channel=2 note=71 velocity=111 time=0
EXTRACT: note_on channel=0 note=40 velocity=79 time=0
EXTRACT: note_off channel=9 note=42 velocity=79 time=0
EXTRACT: note_off channel=9 note=35 velocity=127 time=0
EXTRACT: note_off channel=9 note=51 velocity=63 time=0
EXTRACT: note_on channel=9 note=42 velocity=47 time=0
EXTRACT: note_off channel=2 note=71 velocity=111 time=0.217391
EXTRACT: note_on channel=2 note=71 velocity=111 time=0
EXTRACT: note_off channel=0 note=40 velocity=79 time=0
EXTRACT: note_on channel=0 note=40 velocity=95 time=0
EXTRACT: note_off channel=9 note=42 velocity=47 time=0
EXTRACT: note_on channel=9 note=40 velocity=111 time=0
EXTRACT: note_on channel=9 note=42 velocity=95 time=0
EXTRACT: note_on channel=9 note=51 velocity=63 time=0
EXTRACT: note_off channel=2 note=71 velocity=111 time=0.217391
EXTRACT: note_on channel=2 note=71 velocity=111 time=0
EXTRACT: note_off channel=0 note=40 velocity=95 time=0
EXTRACT: note_off channel=9 note=40 velocity=111 time=0
EXTRACT: note_off channel=9 note=42 velocity=95 time=0
EXTRACT: note_off channel=9 note=51 velocity=63 time=0
EXTRACT: note_on channel=9 note=42 velocity=47 time=0
EXTRACT: note_off channel=2 note=71 velocity=111 time=0.217391
EXTRACT: note_on channel=2 note=71 velocity=111 time=0
EXTRACT: note_on channel=0 note=40 velocity=95 time=0
EXTRACT: note_off channel=9 note=42 velocity=47 time=0
EXTRACT: note_on channel=9 note=42 velocity=79 time=0
EXTRACT: note_on channel=9 note=35 velocity=127 time=0
EXTRACT: note_on channel=9 note=51 velocity=79 time=0
EXTRACT: note_off channel=2 note=71 velocity=111 time=0.217391
EXTRACT: note_on channel=2 note=71 velocity=111 time=0
EXTRACT: note_off channel=0 note=40 velocity=95 time=0
EXTRACT: note_off channel=9 note=42 velocity=79 time=0
EXTRACT: note_off channel=9 note=35 velocity=127 time=0
EXTRACT: note_off channel=9 note=51 velocity=79 time=0
EXTRACT: note_on channel=9 note=42 velocity=47 time=0
EXTRACT: note_off channel=2 note=71 velocity=111 time=0.217391
EXTRACT: note_on channel=2 note=69 velocity=127 time=0
EXTRACT: note_off channel=9 note=42 velocity=47 time=0
EXTRACT: note_on channel=9 note=39 velocity=95 time=0
EXTRACT: note_on channel=9 note=38 velocity=95 time=0
EXTRACT: note_on channel=9 note=41 velocity=111 time=0
EXTRACT: note_on channel=9 note=54 velocity=95 time=0
EXTRACT: note_on channel=9 note=42 velocity=95 time=0
EXTRACT: note_on channel=9 note=51 velocity=79 time=0
EXTRACT: note_off channel=2 note=69 velocity=127 time=0.217391
EXTRACT: note_on channel=2 note=67 velocity=111 time=0
EXTRACT: note_on channel=0 note=38 velocity=95 time=0
EXTRACT: note_off channel=9 note=39 velocity=95 time=0
EXTRACT: note_off channel=9 note=38 velocity=95 time=0
EXTRACT: note_off channel=9 note=41 velocity=111 time=0
EXTRACT: note_off channel=9 note=54 velocity=95 time=0
EXTRACT: note_off channel=9 note=42 velocity=95 time=0
EXTRACT: note_off channel=9 note=51 velocity=79 time=0
EXTRACT: note_on channel=9 note=42 velocity=47 time=0
EXTRACT: note_off channel=2 note=67 velocity=111 time=0.217391
EXTRACT: note_on channel=2 note=69 velocity=127 time=0
EXTRACT: note_off channel=0 note=38 velocity=95 time=0
EXTRACT: note_on channel=0 note=38 velocity=95 time=0
EXTRACT: note_off channel=9 note=42 velocity=47 time=0
EXTRACT: note_on channel=9 note=35 velocity=127 time=0
EXTRACT: note_on channel=9 note=42 velocity=95 time=0
EXTRACT: note_on channel=9 note=51 velocity=63 time=0
EXTRACT: note_off channel=2 note=69 velocity=127 time=0.217391
EXTRACT: note_on channel=2 note=67 velocity=111 time=0
EXTRACT: note_off channel=0 note=38 velocity=95 time=0
EXTRACT: note_off channel=9 note=35 velocity=127 time=0
EXTRACT: note_off channel=9 note=42 velocity=95 time=0
EXTRACT: note_off channel=9 note=51 velocity=63 time=0
EXTRACT: note_on channel=9 note=42 velocity=47 time=0
EXTRACT: note_off channel=2 note=67 velocity=111 time=0.217391
EXTRACT: note_on channel=2 note=71 velocity=127 time=0
EXTRACT: note_on channel=0 note=38 velocity=95 time=0
EXTRACT: note_off channel=9 note=42 velocity=47 time=0
EXTRACT: note_on channel=9 note=40 velocity=111 time=0
EXTRACT: note_on channel=9 note=42 velocity=95 time=0
EXTRACT: note_on channel=9 note=51 velocity=79 time=0
EXTRACT: note_off channel=2 note=71 velocity=127 time=0.217391
EXTRACT: note_off channel=0 note=38 velocity=95 time=0
EXTRACT: note_off channel=9 note=40 velocity=111 time=0
EXTRACT: note_off channel=9 note=42 velocity=95 time=0
EXTRACT: note_off channel=9 note=51 velocity=79 time=0
EXTRACT: note_on channel=9 note=42 velocity=47 time=0
EXTRACT: note_off channel=9 note=42 velocity=47 time=0.217391
EXTRACT: note_on channel=9 note=42 velocity=79 time=0
EXTRACT: note_on channel=9 note=51 velocity=63 time=0
EXTRACT: note_off channel=9 note=42 velocity=79 time=0.217391
EXTRACT: note_off channel=9 note=51 velocity=63 time=0
EXTRACT: note_on channel=9 note=35 velocity=127 time=0
EXTRACT: note_on channel=9 note=42 velocity=47 time=0
EXTRACT: note_off channel=9 note=35 velocity=127 time=0.217391
EXTRACT: note_off channel=9 note=42 velocity=47 time=0
EXTRACT: note_on channel=9 note=54 velocity=95 time=0
EXTRACT: note_on channel=9 note=39 velocity=95 time=0
EXTRACT: note_on channel=9 note=41 velocity=111 time=0
EXTRACT: note_on channel=9 note=38 velocity=95 time=0
EXTRACT: note_on channel=9 note=42 velocity=95 time=0
EXTRACT: note_on channel=9 note=51 velocity=79 time=0
EXTRACT: note_on channel=2 note=71 velocity=111 time=0.217391
EXTRACT: note_off channel=9 note=54 velocity=95 time=0
EXTRACT: note_off channel=9 note=39 velocity=95 time=0
EXTRACT: note_off channel=9 note=41 velocity=111 time=0
EXTRACT: note_off channel=9 note=38 velocity=95 time=0
EXTRACT: note_off channel=9 note=42 velocity=95 time=0
EXTRACT: note_off channel=9 note=51 velocity=79 time=0
EXTRACT: note_on channel=9 note=42 velocity=47 time=0
EXTRACT: note_off channel=2 note=71 velocity=111 time=0.217391
EXTRACT: note_on channel=2 note=69 velocity=111 time=0
EXTRACT: note_off channel=9 note=42 velocity=47 time=0
EXTRACT: note_on channel=9 note=42 velocity=79 time=0
EXTRACT: note_on channel=9 note=35 velocity=127 time=0
EXTRACT: note_on channel=9 note=51 velocity=79 time=0
EXTRACT: note_off channel=2 note=69 velocity=111 time=0.217391
EXTRACT: note_on channel=2 note=67 velocity=127 time=0
EXTRACT: note_on channel=0 note=36 velocity=95 time=0
EXTRACT: note_off channel=9 note=42 velocity=79 time=0
EXTRACT: note_off channel=9 note=35 velocity=127 time=0
EXTRACT: note_off channel=9 note=51 velocity=79 time=0
EXTRACT: note_on channel=9 note=42 velocity=47 time=0
EXTRACT: note_off channel=2 note=67 velocity=127 time=0.217391
EXTRACT: note_on channel=2 note=64 velocity=111 time=0
EXTRACT: note_off channel=0 note=36 velocity=95 time=0
EXTRACT: note_on channel=0 note=36 velocity=95 time=0
EXTRACT: note_off channel=9 note=42 velocity=47 time=0
EXTRACT: note_on channel=9 note=42 velocity=79 time=0
EXTRACT: note_on channel=9 note=51 velocity=79 time=0
EXTRACT: note_on channel=9 note=40 velocity=111 time=0
EXTRACT: note_off channel=2 note=64 velocity=111 time=0.217391
EXTRACT: note_on channel=2 note=62 velocity=111 time=0
EXTRACT: note_off channel=0 note=36 velocity=95 time=0
EXTRACT: note_off channel=9 note=42 velocity=79 time=0
EXTRACT: note_off channel=9 note=51 velocity=79 time=0
EXTRACT: note_off channel=9 note=40 velocity=111 time=0
EXTRACT: note_on channel=9 note=42 velocity=47 time=0
EXTRACT: note_off channel=2 note=62 velocity=111 time=0.217391
EXTRACT: note_on channel=2 note=64 velocity=111 time=0
EXTRACT: note_on channel=0 note=36 velocity=95 time=0
EXTRACT: note_off channel=9 note=42 velocity=47 time=0
EXTRACT: note_on channel=9 note=35 velocity=127 time=0
EXTRACT: note_on channel=9 note=42 velocity=79 time=0
EXTRACT: note_on channel=9 note=51 velocity=63 time=0
EXTRACT: note_off channel=2 note=64 velocity=111 time=0.217391
EXTRACT: note_off channel=0 note=36 velocity=95 time=0
EXTRACT: note_off channel=9 note=35 velocity=127 time=0
EXTRACT: note_off channel=9 note=42 velocity=79 time=0
EXTRACT: note_off channel=9 note=51 velocity=63 time=0
EXTRACT: note_on channel=9 note=42 velocity=47 time=0
EXTRACT: note_on channel=2 note=64 velocity=111 time=0.217391
EXTRACT: note_off channel=9 note=42 velocity=47 time=0
EXTRACT: note_on channel=9 note=38 velocity=111 time=0
EXTRACT: note_on channel=9 note=54 velocity=111 time=0
EXTRACT: note_on channel=9 note=41 velocity=111 time=0
EXTRACT: note_on channel=9 note=39 velocity=95 time=0
EXTRACT: note_on channel=9 note=42 velocity=95 time=0
EXTRACT: note_on channel=9 note=51 velocity=79 time=0
EXTRACT: note_off channel=2 note=64 velocity=111 time=0.217391
EXTRACT: note_on channel=2 note=64 velocity=111 time=0
EXTRACT: note_on channel=0 note=38 velocity=95 time=0
EXTRACT: note_off channel=9 note=38 velocity=111 time=0
EXTRACT: note_off channel=9 note=54 velocity=111 time=0
EXTRACT: note_off channel=9 note=41 velocity=111 time=0
EXTRACT: note_off channel=9 note=39 velocity=95 time=0
EXTRACT: note_off channel=9 note=42 velocity=95 time=0
EXTRACT: note_off channel=9 note=51 velocity=79 time=0
EXTRACT: note_on channel=9 note=42 velocity=47 time=0
EXTRACT: note_off channel=2 note=64 velocity=111 time=0.217391
EXTRACT: note_on channel=2 note=66 velocity=127 time=0
EXTRACT: note_off channel=0 note=38 velocity=95 time=0
EXTRACT: note_on channel=0 note=38 velocity=95 time=0
EXTRACT: note_off channel=9 note=42 velocity=47 time=0
EXTRACT: note_on channel=9 note=35 velocity=127 time=0
EXTRACT: note_on channel=9 note=42 velocity=79 time=0
EXTRACT: note_on channel=9 note=51 velocity=63 time=0
EXTRACT: note_off channel=2 note=66 velocity=127 time=0.217391
EXTRACT: note_on channel=2 note=64 velocity=111 time=0
EXTRACT: note_off channel=0 note=38 velocity=95 time=0
EXTRACT: note_off channel=9 note=35 velocity=127 time=0
EXTRACT: note_off channel=9 note=42 velocity=79 time=0
EXTRACT: note_off channel=9 note=51 velocity=63 time=0
EXTRACT: note_on channel=9 note=42 velocity=47 time=0
EXTRACT: note_off channel=2 note=64 velocity=111 time=0.217391
EXTRACT: note_on channel=2 note=62 velocity=127 time=0
EXTRACT: note_on channel=0 note=38 velocity=95 time=0
EXTRACT: note_off channel=9 note=42 velocity=47 time=0
EXTRACT: note_on channel=9 note=40 velocity=111 time=0
EXTRACT: note_on channel=9 note=42 velocity=95 time=0
EXTRACT: note_on channel=9 note=51 velocity=79 time=0
EXTRACT: note_off channel=2 note=62 velocity=127 time=0.217391
EXTRACT: note_off channel=0 note=38 velocity=95 time=0
EXTRACT: note_off channel=9 note=40 velocity=111 time=0
EXTRACT: note_off channel=9 note=42 velocity=95 time=0
EXTRACT: note_off channel=9 note=51 velocity=79 time=0
EXTRACT: note_on channel=9 note=42 velocity=47 time=0
EXTRACT: note_on channel=2 note=62 velocity=127 time=0.217391
EXTRACT: note_off channel=9 note=42 velocity=47 time=0
EXTRACT: note_on channel=9 note=42 velocity=79 time=0
EXTRACT: note_on channel=9 note=51 velocity=63 time=0
EXTRACT: note_off channel=2 note=62 velocity=127 time=0.217391
EXTRACT: note_off channel=9 note=42 velocity=79 time=0
EXTRACT: note_off channel=9 note=51 velocity=63 time=0
EXTRACT: note_on channel=9 note=35 velocity=127 time=0
EXTRACT: note_on channel=9 note=42 velocity=47 time=0
EXTRACT: note_on channel=2 note=64 velocity=111 time=0.217391
EXTRACT: note_off channel=9 note=35 velocity=127 time=0
EXTRACT: note_off channel=9 note=42 velocity=47 time=0
EXTRACT: note_on channel=9 note=42 velocity=95 time=0
EXTRACT: note_on channel=9 note=39 velocity=111 time=0
EXTRACT: note_on channel=9 note=41 velocity=111 time=0
EXTRACT: note_on channel=9 note=38 velocity=111 time=0
EXTRACT: note_on channel=9 note=54 velocity=127 time=0
EXTRACT: note_on channel=9 note=51 velocity=79 time=0
EXTRACT: note_off channel=2 note=64 velocity=111 time=0.217391
EXTRACT: note_off channel=9 note=42 velocity=95 time=0
EXTRACT: note_off channel=9 note=39 velocity=111 time=0
EXTRACT: note_off channel=9 note=41 velocity=111 time=0
EXTRACT: note_off channel=9 note=38 velocity=111 time=0
EXTRACT: note_off channel=9 note=54 velocity=127 time=0
EXTRACT: note_off channel=9 note=51 velocity=79 time=0
EXTRACT: note_on channel=9 note=42 velocity=47 time=0
EXTRACT: note_on channel=2 note=67 velocity=111 time=0.217391
EXTRACT: note_off channel=9 note=42 velocity=47 time=0
EXTRACT: note_on channel=9 note=42 velocity=79 time=0
EXTRACT: note_on channel=9 note=35 velocity=127 time=0
EXTRACT: note_on channel=9 note=51 velocity=79 time=0
EXTRACT: note_off channel=2 note=67 velocity=111 time=0.217391
EXTRACT: note_on channel=2 note=64 velocity=111 time=0
EXTRACT: note_on channel=0 note=40 velocity=79 time=0
EXTRACT: note_off channel=9 note=42 velocity=79 time=0
EXTRACT: note_off channel=9 note=35 velocity=127 time=0
EXTRACT: note_off channel=9 note=51 velocity=79 time=0
EXTRACT: note_on channel=9 note=42 velocity=47 time=0
EXTRACT: note_off channel=2 note=64 velocity=111 time=0.217391
EXTRACT: note_off channel=0 note=40 velocity=79 time=0
EXTRACT: note_on channel=0 note=40 velocity=95 time=0
EXTRACT: note_off channel=9 note=42 velocity=47 time=0
EXTRACT: note_on channel=9 note=40 velocity=111 time=0
EXTRACT: note_on channel=9 note=42 velocity=95 time=0
EXTRACT: note_on channel=9 note=51 velocity=79 time=0
EXTRACT: note_off channel=0 note=40 velocity=95 time=0.217391
EXTRACT: note_off channel=9 note=40 velocity=111 time=0
EXTRACT: note_off channel=9 note=42 velocity=95 time=0
EXTRACT: note_off channel=9 note=51 velocity=79 time=0
EXTRACT: note_on channel=9 note=42 velocity=47 time=0
EXTRACT: note_on channel=0 note=40 velocity=95 time=0.217391
EXTRACT: note_off channel=9 note=42 velocity=47 time=0
EXTRACT: note_on channel=9 note=35 velocity=127 time=0
EXTRACT: note_on channel=9 note=51 velocity=63 time=0
EXTRACT: note_on channel=9 note=42 velocity=95 time=0
EXTRACT: note_off channel=0 note=40 velocity=95 time=0.217391
EXTRACT: note_off channel=9 note=35 velocity=127 time=0
EXTRACT: note_off channel=9 note=51 velocity=63 time=0
EXTRACT: note_off channel=9 note=42 velocity=95 time=0
EXTRACT: note_on channel=9 note=42 velocity=47 time=0
EXTRACT: note_on channel=2 note=64 velocity=127 time=0.217391
EXTRACT: note_off channel=9 note=42 velocity=47 time=0
EXTRACT: note_on channel=9 note=51 velocity=79 time=0
EXTRACT: note_on channel=9 note=39 velocity=95 time=0
EXTRACT: note_on channel=9 note=38 velocity=95 time=0
EXTRACT: note_on channel=9 note=41 velocity=111 time=0
EXTRACT: note_on channel=9 note=54 velocity=127 time=0
EXTRACT: note_on channel=9 note=42 velocity=95 time=0
EXTRACT: note_off channel=2 note=64 velocity=127 time=0.217391
EXTRACT: note_on channel=0 note=38 velocity=95 time=0
EXTRACT: note_off channel=9 note=51 velocity=79 time=0
EXTRACT: note_off channel=9 note=39 velocity=95 time=0
EXTRACT: note_off channel=9 note=38 velocity=95 time=0
EXTRACT: note_off channel=9 note=41 velocity=111 time=0
EXTRACT: note_off channel=9 note=54 velocity=127 time=0
EXTRACT: note_off channel=9 note=42 velocity=95 time=0
EXTRACT: note_on channel=9 note=42 velocity=47 time=0
EXTRACT: note_on channel=2 note=66 velocity=127 time=0.217391
EXTRACT: note_off channel=0 note=38 velocity=95 time=0
EXTRACT: note_on channel=0 note=38 velocity=95 time=0
EXTRACT: note_off channel=9 note=42 velocity=47 time=0
EXTRACT: note_on channel=9 note=51 velocity=79 time=0
EXTRACT: note_on channel=9 note=35 velocity=127 time=0
EXTRACT: note_on channel=9 note=42 velocity=95 time=0
EXTRACT: note_off channel=2 note=66 velocity=127 time=0.217391
EXTRACT: note_on channel=2 note=62 velocity=111 time=0
EXTRACT: note_off channel=0 note=38 velocity=95 time=0
EXTRACT: note_off channel=9 note=51 velocity=79 time=0
EXTRACT: note_off channel=9 note=35 velocity=127 time=0
EXTRACT: note_off channel=9 note=42 velocity=95 time=0
EXTRACT: note_on channel=9 note=42 velocity=63 time=0
EXTRACT: note_off channel=2 note=62 velocity=111 time=0.217391
EXTRACT: note_on channel=0 note=38 velocity=95 time=0
EXTRACT: note_off channel=9 note=42 velocity=63 time=0
EXTRACT: note_on channel=9 note=51 velocity=79 time=0
EXTRACT: note_on channel=9 note=40 velocity=111 time=0
EXTRACT: note_on channel=9 note=42 velocity=95 time=0
EXTRACT: note_off channel=0 note=38 velocity=95 time=0.217391
EXTRACT: note_off channel=9 note=51 velocity=79 time=0
EXTRACT: note_off channel=9 note=40 velocity=111 time=0
EXTRACT: note_off channel=9 note=42 velocity=95 time=0
EXTRACT: note_on channel=9 note=42 velocity=47 time=0
EXTRACT: note_off channel=9 note=42 velocity=47 time=0.217391
EXTRACT: note_on channel=9 note=51 velocity=79 time=0
EXTRACT: note_on channel=9 note=42 velocity=79 time=0
EXTRACT: note_off channel=9 note=51 velocity=79 time=0.217391
EXTRACT: note_off channel=9 note=42 velocity=79 time=0
EXTRACT: note_on channel=9 note=35 velocity=127 time=0
EXTRACT: note_on channel=9 note=42 velocity=47 time=0
EXTRACT: note_off channel=9 note=35 velocity=127 time=0.217391
EXTRACT: note_off channel=9 note=42 velocity=47 time=0
EXTRACT: note_on channel=9 note=38 velocity=111 time=0
EXTRACT: note_on channel=9 note=39 velocity=95 time=0
EXTRACT: note_on channel=9 note=54 velocity=111 time=0
EXTRACT: note_on channel=9 note=41 velocity=111 time=0
EXTRACT: note_on channel=9 note=42 velocity=95 time=0
EXTRACT: note_on channel=9 note=51 velocity=79 time=0
EXTRACT: note_off channel=9 note=38 velocity=111 time=0.217391
EXTRACT: note_off channel=9 note=39 velocity=95 time=0
EXTRACT: note_off channel=9 note=54 velocity=111 time=0
EXTRACT: note_off channel=9 note=41 velocity=111 time=0
EXTRACT: note_off channel=9 note=42 velocity=95 time=0
EXTRACT: note_off channel=9 note=51 velocity=79 time=0
EXTRACT: note_on channel=9 note=42 velocity=47 time=0
EXTRACT: note_off channel=9 note=42 velocity=47 time=0.217391
EXTRACT: note_on channel=9 note=35 velocity=127 time=0
EXTRACT: note_on channel=9 note=49 velocity=79 time=0
EXTRACT: note_on channel=9 note=51 velocity=63 time=0
EXTRACT: note_on channel=2 note=71 velocity=111 time=0.217391
EXTRACT: note_on channel=0 note=40 velocity=79 time=0
EXTRACT: note_off channel=9 note=35 velocity=127 time=0
EXTRACT: note_off channel=9 note=49 velocity=79 time=0
EXTRACT: note_off channel=9 note=51 velocity=63 time=0
EXTRACT: note_on channel=9 note=42 velocity=47 time=0
EXTRACT: note_off channel=2 note=71 velocity=111 time=0.217391
EXTRACT: note_on channel=2 note=71 velocity=111 time=0
EXTRACT: note_off channel=0 note=40 velocity=79 time=0
EXTRACT: note_on channel=0 note=40 velocity=95 time=0
EXTRACT: note_off channel=9 note=42 velocity=47 time=0
EXTRACT: note_on channel=9 note=40 velocity=111 time=0
EXTRACT: note_on channel=9 note=42 velocity=95 time=0
EXTRACT: note_on channel=9 note=51 velocity=79 time=0
EXTRACT: note_off channel=2 note=71 velocity=111 time=0.217391
EXTRACT: note_on channel=2 note=71 velocity=111 time=0
EXTRACT: note_off channel=0 note=40 velocity=95 time=0
EXTRACT: note_off channel=9 note=40 velocity=111 time=0
EXTRACT: note_off channel=9 note=42 velocity=95 time=0
EXTRACT: note_off channel=9 note=51 velocity=79 time=0
EXTRACT: note_on channel=9 note=42 velocity=47 time=0
EXTRACT: note_off channel=2 note=71 velocity=111 time=0.217391
EXTRACT: note_on channel=2 note=71 velocity=111 time=0
EXTRACT: note_on channel=0 note=40 velocity=95 time=0
EXTRACT: note_off channel=9 note=42 velocity=47 time=0
EXTRACT: note_on channel=9 note=42 velocity=79 time=0
EXTRACT: note_on channel=9 note=51 velocity=63 time=0
EXTRACT: note_on channel=9 note=35 velocity=127 time=0
EXTRACT: note_off channel=2 note=71 velocity=111 time=0.217391
EXTRACT: note_on channel=2 note=71 velocity=127 time=0
EXTRACT: note_off channel=0 note=40 velocity=95 time=0
EXTRACT: note_off channel=9 note=42 velocity=79 time=0
EXTRACT: note_off channel=9 note=51 velocity=63 time=0
EXTRACT: note_off channel=9 note=35 velocity=127 time=0
EXTRACT: note_on channel=9 note=42 velocity=47 time=0
EXTRACT: note_off channel=2 note=71 velocity=127 time=0.217391
EXTRACT: note_on channel=2 note=69 velocity=127 time=0
EXTRACT: note_off channel=9 note=42 velocity=47 time=0
EXTRACT: note_on channel=9 note=38 velocity=111 time=0
EXTRACT: note_on channel=9 note=39 velocity=95 time=0
EXTRACT: note_on channel=9 note=41 velocity=111 time=0
EXTRACT: note_on channel=9 note=54 velocity=95 time=0
EXTRACT: note_on channel=9 note=42 velocity=95 time=0
EXTRACT: note_on channel=9 note=51 velocity=79 time=0
EXTRACT: note_off channel=2 note=69 velocity=127 time=0.217391
EXTRACT: note_on channel=2 note=71 velocity=127 time=0
EXTRACT: note_on channel=0 note=38 velocity=95 time=0
EXTRACT: note_off channel=9 note=38 velocity=111 time=0
EXTRACT: note_off channel=9 note=39 velocity=95 time=0
EXTRACT: note_off channel=9 note=41 velocity=111 time=0
EXTRACT: note_off channel=9 note=54 velocity=95 time=0
EXTRACT: note_off channel=9 note=42 velocity=95 time=0
EXTRACT: note_off channel=9 note=51 velocity=79 time=0
EXTRACT: note_on channel=9 note=42 velocity=47 time=0
EXTRACT: note_off channel=2 note=71 velocity=127 time=0.217391
EXTRACT: note_on channel=2 note=74 velocity=111 time=0
EXTRACT: note_off channel=0 note=38 velocity=95 time=0
EXTRACT: note_on channel=0 note=38 velocity=95 time=0
EXTRACT: note_off channel=9 note=42 velocity=47 time=0
EXTRACT: note_on channel=9 note=35 velocity=127 time=0
EXTRACT: note_on channel=9 note=42 velocity=63 time=0
EXTRACT: note_on channel=9 note=51 velocity=63 time=0
EXTRACT: note_off channel=2 note=74 velocity=111 time=0.217391
EXTRACT: note_on channel=2 note=71 velocity=127 time=0
EXTRACT: note_off channel=0 note=38 velocity=95 time=0
EXTRACT: note_off channel=9 note=35 velocity=127 time=0
EXTRACT: note_off channel=9 note=42 velocity=63 time=0
EXTRACT: note_off channel=9 note=51 velocity=63 time=0
EXTRACT: note_on channel=9 note=42 velocity=47 time=0
EXTRACT: note_off channel=2 note=71 velocity=127 time=0.217391
EXTRACT: note_on channel=2 note=69 velocity=127 time=0
EXTRACT: note_on channel=0 note=38 velocity=95 time=0
EXTRACT: note_off channel=9 note=42 velocity=47 time=0
EXTRACT: note_on channel=9 note=42 velocity=95 time=0
EXTRACT: note_on channel=9 note=40 velocity=111 time=0
EXTRACT: note_on channel=9 note=51 velocity=79 time=0
EXTRACT: note_off channel=2 note=69 velocity=127 time=0.217391
EXTRACT: note_off channel=0 note=38 velocity=95 time=0
EXTRACT: note_off channel=9 note=42 velocity=95 time=0
EXTRACT: note_off channel=9 note=40 velocity=111 time=0
EXTRACT: note_off channel=9 note=51 velocity=79 time=0
EXTRACT: note_on channel=9 note=42 velocity=47 time=0
EXTRACT: note_on channel=2 note=71 velocity=127 time=0.217391
EXTRACT: note_off channel=9 note=42 velocity=47 time=0
EXTRACT: note_on channel=9 note=42 velocity=79 time=0
EXTRACT: note_on channel=9 note=51 velocity=63 time=0
EXTRACT: note_off channel=2 note=71 velocity=127 time=0.217391
EXTRACT: note_off channel=9 note=42 velocity=79 time=0
EXTRACT: note_off channel=9 note=51 velocity=63 time=0
EXTRACT: note_on channel=9 note=35 velocity=127 time=0
EXTRACT: note_on channel=9 note=42 velocity=47 time=0
EXTRACT: note_off channel=9 note=35 velocity=127 time=0.217391
EXTRACT: note_off channel=9 note=42 velocity=47 time=0
EXTRACT: note_on channel=9 note=38 velocity=111 time=0
EXTRACT: note_on channel=9 note=39 velocity=111 time=0
EXTRACT: note_on channel=9 note=54 velocity=95 time=0
EXTRACT: note_on channel=9 note=41 velocity=111 time=0
EXTRACT: note_on channel=9 note=42 velocity=95 time=0
EXTRACT: note_on channel=9 note=51 velocity=79 time=0
EXTRACT: note_on channel=2 note=71 velocity=127 time=0.217391
EXTRACT: note_off channel=9 note=38 velocity=111 time=0
EXTRACT: note_off channel=9 note=39 velocity=111 time=0
EXTRACT: note_off channel=9 note=54 velocity=95 time=0
EXTRACT: note_off channel=9 note=41 velocity=111 time=0
EXTRACT: note_off channel=9 note=42 velocity=95 time=0
EXTRACT: note_off channel=9 note=51 velocity=79 time=0
EXTRACT: note_on channel=9 note=42 velocity=47 time=0
EXTRACT: note_off channel=2 note=71 velocity=127 time=0.217391
EXTRACT: note_on channel=2 note=71 velocity=111 time=0
EXTRACT: note_off channel=9 note=42 velocity=47 time=0
EXTRACT: note_on channel=9 note=42 velocity=79 time=0
EXTRACT: note_on channel=9 note=51 velocity=63 time=0
EXTRACT: note_on channel=9 note=35 velocity=127 time=0
EXTRACT: note_off channel=2 note=71 velocity=111 time=0.217391
EXTRACT: note_on channel=2 note=71 velocity=111 time=0
EXTRACT: note_on channel=0 note=40 velocity=79 time=0
EXTRACT: note_off channel=9 note=42 velocity=79 time=0
EXTRACT: note_off channel=9 note=51 velocity=63 time=0
EXTRACT: note_off channel=9 note=35 velocity=127 time=0
EXTRACT: note_on channel=9 note=42 velocity=63 time=0
EXTRACT: note_off channel=2 note=71 velocity=111 time=0.217391
EXTRACT: note_on channel=2 note=71 velocity=111 time=0
EXTRACT: note_off channel=0 note=40 velocity=79 time=0
EXTRACT: note_on channel=0 note=40 velocity=95 time=0
EXTRACT: note_off channel=9 note=42 velocity=63 time=0
EXTRACT: note_on channel=9 note=40 velocity=111 time=0
EXTRACT: note_on channel=9 note=42 velocity=95 time=0
EXTRACT: note_on channel=9 note=51 velocity=79 time=0
EXTRACT: note_off channel=2 note=71 velocity=111 time=0.217391
EXTRACT: note_on channel=2 note=71 velocity=111 time=0
EXTRACT: note_off channel=0 note=40 velocity=95 time=0
EXTRACT: note_off channel=9 note=40 velocity=111 time=0
EXTRACT: note_off channel=9 note=42 velocity=95 time=0
EXTRACT: note_off channel=9 note=51 velocity=79 time=0
EXTRACT: note_on channel=9 note=42 velocity=47 time=0
EXTRACT: note_off channel=2 note=71 velocity=111 time=0.217391
EXTRACT: note_on channel=2 note=69 velocity=127 time=0
EXTRACT: note_on channel=0 note=40 velocity=95 time=0
EXTRACT: note_off channel=9 note=42 velocity=47 time=0
EXTRACT: note_on channel=9 note=42 velocity=79 time=0
EXTRACT: note_on channel=9 note=51 velocity=63 time=0
EXTRACT: note_on channel=9 note=35 velocity=127 time=0
EXTRACT: note_off channel=2 note=69 velocity=127 time=0.217391
EXTRACT: note_on channel=2 note=71 velocity=127 time=0
EXTRACT: note_off channel=0 note=40 velocity=95 time=0
EXTRACT: note_off channel=9 note=42 velocity=79 time=0
EXTRACT: note_off channel=9 note=51 velocity=63 time=0
EXTRACT: note_off channel=9 note=35 velocity=127 time=0
EXTRACT: note_on channel=9 note=42 velocity=47 time=0
EXTRACT: note_off channel=2 note=71 velocity=127 time=0.217391
EXTRACT: note_on channel=2 note=69 velocity=111 time=0
EXTRACT: note_off channel=9 note=42 velocity=47 time=0
EXTRACT: note_on channel=9 note=39 velocity=95 time=0
EXTRACT: note_on channel=9 note=38 velocity=95 time=0
EXTRACT: note_on channel=9 note=41 velocity=111 time=0
EXTRACT: note_on channel=9 note=54 velocity=95 time=0
EXTRACT: note_on channel=9 note=51 velocity=79 time=0
EXTRACT: note_on channel=9 note=42 velocity=95 time=0
EXTRACT: note_off channel=2 note=69 velocity=111 time=0.217391
EXTRACT: note_on channel=2 note=67 velocity=111 time=0
EXTRACT: note_on channel=0 note=38 velocity=95 time=0
EXTRACT: note_off channel=9 note=39 velocity=95 time=0
EXTRACT: note_off channel=9 note=38 velocity=95 time=0
EXTRACT: note_off channel=9 note=41 velocity=111 time=0
EXTRACT: note_off channel=9 note=54 velocity=95 time=0
EXTRACT: note_off channel=9 note=51 velocity=79 time=0
EXTRACT: note_off channel=9 note=42 velocity=95 time=0
EXTRACT: note_on channel=9 note=42 velocity=47 time=0
EXTRACT: note_off channel=2 note=67 velocity=111 time=0.217391
EXTRACT: note_on channel=2 note=69 velocity=127 time=0
EXTRACT: note_off channel=0 note=38 velocity=95 time=0
EXTRACT: note_on channel=0 note=38 velocity=95 time=0
EXTRACT: note_off channel=9 note=42 velocity=47 time=0
EXTRACT: note_on channel=9 note=35 velocity=127 time=0
EXTRACT: note_on channel=9 note=42 velocity=79 time=0
EXTRACT: note_on channel=9 note=51 velocity=63 time=0
EXTRACT: note_off channel=2 note=69 velocity=127 time=0.217391
EXTRACT: note_on channel=2 note=67 velocity=111 time=0
EXTRACT: note_off channel=0 note=38 velocity=95 time=0
EXTRACT: note_off channel=9 note=35 velocity=127 time=0
EXTRACT: note_off channel=9 note=42 velocity=79 time=0
EXTRACT: note_off channel=9 note=51 velocity=63 time=0
EXTRACT: note_on channel=9 note=42 velocity=47 time=0
EXTRACT: note_off channel=2 note=67 velocity=111 time=0.217391
EXTRACT: note_on channel=2 note=71 velocity=127 time=0
EXTRACT: note_on channel=0 note=38 velocity=95 time=0
EXTRACT: note_off channel=9 note=42 velocity=47 time=0
EXTRACT: note_on channel=9 note=40 velocity=111 time=0
EXTRACT: note_on channel=9 note=42 velocity=95 time=0
EXTRACT: note_on channel=9 note=51 velocity=63 time=0
EXTRACT: note_off channel=2 note=71 velocity=127 time=0.217391
EXTRACT: note_off channel=0 note=38 velocity=95 time=0
EXTRACT: note_off channel=9 note=40 velocity=111 time=0
EXTRACT: note_off channel=9 note=42 velocity=95 time=0
EXTRACT: note_off channel=9 note=51 velocity=63 time=0
EXTRACT: note_on channel=9 note=42 velocity=47 time=0
EXTRACT: note_off channel=9 note=42 velocity=47 time=0.217391
EXTRACT: note_on channel=9 note=42 velocity=79 time=0
EXTRACT: note_on channel=9 note=51 velocity=63 time=0
EXTRACT: note_off channel=9 note=42 velocity=79 time=0.217391
EXTRACT: note_off channel=9 note=51 velocity=63 time=0
EXTRACT: note_on channel=9 note=35 velocity=127 time=0
EXTRACT: note_on channel=9 note=42 velocity=63 time=0
EXTRACT: note_off channel=9 note=35 velocity=127 time=0.217391
EXTRACT: note_off channel=9 note=42 velocity=63 time=0
EXTRACT: note_on channel=9 note=42 velocity=95 time=0
EXTRACT: note_on channel=9 note=54 velocity=95 time=0
EXTRACT: note_on channel=9 note=39 velocity=95 time=0
EXTRACT: note_on channel=9 note=41 velocity=111 time=0
EXTRACT: note_on channel=9 note=38 velocity=95 time=0
EXTRACT: note_on channel=9 note=51 velocity=63 time=0
EXTRACT: note_on channel=2 note=71 velocity=111 time=0.217391
EXTRACT: note_off channel=9 note=42 velocity=95 time=0
EXTRACT: note_off channel=9 note=54 velocity=95 time=0
EXTRACT: note_off channel=9 note=39 velocity=95 time=0
EXTRACT: note_off channel=9 note=41 velocity=111 time=0
EXTRACT: note_off channel=9 note=38 velocity=95 time=0
EXTRACT: note_off channel=9 note=51 velocity=63 time=0
EXTRACT: note_on channel=9 note=42 velocity=47 time=0
EXTRACT: note_off channel=2 note=71 velocity=111 time=0.217391
EXTRACT: note_on channel=2 note=69 velocity=111 time=0
EXTRACT: note_off channel=9 note=42 velocity=47 time=0
EXTRACT: note_on channel=9 note=51 velocity=63 time=0
EXTRACT: note_on channel=9 note=35 velocity=127 time=0
EXTRACT: note_on channel=9 note=42 velocity=63 time=0
EXTRACT: note_off channel=2 note=69 velocity=111 time=0.217391
EXTRACT: note_on channel=2 note=67 velocity=111 time=0
EXTRACT: note_on channel=0 note=36 velocity=95 time=0
EXTRACT: note_off channel=9 note=51 velocity=63 time=0
EXTRACT: note_off channel=9 note=35 velocity=127 time=0
EXTRACT: note_off channel=9 note=42 velocity=63 time=0
EXTRACT: note_on channel=9 note=42 velocity=47 time=0
EXTRACT: note_off channel=2 note=67 velocity=111 time=0.217391
EXTRACT: note_on channel=2 note=64 velocity=111 time=0
EXTRACT: note_off channel=0 note=36 velocity=95 time=0
EXTRACT: note_on channel=0 note=36 velocity=95 time=0
EXTRACT: note_off channel=9 note=42 velocity=47 time=0
EXTRACT: note_on channel=9 note=42 velocity=95 time=0
EXTRACT: note_on channel=9 note=51 velocity=63 time=0
EXTRACT: note_on channel=9 note=40 velocity=111 time=0
EXTRACT: note_off channel=2 note=64 velocity=111 time=0.217391
EXTRACT: note_on channel=2 note=64 velocity=111 time=0
EXTRACT: note_off channel=0 note=36 velocity=95 time=0
EXTRACT: note_off channel=9 note=42 velocity=95 time=0
EXTRACT: note_off channel=9 note=51 velocity=63 time=0
EXTRACT: note_off channel=9 note=40 velocity=111 time=0
EXTRACT: note_on channel=9 note=42 velocity=47 time=0
EXTRACT: note_off channel=2 note=64 velocity=111 time=0.217391
EXTRACT: note_on channel=2 note=67 velocity=111 time=0
EXTRACT: note_on channel=0 note=36 velocity=95 time=0
EXTRACT: note_off channel=9 note=42 velocity=47 time=0
EXTRACT: note_on channel=9 note=35 velocity=127 time=0
EXTRACT: note_on channel=9 note=42 velocity=79 time=0
EXTRACT: note_on channel=9 note=51 velocity=63 time=0
EXTRACT: note_off channel=2 note=67 velocity=111 time=0.217391
EXTRACT: note_on channel=2 note=64 velocity=111 time=0
EXTRACT: note_off channel=0 note=36 velocity=95 time=0
EXTRACT: note_off channel=9 note=35 velocity=127 time=0
EXTRACT: note_off channel=9 note=42 velocity=79 time=0
EXTRACT: note_off channel=9 note=51 velocity=63 time=0
EXTRACT: note_on channel=9 note=42 velocity=47 time=0
EXTRACT: note_off channel=2 note=64 velocity=111 time=0.217391
EXTRACT: note_on channel=2 note=64 velocity=95 time=0
EXTRACT: note_off channel=9 note=42 velocity=47 time=0
EXTRACT: note_on channel=9 note=38 velocity=111 time=0
EXTRACT: note_on channel=9 note=54 velocity=111 time=0
EXTRACT: note_on channel=9 note=41 velocity=111 time=0
EXTRACT: note_on channel=9 note=39 velocity=95 time=0
EXTRACT: note_on channel=9 note=42 velocity=95 time=0
EXTRACT: note_on channel=9 note=51 velocity=63 time=0
EXTRACT: note_off channel=2 note=64 velocity=95 time=0.217391
EXTRACT: note_on channel=2 note=64 velocity=111 time=0
EXTRACT: note_on channel=0 note=38 velocity=95 time=0
EXTRACT: note_off channel=9 note=38 velocity=111 time=0
EXTRACT: note_off channel=9 note=54 velocity=111 time=0
EXTRACT: note_off channel=9 note=41 velocity=111 time=0
EXTRACT: note_off channel=9 note=39 velocity=95 time=0
EXTRACT: note_off channel=9 note=42 velocity=95 time=0
EXTRACT: note_off channel=9 note=51 velocity=63 time=0
EXTRACT: note_on channel=9 note=42 velocity=47 time=0
EXTRACT: note_off channel=2 note=64 velocity=111 time=0.217391
EXTRACT: note_on channel=2 note=66 velocity=111 time=0
EXTRACT: note_off channel=0 note=38 velocity=95 time=0
EXTRACT: note_on channel=0 note=38 velocity=95 time=0
EXTRACT: note_off channel=9 note=42 velocity=47 time=0
EXTRACT: note_on channel=9 note=35 velocity=127 time=0
EXTRACT: note_on channel=9 note=42 velocity=79 time=0
EXTRACT: note_on channel=9 note=51 velocity=63 time=0
EXTRACT: note_off channel=2 note=66 velocity=111 time=0.217391
EXTRACT: note_on channel=2 note=64 velocity=111 time=0
EXTRACT: note_off channel=0 note=38 velocity=95 time=0
EXTRACT: note_off channel=9 note=35 velocity=127 time=0
EXTRACT: note_off channel=9 note=42 velocity=79 time=0
EXTRACT: note_off channel=9 note=51 velocity=63 time=0
EXTRACT: note_on channel=9 note=42 velocity=63 time=0
EXTRACT: note_off channel=2 note=64 velocity=111 time=0.217391
EXTRACT: note_on channel=2 note=62 velocity=111 time=0
EXTRACT: note_on channel=0 note=38 velocity=95 time=0
EXTRACT: note_off channel=9 note=42 velocity=63 time=0
EXTRACT: note_on channel=9 note=40 velocity=111 time=0
EXTRACT: note_on channel=9 note=42 velocity=95 time=0
EXTRACT: note_on channel=9 note=51 velocity=63 time=0
EXTRACT: note_off channel=2 note=62 velocity=111 time=0.217391
EXTRACT: note_off channel=0 note=38 velocity=95 time=0
EXTRACT: note_off channel=9 note=40 velocity=111 time=0
EXTRACT: note_off channel=9 note=42 velocity=95 time=0
EXTRACT: note_off channel=9 note=51 velocity=63 time=0
EXTRACT: note_on channel=9 note=42 velocity=47 time=0
EXTRACT: note_on channel=2 note=62 velocity=111 time=0.217391
EXTRACT: note_off channel=9 note=42 velocity=47 time=0
EXTRACT: note_on channel=9 note=42 velocity=79 time=0
EXTRACT: note_on channel=9 note=51 velocity=79 time=0
EXTRACT: note_off channel=2 note=62 velocity=111 time=0.217391
EXTRACT: note_off channel=9 note=42 velocity=79 time=0
EXTRACT: note_off channel=9 note=51 velocity=79 time=0
EXTRACT: note_on channel=9 note=35 velocity=127 time=0
EXTRACT: note_on channel=9 note=42 velocity=47 time=0
EXTRACT: note_on channel=2 note=64 velocity=127 time=0.217391
EXTRACT: note_off channel=9 note=35 velocity=127 time=0
EXTRACT: note_off channel=9 note=42 velocity=47 time=0
EXTRACT: note_on channel=9 note=39 velocity=111 time=0
EXTRACT: note_on channel=9 note=41 velocity=111 time=0
EXTRACT: note_on channel=9 note=38 velocity=111 time=0
EXTRACT: note_on channel=9 note=54 velocity=127 time=0
EXTRACT: note_on channel=9 note=42 velocity=95 time=0
EXTRACT: note_on channel=9 note=51 velocity=79 time=0
EXTRACT: note_off channel=2 note=64 velocity=127 time=0.217391
EXTRACT: note_off channel=9 note=39 velocity=111 time=0
EXTRACT: note_off channel=9 note=41 velocity=111 time=0
EXTRACT: note_off channel=9 note=38 velocity=111 time=0
EXTRACT: note_off channel=9 note=54 velocity=127 time=0
EXTRACT: note_off channel=9 note=42 velocity=95 time=0
EXTRACT: note_off channel=9 note=51 velocity=79 time=0
EXTRACT: note_on channel=9 note=42 velocity=47 time=0
EXTRACT: note_on channel=2 note=67 velocity=111 time=0.217391
EXTRACT: note_off channel=9 note=42 velocity=47 time=0
EXTRACT: note_on channel=9 note=35 velocity=127 time=0
EXTRACT: note_on channel=9 note=42 velocity=79 time=0
EXTRACT: note_on channel=9 note=51 velocity=63 time=0
EXTRACT: note_off channel=2 note=67 velocity=111 time=0.217391
EXTRACT: note_on channel=2 note=64 velocity=111 time=0
EXTRACT: note_on channel=0 note=40 velocity=79 time=0
EXTRACT: note_off channel=9 note=35 velocity=127 time=0
EXTRACT: note_off channel=9 note=42 velocity=79 time=0
EXTRACT: note_off channel=9 note=51 velocity=63 time=0
EXTRACT: note_on channel=9 note=42 velocity=47 time=0
EXTRACT: note_off channel=2 note=64 velocity=111 time=0.217391
EXTRACT: note_off channel=0 note=40 velocity=79 time=0
EXTRACT: note_on channel=0 note=40 velocity=95 time=0
EXTRACT: note_off channel=9 note=42 velocity=47 time=0
EXTRACT: note_on channel=9 note=42 velocity=95 time=0
EXTRACT: note_on channel=9 note=51 velocity=79 time=0
EXTRACT: note_on channel=9 note=40 velocity=111 time=0
EXTRACT: note_off channel=0 note=40 velocity=95 time=0.217391
EXTRACT: note_off channel=9 note=42 velocity=95 time=0
EXTRACT: note_off channel=9 note=51 velocity=79 time=0
EXTRACT: note_off channel=9 note=40 velocity=111 time=0
EXTRACT: note_on channel=9 note=42 velocity=47 time=0
EXTRACT: note_on channel=0 note=40 velocity=95 time=0.217391
EXTRACT: note_off channel=9 note=42 velocity=47 time=0
EXTRACT: note_on channel=9 note=42 velocity=79 time=0
EXTRACT: note_on channel=9 note=35 velocity=127 time=0
EXTRACT: note_on channel=9 note=51 velocity=63 time=0
EXTRACT: note_off channel=0 note=40 velocity=95 time=0.217391
EXTRACT: note_off channel=9 note=42 velocity=79 time=0
EXTRACT: note_off channel=9 note=35 velocity=127 time=0
EXTRACT: note_off channel=9 note=51 velocity=63 time=0
EXTRACT: note_on channel=9 note=42 velocity=63 time=0
EXTRACT: note_on channel=2 note=71 velocity=127 time=0.217391
EXTRACT: note_off channel=9 note=42 velocity=63 time=0
EXTRACT: note_on channel=9 note=42 velocity=95 time=0
EXTRACT: note_on channel=9 note=39 velocity=95 time=0
EXTRACT: note_on channel=9 note=38 velocity=95 time=0
EXTRACT: note_on channel=9 note=41 velocity=111 time=0
EXTRACT: note_on channel=9 note=54 velocity=127 time=0
EXTRACT: note_on channel=9 note=51 velocity=79 time=0
EXTRACT: note_off channel=2 note=71 velocity=127 time=0.217391
EXTRACT: note_on channel=2 note=71 velocity=127 time=0
EXTRACT: note_on channel=0 note=38 velocity=95 time=0
EXTRACT: note_off channel=9 note=42 velocity=95 time=0
EXTRACT: note_off channel=9 note=39 velocity=95 time=0
EXTRACT: note_off channel=9 note=38 velocity=95 time=0
EXTRACT: note_off channel=9 note=41 velocity=111 time=0
EXTRACT: note_off channel=9 note=54 velocity=127 time=0
EXTRACT: note_off channel=9 note=51 velocity=79 time=0
EXTRACT: note_on channel=9 note=42 velocity=47 time=0
EXTRACT: note_off channel=2 note=71 velocity=127 time=0.217391
EXTRACT: note_on channel=2 note=74 velocity=111 time=0
EXTRACT: note_off channel=0 note=38 velocity=95 time=0
EXTRACT: note_on channel=0 note=38 velocity=95 time=0
EXTRACT: note_off channel=9 note=42 velocity=47 time=0
EXTRACT: note_on channel=9 note=35 velocity=127 time=0
EXTRACT: note_on channel=9 note=42 velocity=63 time=0
EXTRACT: note_on channel=9 note=51 velocity=79 time=0
EXTRACT: note_off channel=2 note=74 velocity=111 time=0.217391
EXTRACT: note_on channel=2 note=71 velocity=127 time=0
EXTRACT: note_off channel=0 note=38 velocity=95 time=0
EXTRACT: note_off channel=9 note=35 velocity=127 time=0
EXTRACT: note_off channel=9 note=42 velocity=63 time=0
EXTRACT: note_off channel=9 note=51 velocity=79 time=0
EXTRACT: note_on channel=9 note=42 velocity=47 time=0
EXTRACT: note_off channel=2 note=71 velocity=127 time=0.217391
EXTRACT: note_on channel=2 note=69 velocity=127 time=0
EXTRACT: note_on channel=0 note=38 velocity=95 time=0
EXTRACT: note_off channel=9 note=42 velocity=47 time=0
EXTRACT: note_on channel=9 note=42 velocity=95 time=0
EXTRACT: note_on channel=9 note=51 velocity=79 time=0
EXTRACT: note_on channel=9 note=40 velocity=111 time=0
EXTRACT: note_off channel=2 note=69 velocity=127 time=0.217391
EXTRACT: note_off channel=0 note=38 velocity=95 time=0
EXTRACT: note_off channel=9 note=42 velocity=95 time=0
EXTRACT: note_off channel=9 note=51 velocity=79 time=0
EXTRACT: note_off channel=9 note=40 velocity=111 time=0
EXTRACT: note_on channel=9 note=42 velocity=47 time=0
EXTRACT: note_on channel=2 note=71 velocity=127 time=0.217391
EXTRACT: note_off channel=9 note=42 velocity=47 time=0
EXTRACT: note_on channel=9 note=51 velocity=63 time=0
EXTRACT: note_on channel=9 note=42 velocity=79 time=0
EXTRACT: note_off channel=2 note=71 velocity=127 time=0.217391
EXTRACT: note_off channel=9 note=51 velocity=63 time=0
EXTRACT: note_off channel=9 note=42 velocity=79 time=0
EXTRACT: note_on channel=9 note=35 velocity=127 time=0
EXTRACT: note_on channel=9 note=42 velocity=47 time=0
EXTRACT: note_on channel=2 note=69 velocity=127 time=0.217391
EXTRACT: note_off channel=9 note=35 velocity=127 time=0
EXTRACT: note_off channel=9 note=42 velocity=47 time=0
EXTRACT: note_on channel=9 note=42 velocity=95 time=0
EXTRACT: note_on channel=9 note=51 velocity=79 time=0
EXTRACT: note_on channel=9 note=38 velocity=111 time=0
EXTRACT: note_on channel=9 note=39 velocity=95 time=0
EXTRACT: note_on channel=9 note=54 velocity=111 time=0
EXTRACT: note_on channel=9 note=41 velocity=111 time=0
EXTRACT: note_off channel=2 note=69 velocity=127 time=0.217391
EXTRACT: note_on channel=0 note=28 velocity=95 time=0
EXTRACT: note_off channel=9 note=42 velocity=95 time=0
EXTRACT: note_off channel=9 note=51 velocity=79 time=0
EXTRACT: note_off channel=9 note=38 velocity=111 time=0
EXTRACT: note_off channel=9 note=39 velocity=95 time=0
EXTRACT: note_off channel=9 note=54 velocity=111 time=0
EXTRACT: note_off channel=9 note=41 velocity=111 time=0
EXTRACT: note_on channel=9 note=42 velocity=47 time=0
EXTRACT: note_on channel=9 note=35 velocity=111 time=0
EXTRACT: note_on channel=9 note=51 velocity=95 time=0
EXTRACT: note_on channel=2 note=71 velocity=127 time=0.217391
EXTRACT: note_off channel=9 note=42 velocity=47 time=0
EXTRACT: note_off channel=9 note=35 velocity=111 time=0
EXTRACT: note_off channel=9 note=51 velocity=95 time=0
EXTRACT: note_on channel=9 note=35 velocity=127 time=0
EXTRACT: note_on channel=9 note=49 velocity=111 time=0
EXTRACT: note_off channel=2 note=71 velocity=127 time=0.217391
EXTRACT: note_on channel=2 note=71 velocity=127 time=0
EXTRACT: note_off channel=0 note=28 velocity=95 time=0
EXTRACT: note_on channel=0 note=31 velocity=95 time=0
EXTRACT: note_off channel=9 note=35 velocity=127 time=0
EXTRACT: note_off channel=9 note=49 velocity=111 time=0
EXTRACT: note_on channel=9 note=42 velocity=47 time=0
EXTRACT: note_off channel=0 note=31 velocity=95 time=0.217391
EXTRACT: note_on channel=0 note=35 velocity=95 time=0
EXTRACT: note_off channel=9 note=42 velocity=47 time=0
EXTRACT: note_on channel=9 note=40 velocity=111 time=0
EXTRACT: note_on channel=9 note=42 velocity=63 time=0
EXTRACT: note_on channel=9 note=51 velocity=63 time=0
EXTRACT: note_off channel=0 note=35 velocity=95 time=0.217391
EXTRACT: note_on channel=0 note=43 velocity=95 time=0
EXTRACT: note_off channel=9 note=40 velocity=111 time=0
EXTRACT: note_off channel=9 note=42 velocity=63 time=0
EXTRACT: note_off channel=9 note=51 velocity=63 time=0
EXTRACT: note_on channel=9 note=42 velocity=15 time=0
EXTRACT: note_off channel=0 note=43 velocity=95 time=0.217391
EXTRACT: note_on channel=0 note=40 velocity=95 time=0
EXTRACT: note_off channel=9 note=42 velocity=15 time=0
EXTRACT: note_on channel=9 note=35 velocity=127 time=0
EXTRACT: note_on channel=9 note=42 velocity=63 time=0
EXTRACT: note_on channel=9 note=51 velocity=63 time=0
EXTRACT: note_off channel=2 note=71 velocity=127 time=0.217391
EXTRACT: note_off channel=9 note=35 velocity=127 time=0
EXTRACT: note_off channel=9 note=42 velocity=63 time=0
EXTRACT: note_off channel=9 note=51 velocity=63 time=0
EXTRACT: note_on channel=9 note=42 velocity=31 time=0
EXTRACT: note_off channel=0 note=40 velocity=95 time=0.217391
EXTRACT: note_off channel=9 note=42 velocity=31 time=0
EXTRACT: note_on channel=9 note=38 velocity=111 time=0
EXTRACT: note_on channel=9 note=39 velocity=95 time=0
EXTRACT: note_on channel=9 note=41 velocity=111 time=0
EXTRACT: note_on channel=9 note=54 velocity=95 time=0
EXTRACT: note_on channel=9 note=42 velocity=79 time=0
EXTRACT: note_on channel=9 note=51 velocity=63 time=0
EXTRACT: note_on channel=1 note=40 velocity=95 time=0.16304325
EXTRACT: note_off channel=1 note=40 velocity=95 time=0.05434775
EXTRACT: pitchwheel channel=1 pitch=0 time=0
EXTRACT: note_on channel=1 note=40 velocity=95 time=0
EXTRACT: note_off channel=9 note=38 velocity=111 time=0
EXTRACT: note_off channel=9 note=39 velocity=95 time=0
EXTRACT: note_off channel=9 note=41 velocity=111 time=0
EXTRACT: note_off channel=9 note=54 velocity=95 time=0
EXTRACT: note_off channel=9 note=42 velocity=79 time=0
EXTRACT: note_off channel=9 note=51 velocity=63 time=0
EXTRACT: note_on channel=9 note=42 velocity=31 time=0
EXTRACT: pitchwheel channel=1 pitch=128 time=0.019474610416666666
EXTRACT: pitchwheel channel=1 pitch=256 time=0.019474610416666666
EXTRACT: pitchwheel channel=1 pitch=384 time=0.019474610416666666
EXTRACT: pitchwheel channel=1 pitch=512 time=0.019474610416666666
EXTRACT: pitchwheel channel=1 pitch=640 time=0.019474610416666666
EXTRACT: pitchwheel channel=1 pitch=768 time=0.019474610416666666
EXTRACT: pitchwheel channel=1 pitch=896 time=0.019474610416666666
EXTRACT: pitchwheel channel=1 pitch=1024 time=0.019474610416666666
EXTRACT: pitchwheel channel=1 pitch=1152 time=0.019474610416666666
EXTRACT: pitchwheel channel=1 pitch=1280 time=0.019474610416666666
EXTRACT: pitchwheel channel=1 pitch=1408 time=0.019474610416666666
EXTRACT: note_on channel=2 note=71 velocity=127 time=0.0031702854166666666
EXTRACT: pitchwheel channel=1 pitch=1408 time=0
EXTRACT: note_off channel=9 note=42 velocity=31 time=0
EXTRACT: note_on channel=9 note=35 velocity=127 time=0
EXTRACT: note_on channel=9 note=42 velocity=63 time=0
EXTRACT: note_on channel=9 note=51 velocity=63 time=0
EXTRACT: note_off channel=2 note=71 velocity=127 time=0.217391
EXTRACT: note_on channel=2 note=71 velocity=111 time=0
EXTRACT: pitchwheel channel=1 pitch=1408 time=0
EXTRACT: pitchwheel channel=1 pitch=0 time=0
EXTRACT: note_off channel=1 note=40 velocity=95 time=0
EXTRACT: note_on channel=0 note=40 velocity=95 time=0
EXTRACT: note_off channel=9 note=35 velocity=127 time=0
EXTRACT: note_off channel=9 note=42 velocity=63 time=0
EXTRACT: note_off channel=9 note=51 velocity=63 time=0
EXTRACT: note_on channel=9 note=42 velocity=31 time=0
EXTRACT: note_off channel=0 note=40 velocity=95 time=0.217391
EXTRACT: note_on channel=0 note=38 velocity=95 time=0
EXTRACT: note_off channel=9 note=42 velocity=31 time=0
EXTRACT: note_on channel=9 note=42 velocity=79 time=0
EXTRACT: note_on channel=9 note=51 velocity=63 time=0
EXTRACT: note_on channel=9 note=40 velocity=111 time=0
EXTRACT: note_off channel=0 note=38 velocity=95 time=0.217391
EXTRACT: note_off channel=9 note=42 velocity=79 time=0
EXTRACT: note_off channel=9 note=51 velocity=63 time=0
EXTRACT: note_off channel=9 note=40 velocity=111 time=0
EXTRACT: note_on channel=9 note=42 velocity=31 time=0
EXTRACT: note_off channel=2 note=71 velocity=111 time=0.217391
EXTRACT: note_on channel=0 note=38 velocity=95 time=0
EXTRACT: note_off channel=9 note=42 velocity=31 time=0
EXTRACT: note_on channel=9 note=42 velocity=63 time=0
EXTRACT: note_on channel=9 note=51 velocity=63 time=0
EXTRACT: note_off channel=0 note=38 velocity=95 time=0.217391
EXTRACT: note_off channel=9 note=42 velocity=63 time=0
EXTRACT: note_off channel=9 note=51 velocity=63 time=0
EXTRACT: note_on channel=9 note=35 velocity=127 time=0
EXTRACT: note_on channel=9 note=42 velocity=31 time=0
EXTRACT: note_off channel=9 note=35 velocity=127 time=0.217391
EXTRACT: note_off channel=9 note=42 velocity=31 time=0
EXTRACT: note_on channel=9 note=38 velocity=111 time=0
EXTRACT: note_on channel=9 note=39 velocity=111 time=0
EXTRACT: note_on channel=9 note=54 velocity=95 time=0
EXTRACT: note_on channel=9 note=41 velocity=111 time=0
EXTRACT: note_on channel=9 note=42 velocity=79 time=0
EXTRACT: note_on channel=9 note=51 velocity=63 time=0
EXTRACT: note_on channel=2 note=71 velocity=127 time=0.217391
EXTRACT: note_on channel=0 note=28 velocity=95 time=0
EXTRACT: note_off channel=9 note=38 velocity=111 time=0
EXTRACT: note_off channel=9 note=39 velocity=111 time=0
EXTRACT: note_off channel=9 note=54 velocity=95 time=0
EXTRACT: note_off channel=9 note=41 velocity=111 time=0
EXTRACT: note_off channel=9 note=42 velocity=79 time=0
EXTRACT: note_off channel=9 note=51 velocity=63 time=0
EXTRACT: note_on channel=9 note=42 velocity=31 time=0
EXTRACT: note_off channel=9 note=42 velocity=31 time=0.217391
EXTRACT: note_on channel=9 note=42 velocity=79 time=0
EXTRACT: note_on channel=9 note=51 velocity=63 time=0
EXTRACT: note_on channel=9 note=35 velocity=127 time=0
EXTRACT: note_off channel=2 note=71 velocity=127 time=0.217391
EXTRACT: note_on channel=2 note=71 velocity=111 time=0
EXTRACT: note_off channel=0 note=28 velocity=95 time=0
EXTRACT: note_on channel=0 note=31 velocity=95 time=0
EXTRACT: note_off channel=9 note=42 velocity=79 time=0
EXTRACT: note_off channel=9 note=51 velocity=63 time=0
EXTRACT: note_off channel=9 note=35 velocity=127 time=0
EXTRACT: note_on channel=9 note=42 velocity=47 time=0
EXTRACT: note_off channel=2 note=71 velocity=111 time=0.217391
EXTRACT: note_on channel=2 note=71 velocity=111 time=0
EXTRACT: note_off channel=0 note=31 velocity=95 time=0
EXTRACT: note_on channel=0 note=35 velocity=95 time=0
EXTRACT: note_off channel=9 note=42 velocity=47 time=0
EXTRACT: note_on channel=9 note=40 velocity=111 time=0
EXTRACT: note_on channel=9 note=42 velocity=79 time=0
EXTRACT: note_on channel=9 note=51 velocity=63 time=0
EXTRACT: note_off channel=2 note=71 velocity=111 time=0.217391
EXTRACT: note_on channel=2 note=71 velocity=111 time=0
EXTRACT: note_off channel=0 note=35 velocity=95 time=0
EXTRACT: note_on channel=0 note=43 velocity=95 time=0
EXTRACT: note_off channel=9 note=40 velocity=111 time=0
EXTRACT: note_off channel=9 note=42 velocity=79 time=0
EXTRACT: note_off channel=9 note=51 velocity=63 time=0
EXTRACT: note_on channel=9 note=42 velocity=47 time=0
EXTRACT: note_off channel=2 note=71 velocity=111 time=0.217391
EXTRACT: note_on channel=2 note=71 velocity=127 time=0
EXTRACT: note_off channel=0 note=43 velocity=95 time=0
EXTRACT: note_on channel=0 note=40 velocity=95 time=0
EXTRACT: note_off channel=9 note=42 velocity=47 time=0
EXTRACT: note_on channel=9 note=35 velocity=127 time=0
EXTRACT: note_on channel=9 note=42 velocity=79 time=0
EXTRACT: note_on channel=9 note=51 velocity=63 time=0
EXTRACT: note_off channel=2 note=71 velocity=127 time=0.217391
EXTRACT: note_off channel=9 note=35 velocity=127 time=0
EXTRACT: note_off channel=9 note=42 velocity=79 time=0
EXTRACT: note_off channel=9 note=51 velocity=63 time=0
EXTRACT: note_on channel=9 note=42 velocity=47 time=0
EXTRACT: note_on channel=2 note=71 velocity=111 time=0.217391
EXTRACT: note_off channel=0 note=40 velocity=95 time=0
EXTRACT: note_off channel=9 note=42 velocity=47 time=0
EXTRACT: note_on channel=9 note=39 velocity=95 time=0
EXTRACT: note_on channel=9 note=38 velocity=95 time=0
EXTRACT: note_on channel=9 note=41 velocity=111 time=0
EXTRACT: note_on channel=9 note=54 velocity=95 time=0
EXTRACT: note_on channel=9 note=42 velocity=79 time=0
EXTRACT: note_on channel=9 note=51 velocity=63 time=0
EXTRACT: note_on channel=1 note=40 velocity=95 time=0.16304325
EXTRACT: note_off channel=2 note=71 velocity=111 time=0.05434775
EXTRACT: note_on channel=2 note=71 velocity=127 time=0
EXTRACT: note_off channel=1 note=40 velocity=95 time=0
EXTRACT: pitchwheel channel=1 pitch=0 time=0
EXTRACT: note_on channel=1 note=40 velocity=95 time=0
EXTRACT: note_off channel=9 note=39 velocity=95 time=0
EXTRACT: note_off channel=9 note=38 velocity=95 time=0
EXTRACT: note_off channel=9 note=41 velocity=111 time=0
EXTRACT: note_off channel=9 note=54 velocity=95 time=0
EXTRACT: note_off channel=9 note=42 velocity=79 time=0
EXTRACT: note_off channel=9 note=51 velocity=63 time=0
EXTRACT: note_on channel=9 note=42 velocity=47 time=0
EXTRACT: pitchwheel channel=1 pitch=128 time=0.019474610416666666
EXTRACT: pitchwheel channel=1 pitch=256 time=0.019474610416666666
EXTRACT: pitchwheel channel=1 pitch=384 time=0.019474610416666666
EXTRACT: pitchwheel channel=1 pitch=512 time=0.019474610416666666
EXTRACT: pitchwheel channel=1 pitch=640 time=0.019474610416666666
EXTRACT: pitchwheel channel=1 pitch=768 time=0.019474610416666666
EXTRACT: pitchwheel channel=1 pitch=896 time=0.019474610416666666
EXTRACT: pitchwheel channel=1 pitch=1024 time=0.019474610416666666
EXTRACT: pitchwheel channel=1 pitch=1152 time=0.019474610416666666
EXTRACT: pitchwheel channel=1 pitch=1280 time=0.019474610416666666
EXTRACT: pitchwheel channel=1 pitch=1408 time=0.019474610416666666
EXTRACT: note_off channel=2 note=71 velocity=127 time=0.0031702854166666666
EXTRACT: pitchwheel channel=1 pitch=1408 time=0
EXTRACT: note_off channel=9 note=42 velocity=47 time=0
EXTRACT: note_on channel=9 note=35 velocity=127 time=0
EXTRACT: note_on channel=9 note=42 velocity=79 time=0
EXTRACT: note_on channel=9 note=51 velocity=63 time=0
EXTRACT: note_on channel=2 note=71 velocity=127 time=0.217391
EXTRACT: pitchwheel channel=1 pitch=1408 time=0
EXTRACT: pitchwheel channel=1 pitch=0 time=0
EXTRACT: note_off channel=1 note=40 velocity=95 time=0
EXTRACT: note_on channel=0 note=40 velocity=95 time=0
EXTRACT: note_off channel=9 note=35 velocity=127 time=0
EXTRACT: note_off channel=9 note=42 velocity=79 time=0
EXTRACT: note_off channel=9 note=51 velocity=63 time=0
EXTRACT: note_on channel=9 note=42 velocity=47 time=0
EXTRACT: note_off channel=2 note=71 velocity=127 time=0.217391
EXTRACT: note_off channel=0 note=40 velocity=95 time=0
EXTRACT: note_on channel=0 note=38 velocity=95 time=0
EXTRACT: note_off channel=9 note=42 velocity=47 time=0
EXTRACT: note_on channel=9 note=40 velocity=111 time=0
EXTRACT: note_on channel=9 note=42 velocity=79 time=0
EXTRACT: note_on channel=9 note=51 velocity=63 time=0
EXTRACT: note_off channel=0 note=38 velocity=95 time=0.217391
EXTRACT: note_off channel=9 note=40 velocity=111 time=0
EXTRACT: note_off channel=9 note=42 velocity=79 time=0
EXTRACT: note_off channel=9 note=51 velocity=63 time=0
EXTRACT: note_on channel=9 note=42 velocity=47 time=0
EXTRACT: note_off channel=9 note=42 velocity=47 time=0.217391
EXTRACT: note_on channel=9 note=42 velocity=95 time=0
EXTRACT: note_on channel=9 note=51 velocity=79 time=0
EXTRACT: note_off channel=9 note=42 velocity=95 time=0.217391
EXTRACT: note_off channel=9 note=51 velocity=79 time=0
EXTRACT: note_on channel=9 note=35 velocity=127 time=0
EXTRACT: note_on channel=9 note=42 velocity=47 time=0
EXTRACT: note_off channel=9 note=35 velocity=127 time=0.217391
EXTRACT: note_off channel=9 note=42 velocity=47 time=0
EXTRACT: note_on channel=9 note=54 velocity=95 time=0
EXTRACT: note_on channel=9 note=39 velocity=95 time=0
EXTRACT: note_on channel=9 note=41 velocity=111 time=0
EXTRACT: note_on channel=9 note=38 velocity=95 time=0
EXTRACT: note_on channel=9 note=42 velocity=95 time=0
EXTRACT: note_on channel=9 note=51 velocity=79 time=0
EXTRACT: note_on channel=2 note=69 velocity=127 time=0.217391
EXTRACT: note_on channel=0 note=28 velocity=95 time=0
EXTRACT: note_off channel=9 note=54 velocity=95 time=0
EXTRACT: note_off channel=9 note=39 velocity=95 time=0
EXTRACT: note_off channel=9 note=41 velocity=111 time=0
EXTRACT: note_off channel=9 note=38 velocity=95 time=0
EXTRACT: note_off channel=9 note=42 velocity=95 time=0
EXTRACT: note_off channel=9 note=51 velocity=79 time=0
EXTRACT: note_on channel=9 note=42 velocity=47 time=0
EXTRACT: note_off channel=9 note=42 velocity=47 time=0.217391
EXTRACT: note_on channel=9 note=35 velocity=127 time=0
EXTRACT: note_on channel=9 note=42 velocity=79 time=0
EXTRACT: note_on channel=9 note=51 velocity=63 time=0
EXTRACT: note_off channel=2 note=69 velocity=127 time=0.217391
EXTRACT: note_on channel=2 note=67 velocity=95 time=0
EXTRACT: note_off channel=0 note=28 velocity=95 time=0
EXTRACT: note_on channel=0 note=31 velocity=95 time=0
EXTRACT: note_off channel=9 note=35 velocity=127 time=0
EXTRACT: note_off channel=9 note=42 velocity=79 time=0
EXTRACT: note_off channel=9 note=51 velocity=63 time=0
EXTRACT: note_on channel=9 note=42 velocity=47 time=0
EXTRACT: note_off channel=2 note=67 velocity=95 time=0.217391
EXTRACT: note_on channel=2 note=69 velocity=111 time=0
EXTRACT: note_off channel=0 note=31 velocity=95 time=0
EXTRACT: note_on channel=0 note=35 velocity=95 time=0
EXTRACT: note_off channel=9 note=42 velocity=47 time=0
EXTRACT: note_on channel=9 note=42 velocity=95 time=0
EXTRACT: note_on channel=9 note=51 velocity=79 time=0
EXTRACT: note_on channel=9 note=40 velocity=111 time=0
EXTRACT: note_off channel=2 note=69 velocity=111 time=0.217391
EXTRACT: note_off channel=0 note=35 velocity=95 time=0
EXTRACT: note_on channel=0 note=43 velocity=95 time=0
EXTRACT: note_off channel=9 note=42 velocity=95 time=0
EXTRACT: note_off channel=9 note=51 velocity=79 time=0
EXTRACT: note_off channel=9 note=40 velocity=111 time=0
EXTRACT: note_on channel=9 note=42 velocity=47 time=0
EXTRACT: note_on channel=2 note=67 velocity=127 time=0.217391
EXTRACT: note_off channel=0 note=43 velocity=95 time=0
EXTRACT: note_on channel=0 note=40 velocity=95 time=0
EXTRACT: note_off channel=9 note=42 velocity=47 time=0
EXTRACT: note_on channel=9 note=35 velocity=127 time=0
EXTRACT: note_on channel=9 note=42 velocity=79 time=0
EXTRACT: note_on channel=9 note=51 velocity=63 time=0
EXTRACT: note_off channel=2 note=67 velocity=127 time=0.217391
EXTRACT: note_on channel=2 note=69 velocity=111 time=0
EXTRACT: note_off channel=9 note=35 velocity=127 time=0
EXTRACT: note_off channel=9 note=42 velocity=79 time=0
EXTRACT: note_off channel=9 note=51 velocity=63 time=0
EXTRACT: note_on channel=9 note=42 velocity=47 time=0
EXTRACT: note_off channel=2 note=69 velocity=111 time=0.217391
EXTRACT: note_on channel=2 note=67 velocity=95 time=0
EXTRACT: note_off channel=0 note=40 velocity=95 time=0
EXTRACT: note_off channel=9 note=42 velocity=47 time=0
EXTRACT: note_on channel=9 note=38 velocity=111 time=0
EXTRACT: note_on channel=9 note=54 velocity=111 time=0
EXTRACT: note_on channel=9 note=41 velocity=111 time=0
EXTRACT: note_on channel=9 note=39 velocity=95 time=0
EXTRACT: note_on channel=9 note=42 velocity=95 time=0
EXTRACT: note_on channel=9 note=51 velocity=79 time=0
EXTRACT: note_on channel=1 note=40 velocity=95 time=0.16304325
EXTRACT: note_off channel=2 note=67 velocity=95 time=0.05434775
EXTRACT: note_on channel=2 note=69 velocity=127 time=0
EXTRACT: note_off channel=1 note=40 velocity=95 time=0
EXTRACT: pitchwheel channel=1 pitch=0 time=0
EXTRACT: note_on channel=1 note=40 velocity=95 time=0
EXTRACT: note_off channel=9 note=38 velocity=111 time=0
EXTRACT: note_off channel=9 note=54 velocity=111 time=0
EXTRACT: note_off channel=9 note=41 velocity=111 time=0
EXTRACT: note_off channel=9 note=39 velocity=95 time=0
EXTRACT: note_off channel=9 note=42 velocity=95 time=0
EXTRACT: note_off channel=9 note=51 velocity=79 time=0
EXTRACT: note_on channel=9 note=42 velocity=47 time=0
EXTRACT: pitchwheel channel=1 pitch=128 time=0.019474610416666666
EXTRACT: pitchwheel channel=1 pitch=256 time=0.019474610416666666
EXTRACT: pitchwheel channel=1 pitch=384 time=0.019474610416666666
EXTRACT: pitchwheel channel=1 pitch=512 time=0.019474610416666666
EXTRACT: pitchwheel channel=1 pitch=640 time=0.019474610416666666
EXTRACT: pitchwheel channel=1 pitch=768 time=0.019474610416666666
EXTRACT: pitchwheel channel=1 pitch=896 time=0.019474610416666666
EXTRACT: pitchwheel channel=1 pitch=1024 time=0.019474610416666666
EXTRACT: pitchwheel channel=1 pitch=1152 time=0.019474610416666666
EXTRACT: pitchwheel channel=1 pitch=1280 time=0.019474610416666666
EXTRACT: pitchwheel channel=1 pitch=1408 time=0.019474610416666666
EXTRACT: pitchwheel channel=1 pitch=1408 time=0.0031702854166666666
EXTRACT: note_off channel=9 note=42 velocity=47 time=0
EXTRACT: note_on channel=9 note=35 velocity=127 time=0
EXTRACT: note_on channel=9 note=42 velocity=95 time=0
EXTRACT: note_on channel=9 note=51 velocity=79 time=0
EXTRACT: note_off channel=2 note=69 velocity=127 time=0.217391
EXTRACT: note_on channel=2 note=67 velocity=95 time=0
EXTRACT: pitchwheel channel=1 pitch=1408 time=0
EXTRACT: pitchwheel channel=1 pitch=0 time=0
EXTRACT: note_off channel=1 note=40 velocity=95 time=0
EXTRACT: note_on channel=0 note=40 velocity=95 time=0
EXTRACT: note_off channel=9 note=35 velocity=127 time=0
EXTRACT: note_off channel=9 note=42 velocity=95 time=0
EXTRACT: note_off channel=9 note=51 velocity=79 time=0
EXTRACT: note_on channel=9 note=42 velocity=47 time=0
EXTRACT: note_off channel=2 note=67 velocity=95 time=0.217391
EXTRACT: note_on channel=2 note=69 velocity=127 time=0
EXTRACT: note_off channel=0 note=40 velocity=95 time=0
EXTRACT: note_on channel=0 note=38 velocity=95 time=0
EXTRACT: note_off channel=9 note=42 velocity=47 time=0
EXTRACT: note_on channel=9 note=40 velocity=111 time=0
EXTRACT: note_on channel=9 note=42 velocity=95 time=0
EXTRACT: note_on channel=9 note=51 velocity=79 time=0
EXTRACT: note_off channel=2 note=69 velocity=127 time=0.217391
EXTRACT: note_off channel=0 note=38 velocity=95 time=0
EXTRACT: note_off channel=9 note=40 velocity=111 time=0
EXTRACT: note_off channel=9 note=42 velocity=95 time=0
EXTRACT: note_off channel=9 note=51 velocity=79 time=0
EXTRACT: note_on channel=9 note=42 velocity=47 time=0
EXTRACT: note_on channel=2 note=67 velocity=111 time=0.217391
EXTRACT: note_on channel=0 note=38 velocity=95 time=0
EXTRACT: note_off channel=9 note=42 velocity=47 time=0
EXTRACT: note_on channel=9 note=42 velocity=79 time=0
EXTRACT: note_on channel=9 note=51 velocity=63 time=0
EXTRACT: note_off channel=2 note=67 velocity=111 time=0.217391
EXTRACT: note_off channel=0 note=38 velocity=95 time=0
EXTRACT: note_off channel=9 note=42 velocity=79 time=0
EXTRACT: note_off channel=9 note=51 velocity=63 time=0
EXTRACT: note_on channel=9 note=35 velocity=127 time=0
EXTRACT: note_on channel=9 note=42 velocity=47 time=0
EXTRACT: note_off channel=9 note=35 velocity=127 time=0.217391
EXTRACT: note_off channel=9 note=42 velocity=47 time=0
EXTRACT: note_on channel=9 note=42 velocity=95 time=0
EXTRACT: note_on channel=9 note=51 velocity=79 time=0
EXTRACT: note_on channel=9 note=39 velocity=111 time=0
EXTRACT: note_on channel=9 note=41 velocity=111 time=0
EXTRACT: note_on channel=9 note=38 velocity=111 time=0
EXTRACT: note_on channel=9 note=54 velocity=127 time=0
EXTRACT: note_on channel=2 note=69 velocity=127 time=0.217391
EXTRACT: note_on channel=0 note=28 velocity=95 time=0
EXTRACT: note_off channel=9 note=42 velocity=95 time=0
EXTRACT: note_off channel=9 note=51 velocity=79 time=0
EXTRACT: note_off channel=9 note=39 velocity=111 time=0
EXTRACT: note_off channel=9 note=41 velocity=111 time=0
EXTRACT: note_off channel=9 note=38 velocity=111 time=0
EXTRACT: note_off channel=9 note=54 velocity=127 time=0
EXTRACT: note_on channel=9 note=42 velocity=47 time=0
EXTRACT: note_off channel=9 note=42 velocity=47 time=0.217391
EXTRACT: note_on channel=9 note=42 velocity=79 time=0
EXTRACT: note_on channel=9 note=51 velocity=63 time=0
EXTRACT: note_on channel=9 note=35 velocity=127 time=0
EXTRACT: note_off channel=2 note=69 velocity=127 time=0.217391
EXTRACT: note_on channel=2 note=67 velocity=111 time=0
EXTRACT: note_off channel=0 note=28 velocity=95 time=0
EXTRACT: note_on channel=0 note=31 velocity=95 time=0
EXTRACT: note_off channel=9 note=42 velocity=79 time=0
EXTRACT: note_off channel=9 note=51 velocity=63 time=0
EXTRACT: note_off channel=9 note=35 velocity=127 time=0
EXTRACT: note_on channel=9 note=42 velocity=47 time=0
EXTRACT: note_off channel=2 note=67 velocity=111 time=0.217391
EXTRACT: note_on channel=2 note=69 velocity=127 time=0
EXTRACT: note_off channel=0 note=31 velocity=95 time=0
EXTRACT: note_on channel=0 note=35 velocity=95 time=0
EXTRACT: note_off channel=9 note=42 velocity=47 time=0
EXTRACT: note_on channel=9 note=42 velocity=95 time=0
EXTRACT: note_on channel=9 note=51 velocity=79 time=0
EXTRACT: note_on channel=9 note=40 velocity=111 time=0
EXTRACT: note_off channel=2 note=69 velocity=127 time=0.217391
EXTRACT: note_off channel=0 note=35 velocity=95 time=0
EXTRACT: note_on channel=0 note=43 velocity=95 time=0
EXTRACT: note_off channel=9 note=42 velocity=95 time=0
EXTRACT: note_off channel=9 note=51 velocity=79 time=0
EXTRACT: note_off channel=9 note=40 velocity=111 time=0
EXTRACT: note_on channel=9 note=42 velocity=47 time=0
EXTRACT: note_on channel=2 note=67 velocity=111 time=0.217391
EXTRACT: note_off channel=0 note=43 velocity=95 time=0
EXTRACT: note_on channel=0 note=40 velocity=95 time=0
EXTRACT: note_off channel=9 note=42 velocity=47 time=0
EXTRACT: note_on channel=9 note=35 velocity=127 time=0
EXTRACT: note_on channel=9 note=42 velocity=79 time=0
EXTRACT: note_on channel=9 note=51 velocity=63 time=0
EXTRACT: note_off channel=2 note=67 velocity=111 time=0.217391
EXTRACT: note_on channel=2 note=69 velocity=111 time=0
EXTRACT: note_off channel=9 note=35 velocity=127 time=0
EXTRACT: note_off channel=9 note=42 velocity=79 time=0
EXTRACT: note_off channel=9 note=51 velocity=63 time=0
EXTRACT: note_on channel=9 note=42 velocity=47 time=0
EXTRACT: note_off channel=2 note=69 velocity=111 time=0.217391
EXTRACT: note_off channel=0 note=40 velocity=95 time=0
EXTRACT: note_off channel=9 note=42 velocity=47 time=0
EXTRACT: note_on channel=9 note=39 velocity=95 time=0
EXTRACT: note_on channel=9 note=38 velocity=95 time=0
EXTRACT: note_on channel=9 note=41 velocity=111 time=0
EXTRACT: note_on channel=9 note=54 velocity=127 time=0
EXTRACT: note_on channel=9 note=42 velocity=95 time=0
EXTRACT: note_on channel=9 note=51 velocity=79 time=0
EXTRACT: note_on channel=1 note=40 velocity=95 time=0.16304325
EXTRACT: note_on channel=2 note=69 velocity=127 time=0.05434775
EXTRACT: note_off channel=1 note=40 velocity=95 time=0
EXTRACT: pitchwheel channel=1 pitch=0 time=0
EXTRACT: note_on channel=1 note=40 velocity=95 time=0
EXTRACT: note_off channel=9 note=39 velocity=95 time=0
EXTRACT: note_off channel=9 note=38 velocity=95 time=0
EXTRACT: note_off channel=9 note=41 velocity=111 time=0
EXTRACT: note_off channel=9 note=54 velocity=127 time=0
EXTRACT: note_off channel=9 note=42 velocity=95 time=0
EXTRACT: note_off channel=9 note=51 velocity=79 time=0
EXTRACT: note_on channel=9 note=42 velocity=31 time=0
EXTRACT: pitchwheel channel=1 pitch=128 time=0.019474610416666666
EXTRACT: pitchwheel channel=1 pitch=256 time=0.019474610416666666
EXTRACT: pitchwheel channel=1 pitch=384 time=0.019474610416666666
EXTRACT: pitchwheel channel=1 pitch=512 time=0.019474610416666666
EXTRACT: pitchwheel channel=1 pitch=640 time=0.019474610416666666
EXTRACT: pitchwheel channel=1 pitch=768 time=0.019474610416666666
EXTRACT: pitchwheel channel=1 pitch=896 time=0.019474610416666666
EXTRACT: pitchwheel channel=1 pitch=1024 time=0.019474610416666666
EXTRACT: pitchwheel channel=1 pitch=1152 time=0.019474610416666666
EXTRACT: pitchwheel channel=1 pitch=1280 time=0.019474610416666666
EXTRACT: pitchwheel channel=1 pitch=1408 time=0.019474610416666666
EXTRACT: pitchwheel channel=1 pitch=1408 time=0.0031702854166666666
EXTRACT: note_off channel=9 note=42 velocity=31 time=0
EXTRACT: note_on channel=9 note=35 velocity=127 time=0
EXTRACT: note_on channel=9 note=42 velocity=95 time=0
EXTRACT: note_on channel=9 note=51 velocity=79 time=0
EXTRACT: note_off channel=2 note=69 velocity=127 time=0.217391
EXTRACT: note_on channel=2 note=67 velocity=95 time=0
EXTRACT: pitchwheel channel=1 pitch=1408 time=0
EXTRACT: pitchwheel channel=1 pitch=0 time=0
EXTRACT: note_off channel=1 note=40 velocity=95 time=0
EXTRACT: note_on channel=0 note=40 velocity=95 time=0
EXTRACT: note_off channel=9 note=35 velocity=127 time=0
EXTRACT: note_off channel=9 note=42 velocity=95 time=0
EXTRACT: note_off channel=9 note=51 velocity=79 time=0
EXTRACT: note_on channel=9 note=42 velocity=47 time=0
EXTRACT: note_off channel=2 note=67 velocity=95 time=0.217391
EXTRACT: note_on channel=2 note=69 velocity=111 time=0
EXTRACT: note_off channel=0 note=40 velocity=95 time=0
EXTRACT: note_on channel=0 note=38 velocity=95 time=0
EXTRACT: note_off channel=9 note=42 velocity=47 time=0
EXTRACT: note_on channel=9 note=40 velocity=111 time=0
EXTRACT: note_on channel=9 note=42 velocity=95 time=0
EXTRACT: note_on channel=9 note=51 velocity=79 time=0
EXTRACT: note_off channel=2 note=69 velocity=111 time=0.217391
EXTRACT: note_off channel=0 note=38 velocity=95 time=0
EXTRACT: note_off channel=9 note=40 velocity=111 time=0
EXTRACT: note_off channel=9 note=42 velocity=95 time=0
EXTRACT: note_off channel=9 note=51 velocity=79 time=0
EXTRACT: note_on channel=9 note=42 velocity=47 time=0
EXTRACT: note_on channel=2 note=67 velocity=111 time=0.217391
EXTRACT: note_off channel=9 note=42 velocity=47 time=0
EXTRACT: note_on channel=9 note=42 velocity=79 time=0
EXTRACT: note_on channel=9 note=51 velocity=63 time=0
EXTRACT: note_off channel=2 note=67 velocity=111 time=0.217391
EXTRACT: note_off channel=9 note=42 velocity=79 time=0
EXTRACT: note_off channel=9 note=51 velocity=63 time=0
EXTRACT: note_on channel=9 note=35 velocity=127 time=0
EXTRACT: note_on channel=9 note=42 velocity=47 time=0
EXTRACT: note_on channel=2 note=69 velocity=127 time=0.217391
EXTRACT: note_off channel=9 note=35 velocity=127 time=0
EXTRACT: note_off channel=9 note=42 velocity=47 time=0
EXTRACT: note_on channel=9 note=42 velocity=95 time=0
EXTRACT: note_on channel=9 note=51 velocity=79 time=0
EXTRACT: note_on channel=9 note=38 velocity=111 time=0
EXTRACT: note_on channel=9 note=39 velocity=95 time=0
EXTRACT: note_on channel=9 note=54 velocity=111 time=0
EXTRACT: note_on channel=9 note=41 velocity=111 time=0
EXTRACT: note_off channel=2 note=69 velocity=127 time=0.217391
EXTRACT: note_on channel=0 note=28 velocity=95 time=0
EXTRACT: note_off channel=9 note=42 velocity=95 time=0
EXTRACT: note_off channel=9 note=51 velocity=79 time=0
EXTRACT: note_off channel=9 note=38 velocity=111 time=0
EXTRACT: note_off channel=9 note=39 velocity=95 time=0
EXTRACT: note_off channel=9 note=54 velocity=111 time=0
EXTRACT: note_off channel=9 note=41 velocity=111 time=0
EXTRACT: note_on channel=9 note=42 velocity=47 time=0
EXTRACT: note_on channel=2 note=71 velocity=111 time=0.217391
EXTRACT: note_off channel=9 note=42 velocity=47 time=0
EXTRACT: note_on channel=9 note=42 velocity=95 time=0
EXTRACT: note_on channel=9 note=51 velocity=79 time=0
EXTRACT: note_on channel=9 note=35 velocity=127 time=0
EXTRACT: note_off channel=2 note=71 velocity=111 time=0.217391
EXTRACT: note_on channel=2 note=71 velocity=111 time=0
EXTRACT: note_off channel=0 note=28 velocity=95 time=0
EXTRACT: note_on channel=0 note=31 velocity=95 time=0
EXTRACT: note_off channel=9 note=42 velocity=95 time=0
EXTRACT: note_off channel=9 note=51 velocity=79 time=0
EXTRACT: note_off channel=9 note=35 velocity=127 time=0
EXTRACT: note_on channel=9 note=42 velocity=31 time=0
EXTRACT: note_off channel=0 note=31 velocity=95 time=0.217391
EXTRACT: note_on channel=0 note=35 velocity=95 time=0
EXTRACT: note_off channel=9 note=42 velocity=31 time=0
EXTRACT: note_on channel=9 note=40 velocity=111 time=0
EXTRACT: note_on channel=9 note=42 velocity=95 time=0
EXTRACT: note_on channel=9 note=51 velocity=79 time=0
EXTRACT: note_off channel=2 note=71 velocity=111 time=0.217391
EXTRACT: note_off channel=0 note=35 velocity=95 time=0
EXTRACT: note_on channel=0 note=43 velocity=95 time=0
EXTRACT: note_off channel=9 note=40 velocity=111 time=0
EXTRACT: note_off channel=9 note=42 velocity=95 time=0
EXTRACT: note_off channel=9 note=51 velocity=79 time=0
EXTRACT: note_on channel=9 note=42 velocity=47 time=0
EXTRACT: note_off channel=0 note=43 velocity=95 time=0.217391
EXTRACT: note_on channel=0 note=40 velocity=95 time=0
EXTRACT: note_off channel=9 note=42 velocity=47 time=0
EXTRACT: note_on channel=9 note=42 velocity=95 time=0
EXTRACT: note_on channel=9 note=51 velocity=79 time=0
EXTRACT: note_on channel=9 note=35 velocity=127 time=0
EXTRACT: note_off channel=9 note=42 velocity=95 time=0.217391
EXTRACT: note_off channel=9 note=51 velocity=79 time=0
EXTRACT: note_off channel=9 note=35 velocity=127 time=0
EXTRACT: note_on channel=9 note=42 velocity=47 time=0
EXTRACT: note_off channel=0 note=40 velocity=95 time=0.217391
EXTRACT: note_off channel=9 note=42 velocity=47 time=0
EXTRACT: note_on channel=9 note=38 velocity=111 time=0
EXTRACT: note_on channel=9 note=39 velocity=95 time=0
EXTRACT: note_on channel=9 note=41 velocity=111 time=0
EXTRACT: note_on channel=9 note=54 velocity=95 time=0
EXTRACT: note_on channel=9 note=42 velocity=95 time=0
EXTRACT: note_on channel=9 note=51 velocity=79 time=0
EXTRACT: note_on channel=1 note=40 velocity=95 time=0.16304325
EXTRACT: note_off channel=1 note=40 velocity=95 time=0.05434775
EXTRACT: pitchwheel channel=1 pitch=0 time=0
EXTRACT: note_on channel=1 note=40 velocity=95 time=0
EXTRACT: note_off channel=9 note=38 velocity=111 time=0
EXTRACT: note_off channel=9 note=39 velocity=95 time=0
EXTRACT: note_off channel=9 note=41 velocity=111 time=0
EXTRACT: note_off channel=9 note=54 velocity=95 time=0
EXTRACT: note_off channel=9 note=42 velocity=95 time=0
EXTRACT: note_off channel=9 note=51 velocity=79 time=0
EXTRACT: note_on channel=9 note=42 velocity=47 time=0
EXTRACT: pitchwheel channel=1 pitch=128 time=0.019474610416666666
EXTRACT: pitchwheel channel=1 pitch=256 time=0.019474610416666666
EXTRACT: pitchwheel channel=1 pitch=384 time=0.019474610416666666
EXTRACT: pitchwheel channel=1 pitch=512 time=0.019474610416666666
EXTRACT: pitchwheel channel=1 pitch=640 time=0.019474610416666666
EXTRACT: pitchwheel channel=1 pitch=768 time=0.019474610416666666
EXTRACT: pitchwheel channel=1 pitch=896 time=0.019474610416666666
EXTRACT: pitchwheel channel=1 pitch=1024 time=0.019474610416666666
EXTRACT: pitchwheel channel=1 pitch=1152 time=0.019474610416666666
EXTRACT: pitchwheel channel=1 pitch=1280 time=0.019474610416666666
EXTRACT: pitchwheel channel=1 pitch=1408 time=0.019474610416666666
EXTRACT: note_on channel=2 note=71 velocity=127 time=0.0031702854166666666
EXTRACT: pitchwheel channel=1 pitch=1408 time=0
EXTRACT: note_off channel=9 note=42 velocity=47 time=0
EXTRACT: note_on channel=9 note=35 velocity=127 time=0
EXTRACT: note_on channel=9 note=42 velocity=111 time=0
EXTRACT: note_off channel=2 note=71 velocity=127 time=0.217391
EXTRACT: note_on channel=2 note=71 velocity=111 time=0
EXTRACT: pitchwheel channel=1 pitch=1408 time=0
EXTRACT: pitchwheel channel=1 pitch=0 time=0
EXTRACT: note_off channel=1 note=40 velocity=95 time=0
EXTRACT: note_on channel=0 note=40 velocity=95 time=0
EXTRACT: note_off channel=9 note=35 velocity=127 time=0
EXTRACT: note_off channel=9 note=42 velocity=111 time=0
EXTRACT: note_on channel=9 note=42 velocity=47 time=0
EXTRACT: note_off channel=2 note=71 velocity=111 time=0.217391
EXTRACT: note_off channel=0 note=40 velocity=95 time=0
EXTRACT: note_on channel=0 note=38 velocity=95 time=0
EXTRACT: note_off channel=9 note=42 velocity=47 time=0
EXTRACT: note_on channel=9 note=42 velocity=63 time=0
EXTRACT: note_on channel=9 note=51 velocity=63 time=0
EXTRACT: note_on channel=9 note=40 velocity=111 time=0
EXTRACT: note_off channel=0 note=38 velocity=95 time=0.217391
EXTRACT: note_off channel=9 note=42 velocity=63 time=0
EXTRACT: note_off channel=9 note=51 velocity=63 time=0
EXTRACT: note_off channel=9 note=40 velocity=111 time=0
EXTRACT: note_on channel=9 note=42 velocity=15 time=0
EXTRACT: note_on channel=0 note=38 velocity=95 time=0.217391
EXTRACT: note_off channel=9 note=42 velocity=15 time=0
EXTRACT: note_on channel=9 note=42 velocity=63 time=0
EXTRACT: note_on channel=9 note=51 velocity=63 time=0
EXTRACT: note_off channel=0 note=38 velocity=95 time=0.217391
EXTRACT: note_off channel=9 note=42 velocity=63 time=0
EXTRACT: note_off channel=9 note=51 velocity=63 time=0
EXTRACT: note_on channel=9 note=35 velocity=127 time=0
EXTRACT: note_on channel=9 note=42 velocity=31 time=0
EXTRACT: note_off channel=9 note=35 velocity=127 time=0.217391
EXTRACT: note_off channel=9 note=42 velocity=31 time=0
EXTRACT: note_on channel=9 note=38 velocity=111 time=0
EXTRACT: note_on channel=9 note=39 velocity=111 time=0
EXTRACT: note_on channel=9 note=54 velocity=95 time=0
EXTRACT: note_on channel=9 note=41 velocity=111 time=0
EXTRACT: note_on channel=9 note=42 velocity=79 time=0
EXTRACT: note_on channel=9 note=51 velocity=63 time=0
EXTRACT: note_on channel=2 note=71 velocity=127 time=0.217391
EXTRACT: note_on channel=0 note=28 velocity=95 time=0
EXTRACT: note_off channel=9 note=38 velocity=111 time=0
EXTRACT: note_off channel=9 note=39 velocity=111 time=0
EXTRACT: note_off channel=9 note=54 velocity=95 time=0
EXTRACT: note_off channel=9 note=41 velocity=111 time=0
EXTRACT: note_off channel=9 note=42 velocity=79 time=0
EXTRACT: note_off channel=9 note=51 velocity=63 time=0
EXTRACT: note_on channel=9 note=42 velocity=31 time=0
EXTRACT: note_off channel=2 note=71 velocity=127 time=0.217391
EXTRACT: note_off channel=9 note=42 velocity=31 time=0
EXTRACT: note_on channel=9 note=42 velocity=63 time=0
EXTRACT: note_on channel=9 note=51 velocity=63 time=0
EXTRACT: note_on channel=9 note=35 velocity=127 time=0
EXTRACT: note_on channel=2 note=71 velocity=111 time=0.217391
EXTRACT: note_off channel=0 note=28 velocity=95 time=0
EXTRACT: note_on channel=0 note=31 velocity=95 time=0
EXTRACT: note_off channel=9 note=42 velocity=63 time=0
EXTRACT: note_off channel=9 note=51 velocity=63 time=0
EXTRACT: note_off channel=9 note=35 velocity=127 time=0
EXTRACT: note_on channel=9 note=42 velocity=31 time=0
EXTRACT: note_off channel=2 note=71 velocity=111 time=0.217391
EXTRACT: note_on channel=2 note=71 velocity=111 time=0
EXTRACT: note_off channel=0 note=31 velocity=95 time=0
EXTRACT: note_on channel=0 note=35 velocity=95 time=0
EXTRACT: note_off channel=9 note=42 velocity=31 time=0
EXTRACT: note_on channel=9 note=40 velocity=111 time=0
EXTRACT: note_on channel=9 note=42 velocity=79 time=0
EXTRACT: note_on channel=9 note=51 velocity=63 time=0
EXTRACT: note_off channel=2 note=71 velocity=111 time=0.217391
EXTRACT: note_on channel=2 note=71 velocity=111 time=0
EXTRACT: note_off channel=0 note=35 velocity=95 time=0
EXTRACT: note_on channel=0 note=43 velocity=95 time=0
EXTRACT: note_off channel=9 note=40 velocity=111 time=0
EXTRACT: note_off channel=9 note=42 velocity=79 time=0
EXTRACT: note_off channel=9 note=51 velocity=63 time=0
EXTRACT: note_on channel=9 note=42 velocity=31 time=0
EXTRACT: note_off channel=2 note=71 velocity=111 time=0.217391
EXTRACT: note_on channel=2 note=71 velocity=127 time=0
EXTRACT: note_off channel=0 note=43 velocity=95 time=0
EXTRACT: note_on channel=0 note=40 velocity=95 time=0
EXTRACT: note_off channel=9 note=42 velocity=31 time=0
EXTRACT: note_on channel=9 note=42 velocity=63 time=0
EXTRACT: note_on channel=9 note=51 velocity=63 time=0
EXTRACT: note_on channel=9 note=35 velocity=127 time=0
EXTRACT: note_off channel=9 note=42 velocity=63 time=0.217391
EXTRACT: note_off channel=9 note=51 velocity=63 time=0
EXTRACT: note_off channel=9 note=35 velocity=127 time=0
EXTRACT: note_on channel=9 note=42 velocity=31 time=0
EXTRACT: note_off channel=2 note=71 velocity=127 time=0.217391
EXTRACT: note_on channel=2 note=71 velocity=95 time=0
EXTRACT: note_off channel=0 note=40 velocity=95 time=0
EXTRACT: note_off channel=9 note=42 velocity=31 time=0
EXTRACT: note_on channel=9 note=39 velocity=95 time=0
EXTRACT: note_on channel=9 note=38 velocity=95 time=0
EXTRACT: note_on channel=9 note=41 velocity=111 time=0
EXTRACT: note_on channel=9 note=54 velocity=95 time=0
EXTRACT: note_on channel=9 note=42 velocity=79 time=0
EXTRACT: note_on channel=9 note=51 velocity=63 time=0
EXTRACT: note_on channel=1 note=40 velocity=95 time=0.16304325
EXTRACT: note_off channel=2 note=71 velocity=95 time=0.05434775
EXTRACT: note_on channel=2 note=71 velocity=127 time=0
EXTRACT: note_off channel=1 note=40 velocity=95 time=0
EXTRACT: pitchwheel channel=1 pitch=0 time=0
EXTRACT: note_on channel=1 note=40 velocity=95 time=0
EXTRACT: note_off channel=9 note=39 velocity=95 time=0
EXTRACT: note_off channel=9 note=38 velocity=95 time=0
EXTRACT: note_off channel=9 note=41 velocity=111 time=0
EXTRACT: note_off channel=9 note=54 velocity=95 time=0
EXTRACT: note_off channel=9 note=42 velocity=79 time=0
EXTRACT: note_off channel=9 note=51 velocity=63 time=0
EXTRACT: note_on channel=9 note=42 velocity=31 time=0
EXTRACT: pitchwheel channel=1 pitch=128 time=0.019474610416666666
EXTRACT: pitchwheel channel=1 pitch=256 time=0.019474610416666666
EXTRACT: pitchwheel channel=1 pitch=384 time=0.019474610416666666
EXTRACT: pitchwheel channel=1 pitch=512 time=0.019474610416666666
EXTRACT: pitchwheel channel=1 pitch=640 time=0.019474610416666666
EXTRACT: pitchwheel channel=1 pitch=768 time=0.019474610416666666
EXTRACT: pitchwheel channel=1 pitch=896 time=0.019474610416666666
EXTRACT: pitchwheel channel=1 pitch=1024 time=0.019474610416666666
EXTRACT: pitchwheel channel=1 pitch=1152 time=0.019474610416666666
EXTRACT: pitchwheel channel=1 pitch=1280 time=0.019474610416666666
EXTRACT: pitchwheel channel=1 pitch=1408 time=0.019474610416666666
EXTRACT: pitchwheel channel=1 pitch=1408 time=0.0031702854166666666
EXTRACT: note_off channel=9 note=42 velocity=31 time=0
EXTRACT: note_on channel=9 note=42 velocity=79 time=0
EXTRACT: note_on channel=9 note=51 velocity=63 time=0
EXTRACT: note_on channel=9 note=35 velocity=127 time=0
EXTRACT: note_off channel=2 note=71 velocity=127 time=0.217391
EXTRACT: note_on channel=2 note=71 velocity=111 time=0
EXTRACT: pitchwheel channel=1 pitch=1408 time=0
EXTRACT: pitchwheel channel=1 pitch=0 time=0
EXTRACT: note_off channel=1 note=40 velocity=95 time=0
EXTRACT: note_on channel=0 note=40 velocity=95 time=0
EXTRACT: note_off channel=9 note=42 velocity=79 time=0
EXTRACT: note_off channel=9 note=51 velocity=63 time=0
EXTRACT: note_off channel=9 note=35 velocity=127 time=0
EXTRACT: note_on channel=9 note=42 velocity=47 time=0
EXTRACT: note_off channel=2 note=71 velocity=111 time=0.217391
EXTRACT: note_off channel=0 note=40 velocity=95 time=0
EXTRACT: note_on channel=0 note=38 velocity=95 time=0
EXTRACT: note_off channel=9 note=42 velocity=47 time=0
EXTRACT: note_on channel=9 note=40 velocity=111 time=0
EXTRACT: note_on channel=9 note=42 velocity=79 time=0
EXTRACT: note_on channel=9 note=51 velocity=63 time=0
EXTRACT: note_off channel=0 note=38 velocity=95 time=0.217391
EXTRACT: note_off channel=9 note=40 velocity=111 time=0
EXTRACT: note_off channel=9 note=42 velocity=79 time=0
EXTRACT: note_off channel=9 note=51 velocity=63 time=0
EXTRACT: note_on channel=9 note=42 velocity=47 time=0
EXTRACT: note_off channel=9 note=42 velocity=47 time=0.217391
EXTRACT: note_on channel=9 note=42 velocity=79 time=0
EXTRACT: note_on channel=9 note=51 velocity=63 time=0
EXTRACT: note_off channel=9 note=42 velocity=79 time=0.217391
EXTRACT: note_off channel=9 note=51 velocity=63 time=0
EXTRACT: note_on channel=9 note=35 velocity=127 time=0
EXTRACT: note_on channel=9 note=42 velocity=47 time=0
EXTRACT: note_off channel=9 note=35 velocity=127 time=0.217391
EXTRACT: note_off channel=9 note=42 velocity=47 time=0
EXTRACT: note_on channel=9 note=54 velocity=95 time=0
EXTRACT: note_on channel=9 note=39 velocity=95 time=0
EXTRACT: note_on channel=9 note=41 velocity=111 time=0
EXTRACT: note_on channel=9 note=38 velocity=95 time=0
EXTRACT: note_on channel=9 note=42 velocity=79 time=0
EXTRACT: note_on channel=9 note=51 velocity=63 time=0
EXTRACT: note_on channel=2 note=69 velocity=127 time=0.217391
EXTRACT: note_on channel=0 note=28 velocity=95 time=0
EXTRACT: note_off channel=9 note=54 velocity=95 time=0
EXTRACT: note_off channel=9 note=39 velocity=95 time=0
EXTRACT: note_off channel=9 note=41 velocity=111 time=0
EXTRACT: note_off channel=9 note=38 velocity=95 time=0
EXTRACT: note_off channel=9 note=42 velocity=79 time=0
EXTRACT: note_off channel=9 note=51 velocity=63 time=0
EXTRACT: note_on channel=9 note=42 velocity=47 time=0
EXTRACT: note_off channel=9 note=42 velocity=47 time=0.217391
EXTRACT: note_on channel=9 note=35 velocity=127 time=0
EXTRACT: note_on channel=9 note=42 velocity=79 time=0
EXTRACT: note_on channel=9 note=51 velocity=63 time=0
EXTRACT: note_off channel=2 note=69 velocity=127 time=0.217391
EXTRACT: note_on channel=2 note=67 velocity=111 time=0
EXTRACT: note_off channel=0 note=28 velocity=95 time=0
EXTRACT: note_on channel=0 note=31 velocity=95 time=0
EXTRACT: note_off channel=9 note=35 velocity=127 time=0
EXTRACT: note_off channel=9 note=42 velocity=79 time=0
EXTRACT: note_off channel=9 note=51 velocity=63 time=0
EXTRACT: note_on channel=9 note=42 velocity=47 time=0
EXTRACT: note_off channel=2 note=67 velocity=111 time=0.217391
EXTRACT: note_on channel=2 note=69 velocity=111 time=0
EXTRACT: note_off channel=0 note=31 velocity=95 time=0
EXTRACT: note_on channel=0 note=35 velocity=95 time=0
EXTRACT: note_off channel=9 note=42 velocity=47 time=0
EXTRACT: note_on channel=9 note=40 velocity=111 time=0
EXTRACT: note_on channel=9 note=42 velocity=79 time=0
EXTRACT: note_on channel=9 note=51 velocity=63 time=0
EXTRACT: note_off channel=2 note=69 velocity=111 time=0.217391
EXTRACT: note_off channel=0 note=35 velocity=95 time=0
EXTRACT: note_on channel=0 note=43 velocity=95 time=0
EXTRACT: note_off channel=9 note=40 velocity=111 time=0
EXTRACT: note_off channel=9 note=42 velocity=79 time=0
EXTRACT: note_off channel=9 note=51 velocity=63 time=0
EXTRACT: note_on channel=9 note=42 velocity=47 time=0
EXTRACT: note_on channel=2 note=67 velocity=127 time=0.217391
EXTRACT: note_off channel=0 note=43 velocity=95 time=0
EXTRACT: note_on channel=0 note=40 velocity=95 time=0
EXTRACT: note_off channel=9 note=42 velocity=47 time=0
EXTRACT: note_on channel=9 note=35 velocity=127 time=0
EXTRACT: note_on channel=9 note=42 velocity=95 time=0
EXTRACT: note_on channel=9 note=51 velocity=79 time=0
EXTRACT: note_off channel=2 note=67 velocity=127 time=0.217391
EXTRACT: note_on channel=2 note=69 velocity=111 time=0
EXTRACT: note_off channel=9 note=35 velocity=127 time=0
EXTRACT: note_off channel=9 note=42 velocity=95 time=0
EXTRACT: note_off channel=9 note=51 velocity=79 time=0
EXTRACT: note_on channel=9 note=42 velocity=47 time=0
EXTRACT: note_off channel=2 note=69 velocity=111 time=0.217391
EXTRACT: note_on channel=2 note=67 velocity=95 time=0
EXTRACT: note_off channel=0 note=40 velocity=95 time=0
EXTRACT: note_off channel=9 note=42 velocity=47 time=0
EXTRACT: note_on channel=9 note=38 velocity=111 time=0
EXTRACT: note_on channel=9 note=54 velocity=111 time=0
EXTRACT: note_on channel=9 note=41 velocity=111 time=0
EXTRACT: note_on channel=9 note=39 velocity=95 time=0
EXTRACT: note_on channel=9 note=42 velocity=95 time=0
EXTRACT: note_on channel=9 note=51 velocity=79 time=0
EXTRACT: note_on channel=1 note=40 velocity=95 time=0.16304325
EXTRACT: note_off channel=2 note=67 velocity=95 time=0.05434775
EXTRACT: note_on channel=2 note=69 velocity=127 time=0
EXTRACT: note_off channel=1 note=40 velocity=95 time=0
EXTRACT: pitchwheel channel=1 pitch=0 time=0
EXTRACT: note_on channel=1 note=40 velocity=95 time=0
EXTRACT: note_off channel=9 note=38 velocity=111 time=0
EXTRACT: note_off channel=9 note=54 velocity=111 time=0
EXTRACT: note_off channel=9 note=41 velocity=111 time=0
EXTRACT: note_off channel=9 note=39 velocity=95 time=0
EXTRACT: note_off channel=9 note=42 velocity=95 time=0
EXTRACT: note_off channel=9 note=51 velocity=79 time=0
EXTRACT: note_on channel=9 note=42 velocity=47 time=0
EXTRACT: pitchwheel channel=1 pitch=128 time=0.019474610416666666
EXTRACT: pitchwheel channel=1 pitch=256 time=0.019474610416666666
EXTRACT: pitchwheel channel=1 pitch=384 time=0.019474610416666666
EXTRACT: pitchwheel channel=1 pitch=512 time=0.019474610416666666
EXTRACT: pitchwheel channel=1 pitch=640 time=0.019474610416666666
EXTRACT: pitchwheel channel=1 pitch=768 time=0.019474610416666666
EXTRACT: pitchwheel channel=1 pitch=896 time=0.019474610416666666
EXTRACT: pitchwheel channel=1 pitch=1024 time=0.019474610416666666
EXTRACT: pitchwheel channel=1 pitch=1152 time=0.019474610416666666
EXTRACT: pitchwheel channel=1 pitch=1280 time=0.019474610416666666
EXTRACT: pitchwheel channel=1 pitch=1408 time=0.019474610416666666
EXTRACT: pitchwheel channel=1 pitch=1408 time=0.0031702854166666666
EXTRACT: note_off channel=9 note=42 velocity=47 time=0
EXTRACT: note_on channel=9 note=35 velocity=127 time=0
EXTRACT: note_on channel=9 note=42 velocity=79 time=0
EXTRACT: note_on channel=9 note=51 velocity=63 time=0
EXTRACT: note_off channel=2 note=69 velocity=127 time=0.217391
EXTRACT: note_on channel=2 note=67 velocity=95 time=0
EXTRACT: pitchwheel channel=1 pitch=1408 time=0
EXTRACT: pitchwheel channel=1 pitch=0 time=0
EXTRACT: note_off channel=1 note=40 velocity=95 time=0
EXTRACT: note_on channel=0 note=40 velocity=95 time=0
EXTRACT: note_off channel=9 note=35 velocity=127 time=0
EXTRACT: note_off channel=9 note=42 velocity=79 time=0
EXTRACT: note_off channel=9 note=51 velocity=63 time=0
EXTRACT: note_on channel=9 note=42 velocity=47 time=0
EXTRACT: note_off channel=2 note=67 velocity=95 time=0.217391
EXTRACT: note_on channel=2 note=69 velocity=111 time=0
EXTRACT: note_off channel=0 note=40 velocity=95 time=0
EXTRACT: note_on channel=0 note=38 velocity=95 time=0
EXTRACT: note_off channel=9 note=42 velocity=47 time=0
EXTRACT: note_on channel=9 note=40 velocity=111 time=0
EXTRACT: note_on channel=9 note=42 velocity=95 time=0
EXTRACT: note_on channel=9 note=51 velocity=79 time=0
EXTRACT: note_off channel=2 note=69 velocity=111 time=0.217391
EXTRACT: note_off channel=0 note=38 velocity=95 time=0
EXTRACT: note_off channel=9 note=40 velocity=111 time=0
EXTRACT: note_off channel=9 note=42 velocity=95 time=0
EXTRACT: note_off channel=9 note=51 velocity=79 time=0
EXTRACT: note_on channel=9 note=42 velocity=47 time=0
EXTRACT: note_on channel=2 note=67 velocity=111 time=0.217391
EXTRACT: note_on channel=0 note=38 velocity=95 time=0
EXTRACT: note_off channel=9 note=42 velocity=47 time=0
EXTRACT: note_on channel=9 note=42 velocity=79 time=0
EXTRACT: note_on channel=9 note=51 velocity=63 time=0
EXTRACT: note_off channel=2 note=67 velocity=111 time=0.217391
EXTRACT: note_off channel=0 note=38 velocity=95 time=0
EXTRACT: note_off channel=9 note=42 velocity=79 time=0
EXTRACT: note_off channel=9 note=51 velocity=63 time=0
EXTRACT: note_on channel=9 note=35 velocity=127 time=0
EXTRACT: note_on channel=9 note=42 velocity=47 time=0
EXTRACT: note_off channel=9 note=35 velocity=127 time=0.217391
EXTRACT: note_off channel=9 note=42 velocity=47 time=0
EXTRACT: note_on channel=9 note=39 velocity=111 time=0
EXTRACT: note_on channel=9 note=41 velocity=111 time=0
EXTRACT: note_on channel=9 note=38 velocity=111 time=0
EXTRACT: note_on channel=9 note=54 velocity=127 time=0
EXTRACT: note_on channel=9 note=42 velocity=95 time=0
EXTRACT: note_on channel=9 note=51 velocity=79 time=0
EXTRACT: note_on channel=2 note=69 velocity=127 time=0.217391
EXTRACT: note_on channel=0 note=28 velocity=95 time=0
EXTRACT: note_off channel=9 note=39 velocity=111 time=0
EXTRACT: note_off channel=9 note=41 velocity=111 time=0
EXTRACT: note_off channel=9 note=38 velocity=111 time=0
EXTRACT: note_off channel=9 note=54 velocity=127 time=0
EXTRACT: note_off channel=9 note=42 velocity=95 time=0
EXTRACT: note_off channel=9 note=51 velocity=79 time=0
EXTRACT: note_on channel=9 note=42 velocity=47 time=0
EXTRACT: note_off channel=9 note=42 velocity=47 time=0.217391
EXTRACT: note_on channel=9 note=35 velocity=127 time=0
EXTRACT: note_on channel=9 note=42 velocity=95 time=0
EXTRACT: note_on channel=9 note=51 velocity=79 time=0
EXTRACT: note_off channel=2 note=69 velocity=127 time=0.217391
EXTRACT: note_on channel=2 note=67 velocity=111 time=0
EXTRACT: note_off channel=0 note=28 velocity=95 time=0
EXTRACT: note_on channel=0 note=31 velocity=95 time=0
EXTRACT: note_off channel=9 note=35 velocity=127 time=0
EXTRACT: note_off channel=9 note=42 velocity=95 time=0
EXTRACT: note_off channel=9 note=51 velocity=79 time=0
EXTRACT: note_on channel=9 note=42 velocity=47 time=0
EXTRACT: note_off channel=2 note=67 velocity=111 time=0.217391
EXTRACT: note_on channel=2 note=69 velocity=111 time=0
EXTRACT: note_off channel=0 note=31 velocity=95 time=0
EXTRACT: note_on channel=0 note=35 velocity=95 time=0
EXTRACT: note_off channel=9 note=42 velocity=47 time=0
EXTRACT: note_on channel=9 note=42 velocity=95 time=0
EXTRACT: note_on channel=9 note=51 velocity=79 time=0
EXTRACT: note_on channel=9 note=40 velocity=111 time=0
EXTRACT: note_off channel=2 note=69 velocity=111 time=0.217391
EXTRACT: note_off channel=0 note=35 velocity=95 time=0
EXTRACT: note_on channel=0 note=43 velocity=95 time=0
EXTRACT: note_off channel=9 note=42 velocity=95 time=0
EXTRACT: note_off channel=9 note=51 velocity=79 time=0
EXTRACT: note_off channel=9 note=40 velocity=111 time=0
EXTRACT: note_on channel=9 note=42 velocity=47 time=0
EXTRACT: note_on channel=2 note=67 velocity=111 time=0.217391
EXTRACT: note_off channel=0 note=43 velocity=95 time=0
EXTRACT: note_on channel=0 note=40 velocity=95 time=0
EXTRACT: note_off channel=9 note=42 velocity=47 time=0
EXTRACT: note_on channel=9 note=35 velocity=127 time=0
EXTRACT: note_on channel=9 note=42 velocity=79 time=0
EXTRACT: note_on channel=9 note=51 velocity=63 time=0
EXTRACT: note_off channel=2 note=67 velocity=111 time=0.217391
EXTRACT: note_on channel=2 note=69 velocity=111 time=0
EXTRACT: note_off channel=9 note=35 velocity=127 time=0
EXTRACT: note_off channel=9 note=42 velocity=79 time=0
EXTRACT: note_off channel=9 note=51 velocity=63 time=0
EXTRACT: note_on channel=9 note=42 velocity=47 time=0
EXTRACT: note_off channel=2 note=69 velocity=111 time=0.217391
EXTRACT: note_off channel=0 note=40 velocity=95 time=0
EXTRACT: note_off channel=9 note=42 velocity=47 time=0
EXTRACT: note_on channel=9 note=42 velocity=95 time=0
EXTRACT: note_on channel=9 note=51 velocity=79 time=0
EXTRACT: note_on channel=9 note=39 velocity=95 time=0
EXTRACT: note_on channel=9 note=38 velocity=95 time=0
EXTRACT: note_on channel=9 note=41 velocity=111 time=0
EXTRACT: note_on channel=9 note=54 velocity=127 time=0
EXTRACT: note_on channel=1 note=40 velocity=95 time=0.16304325
EXTRACT: note_on channel=2 note=69 velocity=127 time=0.05434775
EXTRACT: note_off channel=1 note=40 velocity=95 time=0
EXTRACT: pitchwheel channel=1 pitch=0 time=0
EXTRACT: note_on channel=1 note=40 velocity=95 time=0
EXTRACT: note_off channel=9 note=42 velocity=95 time=0
EXTRACT: note_off channel=9 note=51 velocity=79 time=0
EXTRACT: note_off channel=9 note=39 velocity=95 time=0
EXTRACT: note_off channel=9 note=38 velocity=95 time=0
EXTRACT: note_off channel=9 note=41 velocity=111 time=0
EXTRACT: note_off channel=9 note=54 velocity=127 time=0
EXTRACT: note_on channel=9 note=42 velocity=47 time=0
EXTRACT: pitchwheel channel=1 pitch=128 time=0.019474610416666666
EXTRACT: pitchwheel channel=1 pitch=256 time=0.019474610416666666
EXTRACT: pitchwheel channel=1 pitch=384 time=0.019474610416666666
EXTRACT: pitchwheel channel=1 pitch=512 time=0.019474610416666666
EXTRACT: pitchwheel channel=1 pitch=640 time=0.019474610416666666
EXTRACT: pitchwheel channel=1 pitch=768 time=0.019474610416666666
EXTRACT: pitchwheel channel=1 pitch=896 time=0.019474610416666666
EXTRACT: pitchwheel channel=1 pitch=1024 time=0.019474610416666666
EXTRACT: pitchwheel channel=1 pitch=1152 time=0.019474610416666666
EXTRACT: pitchwheel channel=1 pitch=1280 time=0.019474610416666666
EXTRACT: pitchwheel channel=1 pitch=1408 time=0.019474610416666666
EXTRACT: pitchwheel channel=1 pitch=1408 time=0.0031702854166666666
EXTRACT: note_off channel=9 note=42 velocity=47 time=0
EXTRACT: note_on channel=9 note=42 velocity=79 time=0
EXTRACT: note_on channel=9 note=51 velocity=63 time=0
EXTRACT: note_on channel=9 note=35 velocity=127 time=0
EXTRACT: note_off channel=2 note=69 velocity=127 time=0.217391
EXTRACT: note_on channel=2 note=67 velocity=111 time=0
EXTRACT: pitchwheel channel=1 pitch=1408 time=0
EXTRACT: pitchwheel channel=1 pitch=0 time=0
EXTRACT: note_off channel=1 note=40 velocity=95 time=0
EXTRACT: note_on channel=0 note=40 velocity=95 time=0
EXTRACT: note_off channel=9 note=42 velocity=79 time=0
EXTRACT: note_off channel=9 note=51 velocity=63 time=0
EXTRACT: note_off channel=9 note=35 velocity=127 time=0
EXTRACT: note_on channel=9 note=42 velocity=47 time=0
EXTRACT: note_off channel=2 note=67 velocity=111 time=0.217391
EXTRACT: note_on channel=2 note=69 velocity=127 time=0
EXTRACT: note_off channel=0 note=40 velocity=95 time=0
EXTRACT: note_on channel=0 note=38 velocity=95 time=0
EXTRACT: note_off channel=9 note=42 velocity=47 time=0
EXTRACT: note_on channel=9 note=42 velocity=95 time=0
EXTRACT: note_on channel=9 note=51 velocity=79 time=0
EXTRACT: note_on channel=9 note=40 velocity=111 time=0
EXTRACT: note_off channel=2 note=69 velocity=127 time=0.217391
EXTRACT: note_off channel=0 note=38 velocity=95 time=0
EXTRACT: note_off channel=9 note=42 velocity=95 time=0
EXTRACT: note_off channel=9 note=51 velocity=79 time=0
EXTRACT: note_off channel=9 note=40 velocity=111 time=0
EXTRACT: note_on channel=9 note=42 velocity=47 time=0
EXTRACT: note_on channel=2 note=67 velocity=127 time=0.217391
EXTRACT: note_off channel=9 note=42 velocity=47 time=0
EXTRACT: note_on channel=9 note=42 velocity=79 time=0
EXTRACT: note_on channel=9 note=51 velocity=63 time=0
EXTRACT: note_off channel=2 note=67 velocity=127 time=0.217391
EXTRACT: note_off channel=9 note=42 velocity=79 time=0
EXTRACT: note_off channel=9 note=51 velocity=63 time=0
EXTRACT: note_on channel=9 note=35 velocity=127 time=0
EXTRACT: note_on channel=9 note=42 velocity=47 time=0
EXTRACT: note_on channel=2 note=69 velocity=111 time=0.217391
EXTRACT: note_off channel=9 note=35 velocity=127 time=0
EXTRACT: note_off channel=9 note=42 velocity=47 time=0
EXTRACT: note_on channel=9 note=38 velocity=111 time=0
EXTRACT: note_on channel=9 note=39 velocity=95 time=0
EXTRACT: note_on channel=9 note=54 velocity=111 time=0
EXTRACT: note_on channel=9 note=41 velocity=111 time=0
EXTRACT: note_on channel=9 note=42 velocity=95 time=0
EXTRACT: note_on channel=9 note=51 velocity=79 time=0
EXTRACT: note_off channel=2 note=69 velocity=111 time=0.217391
EXTRACT: note_off channel=9 note=38 velocity=111 time=0
EXTRACT: note_off channel=9 note=39 velocity=95 time=0
EXTRACT: note_off channel=9 note=54 velocity=111 time=0
EXTRACT: note_off channel=9 note=41 velocity=111 time=0
EXTRACT: note_off channel=9 note=42 velocity=95 time=0
EXTRACT: note_off channel=9 note=51 velocity=79 time=0
EXTRACT: note_on channel=9 note=42 velocity=31 time=0
EXTRACT: note_on channel=2 note=67 velocity=127 time=0.217391
EXTRACT: note_on channel=8 note=40 velocity=95 time=0
EXTRACT: note_off channel=9 note=42 velocity=31 time=0
EXTRACT: note_on channel=9 note=35 velocity=127 time=0
EXTRACT: note_on channel=9 note=42 velocity=95 time=0
EXTRACT: note_on channel=9 note=51 velocity=79 time=0
EXTRACT: note_off channel=2 note=67 velocity=127 time=0.217391
EXTRACT: note_on channel=2 note=64 velocity=111 time=0
EXTRACT: note_on channel=0 note=28 velocity=79 time=0
EXTRACT: note_off channel=8 note=40 velocity=95 time=0
EXTRACT: note_on channel=8 note=40 velocity=95 time=0
EXTRACT: note_off channel=9 note=35 velocity=127 time=0
EXTRACT: note_off channel=9 note=42 velocity=95 time=0
EXTRACT: note_off channel=9 note=51 velocity=79 time=0
EXTRACT: note_on channel=9 note=42 velocity=47 time=0
EXTRACT: note_off channel=8 note=40 velocity=95 time=0.1086955
EXTRACT: note_on channel=8 note=40 velocity=79 time=0
EXTRACT: note_off channel=2 note=64 velocity=111 time=0.1086955
EXTRACT: note_on channel=2 note=67 velocity=95 time=0
EXTRACT: note_off channel=0 note=28 velocity=79 time=0
EXTRACT: note_on channel=0 note=28 velocity=95 time=0
EXTRACT: note_off channel=8 note=40 velocity=79 time=0
EXTRACT: note_on channel=8 note=40 velocity=95 time=0
EXTRACT: note_off channel=9 note=42 velocity=47 time=0
EXTRACT: note_on channel=9 note=40 velocity=111 time=0
EXTRACT: note_on channel=9 note=42 velocity=95 time=0
EXTRACT: note_on channel=9 note=51 velocity=79 time=0
EXTRACT: note_off channel=2 note=67 velocity=95 time=0.217391
EXTRACT: note_on channel=2 note=64 velocity=95 time=0
EXTRACT: note_off channel=0 note=28 velocity=95 time=0
EXTRACT: note_off channel=8 note=40 velocity=95 time=0
EXTRACT: note_on channel=8 note=40 velocity=95 time=0
EXTRACT: note_off channel=9 note=40 velocity=111 time=0
EXTRACT: note_off channel=9 note=42 velocity=95 time=0
EXTRACT: note_off channel=9 note=51 velocity=79 time=0
EXTRACT: note_on channel=9 note=42 velocity=47 time=0
EXTRACT: note_off channel=8 note=40 velocity=95 time=0.1086955
EXTRACT: note_on channel=8 note=40 velocity=79 time=0
EXTRACT: note_off channel=2 note=64 velocity=95 time=0.1086955
EXTRACT: note_on channel=2 note=67 velocity=79 time=0
EXTRACT: note_on channel=0 note=28 velocity=95 time=0
EXTRACT: note_off channel=8 note=40 velocity=79 time=0
EXTRACT: note_on channel=8 note=40 velocity=95 time=0
EXTRACT: note_off channel=9 note=42 velocity=47 time=0
EXTRACT: note_on channel=9 note=42 velocity=79 time=0
EXTRACT: note_on channel=9 note=51 velocity=63 time=0
EXTRACT: note_on channel=9 note=35 velocity=127 time=0
EXTRACT: note_off channel=2 note=67 velocity=79 time=0.217391
EXTRACT: note_on channel=2 note=64 velocity=63 time=0
EXTRACT: note_off channel=0 note=28 velocity=95 time=0
EXTRACT: note_off channel=8 note=40 velocity=95 time=0
EXTRACT: note_on channel=8 note=40 velocity=95 time=0
EXTRACT: note_off channel=9 note=42 velocity=79 time=0
EXTRACT: note_off channel=9 note=51 velocity=63 time=0
EXTRACT: note_off channel=9 note=35 velocity=127 time=0
EXTRACT: note_on channel=9 note=42 velocity=47 time=0
EXTRACT: note_off channel=8 note=40 velocity=95 time=0.1086955
EXTRACT: note_on channel=8 note=40 velocity=79 time=0
EXTRACT: note_off channel=2 note=64 velocity=63 time=0.1086955
EXTRACT: note_on channel=2 note=67 velocity=63 time=0
EXTRACT: note_off channel=8 note=40 velocity=79 time=0
EXTRACT: note_on channel=8 note=40 velocity=95 time=0
EXTRACT: note_off channel=9 note=42 velocity=47 time=0
EXTRACT: note_on channel=9 note=38 velocity=111 time=0
EXTRACT: note_on channel=9 note=39 velocity=95 time=0
EXTRACT: note_on channel=9 note=41 velocity=111 time=0
EXTRACT: note_on channel=9 note=54 velocity=95 time=0
EXTRACT: note_on channel=9 note=42 velocity=95 time=0
EXTRACT: note_on channel=9 note=51 velocity=79 time=0
EXTRACT: note_off channel=2 note=67 velocity=63 time=0.217391
EXTRACT: note_on channel=2 note=64 velocity=47 time=0
EXTRACT: note_on channel=0 note=28 velocity=95 time=0
EXTRACT: note_off channel=8 note=40 velocity=95 time=0
EXTRACT: note_on channel=8 note=40 velocity=95 time=0
EXTRACT: note_off channel=9 note=38 velocity=111 time=0
EXTRACT: note_off channel=9 note=39 velocity=95 time=0
EXTRACT: note_off channel=9 note=41 velocity=111 time=0
EXTRACT: note_off channel=9 note=54 velocity=95 time=0
EXTRACT: note_off channel=9 note=42 velocity=95 time=0
EXTRACT: note_off channel=9 note=51 velocity=79 time=0
EXTRACT: note_on channel=9 note=42 velocity=47 time=0
EXTRACT: note_off channel=8 note=40 velocity=95 time=0.1086955
EXTRACT: note_on channel=8 note=40 velocity=79 time=0
EXTRACT: note_off channel=2 note=64 velocity=47 time=0.1086955
EXTRACT: note_off channel=0 note=28 velocity=95 time=0
EXTRACT: note_on channel=0 note=28 velocity=95 time=0
EXTRACT: note_off channel=8 note=40 velocity=79 time=0
EXTRACT: note_on channel=8 note=40 velocity=95 time=0
EXTRACT: note_off channel=9 note=42 velocity=47 time=0
EXTRACT: note_on channel=9 note=42 velocity=95 time=0
EXTRACT: note_on channel=9 note=51 velocity=79 time=0
EXTRACT: note_on channel=9 note=35 velocity=127 time=0
EXTRACT: note_off channel=0 note=28 velocity=95 time=0.217391
EXTRACT: note_off channel=8 note=40 velocity=95 time=0
EXTRACT: note_on channel=8 note=40 velocity=79 time=0
EXTRACT: note_off channel=9 note=42 velocity=95 time=0
EXTRACT: note_off channel=9 note=51 velocity=79 time=0
EXTRACT: note_off channel=9 note=35 velocity=127 time=0
EXTRACT: note_on channel=9 note=42 velocity=31 time=0
EXTRACT: note_off channel=8 note=40 velocity=79 time=0.1086955
EXTRACT: note_on channel=8 note=40 velocity=79 time=0
EXTRACT: note_on channel=0 note=28 velocity=95 time=0.1086955
EXTRACT: note_off channel=8 note=40 velocity=79 time=0
EXTRACT: note_on channel=8 note=40 velocity=95 time=0
EXTRACT: note_off channel=9 note=42 velocity=31 time=0
EXTRACT: note_on channel=9 note=42 velocity=95 time=0
EXTRACT: note_on channel=9 note=51 velocity=79 time=0
EXTRACT: note_on channel=9 note=40 velocity=111 time=0
EXTRACT: note_off channel=0 note=28 velocity=95 time=0.217391
EXTRACT: note_off channel=8 note=40 velocity=95 time=0
EXTRACT: note_on channel=8 note=40 velocity=79 time=0
EXTRACT: note_off channel=9 note=42 velocity=95 time=0
EXTRACT: note_off channel=9 note=51 velocity=79 time=0
EXTRACT: note_off channel=9 note=40 velocity=111 time=0
EXTRACT: note_on channel=9 note=42 velocity=47 time=0
EXTRACT: note_off channel=8 note=40 velocity=79 time=0.1086955
EXTRACT: note_on channel=8 note=40 velocity=79 time=0
EXTRACT: note_on channel=2 note=67 velocity=127 time=0.1086955
EXTRACT: note_off channel=8 note=40 velocity=79 time=0
EXTRACT: note_on channel=8 note=40 velocity=95 time=0
EXTRACT: note_off channel=9 note=42 velocity=47 time=0
EXTRACT: note_on channel=9 note=42 velocity=95 time=0
EXTRACT: note_on channel=9 note=51 velocity=79 time=0
EXTRACT: note_off channel=8 note=40 velocity=95 time=0.1086955
EXTRACT: note_on channel=8 note=40 velocity=79 time=0
EXTRACT: note_off channel=2 note=67 velocity=127 time=0.1086955
EXTRACT: note_on channel=2 note=64 velocity=111 time=0
EXTRACT: note_off channel=8 note=40 velocity=79 time=0
EXTRACT: note_on channel=8 note=40 velocity=95 time=0
EXTRACT: note_off channel=9 note=42 velocity=95 time=0
EXTRACT: note_off channel=9 note=51 velocity=79 time=0
EXTRACT: note_on channel=9 note=35 velocity=127 time=0
EXTRACT: note_on channel=9 note=42 velocity=47 time=0
EXTRACT: note_off channel=8 note=40 velocity=95 time=0.1086955
EXTRACT: note_on channel=8 note=40 velocity=79 time=0
EXTRACT: note_off channel=2 note=64 velocity=111 time=0.1086955
EXTRACT: note_on channel=2 note=67 velocity=95 time=0
EXTRACT: note_off channel=8 note=40 velocity=79 time=0
EXTRACT: note_on channel=8 note=40 velocity=95 time=0
EXTRACT: note_off channel=9 note=35 velocity=127 time=0
EXTRACT: note_off channel=9 note=42 velocity=47 time=0
EXTRACT: note_on channel=9 note=38 velocity=111 time=0
EXTRACT: note_on channel=9 note=39 velocity=111 time=0
EXTRACT: note_on channel=9 note=54 velocity=95 time=0
EXTRACT: note_on channel=9 note=41 velocity=111 time=0
EXTRACT: note_on channel=9 note=42 velocity=95 time=0
EXTRACT: note_on channel=9 note=51 velocity=79 time=0
EXTRACT: note_off channel=2 note=67 velocity=95 time=0.217391
EXTRACT: note_on channel=2 note=64 velocity=95 time=0
EXTRACT: note_off channel=8 note=40 velocity=95 time=0
EXTRACT: note_on channel=8 note=40 velocity=95 time=0
EXTRACT: note_off channel=9 note=38 velocity=111 time=0
EXTRACT: note_off channel=9 note=39 velocity=111 time=0
EXTRACT: note_off channel=9 note=54 velocity=95 time=0
EXTRACT: note_off channel=9 note=41 velocity=111 time=0
EXTRACT: note_off channel=9 note=42 velocity=95 time=0
EXTRACT: note_off channel=9 note=51 velocity=79 time=0
EXTRACT: note_on channel=9 note=42 velocity=47 time=0
EXTRACT: note_off channel=8 note=40 velocity=95 time=0.1086955
EXTRACT: note_on channel=8 note=40 velocity=95 time=0
EXTRACT: note_off channel=2 note=64 velocity=95 time=0.1086955
EXTRACT: note_on channel=2 note=67 velocity=79 time=0
EXTRACT: note_off channel=9 note=42 velocity=47 time=0
EXTRACT: note_on channel=9 note=35 velocity=127 time=0
EXTRACT: note_on channel=9 note=42 velocity=111 time=0
EXTRACT: note_off channel=2 note=67 velocity=79 time=0.217391
EXTRACT: note_on channel=2 note=64 velocity=63 time=0
EXTRACT: note_on channel=0 note=28 velocity=95 time=0
EXTRACT: note_off channel=8 note=40 velocity=95 time=0
EXTRACT: note_on channel=8 note=40 velocity=95 time=0
EXTRACT: note_off channel=9 note=35 velocity=127 time=0
EXTRACT: note_off channel=9 note=42 velocity=111 time=0
EXTRACT: note_on channel=9 note=42 velocity=47 time=0
EXTRACT: note_on channel=9 note=70 velocity=95 time=0
EXTRACT: note_off channel=8 note=40 velocity=95 time=0.1086955
EXTRACT: note_on channel=8 note=40 velocity=95 time=0
EXTRACT: note_off channel=2 note=64 velocity=63 time=0.1086955
EXTRACT: note_off channel=0 note=28 velocity=95 time=0
EXTRACT: note_on channel=0 note=28 velocity=95 time=0
EXTRACT: note_off channel=9 note=42 velocity=47 time=0
EXTRACT: note_off channel=9 note=70 velocity=95 time=0
EXTRACT: note_on channel=9 note=40 velocity=111 time=0
EXTRACT: note_on channel=9 note=42 velocity=63 time=0
EXTRACT: note_on channel=9 note=51 velocity=63 time=0
EXTRACT: note_off channel=0 note=28 velocity=95 time=0.217391
EXTRACT: note_off channel=8 note=40 velocity=95 time=0
EXTRACT: note_on channel=8 note=40 velocity=95 time=0
EXTRACT: note_off channel=9 note=40 velocity=111 time=0
EXTRACT: note_off channel=9 note=42 velocity=63 time=0
EXTRACT: note_off channel=9 note=51 velocity=63 time=0
EXTRACT: note_on channel=9 note=42 velocity=15 time=0
EXTRACT: note_on channel=9 note=70 velocity=111 time=0
EXTRACT: note_off channel=8 note=40 velocity=95 time=0.1086955
EXTRACT: note_on channel=8 note=40 velocity=95 time=0
EXTRACT: note_on channel=0 note=28 velocity=95 time=0.1086955
EXTRACT: note_off channel=8 note=40 velocity=95 time=0
EXTRACT: note_on channel=8 note=40 velocity=95 time=0
EXTRACT: note_off channel=9 note=42 velocity=15 time=0
EXTRACT: note_off channel=9 note=70 velocity=111 time=0
EXTRACT: note_on channel=9 note=35 velocity=127 time=0
EXTRACT: note_on channel=9 note=42 velocity=63 time=0
EXTRACT: note_on channel=9 note=51 velocity=63 time=0
EXTRACT: note_off channel=0 note=28 velocity=95 time=0.217391
EXTRACT: note_off channel=8 note=40 velocity=95 time=0
EXTRACT: note_on channel=8 note=40 velocity=95 time=0
EXTRACT: note_off channel=9 note=35 velocity=127 time=0
EXTRACT: note_off channel=9 note=42 velocity=63 time=0
EXTRACT: note_off channel=9 note=51 velocity=63 time=0
EXTRACT: note_on channel=9 note=42 velocity=31 time=0
EXTRACT: note_on channel=9 note=70 velocity=111 time=0
EXTRACT: note_off channel=8 note=40 velocity=95 time=0.1086955
EXTRACT: note_on channel=8 note=40 velocity=79 time=0
EXTRACT: note_off channel=8 note=40 velocity=79 time=0.1086955
EXTRACT: note_on channel=8 note=40 velocity=95 time=0
EXTRACT: note_off channel=9 note=42 velocity=31 time=0
EXTRACT: note_off channel=9 note=70 velocity=111 time=0
EXTRACT: note_on channel=9 note=39 velocity=95 time=0
EXTRACT: note_on channel=9 note=38 velocity=95 time=0
EXTRACT: note_on channel=9 note=41 velocity=111 time=0
EXTRACT: note_on channel=9 note=54 velocity=95 time=0
EXTRACT: note_on channel=9 note=42 velocity=79 time=0
EXTRACT: note_on channel=9 note=51 velocity=63 time=0
EXTRACT: note_on channel=0 note=28 velocity=95 time=0.217391
EXTRACT: note_off channel=8 note=40 velocity=95 time=0
EXTRACT: note_on channel=8 note=40 velocity=95 time=0
EXTRACT: note_off channel=9 note=39 velocity=95 time=0
EXTRACT: note_off channel=9 note=38 velocity=95 time=0
EXTRACT: note_off channel=9 note=41 velocity=111 time=0
EXTRACT: note_off channel=9 note=54 velocity=95 time=0
EXTRACT: note_off channel=9 note=42 velocity=79 time=0
EXTRACT: note_off channel=9 note=51 velocity=63 time=0
EXTRACT: note_on channel=9 note=42 velocity=31 time=0
EXTRACT: note_on channel=9 note=70 velocity=95 time=0
EXTRACT: note_off channel=8 note=40 velocity=95 time=0.1086955
EXTRACT: note_on channel=8 note=40 velocity=95 time=0
EXTRACT: note_off channel=0 note=28 velocity=95 time=0.1086955
EXTRACT: note_on channel=0 note=28 velocity=95 time=0
EXTRACT: note_off channel=8 note=40 velocity=95 time=0
EXTRACT: note_on channel=8 note=40 velocity=95 time=0
EXTRACT: note_off channel=9 note=42 velocity=31 time=0
EXTRACT: note_off channel=9 note=70 velocity=95 time=0
EXTRACT: note_on channel=9 note=35 velocity=127 time=0
EXTRACT: note_on channel=9 note=42 velocity=63 time=0
EXTRACT: note_on channel=9 note=51 velocity=63 time=0
EXTRACT: note_off channel=0 note=28 velocity=95 time=0.217391
EXTRACT: note_off channel=8 note=40 velocity=95 time=0
EXTRACT: note_on channel=8 note=40 velocity=95 time=0
EXTRACT: note_off channel=9 note=35 velocity=127 time=0
EXTRACT: note_off channel=9 note=42 velocity=63 time=0
EXTRACT: note_off channel=9 note=51 velocity=63 time=0
EXTRACT: note_on channel=9 note=42 velocity=31 time=0
EXTRACT: note_on channel=9 note=70 velocity=79 time=0
EXTRACT: note_off channel=8 note=40 velocity=95 time=0.1086955
EXTRACT: note_on channel=8 note=40 velocity=79 time=0
EXTRACT: note_on channel=0 note=28 velocity=95 time=0.1086955
EXTRACT: note_off channel=8 note=40 velocity=79 time=0
EXTRACT: note_on channel=8 note=40 velocity=95 time=0
EXTRACT: note_off channel=9 note=42 velocity=31 time=0
EXTRACT: note_off channel=9 note=70 velocity=79 time=0
EXTRACT: note_on channel=9 note=40 velocity=111 time=0
EXTRACT: note_on channel=9 note=42 velocity=79 time=0
EXTRACT: note_on channel=9 note=51 velocity=63 time=0
EXTRACT: note_off channel=0 note=28 velocity=95 time=0.217391
EXTRACT: note_off channel=8 note=40 velocity=95 time=0
EXTRACT: note_on channel=8 note=40 velocity=95 time=0
EXTRACT: note_off channel=9 note=40 velocity=111 time=0
EXTRACT: note_off channel=9 note=42 velocity=79 time=0
EXTRACT: note_off channel=9 note=51 velocity=63 time=0
EXTRACT: note_on channel=9 note=42 velocity=31 time=0
EXTRACT: note_on channel=9 note=70 velocity=63 time=0
EXTRACT: note_off channel=8 note=40 velocity=95 time=0.1086955
EXTRACT: note_on channel=8 note=40 velocity=79 time=0
EXTRACT: note_off channel=8 note=40 velocity=79 time=0.1086955
EXTRACT: note_on channel=8 note=40 velocity=95 time=0
EXTRACT: note_on channel=6 note=59 velocity=111 time=0
EXTRACT: note_off channel=9 note=42 velocity=31 time=0
EXTRACT: note_off channel=9 note=70 velocity=63 time=0
EXTRACT: note_on channel=9 note=42 velocity=63 time=0
EXTRACT: note_on channel=9 note=51 velocity=63 time=0
EXTRACT: note_off channel=8 note=40 velocity=95 time=0.1086955
EXTRACT: note_on channel=8 note=40 velocity=79 time=0
EXTRACT: note_off channel=8 note=40 velocity=79 time=0.1086955
EXTRACT: note_on channel=8 note=40 velocity=95 time=0
EXTRACT: note_off channel=9 note=42 velocity=63 time=0
EXTRACT: note_off channel=9 note=51 velocity=63 time=0
EXTRACT: note_on channel=9 note=35 velocity=127 time=0
EXTRACT: note_on channel=9 note=42 velocity=31 time=0
EXTRACT: note_off channel=8 note=40 velocity=95 time=0.1086955
EXTRACT: note_on channel=8 note=40 velocity=95 time=0
EXTRACT: note_off channel=8 note=40 velocity=95 time=0.1086955
EXTRACT: note_on channel=8 note=40 velocity=95 time=0
EXTRACT: note_off channel=9 note=35 velocity=127 time=0
EXTRACT: note_off channel=9 note=42 velocity=31 time=0
EXTRACT: note_on channel=9 note=54 velocity=95 time=0
EXTRACT: note_on channel=9 note=39 velocity=95 time=0
EXTRACT: note_on channel=9 note=41 velocity=111 time=0
EXTRACT: note_on channel=9 note=38 velocity=95 time=0
EXTRACT: note_on channel=9 note=42 velocity=79 time=0
EXTRACT: note_on channel=9 note=51 velocity=63 time=0
EXTRACT: note_off channel=8 note=40 velocity=95 time=0.217391
EXTRACT: note_on channel=8 note=40 velocity=95 time=0
EXTRACT: note_off channel=9 note=54 velocity=95 time=0
EXTRACT: note_off channel=9 note=39 velocity=95 time=0
EXTRACT: note_off channel=9 note=41 velocity=111 time=0
EXTRACT: note_off channel=9 note=38 velocity=95 time=0
EXTRACT: note_off channel=9 note=42 velocity=79 time=0
EXTRACT: note_off channel=9 note=51 velocity=63 time=0
EXTRACT: note_on channel=9 note=42 velocity=31 time=0
EXTRACT: note_off channel=8 note=40 velocity=95 time=0.1086955
EXTRACT: note_on channel=8 note=40 velocity=79 time=0
EXTRACT: note_off channel=8 note=40 velocity=79 time=0.1086955
EXTRACT: note_on channel=8 note=40 velocity=95 time=0
EXTRACT: note_off channel=6 note=59 velocity=111 time=0
EXTRACT: note_on channel=6 note=61 velocity=111 time=0
EXTRACT: note_off channel=9 note=42 velocity=31 time=0
EXTRACT: note_on channel=9 note=42 velocity=79 time=0
EXTRACT: note_on channel=9 note=51 velocity=63 time=0
EXTRACT: note_on channel=9 note=35 velocity=127 time=0
EXTRACT: note_on channel=0 note=28 velocity=79 time=0.217391
EXTRACT: note_off channel=8 note=40 velocity=95 time=0
EXTRACT: note_on channel=8 note=40 velocity=95 time=0
EXTRACT: note_off channel=9 note=42 velocity=79 time=0
EXTRACT: note_off channel=9 note=51 velocity=63 time=0
EXTRACT: note_off channel=9 note=35 velocity=127 time=0
EXTRACT: note_on channel=9 note=42 velocity=47 time=0
EXTRACT: note_on channel=9 note=82 velocity=79 time=0
EXTRACT: note_off channel=8 note=40 velocity=95 time=0.1086955
EXTRACT: note_on channel=8 note=40 velocity=95 time=0
EXTRACT: note_off channel=0 note=28 velocity=79 time=0.1086955
EXTRACT: note_on channel=0 note=28 velocity=95 time=0
EXTRACT: note_off channel=8 note=40 velocity=95 time=0
EXTRACT: note_on channel=8 note=40 velocity=95 time=0
EXTRACT: note_off channel=9 note=42 velocity=47 time=0
EXTRACT: note_off channel=9 note=82 velocity=79 time=0
EXTRACT: note_on channel=9 note=42 velocity=79 time=0
EXTRACT: note_on channel=9 note=51 velocity=63 time=0
EXTRACT: note_on channel=9 note=82 velocity=79 time=0
EXTRACT: note_on channel=9 note=40 velocity=111 time=0
EXTRACT: note_off channel=0 note=28 velocity=95 time=0.217391
EXTRACT: note_off channel=8 note=40 velocity=95 time=0
EXTRACT: note_on channel=8 note=40 velocity=95 time=0
EXTRACT: note_off channel=9 note=42 velocity=79 time=0
EXTRACT: note_off channel=9 note=51 velocity=63 time=0
EXTRACT: note_off channel=9 note=82 velocity=79 time=0
EXTRACT: note_off channel=9 note=40 velocity=111 time=0
EXTRACT: note_on channel=9 note=42 velocity=47 time=0
EXTRACT: note_off channel=8 note=40 velocity=95 time=0.1086955
EXTRACT: note_on channel=8 note=40 velocity=95 time=0
EXTRACT: note_on channel=0 note=28 velocity=95 time=0.1086955
EXTRACT: note_off channel=8 note=40 velocity=95 time=0
EXTRACT: note_on channel=8 note=40 velocity=95 time=0
EXTRACT: note_off channel=9 note=42 velocity=47 time=0
EXTRACT: note_on channel=9 note=35 velocity=127 time=0
EXTRACT: note_on channel=9 note=42 velocity=79 time=0
EXTRACT: note_on channel=9 note=51 velocity=63 time=0
EXTRACT: note_off channel=0 note=28 velocity=95 time=0.217391
EXTRACT: note_off channel=8 note=40 velocity=95 time=0
EXTRACT: note_on channel=8 note=40 velocity=95 time=0
EXTRACT: note_off channel=9 note=35 velocity=127 time=0
EXTRACT: note_off channel=9 note=42 velocity=79 time=0
EXTRACT: note_off channel=9 note=51 velocity=63 time=0
EXTRACT: note_on channel=9 note=82 velocity=63 time=0
EXTRACT: note_on channel=9 note=42 velocity=47 time=0
EXTRACT: note_off channel=8 note=40 velocity=95 time=0.1086955
EXTRACT: note_on channel=8 note=40 velocity=95 time=0
EXTRACT: note_off channel=8 note=40 velocity=95 time=0.1086955
EXTRACT: note_on channel=8 note=40 velocity=95 time=0
EXTRACT: note_off channel=9 note=82 velocity=63 time=0
EXTRACT: note_off channel=9 note=42 velocity=47 time=0
EXTRACT: note_on channel=9 note=38 velocity=111 time=0
EXTRACT: note_on channel=9 note=54 velocity=111 time=0
EXTRACT: note_on channel=9 note=82 velocity=63 time=0
EXTRACT: note_on channel=9 note=41 velocity=111 time=0
EXTRACT: note_on channel=9 note=39 velocity=95 time=0
EXTRACT: note_on channel=9 note=42 velocity=79 time=0
EXTRACT: note_off channel=8 note=40 velocity=95 time=0.1086955
EXTRACT: note_on channel=8 note=40 velocity=79 time=0
EXTRACT: note_on channel=0 note=28 velocity=95 time=0.1086955
EXTRACT: note_off channel=8 note=40 velocity=79 time=0
EXTRACT: note_on channel=8 note=40 velocity=95 time=0
EXTRACT: note_off channel=9 note=38 velocity=111 time=0
EXTRACT: note_off channel=9 note=54 velocity=111 time=0
EXTRACT: note_off channel=9 note=82 velocity=63 time=0
EXTRACT: note_off channel=9 note=41 velocity=111 time=0
EXTRACT: note_off channel=9 note=39 velocity=95 time=0
EXTRACT: note_off channel=9 note=42 velocity=79 time=0
EXTRACT: note_on channel=9 note=42 velocity=47 time=0
EXTRACT: note_on channel=9 note=82 velocity=63 time=0
EXTRACT: note_off channel=8 note=40 velocity=95 time=0.1086955
EXTRACT: note_on channel=8 note=40 velocity=95 time=0
EXTRACT: note_off channel=0 note=28 velocity=95 time=0.1086955
EXTRACT: note_on channel=0 note=28 velocity=95 time=0
EXTRACT: note_off channel=8 note=40 velocity=95 time=0
EXTRACT: note_on channel=8 note=40 velocity=95 time=0
EXTRACT: note_off channel=6 note=61 velocity=111 time=0
EXTRACT: note_off channel=9 note=42 velocity=47 time=0
EXTRACT: note_off channel=9 note=82 velocity=63 time=0
EXTRACT: note_on channel=9 note=35 velocity=127 time=0
EXTRACT: note_on channel=9 note=42 velocity=79 time=0
EXTRACT: note_on channel=9 note=51 velocity=63 time=0
EXTRACT: note_on channel=9 note=82 velocity=79 time=0
EXTRACT: note_off channel=8 note=40 velocity=95 time=0.1086955
EXTRACT: note_on channel=8 note=40 velocity=95 time=0
EXTRACT: note_off channel=0 note=28 velocity=95 time=0.1086955
EXTRACT: note_off channel=8 note=40 velocity=95 time=0
EXTRACT: note_on channel=8 note=40 velocity=95 time=0
EXTRACT: note_off channel=9 note=35 velocity=127 time=0
EXTRACT: note_off channel=9 note=42 velocity=79 time=0
EXTRACT: note_off channel=9 note=51 velocity=63 time=0
EXTRACT: note_off channel=9 note=82 velocity=79 time=0
EXTRACT: note_on channel=9 note=42 velocity=47 time=0
EXTRACT: note_off channel=8 note=40 velocity=95 time=0.1086955
EXTRACT: note_on channel=8 note=40 velocity=79 time=0
EXTRACT: note_on channel=0 note=28 velocity=95 time=0.1086955
EXTRACT: note_off channel=8 note=40 velocity=79 time=0
EXTRACT: note_on channel=8 note=40 velocity=95 time=0
EXTRACT: note_off channel=9 note=42 velocity=47 time=0
EXTRACT: note_on channel=9 note=40 velocity=111 time=0
EXTRACT: note_on channel=9 note=42 velocity=79 time=0
EXTRACT: note_on channel=9 note=51 velocity=63 time=0
EXTRACT: note_off channel=0 note=28 velocity=95 time=0.217391
EXTRACT: note_off channel=8 note=40 velocity=95 time=0
EXTRACT: note_on channel=8 note=40 velocity=95 time=0
EXTRACT: note_off channel=9 note=40 velocity=111 time=0
EXTRACT: note_off channel=9 note=42 velocity=79 time=0
EXTRACT: note_off channel=9 note=51 velocity=63 time=0
EXTRACT: note_on channel=9 note=42 velocity=47 time=0
EXTRACT: note_on channel=9 note=82 velocity=63 time=0
EXTRACT: note_off channel=8 note=40 velocity=95 time=0.1086955
EXTRACT: note_on channel=8 note=40 velocity=79 time=0
EXTRACT: note_on channel=2 note=67 velocity=127 time=0.1086955
EXTRACT: note_off channel=8 note=40 velocity=79 time=0
EXTRACT: note_on channel=8 note=40 velocity=95 time=0
EXTRACT: note_off channel=9 note=42 velocity=47 time=0
EXTRACT: note_off channel=9 note=82 velocity=63 time=0
EXTRACT: note_on channel=9 note=82 velocity=63 time=0
EXTRACT: note_on channel=9 note=42 velocity=95 time=0
EXTRACT: note_on channel=9 note=51 velocity=79 time=0
EXTRACT: note_off channel=2 note=67 velocity=127 time=0.217391
EXTRACT: note_on channel=2 note=64 velocity=111 time=0
EXTRACT: note_off channel=8 note=40 velocity=95 time=0
EXTRACT: note_on channel=8 note=40 velocity=95 time=0
EXTRACT: note_off channel=9 note=82 velocity=63 time=0
EXTRACT: note_off channel=9 note=42 velocity=95 time=0
EXTRACT: note_off channel=9 note=51 velocity=79 time=0
EXTRACT: note_on channel=9 note=35 velocity=127 time=0
EXTRACT: note_on channel=9 note=42 velocity=47 time=0
EXTRACT: note_off channel=8 note=40 velocity=95 time=0.1086955
EXTRACT: note_on channel=8 note=40 velocity=95 time=0
EXTRACT: note_off channel=2 note=64 velocity=111 time=0.1086955
EXTRACT: note_on channel=2 note=67 velocity=95 time=0
EXTRACT: note_off channel=8 note=40 velocity=95 time=0
EXTRACT: note_on channel=8 note=40 velocity=95 time=0
EXTRACT: note_off channel=9 note=35 velocity=127 time=0
EXTRACT: note_off channel=9 note=42 velocity=47 time=0
EXTRACT: note_on channel=9 note=39 velocity=111 time=0
EXTRACT: note_on channel=9 note=41 velocity=111 time=0
EXTRACT: note_on channel=9 note=38 velocity=111 time=0
EXTRACT: note_on channel=9 note=54 velocity=127 time=0
EXTRACT: note_on channel=9 note=42 velocity=95 time=0
EXTRACT: note_on channel=9 note=51 velocity=79 time=0
EXTRACT: note_off channel=2 note=67 velocity=95 time=0.217391
EXTRACT: note_on channel=2 note=64 velocity=95 time=0
EXTRACT: note_off channel=8 note=40 velocity=95 time=0
EXTRACT: note_on channel=8 note=40 velocity=95 time=0
EXTRACT: note_off channel=9 note=39 velocity=111 time=0
EXTRACT: note_off channel=9 note=41 velocity=111 time=0
EXTRACT: note_off channel=9 note=38 velocity=111 time=0
EXTRACT: note_off channel=9 note=54 velocity=127 time=0
EXTRACT: note_off channel=9 note=42 velocity=95 time=0
EXTRACT: note_off channel=9 note=51 velocity=79 time=0
EXTRACT: note_on channel=9 note=42 velocity=47 time=0
EXTRACT: note_off channel=8 note=40 velocity=95 time=0.1086955
EXTRACT: note_on channel=8 note=40 velocity=95 time=0
EXTRACT: note_off channel=2 note=64 velocity=95 time=0.1086955
EXTRACT: note_on channel=2 note=67 velocity=79 time=0
EXTRACT: note_off channel=8 note=40 velocity=95 time=0
EXTRACT: note_on channel=8 note=40 velocity=95 time=0
EXTRACT: note_off channel=9 note=42 velocity=47 time=0
EXTRACT: note_on channel=9 note=35 velocity=127 time=0
EXTRACT: note_on channel=9 note=42 velocity=79 time=0
EXTRACT: note_on channel=9 note=51 velocity=63 time=0
EXTRACT: note_off channel=2 note=67 velocity=79 time=0.217391
EXTRACT: note_on channel=2 note=64 velocity=63 time=0
EXTRACT: note_on channel=0 note=28 velocity=95 time=0
EXTRACT: note_off channel=8 note=40 velocity=95 time=0
EXTRACT: note_on channel=8 note=40 velocity=95 time=0
EXTRACT: note_off channel=9 note=35 velocity=127 time=0
EXTRACT: note_off channel=9 note=42 velocity=79 time=0
EXTRACT: note_off channel=9 note=51 velocity=63 time=0
EXTRACT: note_on channel=9 note=42 velocity=47 time=0
EXTRACT: note_on channel=9 note=82 velocity=63 time=0
EXTRACT: note_off channel=8 note=40 velocity=95 time=0.1086955
EXTRACT: note_on channel=8 note=40 velocity=79 time=0
EXTRACT: note_off channel=2 note=64 velocity=63 time=0.1086955
EXTRACT: note_on channel=2 note=67 velocity=63 time=0
EXTRACT: note_off channel=0 note=28 velocity=95 time=0
EXTRACT: note_on channel=0 note=28 velocity=95 time=0
EXTRACT: note_off channel=8 note=40 velocity=79 time=0
EXTRACT: note_on channel=8 note=40 velocity=95 time=0
EXTRACT: note_off channel=9 note=42 velocity=47 time=0
EXTRACT: note_off channel=9 note=82 velocity=63 time=0
EXTRACT: note_on channel=9 note=42 velocity=95 time=0
EXTRACT: note_on channel=9 note=51 velocity=79 time=0
EXTRACT: note_on channel=9 note=40 velocity=111 time=0
EXTRACT: note_on channel=9 note=82 velocity=79 time=0
EXTRACT: note_off channel=2 note=67 velocity=63 time=0.217391
EXTRACT: note_on channel=2 note=64 velocity=47 time=0
EXTRACT: note_off channel=0 note=28 velocity=95 time=0
EXTRACT: note_off channel=8 note=40 velocity=95 time=0
EXTRACT: note_on channel=8 note=40 velocity=95 time=0
EXTRACT: note_off channel=9 note=42 velocity=95 time=0
EXTRACT: note_off channel=9 note=51 velocity=79 time=0
EXTRACT: note_off channel=9 note=40 velocity=111 time=0
EXTRACT: note_off channel=9 note=82 velocity=79 time=0
EXTRACT: note_on channel=9 note=42 velocity=47 time=0
EXTRACT: note_off channel=8 note=40 velocity=95 time=0.1086955
EXTRACT: note_on channel=8 note=40 velocity=79 time=0
EXTRACT: note_off channel=2 note=64 velocity=47 time=0.1086955
EXTRACT: note_on channel=0 note=28 velocity=95 time=0
EXTRACT: note_off channel=8 note=40 velocity=79 time=0
EXTRACT: note_on channel=8 note=40 velocity=95 time=0
EXTRACT: note_off channel=9 note=42 velocity=47 time=0
EXTRACT: note_on channel=9 note=35 velocity=127 time=0
EXTRACT: note_on channel=9 note=42 velocity=79 time=0
EXTRACT: note_on channel=9 note=51 velocity=63 time=0
EXTRACT: note_off channel=0 note=28 velocity=95 time=0.217391
EXTRACT: note_off channel=8 note=40 velocity=95 time=0
EXTRACT: note_on channel=8 note=40 velocity=95 time=0
EXTRACT: note_off channel=9 note=35 velocity=127 time=0
EXTRACT: note_off channel=9 note=42 velocity=79 time=0
EXTRACT: note_off channel=9 note=51 velocity=63 time=0
EXTRACT: note_on channel=9 note=42 velocity=47 time=0
EXTRACT: note_on channel=9 note=82 velocity=63 time=0
EXTRACT: note_off channel=8 note=40 velocity=95 time=0.1086955
EXTRACT: note_on channel=8 note=40 velocity=79 time=0
EXTRACT: note_off channel=8 note=40 velocity=79 time=0.1086955
EXTRACT: note_on channel=8 note=40 velocity=95 time=0
EXTRACT: note_off channel=9 note=42 velocity=47 time=0
EXTRACT: note_off channel=9 note=82 velocity=63 time=0
EXTRACT: note_on channel=9 note=82 velocity=63 time=0
EXTRACT: note_on channel=9 note=39 velocity=95 time=0
EXTRACT: note_on channel=9 note=38 velocity=95 time=0
EXTRACT: note_on channel=9 note=41 velocity=111 time=0
EXTRACT: note_on channel=9 note=54 velocity=127 time=0
EXTRACT: note_on channel=9 note=42 velocity=95 time=0
EXTRACT: note_off channel=8 note=40 velocity=95 time=0.1086955
EXTRACT: note_on channel=8 note=40 velocity=63 time=0
EXTRACT: note_on channel=0 note=28 velocity=95 time=0.1086955
EXTRACT: note_off channel=8 note=40 velocity=63 time=0
EXTRACT: note_on channel=8 note=40 velocity=95 time=0
EXTRACT: note_off channel=9 note=82 velocity=63 time=0
EXTRACT: note_off channel=9 note=39 velocity=95 time=0
EXTRACT: note_off channel=9 note=38 velocity=95 time=0
EXTRACT: note_off channel=9 note=41 velocity=111 time=0
EXTRACT: note_off channel=9 note=54 velocity=127 time=0
EXTRACT: note_off channel=9 note=42 velocity=95 time=0
EXTRACT: note_on channel=9 note=82 velocity=63 time=0
EXTRACT: note_on channel=9 note=42 velocity=47 time=0
EXTRACT: note_off channel=8 note=40 velocity=95 time=0.1086955
EXTRACT: note_on channel=8 note=40 velocity=95 time=0
EXTRACT: note_on channel=2 note=67 velocity=127 time=0.1086955
EXTRACT: note_off channel=0 note=28 velocity=95 time=0
EXTRACT: note_on channel=0 note=28 velocity=95 time=0
EXTRACT: note_off channel=8 note=40 velocity=95 time=0
EXTRACT: note_on channel=8 note=40 velocity=95 time=0
EXTRACT: note_off channel=9 note=82 velocity=63 time=0
EXTRACT: note_off channel=9 note=42 velocity=47 time=0
EXTRACT: note_on channel=9 note=82 velocity=63 time=0
EXTRACT: note_on channel=9 note=35 velocity=127 time=0
EXTRACT: note_on channel=9 note=42 velocity=95 time=0
EXTRACT: note_on channel=9 note=51 velocity=79 time=0
EXTRACT: note_off channel=2 note=67 velocity=127 time=0.217391
EXTRACT: note_on channel=2 note=64 velocity=111 time=0
EXTRACT: note_off channel=0 note=28 velocity=95 time=0
EXTRACT: note_off channel=8 note=40 velocity=95 time=0
EXTRACT: note_on channel=8 note=40 velocity=95 time=0
EXTRACT: note_off channel=9 note=82 velocity=63 time=0
EXTRACT: note_off channel=9 note=35 velocity=127 time=0
EXTRACT: note_off channel=9 note=42 velocity=95 time=0
EXTRACT: note_off channel=9 note=51 velocity=79 time=0
EXTRACT: note_on channel=9 note=42 velocity=47 time=0
EXTRACT: note_off channel=8 note=40 velocity=95 time=0.1086955
EXTRACT: note_on channel=8 note=40 velocity=95 time=0
EXTRACT: note_off channel=2 note=64 velocity=111 time=0.1086955
EXTRACT: note_on channel=2 note=67 velocity=95 time=0
EXTRACT: note_on channel=0 note=28 velocity=95 time=0
EXTRACT: note_off channel=8 note=40 velocity=95 time=0
EXTRACT: note_on channel=8 note=40 velocity=95 time=0
EXTRACT: note_off channel=9 note=42 velocity=47 time=0
EXTRACT: note_on channel=9 note=42 velocity=95 time=0
EXTRACT: note_on channel=9 note=51 velocity=79 time=0
EXTRACT: note_on channel=9 note=40 velocity=111 time=0
EXTRACT: note_off channel=2 note=67 velocity=95 time=0.217391
EXTRACT: note_on channel=2 note=64 velocity=95 time=0
EXTRACT: note_off channel=0 note=28 velocity=95 time=0
EXTRACT: note_off channel=8 note=40 velocity=95 time=0
EXTRACT: note_on channel=8 note=40 velocity=95 time=0
EXTRACT: note_off channel=9 note=42 velocity=95 time=0
EXTRACT: note_off channel=9 note=51 velocity=79 time=0
EXTRACT: note_off channel=9 note=40 velocity=111 time=0
EXTRACT: note_on channel=9 note=42 velocity=47 time=0
EXTRACT: note_on channel=9 note=82 velocity=63 time=0
EXTRACT: note_off channel=8 note=40 velocity=95 time=0.1086955
EXTRACT: note_on channel=8 note=40 velocity=95 time=0
EXTRACT: note_off channel=2 note=64 velocity=95 time=0.1086955
EXTRACT: note_off channel=8 note=40 velocity=95 time=0
EXTRACT: note_on channel=8 note=40 velocity=95 time=0
EXTRACT: note_on channel=6 note=59 velocity=111 time=0
EXTRACT: note_off channel=9 note=42 velocity=47 time=0
EXTRACT: note_off channel=9 note=82 velocity=63 time=0
EXTRACT: note_on channel=9 note=42 velocity=79 time=0
EXTRACT: note_on channel=9 note=51 velocity=63 time=0
EXTRACT: note_on channel=9 note=82 velocity=63 time=0
EXTRACT: note_off channel=8 note=40 velocity=95 time=0.1086955
EXTRACT: note_on channel=8 note=40 velocity=79 time=0
EXTRACT: note_off channel=8 note=40 velocity=79 time=0.1086955
EXTRACT: note_on channel=8 note=40 velocity=95 time=0
EXTRACT: note_off channel=9 note=42 velocity=79 time=0
EXTRACT: note_off channel=9 note=51 velocity=63 time=0
EXTRACT: note_off channel=9 note=82 velocity=63 time=0
EXTRACT: note_on channel=9 note=35 velocity=127 time=0
EXTRACT: note_on channel=9 note=42 velocity=47 time=0
EXTRACT: note_off channel=8 note=40 velocity=95 time=0.1086955
EXTRACT: note_on channel=8 note=40 velocity=95 time=0
EXTRACT: note_off channel=8 note=40 velocity=95 time=0.1086955
EXTRACT: note_on channel=8 note=40 velocity=95 time=0
EXTRACT: note_off channel=9 note=35 velocity=127 time=0
EXTRACT: note_off channel=9 note=42 velocity=47 time=0
EXTRACT: note_on channel=9 note=42 velocity=95 time=0
EXTRACT: note_on channel=9 note=51 velocity=79 time=0
EXTRACT: note_on channel=9 note=38 velocity=111 time=0
EXTRACT: note_on channel=9 note=39 velocity=95 time=0
EXTRACT: note_on channel=9 note=54 velocity=111 time=0
EXTRACT: note_on channel=9 note=41 velocity=111 time=0
EXTRACT: note_off channel=8 note=40 velocity=95 time=0.217391
EXTRACT: note_on channel=8 note=40 velocity=95 time=0
EXTRACT: note_off channel=9 note=42 velocity=95 time=0
EXTRACT: note_off channel=9 note=51 velocity=79 time=0
EXTRACT: note_off channel=9 note=38 velocity=111 time=0
EXTRACT: note_off channel=9 note=39 velocity=95 time=0
EXTRACT: note_off channel=9 note=54 velocity=111 time=0
EXTRACT: note_off channel=9 note=41 velocity=111 time=0
EXTRACT: note_on channel=9 note=42 velocity=47 time=0
EXTRACT: note_off channel=8 note=40 velocity=95 time=0.1086955
EXTRACT: note_on channel=8 note=40 velocity=95 time=0
EXTRACT: note_off channel=8 note=40 velocity=95 time=0.1086955
EXTRACT: note_on channel=8 note=40 velocity=95 time=0
EXTRACT: note_off channel=6 note=59 velocity=111 time=0
EXTRACT: note_on channel=6 note=61 velocity=95 time=0
EXTRACT: note_off channel=9 note=42 velocity=47 time=0
EXTRACT: note_on channel=9 note=42 velocity=79 time=0
EXTRACT: note_on channel=9 note=51 velocity=63 time=0
EXTRACT: note_on channel=9 note=35 velocity=127 time=0
EXTRACT: note_on channel=0 note=28 velocity=79 time=0.217391
EXTRACT: note_off channel=8 note=40 velocity=95 time=0
EXTRACT: note_on channel=8 note=40 velocity=95 time=0
EXTRACT: note_off channel=9 note=42 velocity=79 time=0
EXTRACT: note_off channel=9 note=51 velocity=63 time=0
EXTRACT: note_off channel=9 note=35 velocity=127 time=0
EXTRACT: note_on channel=9 note=42 velocity=47 time=0
EXTRACT: note_off channel=8 note=40 velocity=95 time=0.1086955
EXTRACT: note_on channel=8 note=40 velocity=79 time=0
EXTRACT: note_off channel=0 note=28 velocity=79 time=0.1086955
EXTRACT: note_on channel=0 note=28 velocity=95 time=0
EXTRACT: note_off channel=8 note=40 velocity=79 time=0
EXTRACT: note_on channel=8 note=40 velocity=95 time=0
EXTRACT: note_off channel=9 note=42 velocity=47 time=0
EXTRACT: note_on channel=9 note=40 velocity=111 time=0
EXTRACT: note_on channel=9 note=42 velocity=95 time=0
EXTRACT: note_on channel=9 note=51 velocity=79 time=0
EXTRACT: note_off channel=0 note=28 velocity=95 time=0.217391
EXTRACT: note_off channel=8 note=40 velocity=95 time=0
EXTRACT: note_on channel=8 note=40 velocity=95 time=0
EXTRACT: note_off channel=9 note=40 velocity=111 time=0
EXTRACT: note_off channel=9 note=42 velocity=95 time=0
EXTRACT: note_off channel=9 note=51 velocity=79 time=0
EXTRACT: note_on channel=9 note=42 velocity=47 time=0
EXTRACT: note_off channel=8 note=40 velocity=95 time=0.1086955
EXTRACT: note_on channel=8 note=40 velocity=79 time=0
EXTRACT: note_on channel=0 note=28 velocity=95 time=0.1086955
EXTRACT: note_off channel=8 note=40 velocity=79 time=0
EXTRACT: note_on channel=8 note=40 velocity=95 time=0
EXTRACT: note_off channel=9 note=42 velocity=47 time=0
EXTRACT: note_on channel=9 note=42 velocity=79 time=0
EXTRACT: note_on channel=9 note=51 velocity=63 time=0
EXTRACT: note_on channel=9 note=35 velocity=127 time=0
EXTRACT: note_off channel=8 note=40 velocity=95 time=0.1086955
EXTRACT: note_on channel=8 note=40 velocity=63 time=0
EXTRACT: note_off channel=0 note=28 velocity=95 time=0.1086955
EXTRACT: note_off channel=8 note=40 velocity=63 time=0
EXTRACT: note_on channel=8 note=40 velocity=95 time=0
EXTRACT: note_off channel=9 note=42 velocity=79 time=0
EXTRACT: note_off channel=9 note=51 velocity=63 time=0
EXTRACT: note_off channel=9 note=35 velocity=127 time=0
EXTRACT: note_on channel=9 note=42 velocity=47 time=0
EXTRACT: note_off channel=8 note=40 velocity=95 time=0.1086955
EXTRACT: note_on channel=8 note=40 velocity=95 time=0
EXTRACT: note_off channel=8 note=40 velocity=95 time=0.1086955
EXTRACT: note_on channel=8 note=40 velocity=95 time=0
EXTRACT: note_off channel=9 note=42 velocity=47 time=0
EXTRACT: note_on channel=9 note=38 velocity=111 time=0
EXTRACT: note_on channel=9 note=39 velocity=95 time=0
EXTRACT: note_on channel=9 note=41 velocity=111 time=0
EXTRACT: note_on channel=9 note=54 velocity=95 time=0
EXTRACT: note_on channel=9 note=42 velocity=95 time=0
EXTRACT: note_on channel=9 note=51 velocity=79 time=0
EXTRACT: note_on channel=0 note=28 velocity=95 time=0.217391
EXTRACT: note_off channel=8 note=40 velocity=95 time=0
EXTRACT: note_on channel=8 note=40 velocity=95 time=0
EXTRACT: note_off channel=9 note=38 velocity=111 time=0
EXTRACT: note_off channel=9 note=39 velocity=95 time=0
EXTRACT: note_off channel=9 note=41 velocity=111 time=0
EXTRACT: note_off channel=9 note=54 velocity=95 time=0
EXTRACT: note_off channel=9 note=42 velocity=95 time=0
EXTRACT: note_off channel=9 note=51 velocity=79 time=0
EXTRACT: note_on channel=9 note=42 velocity=31 time=0
EXTRACT: note_off channel=8 note=40 velocity=95 time=0.1086955
EXTRACT: note_on channel=8 note=40 velocity=79 time=0
EXTRACT: note_off channel=0 note=28 velocity=95 time=0.1086955
EXTRACT: note_on channel=0 note=28 velocity=95 time=0
EXTRACT: note_off channel=8 note=40 velocity=79 time=0
EXTRACT: note_on channel=8 note=40 velocity=95 time=0
EXTRACT: note_off channel=6 note=61 velocity=95 time=0
EXTRACT: note_off channel=9 note=42 velocity=31 time=0
EXTRACT: note_on channel=9 note=35 velocity=127 time=0
EXTRACT: note_on channel=9 note=42 velocity=95 time=0
EXTRACT: note_on channel=9 note=51 velocity=79 time=0
EXTRACT: note_off channel=0 note=28 velocity=95 time=0.217391
EXTRACT: note_off channel=8 note=40 velocity=95 time=0
EXTRACT: note_on channel=8 note=40 velocity=95 time=0
EXTRACT: note_off channel=9 note=35 velocity=127 time=0
EXTRACT: note_off channel=9 note=42 velocity=95 time=0
EXTRACT: note_off channel=9 note=51 velocity=79 time=0
EXTRACT: note_on channel=9 note=42 velocity=47 time=0
EXTRACT: note_off channel=8 note=40 velocity=95 time=0.1086955
EXTRACT: note_on channel=8 note=40 velocity=79 time=0
EXTRACT: note_on channel=0 note=28 velocity=95 time=0.1086955
EXTRACT: note_off channel=8 note=40 velocity=79 time=0
EXTRACT: note_on channel=8 note=40 velocity=95 time=0
EXTRACT: note_off channel=9 note=42 velocity=47 time=0
EXTRACT: note_on channel=9 note=40 velocity=111 time=0
EXTRACT: note_on channel=9 note=42 velocity=95 time=0
EXTRACT: note_on channel=9 note=51 velocity=79 time=0
EXTRACT: note_off channel=8 note=40 velocity=95 time=0.1086955
EXTRACT: note_on channel=8 note=40 velocity=63 time=0
EXTRACT: note_off channel=0 note=28 velocity=95 time=0.1086955
EXTRACT: note_off channel=8 note=40 velocity=63 time=0
EXTRACT: note_on channel=8 note=40 velocity=95 time=0
EXTRACT: note_off channel=9 note=40 velocity=111 time=0
EXTRACT: note_off channel=9 note=42 velocity=95 time=0
EXTRACT: note_off channel=9 note=51 velocity=79 time=0
EXTRACT: note_on channel=9 note=42 velocity=47 time=0
EXTRACT: note_off channel=8 note=40 velocity=95 time=0.1086955
EXTRACT: note_on channel=8 note=40 velocity=95 time=0
EXTRACT: note_off channel=8 note=40 velocity=95 time=0.1086955
EXTRACT: note_on channel=8 note=40 velocity=95 time=0
EXTRACT: note_off channel=9 note=42 velocity=47 time=0
EXTRACT: note_on channel=9 note=42 velocity=79 time=0
EXTRACT: note_on channel=9 note=51 velocity=63 time=0
EXTRACT: note_off channel=8 note=40 velocity=95 time=0.1086955
EXTRACT: note_on channel=8 note=40 velocity=79 time=0
EXTRACT: note_off channel=8 note=40 velocity=79 time=0.1086955
EXTRACT: note_on channel=8 note=40 velocity=95 time=0
EXTRACT: note_off channel=9 note=42 velocity=79 time=0
EXTRACT: note_off channel=9 note=51 velocity=63 time=0
EXTRACT: note_on channel=9 note=35 velocity=127 time=0
EXTRACT: note_on channel=9 note=42 velocity=47 time=0
EXTRACT: note_off channel=8 note=40 velocity=95 time=0.1086955
EXTRACT: note_on channel=8 note=40 velocity=95 time=0
EXTRACT: note_off channel=8 note=40 velocity=95 time=0.1086955
EXTRACT: note_on channel=8 note=40 velocity=95 time=0
EXTRACT: note_off channel=9 note=35 velocity=127 time=0
EXTRACT: note_off channel=9 note=42 velocity=47 time=0
EXTRACT: note_on channel=9 note=38 velocity=111 time=0
EXTRACT: note_on channel=9 note=39 velocity=111 time=0
EXTRACT: note_on channel=9 note=54 velocity=95 time=0
EXTRACT: note_on channel=9 note=41 velocity=111 time=0
EXTRACT: note_on channel=9 note=42 velocity=95 time=0
EXTRACT: note_on channel=9 note=51 velocity=79 time=0
EXTRACT: note_off channel=8 note=40 velocity=95 time=0.1086955
EXTRACT: note_on channel=8 note=40 velocity=79 time=0
EXTRACT: note_off channel=8 note=40 velocity=79 time=0.1086955
EXTRACT: note_on channel=8 note=40 velocity=95 time=0
EXTRACT: note_off channel=9 note=38 velocity=111 time=0
EXTRACT: note_off channel=9 note=39 velocity=111 time=0
EXTRACT: note_off channel=9 note=54 velocity=95 time=0
EXTRACT: note_off channel=9 note=41 velocity=111 time=0
EXTRACT: note_off channel=9 note=42 velocity=95 time=0
EXTRACT: note_off channel=9 note=51 velocity=79 time=0
EXTRACT: note_on channel=9 note=42 velocity=47 time=0
EXTRACT: note_off channel=8 note=40 velocity=95 time=0.1086955
EXTRACT: note_on channel=8 note=40 velocity=95 time=0
EXTRACT: note_off channel=8 note=40 velocity=95 time=0.1086955
EXTRACT: note_on channel=8 note=40 velocity=95 time=0
EXTRACT: note_off channel=9 note=42 velocity=47 time=0
EXTRACT: note_on channel=9 note=42 velocity=95 time=0
EXTRACT: note_on channel=9 note=51 velocity=79 time=0
EXTRACT: note_on channel=9 note=35 velocity=127 time=0
EXTRACT: note_on channel=0 note=28 velocity=95 time=0.217391
EXTRACT: note_off channel=8 note=40 velocity=95 time=0
EXTRACT: note_on channel=8 note=40 velocity=95 time=0
EXTRACT: note_off channel=9 note=42 velocity=95 time=0
EXTRACT: note_off channel=9 note=51 velocity=79 time=0
EXTRACT: note_off channel=9 note=35 velocity=127 time=0
EXTRACT: note_on channel=9 note=42 velocity=31 time=0
EXTRACT: note_off channel=8 note=40 velocity=95 time=0.1086955
EXTRACT: note_on channel=8 note=40 velocity=95 time=0
EXTRACT: note_off channel=0 note=28 velocity=95 time=0.1086955
EXTRACT: note_on channel=0 note=28 velocity=95 time=0
EXTRACT: note_off channel=8 note=40 velocity=95 time=0
EXTRACT: note_on channel=8 note=40 velocity=95 time=0
EXTRACT: note_off channel=9 note=42 velocity=31 time=0
EXTRACT: note_on channel=9 note=40 velocity=111 time=0
EXTRACT: note_on channel=9 note=42 velocity=95 time=0
EXTRACT: note_on channel=9 note=51 velocity=79 time=0
EXTRACT: note_off channel=0 note=28 velocity=95 time=0.217391
EXTRACT: note_off channel=8 note=40 velocity=95 time=0
EXTRACT: note_on channel=8 note=40 velocity=95 time=0
EXTRACT: note_off channel=9 note=40 velocity=111 time=0
EXTRACT: note_off channel=9 note=42 velocity=95 time=0
EXTRACT: note_off channel=9 note=51 velocity=79 time=0
EXTRACT: note_on channel=9 note=42 velocity=47 time=0
EXTRACT: note_off channel=8 note=40 velocity=95 time=0.1086955
EXTRACT: note_on channel=8 note=40 velocity=95 time=0
EXTRACT: note_on channel=0 note=28 velocity=95 time=0.1086955
EXTRACT: note_off channel=8 note=40 velocity=95 time=0
EXTRACT: note_on channel=8 note=40 velocity=95 time=0
EXTRACT: note_off channel=9 note=42 velocity=47 time=0
EXTRACT: note_on channel=9 note=42 velocity=95 time=0
EXTRACT: note_on channel=9 note=51 velocity=79 time=0
EXTRACT: note_on channel=9 note=35 velocity=127 time=0
EXTRACT: note_off channel=0 note=28 velocity=95 time=0.217391
EXTRACT: note_off channel=8 note=40 velocity=95 time=0
EXTRACT: note_on channel=8 note=40 velocity=95 time=0
EXTRACT: note_off channel=9 note=42 velocity=95 time=0
EXTRACT: note_off channel=9 note=51 velocity=79 time=0
EXTRACT: note_off channel=9 note=35 velocity=127 time=0
EXTRACT: note_on channel=9 note=42 velocity=47 time=0
EXTRACT: note_off channel=8 note=40 velocity=95 time=0.1086955
EXTRACT: note_on channel=8 note=40 velocity=79 time=0
EXTRACT: note_off channel=8 note=40 velocity=79 time=0.1086955
EXTRACT: note_on channel=8 note=40 velocity=95 time=0
EXTRACT: note_off channel=9 note=42 velocity=47 time=0
EXTRACT: note_on channel=9 note=39 velocity=95 time=0
EXTRACT: note_on channel=9 note=38 velocity=95 time=0
EXTRACT: note_on channel=9 note=41 velocity=111 time=0
EXTRACT: note_on channel=9 note=54 velocity=95 time=0
EXTRACT: note_on channel=9 note=42 velocity=95 time=0
EXTRACT: note_on channel=9 note=51 velocity=79 time=0
EXTRACT: note_on channel=0 note=28 velocity=95 time=0.217391
EXTRACT: note_off channel=8 note=40 velocity=95 time=0
EXTRACT: note_on channel=8 note=40 velocity=95 time=0
EXTRACT: note_off channel=9 note=39 velocity=95 time=0
EXTRACT: note_off channel=9 note=38 velocity=95 time=0
EXTRACT: note_off channel=9 note=41 velocity=111 time=0
EXTRACT: note_off channel=9 note=54 velocity=95 time=0
EXTRACT: note_off channel=9 note=42 velocity=95 time=0
EXTRACT: note_off channel=9 note=51 velocity=79 time=0
EXTRACT: note_on channel=9 note=42 velocity=47 time=0
EXTRACT: note_off channel=8 note=40 velocity=95 time=0.1086955
EXTRACT: note_on channel=8 note=40 velocity=95 time=0
EXTRACT: note_on channel=2 note=67 velocity=127 time=0.1086955
EXTRACT: note_off channel=0 note=28 velocity=95 time=0
EXTRACT: note_on channel=0 note=28 velocity=95 time=0
EXTRACT: note_off channel=8 note=40 velocity=95 time=0
EXTRACT: note_on channel=8 note=40 velocity=95 time=0
EXTRACT: note_on channel=6 note=58 velocity=95 time=0
EXTRACT: note_off channel=9 note=42 velocity=47 time=0
EXTRACT: note_on channel=9 note=35 velocity=127 time=0
EXTRACT: note_on channel=9 note=42 velocity=111 time=0
EXTRACT: note_off channel=2 note=67 velocity=127 time=0.217391
EXTRACT: note_on channel=2 note=64 velocity=111 time=0
EXTRACT: note_off channel=0 note=28 velocity=95 time=0
EXTRACT: note_off channel=8 note=40 velocity=95 time=0
EXTRACT: note_on channel=8 note=40 velocity=95 time=0
EXTRACT: note_off channel=9 note=35 velocity=127 time=0
EXTRACT: note_off channel=9 note=42 velocity=111 time=0
EXTRACT: note_on channel=9 note=42 velocity=47 time=0
EXTRACT: note_off channel=8 note=40 velocity=95 time=0.1086955
EXTRACT: note_on channel=8 note=40 velocity=95 time=0
EXTRACT: note_off channel=2 note=64 velocity=111 time=0.1086955
EXTRACT: note_on channel=2 note=67 velocity=95 time=0
EXTRACT: note_on channel=0 note=28 velocity=95 time=0
EXTRACT: note_off channel=8 note=40 velocity=95 time=0
EXTRACT: note_on channel=8 note=40 velocity=95 time=0
EXTRACT: note_off channel=9 note=42 velocity=47 time=0
EXTRACT: note_on channel=9 note=40 velocity=111 time=0
EXTRACT: note_on channel=9 note=42 velocity=63 time=0
EXTRACT: note_on channel=9 note=51 velocity=63 time=0
EXTRACT: note_off channel=2 note=67 velocity=95 time=0.217391
EXTRACT: note_on channel=2 note=64 velocity=95 time=0
EXTRACT: note_off channel=0 note=28 velocity=95 time=0
EXTRACT: note_off channel=8 note=40 velocity=95 time=0
EXTRACT: note_on channel=8 note=40 velocity=95 time=0
EXTRACT: note_off channel=9 note=40 velocity=111 time=0
EXTRACT: note_off channel=9 note=42 velocity=63 time=0
EXTRACT: note_off channel=9 note=51 velocity=63 time=0
EXTRACT: note_on channel=9 note=42 velocity=15 time=0
EXTRACT: note_off channel=8 note=40 velocity=95 time=0.1086955
EXTRACT: note_on channel=8 note=40 velocity=95 time=0
EXTRACT: note_off channel=2 note=64 velocity=95 time=0.1086955
EXTRACT: note_on channel=2 note=67 velocity=79 time=0
EXTRACT: note_off channel=8 note=40 velocity=95 time=0
EXTRACT: note_on channel=8 note=40 velocity=95 time=0
EXTRACT: note_off channel=6 note=58 velocity=95 time=0
EXTRACT: note_on channel=6 note=59 velocity=111 time=0
EXTRACT: note_off channel=9 note=42 velocity=15 time=0
EXTRACT: note_on channel=9 note=42 velocity=63 time=0
EXTRACT: note_on channel=9 note=51 velocity=63 time=0
EXTRACT: note_off channel=2 note=67 velocity=79 time=0.217391
EXTRACT: note_on channel=2 note=64 velocity=63 time=0
EXTRACT: note_off channel=8 note=40 velocity=95 time=0
EXTRACT: note_on channel=8 note=40 velocity=95 time=0
EXTRACT: note_off channel=9 note=42 velocity=63 time=0
EXTRACT: note_off channel=9 note=51 velocity=63 time=0
EXTRACT: note_on channel=9 note=35 velocity=127 time=0
EXTRACT: note_on channel=9 note=42 velocity=31 time=0
EXTRACT: note_off channel=8 note=40 velocity=95 time=0.1086955
EXTRACT: note_on channel=8 note=40 velocity=95 time=0
EXTRACT: note_off channel=2 note=64 velocity=63 time=0.1086955
EXTRACT: note_off channel=8 note=40 velocity=95 time=0
EXTRACT: note_on channel=8 note=40 velocity=95 time=0
EXTRACT: note_off channel=9 note=35 velocity=127 time=0
EXTRACT: note_off channel=9 note=42 velocity=31 time=0
EXTRACT: note_on channel=9 note=54 velocity=95 time=0
EXTRACT: note_on channel=9 note=39 velocity=95 time=0
EXTRACT: note_on channel=9 note=41 velocity=111 time=0
EXTRACT: note_on channel=9 note=38 velocity=95 time=0
EXTRACT: note_on channel=9 note=42 velocity=79 time=0
EXTRACT: note_on channel=9 note=51 velocity=63 time=0
EXTRACT: note_off channel=8 note=40 velocity=95 time=0.1086955
EXTRACT: note_on channel=8 note=40 velocity=79 time=0
EXTRACT: note_off channel=8 note=40 velocity=79 time=0.1086955
EXTRACT: note_on channel=8 note=40 velocity=95 time=0
EXTRACT: note_off channel=9 note=54 velocity=95 time=0
EXTRACT: note_off channel=9 note=39 velocity=95 time=0
EXTRACT: note_off channel=9 note=41 velocity=111 time=0
EXTRACT: note_off channel=9 note=38 velocity=95 time=0
EXTRACT: note_off channel=9 note=42 velocity=79 time=0
EXTRACT: note_off channel=9 note=51 velocity=63 time=0
EXTRACT: note_on channel=9 note=42 velocity=31 time=0
EXTRACT: note_off channel=8 note=40 velocity=95 time=0.1086955
EXTRACT: note_on channel=8 note=40 velocity=79 time=0
EXTRACT: note_off channel=8 note=40 velocity=79 time=0.1086955
EXTRACT: note_on channel=8 note=40 velocity=95 time=0
EXTRACT: note_off channel=6 note=59 velocity=111 time=0
EXTRACT: note_on channel=6 note=61 velocity=111 time=0
EXTRACT: note_off channel=9 note=42 velocity=31 time=0
EXTRACT: note_on channel=9 note=42 velocity=63 time=0
EXTRACT: note_on channel=9 note=51 velocity=63 time=0
EXTRACT: note_on channel=9 note=35 velocity=127 time=0
EXTRACT: note_off channel=8 note=40 velocity=95 time=0.1086955
EXTRACT: note_on channel=8 note=40 velocity=63 time=0
EXTRACT: note_on channel=0 note=28 velocity=79 time=0.1086955
EXTRACT: note_off channel=8 note=40 velocity=63 time=0
EXTRACT: note_on channel=8 note=40 velocity=95 time=0
EXTRACT: note_off channel=9 note=42 velocity=63 time=0
EXTRACT: note_off channel=9 note=51 velocity=63 time=0
EXTRACT: note_off channel=9 note=35 velocity=127 time=0
EXTRACT: note_on channel=9 note=82 velocity=79 time=0
EXTRACT: note_on channel=9 note=42 velocity=31 time=0
EXTRACT: note_off channel=8 note=40 velocity=95 time=0.1086955
EXTRACT: note_on channel=8 note=40 velocity=79 time=0
EXTRACT: note_off channel=0 note=28 velocity=79 time=0.1086955
EXTRACT: note_on channel=0 note=28 velocity=95 time=0
EXTRACT: note_off channel=8 note=40 velocity=79 time=0
EXTRACT: note_on channel=8 note=40 velocity=95 time=0
EXTRACT: note_off channel=9 note=82 velocity=79 time=0
EXTRACT: note_off channel=9 note=42 velocity=31 time=0
EXTRACT: note_on channel=9 note=40 velocity=111 time=0
EXTRACT: note_on channel=9 note=42 velocity=79 time=0
EXTRACT: note_on channel=9 note=51 velocity=63 time=0
EXTRACT: note_on channel=9 note=82 velocity=79 time=0
EXTRACT: note_off channel=0 note=28 velocity=95 time=0.217391
EXTRACT: note_off channel=8 note=40 velocity=95 time=0
EXTRACT: note_on channel=8 note=40 velocity=95 time=0
EXTRACT: note_off channel=9 note=40 velocity=111 time=0
EXTRACT: note_off channel=9 note=42 velocity=79 time=0
EXTRACT: note_off channel=9 note=51 velocity=63 time=0
EXTRACT: note_off channel=9 note=82 velocity=79 time=0
EXTRACT: note_on channel=9 note=42 velocity=31 time=0
EXTRACT: note_off channel=8 note=40 velocity=95 time=0.1086955
EXTRACT: note_on channel=8 note=40 velocity=95 time=0
EXTRACT: note_on channel=0 note=28 velocity=95 time=0.1086955
EXTRACT: note_off channel=8 note=40 velocity=95 time=0
EXTRACT: note_on channel=8 note=40 velocity=95 time=0
EXTRACT: note_off channel=9 note=42 velocity=31 time=0
EXTRACT: note_on channel=9 note=42 velocity=63 time=0
EXTRACT: note_on channel=9 note=51 velocity=63 time=0
EXTRACT: note_on channel=9 note=35 velocity=127 time=0
EXTRACT: note_off channel=0 note=28 velocity=95 time=0.217391
EXTRACT: note_off channel=8 note=40 velocity=95 time=0
EXTRACT: note_on channel=8 note=40 velocity=95 time=0
EXTRACT: note_off channel=9 note=42 velocity=63 time=0
EXTRACT: note_off channel=9 note=51 velocity=63 time=0
EXTRACT: note_off channel=9 note=35 velocity=127 time=0
EXTRACT: note_on channel=9 note=82 velocity=63 time=0
EXTRACT: note_on channel=9 note=42 velocity=31 time=0
EXTRACT: note_off channel=8 note=40 velocity=95 time=0.1086955
EXTRACT: note_on channel=8 note=40 velocity=95 time=0
EXTRACT: note_off channel=8 note=40 velocity=95 time=0.1086955
EXTRACT: note_on channel=8 note=40 velocity=95 time=0
EXTRACT: note_off channel=9 note=82 velocity=63 time=0
EXTRACT: note_off channel=9 note=42 velocity=31 time=0
EXTRACT: note_on channel=9 note=82 velocity=63 time=0
EXTRACT: note_on channel=9 note=38 velocity=111 time=0
EXTRACT: note_on channel=9 note=39 velocity=95 time=0
EXTRACT: note_on channel=9 note=41 velocity=111 time=0
EXTRACT: note_on channel=9 note=54 velocity=95 time=0
EXTRACT: note_on channel=9 note=42 velocity=79 time=0
EXTRACT: note_on channel=0 note=28 velocity=95 time=0.217391
EXTRACT: note_off channel=8 note=40 velocity=95 time=0
EXTRACT: note_on channel=8 note=40 velocity=95 time=0
EXTRACT: note_off channel=9 note=82 velocity=63 time=0
EXTRACT: note_off channel=9 note=38 velocity=111 time=0
EXTRACT: note_off channel=9 note=39 velocity=95 time=0
EXTRACT: note_off channel=9 note=41 velocity=111 time=0
EXTRACT: note_off channel=9 note=54 velocity=95 time=0
EXTRACT: note_off channel=9 note=42 velocity=79 time=0
EXTRACT: note_on channel=9 note=42 velocity=31 time=0
EXTRACT: note_on channel=9 note=82 velocity=63 time=0
EXTRACT: note_off channel=0 note=28 velocity=95 time=0.217391
EXTRACT: note_on channel=0 note=28 velocity=95 time=0
EXTRACT: note_off channel=8 note=40 velocity=95 time=0
EXTRACT: note_on channel=8 note=40 velocity=95 time=0
EXTRACT: note_off channel=6 note=61 velocity=111 time=0
EXTRACT: note_off channel=9 note=42 velocity=31 time=0
EXTRACT: note_off channel=9 note=82 velocity=63 time=0
EXTRACT: note_on channel=9 note=42 velocity=79 time=0
EXTRACT: note_on channel=9 note=51 velocity=63 time=0
EXTRACT: note_on channel=9 note=35 velocity=127 time=0
EXTRACT: note_on channel=9 note=82 velocity=79 time=0
EXTRACT: note_off channel=8 note=40 velocity=95 time=0.1086955
EXTRACT: note_on channel=8 note=40 velocity=79 time=0
EXTRACT: note_off channel=0 note=28 velocity=95 time=0.1086955
EXTRACT: note_off channel=8 note=40 velocity=79 time=0
EXTRACT: note_on channel=8 note=40 velocity=95 time=0
EXTRACT: note_off channel=9 note=42 velocity=79 time=0
EXTRACT: note_off channel=9 note=51 velocity=63 time=0
EXTRACT: note_off channel=9 note=35 velocity=127 time=0
EXTRACT: note_off channel=9 note=82 velocity=79 time=0
EXTRACT: note_on channel=9 note=42 velocity=47 time=0
EXTRACT: note_off channel=8 note=40 velocity=95 time=0.1086955
EXTRACT: note_on channel=8 note=40 velocity=79 time=0
EXTRACT: note_on channel=0 note=28 velocity=95 time=0.1086955
EXTRACT: note_off channel=8 note=40 velocity=79 time=0
EXTRACT: note_on channel=8 note=40 velocity=95 time=0
EXTRACT: note_off channel=9 note=42 velocity=47 time=0
EXTRACT: note_on channel=9 note=42 velocity=79 time=0
EXTRACT: note_on channel=9 note=51 velocity=63 time=0
EXTRACT: note_on channel=9 note=40 velocity=111 time=0
EXTRACT: note_off channel=9 note=42 velocity=79 time=0.1086955
EXTRACT: note_off channel=9 note=51 velocity=63 time=0
EXTRACT: note_off channel=9 note=40 velocity=111 time=0
EXTRACT: note_on channel=9 note=86 velocity=95 time=0
EXTRACT: note_off channel=0 note=28 velocity=95 time=0.1086955
EXTRACT: note_off channel=8 note=40 velocity=95 time=0
EXTRACT: note_on channel=8 note=40 velocity=95 time=0
EXTRACT: note_off channel=9 note=86 velocity=95 time=0
EXTRACT: note_on channel=9 note=42 velocity=47 time=0
EXTRACT: note_on channel=9 note=82 velocity=63 time=0
EXTRACT: note_off channel=8 note=40 velocity=95 time=0.1086955
EXTRACT: note_on channel=8 note=40 velocity=79 time=0
EXTRACT: note_off channel=9 note=42 velocity=47 time=0
EXTRACT: note_off channel=9 note=82 velocity=63 time=0
EXTRACT: note_on channel=9 note=86 velocity=95 time=0
EXTRACT: note_off channel=8 note=40 velocity=79 time=0.1086955
EXTRACT: note_on channel=8 note=40 velocity=95 time=0
EXTRACT: note_off channel=9 note=86 velocity=95 time=0
EXTRACT: note_on channel=9 note=82 velocity=63 time=0
EXTRACT: note_on channel=9 note=86 velocity=95 time=0
EXTRACT: note_on channel=9 note=42 velocity=79 time=0
EXTRACT: note_on channel=9 note=51 velocity=63 time=0
EXTRACT: note_off channel=9 note=82 velocity=63 time=0.1086955
EXTRACT: note_off channel=9 note=86 velocity=95 time=0
EXTRACT: note_off channel=9 note=42 velocity=79 time=0
EXTRACT: note_off channel=9 note=51 velocity=63 time=0
EXTRACT: note_on channel=9 note=86 velocity=95 time=0
EXTRACT: note_off channel=8 note=40 velocity=95 time=0.1086955
EXTRACT: note_on channel=8 note=40 velocity=95 time=0
EXTRACT: note_off channel=9 note=86 velocity=95 time=0
EXTRACT: note_on channel=9 note=35 velocity=127 time=0
EXTRACT: note_on channel=9 note=42 velocity=47 time=0
EXTRACT: note_off channel=8 note=40 velocity=95 time=0.1086955
EXTRACT: note_on channel=8 note=40 velocity=79 time=0
EXTRACT: note_off channel=9 note=35 velocity=127 time=0
EXTRACT: note_off channel=9 note=42 velocity=47 time=0
EXTRACT: note_on channel=9 note=86 velocity=95 time=0
EXTRACT: note_off channel=8 note=40 velocity=79 time=0.1086955
EXTRACT: note_on channel=8 note=40 velocity=95 time=0
EXTRACT: note_off channel=9 note=86 velocity=95 time=0
EXTRACT: note_on channel=9 note=38 velocity=111 time=0
EXTRACT: note_on channel=9 note=39 velocity=111 time=0
EXTRACT: note_on channel=9 note=54 velocity=95 time=0
EXTRACT: note_on channel=9 note=41 velocity=111 time=0
EXTRACT: note_on channel=9 note=42 velocity=79 time=0
EXTRACT: note_on channel=9 note=51 velocity=63 time=0
EXTRACT: note_off channel=9 note=38 velocity=111 time=0.1086955
EXTRACT: note_off channel=9 note=39 velocity=111 time=0
EXTRACT: note_off channel=9 note=54 velocity=95 time=0
EXTRACT: note_off channel=9 note=41 velocity=111 time=0
EXTRACT: note_off channel=9 note=42 velocity=79 time=0
EXTRACT: note_off channel=9 note=51 velocity=63 time=0
EXTRACT: note_on channel=9 note=86 velocity=111 time=0
EXTRACT: note_off channel=8 note=40 velocity=95 time=0.1086955
EXTRACT: note_on channel=8 note=40 velocity=95 time=0
EXTRACT: note_off channel=9 note=86 velocity=111 time=0
EXTRACT: note_on channel=9 note=42 velocity=47 time=0
EXTRACT: note_off channel=8 note=40 velocity=95 time=0.1086955
EXTRACT: note_on channel=8 note=40 velocity=95 time=0
EXTRACT: note_off channel=9 note=42 velocity=47 time=0
EXTRACT: note_on channel=9 note=86 velocity=111 time=0
EXTRACT: note_off channel=8 note=40 velocity=95 time=0.1086955
EXTRACT: note_on channel=8 note=40 velocity=95 time=0
EXTRACT: note_off channel=9 note=86 velocity=111 time=0
EXTRACT: note_on channel=9 note=35 velocity=127 time=0
EXTRACT: note_on channel=9 note=42 velocity=79 time=0
EXTRACT: note_on channel=9 note=51 velocity=63 time=0
EXTRACT: note_on channel=9 note=86 velocity=111 time=0
EXTRACT: note_on channel=0 note=28 velocity=95 time=0.217391
EXTRACT: note_off channel=8 note=40 velocity=95 time=0
EXTRACT: note_on channel=8 note=40 velocity=95 time=0
EXTRACT: note_off channel=9 note=35 velocity=127 time=0
EXTRACT: note_off channel=9 note=42 velocity=79 time=0
EXTRACT: note_off channel=9 note=51 velocity=63 time=0
EXTRACT: note_off channel=9 note=86 velocity=111 time=0
EXTRACT: note_on channel=9 note=42 velocity=47 time=0
EXTRACT: note_on channel=9 note=82 velocity=63 time=0
EXTRACT: note_off channel=8 note=40 velocity=95 time=0.1086955
EXTRACT: note_on channel=8 note=40 velocity=79 time=0
EXTRACT: note_off channel=0 note=28 velocity=95 time=0.1086955
EXTRACT: note_on channel=0 note=28 velocity=95 time=0
EXTRACT: note_off channel=8 note=40 velocity=79 time=0
EXTRACT: note_on channel=8 note=40 velocity=95 time=0
EXTRACT: note_off channel=9 note=42 velocity=47 time=0
EXTRACT: note_off channel=9 note=82 velocity=63 time=0
EXTRACT: note_on channel=9 note=40 velocity=111 time=0
EXTRACT: note_on channel=9 note=42 velocity=79 time=0
EXTRACT: note_on channel=9 note=51 velocity=63 time=0
EXTRACT: note_on channel=9 note=82 velocity=79 time=0
EXTRACT: note_off channel=0 note=28 velocity=95 time=0.217391
EXTRACT: note_off channel=8 note=40 velocity=95 time=0
EXTRACT: note_on channel=8 note=40 velocity=95 time=0
EXTRACT: note_off channel=9 note=40 velocity=111 time=0
EXTRACT: note_off channel=9 note=42 velocity=79 time=0
EXTRACT: note_off channel=9 note=51 velocity=63 time=0
EXTRACT: note_off channel=9 note=82 velocity=79 time=0
EXTRACT: note_on channel=9 note=42 velocity=47 time=0
EXTRACT: note_off channel=8 note=40 velocity=95 time=0.1086955
EXTRACT: note_on channel=8 note=40 velocity=79 time=0
EXTRACT: note_on channel=0 note=28 velocity=95 time=0.1086955
EXTRACT: note_off channel=8 note=40 velocity=79 time=0
EXTRACT: note_on channel=8 note=40 velocity=95 time=0
EXTRACT: note_off channel=9 note=42 velocity=47 time=0
EXTRACT: note_on channel=9 note=35 velocity=127 time=0
EXTRACT: note_on channel=9 note=42 velocity=95 time=0
EXTRACT: note_on channel=9 note=51 velocity=79 time=0
EXTRACT: note_off channel=8 note=40 velocity=95 time=0.1086955
EXTRACT: note_on channel=8 note=40 velocity=95 time=0
EXTRACT: note_off channel=0 note=28 velocity=95 time=0.1086955
EXTRACT: note_off channel=8 note=40 velocity=95 time=0
EXTRACT: note_on channel=8 note=40 velocity=95 time=0
EXTRACT: note_off channel=9 note=35 velocity=127 time=0
EXTRACT: note_off channel=9 note=42 velocity=95 time=0
EXTRACT: note_off channel=9 note=51 velocity=79 time=0
EXTRACT: note_on channel=9 note=42 velocity=47 time=0
EXTRACT: note_on channel=9 note=82 velocity=63 time=0
EXTRACT: note_off channel=8 note=40 velocity=95 time=0.1086955
EXTRACT: note_on channel=8 note=40 velocity=79 time=0
EXTRACT: note_off channel=8 note=40 velocity=79 time=0.1086955
EXTRACT: note_on channel=8 note=40 velocity=95 time=0
EXTRACT: note_off channel=9 note=42 velocity=47 time=0
EXTRACT: note_off channel=9 note=82 velocity=63 time=0
EXTRACT: note_on channel=9 note=39 velocity=95 time=0
EXTRACT: note_on channel=9 note=38 velocity=95 time=0
EXTRACT: note_on channel=9 note=41 velocity=111 time=0
EXTRACT: note_on channel=9 note=54 velocity=95 time=0
EXTRACT: note_on channel=9 note=82 velocity=63 time=0
EXTRACT: note_on channel=9 note=42 velocity=95 time=0
EXTRACT: note_off channel=8 note=40 velocity=95 time=0.1086955
EXTRACT: note_on channel=8 note=40 velocity=79 time=0
EXTRACT: note_on channel=0 note=28 velocity=95 time=0.1086955
EXTRACT: note_off channel=8 note=40 velocity=79 time=0
EXTRACT: note_on channel=8 note=40 velocity=95 time=0
EXTRACT: note_off channel=9 note=39 velocity=95 time=0
EXTRACT: note_off channel=9 note=38 velocity=95 time=0
EXTRACT: note_off channel=9 note=41 velocity=111 time=0
EXTRACT: note_off channel=9 note=54 velocity=95 time=0
EXTRACT: note_off channel=9 note=82 velocity=63 time=0
EXTRACT: note_off channel=9 note=42 velocity=95 time=0
EXTRACT: note_on channel=9 note=42 velocity=47 time=0
EXTRACT: note_on channel=9 note=82 velocity=63 time=0
EXTRACT: note_off channel=8 note=40 velocity=95 time=0.1086955
EXTRACT: note_on channel=8 note=40 velocity=79 time=0
EXTRACT: note_off channel=0 note=28 velocity=95 time=0.1086955
EXTRACT: note_on channel=0 note=28 velocity=95 time=0
EXTRACT: note_off channel=8 note=40 velocity=79 time=0
EXTRACT: note_on channel=8 note=40 velocity=95 time=0
EXTRACT: note_off channel=9 note=42 velocity=47 time=0
EXTRACT: note_off channel=9 note=82 velocity=63 time=0
EXTRACT: note_on channel=9 note=35 velocity=127 time=0
EXTRACT: note_on channel=9 note=82 velocity=63 time=0
EXTRACT: note_on channel=9 note=42 velocity=79 time=0
EXTRACT: note_on channel=9 note=51 velocity=63 time=0
EXTRACT: note_off channel=0 note=28 velocity=95 time=0.217391
EXTRACT: note_off channel=8 note=40 velocity=95 time=0
EXTRACT: note_on channel=8 note=40 velocity=95 time=0
EXTRACT: note_off channel=9 note=35 velocity=127 time=0
EXTRACT: note_off channel=9 note=82 velocity=63 time=0
EXTRACT: note_off channel=9 note=42 velocity=79 time=0
EXTRACT: note_off channel=9 note=51 velocity=63 time=0
EXTRACT: note_on channel=9 note=42 velocity=47 time=0
EXTRACT: note_on channel=4 note=55 velocity=95 time=0.1086955
EXTRACT: note_on channel=4 note=50 velocity=95 time=0
EXTRACT: note_on channel=4 note=45 velocity=95 time=0
EXTRACT: note_off channel=8 note=40 velocity=95 time=0
EXTRACT: note_on channel=8 note=40 velocity=95 time=0
EXTRACT: note_off channel=4 note=55 velocity=95 time=0.031249956250000002
EXTRACT: note_off channel=4 note=50 velocity=95 time=0
EXTRACT: note_off channel=4 note=45 velocity=95 time=0
EXTRACT: note_on channel=0 note=28 velocity=95 time=0.07744554375
EXTRACT: note_off channel=8 note=40 velocity=95 time=0
EXTRACT: note_on channel=8 note=40 velocity=95 time=0
EXTRACT: note_off channel=9 note=42 velocity=47 time=0
EXTRACT: note_on channel=9 note=40 velocity=111 time=0
EXTRACT: note_on channel=9 note=42 velocity=95 time=0
EXTRACT: note_on channel=9 note=51 velocity=79 time=0
EXTRACT: note_off channel=0 note=28 velocity=95 time=0.217391
EXTRACT: note_off channel=8 note=40 velocity=95 time=0
EXTRACT: note_on channel=8 note=40 velocity=95 time=0
EXTRACT: note_off channel=9 note=40 velocity=111 time=0
EXTRACT: note_off channel=9 note=42 velocity=95 time=0
EXTRACT: note_off channel=9 note=51 velocity=79 time=0
EXTRACT: note_on channel=9 note=82 velocity=63 time=0
EXTRACT: note_on channel=9 note=42 velocity=47 time=0
EXTRACT: note_off channel=8 note=40 velocity=95 time=0.1086955
EXTRACT: note_on channel=8 note=40 velocity=95 time=0
EXTRACT: pitchwheel channel=5 pitch=0 time=0.1086955
EXTRACT: note_on channel=5 note=55 velocity=95 time=0
EXTRACT: note_off channel=8 note=40 velocity=95 time=0
EXTRACT: note_on channel=8 note=40 velocity=95 time=0
EXTRACT: note_off channel=9 note=82 velocity=63 time=0
EXTRACT: note_off channel=9 note=42 velocity=47 time=0
EXTRACT: note_on channel=9 note=82 velocity=63 time=0
EXTRACT: note_on channel=9 note=42 velocity=79 time=0
EXTRACT: note_on channel=9 note=51 velocity=63 time=0
EXTRACT: pitchwheel channel=5 pitch=-128 time=0.007246366666666667
EXTRACT: pitchwheel channel=5 pitch=-256 time=0.007246366666666667
EXTRACT: pitchwheel channel=5 pitch=-384 time=0.007246366666666667
EXTRACT: pitchwheel channel=5 pitch=-512 time=0.007246366666666667
EXTRACT: pitchwheel channel=5 pitch=-640 time=0.007246366666666667
EXTRACT: pitchwheel channel=5 pitch=-768 time=0.007246366666666667
EXTRACT: pitchwheel channel=5 pitch=-896 time=0.007246366666666667
EXTRACT: pitchwheel channel=5 pitch=-1024 time=0.007246366666666667
EXTRACT: pitchwheel channel=5 pitch=-1152 time=0.007246366666666667
EXTRACT: pitchwheel channel=5 pitch=-1280 time=0.007246366666666667
EXTRACT: pitchwheel channel=5 pitch=-1408 time=0.007246366666666667
EXTRACT: pitchwheel channel=5 pitch=-1536 time=0.007246366666666667
EXTRACT: pitchwheel channel=5 pitch=-1664 time=0.007246366666666667
EXTRACT: pitchwheel channel=5 pitch=-1792 time=0.007246366666666667
EXTRACT: pitchwheel channel=5 pitch=-1920 time=0.007246366666666667
EXTRACT: note_off channel=8 note=40 velocity=95 time=0
EXTRACT: note_on channel=8 note=40 velocity=79 time=0
EXTRACT: pitchwheel channel=5 pitch=-2048 time=0.007246366666666667
EXTRACT: pitchwheel channel=5 pitch=-2176 time=0.007246366666666667
EXTRACT: pitchwheel channel=5 pitch=-2304 time=0.007246366666666667
EXTRACT: pitchwheel channel=5 pitch=-2432 time=0.007246366666666667
EXTRACT: pitchwheel channel=5 pitch=-2560 time=0.007246366666666667
EXTRACT: pitchwheel channel=5 pitch=-2688 time=0.007246366666666667
EXTRACT: pitchwheel channel=5 pitch=-2816 time=0.007246366666666667
EXTRACT: pitchwheel channel=5 pitch=-2944 time=0.007246366666666667
EXTRACT: pitchwheel channel=5 pitch=-3072 time=0.007246366666666667
EXTRACT: pitchwheel channel=5 pitch=-3200 time=0.007246366666666667
EXTRACT: pitchwheel channel=5 pitch=-3328 time=0.007246366666666667
EXTRACT: pitchwheel channel=5 pitch=-3456 time=0.007246366666666667
EXTRACT: pitchwheel channel=5 pitch=-3584 time=0.007246366666666667
EXTRACT: pitchwheel channel=5 pitch=-3712 time=0.007246366666666667
EXTRACT: pitchwheel channel=5 pitch=-3840 time=0.007246366666666667
EXTRACT: note_off channel=8 note=40 velocity=79 time=0
EXTRACT: note_on channel=8 note=40 velocity=95 time=0
EXTRACT: note_off channel=9 note=82 velocity=63 time=0
EXTRACT: note_off channel=9 note=42 velocity=79 time=0
EXTRACT: note_off channel=9 note=51 velocity=63 time=0
EXTRACT: note_on channel=9 note=35 velocity=127 time=0
EXTRACT: note_on channel=9 note=42 velocity=47 time=0
EXTRACT: pitchwheel channel=5 pitch=-3968 time=0.007246366666666667
EXTRACT: pitchwheel channel=5 pitch=-4096 time=0.007246366666666667
EXTRACT: pitchwheel channel=5 pitch=-4224 time=0.007246366666666667
EXTRACT: pitchwheel channel=5 pitch=-4352 time=0.007246366666666667
EXTRACT: pitchwheel channel=5 pitch=-4480 time=0.007246366666666667
EXTRACT: pitchwheel channel=5 pitch=-4608 time=0.007246366666666667
EXTRACT: pitchwheel channel=5 pitch=-4736 time=0.007246366666666667
EXTRACT: pitchwheel channel=5 pitch=-4864 time=0.007246366666666667
EXTRACT: pitchwheel channel=5 pitch=-4992 time=0.007246366666666667
EXTRACT: pitchwheel channel=5 pitch=-5120 time=0.007246366666666667
EXTRACT: pitchwheel channel=5 pitch=-5248 time=0.007246366666666667
EXTRACT: pitchwheel channel=5 pitch=-5376 time=0.007246366666666667
EXTRACT: pitchwheel channel=5 pitch=-5504 time=0.007246366666666667
EXTRACT: pitchwheel channel=5 pitch=-5632 time=0.007246366666666667
EXTRACT: pitchwheel channel=5 pitch=-5632 time=0.007246366666666667
EXTRACT: note_off channel=8 note=40 velocity=95 time=0
EXTRACT: note_on channel=8 note=40 velocity=95 time=0
EXTRACT: pitchwheel channel=5 pitch=-5504 time=0.007246366666666667
EXTRACT: pitchwheel channel=5 pitch=-5376 time=0.007246366666666667
EXTRACT: pitchwheel channel=5 pitch=-5248 time=0.007246366666666667
EXTRACT: pitchwheel channel=5 pitch=-5120 time=0.007246366666666667
EXTRACT: pitchwheel channel=5 pitch=-4992 time=0.007246366666666667
EXTRACT: pitchwheel channel=5 pitch=-4864 time=0.007246366666666667
EXTRACT: pitchwheel channel=5 pitch=-4736 time=0.007246366666666667
EXTRACT: pitchwheel channel=5 pitch=-4608 time=0.007246366666666667
EXTRACT: pitchwheel channel=5 pitch=-4480 time=0.007246366666666667
EXTRACT: pitchwheel channel=5 pitch=-4352 time=0.007246366666666667
EXTRACT: pitchwheel channel=5 pitch=-4224 time=0.007246366666666667
EXTRACT: pitchwheel channel=5 pitch=-4096 time=0.007246366666666667
EXTRACT: pitchwheel channel=5 pitch=-3968 time=0.007246366666666667
EXTRACT: pitchwheel channel=5 pitch=-3840 time=0.007246366666666667
EXTRACT: pitchwheel channel=5 pitch=-3712 time=0.007246366666666667
EXTRACT: note_off channel=8 note=40 velocity=95 time=0
EXTRACT: note_on channel=8 note=40 velocity=95 time=0
EXTRACT: note_off channel=9 note=35 velocity=127 time=0
EXTRACT: note_off channel=9 note=42 velocity=47 time=0
EXTRACT: note_on channel=9 note=54 velocity=95 time=0
EXTRACT: note_on channel=9 note=39 velocity=95 time=0
EXTRACT: note_on channel=9 note=41 velocity=111 time=0
EXTRACT: note_on channel=9 note=38 velocity=95 time=0
EXTRACT: note_on channel=9 note=42 velocity=95 time=0
EXTRACT: note_on channel=9 note=51 velocity=79 time=0
EXTRACT: pitchwheel channel=5 pitch=-3584 time=0.007246366666666667
EXTRACT: pitchwheel channel=5 pitch=-3456 time=0.007246366666666667
EXTRACT: pitchwheel channel=5 pitch=-3328 time=0.007246366666666667
EXTRACT: pitchwheel channel=5 pitch=-3200 time=0.007246366666666667
EXTRACT: pitchwheel channel=5 pitch=-3072 time=0.007246366666666667
EXTRACT: pitchwheel channel=5 pitch=-2944 time=0.007246366666666667
EXTRACT: pitchwheel channel=5 pitch=-2816 time=0.007246366666666667
EXTRACT: pitchwheel channel=5 pitch=-2688 time=0.007246366666666667
EXTRACT: pitchwheel channel=5 pitch=-2560 time=0.007246366666666667
EXTRACT: pitchwheel channel=5 pitch=-2432 time=0.007246366666666667
EXTRACT: pitchwheel channel=5 pitch=-2304 time=0.007246366666666667
EXTRACT: pitchwheel channel=5 pitch=-2176 time=0.007246366666666667
EXTRACT: pitchwheel channel=5 pitch=-2048 time=0.007246366666666667
EXTRACT: pitchwheel channel=5 pitch=-1920 time=0.007246366666666667
EXTRACT: pitchwheel channel=5 pitch=-1792 time=0.007246366666666667
EXTRACT: pitchwheel channel=5 pitch=-1664 time=0.007246366666666667
EXTRACT: pitchwheel channel=5 pitch=-1536 time=0.007246366666666667
EXTRACT: pitchwheel channel=5 pitch=-1408 time=0.007246366666666667
EXTRACT: pitchwheel channel=5 pitch=-1280 time=0.007246366666666667
EXTRACT: pitchwheel channel=5 pitch=-1152 time=0.007246366666666667
EXTRACT: pitchwheel channel=5 pitch=-1024 time=0.007246366666666667
EXTRACT: pitchwheel channel=5 pitch=-896 time=0.007246366666666667
EXTRACT: pitchwheel channel=5 pitch=-768 time=0.007246366666666667
EXTRACT: pitchwheel channel=5 pitch=-640 time=0.007246366666666667
EXTRACT: pitchwheel channel=5 pitch=-512 time=0.007246366666666667
EXTRACT: pitchwheel channel=5 pitch=-384 time=0.007246366666666667
EXTRACT: pitchwheel channel=5 pitch=-256 time=0.007246366666666667
EXTRACT: pitchwheel channel=5 pitch=-128 time=0.007246366666666667
EXTRACT: pitchwheel channel=5 pitch=0 time=0.007246366666666667
EXTRACT: pitchwheel channel=5 pitch=0 time=0.007246366666666667
EXTRACT: pitchwheel channel=5 pitch=0 time=0
EXTRACT: note_off channel=5 note=55 velocity=95 time=0
EXTRACT: note_on channel=4 note=55 velocity=95 time=0
EXTRACT: note_off channel=8 note=40 velocity=95 time=0
EXTRACT: note_on channel=8 note=40 velocity=95 time=0
EXTRACT: note_off channel=9 note=54 velocity=95 time=0
EXTRACT: note_off channel=9 note=39 velocity=95 time=0
EXTRACT: note_off channel=9 note=41 velocity=111 time=0
EXTRACT: note_off channel=9 note=38 velocity=95 time=0
EXTRACT: note_off channel=9 note=42 velocity=95 time=0
EXTRACT: note_off channel=9 note=51 velocity=79 time=0
EXTRACT: note_on channel=9 note=42 velocity=47 time=0
EXTRACT: note_off channel=4 note=55 velocity=95 time=0.1086955
EXTRACT: pitchwheel channel=5 pitch=0 time=0
EXTRACT: note_on channel=5 note=57 velocity=95 time=0
EXTRACT: note_off channel=8 note=40 velocity=95 time=0
EXTRACT: note_on channel=8 note=40 velocity=95 time=0
EXTRACT: pitchwheel channel=5 pitch=128 time=0.004528979166666667
EXTRACT: pitchwheel channel=5 pitch=256 time=0.004528979166666667
EXTRACT: pitchwheel channel=5 pitch=384 time=0.004528979166666667
EXTRACT: pitchwheel channel=5 pitch=512 time=0.004528979166666667
EXTRACT: pitchwheel channel=5 pitch=640 time=0.004528979166666667
EXTRACT: pitchwheel channel=5 pitch=768 time=0.004528979166666667
EXTRACT: pitchwheel channel=5 pitch=896 time=0.004528979166666667
EXTRACT: pitchwheel channel=5 pitch=1024 time=0.004528979166666667
EXTRACT: pitchwheel channel=5 pitch=1152 time=0.004528979166666667
EXTRACT: pitchwheel channel=5 pitch=1280 time=0.004528979166666667
EXTRACT: pitchwheel channel=5 pitch=1408 time=0.004528979166666667
EXTRACT: pitchwheel channel=5 pitch=1408 time=0.004528979166666667
EXTRACT: pitchwheel channel=5 pitch=1408 time=0.05434775
EXTRACT: pitchwheel channel=5 pitch=0 time=0
EXTRACT: note_off channel=5 note=57 velocity=95 time=0
EXTRACT: pitchwheel channel=5 pitch=0 time=0
EXTRACT: note_on channel=5 note=57 velocity=95 time=0
EXTRACT: note_off channel=8 note=40 velocity=95 time=0
EXTRACT: note_on channel=8 note=40 velocity=95 time=0
EXTRACT: note_off channel=9 note=42 velocity=47 time=0
EXTRACT: note_on channel=9 note=35 velocity=127 time=0
EXTRACT: note_on channel=9 note=42 velocity=95 time=0
EXTRACT: note_on channel=9 note=51 velocity=79 time=0
EXTRACT: pitchwheel channel=5 pitch=128 time=0.00951085625
EXTRACT: pitchwheel channel=5 pitch=256 time=0.00951085625
EXTRACT: pitchwheel channel=5 pitch=384 time=0.00951085625
EXTRACT: pitchwheel channel=5 pitch=512 time=0.00951085625
EXTRACT: pitchwheel channel=5 pitch=640 time=0.00951085625
EXTRACT: pitchwheel channel=5 pitch=768 time=0.00951085625
EXTRACT: pitchwheel channel=5 pitch=896 time=0.00951085625
EXTRACT: pitchwheel channel=5 pitch=1024 time=0.00951085625
EXTRACT: pitchwheel channel=5 pitch=1152 time=0.00951085625
EXTRACT: pitchwheel channel=5 pitch=1280 time=0.00951085625
EXTRACT: pitchwheel channel=5 pitch=1408 time=0.00951085625
EXTRACT: pitchwheel channel=5 pitch=1408 time=0.00407608125
EXTRACT: pitchwheel channel=5 pitch=1408 time=0.1086955
EXTRACT: pitchwheel channel=5 pitch=0 time=0
EXTRACT: note_off channel=5 note=57 velocity=95 time=0
EXTRACT: pitchwheel channel=5 pitch=0 time=0
EXTRACT: note_on channel=5 note=57 velocity=95 time=0
EXTRACT: note_on channel=0 note=40 velocity=79 time=0
EXTRACT: note_off channel=9 note=35 velocity=127 time=0
EXTRACT: note_off channel=9 note=42 velocity=95 time=0
EXTRACT: note_off channel=9 note=51 velocity=79 time=0
EXTRACT: note_on channel=9 note=42 velocity=47 time=0
EXTRACT: pitchwheel channel=5 pitch=128 time=0.03940211875
EXTRACT: pitchwheel channel=5 pitch=256 time=0.03940211875
EXTRACT: note_off channel=8 note=40 velocity=95 time=0.0298912625
EXTRACT: pitchwheel channel=5 pitch=384 time=0.00951085625
EXTRACT: pitchwheel channel=5 pitch=512 time=0.03940211875
EXTRACT: pitchwheel channel=5 pitch=640 time=0.03940211875
EXTRACT: note_off channel=0 note=40 velocity=79 time=0.02038040625
EXTRACT: note_on channel=0 note=40 velocity=95 time=0
EXTRACT: note_off channel=9 note=42 velocity=47 time=0
EXTRACT: note_on channel=9 note=42 velocity=95 time=0
EXTRACT: note_on channel=9 note=51 velocity=79 time=0
EXTRACT: note_on channel=9 note=40 velocity=111 time=0
EXTRACT: pitchwheel channel=5 pitch=768 time=0.0190217125
EXTRACT: pitchwheel channel=5 pitch=896 time=0.03940211875
EXTRACT: pitchwheel channel=5 pitch=1024 time=0.03940211875
EXTRACT: pitchwheel channel=5 pitch=1152 time=0.03940211875
EXTRACT: pitchwheel channel=5 pitch=1280 time=0.03940211875
EXTRACT: pitchwheel channel=5 pitch=1408 time=0.03940211875
EXTRACT: pitchwheel channel=5 pitch=1408 time=0.00135869375
EXTRACT: note_off channel=0 note=40 velocity=95 time=0
EXTRACT: note_off channel=9 note=42 velocity=95 time=0
EXTRACT: note_off channel=9 note=51 velocity=79 time=0
EXTRACT: note_off channel=9 note=40 velocity=111 time=0
EXTRACT: note_on channel=9 note=42 velocity=47 time=0
EXTRACT: note_on channel=0 note=40 velocity=95 time=0.217391
EXTRACT: note_off channel=9 note=42 velocity=47 time=0
EXTRACT: note_on channel=9 note=35 velocity=127 time=0
EXTRACT: note_on channel=9 note=42 velocity=79 time=0
EXTRACT: note_on channel=9 note=51 velocity=63 time=0
EXTRACT: pitchwheel channel=5 pitch=1408 time=0.217391
EXTRACT: pitchwheel channel=5 pitch=0 time=0
EXTRACT: note_off channel=5 note=57 velocity=95 time=0
EXTRACT: note_on channel=5 note=57 velocity=95 time=0
EXTRACT: note_off channel=0 note=40 velocity=95 time=0
EXTRACT: note_off channel=9 note=35 velocity=127 time=0
EXTRACT: note_off channel=9 note=42 velocity=79 time=0
EXTRACT: note_off channel=9 note=51 velocity=63 time=0
EXTRACT: note_on channel=9 note=42 velocity=47 time=0
EXTRACT: pitchwheel channel=5 pitch=768 time=0.05434775
EXTRACT: pitchwheel channel=5 pitch=1664 time=0.05434775
EXTRACT: pitchwheel channel=5 pitch=2560 time=0.05434775
EXTRACT: pitchwheel channel=5 pitch=3456 time=0.05434775
EXTRACT: pitchwheel channel=5 pitch=0 time=0
EXTRACT: note_off channel=5 note=57 velocity=95 time=0
EXTRACT: note_on channel=5 note=62 velocity=95 time=0
EXTRACT: note_off channel=9 note=42 velocity=47 time=0
EXTRACT: note_on channel=9 note=38 velocity=111 time=0
EXTRACT: note_on channel=9 note=54 velocity=111 time=0
EXTRACT: note_on channel=9 note=41 velocity=111 time=0
EXTRACT: note_on channel=9 note=39 velocity=95 time=0
EXTRACT: note_on channel=9 note=42 velocity=95 time=0
EXTRACT: note_on channel=9 note=51 velocity=79 time=0
EXTRACT: pitchwheel channel=5 pitch=0 time=0.07246366666666668
EXTRACT: pitchwheel channel=5 pitch=128 time=0.07246366666666668
EXTRACT: pitchwheel channel=5 pitch=0 time=0.07246366666666668
EXTRACT: note_on channel=0 note=38 velocity=95 time=0
EXTRACT: note_off channel=9 note=38 velocity=111 time=0
EXTRACT: note_off channel=9 note=54 velocity=111 time=0
EXTRACT: note_off channel=9 note=41 velocity=111 time=0
EXTRACT: note_off channel=9 note=39 velocity=95 time=0
EXTRACT: note_off channel=9 note=42 velocity=95 time=0
EXTRACT: note_off channel=9 note=51 velocity=79 time=0
EXTRACT: note_on channel=9 note=42 velocity=47 time=0
EXTRACT: pitchwheel channel=5 pitch=128 time=0.07246366666666668
EXTRACT: pitchwheel channel=5 pitch=0 time=0.07246366666666668
EXTRACT: pitchwheel channel=5 pitch=128 time=0.07246366666666668
EXTRACT: note_off channel=0 note=38 velocity=95 time=0
EXTRACT: note_on channel=0 note=38 velocity=95 time=0
EXTRACT: note_off channel=9 note=42 velocity=47 time=0
EXTRACT: note_on channel=9 note=35 velocity=127 time=0
EXTRACT: note_on channel=9 note=42 velocity=79 time=0
EXTRACT: note_on channel=9 note=51 velocity=63 time=0
EXTRACT: pitchwheel channel=5 pitch=0 time=0.07246366666666668
EXTRACT: pitchwheel channel=5 pitch=128 time=0.07246366666666668
EXTRACT: pitchwheel channel=5 pitch=0 time=0.07246366666666668
EXTRACT: pitchwheel channel=5 pitch=128 time=0
EXTRACT: pitchwheel channel=5 pitch=0 time=0
EXTRACT: note_off channel=5 note=62 velocity=95 time=0
EXTRACT: note_on channel=4 note=69 velocity=95 time=0
EXTRACT: note_off channel=0 note=38 velocity=95 time=0
EXTRACT: note_off channel=9 note=35 velocity=127 time=0
EXTRACT: note_off channel=9 note=42 velocity=79 time=0
EXTRACT: note_off channel=9 note=51 velocity=63 time=0
EXTRACT: note_on channel=9 note=42 velocity=47 time=0
EXTRACT: note_on channel=0 note=38 velocity=95 time=0.217391
EXTRACT: note_off channel=9 note=42 velocity=47 time=0
EXTRACT: note_on channel=9 note=40 velocity=111 time=0
EXTRACT: note_on channel=9 note=42 velocity=95 time=0
EXTRACT: note_on channel=9 note=51 velocity=79 time=0
EXTRACT: note_off channel=0 note=38 velocity=95 time=0.217391
EXTRACT: note_off channel=9 note=40 velocity=111 time=0
EXTRACT: note_off channel=9 note=42 velocity=95 time=0
EXTRACT: note_off channel=9 note=51 velocity=79 time=0
EXTRACT: note_on channel=9 note=42 velocity=47 time=0
EXTRACT: note_off channel=4 note=69 velocity=95 time=0.217391
EXTRACT: note_on channel=5 note=69 velocity=22 time=0
EXTRACT: note_off channel=9 note=42 velocity=47 time=0
EXTRACT: note_on channel=9 note=42 velocity=79 time=0
EXTRACT: note_on channel=9 note=51 velocity=63 time=0
EXTRACT: pitchwheel channel=5 pitch=-768 time=0.05434775
EXTRACT: pitchwheel channel=5 pitch=-1664 time=0.05434775
EXTRACT: pitchwheel channel=5 pitch=-2560 time=0.05434775
EXTRACT: pitchwheel channel=5 pitch=-3456 time=0.05434775
EXTRACT: pitchwheel channel=5 pitch=0 time=0
EXTRACT: note_off channel=5 note=69 velocity=22 time=0
EXTRACT: note_on channel=4 note=64 velocity=95 time=0
EXTRACT: note_off channel=9 note=42 velocity=79 time=0
EXTRACT: note_off channel=9 note=51 velocity=63 time=0
EXTRACT: note_on channel=9 note=35 velocity=127 time=0
EXTRACT: note_on channel=9 note=42 velocity=47 time=0
EXTRACT: note_off channel=4 note=64 velocity=95 time=0.217391
EXTRACT: note_on channel=4 note=69 velocity=95 time=0
EXTRACT: note_off channel=9 note=35 velocity=127 time=0
EXTRACT: note_off channel=9 note=42 velocity=47 time=0
EXTRACT: note_on channel=9 note=39 velocity=111 time=0
EXTRACT: note_on channel=9 note=41 velocity=111 time=0
EXTRACT: note_on channel=9 note=38 velocity=111 time=0
EXTRACT: note_on channel=9 note=54 velocity=127 time=0
EXTRACT: note_on channel=9 note=42 velocity=95 time=0
EXTRACT: note_on channel=9 note=51 velocity=79 time=0
EXTRACT: note_off channel=9 note=39 velocity=111 time=0.217391
EXTRACT: note_off channel=9 note=41 velocity=111 time=0
EXTRACT: note_off channel=9 note=38 velocity=111 time=0
EXTRACT: note_off channel=9 note=54 velocity=127 time=0
EXTRACT: note_off channel=9 note=42 velocity=95 time=0
EXTRACT: note_off channel=9 note=51 velocity=79 time=0
EXTRACT: note_on channel=9 note=42 velocity=31 time=0
EXTRACT: note_off channel=4 note=69 velocity=95 time=0.217391
EXTRACT: note_on channel=5 note=64 velocity=38 time=0
EXTRACT: note_off channel=9 note=42 velocity=31 time=0
EXTRACT: note_on channel=9 note=35 velocity=127 time=0
EXTRACT: note_on channel=9 note=42 velocity=95 time=0
EXTRACT: note_on channel=9 note=51 velocity=79 time=0
EXTRACT: pitchwheel channel=5 pitch=1152 time=0.05434775
EXTRACT: pitchwheel channel=5 pitch=2432 time=0.05434775
EXTRACT: pitchwheel channel=5 pitch=3584 time=0.05434775
EXTRACT: pitchwheel channel=5 pitch=4864 time=0.05434775
EXTRACT: pitchwheel channel=5 pitch=0 time=0
EXTRACT: note_off channel=5 note=64 velocity=38 time=0
EXTRACT: note_on channel=4 note=71 velocity=63 time=0
EXTRACT: note_on channel=0 note=40 velocity=79 time=0
EXTRACT: note_off channel=9 note=35 velocity=127 time=0
EXTRACT: note_off channel=9 note=42 velocity=95 time=0
EXTRACT: note_off channel=9 note=51 velocity=79 time=0
EXTRACT: note_on channel=9 note=42 velocity=47 time=0
EXTRACT: note_off channel=4 note=71 velocity=63 time=0.217391
EXTRACT: note_off channel=0 note=40 velocity=79 time=0
EXTRACT: note_on channel=0 note=40 velocity=95 time=0
EXTRACT: note_off channel=9 note=42 velocity=47 time=0
EXTRACT: note_on channel=9 note=40 velocity=111 time=0
EXTRACT: note_on channel=9 note=42 velocity=95 time=0
EXTRACT: note_on channel=9 note=51 velocity=79 time=0
EXTRACT: note_on channel=4 note=79 velocity=95 time=0.0869564
EXTRACT: note_off channel=4 note=79 velocity=95 time=0.0869564
EXTRACT: note_on channel=4 note=74 velocity=70 time=0
EXTRACT: note_off channel=0 note=40 velocity=95 time=0.0434782
EXTRACT: note_off channel=9 note=40 velocity=111 time=0
EXTRACT: note_off channel=9 note=42 velocity=95 time=0
EXTRACT: note_off channel=9 note=51 velocity=79 time=0
EXTRACT: note_on channel=9 note=42 velocity=47 time=0
EXTRACT: note_off channel=4 note=74 velocity=70 time=0.0434782
EXTRACT: note_on channel=4 note=78 velocity=70 time=0
EXTRACT: note_off channel=4 note=78 velocity=70 time=0.0869564
EXTRACT: note_on channel=4 note=79 velocity=70 time=0
EXTRACT: note_off channel=4 note=79 velocity=70 time=0.0869564
EXTRACT: note_on channel=4 note=78 velocity=70 time=0
EXTRACT: note_on channel=0 note=40 velocity=95 time=0
EXTRACT: note_off channel=9 note=42 velocity=47 time=0
EXTRACT: note_on channel=9 note=35 velocity=127 time=0
EXTRACT: note_on channel=9 note=42 velocity=79 time=0
EXTRACT: note_on channel=9 note=51 velocity=63 time=0
EXTRACT: note_off channel=4 note=78 velocity=70 time=0.0869564
EXTRACT: note_on channel=4 note=76 velocity=70 time=0
EXTRACT: note_off channel=4 note=76 velocity=70 time=0.0869564
EXTRACT: note_on channel=4 note=74 velocity=70 time=0
EXTRACT: note_off channel=0 note=40 velocity=95 time=0.0434782
EXTRACT: note_off channel=9 note=35 velocity=127 time=0
EXTRACT: note_off channel=9 note=42 velocity=79 time=0
EXTRACT: note_off channel=9 note=51 velocity=63 time=0
EXTRACT: note_on channel=9 note=42 velocity=47 time=0
EXTRACT: note_off channel=4 note=74 velocity=70 time=0.0434782
EXTRACT: note_on channel=4 note=78 velocity=70 time=0
EXTRACT: note_off channel=4 note=78 velocity=70 time=0.0869564
EXTRACT: note_on channel=4 note=79 velocity=70 time=0
EXTRACT: note_off channel=4 note=79 velocity=70 time=0.0869564
EXTRACT: note_on channel=4 note=78 velocity=70 time=0
EXTRACT: note_off channel=9 note=42 velocity=47 time=0
EXTRACT: note_on channel=9 note=42 velocity=95 time=0
EXTRACT: note_on channel=9 note=51 velocity=79 time=0
EXTRACT: note_on channel=9 note=39 velocity=95 time=0
EXTRACT: note_on channel=9 note=38 velocity=95 time=0
EXTRACT: note_on channel=9 note=41 velocity=111 time=0
EXTRACT: note_on channel=9 note=54 velocity=127 time=0
EXTRACT: note_off channel=4 note=78 velocity=70 time=0.07246366666666668
EXTRACT: note_on channel=4 note=76 velocity=70 time=0
EXTRACT: note_off channel=4 note=76 velocity=70 time=0.07246366666666668
EXTRACT: note_on channel=4 note=74 velocity=70 time=0
EXTRACT: note_off channel=4 note=74 velocity=70 time=0.07246366666666668
EXTRACT: note_on channel=4 note=78 velocity=70 time=0
EXTRACT: note_on channel=0 note=38 velocity=95 time=0
EXTRACT: note_off channel=9 note=42 velocity=95 time=0
EXTRACT: note_off channel=9 note=51 velocity=79 time=0
EXTRACT: note_off channel=9 note=39 velocity=95 time=0
EXTRACT: note_off channel=9 note=38 velocity=95 time=0
EXTRACT: note_off channel=9 note=41 velocity=111 time=0
EXTRACT: note_off channel=9 note=54 velocity=127 time=0
EXTRACT: note_on channel=9 note=42 velocity=47 time=0
EXTRACT: note_off channel=4 note=78 velocity=70 time=0.07246366666666668
EXTRACT: note_on channel=4 note=79 velocity=70 time=0
EXTRACT: note_off channel=4 note=79 velocity=70 time=0.07246366666666668
EXTRACT: note_on channel=4 note=78 velocity=70 time=0
EXTRACT: note_off channel=4 note=78 velocity=70 time=0.07246366666666668
EXTRACT: note_on channel=4 note=76 velocity=70 time=0
EXTRACT: note_off channel=0 note=38 velocity=95 time=0
EXTRACT: note_on channel=0 note=38 velocity=95 time=0
EXTRACT: note_off channel=9 note=42 velocity=47 time=0
EXTRACT: note_on channel=9 note=42 velocity=95 time=0
EXTRACT: note_on channel=9 note=51 velocity=79 time=0
EXTRACT: note_on channel=9 note=35 velocity=127 time=0
EXTRACT: note_off channel=4 note=76 velocity=70 time=0.07246366666666668
EXTRACT: note_on channel=4 note=74 velocity=70 time=0
EXTRACT: note_off channel=4 note=74 velocity=70 time=0.07246366666666668
EXTRACT: note_on channel=4 note=73 velocity=95 time=0
EXTRACT: note_off channel=4 note=73 velocity=95 time=0.07246366666666668
EXTRACT: note_on channel=4 note=74 velocity=70 time=0
EXTRACT: note_off channel=0 note=38 velocity=95 time=0
EXTRACT: note_off channel=9 note=42 velocity=95 time=0
EXTRACT: note_off channel=9 note=51 velocity=79 time=0
EXTRACT: note_off channel=9 note=35 velocity=127 time=0
EXTRACT: note_on channel=9 note=42 velocity=31 time=0
EXTRACT: note_off channel=4 note=74 velocity=70 time=0.07246366666666668
EXTRACT: note_on channel=4 note=73 velocity=70 time=0
EXTRACT: note_off channel=4 note=73 velocity=70 time=0.07246366666666668
EXTRACT: note_on channel=4 note=71 velocity=70 time=0
EXTRACT: note_off channel=4 note=71 velocity=70 time=0.07246366666666668
EXTRACT: note_on channel=4 note=69 velocity=70 time=0
EXTRACT: note_on channel=0 note=38 velocity=95 time=0
EXTRACT: note_off channel=9 note=42 velocity=31 time=0
EXTRACT: note_on channel=9 note=42 velocity=95 time=0
EXTRACT: note_on channel=9 note=51 velocity=79 time=0
EXTRACT: note_on channel=9 note=40 velocity=111 time=0
EXTRACT: note_off channel=4 note=69 velocity=70 time=0.07246366666666668
EXTRACT: note_on channel=4 note=73 velocity=70 time=0
EXTRACT: note_off channel=4 note=73 velocity=70 time=0.07246366666666668
EXTRACT: note_on channel=4 note=74 velocity=70 time=0
EXTRACT: note_off channel=4 note=74 velocity=70 time=0.07246366666666668
EXTRACT: note_on channel=4 note=73 velocity=70 time=0
EXTRACT: note_off channel=0 note=38 velocity=95 time=0
EXTRACT: note_off channel=9 note=42 velocity=95 time=0
EXTRACT: note_off channel=9 note=51 velocity=79 time=0
EXTRACT: note_off channel=9 note=40 velocity=111 time=0
EXTRACT: note_on channel=9 note=42 velocity=47 time=0
EXTRACT: note_off channel=4 note=73 velocity=70 time=0.07246366666666668
EXTRACT: note_on channel=4 note=71 velocity=70 time=0
EXTRACT: note_off channel=4 note=71 velocity=70 time=0.07246366666666668
EXTRACT: note_on channel=4 note=69 velocity=70 time=0
EXTRACT: note_off channel=4 note=69 velocity=70 time=0.07246366666666668
EXTRACT: note_on channel=4 note=71 velocity=70 time=0
EXTRACT: note_off channel=9 note=42 velocity=47 time=0
EXTRACT: note_on channel=9 note=42 velocity=95 time=0
EXTRACT: note_on channel=9 note=51 velocity=79 time=0
EXTRACT: note_off channel=4 note=71 velocity=70 time=0.217391
EXTRACT: note_on channel=4 note=72 velocity=70 time=0
EXTRACT: note_off channel=9 note=42 velocity=95 time=0
EXTRACT: note_off channel=9 note=51 velocity=79 time=0
EXTRACT: note_on channel=9 note=35 velocity=127 time=0
EXTRACT: note_on channel=9 note=42 velocity=47 time=0
EXTRACT: note_off channel=4 note=72 velocity=70 time=0.217391
EXTRACT: note_on channel=5 note=71 velocity=70 time=0
EXTRACT: note_off channel=9 note=35 velocity=127 time=0
EXTRACT: note_off channel=9 note=42 velocity=47 time=0
EXTRACT: note_on channel=9 note=38 velocity=111 time=0
EXTRACT: note_on channel=9 note=39 velocity=95 time=0
EXTRACT: note_on channel=9 note=54 velocity=111 time=0
EXTRACT: note_on channel=9 note=41 velocity=111 time=0
EXTRACT: note_on channel=9 note=42 velocity=95 time=0
EXTRACT: note_on channel=9 note=51 velocity=79 time=0
EXTRACT: pitchwheel channel=5 pitch=512 time=0.05434775
EXTRACT: pitchwheel channel=5 pitch=1152 time=0.05434775
EXTRACT: pitchwheel channel=5 pitch=1792 time=0.05434775
EXTRACT: pitchwheel channel=5 pitch=2432 time=0.05434775
EXTRACT: note_off channel=9 note=38 velocity=111 time=0
EXTRACT: note_off channel=9 note=39 velocity=95 time=0
EXTRACT: note_off channel=9 note=54 velocity=111 time=0
EXTRACT: note_off channel=9 note=41 velocity=111 time=0
EXTRACT: note_off channel=9 note=42 velocity=95 time=0
EXTRACT: note_off channel=9 note=51 velocity=79 time=0
EXTRACT: note_on channel=9 note=42 velocity=47 time=0
EXTRACT: pitchwheel channel=5 pitch=3072 time=0.05434775
EXTRACT: pitchwheel channel=5 pitch=3584 time=0.05434775
EXTRACT: pitchwheel channel=5 pitch=4224 time=0.05434775
EXTRACT: pitchwheel channel=5 pitch=4864 time=0.05434775
EXTRACT: pitchwheel channel=5 pitch=0 time=0
EXTRACT: note_off channel=5 note=71 velocity=70 time=0
EXTRACT: note_on channel=4 note=78 velocity=95 time=0
EXTRACT: note_off channel=9 note=42 velocity=47 time=0
EXTRACT: note_on channel=9 note=35 velocity=127 time=0
EXTRACT: note_on channel=9 note=42 velocity=111 time=0
EXTRACT: note_on channel=0 note=36 velocity=95 time=0.217391
EXTRACT: note_off channel=9 note=35 velocity=127 time=0
EXTRACT: note_off channel=9 note=42 velocity=111 time=0
EXTRACT: note_on channel=9 note=42 velocity=47 time=0
EXTRACT: note_off channel=4 note=78 velocity=95 time=0.217391
EXTRACT: note_on channel=4 note=71 velocity=95 time=0
EXTRACT: note_off channel=0 note=36 velocity=95 time=0
EXTRACT: note_on channel=0 note=36 velocity=95 time=0
EXTRACT: note_off channel=9 note=42 velocity=47 time=0
EXTRACT: note_on channel=9 note=40 velocity=111 time=0
EXTRACT: note_on channel=9 note=42 velocity=63 time=0
EXTRACT: note_on channel=9 note=51 velocity=63 time=0
EXTRACT: note_off channel=4 note=71 velocity=95 time=0.0869564
EXTRACT: note_on channel=4 note=74 velocity=70 time=0
EXTRACT: note_off channel=4 note=74 velocity=70 time=0.0869564
EXTRACT: note_on channel=5 note=78 velocity=95 time=0
EXTRACT: note_off channel=0 note=36 velocity=95 time=0.0434782
EXTRACT: note_off channel=9 note=40 velocity=111 time=0
EXTRACT: note_off channel=9 note=42 velocity=63 time=0
EXTRACT: note_off channel=9 note=51 velocity=63 time=0
EXTRACT: note_on channel=9 note=42 velocity=15 time=0
EXTRACT: pitchwheel channel=5 pitch=-1408 time=0.0434782
EXTRACT: pitchwheel channel=5 pitch=0 time=0
EXTRACT: note_off channel=5 note=78 velocity=95 time=0
EXTRACT: note_on channel=4 note=76 velocity=95 time=0
EXTRACT: note_off channel=4 note=76 velocity=95 time=0.0869564
EXTRACT: note_on channel=4 note=83 velocity=70 time=0
EXTRACT: note_off channel=4 note=83 velocity=70 time=0.0869564
EXTRACT: note_on channel=4 note=79 velocity=95 time=0
EXTRACT: note_on channel=0 note=36 velocity=95 time=0
EXTRACT: note_off channel=9 note=42 velocity=15 time=0
EXTRACT: note_on channel=9 note=35 velocity=127 time=0
EXTRACT: note_on channel=9 note=42 velocity=63 time=0
EXTRACT: note_on channel=9 note=51 velocity=63 time=0
EXTRACT: note_off channel=4 note=79 velocity=95 time=0.0869564
EXTRACT: note_on channel=4 note=76 velocity=70 time=0
EXTRACT: note_off channel=4 note=76 velocity=70 time=0.0869564
EXTRACT: note_on channel=4 note=78 velocity=70 time=0
EXTRACT: note_off channel=0 note=36 velocity=95 time=0.0434782
EXTRACT: note_off channel=9 note=35 velocity=127 time=0
EXTRACT: note_off channel=9 note=42 velocity=63 time=0
EXTRACT: note_off channel=9 note=51 velocity=63 time=0
EXTRACT: note_on channel=9 note=42 velocity=31 time=0
EXTRACT: note_off channel=4 note=78 velocity=70 time=0.0434782
EXTRACT: note_on channel=4 note=76 velocity=70 time=0
EXTRACT: note_off channel=4 note=76 velocity=70 time=0.0869564
EXTRACT: note_on channel=4 note=78 velocity=95 time=0
EXTRACT: note_off channel=4 note=78 velocity=95 time=0.0869564
EXTRACT: note_on channel=4 note=74 velocity=95 time=0
EXTRACT: note_off channel=9 note=42 velocity=31 time=0
EXTRACT: note_on channel=9 note=38 velocity=111 time=0
EXTRACT: note_on channel=9 note=39 velocity=95 time=0
EXTRACT: note_on channel=9 note=41 velocity=111 time=0
EXTRACT: note_on channel=9 note=54 velocity=95 time=0
EXTRACT: note_on channel=9 note=42 velocity=79 time=0
EXTRACT: note_on channel=9 note=51 velocity=63 time=0
EXTRACT: note_off channel=4 note=74 velocity=95 time=0.0869564
EXTRACT: note_on channel=4 note=79 velocity=95 time=0
EXTRACT: note_off channel=4 note=79 velocity=95 time=0.0869564
EXTRACT: note_on channel=4 note=76 velocity=70 time=0
EXTRACT: note_on channel=0 note=38 velocity=95 time=0.0434782
EXTRACT: note_off channel=9 note=38 velocity=111 time=0
EXTRACT: note_off channel=9 note=39 velocity=95 time=0
EXTRACT: note_off channel=9 note=41 velocity=111 time=0
EXTRACT: note_off channel=9 note=54 velocity=95 time=0
EXTRACT: note_off channel=9 note=42 velocity=79 time=0
EXTRACT: note_off channel=9 note=51 velocity=63 time=0
EXTRACT: note_on channel=9 note=42 velocity=31 time=0
EXTRACT: note_off channel=4 note=76 velocity=70 time=0.0434782
EXTRACT: note_on channel=4 note=78 velocity=70 time=0
EXTRACT: note_off channel=4 note=78 velocity=70 time=0.0869564
EXTRACT: note_on channel=4 note=74 velocity=95 time=0
EXTRACT: note_off channel=4 note=74 velocity=95 time=0.0869564
EXTRACT: note_on channel=4 note=71 velocity=70 time=0
EXTRACT: note_off channel=0 note=38 velocity=95 time=0
EXTRACT: note_on channel=0 note=38 velocity=95 time=0
EXTRACT: note_off channel=9 note=42 velocity=31 time=0
EXTRACT: note_on channel=9 note=35 velocity=127 time=0
EXTRACT: note_on channel=9 note=42 velocity=63 time=0
EXTRACT: note_on channel=9 note=51 velocity=63 time=0
EXTRACT: note_off channel=4 note=71 velocity=70 time=0.06204701458333334
EXTRACT: note_on channel=4 note=74 velocity=70 time=0
EXTRACT: note_off channel=4 note=74 velocity=70 time=0.06204701458333334
EXTRACT: note_on channel=4 note=76 velocity=95 time=0
EXTRACT: note_off channel=4 note=76 velocity=95 time=0.06204701458333334
EXTRACT: note_on channel=4 note=78 velocity=70 time=0
EXTRACT: note_off channel=0 note=38 velocity=95 time=0.031249956250000002
EXTRACT: note_off channel=9 note=35 velocity=127 time=0
EXTRACT: note_off channel=9 note=42 velocity=63 time=0
EXTRACT: note_off channel=9 note=51 velocity=63 time=0
EXTRACT: note_on channel=9 note=42 velocity=31 time=0
EXTRACT: note_off channel=4 note=78 velocity=70 time=0.030797058333333335
EXTRACT: note_on channel=4 note=74 velocity=95 time=0
EXTRACT: note_off channel=4 note=74 velocity=95 time=0.06204701458333334
EXTRACT: note_on channel=4 note=71 velocity=70 time=0
EXTRACT: note_off channel=4 note=71 velocity=70 time=0.06204701458333334
EXTRACT: note_on channel=4 note=74 velocity=70 time=0
EXTRACT: note_off channel=4 note=74 velocity=70 time=0.06204701458333334
EXTRACT: note_on channel=4 note=76 velocity=95 time=0
EXTRACT: note_on channel=0 note=38 velocity=95 time=0.0004528979166666667
EXTRACT: note_off channel=9 note=42 velocity=31 time=0
EXTRACT: note_on channel=9 note=42 velocity=79 time=0
EXTRACT: note_on channel=9 note=51 velocity=63 time=0
EXTRACT: note_on channel=9 note=40 velocity=111 time=0
EXTRACT: note_off channel=4 note=76 velocity=95 time=0.10824260208333333
EXTRACT: note_on channel=4 note=71 velocity=95 time=0
EXTRACT: note_on channel=5 note=69 velocity=63 time=0.027173875
EXTRACT: note_off channel=4 note=71 velocity=95 time=0.081521625
EXTRACT: note_off channel=5 note=69 velocity=63 time=0
EXTRACT: pitchwheel channel=5 pitch=0 time=0
EXTRACT: note_on channel=5 note=69 velocity=95 time=0
EXTRACT: note_off channel=0 note=38 velocity=95 time=0.0004528979166666667
EXTRACT: note_off channel=9 note=42 velocity=79 time=0
EXTRACT: note_off channel=9 note=51 velocity=63 time=0
EXTRACT: note_off channel=9 note=40 velocity=111 time=0
EXTRACT: note_on channel=9 note=42 velocity=31 time=0
EXTRACT: pitchwheel channel=5 pitch=128 time=0.009057958333333335
EXTRACT: pitchwheel channel=5 pitch=256 time=0.00951085625
EXTRACT: pitchwheel channel=5 pitch=384 time=0.00951085625
EXTRACT: pitchwheel channel=5 pitch=512 time=0.00951085625
EXTRACT: pitchwheel channel=5 pitch=640 time=0.00951085625
EXTRACT: pitchwheel channel=5 pitch=768 time=0.00951085625
EXTRACT: pitchwheel channel=5 pitch=896 time=0.00951085625
EXTRACT: pitchwheel channel=5 pitch=1024 time=0.00951085625
EXTRACT: pitchwheel channel=5 pitch=1152 time=0.00951085625
EXTRACT: pitchwheel channel=5 pitch=1280 time=0.00951085625
EXTRACT: pitchwheel channel=5 pitch=1408 time=0.00951085625
EXTRACT: pitchwheel channel=5 pitch=1408 time=0.00407608125
EXTRACT: pitchwheel channel=5 pitch=1408 time=0.1086955
EXTRACT: pitchwheel channel=5 pitch=0 time=0
EXTRACT: note_off channel=5 note=69 velocity=95 time=0
EXTRACT: pitchwheel channel=5 pitch=0 time=0
EXTRACT: note_on channel=5 note=69 velocity=95 time=0
EXTRACT: note_off channel=9 note=42 velocity=31 time=0.0004528979166666667
EXTRACT: note_on channel=9 note=42 velocity=63 time=0
EXTRACT: note_on channel=9 note=51 velocity=63 time=0
EXTRACT: pitchwheel channel=5 pitch=128 time=0.0018115916666666667
EXTRACT: pitchwheel channel=5 pitch=256 time=0.0022644895833333336
EXTRACT: pitchwheel channel=5 pitch=384 time=0.0022644895833333336
EXTRACT: pitchwheel channel=5 pitch=512 time=0.0022644895833333336
EXTRACT: pitchwheel channel=5 pitch=640 time=0.0022644895833333336
EXTRACT: pitchwheel channel=5 pitch=768 time=0.0022644895833333336
EXTRACT: pitchwheel channel=5 pitch=896 time=0.0022644895833333336
EXTRACT: pitchwheel channel=5 pitch=1024 time=0.0022644895833333336
EXTRACT: pitchwheel channel=5 pitch=1152 time=0.0022644895833333336
EXTRACT: pitchwheel channel=5 pitch=1280 time=0.0022644895833333336
EXTRACT: pitchwheel channel=5 pitch=1408 time=0.0022644895833333336
EXTRACT: pitchwheel channel=5 pitch=1408 time=0.0022644895833333336
EXTRACT: pitchwheel channel=5 pitch=1408 time=0.027173875
EXTRACT: pitchwheel channel=5 pitch=1280 time=0.0022644895833333336
EXTRACT: pitchwheel channel=5 pitch=1152 time=0.0022644895833333336
EXTRACT: pitchwheel channel=5 pitch=1024 time=0.0022644895833333336
EXTRACT: pitchwheel channel=5 pitch=896 time=0.0022644895833333336
EXTRACT: pitchwheel channel=5 pitch=768 time=0.0022644895833333336
EXTRACT: pitchwheel channel=5 pitch=640 time=0.0022644895833333336
EXTRACT: pitchwheel channel=5 pitch=512 time=0.0022644895833333336
EXTRACT: pitchwheel channel=5 pitch=384 time=0.0022644895833333336
EXTRACT: pitchwheel channel=5 pitch=256 time=0.0022644895833333336
EXTRACT: pitchwheel channel=5 pitch=128 time=0.0022644895833333336
EXTRACT: pitchwheel channel=5 pitch=0 time=0.0022644895833333336
EXTRACT: pitchwheel channel=5 pitch=0 time=0.0022644895833333336
EXTRACT: pitchwheel channel=5 pitch=0 time=0.027173875
EXTRACT: pitchwheel channel=5 pitch=0 time=0
EXTRACT: note_off channel=5 note=69 velocity=95 time=0
EXTRACT: note_on channel=4 note=67 velocity=95 time=0
EXTRACT: note_on channel=5 note=74 velocity=63 time=0.027173875
EXTRACT: note_off channel=4 note=67 velocity=95 time=0.081521625
EXTRACT: note_off channel=5 note=74 velocity=63 time=0
EXTRACT: pitchwheel channel=5 pitch=0 time=0
EXTRACT: note_on channel=5 note=74 velocity=95 time=0
EXTRACT: note_off channel=9 note=42 velocity=63 time=0.0004528979166666667
EXTRACT: note_off channel=9 note=51 velocity=63 time=0
EXTRACT: note_on channel=9 note=35 velocity=127 time=0
EXTRACT: note_on channel=9 note=42 velocity=31 time=0
EXTRACT: pitchwheel channel=5 pitch=128 time=0.0190217125
EXTRACT: pitchwheel channel=5 pitch=256 time=0.019474610416666666
EXTRACT: pitchwheel channel=5 pitch=384 time=0.019474610416666666
EXTRACT: pitchwheel channel=5 pitch=512 time=0.019474610416666666
EXTRACT: pitchwheel channel=5 pitch=640 time=0.019474610416666666
EXTRACT: pitchwheel channel=5 pitch=768 time=0.019474610416666666
EXTRACT: pitchwheel channel=5 pitch=896 time=0.019474610416666666
EXTRACT: pitchwheel channel=5 pitch=1024 time=0.019474610416666666
EXTRACT: pitchwheel channel=5 pitch=1152 time=0.019474610416666666
EXTRACT: pitchwheel channel=5 pitch=1280 time=0.019474610416666666
EXTRACT: pitchwheel channel=5 pitch=1408 time=0.019474610416666666
EXTRACT: pitchwheel channel=5 pitch=1408 time=0.0031702854166666666
EXTRACT: note_off channel=9 note=35 velocity=127 time=0.0004528979166666667
EXTRACT: note_off channel=9 note=42 velocity=31 time=0
EXTRACT: note_on channel=9 note=38 velocity=111 time=0
EXTRACT: note_on channel=9 note=39 velocity=111 time=0
EXTRACT: note_on channel=9 note=54 velocity=95 time=0
EXTRACT: note_on channel=9 note=41 velocity=111 time=0
EXTRACT: note_on channel=9 note=42 velocity=79 time=0
EXTRACT: note_on channel=9 note=51 velocity=63 time=0
EXTRACT: pitchwheel channel=5 pitch=1408 time=0.21693810208333333
EXTRACT: pitchwheel channel=5 pitch=0 time=0
EXTRACT: note_off channel=5 note=74 velocity=95 time=0
EXTRACT: pitchwheel channel=5 pitch=0 time=0
EXTRACT: note_on channel=5 note=74 velocity=95 time=0
EXTRACT: note_off channel=9 note=38 velocity=111 time=0.0004528979166666667
EXTRACT: note_off channel=9 note=39 velocity=111 time=0
EXTRACT: note_off channel=9 note=54 velocity=95 time=0
EXTRACT: note_off channel=9 note=41 velocity=111 time=0
EXTRACT: note_off channel=9 note=42 velocity=79 time=0
EXTRACT: note_off channel=9 note=51 velocity=63 time=0
EXTRACT: note_on channel=9 note=42 velocity=31 time=0
EXTRACT: pitchwheel channel=5 pitch=128 time=0.0018115916666666667
EXTRACT: pitchwheel channel=5 pitch=256 time=0.0022644895833333336
EXTRACT: pitchwheel channel=5 pitch=384 time=0.0022644895833333336
EXTRACT: pitchwheel channel=5 pitch=512 time=0.0022644895833333336
EXTRACT: pitchwheel channel=5 pitch=640 time=0.0022644895833333336
EXTRACT: pitchwheel channel=5 pitch=768 time=0.0022644895833333336
EXTRACT: pitchwheel channel=5 pitch=896 time=0.0022644895833333336
EXTRACT: pitchwheel channel=5 pitch=1024 time=0.0022644895833333336
EXTRACT: pitchwheel channel=5 pitch=1152 time=0.0022644895833333336
EXTRACT: pitchwheel channel=5 pitch=1280 time=0.0022644895833333336
EXTRACT: pitchwheel channel=5 pitch=1408 time=0.0022644895833333336
EXTRACT: pitchwheel channel=5 pitch=1408 time=0.0022644895833333336
EXTRACT: pitchwheel channel=5 pitch=1408 time=0.027173875
EXTRACT: pitchwheel channel=5 pitch=1280 time=0.0022644895833333336
EXTRACT: pitchwheel channel=5 pitch=1152 time=0.0022644895833333336
EXTRACT: pitchwheel channel=5 pitch=1024 time=0.0022644895833333336
EXTRACT: pitchwheel channel=5 pitch=896 time=0.0022644895833333336
EXTRACT: pitchwheel channel=5 pitch=768 time=0.0022644895833333336
EXTRACT: pitchwheel channel=5 pitch=640 time=0.0022644895833333336
EXTRACT: pitchwheel channel=5 pitch=512 time=0.0022644895833333336
EXTRACT: pitchwheel channel=5 pitch=384 time=0.0022644895833333336
EXTRACT: pitchwheel channel=5 pitch=256 time=0.0022644895833333336
EXTRACT: pitchwheel channel=5 pitch=128 time=0.0022644895833333336
EXTRACT: pitchwheel channel=5 pitch=0 time=0.0022644895833333336
EXTRACT: pitchwheel channel=5 pitch=0 time=0.0022644895833333336
EXTRACT: pitchwheel channel=5 pitch=0 time=0.027173875
EXTRACT: pitchwheel channel=5 pitch=0 time=0
EXTRACT: note_off channel=5 note=74 velocity=95 time=0
EXTRACT: note_on channel=4 note=71 velocity=95 time=0
EXTRACT: note_off channel=4 note=71 velocity=95 time=0.1086955
EXTRACT: note_on channel=4 note=74 velocity=95 time=0.0004528979166666667
EXTRACT: note_off channel=9 note=42 velocity=31 time=0
EXTRACT: note_on channel=9 note=42 velocity=79 time=0
EXTRACT: note_on channel=9 note=51 velocity=63 time=0
EXTRACT: note_on channel=9 note=35 velocity=127 time=0
EXTRACT: note_off channel=4 note=74 velocity=95 time=0.07246366666666668
EXTRACT: note_on channel=5 note=76 velocity=70 time=0
EXTRACT: pitchwheel channel=5 pitch=3456 time=0.07246366666666668
EXTRACT: pitchwheel channel=5 pitch=0 time=0
EXTRACT: note_off channel=5 note=76 velocity=70 time=0
EXTRACT: note_on channel=4 note=81 velocity=95 time=0
EXTRACT: note_off channel=4 note=81 velocity=95 time=0.07246366666666668
EXTRACT: note_on channel=4 note=74 velocity=95 time=0
EXTRACT: note_on channel=0 note=40 velocity=79 time=0
EXTRACT: note_off channel=9 note=42 velocity=79 time=0
EXTRACT: note_off channel=9 note=51 velocity=63 time=0
EXTRACT: note_off channel=9 note=35 velocity=127 time=0
EXTRACT: note_on channel=9 note=42 velocity=47 time=0
EXTRACT: note_off channel=4 note=74 velocity=95 time=0.07246366666666668
EXTRACT: note_on channel=5 note=81 velocity=95 time=0
EXTRACT: pitchwheel channel=5 pitch=2048 time=0.07246366666666668
EXTRACT: pitchwheel channel=5 pitch=0 time=0
EXTRACT: note_off channel=5 note=81 velocity=95 time=0
EXTRACT: note_on channel=4 note=84 velocity=95 time=0
EXTRACT: note_off channel=4 note=84 velocity=95 time=0.07246366666666668
EXTRACT: note_on channel=4 note=74 velocity=95 time=0
EXTRACT: note_off channel=0 note=40 velocity=79 time=0
EXTRACT: note_on channel=0 note=40 velocity=95 time=0
EXTRACT: note_off channel=9 note=42 velocity=47 time=0
EXTRACT: note_on channel=9 note=40 velocity=111 time=0
EXTRACT: note_on channel=9 note=42 velocity=79 time=0
EXTRACT: note_on channel=9 note=51 velocity=63 time=0
EXTRACT: note_off channel=4 note=74 velocity=95 time=0.1086955
EXTRACT: note_on channel=4 note=71 velocity=70 time=0
EXTRACT: note_on channel=5 note=69 velocity=63 time=0.027173875
EXTRACT: note_off channel=4 note=71 velocity=70 time=0.081521625
EXTRACT: note_off channel=5 note=69 velocity=63 time=0
EXTRACT: pitchwheel channel=5 pitch=0 time=0
EXTRACT: note_on channel=5 note=69 velocity=95 time=0
EXTRACT: note_off channel=0 note=40 velocity=95 time=0
EXTRACT: note_off channel=9 note=40 velocity=111 time=0
EXTRACT: note_off channel=9 note=42 velocity=79 time=0
EXTRACT: note_off channel=9 note=51 velocity=63 time=0
EXTRACT: note_on channel=9 note=42 velocity=47 time=0
EXTRACT: pitchwheel channel=5 pitch=128 time=0.014492733333333334
EXTRACT: pitchwheel channel=5 pitch=256 time=0.014492733333333334
EXTRACT: pitchwheel channel=5 pitch=384 time=0.014492733333333334
EXTRACT: pitchwheel channel=5 pitch=512 time=0.014492733333333334
EXTRACT: pitchwheel channel=5 pitch=640 time=0.014492733333333334
EXTRACT: pitchwheel channel=5 pitch=768 time=0.014492733333333334
EXTRACT: pitchwheel channel=5 pitch=896 time=0.014492733333333334
EXTRACT: pitchwheel channel=5 pitch=1024 time=0.014492733333333334
EXTRACT: pitchwheel channel=5 pitch=1152 time=0.014492733333333334
EXTRACT: pitchwheel channel=5 pitch=1280 time=0.014492733333333334
EXTRACT: pitchwheel channel=5 pitch=1408 time=0.014492733333333334
EXTRACT: pitchwheel channel=5 pitch=1408 time=0.0036231833333333335
EXTRACT: note_on channel=0 note=40 velocity=95 time=0.05434775
EXTRACT: note_off channel=9 note=42 velocity=47 time=0
EXTRACT: note_on channel=9 note=35 velocity=127 time=0
EXTRACT: note_on channel=9 note=42 velocity=79 time=0
EXTRACT: note_on channel=9 note=51 velocity=63 time=0
EXTRACT: pitchwheel channel=5 pitch=1408 time=0.1086955
EXTRACT: pitchwheel channel=5 pitch=0 time=0
EXTRACT: note_off channel=5 note=69 velocity=95 time=0
EXTRACT: pitchwheel channel=5 pitch=0 time=0
EXTRACT: note_on channel=5 note=69 velocity=95 time=0
EXTRACT: pitchwheel channel=5 pitch=128 time=0.0022644895833333336
EXTRACT: pitchwheel channel=5 pitch=256 time=0.0022644895833333336
EXTRACT: pitchwheel channel=5 pitch=384 time=0.0022644895833333336
EXTRACT: pitchwheel channel=5 pitch=512 time=0.0022644895833333336
EXTRACT: pitchwheel channel=5 pitch=640 time=0.0022644895833333336
EXTRACT: pitchwheel channel=5 pitch=768 time=0.0022644895833333336
EXTRACT: pitchwheel channel=5 pitch=896 time=0.0022644895833333336
EXTRACT: pitchwheel channel=5 pitch=1024 time=0.0022644895833333336
EXTRACT: pitchwheel channel=5 pitch=1152 time=0.0022644895833333336
EXTRACT: pitchwheel channel=5 pitch=1280 time=0.0022644895833333336
EXTRACT: pitchwheel channel=5 pitch=1408 time=0.0022644895833333336
EXTRACT: pitchwheel channel=5 pitch=1408 time=0.0022644895833333336
EXTRACT: pitchwheel channel=5 pitch=1408 time=0.027173875
EXTRACT: pitchwheel channel=5 pitch=1280 time=0.0022644895833333336
EXTRACT: pitchwheel channel=5 pitch=1152 time=0.0022644895833333336
EXTRACT: pitchwheel channel=5 pitch=1024 time=0.0022644895833333336
EXTRACT: pitchwheel channel=5 pitch=896 time=0.0022644895833333336
EXTRACT: pitchwheel channel=5 pitch=768 time=0.0022644895833333336
EXTRACT: pitchwheel channel=5 pitch=640 time=0.0022644895833333336
EXTRACT: pitchwheel channel=5 pitch=512 time=0.0022644895833333336
EXTRACT: pitchwheel channel=5 pitch=384 time=0.0022644895833333336
EXTRACT: pitchwheel channel=5 pitch=256 time=0.0022644895833333336
EXTRACT: pitchwheel channel=5 pitch=128 time=0.0022644895833333336
EXTRACT: pitchwheel channel=5 pitch=0 time=0.0022644895833333336
EXTRACT: pitchwheel channel=5 pitch=0 time=0.0022644895833333336
EXTRACT: pitchwheel channel=5 pitch=0 time=0.027173875
EXTRACT: pitchwheel channel=5 pitch=0 time=0
EXTRACT: note_off channel=5 note=69 velocity=95 time=0
EXTRACT: note_on channel=4 note=67 velocity=95 time=0
EXTRACT: note_off channel=0 note=40 velocity=95 time=0
EXTRACT: note_off channel=9 note=35 velocity=127 time=0
EXTRACT: note_off channel=9 note=42 velocity=79 time=0
EXTRACT: note_off channel=9 note=51 velocity=63 time=0
EXTRACT: note_on channel=9 note=42 velocity=47 time=0
EXTRACT: note_off channel=4 note=67 velocity=95 time=0.1086955
EXTRACT: note_on channel=4 note=55 velocity=70 time=0
EXTRACT: note_off channel=4 note=55 velocity=70 time=0.1086955
EXTRACT: pitchwheel channel=5 pitch=0 time=0
EXTRACT: note_on channel=5 note=55 velocity=95 time=0
EXTRACT: note_off channel=9 note=42 velocity=47 time=0
EXTRACT: note_on channel=9 note=39 velocity=95 time=0
EXTRACT: note_on channel=9 note=38 velocity=95 time=0
EXTRACT: note_on channel=9 note=41 velocity=111 time=0
EXTRACT: note_on channel=9 note=54 velocity=95 time=0
EXTRACT: note_on channel=9 note=42 velocity=79 time=0
EXTRACT: note_on channel=9 note=51 velocity=63 time=0
EXTRACT: pitchwheel channel=5 pitch=128 time=0.019474610416666666
EXTRACT: pitchwheel channel=5 pitch=256 time=0.019474610416666666
EXTRACT: pitchwheel channel=5 pitch=384 time=0.019474610416666666
EXTRACT: pitchwheel channel=5 pitch=512 time=0.019474610416666666
EXTRACT: pitchwheel channel=5 pitch=640 time=0.019474610416666666
EXTRACT: pitchwheel channel=5 pitch=768 time=0.019474610416666666
EXTRACT: pitchwheel channel=5 pitch=896 time=0.019474610416666666
EXTRACT: pitchwheel channel=5 pitch=1024 time=0.019474610416666666
EXTRACT: pitchwheel channel=5 pitch=1152 time=0.019474610416666666
EXTRACT: pitchwheel channel=5 pitch=1280 time=0.019474610416666666
EXTRACT: pitchwheel channel=5 pitch=1408 time=0.019474610416666666
EXTRACT: pitchwheel channel=5 pitch=1408 time=0.0031702854166666666
EXTRACT: note_on channel=0 note=38 velocity=95 time=0
EXTRACT: note_off channel=9 note=39 velocity=95 time=0
EXTRACT: note_off channel=9 note=38 velocity=95 time=0
EXTRACT: note_off channel=9 note=41 velocity=111 time=0
EXTRACT: note_off channel=9 note=54 velocity=95 time=0
EXTRACT: note_off channel=9 note=42 velocity=79 time=0
EXTRACT: note_off channel=9 note=51 velocity=63 time=0
EXTRACT: note_on channel=9 note=42 velocity=47 time=0
EXTRACT: pitchwheel channel=5 pitch=1408 time=0.217391
EXTRACT: note_off channel=0 note=38 velocity=95 time=0
EXTRACT: note_on channel=0 note=38 velocity=95 time=0
EXTRACT: note_off channel=9 note=42 velocity=47 time=0
EXTRACT: note_on channel=9 note=35 velocity=127 time=0
EXTRACT: note_on channel=9 note=42 velocity=79 time=0
EXTRACT: note_on channel=9 note=51 velocity=63 time=0
EXTRACT: pitchwheel channel=5 pitch=1280 time=0.019474610416666666
EXTRACT: pitchwheel channel=5 pitch=1152 time=0.019474610416666666
EXTRACT: pitchwheel channel=5 pitch=1024 time=0.019474610416666666
EXTRACT: pitchwheel channel=5 pitch=896 time=0.019474610416666666
EXTRACT: pitchwheel channel=5 pitch=768 time=0.019474610416666666
EXTRACT: pitchwheel channel=5 pitch=640 time=0.019474610416666666
EXTRACT: pitchwheel channel=5 pitch=512 time=0.019474610416666666
EXTRACT: pitchwheel channel=5 pitch=384 time=0.019474610416666666
EXTRACT: pitchwheel channel=5 pitch=256 time=0.019474610416666666
EXTRACT: pitchwheel channel=5 pitch=128 time=0.019474610416666666
EXTRACT: pitchwheel channel=5 pitch=0 time=0.019474610416666666
EXTRACT: pitchwheel channel=5 pitch=0 time=0.0031702854166666666
EXTRACT: note_off channel=0 note=38 velocity=95 time=0
EXTRACT: note_off channel=9 note=35 velocity=127 time=0
EXTRACT: note_off channel=9 note=42 velocity=79 time=0
EXTRACT: note_off channel=9 note=51 velocity=63 time=0
EXTRACT: note_on channel=9 note=42 velocity=47 time=0
EXTRACT: note_on channel=5 note=64 velocity=95 time=0.13586937500000001
EXTRACT: pitchwheel channel=5 pitch=0 time=0.081521625
EXTRACT: pitchwheel channel=5 pitch=0 time=0
EXTRACT: note_off channel=5 note=55 velocity=95 time=0
EXTRACT: note_off channel=5 note=64 velocity=95 time=0
EXTRACT: pitchwheel channel=5 pitch=0 time=0
EXTRACT: note_on channel=5 note=64 velocity=95 time=0
EXTRACT: note_on channel=0 note=38 velocity=95 time=0
EXTRACT: note_off channel=9 note=42 velocity=47 time=0
EXTRACT: note_on channel=9 note=40 velocity=111 time=0
EXTRACT: note_on channel=9 note=42 velocity=79 time=0
EXTRACT: note_on channel=9 note=51 velocity=63 time=0
EXTRACT: pitchwheel channel=5 pitch=128 time=0.00951085625
EXTRACT: pitchwheel channel=5 pitch=256 time=0.00951085625
EXTRACT: pitchwheel channel=5 pitch=384 time=0.00951085625
EXTRACT: pitchwheel channel=5 pitch=512 time=0.00951085625
EXTRACT: pitchwheel channel=5 pitch=640 time=0.00951085625
EXTRACT: pitchwheel channel=5 pitch=768 time=0.00951085625
EXTRACT: pitchwheel channel=5 pitch=896 time=0.00951085625
EXTRACT: pitchwheel channel=5 pitch=1024 time=0.00951085625
EXTRACT: pitchwheel channel=5 pitch=1152 time=0.00951085625
EXTRACT: pitchwheel channel=5 pitch=1280 time=0.00951085625
EXTRACT: pitchwheel channel=5 pitch=1408 time=0.00951085625
EXTRACT: pitchwheel channel=5 pitch=1408 time=0.00407608125
EXTRACT: pitchwheel channel=5 pitch=1408 time=0.1086955
EXTRACT: pitchwheel channel=5 pitch=0 time=0
EXTRACT: note_off channel=5 note=64 velocity=95 time=0
EXTRACT: pitchwheel channel=5 pitch=0 time=0
EXTRACT: note_on channel=5 note=64 velocity=95 time=0
EXTRACT: note_off channel=0 note=38 velocity=95 time=0
EXTRACT: note_off channel=9 note=40 velocity=111 time=0
EXTRACT: note_off channel=9 note=42 velocity=79 time=0
EXTRACT: note_off channel=9 note=51 velocity=63 time=0
EXTRACT: note_on channel=9 note=42 velocity=47 time=0
EXTRACT: pitchwheel channel=5 pitch=128 time=0.0022644895833333336
EXTRACT: pitchwheel channel=5 pitch=256 time=0.0022644895833333336
EXTRACT: pitchwheel channel=5 pitch=384 time=0.0022644895833333336
EXTRACT: pitchwheel channel=5 pitch=512 time=0.0022644895833333336
EXTRACT: pitchwheel channel=5 pitch=640 time=0.0022644895833333336
EXTRACT: pitchwheel channel=5 pitch=768 time=0.0022644895833333336
EXTRACT: pitchwheel channel=5 pitch=896 time=0.0022644895833333336
EXTRACT: pitchwheel channel=5 pitch=1024 time=0.0022644895833333336
EXTRACT: pitchwheel channel=5 pitch=1152 time=0.0022644895833333336
EXTRACT: pitchwheel channel=5 pitch=1280 time=0.0022644895833333336
EXTRACT: pitchwheel channel=5 pitch=1408 time=0.0022644895833333336
EXTRACT: pitchwheel channel=5 pitch=1408 time=0.0022644895833333336
EXTRACT: pitchwheel channel=5 pitch=1408 time=0.027173875
EXTRACT: pitchwheel channel=5 pitch=1280 time=0.0022644895833333336
EXTRACT: pitchwheel channel=5 pitch=1152 time=0.0022644895833333336
EXTRACT: pitchwheel channel=5 pitch=1024 time=0.0022644895833333336
EXTRACT: pitchwheel channel=5 pitch=896 time=0.0022644895833333336
EXTRACT: pitchwheel channel=5 pitch=768 time=0.0022644895833333336
EXTRACT: pitchwheel channel=5 pitch=640 time=0.0022644895833333336
EXTRACT: pitchwheel channel=5 pitch=512 time=0.0022644895833333336
EXTRACT: pitchwheel channel=5 pitch=384 time=0.0022644895833333336
EXTRACT: pitchwheel channel=5 pitch=256 time=0.0022644895833333336
EXTRACT: pitchwheel channel=5 pitch=128 time=0.0022644895833333336
EXTRACT: pitchwheel channel=5 pitch=0 time=0.0022644895833333336
EXTRACT: pitchwheel channel=5 pitch=0 time=0.0022644895833333336
EXTRACT: pitchwheel channel=5 pitch=0 time=0.027173875
EXTRACT: pitchwheel channel=5 pitch=0 time=0
EXTRACT: note_off channel=5 note=64 velocity=95 time=0
EXTRACT: note_on channel=4 note=62 velocity=95 time=0
EXTRACT: note_off channel=4 note=62 velocity=95 time=0.1086955
EXTRACT: note_on channel=4 note=64 velocity=70 time=0
EXTRACT: note_off channel=9 note=42 velocity=47 time=0
EXTRACT: note_on channel=9 note=42 velocity=95 time=0
EXTRACT: note_on channel=9 note=51 velocity=79 time=0
EXTRACT: note_off channel=4 note=64 velocity=70 time=0.217391
EXTRACT: note_on channel=4 note=62 velocity=70 time=0
EXTRACT: note_off channel=9 note=42 velocity=95 time=0
EXTRACT: note_off channel=9 note=51 velocity=79 time=0
EXTRACT: note_on channel=9 note=35 velocity=127 time=0
EXTRACT: note_on channel=9 note=42 velocity=47 time=0
EXTRACT: note_off channel=4 note=62 velocity=70 time=0.1086955
EXTRACT: note_on channel=4 note=62 velocity=70 time=0
EXTRACT: note_off channel=4 note=62 velocity=70 time=0.1086955
EXTRACT: note_on channel=5 note=62 velocity=70 time=0
EXTRACT: note_off channel=9 note=35 velocity=127 time=0
EXTRACT: note_off channel=9 note=42 velocity=47 time=0
EXTRACT: note_on channel=9 note=54 velocity=95 time=0
EXTRACT: note_on channel=9 note=39 velocity=95 time=0
EXTRACT: note_on channel=9 note=41 velocity=111 time=0
EXTRACT: note_on channel=9 note=38 velocity=95 time=0
EXTRACT: note_on channel=9 note=42 velocity=95 time=0
EXTRACT: note_on channel=9 note=51 velocity=79 time=0
EXTRACT: pitchwheel channel=5 pitch=0 time=0.05434775
EXTRACT: pitchwheel channel=5 pitch=0 time=0.05434775
EXTRACT: pitchwheel channel=5 pitch=0 time=0.05434775
EXTRACT: pitchwheel channel=5 pitch=0 time=0.05434775
EXTRACT: note_off channel=9 note=54 velocity=95 time=0
EXTRACT: note_off channel=9 note=39 velocity=95 time=0
EXTRACT: note_off channel=9 note=41 velocity=111 time=0
EXTRACT: note_off channel=9 note=38 velocity=95 time=0
EXTRACT: note_off channel=9 note=42 velocity=95 time=0
EXTRACT: note_off channel=9 note=51 velocity=79 time=0
EXTRACT: note_on channel=9 note=42 velocity=47 time=0
EXTRACT: pitchwheel channel=5 pitch=0 time=0.05434775
EXTRACT: pitchwheel channel=5 pitch=0 time=0.05434775
EXTRACT: pitchwheel channel=5 pitch=0 time=0.05434775
EXTRACT: pitchwheel channel=5 pitch=0 time=0.05434775
EXTRACT: pitchwheel channel=5 pitch=0 time=0
EXTRACT: note_off channel=9 note=42 velocity=47 time=0
EXTRACT: note_on channel=9 note=35 velocity=127 time=0
EXTRACT: note_on channel=9 note=49 velocity=79 time=0
EXTRACT: note_on channel=9 note=51 velocity=63 time=0
EXTRACT: note_on channel=5 note=58 velocity=63 time=0.13586937500000001
EXTRACT: note_off channel=5 note=62 velocity=70 time=0.081521625
EXTRACT: note_off channel=5 note=58 velocity=63 time=0
EXTRACT: pitchwheel channel=5 pitch=0 time=0
EXTRACT: note_on channel=5 note=62 velocity=95 time=0
EXTRACT: note_on channel=0 note=40 velocity=79 time=0
EXTRACT: note_off channel=9 note=35 velocity=127 time=0
EXTRACT: note_off channel=9 note=49 velocity=79 time=0
EXTRACT: note_off channel=9 note=51 velocity=63 time=0
EXTRACT: note_on channel=9 note=42 velocity=47 time=0
EXTRACT: pitchwheel channel=5 pitch=128 time=0.00951085625
EXTRACT: pitchwheel channel=5 pitch=256 time=0.00951085625
EXTRACT: pitchwheel channel=5 pitch=384 time=0.00951085625
EXTRACT: pitchwheel channel=5 pitch=512 time=0.00951085625
EXTRACT: pitchwheel channel=5 pitch=640 time=0.00951085625
EXTRACT: pitchwheel channel=5 pitch=768 time=0.00951085625
EXTRACT: pitchwheel channel=5 pitch=896 time=0.00951085625
EXTRACT: pitchwheel channel=5 pitch=1024 time=0.00951085625
EXTRACT: pitchwheel channel=5 pitch=1152 time=0.00951085625
EXTRACT: pitchwheel channel=5 pitch=1280 time=0.00951085625
EXTRACT: pitchwheel channel=5 pitch=1408 time=0.00951085625
EXTRACT: pitchwheel channel=5 pitch=1408 time=0.00407608125
EXTRACT: pitchwheel channel=5 pitch=1408 time=0.1086955
EXTRACT: pitchwheel channel=5 pitch=0 time=0
EXTRACT: note_off channel=5 note=62 velocity=95 time=0
EXTRACT: pitchwheel channel=5 pitch=0 time=0
EXTRACT: note_on channel=5 note=62 velocity=95 time=0
EXTRACT: note_off channel=0 note=40 velocity=79 time=0
EXTRACT: note_on channel=0 note=40 velocity=95 time=0
EXTRACT: note_off channel=9 note=42 velocity=47 time=0
EXTRACT: note_on channel=9 note=40 velocity=111 time=0
EXTRACT: note_on channel=9 note=42 velocity=95 time=0
EXTRACT: note_on channel=9 note=51 velocity=79 time=0
EXTRACT: pitchwheel channel=5 pitch=128 time=0.0022644895833333336
EXTRACT: pitchwheel channel=5 pitch=256 time=0.0022644895833333336
EXTRACT: pitchwheel channel=5 pitch=384 time=0.0022644895833333336
EXTRACT: pitchwheel channel=5 pitch=512 time=0.0022644895833333336
EXTRACT: pitchwheel channel=5 pitch=640 time=0.0022644895833333336
EXTRACT: pitchwheel channel=5 pitch=768 time=0.0022644895833333336
EXTRACT: pitchwheel channel=5 pitch=896 time=0.0022644895833333336
EXTRACT: pitchwheel channel=5 pitch=1024 time=0.0022644895833333336
EXTRACT: pitchwheel channel=5 pitch=1152 time=0.0022644895833333336
EXTRACT: pitchwheel channel=5 pitch=1280 time=0.0022644895833333336
EXTRACT: pitchwheel channel=5 pitch=1408 time=0.0022644895833333336
EXTRACT: pitchwheel channel=5 pitch=1408 time=0.0022644895833333336
EXTRACT: pitchwheel channel=5 pitch=1408 time=0.027173875
EXTRACT: pitchwheel channel=5 pitch=1280 time=0.0022644895833333336
EXTRACT: pitchwheel channel=5 pitch=1152 time=0.0022644895833333336
EXTRACT: pitchwheel channel=5 pitch=1024 time=0.0022644895833333336
EXTRACT: pitchwheel channel=5 pitch=896 time=0.0022644895833333336
EXTRACT: pitchwheel channel=5 pitch=768 time=0.0022644895833333336
EXTRACT: pitchwheel channel=5 pitch=640 time=0.0022644895833333336
EXTRACT: pitchwheel channel=5 pitch=512 time=0.0022644895833333336
EXTRACT: pitchwheel channel=5 pitch=384 time=0.0022644895833333336
EXTRACT: pitchwheel channel=5 pitch=256 time=0.0022644895833333336
EXTRACT: pitchwheel channel=5 pitch=128 time=0.0022644895833333336
EXTRACT: pitchwheel channel=5 pitch=0 time=0.0022644895833333336
EXTRACT: pitchwheel channel=5 pitch=0 time=0.0022644895833333336
EXTRACT: pitchwheel channel=5 pitch=0 time=0.027173875
EXTRACT: pitchwheel channel=5 pitch=0 time=0
EXTRACT: note_off channel=5 note=62 velocity=95 time=0
EXTRACT: note_on channel=4 note=59 velocity=95 time=0
EXTRACT: note_off channel=4 note=59 velocity=95 time=0.1086955
EXTRACT: pitchwheel channel=5 pitch=0 time=0
EXTRACT: note_on channel=5 note=62 velocity=70 time=0
EXTRACT: note_off channel=0 note=40 velocity=95 time=0
EXTRACT: note_off channel=9 note=40 velocity=111 time=0
EXTRACT: note_off channel=9 note=42 velocity=95 time=0
EXTRACT: note_off channel=9 note=51 velocity=79 time=0
EXTRACT: note_on channel=9 note=42 velocity=47 time=0
EXTRACT: pitchwheel channel=5 pitch=128 time=0.00951085625
EXTRACT: pitchwheel channel=5 pitch=256 time=0.00951085625
EXTRACT: pitchwheel channel=5 pitch=384 time=0.00951085625
EXTRACT: pitchwheel channel=5 pitch=512 time=0.00951085625
EXTRACT: pitchwheel channel=5 pitch=640 time=0.00951085625
EXTRACT: pitchwheel channel=5 pitch=768 time=0.00951085625
EXTRACT: pitchwheel channel=5 pitch=896 time=0.00951085625
EXTRACT: pitchwheel channel=5 pitch=1024 time=0.00951085625
EXTRACT: pitchwheel channel=5 pitch=1152 time=0.00951085625
EXTRACT: pitchwheel channel=5 pitch=1280 time=0.00951085625
EXTRACT: pitchwheel channel=5 pitch=1408 time=0.00951085625
EXTRACT: pitchwheel channel=5 pitch=1408 time=0.00407608125
EXTRACT: pitchwheel channel=5 pitch=1408 time=0.1086955
EXTRACT: pitchwheel channel=5 pitch=0 time=0
EXTRACT: note_off channel=5 note=62 velocity=70 time=0
EXTRACT: pitchwheel channel=5 pitch=0 time=0
EXTRACT: note_on channel=5 note=62 velocity=95 time=0
EXTRACT: note_on channel=0 note=40 velocity=95 time=0
EXTRACT: note_off channel=9 note=42 velocity=47 time=0
EXTRACT: note_on channel=9 note=35 velocity=127 time=0
EXTRACT: note_on channel=9 note=42 velocity=79 time=0
EXTRACT: note_on channel=9 note=51 velocity=63 time=0
EXTRACT: pitchwheel channel=5 pitch=128 time=0.00135869375
EXTRACT: pitchwheel channel=5 pitch=256 time=0.00135869375
EXTRACT: pitchwheel channel=5 pitch=384 time=0.00135869375
EXTRACT: pitchwheel channel=5 pitch=512 time=0.00135869375
EXTRACT: pitchwheel channel=5 pitch=640 time=0.00135869375
EXTRACT: pitchwheel channel=5 pitch=768 time=0.00135869375
EXTRACT: pitchwheel channel=5 pitch=896 time=0.00135869375
EXTRACT: pitchwheel channel=5 pitch=1024 time=0.00135869375
EXTRACT: pitchwheel channel=5 pitch=1152 time=0.00135869375
EXTRACT: pitchwheel channel=5 pitch=1280 time=0.00135869375
EXTRACT: pitchwheel channel=5 pitch=1408 time=0.00135869375
EXTRACT: pitchwheel channel=5 pitch=1408 time=0.0031702854166666666
EXTRACT: pitchwheel channel=5 pitch=1408 time=0.01811591666666667
EXTRACT: pitchwheel channel=5 pitch=1280 time=0.00135869375
EXTRACT: pitchwheel channel=5 pitch=1152 time=0.00135869375
EXTRACT: pitchwheel channel=5 pitch=1024 time=0.00135869375
EXTRACT: pitchwheel channel=5 pitch=896 time=0.00135869375
EXTRACT: pitchwheel channel=5 pitch=768 time=0.00135869375
EXTRACT: pitchwheel channel=5 pitch=640 time=0.00135869375
EXTRACT: pitchwheel channel=5 pitch=512 time=0.00135869375
EXTRACT: pitchwheel channel=5 pitch=384 time=0.00135869375
EXTRACT: pitchwheel channel=5 pitch=256 time=0.00135869375
EXTRACT: pitchwheel channel=5 pitch=128 time=0.00135869375
EXTRACT: pitchwheel channel=5 pitch=0 time=0.00135869375
EXTRACT: pitchwheel channel=5 pitch=0 time=0.0031702854166666666
EXTRACT: pitchwheel channel=5 pitch=0 time=0.01811591666666667
EXTRACT: pitchwheel channel=5 pitch=0 time=0
EXTRACT: note_off channel=5 note=62 velocity=95 time=0
EXTRACT: note_on channel=4 note=62 velocity=95 time=0
EXTRACT: note_off channel=4 note=62 velocity=95 time=0.07246366666666668
EXTRACT: note_on channel=4 note=59 velocity=70 time=0
EXTRACT: note_off channel=4 note=59 velocity=70 time=0.07246366666666668
EXTRACT: note_on channel=4 note=62 velocity=95 time=0
EXTRACT: note_off channel=0 note=40 velocity=95 time=0
EXTRACT: note_off channel=9 note=35 velocity=127 time=0
EXTRACT: note_off channel=9 note=42 velocity=79 time=0
EXTRACT: note_off channel=9 note=51 velocity=63 time=0
EXTRACT: note_on channel=9 note=42 velocity=47 time=0
EXTRACT: note_off channel=9 note=42 velocity=47 time=0.217391
EXTRACT: note_on channel=9 note=38 velocity=111 time=0
EXTRACT: note_on channel=9 note=39 velocity=95 time=0
EXTRACT: note_on channel=9 note=41 velocity=111 time=0
EXTRACT: note_on channel=9 note=54 velocity=95 time=0
EXTRACT: note_on channel=9 note=42 velocity=95 time=0
EXTRACT: note_on channel=9 note=51 velocity=79 time=0
EXTRACT: note_on channel=0 note=38 velocity=95 time=0.217391
EXTRACT: note_off channel=9 note=38 velocity=111 time=0
EXTRACT: note_off channel=9 note=39 velocity=95 time=0
EXTRACT: note_off channel=9 note=41 velocity=111 time=0
EXTRACT: note_off channel=9 note=54 velocity=95 time=0
EXTRACT: note_off channel=9 note=42 velocity=95 time=0
EXTRACT: note_off channel=9 note=51 velocity=79 time=0
EXTRACT: note_on channel=9 note=42 velocity=47 time=0
EXTRACT: note_off channel=4 note=62 velocity=95 time=0.217391
EXTRACT: pitchwheel channel=5 pitch=0 time=0
EXTRACT: note_on channel=5 note=62 velocity=95 time=0
EXTRACT: note_off channel=0 note=38 velocity=95 time=0
EXTRACT: note_on channel=0 note=38 velocity=95 time=0
EXTRACT: note_off channel=9 note=42 velocity=47 time=0
EXTRACT: note_on channel=9 note=35 velocity=127 time=0
EXTRACT: note_on channel=9 note=42 velocity=95 time=0
EXTRACT: note_on channel=9 note=51 velocity=79 time=0
EXTRACT: pitchwheel channel=5 pitch=128 time=0.00135869375
EXTRACT: pitchwheel channel=5 pitch=256 time=0.00135869375
EXTRACT: pitchwheel channel=5 pitch=384 time=0.00135869375
EXTRACT: pitchwheel channel=5 pitch=512 time=0.00135869375
EXTRACT: pitchwheel channel=5 pitch=640 time=0.00135869375
EXTRACT: pitchwheel channel=5 pitch=768 time=0.00135869375
EXTRACT: pitchwheel channel=5 pitch=896 time=0.00135869375
EXTRACT: pitchwheel channel=5 pitch=1024 time=0.00135869375
EXTRACT: pitchwheel channel=5 pitch=1152 time=0.00135869375
EXTRACT: pitchwheel channel=5 pitch=1280 time=0.00135869375
EXTRACT: pitchwheel channel=5 pitch=1408 time=0.00135869375
EXTRACT: pitchwheel channel=5 pitch=1408 time=0.0031702854166666666
EXTRACT: pitchwheel channel=5 pitch=1408 time=0.01811591666666667
EXTRACT: pitchwheel channel=5 pitch=1280 time=0.00135869375
EXTRACT: pitchwheel channel=5 pitch=1152 time=0.00135869375
EXTRACT: pitchwheel channel=5 pitch=1024 time=0.00135869375
EXTRACT: pitchwheel channel=5 pitch=896 time=0.00135869375
EXTRACT: pitchwheel channel=5 pitch=768 time=0.00135869375
EXTRACT: pitchwheel channel=5 pitch=640 time=0.00135869375
EXTRACT: pitchwheel channel=5 pitch=512 time=0.00135869375
EXTRACT: pitchwheel channel=5 pitch=384 time=0.00135869375
EXTRACT: pitchwheel channel=5 pitch=256 time=0.00135869375
EXTRACT: pitchwheel channel=5 pitch=128 time=0.00135869375
EXTRACT: pitchwheel channel=5 pitch=0 time=0.00135869375
EXTRACT: pitchwheel channel=5 pitch=0 time=0.0031702854166666666
EXTRACT: pitchwheel channel=5 pitch=0 time=0.01811591666666667
EXTRACT: pitchwheel channel=5 pitch=0 time=0
EXTRACT: note_off channel=5 note=62 velocity=95 time=0
EXTRACT: note_on channel=4 note=62 velocity=95 time=0
EXTRACT: note_off channel=4 note=62 velocity=95 time=0.07246366666666668
EXTRACT: note_on channel=4 note=59 velocity=70 time=0
EXTRACT: note_off channel=4 note=59 velocity=70 time=0.07246366666666668
EXTRACT: pitchwheel channel=5 pitch=0 time=0
EXTRACT: note_on channel=5 note=62 velocity=95 time=0
EXTRACT: note_off channel=0 note=38 velocity=95 time=0
EXTRACT: note_off channel=9 note=35 velocity=127 time=0
EXTRACT: note_off channel=9 note=42 velocity=95 time=0
EXTRACT: note_off channel=9 note=51 velocity=79 time=0
EXTRACT: note_on channel=9 note=42 velocity=47 time=0
EXTRACT: pitchwheel channel=5 pitch=128 time=0.00951085625
EXTRACT: pitchwheel channel=5 pitch=256 time=0.00951085625
EXTRACT: pitchwheel channel=5 pitch=384 time=0.00951085625
EXTRACT: pitchwheel channel=5 pitch=512 time=0.00951085625
EXTRACT: pitchwheel channel=5 pitch=640 time=0.00951085625
EXTRACT: pitchwheel channel=5 pitch=768 time=0.00951085625
EXTRACT: pitchwheel channel=5 pitch=896 time=0.00951085625
EXTRACT: pitchwheel channel=5 pitch=1024 time=0.00951085625
EXTRACT: pitchwheel channel=5 pitch=1152 time=0.00951085625
EXTRACT: pitchwheel channel=5 pitch=1280 time=0.00951085625
EXTRACT: pitchwheel channel=5 pitch=1408 time=0.00951085625
EXTRACT: pitchwheel channel=5 pitch=1408 time=0.00407608125
EXTRACT: pitchwheel channel=5 pitch=1408 time=0.1086955
EXTRACT: pitchwheel channel=5 pitch=0 time=0
EXTRACT: note_off channel=5 note=62 velocity=95 time=0
EXTRACT: pitchwheel channel=5 pitch=0 time=0
EXTRACT: note_on channel=5 note=62 velocity=95 time=0
EXTRACT: note_on channel=0 note=38 velocity=95 time=0
EXTRACT: note_off channel=9 note=42 velocity=47 time=0
EXTRACT: note_on channel=9 note=42 velocity=95 time=0
EXTRACT: note_on channel=9 note=51 velocity=79 time=0
EXTRACT: note_on channel=9 note=40 velocity=111 time=0
EXTRACT: pitchwheel channel=5 pitch=128 time=0.004528979166666667
EXTRACT: pitchwheel channel=5 pitch=256 time=0.004528979166666667
EXTRACT: pitchwheel channel=5 pitch=384 time=0.004528979166666667
EXTRACT: pitchwheel channel=5 pitch=512 time=0.004528979166666667
EXTRACT: pitchwheel channel=5 pitch=640 time=0.004528979166666667
EXTRACT: pitchwheel channel=5 pitch=768 time=0.004528979166666667
EXTRACT: pitchwheel channel=5 pitch=896 time=0.004528979166666667
EXTRACT: pitchwheel channel=5 pitch=1024 time=0.004528979166666667
EXTRACT: pitchwheel channel=5 pitch=1152 time=0.004528979166666667
EXTRACT: pitchwheel channel=5 pitch=1280 time=0.004528979166666667
EXTRACT: pitchwheel channel=5 pitch=1408 time=0.004528979166666667
EXTRACT: pitchwheel channel=5 pitch=1408 time=0.004528979166666667
EXTRACT: pitchwheel channel=5 pitch=1408 time=0.05434775
EXTRACT: pitchwheel channel=5 pitch=1280 time=0.004528979166666667
EXTRACT: pitchwheel channel=5 pitch=1152 time=0.004528979166666667
EXTRACT: pitchwheel channel=5 pitch=1024 time=0.004528979166666667
EXTRACT: pitchwheel channel=5 pitch=896 time=0.004528979166666667
EXTRACT: pitchwheel channel=5 pitch=768 time=0.004528979166666667
EXTRACT: pitchwheel channel=5 pitch=640 time=0.004528979166666667
EXTRACT: pitchwheel channel=5 pitch=512 time=0.004528979166666667
EXTRACT: pitchwheel channel=5 pitch=384 time=0.004528979166666667
EXTRACT: pitchwheel channel=5 pitch=256 time=0.004528979166666667
EXTRACT: pitchwheel channel=5 pitch=128 time=0.004528979166666667
EXTRACT: pitchwheel channel=5 pitch=0 time=0.004528979166666667
EXTRACT: pitchwheel channel=5 pitch=0 time=0.004528979166666667
EXTRACT: pitchwheel channel=5 pitch=0 time=0.05434775
EXTRACT: pitchwheel channel=5 pitch=0 time=0
EXTRACT: note_off channel=5 note=62 velocity=95 time=0
EXTRACT: note_on channel=4 note=62 velocity=95 time=0
EXTRACT: note_off channel=0 note=38 velocity=95 time=0
EXTRACT: note_off channel=9 note=42 velocity=95 time=0
EXTRACT: note_off channel=9 note=51 velocity=79 time=0
EXTRACT: note_off channel=9 note=40 velocity=111 time=0
EXTRACT: note_on channel=9 note=42 velocity=47 time=0
EXTRACT: note_off channel=4 note=62 velocity=95 time=0.1086955
EXTRACT: note_on channel=4 note=59 velocity=70 time=0
EXTRACT: note_off channel=4 note=59 velocity=70 time=0.1086955
EXTRACT: pitchwheel channel=5 pitch=0 time=0
EXTRACT: note_on channel=5 note=57 velocity=95 time=0
EXTRACT: note_off channel=9 note=42 velocity=47 time=0
EXTRACT: note_on channel=9 note=42 velocity=79 time=0
EXTRACT: note_on channel=9 note=51 velocity=63 time=0
EXTRACT: pitchwheel channel=5 pitch=128 time=0.03940211875
EXTRACT: pitchwheel channel=5 pitch=256 time=0.03940211875
EXTRACT: pitchwheel channel=5 pitch=384 time=0.03940211875
EXTRACT: pitchwheel channel=5 pitch=512 time=0.03940211875
EXTRACT: pitchwheel channel=5 pitch=640 time=0.03940211875
EXTRACT: note_off channel=9 note=42 velocity=79 time=0.02038040625
EXTRACT: note_off channel=9 note=51 velocity=63 time=0
EXTRACT: note_on channel=9 note=35 velocity=127 time=0
EXTRACT: note_on channel=9 note=42 velocity=47 time=0
EXTRACT: pitchwheel channel=5 pitch=768 time=0.0190217125
EXTRACT: pitchwheel channel=5 pitch=896 time=0.03940211875
EXTRACT: pitchwheel channel=5 pitch=1024 time=0.03940211875
EXTRACT: pitchwheel channel=5 pitch=1152 time=0.03940211875
EXTRACT: pitchwheel channel=5 pitch=1280 time=0.03940211875
EXTRACT: pitchwheel channel=5 pitch=1408 time=0.03940211875
EXTRACT: pitchwheel channel=5 pitch=1408 time=0.00135869375
EXTRACT: note_off channel=9 note=35 velocity=127 time=0
EXTRACT: note_off channel=9 note=42 velocity=47 time=0
EXTRACT: note_on channel=9 note=38 velocity=111 time=0
EXTRACT: note_on channel=9 note=39 velocity=111 time=0
EXTRACT: note_on channel=9 note=54 velocity=95 time=0
EXTRACT: note_on channel=9 note=41 velocity=111 time=0
EXTRACT: note_on channel=9 note=42 velocity=95 time=0
EXTRACT: note_on channel=9 note=51 velocity=79 time=0
EXTRACT: note_off channel=9 note=38 velocity=111 time=0.217391
EXTRACT: note_off channel=9 note=39 velocity=111 time=0
EXTRACT: note_off channel=9 note=54 velocity=95 time=0
EXTRACT: note_off channel=9 note=41 velocity=111 time=0
EXTRACT: note_off channel=9 note=42 velocity=95 time=0
EXTRACT: note_off channel=9 note=51 velocity=79 time=0
EXTRACT: note_on channel=9 note=42 velocity=47 time=0
EXTRACT: pitchwheel channel=5 pitch=1408 time=0.217391
EXTRACT: pitchwheel channel=5 pitch=0 time=0
EXTRACT: note_off channel=5 note=57 velocity=95 time=0
EXTRACT: note_on channel=4 note=55 velocity=95 time=0
EXTRACT: note_off channel=9 note=42 velocity=47 time=0
EXTRACT: note_on channel=9 note=42 velocity=79 time=0
EXTRACT: note_on channel=9 note=51 velocity=63 time=0
EXTRACT: note_on channel=9 note=35 velocity=127 time=0
EXTRACT: note_off channel=4 note=55 velocity=95 time=0.031249956250000002
EXTRACT: note_on channel=4 note=68 velocity=95 time=0.18614104375
EXTRACT: note_on channel=0 note=40 velocity=79 time=0
EXTRACT: note_off channel=9 note=42 velocity=79 time=0
EXTRACT: note_off channel=9 note=51 velocity=63 time=0
EXTRACT: note_off channel=9 note=35 velocity=127 time=0
EXTRACT: note_on channel=9 note=42 velocity=47 time=0
EXTRACT: note_off channel=4 note=68 velocity=95 time=0.217391
EXTRACT: note_on channel=4 note=76 velocity=95 time=0
EXTRACT: note_off channel=0 note=40 velocity=79 time=0
EXTRACT: note_on channel=0 note=40 velocity=95 time=0
EXTRACT: note_off channel=9 note=42 velocity=47 time=0
EXTRACT: note_on channel=9 note=40 velocity=111 time=0
EXTRACT: note_on channel=9 note=42 velocity=95 time=0
EXTRACT: note_on channel=9 note=51 velocity=79 time=0
EXTRACT: note_on channel=5 note=74 velocity=63 time=0.13586937500000001
EXTRACT: note_off channel=4 note=76 velocity=95 time=0.081521625
EXTRACT: note_off channel=5 note=74 velocity=63 time=0
EXTRACT: pitchwheel channel=5 pitch=0 time=0
EXTRACT: note_on channel=5 note=74 velocity=95 time=0
EXTRACT: note_off channel=0 note=40 velocity=95 time=0
EXTRACT: note_off channel=9 note=40 velocity=111 time=0
EXTRACT: note_off channel=9 note=42 velocity=95 time=0
EXTRACT: note_off channel=9 note=51 velocity=79 time=0
EXTRACT: note_on channel=9 note=42 velocity=47 time=0
EXTRACT: pitchwheel channel=5 pitch=128 time=0.019474610416666666
EXTRACT: pitchwheel channel=5 pitch=256 time=0.019474610416666666
EXTRACT: pitchwheel channel=5 pitch=384 time=0.019474610416666666
EXTRACT: pitchwheel channel=5 pitch=512 time=0.019474610416666666
EXTRACT: pitchwheel channel=5 pitch=640 time=0.019474610416666666
EXTRACT: pitchwheel channel=5 pitch=768 time=0.019474610416666666
EXTRACT: pitchwheel channel=5 pitch=896 time=0.019474610416666666
EXTRACT: pitchwheel channel=5 pitch=1024 time=0.019474610416666666
EXTRACT: pitchwheel channel=5 pitch=1152 time=0.019474610416666666
EXTRACT: pitchwheel channel=5 pitch=1280 time=0.019474610416666666
EXTRACT: pitchwheel channel=5 pitch=1408 time=0.019474610416666666
EXTRACT: pitchwheel channel=5 pitch=1408 time=0.0031702854166666666
EXTRACT: note_on channel=4 note=76 velocity=95 time=0
EXTRACT: note_on channel=0 note=40 velocity=95 time=0
EXTRACT: note_off channel=9 note=42 velocity=47 time=0
EXTRACT: note_on channel=9 note=42 velocity=79 time=0
EXTRACT: note_on channel=9 note=51 velocity=63 time=0
EXTRACT: note_on channel=9 note=35 velocity=127 time=0
EXTRACT: note_on channel=5 note=79 velocity=63 time=0.13586937500000001
EXTRACT: pitchwheel channel=5 pitch=1408 time=0.081521625
EXTRACT: pitchwheel channel=5 pitch=0 time=0
EXTRACT: note_off channel=5 note=74 velocity=95 time=0
EXTRACT: note_off channel=4 note=76 velocity=95 time=0
EXTRACT: note_off channel=5 note=79 velocity=63 time=0
EXTRACT: pitchwheel channel=5 pitch=0 time=0
EXTRACT: note_on channel=5 note=79 velocity=95 time=0
EXTRACT: note_off channel=0 note=40 velocity=95 time=0
EXTRACT: note_off channel=9 note=42 velocity=79 time=0
EXTRACT: note_off channel=9 note=51 velocity=63 time=0
EXTRACT: note_off channel=9 note=35 velocity=127 time=0
EXTRACT: note_on channel=9 note=42 velocity=47 time=0
EXTRACT: pitchwheel channel=5 pitch=128 time=0.022644895833333335
EXTRACT: pitchwheel channel=5 pitch=256 time=0.022644895833333335
EXTRACT: pitchwheel channel=5 pitch=384 time=0.022644895833333335
EXTRACT: pitchwheel channel=5 pitch=512 time=0.022644895833333335
EXTRACT: pitchwheel channel=5 pitch=640 time=0.022644895833333335
EXTRACT: pitchwheel channel=5 pitch=768 time=0.022644895833333335
EXTRACT: pitchwheel channel=5 pitch=896 time=0.022644895833333335
EXTRACT: pitchwheel channel=5 pitch=1024 time=0.022644895833333335
EXTRACT: pitchwheel channel=5 pitch=1152 time=0.022644895833333335
EXTRACT: note_off channel=9 note=42 velocity=47 time=0.0135869375
EXTRACT: note_on channel=9 note=39 velocity=95 time=0
EXTRACT: note_on channel=9 note=38 velocity=95 time=0
EXTRACT: note_on channel=9 note=41 velocity=111 time=0
EXTRACT: note_on channel=9 note=54 velocity=95 time=0
EXTRACT: note_on channel=9 note=42 velocity=95 time=0
EXTRACT: note_on channel=9 note=51 velocity=79 time=0
EXTRACT: pitchwheel channel=5 pitch=1280 time=0.009057958333333335
EXTRACT: pitchwheel channel=5 pitch=1408 time=0.022644895833333335
EXTRACT: pitchwheel channel=5 pitch=1408 time=0.004528979166666667
EXTRACT: note_on channel=0 note=38 velocity=95 time=0.18115916666666668
EXTRACT: note_off channel=9 note=39 velocity=95 time=0
EXTRACT: note_off channel=9 note=38 velocity=95 time=0
EXTRACT: note_off channel=9 note=41 velocity=111 time=0
EXTRACT: note_off channel=9 note=54 velocity=95 time=0
EXTRACT: note_off channel=9 note=42 velocity=95 time=0
EXTRACT: note_off channel=9 note=51 velocity=79 time=0
EXTRACT: note_on channel=9 note=42 velocity=31 time=0
EXTRACT: pitchwheel channel=5 pitch=1408 time=0.07246366666666668
EXTRACT: pitchwheel channel=5 pitch=0 time=0
EXTRACT: note_off channel=5 note=79 velocity=95 time=0
EXTRACT: note_on channel=4 note=76 velocity=95 time=0
EXTRACT: note_on channel=5 note=69 velocity=63 time=0.06340570833333334
EXTRACT: note_off channel=4 note=76 velocity=95 time=0.009057958333333335
EXTRACT: note_on channel=4 note=71 velocity=95 time=0
EXTRACT: note_off channel=4 note=71 velocity=95 time=0.07246366666666668
EXTRACT: note_off channel=5 note=69 velocity=63 time=0
EXTRACT: pitchwheel channel=5 pitch=0 time=0
EXTRACT: note_on channel=5 note=69 velocity=95 time=0
EXTRACT: note_off channel=0 note=38 velocity=95 time=0
EXTRACT: note_on channel=0 note=38 velocity=95 time=0
EXTRACT: note_off channel=9 note=42 velocity=31 time=0
EXTRACT: note_on channel=9 note=35 velocity=127 time=0
EXTRACT: note_on channel=9 note=42 velocity=95 time=0
EXTRACT: note_on channel=9 note=51 velocity=79 time=0
EXTRACT: pitchwheel channel=5 pitch=128 time=0.00951085625
EXTRACT: pitchwheel channel=5 pitch=256 time=0.00951085625
EXTRACT: pitchwheel channel=5 pitch=384 time=0.00951085625
EXTRACT: pitchwheel channel=5 pitch=512 time=0.00951085625
EXTRACT: pitchwheel channel=5 pitch=640 time=0.00951085625
EXTRACT: pitchwheel channel=5 pitch=768 time=0.00951085625
EXTRACT: pitchwheel channel=5 pitch=896 time=0.00951085625
EXTRACT: pitchwheel channel=5 pitch=1024 time=0.00951085625
EXTRACT: pitchwheel channel=5 pitch=1152 time=0.00951085625
EXTRACT: pitchwheel channel=5 pitch=1280 time=0.00951085625
EXTRACT: pitchwheel channel=5 pitch=1408 time=0.00951085625
EXTRACT: pitchwheel channel=5 pitch=1408 time=0.00407608125
EXTRACT: pitchwheel channel=5 pitch=1408 time=0.1086955
EXTRACT: pitchwheel channel=5 pitch=0 time=0
EXTRACT: note_off channel=5 note=69 velocity=95 time=0
EXTRACT: pitchwheel channel=5 pitch=0 time=0
EXTRACT: note_on channel=5 note=69 velocity=95 time=0
EXTRACT: note_off channel=0 note=38 velocity=95 time=0
EXTRACT: note_off channel=9 note=35 velocity=127 time=0
EXTRACT: note_off channel=9 note=42 velocity=95 time=0
EXTRACT: note_off channel=9 note=51 velocity=79 time=0
EXTRACT: note_on channel=9 note=42 velocity=47 time=0
EXTRACT: pitchwheel channel=5 pitch=128 time=0.0022644895833333336
EXTRACT: pitchwheel channel=5 pitch=256 time=0.0022644895833333336
EXTRACT: pitchwheel channel=5 pitch=384 time=0.0022644895833333336
EXTRACT: pitchwheel channel=5 pitch=512 time=0.0022644895833333336
EXTRACT: pitchwheel channel=5 pitch=640 time=0.0022644895833333336
EXTRACT: pitchwheel channel=5 pitch=768 time=0.0022644895833333336
EXTRACT: pitchwheel channel=5 pitch=896 time=0.0022644895833333336
EXTRACT: pitchwheel channel=5 pitch=1024 time=0.0022644895833333336
EXTRACT: pitchwheel channel=5 pitch=1152 time=0.0022644895833333336
EXTRACT: pitchwheel channel=5 pitch=1280 time=0.0022644895833333336
EXTRACT: pitchwheel channel=5 pitch=1408 time=0.0022644895833333336
EXTRACT: pitchwheel channel=5 pitch=1408 time=0.0022644895833333336
EXTRACT: pitchwheel channel=5 pitch=1408 time=0.027173875
EXTRACT: pitchwheel channel=5 pitch=1280 time=0.0022644895833333336
EXTRACT: pitchwheel channel=5 pitch=1152 time=0.0022644895833333336
EXTRACT: pitchwheel channel=5 pitch=1024 time=0.0022644895833333336
EXTRACT: pitchwheel channel=5 pitch=896 time=0.0022644895833333336
EXTRACT: pitchwheel channel=5 pitch=768 time=0.0022644895833333336
EXTRACT: pitchwheel channel=5 pitch=640 time=0.0022644895833333336
EXTRACT: pitchwheel channel=5 pitch=512 time=0.0022644895833333336
EXTRACT: pitchwheel channel=5 pitch=384 time=0.0022644895833333336
EXTRACT: pitchwheel channel=5 pitch=256 time=0.0022644895833333336
EXTRACT: pitchwheel channel=5 pitch=128 time=0.0022644895833333336
EXTRACT: pitchwheel channel=5 pitch=0 time=0.0022644895833333336
EXTRACT: pitchwheel channel=5 pitch=0 time=0.0022644895833333336
EXTRACT: pitchwheel channel=5 pitch=0 time=0.027173875
EXTRACT: pitchwheel channel=5 pitch=0 time=0
EXTRACT: note_off channel=5 note=69 velocity=95 time=0
EXTRACT: note_on channel=4 note=67 velocity=95 time=0
EXTRACT: note_off channel=4 note=67 velocity=95 time=0.1086955
EXTRACT: note_on channel=5 note=69 velocity=95 time=0
EXTRACT: note_on channel=0 note=38 velocity=95 time=0
EXTRACT: note_off channel=9 note=42 velocity=47 time=0
EXTRACT: note_on channel=9 note=40 velocity=111 time=0
EXTRACT: note_on channel=9 note=42 velocity=95 time=0
EXTRACT: note_on channel=9 note=51 velocity=79 time=0
EXTRACT: pitchwheel channel=5 pitch=0 time=0.05434775
EXTRACT: pitchwheel channel=5 pitch=0 time=0.05434775
EXTRACT: pitchwheel channel=5 pitch=0 time=0.05434775
EXTRACT: pitchwheel channel=5 pitch=0 time=0.05434775
EXTRACT: note_off channel=0 note=38 velocity=95 time=0
EXTRACT: note_off channel=9 note=40 velocity=111 time=0
EXTRACT: note_off channel=9 note=42 velocity=95 time=0
EXTRACT: note_off channel=9 note=51 velocity=79 time=0
EXTRACT: note_on channel=9 note=42 velocity=47 time=0
EXTRACT: pitchwheel channel=5 pitch=0 time=0.05434775
EXTRACT: pitchwheel channel=5 pitch=0 time=0.05434775
EXTRACT: pitchwheel channel=5 pitch=0 time=0.05434775
EXTRACT: pitchwheel channel=5 pitch=0 time=0.05434775
EXTRACT: pitchwheel channel=5 pitch=0 time=0
EXTRACT: note_off channel=9 note=42 velocity=47 time=0
EXTRACT: note_on channel=9 note=42 velocity=79 time=0
EXTRACT: note_on channel=9 note=51 velocity=63 time=0
EXTRACT: note_off channel=9 note=42 velocity=79 time=0.217391
EXTRACT: note_off channel=9 note=51 velocity=63 time=0
EXTRACT: note_on channel=9 note=35 velocity=127 time=0
EXTRACT: note_on channel=9 note=42 velocity=47 time=0
EXTRACT: note_off channel=5 note=69 velocity=95 time=0.217391
EXTRACT: note_off channel=9 note=35 velocity=127 time=0
EXTRACT: note_off channel=9 note=42 velocity=47 time=0
EXTRACT: note_on channel=9 note=54 velocity=95 time=0
EXTRACT: note_on channel=9 note=39 velocity=95 time=0
EXTRACT: note_on channel=9 note=41 velocity=111 time=0
EXTRACT: note_on channel=9 note=38 velocity=95 time=0
EXTRACT: note_on channel=9 note=42 velocity=95 time=0
EXTRACT: note_on channel=9 note=51 velocity=79 time=0
EXTRACT: note_on channel=4 note=74 velocity=95 time=0.1086955
EXTRACT: note_off channel=4 note=74 velocity=95 time=0.1086955
EXTRACT: note_on channel=4 note=67 velocity=95 time=0
EXTRACT: note_off channel=9 note=54 velocity=95 time=0
EXTRACT: note_off channel=9 note=39 velocity=95 time=0
EXTRACT: note_off channel=9 note=41 velocity=111 time=0
EXTRACT: note_off channel=9 note=38 velocity=95 time=0
EXTRACT: note_off channel=9 note=42 velocity=95 time=0
EXTRACT: note_off channel=9 note=51 velocity=79 time=0
EXTRACT: note_on channel=9 note=42 velocity=47 time=0
EXTRACT: note_off channel=4 note=67 velocity=95 time=0.1086955
EXTRACT: note_on channel=4 note=72 velocity=70 time=0
EXTRACT: note_off channel=4 note=72 velocity=70 time=0.1086955
EXTRACT: note_on channel=4 note=79 velocity=95 time=0
EXTRACT: note_off channel=9 note=42 velocity=47 time=0
EXTRACT: note_on channel=9 note=42 velocity=95 time=0
EXTRACT: note_on channel=9 note=51 velocity=79 time=0
EXTRACT: note_on channel=9 note=35 velocity=127 time=0
EXTRACT: note_off channel=4 note=79 velocity=95 time=0.07246366666666668
EXTRACT: note_on channel=4 note=72 velocity=95 time=0
EXTRACT: note_off channel=4 note=72 velocity=95 time=0.07246366666666668
EXTRACT: note_on channel=4 note=76 velocity=70 time=0
EXTRACT: note_off channel=4 note=76 velocity=70 time=0.07246366666666668
EXTRACT: note_on channel=4 note=74 velocity=95 time=0
EXTRACT: note_on channel=0 note=36 velocity=95 time=0
EXTRACT: note_off channel=9 note=42 velocity=95 time=0
EXTRACT: note_off channel=9 note=51 velocity=79 time=0
EXTRACT: note_off channel=9 note=35 velocity=127 time=0
EXTRACT: note_on channel=9 note=42 velocity=31 time=0
EXTRACT: note_off channel=4 note=74 velocity=95 time=0.07246366666666668
EXTRACT: note_on channel=4 note=67 velocity=95 time=0
EXTRACT: note_off channel=4 note=67 velocity=95 time=0.07246366666666668
EXTRACT: note_on channel=4 note=72 velocity=70 time=0
EXTRACT: note_off channel=4 note=72 velocity=70 time=0.07246366666666668
EXTRACT: note_on channel=4 note=79 velocity=95 time=0
EXTRACT: note_off channel=0 note=36 velocity=95 time=0
EXTRACT: note_on channel=0 note=36 velocity=95 time=0
EXTRACT: note_off channel=9 note=42 velocity=31 time=0
EXTRACT: note_on channel=9 note=42 velocity=95 time=0
EXTRACT: note_on channel=9 note=51 velocity=79 time=0
EXTRACT: note_on channel=9 note=40 velocity=111 time=0
EXTRACT: note_off channel=4 note=79 velocity=95 time=0.07246366666666668
EXTRACT: note_on channel=4 note=72 velocity=95 time=0
EXTRACT: note_off channel=4 note=72 velocity=95 time=0.07246366666666668
EXTRACT: note_on channel=4 note=76 velocity=70 time=0
EXTRACT: note_off channel=4 note=76 velocity=70 time=0.07246366666666668
EXTRACT: note_on channel=4 note=74 velocity=95 time=0
EXTRACT: note_off channel=0 note=36 velocity=95 time=0
EXTRACT: note_off channel=9 note=42 velocity=95 time=0
EXTRACT: note_off channel=9 note=51 velocity=79 time=0
EXTRACT: note_off channel=9 note=40 velocity=111 time=0
EXTRACT: note_on channel=9 note=42 velocity=47 time=0
EXTRACT: note_off channel=4 note=74 velocity=95 time=0.07246366666666668
EXTRACT: note_on channel=4 note=67 velocity=95 time=0
EXTRACT: note_off channel=4 note=67 velocity=95 time=0.07246366666666668
EXTRACT: note_on channel=4 note=72 velocity=70 time=0
EXTRACT: note_off channel=4 note=72 velocity=70 time=0.07246366666666668
EXTRACT: note_on channel=4 note=79 velocity=95 time=0
EXTRACT: note_on channel=0 note=36 velocity=95 time=0
EXTRACT: note_off channel=9 note=42 velocity=47 time=0
EXTRACT: note_on channel=9 note=35 velocity=127 time=0
EXTRACT: note_on channel=9 note=42 velocity=95 time=0
EXTRACT: note_on channel=9 note=51 velocity=79 time=0
EXTRACT: note_off channel=4 note=79 velocity=95 time=0.07246366666666668
EXTRACT: note_on channel=4 note=72 velocity=95 time=0
EXTRACT: note_off channel=4 note=72 velocity=95 time=0.07246366666666668
EXTRACT: note_on channel=4 note=76 velocity=70 time=0
EXTRACT: note_off channel=4 note=76 velocity=70 time=0.07246366666666668
EXTRACT: note_on channel=4 note=74 velocity=95 time=0
EXTRACT: note_off channel=0 note=36 velocity=95 time=0
EXTRACT: note_off channel=9 note=35 velocity=127 time=0
EXTRACT: note_off channel=9 note=42 velocity=95 time=0
EXTRACT: note_off channel=9 note=51 velocity=79 time=0
EXTRACT: note_on channel=9 note=42 velocity=47 time=0
EXTRACT: note_off channel=4 note=74 velocity=95 time=0.07246366666666668
EXTRACT: note_on channel=4 note=67 velocity=95 time=0
EXTRACT: note_off channel=4 note=67 velocity=95 time=0.07246366666666668
EXTRACT: note_on channel=4 note=71 velocity=70 time=0
EXTRACT: note_off channel=4 note=71 velocity=70 time=0.07246366666666668
EXTRACT: note_on channel=4 note=79 velocity=95 time=0
EXTRACT: note_off channel=9 note=42 velocity=47 time=0
EXTRACT: note_on channel=9 note=38 velocity=111 time=0
EXTRACT: note_on channel=9 note=54 velocity=111 time=0
EXTRACT: note_on channel=9 note=41 velocity=111 time=0
EXTRACT: note_on channel=9 note=39 velocity=95 time=0
EXTRACT: note_on channel=9 note=42 velocity=95 time=0
EXTRACT: note_on channel=9 note=51 velocity=79 time=0
EXTRACT: note_off channel=4 note=79 velocity=95 time=0.06204701458333334
EXTRACT: note_on channel=4 note=72 velocity=95 time=0
EXTRACT: note_off channel=4 note=72 velocity=95 time=0.06204701458333334
EXTRACT: note_on channel=4 note=76 velocity=70 time=0
EXTRACT: note_off channel=4 note=76 velocity=70 time=0.06204701458333334
EXTRACT: note_on channel=4 note=74 velocity=95 time=0
EXTRACT: note_on channel=0 note=38 velocity=95 time=0.031249956250000002
EXTRACT: note_off channel=9 note=38 velocity=111 time=0
EXTRACT: note_off channel=9 note=54 velocity=111 time=0
EXTRACT: note_off channel=9 note=41 velocity=111 time=0
EXTRACT: note_off channel=9 note=39 velocity=95 time=0
EXTRACT: note_off channel=9 note=42 velocity=95 time=0
EXTRACT: note_off channel=9 note=51 velocity=79 time=0
EXTRACT: note_on channel=9 note=42 velocity=47 time=0
EXTRACT: note_off channel=4 note=74 velocity=95 time=0.030797058333333335
EXTRACT: note_on channel=4 note=67 velocity=95 time=0
EXTRACT: note_off channel=4 note=67 velocity=95 time=0.06204701458333334
EXTRACT: note_on channel=4 note=71 velocity=95 time=0
EXTRACT: note_off channel=4 note=71 velocity=95 time=0.06204701458333334
EXTRACT: note_on channel=4 note=81 velocity=95 time=0
EXTRACT: note_off channel=4 note=81 velocity=95 time=0.06204701458333334
EXTRACT: note_on channel=4 note=74 velocity=95 time=0.0004528979166666667
EXTRACT: note_off channel=0 note=38 velocity=95 time=0
EXTRACT: note_on channel=0 note=38 velocity=95 time=0
EXTRACT: note_off channel=9 note=42 velocity=47 time=0
EXTRACT: note_on channel=9 note=35 velocity=127 time=0
EXTRACT: note_on channel=9 note=42 velocity=111 time=0
EXTRACT: note_off channel=4 note=74 velocity=95 time=0.14492733333333335
EXTRACT: note_on channel=4 note=81 velocity=70 time=0
EXTRACT: note_off channel=4 note=81 velocity=70 time=0.07246366666666668
EXTRACT: note_on channel=4 note=74 velocity=95 time=0
EXTRACT: note_off channel=0 note=38 velocity=95 time=0
EXTRACT: note_off channel=9 note=35 velocity=127 time=0
EXTRACT: note_off channel=9 note=42 velocity=111 time=0
EXTRACT: note_on channel=9 note=42 velocity=47 time=0
EXTRACT: note_off channel=4 note=74 velocity=95 time=0.14492733333333335
EXTRACT: note_on channel=4 note=81 velocity=70 time=0
EXTRACT: note_off channel=4 note=81 velocity=70 time=0.07246366666666668
EXTRACT: note_on channel=5 note=74 velocity=95 time=0
EXTRACT: note_on channel=0 note=38 velocity=95 time=0
EXTRACT: note_off channel=9 note=42 velocity=47 time=0
EXTRACT: note_on channel=9 note=40 velocity=111 time=0
EXTRACT: note_on channel=9 note=42 velocity=63 time=0
EXTRACT: note_on channel=9 note=51 velocity=63 time=0
EXTRACT: pitchwheel channel=5 pitch=-256 time=0.05434775
EXTRACT: pitchwheel channel=5 pitch=-640 time=0.05434775
EXTRACT: pitchwheel channel=5 pitch=-1024 time=0.05434775
EXTRACT: pitchwheel channel=5 pitch=-1408 time=0.05434775
EXTRACT: pitchwheel channel=5 pitch=0 time=0
EXTRACT: note_off channel=5 note=74 velocity=95 time=0
EXTRACT: note_on channel=4 note=72 velocity=95 time=0
EXTRACT: note_off channel=0 note=38 velocity=95 time=0
EXTRACT: note_off channel=9 note=40 velocity=111 time=0
EXTRACT: note_off channel=9 note=42 velocity=63 time=0
EXTRACT: note_off channel=9 note=51 velocity=63 time=0
EXTRACT: note_on channel=9 note=42 velocity=15 time=0
EXTRACT: note_off channel=4 note=72 velocity=95 time=0.217391
EXTRACT: note_on channel=5 note=64 velocity=95 time=0
EXTRACT: note_off channel=9 note=42 velocity=15 time=0
EXTRACT: note_on channel=9 note=42 velocity=63 time=0
EXTRACT: note_on channel=9 note=51 velocity=63 time=0
EXTRACT: note_off channel=5 note=64 velocity=95 time=0.217391
EXTRACT: note_on channel=4 note=64 velocity=95 time=0
EXTRACT: note_on channel=4 note=59 velocity=95 time=0
EXTRACT: note_off channel=9 note=42 velocity=63 time=0
EXTRACT: note_off channel=9 note=51 velocity=63 time=0
EXTRACT: note_on channel=9 note=35 velocity=127 time=0
EXTRACT: note_on channel=9 note=42 velocity=31 time=0
EXTRACT: note_on channel=5 note=74 velocity=63 time=0.13586937500000001
EXTRACT: note_off channel=4 note=64 velocity=95 time=0.081521625
EXTRACT: note_off channel=4 note=59 velocity=95 time=0
EXTRACT: note_on channel=5 note=76 velocity=95 time=0
EXTRACT: note_off channel=5 note=74 velocity=63 time=0
EXTRACT: pitchwheel channel=5 pitch=0 time=0
EXTRACT: note_on channel=5 note=74 velocity=95 time=0
EXTRACT: note_off channel=9 note=35 velocity=127 time=0
EXTRACT: note_off channel=9 note=42 velocity=31 time=0
EXTRACT: note_on channel=9 note=42 velocity=79 time=0
EXTRACT: note_on channel=9 note=51 velocity=63 time=0
EXTRACT: note_on channel=9 note=39 velocity=111 time=0
EXTRACT: note_on channel=9 note=41 velocity=111 time=0
EXTRACT: note_on channel=9 note=38 velocity=111 time=0
EXTRACT: note_on channel=9 note=54 velocity=127 time=0
EXTRACT: pitchwheel channel=5 pitch=128 time=0.029438364583333335
EXTRACT: pitchwheel channel=5 pitch=256 time=0.029438364583333335
EXTRACT: pitchwheel channel=5 pitch=0 time=0.0135869375
EXTRACT: pitchwheel channel=5 pitch=384 time=0.015851427083333335
EXTRACT: pitchwheel channel=5 pitch=512 time=0.029438364583333335
EXTRACT: pitchwheel channel=5 pitch=128 time=0.027173875
EXTRACT: pitchwheel channel=5 pitch=640 time=0.0022644895833333336
EXTRACT: pitchwheel channel=5 pitch=768 time=0.029438364583333335
EXTRACT: pitchwheel channel=5 pitch=896 time=0.029438364583333335
EXTRACT: pitchwheel channel=5 pitch=0 time=0.011322447916666667
EXTRACT: note_off channel=9 note=42 velocity=79 time=0
EXTRACT: note_off channel=9 note=51 velocity=63 time=0
EXTRACT: note_off channel=9 note=39 velocity=111 time=0
EXTRACT: note_off channel=9 note=41 velocity=111 time=0
EXTRACT: note_off channel=9 note=38 velocity=111 time=0
EXTRACT: note_off channel=9 note=54 velocity=127 time=0
EXTRACT: note_on channel=9 note=42 velocity=31 time=0
EXTRACT: pitchwheel channel=5 pitch=1024 time=0.01811591666666667
EXTRACT: pitchwheel channel=5 pitch=1152 time=0.029438364583333335
EXTRACT: pitchwheel channel=5 pitch=128 time=0.02490938541666667
EXTRACT: pitchwheel channel=5 pitch=1280 time=0.004528979166666667
EXTRACT: pitchwheel channel=5 pitch=1408 time=0.029438364583333335
EXTRACT: pitchwheel channel=5 pitch=1408 time=0.0022644895833333336
EXTRACT: pitchwheel channel=5 pitch=0 time=0.03623183333333334
EXTRACT: pitchwheel channel=5 pitch=128 time=0.07246366666666668
EXTRACT: note_off channel=9 note=42 velocity=31 time=0
EXTRACT: note_on channel=9 note=42 velocity=63 time=0
EXTRACT: note_on channel=9 note=51 velocity=63 time=0
EXTRACT: note_on channel=9 note=35 velocity=127 time=0
EXTRACT: pitchwheel channel=5 pitch=0 time=0.07246366666666668
EXTRACT: pitchwheel channel=5 pitch=128 time=0.07246366666666668
EXTRACT: pitchwheel channel=5 pitch=0 time=0.07246366666666668
EXTRACT: pitchwheel channel=5 pitch=128 time=0
EXTRACT: pitchwheel channel=5 pitch=0 time=0
EXTRACT: note_off channel=5 note=76 velocity=95 time=0
EXTRACT: pitchwheel channel=5 pitch=1408 time=0
EXTRACT: pitchwheel channel=5 pitch=0 time=0
EXTRACT: note_off channel=5 note=74 velocity=95 time=0
EXTRACT: note_on channel=4 note=76 velocity=95 time=0
EXTRACT: note_on channel=0 note=40 velocity=79 time=0
EXTRACT: note_off channel=9 note=42 velocity=63 time=0
EXTRACT: note_off channel=9 note=51 velocity=63 time=0
EXTRACT: note_off channel=9 note=35 velocity=127 time=0
EXTRACT: note_on channel=9 note=42 velocity=31 time=0
EXTRACT: note_off channel=4 note=76 velocity=95 time=0.07246366666666668
EXTRACT: note_on channel=4 note=76 velocity=95 time=0
EXTRACT: note_off channel=4 note=76 velocity=95 time=0.07246366666666668
EXTRACT: note_on channel=4 note=76 velocity=95 time=0
EXTRACT: note_off channel=4 note=76 velocity=95 time=0.07246366666666668
EXTRACT: note_on channel=4 note=78 velocity=95 time=0
EXTRACT: note_off channel=0 note=40 velocity=79 time=0
EXTRACT: note_on channel=0 note=40 velocity=95 time=0
EXTRACT: note_off channel=9 note=42 velocity=31 time=0
EXTRACT: note_on channel=9 note=42 velocity=79 time=0
EXTRACT: note_on channel=9 note=51 velocity=63 time=0
EXTRACT: note_on channel=9 note=40 velocity=111 time=0
EXTRACT: note_off channel=4 note=78 velocity=95 time=0.14492733333333335
EXTRACT: note_on channel=4 note=78 velocity=95 time=0
EXTRACT: note_off channel=4 note=78 velocity=95 time=0.07246366666666668
EXTRACT: note_on channel=4 note=78 velocity=95 time=0
EXTRACT: note_off channel=0 note=40 velocity=95 time=0
EXTRACT: note_off channel=9 note=42 velocity=79 time=0
EXTRACT: note_off channel=9 note=51 velocity=63 time=0
EXTRACT: note_off channel=9 note=40 velocity=111 time=0
EXTRACT: note_on channel=9 note=42 velocity=31 time=0
EXTRACT: note_off channel=4 note=78 velocity=95 time=0.07246366666666668
EXTRACT: note_on channel=4 note=78 velocity=95 time=0
EXTRACT: note_off channel=4 note=78 velocity=95 time=0.07246366666666668
EXTRACT: note_on channel=4 note=78 velocity=95 time=0
EXTRACT: note_off channel=4 note=78 velocity=95 time=0.07246366666666668
EXTRACT: note_on channel=4 note=79 velocity=95 time=0
EXTRACT: note_on channel=0 note=40 velocity=95 time=0
EXTRACT: note_off channel=9 note=42 velocity=31 time=0
EXTRACT: note_on channel=9 note=35 velocity=127 time=0
EXTRACT: note_on channel=9 note=42 velocity=63 time=0
EXTRACT: note_on channel=9 note=51 velocity=63 time=0
EXTRACT: note_off channel=4 note=79 velocity=95 time=0.07246366666666668
EXTRACT: note_on channel=4 note=79 velocity=95 time=0
EXTRACT: note_off channel=4 note=79 velocity=95 time=0.07246366666666668
EXTRACT: note_on channel=4 note=79 velocity=95 time=0
EXTRACT: note_off channel=4 note=79 velocity=95 time=0.07246366666666668
EXTRACT: note_on channel=4 note=79 velocity=95 time=0
EXTRACT: note_off channel=0 note=40 velocity=95 time=0
EXTRACT: note_off channel=9 note=35 velocity=127 time=0
EXTRACT: note_off channel=9 note=42 velocity=63 time=0
EXTRACT: note_off channel=9 note=51 velocity=63 time=0
EXTRACT: note_on channel=9 note=42 velocity=31 time=0
EXTRACT: note_off channel=4 note=79 velocity=95 time=0.07246366666666668
EXTRACT: note_on channel=4 note=79 velocity=95 time=0
EXTRACT: note_off channel=4 note=79 velocity=95 time=0.07246366666666668
EXTRACT: note_on channel=4 note=79 velocity=95 time=0
EXTRACT: note_off channel=4 note=79 velocity=95 time=0.07246366666666668
EXTRACT: note_on channel=4 note=79 velocity=95 time=0
EXTRACT: note_off channel=9 note=42 velocity=31 time=0
EXTRACT: note_on channel=9 note=42 velocity=79 time=0
EXTRACT: note_on channel=9 note=51 velocity=63 time=0
EXTRACT: note_on channel=9 note=39 velocity=95 time=0
EXTRACT: note_on channel=9 note=38 velocity=95 time=0
EXTRACT: note_on channel=9 note=41 velocity=111 time=0
EXTRACT: note_on channel=9 note=54 velocity=127 time=0
EXTRACT: note_off channel=4 note=79 velocity=95 time=0.07246366666666668
EXTRACT: note_on channel=5 note=79 velocity=95 time=0
EXTRACT: pitchwheel channel=5 pitch=1408 time=0.07246366666666668
EXTRACT: pitchwheel channel=5 pitch=0 time=0
EXTRACT: note_off channel=5 note=79 velocity=95 time=0
EXTRACT: note_on channel=4 note=81 velocity=95 time=0
EXTRACT: note_off channel=4 note=81 velocity=95 time=0.07246366666666668
EXTRACT: note_on channel=4 note=81 velocity=95 time=0
EXTRACT: note_on channel=0 note=38 velocity=95 time=0
EXTRACT: note_off channel=9 note=42 velocity=79 time=0
EXTRACT: note_off channel=9 note=51 velocity=63 time=0
EXTRACT: note_off channel=9 note=39 velocity=95 time=0
EXTRACT: note_off channel=9 note=38 velocity=95 time=0
EXTRACT: note_off channel=9 note=41 velocity=111 time=0
EXTRACT: note_off channel=9 note=54 velocity=127 time=0
EXTRACT: note_on channel=9 note=42 velocity=31 time=0
EXTRACT: note_off channel=4 note=81 velocity=95 time=0.07246366666666668
EXTRACT: note_on channel=4 note=81 velocity=95 time=0
EXTRACT: note_off channel=4 note=81 velocity=95 time=0.07246366666666668
EXTRACT: note_on channel=4 note=81 velocity=95 time=0
EXTRACT: note_off channel=4 note=81 velocity=95 time=0.07246366666666668
EXTRACT: note_on channel=4 note=81 velocity=95 time=0
EXTRACT: note_off channel=0 note=38 velocity=95 time=0
EXTRACT: note_on channel=0 note=38 velocity=95 time=0
EXTRACT: note_off channel=9 note=42 velocity=31 time=0
EXTRACT: note_on channel=9 note=42 velocity=79 time=0
EXTRACT: note_on channel=9 note=51 velocity=63 time=0
EXTRACT: note_on channel=9 note=35 velocity=127 time=0
EXTRACT: note_off channel=4 note=81 velocity=95 time=0.07246366666666668
EXTRACT: note_on channel=4 note=81 velocity=95 time=0
EXTRACT: note_off channel=4 note=81 velocity=95 time=0.07246366666666668
EXTRACT: note_on channel=4 note=81 velocity=95 time=0
EXTRACT: note_off channel=4 note=81 velocity=95 time=0.07246366666666668
EXTRACT: note_on channel=4 note=81 velocity=95 time=0
EXTRACT: note_off channel=0 note=38 velocity=95 time=0
EXTRACT: note_off channel=9 note=42 velocity=79 time=0
EXTRACT: note_off channel=9 note=51 velocity=63 time=0
EXTRACT: note_off channel=9 note=35 velocity=127 time=0
EXTRACT: note_on channel=9 note=42 velocity=47 time=0
EXTRACT: note_off channel=4 note=81 velocity=95 time=0.07246366666666668
EXTRACT: note_on channel=4 note=81 velocity=95 time=0
EXTRACT: note_off channel=4 note=81 velocity=95 time=0.07246366666666668
EXTRACT: note_on channel=4 note=81 velocity=95 time=0
EXTRACT: note_off channel=4 note=81 velocity=95 time=0.07246366666666668
EXTRACT: note_on channel=4 note=83 velocity=95 time=0
EXTRACT: note_on channel=0 note=38 velocity=95 time=0
EXTRACT: note_off channel=9 note=42 velocity=47 time=0
EXTRACT: note_on channel=9 note=42 velocity=79 time=0
EXTRACT: note_on channel=9 note=51 velocity=63 time=0
EXTRACT: note_on channel=9 note=40 velocity=111 time=0
EXTRACT: note_off channel=4 note=83 velocity=95 time=0.07246366666666668
EXTRACT: note_on channel=4 note=83 velocity=95 time=0
EXTRACT: note_off channel=4 note=83 velocity=95 time=0.07246366666666668
EXTRACT: note_on channel=4 note=83 velocity=95 time=0
EXTRACT: note_off channel=4 note=83 velocity=95 time=0.07246366666666668
EXTRACT: note_on channel=4 note=83 velocity=95 time=0
EXTRACT: note_off channel=0 note=38 velocity=95 time=0
EXTRACT: note_off channel=9 note=42 velocity=79 time=0
EXTRACT: note_off channel=9 note=51 velocity=63 time=0
EXTRACT: note_off channel=9 note=40 velocity=111 time=0
EXTRACT: note_on channel=9 note=42 velocity=47 time=0
EXTRACT: note_off channel=4 note=83 velocity=95 time=0.07246366666666668
EXTRACT: note_on channel=4 note=83 velocity=95 time=0
EXTRACT: note_off channel=4 note=83 velocity=95 time=0.07246366666666668
EXTRACT: note_on channel=4 note=83 velocity=95 time=0
EXTRACT: note_off channel=4 note=83 velocity=95 time=0.07246366666666668
EXTRACT: note_on channel=4 note=83 velocity=95 time=0
EXTRACT: note_off channel=9 note=42 velocity=47 time=0
EXTRACT: note_on channel=9 note=42 velocity=79 time=0
EXTRACT: note_on channel=9 note=51 velocity=63 time=0
EXTRACT: note_off channel=4 note=83 velocity=95 time=0.07246366666666668
EXTRACT: note_on channel=4 note=83 velocity=95 time=0
EXTRACT: note_off channel=4 note=83 velocity=95 time=0.07246366666666668
EXTRACT: note_on channel=4 note=83 velocity=95 time=0
EXTRACT: note_off channel=4 note=83 velocity=95 time=0.07246366666666668
EXTRACT: note_on channel=4 note=84 velocity=95 time=0
EXTRACT: note_off channel=9 note=42 velocity=79 time=0
EXTRACT: note_off channel=9 note=51 velocity=63 time=0
EXTRACT: note_on channel=9 note=35 velocity=127 time=0
EXTRACT: note_on channel=9 note=42 velocity=47 time=0
EXTRACT: note_off channel=4 note=84 velocity=95 time=0.07246366666666668
EXTRACT: note_on channel=4 note=84 velocity=95 time=0
EXTRACT: note_off channel=4 note=84 velocity=95 time=0.07246366666666668
EXTRACT: note_on channel=4 note=84 velocity=95 time=0
EXTRACT: note_off channel=4 note=84 velocity=95 time=0.07246366666666668
EXTRACT: note_on channel=4 note=84 velocity=95 time=0
EXTRACT: note_off channel=9 note=35 velocity=127 time=0
EXTRACT: note_off channel=9 note=42 velocity=47 time=0
EXTRACT: note_on channel=9 note=42 velocity=79 time=0
EXTRACT: note_on channel=9 note=51 velocity=63 time=0
EXTRACT: note_on channel=9 note=38 velocity=111 time=0
EXTRACT: note_on channel=9 note=39 velocity=95 time=0
EXTRACT: note_on channel=9 note=54 velocity=111 time=0
EXTRACT: note_on channel=9 note=41 velocity=111 time=0
EXTRACT: note_off channel=4 note=84 velocity=95 time=0.07246366666666668
EXTRACT: note_on channel=4 note=84 velocity=95 time=0
EXTRACT: note_off channel=4 note=84 velocity=95 time=0.07246366666666668
EXTRACT: note_on channel=4 note=84 velocity=95 time=0
EXTRACT: note_off channel=4 note=84 velocity=95 time=0.07246366666666668
EXTRACT: note_on channel=4 note=84 velocity=95 time=0
EXTRACT: note_on channel=0 note=28 velocity=95 time=0
EXTRACT: note_off channel=9 note=42 velocity=79 time=0
EXTRACT: note_off channel=9 note=51 velocity=63 time=0
EXTRACT: note_off channel=9 note=38 velocity=111 time=0
EXTRACT: note_off channel=9 note=39 velocity=95 time=0
EXTRACT: note_off channel=9 note=54 velocity=111 time=0
EXTRACT: note_off channel=9 note=41 velocity=111 time=0
EXTRACT: note_on channel=9 note=42 velocity=47 time=0
EXTRACT: note_on channel=9 note=35 velocity=111 time=0
EXTRACT: note_on channel=9 note=51 velocity=95 time=0
EXTRACT: note_off channel=4 note=84 velocity=95 time=0.07246366666666668
EXTRACT: note_on channel=4 note=84 velocity=95 time=0
EXTRACT: note_off channel=4 note=84 velocity=95 time=0.07246366666666668
EXTRACT: note_on channel=4 note=84 velocity=95 time=0
EXTRACT: note_on channel=2 note=71 velocity=127 time=0.07246366666666668
EXTRACT: note_off channel=4 note=84 velocity=95 time=0
EXTRACT: pitchwheel channel=5 pitch=0 time=0
EXTRACT: note_on channel=5 note=86 velocity=95 time=0
EXTRACT: note_off channel=9 note=42 velocity=47 time=0
EXTRACT: note_off channel=9 note=35 velocity=111 time=0
EXTRACT: note_off channel=9 note=51 velocity=95 time=0
EXTRACT: note_on channel=9 note=35 velocity=127 time=0
EXTRACT: note_on channel=9 note=49 velocity=79 time=0
EXTRACT: note_on channel=9 note=51 velocity=63 time=0
EXTRACT: pitchwheel channel=5 pitch=128 time=0.0031702854166666666
EXTRACT: pitchwheel channel=5 pitch=256 time=0.0031702854166666666
EXTRACT: pitchwheel channel=5 pitch=384 time=0.0031702854166666666
EXTRACT: pitchwheel channel=5 pitch=512 time=0.0031702854166666666
EXTRACT: pitchwheel channel=5 pitch=640 time=0.0031702854166666666
EXTRACT: pitchwheel channel=5 pitch=768 time=0.0031702854166666666
EXTRACT: pitchwheel channel=5 pitch=896 time=0.0031702854166666666
EXTRACT: pitchwheel channel=5 pitch=1024 time=0.0031702854166666666
EXTRACT: pitchwheel channel=5 pitch=1152 time=0.0031702854166666666
EXTRACT: pitchwheel channel=5 pitch=1280 time=0.0031702854166666666
EXTRACT: pitchwheel channel=5 pitch=1408 time=0.0031702854166666666
EXTRACT: pitchwheel channel=5 pitch=1408 time=0.00135869375
EXTRACT: pitchwheel channel=5 pitch=1408 time=0.03623183333333334
EXTRACT: pitchwheel channel=5 pitch=0 time=0
EXTRACT: note_off channel=5 note=86 velocity=95 time=0
EXTRACT: pitchwheel channel=5 pitch=1408 time=0
EXTRACT: note_on channel=5 note=86 velocity=95 time=0
EXTRACT: pitchwheel channel=5 pitch=1408 time=0.07246366666666668
EXTRACT: pitchwheel channel=5 pitch=0 time=0
EXTRACT: note_off channel=5 note=86 velocity=95 time=0
EXTRACT: pitchwheel channel=5 pitch=1408 time=0
EXTRACT: note_on channel=5 note=86 velocity=95 time=0
EXTRACT: note_off channel=2 note=71 velocity=127 time=0.07246366666666668
EXTRACT: note_on channel=2 note=71 velocity=127 time=0
EXTRACT: pitchwheel channel=5 pitch=1408 time=0
EXTRACT: pitchwheel channel=5 pitch=0 time=0
EXTRACT: note_off channel=5 note=86 velocity=95 time=0
EXTRACT: pitchwheel channel=5 pitch=1408 time=0
EXTRACT: note_on channel=5 note=86 velocity=95 time=0
EXTRACT: note_off channel=0 note=28 velocity=95 time=0
EXTRACT: note_on channel=0 note=31 velocity=95 time=0
EXTRACT: note_off channel=9 note=35 velocity=127 time=0
EXTRACT: note_off channel=9 note=49 velocity=79 time=0
EXTRACT: note_off channel=9 note=51 velocity=63 time=0
EXTRACT: note_on channel=9 note=42 velocity=47 time=0
EXTRACT: pitchwheel channel=5 pitch=1408 time=0.07246366666666668
EXTRACT: pitchwheel channel=5 pitch=0 time=0
EXTRACT: note_off channel=5 note=86 velocity=95 time=0
EXTRACT: pitchwheel channel=5 pitch=1408 time=0
EXTRACT: note_on channel=5 note=86 velocity=95 time=0
EXTRACT: pitchwheel channel=5 pitch=1408 time=0.07246366666666668
EXTRACT: pitchwheel channel=5 pitch=0 time=0
EXTRACT: note_off channel=5 note=86 velocity=95 time=0
EXTRACT: pitchwheel channel=5 pitch=1408 time=0
EXTRACT: note_on channel=5 note=86 velocity=95 time=0
EXTRACT: pitchwheel channel=5 pitch=1408 time=0.07246366666666668
EXTRACT: pitchwheel channel=5 pitch=0 time=0
EXTRACT: note_off channel=5 note=86 velocity=95 time=0
EXTRACT: pitchwheel channel=5 pitch=1408 time=0
EXTRACT: note_on channel=5 note=86 velocity=95 time=0
EXTRACT: note_off channel=0 note=31 velocity=95 time=0
EXTRACT: note_on channel=0 note=35 velocity=95 time=0
EXTRACT: note_off channel=9 note=42 velocity=47 time=0
EXTRACT: note_on channel=9 note=40 velocity=111 time=0
EXTRACT: note_on channel=9 note=42 velocity=79 time=0
EXTRACT: note_on channel=9 note=51 velocity=63 time=0
EXTRACT: pitchwheel channel=5 pitch=1408 time=0.07246366666666668
EXTRACT: pitchwheel channel=5 pitch=0 time=0
EXTRACT: note_off channel=5 note=86 velocity=95 time=0
EXTRACT: pitchwheel channel=5 pitch=1408 time=0
EXTRACT: note_on channel=5 note=86 velocity=95 time=0
EXTRACT: pitchwheel channel=5 pitch=1408 time=0.07246366666666668
EXTRACT: pitchwheel channel=5 pitch=0 time=0
EXTRACT: note_off channel=5 note=86 velocity=95 time=0
EXTRACT: pitchwheel channel=5 pitch=1408 time=0
EXTRACT: note_on channel=5 note=86 velocity=95 time=0
EXTRACT: pitchwheel channel=5 pitch=1408 time=0.07246366666666668
EXTRACT: pitchwheel channel=5 pitch=0 time=0
EXTRACT: note_off channel=5 note=86 velocity=95 time=0
EXTRACT: pitchwheel channel=5 pitch=1408 time=0
EXTRACT: note_on channel=5 note=86 velocity=95 time=0
EXTRACT: note_off channel=0 note=35 velocity=95 time=0
EXTRACT: note_on channel=0 note=43 velocity=95 time=0
EXTRACT: note_off channel=9 note=40 velocity=111 time=0
EXTRACT: note_off channel=9 note=42 velocity=79 time=0
EXTRACT: note_off channel=9 note=51 velocity=63 time=0
EXTRACT: note_on channel=9 note=42 velocity=47 time=0
EXTRACT: pitchwheel channel=5 pitch=1408 time=0.07246366666666668
EXTRACT: pitchwheel channel=5 pitch=0 time=0
EXTRACT: note_off channel=5 note=86 velocity=95 time=0
EXTRACT: pitchwheel channel=5 pitch=1408 time=0
EXTRACT: note_on channel=5 note=86 velocity=95 time=0
EXTRACT: pitchwheel channel=5 pitch=1408 time=0.07246366666666668
EXTRACT: pitchwheel channel=5 pitch=0 time=0
EXTRACT: note_off channel=5 note=86 velocity=95 time=0
EXTRACT: pitchwheel channel=5 pitch=1408 time=0
EXTRACT: note_on channel=5 note=86 velocity=95 time=0
EXTRACT: pitchwheel channel=5 pitch=1408 time=0.07246366666666668
EXTRACT: pitchwheel channel=5 pitch=0 time=0
EXTRACT: note_off channel=5 note=86 velocity=95 time=0
EXTRACT: note_on channel=4 note=88 velocity=95 time=0
EXTRACT: note_off channel=0 note=43 velocity=95 time=0
EXTRACT: note_on channel=0 note=40 velocity=95 time=0
EXTRACT: note_off channel=9 note=42 velocity=47 time=0
EXTRACT: note_on channel=9 note=35 velocity=127 time=0
EXTRACT: note_on channel=9 note=42 velocity=95 time=0
EXTRACT: note_on channel=9 note=51 velocity=79 time=0
EXTRACT: note_off channel=2 note=71 velocity=127 time=0.217391
EXTRACT: note_off channel=4 note=88 velocity=95 time=0
EXTRACT: note_on channel=4 note=88 velocity=95 time=0
EXTRACT: note_off channel=9 note=35 velocity=127 time=0
EXTRACT: note_off channel=9 note=42 velocity=95 time=0
EXTRACT: note_off channel=9 note=51 velocity=79 time=0
EXTRACT: note_on channel=9 note=42 velocity=47 time=0
EXTRACT: note_off channel=4 note=88 velocity=95 time=0.217391
EXTRACT: note_on channel=4 note=88 velocity=95 time=0
EXTRACT: note_off channel=0 note=40 velocity=95 time=0
EXTRACT: note_off channel=9 note=42 velocity=47 time=0
EXTRACT: note_on channel=9 note=38 velocity=111 time=0
EXTRACT: note_on channel=9 note=39 velocity=95 time=0
EXTRACT: note_on channel=9 note=41 velocity=111 time=0
EXTRACT: note_on channel=9 note=54 velocity=95 time=0
EXTRACT: note_on channel=9 note=42 velocity=95 time=0
EXTRACT: note_on channel=9 note=51 velocity=79 time=0
EXTRACT: note_on channel=1 note=40 velocity=95 time=0.16304325
EXTRACT: note_off channel=4 note=88 velocity=95 time=0.05434775
EXTRACT: note_on channel=5 note=88 velocity=95 time=0
EXTRACT: note_off channel=1 note=40 velocity=95 time=0
EXTRACT: pitchwheel channel=1 pitch=0 time=0
EXTRACT: note_on channel=1 note=40 velocity=95 time=0
EXTRACT: note_off channel=9 note=38 velocity=111 time=0
EXTRACT: note_off channel=9 note=39 velocity=95 time=0
EXTRACT: note_off channel=9 note=41 velocity=111 time=0
EXTRACT: note_off channel=9 note=54 velocity=95 time=0
EXTRACT: note_off channel=9 note=42 velocity=95 time=0
EXTRACT: note_off channel=9 note=51 velocity=79 time=0
EXTRACT: note_on channel=9 note=42 velocity=47 time=0
EXTRACT: pitchwheel channel=1 pitch=128 time=0.019474610416666666
EXTRACT: pitchwheel channel=1 pitch=256 time=0.019474610416666666
EXTRACT: pitchwheel channel=1 pitch=384 time=0.019474610416666666
EXTRACT: pitchwheel channel=5 pitch=0 time=0.014039835416666667
EXTRACT: pitchwheel channel=1 pitch=512 time=0.005434775
EXTRACT: pitchwheel channel=1 pitch=640 time=0.019474610416666666
EXTRACT: pitchwheel channel=1 pitch=768 time=0.019474610416666666
EXTRACT: pitchwheel channel=1 pitch=896 time=0.019474610416666666
EXTRACT: pitchwheel channel=5 pitch=128 time=0.008605060416666668
EXTRACT: pitchwheel channel=1 pitch=1024 time=0.01086955
EXTRACT: pitchwheel channel=1 pitch=1152 time=0.019474610416666666
EXTRACT: pitchwheel channel=1 pitch=1280 time=0.019474610416666666
EXTRACT: pitchwheel channel=1 pitch=1408 time=0.019474610416666666
EXTRACT: note_on channel=2 note=71 velocity=127 time=0.0031702854166666666
EXTRACT: pitchwheel channel=5 pitch=0 time=0
EXTRACT: pitchwheel channel=1 pitch=1408 time=0
EXTRACT: note_off channel=9 note=42 velocity=47 time=0
EXTRACT: note_on channel=9 note=35 velocity=127 time=0
EXTRACT: note_on channel=9 note=42 velocity=79 time=0
EXTRACT: note_on channel=9 note=51 velocity=63 time=0
EXTRACT: pitchwheel channel=5 pitch=128 time=0.07246366666666668
EXTRACT: pitchwheel channel=5 pitch=0 time=0.07246366666666668
EXTRACT: note_off channel=2 note=71 velocity=127 time=0.07246366666666668
EXTRACT: note_on channel=2 note=71 velocity=111 time=0
EXTRACT: pitchwheel channel=5 pitch=128 time=0
EXTRACT: pitchwheel channel=5 pitch=0 time=0
EXTRACT: note_off channel=5 note=88 velocity=95 time=0
EXTRACT: note_on channel=4 note=59 velocity=95 time=0
EXTRACT: pitchwheel channel=1 pitch=1408 time=0
EXTRACT: pitchwheel channel=1 pitch=0 time=0
EXTRACT: note_off channel=1 note=40 velocity=95 time=0
EXTRACT: note_on channel=0 note=40 velocity=95 time=0
EXTRACT: note_off channel=9 note=35 velocity=127 time=0
EXTRACT: note_off channel=9 note=42 velocity=79 time=0
EXTRACT: note_off channel=9 note=51 velocity=63 time=0
EXTRACT: note_on channel=9 note=42 velocity=47 time=0
EXTRACT: note_off channel=4 note=59 velocity=95 time=0.031249956250000002
EXTRACT: note_on channel=5 note=71 velocity=95 time=0.18614104375
EXTRACT: note_off channel=0 note=40 velocity=95 time=0
EXTRACT: note_on channel=0 note=38 velocity=95 time=0
EXTRACT: note_off channel=9 note=42 velocity=47 time=0
EXTRACT: note_on channel=9 note=42 velocity=95 time=0
EXTRACT: note_on channel=9 note=51 velocity=79 time=0
EXTRACT: note_on channel=9 note=40 velocity=111 time=0
EXTRACT: note_off channel=0 note=38 velocity=95 time=0.217391
EXTRACT: note_off channel=9 note=42 velocity=95 time=0
EXTRACT: note_off channel=9 note=51 velocity=79 time=0
EXTRACT: note_off channel=9 note=40 velocity=111 time=0
EXTRACT: note_on channel=9 note=42 velocity=47 time=0
EXTRACT: note_off channel=2 note=71 velocity=111 time=0.217391
EXTRACT: note_on channel=0 note=38 velocity=95 time=0
EXTRACT: note_off channel=9 note=42 velocity=47 time=0
EXTRACT: note_on channel=9 note=42 velocity=79 time=0
EXTRACT: note_on channel=9 note=51 velocity=63 time=0
EXTRACT: note_off channel=0 note=38 velocity=95 time=0.217391
EXTRACT: note_off channel=9 note=42 velocity=79 time=0
EXTRACT: note_off channel=9 note=51 velocity=63 time=0
EXTRACT: note_on channel=9 note=35 velocity=127 time=0
EXTRACT: note_on channel=9 note=42 velocity=47 time=0
EXTRACT: note_off channel=9 note=35 velocity=127 time=0.217391
EXTRACT: note_off channel=9 note=42 velocity=47 time=0
EXTRACT: note_on channel=9 note=38 velocity=111 time=0
EXTRACT: note_on channel=9 note=39 velocity=111 time=0
EXTRACT: note_on channel=9 note=54 velocity=95 time=0
EXTRACT: note_on channel=9 note=41 velocity=111 time=0
EXTRACT: note_on channel=9 note=42 velocity=95 time=0
EXTRACT: note_on channel=9 note=51 velocity=79 time=0
EXTRACT: note_on channel=2 note=71 velocity=127 time=0.217391
EXTRACT: note_on channel=0 note=28 velocity=95 time=0
EXTRACT: note_off channel=9 note=38 velocity=111 time=0
EXTRACT: note_off channel=9 note=39 velocity=111 time=0
EXTRACT: note_off channel=9 note=54 velocity=95 time=0
EXTRACT: note_off channel=9 note=41 velocity=111 time=0
EXTRACT: note_off channel=9 note=42 velocity=95 time=0
EXTRACT: note_off channel=9 note=51 velocity=79 time=0
EXTRACT: note_on channel=9 note=42 velocity=47 time=0
EXTRACT: note_off channel=5 note=71 velocity=95 time=0.217391
EXTRACT: note_off channel=9 note=42 velocity=47 time=0
EXTRACT: note_on channel=9 note=35 velocity=127 time=0
EXTRACT: note_on channel=9 note=42 velocity=95 time=0
EXTRACT: note_on channel=9 note=51 velocity=79 time=0
EXTRACT: note_off channel=2 note=71 velocity=127 time=0.217391
EXTRACT: note_on channel=2 note=71 velocity=111 time=0
EXTRACT: note_off channel=0 note=28 velocity=95 time=0
EXTRACT: note_on channel=0 note=31 velocity=95 time=0
EXTRACT: note_off channel=9 note=35 velocity=127 time=0
EXTRACT: note_off channel=9 note=42 velocity=95 time=0
EXTRACT: note_off channel=9 note=51 velocity=79 time=0
EXTRACT: note_on channel=9 note=42 velocity=47 time=0
EXTRACT: note_off channel=2 note=71 velocity=111 time=0.217391
EXTRACT: note_on channel=2 note=71 velocity=111 time=0
EXTRACT: note_off channel=0 note=31 velocity=95 time=0
EXTRACT: note_on channel=0 note=35 velocity=95 time=0
EXTRACT: note_off channel=9 note=42 velocity=47 time=0
EXTRACT: note_on channel=9 note=40 velocity=111 time=0
EXTRACT: note_on channel=9 note=42 velocity=95 time=0
EXTRACT: note_on channel=9 note=51 velocity=79 time=0
EXTRACT: note_off channel=2 note=71 velocity=111 time=0.217391
EXTRACT: note_on channel=2 note=71 velocity=111 time=0
EXTRACT: note_off channel=0 note=35 velocity=95 time=0
EXTRACT: note_on channel=0 note=43 velocity=95 time=0
EXTRACT: note_off channel=9 note=40 velocity=111 time=0
EXTRACT: note_off channel=9 note=42 velocity=95 time=0
EXTRACT: note_off channel=9 note=51 velocity=79 time=0
EXTRACT: note_on channel=9 note=42 velocity=47 time=0
EXTRACT: note_off channel=2 note=71 velocity=111 time=0.217391
EXTRACT: note_on channel=2 note=71 velocity=127 time=0
EXTRACT: note_off channel=0 note=43 velocity=95 time=0
EXTRACT: note_on channel=0 note=40 velocity=95 time=0
EXTRACT: note_off channel=9 note=42 velocity=47 time=0
EXTRACT: note_on channel=9 note=42 velocity=79 time=0
EXTRACT: note_on channel=9 note=51 velocity=63 time=0
EXTRACT: note_on channel=9 note=35 velocity=127 time=0
EXTRACT: note_off channel=2 note=71 velocity=127 time=0.217391
EXTRACT: note_off channel=9 note=42 velocity=79 time=0
EXTRACT: note_off channel=9 note=51 velocity=63 time=0
EXTRACT: note_off channel=9 note=35 velocity=127 time=0
EXTRACT: note_on channel=9 note=42 velocity=47 time=0
EXTRACT: note_on channel=2 note=71 velocity=111 time=0.217391
EXTRACT: note_off channel=0 note=40 velocity=95 time=0
EXTRACT: note_off channel=9 note=42 velocity=47 time=0
EXTRACT: note_on channel=9 note=39 velocity=95 time=0
EXTRACT: note_on channel=9 note=38 velocity=95 time=0
EXTRACT: note_on channel=9 note=41 velocity=111 time=0
EXTRACT: note_on channel=9 note=54 velocity=95 time=0
EXTRACT: note_on channel=9 note=42 velocity=95 time=0
EXTRACT: note_on channel=9 note=51 velocity=79 time=0
EXTRACT: note_on channel=1 note=40 velocity=95 time=0.16304325
EXTRACT: note_off channel=2 note=71 velocity=111 time=0.05434775
EXTRACT: note_on channel=2 note=71 velocity=127 time=0
EXTRACT: note_off channel=1 note=40 velocity=95 time=0
EXTRACT: pitchwheel channel=1 pitch=0 time=0
EXTRACT: note_on channel=1 note=40 velocity=95 time=0
EXTRACT: note_off channel=9 note=39 velocity=95 time=0
EXTRACT: note_off channel=9 note=38 velocity=95 time=0
EXTRACT: note_off channel=9 note=41 velocity=111 time=0
EXTRACT: note_off channel=9 note=54 velocity=95 time=0
EXTRACT: note_off channel=9 note=42 velocity=95 time=0
EXTRACT: note_off channel=9 note=51 velocity=79 time=0
EXTRACT: note_on channel=9 note=42 velocity=47 time=0
EXTRACT: pitchwheel channel=1 pitch=128 time=0.019474610416666666
EXTRACT: pitchwheel channel=1 pitch=256 time=0.019474610416666666
EXTRACT: pitchwheel channel=1 pitch=384 time=0.019474610416666666
EXTRACT: pitchwheel channel=1 pitch=512 time=0.019474610416666666
EXTRACT: pitchwheel channel=1 pitch=640 time=0.019474610416666666
EXTRACT: pitchwheel channel=1 pitch=768 time=0.019474610416666666
EXTRACT: pitchwheel channel=1 pitch=896 time=0.019474610416666666
EXTRACT: pitchwheel channel=1 pitch=1024 time=0.019474610416666666
EXTRACT: pitchwheel channel=1 pitch=1152 time=0.019474610416666666
EXTRACT: pitchwheel channel=1 pitch=1280 time=0.019474610416666666
EXTRACT: pitchwheel channel=1 pitch=1408 time=0.019474610416666666
EXTRACT: note_off channel=2 note=71 velocity=127 time=0.0031702854166666666
EXTRACT: pitchwheel channel=1 pitch=1408 time=0
EXTRACT: note_off channel=9 note=42 velocity=47 time=0
EXTRACT: note_on channel=9 note=35 velocity=127 time=0
EXTRACT: note_on channel=9 note=42 velocity=79 time=0
EXTRACT: note_on channel=9 note=51 velocity=63 time=0
EXTRACT: note_on channel=2 note=71 velocity=127 time=0.217391
EXTRACT: pitchwheel channel=1 pitch=1408 time=0
EXTRACT: pitchwheel channel=1 pitch=0 time=0
EXTRACT: note_off channel=1 note=40 velocity=95 time=0
EXTRACT: note_on channel=0 note=40 velocity=95 time=0
EXTRACT: note_off channel=9 note=35 velocity=127 time=0
EXTRACT: note_off channel=9 note=42 velocity=79 time=0
EXTRACT: note_off channel=9 note=51 velocity=63 time=0
EXTRACT: note_on channel=9 note=42 velocity=47 time=0
EXTRACT: note_off channel=2 note=71 velocity=127 time=0.217391
EXTRACT: note_off channel=0 note=40 velocity=95 time=0
EXTRACT: note_on channel=0 note=38 velocity=95 time=0
EXTRACT: note_off channel=9 note=42 velocity=47 time=0
EXTRACT: note_on channel=9 note=40 velocity=111 time=0
EXTRACT: note_on channel=9 note=42 velocity=95 time=0
EXTRACT: note_on channel=9 note=51 velocity=79 time=0
EXTRACT: note_off channel=0 note=38 velocity=95 time=0.217391
EXTRACT: note_off channel=9 note=40 velocity=111 time=0
EXTRACT: note_off channel=9 note=42 velocity=95 time=0
EXTRACT: note_off channel=9 note=51 velocity=79 time=0
EXTRACT: note_on channel=9 note=42 velocity=47 time=0
EXTRACT: note_off channel=9 note=42 velocity=47 time=0.217391
EXTRACT: note_on channel=9 note=42 velocity=79 time=0
EXTRACT: note_on channel=9 note=51 velocity=63 time=0
EXTRACT: note_off channel=9 note=42 velocity=79 time=0.217391
EXTRACT: note_off channel=9 note=51 velocity=63 time=0
EXTRACT: note_on channel=9 note=35 velocity=127 time=0
EXTRACT: note_on channel=9 note=42 velocity=47 time=0
EXTRACT: note_off channel=9 note=35 velocity=127 time=0.217391
EXTRACT: note_off channel=9 note=42 velocity=47 time=0
EXTRACT: note_on channel=9 note=54 velocity=95 time=0
EXTRACT: note_on channel=9 note=39 velocity=95 time=0
EXTRACT: note_on channel=9 note=41 velocity=111 time=0
EXTRACT: note_on channel=9 note=38 velocity=95 time=0
EXTRACT: note_on channel=9 note=42 velocity=95 time=0
EXTRACT: note_on channel=9 note=51 velocity=79 time=0
EXTRACT: note_on channel=2 note=69 velocity=127 time=0.217391
EXTRACT: note_on channel=0 note=28 velocity=95 time=0
EXTRACT: note_off channel=9 note=54 velocity=95 time=0
EXTRACT: note_off channel=9 note=39 velocity=95 time=0
EXTRACT: note_off channel=9 note=41 velocity=111 time=0
EXTRACT: note_off channel=9 note=38 velocity=95 time=0
EXTRACT: note_off channel=9 note=42 velocity=95 time=0
EXTRACT: note_off channel=9 note=51 velocity=79 time=0
EXTRACT: note_on channel=9 note=42 velocity=31 time=0
EXTRACT: note_off channel=9 note=42 velocity=31 time=0.217391
EXTRACT: note_on channel=9 note=35 velocity=127 time=0
EXTRACT: note_on channel=9 note=42 velocity=95 time=0
EXTRACT: note_on channel=9 note=51 velocity=79 time=0
EXTRACT: note_off channel=2 note=69 velocity=127 time=0.217391
EXTRACT: note_on channel=2 note=67 velocity=95 time=0
EXTRACT: note_off channel=0 note=28 velocity=95 time=0
EXTRACT: note_on channel=0 note=31 velocity=95 time=0
EXTRACT: note_off channel=9 note=35 velocity=127 time=0
EXTRACT: note_off channel=9 note=42 velocity=95 time=0
EXTRACT: note_off channel=9 note=51 velocity=79 time=0
EXTRACT: note_on channel=9 note=42 velocity=47 time=0
EXTRACT: note_off channel=2 note=67 velocity=95 time=0.217391
EXTRACT: note_on channel=2 note=69 velocity=111 time=0
EXTRACT: note_off channel=0 note=31 velocity=95 time=0
EXTRACT: note_on channel=0 note=35 velocity=95 time=0
EXTRACT: note_off channel=9 note=42 velocity=47 time=0
EXTRACT: note_on channel=9 note=40 velocity=111 time=0
EXTRACT: note_on channel=9 note=42 velocity=95 time=0
EXTRACT: note_on channel=9 note=51 velocity=79 time=0
EXTRACT: note_off channel=2 note=69 velocity=111 time=0.217391
EXTRACT: note_off channel=0 note=35 velocity=95 time=0
EXTRACT: note_on channel=0 note=43 velocity=95 time=0
EXTRACT: note_off channel=9 note=40 velocity=111 time=0
EXTRACT: note_off channel=9 note=42 velocity=95 time=0
EXTRACT: note_off channel=9 note=51 velocity=79 time=0
EXTRACT: note_on channel=9 note=42 velocity=47 time=0
EXTRACT: note_on channel=2 note=67 velocity=127 time=0.217391
EXTRACT: note_off channel=0 note=43 velocity=95 time=0
EXTRACT: note_on channel=0 note=40 velocity=95 time=0
EXTRACT: note_off channel=9 note=42 velocity=47 time=0
EXTRACT: note_on channel=9 note=42 velocity=79 time=0
EXTRACT: note_on channel=9 note=51 velocity=63 time=0
EXTRACT: note_on channel=9 note=35 velocity=127 time=0
EXTRACT: note_off channel=2 note=67 velocity=127 time=0.217391
EXTRACT: note_on channel=2 note=69 velocity=111 time=0
EXTRACT: note_off channel=9 note=42 velocity=79 time=0
EXTRACT: note_off channel=9 note=51 velocity=63 time=0
EXTRACT: note_off channel=9 note=35 velocity=127 time=0
EXTRACT: note_on channel=9 note=42 velocity=47 time=0
EXTRACT: note_off channel=2 note=69 velocity=111 time=0.217391
EXTRACT: note_on channel=2 note=67 velocity=95 time=0
EXTRACT: note_off channel=0 note=40 velocity=95 time=0
EXTRACT: note_off channel=9 note=42 velocity=47 time=0
EXTRACT: note_on channel=9 note=38 velocity=111 time=0
EXTRACT: note_on channel=9 note=39 velocity=95 time=0
EXTRACT: note_on channel=9 note=41 velocity=111 time=0
EXTRACT: note_on channel=9 note=54 velocity=95 time=0
EXTRACT: note_on channel=9 note=42 velocity=95 time=0
EXTRACT: note_on channel=9 note=51 velocity=79 time=0
EXTRACT: note_on channel=1 note=40 velocity=95 time=0.16304325
EXTRACT: note_off channel=2 note=67 velocity=95 time=0.05434775
EXTRACT: note_on channel=2 note=69 velocity=127 time=0
EXTRACT: note_off channel=1 note=40 velocity=95 time=0
EXTRACT: pitchwheel channel=1 pitch=0 time=0
EXTRACT: note_on channel=1 note=40 velocity=95 time=0
EXTRACT: note_off channel=9 note=38 velocity=111 time=0
EXTRACT: note_off channel=9 note=39 velocity=95 time=0
EXTRACT: note_off channel=9 note=41 velocity=111 time=0
EXTRACT: note_off channel=9 note=54 velocity=95 time=0
EXTRACT: note_off channel=9 note=42 velocity=95 time=0
EXTRACT: note_off channel=9 note=51 velocity=79 time=0
EXTRACT: note_on channel=9 note=42 velocity=47 time=0
EXTRACT: pitchwheel channel=1 pitch=128 time=0.019474610416666666
EXTRACT: pitchwheel channel=1 pitch=256 time=0.019474610416666666
EXTRACT: pitchwheel channel=1 pitch=384 time=0.019474610416666666
EXTRACT: pitchwheel channel=1 pitch=512 time=0.019474610416666666
EXTRACT: pitchwheel channel=1 pitch=640 time=0.019474610416666666
EXTRACT: pitchwheel channel=1 pitch=768 time=0.019474610416666666
EXTRACT: pitchwheel channel=1 pitch=896 time=0.019474610416666666
EXTRACT: pitchwheel channel=1 pitch=1024 time=0.019474610416666666
EXTRACT: pitchwheel channel=1 pitch=1152 time=0.019474610416666666
EXTRACT: pitchwheel channel=1 pitch=1280 time=0.019474610416666666
EXTRACT: pitchwheel channel=1 pitch=1408 time=0.019474610416666666
EXTRACT: pitchwheel channel=1 pitch=1408 time=0.0031702854166666666
EXTRACT: note_off channel=9 note=42 velocity=47 time=0
EXTRACT: note_on channel=9 note=42 velocity=95 time=0
EXTRACT: note_on channel=9 note=51 velocity=79 time=0
EXTRACT: note_on channel=9 note=35 velocity=127 time=0
EXTRACT: note_off channel=2 note=69 velocity=127 time=0.217391
EXTRACT: note_on channel=2 note=67 velocity=95 time=0
EXTRACT: pitchwheel channel=1 pitch=1408 time=0
EXTRACT: pitchwheel channel=1 pitch=0 time=0
EXTRACT: note_off channel=1 note=40 velocity=95 time=0
EXTRACT: note_on channel=0 note=40 velocity=95 time=0
EXTRACT: note_off channel=9 note=42 velocity=95 time=0
EXTRACT: note_off channel=9 note=51 velocity=79 time=0
EXTRACT: note_off channel=9 note=35 velocity=127 time=0
EXTRACT: note_on channel=9 note=42 velocity=31 time=0
EXTRACT: note_off channel=2 note=67 velocity=95 time=0.217391
EXTRACT: note_on channel=2 note=69 velocity=127 time=0
EXTRACT: note_off channel=0 note=40 velocity=95 time=0
EXTRACT: note_on channel=0 note=38 velocity=95 time=0
EXTRACT: note_off channel=9 note=42 velocity=31 time=0
EXTRACT: note_on channel=9 note=42 velocity=95 time=0
EXTRACT: note_on channel=9 note=51 velocity=79 time=0
EXTRACT: note_on channel=9 note=40 velocity=111 time=0
EXTRACT: note_off channel=2 note=69 velocity=127 time=0.217391
EXTRACT: note_off channel=0 note=38 velocity=95 time=0
EXTRACT: note_off channel=9 note=42 velocity=95 time=0
EXTRACT: note_off channel=9 note=51 velocity=79 time=0
EXTRACT: note_off channel=9 note=40 velocity=111 time=0
EXTRACT: note_on channel=9 note=42 velocity=47 time=0
EXTRACT: note_on channel=2 note=67 velocity=111 time=0.217391
EXTRACT: note_on channel=0 note=38 velocity=95 time=0
EXTRACT: note_off channel=9 note=42 velocity=47 time=0
EXTRACT: note_on channel=9 note=42 velocity=95 time=0
EXTRACT: note_on channel=9 note=51 velocity=79 time=0
EXTRACT: note_off channel=2 note=67 velocity=111 time=0.217391
EXTRACT: note_off channel=0 note=38 velocity=95 time=0
EXTRACT: note_off channel=9 note=42 velocity=95 time=0
EXTRACT: note_off channel=9 note=51 velocity=79 time=0
EXTRACT: note_on channel=9 note=35 velocity=127 time=0
EXTRACT: note_on channel=9 note=42 velocity=47 time=0
EXTRACT: note_off channel=9 note=35 velocity=127 time=0.217391
EXTRACT: note_off channel=9 note=42 velocity=47 time=0
EXTRACT: note_on channel=9 note=38 velocity=111 time=0
EXTRACT: note_on channel=9 note=39 velocity=111 time=0
EXTRACT: note_on channel=9 note=54 velocity=95 time=0
EXTRACT: note_on channel=9 note=41 velocity=111 time=0
EXTRACT: note_on channel=9 note=42 velocity=95 time=0
EXTRACT: note_on channel=9 note=51 velocity=79 time=0
EXTRACT: note_on channel=2 note=69 velocity=127 time=0.217391
EXTRACT: note_on channel=0 note=28 velocity=95 time=0
EXTRACT: note_off channel=9 note=38 velocity=111 time=0
EXTRACT: note_off channel=9 note=39 velocity=111 time=0
EXTRACT: note_off channel=9 note=54 velocity=95 time=0
EXTRACT: note_off channel=9 note=41 velocity=111 time=0
EXTRACT: note_off channel=9 note=42 velocity=95 time=0
EXTRACT: note_off channel=9 note=51 velocity=79 time=0
EXTRACT: note_on channel=9 note=42 velocity=47 time=0
EXTRACT: note_off channel=9 note=42 velocity=47 time=0.217391
EXTRACT: note_on channel=9 note=35 velocity=127 time=0
EXTRACT: note_on channel=9 note=42 velocity=111 time=0
EXTRACT: note_off channel=2 note=69 velocity=127 time=0.217391
EXTRACT: note_on channel=2 note=67 velocity=111 time=0
EXTRACT: note_off channel=0 note=28 velocity=95 time=0
EXTRACT: note_on channel=0 note=31 velocity=95 time=0
EXTRACT: note_off channel=9 note=35 velocity=127 time=0
EXTRACT: note_off channel=9 note=42 velocity=111 time=0
EXTRACT: note_on channel=9 note=42 velocity=47 time=0
EXTRACT: note_off channel=2 note=67 velocity=111 time=0.217391
EXTRACT: note_on channel=2 note=69 velocity=127 time=0
EXTRACT: note_off channel=0 note=31 velocity=95 time=0
EXTRACT: note_on channel=0 note=35 velocity=95 time=0
EXTRACT: note_off channel=9 note=42 velocity=47 time=0
EXTRACT: note_on channel=9 note=40 velocity=111 time=0
EXTRACT: note_on channel=9 note=42 velocity=63 time=0
EXTRACT: note_on channel=9 note=51 velocity=63 time=0
EXTRACT: note_off channel=2 note=69 velocity=127 time=0.217391
EXTRACT: note_off channel=0 note=35 velocity=95 time=0
EXTRACT: note_on channel=0 note=43 velocity=95 time=0
EXTRACT: note_off channel=9 note=40 velocity=111 time=0
EXTRACT: note_off channel=9 note=42 velocity=63 time=0
EXTRACT: note_off channel=9 note=51 velocity=63 time=0
EXTRACT: note_on channel=9 note=42 velocity=15 time=0
EXTRACT: note_on channel=2 note=67 velocity=111 time=0.217391
EXTRACT: note_off channel=0 note=43 velocity=95 time=0
EXTRACT: note_on channel=0 note=40 velocity=95 time=0
EXTRACT: note_off channel=9 note=42 velocity=15 time=0
EXTRACT: note_on channel=9 note=35 velocity=127 time=0
EXTRACT: note_on channel=9 note=42 velocity=63 time=0
EXTRACT: note_on channel=9 note=51 velocity=63 time=0
EXTRACT: note_off channel=2 note=67 velocity=111 time=0.217391
EXTRACT: note_on channel=2 note=69 velocity=111 time=0
EXTRACT: note_off channel=9 note=35 velocity=127 time=0
EXTRACT: note_off channel=9 note=42 velocity=63 time=0
EXTRACT: note_off channel=9 note=51 velocity=63 time=0
EXTRACT: note_on channel=9 note=42 velocity=31 time=0
EXTRACT: note_off channel=2 note=69 velocity=111 time=0.217391
EXTRACT: note_off channel=0 note=40 velocity=95 time=0
EXTRACT: note_off channel=9 note=42 velocity=31 time=0
EXTRACT: note_on channel=9 note=39 velocity=95 time=0
EXTRACT: note_on channel=9 note=38 velocity=95 time=0
EXTRACT: note_on channel=9 note=41 velocity=111 time=0
EXTRACT: note_on channel=9 note=54 velocity=95 time=0
EXTRACT: note_on channel=9 note=42 velocity=79 time=0
EXTRACT: note_on channel=9 note=51 velocity=63 time=0
EXTRACT: note_on channel=1 note=40 velocity=95 time=0.16304325
EXTRACT: note_on channel=2 note=69 velocity=127 time=0.05434775
EXTRACT: note_off channel=1 note=40 velocity=95 time=0
EXTRACT: pitchwheel channel=1 pitch=0 time=0
EXTRACT: note_on channel=1 note=40 velocity=95 time=0
EXTRACT: note_off channel=9 note=39 velocity=95 time=0
EXTRACT: note_off channel=9 note=38 velocity=95 time=0
EXTRACT: note_off channel=9 note=41 velocity=111 time=0
EXTRACT: note_off channel=9 note=54 velocity=95 time=0
EXTRACT: note_off channel=9 note=42 velocity=79 time=0
EXTRACT: note_off channel=9 note=51 velocity=63 time=0
EXTRACT: note_on channel=9 note=42 velocity=31 time=0
EXTRACT: pitchwheel channel=1 pitch=128 time=0.019474610416666666
EXTRACT: pitchwheel channel=1 pitch=256 time=0.019474610416666666
EXTRACT: pitchwheel channel=1 pitch=384 time=0.019474610416666666
EXTRACT: pitchwheel channel=1 pitch=512 time=0.019474610416666666
EXTRACT: pitchwheel channel=1 pitch=640 time=0.019474610416666666
EXTRACT: pitchwheel channel=1 pitch=768 time=0.019474610416666666
EXTRACT: pitchwheel channel=1 pitch=896 time=0.019474610416666666
EXTRACT: pitchwheel channel=1 pitch=1024 time=0.019474610416666666
EXTRACT: pitchwheel channel=1 pitch=1152 time=0.019474610416666666
EXTRACT: pitchwheel channel=1 pitch=1280 time=0.019474610416666666
EXTRACT: pitchwheel channel=1 pitch=1408 time=0.019474610416666666
EXTRACT: pitchwheel channel=1 pitch=1408 time=0.0031702854166666666
EXTRACT: note_off channel=9 note=42 velocity=31 time=0
EXTRACT: note_on channel=9 note=35 velocity=127 time=0
EXTRACT: note_on channel=9 note=42 velocity=63 time=0
EXTRACT: note_on channel=9 note=51 velocity=63 time=0
EXTRACT: note_off channel=2 note=69 velocity=127 time=0.217391
EXTRACT: note_on channel=2 note=67 velocity=95 time=0
EXTRACT: pitchwheel channel=1 pitch=1408 time=0
EXTRACT: pitchwheel channel=1 pitch=0 time=0
EXTRACT: note_off channel=1 note=40 velocity=95 time=0
EXTRACT: note_on channel=0 note=40 velocity=95 time=0
EXTRACT: note_off channel=9 note=35 velocity=127 time=0
EXTRACT: note_off channel=9 note=42 velocity=63 time=0
EXTRACT: note_off channel=9 note=51 velocity=63 time=0
EXTRACT: note_on channel=9 note=42 velocity=31 time=0
EXTRACT: note_off channel=2 note=67 velocity=95 time=0.217391
EXTRACT: note_on channel=2 note=69 velocity=111 time=0
EXTRACT: note_off channel=0 note=40 velocity=95 time=0
EXTRACT: note_on channel=0 note=38 velocity=95 time=0
EXTRACT: note_off channel=9 note=42 velocity=31 time=0
EXTRACT: note_on channel=9 note=40 velocity=111 time=0
EXTRACT: note_on channel=9 note=42 velocity=79 time=0
EXTRACT: note_on channel=9 note=51 velocity=63 time=0
EXTRACT: note_off channel=2 note=69 velocity=111 time=0.217391
EXTRACT: note_off channel=0 note=38 velocity=95 time=0
EXTRACT: note_off channel=9 note=40 velocity=111 time=0
EXTRACT: note_off channel=9 note=42 velocity=79 time=0
EXTRACT: note_off channel=9 note=51 velocity=63 time=0
EXTRACT: note_on channel=9 note=42 velocity=31 time=0
EXTRACT: note_on channel=2 note=67 velocity=111 time=0.217391
EXTRACT: note_off channel=9 note=42 velocity=31 time=0
EXTRACT: note_on channel=9 note=42 velocity=63 time=0
EXTRACT: note_on channel=9 note=51 velocity=63 time=0
EXTRACT: note_off channel=2 note=67 velocity=111 time=0.217391
EXTRACT: note_off channel=9 note=42 velocity=63 time=0
EXTRACT: note_off channel=9 note=51 velocity=63 time=0
EXTRACT: note_on channel=9 note=35 velocity=127 time=0
EXTRACT: note_on channel=9 note=42 velocity=31 time=0
EXTRACT: note_on channel=2 note=69 velocity=127 time=0.217391
EXTRACT: note_off channel=9 note=35 velocity=127 time=0
EXTRACT: note_off channel=9 note=42 velocity=31 time=0
EXTRACT: note_on channel=9 note=54 velocity=95 time=0
EXTRACT: note_on channel=9 note=39 velocity=95 time=0
EXTRACT: note_on channel=9 note=41 velocity=111 time=0
EXTRACT: note_on channel=9 note=38 velocity=95 time=0
EXTRACT: note_on channel=9 note=42 velocity=79 time=0
EXTRACT: note_on channel=9 note=51 velocity=63 time=0
EXTRACT: note_off channel=2 note=69 velocity=127 time=0.217391
EXTRACT: note_on channel=0 note=28 velocity=95 time=0
EXTRACT: note_off channel=9 note=54 velocity=95 time=0
EXTRACT: note_off channel=9 note=39 velocity=95 time=0
EXTRACT: note_off channel=9 note=41 velocity=111 time=0
EXTRACT: note_off channel=9 note=38 velocity=95 time=0
EXTRACT: note_off channel=9 note=42 velocity=79 time=0
EXTRACT: note_off channel=9 note=51 velocity=63 time=0
EXTRACT: note_on channel=9 note=42 velocity=31 time=0
EXTRACT: note_on channel=2 note=71 velocity=127 time=0.217391
EXTRACT: note_off channel=9 note=42 velocity=31 time=0
EXTRACT: note_on channel=9 note=42 velocity=79 time=0
EXTRACT: note_on channel=9 note=51 velocity=63 time=0
EXTRACT: note_on channel=9 note=35 velocity=127 time=0
EXTRACT: note_off channel=2 note=71 velocity=127 time=0.217391
EXTRACT: note_on channel=2 note=71 velocity=127 time=0
EXTRACT: note_off channel=0 note=28 velocity=95 time=0
EXTRACT: note_on channel=0 note=31 velocity=95 time=0
EXTRACT: note_off channel=9 note=42 velocity=79 time=0
EXTRACT: note_off channel=9 note=51 velocity=63 time=0
EXTRACT: note_off channel=9 note=35 velocity=127 time=0
EXTRACT: note_on channel=9 note=42 velocity=47 time=0
EXTRACT: note_off channel=0 note=31 velocity=95 time=0.217391
EXTRACT: note_on channel=0 note=35 velocity=95 time=0
EXTRACT: note_off channel=9 note=42 velocity=47 time=0
EXTRACT: note_on channel=9 note=42 velocity=79 time=0
EXTRACT: note_on channel=9 note=51 velocity=63 time=0
EXTRACT: note_on channel=9 note=40 velocity=111 time=0
EXTRACT: note_off channel=0 note=35 velocity=95 time=0.217391
EXTRACT: note_on channel=0 note=43 velocity=95 time=0
EXTRACT: note_off channel=9 note=42 velocity=79 time=0
EXTRACT: note_off channel=9 note=51 velocity=63 time=0
EXTRACT: note_off channel=9 note=40 velocity=111 time=0
EXTRACT: note_on channel=9 note=42 velocity=47 time=0
EXTRACT: note_off channel=0 note=43 velocity=95 time=0.217391
EXTRACT: note_on channel=0 note=40 velocity=95 time=0
EXTRACT: note_off channel=9 note=42 velocity=47 time=0
EXTRACT: note_on channel=9 note=35 velocity=127 time=0
EXTRACT: note_on channel=9 note=42 velocity=79 time=0
EXTRACT: note_on channel=9 note=51 velocity=63 time=0
EXTRACT: note_off channel=2 note=71 velocity=127 time=0.217391
EXTRACT: note_off channel=9 note=35 velocity=127 time=0
EXTRACT: note_off channel=9 note=42 velocity=79 time=0
EXTRACT: note_off channel=9 note=51 velocity=63 time=0
EXTRACT: note_on channel=9 note=42 velocity=47 time=0
EXTRACT: note_off channel=0 note=40 velocity=95 time=0.217391
EXTRACT: note_off channel=9 note=42 velocity=47 time=0
EXTRACT: note_on channel=9 note=38 velocity=111 time=0
EXTRACT: note_on channel=9 note=54 velocity=111 time=0
EXTRACT: note_on channel=9 note=41 velocity=111 time=0
EXTRACT: note_on channel=9 note=39 velocity=95 time=0
EXTRACT: note_on channel=9 note=42 velocity=79 time=0
EXTRACT: note_on channel=9 note=51 velocity=63 time=0
EXTRACT: note_on channel=1 note=40 velocity=95 time=0.16304325
EXTRACT: note_off channel=1 note=40 velocity=95 time=0.05434775
EXTRACT: pitchwheel channel=1 pitch=0 time=0
EXTRACT: note_on channel=1 note=40 velocity=95 time=0
EXTRACT: note_off channel=9 note=38 velocity=111 time=0
EXTRACT: note_off channel=9 note=54 velocity=111 time=0
EXTRACT: note_off channel=9 note=41 velocity=111 time=0
EXTRACT: note_off channel=9 note=39 velocity=95 time=0
EXTRACT: note_off channel=9 note=42 velocity=79 time=0
EXTRACT: note_off channel=9 note=51 velocity=63 time=0
EXTRACT: note_on channel=9 note=42 velocity=47 time=0
EXTRACT: pitchwheel channel=1 pitch=128 time=0.019474610416666666
EXTRACT: pitchwheel channel=1 pitch=256 time=0.019474610416666666
EXTRACT: pitchwheel channel=1 pitch=384 time=0.019474610416666666
EXTRACT: pitchwheel channel=1 pitch=512 time=0.019474610416666666
EXTRACT: pitchwheel channel=1 pitch=640 time=0.019474610416666666
EXTRACT: pitchwheel channel=1 pitch=768 time=0.019474610416666666
EXTRACT: pitchwheel channel=1 pitch=896 time=0.019474610416666666
EXTRACT: pitchwheel channel=1 pitch=1024 time=0.019474610416666666
EXTRACT: pitchwheel channel=1 pitch=1152 time=0.019474610416666666
EXTRACT: pitchwheel channel=1 pitch=1280 time=0.019474610416666666
EXTRACT: pitchwheel channel=1 pitch=1408 time=0.019474610416666666
EXTRACT: note_on channel=2 note=71 velocity=127 time=0.0031702854166666666
EXTRACT: pitchwheel channel=1 pitch=1408 time=0
EXTRACT: note_off channel=9 note=42 velocity=47 time=0
EXTRACT: note_on channel=9 note=35 velocity=127 time=0
EXTRACT: note_on channel=9 note=42 velocity=79 time=0
EXTRACT: note_on channel=9 note=51 velocity=63 time=0
EXTRACT: note_off channel=2 note=71 velocity=127 time=0.217391
EXTRACT: note_on channel=2 note=71 velocity=111 time=0
EXTRACT: pitchwheel channel=1 pitch=1408 time=0
EXTRACT: pitchwheel channel=1 pitch=0 time=0
EXTRACT: note_off channel=1 note=40 velocity=95 time=0
EXTRACT: note_on channel=0 note=40 velocity=95 time=0
EXTRACT: note_off channel=9 note=35 velocity=127 time=0
EXTRACT: note_off channel=9 note=42 velocity=79 time=0
EXTRACT: note_off channel=9 note=51 velocity=63 time=0
EXTRACT: note_on channel=9 note=42 velocity=47 time=0
EXTRACT: note_off channel=0 note=40 velocity=95 time=0.217391
EXTRACT: note_on channel=0 note=38 velocity=95 time=0
EXTRACT: note_off channel=9 note=42 velocity=47 time=0
EXTRACT: note_on channel=9 note=40 velocity=111 time=0
EXTRACT: note_on channel=9 note=42 velocity=79 time=0
EXTRACT: note_on channel=9 note=51 velocity=63 time=0
EXTRACT: note_off channel=0 note=38 velocity=95 time=0.217391
EXTRACT: note_off channel=9 note=40 velocity=111 time=0
EXTRACT: note_off channel=9 note=42 velocity=79 time=0
EXTRACT: note_off channel=9 note=51 velocity=63 time=0
EXTRACT: note_on channel=9 note=42 velocity=47 time=0
EXTRACT: note_off channel=2 note=71 velocity=111 time=0.217391
EXTRACT: note_on channel=0 note=38 velocity=95 time=0
EXTRACT: note_off channel=9 note=42 velocity=47 time=0
EXTRACT: note_on channel=9 note=42 velocity=95 time=0
EXTRACT: note_on channel=9 note=51 velocity=79 time=0
EXTRACT: note_off channel=0 note=38 velocity=95 time=0.217391
EXTRACT: note_off channel=9 note=42 velocity=95 time=0
EXTRACT: note_off channel=9 note=51 velocity=79 time=0
EXTRACT: note_on channel=9 note=35 velocity=127 time=0
EXTRACT: note_on channel=9 note=42 velocity=47 time=0
EXTRACT: note_off channel=9 note=35 velocity=127 time=0.217391
EXTRACT: note_off channel=9 note=42 velocity=47 time=0
EXTRACT: note_on channel=9 note=39 velocity=111 time=0
EXTRACT: note_on channel=9 note=41 velocity=111 time=0
EXTRACT: note_on channel=9 note=38 velocity=111 time=0
EXTRACT: note_on channel=9 note=54 velocity=127 time=0
EXTRACT: note_on channel=9 note=42 velocity=95 time=0
EXTRACT: note_on channel=9 note=51 velocity=79 time=0
EXTRACT: note_on channel=2 note=71 velocity=127 time=0.217391
EXTRACT: note_on channel=0 note=28 velocity=95 time=0
EXTRACT: note_off channel=9 note=39 velocity=111 time=0
EXTRACT: note_off channel=9 note=41 velocity=111 time=0
EXTRACT: note_off channel=9 note=38 velocity=111 time=0
EXTRACT: note_off channel=9 note=54 velocity=127 time=0
EXTRACT: note_off channel=9 note=42 velocity=95 time=0
EXTRACT: note_off channel=9 note=51 velocity=79 time=0
EXTRACT: note_on channel=9 note=42 velocity=47 time=0
EXTRACT: note_off channel=9 note=42 velocity=47 time=0.217391
EXTRACT: note_on channel=9 note=35 velocity=127 time=0
EXTRACT: note_on channel=9 note=42 velocity=79 time=0
EXTRACT: note_on channel=9 note=51 velocity=63 time=0
EXTRACT: note_off channel=2 note=71 velocity=127 time=0.217391
EXTRACT: note_on channel=2 note=71 velocity=111 time=0
EXTRACT: note_off channel=0 note=28 velocity=95 time=0
EXTRACT: note_on channel=0 note=31 velocity=95 time=0
EXTRACT: note_off channel=9 note=35 velocity=127 time=0
EXTRACT: note_off channel=9 note=42 velocity=79 time=0
EXTRACT: note_off channel=9 note=51 velocity=63 time=0
EXTRACT: note_on channel=9 note=42 velocity=47 time=0
EXTRACT: note_off channel=2 note=71 velocity=111 time=0.217391
EXTRACT: note_on channel=2 note=71 velocity=111 time=0
EXTRACT: note_off channel=0 note=31 velocity=95 time=0
EXTRACT: note_on channel=0 note=35 velocity=95 time=0
EXTRACT: note_off channel=9 note=42 velocity=47 time=0
EXTRACT: note_on channel=9 note=42 velocity=95 time=0
EXTRACT: note_on channel=9 note=51 velocity=79 time=0
EXTRACT: note_on channel=9 note=40 velocity=111 time=0
EXTRACT: note_off channel=2 note=71 velocity=111 time=0.217391
EXTRACT: note_on channel=2 note=71 velocity=111 time=0
EXTRACT: note_off channel=0 note=35 velocity=95 time=0
EXTRACT: note_on channel=0 note=43 velocity=95 time=0
EXTRACT: note_off channel=9 note=42 velocity=95 time=0
EXTRACT: note_off channel=9 note=51 velocity=79 time=0
EXTRACT: note_off channel=9 note=40 velocity=111 time=0
EXTRACT: note_on channel=9 note=42 velocity=47 time=0
EXTRACT: note_off channel=2 note=71 velocity=111 time=0.217391
EXTRACT: note_on channel=2 note=71 velocity=127 time=0
EXTRACT: note_off channel=0 note=43 velocity=95 time=0
EXTRACT: note_on channel=0 note=40 velocity=95 time=0
EXTRACT: note_off channel=9 note=42 velocity=47 time=0
EXTRACT: note_on channel=9 note=35 velocity=127 time=0
EXTRACT: note_on channel=9 note=42 velocity=79 time=0
EXTRACT: note_on channel=9 note=51 velocity=63 time=0
EXTRACT: note_off channel=2 note=71 velocity=127 time=0.217391
EXTRACT: note_off channel=9 note=35 velocity=127 time=0
EXTRACT: note_off channel=9 note=42 velocity=79 time=0
EXTRACT: note_off channel=9 note=51 velocity=63 time=0
EXTRACT: note_on channel=9 note=42 velocity=47 time=0
EXTRACT: note_on channel=2 note=71 velocity=111 time=0.217391
EXTRACT: note_off channel=0 note=40 velocity=95 time=0
EXTRACT: note_off channel=9 note=42 velocity=47 time=0
EXTRACT: note_on channel=9 note=39 velocity=95 time=0
EXTRACT: note_on channel=9 note=38 velocity=95 time=0
EXTRACT: note_on channel=9 note=41 velocity=111 time=0
EXTRACT: note_on channel=9 note=54 velocity=127 time=0
EXTRACT: note_on channel=9 note=42 velocity=95 time=0
EXTRACT: note_on channel=9 note=51 velocity=79 time=0
EXTRACT: note_on channel=1 note=40 velocity=95 time=0.16304325
EXTRACT: note_off channel=2 note=71 velocity=111 time=0.05434775
EXTRACT: note_on channel=2 note=71 velocity=127 time=0
EXTRACT: note_off channel=1 note=40 velocity=95 time=0
EXTRACT: pitchwheel channel=1 pitch=0 time=0
EXTRACT: note_on channel=1 note=40 velocity=95 time=0
EXTRACT: note_off channel=9 note=39 velocity=95 time=0
EXTRACT: note_off channel=9 note=38 velocity=95 time=0
EXTRACT: note_off channel=9 note=41 velocity=111 time=0
EXTRACT: note_off channel=9 note=54 velocity=127 time=0
EXTRACT: note_off channel=9 note=42 velocity=95 time=0
EXTRACT: note_off channel=9 note=51 velocity=79 time=0
EXTRACT: note_on channel=9 note=42 velocity=47 time=0
EXTRACT: pitchwheel channel=1 pitch=128 time=0.019474610416666666
EXTRACT: pitchwheel channel=1 pitch=256 time=0.019474610416666666
EXTRACT: pitchwheel channel=1 pitch=384 time=0.019474610416666666
EXTRACT: pitchwheel channel=1 pitch=512 time=0.019474610416666666
EXTRACT: pitchwheel channel=1 pitch=640 time=0.019474610416666666
EXTRACT: pitchwheel channel=1 pitch=768 time=0.019474610416666666
EXTRACT: pitchwheel channel=1 pitch=896 time=0.019474610416666666
EXTRACT: pitchwheel channel=1 pitch=1024 time=0.019474610416666666
EXTRACT: pitchwheel channel=1 pitch=1152 time=0.019474610416666666
EXTRACT: pitchwheel channel=1 pitch=1280 time=0.019474610416666666
EXTRACT: pitchwheel channel=1 pitch=1408 time=0.019474610416666666
EXTRACT: note_off channel=2 note=71 velocity=127 time=0.0031702854166666666
EXTRACT: pitchwheel channel=1 pitch=1408 time=0
EXTRACT: note_off channel=9 note=42 velocity=47 time=0
EXTRACT: note_on channel=9 note=35 velocity=127 time=0
EXTRACT: note_on channel=9 note=42 velocity=95 time=0
EXTRACT: note_on channel=9 note=51 velocity=79 time=0
EXTRACT: note_on channel=2 note=71 velocity=127 time=0.217391
EXTRACT: pitchwheel channel=1 pitch=1408 time=0
EXTRACT: pitchwheel channel=1 pitch=0 time=0
EXTRACT: note_off channel=1 note=40 velocity=95 time=0
EXTRACT: note_on channel=0 note=40 velocity=95 time=0
EXTRACT: note_off channel=9 note=35 velocity=127 time=0
EXTRACT: note_off channel=9 note=42 velocity=95 time=0
EXTRACT: note_off channel=9 note=51 velocity=79 time=0
EXTRACT: note_on channel=9 note=42 velocity=47 time=0
EXTRACT: note_off channel=2 note=71 velocity=127 time=0.217391
EXTRACT: note_off channel=0 note=40 velocity=95 time=0
EXTRACT: note_on channel=0 note=38 velocity=95 time=0
EXTRACT: note_off channel=9 note=42 velocity=47 time=0
EXTRACT: note_on channel=9 note=42 velocity=95 time=0
EXTRACT: note_on channel=9 note=51 velocity=79 time=0
EXTRACT: note_on channel=9 note=40 velocity=111 time=0
EXTRACT: note_off channel=0 note=38 velocity=95 time=0.217391
EXTRACT: note_off channel=9 note=42 velocity=95 time=0
EXTRACT: note_off channel=9 note=51 velocity=79 time=0
EXTRACT: note_off channel=9 note=40 velocity=111 time=0
EXTRACT: note_on channel=9 note=42 velocity=47 time=0
EXTRACT: note_off channel=9 note=42 velocity=47 time=0.217391
EXTRACT: note_on channel=9 note=42 velocity=79 time=0
EXTRACT: note_on channel=9 note=51 velocity=63 time=0
EXTRACT: note_off channel=9 note=42 velocity=79 time=0.217391
EXTRACT: note_off channel=9 note=51 velocity=63 time=0
EXTRACT: note_on channel=9 note=35 velocity=127 time=0
EXTRACT: note_on channel=9 note=42 velocity=47 time=0
EXTRACT: note_off channel=9 note=35 velocity=127 time=0.217391
EXTRACT: note_off channel=9 note=42 velocity=47 time=0
EXTRACT: note_on channel=9 note=42 velocity=95 time=0
EXTRACT: note_on channel=9 note=51 velocity=79 time=0
EXTRACT: note_on channel=9 note=38 velocity=111 time=0
EXTRACT: note_on channel=9 note=39 velocity=95 time=0
EXTRACT: note_on channel=9 note=54 velocity=111 time=0
EXTRACT: note_on channel=9 note=41 velocity=111 time=0
EXTRACT: note_on channel=2 note=69 velocity=127 time=0.217391
EXTRACT: note_on channel=0 note=28 velocity=95 time=0
EXTRACT: note_off channel=9 note=42 velocity=95 time=0
EXTRACT: note_off channel=9 note=51 velocity=79 time=0
EXTRACT: note_off channel=9 note=38 velocity=111 time=0
EXTRACT: note_off channel=9 note=39 velocity=95 time=0
EXTRACT: note_off channel=9 note=54 velocity=111 time=0
EXTRACT: note_off channel=9 note=41 velocity=111 time=0
EXTRACT: note_on channel=9 note=42 velocity=47 time=0
EXTRACT: note_off channel=9 note=42 velocity=47 time=0.217391
EXTRACT: note_on channel=9 note=42 velocity=79 time=0
EXTRACT: note_on channel=9 note=51 velocity=63 time=0
EXTRACT: note_on channel=9 note=35 velocity=127 time=0
EXTRACT: note_off channel=2 note=69 velocity=127 time=0.217391
EXTRACT: note_on channel=2 note=67 velocity=95 time=0
EXTRACT: note_off channel=0 note=28 velocity=95 time=0
EXTRACT: note_on channel=0 note=31 velocity=95 time=0
EXTRACT: note_off channel=9 note=42 velocity=79 time=0
EXTRACT: note_off channel=9 note=51 velocity=63 time=0
EXTRACT: note_off channel=9 note=35 velocity=127 time=0
EXTRACT: note_on channel=9 note=42 velocity=47 time=0
EXTRACT: note_off channel=2 note=67 velocity=95 time=0.217391
EXTRACT: note_on channel=2 note=69 velocity=111 time=0
EXTRACT: note_off channel=0 note=31 velocity=95 time=0
EXTRACT: note_on channel=0 note=35 velocity=95 time=0
EXTRACT: note_off channel=9 note=42 velocity=47 time=0
EXTRACT: note_on channel=9 note=40 velocity=111 time=0
EXTRACT: note_on channel=9 note=42 velocity=95 time=0
EXTRACT: note_on channel=9 note=51 velocity=79 time=0
EXTRACT: note_off channel=2 note=69 velocity=111 time=0.217391
EXTRACT: note_off channel=0 note=35 velocity=95 time=0
EXTRACT: note_on channel=0 note=43 velocity=95 time=0
EXTRACT: note_off channel=9 note=40 velocity=111 time=0
EXTRACT: note_off channel=9 note=42 velocity=95 time=0
EXTRACT: note_off channel=9 note=51 velocity=79 time=0
EXTRACT: note_on channel=9 note=42 velocity=47 time=0
EXTRACT: note_on channel=2 note=67 velocity=127 time=0.217391
EXTRACT: note_off channel=0 note=43 velocity=95 time=0
EXTRACT: note_on channel=0 note=40 velocity=95 time=0
EXTRACT: note_off channel=9 note=42 velocity=47 time=0
EXTRACT: note_on channel=9 note=42 velocity=79 time=0
EXTRACT: note_on channel=9 note=51 velocity=63 time=0
EXTRACT: note_on channel=9 note=35 velocity=127 time=0
EXTRACT: note_off channel=2 note=67 velocity=127 time=0.217391
EXTRACT: note_on channel=2 note=69 velocity=111 time=0
EXTRACT: note_off channel=9 note=42 velocity=79 time=0
EXTRACT: note_off channel=9 note=51 velocity=63 time=0
EXTRACT: note_off channel=9 note=35 velocity=127 time=0
EXTRACT: note_on channel=9 note=42 velocity=47 time=0
EXTRACT: note_off channel=2 note=69 velocity=111 time=0.217391
EXTRACT: note_on channel=2 note=67 velocity=95 time=0
EXTRACT: note_off channel=0 note=40 velocity=95 time=0
EXTRACT: note_off channel=9 note=42 velocity=47 time=0
EXTRACT: note_on channel=9 note=38 velocity=111 time=0
EXTRACT: note_on channel=9 note=39 velocity=95 time=0
EXTRACT: note_on channel=9 note=41 velocity=111 time=0
EXTRACT: note_on channel=9 note=54 velocity=95 time=0
EXTRACT: note_on channel=9 note=42 velocity=95 time=0
EXTRACT: note_on channel=9 note=51 velocity=79 time=0
EXTRACT: note_on channel=1 note=40 velocity=95 time=0.16304325
EXTRACT: note_off channel=2 note=67 velocity=95 time=0.05434775
EXTRACT: note_on channel=2 note=69 velocity=127 time=0
EXTRACT: note_off channel=1 note=40 velocity=95 time=0
EXTRACT: pitchwheel channel=1 pitch=0 time=0
EXTRACT: note_on channel=1 note=40 velocity=95 time=0
EXTRACT: note_off channel=9 note=38 velocity=111 time=0
EXTRACT: note_off channel=9 note=39 velocity=95 time=0
EXTRACT: note_off channel=9 note=41 velocity=111 time=0
EXTRACT: note_off channel=9 note=54 velocity=95 time=0
EXTRACT: note_off channel=9 note=42 velocity=95 time=0
EXTRACT: note_off channel=9 note=51 velocity=79 time=0
EXTRACT: note_on channel=9 note=42 velocity=31 time=0
EXTRACT: pitchwheel channel=1 pitch=128 time=0.019474610416666666
EXTRACT: pitchwheel channel=1 pitch=256 time=0.019474610416666666
EXTRACT: pitchwheel channel=1 pitch=384 time=0.019474610416666666
EXTRACT: pitchwheel channel=1 pitch=512 time=0.019474610416666666
EXTRACT: pitchwheel channel=1 pitch=640 time=0.019474610416666666
EXTRACT: pitchwheel channel=1 pitch=768 time=0.019474610416666666
EXTRACT: pitchwheel channel=1 pitch=896 time=0.019474610416666666
EXTRACT: pitchwheel channel=1 pitch=1024 time=0.019474610416666666
EXTRACT: pitchwheel channel=1 pitch=1152 time=0.019474610416666666
EXTRACT: pitchwheel channel=1 pitch=1280 time=0.019474610416666666
EXTRACT: pitchwheel channel=1 pitch=1408 time=0.019474610416666666
EXTRACT: pitchwheel channel=1 pitch=1408 time=0.0031702854166666666
EXTRACT: note_off channel=9 note=42 velocity=31 time=0
EXTRACT: note_on channel=9 note=35 velocity=127 time=0
EXTRACT: note_on channel=9 note=42 velocity=95 time=0
EXTRACT: note_on channel=9 note=51 velocity=79 time=0
EXTRACT: note_off channel=2 note=69 velocity=127 time=0.217391
EXTRACT: note_on channel=2 note=67 velocity=95 time=0
EXTRACT: pitchwheel channel=1 pitch=1408 time=0
EXTRACT: pitchwheel channel=1 pitch=0 time=0
EXTRACT: note_off channel=1 note=40 velocity=95 time=0
EXTRACT: note_on channel=0 note=40 velocity=95 time=0
EXTRACT: note_off channel=9 note=35 velocity=127 time=0
EXTRACT: note_off channel=9 note=42 velocity=95 time=0
EXTRACT: note_off channel=9 note=51 velocity=79 time=0
EXTRACT: note_on channel=9 note=42 velocity=47 time=0
EXTRACT: note_off channel=2 note=67 velocity=95 time=0.217391
EXTRACT: note_on channel=2 note=69 velocity=127 time=0
EXTRACT: note_off channel=0 note=40 velocity=95 time=0
EXTRACT: note_on channel=0 note=38 velocity=95 time=0
EXTRACT: note_off channel=9 note=42 velocity=47 time=0
EXTRACT: note_on channel=9 note=40 velocity=111 time=0
EXTRACT: note_on channel=9 note=42 velocity=95 time=0
EXTRACT: note_on channel=9 note=51 velocity=79 time=0
EXTRACT: note_off channel=2 note=69 velocity=127 time=0.217391
EXTRACT: note_off channel=0 note=38 velocity=95 time=0
EXTRACT: note_off channel=9 note=40 velocity=111 time=0
EXTRACT: note_off channel=9 note=42 velocity=95 time=0
EXTRACT: note_off channel=9 note=51 velocity=79 time=0
EXTRACT: note_on channel=9 note=42 velocity=47 time=0
EXTRACT: note_on channel=2 note=67 velocity=111 time=0.217391
EXTRACT: note_on channel=0 note=38 velocity=95 time=0
EXTRACT: note_off channel=9 note=42 velocity=47 time=0
EXTRACT: note_on channel=9 note=42 velocity=79 time=0
EXTRACT: note_on channel=9 note=51 velocity=63 time=0
EXTRACT: note_off channel=2 note=67 velocity=111 time=0.217391
EXTRACT: note_off channel=0 note=38 velocity=95 time=0
EXTRACT: note_off channel=9 note=42 velocity=79 time=0
EXTRACT: note_off channel=9 note=51 velocity=63 time=0
EXTRACT: note_on channel=9 note=35 velocity=127 time=0
EXTRACT: note_on channel=9 note=42 velocity=47 time=0
EXTRACT: note_off channel=9 note=35 velocity=127 time=0.217391
EXTRACT: note_off channel=9 note=42 velocity=47 time=0
EXTRACT: note_on channel=9 note=38 velocity=111 time=0
EXTRACT: note_on channel=9 note=39 velocity=111 time=0
EXTRACT: note_on channel=9 note=54 velocity=95 time=0
EXTRACT: note_on channel=9 note=41 velocity=111 time=0
EXTRACT: note_on channel=9 note=42 velocity=95 time=0
EXTRACT: note_on channel=9 note=51 velocity=79 time=0
EXTRACT: note_on channel=2 note=69 velocity=127 time=0.217391
EXTRACT: note_on channel=0 note=28 velocity=95 time=0
EXTRACT: note_off channel=9 note=38 velocity=111 time=0
EXTRACT: note_off channel=9 note=39 velocity=111 time=0
EXTRACT: note_off channel=9 note=54 velocity=95 time=0
EXTRACT: note_off channel=9 note=41 velocity=111 time=0
EXTRACT: note_off channel=9 note=42 velocity=95 time=0
EXTRACT: note_off channel=9 note=51 velocity=79 time=0
EXTRACT: note_on channel=9 note=42 velocity=47 time=0
EXTRACT: note_off channel=9 note=42 velocity=47 time=0.217391
EXTRACT: note_on channel=9 note=42 velocity=95 time=0
EXTRACT: note_on channel=9 note=51 velocity=79 time=0
EXTRACT: note_on channel=9 note=35 velocity=127 time=0
EXTRACT: note_off channel=2 note=69 velocity=127 time=0.217391
EXTRACT: note_on channel=2 note=67 velocity=111 time=0
EXTRACT: note_off channel=0 note=28 velocity=95 time=0
EXTRACT: note_on channel=0 note=31 velocity=95 time=0
EXTRACT: note_off channel=9 note=42 velocity=95 time=0
EXTRACT: note_off channel=9 note=51 velocity=79 time=0
EXTRACT: note_off channel=9 note=35 velocity=127 time=0
EXTRACT: note_on channel=9 note=42 velocity=31 time=0
EXTRACT: note_off channel=2 note=67 velocity=111 time=0.217391
EXTRACT: note_on channel=2 note=69 velocity=127 time=0
EXTRACT: note_off channel=0 note=31 velocity=95 time=0
EXTRACT: note_on channel=0 note=35 velocity=95 time=0
EXTRACT: note_off channel=9 note=42 velocity=31 time=0
EXTRACT: note_on channel=9 note=40 velocity=111 time=0
EXTRACT: note_on channel=9 note=42 velocity=95 time=0
EXTRACT: note_on channel=9 note=51 velocity=79 time=0
EXTRACT: note_off channel=2 note=69 velocity=127 time=0.217391
EXTRACT: note_off channel=0 note=35 velocity=95 time=0
EXTRACT: note_on channel=0 note=43 velocity=95 time=0
EXTRACT: note_off channel=9 note=40 velocity=111 time=0
EXTRACT: note_off channel=9 note=42 velocity=95 time=0
EXTRACT: note_off channel=9 note=51 velocity=79 time=0
EXTRACT: note_on channel=9 note=42 velocity=47 time=0
EXTRACT: note_on channel=2 note=67 velocity=111 time=0.217391
EXTRACT: note_off channel=0 note=43 velocity=95 time=0
EXTRACT: note_on channel=0 note=40 velocity=95 time=0
EXTRACT: note_off channel=9 note=42 velocity=47 time=0
EXTRACT: note_on channel=9 note=42 velocity=95 time=0
EXTRACT: note_on channel=9 note=51 velocity=79 time=0
EXTRACT: note_on channel=9 note=35 velocity=127 time=0
EXTRACT: note_off channel=2 note=67 velocity=111 time=0.217391
EXTRACT: note_on channel=2 note=69 velocity=111 time=0
EXTRACT: note_off channel=9 note=42 velocity=95 time=0
EXTRACT: note_off channel=9 note=51 velocity=79 time=0
EXTRACT: note_off channel=9 note=35 velocity=127 time=0
EXTRACT: note_on channel=9 note=42 velocity=47 time=0
EXTRACT: note_off channel=2 note=69 velocity=111 time=0.217391
EXTRACT: note_off channel=0 note=40 velocity=95 time=0
EXTRACT: note_off channel=9 note=42 velocity=47 time=0
EXTRACT: note_on channel=9 note=39 velocity=95 time=0
EXTRACT: note_on channel=9 note=38 velocity=95 time=0
EXTRACT: note_on channel=9 note=41 velocity=111 time=0
EXTRACT: note_on channel=9 note=54 velocity=95 time=0
EXTRACT: note_on channel=9 note=42 velocity=95 time=0
EXTRACT: note_on channel=9 note=51 velocity=79 time=0
EXTRACT: note_on channel=1 note=40 velocity=95 time=0.16304325
EXTRACT: note_on channel=2 note=69 velocity=127 time=0.05434775
EXTRACT: note_off channel=1 note=40 velocity=95 time=0
EXTRACT: pitchwheel channel=1 pitch=0 time=0
EXTRACT: note_on channel=1 note=40 velocity=95 time=0
EXTRACT: note_off channel=9 note=39 velocity=95 time=0
EXTRACT: note_off channel=9 note=38 velocity=95 time=0
EXTRACT: note_off channel=9 note=41 velocity=111 time=0
EXTRACT: note_off channel=9 note=54 velocity=95 time=0
EXTRACT: note_off channel=9 note=42 velocity=95 time=0
EXTRACT: note_off channel=9 note=51 velocity=79 time=0
EXTRACT: note_on channel=9 note=42 velocity=47 time=0
EXTRACT: pitchwheel channel=1 pitch=128 time=0.019474610416666666
EXTRACT: pitchwheel channel=1 pitch=256 time=0.019474610416666666
EXTRACT: pitchwheel channel=1 pitch=384 time=0.019474610416666666
EXTRACT: pitchwheel channel=1 pitch=512 time=0.019474610416666666
EXTRACT: pitchwheel channel=1 pitch=640 time=0.019474610416666666
EXTRACT: pitchwheel channel=1 pitch=768 time=0.019474610416666666
EXTRACT: pitchwheel channel=1 pitch=896 time=0.019474610416666666
EXTRACT: pitchwheel channel=1 pitch=1024 time=0.019474610416666666
EXTRACT: pitchwheel channel=1 pitch=1152 time=0.019474610416666666
EXTRACT: pitchwheel channel=1 pitch=1280 time=0.019474610416666666
EXTRACT: pitchwheel channel=1 pitch=1408 time=0.019474610416666666
EXTRACT: pitchwheel channel=1 pitch=1408 time=0.0031702854166666666
EXTRACT: note_off channel=9 note=42 velocity=47 time=0
EXTRACT: note_on channel=9 note=35 velocity=127 time=0
EXTRACT: note_on channel=9 note=42 velocity=111 time=0
EXTRACT: note_off channel=2 note=69 velocity=127 time=0.217391
EXTRACT: note_on channel=2 note=67 velocity=95 time=0
EXTRACT: pitchwheel channel=1 pitch=1408 time=0
EXTRACT: pitchwheel channel=1 pitch=0 time=0
EXTRACT: note_off channel=1 note=40 velocity=95 time=0
EXTRACT: note_on channel=0 note=40 velocity=95 time=0
EXTRACT: note_off channel=9 note=35 velocity=127 time=0
EXTRACT: note_off channel=9 note=42 velocity=111 time=0
EXTRACT: note_on channel=9 note=42 velocity=47 time=0
EXTRACT: note_off channel=2 note=67 velocity=95 time=0.217391
EXTRACT: note_on channel=2 note=69 velocity=111 time=0
EXTRACT: note_off channel=0 note=40 velocity=95 time=0
EXTRACT: note_on channel=0 note=38 velocity=95 time=0
EXTRACT: note_off channel=9 note=42 velocity=47 time=0
EXTRACT: note_on channel=9 note=40 velocity=111 time=0
EXTRACT: note_on channel=9 note=42 velocity=63 time=0
EXTRACT: note_on channel=9 note=51 velocity=63 time=0
EXTRACT: note_off channel=2 note=69 velocity=111 time=0.217391
EXTRACT: note_off channel=0 note=38 velocity=95 time=0
EXTRACT: note_off channel=9 note=40 velocity=111 time=0
EXTRACT: note_off channel=9 note=42 velocity=63 time=0
EXTRACT: note_off channel=9 note=51 velocity=63 time=0
EXTRACT: note_on channel=9 note=42 velocity=15 time=0
EXTRACT: note_on channel=2 note=67 velocity=111 time=0.217391
EXTRACT: note_off channel=9 note=42 velocity=15 time=0
EXTRACT: note_on channel=9 note=42 velocity=63 time=0
EXTRACT: note_on channel=9 note=51 velocity=63 time=0
EXTRACT: note_off channel=2 note=67 velocity=111 time=0.217391
EXTRACT: note_off channel=9 note=42 velocity=63 time=0
EXTRACT: note_off channel=9 note=51 velocity=63 time=0
EXTRACT: note_on channel=9 note=35 velocity=127 time=0
EXTRACT: note_on channel=9 note=42 velocity=31 time=0
EXTRACT: note_on channel=2 note=69 velocity=127 time=0.217391
EXTRACT: note_off channel=9 note=35 velocity=127 time=0
EXTRACT: note_off channel=9 note=42 velocity=31 time=0
EXTRACT: note_on channel=9 note=54 velocity=95 time=0
EXTRACT: note_on channel=9 note=39 velocity=95 time=0
EXTRACT: note_on channel=9 note=41 velocity=111 time=0
EXTRACT: note_on channel=9 note=38 velocity=95 time=0
EXTRACT: note_on channel=9 note=42 velocity=79 time=0
EXTRACT: note_on channel=9 note=51 velocity=63 time=0
EXTRACT: note_off channel=2 note=69 velocity=127 time=0.217391
EXTRACT: note_on channel=0 note=28 velocity=95 time=0
EXTRACT: note_off channel=9 note=54 velocity=95 time=0
EXTRACT: note_off channel=9 note=39 velocity=95 time=0
EXTRACT: note_off channel=9 note=41 velocity=111 time=0
EXTRACT: note_off channel=9 note=38 velocity=95 time=0
EXTRACT: note_off channel=9 note=42 velocity=79 time=0
EXTRACT: note_off channel=9 note=51 velocity=63 time=0
EXTRACT: note_on channel=9 note=42 velocity=31 time=0
EXTRACT: note_on channel=2 note=67 velocity=127 time=0.217391
EXTRACT: note_off channel=9 note=42 velocity=31 time=0
EXTRACT: note_on channel=9 note=42 velocity=63 time=0
EXTRACT: note_on channel=9 note=51 velocity=63 time=0
EXTRACT: note_on channel=9 note=35 velocity=127 time=0
EXTRACT: note_off channel=2 note=67 velocity=127 time=0.217391
EXTRACT: note_on channel=2 note=64 velocity=111 time=0
EXTRACT: note_off channel=0 note=28 velocity=95 time=0
EXTRACT: note_on channel=0 note=31 velocity=95 time=0
EXTRACT: note_off channel=9 note=42 velocity=63 time=0
EXTRACT: note_off channel=9 note=51 velocity=63 time=0
EXTRACT: note_off channel=9 note=35 velocity=127 time=0
EXTRACT: note_on channel=9 note=42 velocity=31 time=0
EXTRACT: note_off channel=2 note=64 velocity=111 time=0.217391
EXTRACT: note_off channel=0 note=31 velocity=95 time=0
EXTRACT: note_on channel=0 note=35 velocity=95 time=0
EXTRACT: note_off channel=9 note=42 velocity=31 time=0
EXTRACT: note_on channel=9 note=40 velocity=111 time=0
EXTRACT: note_on channel=9 note=42 velocity=79 time=0
EXTRACT: note_on channel=9 note=51 velocity=63 time=0
EXTRACT: note_off channel=0 note=35 velocity=95 time=0.217391
EXTRACT: note_on channel=0 note=43 velocity=95 time=0
EXTRACT: note_off channel=9 note=40 velocity=111 time=0
EXTRACT: note_off channel=9 note=42 velocity=79 time=0
EXTRACT: note_off channel=9 note=51 velocity=63 time=0
EXTRACT: note_on channel=9 note=42 velocity=31 time=0
EXTRACT: note_off channel=0 note=43 velocity=95 time=0.217391
EXTRACT: note_on channel=0 note=40 velocity=95 time=0
EXTRACT: note_off channel=9 note=42 velocity=31 time=0
EXTRACT: note_on channel=9 note=42 velocity=63 time=0
EXTRACT: note_on channel=9 note=51 velocity=63 time=0
EXTRACT: note_on channel=9 note=35 velocity=127 time=0
EXTRACT: note_off channel=9 note=42 velocity=63 time=0.217391
EXTRACT: note_off channel=9 note=51 velocity=63 time=0
EXTRACT: note_off channel=9 note=35 velocity=127 time=0
EXTRACT: note_on channel=9 note=42 velocity=31 time=0
EXTRACT: note_on channel=2 note=64 velocity=111 time=0.217391
EXTRACT: note_off channel=0 note=40 velocity=95 time=0
EXTRACT: note_off channel=9 note=42 velocity=31 time=0
EXTRACT: note_on channel=9 note=38 velocity=111 time=0
EXTRACT: note_on channel=9 note=39 velocity=95 time=0
EXTRACT: note_on channel=9 note=41 velocity=111 time=0
EXTRACT: note_on channel=9 note=54 velocity=95 time=0
EXTRACT: note_on channel=9 note=42 velocity=79 time=0
EXTRACT: note_on channel=9 note=51 velocity=63 time=0
EXTRACT: note_on channel=1 note=40 velocity=95 time=0.16304325
EXTRACT: note_off channel=2 note=64 velocity=111 time=0.05434775
EXTRACT: note_off channel=1 note=40 velocity=95 time=0
EXTRACT: pitchwheel channel=1 pitch=0 time=0
EXTRACT: note_on channel=1 note=40 velocity=95 time=0
EXTRACT: note_off channel=9 note=38 velocity=111 time=0
EXTRACT: note_off channel=9 note=39 velocity=95 time=0
EXTRACT: note_off channel=9 note=41 velocity=111 time=0
EXTRACT: note_off channel=9 note=54 velocity=95 time=0
EXTRACT: note_off channel=9 note=42 velocity=79 time=0
EXTRACT: note_off channel=9 note=51 velocity=63 time=0
EXTRACT: note_on channel=9 note=42 velocity=31 time=0
EXTRACT: pitchwheel channel=1 pitch=128 time=0.019474610416666666
EXTRACT: pitchwheel channel=1 pitch=256 time=0.019474610416666666
EXTRACT: pitchwheel channel=1 pitch=384 time=0.019474610416666666
EXTRACT: pitchwheel channel=1 pitch=512 time=0.019474610416666666
EXTRACT: pitchwheel channel=1 pitch=640 time=0.019474610416666666
EXTRACT: pitchwheel channel=1 pitch=768 time=0.019474610416666666
EXTRACT: pitchwheel channel=1 pitch=896 time=0.019474610416666666
EXTRACT: pitchwheel channel=1 pitch=1024 time=0.019474610416666666
EXTRACT: pitchwheel channel=1 pitch=1152 time=0.019474610416666666
EXTRACT: pitchwheel channel=1 pitch=1280 time=0.019474610416666666
EXTRACT: pitchwheel channel=1 pitch=1408 time=0.019474610416666666
EXTRACT: note_on channel=2 note=66 velocity=127 time=0.0031702854166666666
EXTRACT: pitchwheel channel=1 pitch=1408 time=0
EXTRACT: note_off channel=9 note=42 velocity=31 time=0
EXTRACT: note_on channel=9 note=42 velocity=79 time=0
EXTRACT: note_on channel=9 note=51 velocity=63 time=0
EXTRACT: note_on channel=9 note=35 velocity=127 time=0
EXTRACT: note_off channel=2 note=66 velocity=127 time=0.217391
EXTRACT: note_on channel=2 note=62 velocity=111 time=0
EXTRACT: pitchwheel channel=1 pitch=1408 time=0
EXTRACT: pitchwheel channel=1 pitch=0 time=0
EXTRACT: note_off channel=1 note=40 velocity=95 time=0
EXTRACT: note_on channel=0 note=40 velocity=95 time=0
EXTRACT: note_off channel=9 note=42 velocity=79 time=0
EXTRACT: note_off channel=9 note=51 velocity=63 time=0
EXTRACT: note_off channel=9 note=35 velocity=127 time=0
EXTRACT: note_on channel=9 note=42 velocity=47 time=0
EXTRACT: note_off channel=2 note=62 velocity=111 time=0.217391
EXTRACT: note_off channel=0 note=40 velocity=95 time=0
EXTRACT: note_on channel=0 note=38 velocity=95 time=0
EXTRACT: note_off channel=9 note=42 velocity=47 time=0
EXTRACT: note_on channel=9 note=42 velocity=79 time=0
EXTRACT: note_on channel=9 note=51 velocity=63 time=0
EXTRACT: note_on channel=9 note=40 velocity=111 time=0
EXTRACT: note_off channel=0 note=38 velocity=95 time=0.217391
EXTRACT: note_off channel=9 note=42 velocity=79 time=0
EXTRACT: note_off channel=9 note=51 velocity=63 time=0
EXTRACT: note_off channel=9 note=40 velocity=111 time=0
EXTRACT: note_on channel=9 note=42 velocity=47 time=0
EXTRACT: note_on channel=0 note=38 velocity=95 time=0.217391
EXTRACT: note_off channel=9 note=42 velocity=47 time=0
EXTRACT: note_on channel=9 note=42 velocity=79 time=0
EXTRACT: note_on channel=9 note=51 velocity=63 time=0
EXTRACT: note_off channel=0 note=38 velocity=95 time=0.217391
EXTRACT: note_off channel=9 note=42 velocity=79 time=0
EXTRACT: note_off channel=9 note=51 velocity=63 time=0
EXTRACT: note_on channel=9 note=35 velocity=127 time=0
EXTRACT: note_on channel=9 note=42 velocity=47 time=0
EXTRACT: note_on channel=2 note=69 velocity=127 time=0.217391
EXTRACT: note_off channel=9 note=35 velocity=127 time=0
EXTRACT: note_off channel=9 note=42 velocity=47 time=0
EXTRACT: note_on channel=9 note=38 velocity=111 time=0
EXTRACT: note_on channel=9 note=39 velocity=111 time=0
EXTRACT: note_on channel=9 note=54 velocity=95 time=0
EXTRACT: note_on channel=9 note=41 velocity=111 time=0
EXTRACT: note_on channel=9 note=42 velocity=79 time=0
EXTRACT: note_on channel=9 note=51 velocity=63 time=0
EXTRACT: note_off channel=2 note=69 velocity=127 time=0.217391
EXTRACT: note_on channel=0 note=28 velocity=95 time=0
EXTRACT: note_off channel=9 note=38 velocity=111 time=0
EXTRACT: note_off channel=9 note=39 velocity=111 time=0
EXTRACT: note_off channel=9 note=54 velocity=95 time=0
EXTRACT: note_off channel=9 note=41 velocity=111 time=0
EXTRACT: note_off channel=9 note=42 velocity=79 time=0
EXTRACT: note_off channel=9 note=51 velocity=63 time=0
EXTRACT: note_on channel=9 note=42 velocity=47 time=0
EXTRACT: note_on channel=2 note=67 velocity=127 time=0.217391
EXTRACT: note_off channel=9 note=42 velocity=47 time=0
EXTRACT: note_on channel=9 note=35 velocity=127 time=0
EXTRACT: note_on channel=9 note=42 velocity=79 time=0
EXTRACT: note_on channel=9 note=51 velocity=63 time=0
EXTRACT: note_off channel=2 note=67 velocity=127 time=0.217391
EXTRACT: note_on channel=2 note=64 velocity=111 time=0
EXTRACT: note_off channel=0 note=28 velocity=95 time=0
EXTRACT: note_on channel=0 note=31 velocity=95 time=0
EXTRACT: note_off channel=9 note=35 velocity=127 time=0
EXTRACT: note_off channel=9 note=42 velocity=79 time=0
EXTRACT: note_off channel=9 note=51 velocity=63 time=0
EXTRACT: note_on channel=9 note=42 velocity=47 time=0
EXTRACT: note_off channel=2 note=64 velocity=111 time=0.217391
EXTRACT: note_off channel=0 note=31 velocity=95 time=0
EXTRACT: note_on channel=0 note=35 velocity=95 time=0
EXTRACT: note_off channel=9 note=42 velocity=47 time=0
EXTRACT: note_on channel=9 note=40 velocity=111 time=0
EXTRACT: note_on channel=9 note=42 velocity=79 time=0
EXTRACT: note_on channel=9 note=51 velocity=63 time=0
EXTRACT: note_off channel=0 note=35 velocity=95 time=0.217391
EXTRACT: note_on channel=0 note=43 velocity=95 time=0
EXTRACT: note_off channel=9 note=40 velocity=111 time=0
EXTRACT: note_off channel=9 note=42 velocity=79 time=0
EXTRACT: note_off channel=9 note=51 velocity=63 time=0
EXTRACT: note_on channel=9 note=42 velocity=47 time=0
EXTRACT: note_off channel=0 note=43 velocity=95 time=0.217391
EXTRACT: note_on channel=0 note=40 velocity=95 time=0
EXTRACT: note_off channel=9 note=42 velocity=47 time=0
EXTRACT: note_on channel=9 note=35 velocity=127 time=0
EXTRACT: note_on channel=9 note=42 velocity=95 time=0
EXTRACT: note_on channel=9 note=51 velocity=79 time=0
EXTRACT: note_off channel=9 note=35 velocity=127 time=0.217391
EXTRACT: note_off channel=9 note=42 velocity=95 time=0
EXTRACT: note_off channel=9 note=51 velocity=79 time=0
EXTRACT: note_on channel=9 note=42 velocity=47 time=0
EXTRACT: note_on channel=2 note=64 velocity=127 time=0.217391
EXTRACT: note_off channel=0 note=40 velocity=95 time=0
EXTRACT: note_off channel=9 note=42 velocity=47 time=0
EXTRACT: note_on channel=9 note=39 velocity=95 time=0
EXTRACT: note_on channel=9 note=38 velocity=95 time=0
EXTRACT: note_on channel=9 note=41 velocity=111 time=0
EXTRACT: note_on channel=9 note=54 velocity=95 time=0
EXTRACT: note_on channel=9 note=42 velocity=95 time=0
EXTRACT: note_on channel=9 note=51 velocity=79 time=0
EXTRACT: note_on channel=1 note=40 velocity=95 time=0.16304325
EXTRACT: note_off channel=2 note=64 velocity=127 time=0.05434775
EXTRACT: note_off channel=1 note=40 velocity=95 time=0
EXTRACT: pitchwheel channel=1 pitch=0 time=0
EXTRACT: note_on channel=1 note=40 velocity=95 time=0
EXTRACT: note_off channel=9 note=39 velocity=95 time=0
EXTRACT: note_off channel=9 note=38 velocity=95 time=0
EXTRACT: note_off channel=9 note=41 velocity=111 time=0
EXTRACT: note_off channel=9 note=54 velocity=95 time=0
EXTRACT: note_off channel=9 note=42 velocity=95 time=0
EXTRACT: note_off channel=9 note=51 velocity=79 time=0
EXTRACT: note_on channel=9 note=42 velocity=47 time=0
EXTRACT: pitchwheel channel=1 pitch=128 time=0.019474610416666666
EXTRACT: pitchwheel channel=1 pitch=256 time=0.019474610416666666
EXTRACT: pitchwheel channel=1 pitch=384 time=0.019474610416666666
EXTRACT: pitchwheel channel=1 pitch=512 time=0.019474610416666666
EXTRACT: pitchwheel channel=1 pitch=640 time=0.019474610416666666
EXTRACT: pitchwheel channel=1 pitch=768 time=0.019474610416666666
EXTRACT: pitchwheel channel=1 pitch=896 time=0.019474610416666666
EXTRACT: pitchwheel channel=1 pitch=1024 time=0.019474610416666666
EXTRACT: pitchwheel channel=1 pitch=1152 time=0.019474610416666666
EXTRACT: pitchwheel channel=1 pitch=1280 time=0.019474610416666666
EXTRACT: pitchwheel channel=1 pitch=1408 time=0.019474610416666666
EXTRACT: note_on channel=2 note=66 velocity=127 time=0.0031702854166666666
EXTRACT: pitchwheel channel=1 pitch=1408 time=0
EXTRACT: note_off channel=9 note=42 velocity=47 time=0
EXTRACT: note_on channel=9 note=35 velocity=127 time=0
EXTRACT: note_on channel=9 note=42 velocity=79 time=0
EXTRACT: note_on channel=9 note=51 velocity=63 time=0
EXTRACT: note_off channel=2 note=66 velocity=127 time=0.217391
EXTRACT: note_on channel=2 note=62 velocity=111 time=0
EXTRACT: pitchwheel channel=1 pitch=1408 time=0
EXTRACT: pitchwheel channel=1 pitch=0 time=0
EXTRACT: note_off channel=1 note=40 velocity=95 time=0
EXTRACT: note_on channel=0 note=40 velocity=95 time=0
EXTRACT: note_off channel=9 note=35 velocity=127 time=0
EXTRACT: note_off channel=9 note=42 velocity=79 time=0
EXTRACT: note_off channel=9 note=51 velocity=63 time=0
EXTRACT: note_on channel=9 note=42 velocity=47 time=0
EXTRACT: note_off channel=2 note=62 velocity=111 time=0.217391
EXTRACT: note_off channel=0 note=40 velocity=95 time=0
EXTRACT: note_on channel=0 note=38 velocity=95 time=0
EXTRACT: note_off channel=9 note=42 velocity=47 time=0
EXTRACT: note_on channel=9 note=40 velocity=111 time=0
EXTRACT: note_on channel=9 note=42 velocity=95 time=0
EXTRACT: note_on channel=9 note=51 velocity=79 time=0
EXTRACT: note_off channel=0 note=38 velocity=95 time=0.217391
EXTRACT: note_off channel=9 note=40 velocity=111 time=0
EXTRACT: note_off channel=9 note=42 velocity=95 time=0
EXTRACT: note_off channel=9 note=51 velocity=79 time=0
EXTRACT: note_on channel=9 note=42 velocity=47 time=0
EXTRACT: note_off channel=9 note=42 velocity=47 time=0.217391
EXTRACT: note_on channel=9 note=42 velocity=79 time=0
EXTRACT: note_on channel=9 note=51 velocity=63 time=0
EXTRACT: note_off channel=9 note=42 velocity=79 time=0.217391
EXTRACT: note_off channel=9 note=51 velocity=63 time=0
EXTRACT: note_on channel=9 note=35 velocity=127 time=0
EXTRACT: note_on channel=9 note=42 velocity=47 time=0
EXTRACT: note_on channel=9 note=40 velocity=111 time=0
EXTRACT: note_off channel=9 note=35 velocity=127 time=0.217391
EXTRACT: note_off channel=9 note=42 velocity=47 time=0
EXTRACT: note_off channel=9 note=40 velocity=111 time=0
EXTRACT: note_on channel=9 note=54 velocity=95 time=0
EXTRACT: note_on channel=9 note=39 velocity=95 time=0
EXTRACT: note_on channel=9 note=41 velocity=111 time=0
EXTRACT: note_on channel=9 note=38 velocity=95 time=0
EXTRACT: note_on channel=9 note=42 velocity=95 time=0
EXTRACT: note_on channel=9 note=51 velocity=79 time=0
EXTRACT: note_on channel=0 note=28 velocity=95 time=0.217391
EXTRACT: note_off channel=9 note=54 velocity=95 time=0
EXTRACT: note_off channel=9 note=39 velocity=95 time=0
EXTRACT: note_off channel=9 note=41 velocity=111 time=0
EXTRACT: note_off channel=9 note=38 velocity=95 time=0
EXTRACT: note_off channel=9 note=42 velocity=95 time=0
EXTRACT: note_off channel=9 note=51 velocity=79 time=0
EXTRACT: note_on channel=9 note=35 velocity=127 time=0
EXTRACT: note_on channel=9 note=49 velocity=79 time=0
EXTRACT: note_on channel=9 note=42 velocity=47 time=0
EXTRACT: note_off channel=9 note=35 velocity=127 time=0.217391
EXTRACT: note_off channel=9 note=49 velocity=79 time=0
EXTRACT: note_off channel=9 note=42 velocity=47 time=0
EXTRACT: note_on channel=9 note=35 velocity=127 time=0
EXTRACT: note_on channel=9 note=51 velocity=79 time=0
EXTRACT: note_off channel=9 note=35 velocity=127 time=0.434782
EXTRACT: note_off channel=9 note=51 velocity=79 time=0
EXTRACT: note_off channel=0 note=28 velocity=95 time=3.0434740000000002
