EXTRACT: control_change channel=0 control=0 value=0 time=0
EXTRACT: program_change channel=0 program=64 time=0
EXTRACT: control_change channel=0 control=7 value=103 time=0
EXTRACT: note_on channel=0 note=74 velocity=100 time=0
EXTRACT: control_change channel=1 control=0 value=0 time=0
EXTRACT: program_change channel=1 program=24 time=0
EXTRACT: control_change channel=1 control=7 value=57 time=0
EXTRACT: control_change channel=9 control=0 value=0 time=0
EXTRACT: program_change channel=9 program=30 time=0
EXTRACT: control_change channel=9 control=7 value=77 time=0
EXTRACT: control_change channel=4 control=0 value=0 time=0
EXTRACT: program_change channel=4 program=0 time=0
EXTRACT: control_change channel=4 control=7 value=79 time=0
EXTRACT: control_change channel=5 control=0 value=0 time=0
EXTRACT: program_change channel=5 program=53 time=0
EXTRACT: control_change channel=5 control=7 value=73 time=0
EXTRACT: control_change channel=6 control=0 value=0 time=0
EXTRACT: program_change channel=6 program=49 time=0
EXTRACT: control_change channel=6 control=7 value=88 time=0
EXTRACT: control_change channel=7 control=0 value=0 time=0
EXTRACT: program_change channel=7 program=49 time=0
EXTRACT: control_change channel=7 control=7 value=49 time=0
EXTRACT: control_change channel=9 control=0 value=0 time=0
EXTRACT: program_change channel=9 program=30 time=0
EXTRACT: control_change channel=9 control=7 value=77 time=0
EXTRACT: control_change channel=9 control=0 value=0 time=0
EXTRACT: program_change channel=9 program=30 time=0
EXTRACT: control_change channel=9 control=7 value=77 time=0
EXTRACT: control_change channel=9 control=0 value=0 time=0
EXTRACT: program_change channel=9 program=30 time=0
EXTRACT: control_change channel=9 control=7 value=77 time=0
EXTRACT: control_change channel=9 control=0 value=0 time=0
EXTRACT: program_change channel=9 program=30 time=0
EXTRACT: control_change channel=9 control=7 value=77 time=0
EXTRACT: control_change channel=9 control=0 value=0 time=0
EXTRACT: program_change channel=9 program=30 time=0
EXTRACT: control_change channel=9 control=7 value=77 time=0
EXTRACT: control_change channel=9 control=0 value=0 time=0
EXTRACT: program_change channel=9 program=30 time=0
EXTRACT: control_change channel=9 control=7 value=77 time=0
EXTRACT: control_change channel=9 control=0 value=0 time=0
EXTRACT: program_change channel=9 program=30 time=0
EXTRACT: control_change channel=9 control=7 value=77 time=0
EXTRACT: control_change channel=9 control=0 value=0 time=0
EXTRACT: program_change channel=9 program=30 time=0
EXTRACT: control_change channel=9 control=7 value=77 time=0
EXTRACT: control_change channel=9 control=0 value=0 time=0
EXTRACT: program_change channel=9 program=30 time=0
EXTRACT: control_change channel=9 control=7 value=77 time=0
EXTRACT: control_change channel=9 control=0 value=0 time=0
EXTRACT: program_change channel=9 program=30 time=0
EXTRACT: control_change channel=9 control=7 value=77 time=0
EXTRACT: control_change channel=9 control=0 value=0 time=0
EXTRACT: program_change channel=9 program=30 time=0
EXTRACT: control_change channel=9 control=7 value=77 time=0
EXTRACT: control_change channel=9 control=0 value=0 time=0
EXTRACT: program_change channel=9 program=30 time=0
EXTRACT: control_change channel=9 control=7 value=77 time=0
EXTRACT: control_change channel=9 control=0 value=0 time=0
EXTRACT: program_change channel=9 program=30 time=0
EXTRACT: control_change channel=9 control=7 value=77 time=0
EXTRACT: control_change channel=9 control=0 value=0 time=0
EXTRACT: program_change channel=9 program=30 time=0
EXTRACT: control_change channel=9 control=7 value=77 time=0
EXTRACT: control_change channel=9 control=0 value=0 time=0
EXTRACT: program_change channel=9 program=30 time=0
EXTRACT: control_change channel=9 control=7 value=77 time=0
EXTRACT: control_change channel=9 control=0 value=0 time=0
EXTRACT: program_change channel=9 program=30 time=0
EXTRACT: control_change channel=9 control=7 value=77 time=0
EXTRACT: control_change channel=9 control=0 value=0 time=0
EXTRACT: program_change channel=9 program=30 time=0
EXTRACT: control_change channel=9 control=7 value=77 time=0
EXTRACT: control_change channel=9 control=0 value=0 time=0
EXTRACT: program_change channel=9 program=30 time=0
EXTRACT: control_change channel=9 control=7 value=77 time=0
EXTRACT: control_change channel=9 control=0 value=0 time=0
EXTRACT: program_change channel=9 program=30 time=0
EXTRACT: control_change channel=9 control=7 value=77 time=0
EXTRACT: control_change channel=9 control=0 value=0 time=0
EXTRACT: program_change channel=9 program=30 time=0
EXTRACT: control_change channel=9 control=7 value=77 time=0
EXTRACT: control_change channel=9 control=0 value=0 time=0
EXTRACT: program_change channel=9 program=30 time=0
EXTRACT: control_change channel=9 control=7 value=77 time=0
EXTRACT: control_change channel=9 control=0 value=0 time=0
EXTRACT: program_change channel=9 program=30 time=0
EXTRACT: control_change channel=9 control=7 value=77 time=0
EXTRACT: control_change channel=9 control=0 value=0 time=0
EXTRACT: program_change channel=9 program=30 time=0
EXTRACT: control_change channel=9 control=7 value=77 time=0
EXTRACT: control_change channel=9 control=0 value=0 time=0
EXTRACT: program_change channel=9 program=30 time=0
EXTRACT: control_change channel=9 control=7 value=77 time=0
EXTRACT: control_change channel=9 control=0 value=0 time=0
EXTRACT: program_change channel=9 program=30 time=0
EXTRACT: control_change channel=9 control=7 value=77 time=0
EXTRACT: control_change channel=9 control=0 value=0 time=0
EXTRACT: program_change channel=9 program=30 time=0
EXTRACT: control_change channel=9 control=7 value=77 time=0
EXTRACT: control_change channel=9 control=0 value=0 time=0
EXTRACT: program_change channel=9 program=30 time=0
EXTRACT: control_change channel=9 control=7 value=77 time=0
EXTRACT: control_change channel=9 control=0 value=0 time=0
EXTRACT: program_change channel=9 program=30 time=0
EXTRACT: control_change channel=9 control=7 value=77 time=0
EXTRACT: control_change channel=9 control=0 value=0 time=0
EXTRACT: program_change channel=9 program=30 time=0
EXTRACT: control_change channel=9 control=7 value=77 time=0
EXTRACT: control_change channel=9 control=0 value=0 time=0
EXTRACT: program_change channel=9 program=30 time=0
EXTRACT: control_change channel=9 control=7 value=77 time=0
EXTRACT: control_change channel=9 control=0 value=0 time=0
EXTRACT: program_change channel=9 program=30 time=0
EXTRACT: control_change channel=9 control=7 value=77 time=0
EXTRACT: control_change channel=9 control=0 value=0 time=0
EXTRACT: program_change channel=9 program=30 time=0
EXTRACT: control_change channel=9 control=7 value=77 time=0
EXTRACT: control_change channel=9 control=0 value=0 time=0
EXTRACT: program_change channel=9 program=30 time=0
EXTRACT: control_change channel=9 control=7 value=77 time=0
EXTRACT: control_change channel=9 control=0 value=0 time=0
EXTRACT: program_change channel=9 program=30 time=0
EXTRACT: control_change channel=9 control=7 value=77 time=0
EXTRACT: control_change channel=9 control=0 value=0 time=0
EXTRACT: program_change channel=9 program=30 time=0
EXTRACT: control_change channel=9 control=7 value=77 time=0
EXTRACT: note_off channel=0 note=74 velocity=100 time=0.21505366666666667
EXTRACT: note_on channel=0 note=71 velocity=100 time=0.10752683333333334
EXTRACT: note_on channel=0 note=69 velocity=100 time=0.06720427083333333
EXTRACT: note_off channel=0 note=69 velocity=100 time=0.06720427083333333
EXTRACT: note_off channel=0 note=71 velocity=100 time=0.080645125
EXTRACT: note_on channel=0 note=67 velocity=100 time=0.10752683333333334
EXTRACT: note_off channel=0 note=67 velocity=100 time=0.21505366666666667
EXTRACT: note_on channel=0 note=71 velocity=100 time=0.10752683333333334
EXTRACT: note_on channel=0 note=69 velocity=100 time=0.06720427083333333
EXTRACT: note_off channel=0 note=69 velocity=100 time=0.10752683333333334
EXTRACT: note_off channel=0 note=71 velocity=100 time=0.0403225625
EXTRACT: note_on channel=0 note=67 velocity=100 time=0.10752683333333334
EXTRACT: note_off channel=0 note=67 velocity=100 time=0.21505366666666667
EXTRACT: note_on channel=0 note=70 velocity=100 time=1.0752683333333333
EXTRACT: note_on channel=0 note=67 velocity=100 time=1.290322
EXTRACT: note_off channel=0 note=67 velocity=100 time=0.21505366666666667
EXTRACT: note_on channel=0 note=69 velocity=100 time=0.10752683333333334
EXTRACT: note_on channel=0 note=67 velocity=100 time=0.06720427083333333
EXTRACT: note_off channel=0 note=70 velocity=100 time=0.0403225625
EXTRACT: note_on channel=0 note=66 velocity=100 time=0.05376341666666667
EXTRACT: note_off channel=0 note=67 velocity=100 time=0.013440854166666667
EXTRACT: note_off channel=0 note=69 velocity=100 time=0.0403225625
EXTRACT: note_on channel=0 note=65 velocity=100 time=0
EXTRACT: note_on channel=0 note=64 velocity=100 time=0.06720427083333333
EXTRACT: note_off channel=0 note=65 velocity=100 time=0.0403225625
EXTRACT: note_on channel=0 note=62 velocity=100 time=0.026881708333333334
EXTRACT: note_off channel=0 note=66 velocity=100 time=0.026881708333333334
EXTRACT: note_off channel=0 note=64 velocity=100 time=0.013440854166666667
EXTRACT: note_off channel=0 note=62 velocity=100 time=0.43010733333333334
EXTRACT: note_on channel=0 note=62 velocity=100 time=0.6317201458333334
EXTRACT: note_on channel=0 note=64 velocity=100 time=0.8064512500000001
EXTRACT: note_on channel=1 note=40 velocity=100 time=0
EXTRACT: note_off channel=0 note=62 velocity=100 time=0.05376341666666667
EXTRACT: note_on channel=4 note=59 velocity=100 time=0.2688170833333333
EXTRACT: note_off channel=4 note=59 velocity=100 time=0.3225805
EXTRACT: note_on channel=4 note=64 velocity=100 time=0
EXTRACT: note_off channel=4 note=64 velocity=100 time=0.3225805
EXTRACT: note_on channel=4 note=64 velocity=100 time=0
EXTRACT: note_off channel=1 note=40 velocity=100 time=0.10752683333333334
EXTRACT: note_off channel=4 note=64 velocity=100 time=0.21505366666666667
EXTRACT: note_on channel=4 note=59 velocity=100 time=0
EXTRACT: note_off channel=4 note=59 velocity=64 time=0.3225805
EXTRACT: note_on channel=4 note=57 velocity=100 time=0
EXTRACT: note_on channel=1 note=47 velocity=100 time=0.3225805
EXTRACT: note_off channel=4 note=57 velocity=100 time=0
EXTRACT: note_on channel=4 note=59 velocity=100 time=0.3225805
EXTRACT: note_off channel=4 note=59 velocity=100 time=0.3225805
EXTRACT: note_on channel=4 note=66 velocity=100 time=0
EXTRACT: note_off channel=4 note=66 velocity=100 time=0.3225805
EXTRACT: note_on channel=4 note=66 velocity=100 time=0
EXTRACT: note_off channel=1 note=47 velocity=100 time=0.11424726041666666
EXTRACT: note_off channel=4 note=66 velocity=100 time=0.20833323958333333
EXTRACT: note_on channel=4 note=59 velocity=100 time=0
EXTRACT: note_on channel=0 note=62 velocity=100 time=0.3225805
EXTRACT: note_off channel=4 note=59 velocity=100 time=0
EXTRACT: note_on channel=4 note=57 velocity=100 time=0
EXTRACT: note_off channel=0 note=64 velocity=64 time=0.21505366666666667
EXTRACT: note_off channel=0 note=62 velocity=100 time=0
EXTRACT: note_on channel=0 note=64 velocity=100 time=0.10752683333333334
EXTRACT: note_on channel=1 note=40 velocity=100 time=0
EXTRACT: note_off channel=4 note=57 velocity=100 time=0
EXTRACT: note_on channel=4 note=59 velocity=100 time=0.3225805
EXTRACT: note_off channel=4 note=59 velocity=100 time=0.3225805
EXTRACT: note_on channel=4 note=64 velocity=100 time=0
EXTRACT: note_off channel=0 note=64 velocity=64 time=0.21505366666666667
EXTRACT: note_off channel=4 note=64 velocity=100 time=0.10752683333333334
EXTRACT: note_on channel=4 note=64 velocity=100 time=0
EXTRACT: note_off channel=1 note=40 velocity=64 time=0.10752683333333334
EXTRACT: note_off channel=4 note=64 velocity=100 time=0.21505366666666667
EXTRACT: note_on channel=4 note=59 velocity=100 time=0
EXTRACT: note_off channel=4 note=59 velocity=100 time=0.3225805
EXTRACT: note_on channel=4 note=57 velocity=100 time=0
EXTRACT: note_on channel=1 note=47 velocity=100 time=0.3225805
EXTRACT: note_on channel=9 note=69 velocity=100 time=0
EXTRACT: note_on channel=9 note=42 velocity=100 time=0
EXTRACT: note_off channel=4 note=57 velocity=100 time=0
EXTRACT: note_on channel=7 note=69 velocity=100 time=0
EXTRACT: note_off channel=9 note=42 velocity=100 time=0.16129025
EXTRACT: note_off channel=9 note=69 velocity=100 time=0.05376341666666667
EXTRACT: note_off channel=7 note=69 velocity=100 time=0
EXTRACT: note_on channel=9 note=69 velocity=100 time=0.10752683333333334
EXTRACT: note_on channel=9 note=42 velocity=100 time=0
EXTRACT: note_on channel=4 note=59 velocity=100 time=0
EXTRACT: note_on channel=7 note=69 velocity=100 time=0
EXTRACT: note_off channel=9 note=42 velocity=100 time=0.16129025
EXTRACT: note_off channel=9 note=69 velocity=100 time=0.05376341666666667
EXTRACT: note_off channel=7 note=69 velocity=100 time=0
EXTRACT: note_on channel=0 note=67 velocity=100 time=0.10752683333333334
EXTRACT: note_on channel=9 note=69 velocity=100 time=0
EXTRACT: note_on channel=9 note=42 velocity=100 time=0
EXTRACT: note_off channel=4 note=59 velocity=100 time=0
EXTRACT: note_on channel=4 note=66 velocity=100 time=0
EXTRACT: note_on channel=7 note=69 velocity=100 time=0
EXTRACT: note_off channel=1 note=47 velocity=64 time=0.16129025
EXTRACT: note_off channel=9 note=42 velocity=100 time=0
EXTRACT: note_off channel=9 note=69 velocity=100 time=0.05376341666666667
EXTRACT: note_off channel=7 note=69 velocity=100 time=0
EXTRACT: note_off channel=0 note=67 velocity=100 time=0.10752683333333334
EXTRACT: note_on channel=0 note=69 velocity=100 time=0
EXTRACT: note_on channel=9 note=69 velocity=100 time=0
EXTRACT: note_on channel=9 note=42 velocity=100 time=0
EXTRACT: note_off channel=4 note=66 velocity=64 time=0
EXTRACT: note_on channel=4 note=66 velocity=100 time=0
EXTRACT: note_on channel=7 note=69 velocity=100 time=0
EXTRACT: note_off channel=9 note=42 velocity=100 time=0.16129025
EXTRACT: note_off channel=9 note=69 velocity=100 time=0.05376341666666667
EXTRACT: note_off channel=7 note=69 velocity=100 time=0
EXTRACT: note_off channel=0 note=69 velocity=100 time=0.10752683333333334
EXTRACT: note_on channel=9 note=69 velocity=100 time=0
EXTRACT: note_on channel=9 note=42 velocity=100 time=0
EXTRACT: note_off channel=4 note=66 velocity=100 time=0
EXTRACT: note_on channel=4 note=59 velocity=100 time=0
EXTRACT: note_on channel=7 note=69 velocity=100 time=0
EXTRACT: note_off channel=9 note=42 velocity=100 time=0.16129025
EXTRACT: note_off channel=9 note=69 velocity=100 time=0.05376341666666667
EXTRACT: note_off channel=7 note=69 velocity=100 time=0
EXTRACT: note_on channel=0 note=67 velocity=100 time=0.10752683333333334
EXTRACT: note_on channel=9 note=69 velocity=100 time=0
EXTRACT: note_on channel=9 note=42 velocity=100 time=0
EXTRACT: note_off channel=4 note=59 velocity=100 time=0
EXTRACT: note_on channel=4 note=57 velocity=100 time=0
EXTRACT: note_on channel=7 note=69 velocity=100 time=0
EXTRACT: note_off channel=9 note=42 velocity=100 time=0.16129025
EXTRACT: note_off channel=9 note=69 velocity=100 time=0.05376341666666667
EXTRACT: note_off channel=7 note=69 velocity=100 time=0
EXTRACT: note_off channel=0 note=67 velocity=100 time=0.10752683333333334
EXTRACT: note_on channel=0 note=71 velocity=100 time=0
EXTRACT: note_on channel=1 note=40 velocity=100 time=0
EXTRACT: note_on channel=9 note=69 velocity=100 time=0
EXTRACT: note_on channel=9 note=35 velocity=100 time=0
EXTRACT: note_on channel=9 note=42 velocity=100 time=0
EXTRACT: note_off channel=4 note=57 velocity=100 time=0
EXTRACT: note_on channel=5 note=59 velocity=100 time=0
EXTRACT: note_on channel=5 note=64 velocity=100 time=0
EXTRACT: note_on channel=5 note=76 velocity=100 time=0
EXTRACT: note_on channel=5 note=71 velocity=100 time=0
EXTRACT: note_off channel=9 note=42 velocity=100 time=0.16129025
EXTRACT: note_off channel=9 note=69 velocity=100 time=0.05376341666666667
EXTRACT: note_off channel=9 note=35 velocity=100 time=0
EXTRACT: note_on channel=9 note=69 velocity=100 time=0.10752683333333334
EXTRACT: note_on channel=9 note=42 velocity=100 time=0
EXTRACT: note_on channel=4 note=59 velocity=100 time=0
EXTRACT: note_off channel=0 note=71 velocity=100 time=0.10752683333333334
EXTRACT: note_off channel=5 note=59 velocity=100 time=0
EXTRACT: note_off channel=5 note=64 velocity=100 time=0
EXTRACT: note_off channel=5 note=76 velocity=100 time=0
EXTRACT: note_off channel=5 note=71 velocity=100 time=0
EXTRACT: note_off channel=9 note=42 velocity=100 time=0.05376341666666667
EXTRACT: note_off channel=9 note=69 velocity=100 time=0.05376341666666667
EXTRACT: note_on channel=0 note=71 velocity=100 time=0.10752683333333334
EXTRACT: note_on channel=9 note=69 velocity=100 time=0
EXTRACT: note_on channel=9 note=42 velocity=100 time=0
EXTRACT: note_off channel=4 note=59 velocity=100 time=0
EXTRACT: note_on channel=4 note=64 velocity=100 time=0
EXTRACT: note_on channel=5 note=59 velocity=100 time=0
EXTRACT: note_on channel=5 note=64 velocity=100 time=0
EXTRACT: note_on channel=5 note=76 velocity=100 time=0
EXTRACT: note_off channel=9 note=42 velocity=100 time=0.16129025
EXTRACT: note_off channel=9 note=69 velocity=100 time=0.05376341666666667
EXTRACT: note_off channel=0 note=71 velocity=100 time=0.10752683333333334
EXTRACT: note_on channel=9 note=69 velocity=100 time=0
EXTRACT: note_on channel=9 note=37 velocity=100 time=0
EXTRACT: note_on channel=9 note=42 velocity=100 time=0
EXTRACT: note_off channel=4 note=64 velocity=100 time=0
EXTRACT: note_on channel=4 note=64 velocity=100 time=0
EXTRACT: note_off channel=1 note=40 velocity=100 time=0.10752683333333334
EXTRACT: note_off channel=5 note=59 velocity=100 time=0
EXTRACT: note_off channel=5 note=64 velocity=100 time=0
EXTRACT: note_off channel=5 note=76 velocity=100 time=0
EXTRACT: note_off channel=9 note=42 velocity=100 time=0.05376341666666667
EXTRACT: note_off channel=9 note=69 velocity=100 time=0.05376341666666667
EXTRACT: note_off channel=9 note=37 velocity=100 time=0
EXTRACT: note_on channel=9 note=69 velocity=100 time=0.10752683333333334
EXTRACT: note_on channel=9 note=42 velocity=100 time=0
EXTRACT: note_off channel=4 note=64 velocity=100 time=0
EXTRACT: note_on channel=4 note=59 velocity=100 time=0
EXTRACT: note_off channel=9 note=42 velocity=100 time=0.16129025
EXTRACT: note_off channel=9 note=69 velocity=100 time=0.05376341666666667
EXTRACT: note_on channel=9 note=69 velocity=100 time=0.10752683333333334
EXTRACT: note_on channel=9 note=35 velocity=100 time=0
EXTRACT: note_on channel=9 note=42 velocity=100 time=0
EXTRACT: note_off channel=4 note=59 velocity=64 time=0
EXTRACT: note_on channel=4 note=57 velocity=100 time=0
EXTRACT: note_off channel=9 note=42 velocity=100 time=0.16129025
EXTRACT: note_off channel=9 note=69 velocity=100 time=0.05376341666666667
EXTRACT: note_off channel=9 note=35 velocity=100 time=0
EXTRACT: note_on channel=1 note=47 velocity=100 time=0.10752683333333334
EXTRACT: note_on channel=9 note=35 velocity=100 time=0
EXTRACT: note_on channel=9 note=42 velocity=100 time=0
EXTRACT: note_off channel=4 note=57 velocity=100 time=0
EXTRACT: note_off channel=9 note=42 velocity=100 time=0.16129025
EXTRACT: note_off channel=9 note=35 velocity=100 time=0.05376341666666667
EXTRACT: note_on channel=0 note=62 velocity=100 time=0.10752683333333334
EXTRACT: note_on channel=9 note=42 velocity=100 time=0
EXTRACT: note_on channel=4 note=59 velocity=100 time=0
EXTRACT: note_off channel=9 note=42 velocity=100 time=0.16129025
EXTRACT: note_off channel=0 note=62 velocity=100 time=0.05376341666666667
EXTRACT: note_on channel=0 note=62 velocity=100 time=0.10752683333333334
EXTRACT: note_on channel=9 note=42 velocity=100 time=0
EXTRACT: note_off channel=4 note=59 velocity=100 time=0
EXTRACT: note_on channel=4 note=66 velocity=100 time=0
EXTRACT: note_off channel=9 note=42 velocity=100 time=0.16129025
EXTRACT: note_off channel=0 note=62 velocity=100 time=0.16129025
EXTRACT: note_on channel=0 note=62 velocity=100 time=0
EXTRACT: note_on channel=9 note=37 velocity=100 time=0
EXTRACT: note_on channel=9 note=42 velocity=100 time=0
EXTRACT: note_off channel=4 note=66 velocity=100 time=0
EXTRACT: note_on channel=4 note=66 velocity=100 time=0
EXTRACT: note_off channel=1 note=47 velocity=100 time=0.11424726041666666
EXTRACT: note_off channel=9 note=42 velocity=100 time=0.04704298958333333
EXTRACT: note_off channel=9 note=37 velocity=100 time=0.05376341666666667
EXTRACT: note_off channel=0 note=62 velocity=100 time=0.10752683333333334
EXTRACT: note_on channel=0 note=62 velocity=100 time=0
EXTRACT: note_on channel=9 note=42 velocity=100 time=0
EXTRACT: note_off channel=4 note=66 velocity=100 time=0
EXTRACT: note_on channel=4 note=59 velocity=100 time=0
EXTRACT: note_off channel=9 note=42 velocity=100 time=0.16129025
EXTRACT: note_off channel=0 note=62 velocity=100 time=0.16129025
EXTRACT: note_on channel=0 note=62 velocity=100 time=0
EXTRACT: note_on channel=9 note=42 velocity=100 time=0
EXTRACT: note_off channel=4 note=59 velocity=100 time=0
EXTRACT: note_on channel=4 note=57 velocity=100 time=0
EXTRACT: note_off channel=9 note=42 velocity=100 time=0.16129025
EXTRACT: note_off channel=0 note=62 velocity=100 time=0.16129025
EXTRACT: note_on channel=0 note=64 velocity=100 time=0
EXTRACT: note_on channel=1 note=40 velocity=100 time=0
EXTRACT: note_on channel=9 note=35 velocity=100 time=0
EXTRACT: note_on channel=9 note=42 velocity=100 time=0
EXTRACT: note_off channel=4 note=57 velocity=100 time=0
EXTRACT: note_off channel=9 note=42 velocity=100 time=0.16129025
EXTRACT: note_off channel=9 note=35 velocity=100 time=0.05376341666666667
EXTRACT: note_on channel=9 note=42 velocity=100 time=0.10752683333333334
EXTRACT: note_on channel=4 note=59 velocity=100 time=0
EXTRACT: note_off channel=9 note=42 velocity=100 time=0.16129025
EXTRACT: note_on channel=9 note=42 velocity=100 time=0.16129025
EXTRACT: note_off channel=4 note=59 velocity=100 time=0
EXTRACT: note_on channel=4 note=64 velocity=100 time=0
EXTRACT: note_off channel=9 note=42 velocity=100 time=0.16129025
EXTRACT: note_off channel=0 note=64 velocity=100 time=0.05376341666666667
EXTRACT: note_on channel=9 note=37 velocity=100 time=0.10752683333333334
EXTRACT: note_on channel=9 note=42 velocity=100 time=0
EXTRACT: note_off channel=4 note=64 velocity=100 time=0
EXTRACT: note_on channel=4 note=64 velocity=100 time=0
EXTRACT: note_off channel=1 note=40 velocity=64 time=0.10752683333333334
EXTRACT: note_off channel=9 note=42 velocity=100 time=0.05376341666666667
EXTRACT: note_off channel=9 note=37 velocity=100 time=0.05376341666666667
EXTRACT: note_on channel=9 note=42 velocity=100 time=0.10752683333333334
EXTRACT: note_off channel=4 note=64 velocity=100 time=0
EXTRACT: note_on channel=4 note=59 velocity=100 time=0
EXTRACT: note_off channel=9 note=42 velocity=100 time=0.16129025
EXTRACT: note_on channel=9 note=35 velocity=100 time=0.16129025
EXTRACT: note_on channel=9 note=42 velocity=100 time=0
EXTRACT: note_off channel=4 note=59 velocity=100 time=0
EXTRACT: note_on channel=4 note=57 velocity=100 time=0
EXTRACT: note_off channel=9 note=42 velocity=100 time=0.16129025
EXTRACT: note_off channel=9 note=35 velocity=100 time=0.05376341666666667
EXTRACT: note_on channel=1 note=35 velocity=100 time=0.10752683333333334
EXTRACT: note_on channel=1 note=35 velocity=100 time=0
EXTRACT: note_on channel=1 note=35 velocity=100 time=0
EXTRACT: note_on channel=1 note=35 velocity=100 time=0
EXTRACT: note_on channel=1 note=47 velocity=100 time=0
EXTRACT: note_on channel=9 note=35 velocity=100 time=0
EXTRACT: note_on channel=9 note=42 velocity=100 time=0
EXTRACT: note_off channel=4 note=57 velocity=100 time=0
EXTRACT: note_off channel=9 note=42 velocity=100 time=0.16129025
EXTRACT: note_off channel=9 note=35 velocity=100 time=0.05376341666666667
EXTRACT: note_on channel=9 note=42 velocity=100 time=0.10752683333333334
EXTRACT: note_on channel=4 note=59 velocity=100 time=0
EXTRACT: note_off channel=1 note=35 velocity=100 time=0.10752683333333334
EXTRACT: note_off channel=1 note=35 velocity=100 time=0
EXTRACT: note_off channel=1 note=35 velocity=100 time=0
EXTRACT: note_off channel=9 note=42 velocity=100 time=0.05376341666666667
EXTRACT: note_on channel=0 note=66 velocity=100 time=0.16129025
EXTRACT: note_off channel=1 note=35 velocity=64 time=0
EXTRACT: note_on channel=9 note=42 velocity=100 time=0
EXTRACT: note_off channel=4 note=59 velocity=100 time=0
EXTRACT: note_on channel=4 note=66 velocity=100 time=0
EXTRACT: note_off channel=9 note=42 velocity=100 time=0.16129025
EXTRACT: note_off channel=0 note=66 velocity=100 time=0.16129025
EXTRACT: note_on channel=0 note=67 velocity=100 time=0
EXTRACT: note_on channel=9 note=37 velocity=100 time=0
EXTRACT: note_on channel=9 note=42 velocity=100 time=0
EXTRACT: note_off channel=4 note=66 velocity=64 time=0
EXTRACT: note_on channel=4 note=66 velocity=100 time=0
EXTRACT: note_off channel=1 note=47 velocity=64 time=0.11424726041666666
EXTRACT: note_off channel=9 note=42 velocity=100 time=0.04704298958333333
EXTRACT: note_off channel=9 note=37 velocity=100 time=0.05376341666666667
EXTRACT: note_off channel=0 note=67 velocity=100 time=0.10752683333333334
EXTRACT: note_on channel=0 note=66 velocity=100 time=0
EXTRACT: note_on channel=9 note=42 velocity=100 time=0
EXTRACT: note_off channel=4 note=66 velocity=100 time=0
EXTRACT: note_on channel=4 note=59 velocity=100 time=0
EXTRACT: note_off channel=9 note=42 velocity=100 time=0.16129025
EXTRACT: note_off channel=0 note=66 velocity=100 time=0.16129025
EXTRACT: note_on channel=0 note=69 velocity=100 time=0
EXTRACT: note_on channel=1 note=35 velocity=100 time=0
EXTRACT: note_on channel=9 note=42 velocity=100 time=0
EXTRACT: note_off channel=4 note=59 velocity=100 time=0
EXTRACT: note_on channel=4 note=57 velocity=100 time=0
EXTRACT: note_off channel=9 note=42 velocity=100 time=0.16129025
EXTRACT: note_off channel=0 note=69 velocity=100 time=0.16129025
EXTRACT: note_on channel=0 note=71 velocity=100 time=0
EXTRACT: note_on channel=1 note=40 velocity=100 time=0
EXTRACT: note_on channel=1 note=28 velocity=100 time=0
EXTRACT: note_on channel=9 note=35 velocity=100 time=0
EXTRACT: note_on channel=9 note=42 velocity=100 time=0
EXTRACT: note_off channel=4 note=57 velocity=100 time=0
EXTRACT: note_on channel=4 note=40 velocity=100 time=0
EXTRACT: note_off channel=1 note=35 velocity=100 time=0.10752683333333334
EXTRACT: note_off channel=9 note=42 velocity=100 time=0.05376341666666667
EXTRACT: note_off channel=1 note=40 velocity=100 time=0.05376341666666667
EXTRACT: note_off channel=1 note=28 velocity=100 time=0
EXTRACT: note_off channel=9 note=35 velocity=100 time=0
EXTRACT: note_on channel=1 note=40 velocity=100 time=0.10752683333333334
EXTRACT: note_on channel=9 note=42 velocity=100 time=0
EXTRACT: note_on channel=4 note=59 velocity=100 time=0
EXTRACT: note_off channel=9 note=42 velocity=100 time=0.16129025
EXTRACT: note_on channel=1 note=40 velocity=100 time=0.16129025
EXTRACT: note_on channel=9 note=42 velocity=100 time=0
EXTRACT: note_off channel=4 note=59 velocity=100 time=0
EXTRACT: note_on channel=4 note=64 velocity=100 time=0
EXTRACT: note_off channel=9 note=42 velocity=100 time=0.16129025
EXTRACT: note_off channel=0 note=71 velocity=100 time=0.05376341666666667
EXTRACT: note_off channel=1 note=40 velocity=100 time=0
EXTRACT: note_off channel=4 note=40 velocity=100 time=0
EXTRACT: note_on channel=1 note=40 velocity=100 time=0.10752683333333334
EXTRACT: note_on channel=9 note=37 velocity=100 time=0
EXTRACT: note_on channel=9 note=42 velocity=100 time=0
EXTRACT: note_off channel=4 note=64 velocity=100 time=0
EXTRACT: note_on channel=4 note=64 velocity=100 time=0
EXTRACT: note_off channel=9 note=42 velocity=100 time=0.16129025
EXTRACT: note_off channel=1 note=40 velocity=64 time=0.05376341666666667
EXTRACT: note_off channel=1 note=40 velocity=100 time=0
EXTRACT: note_off channel=9 note=37 velocity=100 time=0
EXTRACT: note_on channel=9 note=42 velocity=100 time=0.10752683333333334
EXTRACT: note_off channel=4 note=64 velocity=100 time=0
EXTRACT: note_on channel=4 note=59 velocity=100 time=0
EXTRACT: note_off channel=9 note=42 velocity=100 time=0.16129025
EXTRACT: note_on channel=1 note=31 velocity=100 time=0.16129025
EXTRACT: note_on channel=9 note=35 velocity=100 time=0
EXTRACT: note_on channel=9 note=42 velocity=100 time=0
EXTRACT: note_off channel=4 note=59 velocity=64 time=0
EXTRACT: note_on channel=4 note=57 velocity=100 time=0
EXTRACT: note_off channel=9 note=42 velocity=100 time=0.16129025
EXTRACT: note_off channel=1 note=31 velocity=100 time=0.05376341666666667
EXTRACT: note_off channel=9 note=35 velocity=100 time=0
EXTRACT: note_on channel=1 note=47 velocity=100 time=0.10752683333333334
EXTRACT: note_on channel=1 note=33 velocity=100 time=0
EXTRACT: note_on channel=9 note=35 velocity=100 time=0
EXTRACT: note_on channel=9 note=42 velocity=100 time=0
EXTRACT: note_off channel=4 note=57 velocity=100 time=0
EXTRACT: note_on channel=4 note=47 velocity=100 time=0
EXTRACT: note_off channel=9 note=42 velocity=100 time=0.16129025
EXTRACT: note_off channel=1 note=33 velocity=100 time=0.05376341666666667
EXTRACT: note_off channel=9 note=35 velocity=100 time=0
EXTRACT: note_on channel=9 note=42 velocity=100 time=0.10752683333333334
EXTRACT: note_on channel=4 note=59 velocity=100 time=0
EXTRACT: note_off channel=9 note=42 velocity=100 time=0.16129025
EXTRACT: note_on channel=0 note=62 velocity=100 time=0.16129025
EXTRACT: note_on channel=9 note=42 velocity=100 time=0
EXTRACT: note_off channel=4 note=59 velocity=100 time=0
EXTRACT: note_on channel=4 note=66 velocity=100 time=0
EXTRACT: note_off channel=9 note=42 velocity=100 time=0.16129025
EXTRACT: note_off channel=0 note=62 velocity=100 time=0.05376341666666667
EXTRACT: note_on channel=0 note=62 velocity=100 time=0.10752683333333334
EXTRACT: note_on channel=9 note=37 velocity=100 time=0
EXTRACT: note_on channel=9 note=42 velocity=100 time=0
EXTRACT: note_off channel=4 note=66 velocity=100 time=0
EXTRACT: note_on channel=4 note=66 velocity=100 time=0
EXTRACT: note_off channel=1 note=47 velocity=100 time=0.11424726041666666
EXTRACT: note_off channel=4 note=47 velocity=100 time=0
EXTRACT: note_off channel=9 note=42 velocity=100 time=0.04704298958333333
EXTRACT: note_off channel=0 note=62 velocity=100 time=0.05376341666666667
EXTRACT: note_off channel=9 note=37 velocity=100 time=0
EXTRACT: note_on channel=0 note=62 velocity=100 time=0.10752683333333334
EXTRACT: note_on channel=9 note=42 velocity=100 time=0
EXTRACT: note_off channel=4 note=66 velocity=100 time=0
EXTRACT: note_on channel=4 note=59 velocity=100 time=0
EXTRACT: note_off channel=9 note=42 velocity=100 time=0.16129025
EXTRACT: note_off channel=0 note=62 velocity=100 time=0.05376341666666667
EXTRACT: note_on channel=0 note=62 velocity=100 time=0.10752683333333334
EXTRACT: note_on channel=1 note=33 velocity=100 time=0
EXTRACT: note_on channel=9 note=42 velocity=100 time=0
EXTRACT: note_off channel=4 note=59 velocity=100 time=0
EXTRACT: note_on channel=4 note=57 velocity=100 time=0
EXTRACT: note_off channel=9 note=42 velocity=100 time=0.16129025
EXTRACT: note_off channel=0 note=62 velocity=100 time=0.05376341666666667
EXTRACT: note_off channel=1 note=33 velocity=100 time=0
EXTRACT: note_on channel=0 note=64 velocity=100 time=0.10752683333333334
EXTRACT: note_on channel=1 note=40 velocity=100 time=0
EXTRACT: note_on channel=1 note=28 velocity=100 time=0
EXTRACT: note_on channel=9 note=35 velocity=100 time=0
EXTRACT: note_on channel=9 note=42 velocity=100 time=0
EXTRACT: note_off channel=4 note=57 velocity=100 time=0
EXTRACT: note_on channel=4 note=40 velocity=100 time=0
EXTRACT: note_off channel=9 note=42 velocity=100 time=0.16129025
EXTRACT: note_off channel=1 note=28 velocity=100 time=0.05376341666666667
EXTRACT: note_off channel=9 note=35 velocity=100 time=0
EXTRACT: note_on channel=1 note=40 velocity=100 time=0.10752683333333334
EXTRACT: note_on channel=9 note=42 velocity=100 time=0
EXTRACT: note_on channel=4 note=59 velocity=100 time=0
EXTRACT: note_off channel=9 note=42 velocity=100 time=0.16129025
EXTRACT: note_off channel=1 note=40 velocity=100 time=0.05376341666666667
EXTRACT: note_on channel=1 note=40 velocity=100 time=0.10752683333333334
EXTRACT: note_on channel=9 note=42 velocity=100 time=0
EXTRACT: note_off channel=4 note=59 velocity=100 time=0
EXTRACT: note_on channel=4 note=64 velocity=100 time=0
EXTRACT: note_off channel=9 note=42 velocity=100 time=0.16129025
EXTRACT: note_off channel=0 note=64 velocity=100 time=0.05376341666666667
EXTRACT: note_off channel=1 note=40 velocity=64 time=0
EXTRACT: note_off channel=1 note=40 velocity=100 time=0
EXTRACT: note_off channel=4 note=40 velocity=64 time=0
EXTRACT: note_on channel=1 note=40 velocity=100 time=0.10752683333333334
EXTRACT: note_on channel=9 note=37 velocity=100 time=0
EXTRACT: note_on channel=9 note=42 velocity=100 time=0
EXTRACT: note_off channel=4 note=64 velocity=100 time=0
EXTRACT: note_on channel=4 note=64 velocity=100 time=0
EXTRACT: note_off channel=9 note=42 velocity=100 time=0.16129025
EXTRACT: note_off channel=1 note=40 velocity=100 time=0.05376341666666667
EXTRACT: note_off channel=9 note=37 velocity=100 time=0
EXTRACT: note_on channel=9 note=42 velocity=100 time=0.10752683333333334
EXTRACT: note_off channel=4 note=64 velocity=100 time=0
EXTRACT: note_on channel=4 note=59 velocity=100 time=0
EXTRACT: note_off channel=9 note=42 velocity=100 time=0.16129025
EXTRACT: note_on channel=1 note=31 velocity=100 time=0.16129025
EXTRACT: note_on channel=9 note=35 velocity=100 time=0
EXTRACT: note_on channel=9 note=42 velocity=100 time=0
EXTRACT: note_off channel=4 note=59 velocity=100 time=0
EXTRACT: note_on channel=4 note=57 velocity=100 time=0
EXTRACT: note_off channel=9 note=42 velocity=100 time=0.16129025
EXTRACT: note_off channel=1 note=31 velocity=100 time=0.05376341666666667
EXTRACT: note_off channel=9 note=35 velocity=100 time=0
EXTRACT: note_on channel=1 note=47 velocity=100 time=0.10752683333333334
EXTRACT: note_on channel=1 note=33 velocity=100 time=0
EXTRACT: note_on channel=9 note=35 velocity=100 time=0
EXTRACT: note_on channel=9 note=42 velocity=100 time=0
EXTRACT: note_off channel=4 note=57 velocity=100 time=0
EXTRACT: note_on channel=4 note=47 velocity=100 time=0
EXTRACT: note_off channel=9 note=42 velocity=100 time=0.16129025
EXTRACT: note_off channel=1 note=33 velocity=100 time=0.05376341666666667
EXTRACT: note_off channel=9 note=35 velocity=100 time=0
EXTRACT: note_on channel=9 note=42 velocity=100 time=0.10752683333333334
EXTRACT: note_on channel=4 note=59 velocity=100 time=0
EXTRACT: note_off channel=9 note=42 velocity=100 time=0.16129025
EXTRACT: note_on channel=9 note=42 velocity=100 time=0.16129025
EXTRACT: note_off channel=4 note=59 velocity=100 time=0
EXTRACT: note_on channel=4 note=66 velocity=100 time=0
EXTRACT: note_off channel=9 note=42 velocity=100 time=0.16129025
EXTRACT: note_on channel=0 note=71 velocity=100 time=0.16129025
EXTRACT: note_on channel=9 note=37 velocity=100 time=0
EXTRACT: note_on channel=9 note=42 velocity=100 time=0
EXTRACT: note_off channel=4 note=66 velocity=64 time=0
EXTRACT: note_on channel=4 note=66 velocity=100 time=0
EXTRACT: note_off channel=1 note=47 velocity=64 time=0.11424726041666666
EXTRACT: note_off channel=4 note=47 velocity=64 time=0
EXTRACT: note_off channel=9 note=42 velocity=100 time=0.04704298958333333
EXTRACT: note_off channel=9 note=37 velocity=100 time=0.05376341666666667
EXTRACT: note_off channel=0 note=71 velocity=100 time=0.10752683333333334
EXTRACT: note_on channel=0 note=71 velocity=100 time=0
EXTRACT: note_on channel=9 note=42 velocity=100 time=0
EXTRACT: note_off channel=4 note=66 velocity=100 time=0
EXTRACT: note_on channel=4 note=59 velocity=100 time=0
EXTRACT: note_off channel=9 note=42 velocity=100 time=0.16129025
EXTRACT: note_off channel=0 note=71 velocity=100 time=0.16129025
EXTRACT: note_on channel=0 note=71 velocity=100 time=0
EXTRACT: note_on channel=1 note=33 velocity=100 time=0
EXTRACT: note_on channel=9 note=42 velocity=100 time=0
EXTRACT: note_off channel=4 note=59 velocity=100 time=0
EXTRACT: note_on channel=4 note=57 velocity=100 time=0
EXTRACT: note_off channel=9 note=42 velocity=100 time=0.16129025
EXTRACT: note_off channel=1 note=33 velocity=100 time=0.05376341666666667
EXTRACT: note_off channel=0 note=71 velocity=100 time=0.10752683333333334
EXTRACT: note_on channel=0 note=71 velocity=100 time=0
EXTRACT: note_on channel=1 note=40 velocity=100 time=0
EXTRACT: note_on channel=1 note=28 velocity=100 time=0
EXTRACT: note_on channel=9 note=35 velocity=100 time=0
EXTRACT: note_on channel=9 note=42 velocity=100 time=0
EXTRACT: note_off channel=4 note=57 velocity=100 time=0
EXTRACT: note_on channel=4 note=40 velocity=100 time=0
EXTRACT: note_off channel=9 note=42 velocity=100 time=0.16129025
EXTRACT: note_off channel=1 note=28 velocity=100 time=0.05376341666666667
EXTRACT: note_off channel=9 note=35 velocity=100 time=0
EXTRACT: note_off channel=0 note=71 velocity=100 time=0.10752683333333334
EXTRACT: note_on channel=0 note=67 velocity=100 time=0
EXTRACT: note_on channel=1 note=40 velocity=100 time=0
EXTRACT: note_on channel=9 note=42 velocity=100 time=0
EXTRACT: note_on channel=4 note=59 velocity=100 time=0
EXTRACT: note_off channel=9 note=42 velocity=100 time=0.16129025
EXTRACT: note_off channel=1 note=40 velocity=100 time=0.05376341666666667
EXTRACT: note_on channel=1 note=40 velocity=100 time=0.10752683333333334
EXTRACT: note_on channel=9 note=42 velocity=100 time=0
EXTRACT: note_off channel=4 note=59 velocity=100 time=0
EXTRACT: note_on channel=4 note=64 velocity=100 time=0
EXTRACT: note_off channel=9 note=42 velocity=100 time=0.16129025
EXTRACT: note_off channel=1 note=40 velocity=100 time=0.05376341666666667
EXTRACT: note_off channel=1 note=40 velocity=100 time=0
EXTRACT: note_off channel=4 note=40 velocity=100 time=0
EXTRACT: note_on channel=1 note=40 velocity=100 time=0.10752683333333334
EXTRACT: note_on channel=9 note=37 velocity=100 time=0
EXTRACT: note_on channel=9 note=42 velocity=100 time=0
EXTRACT: note_off channel=4 note=64 velocity=100 time=0
EXTRACT: note_on channel=4 note=64 velocity=100 time=0
EXTRACT: note_off channel=9 note=42 velocity=100 time=0.16129025
EXTRACT: note_off channel=1 note=40 velocity=100 time=0.05376341666666667
EXTRACT: note_off channel=9 note=37 velocity=100 time=0
EXTRACT: note_on channel=9 note=42 velocity=100 time=0.10752683333333334
EXTRACT: note_off channel=4 note=64 velocity=100 time=0
EXTRACT: note_on channel=4 note=59 velocity=100 time=0
EXTRACT: note_off channel=0 note=67 velocity=100 time=0.10752683333333334
EXTRACT: note_off channel=9 note=42 velocity=100 time=0.05376341666666667
EXTRACT: note_on channel=1 note=31 velocity=100 time=0.16129025
EXTRACT: note_on channel=9 note=35 velocity=100 time=0
EXTRACT: note_on channel=9 note=42 velocity=100 time=0
EXTRACT: note_off channel=4 note=59 velocity=64 time=0
EXTRACT: note_on channel=4 note=57 velocity=100 time=0
EXTRACT: note_off channel=9 note=42 velocity=100 time=0.16129025
EXTRACT: note_off channel=1 note=31 velocity=64 time=0.05376341666666667
EXTRACT: note_off channel=9 note=35 velocity=100 time=0
EXTRACT: note_on channel=1 note=47 velocity=100 time=0.10752683333333334
EXTRACT: note_on channel=1 note=33 velocity=100 time=0
EXTRACT: note_on channel=9 note=35 velocity=100 time=0
EXTRACT: note_on channel=9 note=42 velocity=100 time=0
EXTRACT: note_off channel=4 note=57 velocity=100 time=0
EXTRACT: note_on channel=4 note=47 velocity=100 time=0
EXTRACT: note_off channel=9 note=42 velocity=100 time=0.16129025
EXTRACT: note_off channel=1 note=33 velocity=100 time=0.05376341666666667
EXTRACT: note_off channel=9 note=35 velocity=100 time=0
EXTRACT: note_on channel=9 note=42 velocity=100 time=0.10752683333333334
EXTRACT: note_off channel=9 note=42 velocity=100 time=0.21505366666666667
EXTRACT: note_on channel=0 note=64 velocity=100 time=0.10752683333333334
EXTRACT: note_on channel=9 note=42 velocity=100 time=0
EXTRACT: note_off channel=9 note=42 velocity=100 time=0.21505366666666667
EXTRACT: note_off channel=0 note=64 velocity=100 time=0.10752683333333334
EXTRACT: note_on channel=0 note=67 velocity=100 time=0
EXTRACT: note_on channel=9 note=37 velocity=100 time=0
EXTRACT: note_on channel=9 note=42 velocity=100 time=0
EXTRACT: note_off channel=1 note=47 velocity=100 time=0.11424726041666666
EXTRACT: note_off channel=4 note=47 velocity=100 time=0
EXTRACT: note_off channel=9 note=37 velocity=100 time=0.10080640625000001
EXTRACT: note_off channel=9 note=42 velocity=100 time=0
EXTRACT: note_off channel=0 note=67 velocity=100 time=0.10752683333333334
EXTRACT: note_on channel=0 note=64 velocity=100 time=0
EXTRACT: note_on channel=9 note=42 velocity=100 time=0
EXTRACT: note_off channel=9 note=42 velocity=100 time=0.21505366666666667
EXTRACT: note_off channel=0 note=64 velocity=100 time=0.10752683333333334
EXTRACT: note_on channel=0 note=64 velocity=100 time=0
EXTRACT: note_on channel=1 note=33 velocity=100 time=0
EXTRACT: note_on channel=9 note=42 velocity=100 time=0
EXTRACT: note_off channel=9 note=42 velocity=100 time=0.16129025
EXTRACT: note_off channel=1 note=33 velocity=100 time=0.05376341666666667
EXTRACT: note_off channel=0 note=64 velocity=100 time=0.10752683333333334
EXTRACT: note_on channel=0 note=64 velocity=100 time=0
EXTRACT: note_on channel=0 note=28 velocity=100 time=0
EXTRACT: note_on channel=1 note=28 velocity=100 time=0
EXTRACT: note_on channel=9 note=35 velocity=100 time=0
EXTRACT: note_on channel=9 note=42 velocity=100 time=0
EXTRACT: note_on channel=1 note=40 velocity=100 time=0.16129025
EXTRACT: note_off channel=9 note=42 velocity=100 time=0
EXTRACT: note_on channel=4 note=40 velocity=100 time=0
EXTRACT: note_off channel=0 note=28 velocity=100 time=0.05376341666666667
EXTRACT: note_off channel=1 note=28 velocity=100 time=0
EXTRACT: note_off channel=9 note=35 velocity=100 time=0
EXTRACT: note_off channel=0 note=64 velocity=100 time=0.10752683333333334
EXTRACT: note_on channel=0 note=67 velocity=100 time=0
EXTRACT: note_on channel=1 note=40 velocity=100 time=0
EXTRACT: note_on channel=9 note=42 velocity=100 time=0
EXTRACT: note_on channel=4 note=59 velocity=100 time=0
EXTRACT: note_off channel=9 note=42 velocity=100 time=0.16129025
EXTRACT: note_off channel=1 note=40 velocity=100 time=0.05376341666666667
EXTRACT: note_on channel=1 note=40 velocity=100 time=0.10752683333333334
EXTRACT: note_on channel=9 note=42 velocity=100 time=0
EXTRACT: note_off channel=4 note=59 velocity=100 time=0
EXTRACT: note_on channel=4 note=64 velocity=100 time=0
EXTRACT: note_off channel=9 note=42 velocity=100 time=0.16129025
EXTRACT: note_off channel=1 note=40 velocity=64 time=0.05376341666666667
EXTRACT: note_off channel=1 note=40 velocity=100 time=0
EXTRACT: note_off channel=4 note=40 velocity=64 time=0
EXTRACT: note_on channel=1 note=40 velocity=100 time=0.10752683333333334
EXTRACT: note_on channel=9 note=37 velocity=100 time=0
EXTRACT: note_on channel=9 note=42 velocity=100 time=0
EXTRACT: note_off channel=4 note=64 velocity=100 time=0
EXTRACT: note_on channel=4 note=64 velocity=100 time=0
EXTRACT: note_off channel=9 note=42 velocity=100 time=0.16129025
EXTRACT: note_off channel=0 note=67 velocity=100 time=0.05376341666666667
EXTRACT: note_off channel=1 note=40 velocity=100 time=0
EXTRACT: note_off channel=9 note=37 velocity=100 time=0
EXTRACT: note_on channel=9 note=42 velocity=100 time=0.10752683333333334
EXTRACT: note_off channel=4 note=64 velocity=100 time=0
EXTRACT: note_on channel=4 note=59 velocity=100 time=0
EXTRACT: note_off channel=9 note=42 velocity=100 time=0.16129025
EXTRACT: note_on channel=1 note=31 velocity=100 time=0.16129025
EXTRACT: note_on channel=9 note=35 velocity=100 time=0
EXTRACT: note_on channel=9 note=42 velocity=100 time=0
EXTRACT: note_off channel=4 note=59 velocity=100 time=0
EXTRACT: note_on channel=4 note=57 velocity=100 time=0
EXTRACT: note_off channel=9 note=42 velocity=100 time=0.16129025
EXTRACT: note_off channel=1 note=31 velocity=100 time=0.05376341666666667
EXTRACT: note_off channel=9 note=35 velocity=100 time=0
EXTRACT: note_on channel=0 note=59 velocity=100 time=0.10752683333333334
EXTRACT: note_on channel=1 note=47 velocity=100 time=0
EXTRACT: note_on channel=1 note=33 velocity=100 time=0
EXTRACT: note_on channel=9 note=35 velocity=100 time=0
EXTRACT: note_on channel=9 note=42 velocity=100 time=0
EXTRACT: note_off channel=4 note=57 velocity=100 time=0
EXTRACT: note_on channel=4 note=47 velocity=100 time=0
EXTRACT: note_off channel=9 note=42 velocity=100 time=0.16129025
EXTRACT: note_off channel=1 note=33 velocity=100 time=0.05376341666666667
EXTRACT: note_off channel=9 note=35 velocity=100 time=0
EXTRACT: note_on channel=0 note=60 velocity=100 time=0.10752683333333334
EXTRACT: note_on channel=9 note=35 velocity=100 time=0
EXTRACT: note_on channel=9 note=42 velocity=100 time=0
EXTRACT: note_on channel=4 note=59 velocity=100 time=0
EXTRACT: note_off channel=0 note=59 velocity=100 time=0.10752683333333334
EXTRACT: note_off channel=9 note=42 velocity=100 time=0.05376341666666667
EXTRACT: note_off channel=0 note=60 velocity=100 time=0.05376341666666667
EXTRACT: note_off channel=9 note=35 velocity=100 time=0
EXTRACT: note_on channel=0 note=62 velocity=100 time=0.10752683333333334
EXTRACT: note_on channel=9 note=35 velocity=100 time=0
EXTRACT: note_on channel=9 note=42 velocity=100 time=0
EXTRACT: note_off channel=4 note=59 velocity=100 time=0
EXTRACT: note_on channel=4 note=66 velocity=100 time=0
EXTRACT: note_off channel=9 note=42 velocity=100 time=0.16129025
EXTRACT: note_off channel=9 note=35 velocity=100 time=0.05376341666666667
EXTRACT: note_off channel=0 note=62 velocity=100 time=0.10752683333333334
EXTRACT: note_on channel=0 note=62 velocity=100 time=0
EXTRACT: note_on channel=9 note=35 velocity=100 time=0
EXTRACT: note_on channel=9 note=37 velocity=100 time=0
EXTRACT: note_on channel=9 note=42 velocity=100 time=0
EXTRACT: note_off channel=4 note=66 velocity=64 time=0
EXTRACT: note_on channel=4 note=66 velocity=100 time=0
EXTRACT: note_off channel=1 note=47 velocity=64 time=0.11424726041666666
EXTRACT: note_off channel=4 note=47 velocity=64 time=0
EXTRACT: note_off channel=9 note=42 velocity=100 time=0.04704298958333333
EXTRACT: note_off channel=0 note=62 velocity=100 time=0.05376341666666667
EXTRACT: note_off channel=9 note=35 velocity=100 time=0
EXTRACT: note_off channel=9 note=37 velocity=100 time=0
EXTRACT: note_on channel=0 note=64 velocity=100 time=0.10752683333333334
EXTRACT: note_on channel=9 note=35 velocity=100 time=0
EXTRACT: note_on channel=9 note=42 velocity=100 time=0
EXTRACT: note_off channel=4 note=66 velocity=100 time=0
EXTRACT: note_on channel=4 note=59 velocity=100 time=0
EXTRACT: note_off channel=0 note=64 velocity=100 time=0.21505366666666667
EXTRACT: note_off channel=9 note=35 velocity=100 time=0
EXTRACT: note_off channel=9 note=42 velocity=100 time=0
EXTRACT: note_on channel=0 note=67 velocity=100 time=0.10752683333333334
EXTRACT: note_on channel=1 note=33 velocity=100 time=0
EXTRACT: note_on channel=9 note=35 velocity=100 time=0
EXTRACT: note_on channel=9 note=42 velocity=100 time=0
EXTRACT: note_off channel=4 note=59 velocity=100 time=0
EXTRACT: note_on channel=4 note=57 velocity=100 time=0
EXTRACT: note_off channel=0 note=67 velocity=100 time=0.21505366666666667
EXTRACT: note_off channel=1 note=33 velocity=100 time=0
EXTRACT: note_off channel=9 note=35 velocity=100 time=0
EXTRACT: note_off channel=9 note=42 velocity=100 time=0
EXTRACT: note_on channel=0 note=67 velocity=100 time=0.10752683333333334
EXTRACT: note_on channel=1 note=40 velocity=100 time=0
EXTRACT: note_on channel=1 note=28 velocity=100 time=0
EXTRACT: note_on channel=9 note=53 velocity=100 time=0
EXTRACT: note_on channel=9 note=35 velocity=100 time=0
EXTRACT: note_on channel=9 note=42 velocity=100 time=0
EXTRACT: note_off channel=4 note=57 velocity=100 time=0
EXTRACT: note_on channel=4 note=40 velocity=100 time=0
EXTRACT: note_on channel=6 note=76 velocity=100 time=0
EXTRACT: note_on channel=6 note=83 velocity=100 time=0
EXTRACT: note_on channel=6 note=64 velocity=100 time=0
EXTRACT: note_on channel=6 note=71 velocity=100 time=0
EXTRACT: note_off channel=9 note=53 velocity=100 time=0.10752683333333334
EXTRACT: note_off channel=9 note=42 velocity=100 time=0.05376341666666667
EXTRACT: note_off channel=1 note=28 velocity=100 time=0.05376341666666667
EXTRACT: note_off channel=9 note=35 velocity=100 time=0
EXTRACT: note_on channel=1 note=40 velocity=100 time=0.10752683333333334
EXTRACT: note_on channel=9 note=42 velocity=100 time=0
EXTRACT: note_on channel=4 note=59 velocity=100 time=0
EXTRACT: note_off channel=0 note=67 velocity=100 time=0.10752683333333334
EXTRACT: note_off channel=9 note=42 velocity=100 time=0.05376341666666667
EXTRACT: note_off channel=1 note=40 velocity=100 time=0.05376341666666667
EXTRACT: note_on channel=0 note=64 velocity=100 time=0.10752683333333334
EXTRACT: note_on channel=1 note=40 velocity=100 time=0
EXTRACT: note_on channel=9 note=53 velocity=100 time=0
EXTRACT: note_on channel=9 note=42 velocity=100 time=0
EXTRACT: note_off channel=4 note=59 velocity=100 time=0
EXTRACT: note_on channel=4 note=64 velocity=100 time=0
EXTRACT: note_off channel=9 note=53 velocity=100 time=0.10752683333333334
EXTRACT: note_off channel=9 note=42 velocity=100 time=0.05376341666666667
EXTRACT: note_off channel=1 note=40 velocity=100 time=0.05376341666666667
EXTRACT: note_off channel=1 note=40 velocity=100 time=0
EXTRACT: note_off channel=4 note=40 velocity=100 time=0
EXTRACT: note_on channel=1 note=40 velocity=100 time=0.10752683333333334
EXTRACT: note_on channel=9 note=55 velocity=100 time=0
EXTRACT: note_on channel=9 note=37 velocity=100 time=0
EXTRACT: note_on channel=9 note=42 velocity=100 time=0
EXTRACT: note_off channel=4 note=64 velocity=100 time=0
EXTRACT: note_on channel=4 note=64 velocity=100 time=0
EXTRACT: note_off channel=0 note=64 velocity=100 time=0.10752683333333334
EXTRACT: note_off channel=9 note=55 velocity=100 time=0
EXTRACT: note_off channel=9 note=42 velocity=100 time=0.05376341666666667
EXTRACT: note_off channel=1 note=40 velocity=100 time=0.05376341666666667
EXTRACT: note_off channel=9 note=37 velocity=100 time=0
EXTRACT: note_on channel=0 note=71 velocity=100 time=0.10752683333333334
EXTRACT: note_on channel=9 note=42 velocity=100 time=0
EXTRACT: note_off channel=4 note=64 velocity=100 time=0
EXTRACT: note_on channel=4 note=59 velocity=100 time=0
EXTRACT: note_off channel=9 note=42 velocity=100 time=0.16129025
EXTRACT: note_on channel=0 note=69 velocity=100 time=0.16129025
EXTRACT: note_on channel=1 note=31 velocity=100 time=0
EXTRACT: note_on channel=9 note=53 velocity=100 time=0
EXTRACT: note_on channel=9 note=35 velocity=100 time=0
EXTRACT: note_on channel=9 note=42 velocity=100 time=0
EXTRACT: note_off channel=4 note=59 velocity=64 time=0
EXTRACT: note_on channel=4 note=57 velocity=100 time=0
EXTRACT: note_off channel=0 note=71 velocity=100 time=0.10752683333333334
EXTRACT: note_off channel=9 note=53 velocity=100 time=0
EXTRACT: note_off channel=9 note=42 velocity=100 time=0.05376341666666667
EXTRACT: note_off channel=1 note=31 velocity=100 time=0.05376341666666667
EXTRACT: note_off channel=9 note=35 velocity=100 time=0
EXTRACT: note_on channel=0 note=71 velocity=100 time=0.10752683333333334
EXTRACT: note_on channel=1 note=47 velocity=100 time=0
EXTRACT: note_on channel=1 note=33 velocity=100 time=0
EXTRACT: note_on channel=9 note=53 velocity=100 time=0
EXTRACT: note_on channel=9 note=35 velocity=100 time=0
EXTRACT: note_on channel=9 note=42 velocity=100 time=0
EXTRACT: note_off channel=4 note=57 velocity=100 time=0
EXTRACT: note_on channel=4 note=47 velocity=100 time=0
EXTRACT: note_off channel=0 note=69 velocity=100 time=0.10752683333333334
EXTRACT: note_off channel=9 note=53 velocity=100 time=0
EXTRACT: note_off channel=9 note=42 velocity=100 time=0.05376341666666667
EXTRACT: note_off channel=1 note=33 velocity=64 time=0.05376341666666667
EXTRACT: note_off channel=9 note=35 velocity=100 time=0
EXTRACT: note_on channel=0 note=67 velocity=100 time=0.10752683333333334
EXTRACT: note_on channel=9 note=53 velocity=100 time=0
EXTRACT: note_on channel=9 note=35 velocity=100 time=0
EXTRACT: note_on channel=9 note=42 velocity=100 time=0
EXTRACT: note_on channel=4 note=59 velocity=100 time=0
EXTRACT: note_off channel=0 note=71 velocity=100 time=0.10752683333333334
EXTRACT: note_off channel=9 note=53 velocity=100 time=0
EXTRACT: note_off channel=9 note=42 velocity=100 time=0.05376341666666667
EXTRACT: note_off channel=9 note=35 velocity=100 time=0.05376341666666667
EXTRACT: note_on channel=9 note=53 velocity=100 time=0.10752683333333334
EXTRACT: note_on channel=9 note=35 velocity=100 time=0
EXTRACT: note_on channel=9 note=42 velocity=100 time=0
EXTRACT: note_off channel=4 note=59 velocity=100 time=0
EXTRACT: note_on channel=4 note=66 velocity=100 time=0
EXTRACT: note_off channel=0 note=67 velocity=100 time=0.10752683333333334
EXTRACT: note_off channel=9 note=53 velocity=100 time=0
EXTRACT: note_off channel=9 note=42 velocity=100 time=0.05376341666666667
EXTRACT: note_off channel=9 note=35 velocity=100 time=0.05376341666666667
EXTRACT: note_on channel=9 note=55 velocity=100 time=0.10752683333333334
EXTRACT: note_on channel=9 note=37 velocity=100 time=0
EXTRACT: note_on channel=9 note=42 velocity=100 time=0
EXTRACT: note_off channel=4 note=66 velocity=100 time=0
EXTRACT: note_on channel=4 note=66 velocity=100 time=0
EXTRACT: note_off channel=9 note=55 velocity=100 time=0.10752683333333334
EXTRACT: note_off channel=1 note=47 velocity=100 time=0.0067204270833333335
EXTRACT: note_off channel=4 note=47 velocity=100 time=0
EXTRACT: note_off channel=9 note=42 velocity=100 time=0.04704298958333333
EXTRACT: note_off channel=9 note=37 velocity=100 time=0.05376341666666667
EXTRACT: note_on channel=9 note=42 velocity=100 time=0.10752683333333334
EXTRACT: note_off channel=4 note=66 velocity=100 time=0
EXTRACT: note_on channel=4 note=59 velocity=100 time=0
EXTRACT: note_off channel=9 note=42 velocity=100 time=0.16129025
EXTRACT: note_on channel=0 note=62 velocity=100 time=0.16129025
EXTRACT: note_on channel=1 note=33 velocity=100 time=0
EXTRACT: note_on channel=9 note=42 velocity=100 time=0
EXTRACT: note_off channel=4 note=59 velocity=100 time=0
EXTRACT: note_on channel=4 note=57 velocity=100 time=0
EXTRACT: note_off channel=9 note=42 velocity=100 time=0.16129025
EXTRACT: note_off channel=1 note=33 velocity=100 time=0.05376341666666667
EXTRACT: note_off channel=0 note=62 velocity=64 time=0.10752683333333334
EXTRACT: note_on channel=0 note=64 velocity=100 time=0
EXTRACT: note_on channel=1 note=40 velocity=100 time=0
EXTRACT: note_on channel=1 note=28 velocity=100 time=0
EXTRACT: note_on channel=9 note=53 velocity=100 time=0
EXTRACT: note_on channel=9 note=35 velocity=100 time=0
EXTRACT: note_on channel=9 note=42 velocity=100 time=0
EXTRACT: note_off channel=4 note=57 velocity=100 time=0
EXTRACT: note_on channel=4 note=40 velocity=100 time=0
EXTRACT: note_off channel=9 note=53 velocity=100 time=0.10752683333333334
EXTRACT: note_off channel=9 note=42 velocity=100 time=0.05376341666666667
EXTRACT: note_off channel=1 note=28 velocity=100 time=0.05376341666666667
EXTRACT: note_off channel=9 note=35 velocity=100 time=0
EXTRACT: note_on channel=1 note=40 velocity=100 time=0.10752683333333334
EXTRACT: note_on channel=9 note=42 velocity=100 time=0
EXTRACT: note_on channel=4 note=59 velocity=100 time=0
EXTRACT: note_off channel=0 note=64 velocity=100 time=0.10752683333333334
EXTRACT: note_off channel=9 note=42 velocity=100 time=0.05376341666666667
EXTRACT: note_off channel=1 note=40 velocity=100 time=0.05376341666666667
EXTRACT: note_on channel=1 note=40 velocity=100 time=0.10752683333333334
EXTRACT: note_on channel=9 note=53 velocity=100 time=0
EXTRACT: note_on channel=9 note=42 velocity=100 time=0
EXTRACT: note_off channel=4 note=59 velocity=100 time=0
EXTRACT: note_on channel=4 note=64 velocity=100 time=0
EXTRACT: note_off channel=9 note=53 velocity=100 time=0.10752683333333334
EXTRACT: note_off channel=9 note=42 velocity=100 time=0.05376341666666667
EXTRACT: note_off channel=1 note=40 velocity=100 time=0.05376341666666667
EXTRACT: note_off channel=1 note=40 velocity=100 time=0
EXTRACT: note_off channel=4 note=40 velocity=100 time=0
EXTRACT: note_on channel=1 note=40 velocity=100 time=0.10752683333333334
EXTRACT: note_on channel=9 note=55 velocity=100 time=0
EXTRACT: note_on channel=9 note=37 velocity=100 time=0
EXTRACT: note_on channel=9 note=42 velocity=100 time=0
EXTRACT: note_off channel=4 note=64 velocity=100 time=0
EXTRACT: note_on channel=4 note=64 velocity=100 time=0
EXTRACT: note_off channel=9 note=55 velocity=100 time=0.10752683333333334
EXTRACT: note_off channel=9 note=42 velocity=100 time=0.05376341666666667
EXTRACT: note_off channel=1 note=40 velocity=100 time=0.05376341666666667
EXTRACT: note_off channel=9 note=37 velocity=100 time=0
EXTRACT: note_on channel=9 note=42 velocity=100 time=0.10752683333333334
EXTRACT: note_off channel=4 note=64 velocity=100 time=0
EXTRACT: note_on channel=4 note=59 velocity=100 time=0
EXTRACT: note_on channel=0 note=64 velocity=100 time=0.16129025
EXTRACT: note_off channel=9 note=42 velocity=100 time=0
EXTRACT: note_on channel=1 note=31 velocity=100 time=0.16129025
EXTRACT: note_on channel=9 note=53 velocity=100 time=0
EXTRACT: note_on channel=9 note=35 velocity=100 time=0
EXTRACT: note_on channel=9 note=42 velocity=100 time=0
EXTRACT: note_off channel=4 note=59 velocity=64 time=0
EXTRACT: note_on channel=4 note=57 velocity=100 time=0
EXTRACT: note_off channel=9 note=53 velocity=100 time=0.10752683333333334
EXTRACT: note_off channel=9 note=42 velocity=100 time=0.05376341666666667
EXTRACT: note_off channel=1 note=31 velocity=100 time=0.05376341666666667
EXTRACT: note_off channel=9 note=35 velocity=100 time=0
EXTRACT: note_off channel=0 note=64 velocity=100 time=0.05376341666666667
EXTRACT: note_on channel=0 note=67 velocity=100 time=0.05376341666666667
EXTRACT: note_on channel=1 note=47 velocity=100 time=0
EXTRACT: note_on channel=1 note=33 velocity=100 time=0
EXTRACT: note_on channel=9 note=53 velocity=100 time=0
EXTRACT: note_on channel=9 note=35 velocity=100 time=0
EXTRACT: note_on channel=9 note=42 velocity=100 time=0
EXTRACT: note_off channel=4 note=57 velocity=100 time=0
EXTRACT: note_on channel=4 note=47 velocity=100 time=0
EXTRACT: note_off channel=9 note=53 velocity=100 time=0.10752683333333334
EXTRACT: note_off channel=9 note=42 velocity=100 time=0.05376341666666667
EXTRACT: note_off channel=1 note=33 velocity=100 time=0.05376341666666667
EXTRACT: note_off channel=9 note=35 velocity=100 time=0
EXTRACT: note_on channel=9 note=53 velocity=100 time=0.10752683333333334
EXTRACT: note_on channel=9 note=35 velocity=100 time=0
EXTRACT: note_on channel=9 note=42 velocity=100 time=0
EXTRACT: note_on channel=4 note=59 velocity=100 time=0
EXTRACT: note_off channel=0 note=67 velocity=100 time=0.10752683333333334
EXTRACT: note_off channel=9 note=53 velocity=100 time=0
EXTRACT: note_off channel=9 note=42 velocity=100 time=0.05376341666666667
EXTRACT: note_off channel=9 note=35 velocity=100 time=0.05376341666666667
EXTRACT: note_on channel=0 note=62 velocity=100 time=0.10752683333333334
EXTRACT: note_on channel=9 note=53 velocity=100 time=0
EXTRACT: note_on channel=9 note=35 velocity=100 time=0
EXTRACT: note_on channel=9 note=42 velocity=100 time=0
EXTRACT: note_off channel=4 note=59 velocity=100 time=0
EXTRACT: note_on channel=4 note=66 velocity=100 time=0
EXTRACT: note_off channel=9 note=53 velocity=100 time=0.10752683333333334
EXTRACT: note_off channel=9 note=42 velocity=100 time=0.05376341666666667
EXTRACT: note_off channel=0 note=62 velocity=100 time=0.05376341666666667
EXTRACT: note_off channel=9 note=35 velocity=100 time=0
EXTRACT: note_on channel=0 note=64 velocity=100 time=0.10752683333333334
EXTRACT: note_on channel=9 note=55 velocity=100 time=0
EXTRACT: note_on channel=9 note=35 velocity=100 time=0
EXTRACT: note_on channel=9 note=37 velocity=100 time=0
EXTRACT: note_on channel=9 note=42 velocity=100 time=0
EXTRACT: note_off channel=4 note=66 velocity=100 time=0
EXTRACT: note_on channel=4 note=66 velocity=100 time=0
EXTRACT: note_off channel=9 note=55 velocity=100 time=0.10752683333333334
EXTRACT: note_off channel=1 note=47 velocity=64 time=0.0067204270833333335
EXTRACT: note_off channel=4 note=47 velocity=64 time=0
EXTRACT: note_off channel=9 note=42 velocity=100 time=0.04704298958333333
EXTRACT: note_off channel=9 note=35 velocity=100 time=0.05376341666666667
EXTRACT: note_off channel=9 note=37 velocity=100 time=0
EXTRACT: note_on channel=9 note=42 velocity=100 time=0.10752683333333334
EXTRACT: note_off channel=4 note=66 velocity=100 time=0
EXTRACT: note_on channel=4 note=59 velocity=100 time=0
EXTRACT: note_off channel=0 note=64 velocity=100 time=0.10752683333333334
EXTRACT: note_off channel=9 note=42 velocity=100 time=0.05376341666666667
EXTRACT: note_on channel=0 note=66 velocity=100 time=0.16129025
EXTRACT: note_on channel=1 note=33 velocity=100 time=0
EXTRACT: note_on channel=9 note=42 velocity=100 time=0
EXTRACT: note_off channel=4 note=59 velocity=100 time=0
EXTRACT: note_on channel=4 note=57 velocity=100 time=0
EXTRACT: note_off channel=9 note=42 velocity=100 time=0.16129025
EXTRACT: note_off channel=0 note=66 velocity=100 time=0.05376341666666667
EXTRACT: note_off channel=1 note=33 velocity=64 time=0
EXTRACT: note_on channel=0 note=67 velocity=100 time=0.10752683333333334
EXTRACT: note_on channel=1 note=40 velocity=100 time=0
EXTRACT: note_on channel=1 note=28 velocity=100 time=0
EXTRACT: note_on channel=9 note=35 velocity=100 time=0
EXTRACT: note_on channel=9 note=42 velocity=100 time=0
EXTRACT: note_off channel=4 note=57 velocity=100 time=0
EXTRACT: note_on channel=4 note=40 velocity=100 time=0
EXTRACT: note_off channel=9 note=42 velocity=100 time=0.16129025
EXTRACT: note_off channel=1 note=28 velocity=100 time=0.05376341666666667
EXTRACT: note_off channel=9 note=35 velocity=100 time=0
EXTRACT: note_on channel=1 note=40 velocity=100 time=0.10752683333333334
EXTRACT: note_on channel=1 note=40 velocity=100 time=0
EXTRACT: note_on channel=9 note=42 velocity=100 time=0
EXTRACT: note_on channel=9 note=42 velocity=100 time=0
EXTRACT: note_on channel=4 note=64 velocity=100 time=0
EXTRACT: note_on channel=4 note=59 velocity=100 time=0
EXTRACT: note_off channel=0 note=67 velocity=100 time=0.10752683333333334
EXTRACT: note_off channel=9 note=42 velocity=100 time=0.05376341666666667
EXTRACT: note_off channel=9 note=42 velocity=100 time=0
EXTRACT: note_off channel=1 note=40 velocity=100 time=0.05376341666666667
EXTRACT: note_off channel=1 note=40 velocity=100 time=0
EXTRACT: note_on channel=0 note=64 velocity=100 time=0.10752683333333334
EXTRACT: note_on channel=1 note=40 velocity=100 time=0
EXTRACT: note_on channel=9 note=42 velocity=100 time=0
EXTRACT: note_off channel=4 note=64 velocity=100 time=0
EXTRACT: note_off channel=4 note=59 velocity=100 time=0
EXTRACT: note_on channel=4 note=64 velocity=100 time=0
EXTRACT: note_off channel=9 note=42 velocity=100 time=0.16129025
EXTRACT: note_off channel=1 note=40 velocity=64 time=0.05376341666666667
EXTRACT: note_off channel=1 note=40 velocity=100 time=0
EXTRACT: note_off channel=4 note=40 velocity=64 time=0
EXTRACT: note_on channel=1 note=40 velocity=100 time=0.10752683333333334
EXTRACT: note_on channel=9 note=37 velocity=100 time=0
EXTRACT: note_on channel=9 note=42 velocity=100 time=0
EXTRACT: note_off channel=4 note=64 velocity=100 time=0
EXTRACT: note_on channel=4 note=64 velocity=100 time=0
EXTRACT: note_off channel=0 note=64 velocity=100 time=0.10752683333333334
EXTRACT: note_off channel=1 note=40 velocity=100 time=0.10752683333333334
EXTRACT: note_off channel=9 note=37 velocity=100 time=0
EXTRACT: note_off channel=9 note=42 velocity=100 time=0
EXTRACT: note_on channel=0 note=71 velocity=100 time=0.10752683333333334
EXTRACT: note_on channel=9 note=42 velocity=100 time=0
EXTRACT: note_off channel=4 note=64 velocity=100 time=0
EXTRACT: note_on channel=4 note=59 velocity=100 time=0
EXTRACT: note_off channel=9 note=42 velocity=100 time=0.16129025
EXTRACT: note_on channel=0 note=69 velocity=100 time=0.16129025
EXTRACT: note_on channel=1 note=31 velocity=100 time=0
EXTRACT: note_on channel=9 note=35 velocity=100 time=0
EXTRACT: note_on channel=9 note=42 velocity=100 time=0
EXTRACT: note_off channel=4 note=59 velocity=100 time=0
EXTRACT: note_on channel=4 note=57 velocity=100 time=0
EXTRACT: note_off channel=0 note=71 velocity=100 time=0.10752683333333334
EXTRACT: note_off channel=9 note=42 velocity=100 time=0.05376341666666667
EXTRACT: note_off channel=1 note=31 velocity=100 time=0.05376341666666667
EXTRACT: note_off channel=9 note=35 velocity=100 time=0
EXTRACT: note_on channel=0 note=71 velocity=100 time=0.10752683333333334
EXTRACT: note_on channel=1 note=47 velocity=100 time=0
EXTRACT: note_on channel=1 note=33 velocity=100 time=0
EXTRACT: note_on channel=9 note=35 velocity=100 time=0
EXTRACT: note_on channel=9 note=42 velocity=100 time=0
EXTRACT: note_off channel=4 note=57 velocity=100 time=0
EXTRACT: note_on channel=4 note=47 velocity=100 time=0
EXTRACT: note_off channel=0 note=69 velocity=100 time=0.10752683333333334
EXTRACT: note_off channel=9 note=42 velocity=100 time=0.05376341666666667
EXTRACT: note_off channel=1 note=33 velocity=100 time=0.05376341666666667
EXTRACT: note_off channel=9 note=35 velocity=100 time=0
EXTRACT: note_on channel=0 note=67 velocity=100 time=0.10752683333333334
EXTRACT: note_on channel=9 note=35 velocity=100 time=0
EXTRACT: note_on channel=9 note=42 velocity=100 time=0
EXTRACT: note_on channel=4 note=59 velocity=100 time=0
EXTRACT: note_off channel=0 note=71 velocity=100 time=0.10752683333333334
EXTRACT: note_off channel=9 note=42 velocity=100 time=0.05376341666666667
EXTRACT: note_off channel=9 note=35 velocity=100 time=0.05376341666666667
EXTRACT: note_on channel=9 note=35 velocity=100 time=0.10752683333333334
EXTRACT: note_on channel=9 note=42 velocity=100 time=0
EXTRACT: note_off channel=4 note=59 velocity=100 time=0
EXTRACT: note_on channel=4 note=66 velocity=100 time=0
EXTRACT: note_off channel=0 note=67 velocity=100 time=0.10752683333333334
EXTRACT: note_off channel=9 note=42 velocity=100 time=0.05376341666666667
EXTRACT: note_off channel=9 note=35 velocity=100 time=0.05376341666666667
EXTRACT: note_on channel=9 note=37 velocity=100 time=0.10752683333333334
EXTRACT: note_on channel=9 note=42 velocity=100 time=0
EXTRACT: note_off channel=4 note=66 velocity=64 time=0
EXTRACT: note_on channel=4 note=66 velocity=100 time=0
EXTRACT: note_off channel=1 note=47 velocity=64 time=0.11424726041666666
EXTRACT: note_off channel=4 note=47 velocity=64 time=0
EXTRACT: note_off channel=9 note=42 velocity=100 time=0.04704298958333333
EXTRACT: note_off channel=9 note=37 velocity=100 time=0.05376341666666667
EXTRACT: note_on channel=9 note=42 velocity=100 time=0.10752683333333334
EXTRACT: note_off channel=4 note=66 velocity=100 time=0
EXTRACT: note_on channel=4 note=59 velocity=100 time=0
EXTRACT: note_off channel=9 note=42 velocity=100 time=0.16129025
EXTRACT: note_on channel=0 note=62 velocity=100 time=0.16129025
EXTRACT: note_on channel=1 note=33 velocity=100 time=0
EXTRACT: note_on channel=9 note=42 velocity=100 time=0
EXTRACT: note_off channel=4 note=59 velocity=100 time=0
EXTRACT: note_on channel=4 note=57 velocity=100 time=0
EXTRACT: note_off channel=9 note=42 velocity=100 time=0.16129025
EXTRACT: note_off channel=1 note=33 velocity=100 time=0.05376341666666667
EXTRACT: note_off channel=0 note=62 velocity=64 time=0.10752683333333334
EXTRACT: note_on channel=0 note=64 velocity=100 time=0
EXTRACT: note_on channel=1 note=40 velocity=100 time=0
EXTRACT: note_on channel=1 note=28 velocity=100 time=0
EXTRACT: note_on channel=9 note=35 velocity=100 time=0
EXTRACT: note_on channel=9 note=42 velocity=100 time=0
EXTRACT: note_off channel=4 note=57 velocity=100 time=0
EXTRACT: note_on channel=4 note=40 velocity=100 time=0
EXTRACT: note_off channel=6 note=64 velocity=64 time=0
EXTRACT: note_off channel=6 note=71 velocity=64 time=0
EXTRACT: note_off channel=6 note=76 velocity=64 time=0
EXTRACT: note_off channel=6 note=83 velocity=64 time=0
EXTRACT: note_off channel=9 note=42 velocity=100 time=0.16129025
EXTRACT: note_off channel=1 note=28 velocity=100 time=0.05376341666666667
EXTRACT: note_off channel=9 note=35 velocity=100 time=0
EXTRACT: note_on channel=1 note=40 velocity=100 time=0.10752683333333334
EXTRACT: note_on channel=9 note=42 velocity=100 time=0
EXTRACT: note_on channel=4 note=59 velocity=100 time=0
EXTRACT: note_off channel=0 note=64 velocity=100 time=0.10752683333333334
EXTRACT: note_off channel=9 note=42 velocity=100 time=0.05376341666666667
EXTRACT: note_off channel=1 note=40 velocity=100 time=0.05376341666666667
EXTRACT: note_on channel=1 note=40 velocity=100 time=0.10752683333333334
EXTRACT: note_on channel=9 note=42 velocity=100 time=0
EXTRACT: note_off channel=4 note=59 velocity=100 time=0
EXTRACT: note_on channel=4 note=64 velocity=100 time=0
EXTRACT: note_off channel=9 note=42 velocity=100 time=0.16129025
EXTRACT: note_off channel=1 note=40 velocity=100 time=0.05376341666666667
EXTRACT: note_off channel=1 note=40 velocity=100 time=0
EXTRACT: note_off channel=4 note=40 velocity=100 time=0
EXTRACT: note_on channel=1 note=40 velocity=100 time=0.10752683333333334
EXTRACT: note_on channel=9 note=37 velocity=100 time=0
EXTRACT: note_on channel=9 note=42 velocity=100 time=0
EXTRACT: note_off channel=4 note=64 velocity=100 time=0
EXTRACT: note_on channel=4 note=64 velocity=100 time=0
EXTRACT: note_off channel=9 note=42 velocity=100 time=0.16129025
EXTRACT: note_off channel=1 note=40 velocity=100 time=0.05376341666666667
EXTRACT: note_off channel=9 note=37 velocity=100 time=0
EXTRACT: note_on channel=9 note=42 velocity=100 time=0.10752683333333334
EXTRACT: note_off channel=4 note=64 velocity=100 time=0
EXTRACT: note_on channel=4 note=59 velocity=100 time=0
EXTRACT: note_on channel=0 note=64 velocity=100 time=0.16129025
EXTRACT: note_off channel=9 note=42 velocity=100 time=0
EXTRACT: note_on channel=1 note=31 velocity=100 time=0.16129025
EXTRACT: note_on channel=9 note=35 velocity=100 time=0
EXTRACT: note_on channel=9 note=42 velocity=100 time=0
EXTRACT: note_off channel=4 note=59 velocity=64 time=0
EXTRACT: note_on channel=4 note=57 velocity=100 time=0
EXTRACT: note_off channel=9 note=42 velocity=100 time=0.16129025
EXTRACT: note_off channel=1 note=31 velocity=100 time=0.05376341666666667
EXTRACT: note_off channel=9 note=35 velocity=100 time=0
EXTRACT: note_off channel=0 note=64 velocity=100 time=0.05376341666666667
EXTRACT: note_on channel=0 note=67 velocity=100 time=0.05376341666666667
EXTRACT: note_on channel=1 note=47 velocity=100 time=0
EXTRACT: note_on channel=1 note=33 velocity=100 time=0
EXTRACT: note_on channel=9 note=35 velocity=100 time=0
EXTRACT: note_on channel=9 note=42 velocity=100 time=0
EXTRACT: note_off channel=4 note=57 velocity=100 time=0
EXTRACT: note_on channel=4 note=47 velocity=100 time=0
EXTRACT: note_off channel=9 note=42 velocity=100 time=0.16129025
EXTRACT: note_off channel=1 note=33 velocity=100 time=0.05376341666666667
EXTRACT: note_off channel=9 note=35 velocity=100 time=0
EXTRACT: note_off channel=0 note=67 velocity=100 time=0.21505366666666667
EXTRACT: note_on channel=0 note=74 velocity=100 time=0.21505366666666667
EXTRACT: note_off channel=0 note=74 velocity=100 time=0.43010733333333334
EXTRACT: note_off channel=1 note=47 velocity=64 time=0.0067204270833333335
EXTRACT: note_off channel=4 note=47 velocity=64 time=0
EXTRACT: note_on channel=0 note=76 velocity=100 time=0.20833323958333333
EXTRACT: note_off channel=0 note=76 velocity=100 time=0.43010733333333334
EXTRACT: note_on channel=0 note=76 velocity=100 time=0.21505366666666667
EXTRACT: note_on channel=1 note=28 velocity=100 time=0
EXTRACT: note_on channel=9 note=41 velocity=100 time=0
EXTRACT: note_on channel=9 note=35 velocity=100 time=0
EXTRACT: note_on channel=4 note=40 velocity=100 time=0
EXTRACT: note_off channel=1 note=28 velocity=64 time=0.21505366666666667
EXTRACT: note_off channel=9 note=41 velocity=100 time=0
EXTRACT: note_off channel=9 note=35 velocity=100 time=0
EXTRACT: note_on channel=1 note=40 velocity=100 time=0.10752683333333334
EXTRACT: note_on channel=9 note=42 velocity=100 time=0
EXTRACT: note_on channel=4 note=59 velocity=100 time=0
EXTRACT: note_off channel=1 note=40 velocity=100 time=0.21505366666666667
EXTRACT: note_off channel=9 note=42 velocity=100 time=0
EXTRACT: note_on channel=0 note=71 velocity=100 time=0.10752683333333334
EXTRACT: note_on channel=1 note=40 velocity=100 time=0
EXTRACT: note_on channel=9 note=42 velocity=100 time=0
EXTRACT: note_off channel=4 note=59 velocity=100 time=0
EXTRACT: note_on channel=4 note=64 velocity=100 time=0
EXTRACT: note_off channel=0 note=76 velocity=100 time=0.21505366666666667
EXTRACT: note_off channel=0 note=71 velocity=100 time=0
EXTRACT: note_off channel=1 note=40 velocity=100 time=0
EXTRACT: note_off channel=9 note=42 velocity=100 time=0
EXTRACT: note_off channel=4 note=40 velocity=100 time=0
EXTRACT: note_on channel=0 note=67 velocity=100 time=0.10752683333333334
EXTRACT: note_on channel=1 note=40 velocity=100 time=0
EXTRACT: note_on channel=9 note=37 velocity=100 time=0
EXTRACT: note_on channel=9 note=37 velocity=100 time=0
EXTRACT: note_on channel=9 note=42 velocity=100 time=0
EXTRACT: note_off channel=4 note=64 velocity=100 time=0
EXTRACT: note_on channel=4 note=64 velocity=100 time=0
EXTRACT: note_off channel=9 note=37 velocity=100 time=0.05376341666666667
EXTRACT: note_off channel=9 note=42 velocity=100 time=0.10752683333333334
EXTRACT: note_off channel=1 note=40 velocity=100 time=0.05376341666666667
EXTRACT: note_off channel=9 note=37 velocity=100 time=0
EXTRACT: note_on channel=9 note=42 velocity=100 time=0.10752683333333334
EXTRACT: note_off channel=4 note=64 velocity=100 time=0
EXTRACT: note_on channel=4 note=59 velocity=100 time=0
EXTRACT: note_off channel=9 note=42 velocity=100 time=0.16129025
EXTRACT: note_on channel=1 note=31 velocity=100 time=0.16129025
EXTRACT: note_on channel=9 note=35 velocity=100 time=0
EXTRACT: note_on channel=9 note=42 velocity=100 time=0
EXTRACT: note_off channel=4 note=59 velocity=100 time=0
EXTRACT: note_on channel=4 note=57 velocity=100 time=0
EXTRACT: note_off channel=9 note=42 velocity=100 time=0.16129025
EXTRACT: note_off channel=0 note=67 velocity=100 time=0.05376341666666667
EXTRACT: note_off channel=1 note=31 velocity=100 time=0
EXTRACT: note_off channel=9 note=35 velocity=100 time=0
EXTRACT: note_on channel=1 note=47 velocity=100 time=0.10752683333333334
EXTRACT: note_on channel=1 note=33 velocity=100 time=0
EXTRACT: note_on channel=9 note=35 velocity=100 time=0
EXTRACT: note_on channel=9 note=42 velocity=100 time=0
EXTRACT: note_off channel=4 note=57 velocity=100 time=0
EXTRACT: note_on channel=4 note=47 velocity=100 time=0
EXTRACT: note_off channel=9 note=42 velocity=100 time=0.16129025
EXTRACT: note_off channel=1 note=33 velocity=100 time=0.05376341666666667
EXTRACT: note_off channel=9 note=35 velocity=100 time=0
EXTRACT: note_on channel=9 note=42 velocity=100 time=0.10752683333333334
EXTRACT: note_on channel=4 note=59 velocity=100 time=0
EXTRACT: note_off channel=9 note=42 velocity=100 time=0.16129025
EXTRACT: note_on channel=0 note=64 velocity=100 time=0.16129025
EXTRACT: note_on channel=9 note=42 velocity=100 time=0
EXTRACT: note_off channel=4 note=59 velocity=100 time=0
EXTRACT: note_on channel=4 note=66 velocity=100 time=0
EXTRACT: note_on channel=0 note=64 velocity=100 time=0.16129025
EXTRACT: note_off channel=9 note=42 velocity=100 time=0
EXTRACT: note_off channel=0 note=64 velocity=100 time=0.05376341666666667
EXTRACT: note_off channel=0 note=64 velocity=100 time=0.05376341666666667
EXTRACT: note_on channel=0 note=67 velocity=100 time=0.05376341666666667
EXTRACT: note_on channel=9 note=37 velocity=100 time=0
EXTRACT: note_on channel=9 note=42 velocity=100 time=0
EXTRACT: note_off channel=4 note=66 velocity=64 time=0
EXTRACT: note_on channel=4 note=66 velocity=100 time=0
EXTRACT: note_off channel=1 note=47 velocity=64 time=0.11424726041666666
EXTRACT: note_off channel=4 note=47 velocity=64 time=0
EXTRACT: note_on channel=0 note=67 velocity=100 time=0.04704298958333333
EXTRACT: note_off channel=9 note=42 velocity=100 time=0
EXTRACT: note_off channel=0 note=67 velocity=100 time=0.05376341666666667
EXTRACT: note_off channel=9 note=37 velocity=100 time=0
EXTRACT: note_off channel=0 note=67 velocity=100 time=0.05376341666666667
EXTRACT: note_on channel=0 note=64 velocity=100 time=0.05376341666666667
EXTRACT: note_on channel=9 note=42 velocity=100 time=0
EXTRACT: note_off channel=4 note=66 velocity=100 time=0
EXTRACT: note_on channel=4 note=59 velocity=100 time=0
EXTRACT: note_on channel=0 note=64 velocity=100 time=0.16129025
EXTRACT: note_off channel=9 note=42 velocity=100 time=0
EXTRACT: note_off channel=0 note=64 velocity=100 time=0.05376341666666667
EXTRACT: note_off channel=0 note=64 velocity=100 time=0.05376341666666667
EXTRACT: note_on channel=0 note=62 velocity=100 time=0.05376341666666667
EXTRACT: note_on channel=1 note=33 velocity=100 time=0
EXTRACT: note_on channel=9 note=42 velocity=100 time=0
EXTRACT: note_off channel=4 note=59 velocity=100 time=0
EXTRACT: note_on channel=4 note=57 velocity=100 time=0
EXTRACT: note_on channel=0 note=62 velocity=100 time=0.16129025
EXTRACT: note_off channel=9 note=42 velocity=100 time=0
EXTRACT: note_off channel=0 note=62 velocity=100 time=0.05376341666666667
EXTRACT: note_off channel=1 note=33 velocity=100 time=0
EXTRACT: note_off channel=0 note=62 velocity=100 time=0.05376341666666667
EXTRACT: note_on channel=0 note=64 velocity=100 time=0.05376341666666667
EXTRACT: note_on channel=1 note=40 velocity=100 time=0
EXTRACT: note_on channel=1 note=28 velocity=100 time=0
EXTRACT: note_on channel=9 note=35 velocity=100 time=0
EXTRACT: note_on channel=9 note=42 velocity=100 time=0
EXTRACT: note_off channel=4 note=57 velocity=100 time=0
EXTRACT: note_on channel=4 note=40 velocity=100 time=0
EXTRACT: note_on channel=0 note=64 velocity=100 time=0.16129025
EXTRACT: note_off channel=9 note=42 velocity=100 time=0
EXTRACT: note_off channel=0 note=64 velocity=100 time=0.05376341666666667
EXTRACT: note_off channel=1 note=28 velocity=100 time=0
EXTRACT: note_off channel=9 note=35 velocity=100 time=0
EXTRACT: note_off channel=0 note=64 velocity=100 time=0.05376341666666667
EXTRACT: note_on channel=0 note=67 velocity=100 time=0.05376341666666667
EXTRACT: note_on channel=1 note=40 velocity=100 time=0
EXTRACT: note_on channel=9 note=42 velocity=100 time=0
EXTRACT: note_on channel=4 note=59 velocity=100 time=0
EXTRACT: note_off channel=0 note=67 velocity=100 time=0.10752683333333334
EXTRACT: note_on channel=0 note=67 velocity=100 time=0.05376341666666667
EXTRACT: note_off channel=9 note=42 velocity=100 time=0
EXTRACT: note_off channel=1 note=40 velocity=100 time=0.05376341666666667
EXTRACT: note_on channel=1 note=40 velocity=100 time=0.10752683333333334
EXTRACT: note_on channel=9 note=42 velocity=100 time=0
EXTRACT: note_off channel=4 note=59 velocity=100 time=0
EXTRACT: note_on channel=4 note=64 velocity=100 time=0
EXTRACT: note_off channel=0 note=67 velocity=100 time=0.16129025
EXTRACT: note_off channel=9 note=42 velocity=100 time=0
EXTRACT: note_off channel=1 note=40 velocity=100 time=0.05376341666666667
EXTRACT: note_off channel=1 note=40 velocity=100 time=0
EXTRACT: note_off channel=4 note=40 velocity=100 time=0
EXTRACT: note_on channel=1 note=40 velocity=100 time=0.10752683333333334
EXTRACT: note_on channel=9 note=37 velocity=100 time=0
EXTRACT: note_on channel=9 note=42 velocity=100 time=0
EXTRACT: note_off channel=4 note=64 velocity=100 time=0
EXTRACT: note_on channel=4 note=64 velocity=100 time=0
EXTRACT: note_off channel=9 note=42 velocity=100 time=0.16129025
EXTRACT: note_off channel=1 note=40 velocity=100 time=0.05376341666666667
EXTRACT: note_off channel=9 note=37 velocity=100 time=0
EXTRACT: note_on channel=9 note=42 velocity=100 time=0.10752683333333334
EXTRACT: note_off channel=4 note=64 velocity=100 time=0
EXTRACT: note_on channel=4 note=59 velocity=100 time=0
EXTRACT: note_off channel=9 note=42 velocity=100 time=0.16129025
EXTRACT: note_on channel=1 note=31 velocity=100 time=0.16129025
EXTRACT: note_on channel=9 note=35 velocity=100 time=0
EXTRACT: note_on channel=9 note=42 velocity=100 time=0
EXTRACT: note_off channel=4 note=59 velocity=64 time=0
EXTRACT: note_on channel=4 note=57 velocity=100 time=0
EXTRACT: note_off channel=9 note=42 velocity=100 time=0.16129025
EXTRACT: note_off channel=1 note=31 velocity=100 time=0.05376341666666667
EXTRACT: note_off channel=9 note=35 velocity=100 time=0
EXTRACT: note_on channel=1 note=47 velocity=100 time=0.10752683333333334
EXTRACT: note_on channel=1 note=33 velocity=100 time=0
EXTRACT: note_on channel=9 note=35 velocity=100 time=0
EXTRACT: note_on channel=9 note=42 velocity=100 time=0
EXTRACT: note_off channel=4 note=57 velocity=100 time=0
EXTRACT: note_on channel=4 note=47 velocity=100 time=0
EXTRACT: note_off channel=9 note=42 velocity=100 time=0.16129025
EXTRACT: note_off channel=1 note=33 velocity=100 time=0.05376341666666667
EXTRACT: note_off channel=9 note=35 velocity=100 time=0
EXTRACT: note_on channel=0 note=66 velocity=100 time=0.10752683333333334
EXTRACT: note_on channel=9 note=42 velocity=100 time=0
EXTRACT: note_on channel=4 note=59 velocity=100 time=0
EXTRACT: note_off channel=0 note=66 velocity=100 time=0.10752683333333334
EXTRACT: note_on channel=0 note=67 velocity=100 time=0.05376341666666667
EXTRACT: note_off channel=9 note=42 velocity=100 time=0
EXTRACT: note_off channel=0 note=67 velocity=100 time=0.10752683333333334
EXTRACT: note_on channel=0 note=66 velocity=100 time=0.05376341666666667
EXTRACT: note_off channel=1 note=47 velocity=64 time=0
EXTRACT: note_on channel=9 note=42 velocity=100 time=0
EXTRACT: note_off channel=4 note=47 velocity=64 time=0
EXTRACT: note_off channel=4 note=59 velocity=100 time=0
EXTRACT: note_on channel=4 note=66 velocity=100 time=0
EXTRACT: note_on channel=0 note=66 velocity=100 time=0.16129025
EXTRACT: note_off channel=9 note=42 velocity=100 time=0
EXTRACT: note_off channel=0 note=66 velocity=100 time=0.05376341666666667
EXTRACT: note_off channel=0 note=66 velocity=100 time=0.05376341666666667
EXTRACT: note_on channel=0 note=67 velocity=100 time=0.05376341666666667
EXTRACT: note_on channel=9 note=37 velocity=100 time=0
EXTRACT: note_on channel=9 note=42 velocity=100 time=0
EXTRACT: note_off channel=4 note=66 velocity=100 time=0
EXTRACT: note_on channel=4 note=66 velocity=100 time=0
EXTRACT: note_off channel=0 note=67 velocity=100 time=0.21505366666666667
EXTRACT: note_off channel=9 note=37 velocity=100 time=0
EXTRACT: note_off channel=9 note=42 velocity=100 time=0
EXTRACT: note_off channel=4 note=66 velocity=100 time=0
EXTRACT: note_on channel=0 note=66 velocity=100 time=0.10752683333333334
EXTRACT: note_on channel=9 note=42 velocity=100 time=0
EXTRACT: note_on channel=4 note=59 velocity=100 time=0
EXTRACT: note_off channel=0 note=66 velocity=100 time=0.21505366666666667
EXTRACT: note_off channel=9 note=42 velocity=100 time=0
EXTRACT: note_on channel=0 note=67 velocity=100 time=0.10752683333333334
EXTRACT: note_on channel=1 note=33 velocity=100 time=0
EXTRACT: note_on channel=9 note=42 velocity=100 time=0
EXTRACT: note_off channel=4 note=59 velocity=100 time=0
EXTRACT: note_on channel=4 note=57 velocity=100 time=0
EXTRACT: note_off channel=0 note=67 velocity=100 time=0.21505366666666667
EXTRACT: note_off channel=1 note=33 velocity=100 time=0
EXTRACT: note_off channel=9 note=42 velocity=100 time=0
EXTRACT: note_on channel=0 note=71 velocity=100 time=0.10752683333333334
EXTRACT: note_on channel=1 note=40 velocity=100 time=0
EXTRACT: note_on channel=1 note=28 velocity=100 time=0
EXTRACT: note_on channel=9 note=35 velocity=100 time=0
EXTRACT: note_on channel=9 note=42 velocity=100 time=0
EXTRACT: note_off channel=4 note=57 velocity=100 time=0
EXTRACT: note_on channel=4 note=40 velocity=100 time=0
EXTRACT: note_off channel=9 note=42 velocity=100 time=0.16129025
EXTRACT: note_off channel=1 note=28 velocity=100 time=0.05376341666666667
EXTRACT: note_off channel=9 note=35 velocity=100 time=0
EXTRACT: note_on channel=1 note=40 velocity=100 time=0.10752683333333334
EXTRACT: note_on channel=9 note=42 velocity=100 time=0
EXTRACT: note_on channel=4 note=59 velocity=100 time=0
EXTRACT: note_off channel=0 note=71 velocity=100 time=0.10752683333333334
EXTRACT: note_off channel=9 note=42 velocity=100 time=0.05376341666666667
EXTRACT: note_off channel=1 note=40 velocity=64 time=0.05376341666666667
EXTRACT: note_on channel=0 note=71 velocity=100 time=0.10752683333333334
EXTRACT: note_on channel=1 note=40 velocity=100 time=0
EXTRACT: note_on channel=9 note=42 velocity=100 time=0
EXTRACT: note_off channel=4 note=59 velocity=100 time=0
EXTRACT: note_on channel=4 note=64 velocity=100 time=0
EXTRACT: note_off channel=9 note=42 velocity=100 time=0.16129025
EXTRACT: note_off channel=1 note=40 velocity=64 time=0.05376341666666667
EXTRACT: note_off channel=1 note=40 velocity=100 time=0
EXTRACT: note_off channel=4 note=40 velocity=64 time=0
EXTRACT: note_on channel=1 note=40 velocity=100 time=0.10752683333333334
EXTRACT: note_on channel=9 note=37 velocity=100 time=0
EXTRACT: note_on channel=9 note=42 velocity=100 time=0
EXTRACT: note_off channel=4 note=64 velocity=100 time=0
EXTRACT: note_on channel=4 note=64 velocity=100 time=0
EXTRACT: note_off channel=0 note=71 velocity=100 time=0.10752683333333334
EXTRACT: note_off channel=9 note=42 velocity=100 time=0.05376341666666667
EXTRACT: note_off channel=1 note=40 velocity=100 time=0.05376341666666667
EXTRACT: note_off channel=9 note=37 velocity=100 time=0
EXTRACT: note_on channel=9 note=42 velocity=100 time=0.10752683333333334
EXTRACT: note_off channel=4 note=64 velocity=100 time=0
EXTRACT: note_on channel=4 note=59 velocity=100 time=0
EXTRACT: note_off channel=9 note=42 velocity=100 time=0.16129025
EXTRACT: note_on channel=1 note=31 velocity=100 time=0.16129025
EXTRACT: note_on channel=9 note=35 velocity=100 time=0
EXTRACT: note_on channel=9 note=42 velocity=100 time=0
EXTRACT: note_off channel=4 note=59 velocity=100 time=0
EXTRACT: note_on channel=4 note=57 velocity=100 time=0
EXTRACT: note_off channel=9 note=42 velocity=100 time=0.16129025
EXTRACT: note_off channel=1 note=31 velocity=100 time=0.05376341666666667
EXTRACT: note_off channel=9 note=35 velocity=100 time=0
EXTRACT: note_on channel=1 note=47 velocity=100 time=0.10752683333333334
EXTRACT: note_on channel=1 note=33 velocity=100 time=0
EXTRACT: note_on channel=9 note=35 velocity=100 time=0
EXTRACT: note_on channel=9 note=42 velocity=100 time=0
EXTRACT: note_off channel=4 note=57 velocity=100 time=0
EXTRACT: note_on channel=4 note=47 velocity=100 time=0
EXTRACT: note_off channel=9 note=42 velocity=100 time=0.16129025
EXTRACT: note_off channel=1 note=33 velocity=100 time=0.05376341666666667
EXTRACT: note_off channel=9 note=35 velocity=100 time=0
EXTRACT: note_on channel=9 note=42 velocity=100 time=0.10752683333333334
EXTRACT: note_on channel=4 note=59 velocity=100 time=0
EXTRACT: note_off channel=9 note=42 velocity=100 time=0.16129025
EXTRACT: note_on channel=0 note=62 velocity=100 time=0.16129025
EXTRACT: note_on channel=9 note=42 velocity=100 time=0
EXTRACT: note_off channel=4 note=59 velocity=100 time=0
EXTRACT: note_on channel=4 note=66 velocity=100 time=0
EXTRACT: note_off channel=9 note=42 velocity=100 time=0.16129025
EXTRACT: note_off channel=0 note=62 velocity=100 time=0.05376341666666667
EXTRACT: note_on channel=0 note=62 velocity=100 time=0.10752683333333334
EXTRACT: note_on channel=9 note=37 velocity=100 time=0
EXTRACT: note_on channel=9 note=42 velocity=100 time=0
EXTRACT: note_off channel=4 note=66 velocity=64 time=0
EXTRACT: note_on channel=4 note=66 velocity=100 time=0
EXTRACT: note_off channel=1 note=47 velocity=64 time=0.11424726041666666
EXTRACT: note_off channel=4 note=47 velocity=64 time=0
EXTRACT: note_off channel=9 note=42 velocity=100 time=0.04704298958333333
EXTRACT: note_off channel=0 note=62 velocity=100 time=0.05376341666666667
EXTRACT: note_off channel=9 note=37 velocity=100 time=0
EXTRACT: note_on channel=0 note=62 velocity=100 time=0.10752683333333334
EXTRACT: note_on channel=9 note=42 velocity=100 time=0
EXTRACT: note_off channel=4 note=66 velocity=100 time=0
EXTRACT: note_on channel=4 note=59 velocity=100 time=0
EXTRACT: note_off channel=9 note=42 velocity=100 time=0.16129025
EXTRACT: note_off channel=0 note=62 velocity=100 time=0.05376341666666667
EXTRACT: note_on channel=0 note=62 velocity=100 time=0.10752683333333334
EXTRACT: note_on channel=1 note=33 velocity=100 time=0
EXTRACT: note_on channel=9 note=42 velocity=100 time=0
EXTRACT: note_off channel=4 note=59 velocity=100 time=0
EXTRACT: note_on channel=4 note=57 velocity=100 time=0
EXTRACT: note_off channel=9 note=42 velocity=100 time=0.16129025
EXTRACT: note_off channel=0 note=62 velocity=100 time=0.05376341666666667
EXTRACT: note_off channel=1 note=33 velocity=100 time=0
EXTRACT: note_on channel=0 note=62 velocity=100 time=0.10752683333333334
EXTRACT: note_on channel=1 note=40 velocity=100 time=0
EXTRACT: note_on channel=1 note=28 velocity=100 time=0
EXTRACT: note_on channel=9 note=35 velocity=100 time=0
EXTRACT: note_on channel=9 note=42 velocity=100 time=0
EXTRACT: note_off channel=4 note=57 velocity=100 time=0
EXTRACT: note_on channel=4 note=40 velocity=100 time=0
EXTRACT: note_off channel=9 note=42 velocity=100 time=0.16129025
EXTRACT: note_off channel=1 note=28 velocity=100 time=0.05376341666666667
EXTRACT: note_off channel=9 note=35 velocity=100 time=0
EXTRACT: note_off channel=0 note=62 velocity=100 time=0.10752683333333334
EXTRACT: note_on channel=0 note=64 velocity=100 time=0
EXTRACT: note_on channel=1 note=40 velocity=100 time=0
EXTRACT: note_on channel=9 note=42 velocity=100 time=0
EXTRACT: note_on channel=4 note=59 velocity=100 time=0
EXTRACT: note_off channel=9 note=42 velocity=100 time=0.16129025
EXTRACT: note_off channel=1 note=40 velocity=100 time=0.05376341666666667
EXTRACT: note_on channel=1 note=40 velocity=100 time=0.10752683333333334
EXTRACT: note_on channel=9 note=42 velocity=100 time=0
EXTRACT: note_off channel=4 note=59 velocity=100 time=0
EXTRACT: note_on channel=4 note=64 velocity=100 time=0
EXTRACT: note_off channel=0 note=64 velocity=100 time=0.10752683333333334
EXTRACT: note_off channel=9 note=42 velocity=100 time=0.05376341666666667
EXTRACT: note_off channel=1 note=40 velocity=100 time=0.05376341666666667
EXTRACT: note_off channel=1 note=40 velocity=100 time=0
EXTRACT: note_off channel=4 note=40 velocity=100 time=0
EXTRACT: note_on channel=0 note=62 velocity=100 time=0.10752683333333334
EXTRACT: note_on channel=1 note=40 velocity=100 time=0
EXTRACT: note_on channel=9 note=37 velocity=100 time=0
EXTRACT: note_on channel=9 note=42 velocity=100 time=0
EXTRACT: note_off channel=4 note=64 velocity=100 time=0
EXTRACT: note_on channel=4 note=64 velocity=100 time=0
EXTRACT: note_off channel=9 note=42 velocity=100 time=0.16129025
EXTRACT: note_off channel=1 note=40 velocity=100 time=0.05376341666666667
EXTRACT: note_off channel=9 note=37 velocity=100 time=0
EXTRACT: note_off channel=0 note=62 velocity=100 time=0.10752683333333334
EXTRACT: note_on channel=0 note=64 velocity=100 time=0
EXTRACT: note_on channel=9 note=42 velocity=100 time=0
EXTRACT: note_off channel=4 note=64 velocity=100 time=0
EXTRACT: note_on channel=4 note=59 velocity=100 time=0
EXTRACT: note_off channel=9 note=42 velocity=100 time=0.16129025
EXTRACT: note_on channel=1 note=31 velocity=100 time=0.16129025
EXTRACT: note_on channel=9 note=35 velocity=100 time=0
EXTRACT: note_on channel=9 note=42 velocity=100 time=0
EXTRACT: note_off channel=4 note=59 velocity=64 time=0
EXTRACT: note_on channel=4 note=57 velocity=100 time=0
EXTRACT: note_off channel=0 note=64 velocity=100 time=0.10752683333333334
EXTRACT: note_off channel=9 note=42 velocity=100 time=0.05376341666666667
EXTRACT: note_off channel=1 note=31 velocity=100 time=0.05376341666666667
EXTRACT: note_off channel=9 note=35 velocity=100 time=0
EXTRACT: note_on channel=1 note=47 velocity=100 time=0.10752683333333334
EXTRACT: note_on channel=1 note=33 velocity=100 time=0
EXTRACT: note_on channel=9 note=35 velocity=100 time=0
EXTRACT: note_on channel=9 note=42 velocity=100 time=0
EXTRACT: note_off channel=4 note=57 velocity=100 time=0
EXTRACT: note_on channel=4 note=47 velocity=100 time=0
EXTRACT: note_off channel=9 note=42 velocity=100 time=0.16129025
EXTRACT: note_off channel=1 note=33 velocity=100 time=0.05376341666666667
EXTRACT: note_off channel=9 note=35 velocity=100 time=0
EXTRACT: note_on channel=9 note=42 velocity=100 time=0.10752683333333334
EXTRACT: note_on channel=4 note=59 velocity=100 time=0
EXTRACT: note_off channel=9 note=42 velocity=100 time=0.16129025
EXTRACT: note_on channel=9 note=42 velocity=100 time=0.16129025
EXTRACT: note_off channel=4 note=59 velocity=100 time=0
EXTRACT: note_on channel=4 note=66 velocity=100 time=0
EXTRACT: note_off channel=9 note=42 velocity=100 time=0.16129025
EXTRACT: note_on channel=0 note=71 velocity=100 time=0.16129025
EXTRACT: note_on channel=9 note=37 velocity=100 time=0
EXTRACT: note_on channel=9 note=42 velocity=100 time=0
EXTRACT: note_off channel=4 note=66 velocity=100 time=0
EXTRACT: note_on channel=4 note=66 velocity=100 time=0
EXTRACT: note_off channel=1 note=47 velocity=64 time=0.11424726041666666
EXTRACT: note_off channel=4 note=47 velocity=64 time=0
EXTRACT: note_off channel=9 note=42 velocity=100 time=0.04704298958333333
EXTRACT: note_off channel=0 note=71 velocity=100 time=0.05376341666666667
EXTRACT: note_off channel=9 note=37 velocity=100 time=0
EXTRACT: note_on channel=0 note=71 velocity=100 time=0.10752683333333334
EXTRACT: note_on channel=9 note=42 velocity=100 time=0
EXTRACT: note_off channel=4 note=66 velocity=100 time=0
EXTRACT: note_on channel=4 note=59 velocity=100 time=0
EXTRACT: note_off channel=9 note=42 velocity=100 time=0.16129025
EXTRACT: note_off channel=0 note=71 velocity=100 time=0.05376341666666667
EXTRACT: note_on channel=0 note=71 velocity=100 time=0.10752683333333334
EXTRACT: note_on channel=1 note=33 velocity=100 time=0
EXTRACT: note_on channel=9 note=42 velocity=100 time=0
EXTRACT: note_off channel=4 note=59 velocity=100 time=0
EXTRACT: note_on channel=4 note=57 velocity=100 time=0
EXTRACT: note_off channel=9 note=42 velocity=100 time=0.16129025
EXTRACT: note_off channel=0 note=71 velocity=100 time=0.05376341666666667
EXTRACT: note_off channel=1 note=33 velocity=100 time=0
EXTRACT: note_on channel=0 note=71 velocity=100 time=0.10752683333333334
EXTRACT: note_on channel=1 note=40 velocity=100 time=0
EXTRACT: note_on channel=1 note=28 velocity=100 time=0
EXTRACT: note_on channel=9 note=35 velocity=100 time=0
EXTRACT: note_on channel=9 note=42 velocity=100 time=0
EXTRACT: note_off channel=4 note=57 velocity=100 time=0
EXTRACT: note_on channel=4 note=40 velocity=100 time=0
EXTRACT: note_off channel=9 note=42 velocity=100 time=0.16129025
EXTRACT: note_off channel=0 note=71 velocity=100 time=0.05376341666666667
EXTRACT: note_off channel=1 note=28 velocity=100 time=0
EXTRACT: note_off channel=9 note=35 velocity=100 time=0
EXTRACT: note_on channel=0 note=67 velocity=100 time=0.10752683333333334
EXTRACT: note_on channel=1 note=40 velocity=100 time=0
EXTRACT: note_on channel=9 note=42 velocity=100 time=0
EXTRACT: note_on channel=4 note=59 velocity=100 time=0
EXTRACT: note_off channel=9 note=42 velocity=100 time=0.16129025
EXTRACT: note_off channel=0 note=67 velocity=100 time=0.05376341666666667
EXTRACT: note_off channel=1 note=40 velocity=100 time=0
EXTRACT: note_on channel=1 note=40 velocity=100 time=0.10752683333333334
EXTRACT: note_on channel=9 note=42 velocity=100 time=0
EXTRACT: note_off channel=4 note=59 velocity=100 time=0
EXTRACT: note_on channel=4 note=64 velocity=100 time=0
EXTRACT: note_off channel=9 note=42 velocity=100 time=0.16129025
EXTRACT: note_off channel=1 note=40 velocity=64 time=0.05376341666666667
EXTRACT: note_off channel=1 note=40 velocity=64 time=0
EXTRACT: note_off channel=4 note=40 velocity=64 time=0
EXTRACT: note_on channel=1 note=40 velocity=100 time=0.10752683333333334
EXTRACT: note_on channel=9 note=37 velocity=100 time=0
EXTRACT: note_on channel=9 note=42 velocity=100 time=0
EXTRACT: note_off channel=4 note=64 velocity=100 time=0
EXTRACT: note_on channel=4 note=64 velocity=100 time=0
EXTRACT: note_off channel=9 note=42 velocity=100 time=0.16129025
EXTRACT: note_off channel=1 note=40 velocity=100 time=0.05376341666666667
EXTRACT: note_off channel=9 note=37 velocity=100 time=0
EXTRACT: note_on channel=9 note=42 velocity=100 time=0.10752683333333334
EXTRACT: note_off channel=4 note=64 velocity=100 time=0
EXTRACT: note_on channel=4 note=59 velocity=100 time=0
EXTRACT: note_off channel=9 note=42 velocity=100 time=0.16129025
EXTRACT: note_on channel=1 note=31 velocity=100 time=0.16129025
EXTRACT: note_on channel=9 note=35 velocity=100 time=0
EXTRACT: note_on channel=9 note=42 velocity=100 time=0
EXTRACT: note_off channel=4 note=59 velocity=100 time=0
EXTRACT: note_on channel=4 note=57 velocity=100 time=0
EXTRACT: note_off channel=9 note=42 velocity=100 time=0.16129025
EXTRACT: note_off channel=1 note=31 velocity=100 time=0.05376341666666667
EXTRACT: note_off channel=9 note=35 velocity=100 time=0
EXTRACT: note_on channel=1 note=33 velocity=100 time=0.10752683333333334
EXTRACT: note_on channel=9 note=35 velocity=100 time=0
EXTRACT: note_on channel=9 note=42 velocity=100 time=0
EXTRACT: note_off channel=4 note=57 velocity=100 time=0
EXTRACT: note_on channel=4 note=47 velocity=100 time=0
EXTRACT: note_off channel=9 note=42 velocity=100 time=0.16129025
EXTRACT: note_off channel=1 note=33 velocity=100 time=0.05376341666666667
EXTRACT: note_off channel=9 note=35 velocity=100 time=0
EXTRACT: note_on channel=9 note=42 velocity=100 time=0.10752683333333334
EXTRACT: note_on channel=4 note=59 velocity=100 time=0
EXTRACT: note_on channel=0 note=64 velocity=100 time=0.16129025
EXTRACT: note_off channel=9 note=42 velocity=100 time=0
EXTRACT: note_off channel=0 note=64 velocity=100 time=0.10752683333333334
EXTRACT: note_on channel=0 note=64 velocity=100 time=0.05376341666666667
EXTRACT: note_on channel=9 note=42 velocity=100 time=0
EXTRACT: note_off channel=4 note=59 velocity=100 time=0
EXTRACT: note_on channel=4 note=66 velocity=100 time=0
EXTRACT: note_off channel=0 note=64 velocity=100 time=0.10752683333333334
EXTRACT: note_on channel=0 note=64 velocity=100 time=0.05376341666666667
EXTRACT: note_off channel=9 note=42 velocity=100 time=0
EXTRACT: note_off channel=0 note=64 velocity=100 time=0.10752683333333334
EXTRACT: note_on channel=0 note=67 velocity=100 time=0.05376341666666667
EXTRACT: note_on channel=9 note=37 velocity=100 time=0
EXTRACT: note_on channel=9 note=42 velocity=100 time=0
EXTRACT: note_off channel=4 note=66 velocity=64 time=0
EXTRACT: note_on channel=4 note=66 velocity=100 time=0
EXTRACT: note_off channel=4 note=47 velocity=64 time=0.11424726041666666
EXTRACT: note_off channel=9 note=42 velocity=100 time=0.04704298958333333
EXTRACT: note_off channel=0 note=67 velocity=100 time=0.05376341666666667
EXTRACT: note_off channel=9 note=37 velocity=100 time=0
EXTRACT: note_on channel=0 note=64 velocity=100 time=0.10752683333333334
EXTRACT: note_on channel=9 note=42 velocity=100 time=0
EXTRACT: note_off channel=4 note=66 velocity=100 time=0
EXTRACT: note_on channel=4 note=59 velocity=100 time=0
EXTRACT: note_off channel=9 note=42 velocity=100 time=0.16129025
EXTRACT: note_off channel=0 note=64 velocity=100 time=0.05376341666666667
EXTRACT: note_on channel=0 note=64 velocity=100 time=0.10752683333333334
EXTRACT: note_on channel=1 note=33 velocity=100 time=0
EXTRACT: note_on channel=9 note=42 velocity=100 time=0
EXTRACT: note_off channel=4 note=59 velocity=100 time=0
EXTRACT: note_on channel=4 note=57 velocity=100 time=0
EXTRACT: note_off channel=0 note=64 velocity=100 time=0.21505366666666667
EXTRACT: note_off channel=1 note=33 velocity=100 time=0
EXTRACT: note_off channel=9 note=42 velocity=100 time=0
EXTRACT: note_off channel=4 note=57 velocity=100 time=0
EXTRACT: note_on channel=0 note=64 velocity=100 time=0.10752683333333334
EXTRACT: note_on channel=1 note=40 velocity=100 time=0
EXTRACT: note_on channel=1 note=28 velocity=100 time=0
EXTRACT: note_on channel=9 note=35 velocity=100 time=0
EXTRACT: note_on channel=9 note=42 velocity=100 time=0
EXTRACT: note_on channel=4 note=40 velocity=100 time=0
EXTRACT: note_off channel=9 note=42 velocity=100 time=0.16129025
EXTRACT: note_off channel=0 note=64 velocity=100 time=0.05376341666666667
EXTRACT: note_off channel=1 note=28 velocity=100 time=0
EXTRACT: note_off channel=9 note=35 velocity=100 time=0
EXTRACT: note_on channel=0 note=67 velocity=100 time=0.10752683333333334
EXTRACT: note_on channel=1 note=40 velocity=100 time=0
EXTRACT: note_on channel=9 note=42 velocity=100 time=0
EXTRACT: note_on channel=4 note=59 velocity=100 time=0
EXTRACT: note_off channel=9 note=42 velocity=100 time=0.16129025
EXTRACT: note_off channel=0 note=67 velocity=100 time=0.05376341666666667
EXTRACT: note_off channel=1 note=40 velocity=100 time=0
EXTRACT: note_on channel=1 note=40 velocity=100 time=0.10752683333333334
EXTRACT: note_on channel=9 note=42 velocity=100 time=0
EXTRACT: note_off channel=4 note=59 velocity=100 time=0
EXTRACT: note_on channel=4 note=64 velocity=100 time=0
EXTRACT: note_off channel=9 note=42 velocity=100 time=0.16129025
EXTRACT: note_off channel=1 note=40 velocity=100 time=0.05376341666666667
EXTRACT: note_off channel=1 note=40 velocity=100 time=0
EXTRACT: note_off channel=4 note=40 velocity=100 time=0
EXTRACT: note_on channel=1 note=40 velocity=100 time=0.10752683333333334
EXTRACT: note_on channel=9 note=37 velocity=100 time=0
EXTRACT: note_on channel=9 note=42 velocity=100 time=0
EXTRACT: note_off channel=4 note=64 velocity=100 time=0
EXTRACT: note_on channel=4 note=64 velocity=100 time=0
EXTRACT: note_off channel=9 note=42 velocity=100 time=0.16129025
EXTRACT: note_off channel=1 note=40 velocity=100 time=0.05376341666666667
EXTRACT: note_off channel=9 note=37 velocity=100 time=0
EXTRACT: note_on channel=9 note=42 velocity=100 time=0.10752683333333334
EXTRACT: note_off channel=4 note=64 velocity=100 time=0
EXTRACT: note_on channel=4 note=59 velocity=100 time=0
EXTRACT: note_off channel=9 note=42 velocity=100 time=0.16129025
EXTRACT: note_on channel=1 note=31 velocity=100 time=0.16129025
EXTRACT: note_on channel=9 note=35 velocity=100 time=0
EXTRACT: note_on channel=9 note=42 velocity=100 time=0
EXTRACT: note_off channel=4 note=59 velocity=64 time=0
EXTRACT: note_on channel=4 note=57 velocity=100 time=0
EXTRACT: note_off channel=9 note=42 velocity=100 time=0.16129025
EXTRACT: note_off channel=1 note=31 velocity=100 time=0.05376341666666667
EXTRACT: note_off channel=9 note=35 velocity=100 time=0
EXTRACT: note_on channel=1 note=47 velocity=100 time=0.10752683333333334
EXTRACT: note_on channel=1 note=33 velocity=100 time=0
EXTRACT: note_on channel=9 note=35 velocity=100 time=0
EXTRACT: note_on channel=9 note=42 velocity=100 time=0
EXTRACT: note_off channel=4 note=57 velocity=100 time=0
EXTRACT: note_on channel=4 note=47 velocity=100 time=0
EXTRACT: note_off channel=9 note=42 velocity=100 time=0.16129025
EXTRACT: note_off channel=1 note=33 velocity=100 time=0.05376341666666667
EXTRACT: note_off channel=9 note=35 velocity=100 time=0
EXTRACT: note_on channel=9 note=42 velocity=100 time=0.10752683333333334
EXTRACT: note_on channel=4 note=59 velocity=100 time=0
EXTRACT: note_off channel=9 note=42 velocity=100 time=0.16129025
EXTRACT: note_on channel=9 note=42 velocity=100 time=0.16129025
EXTRACT: note_off channel=4 note=59 velocity=100 time=0
EXTRACT: note_on channel=4 note=66 velocity=100 time=0
EXTRACT: note_off channel=9 note=42 velocity=100 time=0.16129025
EXTRACT: note_on channel=0 note=74 velocity=100 time=0.16129025
EXTRACT: note_on channel=9 note=37 velocity=100 time=0
EXTRACT: note_on channel=9 note=42 velocity=100 time=0
EXTRACT: note_off channel=4 note=66 velocity=100 time=0
EXTRACT: note_on channel=4 note=66 velocity=100 time=0
EXTRACT: note_off channel=1 note=47 velocity=64 time=0.11424726041666666
EXTRACT: note_off channel=4 note=47 velocity=64 time=0
EXTRACT: note_off channel=9 note=42 velocity=100 time=0.04704298958333333
EXTRACT: note_off channel=0 note=74 velocity=100 time=0.05376341666666667
EXTRACT: note_off channel=9 note=37 velocity=100 time=0
EXTRACT: note_on channel=9 note=42 velocity=100 time=0.10752683333333334
EXTRACT: note_off channel=4 note=66 velocity=100 time=0
EXTRACT: note_on channel=4 note=59 velocity=100 time=0
EXTRACT: note_off channel=9 note=42 velocity=100 time=0.16129025
EXTRACT: note_on channel=0 note=76 velocity=100 time=0.16129025
EXTRACT: note_on channel=1 note=33 velocity=100 time=0
EXTRACT: note_on channel=9 note=42 velocity=100 time=0
EXTRACT: note_off channel=4 note=59 velocity=100 time=0
EXTRACT: note_on channel=4 note=57 velocity=100 time=0
EXTRACT: note_off channel=9 note=42 velocity=100 time=0.16129025
EXTRACT: note_off channel=0 note=76 velocity=100 time=0.05376341666666667
EXTRACT: note_off channel=1 note=33 velocity=100 time=0
EXTRACT: note_on channel=0 note=76 velocity=100 time=0.10752683333333334
EXTRACT: note_on channel=1 note=28 velocity=100 time=0
EXTRACT: note_on channel=9 note=35 velocity=100 time=0
EXTRACT: note_on channel=9 note=42 velocity=100 time=0
EXTRACT: note_off channel=4 note=57 velocity=100 time=0
EXTRACT: note_off channel=9 note=42 velocity=100 time=0.16129025
EXTRACT: note_off channel=0 note=76 velocity=100 time=0.05376341666666667
EXTRACT: note_off channel=1 note=28 velocity=100 time=0
EXTRACT: note_off channel=9 note=35 velocity=100 time=0
EXTRACT: note_on channel=1 note=40 velocity=100 time=0.10752683333333334
EXTRACT: note_on channel=9 note=42 velocity=100 time=0
EXTRACT: note_on channel=4 note=59 velocity=100 time=0
EXTRACT: note_off channel=9 note=42 velocity=100 time=0.16129025
EXTRACT: note_off channel=1 note=40 velocity=100 time=0.05376341666666667
EXTRACT: note_on channel=0 note=74 velocity=100 time=0.10752683333333334
EXTRACT: note_on channel=1 note=40 velocity=100 time=0
EXTRACT: note_on channel=9 note=42 velocity=100 time=0
EXTRACT: note_off channel=4 note=59 velocity=100 time=0
EXTRACT: note_on channel=4 note=64 velocity=100 time=0
EXTRACT: note_off channel=0 note=74 velocity=100 time=0.10752683333333334
EXTRACT: note_on channel=0 note=71 velocity=100 time=0.05376341666666667
EXTRACT: note_off channel=9 note=42 velocity=100 time=0
EXTRACT: note_off channel=1 note=40 velocity=100 time=0.05376341666666667
EXTRACT: note_off channel=0 note=71 velocity=100 time=0.05376341666666667
EXTRACT: note_on channel=0 note=67 velocity=100 time=0.05376341666666667
EXTRACT: note_on channel=1 note=40 velocity=100 time=0
EXTRACT: note_on channel=9 note=37 velocity=100 time=0
EXTRACT: note_on channel=9 note=42 velocity=100 time=0
EXTRACT: note_off channel=4 note=64 velocity=100 time=0
EXTRACT: note_on channel=4 note=64 velocity=100 time=0
EXTRACT: note_off channel=9 note=42 velocity=100 time=0.16129025
EXTRACT: note_off channel=0 note=67 velocity=100 time=0.05376341666666667
EXTRACT: note_off channel=1 note=40 velocity=64 time=0
EXTRACT: note_off channel=9 note=37 velocity=100 time=0
EXTRACT: note_on channel=9 note=42 velocity=100 time=0.10752683333333334
EXTRACT: note_off channel=4 note=64 velocity=100 time=0
EXTRACT: note_on channel=4 note=59 velocity=100 time=0
EXTRACT: note_off channel=9 note=42 velocity=100 time=0.16129025
EXTRACT: note_on channel=1 note=31 velocity=100 time=0.16129025
EXTRACT: note_on channel=9 note=35 velocity=100 time=0
EXTRACT: note_on channel=9 note=42 velocity=100 time=0
EXTRACT: note_off channel=4 note=59 velocity=64 time=0
EXTRACT: note_on channel=4 note=57 velocity=100 time=0
EXTRACT: note_off channel=9 note=42 velocity=100 time=0.16129025
EXTRACT: note_off channel=1 note=31 velocity=100 time=0.05376341666666667
EXTRACT: note_off channel=9 note=35 velocity=100 time=0
EXTRACT: note_on channel=1 note=33 velocity=100 time=0.10752683333333334
EXTRACT: note_on channel=9 note=35 velocity=100 time=0
EXTRACT: note_on channel=9 note=42 velocity=100 time=0
EXTRACT: note_off channel=4 note=57 velocity=100 time=0
EXTRACT: note_off channel=9 note=42 velocity=100 time=0.16129025
EXTRACT: note_off channel=1 note=33 velocity=100 time=0.05376341666666667
EXTRACT: note_off channel=9 note=35 velocity=100 time=0
EXTRACT: note_on channel=9 note=42 velocity=100 time=0.10752683333333334
EXTRACT: note_on channel=4 note=59 velocity=100 time=0
EXTRACT: note_off channel=9 note=42 velocity=100 time=0.21505366666666667
EXTRACT: note_on channel=0 note=62 velocity=100 time=0.10752683333333334
EXTRACT: note_on channel=9 note=42 velocity=100 time=0
EXTRACT: note_off channel=4 note=59 velocity=100 time=0
EXTRACT: note_on channel=4 note=66 velocity=100 time=0
EXTRACT: note_off channel=0 note=62 velocity=100 time=0.21505366666666667
EXTRACT: note_off channel=9 note=42 velocity=100 time=0
EXTRACT: note_on channel=0 note=62 velocity=100 time=0.10752683333333334
EXTRACT: note_on channel=9 note=37 velocity=100 time=0
EXTRACT: note_on channel=9 note=42 velocity=100 time=0
EXTRACT: note_off channel=4 note=66 velocity=100 time=0
EXTRACT: note_on channel=4 note=66 velocity=100 time=0
EXTRACT: note_off channel=0 note=62 velocity=100 time=0.21505366666666667
EXTRACT: note_off channel=9 note=37 velocity=100 time=0
EXTRACT: note_off channel=9 note=42 velocity=100 time=0
EXTRACT: note_on channel=0 note=62 velocity=100 time=0.10752683333333334
EXTRACT: note_on channel=9 note=42 velocity=100 time=0
EXTRACT: note_off channel=4 note=66 velocity=100 time=0
EXTRACT: note_on channel=4 note=59 velocity=100 time=0
EXTRACT: note_off channel=0 note=62 velocity=100 time=0.21505366666666667
EXTRACT: note_off channel=9 note=42 velocity=100 time=0
EXTRACT: note_on channel=0 note=62 velocity=100 time=0.10752683333333334
EXTRACT: note_on channel=1 note=33 velocity=100 time=0
EXTRACT: note_on channel=9 note=42 velocity=100 time=0
EXTRACT: note_off channel=4 note=59 velocity=100 time=0
EXTRACT: note_on channel=4 note=57 velocity=100 time=0
EXTRACT: note_off channel=9 note=42 velocity=100 time=0.16129025
EXTRACT: note_off channel=0 note=62 velocity=100 time=0.05376341666666667
EXTRACT: note_off channel=1 note=33 velocity=100 time=0
EXTRACT: note_on channel=0 note=71 velocity=100 time=0.10752683333333334
EXTRACT: note_on channel=1 note=28 velocity=100 time=0
EXTRACT: note_on channel=9 note=35 velocity=100 time=0
EXTRACT: note_on channel=9 note=42 velocity=100 time=0
EXTRACT: note_off channel=4 note=57 velocity=100 time=0
EXTRACT: note_off channel=9 note=42 velocity=100 time=0.16129025
EXTRACT: note_off channel=0 note=71 velocity=100 time=0.05376341666666667
EXTRACT: note_off channel=1 note=28 velocity=100 time=0
EXTRACT: note_off channel=9 note=35 velocity=100 time=0
EXTRACT: note_on channel=0 note=67 velocity=100 time=0.10752683333333334
EXTRACT: note_on channel=1 note=40 velocity=100 time=0
EXTRACT: note_on channel=9 note=42 velocity=100 time=0
EXTRACT: note_on channel=4 note=59 velocity=100 time=0
EXTRACT: note_off channel=9 note=42 velocity=100 time=0.16129025
EXTRACT: note_off channel=0 note=67 velocity=100 time=0.05376341666666667
EXTRACT: note_off channel=1 note=40 velocity=100 time=0
EXTRACT: note_on channel=1 note=40 velocity=100 time=0.10752683333333334
EXTRACT: note_on channel=9 note=42 velocity=100 time=0
EXTRACT: note_off channel=4 note=59 velocity=100 time=0
EXTRACT: note_on channel=4 note=64 velocity=100 time=0
EXTRACT: note_off channel=9 note=42 velocity=100 time=0.16129025
EXTRACT: note_off channel=1 note=40 velocity=100 time=0.05376341666666667
EXTRACT: note_on channel=1 note=40 velocity=100 time=0.10752683333333334
EXTRACT: note_on channel=9 note=37 velocity=100 time=0
EXTRACT: note_on channel=9 note=42 velocity=100 time=0
EXTRACT: note_off channel=4 note=64 velocity=100 time=0
EXTRACT: note_on channel=4 note=64 velocity=100 time=0
EXTRACT: note_off channel=9 note=42 velocity=100 time=0.16129025
EXTRACT: note_off channel=1 note=40 velocity=100 time=0.05376341666666667
EXTRACT: note_off channel=9 note=37 velocity=100 time=0
EXTRACT: note_on channel=9 note=42 velocity=100 time=0.10752683333333334
EXTRACT: note_off channel=4 note=64 velocity=100 time=0
EXTRACT: note_on channel=4 note=59 velocity=100 time=0
EXTRACT: note_off channel=9 note=42 velocity=100 time=0.16129025
EXTRACT: note_on channel=1 note=31 velocity=100 time=0.16129025
EXTRACT: note_on channel=9 note=35 velocity=100 time=0
EXTRACT: note_on channel=9 note=42 velocity=100 time=0
EXTRACT: note_off channel=4 note=59 velocity=100 time=0
EXTRACT: note_on channel=4 note=57 velocity=100 time=0
EXTRACT: note_off channel=9 note=42 velocity=100 time=0.16129025
EXTRACT: note_off channel=1 note=31 velocity=100 time=0.05376341666666667
EXTRACT: note_off channel=9 note=35 velocity=100 time=0
EXTRACT: note_on channel=0 note=59 velocity=100 time=0.10752683333333334
EXTRACT: note_on channel=1 note=47 velocity=100 time=0
EXTRACT: note_on channel=1 note=33 velocity=100 time=0
EXTRACT: note_on channel=9 note=35 velocity=100 time=0
EXTRACT: note_on channel=9 note=42 velocity=100 time=0
EXTRACT: note_off channel=4 note=57 velocity=100 time=0
EXTRACT: note_off channel=9 note=42 velocity=100 time=0.16129025
EXTRACT: note_off channel=1 note=33 velocity=100 time=0.05376341666666667
EXTRACT: note_off channel=9 note=35 velocity=100 time=0
EXTRACT: note_on channel=0 note=60 velocity=100 time=0.10752683333333334
EXTRACT: note_on channel=9 note=35 velocity=100 time=0
EXTRACT: note_on channel=9 note=42 velocity=100 time=0
EXTRACT: note_on channel=4 note=59 velocity=100 time=0
EXTRACT: note_off channel=0 note=59 velocity=100 time=0.10752683333333334
EXTRACT: note_off channel=9 note=42 velocity=100 time=0.05376341666666667
EXTRACT: note_off channel=0 note=60 velocity=100 time=0.05376341666666667
EXTRACT: note_off channel=9 note=35 velocity=100 time=0
EXTRACT: note_on channel=0 note=62 velocity=100 time=0.10752683333333334
EXTRACT: note_on channel=9 note=35 velocity=100 time=0
EXTRACT: note_on channel=9 note=42 velocity=100 time=0
EXTRACT: note_off channel=4 note=59 velocity=100 time=0
EXTRACT: note_on channel=4 note=66 velocity=100 time=0
EXTRACT: note_off channel=9 note=42 velocity=100 time=0.16129025
EXTRACT: note_off channel=9 note=35 velocity=100 time=0.05376341666666667
EXTRACT: note_off channel=0 note=62 velocity=100 time=0.10752683333333334
EXTRACT: note_on channel=0 note=62 velocity=100 time=0
EXTRACT: note_on channel=9 note=35 velocity=100 time=0
EXTRACT: note_on channel=9 note=37 velocity=100 time=0
EXTRACT: note_on channel=9 note=42 velocity=100 time=0
EXTRACT: note_off channel=4 note=66 velocity=64 time=0
EXTRACT: note_on channel=4 note=66 velocity=100 time=0
EXTRACT: note_off channel=1 note=47 velocity=64 time=0.11424726041666666
EXTRACT: note_off channel=9 note=42 velocity=100 time=0.04704298958333333
EXTRACT: note_off channel=0 note=62 velocity=100 time=0.05376341666666667
EXTRACT: note_off channel=9 note=35 velocity=100 time=0
EXTRACT: note_off channel=9 note=37 velocity=100 time=0
EXTRACT: note_on channel=0 note=64 velocity=100 time=0.10752683333333334
EXTRACT: note_on channel=9 note=35 velocity=100 time=0
EXTRACT: note_on channel=9 note=42 velocity=100 time=0
EXTRACT: note_off channel=4 note=66 velocity=100 time=0
EXTRACT: note_on channel=4 note=59 velocity=100 time=0
EXTRACT: note_off channel=0 note=64 velocity=100 time=0.21505366666666667
EXTRACT: note_off channel=9 note=35 velocity=100 time=0
EXTRACT: note_off channel=9 note=42 velocity=100 time=0
EXTRACT: note_on channel=0 note=67 velocity=100 time=0.10752683333333334
EXTRACT: note_on channel=1 note=33 velocity=100 time=0
EXTRACT: note_on channel=1 note=33 velocity=100 time=0
EXTRACT: note_on channel=9 note=35 velocity=100 time=0
EXTRACT: note_on channel=9 note=42 velocity=100 time=0
EXTRACT: note_off channel=4 note=59 velocity=100 time=0
EXTRACT: note_on channel=4 note=57 velocity=100 time=0
EXTRACT: note_off channel=0 note=67 velocity=100 time=0.21505366666666667
EXTRACT: note_off channel=1 note=33 velocity=100 time=0
EXTRACT: note_off channel=1 note=33 velocity=100 time=0
EXTRACT: note_off channel=9 note=35 velocity=100 time=0
EXTRACT: note_off channel=9 note=42 velocity=100 time=0
EXTRACT: note_on channel=0 note=67 velocity=100 time=0.10752683333333334
EXTRACT: note_on channel=1 note=28 velocity=100 time=0
EXTRACT: note_on channel=9 note=35 velocity=100 time=0
EXTRACT: note_off channel=4 note=57 velocity=100 time=0
EXTRACT: note_on channel=5 note=76 velocity=100 time=0
EXTRACT: note_on channel=5 note=71 velocity=100 time=0
EXTRACT: note_off channel=1 note=28 velocity=100 time=0.21505366666666667
EXTRACT: note_off channel=9 note=35 velocity=100 time=0
EXTRACT: note_on channel=4 note=59 velocity=100 time=0.10752683333333334
EXTRACT: note_off channel=0 note=67 velocity=100 time=0.10752683333333334
EXTRACT: note_off channel=5 note=76 velocity=100 time=0
EXTRACT: note_off channel=5 note=71 velocity=100 time=0
EXTRACT: note_on channel=0 note=64 velocity=100 time=0.21505366666666667
EXTRACT: note_off channel=4 note=59 velocity=100 time=0
EXTRACT: note_on channel=4 note=64 velocity=100 time=0
EXTRACT: note_on channel=5 note=76 velocity=100 time=0
EXTRACT: note_on channel=9 note=37 velocity=100 time=0.3225805
EXTRACT: note_on channel=9 note=55 velocity=100 time=0
EXTRACT: note_on channel=9 note=37 velocity=100 time=0
EXTRACT: note_on channel=9 note=42 velocity=100 time=0
EXTRACT: note_off channel=4 note=64 velocity=100 time=0
EXTRACT: note_on channel=4 note=64 velocity=100 time=0
EXTRACT: note_off channel=0 note=64 velocity=100 time=0.10752683333333334
EXTRACT: note_off channel=9 note=55 velocity=100 time=0
EXTRACT: note_off channel=5 note=76 velocity=100 time=0
EXTRACT: note_off channel=9 note=42 velocity=100 time=0.05376341666666667
EXTRACT: note_off channel=9 note=37 velocity=100 time=0.05376341666666667
EXTRACT: note_off channel=9 note=37 velocity=100 time=0
EXTRACT: note_on channel=0 note=71 velocity=100 time=0.10752683333333334
EXTRACT: note_on channel=9 note=42 velocity=100 time=0
EXTRACT: note_off channel=4 note=64 velocity=100 time=0
EXTRACT: note_on channel=4 note=59 velocity=100 time=0
EXTRACT: note_off channel=9 note=42 velocity=100 time=0.16129025
EXTRACT: note_on channel=0 note=69 velocity=100 time=0.16129025
EXTRACT: note_on channel=1 note=31 velocity=100 time=0
EXTRACT: note_on channel=1 note=31 velocity=100 time=0
EXTRACT: note_on channel=9 note=35 velocity=100 time=0
EXTRACT: note_on channel=9 note=53 velocity=100 time=0
EXTRACT: note_on channel=9 note=35 velocity=100 time=0
EXTRACT: note_on channel=9 note=42 velocity=100 time=0
EXTRACT: note_off channel=4 note=59 velocity=64 time=0
EXTRACT: note_on channel=4 note=57 velocity=100 time=0
EXTRACT: note_off channel=0 note=71 velocity=100 time=0.10752683333333334
EXTRACT: note_off channel=9 note=53 velocity=100 time=0
EXTRACT: note_off channel=9 note=42 velocity=100 time=0.05376341666666667
EXTRACT: note_off channel=1 note=31 velocity=100 time=0.05376341666666667
EXTRACT: note_off channel=1 note=31 velocity=100 time=0
EXTRACT: note_off channel=9 note=35 velocity=100 time=0
EXTRACT: note_off channel=9 note=35 velocity=100 time=0
EXTRACT: note_on channel=0 note=71 velocity=100 time=0.10752683333333334
EXTRACT: note_on channel=1 note=47 velocity=100 time=0
EXTRACT: note_on channel=1 note=33 velocity=100 time=0
EXTRACT: note_on channel=1 note=33 velocity=100 time=0
EXTRACT: note_on channel=9 note=35 velocity=100 time=0
EXTRACT: note_on channel=9 note=53 velocity=100 time=0
EXTRACT: note_on channel=9 note=35 velocity=100 time=0
EXTRACT: note_on channel=9 note=42 velocity=100 time=0
EXTRACT: note_off channel=4 note=57 velocity=100 time=0
EXTRACT: note_off channel=0 note=69 velocity=100 time=0.10752683333333334
EXTRACT: note_off channel=9 note=53 velocity=100 time=0
EXTRACT: note_off channel=9 note=42 velocity=100 time=0.05376341666666667
EXTRACT: note_off channel=1 note=33 velocity=64 time=0.05376341666666667
EXTRACT: note_off channel=1 note=33 velocity=100 time=0
EXTRACT: note_off channel=9 note=35 velocity=100 time=0
EXTRACT: note_off channel=9 note=35 velocity=100 time=0
EXTRACT: note_on channel=0 note=67 velocity=100 time=0.10752683333333334
EXTRACT: note_on channel=9 note=53 velocity=100 time=0
EXTRACT: note_on channel=9 note=35 velocity=100 time=0
EXTRACT: note_on channel=9 note=42 velocity=100 time=0
EXTRACT: note_on channel=4 note=59 velocity=100 time=0
EXTRACT: note_off channel=0 note=71 velocity=100 time=0.10752683333333334
EXTRACT: note_off channel=9 note=53 velocity=100 time=0
EXTRACT: note_off channel=9 note=42 velocity=100 time=0.05376341666666667
EXTRACT: note_off channel=9 note=35 velocity=100 time=0.05376341666666667
EXTRACT: note_on channel=9 note=53 velocity=100 time=0.10752683333333334
EXTRACT: note_on channel=9 note=35 velocity=100 time=0
EXTRACT: note_on channel=9 note=42 velocity=100 time=0
EXTRACT: note_off channel=4 note=59 velocity=100 time=0
EXTRACT: note_on channel=4 note=66 velocity=100 time=0
EXTRACT: note_off channel=0 note=67 velocity=100 time=0.10752683333333334
EXTRACT: note_off channel=9 note=53 velocity=100 time=0
EXTRACT: note_off channel=9 note=42 velocity=100 time=0.05376341666666667
EXTRACT: note_off channel=9 note=35 velocity=100 time=0.05376341666666667
EXTRACT: note_on channel=9 note=37 velocity=100 time=0.10752683333333334
EXTRACT: note_on channel=9 note=55 velocity=100 time=0
EXTRACT: note_on channel=9 note=37 velocity=100 time=0
EXTRACT: note_on channel=9 note=42 velocity=100 time=0
EXTRACT: note_off channel=4 note=66 velocity=100 time=0
EXTRACT: note_on channel=4 note=66 velocity=100 time=0
EXTRACT: note_off channel=9 note=55 velocity=100 time=0.10752683333333334
EXTRACT: note_off channel=1 note=47 velocity=100 time=0.0067204270833333335
EXTRACT: note_off channel=9 note=42 velocity=100 time=0.04704298958333333
EXTRACT: note_off channel=9 note=37 velocity=100 time=0.05376341666666667
EXTRACT: note_off channel=9 note=37 velocity=100 time=0
EXTRACT: note_on channel=9 note=42 velocity=100 time=0.10752683333333334
EXTRACT: note_off channel=4 note=66 velocity=100 time=0
EXTRACT: note_on channel=4 note=59 velocity=100 time=0
EXTRACT: note_off channel=9 note=42 velocity=100 time=0.16129025
EXTRACT: note_on channel=0 note=62 velocity=100 time=0.16129025
EXTRACT: note_on channel=1 note=33 velocity=100 time=0
EXTRACT: note_on channel=1 note=33 velocity=100 time=0
EXTRACT: note_on channel=9 note=42 velocity=100 time=0
EXTRACT: note_off channel=4 note=59 velocity=100 time=0
EXTRACT: note_on channel=4 note=57 velocity=100 time=0
EXTRACT: note_off channel=9 note=42 velocity=100 time=0.16129025
EXTRACT: note_off channel=1 note=33 velocity=100 time=0.05376341666666667
EXTRACT: note_off channel=1 note=33 velocity=100 time=0
EXTRACT: note_off channel=0 note=62 velocity=64 time=0.10752683333333334
EXTRACT: note_on channel=0 note=64 velocity=100 time=0
EXTRACT: note_on channel=1 note=40 velocity=100 time=0
EXTRACT: note_on channel=1 note=28 velocity=100 time=0
EXTRACT: note_on channel=1 note=28 velocity=100 time=0
EXTRACT: note_on channel=9 note=35 velocity=100 time=0
EXTRACT: note_on channel=9 note=53 velocity=100 time=0
EXTRACT: note_on channel=9 note=35 velocity=100 time=0
EXTRACT: note_on channel=9 note=42 velocity=100 time=0
EXTRACT: note_off channel=4 note=57 velocity=100 time=0
EXTRACT: note_off channel=9 note=53 velocity=100 time=0.10752683333333334
EXTRACT: note_off channel=9 note=42 velocity=100 time=0.05376341666666667
EXTRACT: note_off channel=1 note=28 velocity=100 time=0.05376341666666667
EXTRACT: note_off channel=1 note=28 velocity=64 time=0
EXTRACT: note_off channel=9 note=35 velocity=100 time=0
EXTRACT: note_off channel=9 note=35 velocity=100 time=0
EXTRACT: note_on channel=1 note=40 velocity=100 time=0.10752683333333334
EXTRACT: note_on channel=1 note=40 velocity=100 time=0
EXTRACT: note_on channel=9 note=42 velocity=100 time=0
EXTRACT: note_on channel=4 note=59 velocity=100 time=0
EXTRACT: note_off channel=0 note=64 velocity=100 time=0.10752683333333334
EXTRACT: note_off channel=9 note=42 velocity=100 time=0.05376341666666667
EXTRACT: note_off channel=1 note=40 velocity=100 time=0.05376341666666667
EXTRACT: note_off channel=1 note=40 velocity=100 time=0
EXTRACT: note_on channel=1 note=40 velocity=100 time=0.10752683333333334
EXTRACT: note_on channel=1 note=40 velocity=100 time=0
EXTRACT: note_on channel=9 note=53 velocity=100 time=0
EXTRACT: note_on channel=9 note=42 velocity=100 time=0
EXTRACT: note_off channel=4 note=59 velocity=100 time=0
EXTRACT: note_on channel=4 note=64 velocity=100 time=0
EXTRACT: note_off channel=9 note=53 velocity=100 time=0.10752683333333334
EXTRACT: note_off channel=9 note=42 velocity=100 time=0.05376341666666667
EXTRACT: note_off channel=1 note=40 velocity=100 time=0.05376341666666667
EXTRACT: note_off channel=1 note=40 velocity=100 time=0
EXTRACT: note_off channel=1 note=40 velocity=100 time=0
EXTRACT: note_on channel=1 note=40 velocity=100 time=0.10752683333333334
EXTRACT: note_on channel=1 note=40 velocity=100 time=0
EXTRACT: note_on channel=9 note=37 velocity=100 time=0
EXTRACT: note_on channel=9 note=55 velocity=100 time=0
EXTRACT: note_on channel=9 note=37 velocity=100 time=0
EXTRACT: note_on channel=9 note=42 velocity=100 time=0
EXTRACT: note_off channel=4 note=64 velocity=100 time=0
EXTRACT: note_on channel=4 note=64 velocity=100 time=0
EXTRACT: note_off channel=9 note=55 velocity=100 time=0.10752683333333334
EXTRACT: note_off channel=9 note=42 velocity=100 time=0.05376341666666667
EXTRACT: note_off channel=1 note=40 velocity=100 time=0.05376341666666667
EXTRACT: note_off channel=1 note=40 velocity=100 time=0
EXTRACT: note_off channel=9 note=37 velocity=100 time=0
EXTRACT: note_off channel=9 note=37 velocity=100 time=0
EXTRACT: note_on channel=9 note=42 velocity=100 time=0.10752683333333334
EXTRACT: note_off channel=4 note=64 velocity=100 time=0
EXTRACT: note_on channel=4 note=59 velocity=100 time=0
EXTRACT: note_on channel=0 note=64 velocity=100 time=0.16129025
EXTRACT: note_off channel=9 note=42 velocity=100 time=0
EXTRACT: note_on channel=1 note=31 velocity=100 time=0.16129025
EXTRACT: note_on channel=1 note=31 velocity=100 time=0
EXTRACT: note_on channel=9 note=35 velocity=100 time=0
EXTRACT: note_on channel=9 note=53 velocity=100 time=0
EXTRACT: note_on channel=9 note=35 velocity=100 time=0
EXTRACT: note_on channel=9 note=42 velocity=100 time=0
EXTRACT: note_off channel=4 note=59 velocity=100 time=0
EXTRACT: note_on channel=4 note=57 velocity=100 time=0
EXTRACT: note_off channel=9 note=53 velocity=100 time=0.10752683333333334
EXTRACT: note_off channel=9 note=42 velocity=100 time=0.05376341666666667
EXTRACT: note_off channel=1 note=31 velocity=100 time=0.05376341666666667
EXTRACT: note_off channel=1 note=31 velocity=100 time=0
EXTRACT: note_off channel=9 note=35 velocity=100 time=0
EXTRACT: note_off channel=9 note=35 velocity=100 time=0
EXTRACT: note_off channel=0 note=64 velocity=100 time=0.05376341666666667
EXTRACT: note_on channel=0 note=67 velocity=100 time=0.05376341666666667
EXTRACT: note_on channel=1 note=47 velocity=100 time=0
EXTRACT: note_on channel=1 note=33 velocity=100 time=0
EXTRACT: note_on channel=1 note=33 velocity=100 time=0
EXTRACT: note_on channel=9 note=35 velocity=100 time=0
EXTRACT: note_on channel=9 note=53 velocity=100 time=0
EXTRACT: note_on channel=9 note=35 velocity=100 time=0
EXTRACT: note_on channel=9 note=42 velocity=100 time=0
EXTRACT: note_off channel=4 note=57 velocity=100 time=0
EXTRACT: note_off channel=9 note=53 velocity=100 time=0.10752683333333334
EXTRACT: note_off channel=9 note=42 velocity=100 time=0.05376341666666667
EXTRACT: note_off channel=1 note=33 velocity=100 time=0.05376341666666667
EXTRACT: note_off channel=1 note=33 velocity=100 time=0
EXTRACT: note_off channel=9 note=35 velocity=100 time=0
EXTRACT: note_off channel=9 note=35 velocity=100 time=0
EXTRACT: note_on channel=9 note=53 velocity=100 time=0.10752683333333334
EXTRACT: note_on channel=9 note=35 velocity=100 time=0
EXTRACT: note_on channel=9 note=42 velocity=100 time=0
EXTRACT: note_on channel=4 note=59 velocity=100 time=0
EXTRACT: note_off channel=0 note=67 velocity=100 time=0.10752683333333334
EXTRACT: note_off channel=9 note=53 velocity=100 time=0
EXTRACT: note_off channel=9 note=42 velocity=100 time=0.05376341666666667
EXTRACT: note_off channel=9 note=35 velocity=100 time=0.05376341666666667
EXTRACT: note_on channel=0 note=62 velocity=100 time=0.10752683333333334
EXTRACT: note_on channel=9 note=53 velocity=100 time=0
EXTRACT: note_on channel=9 note=35 velocity=100 time=0
EXTRACT: note_on channel=9 note=42 velocity=100 time=0
EXTRACT: note_off channel=4 note=59 velocity=100 time=0
EXTRACT: note_on channel=4 note=66 velocity=100 time=0
EXTRACT: note_off channel=9 note=53 velocity=100 time=0.10752683333333334
EXTRACT: note_off channel=9 note=42 velocity=100 time=0.05376341666666667
EXTRACT: note_off channel=0 note=62 velocity=100 time=0.05376341666666667
EXTRACT: note_off channel=9 note=35 velocity=100 time=0
EXTRACT: note_on channel=0 note=64 velocity=100 time=0.10752683333333334
EXTRACT: note_on channel=9 note=37 velocity=100 time=0
EXTRACT: note_on channel=9 note=55 velocity=100 time=0
EXTRACT: note_on channel=9 note=35 velocity=100 time=0
EXTRACT: note_on channel=9 note=37 velocity=100 time=0
EXTRACT: note_on channel=9 note=42 velocity=100 time=0
EXTRACT: note_off channel=4 note=66 velocity=64 time=0
EXTRACT: note_on channel=4 note=66 velocity=100 time=0
EXTRACT: note_off channel=9 note=55 velocity=100 time=0.10752683333333334
EXTRACT: note_off channel=1 note=47 velocity=64 time=0.0067204270833333335
EXTRACT: note_off channel=9 note=42 velocity=100 time=0.04704298958333333
EXTRACT: note_off channel=9 note=37 velocity=100 time=0.05376341666666667
EXTRACT: note_off channel=9 note=35 velocity=100 time=0
EXTRACT: note_off channel=9 note=37 velocity=100 time=0
EXTRACT: note_on channel=9 note=42 velocity=100 time=0.10752683333333334
EXTRACT: note_off channel=4 note=66 velocity=100 time=0
EXTRACT: note_on channel=4 note=59 velocity=100 time=0
EXTRACT: note_off channel=0 note=64 velocity=100 time=0.10752683333333334
EXTRACT: note_off channel=9 note=42 velocity=100 time=0.05376341666666667
EXTRACT: note_on channel=0 note=66 velocity=100 time=0.16129025
EXTRACT: note_on channel=1 note=33 velocity=100 time=0
EXTRACT: note_on channel=9 note=42 velocity=100 time=0
EXTRACT: note_off channel=4 note=59 velocity=100 time=0
EXTRACT: note_on channel=4 note=57 velocity=100 time=0
EXTRACT: note_off channel=9 note=42 velocity=100 time=0.16129025
EXTRACT: note_off channel=0 note=66 velocity=100 time=0.05376341666666667
EXTRACT: note_off channel=1 note=33 velocity=64 time=0
EXTRACT: note_on channel=0 note=67 velocity=100 time=0.10752683333333334
EXTRACT: note_on channel=1 note=40 velocity=100 time=0
EXTRACT: note_on channel=1 note=28 velocity=100 time=0
EXTRACT: note_on channel=9 note=35 velocity=100 time=0
EXTRACT: note_on channel=9 note=35 velocity=100 time=0
EXTRACT: note_on channel=9 note=42 velocity=100 time=0
EXTRACT: note_off channel=4 note=57 velocity=100 time=0
EXTRACT: note_on channel=4 note=40 velocity=100 time=0
EXTRACT: note_off channel=9 note=42 velocity=100 time=0.16129025
EXTRACT: note_off channel=1 note=28 velocity=100 time=0.05376341666666667
EXTRACT: note_off channel=9 note=35 velocity=100 time=0
EXTRACT: note_off channel=9 note=35 velocity=100 time=0
EXTRACT: note_on channel=1 note=40 velocity=100 time=0.10752683333333334
EXTRACT: note_on channel=1 note=40 velocity=100 time=0
EXTRACT: note_on channel=9 note=42 velocity=100 time=0
EXTRACT: note_on channel=4 note=59 velocity=100 time=0
EXTRACT: note_off channel=0 note=67 velocity=100 time=0.10752683333333334
EXTRACT: note_off channel=9 note=42 velocity=100 time=0.05376341666666667
EXTRACT: note_off channel=1 note=40 velocity=100 time=0.05376341666666667
EXTRACT: note_off channel=1 note=40 velocity=100 time=0
EXTRACT: note_on channel=0 note=64 velocity=100 time=0.10752683333333334
EXTRACT: note_on channel=1 note=40 velocity=100 time=0
EXTRACT: note_on channel=9 note=42 velocity=100 time=0
EXTRACT: note_off channel=4 note=59 velocity=100 time=0
EXTRACT: note_on channel=4 note=64 velocity=100 time=0
EXTRACT: note_off channel=9 note=42 velocity=100 time=0.16129025
EXTRACT: note_off channel=1 note=40 velocity=64 time=0.05376341666666667
EXTRACT: note_off channel=1 note=40 velocity=100 time=0
EXTRACT: note_off channel=4 note=40 velocity=100 time=0
EXTRACT: note_on channel=1 note=40 velocity=100 time=0.10752683333333334
EXTRACT: note_on channel=9 note=37 velocity=100 time=0
EXTRACT: note_on channel=9 note=37 velocity=100 time=0
EXTRACT: note_on channel=9 note=42 velocity=100 time=0
EXTRACT: note_off channel=4 note=64 velocity=100 time=0
EXTRACT: note_on channel=4 note=64 velocity=100 time=0
EXTRACT: note_off channel=0 note=64 velocity=100 time=0.10752683333333334
EXTRACT: note_off channel=9 note=42 velocity=100 time=0.05376341666666667
EXTRACT: note_off channel=1 note=40 velocity=100 time=0.05376341666666667
EXTRACT: note_off channel=9 note=37 velocity=100 time=0
EXTRACT: note_off channel=9 note=37 velocity=100 time=0
EXTRACT: note_on channel=0 note=71 velocity=100 time=0.10752683333333334
EXTRACT: note_on channel=9 note=42 velocity=100 time=0
EXTRACT: note_off channel=4 note=64 velocity=100 time=0
EXTRACT: note_on channel=4 note=59 velocity=100 time=0
EXTRACT: note_off channel=9 note=42 velocity=100 time=0.16129025
EXTRACT: note_on channel=0 note=69 velocity=100 time=0.16129025
EXTRACT: note_on channel=1 note=31 velocity=100 time=0
EXTRACT: note_on channel=9 note=35 velocity=100 time=0
EXTRACT: note_on channel=9 note=35 velocity=100 time=0
EXTRACT: note_on channel=9 note=42 velocity=100 time=0
EXTRACT: note_off channel=4 note=59 velocity=64 time=0
EXTRACT: note_on channel=4 note=57 velocity=100 time=0
EXTRACT: note_off channel=0 note=71 velocity=100 time=0.10752683333333334
EXTRACT: note_off channel=9 note=42 velocity=100 time=0.05376341666666667
EXTRACT: note_off channel=1 note=31 velocity=100 time=0.05376341666666667
EXTRACT: note_off channel=9 note=35 velocity=100 time=0
EXTRACT: note_off channel=9 note=35 velocity=100 time=0
EXTRACT: note_on channel=0 note=71 velocity=100 time=0.10752683333333334
EXTRACT: note_on channel=1 note=47 velocity=100 time=0
EXTRACT: note_on channel=1 note=33 velocity=100 time=0
EXTRACT: note_on channel=9 note=35 velocity=100 time=0
EXTRACT: note_on channel=9 note=35 velocity=100 time=0
EXTRACT: note_on channel=9 note=42 velocity=100 time=0
EXTRACT: note_off channel=4 note=57 velocity=100 time=0
EXTRACT: note_on channel=4 note=47 velocity=100 time=0
EXTRACT: note_off channel=0 note=69 velocity=100 time=0.10752683333333334
EXTRACT: note_off channel=9 note=42 velocity=100 time=0.05376341666666667
EXTRACT: note_off channel=1 note=33 velocity=100 time=0.05376341666666667
EXTRACT: note_off channel=9 note=35 velocity=100 time=0
EXTRACT: note_off channel=9 note=35 velocity=100 time=0
EXTRACT: note_on channel=0 note=67 velocity=100 time=0.10752683333333334
EXTRACT: note_on channel=9 note=42 velocity=100 time=0
EXTRACT: note_on channel=4 note=59 velocity=100 time=0
EXTRACT: note_off channel=0 note=71 velocity=100 time=0.10752683333333334
EXTRACT: note_off channel=9 note=42 velocity=100 time=0.05376341666666667
EXTRACT: note_on channel=9 note=42 velocity=100 time=0.16129025
EXTRACT: note_off channel=4 note=59 velocity=100 time=0
EXTRACT: note_on channel=4 note=66 velocity=100 time=0
EXTRACT: note_off channel=0 note=67 velocity=100 time=0.10752683333333334
EXTRACT: note_off channel=9 note=42 velocity=100 time=0.05376341666666667
EXTRACT: note_on channel=9 note=37 velocity=100 time=0.16129025
EXTRACT: note_on channel=9 note=37 velocity=100 time=0
EXTRACT: note_on channel=9 note=42 velocity=100 time=0
EXTRACT: note_off channel=4 note=66 velocity=100 time=0
EXTRACT: note_on channel=4 note=66 velocity=100 time=0
EXTRACT: note_off channel=1 note=47 velocity=64 time=0.11424726041666666
EXTRACT: note_off channel=4 note=47 velocity=100 time=0
EXTRACT: note_off channel=9 note=42 velocity=100 time=0.04704298958333333
EXTRACT: note_off channel=9 note=37 velocity=100 time=0.05376341666666667
EXTRACT: note_off channel=9 note=37 velocity=100 time=0
EXTRACT: note_on channel=9 note=42 velocity=100 time=0.10752683333333334
EXTRACT: note_off channel=4 note=66 velocity=100 time=0
EXTRACT: note_on channel=4 note=59 velocity=100 time=0
EXTRACT: note_off channel=9 note=42 velocity=100 time=0.16129025
EXTRACT: note_on channel=0 note=62 velocity=100 time=0.16129025
EXTRACT: note_on channel=1 note=33 velocity=100 time=0
EXTRACT: note_on channel=9 note=42 velocity=100 time=0
EXTRACT: note_off channel=4 note=59 velocity=100 time=0
EXTRACT: note_on channel=4 note=57 velocity=100 time=0
EXTRACT: note_off channel=9 note=42 velocity=100 time=0.16129025
EXTRACT: note_off channel=1 note=33 velocity=100 time=0.05376341666666667
EXTRACT: note_off channel=0 note=62 velocity=64 time=0.10752683333333334
EXTRACT: note_on channel=0 note=64 velocity=100 time=0
EXTRACT: note_on channel=1 note=40 velocity=100 time=0
EXTRACT: note_on channel=1 note=28 velocity=100 time=0
EXTRACT: note_on channel=9 note=35 velocity=100 time=0
EXTRACT: note_on channel=9 note=35 velocity=100 time=0
EXTRACT: note_on channel=9 note=42 velocity=100 time=0
EXTRACT: note_off channel=4 note=57 velocity=100 time=0
EXTRACT: note_on channel=4 note=40 velocity=100 time=0
EXTRACT: note_off channel=9 note=42 velocity=100 time=0.16129025
EXTRACT: note_off channel=1 note=28 velocity=100 time=0.05376341666666667
EXTRACT: note_off channel=9 note=35 velocity=100 time=0
EXTRACT: note_off channel=9 note=35 velocity=100 time=0
EXTRACT: note_on channel=1 note=40 velocity=100 time=0.10752683333333334
EXTRACT: note_on channel=9 note=42 velocity=100 time=0
EXTRACT: note_on channel=4 note=59 velocity=100 time=0
EXTRACT: note_off channel=0 note=64 velocity=100 time=0.10752683333333334
EXTRACT: note_off channel=9 note=42 velocity=100 time=0.05376341666666667
EXTRACT: note_off channel=1 note=40 velocity=100 time=0.05376341666666667
EXTRACT: note_on channel=1 note=40 velocity=100 time=0.10752683333333334
EXTRACT: note_on channel=9 note=42 velocity=100 time=0
EXTRACT: note_off channel=4 note=59 velocity=100 time=0
EXTRACT: note_on channel=4 note=64 velocity=100 time=0
EXTRACT: note_off channel=9 note=42 velocity=100 time=0.16129025
EXTRACT: note_off channel=1 note=40 velocity=100 time=0.05376341666666667
EXTRACT: note_off channel=1 note=40 velocity=100 time=0
EXTRACT: note_off channel=4 note=40 velocity=64 time=0
EXTRACT: note_on channel=1 note=40 velocity=100 time=0.10752683333333334
EXTRACT: note_on channel=9 note=37 velocity=100 time=0
EXTRACT: note_on channel=9 note=37 velocity=100 time=0
EXTRACT: note_on channel=9 note=42 velocity=100 time=0
EXTRACT: note_off channel=4 note=64 velocity=100 time=0
EXTRACT: note_on channel=4 note=64 velocity=100 time=0
EXTRACT: note_off channel=9 note=42 velocity=100 time=0.16129025
EXTRACT: note_off channel=1 note=40 velocity=100 time=0.05376341666666667
EXTRACT: note_off channel=9 note=37 velocity=100 time=0
EXTRACT: note_off channel=9 note=37 velocity=100 time=0
EXTRACT: note_on channel=9 note=42 velocity=100 time=0.10752683333333334
EXTRACT: note_off channel=4 note=64 velocity=100 time=0
EXTRACT: note_on channel=4 note=59 velocity=100 time=0
EXTRACT: note_off channel=9 note=42 velocity=100 time=0.16129025
EXTRACT: note_on channel=0 note=64 velocity=100 time=0.16129025
EXTRACT: note_on channel=1 note=31 velocity=100 time=0
EXTRACT: note_on channel=9 note=35 velocity=100 time=0
EXTRACT: note_on channel=9 note=35 velocity=100 time=0
EXTRACT: note_on channel=9 note=42 velocity=100 time=0
EXTRACT: note_off channel=4 note=59 velocity=100 time=0
EXTRACT: note_on channel=4 note=57 velocity=100 time=0
EXTRACT: note_off channel=9 note=42 velocity=100 time=0.16129025
EXTRACT: note_off channel=1 note=31 velocity=100 time=0.05376341666666667
EXTRACT: note_off channel=9 note=35 velocity=100 time=0
EXTRACT: note_off channel=9 note=35 velocity=100 time=0
EXTRACT: note_on channel=0 note=67 velocity=100 time=0.10752683333333334
EXTRACT: note_on channel=1 note=47 velocity=100 time=0
EXTRACT: note_on channel=1 note=33 velocity=100 time=0
EXTRACT: note_on channel=9 note=35 velocity=100 time=0
EXTRACT: note_on channel=9 note=35 velocity=100 time=0
EXTRACT: note_on channel=9 note=42 velocity=100 time=0
EXTRACT: note_off channel=4 note=57 velocity=100 time=0
EXTRACT: note_on channel=4 note=47 velocity=100 time=0
EXTRACT: note_off channel=0 note=64 velocity=100 time=0.10752683333333334
EXTRACT: note_off channel=9 note=42 velocity=100 time=0.05376341666666667
EXTRACT: note_off channel=0 note=67 velocity=100 time=0.05376341666666667
EXTRACT: note_off channel=1 note=33 velocity=100 time=0
EXTRACT: note_off channel=9 note=35 velocity=100 time=0
EXTRACT: note_off channel=9 note=35 velocity=100 time=0
EXTRACT: note_off channel=1 note=47 velocity=64 time=0.86693509375
EXTRACT: note_off channel=4 note=47 velocity=64 time=0.645161
EXTRACT: note_on channel=0 note=59 velocity=100 time=0.5309137395833333
EXTRACT: note_on channel=1 note=28 velocity=100 time=0
EXTRACT: note_on channel=9 note=35 velocity=100 time=0
EXTRACT: note_on channel=9 note=42 velocity=100 time=0
EXTRACT: note_on channel=4 note=40 velocity=100 time=0
EXTRACT: note_on channel=6 note=59 velocity=100 time=0
EXTRACT: note_off channel=1 note=28 velocity=64 time=0.21505366666666667
EXTRACT: note_off channel=9 note=35 velocity=100 time=0
EXTRACT: note_off channel=9 note=42 velocity=100 time=0
EXTRACT: note_on channel=1 note=40 velocity=100 time=0.10752683333333334
EXTRACT: note_on channel=9 note=42 velocity=100 time=0
EXTRACT: note_on channel=4 note=59 velocity=100 time=0
EXTRACT: note_off channel=0 note=59 velocity=100 time=0.10752683333333334
EXTRACT: note_off channel=1 note=40 velocity=100 time=0.10752683333333334
EXTRACT: note_off channel=9 note=42 velocity=100 time=0
EXTRACT: note_on channel=1 note=40 velocity=100 time=0.10752683333333334
EXTRACT: note_on channel=9 note=42 velocity=100 time=0
EXTRACT: note_off channel=4 note=59 velocity=100 time=0
EXTRACT: note_on channel=4 note=64 velocity=100 time=0
EXTRACT: note_off channel=1 note=40 velocity=100 time=0.21505366666666667
EXTRACT: note_off channel=9 note=42 velocity=100 time=0
EXTRACT: note_off channel=4 note=40 velocity=100 time=0
EXTRACT: note_off channel=6 note=59 velocity=100 time=0
EXTRACT: note_on channel=0 note=64 velocity=100 time=0.10752683333333334
EXTRACT: note_on channel=1 note=40 velocity=100 time=0
EXTRACT: note_on channel=9 note=37 velocity=100 time=0
EXTRACT: note_on channel=9 note=42 velocity=100 time=0
EXTRACT: note_off channel=4 note=64 velocity=100 time=0
EXTRACT: note_on channel=4 note=64 velocity=100 time=0
EXTRACT: note_on channel=6 note=64 velocity=100 time=0
EXTRACT: note_off channel=9 note=42 velocity=100 time=0.16129025
EXTRACT: note_off channel=1 note=40 velocity=100 time=0.05376341666666667
EXTRACT: note_off channel=9 note=37 velocity=100 time=0
EXTRACT: note_on channel=9 note=42 velocity=100 time=0.10752683333333334
EXTRACT: note_off channel=4 note=64 velocity=100 time=0
EXTRACT: note_on channel=4 note=59 velocity=100 time=0
EXTRACT: note_off channel=0 note=64 velocity=100 time=0.10752683333333334
EXTRACT: note_off channel=9 note=42 velocity=100 time=0.05376341666666667
EXTRACT: note_on channel=1 note=31 velocity=100 time=0.16129025
EXTRACT: note_on channel=9 note=35 velocity=100 time=0
EXTRACT: note_on channel=9 note=42 velocity=100 time=0
EXTRACT: note_off channel=4 note=59 velocity=100 time=0
EXTRACT: note_on channel=4 note=57 velocity=100 time=0
EXTRACT: note_off channel=9 note=42 velocity=100 time=0.16129025
EXTRACT: note_off channel=1 note=31 velocity=100 time=0.05376341666666667
EXTRACT: note_off channel=9 note=35 velocity=100 time=0
EXTRACT: note_off channel=6 note=64 velocity=100 time=0
EXTRACT: note_on channel=0 note=62 velocity=100 time=0.10752683333333334
EXTRACT: note_on channel=1 note=47 velocity=100 time=0
EXTRACT: note_on channel=1 note=33 velocity=100 time=0
EXTRACT: note_on channel=9 note=35 velocity=100 time=0
EXTRACT: note_on channel=9 note=42 velocity=100 time=0
EXTRACT: note_off channel=4 note=57 velocity=100 time=0
EXTRACT: note_on channel=4 note=47 velocity=100 time=0
EXTRACT: note_on channel=6 note=62 velocity=100 time=0
EXTRACT: note_off channel=9 note=42 velocity=100 time=0.16129025
EXTRACT: note_off channel=1 note=33 velocity=100 time=0.05376341666666667
EXTRACT: note_off channel=9 note=35 velocity=100 time=0
EXTRACT: note_on channel=9 note=42 velocity=100 time=0.10752683333333334
EXTRACT: note_on channel=4 note=59 velocity=100 time=0
EXTRACT: note_off channel=0 note=62 velocity=100 time=0.10752683333333334
EXTRACT: note_off channel=9 note=42 velocity=100 time=0.05376341666666667
EXTRACT: note_on channel=9 note=42 velocity=100 time=0.16129025
EXTRACT: note_off channel=4 note=59 velocity=100 time=0
EXTRACT: note_on channel=4 note=66 velocity=100 time=0
EXTRACT: note_off channel=9 note=42 velocity=100 time=0.16129025
EXTRACT: note_off channel=6 note=62 velocity=100 time=0.05376341666666667
EXTRACT: note_on channel=0 note=66 velocity=100 time=0.10752683333333334
EXTRACT: note_on channel=9 note=37 velocity=100 time=0
EXTRACT: note_on channel=9 note=42 velocity=100 time=0
EXTRACT: note_off channel=4 note=66 velocity=64 time=0
EXTRACT: note_on channel=4 note=66 velocity=100 time=0
EXTRACT: note_on channel=6 note=66 velocity=100 time=0
EXTRACT: note_off channel=1 note=47 velocity=64 time=0.11424726041666666
EXTRACT: note_off channel=4 note=47 velocity=64 time=0
EXTRACT: note_off channel=9 note=42 velocity=100 time=0.04704298958333333
EXTRACT: note_off channel=9 note=37 velocity=100 time=0.05376341666666667
EXTRACT: note_on channel=9 note=42 velocity=100 time=0.10752683333333334
EXTRACT: note_off channel=4 note=66 velocity=100 time=0
EXTRACT: note_on channel=4 note=59 velocity=100 time=0
EXTRACT: note_off channel=0 note=66 velocity=100 time=0.10752683333333334
EXTRACT: note_off channel=9 note=42 velocity=100 time=0.05376341666666667
EXTRACT: note_on channel=1 note=33 velocity=100 time=0.16129025
EXTRACT: note_on channel=9 note=35 velocity=100 time=0
EXTRACT: note_on channel=9 note=42 velocity=100 time=0
EXTRACT: note_off channel=4 note=59 velocity=100 time=0
EXTRACT: note_on channel=4 note=57 velocity=100 time=0
EXTRACT: note_on channel=0 note=67 velocity=100 time=0.16129025
EXTRACT: note_off channel=9 note=42 velocity=100 time=0
EXTRACT: note_off channel=1 note=33 velocity=100 time=0.05376341666666667
EXTRACT: note_off channel=9 note=35 velocity=100 time=0
EXTRACT: note_off channel=6 note=66 velocity=64 time=0
EXTRACT: note_on channel=0 note=66 velocity=100 time=0.04704298958333333
EXTRACT: note_off channel=0 note=67 velocity=100 time=0.0067204270833333335
EXTRACT: note_on channel=0 note=67 velocity=100 time=0.05376341666666667
EXTRACT: note_on channel=1 note=40 velocity=100 time=0
EXTRACT: note_on channel=1 note=28 velocity=100 time=0
EXTRACT: note_on channel=9 note=35 velocity=100 time=0
EXTRACT: note_on channel=9 note=42 velocity=100 time=0
EXTRACT: note_off channel=4 note=57 velocity=100 time=0
EXTRACT: note_on channel=4 note=40 velocity=100 time=0
EXTRACT: note_on channel=6 note=67 velocity=100 time=0
EXTRACT: note_off channel=0 note=66 velocity=100 time=0.04704298958333333
EXTRACT: note_off channel=9 note=42 velocity=100 time=0.11424726041666666
EXTRACT: note_off channel=1 note=28 velocity=100 time=0.05376341666666667
EXTRACT: note_off channel=9 note=35 velocity=100 time=0
EXTRACT: note_off channel=0 note=67 velocity=100 time=0.10752683333333334
EXTRACT: note_on channel=1 note=40 velocity=100 time=0
EXTRACT: note_on channel=9 note=42 velocity=100 time=0
EXTRACT: note_on channel=4 note=59 velocity=100 time=0
EXTRACT: note_off channel=6 note=67 velocity=0 time=0
EXTRACT: note_off channel=9 note=42 velocity=100 time=0.16129025
EXTRACT: note_off channel=1 note=40 velocity=100 time=0.05376341666666667
EXTRACT: note_on channel=1 note=40 velocity=100 time=0.10752683333333334
EXTRACT: note_on channel=9 note=42 velocity=100 time=0
EXTRACT: note_off channel=4 note=40 velocity=100 time=0
EXTRACT: note_off channel=4 note=59 velocity=100 time=0
EXTRACT: note_on channel=4 note=64 velocity=100 time=0
EXTRACT: note_on channel=0 note=64 velocity=100 time=0.16129025
EXTRACT: note_off channel=9 note=42 velocity=100 time=0
EXTRACT: note_on channel=6 note=64 velocity=100 time=0
EXTRACT: note_off channel=1 note=40 velocity=100 time=0.05376341666666667
EXTRACT: note_off channel=1 note=40 velocity=100 time=0
EXTRACT: note_off channel=0 note=64 velocity=100 time=0.05376341666666667
EXTRACT: note_on channel=0 note=62 velocity=100 time=0.026881708333333334
EXTRACT: note_on channel=0 note=64 velocity=100 time=0.026881708333333334
EXTRACT: note_on channel=1 note=40 velocity=100 time=0
EXTRACT: note_on channel=9 note=37 velocity=100 time=0
EXTRACT: note_on channel=9 note=42 velocity=100 time=0
EXTRACT: note_off channel=4 note=64 velocity=100 time=0
EXTRACT: note_on channel=4 note=64 velocity=100 time=0
EXTRACT: note_off channel=0 note=62 velocity=100 time=0.080645125
EXTRACT: note_off channel=9 note=42 velocity=100 time=0.080645125
EXTRACT: note_off channel=1 note=40 velocity=100 time=0.05376341666666667
EXTRACT: note_off channel=9 note=37 velocity=100 time=0
EXTRACT: note_off channel=0 note=64 velocity=100 time=0.10752683333333334
EXTRACT: note_on channel=9 note=42 velocity=100 time=0
EXTRACT: note_off channel=4 note=64 velocity=100 time=0
EXTRACT: note_on channel=4 note=59 velocity=100 time=0
EXTRACT: note_off channel=9 note=42 velocity=100 time=0.16129025
EXTRACT: note_on channel=1 note=31 velocity=100 time=0.16129025
EXTRACT: note_on channel=9 note=35 velocity=100 time=0
EXTRACT: note_on channel=9 note=42 velocity=100 time=0
EXTRACT: note_off channel=4 note=59 velocity=64 time=0
EXTRACT: note_on channel=4 note=57 velocity=100 time=0
EXTRACT: note_off channel=6 note=64 velocity=100 time=0.05376341666666667
EXTRACT: note_on channel=0 note=59 velocity=100 time=0.02016128125
EXTRACT: note_on channel=0 note=57 velocity=100 time=0.06048384375
EXTRACT: note_off channel=9 note=42 velocity=100 time=0.026881708333333334
EXTRACT: note_on channel=6 note=59 velocity=100 time=0
EXTRACT: note_off channel=0 note=59 velocity=100 time=0.02016128125
EXTRACT: note_off channel=1 note=31 velocity=100 time=0.033602135416666665
EXTRACT: note_off channel=9 note=35 velocity=100 time=0
EXTRACT: note_off channel=0 note=57 velocity=100 time=0.026881708333333334
EXTRACT: note_on channel=0 note=59 velocity=100 time=0.02016128125
EXTRACT: note_on channel=1 note=47 velocity=100 time=0.06048384375
EXTRACT: note_on channel=1 note=33 velocity=100 time=0
EXTRACT: note_on channel=9 note=35 velocity=100 time=0
EXTRACT: note_on channel=9 note=42 velocity=100 time=0
EXTRACT: note_off channel=4 note=57 velocity=100 time=0
EXTRACT: note_on channel=4 note=47 velocity=100 time=0
EXTRACT: note_off channel=9 note=42 velocity=100 time=0.16129025
EXTRACT: note_off channel=1 note=33 velocity=100 time=0.05376341666666667
EXTRACT: note_off channel=9 note=35 velocity=100 time=0
EXTRACT: note_off channel=0 note=59 velocity=100 time=0.04704298958333333
EXTRACT: note_off channel=1 note=47 velocity=64 time=0.06048384375
EXTRACT: note_on channel=9 note=42 velocity=100 time=0
EXTRACT: note_on channel=4 note=59 velocity=100 time=0
EXTRACT: note_off channel=9 note=42 velocity=100 time=0.16129025
EXTRACT: note_on channel=9 note=42 velocity=100 time=0.16129025
EXTRACT: note_off channel=4 note=59 velocity=100 time=0
EXTRACT: note_on channel=4 note=66 velocity=100 time=0
EXTRACT: note_off channel=6 note=59 velocity=64 time=0.05376341666666667
EXTRACT: note_off channel=9 note=42 velocity=100 time=0.10752683333333334
EXTRACT: note_on channel=0 note=54 velocity=100 time=0.16129025
EXTRACT: note_on channel=9 note=37 velocity=100 time=0
EXTRACT: note_on channel=9 note=42 velocity=100 time=0
EXTRACT: note_off channel=4 note=66 velocity=100 time=0
EXTRACT: note_on channel=4 note=66 velocity=100 time=0
EXTRACT: note_on channel=6 note=54 velocity=100 time=0
EXTRACT: note_off channel=4 note=47 velocity=100 time=0.11424726041666666
EXTRACT: note_off channel=9 note=42 velocity=100 time=0.04704298958333333
EXTRACT: note_off channel=9 note=37 velocity=100 time=0.05376341666666667
EXTRACT: note_on channel=9 note=42 velocity=100 time=0.10752683333333334
EXTRACT: note_off channel=4 note=66 velocity=100 time=0
EXTRACT: note_on channel=4 note=59 velocity=100 time=0
EXTRACT: note_off channel=0 note=54 velocity=100 time=0.10752683333333334
EXTRACT: note_off channel=6 note=54 velocity=100 time=0
EXTRACT: note_off channel=9 note=42 velocity=100 time=0.10752683333333334
EXTRACT: note_on channel=1 note=33 velocity=100 time=0.10752683333333334
EXTRACT: note_on channel=9 note=42 velocity=100 time=0
EXTRACT: note_off channel=4 note=59 velocity=100 time=0
EXTRACT: note_on channel=4 note=57 velocity=100 time=0
EXTRACT: note_off channel=1 note=33 velocity=100 time=0.21505366666666667
EXTRACT: note_off channel=9 note=42 velocity=100 time=0
EXTRACT: note_on channel=0 note=59 velocity=100 time=0.10752683333333334
EXTRACT: note_on channel=1 note=40 velocity=100 time=0
EXTRACT: note_on channel=1 note=28 velocity=100 time=0
EXTRACT: note_on channel=9 note=35 velocity=100 time=0
EXTRACT: note_on channel=9 note=42 velocity=100 time=0
EXTRACT: note_off channel=4 note=57 velocity=100 time=0
EXTRACT: note_on channel=4 note=40 velocity=100 time=0
EXTRACT: note_on channel=6 note=59 velocity=100 time=0
EXTRACT: note_off channel=9 note=42 velocity=100 time=0.16129025
EXTRACT: note_off channel=1 note=28 velocity=100 time=0.05376341666666667
EXTRACT: note_off channel=9 note=35 velocity=100 time=0
EXTRACT: note_on channel=1 note=40 velocity=100 time=0.10752683333333334
EXTRACT: note_on channel=9 note=42 velocity=100 time=0
EXTRACT: note_on channel=4 note=59 velocity=100 time=0
EXTRACT: note_off channel=0 note=59 velocity=100 time=0.10752683333333334
EXTRACT: note_off channel=9 note=42 velocity=100 time=0.05376341666666667
EXTRACT: note_off channel=1 note=40 velocity=64 time=0.05376341666666667
EXTRACT: note_on channel=1 note=40 velocity=100 time=0.10752683333333334
EXTRACT: note_on channel=9 note=42 velocity=100 time=0
EXTRACT: note_off channel=4 note=59 velocity=100 time=0
EXTRACT: note_on channel=4 note=64 velocity=100 time=0
EXTRACT: note_off channel=9 note=42 velocity=100 time=0.16129025
EXTRACT: note_off channel=1 note=40 velocity=64 time=0.05376341666666667
EXTRACT: note_off channel=1 note=40 velocity=100 time=0
EXTRACT: note_off channel=4 note=40 velocity=100 time=0
EXTRACT: note_off channel=6 note=59 velocity=100 time=0
EXTRACT: note_on channel=0 note=64 velocity=100 time=0.10752683333333334
EXTRACT: note_on channel=1 note=40 velocity=100 time=0
EXTRACT: note_on channel=9 note=37 velocity=100 time=0
EXTRACT: note_on channel=9 note=42 velocity=100 time=0
EXTRACT: note_off channel=4 note=64 velocity=100 time=0
EXTRACT: note_on channel=4 note=64 velocity=100 time=0
EXTRACT: note_on channel=6 note=64 velocity=100 time=0
EXTRACT: note_off channel=9 note=42 velocity=100 time=0.16129025
EXTRACT: note_off channel=1 note=40 velocity=100 time=0.05376341666666667
EXTRACT: note_off channel=9 note=37 velocity=100 time=0
EXTRACT: note_on channel=9 note=42 velocity=100 time=0.10752683333333334
EXTRACT: note_off channel=4 note=64 velocity=100 time=0
EXTRACT: note_on channel=4 note=59 velocity=100 time=0
EXTRACT: note_off channel=0 note=64 velocity=100 time=0.10752683333333334
EXTRACT: note_off channel=9 note=42 velocity=100 time=0.05376341666666667
EXTRACT: note_on channel=1 note=31 velocity=100 time=0.16129025
EXTRACT: note_on channel=9 note=35 velocity=100 time=0
EXTRACT: note_on channel=9 note=42 velocity=100 time=0
EXTRACT: note_off channel=4 note=59 velocity=64 time=0
EXTRACT: note_on channel=4 note=57 velocity=100 time=0
EXTRACT: note_off channel=9 note=42 velocity=100 time=0.16129025
EXTRACT: note_off channel=1 note=31 velocity=100 time=0.05376341666666667
EXTRACT: note_off channel=9 note=35 velocity=100 time=0
EXTRACT: note_off channel=6 note=64 velocity=100 time=0
EXTRACT: note_on channel=0 note=62 velocity=100 time=0.10752683333333334
EXTRACT: note_on channel=1 note=47 velocity=100 time=0
EXTRACT: note_on channel=1 note=33 velocity=100 time=0
EXTRACT: note_on channel=9 note=35 velocity=100 time=0
EXTRACT: note_on channel=9 note=42 velocity=100 time=0
EXTRACT: note_off channel=4 note=57 velocity=100 time=0
EXTRACT: note_on channel=4 note=47 velocity=100 time=0
EXTRACT: note_on channel=6 note=62 velocity=100 time=0
EXTRACT: note_off channel=9 note=42 velocity=100 time=0.16129025
EXTRACT: note_off channel=1 note=33 velocity=100 time=0.05376341666666667
EXTRACT: note_off channel=9 note=35 velocity=100 time=0
EXTRACT: note_on channel=9 note=42 velocity=100 time=0.10752683333333334
EXTRACT: note_on channel=4 note=59 velocity=100 time=0
EXTRACT: note_off channel=0 note=62 velocity=100 time=0.10752683333333334
EXTRACT: note_off channel=9 note=42 velocity=100 time=0.10752683333333334
EXTRACT: note_on channel=9 note=42 velocity=100 time=0.10752683333333334
EXTRACT: note_off channel=4 note=59 velocity=100 time=0
EXTRACT: note_on channel=4 note=66 velocity=100 time=0
EXTRACT: note_off channel=9 note=42 velocity=100 time=0.21505366666666667
EXTRACT: note_off channel=6 note=62 velocity=100 time=0
EXTRACT: note_on channel=0 note=66 velocity=100 time=0.10752683333333334
EXTRACT: note_on channel=9 note=37 velocity=100 time=0
EXTRACT: note_on channel=9 note=42 velocity=100 time=0
EXTRACT: note_off channel=4 note=66 velocity=100 time=0
EXTRACT: note_on channel=4 note=66 velocity=100 time=0
EXTRACT: note_on channel=6 note=66 velocity=100 time=0
EXTRACT: note_off channel=1 note=47 velocity=64 time=0.11424726041666666
EXTRACT: note_off channel=4 note=47 velocity=64 time=0
EXTRACT: note_off channel=9 note=37 velocity=100 time=0.10080640625000001
EXTRACT: note_off channel=9 note=42 velocity=100 time=0
EXTRACT: note_on channel=9 note=42 velocity=100 time=0.10752683333333334
EXTRACT: note_off channel=4 note=66 velocity=100 time=0
EXTRACT: note_on channel=4 note=59 velocity=100 time=0
EXTRACT: note_off channel=0 note=66 velocity=100 time=0.10752683333333334
EXTRACT: note_off channel=9 note=42 velocity=100 time=0.10752683333333334
EXTRACT: note_on channel=1 note=33 velocity=100 time=0.10752683333333334
EXTRACT: note_on channel=9 note=35 velocity=100 time=0
EXTRACT: note_on channel=9 note=42 velocity=100 time=0
EXTRACT: note_off channel=4 note=59 velocity=100 time=0
EXTRACT: note_on channel=4 note=57 velocity=100 time=0
EXTRACT: note_on channel=0 note=67 velocity=100 time=0.16129025
EXTRACT: note_off channel=1 note=33 velocity=100 time=0.05376341666666667
EXTRACT: note_off channel=9 note=35 velocity=100 time=0
EXTRACT: note_off channel=9 note=42 velocity=100 time=0
EXTRACT: note_off channel=6 note=66 velocity=64 time=0
EXTRACT: note_on channel=0 note=66 velocity=100 time=0.04704298958333333
EXTRACT: note_off channel=0 note=67 velocity=100 time=0.0067204270833333335
EXTRACT: note_on channel=0 note=67 velocity=100 time=0.05376341666666667
EXTRACT: note_on channel=1 note=40 velocity=100 time=0
EXTRACT: note_on channel=1 note=28 velocity=100 time=0
EXTRACT: note_on channel=9 note=35 velocity=100 time=0
EXTRACT: note_on channel=9 note=42 velocity=100 time=0
EXTRACT: note_off channel=4 note=57 velocity=100 time=0
EXTRACT: note_on channel=4 note=40 velocity=100 time=0
EXTRACT: note_on channel=6 note=67 velocity=100 time=0
EXTRACT: note_off channel=0 note=66 velocity=100 time=0.04704298958333333
EXTRACT: note_off channel=1 note=28 velocity=100 time=0.16801067708333334
EXTRACT: note_off channel=9 note=35 velocity=100 time=0
EXTRACT: note_off channel=9 note=42 velocity=100 time=0
EXTRACT: note_off channel=0 note=67 velocity=100 time=0.10752683333333334
EXTRACT: note_on channel=1 note=40 velocity=100 time=0
EXTRACT: note_on channel=9 note=42 velocity=100 time=0
EXTRACT: note_on channel=4 note=64 velocity=100 time=0
EXTRACT: note_on channel=4 note=59 velocity=100 time=0
EXTRACT: note_off channel=1 note=40 velocity=100 time=0.21505366666666667
EXTRACT: note_off channel=1 note=40 velocity=100 time=0
EXTRACT: note_off channel=9 note=42 velocity=100 time=0
EXTRACT: note_on channel=1 note=40 velocity=100 time=0.10752683333333334
EXTRACT: note_on channel=9 note=42 velocity=100 time=0
EXTRACT: note_off channel=4 note=64 velocity=100 time=0
EXTRACT: note_off channel=4 note=59 velocity=100 time=0
EXTRACT: note_on channel=4 note=64 velocity=100 time=0
EXTRACT: note_on channel=0 note=64 velocity=100 time=0.16129025
EXTRACT: note_on channel=6 note=64 velocity=100 time=0
EXTRACT: note_off channel=1 note=40 velocity=100 time=0.05376341666666667
EXTRACT: note_off channel=9 note=42 velocity=100 time=0
EXTRACT: note_off channel=4 note=40 velocity=100 time=0
EXTRACT: note_off channel=6 note=67 velocity=100 time=0
EXTRACT: note_off channel=0 note=64 velocity=100 time=0.05376341666666667
EXTRACT: note_on channel=0 note=62 velocity=100 time=0.026881708333333334
EXTRACT: note_on channel=0 note=64 velocity=100 time=0.026881708333333334
EXTRACT: note_on channel=1 note=40 velocity=100 time=0
EXTRACT: note_on channel=9 note=37 velocity=100 time=0
EXTRACT: note_on channel=9 note=42 velocity=100 time=0
EXTRACT: note_off channel=4 note=64 velocity=100 time=0
EXTRACT: note_on channel=4 note=64 velocity=100 time=0
EXTRACT: note_off channel=0 note=62 velocity=100 time=0.080645125
EXTRACT: note_off channel=1 note=40 velocity=100 time=0.13440854166666666
EXTRACT: note_off channel=9 note=37 velocity=100 time=0
EXTRACT: note_off channel=9 note=42 velocity=100 time=0
EXTRACT: note_off channel=0 note=64 velocity=100 time=0.10752683333333334
EXTRACT: note_on channel=9 note=42 velocity=100 time=0
EXTRACT: note_off channel=4 note=64 velocity=100 time=0
EXTRACT: note_on channel=4 note=59 velocity=100 time=0
EXTRACT: note_off channel=9 note=42 velocity=100 time=0.16129025
EXTRACT: note_on channel=1 note=31 velocity=100 time=0.16129025
EXTRACT: note_on channel=9 note=35 velocity=100 time=0
EXTRACT: note_on channel=9 note=42 velocity=100 time=0
EXTRACT: note_off channel=4 note=59 velocity=100 time=0
EXTRACT: note_on channel=4 note=57 velocity=100 time=0
EXTRACT: note_off channel=6 note=64 velocity=100 time=0.05376341666666667
EXTRACT: note_on channel=0 note=59 velocity=100 time=0.02016128125
EXTRACT: note_on channel=0 note=57 velocity=100 time=0.06048384375
EXTRACT: note_on channel=5 note=59 velocity=100 time=0.026881708333333334
EXTRACT: note_on channel=5 note=59 velocity=100 time=0
EXTRACT: note_on channel=6 note=59 velocity=100 time=0
EXTRACT: note_on channel=6 note=59 velocity=100 time=0
EXTRACT: note_off channel=0 note=59 velocity=100 time=0.02016128125
EXTRACT: note_off channel=1 note=31 velocity=100 time=0.033602135416666665
EXTRACT: note_off channel=9 note=35 velocity=100 time=0
EXTRACT: note_off channel=9 note=42 velocity=100 time=0
EXTRACT: note_off channel=0 note=57 velocity=100 time=0.026881708333333334
EXTRACT: note_on channel=0 note=59 velocity=100 time=0.02016128125
EXTRACT: note_on channel=1 note=47 velocity=100 time=0.06048384375
EXTRACT: note_on channel=1 note=33 velocity=100 time=0
EXTRACT: note_on channel=9 note=35 velocity=100 time=0
EXTRACT: note_on channel=9 note=42 velocity=100 time=0
EXTRACT: note_off channel=4 note=57 velocity=100 time=0
EXTRACT: note_on channel=4 note=47 velocity=100 time=0
EXTRACT: note_on channel=0 note=59 velocity=100 time=0.16129025
EXTRACT: note_off channel=9 note=42 velocity=100 time=0
EXTRACT: note_on channel=5 note=60 velocity=100 time=0
EXTRACT: note_on channel=6 note=60 velocity=100 time=0
EXTRACT: note_off channel=1 note=33 velocity=100 time=0.05376341666666667
EXTRACT: note_off channel=9 note=35 velocity=100 time=0
EXTRACT: note_off channel=0 note=59 velocity=100 time=0.04704298958333333
EXTRACT: note_off channel=5 note=59 velocity=100 time=0.0067204270833333335
EXTRACT: note_off channel=6 note=59 velocity=100 time=0
EXTRACT: note_on channel=0 note=60 velocity=100 time=0.05376341666666667
EXTRACT: note_on channel=9 note=35 velocity=100 time=0
EXTRACT: note_on channel=9 note=42 velocity=100 time=0
EXTRACT: note_on channel=4 note=59 velocity=100 time=0
EXTRACT: note_off channel=5 note=60 velocity=64 time=0.05376341666666667
EXTRACT: note_off channel=6 note=60 velocity=64 time=0
EXTRACT: note_off channel=0 note=59 velocity=100 time=0.05376341666666667
EXTRACT: note_off channel=9 note=42 velocity=100 time=0.05376341666666667
EXTRACT: note_on channel=5 note=62 velocity=100 time=0
EXTRACT: note_on channel=6 note=62 velocity=100 time=0
EXTRACT: note_off channel=0 note=60 velocity=100 time=0.05376341666666667
EXTRACT: note_off channel=9 note=35 velocity=100 time=0
EXTRACT: note_on channel=0 note=62 velocity=100 time=0.10752683333333334
EXTRACT: note_on channel=9 note=35 velocity=100 time=0
EXTRACT: note_on channel=9 note=42 velocity=100 time=0
EXTRACT: note_off channel=4 note=59 velocity=100 time=0
EXTRACT: note_on channel=4 note=66 velocity=100 time=0
EXTRACT: note_off channel=5 note=59 velocity=64 time=0.05376341666666667
EXTRACT: note_off channel=6 note=59 velocity=64 time=0
EXTRACT: note_off channel=9 note=42 velocity=100 time=0.10752683333333334
EXTRACT: note_off channel=5 note=62 velocity=100 time=0
EXTRACT: note_on channel=5 note=62 velocity=100 time=0
EXTRACT: note_off channel=6 note=62 velocity=100 time=0
EXTRACT: note_on channel=6 note=62 velocity=100 time=0
EXTRACT: note_off channel=9 note=35 velocity=100 time=0.05376341666666667
EXTRACT: note_off channel=0 note=62 velocity=100 time=0.10752683333333334
EXTRACT: note_on channel=0 note=62 velocity=100 time=0
EXTRACT: note_on channel=0 note=54 velocity=100 time=0
EXTRACT: note_on channel=9 note=35 velocity=100 time=0
EXTRACT: note_on channel=9 note=37 velocity=100 time=0
EXTRACT: note_on channel=9 note=42 velocity=100 time=0
EXTRACT: note_off channel=4 note=66 velocity=64 time=0
EXTRACT: note_on channel=4 note=66 velocity=100 time=0
EXTRACT: note_on channel=5 note=54 velocity=100 time=0
EXTRACT: note_on channel=6 note=54 velocity=100 time=0
EXTRACT: note_off channel=5 note=62 velocity=100 time=0.05376341666666667
EXTRACT: note_off channel=6 note=62 velocity=100 time=0
EXTRACT: note_off channel=1 note=47 velocity=64 time=0.06048384375
EXTRACT: note_off channel=4 note=47 velocity=64 time=0
EXTRACT: note_off channel=9 note=42 velocity=100 time=0.04704298958333333
EXTRACT: note_on channel=5 note=64 velocity=100 time=0
EXTRACT: note_on channel=6 note=64 velocity=100 time=0
EXTRACT: note_off channel=0 note=62 velocity=100 time=0.05376341666666667
EXTRACT: note_off channel=0 note=54 velocity=100 time=0
EXTRACT: note_off channel=9 note=35 velocity=100 time=0
EXTRACT: note_off channel=9 note=37 velocity=100 time=0
EXTRACT: note_on channel=0 note=64 velocity=100 time=0.10752683333333334
EXTRACT: note_on channel=9 note=35 velocity=100 time=0
EXTRACT: note_on channel=9 note=42 velocity=100 time=0
EXTRACT: note_off channel=4 note=66 velocity=100 time=0
EXTRACT: note_on channel=4 note=59 velocity=100 time=0
EXTRACT: note_off channel=5 note=64 velocity=100 time=0.05376341666666667
EXTRACT: note_off channel=6 note=64 velocity=100 time=0
EXTRACT: note_off channel=5 note=54 velocity=100 time=0.05376341666666667
EXTRACT: note_off channel=6 note=54 velocity=100 time=0
EXTRACT: note_on channel=5 note=67 velocity=100 time=0.05376341666666667
EXTRACT: note_on channel=6 note=67 velocity=100 time=0
EXTRACT: note_off channel=0 note=64 velocity=100 time=0.05376341666666667
EXTRACT: note_off channel=9 note=35 velocity=100 time=0
EXTRACT: note_off channel=9 note=42 velocity=100 time=0
EXTRACT: note_on channel=0 note=67 velocity=100 time=0.10752683333333334
EXTRACT: note_on channel=1 note=33 velocity=100 time=0
EXTRACT: note_on channel=9 note=35 velocity=100 time=0
EXTRACT: note_on channel=9 note=42 velocity=100 time=0
EXTRACT: note_off channel=4 note=59 velocity=100 time=0
EXTRACT: note_on channel=4 note=57 velocity=100 time=0
EXTRACT: note_off channel=5 note=67 velocity=100 time=0.05376341666666667
EXTRACT: note_off channel=6 note=67 velocity=100 time=0
EXTRACT: note_on channel=5 note=67 velocity=100 time=0.10752683333333334
EXTRACT: note_on channel=7 note=59 velocity=100 time=0
EXTRACT: note_on channel=7 note=76 velocity=100 time=0
EXTRACT: note_on channel=7 note=83 velocity=100 time=0
EXTRACT: note_on channel=7 note=64 velocity=100 time=0
EXTRACT: note_on channel=7 note=71 velocity=100 time=0
EXTRACT: note_off channel=0 note=67 velocity=100 time=0.05376341666666667
EXTRACT: note_off channel=1 note=33 velocity=100 time=0
EXTRACT: note_off channel=9 note=35 velocity=100 time=0
EXTRACT: note_off channel=9 note=42 velocity=100 time=0
EXTRACT: note_on channel=0 note=67 velocity=100 time=0.10752683333333334
EXTRACT: note_on channel=1 note=40 velocity=100 time=0
EXTRACT: note_on channel=1 note=28 velocity=100 time=0
EXTRACT: note_on channel=9 note=35 velocity=100 time=0
EXTRACT: note_on channel=9 note=42 velocity=100 time=0
EXTRACT: note_off channel=4 note=57 velocity=100 time=0
EXTRACT: note_on channel=4 note=40 velocity=100 time=0
EXTRACT: note_off channel=1 note=28 velocity=100 time=0.21505366666666667
EXTRACT: note_off channel=9 note=35 velocity=100 time=0
EXTRACT: note_off channel=9 note=42 velocity=100 time=0
EXTRACT: note_on channel=1 note=40 velocity=100 time=0.10752683333333334
EXTRACT: note_on channel=9 note=42 velocity=100 time=0
EXTRACT: note_on channel=4 note=59 velocity=100 time=0
EXTRACT: note_off channel=5 note=67 velocity=0 time=0
EXTRACT: note_off channel=0 note=67 velocity=100 time=0.10752683333333334
EXTRACT: note_on channel=5 note=64 velocity=100 time=0.05376341666666667
EXTRACT: note_on channel=6 note=64 velocity=100 time=0
EXTRACT: note_off channel=1 note=40 velocity=100 time=0.05376341666666667
EXTRACT: note_off channel=9 note=42 velocity=100 time=0
EXTRACT: note_on channel=0 note=64 velocity=100 time=0.10752683333333334
EXTRACT: note_on channel=1 note=40 velocity=100 time=0
EXTRACT: note_on channel=9 note=35 velocity=100 time=0
EXTRACT: note_on channel=9 note=42 velocity=100 time=0
EXTRACT: note_off channel=4 note=59 velocity=100 time=0
EXTRACT: note_on channel=4 note=64 velocity=100 time=0
EXTRACT: note_off channel=1 note=40 velocity=64 time=0.21505366666666667
EXTRACT: note_off channel=1 note=40 velocity=64 time=0
EXTRACT: note_off channel=9 note=35 velocity=100 time=0
EXTRACT: note_off channel=9 note=42 velocity=100 time=0
EXTRACT: note_off channel=4 note=40 velocity=64 time=0
EXTRACT: note_off channel=5 note=64 velocity=100 time=0.05376341666666667
EXTRACT: note_off channel=7 note=64 velocity=100 time=0
EXTRACT: note_on channel=1 note=40 velocity=100 time=0.05376341666666667
EXTRACT: note_on channel=9 note=37 velocity=100 time=0
EXTRACT: note_on channel=9 note=55 velocity=100 time=0
EXTRACT: note_on channel=9 note=42 velocity=100 time=0
EXTRACT: note_off channel=4 note=64 velocity=100 time=0
EXTRACT: note_on channel=4 note=64 velocity=100 time=0
EXTRACT: note_off channel=7 note=59 velocity=100 time=0
EXTRACT: note_on channel=7 note=71 velocity=100 time=0
EXTRACT: note_on channel=7 note=83 velocity=100 time=0
EXTRACT: note_on channel=7 note=76 velocity=100 time=0
EXTRACT: note_off channel=0 note=64 velocity=100 time=0.10752683333333334
EXTRACT: note_off channel=9 note=55 velocity=100 time=0
EXTRACT: note_off channel=9 note=42 velocity=100 time=0.05376341666666667
EXTRACT: note_on channel=5 note=71 velocity=100 time=0
EXTRACT: note_on channel=6 note=71 velocity=100 time=0
EXTRACT: note_off channel=1 note=40 velocity=100 time=0.05376341666666667
EXTRACT: note_off channel=9 note=37 velocity=100 time=0
EXTRACT: note_on channel=0 note=71 velocity=100 time=0.10752683333333334
EXTRACT: note_on channel=9 note=42 velocity=100 time=0
EXTRACT: note_off channel=4 note=64 velocity=100 time=0
EXTRACT: note_on channel=4 note=59 velocity=100 time=0
EXTRACT: note_off channel=9 note=42 velocity=100 time=0.16129025
EXTRACT: note_on channel=5 note=69 velocity=100 time=0
EXTRACT: note_on channel=6 note=69 velocity=100 time=0
EXTRACT: note_off channel=5 note=71 velocity=100 time=0.10752683333333334
EXTRACT: note_off channel=7 note=71 velocity=64 time=0
EXTRACT: note_off channel=7 note=71 velocity=64 time=0
EXTRACT: note_on channel=0 note=69 velocity=100 time=0.05376341666666667
EXTRACT: note_on channel=1 note=31 velocity=100 time=0
EXTRACT: note_on channel=9 note=35 velocity=100 time=0
EXTRACT: note_on channel=9 note=53 velocity=100 time=0
EXTRACT: note_on channel=9 note=42 velocity=100 time=0
EXTRACT: note_off channel=4 note=59 velocity=64 time=0
EXTRACT: note_on channel=4 note=57 velocity=100 time=0
EXTRACT: note_off channel=0 note=71 velocity=100 time=0.10752683333333334
EXTRACT: note_off channel=9 note=53 velocity=100 time=0
EXTRACT: note_off channel=9 note=42 velocity=100 time=0.05376341666666667
EXTRACT: note_on channel=5 note=71 velocity=100 time=0
EXTRACT: note_on channel=6 note=71 velocity=100 time=0
EXTRACT: note_off channel=1 note=31 velocity=100 time=0.05376341666666667
EXTRACT: note_off channel=9 note=35 velocity=100 time=0
EXTRACT: note_off channel=5 note=69 velocity=100 time=0.05376341666666667
EXTRACT: note_off channel=6 note=69 velocity=100 time=0
EXTRACT: note_on channel=0 note=71 velocity=100 time=0.05376341666666667
EXTRACT: note_on channel=1 note=33 velocity=100 time=0
EXTRACT: note_on channel=9 note=35 velocity=100 time=0
EXTRACT: note_on channel=9 note=53 velocity=100 time=0
EXTRACT: note_on channel=9 note=42 velocity=100 time=0
EXTRACT: note_off channel=4 note=57 velocity=100 time=0
EXTRACT: note_on channel=4 note=47 velocity=100 time=0
EXTRACT: note_off channel=0 note=69 velocity=100 time=0.10752683333333334
EXTRACT: note_off channel=9 note=53 velocity=100 time=0
EXTRACT: note_off channel=9 note=42 velocity=100 time=0.05376341666666667
EXTRACT: note_on channel=5 note=67 velocity=100 time=0
EXTRACT: note_on channel=6 note=67 velocity=100 time=0
EXTRACT: note_off channel=1 note=33 velocity=100 time=0.05376341666666667
EXTRACT: note_off channel=9 note=35 velocity=100 time=0
EXTRACT: note_off channel=5 note=71 velocity=100 time=0.05376341666666667
EXTRACT: note_off channel=6 note=71 velocity=100 time=0
EXTRACT: note_on channel=0 note=67 velocity=100 time=0.05376341666666667
EXTRACT: note_on channel=9 note=35 velocity=100 time=0
EXTRACT: note_on channel=9 note=53 velocity=100 time=0
EXTRACT: note_on channel=9 note=42 velocity=100 time=0
EXTRACT: note_off channel=4 note=47 velocity=64 time=0
EXTRACT: note_on channel=4 note=59 velocity=100 time=0
EXTRACT: note_off channel=0 note=71 velocity=100 time=0.10752683333333334
EXTRACT: note_off channel=9 note=53 velocity=100 time=0
EXTRACT: note_off channel=9 note=42 velocity=100 time=0.05376341666666667
EXTRACT: note_off channel=9 note=35 velocity=100 time=0.05376341666666667
EXTRACT: note_off channel=5 note=67 velocity=100 time=0.05376341666666667
EXTRACT: note_off channel=6 note=67 velocity=100 time=0
EXTRACT: note_on channel=9 note=35 velocity=100 time=0.05376341666666667
EXTRACT: note_on channel=9 note=53 velocity=100 time=0
EXTRACT: note_on channel=9 note=42 velocity=100 time=0
EXTRACT: note_off channel=4 note=59 velocity=100 time=0
EXTRACT: note_on channel=4 note=66 velocity=100 time=0
EXTRACT: note_off channel=0 note=67 velocity=100 time=0.10752683333333334
EXTRACT: note_off channel=9 note=53 velocity=100 time=0
EXTRACT: note_off channel=9 note=42 velocity=100 time=0.05376341666666667
EXTRACT: note_off channel=9 note=35 velocity=100 time=0.05376341666666667
EXTRACT: note_on channel=9 note=55 velocity=100 time=0.10752683333333334
EXTRACT: note_on channel=9 note=42 velocity=100 time=0
EXTRACT: note_off channel=4 note=66 velocity=64 time=0
EXTRACT: note_on channel=4 note=66 velocity=100 time=0
EXTRACT: note_off channel=9 note=55 velocity=100 time=0.10752683333333334
EXTRACT: note_off channel=9 note=42 velocity=100 time=0.05376341666666667
EXTRACT: note_on channel=9 note=42 velocity=100 time=0.16129025
EXTRACT: note_off channel=4 note=66 velocity=100 time=0
EXTRACT: note_on channel=4 note=59 velocity=100 time=0
EXTRACT: note_off channel=9 note=42 velocity=100 time=0.16129025
EXTRACT: note_on channel=5 note=62 velocity=100 time=0
EXTRACT: note_on channel=6 note=62 velocity=100 time=0
EXTRACT: note_on channel=0 note=62 velocity=100 time=0.16129025
EXTRACT: note_on channel=1 note=33 velocity=100 time=0
EXTRACT: note_on channel=9 note=35 velocity=100 time=0
EXTRACT: note_on channel=9 note=42 velocity=100 time=0
EXTRACT: note_off channel=4 note=59 velocity=100 time=0
EXTRACT: note_on channel=4 note=57 velocity=100 time=0
EXTRACT: note_off channel=9 note=42 velocity=100 time=0.16129025
EXTRACT: note_off channel=5 note=62 velocity=64 time=0
EXTRACT: note_on channel=5 note=64 velocity=100 time=0
EXTRACT: note_off channel=6 note=62 velocity=64 time=0
EXTRACT: note_on channel=6 note=64 velocity=100 time=0
EXTRACT: note_off channel=1 note=33 velocity=100 time=0.05376341666666667
EXTRACT: note_off channel=9 note=35 velocity=100 time=0
EXTRACT: note_off channel=4 note=57 velocity=100 time=0
EXTRACT: note_off channel=0 note=62 velocity=64 time=0.10752683333333334
EXTRACT: note_on channel=0 note=64 velocity=100 time=0
EXTRACT: note_on channel=1 note=40 velocity=100 time=0
EXTRACT: note_on channel=1 note=28 velocity=100 time=0
EXTRACT: note_on channel=9 note=35 velocity=100 time=0
EXTRACT: note_on channel=9 note=53 velocity=100 time=0
EXTRACT: note_on channel=9 note=42 velocity=100 time=0
EXTRACT: note_on channel=4 note=40 velocity=100 time=0
EXTRACT: note_off channel=9 note=53 velocity=100 time=0.10752683333333334
EXTRACT: note_off channel=9 note=42 velocity=100 time=0.05376341666666667
EXTRACT: note_off channel=1 note=28 velocity=100 time=0.05376341666666667
EXTRACT: note_off channel=9 note=35 velocity=100 time=0
EXTRACT: note_off channel=5 note=64 velocity=100 time=0.05376341666666667
EXTRACT: note_off channel=6 note=64 velocity=64 time=0
EXTRACT: note_off channel=6 note=64 velocity=100 time=0
EXTRACT: note_on channel=1 note=40 velocity=100 time=0.05376341666666667
EXTRACT: note_on channel=9 note=42 velocity=100 time=0
EXTRACT: note_on channel=4 note=64 velocity=100 time=0
EXTRACT: note_on channel=4 note=59 velocity=100 time=0
EXTRACT: note_off channel=0 note=64 velocity=100 time=0.10752683333333334
EXTRACT: note_off channel=9 note=42 velocity=100 time=0.05376341666666667
EXTRACT: note_off channel=1 note=40 velocity=100 time=0.05376341666666667
EXTRACT: note_off channel=1 note=40 velocity=100 time=0
EXTRACT: note_on channel=1 note=40 velocity=100 time=0.10752683333333334
EXTRACT: note_on channel=9 note=35 velocity=100 time=0
EXTRACT: note_on channel=9 note=53 velocity=100 time=0
EXTRACT: note_on channel=9 note=42 velocity=100 time=0
EXTRACT: note_off channel=4 note=64 velocity=100 time=0
EXTRACT: note_off channel=4 note=59 velocity=100 time=0
EXTRACT: note_on channel=4 note=64 velocity=100 time=0
EXTRACT: note_off channel=9 note=53 velocity=100 time=0.10752683333333334
EXTRACT: note_off channel=9 note=42 velocity=100 time=0.05376341666666667
EXTRACT: note_off channel=1 note=40 velocity=100 time=0.05376341666666667
EXTRACT: note_off channel=9 note=35 velocity=100 time=0
EXTRACT: note_off channel=4 note=40 velocity=100 time=0
EXTRACT: note_on channel=1 note=40 velocity=100 time=0.10752683333333334
EXTRACT: note_on channel=9 note=55 velocity=100 time=0
EXTRACT: note_on channel=9 note=42 velocity=100 time=0
EXTRACT: note_off channel=4 note=64 velocity=100 time=0
EXTRACT: note_on channel=4 note=64 velocity=100 time=0
EXTRACT: note_off channel=9 note=55 velocity=100 time=0.10752683333333334
EXTRACT: note_off channel=9 note=42 velocity=100 time=0.05376341666666667
EXTRACT: note_off channel=1 note=40 velocity=100 time=0.05376341666666667
EXTRACT: note_on channel=9 note=42 velocity=100 time=0.10752683333333334
EXTRACT: note_off channel=4 note=64 velocity=100 time=0
EXTRACT: note_on channel=4 note=59 velocity=100 time=0
EXTRACT: note_on channel=5 note=64 velocity=100 time=0
EXTRACT: note_on channel=6 note=64 velocity=100 time=0
EXTRACT: note_on channel=0 note=64 velocity=100 time=0.16129025
EXTRACT: note_off channel=9 note=42 velocity=100 time=0
EXTRACT: note_on channel=1 note=31 velocity=100 time=0.16129025
EXTRACT: note_on channel=9 note=35 velocity=100 time=0
EXTRACT: note_on channel=9 note=53 velocity=100 time=0
EXTRACT: note_on channel=9 note=42 velocity=100 time=0
EXTRACT: note_off channel=4 note=59 velocity=100 time=0
EXTRACT: note_on channel=4 note=57 velocity=100 time=0
EXTRACT: note_off channel=9 note=53 velocity=100 time=0.10752683333333334
EXTRACT: note_off channel=5 note=64 velocity=100 time=0
EXTRACT: note_off channel=9 note=42 velocity=100 time=0.05376341666666667
EXTRACT: note_on channel=5 note=67 velocity=100 time=0
EXTRACT: note_on channel=6 note=67 velocity=100 time=0
EXTRACT: note_off channel=1 note=31 velocity=100 time=0.05376341666666667
EXTRACT: note_off channel=9 note=35 velocity=100 time=0
EXTRACT: note_off channel=0 note=64 velocity=100 time=0.05376341666666667
EXTRACT: note_on channel=0 note=67 velocity=100 time=0.05376341666666667
EXTRACT: note_on channel=1 note=47 velocity=100 time=0
EXTRACT: note_on channel=1 note=33 velocity=100 time=0
EXTRACT: note_on channel=9 note=35 velocity=100 time=0
EXTRACT: note_on channel=9 note=53 velocity=100 time=0
EXTRACT: note_on channel=9 note=42 velocity=100 time=0
EXTRACT: note_off channel=4 note=57 velocity=100 time=0
EXTRACT: note_on channel=4 note=47 velocity=100 time=0
EXTRACT: note_off channel=9 note=53 velocity=100 time=0.10752683333333334
EXTRACT: note_off channel=9 note=42 velocity=100 time=0.05376341666666667
EXTRACT: note_off channel=1 note=33 velocity=100 time=0.05376341666666667
EXTRACT: note_off channel=9 note=35 velocity=100 time=0
EXTRACT: note_off channel=5 note=67 velocity=100 time=0.05376341666666667
EXTRACT: note_off channel=6 note=67 velocity=100 time=0
EXTRACT: note_on channel=9 note=35 velocity=100 time=0.05376341666666667
EXTRACT: note_on channel=9 note=53 velocity=100 time=0
EXTRACT: note_on channel=9 note=42 velocity=100 time=0
EXTRACT: note_on channel=4 note=59 velocity=100 time=0
EXTRACT: note_off channel=6 note=71 velocity=64 time=0
EXTRACT: note_off channel=6 note=64 velocity=64 time=0
EXTRACT: note_off channel=7 note=76 velocity=64 time=0
EXTRACT: note_off channel=7 note=76 velocity=64 time=0
EXTRACT: note_off channel=7 note=83 velocity=64 time=0
EXTRACT: note_off channel=7 note=83 velocity=64 time=0
EXTRACT: note_off channel=0 note=67 velocity=100 time=0.10752683333333334
EXTRACT: note_off channel=9 note=53 velocity=100 time=0
EXTRACT: note_off channel=9 note=42 velocity=100 time=0.05376341666666667
EXTRACT: note_on channel=5 note=62 velocity=100 time=0
EXTRACT: note_on channel=6 note=62 velocity=100 time=0
EXTRACT: note_off channel=9 note=35 velocity=100 time=0.05376341666666667
EXTRACT: note_on channel=0 note=62 velocity=100 time=0.10752683333333334
EXTRACT: note_on channel=9 note=35 velocity=100 time=0
EXTRACT: note_on channel=9 note=53 velocity=100 time=0
EXTRACT: note_on channel=9 note=42 velocity=100 time=0
EXTRACT: note_off channel=4 note=59 velocity=100 time=0
EXTRACT: note_on channel=4 note=66 velocity=100 time=0
EXTRACT: note_off channel=5 note=62 velocity=100 time=0.05376341666666667
EXTRACT: note_off channel=6 note=62 velocity=100 time=0
EXTRACT: note_off channel=9 note=53 velocity=100 time=0.05376341666666667
EXTRACT: note_off channel=9 note=42 velocity=100 time=0.05376341666666667
EXTRACT: note_on channel=5 note=64 velocity=100 time=0
EXTRACT: note_on channel=6 note=64 velocity=100 time=0
EXTRACT: note_off channel=0 note=62 velocity=100 time=0.05376341666666667
EXTRACT: note_off channel=9 note=35 velocity=100 time=0
EXTRACT: note_on channel=0 note=64 velocity=100 time=0.10752683333333334
EXTRACT: note_on channel=9 note=55 velocity=100 time=0
EXTRACT: note_on channel=9 note=42 velocity=100 time=0
EXTRACT: note_off channel=4 note=66 velocity=64 time=0
EXTRACT: note_on channel=4 note=66 velocity=100 time=0
EXTRACT: note_off channel=9 note=55 velocity=100 time=0.10752683333333334
EXTRACT: note_off channel=1 note=47 velocity=64 time=0.0067204270833333335
EXTRACT: note_off channel=4 note=47 velocity=64 time=0
EXTRACT: note_off channel=9 note=42 velocity=100 time=0.04704298958333333
EXTRACT: note_off channel=5 note=64 velocity=100 time=0.10752683333333334
EXTRACT: note_on channel=9 note=42 velocity=100 time=0.05376341666666667
EXTRACT: note_off channel=4 note=66 velocity=100 time=0
EXTRACT: note_on channel=4 note=59 velocity=100 time=0
EXTRACT: note_off channel=0 note=64 velocity=100 time=0.10752683333333334
EXTRACT: note_off channel=9 note=42 velocity=100 time=0.05376341666666667
EXTRACT: note_on channel=5 note=66 velocity=100 time=0
EXTRACT: note_on channel=6 note=66 velocity=100 time=0
EXTRACT: note_on channel=0 note=66 velocity=100 time=0.16129025
EXTRACT: note_on channel=1 note=33 velocity=100 time=0
EXTRACT: note_on channel=9 note=35 velocity=100 time=0
EXTRACT: note_on channel=9 note=42 velocity=100 time=0
EXTRACT: note_off channel=4 note=59 velocity=100 time=0
EXTRACT: note_on channel=4 note=57 velocity=100 time=0
EXTRACT: note_on channel=4 note=57 velocity=100 time=0
EXTRACT: note_off channel=5 note=66 velocity=100 time=0.05376341666666667
EXTRACT: note_off channel=6 note=66 velocity=100 time=0
EXTRACT: note_off channel=9 note=42 velocity=100 time=0.10752683333333334
EXTRACT: note_on channel=5 note=67 velocity=100 time=0
EXTRACT: note_on channel=6 note=67 velocity=100 time=0
EXTRACT: note_off channel=0 note=66 velocity=100 time=0.05376341666666667
EXTRACT: note_off channel=1 note=33 velocity=100 time=0
EXTRACT: note_off channel=9 note=35 velocity=100 time=0
EXTRACT: note_on channel=0 note=67 velocity=100 time=0.10752683333333334
EXTRACT: note_on channel=1 note=28 velocity=100 time=0
EXTRACT: note_on channel=9 note=35 velocity=100 time=0
EXTRACT: note_on channel=9 note=42 velocity=100 time=0
EXTRACT: note_off channel=4 note=57 velocity=100 time=0
EXTRACT: note_off channel=4 note=57 velocity=100 time=0
EXTRACT: note_on channel=4 note=40 velocity=100 time=0
EXTRACT: note_off channel=9 note=42 velocity=100 time=0.16129025
EXTRACT: note_off channel=1 note=28 velocity=100 time=0.05376341666666667
EXTRACT: note_off channel=9 note=35 velocity=100 time=0
EXTRACT: note_off channel=5 note=67 velocity=100 time=0.05376341666666667
EXTRACT: note_off channel=6 note=67 velocity=100 time=0
EXTRACT: note_on channel=1 note=40 velocity=100 time=0.05376341666666667
EXTRACT: note_on channel=9 note=42 velocity=100 time=0
EXTRACT: note_on channel=4 note=59 velocity=100 time=0
EXTRACT: note_off channel=0 note=67 velocity=100 time=0.10752683333333334
EXTRACT: note_off channel=9 note=42 velocity=100 time=0.05376341666666667
EXTRACT: note_on channel=5 note=64 velocity=100 time=0
EXTRACT: note_on channel=6 note=64 velocity=100 time=0
EXTRACT: note_off channel=1 note=40 velocity=100 time=0.05376341666666667
EXTRACT: note_on channel=0 note=64 velocity=100 time=0.10752683333333334
EXTRACT: note_on channel=1 note=40 velocity=100 time=0
EXTRACT: note_on channel=9 note=35 velocity=100 time=0
EXTRACT: note_on channel=9 note=42 velocity=100 time=0
EXTRACT: note_off channel=4 note=59 velocity=100 time=0
EXTRACT: note_on channel=4 note=64 velocity=100 time=0
EXTRACT: note_off channel=9 note=42 velocity=100 time=0.16129025
EXTRACT: note_off channel=1 note=40 velocity=100 time=0.05376341666666667
EXTRACT: note_off channel=9 note=35 velocity=100 time=0
EXTRACT: note_off channel=4 note=40 velocity=64 time=0
EXTRACT: note_off channel=5 note=64 velocity=100 time=0.05376341666666667
EXTRACT: note_off channel=6 note=64 velocity=100 time=0
EXTRACT: note_on channel=1 note=40 velocity=100 time=0.05376341666666667
EXTRACT: note_on channel=9 note=55 velocity=100 time=0
EXTRACT: note_on channel=9 note=42 velocity=100 time=0
EXTRACT: note_off channel=4 note=64 velocity=100 time=0
EXTRACT: note_on channel=4 note=64 velocity=100 time=0
EXTRACT: note_off channel=0 note=64 velocity=100 time=0.10752683333333334
EXTRACT: note_off channel=9 note=42 velocity=100 time=0.05376341666666667
EXTRACT: note_on channel=5 note=71 velocity=100 time=0
EXTRACT: note_on channel=6 note=71 velocity=100 time=0
EXTRACT: note_off channel=1 note=40 velocity=64 time=0.05376341666666667
EXTRACT: note_off channel=9 note=55 velocity=100 time=0
EXTRACT: note_on channel=0 note=71 velocity=100 time=0.10752683333333334
EXTRACT: note_on channel=9 note=42 velocity=100 time=0
EXTRACT: note_off channel=4 note=64 velocity=100 time=0
EXTRACT: note_on channel=4 note=59 velocity=100 time=0
EXTRACT: note_off channel=9 note=42 velocity=100 time=0.16129025
EXTRACT: note_on channel=5 note=69 velocity=100 time=0
EXTRACT: note_on channel=6 note=69 velocity=100 time=0
EXTRACT: note_off channel=5 note=71 velocity=100 time=0.10752683333333334
EXTRACT: note_on channel=0 note=69 velocity=100 time=0.05376341666666667
EXTRACT: note_on channel=1 note=31 velocity=100 time=0
EXTRACT: note_on channel=9 note=35 velocity=100 time=0
EXTRACT: note_on channel=9 note=42 velocity=100 time=0
EXTRACT: note_off channel=4 note=59 velocity=64 time=0
EXTRACT: note_on channel=4 note=57 velocity=100 time=0
EXTRACT: note_off channel=0 note=71 velocity=100 time=0.10752683333333334
EXTRACT: note_off channel=9 note=42 velocity=100 time=0.05376341666666667
EXTRACT: note_on channel=5 note=71 velocity=100 time=0
EXTRACT: note_on channel=6 note=71 velocity=100 time=0
EXTRACT: note_off channel=1 note=31 velocity=100 time=0.05376341666666667
EXTRACT: note_off channel=9 note=35 velocity=100 time=0
EXTRACT: note_off channel=5 note=69 velocity=100 time=0.05376341666666667
EXTRACT: note_off channel=6 note=69 velocity=100 time=0
EXTRACT: note_on channel=0 note=71 velocity=100 time=0.05376341666666667
EXTRACT: note_on channel=1 note=33 velocity=100 time=0
EXTRACT: note_on channel=9 note=35 velocity=100 time=0
EXTRACT: note_on channel=9 note=42 velocity=100 time=0
EXTRACT: note_off channel=4 note=57 velocity=100 time=0
EXTRACT: note_on channel=4 note=47 velocity=100 time=0
EXTRACT: note_off channel=0 note=69 velocity=100 time=0.10752683333333334
EXTRACT: note_off channel=9 note=42 velocity=100 time=0.05376341666666667
EXTRACT: note_on channel=5 note=67 velocity=100 time=0
EXTRACT: note_on channel=6 note=67 velocity=100 time=0
EXTRACT: note_off channel=1 note=33 velocity=100 time=0.05376341666666667
EXTRACT: note_off channel=9 note=35 velocity=100 time=0
EXTRACT: note_off channel=5 note=71 velocity=100 time=0.05376341666666667
EXTRACT: note_off channel=6 note=71 velocity=100 time=0
EXTRACT: note_on channel=0 note=67 velocity=100 time=0.05376341666666667
EXTRACT: note_on channel=9 note=35 velocity=100 time=0
EXTRACT: note_on channel=9 note=42 velocity=100 time=0
EXTRACT: note_on channel=4 note=59 velocity=100 time=0
EXTRACT: note_off channel=5 note=67 velocity=0 time=0
EXTRACT: note_off channel=6 note=67 velocity=0 time=0
EXTRACT: note_off channel=0 note=71 velocity=100 time=0.10752683333333334
EXTRACT: note_off channel=9 note=42 velocity=100 time=0.05376341666666667
EXTRACT: note_off channel=9 note=35 velocity=100 time=0.05376341666666667
EXTRACT: note_on channel=9 note=35 velocity=100 time=0.10752683333333334
EXTRACT: note_on channel=9 note=42 velocity=100 time=0
EXTRACT: note_off channel=4 note=47 velocity=64 time=0
EXTRACT: note_off channel=4 note=59 velocity=100 time=0
EXTRACT: note_off channel=0 note=67 velocity=100 time=0.10752683333333334
EXTRACT: note_off channel=9 note=42 velocity=100 time=0.05376341666666667
EXTRACT: note_off channel=9 note=35 velocity=100 time=0.05376341666666667
EXTRACT: note_on channel=9 note=55 velocity=100 time=0.10752683333333334
EXTRACT: note_on channel=9 note=42 velocity=100 time=0
EXTRACT: note_off channel=9 note=42 velocity=100 time=0.16129025
EXTRACT: note_off channel=9 note=55 velocity=100 time=0.05376341666666667
EXTRACT: note_on channel=9 note=42 velocity=100 time=0.10752683333333334
EXTRACT: note_off channel=9 note=42 velocity=100 time=0.16129025
EXTRACT: note_on channel=5 note=62 velocity=100 time=0
EXTRACT: note_on channel=6 note=62 velocity=100 time=0
EXTRACT: note_on channel=0 note=62 velocity=100 time=0.16129025
EXTRACT: note_on channel=1 note=33 velocity=100 time=0
EXTRACT: note_on channel=9 note=35 velocity=100 time=0
EXTRACT: note_on channel=9 note=42 velocity=100 time=0
EXTRACT: note_on channel=6 note=64 velocity=64 time=0
EXTRACT: note_on channel=6 note=71 velocity=64 time=0
EXTRACT: note_on channel=7 note=83 velocity=100 time=0
EXTRACT: note_on channel=7 note=76 velocity=100 time=0
EXTRACT: note_off channel=9 note=42 velocity=100 time=0.16129025
EXTRACT: note_off channel=5 note=62 velocity=64 time=0
EXTRACT: note_on channel=5 note=64 velocity=100 time=0
EXTRACT: note_off channel=6 note=62 velocity=64 time=0
EXTRACT: note_off channel=6 note=64 velocity=64 time=0
EXTRACT: note_off channel=6 note=71 velocity=64 time=0
EXTRACT: note_off channel=6 note=64 velocity=64 time=0
EXTRACT: note_off channel=6 note=71 velocity=64 time=0
EXTRACT: note_on channel=6 note=64 velocity=100 time=0
EXTRACT: note_off channel=7 note=83 velocity=64 time=0
EXTRACT: note_off channel=7 note=76 velocity=64 time=0
EXTRACT: note_off channel=1 note=33 velocity=100 time=0.05376341666666667
EXTRACT: note_off channel=9 note=35 velocity=100 time=0
EXTRACT: note_off channel=0 note=62 velocity=64 time=0.10752683333333334
EXTRACT: note_on channel=0 note=64 velocity=100 time=0
EXTRACT: note_on channel=1 note=28 velocity=100 time=0
EXTRACT: note_on channel=9 note=35 velocity=100 time=0
EXTRACT: note_on channel=9 note=42 velocity=100 time=0
EXTRACT: note_on channel=4 note=40 velocity=100 time=0
EXTRACT: note_off channel=9 note=42 velocity=100 time=0.16129025
EXTRACT: note_off channel=1 note=28 velocity=100 time=0.05376341666666667
EXTRACT: note_off channel=9 note=35 velocity=100 time=0
EXTRACT: note_off channel=5 note=64 velocity=100 time=0.05376341666666667
EXTRACT: note_off channel=6 note=64 velocity=100 time=0
EXTRACT: note_on channel=1 note=40 velocity=100 time=0.05376341666666667
EXTRACT: note_on channel=9 note=42 velocity=100 time=0
EXTRACT: note_off channel=0 note=64 velocity=100 time=0.10752683333333334
EXTRACT: note_off channel=9 note=42 velocity=100 time=0.05376341666666667
EXTRACT: note_off channel=1 note=40 velocity=100 time=0.05376341666666667
EXTRACT: note_on channel=1 note=40 velocity=100 time=0.10752683333333334
EXTRACT: note_on channel=9 note=35 velocity=100 time=0
EXTRACT: note_on channel=9 note=42 velocity=100 time=0
EXTRACT: note_off channel=9 note=42 velocity=100 time=0.16129025
EXTRACT: note_off channel=1 note=40 velocity=100 time=0.05376341666666667
EXTRACT: note_off channel=9 note=35 velocity=100 time=0
EXTRACT: note_off channel=4 note=40 velocity=100 time=0
EXTRACT: note_on channel=1 note=40 velocity=100 time=0.10752683333333334
EXTRACT: note_on channel=9 note=55 velocity=100 time=0
EXTRACT: note_on channel=9 note=42 velocity=100 time=0
EXTRACT: note_off channel=9 note=42 velocity=100 time=0.16129025
EXTRACT: note_off channel=1 note=40 velocity=100 time=0.05376341666666667
EXTRACT: note_off channel=9 note=55 velocity=100 time=0
EXTRACT: note_on channel=9 note=42 velocity=100 time=0.10752683333333334
EXTRACT: note_on channel=5 note=64 velocity=100 time=0
EXTRACT: note_on channel=6 note=64 velocity=100 time=0
EXTRACT: note_off channel=9 note=42 velocity=100 time=0.16129025
EXTRACT: note_on channel=1 note=31 velocity=100 time=0.16129025
EXTRACT: note_on channel=9 note=35 velocity=100 time=0
EXTRACT: note_on channel=9 note=42 velocity=100 time=0
EXTRACT: note_off channel=5 note=64 velocity=100 time=0.10752683333333334
EXTRACT: note_off channel=6 note=64 velocity=100 time=0
EXTRACT: note_off channel=9 note=42 velocity=100 time=0.05376341666666667
EXTRACT: note_on channel=5 note=59 velocity=99 time=0
EXTRACT: note_on channel=5 note=67 velocity=99 time=0
EXTRACT: note_on channel=6 note=59 velocity=99 time=0
EXTRACT: note_on channel=6 note=67 velocity=99 time=0
EXTRACT: note_off channel=1 note=31 velocity=100 time=0.05376341666666667
EXTRACT: note_off channel=9 note=35 velocity=100 time=0
EXTRACT: note_on channel=0 note=59 velocity=99 time=0.04704298958333333
EXTRACT: note_on channel=1 note=47 velocity=98 time=0.06048384375
EXTRACT: note_on channel=1 note=33 velocity=98 time=0
EXTRACT: note_on channel=9 note=35 velocity=98 time=0
EXTRACT: note_on channel=9 note=42 velocity=98 time=0
EXTRACT: note_on channel=4 note=47 velocity=98 time=0
EXTRACT: note_off channel=9 note=42 velocity=100 time=0.16129025
EXTRACT: note_on channel=5 note=60 velocity=97 time=0
EXTRACT: note_on channel=6 note=60 velocity=97 time=0
EXTRACT: note_off channel=1 note=33 velocity=100 time=0.05376341666666667
EXTRACT: note_off channel=9 note=35 velocity=100 time=0
EXTRACT: note_off channel=0 note=59 velocity=100 time=0.04704298958333333
EXTRACT: note_off channel=5 note=67 velocity=100 time=0.0067204270833333335
EXTRACT: note_off channel=6 note=67 velocity=100 time=0
EXTRACT: note_on channel=0 note=60 velocity=96 time=0.05376341666666667
EXTRACT: note_on channel=9 note=35 velocity=96 time=0
EXTRACT: note_on channel=9 note=42 velocity=96 time=0
EXTRACT: note_on channel=4 note=59 velocity=96 time=0
EXTRACT: note_off channel=5 note=60 velocity=64 time=0.05376341666666667
EXTRACT: note_off channel=6 note=60 velocity=64 time=0
EXTRACT: note_off channel=9 note=42 velocity=100 time=0.10752683333333334
EXTRACT: note_on channel=5 note=62 velocity=95 time=0
EXTRACT: note_on channel=6 note=62 velocity=95 time=0
EXTRACT: note_off channel=0 note=60 velocity=100 time=0.05376341666666667
EXTRACT: note_off channel=9 note=35 velocity=100 time=0
EXTRACT: note_on channel=0 note=62 velocity=94 time=0.10752683333333334
EXTRACT: note_on channel=9 note=35 velocity=94 time=0
EXTRACT: note_on channel=9 note=42 velocity=94 time=0
EXTRACT: note_off channel=4 note=59 velocity=100 time=0
EXTRACT: note_on channel=4 note=66 velocity=94 time=0
EXTRACT: note_off channel=5 note=59 velocity=64 time=0.05376341666666667
EXTRACT: note_off channel=6 note=59 velocity=64 time=0
EXTRACT: note_off channel=9 note=42 velocity=100 time=0.10752683333333334
EXTRACT: note_off channel=5 note=62 velocity=100 time=0
EXTRACT: note_on channel=5 note=62 velocity=93 time=0
EXTRACT: note_off channel=6 note=62 velocity=100 time=0
EXTRACT: note_on channel=6 note=62 velocity=93 time=0
EXTRACT: note_off channel=9 note=35 velocity=100 time=0.05376341666666667
EXTRACT: note_off channel=0 note=62 velocity=100 time=0.10752683333333334
EXTRACT: note_on channel=0 note=62 velocity=92 time=0
EXTRACT: note_on channel=0 note=54 velocity=92 time=0
EXTRACT: note_on channel=9 note=35 velocity=92 time=0
EXTRACT: note_on channel=9 note=37 velocity=92 time=0
EXTRACT: note_on channel=9 note=42 velocity=92 time=0
EXTRACT: note_off channel=4 note=66 velocity=64 time=0
EXTRACT: note_on channel=4 note=66 velocity=92 time=0
EXTRACT: note_on channel=5 note=54 velocity=92 time=0
EXTRACT: note_on channel=6 note=54 velocity=92 time=0
EXTRACT: note_off channel=5 note=62 velocity=100 time=0.05376341666666667
EXTRACT: note_off channel=6 note=62 velocity=100 time=0
EXTRACT: note_off channel=1 note=47 velocity=64 time=0.06048384375
EXTRACT: note_off channel=4 note=47 velocity=64 time=0
EXTRACT: note_off channel=9 note=42 velocity=100 time=0.04704298958333333
EXTRACT: note_on channel=5 note=64 velocity=91 time=0
EXTRACT: note_on channel=6 note=64 velocity=91 time=0
EXTRACT: note_off channel=0 note=62 velocity=100 time=0.05376341666666667
EXTRACT: note_off channel=0 note=54 velocity=100 time=0
EXTRACT: note_off channel=9 note=35 velocity=100 time=0
EXTRACT: note_off channel=9 note=37 velocity=100 time=0
EXTRACT: note_on channel=0 note=64 velocity=90 time=0.10752683333333334
EXTRACT: note_on channel=9 note=35 velocity=90 time=0
EXTRACT: note_on channel=9 note=42 velocity=90 time=0
EXTRACT: note_off channel=4 note=66 velocity=100 time=0
EXTRACT: note_on channel=4 note=59 velocity=90 time=0
EXTRACT: note_off channel=5 note=64 velocity=100 time=0.05376341666666667
EXTRACT: note_off channel=6 note=64 velocity=100 time=0
EXTRACT: note_off channel=5 note=54 velocity=100 time=0.05376341666666667
EXTRACT: note_off channel=6 note=54 velocity=100 time=0
EXTRACT: note_on channel=5 note=67 velocity=89 time=0.05376341666666667
EXTRACT: note_on channel=6 note=67 velocity=89 time=0
EXTRACT: note_off channel=0 note=64 velocity=100 time=0.05376341666666667
EXTRACT: note_off channel=9 note=35 velocity=100 time=0
EXTRACT: note_off channel=9 note=42 velocity=100 time=0
EXTRACT: note_on channel=0 note=67 velocity=88 time=0.10752683333333334
EXTRACT: note_on channel=1 note=33 velocity=88 time=0
EXTRACT: note_on channel=9 note=35 velocity=88 time=0
EXTRACT: note_on channel=9 note=42 velocity=88 time=0
EXTRACT: note_off channel=4 note=59 velocity=100 time=0
EXTRACT: note_on channel=4 note=57 velocity=88 time=0
EXTRACT: note_off channel=5 note=67 velocity=100 time=0.05376341666666667
EXTRACT: note_off channel=6 note=67 velocity=100 time=0
EXTRACT: note_on channel=5 note=67 velocity=87 time=0.10752683333333334
EXTRACT: note_on channel=7 note=59 velocity=87 time=0
EXTRACT: note_on channel=7 note=76 velocity=87 time=0
EXTRACT: note_on channel=7 note=83 velocity=87 time=0
EXTRACT: note_on channel=7 note=64 velocity=87 time=0
EXTRACT: note_on channel=7 note=71 velocity=87 time=0
EXTRACT: note_off channel=0 note=67 velocity=100 time=0.05376341666666667
EXTRACT: note_off channel=1 note=33 velocity=100 time=0
EXTRACT: note_off channel=9 note=35 velocity=100 time=0
EXTRACT: note_off channel=9 note=42 velocity=100 time=0
EXTRACT: note_on channel=0 note=67 velocity=86 time=0.10752683333333334
EXTRACT: note_on channel=1 note=40 velocity=86 time=0
EXTRACT: note_on channel=1 note=28 velocity=86 time=0
EXTRACT: note_on channel=9 note=35 velocity=86 time=0
EXTRACT: note_on channel=9 note=42 velocity=86 time=0
EXTRACT: note_off channel=4 note=57 velocity=100 time=0
EXTRACT: note_on channel=4 note=40 velocity=86 time=0
EXTRACT: note_off channel=1 note=28 velocity=100 time=0.21505366666666667
EXTRACT: note_off channel=9 note=35 velocity=100 time=0
EXTRACT: note_off channel=9 note=42 velocity=100 time=0
EXTRACT: note_on channel=1 note=40 velocity=84 time=0.10752683333333334
EXTRACT: note_on channel=9 note=42 velocity=84 time=0
EXTRACT: note_on channel=4 note=59 velocity=84 time=0
EXTRACT: note_on channel=5 note=67 velocity=84 time=0
EXTRACT: note_off channel=0 note=67 velocity=100 time=0.10752683333333334
EXTRACT: note_off channel=5 note=67 velocity=0 time=0.05376341666666667
EXTRACT: note_on channel=5 note=64 velocity=83 time=0
EXTRACT: note_on channel=6 note=64 velocity=83 time=0
EXTRACT: note_off channel=1 note=40 velocity=100 time=0.05376341666666667
EXTRACT: note_off channel=1 note=40 velocity=64 time=0
EXTRACT: note_off channel=9 note=42 velocity=100 time=0
EXTRACT: note_on channel=0 note=64 velocity=82 time=0.10752683333333334
EXTRACT: note_on channel=1 note=40 velocity=82 time=0
EXTRACT: note_on channel=9 note=35 velocity=82 time=0
EXTRACT: note_on channel=9 note=42 velocity=82 time=0
EXTRACT: note_off channel=4 note=59 velocity=100 time=0
EXTRACT: note_on channel=4 note=64 velocity=82 time=0
EXTRACT: note_off channel=1 note=40 velocity=64 time=0.21505366666666667
EXTRACT: note_off channel=9 note=35 velocity=100 time=0
EXTRACT: note_off channel=9 note=42 velocity=100 time=0
EXTRACT: note_off channel=4 note=40 velocity=64 time=0
EXTRACT: note_off channel=5 note=64 velocity=100 time=0.05376341666666667
EXTRACT: note_off channel=7 note=64 velocity=100 time=0
EXTRACT: note_on channel=1 note=40 velocity=80 time=0.05376341666666667
EXTRACT: note_on channel=9 note=37 velocity=80 time=0
EXTRACT: note_on channel=9 note=55 velocity=80 time=0
EXTRACT: note_on channel=9 note=42 velocity=80 time=0
EXTRACT: note_off channel=4 note=64 velocity=100 time=0
EXTRACT: note_on channel=4 note=64 velocity=80 time=0
EXTRACT: note_off channel=5 note=67 velocity=100 time=0
EXTRACT: note_off channel=7 note=59 velocity=100 time=0
EXTRACT: note_on channel=7 note=71 velocity=80 time=0
EXTRACT: note_on channel=7 note=83 velocity=80 time=0
EXTRACT: note_on channel=7 note=76 velocity=80 time=0
EXTRACT: note_off channel=0 note=64 velocity=64 time=0.10752683333333334
EXTRACT: note_off channel=9 note=55 velocity=100 time=0
EXTRACT: note_off channel=9 note=42 velocity=100 time=0.05376341666666667
EXTRACT: note_on channel=5 note=71 velocity=79 time=0
EXTRACT: note_on channel=6 note=71 velocity=79 time=0
EXTRACT: note_off channel=1 note=40 velocity=100 time=0.05376341666666667
EXTRACT: note_off channel=9 note=37 velocity=100 time=0
EXTRACT: note_on channel=0 note=71 velocity=78 time=0.10752683333333334
EXTRACT: note_on channel=9 note=42 velocity=78 time=0
EXTRACT: note_off channel=4 note=64 velocity=100 time=0
EXTRACT: note_on channel=4 note=59 velocity=78 time=0
EXTRACT: note_off channel=9 note=42 velocity=100 time=0.16129025
EXTRACT: note_on channel=5 note=69 velocity=77 time=0
EXTRACT: note_on channel=6 note=69 velocity=77 time=0
EXTRACT: note_off channel=5 note=71 velocity=100 time=0.10752683333333334
EXTRACT: note_off channel=7 note=71 velocity=64 time=0
EXTRACT: note_off channel=7 note=71 velocity=64 time=0
EXTRACT: note_on channel=0 note=69 velocity=76 time=0.05376341666666667
EXTRACT: note_on channel=1 note=31 velocity=76 time=0
EXTRACT: note_on channel=9 note=35 velocity=76 time=0
EXTRACT: note_on channel=9 note=53 velocity=76 time=0
EXTRACT: note_on channel=9 note=42 velocity=76 time=0
EXTRACT: note_off channel=4 note=59 velocity=64 time=0
EXTRACT: note_on channel=4 note=57 velocity=76 time=0
EXTRACT: note_off channel=0 note=71 velocity=100 time=0.10752683333333334
EXTRACT: note_off channel=9 note=53 velocity=100 time=0
EXTRACT: note_off channel=9 note=42 velocity=100 time=0.05376341666666667
EXTRACT: note_on channel=5 note=71 velocity=75 time=0
EXTRACT: note_on channel=6 note=71 velocity=75 time=0
EXTRACT: note_off channel=1 note=31 velocity=100 time=0.05376341666666667
EXTRACT: note_off channel=9 note=35 velocity=100 time=0
EXTRACT: note_off channel=5 note=69 velocity=100 time=0.05376341666666667
EXTRACT: note_off channel=6 note=69 velocity=100 time=0
EXTRACT: note_on channel=0 note=71 velocity=74 time=0.05376341666666667
EXTRACT: note_on channel=1 note=33 velocity=74 time=0
EXTRACT: note_on channel=9 note=35 velocity=74 time=0
EXTRACT: note_on channel=9 note=53 velocity=74 time=0
EXTRACT: note_on channel=9 note=42 velocity=74 time=0
EXTRACT: note_off channel=4 note=57 velocity=100 time=0
EXTRACT: note_on channel=4 note=47 velocity=74 time=0
EXTRACT: note_off channel=0 note=69 velocity=100 time=0.10752683333333334
EXTRACT: note_off channel=9 note=53 velocity=100 time=0
EXTRACT: note_off channel=9 note=42 velocity=100 time=0.05376341666666667
EXTRACT: note_on channel=5 note=67 velocity=73 time=0
EXTRACT: note_on channel=6 note=67 velocity=73 time=0
EXTRACT: note_off channel=1 note=33 velocity=100 time=0.05376341666666667
EXTRACT: note_off channel=9 note=35 velocity=100 time=0
EXTRACT: note_off channel=5 note=71 velocity=100 time=0.05376341666666667
EXTRACT: note_off channel=6 note=71 velocity=100 time=0
EXTRACT: note_on channel=0 note=67 velocity=72 time=0.05376341666666667
EXTRACT: note_on channel=9 note=35 velocity=72 time=0
EXTRACT: note_on channel=9 note=53 velocity=72 time=0
EXTRACT: note_on channel=9 note=42 velocity=72 time=0
EXTRACT: note_off channel=4 note=47 velocity=64 time=0
EXTRACT: note_on channel=4 note=59 velocity=72 time=0
EXTRACT: note_off channel=0 note=71 velocity=100 time=0.10752683333333334
EXTRACT: note_off channel=9 note=53 velocity=100 time=0
EXTRACT: note_off channel=9 note=42 velocity=100 time=0.05376341666666667
EXTRACT: note_off channel=9 note=35 velocity=100 time=0.05376341666666667
EXTRACT: note_off channel=5 note=67 velocity=100 time=0.05376341666666667
EXTRACT: note_off channel=6 note=67 velocity=100 time=0
EXTRACT: note_on channel=9 note=35 velocity=70 time=0.05376341666666667
EXTRACT: note_on channel=9 note=53 velocity=70 time=0
EXTRACT: note_on channel=9 note=42 velocity=70 time=0
EXTRACT: note_off channel=4 note=59 velocity=100 time=0
EXTRACT: note_on channel=4 note=66 velocity=70 time=0
EXTRACT: note_off channel=0 note=67 velocity=100 time=0.10752683333333334
EXTRACT: note_off channel=9 note=53 velocity=100 time=0
EXTRACT: note_off channel=9 note=42 velocity=100 time=0.05376341666666667
EXTRACT: note_off channel=9 note=35 velocity=100 time=0.05376341666666667
EXTRACT: note_on channel=9 note=55 velocity=68 time=0.10752683333333334
EXTRACT: note_on channel=9 note=42 velocity=68 time=0
EXTRACT: note_off channel=4 note=66 velocity=64 time=0
EXTRACT: note_on channel=4 note=66 velocity=68 time=0
EXTRACT: note_off channel=9 note=55 velocity=100 time=0.10752683333333334
EXTRACT: note_off channel=9 note=42 velocity=100 time=0.05376341666666667
EXTRACT: note_on channel=9 note=42 velocity=66 time=0.16129025
EXTRACT: note_off channel=4 note=66 velocity=100 time=0
EXTRACT: note_on channel=4 note=59 velocity=66 time=0
EXTRACT: note_off channel=9 note=42 velocity=100 time=0.16129025
EXTRACT: note_on channel=5 note=62 velocity=65 time=0
EXTRACT: note_on channel=6 note=62 velocity=65 time=0
EXTRACT: note_on channel=0 note=62 velocity=64 time=0.16129025
EXTRACT: note_on channel=1 note=33 velocity=64 time=0
EXTRACT: note_on channel=9 note=35 velocity=64 time=0
EXTRACT: note_on channel=9 note=42 velocity=64 time=0
EXTRACT: note_off channel=4 note=59 velocity=100 time=0
EXTRACT: note_on channel=4 note=57 velocity=64 time=0
EXTRACT: note_off channel=9 note=42 velocity=100 time=0.16129025
EXTRACT: note_off channel=5 note=62 velocity=64 time=0
EXTRACT: note_on channel=5 note=64 velocity=63 time=0
EXTRACT: note_off channel=6 note=62 velocity=64 time=0
EXTRACT: note_on channel=6 note=64 velocity=63 time=0
EXTRACT: note_off channel=1 note=33 velocity=100 time=0.05376341666666667
EXTRACT: note_off channel=9 note=35 velocity=100 time=0
EXTRACT: note_off channel=4 note=57 velocity=100 time=0
EXTRACT: note_off channel=0 note=62 velocity=64 time=0.10752683333333334
EXTRACT: note_on channel=0 note=64 velocity=62 time=0
EXTRACT: note_on channel=1 note=40 velocity=62 time=0
EXTRACT: note_on channel=1 note=28 velocity=62 time=0
EXTRACT: note_on channel=9 note=35 velocity=62 time=0
EXTRACT: note_on channel=9 note=53 velocity=62 time=0
EXTRACT: note_on channel=9 note=42 velocity=62 time=0
EXTRACT: note_on channel=4 note=40 velocity=62 time=0
EXTRACT: note_off channel=9 note=53 velocity=100 time=0.10752683333333334
EXTRACT: note_off channel=9 note=42 velocity=100 time=0.05376341666666667
EXTRACT: note_off channel=1 note=28 velocity=100 time=0.05376341666666667
EXTRACT: note_off channel=9 note=35 velocity=100 time=0
EXTRACT: note_off channel=5 note=64 velocity=100 time=0.05376341666666667
EXTRACT: note_off channel=6 note=64 velocity=64 time=0
EXTRACT: note_off channel=6 note=64 velocity=100 time=0
EXTRACT: note_on channel=1 note=40 velocity=60 time=0.05376341666666667
EXTRACT: note_on channel=9 note=42 velocity=60 time=0
EXTRACT: note_on channel=4 note=64 velocity=60 time=0
EXTRACT: note_on channel=4 note=59 velocity=60 time=0
EXTRACT: note_off channel=0 note=64 velocity=100 time=0.10752683333333334
EXTRACT: note_off channel=9 note=42 velocity=100 time=0.05376341666666667
EXTRACT: note_off channel=1 note=40 velocity=100 time=0.05376341666666667
EXTRACT: note_off channel=1 note=40 velocity=100 time=0
EXTRACT: note_on channel=1 note=40 velocity=58 time=0.10752683333333334
EXTRACT: note_on channel=9 note=35 velocity=58 time=0
EXTRACT: note_on channel=9 note=53 velocity=58 time=0
EXTRACT: note_on channel=9 note=42 velocity=58 time=0
EXTRACT: note_off channel=4 note=64 velocity=100 time=0
EXTRACT: note_off channel=4 note=59 velocity=100 time=0
EXTRACT: note_on channel=4 note=64 velocity=58 time=0
EXTRACT: note_off channel=9 note=53 velocity=100 time=0.10752683333333334
EXTRACT: note_off channel=9 note=42 velocity=100 time=0.05376341666666667
EXTRACT: note_off channel=1 note=40 velocity=100 time=0.05376341666666667
EXTRACT: note_off channel=9 note=35 velocity=100 time=0
EXTRACT: note_off channel=4 note=40 velocity=100 time=0
EXTRACT: note_on channel=1 note=40 velocity=56 time=0.10752683333333334
EXTRACT: note_on channel=9 note=55 velocity=56 time=0
EXTRACT: note_on channel=9 note=42 velocity=56 time=0
EXTRACT: note_off channel=4 note=64 velocity=100 time=0
EXTRACT: note_on channel=4 note=64 velocity=56 time=0
EXTRACT: note_off channel=9 note=55 velocity=100 time=0.10752683333333334
EXTRACT: note_off channel=9 note=42 velocity=100 time=0.05376341666666667
EXTRACT: note_off channel=1 note=40 velocity=100 time=0.05376341666666667
EXTRACT: note_on channel=9 note=42 velocity=54 time=0.10752683333333334
EXTRACT: note_off channel=4 note=64 velocity=100 time=0
EXTRACT: note_on channel=4 note=59 velocity=54 time=0
EXTRACT: note_on channel=5 note=64 velocity=54 time=0
EXTRACT: note_on channel=6 note=64 velocity=54 time=0
EXTRACT: note_on channel=0 note=64 velocity=53 time=0.16129025
EXTRACT: note_off channel=9 note=42 velocity=100 time=0
EXTRACT: note_on channel=1 note=31 velocity=52 time=0.16129025
EXTRACT: note_on channel=9 note=35 velocity=52 time=0
EXTRACT: note_on channel=9 note=53 velocity=52 time=0
EXTRACT: note_on channel=9 note=42 velocity=52 time=0
EXTRACT: note_off channel=4 note=59 velocity=100 time=0
EXTRACT: note_on channel=4 note=57 velocity=52 time=0
EXTRACT: note_off channel=9 note=53 velocity=100 time=0.10752683333333334
EXTRACT: note_off channel=5 note=64 velocity=100 time=0
EXTRACT: note_off channel=9 note=42 velocity=100 time=0.05376341666666667
EXTRACT: note_on channel=5 note=67 velocity=51 time=0
EXTRACT: note_on channel=6 note=67 velocity=51 time=0
EXTRACT: note_off channel=1 note=31 velocity=100 time=0.05376341666666667
EXTRACT: note_off channel=9 note=35 velocity=100 time=0
EXTRACT: note_off channel=0 note=64 velocity=100 time=0.05376341666666667
EXTRACT: note_on channel=0 note=67 velocity=50 time=0.05376341666666667
EXTRACT: note_on channel=1 note=47 velocity=50 time=0
EXTRACT: note_on channel=1 note=33 velocity=50 time=0
EXTRACT: note_on channel=9 note=35 velocity=50 time=0
EXTRACT: note_on channel=9 note=53 velocity=50 time=0
EXTRACT: note_on channel=9 note=42 velocity=50 time=0
EXTRACT: note_off channel=4 note=57 velocity=100 time=0
EXTRACT: note_on channel=4 note=47 velocity=50 time=0
EXTRACT: note_off channel=9 note=53 velocity=100 time=0.10752683333333334
EXTRACT: note_off channel=9 note=42 velocity=100 time=0.05376341666666667
EXTRACT: note_off channel=1 note=33 velocity=100 time=0.05376341666666667
EXTRACT: note_off channel=9 note=35 velocity=100 time=0
EXTRACT: note_off channel=5 note=67 velocity=100 time=0.05376341666666667
EXTRACT: note_off channel=6 note=67 velocity=100 time=0
EXTRACT: note_on channel=9 note=35 velocity=48 time=0.05376341666666667
EXTRACT: note_on channel=9 note=53 velocity=48 time=0
EXTRACT: note_on channel=9 note=42 velocity=48 time=0
EXTRACT: note_on channel=4 note=59 velocity=48 time=0
EXTRACT: note_off channel=6 note=71 velocity=64 time=0
EXTRACT: note_off channel=6 note=64 velocity=64 time=0
EXTRACT: note_off channel=0 note=67 velocity=64 time=0.10752683333333334
EXTRACT: note_off channel=9 note=53 velocity=100 time=0
EXTRACT: note_off channel=9 note=42 velocity=100 time=0.05376341666666667
EXTRACT: note_on channel=5 note=62 velocity=47 time=0
EXTRACT: note_on channel=6 note=62 velocity=47 time=0
EXTRACT: note_off channel=9 note=35 velocity=100 time=0.05376341666666667
EXTRACT: note_on channel=0 note=62 velocity=46 time=0.10752683333333334
EXTRACT: note_on channel=9 note=35 velocity=46 time=0
EXTRACT: note_on channel=9 note=53 velocity=46 time=0
EXTRACT: note_on channel=9 note=42 velocity=46 time=0
EXTRACT: note_off channel=4 note=59 velocity=100 time=0
EXTRACT: note_on channel=4 note=66 velocity=46 time=0
EXTRACT: note_off channel=5 note=62 velocity=100 time=0.05376341666666667
EXTRACT: note_off channel=6 note=62 velocity=100 time=0
EXTRACT: note_off channel=9 note=53 velocity=100 time=0.05376341666666667
EXTRACT: note_off channel=9 note=42 velocity=100 time=0.05376341666666667
EXTRACT: note_on channel=5 note=64 velocity=45 time=0
EXTRACT: note_on channel=6 note=64 velocity=45 time=0
EXTRACT: note_off channel=0 note=62 velocity=100 time=0.05376341666666667
EXTRACT: note_off channel=9 note=35 velocity=100 time=0
EXTRACT: note_on channel=0 note=64 velocity=44 time=0.10752683333333334
EXTRACT: note_on channel=9 note=55 velocity=44 time=0
EXTRACT: note_on channel=9 note=42 velocity=44 time=0
EXTRACT: note_off channel=4 note=66 velocity=64 time=0
EXTRACT: note_on channel=4 note=66 velocity=44 time=0
EXTRACT: note_off channel=9 note=55 velocity=100 time=0.10752683333333334
EXTRACT: note_off channel=1 note=47 velocity=64 time=0.0067204270833333335
EXTRACT: note_off channel=4 note=47 velocity=64 time=0
EXTRACT: note_off channel=9 note=42 velocity=100 time=0.04704298958333333
EXTRACT: note_off channel=5 note=64 velocity=100 time=0.10752683333333334
EXTRACT: note_on channel=9 note=42 velocity=42 time=0.05376341666666667
EXTRACT: note_off channel=4 note=66 velocity=100 time=0
EXTRACT: note_on channel=4 note=59 velocity=42 time=0
EXTRACT: note_off channel=0 note=64 velocity=100 time=0.10752683333333334
EXTRACT: note_off channel=9 note=42 velocity=100 time=0.05376341666666667
EXTRACT: note_on channel=5 note=66 velocity=41 time=0
EXTRACT: note_on channel=6 note=66 velocity=41 time=0
EXTRACT: note_on channel=0 note=66 velocity=40 time=0.16129025
EXTRACT: note_on channel=1 note=33 velocity=40 time=0
EXTRACT: note_on channel=9 note=35 velocity=40 time=0
EXTRACT: note_on channel=9 note=42 velocity=40 time=0
EXTRACT: note_off channel=4 note=59 velocity=100 time=0
EXTRACT: note_on channel=4 note=57 velocity=40 time=0
EXTRACT: note_on channel=4 note=57 velocity=40 time=0
EXTRACT: note_off channel=5 note=66 velocity=100 time=0.05376341666666667
EXTRACT: note_off channel=6 note=66 velocity=100 time=0
EXTRACT: note_off channel=9 note=42 velocity=100 time=0.10752683333333334
EXTRACT: note_on channel=5 note=67 velocity=39 time=0
EXTRACT: note_on channel=6 note=67 velocity=39 time=0
EXTRACT: note_off channel=0 note=66 velocity=100 time=0.05376341666666667
EXTRACT: note_off channel=1 note=33 velocity=100 time=0
EXTRACT: note_off channel=9 note=35 velocity=100 time=0
EXTRACT: note_on channel=0 note=67 velocity=38 time=0.10752683333333334
EXTRACT: note_on channel=1 note=28 velocity=38 time=0
EXTRACT: note_on channel=9 note=35 velocity=38 time=0
EXTRACT: note_on channel=9 note=42 velocity=38 time=0
EXTRACT: note_off channel=4 note=57 velocity=100 time=0
EXTRACT: note_off channel=4 note=57 velocity=100 time=0
EXTRACT: note_on channel=4 note=40 velocity=38 time=0
EXTRACT: note_off channel=9 note=42 velocity=100 time=0.16129025
EXTRACT: note_off channel=1 note=28 velocity=100 time=0.05376341666666667
EXTRACT: note_off channel=9 note=35 velocity=100 time=0
EXTRACT: note_off channel=5 note=67 velocity=100 time=0.05376341666666667
EXTRACT: note_off channel=6 note=67 velocity=100 time=0
EXTRACT: note_on channel=1 note=40 velocity=36 time=0.05376341666666667
EXTRACT: note_on channel=9 note=42 velocity=36 time=0
EXTRACT: note_on channel=4 note=59 velocity=36 time=0
EXTRACT: note_off channel=0 note=67 velocity=100 time=0.10752683333333334
EXTRACT: note_off channel=9 note=42 velocity=100 time=0.05376341666666667
EXTRACT: note_on channel=5 note=64 velocity=35 time=0
EXTRACT: note_on channel=6 note=64 velocity=35 time=0
EXTRACT: note_off channel=1 note=40 velocity=100 time=0.05376341666666667
EXTRACT: note_on channel=0 note=64 velocity=34 time=0.10752683333333334
EXTRACT: note_on channel=1 note=40 velocity=34 time=0
EXTRACT: note_on channel=9 note=35 velocity=34 time=0
EXTRACT: note_on channel=9 note=42 velocity=34 time=0
EXTRACT: note_off channel=4 note=59 velocity=100 time=0
EXTRACT: note_on channel=4 note=64 velocity=34 time=0
EXTRACT: note_off channel=9 note=42 velocity=100 time=0.16129025
EXTRACT: note_off channel=1 note=40 velocity=100 time=0.05376341666666667
EXTRACT: note_off channel=9 note=35 velocity=100 time=0
EXTRACT: note_off channel=4 note=40 velocity=64 time=0
EXTRACT: note_off channel=5 note=64 velocity=100 time=0.05376341666666667
EXTRACT: note_off channel=6 note=64 velocity=100 time=0
EXTRACT: note_on channel=1 note=40 velocity=32 time=0.05376341666666667
EXTRACT: note_on channel=9 note=55 velocity=32 time=0
EXTRACT: note_on channel=9 note=42 velocity=32 time=0
EXTRACT: note_off channel=4 note=64 velocity=100 time=0
EXTRACT: note_on channel=4 note=64 velocity=32 time=0
EXTRACT: note_off channel=7 note=76 velocity=64 time=0
EXTRACT: note_off channel=7 note=76 velocity=64 time=0
EXTRACT: note_off channel=7 note=83 velocity=64 time=0
EXTRACT: note_off channel=7 note=83 velocity=64 time=0
EXTRACT: note_off channel=0 note=64 velocity=64 time=0.10752683333333334
EXTRACT: note_off channel=9 note=42 velocity=100 time=0.05376341666666667
EXTRACT: note_on channel=5 note=71 velocity=31 time=0
EXTRACT: note_on channel=6 note=71 velocity=31 time=0
EXTRACT: note_off channel=1 note=40 velocity=64 time=0.05376341666666667
EXTRACT: note_off channel=9 note=55 velocity=100 time=0
EXTRACT: note_on channel=0 note=71 velocity=30 time=0.10752683333333334
EXTRACT: note_on channel=9 note=42 velocity=30 time=0
EXTRACT: note_off channel=4 note=64 velocity=100 time=0
EXTRACT: note_on channel=4 note=59 velocity=30 time=0
EXTRACT: note_off channel=9 note=42 velocity=100 time=0.16129025
EXTRACT: note_on channel=5 note=69 velocity=29 time=0
EXTRACT: note_on channel=6 note=69 velocity=29 time=0
EXTRACT: note_off channel=5 note=71 velocity=100 time=0.10752683333333334
EXTRACT: note_on channel=0 note=69 velocity=28 time=0.05376341666666667
EXTRACT: note_on channel=1 note=31 velocity=28 time=0
EXTRACT: note_on channel=9 note=35 velocity=28 time=0
EXTRACT: note_on channel=9 note=42 velocity=28 time=0
EXTRACT: note_off channel=4 note=59 velocity=64 time=0
EXTRACT: note_on channel=4 note=57 velocity=28 time=0
EXTRACT: note_off channel=0 note=71 velocity=100 time=0.10752683333333334
EXTRACT: note_off channel=9 note=42 velocity=100 time=0.05376341666666667
EXTRACT: note_on channel=5 note=71 velocity=27 time=0
EXTRACT: note_on channel=6 note=71 velocity=27 time=0
EXTRACT: note_off channel=1 note=31 velocity=100 time=0.05376341666666667
EXTRACT: note_off channel=9 note=35 velocity=100 time=0
EXTRACT: note_off channel=5 note=69 velocity=100 time=0.05376341666666667
EXTRACT: note_off channel=6 note=69 velocity=100 time=0
EXTRACT: note_on channel=0 note=71 velocity=26 time=0.05376341666666667
EXTRACT: note_on channel=1 note=33 velocity=26 time=0
EXTRACT: note_on channel=9 note=35 velocity=26 time=0
EXTRACT: note_on channel=9 note=42 velocity=26 time=0
EXTRACT: note_off channel=4 note=57 velocity=100 time=0
EXTRACT: note_on channel=4 note=47 velocity=26 time=0
EXTRACT: note_off channel=0 note=69 velocity=100 time=0.10752683333333334
EXTRACT: note_off channel=9 note=42 velocity=100 time=0.05376341666666667
EXTRACT: note_on channel=5 note=67 velocity=25 time=0
EXTRACT: note_on channel=6 note=67 velocity=25 time=0
EXTRACT: note_off channel=1 note=33 velocity=100 time=0.05376341666666667
EXTRACT: note_off channel=9 note=35 velocity=100 time=0
EXTRACT: note_off channel=5 note=71 velocity=100 time=0.05376341666666667
EXTRACT: note_off channel=6 note=71 velocity=100 time=0
EXTRACT: note_on channel=0 note=67 velocity=24 time=0.05376341666666667
EXTRACT: note_on channel=9 note=35 velocity=24 time=0
EXTRACT: note_on channel=9 note=42 velocity=24 time=0
EXTRACT: note_on channel=4 note=59 velocity=24 time=0
EXTRACT: note_on channel=5 note=67 velocity=24 time=0
EXTRACT: note_on channel=6 note=67 velocity=24 time=0
EXTRACT: note_off channel=0 note=71 velocity=100 time=0.10752683333333334
EXTRACT: note_off channel=9 note=42 velocity=100 time=0.05376341666666667
EXTRACT: note_off channel=5 note=67 velocity=0 time=0
EXTRACT: note_off channel=6 note=67 velocity=0 time=0
EXTRACT: note_off channel=9 note=35 velocity=100 time=0.05376341666666667
EXTRACT: note_off channel=5 note=67 velocity=100 time=0.05376341666666667
EXTRACT: note_off channel=6 note=67 velocity=100 time=0
EXTRACT: note_on channel=9 note=35 velocity=22 time=0.05376341666666667
EXTRACT: note_on channel=9 note=42 velocity=22 time=0
EXTRACT: note_off channel=4 note=47 velocity=64 time=0
EXTRACT: note_off channel=4 note=59 velocity=100 time=0
EXTRACT: note_off channel=0 note=67 velocity=100 time=0.10752683333333334
EXTRACT: note_off channel=9 note=42 velocity=100 time=0.05376341666666667
EXTRACT: note_off channel=9 note=35 velocity=100 time=0.05376341666666667
EXTRACT: note_on channel=9 note=55 velocity=20 time=0.10752683333333334
EXTRACT: note_on channel=9 note=42 velocity=20 time=0
EXTRACT: note_off channel=9 note=42 velocity=100 time=0.16129025
EXTRACT: note_off channel=9 note=55 velocity=100 time=0.05376341666666667
EXTRACT: note_on channel=9 note=42 velocity=18 time=0.10752683333333334
EXTRACT: note_off channel=9 note=42 velocity=100 time=0.16129025
EXTRACT: note_on channel=5 note=62 velocity=17 time=0
EXTRACT: note_on channel=6 note=62 velocity=17 time=0
EXTRACT: note_on channel=0 note=62 velocity=16 time=0.16129025
EXTRACT: note_on channel=1 note=33 velocity=16 time=0
EXTRACT: note_on channel=9 note=35 velocity=16 time=0
EXTRACT: note_on channel=9 note=42 velocity=16 time=0
EXTRACT: note_on channel=6 note=64 velocity=16 time=0
EXTRACT: note_on channel=6 note=71 velocity=16 time=0
EXTRACT: note_on channel=7 note=83 velocity=16 time=0
EXTRACT: note_on channel=7 note=76 velocity=16 time=0
EXTRACT: note_off channel=9 note=42 velocity=100 time=0.16129025
EXTRACT: note_off channel=5 note=62 velocity=64 time=0
EXTRACT: note_on channel=5 note=64 velocity=15 time=0
EXTRACT: note_off channel=6 note=62 velocity=64 time=0
EXTRACT: note_off channel=6 note=64 velocity=64 time=0
EXTRACT: note_off channel=6 note=71 velocity=64 time=0
EXTRACT: note_off channel=6 note=64 velocity=64 time=0
EXTRACT: note_off channel=6 note=71 velocity=64 time=0
EXTRACT: note_on channel=6 note=64 velocity=15 time=0
EXTRACT: note_off channel=7 note=83 velocity=64 time=0
EXTRACT: note_off channel=7 note=76 velocity=64 time=0
EXTRACT: note_off channel=1 note=33 velocity=100 time=0.05376341666666667
EXTRACT: note_off channel=9 note=35 velocity=100 time=0
EXTRACT: note_off channel=0 note=62 velocity=64 time=0.10752683333333334
EXTRACT: note_on channel=0 note=64 velocity=14 time=0
EXTRACT: note_on channel=1 note=28 velocity=14 time=0
EXTRACT: note_on channel=9 note=35 velocity=14 time=0
EXTRACT: note_on channel=9 note=42 velocity=14 time=0
EXTRACT: note_on channel=4 note=40 velocity=14 time=0
EXTRACT: note_off channel=9 note=42 velocity=100 time=0.16129025
EXTRACT: note_off channel=1 note=28 velocity=100 time=0.05376341666666667
EXTRACT: note_off channel=9 note=35 velocity=100 time=0
EXTRACT: note_off channel=5 note=64 velocity=100 time=0.05376341666666667
EXTRACT: note_off channel=6 note=64 velocity=100 time=0
EXTRACT: note_on channel=1 note=40 velocity=12 time=0.05376341666666667
EXTRACT: note_on channel=9 note=42 velocity=12 time=0
EXTRACT: note_off channel=0 note=64 velocity=100 time=0.10752683333333334
EXTRACT: note_off channel=9 note=42 velocity=100 time=0.05376341666666667
EXTRACT: note_off channel=1 note=40 velocity=100 time=0.05376341666666667
EXTRACT: note_on channel=1 note=40 velocity=10 time=0.10752683333333334
EXTRACT: note_on channel=9 note=35 velocity=10 time=0
EXTRACT: note_on channel=9 note=42 velocity=10 time=0
EXTRACT: note_off channel=9 note=42 velocity=100 time=0.16129025
EXTRACT: note_off channel=1 note=40 velocity=100 time=0.05376341666666667
EXTRACT: note_off channel=9 note=35 velocity=100 time=0
EXTRACT: note_off channel=4 note=40 velocity=100 time=0
EXTRACT: note_on channel=1 note=40 velocity=8 time=0.10752683333333334
EXTRACT: note_on channel=9 note=55 velocity=8 time=0
EXTRACT: note_on channel=9 note=42 velocity=8 time=0
EXTRACT: note_off channel=9 note=42 velocity=100 time=0.16129025
EXTRACT: note_off channel=1 note=40 velocity=100 time=0.05376341666666667
EXTRACT: note_off channel=9 note=55 velocity=100 time=0
EXTRACT: note_on channel=9 note=42 velocity=6 time=0.10752683333333334
EXTRACT: note_on channel=5 note=64 velocity=6 time=0
EXTRACT: note_on channel=6 note=64 velocity=6 time=0
EXTRACT: note_on channel=0 note=64 velocity=5 time=0.16129025
EXTRACT: note_off channel=9 note=42 velocity=100 time=0
EXTRACT: note_on channel=1 note=31 velocity=4 time=0.16129025
EXTRACT: note_on channel=9 note=35 velocity=4 time=0
EXTRACT: note_on channel=9 note=42 velocity=4 time=0
EXTRACT: note_off channel=5 note=64 velocity=100 time=0.10752683333333334
EXTRACT: note_off channel=6 note=64 velocity=100 time=0
EXTRACT: note_off channel=9 note=42 velocity=100 time=0.05376341666666667
EXTRACT: note_on channel=5 note=67 velocity=3 time=0
EXTRACT: note_on channel=6 note=67 velocity=3 time=0
EXTRACT: note_off channel=1 note=31 velocity=100 time=0.05376341666666667
EXTRACT: note_off channel=9 note=35 velocity=100 time=0
EXTRACT: note_off channel=0 note=64 velocity=100 time=0.05376341666666667
EXTRACT: note_on channel=0 note=67 velocity=2 time=0.05376341666666667
EXTRACT: note_on channel=1 note=33 velocity=2 time=0
EXTRACT: note_on channel=9 note=35 velocity=2 time=0
EXTRACT: note_on channel=9 note=42 velocity=2 time=0
EXTRACT: note_off channel=9 note=42 velocity=100 time=0.16129025
EXTRACT: note_off channel=1 note=33 velocity=100 time=0.05376341666666667
EXTRACT: note_off channel=9 note=35 velocity=100 time=0
EXTRACT: note_off channel=5 note=67 velocity=100 time=0.05376341666666667
EXTRACT: note_off channel=6 note=67 velocity=100 time=0
EXTRACT: note_off channel=0 note=67 velocity=64 time=0.16129025
EXTRACT: note_on channel=9 note=35 velocity=32 time=0.21505366666666667
EXTRACT: note_off channel=9 note=35 velocity=100 time=0.21505366666666667
EXTRACT: note_on channel=9 note=35 velocity=30 time=0.10752683333333334
EXTRACT: note_off channel=9 note=35 velocity=100 time=0.21505366666666667
EXTRACT: note_on channel=9 note=35 velocity=29 time=0.10752683333333334
EXTRACT: note_off channel=9 note=35 velocity=100 time=0.21505366666666667
EXTRACT: note_on channel=9 note=35 velocity=28 time=0.10752683333333334
EXTRACT: note_off channel=9 note=35 velocity=100 time=0.21505366666666667
MUSIC74 - fallin.mid
INTERVALS74 - fallin.mid
unison54
2m25
2M72
3m18
3M38
4m21
4M0
5m12
5M5
6m4
7m2
7M0