EXTRACT: sysex data=(126,127,9,1) time=0
EXTRACT: sysex data=(65,16,66,18,64,0,127,0,65) time=0.19999999999999998
EXTRACT: control_change channel=0 control=0 value=0 time=0.2008333333333333
EXTRACT: control_change channel=0 control=32 value=0 time=0.0008333333333333333
EXTRACT: program_change channel=0 program=49 time=0.0008333333333333333
EXTRACT: control_change channel=0 control=7 value=90 time=0.0008333333333333333
EXTRACT: control_change channel=0 control=10 value=89 time=0.0008333333333333333
EXTRACT: control_change channel=0 control=11 value=127 time=0.0008333333333333333
EXTRACT: control_change channel=0 control=91 value=55 time=0.0008333333333333333
EXTRACT: control_change channel=0 control=93 value=0 time=0.0008333333333333333
EXTRACT: control_change channel=0 control=101 value=0 time=0.004999999999999999
EXTRACT: control_change channel=2 control=0 value=0 time=0.0024999999999999996
EXTRACT: control_change channel=0 control=100 value=0 time=0.0008333333333333333
EXTRACT: control_change channel=2 control=32 value=0 time=0
EXTRACT: program_change channel=2 program=25 time=0.0008333333333333333
EXTRACT: control_change channel=2 control=7 value=100 time=0.0008333333333333333
EXTRACT: control_change channel=2 control=10 value=69 time=0.0008333333333333333
EXTRACT: control_change channel=0 control=6 value=2 time=0.0008333333333333333
EXTRACT: control_change channel=2 control=11 value=127 time=0
EXTRACT: control_change channel=2 control=91 value=100 time=0.0008333333333333333
EXTRACT: control_change channel=2 control=93 value=40 time=0.0008333333333333333
EXTRACT: control_change channel=3 control=0 value=0 time=0.0008333333333333333
EXTRACT: control_change channel=0 control=101 value=127 time=0.0008333333333333333
EXTRACT: control_change channel=3 control=32 value=0 time=0
EXTRACT: program_change channel=3 program=66 time=0.0008333333333333333
EXTRACT: control_change channel=3 control=7 value=120 time=0.0008333333333333333
EXTRACT: control_change channel=3 control=10 value=64 time=0.0008333333333333333
EXTRACT: control_change channel=0 control=100 value=127 time=0.0008333333333333333
EXTRACT: control_change channel=3 control=11 value=127 time=0
EXTRACT: control_change channel=3 control=91 value=100 time=0.0008333333333333333
EXTRACT: control_change channel=3 control=93 value=64 time=0.0008333333333333333
EXTRACT: control_change channel=4 control=0 value=0 time=0.0075
EXTRACT: control_change channel=4 control=32 value=0 time=0.0008333333333333333
EXTRACT: program_change channel=4 program=48 time=0.0008333333333333333
EXTRACT: control_change channel=4 control=7 value=90 time=0.0008333333333333333
EXTRACT: control_change channel=4 control=10 value=49 time=0.0008333333333333333
EXTRACT: control_change channel=4 control=11 value=127 time=0.0008333333333333333
EXTRACT: control_change channel=4 control=91 value=55 time=0.0008333333333333333
EXTRACT: control_change channel=4 control=93 value=0 time=0.0008333333333333333
EXTRACT: control_change channel=6 control=0 value=0 time=0.0008333333333333333
EXTRACT: control_change channel=6 control=32 value=0 time=0.0008333333333333333
EXTRACT: program_change channel=6 program=24 time=0.0008333333333333333
EXTRACT: control_change channel=6 control=7 value=60 time=0.0008333333333333333
EXTRACT: control_change channel=6 control=10 value=59 time=0.0008333333333333333
EXTRACT: control_change channel=6 control=11 value=127 time=0.0008333333333333333
EXTRACT: control_change channel=6 control=91 value=64 time=0.0008333333333333333
EXTRACT: control_change channel=6 control=93 value=20 time=0.0008333333333333333
EXTRACT: control_change channel=7 control=0 value=0 time=0.0008333333333333333
EXTRACT: control_change channel=7 control=32 value=0 time=0.0008333333333333333
EXTRACT: program_change channel=7 program=42 time=0.0008333333333333333
EXTRACT: control_change channel=7 control=7 value=100 time=0.0008333333333333333
EXTRACT: control_change channel=7 control=10 value=24 time=0.0008333333333333333
EXTRACT: control_change channel=7 control=11 value=127 time=0.0008333333333333333
EXTRACT: control_change channel=7 control=91 value=55 time=0.0008333333333333333
EXTRACT: control_change channel=7 control=93 value=40 time=0.0008333333333333333
EXTRACT: control_change channel=8 control=0 value=0 time=0.0008333333333333333
EXTRACT: control_change channel=8 control=32 value=0 time=0.0008333333333333333
EXTRACT: program_change channel=8 program=41 time=0.0008333333333333333
EXTRACT: control_change channel=8 control=7 value=100 time=0.0008333333333333333
EXTRACT: control_change channel=5 control=0 value=0 time=0.0008333333333333333
EXTRACT: control_change channel=8 control=10 value=104 time=0
EXTRACT: control_change channel=5 control=32 value=0 time=0.0008333333333333333
EXTRACT: control_change channel=8 control=11 value=127 time=0
EXTRACT: program_change channel=5 program=40 time=0.0008333333333333333
EXTRACT: control_change channel=8 control=91 value=55 time=0
EXTRACT: control_change channel=5 control=7 value=100 time=0.0008333333333333333
EXTRACT: control_change channel=8 control=93 value=40 time=0
EXTRACT: control_change channel=5 control=10 value=94 time=0.0008333333333333333
EXTRACT: control_change channel=9 control=0 value=0 time=0
EXTRACT: control_change channel=5 control=11 value=127 time=0.0008333333333333333
EXTRACT: control_change channel=9 control=32 value=0 time=0
EXTRACT: program_change channel=9 program=0 time=0.0008333333333333333
EXTRACT: control_change channel=5 control=91 value=55 time=0
EXTRACT: control_change channel=5 control=93 value=40 time=0.0008333333333333333
EXTRACT: control_change channel=9 control=7 value=127 time=0
EXTRACT: control_change channel=9 control=10 value=64 time=0.0008333333333333333
EXTRACT: control_change channel=9 control=11 value=127 time=0.0008333333333333333
EXTRACT: control_change channel=9 control=91 value=46 time=0.0008333333333333333
EXTRACT: control_change channel=9 control=93 value=0 time=0.0008333333333333333
EXTRACT: control_change channel=2 control=101 value=0 time=0.05333333333333333
EXTRACT: control_change channel=2 control=100 value=0 time=0.003333333333333333
EXTRACT: control_change channel=2 control=6 value=2 time=0.003333333333333333
EXTRACT: control_change channel=3 control=101 value=0 time=0.0008333333333333333
EXTRACT: control_change channel=2 control=101 value=127 time=0.0024999999999999996
EXTRACT: control_change channel=3 control=100 value=0 time=0.0008333333333333333
EXTRACT: control_change channel=2 control=100 value=127 time=0.0024999999999999996
EXTRACT: control_change channel=3 control=6 value=2 time=0.0008333333333333333
EXTRACT: control_change channel=6 control=101 value=0 time=0.0016666666666666666
EXTRACT: control_change channel=3 control=101 value=127 time=0.0016666666666666666
EXTRACT: control_change channel=4 control=101 value=0 time=0.0016666666666666666
EXTRACT: control_change channel=6 control=100 value=0 time=0
EXTRACT: control_change channel=3 control=100 value=127 time=0.0016666666666666666
EXTRACT: control_change channel=4 control=100 value=0 time=0.0016666666666666666
EXTRACT: control_change channel=6 control=6 value=2 time=0
EXTRACT: control_change channel=7 control=6 value=2 time=0.0008333333333333333
EXTRACT: control_change channel=4 control=6 value=2 time=0.0024999999999999996
EXTRACT: control_change channel=6 control=101 value=127 time=0
EXTRACT: control_change channel=7 control=101 value=127 time=0.0008333333333333333
EXTRACT: control_change channel=8 control=101 value=0 time=0.0008333333333333333
EXTRACT: control_change channel=4 control=101 value=127 time=0.0016666666666666666
EXTRACT: control_change channel=6 control=100 value=127 time=0
EXTRACT: control_change channel=7 control=100 value=127 time=0.0008333333333333333
EXTRACT: control_change channel=5 control=101 value=0 time=0.0008333333333333333
EXTRACT: control_change channel=8 control=100 value=0 time=0
EXTRACT: control_change channel=4 control=100 value=127 time=0.0016666666666666666
EXTRACT: control_change channel=5 control=100 value=0 time=0.0016666666666666666
EXTRACT: control_change channel=8 control=6 value=2 time=0
EXTRACT: control_change channel=5 control=6 value=2 time=0.003333333333333333
EXTRACT: control_change channel=8 control=101 value=127 time=0
EXTRACT: control_change channel=5 control=101 value=127 time=0.003333333333333333
EXTRACT: control_change channel=8 control=100 value=127 time=0
EXTRACT: control_change channel=5 control=100 value=127 time=0.003333333333333333
EXTRACT: note_on channel=2 note=50 velocity=105 time=0.14423075
EXTRACT: note_on channel=6 note=50 velocity=95 time=0
EXTRACT: note_on channel=2 note=57 velocity=104 time=0.28245188541666666
EXTRACT: note_on channel=6 note=57 velocity=94 time=0
EXTRACT: note_on channel=3 note=57 velocity=108 time=0.00360576875
EXTRACT: note_on channel=2 note=62 velocity=108 time=0.0024038458333333333
EXTRACT: note_on channel=6 note=62 velocity=98 time=0
EXTRACT: note_off channel=3 note=57 velocity=80 time=0.27884611666666664
EXTRACT: note_off channel=2 note=50 velocity=80 time=0.0024038458333333333
EXTRACT: note_off channel=6 note=50 velocity=80 time=0
EXTRACT: note_on channel=2 note=50 velocity=100 time=0
EXTRACT: note_on channel=6 note=50 velocity=90 time=0
EXTRACT: note_on channel=3 note=57 velocity=109 time=0.0024038458333333333
EXTRACT: note_off channel=2 note=57 velocity=80 time=0.2752403479166667
EXTRACT: note_off channel=2 note=62 velocity=80 time=0
EXTRACT: note_off channel=6 note=57 velocity=80 time=0
EXTRACT: note_off channel=6 note=62 velocity=80 time=0
EXTRACT: note_on channel=2 note=57 velocity=102 time=0.0048076916666666665
EXTRACT: note_on channel=6 note=57 velocity=92 time=0
EXTRACT: note_off channel=3 note=57 velocity=80 time=0.0012019229166666666
EXTRACT: note_on channel=3 note=57 velocity=109 time=0
EXTRACT: note_on channel=2 note=62 velocity=102 time=0.0024038458333333333
EXTRACT: note_on channel=6 note=62 velocity=92 time=0
EXTRACT: note_off channel=3 note=57 velocity=80 time=0.13341344375
EXTRACT: note_on channel=3 note=57 velocity=107 time=0.0048076916666666665
EXTRACT: note_off channel=2 note=50 velocity=80 time=0.13942305833333332
EXTRACT: note_off channel=6 note=50 velocity=80 time=0
EXTRACT: note_on channel=2 note=50 velocity=103 time=0.0048076916666666665
EXTRACT: note_on channel=6 note=50 velocity=93 time=0
EXTRACT: note_off channel=3 note=57 velocity=80 time=0.13581728958333333
EXTRACT: note_on channel=3 note=55 velocity=106 time=0.0012019229166666666
EXTRACT: note_off channel=2 note=57 velocity=80 time=0.13221152083333332
EXTRACT: note_off channel=2 note=62 velocity=80 time=0
EXTRACT: note_off channel=6 note=57 velocity=80 time=0
EXTRACT: note_off channel=6 note=62 velocity=80 time=0
EXTRACT: note_on channel=2 note=57 velocity=107 time=0.0048076916666666665
EXTRACT: note_on channel=6 note=57 velocity=97 time=0
EXTRACT: note_on channel=2 note=62 velocity=107 time=0.008413460416666666
EXTRACT: note_on channel=6 note=62 velocity=97 time=0
EXTRACT: note_off channel=3 note=55 velocity=80 time=0.13221152083333332
EXTRACT: note_on channel=3 note=54 velocity=103 time=0.0048076916666666665
EXTRACT: note_off channel=2 note=50 velocity=80 time=0.13942305833333332
EXTRACT: note_off channel=6 note=50 velocity=80 time=0
EXTRACT: note_on channel=2 note=50 velocity=105 time=0.0048076916666666665
EXTRACT: note_on channel=6 note=50 velocity=95 time=0
EXTRACT: note_off channel=3 note=54 velocity=80 time=0.13461536666666665
EXTRACT: note_on channel=3 note=55 velocity=108 time=0.0024038458333333333
EXTRACT: note_off channel=2 note=57 velocity=80 time=0.13100959791666666
EXTRACT: note_off channel=2 note=62 velocity=80 time=0
EXTRACT: note_off channel=6 note=57 velocity=80 time=0
EXTRACT: note_off channel=6 note=62 velocity=80 time=0
EXTRACT: note_on channel=2 note=57 velocity=110 time=0.0048076916666666665
EXTRACT: note_on channel=6 note=57 velocity=100 time=0
EXTRACT: note_on channel=2 note=62 velocity=106 time=0.008413460416666666
EXTRACT: note_on channel=6 note=62 velocity=96 time=0
EXTRACT: note_off channel=2 note=62 velocity=80 time=0.2752403479166667
EXTRACT: note_off channel=6 note=62 velocity=80 time=0
EXTRACT: note_off channel=2 note=50 velocity=80 time=0.006009614583333333
EXTRACT: note_off channel=6 note=50 velocity=80 time=0
EXTRACT: note_off channel=3 note=55 velocity=80 time=0.0024038458333333333
EXTRACT: note_on channel=0 note=73 velocity=88 time=0
EXTRACT: note_on channel=2 note=54 velocity=106 time=0
EXTRACT: note_on channel=6 note=54 velocity=96 time=0
EXTRACT: note_on channel=0 note=61 velocity=97 time=0.0024038458333333333
EXTRACT: note_on channel=3 note=57 velocity=108 time=0
EXTRACT: note_off channel=2 note=57 velocity=80 time=0.2752403479166667
EXTRACT: note_off channel=6 note=57 velocity=80 time=0
EXTRACT: note_on channel=2 note=57 velocity=109 time=0.0048076916666666665
EXTRACT: note_on channel=6 note=57 velocity=99 time=0
EXTRACT: note_on channel=2 note=61 velocity=102 time=0.008413460416666666
EXTRACT: note_on channel=6 note=61 velocity=92 time=0
EXTRACT: note_off channel=3 note=57 velocity=80 time=0.13942305833333332
EXTRACT: note_on channel=3 note=57 velocity=108 time=0.0048076916666666665
EXTRACT: note_off channel=2 note=54 velocity=80 time=0.13461536666666665
EXTRACT: note_off channel=6 note=54 velocity=80 time=0
EXTRACT: note_off channel=3 note=57 velocity=80 time=0
EXTRACT: note_on channel=2 note=54 velocity=102 time=0
EXTRACT: note_on channel=6 note=54 velocity=92 time=0
EXTRACT: note_on channel=3 note=57 velocity=109 time=0
EXTRACT: note_off channel=3 note=57 velocity=80 time=0.13942305833333332
EXTRACT: note_on channel=3 note=59 velocity=103 time=0
EXTRACT: note_off channel=2 note=57 velocity=80 time=0.13341344375
EXTRACT: note_off channel=2 note=61 velocity=80 time=0
EXTRACT: note_off channel=6 note=57 velocity=80 time=0
EXTRACT: note_off channel=6 note=61 velocity=80 time=0
EXTRACT: note_on channel=2 note=57 velocity=103 time=0.0048076916666666665
EXTRACT: note_on channel=6 note=57 velocity=93 time=0
EXTRACT: note_on channel=2 note=61 velocity=107 time=0.008413460416666666
EXTRACT: note_on channel=6 note=61 velocity=97 time=0
EXTRACT: note_off channel=3 note=59 velocity=80 time=0.1370192125
EXTRACT: note_on channel=3 note=57 velocity=106 time=0.0024038458333333333
EXTRACT: note_off channel=2 note=54 velocity=80 time=0.1370192125
EXTRACT: note_off channel=6 note=54 velocity=80 time=0
EXTRACT: note_on channel=2 note=54 velocity=105 time=0.0048076916666666665
EXTRACT: note_on channel=6 note=54 velocity=95 time=0
EXTRACT: note_off channel=3 note=57 velocity=80 time=0.14182690416666666
EXTRACT: note_on channel=3 note=55 velocity=109 time=0.0024038458333333333
EXTRACT: note_off channel=2 note=57 velocity=80 time=0.13100959791666666
EXTRACT: note_off channel=2 note=61 velocity=80 time=0
EXTRACT: note_off channel=6 note=57 velocity=80 time=0
EXTRACT: note_off channel=6 note=61 velocity=80 time=0
EXTRACT: note_on channel=2 note=57 velocity=101 time=0.0048076916666666665
EXTRACT: note_on channel=6 note=57 velocity=91 time=0
EXTRACT: note_on channel=2 note=61 velocity=104 time=0.008413460416666666
EXTRACT: note_on channel=6 note=61 velocity=94 time=0
EXTRACT: note_off channel=3 note=55 velocity=80 time=0.13942305833333332
EXTRACT: note_on channel=3 note=54 velocity=109 time=0.0024038458333333333
EXTRACT: note_off channel=2 note=54 velocity=80 time=0.1370192125
EXTRACT: note_off channel=6 note=54 velocity=80 time=0
EXTRACT: note_on channel=2 note=54 velocity=106 time=0.0048076916666666665
EXTRACT: note_on channel=6 note=54 velocity=96 time=0
EXTRACT: note_off channel=3 note=54 velocity=80 time=0.14062498125
EXTRACT: note_on channel=3 note=55 velocity=110 time=0.0012019229166666666
EXTRACT: note_off channel=2 note=57 velocity=80 time=0.13221152083333332
EXTRACT: note_off channel=2 note=61 velocity=80 time=0
EXTRACT: note_off channel=6 note=57 velocity=80 time=0
EXTRACT: note_off channel=6 note=61 velocity=80 time=0
EXTRACT: note_on channel=2 note=57 velocity=105 time=0.0048076916666666665
EXTRACT: note_on channel=6 note=57 velocity=95 time=0
EXTRACT: note_on channel=2 note=61 velocity=109 time=0.008413460416666666
EXTRACT: note_on channel=6 note=61 velocity=99 time=0
EXTRACT: note_off channel=3 note=55 velocity=80 time=0.13822113541666667
EXTRACT: note_on channel=3 note=57 velocity=107 time=0.0012019229166666666
EXTRACT: note_off channel=2 note=61 velocity=80 time=0.13221152083333332
EXTRACT: note_off channel=6 note=61 velocity=80 time=0
EXTRACT: note_off channel=0 note=73 velocity=80 time=0.00360576875
EXTRACT: note_off channel=2 note=54 velocity=80 time=0.0024038458333333333
EXTRACT: note_off channel=6 note=54 velocity=80 time=0
EXTRACT: note_off channel=0 note=61 velocity=80 time=0.0024038458333333333
EXTRACT: note_on channel=2 note=50 velocity=104 time=0.0024038458333333333
EXTRACT: note_on channel=6 note=50 velocity=94 time=0
EXTRACT: note_on channel=0 note=74 velocity=90 time=0.0012019229166666666
EXTRACT: note_on channel=0 note=62 velocity=90 time=0.0012019229166666666
EXTRACT: note_off channel=2 note=57 velocity=80 time=0.2752403479166667
EXTRACT: note_off channel=6 note=57 velocity=80 time=0
EXTRACT: note_on channel=2 note=57 velocity=110 time=0.0048076916666666665
EXTRACT: note_on channel=6 note=57 velocity=100 time=0
EXTRACT: note_off channel=3 note=57 velocity=80 time=0.0012019229166666666
EXTRACT: note_on channel=3 note=57 velocity=102 time=0
EXTRACT: note_on channel=2 note=62 velocity=106 time=0.0024038458333333333
EXTRACT: note_on channel=6 note=62 velocity=96 time=0
EXTRACT: note_off channel=2 note=50 velocity=80 time=0.2812499625
EXTRACT: note_off channel=3 note=57 velocity=80 time=0
EXTRACT: note_off channel=6 note=50 velocity=80 time=0
EXTRACT: note_on channel=2 note=50 velocity=108 time=0
EXTRACT: note_on channel=6 note=50 velocity=98 time=0
EXTRACT: note_on channel=3 note=57 velocity=110 time=0.0048076916666666665
EXTRACT: note_off channel=2 note=57 velocity=80 time=0.2728365020833333
EXTRACT: note_off channel=2 note=62 velocity=80 time=0
EXTRACT: note_off channel=6 note=57 velocity=80 time=0
EXTRACT: note_off channel=6 note=62 velocity=80 time=0
EXTRACT: note_on channel=2 note=57 velocity=107 time=0.0048076916666666665
EXTRACT: note_on channel=6 note=57 velocity=97 time=0
EXTRACT: note_off channel=3 note=57 velocity=80 time=0
EXTRACT: note_on channel=3 note=57 velocity=102 time=0.0048076916666666665
EXTRACT: note_on channel=2 note=62 velocity=103 time=0.0024038458333333333
EXTRACT: note_on channel=6 note=62 velocity=93 time=0
EXTRACT: note_off channel=3 note=57 velocity=80 time=0.13581728958333333
EXTRACT: note_on channel=3 note=57 velocity=106 time=0.0048076916666666665
EXTRACT: note_off channel=2 note=50 velocity=80 time=0.13461536666666665
EXTRACT: note_off channel=6 note=50 velocity=80 time=0
EXTRACT: note_on channel=2 note=50 velocity=102 time=0.0048076916666666665
EXTRACT: note_on channel=6 note=50 velocity=92 time=0
EXTRACT: note_off channel=2 note=57 velocity=80 time=0.27764419375
EXTRACT: note_off channel=2 note=62 velocity=80 time=0
EXTRACT: note_off channel=6 note=57 velocity=80 time=0
EXTRACT: note_off channel=6 note=62 velocity=80 time=0
EXTRACT: note_on channel=2 note=57 velocity=105 time=0.0048076916666666665
EXTRACT: note_on channel=6 note=57 velocity=95 time=0
EXTRACT: note_off channel=3 note=57 velocity=80 time=0.00360576875
EXTRACT: note_on channel=2 note=62 velocity=109 time=0.0024038458333333333
EXTRACT: note_on channel=3 note=55 velocity=105 time=0
EXTRACT: note_on channel=6 note=62 velocity=99 time=0
EXTRACT: note_off channel=2 note=50 velocity=80 time=0.2812499625
EXTRACT: note_off channel=6 note=50 velocity=80 time=0
EXTRACT: note_off channel=3 note=55 velocity=80 time=0.0024038458333333333
EXTRACT: note_on channel=2 note=50 velocity=102 time=0
EXTRACT: note_on channel=6 note=50 velocity=92 time=0
EXTRACT: note_on channel=3 note=54 velocity=105 time=0.00360576875
EXTRACT: note_off channel=2 note=57 velocity=80 time=0.274038425
EXTRACT: note_off channel=2 note=62 velocity=80 time=0
EXTRACT: note_off channel=6 note=57 velocity=80 time=0
EXTRACT: note_off channel=6 note=62 velocity=80 time=0
EXTRACT: note_on channel=2 note=57 velocity=100 time=0.0048076916666666665
EXTRACT: note_on channel=6 note=57 velocity=90 time=0
EXTRACT: note_off channel=3 note=54 velocity=80 time=0.0012019229166666666
EXTRACT: note_on channel=3 note=55 velocity=107 time=0
EXTRACT: note_on channel=2 note=62 velocity=105 time=0.0024038458333333333
EXTRACT: note_on channel=6 note=62 velocity=95 time=0
EXTRACT: note_off channel=2 note=62 velocity=80 time=0.2752403479166667
EXTRACT: note_off channel=6 note=62 velocity=80 time=0
EXTRACT: note_off channel=3 note=55 velocity=80 time=0.0012019229166666666
EXTRACT: note_off channel=2 note=50 velocity=80 time=0.0048076916666666665
EXTRACT: note_off channel=6 note=50 velocity=80 time=0
EXTRACT: note_on channel=3 note=57 velocity=107 time=0
EXTRACT: note_off channel=0 note=74 velocity=80 time=0.0012019229166666666
EXTRACT: note_off channel=0 note=62 velocity=80 time=0.0012019229166666666
EXTRACT: note_on channel=2 note=54 velocity=104 time=0
EXTRACT: note_on channel=6 note=54 velocity=94 time=0
EXTRACT: note_on channel=0 note=61 velocity=91 time=0.0012019229166666666
EXTRACT: note_on channel=0 note=73 velocity=98 time=0.0012019229166666666
EXTRACT: note_off channel=2 note=57 velocity=80 time=0.2752403479166667
EXTRACT: note_off channel=6 note=57 velocity=80 time=0
EXTRACT: note_on channel=2 note=57 velocity=101 time=0.0048076916666666665
EXTRACT: note_on channel=6 note=57 velocity=91 time=0
EXTRACT: note_on channel=2 note=61 velocity=104 time=0.008413460416666666
EXTRACT: note_on channel=6 note=61 velocity=94 time=0
EXTRACT: note_off channel=3 note=57 velocity=80 time=0.13221152083333332
EXTRACT: note_on channel=3 note=57 velocity=101 time=0.0048076916666666665
EXTRACT: note_off channel=2 note=54 velocity=80 time=0.13461536666666665
EXTRACT: note_off channel=6 note=54 velocity=80 time=0
EXTRACT: note_off channel=3 note=57 velocity=80 time=0
EXTRACT: note_on channel=2 note=54 velocity=102 time=0
EXTRACT: note_on channel=6 note=54 velocity=92 time=0
EXTRACT: note_on channel=3 note=57 velocity=101 time=0.0048076916666666665
EXTRACT: note_off channel=3 note=57 velocity=80 time=0.13221152083333332
EXTRACT: note_on channel=3 note=59 velocity=106 time=0.0048076916666666665
EXTRACT: note_off channel=2 note=57 velocity=80 time=0.13341344375
EXTRACT: note_off channel=2 note=61 velocity=80 time=0
EXTRACT: note_off channel=6 note=57 velocity=80 time=0
EXTRACT: note_off channel=6 note=61 velocity=80 time=0
EXTRACT: note_on channel=2 note=57 velocity=108 time=0.0048076916666666665
EXTRACT: note_on channel=6 note=57 velocity=98 time=0
EXTRACT: note_on channel=2 note=61 velocity=106 time=0.008413460416666666
EXTRACT: note_on channel=6 note=61 velocity=96 time=0
EXTRACT: note_off channel=3 note=59 velocity=80 time=0.13461536666666665
EXTRACT: note_on channel=3 note=57 velocity=106 time=0.0012019229166666666
EXTRACT: note_off channel=2 note=54 velocity=80 time=0.13822113541666667
EXTRACT: note_off channel=6 note=54 velocity=80 time=0
EXTRACT: note_on channel=2 note=54 velocity=110 time=0.0048076916666666665
EXTRACT: note_on channel=6 note=54 velocity=100 time=0
EXTRACT: note_off channel=3 note=57 velocity=80 time=0.14062498125
EXTRACT: note_on channel=3 note=55 velocity=107 time=0.0012019229166666666
EXTRACT: note_off channel=2 note=57 velocity=80 time=0.13221152083333332
EXTRACT: note_off channel=2 note=61 velocity=80 time=0
EXTRACT: note_off channel=6 note=57 velocity=80 time=0
EXTRACT: note_off channel=6 note=61 velocity=80 time=0
EXTRACT: note_on channel=2 note=57 velocity=102 time=0.0048076916666666665
EXTRACT: note_on channel=6 note=57 velocity=92 time=0
EXTRACT: note_on channel=2 note=61 velocity=105 time=0.008413460416666666
EXTRACT: note_on channel=6 note=61 velocity=95 time=0
EXTRACT: note_off channel=2 note=54 velocity=80 time=0.2812499625
EXTRACT: note_off channel=6 note=54 velocity=80 time=0
EXTRACT: note_off channel=3 note=55 velocity=80 time=0
EXTRACT: note_on channel=2 note=54 velocity=100 time=0
EXTRACT: note_on channel=6 note=54 velocity=90 time=0
EXTRACT: note_on channel=3 note=54 velocity=102 time=0
EXTRACT: note_off channel=3 note=54 velocity=80 time=0.1370192125
EXTRACT: note_on channel=3 note=52 velocity=108 time=0.0048076916666666665
EXTRACT: note_off channel=2 note=57 velocity=80 time=0.13341344375
EXTRACT: note_off channel=6 note=57 velocity=80 time=0
EXTRACT: note_off channel=3 note=52 velocity=80 time=0.14543267291666667
EXTRACT: note_on channel=3 note=54 velocity=108 time=0.0048076916666666665
EXTRACT: note_off channel=2 note=61 velocity=80 time=0.13341344375
EXTRACT: note_off channel=6 note=61 velocity=80 time=0
EXTRACT: note_off channel=2 note=54 velocity=80 time=0.006009614583333333
EXTRACT: note_off channel=6 note=54 velocity=80 time=0
EXTRACT: note_off channel=0 note=61 velocity=80 time=0.0012019229166666666
EXTRACT: note_off channel=0 note=73 velocity=80 time=0.0012019229166666666
EXTRACT: note_on channel=2 note=47 velocity=100 time=0.0024038458333333333
EXTRACT: note_on channel=6 note=47 velocity=90 time=0
EXTRACT: control_change channel=0 control=11 value=30 time=0
EXTRACT: note_on channel=0 note=69 velocity=93 time=0.0012019229166666666
EXTRACT: control_change channel=0 control=11 value=36 time=0.14302882708333334
EXTRACT: note_on channel=2 note=54 velocity=100 time=0.13822113541666667
EXTRACT: note_on channel=6 note=54 velocity=90 time=0
EXTRACT: control_change channel=0 control=11 value=42 time=0.006009614583333333
EXTRACT: note_on channel=2 note=59 velocity=101 time=0.0024038458333333333
EXTRACT: note_on channel=6 note=59 velocity=91 time=0
EXTRACT: note_on channel=2 note=62 velocity=100 time=0.008413460416666666
EXTRACT: note_on channel=6 note=62 velocity=90 time=0
EXTRACT: control_change channel=0 control=11 value=49 time=0.13341344375
EXTRACT: note_off channel=2 note=47 velocity=80 time=0.13942305833333332
EXTRACT: note_off channel=6 note=47 velocity=80 time=0
EXTRACT: note_on channel=2 note=47 velocity=103 time=0.0048076916666666665
EXTRACT: note_on channel=6 note=47 velocity=93 time=0
EXTRACT: control_change channel=0 control=11 value=55 time=0
EXTRACT: control_change channel=0 control=11 value=62 time=0.14423075
EXTRACT: note_off channel=2 note=54 velocity=80 time=0.13341344375
EXTRACT: note_off channel=2 note=59 velocity=80 time=0
EXTRACT: note_off channel=2 note=62 velocity=80 time=0
EXTRACT: note_off channel=6 note=54 velocity=80 time=0
EXTRACT: note_off channel=6 note=59 velocity=80 time=0
EXTRACT: note_off channel=6 note=62 velocity=80 time=0
EXTRACT: note_on channel=2 note=54 velocity=100 time=0.0048076916666666665
EXTRACT: note_on channel=6 note=54 velocity=90 time=0
EXTRACT: control_change channel=0 control=11 value=68 time=0.006009614583333333
EXTRACT: note_on channel=2 note=59 velocity=101 time=0.0024038458333333333
EXTRACT: note_on channel=6 note=59 velocity=91 time=0
EXTRACT: note_on channel=2 note=62 velocity=100 time=0.008413460416666666
EXTRACT: note_on channel=6 note=62 velocity=90 time=0
EXTRACT: control_change channel=0 control=11 value=75 time=0.13341344375
EXTRACT: note_off channel=2 note=47 velocity=80 time=0.13942305833333332
EXTRACT: note_off channel=6 note=47 velocity=80 time=0
EXTRACT: note_on channel=8 note=54 velocity=99 time=0
EXTRACT: note_on channel=2 note=47 velocity=101 time=0.0048076916666666665
EXTRACT: note_on channel=4 note=54 velocity=95 time=0
EXTRACT: note_on channel=6 note=47 velocity=91 time=0
EXTRACT: control_change channel=0 control=11 value=81 time=0
EXTRACT: control_change channel=0 control=11 value=88 time=0.14423075
EXTRACT: note_off channel=2 note=54 velocity=80 time=0.13341344375
EXTRACT: note_off channel=2 note=59 velocity=80 time=0
EXTRACT: note_off channel=2 note=62 velocity=80 time=0
EXTRACT: note_off channel=6 note=54 velocity=80 time=0
EXTRACT: note_off channel=6 note=59 velocity=80 time=0
EXTRACT: note_off channel=6 note=62 velocity=80 time=0
EXTRACT: note_off channel=8 note=54 velocity=80 time=0
EXTRACT: note_off channel=4 note=54 velocity=80 time=0.0048076916666666665
EXTRACT: note_on channel=2 note=54 velocity=109 time=0
EXTRACT: note_on channel=6 note=54 velocity=99 time=0
EXTRACT: note_off channel=3 note=54 velocity=80 time=0.0012019229166666666
EXTRACT: note_on channel=4 note=52 velocity=96 time=0.0048076916666666665
EXTRACT: control_change channel=0 control=11 value=94 time=0
EXTRACT: note_on channel=2 note=59 velocity=110 time=0.0024038458333333333
EXTRACT: note_on channel=6 note=59 velocity=100 time=0
EXTRACT: note_on channel=8 note=52 velocity=90 time=0.0012019229166666666
EXTRACT: note_on channel=2 note=62 velocity=105 time=0.0072115375
EXTRACT: note_on channel=6 note=62 velocity=95 time=0
EXTRACT: control_change channel=0 control=11 value=101 time=0.13341344375
EXTRACT: note_off channel=2 note=54 velocity=80 time=0.13341344375
EXTRACT: note_off channel=2 note=62 velocity=80 time=0
EXTRACT: note_off channel=6 note=54 velocity=80 time=0
EXTRACT: note_off channel=6 note=62 velocity=80 time=0
EXTRACT: note_off channel=4 note=52 velocity=80 time=0.00360576875
EXTRACT: note_off channel=2 note=47 velocity=80 time=0.0024038458333333333
EXTRACT: note_off channel=6 note=47 velocity=80 time=0
EXTRACT: note_off channel=8 note=52 velocity=80 time=0.0012019229166666666
EXTRACT: note_on channel=2 note=45 velocity=100 time=0.00360576875
EXTRACT: note_on channel=4 note=66 velocity=89 time=0
EXTRACT: note_on channel=6 note=45 velocity=90 time=0
EXTRACT: control_change channel=0 control=11 value=107 time=0
EXTRACT: note_on channel=8 note=66 velocity=90 time=0.00360576875
EXTRACT: control_change channel=0 control=11 value=114 time=0.14062498125
EXTRACT: note_off channel=4 note=66 velocity=80 time=0.1370192125
EXTRACT: note_off channel=8 note=66 velocity=80 time=0.00360576875
EXTRACT: note_on channel=4 note=64 velocity=92 time=0.00360576875
EXTRACT: control_change channel=0 control=11 value=120 time=0
EXTRACT: note_on channel=8 note=64 velocity=97 time=0.0024038458333333333
EXTRACT: control_change channel=0 control=11 value=127 time=0.14182690416666666
EXTRACT: note_off channel=2 note=59 velocity=80 time=0.13341344375
EXTRACT: note_off channel=6 note=59 velocity=80 time=0
EXTRACT: note_off channel=4 note=64 velocity=80 time=0.0048076916666666665
EXTRACT: note_off channel=2 note=45 velocity=80 time=0.0012019229166666666
EXTRACT: note_off channel=6 note=45 velocity=80 time=0
EXTRACT: note_off channel=8 note=64 velocity=80 time=0.0012019229166666666
EXTRACT: note_on channel=2 note=43 velocity=110 time=0
EXTRACT: note_on channel=4 note=66 velocity=92 time=0
EXTRACT: note_on channel=6 note=43 velocity=100 time=0
EXTRACT: note_off channel=0 note=69 velocity=80 time=0.0012019229166666666
EXTRACT: note_on channel=8 note=66 velocity=94 time=0.00360576875
EXTRACT: note_off channel=4 note=66 velocity=80 time=0.27644227083333334
EXTRACT: note_on channel=2 note=55 velocity=101 time=0.0012019229166666666
EXTRACT: note_on channel=6 note=55 velocity=91 time=0
EXTRACT: note_off channel=8 note=66 velocity=80 time=0.0048076916666666665
EXTRACT: note_on channel=3 note=55 velocity=105 time=0
EXTRACT: note_on channel=8 note=67 velocity=91 time=0
EXTRACT: note_on channel=4 note=67 velocity=89 time=0
EXTRACT: note_on channel=2 note=59 velocity=100 time=0.0024038458333333333
EXTRACT: note_on channel=6 note=59 velocity=90 time=0
EXTRACT: note_on channel=2 note=62 velocity=106 time=0.008413460416666666
EXTRACT: note_on channel=6 note=62 velocity=96 time=0
EXTRACT: note_off channel=8 note=67 velocity=80 time=0.27043265625
EXTRACT: note_off channel=3 note=55 velocity=80 time=0.0012019229166666666
EXTRACT: note_off channel=4 note=67 velocity=80 time=0
EXTRACT: note_off channel=2 note=43 velocity=80 time=0.0012019229166666666
EXTRACT: note_off channel=6 note=43 velocity=80 time=0
EXTRACT: note_on channel=3 note=55 velocity=103 time=0.00360576875
EXTRACT: note_on channel=2 note=43 velocity=108 time=0
EXTRACT: note_on channel=4 note=66 velocity=92 time=0
EXTRACT: note_on channel=6 note=43 velocity=98 time=0
EXTRACT: note_on channel=8 note=66 velocity=96 time=0.0012019229166666666
EXTRACT: note_off channel=2 note=55 velocity=80 time=0.27644227083333334
EXTRACT: note_off channel=2 note=59 velocity=80 time=0
EXTRACT: note_off channel=2 note=62 velocity=80 time=0
EXTRACT: note_off channel=6 note=55 velocity=80 time=0
EXTRACT: note_off channel=6 note=59 velocity=80 time=0
EXTRACT: note_off channel=6 note=62 velocity=80 time=0
EXTRACT: note_off channel=3 note=55 velocity=80 time=0
EXTRACT: note_off channel=4 note=66 velocity=80 time=0.00360576875
EXTRACT: note_on channel=2 note=55 velocity=101 time=0.0012019229166666666
EXTRACT: note_on channel=6 note=55 velocity=91 time=0
EXTRACT: note_on channel=3 note=55 velocity=104 time=0
EXTRACT: note_off channel=8 note=66 velocity=80 time=0.0012019229166666666
EXTRACT: note_on channel=4 note=64 velocity=89 time=0
EXTRACT: note_on channel=2 note=59 velocity=100 time=0.0024038458333333333
EXTRACT: note_on channel=6 note=59 velocity=90 time=0
EXTRACT: note_on channel=8 note=64 velocity=94 time=0.0012019229166666666
EXTRACT: note_on channel=2 note=62 velocity=103 time=0.0072115375
EXTRACT: note_on channel=6 note=62 velocity=93 time=0
EXTRACT: note_off channel=3 note=55 velocity=80 time=0.1225961375
EXTRACT: note_on channel=3 note=54 velocity=107 time=0.0048076916666666665
EXTRACT: note_off channel=2 note=55 velocity=80 time=0.12860575208333333
EXTRACT: note_off channel=2 note=59 velocity=80 time=0
EXTRACT: note_off channel=2 note=62 velocity=80 time=0
EXTRACT: note_off channel=6 note=55 velocity=80 time=0
EXTRACT: note_off channel=6 note=59 velocity=80 time=0
EXTRACT: note_off channel=6 note=62 velocity=80 time=0
EXTRACT: note_off channel=4 note=64 velocity=80 time=0.0048076916666666665
EXTRACT: note_off channel=2 note=43 velocity=80 time=0.0012019229166666666
EXTRACT: note_off channel=6 note=43 velocity=80 time=0
EXTRACT: note_off channel=8 note=64 velocity=80 time=0.0024038458333333333
EXTRACT: note_on channel=8 note=62 velocity=91 time=0
EXTRACT: note_on channel=2 note=45 velocity=109 time=0.0024038458333333333
EXTRACT: note_on channel=4 note=62 velocity=91 time=0
EXTRACT: note_on channel=6 note=45 velocity=99 time=0
EXTRACT: note_off channel=8 note=62 velocity=80 time=0.28004803958333335
EXTRACT: note_off channel=4 note=62 velocity=80 time=0.0024038458333333333
EXTRACT: note_on channel=2 note=52 velocity=106 time=0
EXTRACT: note_on channel=6 note=52 velocity=96 time=0
EXTRACT: note_off channel=3 note=54 velocity=80 time=0.0012019229166666666
EXTRACT: note_on channel=8 note=61 velocity=95 time=0.0024038458333333333
EXTRACT: note_on channel=3 note=52 velocity=102 time=0
EXTRACT: note_on channel=4 note=61 velocity=89 time=0
EXTRACT: note_on channel=2 note=57 velocity=101 time=0.0024038458333333333
EXTRACT: note_on channel=6 note=57 velocity=91 time=0
EXTRACT: note_on channel=2 note=61 velocity=106 time=0.008413460416666666
EXTRACT: note_on channel=6 note=61 velocity=96 time=0
EXTRACT: note_off channel=8 note=61 velocity=80 time=0.26802881041666665
EXTRACT: note_off channel=4 note=61 velocity=80 time=0.0024038458333333333
EXTRACT: note_off channel=2 note=45 velocity=80 time=0.0024038458333333333
EXTRACT: note_off channel=3 note=52 velocity=80 time=0
EXTRACT: note_off channel=6 note=45 velocity=80 time=0
EXTRACT: note_on channel=8 note=64 velocity=95 time=0
EXTRACT: note_on channel=2 note=45 velocity=108 time=0
EXTRACT: note_on channel=4 note=64 velocity=92 time=0
EXTRACT: note_on channel=6 note=45 velocity=98 time=0
EXTRACT: note_on channel=3 note=50 velocity=110 time=0.00360576875
EXTRACT: note_off channel=8 note=64 velocity=80 time=0.2728365020833333
EXTRACT: note_off channel=2 note=52 velocity=80 time=0.0012019229166666666
EXTRACT: note_off channel=2 note=57 velocity=80 time=0
EXTRACT: note_off channel=2 note=61 velocity=80 time=0
EXTRACT: note_off channel=6 note=52 velocity=80 time=0
EXTRACT: note_off channel=6 note=57 velocity=80 time=0
EXTRACT: note_off channel=6 note=61 velocity=80 time=0
EXTRACT: note_off channel=3 note=50 velocity=80 time=0
EXTRACT: note_off channel=4 note=64 velocity=80 time=0.00360576875
EXTRACT: note_on channel=2 note=52 velocity=109 time=0.0012019229166666666
EXTRACT: note_on channel=6 note=52 velocity=99 time=0
EXTRACT: note_on channel=3 note=52 velocity=102 time=0
EXTRACT: note_on channel=8 note=61 velocity=92 time=0.0012019229166666666
EXTRACT: note_on channel=4 note=61 velocity=95 time=0
EXTRACT: note_on channel=2 note=57 velocity=107 time=0.0024038458333333333
EXTRACT: note_on channel=6 note=57 velocity=97 time=0
EXTRACT: note_on channel=2 note=61 velocity=110 time=0.008413460416666666
EXTRACT: note_on channel=6 note=61 velocity=100 time=0
EXTRACT: note_off channel=2 note=52 velocity=80 time=0.2668268875
EXTRACT: note_off channel=2 note=57 velocity=80 time=0
EXTRACT: note_off channel=2 note=61 velocity=80 time=0
EXTRACT: note_off channel=6 note=52 velocity=80 time=0
EXTRACT: note_off channel=6 note=57 velocity=80 time=0
EXTRACT: note_off channel=6 note=61 velocity=80 time=0
EXTRACT: note_off channel=8 note=61 velocity=80 time=0
EXTRACT: note_off channel=3 note=52 velocity=80 time=0
EXTRACT: note_off channel=4 note=61 velocity=80 time=0.0048076916666666665
EXTRACT: note_off channel=2 note=45 velocity=80 time=0.0012019229166666666
EXTRACT: note_off channel=6 note=45 velocity=80 time=0
EXTRACT: note_on channel=2 note=47 velocity=109 time=0
EXTRACT: note_on channel=4 note=62 velocity=88 time=0
EXTRACT: note_on channel=6 note=47 velocity=99 time=0
EXTRACT: note_on channel=8 note=62 velocity=84 time=0
EXTRACT: note_on channel=3 note=54 velocity=110 time=0.0012019229166666666
EXTRACT: note_on channel=2 note=54 velocity=105 time=0.2812499625
EXTRACT: note_on channel=6 note=54 velocity=95 time=0
EXTRACT: note_on channel=2 note=59 velocity=103 time=0.008413460416666666
EXTRACT: note_on channel=6 note=59 velocity=93 time=0
EXTRACT: note_on channel=2 note=62 velocity=110 time=0.008413460416666666
EXTRACT: note_on channel=6 note=62 velocity=100 time=0
EXTRACT: note_off channel=2 note=47 velocity=80 time=0.2728365020833333
EXTRACT: note_off channel=6 note=47 velocity=80 time=0
EXTRACT: note_on channel=2 note=47 velocity=108 time=0.0048076916666666665
EXTRACT: note_on channel=6 note=47 velocity=98 time=0
EXTRACT: note_off channel=2 note=54 velocity=80 time=0.27764419375
EXTRACT: note_off channel=2 note=59 velocity=80 time=0
EXTRACT: note_off channel=2 note=62 velocity=80 time=0
EXTRACT: note_off channel=6 note=54 velocity=80 time=0
EXTRACT: note_off channel=6 note=59 velocity=80 time=0
EXTRACT: note_off channel=6 note=62 velocity=80 time=0
EXTRACT: note_on channel=2 note=54 velocity=110 time=0.0048076916666666665
EXTRACT: note_on channel=6 note=54 velocity=100 time=0
EXTRACT: note_on channel=2 note=59 velocity=104 time=0.008413460416666666
EXTRACT: note_on channel=6 note=59 velocity=94 time=0
EXTRACT: note_on channel=2 note=62 velocity=100 time=0.008413460416666666
EXTRACT: note_on channel=6 note=62 velocity=90 time=0
EXTRACT: note_off channel=2 note=47 velocity=80 time=0.2728365020833333
EXTRACT: note_off channel=6 note=47 velocity=80 time=0
EXTRACT: note_on channel=2 note=47 velocity=110 time=0.0048076916666666665
EXTRACT: note_on channel=6 note=47 velocity=100 time=0
EXTRACT: note_off channel=3 note=54 velocity=80 time=0.0012019229166666666
EXTRACT: note_off channel=2 note=54 velocity=80 time=0.27644227083333334
EXTRACT: note_off channel=2 note=59 velocity=80 time=0
EXTRACT: note_off channel=2 note=62 velocity=80 time=0
EXTRACT: note_off channel=6 note=54 velocity=80 time=0
EXTRACT: note_off channel=6 note=59 velocity=80 time=0
EXTRACT: note_off channel=6 note=62 velocity=80 time=0
EXTRACT: note_on channel=2 note=54 velocity=108 time=0.0048076916666666665
EXTRACT: note_on channel=6 note=54 velocity=98 time=0
EXTRACT: note_on channel=2 note=59 velocity=105 time=0.0024038458333333333
EXTRACT: note_on channel=3 note=54 velocity=102 time=0
EXTRACT: note_on channel=6 note=59 velocity=95 time=0
EXTRACT: note_on channel=2 note=62 velocity=108 time=0.008413460416666666
EXTRACT: note_on channel=6 note=62 velocity=98 time=0
EXTRACT: note_off channel=2 note=47 velocity=80 time=0.2728365020833333
EXTRACT: note_off channel=3 note=54 velocity=80 time=0
EXTRACT: note_off channel=6 note=47 velocity=80 time=0
EXTRACT: note_on channel=2 note=47 velocity=109 time=0
EXTRACT: note_on channel=3 note=52 velocity=106 time=0
EXTRACT: note_on channel=6 note=47 velocity=99 time=0
EXTRACT: note_off channel=2 note=54 velocity=80 time=0.27764419375
EXTRACT: note_off channel=2 note=59 velocity=80 time=0
EXTRACT: note_off channel=2 note=62 velocity=80 time=0
EXTRACT: note_off channel=6 note=54 velocity=80 time=0
EXTRACT: note_off channel=6 note=59 velocity=80 time=0
EXTRACT: note_off channel=6 note=62 velocity=80 time=0
EXTRACT: note_on channel=2 note=54 velocity=105 time=0.0048076916666666665
EXTRACT: note_on channel=6 note=54 velocity=95 time=0
EXTRACT: note_off channel=3 note=52 velocity=80 time=0.0012019229166666666
EXTRACT: note_on channel=2 note=59 velocity=101 time=0.0024038458333333333
EXTRACT: note_on channel=6 note=59 velocity=91 time=0
EXTRACT: note_on channel=3 note=50 velocity=107 time=0
EXTRACT: note_on channel=2 note=62 velocity=106 time=0.008413460416666666
EXTRACT: note_on channel=6 note=62 velocity=96 time=0
EXTRACT: note_off channel=4 note=62 velocity=80 time=0.13221152083333332
EXTRACT: note_off channel=8 note=62 velocity=80 time=0
EXTRACT: note_off channel=2 note=54 velocity=80 time=0.13461536666666665
EXTRACT: note_off channel=2 note=59 velocity=80 time=0
EXTRACT: note_off channel=2 note=62 velocity=80 time=0
EXTRACT: note_off channel=6 note=54 velocity=80 time=0
EXTRACT: note_off channel=6 note=59 velocity=80 time=0
EXTRACT: note_off channel=6 note=62 velocity=80 time=0
EXTRACT: note_off channel=2 note=47 velocity=80 time=0.006009614583333333
EXTRACT: note_off channel=6 note=47 velocity=80 time=0
EXTRACT: note_off channel=3 note=50 velocity=80 time=0.0024038458333333333
EXTRACT: note_on channel=8 note=57 velocity=86 time=0
EXTRACT: note_on channel=2 note=45 velocity=101 time=0
EXTRACT: note_on channel=4 note=57 velocity=88 time=0
EXTRACT: note_on channel=6 note=45 velocity=91 time=0
EXTRACT: control_change channel=0 control=11 value=30 time=0
EXTRACT: note_on channel=0 note=69 velocity=104 time=0.0024038458333333333
EXTRACT: note_on channel=3 note=52 velocity=109 time=0
EXTRACT: control_change channel=0 control=11 value=36 time=0.14182690416666666
EXTRACT: note_on channel=2 note=52 velocity=106 time=0.13822113541666667
EXTRACT: note_on channel=6 note=52 velocity=96 time=0
EXTRACT: control_change channel=0 control=11 value=42 time=0.006009614583333333
EXTRACT: note_on channel=2 note=57 velocity=108 time=0.0024038458333333333
EXTRACT: note_on channel=6 note=57 velocity=98 time=0
EXTRACT: note_on channel=2 note=61 velocity=100 time=0.008413460416666666
EXTRACT: note_on channel=6 note=61 velocity=90 time=0
EXTRACT: control_change channel=0 control=11 value=49 time=0.13341344375
EXTRACT: note_off channel=2 note=45 velocity=80 time=0.13942305833333332
EXTRACT: note_off channel=6 note=45 velocity=80 time=0
EXTRACT: note_on channel=2 note=45 velocity=100 time=0.0048076916666666665
EXTRACT: note_on channel=6 note=45 velocity=90 time=0
EXTRACT: control_change channel=0 control=11 value=55 time=0
EXTRACT: control_change channel=0 control=11 value=62 time=0.14423075
EXTRACT: note_off channel=2 note=52 velocity=80 time=0.13341344375
EXTRACT: note_off channel=2 note=57 velocity=80 time=0
EXTRACT: note_off channel=2 note=61 velocity=80 time=0
EXTRACT: note_off channel=6 note=52 velocity=80 time=0
EXTRACT: note_off channel=6 note=57 velocity=80 time=0
EXTRACT: note_off channel=6 note=61 velocity=80 time=0
EXTRACT: note_on channel=2 note=52 velocity=105 time=0.0048076916666666665
EXTRACT: note_on channel=6 note=52 velocity=95 time=0
EXTRACT: control_change channel=0 control=11 value=68 time=0.006009614583333333
EXTRACT: note_on channel=2 note=57 velocity=110 time=0.0024038458333333333
EXTRACT: note_on channel=6 note=57 velocity=100 time=0
EXTRACT: note_on channel=2 note=61 velocity=106 time=0.008413460416666666
EXTRACT: note_on channel=6 note=61 velocity=96 time=0
EXTRACT: control_change channel=0 control=11 value=75 time=0.13341344375
EXTRACT: note_off channel=2 note=57 velocity=80 time=0.13341344375
EXTRACT: note_off channel=6 note=57 velocity=80 time=0
EXTRACT: note_off channel=2 note=45 velocity=80 time=0.006009614583333333
EXTRACT: note_off channel=6 note=45 velocity=80 time=0
EXTRACT: note_on channel=2 note=45 velocity=103 time=0.0048076916666666665
EXTRACT: note_on channel=6 note=45 velocity=93 time=0
EXTRACT: control_change channel=0 control=11 value=81 time=0
EXTRACT: control_change channel=0 control=11 value=88 time=0.14423075
EXTRACT: note_off channel=2 note=52 velocity=80 time=0.13341344375
EXTRACT: note_off channel=2 note=61 velocity=80 time=0
EXTRACT: note_off channel=6 note=52 velocity=80 time=0
EXTRACT: note_off channel=6 note=61 velocity=80 time=0
EXTRACT: note_on channel=2 note=57 velocity=108 time=0.0048076916666666665
EXTRACT: note_on channel=6 note=57 velocity=98 time=0
EXTRACT: control_change channel=0 control=11 value=94 time=0.006009614583333333
EXTRACT: note_off channel=3 note=52 velocity=80 time=0.0024038458333333333
EXTRACT: note_on channel=2 note=61 velocity=101 time=0
EXTRACT: note_on channel=6 note=61 velocity=91 time=0
EXTRACT: note_on channel=2 note=64 velocity=107 time=0.008413460416666666
EXTRACT: note_on channel=6 note=64 velocity=97 time=0
EXTRACT: control_change channel=0 control=11 value=101 time=0.13341344375
EXTRACT: note_off channel=2 note=57 velocity=80 time=0.13341344375
EXTRACT: note_off channel=6 note=57 velocity=80 time=0
EXTRACT: note_off channel=2 note=45 velocity=80 time=0.006009614583333333
EXTRACT: note_off channel=6 note=45 velocity=80 time=0
EXTRACT: note_on channel=2 note=45 velocity=103 time=0.0048076916666666665
EXTRACT: note_on channel=6 note=45 velocity=93 time=0
EXTRACT: control_change channel=0 control=11 value=107 time=0
EXTRACT: control_change channel=0 control=11 value=114 time=0.14423075
EXTRACT: note_off channel=2 note=61 velocity=80 time=0.13341344375
EXTRACT: note_off channel=2 note=64 velocity=80 time=0
EXTRACT: note_off channel=6 note=61 velocity=80 time=0
EXTRACT: note_off channel=6 note=64 velocity=80 time=0
EXTRACT: note_on channel=2 note=57 velocity=110 time=0.0048076916666666665
EXTRACT: note_on channel=6 note=57 velocity=100 time=0
EXTRACT: control_change channel=0 control=11 value=120 time=0.006009614583333333
EXTRACT: note_on channel=2 note=61 velocity=108 time=0.0024038458333333333
EXTRACT: note_on channel=6 note=61 velocity=98 time=0
EXTRACT: note_on channel=2 note=64 velocity=110 time=0.008413460416666666
EXTRACT: note_on channel=6 note=64 velocity=100 time=0
EXTRACT: note_off channel=8 note=57 velocity=80 time=0.12980767499999998
EXTRACT: note_off channel=4 note=57 velocity=80 time=0.0024038458333333333
EXTRACT: control_change channel=0 control=11 value=127 time=0.0012019229166666666
EXTRACT: note_off channel=2 note=57 velocity=80 time=0.13341344375
EXTRACT: note_off channel=2 note=61 velocity=80 time=0
EXTRACT: note_off channel=2 note=64 velocity=80 time=0
EXTRACT: note_off channel=6 note=57 velocity=80 time=0
EXTRACT: note_off channel=6 note=61 velocity=80 time=0
EXTRACT: note_off channel=6 note=64 velocity=80 time=0
EXTRACT: note_off channel=2 note=45 velocity=80 time=0.006009614583333333
EXTRACT: note_off channel=6 note=45 velocity=80 time=0
EXTRACT: note_off channel=0 note=69 velocity=80 time=0.0024038458333333333
EXTRACT: note_on channel=0 note=54 velocity=96 time=0
EXTRACT: note_on channel=0 note=57 velocity=85 time=0
EXTRACT: note_on channel=0 note=62 velocity=67 time=0
EXTRACT: note_on channel=2 note=50 velocity=103 time=0
EXTRACT: note_on channel=6 note=50 velocity=93 time=0
EXTRACT: note_on channel=7 note=54 velocity=85 time=0
EXTRACT: control_change channel=7 control=11 value=20 time=0
EXTRACT: control_change channel=8 control=11 value=20 time=0
EXTRACT: note_on channel=3 note=62 velocity=105 time=0.0012019229166666666
EXTRACT: note_on channel=8 note=57 velocity=83 time=0
EXTRACT: control_change channel=7 control=11 value=27 time=0.06971152916666666
EXTRACT: control_change channel=8 control=11 value=27 time=0
EXTRACT: control_change channel=7 control=11 value=33 time=0.07331729791666666
EXTRACT: control_change channel=8 control=11 value=33 time=0
EXTRACT: control_change channel=7 control=11 value=40 time=0.07091345208333333
EXTRACT: control_change channel=8 control=11 value=40 time=0
EXTRACT: note_on channel=2 note=57 velocity=100 time=0.06730768333333333
EXTRACT: note_on channel=6 note=57 velocity=90 time=0
EXTRACT: control_change channel=7 control=11 value=46 time=0.006009614583333333
EXTRACT: control_change channel=8 control=11 value=46 time=0
EXTRACT: note_on channel=2 note=62 velocity=108 time=0.0024038458333333333
EXTRACT: note_on channel=6 note=62 velocity=98 time=0
EXTRACT: note_on channel=2 note=66 velocity=105 time=0.008413460416666666
EXTRACT: note_on channel=6 note=66 velocity=95 time=0
EXTRACT: control_change channel=7 control=11 value=53 time=0.06009614583333333
EXTRACT: control_change channel=8 control=11 value=53 time=0
EXTRACT: control_change channel=7 control=11 value=60 time=0.07331729791666666
EXTRACT: control_change channel=8 control=11 value=60 time=0
EXTRACT: control_change channel=7 control=11 value=67 time=0.07091345208333333
EXTRACT: control_change channel=8 control=11 value=67 time=0
EXTRACT: note_off channel=2 note=50 velocity=80 time=0.06850960625
EXTRACT: note_off channel=6 note=50 velocity=80 time=0
EXTRACT: note_on channel=2 note=50 velocity=106 time=0.0048076916666666665
EXTRACT: note_on channel=6 note=50 velocity=96 time=0
EXTRACT: control_change channel=7 control=11 value=73 time=0
EXTRACT: control_change channel=8 control=11 value=73 time=0
EXTRACT: control_change channel=7 control=11 value=80 time=0.07091345208333333
EXTRACT: control_change channel=8 control=11 value=80 time=0
EXTRACT: control_change channel=7 control=11 value=86 time=0.07331729791666666
EXTRACT: control_change channel=8 control=11 value=86 time=0
EXTRACT: control_change channel=7 control=11 value=93 time=0.07091345208333333
EXTRACT: control_change channel=8 control=11 value=93 time=0
EXTRACT: note_off channel=2 note=57 velocity=80 time=0.062499991666666664
EXTRACT: note_off channel=2 note=62 velocity=80 time=0
EXTRACT: note_off channel=2 note=66 velocity=80 time=0
EXTRACT: note_off channel=6 note=57 velocity=80 time=0
EXTRACT: note_off channel=6 note=62 velocity=80 time=0
EXTRACT: note_off channel=6 note=66 velocity=80 time=0
EXTRACT: note_on channel=2 note=57 velocity=107 time=0.0048076916666666665
EXTRACT: note_on channel=6 note=57 velocity=97 time=0
EXTRACT: control_change channel=7 control=11 value=100 time=0.006009614583333333
EXTRACT: control_change channel=8 control=11 value=100 time=0
EXTRACT: note_on channel=2 note=62 velocity=103 time=0.0024038458333333333
EXTRACT: note_on channel=6 note=62 velocity=93 time=0
EXTRACT: note_on channel=2 note=66 velocity=106 time=0.008413460416666666
EXTRACT: note_on channel=6 note=66 velocity=96 time=0
EXTRACT: control_change channel=7 control=11 value=107 time=0.06009614583333333
EXTRACT: control_change channel=8 control=11 value=107 time=0
EXTRACT: note_off channel=3 note=62 velocity=80 time=0.06971152916666666
EXTRACT: control_change channel=7 control=11 value=113 time=0
EXTRACT: control_change channel=8 control=11 value=113 time=0
EXTRACT: note_on channel=3 note=62 velocity=104 time=0.0012019229166666666
EXTRACT: control_change channel=7 control=11 value=120 time=0.06971152916666666
EXTRACT: control_change channel=8 control=11 value=120 time=0
EXTRACT: note_off channel=2 note=50 velocity=80 time=0.06850960625
EXTRACT: note_off channel=6 note=50 velocity=80 time=0
EXTRACT: note_off channel=3 note=62 velocity=80 time=0
EXTRACT: note_on channel=2 note=50 velocity=105 time=0
EXTRACT: note_on channel=6 note=50 velocity=95 time=0
EXTRACT: control_change channel=7 control=11 value=127 time=0
EXTRACT: control_change channel=8 control=11 value=127 time=0
EXTRACT: note_on channel=3 note=66 velocity=101 time=0
EXTRACT: note_off channel=2 note=57 velocity=80 time=0.27764419375
EXTRACT: note_off channel=2 note=62 velocity=80 time=0
EXTRACT: note_off channel=2 note=66 velocity=80 time=0
EXTRACT: note_off channel=6 note=57 velocity=80 time=0
EXTRACT: note_off channel=6 note=62 velocity=80 time=0
EXTRACT: note_off channel=6 note=66 velocity=80 time=0
EXTRACT: note_on channel=2 note=57 velocity=101 time=0.0048076916666666665
EXTRACT: note_on channel=6 note=57 velocity=91 time=0
EXTRACT: note_off channel=3 note=66 velocity=80 time=0.0012019229166666666
EXTRACT: note_on channel=2 note=62 velocity=108 time=0.0024038458333333333
EXTRACT: note_on channel=6 note=62 velocity=98 time=0
EXTRACT: note_on channel=3 note=64 velocity=103 time=0.0024038458333333333
EXTRACT: note_on channel=2 note=66 velocity=103 time=0.006009614583333333
EXTRACT: note_on channel=6 note=66 velocity=93 time=0
EXTRACT: note_off channel=2 note=50 velocity=80 time=0.2728365020833333
EXTRACT: note_off channel=6 note=50 velocity=80 time=0
EXTRACT: note_off channel=3 note=64 velocity=80 time=0.0012019229166666666
EXTRACT: note_on channel=2 note=45 velocity=106 time=0
EXTRACT: note_on channel=6 note=45 velocity=96 time=0
EXTRACT: note_on channel=3 note=62 velocity=109 time=0.0012019229166666666
EXTRACT: note_off channel=2 note=57 velocity=80 time=0.27644227083333334
EXTRACT: note_off channel=2 note=66 velocity=80 time=0
EXTRACT: note_off channel=6 note=57 velocity=80 time=0
EXTRACT: note_off channel=6 note=66 velocity=80 time=0
EXTRACT: note_off channel=3 note=62 velocity=80 time=0.0048076916666666665
EXTRACT: note_on channel=3 note=61 velocity=102 time=0.0048076916666666665
EXTRACT: note_off channel=3 note=61 velocity=80 time=0.13581728958333333
EXTRACT: note_on channel=3 note=62 velocity=106 time=0.0048076916666666665
EXTRACT: note_off channel=0 note=54 velocity=64 time=0.08653845
EXTRACT: note_off channel=0 note=57 velocity=64 time=0
EXTRACT: note_off channel=2 note=62 velocity=80 time=0.046874993749999996
EXTRACT: note_off channel=6 note=62 velocity=80 time=0
EXTRACT: note_off channel=2 note=45 velocity=80 time=0.006009614583333333
EXTRACT: note_off channel=6 note=45 velocity=80 time=0
EXTRACT: note_on channel=7 note=57 velocity=84 time=0
EXTRACT: note_on channel=8 note=59 velocity=85 time=0
EXTRACT: note_on channel=0 note=57 velocity=84 time=0.0048076916666666665
EXTRACT: note_on channel=0 note=59 velocity=84 time=0
EXTRACT: note_on channel=2 note=47 velocity=109 time=0
EXTRACT: note_on channel=6 note=47 velocity=99 time=0
EXTRACT: control_change channel=7 control=11 value=20 time=0
EXTRACT: control_change channel=8 control=11 value=20 time=0
EXTRACT: note_off channel=7 note=54 velocity=64 time=0.037259610416666665
EXTRACT: note_off channel=8 note=57 velocity=64 time=0.0024038458333333333
EXTRACT: control_change channel=7 control=11 value=27 time=0.031249995833333332
EXTRACT: control_change channel=8 control=11 value=27 time=0
EXTRACT: note_off channel=3 note=62 velocity=80 time=0.06490383749999999
EXTRACT: note_on channel=3 note=61 velocity=109 time=0.0072115375
EXTRACT: control_change channel=7 control=11 value=33 time=0
EXTRACT: control_change channel=8 control=11 value=33 time=0
EXTRACT: control_change channel=7 control=11 value=40 time=0.07091345208333333
EXTRACT: control_change channel=8 control=11 value=40 time=0
EXTRACT: note_off channel=3 note=61 velocity=80 time=0.06730768333333333
EXTRACT: note_on channel=2 note=54 velocity=105 time=0
EXTRACT: note_on channel=6 note=54 velocity=95 time=0
EXTRACT: control_change channel=7 control=11 value=46 time=0
EXTRACT: control_change channel=8 control=11 value=46 time=0
EXTRACT: note_on channel=2 note=59 velocity=110 time=0.0024038458333333333
EXTRACT: note_on channel=3 note=59 velocity=102 time=0
EXTRACT: note_on channel=6 note=59 velocity=100 time=0
EXTRACT: note_on channel=2 note=62 velocity=102 time=0.008413460416666666
EXTRACT: note_on channel=6 note=62 velocity=92 time=0
EXTRACT: control_change channel=7 control=11 value=53 time=0.06009614583333333
EXTRACT: control_change channel=8 control=11 value=53 time=0
EXTRACT: control_change channel=7 control=11 value=60 time=0.07331729791666666
EXTRACT: control_change channel=8 control=11 value=60 time=0
EXTRACT: control_change channel=7 control=11 value=67 time=0.07091345208333333
EXTRACT: control_change channel=8 control=11 value=67 time=0
EXTRACT: note_off channel=2 note=47 velocity=80 time=0.06850960625
EXTRACT: note_off channel=6 note=47 velocity=80 time=0
EXTRACT: note_on channel=2 note=47 velocity=104 time=0.0048076916666666665
EXTRACT: note_on channel=6 note=47 velocity=94 time=0
EXTRACT: control_change channel=7 control=11 value=73 time=0
EXTRACT: control_change channel=8 control=11 value=73 time=0
EXTRACT: control_change channel=7 control=11 value=80 time=0.07091345208333333
EXTRACT: control_change channel=8 control=11 value=80 time=0
EXTRACT: control_change channel=7 control=11 value=86 time=0.07331729791666666
EXTRACT: control_change channel=8 control=11 value=86 time=0
EXTRACT: control_change channel=7 control=11 value=93 time=0.07091345208333333
EXTRACT: control_change channel=8 control=11 value=93 time=0
EXTRACT: note_off channel=2 note=54 velocity=80 time=0.062499991666666664
EXTRACT: note_off channel=2 note=59 velocity=80 time=0
EXTRACT: note_off channel=2 note=62 velocity=80 time=0
EXTRACT: note_off channel=6 note=54 velocity=80 time=0
EXTRACT: note_off channel=6 note=59 velocity=80 time=0
EXTRACT: note_off channel=6 note=62 velocity=80 time=0
EXTRACT: note_on channel=2 note=54 velocity=101 time=0.0048076916666666665
EXTRACT: note_on channel=6 note=54 velocity=91 time=0
EXTRACT: control_change channel=7 control=11 value=100 time=0.006009614583333333
EXTRACT: control_change channel=8 control=11 value=100 time=0
EXTRACT: note_on channel=2 note=59 velocity=101 time=0.0024038458333333333
EXTRACT: note_on channel=6 note=59 velocity=91 time=0
EXTRACT: note_on channel=2 note=62 velocity=110 time=0.008413460416666666
EXTRACT: note_on channel=6 note=62 velocity=100 time=0
EXTRACT: control_change channel=7 control=11 value=107 time=0.06009614583333333
EXTRACT: control_change channel=8 control=11 value=107 time=0
EXTRACT: control_change channel=7 control=11 value=113 time=0.07331729791666666
EXTRACT: control_change channel=8 control=11 value=113 time=0
EXTRACT: control_change channel=7 control=11 value=120 time=0.07091345208333333
EXTRACT: control_change channel=8 control=11 value=120 time=0
EXTRACT: note_off channel=2 note=47 velocity=80 time=0.06850960625
EXTRACT: note_off channel=6 note=47 velocity=80 time=0
EXTRACT: note_on channel=2 note=47 velocity=101 time=0.0048076916666666665
EXTRACT: note_on channel=6 note=47 velocity=91 time=0
EXTRACT: control_change channel=7 control=11 value=127 time=0
EXTRACT: control_change channel=8 control=11 value=127 time=0
EXTRACT: note_off channel=2 note=54 velocity=80 time=0.27764419375
EXTRACT: note_off channel=2 note=59 velocity=80 time=0
EXTRACT: note_off channel=2 note=62 velocity=80 time=0
EXTRACT: note_off channel=6 note=54 velocity=80 time=0
EXTRACT: note_off channel=6 note=59 velocity=80 time=0
EXTRACT: note_off channel=6 note=62 velocity=80 time=0
EXTRACT: note_on channel=2 note=54 velocity=101 time=0.0048076916666666665
EXTRACT: note_on channel=6 note=54 velocity=91 time=0
EXTRACT: note_on channel=2 note=59 velocity=103 time=0.008413460416666666
EXTRACT: note_on channel=6 note=59 velocity=93 time=0
EXTRACT: note_on channel=2 note=62 velocity=103 time=0.008413460416666666
EXTRACT: note_on channel=6 note=62 velocity=93 time=0
EXTRACT: note_off channel=2 note=47 velocity=80 time=0.2728365020833333
EXTRACT: note_off channel=6 note=47 velocity=80 time=0
EXTRACT: note_on channel=2 note=49 velocity=107 time=0.0048076916666666665
EXTRACT: note_on channel=6 note=49 velocity=97 time=0
EXTRACT: note_off channel=2 note=54 velocity=80 time=0.27764419375
EXTRACT: note_off channel=2 note=59 velocity=80 time=0
EXTRACT: note_off channel=2 note=62 velocity=80 time=0
EXTRACT: note_off channel=6 note=54 velocity=80 time=0
EXTRACT: note_off channel=6 note=59 velocity=80 time=0
EXTRACT: note_off channel=6 note=62 velocity=80 time=0
EXTRACT: note_on channel=2 note=54 velocity=100 time=0.0048076916666666665
EXTRACT: note_on channel=6 note=54 velocity=90 time=0
EXTRACT: note_off channel=3 note=59 velocity=80 time=0.00360576875
EXTRACT: note_on channel=2 note=59 velocity=100 time=0.0024038458333333333
EXTRACT: note_on channel=6 note=59 velocity=90 time=0
EXTRACT: note_on channel=3 note=57 velocity=107 time=0.0024038458333333333
EXTRACT: note_on channel=2 note=62 velocity=109 time=0.006009614583333333
EXTRACT: note_on channel=6 note=62 velocity=99 time=0
EXTRACT: note_off channel=0 note=57 velocity=64 time=0.1514422875
EXTRACT: note_off channel=0 note=59 velocity=64 time=0.01081730625
EXTRACT: note_off channel=7 note=57 velocity=64 time=0.05408653125
EXTRACT: note_off channel=8 note=59 velocity=64 time=0
EXTRACT: note_off channel=2 note=54 velocity=80 time=0.0504807625
EXTRACT: note_off channel=2 note=59 velocity=80 time=0
EXTRACT: note_off channel=2 note=62 velocity=80 time=0
EXTRACT: note_off channel=6 note=54 velocity=80 time=0
EXTRACT: note_off channel=6 note=59 velocity=80 time=0
EXTRACT: note_off channel=6 note=62 velocity=80 time=0
EXTRACT: note_off channel=3 note=57 velocity=80 time=0.00360576875
EXTRACT: note_off channel=2 note=49 velocity=80 time=0.0024038458333333333
EXTRACT: note_off channel=6 note=49 velocity=80 time=0
EXTRACT: note_on channel=8 note=57 velocity=89 time=0
EXTRACT: note_on channel=3 note=57 velocity=108 time=0.0024038458333333333
EXTRACT: note_on channel=0 note=54 velocity=86 time=0
EXTRACT: note_on channel=0 note=57 velocity=74 time=0
EXTRACT: note_on channel=2 note=50 velocity=105 time=0
EXTRACT: note_on channel=6 note=50 velocity=95 time=0
EXTRACT: note_on channel=7 note=54 velocity=80 time=0
EXTRACT: control_change channel=7 control=11 value=20 time=0
EXTRACT: control_change channel=8 control=11 value=20 time=0
EXTRACT: control_change channel=7 control=11 value=27 time=0.07091345208333333
EXTRACT: control_change channel=8 control=11 value=27 time=0
EXTRACT: control_change channel=7 control=11 value=33 time=0.07331729791666666
EXTRACT: control_change channel=8 control=11 value=33 time=0
EXTRACT: control_change channel=7 control=11 value=40 time=0.07091345208333333
EXTRACT: control_change channel=8 control=11 value=40 time=0
EXTRACT: note_on channel=2 note=57 velocity=102 time=0.06730768333333333
EXTRACT: note_on channel=6 note=57 velocity=92 time=0
EXTRACT: control_change channel=7 control=11 value=46 time=0.006009614583333333
EXTRACT: control_change channel=8 control=11 value=46 time=0
EXTRACT: note_on channel=2 note=62 velocity=108 time=0.0024038458333333333
EXTRACT: note_on channel=6 note=62 velocity=98 time=0
EXTRACT: note_on channel=2 note=66 velocity=109 time=0.008413460416666666
EXTRACT: note_on channel=6 note=66 velocity=99 time=0
EXTRACT: control_change channel=7 control=11 value=53 time=0.06009614583333333
EXTRACT: control_change channel=8 control=11 value=53 time=0
EXTRACT: control_change channel=7 control=11 value=60 time=0.07331729791666666
EXTRACT: control_change channel=8 control=11 value=60 time=0
EXTRACT: control_change channel=7 control=11 value=67 time=0.07091345208333333
EXTRACT: control_change channel=8 control=11 value=67 time=0
EXTRACT: note_off channel=2 note=50 velocity=80 time=0.06850960625
EXTRACT: note_off channel=6 note=50 velocity=80 time=0
EXTRACT: note_on channel=2 note=50 velocity=100 time=0.0048076916666666665
EXTRACT: note_on channel=6 note=50 velocity=90 time=0
EXTRACT: control_change channel=7 control=11 value=73 time=0
EXTRACT: control_change channel=8 control=11 value=73 time=0
EXTRACT: control_change channel=7 control=11 value=80 time=0.07091345208333333
EXTRACT: control_change channel=8 control=11 value=80 time=0
EXTRACT: control_change channel=7 control=11 value=86 time=0.07331729791666666
EXTRACT: control_change channel=8 control=11 value=86 time=0
EXTRACT: control_change channel=7 control=11 value=93 time=0.07091345208333333
EXTRACT: control_change channel=8 control=11 value=93 time=0
EXTRACT: note_off channel=2 note=57 velocity=80 time=0.062499991666666664
EXTRACT: note_off channel=2 note=62 velocity=80 time=0
EXTRACT: note_off channel=2 note=66 velocity=80 time=0
EXTRACT: note_off channel=6 note=57 velocity=80 time=0
EXTRACT: note_off channel=6 note=62 velocity=80 time=0
EXTRACT: note_off channel=6 note=66 velocity=80 time=0
EXTRACT: note_on channel=2 note=57 velocity=103 time=0.0048076916666666665
EXTRACT: note_on channel=6 note=57 velocity=93 time=0
EXTRACT: control_change channel=7 control=11 value=100 time=0.006009614583333333
EXTRACT: control_change channel=8 control=11 value=100 time=0
EXTRACT: note_on channel=2 note=62 velocity=100 time=0.0024038458333333333
EXTRACT: note_on channel=6 note=62 velocity=90 time=0
EXTRACT: note_on channel=2 note=66 velocity=101 time=0.008413460416666666
EXTRACT: note_on channel=6 note=66 velocity=91 time=0
EXTRACT: control_change channel=7 control=11 value=107 time=0.06009614583333333
EXTRACT: control_change channel=8 control=11 value=107 time=0
EXTRACT: note_off channel=3 note=57 velocity=80 time=0.06610576041666666
EXTRACT: note_on channel=3 note=57 velocity=103 time=0.0048076916666666665
EXTRACT: control_change channel=7 control=11 value=113 time=0
EXTRACT: control_change channel=8 control=11 value=113 time=0
EXTRACT: control_change channel=7 control=11 value=120 time=0.07091345208333333
EXTRACT: control_change channel=8 control=11 value=120 time=0
EXTRACT: note_off channel=3 note=57 velocity=80 time=0.06610576041666666
EXTRACT: note_off channel=2 note=50 velocity=80 time=0.0024038458333333333
EXTRACT: note_off channel=6 note=50 velocity=80 time=0
EXTRACT: note_on channel=3 note=57 velocity=101 time=0.00360576875
EXTRACT: note_on channel=2 note=50 velocity=109 time=0
EXTRACT: note_on channel=6 note=50 velocity=99 time=0
EXTRACT: control_change channel=7 control=11 value=127 time=0
EXTRACT: control_change channel=8 control=11 value=127 time=0
EXTRACT: note_off channel=2 note=57 velocity=80 time=0.27764419375
EXTRACT: note_off channel=2 note=62 velocity=80 time=0
EXTRACT: note_off channel=2 note=66 velocity=80 time=0
EXTRACT: note_off channel=6 note=57 velocity=80 time=0
EXTRACT: note_off channel=6 note=62 velocity=80 time=0
EXTRACT: note_off channel=6 note=66 velocity=80 time=0
EXTRACT: note_on channel=2 note=57 velocity=108 time=0.0048076916666666665
EXTRACT: note_on channel=6 note=57 velocity=98 time=0
EXTRACT: note_off channel=3 note=57 velocity=80 time=0
EXTRACT: note_on channel=3 note=55 velocity=103 time=0.0012019229166666666
EXTRACT: note_on channel=2 note=62 velocity=103 time=0.0012019229166666666
EXTRACT: note_on channel=6 note=62 velocity=93 time=0
EXTRACT: note_on channel=2 note=66 velocity=109 time=0.008413460416666666
EXTRACT: note_on channel=6 note=66 velocity=99 time=0
EXTRACT: note_off channel=3 note=55 velocity=80 time=0.27043265625
EXTRACT: note_off channel=2 note=50 velocity=80 time=0.0024038458333333333
EXTRACT: note_off channel=6 note=50 velocity=80 time=0
EXTRACT: note_on channel=3 note=54 velocity=102 time=0.0024038458333333333
EXTRACT: note_on channel=2 note=45 velocity=104 time=0
EXTRACT: note_on channel=6 note=45 velocity=94 time=0
EXTRACT: note_off channel=2 note=57 velocity=80 time=0.27764419375
EXTRACT: note_off channel=2 note=66 velocity=80 time=0
EXTRACT: note_off channel=6 note=57 velocity=80 time=0
EXTRACT: note_off channel=6 note=66 velocity=80 time=0
EXTRACT: note_off channel=3 note=54 velocity=80 time=0.0024038458333333333
EXTRACT: note_on channel=3 note=52 velocity=101 time=0.0048076916666666665
EXTRACT: note_off channel=3 note=52 velocity=80 time=0.13581728958333333
EXTRACT: note_on channel=3 note=54 velocity=100 time=0.006009614583333333
EXTRACT: note_off channel=0 note=54 velocity=64 time=0.0360576875
EXTRACT: note_off channel=0 note=57 velocity=64 time=0.042067302083333334
EXTRACT: note_off channel=2 note=62 velocity=80 time=0.05528845416666667
EXTRACT: note_off channel=6 note=62 velocity=80 time=0
EXTRACT: note_off channel=8 note=57 velocity=64 time=0.0012019229166666666
EXTRACT: note_off channel=2 note=45 velocity=80 time=0.0048076916666666665
EXTRACT: note_off channel=6 note=45 velocity=80 time=0
EXTRACT: note_off channel=7 note=54 velocity=64 time=0
EXTRACT: note_on channel=7 note=57 velocity=82 time=0.0012019229166666666
EXTRACT: note_on channel=0 note=54 velocity=86 time=0.00360576875
EXTRACT: note_on channel=0 note=59 velocity=96 time=0
EXTRACT: note_on channel=2 note=47 velocity=100 time=0
EXTRACT: note_on channel=6 note=47 velocity=90 time=0
EXTRACT: control_change channel=7 control=11 value=20 time=0
EXTRACT: control_change channel=8 control=11 value=20 time=0
EXTRACT: note_on channel=8 note=54 velocity=90 time=0.0024038458333333333
EXTRACT: control_change channel=7 control=11 value=27 time=0.06850960625
EXTRACT: control_change channel=8 control=11 value=27 time=0
EXTRACT: control_change channel=7 control=11 value=33 time=0.07331729791666666
EXTRACT: control_change channel=8 control=11 value=33 time=0
EXTRACT: control_change channel=7 control=11 value=40 time=0.07091345208333333
EXTRACT: control_change channel=8 control=11 value=40 time=0
EXTRACT: note_on channel=2 note=54 velocity=101 time=0.06730768333333333
EXTRACT: note_on channel=6 note=54 velocity=91 time=0
EXTRACT: control_change channel=7 control=11 value=46 time=0.006009614583333333
EXTRACT: control_change channel=8 control=11 value=46 time=0
EXTRACT: note_on channel=2 note=59 velocity=109 time=0.0024038458333333333
EXTRACT: note_on channel=6 note=59 velocity=99 time=0
EXTRACT: note_on channel=2 note=62 velocity=103 time=0.008413460416666666
EXTRACT: note_on channel=6 note=62 velocity=93 time=0
EXTRACT: control_change channel=7 control=11 value=53 time=0.06009614583333333
EXTRACT: control_change channel=8 control=11 value=53 time=0
EXTRACT: control_change channel=7 control=11 value=60 time=0.07331729791666666
EXTRACT: control_change channel=8 control=11 value=60 time=0
EXTRACT: control_change channel=7 control=11 value=67 time=0.07091345208333333
EXTRACT: control_change channel=8 control=11 value=67 time=0
EXTRACT: note_off channel=2 note=47 velocity=80 time=0.06850960625
EXTRACT: note_off channel=6 note=47 velocity=80 time=0
EXTRACT: note_on channel=2 note=47 velocity=107 time=0.0048076916666666665
EXTRACT: note_on channel=6 note=47 velocity=97 time=0
EXTRACT: control_change channel=7 control=11 value=73 time=0
EXTRACT: control_change channel=8 control=11 value=73 time=0
EXTRACT: control_change channel=7 control=11 value=80 time=0.07091345208333333
EXTRACT: control_change channel=8 control=11 value=80 time=0
EXTRACT: control_change channel=7 control=11 value=86 time=0.07331729791666666
EXTRACT: control_change channel=8 control=11 value=86 time=0
EXTRACT: control_change channel=7 control=11 value=93 time=0.07091345208333333
EXTRACT: control_change channel=8 control=11 value=93 time=0
EXTRACT: note_off channel=2 note=54 velocity=80 time=0.062499991666666664
EXTRACT: note_off channel=2 note=59 velocity=80 time=0
EXTRACT: note_off channel=2 note=62 velocity=80 time=0
EXTRACT: note_off channel=6 note=54 velocity=80 time=0
EXTRACT: note_off channel=6 note=59 velocity=80 time=0
EXTRACT: note_off channel=6 note=62 velocity=80 time=0
EXTRACT: note_on channel=2 note=54 velocity=110 time=0.0048076916666666665
EXTRACT: note_on channel=6 note=54 velocity=100 time=0
EXTRACT: control_change channel=7 control=11 value=100 time=0.006009614583333333
EXTRACT: control_change channel=8 control=11 value=100 time=0
EXTRACT: note_on channel=2 note=59 velocity=103 time=0.0024038458333333333
EXTRACT: note_on channel=6 note=59 velocity=93 time=0
EXTRACT: note_on channel=2 note=62 velocity=110 time=0.008413460416666666
EXTRACT: note_on channel=6 note=62 velocity=100 time=0
EXTRACT: control_change channel=7 control=11 value=107 time=0.06009614583333333
EXTRACT: control_change channel=8 control=11 value=107 time=0
EXTRACT: control_change channel=7 control=11 value=113 time=0.07331729791666666
EXTRACT: control_change channel=8 control=11 value=113 time=0
EXTRACT: control_change channel=7 control=11 value=120 time=0.07091345208333333
EXTRACT: control_change channel=8 control=11 value=120 time=0
EXTRACT: note_off channel=2 note=47 velocity=80 time=0.06850960625
EXTRACT: note_off channel=6 note=47 velocity=80 time=0
EXTRACT: note_on channel=2 note=47 velocity=102 time=0.0048076916666666665
EXTRACT: note_on channel=6 note=47 velocity=92 time=0
EXTRACT: control_change channel=7 control=11 value=127 time=0
EXTRACT: control_change channel=8 control=11 value=127 time=0
EXTRACT: note_off channel=2 note=54 velocity=80 time=0.27764419375
EXTRACT: note_off channel=2 note=59 velocity=80 time=0
EXTRACT: note_off channel=2 note=62 velocity=80 time=0
EXTRACT: note_off channel=6 note=54 velocity=80 time=0
EXTRACT: note_off channel=6 note=59 velocity=80 time=0
EXTRACT: note_off channel=6 note=62 velocity=80 time=0
EXTRACT: note_on channel=2 note=54 velocity=102 time=0.0048076916666666665
EXTRACT: note_on channel=6 note=54 velocity=92 time=0
EXTRACT: note_off channel=3 note=54 velocity=80 time=0.00360576875
EXTRACT: note_on channel=2 note=59 velocity=110 time=0.0048076916666666665
EXTRACT: note_on channel=6 note=59 velocity=100 time=0
EXTRACT: note_on channel=2 note=62 velocity=108 time=0.008413460416666666
EXTRACT: note_on channel=6 note=62 velocity=98 time=0
EXTRACT: note_off channel=2 note=47 velocity=80 time=0.2728365020833333
EXTRACT: note_off channel=6 note=47 velocity=80 time=0
EXTRACT: note_on channel=2 note=49 velocity=101 time=0.0048076916666666665
EXTRACT: note_on channel=6 note=49 velocity=91 time=0
EXTRACT: note_off channel=2 note=54 velocity=80 time=0.27764419375
EXTRACT: note_off channel=2 note=59 velocity=80 time=0
EXTRACT: note_off channel=2 note=62 velocity=80 time=0
EXTRACT: note_off channel=6 note=54 velocity=80 time=0
EXTRACT: note_off channel=6 note=59 velocity=80 time=0
EXTRACT: note_off channel=6 note=62 velocity=80 time=0
EXTRACT: note_on channel=2 note=54 velocity=106 time=0.0048076916666666665
EXTRACT: note_on channel=6 note=54 velocity=96 time=0
EXTRACT: note_on channel=2 note=59 velocity=102 time=0.008413460416666666
EXTRACT: note_on channel=6 note=59 velocity=92 time=0
EXTRACT: note_on channel=2 note=62 velocity=105 time=0.008413460416666666
EXTRACT: note_on channel=6 note=62 velocity=95 time=0
EXTRACT: note_off channel=0 note=54 velocity=64 time=0.16225959375
EXTRACT: note_off channel=0 note=59 velocity=64 time=0.043269225
EXTRACT: note_off channel=2 note=54 velocity=80 time=0.06129806875
EXTRACT: note_off channel=2 note=59 velocity=80 time=0
EXTRACT: note_off channel=2 note=62 velocity=80 time=0
EXTRACT: note_off channel=6 note=54 velocity=80 time=0
EXTRACT: note_off channel=6 note=59 velocity=80 time=0
EXTRACT: note_off channel=6 note=62 velocity=80 time=0
EXTRACT: note_off channel=2 note=49 velocity=80 time=0.006009614583333333
EXTRACT: note_off channel=6 note=49 velocity=80 time=0
EXTRACT: note_on channel=3 note=62 velocity=105 time=0
EXTRACT: note_on channel=7 note=54 velocity=80 time=0.0012019229166666666
EXTRACT: note_on channel=0 note=54 velocity=81 time=0
EXTRACT: note_on channel=0 note=57 velocity=84 time=0
EXTRACT: note_on channel=2 note=50 velocity=109 time=0
EXTRACT: note_on channel=6 note=50 velocity=99 time=0
EXTRACT: control_change channel=7 control=11 value=20 time=0
EXTRACT: control_change channel=8 control=11 value=20 time=0
EXTRACT: note_on channel=8 note=57 velocity=85 time=0.00360576875
EXTRACT: note_off channel=7 note=57 velocity=64 time=0.06490383749999999
EXTRACT: control_change channel=7 control=11 value=27 time=0.0024038458333333333
EXTRACT: control_change channel=8 control=11 value=27 time=0
EXTRACT: note_off channel=8 note=54 velocity=64 time=0.00360576875
EXTRACT: control_change channel=7 control=11 value=33 time=0.06971152916666666
EXTRACT: control_change channel=8 control=11 value=33 time=0
EXTRACT: control_change channel=7 control=11 value=40 time=0.07091345208333333
EXTRACT: control_change channel=8 control=11 value=40 time=0
EXTRACT: note_on channel=2 note=57 velocity=104 time=0.06730768333333333
EXTRACT: note_on channel=6 note=57 velocity=94 time=0
EXTRACT: control_change channel=7 control=11 value=46 time=0.006009614583333333
EXTRACT: control_change channel=8 control=11 value=46 time=0
EXTRACT: note_on channel=2 note=62 velocity=106 time=0.0024038458333333333
EXTRACT: note_on channel=6 note=62 velocity=96 time=0
EXTRACT: note_on channel=2 note=66 velocity=104 time=0.008413460416666666
EXTRACT: note_on channel=6 note=66 velocity=94 time=0
EXTRACT: control_change channel=7 control=11 value=53 time=0.06009614583333333
EXTRACT: control_change channel=8 control=11 value=53 time=0
EXTRACT: control_change channel=7 control=11 value=60 time=0.07331729791666666
EXTRACT: control_change channel=8 control=11 value=60 time=0
EXTRACT: control_change channel=7 control=11 value=67 time=0.07091345208333333
EXTRACT: control_change channel=8 control=11 value=67 time=0
EXTRACT: note_off channel=2 note=50 velocity=80 time=0.06850960625
EXTRACT: note_off channel=6 note=50 velocity=80 time=0
EXTRACT: note_on channel=2 note=50 velocity=110 time=0.0048076916666666665
EXTRACT: note_on channel=6 note=50 velocity=100 time=0
EXTRACT: control_change channel=7 control=11 value=73 time=0
EXTRACT: control_change channel=8 control=11 value=73 time=0
EXTRACT: control_change channel=7 control=11 value=80 time=0.07091345208333333
EXTRACT: control_change channel=8 control=11 value=80 time=0
EXTRACT: control_change channel=7 control=11 value=86 time=0.07331729791666666
EXTRACT: control_change channel=8 control=11 value=86 time=0
EXTRACT: control_change channel=7 control=11 value=93 time=0.07091345208333333
EXTRACT: control_change channel=8 control=11 value=93 time=0
EXTRACT: note_off channel=2 note=57 velocity=80 time=0.062499991666666664
EXTRACT: note_off channel=2 note=62 velocity=80 time=0
EXTRACT: note_off channel=2 note=66 velocity=80 time=0
EXTRACT: note_off channel=6 note=57 velocity=80 time=0
EXTRACT: note_off channel=6 note=62 velocity=80 time=0
EXTRACT: note_off channel=6 note=66 velocity=80 time=0
EXTRACT: note_on channel=2 note=57 velocity=103 time=0.0048076916666666665
EXTRACT: note_on channel=6 note=57 velocity=93 time=0
EXTRACT: control_change channel=7 control=11 value=100 time=0.006009614583333333
EXTRACT: control_change channel=8 control=11 value=100 time=0
EXTRACT: note_on channel=2 note=62 velocity=105 time=0.0024038458333333333
EXTRACT: note_on channel=6 note=62 velocity=95 time=0
EXTRACT: note_on channel=2 note=66 velocity=100 time=0.008413460416666666
EXTRACT: note_on channel=6 note=66 velocity=90 time=0
EXTRACT: control_change channel=7 control=11 value=107 time=0.06009614583333333
EXTRACT: control_change channel=8 control=11 value=107 time=0
EXTRACT: note_off channel=3 note=62 velocity=80 time=0.06370191458333334
EXTRACT: control_change channel=7 control=11 value=113 time=0
EXTRACT: control_change channel=8 control=11 value=113 time=0
EXTRACT: note_on channel=3 note=62 velocity=104 time=0.0012019229166666666
EXTRACT: control_change channel=7 control=11 value=120 time=0.06971152916666666
EXTRACT: control_change channel=8 control=11 value=120 time=0
EXTRACT: note_off channel=2 note=50 velocity=80 time=0.06850960625
EXTRACT: note_off channel=6 note=50 velocity=80 time=0
EXTRACT: note_off channel=3 note=62 velocity=80 time=0.0012019229166666666
EXTRACT: note_on channel=2 note=50 velocity=109 time=0
EXTRACT: note_on channel=6 note=50 velocity=99 time=0
EXTRACT: control_change channel=7 control=11 value=127 time=0
EXTRACT: control_change channel=8 control=11 value=127 time=0
EXTRACT: note_on channel=3 note=66 velocity=108 time=0.0012019229166666666
EXTRACT: note_off channel=2 note=57 velocity=80 time=0.27644227083333334
EXTRACT: note_off channel=2 note=62 velocity=80 time=0
EXTRACT: note_off channel=2 note=66 velocity=80 time=0
EXTRACT: note_off channel=6 note=57 velocity=80 time=0
EXTRACT: note_off channel=6 note=62 velocity=80 time=0
EXTRACT: note_off channel=6 note=66 velocity=80 time=0
EXTRACT: note_on channel=2 note=57 velocity=107 time=0.0048076916666666665
EXTRACT: note_on channel=6 note=57 velocity=97 time=0
EXTRACT: note_off channel=3 note=66 velocity=80 time=0.0024038458333333333
EXTRACT: note_on channel=2 note=62 velocity=106 time=0.0024038458333333333
EXTRACT: note_on channel=6 note=62 velocity=96 time=0
EXTRACT: note_on channel=3 note=64 velocity=104 time=0
EXTRACT: note_on channel=2 note=66 velocity=100 time=0.008413460416666666
EXTRACT: note_on channel=6 note=66 velocity=90 time=0
EXTRACT: note_off channel=2 note=50 velocity=80 time=0.2728365020833333
EXTRACT: note_off channel=6 note=50 velocity=80 time=0
EXTRACT: note_off channel=3 note=64 velocity=80 time=0.0024038458333333333
EXTRACT: note_on channel=2 note=45 velocity=102 time=0
EXTRACT: note_on channel=6 note=45 velocity=92 time=0
EXTRACT: note_on channel=3 note=62 velocity=108 time=0.00360576875
EXTRACT: note_off channel=2 note=57 velocity=80 time=0.274038425
EXTRACT: note_off channel=2 note=66 velocity=80 time=0
EXTRACT: note_off channel=6 note=57 velocity=80 time=0
EXTRACT: note_off channel=6 note=66 velocity=80 time=0
EXTRACT: note_off channel=3 note=62 velocity=80 time=0.009615383333333333
EXTRACT: note_on channel=3 note=61 velocity=110 time=0.0048076916666666665
EXTRACT: note_off channel=3 note=61 velocity=80 time=0.12860575208333333
EXTRACT: note_on channel=3 note=62 velocity=109 time=0.0048076916666666665
EXTRACT: note_off channel=0 note=54 velocity=64 time=0.05288460833333333
EXTRACT: note_off channel=0 note=57 velocity=64 time=0.013221152083333333
EXTRACT: note_off channel=2 note=62 velocity=80 time=0.06730768333333333
EXTRACT: note_off channel=6 note=62 velocity=80 time=0
EXTRACT: note_off channel=2 note=45 velocity=80 time=0.006009614583333333
EXTRACT: note_off channel=6 note=45 velocity=80 time=0
EXTRACT: note_on channel=7 note=57 velocity=83 time=0.0012019229166666666
EXTRACT: note_on channel=8 note=59 velocity=88 time=0.0012019229166666666
EXTRACT: note_on channel=0 note=57 velocity=85 time=0.0024038458333333333
EXTRACT: note_on channel=0 note=59 velocity=84 time=0
EXTRACT: note_on channel=2 note=47 velocity=100 time=0
EXTRACT: note_on channel=6 note=47 velocity=90 time=0
EXTRACT: control_change channel=7 control=11 value=20 time=0
EXTRACT: control_change channel=8 control=11 value=20 time=0
EXTRACT: note_off channel=7 note=54 velocity=64 time=0.019230766666666666
EXTRACT: note_off channel=8 note=57 velocity=64 time=0.0072115375
EXTRACT: control_change channel=7 control=11 value=27 time=0.04447114791666667
EXTRACT: control_change channel=8 control=11 value=27 time=0
EXTRACT: note_off channel=3 note=62 velocity=80 time=0.062499991666666664
EXTRACT: note_on channel=3 note=61 velocity=109 time=0.009615383333333333
EXTRACT: control_change channel=7 control=11 value=33 time=0
EXTRACT: control_change channel=8 control=11 value=33 time=0
EXTRACT: control_change channel=7 control=11 value=40 time=0.07091345208333333
EXTRACT: control_change channel=8 control=11 value=40 time=0
EXTRACT: note_off channel=3 note=61 velocity=80 time=0.06610576041666666
EXTRACT: note_on channel=2 note=54 velocity=103 time=0.0012019229166666666
EXTRACT: note_on channel=6 note=54 velocity=93 time=0
EXTRACT: note_on channel=3 note=59 velocity=107 time=0.00360576875
EXTRACT: control_change channel=7 control=11 value=46 time=0
EXTRACT: control_change channel=8 control=11 value=46 time=0
EXTRACT: note_on channel=2 note=59 velocity=107 time=0.0024038458333333333
EXTRACT: note_on channel=6 note=59 velocity=97 time=0
EXTRACT: note_on channel=2 note=62 velocity=104 time=0.008413460416666666
EXTRACT: note_on channel=6 note=62 velocity=94 time=0
EXTRACT: control_change channel=7 control=11 value=53 time=0.06009614583333333
EXTRACT: control_change channel=8 control=11 value=53 time=0
EXTRACT: control_change channel=7 control=11 value=60 time=0.07331729791666666
EXTRACT: control_change channel=8 control=11 value=60 time=0
EXTRACT: control_change channel=7 control=11 value=67 time=0.07091345208333333
EXTRACT: control_change channel=8 control=11 value=67 time=0
EXTRACT: note_off channel=2 note=47 velocity=80 time=0.06850960625
EXTRACT: note_off channel=6 note=47 velocity=80 time=0
EXTRACT: note_on channel=2 note=47 velocity=110 time=0.0048076916666666665
EXTRACT: note_on channel=6 note=47 velocity=100 time=0
EXTRACT: control_change channel=7 control=11 value=73 time=0
EXTRACT: control_change channel=8 control=11 value=73 time=0
EXTRACT: control_change channel=7 control=11 value=80 time=0.07091345208333333
EXTRACT: control_change channel=8 control=11 value=80 time=0
EXTRACT: control_change channel=7 control=11 value=86 time=0.07331729791666666
EXTRACT: control_change channel=8 control=11 value=86 time=0
EXTRACT: control_change channel=7 control=11 value=93 time=0.07091345208333333
EXTRACT: control_change channel=8 control=11 value=93 time=0
EXTRACT: note_off channel=2 note=54 velocity=80 time=0.062499991666666664
EXTRACT: note_off channel=2 note=59 velocity=80 time=0
EXTRACT: note_off channel=2 note=62 velocity=80 time=0
EXTRACT: note_off channel=6 note=54 velocity=80 time=0
EXTRACT: note_off channel=6 note=59 velocity=80 time=0
EXTRACT: note_off channel=6 note=62 velocity=80 time=0
EXTRACT: note_on channel=2 note=54 velocity=100 time=0.0048076916666666665
EXTRACT: note_on channel=6 note=54 velocity=90 time=0
EXTRACT: control_change channel=7 control=11 value=100 time=0.006009614583333333
EXTRACT: control_change channel=8 control=11 value=100 time=0
EXTRACT: note_on channel=2 note=59 velocity=107 time=0.0024038458333333333
EXTRACT: note_on channel=6 note=59 velocity=97 time=0
EXTRACT: note_on channel=2 note=62 velocity=110 time=0.008413460416666666
EXTRACT: note_on channel=6 note=62 velocity=100 time=0
EXTRACT: control_change channel=7 control=11 value=107 time=0.06009614583333333
EXTRACT: control_change channel=8 control=11 value=107 time=0
EXTRACT: control_change channel=7 control=11 value=113 time=0.07331729791666666
EXTRACT: control_change channel=8 control=11 value=113 time=0
EXTRACT: control_change channel=7 control=11 value=120 time=0.07091345208333333
EXTRACT: control_change channel=8 control=11 value=120 time=0
EXTRACT: note_off channel=2 note=47 velocity=80 time=0.06850960625
EXTRACT: note_off channel=6 note=47 velocity=80 time=0
EXTRACT: note_on channel=2 note=47 velocity=109 time=0.0048076916666666665
EXTRACT: note_on channel=6 note=47 velocity=99 time=0
EXTRACT: control_change channel=7 control=11 value=127 time=0
EXTRACT: control_change channel=8 control=11 value=127 time=0
EXTRACT: note_off channel=2 note=54 velocity=80 time=0.27764419375
EXTRACT: note_off channel=2 note=59 velocity=80 time=0
EXTRACT: note_off channel=2 note=62 velocity=80 time=0
EXTRACT: note_off channel=6 note=54 velocity=80 time=0
EXTRACT: note_off channel=6 note=59 velocity=80 time=0
EXTRACT: note_off channel=6 note=62 velocity=80 time=0
EXTRACT: note_on channel=2 note=54 velocity=105 time=0.0048076916666666665
EXTRACT: note_on channel=6 note=54 velocity=95 time=0
EXTRACT: note_on channel=2 note=59 velocity=104 time=0.008413460416666666
EXTRACT: note_on channel=6 note=59 velocity=94 time=0
EXTRACT: note_on channel=2 note=62 velocity=103 time=0.008413460416666666
EXTRACT: note_on channel=6 note=62 velocity=93 time=0
EXTRACT: note_off channel=2 note=47 velocity=80 time=0.2728365020833333
EXTRACT: note_off channel=6 note=47 velocity=80 time=0
EXTRACT: note_on channel=2 note=49 velocity=103 time=0.0048076916666666665
EXTRACT: note_on channel=6 note=49 velocity=93 time=0
EXTRACT: note_off channel=2 note=54 velocity=80 time=0.27764419375
EXTRACT: note_off channel=2 note=59 velocity=80 time=0
EXTRACT: note_off channel=2 note=62 velocity=80 time=0
EXTRACT: note_off channel=6 note=54 velocity=80 time=0
EXTRACT: note_off channel=6 note=59 velocity=80 time=0
EXTRACT: note_off channel=6 note=62 velocity=80 time=0
EXTRACT: note_off channel=3 note=59 velocity=80 time=0.00360576875
EXTRACT: note_on channel=2 note=54 velocity=110 time=0.0012019229166666666
EXTRACT: note_on channel=6 note=54 velocity=100 time=0
EXTRACT: note_on channel=3 note=57 velocity=101 time=0
EXTRACT: note_on channel=2 note=59 velocity=105 time=0.0024038458333333333
EXTRACT: note_on channel=6 note=59 velocity=95 time=0
EXTRACT: note_on channel=2 note=62 velocity=100 time=0.008413460416666666
EXTRACT: note_on channel=6 note=62 velocity=90 time=0
EXTRACT: note_off channel=0 note=57 velocity=64 time=0.13341344375
EXTRACT: note_off channel=0 note=59 velocity=64 time=0.0012019229166666666
EXTRACT: note_off channel=7 note=57 velocity=64 time=0.10697113958333333
EXTRACT: note_off channel=8 note=59 velocity=64 time=0.0012019229166666666
EXTRACT: note_off channel=2 note=54 velocity=80 time=0.024038458333333332
EXTRACT: note_off channel=2 note=59 velocity=80 time=0
EXTRACT: note_off channel=2 note=62 velocity=80 time=0
EXTRACT: note_off channel=6 note=54 velocity=80 time=0
EXTRACT: note_off channel=6 note=59 velocity=80 time=0
EXTRACT: note_off channel=6 note=62 velocity=80 time=0
EXTRACT: note_off channel=2 note=49 velocity=80 time=0.006009614583333333
EXTRACT: note_off channel=3 note=57 velocity=80 time=0
EXTRACT: note_off channel=6 note=49 velocity=80 time=0
EXTRACT: note_on channel=0 note=54 velocity=95 time=0
EXTRACT: note_on channel=0 note=57 velocity=77 time=0
EXTRACT: note_on channel=2 note=50 velocity=108 time=0
EXTRACT: note_on channel=6 note=50 velocity=98 time=0
EXTRACT: note_on channel=8 note=57 velocity=89 time=0
EXTRACT: control_change channel=7 control=11 value=20 time=0
EXTRACT: control_change channel=8 control=11 value=20 time=0
EXTRACT: note_on channel=7 note=54 velocity=86 time=0.0024038458333333333
EXTRACT: note_on channel=3 note=57 velocity=108 time=0.0012019229166666666
EXTRACT: control_change channel=7 control=11 value=27 time=0.06730768333333333
EXTRACT: control_change channel=8 control=11 value=27 time=0
EXTRACT: control_change channel=7 control=11 value=33 time=0.07331729791666666
EXTRACT: control_change channel=8 control=11 value=33 time=0
EXTRACT: control_change channel=7 control=11 value=40 time=0.07091345208333333
EXTRACT: control_change channel=8 control=11 value=40 time=0
EXTRACT: note_on channel=2 note=57 velocity=101 time=0.06730768333333333
EXTRACT: note_on channel=6 note=57 velocity=91 time=0
EXTRACT: control_change channel=7 control=11 value=46 time=0.006009614583333333
EXTRACT: control_change channel=8 control=11 value=46 time=0
EXTRACT: note_on channel=2 note=62 velocity=102 time=0.0024038458333333333
EXTRACT: note_on channel=6 note=62 velocity=92 time=0
EXTRACT: note_on channel=2 note=66 velocity=107 time=0.008413460416666666
EXTRACT: note_on channel=6 note=66 velocity=97 time=0
EXTRACT: control_change channel=7 control=11 value=53 time=0.06009614583333333
EXTRACT: control_change channel=8 control=11 value=53 time=0
EXTRACT: control_change channel=7 control=11 value=60 time=0.07331729791666666
EXTRACT: control_change channel=8 control=11 value=60 time=0
EXTRACT: control_change channel=7 control=11 value=67 time=0.07091345208333333
EXTRACT: control_change channel=8 control=11 value=67 time=0
EXTRACT: note_off channel=2 note=50 velocity=80 time=0.06850960625
EXTRACT: note_off channel=6 note=50 velocity=80 time=0
EXTRACT: note_on channel=2 note=50 velocity=108 time=0.0048076916666666665
EXTRACT: note_on channel=6 note=50 velocity=98 time=0
EXTRACT: control_change channel=7 control=11 value=73 time=0
EXTRACT: control_change channel=8 control=11 value=73 time=0
EXTRACT: control_change channel=7 control=11 value=80 time=0.07091345208333333
EXTRACT: control_change channel=8 control=11 value=80 time=0
EXTRACT: control_change channel=7 control=11 value=86 time=0.07331729791666666
EXTRACT: control_change channel=8 control=11 value=86 time=0
EXTRACT: control_change channel=7 control=11 value=93 time=0.07091345208333333
EXTRACT: control_change channel=8 control=11 value=93 time=0
EXTRACT: note_off channel=2 note=57 velocity=80 time=0.062499991666666664
EXTRACT: note_off channel=2 note=62 velocity=80 time=0
EXTRACT: note_off channel=2 note=66 velocity=80 time=0
EXTRACT: note_off channel=6 note=57 velocity=80 time=0
EXTRACT: note_off channel=6 note=62 velocity=80 time=0
EXTRACT: note_off channel=6 note=66 velocity=80 time=0
EXTRACT: note_on channel=2 note=57 velocity=103 time=0.0048076916666666665
EXTRACT: note_on channel=6 note=57 velocity=93 time=0
EXTRACT: control_change channel=7 control=11 value=100 time=0.006009614583333333
EXTRACT: control_change channel=8 control=11 value=100 time=0
EXTRACT: note_on channel=2 note=62 velocity=103 time=0.0024038458333333333
EXTRACT: note_on channel=6 note=62 velocity=93 time=0
EXTRACT: note_on channel=2 note=66 velocity=107 time=0.008413460416666666
EXTRACT: note_on channel=6 note=66 velocity=97 time=0
EXTRACT: control_change channel=7 control=11 value=107 time=0.06009614583333333
EXTRACT: control_change channel=8 control=11 value=107 time=0
EXTRACT: note_off channel=3 note=57 velocity=80 time=0.06971152916666666
EXTRACT: control_change channel=7 control=11 value=113 time=0
EXTRACT: control_change channel=8 control=11 value=113 time=0
EXTRACT: note_on channel=3 note=57 velocity=108 time=0.0012019229166666666
EXTRACT: control_change channel=7 control=11 value=120 time=0.06971152916666666
EXTRACT: control_change channel=8 control=11 value=120 time=0
EXTRACT: note_off channel=2 note=50 velocity=80 time=0.06850960625
EXTRACT: note_off channel=6 note=50 velocity=80 time=0
EXTRACT: note_off channel=3 note=57 velocity=80 time=0.0012019229166666666
EXTRACT: note_on channel=2 note=50 velocity=108 time=0
EXTRACT: note_on channel=6 note=50 velocity=98 time=0
EXTRACT: control_change channel=7 control=11 value=127 time=0
EXTRACT: control_change channel=8 control=11 value=127 time=0
EXTRACT: note_on channel=3 note=57 velocity=107 time=0.0048076916666666665
EXTRACT: note_off channel=2 note=57 velocity=80 time=0.2728365020833333
EXTRACT: note_off channel=2 note=62 velocity=80 time=0
EXTRACT: note_off channel=2 note=66 velocity=80 time=0
EXTRACT: note_off channel=6 note=57 velocity=80 time=0
EXTRACT: note_off channel=6 note=62 velocity=80 time=0
EXTRACT: note_off channel=6 note=66 velocity=80 time=0
EXTRACT: note_off channel=3 note=57 velocity=80 time=0.0012019229166666666
EXTRACT: note_on channel=2 note=57 velocity=101 time=0.00360576875
EXTRACT: note_on channel=6 note=57 velocity=91 time=0
EXTRACT: note_on channel=3 note=55 velocity=107 time=0.0012019229166666666
EXTRACT: note_on channel=2 note=62 velocity=100 time=0.0024038458333333333
EXTRACT: note_on channel=6 note=62 velocity=90 time=0
EXTRACT: note_on channel=2 note=66 velocity=105 time=0.008413460416666666
EXTRACT: note_on channel=6 note=66 velocity=95 time=0
EXTRACT: note_off channel=3 note=55 velocity=80 time=0.26802881041666665
EXTRACT: note_off channel=2 note=50 velocity=80 time=0.0048076916666666665
EXTRACT: note_off channel=6 note=50 velocity=80 time=0
EXTRACT: note_on channel=2 note=45 velocity=102 time=0
EXTRACT: note_on channel=6 note=45 velocity=92 time=0
EXTRACT: note_on channel=3 note=54 velocity=110 time=0.0024038458333333333
EXTRACT: note_off channel=2 note=57 velocity=80 time=0.2752403479166667
EXTRACT: note_off channel=2 note=66 velocity=80 time=0
EXTRACT: note_off channel=6 note=57 velocity=80 time=0
EXTRACT: note_off channel=6 note=66 velocity=80 time=0
EXTRACT: note_off channel=3 note=54 velocity=80 time=0.0012019229166666666
EXTRACT: note_on channel=3 note=52 velocity=108 time=0.0048076916666666665
EXTRACT: note_off channel=3 note=52 velocity=80 time=0.13461536666666665
EXTRACT: note_on channel=3 note=54 velocity=102 time=0.008413460416666666
EXTRACT: note_off channel=0 note=54 velocity=64 time=0.037259610416666665
EXTRACT: note_off channel=0 note=57 velocity=64 time=0.014423075
EXTRACT: note_off channel=2 note=62 velocity=80 time=0.08173075833333333
EXTRACT: note_off channel=6 note=62 velocity=80 time=0
EXTRACT: note_off channel=2 note=45 velocity=80 time=0.006009614583333333
EXTRACT: note_off channel=6 note=45 velocity=80 time=0
EXTRACT: note_on channel=8 note=54 velocity=80 time=0
EXTRACT: note_on channel=7 note=57 velocity=80 time=0.0024038458333333333
EXTRACT: note_on channel=0 note=54 velocity=84 time=0.0024038458333333333
EXTRACT: note_on channel=0 note=59 velocity=87 time=0
EXTRACT: note_on channel=2 note=47 velocity=101 time=0
EXTRACT: note_on channel=6 note=47 velocity=91 time=0
EXTRACT: control_change channel=7 control=11 value=20 time=0
EXTRACT: control_change channel=8 control=11 value=20 time=0
EXTRACT: control_change channel=7 control=11 value=27 time=0.07091345208333333
EXTRACT: control_change channel=8 control=11 value=27 time=0
EXTRACT: note_off channel=8 note=57 velocity=64 time=0.0072115375
EXTRACT: note_off channel=7 note=54 velocity=64 time=0.0024038458333333333
EXTRACT: control_change channel=7 control=11 value=33 time=0.06370191458333334
EXTRACT: control_change channel=8 control=11 value=33 time=0
EXTRACT: control_change channel=7 control=11 value=40 time=0.07091345208333333
EXTRACT: control_change channel=8 control=11 value=40 time=0
EXTRACT: note_on channel=2 note=54 velocity=101 time=0.06730768333333333
EXTRACT: note_on channel=6 note=54 velocity=91 time=0
EXTRACT: control_change channel=7 control=11 value=46 time=0.006009614583333333
EXTRACT: control_change channel=8 control=11 value=46 time=0
EXTRACT: note_on channel=2 note=59 velocity=107 time=0.0024038458333333333
EXTRACT: note_on channel=6 note=59 velocity=97 time=0
EXTRACT: note_on channel=2 note=62 velocity=108 time=0.008413460416666666
EXTRACT: note_on channel=6 note=62 velocity=98 time=0
EXTRACT: control_change channel=7 control=11 value=53 time=0.06009614583333333
EXTRACT: control_change channel=8 control=11 value=53 time=0
EXTRACT: control_change channel=7 control=11 value=60 time=0.07331729791666666
EXTRACT: control_change channel=8 control=11 value=60 time=0
EXTRACT: control_change channel=7 control=11 value=67 time=0.07091345208333333
EXTRACT: control_change channel=8 control=11 value=67 time=0
EXTRACT: note_off channel=2 note=47 velocity=80 time=0.06850960625
EXTRACT: note_off channel=6 note=47 velocity=80 time=0
EXTRACT: note_on channel=2 note=47 velocity=107 time=0.0048076916666666665
EXTRACT: note_on channel=6 note=47 velocity=97 time=0
EXTRACT: control_change channel=7 control=11 value=73 time=0
EXTRACT: control_change channel=8 control=11 value=73 time=0
EXTRACT: control_change channel=7 control=11 value=80 time=0.07091345208333333
EXTRACT: control_change channel=8 control=11 value=80 time=0
EXTRACT: control_change channel=7 control=11 value=86 time=0.07331729791666666
EXTRACT: control_change channel=8 control=11 value=86 time=0
EXTRACT: control_change channel=7 control=11 value=93 time=0.07091345208333333
EXTRACT: control_change channel=8 control=11 value=93 time=0
EXTRACT: note_off channel=2 note=54 velocity=80 time=0.062499991666666664
EXTRACT: note_off channel=2 note=59 velocity=80 time=0
EXTRACT: note_off channel=2 note=62 velocity=80 time=0
EXTRACT: note_off channel=6 note=54 velocity=80 time=0
EXTRACT: note_off channel=6 note=59 velocity=80 time=0
EXTRACT: note_off channel=6 note=62 velocity=80 time=0
EXTRACT: note_on channel=2 note=54 velocity=100 time=0.0048076916666666665
EXTRACT: note_on channel=6 note=54 velocity=90 time=0
EXTRACT: control_change channel=7 control=11 value=100 time=0.006009614583333333
EXTRACT: control_change channel=8 control=11 value=100 time=0
EXTRACT: note_on channel=2 note=59 velocity=107 time=0.0024038458333333333
EXTRACT: note_on channel=6 note=59 velocity=97 time=0
EXTRACT: note_on channel=2 note=62 velocity=108 time=0.008413460416666666
EXTRACT: note_on channel=6 note=62 velocity=98 time=0
EXTRACT: control_change channel=7 control=11 value=107 time=0.06009614583333333
EXTRACT: control_change channel=8 control=11 value=107 time=0
EXTRACT: control_change channel=7 control=11 value=113 time=0.07331729791666666
EXTRACT: control_change channel=8 control=11 value=113 time=0
EXTRACT: control_change channel=7 control=11 value=120 time=0.07091345208333333
EXTRACT: control_change channel=8 control=11 value=120 time=0
EXTRACT: note_off channel=2 note=47 velocity=80 time=0.06850960625
EXTRACT: note_off channel=6 note=47 velocity=80 time=0
EXTRACT: note_on channel=2 note=47 velocity=103 time=0.0048076916666666665
EXTRACT: note_on channel=6 note=47 velocity=93 time=0
EXTRACT: control_change channel=7 control=11 value=127 time=0
EXTRACT: control_change channel=8 control=11 value=127 time=0
EXTRACT: note_off channel=2 note=54 velocity=80 time=0.27764419375
EXTRACT: note_off channel=2 note=59 velocity=80 time=0
EXTRACT: note_off channel=2 note=62 velocity=80 time=0
EXTRACT: note_off channel=6 note=54 velocity=80 time=0
EXTRACT: note_off channel=6 note=59 velocity=80 time=0
EXTRACT: note_off channel=6 note=62 velocity=80 time=0
EXTRACT: note_on channel=2 note=54 velocity=101 time=0.0048076916666666665
EXTRACT: note_on channel=6 note=54 velocity=91 time=0
EXTRACT: note_off channel=3 note=54 velocity=80 time=0.0048076916666666665
EXTRACT: note_on channel=2 note=59 velocity=101 time=0.00360576875
EXTRACT: note_on channel=6 note=59 velocity=91 time=0
EXTRACT: note_on channel=2 note=62 velocity=109 time=0.008413460416666666
EXTRACT: note_on channel=6 note=62 velocity=99 time=0
EXTRACT: note_off channel=2 note=47 velocity=80 time=0.2728365020833333
EXTRACT: note_off channel=6 note=47 velocity=80 time=0
EXTRACT: note_on channel=2 note=45 velocity=106 time=0.0048076916666666665
EXTRACT: note_on channel=6 note=45 velocity=96 time=0
EXTRACT: note_off channel=2 note=54 velocity=80 time=0.27764419375
EXTRACT: note_off channel=2 note=62 velocity=80 time=0
EXTRACT: note_off channel=6 note=54 velocity=80 time=0
EXTRACT: note_off channel=6 note=62 velocity=80 time=0
EXTRACT: note_on channel=3 note=54 velocity=110 time=0.14903844166666666
EXTRACT: note_off channel=8 note=54 velocity=64 time=0.019230766666666666
EXTRACT: note_off channel=7 note=57 velocity=64 time=0.0024038458333333333
EXTRACT: note_off channel=2 note=59 velocity=80 time=0.11177883125
EXTRACT: note_off channel=6 note=59 velocity=80 time=0
EXTRACT: note_off channel=0 note=59 velocity=64 time=0
EXTRACT: note_off channel=3 note=54 velocity=80 time=0
EXTRACT: note_off channel=0 note=54 velocity=64 time=0.0012019229166666666
EXTRACT: note_off channel=0 note=62 velocity=64 time=0.0024038458333333333
EXTRACT: note_off channel=2 note=45 velocity=80 time=0.0024038458333333333
EXTRACT: note_off channel=6 note=45 velocity=80 time=0
