EXTRACT: control_change channel=1 control=7 value=127 time=0
EXTRACT: control_change channel=1 control=10 value=64 time=0
EXTRACT: program_change channel=1 program=114 time=0
EXTRACT: control_change channel=2 control=7 value=127 time=0
EXTRACT: control_change channel=2 control=10 value=64 time=0
EXTRACT: program_change channel=2 program=122 time=0
EXTRACT: control_change channel=3 control=7 value=127 time=0
EXTRACT: control_change channel=3 control=10 value=64 time=0
EXTRACT: program_change channel=3 program=84 time=0
EXTRACT: control_change channel=4 control=7 value=127 time=0
EXTRACT: control_change channel=4 control=10 value=64 time=0
EXTRACT: program_change channel=4 program=30 time=0
EXTRACT: control_change channel=5 control=7 value=127 time=0
EXTRACT: control_change channel=5 control=10 value=64 time=0
EXTRACT: program_change channel=5 program=33 time=0
EXTRACT: control_change channel=6 control=7 value=127 time=0
EXTRACT: control_change channel=6 control=10 value=64 time=0
EXTRACT: program_change channel=6 program=127 time=0
EXTRACT: program_change channel=9 program=0 time=0
EXTRACT: control_change channel=9 control=7 value=127 time=0
EXTRACT: control_change channel=9 control=10 value=64 time=0
EXTRACT: program_change channel=9 program=0 time=0
EXTRACT: control_change channel=9 control=7 value=127 time=0
EXTRACT: control_change channel=9 control=10 value=64 time=0
EXTRACT: control_change channel=0 control=7 value=127 time=0
EXTRACT: control_change channel=0 control=10 value=64 time=0
EXTRACT: note_on channel=9 note=42 velocity=110 time=2.85714
EXTRACT: note_on channel=9 note=42 velocity=0 time=0.5952375
EXTRACT: note_on channel=9 note=42 velocity=110 time=0.11904749999999999
EXTRACT: note_on channel=9 note=42 velocity=0 time=0.5952375
EXTRACT: note_on channel=9 note=42 velocity=110 time=0.11904749999999999
EXTRACT: note_on channel=9 note=42 velocity=0 time=0.5952375
EXTRACT: note_on channel=9 note=42 velocity=110 time=0.11904749999999999
EXTRACT: note_on channel=9 note=42 velocity=0 time=0.5952375
EXTRACT: note_on channel=1 note=69 velocity=110 time=0.11904749999999999
EXTRACT: note_on channel=1 note=72 velocity=110 time=0
EXTRACT: note_on channel=2 note=60 velocity=60 time=0
EXTRACT: note_on channel=5 note=40 velocity=110 time=0
EXTRACT: note_on channel=6 note=60 velocity=110 time=0
EXTRACT: note_on channel=5 note=40 velocity=0 time=0.17113078124999997
EXTRACT: note_on channel=5 note=40 velocity=110 time=0.007440468749999999
EXTRACT: note_on channel=5 note=40 velocity=0 time=0.17113078124999997
EXTRACT: note_on channel=5 note=40 velocity=110 time=0.007440468749999999
EXTRACT: note_on channel=5 note=40 velocity=0 time=0.17113078124999997
EXTRACT: note_on channel=1 note=69 velocity=0 time=0.06696421875
EXTRACT: note_on channel=1 note=72 velocity=0 time=0
EXTRACT: note_on channel=6 note=60 velocity=0 time=0
EXTRACT: note_on channel=1 note=67 velocity=110 time=0.11904749999999999
EXTRACT: note_on channel=1 note=71 velocity=110 time=0
EXTRACT: note_on channel=6 note=60 velocity=110 time=0
EXTRACT: note_on channel=6 note=60 velocity=0 time=0.52827328125
EXTRACT: note_on channel=6 note=60 velocity=110 time=0.007440468749999999
EXTRACT: note_on channel=1 note=67 velocity=0 time=0.05952374999999999
EXTRACT: note_on channel=1 note=71 velocity=0 time=0
EXTRACT: note_on channel=6 note=60 velocity=0 time=0.11160703124999999
EXTRACT: note_on channel=1 note=66 velocity=110 time=0.007440468749999999
EXTRACT: note_on channel=1 note=69 velocity=110 time=0
EXTRACT: note_on channel=6 note=60 velocity=110 time=0
EXTRACT: note_on channel=1 note=66 velocity=0 time=0.5952375
EXTRACT: note_on channel=1 note=69 velocity=0 time=0
EXTRACT: note_on channel=6 note=60 velocity=0 time=0
EXTRACT: note_on channel=1 note=64 velocity=110 time=0.11904749999999999
EXTRACT: note_on channel=1 note=67 velocity=110 time=0
EXTRACT: note_on channel=5 note=47 velocity=110 time=0
EXTRACT: note_on channel=6 note=60 velocity=110 time=0
EXTRACT: note_on channel=5 note=47 velocity=0 time=0.17113078124999997
EXTRACT: note_on channel=5 note=47 velocity=110 time=0.007440468749999999
EXTRACT: note_on channel=5 note=47 velocity=0 time=0.17113078124999997
EXTRACT: note_on channel=5 note=47 velocity=110 time=0.007440468749999999
EXTRACT: note_on channel=5 note=47 velocity=0 time=0.17113078124999997
EXTRACT: note_on channel=2 note=60 velocity=0 time=0.007440468749999999
EXTRACT: note_on channel=1 note=64 velocity=0 time=0.05952374999999999
EXTRACT: note_on channel=1 note=67 velocity=0 time=0
EXTRACT: note_on channel=6 note=60 velocity=0 time=0
EXTRACT: note_on channel=1 note=63 velocity=110 time=0.11904749999999999
EXTRACT: note_on channel=1 note=66 velocity=110 time=0
EXTRACT: note_on channel=5 note=42 velocity=110 time=0
EXTRACT: note_on channel=6 note=60 velocity=110 time=0
EXTRACT: note_on channel=5 note=42 velocity=0 time=0.17113078124999997
EXTRACT: note_on channel=5 note=42 velocity=110 time=0.007440468749999999
EXTRACT: note_on channel=5 note=42 velocity=0 time=0.17113078124999997
EXTRACT: note_on channel=5 note=42 velocity=110 time=0.007440468749999999
EXTRACT: note_on channel=5 note=42 velocity=0 time=0.17113078124999997
EXTRACT: note_on channel=1 note=63 velocity=0 time=0.06696421875
EXTRACT: note_on channel=1 note=66 velocity=0 time=0
EXTRACT: note_on channel=6 note=60 velocity=0 time=0
EXTRACT: note_on channel=1 note=60 velocity=110 time=0.11904749999999999
EXTRACT: note_on channel=1 note=64 velocity=110 time=0
EXTRACT: note_on channel=6 note=60 velocity=110 time=0
EXTRACT: note_on channel=6 note=60 velocity=0 time=0.52827328125
EXTRACT: note_on channel=6 note=60 velocity=110 time=0.007440468749999999
EXTRACT: note_on channel=1 note=60 velocity=0 time=0.05952374999999999
EXTRACT: note_on channel=1 note=64 velocity=0 time=0
EXTRACT: note_on channel=6 note=60 velocity=0 time=0.11160703124999999
EXTRACT: note_on channel=1 note=59 velocity=110 time=0.007440468749999999
EXTRACT: note_on channel=1 note=63 velocity=110 time=0
EXTRACT: note_on channel=6 note=60 velocity=110 time=0
EXTRACT: note_on channel=1 note=59 velocity=0 time=0.5952375
EXTRACT: note_on channel=1 note=63 velocity=0 time=0
EXTRACT: note_on channel=6 note=60 velocity=0 time=0
EXTRACT: note_on channel=1 note=57 velocity=110 time=0.11904749999999999
EXTRACT: note_on channel=1 note=60 velocity=110 time=0
EXTRACT: note_on channel=6 note=60 velocity=110 time=0
EXTRACT: note_on channel=1 note=57 velocity=0 time=0.5952375
EXTRACT: note_on channel=1 note=60 velocity=0 time=0
EXTRACT: note_on channel=6 note=60 velocity=0 time=0
EXTRACT: note_on channel=1 note=69 velocity=110 time=0.11904749999999999
EXTRACT: note_on channel=1 note=72 velocity=110 time=0
EXTRACT: note_on channel=2 note=60 velocity=60 time=0
EXTRACT: note_on channel=5 note=40 velocity=110 time=0
EXTRACT: note_on channel=6 note=60 velocity=110 time=0
EXTRACT: note_on channel=5 note=40 velocity=0 time=0.17113078124999997
EXTRACT: note_on channel=5 note=40 velocity=110 time=0.007440468749999999
EXTRACT: note_on channel=5 note=40 velocity=0 time=0.17113078124999997
EXTRACT: note_on channel=5 note=40 velocity=110 time=0.007440468749999999
EXTRACT: note_on channel=5 note=40 velocity=0 time=0.17113078124999997
EXTRACT: note_on channel=1 note=69 velocity=0 time=0.06696421875
EXTRACT: note_on channel=1 note=72 velocity=0 time=0
EXTRACT: note_on channel=6 note=60 velocity=0 time=0
EXTRACT: note_on channel=1 note=67 velocity=110 time=0.11904749999999999
EXTRACT: note_on channel=1 note=71 velocity=110 time=0
EXTRACT: note_on channel=6 note=60 velocity=110 time=0
EXTRACT: note_on channel=6 note=60 velocity=0 time=0.52827328125
EXTRACT: note_on channel=6 note=60 velocity=110 time=0.007440468749999999
EXTRACT: note_on channel=1 note=67 velocity=0 time=0.05952374999999999
EXTRACT: note_on channel=1 note=71 velocity=0 time=0
EXTRACT: note_on channel=6 note=60 velocity=0 time=0.11160703124999999
EXTRACT: note_on channel=1 note=66 velocity=110 time=0.007440468749999999
EXTRACT: note_on channel=1 note=69 velocity=110 time=0
EXTRACT: note_on channel=6 note=60 velocity=110 time=0
EXTRACT: note_on channel=1 note=66 velocity=0 time=0.5952375
EXTRACT: note_on channel=1 note=69 velocity=0 time=0
EXTRACT: note_on channel=6 note=60 velocity=0 time=0
EXTRACT: note_on channel=1 note=64 velocity=110 time=0.11904749999999999
EXTRACT: note_on channel=1 note=67 velocity=110 time=0
EXTRACT: note_on channel=5 note=47 velocity=110 time=0
EXTRACT: note_on channel=6 note=60 velocity=110 time=0
EXTRACT: note_on channel=5 note=47 velocity=0 time=0.17113078124999997
EXTRACT: note_on channel=5 note=47 velocity=110 time=0.007440468749999999
EXTRACT: note_on channel=5 note=47 velocity=0 time=0.17113078124999997
EXTRACT: note_on channel=5 note=47 velocity=110 time=0.007440468749999999
EXTRACT: note_on channel=5 note=47 velocity=0 time=0.17113078124999997
EXTRACT: note_on channel=2 note=60 velocity=0 time=0.007440468749999999
EXTRACT: note_on channel=1 note=64 velocity=0 time=0.05952374999999999
EXTRACT: note_on channel=1 note=67 velocity=0 time=0
EXTRACT: note_on channel=6 note=60 velocity=0 time=0
EXTRACT: note_on channel=1 note=63 velocity=110 time=0.11904749999999999
EXTRACT: note_on channel=1 note=66 velocity=110 time=0
EXTRACT: note_on channel=5 note=42 velocity=110 time=0
EXTRACT: note_on channel=5 note=42 velocity=0 time=0.17113078124999997
EXTRACT: note_on channel=5 note=42 velocity=110 time=0.007440468749999999
EXTRACT: note_on channel=5 note=42 velocity=0 time=0.17113078124999997
EXTRACT: note_on channel=5 note=42 velocity=110 time=0.007440468749999999
EXTRACT: note_on channel=5 note=42 velocity=0 time=0.17113078124999997
EXTRACT: note_on channel=1 note=63 velocity=0 time=0.06696421875
EXTRACT: note_on channel=1 note=66 velocity=0 time=0
EXTRACT: note_on channel=1 note=60 velocity=110 time=0.11904749999999999
EXTRACT: note_on channel=1 note=64 velocity=110 time=0
EXTRACT: note_on channel=6 note=60 velocity=110 time=0.53571375
EXTRACT: note_on channel=1 note=60 velocity=0 time=0.05952374999999999
EXTRACT: note_on channel=1 note=64 velocity=0 time=0
EXTRACT: note_on channel=6 note=60 velocity=0 time=0.11160703124999999
EXTRACT: note_on channel=1 note=59 velocity=110 time=0.007440468749999999
EXTRACT: note_on channel=1 note=63 velocity=110 time=0
EXTRACT: note_on channel=6 note=60 velocity=110 time=0
EXTRACT: note_on channel=6 note=60 velocity=0 time=0.34970203124999993
EXTRACT: note_on channel=6 note=60 velocity=110 time=0.007440468749999999
EXTRACT: note_on channel=9 note=35 velocity=110 time=0
EXTRACT: note_on channel=9 note=36 velocity=110 time=0
EXTRACT: note_on channel=1 note=59 velocity=0 time=0.23809499999999997
EXTRACT: note_on channel=1 note=63 velocity=0 time=0
EXTRACT: note_on channel=6 note=60 velocity=0 time=0.11160703124999999
EXTRACT: note_on channel=9 note=35 velocity=0 time=0
EXTRACT: note_on channel=9 note=36 velocity=0 time=0
EXTRACT: note_on channel=1 note=57 velocity=110 time=0.007440468749999999
EXTRACT: note_on channel=1 note=60 velocity=110 time=0
EXTRACT: note_on channel=6 note=60 velocity=110 time=0
EXTRACT: note_on channel=9 note=38 velocity=110 time=0
EXTRACT: note_on channel=6 note=60 velocity=0 time=0.17113078124999997
EXTRACT: note_on channel=6 note=60 velocity=110 time=0.007440468749999999
EXTRACT: note_on channel=6 note=60 velocity=0 time=0.17113078124999997
EXTRACT: note_on channel=6 note=60 velocity=110 time=0.007440468749999999
EXTRACT: note_on channel=6 note=60 velocity=0 time=0.17113078124999997
EXTRACT: note_on channel=3 note=64 velocity=110 time=0.007440468749999999
EXTRACT: note_on channel=6 note=60 velocity=110 time=0
EXTRACT: note_on channel=1 note=57 velocity=0 time=0.05952374999999999
EXTRACT: note_on channel=1 note=60 velocity=0 time=0
EXTRACT: note_on channel=9 note=38 velocity=0 time=0
EXTRACT: note_on channel=3 note=64 velocity=0 time=0.11160703124999999
EXTRACT: note_on channel=6 note=60 velocity=0 time=0
EXTRACT: program_change channel=2 program=75 time=0.007440468749999999
EXTRACT: note_on channel=2 note=64 velocity=60 time=0
EXTRACT: note_on channel=2 note=67 velocity=60 time=0
EXTRACT: note_on channel=3 note=67 velocity=110 time=0
EXTRACT: note_on channel=4 note=40 velocity=110 time=0
EXTRACT: note_on channel=5 note=40 velocity=110 time=0
EXTRACT: note_on channel=6 note=60 velocity=110 time=0
EXTRACT: note_on channel=9 note=35 velocity=110 time=0
EXTRACT: note_on channel=9 note=36 velocity=110 time=0
EXTRACT: note_on channel=9 note=42 velocity=110 time=0
EXTRACT: note_on channel=2 note=64 velocity=0 time=0.17113078124999997
EXTRACT: note_on channel=2 note=67 velocity=0 time=0
EXTRACT: note_on channel=3 note=67 velocity=0 time=0
EXTRACT: note_on channel=4 note=40 velocity=0 time=0
EXTRACT: note_on channel=5 note=40 velocity=0 time=0
EXTRACT: note_on channel=6 note=60 velocity=0 time=0
EXTRACT: note_on channel=9 note=35 velocity=0 time=0
EXTRACT: note_on channel=9 note=36 velocity=0 time=0
EXTRACT: note_on channel=9 note=42 velocity=0 time=0
EXTRACT: note_on channel=2 note=64 velocity=60 time=0.007440468749999999
EXTRACT: note_on channel=2 note=67 velocity=60 time=0
EXTRACT: note_on channel=3 note=67 velocity=110 time=0
EXTRACT: note_on channel=4 note=40 velocity=110 time=0
EXTRACT: note_on channel=5 note=40 velocity=110 time=0
EXTRACT: note_on channel=6 note=60 velocity=110 time=0
EXTRACT: note_on channel=9 note=42 velocity=110 time=0
EXTRACT: note_on channel=2 note=64 velocity=0 time=0.17113078124999997
EXTRACT: note_on channel=2 note=67 velocity=0 time=0
EXTRACT: note_on channel=3 note=67 velocity=0 time=0
EXTRACT: note_on channel=4 note=40 velocity=0 time=0
EXTRACT: note_on channel=5 note=40 velocity=0 time=0
EXTRACT: note_on channel=6 note=60 velocity=0 time=0
EXTRACT: note_on channel=9 note=42 velocity=0 time=0
EXTRACT: note_on channel=2 note=64 velocity=60 time=0.007440468749999999
EXTRACT: note_on channel=2 note=67 velocity=60 time=0
EXTRACT: note_on channel=3 note=67 velocity=110 time=0
EXTRACT: note_on channel=4 note=40 velocity=110 time=0
EXTRACT: note_on channel=5 note=40 velocity=110 time=0
EXTRACT: note_on channel=6 note=60 velocity=110 time=0
EXTRACT: note_on channel=9 note=38 velocity=110 time=0
EXTRACT: note_on channel=9 note=42 velocity=110 time=0
EXTRACT: note_on channel=2 note=64 velocity=0 time=0.17113078124999997
EXTRACT: note_on channel=2 note=67 velocity=0 time=0
EXTRACT: note_on channel=3 note=67 velocity=0 time=0
EXTRACT: note_on channel=4 note=40 velocity=0 time=0
EXTRACT: note_on channel=5 note=40 velocity=0 time=0
EXTRACT: note_on channel=6 note=60 velocity=0 time=0
EXTRACT: note_on channel=9 note=38 velocity=0 time=0
EXTRACT: note_on channel=9 note=42 velocity=0 time=0
EXTRACT: note_on channel=2 note=64 velocity=60 time=0.007440468749999999
EXTRACT: note_on channel=2 note=67 velocity=60 time=0
EXTRACT: note_on channel=3 note=67 velocity=110 time=0
EXTRACT: note_on channel=4 note=40 velocity=110 time=0
EXTRACT: note_on channel=6 note=60 velocity=110 time=0
EXTRACT: note_on channel=9 note=42 velocity=110 time=0
EXTRACT: note_on channel=2 note=64 velocity=0 time=0.17113078124999997
EXTRACT: note_on channel=2 note=67 velocity=0 time=0
EXTRACT: note_on channel=3 note=67 velocity=0 time=0
EXTRACT: note_on channel=4 note=40 velocity=0 time=0
EXTRACT: note_on channel=6 note=60 velocity=0 time=0
EXTRACT: note_on channel=9 note=42 velocity=0 time=0
EXTRACT: note_on channel=2 note=63 velocity=60 time=0.007440468749999999
EXTRACT: note_on channel=2 note=66 velocity=60 time=0
EXTRACT: note_on channel=3 note=66 velocity=110 time=0
EXTRACT: note_on channel=4 note=47 velocity=110 time=0
EXTRACT: note_on channel=5 note=40 velocity=110 time=0
EXTRACT: note_on channel=6 note=60 velocity=110 time=0
EXTRACT: note_on channel=9 note=55 velocity=110 time=0
EXTRACT: note_on channel=9 note=35 velocity=110 time=0
EXTRACT: note_on channel=9 note=36 velocity=110 time=0
EXTRACT: note_on channel=9 note=42 velocity=110 time=0
EXTRACT: note_on channel=2 note=63 velocity=0 time=0.17113078124999997
EXTRACT: note_on channel=2 note=66 velocity=0 time=0
EXTRACT: note_on channel=3 note=66 velocity=0 time=0
EXTRACT: note_on channel=4 note=47 velocity=0 time=0
EXTRACT: note_on channel=5 note=40 velocity=0 time=0
EXTRACT: note_on channel=6 note=60 velocity=0 time=0
EXTRACT: note_on channel=9 note=35 velocity=0 time=0
EXTRACT: note_on channel=9 note=36 velocity=0 time=0
EXTRACT: note_on channel=9 note=42 velocity=0 time=0
EXTRACT: note_on channel=2 note=63 velocity=60 time=0.007440468749999999
EXTRACT: note_on channel=2 note=66 velocity=60 time=0
EXTRACT: note_on channel=3 note=66 velocity=110 time=0
EXTRACT: note_on channel=4 note=47 velocity=110 time=0
EXTRACT: note_on channel=5 note=40 velocity=110 time=0
EXTRACT: note_on channel=6 note=60 velocity=110 time=0
EXTRACT: note_on channel=9 note=35 velocity=110 time=0
EXTRACT: note_on channel=9 note=36 velocity=110 time=0
EXTRACT: note_on channel=9 note=42 velocity=110 time=0
EXTRACT: note_on channel=2 note=63 velocity=0 time=0.17113078124999997
EXTRACT: note_on channel=2 note=66 velocity=0 time=0
EXTRACT: note_on channel=3 note=66 velocity=0 time=0
EXTRACT: note_on channel=4 note=47 velocity=0 time=0
EXTRACT: note_on channel=5 note=40 velocity=0 time=0
EXTRACT: note_on channel=6 note=60 velocity=0 time=0
EXTRACT: note_on channel=9 note=35 velocity=0 time=0
EXTRACT: note_on channel=9 note=36 velocity=0 time=0
EXTRACT: note_on channel=9 note=42 velocity=0 time=0
EXTRACT: note_on channel=2 note=63 velocity=60 time=0.007440468749999999
EXTRACT: note_on channel=2 note=66 velocity=60 time=0
EXTRACT: note_on channel=3 note=66 velocity=110 time=0
EXTRACT: note_on channel=4 note=47 velocity=110 time=0
EXTRACT: note_on channel=5 note=40 velocity=110 time=0
EXTRACT: note_on channel=6 note=60 velocity=110 time=0
EXTRACT: note_on channel=9 note=38 velocity=110 time=0
EXTRACT: note_on channel=9 note=42 velocity=110 time=0
EXTRACT: note_on channel=4 note=47 velocity=0 time=0.17113078124999997
EXTRACT: note_on channel=5 note=40 velocity=0 time=0
EXTRACT: note_on channel=6 note=60 velocity=0 time=0
EXTRACT: note_on channel=9 note=38 velocity=0 time=0
EXTRACT: note_on channel=9 note=42 velocity=0 time=0
EXTRACT: note_on channel=4 note=47 velocity=110 time=0.007440468749999999
EXTRACT: note_on channel=6 note=60 velocity=110 time=0
EXTRACT: note_on channel=9 note=42 velocity=110 time=0
EXTRACT: note_on channel=9 note=55 velocity=0 time=0.05952374999999999
EXTRACT: note_on channel=2 note=63 velocity=0 time=0.11160703124999999
EXTRACT: note_on channel=2 note=66 velocity=0 time=0
EXTRACT: note_on channel=3 note=66 velocity=0 time=0
EXTRACT: note_on channel=4 note=47 velocity=0 time=0
EXTRACT: note_on channel=6 note=60 velocity=0 time=0
EXTRACT: note_on channel=9 note=42 velocity=0 time=0
EXTRACT: note_on channel=2 note=60 velocity=60 time=0.007440468749999999
EXTRACT: note_on channel=2 note=64 velocity=60 time=0
EXTRACT: note_on channel=3 note=64 velocity=110 time=0
EXTRACT: note_on channel=4 note=48 velocity=110 time=0
EXTRACT: note_on channel=5 note=35 velocity=110 time=0
EXTRACT: note_on channel=6 note=60 velocity=110 time=0
EXTRACT: note_on channel=9 note=35 velocity=110 time=0
EXTRACT: note_on channel=9 note=36 velocity=110 time=0
EXTRACT: note_on channel=9 note=42 velocity=110 time=0
EXTRACT: note_on channel=2 note=60 velocity=0 time=0.17113078124999997
EXTRACT: note_on channel=2 note=64 velocity=0 time=0
EXTRACT: note_on channel=3 note=64 velocity=0 time=0
EXTRACT: note_on channel=4 note=48 velocity=0 time=0
EXTRACT: note_on channel=5 note=35 velocity=0 time=0
EXTRACT: note_on channel=6 note=60 velocity=0 time=0
EXTRACT: note_on channel=9 note=35 velocity=0 time=0
EXTRACT: note_on channel=9 note=36 velocity=0 time=0
EXTRACT: note_on channel=9 note=42 velocity=0 time=0
EXTRACT: note_on channel=2 note=60 velocity=60 time=0.007440468749999999
EXTRACT: note_on channel=2 note=64 velocity=60 time=0
EXTRACT: note_on channel=3 note=64 velocity=110 time=0
EXTRACT: note_on channel=4 note=48 velocity=110 time=0
EXTRACT: note_on channel=5 note=35 velocity=110 time=0
EXTRACT: note_on channel=6 note=60 velocity=110 time=0
EXTRACT: note_on channel=9 note=42 velocity=110 time=0
EXTRACT: note_on channel=2 note=60 velocity=0 time=0.17113078124999997
EXTRACT: note_on channel=2 note=64 velocity=0 time=0
EXTRACT: note_on channel=3 note=64 velocity=0 time=0
EXTRACT: note_on channel=4 note=48 velocity=0 time=0
EXTRACT: note_on channel=5 note=35 velocity=0 time=0
EXTRACT: note_on channel=6 note=60 velocity=0 time=0
EXTRACT: note_on channel=9 note=42 velocity=0 time=0
EXTRACT: note_on channel=2 note=60 velocity=60 time=0.007440468749999999
EXTRACT: note_on channel=2 note=64 velocity=60 time=0
EXTRACT: note_on channel=3 note=64 velocity=110 time=0
EXTRACT: note_on channel=4 note=48 velocity=110 time=0
EXTRACT: note_on channel=5 note=35 velocity=110 time=0
EXTRACT: note_on channel=6 note=60 velocity=110 time=0
EXTRACT: note_on channel=9 note=38 velocity=110 time=0
EXTRACT: note_on channel=9 note=42 velocity=110 time=0
EXTRACT: note_on channel=5 note=35 velocity=0 time=0.17113078124999997
EXTRACT: note_on channel=6 note=60 velocity=0 time=0
EXTRACT: note_on channel=9 note=38 velocity=0 time=0
EXTRACT: note_on channel=9 note=42 velocity=0 time=0
EXTRACT: note_on channel=6 note=60 velocity=110 time=0.007440468749999999
EXTRACT: note_on channel=9 note=42 velocity=110 time=0
EXTRACT: note_on channel=2 note=60 velocity=0 time=0.17113078124999997
EXTRACT: note_on channel=2 note=64 velocity=0 time=0
EXTRACT: note_on channel=3 note=64 velocity=0 time=0
EXTRACT: note_on channel=4 note=48 velocity=0 time=0
EXTRACT: note_on channel=6 note=60 velocity=0 time=0
EXTRACT: note_on channel=9 note=42 velocity=0 time=0
EXTRACT: note_on channel=2 note=60 velocity=60 time=0.007440468749999999
EXTRACT: note_on channel=2 note=64 velocity=60 time=0
EXTRACT: note_on channel=3 note=64 velocity=110 time=0
EXTRACT: note_on channel=4 note=48 velocity=110 time=0
EXTRACT: note_on channel=5 note=35 velocity=110 time=0
EXTRACT: note_on channel=6 note=60 velocity=110 time=0
EXTRACT: note_on channel=9 note=55 velocity=110 time=0
EXTRACT: note_on channel=9 note=35 velocity=110 time=0
EXTRACT: note_on channel=9 note=36 velocity=110 time=0
EXTRACT: note_on channel=9 note=42 velocity=110 time=0
EXTRACT: note_on channel=4 note=48 velocity=0 time=0.17113078124999997
EXTRACT: note_on channel=5 note=35 velocity=0 time=0
EXTRACT: note_on channel=6 note=60 velocity=0 time=0
EXTRACT: note_on channel=9 note=35 velocity=0 time=0
EXTRACT: note_on channel=9 note=36 velocity=0 time=0
EXTRACT: note_on channel=9 note=42 velocity=0 time=0
EXTRACT: note_on channel=4 note=48 velocity=110 time=0.007440468749999999
EXTRACT: note_on channel=5 note=35 velocity=110 time=0
EXTRACT: note_on channel=6 note=60 velocity=110 time=0
EXTRACT: note_on channel=9 note=35 velocity=110 time=0
EXTRACT: note_on channel=9 note=36 velocity=110 time=0
EXTRACT: note_on channel=9 note=42 velocity=110 time=0
EXTRACT: note_on channel=2 note=60 velocity=0 time=0.17113078124999997
EXTRACT: note_on channel=2 note=64 velocity=0 time=0
EXTRACT: note_on channel=3 note=64 velocity=0 time=0
EXTRACT: note_on channel=4 note=48 velocity=0 time=0
EXTRACT: note_on channel=5 note=35 velocity=0 time=0
EXTRACT: note_on channel=6 note=60 velocity=0 time=0
EXTRACT: note_on channel=9 note=35 velocity=0 time=0
EXTRACT: note_on channel=9 note=36 velocity=0 time=0
EXTRACT: note_on channel=9 note=42 velocity=0 time=0
EXTRACT: note_on channel=2 note=59 velocity=60 time=0.007440468749999999
EXTRACT: note_on channel=2 note=63 velocity=60 time=0
EXTRACT: note_on channel=3 note=62 velocity=110 time=0
EXTRACT: note_on channel=4 note=48 velocity=110 time=0
EXTRACT: note_on channel=5 note=35 velocity=110 time=0
EXTRACT: note_on channel=6 note=60 velocity=110 time=0
EXTRACT: note_on channel=9 note=38 velocity=110 time=0
EXTRACT: note_on channel=9 note=42 velocity=110 time=0
EXTRACT: note_on channel=5 note=35 velocity=0 time=0.17113078124999997
EXTRACT: note_on channel=6 note=60 velocity=0 time=0
EXTRACT: note_on channel=9 note=38 velocity=0 time=0
EXTRACT: note_on channel=9 note=42 velocity=0 time=0
EXTRACT: note_on channel=6 note=60 velocity=110 time=0.007440468749999999
EXTRACT: note_on channel=9 note=42 velocity=110 time=0
EXTRACT: note_on channel=9 note=55 velocity=0 time=0.05952374999999999
EXTRACT: note_on channel=2 note=59 velocity=0 time=0.11160703124999999
EXTRACT: note_on channel=2 note=63 velocity=0 time=0
EXTRACT: note_on channel=3 note=62 velocity=0 time=0
EXTRACT: note_on channel=4 note=48 velocity=0 time=0
EXTRACT: note_on channel=6 note=60 velocity=0 time=0
EXTRACT: note_on channel=9 note=42 velocity=0 time=0
EXTRACT: note_on channel=4 note=40 velocity=110 time=0.007440468749999999
EXTRACT: note_on channel=5 note=40 velocity=110 time=0
EXTRACT: note_on channel=6 note=60 velocity=110 time=0
EXTRACT: note_on channel=9 note=35 velocity=110 time=0
EXTRACT: note_on channel=9 note=36 velocity=110 time=0
EXTRACT: note_on channel=9 note=42 velocity=110 time=0
EXTRACT: note_on channel=4 note=40 velocity=0 time=0.17113078124999997
EXTRACT: note_on channel=5 note=40 velocity=0 time=0
EXTRACT: note_on channel=6 note=60 velocity=0 time=0
EXTRACT: note_on channel=9 note=35 velocity=0 time=0
EXTRACT: note_on channel=9 note=36 velocity=0 time=0
EXTRACT: note_on channel=9 note=42 velocity=0 time=0
EXTRACT: note_on channel=4 note=40 velocity=110 time=0.007440468749999999
EXTRACT: note_on channel=5 note=40 velocity=110 time=0
EXTRACT: note_on channel=6 note=60 velocity=110 time=0
EXTRACT: note_on channel=9 note=42 velocity=110 time=0
EXTRACT: note_on channel=4 note=40 velocity=0 time=0.17113078124999997
EXTRACT: note_on channel=5 note=40 velocity=0 time=0
EXTRACT: note_on channel=6 note=60 velocity=0 time=0
EXTRACT: note_on channel=9 note=42 velocity=0 time=0
EXTRACT: note_on channel=4 note=40 velocity=110 time=0.007440468749999999
EXTRACT: note_on channel=5 note=40 velocity=110 time=0
EXTRACT: note_on channel=6 note=60 velocity=110 time=0
EXTRACT: note_on channel=9 note=38 velocity=110 time=0
EXTRACT: note_on channel=9 note=42 velocity=110 time=0
EXTRACT: note_on channel=4 note=40 velocity=0 time=0.17113078124999997
EXTRACT: note_on channel=5 note=40 velocity=0 time=0
EXTRACT: note_on channel=6 note=60 velocity=0 time=0
EXTRACT: note_on channel=9 note=38 velocity=0 time=0
EXTRACT: note_on channel=9 note=42 velocity=0 time=0
EXTRACT: note_on channel=4 note=40 velocity=110 time=0.007440468749999999
EXTRACT: note_on channel=5 note=40 velocity=110 time=0
EXTRACT: note_on channel=6 note=60 velocity=110 time=0
EXTRACT: note_on channel=9 note=42 velocity=110 time=0
EXTRACT: note_on channel=4 note=40 velocity=0 time=0.17113078124999997
EXTRACT: note_on channel=5 note=40 velocity=0 time=0
EXTRACT: note_on channel=6 note=60 velocity=0 time=0
EXTRACT: note_on channel=9 note=42 velocity=0 time=0
EXTRACT: note_on channel=4 note=48 velocity=110 time=0.007440468749999999
EXTRACT: note_on channel=5 note=40 velocity=110 time=0
EXTRACT: note_on channel=6 note=60 velocity=110 time=0
EXTRACT: note_on channel=9 note=55 velocity=110 time=0
EXTRACT: note_on channel=9 note=35 velocity=110 time=0
EXTRACT: note_on channel=9 note=36 velocity=110 time=0
EXTRACT: note_on channel=9 note=42 velocity=110 time=0
EXTRACT: note_on channel=4 note=48 velocity=0 time=0.17113078124999997
EXTRACT: note_on channel=5 note=40 velocity=0 time=0
EXTRACT: note_on channel=6 note=60 velocity=0 time=0
EXTRACT: note_on channel=9 note=35 velocity=0 time=0
EXTRACT: note_on channel=9 note=36 velocity=0 time=0
EXTRACT: note_on channel=9 note=42 velocity=0 time=0
EXTRACT: note_on channel=4 note=48 velocity=110 time=0.007440468749999999
EXTRACT: note_on channel=5 note=40 velocity=110 time=0
EXTRACT: note_on channel=6 note=60 velocity=110 time=0
EXTRACT: note_on channel=9 note=35 velocity=110 time=0
EXTRACT: note_on channel=9 note=36 velocity=110 time=0
EXTRACT: note_on channel=9 note=42 velocity=110 time=0
EXTRACT: note_on channel=4 note=48 velocity=0 time=0.17113078124999997
EXTRACT: note_on channel=5 note=40 velocity=0 time=0
EXTRACT: note_on channel=6 note=60 velocity=0 time=0
EXTRACT: note_on channel=9 note=35 velocity=0 time=0
EXTRACT: note_on channel=9 note=36 velocity=0 time=0
EXTRACT: note_on channel=9 note=42 velocity=0 time=0
EXTRACT: note_on channel=4 note=48 velocity=110 time=0.007440468749999999
EXTRACT: note_on channel=5 note=40 velocity=110 time=0
EXTRACT: note_on channel=6 note=60 velocity=110 time=0
EXTRACT: note_on channel=9 note=38 velocity=110 time=0
EXTRACT: note_on channel=9 note=42 velocity=110 time=0
EXTRACT: note_on channel=4 note=48 velocity=0 time=0.17113078124999997
EXTRACT: note_on channel=5 note=40 velocity=0 time=0
EXTRACT: note_on channel=6 note=60 velocity=0 time=0
EXTRACT: note_on channel=9 note=38 velocity=0 time=0
EXTRACT: note_on channel=9 note=42 velocity=0 time=0
EXTRACT: note_on channel=4 note=48 velocity=110 time=0.007440468749999999
EXTRACT: note_on channel=5 note=40 velocity=110 time=0
EXTRACT: note_on channel=6 note=60 velocity=110 time=0
EXTRACT: note_on channel=9 note=42 velocity=110 time=0
EXTRACT: note_on channel=9 note=55 velocity=0 time=0.05952374999999999
EXTRACT: note_on channel=4 note=48 velocity=0 time=0.11160703124999999
EXTRACT: note_on channel=5 note=40 velocity=0 time=0
EXTRACT: note_on channel=6 note=60 velocity=0 time=0
EXTRACT: note_on channel=9 note=42 velocity=0 time=0
EXTRACT: note_on channel=4 note=47 velocity=110 time=0.007440468749999999
EXTRACT: note_on channel=5 note=39 velocity=110 time=0
EXTRACT: note_on channel=6 note=60 velocity=110 time=0
EXTRACT: note_on channel=9 note=35 velocity=110 time=0
EXTRACT: note_on channel=9 note=36 velocity=110 time=0
EXTRACT: note_on channel=9 note=42 velocity=110 time=0
EXTRACT: note_on channel=5 note=39 velocity=0 time=0.17113078124999997
EXTRACT: note_on channel=6 note=60 velocity=0 time=0
EXTRACT: note_on channel=9 note=35 velocity=0 time=0
EXTRACT: note_on channel=9 note=36 velocity=0 time=0
EXTRACT: note_on channel=9 note=42 velocity=0 time=0
EXTRACT: note_on channel=5 note=39 velocity=110 time=0.007440468749999999
EXTRACT: note_on channel=6 note=60 velocity=110 time=0
EXTRACT: note_on channel=9 note=42 velocity=110 time=0
EXTRACT: note_on channel=5 note=39 velocity=0 time=0.17113078124999997
EXTRACT: note_on channel=6 note=60 velocity=0 time=0
EXTRACT: note_on channel=9 note=42 velocity=0 time=0
EXTRACT: note_on channel=3 note=64 velocity=110 time=0.007440468749999999
EXTRACT: note_on channel=3 note=67 velocity=110 time=0
EXTRACT: note_on channel=5 note=39 velocity=110 time=0
EXTRACT: note_on channel=6 note=60 velocity=110 time=0
EXTRACT: note_on channel=9 note=38 velocity=110 time=0
EXTRACT: note_on channel=9 note=42 velocity=110 time=0
EXTRACT: note_on channel=5 note=39 velocity=0 time=0.17113078124999997
EXTRACT: note_on channel=6 note=60 velocity=0 time=0
EXTRACT: note_on channel=9 note=38 velocity=0 time=0
EXTRACT: note_on channel=9 note=42 velocity=0 time=0
EXTRACT: note_on channel=5 note=39 velocity=110 time=0.007440468749999999
EXTRACT: note_on channel=6 note=60 velocity=110 time=0
EXTRACT: note_on channel=9 note=42 velocity=110 time=0
EXTRACT: note_on channel=3 note=64 velocity=0 time=0.17113078124999997
EXTRACT: note_on channel=3 note=67 velocity=0 time=0
EXTRACT: note_on channel=5 note=39 velocity=0 time=0
EXTRACT: note_on channel=6 note=60 velocity=0 time=0
EXTRACT: note_on channel=9 note=42 velocity=0 time=0
EXTRACT: note_on channel=3 note=63 velocity=110 time=0.007440468749999999
EXTRACT: note_on channel=3 note=66 velocity=110 time=0
EXTRACT: note_on channel=5 note=39 velocity=110 time=0
EXTRACT: note_on channel=6 note=60 velocity=110 time=0
EXTRACT: note_on channel=9 note=55 velocity=110 time=0
EXTRACT: note_on channel=9 note=35 velocity=110 time=0
EXTRACT: note_on channel=9 note=36 velocity=110 time=0
EXTRACT: note_on channel=9 note=42 velocity=110 time=0
EXTRACT: note_on channel=5 note=39 velocity=0 time=0.17113078124999997
EXTRACT: note_on channel=6 note=60 velocity=0 time=0
EXTRACT: note_on channel=9 note=35 velocity=0 time=0
EXTRACT: note_on channel=9 note=36 velocity=0 time=0
EXTRACT: note_on channel=9 note=42 velocity=0 time=0
EXTRACT: note_on channel=5 note=39 velocity=110 time=0.007440468749999999
EXTRACT: note_on channel=6 note=60 velocity=110 time=0
EXTRACT: note_on channel=9 note=35 velocity=110 time=0
EXTRACT: note_on channel=9 note=36 velocity=110 time=0
EXTRACT: note_on channel=9 note=42 velocity=110 time=0
EXTRACT: note_on channel=3 note=63 velocity=0 time=0.17113078124999997
EXTRACT: note_on channel=3 note=66 velocity=0 time=0
EXTRACT: note_on channel=5 note=39 velocity=0 time=0
EXTRACT: note_on channel=6 note=60 velocity=0 time=0
EXTRACT: note_on channel=9 note=35 velocity=0 time=0
EXTRACT: note_on channel=9 note=36 velocity=0 time=0
EXTRACT: note_on channel=9 note=42 velocity=0 time=0
EXTRACT: note_on channel=5 note=39 velocity=110 time=0.007440468749999999
EXTRACT: note_on channel=6 note=60 velocity=110 time=0
EXTRACT: note_on channel=9 note=38 velocity=110 time=0
EXTRACT: note_on channel=9 note=42 velocity=110 time=0
EXTRACT: note_on channel=5 note=39 velocity=0 time=0.17113078124999997
EXTRACT: note_on channel=6 note=60 velocity=0 time=0
EXTRACT: note_on channel=9 note=38 velocity=0 time=0
EXTRACT: note_on channel=9 note=42 velocity=0 time=0
EXTRACT: note_on channel=4 note=47 velocity=0 time=0.007440468749999999
EXTRACT: note_on channel=6 note=60 velocity=110 time=0
EXTRACT: note_on channel=9 note=42 velocity=110 time=0
EXTRACT: note_on channel=9 note=55 velocity=0 time=0.05952374999999999
EXTRACT: note_on channel=6 note=60 velocity=0 time=0.11160703124999999
EXTRACT: note_on channel=9 note=42 velocity=0 time=0
EXTRACT: note_on channel=2 note=64 velocity=60 time=0.007440468749999999
EXTRACT: note_on channel=2 note=67 velocity=60 time=0
EXTRACT: note_on channel=3 note=67 velocity=110 time=0
EXTRACT: note_on channel=4 note=40 velocity=110 time=0
EXTRACT: note_on channel=5 note=40 velocity=110 time=0
EXTRACT: note_on channel=6 note=60 velocity=110 time=0
EXTRACT: note_on channel=9 note=35 velocity=110 time=0
EXTRACT: note_on channel=9 note=36 velocity=110 time=0
EXTRACT: note_on channel=9 note=42 velocity=110 time=0
EXTRACT: note_on channel=2 note=64 velocity=0 time=0.17113078124999997
EXTRACT: note_on channel=2 note=67 velocity=0 time=0
EXTRACT: note_on channel=3 note=67 velocity=0 time=0
EXTRACT: note_on channel=4 note=40 velocity=0 time=0
EXTRACT: note_on channel=5 note=40 velocity=0 time=0
EXTRACT: note_on channel=6 note=60 velocity=0 time=0
EXTRACT: note_on channel=9 note=35 velocity=0 time=0
EXTRACT: note_on channel=9 note=36 velocity=0 time=0
EXTRACT: note_on channel=9 note=42 velocity=0 time=0
EXTRACT: note_on channel=2 note=64 velocity=60 time=0.007440468749999999
EXTRACT: note_on channel=2 note=67 velocity=60 time=0
EXTRACT: note_on channel=3 note=67 velocity=110 time=0
EXTRACT: note_on channel=4 note=40 velocity=110 time=0
EXTRACT: note_on channel=5 note=40 velocity=110 time=0
EXTRACT: note_on channel=6 note=60 velocity=110 time=0
EXTRACT: note_on channel=9 note=42 velocity=110 time=0
EXTRACT: note_on channel=2 note=64 velocity=0 time=0.17113078124999997
EXTRACT: note_on channel=2 note=67 velocity=0 time=0
EXTRACT: note_on channel=3 note=67 velocity=0 time=0
EXTRACT: note_on channel=4 note=40 velocity=0 time=0
EXTRACT: note_on channel=5 note=40 velocity=0 time=0
EXTRACT: note_on channel=6 note=60 velocity=0 time=0
EXTRACT: note_on channel=9 note=42 velocity=0 time=0
EXTRACT: note_on channel=2 note=64 velocity=60 time=0.007440468749999999
EXTRACT: note_on channel=2 note=67 velocity=60 time=0
EXTRACT: note_on channel=3 note=67 velocity=110 time=0
EXTRACT: note_on channel=4 note=40 velocity=110 time=0
EXTRACT: note_on channel=5 note=40 velocity=110 time=0
EXTRACT: note_on channel=6 note=60 velocity=110 time=0
EXTRACT: note_on channel=9 note=38 velocity=110 time=0
EXTRACT: note_on channel=9 note=42 velocity=110 time=0
EXTRACT: note_on channel=2 note=64 velocity=0 time=0.17113078124999997
EXTRACT: note_on channel=2 note=67 velocity=0 time=0
EXTRACT: note_on channel=3 note=67 velocity=0 time=0
EXTRACT: note_on channel=4 note=40 velocity=0 time=0
EXTRACT: note_on channel=5 note=40 velocity=0 time=0
EXTRACT: note_on channel=6 note=60 velocity=0 time=0
EXTRACT: note_on channel=9 note=38 velocity=0 time=0
EXTRACT: note_on channel=9 note=42 velocity=0 time=0
EXTRACT: note_on channel=2 note=64 velocity=60 time=0.007440468749999999
EXTRACT: note_on channel=2 note=67 velocity=60 time=0
EXTRACT: note_on channel=3 note=67 velocity=110 time=0
EXTRACT: note_on channel=4 note=40 velocity=110 time=0
EXTRACT: note_on channel=6 note=60 velocity=110 time=0
EXTRACT: note_on channel=9 note=42 velocity=110 time=0
EXTRACT: note_on channel=2 note=64 velocity=0 time=0.17113078124999997
EXTRACT: note_on channel=2 note=67 velocity=0 time=0
EXTRACT: note_on channel=3 note=67 velocity=0 time=0
EXTRACT: note_on channel=4 note=40 velocity=0 time=0
EXTRACT: note_on channel=6 note=60 velocity=0 time=0
EXTRACT: note_on channel=9 note=42 velocity=0 time=0
EXTRACT: note_on channel=2 note=63 velocity=60 time=0.007440468749999999
EXTRACT: note_on channel=2 note=66 velocity=60 time=0
EXTRACT: note_on channel=3 note=66 velocity=110 time=0
EXTRACT: note_on channel=4 note=47 velocity=110 time=0
EXTRACT: note_on channel=5 note=40 velocity=110 time=0
EXTRACT: note_on channel=6 note=60 velocity=110 time=0
EXTRACT: note_on channel=9 note=55 velocity=110 time=0
EXTRACT: note_on channel=9 note=35 velocity=110 time=0
EXTRACT: note_on channel=9 note=36 velocity=110 time=0
EXTRACT: note_on channel=9 note=42 velocity=110 time=0
EXTRACT: note_on channel=2 note=63 velocity=0 time=0.17113078124999997
EXTRACT: note_on channel=2 note=66 velocity=0 time=0
EXTRACT: note_on channel=3 note=66 velocity=0 time=0
EXTRACT: note_on channel=4 note=47 velocity=0 time=0
EXTRACT: note_on channel=5 note=40 velocity=0 time=0
EXTRACT: note_on channel=6 note=60 velocity=0 time=0
EXTRACT: note_on channel=9 note=35 velocity=0 time=0
EXTRACT: note_on channel=9 note=36 velocity=0 time=0
EXTRACT: note_on channel=9 note=42 velocity=0 time=0
EXTRACT: note_on channel=2 note=63 velocity=60 time=0.007440468749999999
EXTRACT: note_on channel=2 note=66 velocity=60 time=0
EXTRACT: note_on channel=3 note=66 velocity=110 time=0
EXTRACT: note_on channel=4 note=47 velocity=110 time=0
EXTRACT: note_on channel=5 note=40 velocity=110 time=0
EXTRACT: note_on channel=6 note=60 velocity=110 time=0
EXTRACT: note_on channel=9 note=35 velocity=110 time=0
EXTRACT: note_on channel=9 note=36 velocity=110 time=0
EXTRACT: note_on channel=9 note=42 velocity=110 time=0
EXTRACT: note_on channel=2 note=63 velocity=0 time=0.17113078124999997
EXTRACT: note_on channel=2 note=66 velocity=0 time=0
EXTRACT: note_on channel=3 note=66 velocity=0 time=0
EXTRACT: note_on channel=4 note=47 velocity=0 time=0
EXTRACT: note_on channel=5 note=40 velocity=0 time=0
EXTRACT: note_on channel=6 note=60 velocity=0 time=0
EXTRACT: note_on channel=9 note=35 velocity=0 time=0
EXTRACT: note_on channel=9 note=36 velocity=0 time=0
EXTRACT: note_on channel=9 note=42 velocity=0 time=0
EXTRACT: note_on channel=2 note=63 velocity=60 time=0.007440468749999999
EXTRACT: note_on channel=2 note=66 velocity=60 time=0
EXTRACT: note_on channel=3 note=66 velocity=110 time=0
EXTRACT: note_on channel=4 note=47 velocity=110 time=0
EXTRACT: note_on channel=5 note=40 velocity=110 time=0
EXTRACT: note_on channel=6 note=60 velocity=110 time=0
EXTRACT: note_on channel=9 note=38 velocity=110 time=0
EXTRACT: note_on channel=9 note=42 velocity=110 time=0
EXTRACT: note_on channel=4 note=47 velocity=0 time=0.17113078124999997
EXTRACT: note_on channel=5 note=40 velocity=0 time=0
EXTRACT: note_on channel=6 note=60 velocity=0 time=0
EXTRACT: note_on channel=9 note=38 velocity=0 time=0
EXTRACT: note_on channel=9 note=42 velocity=0 time=0
EXTRACT: note_on channel=4 note=47 velocity=110 time=0.007440468749999999
EXTRACT: note_on channel=6 note=60 velocity=110 time=0
EXTRACT: note_on channel=9 note=42 velocity=110 time=0
EXTRACT: note_on channel=9 note=55 velocity=0 time=0.05952374999999999
EXTRACT: note_on channel=2 note=63 velocity=0 time=0.11160703124999999
EXTRACT: note_on channel=2 note=66 velocity=0 time=0
EXTRACT: note_on channel=3 note=66 velocity=0 time=0
EXTRACT: note_on channel=4 note=47 velocity=0 time=0
EXTRACT: note_on channel=6 note=60 velocity=0 time=0
EXTRACT: note_on channel=9 note=42 velocity=0 time=0
EXTRACT: note_on channel=2 note=60 velocity=60 time=0.007440468749999999
EXTRACT: note_on channel=2 note=64 velocity=60 time=0
EXTRACT: note_on channel=3 note=64 velocity=110 time=0
EXTRACT: note_on channel=4 note=48 velocity=110 time=0
EXTRACT: note_on channel=5 note=35 velocity=110 time=0
EXTRACT: note_on channel=6 note=60 velocity=110 time=0
EXTRACT: note_on channel=9 note=35 velocity=110 time=0
EXTRACT: note_on channel=9 note=36 velocity=110 time=0
EXTRACT: note_on channel=9 note=42 velocity=110 time=0
EXTRACT: note_on channel=2 note=60 velocity=0 time=0.17113078124999997
EXTRACT: note_on channel=2 note=64 velocity=0 time=0
EXTRACT: note_on channel=3 note=64 velocity=0 time=0
EXTRACT: note_on channel=4 note=48 velocity=0 time=0
EXTRACT: note_on channel=5 note=35 velocity=0 time=0
EXTRACT: note_on channel=6 note=60 velocity=0 time=0
EXTRACT: note_on channel=9 note=35 velocity=0 time=0
EXTRACT: note_on channel=9 note=36 velocity=0 time=0
EXTRACT: note_on channel=9 note=42 velocity=0 time=0
EXTRACT: note_on channel=2 note=60 velocity=60 time=0.007440468749999999
EXTRACT: note_on channel=2 note=64 velocity=60 time=0
EXTRACT: note_on channel=3 note=64 velocity=110 time=0
EXTRACT: note_on channel=4 note=48 velocity=110 time=0
EXTRACT: note_on channel=5 note=35 velocity=110 time=0
EXTRACT: note_on channel=6 note=60 velocity=110 time=0
EXTRACT: note_on channel=9 note=42 velocity=110 time=0
EXTRACT: note_on channel=2 note=60 velocity=0 time=0.17113078124999997
EXTRACT: note_on channel=2 note=64 velocity=0 time=0
EXTRACT: note_on channel=3 note=64 velocity=0 time=0
EXTRACT: note_on channel=4 note=48 velocity=0 time=0
EXTRACT: note_on channel=5 note=35 velocity=0 time=0
EXTRACT: note_on channel=6 note=60 velocity=0 time=0
EXTRACT: note_on channel=9 note=42 velocity=0 time=0
EXTRACT: note_on channel=2 note=60 velocity=60 time=0.007440468749999999
EXTRACT: note_on channel=2 note=64 velocity=60 time=0
EXTRACT: note_on channel=3 note=64 velocity=110 time=0
EXTRACT: note_on channel=4 note=48 velocity=110 time=0
EXTRACT: note_on channel=5 note=35 velocity=110 time=0
EXTRACT: note_on channel=6 note=60 velocity=110 time=0
EXTRACT: note_on channel=9 note=38 velocity=110 time=0
EXTRACT: note_on channel=9 note=42 velocity=110 time=0
EXTRACT: note_on channel=5 note=35 velocity=0 time=0.17113078124999997
EXTRACT: note_on channel=6 note=60 velocity=0 time=0
EXTRACT: note_on channel=9 note=38 velocity=0 time=0
EXTRACT: note_on channel=9 note=42 velocity=0 time=0
EXTRACT: note_on channel=6 note=60 velocity=110 time=0.007440468749999999
EXTRACT: note_on channel=9 note=42 velocity=110 time=0
EXTRACT: note_on channel=2 note=60 velocity=0 time=0.17113078124999997
EXTRACT: note_on channel=2 note=64 velocity=0 time=0
EXTRACT: note_on channel=3 note=64 velocity=0 time=0
EXTRACT: note_on channel=4 note=48 velocity=0 time=0
EXTRACT: note_on channel=6 note=60 velocity=0 time=0
EXTRACT: note_on channel=9 note=42 velocity=0 time=0
EXTRACT: note_on channel=2 note=60 velocity=60 time=0.007440468749999999
EXTRACT: note_on channel=2 note=64 velocity=60 time=0
EXTRACT: note_on channel=3 note=64 velocity=110 time=0
EXTRACT: note_on channel=4 note=48 velocity=110 time=0
EXTRACT: note_on channel=5 note=35 velocity=110 time=0
EXTRACT: note_on channel=6 note=60 velocity=110 time=0
EXTRACT: note_on channel=9 note=55 velocity=110 time=0
EXTRACT: note_on channel=9 note=35 velocity=110 time=0
EXTRACT: note_on channel=9 note=36 velocity=110 time=0
EXTRACT: note_on channel=9 note=42 velocity=110 time=0
EXTRACT: note_on channel=4 note=48 velocity=0 time=0.17113078124999997
EXTRACT: note_on channel=5 note=35 velocity=0 time=0
EXTRACT: note_on channel=6 note=60 velocity=0 time=0
EXTRACT: note_on channel=9 note=35 velocity=0 time=0
EXTRACT: note_on channel=9 note=36 velocity=0 time=0
EXTRACT: note_on channel=9 note=42 velocity=0 time=0
EXTRACT: note_on channel=4 note=48 velocity=110 time=0.007440468749999999
EXTRACT: note_on channel=5 note=35 velocity=110 time=0
EXTRACT: note_on channel=6 note=60 velocity=110 time=0
EXTRACT: note_on channel=9 note=35 velocity=110 time=0
EXTRACT: note_on channel=9 note=36 velocity=110 time=0
EXTRACT: note_on channel=9 note=42 velocity=110 time=0
EXTRACT: note_on channel=2 note=60 velocity=0 time=0.17113078124999997
EXTRACT: note_on channel=2 note=64 velocity=0 time=0
EXTRACT: note_on channel=3 note=64 velocity=0 time=0
EXTRACT: note_on channel=4 note=48 velocity=0 time=0
EXTRACT: note_on channel=5 note=35 velocity=0 time=0
EXTRACT: note_on channel=6 note=60 velocity=0 time=0
EXTRACT: note_on channel=9 note=35 velocity=0 time=0
EXTRACT: note_on channel=9 note=36 velocity=0 time=0
EXTRACT: note_on channel=9 note=42 velocity=0 time=0
EXTRACT: note_on channel=2 note=59 velocity=60 time=0.007440468749999999
EXTRACT: note_on channel=2 note=63 velocity=60 time=0
EXTRACT: note_on channel=3 note=62 velocity=110 time=0
EXTRACT: note_on channel=4 note=48 velocity=110 time=0
EXTRACT: note_on channel=5 note=35 velocity=110 time=0
EXTRACT: note_on channel=6 note=60 velocity=110 time=0
EXTRACT: note_on channel=9 note=38 velocity=110 time=0
EXTRACT: note_on channel=9 note=42 velocity=110 time=0
EXTRACT: note_on channel=5 note=35 velocity=0 time=0.17113078124999997
EXTRACT: note_on channel=6 note=60 velocity=0 time=0
EXTRACT: note_on channel=9 note=38 velocity=0 time=0
EXTRACT: note_on channel=9 note=42 velocity=0 time=0
EXTRACT: note_on channel=6 note=60 velocity=110 time=0.007440468749999999
EXTRACT: note_on channel=9 note=42 velocity=110 time=0
EXTRACT: note_on channel=9 note=55 velocity=0 time=0.05952374999999999
EXTRACT: note_on channel=2 note=59 velocity=0 time=0.11160703124999999
EXTRACT: note_on channel=2 note=63 velocity=0 time=0
EXTRACT: note_on channel=3 note=62 velocity=0 time=0
EXTRACT: note_on channel=4 note=48 velocity=0 time=0
EXTRACT: note_on channel=6 note=60 velocity=0 time=0
EXTRACT: note_on channel=9 note=42 velocity=0 time=0
EXTRACT: note_on channel=4 note=40 velocity=110 time=0.007440468749999999
EXTRACT: note_on channel=5 note=40 velocity=110 time=0
EXTRACT: note_on channel=6 note=60 velocity=110 time=0
EXTRACT: note_on channel=9 note=35 velocity=110 time=0
EXTRACT: note_on channel=9 note=36 velocity=110 time=0
EXTRACT: note_on channel=9 note=42 velocity=110 time=0
EXTRACT: note_on channel=4 note=40 velocity=0 time=0.17113078124999997
EXTRACT: note_on channel=5 note=40 velocity=0 time=0
EXTRACT: note_on channel=6 note=60 velocity=0 time=0
EXTRACT: note_on channel=9 note=35 velocity=0 time=0
EXTRACT: note_on channel=9 note=36 velocity=0 time=0
EXTRACT: note_on channel=9 note=42 velocity=0 time=0
EXTRACT: note_on channel=4 note=40 velocity=110 time=0.007440468749999999
EXTRACT: note_on channel=5 note=40 velocity=110 time=0
EXTRACT: note_on channel=6 note=60 velocity=110 time=0
EXTRACT: note_on channel=9 note=42 velocity=110 time=0
EXTRACT: note_on channel=4 note=40 velocity=0 time=0.17113078124999997
EXTRACT: note_on channel=5 note=40 velocity=0 time=0
EXTRACT: note_on channel=6 note=60 velocity=0 time=0
EXTRACT: note_on channel=9 note=42 velocity=0 time=0
EXTRACT: note_on channel=4 note=40 velocity=110 time=0.007440468749999999
EXTRACT: note_on channel=5 note=40 velocity=110 time=0
EXTRACT: note_on channel=6 note=60 velocity=110 time=0
EXTRACT: note_on channel=9 note=38 velocity=110 time=0
EXTRACT: note_on channel=9 note=42 velocity=110 time=0
EXTRACT: note_on channel=4 note=40 velocity=0 time=0.17113078124999997
EXTRACT: note_on channel=5 note=40 velocity=0 time=0
EXTRACT: note_on channel=6 note=60 velocity=0 time=0
EXTRACT: note_on channel=9 note=38 velocity=0 time=0
EXTRACT: note_on channel=9 note=42 velocity=0 time=0
EXTRACT: note_on channel=4 note=40 velocity=110 time=0.007440468749999999
EXTRACT: note_on channel=5 note=40 velocity=110 time=0
EXTRACT: note_on channel=6 note=60 velocity=110 time=0
EXTRACT: note_on channel=9 note=42 velocity=110 time=0
EXTRACT: note_on channel=4 note=40 velocity=0 time=0.17113078124999997
EXTRACT: note_on channel=5 note=40 velocity=0 time=0
EXTRACT: note_on channel=6 note=60 velocity=0 time=0
EXTRACT: note_on channel=9 note=42 velocity=0 time=0
EXTRACT: note_on channel=4 note=48 velocity=110 time=0.007440468749999999
EXTRACT: note_on channel=5 note=40 velocity=110 time=0
EXTRACT: note_on channel=6 note=60 velocity=110 time=0
EXTRACT: note_on channel=9 note=55 velocity=110 time=0
EXTRACT: note_on channel=9 note=35 velocity=110 time=0
EXTRACT: note_on channel=9 note=36 velocity=110 time=0
EXTRACT: note_on channel=9 note=42 velocity=110 time=0
EXTRACT: note_on channel=4 note=48 velocity=0 time=0.17113078124999997
EXTRACT: note_on channel=5 note=40 velocity=0 time=0
EXTRACT: note_on channel=6 note=60 velocity=0 time=0
EXTRACT: note_on channel=9 note=35 velocity=0 time=0
EXTRACT: note_on channel=9 note=36 velocity=0 time=0
EXTRACT: note_on channel=9 note=42 velocity=0 time=0
EXTRACT: note_on channel=4 note=48 velocity=110 time=0.007440468749999999
EXTRACT: note_on channel=5 note=40 velocity=110 time=0
EXTRACT: note_on channel=6 note=60 velocity=110 time=0
EXTRACT: note_on channel=9 note=35 velocity=110 time=0
EXTRACT: note_on channel=9 note=36 velocity=110 time=0
EXTRACT: note_on channel=9 note=42 velocity=110 time=0
EXTRACT: note_on channel=4 note=48 velocity=0 time=0.17113078124999997
EXTRACT: note_on channel=5 note=40 velocity=0 time=0
EXTRACT: note_on channel=6 note=60 velocity=0 time=0
EXTRACT: note_on channel=9 note=35 velocity=0 time=0
EXTRACT: note_on channel=9 note=36 velocity=0 time=0
EXTRACT: note_on channel=9 note=42 velocity=0 time=0
EXTRACT: note_on channel=4 note=48 velocity=110 time=0.007440468749999999
EXTRACT: note_on channel=5 note=40 velocity=110 time=0
EXTRACT: note_on channel=6 note=60 velocity=110 time=0
EXTRACT: note_on channel=9 note=38 velocity=110 time=0
EXTRACT: note_on channel=9 note=42 velocity=110 time=0
EXTRACT: note_on channel=4 note=48 velocity=0 time=0.17113078124999997
EXTRACT: note_on channel=5 note=40 velocity=0 time=0
EXTRACT: note_on channel=6 note=60 velocity=0 time=0
EXTRACT: note_on channel=9 note=38 velocity=0 time=0
EXTRACT: note_on channel=9 note=42 velocity=0 time=0
EXTRACT: note_on channel=4 note=48 velocity=110 time=0.007440468749999999
EXTRACT: note_on channel=5 note=40 velocity=110 time=0
EXTRACT: note_on channel=6 note=60 velocity=110 time=0
EXTRACT: note_on channel=9 note=42 velocity=110 time=0
EXTRACT: note_on channel=9 note=55 velocity=0 time=0.05952374999999999
EXTRACT: note_on channel=4 note=48 velocity=0 time=0.11160703124999999
EXTRACT: note_on channel=5 note=40 velocity=0 time=0
EXTRACT: note_on channel=6 note=60 velocity=0 time=0
EXTRACT: note_on channel=9 note=42 velocity=0 time=0
EXTRACT: note_on channel=4 note=47 velocity=110 time=0.007440468749999999
EXTRACT: note_on channel=5 note=39 velocity=110 time=0
EXTRACT: note_on channel=6 note=60 velocity=110 time=0
EXTRACT: note_on channel=9 note=35 velocity=110 time=0
EXTRACT: note_on channel=9 note=36 velocity=110 time=0
EXTRACT: note_on channel=9 note=42 velocity=110 time=0
EXTRACT: note_on channel=5 note=39 velocity=0 time=0.17113078124999997
EXTRACT: note_on channel=6 note=60 velocity=0 time=0
EXTRACT: note_on channel=9 note=35 velocity=0 time=0
EXTRACT: note_on channel=9 note=36 velocity=0 time=0
EXTRACT: note_on channel=9 note=42 velocity=0 time=0
EXTRACT: note_on channel=5 note=39 velocity=110 time=0.007440468749999999
EXTRACT: note_on channel=6 note=60 velocity=110 time=0
EXTRACT: note_on channel=9 note=42 velocity=110 time=0
EXTRACT: note_on channel=5 note=39 velocity=0 time=0.17113078124999997
EXTRACT: note_on channel=6 note=60 velocity=0 time=0
EXTRACT: note_on channel=9 note=42 velocity=0 time=0
EXTRACT: note_on channel=5 note=39 velocity=110 time=0.007440468749999999
EXTRACT: note_on channel=6 note=60 velocity=110 time=0
EXTRACT: note_on channel=9 note=38 velocity=110 time=0
EXTRACT: note_on channel=9 note=42 velocity=110 time=0
EXTRACT: note_on channel=5 note=39 velocity=0 time=0.17113078124999997
EXTRACT: note_on channel=6 note=60 velocity=0 time=0
EXTRACT: note_on channel=9 note=38 velocity=0 time=0
EXTRACT: note_on channel=9 note=42 velocity=0 time=0
EXTRACT: note_on channel=5 note=39 velocity=110 time=0.007440468749999999
EXTRACT: note_on channel=6 note=60 velocity=110 time=0
EXTRACT: note_on channel=9 note=42 velocity=110 time=0
EXTRACT: note_on channel=5 note=39 velocity=0 time=0.17113078124999997
EXTRACT: note_on channel=6 note=60 velocity=0 time=0
EXTRACT: note_on channel=9 note=42 velocity=0 time=0
EXTRACT: note_on channel=5 note=39 velocity=110 time=0.007440468749999999
EXTRACT: note_on channel=6 note=60 velocity=110 time=0
EXTRACT: note_on channel=9 note=55 velocity=110 time=0
EXTRACT: note_on channel=9 note=35 velocity=110 time=0
EXTRACT: note_on channel=9 note=36 velocity=110 time=0
EXTRACT: note_on channel=9 note=42 velocity=110 time=0
EXTRACT: note_on channel=5 note=39 velocity=0 time=0.17113078124999997
EXTRACT: note_on channel=6 note=60 velocity=0 time=0
EXTRACT: note_on channel=9 note=35 velocity=0 time=0
EXTRACT: note_on channel=9 note=36 velocity=0 time=0
EXTRACT: note_on channel=9 note=42 velocity=0 time=0
EXTRACT: note_on channel=5 note=39 velocity=110 time=0.007440468749999999
EXTRACT: note_on channel=6 note=60 velocity=110 time=0
EXTRACT: note_on channel=9 note=35 velocity=110 time=0
EXTRACT: note_on channel=9 note=36 velocity=110 time=0
EXTRACT: note_on channel=9 note=42 velocity=110 time=0
EXTRACT: note_on channel=5 note=39 velocity=0 time=0.17113078124999997
EXTRACT: note_on channel=6 note=60 velocity=0 time=0
EXTRACT: note_on channel=9 note=35 velocity=0 time=0
EXTRACT: note_on channel=9 note=36 velocity=0 time=0
EXTRACT: note_on channel=9 note=42 velocity=0 time=0
EXTRACT: note_on channel=5 note=39 velocity=110 time=0.007440468749999999
EXTRACT: note_on channel=6 note=60 velocity=110 time=0
EXTRACT: note_on channel=9 note=38 velocity=110 time=0
EXTRACT: note_on channel=9 note=42 velocity=110 time=0
EXTRACT: note_on channel=5 note=39 velocity=0 time=0.17113078124999997
EXTRACT: note_on channel=6 note=60 velocity=0 time=0
EXTRACT: note_on channel=9 note=38 velocity=0 time=0
EXTRACT: note_on channel=9 note=42 velocity=0 time=0
EXTRACT: note_on channel=4 note=47 velocity=0 time=0.007440468749999999
EXTRACT: note_on channel=6 note=60 velocity=110 time=0
EXTRACT: note_on channel=9 note=42 velocity=110 time=0
EXTRACT: note_on channel=9 note=55 velocity=0 time=0.05952374999999999
EXTRACT: note_on channel=6 note=60 velocity=0 time=0.11160703124999999
EXTRACT: note_on channel=9 note=42 velocity=0 time=0
EXTRACT: note_on channel=2 note=76 velocity=60 time=0.007440468749999999
EXTRACT: note_on channel=5 note=40 velocity=110 time=0
EXTRACT: note_on channel=6 note=60 velocity=110 time=0
EXTRACT: note_on channel=5 note=40 velocity=0 time=0.17113078124999997
EXTRACT: note_on channel=5 note=40 velocity=110 time=0.007440468749999999
EXTRACT: note_on channel=5 note=40 velocity=0 time=0.17113078124999997
EXTRACT: note_on channel=5 note=40 velocity=110 time=0.007440468749999999
EXTRACT: note_on channel=5 note=40 velocity=0 time=0.17113078124999997
EXTRACT: note_on channel=6 note=60 velocity=0 time=0.06696421875
EXTRACT: note_on channel=6 note=60 velocity=110 time=0.11904749999999999
EXTRACT: note_on channel=9 note=55 velocity=110 time=0
EXTRACT: note_on channel=6 note=60 velocity=0 time=0.52827328125
EXTRACT: note_on channel=6 note=60 velocity=110 time=0.007440468749999999
EXTRACT: note_on channel=9 note=55 velocity=0 time=0.05952374999999999
EXTRACT: note_on channel=6 note=60 velocity=0 time=0.11160703124999999
EXTRACT: note_on channel=6 note=60 velocity=110 time=0.007440468749999999
EXTRACT: note_on channel=6 note=60 velocity=0 time=0.5952375
EXTRACT: note_on channel=5 note=47 velocity=110 time=0.11904749999999999
EXTRACT: note_on channel=6 note=60 velocity=110 time=0
EXTRACT: note_on channel=9 note=55 velocity=110 time=0
EXTRACT: note_on channel=5 note=47 velocity=0 time=0.17113078124999997
EXTRACT: note_on channel=5 note=47 velocity=110 time=0.007440468749999999
EXTRACT: note_on channel=5 note=47 velocity=0 time=0.17113078124999997
EXTRACT: note_on channel=5 note=47 velocity=110 time=0.007440468749999999
EXTRACT: note_on channel=5 note=47 velocity=0 time=0.17113078124999997
EXTRACT: note_on channel=2 note=76 velocity=0 time=0.007440468749999999
EXTRACT: note_on channel=6 note=60 velocity=0 time=0.05952374999999999
EXTRACT: note_on channel=9 note=55 velocity=0 time=0
EXTRACT: note_on channel=2 note=76 velocity=60 time=0.11904749999999999
EXTRACT: note_on channel=5 note=42 velocity=110 time=0
EXTRACT: note_on channel=6 note=60 velocity=110 time=0
EXTRACT: note_on channel=5 note=42 velocity=0 time=0.17113078124999997
EXTRACT: note_on channel=5 note=42 velocity=110 time=0.007440468749999999
EXTRACT: note_on channel=5 note=42 velocity=0 time=0.17113078124999997
EXTRACT: note_on channel=5 note=42 velocity=110 time=0.007440468749999999
EXTRACT: note_on channel=5 note=42 velocity=0 time=0.17113078124999997
EXTRACT: note_on channel=6 note=60 velocity=0 time=0.06696421875
EXTRACT: note_on channel=6 note=60 velocity=110 time=0.11904749999999999
EXTRACT: note_on channel=9 note=55 velocity=110 time=0
EXTRACT: note_on channel=6 note=60 velocity=0 time=0.52827328125
EXTRACT: note_on channel=6 note=60 velocity=110 time=0.007440468749999999
EXTRACT: note_on channel=9 note=55 velocity=0 time=0.05952374999999999
EXTRACT: note_on channel=6 note=60 velocity=0 time=0.11160703124999999
EXTRACT: note_on channel=6 note=60 velocity=110 time=0.007440468749999999
EXTRACT: note_on channel=6 note=60 velocity=0 time=0.5952375
EXTRACT: note_on channel=6 note=60 velocity=110 time=0.11904749999999999
EXTRACT: note_on channel=9 note=55 velocity=110 time=0
EXTRACT: note_on channel=2 note=76 velocity=0 time=0.53571375
EXTRACT: note_on channel=6 note=60 velocity=0 time=0.05952374999999999
EXTRACT: note_on channel=9 note=55 velocity=0 time=0
EXTRACT: note_on channel=2 note=69 velocity=60 time=0.11904749999999999
EXTRACT: note_on channel=5 note=40 velocity=110 time=0
EXTRACT: note_on channel=6 note=60 velocity=110 time=0
EXTRACT: note_on channel=5 note=40 velocity=0 time=0.17113078124999997
EXTRACT: note_on channel=5 note=40 velocity=110 time=0.007440468749999999
EXTRACT: note_on channel=5 note=40 velocity=0 time=0.17113078124999997
EXTRACT: note_on channel=5 note=40 velocity=110 time=0.007440468749999999
EXTRACT: note_on channel=5 note=40 velocity=0 time=0.17113078124999997
EXTRACT: note_on channel=6 note=60 velocity=0 time=0.06696421875
EXTRACT: note_on channel=6 note=60 velocity=110 time=0.11904749999999999
EXTRACT: note_on channel=9 note=55 velocity=110 time=0
EXTRACT: note_on channel=6 note=60 velocity=0 time=0.52827328125
EXTRACT: note_on channel=6 note=60 velocity=110 time=0.007440468749999999
EXTRACT: note_on channel=9 note=55 velocity=0 time=0.05952374999999999
EXTRACT: note_on channel=6 note=60 velocity=0 time=0.11160703124999999
EXTRACT: note_on channel=6 note=60 velocity=110 time=0.007440468749999999
EXTRACT: note_on channel=6 note=60 velocity=0 time=0.5952375
EXTRACT: note_on channel=5 note=47 velocity=110 time=0.11904749999999999
EXTRACT: note_on channel=6 note=60 velocity=110 time=0
EXTRACT: note_on channel=9 note=55 velocity=110 time=0
EXTRACT: note_on channel=5 note=47 velocity=0 time=0.17113078124999997
EXTRACT: note_on channel=5 note=47 velocity=110 time=0.007440468749999999
EXTRACT: note_on channel=5 note=47 velocity=0 time=0.17113078124999997
EXTRACT: note_on channel=5 note=47 velocity=110 time=0.007440468749999999
EXTRACT: note_on channel=5 note=47 velocity=0 time=0.17113078124999997
EXTRACT: note_on channel=2 note=69 velocity=0 time=0.007440468749999999
EXTRACT: note_on channel=6 note=60 velocity=0 time=0.05952374999999999
EXTRACT: note_on channel=9 note=55 velocity=0 time=0
EXTRACT: note_on channel=2 note=66 velocity=60 time=0.11904749999999999
EXTRACT: note_on channel=5 note=42 velocity=110 time=0
EXTRACT: note_on channel=6 note=60 velocity=110 time=0
EXTRACT: note_on channel=5 note=42 velocity=0 time=0.17113078124999997
EXTRACT: note_on channel=5 note=42 velocity=110 time=0.007440468749999999
EXTRACT: note_on channel=5 note=42 velocity=0 time=0.17113078124999997
EXTRACT: note_on channel=5 note=42 velocity=110 time=0.007440468749999999
EXTRACT: note_on channel=5 note=42 velocity=0 time=0.17113078124999997
EXTRACT: note_on channel=6 note=60 velocity=0 time=0.06696421875
EXTRACT: note_on channel=6 note=60 velocity=110 time=0.11904749999999999
EXTRACT: note_on channel=9 note=55 velocity=110 time=0
EXTRACT: note_on channel=6 note=60 velocity=0 time=0.52827328125
EXTRACT: note_on channel=2 note=66 velocity=0 time=0.007440468749999999
EXTRACT: note_on channel=6 note=60 velocity=110 time=0
EXTRACT: note_on channel=9 note=55 velocity=0 time=0.05952374999999999
EXTRACT: note_on channel=6 note=60 velocity=0 time=0.11160703124999999
EXTRACT: note_on channel=2 note=67 velocity=60 time=0.007440468749999999
EXTRACT: note_on channel=6 note=60 velocity=110 time=0
EXTRACT: note_on channel=2 note=67 velocity=0 time=0.5952375
EXTRACT: note_on channel=6 note=60 velocity=0 time=0
EXTRACT: note_on channel=2 note=69 velocity=60 time=0.11904749999999999
EXTRACT: note_on channel=6 note=60 velocity=110 time=0
EXTRACT: note_on channel=9 note=55 velocity=110 time=0
EXTRACT: note_on channel=2 note=69 velocity=0 time=0.5952375
EXTRACT: note_on channel=6 note=60 velocity=0 time=0
EXTRACT: note_on channel=9 note=55 velocity=0 time=0
EXTRACT: note_on channel=2 note=71 velocity=60 time=0.11904749999999999
EXTRACT: note_on channel=5 note=40 velocity=110 time=0
EXTRACT: note_on channel=6 note=60 velocity=110 time=0
EXTRACT: note_on channel=5 note=40 velocity=0 time=0.17113078124999997
EXTRACT: note_on channel=5 note=40 velocity=110 time=0.007440468749999999
EXTRACT: note_on channel=5 note=40 velocity=0 time=0.17113078124999997
EXTRACT: note_on channel=5 note=40 velocity=110 time=0.007440468749999999
EXTRACT: note_on channel=5 note=40 velocity=0 time=0.17113078124999997
EXTRACT: note_on channel=6 note=60 velocity=0 time=0.06696421875
EXTRACT: note_on channel=6 note=60 velocity=110 time=0.11904749999999999
EXTRACT: note_on channel=9 note=55 velocity=110 time=0
EXTRACT: note_on channel=6 note=60 velocity=0 time=0.52827328125
EXTRACT: note_on channel=6 note=60 velocity=110 time=0.007440468749999999
EXTRACT: note_on channel=9 note=55 velocity=0 time=0.05952374999999999
EXTRACT: note_on channel=6 note=60 velocity=0 time=0.11160703124999999
EXTRACT: note_on channel=6 note=60 velocity=110 time=0.007440468749999999
EXTRACT: note_on channel=6 note=60 velocity=0 time=0.5952375
EXTRACT: note_on channel=5 note=47 velocity=110 time=0.11904749999999999
EXTRACT: note_on channel=6 note=60 velocity=110 time=0
EXTRACT: note_on channel=9 note=55 velocity=110 time=0
EXTRACT: note_on channel=5 note=47 velocity=0 time=0.17113078124999997
EXTRACT: note_on channel=5 note=47 velocity=110 time=0.007440468749999999
EXTRACT: note_on channel=5 note=47 velocity=0 time=0.17113078124999997
EXTRACT: note_on channel=5 note=47 velocity=110 time=0.007440468749999999
EXTRACT: note_on channel=5 note=47 velocity=0 time=0.17113078124999997
EXTRACT: note_on channel=2 note=71 velocity=0 time=0.007440468749999999
EXTRACT: note_on channel=6 note=60 velocity=0 time=0.05952374999999999
EXTRACT: note_on channel=9 note=55 velocity=0 time=0
EXTRACT: note_on channel=2 note=72 velocity=60 time=0.11904749999999999
EXTRACT: note_on channel=5 note=42 velocity=110 time=0
EXTRACT: note_on channel=6 note=60 velocity=110 time=0
EXTRACT: note_on channel=5 note=42 velocity=0 time=0.17113078124999997
EXTRACT: note_on channel=5 note=42 velocity=110 time=0.007440468749999999
EXTRACT: note_on channel=5 note=42 velocity=0 time=0.17113078124999997
EXTRACT: note_on channel=5 note=42 velocity=110 time=0.007440468749999999
EXTRACT: note_on channel=5 note=42 velocity=0 time=0.17113078124999997
EXTRACT: note_on channel=6 note=60 velocity=0 time=0.06696421875
EXTRACT: note_on channel=6 note=60 velocity=110 time=0.11904749999999999
EXTRACT: note_on channel=9 note=55 velocity=110 time=0
EXTRACT: note_on channel=6 note=60 velocity=0 time=0.52827328125
EXTRACT: note_on channel=6 note=60 velocity=110 time=0.007440468749999999
EXTRACT: note_on channel=9 note=55 velocity=0 time=0.05952374999999999
EXTRACT: note_on channel=6 note=60 velocity=0 time=0.11160703124999999
EXTRACT: note_on channel=6 note=60 velocity=110 time=0.007440468749999999
EXTRACT: note_on channel=6 note=60 velocity=0 time=0.5952375
EXTRACT: note_on channel=6 note=60 velocity=110 time=0.11904749999999999
EXTRACT: note_on channel=9 note=55 velocity=110 time=0
EXTRACT: note_on channel=2 note=72 velocity=0 time=0.53571375
EXTRACT: note_on channel=6 note=60 velocity=0 time=0.05952374999999999
EXTRACT: note_on channel=9 note=55 velocity=0 time=0
EXTRACT: note_on channel=1 note=69 velocity=110 time=0.11904749999999999
EXTRACT: note_on channel=1 note=72 velocity=110 time=0
EXTRACT: note_on channel=5 note=40 velocity=110 time=0
EXTRACT: note_on channel=6 note=60 velocity=110 time=0
EXTRACT: note_on channel=5 note=40 velocity=0 time=0.17113078124999997
EXTRACT: note_on channel=5 note=40 velocity=110 time=0.007440468749999999
EXTRACT: note_on channel=5 note=40 velocity=0 time=0.17113078124999997
EXTRACT: note_on channel=5 note=40 velocity=110 time=0.007440468749999999
EXTRACT: note_on channel=5 note=40 velocity=0 time=0.17113078124999997
EXTRACT: note_on channel=1 note=69 velocity=0 time=0.06696421875
EXTRACT: note_on channel=1 note=72 velocity=0 time=0
EXTRACT: note_on channel=6 note=60 velocity=0 time=0
EXTRACT: note_on channel=1 note=67 velocity=110 time=0.11904749999999999
EXTRACT: note_on channel=1 note=71 velocity=110 time=0
EXTRACT: note_on channel=6 note=60 velocity=110 time=0
EXTRACT: note_on channel=9 note=55 velocity=110 time=0
EXTRACT: note_on channel=6 note=60 velocity=0 time=0.52827328125
EXTRACT: note_on channel=6 note=60 velocity=110 time=0.007440468749999999
EXTRACT: note_on channel=1 note=67 velocity=0 time=0.05952374999999999
EXTRACT: note_on channel=1 note=71 velocity=0 time=0
EXTRACT: note_on channel=9 note=55 velocity=0 time=0
EXTRACT: note_on channel=6 note=60 velocity=0 time=0.11160703124999999
EXTRACT: note_on channel=1 note=66 velocity=110 time=0.007440468749999999
EXTRACT: note_on channel=1 note=69 velocity=110 time=0
EXTRACT: note_on channel=6 note=60 velocity=110 time=0
EXTRACT: note_on channel=1 note=66 velocity=0 time=0.5952375
EXTRACT: note_on channel=1 note=69 velocity=0 time=0
EXTRACT: note_on channel=6 note=60 velocity=0 time=0
EXTRACT: note_on channel=1 note=64 velocity=110 time=0.11904749999999999
EXTRACT: note_on channel=1 note=67 velocity=110 time=0
EXTRACT: note_on channel=5 note=47 velocity=110 time=0
EXTRACT: note_on channel=6 note=60 velocity=110 time=0
EXTRACT: note_on channel=9 note=55 velocity=110 time=0
EXTRACT: note_on channel=5 note=47 velocity=0 time=0.17113078124999997
EXTRACT: note_on channel=5 note=47 velocity=110 time=0.007440468749999999
EXTRACT: note_on channel=5 note=47 velocity=0 time=0.17113078124999997
EXTRACT: note_on channel=5 note=47 velocity=110 time=0.007440468749999999
EXTRACT: note_on channel=5 note=47 velocity=0 time=0.17113078124999997
EXTRACT: note_on channel=1 note=64 velocity=0 time=0.06696421875
EXTRACT: note_on channel=1 note=67 velocity=0 time=0
EXTRACT: note_on channel=6 note=60 velocity=0 time=0
EXTRACT: note_on channel=9 note=55 velocity=0 time=0
EXTRACT: note_on channel=1 note=63 velocity=110 time=0.11904749999999999
EXTRACT: note_on channel=1 note=66 velocity=110 time=0
EXTRACT: note_on channel=5 note=42 velocity=110 time=0
EXTRACT: note_on channel=6 note=60 velocity=110 time=0
EXTRACT: note_on channel=5 note=42 velocity=0 time=0.17113078124999997
EXTRACT: note_on channel=5 note=42 velocity=110 time=0.007440468749999999
EXTRACT: note_on channel=5 note=42 velocity=0 time=0.17113078124999997
EXTRACT: note_on channel=5 note=42 velocity=110 time=0.007440468749999999
EXTRACT: note_on channel=5 note=42 velocity=0 time=0.17113078124999997
EXTRACT: note_on channel=1 note=63 velocity=0 time=0.06696421875
EXTRACT: note_on channel=1 note=66 velocity=0 time=0
EXTRACT: note_on channel=6 note=60 velocity=0 time=0
EXTRACT: note_on channel=1 note=60 velocity=110 time=0.11904749999999999
EXTRACT: note_on channel=1 note=64 velocity=110 time=0
EXTRACT: note_on channel=6 note=60 velocity=110 time=0.53571375
EXTRACT: note_on channel=1 note=60 velocity=0 time=0.05952374999999999
EXTRACT: note_on channel=1 note=64 velocity=0 time=0
EXTRACT: note_on channel=6 note=60 velocity=0 time=0.11160703124999999
EXTRACT: note_on channel=1 note=59 velocity=110 time=0.007440468749999999
EXTRACT: note_on channel=1 note=63 velocity=110 time=0
EXTRACT: note_on channel=6 note=60 velocity=110 time=0
EXTRACT: note_on channel=6 note=60 velocity=0 time=0.34970203124999993
EXTRACT: note_on channel=6 note=60 velocity=110 time=0.007440468749999999
EXTRACT: note_on channel=9 note=35 velocity=110 time=0
EXTRACT: note_on channel=9 note=36 velocity=110 time=0
EXTRACT: note_on channel=1 note=59 velocity=0 time=0.23809499999999997
EXTRACT: note_on channel=1 note=63 velocity=0 time=0
EXTRACT: note_on channel=6 note=60 velocity=0 time=0.11160703124999999
EXTRACT: note_on channel=9 note=35 velocity=0 time=0
EXTRACT: note_on channel=9 note=36 velocity=0 time=0
EXTRACT: note_on channel=1 note=57 velocity=110 time=0.007440468749999999
EXTRACT: note_on channel=1 note=60 velocity=110 time=0
EXTRACT: note_on channel=6 note=60 velocity=110 time=0
EXTRACT: note_on channel=9 note=38 velocity=110 time=0
EXTRACT: note_on channel=6 note=60 velocity=0 time=0.17113078124999997
EXTRACT: note_on channel=6 note=60 velocity=110 time=0.007440468749999999
EXTRACT: note_on channel=6 note=60 velocity=0 time=0.17113078124999997
EXTRACT: note_on channel=6 note=60 velocity=110 time=0.007440468749999999
EXTRACT: note_on channel=6 note=60 velocity=0 time=0.17113078124999997
EXTRACT: note_on channel=6 note=60 velocity=110 time=0.007440468749999999
EXTRACT: note_on channel=1 note=57 velocity=0 time=0.05952374999999999
EXTRACT: note_on channel=1 note=60 velocity=0 time=0
EXTRACT: note_on channel=9 note=38 velocity=0 time=0
EXTRACT: note_on channel=6 note=60 velocity=0 time=0.11160703124999999
EXTRACT: note_on channel=2 note=64 velocity=60 time=0.007440468749999999
EXTRACT: note_on channel=2 note=67 velocity=60 time=0
EXTRACT: note_on channel=3 note=67 velocity=110 time=0
EXTRACT: note_on channel=4 note=40 velocity=110 time=0
EXTRACT: note_on channel=5 note=40 velocity=110 time=0
EXTRACT: note_on channel=6 note=60 velocity=110 time=0
EXTRACT: note_on channel=9 note=35 velocity=110 time=0
EXTRACT: note_on channel=9 note=36 velocity=110 time=0
EXTRACT: note_on channel=9 note=42 velocity=110 time=0
EXTRACT: note_on channel=2 note=64 velocity=0 time=0.17113078124999997
EXTRACT: note_on channel=2 note=67 velocity=0 time=0
EXTRACT: note_on channel=3 note=67 velocity=0 time=0
EXTRACT: note_on channel=4 note=40 velocity=0 time=0
EXTRACT: note_on channel=5 note=40 velocity=0 time=0
EXTRACT: note_on channel=6 note=60 velocity=0 time=0
EXTRACT: note_on channel=9 note=35 velocity=0 time=0
EXTRACT: note_on channel=9 note=36 velocity=0 time=0
EXTRACT: note_on channel=9 note=42 velocity=0 time=0
EXTRACT: note_on channel=2 note=64 velocity=60 time=0.007440468749999999
EXTRACT: note_on channel=2 note=67 velocity=60 time=0
EXTRACT: note_on channel=3 note=67 velocity=110 time=0
EXTRACT: note_on channel=4 note=40 velocity=110 time=0
EXTRACT: note_on channel=5 note=40 velocity=110 time=0
EXTRACT: note_on channel=6 note=60 velocity=110 time=0
EXTRACT: note_on channel=9 note=42 velocity=110 time=0
EXTRACT: note_on channel=2 note=64 velocity=0 time=0.17113078124999997
EXTRACT: note_on channel=2 note=67 velocity=0 time=0
EXTRACT: note_on channel=3 note=67 velocity=0 time=0
EXTRACT: note_on channel=4 note=40 velocity=0 time=0
EXTRACT: note_on channel=5 note=40 velocity=0 time=0
EXTRACT: note_on channel=6 note=60 velocity=0 time=0
EXTRACT: note_on channel=9 note=42 velocity=0 time=0
EXTRACT: note_on channel=2 note=64 velocity=60 time=0.007440468749999999
EXTRACT: note_on channel=2 note=67 velocity=60 time=0
EXTRACT: note_on channel=3 note=67 velocity=110 time=0
EXTRACT: note_on channel=4 note=40 velocity=110 time=0
EXTRACT: note_on channel=5 note=40 velocity=110 time=0
EXTRACT: note_on channel=6 note=60 velocity=110 time=0
EXTRACT: note_on channel=9 note=38 velocity=110 time=0
EXTRACT: note_on channel=9 note=42 velocity=110 time=0
EXTRACT: note_on channel=2 note=64 velocity=0 time=0.17113078124999997
EXTRACT: note_on channel=2 note=67 velocity=0 time=0
EXTRACT: note_on channel=3 note=67 velocity=0 time=0
EXTRACT: note_on channel=4 note=40 velocity=0 time=0
EXTRACT: note_on channel=5 note=40 velocity=0 time=0
EXTRACT: note_on channel=6 note=60 velocity=0 time=0
EXTRACT: note_on channel=9 note=38 velocity=0 time=0
EXTRACT: note_on channel=9 note=42 velocity=0 time=0
EXTRACT: note_on channel=2 note=64 velocity=60 time=0.007440468749999999
EXTRACT: note_on channel=2 note=67 velocity=60 time=0
EXTRACT: note_on channel=3 note=67 velocity=110 time=0
EXTRACT: note_on channel=4 note=40 velocity=110 time=0
EXTRACT: note_on channel=6 note=60 velocity=110 time=0
EXTRACT: note_on channel=9 note=42 velocity=110 time=0
EXTRACT: note_on channel=2 note=64 velocity=0 time=0.17113078124999997
EXTRACT: note_on channel=2 note=67 velocity=0 time=0
EXTRACT: note_on channel=3 note=67 velocity=0 time=0
EXTRACT: note_on channel=4 note=40 velocity=0 time=0
EXTRACT: note_on channel=6 note=60 velocity=0 time=0
EXTRACT: note_on channel=9 note=42 velocity=0 time=0
EXTRACT: note_on channel=2 note=63 velocity=60 time=0.007440468749999999
EXTRACT: note_on channel=2 note=66 velocity=60 time=0
EXTRACT: note_on channel=3 note=66 velocity=110 time=0
EXTRACT: note_on channel=4 note=47 velocity=110 time=0
EXTRACT: note_on channel=5 note=40 velocity=110 time=0
EXTRACT: note_on channel=6 note=60 velocity=110 time=0
EXTRACT: note_on channel=9 note=55 velocity=110 time=0
EXTRACT: note_on channel=9 note=35 velocity=110 time=0
EXTRACT: note_on channel=9 note=36 velocity=110 time=0
EXTRACT: note_on channel=9 note=42 velocity=110 time=0
EXTRACT: note_on channel=2 note=63 velocity=0 time=0.17113078124999997
EXTRACT: note_on channel=2 note=66 velocity=0 time=0
EXTRACT: note_on channel=3 note=66 velocity=0 time=0
EXTRACT: note_on channel=4 note=47 velocity=0 time=0
EXTRACT: note_on channel=5 note=40 velocity=0 time=0
EXTRACT: note_on channel=6 note=60 velocity=0 time=0
EXTRACT: note_on channel=9 note=35 velocity=0 time=0
EXTRACT: note_on channel=9 note=36 velocity=0 time=0
EXTRACT: note_on channel=9 note=42 velocity=0 time=0
EXTRACT: note_on channel=2 note=63 velocity=60 time=0.007440468749999999
EXTRACT: note_on channel=2 note=66 velocity=60 time=0
EXTRACT: note_on channel=3 note=66 velocity=110 time=0
EXTRACT: note_on channel=4 note=47 velocity=110 time=0
EXTRACT: note_on channel=5 note=40 velocity=110 time=0
EXTRACT: note_on channel=6 note=60 velocity=110 time=0
EXTRACT: note_on channel=9 note=35 velocity=110 time=0
EXTRACT: note_on channel=9 note=36 velocity=110 time=0
EXTRACT: note_on channel=9 note=42 velocity=110 time=0
EXTRACT: note_on channel=2 note=63 velocity=0 time=0.17113078124999997
EXTRACT: note_on channel=2 note=66 velocity=0 time=0
EXTRACT: note_on channel=3 note=66 velocity=0 time=0
EXTRACT: note_on channel=4 note=47 velocity=0 time=0
EXTRACT: note_on channel=5 note=40 velocity=0 time=0
EXTRACT: note_on channel=6 note=60 velocity=0 time=0
EXTRACT: note_on channel=9 note=35 velocity=0 time=0
EXTRACT: note_on channel=9 note=36 velocity=0 time=0
EXTRACT: note_on channel=9 note=42 velocity=0 time=0
EXTRACT: note_on channel=2 note=63 velocity=60 time=0.007440468749999999
EXTRACT: note_on channel=2 note=66 velocity=60 time=0
EXTRACT: note_on channel=3 note=66 velocity=110 time=0
EXTRACT: note_on channel=4 note=47 velocity=110 time=0
EXTRACT: note_on channel=5 note=40 velocity=110 time=0
EXTRACT: note_on channel=6 note=60 velocity=110 time=0
EXTRACT: note_on channel=9 note=38 velocity=110 time=0
EXTRACT: note_on channel=9 note=42 velocity=110 time=0
EXTRACT: note_on channel=4 note=47 velocity=0 time=0.17113078124999997
EXTRACT: note_on channel=5 note=40 velocity=0 time=0
EXTRACT: note_on channel=6 note=60 velocity=0 time=0
EXTRACT: note_on channel=9 note=38 velocity=0 time=0
EXTRACT: note_on channel=9 note=42 velocity=0 time=0
EXTRACT: note_on channel=4 note=47 velocity=110 time=0.007440468749999999
EXTRACT: note_on channel=6 note=60 velocity=110 time=0
EXTRACT: note_on channel=9 note=42 velocity=110 time=0
EXTRACT: note_on channel=9 note=55 velocity=0 time=0.05952374999999999
EXTRACT: note_on channel=2 note=63 velocity=0 time=0.11160703124999999
EXTRACT: note_on channel=2 note=66 velocity=0 time=0
EXTRACT: note_on channel=3 note=66 velocity=0 time=0
EXTRACT: note_on channel=4 note=47 velocity=0 time=0
EXTRACT: note_on channel=6 note=60 velocity=0 time=0
EXTRACT: note_on channel=9 note=42 velocity=0 time=0
EXTRACT: note_on channel=2 note=60 velocity=60 time=0.007440468749999999
EXTRACT: note_on channel=2 note=64 velocity=60 time=0
EXTRACT: note_on channel=3 note=64 velocity=110 time=0
EXTRACT: note_on channel=4 note=48 velocity=110 time=0
EXTRACT: note_on channel=5 note=35 velocity=110 time=0
EXTRACT: note_on channel=6 note=60 velocity=110 time=0
EXTRACT: note_on channel=9 note=35 velocity=110 time=0
EXTRACT: note_on channel=9 note=36 velocity=110 time=0
EXTRACT: note_on channel=9 note=42 velocity=110 time=0
EXTRACT: note_on channel=2 note=60 velocity=0 time=0.17113078124999997
EXTRACT: note_on channel=2 note=64 velocity=0 time=0
EXTRACT: note_on channel=3 note=64 velocity=0 time=0
EXTRACT: note_on channel=4 note=48 velocity=0 time=0
EXTRACT: note_on channel=5 note=35 velocity=0 time=0
EXTRACT: note_on channel=6 note=60 velocity=0 time=0
EXTRACT: note_on channel=9 note=35 velocity=0 time=0
EXTRACT: note_on channel=9 note=36 velocity=0 time=0
EXTRACT: note_on channel=9 note=42 velocity=0 time=0
EXTRACT: note_on channel=2 note=60 velocity=60 time=0.007440468749999999
EXTRACT: note_on channel=2 note=64 velocity=60 time=0
EXTRACT: note_on channel=3 note=64 velocity=110 time=0
EXTRACT: note_on channel=4 note=48 velocity=110 time=0
EXTRACT: note_on channel=5 note=35 velocity=110 time=0
EXTRACT: note_on channel=6 note=60 velocity=110 time=0
EXTRACT: note_on channel=9 note=42 velocity=110 time=0
EXTRACT: note_on channel=2 note=60 velocity=0 time=0.17113078124999997
EXTRACT: note_on channel=2 note=64 velocity=0 time=0
EXTRACT: note_on channel=3 note=64 velocity=0 time=0
EXTRACT: note_on channel=4 note=48 velocity=0 time=0
EXTRACT: note_on channel=5 note=35 velocity=0 time=0
EXTRACT: note_on channel=6 note=60 velocity=0 time=0
EXTRACT: note_on channel=9 note=42 velocity=0 time=0
EXTRACT: note_on channel=2 note=60 velocity=60 time=0.007440468749999999
EXTRACT: note_on channel=2 note=64 velocity=60 time=0
EXTRACT: note_on channel=3 note=64 velocity=110 time=0
EXTRACT: note_on channel=4 note=48 velocity=110 time=0
EXTRACT: note_on channel=5 note=35 velocity=110 time=0
EXTRACT: note_on channel=6 note=60 velocity=110 time=0
EXTRACT: note_on channel=9 note=38 velocity=110 time=0
EXTRACT: note_on channel=9 note=42 velocity=110 time=0
EXTRACT: note_on channel=5 note=35 velocity=0 time=0.17113078124999997
EXTRACT: note_on channel=6 note=60 velocity=0 time=0
EXTRACT: note_on channel=9 note=38 velocity=0 time=0
EXTRACT: note_on channel=9 note=42 velocity=0 time=0
EXTRACT: note_on channel=6 note=60 velocity=110 time=0.007440468749999999
EXTRACT: note_on channel=9 note=42 velocity=110 time=0
EXTRACT: note_on channel=2 note=60 velocity=0 time=0.17113078124999997
EXTRACT: note_on channel=2 note=64 velocity=0 time=0
EXTRACT: note_on channel=3 note=64 velocity=0 time=0
EXTRACT: note_on channel=4 note=48 velocity=0 time=0
EXTRACT: note_on channel=6 note=60 velocity=0 time=0
EXTRACT: note_on channel=9 note=42 velocity=0 time=0
EXTRACT: note_on channel=2 note=60 velocity=60 time=0.007440468749999999
EXTRACT: note_on channel=2 note=64 velocity=60 time=0
EXTRACT: note_on channel=3 note=64 velocity=110 time=0
EXTRACT: note_on channel=4 note=48 velocity=110 time=0
EXTRACT: note_on channel=5 note=35 velocity=110 time=0
EXTRACT: note_on channel=6 note=60 velocity=110 time=0
EXTRACT: note_on channel=9 note=55 velocity=110 time=0
EXTRACT: note_on channel=9 note=35 velocity=110 time=0
EXTRACT: note_on channel=9 note=36 velocity=110 time=0
EXTRACT: note_on channel=9 note=42 velocity=110 time=0
EXTRACT: note_on channel=4 note=48 velocity=0 time=0.17113078124999997
EXTRACT: note_on channel=5 note=35 velocity=0 time=0
EXTRACT: note_on channel=6 note=60 velocity=0 time=0
EXTRACT: note_on channel=9 note=35 velocity=0 time=0
EXTRACT: note_on channel=9 note=36 velocity=0 time=0
EXTRACT: note_on channel=9 note=42 velocity=0 time=0
EXTRACT: note_on channel=4 note=48 velocity=110 time=0.007440468749999999
EXTRACT: note_on channel=5 note=35 velocity=110 time=0
EXTRACT: note_on channel=6 note=60 velocity=110 time=0
EXTRACT: note_on channel=9 note=35 velocity=110 time=0
EXTRACT: note_on channel=9 note=36 velocity=110 time=0
EXTRACT: note_on channel=9 note=42 velocity=110 time=0
EXTRACT: note_on channel=2 note=60 velocity=0 time=0.17113078124999997
EXTRACT: note_on channel=2 note=64 velocity=0 time=0
EXTRACT: note_on channel=3 note=64 velocity=0 time=0
EXTRACT: note_on channel=4 note=48 velocity=0 time=0
EXTRACT: note_on channel=5 note=35 velocity=0 time=0
EXTRACT: note_on channel=6 note=60 velocity=0 time=0
EXTRACT: note_on channel=9 note=35 velocity=0 time=0
EXTRACT: note_on channel=9 note=36 velocity=0 time=0
EXTRACT: note_on channel=9 note=42 velocity=0 time=0
EXTRACT: note_on channel=2 note=59 velocity=60 time=0.007440468749999999
EXTRACT: note_on channel=2 note=63 velocity=60 time=0
EXTRACT: note_on channel=3 note=62 velocity=110 time=0
EXTRACT: note_on channel=4 note=48 velocity=110 time=0
EXTRACT: note_on channel=5 note=35 velocity=110 time=0
EXTRACT: note_on channel=6 note=60 velocity=110 time=0
EXTRACT: note_on channel=9 note=38 velocity=110 time=0
EXTRACT: note_on channel=9 note=42 velocity=110 time=0
EXTRACT: note_on channel=5 note=35 velocity=0 time=0.17113078124999997
EXTRACT: note_on channel=6 note=60 velocity=0 time=0
EXTRACT: note_on channel=9 note=38 velocity=0 time=0
EXTRACT: note_on channel=9 note=42 velocity=0 time=0
EXTRACT: note_on channel=6 note=60 velocity=110 time=0.007440468749999999
EXTRACT: note_on channel=9 note=42 velocity=110 time=0
EXTRACT: note_on channel=9 note=55 velocity=0 time=0.05952374999999999
EXTRACT: note_on channel=2 note=59 velocity=0 time=0.11160703124999999
EXTRACT: note_on channel=2 note=63 velocity=0 time=0
EXTRACT: note_on channel=3 note=62 velocity=0 time=0
EXTRACT: note_on channel=4 note=48 velocity=0 time=0
EXTRACT: note_on channel=6 note=60 velocity=0 time=0
EXTRACT: note_on channel=9 note=42 velocity=0 time=0
EXTRACT: note_on channel=4 note=40 velocity=110 time=0.007440468749999999
EXTRACT: note_on channel=5 note=40 velocity=110 time=0
EXTRACT: note_on channel=6 note=60 velocity=110 time=0
EXTRACT: note_on channel=9 note=35 velocity=110 time=0
EXTRACT: note_on channel=9 note=36 velocity=110 time=0
EXTRACT: note_on channel=9 note=42 velocity=110 time=0
EXTRACT: note_on channel=4 note=40 velocity=0 time=0.17113078124999997
EXTRACT: note_on channel=5 note=40 velocity=0 time=0
EXTRACT: note_on channel=6 note=60 velocity=0 time=0
EXTRACT: note_on channel=9 note=35 velocity=0 time=0
EXTRACT: note_on channel=9 note=36 velocity=0 time=0
EXTRACT: note_on channel=9 note=42 velocity=0 time=0
EXTRACT: note_on channel=4 note=40 velocity=110 time=0.007440468749999999
EXTRACT: note_on channel=5 note=40 velocity=110 time=0
EXTRACT: note_on channel=6 note=60 velocity=110 time=0
EXTRACT: note_on channel=9 note=42 velocity=110 time=0
EXTRACT: note_on channel=4 note=40 velocity=0 time=0.17113078124999997
EXTRACT: note_on channel=5 note=40 velocity=0 time=0
EXTRACT: note_on channel=6 note=60 velocity=0 time=0
EXTRACT: note_on channel=9 note=42 velocity=0 time=0
EXTRACT: note_on channel=4 note=40 velocity=110 time=0.007440468749999999
EXTRACT: note_on channel=5 note=40 velocity=110 time=0
EXTRACT: note_on channel=6 note=60 velocity=110 time=0
EXTRACT: note_on channel=9 note=38 velocity=110 time=0
EXTRACT: note_on channel=9 note=42 velocity=110 time=0
EXTRACT: note_on channel=4 note=40 velocity=0 time=0.17113078124999997
EXTRACT: note_on channel=5 note=40 velocity=0 time=0
EXTRACT: note_on channel=6 note=60 velocity=0 time=0
EXTRACT: note_on channel=9 note=38 velocity=0 time=0
EXTRACT: note_on channel=9 note=42 velocity=0 time=0
EXTRACT: note_on channel=4 note=40 velocity=110 time=0.007440468749999999
EXTRACT: note_on channel=5 note=40 velocity=110 time=0
EXTRACT: note_on channel=6 note=60 velocity=110 time=0
EXTRACT: note_on channel=9 note=42 velocity=110 time=0
EXTRACT: note_on channel=4 note=40 velocity=0 time=0.17113078124999997
EXTRACT: note_on channel=5 note=40 velocity=0 time=0
EXTRACT: note_on channel=6 note=60 velocity=0 time=0
EXTRACT: note_on channel=9 note=42 velocity=0 time=0
EXTRACT: note_on channel=4 note=48 velocity=110 time=0.007440468749999999
EXTRACT: note_on channel=5 note=40 velocity=110 time=0
EXTRACT: note_on channel=6 note=60 velocity=110 time=0
EXTRACT: note_on channel=9 note=55 velocity=110 time=0
EXTRACT: note_on channel=9 note=35 velocity=110 time=0
EXTRACT: note_on channel=9 note=36 velocity=110 time=0
EXTRACT: note_on channel=9 note=42 velocity=110 time=0
EXTRACT: note_on channel=4 note=48 velocity=0 time=0.17113078124999997
EXTRACT: note_on channel=5 note=40 velocity=0 time=0
EXTRACT: note_on channel=6 note=60 velocity=0 time=0
EXTRACT: note_on channel=9 note=35 velocity=0 time=0
EXTRACT: note_on channel=9 note=36 velocity=0 time=0
EXTRACT: note_on channel=9 note=42 velocity=0 time=0
EXTRACT: note_on channel=4 note=48 velocity=110 time=0.007440468749999999
EXTRACT: note_on channel=5 note=40 velocity=110 time=0
EXTRACT: note_on channel=6 note=60 velocity=110 time=0
EXTRACT: note_on channel=9 note=35 velocity=110 time=0
EXTRACT: note_on channel=9 note=36 velocity=110 time=0
EXTRACT: note_on channel=9 note=42 velocity=110 time=0
EXTRACT: note_on channel=4 note=48 velocity=0 time=0.17113078124999997
EXTRACT: note_on channel=5 note=40 velocity=0 time=0
EXTRACT: note_on channel=6 note=60 velocity=0 time=0
EXTRACT: note_on channel=9 note=35 velocity=0 time=0
EXTRACT: note_on channel=9 note=36 velocity=0 time=0
EXTRACT: note_on channel=9 note=42 velocity=0 time=0
EXTRACT: note_on channel=4 note=48 velocity=110 time=0.007440468749999999
EXTRACT: note_on channel=5 note=40 velocity=110 time=0
EXTRACT: note_on channel=6 note=60 velocity=110 time=0
EXTRACT: note_on channel=9 note=38 velocity=110 time=0
EXTRACT: note_on channel=9 note=42 velocity=110 time=0
EXTRACT: note_on channel=4 note=48 velocity=0 time=0.17113078124999997
EXTRACT: note_on channel=5 note=40 velocity=0 time=0
EXTRACT: note_on channel=6 note=60 velocity=0 time=0
EXTRACT: note_on channel=9 note=38 velocity=0 time=0
EXTRACT: note_on channel=9 note=42 velocity=0 time=0
EXTRACT: note_on channel=4 note=48 velocity=110 time=0.007440468749999999
EXTRACT: note_on channel=5 note=40 velocity=110 time=0
EXTRACT: note_on channel=6 note=60 velocity=110 time=0
EXTRACT: note_on channel=9 note=42 velocity=110 time=0
EXTRACT: note_on channel=9 note=55 velocity=0 time=0.05952374999999999
EXTRACT: note_on channel=4 note=48 velocity=0 time=0.11160703124999999
EXTRACT: note_on channel=5 note=40 velocity=0 time=0
EXTRACT: note_on channel=6 note=60 velocity=0 time=0
EXTRACT: note_on channel=9 note=42 velocity=0 time=0
EXTRACT: note_on channel=4 note=47 velocity=110 time=0.007440468749999999
EXTRACT: note_on channel=5 note=39 velocity=110 time=0
EXTRACT: note_on channel=6 note=60 velocity=110 time=0
EXTRACT: note_on channel=9 note=35 velocity=110 time=0
EXTRACT: note_on channel=9 note=36 velocity=110 time=0
EXTRACT: note_on channel=9 note=42 velocity=110 time=0
EXTRACT: note_on channel=5 note=39 velocity=0 time=0.17113078124999997
EXTRACT: note_on channel=6 note=60 velocity=0 time=0
EXTRACT: note_on channel=9 note=35 velocity=0 time=0
EXTRACT: note_on channel=9 note=36 velocity=0 time=0
EXTRACT: note_on channel=9 note=42 velocity=0 time=0
EXTRACT: note_on channel=5 note=39 velocity=110 time=0.007440468749999999
EXTRACT: note_on channel=6 note=60 velocity=110 time=0
EXTRACT: note_on channel=9 note=42 velocity=110 time=0
EXTRACT: note_on channel=5 note=39 velocity=0 time=0.17113078124999997
EXTRACT: note_on channel=6 note=60 velocity=0 time=0
EXTRACT: note_on channel=9 note=42 velocity=0 time=0
EXTRACT: note_on channel=3 note=64 velocity=110 time=0.007440468749999999
EXTRACT: note_on channel=3 note=67 velocity=110 time=0
EXTRACT: note_on channel=5 note=39 velocity=110 time=0
EXTRACT: note_on channel=6 note=60 velocity=110 time=0
EXTRACT: note_on channel=9 note=38 velocity=110 time=0
EXTRACT: note_on channel=9 note=42 velocity=110 time=0
EXTRACT: note_on channel=5 note=39 velocity=0 time=0.17113078124999997
EXTRACT: note_on channel=6 note=60 velocity=0 time=0
EXTRACT: note_on channel=9 note=38 velocity=0 time=0
EXTRACT: note_on channel=9 note=42 velocity=0 time=0
EXTRACT: note_on channel=5 note=39 velocity=110 time=0.007440468749999999
EXTRACT: note_on channel=6 note=60 velocity=110 time=0
EXTRACT: note_on channel=9 note=42 velocity=110 time=0
EXTRACT: note_on channel=3 note=64 velocity=0 time=0.17113078124999997
EXTRACT: note_on channel=3 note=67 velocity=0 time=0
EXTRACT: note_on channel=5 note=39 velocity=0 time=0
EXTRACT: note_on channel=6 note=60 velocity=0 time=0
EXTRACT: note_on channel=9 note=42 velocity=0 time=0
EXTRACT: note_on channel=3 note=63 velocity=110 time=0.007440468749999999
EXTRACT: note_on channel=3 note=66 velocity=110 time=0
EXTRACT: note_on channel=5 note=39 velocity=110 time=0
EXTRACT: note_on channel=6 note=60 velocity=110 time=0
EXTRACT: note_on channel=9 note=55 velocity=110 time=0
EXTRACT: note_on channel=9 note=35 velocity=110 time=0
EXTRACT: note_on channel=9 note=36 velocity=110 time=0
EXTRACT: note_on channel=9 note=42 velocity=110 time=0
EXTRACT: note_on channel=5 note=39 velocity=0 time=0.17113078124999997
EXTRACT: note_on channel=6 note=60 velocity=0 time=0
EXTRACT: note_on channel=9 note=35 velocity=0 time=0
EXTRACT: note_on channel=9 note=36 velocity=0 time=0
EXTRACT: note_on channel=9 note=42 velocity=0 time=0
EXTRACT: note_on channel=5 note=39 velocity=110 time=0.007440468749999999
EXTRACT: note_on channel=6 note=60 velocity=110 time=0
EXTRACT: note_on channel=9 note=35 velocity=110 time=0
EXTRACT: note_on channel=9 note=36 velocity=110 time=0
EXTRACT: note_on channel=9 note=42 velocity=110 time=0
EXTRACT: note_on channel=3 note=63 velocity=0 time=0.17113078124999997
EXTRACT: note_on channel=3 note=66 velocity=0 time=0
EXTRACT: note_on channel=5 note=39 velocity=0 time=0
EXTRACT: note_on channel=6 note=60 velocity=0 time=0
EXTRACT: note_on channel=9 note=35 velocity=0 time=0
EXTRACT: note_on channel=9 note=36 velocity=0 time=0
EXTRACT: note_on channel=9 note=42 velocity=0 time=0
EXTRACT: note_on channel=5 note=39 velocity=110 time=0.007440468749999999
EXTRACT: note_on channel=6 note=60 velocity=110 time=0
EXTRACT: note_on channel=9 note=38 velocity=110 time=0
EXTRACT: note_on channel=9 note=42 velocity=110 time=0
EXTRACT: note_on channel=5 note=39 velocity=0 time=0.17113078124999997
EXTRACT: note_on channel=6 note=60 velocity=0 time=0
EXTRACT: note_on channel=9 note=38 velocity=0 time=0
EXTRACT: note_on channel=9 note=42 velocity=0 time=0
EXTRACT: note_on channel=4 note=47 velocity=0 time=0.007440468749999999
EXTRACT: note_on channel=6 note=60 velocity=110 time=0
EXTRACT: note_on channel=9 note=42 velocity=110 time=0
EXTRACT: note_on channel=9 note=55 velocity=0 time=0.05952374999999999
EXTRACT: note_on channel=6 note=60 velocity=0 time=0.11160703124999999
EXTRACT: note_on channel=9 note=42 velocity=0 time=0
EXTRACT: note_on channel=2 note=64 velocity=60 time=0.007440468749999999
EXTRACT: note_on channel=2 note=67 velocity=60 time=0
EXTRACT: note_on channel=3 note=67 velocity=110 time=0
EXTRACT: note_on channel=4 note=40 velocity=110 time=0
EXTRACT: note_on channel=5 note=40 velocity=110 time=0
EXTRACT: note_on channel=6 note=60 velocity=110 time=0
EXTRACT: note_on channel=9 note=35 velocity=110 time=0
EXTRACT: note_on channel=9 note=36 velocity=110 time=0
EXTRACT: note_on channel=9 note=42 velocity=110 time=0
EXTRACT: note_on channel=2 note=64 velocity=0 time=0.17113078124999997
EXTRACT: note_on channel=2 note=67 velocity=0 time=0
EXTRACT: note_on channel=3 note=67 velocity=0 time=0
EXTRACT: note_on channel=4 note=40 velocity=0 time=0
EXTRACT: note_on channel=5 note=40 velocity=0 time=0
EXTRACT: note_on channel=6 note=60 velocity=0 time=0
EXTRACT: note_on channel=9 note=35 velocity=0 time=0
EXTRACT: note_on channel=9 note=36 velocity=0 time=0
EXTRACT: note_on channel=9 note=42 velocity=0 time=0
EXTRACT: note_on channel=2 note=64 velocity=60 time=0.007440468749999999
EXTRACT: note_on channel=2 note=67 velocity=60 time=0
EXTRACT: note_on channel=3 note=67 velocity=110 time=0
EXTRACT: note_on channel=4 note=40 velocity=110 time=0
EXTRACT: note_on channel=5 note=40 velocity=110 time=0
EXTRACT: note_on channel=6 note=60 velocity=110 time=0
EXTRACT: note_on channel=9 note=42 velocity=110 time=0
EXTRACT: note_on channel=2 note=64 velocity=0 time=0.17113078124999997
EXTRACT: note_on channel=2 note=67 velocity=0 time=0
EXTRACT: note_on channel=3 note=67 velocity=0 time=0
EXTRACT: note_on channel=4 note=40 velocity=0 time=0
EXTRACT: note_on channel=5 note=40 velocity=0 time=0
EXTRACT: note_on channel=6 note=60 velocity=0 time=0
EXTRACT: note_on channel=9 note=42 velocity=0 time=0
EXTRACT: note_on channel=2 note=64 velocity=60 time=0.007440468749999999
EXTRACT: note_on channel=2 note=67 velocity=60 time=0
EXTRACT: note_on channel=3 note=67 velocity=110 time=0
EXTRACT: note_on channel=4 note=40 velocity=110 time=0
EXTRACT: note_on channel=5 note=40 velocity=110 time=0
EXTRACT: note_on channel=6 note=60 velocity=110 time=0
EXTRACT: note_on channel=9 note=38 velocity=110 time=0
EXTRACT: note_on channel=9 note=42 velocity=110 time=0
EXTRACT: note_on channel=2 note=64 velocity=0 time=0.17113078124999997
EXTRACT: note_on channel=2 note=67 velocity=0 time=0
EXTRACT: note_on channel=3 note=67 velocity=0 time=0
EXTRACT: note_on channel=4 note=40 velocity=0 time=0
EXTRACT: note_on channel=5 note=40 velocity=0 time=0
EXTRACT: note_on channel=6 note=60 velocity=0 time=0
EXTRACT: note_on channel=9 note=38 velocity=0 time=0
EXTRACT: note_on channel=9 note=42 velocity=0 time=0
EXTRACT: note_on channel=2 note=64 velocity=60 time=0.007440468749999999
EXTRACT: note_on channel=2 note=67 velocity=60 time=0
EXTRACT: note_on channel=3 note=67 velocity=110 time=0
EXTRACT: note_on channel=4 note=40 velocity=110 time=0
EXTRACT: note_on channel=6 note=60 velocity=110 time=0
EXTRACT: note_on channel=9 note=42 velocity=110 time=0
EXTRACT: note_on channel=2 note=64 velocity=0 time=0.17113078124999997
EXTRACT: note_on channel=2 note=67 velocity=0 time=0
EXTRACT: note_on channel=3 note=67 velocity=0 time=0
EXTRACT: note_on channel=4 note=40 velocity=0 time=0
EXTRACT: note_on channel=6 note=60 velocity=0 time=0
EXTRACT: note_on channel=9 note=42 velocity=0 time=0
EXTRACT: note_on channel=2 note=63 velocity=60 time=0.007440468749999999
EXTRACT: note_on channel=2 note=66 velocity=60 time=0
EXTRACT: note_on channel=3 note=66 velocity=110 time=0
EXTRACT: note_on channel=4 note=47 velocity=110 time=0
EXTRACT: note_on channel=5 note=40 velocity=110 time=0
EXTRACT: note_on channel=6 note=60 velocity=110 time=0
EXTRACT: note_on channel=9 note=55 velocity=110 time=0
EXTRACT: note_on channel=9 note=35 velocity=110 time=0
EXTRACT: note_on channel=9 note=36 velocity=110 time=0
EXTRACT: note_on channel=9 note=42 velocity=110 time=0
EXTRACT: note_on channel=2 note=63 velocity=0 time=0.17113078124999997
EXTRACT: note_on channel=2 note=66 velocity=0 time=0
EXTRACT: note_on channel=3 note=66 velocity=0 time=0
EXTRACT: note_on channel=4 note=47 velocity=0 time=0
EXTRACT: note_on channel=5 note=40 velocity=0 time=0
EXTRACT: note_on channel=6 note=60 velocity=0 time=0
EXTRACT: note_on channel=9 note=35 velocity=0 time=0
EXTRACT: note_on channel=9 note=36 velocity=0 time=0
EXTRACT: note_on channel=9 note=42 velocity=0 time=0
EXTRACT: note_on channel=2 note=63 velocity=60 time=0.007440468749999999
EXTRACT: note_on channel=2 note=66 velocity=60 time=0
EXTRACT: note_on channel=3 note=66 velocity=110 time=0
EXTRACT: note_on channel=4 note=47 velocity=110 time=0
EXTRACT: note_on channel=5 note=40 velocity=110 time=0
EXTRACT: note_on channel=6 note=60 velocity=110 time=0
EXTRACT: note_on channel=9 note=35 velocity=110 time=0
EXTRACT: note_on channel=9 note=36 velocity=110 time=0
EXTRACT: note_on channel=9 note=42 velocity=110 time=0
EXTRACT: note_on channel=2 note=63 velocity=0 time=0.17113078124999997
EXTRACT: note_on channel=2 note=66 velocity=0 time=0
EXTRACT: note_on channel=3 note=66 velocity=0 time=0
EXTRACT: note_on channel=4 note=47 velocity=0 time=0
EXTRACT: note_on channel=5 note=40 velocity=0 time=0
EXTRACT: note_on channel=6 note=60 velocity=0 time=0
EXTRACT: note_on channel=9 note=35 velocity=0 time=0
EXTRACT: note_on channel=9 note=36 velocity=0 time=0
EXTRACT: note_on channel=9 note=42 velocity=0 time=0
EXTRACT: note_on channel=2 note=63 velocity=60 time=0.007440468749999999
EXTRACT: note_on channel=2 note=66 velocity=60 time=0
EXTRACT: note_on channel=3 note=66 velocity=110 time=0
EXTRACT: note_on channel=4 note=47 velocity=110 time=0
EXTRACT: note_on channel=5 note=40 velocity=110 time=0
EXTRACT: note_on channel=6 note=60 velocity=110 time=0
EXTRACT: note_on channel=9 note=38 velocity=110 time=0
EXTRACT: note_on channel=9 note=42 velocity=110 time=0
EXTRACT: note_on channel=4 note=47 velocity=0 time=0.17113078124999997
EXTRACT: note_on channel=5 note=40 velocity=0 time=0
EXTRACT: note_on channel=6 note=60 velocity=0 time=0
EXTRACT: note_on channel=9 note=38 velocity=0 time=0
EXTRACT: note_on channel=9 note=42 velocity=0 time=0
EXTRACT: note_on channel=4 note=47 velocity=110 time=0.007440468749999999
EXTRACT: note_on channel=6 note=60 velocity=110 time=0
EXTRACT: note_on channel=9 note=42 velocity=110 time=0
EXTRACT: note_on channel=9 note=55 velocity=0 time=0.05952374999999999
EXTRACT: note_on channel=2 note=63 velocity=0 time=0.11160703124999999
EXTRACT: note_on channel=2 note=66 velocity=0 time=0
EXTRACT: note_on channel=3 note=66 velocity=0 time=0
EXTRACT: note_on channel=4 note=47 velocity=0 time=0
EXTRACT: note_on channel=6 note=60 velocity=0 time=0
EXTRACT: note_on channel=9 note=42 velocity=0 time=0
EXTRACT: note_on channel=2 note=60 velocity=60 time=0.007440468749999999
EXTRACT: note_on channel=2 note=64 velocity=60 time=0
EXTRACT: note_on channel=3 note=64 velocity=110 time=0
EXTRACT: note_on channel=4 note=48 velocity=110 time=0
EXTRACT: note_on channel=5 note=35 velocity=110 time=0
EXTRACT: note_on channel=6 note=60 velocity=110 time=0
EXTRACT: note_on channel=9 note=35 velocity=110 time=0
EXTRACT: note_on channel=9 note=36 velocity=110 time=0
EXTRACT: note_on channel=9 note=42 velocity=110 time=0
EXTRACT: note_on channel=2 note=60 velocity=0 time=0.17113078124999997
EXTRACT: note_on channel=2 note=64 velocity=0 time=0
EXTRACT: note_on channel=3 note=64 velocity=0 time=0
EXTRACT: note_on channel=4 note=48 velocity=0 time=0
EXTRACT: note_on channel=5 note=35 velocity=0 time=0
EXTRACT: note_on channel=6 note=60 velocity=0 time=0
EXTRACT: note_on channel=9 note=35 velocity=0 time=0
EXTRACT: note_on channel=9 note=36 velocity=0 time=0
EXTRACT: note_on channel=9 note=42 velocity=0 time=0
EXTRACT: note_on channel=2 note=60 velocity=60 time=0.007440468749999999
EXTRACT: note_on channel=2 note=64 velocity=60 time=0
EXTRACT: note_on channel=3 note=64 velocity=110 time=0
EXTRACT: note_on channel=4 note=48 velocity=110 time=0
EXTRACT: note_on channel=5 note=35 velocity=110 time=0
EXTRACT: note_on channel=6 note=60 velocity=110 time=0
EXTRACT: note_on channel=9 note=42 velocity=110 time=0
EXTRACT: note_on channel=2 note=60 velocity=0 time=0.17113078124999997
EXTRACT: note_on channel=2 note=64 velocity=0 time=0
EXTRACT: note_on channel=3 note=64 velocity=0 time=0
EXTRACT: note_on channel=4 note=48 velocity=0 time=0
EXTRACT: note_on channel=5 note=35 velocity=0 time=0
EXTRACT: note_on channel=6 note=60 velocity=0 time=0
EXTRACT: note_on channel=9 note=42 velocity=0 time=0
EXTRACT: note_on channel=2 note=60 velocity=60 time=0.007440468749999999
EXTRACT: note_on channel=2 note=64 velocity=60 time=0
EXTRACT: note_on channel=3 note=64 velocity=110 time=0
EXTRACT: note_on channel=4 note=48 velocity=110 time=0
EXTRACT: note_on channel=5 note=35 velocity=110 time=0
EXTRACT: note_on channel=6 note=60 velocity=110 time=0
EXTRACT: note_on channel=9 note=38 velocity=110 time=0
EXTRACT: note_on channel=9 note=42 velocity=110 time=0
EXTRACT: note_on channel=5 note=35 velocity=0 time=0.17113078124999997
EXTRACT: note_on channel=6 note=60 velocity=0 time=0
EXTRACT: note_on channel=9 note=38 velocity=0 time=0
EXTRACT: note_on channel=9 note=42 velocity=0 time=0
EXTRACT: note_on channel=6 note=60 velocity=110 time=0.007440468749999999
EXTRACT: note_on channel=9 note=42 velocity=110 time=0
EXTRACT: note_on channel=2 note=60 velocity=0 time=0.17113078124999997
EXTRACT: note_on channel=2 note=64 velocity=0 time=0
EXTRACT: note_on channel=3 note=64 velocity=0 time=0
EXTRACT: note_on channel=4 note=48 velocity=0 time=0
EXTRACT: note_on channel=6 note=60 velocity=0 time=0
EXTRACT: note_on channel=9 note=42 velocity=0 time=0
EXTRACT: note_on channel=2 note=60 velocity=60 time=0.007440468749999999
EXTRACT: note_on channel=2 note=64 velocity=60 time=0
EXTRACT: note_on channel=3 note=64 velocity=110 time=0
EXTRACT: note_on channel=4 note=48 velocity=110 time=0
EXTRACT: note_on channel=5 note=35 velocity=110 time=0
EXTRACT: note_on channel=6 note=60 velocity=110 time=0
EXTRACT: note_on channel=9 note=55 velocity=110 time=0
EXTRACT: note_on channel=9 note=35 velocity=110 time=0
EXTRACT: note_on channel=9 note=36 velocity=110 time=0
EXTRACT: note_on channel=9 note=42 velocity=110 time=0
EXTRACT: note_on channel=4 note=48 velocity=0 time=0.17113078124999997
EXTRACT: note_on channel=5 note=35 velocity=0 time=0
EXTRACT: note_on channel=6 note=60 velocity=0 time=0
EXTRACT: note_on channel=9 note=35 velocity=0 time=0
EXTRACT: note_on channel=9 note=36 velocity=0 time=0
EXTRACT: note_on channel=9 note=42 velocity=0 time=0
EXTRACT: note_on channel=4 note=48 velocity=110 time=0.007440468749999999
EXTRACT: note_on channel=5 note=35 velocity=110 time=0
EXTRACT: note_on channel=6 note=60 velocity=110 time=0
EXTRACT: note_on channel=9 note=35 velocity=110 time=0
EXTRACT: note_on channel=9 note=36 velocity=110 time=0
EXTRACT: note_on channel=9 note=42 velocity=110 time=0
EXTRACT: note_on channel=2 note=60 velocity=0 time=0.17113078124999997
EXTRACT: note_on channel=2 note=64 velocity=0 time=0
EXTRACT: note_on channel=3 note=64 velocity=0 time=0
EXTRACT: note_on channel=4 note=48 velocity=0 time=0
EXTRACT: note_on channel=5 note=35 velocity=0 time=0
EXTRACT: note_on channel=6 note=60 velocity=0 time=0
EXTRACT: note_on channel=9 note=35 velocity=0 time=0
EXTRACT: note_on channel=9 note=36 velocity=0 time=0
EXTRACT: note_on channel=9 note=42 velocity=0 time=0
EXTRACT: note_on channel=2 note=59 velocity=60 time=0.007440468749999999
EXTRACT: note_on channel=2 note=63 velocity=60 time=0
EXTRACT: note_on channel=3 note=62 velocity=110 time=0
EXTRACT: note_on channel=4 note=48 velocity=110 time=0
EXTRACT: note_on channel=5 note=35 velocity=110 time=0
EXTRACT: note_on channel=6 note=60 velocity=110 time=0
EXTRACT: note_on channel=9 note=38 velocity=110 time=0
EXTRACT: note_on channel=9 note=42 velocity=110 time=0
EXTRACT: note_on channel=5 note=35 velocity=0 time=0.17113078124999997
EXTRACT: note_on channel=6 note=60 velocity=0 time=0
EXTRACT: note_on channel=9 note=38 velocity=0 time=0
EXTRACT: note_on channel=9 note=42 velocity=0 time=0
EXTRACT: note_on channel=6 note=60 velocity=110 time=0.007440468749999999
EXTRACT: note_on channel=9 note=42 velocity=110 time=0
EXTRACT: note_on channel=9 note=55 velocity=0 time=0.05952374999999999
EXTRACT: note_on channel=2 note=59 velocity=0 time=0.11160703124999999
EXTRACT: note_on channel=2 note=63 velocity=0 time=0
EXTRACT: note_on channel=3 note=62 velocity=0 time=0
EXTRACT: note_on channel=4 note=48 velocity=0 time=0
EXTRACT: note_on channel=6 note=60 velocity=0 time=0
EXTRACT: note_on channel=9 note=42 velocity=0 time=0
EXTRACT: note_on channel=4 note=40 velocity=110 time=0.007440468749999999
EXTRACT: note_on channel=5 note=40 velocity=110 time=0
EXTRACT: note_on channel=6 note=60 velocity=110 time=0
EXTRACT: note_on channel=9 note=35 velocity=110 time=0
EXTRACT: note_on channel=9 note=36 velocity=110 time=0
EXTRACT: note_on channel=9 note=42 velocity=110 time=0
EXTRACT: note_on channel=4 note=40 velocity=0 time=0.17113078124999997
EXTRACT: note_on channel=5 note=40 velocity=0 time=0
EXTRACT: note_on channel=6 note=60 velocity=0 time=0
EXTRACT: note_on channel=9 note=35 velocity=0 time=0
EXTRACT: note_on channel=9 note=36 velocity=0 time=0
EXTRACT: note_on channel=9 note=42 velocity=0 time=0
EXTRACT: note_on channel=4 note=40 velocity=110 time=0.007440468749999999
EXTRACT: note_on channel=5 note=40 velocity=110 time=0
EXTRACT: note_on channel=6 note=60 velocity=110 time=0
EXTRACT: note_on channel=9 note=42 velocity=110 time=0
EXTRACT: note_on channel=4 note=40 velocity=0 time=0.17113078124999997
EXTRACT: note_on channel=5 note=40 velocity=0 time=0
EXTRACT: note_on channel=6 note=60 velocity=0 time=0
EXTRACT: note_on channel=9 note=42 velocity=0 time=0
EXTRACT: note_on channel=4 note=40 velocity=110 time=0.007440468749999999
EXTRACT: note_on channel=5 note=40 velocity=110 time=0
EXTRACT: note_on channel=6 note=60 velocity=110 time=0
EXTRACT: note_on channel=9 note=38 velocity=110 time=0
EXTRACT: note_on channel=9 note=42 velocity=110 time=0
EXTRACT: note_on channel=4 note=40 velocity=0 time=0.17113078124999997
EXTRACT: note_on channel=5 note=40 velocity=0 time=0
EXTRACT: note_on channel=6 note=60 velocity=0 time=0
EXTRACT: note_on channel=9 note=38 velocity=0 time=0
EXTRACT: note_on channel=9 note=42 velocity=0 time=0
EXTRACT: note_on channel=4 note=40 velocity=110 time=0.007440468749999999
EXTRACT: note_on channel=5 note=40 velocity=110 time=0
EXTRACT: note_on channel=6 note=60 velocity=110 time=0
EXTRACT: note_on channel=9 note=42 velocity=110 time=0
EXTRACT: note_on channel=4 note=40 velocity=0 time=0.17113078124999997
EXTRACT: note_on channel=5 note=40 velocity=0 time=0
EXTRACT: note_on channel=6 note=60 velocity=0 time=0
EXTRACT: note_on channel=9 note=42 velocity=0 time=0
EXTRACT: note_on channel=4 note=48 velocity=110 time=0.007440468749999999
EXTRACT: note_on channel=5 note=40 velocity=110 time=0
EXTRACT: note_on channel=6 note=60 velocity=110 time=0
EXTRACT: note_on channel=9 note=55 velocity=110 time=0
EXTRACT: note_on channel=9 note=35 velocity=110 time=0
EXTRACT: note_on channel=9 note=36 velocity=110 time=0
EXTRACT: note_on channel=9 note=42 velocity=110 time=0
EXTRACT: note_on channel=4 note=48 velocity=0 time=0.17113078124999997
EXTRACT: note_on channel=5 note=40 velocity=0 time=0
EXTRACT: note_on channel=6 note=60 velocity=0 time=0
EXTRACT: note_on channel=9 note=35 velocity=0 time=0
EXTRACT: note_on channel=9 note=36 velocity=0 time=0
EXTRACT: note_on channel=9 note=42 velocity=0 time=0
EXTRACT: note_on channel=4 note=48 velocity=110 time=0.007440468749999999
EXTRACT: note_on channel=5 note=40 velocity=110 time=0
EXTRACT: note_on channel=6 note=60 velocity=110 time=0
EXTRACT: note_on channel=9 note=35 velocity=110 time=0
EXTRACT: note_on channel=9 note=36 velocity=110 time=0
EXTRACT: note_on channel=9 note=42 velocity=110 time=0
EXTRACT: note_on channel=4 note=48 velocity=0 time=0.17113078124999997
EXTRACT: note_on channel=5 note=40 velocity=0 time=0
EXTRACT: note_on channel=6 note=60 velocity=0 time=0
EXTRACT: note_on channel=9 note=35 velocity=0 time=0
EXTRACT: note_on channel=9 note=36 velocity=0 time=0
EXTRACT: note_on channel=9 note=42 velocity=0 time=0
EXTRACT: note_on channel=4 note=48 velocity=110 time=0.007440468749999999
EXTRACT: note_on channel=5 note=40 velocity=110 time=0
EXTRACT: note_on channel=6 note=60 velocity=110 time=0
EXTRACT: note_on channel=9 note=38 velocity=110 time=0
EXTRACT: note_on channel=9 note=42 velocity=110 time=0
EXTRACT: note_on channel=4 note=48 velocity=0 time=0.17113078124999997
EXTRACT: note_on channel=5 note=40 velocity=0 time=0
EXTRACT: note_on channel=6 note=60 velocity=0 time=0
EXTRACT: note_on channel=9 note=38 velocity=0 time=0
EXTRACT: note_on channel=9 note=42 velocity=0 time=0
EXTRACT: note_on channel=4 note=48 velocity=110 time=0.007440468749999999
EXTRACT: note_on channel=5 note=40 velocity=110 time=0
EXTRACT: note_on channel=6 note=60 velocity=110 time=0
EXTRACT: note_on channel=9 note=42 velocity=110 time=0
EXTRACT: note_on channel=9 note=55 velocity=0 time=0.05952374999999999
EXTRACT: note_on channel=4 note=48 velocity=0 time=0.11160703124999999
EXTRACT: note_on channel=5 note=40 velocity=0 time=0
EXTRACT: note_on channel=6 note=60 velocity=0 time=0
EXTRACT: note_on channel=9 note=42 velocity=0 time=0
EXTRACT: note_on channel=4 note=47 velocity=110 time=0.007440468749999999
EXTRACT: note_on channel=5 note=39 velocity=110 time=0
EXTRACT: note_on channel=6 note=60 velocity=110 time=0
EXTRACT: note_on channel=9 note=35 velocity=110 time=0
EXTRACT: note_on channel=9 note=36 velocity=110 time=0
EXTRACT: note_on channel=9 note=42 velocity=110 time=0
EXTRACT: note_on channel=5 note=39 velocity=0 time=0.17113078124999997
EXTRACT: note_on channel=6 note=60 velocity=0 time=0
EXTRACT: note_on channel=9 note=35 velocity=0 time=0
EXTRACT: note_on channel=9 note=36 velocity=0 time=0
EXTRACT: note_on channel=9 note=42 velocity=0 time=0
EXTRACT: note_on channel=5 note=39 velocity=110 time=0.007440468749999999
EXTRACT: note_on channel=6 note=60 velocity=110 time=0
EXTRACT: note_on channel=9 note=42 velocity=110 time=0
EXTRACT: note_on channel=5 note=39 velocity=0 time=0.17113078124999997
EXTRACT: note_on channel=6 note=60 velocity=0 time=0
EXTRACT: note_on channel=9 note=42 velocity=0 time=0
EXTRACT: note_on channel=3 note=64 velocity=110 time=0.007440468749999999
EXTRACT: note_on channel=3 note=67 velocity=110 time=0
EXTRACT: note_on channel=5 note=39 velocity=110 time=0
EXTRACT: note_on channel=6 note=60 velocity=110 time=0
EXTRACT: note_on channel=9 note=38 velocity=110 time=0
EXTRACT: note_on channel=9 note=42 velocity=110 time=0
EXTRACT: note_on channel=5 note=39 velocity=0 time=0.17113078124999997
EXTRACT: note_on channel=6 note=60 velocity=0 time=0
EXTRACT: note_on channel=9 note=38 velocity=0 time=0
EXTRACT: note_on channel=9 note=42 velocity=0 time=0
EXTRACT: note_on channel=5 note=39 velocity=110 time=0.007440468749999999
EXTRACT: note_on channel=6 note=60 velocity=110 time=0
EXTRACT: note_on channel=9 note=42 velocity=110 time=0
EXTRACT: note_on channel=3 note=64 velocity=0 time=0.17113078124999997
EXTRACT: note_on channel=3 note=67 velocity=0 time=0
EXTRACT: note_on channel=5 note=39 velocity=0 time=0
EXTRACT: note_on channel=6 note=60 velocity=0 time=0
EXTRACT: note_on channel=9 note=42 velocity=0 time=0
EXTRACT: note_on channel=3 note=63 velocity=110 time=0.007440468749999999
EXTRACT: note_on channel=3 note=66 velocity=110 time=0
EXTRACT: note_on channel=5 note=39 velocity=110 time=0
EXTRACT: note_on channel=6 note=60 velocity=110 time=0
EXTRACT: note_on channel=9 note=55 velocity=110 time=0
EXTRACT: note_on channel=9 note=35 velocity=110 time=0
EXTRACT: note_on channel=9 note=36 velocity=110 time=0
EXTRACT: note_on channel=9 note=42 velocity=110 time=0
EXTRACT: note_on channel=5 note=39 velocity=0 time=0.17113078124999997
EXTRACT: note_on channel=6 note=60 velocity=0 time=0
EXTRACT: note_on channel=9 note=35 velocity=0 time=0
EXTRACT: note_on channel=9 note=36 velocity=0 time=0
EXTRACT: note_on channel=9 note=42 velocity=0 time=0
EXTRACT: note_on channel=5 note=39 velocity=110 time=0.007440468749999999
EXTRACT: note_on channel=6 note=60 velocity=110 time=0
EXTRACT: note_on channel=9 note=35 velocity=110 time=0
EXTRACT: note_on channel=9 note=36 velocity=110 time=0
EXTRACT: note_on channel=9 note=42 velocity=110 time=0
EXTRACT: note_on channel=3 note=63 velocity=0 time=0.17113078124999997
EXTRACT: note_on channel=3 note=66 velocity=0 time=0
EXTRACT: note_on channel=5 note=39 velocity=0 time=0
EXTRACT: note_on channel=6 note=60 velocity=0 time=0
EXTRACT: note_on channel=9 note=35 velocity=0 time=0
EXTRACT: note_on channel=9 note=36 velocity=0 time=0
EXTRACT: note_on channel=9 note=42 velocity=0 time=0
EXTRACT: note_on channel=5 note=39 velocity=110 time=0.007440468749999999
EXTRACT: note_on channel=6 note=60 velocity=110 time=0
EXTRACT: note_on channel=9 note=38 velocity=110 time=0
EXTRACT: note_on channel=9 note=42 velocity=110 time=0
EXTRACT: note_on channel=5 note=39 velocity=0 time=0.17113078124999997
EXTRACT: note_on channel=6 note=60 velocity=0 time=0
EXTRACT: note_on channel=9 note=38 velocity=0 time=0
EXTRACT: note_on channel=9 note=42 velocity=0 time=0
EXTRACT: note_on channel=3 note=64 velocity=110 time=0.007440468749999999
EXTRACT: note_on channel=4 note=47 velocity=0 time=0
EXTRACT: note_on channel=6 note=60 velocity=110 time=0
EXTRACT: note_on channel=9 note=42 velocity=110 time=0
EXTRACT: note_on channel=9 note=55 velocity=0 time=0.05952374999999999
EXTRACT: note_on channel=3 note=64 velocity=0 time=0.11160703124999999
EXTRACT: note_on channel=6 note=60 velocity=0 time=0
EXTRACT: note_on channel=9 note=42 velocity=0 time=0
EXTRACT: note_on channel=2 note=64 velocity=60 time=0.007440468749999999
EXTRACT: note_on channel=2 note=67 velocity=60 time=0
EXTRACT: note_on channel=3 note=67 velocity=110 time=0
EXTRACT: note_on channel=4 note=40 velocity=110 time=0
EXTRACT: note_on channel=5 note=40 velocity=110 time=0
EXTRACT: note_on channel=6 note=60 velocity=110 time=0
EXTRACT: note_on channel=9 note=35 velocity=110 time=0
EXTRACT: note_on channel=9 note=36 velocity=110 time=0
EXTRACT: note_on channel=9 note=42 velocity=110 time=0
EXTRACT: note_on channel=2 note=64 velocity=0 time=0.17113078124999997
EXTRACT: note_on channel=2 note=67 velocity=0 time=0
EXTRACT: note_on channel=3 note=67 velocity=0 time=0
EXTRACT: note_on channel=4 note=40 velocity=0 time=0
EXTRACT: note_on channel=5 note=40 velocity=0 time=0
EXTRACT: note_on channel=6 note=60 velocity=0 time=0
EXTRACT: note_on channel=9 note=35 velocity=0 time=0
EXTRACT: note_on channel=9 note=36 velocity=0 time=0
EXTRACT: note_on channel=9 note=42 velocity=0 time=0
EXTRACT: note_on channel=2 note=64 velocity=60 time=0.007440468749999999
EXTRACT: note_on channel=2 note=67 velocity=60 time=0
EXTRACT: note_on channel=3 note=67 velocity=110 time=0
EXTRACT: note_on channel=4 note=40 velocity=110 time=0
EXTRACT: note_on channel=5 note=40 velocity=110 time=0
EXTRACT: note_on channel=6 note=60 velocity=110 time=0
EXTRACT: note_on channel=9 note=42 velocity=110 time=0
EXTRACT: note_on channel=2 note=64 velocity=0 time=0.17113078124999997
EXTRACT: note_on channel=2 note=67 velocity=0 time=0
EXTRACT: note_on channel=3 note=67 velocity=0 time=0
EXTRACT: note_on channel=4 note=40 velocity=0 time=0
EXTRACT: note_on channel=5 note=40 velocity=0 time=0
EXTRACT: note_on channel=6 note=60 velocity=0 time=0
EXTRACT: note_on channel=9 note=42 velocity=0 time=0
EXTRACT: note_on channel=2 note=64 velocity=60 time=0.007440468749999999
EXTRACT: note_on channel=2 note=67 velocity=60 time=0
EXTRACT: note_on channel=3 note=67 velocity=110 time=0
EXTRACT: note_on channel=4 note=40 velocity=110 time=0
EXTRACT: note_on channel=5 note=40 velocity=110 time=0
EXTRACT: note_on channel=6 note=60 velocity=110 time=0
EXTRACT: note_on channel=9 note=38 velocity=110 time=0
EXTRACT: note_on channel=9 note=42 velocity=110 time=0
EXTRACT: note_on channel=2 note=64 velocity=0 time=0.17113078124999997
EXTRACT: note_on channel=2 note=67 velocity=0 time=0
EXTRACT: note_on channel=3 note=67 velocity=0 time=0
EXTRACT: note_on channel=4 note=40 velocity=0 time=0
EXTRACT: note_on channel=5 note=40 velocity=0 time=0
EXTRACT: note_on channel=6 note=60 velocity=0 time=0
EXTRACT: note_on channel=9 note=38 velocity=0 time=0
EXTRACT: note_on channel=9 note=42 velocity=0 time=0
EXTRACT: note_on channel=2 note=64 velocity=60 time=0.007440468749999999
EXTRACT: note_on channel=2 note=67 velocity=60 time=0
EXTRACT: note_on channel=3 note=67 velocity=110 time=0
EXTRACT: note_on channel=4 note=40 velocity=110 time=0
EXTRACT: note_on channel=6 note=60 velocity=110 time=0
EXTRACT: note_on channel=9 note=42 velocity=110 time=0
EXTRACT: note_on channel=2 note=64 velocity=0 time=0.17113078124999997
EXTRACT: note_on channel=2 note=67 velocity=0 time=0
EXTRACT: note_on channel=3 note=67 velocity=0 time=0
EXTRACT: note_on channel=4 note=40 velocity=0 time=0
EXTRACT: note_on channel=6 note=60 velocity=0 time=0
EXTRACT: note_on channel=9 note=42 velocity=0 time=0
EXTRACT: note_on channel=2 note=63 velocity=60 time=0.007440468749999999
EXTRACT: note_on channel=2 note=66 velocity=60 time=0
EXTRACT: note_on channel=3 note=66 velocity=110 time=0
EXTRACT: note_on channel=4 note=47 velocity=110 time=0
EXTRACT: note_on channel=5 note=40 velocity=110 time=0
EXTRACT: note_on channel=6 note=60 velocity=110 time=0
EXTRACT: note_on channel=9 note=55 velocity=110 time=0
EXTRACT: note_on channel=9 note=35 velocity=110 time=0
EXTRACT: note_on channel=9 note=36 velocity=110 time=0
EXTRACT: note_on channel=9 note=42 velocity=110 time=0
EXTRACT: note_on channel=2 note=63 velocity=0 time=0.17113078124999997
EXTRACT: note_on channel=2 note=66 velocity=0 time=0
EXTRACT: note_on channel=3 note=66 velocity=0 time=0
EXTRACT: note_on channel=4 note=47 velocity=0 time=0
EXTRACT: note_on channel=5 note=40 velocity=0 time=0
EXTRACT: note_on channel=6 note=60 velocity=0 time=0
EXTRACT: note_on channel=9 note=35 velocity=0 time=0
EXTRACT: note_on channel=9 note=36 velocity=0 time=0
EXTRACT: note_on channel=9 note=42 velocity=0 time=0
EXTRACT: note_on channel=2 note=63 velocity=60 time=0.007440468749999999
EXTRACT: note_on channel=2 note=66 velocity=60 time=0
EXTRACT: note_on channel=3 note=66 velocity=110 time=0
EXTRACT: note_on channel=4 note=47 velocity=110 time=0
EXTRACT: note_on channel=5 note=40 velocity=110 time=0
EXTRACT: note_on channel=6 note=60 velocity=110 time=0
EXTRACT: note_on channel=9 note=35 velocity=110 time=0
EXTRACT: note_on channel=9 note=36 velocity=110 time=0
EXTRACT: note_on channel=9 note=42 velocity=110 time=0
EXTRACT: note_on channel=2 note=63 velocity=0 time=0.17113078124999997
EXTRACT: note_on channel=2 note=66 velocity=0 time=0
EXTRACT: note_on channel=3 note=66 velocity=0 time=0
EXTRACT: note_on channel=4 note=47 velocity=0 time=0
EXTRACT: note_on channel=5 note=40 velocity=0 time=0
EXTRACT: note_on channel=6 note=60 velocity=0 time=0
EXTRACT: note_on channel=9 note=35 velocity=0 time=0
EXTRACT: note_on channel=9 note=36 velocity=0 time=0
EXTRACT: note_on channel=9 note=42 velocity=0 time=0
EXTRACT: note_on channel=2 note=63 velocity=60 time=0.007440468749999999
EXTRACT: note_on channel=2 note=66 velocity=60 time=0
EXTRACT: note_on channel=3 note=66 velocity=110 time=0
EXTRACT: note_on channel=4 note=47 velocity=110 time=0
EXTRACT: note_on channel=5 note=40 velocity=110 time=0
EXTRACT: note_on channel=6 note=60 velocity=110 time=0
EXTRACT: note_on channel=9 note=38 velocity=110 time=0
EXTRACT: note_on channel=9 note=42 velocity=110 time=0
EXTRACT: note_on channel=4 note=47 velocity=0 time=0.17113078124999997
EXTRACT: note_on channel=5 note=40 velocity=0 time=0
EXTRACT: note_on channel=6 note=60 velocity=0 time=0
EXTRACT: note_on channel=9 note=38 velocity=0 time=0
EXTRACT: note_on channel=9 note=42 velocity=0 time=0
EXTRACT: note_on channel=4 note=47 velocity=110 time=0.007440468749999999
EXTRACT: note_on channel=6 note=60 velocity=110 time=0
EXTRACT: note_on channel=9 note=42 velocity=110 time=0
EXTRACT: note_on channel=9 note=55 velocity=0 time=0.05952374999999999
EXTRACT: note_on channel=2 note=63 velocity=0 time=0.11160703124999999
EXTRACT: note_on channel=2 note=66 velocity=0 time=0
EXTRACT: note_on channel=3 note=66 velocity=0 time=0
EXTRACT: note_on channel=4 note=47 velocity=0 time=0
EXTRACT: note_on channel=6 note=60 velocity=0 time=0
EXTRACT: note_on channel=9 note=42 velocity=0 time=0
EXTRACT: note_on channel=2 note=60 velocity=60 time=0.007440468749999999
EXTRACT: note_on channel=2 note=64 velocity=60 time=0
EXTRACT: note_on channel=3 note=64 velocity=110 time=0
EXTRACT: note_on channel=4 note=48 velocity=110 time=0
EXTRACT: note_on channel=5 note=35 velocity=110 time=0
EXTRACT: note_on channel=6 note=60 velocity=110 time=0
EXTRACT: note_on channel=9 note=35 velocity=110 time=0
EXTRACT: note_on channel=9 note=36 velocity=110 time=0
EXTRACT: note_on channel=9 note=42 velocity=110 time=0
EXTRACT: note_on channel=4 note=48 velocity=0 time=0.17113078124999997
EXTRACT: note_on channel=5 note=35 velocity=0 time=0
EXTRACT: note_on channel=6 note=60 velocity=0 time=0
EXTRACT: note_on channel=9 note=35 velocity=0 time=0
EXTRACT: note_on channel=9 note=36 velocity=0 time=0
EXTRACT: note_on channel=9 note=42 velocity=0 time=0
EXTRACT: note_on channel=4 note=48 velocity=110 time=0.007440468749999999
EXTRACT: note_on channel=5 note=35 velocity=110 time=0
EXTRACT: note_on channel=6 note=60 velocity=110 time=0
EXTRACT: note_on channel=9 note=42 velocity=110 time=0
EXTRACT: note_on channel=2 note=60 velocity=0 time=0.17113078124999997
EXTRACT: note_on channel=2 note=64 velocity=0 time=0
EXTRACT: note_on channel=3 note=64 velocity=0 time=0
EXTRACT: note_on channel=4 note=48 velocity=0 time=0
EXTRACT: note_on channel=5 note=35 velocity=0 time=0
EXTRACT: note_on channel=6 note=60 velocity=0 time=0
EXTRACT: note_on channel=9 note=42 velocity=0 time=0
EXTRACT: note_on channel=2 note=60 velocity=60 time=0.007440468749999999
EXTRACT: note_on channel=2 note=64 velocity=60 time=0
EXTRACT: note_on channel=3 note=64 velocity=110 time=0
EXTRACT: note_on channel=4 note=48 velocity=110 time=0
EXTRACT: note_on channel=5 note=35 velocity=110 time=0
EXTRACT: note_on channel=6 note=60 velocity=110 time=0
EXTRACT: note_on channel=9 note=38 velocity=110 time=0
EXTRACT: note_on channel=9 note=42 velocity=110 time=0
EXTRACT: note_on channel=2 note=60 velocity=0 time=0.17113078124999997
EXTRACT: note_on channel=2 note=64 velocity=0 time=0
EXTRACT: note_on channel=3 note=64 velocity=0 time=0
EXTRACT: note_on channel=5 note=35 velocity=0 time=0
EXTRACT: note_on channel=6 note=60 velocity=0 time=0
EXTRACT: note_on channel=9 note=38 velocity=0 time=0
EXTRACT: note_on channel=9 note=42 velocity=0 time=0
EXTRACT: note_on channel=2 note=60 velocity=60 time=0.007440468749999999
EXTRACT: note_on channel=2 note=64 velocity=60 time=0
EXTRACT: note_on channel=3 note=64 velocity=110 time=0
EXTRACT: note_on channel=6 note=60 velocity=110 time=0
EXTRACT: note_on channel=9 note=42 velocity=110 time=0
EXTRACT: note_on channel=4 note=48 velocity=0 time=0.17113078124999997
EXTRACT: note_on channel=6 note=60 velocity=0 time=0
EXTRACT: note_on channel=9 note=42 velocity=0 time=0
EXTRACT: note_on channel=4 note=48 velocity=110 time=0.007440468749999999
EXTRACT: note_on channel=5 note=35 velocity=110 time=0
EXTRACT: note_on channel=6 note=60 velocity=110 time=0
EXTRACT: note_on channel=9 note=55 velocity=110 time=0
EXTRACT: note_on channel=9 note=35 velocity=110 time=0
EXTRACT: note_on channel=9 note=36 velocity=110 time=0
EXTRACT: note_on channel=9 note=42 velocity=110 time=0
EXTRACT: note_on channel=2 note=60 velocity=0 time=0.17113078124999997
EXTRACT: note_on channel=2 note=64 velocity=0 time=0
EXTRACT: note_on channel=3 note=64 velocity=0 time=0
EXTRACT: note_on channel=4 note=48 velocity=0 time=0
EXTRACT: note_on channel=5 note=35 velocity=0 time=0
EXTRACT: note_on channel=6 note=60 velocity=0 time=0
EXTRACT: note_on channel=9 note=35 velocity=0 time=0
EXTRACT: note_on channel=9 note=36 velocity=0 time=0
EXTRACT: note_on channel=9 note=42 velocity=0 time=0
EXTRACT: note_on channel=2 note=60 velocity=60 time=0.007440468749999999
EXTRACT: note_on channel=2 note=64 velocity=60 time=0
EXTRACT: note_on channel=3 note=64 velocity=110 time=0
EXTRACT: note_on channel=4 note=48 velocity=110 time=0
EXTRACT: note_on channel=5 note=35 velocity=110 time=0
EXTRACT: note_on channel=6 note=60 velocity=110 time=0
EXTRACT: note_on channel=9 note=35 velocity=110 time=0
EXTRACT: note_on channel=9 note=36 velocity=110 time=0
EXTRACT: note_on channel=9 note=42 velocity=110 time=0
EXTRACT: note_on channel=2 note=60 velocity=0 time=0.17113078124999997
EXTRACT: note_on channel=2 note=64 velocity=0 time=0
EXTRACT: note_on channel=3 note=64 velocity=0 time=0
EXTRACT: note_on channel=4 note=48 velocity=0 time=0
EXTRACT: note_on channel=5 note=35 velocity=0 time=0
EXTRACT: note_on channel=6 note=60 velocity=0 time=0
EXTRACT: note_on channel=9 note=35 velocity=0 time=0
EXTRACT: note_on channel=9 note=36 velocity=0 time=0
EXTRACT: note_on channel=9 note=42 velocity=0 time=0
EXTRACT: note_on channel=2 note=59 velocity=60 time=0.007440468749999999
EXTRACT: note_on channel=2 note=63 velocity=60 time=0
EXTRACT: note_on channel=3 note=62 velocity=110 time=0
EXTRACT: note_on channel=4 note=48 velocity=110 time=0
EXTRACT: note_on channel=5 note=35 velocity=110 time=0
EXTRACT: note_on channel=6 note=60 velocity=110 time=0
EXTRACT: note_on channel=9 note=38 velocity=110 time=0
EXTRACT: note_on channel=9 note=42 velocity=110 time=0
EXTRACT: note_on channel=5 note=35 velocity=0 time=0.17113078124999997
EXTRACT: note_on channel=6 note=60 velocity=0 time=0
EXTRACT: note_on channel=9 note=38 velocity=0 time=0
EXTRACT: note_on channel=9 note=42 velocity=0 time=0
EXTRACT: note_on channel=6 note=60 velocity=110 time=0.007440468749999999
EXTRACT: note_on channel=9 note=42 velocity=110 time=0
EXTRACT: note_on channel=9 note=55 velocity=0 time=0.05952374999999999
EXTRACT: note_on channel=2 note=59 velocity=0 time=0.11160703124999999
EXTRACT: note_on channel=2 note=63 velocity=0 time=0
EXTRACT: note_on channel=3 note=62 velocity=0 time=0
EXTRACT: note_on channel=4 note=48 velocity=0 time=0
EXTRACT: note_on channel=6 note=60 velocity=0 time=0
EXTRACT: note_on channel=9 note=42 velocity=0 time=0
EXTRACT: note_on channel=4 note=40 velocity=110 time=0.007440468749999999
EXTRACT: note_on channel=5 note=40 velocity=110 time=0
EXTRACT: note_on channel=6 note=60 velocity=110 time=0
EXTRACT: note_on channel=9 note=35 velocity=110 time=0
EXTRACT: note_on channel=9 note=36 velocity=110 time=0
EXTRACT: note_on channel=9 note=42 velocity=110 time=0
EXTRACT: note_on channel=4 note=40 velocity=0 time=0.17113078124999997
EXTRACT: note_on channel=5 note=40 velocity=0 time=0
EXTRACT: note_on channel=6 note=60 velocity=0 time=0
EXTRACT: note_on channel=9 note=35 velocity=0 time=0
EXTRACT: note_on channel=9 note=36 velocity=0 time=0
EXTRACT: note_on channel=9 note=42 velocity=0 time=0
EXTRACT: note_on channel=4 note=40 velocity=110 time=0.007440468749999999
EXTRACT: note_on channel=5 note=40 velocity=110 time=0
EXTRACT: note_on channel=6 note=60 velocity=110 time=0
EXTRACT: note_on channel=9 note=42 velocity=110 time=0
EXTRACT: note_on channel=4 note=40 velocity=0 time=0.17113078124999997
EXTRACT: note_on channel=5 note=40 velocity=0 time=0
EXTRACT: note_on channel=6 note=60 velocity=0 time=0
EXTRACT: note_on channel=9 note=42 velocity=0 time=0
EXTRACT: note_on channel=4 note=40 velocity=110 time=0.007440468749999999
EXTRACT: note_on channel=5 note=40 velocity=110 time=0
EXTRACT: note_on channel=6 note=60 velocity=110 time=0
EXTRACT: note_on channel=9 note=38 velocity=110 time=0
EXTRACT: note_on channel=9 note=42 velocity=110 time=0
EXTRACT: note_on channel=4 note=40 velocity=0 time=0.17113078124999997
EXTRACT: note_on channel=5 note=40 velocity=0 time=0
EXTRACT: note_on channel=6 note=60 velocity=0 time=0
EXTRACT: note_on channel=9 note=38 velocity=0 time=0
EXTRACT: note_on channel=9 note=42 velocity=0 time=0
EXTRACT: note_on channel=4 note=40 velocity=110 time=0.007440468749999999
EXTRACT: note_on channel=5 note=40 velocity=110 time=0
EXTRACT: note_on channel=6 note=60 velocity=110 time=0
EXTRACT: note_on channel=9 note=42 velocity=110 time=0
EXTRACT: note_on channel=4 note=40 velocity=0 time=0.17113078124999997
EXTRACT: note_on channel=5 note=40 velocity=0 time=0
EXTRACT: note_on channel=6 note=60 velocity=0 time=0
EXTRACT: note_on channel=9 note=42 velocity=0 time=0
EXTRACT: note_on channel=4 note=48 velocity=110 time=0.007440468749999999
EXTRACT: note_on channel=5 note=40 velocity=110 time=0
EXTRACT: note_on channel=6 note=60 velocity=110 time=0
EXTRACT: note_on channel=9 note=55 velocity=110 time=0
EXTRACT: note_on channel=9 note=35 velocity=110 time=0
EXTRACT: note_on channel=9 note=36 velocity=110 time=0
EXTRACT: note_on channel=9 note=42 velocity=110 time=0
EXTRACT: note_on channel=4 note=48 velocity=0 time=0.17113078124999997
EXTRACT: note_on channel=5 note=40 velocity=0 time=0
EXTRACT: note_on channel=6 note=60 velocity=0 time=0
EXTRACT: note_on channel=9 note=35 velocity=0 time=0
EXTRACT: note_on channel=9 note=36 velocity=0 time=0
EXTRACT: note_on channel=9 note=42 velocity=0 time=0
EXTRACT: note_on channel=4 note=48 velocity=110 time=0.007440468749999999
EXTRACT: note_on channel=5 note=40 velocity=110 time=0
EXTRACT: note_on channel=6 note=60 velocity=110 time=0
EXTRACT: note_on channel=9 note=35 velocity=110 time=0
EXTRACT: note_on channel=9 note=36 velocity=110 time=0
EXTRACT: note_on channel=9 note=42 velocity=110 time=0
EXTRACT: note_on channel=4 note=48 velocity=0 time=0.17113078124999997
EXTRACT: note_on channel=5 note=40 velocity=0 time=0
EXTRACT: note_on channel=6 note=60 velocity=0 time=0
EXTRACT: note_on channel=9 note=35 velocity=0 time=0
EXTRACT: note_on channel=9 note=36 velocity=0 time=0
EXTRACT: note_on channel=9 note=42 velocity=0 time=0
EXTRACT: note_on channel=4 note=48 velocity=110 time=0.007440468749999999
EXTRACT: note_on channel=5 note=40 velocity=110 time=0
EXTRACT: note_on channel=6 note=60 velocity=110 time=0
EXTRACT: note_on channel=9 note=38 velocity=110 time=0
EXTRACT: note_on channel=9 note=42 velocity=110 time=0
EXTRACT: note_on channel=4 note=48 velocity=0 time=0.17113078124999997
EXTRACT: note_on channel=5 note=40 velocity=0 time=0
EXTRACT: note_on channel=6 note=60 velocity=0 time=0
EXTRACT: note_on channel=9 note=38 velocity=0 time=0
EXTRACT: note_on channel=9 note=42 velocity=0 time=0
EXTRACT: note_on channel=4 note=48 velocity=110 time=0.007440468749999999
EXTRACT: note_on channel=5 note=40 velocity=110 time=0
EXTRACT: note_on channel=6 note=60 velocity=110 time=0
EXTRACT: note_on channel=9 note=42 velocity=110 time=0
EXTRACT: note_on channel=9 note=55 velocity=0 time=0.05952374999999999
EXTRACT: note_on channel=4 note=48 velocity=0 time=0.11160703124999999
EXTRACT: note_on channel=5 note=40 velocity=0 time=0
EXTRACT: note_on channel=6 note=60 velocity=0 time=0
EXTRACT: note_on channel=9 note=42 velocity=0 time=0
EXTRACT: note_on channel=4 note=47 velocity=110 time=0.007440468749999999
EXTRACT: note_on channel=5 note=39 velocity=110 time=0
EXTRACT: note_on channel=6 note=60 velocity=110 time=0
EXTRACT: note_on channel=9 note=35 velocity=110 time=0
EXTRACT: note_on channel=9 note=36 velocity=110 time=0
EXTRACT: note_on channel=9 note=42 velocity=110 time=0
EXTRACT: note_on channel=5 note=39 velocity=0 time=0.17113078124999997
EXTRACT: note_on channel=6 note=60 velocity=0 time=0
EXTRACT: note_on channel=9 note=35 velocity=0 time=0
EXTRACT: note_on channel=9 note=36 velocity=0 time=0
EXTRACT: note_on channel=9 note=42 velocity=0 time=0
EXTRACT: note_on channel=5 note=39 velocity=110 time=0.007440468749999999
EXTRACT: note_on channel=6 note=60 velocity=110 time=0
EXTRACT: note_on channel=9 note=42 velocity=110 time=0
EXTRACT: note_on channel=5 note=39 velocity=0 time=0.17113078124999997
EXTRACT: note_on channel=6 note=60 velocity=0 time=0
EXTRACT: note_on channel=9 note=42 velocity=0 time=0
EXTRACT: note_on channel=3 note=64 velocity=110 time=0.007440468749999999
EXTRACT: note_on channel=3 note=67 velocity=110 time=0
EXTRACT: note_on channel=5 note=39 velocity=110 time=0
EXTRACT: note_on channel=6 note=60 velocity=110 time=0
EXTRACT: note_on channel=9 note=38 velocity=110 time=0
EXTRACT: note_on channel=9 note=42 velocity=110 time=0
EXTRACT: note_on channel=5 note=39 velocity=0 time=0.17113078124999997
EXTRACT: note_on channel=6 note=60 velocity=0 time=0
EXTRACT: note_on channel=9 note=38 velocity=0 time=0
EXTRACT: note_on channel=9 note=42 velocity=0 time=0
EXTRACT: note_on channel=5 note=39 velocity=110 time=0.007440468749999999
EXTRACT: note_on channel=6 note=60 velocity=110 time=0
EXTRACT: note_on channel=9 note=42 velocity=110 time=0
EXTRACT: note_on channel=3 note=64 velocity=0 time=0.17113078124999997
EXTRACT: note_on channel=3 note=67 velocity=0 time=0
EXTRACT: note_on channel=5 note=39 velocity=0 time=0
EXTRACT: note_on channel=6 note=60 velocity=0 time=0
EXTRACT: note_on channel=9 note=42 velocity=0 time=0
EXTRACT: note_on channel=3 note=63 velocity=110 time=0.007440468749999999
EXTRACT: note_on channel=3 note=66 velocity=110 time=0
EXTRACT: note_on channel=5 note=39 velocity=110 time=0
EXTRACT: note_on channel=6 note=60 velocity=110 time=0
EXTRACT: note_on channel=9 note=55 velocity=110 time=0
EXTRACT: note_on channel=9 note=35 velocity=110 time=0
EXTRACT: note_on channel=9 note=36 velocity=110 time=0
EXTRACT: note_on channel=9 note=42 velocity=110 time=0
EXTRACT: note_on channel=5 note=39 velocity=0 time=0.17113078124999997
EXTRACT: note_on channel=6 note=60 velocity=0 time=0
EXTRACT: note_on channel=9 note=35 velocity=0 time=0
EXTRACT: note_on channel=9 note=36 velocity=0 time=0
EXTRACT: note_on channel=9 note=42 velocity=0 time=0
EXTRACT: note_on channel=5 note=39 velocity=110 time=0.007440468749999999
EXTRACT: note_on channel=6 note=60 velocity=110 time=0
EXTRACT: note_on channel=9 note=35 velocity=110 time=0
EXTRACT: note_on channel=9 note=36 velocity=110 time=0
EXTRACT: note_on channel=9 note=42 velocity=110 time=0
EXTRACT: note_on channel=3 note=63 velocity=0 time=0.17113078124999997
EXTRACT: note_on channel=3 note=66 velocity=0 time=0
EXTRACT: note_on channel=5 note=39 velocity=0 time=0
EXTRACT: note_on channel=6 note=60 velocity=0 time=0
EXTRACT: note_on channel=9 note=35 velocity=0 time=0
EXTRACT: note_on channel=9 note=36 velocity=0 time=0
EXTRACT: note_on channel=9 note=42 velocity=0 time=0
EXTRACT: note_on channel=5 note=39 velocity=110 time=0.007440468749999999
EXTRACT: note_on channel=6 note=60 velocity=110 time=0
EXTRACT: note_on channel=9 note=38 velocity=110 time=0
EXTRACT: note_on channel=9 note=42 velocity=110 time=0
EXTRACT: note_on channel=5 note=39 velocity=0 time=0.17113078124999997
EXTRACT: note_on channel=6 note=60 velocity=0 time=0
EXTRACT: note_on channel=9 note=38 velocity=0 time=0
EXTRACT: note_on channel=9 note=42 velocity=0 time=0
EXTRACT: note_on channel=4 note=47 velocity=0 time=0.007440468749999999
EXTRACT: note_on channel=6 note=60 velocity=110 time=0
EXTRACT: note_on channel=9 note=42 velocity=110 time=0
EXTRACT: note_on channel=9 note=55 velocity=0 time=0.05952374999999999
EXTRACT: note_on channel=6 note=60 velocity=0 time=0.11160703124999999
EXTRACT: note_on channel=9 note=42 velocity=0 time=0
EXTRACT: note_on channel=2 note=64 velocity=60 time=0.007440468749999999
EXTRACT: note_on channel=2 note=67 velocity=60 time=0
EXTRACT: note_on channel=3 note=67 velocity=110 time=0
EXTRACT: note_on channel=4 note=40 velocity=110 time=0
EXTRACT: note_on channel=5 note=40 velocity=110 time=0
EXTRACT: note_on channel=6 note=60 velocity=110 time=0
EXTRACT: note_on channel=9 note=35 velocity=110 time=0
EXTRACT: note_on channel=9 note=36 velocity=110 time=0
EXTRACT: note_on channel=9 note=42 velocity=110 time=0
EXTRACT: note_on channel=2 note=64 velocity=0 time=0.17113078124999997
EXTRACT: note_on channel=2 note=67 velocity=0 time=0
EXTRACT: note_on channel=3 note=67 velocity=0 time=0
EXTRACT: note_on channel=4 note=40 velocity=0 time=0
EXTRACT: note_on channel=5 note=40 velocity=0 time=0
EXTRACT: note_on channel=6 note=60 velocity=0 time=0
EXTRACT: note_on channel=9 note=35 velocity=0 time=0
EXTRACT: note_on channel=9 note=36 velocity=0 time=0
EXTRACT: note_on channel=9 note=42 velocity=0 time=0
EXTRACT: note_on channel=2 note=64 velocity=60 time=0.007440468749999999
EXTRACT: note_on channel=2 note=67 velocity=60 time=0
EXTRACT: note_on channel=3 note=67 velocity=110 time=0
EXTRACT: note_on channel=4 note=40 velocity=110 time=0
EXTRACT: note_on channel=5 note=40 velocity=110 time=0
EXTRACT: note_on channel=6 note=60 velocity=110 time=0
EXTRACT: note_on channel=9 note=42 velocity=110 time=0
EXTRACT: note_on channel=2 note=64 velocity=0 time=0.17113078124999997
EXTRACT: note_on channel=2 note=67 velocity=0 time=0
EXTRACT: note_on channel=3 note=67 velocity=0 time=0
EXTRACT: note_on channel=4 note=40 velocity=0 time=0
EXTRACT: note_on channel=5 note=40 velocity=0 time=0
EXTRACT: note_on channel=6 note=60 velocity=0 time=0
EXTRACT: note_on channel=9 note=42 velocity=0 time=0
EXTRACT: note_on channel=2 note=64 velocity=60 time=0.007440468749999999
EXTRACT: note_on channel=2 note=67 velocity=60 time=0
EXTRACT: note_on channel=3 note=67 velocity=110 time=0
EXTRACT: note_on channel=4 note=40 velocity=110 time=0
EXTRACT: note_on channel=5 note=40 velocity=110 time=0
EXTRACT: note_on channel=6 note=60 velocity=110 time=0
EXTRACT: note_on channel=9 note=38 velocity=110 time=0
EXTRACT: note_on channel=9 note=42 velocity=110 time=0
EXTRACT: note_on channel=2 note=64 velocity=0 time=0.17113078124999997
EXTRACT: note_on channel=2 note=67 velocity=0 time=0
EXTRACT: note_on channel=3 note=67 velocity=0 time=0
EXTRACT: note_on channel=4 note=40 velocity=0 time=0
EXTRACT: note_on channel=5 note=40 velocity=0 time=0
EXTRACT: note_on channel=6 note=60 velocity=0 time=0
EXTRACT: note_on channel=9 note=38 velocity=0 time=0
EXTRACT: note_on channel=9 note=42 velocity=0 time=0
EXTRACT: note_on channel=2 note=64 velocity=60 time=0.007440468749999999
EXTRACT: note_on channel=2 note=67 velocity=60 time=0
EXTRACT: note_on channel=3 note=67 velocity=110 time=0
EXTRACT: note_on channel=4 note=40 velocity=110 time=0
EXTRACT: note_on channel=6 note=60 velocity=110 time=0
EXTRACT: note_on channel=9 note=42 velocity=110 time=0
EXTRACT: note_on channel=2 note=64 velocity=0 time=0.17113078124999997
EXTRACT: note_on channel=2 note=67 velocity=0 time=0
EXTRACT: note_on channel=3 note=67 velocity=0 time=0
EXTRACT: note_on channel=4 note=40 velocity=0 time=0
EXTRACT: note_on channel=6 note=60 velocity=0 time=0
EXTRACT: note_on channel=9 note=42 velocity=0 time=0
EXTRACT: note_on channel=2 note=63 velocity=60 time=0.007440468749999999
EXTRACT: note_on channel=2 note=66 velocity=60 time=0
EXTRACT: note_on channel=3 note=66 velocity=110 time=0
EXTRACT: note_on channel=4 note=47 velocity=110 time=0
EXTRACT: note_on channel=5 note=40 velocity=110 time=0
EXTRACT: note_on channel=6 note=60 velocity=110 time=0
EXTRACT: note_on channel=9 note=55 velocity=110 time=0
EXTRACT: note_on channel=9 note=35 velocity=110 time=0
EXTRACT: note_on channel=9 note=36 velocity=110 time=0
EXTRACT: note_on channel=9 note=42 velocity=110 time=0
EXTRACT: note_on channel=2 note=63 velocity=0 time=0.17113078124999997
EXTRACT: note_on channel=2 note=66 velocity=0 time=0
EXTRACT: note_on channel=3 note=66 velocity=0 time=0
EXTRACT: note_on channel=4 note=47 velocity=0 time=0
EXTRACT: note_on channel=5 note=40 velocity=0 time=0
EXTRACT: note_on channel=6 note=60 velocity=0 time=0
EXTRACT: note_on channel=9 note=35 velocity=0 time=0
EXTRACT: note_on channel=9 note=36 velocity=0 time=0
EXTRACT: note_on channel=9 note=42 velocity=0 time=0
EXTRACT: note_on channel=2 note=63 velocity=60 time=0.007440468749999999
EXTRACT: note_on channel=2 note=66 velocity=60 time=0
EXTRACT: note_on channel=3 note=66 velocity=110 time=0
EXTRACT: note_on channel=4 note=47 velocity=110 time=0
EXTRACT: note_on channel=5 note=40 velocity=110 time=0
EXTRACT: note_on channel=6 note=60 velocity=110 time=0
EXTRACT: note_on channel=9 note=35 velocity=110 time=0
EXTRACT: note_on channel=9 note=36 velocity=110 time=0
EXTRACT: note_on channel=9 note=42 velocity=110 time=0
EXTRACT: note_on channel=2 note=63 velocity=0 time=0.17113078124999997
EXTRACT: note_on channel=2 note=66 velocity=0 time=0
EXTRACT: note_on channel=3 note=66 velocity=0 time=0
EXTRACT: note_on channel=4 note=47 velocity=0 time=0
EXTRACT: note_on channel=5 note=40 velocity=0 time=0
EXTRACT: note_on channel=6 note=60 velocity=0 time=0
EXTRACT: note_on channel=9 note=35 velocity=0 time=0
EXTRACT: note_on channel=9 note=36 velocity=0 time=0
EXTRACT: note_on channel=9 note=42 velocity=0 time=0
EXTRACT: note_on channel=2 note=63 velocity=60 time=0.007440468749999999
EXTRACT: note_on channel=2 note=66 velocity=60 time=0
EXTRACT: note_on channel=3 note=66 velocity=110 time=0
EXTRACT: note_on channel=4 note=47 velocity=110 time=0
EXTRACT: note_on channel=5 note=40 velocity=110 time=0
EXTRACT: note_on channel=6 note=60 velocity=110 time=0
EXTRACT: note_on channel=9 note=38 velocity=110 time=0
EXTRACT: note_on channel=9 note=42 velocity=110 time=0
EXTRACT: note_on channel=4 note=47 velocity=0 time=0.17113078124999997
EXTRACT: note_on channel=5 note=40 velocity=0 time=0
EXTRACT: note_on channel=6 note=60 velocity=0 time=0
EXTRACT: note_on channel=9 note=38 velocity=0 time=0
EXTRACT: note_on channel=9 note=42 velocity=0 time=0
EXTRACT: note_on channel=4 note=47 velocity=110 time=0.007440468749999999
EXTRACT: note_on channel=6 note=60 velocity=110 time=0
EXTRACT: note_on channel=9 note=42 velocity=110 time=0
EXTRACT: note_on channel=9 note=55 velocity=0 time=0.05952374999999999
EXTRACT: note_on channel=2 note=63 velocity=0 time=0.11160703124999999
EXTRACT: note_on channel=2 note=66 velocity=0 time=0
EXTRACT: note_on channel=3 note=66 velocity=0 time=0
EXTRACT: note_on channel=4 note=47 velocity=0 time=0
EXTRACT: note_on channel=6 note=60 velocity=0 time=0
EXTRACT: note_on channel=9 note=42 velocity=0 time=0
EXTRACT: note_on channel=2 note=60 velocity=60 time=0.007440468749999999
EXTRACT: note_on channel=2 note=64 velocity=60 time=0
EXTRACT: note_on channel=3 note=64 velocity=110 time=0
EXTRACT: note_on channel=4 note=48 velocity=110 time=0
EXTRACT: note_on channel=5 note=35 velocity=110 time=0
EXTRACT: note_on channel=6 note=60 velocity=110 time=0
EXTRACT: note_on channel=9 note=35 velocity=110 time=0
EXTRACT: note_on channel=9 note=36 velocity=110 time=0
EXTRACT: note_on channel=9 note=42 velocity=110 time=0
EXTRACT: note_on channel=2 note=60 velocity=0 time=0.17113078124999997
EXTRACT: note_on channel=2 note=64 velocity=0 time=0
EXTRACT: note_on channel=3 note=64 velocity=0 time=0
EXTRACT: note_on channel=4 note=48 velocity=0 time=0
EXTRACT: note_on channel=5 note=35 velocity=0 time=0
EXTRACT: note_on channel=6 note=60 velocity=0 time=0
EXTRACT: note_on channel=9 note=35 velocity=0 time=0
EXTRACT: note_on channel=9 note=36 velocity=0 time=0
EXTRACT: note_on channel=9 note=42 velocity=0 time=0
EXTRACT: note_on channel=2 note=60 velocity=60 time=0.007440468749999999
EXTRACT: note_on channel=2 note=64 velocity=60 time=0
EXTRACT: note_on channel=3 note=64 velocity=110 time=0
EXTRACT: note_on channel=4 note=48 velocity=110 time=0
EXTRACT: note_on channel=5 note=35 velocity=110 time=0
EXTRACT: note_on channel=6 note=60 velocity=110 time=0
EXTRACT: note_on channel=9 note=42 velocity=110 time=0
EXTRACT: note_on channel=2 note=60 velocity=0 time=0.17113078124999997
EXTRACT: note_on channel=2 note=64 velocity=0 time=0
EXTRACT: note_on channel=3 note=64 velocity=0 time=0
EXTRACT: note_on channel=4 note=48 velocity=0 time=0
EXTRACT: note_on channel=5 note=35 velocity=0 time=0
EXTRACT: note_on channel=6 note=60 velocity=0 time=0
EXTRACT: note_on channel=9 note=42 velocity=0 time=0
EXTRACT: note_on channel=2 note=60 velocity=60 time=0.007440468749999999
EXTRACT: note_on channel=2 note=64 velocity=60 time=0
EXTRACT: note_on channel=3 note=64 velocity=110 time=0
EXTRACT: note_on channel=4 note=48 velocity=110 time=0
EXTRACT: note_on channel=5 note=35 velocity=110 time=0
EXTRACT: note_on channel=6 note=60 velocity=110 time=0
EXTRACT: note_on channel=9 note=38 velocity=110 time=0
EXTRACT: note_on channel=9 note=42 velocity=110 time=0
EXTRACT: note_on channel=5 note=35 velocity=0 time=0.17113078124999997
EXTRACT: note_on channel=6 note=60 velocity=0 time=0
EXTRACT: note_on channel=9 note=38 velocity=0 time=0
EXTRACT: note_on channel=9 note=42 velocity=0 time=0
EXTRACT: note_on channel=6 note=60 velocity=110 time=0.007440468749999999
EXTRACT: note_on channel=9 note=42 velocity=110 time=0
EXTRACT: note_on channel=2 note=60 velocity=0 time=0.17113078124999997
EXTRACT: note_on channel=2 note=64 velocity=0 time=0
EXTRACT: note_on channel=3 note=64 velocity=0 time=0
EXTRACT: note_on channel=4 note=48 velocity=0 time=0
EXTRACT: note_on channel=6 note=60 velocity=0 time=0
EXTRACT: note_on channel=9 note=42 velocity=0 time=0
EXTRACT: note_on channel=2 note=60 velocity=60 time=0.007440468749999999
EXTRACT: note_on channel=2 note=64 velocity=60 time=0
EXTRACT: note_on channel=3 note=64 velocity=110 time=0
EXTRACT: note_on channel=4 note=48 velocity=110 time=0
EXTRACT: note_on channel=5 note=35 velocity=110 time=0
EXTRACT: note_on channel=6 note=60 velocity=110 time=0
EXTRACT: note_on channel=9 note=55 velocity=110 time=0
EXTRACT: note_on channel=9 note=35 velocity=110 time=0
EXTRACT: note_on channel=9 note=36 velocity=110 time=0
EXTRACT: note_on channel=9 note=42 velocity=110 time=0
EXTRACT: note_on channel=4 note=48 velocity=0 time=0.17113078124999997
EXTRACT: note_on channel=5 note=35 velocity=0 time=0
EXTRACT: note_on channel=6 note=60 velocity=0 time=0
EXTRACT: note_on channel=9 note=35 velocity=0 time=0
EXTRACT: note_on channel=9 note=36 velocity=0 time=0
EXTRACT: note_on channel=9 note=42 velocity=0 time=0
EXTRACT: note_on channel=4 note=48 velocity=110 time=0.007440468749999999
EXTRACT: note_on channel=5 note=35 velocity=110 time=0
EXTRACT: note_on channel=6 note=60 velocity=110 time=0
EXTRACT: note_on channel=9 note=35 velocity=110 time=0
EXTRACT: note_on channel=9 note=36 velocity=110 time=0
EXTRACT: note_on channel=9 note=42 velocity=110 time=0
EXTRACT: note_on channel=2 note=60 velocity=0 time=0.17113078124999997
EXTRACT: note_on channel=2 note=64 velocity=0 time=0
EXTRACT: note_on channel=3 note=64 velocity=0 time=0
EXTRACT: note_on channel=4 note=48 velocity=0 time=0
EXTRACT: note_on channel=5 note=35 velocity=0 time=0
EXTRACT: note_on channel=6 note=60 velocity=0 time=0
EXTRACT: note_on channel=9 note=35 velocity=0 time=0
EXTRACT: note_on channel=9 note=36 velocity=0 time=0
EXTRACT: note_on channel=9 note=42 velocity=0 time=0
EXTRACT: note_on channel=2 note=59 velocity=60 time=0.007440468749999999
EXTRACT: note_on channel=2 note=63 velocity=60 time=0
EXTRACT: note_on channel=3 note=62 velocity=110 time=0
EXTRACT: note_on channel=4 note=48 velocity=110 time=0
EXTRACT: note_on channel=5 note=35 velocity=110 time=0
EXTRACT: note_on channel=6 note=60 velocity=110 time=0
EXTRACT: note_on channel=9 note=38 velocity=110 time=0
EXTRACT: note_on channel=9 note=42 velocity=110 time=0
EXTRACT: note_on channel=5 note=35 velocity=0 time=0.17113078124999997
EXTRACT: note_on channel=6 note=60 velocity=0 time=0
EXTRACT: note_on channel=9 note=38 velocity=0 time=0
EXTRACT: note_on channel=9 note=42 velocity=0 time=0
EXTRACT: note_on channel=6 note=60 velocity=110 time=0.007440468749999999
EXTRACT: note_on channel=9 note=42 velocity=110 time=0
EXTRACT: note_on channel=9 note=55 velocity=0 time=0.05952374999999999
EXTRACT: note_on channel=2 note=59 velocity=0 time=0.11160703124999999
EXTRACT: note_on channel=2 note=63 velocity=0 time=0
EXTRACT: note_on channel=3 note=62 velocity=0 time=0
EXTRACT: note_on channel=4 note=48 velocity=0 time=0
EXTRACT: note_on channel=6 note=60 velocity=0 time=0
EXTRACT: note_on channel=9 note=42 velocity=0 time=0
EXTRACT: note_on channel=4 note=40 velocity=110 time=0.007440468749999999
EXTRACT: note_on channel=5 note=40 velocity=110 time=0
EXTRACT: note_on channel=6 note=60 velocity=110 time=0
EXTRACT: note_on channel=9 note=35 velocity=110 time=0
EXTRACT: note_on channel=9 note=36 velocity=110 time=0
EXTRACT: note_on channel=9 note=42 velocity=110 time=0
EXTRACT: note_on channel=4 note=40 velocity=0 time=0.17113078124999997
EXTRACT: note_on channel=5 note=40 velocity=0 time=0
EXTRACT: note_on channel=6 note=60 velocity=0 time=0
EXTRACT: note_on channel=9 note=35 velocity=0 time=0
EXTRACT: note_on channel=9 note=36 velocity=0 time=0
EXTRACT: note_on channel=9 note=42 velocity=0 time=0
EXTRACT: note_on channel=4 note=40 velocity=110 time=0.007440468749999999
EXTRACT: note_on channel=5 note=40 velocity=110 time=0
EXTRACT: note_on channel=6 note=60 velocity=110 time=0
EXTRACT: note_on channel=9 note=42 velocity=110 time=0
EXTRACT: note_on channel=4 note=40 velocity=0 time=0.17113078124999997
EXTRACT: note_on channel=5 note=40 velocity=0 time=0
EXTRACT: note_on channel=6 note=60 velocity=0 time=0
EXTRACT: note_on channel=9 note=42 velocity=0 time=0
EXTRACT: note_on channel=4 note=40 velocity=110 time=0.007440468749999999
EXTRACT: note_on channel=5 note=40 velocity=110 time=0
EXTRACT: note_on channel=6 note=60 velocity=110 time=0
EXTRACT: note_on channel=9 note=38 velocity=110 time=0
EXTRACT: note_on channel=9 note=42 velocity=110 time=0
EXTRACT: note_on channel=4 note=40 velocity=0 time=0.17113078124999997
EXTRACT: note_on channel=5 note=40 velocity=0 time=0
EXTRACT: note_on channel=6 note=60 velocity=0 time=0
EXTRACT: note_on channel=9 note=38 velocity=0 time=0
EXTRACT: note_on channel=9 note=42 velocity=0 time=0
EXTRACT: note_on channel=4 note=40 velocity=110 time=0.007440468749999999
EXTRACT: note_on channel=5 note=40 velocity=110 time=0
EXTRACT: note_on channel=6 note=60 velocity=110 time=0
EXTRACT: note_on channel=9 note=42 velocity=110 time=0
EXTRACT: note_on channel=4 note=40 velocity=0 time=0.17113078124999997
EXTRACT: note_on channel=5 note=40 velocity=0 time=0
EXTRACT: note_on channel=6 note=60 velocity=0 time=0
EXTRACT: note_on channel=9 note=42 velocity=0 time=0
EXTRACT: note_on channel=4 note=48 velocity=110 time=0.007440468749999999
EXTRACT: note_on channel=5 note=40 velocity=110 time=0
EXTRACT: note_on channel=6 note=60 velocity=110 time=0
EXTRACT: note_on channel=9 note=55 velocity=110 time=0
EXTRACT: note_on channel=9 note=35 velocity=110 time=0
EXTRACT: note_on channel=9 note=36 velocity=110 time=0
EXTRACT: note_on channel=9 note=42 velocity=110 time=0
EXTRACT: note_on channel=4 note=48 velocity=0 time=0.17113078124999997
EXTRACT: note_on channel=5 note=40 velocity=0 time=0
EXTRACT: note_on channel=6 note=60 velocity=0 time=0
EXTRACT: note_on channel=9 note=35 velocity=0 time=0
EXTRACT: note_on channel=9 note=36 velocity=0 time=0
EXTRACT: note_on channel=9 note=42 velocity=0 time=0
EXTRACT: note_on channel=4 note=48 velocity=110 time=0.007440468749999999
EXTRACT: note_on channel=5 note=40 velocity=110 time=0
EXTRACT: note_on channel=6 note=60 velocity=110 time=0
EXTRACT: note_on channel=9 note=35 velocity=110 time=0
EXTRACT: note_on channel=9 note=36 velocity=110 time=0
EXTRACT: note_on channel=9 note=42 velocity=110 time=0
EXTRACT: note_on channel=4 note=48 velocity=0 time=0.17113078124999997
EXTRACT: note_on channel=5 note=40 velocity=0 time=0
EXTRACT: note_on channel=6 note=60 velocity=0 time=0
EXTRACT: note_on channel=9 note=35 velocity=0 time=0
EXTRACT: note_on channel=9 note=36 velocity=0 time=0
EXTRACT: note_on channel=9 note=42 velocity=0 time=0
EXTRACT: note_on channel=4 note=48 velocity=110 time=0.007440468749999999
EXTRACT: note_on channel=5 note=40 velocity=110 time=0
EXTRACT: note_on channel=6 note=60 velocity=110 time=0
EXTRACT: note_on channel=9 note=38 velocity=110 time=0
EXTRACT: note_on channel=9 note=42 velocity=110 time=0
EXTRACT: note_on channel=4 note=48 velocity=0 time=0.17113078124999997
EXTRACT: note_on channel=5 note=40 velocity=0 time=0
EXTRACT: note_on channel=6 note=60 velocity=0 time=0
EXTRACT: note_on channel=9 note=38 velocity=0 time=0
EXTRACT: note_on channel=9 note=42 velocity=0 time=0
EXTRACT: note_on channel=4 note=48 velocity=110 time=0.007440468749999999
EXTRACT: note_on channel=5 note=40 velocity=110 time=0
EXTRACT: note_on channel=6 note=60 velocity=110 time=0
EXTRACT: note_on channel=9 note=42 velocity=110 time=0
EXTRACT: note_on channel=9 note=55 velocity=0 time=0.05952374999999999
EXTRACT: note_on channel=4 note=48 velocity=0 time=0.11160703124999999
EXTRACT: note_on channel=5 note=40 velocity=0 time=0
EXTRACT: note_on channel=6 note=60 velocity=0 time=0
EXTRACT: note_on channel=9 note=42 velocity=0 time=0
EXTRACT: note_on channel=4 note=47 velocity=110 time=0.007440468749999999
EXTRACT: note_on channel=5 note=39 velocity=110 time=0
EXTRACT: note_on channel=6 note=60 velocity=110 time=0
EXTRACT: note_on channel=9 note=35 velocity=110 time=0
EXTRACT: note_on channel=9 note=36 velocity=110 time=0
EXTRACT: note_on channel=9 note=42 velocity=110 time=0
EXTRACT: note_on channel=5 note=39 velocity=0 time=0.17113078124999997
EXTRACT: note_on channel=6 note=60 velocity=0 time=0
EXTRACT: note_on channel=9 note=35 velocity=0 time=0
EXTRACT: note_on channel=9 note=36 velocity=0 time=0
EXTRACT: note_on channel=9 note=42 velocity=0 time=0
EXTRACT: note_on channel=5 note=39 velocity=110 time=0.007440468749999999
EXTRACT: note_on channel=6 note=60 velocity=110 time=0
EXTRACT: note_on channel=9 note=42 velocity=110 time=0
EXTRACT: note_on channel=5 note=39 velocity=0 time=0.17113078124999997
EXTRACT: note_on channel=6 note=60 velocity=0 time=0
EXTRACT: note_on channel=9 note=42 velocity=0 time=0
EXTRACT: note_on channel=5 note=39 velocity=110 time=0.007440468749999999
EXTRACT: note_on channel=6 note=60 velocity=110 time=0
EXTRACT: note_on channel=9 note=38 velocity=110 time=0
EXTRACT: note_on channel=9 note=42 velocity=110 time=0
EXTRACT: note_on channel=5 note=39 velocity=0 time=0.17113078124999997
EXTRACT: note_on channel=6 note=60 velocity=0 time=0
EXTRACT: note_on channel=9 note=38 velocity=0 time=0
EXTRACT: note_on channel=9 note=42 velocity=0 time=0
EXTRACT: note_on channel=5 note=39 velocity=110 time=0.007440468749999999
EXTRACT: note_on channel=6 note=60 velocity=110 time=0
EXTRACT: note_on channel=9 note=42 velocity=110 time=0
EXTRACT: note_on channel=5 note=39 velocity=0 time=0.17113078124999997
EXTRACT: note_on channel=6 note=60 velocity=0 time=0
EXTRACT: note_on channel=9 note=42 velocity=0 time=0
EXTRACT: note_on channel=5 note=39 velocity=110 time=0.007440468749999999
EXTRACT: note_on channel=6 note=60 velocity=110 time=0
EXTRACT: note_on channel=9 note=55 velocity=110 time=0
EXTRACT: note_on channel=9 note=35 velocity=110 time=0
EXTRACT: note_on channel=9 note=36 velocity=110 time=0
EXTRACT: note_on channel=9 note=42 velocity=110 time=0
EXTRACT: note_on channel=5 note=39 velocity=0 time=0.17113078124999997
EXTRACT: note_on channel=6 note=60 velocity=0 time=0
EXTRACT: note_on channel=9 note=35 velocity=0 time=0
EXTRACT: note_on channel=9 note=36 velocity=0 time=0
EXTRACT: note_on channel=9 note=42 velocity=0 time=0
EXTRACT: note_on channel=5 note=39 velocity=110 time=0.007440468749999999
EXTRACT: note_on channel=6 note=60 velocity=110 time=0
EXTRACT: note_on channel=9 note=35 velocity=110 time=0
EXTRACT: note_on channel=9 note=36 velocity=110 time=0
EXTRACT: note_on channel=9 note=42 velocity=110 time=0
EXTRACT: note_on channel=5 note=39 velocity=0 time=0.17113078124999997
EXTRACT: note_on channel=6 note=60 velocity=0 time=0
EXTRACT: note_on channel=9 note=35 velocity=0 time=0
EXTRACT: note_on channel=9 note=36 velocity=0 time=0
EXTRACT: note_on channel=9 note=42 velocity=0 time=0
EXTRACT: note_on channel=2 note=57 velocity=60 time=0.007440468749999999
EXTRACT: note_on channel=3 note=57 velocity=110 time=0
EXTRACT: note_on channel=5 note=39 velocity=110 time=0
EXTRACT: note_on channel=6 note=60 velocity=110 time=0
EXTRACT: note_on channel=9 note=38 velocity=110 time=0
EXTRACT: note_on channel=9 note=42 velocity=110 time=0
EXTRACT: note_on channel=2 note=57 velocity=0 time=0.17113078124999997
EXTRACT: note_on channel=3 note=57 velocity=0 time=0
EXTRACT: note_on channel=5 note=39 velocity=0 time=0
EXTRACT: note_on channel=6 note=60 velocity=0 time=0
EXTRACT: note_on channel=9 note=38 velocity=0 time=0
EXTRACT: note_on channel=9 note=42 velocity=0 time=0
EXTRACT: note_on channel=2 note=57 velocity=60 time=0.007440468749999999
EXTRACT: note_on channel=3 note=57 velocity=110 time=0
EXTRACT: note_on channel=4 note=47 velocity=0 time=0
EXTRACT: note_on channel=6 note=60 velocity=110 time=0
EXTRACT: note_on channel=9 note=42 velocity=110 time=0
EXTRACT: note_on channel=9 note=55 velocity=0 time=0.05952374999999999
EXTRACT: note_on channel=2 note=57 velocity=0 time=0.11160703124999999
EXTRACT: note_on channel=3 note=57 velocity=0 time=0
EXTRACT: note_on channel=6 note=60 velocity=0 time=0
EXTRACT: note_on channel=9 note=42 velocity=0 time=0
EXTRACT: note_on channel=2 note=57 velocity=60 time=0.007440468749999999
EXTRACT: note_on channel=3 note=57 velocity=110 time=0
EXTRACT: program_change channel=4 program=26 time=0
EXTRACT: note_on channel=4 note=52 velocity=110 time=0
EXTRACT: note_on channel=6 note=60 velocity=110 time=0
EXTRACT: note_on channel=2 note=57 velocity=0 time=0.17113078124999997
EXTRACT: note_on channel=3 note=57 velocity=0 time=0
EXTRACT: note_on channel=2 note=57 velocity=60 time=0.007440468749999999
EXTRACT: note_on channel=3 note=57 velocity=110 time=0
EXTRACT: note_on channel=2 note=57 velocity=0 time=0.17113078124999997
EXTRACT: note_on channel=3 note=57 velocity=0 time=0
EXTRACT: note_on channel=2 note=57 velocity=60 time=0.007440468749999999
EXTRACT: note_on channel=3 note=57 velocity=110 time=0
EXTRACT: note_on channel=4 note=52 velocity=0 time=0.23809499999999997
EXTRACT: note_on channel=6 note=60 velocity=0 time=0
EXTRACT: note_on channel=2 note=57 velocity=0 time=0.11160703124999999
EXTRACT: note_on channel=3 note=57 velocity=0 time=0
EXTRACT: note_on channel=2 note=57 velocity=60 time=0.007440468749999999
EXTRACT: note_on channel=3 note=57 velocity=110 time=0
EXTRACT: note_on channel=4 note=47 velocity=110 time=0
EXTRACT: note_on channel=6 note=60 velocity=110 time=0
EXTRACT: note_on channel=9 note=55 velocity=110 time=0
EXTRACT: note_on channel=2 note=57 velocity=0 time=0.34970203124999993
EXTRACT: note_on channel=3 note=57 velocity=0 time=0
EXTRACT: note_on channel=2 note=55 velocity=60 time=0.007440468749999999
EXTRACT: note_on channel=3 note=55 velocity=110 time=0
EXTRACT: note_on channel=2 note=55 velocity=0 time=0.17113078124999997
EXTRACT: note_on channel=3 note=55 velocity=0 time=0
EXTRACT: note_on channel=6 note=60 velocity=0 time=0
EXTRACT: note_on channel=2 note=57 velocity=60 time=0.007440468749999999
EXTRACT: note_on channel=3 note=57 velocity=110 time=0
EXTRACT: note_on channel=6 note=60 velocity=110 time=0
EXTRACT: note_on channel=4 note=47 velocity=0 time=0.05952374999999999
EXTRACT: note_on channel=9 note=55 velocity=0 time=0
EXTRACT: note_on channel=6 note=60 velocity=0 time=0.11160703124999999
EXTRACT: note_on channel=4 note=52 velocity=110 time=0.007440468749999999
EXTRACT: note_on channel=6 note=60 velocity=110 time=0
EXTRACT: note_on channel=2 note=57 velocity=0 time=0.17113078124999997
EXTRACT: note_on channel=3 note=57 velocity=0 time=0
EXTRACT: note_on channel=2 note=55 velocity=60 time=0.007440468749999999
EXTRACT: note_on channel=3 note=55 velocity=110 time=0
EXTRACT: note_on channel=2 note=55 velocity=0 time=0.17113078124999997
EXTRACT: note_on channel=3 note=55 velocity=0 time=0
EXTRACT: note_on channel=2 note=57 velocity=60 time=0.007440468749999999
EXTRACT: note_on channel=3 note=57 velocity=110 time=0
EXTRACT: note_on channel=4 note=52 velocity=0 time=0.23809499999999997
EXTRACT: note_on channel=6 note=60 velocity=0 time=0
EXTRACT: note_on channel=4 note=47 velocity=110 time=0.11904749999999999
EXTRACT: note_on channel=6 note=60 velocity=110 time=0
EXTRACT: note_on channel=9 note=55 velocity=110 time=0
EXTRACT: note_on channel=2 note=57 velocity=0 time=0.23809499999999997
EXTRACT: note_on channel=3 note=57 velocity=0 time=0
EXTRACT: note_on channel=2 note=57 velocity=60 time=0.11904749999999999
EXTRACT: note_on channel=3 note=57 velocity=110 time=0
EXTRACT: note_on channel=2 note=57 velocity=0 time=0.17113078124999997
EXTRACT: note_on channel=3 note=57 velocity=0 time=0
EXTRACT: note_on channel=2 note=57 velocity=60 time=0.007440468749999999
EXTRACT: note_on channel=3 note=57 velocity=110 time=0
EXTRACT: note_on channel=4 note=47 velocity=0 time=0.05952374999999999
EXTRACT: note_on channel=6 note=60 velocity=0 time=0
EXTRACT: note_on channel=9 note=55 velocity=0 time=0
EXTRACT: note_on channel=2 note=57 velocity=0 time=0.11160703124999999
EXTRACT: note_on channel=3 note=57 velocity=0 time=0
EXTRACT: note_on channel=2 note=57 velocity=60 time=0.007440468749999999
EXTRACT: note_on channel=3 note=57 velocity=110 time=0
EXTRACT: note_on channel=4 note=51 velocity=110 time=0
EXTRACT: note_on channel=6 note=60 velocity=110 time=0
EXTRACT: note_on channel=2 note=57 velocity=0 time=0.17113078124999997
EXTRACT: note_on channel=3 note=57 velocity=0 time=0
EXTRACT: note_on channel=2 note=57 velocity=60 time=0.007440468749999999
EXTRACT: note_on channel=3 note=57 velocity=110 time=0
EXTRACT: note_on channel=2 note=57 velocity=0 time=0.17113078124999997
EXTRACT: note_on channel=3 note=57 velocity=0 time=0
EXTRACT: note_on channel=2 note=57 velocity=60 time=0.007440468749999999
EXTRACT: note_on channel=3 note=57 velocity=110 time=0
EXTRACT: note_on channel=2 note=57 velocity=0 time=0.17113078124999997
EXTRACT: note_on channel=3 note=57 velocity=0 time=0
EXTRACT: note_on channel=2 note=57 velocity=60 time=0.007440468749999999
EXTRACT: note_on channel=3 note=57 velocity=110 time=0
EXTRACT: note_on channel=4 note=51 velocity=0 time=0.05952374999999999
EXTRACT: note_on channel=6 note=60 velocity=0 time=0
EXTRACT: note_on channel=2 note=57 velocity=0 time=0.11160703124999999
EXTRACT: note_on channel=3 note=57 velocity=0 time=0
EXTRACT: note_on channel=2 note=57 velocity=60 time=0.007440468749999999
EXTRACT: note_on channel=3 note=57 velocity=110 time=0
EXTRACT: note_on channel=4 note=47 velocity=110 time=0
EXTRACT: note_on channel=6 note=60 velocity=110 time=0
EXTRACT: note_on channel=9 note=55 velocity=110 time=0
EXTRACT: note_on channel=2 note=57 velocity=0 time=0.34970203124999993
EXTRACT: note_on channel=3 note=57 velocity=0 time=0
EXTRACT: note_on channel=2 note=55 velocity=60 time=0.007440468749999999
EXTRACT: note_on channel=3 note=55 velocity=110 time=0
EXTRACT: note_on channel=2 note=55 velocity=0 time=0.17113078124999997
EXTRACT: note_on channel=3 note=55 velocity=0 time=0
EXTRACT: note_on channel=6 note=60 velocity=0 time=0
EXTRACT: note_on channel=2 note=57 velocity=60 time=0.007440468749999999
EXTRACT: note_on channel=3 note=57 velocity=110 time=0
EXTRACT: note_on channel=6 note=60 velocity=110 time=0
EXTRACT: note_on channel=4 note=47 velocity=0 time=0.05952374999999999
EXTRACT: note_on channel=9 note=55 velocity=0 time=0
EXTRACT: note_on channel=6 note=60 velocity=0 time=0.11160703124999999
EXTRACT: note_on channel=4 note=51 velocity=110 time=0.007440468749999999
EXTRACT: note_on channel=6 note=60 velocity=110 time=0
EXTRACT: note_on channel=2 note=57 velocity=0 time=0.17113078124999997
EXTRACT: note_on channel=3 note=57 velocity=0 time=0
EXTRACT: note_on channel=2 note=55 velocity=60 time=0.007440468749999999
EXTRACT: note_on channel=3 note=55 velocity=110 time=0
EXTRACT: note_on channel=2 note=55 velocity=0 time=0.17113078124999997
EXTRACT: note_on channel=3 note=55 velocity=0 time=0
EXTRACT: note_on channel=2 note=60 velocity=60 time=0.007440468749999999
EXTRACT: note_on channel=3 note=60 velocity=110 time=0
EXTRACT: note_on channel=4 note=51 velocity=0 time=0.23809499999999997
EXTRACT: note_on channel=6 note=60 velocity=0 time=0
EXTRACT: note_on channel=2 note=60 velocity=0 time=0.11160703124999999
EXTRACT: note_on channel=3 note=60 velocity=0 time=0
EXTRACT: note_on channel=2 note=59 velocity=60 time=0.007440468749999999
EXTRACT: note_on channel=3 note=59 velocity=110 time=0
EXTRACT: note_on channel=4 note=47 velocity=110 time=0
EXTRACT: note_on channel=6 note=60 velocity=110 time=0
EXTRACT: note_on channel=9 note=55 velocity=110 time=0
EXTRACT: note_on channel=2 note=59 velocity=0 time=0.34970203124999993
EXTRACT: note_on channel=3 note=59 velocity=0 time=0
EXTRACT: note_on channel=4 note=47 velocity=0 time=0.24553546874999999
EXTRACT: note_on channel=6 note=60 velocity=0 time=0
EXTRACT: note_on channel=9 note=55 velocity=0 time=0
EXTRACT: note_on channel=1 note=69 velocity=110 time=0.11904749999999999
EXTRACT: note_on channel=1 note=72 velocity=110 time=0
EXTRACT: program_change channel=4 program=30 time=0
EXTRACT: note_on channel=1 note=69 velocity=0 time=0.5952375
EXTRACT: note_on channel=1 note=72 velocity=0 time=0
EXTRACT: note_on channel=1 note=67 velocity=110 time=0.11904749999999999
EXTRACT: note_on channel=1 note=71 velocity=110 time=0
EXTRACT: note_on channel=1 note=67 velocity=0 time=0.5952375
EXTRACT: note_on channel=1 note=71 velocity=0 time=0
EXTRACT: note_on channel=1 note=66 velocity=110 time=0.11904749999999999
EXTRACT: note_on channel=1 note=69 velocity=110 time=0
EXTRACT: note_on channel=1 note=66 velocity=0 time=0.5952375
EXTRACT: note_on channel=1 note=69 velocity=0 time=0
EXTRACT: note_on channel=1 note=64 velocity=110 time=0.11904749999999999
EXTRACT: note_on channel=1 note=67 velocity=110 time=0
EXTRACT: note_on channel=1 note=64 velocity=0 time=0.5952375
EXTRACT: note_on channel=1 note=67 velocity=0 time=0
EXTRACT: note_on channel=1 note=63 velocity=110 time=0.11904749999999999
EXTRACT: note_on channel=1 note=66 velocity=110 time=0
EXTRACT: note_on channel=1 note=63 velocity=0 time=0.5952375
EXTRACT: note_on channel=1 note=66 velocity=0 time=0
EXTRACT: note_on channel=1 note=60 velocity=110 time=0.11904749999999999
EXTRACT: note_on channel=1 note=64 velocity=110 time=0
EXTRACT: note_on channel=1 note=60 velocity=0 time=0.5952375
EXTRACT: note_on channel=1 note=64 velocity=0 time=0
EXTRACT: note_on channel=1 note=59 velocity=110 time=0.11904749999999999
EXTRACT: note_on channel=1 note=63 velocity=110 time=0
EXTRACT: note_on channel=1 note=59 velocity=0 time=0.5952375
EXTRACT: note_on channel=1 note=63 velocity=0 time=0
EXTRACT: note_on channel=1 note=57 velocity=110 time=0.11904749999999999
EXTRACT: note_on channel=1 note=60 velocity=110 time=0
EXTRACT: note_on channel=1 note=57 velocity=0 time=0.5952375
EXTRACT: note_on channel=1 note=60 velocity=0 time=0
EXTRACT: note_on channel=2 note=76 velocity=60 time=0.11904749999999999
EXTRACT: note_on channel=5 note=40 velocity=110 time=0
EXTRACT: note_on channel=6 note=60 velocity=110 time=0
EXTRACT: note_on channel=5 note=40 velocity=0 time=0.17113078124999997
EXTRACT: note_on channel=5 note=40 velocity=110 time=0.007440468749999999
EXTRACT: note_on channel=5 note=40 velocity=0 time=0.17113078124999997
EXTRACT: note_on channel=5 note=40 velocity=110 time=0.007440468749999999
EXTRACT: note_on channel=5 note=40 velocity=0 time=0.17113078124999997
EXTRACT: note_on channel=6 note=60 velocity=0 time=0.06696421875
EXTRACT: note_on channel=6 note=60 velocity=110 time=0.11904749999999999
EXTRACT: note_on channel=9 note=55 velocity=110 time=0
EXTRACT: note_on channel=6 note=60 velocity=0 time=0.52827328125
EXTRACT: note_on channel=6 note=60 velocity=110 time=0.007440468749999999
EXTRACT: note_on channel=9 note=55 velocity=0 time=0.05952374999999999
EXTRACT: note_on channel=6 note=60 velocity=0 time=0.11160703124999999
EXTRACT: note_on channel=6 note=60 velocity=110 time=0.007440468749999999
EXTRACT: note_on channel=6 note=60 velocity=0 time=0.5952375
EXTRACT: note_on channel=5 note=47 velocity=110 time=0.11904749999999999
EXTRACT: note_on channel=6 note=60 velocity=110 time=0
EXTRACT: note_on channel=9 note=55 velocity=110 time=0
EXTRACT: note_on channel=5 note=47 velocity=0 time=0.17113078124999997
EXTRACT: note_on channel=5 note=47 velocity=110 time=0.007440468749999999
EXTRACT: note_on channel=5 note=47 velocity=0 time=0.17113078124999997
EXTRACT: note_on channel=5 note=47 velocity=110 time=0.007440468749999999
EXTRACT: note_on channel=5 note=47 velocity=0 time=0.17113078124999997
EXTRACT: note_on channel=2 note=76 velocity=0 time=0.007440468749999999
EXTRACT: note_on channel=6 note=60 velocity=0 time=0.05952374999999999
EXTRACT: note_on channel=9 note=55 velocity=0 time=0
EXTRACT: note_on channel=2 note=76 velocity=60 time=0.11904749999999999
EXTRACT: note_on channel=5 note=42 velocity=110 time=0
EXTRACT: note_on channel=6 note=60 velocity=110 time=0
EXTRACT: note_on channel=5 note=42 velocity=0 time=0.17113078124999997
EXTRACT: note_on channel=5 note=42 velocity=110 time=0.007440468749999999
EXTRACT: note_on channel=5 note=42 velocity=0 time=0.17113078124999997
EXTRACT: note_on channel=5 note=42 velocity=110 time=0.007440468749999999
EXTRACT: note_on channel=5 note=42 velocity=0 time=0.17113078124999997
EXTRACT: note_on channel=6 note=60 velocity=0 time=0.06696421875
EXTRACT: note_on channel=6 note=60 velocity=110 time=0.11904749999999999
EXTRACT: note_on channel=9 note=55 velocity=110 time=0
EXTRACT: note_on channel=6 note=60 velocity=0 time=0.52827328125
EXTRACT: note_on channel=6 note=60 velocity=110 time=0.007440468749999999
EXTRACT: note_on channel=9 note=55 velocity=0 time=0.05952374999999999
EXTRACT: note_on channel=6 note=60 velocity=0 time=0.11160703124999999
EXTRACT: note_on channel=6 note=60 velocity=110 time=0.007440468749999999
EXTRACT: note_on channel=6 note=60 velocity=0 time=0.5952375
EXTRACT: note_on channel=6 note=60 velocity=110 time=0.11904749999999999
EXTRACT: note_on channel=9 note=55 velocity=110 time=0
EXTRACT: note_on channel=2 note=76 velocity=0 time=0.53571375
EXTRACT: note_on channel=6 note=60 velocity=0 time=0.05952374999999999
EXTRACT: note_on channel=9 note=55 velocity=0 time=0
EXTRACT: note_on channel=2 note=69 velocity=60 time=0.11904749999999999
EXTRACT: note_on channel=5 note=40 velocity=110 time=0
EXTRACT: note_on channel=6 note=60 velocity=110 time=0
EXTRACT: note_on channel=5 note=40 velocity=0 time=0.17113078124999997
EXTRACT: note_on channel=5 note=40 velocity=110 time=0.007440468749999999
EXTRACT: note_on channel=5 note=40 velocity=0 time=0.17113078124999997
EXTRACT: note_on channel=5 note=40 velocity=110 time=0.007440468749999999
EXTRACT: note_on channel=5 note=40 velocity=0 time=0.17113078124999997
EXTRACT: note_on channel=6 note=60 velocity=0 time=0.06696421875
EXTRACT: note_on channel=6 note=60 velocity=110 time=0.11904749999999999
EXTRACT: note_on channel=9 note=55 velocity=110 time=0
EXTRACT: note_on channel=6 note=60 velocity=0 time=0.52827328125
EXTRACT: note_on channel=6 note=60 velocity=110 time=0.007440468749999999
EXTRACT: note_on channel=9 note=55 velocity=0 time=0.05952374999999999
EXTRACT: note_on channel=6 note=60 velocity=0 time=0.11160703124999999
EXTRACT: note_on channel=6 note=60 velocity=110 time=0.007440468749999999
EXTRACT: note_on channel=6 note=60 velocity=0 time=0.5952375
EXTRACT: note_on channel=5 note=47 velocity=110 time=0.11904749999999999
EXTRACT: note_on channel=6 note=60 velocity=110 time=0
EXTRACT: note_on channel=9 note=55 velocity=110 time=0
EXTRACT: note_on channel=5 note=47 velocity=0 time=0.17113078124999997
EXTRACT: note_on channel=5 note=47 velocity=110 time=0.007440468749999999
EXTRACT: note_on channel=5 note=47 velocity=0 time=0.17113078124999997
EXTRACT: note_on channel=5 note=47 velocity=110 time=0.007440468749999999
EXTRACT: note_on channel=5 note=47 velocity=0 time=0.17113078124999997
EXTRACT: note_on channel=2 note=69 velocity=0 time=0.007440468749999999
EXTRACT: note_on channel=6 note=60 velocity=0 time=0.05952374999999999
EXTRACT: note_on channel=9 note=55 velocity=0 time=0
EXTRACT: note_on channel=2 note=66 velocity=60 time=0.11904749999999999
EXTRACT: note_on channel=5 note=42 velocity=110 time=0
EXTRACT: note_on channel=6 note=60 velocity=110 time=0
EXTRACT: note_on channel=5 note=42 velocity=0 time=0.17113078124999997
EXTRACT: note_on channel=5 note=42 velocity=110 time=0.007440468749999999
EXTRACT: note_on channel=5 note=42 velocity=0 time=0.17113078124999997
EXTRACT: note_on channel=5 note=42 velocity=110 time=0.007440468749999999
EXTRACT: note_on channel=5 note=42 velocity=0 time=0.17113078124999997
EXTRACT: note_on channel=6 note=60 velocity=0 time=0.06696421875
EXTRACT: note_on channel=6 note=60 velocity=110 time=0.11904749999999999
EXTRACT: note_on channel=9 note=55 velocity=110 time=0
EXTRACT: note_on channel=6 note=60 velocity=0 time=0.52827328125
EXTRACT: note_on channel=2 note=66 velocity=0 time=0.007440468749999999
EXTRACT: note_on channel=6 note=60 velocity=110 time=0
EXTRACT: note_on channel=9 note=55 velocity=0 time=0.05952374999999999
EXTRACT: note_on channel=6 note=60 velocity=0 time=0.11160703124999999
EXTRACT: note_on channel=2 note=67 velocity=60 time=0.007440468749999999
EXTRACT: note_on channel=6 note=60 velocity=110 time=0
EXTRACT: note_on channel=2 note=67 velocity=0 time=0.5952375
EXTRACT: note_on channel=6 note=60 velocity=0 time=0
EXTRACT: note_on channel=2 note=64 velocity=60 time=0.11904749999999999
EXTRACT: note_on channel=6 note=60 velocity=110 time=0
EXTRACT: note_on channel=9 note=55 velocity=110 time=0
EXTRACT: note_on channel=2 note=64 velocity=0 time=0.34970203124999993
EXTRACT: note_on channel=2 note=66 velocity=60 time=0.007440468749999999
EXTRACT: note_on channel=6 note=60 velocity=0 time=0.23809499999999997
EXTRACT: note_on channel=9 note=55 velocity=0 time=0
EXTRACT: note_on channel=2 note=66 velocity=0 time=0.11160703124999999
EXTRACT: note_on channel=2 note=67 velocity=60 time=0.007440468749999999
EXTRACT: note_on channel=5 note=40 velocity=110 time=0
EXTRACT: note_on channel=6 note=60 velocity=110 time=0
EXTRACT: note_on channel=5 note=40 velocity=0 time=0.17113078124999997
EXTRACT: note_on channel=5 note=40 velocity=110 time=0.007440468749999999
EXTRACT: note_on channel=5 note=40 velocity=0 time=0.17113078124999997
EXTRACT: note_on channel=5 note=40 velocity=110 time=0.007440468749999999
EXTRACT: note_on channel=2 note=67 velocity=0 time=0.17113078124999997
EXTRACT: note_on channel=5 note=40 velocity=0 time=0
EXTRACT: note_on channel=6 note=60 velocity=0 time=0.06696421875
EXTRACT: note_on channel=2 note=64 velocity=60 time=0.11904749999999999
EXTRACT: note_on channel=6 note=60 velocity=110 time=0
EXTRACT: note_on channel=9 note=55 velocity=110 time=0
EXTRACT: note_on channel=2 note=64 velocity=0 time=0.34970203124999993
EXTRACT: note_on channel=2 note=71 velocity=60 time=0.007440468749999999
EXTRACT: note_on channel=6 note=60 velocity=0 time=0.17113078124999997
EXTRACT: note_on channel=6 note=60 velocity=110 time=0.007440468749999999
EXTRACT: note_on channel=9 note=55 velocity=0 time=0.05952374999999999
EXTRACT: note_on channel=6 note=60 velocity=0 time=0.11160703124999999
EXTRACT: note_on channel=6 note=60 velocity=110 time=0.007440468749999999
EXTRACT: note_on channel=2 note=71 velocity=0 time=0.23809499999999997
EXTRACT: note_on channel=6 note=60 velocity=0 time=0.3571425
EXTRACT: note_on channel=2 note=64 velocity=60 time=0.11904749999999999
EXTRACT: note_on channel=5 note=47 velocity=110 time=0
EXTRACT: note_on channel=6 note=60 velocity=110 time=0
EXTRACT: note_on channel=9 note=55 velocity=110 time=0
EXTRACT: note_on channel=5 note=47 velocity=0 time=0.17113078124999997
EXTRACT: note_on channel=5 note=47 velocity=110 time=0.007440468749999999
EXTRACT: note_on channel=2 note=64 velocity=0 time=0.17113078124999997
EXTRACT: note_on channel=5 note=47 velocity=0 time=0
EXTRACT: note_on channel=2 note=66 velocity=60 time=0.007440468749999999
EXTRACT: note_on channel=5 note=47 velocity=110 time=0
EXTRACT: note_on channel=5 note=47 velocity=0 time=0.17113078124999997
EXTRACT: note_on channel=6 note=60 velocity=0 time=0.06696421875
EXTRACT: note_on channel=9 note=55 velocity=0 time=0
EXTRACT: note_on channel=2 note=66 velocity=0 time=0.11160703124999999
EXTRACT: note_on channel=2 note=67 velocity=60 time=0.007440468749999999
EXTRACT: note_on channel=5 note=40 velocity=110 time=0
EXTRACT: note_on channel=6 note=60 velocity=110 time=0
EXTRACT: note_on channel=5 note=40 velocity=0 time=0.17113078124999997
EXTRACT: note_on channel=5 note=40 velocity=110 time=0.007440468749999999
EXTRACT: note_on channel=2 note=67 velocity=0 time=0.17113078124999997
EXTRACT: note_on channel=5 note=40 velocity=0 time=0
EXTRACT: note_on channel=2 note=64 velocity=60 time=0.007440468749999999
EXTRACT: note_on channel=5 note=40 velocity=110 time=0
EXTRACT: note_on channel=5 note=40 velocity=0 time=0.17113078124999997
EXTRACT: note_on channel=6 note=60 velocity=0 time=0.06696421875
EXTRACT: note_on channel=2 note=64 velocity=0 time=0.11160703124999999
EXTRACT: note_on channel=6 note=60 velocity=110 time=0.007440468749999999
EXTRACT: note_on channel=9 note=55 velocity=110 time=0
EXTRACT: note_on channel=2 note=72 velocity=60 time=0.3571425
EXTRACT: note_on channel=6 note=60 velocity=0 time=0.17113078124999997
EXTRACT: note_on channel=6 note=60 velocity=110 time=0.007440468749999999
EXTRACT: note_on channel=9 note=55 velocity=0 time=0.05952374999999999
EXTRACT: note_on channel=2 note=72 velocity=0 time=0.11160703124999999
EXTRACT: note_on channel=6 note=60 velocity=0 time=0
EXTRACT: note_on channel=2 note=71 velocity=60 time=0.007440468749999999
EXTRACT: note_on channel=6 note=60 velocity=110 time=0
EXTRACT: note_on channel=2 note=71 velocity=0 time=0.52827328125
EXTRACT: note_on channel=6 note=60 velocity=0 time=0.06696421875
EXTRACT: note_on channel=5 note=47 velocity=110 time=0.11904749999999999
EXTRACT: note_on channel=6 note=60 velocity=110 time=0
EXTRACT: note_on channel=9 note=55 velocity=110 time=0
EXTRACT: note_on channel=5 note=47 velocity=0 time=0.17113078124999997
EXTRACT: note_on channel=5 note=47 velocity=110 time=0.007440468749999999
EXTRACT: note_on channel=5 note=47 velocity=0 time=0.17113078124999997
EXTRACT: note_on channel=2 note=64 velocity=60 time=0.007440468749999999
EXTRACT: note_on channel=5 note=47 velocity=110 time=0
EXTRACT: note_on channel=5 note=47 velocity=0 time=0.17113078124999997
EXTRACT: note_on channel=6 note=60 velocity=0 time=0.06696421875
EXTRACT: note_on channel=9 note=55 velocity=0 time=0
EXTRACT: note_on channel=2 note=64 velocity=0 time=0.11160703124999999
EXTRACT: note_on channel=1 note=69 velocity=110 time=0.007440468749999999
EXTRACT: note_on channel=1 note=72 velocity=110 time=0
EXTRACT: note_on channel=2 note=66 velocity=60 time=0
EXTRACT: note_on channel=5 note=42 velocity=110 time=0
EXTRACT: note_on channel=6 note=60 velocity=110 time=0
EXTRACT: note_on channel=5 note=42 velocity=0 time=0.17113078124999997
EXTRACT: note_on channel=5 note=42 velocity=110 time=0.007440468749999999
EXTRACT: note_on channel=5 note=42 velocity=0 time=0.17113078124999997
EXTRACT: note_on channel=5 note=42 velocity=110 time=0.007440468749999999
EXTRACT: note_on channel=2 note=66 velocity=0 time=0.17113078124999997
EXTRACT: note_on channel=5 note=42 velocity=0 time=0
EXTRACT: note_on channel=1 note=69 velocity=0 time=0.06696421875
EXTRACT: note_on channel=1 note=72 velocity=0 time=0
EXTRACT: note_on channel=6 note=60 velocity=0 time=0
EXTRACT: note_on channel=1 note=67 velocity=110 time=0.11904749999999999
EXTRACT: note_on channel=1 note=71 velocity=110 time=0
EXTRACT: note_on channel=2 note=64 velocity=60 time=0
EXTRACT: note_on channel=6 note=60 velocity=110 time=0
EXTRACT: note_on channel=9 note=55 velocity=110 time=0
EXTRACT: note_on channel=2 note=64 velocity=0 time=0.34970203124999993
EXTRACT: note_on channel=2 note=66 velocity=60 time=0.007440468749999999
EXTRACT: note_on channel=6 note=60 velocity=0 time=0.17113078124999997
EXTRACT: note_on channel=6 note=60 velocity=110 time=0.007440468749999999
EXTRACT: note_on channel=1 note=67 velocity=0 time=0.05952374999999999
EXTRACT: note_on channel=1 note=71 velocity=0 time=0
EXTRACT: note_on channel=9 note=55 velocity=0 time=0
EXTRACT: note_on channel=6 note=60 velocity=0 time=0.11160703124999999
EXTRACT: note_on channel=1 note=66 velocity=110 time=0.007440468749999999
EXTRACT: note_on channel=1 note=69 velocity=110 time=0
EXTRACT: note_on channel=6 note=60 velocity=110 time=0
EXTRACT: note_on channel=2 note=66 velocity=0 time=0.17113078124999997
EXTRACT: note_on channel=2 note=64 velocity=60 time=0.18601171874999997
EXTRACT: note_on channel=1 note=66 velocity=0 time=0.23809499999999997
EXTRACT: note_on channel=1 note=69 velocity=0 time=0
EXTRACT: note_on channel=6 note=60 velocity=0 time=0
EXTRACT: note_on channel=1 note=64 velocity=110 time=0.11904749999999999
EXTRACT: note_on channel=1 note=67 velocity=110 time=0
EXTRACT: note_on channel=5 note=47 velocity=110 time=0
EXTRACT: note_on channel=6 note=60 velocity=110 time=0
EXTRACT: note_on channel=9 note=55 velocity=110 time=0
EXTRACT: note_on channel=2 note=64 velocity=0 time=0.17113078124999997
EXTRACT: note_on channel=5 note=47 velocity=0 time=0
EXTRACT: note_on channel=5 note=47 velocity=110 time=0.007440468749999999
EXTRACT: note_on channel=5 note=47 velocity=0 time=0.17113078124999997
EXTRACT: note_on channel=2 note=67 velocity=60 time=0.007440468749999999
EXTRACT: note_on channel=5 note=47 velocity=110 time=0
EXTRACT: note_on channel=5 note=47 velocity=0 time=0.17113078124999997
EXTRACT: note_on channel=1 note=64 velocity=0 time=0.06696421875
EXTRACT: note_on channel=1 note=67 velocity=0 time=0
EXTRACT: note_on channel=6 note=60 velocity=0 time=0
EXTRACT: note_on channel=9 note=55 velocity=0 time=0
EXTRACT: note_on channel=1 note=63 velocity=110 time=0.11904749999999999
EXTRACT: note_on channel=1 note=66 velocity=110 time=0
EXTRACT: note_on channel=5 note=35 velocity=110 time=0
EXTRACT: note_on channel=6 note=60 velocity=110 time=0
EXTRACT: note_on channel=5 note=35 velocity=0 time=0.17113078124999997
EXTRACT: note_on channel=5 note=35 velocity=110 time=0.007440468749999999
EXTRACT: note_on channel=5 note=35 velocity=0 time=0.17113078124999997
EXTRACT: note_on channel=5 note=35 velocity=110 time=0.007440468749999999
EXTRACT: note_on channel=5 note=35 velocity=0 time=0.17113078124999997
EXTRACT: note_on channel=1 note=63 velocity=0 time=0.06696421875
EXTRACT: note_on channel=1 note=66 velocity=0 time=0
EXTRACT: note_on channel=6 note=60 velocity=0 time=0
EXTRACT: note_on channel=1 note=60 velocity=110 time=0.11904749999999999
EXTRACT: note_on channel=1 note=64 velocity=110 time=0
EXTRACT: note_on channel=9 note=55 velocity=110 time=0
EXTRACT: note_on channel=2 note=67 velocity=0 time=0.34970203124999993
EXTRACT: note_on channel=2 note=66 velocity=60 time=0.007440468749999999
EXTRACT: note_on channel=6 note=60 velocity=110 time=0.17857125
EXTRACT: note_on channel=1 note=60 velocity=0 time=0.05952374999999999
EXTRACT: note_on channel=1 note=64 velocity=0 time=0
EXTRACT: note_on channel=9 note=55 velocity=0 time=0
EXTRACT: note_on channel=6 note=60 velocity=0 time=0.11160703124999999
EXTRACT: note_on channel=1 note=59 velocity=110 time=0.007440468749999999
EXTRACT: note_on channel=1 note=63 velocity=110 time=0
EXTRACT: note_on channel=6 note=60 velocity=110 time=0
EXTRACT: note_on channel=2 note=66 velocity=0 time=0.23809499999999997
EXTRACT: note_on channel=6 note=60 velocity=0 time=0.11160703124999999
EXTRACT: note_on channel=6 note=60 velocity=110 time=0.007440468749999999
EXTRACT: note_on channel=9 note=35 velocity=110 time=0
EXTRACT: note_on channel=9 note=36 velocity=110 time=0
EXTRACT: note_on channel=1 note=59 velocity=0 time=0.23809499999999997
EXTRACT: note_on channel=1 note=63 velocity=0 time=0
EXTRACT: note_on channel=6 note=60 velocity=0 time=0.11160703124999999
EXTRACT: note_on channel=9 note=35 velocity=0 time=0
EXTRACT: note_on channel=9 note=36 velocity=0 time=0
EXTRACT: note_on channel=1 note=57 velocity=110 time=0.007440468749999999
EXTRACT: note_on channel=1 note=60 velocity=110 time=0
EXTRACT: note_on channel=6 note=60 velocity=110 time=0
EXTRACT: note_on channel=9 note=55 velocity=110 time=0
EXTRACT: note_on channel=9 note=38 velocity=110 time=0
EXTRACT: note_on channel=6 note=60 velocity=0 time=0.17113078124999997
EXTRACT: note_on channel=6 note=60 velocity=110 time=0.007440468749999999
EXTRACT: note_on channel=6 note=60 velocity=0 time=0.17113078124999997
EXTRACT: note_on channel=6 note=60 velocity=110 time=0.007440468749999999
EXTRACT: note_on channel=6 note=60 velocity=0 time=0.17113078124999997
EXTRACT: note_on channel=6 note=60 velocity=110 time=0.007440468749999999
EXTRACT: note_on channel=1 note=57 velocity=0 time=0.05952374999999999
EXTRACT: note_on channel=1 note=60 velocity=0 time=0
EXTRACT: note_on channel=9 note=55 velocity=0 time=0
EXTRACT: note_on channel=9 note=38 velocity=0 time=0
EXTRACT: note_on channel=6 note=60 velocity=0 time=0.11160703124999999
EXTRACT: note_on channel=2 note=64 velocity=60 time=0.007440468749999999
EXTRACT: note_on channel=2 note=67 velocity=60 time=0
EXTRACT: note_on channel=3 note=67 velocity=110 time=0
EXTRACT: note_on channel=4 note=40 velocity=110 time=0
EXTRACT: note_on channel=5 note=40 velocity=110 time=0
EXTRACT: note_on channel=6 note=60 velocity=110 time=0
EXTRACT: note_on channel=9 note=35 velocity=110 time=0
EXTRACT: note_on channel=9 note=36 velocity=110 time=0
EXTRACT: note_on channel=9 note=42 velocity=110 time=0
EXTRACT: note_on channel=2 note=64 velocity=0 time=0.17113078124999997
EXTRACT: note_on channel=2 note=67 velocity=0 time=0
EXTRACT: note_on channel=3 note=67 velocity=0 time=0
EXTRACT: note_on channel=4 note=40 velocity=0 time=0
EXTRACT: note_on channel=5 note=40 velocity=0 time=0
EXTRACT: note_on channel=6 note=60 velocity=0 time=0
EXTRACT: note_on channel=9 note=35 velocity=0 time=0
EXTRACT: note_on channel=9 note=36 velocity=0 time=0
EXTRACT: note_on channel=9 note=42 velocity=0 time=0
EXTRACT: note_on channel=2 note=64 velocity=60 time=0.007440468749999999
EXTRACT: note_on channel=2 note=67 velocity=60 time=0
EXTRACT: note_on channel=3 note=67 velocity=110 time=0
EXTRACT: note_on channel=4 note=40 velocity=110 time=0
EXTRACT: note_on channel=5 note=40 velocity=110 time=0
EXTRACT: note_on channel=6 note=60 velocity=110 time=0
EXTRACT: note_on channel=9 note=42 velocity=110 time=0
EXTRACT: note_on channel=2 note=64 velocity=0 time=0.17113078124999997
EXTRACT: note_on channel=2 note=67 velocity=0 time=0
EXTRACT: note_on channel=3 note=67 velocity=0 time=0
EXTRACT: note_on channel=4 note=40 velocity=0 time=0
EXTRACT: note_on channel=5 note=40 velocity=0 time=0
EXTRACT: note_on channel=6 note=60 velocity=0 time=0
EXTRACT: note_on channel=9 note=42 velocity=0 time=0
EXTRACT: note_on channel=2 note=64 velocity=60 time=0.007440468749999999
EXTRACT: note_on channel=2 note=67 velocity=60 time=0
EXTRACT: note_on channel=3 note=67 velocity=110 time=0
EXTRACT: note_on channel=4 note=40 velocity=110 time=0
EXTRACT: note_on channel=5 note=40 velocity=110 time=0
EXTRACT: note_on channel=6 note=60 velocity=110 time=0
EXTRACT: note_on channel=9 note=38 velocity=110 time=0
EXTRACT: note_on channel=9 note=42 velocity=110 time=0
EXTRACT: note_on channel=2 note=64 velocity=0 time=0.17113078124999997
EXTRACT: note_on channel=2 note=67 velocity=0 time=0
EXTRACT: note_on channel=3 note=67 velocity=0 time=0
EXTRACT: note_on channel=4 note=40 velocity=0 time=0
EXTRACT: note_on channel=5 note=40 velocity=0 time=0
EXTRACT: note_on channel=6 note=60 velocity=0 time=0
EXTRACT: note_on channel=9 note=38 velocity=0 time=0
EXTRACT: note_on channel=9 note=42 velocity=0 time=0
EXTRACT: note_on channel=2 note=64 velocity=60 time=0.007440468749999999
EXTRACT: note_on channel=2 note=67 velocity=60 time=0
EXTRACT: note_on channel=3 note=67 velocity=110 time=0
EXTRACT: note_on channel=4 note=40 velocity=110 time=0
EXTRACT: note_on channel=6 note=60 velocity=110 time=0
EXTRACT: note_on channel=9 note=42 velocity=110 time=0
EXTRACT: note_on channel=2 note=64 velocity=0 time=0.17113078124999997
EXTRACT: note_on channel=2 note=67 velocity=0 time=0
EXTRACT: note_on channel=3 note=67 velocity=0 time=0
EXTRACT: note_on channel=4 note=40 velocity=0 time=0
EXTRACT: note_on channel=6 note=60 velocity=0 time=0
EXTRACT: note_on channel=9 note=42 velocity=0 time=0
EXTRACT: note_on channel=2 note=63 velocity=60 time=0.007440468749999999
EXTRACT: note_on channel=2 note=66 velocity=60 time=0
EXTRACT: note_on channel=3 note=66 velocity=110 time=0
EXTRACT: note_on channel=4 note=47 velocity=110 time=0
EXTRACT: note_on channel=5 note=40 velocity=110 time=0
EXTRACT: note_on channel=6 note=60 velocity=110 time=0
EXTRACT: note_on channel=9 note=55 velocity=110 time=0
EXTRACT: note_on channel=9 note=35 velocity=110 time=0
EXTRACT: note_on channel=9 note=36 velocity=110 time=0
EXTRACT: note_on channel=9 note=42 velocity=110 time=0
EXTRACT: note_on channel=2 note=63 velocity=0 time=0.17113078124999997
EXTRACT: note_on channel=2 note=66 velocity=0 time=0
EXTRACT: note_on channel=3 note=66 velocity=0 time=0
EXTRACT: note_on channel=4 note=47 velocity=0 time=0
EXTRACT: note_on channel=5 note=40 velocity=0 time=0
EXTRACT: note_on channel=6 note=60 velocity=0 time=0
EXTRACT: note_on channel=9 note=35 velocity=0 time=0
EXTRACT: note_on channel=9 note=36 velocity=0 time=0
EXTRACT: note_on channel=9 note=42 velocity=0 time=0
EXTRACT: note_on channel=2 note=63 velocity=60 time=0.007440468749999999
EXTRACT: note_on channel=2 note=66 velocity=60 time=0
EXTRACT: note_on channel=3 note=66 velocity=110 time=0
EXTRACT: note_on channel=4 note=47 velocity=110 time=0
EXTRACT: note_on channel=5 note=40 velocity=110 time=0
EXTRACT: note_on channel=6 note=60 velocity=110 time=0
EXTRACT: note_on channel=9 note=35 velocity=110 time=0
EXTRACT: note_on channel=9 note=36 velocity=110 time=0
EXTRACT: note_on channel=9 note=42 velocity=110 time=0
EXTRACT: note_on channel=2 note=63 velocity=0 time=0.17113078124999997
EXTRACT: note_on channel=2 note=66 velocity=0 time=0
EXTRACT: note_on channel=3 note=66 velocity=0 time=0
EXTRACT: note_on channel=4 note=47 velocity=0 time=0
EXTRACT: note_on channel=5 note=40 velocity=0 time=0
EXTRACT: note_on channel=6 note=60 velocity=0 time=0
EXTRACT: note_on channel=9 note=35 velocity=0 time=0
EXTRACT: note_on channel=9 note=36 velocity=0 time=0
EXTRACT: note_on channel=9 note=42 velocity=0 time=0
EXTRACT: note_on channel=2 note=63 velocity=60 time=0.007440468749999999
EXTRACT: note_on channel=2 note=66 velocity=60 time=0
EXTRACT: note_on channel=3 note=66 velocity=110 time=0
EXTRACT: note_on channel=4 note=47 velocity=110 time=0
EXTRACT: note_on channel=5 note=40 velocity=110 time=0
EXTRACT: note_on channel=6 note=60 velocity=110 time=0
EXTRACT: note_on channel=9 note=38 velocity=110 time=0
EXTRACT: note_on channel=9 note=42 velocity=110 time=0
EXTRACT: note_on channel=4 note=47 velocity=0 time=0.17113078124999997
EXTRACT: note_on channel=5 note=40 velocity=0 time=0
EXTRACT: note_on channel=6 note=60 velocity=0 time=0
EXTRACT: note_on channel=9 note=38 velocity=0 time=0
EXTRACT: note_on channel=9 note=42 velocity=0 time=0
EXTRACT: note_on channel=4 note=47 velocity=110 time=0.007440468749999999
EXTRACT: note_on channel=6 note=60 velocity=110 time=0
EXTRACT: note_on channel=9 note=42 velocity=110 time=0
EXTRACT: note_on channel=9 note=55 velocity=0 time=0.05952374999999999
EXTRACT: note_on channel=2 note=63 velocity=0 time=0.11160703124999999
EXTRACT: note_on channel=2 note=66 velocity=0 time=0
EXTRACT: note_on channel=3 note=66 velocity=0 time=0
EXTRACT: note_on channel=4 note=47 velocity=0 time=0
EXTRACT: note_on channel=6 note=60 velocity=0 time=0
EXTRACT: note_on channel=9 note=42 velocity=0 time=0
EXTRACT: note_on channel=2 note=60 velocity=60 time=0.007440468749999999
EXTRACT: note_on channel=2 note=64 velocity=60 time=0
EXTRACT: note_on channel=3 note=64 velocity=110 time=0
EXTRACT: note_on channel=4 note=48 velocity=110 time=0
EXTRACT: note_on channel=5 note=35 velocity=110 time=0
EXTRACT: note_on channel=6 note=60 velocity=110 time=0
EXTRACT: note_on channel=9 note=35 velocity=110 time=0
EXTRACT: note_on channel=9 note=36 velocity=110 time=0
EXTRACT: note_on channel=9 note=42 velocity=110 time=0
EXTRACT: note_on channel=2 note=60 velocity=0 time=0.17113078124999997
EXTRACT: note_on channel=2 note=64 velocity=0 time=0
EXTRACT: note_on channel=3 note=64 velocity=0 time=0
EXTRACT: note_on channel=4 note=48 velocity=0 time=0
EXTRACT: note_on channel=5 note=35 velocity=0 time=0
EXTRACT: note_on channel=6 note=60 velocity=0 time=0
EXTRACT: note_on channel=9 note=35 velocity=0 time=0
EXTRACT: note_on channel=9 note=36 velocity=0 time=0
EXTRACT: note_on channel=9 note=42 velocity=0 time=0
EXTRACT: note_on channel=2 note=60 velocity=60 time=0.007440468749999999
EXTRACT: note_on channel=2 note=64 velocity=60 time=0
EXTRACT: note_on channel=3 note=64 velocity=110 time=0
EXTRACT: note_on channel=4 note=48 velocity=110 time=0
EXTRACT: note_on channel=5 note=35 velocity=110 time=0
EXTRACT: note_on channel=6 note=60 velocity=110 time=0
EXTRACT: note_on channel=9 note=42 velocity=110 time=0
EXTRACT: note_on channel=2 note=60 velocity=0 time=0.17113078124999997
EXTRACT: note_on channel=2 note=64 velocity=0 time=0
EXTRACT: note_on channel=3 note=64 velocity=0 time=0
EXTRACT: note_on channel=4 note=48 velocity=0 time=0
EXTRACT: note_on channel=5 note=35 velocity=0 time=0
EXTRACT: note_on channel=6 note=60 velocity=0 time=0
EXTRACT: note_on channel=9 note=42 velocity=0 time=0
EXTRACT: note_on channel=2 note=60 velocity=60 time=0.007440468749999999
EXTRACT: note_on channel=2 note=64 velocity=60 time=0
EXTRACT: note_on channel=3 note=64 velocity=110 time=0
EXTRACT: note_on channel=4 note=48 velocity=110 time=0
EXTRACT: note_on channel=5 note=35 velocity=110 time=0
EXTRACT: note_on channel=6 note=60 velocity=110 time=0
EXTRACT: note_on channel=9 note=38 velocity=110 time=0
EXTRACT: note_on channel=9 note=42 velocity=110 time=0
EXTRACT: note_on channel=5 note=35 velocity=0 time=0.17113078124999997
EXTRACT: note_on channel=6 note=60 velocity=0 time=0
EXTRACT: note_on channel=9 note=38 velocity=0 time=0
EXTRACT: note_on channel=9 note=42 velocity=0 time=0
EXTRACT: note_on channel=6 note=60 velocity=110 time=0.007440468749999999
EXTRACT: note_on channel=9 note=42 velocity=110 time=0
EXTRACT: note_on channel=2 note=60 velocity=0 time=0.17113078124999997
EXTRACT: note_on channel=2 note=64 velocity=0 time=0
EXTRACT: note_on channel=3 note=64 velocity=0 time=0
EXTRACT: note_on channel=4 note=48 velocity=0 time=0
EXTRACT: note_on channel=6 note=60 velocity=0 time=0
EXTRACT: note_on channel=9 note=42 velocity=0 time=0
EXTRACT: note_on channel=2 note=60 velocity=60 time=0.007440468749999999
EXTRACT: note_on channel=2 note=64 velocity=60 time=0
EXTRACT: note_on channel=3 note=64 velocity=110 time=0
EXTRACT: note_on channel=4 note=48 velocity=110 time=0
EXTRACT: note_on channel=5 note=35 velocity=110 time=0
EXTRACT: note_on channel=6 note=60 velocity=110 time=0
EXTRACT: note_on channel=9 note=55 velocity=110 time=0
EXTRACT: note_on channel=9 note=35 velocity=110 time=0
EXTRACT: note_on channel=9 note=36 velocity=110 time=0
EXTRACT: note_on channel=9 note=42 velocity=110 time=0
EXTRACT: note_on channel=4 note=48 velocity=0 time=0.17113078124999997
EXTRACT: note_on channel=5 note=35 velocity=0 time=0
EXTRACT: note_on channel=6 note=60 velocity=0 time=0
EXTRACT: note_on channel=9 note=35 velocity=0 time=0
EXTRACT: note_on channel=9 note=36 velocity=0 time=0
EXTRACT: note_on channel=9 note=42 velocity=0 time=0
EXTRACT: note_on channel=4 note=48 velocity=110 time=0.007440468749999999
EXTRACT: note_on channel=5 note=35 velocity=110 time=0
EXTRACT: note_on channel=6 note=60 velocity=110 time=0
EXTRACT: note_on channel=9 note=35 velocity=110 time=0
EXTRACT: note_on channel=9 note=36 velocity=110 time=0
EXTRACT: note_on channel=9 note=42 velocity=110 time=0
EXTRACT: note_on channel=2 note=60 velocity=0 time=0.17113078124999997
EXTRACT: note_on channel=2 note=64 velocity=0 time=0
EXTRACT: note_on channel=3 note=64 velocity=0 time=0
EXTRACT: note_on channel=4 note=48 velocity=0 time=0
EXTRACT: note_on channel=5 note=35 velocity=0 time=0
EXTRACT: note_on channel=6 note=60 velocity=0 time=0
EXTRACT: note_on channel=9 note=35 velocity=0 time=0
EXTRACT: note_on channel=9 note=36 velocity=0 time=0
EXTRACT: note_on channel=9 note=42 velocity=0 time=0
EXTRACT: note_on channel=2 note=59 velocity=60 time=0.007440468749999999
EXTRACT: note_on channel=2 note=63 velocity=60 time=0
EXTRACT: note_on channel=3 note=62 velocity=110 time=0
EXTRACT: note_on channel=4 note=48 velocity=110 time=0
EXTRACT: note_on channel=5 note=35 velocity=110 time=0
EXTRACT: note_on channel=6 note=60 velocity=110 time=0
EXTRACT: note_on channel=9 note=38 velocity=110 time=0
EXTRACT: note_on channel=9 note=42 velocity=110 time=0
EXTRACT: note_on channel=5 note=35 velocity=0 time=0.17113078124999997
EXTRACT: note_on channel=6 note=60 velocity=0 time=0
EXTRACT: note_on channel=9 note=38 velocity=0 time=0
EXTRACT: note_on channel=9 note=42 velocity=0 time=0
EXTRACT: note_on channel=6 note=60 velocity=110 time=0.007440468749999999
EXTRACT: note_on channel=9 note=42 velocity=110 time=0
EXTRACT: note_on channel=9 note=55 velocity=0 time=0.05952374999999999
EXTRACT: note_on channel=2 note=59 velocity=0 time=0.11160703124999999
EXTRACT: note_on channel=2 note=63 velocity=0 time=0
EXTRACT: note_on channel=3 note=62 velocity=0 time=0
EXTRACT: note_on channel=4 note=48 velocity=0 time=0
EXTRACT: note_on channel=6 note=60 velocity=0 time=0
EXTRACT: note_on channel=9 note=42 velocity=0 time=0
EXTRACT: note_on channel=4 note=40 velocity=110 time=0.007440468749999999
EXTRACT: note_on channel=5 note=40 velocity=110 time=0
EXTRACT: note_on channel=6 note=60 velocity=110 time=0
EXTRACT: note_on channel=9 note=35 velocity=110 time=0
EXTRACT: note_on channel=9 note=36 velocity=110 time=0
EXTRACT: note_on channel=9 note=42 velocity=110 time=0
EXTRACT: note_on channel=4 note=40 velocity=0 time=0.17113078124999997
EXTRACT: note_on channel=5 note=40 velocity=0 time=0
EXTRACT: note_on channel=6 note=60 velocity=0 time=0
EXTRACT: note_on channel=9 note=35 velocity=0 time=0
EXTRACT: note_on channel=9 note=36 velocity=0 time=0
EXTRACT: note_on channel=9 note=42 velocity=0 time=0
EXTRACT: note_on channel=4 note=40 velocity=110 time=0.007440468749999999
EXTRACT: note_on channel=5 note=40 velocity=110 time=0
EXTRACT: note_on channel=6 note=60 velocity=110 time=0
EXTRACT: note_on channel=9 note=42 velocity=110 time=0
EXTRACT: note_on channel=4 note=40 velocity=0 time=0.17113078124999997
EXTRACT: note_on channel=5 note=40 velocity=0 time=0
EXTRACT: note_on channel=6 note=60 velocity=0 time=0
EXTRACT: note_on channel=9 note=42 velocity=0 time=0
EXTRACT: note_on channel=4 note=40 velocity=110 time=0.007440468749999999
EXTRACT: note_on channel=5 note=40 velocity=110 time=0
EXTRACT: note_on channel=6 note=60 velocity=110 time=0
EXTRACT: note_on channel=9 note=38 velocity=110 time=0
EXTRACT: note_on channel=9 note=42 velocity=110 time=0
EXTRACT: note_on channel=4 note=40 velocity=0 time=0.17113078124999997
EXTRACT: note_on channel=5 note=40 velocity=0 time=0
EXTRACT: note_on channel=6 note=60 velocity=0 time=0
EXTRACT: note_on channel=9 note=38 velocity=0 time=0
EXTRACT: note_on channel=9 note=42 velocity=0 time=0
EXTRACT: note_on channel=4 note=40 velocity=110 time=0.007440468749999999
EXTRACT: note_on channel=5 note=40 velocity=110 time=0
EXTRACT: note_on channel=6 note=60 velocity=110 time=0
EXTRACT: note_on channel=9 note=42 velocity=110 time=0
EXTRACT: note_on channel=4 note=40 velocity=0 time=0.17113078124999997
EXTRACT: note_on channel=5 note=40 velocity=0 time=0
EXTRACT: note_on channel=6 note=60 velocity=0 time=0
EXTRACT: note_on channel=9 note=42 velocity=0 time=0
EXTRACT: note_on channel=4 note=48 velocity=110 time=0.007440468749999999
EXTRACT: note_on channel=5 note=40 velocity=110 time=0
EXTRACT: note_on channel=6 note=60 velocity=110 time=0
EXTRACT: note_on channel=9 note=55 velocity=110 time=0
EXTRACT: note_on channel=9 note=35 velocity=110 time=0
EXTRACT: note_on channel=9 note=36 velocity=110 time=0
EXTRACT: note_on channel=9 note=42 velocity=110 time=0
EXTRACT: note_on channel=4 note=48 velocity=0 time=0.17113078124999997
EXTRACT: note_on channel=5 note=40 velocity=0 time=0
EXTRACT: note_on channel=6 note=60 velocity=0 time=0
EXTRACT: note_on channel=9 note=35 velocity=0 time=0
EXTRACT: note_on channel=9 note=36 velocity=0 time=0
EXTRACT: note_on channel=9 note=42 velocity=0 time=0
EXTRACT: note_on channel=4 note=48 velocity=110 time=0.007440468749999999
EXTRACT: note_on channel=5 note=40 velocity=110 time=0
EXTRACT: note_on channel=6 note=60 velocity=110 time=0
EXTRACT: note_on channel=9 note=35 velocity=110 time=0
EXTRACT: note_on channel=9 note=36 velocity=110 time=0
EXTRACT: note_on channel=9 note=42 velocity=110 time=0
EXTRACT: note_on channel=4 note=48 velocity=0 time=0.17113078124999997
EXTRACT: note_on channel=5 note=40 velocity=0 time=0
EXTRACT: note_on channel=6 note=60 velocity=0 time=0
EXTRACT: note_on channel=9 note=35 velocity=0 time=0
EXTRACT: note_on channel=9 note=36 velocity=0 time=0
EXTRACT: note_on channel=9 note=42 velocity=0 time=0
EXTRACT: note_on channel=4 note=48 velocity=110 time=0.007440468749999999
EXTRACT: note_on channel=5 note=40 velocity=110 time=0
EXTRACT: note_on channel=6 note=60 velocity=110 time=0
EXTRACT: note_on channel=9 note=38 velocity=110 time=0
EXTRACT: note_on channel=9 note=42 velocity=110 time=0
EXTRACT: note_on channel=4 note=48 velocity=0 time=0.17113078124999997
EXTRACT: note_on channel=5 note=40 velocity=0 time=0
EXTRACT: note_on channel=6 note=60 velocity=0 time=0
EXTRACT: note_on channel=9 note=38 velocity=0 time=0
EXTRACT: note_on channel=9 note=42 velocity=0 time=0
EXTRACT: note_on channel=4 note=48 velocity=110 time=0.007440468749999999
EXTRACT: note_on channel=5 note=40 velocity=110 time=0
EXTRACT: note_on channel=6 note=60 velocity=110 time=0
EXTRACT: note_on channel=9 note=42 velocity=110 time=0
EXTRACT: note_on channel=9 note=55 velocity=0 time=0.05952374999999999
EXTRACT: note_on channel=4 note=48 velocity=0 time=0.11160703124999999
EXTRACT: note_on channel=5 note=40 velocity=0 time=0
EXTRACT: note_on channel=6 note=60 velocity=0 time=0
EXTRACT: note_on channel=9 note=42 velocity=0 time=0
EXTRACT: note_on channel=4 note=47 velocity=110 time=0.007440468749999999
EXTRACT: note_on channel=5 note=39 velocity=110 time=0
EXTRACT: note_on channel=6 note=60 velocity=110 time=0
EXTRACT: note_on channel=9 note=35 velocity=110 time=0
EXTRACT: note_on channel=9 note=36 velocity=110 time=0
EXTRACT: note_on channel=9 note=42 velocity=110 time=0
EXTRACT: note_on channel=5 note=39 velocity=0 time=0.17113078124999997
EXTRACT: note_on channel=6 note=60 velocity=0 time=0
EXTRACT: note_on channel=9 note=35 velocity=0 time=0
EXTRACT: note_on channel=9 note=36 velocity=0 time=0
EXTRACT: note_on channel=9 note=42 velocity=0 time=0
EXTRACT: note_on channel=5 note=39 velocity=110 time=0.007440468749999999
EXTRACT: note_on channel=6 note=60 velocity=110 time=0
EXTRACT: note_on channel=9 note=42 velocity=110 time=0
EXTRACT: note_on channel=5 note=39 velocity=0 time=0.17113078124999997
EXTRACT: note_on channel=6 note=60 velocity=0 time=0
EXTRACT: note_on channel=9 note=42 velocity=0 time=0
EXTRACT: note_on channel=5 note=39 velocity=110 time=0.007440468749999999
EXTRACT: note_on channel=6 note=60 velocity=110 time=0
EXTRACT: note_on channel=9 note=38 velocity=110 time=0
EXTRACT: note_on channel=9 note=42 velocity=110 time=0
EXTRACT: note_on channel=5 note=39 velocity=0 time=0.17113078124999997
EXTRACT: note_on channel=6 note=60 velocity=0 time=0
EXTRACT: note_on channel=9 note=38 velocity=0 time=0
EXTRACT: note_on channel=9 note=42 velocity=0 time=0
EXTRACT: note_on channel=5 note=39 velocity=110 time=0.007440468749999999
EXTRACT: note_on channel=6 note=60 velocity=110 time=0
EXTRACT: note_on channel=9 note=42 velocity=110 time=0
EXTRACT: note_on channel=5 note=39 velocity=0 time=0.17113078124999997
EXTRACT: note_on channel=6 note=60 velocity=0 time=0
EXTRACT: note_on channel=9 note=42 velocity=0 time=0
EXTRACT: note_on channel=5 note=39 velocity=110 time=0.007440468749999999
EXTRACT: note_on channel=6 note=60 velocity=110 time=0
EXTRACT: note_on channel=9 note=55 velocity=110 time=0
EXTRACT: note_on channel=9 note=35 velocity=110 time=0
EXTRACT: note_on channel=9 note=36 velocity=110 time=0
EXTRACT: note_on channel=9 note=42 velocity=110 time=0
EXTRACT: note_on channel=5 note=39 velocity=0 time=0.17113078124999997
EXTRACT: note_on channel=6 note=60 velocity=0 time=0
EXTRACT: note_on channel=9 note=35 velocity=0 time=0
EXTRACT: note_on channel=9 note=36 velocity=0 time=0
EXTRACT: note_on channel=9 note=42 velocity=0 time=0
EXTRACT: note_on channel=5 note=39 velocity=110 time=0.007440468749999999
EXTRACT: note_on channel=6 note=60 velocity=110 time=0
EXTRACT: note_on channel=9 note=35 velocity=110 time=0
EXTRACT: note_on channel=9 note=36 velocity=110 time=0
EXTRACT: note_on channel=9 note=42 velocity=110 time=0
EXTRACT: note_on channel=5 note=39 velocity=0 time=0.17113078124999997
EXTRACT: note_on channel=6 note=60 velocity=0 time=0
EXTRACT: note_on channel=9 note=35 velocity=0 time=0
EXTRACT: note_on channel=9 note=36 velocity=0 time=0
EXTRACT: note_on channel=9 note=42 velocity=0 time=0
EXTRACT: note_on channel=5 note=39 velocity=110 time=0.007440468749999999
EXTRACT: note_on channel=6 note=60 velocity=110 time=0
EXTRACT: note_on channel=9 note=38 velocity=110 time=0
EXTRACT: note_on channel=9 note=42 velocity=110 time=0
EXTRACT: note_on channel=5 note=39 velocity=0 time=0.17113078124999997
EXTRACT: note_on channel=6 note=60 velocity=0 time=0
EXTRACT: note_on channel=9 note=38 velocity=0 time=0
EXTRACT: note_on channel=9 note=42 velocity=0 time=0
EXTRACT: note_on channel=4 note=47 velocity=0 time=0.007440468749999999
EXTRACT: note_on channel=6 note=60 velocity=110 time=0
EXTRACT: note_on channel=9 note=42 velocity=110 time=0
EXTRACT: note_on channel=9 note=55 velocity=0 time=0.05952374999999999
EXTRACT: note_on channel=6 note=60 velocity=0 time=0.11160703124999999
EXTRACT: note_on channel=9 note=42 velocity=0 time=0
EXTRACT: note_on channel=2 note=64 velocity=60 time=0.007440468749999999
EXTRACT: note_on channel=2 note=67 velocity=60 time=0
EXTRACT: note_on channel=3 note=67 velocity=110 time=0
EXTRACT: note_on channel=4 note=40 velocity=110 time=0
EXTRACT: note_on channel=5 note=40 velocity=110 time=0
EXTRACT: note_on channel=6 note=60 velocity=110 time=0
EXTRACT: note_on channel=9 note=35 velocity=110 time=0
EXTRACT: note_on channel=9 note=36 velocity=110 time=0
EXTRACT: note_on channel=9 note=42 velocity=110 time=0
EXTRACT: note_on channel=2 note=64 velocity=0 time=0.17113078124999997
EXTRACT: note_on channel=2 note=67 velocity=0 time=0
EXTRACT: note_on channel=3 note=67 velocity=0 time=0
EXTRACT: note_on channel=4 note=40 velocity=0 time=0
EXTRACT: note_on channel=5 note=40 velocity=0 time=0
EXTRACT: note_on channel=6 note=60 velocity=0 time=0
EXTRACT: note_on channel=9 note=35 velocity=0 time=0
EXTRACT: note_on channel=9 note=36 velocity=0 time=0
EXTRACT: note_on channel=9 note=42 velocity=0 time=0
EXTRACT: note_on channel=2 note=64 velocity=60 time=0.007440468749999999
EXTRACT: note_on channel=2 note=67 velocity=60 time=0
EXTRACT: note_on channel=3 note=67 velocity=110 time=0
EXTRACT: note_on channel=4 note=40 velocity=110 time=0
EXTRACT: note_on channel=5 note=40 velocity=110 time=0
EXTRACT: note_on channel=6 note=60 velocity=110 time=0
EXTRACT: note_on channel=9 note=42 velocity=110 time=0
EXTRACT: note_on channel=2 note=64 velocity=0 time=0.17113078124999997
EXTRACT: note_on channel=2 note=67 velocity=0 time=0
EXTRACT: note_on channel=3 note=67 velocity=0 time=0
EXTRACT: note_on channel=4 note=40 velocity=0 time=0
EXTRACT: note_on channel=5 note=40 velocity=0 time=0
EXTRACT: note_on channel=6 note=60 velocity=0 time=0
EXTRACT: note_on channel=9 note=42 velocity=0 time=0
EXTRACT: note_on channel=2 note=64 velocity=60 time=0.007440468749999999
EXTRACT: note_on channel=2 note=67 velocity=60 time=0
EXTRACT: note_on channel=3 note=67 velocity=110 time=0
EXTRACT: note_on channel=4 note=40 velocity=110 time=0
EXTRACT: note_on channel=5 note=40 velocity=110 time=0
EXTRACT: note_on channel=6 note=60 velocity=110 time=0
EXTRACT: note_on channel=9 note=38 velocity=110 time=0
EXTRACT: note_on channel=9 note=42 velocity=110 time=0
EXTRACT: note_on channel=2 note=64 velocity=0 time=0.17113078124999997
EXTRACT: note_on channel=2 note=67 velocity=0 time=0
EXTRACT: note_on channel=3 note=67 velocity=0 time=0
EXTRACT: note_on channel=4 note=40 velocity=0 time=0
EXTRACT: note_on channel=5 note=40 velocity=0 time=0
EXTRACT: note_on channel=6 note=60 velocity=0 time=0
EXTRACT: note_on channel=9 note=38 velocity=0 time=0
EXTRACT: note_on channel=9 note=42 velocity=0 time=0
EXTRACT: note_on channel=2 note=64 velocity=60 time=0.007440468749999999
EXTRACT: note_on channel=2 note=67 velocity=60 time=0
EXTRACT: note_on channel=3 note=67 velocity=110 time=0
EXTRACT: note_on channel=4 note=40 velocity=110 time=0
EXTRACT: note_on channel=6 note=60 velocity=110 time=0
EXTRACT: note_on channel=9 note=42 velocity=110 time=0
EXTRACT: note_on channel=2 note=64 velocity=0 time=0.17113078124999997
EXTRACT: note_on channel=2 note=67 velocity=0 time=0
EXTRACT: note_on channel=3 note=67 velocity=0 time=0
EXTRACT: note_on channel=4 note=40 velocity=0 time=0
EXTRACT: note_on channel=6 note=60 velocity=0 time=0
EXTRACT: note_on channel=9 note=42 velocity=0 time=0
EXTRACT: note_on channel=2 note=63 velocity=60 time=0.007440468749999999
EXTRACT: note_on channel=2 note=66 velocity=60 time=0
EXTRACT: note_on channel=3 note=66 velocity=110 time=0
EXTRACT: note_on channel=4 note=47 velocity=110 time=0
EXTRACT: note_on channel=5 note=40 velocity=110 time=0
EXTRACT: note_on channel=6 note=60 velocity=110 time=0
EXTRACT: note_on channel=9 note=55 velocity=110 time=0
EXTRACT: note_on channel=9 note=35 velocity=110 time=0
EXTRACT: note_on channel=9 note=36 velocity=110 time=0
EXTRACT: note_on channel=9 note=42 velocity=110 time=0
EXTRACT: note_on channel=2 note=63 velocity=0 time=0.17113078124999997
EXTRACT: note_on channel=2 note=66 velocity=0 time=0
EXTRACT: note_on channel=3 note=66 velocity=0 time=0
EXTRACT: note_on channel=4 note=47 velocity=0 time=0
EXTRACT: note_on channel=5 note=40 velocity=0 time=0
EXTRACT: note_on channel=6 note=60 velocity=0 time=0
EXTRACT: note_on channel=9 note=35 velocity=0 time=0
EXTRACT: note_on channel=9 note=36 velocity=0 time=0
EXTRACT: note_on channel=9 note=42 velocity=0 time=0
EXTRACT: note_on channel=2 note=63 velocity=60 time=0.007440468749999999
EXTRACT: note_on channel=2 note=66 velocity=60 time=0
EXTRACT: note_on channel=3 note=66 velocity=110 time=0
EXTRACT: note_on channel=4 note=47 velocity=110 time=0
EXTRACT: note_on channel=5 note=40 velocity=110 time=0
EXTRACT: note_on channel=6 note=60 velocity=110 time=0
EXTRACT: note_on channel=9 note=35 velocity=110 time=0
EXTRACT: note_on channel=9 note=36 velocity=110 time=0
EXTRACT: note_on channel=9 note=42 velocity=110 time=0
EXTRACT: note_on channel=2 note=63 velocity=0 time=0.17113078124999997
EXTRACT: note_on channel=2 note=66 velocity=0 time=0
EXTRACT: note_on channel=3 note=66 velocity=0 time=0
EXTRACT: note_on channel=4 note=47 velocity=0 time=0
EXTRACT: note_on channel=5 note=40 velocity=0 time=0
EXTRACT: note_on channel=6 note=60 velocity=0 time=0
EXTRACT: note_on channel=9 note=35 velocity=0 time=0
EXTRACT: note_on channel=9 note=36 velocity=0 time=0
EXTRACT: note_on channel=9 note=42 velocity=0 time=0
EXTRACT: note_on channel=2 note=63 velocity=60 time=0.007440468749999999
EXTRACT: note_on channel=2 note=66 velocity=60 time=0
EXTRACT: note_on channel=3 note=66 velocity=110 time=0
EXTRACT: note_on channel=4 note=47 velocity=110 time=0
EXTRACT: note_on channel=5 note=40 velocity=110 time=0
EXTRACT: note_on channel=6 note=60 velocity=110 time=0
EXTRACT: note_on channel=9 note=38 velocity=110 time=0
EXTRACT: note_on channel=9 note=42 velocity=110 time=0
EXTRACT: note_on channel=4 note=47 velocity=0 time=0.17113078124999997
EXTRACT: note_on channel=5 note=40 velocity=0 time=0
EXTRACT: note_on channel=6 note=60 velocity=0 time=0
EXTRACT: note_on channel=9 note=38 velocity=0 time=0
EXTRACT: note_on channel=9 note=42 velocity=0 time=0
EXTRACT: note_on channel=4 note=47 velocity=110 time=0.007440468749999999
EXTRACT: note_on channel=6 note=60 velocity=110 time=0
EXTRACT: note_on channel=9 note=42 velocity=110 time=0
EXTRACT: note_on channel=9 note=55 velocity=0 time=0.05952374999999999
EXTRACT: note_on channel=2 note=63 velocity=0 time=0.11160703124999999
EXTRACT: note_on channel=2 note=66 velocity=0 time=0
EXTRACT: note_on channel=3 note=66 velocity=0 time=0
EXTRACT: note_on channel=4 note=47 velocity=0 time=0
EXTRACT: note_on channel=6 note=60 velocity=0 time=0
EXTRACT: note_on channel=9 note=42 velocity=0 time=0
EXTRACT: note_on channel=2 note=60 velocity=60 time=0.007440468749999999
EXTRACT: note_on channel=2 note=64 velocity=60 time=0
EXTRACT: note_on channel=3 note=64 velocity=110 time=0
EXTRACT: note_on channel=4 note=48 velocity=110 time=0
EXTRACT: note_on channel=5 note=35 velocity=110 time=0
EXTRACT: note_on channel=6 note=60 velocity=110 time=0
EXTRACT: note_on channel=9 note=35 velocity=110 time=0
EXTRACT: note_on channel=9 note=36 velocity=110 time=0
EXTRACT: note_on channel=9 note=42 velocity=110 time=0
EXTRACT: note_on channel=2 note=60 velocity=0 time=0.17113078124999997
EXTRACT: note_on channel=2 note=64 velocity=0 time=0
EXTRACT: note_on channel=3 note=64 velocity=0 time=0
EXTRACT: note_on channel=4 note=48 velocity=0 time=0
EXTRACT: note_on channel=5 note=35 velocity=0 time=0
EXTRACT: note_on channel=6 note=60 velocity=0 time=0
EXTRACT: note_on channel=9 note=35 velocity=0 time=0
EXTRACT: note_on channel=9 note=36 velocity=0 time=0
EXTRACT: note_on channel=9 note=42 velocity=0 time=0
EXTRACT: note_on channel=2 note=60 velocity=60 time=0.007440468749999999
EXTRACT: note_on channel=2 note=64 velocity=60 time=0
EXTRACT: note_on channel=3 note=64 velocity=110 time=0
EXTRACT: note_on channel=4 note=48 velocity=110 time=0
EXTRACT: note_on channel=5 note=35 velocity=110 time=0
EXTRACT: note_on channel=6 note=60 velocity=110 time=0
EXTRACT: note_on channel=9 note=42 velocity=110 time=0
EXTRACT: note_on channel=2 note=60 velocity=0 time=0.17113078124999997
EXTRACT: note_on channel=2 note=64 velocity=0 time=0
EXTRACT: note_on channel=3 note=64 velocity=0 time=0
EXTRACT: note_on channel=4 note=48 velocity=0 time=0
EXTRACT: note_on channel=5 note=35 velocity=0 time=0
EXTRACT: note_on channel=6 note=60 velocity=0 time=0
EXTRACT: note_on channel=9 note=42 velocity=0 time=0
EXTRACT: note_on channel=2 note=60 velocity=60 time=0.007440468749999999
EXTRACT: note_on channel=2 note=64 velocity=60 time=0
EXTRACT: note_on channel=3 note=64 velocity=110 time=0
EXTRACT: note_on channel=4 note=48 velocity=110 time=0
EXTRACT: note_on channel=5 note=35 velocity=110 time=0
EXTRACT: note_on channel=6 note=60 velocity=110 time=0
EXTRACT: note_on channel=9 note=38 velocity=110 time=0
EXTRACT: note_on channel=9 note=42 velocity=110 time=0
EXTRACT: note_on channel=5 note=35 velocity=0 time=0.17113078124999997
EXTRACT: note_on channel=6 note=60 velocity=0 time=0
EXTRACT: note_on channel=9 note=38 velocity=0 time=0
EXTRACT: note_on channel=9 note=42 velocity=0 time=0
EXTRACT: note_on channel=6 note=60 velocity=110 time=0.007440468749999999
EXTRACT: note_on channel=9 note=42 velocity=110 time=0
EXTRACT: note_on channel=2 note=60 velocity=0 time=0.17113078124999997
EXTRACT: note_on channel=2 note=64 velocity=0 time=0
EXTRACT: note_on channel=3 note=64 velocity=0 time=0
EXTRACT: note_on channel=4 note=48 velocity=0 time=0
EXTRACT: note_on channel=6 note=60 velocity=0 time=0
EXTRACT: note_on channel=9 note=42 velocity=0 time=0
EXTRACT: note_on channel=2 note=60 velocity=60 time=0.007440468749999999
EXTRACT: note_on channel=2 note=64 velocity=60 time=0
EXTRACT: note_on channel=3 note=64 velocity=110 time=0
EXTRACT: note_on channel=4 note=48 velocity=110 time=0
EXTRACT: note_on channel=5 note=35 velocity=110 time=0
EXTRACT: note_on channel=6 note=60 velocity=110 time=0
EXTRACT: note_on channel=9 note=55 velocity=110 time=0
EXTRACT: note_on channel=9 note=35 velocity=110 time=0
EXTRACT: note_on channel=9 note=36 velocity=110 time=0
EXTRACT: note_on channel=9 note=42 velocity=110 time=0
EXTRACT: note_on channel=4 note=48 velocity=0 time=0.17113078124999997
EXTRACT: note_on channel=5 note=35 velocity=0 time=0
EXTRACT: note_on channel=6 note=60 velocity=0 time=0
EXTRACT: note_on channel=9 note=35 velocity=0 time=0
EXTRACT: note_on channel=9 note=36 velocity=0 time=0
EXTRACT: note_on channel=9 note=42 velocity=0 time=0
EXTRACT: note_on channel=4 note=48 velocity=110 time=0.007440468749999999
EXTRACT: note_on channel=5 note=35 velocity=110 time=0
EXTRACT: note_on channel=6 note=60 velocity=110 time=0
EXTRACT: note_on channel=9 note=35 velocity=110 time=0
EXTRACT: note_on channel=9 note=36 velocity=110 time=0
EXTRACT: note_on channel=9 note=42 velocity=110 time=0
EXTRACT: note_on channel=2 note=60 velocity=0 time=0.17113078124999997
EXTRACT: note_on channel=2 note=64 velocity=0 time=0
EXTRACT: note_on channel=3 note=64 velocity=0 time=0
EXTRACT: note_on channel=4 note=48 velocity=0 time=0
EXTRACT: note_on channel=5 note=35 velocity=0 time=0
EXTRACT: note_on channel=6 note=60 velocity=0 time=0
EXTRACT: note_on channel=9 note=35 velocity=0 time=0
EXTRACT: note_on channel=9 note=36 velocity=0 time=0
EXTRACT: note_on channel=9 note=42 velocity=0 time=0
EXTRACT: note_on channel=2 note=59 velocity=60 time=0.007440468749999999
EXTRACT: note_on channel=2 note=63 velocity=60 time=0
EXTRACT: note_on channel=3 note=62 velocity=110 time=0
EXTRACT: note_on channel=4 note=48 velocity=110 time=0
EXTRACT: note_on channel=5 note=35 velocity=110 time=0
EXTRACT: note_on channel=6 note=60 velocity=110 time=0
EXTRACT: note_on channel=9 note=38 velocity=110 time=0
EXTRACT: note_on channel=9 note=42 velocity=110 time=0
EXTRACT: note_on channel=5 note=35 velocity=0 time=0.17113078124999997
EXTRACT: note_on channel=6 note=60 velocity=0 time=0
EXTRACT: note_on channel=9 note=38 velocity=0 time=0
EXTRACT: note_on channel=9 note=42 velocity=0 time=0
EXTRACT: note_on channel=6 note=60 velocity=110 time=0.007440468749999999
EXTRACT: note_on channel=9 note=42 velocity=110 time=0
EXTRACT: note_on channel=9 note=55 velocity=0 time=0.05952374999999999
EXTRACT: note_on channel=2 note=59 velocity=0 time=0.11160703124999999
EXTRACT: note_on channel=2 note=63 velocity=0 time=0
EXTRACT: note_on channel=3 note=62 velocity=0 time=0
EXTRACT: note_on channel=4 note=48 velocity=0 time=0
EXTRACT: note_on channel=6 note=60 velocity=0 time=0
EXTRACT: note_on channel=9 note=42 velocity=0 time=0
EXTRACT: note_on channel=4 note=40 velocity=110 time=0.007440468749999999
EXTRACT: note_on channel=5 note=40 velocity=110 time=0
EXTRACT: note_on channel=6 note=60 velocity=110 time=0
EXTRACT: note_on channel=9 note=35 velocity=110 time=0
EXTRACT: note_on channel=9 note=36 velocity=110 time=0
EXTRACT: note_on channel=9 note=42 velocity=110 time=0
EXTRACT: note_on channel=4 note=40 velocity=0 time=0.17113078124999997
EXTRACT: note_on channel=5 note=40 velocity=0 time=0
EXTRACT: note_on channel=6 note=60 velocity=0 time=0
EXTRACT: note_on channel=9 note=35 velocity=0 time=0
EXTRACT: note_on channel=9 note=36 velocity=0 time=0
EXTRACT: note_on channel=9 note=42 velocity=0 time=0
EXTRACT: note_on channel=4 note=40 velocity=110 time=0.007440468749999999
EXTRACT: note_on channel=5 note=40 velocity=110 time=0
EXTRACT: note_on channel=6 note=60 velocity=110 time=0
EXTRACT: note_on channel=9 note=42 velocity=110 time=0
EXTRACT: note_on channel=4 note=40 velocity=0 time=0.17113078124999997
EXTRACT: note_on channel=5 note=40 velocity=0 time=0
EXTRACT: note_on channel=6 note=60 velocity=0 time=0
EXTRACT: note_on channel=9 note=42 velocity=0 time=0
EXTRACT: note_on channel=4 note=40 velocity=110 time=0.007440468749999999
EXTRACT: note_on channel=5 note=40 velocity=110 time=0
EXTRACT: note_on channel=6 note=60 velocity=110 time=0
EXTRACT: note_on channel=9 note=38 velocity=110 time=0
EXTRACT: note_on channel=9 note=42 velocity=110 time=0
EXTRACT: note_on channel=4 note=40 velocity=0 time=0.17113078124999997
EXTRACT: note_on channel=5 note=40 velocity=0 time=0
EXTRACT: note_on channel=6 note=60 velocity=0 time=0
EXTRACT: note_on channel=9 note=38 velocity=0 time=0
EXTRACT: note_on channel=9 note=42 velocity=0 time=0
EXTRACT: note_on channel=4 note=40 velocity=110 time=0.007440468749999999
EXTRACT: note_on channel=5 note=40 velocity=110 time=0
EXTRACT: note_on channel=6 note=60 velocity=110 time=0
EXTRACT: note_on channel=9 note=42 velocity=110 time=0
EXTRACT: note_on channel=4 note=40 velocity=0 time=0.17113078124999997
EXTRACT: note_on channel=5 note=40 velocity=0 time=0
EXTRACT: note_on channel=6 note=60 velocity=0 time=0
EXTRACT: note_on channel=9 note=42 velocity=0 time=0
EXTRACT: note_on channel=4 note=48 velocity=110 time=0.007440468749999999
EXTRACT: note_on channel=5 note=40 velocity=110 time=0
EXTRACT: note_on channel=6 note=60 velocity=110 time=0
EXTRACT: note_on channel=9 note=55 velocity=110 time=0
EXTRACT: note_on channel=9 note=35 velocity=110 time=0
EXTRACT: note_on channel=9 note=36 velocity=110 time=0
EXTRACT: note_on channel=9 note=42 velocity=110 time=0
EXTRACT: note_on channel=4 note=48 velocity=0 time=0.17113078124999997
EXTRACT: note_on channel=5 note=40 velocity=0 time=0
EXTRACT: note_on channel=6 note=60 velocity=0 time=0
EXTRACT: note_on channel=9 note=35 velocity=0 time=0
EXTRACT: note_on channel=9 note=36 velocity=0 time=0
EXTRACT: note_on channel=9 note=42 velocity=0 time=0
EXTRACT: note_on channel=4 note=48 velocity=110 time=0.007440468749999999
EXTRACT: note_on channel=5 note=40 velocity=110 time=0
EXTRACT: note_on channel=6 note=60 velocity=110 time=0
EXTRACT: note_on channel=9 note=35 velocity=110 time=0
EXTRACT: note_on channel=9 note=36 velocity=110 time=0
EXTRACT: note_on channel=9 note=42 velocity=110 time=0
EXTRACT: note_on channel=4 note=48 velocity=0 time=0.17113078124999997
EXTRACT: note_on channel=5 note=40 velocity=0 time=0
EXTRACT: note_on channel=6 note=60 velocity=0 time=0
EXTRACT: note_on channel=9 note=35 velocity=0 time=0
EXTRACT: note_on channel=9 note=36 velocity=0 time=0
EXTRACT: note_on channel=9 note=42 velocity=0 time=0
EXTRACT: note_on channel=4 note=48 velocity=110 time=0.007440468749999999
EXTRACT: note_on channel=5 note=40 velocity=110 time=0
EXTRACT: note_on channel=6 note=60 velocity=110 time=0
EXTRACT: note_on channel=9 note=38 velocity=110 time=0
EXTRACT: note_on channel=9 note=42 velocity=110 time=0
EXTRACT: note_on channel=4 note=48 velocity=0 time=0.17113078124999997
EXTRACT: note_on channel=5 note=40 velocity=0 time=0
EXTRACT: note_on channel=6 note=60 velocity=0 time=0
EXTRACT: note_on channel=9 note=38 velocity=0 time=0
EXTRACT: note_on channel=9 note=42 velocity=0 time=0
EXTRACT: note_on channel=4 note=48 velocity=110 time=0.007440468749999999
EXTRACT: note_on channel=5 note=40 velocity=110 time=0
EXTRACT: note_on channel=6 note=60 velocity=110 time=0
EXTRACT: note_on channel=9 note=42 velocity=110 time=0
EXTRACT: note_on channel=9 note=55 velocity=0 time=0.05952374999999999
EXTRACT: note_on channel=4 note=48 velocity=0 time=0.11160703124999999
EXTRACT: note_on channel=5 note=40 velocity=0 time=0
EXTRACT: note_on channel=6 note=60 velocity=0 time=0
EXTRACT: note_on channel=9 note=42 velocity=0 time=0
EXTRACT: note_on channel=4 note=47 velocity=110 time=0.007440468749999999
EXTRACT: note_on channel=5 note=39 velocity=110 time=0
EXTRACT: note_on channel=6 note=60 velocity=110 time=0
EXTRACT: note_on channel=9 note=35 velocity=110 time=0
EXTRACT: note_on channel=9 note=36 velocity=110 time=0
EXTRACT: note_on channel=9 note=42 velocity=110 time=0
EXTRACT: note_on channel=5 note=39 velocity=0 time=0.17113078124999997
EXTRACT: note_on channel=6 note=60 velocity=0 time=0
EXTRACT: note_on channel=9 note=36 velocity=0 time=0
EXTRACT: note_on channel=9 note=35 velocity=0 time=0
EXTRACT: note_on channel=9 note=42 velocity=0 time=0
EXTRACT: note_on channel=5 note=39 velocity=110 time=0.007440468749999999
EXTRACT: note_on channel=6 note=60 velocity=110 time=0
EXTRACT: note_on channel=9 note=42 velocity=110 time=0
EXTRACT: note_on channel=5 note=39 velocity=0 time=0.17113078124999997
EXTRACT: note_on channel=6 note=60 velocity=0 time=0
EXTRACT: note_on channel=9 note=42 velocity=0 time=0
EXTRACT: note_on channel=5 note=39 velocity=110 time=0.007440468749999999
EXTRACT: note_on channel=6 note=60 velocity=110 time=0
EXTRACT: note_on channel=9 note=38 velocity=110 time=0
EXTRACT: note_on channel=9 note=42 velocity=110 time=0
EXTRACT: note_on channel=5 note=39 velocity=0 time=0.17113078124999997
EXTRACT: note_on channel=6 note=60 velocity=0 time=0
EXTRACT: note_on channel=9 note=38 velocity=0 time=0
EXTRACT: note_on channel=9 note=42 velocity=0 time=0
EXTRACT: note_on channel=5 note=39 velocity=110 time=0.007440468749999999
EXTRACT: note_on channel=6 note=60 velocity=110 time=0
EXTRACT: note_on channel=9 note=42 velocity=110 time=0
EXTRACT: note_on channel=5 note=39 velocity=0 time=0.17113078124999997
EXTRACT: note_on channel=6 note=60 velocity=0 time=0
EXTRACT: note_on channel=9 note=42 velocity=0 time=0
EXTRACT: note_on channel=5 note=39 velocity=110 time=0.007440468749999999
EXTRACT: note_on channel=6 note=60 velocity=110 time=0
EXTRACT: note_on channel=9 note=55 velocity=110 time=0
EXTRACT: note_on channel=9 note=35 velocity=110 time=0
EXTRACT: note_on channel=9 note=36 velocity=110 time=0
EXTRACT: note_on channel=9 note=42 velocity=110 time=0
EXTRACT: note_on channel=5 note=39 velocity=0 time=0.17113078124999997
EXTRACT: note_on channel=6 note=60 velocity=0 time=0
EXTRACT: note_on channel=9 note=35 velocity=0 time=0
EXTRACT: note_on channel=9 note=36 velocity=0 time=0
EXTRACT: note_on channel=9 note=42 velocity=0 time=0
EXTRACT: note_on channel=5 note=39 velocity=110 time=0.007440468749999999
EXTRACT: note_on channel=6 note=60 velocity=110 time=0
EXTRACT: note_on channel=9 note=35 velocity=110 time=0
EXTRACT: note_on channel=9 note=36 velocity=110 time=0
EXTRACT: note_on channel=9 note=42 velocity=110 time=0
EXTRACT: note_on channel=5 note=39 velocity=0 time=0.17113078124999997
EXTRACT: note_on channel=6 note=60 velocity=0 time=0
EXTRACT: note_on channel=9 note=35 velocity=0 time=0
EXTRACT: note_on channel=9 note=36 velocity=0 time=0
EXTRACT: note_on channel=9 note=42 velocity=0 time=0
EXTRACT: note_on channel=5 note=39 velocity=110 time=0.007440468749999999
EXTRACT: note_on channel=6 note=60 velocity=110 time=0
EXTRACT: note_on channel=9 note=38 velocity=110 time=0
EXTRACT: note_on channel=9 note=42 velocity=110 time=0
EXTRACT: note_on channel=5 note=39 velocity=0 time=0.17113078124999997
EXTRACT: note_on channel=6 note=60 velocity=0 time=0
EXTRACT: note_on channel=9 note=38 velocity=0 time=0
EXTRACT: note_on channel=9 note=42 velocity=0 time=0
EXTRACT: note_on channel=3 note=64 velocity=110 time=0.007440468749999999
EXTRACT: note_on channel=4 note=47 velocity=0 time=0
EXTRACT: note_on channel=6 note=60 velocity=110 time=0
EXTRACT: note_on channel=9 note=42 velocity=110 time=0
EXTRACT: note_on channel=9 note=55 velocity=0 time=0.05952374999999999
EXTRACT: note_on channel=3 note=64 velocity=0 time=0.11160703124999999
EXTRACT: note_on channel=6 note=60 velocity=0 time=0
EXTRACT: note_on channel=9 note=42 velocity=0 time=0
EXTRACT: note_on channel=2 note=64 velocity=60 time=0.007440468749999999
EXTRACT: note_on channel=2 note=67 velocity=60 time=0
EXTRACT: note_on channel=3 note=67 velocity=110 time=0
EXTRACT: note_on channel=4 note=40 velocity=110 time=0
EXTRACT: note_on channel=5 note=40 velocity=110 time=0
EXTRACT: note_on channel=6 note=60 velocity=110 time=0
EXTRACT: note_on channel=9 note=35 velocity=110 time=0
EXTRACT: note_on channel=9 note=36 velocity=110 time=0
EXTRACT: note_on channel=9 note=42 velocity=110 time=0
EXTRACT: note_on channel=2 note=64 velocity=0 time=0.17113078124999997
EXTRACT: note_on channel=2 note=67 velocity=0 time=0
EXTRACT: note_on channel=3 note=67 velocity=0 time=0
EXTRACT: note_on channel=4 note=40 velocity=0 time=0
EXTRACT: note_on channel=5 note=40 velocity=0 time=0
EXTRACT: note_on channel=6 note=60 velocity=0 time=0
EXTRACT: note_on channel=9 note=35 velocity=0 time=0
EXTRACT: note_on channel=9 note=36 velocity=0 time=0
EXTRACT: note_on channel=9 note=42 velocity=0 time=0
EXTRACT: note_on channel=2 note=64 velocity=60 time=0.007440468749999999
EXTRACT: note_on channel=2 note=67 velocity=60 time=0
EXTRACT: note_on channel=3 note=67 velocity=110 time=0
EXTRACT: note_on channel=4 note=40 velocity=110 time=0
EXTRACT: note_on channel=5 note=40 velocity=110 time=0
EXTRACT: note_on channel=6 note=60 velocity=110 time=0
EXTRACT: note_on channel=9 note=42 velocity=110 time=0
EXTRACT: note_on channel=2 note=64 velocity=0 time=0.17113078124999997
EXTRACT: note_on channel=2 note=67 velocity=0 time=0
EXTRACT: note_on channel=3 note=67 velocity=0 time=0
EXTRACT: note_on channel=4 note=40 velocity=0 time=0
EXTRACT: note_on channel=5 note=40 velocity=0 time=0
EXTRACT: note_on channel=6 note=60 velocity=0 time=0
EXTRACT: note_on channel=9 note=42 velocity=0 time=0
EXTRACT: note_on channel=2 note=64 velocity=60 time=0.007440468749999999
EXTRACT: note_on channel=2 note=67 velocity=60 time=0
EXTRACT: note_on channel=3 note=67 velocity=110 time=0
EXTRACT: note_on channel=4 note=40 velocity=110 time=0
EXTRACT: note_on channel=5 note=40 velocity=110 time=0
EXTRACT: note_on channel=6 note=60 velocity=110 time=0
EXTRACT: note_on channel=9 note=38 velocity=110 time=0
EXTRACT: note_on channel=9 note=42 velocity=110 time=0
EXTRACT: note_on channel=2 note=64 velocity=0 time=0.17113078124999997
EXTRACT: note_on channel=2 note=67 velocity=0 time=0
EXTRACT: note_on channel=3 note=67 velocity=0 time=0
EXTRACT: note_on channel=4 note=40 velocity=0 time=0
EXTRACT: note_on channel=5 note=40 velocity=0 time=0
EXTRACT: note_on channel=6 note=60 velocity=0 time=0
EXTRACT: note_on channel=9 note=38 velocity=0 time=0
EXTRACT: note_on channel=9 note=42 velocity=0 time=0
EXTRACT: note_on channel=2 note=64 velocity=60 time=0.007440468749999999
EXTRACT: note_on channel=2 note=67 velocity=60 time=0
EXTRACT: note_on channel=3 note=67 velocity=110 time=0
EXTRACT: note_on channel=4 note=40 velocity=110 time=0
EXTRACT: note_on channel=6 note=60 velocity=110 time=0
EXTRACT: note_on channel=9 note=42 velocity=110 time=0
EXTRACT: note_on channel=2 note=64 velocity=0 time=0.17113078124999997
EXTRACT: note_on channel=2 note=67 velocity=0 time=0
EXTRACT: note_on channel=3 note=67 velocity=0 time=0
EXTRACT: note_on channel=4 note=40 velocity=0 time=0
EXTRACT: note_on channel=6 note=60 velocity=0 time=0
EXTRACT: note_on channel=9 note=42 velocity=0 time=0
EXTRACT: note_on channel=2 note=63 velocity=60 time=0.007440468749999999
EXTRACT: note_on channel=2 note=66 velocity=60 time=0
EXTRACT: note_on channel=3 note=66 velocity=110 time=0
EXTRACT: note_on channel=4 note=47 velocity=110 time=0
EXTRACT: note_on channel=5 note=40 velocity=110 time=0
EXTRACT: note_on channel=6 note=60 velocity=110 time=0
EXTRACT: note_on channel=9 note=55 velocity=110 time=0
EXTRACT: note_on channel=9 note=35 velocity=110 time=0
EXTRACT: note_on channel=9 note=36 velocity=110 time=0
EXTRACT: note_on channel=9 note=42 velocity=110 time=0
EXTRACT: note_on channel=2 note=63 velocity=0 time=0.17113078124999997
EXTRACT: note_on channel=2 note=66 velocity=0 time=0
EXTRACT: note_on channel=3 note=66 velocity=0 time=0
EXTRACT: note_on channel=4 note=47 velocity=0 time=0
EXTRACT: note_on channel=5 note=40 velocity=0 time=0
EXTRACT: note_on channel=6 note=60 velocity=0 time=0
EXTRACT: note_on channel=9 note=35 velocity=0 time=0
EXTRACT: note_on channel=9 note=36 velocity=0 time=0
EXTRACT: note_on channel=9 note=42 velocity=0 time=0
EXTRACT: note_on channel=2 note=63 velocity=60 time=0.007440468749999999
EXTRACT: note_on channel=2 note=66 velocity=60 time=0
EXTRACT: note_on channel=3 note=66 velocity=110 time=0
EXTRACT: note_on channel=4 note=47 velocity=110 time=0
EXTRACT: note_on channel=5 note=40 velocity=110 time=0
EXTRACT: note_on channel=6 note=60 velocity=110 time=0
EXTRACT: note_on channel=9 note=35 velocity=110 time=0
EXTRACT: note_on channel=9 note=36 velocity=110 time=0
EXTRACT: note_on channel=9 note=42 velocity=110 time=0
EXTRACT: note_on channel=2 note=63 velocity=0 time=0.17113078124999997
EXTRACT: note_on channel=2 note=66 velocity=0 time=0
EXTRACT: note_on channel=3 note=66 velocity=0 time=0
EXTRACT: note_on channel=4 note=47 velocity=0 time=0
EXTRACT: note_on channel=5 note=40 velocity=0 time=0
EXTRACT: note_on channel=6 note=60 velocity=0 time=0
EXTRACT: note_on channel=9 note=35 velocity=0 time=0
EXTRACT: note_on channel=9 note=36 velocity=0 time=0
EXTRACT: note_on channel=9 note=42 velocity=0 time=0
EXTRACT: note_on channel=2 note=63 velocity=60 time=0.007440468749999999
EXTRACT: note_on channel=2 note=66 velocity=60 time=0
EXTRACT: note_on channel=3 note=66 velocity=110 time=0
EXTRACT: note_on channel=4 note=47 velocity=110 time=0
EXTRACT: note_on channel=5 note=40 velocity=110 time=0
EXTRACT: note_on channel=6 note=60 velocity=110 time=0
EXTRACT: note_on channel=9 note=38 velocity=110 time=0
EXTRACT: note_on channel=9 note=42 velocity=110 time=0
EXTRACT: note_on channel=4 note=47 velocity=0 time=0.17113078124999997
EXTRACT: note_on channel=5 note=40 velocity=0 time=0
EXTRACT: note_on channel=6 note=60 velocity=0 time=0
EXTRACT: note_on channel=9 note=38 velocity=0 time=0
EXTRACT: note_on channel=9 note=42 velocity=0 time=0
EXTRACT: note_on channel=4 note=47 velocity=110 time=0.007440468749999999
EXTRACT: note_on channel=6 note=60 velocity=110 time=0
EXTRACT: note_on channel=9 note=42 velocity=110 time=0
EXTRACT: note_on channel=9 note=55 velocity=0 time=0.05952374999999999
EXTRACT: note_on channel=2 note=63 velocity=0 time=0.11160703124999999
EXTRACT: note_on channel=2 note=66 velocity=0 time=0
EXTRACT: note_on channel=3 note=66 velocity=0 time=0
EXTRACT: note_on channel=4 note=47 velocity=0 time=0
EXTRACT: note_on channel=6 note=60 velocity=0 time=0
EXTRACT: note_on channel=9 note=42 velocity=0 time=0
EXTRACT: note_on channel=2 note=60 velocity=60 time=0.007440468749999999
EXTRACT: note_on channel=2 note=64 velocity=60 time=0
EXTRACT: note_on channel=3 note=64 velocity=110 time=0
EXTRACT: note_on channel=4 note=48 velocity=110 time=0
EXTRACT: note_on channel=5 note=35 velocity=110 time=0
EXTRACT: note_on channel=6 note=60 velocity=110 time=0
EXTRACT: note_on channel=9 note=35 velocity=110 time=0
EXTRACT: note_on channel=9 note=36 velocity=110 time=0
EXTRACT: note_on channel=9 note=42 velocity=110 time=0
EXTRACT: note_on channel=4 note=48 velocity=0 time=0.17113078124999997
EXTRACT: note_on channel=5 note=35 velocity=0 time=0
EXTRACT: note_on channel=6 note=60 velocity=0 time=0
EXTRACT: note_on channel=9 note=35 velocity=0 time=0
EXTRACT: note_on channel=9 note=36 velocity=0 time=0
EXTRACT: note_on channel=9 note=42 velocity=0 time=0
EXTRACT: note_on channel=4 note=48 velocity=110 time=0.007440468749999999
EXTRACT: note_on channel=5 note=35 velocity=110 time=0
EXTRACT: note_on channel=6 note=60 velocity=110 time=0
EXTRACT: note_on channel=9 note=42 velocity=110 time=0
EXTRACT: note_on channel=2 note=60 velocity=0 time=0.17113078124999997
EXTRACT: note_on channel=2 note=64 velocity=0 time=0
EXTRACT: note_on channel=3 note=64 velocity=0 time=0
EXTRACT: note_on channel=4 note=48 velocity=0 time=0
EXTRACT: note_on channel=5 note=35 velocity=0 time=0
EXTRACT: note_on channel=6 note=60 velocity=0 time=0
EXTRACT: note_on channel=9 note=42 velocity=0 time=0
EXTRACT: note_on channel=2 note=60 velocity=60 time=0.007440468749999999
EXTRACT: note_on channel=2 note=64 velocity=60 time=0
EXTRACT: note_on channel=3 note=64 velocity=110 time=0
EXTRACT: note_on channel=4 note=48 velocity=110 time=0
EXTRACT: note_on channel=5 note=35 velocity=110 time=0
EXTRACT: note_on channel=6 note=60 velocity=110 time=0
EXTRACT: note_on channel=9 note=38 velocity=110 time=0
EXTRACT: note_on channel=9 note=42 velocity=110 time=0
EXTRACT: note_on channel=2 note=60 velocity=0 time=0.17113078124999997
EXTRACT: note_on channel=2 note=64 velocity=0 time=0
EXTRACT: note_on channel=3 note=64 velocity=0 time=0
EXTRACT: note_on channel=5 note=35 velocity=0 time=0
EXTRACT: note_on channel=6 note=60 velocity=0 time=0
EXTRACT: note_on channel=9 note=38 velocity=0 time=0
EXTRACT: note_on channel=9 note=42 velocity=0 time=0
EXTRACT: note_on channel=2 note=60 velocity=60 time=0.007440468749999999
EXTRACT: note_on channel=2 note=64 velocity=60 time=0
EXTRACT: note_on channel=3 note=64 velocity=110 time=0
EXTRACT: note_on channel=6 note=60 velocity=110 time=0
EXTRACT: note_on channel=9 note=42 velocity=110 time=0
EXTRACT: note_on channel=4 note=48 velocity=0 time=0.17113078124999997
EXTRACT: note_on channel=6 note=60 velocity=0 time=0
EXTRACT: note_on channel=9 note=42 velocity=0 time=0
EXTRACT: note_on channel=4 note=48 velocity=110 time=0.007440468749999999
EXTRACT: note_on channel=5 note=35 velocity=110 time=0
EXTRACT: note_on channel=6 note=60 velocity=110 time=0
EXTRACT: note_on channel=9 note=55 velocity=110 time=0
EXTRACT: note_on channel=9 note=35 velocity=110 time=0
EXTRACT: note_on channel=9 note=36 velocity=110 time=0
EXTRACT: note_on channel=9 note=42 velocity=110 time=0
EXTRACT: note_on channel=2 note=60 velocity=0 time=0.17113078124999997
EXTRACT: note_on channel=2 note=64 velocity=0 time=0
EXTRACT: note_on channel=3 note=64 velocity=0 time=0
EXTRACT: note_on channel=4 note=48 velocity=0 time=0
EXTRACT: note_on channel=5 note=35 velocity=0 time=0
EXTRACT: note_on channel=6 note=60 velocity=0 time=0
EXTRACT: note_on channel=9 note=35 velocity=0 time=0
EXTRACT: note_on channel=9 note=36 velocity=0 time=0
EXTRACT: note_on channel=9 note=42 velocity=0 time=0
EXTRACT: note_on channel=2 note=60 velocity=60 time=0.007440468749999999
EXTRACT: note_on channel=2 note=64 velocity=60 time=0
EXTRACT: note_on channel=3 note=64 velocity=110 time=0
EXTRACT: note_on channel=4 note=48 velocity=110 time=0
EXTRACT: note_on channel=5 note=35 velocity=110 time=0
EXTRACT: note_on channel=6 note=60 velocity=110 time=0
EXTRACT: note_on channel=9 note=35 velocity=110 time=0
EXTRACT: note_on channel=9 note=36 velocity=110 time=0
EXTRACT: note_on channel=9 note=42 velocity=110 time=0
EXTRACT: note_on channel=2 note=60 velocity=0 time=0.17113078124999997
EXTRACT: note_on channel=2 note=64 velocity=0 time=0
EXTRACT: note_on channel=3 note=64 velocity=0 time=0
EXTRACT: note_on channel=4 note=48 velocity=0 time=0
EXTRACT: note_on channel=5 note=35 velocity=0 time=0
EXTRACT: note_on channel=6 note=60 velocity=0 time=0
EXTRACT: note_on channel=9 note=35 velocity=0 time=0
EXTRACT: note_on channel=9 note=36 velocity=0 time=0
EXTRACT: note_on channel=9 note=42 velocity=0 time=0
EXTRACT: note_on channel=2 note=59 velocity=60 time=0.007440468749999999
EXTRACT: note_on channel=2 note=63 velocity=60 time=0
EXTRACT: note_on channel=3 note=62 velocity=110 time=0
EXTRACT: note_on channel=4 note=48 velocity=110 time=0
EXTRACT: note_on channel=5 note=35 velocity=110 time=0
EXTRACT: note_on channel=6 note=60 velocity=110 time=0
EXTRACT: note_on channel=9 note=38 velocity=110 time=0
EXTRACT: note_on channel=9 note=42 velocity=110 time=0
EXTRACT: note_on channel=5 note=35 velocity=0 time=0.17113078124999997
EXTRACT: note_on channel=6 note=60 velocity=0 time=0
EXTRACT: note_on channel=9 note=38 velocity=0 time=0
EXTRACT: note_on channel=9 note=42 velocity=0 time=0
EXTRACT: note_on channel=6 note=60 velocity=110 time=0.007440468749999999
EXTRACT: note_on channel=9 note=42 velocity=110 time=0
EXTRACT: note_on channel=9 note=55 velocity=0 time=0.05952374999999999
EXTRACT: note_on channel=2 note=59 velocity=0 time=0.11160703124999999
EXTRACT: note_on channel=2 note=63 velocity=0 time=0
EXTRACT: note_on channel=3 note=62 velocity=0 time=0
EXTRACT: note_on channel=4 note=48 velocity=0 time=0
EXTRACT: note_on channel=6 note=60 velocity=0 time=0
EXTRACT: note_on channel=9 note=42 velocity=0 time=0
EXTRACT: note_on channel=4 note=40 velocity=110 time=0.007440468749999999
EXTRACT: note_on channel=5 note=40 velocity=110 time=0
EXTRACT: note_on channel=6 note=60 velocity=110 time=0
EXTRACT: note_on channel=9 note=35 velocity=110 time=0
EXTRACT: note_on channel=9 note=36 velocity=110 time=0
EXTRACT: note_on channel=9 note=42 velocity=110 time=0
EXTRACT: note_on channel=4 note=40 velocity=0 time=0.17113078124999997
EXTRACT: note_on channel=5 note=40 velocity=0 time=0
EXTRACT: note_on channel=6 note=60 velocity=0 time=0
EXTRACT: note_on channel=9 note=35 velocity=0 time=0
EXTRACT: note_on channel=9 note=36 velocity=0 time=0
EXTRACT: note_on channel=9 note=42 velocity=0 time=0
EXTRACT: note_on channel=4 note=40 velocity=110 time=0.007440468749999999
EXTRACT: note_on channel=5 note=40 velocity=110 time=0
EXTRACT: note_on channel=6 note=60 velocity=110 time=0
EXTRACT: note_on channel=9 note=42 velocity=110 time=0
EXTRACT: note_on channel=4 note=40 velocity=0 time=0.17113078124999997
EXTRACT: note_on channel=5 note=40 velocity=0 time=0
EXTRACT: note_on channel=6 note=60 velocity=0 time=0
EXTRACT: note_on channel=9 note=42 velocity=0 time=0
EXTRACT: note_on channel=4 note=40 velocity=110 time=0.007440468749999999
EXTRACT: note_on channel=5 note=40 velocity=110 time=0
EXTRACT: note_on channel=6 note=60 velocity=110 time=0
EXTRACT: note_on channel=9 note=38 velocity=110 time=0
EXTRACT: note_on channel=9 note=42 velocity=110 time=0
EXTRACT: note_on channel=4 note=40 velocity=0 time=0.17113078124999997
EXTRACT: note_on channel=5 note=40 velocity=0 time=0
EXTRACT: note_on channel=6 note=60 velocity=0 time=0
EXTRACT: note_on channel=9 note=38 velocity=0 time=0
EXTRACT: note_on channel=9 note=42 velocity=0 time=0
EXTRACT: note_on channel=4 note=40 velocity=110 time=0.007440468749999999
EXTRACT: note_on channel=5 note=40 velocity=110 time=0
EXTRACT: note_on channel=6 note=60 velocity=110 time=0
EXTRACT: note_on channel=9 note=42 velocity=110 time=0
EXTRACT: note_on channel=4 note=40 velocity=0 time=0.17113078124999997
EXTRACT: note_on channel=5 note=40 velocity=0 time=0
EXTRACT: note_on channel=6 note=60 velocity=0 time=0
EXTRACT: note_on channel=9 note=42 velocity=0 time=0
EXTRACT: note_on channel=4 note=48 velocity=110 time=0.007440468749999999
EXTRACT: note_on channel=5 note=40 velocity=110 time=0
EXTRACT: note_on channel=6 note=60 velocity=110 time=0
EXTRACT: note_on channel=9 note=55 velocity=110 time=0
EXTRACT: note_on channel=9 note=35 velocity=110 time=0
EXTRACT: note_on channel=9 note=36 velocity=110 time=0
EXTRACT: note_on channel=9 note=42 velocity=110 time=0
EXTRACT: note_on channel=4 note=48 velocity=0 time=0.17113078124999997
EXTRACT: note_on channel=5 note=40 velocity=0 time=0
EXTRACT: note_on channel=6 note=60 velocity=0 time=0
EXTRACT: note_on channel=9 note=35 velocity=0 time=0
EXTRACT: note_on channel=9 note=36 velocity=0 time=0
EXTRACT: note_on channel=9 note=42 velocity=0 time=0
EXTRACT: note_on channel=4 note=48 velocity=110 time=0.007440468749999999
EXTRACT: note_on channel=5 note=40 velocity=110 time=0
EXTRACT: note_on channel=6 note=60 velocity=110 time=0
EXTRACT: note_on channel=9 note=35 velocity=110 time=0
EXTRACT: note_on channel=9 note=36 velocity=110 time=0
EXTRACT: note_on channel=9 note=42 velocity=110 time=0
EXTRACT: note_on channel=4 note=48 velocity=0 time=0.17113078124999997
EXTRACT: note_on channel=5 note=40 velocity=0 time=0
EXTRACT: note_on channel=6 note=60 velocity=0 time=0
EXTRACT: note_on channel=9 note=35 velocity=0 time=0
EXTRACT: note_on channel=9 note=36 velocity=0 time=0
EXTRACT: note_on channel=9 note=42 velocity=0 time=0
EXTRACT: note_on channel=4 note=48 velocity=110 time=0.007440468749999999
EXTRACT: note_on channel=5 note=40 velocity=110 time=0
EXTRACT: note_on channel=6 note=60 velocity=110 time=0
EXTRACT: note_on channel=9 note=38 velocity=110 time=0
EXTRACT: note_on channel=9 note=42 velocity=110 time=0
EXTRACT: note_on channel=4 note=48 velocity=0 time=0.17113078124999997
EXTRACT: note_on channel=5 note=40 velocity=0 time=0
EXTRACT: note_on channel=6 note=60 velocity=0 time=0
EXTRACT: note_on channel=9 note=38 velocity=0 time=0
EXTRACT: note_on channel=9 note=42 velocity=0 time=0
EXTRACT: note_on channel=4 note=48 velocity=110 time=0.007440468749999999
EXTRACT: note_on channel=5 note=40 velocity=110 time=0
EXTRACT: note_on channel=6 note=60 velocity=110 time=0
EXTRACT: note_on channel=9 note=42 velocity=110 time=0
EXTRACT: note_on channel=9 note=55 velocity=0 time=0.05952374999999999
EXTRACT: note_on channel=4 note=48 velocity=0 time=0.11160703124999999
EXTRACT: note_on channel=5 note=40 velocity=0 time=0
EXTRACT: note_on channel=6 note=60 velocity=0 time=0
EXTRACT: note_on channel=9 note=42 velocity=0 time=0
EXTRACT: note_on channel=4 note=47 velocity=110 time=0.007440468749999999
EXTRACT: note_on channel=5 note=39 velocity=110 time=0
EXTRACT: note_on channel=6 note=60 velocity=110 time=0
EXTRACT: note_on channel=9 note=35 velocity=110 time=0
EXTRACT: note_on channel=9 note=36 velocity=110 time=0
EXTRACT: note_on channel=9 note=42 velocity=110 time=0
EXTRACT: note_on channel=5 note=39 velocity=0 time=0.17113078124999997
EXTRACT: note_on channel=6 note=60 velocity=0 time=0
EXTRACT: note_on channel=9 note=35 velocity=0 time=0
EXTRACT: note_on channel=9 note=36 velocity=0 time=0
EXTRACT: note_on channel=9 note=42 velocity=0 time=0
EXTRACT: note_on channel=5 note=39 velocity=110 time=0.007440468749999999
EXTRACT: note_on channel=6 note=60 velocity=110 time=0
EXTRACT: note_on channel=9 note=42 velocity=110 time=0
EXTRACT: note_on channel=5 note=39 velocity=0 time=0.17113078124999997
EXTRACT: note_on channel=6 note=60 velocity=0 time=0
EXTRACT: note_on channel=9 note=42 velocity=0 time=0
EXTRACT: note_on channel=5 note=39 velocity=110 time=0.007440468749999999
EXTRACT: note_on channel=6 note=60 velocity=110 time=0
EXTRACT: note_on channel=9 note=38 velocity=110 time=0
EXTRACT: note_on channel=9 note=42 velocity=110 time=0
EXTRACT: note_on channel=5 note=39 velocity=0 time=0.17113078124999997
EXTRACT: note_on channel=6 note=60 velocity=0 time=0
EXTRACT: note_on channel=9 note=38 velocity=0 time=0
EXTRACT: note_on channel=9 note=42 velocity=0 time=0
EXTRACT: note_on channel=5 note=39 velocity=110 time=0.007440468749999999
EXTRACT: note_on channel=6 note=60 velocity=110 time=0
EXTRACT: note_on channel=9 note=42 velocity=110 time=0
EXTRACT: note_on channel=5 note=39 velocity=0 time=0.17113078124999997
EXTRACT: note_on channel=6 note=60 velocity=0 time=0
EXTRACT: note_on channel=9 note=42 velocity=0 time=0
EXTRACT: note_on channel=5 note=39 velocity=110 time=0.007440468749999999
EXTRACT: note_on channel=6 note=60 velocity=110 time=0
EXTRACT: note_on channel=9 note=55 velocity=110 time=0
EXTRACT: note_on channel=9 note=35 velocity=110 time=0
EXTRACT: note_on channel=9 note=36 velocity=110 time=0
EXTRACT: note_on channel=9 note=42 velocity=110 time=0
EXTRACT: note_on channel=5 note=39 velocity=0 time=0.17113078124999997
EXTRACT: note_on channel=6 note=60 velocity=0 time=0
EXTRACT: note_on channel=9 note=35 velocity=0 time=0
EXTRACT: note_on channel=9 note=36 velocity=0 time=0
EXTRACT: note_on channel=9 note=42 velocity=0 time=0
EXTRACT: note_on channel=5 note=39 velocity=110 time=0.007440468749999999
EXTRACT: note_on channel=6 note=60 velocity=110 time=0
EXTRACT: note_on channel=9 note=35 velocity=110 time=0
EXTRACT: note_on channel=9 note=36 velocity=110 time=0
EXTRACT: note_on channel=9 note=42 velocity=110 time=0
EXTRACT: note_on channel=5 note=39 velocity=0 time=0.17113078124999997
EXTRACT: note_on channel=6 note=60 velocity=0 time=0
EXTRACT: note_on channel=9 note=35 velocity=0 time=0
EXTRACT: note_on channel=9 note=36 velocity=0 time=0
EXTRACT: note_on channel=9 note=42 velocity=0 time=0
EXTRACT: note_on channel=5 note=39 velocity=110 time=0.007440468749999999
EXTRACT: note_on channel=6 note=60 velocity=110 time=0
EXTRACT: note_on channel=9 note=38 velocity=110 time=0
EXTRACT: note_on channel=9 note=42 velocity=110 time=0
EXTRACT: note_on channel=5 note=39 velocity=0 time=0.17113078124999997
EXTRACT: note_on channel=6 note=60 velocity=0 time=0
EXTRACT: note_on channel=9 note=38 velocity=0 time=0
EXTRACT: note_on channel=9 note=42 velocity=0 time=0
EXTRACT: note_on channel=4 note=47 velocity=0 time=0.007440468749999999
EXTRACT: note_on channel=6 note=60 velocity=110 time=0
EXTRACT: note_on channel=9 note=42 velocity=110 time=0
EXTRACT: note_on channel=9 note=55 velocity=0 time=0.05952374999999999
EXTRACT: note_on channel=6 note=60 velocity=0 time=0.11160703124999999
EXTRACT: note_on channel=9 note=42 velocity=0 time=0
EXTRACT: note_on channel=2 note=64 velocity=60 time=0.007440468749999999
EXTRACT: note_on channel=2 note=67 velocity=60 time=0
EXTRACT: note_on channel=3 note=67 velocity=110 time=0
EXTRACT: note_on channel=4 note=40 velocity=110 time=0
EXTRACT: note_on channel=5 note=40 velocity=110 time=0
EXTRACT: note_on channel=6 note=60 velocity=110 time=0
EXTRACT: note_on channel=9 note=35 velocity=110 time=0
EXTRACT: note_on channel=9 note=36 velocity=110 time=0
EXTRACT: note_on channel=9 note=42 velocity=110 time=0
EXTRACT: note_on channel=2 note=64 velocity=0 time=0.17113078124999997
EXTRACT: note_on channel=2 note=67 velocity=0 time=0
EXTRACT: note_on channel=3 note=67 velocity=0 time=0
EXTRACT: note_on channel=4 note=40 velocity=0 time=0
EXTRACT: note_on channel=5 note=40 velocity=0 time=0
EXTRACT: note_on channel=6 note=60 velocity=0 time=0
EXTRACT: note_on channel=9 note=35 velocity=0 time=0
EXTRACT: note_on channel=9 note=36 velocity=0 time=0
EXTRACT: note_on channel=9 note=42 velocity=0 time=0
EXTRACT: note_on channel=2 note=64 velocity=60 time=0.007440468749999999
EXTRACT: note_on channel=2 note=67 velocity=60 time=0
EXTRACT: note_on channel=3 note=67 velocity=110 time=0
EXTRACT: note_on channel=4 note=40 velocity=110 time=0
EXTRACT: note_on channel=5 note=40 velocity=110 time=0
EXTRACT: note_on channel=6 note=60 velocity=110 time=0
EXTRACT: note_on channel=9 note=42 velocity=110 time=0
EXTRACT: note_on channel=2 note=64 velocity=0 time=0.17113078124999997
EXTRACT: note_on channel=2 note=67 velocity=0 time=0
EXTRACT: note_on channel=3 note=67 velocity=0 time=0
EXTRACT: note_on channel=4 note=40 velocity=0 time=0
EXTRACT: note_on channel=5 note=40 velocity=0 time=0
EXTRACT: note_on channel=6 note=60 velocity=0 time=0
EXTRACT: note_on channel=9 note=42 velocity=0 time=0
EXTRACT: note_on channel=2 note=64 velocity=60 time=0.007440468749999999
EXTRACT: note_on channel=2 note=67 velocity=60 time=0
EXTRACT: note_on channel=3 note=67 velocity=110 time=0
EXTRACT: note_on channel=4 note=40 velocity=110 time=0
EXTRACT: note_on channel=5 note=40 velocity=110 time=0
EXTRACT: note_on channel=6 note=60 velocity=110 time=0
EXTRACT: note_on channel=9 note=38 velocity=110 time=0
EXTRACT: note_on channel=9 note=42 velocity=110 time=0
EXTRACT: note_on channel=2 note=64 velocity=0 time=0.17113078124999997
EXTRACT: note_on channel=2 note=67 velocity=0 time=0
EXTRACT: note_on channel=3 note=67 velocity=0 time=0
EXTRACT: note_on channel=4 note=40 velocity=0 time=0
EXTRACT: note_on channel=5 note=40 velocity=0 time=0
EXTRACT: note_on channel=6 note=60 velocity=0 time=0
EXTRACT: note_on channel=9 note=38 velocity=0 time=0
EXTRACT: note_on channel=9 note=42 velocity=0 time=0
EXTRACT: note_on channel=2 note=64 velocity=60 time=0.007440468749999999
EXTRACT: note_on channel=2 note=67 velocity=60 time=0
EXTRACT: note_on channel=3 note=67 velocity=110 time=0
EXTRACT: note_on channel=4 note=40 velocity=110 time=0
EXTRACT: note_on channel=6 note=60 velocity=110 time=0
EXTRACT: note_on channel=9 note=42 velocity=110 time=0
EXTRACT: note_on channel=2 note=64 velocity=0 time=0.17113078124999997
EXTRACT: note_on channel=2 note=67 velocity=0 time=0
EXTRACT: note_on channel=3 note=67 velocity=0 time=0
EXTRACT: note_on channel=4 note=40 velocity=0 time=0
EXTRACT: note_on channel=6 note=60 velocity=0 time=0
EXTRACT: note_on channel=9 note=42 velocity=0 time=0
EXTRACT: note_on channel=2 note=63 velocity=60 time=0.007440468749999999
EXTRACT: note_on channel=2 note=66 velocity=60 time=0
EXTRACT: note_on channel=3 note=66 velocity=110 time=0
EXTRACT: note_on channel=4 note=47 velocity=110 time=0
EXTRACT: note_on channel=5 note=40 velocity=110 time=0
EXTRACT: note_on channel=6 note=60 velocity=110 time=0
EXTRACT: note_on channel=9 note=55 velocity=110 time=0
EXTRACT: note_on channel=9 note=35 velocity=110 time=0
EXTRACT: note_on channel=9 note=36 velocity=110 time=0
EXTRACT: note_on channel=9 note=42 velocity=110 time=0
EXTRACT: note_on channel=2 note=63 velocity=0 time=0.17113078124999997
EXTRACT: note_on channel=2 note=66 velocity=0 time=0
EXTRACT: note_on channel=3 note=66 velocity=0 time=0
EXTRACT: note_on channel=4 note=47 velocity=0 time=0
EXTRACT: note_on channel=5 note=40 velocity=0 time=0
EXTRACT: note_on channel=6 note=60 velocity=0 time=0
EXTRACT: note_on channel=9 note=35 velocity=0 time=0
EXTRACT: note_on channel=9 note=36 velocity=0 time=0
EXTRACT: note_on channel=9 note=42 velocity=0 time=0
EXTRACT: note_on channel=2 note=63 velocity=60 time=0.007440468749999999
EXTRACT: note_on channel=2 note=66 velocity=60 time=0
EXTRACT: note_on channel=3 note=66 velocity=110 time=0
EXTRACT: note_on channel=4 note=47 velocity=110 time=0
EXTRACT: note_on channel=5 note=40 velocity=110 time=0
EXTRACT: note_on channel=6 note=60 velocity=110 time=0
EXTRACT: note_on channel=9 note=35 velocity=110 time=0
EXTRACT: note_on channel=9 note=36 velocity=110 time=0
EXTRACT: note_on channel=9 note=42 velocity=110 time=0
EXTRACT: note_on channel=2 note=63 velocity=0 time=0.17113078124999997
EXTRACT: note_on channel=2 note=66 velocity=0 time=0
EXTRACT: note_on channel=3 note=66 velocity=0 time=0
EXTRACT: note_on channel=4 note=47 velocity=0 time=0
EXTRACT: note_on channel=5 note=40 velocity=0 time=0
EXTRACT: note_on channel=6 note=60 velocity=0 time=0
EXTRACT: note_on channel=9 note=35 velocity=0 time=0
EXTRACT: note_on channel=9 note=36 velocity=0 time=0
EXTRACT: note_on channel=9 note=42 velocity=0 time=0
EXTRACT: note_on channel=2 note=63 velocity=60 time=0.007440468749999999
EXTRACT: note_on channel=2 note=66 velocity=60 time=0
EXTRACT: note_on channel=3 note=66 velocity=110 time=0
EXTRACT: note_on channel=4 note=47 velocity=110 time=0
EXTRACT: note_on channel=5 note=40 velocity=110 time=0
EXTRACT: note_on channel=6 note=60 velocity=110 time=0
EXTRACT: note_on channel=9 note=38 velocity=110 time=0
EXTRACT: note_on channel=9 note=42 velocity=110 time=0
EXTRACT: note_on channel=4 note=47 velocity=0 time=0.17113078124999997
EXTRACT: note_on channel=5 note=40 velocity=0 time=0
EXTRACT: note_on channel=6 note=60 velocity=0 time=0
EXTRACT: note_on channel=9 note=38 velocity=0 time=0
EXTRACT: note_on channel=9 note=42 velocity=0 time=0
EXTRACT: note_on channel=4 note=47 velocity=110 time=0.007440468749999999
EXTRACT: note_on channel=6 note=60 velocity=110 time=0
EXTRACT: note_on channel=9 note=42 velocity=110 time=0
EXTRACT: note_on channel=9 note=55 velocity=0 time=0.05952374999999999
EXTRACT: note_on channel=2 note=63 velocity=0 time=0.11160703124999999
EXTRACT: note_on channel=2 note=66 velocity=0 time=0
EXTRACT: note_on channel=3 note=66 velocity=0 time=0
EXTRACT: note_on channel=4 note=47 velocity=0 time=0
EXTRACT: note_on channel=6 note=60 velocity=0 time=0
EXTRACT: note_on channel=9 note=42 velocity=0 time=0
EXTRACT: note_on channel=2 note=60 velocity=60 time=0.007440468749999999
EXTRACT: note_on channel=2 note=64 velocity=60 time=0
EXTRACT: note_on channel=3 note=64 velocity=110 time=0
EXTRACT: note_on channel=4 note=48 velocity=110 time=0
EXTRACT: note_on channel=5 note=35 velocity=110 time=0
EXTRACT: note_on channel=6 note=60 velocity=110 time=0
EXTRACT: note_on channel=9 note=35 velocity=110 time=0
EXTRACT: note_on channel=9 note=36 velocity=110 time=0
EXTRACT: note_on channel=9 note=42 velocity=110 time=0
EXTRACT: note_on channel=2 note=60 velocity=0 time=0.17113078124999997
EXTRACT: note_on channel=2 note=64 velocity=0 time=0
EXTRACT: note_on channel=3 note=64 velocity=0 time=0
EXTRACT: note_on channel=4 note=48 velocity=0 time=0
EXTRACT: note_on channel=5 note=35 velocity=0 time=0
EXTRACT: note_on channel=6 note=60 velocity=0 time=0
EXTRACT: note_on channel=9 note=35 velocity=0 time=0
EXTRACT: note_on channel=9 note=36 velocity=0 time=0
EXTRACT: note_on channel=9 note=42 velocity=0 time=0
EXTRACT: note_on channel=2 note=60 velocity=60 time=0.007440468749999999
EXTRACT: note_on channel=2 note=64 velocity=60 time=0
EXTRACT: note_on channel=3 note=64 velocity=110 time=0
EXTRACT: note_on channel=4 note=48 velocity=110 time=0
EXTRACT: note_on channel=5 note=35 velocity=110 time=0
EXTRACT: note_on channel=6 note=60 velocity=110 time=0
EXTRACT: note_on channel=9 note=42 velocity=110 time=0
EXTRACT: note_on channel=2 note=60 velocity=0 time=0.17113078124999997
EXTRACT: note_on channel=2 note=64 velocity=0 time=0
EXTRACT: note_on channel=3 note=64 velocity=0 time=0
EXTRACT: note_on channel=4 note=48 velocity=0 time=0
EXTRACT: note_on channel=5 note=35 velocity=0 time=0
EXTRACT: note_on channel=6 note=60 velocity=0 time=0
EXTRACT: note_on channel=9 note=42 velocity=0 time=0
EXTRACT: note_on channel=2 note=60 velocity=60 time=0.007440468749999999
EXTRACT: note_on channel=2 note=64 velocity=60 time=0
EXTRACT: note_on channel=3 note=64 velocity=110 time=0
EXTRACT: note_on channel=4 note=48 velocity=110 time=0
EXTRACT: note_on channel=5 note=35 velocity=110 time=0
EXTRACT: note_on channel=6 note=60 velocity=110 time=0
EXTRACT: note_on channel=9 note=38 velocity=110 time=0
EXTRACT: note_on channel=9 note=42 velocity=110 time=0
EXTRACT: note_on channel=5 note=35 velocity=0 time=0.17113078124999997
EXTRACT: note_on channel=6 note=60 velocity=0 time=0
EXTRACT: note_on channel=9 note=38 velocity=0 time=0
EXTRACT: note_on channel=9 note=42 velocity=0 time=0
EXTRACT: note_on channel=6 note=60 velocity=110 time=0.007440468749999999
EXTRACT: note_on channel=9 note=42 velocity=110 time=0
EXTRACT: note_on channel=2 note=60 velocity=0 time=0.17113078124999997
EXTRACT: note_on channel=2 note=64 velocity=0 time=0
EXTRACT: note_on channel=3 note=64 velocity=0 time=0
EXTRACT: note_on channel=4 note=48 velocity=0 time=0
EXTRACT: note_on channel=6 note=60 velocity=0 time=0
EXTRACT: note_on channel=9 note=42 velocity=0 time=0
EXTRACT: note_on channel=2 note=60 velocity=60 time=0.007440468749999999
EXTRACT: note_on channel=2 note=64 velocity=60 time=0
EXTRACT: note_on channel=3 note=64 velocity=110 time=0
EXTRACT: note_on channel=4 note=48 velocity=110 time=0
EXTRACT: note_on channel=5 note=35 velocity=110 time=0
EXTRACT: note_on channel=6 note=60 velocity=110 time=0
EXTRACT: note_on channel=9 note=55 velocity=110 time=0
EXTRACT: note_on channel=9 note=35 velocity=110 time=0
EXTRACT: note_on channel=9 note=36 velocity=110 time=0
EXTRACT: note_on channel=9 note=42 velocity=110 time=0
EXTRACT: note_on channel=4 note=48 velocity=0 time=0.17113078124999997
EXTRACT: note_on channel=5 note=35 velocity=0 time=0
EXTRACT: note_on channel=6 note=60 velocity=0 time=0
EXTRACT: note_on channel=9 note=35 velocity=0 time=0
EXTRACT: note_on channel=9 note=36 velocity=0 time=0
EXTRACT: note_on channel=9 note=42 velocity=0 time=0
EXTRACT: note_on channel=4 note=48 velocity=110 time=0.007440468749999999
EXTRACT: note_on channel=5 note=35 velocity=110 time=0
EXTRACT: note_on channel=6 note=60 velocity=110 time=0
EXTRACT: note_on channel=9 note=35 velocity=110 time=0
EXTRACT: note_on channel=9 note=36 velocity=110 time=0
EXTRACT: note_on channel=9 note=42 velocity=110 time=0
EXTRACT: note_on channel=2 note=60 velocity=0 time=0.17113078124999997
EXTRACT: note_on channel=2 note=64 velocity=0 time=0
EXTRACT: note_on channel=3 note=64 velocity=0 time=0
EXTRACT: note_on channel=4 note=48 velocity=0 time=0
EXTRACT: note_on channel=5 note=35 velocity=0 time=0
EXTRACT: note_on channel=6 note=60 velocity=0 time=0
EXTRACT: note_on channel=9 note=35 velocity=0 time=0
EXTRACT: note_on channel=9 note=36 velocity=0 time=0
EXTRACT: note_on channel=9 note=42 velocity=0 time=0
EXTRACT: note_on channel=2 note=59 velocity=60 time=0.007440468749999999
EXTRACT: note_on channel=2 note=63 velocity=60 time=0
EXTRACT: note_on channel=3 note=62 velocity=110 time=0
EXTRACT: note_on channel=4 note=48 velocity=110 time=0
EXTRACT: note_on channel=5 note=35 velocity=110 time=0
EXTRACT: note_on channel=6 note=60 velocity=110 time=0
EXTRACT: note_on channel=9 note=38 velocity=110 time=0
EXTRACT: note_on channel=9 note=42 velocity=110 time=0
EXTRACT: note_on channel=5 note=35 velocity=0 time=0.17113078124999997
EXTRACT: note_on channel=6 note=60 velocity=0 time=0
EXTRACT: note_on channel=9 note=38 velocity=0 time=0
EXTRACT: note_on channel=9 note=42 velocity=0 time=0
EXTRACT: note_on channel=6 note=60 velocity=110 time=0.007440468749999999
EXTRACT: note_on channel=9 note=42 velocity=110 time=0
EXTRACT: note_on channel=9 note=55 velocity=0 time=0.05952374999999999
EXTRACT: note_on channel=2 note=59 velocity=0 time=0.11160703124999999
EXTRACT: note_on channel=2 note=63 velocity=0 time=0
EXTRACT: note_on channel=3 note=62 velocity=0 time=0
EXTRACT: note_on channel=4 note=48 velocity=0 time=0
EXTRACT: note_on channel=6 note=60 velocity=0 time=0
EXTRACT: note_on channel=9 note=42 velocity=0 time=0
EXTRACT: note_on channel=4 note=40 velocity=110 time=0.007440468749999999
EXTRACT: note_on channel=5 note=40 velocity=110 time=0
EXTRACT: note_on channel=6 note=60 velocity=110 time=0
EXTRACT: note_on channel=9 note=35 velocity=110 time=0
EXTRACT: note_on channel=9 note=36 velocity=110 time=0
EXTRACT: note_on channel=9 note=42 velocity=110 time=0
EXTRACT: note_on channel=4 note=40 velocity=0 time=0.17113078124999997
EXTRACT: note_on channel=5 note=40 velocity=0 time=0
EXTRACT: note_on channel=6 note=60 velocity=0 time=0
EXTRACT: note_on channel=9 note=35 velocity=0 time=0
EXTRACT: note_on channel=9 note=36 velocity=0 time=0
EXTRACT: note_on channel=9 note=42 velocity=0 time=0
EXTRACT: note_on channel=4 note=40 velocity=110 time=0.007440468749999999
EXTRACT: note_on channel=5 note=40 velocity=110 time=0
EXTRACT: note_on channel=6 note=60 velocity=110 time=0
EXTRACT: note_on channel=9 note=42 velocity=110 time=0
EXTRACT: note_on channel=4 note=40 velocity=0 time=0.17113078124999997
EXTRACT: note_on channel=5 note=40 velocity=0 time=0
EXTRACT: note_on channel=6 note=60 velocity=0 time=0
EXTRACT: note_on channel=9 note=42 velocity=0 time=0
EXTRACT: note_on channel=4 note=40 velocity=110 time=0.007440468749999999
EXTRACT: note_on channel=5 note=40 velocity=110 time=0
EXTRACT: note_on channel=6 note=60 velocity=110 time=0
EXTRACT: note_on channel=9 note=38 velocity=110 time=0
EXTRACT: note_on channel=9 note=42 velocity=110 time=0
EXTRACT: note_on channel=4 note=40 velocity=0 time=0.17113078124999997
EXTRACT: note_on channel=5 note=40 velocity=0 time=0
EXTRACT: note_on channel=6 note=60 velocity=0 time=0
EXTRACT: note_on channel=9 note=38 velocity=0 time=0
EXTRACT: note_on channel=9 note=42 velocity=0 time=0
EXTRACT: note_on channel=4 note=40 velocity=110 time=0.007440468749999999
EXTRACT: note_on channel=5 note=40 velocity=110 time=0
EXTRACT: note_on channel=6 note=60 velocity=110 time=0
EXTRACT: note_on channel=9 note=42 velocity=110 time=0
EXTRACT: note_on channel=4 note=40 velocity=0 time=0.17113078124999997
EXTRACT: note_on channel=5 note=40 velocity=0 time=0
EXTRACT: note_on channel=6 note=60 velocity=0 time=0
EXTRACT: note_on channel=9 note=42 velocity=0 time=0
EXTRACT: note_on channel=4 note=48 velocity=110 time=0.007440468749999999
EXTRACT: note_on channel=5 note=40 velocity=110 time=0
EXTRACT: note_on channel=6 note=60 velocity=110 time=0
EXTRACT: note_on channel=9 note=55 velocity=110 time=0
EXTRACT: note_on channel=9 note=35 velocity=110 time=0
EXTRACT: note_on channel=9 note=36 velocity=110 time=0
EXTRACT: note_on channel=9 note=42 velocity=110 time=0
EXTRACT: note_on channel=4 note=48 velocity=0 time=0.17113078124999997
EXTRACT: note_on channel=5 note=40 velocity=0 time=0
EXTRACT: note_on channel=6 note=60 velocity=0 time=0
EXTRACT: note_on channel=9 note=35 velocity=0 time=0
EXTRACT: note_on channel=9 note=36 velocity=0 time=0
EXTRACT: note_on channel=9 note=42 velocity=0 time=0
EXTRACT: note_on channel=4 note=48 velocity=110 time=0.007440468749999999
EXTRACT: note_on channel=5 note=40 velocity=110 time=0
EXTRACT: note_on channel=6 note=60 velocity=110 time=0
EXTRACT: note_on channel=9 note=35 velocity=110 time=0
EXTRACT: note_on channel=9 note=36 velocity=110 time=0
EXTRACT: note_on channel=9 note=42 velocity=110 time=0
EXTRACT: note_on channel=4 note=48 velocity=0 time=0.17113078124999997
EXTRACT: note_on channel=5 note=40 velocity=0 time=0
EXTRACT: note_on channel=6 note=60 velocity=0 time=0
EXTRACT: note_on channel=9 note=35 velocity=0 time=0
EXTRACT: note_on channel=9 note=36 velocity=0 time=0
EXTRACT: note_on channel=9 note=42 velocity=0 time=0
EXTRACT: note_on channel=4 note=48 velocity=110 time=0.007440468749999999
EXTRACT: note_on channel=5 note=40 velocity=110 time=0
EXTRACT: note_on channel=6 note=60 velocity=110 time=0
EXTRACT: note_on channel=9 note=38 velocity=110 time=0
EXTRACT: note_on channel=9 note=42 velocity=110 time=0
EXTRACT: note_on channel=4 note=48 velocity=0 time=0.17113078124999997
EXTRACT: note_on channel=5 note=40 velocity=0 time=0
EXTRACT: note_on channel=6 note=60 velocity=0 time=0
EXTRACT: note_on channel=9 note=38 velocity=0 time=0
EXTRACT: note_on channel=9 note=42 velocity=0 time=0
EXTRACT: note_on channel=4 note=48 velocity=110 time=0.007440468749999999
EXTRACT: note_on channel=5 note=40 velocity=110 time=0
EXTRACT: note_on channel=6 note=60 velocity=110 time=0
EXTRACT: note_on channel=9 note=42 velocity=110 time=0
EXTRACT: note_on channel=9 note=55 velocity=0 time=0.05952374999999999
EXTRACT: note_on channel=4 note=48 velocity=0 time=0.11160703124999999
EXTRACT: note_on channel=5 note=40 velocity=0 time=0
EXTRACT: note_on channel=6 note=60 velocity=0 time=0
EXTRACT: note_on channel=9 note=42 velocity=0 time=0
EXTRACT: note_on channel=4 note=47 velocity=110 time=0.007440468749999999
EXTRACT: note_on channel=5 note=39 velocity=110 time=0
EXTRACT: note_on channel=6 note=60 velocity=110 time=0
EXTRACT: note_on channel=9 note=35 velocity=110 time=0
EXTRACT: note_on channel=9 note=36 velocity=110 time=0
EXTRACT: note_on channel=9 note=42 velocity=110 time=0
EXTRACT: note_on channel=5 note=39 velocity=0 time=0.17113078124999997
EXTRACT: note_on channel=6 note=60 velocity=0 time=0
EXTRACT: note_on channel=9 note=35 velocity=0 time=0
EXTRACT: note_on channel=9 note=36 velocity=0 time=0
EXTRACT: note_on channel=9 note=42 velocity=0 time=0
EXTRACT: note_on channel=5 note=39 velocity=110 time=0.007440468749999999
EXTRACT: note_on channel=6 note=60 velocity=110 time=0
EXTRACT: note_on channel=9 note=42 velocity=110 time=0
EXTRACT: note_on channel=5 note=39 velocity=0 time=0.17113078124999997
EXTRACT: note_on channel=6 note=60 velocity=0 time=0
EXTRACT: note_on channel=9 note=42 velocity=0 time=0
EXTRACT: note_on channel=5 note=39 velocity=110 time=0.007440468749999999
EXTRACT: note_on channel=6 note=60 velocity=110 time=0
EXTRACT: note_on channel=9 note=38 velocity=110 time=0
EXTRACT: note_on channel=9 note=42 velocity=110 time=0
EXTRACT: note_on channel=5 note=39 velocity=0 time=0.17113078124999997
EXTRACT: note_on channel=6 note=60 velocity=0 time=0
EXTRACT: note_on channel=9 note=38 velocity=0 time=0
EXTRACT: note_on channel=9 note=42 velocity=0 time=0
EXTRACT: note_on channel=5 note=39 velocity=110 time=0.007440468749999999
EXTRACT: note_on channel=6 note=60 velocity=110 time=0
EXTRACT: note_on channel=9 note=42 velocity=110 time=0
EXTRACT: note_on channel=5 note=39 velocity=0 time=0.17113078124999997
EXTRACT: note_on channel=6 note=60 velocity=0 time=0
EXTRACT: note_on channel=9 note=42 velocity=0 time=0
EXTRACT: note_on channel=5 note=39 velocity=110 time=0.007440468749999999
EXTRACT: note_on channel=6 note=60 velocity=110 time=0
EXTRACT: note_on channel=9 note=55 velocity=110 time=0
EXTRACT: note_on channel=9 note=35 velocity=110 time=0
EXTRACT: note_on channel=9 note=36 velocity=110 time=0
EXTRACT: note_on channel=9 note=42 velocity=110 time=0
EXTRACT: note_on channel=5 note=39 velocity=0 time=0.17113078124999997
EXTRACT: note_on channel=6 note=60 velocity=0 time=0
EXTRACT: note_on channel=9 note=35 velocity=0 time=0
EXTRACT: note_on channel=9 note=36 velocity=0 time=0
EXTRACT: note_on channel=9 note=42 velocity=0 time=0
EXTRACT: note_on channel=5 note=39 velocity=110 time=0.007440468749999999
EXTRACT: note_on channel=6 note=60 velocity=110 time=0
EXTRACT: note_on channel=9 note=35 velocity=110 time=0
EXTRACT: note_on channel=9 note=36 velocity=110 time=0
EXTRACT: note_on channel=9 note=42 velocity=110 time=0
EXTRACT: note_on channel=5 note=39 velocity=0 time=0.17113078124999997
EXTRACT: note_on channel=6 note=60 velocity=0 time=0
EXTRACT: note_on channel=9 note=35 velocity=0 time=0
EXTRACT: note_on channel=9 note=36 velocity=0 time=0
EXTRACT: note_on channel=9 note=42 velocity=0 time=0
EXTRACT: note_on channel=2 note=57 velocity=60 time=0.007440468749999999
EXTRACT: note_on channel=3 note=57 velocity=110 time=0
EXTRACT: note_on channel=5 note=39 velocity=110 time=0
EXTRACT: note_on channel=6 note=60 velocity=110 time=0
EXTRACT: note_on channel=9 note=38 velocity=110 time=0
EXTRACT: note_on channel=9 note=42 velocity=110 time=0
EXTRACT: note_on channel=2 note=57 velocity=0 time=0.17113078124999997
EXTRACT: note_on channel=3 note=57 velocity=0 time=0
EXTRACT: note_on channel=5 note=39 velocity=0 time=0
EXTRACT: note_on channel=6 note=60 velocity=0 time=0
EXTRACT: note_on channel=9 note=38 velocity=0 time=0
EXTRACT: note_on channel=9 note=42 velocity=0 time=0
EXTRACT: note_on channel=2 note=57 velocity=60 time=0.007440468749999999
EXTRACT: note_on channel=3 note=57 velocity=110 time=0
EXTRACT: note_on channel=4 note=47 velocity=0 time=0
EXTRACT: note_on channel=6 note=60 velocity=110 time=0
EXTRACT: note_on channel=9 note=42 velocity=110 time=0
EXTRACT: note_on channel=9 note=55 velocity=0 time=0.05952374999999999
EXTRACT: note_on channel=2 note=57 velocity=0 time=0.11160703124999999
EXTRACT: note_on channel=3 note=57 velocity=0 time=0
EXTRACT: note_on channel=6 note=60 velocity=0 time=0
EXTRACT: note_on channel=9 note=42 velocity=0 time=0
EXTRACT: note_on channel=2 note=57 velocity=60 time=0.007440468749999999
EXTRACT: note_on channel=3 note=57 velocity=110 time=0
EXTRACT: program_change channel=4 program=26 time=0
EXTRACT: note_on channel=4 note=52 velocity=110 time=0
EXTRACT: note_on channel=6 note=60 velocity=110 time=0
EXTRACT: note_on channel=2 note=57 velocity=0 time=0.17113078124999997
EXTRACT: note_on channel=3 note=57 velocity=0 time=0
EXTRACT: note_on channel=2 note=57 velocity=60 time=0.007440468749999999
EXTRACT: note_on channel=3 note=57 velocity=110 time=0
EXTRACT: note_on channel=2 note=57 velocity=0 time=0.17113078124999997
EXTRACT: note_on channel=3 note=57 velocity=0 time=0
EXTRACT: note_on channel=2 note=57 velocity=60 time=0.007440468749999999
EXTRACT: note_on channel=3 note=57 velocity=110 time=0
EXTRACT: note_on channel=4 note=52 velocity=0 time=0.23809499999999997
EXTRACT: note_on channel=6 note=60 velocity=0 time=0
EXTRACT: note_on channel=2 note=57 velocity=0 time=0.11160703124999999
EXTRACT: note_on channel=3 note=57 velocity=0 time=0
EXTRACT: note_on channel=2 note=57 velocity=60 time=0.007440468749999999
EXTRACT: note_on channel=3 note=57 velocity=110 time=0
EXTRACT: note_on channel=4 note=47 velocity=110 time=0
EXTRACT: note_on channel=6 note=60 velocity=110 time=0
EXTRACT: note_on channel=9 note=55 velocity=110 time=0
EXTRACT: note_on channel=2 note=57 velocity=0 time=0.34970203124999993
EXTRACT: note_on channel=3 note=57 velocity=0 time=0
EXTRACT: note_on channel=2 note=55 velocity=60 time=0.007440468749999999
EXTRACT: note_on channel=3 note=55 velocity=110 time=0
EXTRACT: note_on channel=2 note=55 velocity=0 time=0.17113078124999997
EXTRACT: note_on channel=3 note=55 velocity=0 time=0
EXTRACT: note_on channel=6 note=60 velocity=0 time=0
EXTRACT: note_on channel=2 note=57 velocity=60 time=0.007440468749999999
EXTRACT: note_on channel=3 note=57 velocity=110 time=0
EXTRACT: note_on channel=6 note=60 velocity=110 time=0
EXTRACT: note_on channel=4 note=47 velocity=0 time=0.05952374999999999
EXTRACT: note_on channel=9 note=55 velocity=0 time=0
EXTRACT: note_on channel=6 note=60 velocity=0 time=0.11160703124999999
EXTRACT: note_on channel=4 note=52 velocity=110 time=0.007440468749999999
EXTRACT: note_on channel=6 note=60 velocity=110 time=0
EXTRACT: note_on channel=2 note=57 velocity=0 time=0.17113078124999997
EXTRACT: note_on channel=3 note=57 velocity=0 time=0
EXTRACT: note_on channel=2 note=55 velocity=60 time=0.007440468749999999
EXTRACT: note_on channel=3 note=55 velocity=110 time=0
EXTRACT: note_on channel=2 note=55 velocity=0 time=0.17113078124999997
EXTRACT: note_on channel=3 note=55 velocity=0 time=0
EXTRACT: note_on channel=2 note=57 velocity=60 time=0.007440468749999999
EXTRACT: note_on channel=3 note=57 velocity=110 time=0
EXTRACT: note_on channel=4 note=52 velocity=0 time=0.23809499999999997
EXTRACT: note_on channel=6 note=60 velocity=0 time=0
EXTRACT: note_on channel=4 note=47 velocity=110 time=0.11904749999999999
EXTRACT: note_on channel=6 note=60 velocity=110 time=0
EXTRACT: note_on channel=9 note=55 velocity=110 time=0
EXTRACT: note_on channel=2 note=57 velocity=0 time=0.23809499999999997
EXTRACT: note_on channel=3 note=57 velocity=0 time=0
EXTRACT: note_on channel=2 note=57 velocity=60 time=0.11904749999999999
EXTRACT: note_on channel=3 note=57 velocity=110 time=0
EXTRACT: note_on channel=2 note=57 velocity=0 time=0.17113078124999997
EXTRACT: note_on channel=3 note=57 velocity=0 time=0
EXTRACT: note_on channel=2 note=57 velocity=60 time=0.007440468749999999
EXTRACT: note_on channel=3 note=57 velocity=110 time=0
EXTRACT: note_on channel=4 note=47 velocity=0 time=0.05952374999999999
EXTRACT: note_on channel=6 note=60 velocity=0 time=0
EXTRACT: note_on channel=9 note=55 velocity=0 time=0
EXTRACT: note_on channel=2 note=57 velocity=0 time=0.11160703124999999
EXTRACT: note_on channel=3 note=57 velocity=0 time=0
EXTRACT: note_on channel=2 note=57 velocity=60 time=0.007440468749999999
EXTRACT: note_on channel=3 note=57 velocity=110 time=0
EXTRACT: note_on channel=4 note=51 velocity=110 time=0
EXTRACT: note_on channel=6 note=60 velocity=110 time=0
EXTRACT: note_on channel=2 note=57 velocity=0 time=0.17113078124999997
EXTRACT: note_on channel=3 note=57 velocity=0 time=0
EXTRACT: note_on channel=2 note=57 velocity=60 time=0.007440468749999999
EXTRACT: note_on channel=3 note=57 velocity=110 time=0
EXTRACT: note_on channel=2 note=57 velocity=0 time=0.17113078124999997
EXTRACT: note_on channel=3 note=57 velocity=0 time=0
EXTRACT: note_on channel=2 note=57 velocity=60 time=0.007440468749999999
EXTRACT: note_on channel=3 note=57 velocity=110 time=0
EXTRACT: note_on channel=2 note=57 velocity=0 time=0.17113078124999997
EXTRACT: note_on channel=3 note=57 velocity=0 time=0
EXTRACT: note_on channel=2 note=57 velocity=60 time=0.007440468749999999
EXTRACT: note_on channel=3 note=57 velocity=110 time=0
EXTRACT: note_on channel=4 note=51 velocity=0 time=0.05952374999999999
EXTRACT: note_on channel=6 note=60 velocity=0 time=0
EXTRACT: note_on channel=2 note=57 velocity=0 time=0.11160703124999999
EXTRACT: note_on channel=3 note=57 velocity=0 time=0
EXTRACT: note_on channel=2 note=57 velocity=60 time=0.007440468749999999
EXTRACT: note_on channel=3 note=57 velocity=110 time=0
EXTRACT: note_on channel=4 note=47 velocity=110 time=0
EXTRACT: note_on channel=6 note=60 velocity=110 time=0
EXTRACT: note_on channel=9 note=55 velocity=110 time=0
EXTRACT: note_on channel=2 note=57 velocity=0 time=0.34970203124999993
EXTRACT: note_on channel=3 note=57 velocity=0 time=0
EXTRACT: note_on channel=2 note=55 velocity=60 time=0.007440468749999999
EXTRACT: note_on channel=3 note=55 velocity=110 time=0
EXTRACT: note_on channel=2 note=55 velocity=0 time=0.17113078124999997
EXTRACT: note_on channel=3 note=55 velocity=0 time=0
EXTRACT: note_on channel=6 note=60 velocity=0 time=0
EXTRACT: note_on channel=2 note=57 velocity=60 time=0.007440468749999999
EXTRACT: note_on channel=3 note=57 velocity=110 time=0
EXTRACT: note_on channel=6 note=60 velocity=110 time=0
EXTRACT: note_on channel=4 note=47 velocity=0 time=0.05952374999999999
EXTRACT: note_on channel=9 note=55 velocity=0 time=0
EXTRACT: note_on channel=6 note=60 velocity=0 time=0.11160703124999999
EXTRACT: note_on channel=4 note=51 velocity=110 time=0.007440468749999999
EXTRACT: note_on channel=6 note=60 velocity=110 time=0
EXTRACT: note_on channel=2 note=57 velocity=0 time=0.17113078124999997
EXTRACT: note_on channel=3 note=57 velocity=0 time=0
EXTRACT: note_on channel=2 note=55 velocity=60 time=0.007440468749999999
EXTRACT: note_on channel=3 note=55 velocity=110 time=0
EXTRACT: note_on channel=2 note=55 velocity=0 time=0.17113078124999997
EXTRACT: note_on channel=3 note=55 velocity=0 time=0
EXTRACT: note_on channel=2 note=60 velocity=60 time=0.007440468749999999
EXTRACT: note_on channel=3 note=60 velocity=110 time=0
EXTRACT: note_on channel=4 note=51 velocity=0 time=0.23809499999999997
EXTRACT: note_on channel=6 note=60 velocity=0 time=0
EXTRACT: note_on channel=2 note=60 velocity=0 time=0.11160703124999999
EXTRACT: note_on channel=3 note=60 velocity=0 time=0
EXTRACT: note_on channel=2 note=59 velocity=60 time=0.007440468749999999
EXTRACT: note_on channel=3 note=59 velocity=110 time=0
EXTRACT: note_on channel=4 note=47 velocity=110 time=0
EXTRACT: note_on channel=6 note=60 velocity=110 time=0
EXTRACT: note_on channel=9 note=55 velocity=110 time=0
EXTRACT: note_on channel=2 note=59 velocity=0 time=0.34970203124999993
EXTRACT: note_on channel=3 note=59 velocity=0 time=0
EXTRACT: note_on channel=2 note=57 velocity=60 time=0.007440468749999999
EXTRACT: note_on channel=3 note=57 velocity=110 time=0
EXTRACT: note_on channel=2 note=57 velocity=0 time=0.17113078124999997
EXTRACT: note_on channel=3 note=57 velocity=0 time=0
EXTRACT: note_on channel=2 note=57 velocity=60 time=0.007440468749999999
EXTRACT: note_on channel=3 note=57 velocity=110 time=0
EXTRACT: note_on channel=4 note=47 velocity=0 time=0.05952374999999999
EXTRACT: note_on channel=6 note=60 velocity=0 time=0
EXTRACT: note_on channel=9 note=55 velocity=0 time=0
EXTRACT: note_on channel=2 note=57 velocity=0 time=0.11160703124999999
EXTRACT: note_on channel=3 note=57 velocity=0 time=0
EXTRACT: note_on channel=2 note=57 velocity=60 time=0.007440468749999999
EXTRACT: note_on channel=3 note=57 velocity=110 time=0
EXTRACT: note_on channel=4 note=52 velocity=110 time=0
EXTRACT: note_on channel=6 note=60 velocity=110 time=0
EXTRACT: note_on channel=2 note=57 velocity=0 time=0.17113078124999997
EXTRACT: note_on channel=3 note=57 velocity=0 time=0
EXTRACT: note_on channel=2 note=57 velocity=60 time=0.007440468749999999
EXTRACT: note_on channel=3 note=57 velocity=110 time=0
EXTRACT: note_on channel=2 note=57 velocity=0 time=0.17113078124999997
EXTRACT: note_on channel=3 note=57 velocity=0 time=0
EXTRACT: note_on channel=2 note=57 velocity=60 time=0.007440468749999999
EXTRACT: note_on channel=3 note=57 velocity=110 time=0
EXTRACT: note_on channel=4 note=52 velocity=0 time=0.23809499999999997
EXTRACT: note_on channel=6 note=60 velocity=0 time=0
EXTRACT: note_on channel=2 note=57 velocity=0 time=0.11160703124999999
EXTRACT: note_on channel=3 note=57 velocity=0 time=0
EXTRACT: note_on channel=2 note=57 velocity=60 time=0.007440468749999999
EXTRACT: note_on channel=3 note=57 velocity=110 time=0
EXTRACT: note_on channel=4 note=47 velocity=110 time=0
EXTRACT: note_on channel=6 note=60 velocity=110 time=0
EXTRACT: note_on channel=9 note=55 velocity=110 time=0
EXTRACT: note_on channel=2 note=57 velocity=0 time=0.34970203124999993
EXTRACT: note_on channel=3 note=57 velocity=0 time=0
EXTRACT: note_on channel=2 note=55 velocity=60 time=0.007440468749999999
EXTRACT: note_on channel=3 note=55 velocity=110 time=0
EXTRACT: note_on channel=2 note=55 velocity=0 time=0.17113078124999997
EXTRACT: note_on channel=3 note=55 velocity=0 time=0
EXTRACT: note_on channel=6 note=60 velocity=0 time=0
EXTRACT: note_on channel=2 note=57 velocity=60 time=0.007440468749999999
EXTRACT: note_on channel=3 note=57 velocity=110 time=0
EXTRACT: note_on channel=6 note=60 velocity=110 time=0
EXTRACT: note_on channel=4 note=47 velocity=0 time=0.05952374999999999
EXTRACT: note_on channel=9 note=55 velocity=0 time=0
EXTRACT: note_on channel=6 note=60 velocity=0 time=0.11160703124999999
EXTRACT: note_on channel=4 note=52 velocity=110 time=0.007440468749999999
EXTRACT: note_on channel=6 note=60 velocity=110 time=0
EXTRACT: note_on channel=2 note=57 velocity=0 time=0.17113078124999997
EXTRACT: note_on channel=3 note=57 velocity=0 time=0
EXTRACT: note_on channel=2 note=55 velocity=60 time=0.007440468749999999
EXTRACT: note_on channel=3 note=55 velocity=110 time=0
EXTRACT: note_on channel=2 note=55 velocity=0 time=0.17113078124999997
EXTRACT: note_on channel=3 note=55 velocity=0 time=0
EXTRACT: note_on channel=2 note=57 velocity=60 time=0.007440468749999999
EXTRACT: note_on channel=3 note=57 velocity=110 time=0
EXTRACT: note_on channel=4 note=52 velocity=0 time=0.23809499999999997
EXTRACT: note_on channel=6 note=60 velocity=0 time=0
EXTRACT: note_on channel=4 note=47 velocity=110 time=0.11904749999999999
EXTRACT: note_on channel=6 note=60 velocity=110 time=0
EXTRACT: note_on channel=9 note=55 velocity=110 time=0
EXTRACT: note_on channel=2 note=57 velocity=0 time=0.23809499999999997
EXTRACT: note_on channel=3 note=57 velocity=0 time=0
EXTRACT: note_on channel=2 note=57 velocity=60 time=0.11904749999999999
EXTRACT: note_on channel=3 note=57 velocity=110 time=0
EXTRACT: note_on channel=2 note=57 velocity=0 time=0.17113078124999997
EXTRACT: note_on channel=3 note=57 velocity=0 time=0
EXTRACT: note_on channel=2 note=57 velocity=60 time=0.007440468749999999
EXTRACT: note_on channel=3 note=57 velocity=110 time=0
EXTRACT: note_on channel=4 note=47 velocity=0 time=0.05952374999999999
EXTRACT: note_on channel=6 note=60 velocity=0 time=0
EXTRACT: note_on channel=9 note=55 velocity=0 time=0
EXTRACT: note_on channel=2 note=57 velocity=0 time=0.11160703124999999
EXTRACT: note_on channel=3 note=57 velocity=0 time=0
EXTRACT: note_on channel=2 note=64 velocity=60 time=0.007440468749999999
EXTRACT: note_on channel=3 note=64 velocity=110 time=0
EXTRACT: note_on channel=4 note=51 velocity=110 time=0
EXTRACT: note_on channel=6 note=60 velocity=110 time=0
EXTRACT: note_on channel=2 note=64 velocity=0 time=0.17113078124999997
EXTRACT: note_on channel=3 note=64 velocity=0 time=0
EXTRACT: note_on channel=2 note=64 velocity=60 time=0.007440468749999999
EXTRACT: note_on channel=3 note=64 velocity=110 time=0
EXTRACT: note_on channel=2 note=64 velocity=0 time=0.17113078124999997
EXTRACT: note_on channel=3 note=64 velocity=0 time=0
EXTRACT: note_on channel=2 note=64 velocity=60 time=0.007440468749999999
EXTRACT: note_on channel=3 note=64 velocity=110 time=0
EXTRACT: note_on channel=2 note=64 velocity=0 time=0.17113078124999997
EXTRACT: note_on channel=3 note=64 velocity=0 time=0
EXTRACT: note_on channel=2 note=64 velocity=60 time=0.007440468749999999
EXTRACT: note_on channel=3 note=64 velocity=110 time=0
EXTRACT: note_on channel=4 note=51 velocity=0 time=0.05952374999999999
EXTRACT: note_on channel=6 note=60 velocity=0 time=0
EXTRACT: note_on channel=2 note=64 velocity=0 time=0.11160703124999999
EXTRACT: note_on channel=3 note=64 velocity=0 time=0
EXTRACT: note_on channel=2 note=62 velocity=60 time=0.007440468749999999
EXTRACT: note_on channel=3 note=62 velocity=110 time=0
EXTRACT: note_on channel=6 note=60 velocity=110 time=0
EXTRACT: note_on channel=9 note=55 velocity=110 time=0
EXTRACT: note_on channel=2 note=62 velocity=0 time=0.34970203124999993
EXTRACT: note_on channel=3 note=62 velocity=0 time=0
EXTRACT: note_on channel=2 note=62 velocity=60 time=0.007440468749999999
EXTRACT: note_on channel=3 note=62 velocity=110 time=0
EXTRACT: note_on channel=2 note=62 velocity=0 time=0.17113078124999997
EXTRACT: note_on channel=3 note=62 velocity=0 time=0
EXTRACT: note_on channel=6 note=60 velocity=0 time=0
EXTRACT: note_on channel=2 note=60 velocity=60 time=0.007440468749999999
EXTRACT: note_on channel=3 note=60 velocity=110 time=0
EXTRACT: note_on channel=6 note=60 velocity=110 time=0
EXTRACT: note_on channel=9 note=55 velocity=0 time=0.05952374999999999
EXTRACT: note_on channel=6 note=60 velocity=0 time=0.11160703124999999
EXTRACT: note_on channel=6 note=60 velocity=110 time=0.007440468749999999
EXTRACT: note_on channel=2 note=60 velocity=0 time=0.17113078124999997
EXTRACT: note_on channel=3 note=60 velocity=0 time=0
EXTRACT: note_on channel=2 note=60 velocity=60 time=0.007440468749999999
EXTRACT: note_on channel=3 note=60 velocity=110 time=0
EXTRACT: note_on channel=2 note=60 velocity=0 time=0.17113078124999997
EXTRACT: note_on channel=3 note=60 velocity=0 time=0
EXTRACT: note_on channel=2 note=59 velocity=60 time=0.007440468749999999
EXTRACT: note_on channel=3 note=59 velocity=110 time=0
EXTRACT: note_on channel=6 note=60 velocity=0 time=0.23809499999999997
EXTRACT: note_on channel=2 note=59 velocity=0 time=0.11160703124999999
EXTRACT: note_on channel=3 note=59 velocity=0 time=0
EXTRACT: note_on channel=6 note=60 velocity=110 time=0.007440468749999999
EXTRACT: note_on channel=9 note=55 velocity=110 time=0
EXTRACT: note_on channel=6 note=60 velocity=0 time=0.5952375
EXTRACT: note_on channel=9 note=55 velocity=0 time=0
EXTRACT: program_change channel=4 program=30 time=0.11904749999999999
EXTRACT: note_on channel=4 note=40 velocity=110 time=0
EXTRACT: note_on channel=5 note=40 velocity=110 time=0
EXTRACT: note_on channel=6 note=60 velocity=110 time=0
EXTRACT: note_on channel=9 note=35 velocity=110 time=0
EXTRACT: note_on channel=9 note=36 velocity=110 time=0
EXTRACT: note_on channel=9 note=42 velocity=110 time=0
EXTRACT: note_on channel=4 note=40 velocity=0 time=0.17113078124999997
EXTRACT: note_on channel=5 note=40 velocity=0 time=0
EXTRACT: note_on channel=6 note=60 velocity=0 time=0
EXTRACT: note_on channel=9 note=35 velocity=0 time=0
EXTRACT: note_on channel=9 note=36 velocity=0 time=0
EXTRACT: note_on channel=9 note=42 velocity=0 time=0
EXTRACT: note_on channel=4 note=40 velocity=110 time=0.007440468749999999
EXTRACT: note_on channel=5 note=40 velocity=110 time=0
EXTRACT: note_on channel=6 note=60 velocity=110 time=0
EXTRACT: note_on channel=9 note=42 velocity=110 time=0
EXTRACT: note_on channel=4 note=40 velocity=0 time=0.17113078124999997
EXTRACT: note_on channel=5 note=40 velocity=0 time=0
EXTRACT: note_on channel=6 note=60 velocity=0 time=0
EXTRACT: note_on channel=9 note=42 velocity=0 time=0
EXTRACT: note_on channel=4 note=40 velocity=110 time=0.007440468749999999
EXTRACT: note_on channel=5 note=40 velocity=110 time=0
EXTRACT: note_on channel=6 note=60 velocity=110 time=0
EXTRACT: note_on channel=9 note=38 velocity=110 time=0
EXTRACT: note_on channel=9 note=42 velocity=110 time=0
EXTRACT: note_on channel=4 note=40 velocity=0 time=0.17113078124999997
EXTRACT: note_on channel=5 note=40 velocity=0 time=0
EXTRACT: note_on channel=6 note=60 velocity=0 time=0
EXTRACT: note_on channel=9 note=38 velocity=0 time=0
EXTRACT: note_on channel=9 note=42 velocity=0 time=0
EXTRACT: note_on channel=4 note=40 velocity=110 time=0.007440468749999999
EXTRACT: note_on channel=5 note=40 velocity=110 time=0
EXTRACT: note_on channel=6 note=60 velocity=110 time=0
EXTRACT: note_on channel=9 note=42 velocity=110 time=0
EXTRACT: note_on channel=4 note=40 velocity=0 time=0.17113078124999997
EXTRACT: note_on channel=5 note=40 velocity=0 time=0
EXTRACT: note_on channel=6 note=60 velocity=0 time=0
EXTRACT: note_on channel=9 note=42 velocity=0 time=0
EXTRACT: note_on channel=4 note=40 velocity=110 time=0.007440468749999999
EXTRACT: note_on channel=5 note=40 velocity=110 time=0
EXTRACT: note_on channel=6 note=60 velocity=110 time=0
EXTRACT: note_on channel=9 note=55 velocity=110 time=0
EXTRACT: note_on channel=9 note=35 velocity=110 time=0
EXTRACT: note_on channel=9 note=36 velocity=110 time=0
EXTRACT: note_on channel=9 note=42 velocity=110 time=0
EXTRACT: note_on channel=4 note=40 velocity=0 time=0.17113078124999997
EXTRACT: note_on channel=5 note=40 velocity=0 time=0
EXTRACT: note_on channel=6 note=60 velocity=0 time=0
EXTRACT: note_on channel=9 note=35 velocity=0 time=0
EXTRACT: note_on channel=9 note=36 velocity=0 time=0
EXTRACT: note_on channel=9 note=42 velocity=0 time=0
EXTRACT: note_on channel=4 note=40 velocity=110 time=0.007440468749999999
EXTRACT: note_on channel=5 note=40 velocity=110 time=0
EXTRACT: note_on channel=6 note=60 velocity=110 time=0
EXTRACT: note_on channel=9 note=35 velocity=110 time=0
EXTRACT: note_on channel=9 note=36 velocity=110 time=0
EXTRACT: note_on channel=9 note=42 velocity=110 time=0
EXTRACT: note_on channel=4 note=40 velocity=0 time=0.17113078124999997
EXTRACT: note_on channel=5 note=40 velocity=0 time=0
EXTRACT: note_on channel=6 note=60 velocity=0 time=0
EXTRACT: note_on channel=9 note=35 velocity=0 time=0
EXTRACT: note_on channel=9 note=36 velocity=0 time=0
EXTRACT: note_on channel=9 note=42 velocity=0 time=0
EXTRACT: note_on channel=4 note=40 velocity=110 time=0.007440468749999999
EXTRACT: note_on channel=5 note=40 velocity=110 time=0
EXTRACT: note_on channel=6 note=60 velocity=110 time=0
EXTRACT: note_on channel=9 note=38 velocity=110 time=0
EXTRACT: note_on channel=9 note=42 velocity=110 time=0
EXTRACT: note_on channel=4 note=40 velocity=0 time=0.17113078124999997
EXTRACT: note_on channel=5 note=40 velocity=0 time=0
EXTRACT: note_on channel=6 note=60 velocity=0 time=0
EXTRACT: note_on channel=9 note=38 velocity=0 time=0
EXTRACT: note_on channel=9 note=42 velocity=0 time=0
EXTRACT: note_on channel=4 note=40 velocity=110 time=0.007440468749999999
EXTRACT: note_on channel=5 note=40 velocity=110 time=0
EXTRACT: note_on channel=6 note=60 velocity=110 time=0
EXTRACT: note_on channel=9 note=42 velocity=110 time=0
EXTRACT: note_on channel=9 note=55 velocity=0 time=0.05952374999999999
EXTRACT: note_on channel=4 note=40 velocity=0 time=0.11160703124999999
EXTRACT: note_on channel=5 note=40 velocity=0 time=0
EXTRACT: note_on channel=6 note=60 velocity=0 time=0
EXTRACT: note_on channel=9 note=42 velocity=0 time=0
EXTRACT: note_on channel=4 note=40 velocity=110 time=0.007440468749999999
EXTRACT: note_on channel=5 note=40 velocity=110 time=0
EXTRACT: note_on channel=6 note=60 velocity=110 time=0
EXTRACT: note_on channel=9 note=35 velocity=110 time=0
EXTRACT: note_on channel=9 note=36 velocity=110 time=0
EXTRACT: note_on channel=9 note=42 velocity=110 time=0
EXTRACT: note_on channel=4 note=40 velocity=0 time=0.17113078124999997
EXTRACT: note_on channel=5 note=40 velocity=0 time=0
EXTRACT: note_on channel=6 note=60 velocity=0 time=0
EXTRACT: note_on channel=9 note=35 velocity=0 time=0
EXTRACT: note_on channel=9 note=36 velocity=0 time=0
EXTRACT: note_on channel=9 note=42 velocity=0 time=0
EXTRACT: note_on channel=4 note=40 velocity=110 time=0.007440468749999999
EXTRACT: note_on channel=5 note=40 velocity=110 time=0
EXTRACT: note_on channel=6 note=60 velocity=110 time=0
EXTRACT: note_on channel=9 note=42 velocity=110 time=0
EXTRACT: note_on channel=4 note=40 velocity=0 time=0.17113078124999997
EXTRACT: note_on channel=5 note=40 velocity=0 time=0
EXTRACT: note_on channel=6 note=60 velocity=0 time=0
EXTRACT: note_on channel=9 note=42 velocity=0 time=0
EXTRACT: note_on channel=4 note=40 velocity=110 time=0.007440468749999999
EXTRACT: note_on channel=5 note=40 velocity=110 time=0
EXTRACT: note_on channel=6 note=60 velocity=110 time=0
EXTRACT: note_on channel=9 note=38 velocity=110 time=0
EXTRACT: note_on channel=9 note=42 velocity=110 time=0
EXTRACT: note_on channel=4 note=40 velocity=0 time=0.17113078124999997
EXTRACT: note_on channel=5 note=40 velocity=0 time=0
EXTRACT: note_on channel=6 note=60 velocity=0 time=0
EXTRACT: note_on channel=9 note=38 velocity=0 time=0
EXTRACT: note_on channel=9 note=42 velocity=0 time=0
EXTRACT: note_on channel=4 note=40 velocity=110 time=0.007440468749999999
EXTRACT: note_on channel=5 note=47 velocity=110 time=0
EXTRACT: note_on channel=6 note=60 velocity=110 time=0
EXTRACT: note_on channel=9 note=42 velocity=110 time=0
EXTRACT: note_on channel=4 note=40 velocity=0 time=0.17113078124999997
EXTRACT: note_on channel=6 note=60 velocity=0 time=0
EXTRACT: note_on channel=9 note=42 velocity=0 time=0
EXTRACT: note_on channel=4 note=40 velocity=110 time=0.007440468749999999
EXTRACT: note_on channel=6 note=60 velocity=110 time=0
EXTRACT: note_on channel=9 note=55 velocity=110 time=0
EXTRACT: note_on channel=9 note=35 velocity=110 time=0
EXTRACT: note_on channel=9 note=36 velocity=110 time=0
EXTRACT: note_on channel=9 note=42 velocity=110 time=0
EXTRACT: note_on channel=4 note=40 velocity=0 time=0.17113078124999997
EXTRACT: note_on channel=5 note=47 velocity=0 time=0
EXTRACT: note_on channel=6 note=60 velocity=0 time=0
EXTRACT: note_on channel=9 note=35 velocity=0 time=0
EXTRACT: note_on channel=9 note=36 velocity=0 time=0
EXTRACT: note_on channel=9 note=42 velocity=0 time=0
EXTRACT: note_on channel=4 note=40 velocity=110 time=0.007440468749999999
EXTRACT: note_on channel=5 note=47 velocity=110 time=0
EXTRACT: note_on channel=6 note=60 velocity=110 time=0
EXTRACT: note_on channel=9 note=35 velocity=110 time=0
EXTRACT: note_on channel=9 note=36 velocity=110 time=0
EXTRACT: note_on channel=9 note=42 velocity=110 time=0
EXTRACT: note_on channel=4 note=40 velocity=0 time=0.17113078124999997
EXTRACT: note_on channel=5 note=47 velocity=0 time=0
EXTRACT: note_on channel=6 note=60 velocity=0 time=0
EXTRACT: note_on channel=9 note=35 velocity=0 time=0
EXTRACT: note_on channel=9 note=36 velocity=0 time=0
EXTRACT: note_on channel=9 note=42 velocity=0 time=0
EXTRACT: note_on channel=4 note=40 velocity=110 time=0.007440468749999999
EXTRACT: note_on channel=5 note=47 velocity=110 time=0
EXTRACT: note_on channel=6 note=60 velocity=110 time=0
EXTRACT: note_on channel=9 note=38 velocity=110 time=0
EXTRACT: note_on channel=9 note=42 velocity=110 time=0
EXTRACT: note_on channel=4 note=40 velocity=0 time=0.17113078124999997
EXTRACT: note_on channel=6 note=60 velocity=0 time=0
EXTRACT: note_on channel=9 note=38 velocity=0 time=0
EXTRACT: note_on channel=9 note=42 velocity=0 time=0
EXTRACT: note_on channel=4 note=40 velocity=110 time=0.007440468749999999
EXTRACT: note_on channel=6 note=60 velocity=110 time=0
EXTRACT: note_on channel=9 note=42 velocity=110 time=0
EXTRACT: note_on channel=9 note=55 velocity=0 time=0.05952374999999999
EXTRACT: note_on channel=4 note=40 velocity=0 time=0.11160703124999999
EXTRACT: note_on channel=5 note=47 velocity=0 time=0
EXTRACT: note_on channel=6 note=60 velocity=0 time=0
EXTRACT: note_on channel=9 note=42 velocity=0 time=0
EXTRACT: note_on channel=4 note=40 velocity=110 time=0.007440468749999999
EXTRACT: note_on channel=5 note=40 velocity=110 time=0
EXTRACT: note_on channel=6 note=60 velocity=110 time=0
EXTRACT: note_on channel=9 note=35 velocity=110 time=0
EXTRACT: note_on channel=9 note=36 velocity=110 time=0
EXTRACT: note_on channel=9 note=42 velocity=110 time=0
EXTRACT: note_on channel=4 note=40 velocity=0 time=0.17113078124999997
EXTRACT: note_on channel=5 note=40 velocity=0 time=0
EXTRACT: note_on channel=6 note=60 velocity=0 time=0
EXTRACT: note_on channel=9 note=35 velocity=0 time=0
EXTRACT: note_on channel=9 note=36 velocity=0 time=0
EXTRACT: note_on channel=9 note=42 velocity=0 time=0
EXTRACT: note_on channel=4 note=40 velocity=110 time=0.007440468749999999
EXTRACT: note_on channel=5 note=40 velocity=110 time=0
EXTRACT: note_on channel=6 note=60 velocity=110 time=0
EXTRACT: note_on channel=9 note=42 velocity=110 time=0
EXTRACT: note_on channel=4 note=40 velocity=0 time=0.17113078124999997
EXTRACT: note_on channel=5 note=40 velocity=0 time=0
EXTRACT: note_on channel=6 note=60 velocity=0 time=0
EXTRACT: note_on channel=9 note=42 velocity=0 time=0
EXTRACT: note_on channel=4 note=40 velocity=110 time=0.007440468749999999
EXTRACT: note_on channel=5 note=40 velocity=110 time=0
EXTRACT: note_on channel=6 note=60 velocity=110 time=0
EXTRACT: note_on channel=9 note=38 velocity=110 time=0
EXTRACT: note_on channel=9 note=42 velocity=110 time=0
EXTRACT: note_on channel=4 note=40 velocity=0 time=0.17113078124999997
EXTRACT: note_on channel=5 note=40 velocity=0 time=0
EXTRACT: note_on channel=6 note=60 velocity=0 time=0
EXTRACT: note_on channel=9 note=38 velocity=0 time=0
EXTRACT: note_on channel=9 note=42 velocity=0 time=0
EXTRACT: note_on channel=4 note=40 velocity=110 time=0.007440468749999999
EXTRACT: note_on channel=5 note=40 velocity=110 time=0
EXTRACT: note_on channel=6 note=60 velocity=110 time=0
EXTRACT: note_on channel=9 note=42 velocity=110 time=0
EXTRACT: note_on channel=4 note=40 velocity=0 time=0.17113078124999997
EXTRACT: note_on channel=5 note=40 velocity=0 time=0
EXTRACT: note_on channel=6 note=60 velocity=0 time=0
EXTRACT: note_on channel=9 note=42 velocity=0 time=0
EXTRACT: note_on channel=4 note=40 velocity=110 time=0.007440468749999999
EXTRACT: note_on channel=5 note=40 velocity=110 time=0
EXTRACT: note_on channel=6 note=60 velocity=110 time=0
EXTRACT: note_on channel=9 note=55 velocity=110 time=0
EXTRACT: note_on channel=9 note=35 velocity=110 time=0
EXTRACT: note_on channel=9 note=36 velocity=110 time=0
EXTRACT: note_on channel=9 note=42 velocity=110 time=0
EXTRACT: note_on channel=4 note=40 velocity=0 time=0.17113078124999997
EXTRACT: note_on channel=5 note=40 velocity=0 time=0
EXTRACT: note_on channel=6 note=60 velocity=0 time=0
EXTRACT: note_on channel=9 note=35 velocity=0 time=0
EXTRACT: note_on channel=9 note=36 velocity=0 time=0
EXTRACT: note_on channel=9 note=42 velocity=0 time=0
EXTRACT: note_on channel=4 note=40 velocity=110 time=0.007440468749999999
EXTRACT: note_on channel=5 note=40 velocity=110 time=0
EXTRACT: note_on channel=6 note=60 velocity=110 time=0
EXTRACT: note_on channel=9 note=35 velocity=110 time=0
EXTRACT: note_on channel=9 note=36 velocity=110 time=0
EXTRACT: note_on channel=9 note=42 velocity=110 time=0
EXTRACT: note_on channel=4 note=40 velocity=0 time=0.17113078124999997
EXTRACT: note_on channel=5 note=40 velocity=0 time=0
EXTRACT: note_on channel=6 note=60 velocity=0 time=0
EXTRACT: note_on channel=9 note=35 velocity=0 time=0
EXTRACT: note_on channel=9 note=36 velocity=0 time=0
EXTRACT: note_on channel=9 note=42 velocity=0 time=0
EXTRACT: note_on channel=4 note=40 velocity=110 time=0.007440468749999999
EXTRACT: note_on channel=5 note=40 velocity=110 time=0
EXTRACT: note_on channel=6 note=60 velocity=110 time=0
EXTRACT: note_on channel=9 note=38 velocity=110 time=0
EXTRACT: note_on channel=9 note=42 velocity=110 time=0
EXTRACT: note_on channel=4 note=40 velocity=0 time=0.17113078124999997
EXTRACT: note_on channel=5 note=40 velocity=0 time=0
EXTRACT: note_on channel=6 note=60 velocity=0 time=0
EXTRACT: note_on channel=9 note=38 velocity=0 time=0
EXTRACT: note_on channel=9 note=42 velocity=0 time=0
EXTRACT: note_on channel=4 note=40 velocity=110 time=0.007440468749999999
EXTRACT: note_on channel=5 note=40 velocity=110 time=0
EXTRACT: note_on channel=6 note=60 velocity=110 time=0
EXTRACT: note_on channel=9 note=42 velocity=110 time=0
EXTRACT: note_on channel=9 note=55 velocity=0 time=0.05952374999999999
EXTRACT: note_on channel=4 note=40 velocity=0 time=0.11160703124999999
EXTRACT: note_on channel=5 note=40 velocity=0 time=0
EXTRACT: note_on channel=6 note=60 velocity=0 time=0
EXTRACT: note_on channel=9 note=42 velocity=0 time=0
EXTRACT: note_on channel=4 note=40 velocity=110 time=0.007440468749999999
EXTRACT: note_on channel=5 note=40 velocity=110 time=0
EXTRACT: note_on channel=6 note=60 velocity=110 time=0
EXTRACT: note_on channel=9 note=35 velocity=110 time=0
EXTRACT: note_on channel=9 note=36 velocity=110 time=0
EXTRACT: note_on channel=9 note=42 velocity=110 time=0
EXTRACT: note_on channel=4 note=40 velocity=0 time=0.17113078124999997
EXTRACT: note_on channel=5 note=40 velocity=0 time=0
EXTRACT: note_on channel=6 note=60 velocity=0 time=0
EXTRACT: note_on channel=9 note=35 velocity=0 time=0
EXTRACT: note_on channel=9 note=36 velocity=0 time=0
EXTRACT: note_on channel=9 note=42 velocity=0 time=0
EXTRACT: note_on channel=4 note=40 velocity=110 time=0.007440468749999999
EXTRACT: note_on channel=5 note=40 velocity=110 time=0
EXTRACT: note_on channel=6 note=60 velocity=110 time=0
EXTRACT: note_on channel=9 note=42 velocity=110 time=0
EXTRACT: note_on channel=4 note=40 velocity=0 time=0.17113078124999997
EXTRACT: note_on channel=5 note=40 velocity=0 time=0
EXTRACT: note_on channel=6 note=60 velocity=0 time=0
EXTRACT: note_on channel=9 note=42 velocity=0 time=0
EXTRACT: note_on channel=4 note=40 velocity=110 time=0.007440468749999999
EXTRACT: note_on channel=5 note=40 velocity=110 time=0
EXTRACT: note_on channel=6 note=60 velocity=110 time=0
EXTRACT: note_on channel=9 note=38 velocity=110 time=0
EXTRACT: note_on channel=9 note=42 velocity=110 time=0
EXTRACT: note_on channel=4 note=40 velocity=0 time=0.17113078124999997
EXTRACT: note_on channel=5 note=40 velocity=0 time=0
EXTRACT: note_on channel=6 note=60 velocity=0 time=0
EXTRACT: note_on channel=9 note=38 velocity=0 time=0
EXTRACT: note_on channel=9 note=42 velocity=0 time=0
EXTRACT: note_on channel=4 note=40 velocity=110 time=0.007440468749999999
EXTRACT: note_on channel=5 note=47 velocity=110 time=0
EXTRACT: note_on channel=6 note=60 velocity=110 time=0
EXTRACT: note_on channel=9 note=42 velocity=110 time=0
EXTRACT: note_on channel=4 note=40 velocity=0 time=0.17113078124999997
EXTRACT: note_on channel=6 note=60 velocity=0 time=0
EXTRACT: note_on channel=9 note=42 velocity=0 time=0
EXTRACT: note_on channel=4 note=40 velocity=110 time=0.007440468749999999
EXTRACT: note_on channel=6 note=60 velocity=110 time=0
EXTRACT: note_on channel=9 note=55 velocity=110 time=0
EXTRACT: note_on channel=9 note=35 velocity=110 time=0
EXTRACT: note_on channel=9 note=36 velocity=110 time=0
EXTRACT: note_on channel=9 note=42 velocity=110 time=0
EXTRACT: note_on channel=4 note=40 velocity=0 time=0.17113078124999997
EXTRACT: note_on channel=5 note=47 velocity=0 time=0
EXTRACT: note_on channel=6 note=60 velocity=0 time=0
EXTRACT: note_on channel=9 note=35 velocity=0 time=0
EXTRACT: note_on channel=9 note=36 velocity=0 time=0
EXTRACT: note_on channel=9 note=42 velocity=0 time=0
EXTRACT: note_on channel=4 note=40 velocity=110 time=0.007440468749999999
EXTRACT: note_on channel=5 note=47 velocity=110 time=0
EXTRACT: note_on channel=6 note=60 velocity=110 time=0
EXTRACT: note_on channel=9 note=35 velocity=110 time=0
EXTRACT: note_on channel=9 note=36 velocity=110 time=0
EXTRACT: note_on channel=9 note=42 velocity=110 time=0
EXTRACT: note_on channel=4 note=40 velocity=0 time=0.17113078124999997
EXTRACT: note_on channel=5 note=47 velocity=0 time=0
EXTRACT: note_on channel=6 note=60 velocity=0 time=0
EXTRACT: note_on channel=9 note=35 velocity=0 time=0
EXTRACT: note_on channel=9 note=36 velocity=0 time=0
EXTRACT: note_on channel=9 note=42 velocity=0 time=0
EXTRACT: note_on channel=4 note=40 velocity=110 time=0.007440468749999999
EXTRACT: note_on channel=5 note=47 velocity=110 time=0
EXTRACT: note_on channel=6 note=60 velocity=110 time=0
EXTRACT: note_on channel=9 note=38 velocity=110 time=0
EXTRACT: note_on channel=9 note=42 velocity=110 time=0
EXTRACT: note_on channel=4 note=40 velocity=0 time=0.17113078124999997
EXTRACT: note_on channel=6 note=60 velocity=0 time=0
EXTRACT: note_on channel=9 note=38 velocity=0 time=0
EXTRACT: note_on channel=9 note=42 velocity=0 time=0
EXTRACT: note_on channel=4 note=40 velocity=110 time=0.007440468749999999
EXTRACT: note_on channel=6 note=60 velocity=110 time=0
EXTRACT: note_on channel=9 note=42 velocity=110 time=0
EXTRACT: note_on channel=9 note=55 velocity=0 time=0.05952374999999999
EXTRACT: note_on channel=4 note=40 velocity=0 time=0.11160703124999999
EXTRACT: note_on channel=5 note=47 velocity=0 time=0
EXTRACT: note_on channel=6 note=60 velocity=0 time=0
EXTRACT: note_on channel=9 note=42 velocity=0 time=0
EXTRACT: note_on channel=4 note=47 velocity=110 time=0.007440468749999999
EXTRACT: note_on channel=5 note=47 velocity=110 time=0
EXTRACT: note_on channel=6 note=60 velocity=110 time=0
EXTRACT: note_on channel=9 note=35 velocity=110 time=0
EXTRACT: note_on channel=9 note=36 velocity=110 time=0
EXTRACT: note_on channel=9 note=42 velocity=110 time=0
EXTRACT: note_on channel=4 note=47 velocity=0 time=0.17113078124999997
EXTRACT: note_on channel=5 note=47 velocity=0 time=0
EXTRACT: note_on channel=6 note=60 velocity=0 time=0
EXTRACT: note_on channel=9 note=35 velocity=0 time=0
EXTRACT: note_on channel=9 note=36 velocity=0 time=0
EXTRACT: note_on channel=9 note=42 velocity=0 time=0
EXTRACT: note_on channel=4 note=47 velocity=110 time=0.007440468749999999
EXTRACT: note_on channel=5 note=47 velocity=110 time=0
EXTRACT: note_on channel=6 note=60 velocity=110 time=0
EXTRACT: note_on channel=9 note=42 velocity=110 time=0
EXTRACT: note_on channel=4 note=47 velocity=0 time=0.17113078124999997
EXTRACT: note_on channel=5 note=47 velocity=0 time=0
EXTRACT: note_on channel=6 note=60 velocity=0 time=0
EXTRACT: note_on channel=9 note=42 velocity=0 time=0
EXTRACT: note_on channel=4 note=47 velocity=110 time=0.007440468749999999
EXTRACT: note_on channel=5 note=47 velocity=110 time=0
EXTRACT: note_on channel=6 note=60 velocity=110 time=0
EXTRACT: note_on channel=9 note=38 velocity=110 time=0
EXTRACT: note_on channel=9 note=42 velocity=110 time=0
EXTRACT: note_on channel=4 note=47 velocity=0 time=0.17113078124999997
EXTRACT: note_on channel=5 note=47 velocity=0 time=0
EXTRACT: note_on channel=6 note=60 velocity=0 time=0
EXTRACT: note_on channel=9 note=38 velocity=0 time=0
EXTRACT: note_on channel=9 note=42 velocity=0 time=0
EXTRACT: note_on channel=4 note=47 velocity=110 time=0.007440468749999999
EXTRACT: note_on channel=5 note=47 velocity=110 time=0
EXTRACT: note_on channel=6 note=60 velocity=110 time=0
EXTRACT: note_on channel=9 note=42 velocity=110 time=0
EXTRACT: note_on channel=4 note=47 velocity=0 time=0.17113078124999997
EXTRACT: note_on channel=5 note=47 velocity=0 time=0
EXTRACT: note_on channel=6 note=60 velocity=0 time=0
EXTRACT: note_on channel=9 note=42 velocity=0 time=0
EXTRACT: note_on channel=4 note=47 velocity=110 time=0.007440468749999999
EXTRACT: note_on channel=5 note=47 velocity=110 time=0
EXTRACT: note_on channel=6 note=60 velocity=110 time=0
EXTRACT: note_on channel=9 note=55 velocity=110 time=0
EXTRACT: note_on channel=9 note=35 velocity=110 time=0
EXTRACT: note_on channel=9 note=36 velocity=110 time=0
EXTRACT: note_on channel=9 note=42 velocity=110 time=0
EXTRACT: note_on channel=4 note=47 velocity=0 time=0.17113078124999997
EXTRACT: note_on channel=5 note=47 velocity=0 time=0
EXTRACT: note_on channel=6 note=60 velocity=0 time=0
EXTRACT: note_on channel=9 note=35 velocity=0 time=0
EXTRACT: note_on channel=9 note=36 velocity=0 time=0
EXTRACT: note_on channel=9 note=42 velocity=0 time=0
EXTRACT: note_on channel=4 note=47 velocity=110 time=0.007440468749999999
EXTRACT: note_on channel=5 note=47 velocity=110 time=0
EXTRACT: note_on channel=6 note=60 velocity=110 time=0
EXTRACT: note_on channel=9 note=35 velocity=110 time=0
EXTRACT: note_on channel=9 note=36 velocity=110 time=0
EXTRACT: note_on channel=9 note=42 velocity=110 time=0
EXTRACT: note_on channel=4 note=47 velocity=0 time=0.17113078124999997
EXTRACT: note_on channel=5 note=47 velocity=0 time=0
EXTRACT: note_on channel=6 note=60 velocity=0 time=0
EXTRACT: note_on channel=9 note=35 velocity=0 time=0
EXTRACT: note_on channel=9 note=36 velocity=0 time=0
EXTRACT: note_on channel=9 note=42 velocity=0 time=0
EXTRACT: note_on channel=4 note=47 velocity=110 time=0.007440468749999999
EXTRACT: note_on channel=5 note=47 velocity=110 time=0
EXTRACT: note_on channel=6 note=60 velocity=110 time=0
EXTRACT: note_on channel=9 note=38 velocity=110 time=0
EXTRACT: note_on channel=9 note=42 velocity=110 time=0
EXTRACT: note_on channel=4 note=47 velocity=0 time=0.17113078124999997
EXTRACT: note_on channel=5 note=47 velocity=0 time=0
EXTRACT: note_on channel=6 note=60 velocity=0 time=0
EXTRACT: note_on channel=9 note=38 velocity=0 time=0
EXTRACT: note_on channel=9 note=42 velocity=0 time=0
EXTRACT: note_on channel=4 note=47 velocity=110 time=0.007440468749999999
EXTRACT: note_on channel=5 note=47 velocity=110 time=0
EXTRACT: note_on channel=6 note=60 velocity=110 time=0
EXTRACT: note_on channel=9 note=42 velocity=110 time=0
EXTRACT: note_on channel=9 note=55 velocity=0 time=0.05952374999999999
EXTRACT: note_on channel=4 note=47 velocity=0 time=0.11160703124999999
EXTRACT: note_on channel=5 note=47 velocity=0 time=0
EXTRACT: note_on channel=6 note=60 velocity=0 time=0
EXTRACT: note_on channel=9 note=42 velocity=0 time=0
EXTRACT: note_on channel=4 note=47 velocity=110 time=0.007440468749999999
EXTRACT: note_on channel=5 note=47 velocity=110 time=0
EXTRACT: note_on channel=6 note=60 velocity=110 time=0
EXTRACT: note_on channel=9 note=35 velocity=110 time=0
EXTRACT: note_on channel=9 note=36 velocity=110 time=0
EXTRACT: note_on channel=9 note=42 velocity=110 time=0
EXTRACT: note_on channel=4 note=47 velocity=0 time=0.17113078124999997
EXTRACT: note_on channel=5 note=47 velocity=0 time=0
EXTRACT: note_on channel=6 note=60 velocity=0 time=0
EXTRACT: note_on channel=9 note=35 velocity=0 time=0
EXTRACT: note_on channel=9 note=36 velocity=0 time=0
EXTRACT: note_on channel=9 note=42 velocity=0 time=0
EXTRACT: note_on channel=4 note=47 velocity=110 time=0.007440468749999999
EXTRACT: note_on channel=5 note=47 velocity=110 time=0
EXTRACT: note_on channel=6 note=60 velocity=110 time=0
EXTRACT: note_on channel=9 note=42 velocity=110 time=0
EXTRACT: note_on channel=4 note=47 velocity=0 time=0.17113078124999997
EXTRACT: note_on channel=5 note=47 velocity=0 time=0
EXTRACT: note_on channel=6 note=60 velocity=0 time=0
EXTRACT: note_on channel=9 note=42 velocity=0 time=0
EXTRACT: note_on channel=4 note=47 velocity=110 time=0.007440468749999999
EXTRACT: note_on channel=5 note=47 velocity=110 time=0
EXTRACT: note_on channel=6 note=60 velocity=110 time=0
EXTRACT: note_on channel=9 note=38 velocity=110 time=0
EXTRACT: note_on channel=9 note=42 velocity=110 time=0
EXTRACT: note_on channel=4 note=47 velocity=0 time=0.17113078124999997
EXTRACT: note_on channel=5 note=47 velocity=0 time=0
EXTRACT: note_on channel=6 note=60 velocity=0 time=0
EXTRACT: note_on channel=9 note=38 velocity=0 time=0
EXTRACT: note_on channel=9 note=42 velocity=0 time=0
EXTRACT: note_on channel=4 note=47 velocity=110 time=0.007440468749999999
EXTRACT: note_on channel=5 note=40 velocity=110 time=0
EXTRACT: note_on channel=6 note=60 velocity=110 time=0
EXTRACT: note_on channel=9 note=42 velocity=110 time=0
EXTRACT: note_on channel=4 note=47 velocity=0 time=0.17113078124999997
EXTRACT: note_on channel=6 note=60 velocity=0 time=0
EXTRACT: note_on channel=9 note=42 velocity=0 time=0
EXTRACT: note_on channel=4 note=47 velocity=110 time=0.007440468749999999
EXTRACT: note_on channel=6 note=60 velocity=110 time=0
EXTRACT: note_on channel=9 note=55 velocity=110 time=0
EXTRACT: note_on channel=9 note=35 velocity=110 time=0
EXTRACT: note_on channel=9 note=36 velocity=110 time=0
EXTRACT: note_on channel=9 note=42 velocity=110 time=0
EXTRACT: note_on channel=4 note=47 velocity=0 time=0.17113078124999997
EXTRACT: note_on channel=5 note=40 velocity=0 time=0
EXTRACT: note_on channel=6 note=60 velocity=0 time=0
EXTRACT: note_on channel=9 note=35 velocity=0 time=0
EXTRACT: note_on channel=9 note=36 velocity=0 time=0
EXTRACT: note_on channel=9 note=42 velocity=0 time=0
EXTRACT: note_on channel=4 note=47 velocity=110 time=0.007440468749999999
EXTRACT: note_on channel=5 note=40 velocity=110 time=0
EXTRACT: note_on channel=6 note=60 velocity=110 time=0
EXTRACT: note_on channel=9 note=35 velocity=110 time=0
EXTRACT: note_on channel=9 note=36 velocity=110 time=0
EXTRACT: note_on channel=9 note=42 velocity=110 time=0
EXTRACT: note_on channel=4 note=47 velocity=0 time=0.17113078124999997
EXTRACT: note_on channel=5 note=40 velocity=0 time=0
EXTRACT: note_on channel=6 note=60 velocity=0 time=0
EXTRACT: note_on channel=9 note=35 velocity=0 time=0
EXTRACT: note_on channel=9 note=36 velocity=0 time=0
EXTRACT: note_on channel=9 note=42 velocity=0 time=0
EXTRACT: note_on channel=4 note=47 velocity=110 time=0.007440468749999999
EXTRACT: note_on channel=5 note=40 velocity=110 time=0
EXTRACT: note_on channel=6 note=60 velocity=110 time=0
EXTRACT: note_on channel=9 note=38 velocity=110 time=0
EXTRACT: note_on channel=9 note=42 velocity=110 time=0
EXTRACT: note_on channel=4 note=47 velocity=0 time=0.17113078124999997
EXTRACT: note_on channel=6 note=60 velocity=0 time=0
EXTRACT: note_on channel=9 note=38 velocity=0 time=0
EXTRACT: note_on channel=9 note=42 velocity=0 time=0
EXTRACT: note_on channel=4 note=47 velocity=110 time=0.007440468749999999
EXTRACT: note_on channel=6 note=60 velocity=110 time=0
EXTRACT: note_on channel=9 note=42 velocity=110 time=0
EXTRACT: note_on channel=9 note=55 velocity=0 time=0.05952374999999999
EXTRACT: note_on channel=4 note=47 velocity=0 time=0.11160703124999999
EXTRACT: note_on channel=5 note=40 velocity=0 time=0
EXTRACT: note_on channel=6 note=60 velocity=0 time=0
EXTRACT: note_on channel=9 note=42 velocity=0 time=0
EXTRACT: note_on channel=4 note=47 velocity=110 time=0.007440468749999999
EXTRACT: note_on channel=5 note=47 velocity=110 time=0
EXTRACT: note_on channel=6 note=60 velocity=110 time=0
EXTRACT: note_on channel=9 note=35 velocity=110 time=0
EXTRACT: note_on channel=9 note=36 velocity=110 time=0
EXTRACT: note_on channel=9 note=42 velocity=110 time=0
EXTRACT: note_on channel=4 note=47 velocity=0 time=0.17113078124999997
EXTRACT: note_on channel=5 note=47 velocity=0 time=0
EXTRACT: note_on channel=6 note=60 velocity=0 time=0
EXTRACT: note_on channel=9 note=35 velocity=0 time=0
EXTRACT: note_on channel=9 note=36 velocity=0 time=0
EXTRACT: note_on channel=9 note=42 velocity=0 time=0
EXTRACT: note_on channel=4 note=47 velocity=110 time=0.007440468749999999
EXTRACT: note_on channel=5 note=47 velocity=110 time=0
EXTRACT: note_on channel=6 note=60 velocity=110 time=0
EXTRACT: note_on channel=9 note=42 velocity=110 time=0
EXTRACT: note_on channel=4 note=47 velocity=0 time=0.17113078124999997
EXTRACT: note_on channel=5 note=47 velocity=0 time=0
EXTRACT: note_on channel=6 note=60 velocity=0 time=0
EXTRACT: note_on channel=9 note=42 velocity=0 time=0
EXTRACT: note_on channel=4 note=47 velocity=110 time=0.007440468749999999
EXTRACT: note_on channel=5 note=47 velocity=110 time=0
EXTRACT: note_on channel=6 note=60 velocity=110 time=0
EXTRACT: note_on channel=9 note=38 velocity=110 time=0
EXTRACT: note_on channel=9 note=42 velocity=110 time=0
EXTRACT: note_on channel=4 note=47 velocity=0 time=0.17113078124999997
EXTRACT: note_on channel=5 note=47 velocity=0 time=0
EXTRACT: note_on channel=6 note=60 velocity=0 time=0
EXTRACT: note_on channel=9 note=38 velocity=0 time=0
EXTRACT: note_on channel=9 note=42 velocity=0 time=0
EXTRACT: note_on channel=4 note=47 velocity=110 time=0.007440468749999999
EXTRACT: note_on channel=5 note=47 velocity=110 time=0
EXTRACT: note_on channel=6 note=60 velocity=110 time=0
EXTRACT: note_on channel=9 note=42 velocity=110 time=0
EXTRACT: note_on channel=4 note=47 velocity=0 time=0.17113078124999997
EXTRACT: note_on channel=5 note=47 velocity=0 time=0
EXTRACT: note_on channel=6 note=60 velocity=0 time=0
EXTRACT: note_on channel=9 note=42 velocity=0 time=0
EXTRACT: note_on channel=4 note=47 velocity=110 time=0.007440468749999999
EXTRACT: note_on channel=5 note=47 velocity=110 time=0
EXTRACT: note_on channel=6 note=60 velocity=110 time=0
EXTRACT: note_on channel=9 note=55 velocity=110 time=0
EXTRACT: note_on channel=9 note=35 velocity=110 time=0
EXTRACT: note_on channel=9 note=36 velocity=110 time=0
EXTRACT: note_on channel=9 note=42 velocity=110 time=0
EXTRACT: note_on channel=4 note=47 velocity=0 time=0.17113078124999997
EXTRACT: note_on channel=5 note=47 velocity=0 time=0
EXTRACT: note_on channel=6 note=60 velocity=0 time=0
EXTRACT: note_on channel=9 note=35 velocity=0 time=0
EXTRACT: note_on channel=9 note=36 velocity=0 time=0
EXTRACT: note_on channel=9 note=42 velocity=0 time=0
EXTRACT: note_on channel=4 note=47 velocity=110 time=0.007440468749999999
EXTRACT: note_on channel=5 note=47 velocity=110 time=0
EXTRACT: note_on channel=6 note=60 velocity=110 time=0
EXTRACT: note_on channel=9 note=35 velocity=110 time=0
EXTRACT: note_on channel=9 note=36 velocity=110 time=0
EXTRACT: note_on channel=9 note=42 velocity=110 time=0
EXTRACT: note_on channel=4 note=47 velocity=0 time=0.17113078124999997
EXTRACT: note_on channel=5 note=47 velocity=0 time=0
EXTRACT: note_on channel=6 note=60 velocity=0 time=0
EXTRACT: note_on channel=9 note=35 velocity=0 time=0
EXTRACT: note_on channel=9 note=36 velocity=0 time=0
EXTRACT: note_on channel=9 note=42 velocity=0 time=0
EXTRACT: note_on channel=4 note=47 velocity=110 time=0.007440468749999999
EXTRACT: note_on channel=5 note=47 velocity=110 time=0
EXTRACT: note_on channel=6 note=60 velocity=110 time=0
EXTRACT: note_on channel=9 note=38 velocity=110 time=0
EXTRACT: note_on channel=9 note=42 velocity=110 time=0
EXTRACT: note_on channel=4 note=47 velocity=0 time=0.17113078124999997
EXTRACT: note_on channel=5 note=47 velocity=0 time=0
EXTRACT: note_on channel=6 note=60 velocity=0 time=0
EXTRACT: note_on channel=9 note=38 velocity=0 time=0
EXTRACT: note_on channel=9 note=42 velocity=0 time=0
EXTRACT: note_on channel=4 note=47 velocity=110 time=0.007440468749999999
EXTRACT: note_on channel=5 note=47 velocity=110 time=0
EXTRACT: note_on channel=6 note=60 velocity=110 time=0
EXTRACT: note_on channel=9 note=42 velocity=110 time=0
EXTRACT: note_on channel=9 note=55 velocity=0 time=0.05952374999999999
EXTRACT: note_on channel=4 note=47 velocity=0 time=0.11160703124999999
EXTRACT: note_on channel=5 note=47 velocity=0 time=0
EXTRACT: note_on channel=6 note=60 velocity=0 time=0
EXTRACT: note_on channel=9 note=42 velocity=0 time=0
EXTRACT: note_on channel=4 note=47 velocity=110 time=0.007440468749999999
EXTRACT: note_on channel=5 note=47 velocity=110 time=0
EXTRACT: note_on channel=6 note=60 velocity=110 time=0
EXTRACT: note_on channel=9 note=35 velocity=110 time=0
EXTRACT: note_on channel=9 note=36 velocity=110 time=0
EXTRACT: note_on channel=9 note=42 velocity=110 time=0
EXTRACT: note_on channel=4 note=47 velocity=0 time=0.17113078124999997
EXTRACT: note_on channel=5 note=47 velocity=0 time=0
EXTRACT: note_on channel=6 note=60 velocity=0 time=0
EXTRACT: note_on channel=9 note=35 velocity=0 time=0
EXTRACT: note_on channel=9 note=36 velocity=0 time=0
EXTRACT: note_on channel=9 note=42 velocity=0 time=0
EXTRACT: note_on channel=3 note=59 velocity=110 time=0.18601171874999997
EXTRACT: note_on channel=3 note=59 velocity=0 time=0.17113078124999997
EXTRACT: note_on channel=3 note=59 velocity=110 time=0.007440468749999999
EXTRACT: note_on channel=3 note=59 velocity=0 time=0.17113078124999997
EXTRACT: note_on channel=3 note=62 velocity=110 time=0.007440468749999999
EXTRACT: note_on channel=9 note=55 velocity=110 time=0
EXTRACT: note_on channel=3 note=62 velocity=0 time=0.34970203124999993
EXTRACT: note_on channel=3 note=62 velocity=110 time=0.007440468749999999
EXTRACT: note_on channel=5 note=35 velocity=110 time=0
EXTRACT: note_on channel=9 note=55 velocity=0 time=0.23809499999999997
EXTRACT: note_on channel=3 note=62 velocity=0 time=0.11160703124999999
EXTRACT: note_on channel=5 note=35 velocity=0 time=0
EXTRACT: note_on channel=3 note=62 velocity=110 time=0.007440468749999999
EXTRACT: program_change channel=4 program=26 time=0
EXTRACT: note_on channel=4 note=47 velocity=110 time=0
EXTRACT: note_on channel=5 note=40 velocity=110 time=0
EXTRACT: note_on channel=6 note=60 velocity=110 time=0
EXTRACT: note_on channel=9 note=35 velocity=110 time=0
EXTRACT: note_on channel=9 note=36 velocity=110 time=0
EXTRACT: note_on channel=9 note=42 velocity=110 time=0
EXTRACT: note_on channel=4 note=47 velocity=0 time=0.34970203124999993
EXTRACT: note_on channel=9 note=35 velocity=0 time=0
EXTRACT: note_on channel=9 note=36 velocity=0 time=0
EXTRACT: note_on channel=9 note=42 velocity=0 time=0
EXTRACT: note_on channel=4 note=52 velocity=110 time=0.007440468749999999
EXTRACT: note_on channel=9 note=35 velocity=110 time=0
EXTRACT: note_on channel=9 note=36 velocity=110 time=0
EXTRACT: note_on channel=9 note=42 velocity=110 time=0
EXTRACT: note_on channel=3 note=62 velocity=0 time=0.17113078124999997
EXTRACT: note_on channel=3 note=62 velocity=110 time=0.007440468749999999
EXTRACT: note_on channel=6 note=60 velocity=0 time=0.05952374999999999
EXTRACT: note_on channel=4 note=52 velocity=0 time=0.11160703124999999
EXTRACT: note_on channel=9 note=35 velocity=0 time=0
EXTRACT: note_on channel=9 note=36 velocity=0 time=0
EXTRACT: note_on channel=9 note=42 velocity=0 time=0
EXTRACT: note_on channel=4 note=48 velocity=110 time=0.007440468749999999
EXTRACT: note_on channel=6 note=60 velocity=110 time=0
EXTRACT: note_on channel=9 note=55 velocity=110 time=0
EXTRACT: note_on channel=9 note=38 velocity=110 time=0
EXTRACT: note_on channel=9 note=42 velocity=110 time=0
EXTRACT: note_on channel=3 note=62 velocity=0 time=0.17113078124999997
EXTRACT: note_on channel=3 note=59 velocity=110 time=0.007440468749999999
EXTRACT: note_on channel=5 note=40 velocity=0 time=0.05952374999999999
EXTRACT: note_on channel=3 note=59 velocity=0 time=0.11160703124999999
EXTRACT: note_on channel=4 note=48 velocity=0 time=0
EXTRACT: note_on channel=9 note=38 velocity=0 time=0
EXTRACT: note_on channel=9 note=42 velocity=0 time=0
EXTRACT: note_on channel=3 note=64 velocity=110 time=0.007440468749999999
EXTRACT: note_on channel=4 note=47 velocity=110 time=0
EXTRACT: note_on channel=5 note=52 velocity=110 time=0
EXTRACT: note_on channel=9 note=35 velocity=110 time=0
EXTRACT: note_on channel=6 note=60 velocity=0 time=0.17113078124999997
EXTRACT: note_on channel=9 note=35 velocity=0 time=0
EXTRACT: note_on channel=6 note=60 velocity=110 time=0.007440468749999999
EXTRACT: note_on channel=9 note=35 velocity=110 time=0
EXTRACT: note_on channel=9 note=55 velocity=0 time=0.05952374999999999
EXTRACT: note_on channel=3 note=64 velocity=0 time=0.11160703124999999
EXTRACT: note_on channel=4 note=47 velocity=0 time=0
EXTRACT: note_on channel=6 note=60 velocity=0 time=0
EXTRACT: note_on channel=9 note=35 velocity=0 time=0
EXTRACT: note_on channel=4 note=47 velocity=110 time=0.007440468749999999
EXTRACT: note_on channel=6 note=60 velocity=110 time=0
EXTRACT: note_on channel=9 note=35 velocity=110 time=0
EXTRACT: note_on channel=9 note=36 velocity=110 time=0
EXTRACT: note_on channel=9 note=42 velocity=110 time=0
EXTRACT: note_on channel=5 note=52 velocity=0 time=0.23809499999999997
EXTRACT: note_on channel=4 note=47 velocity=0 time=0.11160703124999999
EXTRACT: note_on channel=9 note=35 velocity=0 time=0
EXTRACT: note_on channel=9 note=36 velocity=0 time=0
EXTRACT: note_on channel=9 note=42 velocity=0 time=0
EXTRACT: note_on channel=3 note=59 velocity=110 time=0.007440468749999999
EXTRACT: note_on channel=4 note=52 velocity=110 time=0
EXTRACT: note_on channel=9 note=35 velocity=110 time=0
EXTRACT: note_on channel=9 note=36 velocity=110 time=0
EXTRACT: note_on channel=9 note=42 velocity=110 time=0
EXTRACT: note_on channel=6 note=60 velocity=0 time=0.23809499999999997
EXTRACT: note_on channel=3 note=59 velocity=0 time=0.11160703124999999
EXTRACT: note_on channel=4 note=52 velocity=0 time=0
EXTRACT: note_on channel=9 note=35 velocity=0 time=0
EXTRACT: note_on channel=9 note=36 velocity=0 time=0
EXTRACT: note_on channel=9 note=42 velocity=0 time=0
EXTRACT: note_on channel=3 note=62 velocity=110 time=0.007440468749999999
EXTRACT: note_on channel=4 note=48 velocity=110 time=0
EXTRACT: note_on channel=5 note=52 velocity=110 time=0
EXTRACT: note_on channel=6 note=60 velocity=110 time=0
EXTRACT: note_on channel=9 note=55 velocity=110 time=0
EXTRACT: note_on channel=9 note=38 velocity=110 time=0
EXTRACT: note_on channel=9 note=42 velocity=110 time=0
EXTRACT: note_on channel=3 note=62 velocity=0 time=0.17113078124999997
EXTRACT: note_on channel=3 note=62 velocity=110 time=0.007440468749999999
EXTRACT: note_on channel=3 note=62 velocity=0 time=0.17113078124999997
EXTRACT: note_on channel=4 note=48 velocity=0 time=0
EXTRACT: note_on channel=9 note=38 velocity=0 time=0
EXTRACT: note_on channel=9 note=42 velocity=0 time=0
EXTRACT: note_on channel=3 note=62 velocity=110 time=0.007440468749999999
EXTRACT: note_on channel=4 note=47 velocity=110 time=0
EXTRACT: note_on channel=9 note=35 velocity=110 time=0
EXTRACT: note_on channel=9 note=35 velocity=0 time=0.17113078124999997
EXTRACT: note_on channel=9 note=35 velocity=110 time=0.007440468749999999
EXTRACT: note_on channel=5 note=52 velocity=0 time=0.05952374999999999
EXTRACT: note_on channel=6 note=60 velocity=0 time=0
EXTRACT: note_on channel=9 note=55 velocity=0 time=0
EXTRACT: note_on channel=3 note=62 velocity=0 time=0.11160703124999999
EXTRACT: note_on channel=4 note=47 velocity=0 time=0
EXTRACT: note_on channel=9 note=35 velocity=0 time=0
EXTRACT: note_on channel=3 note=62 velocity=110 time=0.007440468749999999
EXTRACT: note_on channel=4 note=47 velocity=110 time=0
EXTRACT: note_on channel=5 note=47 velocity=110 time=0
EXTRACT: note_on channel=6 note=60 velocity=110 time=0
EXTRACT: note_on channel=9 note=35 velocity=110 time=0
EXTRACT: note_on channel=9 note=36 velocity=110 time=0
EXTRACT: note_on channel=9 note=42 velocity=110 time=0
EXTRACT: note_on channel=4 note=47 velocity=0 time=0.34970203124999993
EXTRACT: note_on channel=9 note=35 velocity=0 time=0
EXTRACT: note_on channel=9 note=36 velocity=0 time=0
EXTRACT: note_on channel=9 note=42 velocity=0 time=0
EXTRACT: note_on channel=4 note=54 velocity=110 time=0.007440468749999999
EXTRACT: note_on channel=9 note=35 velocity=110 time=0
EXTRACT: note_on channel=9 note=36 velocity=110 time=0
EXTRACT: note_on channel=9 note=42 velocity=110 time=0
EXTRACT: note_on channel=3 note=62 velocity=0 time=0.17113078124999997
EXTRACT: note_on channel=3 note=62 velocity=110 time=0.007440468749999999
EXTRACT: note_on channel=6 note=60 velocity=0 time=0.05952374999999999
EXTRACT: note_on channel=4 note=54 velocity=0 time=0.11160703124999999
EXTRACT: note_on channel=9 note=35 velocity=0 time=0
EXTRACT: note_on channel=9 note=36 velocity=0 time=0
EXTRACT: note_on channel=9 note=42 velocity=0 time=0
EXTRACT: note_on channel=4 note=52 velocity=110 time=0.007440468749999999
EXTRACT: note_on channel=6 note=60 velocity=110 time=0
EXTRACT: note_on channel=9 note=55 velocity=110 time=0
EXTRACT: note_on channel=9 note=38 velocity=110 time=0
EXTRACT: note_on channel=9 note=42 velocity=110 time=0
EXTRACT: note_on channel=3 note=62 velocity=0 time=0.17113078124999997
EXTRACT: note_on channel=3 note=59 velocity=110 time=0.007440468749999999
EXTRACT: note_on channel=5 note=47 velocity=0 time=0.05952374999999999
EXTRACT: note_on channel=3 note=59 velocity=0 time=0.11160703124999999
EXTRACT: note_on channel=4 note=52 velocity=0 time=0
EXTRACT: note_on channel=9 note=38 velocity=0 time=0
EXTRACT: note_on channel=9 note=42 velocity=0 time=0
EXTRACT: note_on channel=3 note=59 velocity=110 time=0.007440468749999999
EXTRACT: note_on channel=4 note=48 velocity=110 time=0
EXTRACT: note_on channel=5 note=52 velocity=110 time=0
EXTRACT: note_on channel=9 note=35 velocity=110 time=0
EXTRACT: note_on channel=6 note=60 velocity=0 time=0.17113078124999997
EXTRACT: note_on channel=9 note=35 velocity=0 time=0
EXTRACT: note_on channel=6 note=60 velocity=110 time=0.007440468749999999
EXTRACT: note_on channel=9 note=35 velocity=110 time=0
EXTRACT: note_on channel=9 note=55 velocity=0 time=0.05952374999999999
EXTRACT: note_on channel=3 note=59 velocity=0 time=0.11160703124999999
EXTRACT: note_on channel=4 note=48 velocity=0 time=0
EXTRACT: note_on channel=6 note=60 velocity=0 time=0
EXTRACT: note_on channel=9 note=35 velocity=0 time=0
EXTRACT: note_on channel=4 note=47 velocity=110 time=0.007440468749999999
EXTRACT: note_on channel=6 note=60 velocity=110 time=0
EXTRACT: note_on channel=9 note=35 velocity=110 time=0
EXTRACT: note_on channel=9 note=36 velocity=110 time=0
EXTRACT: note_on channel=9 note=42 velocity=110 time=0
EXTRACT: note_on channel=5 note=52 velocity=0 time=0.23809499999999997
EXTRACT: note_on channel=4 note=47 velocity=0 time=0.11160703124999999
EXTRACT: note_on channel=9 note=35 velocity=0 time=0
EXTRACT: note_on channel=9 note=36 velocity=0 time=0
EXTRACT: note_on channel=9 note=42 velocity=0 time=0
EXTRACT: note_on channel=3 note=59 velocity=110 time=0.007440468749999999
EXTRACT: note_on channel=4 note=52 velocity=110 time=0
EXTRACT: note_on channel=9 note=35 velocity=110 time=0
EXTRACT: note_on channel=9 note=36 velocity=110 time=0
EXTRACT: note_on channel=9 note=42 velocity=110 time=0
EXTRACT: note_on channel=3 note=59 velocity=0 time=0.17113078124999997
EXTRACT: note_on channel=3 note=59 velocity=110 time=0.007440468749999999
EXTRACT: note_on channel=6 note=60 velocity=0 time=0.05952374999999999
EXTRACT: note_on channel=3 note=59 velocity=0 time=0.11160703124999999
EXTRACT: note_on channel=4 note=52 velocity=0 time=0
EXTRACT: note_on channel=9 note=35 velocity=0 time=0
EXTRACT: note_on channel=9 note=36 velocity=0 time=0
EXTRACT: note_on channel=9 note=42 velocity=0 time=0
EXTRACT: note_on channel=3 note=62 velocity=110 time=0.007440468749999999
EXTRACT: note_on channel=4 note=48 velocity=110 time=0
EXTRACT: note_on channel=5 note=52 velocity=110 time=0
EXTRACT: note_on channel=6 note=60 velocity=110 time=0
EXTRACT: note_on channel=9 note=55 velocity=110 time=0
EXTRACT: note_on channel=9 note=38 velocity=110 time=0
EXTRACT: note_on channel=9 note=42 velocity=110 time=0
EXTRACT: note_on channel=3 note=62 velocity=0 time=0.34970203124999993
EXTRACT: note_on channel=4 note=48 velocity=0 time=0
EXTRACT: note_on channel=9 note=38 velocity=0 time=0
EXTRACT: note_on channel=9 note=42 velocity=0 time=0
EXTRACT: note_on channel=3 note=62 velocity=110 time=0.007440468749999999
EXTRACT: note_on channel=4 note=47 velocity=110 time=0
EXTRACT: note_on channel=9 note=35 velocity=110 time=0
EXTRACT: note_on channel=9 note=35 velocity=0 time=0.17113078124999997
EXTRACT: note_on channel=9 note=35 velocity=110 time=0.007440468749999999
EXTRACT: note_on channel=5 note=52 velocity=0 time=0.05952374999999999
EXTRACT: note_on channel=6 note=60 velocity=0 time=0
EXTRACT: note_on channel=9 note=55 velocity=0 time=0
EXTRACT: note_on channel=3 note=62 velocity=0 time=0.11160703124999999
EXTRACT: note_on channel=4 note=47 velocity=0 time=0
EXTRACT: note_on channel=9 note=35 velocity=0 time=0
EXTRACT: note_on channel=3 note=62 velocity=110 time=0.007440468749999999
EXTRACT: note_on channel=4 note=47 velocity=110 time=0
EXTRACT: note_on channel=5 note=40 velocity=110 time=0
EXTRACT: note_on channel=6 note=60 velocity=110 time=0
EXTRACT: note_on channel=9 note=35 velocity=110 time=0
EXTRACT: note_on channel=9 note=36 velocity=110 time=0
EXTRACT: note_on channel=9 note=42 velocity=110 time=0
EXTRACT: note_on channel=4 note=47 velocity=0 time=0.34970203124999993
EXTRACT: note_on channel=9 note=35 velocity=0 time=0
EXTRACT: note_on channel=9 note=36 velocity=0 time=0
EXTRACT: note_on channel=9 note=42 velocity=0 time=0
EXTRACT: note_on channel=4 note=52 velocity=110 time=0.007440468749999999
EXTRACT: note_on channel=9 note=35 velocity=110 time=0
EXTRACT: note_on channel=9 note=36 velocity=110 time=0
EXTRACT: note_on channel=9 note=42 velocity=110 time=0
EXTRACT: note_on channel=3 note=62 velocity=0 time=0.17113078124999997
EXTRACT: note_on channel=3 note=62 velocity=110 time=0.007440468749999999
EXTRACT: note_on channel=6 note=60 velocity=0 time=0.05952374999999999
EXTRACT: note_on channel=4 note=52 velocity=0 time=0.11160703124999999
EXTRACT: note_on channel=9 note=35 velocity=0 time=0
EXTRACT: note_on channel=9 note=36 velocity=0 time=0
EXTRACT: note_on channel=9 note=42 velocity=0 time=0
EXTRACT: note_on channel=4 note=48 velocity=110 time=0.007440468749999999
EXTRACT: note_on channel=6 note=60 velocity=110 time=0
EXTRACT: note_on channel=9 note=55 velocity=110 time=0
EXTRACT: note_on channel=9 note=38 velocity=110 time=0
EXTRACT: note_on channel=9 note=42 velocity=110 time=0
EXTRACT: note_on channel=3 note=62 velocity=0 time=0.17113078124999997
EXTRACT: note_on channel=3 note=59 velocity=110 time=0.007440468749999999
EXTRACT: note_on channel=5 note=40 velocity=0 time=0.05952374999999999
EXTRACT: note_on channel=3 note=59 velocity=0 time=0.11160703124999999
EXTRACT: note_on channel=4 note=48 velocity=0 time=0
EXTRACT: note_on channel=9 note=38 velocity=0 time=0
EXTRACT: note_on channel=9 note=42 velocity=0 time=0
EXTRACT: note_on channel=3 note=64 velocity=110 time=0.007440468749999999
EXTRACT: note_on channel=4 note=47 velocity=110 time=0
EXTRACT: note_on channel=5 note=52 velocity=110 time=0
EXTRACT: note_on channel=9 note=35 velocity=110 time=0
EXTRACT: note_on channel=6 note=60 velocity=0 time=0.17113078124999997
EXTRACT: note_on channel=9 note=35 velocity=0 time=0
EXTRACT: note_on channel=6 note=60 velocity=110 time=0.007440468749999999
EXTRACT: note_on channel=9 note=35 velocity=110 time=0
EXTRACT: note_on channel=9 note=55 velocity=0 time=0.05952374999999999
EXTRACT: note_on channel=3 note=64 velocity=0 time=0.11160703124999999
EXTRACT: note_on channel=4 note=47 velocity=0 time=0
EXTRACT: note_on channel=6 note=60 velocity=0 time=0
EXTRACT: note_on channel=9 note=35 velocity=0 time=0
EXTRACT: note_on channel=4 note=47 velocity=110 time=0.007440468749999999
EXTRACT: note_on channel=6 note=60 velocity=110 time=0
EXTRACT: note_on channel=9 note=35 velocity=110 time=0
EXTRACT: note_on channel=9 note=36 velocity=110 time=0
EXTRACT: note_on channel=9 note=42 velocity=110 time=0
EXTRACT: note_on channel=5 note=52 velocity=0 time=0.23809499999999997
EXTRACT: note_on channel=4 note=47 velocity=0 time=0.11160703124999999
EXTRACT: note_on channel=9 note=35 velocity=0 time=0
EXTRACT: note_on channel=9 note=36 velocity=0 time=0
EXTRACT: note_on channel=9 note=42 velocity=0 time=0
EXTRACT: note_on channel=3 note=59 velocity=110 time=0.007440468749999999
EXTRACT: note_on channel=4 note=52 velocity=110 time=0
EXTRACT: note_on channel=9 note=35 velocity=110 time=0
EXTRACT: note_on channel=9 note=36 velocity=110 time=0
EXTRACT: note_on channel=9 note=42 velocity=110 time=0
EXTRACT: note_on channel=6 note=60 velocity=0 time=0.23809499999999997
EXTRACT: note_on channel=3 note=59 velocity=0 time=0.11160703124999999
EXTRACT: note_on channel=4 note=52 velocity=0 time=0
EXTRACT: note_on channel=9 note=35 velocity=0 time=0
EXTRACT: note_on channel=9 note=36 velocity=0 time=0
EXTRACT: note_on channel=9 note=42 velocity=0 time=0
EXTRACT: note_on channel=3 note=62 velocity=110 time=0.007440468749999999
EXTRACT: note_on channel=4 note=48 velocity=110 time=0
EXTRACT: note_on channel=5 note=52 velocity=110 time=0
EXTRACT: note_on channel=6 note=60 velocity=110 time=0
EXTRACT: note_on channel=9 note=55 velocity=110 time=0
EXTRACT: note_on channel=9 note=38 velocity=110 time=0
EXTRACT: note_on channel=9 note=42 velocity=110 time=0
EXTRACT: note_on channel=3 note=62 velocity=0 time=0.17113078124999997
EXTRACT: note_on channel=3 note=62 velocity=110 time=0.007440468749999999
EXTRACT: note_on channel=3 note=62 velocity=0 time=0.17113078124999997
EXTRACT: note_on channel=4 note=48 velocity=0 time=0
EXTRACT: note_on channel=9 note=38 velocity=0 time=0
EXTRACT: note_on channel=9 note=42 velocity=0 time=0
EXTRACT: note_on channel=3 note=62 velocity=110 time=0.007440468749999999
EXTRACT: note_on channel=4 note=47 velocity=110 time=0
EXTRACT: note_on channel=9 note=35 velocity=110 time=0
EXTRACT: note_on channel=9 note=35 velocity=0 time=0.17113078124999997
EXTRACT: note_on channel=9 note=35 velocity=110 time=0.007440468749999999
EXTRACT: note_on channel=5 note=52 velocity=0 time=0.05952374999999999
EXTRACT: note_on channel=6 note=60 velocity=0 time=0
EXTRACT: note_on channel=9 note=55 velocity=0 time=0
EXTRACT: note_on channel=3 note=62 velocity=0 time=0.11160703124999999
EXTRACT: note_on channel=4 note=47 velocity=0 time=0
EXTRACT: note_on channel=9 note=35 velocity=0 time=0
EXTRACT: note_on channel=3 note=62 velocity=110 time=0.007440468749999999
EXTRACT: note_on channel=4 note=47 velocity=110 time=0
EXTRACT: note_on channel=5 note=47 velocity=110 time=0
EXTRACT: note_on channel=6 note=60 velocity=110 time=0
EXTRACT: note_on channel=9 note=35 velocity=110 time=0
EXTRACT: note_on channel=9 note=36 velocity=110 time=0
EXTRACT: note_on channel=9 note=42 velocity=110 time=0
EXTRACT: note_on channel=4 note=47 velocity=0 time=0.34970203124999993
EXTRACT: note_on channel=9 note=35 velocity=0 time=0
EXTRACT: note_on channel=9 note=36 velocity=0 time=0
EXTRACT: note_on channel=9 note=42 velocity=0 time=0
EXTRACT: note_on channel=4 note=54 velocity=110 time=0.007440468749999999
EXTRACT: note_on channel=9 note=35 velocity=110 time=0
EXTRACT: note_on channel=9 note=36 velocity=110 time=0
EXTRACT: note_on channel=9 note=42 velocity=110 time=0
EXTRACT: note_on channel=3 note=62 velocity=0 time=0.17113078124999997
EXTRACT: note_on channel=3 note=62 velocity=110 time=0.007440468749999999
EXTRACT: note_on channel=6 note=60 velocity=0 time=0.05952374999999999
EXTRACT: note_on channel=4 note=54 velocity=0 time=0.11160703124999999
EXTRACT: note_on channel=9 note=35 velocity=0 time=0
EXTRACT: note_on channel=9 note=36 velocity=0 time=0
EXTRACT: note_on channel=9 note=42 velocity=0 time=0
EXTRACT: note_on channel=4 note=52 velocity=110 time=0.007440468749999999
EXTRACT: note_on channel=6 note=60 velocity=110 time=0
EXTRACT: note_on channel=9 note=55 velocity=110 time=0
EXTRACT: note_on channel=9 note=38 velocity=110 time=0
EXTRACT: note_on channel=9 note=42 velocity=110 time=0
EXTRACT: note_on channel=3 note=62 velocity=0 time=0.17113078124999997
EXTRACT: note_on channel=3 note=59 velocity=110 time=0.007440468749999999
EXTRACT: note_on channel=5 note=47 velocity=0 time=0.05952374999999999
EXTRACT: note_on channel=3 note=59 velocity=0 time=0.11160703124999999
EXTRACT: note_on channel=4 note=52 velocity=0 time=0
EXTRACT: note_on channel=9 note=38 velocity=0 time=0
EXTRACT: note_on channel=9 note=42 velocity=0 time=0
EXTRACT: note_on channel=3 note=59 velocity=110 time=0.007440468749999999
EXTRACT: note_on channel=4 note=48 velocity=110 time=0
EXTRACT: note_on channel=5 note=52 velocity=110 time=0
EXTRACT: note_on channel=9 note=35 velocity=110 time=0
EXTRACT: note_on channel=6 note=60 velocity=0 time=0.17113078124999997
EXTRACT: note_on channel=9 note=35 velocity=0 time=0
EXTRACT: note_on channel=6 note=60 velocity=110 time=0.007440468749999999
EXTRACT: note_on channel=9 note=35 velocity=110 time=0
EXTRACT: note_on channel=9 note=55 velocity=0 time=0.05952374999999999
EXTRACT: note_on channel=3 note=59 velocity=0 time=0.11160703124999999
EXTRACT: note_on channel=4 note=48 velocity=0 time=0
EXTRACT: note_on channel=6 note=60 velocity=0 time=0
EXTRACT: note_on channel=9 note=35 velocity=0 time=0
EXTRACT: note_on channel=4 note=47 velocity=110 time=0.007440468749999999
EXTRACT: note_on channel=6 note=60 velocity=110 time=0
EXTRACT: note_on channel=9 note=35 velocity=110 time=0
EXTRACT: note_on channel=9 note=36 velocity=110 time=0
EXTRACT: note_on channel=9 note=42 velocity=110 time=0
EXTRACT: note_on channel=5 note=52 velocity=0 time=0.23809499999999997
EXTRACT: note_on channel=4 note=47 velocity=0 time=0.11160703124999999
EXTRACT: note_on channel=9 note=35 velocity=0 time=0
EXTRACT: note_on channel=9 note=36 velocity=0 time=0
EXTRACT: note_on channel=9 note=42 velocity=0 time=0
EXTRACT: note_on channel=4 note=52 velocity=110 time=0.007440468749999999
EXTRACT: note_on channel=9 note=35 velocity=110 time=0
EXTRACT: note_on channel=9 note=36 velocity=110 time=0
EXTRACT: note_on channel=9 note=42 velocity=110 time=0
EXTRACT: note_on channel=6 note=60 velocity=0 time=0.23809499999999997
EXTRACT: note_on channel=4 note=52 velocity=0 time=0.11160703124999999
EXTRACT: note_on channel=9 note=35 velocity=0 time=0
EXTRACT: note_on channel=9 note=36 velocity=0 time=0
EXTRACT: note_on channel=9 note=42 velocity=0 time=0
EXTRACT: note_on channel=4 note=48 velocity=110 time=0.007440468749999999
EXTRACT: note_on channel=5 note=52 velocity=110 time=0
EXTRACT: note_on channel=6 note=60 velocity=110 time=0
EXTRACT: note_on channel=9 note=55 velocity=110 time=0
EXTRACT: note_on channel=9 note=38 velocity=110 time=0
EXTRACT: note_on channel=9 note=42 velocity=110 time=0
EXTRACT: note_on channel=4 note=48 velocity=0 time=0.34970203124999993
EXTRACT: note_on channel=9 note=38 velocity=0 time=0
EXTRACT: note_on channel=9 note=42 velocity=0 time=0
EXTRACT: note_on channel=4 note=47 velocity=110 time=0.007440468749999999
EXTRACT: note_on channel=9 note=35 velocity=110 time=0
EXTRACT: note_on channel=9 note=35 velocity=0 time=0.17113078124999997
EXTRACT: note_on channel=9 note=35 velocity=110 time=0.007440468749999999
EXTRACT: note_on channel=5 note=52 velocity=0 time=0.05952374999999999
EXTRACT: note_on channel=6 note=60 velocity=0 time=0
EXTRACT: note_on channel=9 note=55 velocity=0 time=0
EXTRACT: note_on channel=4 note=47 velocity=0 time=0.11160703124999999
EXTRACT: note_on channel=9 note=35 velocity=0 time=0
EXTRACT: program_change channel=1 program=111 time=0.007440468749999999
EXTRACT: note_on channel=1 note=95 velocity=110 time=0
EXTRACT: note_on channel=5 note=40 velocity=110 time=0
EXTRACT: note_on channel=6 note=60 velocity=110 time=0
EXTRACT: note_on channel=9 note=35 velocity=110 time=0
EXTRACT: note_on channel=9 note=36 velocity=110 time=0
EXTRACT: note_on channel=9 note=42 velocity=110 time=0
EXTRACT: note_on channel=5 note=40 velocity=0 time=0.17113078124999997
EXTRACT: note_on channel=5 note=40 velocity=110 time=0.007440468749999999
EXTRACT: note_on channel=5 note=40 velocity=0 time=0.17113078124999997
EXTRACT: note_on channel=9 note=35 velocity=0 time=0
EXTRACT: note_on channel=9 note=36 velocity=0 time=0
EXTRACT: note_on channel=9 note=42 velocity=0 time=0
EXTRACT: note_on channel=5 note=40 velocity=110 time=0.007440468749999999
EXTRACT: note_on channel=9 note=35 velocity=110 time=0
EXTRACT: note_on channel=9 note=36 velocity=110 time=0
EXTRACT: note_on channel=9 note=42 velocity=110 time=0
EXTRACT: note_on channel=5 note=40 velocity=0 time=0.17113078124999997
EXTRACT: note_on channel=6 note=60 velocity=0 time=0.06696421875
EXTRACT: note_on channel=9 note=35 velocity=0 time=0.11160703124999999
EXTRACT: note_on channel=9 note=36 velocity=0 time=0
EXTRACT: note_on channel=9 note=42 velocity=0 time=0
EXTRACT: note_on channel=6 note=60 velocity=110 time=0.007440468749999999
EXTRACT: note_on channel=9 note=55 velocity=110 time=0
EXTRACT: note_on channel=9 note=38 velocity=110 time=0
EXTRACT: note_on channel=9 note=42 velocity=110 time=0
EXTRACT: note_on channel=9 note=38 velocity=0 time=0.34970203124999993
EXTRACT: note_on channel=9 note=42 velocity=0 time=0
EXTRACT: note_on channel=9 note=35 velocity=110 time=0.007440468749999999
EXTRACT: note_on channel=6 note=60 velocity=0 time=0.17113078124999997
EXTRACT: note_on channel=9 note=35 velocity=0 time=0
EXTRACT: note_on channel=1 note=95 velocity=0 time=0.007440468749999999
EXTRACT: note_on channel=6 note=60 velocity=110 time=0
EXTRACT: note_on channel=9 note=35 velocity=110 time=0
EXTRACT: note_on channel=9 note=55 velocity=0 time=0.05952374999999999
EXTRACT: note_on channel=6 note=60 velocity=0 time=0.11160703124999999
EXTRACT: note_on channel=9 note=35 velocity=0 time=0
EXTRACT: note_on channel=6 note=60 velocity=110 time=0.007440468749999999
EXTRACT: note_on channel=9 note=35 velocity=110 time=0
EXTRACT: note_on channel=9 note=36 velocity=110 time=0
EXTRACT: note_on channel=9 note=42 velocity=110 time=0
EXTRACT: note_on channel=9 note=35 velocity=0 time=0.34970203124999993
EXTRACT: note_on channel=9 note=36 velocity=0 time=0
EXTRACT: note_on channel=9 note=42 velocity=0 time=0
EXTRACT: note_on channel=1 note=96 velocity=110 time=0.007440468749999999
EXTRACT: note_on channel=9 note=35 velocity=110 time=0
EXTRACT: note_on channel=9 note=36 velocity=110 time=0
EXTRACT: note_on channel=9 note=42 velocity=110 time=0
EXTRACT: note_on channel=6 note=60 velocity=0 time=0.23809499999999997
EXTRACT: note_on channel=1 note=96 velocity=0 time=0.11160703124999999
EXTRACT: note_on channel=9 note=35 velocity=0 time=0
EXTRACT: note_on channel=9 note=36 velocity=0 time=0
EXTRACT: note_on channel=9 note=42 velocity=0 time=0
EXTRACT: note_on channel=1 note=95 velocity=110 time=0.007440468749999999
EXTRACT: note_on channel=5 note=47 velocity=110 time=0
EXTRACT: note_on channel=6 note=60 velocity=110 time=0
EXTRACT: note_on channel=9 note=55 velocity=110 time=0
EXTRACT: note_on channel=9 note=38 velocity=110 time=0
EXTRACT: note_on channel=9 note=42 velocity=110 time=0
EXTRACT: note_on channel=5 note=47 velocity=0 time=0.17113078124999997
EXTRACT: note_on channel=5 note=47 velocity=110 time=0.007440468749999999
EXTRACT: note_on channel=1 note=95 velocity=0 time=0.17113078124999997
EXTRACT: note_on channel=5 note=47 velocity=0 time=0
EXTRACT: note_on channel=9 note=38 velocity=0 time=0
EXTRACT: note_on channel=9 note=42 velocity=0 time=0
EXTRACT: note_on channel=1 note=93 velocity=110 time=0.007440468749999999
EXTRACT: note_on channel=5 note=47 velocity=110 time=0
EXTRACT: note_on channel=9 note=35 velocity=110 time=0
EXTRACT: note_on channel=5 note=47 velocity=0 time=0.17113078124999997
EXTRACT: note_on channel=9 note=35 velocity=0 time=0
EXTRACT: note_on channel=9 note=35 velocity=110 time=0.007440468749999999
EXTRACT: note_on channel=6 note=60 velocity=0 time=0.05952374999999999
EXTRACT: note_on channel=9 note=55 velocity=0 time=0
EXTRACT: note_on channel=1 note=93 velocity=0 time=0.11160703124999999
EXTRACT: note_on channel=9 note=35 velocity=0 time=0
EXTRACT: note_on channel=1 note=95 velocity=110 time=0.007440468749999999
EXTRACT: note_on channel=5 note=42 velocity=110 time=0
EXTRACT: note_on channel=6 note=60 velocity=110 time=0
EXTRACT: note_on channel=9 note=35 velocity=110 time=0
EXTRACT: note_on channel=9 note=36 velocity=110 time=0
EXTRACT: note_on channel=9 note=42 velocity=110 time=0
EXTRACT: note_on channel=5 note=42 velocity=0 time=0.17113078124999997
EXTRACT: note_on channel=5 note=42 velocity=110 time=0.007440468749999999
EXTRACT: note_on channel=5 note=42 velocity=0 time=0.17113078124999997
EXTRACT: note_on channel=9 note=35 velocity=0 time=0
EXTRACT: note_on channel=9 note=36 velocity=0 time=0
EXTRACT: note_on channel=9 note=42 velocity=0 time=0
EXTRACT: note_on channel=5 note=42 velocity=110 time=0.007440468749999999
EXTRACT: note_on channel=9 note=35 velocity=110 time=0
EXTRACT: note_on channel=9 note=36 velocity=110 time=0
EXTRACT: note_on channel=9 note=42 velocity=110 time=0
EXTRACT: note_on channel=5 note=42 velocity=0 time=0.17113078124999997
EXTRACT: note_on channel=6 note=60 velocity=0 time=0.06696421875
EXTRACT: note_on channel=9 note=35 velocity=0 time=0.11160703124999999
EXTRACT: note_on channel=9 note=36 velocity=0 time=0
EXTRACT: note_on channel=9 note=42 velocity=0 time=0
EXTRACT: note_on channel=6 note=60 velocity=110 time=0.007440468749999999
EXTRACT: note_on channel=9 note=55 velocity=110 time=0
EXTRACT: note_on channel=9 note=38 velocity=110 time=0
EXTRACT: note_on channel=9 note=42 velocity=110 time=0
EXTRACT: note_on channel=9 note=38 velocity=0 time=0.34970203124999993
EXTRACT: note_on channel=9 note=42 velocity=0 time=0
EXTRACT: note_on channel=9 note=35 velocity=110 time=0.007440468749999999
EXTRACT: note_on channel=6 note=60 velocity=0 time=0.17113078124999997
EXTRACT: note_on channel=9 note=35 velocity=0 time=0
EXTRACT: note_on channel=1 note=95 velocity=0 time=0.007440468749999999
EXTRACT: note_on channel=6 note=60 velocity=110 time=0
EXTRACT: note_on channel=9 note=35 velocity=110 time=0
EXTRACT: note_on channel=9 note=55 velocity=0 time=0.05952374999999999
EXTRACT: note_on channel=6 note=60 velocity=0 time=0.11160703124999999
EXTRACT: note_on channel=9 note=35 velocity=0 time=0
EXTRACT: note_on channel=6 note=60 velocity=110 time=0.007440468749999999
EXTRACT: note_on channel=9 note=35 velocity=110 time=0
EXTRACT: note_on channel=9 note=36 velocity=110 time=0
EXTRACT: note_on channel=9 note=42 velocity=110 time=0
EXTRACT: note_on channel=1 note=93 velocity=110 time=0.17857125
EXTRACT: note_on channel=1 note=93 velocity=0 time=0.17113078124999997
EXTRACT: note_on channel=9 note=35 velocity=0 time=0
EXTRACT: note_on channel=9 note=36 velocity=0 time=0
EXTRACT: note_on channel=9 note=42 velocity=0 time=0
EXTRACT: note_on channel=1 note=91 velocity=110 time=0.007440468749999999
EXTRACT: note_on channel=9 note=35 velocity=110 time=0
EXTRACT: note_on channel=9 note=36 velocity=110 time=0
EXTRACT: note_on channel=9 note=42 velocity=110 time=0
EXTRACT: note_on channel=1 note=91 velocity=0 time=0.17113078124999997
EXTRACT: note_on channel=1 note=93 velocity=110 time=0.007440468749999999
EXTRACT: note_on channel=6 note=60 velocity=0 time=0.05952374999999999
EXTRACT: note_on channel=1 note=93 velocity=0 time=0.11160703124999999
EXTRACT: note_on channel=9 note=35 velocity=0 time=0
EXTRACT: note_on channel=9 note=36 velocity=0 time=0
EXTRACT: note_on channel=9 note=42 velocity=0 time=0
EXTRACT: note_on channel=1 note=95 velocity=110 time=0.007440468749999999
EXTRACT: note_on channel=6 note=60 velocity=110 time=0
EXTRACT: note_on channel=9 note=55 velocity=110 time=0
EXTRACT: note_on channel=9 note=38 velocity=110 time=0
EXTRACT: note_on channel=9 note=42 velocity=110 time=0
EXTRACT: note_on channel=1 note=95 velocity=0 time=0.17113078124999997
EXTRACT: note_on channel=1 note=93 velocity=110 time=0.007440468749999999
EXTRACT: note_on channel=9 note=38 velocity=0 time=0.17113078124999997
EXTRACT: note_on channel=9 note=42 velocity=0 time=0
EXTRACT: note_on channel=9 note=35 velocity=110 time=0.007440468749999999
EXTRACT: note_on channel=9 note=35 velocity=0 time=0.17113078124999997
EXTRACT: note_on channel=9 note=35 velocity=110 time=0.007440468749999999
EXTRACT: note_on channel=6 note=60 velocity=0 time=0.05952374999999999
EXTRACT: note_on channel=9 note=55 velocity=0 time=0
EXTRACT: note_on channel=1 note=93 velocity=0 time=0.11160703124999999
EXTRACT: note_on channel=9 note=35 velocity=0 time=0
EXTRACT: note_on channel=1 note=88 velocity=110 time=0.007440468749999999
EXTRACT: note_on channel=5 note=40 velocity=110 time=0
EXTRACT: note_on channel=6 note=60 velocity=110 time=0
EXTRACT: note_on channel=9 note=35 velocity=110 time=0
EXTRACT: note_on channel=9 note=36 velocity=110 time=0
EXTRACT: note_on channel=9 note=42 velocity=110 time=0
EXTRACT: note_on channel=1 note=88 velocity=0 time=0.17113078124999997
EXTRACT: note_on channel=5 note=40 velocity=0 time=0
EXTRACT: note_on channel=1 note=90 velocity=110 time=0.007440468749999999
EXTRACT: note_on channel=5 note=40 velocity=110 time=0
EXTRACT: note_on channel=1 note=90 velocity=0 time=0.17113078124999997
EXTRACT: note_on channel=5 note=40 velocity=0 time=0
EXTRACT: note_on channel=9 note=35 velocity=0 time=0
EXTRACT: note_on channel=9 note=36 velocity=0 time=0
EXTRACT: note_on channel=9 note=42 velocity=0 time=0
EXTRACT: note_on channel=1 note=91 velocity=110 time=0.007440468749999999
EXTRACT: note_on channel=5 note=40 velocity=110 time=0
EXTRACT: note_on channel=9 note=35 velocity=110 time=0
EXTRACT: note_on channel=9 note=36 velocity=110 time=0
EXTRACT: note_on channel=9 note=42 velocity=110 time=0
EXTRACT: note_on channel=1 note=91 velocity=0 time=0.17113078124999997
EXTRACT: note_on channel=5 note=40 velocity=0 time=0
EXTRACT: note_on channel=1 note=88 velocity=110 time=0.007440468749999999
EXTRACT: note_on channel=6 note=60 velocity=0 time=0.05952374999999999
EXTRACT: note_on channel=1 note=88 velocity=0 time=0.11160703124999999
EXTRACT: note_on channel=9 note=35 velocity=0 time=0
EXTRACT: note_on channel=9 note=36 velocity=0 time=0
EXTRACT: note_on channel=9 note=42 velocity=0 time=0
EXTRACT: note_on channel=1 note=90 velocity=110 time=0.007440468749999999
EXTRACT: note_on channel=6 note=60 velocity=110 time=0
EXTRACT: note_on channel=9 note=55 velocity=110 time=0
EXTRACT: note_on channel=9 note=38 velocity=110 time=0
EXTRACT: note_on channel=9 note=42 velocity=110 time=0
EXTRACT: note_on channel=9 note=38 velocity=0 time=0.34970203124999993
EXTRACT: note_on channel=9 note=42 velocity=0 time=0
EXTRACT: note_on channel=9 note=35 velocity=110 time=0.007440468749999999
EXTRACT: note_on channel=6 note=60 velocity=0 time=0.17113078124999997
EXTRACT: note_on channel=9 note=35 velocity=0 time=0
EXTRACT: note_on channel=6 note=60 velocity=110 time=0.007440468749999999
EXTRACT: note_on channel=9 note=35 velocity=110 time=0
EXTRACT: note_on channel=9 note=55 velocity=0 time=0.05952374999999999
EXTRACT: note_on channel=6 note=60 velocity=0 time=0.11160703124999999
EXTRACT: note_on channel=9 note=35 velocity=0 time=0
EXTRACT: note_on channel=6 note=60 velocity=110 time=0.007440468749999999
EXTRACT: note_on channel=9 note=35 velocity=110 time=0
EXTRACT: note_on channel=9 note=36 velocity=110 time=0
EXTRACT: note_on channel=9 note=42 velocity=110 time=0
EXTRACT: note_on channel=1 note=90 velocity=0 time=0.23809499999999997
EXTRACT: note_on channel=9 note=35 velocity=0 time=0.11160703124999999
EXTRACT: note_on channel=9 note=36 velocity=0 time=0
EXTRACT: note_on channel=9 note=42 velocity=0 time=0
EXTRACT: note_on channel=1 note=88 velocity=110 time=0.007440468749999999
EXTRACT: note_on channel=9 note=35 velocity=110 time=0
EXTRACT: note_on channel=9 note=36 velocity=110 time=0
EXTRACT: note_on channel=9 note=42 velocity=110 time=0
EXTRACT: note_on channel=1 note=88 velocity=0 time=0.17113078124999997
EXTRACT: note_on channel=1 note=88 velocity=110 time=0.007440468749999999
EXTRACT: note_on channel=6 note=60 velocity=0 time=0.05952374999999999
EXTRACT: note_on channel=1 note=88 velocity=0 time=0.11160703124999999
EXTRACT: note_on channel=9 note=35 velocity=0 time=0
EXTRACT: note_on channel=9 note=36 velocity=0 time=0
EXTRACT: note_on channel=9 note=42 velocity=0 time=0
EXTRACT: note_on channel=1 note=90 velocity=110 time=0.007440468749999999
EXTRACT: note_on channel=5 note=47 velocity=110 time=0
EXTRACT: note_on channel=6 note=60 velocity=110 time=0
EXTRACT: note_on channel=9 note=55 velocity=110 time=0
EXTRACT: note_on channel=9 note=38 velocity=110 time=0
EXTRACT: note_on channel=9 note=42 velocity=110 time=0
EXTRACT: note_on channel=1 note=90 velocity=0 time=0.17113078124999997
EXTRACT: note_on channel=5 note=47 velocity=0 time=0
EXTRACT: note_on channel=1 note=91 velocity=110 time=0.007440468749999999
EXTRACT: note_on channel=5 note=47 velocity=110 time=0
EXTRACT: note_on channel=5 note=47 velocity=0 time=0.17113078124999997
EXTRACT: note_on channel=9 note=38 velocity=0 time=0
EXTRACT: note_on channel=9 note=42 velocity=0 time=0
EXTRACT: note_on channel=5 note=47 velocity=110 time=0.007440468749999999
EXTRACT: note_on channel=9 note=35 velocity=110 time=0
EXTRACT: note_on channel=5 note=47 velocity=0 time=0.17113078124999997
EXTRACT: note_on channel=9 note=35 velocity=0 time=0
EXTRACT: note_on channel=9 note=35 velocity=110 time=0.007440468749999999
EXTRACT: note_on channel=6 note=60 velocity=0 time=0.05952374999999999
EXTRACT: note_on channel=9 note=55 velocity=0 time=0
EXTRACT: note_on channel=1 note=91 velocity=0 time=0.11160703124999999
EXTRACT: note_on channel=9 note=35 velocity=0 time=0
EXTRACT: note_on channel=1 note=83 velocity=110 time=0.007440468749999999
EXTRACT: note_on channel=5 note=40 velocity=110 time=0
EXTRACT: note_on channel=6 note=60 velocity=110 time=0
EXTRACT: note_on channel=9 note=35 velocity=110 time=0
EXTRACT: note_on channel=9 note=36 velocity=110 time=0
EXTRACT: note_on channel=9 note=42 velocity=110 time=0
EXTRACT: note_on channel=5 note=40 velocity=0 time=0.17113078124999997
EXTRACT: note_on channel=5 note=40 velocity=110 time=0.007440468749999999
EXTRACT: note_on channel=5 note=40 velocity=0 time=0.17113078124999997
EXTRACT: note_on channel=9 note=35 velocity=0 time=0
EXTRACT: note_on channel=9 note=36 velocity=0 time=0
EXTRACT: note_on channel=9 note=42 velocity=0 time=0
EXTRACT: note_on channel=5 note=40 velocity=110 time=0.007440468749999999
EXTRACT: note_on channel=9 note=35 velocity=110 time=0
EXTRACT: note_on channel=9 note=36 velocity=110 time=0
EXTRACT: note_on channel=9 note=42 velocity=110 time=0
EXTRACT: note_on channel=5 note=40 velocity=0 time=0.17113078124999997
EXTRACT: note_on channel=6 note=60 velocity=0 time=0.06696421875
EXTRACT: note_on channel=9 note=35 velocity=0 time=0.11160703124999999
EXTRACT: note_on channel=9 note=36 velocity=0 time=0
EXTRACT: note_on channel=9 note=42 velocity=0 time=0
EXTRACT: note_on channel=6 note=60 velocity=110 time=0.007440468749999999
EXTRACT: note_on channel=9 note=55 velocity=110 time=0
EXTRACT: note_on channel=9 note=38 velocity=110 time=0
EXTRACT: note_on channel=9 note=42 velocity=110 time=0
EXTRACT: note_on channel=9 note=38 velocity=0 time=0.34970203124999993
EXTRACT: note_on channel=9 note=42 velocity=0 time=0
EXTRACT: note_on channel=9 note=35 velocity=110 time=0.007440468749999999
EXTRACT: note_on channel=6 note=60 velocity=0 time=0.17113078124999997
EXTRACT: note_on channel=9 note=35 velocity=0 time=0
EXTRACT: note_on channel=1 note=83 velocity=0 time=0.007440468749999999
EXTRACT: note_on channel=6 note=60 velocity=110 time=0
EXTRACT: note_on channel=9 note=35 velocity=110 time=0
EXTRACT: note_on channel=9 note=55 velocity=0 time=0.05952374999999999
EXTRACT: note_on channel=6 note=60 velocity=0 time=0.11160703124999999
EXTRACT: note_on channel=9 note=35 velocity=0 time=0
EXTRACT: note_on channel=6 note=60 velocity=110 time=0.007440468749999999
EXTRACT: note_on channel=9 note=35 velocity=110 time=0
EXTRACT: note_on channel=9 note=36 velocity=110 time=0
EXTRACT: note_on channel=9 note=42 velocity=110 time=0
EXTRACT: note_on channel=9 note=35 velocity=0 time=0.34970203124999993
EXTRACT: note_on channel=9 note=36 velocity=0 time=0
EXTRACT: note_on channel=9 note=42 velocity=0 time=0
EXTRACT: note_on channel=9 note=35 velocity=110 time=0.007440468749999999
EXTRACT: note_on channel=9 note=36 velocity=110 time=0
EXTRACT: note_on channel=9 note=42 velocity=110 time=0
EXTRACT: note_on channel=6 note=60 velocity=0 time=0.23809499999999997
EXTRACT: note_on channel=9 note=35 velocity=0 time=0.11160703124999999
EXTRACT: note_on channel=9 note=36 velocity=0 time=0
EXTRACT: note_on channel=9 note=42 velocity=0 time=0
EXTRACT: note_on channel=5 note=47 velocity=110 time=0.007440468749999999
EXTRACT: note_on channel=6 note=60 velocity=110 time=0
EXTRACT: note_on channel=9 note=55 velocity=110 time=0
EXTRACT: note_on channel=9 note=38 velocity=110 time=0
EXTRACT: note_on channel=9 note=42 velocity=110 time=0
EXTRACT: note_on channel=5 note=47 velocity=0 time=0.17113078124999997
EXTRACT: note_on channel=5 note=47 velocity=110 time=0.007440468749999999
EXTRACT: note_on channel=5 note=47 velocity=0 time=0.17113078124999997
EXTRACT: note_on channel=9 note=38 velocity=0 time=0
EXTRACT: note_on channel=9 note=42 velocity=0 time=0
EXTRACT: note_on channel=1 note=76 velocity=110 time=0.007440468749999999
EXTRACT: note_on channel=5 note=47 velocity=110 time=0
EXTRACT: note_on channel=9 note=35 velocity=110 time=0
EXTRACT: note_on channel=5 note=47 velocity=0 time=0.17113078124999997
EXTRACT: note_on channel=9 note=35 velocity=0 time=0
EXTRACT: note_on channel=9 note=35 velocity=110 time=0.007440468749999999
EXTRACT: note_on channel=6 note=60 velocity=0 time=0.05952374999999999
EXTRACT: note_on channel=9 note=55 velocity=0 time=0
EXTRACT: note_on channel=1 note=76 velocity=0 time=0.11160703124999999
EXTRACT: note_on channel=9 note=35 velocity=0 time=0
EXTRACT: note_on channel=1 note=95 velocity=110 time=0.007440468749999999
EXTRACT: note_on channel=5 note=40 velocity=110 time=0
EXTRACT: note_on channel=6 note=60 velocity=110 time=0
EXTRACT: note_on channel=9 note=35 velocity=110 time=0
EXTRACT: note_on channel=9 note=36 velocity=110 time=0
EXTRACT: note_on channel=9 note=42 velocity=110 time=0
EXTRACT: note_on channel=5 note=40 velocity=0 time=0.17113078124999997
EXTRACT: note_on channel=5 note=40 velocity=110 time=0.007440468749999999
EXTRACT: note_on channel=5 note=40 velocity=0 time=0.17113078124999997
EXTRACT: note_on channel=9 note=35 velocity=0 time=0
EXTRACT: note_on channel=9 note=36 velocity=0 time=0
EXTRACT: note_on channel=9 note=42 velocity=0 time=0
EXTRACT: note_on channel=5 note=40 velocity=110 time=0.007440468749999999
EXTRACT: note_on channel=9 note=35 velocity=110 time=0
EXTRACT: note_on channel=9 note=36 velocity=110 time=0
EXTRACT: note_on channel=9 note=42 velocity=110 time=0
EXTRACT: note_on channel=5 note=40 velocity=0 time=0.17113078124999997
EXTRACT: note_on channel=6 note=60 velocity=0 time=0.06696421875
EXTRACT: note_on channel=9 note=35 velocity=0 time=0.11160703124999999
EXTRACT: note_on channel=9 note=36 velocity=0 time=0
EXTRACT: note_on channel=9 note=42 velocity=0 time=0
EXTRACT: note_on channel=6 note=60 velocity=110 time=0.007440468749999999
EXTRACT: note_on channel=9 note=55 velocity=110 time=0
EXTRACT: note_on channel=9 note=38 velocity=110 time=0
EXTRACT: note_on channel=9 note=42 velocity=110 time=0
EXTRACT: note_on channel=9 note=38 velocity=0 time=0.34970203124999993
EXTRACT: note_on channel=9 note=42 velocity=0 time=0
EXTRACT: note_on channel=9 note=35 velocity=110 time=0.007440468749999999
EXTRACT: note_on channel=6 note=60 velocity=0 time=0.17113078124999997
EXTRACT: note_on channel=9 note=35 velocity=0 time=0
EXTRACT: note_on channel=1 note=95 velocity=0 time=0.007440468749999999
EXTRACT: note_on channel=6 note=60 velocity=110 time=0
EXTRACT: note_on channel=9 note=35 velocity=110 time=0
EXTRACT: note_on channel=9 note=55 velocity=0 time=0.05952374999999999
EXTRACT: note_on channel=6 note=60 velocity=0 time=0.11160703124999999
EXTRACT: note_on channel=9 note=35 velocity=0 time=0
EXTRACT: note_on channel=6 note=60 velocity=110 time=0.007440468749999999
EXTRACT: note_on channel=9 note=35 velocity=110 time=0
EXTRACT: note_on channel=9 note=36 velocity=110 time=0
EXTRACT: note_on channel=9 note=42 velocity=110 time=0
EXTRACT: note_on channel=9 note=35 velocity=0 time=0.34970203124999993
EXTRACT: note_on channel=9 note=36 velocity=0 time=0
EXTRACT: note_on channel=9 note=42 velocity=0 time=0
EXTRACT: note_on channel=1 note=96 velocity=110 time=0.007440468749999999
EXTRACT: note_on channel=9 note=35 velocity=110 time=0
EXTRACT: note_on channel=9 note=36 velocity=110 time=0
EXTRACT: note_on channel=9 note=42 velocity=110 time=0
EXTRACT: note_on channel=6 note=60 velocity=0 time=0.23809499999999997
EXTRACT: note_on channel=1 note=96 velocity=0 time=0.11160703124999999
EXTRACT: note_on channel=9 note=35 velocity=0 time=0
EXTRACT: note_on channel=9 note=36 velocity=0 time=0
EXTRACT: note_on channel=9 note=42 velocity=0 time=0
EXTRACT: note_on channel=1 note=95 velocity=110 time=0.007440468749999999
EXTRACT: note_on channel=5 note=47 velocity=110 time=0
EXTRACT: note_on channel=6 note=60 velocity=110 time=0
EXTRACT: note_on channel=9 note=55 velocity=110 time=0
EXTRACT: note_on channel=9 note=38 velocity=110 time=0
EXTRACT: note_on channel=9 note=42 velocity=110 time=0
EXTRACT: note_on channel=5 note=47 velocity=0 time=0.17113078124999997
EXTRACT: note_on channel=5 note=47 velocity=110 time=0.007440468749999999
EXTRACT: note_on channel=1 note=95 velocity=0 time=0.17113078124999997
EXTRACT: note_on channel=5 note=47 velocity=0 time=0
EXTRACT: note_on channel=9 note=38 velocity=0 time=0
EXTRACT: note_on channel=9 note=42 velocity=0 time=0
EXTRACT: note_on channel=1 note=93 velocity=110 time=0.007440468749999999
EXTRACT: note_on channel=5 note=47 velocity=110 time=0
EXTRACT: note_on channel=9 note=35 velocity=110 time=0
EXTRACT: note_on channel=5 note=47 velocity=0 time=0.17113078124999997
EXTRACT: note_on channel=9 note=35 velocity=0 time=0
EXTRACT: note_on channel=9 note=35 velocity=110 time=0.007440468749999999
EXTRACT: note_on channel=6 note=60 velocity=0 time=0.05952374999999999
EXTRACT: note_on channel=9 note=55 velocity=0 time=0
EXTRACT: note_on channel=1 note=93 velocity=0 time=0.11160703124999999
EXTRACT: note_on channel=9 note=35 velocity=0 time=0
EXTRACT: note_on channel=1 note=95 velocity=110 time=0.007440468749999999
EXTRACT: note_on channel=5 note=42 velocity=110 time=0
EXTRACT: note_on channel=6 note=60 velocity=110 time=0
EXTRACT: note_on channel=9 note=35 velocity=110 time=0
EXTRACT: note_on channel=9 note=36 velocity=110 time=0
EXTRACT: note_on channel=9 note=42 velocity=110 time=0
EXTRACT: note_on channel=5 note=42 velocity=0 time=0.17113078124999997
EXTRACT: note_on channel=5 note=42 velocity=110 time=0.007440468749999999
EXTRACT: note_on channel=5 note=42 velocity=0 time=0.17113078124999997
EXTRACT: note_on channel=9 note=35 velocity=0 time=0
EXTRACT: note_on channel=9 note=36 velocity=0 time=0
EXTRACT: note_on channel=9 note=42 velocity=0 time=0
EXTRACT: note_on channel=5 note=42 velocity=110 time=0.007440468749999999
EXTRACT: note_on channel=9 note=35 velocity=110 time=0
EXTRACT: note_on channel=9 note=36 velocity=110 time=0
EXTRACT: note_on channel=9 note=42 velocity=110 time=0
EXTRACT: note_on channel=5 note=42 velocity=0 time=0.17113078124999997
EXTRACT: note_on channel=6 note=60 velocity=0 time=0.06696421875
EXTRACT: note_on channel=9 note=35 velocity=0 time=0.11160703124999999
EXTRACT: note_on channel=9 note=36 velocity=0 time=0
EXTRACT: note_on channel=9 note=42 velocity=0 time=0
EXTRACT: note_on channel=6 note=60 velocity=110 time=0.007440468749999999
EXTRACT: note_on channel=9 note=55 velocity=110 time=0
EXTRACT: note_on channel=9 note=38 velocity=110 time=0
EXTRACT: note_on channel=9 note=42 velocity=110 time=0
EXTRACT: note_on channel=1 note=95 velocity=0 time=0.23809499999999997
EXTRACT: note_on channel=9 note=38 velocity=0 time=0.11160703124999999
EXTRACT: note_on channel=9 note=42 velocity=0 time=0
EXTRACT: note_on channel=9 note=35 velocity=110 time=0.007440468749999999
EXTRACT: note_on channel=6 note=60 velocity=0 time=0.17113078124999997
EXTRACT: note_on channel=9 note=35 velocity=0 time=0
EXTRACT: note_on channel=1 note=93 velocity=110 time=0.007440468749999999
EXTRACT: note_on channel=6 note=60 velocity=110 time=0
EXTRACT: note_on channel=9 note=35 velocity=110 time=0
EXTRACT: note_on channel=9 note=55 velocity=0 time=0.05952374999999999
EXTRACT: note_on channel=1 note=93 velocity=0 time=0.11160703124999999
EXTRACT: note_on channel=6 note=60 velocity=0 time=0
EXTRACT: note_on channel=9 note=35 velocity=0 time=0
EXTRACT: note_on channel=1 note=91 velocity=110 time=0.007440468749999999
EXTRACT: note_on channel=6 note=60 velocity=110 time=0
EXTRACT: note_on channel=9 note=35 velocity=110 time=0
EXTRACT: note_on channel=9 note=36 velocity=110 time=0
EXTRACT: note_on channel=9 note=42 velocity=110 time=0
EXTRACT: note_on channel=1 note=91 velocity=0 time=0.17113078124999997
EXTRACT: note_on channel=1 note=93 velocity=110 time=0.007440468749999999
EXTRACT: note_on channel=1 note=93 velocity=0 time=0.17113078124999997
EXTRACT: note_on channel=9 note=35 velocity=0 time=0
EXTRACT: note_on channel=9 note=36 velocity=0 time=0
EXTRACT: note_on channel=9 note=42 velocity=0 time=0
EXTRACT: note_on channel=1 note=95 velocity=110 time=0.007440468749999999
EXTRACT: note_on channel=9 note=35 velocity=110 time=0
EXTRACT: note_on channel=9 note=36 velocity=110 time=0
EXTRACT: note_on channel=9 note=42 velocity=110 time=0
EXTRACT: note_on channel=1 note=95 velocity=0 time=0.17113078124999997
EXTRACT: note_on channel=1 note=93 velocity=110 time=0.007440468749999999
EXTRACT: note_on channel=6 note=60 velocity=0 time=0.05952374999999999
EXTRACT: note_on channel=1 note=93 velocity=0 time=0.11160703124999999
EXTRACT: note_on channel=9 note=35 velocity=0 time=0
EXTRACT: note_on channel=9 note=36 velocity=0 time=0
EXTRACT: note_on channel=9 note=42 velocity=0 time=0
EXTRACT: note_on channel=1 note=83 velocity=110 time=0.007440468749999999
EXTRACT: note_on channel=6 note=60 velocity=110 time=0
EXTRACT: note_on channel=9 note=55 velocity=110 time=0
EXTRACT: note_on channel=9 note=38 velocity=110 time=0
EXTRACT: note_on channel=9 note=42 velocity=110 time=0
EXTRACT: note_on channel=9 note=38 velocity=0 time=0.34970203124999993
EXTRACT: note_on channel=9 note=42 velocity=0 time=0
EXTRACT: note_on channel=9 note=35 velocity=110 time=0.007440468749999999
EXTRACT: note_on channel=1 note=83 velocity=0 time=0.17113078124999997
EXTRACT: note_on channel=9 note=35 velocity=0 time=0
EXTRACT: note_on channel=1 note=76 velocity=110 time=0.007440468749999999
EXTRACT: note_on channel=9 note=35 velocity=110 time=0
EXTRACT: note_on channel=6 note=60 velocity=0 time=0.05952374999999999
EXTRACT: note_on channel=9 note=55 velocity=0 time=0
EXTRACT: note_on channel=1 note=76 velocity=0 time=0.11160703124999999
EXTRACT: note_on channel=9 note=35 velocity=0 time=0
EXTRACT: program_change channel=1 program=114 time=0.007440468749999999
EXTRACT: note_on channel=1 note=69 velocity=110 time=0
EXTRACT: note_on channel=1 note=72 velocity=110 time=0
EXTRACT: note_on channel=5 note=42 velocity=110 time=0
EXTRACT: note_on channel=6 note=60 velocity=110 time=0
EXTRACT: note_on channel=5 note=42 velocity=0 time=0.17113078124999997
EXTRACT: note_on channel=5 note=42 velocity=110 time=0.007440468749999999
EXTRACT: note_on channel=5 note=42 velocity=0 time=0.17113078124999997
EXTRACT: note_on channel=5 note=42 velocity=110 time=0.007440468749999999
EXTRACT: note_on channel=5 note=42 velocity=0 time=0.17113078124999997
EXTRACT: note_on channel=1 note=69 velocity=0 time=0.06696421875
EXTRACT: note_on channel=1 note=72 velocity=0 time=0
EXTRACT: note_on channel=6 note=60 velocity=0 time=0
EXTRACT: note_on channel=1 note=67 velocity=110 time=0.11904749999999999
EXTRACT: note_on channel=1 note=71 velocity=110 time=0
EXTRACT: note_on channel=6 note=60 velocity=110 time=0
EXTRACT: note_on channel=9 note=55 velocity=110 time=0
EXTRACT: note_on channel=6 note=60 velocity=0 time=0.52827328125
EXTRACT: note_on channel=6 note=60 velocity=110 time=0.007440468749999999
EXTRACT: note_on channel=1 note=67 velocity=0 time=0.05952374999999999
EXTRACT: note_on channel=1 note=71 velocity=0 time=0
EXTRACT: note_on channel=9 note=55 velocity=0 time=0
EXTRACT: note_on channel=6 note=60 velocity=0 time=0.11160703124999999
EXTRACT: note_on channel=1 note=66 velocity=110 time=0.007440468749999999
EXTRACT: note_on channel=1 note=69 velocity=110 time=0
EXTRACT: note_on channel=6 note=60 velocity=110 time=0
EXTRACT: note_on channel=1 note=66 velocity=0 time=0.5952375
EXTRACT: note_on channel=1 note=69 velocity=0 time=0
EXTRACT: note_on channel=6 note=60 velocity=0 time=0
EXTRACT: note_on channel=1 note=64 velocity=110 time=0.11904749999999999
EXTRACT: note_on channel=1 note=67 velocity=110 time=0
EXTRACT: note_on channel=5 note=47 velocity=110 time=0
EXTRACT: note_on channel=6 note=60 velocity=110 time=0
EXTRACT: note_on channel=9 note=55 velocity=110 time=0
EXTRACT: note_on channel=5 note=47 velocity=0 time=0.17113078124999997
EXTRACT: note_on channel=5 note=47 velocity=110 time=0.007440468749999999
EXTRACT: note_on channel=5 note=47 velocity=0 time=0.17113078124999997
EXTRACT: note_on channel=5 note=47 velocity=110 time=0.007440468749999999
EXTRACT: note_on channel=5 note=47 velocity=0 time=0.17113078124999997
EXTRACT: note_on channel=1 note=64 velocity=0 time=0.06696421875
EXTRACT: note_on channel=1 note=67 velocity=0 time=0
EXTRACT: note_on channel=6 note=60 velocity=0 time=0
EXTRACT: note_on channel=9 note=55 velocity=0 time=0
EXTRACT: note_on channel=1 note=63 velocity=110 time=0.11904749999999999
EXTRACT: note_on channel=1 note=66 velocity=110 time=0
EXTRACT: note_on channel=5 note=35 velocity=110 time=0
EXTRACT: note_on channel=6 note=60 velocity=110 time=0
EXTRACT: note_on channel=9 note=55 velocity=110 time=0
EXTRACT: note_on channel=1 note=63 velocity=0 time=0.17857125
EXTRACT: note_on channel=1 note=66 velocity=0 time=0
EXTRACT: note_on channel=5 note=35 velocity=0 time=0
EXTRACT: note_on channel=6 note=60 velocity=0 time=0.41666624999999996
EXTRACT: note_on channel=9 note=55 velocity=0 time=0
EXTRACT: note_on channel=6 note=60 velocity=110 time=0.65476125
EXTRACT: note_on channel=6 note=60 velocity=0 time=0.17113078124999997
EXTRACT: note_on channel=6 note=60 velocity=110 time=0.007440468749999999
EXTRACT: note_on channel=6 note=60 velocity=0 time=0.34970203124999993
EXTRACT: note_on channel=6 note=60 velocity=110 time=0.007440468749999999
EXTRACT: note_on channel=9 note=35 velocity=110 time=0
EXTRACT: note_on channel=9 note=36 velocity=110 time=0
EXTRACT: note_on channel=6 note=60 velocity=0 time=0.34970203124999993
EXTRACT: note_on channel=9 note=35 velocity=0 time=0
EXTRACT: note_on channel=9 note=36 velocity=0 time=0
EXTRACT: note_on channel=6 note=60 velocity=110 time=0.007440468749999999
EXTRACT: note_on channel=9 note=38 velocity=110 time=0
EXTRACT: note_on channel=6 note=60 velocity=0 time=0.17113078124999997
EXTRACT: note_on channel=6 note=60 velocity=110 time=0.007440468749999999
EXTRACT: note_on channel=6 note=60 velocity=0 time=0.17113078124999997
EXTRACT: note_on channel=6 note=60 velocity=110 time=0.007440468749999999
EXTRACT: note_on channel=6 note=60 velocity=0 time=0.17113078124999997
EXTRACT: note_on channel=6 note=60 velocity=110 time=0.007440468749999999
EXTRACT: note_on channel=9 note=38 velocity=0 time=0.05952374999999999
EXTRACT: note_on channel=6 note=60 velocity=0 time=0.11160703124999999
EXTRACT: note_on channel=2 note=64 velocity=60 time=0.007440468749999999
EXTRACT: note_on channel=2 note=67 velocity=60 time=0
EXTRACT: note_on channel=3 note=67 velocity=110 time=0
EXTRACT: program_change channel=4 program=30 time=0
EXTRACT: note_on channel=4 note=40 velocity=110 time=0
EXTRACT: note_on channel=5 note=40 velocity=110 time=0
EXTRACT: note_on channel=6 note=60 velocity=110 time=0
EXTRACT: note_on channel=9 note=35 velocity=110 time=0
EXTRACT: note_on channel=9 note=36 velocity=110 time=0
EXTRACT: note_on channel=9 note=42 velocity=110 time=0
EXTRACT: note_on channel=2 note=64 velocity=0 time=0.17113078124999997
EXTRACT: note_on channel=2 note=67 velocity=0 time=0
EXTRACT: note_on channel=3 note=67 velocity=0 time=0
EXTRACT: note_on channel=4 note=40 velocity=0 time=0
EXTRACT: note_on channel=5 note=40 velocity=0 time=0
EXTRACT: note_on channel=6 note=60 velocity=0 time=0
EXTRACT: note_on channel=9 note=35 velocity=0 time=0
EXTRACT: note_on channel=9 note=36 velocity=0 time=0
EXTRACT: note_on channel=9 note=42 velocity=0 time=0
EXTRACT: note_on channel=2 note=64 velocity=60 time=0.007440468749999999
EXTRACT: note_on channel=2 note=67 velocity=60 time=0
EXTRACT: note_on channel=3 note=67 velocity=110 time=0
EXTRACT: note_on channel=4 note=40 velocity=110 time=0
EXTRACT: note_on channel=5 note=40 velocity=110 time=0
EXTRACT: note_on channel=6 note=60 velocity=110 time=0
EXTRACT: note_on channel=9 note=42 velocity=110 time=0
EXTRACT: note_on channel=2 note=64 velocity=0 time=0.17113078124999997
EXTRACT: note_on channel=2 note=67 velocity=0 time=0
EXTRACT: note_on channel=3 note=67 velocity=0 time=0
EXTRACT: note_on channel=4 note=40 velocity=0 time=0
EXTRACT: note_on channel=5 note=40 velocity=0 time=0
EXTRACT: note_on channel=6 note=60 velocity=0 time=0
EXTRACT: note_on channel=9 note=42 velocity=0 time=0
EXTRACT: note_on channel=2 note=64 velocity=60 time=0.007440468749999999
EXTRACT: note_on channel=2 note=67 velocity=60 time=0
EXTRACT: note_on channel=3 note=67 velocity=110 time=0
EXTRACT: note_on channel=4 note=40 velocity=110 time=0
EXTRACT: note_on channel=5 note=40 velocity=110 time=0
EXTRACT: note_on channel=6 note=60 velocity=110 time=0
EXTRACT: note_on channel=9 note=38 velocity=110 time=0
EXTRACT: note_on channel=9 note=42 velocity=110 time=0
EXTRACT: note_on channel=2 note=64 velocity=0 time=0.17113078124999997
EXTRACT: note_on channel=2 note=67 velocity=0 time=0
EXTRACT: note_on channel=3 note=67 velocity=0 time=0
EXTRACT: note_on channel=4 note=40 velocity=0 time=0
EXTRACT: note_on channel=5 note=40 velocity=0 time=0
EXTRACT: note_on channel=6 note=60 velocity=0 time=0
EXTRACT: note_on channel=9 note=38 velocity=0 time=0
EXTRACT: note_on channel=9 note=42 velocity=0 time=0
EXTRACT: note_on channel=2 note=64 velocity=60 time=0.007440468749999999
EXTRACT: note_on channel=2 note=67 velocity=60 time=0
EXTRACT: note_on channel=3 note=67 velocity=110 time=0
EXTRACT: note_on channel=4 note=40 velocity=110 time=0
EXTRACT: note_on channel=6 note=60 velocity=110 time=0
EXTRACT: note_on channel=9 note=42 velocity=110 time=0
EXTRACT: note_on channel=2 note=64 velocity=0 time=0.17113078124999997
EXTRACT: note_on channel=2 note=67 velocity=0 time=0
EXTRACT: note_on channel=3 note=67 velocity=0 time=0
EXTRACT: note_on channel=4 note=40 velocity=0 time=0
EXTRACT: note_on channel=6 note=60 velocity=0 time=0
EXTRACT: note_on channel=9 note=42 velocity=0 time=0
EXTRACT: note_on channel=2 note=63 velocity=60 time=0.007440468749999999
EXTRACT: note_on channel=2 note=66 velocity=60 time=0
EXTRACT: note_on channel=3 note=66 velocity=110 time=0
EXTRACT: note_on channel=4 note=47 velocity=110 time=0
EXTRACT: note_on channel=5 note=40 velocity=110 time=0
EXTRACT: note_on channel=6 note=60 velocity=110 time=0
EXTRACT: note_on channel=9 note=55 velocity=110 time=0
EXTRACT: note_on channel=9 note=35 velocity=110 time=0
EXTRACT: note_on channel=9 note=36 velocity=110 time=0
EXTRACT: note_on channel=9 note=42 velocity=110 time=0
EXTRACT: note_on channel=2 note=63 velocity=0 time=0.17113078124999997
EXTRACT: note_on channel=2 note=66 velocity=0 time=0
EXTRACT: note_on channel=3 note=66 velocity=0 time=0
EXTRACT: note_on channel=4 note=47 velocity=0 time=0
EXTRACT: note_on channel=5 note=40 velocity=0 time=0
EXTRACT: note_on channel=6 note=60 velocity=0 time=0
EXTRACT: note_on channel=9 note=35 velocity=0 time=0
EXTRACT: note_on channel=9 note=36 velocity=0 time=0
EXTRACT: note_on channel=9 note=42 velocity=0 time=0
EXTRACT: note_on channel=2 note=63 velocity=60 time=0.007440468749999999
EXTRACT: note_on channel=2 note=66 velocity=60 time=0
EXTRACT: note_on channel=3 note=66 velocity=110 time=0
EXTRACT: note_on channel=4 note=47 velocity=110 time=0
EXTRACT: note_on channel=5 note=40 velocity=110 time=0
EXTRACT: note_on channel=6 note=60 velocity=110 time=0
EXTRACT: note_on channel=9 note=35 velocity=110 time=0
EXTRACT: note_on channel=9 note=36 velocity=110 time=0
EXTRACT: note_on channel=9 note=42 velocity=110 time=0
EXTRACT: note_on channel=2 note=63 velocity=0 time=0.17113078124999997
EXTRACT: note_on channel=2 note=66 velocity=0 time=0
EXTRACT: note_on channel=3 note=66 velocity=0 time=0
EXTRACT: note_on channel=4 note=47 velocity=0 time=0
EXTRACT: note_on channel=5 note=40 velocity=0 time=0
EXTRACT: note_on channel=6 note=60 velocity=0 time=0
EXTRACT: note_on channel=9 note=35 velocity=0 time=0
EXTRACT: note_on channel=9 note=36 velocity=0 time=0
EXTRACT: note_on channel=9 note=42 velocity=0 time=0
EXTRACT: note_on channel=2 note=63 velocity=60 time=0.007440468749999999
EXTRACT: note_on channel=2 note=66 velocity=60 time=0
EXTRACT: note_on channel=3 note=66 velocity=110 time=0
EXTRACT: note_on channel=4 note=47 velocity=110 time=0
EXTRACT: note_on channel=5 note=40 velocity=110 time=0
EXTRACT: note_on channel=6 note=60 velocity=110 time=0
EXTRACT: note_on channel=9 note=38 velocity=110 time=0
EXTRACT: note_on channel=9 note=42 velocity=110 time=0
EXTRACT: note_on channel=4 note=47 velocity=0 time=0.17113078124999997
EXTRACT: note_on channel=5 note=40 velocity=0 time=0
EXTRACT: note_on channel=6 note=60 velocity=0 time=0
EXTRACT: note_on channel=9 note=38 velocity=0 time=0
EXTRACT: note_on channel=9 note=42 velocity=0 time=0
EXTRACT: note_on channel=4 note=47 velocity=110 time=0.007440468749999999
EXTRACT: note_on channel=6 note=60 velocity=110 time=0
EXTRACT: note_on channel=9 note=42 velocity=110 time=0
EXTRACT: note_on channel=9 note=55 velocity=0 time=0.05952374999999999
EXTRACT: note_on channel=2 note=63 velocity=0 time=0.11160703124999999
EXTRACT: note_on channel=2 note=66 velocity=0 time=0
EXTRACT: note_on channel=3 note=66 velocity=0 time=0
EXTRACT: note_on channel=4 note=47 velocity=0 time=0
EXTRACT: note_on channel=6 note=60 velocity=0 time=0
EXTRACT: note_on channel=9 note=42 velocity=0 time=0
EXTRACT: note_on channel=2 note=60 velocity=60 time=0.007440468749999999
EXTRACT: note_on channel=2 note=64 velocity=60 time=0
EXTRACT: note_on channel=3 note=64 velocity=110 time=0
EXTRACT: note_on channel=4 note=48 velocity=110 time=0
EXTRACT: note_on channel=5 note=35 velocity=110 time=0
EXTRACT: note_on channel=6 note=60 velocity=110 time=0
EXTRACT: note_on channel=9 note=35 velocity=110 time=0
EXTRACT: note_on channel=9 note=36 velocity=110 time=0
EXTRACT: note_on channel=9 note=42 velocity=110 time=0
EXTRACT: note_on channel=2 note=60 velocity=0 time=0.17113078124999997
EXTRACT: note_on channel=2 note=64 velocity=0 time=0
EXTRACT: note_on channel=3 note=64 velocity=0 time=0
EXTRACT: note_on channel=4 note=48 velocity=0 time=0
EXTRACT: note_on channel=5 note=35 velocity=0 time=0
EXTRACT: note_on channel=6 note=60 velocity=0 time=0
EXTRACT: note_on channel=9 note=35 velocity=0 time=0
EXTRACT: note_on channel=9 note=36 velocity=0 time=0
EXTRACT: note_on channel=9 note=42 velocity=0 time=0
EXTRACT: note_on channel=2 note=60 velocity=60 time=0.007440468749999999
EXTRACT: note_on channel=2 note=64 velocity=60 time=0
EXTRACT: note_on channel=3 note=64 velocity=110 time=0
EXTRACT: note_on channel=4 note=48 velocity=110 time=0
EXTRACT: note_on channel=5 note=35 velocity=110 time=0
EXTRACT: note_on channel=6 note=60 velocity=110 time=0
EXTRACT: note_on channel=9 note=42 velocity=110 time=0
EXTRACT: note_on channel=2 note=60 velocity=0 time=0.17113078124999997
EXTRACT: note_on channel=2 note=64 velocity=0 time=0
EXTRACT: note_on channel=3 note=64 velocity=0 time=0
EXTRACT: note_on channel=4 note=48 velocity=0 time=0
EXTRACT: note_on channel=5 note=35 velocity=0 time=0
EXTRACT: note_on channel=6 note=60 velocity=0 time=0
EXTRACT: note_on channel=9 note=42 velocity=0 time=0
EXTRACT: note_on channel=2 note=60 velocity=60 time=0.007440468749999999
EXTRACT: note_on channel=2 note=64 velocity=60 time=0
EXTRACT: note_on channel=3 note=64 velocity=110 time=0
EXTRACT: note_on channel=4 note=48 velocity=110 time=0
EXTRACT: note_on channel=5 note=35 velocity=110 time=0
EXTRACT: note_on channel=6 note=60 velocity=110 time=0
EXTRACT: note_on channel=9 note=38 velocity=110 time=0
EXTRACT: note_on channel=9 note=42 velocity=110 time=0
EXTRACT: note_on channel=5 note=35 velocity=0 time=0.17113078124999997
EXTRACT: note_on channel=6 note=60 velocity=0 time=0
EXTRACT: note_on channel=9 note=38 velocity=0 time=0
EXTRACT: note_on channel=9 note=42 velocity=0 time=0
EXTRACT: note_on channel=6 note=60 velocity=110 time=0.007440468749999999
EXTRACT: note_on channel=9 note=42 velocity=110 time=0
EXTRACT: note_on channel=2 note=60 velocity=0 time=0.17113078124999997
EXTRACT: note_on channel=2 note=64 velocity=0 time=0
EXTRACT: note_on channel=3 note=64 velocity=0 time=0
EXTRACT: note_on channel=4 note=48 velocity=0 time=0
EXTRACT: note_on channel=6 note=60 velocity=0 time=0
EXTRACT: note_on channel=9 note=42 velocity=0 time=0
EXTRACT: note_on channel=2 note=60 velocity=60 time=0.007440468749999999
EXTRACT: note_on channel=2 note=64 velocity=60 time=0
EXTRACT: note_on channel=3 note=64 velocity=110 time=0
EXTRACT: note_on channel=4 note=48 velocity=110 time=0
EXTRACT: note_on channel=5 note=35 velocity=110 time=0
EXTRACT: note_on channel=6 note=60 velocity=110 time=0
EXTRACT: note_on channel=9 note=55 velocity=110 time=0
EXTRACT: note_on channel=9 note=35 velocity=110 time=0
EXTRACT: note_on channel=9 note=36 velocity=110 time=0
EXTRACT: note_on channel=9 note=42 velocity=110 time=0
EXTRACT: note_on channel=4 note=48 velocity=0 time=0.17113078124999997
EXTRACT: note_on channel=5 note=35 velocity=0 time=0
EXTRACT: note_on channel=6 note=60 velocity=0 time=0
EXTRACT: note_on channel=9 note=35 velocity=0 time=0
EXTRACT: note_on channel=9 note=36 velocity=0 time=0
EXTRACT: note_on channel=9 note=42 velocity=0 time=0
EXTRACT: note_on channel=4 note=48 velocity=110 time=0.007440468749999999
EXTRACT: note_on channel=5 note=35 velocity=110 time=0
EXTRACT: note_on channel=6 note=60 velocity=110 time=0
EXTRACT: note_on channel=9 note=35 velocity=110 time=0
EXTRACT: note_on channel=9 note=36 velocity=110 time=0
EXTRACT: note_on channel=9 note=42 velocity=110 time=0
EXTRACT: note_on channel=2 note=60 velocity=0 time=0.17113078124999997
EXTRACT: note_on channel=2 note=64 velocity=0 time=0
EXTRACT: note_on channel=3 note=64 velocity=0 time=0
EXTRACT: note_on channel=4 note=48 velocity=0 time=0
EXTRACT: note_on channel=5 note=35 velocity=0 time=0
EXTRACT: note_on channel=6 note=60 velocity=0 time=0
EXTRACT: note_on channel=9 note=35 velocity=0 time=0
EXTRACT: note_on channel=9 note=36 velocity=0 time=0
EXTRACT: note_on channel=9 note=42 velocity=0 time=0
EXTRACT: note_on channel=2 note=59 velocity=60 time=0.007440468749999999
EXTRACT: note_on channel=2 note=63 velocity=60 time=0
EXTRACT: note_on channel=3 note=62 velocity=110 time=0
EXTRACT: note_on channel=4 note=48 velocity=110 time=0
EXTRACT: note_on channel=5 note=35 velocity=110 time=0
EXTRACT: note_on channel=6 note=60 velocity=110 time=0
EXTRACT: note_on channel=9 note=38 velocity=110 time=0
EXTRACT: note_on channel=9 note=42 velocity=110 time=0
EXTRACT: note_on channel=5 note=35 velocity=0 time=0.17113078124999997
EXTRACT: note_on channel=6 note=60 velocity=0 time=0
EXTRACT: note_on channel=9 note=38 velocity=0 time=0
EXTRACT: note_on channel=9 note=42 velocity=0 time=0
EXTRACT: note_on channel=6 note=60 velocity=110 time=0.007440468749999999
EXTRACT: note_on channel=9 note=42 velocity=110 time=0
EXTRACT: note_on channel=9 note=55 velocity=0 time=0.05952374999999999
EXTRACT: note_on channel=2 note=59 velocity=0 time=0.11160703124999999
EXTRACT: note_on channel=2 note=63 velocity=0 time=0
EXTRACT: note_on channel=3 note=62 velocity=0 time=0
EXTRACT: note_on channel=4 note=48 velocity=0 time=0
EXTRACT: note_on channel=6 note=60 velocity=0 time=0
EXTRACT: note_on channel=9 note=42 velocity=0 time=0
EXTRACT: note_on channel=4 note=40 velocity=110 time=0.007440468749999999
EXTRACT: note_on channel=5 note=40 velocity=110 time=0
EXTRACT: note_on channel=6 note=60 velocity=110 time=0
EXTRACT: note_on channel=9 note=35 velocity=110 time=0
EXTRACT: note_on channel=9 note=36 velocity=110 time=0
EXTRACT: note_on channel=9 note=42 velocity=110 time=0
EXTRACT: note_on channel=4 note=40 velocity=0 time=0.17113078124999997
EXTRACT: note_on channel=5 note=40 velocity=0 time=0
EXTRACT: note_on channel=6 note=60 velocity=0 time=0
EXTRACT: note_on channel=9 note=35 velocity=0 time=0
EXTRACT: note_on channel=9 note=36 velocity=0 time=0
EXTRACT: note_on channel=9 note=42 velocity=0 time=0
EXTRACT: note_on channel=4 note=40 velocity=110 time=0.007440468749999999
EXTRACT: note_on channel=5 note=40 velocity=110 time=0
EXTRACT: note_on channel=6 note=60 velocity=110 time=0
EXTRACT: note_on channel=9 note=42 velocity=110 time=0
EXTRACT: note_on channel=4 note=40 velocity=0 time=0.17113078124999997
EXTRACT: note_on channel=5 note=40 velocity=0 time=0
EXTRACT: note_on channel=6 note=60 velocity=0 time=0
EXTRACT: note_on channel=9 note=42 velocity=0 time=0
EXTRACT: note_on channel=4 note=40 velocity=110 time=0.007440468749999999
EXTRACT: note_on channel=5 note=40 velocity=110 time=0
EXTRACT: note_on channel=6 note=60 velocity=110 time=0
EXTRACT: note_on channel=9 note=38 velocity=110 time=0
EXTRACT: note_on channel=9 note=42 velocity=110 time=0
EXTRACT: note_on channel=4 note=40 velocity=0 time=0.17113078124999997
EXTRACT: note_on channel=5 note=40 velocity=0 time=0
EXTRACT: note_on channel=6 note=60 velocity=0 time=0
EXTRACT: note_on channel=9 note=38 velocity=0 time=0
EXTRACT: note_on channel=9 note=42 velocity=0 time=0
EXTRACT: note_on channel=4 note=40 velocity=110 time=0.007440468749999999
EXTRACT: note_on channel=5 note=40 velocity=110 time=0
EXTRACT: note_on channel=6 note=60 velocity=110 time=0
EXTRACT: note_on channel=9 note=42 velocity=110 time=0
EXTRACT: note_on channel=4 note=40 velocity=0 time=0.17113078124999997
EXTRACT: note_on channel=5 note=40 velocity=0 time=0
EXTRACT: note_on channel=6 note=60 velocity=0 time=0
EXTRACT: note_on channel=9 note=42 velocity=0 time=0
EXTRACT: note_on channel=4 note=48 velocity=110 time=0.007440468749999999
EXTRACT: note_on channel=5 note=40 velocity=110 time=0
EXTRACT: note_on channel=6 note=60 velocity=110 time=0
EXTRACT: note_on channel=9 note=55 velocity=110 time=0
EXTRACT: note_on channel=9 note=35 velocity=110 time=0
EXTRACT: note_on channel=9 note=36 velocity=110 time=0
EXTRACT: note_on channel=9 note=42 velocity=110 time=0
EXTRACT: note_on channel=4 note=48 velocity=0 time=0.17113078124999997
EXTRACT: note_on channel=5 note=40 velocity=0 time=0
EXTRACT: note_on channel=6 note=60 velocity=0 time=0
EXTRACT: note_on channel=9 note=35 velocity=0 time=0
EXTRACT: note_on channel=9 note=36 velocity=0 time=0
EXTRACT: note_on channel=9 note=42 velocity=0 time=0
EXTRACT: note_on channel=4 note=48 velocity=110 time=0.007440468749999999
EXTRACT: note_on channel=5 note=40 velocity=110 time=0
EXTRACT: note_on channel=6 note=60 velocity=110 time=0
EXTRACT: note_on channel=9 note=35 velocity=110 time=0
EXTRACT: note_on channel=9 note=36 velocity=110 time=0
EXTRACT: note_on channel=9 note=42 velocity=110 time=0
EXTRACT: note_on channel=4 note=48 velocity=0 time=0.17113078124999997
EXTRACT: note_on channel=5 note=40 velocity=0 time=0
EXTRACT: note_on channel=6 note=60 velocity=0 time=0
EXTRACT: note_on channel=9 note=35 velocity=0 time=0
EXTRACT: note_on channel=9 note=36 velocity=0 time=0
EXTRACT: note_on channel=9 note=42 velocity=0 time=0
EXTRACT: note_on channel=4 note=48 velocity=110 time=0.007440468749999999
EXTRACT: note_on channel=5 note=40 velocity=110 time=0
EXTRACT: note_on channel=6 note=60 velocity=110 time=0
EXTRACT: note_on channel=9 note=38 velocity=110 time=0
EXTRACT: note_on channel=9 note=42 velocity=110 time=0
EXTRACT: note_on channel=4 note=48 velocity=0 time=0.17113078124999997
EXTRACT: note_on channel=5 note=40 velocity=0 time=0
EXTRACT: note_on channel=6 note=60 velocity=0 time=0
EXTRACT: note_on channel=9 note=38 velocity=0 time=0
EXTRACT: note_on channel=9 note=42 velocity=0 time=0
EXTRACT: note_on channel=4 note=48 velocity=110 time=0.007440468749999999
EXTRACT: note_on channel=5 note=40 velocity=110 time=0
EXTRACT: note_on channel=6 note=60 velocity=110 time=0
EXTRACT: note_on channel=9 note=42 velocity=110 time=0
EXTRACT: note_on channel=9 note=55 velocity=0 time=0.05952374999999999
EXTRACT: note_on channel=4 note=48 velocity=0 time=0.11160703124999999
EXTRACT: note_on channel=5 note=40 velocity=0 time=0
EXTRACT: note_on channel=6 note=60 velocity=0 time=0
EXTRACT: note_on channel=9 note=42 velocity=0 time=0
EXTRACT: note_on channel=4 note=47 velocity=110 time=0.007440468749999999
EXTRACT: note_on channel=5 note=39 velocity=110 time=0
EXTRACT: note_on channel=6 note=60 velocity=110 time=0
EXTRACT: note_on channel=9 note=35 velocity=110 time=0
EXTRACT: note_on channel=9 note=36 velocity=110 time=0
EXTRACT: note_on channel=9 note=42 velocity=110 time=0
EXTRACT: note_on channel=5 note=39 velocity=0 time=0.17113078124999997
EXTRACT: note_on channel=6 note=60 velocity=0 time=0
EXTRACT: note_on channel=9 note=35 velocity=0 time=0
EXTRACT: note_on channel=9 note=36 velocity=0 time=0
EXTRACT: note_on channel=9 note=42 velocity=0 time=0
EXTRACT: note_on channel=5 note=39 velocity=110 time=0.007440468749999999
EXTRACT: note_on channel=6 note=60 velocity=110 time=0
EXTRACT: note_on channel=9 note=42 velocity=110 time=0
EXTRACT: note_on channel=5 note=39 velocity=0 time=0.17113078124999997
EXTRACT: note_on channel=6 note=60 velocity=0 time=0
EXTRACT: note_on channel=9 note=42 velocity=0 time=0
EXTRACT: note_on channel=3 note=64 velocity=110 time=0.007440468749999999
EXTRACT: note_on channel=3 note=67 velocity=110 time=0
EXTRACT: note_on channel=5 note=39 velocity=110 time=0
EXTRACT: note_on channel=6 note=60 velocity=110 time=0
EXTRACT: note_on channel=9 note=38 velocity=110 time=0
EXTRACT: note_on channel=9 note=42 velocity=110 time=0
EXTRACT: note_on channel=5 note=39 velocity=0 time=0.17113078124999997
EXTRACT: note_on channel=6 note=60 velocity=0 time=0
EXTRACT: note_on channel=9 note=38 velocity=0 time=0
EXTRACT: note_on channel=9 note=42 velocity=0 time=0
EXTRACT: note_on channel=5 note=39 velocity=110 time=0.007440468749999999
EXTRACT: note_on channel=6 note=60 velocity=110 time=0
EXTRACT: note_on channel=9 note=42 velocity=110 time=0
EXTRACT: note_on channel=3 note=64 velocity=0 time=0.17113078124999997
EXTRACT: note_on channel=3 note=67 velocity=0 time=0
EXTRACT: note_on channel=5 note=39 velocity=0 time=0
EXTRACT: note_on channel=6 note=60 velocity=0 time=0
EXTRACT: note_on channel=9 note=42 velocity=0 time=0
EXTRACT: note_on channel=3 note=63 velocity=110 time=0.007440468749999999
EXTRACT: note_on channel=3 note=66 velocity=110 time=0
EXTRACT: note_on channel=5 note=39 velocity=110 time=0
EXTRACT: note_on channel=6 note=60 velocity=110 time=0
EXTRACT: note_on channel=9 note=55 velocity=110 time=0
EXTRACT: note_on channel=9 note=35 velocity=110 time=0
EXTRACT: note_on channel=9 note=36 velocity=110 time=0
EXTRACT: note_on channel=9 note=42 velocity=110 time=0
EXTRACT: note_on channel=5 note=39 velocity=0 time=0.17113078124999997
EXTRACT: note_on channel=6 note=60 velocity=0 time=0
EXTRACT: note_on channel=9 note=35 velocity=0 time=0
EXTRACT: note_on channel=9 note=36 velocity=0 time=0
EXTRACT: note_on channel=9 note=42 velocity=0 time=0
EXTRACT: note_on channel=5 note=39 velocity=110 time=0.007440468749999999
EXTRACT: note_on channel=6 note=60 velocity=110 time=0
EXTRACT: note_on channel=9 note=35 velocity=110 time=0
EXTRACT: note_on channel=9 note=36 velocity=110 time=0
EXTRACT: note_on channel=9 note=42 velocity=110 time=0
EXTRACT: note_on channel=3 note=63 velocity=0 time=0.17113078124999997
EXTRACT: note_on channel=3 note=66 velocity=0 time=0
EXTRACT: note_on channel=5 note=39 velocity=0 time=0
EXTRACT: note_on channel=6 note=60 velocity=0 time=0
EXTRACT: note_on channel=9 note=35 velocity=0 time=0
EXTRACT: note_on channel=9 note=36 velocity=0 time=0
EXTRACT: note_on channel=9 note=42 velocity=0 time=0
EXTRACT: note_on channel=5 note=39 velocity=110 time=0.007440468749999999
EXTRACT: note_on channel=6 note=60 velocity=110 time=0
EXTRACT: note_on channel=9 note=38 velocity=110 time=0
EXTRACT: note_on channel=9 note=42 velocity=110 time=0
EXTRACT: note_on channel=5 note=39 velocity=0 time=0.17113078124999997
EXTRACT: note_on channel=6 note=60 velocity=0 time=0
EXTRACT: note_on channel=9 note=38 velocity=0 time=0
EXTRACT: note_on channel=9 note=42 velocity=0 time=0
EXTRACT: note_on channel=4 note=47 velocity=0 time=0.007440468749999999
EXTRACT: note_on channel=6 note=60 velocity=110 time=0
EXTRACT: note_on channel=9 note=42 velocity=110 time=0
EXTRACT: note_on channel=9 note=55 velocity=0 time=0.05952374999999999
EXTRACT: note_on channel=6 note=60 velocity=0 time=0.11160703124999999
EXTRACT: note_on channel=9 note=42 velocity=0 time=0
EXTRACT: note_on channel=2 note=64 velocity=60 time=0.007440468749999999
EXTRACT: note_on channel=2 note=67 velocity=60 time=0
EXTRACT: note_on channel=3 note=67 velocity=110 time=0
EXTRACT: note_on channel=4 note=40 velocity=110 time=0
EXTRACT: note_on channel=5 note=40 velocity=110 time=0
EXTRACT: note_on channel=6 note=60 velocity=110 time=0
EXTRACT: note_on channel=9 note=35 velocity=110 time=0
EXTRACT: note_on channel=9 note=36 velocity=110 time=0
EXTRACT: note_on channel=9 note=42 velocity=110 time=0
EXTRACT: note_on channel=2 note=64 velocity=0 time=0.17113078124999997
EXTRACT: note_on channel=2 note=67 velocity=0 time=0
EXTRACT: note_on channel=3 note=67 velocity=0 time=0
EXTRACT: note_on channel=4 note=40 velocity=0 time=0
EXTRACT: note_on channel=5 note=40 velocity=0 time=0
EXTRACT: note_on channel=6 note=60 velocity=0 time=0
EXTRACT: note_on channel=9 note=35 velocity=0 time=0
EXTRACT: note_on channel=9 note=36 velocity=0 time=0
EXTRACT: note_on channel=9 note=42 velocity=0 time=0
EXTRACT: note_on channel=2 note=64 velocity=60 time=0.007440468749999999
EXTRACT: note_on channel=2 note=67 velocity=60 time=0
EXTRACT: note_on channel=3 note=67 velocity=110 time=0
EXTRACT: note_on channel=4 note=40 velocity=110 time=0
EXTRACT: note_on channel=5 note=40 velocity=110 time=0
EXTRACT: note_on channel=6 note=60 velocity=110 time=0
EXTRACT: note_on channel=9 note=42 velocity=110 time=0
EXTRACT: note_on channel=2 note=64 velocity=0 time=0.17113078124999997
EXTRACT: note_on channel=2 note=67 velocity=0 time=0
EXTRACT: note_on channel=3 note=67 velocity=0 time=0
EXTRACT: note_on channel=4 note=40 velocity=0 time=0
EXTRACT: note_on channel=5 note=40 velocity=0 time=0
EXTRACT: note_on channel=6 note=60 velocity=0 time=0
EXTRACT: note_on channel=9 note=42 velocity=0 time=0
EXTRACT: note_on channel=2 note=64 velocity=60 time=0.007440468749999999
EXTRACT: note_on channel=2 note=67 velocity=60 time=0
EXTRACT: note_on channel=3 note=67 velocity=110 time=0
EXTRACT: note_on channel=4 note=40 velocity=110 time=0
EXTRACT: note_on channel=5 note=40 velocity=110 time=0
EXTRACT: note_on channel=6 note=60 velocity=110 time=0
EXTRACT: note_on channel=9 note=38 velocity=110 time=0
EXTRACT: note_on channel=9 note=42 velocity=110 time=0
EXTRACT: note_on channel=2 note=64 velocity=0 time=0.17113078124999997
EXTRACT: note_on channel=2 note=67 velocity=0 time=0
EXTRACT: note_on channel=3 note=67 velocity=0 time=0
EXTRACT: note_on channel=4 note=40 velocity=0 time=0
EXTRACT: note_on channel=5 note=40 velocity=0 time=0
EXTRACT: note_on channel=6 note=60 velocity=0 time=0
EXTRACT: note_on channel=9 note=38 velocity=0 time=0
EXTRACT: note_on channel=9 note=42 velocity=0 time=0
EXTRACT: note_on channel=2 note=64 velocity=60 time=0.007440468749999999
EXTRACT: note_on channel=2 note=67 velocity=60 time=0
EXTRACT: note_on channel=3 note=67 velocity=110 time=0
EXTRACT: note_on channel=4 note=40 velocity=110 time=0
EXTRACT: note_on channel=6 note=60 velocity=110 time=0
EXTRACT: note_on channel=9 note=42 velocity=110 time=0
EXTRACT: note_on channel=2 note=64 velocity=0 time=0.17113078124999997
EXTRACT: note_on channel=2 note=67 velocity=0 time=0
EXTRACT: note_on channel=3 note=67 velocity=0 time=0
EXTRACT: note_on channel=4 note=40 velocity=0 time=0
EXTRACT: note_on channel=6 note=60 velocity=0 time=0
EXTRACT: note_on channel=9 note=42 velocity=0 time=0
EXTRACT: note_on channel=2 note=63 velocity=60 time=0.007440468749999999
EXTRACT: note_on channel=2 note=66 velocity=60 time=0
EXTRACT: note_on channel=3 note=66 velocity=110 time=0
EXTRACT: note_on channel=4 note=47 velocity=110 time=0
EXTRACT: note_on channel=5 note=40 velocity=110 time=0
EXTRACT: note_on channel=6 note=60 velocity=110 time=0
EXTRACT: note_on channel=9 note=55 velocity=110 time=0
EXTRACT: note_on channel=9 note=35 velocity=110 time=0
EXTRACT: note_on channel=9 note=36 velocity=110 time=0
EXTRACT: note_on channel=9 note=42 velocity=110 time=0
EXTRACT: note_on channel=2 note=63 velocity=0 time=0.17113078124999997
EXTRACT: note_on channel=2 note=66 velocity=0 time=0
EXTRACT: note_on channel=3 note=66 velocity=0 time=0
EXTRACT: note_on channel=4 note=47 velocity=0 time=0
EXTRACT: note_on channel=5 note=40 velocity=0 time=0
EXTRACT: note_on channel=6 note=60 velocity=0 time=0
EXTRACT: note_on channel=9 note=35 velocity=0 time=0
EXTRACT: note_on channel=9 note=36 velocity=0 time=0
EXTRACT: note_on channel=9 note=42 velocity=0 time=0
EXTRACT: note_on channel=2 note=63 velocity=60 time=0.007440468749999999
EXTRACT: note_on channel=2 note=66 velocity=60 time=0
EXTRACT: note_on channel=3 note=66 velocity=110 time=0
EXTRACT: note_on channel=4 note=47 velocity=110 time=0
EXTRACT: note_on channel=5 note=40 velocity=110 time=0
EXTRACT: note_on channel=6 note=60 velocity=110 time=0
EXTRACT: note_on channel=9 note=35 velocity=110 time=0
EXTRACT: note_on channel=9 note=36 velocity=110 time=0
EXTRACT: note_on channel=9 note=42 velocity=110 time=0
EXTRACT: note_on channel=2 note=63 velocity=0 time=0.17113078124999997
EXTRACT: note_on channel=2 note=66 velocity=0 time=0
EXTRACT: note_on channel=3 note=66 velocity=0 time=0
EXTRACT: note_on channel=4 note=47 velocity=0 time=0
EXTRACT: note_on channel=5 note=40 velocity=0 time=0
EXTRACT: note_on channel=6 note=60 velocity=0 time=0
EXTRACT: note_on channel=9 note=35 velocity=0 time=0
EXTRACT: note_on channel=9 note=36 velocity=0 time=0
EXTRACT: note_on channel=9 note=42 velocity=0 time=0
EXTRACT: note_on channel=2 note=63 velocity=60 time=0.007440468749999999
EXTRACT: note_on channel=2 note=66 velocity=60 time=0
EXTRACT: note_on channel=3 note=66 velocity=110 time=0
EXTRACT: note_on channel=4 note=47 velocity=110 time=0
EXTRACT: note_on channel=5 note=40 velocity=110 time=0
EXTRACT: note_on channel=6 note=60 velocity=110 time=0
EXTRACT: note_on channel=9 note=38 velocity=110 time=0
EXTRACT: note_on channel=9 note=42 velocity=110 time=0
EXTRACT: note_on channel=4 note=47 velocity=0 time=0.17113078124999997
EXTRACT: note_on channel=5 note=40 velocity=0 time=0
EXTRACT: note_on channel=6 note=60 velocity=0 time=0
EXTRACT: note_on channel=9 note=38 velocity=0 time=0
EXTRACT: note_on channel=9 note=42 velocity=0 time=0
EXTRACT: note_on channel=4 note=47 velocity=110 time=0.007440468749999999
EXTRACT: note_on channel=6 note=60 velocity=110 time=0
EXTRACT: note_on channel=9 note=42 velocity=110 time=0
EXTRACT: note_on channel=9 note=55 velocity=0 time=0.05952374999999999
EXTRACT: note_on channel=2 note=63 velocity=0 time=0.11160703124999999
EXTRACT: note_on channel=2 note=66 velocity=0 time=0
EXTRACT: note_on channel=3 note=66 velocity=0 time=0
EXTRACT: note_on channel=4 note=47 velocity=0 time=0
EXTRACT: note_on channel=6 note=60 velocity=0 time=0
EXTRACT: note_on channel=9 note=42 velocity=0 time=0
EXTRACT: note_on channel=2 note=60 velocity=60 time=0.007440468749999999
EXTRACT: note_on channel=2 note=64 velocity=60 time=0
EXTRACT: note_on channel=3 note=64 velocity=110 time=0
EXTRACT: note_on channel=4 note=48 velocity=110 time=0
EXTRACT: note_on channel=5 note=35 velocity=110 time=0
EXTRACT: note_on channel=6 note=60 velocity=110 time=0
EXTRACT: note_on channel=9 note=35 velocity=110 time=0
EXTRACT: note_on channel=9 note=36 velocity=110 time=0
EXTRACT: note_on channel=9 note=42 velocity=110 time=0
EXTRACT: note_on channel=2 note=60 velocity=0 time=0.17113078124999997
EXTRACT: note_on channel=2 note=64 velocity=0 time=0
EXTRACT: note_on channel=3 note=64 velocity=0 time=0
EXTRACT: note_on channel=4 note=48 velocity=0 time=0
EXTRACT: note_on channel=5 note=35 velocity=0 time=0
EXTRACT: note_on channel=6 note=60 velocity=0 time=0
EXTRACT: note_on channel=9 note=35 velocity=0 time=0
EXTRACT: note_on channel=9 note=36 velocity=0 time=0
EXTRACT: note_on channel=9 note=42 velocity=0 time=0
EXTRACT: note_on channel=2 note=60 velocity=60 time=0.007440468749999999
EXTRACT: note_on channel=2 note=64 velocity=60 time=0
EXTRACT: note_on channel=3 note=64 velocity=110 time=0
EXTRACT: note_on channel=4 note=48 velocity=110 time=0
EXTRACT: note_on channel=5 note=35 velocity=110 time=0
EXTRACT: note_on channel=6 note=60 velocity=110 time=0
EXTRACT: note_on channel=9 note=42 velocity=110 time=0
EXTRACT: note_on channel=2 note=60 velocity=0 time=0.17113078124999997
EXTRACT: note_on channel=2 note=64 velocity=0 time=0
EXTRACT: note_on channel=3 note=64 velocity=0 time=0
EXTRACT: note_on channel=4 note=48 velocity=0 time=0
EXTRACT: note_on channel=5 note=35 velocity=0 time=0
EXTRACT: note_on channel=6 note=60 velocity=0 time=0
EXTRACT: note_on channel=9 note=42 velocity=0 time=0
EXTRACT: note_on channel=2 note=60 velocity=60 time=0.007440468749999999
EXTRACT: note_on channel=2 note=64 velocity=60 time=0
EXTRACT: note_on channel=3 note=64 velocity=110 time=0
EXTRACT: note_on channel=4 note=48 velocity=110 time=0
EXTRACT: note_on channel=5 note=35 velocity=110 time=0
EXTRACT: note_on channel=6 note=60 velocity=110 time=0
EXTRACT: note_on channel=9 note=38 velocity=110 time=0
EXTRACT: note_on channel=9 note=42 velocity=110 time=0
EXTRACT: note_on channel=5 note=35 velocity=0 time=0.17113078124999997
EXTRACT: note_on channel=6 note=60 velocity=0 time=0
EXTRACT: note_on channel=9 note=38 velocity=0 time=0
EXTRACT: note_on channel=9 note=42 velocity=0 time=0
EXTRACT: note_on channel=6 note=60 velocity=110 time=0.007440468749999999
EXTRACT: note_on channel=9 note=42 velocity=110 time=0
EXTRACT: note_on channel=2 note=60 velocity=0 time=0.17113078124999997
EXTRACT: note_on channel=2 note=64 velocity=0 time=0
EXTRACT: note_on channel=3 note=64 velocity=0 time=0
EXTRACT: note_on channel=4 note=48 velocity=0 time=0
EXTRACT: note_on channel=6 note=60 velocity=0 time=0
EXTRACT: note_on channel=9 note=42 velocity=0 time=0
EXTRACT: note_on channel=2 note=60 velocity=60 time=0.007440468749999999
EXTRACT: note_on channel=2 note=64 velocity=60 time=0
EXTRACT: note_on channel=3 note=64 velocity=110 time=0
EXTRACT: note_on channel=4 note=48 velocity=110 time=0
EXTRACT: note_on channel=5 note=35 velocity=110 time=0
EXTRACT: note_on channel=6 note=60 velocity=110 time=0
EXTRACT: note_on channel=9 note=55 velocity=110 time=0
EXTRACT: note_on channel=9 note=35 velocity=110 time=0
EXTRACT: note_on channel=9 note=36 velocity=110 time=0
EXTRACT: note_on channel=9 note=42 velocity=110 time=0
EXTRACT: note_on channel=4 note=48 velocity=0 time=0.17113078124999997
EXTRACT: note_on channel=5 note=35 velocity=0 time=0
EXTRACT: note_on channel=6 note=60 velocity=0 time=0
EXTRACT: note_on channel=9 note=35 velocity=0 time=0
EXTRACT: note_on channel=9 note=36 velocity=0 time=0
EXTRACT: note_on channel=9 note=42 velocity=0 time=0
EXTRACT: note_on channel=4 note=48 velocity=110 time=0.007440468749999999
EXTRACT: note_on channel=5 note=35 velocity=110 time=0
EXTRACT: note_on channel=6 note=60 velocity=110 time=0
EXTRACT: note_on channel=9 note=35 velocity=110 time=0
EXTRACT: note_on channel=9 note=36 velocity=110 time=0
EXTRACT: note_on channel=9 note=42 velocity=110 time=0
EXTRACT: note_on channel=2 note=60 velocity=0 time=0.17113078124999997
EXTRACT: note_on channel=2 note=64 velocity=0 time=0
EXTRACT: note_on channel=3 note=64 velocity=0 time=0
EXTRACT: note_on channel=4 note=48 velocity=0 time=0
EXTRACT: note_on channel=5 note=35 velocity=0 time=0
EXTRACT: note_on channel=6 note=60 velocity=0 time=0
EXTRACT: note_on channel=9 note=35 velocity=0 time=0
EXTRACT: note_on channel=9 note=36 velocity=0 time=0
EXTRACT: note_on channel=9 note=42 velocity=0 time=0
EXTRACT: note_on channel=2 note=59 velocity=60 time=0.007440468749999999
EXTRACT: note_on channel=2 note=63 velocity=60 time=0
EXTRACT: note_on channel=3 note=62 velocity=110 time=0
EXTRACT: note_on channel=4 note=48 velocity=110 time=0
EXTRACT: note_on channel=5 note=35 velocity=110 time=0
EXTRACT: note_on channel=6 note=60 velocity=110 time=0
EXTRACT: note_on channel=9 note=38 velocity=110 time=0
EXTRACT: note_on channel=9 note=42 velocity=110 time=0
EXTRACT: note_on channel=5 note=35 velocity=0 time=0.17113078124999997
EXTRACT: note_on channel=6 note=60 velocity=0 time=0
EXTRACT: note_on channel=9 note=38 velocity=0 time=0
EXTRACT: note_on channel=9 note=42 velocity=0 time=0
EXTRACT: note_on channel=6 note=60 velocity=110 time=0.007440468749999999
EXTRACT: note_on channel=9 note=42 velocity=110 time=0
EXTRACT: note_on channel=9 note=55 velocity=0 time=0.05952374999999999
EXTRACT: note_on channel=2 note=59 velocity=0 time=0.11160703124999999
EXTRACT: note_on channel=2 note=63 velocity=0 time=0
EXTRACT: note_on channel=3 note=62 velocity=0 time=0
EXTRACT: note_on channel=4 note=48 velocity=0 time=0
EXTRACT: note_on channel=6 note=60 velocity=0 time=0
EXTRACT: note_on channel=9 note=42 velocity=0 time=0
EXTRACT: note_on channel=4 note=40 velocity=110 time=0.007440468749999999
EXTRACT: note_on channel=5 note=40 velocity=110 time=0
EXTRACT: note_on channel=6 note=60 velocity=110 time=0
EXTRACT: note_on channel=9 note=35 velocity=110 time=0
EXTRACT: note_on channel=9 note=36 velocity=110 time=0
EXTRACT: note_on channel=9 note=42 velocity=110 time=0
EXTRACT: note_on channel=4 note=40 velocity=0 time=0.17113078124999997
EXTRACT: note_on channel=5 note=40 velocity=0 time=0
EXTRACT: note_on channel=6 note=60 velocity=0 time=0
EXTRACT: note_on channel=9 note=35 velocity=0 time=0
EXTRACT: note_on channel=9 note=36 velocity=0 time=0
EXTRACT: note_on channel=9 note=42 velocity=0 time=0
EXTRACT: note_on channel=4 note=40 velocity=110 time=0.007440468749999999
EXTRACT: note_on channel=5 note=40 velocity=110 time=0
EXTRACT: note_on channel=6 note=60 velocity=110 time=0
EXTRACT: note_on channel=9 note=42 velocity=110 time=0
EXTRACT: note_on channel=4 note=40 velocity=0 time=0.17113078124999997
EXTRACT: note_on channel=5 note=40 velocity=0 time=0
EXTRACT: note_on channel=6 note=60 velocity=0 time=0
EXTRACT: note_on channel=9 note=42 velocity=0 time=0
EXTRACT: note_on channel=4 note=40 velocity=110 time=0.007440468749999999
EXTRACT: note_on channel=5 note=40 velocity=110 time=0
EXTRACT: note_on channel=6 note=60 velocity=110 time=0
EXTRACT: note_on channel=9 note=38 velocity=110 time=0
EXTRACT: note_on channel=9 note=42 velocity=110 time=0
EXTRACT: note_on channel=4 note=40 velocity=0 time=0.17113078124999997
EXTRACT: note_on channel=5 note=40 velocity=0 time=0
EXTRACT: note_on channel=6 note=60 velocity=0 time=0
EXTRACT: note_on channel=9 note=38 velocity=0 time=0
EXTRACT: note_on channel=9 note=42 velocity=0 time=0
EXTRACT: note_on channel=4 note=40 velocity=110 time=0.007440468749999999
EXTRACT: note_on channel=5 note=40 velocity=110 time=0
EXTRACT: note_on channel=6 note=60 velocity=110 time=0
EXTRACT: note_on channel=9 note=42 velocity=110 time=0
EXTRACT: note_on channel=4 note=40 velocity=0 time=0.17113078124999997
EXTRACT: note_on channel=5 note=40 velocity=0 time=0
EXTRACT: note_on channel=6 note=60 velocity=0 time=0
EXTRACT: note_on channel=9 note=42 velocity=0 time=0
EXTRACT: note_on channel=4 note=48 velocity=110 time=0.007440468749999999
EXTRACT: note_on channel=5 note=40 velocity=110 time=0
EXTRACT: note_on channel=6 note=60 velocity=110 time=0
EXTRACT: note_on channel=9 note=55 velocity=110 time=0
EXTRACT: note_on channel=9 note=35 velocity=110 time=0
EXTRACT: note_on channel=9 note=36 velocity=110 time=0
EXTRACT: note_on channel=9 note=42 velocity=110 time=0
EXTRACT: note_on channel=4 note=48 velocity=0 time=0.17113078124999997
EXTRACT: note_on channel=5 note=40 velocity=0 time=0
EXTRACT: note_on channel=6 note=60 velocity=0 time=0
EXTRACT: note_on channel=9 note=35 velocity=0 time=0
EXTRACT: note_on channel=9 note=36 velocity=0 time=0
EXTRACT: note_on channel=9 note=42 velocity=0 time=0
EXTRACT: note_on channel=4 note=48 velocity=110 time=0.007440468749999999
EXTRACT: note_on channel=5 note=40 velocity=110 time=0
EXTRACT: note_on channel=6 note=60 velocity=110 time=0
EXTRACT: note_on channel=9 note=35 velocity=110 time=0
EXTRACT: note_on channel=9 note=36 velocity=110 time=0
EXTRACT: note_on channel=9 note=42 velocity=110 time=0
EXTRACT: note_on channel=4 note=48 velocity=0 time=0.17113078124999997
EXTRACT: note_on channel=5 note=40 velocity=0 time=0
EXTRACT: note_on channel=6 note=60 velocity=0 time=0
EXTRACT: note_on channel=9 note=35 velocity=0 time=0
EXTRACT: note_on channel=9 note=36 velocity=0 time=0
EXTRACT: note_on channel=9 note=42 velocity=0 time=0
EXTRACT: note_on channel=4 note=48 velocity=110 time=0.007440468749999999
EXTRACT: note_on channel=5 note=40 velocity=110 time=0
EXTRACT: note_on channel=6 note=60 velocity=110 time=0
EXTRACT: note_on channel=9 note=38 velocity=110 time=0
EXTRACT: note_on channel=9 note=42 velocity=110 time=0
EXTRACT: note_on channel=4 note=48 velocity=0 time=0.17113078124999997
EXTRACT: note_on channel=5 note=40 velocity=0 time=0
EXTRACT: note_on channel=6 note=60 velocity=0 time=0
EXTRACT: note_on channel=9 note=38 velocity=0 time=0
EXTRACT: note_on channel=9 note=42 velocity=0 time=0
EXTRACT: note_on channel=4 note=48 velocity=110 time=0.007440468749999999
EXTRACT: note_on channel=5 note=40 velocity=110 time=0
EXTRACT: note_on channel=6 note=60 velocity=110 time=0
EXTRACT: note_on channel=9 note=42 velocity=110 time=0
EXTRACT: note_on channel=9 note=55 velocity=0 time=0.05952374999999999
EXTRACT: note_on channel=4 note=48 velocity=0 time=0.11160703124999999
EXTRACT: note_on channel=5 note=40 velocity=0 time=0
EXTRACT: note_on channel=6 note=60 velocity=0 time=0
EXTRACT: note_on channel=9 note=42 velocity=0 time=0
EXTRACT: note_on channel=4 note=47 velocity=110 time=0.007440468749999999
EXTRACT: note_on channel=5 note=39 velocity=110 time=0
EXTRACT: note_on channel=6 note=60 velocity=110 time=0
EXTRACT: note_on channel=9 note=35 velocity=110 time=0
EXTRACT: note_on channel=9 note=36 velocity=110 time=0
EXTRACT: note_on channel=9 note=42 velocity=110 time=0
EXTRACT: note_on channel=5 note=39 velocity=0 time=0.17113078124999997
EXTRACT: note_on channel=6 note=60 velocity=0 time=0
EXTRACT: note_on channel=9 note=35 velocity=0 time=0
EXTRACT: note_on channel=9 note=36 velocity=0 time=0
EXTRACT: note_on channel=9 note=42 velocity=0 time=0
EXTRACT: note_on channel=5 note=39 velocity=110 time=0.007440468749999999
EXTRACT: note_on channel=6 note=60 velocity=110 time=0
EXTRACT: note_on channel=9 note=42 velocity=110 time=0
EXTRACT: note_on channel=5 note=39 velocity=0 time=0.17113078124999997
EXTRACT: note_on channel=6 note=60 velocity=0 time=0
EXTRACT: note_on channel=9 note=42 velocity=0 time=0
EXTRACT: note_on channel=3 note=64 velocity=110 time=0.007440468749999999
EXTRACT: note_on channel=3 note=67 velocity=110 time=0
EXTRACT: note_on channel=5 note=39 velocity=110 time=0
EXTRACT: note_on channel=6 note=60 velocity=110 time=0
EXTRACT: note_on channel=9 note=38 velocity=110 time=0
EXTRACT: note_on channel=9 note=42 velocity=110 time=0
EXTRACT: note_on channel=5 note=39 velocity=0 time=0.17113078124999997
EXTRACT: note_on channel=6 note=60 velocity=0 time=0
EXTRACT: note_on channel=9 note=38 velocity=0 time=0
EXTRACT: note_on channel=9 note=42 velocity=0 time=0
EXTRACT: note_on channel=5 note=39 velocity=110 time=0.007440468749999999
EXTRACT: note_on channel=6 note=60 velocity=110 time=0
EXTRACT: note_on channel=9 note=42 velocity=110 time=0
EXTRACT: note_on channel=3 note=64 velocity=0 time=0.17113078124999997
EXTRACT: note_on channel=3 note=67 velocity=0 time=0
EXTRACT: note_on channel=5 note=39 velocity=0 time=0
EXTRACT: note_on channel=6 note=60 velocity=0 time=0
EXTRACT: note_on channel=9 note=42 velocity=0 time=0
EXTRACT: note_on channel=3 note=63 velocity=110 time=0.007440468749999999
EXTRACT: note_on channel=3 note=66 velocity=110 time=0
EXTRACT: note_on channel=5 note=39 velocity=110 time=0
EXTRACT: note_on channel=6 note=60 velocity=110 time=0
EXTRACT: note_on channel=9 note=55 velocity=110 time=0
EXTRACT: note_on channel=9 note=35 velocity=110 time=0
EXTRACT: note_on channel=9 note=36 velocity=110 time=0
EXTRACT: note_on channel=9 note=42 velocity=110 time=0
EXTRACT: note_on channel=5 note=39 velocity=0 time=0.17113078124999997
EXTRACT: note_on channel=6 note=60 velocity=0 time=0
EXTRACT: note_on channel=9 note=35 velocity=0 time=0
EXTRACT: note_on channel=9 note=36 velocity=0 time=0
EXTRACT: note_on channel=9 note=42 velocity=0 time=0
EXTRACT: note_on channel=5 note=39 velocity=110 time=0.007440468749999999
EXTRACT: note_on channel=6 note=60 velocity=110 time=0
EXTRACT: note_on channel=9 note=35 velocity=110 time=0
EXTRACT: note_on channel=9 note=36 velocity=110 time=0
EXTRACT: note_on channel=9 note=42 velocity=110 time=0
EXTRACT: note_on channel=3 note=63 velocity=0 time=0.17113078124999997
EXTRACT: note_on channel=3 note=66 velocity=0 time=0
EXTRACT: note_on channel=5 note=39 velocity=0 time=0
EXTRACT: note_on channel=6 note=60 velocity=0 time=0
EXTRACT: note_on channel=9 note=35 velocity=0 time=0
EXTRACT: note_on channel=9 note=36 velocity=0 time=0
EXTRACT: note_on channel=9 note=42 velocity=0 time=0
EXTRACT: note_on channel=5 note=39 velocity=110 time=0.007440468749999999
EXTRACT: note_on channel=6 note=60 velocity=110 time=0
EXTRACT: note_on channel=9 note=38 velocity=110 time=0
EXTRACT: note_on channel=9 note=42 velocity=110 time=0
EXTRACT: note_on channel=5 note=39 velocity=0 time=0.17113078124999997
EXTRACT: note_on channel=6 note=60 velocity=0 time=0
EXTRACT: note_on channel=9 note=38 velocity=0 time=0
EXTRACT: note_on channel=9 note=42 velocity=0 time=0
EXTRACT: note_on channel=3 note=64 velocity=110 time=0.007440468749999999
EXTRACT: note_on channel=4 note=47 velocity=0 time=0
EXTRACT: note_on channel=6 note=60 velocity=110 time=0
EXTRACT: note_on channel=9 note=42 velocity=110 time=0
EXTRACT: note_on channel=9 note=55 velocity=0 time=0.05952374999999999
EXTRACT: note_on channel=3 note=64 velocity=0 time=0.11160703124999999
EXTRACT: note_on channel=6 note=60 velocity=0 time=0
EXTRACT: note_on channel=9 note=42 velocity=0 time=0
EXTRACT: note_on channel=2 note=64 velocity=60 time=0.007440468749999999
EXTRACT: note_on channel=2 note=67 velocity=60 time=0
EXTRACT: note_on channel=3 note=67 velocity=110 time=0
EXTRACT: note_on channel=4 note=40 velocity=110 time=0
EXTRACT: note_on channel=5 note=40 velocity=110 time=0
EXTRACT: note_on channel=6 note=60 velocity=110 time=0
EXTRACT: note_on channel=9 note=35 velocity=110 time=0
EXTRACT: note_on channel=9 note=36 velocity=110 time=0
EXTRACT: note_on channel=9 note=42 velocity=110 time=0
EXTRACT: note_on channel=2 note=64 velocity=0 time=0.17113078124999997
EXTRACT: note_on channel=2 note=67 velocity=0 time=0
EXTRACT: note_on channel=3 note=67 velocity=0 time=0
EXTRACT: note_on channel=4 note=40 velocity=0 time=0
EXTRACT: note_on channel=5 note=40 velocity=0 time=0
EXTRACT: note_on channel=6 note=60 velocity=0 time=0
EXTRACT: note_on channel=9 note=35 velocity=0 time=0
EXTRACT: note_on channel=9 note=36 velocity=0 time=0
EXTRACT: note_on channel=9 note=42 velocity=0 time=0
EXTRACT: note_on channel=2 note=64 velocity=60 time=0.007440468749999999
EXTRACT: note_on channel=2 note=67 velocity=60 time=0
EXTRACT: note_on channel=3 note=67 velocity=110 time=0
EXTRACT: note_on channel=4 note=40 velocity=110 time=0
EXTRACT: note_on channel=5 note=40 velocity=110 time=0
EXTRACT: note_on channel=6 note=60 velocity=110 time=0
EXTRACT: note_on channel=9 note=42 velocity=110 time=0
EXTRACT: note_on channel=2 note=64 velocity=0 time=0.17113078124999997
EXTRACT: note_on channel=2 note=67 velocity=0 time=0
EXTRACT: note_on channel=3 note=67 velocity=0 time=0
EXTRACT: note_on channel=4 note=40 velocity=0 time=0
EXTRACT: note_on channel=5 note=40 velocity=0 time=0
EXTRACT: note_on channel=6 note=60 velocity=0 time=0
EXTRACT: note_on channel=9 note=42 velocity=0 time=0
EXTRACT: note_on channel=2 note=64 velocity=60 time=0.007440468749999999
EXTRACT: note_on channel=2 note=67 velocity=60 time=0
EXTRACT: note_on channel=3 note=67 velocity=110 time=0
EXTRACT: note_on channel=4 note=40 velocity=110 time=0
EXTRACT: note_on channel=5 note=40 velocity=110 time=0
EXTRACT: note_on channel=6 note=60 velocity=110 time=0
EXTRACT: note_on channel=9 note=38 velocity=110 time=0
EXTRACT: note_on channel=9 note=42 velocity=110 time=0
EXTRACT: note_on channel=2 note=64 velocity=0 time=0.17113078124999997
EXTRACT: note_on channel=2 note=67 velocity=0 time=0
EXTRACT: note_on channel=3 note=67 velocity=0 time=0
EXTRACT: note_on channel=4 note=40 velocity=0 time=0
EXTRACT: note_on channel=5 note=40 velocity=0 time=0
EXTRACT: note_on channel=6 note=60 velocity=0 time=0
EXTRACT: note_on channel=9 note=38 velocity=0 time=0
EXTRACT: note_on channel=9 note=42 velocity=0 time=0
EXTRACT: note_on channel=2 note=64 velocity=60 time=0.007440468749999999
EXTRACT: note_on channel=2 note=67 velocity=60 time=0
EXTRACT: note_on channel=3 note=67 velocity=110 time=0
EXTRACT: note_on channel=4 note=40 velocity=110 time=0
EXTRACT: note_on channel=6 note=60 velocity=110 time=0
EXTRACT: note_on channel=9 note=42 velocity=110 time=0
EXTRACT: note_on channel=2 note=64 velocity=0 time=0.17113078124999997
EXTRACT: note_on channel=2 note=67 velocity=0 time=0
EXTRACT: note_on channel=3 note=67 velocity=0 time=0
EXTRACT: note_on channel=4 note=40 velocity=0 time=0
EXTRACT: note_on channel=6 note=60 velocity=0 time=0
EXTRACT: note_on channel=9 note=42 velocity=0 time=0
EXTRACT: note_on channel=2 note=63 velocity=60 time=0.007440468749999999
EXTRACT: note_on channel=2 note=66 velocity=60 time=0
EXTRACT: note_on channel=3 note=66 velocity=110 time=0
EXTRACT: note_on channel=4 note=47 velocity=110 time=0
EXTRACT: note_on channel=5 note=40 velocity=110 time=0
EXTRACT: note_on channel=6 note=60 velocity=110 time=0
EXTRACT: note_on channel=9 note=55 velocity=110 time=0
EXTRACT: note_on channel=9 note=35 velocity=110 time=0
EXTRACT: note_on channel=9 note=36 velocity=110 time=0
EXTRACT: note_on channel=9 note=42 velocity=110 time=0
EXTRACT: note_on channel=2 note=63 velocity=0 time=0.17113078124999997
EXTRACT: note_on channel=2 note=66 velocity=0 time=0
EXTRACT: note_on channel=3 note=66 velocity=0 time=0
EXTRACT: note_on channel=4 note=47 velocity=0 time=0
EXTRACT: note_on channel=5 note=40 velocity=0 time=0
EXTRACT: note_on channel=6 note=60 velocity=0 time=0
EXTRACT: note_on channel=9 note=35 velocity=0 time=0
EXTRACT: note_on channel=9 note=36 velocity=0 time=0
EXTRACT: note_on channel=9 note=42 velocity=0 time=0
EXTRACT: note_on channel=2 note=63 velocity=60 time=0.007440468749999999
EXTRACT: note_on channel=2 note=66 velocity=60 time=0
EXTRACT: note_on channel=3 note=66 velocity=110 time=0
EXTRACT: note_on channel=4 note=47 velocity=110 time=0
EXTRACT: note_on channel=5 note=40 velocity=110 time=0
EXTRACT: note_on channel=6 note=60 velocity=110 time=0
EXTRACT: note_on channel=9 note=35 velocity=110 time=0
EXTRACT: note_on channel=9 note=36 velocity=110 time=0
EXTRACT: note_on channel=9 note=42 velocity=110 time=0
EXTRACT: note_on channel=2 note=63 velocity=0 time=0.17113078124999997
EXTRACT: note_on channel=2 note=66 velocity=0 time=0
EXTRACT: note_on channel=3 note=66 velocity=0 time=0
EXTRACT: note_on channel=4 note=47 velocity=0 time=0
EXTRACT: note_on channel=5 note=40 velocity=0 time=0
EXTRACT: note_on channel=6 note=60 velocity=0 time=0
EXTRACT: note_on channel=9 note=35 velocity=0 time=0
EXTRACT: note_on channel=9 note=36 velocity=0 time=0
EXTRACT: note_on channel=9 note=42 velocity=0 time=0
EXTRACT: note_on channel=2 note=63 velocity=60 time=0.007440468749999999
EXTRACT: note_on channel=2 note=66 velocity=60 time=0
EXTRACT: note_on channel=3 note=66 velocity=110 time=0
EXTRACT: note_on channel=4 note=47 velocity=110 time=0
EXTRACT: note_on channel=5 note=40 velocity=110 time=0
EXTRACT: note_on channel=6 note=60 velocity=110 time=0
EXTRACT: note_on channel=9 note=38 velocity=110 time=0
EXTRACT: note_on channel=9 note=42 velocity=110 time=0
EXTRACT: note_on channel=4 note=47 velocity=0 time=0.17113078124999997
EXTRACT: note_on channel=5 note=40 velocity=0 time=0
EXTRACT: note_on channel=6 note=60 velocity=0 time=0
EXTRACT: note_on channel=9 note=38 velocity=0 time=0
EXTRACT: note_on channel=9 note=42 velocity=0 time=0
EXTRACT: note_on channel=4 note=47 velocity=110 time=0.007440468749999999
EXTRACT: note_on channel=6 note=60 velocity=110 time=0
EXTRACT: note_on channel=9 note=42 velocity=110 time=0
EXTRACT: note_on channel=9 note=55 velocity=0 time=0.05952374999999999
EXTRACT: note_on channel=2 note=63 velocity=0 time=0.11160703124999999
EXTRACT: note_on channel=2 note=66 velocity=0 time=0
EXTRACT: note_on channel=3 note=66 velocity=0 time=0
EXTRACT: note_on channel=4 note=47 velocity=0 time=0
EXTRACT: note_on channel=6 note=60 velocity=0 time=0
EXTRACT: note_on channel=9 note=42 velocity=0 time=0
EXTRACT: note_on channel=2 note=60 velocity=60 time=0.007440468749999999
EXTRACT: note_on channel=2 note=64 velocity=60 time=0
EXTRACT: note_on channel=3 note=64 velocity=110 time=0
EXTRACT: note_on channel=4 note=48 velocity=110 time=0
EXTRACT: note_on channel=5 note=35 velocity=110 time=0
EXTRACT: note_on channel=6 note=60 velocity=110 time=0
EXTRACT: note_on channel=9 note=35 velocity=110 time=0
EXTRACT: note_on channel=9 note=36 velocity=110 time=0
EXTRACT: note_on channel=9 note=42 velocity=110 time=0
EXTRACT: note_on channel=4 note=48 velocity=0 time=0.17113078124999997
EXTRACT: note_on channel=5 note=35 velocity=0 time=0
EXTRACT: note_on channel=6 note=60 velocity=0 time=0
EXTRACT: note_on channel=9 note=35 velocity=0 time=0
EXTRACT: note_on channel=9 note=36 velocity=0 time=0
EXTRACT: note_on channel=9 note=42 velocity=0 time=0
EXTRACT: note_on channel=4 note=48 velocity=110 time=0.007440468749999999
EXTRACT: note_on channel=5 note=35 velocity=110 time=0
EXTRACT: note_on channel=6 note=60 velocity=110 time=0
EXTRACT: note_on channel=9 note=42 velocity=110 time=0
EXTRACT: note_on channel=2 note=60 velocity=0 time=0.17113078124999997
EXTRACT: note_on channel=2 note=64 velocity=0 time=0
EXTRACT: note_on channel=3 note=64 velocity=0 time=0
EXTRACT: note_on channel=4 note=48 velocity=0 time=0
EXTRACT: note_on channel=5 note=35 velocity=0 time=0
EXTRACT: note_on channel=6 note=60 velocity=0 time=0
EXTRACT: note_on channel=9 note=42 velocity=0 time=0
EXTRACT: note_on channel=2 note=60 velocity=60 time=0.007440468749999999
EXTRACT: note_on channel=2 note=64 velocity=60 time=0
EXTRACT: note_on channel=3 note=64 velocity=110 time=0
EXTRACT: note_on channel=4 note=48 velocity=110 time=0
EXTRACT: note_on channel=5 note=35 velocity=110 time=0
EXTRACT: note_on channel=6 note=60 velocity=110 time=0
EXTRACT: note_on channel=9 note=38 velocity=110 time=0
EXTRACT: note_on channel=9 note=42 velocity=110 time=0
EXTRACT: note_on channel=2 note=60 velocity=0 time=0.17113078124999997
EXTRACT: note_on channel=2 note=64 velocity=0 time=0
EXTRACT: note_on channel=3 note=64 velocity=0 time=0
EXTRACT: note_on channel=5 note=35 velocity=0 time=0
EXTRACT: note_on channel=6 note=60 velocity=0 time=0
EXTRACT: note_on channel=9 note=38 velocity=0 time=0
EXTRACT: note_on channel=9 note=42 velocity=0 time=0
EXTRACT: note_on channel=2 note=60 velocity=60 time=0.007440468749999999
EXTRACT: note_on channel=2 note=64 velocity=60 time=0
EXTRACT: note_on channel=3 note=64 velocity=110 time=0
EXTRACT: note_on channel=6 note=60 velocity=110 time=0
EXTRACT: note_on channel=9 note=42 velocity=110 time=0
EXTRACT: note_on channel=4 note=48 velocity=0 time=0.17113078124999997
EXTRACT: note_on channel=6 note=60 velocity=0 time=0
EXTRACT: note_on channel=9 note=42 velocity=0 time=0
EXTRACT: note_on channel=4 note=48 velocity=110 time=0.007440468749999999
EXTRACT: note_on channel=5 note=35 velocity=110 time=0
EXTRACT: note_on channel=6 note=60 velocity=110 time=0
EXTRACT: note_on channel=9 note=55 velocity=110 time=0
EXTRACT: note_on channel=9 note=35 velocity=110 time=0
EXTRACT: note_on channel=9 note=36 velocity=110 time=0
EXTRACT: note_on channel=9 note=42 velocity=110 time=0
EXTRACT: note_on channel=2 note=60 velocity=0 time=0.17113078124999997
EXTRACT: note_on channel=2 note=64 velocity=0 time=0
EXTRACT: note_on channel=3 note=64 velocity=0 time=0
EXTRACT: note_on channel=4 note=48 velocity=0 time=0
EXTRACT: note_on channel=5 note=35 velocity=0 time=0
EXTRACT: note_on channel=6 note=60 velocity=0 time=0
EXTRACT: note_on channel=9 note=35 velocity=0 time=0
EXTRACT: note_on channel=9 note=36 velocity=0 time=0
EXTRACT: note_on channel=9 note=42 velocity=0 time=0
EXTRACT: note_on channel=2 note=60 velocity=60 time=0.007440468749999999
EXTRACT: note_on channel=2 note=64 velocity=60 time=0
EXTRACT: note_on channel=3 note=64 velocity=110 time=0
EXTRACT: note_on channel=4 note=48 velocity=110 time=0
EXTRACT: note_on channel=5 note=35 velocity=110 time=0
EXTRACT: note_on channel=6 note=60 velocity=110 time=0
EXTRACT: note_on channel=9 note=35 velocity=110 time=0
EXTRACT: note_on channel=9 note=36 velocity=110 time=0
EXTRACT: note_on channel=9 note=42 velocity=110 time=0
EXTRACT: note_on channel=2 note=60 velocity=0 time=0.17113078124999997
EXTRACT: note_on channel=2 note=64 velocity=0 time=0
EXTRACT: note_on channel=3 note=64 velocity=0 time=0
EXTRACT: note_on channel=4 note=48 velocity=0 time=0
EXTRACT: note_on channel=5 note=35 velocity=0 time=0
EXTRACT: note_on channel=6 note=60 velocity=0 time=0
EXTRACT: note_on channel=9 note=35 velocity=0 time=0
EXTRACT: note_on channel=9 note=36 velocity=0 time=0
EXTRACT: note_on channel=9 note=42 velocity=0 time=0
EXTRACT: note_on channel=2 note=59 velocity=60 time=0.007440468749999999
EXTRACT: note_on channel=2 note=63 velocity=60 time=0
EXTRACT: note_on channel=3 note=62 velocity=110 time=0
EXTRACT: note_on channel=4 note=48 velocity=110 time=0
EXTRACT: note_on channel=5 note=35 velocity=110 time=0
EXTRACT: note_on channel=6 note=60 velocity=110 time=0
EXTRACT: note_on channel=9 note=38 velocity=110 time=0
EXTRACT: note_on channel=9 note=42 velocity=110 time=0
EXTRACT: note_on channel=5 note=35 velocity=0 time=0.17113078124999997
EXTRACT: note_on channel=6 note=60 velocity=0 time=0
EXTRACT: note_on channel=9 note=38 velocity=0 time=0
EXTRACT: note_on channel=9 note=42 velocity=0 time=0
EXTRACT: note_on channel=6 note=60 velocity=110 time=0.007440468749999999
EXTRACT: note_on channel=9 note=42 velocity=110 time=0
EXTRACT: note_on channel=9 note=55 velocity=0 time=0.05952374999999999
EXTRACT: note_on channel=2 note=59 velocity=0 time=0.11160703124999999
EXTRACT: note_on channel=2 note=63 velocity=0 time=0
EXTRACT: note_on channel=3 note=62 velocity=0 time=0
EXTRACT: note_on channel=4 note=48 velocity=0 time=0
EXTRACT: note_on channel=6 note=60 velocity=0 time=0
EXTRACT: note_on channel=9 note=42 velocity=0 time=0
EXTRACT: note_on channel=4 note=40 velocity=110 time=0.007440468749999999
EXTRACT: note_on channel=5 note=40 velocity=110 time=0
EXTRACT: note_on channel=6 note=60 velocity=110 time=0
EXTRACT: note_on channel=9 note=35 velocity=110 time=0
EXTRACT: note_on channel=9 note=36 velocity=110 time=0
EXTRACT: note_on channel=9 note=42 velocity=110 time=0
EXTRACT: note_on channel=4 note=40 velocity=0 time=0.17113078124999997
EXTRACT: note_on channel=5 note=40 velocity=0 time=0
EXTRACT: note_on channel=6 note=60 velocity=0 time=0
EXTRACT: note_on channel=9 note=35 velocity=0 time=0
EXTRACT: note_on channel=9 note=36 velocity=0 time=0
EXTRACT: note_on channel=9 note=42 velocity=0 time=0
EXTRACT: note_on channel=4 note=40 velocity=110 time=0.007440468749999999
EXTRACT: note_on channel=5 note=40 velocity=110 time=0
EXTRACT: note_on channel=6 note=60 velocity=110 time=0
EXTRACT: note_on channel=9 note=42 velocity=110 time=0
EXTRACT: note_on channel=4 note=40 velocity=0 time=0.17113078124999997
EXTRACT: note_on channel=5 note=40 velocity=0 time=0
EXTRACT: note_on channel=6 note=60 velocity=0 time=0
EXTRACT: note_on channel=9 note=42 velocity=0 time=0
EXTRACT: note_on channel=4 note=40 velocity=110 time=0.007440468749999999
EXTRACT: note_on channel=5 note=40 velocity=110 time=0
EXTRACT: note_on channel=6 note=60 velocity=110 time=0
EXTRACT: note_on channel=9 note=38 velocity=110 time=0
EXTRACT: note_on channel=9 note=42 velocity=110 time=0
EXTRACT: note_on channel=4 note=40 velocity=0 time=0.17113078124999997
EXTRACT: note_on channel=5 note=40 velocity=0 time=0
EXTRACT: note_on channel=6 note=60 velocity=0 time=0
EXTRACT: note_on channel=9 note=38 velocity=0 time=0
EXTRACT: note_on channel=9 note=42 velocity=0 time=0
EXTRACT: note_on channel=4 note=40 velocity=110 time=0.007440468749999999
EXTRACT: note_on channel=5 note=40 velocity=110 time=0
EXTRACT: note_on channel=6 note=60 velocity=110 time=0
EXTRACT: note_on channel=9 note=42 velocity=110 time=0
EXTRACT: note_on channel=4 note=40 velocity=0 time=0.17113078124999997
EXTRACT: note_on channel=5 note=40 velocity=0 time=0
EXTRACT: note_on channel=6 note=60 velocity=0 time=0
EXTRACT: note_on channel=9 note=42 velocity=0 time=0
EXTRACT: note_on channel=4 note=48 velocity=110 time=0.007440468749999999
EXTRACT: note_on channel=5 note=40 velocity=110 time=0
EXTRACT: note_on channel=6 note=60 velocity=110 time=0
EXTRACT: note_on channel=9 note=55 velocity=110 time=0
EXTRACT: note_on channel=9 note=35 velocity=110 time=0
EXTRACT: note_on channel=9 note=36 velocity=110 time=0
EXTRACT: note_on channel=9 note=42 velocity=110 time=0
EXTRACT: note_on channel=4 note=48 velocity=0 time=0.17113078124999997
EXTRACT: note_on channel=5 note=40 velocity=0 time=0
EXTRACT: note_on channel=6 note=60 velocity=0 time=0
EXTRACT: note_on channel=9 note=35 velocity=0 time=0
EXTRACT: note_on channel=9 note=36 velocity=0 time=0
EXTRACT: note_on channel=9 note=42 velocity=0 time=0
EXTRACT: note_on channel=4 note=48 velocity=110 time=0.007440468749999999
EXTRACT: note_on channel=5 note=40 velocity=110 time=0
EXTRACT: note_on channel=6 note=60 velocity=110 time=0
EXTRACT: note_on channel=9 note=35 velocity=110 time=0
EXTRACT: note_on channel=9 note=36 velocity=110 time=0
EXTRACT: note_on channel=9 note=42 velocity=110 time=0
EXTRACT: note_on channel=4 note=48 velocity=0 time=0.17113078124999997
EXTRACT: note_on channel=5 note=40 velocity=0 time=0
EXTRACT: note_on channel=6 note=60 velocity=0 time=0
EXTRACT: note_on channel=9 note=35 velocity=0 time=0
EXTRACT: note_on channel=9 note=36 velocity=0 time=0
EXTRACT: note_on channel=9 note=42 velocity=0 time=0
EXTRACT: note_on channel=4 note=48 velocity=110 time=0.007440468749999999
EXTRACT: note_on channel=5 note=40 velocity=110 time=0
EXTRACT: note_on channel=6 note=60 velocity=110 time=0
EXTRACT: note_on channel=9 note=38 velocity=110 time=0
EXTRACT: note_on channel=9 note=42 velocity=110 time=0
EXTRACT: note_on channel=4 note=48 velocity=0 time=0.17113078124999997
EXTRACT: note_on channel=5 note=40 velocity=0 time=0
EXTRACT: note_on channel=6 note=60 velocity=0 time=0
EXTRACT: note_on channel=9 note=38 velocity=0 time=0
EXTRACT: note_on channel=9 note=42 velocity=0 time=0
EXTRACT: note_on channel=4 note=48 velocity=110 time=0.007440468749999999
EXTRACT: note_on channel=5 note=40 velocity=110 time=0
EXTRACT: note_on channel=6 note=60 velocity=110 time=0
EXTRACT: note_on channel=9 note=42 velocity=110 time=0
EXTRACT: note_on channel=9 note=55 velocity=0 time=0.05952374999999999
EXTRACT: note_on channel=4 note=48 velocity=0 time=0.11160703124999999
EXTRACT: note_on channel=5 note=40 velocity=0 time=0
EXTRACT: note_on channel=6 note=60 velocity=0 time=0
EXTRACT: note_on channel=9 note=42 velocity=0 time=0
EXTRACT: note_on channel=4 note=47 velocity=110 time=0.007440468749999999
EXTRACT: note_on channel=5 note=39 velocity=110 time=0
EXTRACT: note_on channel=6 note=60 velocity=110 time=0
EXTRACT: note_on channel=9 note=35 velocity=110 time=0
EXTRACT: note_on channel=9 note=36 velocity=110 time=0
EXTRACT: note_on channel=9 note=42 velocity=110 time=0
EXTRACT: note_on channel=5 note=39 velocity=0 time=0.17113078124999997
EXTRACT: note_on channel=6 note=60 velocity=0 time=0
EXTRACT: note_on channel=9 note=35 velocity=0 time=0
EXTRACT: note_on channel=9 note=36 velocity=0 time=0
EXTRACT: note_on channel=9 note=42 velocity=0 time=0
EXTRACT: note_on channel=5 note=39 velocity=110 time=0.007440468749999999
EXTRACT: note_on channel=6 note=60 velocity=110 time=0
EXTRACT: note_on channel=9 note=42 velocity=110 time=0
EXTRACT: note_on channel=5 note=39 velocity=0 time=0.17113078124999997
EXTRACT: note_on channel=6 note=60 velocity=0 time=0
EXTRACT: note_on channel=9 note=42 velocity=0 time=0
EXTRACT: note_on channel=3 note=64 velocity=110 time=0.007440468749999999
EXTRACT: note_on channel=3 note=67 velocity=110 time=0
EXTRACT: note_on channel=5 note=39 velocity=110 time=0
EXTRACT: note_on channel=6 note=60 velocity=110 time=0
EXTRACT: note_on channel=9 note=38 velocity=110 time=0
EXTRACT: note_on channel=9 note=42 velocity=110 time=0
EXTRACT: note_on channel=5 note=39 velocity=0 time=0.17113078124999997
EXTRACT: note_on channel=6 note=60 velocity=0 time=0
EXTRACT: note_on channel=9 note=38 velocity=0 time=0
EXTRACT: note_on channel=9 note=42 velocity=0 time=0
EXTRACT: note_on channel=5 note=39 velocity=110 time=0.007440468749999999
EXTRACT: note_on channel=6 note=60 velocity=110 time=0
EXTRACT: note_on channel=9 note=42 velocity=110 time=0
EXTRACT: note_on channel=3 note=64 velocity=0 time=0.17113078124999997
EXTRACT: note_on channel=3 note=67 velocity=0 time=0
EXTRACT: note_on channel=5 note=39 velocity=0 time=0
EXTRACT: note_on channel=6 note=60 velocity=0 time=0
EXTRACT: note_on channel=9 note=42 velocity=0 time=0
EXTRACT: note_on channel=3 note=63 velocity=110 time=0.007440468749999999
EXTRACT: note_on channel=3 note=66 velocity=110 time=0
EXTRACT: note_on channel=5 note=39 velocity=110 time=0
EXTRACT: note_on channel=6 note=60 velocity=110 time=0
EXTRACT: note_on channel=9 note=55 velocity=110 time=0
EXTRACT: note_on channel=9 note=35 velocity=110 time=0
EXTRACT: note_on channel=9 note=36 velocity=110 time=0
EXTRACT: note_on channel=9 note=42 velocity=110 time=0
EXTRACT: note_on channel=5 note=39 velocity=0 time=0.17113078124999997
EXTRACT: note_on channel=6 note=60 velocity=0 time=0
EXTRACT: note_on channel=9 note=35 velocity=0 time=0
EXTRACT: note_on channel=9 note=36 velocity=0 time=0
EXTRACT: note_on channel=9 note=42 velocity=0 time=0
EXTRACT: note_on channel=5 note=39 velocity=110 time=0.007440468749999999
EXTRACT: note_on channel=6 note=60 velocity=110 time=0
EXTRACT: note_on channel=9 note=35 velocity=110 time=0
EXTRACT: note_on channel=9 note=36 velocity=110 time=0
EXTRACT: note_on channel=9 note=42 velocity=110 time=0
EXTRACT: note_on channel=3 note=63 velocity=0 time=0.17113078124999997
EXTRACT: note_on channel=3 note=66 velocity=0 time=0
EXTRACT: note_on channel=5 note=39 velocity=0 time=0
EXTRACT: note_on channel=6 note=60 velocity=0 time=0
EXTRACT: note_on channel=9 note=35 velocity=0 time=0
EXTRACT: note_on channel=9 note=36 velocity=0 time=0
EXTRACT: note_on channel=9 note=42 velocity=0 time=0
EXTRACT: note_on channel=5 note=39 velocity=110 time=0.007440468749999999
EXTRACT: note_on channel=6 note=60 velocity=110 time=0
EXTRACT: note_on channel=9 note=38 velocity=110 time=0
EXTRACT: note_on channel=9 note=42 velocity=110 time=0
EXTRACT: note_on channel=5 note=39 velocity=0 time=0.17113078124999997
EXTRACT: note_on channel=6 note=60 velocity=0 time=0
EXTRACT: note_on channel=9 note=38 velocity=0 time=0
EXTRACT: note_on channel=9 note=42 velocity=0 time=0
EXTRACT: note_on channel=4 note=47 velocity=0 time=0.007440468749999999
EXTRACT: note_on channel=6 note=60 velocity=110 time=0
EXTRACT: note_on channel=9 note=42 velocity=110 time=0
EXTRACT: note_on channel=9 note=55 velocity=0 time=0.05952374999999999
EXTRACT: note_on channel=6 note=60 velocity=0 time=0.11160703124999999
EXTRACT: note_on channel=9 note=42 velocity=0 time=0
EXTRACT: note_on channel=2 note=64 velocity=60 time=0.007440468749999999
EXTRACT: note_on channel=2 note=67 velocity=60 time=0
EXTRACT: note_on channel=3 note=67 velocity=110 time=0
EXTRACT: note_on channel=4 note=40 velocity=110 time=0
EXTRACT: note_on channel=5 note=40 velocity=110 time=0
EXTRACT: note_on channel=6 note=60 velocity=110 time=0
EXTRACT: note_on channel=9 note=35 velocity=110 time=0
EXTRACT: note_on channel=9 note=36 velocity=110 time=0
EXTRACT: note_on channel=9 note=42 velocity=110 time=0
EXTRACT: note_on channel=2 note=64 velocity=0 time=0.17113078124999997
EXTRACT: note_on channel=2 note=67 velocity=0 time=0
EXTRACT: note_on channel=3 note=67 velocity=0 time=0
EXTRACT: note_on channel=4 note=40 velocity=0 time=0
EXTRACT: note_on channel=5 note=40 velocity=0 time=0
EXTRACT: note_on channel=6 note=60 velocity=0 time=0
EXTRACT: note_on channel=9 note=35 velocity=0 time=0
EXTRACT: note_on channel=9 note=36 velocity=0 time=0
EXTRACT: note_on channel=9 note=42 velocity=0 time=0
EXTRACT: note_on channel=2 note=64 velocity=60 time=0.007440468749999999
EXTRACT: note_on channel=2 note=67 velocity=60 time=0
EXTRACT: note_on channel=3 note=67 velocity=110 time=0
EXTRACT: note_on channel=4 note=40 velocity=110 time=0
EXTRACT: note_on channel=5 note=40 velocity=110 time=0
EXTRACT: note_on channel=6 note=60 velocity=110 time=0
EXTRACT: note_on channel=9 note=42 velocity=110 time=0
EXTRACT: note_on channel=2 note=64 velocity=0 time=0.17113078124999997
EXTRACT: note_on channel=2 note=67 velocity=0 time=0
EXTRACT: note_on channel=3 note=67 velocity=0 time=0
EXTRACT: note_on channel=4 note=40 velocity=0 time=0
EXTRACT: note_on channel=5 note=40 velocity=0 time=0
EXTRACT: note_on channel=6 note=60 velocity=0 time=0
EXTRACT: note_on channel=9 note=42 velocity=0 time=0
EXTRACT: note_on channel=2 note=64 velocity=60 time=0.007440468749999999
EXTRACT: note_on channel=2 note=67 velocity=60 time=0
EXTRACT: note_on channel=3 note=67 velocity=110 time=0
EXTRACT: note_on channel=4 note=40 velocity=110 time=0
EXTRACT: note_on channel=5 note=40 velocity=110 time=0
EXTRACT: note_on channel=6 note=60 velocity=110 time=0
EXTRACT: note_on channel=9 note=38 velocity=110 time=0
EXTRACT: note_on channel=9 note=42 velocity=110 time=0
EXTRACT: note_on channel=2 note=64 velocity=0 time=0.17113078124999997
EXTRACT: note_on channel=2 note=67 velocity=0 time=0
EXTRACT: note_on channel=3 note=67 velocity=0 time=0
EXTRACT: note_on channel=4 note=40 velocity=0 time=0
EXTRACT: note_on channel=5 note=40 velocity=0 time=0
EXTRACT: note_on channel=6 note=60 velocity=0 time=0
EXTRACT: note_on channel=9 note=38 velocity=0 time=0
EXTRACT: note_on channel=9 note=42 velocity=0 time=0
EXTRACT: note_on channel=2 note=64 velocity=60 time=0.007440468749999999
EXTRACT: note_on channel=2 note=67 velocity=60 time=0
EXTRACT: note_on channel=3 note=67 velocity=110 time=0
EXTRACT: note_on channel=4 note=40 velocity=110 time=0
EXTRACT: note_on channel=6 note=60 velocity=110 time=0
EXTRACT: note_on channel=9 note=42 velocity=110 time=0
EXTRACT: note_on channel=2 note=64 velocity=0 time=0.17113078124999997
EXTRACT: note_on channel=2 note=67 velocity=0 time=0
EXTRACT: note_on channel=3 note=67 velocity=0 time=0
EXTRACT: note_on channel=4 note=40 velocity=0 time=0
EXTRACT: note_on channel=6 note=60 velocity=0 time=0
EXTRACT: note_on channel=9 note=42 velocity=0 time=0
EXTRACT: note_on channel=2 note=63 velocity=60 time=0.007440468749999999
EXTRACT: note_on channel=2 note=66 velocity=60 time=0
EXTRACT: note_on channel=3 note=66 velocity=110 time=0
EXTRACT: note_on channel=4 note=47 velocity=110 time=0
EXTRACT: note_on channel=5 note=40 velocity=110 time=0
EXTRACT: note_on channel=6 note=60 velocity=110 time=0
EXTRACT: note_on channel=9 note=55 velocity=110 time=0
EXTRACT: note_on channel=9 note=35 velocity=110 time=0
EXTRACT: note_on channel=9 note=36 velocity=110 time=0
EXTRACT: note_on channel=9 note=42 velocity=110 time=0
EXTRACT: note_on channel=2 note=63 velocity=0 time=0.17113078124999997
EXTRACT: note_on channel=2 note=66 velocity=0 time=0
EXTRACT: note_on channel=3 note=66 velocity=0 time=0
EXTRACT: note_on channel=4 note=47 velocity=0 time=0
EXTRACT: note_on channel=5 note=40 velocity=0 time=0
EXTRACT: note_on channel=6 note=60 velocity=0 time=0
EXTRACT: note_on channel=9 note=35 velocity=0 time=0
EXTRACT: note_on channel=9 note=36 velocity=0 time=0
EXTRACT: note_on channel=9 note=42 velocity=0 time=0
EXTRACT: note_on channel=2 note=63 velocity=60 time=0.007440468749999999
EXTRACT: note_on channel=2 note=66 velocity=60 time=0
EXTRACT: note_on channel=3 note=66 velocity=110 time=0
EXTRACT: note_on channel=4 note=47 velocity=110 time=0
EXTRACT: note_on channel=5 note=40 velocity=110 time=0
EXTRACT: note_on channel=6 note=60 velocity=110 time=0
EXTRACT: note_on channel=9 note=35 velocity=110 time=0
EXTRACT: note_on channel=9 note=36 velocity=110 time=0
EXTRACT: note_on channel=9 note=42 velocity=110 time=0
EXTRACT: note_on channel=2 note=63 velocity=0 time=0.17113078124999997
EXTRACT: note_on channel=2 note=66 velocity=0 time=0
EXTRACT: note_on channel=3 note=66 velocity=0 time=0
EXTRACT: note_on channel=4 note=47 velocity=0 time=0
EXTRACT: note_on channel=5 note=40 velocity=0 time=0
EXTRACT: note_on channel=6 note=60 velocity=0 time=0
EXTRACT: note_on channel=9 note=35 velocity=0 time=0
EXTRACT: note_on channel=9 note=36 velocity=0 time=0
EXTRACT: note_on channel=9 note=42 velocity=0 time=0
EXTRACT: note_on channel=2 note=63 velocity=60 time=0.007440468749999999
EXTRACT: note_on channel=2 note=66 velocity=60 time=0
EXTRACT: note_on channel=3 note=66 velocity=110 time=0
EXTRACT: note_on channel=4 note=47 velocity=110 time=0
EXTRACT: note_on channel=5 note=40 velocity=110 time=0
EXTRACT: note_on channel=6 note=60 velocity=110 time=0
EXTRACT: note_on channel=9 note=38 velocity=110 time=0
EXTRACT: note_on channel=9 note=42 velocity=110 time=0
EXTRACT: note_on channel=4 note=47 velocity=0 time=0.17113078124999997
EXTRACT: note_on channel=5 note=40 velocity=0 time=0
EXTRACT: note_on channel=6 note=60 velocity=0 time=0
EXTRACT: note_on channel=9 note=38 velocity=0 time=0
EXTRACT: note_on channel=9 note=42 velocity=0 time=0
EXTRACT: note_on channel=4 note=47 velocity=110 time=0.007440468749999999
EXTRACT: note_on channel=6 note=60 velocity=110 time=0
EXTRACT: note_on channel=9 note=42 velocity=110 time=0
EXTRACT: note_on channel=9 note=55 velocity=0 time=0.05952374999999999
EXTRACT: note_on channel=2 note=63 velocity=0 time=0.11160703124999999
EXTRACT: note_on channel=2 note=66 velocity=0 time=0
EXTRACT: note_on channel=3 note=66 velocity=0 time=0
EXTRACT: note_on channel=4 note=47 velocity=0 time=0
EXTRACT: note_on channel=6 note=60 velocity=0 time=0
EXTRACT: note_on channel=9 note=42 velocity=0 time=0
EXTRACT: note_on channel=2 note=60 velocity=60 time=0.007440468749999999
EXTRACT: note_on channel=2 note=64 velocity=60 time=0
EXTRACT: note_on channel=3 note=64 velocity=110 time=0
EXTRACT: note_on channel=4 note=48 velocity=110 time=0
EXTRACT: note_on channel=5 note=35 velocity=110 time=0
EXTRACT: note_on channel=6 note=60 velocity=110 time=0
EXTRACT: note_on channel=9 note=35 velocity=110 time=0
EXTRACT: note_on channel=9 note=36 velocity=110 time=0
EXTRACT: note_on channel=9 note=42 velocity=110 time=0
EXTRACT: note_on channel=2 note=60 velocity=0 time=0.17113078124999997
EXTRACT: note_on channel=2 note=64 velocity=0 time=0
EXTRACT: note_on channel=3 note=64 velocity=0 time=0
EXTRACT: note_on channel=4 note=48 velocity=0 time=0
EXTRACT: note_on channel=5 note=35 velocity=0 time=0
EXTRACT: note_on channel=6 note=60 velocity=0 time=0
EXTRACT: note_on channel=9 note=35 velocity=0 time=0
EXTRACT: note_on channel=9 note=36 velocity=0 time=0
EXTRACT: note_on channel=9 note=42 velocity=0 time=0
EXTRACT: note_on channel=2 note=60 velocity=60 time=0.007440468749999999
EXTRACT: note_on channel=2 note=64 velocity=60 time=0
EXTRACT: note_on channel=3 note=64 velocity=110 time=0
EXTRACT: note_on channel=4 note=48 velocity=110 time=0
EXTRACT: note_on channel=5 note=35 velocity=110 time=0
EXTRACT: note_on channel=6 note=60 velocity=110 time=0
EXTRACT: note_on channel=9 note=42 velocity=110 time=0
EXTRACT: note_on channel=2 note=60 velocity=0 time=0.17113078124999997
EXTRACT: note_on channel=2 note=64 velocity=0 time=0
EXTRACT: note_on channel=3 note=64 velocity=0 time=0
EXTRACT: note_on channel=4 note=48 velocity=0 time=0
EXTRACT: note_on channel=5 note=35 velocity=0 time=0
EXTRACT: note_on channel=6 note=60 velocity=0 time=0
EXTRACT: note_on channel=9 note=42 velocity=0 time=0
EXTRACT: note_on channel=2 note=60 velocity=60 time=0.007440468749999999
EXTRACT: note_on channel=2 note=64 velocity=60 time=0
EXTRACT: note_on channel=3 note=64 velocity=110 time=0
EXTRACT: note_on channel=4 note=48 velocity=110 time=0
EXTRACT: note_on channel=5 note=35 velocity=110 time=0
EXTRACT: note_on channel=6 note=60 velocity=110 time=0
EXTRACT: note_on channel=9 note=38 velocity=110 time=0
EXTRACT: note_on channel=9 note=42 velocity=110 time=0
EXTRACT: note_on channel=5 note=35 velocity=0 time=0.17113078124999997
EXTRACT: note_on channel=6 note=60 velocity=0 time=0
EXTRACT: note_on channel=9 note=38 velocity=0 time=0
EXTRACT: note_on channel=9 note=42 velocity=0 time=0
EXTRACT: note_on channel=6 note=60 velocity=110 time=0.007440468749999999
EXTRACT: note_on channel=9 note=42 velocity=110 time=0
EXTRACT: note_on channel=2 note=60 velocity=0 time=0.17113078124999997
EXTRACT: note_on channel=2 note=64 velocity=0 time=0
EXTRACT: note_on channel=3 note=64 velocity=0 time=0
EXTRACT: note_on channel=4 note=48 velocity=0 time=0
EXTRACT: note_on channel=6 note=60 velocity=0 time=0
EXTRACT: note_on channel=9 note=42 velocity=0 time=0
EXTRACT: note_on channel=2 note=60 velocity=60 time=0.007440468749999999
EXTRACT: note_on channel=2 note=64 velocity=60 time=0
EXTRACT: note_on channel=3 note=64 velocity=110 time=0
EXTRACT: note_on channel=4 note=48 velocity=110 time=0
EXTRACT: note_on channel=5 note=35 velocity=110 time=0
EXTRACT: note_on channel=6 note=60 velocity=110 time=0
EXTRACT: note_on channel=9 note=55 velocity=110 time=0
EXTRACT: note_on channel=9 note=35 velocity=110 time=0
EXTRACT: note_on channel=9 note=36 velocity=110 time=0
EXTRACT: note_on channel=9 note=42 velocity=110 time=0
EXTRACT: note_on channel=4 note=48 velocity=0 time=0.17113078124999997
EXTRACT: note_on channel=5 note=35 velocity=0 time=0
EXTRACT: note_on channel=6 note=60 velocity=0 time=0
EXTRACT: note_on channel=9 note=35 velocity=0 time=0
EXTRACT: note_on channel=9 note=36 velocity=0 time=0
EXTRACT: note_on channel=9 note=42 velocity=0 time=0
EXTRACT: note_on channel=4 note=48 velocity=110 time=0.007440468749999999
EXTRACT: note_on channel=5 note=35 velocity=110 time=0
EXTRACT: note_on channel=6 note=60 velocity=110 time=0
EXTRACT: note_on channel=9 note=35 velocity=110 time=0
EXTRACT: note_on channel=9 note=36 velocity=110 time=0
EXTRACT: note_on channel=9 note=42 velocity=110 time=0
EXTRACT: note_on channel=2 note=60 velocity=0 time=0.17113078124999997
EXTRACT: note_on channel=2 note=64 velocity=0 time=0
EXTRACT: note_on channel=3 note=64 velocity=0 time=0
EXTRACT: note_on channel=4 note=48 velocity=0 time=0
EXTRACT: note_on channel=5 note=35 velocity=0 time=0
EXTRACT: note_on channel=6 note=60 velocity=0 time=0
EXTRACT: note_on channel=9 note=35 velocity=0 time=0
EXTRACT: note_on channel=9 note=36 velocity=0 time=0
EXTRACT: note_on channel=9 note=42 velocity=0 time=0
EXTRACT: note_on channel=2 note=59 velocity=60 time=0.007440468749999999
EXTRACT: note_on channel=2 note=63 velocity=60 time=0
EXTRACT: note_on channel=3 note=62 velocity=110 time=0
EXTRACT: note_on channel=4 note=48 velocity=110 time=0
EXTRACT: note_on channel=5 note=35 velocity=110 time=0
EXTRACT: note_on channel=6 note=60 velocity=110 time=0
EXTRACT: note_on channel=9 note=38 velocity=110 time=0
EXTRACT: note_on channel=9 note=42 velocity=110 time=0
EXTRACT: note_on channel=5 note=35 velocity=0 time=0.17113078124999997
EXTRACT: note_on channel=6 note=60 velocity=0 time=0
EXTRACT: note_on channel=9 note=38 velocity=0 time=0
EXTRACT: note_on channel=9 note=42 velocity=0 time=0
EXTRACT: note_on channel=6 note=60 velocity=110 time=0.007440468749999999
EXTRACT: note_on channel=9 note=42 velocity=110 time=0
EXTRACT: note_on channel=9 note=55 velocity=0 time=0.05952374999999999
EXTRACT: note_on channel=2 note=59 velocity=0 time=0.11160703124999999
EXTRACT: note_on channel=2 note=63 velocity=0 time=0
EXTRACT: note_on channel=3 note=62 velocity=0 time=0
EXTRACT: note_on channel=4 note=48 velocity=0 time=0
EXTRACT: note_on channel=6 note=60 velocity=0 time=0
EXTRACT: note_on channel=9 note=42 velocity=0 time=0
EXTRACT: note_on channel=4 note=40 velocity=110 time=0.007440468749999999
EXTRACT: note_on channel=5 note=40 velocity=110 time=0
EXTRACT: note_on channel=6 note=60 velocity=110 time=0
EXTRACT: note_on channel=9 note=35 velocity=110 time=0
EXTRACT: note_on channel=9 note=36 velocity=110 time=0
EXTRACT: note_on channel=9 note=42 velocity=110 time=0
EXTRACT: note_on channel=4 note=40 velocity=0 time=0.17113078124999997
EXTRACT: note_on channel=5 note=40 velocity=0 time=0
EXTRACT: note_on channel=6 note=60 velocity=0 time=0
EXTRACT: note_on channel=9 note=35 velocity=0 time=0
EXTRACT: note_on channel=9 note=36 velocity=0 time=0
EXTRACT: note_on channel=9 note=42 velocity=0 time=0
EXTRACT: note_on channel=4 note=40 velocity=110 time=0.007440468749999999
EXTRACT: note_on channel=5 note=40 velocity=110 time=0
EXTRACT: note_on channel=6 note=60 velocity=110 time=0
EXTRACT: note_on channel=9 note=42 velocity=110 time=0
EXTRACT: note_on channel=4 note=40 velocity=0 time=0.17113078124999997
EXTRACT: note_on channel=5 note=40 velocity=0 time=0
EXTRACT: note_on channel=6 note=60 velocity=0 time=0
EXTRACT: note_on channel=9 note=42 velocity=0 time=0
EXTRACT: note_on channel=4 note=40 velocity=110 time=0.007440468749999999
EXTRACT: note_on channel=5 note=40 velocity=110 time=0
EXTRACT: note_on channel=6 note=60 velocity=110 time=0
EXTRACT: note_on channel=9 note=38 velocity=110 time=0
EXTRACT: note_on channel=9 note=42 velocity=110 time=0
EXTRACT: note_on channel=4 note=40 velocity=0 time=0.17113078124999997
EXTRACT: note_on channel=5 note=40 velocity=0 time=0
EXTRACT: note_on channel=6 note=60 velocity=0 time=0
EXTRACT: note_on channel=9 note=38 velocity=0 time=0
EXTRACT: note_on channel=9 note=42 velocity=0 time=0
EXTRACT: note_on channel=4 note=40 velocity=110 time=0.007440468749999999
EXTRACT: note_on channel=5 note=40 velocity=110 time=0
EXTRACT: note_on channel=6 note=60 velocity=110 time=0
EXTRACT: note_on channel=9 note=42 velocity=110 time=0
EXTRACT: note_on channel=4 note=40 velocity=0 time=0.17113078124999997
EXTRACT: note_on channel=5 note=40 velocity=0 time=0
EXTRACT: note_on channel=6 note=60 velocity=0 time=0
EXTRACT: note_on channel=9 note=42 velocity=0 time=0
EXTRACT: note_on channel=4 note=48 velocity=110 time=0.007440468749999999
EXTRACT: note_on channel=5 note=40 velocity=110 time=0
EXTRACT: note_on channel=6 note=60 velocity=110 time=0
EXTRACT: note_on channel=9 note=55 velocity=110 time=0
EXTRACT: note_on channel=9 note=35 velocity=110 time=0
EXTRACT: note_on channel=9 note=36 velocity=110 time=0
EXTRACT: note_on channel=9 note=42 velocity=110 time=0
EXTRACT: note_on channel=4 note=48 velocity=0 time=0.17113078124999997
EXTRACT: note_on channel=5 note=40 velocity=0 time=0
EXTRACT: note_on channel=6 note=60 velocity=0 time=0
EXTRACT: note_on channel=9 note=35 velocity=0 time=0
EXTRACT: note_on channel=9 note=36 velocity=0 time=0
EXTRACT: note_on channel=9 note=42 velocity=0 time=0
EXTRACT: note_on channel=4 note=48 velocity=110 time=0.007440468749999999
EXTRACT: note_on channel=5 note=40 velocity=110 time=0
EXTRACT: note_on channel=6 note=60 velocity=110 time=0
EXTRACT: note_on channel=9 note=35 velocity=110 time=0
EXTRACT: note_on channel=9 note=36 velocity=110 time=0
EXTRACT: note_on channel=9 note=42 velocity=110 time=0
EXTRACT: note_on channel=4 note=48 velocity=0 time=0.17113078124999997
EXTRACT: note_on channel=5 note=40 velocity=0 time=0
EXTRACT: note_on channel=6 note=60 velocity=0 time=0
EXTRACT: note_on channel=9 note=35 velocity=0 time=0
EXTRACT: note_on channel=9 note=36 velocity=0 time=0
EXTRACT: note_on channel=9 note=42 velocity=0 time=0
EXTRACT: note_on channel=4 note=48 velocity=110 time=0.007440468749999999
EXTRACT: note_on channel=5 note=40 velocity=110 time=0
EXTRACT: note_on channel=6 note=60 velocity=110 time=0
EXTRACT: note_on channel=9 note=38 velocity=110 time=0
EXTRACT: note_on channel=9 note=42 velocity=110 time=0
EXTRACT: note_on channel=4 note=48 velocity=0 time=0.17113078124999997
EXTRACT: note_on channel=5 note=40 velocity=0 time=0
EXTRACT: note_on channel=6 note=60 velocity=0 time=0
EXTRACT: note_on channel=9 note=38 velocity=0 time=0
EXTRACT: note_on channel=9 note=42 velocity=0 time=0
EXTRACT: note_on channel=4 note=48 velocity=110 time=0.007440468749999999
EXTRACT: note_on channel=5 note=40 velocity=110 time=0
EXTRACT: note_on channel=6 note=60 velocity=110 time=0
EXTRACT: note_on channel=9 note=42 velocity=110 time=0
EXTRACT: note_on channel=9 note=55 velocity=0 time=0.05952374999999999
EXTRACT: note_on channel=4 note=48 velocity=0 time=0.11160703124999999
EXTRACT: note_on channel=5 note=40 velocity=0 time=0
EXTRACT: note_on channel=6 note=60 velocity=0 time=0
EXTRACT: note_on channel=9 note=42 velocity=0 time=0
EXTRACT: note_on channel=4 note=47 velocity=110 time=0.007440468749999999
EXTRACT: note_on channel=5 note=39 velocity=110 time=0
EXTRACT: note_on channel=6 note=60 velocity=110 time=0
EXTRACT: note_on channel=9 note=35 velocity=110 time=0
EXTRACT: note_on channel=9 note=36 velocity=110 time=0
EXTRACT: note_on channel=9 note=42 velocity=110 time=0
EXTRACT: note_on channel=5 note=39 velocity=0 time=0.17113078124999997
EXTRACT: note_on channel=6 note=60 velocity=0 time=0
EXTRACT: note_on channel=9 note=35 velocity=0 time=0
EXTRACT: note_on channel=9 note=36 velocity=0 time=0
EXTRACT: note_on channel=9 note=42 velocity=0 time=0
EXTRACT: note_on channel=5 note=39 velocity=110 time=0.007440468749999999
EXTRACT: note_on channel=6 note=60 velocity=110 time=0
EXTRACT: note_on channel=9 note=42 velocity=110 time=0
EXTRACT: note_on channel=5 note=39 velocity=0 time=0.17113078124999997
EXTRACT: note_on channel=6 note=60 velocity=0 time=0
EXTRACT: note_on channel=9 note=42 velocity=0 time=0
EXTRACT: note_on channel=5 note=39 velocity=110 time=0.007440468749999999
EXTRACT: note_on channel=6 note=60 velocity=110 time=0
EXTRACT: note_on channel=9 note=38 velocity=110 time=0
EXTRACT: note_on channel=9 note=42 velocity=110 time=0
EXTRACT: note_on channel=5 note=39 velocity=0 time=0.17113078124999997
EXTRACT: note_on channel=6 note=60 velocity=0 time=0
EXTRACT: note_on channel=9 note=38 velocity=0 time=0
EXTRACT: note_on channel=9 note=42 velocity=0 time=0
EXTRACT: note_on channel=5 note=39 velocity=110 time=0.007440468749999999
EXTRACT: note_on channel=6 note=60 velocity=110 time=0
EXTRACT: note_on channel=9 note=42 velocity=110 time=0
EXTRACT: note_on channel=5 note=39 velocity=0 time=0.17113078124999997
EXTRACT: note_on channel=6 note=60 velocity=0 time=0
EXTRACT: note_on channel=9 note=42 velocity=0 time=0
EXTRACT: note_on channel=5 note=39 velocity=110 time=0.007440468749999999
EXTRACT: note_on channel=6 note=60 velocity=110 time=0
EXTRACT: note_on channel=9 note=55 velocity=110 time=0
EXTRACT: note_on channel=9 note=35 velocity=110 time=0
EXTRACT: note_on channel=9 note=36 velocity=110 time=0
EXTRACT: note_on channel=9 note=42 velocity=110 time=0
EXTRACT: note_on channel=5 note=39 velocity=0 time=0.17113078124999997
EXTRACT: note_on channel=6 note=60 velocity=0 time=0
EXTRACT: note_on channel=9 note=35 velocity=0 time=0
EXTRACT: note_on channel=9 note=36 velocity=0 time=0
EXTRACT: note_on channel=9 note=42 velocity=0 time=0
EXTRACT: note_on channel=5 note=39 velocity=110 time=0.007440468749999999
EXTRACT: note_on channel=6 note=60 velocity=110 time=0
EXTRACT: note_on channel=9 note=35 velocity=110 time=0
EXTRACT: note_on channel=9 note=36 velocity=110 time=0
EXTRACT: note_on channel=9 note=42 velocity=110 time=0
EXTRACT: note_on channel=5 note=39 velocity=0 time=0.17113078124999997
EXTRACT: note_on channel=6 note=60 velocity=0 time=0
EXTRACT: note_on channel=9 note=35 velocity=0 time=0
EXTRACT: note_on channel=9 note=36 velocity=0 time=0
EXTRACT: note_on channel=9 note=42 velocity=0 time=0
EXTRACT: note_on channel=2 note=57 velocity=60 time=0.007440468749999999
EXTRACT: note_on channel=3 note=57 velocity=110 time=0
EXTRACT: note_on channel=5 note=39 velocity=110 time=0
EXTRACT: note_on channel=6 note=60 velocity=110 time=0
EXTRACT: note_on channel=9 note=38 velocity=110 time=0
EXTRACT: note_on channel=9 note=42 velocity=110 time=0
EXTRACT: note_on channel=2 note=57 velocity=0 time=0.17113078124999997
EXTRACT: note_on channel=3 note=57 velocity=0 time=0
EXTRACT: note_on channel=5 note=39 velocity=0 time=0
EXTRACT: note_on channel=6 note=60 velocity=0 time=0
EXTRACT: note_on channel=9 note=38 velocity=0 time=0
EXTRACT: note_on channel=9 note=42 velocity=0 time=0
EXTRACT: note_on channel=2 note=57 velocity=60 time=0.007440468749999999
EXTRACT: note_on channel=3 note=57 velocity=110 time=0
EXTRACT: note_on channel=4 note=47 velocity=0 time=0
EXTRACT: note_on channel=6 note=60 velocity=110 time=0
EXTRACT: note_on channel=9 note=42 velocity=110 time=0
EXTRACT: note_on channel=9 note=55 velocity=0 time=0.05952374999999999
EXTRACT: note_on channel=2 note=57 velocity=0 time=0.11160703124999999
EXTRACT: note_on channel=3 note=57 velocity=0 time=0
EXTRACT: note_on channel=6 note=60 velocity=0 time=0
EXTRACT: note_on channel=9 note=42 velocity=0 time=0
EXTRACT: note_on channel=2 note=57 velocity=60 time=0.007440468749999999
EXTRACT: note_on channel=3 note=57 velocity=110 time=0
EXTRACT: program_change channel=4 program=26 time=0
EXTRACT: note_on channel=4 note=52 velocity=110 time=0
EXTRACT: note_on channel=6 note=60 velocity=110 time=0
EXTRACT: note_on channel=2 note=57 velocity=0 time=0.17113078124999997
EXTRACT: note_on channel=3 note=57 velocity=0 time=0
EXTRACT: note_on channel=2 note=57 velocity=60 time=0.007440468749999999
EXTRACT: note_on channel=3 note=57 velocity=110 time=0
EXTRACT: note_on channel=2 note=57 velocity=0 time=0.17113078124999997
EXTRACT: note_on channel=3 note=57 velocity=0 time=0
EXTRACT: note_on channel=2 note=57 velocity=60 time=0.007440468749999999
EXTRACT: note_on channel=3 note=57 velocity=110 time=0
EXTRACT: note_on channel=4 note=52 velocity=0 time=0.23809499999999997
EXTRACT: note_on channel=6 note=60 velocity=0 time=0
EXTRACT: note_on channel=2 note=57 velocity=0 time=0.11160703124999999
EXTRACT: note_on channel=3 note=57 velocity=0 time=0
EXTRACT: note_on channel=2 note=57 velocity=60 time=0.007440468749999999
EXTRACT: note_on channel=3 note=57 velocity=110 time=0
EXTRACT: note_on channel=4 note=47 velocity=110 time=0
EXTRACT: note_on channel=6 note=60 velocity=110 time=0
EXTRACT: note_on channel=9 note=55 velocity=110 time=0
EXTRACT: note_on channel=2 note=57 velocity=0 time=0.34970203124999993
EXTRACT: note_on channel=3 note=57 velocity=0 time=0
EXTRACT: note_on channel=2 note=55 velocity=60 time=0.007440468749999999
EXTRACT: note_on channel=3 note=55 velocity=110 time=0
EXTRACT: note_on channel=2 note=55 velocity=0 time=0.17113078124999997
EXTRACT: note_on channel=3 note=55 velocity=0 time=0
EXTRACT: note_on channel=6 note=60 velocity=0 time=0
EXTRACT: note_on channel=2 note=57 velocity=60 time=0.007440468749999999
EXTRACT: note_on channel=3 note=57 velocity=110 time=0
EXTRACT: note_on channel=6 note=60 velocity=110 time=0
EXTRACT: note_on channel=4 note=47 velocity=0 time=0.05952374999999999
EXTRACT: note_on channel=9 note=55 velocity=0 time=0
EXTRACT: note_on channel=6 note=60 velocity=0 time=0.11160703124999999
EXTRACT: note_on channel=4 note=52 velocity=110 time=0.007440468749999999
EXTRACT: note_on channel=6 note=60 velocity=110 time=0
EXTRACT: note_on channel=2 note=57 velocity=0 time=0.17113078124999997
EXTRACT: note_on channel=3 note=57 velocity=0 time=0
EXTRACT: note_on channel=2 note=55 velocity=60 time=0.007440468749999999
EXTRACT: note_on channel=3 note=55 velocity=110 time=0
EXTRACT: note_on channel=2 note=55 velocity=0 time=0.17113078124999997
EXTRACT: note_on channel=3 note=55 velocity=0 time=0
EXTRACT: note_on channel=2 note=57 velocity=60 time=0.007440468749999999
EXTRACT: note_on channel=3 note=57 velocity=110 time=0
EXTRACT: note_on channel=4 note=52 velocity=0 time=0.23809499999999997
EXTRACT: note_on channel=6 note=60 velocity=0 time=0
EXTRACT: note_on channel=4 note=47 velocity=110 time=0.11904749999999999
EXTRACT: note_on channel=6 note=60 velocity=110 time=0
EXTRACT: note_on channel=9 note=55 velocity=110 time=0
EXTRACT: note_on channel=2 note=57 velocity=0 time=0.23809499999999997
EXTRACT: note_on channel=3 note=57 velocity=0 time=0
EXTRACT: note_on channel=2 note=57 velocity=60 time=0.11904749999999999
EXTRACT: note_on channel=3 note=57 velocity=110 time=0
EXTRACT: note_on channel=2 note=57 velocity=0 time=0.17113078124999997
EXTRACT: note_on channel=3 note=57 velocity=0 time=0
EXTRACT: note_on channel=2 note=57 velocity=60 time=0.007440468749999999
EXTRACT: note_on channel=3 note=57 velocity=110 time=0
EXTRACT: note_on channel=4 note=47 velocity=0 time=0.05952374999999999
EXTRACT: note_on channel=6 note=60 velocity=0 time=0
EXTRACT: note_on channel=9 note=55 velocity=0 time=0
EXTRACT: note_on channel=2 note=57 velocity=0 time=0.11160703124999999
EXTRACT: note_on channel=3 note=57 velocity=0 time=0
EXTRACT: note_on channel=2 note=57 velocity=60 time=0.007440468749999999
EXTRACT: note_on channel=3 note=57 velocity=110 time=0
EXTRACT: note_on channel=4 note=51 velocity=110 time=0
EXTRACT: note_on channel=6 note=60 velocity=110 time=0
EXTRACT: note_on channel=2 note=57 velocity=0 time=0.17113078124999997
EXTRACT: note_on channel=3 note=57 velocity=0 time=0
EXTRACT: note_on channel=2 note=57 velocity=60 time=0.007440468749999999
EXTRACT: note_on channel=3 note=57 velocity=110 time=0
EXTRACT: note_on channel=2 note=57 velocity=0 time=0.17113078124999997
EXTRACT: note_on channel=3 note=57 velocity=0 time=0
EXTRACT: note_on channel=2 note=57 velocity=60 time=0.007440468749999999
EXTRACT: note_on channel=3 note=57 velocity=110 time=0
EXTRACT: note_on channel=2 note=57 velocity=0 time=0.17113078124999997
EXTRACT: note_on channel=3 note=57 velocity=0 time=0
EXTRACT: note_on channel=2 note=57 velocity=60 time=0.007440468749999999
EXTRACT: note_on channel=3 note=57 velocity=110 time=0
EXTRACT: note_on channel=4 note=51 velocity=0 time=0.05952374999999999
EXTRACT: note_on channel=6 note=60 velocity=0 time=0
EXTRACT: note_on channel=2 note=57 velocity=0 time=0.11160703124999999
EXTRACT: note_on channel=3 note=57 velocity=0 time=0
EXTRACT: note_on channel=2 note=57 velocity=60 time=0.007440468749999999
EXTRACT: note_on channel=3 note=57 velocity=110 time=0
EXTRACT: note_on channel=4 note=47 velocity=110 time=0
EXTRACT: note_on channel=6 note=60 velocity=110 time=0
EXTRACT: note_on channel=9 note=55 velocity=110 time=0
EXTRACT: note_on channel=2 note=57 velocity=0 time=0.34970203124999993
EXTRACT: note_on channel=3 note=57 velocity=0 time=0
EXTRACT: note_on channel=2 note=55 velocity=60 time=0.007440468749999999
EXTRACT: note_on channel=3 note=55 velocity=110 time=0
EXTRACT: note_on channel=2 note=55 velocity=0 time=0.17113078124999997
EXTRACT: note_on channel=3 note=55 velocity=0 time=0
EXTRACT: note_on channel=6 note=60 velocity=0 time=0
EXTRACT: note_on channel=2 note=57 velocity=60 time=0.007440468749999999
EXTRACT: note_on channel=3 note=57 velocity=110 time=0
EXTRACT: note_on channel=6 note=60 velocity=110 time=0
EXTRACT: note_on channel=4 note=47 velocity=0 time=0.05952374999999999
EXTRACT: note_on channel=9 note=55 velocity=0 time=0
EXTRACT: note_on channel=6 note=60 velocity=0 time=0.11160703124999999
EXTRACT: note_on channel=4 note=51 velocity=110 time=0.007440468749999999
EXTRACT: note_on channel=6 note=60 velocity=110 time=0
EXTRACT: note_on channel=2 note=57 velocity=0 time=0.17113078124999997
EXTRACT: note_on channel=3 note=57 velocity=0 time=0
EXTRACT: note_on channel=2 note=55 velocity=60 time=0.007440468749999999
EXTRACT: note_on channel=3 note=55 velocity=110 time=0
EXTRACT: note_on channel=2 note=55 velocity=0 time=0.17113078124999997
EXTRACT: note_on channel=3 note=55 velocity=0 time=0
EXTRACT: note_on channel=2 note=60 velocity=60 time=0.007440468749999999
EXTRACT: note_on channel=3 note=60 velocity=110 time=0
EXTRACT: note_on channel=4 note=51 velocity=0 time=0.23809499999999997
EXTRACT: note_on channel=6 note=60 velocity=0 time=0
EXTRACT: note_on channel=2 note=60 velocity=0 time=0.11160703124999999
EXTRACT: note_on channel=3 note=60 velocity=0 time=0
EXTRACT: note_on channel=2 note=59 velocity=60 time=0.007440468749999999
EXTRACT: note_on channel=3 note=59 velocity=110 time=0
EXTRACT: note_on channel=4 note=47 velocity=110 time=0
EXTRACT: note_on channel=6 note=60 velocity=110 time=0
EXTRACT: note_on channel=9 note=55 velocity=110 time=0
EXTRACT: note_on channel=2 note=59 velocity=0 time=0.34970203124999993
EXTRACT: note_on channel=3 note=59 velocity=0 time=0
EXTRACT: note_on channel=2 note=57 velocity=60 time=0.007440468749999999
EXTRACT: note_on channel=3 note=57 velocity=110 time=0
EXTRACT: note_on channel=2 note=57 velocity=0 time=0.17113078124999997
EXTRACT: note_on channel=3 note=57 velocity=0 time=0
EXTRACT: note_on channel=2 note=57 velocity=60 time=0.007440468749999999
EXTRACT: note_on channel=3 note=57 velocity=110 time=0
EXTRACT: note_on channel=4 note=47 velocity=0 time=0.05952374999999999
EXTRACT: note_on channel=6 note=60 velocity=0 time=0
EXTRACT: note_on channel=9 note=55 velocity=0 time=0
EXTRACT: note_on channel=2 note=57 velocity=0 time=0.11160703124999999
EXTRACT: note_on channel=3 note=57 velocity=0 time=0
EXTRACT: note_on channel=2 note=57 velocity=60 time=0.007440468749999999
EXTRACT: note_on channel=3 note=57 velocity=110 time=0
EXTRACT: note_on channel=4 note=52 velocity=110 time=0
EXTRACT: note_on channel=6 note=60 velocity=110 time=0
EXTRACT: note_on channel=2 note=57 velocity=0 time=0.17113078124999997
EXTRACT: note_on channel=3 note=57 velocity=0 time=0
EXTRACT: note_on channel=2 note=57 velocity=60 time=0.007440468749999999
EXTRACT: note_on channel=3 note=57 velocity=110 time=0
EXTRACT: note_on channel=2 note=57 velocity=0 time=0.17113078124999997
EXTRACT: note_on channel=3 note=57 velocity=0 time=0
EXTRACT: note_on channel=2 note=57 velocity=60 time=0.007440468749999999
EXTRACT: note_on channel=3 note=57 velocity=110 time=0
EXTRACT: note_on channel=4 note=52 velocity=0 time=0.23809499999999997
EXTRACT: note_on channel=6 note=60 velocity=0 time=0
EXTRACT: note_on channel=2 note=57 velocity=0 time=0.11160703124999999
EXTRACT: note_on channel=3 note=57 velocity=0 time=0
EXTRACT: note_on channel=2 note=57 velocity=60 time=0.007440468749999999
EXTRACT: note_on channel=3 note=57 velocity=110 time=0
EXTRACT: note_on channel=4 note=47 velocity=110 time=0
EXTRACT: note_on channel=6 note=60 velocity=110 time=0
EXTRACT: note_on channel=9 note=55 velocity=110 time=0
EXTRACT: note_on channel=2 note=57 velocity=0 time=0.34970203124999993
EXTRACT: note_on channel=3 note=57 velocity=0 time=0
EXTRACT: note_on channel=2 note=55 velocity=60 time=0.007440468749999999
EXTRACT: note_on channel=3 note=55 velocity=110 time=0
EXTRACT: note_on channel=2 note=55 velocity=0 time=0.17113078124999997
EXTRACT: note_on channel=3 note=55 velocity=0 time=0
EXTRACT: note_on channel=6 note=60 velocity=0 time=0
EXTRACT: note_on channel=2 note=57 velocity=60 time=0.007440468749999999
EXTRACT: note_on channel=3 note=57 velocity=110 time=0
EXTRACT: note_on channel=6 note=60 velocity=110 time=0
EXTRACT: note_on channel=4 note=47 velocity=0 time=0.05952374999999999
EXTRACT: note_on channel=9 note=55 velocity=0 time=0
EXTRACT: note_on channel=6 note=60 velocity=0 time=0.11160703124999999
EXTRACT: note_on channel=4 note=52 velocity=110 time=0.007440468749999999
EXTRACT: note_on channel=6 note=60 velocity=110 time=0
EXTRACT: note_on channel=2 note=57 velocity=0 time=0.17113078124999997
EXTRACT: note_on channel=3 note=57 velocity=0 time=0
EXTRACT: note_on channel=2 note=55 velocity=60 time=0.007440468749999999
EXTRACT: note_on channel=3 note=55 velocity=110 time=0
EXTRACT: note_on channel=2 note=55 velocity=0 time=0.17113078124999997
EXTRACT: note_on channel=3 note=55 velocity=0 time=0
EXTRACT: note_on channel=2 note=57 velocity=60 time=0.007440468749999999
EXTRACT: note_on channel=3 note=57 velocity=110 time=0
EXTRACT: note_on channel=4 note=52 velocity=0 time=0.23809499999999997
EXTRACT: note_on channel=6 note=60 velocity=0 time=0
EXTRACT: note_on channel=4 note=47 velocity=110 time=0.11904749999999999
EXTRACT: note_on channel=6 note=60 velocity=110 time=0
EXTRACT: note_on channel=9 note=55 velocity=110 time=0
EXTRACT: note_on channel=2 note=57 velocity=0 time=0.23809499999999997
EXTRACT: note_on channel=3 note=57 velocity=0 time=0
EXTRACT: note_on channel=2 note=57 velocity=60 time=0.11904749999999999
EXTRACT: note_on channel=3 note=57 velocity=110 time=0
EXTRACT: note_on channel=2 note=57 velocity=0 time=0.17113078124999997
EXTRACT: note_on channel=3 note=57 velocity=0 time=0
EXTRACT: note_on channel=2 note=57 velocity=60 time=0.007440468749999999
EXTRACT: note_on channel=3 note=57 velocity=110 time=0
EXTRACT: note_on channel=4 note=47 velocity=0 time=0.05952374999999999
EXTRACT: note_on channel=6 note=60 velocity=0 time=0
EXTRACT: note_on channel=9 note=55 velocity=0 time=0
EXTRACT: note_on channel=2 note=57 velocity=0 time=0.11160703124999999
EXTRACT: note_on channel=3 note=57 velocity=0 time=0
EXTRACT: note_on channel=4 note=51 velocity=110 time=0.007440468749999999
EXTRACT: note_on channel=6 note=60 velocity=110 time=0
EXTRACT: note_on channel=9 note=55 velocity=110 time=0
EXTRACT: note_on channel=4 note=51 velocity=0 time=0.5952375
EXTRACT: note_on channel=9 note=55 velocity=0 time=0
EXTRACT: note_on channel=6 note=60 velocity=0 time=0.65476125
