EXTRACT: program_change channel=0 program=82 time=0
EXTRACT: control_change channel=0 control=7 value=106 time=0
EXTRACT: control_change channel=0 control=10 value=123 time=0
EXTRACT: control_change channel=1 control=7 value=105 time=0
EXTRACT: control_change channel=1 control=10 value=108 time=0
EXTRACT: program_change channel=1 program=1 time=0
EXTRACT: note_on channel=1 note=79 velocity=89 time=0
EXTRACT: note_on channel=1 note=72 velocity=89 time=0
EXTRACT: control_change channel=2 control=7 value=106 time=0
EXTRACT: control_change channel=2 control=10 value=109 time=0
EXTRACT: program_change channel=2 program=1 time=0
EXTRACT: note_on channel=2 note=60 velocity=89 time=0
EXTRACT: program_change channel=3 program=1 time=0
EXTRACT: control_change channel=3 control=7 value=125 time=0
EXTRACT: control_change channel=4 control=7 value=125 time=0
EXTRACT: program_change channel=4 program=1 time=0
EXTRACT: control_change channel=5 control=7 value=127 time=0
EXTRACT: program_change channel=5 program=1 time=0
EXTRACT: program_change channel=6 program=0 time=0
EXTRACT: control_change channel=6 control=7 value=127 time=0
EXTRACT: control_change channel=6 control=10 value=22 time=0
EXTRACT: note_on channel=6 note=79 velocity=89 time=0
EXTRACT: note_on channel=6 note=72 velocity=89 time=0
EXTRACT: program_change channel=7 program=0 time=0
EXTRACT: control_change channel=7 control=7 value=127 time=0
EXTRACT: control_change channel=7 control=10 value=23 time=0
EXTRACT: note_on channel=7 note=60 velocity=89 time=0
EXTRACT: control_change channel=8 control=7 value=102 time=0
EXTRACT: program_change channel=8 program=82 time=0
EXTRACT: control_change channel=8 control=10 value=6 time=0
EXTRACT: note_off channel=1 note=72 velocity=0 time=0.7258065
EXTRACT: note_off channel=1 note=79 velocity=0 time=0
EXTRACT: note_on channel=1 note=79 velocity=89 time=0
EXTRACT: note_on channel=1 note=72 velocity=89 time=0
EXTRACT: note_off channel=6 note=72 velocity=0 time=0
EXTRACT: note_off channel=6 note=79 velocity=0 time=0
EXTRACT: note_on channel=6 note=79 velocity=89 time=0
EXTRACT: note_on channel=6 note=72 velocity=89 time=0
EXTRACT: note_off channel=1 note=72 velocity=0 time=0.48387100000000005
EXTRACT: note_off channel=1 note=79 velocity=0 time=0
EXTRACT: note_on channel=1 note=79 velocity=89 time=0
EXTRACT: note_on channel=1 note=72 velocity=89 time=0
EXTRACT: note_off channel=6 note=72 velocity=0 time=0
EXTRACT: note_off channel=6 note=79 velocity=0 time=0
EXTRACT: note_on channel=6 note=79 velocity=89 time=0
EXTRACT: note_on channel=6 note=72 velocity=89 time=0
EXTRACT: note_off channel=1 note=72 velocity=0 time=0.48387100000000005
EXTRACT: note_off channel=1 note=79 velocity=0 time=0
EXTRACT: note_on channel=1 note=72 velocity=89 time=0
EXTRACT: note_on channel=1 note=80 velocity=89 time=0
EXTRACT: note_off channel=2 note=60 velocity=0 time=0
EXTRACT: note_on channel=2 note=56 velocity=89 time=0
EXTRACT: note_off channel=6 note=72 velocity=0 time=0
EXTRACT: note_off channel=6 note=79 velocity=0 time=0
EXTRACT: note_on channel=6 note=72 velocity=89 time=0
EXTRACT: note_on channel=6 note=80 velocity=89 time=0
EXTRACT: note_off channel=7 note=60 velocity=0 time=0
EXTRACT: note_on channel=7 note=56 velocity=89 time=0
EXTRACT: note_off channel=1 note=80 velocity=0 time=0.7258065
EXTRACT: note_off channel=1 note=72 velocity=0 time=0
EXTRACT: note_on channel=1 note=72 velocity=89 time=0
EXTRACT: note_on channel=1 note=80 velocity=89 time=0
EXTRACT: note_off channel=6 note=80 velocity=0 time=0
EXTRACT: note_off channel=6 note=72 velocity=0 time=0
EXTRACT: note_on channel=6 note=72 velocity=89 time=0
EXTRACT: note_on channel=6 note=80 velocity=89 time=0
EXTRACT: note_off channel=1 note=80 velocity=0 time=0.48387100000000005
EXTRACT: note_off channel=1 note=72 velocity=0 time=0
EXTRACT: note_on channel=1 note=72 velocity=89 time=0
EXTRACT: note_on channel=1 note=80 velocity=89 time=0
EXTRACT: note_off channel=6 note=80 velocity=0 time=0
EXTRACT: note_off channel=6 note=72 velocity=0 time=0
EXTRACT: note_on channel=6 note=72 velocity=89 time=0
EXTRACT: note_on channel=6 note=80 velocity=89 time=0
EXTRACT: note_off channel=1 note=80 velocity=0 time=0.48387100000000005
EXTRACT: note_off channel=1 note=72 velocity=0 time=0
EXTRACT: note_on channel=1 note=79 velocity=89 time=0
EXTRACT: note_on channel=1 note=70 velocity=89 time=0
EXTRACT: note_off channel=2 note=56 velocity=0 time=0
EXTRACT: note_on channel=2 note=51 velocity=89 time=0
EXTRACT: note_off channel=6 note=80 velocity=0 time=0
EXTRACT: note_off channel=6 note=72 velocity=0 time=0
EXTRACT: note_on channel=6 note=79 velocity=89 time=0
EXTRACT: note_on channel=6 note=70 velocity=89 time=0
EXTRACT: note_off channel=7 note=56 velocity=0 time=0
EXTRACT: note_on channel=7 note=51 velocity=89 time=0
EXTRACT: note_off channel=1 note=70 velocity=0 time=0.7258065
EXTRACT: note_off channel=1 note=79 velocity=0 time=0
EXTRACT: note_on channel=1 note=79 velocity=89 time=0
EXTRACT: note_on channel=1 note=70 velocity=89 time=0
EXTRACT: note_off channel=6 note=70 velocity=0 time=0
EXTRACT: note_off channel=6 note=79 velocity=0 time=0
EXTRACT: note_on channel=6 note=79 velocity=89 time=0
EXTRACT: note_on channel=6 note=70 velocity=89 time=0
EXTRACT: note_off channel=1 note=70 velocity=0 time=0.48387100000000005
EXTRACT: note_off channel=1 note=79 velocity=0 time=0
EXTRACT: note_on channel=1 note=79 velocity=89 time=0
EXTRACT: note_on channel=1 note=70 velocity=89 time=0
EXTRACT: note_off channel=6 note=70 velocity=0 time=0
EXTRACT: note_off channel=6 note=79 velocity=0 time=0
EXTRACT: note_on channel=6 note=79 velocity=89 time=0
EXTRACT: note_on channel=6 note=70 velocity=89 time=0
EXTRACT: note_off channel=1 note=70 velocity=0 time=0.48387100000000005
EXTRACT: note_off channel=1 note=79 velocity=0 time=0
EXTRACT: note_on channel=1 note=77 velocity=89 time=0
EXTRACT: note_on channel=1 note=70 velocity=89 time=0
EXTRACT: note_off channel=2 note=51 velocity=0 time=0
EXTRACT: note_on channel=2 note=58 velocity=89 time=0
EXTRACT: note_off channel=6 note=70 velocity=0 time=0
EXTRACT: note_off channel=6 note=79 velocity=0 time=0
EXTRACT: note_on channel=6 note=77 velocity=89 time=0
EXTRACT: note_on channel=6 note=70 velocity=89 time=0
EXTRACT: note_off channel=7 note=51 velocity=0 time=0
EXTRACT: note_on channel=7 note=58 velocity=89 time=0
EXTRACT: note_off channel=1 note=70 velocity=0 time=0.7258065
EXTRACT: note_off channel=1 note=77 velocity=0 time=0
EXTRACT: note_on channel=1 note=77 velocity=89 time=0
EXTRACT: note_on channel=1 note=70 velocity=89 time=0
EXTRACT: note_off channel=6 note=70 velocity=0 time=0
EXTRACT: note_off channel=6 note=77 velocity=0 time=0
EXTRACT: note_on channel=6 note=77 velocity=89 time=0
EXTRACT: note_on channel=6 note=70 velocity=89 time=0
EXTRACT: note_off channel=1 note=70 velocity=0 time=0.48387100000000005
EXTRACT: note_off channel=1 note=77 velocity=0 time=0
EXTRACT: note_on channel=1 note=77 velocity=89 time=0
EXTRACT: note_on channel=1 note=70 velocity=89 time=0
EXTRACT: note_off channel=6 note=70 velocity=0 time=0
EXTRACT: note_off channel=6 note=77 velocity=0 time=0
EXTRACT: note_on channel=6 note=77 velocity=89 time=0
EXTRACT: note_on channel=6 note=70 velocity=89 time=0
EXTRACT: note_off channel=1 note=70 velocity=0 time=0.48387100000000005
EXTRACT: note_off channel=1 note=77 velocity=0 time=0
EXTRACT: note_on channel=1 note=79 velocity=89 time=0
EXTRACT: note_on channel=1 note=72 velocity=89 time=0
EXTRACT: note_off channel=2 note=58 velocity=0 time=0
EXTRACT: note_on channel=2 note=60 velocity=89 time=0
EXTRACT: note_on channel=2 note=48 velocity=89 time=0
EXTRACT: note_off channel=6 note=70 velocity=0 time=0
EXTRACT: note_off channel=6 note=77 velocity=0 time=0
EXTRACT: note_on channel=6 note=79 velocity=89 time=0
EXTRACT: note_on channel=6 note=72 velocity=89 time=0
EXTRACT: note_off channel=7 note=58 velocity=0 time=0
EXTRACT: note_on channel=7 note=60 velocity=89 time=0
EXTRACT: note_on channel=7 note=48 velocity=89 time=0
EXTRACT: note_off channel=1 note=72 velocity=0 time=0.7258065
EXTRACT: note_off channel=1 note=79 velocity=0 time=0
EXTRACT: note_on channel=1 note=79 velocity=89 time=0
EXTRACT: note_on channel=1 note=72 velocity=89 time=0
EXTRACT: note_off channel=6 note=72 velocity=0 time=0
EXTRACT: note_off channel=6 note=79 velocity=0 time=0
EXTRACT: note_on channel=6 note=79 velocity=89 time=0
EXTRACT: note_on channel=6 note=72 velocity=89 time=0
EXTRACT: note_on channel=0 note=65 velocity=89 time=0
EXTRACT: note_on channel=8 note=65 velocity=89 time=0
EXTRACT: note_off channel=0 note=65 velocity=0 time=0
EXTRACT: note_on channel=0 note=67 velocity=89 time=0
EXTRACT: note_off channel=8 note=65 velocity=0 time=0
EXTRACT: note_on channel=8 note=67 velocity=89 time=0
EXTRACT: note_off channel=0 note=67 velocity=0 time=0
EXTRACT: note_on channel=0 note=67 velocity=89 time=0
EXTRACT: note_off channel=1 note=72 velocity=0 time=0
EXTRACT: note_off channel=1 note=79 velocity=0 time=0
EXTRACT: note_on channel=1 note=79 velocity=89 time=0
EXTRACT: note_on channel=1 note=72 velocity=89 time=0
EXTRACT: note_off channel=6 note=72 velocity=0 time=0
EXTRACT: note_off channel=6 note=79 velocity=0 time=0
EXTRACT: note_on channel=6 note=79 velocity=89 time=0
EXTRACT: note_on channel=6 note=72 velocity=89 time=0
EXTRACT: note_off channel=8 note=67 velocity=0 time=0
EXTRACT: note_on channel=8 note=67 velocity=89 time=0
EXTRACT: note_off channel=0 note=67 velocity=0 time=0
EXTRACT: note_on channel=0 note=67 velocity=89 time=0
EXTRACT: note_off channel=1 note=72 velocity=0 time=0
EXTRACT: note_off channel=1 note=79 velocity=0 time=0
EXTRACT: note_on channel=1 note=79 velocity=89 time=0
EXTRACT: note_on channel=1 note=72 velocity=89 time=0
EXTRACT: note_off channel=2 note=48 velocity=0 time=0
EXTRACT: note_off channel=2 note=60 velocity=0 time=0
EXTRACT: note_on channel=2 note=56 velocity=89 time=0
EXTRACT: note_off channel=6 note=72 velocity=0 time=0
EXTRACT: note_off channel=6 note=79 velocity=0 time=0
EXTRACT: note_on channel=6 note=79 velocity=89 time=0
EXTRACT: note_on channel=6 note=72 velocity=89 time=0
EXTRACT: note_off channel=7 note=48 velocity=0 time=0
EXTRACT: note_off channel=7 note=60 velocity=0 time=0
EXTRACT: note_on channel=7 note=56 velocity=89 time=0
EXTRACT: note_off channel=8 note=67 velocity=0 time=0
EXTRACT: note_on channel=8 note=67 velocity=89 time=0
EXTRACT: note_off channel=0 note=67 velocity=0 time=0
EXTRACT: note_on channel=0 note=67 velocity=89 time=0
EXTRACT: note_off channel=8 note=67 velocity=0 time=0
EXTRACT: note_on channel=8 note=67 velocity=89 time=0
EXTRACT: note_off channel=0 note=67 velocity=0 time=0
EXTRACT: note_on channel=0 note=67 velocity=89 time=0
EXTRACT: note_off channel=8 note=67 velocity=0 time=0
EXTRACT: note_on channel=8 note=67 velocity=89 time=0
EXTRACT: note_off channel=1 note=72 velocity=0 time=0.24193550000000003
EXTRACT: note_off channel=1 note=79 velocity=0 time=0
EXTRACT: note_on channel=1 note=79 velocity=89 time=0
EXTRACT: note_on channel=1 note=72 velocity=89 time=0
EXTRACT: note_off channel=6 note=72 velocity=0 time=0
EXTRACT: note_off channel=6 note=79 velocity=0 time=0
EXTRACT: note_on channel=6 note=79 velocity=89 time=0
EXTRACT: note_on channel=6 note=72 velocity=89 time=0
EXTRACT: note_off channel=0 note=67 velocity=0 time=0
EXTRACT: note_on channel=0 note=67 velocity=89 time=0
EXTRACT: note_off channel=8 note=67 velocity=0 time=0
EXTRACT: note_on channel=8 note=67 velocity=89 time=0
EXTRACT: note_off channel=0 note=67 velocity=0 time=0
EXTRACT: note_on channel=0 note=63 velocity=89 time=0
EXTRACT: note_off channel=1 note=72 velocity=0 time=0
EXTRACT: note_off channel=1 note=79 velocity=0 time=0
EXTRACT: note_on channel=1 note=79 velocity=89 time=0
EXTRACT: note_on channel=1 note=72 velocity=89 time=0
EXTRACT: note_off channel=6 note=72 velocity=0 time=0
EXTRACT: note_off channel=6 note=79 velocity=0 time=0
EXTRACT: note_on channel=6 note=79 velocity=89 time=0
EXTRACT: note_on channel=6 note=72 velocity=89 time=0
EXTRACT: note_off channel=8 note=67 velocity=0 time=0
EXTRACT: note_on channel=8 note=63 velocity=89 time=0
EXTRACT: note_off channel=0 note=63 velocity=0 time=0
EXTRACT: note_on channel=0 note=63 velocity=89 time=0
EXTRACT: note_off channel=1 note=72 velocity=0 time=0
EXTRACT: note_off channel=1 note=79 velocity=0 time=0
EXTRACT: note_on channel=1 note=79 velocity=89 time=0
EXTRACT: note_on channel=1 note=70 velocity=89 time=0
EXTRACT: note_off channel=2 note=56 velocity=0 time=0
EXTRACT: note_on channel=2 note=63 velocity=89 time=0
EXTRACT: note_off channel=6 note=72 velocity=0 time=0
EXTRACT: note_off channel=6 note=79 velocity=0 time=0
EXTRACT: note_on channel=6 note=79 velocity=89 time=0
EXTRACT: note_on channel=6 note=70 velocity=89 time=0
EXTRACT: note_off channel=7 note=56 velocity=0 time=0
EXTRACT: note_on channel=7 note=63 velocity=89 time=0
EXTRACT: note_off channel=8 note=63 velocity=0 time=0
EXTRACT: note_on channel=8 note=63 velocity=89 time=0
EXTRACT: note_off channel=0 note=63 velocity=0 time=0.48387100000000005
EXTRACT: note_off channel=8 note=63 velocity=0 time=0
EXTRACT: note_off channel=1 note=70 velocity=0 time=0.24193550000000003
EXTRACT: note_off channel=1 note=79 velocity=0 time=0
EXTRACT: note_on channel=1 note=79 velocity=89 time=0
EXTRACT: note_on channel=1 note=70 velocity=89 time=0
EXTRACT: note_off channel=6 note=70 velocity=0 time=0
EXTRACT: note_off channel=6 note=79 velocity=0 time=0
EXTRACT: note_on channel=6 note=79 velocity=89 time=0
EXTRACT: note_on channel=6 note=70 velocity=89 time=0
EXTRACT: note_on channel=0 note=65 velocity=89 time=0
EXTRACT: note_on channel=8 note=65 velocity=89 time=0
EXTRACT: note_off channel=0 note=65 velocity=0 time=0
EXTRACT: note_on channel=0 note=67 velocity=89 time=0
EXTRACT: note_off channel=8 note=65 velocity=0 time=0
EXTRACT: note_on channel=8 note=67 velocity=89 time=0
EXTRACT: note_off channel=0 note=67 velocity=0 time=0
EXTRACT: note_on channel=0 note=67 velocity=89 time=0
EXTRACT: note_off channel=1 note=70 velocity=0 time=0
EXTRACT: note_off channel=1 note=79 velocity=0 time=0
EXTRACT: note_on channel=1 note=79 velocity=89 time=0
EXTRACT: note_on channel=1 note=70 velocity=89 time=0
EXTRACT: note_off channel=6 note=70 velocity=0 time=0
EXTRACT: note_off channel=6 note=79 velocity=0 time=0
EXTRACT: note_on channel=6 note=79 velocity=89 time=0
EXTRACT: note_on channel=6 note=70 velocity=89 time=0
EXTRACT: note_off channel=8 note=67 velocity=0 time=0
EXTRACT: note_on channel=8 note=67 velocity=89 time=0
EXTRACT: note_off channel=0 note=67 velocity=0 time=0
EXTRACT: note_on channel=0 note=67 velocity=89 time=0
EXTRACT: note_off channel=1 note=70 velocity=0 time=0
EXTRACT: note_off channel=1 note=79 velocity=0 time=0
EXTRACT: note_on channel=1 note=77 velocity=89 time=0
EXTRACT: note_on channel=1 note=70 velocity=89 time=0
EXTRACT: note_off channel=2 note=63 velocity=0 time=0
EXTRACT: note_on channel=2 note=58 velocity=89 time=0
EXTRACT: note_off channel=6 note=70 velocity=0 time=0
EXTRACT: note_off channel=6 note=79 velocity=0 time=0
EXTRACT: note_on channel=6 note=77 velocity=89 time=0
EXTRACT: note_on channel=6 note=70 velocity=89 time=0
EXTRACT: note_off channel=7 note=63 velocity=0 time=0
EXTRACT: note_on channel=7 note=58 velocity=89 time=0
EXTRACT: note_off channel=8 note=67 velocity=0 time=0
EXTRACT: note_on channel=8 note=67 velocity=89 time=0
EXTRACT: note_off channel=0 note=67 velocity=0 time=0
EXTRACT: note_on channel=0 note=65 velocity=89 time=0
EXTRACT: note_off channel=8 note=67 velocity=0 time=0
EXTRACT: note_on channel=8 note=65 velocity=89 time=0
EXTRACT: note_off channel=0 note=65 velocity=0 time=0
EXTRACT: note_on channel=0 note=67 velocity=89 time=0
EXTRACT: note_off channel=8 note=65 velocity=0 time=0
EXTRACT: note_on channel=8 note=67 velocity=89 time=0
EXTRACT: note_off channel=1 note=70 velocity=0 time=0.24193550000000003
EXTRACT: note_off channel=1 note=77 velocity=0 time=0
EXTRACT: note_on channel=1 note=77 velocity=89 time=0
EXTRACT: note_on channel=1 note=70 velocity=89 time=0
EXTRACT: note_off channel=6 note=70 velocity=0 time=0
EXTRACT: note_off channel=6 note=77 velocity=0 time=0
EXTRACT: note_on channel=6 note=77 velocity=89 time=0
EXTRACT: note_on channel=6 note=70 velocity=89 time=0
EXTRACT: note_off channel=0 note=67 velocity=0 time=0
EXTRACT: note_on channel=0 note=67 velocity=89 time=0
EXTRACT: note_off channel=8 note=67 velocity=0 time=0
EXTRACT: note_on channel=8 note=67 velocity=89 time=0
EXTRACT: note_off channel=0 note=67 velocity=0 time=0
EXTRACT: note_on channel=0 note=65 velocity=89 time=0
EXTRACT: note_off channel=8 note=67 velocity=0 time=0
EXTRACT: note_on channel=8 note=65 velocity=89 time=0
EXTRACT: note_off channel=0 note=65 velocity=0 time=0
EXTRACT: note_on channel=0 note=63 velocity=89 time=0
EXTRACT: note_off channel=1 note=70 velocity=0 time=0
EXTRACT: note_off channel=1 note=77 velocity=0 time=0
EXTRACT: note_on channel=1 note=77 velocity=89 time=0
EXTRACT: note_on channel=1 note=70 velocity=89 time=0
EXTRACT: note_off channel=6 note=70 velocity=0 time=0
EXTRACT: note_off channel=6 note=77 velocity=0 time=0
EXTRACT: note_on channel=6 note=77 velocity=89 time=0
EXTRACT: note_on channel=6 note=70 velocity=89 time=0
EXTRACT: note_off channel=8 note=65 velocity=0 time=0
EXTRACT: note_on channel=8 note=63 velocity=89 time=0
EXTRACT: note_off channel=0 note=63 velocity=0 time=0
EXTRACT: note_on channel=0 note=63 velocity=89 time=0
EXTRACT: note_off channel=8 note=63 velocity=0 time=0
EXTRACT: note_on channel=8 note=63 velocity=89 time=0
EXTRACT: note_off channel=0 note=63 velocity=0 time=0
EXTRACT: note_on channel=0 note=60 velocity=89 time=0
EXTRACT: note_off channel=1 note=70 velocity=0 time=0
EXTRACT: note_off channel=1 note=77 velocity=0 time=0
EXTRACT: note_on channel=1 note=79 velocity=89 time=0
EXTRACT: note_on channel=1 note=72 velocity=89 time=0
EXTRACT: note_off channel=2 note=58 velocity=0 time=0
EXTRACT: note_on channel=2 note=60 velocity=89 time=0
EXTRACT: note_on channel=2 note=48 velocity=89 time=0
EXTRACT: note_off channel=6 note=70 velocity=0 time=0
EXTRACT: note_off channel=6 note=77 velocity=0 time=0
EXTRACT: note_on channel=6 note=79 velocity=89 time=0
EXTRACT: note_on channel=6 note=72 velocity=89 time=0
EXTRACT: note_off channel=7 note=58 velocity=0 time=0
EXTRACT: note_on channel=7 note=60 velocity=89 time=0
EXTRACT: note_on channel=7 note=48 velocity=89 time=0
EXTRACT: note_off channel=8 note=63 velocity=0 time=0
EXTRACT: note_on channel=8 note=60 velocity=89 time=0
EXTRACT: note_off channel=0 note=60 velocity=0 time=0.48387100000000005
EXTRACT: note_off channel=8 note=60 velocity=0 time=0
EXTRACT: note_on channel=0 note=60 velocity=89 time=0
EXTRACT: note_off channel=1 note=72 velocity=0 time=0
EXTRACT: note_off channel=1 note=79 velocity=0 time=0
EXTRACT: note_on channel=1 note=79 velocity=89 time=0
EXTRACT: note_on channel=1 note=72 velocity=89 time=0
EXTRACT: note_off channel=6 note=72 velocity=0 time=0
EXTRACT: note_off channel=6 note=79 velocity=0 time=0
EXTRACT: note_on channel=6 note=79 velocity=89 time=0
EXTRACT: note_on channel=6 note=72 velocity=89 time=0
EXTRACT: note_on channel=8 note=60 velocity=89 time=0
EXTRACT: note_off channel=0 note=60 velocity=0 time=0
EXTRACT: note_on channel=0 note=67 velocity=89 time=0
EXTRACT: note_off channel=8 note=60 velocity=0 time=0
EXTRACT: note_on channel=8 note=67 velocity=89 time=0
EXTRACT: note_off channel=0 note=67 velocity=0 time=0
EXTRACT: note_on channel=0 note=67 velocity=89 time=0
EXTRACT: note_off channel=8 note=67 velocity=0 time=0
EXTRACT: note_on channel=8 note=67 velocity=89 time=0
EXTRACT: note_off channel=0 note=67 velocity=0 time=0
EXTRACT: note_on channel=0 note=67 velocity=89 time=0
EXTRACT: note_off channel=1 note=72 velocity=0 time=0
EXTRACT: note_off channel=1 note=79 velocity=0 time=0
EXTRACT: note_on channel=1 note=79 velocity=89 time=0
EXTRACT: note_on channel=1 note=72 velocity=89 time=0
EXTRACT: note_off channel=6 note=72 velocity=0 time=0
EXTRACT: note_off channel=6 note=79 velocity=0 time=0
EXTRACT: note_on channel=6 note=79 velocity=89 time=0
EXTRACT: note_on channel=6 note=72 velocity=89 time=0
EXTRACT: note_off channel=8 note=67 velocity=0 time=0
EXTRACT: note_on channel=8 note=67 velocity=89 time=0
EXTRACT: note_off channel=0 note=67 velocity=0 time=0
EXTRACT: note_on channel=0 note=68 velocity=89 time=0
EXTRACT: note_off channel=1 note=72 velocity=0 time=0
EXTRACT: note_off channel=1 note=79 velocity=0 time=0
EXTRACT: note_on channel=1 note=72 velocity=89 time=0
EXTRACT: note_on channel=1 note=80 velocity=89 time=0
EXTRACT: note_off channel=2 note=48 velocity=0 time=0
EXTRACT: note_off channel=2 note=60 velocity=0 time=0
EXTRACT: note_on channel=2 note=56 velocity=89 time=0
EXTRACT: note_off channel=6 note=72 velocity=0 time=0
EXTRACT: note_off channel=6 note=79 velocity=0 time=0
EXTRACT: note_on channel=6 note=72 velocity=89 time=0
EXTRACT: note_on channel=6 note=80 velocity=89 time=0
EXTRACT: note_off channel=7 note=48 velocity=0 time=0
EXTRACT: note_off channel=7 note=60 velocity=0 time=0
EXTRACT: note_on channel=7 note=56 velocity=89 time=0
EXTRACT: note_off channel=8 note=67 velocity=0 time=0
EXTRACT: note_on channel=8 note=68 velocity=89 time=0
EXTRACT: note_off channel=1 note=80 velocity=0 time=0.7258065
EXTRACT: note_off channel=1 note=72 velocity=0 time=0
EXTRACT: note_on channel=1 note=72 velocity=89 time=0
EXTRACT: note_on channel=1 note=80 velocity=89 time=0
EXTRACT: note_off channel=6 note=80 velocity=0 time=0
EXTRACT: note_off channel=6 note=72 velocity=0 time=0
EXTRACT: note_on channel=6 note=72 velocity=89 time=0
EXTRACT: note_on channel=6 note=80 velocity=89 time=0
EXTRACT: note_off channel=0 note=68 velocity=0 time=0
EXTRACT: note_on channel=0 note=67 velocity=89 time=0
EXTRACT: note_off channel=8 note=68 velocity=0 time=0
EXTRACT: note_on channel=8 note=67 velocity=89 time=0
EXTRACT: note_off channel=0 note=67 velocity=0 time=0
EXTRACT: note_on channel=0 note=63 velocity=89 time=0
EXTRACT: note_off channel=8 note=67 velocity=0 time=0
EXTRACT: note_on channel=8 note=63 velocity=89 time=0
EXTRACT: note_off channel=0 note=63 velocity=0 time=0.24193550000000003
EXTRACT: note_off channel=1 note=80 velocity=0 time=0
EXTRACT: note_off channel=1 note=72 velocity=0 time=0
EXTRACT: note_on channel=1 note=72 velocity=89 time=0
EXTRACT: note_on channel=1 note=80 velocity=89 time=0
EXTRACT: note_off channel=6 note=80 velocity=0 time=0
EXTRACT: note_off channel=6 note=72 velocity=0 time=0
EXTRACT: note_on channel=6 note=72 velocity=89 time=0
EXTRACT: note_on channel=6 note=80 velocity=89 time=0
EXTRACT: note_off channel=8 note=63 velocity=0 time=0
EXTRACT: note_on channel=0 note=68 velocity=89 time=0
EXTRACT: note_off channel=1 note=80 velocity=0 time=0
EXTRACT: note_off channel=1 note=72 velocity=0 time=0
EXTRACT: note_on channel=1 note=79 velocity=89 time=0
EXTRACT: note_on channel=1 note=70 velocity=89 time=0
EXTRACT: note_off channel=2 note=56 velocity=0 time=0
EXTRACT: note_on channel=2 note=51 velocity=89 time=0
EXTRACT: note_off channel=6 note=80 velocity=0 time=0
EXTRACT: note_off channel=6 note=72 velocity=0 time=0
EXTRACT: note_on channel=6 note=79 velocity=89 time=0
EXTRACT: note_on channel=6 note=70 velocity=89 time=0
EXTRACT: note_off channel=7 note=56 velocity=0 time=0
EXTRACT: note_on channel=7 note=51 velocity=89 time=0
EXTRACT: note_on channel=8 note=68 velocity=89 time=0
EXTRACT: note_off channel=1 note=70 velocity=0 time=0.7258065
EXTRACT: note_off channel=1 note=79 velocity=0 time=0
EXTRACT: note_on channel=1 note=79 velocity=89 time=0
EXTRACT: note_on channel=1 note=70 velocity=89 time=0
EXTRACT: note_off channel=6 note=70 velocity=0 time=0
EXTRACT: note_off channel=6 note=79 velocity=0 time=0
EXTRACT: note_on channel=6 note=79 velocity=89 time=0
EXTRACT: note_on channel=6 note=70 velocity=89 time=0
EXTRACT: note_off channel=0 note=68 velocity=0 time=0
EXTRACT: note_on channel=0 note=67 velocity=89 time=0
EXTRACT: note_off channel=8 note=68 velocity=0 time=0
EXTRACT: note_on channel=8 note=67 velocity=89 time=0
EXTRACT: note_off channel=0 note=67 velocity=0 time=0
EXTRACT: note_on channel=0 note=63 velocity=89 time=0
EXTRACT: note_off channel=2 note=51 velocity=0 time=0
EXTRACT: note_on channel=2 note=63 velocity=89 time=0
EXTRACT: note_off channel=7 note=51 velocity=0 time=0
EXTRACT: note_on channel=7 note=63 velocity=89 time=0
EXTRACT: note_off channel=8 note=67 velocity=0 time=0
EXTRACT: note_on channel=8 note=63 velocity=89 time=0
EXTRACT: note_off channel=0 note=63 velocity=0 time=0.24193550000000003
EXTRACT: note_off channel=1 note=70 velocity=0 time=0
EXTRACT: note_off channel=1 note=79 velocity=0 time=0
EXTRACT: note_on channel=1 note=79 velocity=89 time=0
EXTRACT: note_on channel=1 note=70 velocity=89 time=0
EXTRACT: note_off channel=2 note=63 velocity=0 time=0
EXTRACT: note_on channel=2 note=63 velocity=89 time=0
EXTRACT: note_off channel=6 note=70 velocity=0 time=0
EXTRACT: note_off channel=6 note=79 velocity=0 time=0
EXTRACT: note_on channel=6 note=79 velocity=89 time=0
EXTRACT: note_on channel=6 note=70 velocity=89 time=0
EXTRACT: note_off channel=7 note=63 velocity=0 time=0
EXTRACT: note_on channel=7 note=63 velocity=89 time=0
EXTRACT: note_off channel=8 note=63 velocity=0 time=0
EXTRACT: note_on channel=0 note=63 velocity=89 time=0
EXTRACT: note_on channel=8 note=63 velocity=89 time=0
EXTRACT: note_off channel=0 note=63 velocity=0 time=0
EXTRACT: note_on channel=0 note=65 velocity=89 time=0
EXTRACT: note_off channel=1 note=70 velocity=0 time=0
EXTRACT: note_off channel=1 note=79 velocity=0 time=0
EXTRACT: note_on channel=1 note=77 velocity=89 time=0
EXTRACT: note_on channel=1 note=70 velocity=89 time=0
EXTRACT: note_off channel=2 note=63 velocity=0 time=0
EXTRACT: note_on channel=2 note=58 velocity=89 time=0
EXTRACT: note_off channel=6 note=70 velocity=0 time=0
EXTRACT: note_off channel=6 note=79 velocity=0 time=0
EXTRACT: note_on channel=6 note=77 velocity=89 time=0
EXTRACT: note_on channel=6 note=70 velocity=89 time=0
EXTRACT: note_off channel=7 note=63 velocity=0 time=0
EXTRACT: note_on channel=7 note=58 velocity=89 time=0
EXTRACT: note_off channel=8 note=63 velocity=0 time=0
EXTRACT: note_on channel=8 note=65 velocity=89 time=0
EXTRACT: note_off channel=0 note=65 velocity=0 time=0.7258065
EXTRACT: note_off channel=1 note=70 velocity=0 time=0
EXTRACT: note_off channel=1 note=77 velocity=0 time=0
EXTRACT: note_on channel=1 note=77 velocity=89 time=0
EXTRACT: note_on channel=1 note=70 velocity=89 time=0
EXTRACT: note_off channel=6 note=70 velocity=0 time=0
EXTRACT: note_off channel=6 note=77 velocity=0 time=0
EXTRACT: note_on channel=6 note=77 velocity=89 time=0
EXTRACT: note_on channel=6 note=70 velocity=89 time=0
EXTRACT: note_off channel=8 note=65 velocity=0 time=0
EXTRACT: note_on channel=0 note=67 velocity=89 time=0
EXTRACT: note_on channel=8 note=67 velocity=89 time=0
EXTRACT: note_off channel=0 note=67 velocity=0 time=0
EXTRACT: note_on channel=0 note=65 velocity=89 time=0
EXTRACT: note_off channel=8 note=67 velocity=0 time=0
EXTRACT: note_on channel=8 note=65 velocity=89 time=0
EXTRACT: note_off channel=1 note=70 velocity=0 time=0.24193550000000003
EXTRACT: note_off channel=1 note=77 velocity=0 time=0
EXTRACT: note_on channel=1 note=77 velocity=89 time=0
EXTRACT: note_on channel=1 note=70 velocity=89 time=0
EXTRACT: note_off channel=6 note=70 velocity=0 time=0
EXTRACT: note_off channel=6 note=77 velocity=0 time=0
EXTRACT: note_on channel=6 note=77 velocity=89 time=0
EXTRACT: note_on channel=6 note=70 velocity=89 time=0
EXTRACT: note_off channel=0 note=65 velocity=0 time=0
EXTRACT: note_on channel=0 note=60 velocity=89 time=0
EXTRACT: note_off channel=8 note=65 velocity=0 time=0
EXTRACT: note_on channel=8 note=60 velocity=89 time=0
EXTRACT: note_off channel=0 note=60 velocity=0 time=0
EXTRACT: note_on channel=0 note=60 velocity=89 time=0
EXTRACT: note_off channel=1 note=70 velocity=0 time=0
EXTRACT: note_off channel=1 note=77 velocity=0 time=0
EXTRACT: note_on channel=1 note=79 velocity=89 time=0
EXTRACT: note_on channel=1 note=72 velocity=89 time=0
EXTRACT: note_off channel=2 note=58 velocity=0 time=0
EXTRACT: note_on channel=2 note=48 velocity=89 time=0
EXTRACT: note_off channel=6 note=70 velocity=0 time=0
EXTRACT: note_off channel=6 note=77 velocity=0 time=0
EXTRACT: note_on channel=6 note=79 velocity=89 time=0
EXTRACT: note_on channel=6 note=72 velocity=89 time=0
EXTRACT: note_off channel=7 note=58 velocity=0 time=0
EXTRACT: note_on channel=7 note=48 velocity=89 time=0
EXTRACT: note_off channel=8 note=60 velocity=0 time=0
EXTRACT: note_on channel=8 note=60 velocity=89 time=0
EXTRACT: note_off channel=0 note=60 velocity=0 time=0.7258065
EXTRACT: note_off channel=1 note=72 velocity=0 time=0
EXTRACT: note_off channel=1 note=79 velocity=0 time=0
EXTRACT: note_on channel=1 note=67 velocity=89 time=0
EXTRACT: note_on channel=1 note=72 velocity=89 time=0
EXTRACT: note_off channel=6 note=72 velocity=0 time=0
EXTRACT: note_off channel=6 note=79 velocity=0 time=0
EXTRACT: note_on channel=6 note=67 velocity=89 time=0
EXTRACT: note_on channel=6 note=72 velocity=89 time=0
EXTRACT: note_off channel=8 note=60 velocity=0 time=0
EXTRACT: note_on channel=0 note=65 velocity=89 time=0
EXTRACT: note_on channel=8 note=65 velocity=89 time=0
EXTRACT: note_off channel=2 note=48 velocity=0 time=0.24193550000000003
EXTRACT: note_on channel=2 note=60 velocity=89 time=0
EXTRACT: note_off channel=7 note=48 velocity=0 time=0
EXTRACT: note_on channel=7 note=60 velocity=89 time=0
EXTRACT: note_off channel=0 note=65 velocity=0 time=0
EXTRACT: note_on channel=0 note=67 velocity=89 time=0
EXTRACT: note_off channel=8 note=65 velocity=0 time=0
EXTRACT: note_on channel=8 note=67 velocity=89 time=0
EXTRACT: note_off channel=1 note=72 velocity=0 time=0.16129033333333334
EXTRACT: note_off channel=1 note=67 velocity=0 time=0
EXTRACT: note_on channel=1 note=67 velocity=89 time=0
EXTRACT: note_on channel=1 note=72 velocity=89 time=0
EXTRACT: note_off channel=6 note=72 velocity=0 time=0
EXTRACT: note_off channel=6 note=67 velocity=0 time=0
EXTRACT: note_on channel=6 note=67 velocity=89 time=0
EXTRACT: note_on channel=6 note=72 velocity=89 time=0
EXTRACT: note_off channel=0 note=67 velocity=0 time=0
EXTRACT: note_on channel=0 note=67 velocity=89 time=0
EXTRACT: note_off channel=8 note=67 velocity=0 time=0
EXTRACT: note_on channel=8 note=67 velocity=89 time=0
EXTRACT: note_off channel=0 note=67 velocity=0 time=0
EXTRACT: note_on channel=0 note=67 velocity=89 time=0
EXTRACT: note_off channel=1 note=72 velocity=0 time=0
EXTRACT: note_off channel=1 note=67 velocity=0 time=0
EXTRACT: note_on channel=1 note=75 velocity=89 time=0
EXTRACT: note_on channel=1 note=72 velocity=89 time=0
EXTRACT: note_on channel=1 note=67 velocity=89 time=0
EXTRACT: note_off channel=2 note=60 velocity=0 time=0
EXTRACT: note_on channel=2 note=56 velocity=89 time=0
EXTRACT: note_off channel=6 note=72 velocity=0 time=0
EXTRACT: note_off channel=6 note=67 velocity=0 time=0
EXTRACT: note_on channel=6 note=75 velocity=89 time=0
EXTRACT: note_on channel=6 note=72 velocity=89 time=0
EXTRACT: note_on channel=6 note=67 velocity=89 time=0
EXTRACT: note_off channel=7 note=60 velocity=0 time=0
EXTRACT: note_on channel=7 note=56 velocity=89 time=0
EXTRACT: note_off channel=8 note=67 velocity=0 time=0
EXTRACT: note_on channel=8 note=67 velocity=89 time=0
EXTRACT: note_off channel=0 note=67 velocity=0 time=0
EXTRACT: note_on channel=0 note=65 velocity=89 time=0
EXTRACT: note_off channel=8 note=67 velocity=0 time=0
EXTRACT: note_on channel=8 note=65 velocity=89 time=0
EXTRACT: note_off channel=0 note=65 velocity=0 time=0
EXTRACT: note_on channel=0 note=67 velocity=89 time=0
EXTRACT: note_off channel=8 note=65 velocity=0 time=0
EXTRACT: note_on channel=8 note=67 velocity=89 time=0
EXTRACT: note_off channel=1 note=67 velocity=0 time=0.24193550000000003
EXTRACT: note_off channel=1 note=72 velocity=0 time=0
EXTRACT: note_off channel=1 note=75 velocity=0 time=0
EXTRACT: note_on channel=1 note=72 velocity=89 time=0
EXTRACT: note_on channel=1 note=67 velocity=89 time=0
EXTRACT: note_on channel=1 note=75 velocity=89 time=0
EXTRACT: note_off channel=6 note=67 velocity=0 time=0
EXTRACT: note_off channel=6 note=72 velocity=0 time=0
EXTRACT: note_off channel=6 note=75 velocity=0 time=0
EXTRACT: note_on channel=6 note=72 velocity=89 time=0
EXTRACT: note_on channel=6 note=67 velocity=89 time=0
EXTRACT: note_on channel=6 note=75 velocity=89 time=0
EXTRACT: note_off channel=0 note=67 velocity=0 time=0
EXTRACT: note_on channel=0 note=67 velocity=89 time=0
EXTRACT: note_off channel=8 note=67 velocity=0 time=0
EXTRACT: note_on channel=8 note=67 velocity=89 time=0
EXTRACT: note_off channel=0 note=67 velocity=0 time=0
EXTRACT: note_on channel=0 note=65 velocity=89 time=0
EXTRACT: note_off channel=2 note=56 velocity=0 time=0
EXTRACT: note_on channel=2 note=56 velocity=89 time=0
EXTRACT: note_off channel=7 note=56 velocity=0 time=0
EXTRACT: note_on channel=7 note=56 velocity=89 time=0
EXTRACT: note_off channel=8 note=67 velocity=0 time=0
EXTRACT: note_on channel=8 note=65 velocity=89 time=0
EXTRACT: note_off channel=0 note=65 velocity=0 time=0
EXTRACT: note_on channel=0 note=63 velocity=89 time=0
EXTRACT: note_off channel=1 note=75 velocity=0 time=0
EXTRACT: note_off channel=1 note=67 velocity=0 time=0
EXTRACT: note_off channel=1 note=72 velocity=0 time=0
EXTRACT: note_on channel=1 note=72 velocity=89 time=0
EXTRACT: note_on channel=1 note=67 velocity=89 time=0
EXTRACT: note_on channel=1 note=75 velocity=89 time=0
EXTRACT: note_off channel=6 note=75 velocity=0 time=0
EXTRACT: note_off channel=6 note=67 velocity=0 time=0
EXTRACT: note_off channel=6 note=72 velocity=0 time=0
EXTRACT: note_on channel=6 note=72 velocity=89 time=0
EXTRACT: note_on channel=6 note=67 velocity=89 time=0
EXTRACT: note_on channel=6 note=75 velocity=89 time=0
EXTRACT: note_off channel=8 note=65 velocity=0 time=0
EXTRACT: note_on channel=8 note=63 velocity=89 time=0
EXTRACT: note_off channel=0 note=63 velocity=0 time=0
EXTRACT: note_on channel=0 note=63 velocity=89 time=0
EXTRACT: note_off channel=8 note=63 velocity=0 time=0
EXTRACT: note_on channel=8 note=63 velocity=89 time=0
EXTRACT: note_off channel=1 note=75 velocity=0 time=0
EXTRACT: note_off channel=1 note=67 velocity=0 time=0
EXTRACT: note_off channel=1 note=72 velocity=0 time=0
EXTRACT: note_on channel=1 note=75 velocity=89 time=0
EXTRACT: note_on channel=1 note=72 velocity=89 time=0
EXTRACT: note_on channel=1 note=67 velocity=89 time=0
EXTRACT: note_off channel=2 note=56 velocity=0 time=0
EXTRACT: note_on channel=2 note=51 velocity=89 time=0
EXTRACT: note_off channel=6 note=75 velocity=0 time=0
EXTRACT: note_off channel=6 note=67 velocity=0 time=0
EXTRACT: note_off channel=6 note=72 velocity=0 time=0
EXTRACT: note_on channel=6 note=75 velocity=89 time=0
EXTRACT: note_on channel=6 note=72 velocity=89 time=0
EXTRACT: note_on channel=6 note=67 velocity=89 time=0
EXTRACT: note_off channel=7 note=56 velocity=0 time=0
EXTRACT: note_on channel=7 note=51 velocity=89 time=0
EXTRACT: note_off channel=0 note=63 velocity=0 time=0.48387100000000005
EXTRACT: note_off channel=8 note=63 velocity=0 time=0
EXTRACT: note_off channel=1 note=67 velocity=0 time=0.24193550000000003
EXTRACT: note_off channel=1 note=72 velocity=0 time=0
EXTRACT: note_off channel=1 note=75 velocity=0 time=0
EXTRACT: note_on channel=1 note=77 velocity=89 time=0
EXTRACT: note_on channel=1 note=72 velocity=89 time=0
EXTRACT: note_on channel=1 note=67 velocity=89 time=0
EXTRACT: note_off channel=6 note=67 velocity=0 time=0
EXTRACT: note_off channel=6 note=72 velocity=0 time=0
EXTRACT: note_off channel=6 note=75 velocity=0 time=0
EXTRACT: note_on channel=6 note=77 velocity=89 time=0
EXTRACT: note_on channel=6 note=72 velocity=89 time=0
EXTRACT: note_on channel=6 note=67 velocity=89 time=0
EXTRACT: note_on channel=0 note=67 velocity=89 time=0
EXTRACT: note_on channel=8 note=67 velocity=89 time=0
EXTRACT: note_off channel=0 note=67 velocity=0 time=0
EXTRACT: note_on channel=0 note=65 velocity=89 time=0
EXTRACT: note_off channel=2 note=51 velocity=0 time=0
EXTRACT: note_on channel=2 note=63 velocity=89 time=0
EXTRACT: note_off channel=7 note=51 velocity=0 time=0
EXTRACT: note_on channel=7 note=63 velocity=89 time=0
EXTRACT: note_off channel=8 note=67 velocity=0 time=0
EXTRACT: note_on channel=8 note=65 velocity=89 time=0
EXTRACT: note_off channel=0 note=65 velocity=0 time=0
EXTRACT: note_on channel=0 note=67 velocity=89 time=0
EXTRACT: note_off channel=1 note=67 velocity=0 time=0
EXTRACT: note_off channel=1 note=72 velocity=0 time=0
EXTRACT: note_off channel=1 note=77 velocity=0 time=0
EXTRACT: note_on channel=1 note=77 velocity=89 time=0
EXTRACT: note_on channel=1 note=72 velocity=89 time=0
EXTRACT: note_on channel=1 note=67 velocity=89 time=0
EXTRACT: note_off channel=2 note=63 velocity=0 time=0
EXTRACT: note_on channel=2 note=63 velocity=89 time=0
EXTRACT: note_off channel=6 note=67 velocity=0 time=0
EXTRACT: note_off channel=6 note=72 velocity=0 time=0
EXTRACT: note_off channel=6 note=77 velocity=0 time=0
EXTRACT: note_on channel=6 note=77 velocity=89 time=0
EXTRACT: note_on channel=6 note=72 velocity=89 time=0
EXTRACT: note_on channel=6 note=67 velocity=89 time=0
EXTRACT: note_off channel=7 note=63 velocity=0 time=0
EXTRACT: note_on channel=7 note=63 velocity=89 time=0
EXTRACT: note_off channel=8 note=65 velocity=0 time=0
EXTRACT: note_on channel=8 note=67 velocity=89 time=0
EXTRACT: note_off channel=0 note=67 velocity=0 time=0
EXTRACT: note_on channel=0 note=70 velocity=89 time=0
EXTRACT: note_off channel=1 note=67 velocity=0 time=0
EXTRACT: note_off channel=1 note=72 velocity=0 time=0
EXTRACT: note_off channel=1 note=77 velocity=0 time=0
EXTRACT: note_on channel=1 note=65 velocity=89 time=0
EXTRACT: note_on channel=1 note=70 velocity=89 time=0
EXTRACT: note_on channel=1 note=74 velocity=89 time=0
EXTRACT: note_off channel=2 note=63 velocity=0 time=0
EXTRACT: note_on channel=2 note=58 velocity=89 time=0
EXTRACT: note_off channel=6 note=67 velocity=0 time=0
EXTRACT: note_off channel=6 note=72 velocity=0 time=0
EXTRACT: note_off channel=6 note=77 velocity=0 time=0
EXTRACT: note_on channel=6 note=65 velocity=89 time=0
EXTRACT: note_on channel=6 note=70 velocity=89 time=0
EXTRACT: note_on channel=6 note=74 velocity=89 time=0
EXTRACT: note_off channel=7 note=63 velocity=0 time=0
EXTRACT: note_on channel=7 note=58 velocity=89 time=0
EXTRACT: note_off channel=8 note=67 velocity=0 time=0
EXTRACT: note_on channel=8 note=70 velocity=89 time=0
EXTRACT: note_off channel=0 note=70 velocity=0 time=0
EXTRACT: note_on channel=0 note=68 velocity=89 time=0
EXTRACT: note_off channel=8 note=70 velocity=0 time=0
EXTRACT: note_on channel=8 note=68 velocity=89 time=0
EXTRACT: note_off channel=0 note=68 velocity=0 time=0
EXTRACT: note_on channel=0 note=67 velocity=89 time=0
EXTRACT: note_off channel=8 note=68 velocity=0 time=0
EXTRACT: note_on channel=8 note=67 velocity=89 time=0
EXTRACT: note_off channel=1 note=74 velocity=0 time=0.24193550000000003
EXTRACT: note_off channel=1 note=70 velocity=0 time=0
EXTRACT: note_off channel=1 note=65 velocity=0 time=0
EXTRACT: note_on channel=1 note=65 velocity=89 time=0
EXTRACT: note_on channel=1 note=70 velocity=89 time=0
EXTRACT: note_on channel=1 note=74 velocity=89 time=0
EXTRACT: note_off channel=6 note=74 velocity=0 time=0
EXTRACT: note_off channel=6 note=70 velocity=0 time=0
EXTRACT: note_off channel=6 note=65 velocity=0 time=0
EXTRACT: note_on channel=6 note=65 velocity=89 time=0
EXTRACT: note_on channel=6 note=70 velocity=89 time=0
EXTRACT: note_on channel=6 note=74 velocity=89 time=0
EXTRACT: note_off channel=0 note=67 velocity=0 time=0
EXTRACT: note_on channel=0 note=67 velocity=89 time=0
EXTRACT: note_off channel=8 note=67 velocity=0 time=0
EXTRACT: note_on channel=8 note=67 velocity=89 time=0
EXTRACT: note_off channel=0 note=67 velocity=0 time=0
EXTRACT: note_on channel=0 note=65 velocity=89 time=0
EXTRACT: note_off channel=2 note=58 velocity=0 time=0
EXTRACT: note_on channel=2 note=58 velocity=89 time=0
EXTRACT: note_off channel=7 note=58 velocity=0 time=0
EXTRACT: note_on channel=7 note=58 velocity=89 time=0
EXTRACT: note_off channel=8 note=67 velocity=0 time=0
EXTRACT: note_on channel=8 note=65 velocity=89 time=0
EXTRACT: note_off channel=0 note=65 velocity=0 time=0
EXTRACT: note_on channel=0 note=63 velocity=89 time=0
EXTRACT: note_off channel=1 note=74 velocity=0 time=0
EXTRACT: note_off channel=1 note=70 velocity=0 time=0
EXTRACT: note_off channel=1 note=65 velocity=0 time=0
EXTRACT: note_on channel=1 note=65 velocity=89 time=0
EXTRACT: note_on channel=1 note=70 velocity=89 time=0
EXTRACT: note_on channel=1 note=74 velocity=89 time=0
EXTRACT: note_off channel=6 note=74 velocity=0 time=0
EXTRACT: note_off channel=6 note=70 velocity=0 time=0
EXTRACT: note_off channel=6 note=65 velocity=0 time=0
EXTRACT: note_on channel=6 note=65 velocity=89 time=0
EXTRACT: note_on channel=6 note=70 velocity=89 time=0
EXTRACT: note_on channel=6 note=74 velocity=89 time=0
EXTRACT: note_off channel=8 note=65 velocity=0 time=0
EXTRACT: note_on channel=8 note=63 velocity=89 time=0
EXTRACT: note_off channel=0 note=63 velocity=0 time=0
EXTRACT: note_on channel=0 note=63 velocity=89 time=0
EXTRACT: note_off channel=8 note=63 velocity=0 time=0
EXTRACT: note_on channel=8 note=63 velocity=89 time=0
EXTRACT: note_off channel=0 note=63 velocity=0 time=0
EXTRACT: note_on channel=0 note=60 velocity=89 time=0
EXTRACT: note_off channel=1 note=74 velocity=0 time=0
EXTRACT: note_off channel=1 note=70 velocity=0 time=0
EXTRACT: note_off channel=1 note=65 velocity=0 time=0
EXTRACT: note_on channel=1 note=75 velocity=89 time=0
EXTRACT: note_on channel=1 note=72 velocity=89 time=0
EXTRACT: note_on channel=1 note=67 velocity=89 time=0
EXTRACT: note_off channel=2 note=58 velocity=0 time=0
EXTRACT: note_on channel=2 note=60 velocity=89 time=0
EXTRACT: note_off channel=6 note=74 velocity=0 time=0
EXTRACT: note_off channel=6 note=70 velocity=0 time=0
EXTRACT: note_off channel=6 note=65 velocity=0 time=0
EXTRACT: note_on channel=6 note=75 velocity=89 time=0
EXTRACT: note_on channel=6 note=72 velocity=89 time=0
EXTRACT: note_on channel=6 note=67 velocity=89 time=0
EXTRACT: note_off channel=7 note=58 velocity=0 time=0
EXTRACT: note_on channel=7 note=60 velocity=89 time=0
EXTRACT: note_off channel=8 note=63 velocity=0 time=0
EXTRACT: note_on channel=8 note=60 velocity=89 time=0
EXTRACT: note_off channel=0 note=60 velocity=0 time=0.7258065
EXTRACT: note_off channel=1 note=67 velocity=0 time=0
EXTRACT: note_off channel=1 note=72 velocity=0 time=0
EXTRACT: note_off channel=1 note=75 velocity=0 time=0
EXTRACT: note_on channel=1 note=72 velocity=89 time=0
EXTRACT: note_on channel=1 note=67 velocity=89 time=0
EXTRACT: note_on channel=1 note=75 velocity=89 time=0
EXTRACT: note_off channel=2 note=60 velocity=0 time=0
EXTRACT: note_on channel=2 note=48 velocity=89 time=0
EXTRACT: note_off channel=6 note=67 velocity=0 time=0
EXTRACT: note_off channel=6 note=72 velocity=0 time=0
EXTRACT: note_off channel=6 note=75 velocity=0 time=0
EXTRACT: note_on channel=6 note=72 velocity=89 time=0
EXTRACT: note_on channel=6 note=67 velocity=89 time=0
EXTRACT: note_on channel=6 note=75 velocity=89 time=0
EXTRACT: note_off channel=7 note=60 velocity=0 time=0
EXTRACT: note_on channel=7 note=48 velocity=89 time=0
EXTRACT: note_off channel=8 note=60 velocity=0 time=0
EXTRACT: note_on channel=0 note=67 velocity=89 time=0
EXTRACT: note_on channel=8 note=67 velocity=89 time=0
EXTRACT: note_off channel=0 note=67 velocity=0 time=0
EXTRACT: note_on channel=0 note=67 velocity=89 time=0
EXTRACT: note_off channel=2 note=48 velocity=0 time=0
EXTRACT: note_on channel=2 note=60 velocity=89 time=0
EXTRACT: note_off channel=7 note=48 velocity=0 time=0
EXTRACT: note_on channel=7 note=60 velocity=89 time=0
EXTRACT: note_off channel=8 note=67 velocity=0 time=0
EXTRACT: note_on channel=8 note=67 velocity=89 time=0
EXTRACT: note_off channel=1 note=75 velocity=0 time=0
EXTRACT: note_off channel=1 note=67 velocity=0 time=0
EXTRACT: note_off channel=1 note=72 velocity=0 time=0
EXTRACT: note_on channel=1 note=72 velocity=89 time=0
EXTRACT: note_on channel=1 note=67 velocity=89 time=0
EXTRACT: note_on channel=1 note=75 velocity=89 time=0
EXTRACT: note_off channel=6 note=75 velocity=0 time=0
EXTRACT: note_off channel=6 note=67 velocity=0 time=0
EXTRACT: note_off channel=6 note=72 velocity=0 time=0
EXTRACT: note_on channel=6 note=72 velocity=89 time=0
EXTRACT: note_on channel=6 note=67 velocity=89 time=0
EXTRACT: note_on channel=6 note=75 velocity=89 time=0
EXTRACT: note_off channel=0 note=67 velocity=0 time=0
EXTRACT: note_on channel=0 note=68 velocity=89 time=0
EXTRACT: note_off channel=1 note=75 velocity=0 time=0
EXTRACT: note_off channel=1 note=67 velocity=0 time=0
EXTRACT: note_off channel=1 note=72 velocity=0 time=0
EXTRACT: note_on channel=1 note=75 velocity=89 time=0
EXTRACT: note_on channel=1 note=72 velocity=89 time=0
EXTRACT: note_on channel=1 note=70 velocity=89 time=0
EXTRACT: note_off channel=2 note=60 velocity=0 time=0
EXTRACT: note_on channel=2 note=56 velocity=89 time=0
EXTRACT: note_off channel=6 note=75 velocity=0 time=0
EXTRACT: note_off channel=6 note=67 velocity=0 time=0
EXTRACT: note_off channel=6 note=72 velocity=0 time=0
EXTRACT: note_on channel=6 note=75 velocity=89 time=0
EXTRACT: note_on channel=6 note=72 velocity=89 time=0
EXTRACT: note_on channel=6 note=70 velocity=89 time=0
EXTRACT: note_off channel=7 note=60 velocity=0 time=0
EXTRACT: note_on channel=7 note=56 velocity=89 time=0
EXTRACT: note_off channel=8 note=67 velocity=0 time=0
EXTRACT: note_on channel=8 note=68 velocity=89 time=0
EXTRACT: note_off channel=1 note=70 velocity=0 time=0.7258065
EXTRACT: note_off channel=1 note=72 velocity=0 time=0
EXTRACT: note_off channel=1 note=75 velocity=0 time=0
EXTRACT: note_on channel=1 note=75 velocity=89 time=0
EXTRACT: note_on channel=1 note=72 velocity=89 time=0
EXTRACT: note_on channel=1 note=70 velocity=89 time=0
EXTRACT: note_off channel=6 note=70 velocity=0 time=0
EXTRACT: note_off channel=6 note=72 velocity=0 time=0
EXTRACT: note_off channel=6 note=75 velocity=0 time=0
EXTRACT: note_on channel=6 note=75 velocity=89 time=0
EXTRACT: note_on channel=6 note=72 velocity=89 time=0
EXTRACT: note_on channel=6 note=70 velocity=89 time=0
EXTRACT: note_off channel=0 note=68 velocity=0 time=0
EXTRACT: note_on channel=0 note=67 velocity=89 time=0
EXTRACT: note_off channel=1 note=70 velocity=0 time=0
EXTRACT: note_off channel=1 note=72 velocity=0 time=0
EXTRACT: note_off channel=1 note=75 velocity=0 time=0
EXTRACT: note_on channel=1 note=75 velocity=89 time=0
EXTRACT: note_on channel=1 note=72 velocity=89 time=0
EXTRACT: note_on channel=1 note=70 velocity=89 time=0
EXTRACT: note_off channel=6 note=70 velocity=0 time=0
EXTRACT: note_off channel=6 note=72 velocity=0 time=0
EXTRACT: note_off channel=6 note=75 velocity=0 time=0
EXTRACT: note_on channel=6 note=75 velocity=89 time=0
EXTRACT: note_on channel=6 note=72 velocity=89 time=0
EXTRACT: note_on channel=6 note=70 velocity=89 time=0
EXTRACT: note_off channel=8 note=68 velocity=0 time=0
EXTRACT: note_on channel=8 note=67 velocity=89 time=0
EXTRACT: note_off channel=0 note=67 velocity=0 time=0
EXTRACT: note_on channel=0 note=63 velocity=89 time=0
EXTRACT: note_off channel=2 note=56 velocity=0 time=0
EXTRACT: note_on channel=2 note=56 velocity=89 time=0
EXTRACT: note_off channel=7 note=56 velocity=0 time=0
EXTRACT: note_on channel=7 note=56 velocity=89 time=0
EXTRACT: note_off channel=8 note=67 velocity=0 time=0
EXTRACT: note_on channel=8 note=63 velocity=89 time=0
EXTRACT: note_off channel=0 note=63 velocity=0 time=0.24193550000000003
EXTRACT: note_off channel=1 note=70 velocity=0 time=0
EXTRACT: note_off channel=1 note=72 velocity=0 time=0
EXTRACT: note_off channel=1 note=75 velocity=0 time=0
EXTRACT: note_on channel=1 note=75 velocity=89 time=0
EXTRACT: note_on channel=1 note=72 velocity=89 time=0
EXTRACT: note_on channel=1 note=70 velocity=89 time=0
EXTRACT: note_off channel=6 note=70 velocity=0 time=0
EXTRACT: note_off channel=6 note=72 velocity=0 time=0
EXTRACT: note_off channel=6 note=75 velocity=0 time=0
EXTRACT: note_on channel=6 note=75 velocity=89 time=0
EXTRACT: note_on channel=6 note=72 velocity=89 time=0
EXTRACT: note_on channel=6 note=70 velocity=89 time=0
EXTRACT: note_off channel=8 note=63 velocity=0 time=0
EXTRACT: note_on channel=0 note=63 velocity=89 time=0
EXTRACT: note_on channel=8 note=63 velocity=89 time=0
EXTRACT: note_off channel=0 note=63 velocity=0 time=0
EXTRACT: note_on channel=0 note=67 velocity=89 time=0
EXTRACT: note_off channel=1 note=70 velocity=0 time=0
EXTRACT: note_off channel=1 note=72 velocity=0 time=0
EXTRACT: note_off channel=1 note=75 velocity=0 time=0
EXTRACT: note_on channel=1 note=75 velocity=89 time=0
EXTRACT: note_on channel=1 note=67 velocity=89 time=0
EXTRACT: note_on channel=1 note=70 velocity=89 time=0
EXTRACT: note_off channel=2 note=56 velocity=0 time=0
EXTRACT: note_on channel=2 note=51 velocity=89 time=0
EXTRACT: note_off channel=6 note=70 velocity=0 time=0
EXTRACT: note_off channel=6 note=72 velocity=0 time=0
EXTRACT: note_off channel=6 note=75 velocity=0 time=0
EXTRACT: note_on channel=6 note=75 velocity=89 time=0
EXTRACT: note_on channel=6 note=67 velocity=89 time=0
EXTRACT: note_on channel=6 note=70 velocity=89 time=0
EXTRACT: note_off channel=7 note=56 velocity=0 time=0
EXTRACT: note_on channel=7 note=51 velocity=89 time=0
EXTRACT: note_off channel=8 note=63 velocity=0 time=0
EXTRACT: note_on channel=8 note=67 velocity=89 time=0
EXTRACT: note_off channel=0 note=67 velocity=0 time=0
EXTRACT: note_on channel=0 note=68 velocity=89 time=0
EXTRACT: note_off channel=8 note=67 velocity=0 time=0
EXTRACT: note_on channel=8 note=68 velocity=89 time=0
EXTRACT: note_off channel=0 note=68 velocity=0 time=0
EXTRACT: note_on channel=0 note=68 velocity=89 time=0
EXTRACT: note_off channel=8 note=68 velocity=0 time=0
EXTRACT: note_on channel=8 note=68 velocity=89 time=0
EXTRACT: note_off channel=1 note=70 velocity=0 time=0.24193550000000003
EXTRACT: note_off channel=1 note=67 velocity=0 time=0
EXTRACT: note_off channel=1 note=75 velocity=0 time=0
EXTRACT: note_on channel=1 note=67 velocity=89 time=0
EXTRACT: note_on channel=1 note=75 velocity=89 time=0
EXTRACT: note_on channel=1 note=70 velocity=89 time=0
EXTRACT: note_off channel=6 note=70 velocity=0 time=0
EXTRACT: note_off channel=6 note=67 velocity=0 time=0
EXTRACT: note_off channel=6 note=75 velocity=0 time=0
EXTRACT: note_on channel=6 note=67 velocity=89 time=0
EXTRACT: note_on channel=6 note=75 velocity=89 time=0
EXTRACT: note_on channel=6 note=70 velocity=89 time=0
EXTRACT: note_off channel=0 note=68 velocity=0 time=0
EXTRACT: note_on channel=0 note=67 velocity=89 time=0
EXTRACT: note_off channel=8 note=68 velocity=0 time=0
EXTRACT: note_on channel=8 note=67 velocity=89 time=0
EXTRACT: note_off channel=0 note=67 velocity=0 time=0
EXTRACT: note_on channel=0 note=63 velocity=89 time=0
EXTRACT: note_off channel=2 note=51 velocity=0 time=0
EXTRACT: note_on channel=2 note=63 velocity=89 time=0
EXTRACT: note_off channel=7 note=51 velocity=0 time=0
EXTRACT: note_on channel=7 note=63 velocity=89 time=0
EXTRACT: note_off channel=8 note=67 velocity=0 time=0
EXTRACT: note_on channel=8 note=63 velocity=89 time=0
EXTRACT: note_off channel=0 note=63 velocity=0 time=0.24193550000000003
EXTRACT: note_off channel=1 note=70 velocity=0 time=0
EXTRACT: note_off channel=1 note=75 velocity=0 time=0
EXTRACT: note_off channel=1 note=67 velocity=0 time=0
EXTRACT: note_on channel=1 note=67 velocity=89 time=0
EXTRACT: note_on channel=1 note=75 velocity=89 time=0
EXTRACT: note_on channel=1 note=70 velocity=89 time=0
EXTRACT: note_off channel=2 note=63 velocity=0 time=0
EXTRACT: note_on channel=2 note=63 velocity=89 time=0
EXTRACT: note_off channel=6 note=70 velocity=0 time=0
EXTRACT: note_off channel=6 note=75 velocity=0 time=0
EXTRACT: note_off channel=6 note=67 velocity=0 time=0
EXTRACT: note_on channel=6 note=67 velocity=89 time=0
EXTRACT: note_on channel=6 note=75 velocity=89 time=0
EXTRACT: note_on channel=6 note=70 velocity=89 time=0
EXTRACT: note_off channel=7 note=63 velocity=0 time=0
EXTRACT: note_on channel=7 note=63 velocity=89 time=0
EXTRACT: note_off channel=8 note=63 velocity=0 time=0
EXTRACT: note_on channel=0 note=63 velocity=89 time=0
EXTRACT: note_on channel=8 note=63 velocity=89 time=0
EXTRACT: note_off channel=0 note=63 velocity=0 time=0
EXTRACT: note_on channel=0 note=65 velocity=89 time=0
EXTRACT: note_off channel=1 note=70 velocity=0 time=0
EXTRACT: note_off channel=1 note=75 velocity=0 time=0
EXTRACT: note_off channel=1 note=67 velocity=0 time=0
EXTRACT: note_on channel=1 note=74 velocity=89 time=0
EXTRACT: note_on channel=1 note=70 velocity=89 time=0
EXTRACT: note_on channel=1 note=65 velocity=89 time=0
EXTRACT: note_off channel=2 note=63 velocity=0 time=0
EXTRACT: note_on channel=2 note=58 velocity=89 time=0
EXTRACT: note_off channel=6 note=70 velocity=0 time=0
EXTRACT: note_off channel=6 note=75 velocity=0 time=0
EXTRACT: note_off channel=6 note=67 velocity=0 time=0
EXTRACT: note_on channel=6 note=74 velocity=89 time=0
EXTRACT: note_on channel=6 note=70 velocity=89 time=0
EXTRACT: note_on channel=6 note=65 velocity=89 time=0
EXTRACT: note_off channel=7 note=63 velocity=0 time=0
EXTRACT: note_on channel=7 note=58 velocity=89 time=0
EXTRACT: note_off channel=8 note=63 velocity=0 time=0
EXTRACT: note_on channel=8 note=65 velocity=89 time=0
EXTRACT: note_off channel=1 note=65 velocity=0 time=0.7258065
EXTRACT: note_off channel=1 note=70 velocity=0 time=0
EXTRACT: note_off channel=1 note=74 velocity=0 time=0
EXTRACT: note_on channel=1 note=77 velocity=89 time=0
EXTRACT: note_off channel=6 note=65 velocity=0 time=0
EXTRACT: note_off channel=6 note=70 velocity=0 time=0
EXTRACT: note_off channel=6 note=74 velocity=0 time=0
EXTRACT: note_on channel=6 note=77 velocity=89 time=0
EXTRACT: note_off channel=0 note=65 velocity=0 time=0
EXTRACT: note_on channel=0 note=67 velocity=89 time=0
EXTRACT: note_off channel=1 note=77 velocity=0 time=0
EXTRACT: note_on channel=1 note=65 velocity=89 time=0
EXTRACT: note_off channel=6 note=77 velocity=0 time=0
EXTRACT: note_on channel=6 note=65 velocity=89 time=0
EXTRACT: note_off channel=8 note=65 velocity=0 time=0
EXTRACT: note_on channel=8 note=67 velocity=89 time=0
EXTRACT: note_off channel=0 note=67 velocity=0 time=0
EXTRACT: note_on channel=0 note=65 velocity=89 time=0
EXTRACT: note_off channel=2 note=58 velocity=0 time=0
EXTRACT: note_on channel=2 note=58 velocity=89 time=0
EXTRACT: note_off channel=7 note=58 velocity=0 time=0
EXTRACT: note_on channel=7 note=58 velocity=89 time=0
EXTRACT: note_off channel=8 note=67 velocity=0 time=0
EXTRACT: note_on channel=8 note=65 velocity=89 time=0
EXTRACT: note_off channel=1 note=65 velocity=0 time=0
EXTRACT: note_on channel=1 note=65 velocity=89 time=0
EXTRACT: note_off channel=6 note=65 velocity=0 time=0
EXTRACT: note_on channel=6 note=65 velocity=89 time=0
EXTRACT: note_off channel=1 note=65 velocity=0 time=0.24193550000000003
EXTRACT: note_on channel=1 note=77 velocity=89 time=0
EXTRACT: note_off channel=6 note=65 velocity=0 time=0
EXTRACT: note_on channel=6 note=77 velocity=89 time=0
EXTRACT: note_off channel=0 note=65 velocity=0 time=0
EXTRACT: note_on channel=0 note=68 velocity=89 time=0
EXTRACT: note_off channel=1 note=77 velocity=0 time=0
EXTRACT: note_on channel=1 note=67 velocity=89 time=0
EXTRACT: note_off channel=2 note=58 velocity=0 time=0
EXTRACT: note_on channel=2 note=53 velocity=89 time=0
EXTRACT: note_off channel=6 note=77 velocity=0 time=0
EXTRACT: note_on channel=6 note=67 velocity=89 time=0
EXTRACT: note_off channel=7 note=58 velocity=0 time=0
EXTRACT: note_on channel=7 note=53 velocity=89 time=0
EXTRACT: note_off channel=8 note=65 velocity=0 time=0
EXTRACT: note_on channel=8 note=68 velocity=89 time=0
EXTRACT: note_off channel=1 note=67 velocity=0 time=0.24193550000000003
EXTRACT: note_on channel=1 note=68 velocity=89 time=0
EXTRACT: note_off channel=6 note=67 velocity=0 time=0
EXTRACT: note_on channel=6 note=68 velocity=89 time=0
EXTRACT: note_off channel=1 note=68 velocity=0 time=0.24193550000000003
EXTRACT: note_on channel=1 note=72 velocity=89 time=0
EXTRACT: note_off channel=6 note=68 velocity=0 time=0
EXTRACT: note_on channel=6 note=72 velocity=89 time=0
EXTRACT: note_off channel=1 note=72 velocity=0 time=0.24193550000000003
EXTRACT: note_on channel=1 note=77 velocity=89 time=0
EXTRACT: note_off channel=2 note=53 velocity=0 time=0
EXTRACT: note_on channel=2 note=65 velocity=89 time=0
EXTRACT: note_off channel=6 note=72 velocity=0 time=0
EXTRACT: note_on channel=6 note=77 velocity=89 time=0
EXTRACT: note_off channel=7 note=53 velocity=0 time=0
EXTRACT: note_on channel=7 note=65 velocity=89 time=0
EXTRACT: note_off channel=1 note=77 velocity=0 time=0
EXTRACT: note_on channel=1 note=67 velocity=89 time=0
EXTRACT: note_off channel=6 note=77 velocity=0 time=0
EXTRACT: note_on channel=6 note=67 velocity=89 time=0
EXTRACT: note_off channel=0 note=68 velocity=0 time=0.24193550000000003
EXTRACT: note_off channel=1 note=67 velocity=0 time=0
EXTRACT: note_on channel=1 note=68 velocity=89 time=0
EXTRACT: note_off channel=6 note=67 velocity=0 time=0
EXTRACT: note_on channel=6 note=68 velocity=89 time=0
EXTRACT: note_off channel=8 note=68 velocity=0 time=0
EXTRACT: note_off channel=1 note=68 velocity=0 time=0.24193550000000003
EXTRACT: note_on channel=1 note=72 velocity=89 time=0
EXTRACT: note_off channel=6 note=68 velocity=0 time=0
EXTRACT: note_on channel=6 note=72 velocity=89 time=0
EXTRACT: note_on channel=0 note=63 velocity=89 time=0
EXTRACT: note_off channel=1 note=72 velocity=0 time=0
EXTRACT: note_on channel=1 note=77 velocity=89 time=0
EXTRACT: note_off channel=6 note=72 velocity=0 time=0
EXTRACT: note_on channel=6 note=77 velocity=89 time=0
EXTRACT: note_on channel=8 note=63 velocity=89 time=0
EXTRACT: note_off channel=0 note=63 velocity=0 time=0
EXTRACT: note_on channel=0 note=70 velocity=89 time=0
EXTRACT: note_off channel=1 note=77 velocity=0 time=0
EXTRACT: note_on channel=1 note=80 velocity=89 time=0
EXTRACT: note_off channel=2 note=65 velocity=0 time=0
EXTRACT: note_off channel=6 note=77 velocity=0 time=0
EXTRACT: note_on channel=6 note=80 velocity=89 time=0
EXTRACT: note_off channel=7 note=65 velocity=0 time=0
EXTRACT: note_off channel=8 note=63 velocity=0 time=0
EXTRACT: note_on channel=8 note=70 velocity=89 time=0
EXTRACT: note_off channel=0 note=70 velocity=0 time=0
EXTRACT: note_on channel=0 note=72 velocity=89 time=0
EXTRACT: note_off channel=8 note=70 velocity=0 time=0
EXTRACT: note_on channel=8 note=72 velocity=89 time=0
EXTRACT: note_on channel=2 note=68 velocity=89 time=0.12096775000000001
EXTRACT: note_on channel=7 note=68 velocity=89 time=0
EXTRACT: note_off channel=0 note=72 velocity=0 time=0
EXTRACT: note_on channel=0 note=72 velocity=89 time=0
EXTRACT: note_off channel=2 note=68 velocity=0 time=0
EXTRACT: note_on channel=2 note=65 velocity=89 time=0
EXTRACT: note_off channel=7 note=68 velocity=0 time=0
EXTRACT: note_on channel=7 note=65 velocity=89 time=0
EXTRACT: note_off channel=8 note=72 velocity=0 time=0
EXTRACT: note_on channel=8 note=72 velocity=89 time=0
EXTRACT: note_off channel=0 note=72 velocity=0 time=0
EXTRACT: note_on channel=0 note=70 velocity=89 time=0
EXTRACT: note_off channel=1 note=80 velocity=0 time=0
EXTRACT: note_on channel=1 note=79 velocity=89 time=0
EXTRACT: note_off channel=6 note=80 velocity=0 time=0
EXTRACT: note_on channel=6 note=79 velocity=89 time=0
EXTRACT: note_off channel=8 note=72 velocity=0 time=0
EXTRACT: note_on channel=8 note=70 velocity=89 time=0
EXTRACT: note_off channel=0 note=70 velocity=0 time=0
EXTRACT: note_on channel=0 note=68 velocity=89 time=0
EXTRACT: note_off channel=8 note=70 velocity=0 time=0
EXTRACT: note_on channel=8 note=68 velocity=89 time=0
EXTRACT: note_off channel=0 note=68 velocity=0 time=0
EXTRACT: note_on channel=0 note=68 velocity=89 time=0
EXTRACT: note_off channel=2 note=65 velocity=0 time=0
EXTRACT: note_on channel=2 note=65 velocity=89 time=0
EXTRACT: note_off channel=7 note=65 velocity=0 time=0
EXTRACT: note_on channel=7 note=65 velocity=89 time=0
EXTRACT: note_off channel=8 note=68 velocity=0 time=0
EXTRACT: note_on channel=8 note=68 velocity=89 time=0
EXTRACT: note_off channel=0 note=68 velocity=0 time=0
EXTRACT: note_on channel=0 note=67 velocity=89 time=0
EXTRACT: note_off channel=1 note=79 velocity=0 time=0
EXTRACT: note_on channel=1 note=77 velocity=89 time=0
EXTRACT: note_off channel=6 note=79 velocity=0 time=0
EXTRACT: note_on channel=6 note=77 velocity=89 time=0
EXTRACT: note_off channel=8 note=68 velocity=0 time=0
EXTRACT: note_on channel=8 note=67 velocity=89 time=0
EXTRACT: note_off channel=0 note=67 velocity=0 time=0
EXTRACT: note_on channel=0 note=67 velocity=89 time=0
EXTRACT: note_off channel=8 note=67 velocity=0 time=0
EXTRACT: note_on channel=8 note=67 velocity=89 time=0
EXTRACT: note_off channel=1 note=77 velocity=0 time=0
EXTRACT: note_on channel=1 note=75 velocity=89 time=0
EXTRACT: note_on channel=1 note=67 velocity=89 time=0
EXTRACT: note_on channel=1 note=70 velocity=89 time=0
EXTRACT: note_off channel=2 note=65 velocity=0 time=0
EXTRACT: note_on channel=2 note=51 velocity=89 time=0
EXTRACT: note_off channel=6 note=77 velocity=0 time=0
EXTRACT: note_on channel=6 note=75 velocity=89 time=0
EXTRACT: note_on channel=6 note=67 velocity=89 time=0
EXTRACT: note_on channel=6 note=70 velocity=89 time=0
EXTRACT: note_off channel=7 note=65 velocity=0 time=0
EXTRACT: note_on channel=7 note=51 velocity=89 time=0
EXTRACT: note_off channel=0 note=67 velocity=0 time=0
EXTRACT: note_on channel=0 note=67 velocity=89 time=0
EXTRACT: note_off channel=1 note=70 velocity=0 time=0
EXTRACT: note_off channel=1 note=67 velocity=0 time=0
EXTRACT: note_off channel=1 note=75 velocity=0 time=0
EXTRACT: note_on channel=1 note=67 velocity=89 time=0
EXTRACT: note_on channel=1 note=75 velocity=89 time=0
EXTRACT: note_on channel=1 note=70 velocity=89 time=0
EXTRACT: note_off channel=6 note=70 velocity=0 time=0
EXTRACT: note_off channel=6 note=67 velocity=0 time=0
EXTRACT: note_off channel=6 note=75 velocity=0 time=0
EXTRACT: note_on channel=6 note=67 velocity=89 time=0
EXTRACT: note_on channel=6 note=75 velocity=89 time=0
EXTRACT: note_on channel=6 note=70 velocity=89 time=0
EXTRACT: note_off channel=8 note=67 velocity=0 time=0
EXTRACT: note_on channel=8 note=67 velocity=89 time=0
EXTRACT: note_off channel=0 note=67 velocity=0 time=0
EXTRACT: note_on channel=0 note=65 velocity=89 time=0
EXTRACT: note_off channel=8 note=67 velocity=0 time=0
EXTRACT: note_on channel=8 note=65 velocity=89 time=0
EXTRACT: note_off channel=0 note=65 velocity=0 time=0
EXTRACT: note_on channel=0 note=63 velocity=89 time=0
EXTRACT: note_off channel=8 note=65 velocity=0 time=0
EXTRACT: note_on channel=8 note=63 velocity=89 time=0
EXTRACT: note_off channel=0 note=63 velocity=0 time=0
EXTRACT: note_on channel=0 note=63 velocity=89 time=0
EXTRACT: note_off channel=2 note=51 velocity=0 time=0
EXTRACT: note_on channel=2 note=63 velocity=89 time=0
EXTRACT: note_off channel=7 note=51 velocity=0 time=0
EXTRACT: note_on channel=7 note=63 velocity=89 time=0
EXTRACT: note_off channel=8 note=63 velocity=0 time=0
EXTRACT: note_on channel=8 note=63 velocity=89 time=0
EXTRACT: note_off channel=0 note=63 velocity=0 time=0.24193550000000003
EXTRACT: note_off channel=1 note=70 velocity=0 time=0
EXTRACT: note_off channel=1 note=75 velocity=0 time=0
EXTRACT: note_off channel=1 note=67 velocity=0 time=0
EXTRACT: note_on channel=1 note=70 velocity=89 time=0
EXTRACT: note_off channel=2 note=63 velocity=0 time=0
EXTRACT: note_on channel=2 note=63 velocity=89 time=0
EXTRACT: note_off channel=6 note=70 velocity=0 time=0
EXTRACT: note_off channel=6 note=75 velocity=0 time=0
EXTRACT: note_off channel=6 note=67 velocity=0 time=0
EXTRACT: note_on channel=6 note=70 velocity=89 time=0
EXTRACT: note_off channel=7 note=63 velocity=0 time=0
EXTRACT: note_on channel=7 note=63 velocity=89 time=0
EXTRACT: note_off channel=8 note=63 velocity=0 time=0
EXTRACT: note_on channel=0 note=62 velocity=89 time=0
EXTRACT: note_off channel=1 note=70 velocity=0 time=0
EXTRACT: note_on channel=1 note=74 velocity=89 time=0
EXTRACT: note_off channel=6 note=70 velocity=0 time=0
EXTRACT: note_on channel=6 note=74 velocity=89 time=0
EXTRACT: note_on channel=8 note=62 velocity=89 time=0
EXTRACT: note_off channel=1 note=74 velocity=0 time=0
EXTRACT: note_on channel=1 note=65 velocity=89 time=0
EXTRACT: note_on channel=1 note=70 velocity=89 time=0
EXTRACT: note_on channel=1 note=74 velocity=89 time=0
EXTRACT: note_off channel=2 note=63 velocity=0 time=0
EXTRACT: note_on channel=2 note=58 velocity=89 time=0
EXTRACT: note_off channel=6 note=74 velocity=0 time=0
EXTRACT: note_on channel=6 note=65 velocity=89 time=0
EXTRACT: note_on channel=6 note=70 velocity=89 time=0
EXTRACT: note_on channel=6 note=74 velocity=89 time=0
EXTRACT: note_off channel=7 note=63 velocity=0 time=0
EXTRACT: note_on channel=7 note=58 velocity=89 time=0
EXTRACT: note_off channel=0 note=62 velocity=0 time=0
EXTRACT: note_on channel=0 note=62 velocity=89 time=0
EXTRACT: note_off channel=1 note=74 velocity=0 time=0
EXTRACT: note_off channel=1 note=70 velocity=0 time=0
EXTRACT: note_off channel=1 note=65 velocity=0 time=0
EXTRACT: note_on channel=1 note=65 velocity=89 time=0
EXTRACT: note_on channel=1 note=70 velocity=89 time=0
EXTRACT: note_off channel=6 note=74 velocity=0 time=0
EXTRACT: note_off channel=6 note=70 velocity=0 time=0
EXTRACT: note_off channel=6 note=65 velocity=0 time=0
EXTRACT: note_on channel=6 note=65 velocity=89 time=0
EXTRACT: note_on channel=6 note=70 velocity=89 time=0
EXTRACT: note_off channel=8 note=62 velocity=0 time=0
EXTRACT: note_on channel=8 note=62 velocity=89 time=0
EXTRACT: note_off channel=0 note=62 velocity=0 time=0
EXTRACT: note_on channel=0 note=60 velocity=89 time=0
EXTRACT: note_off channel=8 note=62 velocity=0 time=0
EXTRACT: note_on channel=8 note=60 velocity=89 time=0
EXTRACT: note_off channel=0 note=60 velocity=0 time=0
EXTRACT: note_on channel=0 note=58 velocity=89 time=0
EXTRACT: note_off channel=8 note=60 velocity=0 time=0
EXTRACT: note_on channel=8 note=58 velocity=89 time=0
EXTRACT: note_off channel=0 note=58 velocity=0 time=0
EXTRACT: note_on channel=0 note=58 velocity=89 time=0
EXTRACT: note_off channel=2 note=58 velocity=0 time=0
EXTRACT: note_on channel=2 note=58 velocity=89 time=0
EXTRACT: note_off channel=7 note=58 velocity=0 time=0
EXTRACT: note_on channel=7 note=58 velocity=89 time=0
EXTRACT: note_off channel=8 note=58 velocity=0 time=0
EXTRACT: note_on channel=8 note=58 velocity=89 time=0
EXTRACT: note_off channel=0 note=58 velocity=0 time=0
EXTRACT: note_on channel=0 note=60 velocity=89 time=0
EXTRACT: note_off channel=1 note=70 velocity=0 time=0
EXTRACT: note_off channel=1 note=65 velocity=0 time=0
EXTRACT: note_on channel=1 note=65 velocity=89 time=0
EXTRACT: note_off channel=6 note=70 velocity=0 time=0
EXTRACT: note_off channel=6 note=65 velocity=0 time=0
EXTRACT: note_on channel=6 note=65 velocity=89 time=0
EXTRACT: note_off channel=8 note=58 velocity=0 time=0
EXTRACT: note_on channel=8 note=60 velocity=89 time=0
EXTRACT: note_off channel=0 note=60 velocity=0 time=0
EXTRACT: note_on channel=0 note=60 velocity=89 time=0
EXTRACT: note_off channel=8 note=60 velocity=0 time=0
EXTRACT: note_on channel=8 note=60 velocity=89 time=0
EXTRACT: note_off channel=1 note=65 velocity=0 time=0
EXTRACT: note_on channel=1 note=67 velocity=89 time=0
EXTRACT: note_off channel=2 note=58 velocity=0 time=0
EXTRACT: note_on channel=2 note=53 velocity=89 time=0
EXTRACT: note_off channel=6 note=65 velocity=0 time=0
EXTRACT: note_on channel=6 note=67 velocity=89 time=0
EXTRACT: note_off channel=7 note=58 velocity=0 time=0
EXTRACT: note_on channel=7 note=53 velocity=89 time=0
EXTRACT: note_off channel=1 note=67 velocity=0 time=0.24193550000000003
EXTRACT: note_on channel=1 note=68 velocity=89 time=0
EXTRACT: note_off channel=6 note=67 velocity=0 time=0
EXTRACT: note_on channel=6 note=68 velocity=89 time=0
EXTRACT: note_off channel=1 note=68 velocity=0 time=0.24193550000000003
EXTRACT: note_on channel=1 note=72 velocity=89 time=0
EXTRACT: note_off channel=6 note=68 velocity=0 time=0
EXTRACT: note_on channel=6 note=72 velocity=89 time=0
EXTRACT: note_off channel=1 note=72 velocity=0 time=0.24193550000000003
EXTRACT: note_on channel=1 note=77 velocity=89 time=0
EXTRACT: note_off channel=2 note=53 velocity=0 time=0
EXTRACT: note_on channel=2 note=65 velocity=89 time=0
EXTRACT: note_off channel=6 note=72 velocity=0 time=0
EXTRACT: note_on channel=6 note=77 velocity=89 time=0
EXTRACT: note_off channel=7 note=53 velocity=0 time=0
EXTRACT: note_on channel=7 note=65 velocity=89 time=0
EXTRACT: note_off channel=0 note=60 velocity=0 time=0.24193550000000003
EXTRACT: note_off channel=1 note=77 velocity=0 time=0
EXTRACT: note_on channel=1 note=67 velocity=89 time=0
EXTRACT: note_off channel=6 note=77 velocity=0 time=0
EXTRACT: note_on channel=6 note=67 velocity=89 time=0
EXTRACT: note_off channel=8 note=60 velocity=0 time=0
EXTRACT: note_off channel=1 note=67 velocity=0 time=0.24193550000000003
EXTRACT: note_on channel=1 note=68 velocity=89 time=0
EXTRACT: note_off channel=6 note=67 velocity=0 time=0
EXTRACT: note_on channel=6 note=68 velocity=89 time=0
EXTRACT: note_off channel=1 note=68 velocity=0 time=0.24193550000000003
EXTRACT: note_on channel=1 note=72 velocity=89 time=0
EXTRACT: note_off channel=6 note=68 velocity=0 time=0
EXTRACT: note_on channel=6 note=72 velocity=89 time=0
EXTRACT: note_on channel=0 note=72 velocity=89 time=0
EXTRACT: note_off channel=1 note=72 velocity=0 time=0
EXTRACT: note_on channel=1 note=77 velocity=89 time=0
EXTRACT: note_off channel=6 note=72 velocity=0 time=0
EXTRACT: note_on channel=6 note=77 velocity=89 time=0
EXTRACT: note_on channel=8 note=72 velocity=89 time=0
EXTRACT: note_off channel=1 note=77 velocity=0 time=0
EXTRACT: note_on channel=1 note=80 velocity=89 time=0
EXTRACT: note_off channel=2 note=65 velocity=0 time=0
EXTRACT: note_off channel=6 note=77 velocity=0 time=0
EXTRACT: note_on channel=6 note=80 velocity=89 time=0
EXTRACT: note_off channel=7 note=65 velocity=0 time=0
EXTRACT: note_on channel=2 note=68 velocity=89 time=0.24193550000000003
EXTRACT: note_on channel=7 note=68 velocity=89 time=0
EXTRACT: note_off channel=2 note=68 velocity=0 time=0.24193550000000003
EXTRACT: note_on channel=2 note=65 velocity=89 time=0
EXTRACT: note_off channel=7 note=68 velocity=0 time=0
EXTRACT: note_on channel=7 note=65 velocity=89 time=0
EXTRACT: note_off channel=0 note=72 velocity=0 time=0
EXTRACT: note_on channel=0 note=72 velocity=89 time=0
EXTRACT: note_off channel=1 note=80 velocity=0 time=0
EXTRACT: note_on channel=1 note=79 velocity=89 time=0
EXTRACT: note_off channel=6 note=80 velocity=0 time=0
EXTRACT: note_on channel=6 note=79 velocity=89 time=0
EXTRACT: note_off channel=8 note=72 velocity=0 time=0
EXTRACT: note_on channel=8 note=72 velocity=89 time=0
EXTRACT: note_off channel=0 note=72 velocity=0 time=0
EXTRACT: note_on channel=0 note=70 velocity=89 time=0
EXTRACT: note_off channel=8 note=72 velocity=0 time=0
EXTRACT: note_on channel=8 note=70 velocity=89 time=0
EXTRACT: note_off channel=0 note=70 velocity=0 time=0
EXTRACT: note_on channel=0 note=70 velocity=89 time=0
EXTRACT: note_off channel=2 note=65 velocity=0 time=0
EXTRACT: note_on channel=2 note=65 velocity=89 time=0
EXTRACT: note_off channel=7 note=65 velocity=0 time=0
EXTRACT: note_on channel=7 note=65 velocity=89 time=0
EXTRACT: note_off channel=8 note=70 velocity=0 time=0
EXTRACT: note_on channel=8 note=70 velocity=89 time=0
EXTRACT: note_off channel=0 note=70 velocity=0 time=0
EXTRACT: note_on channel=0 note=68 velocity=89 time=0
EXTRACT: note_off channel=1 note=79 velocity=0 time=0
EXTRACT: note_on channel=1 note=77 velocity=89 time=0
EXTRACT: note_off channel=6 note=79 velocity=0 time=0
EXTRACT: note_on channel=6 note=77 velocity=89 time=0
EXTRACT: note_off channel=8 note=70 velocity=0 time=0
EXTRACT: note_on channel=8 note=68 velocity=89 time=0
EXTRACT: note_off channel=0 note=68 velocity=0 time=0
EXTRACT: note_on channel=0 note=67 velocity=89 time=0
EXTRACT: note_off channel=8 note=68 velocity=0 time=0
EXTRACT: note_on channel=8 note=67 velocity=89 time=0
EXTRACT: note_off channel=1 note=77 velocity=0 time=0
EXTRACT: note_on channel=1 note=75 velocity=89 time=0
EXTRACT: note_on channel=1 note=67 velocity=89 time=0
EXTRACT: note_on channel=1 note=70 velocity=89 time=0
EXTRACT: note_off channel=2 note=65 velocity=0 time=0
EXTRACT: note_on channel=2 note=51 velocity=89 time=0
EXTRACT: note_off channel=6 note=77 velocity=0 time=0
EXTRACT: note_on channel=6 note=75 velocity=89 time=0
EXTRACT: note_on channel=6 note=67 velocity=89 time=0
EXTRACT: note_on channel=6 note=70 velocity=89 time=0
EXTRACT: note_off channel=7 note=65 velocity=0 time=0
EXTRACT: note_on channel=7 note=51 velocity=89 time=0
EXTRACT: note_off channel=0 note=67 velocity=0 time=0
EXTRACT: note_on channel=0 note=67 velocity=89 time=0
EXTRACT: note_off channel=1 note=70 velocity=0 time=0
EXTRACT: note_off channel=1 note=67 velocity=0 time=0
EXTRACT: note_off channel=1 note=75 velocity=0 time=0
EXTRACT: note_on channel=1 note=67 velocity=89 time=0
EXTRACT: note_on channel=1 note=75 velocity=89 time=0
EXTRACT: note_on channel=1 note=70 velocity=89 time=0
EXTRACT: note_off channel=6 note=70 velocity=0 time=0
EXTRACT: note_off channel=6 note=67 velocity=0 time=0
EXTRACT: note_off channel=6 note=75 velocity=0 time=0
EXTRACT: note_on channel=6 note=67 velocity=89 time=0
EXTRACT: note_on channel=6 note=75 velocity=89 time=0
EXTRACT: note_on channel=6 note=70 velocity=89 time=0
EXTRACT: note_off channel=8 note=67 velocity=0 time=0
EXTRACT: note_on channel=8 note=67 velocity=89 time=0
EXTRACT: note_off channel=0 note=67 velocity=0 time=0
EXTRACT: note_on channel=0 note=65 velocity=89 time=0
EXTRACT: note_off channel=8 note=67 velocity=0 time=0
EXTRACT: note_on channel=8 note=65 velocity=89 time=0
EXTRACT: note_off channel=0 note=65 velocity=0 time=0
EXTRACT: note_on channel=0 note=65 velocity=89 time=0
EXTRACT: note_off channel=2 note=51 velocity=0 time=0
EXTRACT: note_on channel=2 note=63 velocity=89 time=0
EXTRACT: note_off channel=7 note=51 velocity=0 time=0
EXTRACT: note_on channel=7 note=63 velocity=89 time=0
EXTRACT: note_off channel=8 note=65 velocity=0 time=0
EXTRACT: note_on channel=8 note=65 velocity=89 time=0
EXTRACT: note_off channel=0 note=65 velocity=0 time=0
EXTRACT: note_on channel=0 note=63 velocity=89 time=0
EXTRACT: note_off channel=1 note=70 velocity=0 time=0
EXTRACT: note_off channel=1 note=75 velocity=0 time=0
EXTRACT: note_off channel=1 note=67 velocity=0 time=0
EXTRACT: note_on channel=1 note=70 velocity=89 time=0
EXTRACT: note_off channel=2 note=63 velocity=0 time=0
EXTRACT: note_on channel=2 note=63 velocity=89 time=0
EXTRACT: note_off channel=6 note=70 velocity=0 time=0
EXTRACT: note_off channel=6 note=75 velocity=0 time=0
EXTRACT: note_off channel=6 note=67 velocity=0 time=0
EXTRACT: note_on channel=6 note=70 velocity=89 time=0
EXTRACT: note_off channel=7 note=63 velocity=0 time=0
EXTRACT: note_on channel=7 note=63 velocity=89 time=0
EXTRACT: note_off channel=8 note=65 velocity=0 time=0
EXTRACT: note_on channel=8 note=63 velocity=89 time=0
EXTRACT: note_off channel=0 note=63 velocity=0 time=0
EXTRACT: note_on channel=0 note=65 velocity=89 time=0
EXTRACT: note_off channel=1 note=70 velocity=0 time=0
EXTRACT: note_on channel=1 note=74 velocity=89 time=0
EXTRACT: note_off channel=6 note=70 velocity=0 time=0
EXTRACT: note_on channel=6 note=74 velocity=89 time=0
EXTRACT: note_off channel=8 note=63 velocity=0 time=0
EXTRACT: note_on channel=8 note=65 velocity=89 time=0
EXTRACT: note_off channel=1 note=74 velocity=0 time=0
EXTRACT: note_on channel=1 note=74 velocity=89 time=0
EXTRACT: note_on channel=1 note=70 velocity=89 time=0
EXTRACT: note_on channel=1 note=65 velocity=89 time=0
EXTRACT: note_off channel=2 note=63 velocity=0 time=0
EXTRACT: note_on channel=2 note=58 velocity=89 time=0
EXTRACT: note_on channel=2 note=46 velocity=89 time=0
EXTRACT: note_off channel=6 note=74 velocity=0 time=0
EXTRACT: note_on channel=6 note=74 velocity=89 time=0
EXTRACT: note_on channel=6 note=70 velocity=89 time=0
EXTRACT: note_on channel=6 note=65 velocity=89 time=0
EXTRACT: note_off channel=7 note=63 velocity=0 time=0
EXTRACT: note_on channel=7 note=58 velocity=89 time=0
EXTRACT: note_on channel=7 note=46 velocity=89 time=0
EXTRACT: note_off channel=0 note=65 velocity=0 time=0
EXTRACT: note_on channel=0 note=67 velocity=89 time=0
EXTRACT: note_off channel=8 note=65 velocity=0 time=0
EXTRACT: note_on channel=8 note=67 velocity=89 time=0
EXTRACT: note_off channel=0 note=67 velocity=0 time=0.24193550000000003
EXTRACT: note_off channel=1 note=65 velocity=0 time=0
EXTRACT: note_off channel=1 note=70 velocity=0 time=0
EXTRACT: note_off channel=1 note=74 velocity=0 time=0
EXTRACT: note_on channel=1 note=82 velocity=89 time=0
EXTRACT: note_off channel=6 note=65 velocity=0 time=0
EXTRACT: note_off channel=6 note=70 velocity=0 time=0
EXTRACT: note_off channel=6 note=74 velocity=0 time=0
EXTRACT: note_on channel=6 note=82 velocity=89 time=0
EXTRACT: note_off channel=8 note=67 velocity=0 time=0
EXTRACT: note_on channel=0 note=67 velocity=89 time=0
EXTRACT: note_on channel=8 note=67 velocity=89 time=0
EXTRACT: note_off channel=0 note=67 velocity=0 time=0
EXTRACT: note_on channel=0 note=67 velocity=89 time=0
EXTRACT: note_off channel=1 note=82 velocity=0 time=0
EXTRACT: note_on channel=1 note=82 velocity=89 time=0
EXTRACT: note_off channel=2 note=46 velocity=0 time=0
EXTRACT: note_off channel=2 note=58 velocity=0 time=0
EXTRACT: note_on channel=2 note=51 velocity=89 time=0
EXTRACT: note_off channel=6 note=82 velocity=0 time=0
EXTRACT: note_on channel=6 note=82 velocity=89 time=0
EXTRACT: note_off channel=7 note=46 velocity=0 time=0
EXTRACT: note_off channel=7 note=58 velocity=0 time=0
EXTRACT: note_on channel=7 note=51 velocity=89 time=0
EXTRACT: note_off channel=8 note=67 velocity=0 time=0
EXTRACT: note_on channel=8 note=67 velocity=89 time=0
EXTRACT: note_off channel=0 note=67 velocity=0 time=0
EXTRACT: note_on channel=0 note=70 velocity=89 time=0
EXTRACT: note_off channel=8 note=67 velocity=0 time=0
EXTRACT: note_on channel=8 note=70 velocity=89 time=0
EXTRACT: note_off channel=1 note=82 velocity=0 time=0.12096775000000001
EXTRACT: note_on channel=1 note=79 velocity=89 time=0
EXTRACT: note_off channel=6 note=82 velocity=0 time=0
EXTRACT: note_on channel=6 note=79 velocity=89 time=0
EXTRACT: note_off channel=1 note=79 velocity=0 time=0
EXTRACT: note_on channel=1 note=75 velocity=89 time=0
EXTRACT: note_off channel=6 note=79 velocity=0 time=0
EXTRACT: note_on channel=6 note=75 velocity=89 time=0
EXTRACT: note_off channel=1 note=75 velocity=0 time=0.24193550000000003
EXTRACT: note_on channel=1 note=82 velocity=89 time=0
EXTRACT: note_off channel=2 note=51 velocity=0 time=0
EXTRACT: note_on channel=2 note=63 velocity=89 time=0
EXTRACT: note_off channel=6 note=75 velocity=0 time=0
EXTRACT: note_on channel=6 note=82 velocity=89 time=0
EXTRACT: note_off channel=7 note=51 velocity=0 time=0
EXTRACT: note_on channel=7 note=63 velocity=89 time=0
EXTRACT: note_off channel=1 note=82 velocity=0 time=0.24193550000000003
EXTRACT: note_on channel=1 note=70 velocity=89 time=0
EXTRACT: note_off channel=6 note=82 velocity=0 time=0
EXTRACT: note_on channel=6 note=70 velocity=89 time=0
EXTRACT: note_off channel=1 note=70 velocity=0 time=0.24193550000000003
EXTRACT: note_on channel=1 note=75 velocity=89 time=0
EXTRACT: note_off channel=6 note=70 velocity=0 time=0
EXTRACT: note_on channel=6 note=75 velocity=89 time=0
EXTRACT: note_off channel=0 note=70 velocity=0 time=0
EXTRACT: note_on channel=0 note=67 velocity=89 time=0
EXTRACT: note_off channel=1 note=75 velocity=0 time=0
EXTRACT: note_on channel=1 note=82 velocity=89 time=0
EXTRACT: note_off channel=2 note=63 velocity=0 time=0
EXTRACT: note_off channel=6 note=75 velocity=0 time=0
EXTRACT: note_on channel=6 note=82 velocity=89 time=0
EXTRACT: note_off channel=7 note=63 velocity=0 time=0
EXTRACT: note_off channel=8 note=70 velocity=0 time=0
EXTRACT: note_on channel=8 note=67 velocity=89 time=0
EXTRACT: note_off channel=0 note=67 velocity=0 time=0
EXTRACT: note_on channel=0 note=70 velocity=89 time=0
EXTRACT: note_off channel=1 note=82 velocity=0 time=0
EXTRACT: note_on channel=1 note=70 velocity=89 time=0
EXTRACT: note_off channel=6 note=82 velocity=0 time=0
EXTRACT: note_on channel=6 note=70 velocity=89 time=0
EXTRACT: note_off channel=8 note=67 velocity=0 time=0
EXTRACT: note_on channel=8 note=70 velocity=89 time=0
EXTRACT: note_off channel=0 note=70 velocity=0 time=0
EXTRACT: note_on channel=0 note=72 velocity=89 time=0
EXTRACT: note_off channel=1 note=70 velocity=0 time=0
EXTRACT: note_on channel=1 note=82 velocity=89 time=0
EXTRACT: note_on channel=2 note=63 velocity=89 time=0
EXTRACT: note_off channel=6 note=70 velocity=0 time=0
EXTRACT: note_on channel=6 note=82 velocity=89 time=0
EXTRACT: note_on channel=7 note=63 velocity=89 time=0
EXTRACT: note_off channel=8 note=70 velocity=0 time=0
EXTRACT: note_on channel=8 note=72 velocity=89 time=0
EXTRACT: note_off channel=1 note=82 velocity=0 time=0.24193550000000003
EXTRACT: note_on channel=1 note=79 velocity=89 time=0
EXTRACT: note_off channel=6 note=82 velocity=0 time=0
EXTRACT: note_on channel=6 note=79 velocity=89 time=0
EXTRACT: note_off channel=0 note=72 velocity=0 time=0.24193550000000003
EXTRACT: note_off channel=1 note=79 velocity=0 time=0
EXTRACT: note_on channel=1 note=75 velocity=89 time=0
EXTRACT: note_off channel=6 note=79 velocity=0 time=0
EXTRACT: note_on channel=6 note=75 velocity=89 time=0
EXTRACT: note_off channel=8 note=72 velocity=0 time=0
EXTRACT: note_off channel=1 note=75 velocity=0 time=0.24193550000000003
EXTRACT: note_on channel=1 note=82 velocity=89 time=0
EXTRACT: note_off channel=6 note=75 velocity=0 time=0
EXTRACT: note_on channel=6 note=82 velocity=89 time=0
EXTRACT: note_on channel=0 note=67 velocity=89 time=0
EXTRACT: note_off channel=1 note=82 velocity=0 time=0
EXTRACT: note_on channel=1 note=79 velocity=89 time=0
EXTRACT: note_off channel=6 note=82 velocity=0 time=0
EXTRACT: note_on channel=6 note=79 velocity=89 time=0
EXTRACT: note_on channel=8 note=67 velocity=89 time=0
EXTRACT: note_off channel=1 note=79 velocity=0 time=0.24193550000000003
EXTRACT: note_on channel=1 note=75 velocity=89 time=0
EXTRACT: note_off channel=6 note=79 velocity=0 time=0
EXTRACT: note_on channel=6 note=75 velocity=89 time=0
EXTRACT: note_off channel=1 note=75 velocity=0 time=0.24193550000000003
EXTRACT: note_on channel=1 note=74 velocity=89 time=0
EXTRACT: note_off channel=6 note=75 velocity=0 time=0
EXTRACT: note_on channel=6 note=74 velocity=89 time=0
EXTRACT: note_off channel=0 note=67 velocity=0 time=0
EXTRACT: note_on channel=0 note=65 velocity=89 time=0
EXTRACT: note_off channel=1 note=74 velocity=0 time=0
EXTRACT: note_on channel=1 note=79 velocity=89 time=0
EXTRACT: note_off channel=2 note=63 velocity=0 time=0
EXTRACT: note_on channel=2 note=60 velocity=89 time=0
EXTRACT: note_off channel=6 note=74 velocity=0 time=0
EXTRACT: note_on channel=6 note=79 velocity=89 time=0
EXTRACT: note_off channel=7 note=63 velocity=0 time=0
EXTRACT: note_on channel=7 note=60 velocity=89 time=0
EXTRACT: note_off channel=8 note=67 velocity=0 time=0
EXTRACT: note_on channel=8 note=65 velocity=89 time=0
EXTRACT: note_off channel=1 note=79 velocity=0 time=0.24193550000000003
EXTRACT: note_on channel=1 note=67 velocity=89 time=0
EXTRACT: note_off channel=6 note=79 velocity=0 time=0
EXTRACT: note_on channel=6 note=67 velocity=89 time=0
EXTRACT: note_off channel=1 note=67 velocity=0 time=0.24193550000000003
EXTRACT: note_on channel=1 note=72 velocity=89 time=0
EXTRACT: note_off channel=6 note=67 velocity=0 time=0
EXTRACT: note_on channel=6 note=72 velocity=89 time=0
EXTRACT: note_off channel=1 note=72 velocity=0 time=0.24193550000000003
EXTRACT: note_on channel=1 note=79 velocity=89 time=0
EXTRACT: note_on channel=1 note=74 velocity=89 time=0
EXTRACT: note_off channel=6 note=72 velocity=0 time=0
EXTRACT: note_on channel=6 note=79 velocity=89 time=0
EXTRACT: note_on channel=6 note=74 velocity=89 time=0
EXTRACT: note_off channel=1 note=74 velocity=0 time=0.24193550000000003
EXTRACT: note_off channel=1 note=79 velocity=0 time=0
EXTRACT: note_on channel=1 note=75 velocity=89 time=0
EXTRACT: note_off channel=6 note=74 velocity=0 time=0
EXTRACT: note_off channel=6 note=79 velocity=0 time=0
EXTRACT: note_on channel=6 note=75 velocity=89 time=0
EXTRACT: note_off channel=0 note=65 velocity=0 time=0
EXTRACT: note_on channel=0 note=63 velocity=89 time=0
EXTRACT: note_off channel=1 note=75 velocity=0 time=0
EXTRACT: note_on channel=1 note=67 velocity=89 time=0
EXTRACT: note_off channel=6 note=75 velocity=0 time=0
EXTRACT: note_on channel=6 note=67 velocity=89 time=0
EXTRACT: note_off channel=8 note=65 velocity=0 time=0
EXTRACT: note_on channel=8 note=63 velocity=89 time=0
EXTRACT: note_off channel=0 note=63 velocity=0 time=0
EXTRACT: note_on channel=0 note=65 velocity=89 time=0
EXTRACT: note_off channel=1 note=67 velocity=0 time=0
EXTRACT: note_on channel=1 note=72 velocity=89 time=0
EXTRACT: note_off channel=6 note=67 velocity=0 time=0
EXTRACT: note_on channel=6 note=72 velocity=89 time=0
EXTRACT: note_off channel=8 note=63 velocity=0 time=0
EXTRACT: note_on channel=8 note=65 velocity=89 time=0
EXTRACT: note_off channel=0 note=65 velocity=0 time=0
EXTRACT: note_on channel=0 note=67 velocity=89 time=0
EXTRACT: note_off channel=2 note=60 velocity=0 time=0
EXTRACT: note_on channel=2 note=60 velocity=89 time=0
EXTRACT: note_off channel=7 note=60 velocity=0 time=0
EXTRACT: note_on channel=7 note=60 velocity=89 time=0
EXTRACT: note_off channel=8 note=65 velocity=0 time=0
EXTRACT: note_on channel=8 note=67 velocity=89 time=0
EXTRACT: note_off channel=1 note=72 velocity=0 time=0.24193550000000003
EXTRACT: note_on channel=1 note=67 velocity=89 time=0
EXTRACT: note_off channel=6 note=72 velocity=0 time=0
EXTRACT: note_on channel=6 note=67 velocity=89 time=0
EXTRACT: note_off channel=0 note=67 velocity=0 time=0.24193550000000003
EXTRACT: note_off channel=1 note=67 velocity=0 time=0
EXTRACT: note_on channel=1 note=72 velocity=89 time=0
EXTRACT: note_off channel=6 note=67 velocity=0 time=0
EXTRACT: note_on channel=6 note=72 velocity=89 time=0
EXTRACT: note_off channel=8 note=67 velocity=0 time=0
EXTRACT: note_off channel=1 note=72 velocity=0 time=0.24193550000000003
EXTRACT: note_on channel=1 note=79 velocity=89 time=0
EXTRACT: note_on channel=1 note=74 velocity=89 time=0
EXTRACT: note_off channel=6 note=72 velocity=0 time=0
EXTRACT: note_on channel=6 note=79 velocity=89 time=0
EXTRACT: note_on channel=6 note=74 velocity=89 time=0
EXTRACT: note_on channel=0 note=67 velocity=89 time=0
EXTRACT: note_on channel=8 note=67 velocity=89 time=0
EXTRACT: note_off channel=0 note=67 velocity=0 time=0
EXTRACT: note_on channel=0 note=67 velocity=89 time=0
EXTRACT: note_off channel=1 note=74 velocity=0 time=0
EXTRACT: note_off channel=1 note=79 velocity=0 time=0
EXTRACT: note_on channel=1 note=75 velocity=89 time=0
EXTRACT: note_off channel=6 note=74 velocity=0 time=0
EXTRACT: note_off channel=6 note=79 velocity=0 time=0
EXTRACT: note_on channel=6 note=75 velocity=89 time=0
EXTRACT: note_off channel=8 note=67 velocity=0 time=0
EXTRACT: note_on channel=8 note=67 velocity=89 time=0
EXTRACT: note_off channel=1 note=75 velocity=0 time=0
EXTRACT: note_on channel=1 note=67 velocity=89 time=0
EXTRACT: note_off channel=6 note=75 velocity=0 time=0
EXTRACT: note_on channel=6 note=67 velocity=89 time=0
EXTRACT: note_off channel=1 note=67 velocity=0 time=0.24193550000000003
EXTRACT: note_on channel=1 note=79 velocity=89 time=0
EXTRACT: note_off channel=6 note=67 velocity=0 time=0
EXTRACT: note_on channel=6 note=79 velocity=89 time=0
EXTRACT: note_off channel=0 note=67 velocity=0 time=0
EXTRACT: note_on channel=0 note=65 velocity=89 time=0
EXTRACT: note_off channel=1 note=79 velocity=0 time=0
EXTRACT: note_on channel=1 note=77 velocity=89 time=0
EXTRACT: note_on channel=1 note=72 velocity=89 time=0
EXTRACT: note_on channel=1 note=68 velocity=89 time=0
EXTRACT: note_off channel=2 note=60 velocity=0 time=0
EXTRACT: note_on channel=2 note=56 velocity=89 time=0
EXTRACT: note_off channel=6 note=79 velocity=0 time=0
EXTRACT: note_on channel=6 note=77 velocity=89 time=0
EXTRACT: note_on channel=6 note=72 velocity=89 time=0
EXTRACT: note_on channel=6 note=68 velocity=89 time=0
EXTRACT: note_off channel=7 note=60 velocity=0 time=0
EXTRACT: note_on channel=7 note=56 velocity=89 time=0
EXTRACT: note_off channel=8 note=67 velocity=0 time=0
EXTRACT: note_on channel=8 note=65 velocity=89 time=0
EXTRACT: note_off channel=0 note=65 velocity=0 time=0
EXTRACT: note_on channel=0 note=65 velocity=89 time=0
EXTRACT: note_off channel=8 note=65 velocity=0 time=0
EXTRACT: note_on channel=8 note=65 velocity=89 time=0
EXTRACT: note_off channel=1 note=68 velocity=0 time=0.24193550000000003
EXTRACT: note_off channel=1 note=72 velocity=0 time=0
EXTRACT: note_off channel=1 note=77 velocity=0 time=0
EXTRACT: note_on channel=1 note=77 velocity=89 time=0
EXTRACT: note_off channel=6 note=68 velocity=0 time=0
EXTRACT: note_off channel=6 note=72 velocity=0 time=0
EXTRACT: note_off channel=6 note=77 velocity=0 time=0
EXTRACT: note_on channel=6 note=77 velocity=89 time=0
EXTRACT: note_off channel=0 note=65 velocity=0 time=0
EXTRACT: note_on channel=0 note=65 velocity=89 time=0
EXTRACT: note_off channel=8 note=65 velocity=0 time=0
EXTRACT: note_on channel=8 note=65 velocity=89 time=0
EXTRACT: note_off channel=1 note=77 velocity=0 time=0.24193550000000003
EXTRACT: note_on channel=1 note=68 velocity=89 time=0
EXTRACT: note_off channel=6 note=77 velocity=0 time=0
EXTRACT: note_on channel=6 note=68 velocity=89 time=0
EXTRACT: note_off channel=0 note=65 velocity=0 time=0
EXTRACT: note_on channel=0 note=63 velocity=89 time=0
EXTRACT: note_off channel=1 note=68 velocity=0 time=0
EXTRACT: note_on channel=1 note=68 velocity=89 time=0
EXTRACT: note_off channel=6 note=68 velocity=0 time=0
EXTRACT: note_on channel=6 note=68 velocity=89 time=0
EXTRACT: note_off channel=8 note=65 velocity=0 time=0
EXTRACT: note_on channel=8 note=63 velocity=89 time=0
EXTRACT: note_off channel=0 note=63 velocity=0 time=0
EXTRACT: note_on channel=0 note=65 velocity=89 time=0
EXTRACT: note_off channel=1 note=68 velocity=0 time=0
EXTRACT: note_on channel=1 note=72 velocity=89 time=0
EXTRACT: note_off channel=6 note=68 velocity=0 time=0
EXTRACT: note_on channel=6 note=72 velocity=89 time=0
EXTRACT: note_off channel=8 note=63 velocity=0 time=0
EXTRACT: note_on channel=8 note=65 velocity=89 time=0
EXTRACT: note_off channel=0 note=65 velocity=0 time=0
EXTRACT: note_on channel=0 note=63 velocity=89 time=0
EXTRACT: note_off channel=1 note=72 velocity=0 time=0
EXTRACT: note_on channel=1 note=80 velocity=89 time=0
EXTRACT: note_off channel=6 note=72 velocity=0 time=0
EXTRACT: note_on channel=6 note=80 velocity=89 time=0
EXTRACT: note_off channel=8 note=65 velocity=0 time=0
EXTRACT: note_on channel=8 note=63 velocity=89 time=0
EXTRACT: note_off channel=0 note=63 velocity=0 time=0.24193550000000003
EXTRACT: note_off channel=1 note=80 velocity=0 time=0
EXTRACT: note_on channel=1 note=68 velocity=89 time=0
EXTRACT: note_off channel=6 note=80 velocity=0 time=0
EXTRACT: note_on channel=6 note=68 velocity=89 time=0
EXTRACT: note_off channel=8 note=63 velocity=0 time=0
EXTRACT: note_off channel=1 note=68 velocity=0 time=0.24193550000000003
EXTRACT: note_on channel=1 note=72 velocity=89 time=0
EXTRACT: note_off channel=6 note=68 velocity=0 time=0
EXTRACT: note_on channel=6 note=72 velocity=89 time=0
EXTRACT: note_off channel=1 note=72 velocity=0 time=0.24193550000000003
EXTRACT: note_on channel=1 note=79 velocity=89 time=0
EXTRACT: note_off channel=6 note=72 velocity=0 time=0
EXTRACT: note_on channel=6 note=79 velocity=89 time=0
EXTRACT: note_on channel=0 note=67 velocity=89 time=0
EXTRACT: note_off channel=1 note=79 velocity=0 time=0
EXTRACT: note_on channel=1 note=68 velocity=89 time=0
EXTRACT: note_off channel=6 note=79 velocity=0 time=0
EXTRACT: note_on channel=6 note=68 velocity=89 time=0
EXTRACT: note_on channel=8 note=67 velocity=89 time=0
EXTRACT: note_off channel=1 note=68 velocity=0 time=0
EXTRACT: note_on channel=1 note=68 velocity=89 time=0
EXTRACT: note_off channel=6 note=68 velocity=0 time=0
EXTRACT: note_on channel=6 note=68 velocity=89 time=0
EXTRACT: note_off channel=1 note=68 velocity=0 time=0.24193550000000003
EXTRACT: note_on channel=1 note=75 velocity=89 time=0
EXTRACT: note_off channel=6 note=68 velocity=0 time=0
EXTRACT: note_on channel=6 note=75 velocity=89 time=0
EXTRACT: note_off channel=0 note=67 velocity=0 time=0
EXTRACT: note_on channel=0 note=65 velocity=89 time=0
EXTRACT: note_off channel=1 note=75 velocity=0 time=0
EXTRACT: note_on channel=1 note=77 velocity=89 time=0
EXTRACT: note_off channel=6 note=75 velocity=0 time=0
EXTRACT: note_on channel=6 note=77 velocity=89 time=0
EXTRACT: note_off channel=8 note=67 velocity=0 time=0
EXTRACT: note_on channel=8 note=65 velocity=89 time=0
EXTRACT: note_off channel=0 note=65 velocity=0 time=0
EXTRACT: note_on channel=0 note=65 velocity=89 time=0
EXTRACT: note_off channel=1 note=77 velocity=0 time=0
EXTRACT: note_on channel=1 note=75 velocity=89 time=0
EXTRACT: note_on channel=1 note=72 velocity=89 time=0
EXTRACT: note_off channel=2 note=56 velocity=0 time=0
EXTRACT: note_on channel=2 note=46 velocity=89 time=0
EXTRACT: note_off channel=6 note=77 velocity=0 time=0
EXTRACT: note_on channel=6 note=75 velocity=89 time=0
EXTRACT: note_on channel=6 note=72 velocity=89 time=0
EXTRACT: note_off channel=7 note=56 velocity=0 time=0
EXTRACT: note_on channel=7 note=46 velocity=89 time=0
EXTRACT: note_off channel=8 note=65 velocity=0 time=0
EXTRACT: note_on channel=8 note=65 velocity=89 time=0
EXTRACT: note_off channel=0 note=65 velocity=0 time=0
EXTRACT: note_on channel=0 note=65 velocity=89 time=0
EXTRACT: note_off channel=1 note=72 velocity=0 time=0
EXTRACT: note_off channel=1 note=75 velocity=0 time=0
EXTRACT: note_on channel=1 note=68 velocity=89 time=0
EXTRACT: note_off channel=6 note=72 velocity=0 time=0
EXTRACT: note_off channel=6 note=75 velocity=0 time=0
EXTRACT: note_on channel=6 note=68 velocity=89 time=0
EXTRACT: note_off channel=8 note=65 velocity=0 time=0
EXTRACT: note_on channel=8 note=65 velocity=89 time=0
EXTRACT: note_off channel=1 note=68 velocity=0 time=0.24193550000000003
EXTRACT: note_on channel=1 note=75 velocity=89 time=0
EXTRACT: note_on channel=1 note=72 velocity=89 time=0
EXTRACT: note_off channel=6 note=68 velocity=0 time=0
EXTRACT: note_on channel=6 note=75 velocity=89 time=0
EXTRACT: note_on channel=6 note=72 velocity=89 time=0
EXTRACT: note_off channel=0 note=65 velocity=0 time=0
EXTRACT: note_on channel=0 note=65 velocity=89 time=0
EXTRACT: note_off channel=8 note=65 velocity=0 time=0
EXTRACT: note_on channel=8 note=65 velocity=89 time=0
EXTRACT: note_off channel=2 note=46 velocity=0 time=0.24193550000000003
EXTRACT: note_on channel=2 note=58 velocity=89 time=0
EXTRACT: note_off channel=7 note=46 velocity=0 time=0
EXTRACT: note_on channel=7 note=58 velocity=89 time=0
EXTRACT: note_off channel=0 note=65 velocity=0 time=0
EXTRACT: note_on channel=0 note=63 velocity=89 time=0
EXTRACT: note_off channel=1 note=75 velocity=0 time=0
EXTRACT: note_off channel=1 note=72 velocity=0 time=0
EXTRACT: note_on channel=1 note=68 velocity=89 time=0
EXTRACT: note_off channel=6 note=75 velocity=0 time=0
EXTRACT: note_off channel=6 note=72 velocity=0 time=0
EXTRACT: note_on channel=6 note=68 velocity=89 time=0
EXTRACT: note_off channel=8 note=65 velocity=0 time=0
EXTRACT: note_on channel=8 note=63 velocity=89 time=0
EXTRACT: note_off channel=0 note=63 velocity=0 time=0
EXTRACT: note_on channel=0 note=65 velocity=89 time=0
EXTRACT: note_off channel=1 note=68 velocity=0 time=0
EXTRACT: note_on channel=1 note=77 velocity=89 time=0
EXTRACT: note_off channel=6 note=68 velocity=0 time=0
EXTRACT: note_on channel=6 note=77 velocity=89 time=0
EXTRACT: note_off channel=8 note=63 velocity=0 time=0
EXTRACT: note_on channel=8 note=65 velocity=89 time=0
EXTRACT: note_off channel=0 note=65 velocity=0 time=0
EXTRACT: note_on channel=0 note=63 velocity=89 time=0
EXTRACT: note_off channel=1 note=77 velocity=0 time=0
EXTRACT: note_on channel=1 note=77 velocity=89 time=0
EXTRACT: note_on channel=1 note=74 velocity=89 time=0
EXTRACT: note_off channel=6 note=77 velocity=0 time=0
EXTRACT: note_on channel=6 note=77 velocity=89 time=0
EXTRACT: note_on channel=6 note=74 velocity=89 time=0
EXTRACT: note_off channel=8 note=65 velocity=0 time=0
EXTRACT: note_on channel=8 note=63 velocity=89 time=0
EXTRACT: note_off channel=0 note=63 velocity=0 time=0.24193550000000003
EXTRACT: note_off channel=8 note=63 velocity=0 time=0
EXTRACT: note_off channel=1 note=74 velocity=0 time=0.48387100000000005
EXTRACT: note_off channel=1 note=77 velocity=0 time=0
EXTRACT: note_on channel=1 note=70 velocity=89 time=0
EXTRACT: note_off channel=6 note=74 velocity=0 time=0
EXTRACT: note_off channel=6 note=77 velocity=0 time=0
EXTRACT: note_on channel=6 note=70 velocity=89 time=0
EXTRACT: note_on channel=0 note=67 velocity=89 time=0
EXTRACT: note_off channel=1 note=70 velocity=0 time=0
EXTRACT: note_on channel=1 note=82 velocity=89 time=0
EXTRACT: note_off channel=6 note=70 velocity=0 time=0
EXTRACT: note_on channel=6 note=82 velocity=89 time=0
EXTRACT: note_on channel=8 note=67 velocity=89 time=0
EXTRACT: note_off channel=0 note=67 velocity=0 time=0
EXTRACT: note_on channel=0 note=67 velocity=89 time=0
EXTRACT: note_off channel=8 note=67 velocity=0 time=0
EXTRACT: note_on channel=8 note=67 velocity=89 time=0
EXTRACT: note_off channel=0 note=67 velocity=0 time=0
EXTRACT: note_on channel=0 note=67 velocity=89 time=0
EXTRACT: note_off channel=1 note=82 velocity=0 time=0
EXTRACT: note_on channel=1 note=82 velocity=89 time=0
EXTRACT: note_on channel=1 note=79 velocity=89 time=0
EXTRACT: note_on channel=1 note=75 velocity=89 time=0
EXTRACT: note_on channel=1 note=70 velocity=89 time=0
EXTRACT: note_off channel=2 note=58 velocity=0 time=0
EXTRACT: note_on channel=2 note=51 velocity=89 time=0
EXTRACT: note_off channel=6 note=82 velocity=0 time=0
EXTRACT: note_on channel=6 note=82 velocity=89 time=0
EXTRACT: note_on channel=6 note=79 velocity=89 time=0
EXTRACT: note_on channel=6 note=75 velocity=89 time=0
EXTRACT: note_on channel=6 note=70 velocity=89 time=0
EXTRACT: note_off channel=7 note=58 velocity=0 time=0
EXTRACT: note_on channel=7 note=51 velocity=89 time=0
EXTRACT: note_off channel=8 note=67 velocity=0 time=0
EXTRACT: note_on channel=8 note=67 velocity=89 time=0
EXTRACT: note_off channel=0 note=67 velocity=0 time=0
EXTRACT: note_on channel=0 note=70 velocity=89 time=0
EXTRACT: note_off channel=8 note=67 velocity=0 time=0
EXTRACT: note_on channel=8 note=70 velocity=89 time=0
EXTRACT: note_off channel=1 note=70 velocity=0 time=0.12096775000000001
EXTRACT: note_off channel=1 note=75 velocity=0 time=0
EXTRACT: note_off channel=1 note=79 velocity=0 time=0
EXTRACT: note_off channel=1 note=82 velocity=0 time=0
EXTRACT: note_on channel=1 note=79 velocity=89 time=0
EXTRACT: note_off channel=6 note=70 velocity=0 time=0
EXTRACT: note_off channel=6 note=75 velocity=0 time=0
EXTRACT: note_off channel=6 note=79 velocity=0 time=0
EXTRACT: note_off channel=6 note=82 velocity=0 time=0
EXTRACT: note_on channel=6 note=79 velocity=89 time=0
EXTRACT: note_off channel=1 note=79 velocity=0 time=0
EXTRACT: note_on channel=1 note=75 velocity=89 time=0
EXTRACT: note_off channel=6 note=79 velocity=0 time=0
EXTRACT: note_on channel=6 note=75 velocity=89 time=0
EXTRACT: note_off channel=1 note=75 velocity=0 time=0.24193550000000003
EXTRACT: note_on channel=1 note=82 velocity=89 time=0
EXTRACT: note_off channel=2 note=51 velocity=0 time=0
EXTRACT: note_on channel=2 note=63 velocity=89 time=0
EXTRACT: note_off channel=6 note=75 velocity=0 time=0
EXTRACT: note_on channel=6 note=82 velocity=89 time=0
EXTRACT: note_off channel=7 note=51 velocity=0 time=0
EXTRACT: note_on channel=7 note=63 velocity=89 time=0
EXTRACT: note_off channel=1 note=82 velocity=0 time=0.24193550000000003
EXTRACT: note_on channel=1 note=79 velocity=89 time=0
EXTRACT: note_off channel=6 note=82 velocity=0 time=0
EXTRACT: note_on channel=6 note=79 velocity=89 time=0
EXTRACT: note_off channel=1 note=79 velocity=0 time=0.24193550000000003
EXTRACT: note_on channel=1 note=75 velocity=89 time=0
EXTRACT: note_off channel=6 note=79 velocity=0 time=0
EXTRACT: note_on channel=6 note=75 velocity=89 time=0
EXTRACT: note_off channel=0 note=70 velocity=0 time=0
EXTRACT: note_on channel=0 note=67 velocity=89 time=0
EXTRACT: note_off channel=1 note=75 velocity=0 time=0
EXTRACT: note_on channel=1 note=82 velocity=89 time=0
EXTRACT: note_off channel=6 note=75 velocity=0 time=0
EXTRACT: note_on channel=6 note=82 velocity=89 time=0
EXTRACT: note_off channel=8 note=70 velocity=0 time=0
EXTRACT: note_on channel=8 note=67 velocity=89 time=0
EXTRACT: note_off channel=0 note=67 velocity=0 time=0
EXTRACT: note_on channel=0 note=70 velocity=89 time=0
EXTRACT: note_off channel=1 note=82 velocity=0 time=0
EXTRACT: note_on channel=1 note=79 velocity=89 time=0
EXTRACT: note_off channel=6 note=82 velocity=0 time=0
EXTRACT: note_on channel=6 note=79 velocity=89 time=0
EXTRACT: note_off channel=8 note=67 velocity=0 time=0
EXTRACT: note_on channel=8 note=70 velocity=89 time=0
EXTRACT: note_off channel=0 note=70 velocity=0 time=0
EXTRACT: note_on channel=0 note=72 velocity=89 time=0
EXTRACT: note_off channel=1 note=79 velocity=0 time=0
EXTRACT: note_on channel=1 note=82 velocity=89 time=0
EXTRACT: note_off channel=2 note=63 velocity=0 time=0
EXTRACT: note_on channel=2 note=63 velocity=89 time=0
EXTRACT: note_off channel=6 note=79 velocity=0 time=0
EXTRACT: note_on channel=6 note=82 velocity=89 time=0
EXTRACT: note_off channel=7 note=63 velocity=0 time=0
EXTRACT: note_on channel=7 note=63 velocity=89 time=0
EXTRACT: note_off channel=8 note=70 velocity=0 time=0
EXTRACT: note_on channel=8 note=72 velocity=89 time=0
EXTRACT: note_off channel=1 note=82 velocity=0 time=0.24193550000000003
EXTRACT: note_on channel=1 note=79 velocity=89 time=0
EXTRACT: note_off channel=6 note=82 velocity=0 time=0
EXTRACT: note_on channel=6 note=79 velocity=89 time=0
EXTRACT: note_off channel=0 note=72 velocity=0 time=0.24193550000000003
EXTRACT: note_off channel=1 note=79 velocity=0 time=0
EXTRACT: note_on channel=1 note=75 velocity=89 time=0
EXTRACT: note_off channel=6 note=79 velocity=0 time=0
EXTRACT: note_on channel=6 note=75 velocity=89 time=0
EXTRACT: note_off channel=8 note=72 velocity=0 time=0
EXTRACT: note_on channel=0 note=65 velocity=89 time=0
EXTRACT: note_off channel=1 note=75 velocity=0 time=0
EXTRACT: note_on channel=1 note=82 velocity=89 time=0
EXTRACT: note_off channel=6 note=75 velocity=0 time=0
EXTRACT: note_on channel=6 note=82 velocity=89 time=0
EXTRACT: note_on channel=8 note=65 velocity=89 time=0
EXTRACT: note_off channel=0 note=65 velocity=0 time=0
EXTRACT: note_on channel=0 note=72 velocity=89 time=0
EXTRACT: note_off channel=1 note=82 velocity=0 time=0
EXTRACT: note_on channel=1 note=79 velocity=89 time=0
EXTRACT: note_off channel=6 note=82 velocity=0 time=0
EXTRACT: note_on channel=6 note=79 velocity=89 time=0
EXTRACT: note_off channel=8 note=65 velocity=0 time=0
EXTRACT: note_on channel=8 note=72 velocity=89 time=0
EXTRACT: note_off channel=0 note=72 velocity=0 time=0
EXTRACT: note_on channel=0 note=67 velocity=89 time=0
EXTRACT: note_off channel=1 note=79 velocity=0 time=0
EXTRACT: note_on channel=1 note=75 velocity=89 time=0
EXTRACT: note_off channel=6 note=79 velocity=0 time=0
EXTRACT: note_on channel=6 note=75 velocity=89 time=0
EXTRACT: note_off channel=8 note=72 velocity=0 time=0
EXTRACT: note_on channel=8 note=67 velocity=89 time=0
EXTRACT: note_off channel=0 note=67 velocity=0 time=0
EXTRACT: note_on channel=0 note=67 velocity=89 time=0
EXTRACT: note_off channel=1 note=75 velocity=0 time=0
EXTRACT: note_on channel=1 note=70 velocity=89 time=0
EXTRACT: note_off channel=2 note=63 velocity=0 time=0
EXTRACT: note_on channel=2 note=51 velocity=89 time=0
EXTRACT: note_off channel=6 note=75 velocity=0 time=0
EXTRACT: note_on channel=6 note=70 velocity=89 time=0
EXTRACT: note_off channel=7 note=63 velocity=0 time=0
EXTRACT: note_on channel=7 note=51 velocity=89 time=0
EXTRACT: note_off channel=8 note=67 velocity=0 time=0
EXTRACT: note_on channel=8 note=67 velocity=89 time=0
EXTRACT: note_off channel=1 note=70 velocity=0 time=0.24193550000000003
EXTRACT: note_on channel=1 note=70 velocity=89 time=0
EXTRACT: note_off channel=6 note=70 velocity=0 time=0
EXTRACT: note_on channel=6 note=70 velocity=89 time=0
EXTRACT: note_off channel=0 note=67 velocity=0 time=0
EXTRACT: note_on channel=0 note=65 velocity=89 time=0
EXTRACT: note_off channel=1 note=70 velocity=0 time=0
EXTRACT: note_on channel=1 note=79 velocity=89 time=0
EXTRACT: note_on channel=1 note=72 velocity=89 time=0
EXTRACT: note_off channel=2 note=51 velocity=0 time=0
EXTRACT: note_on channel=2 note=48 velocity=89 time=0
EXTRACT: note_off channel=6 note=70 velocity=0 time=0
EXTRACT: note_on channel=6 note=79 velocity=89 time=0
EXTRACT: note_on channel=6 note=72 velocity=89 time=0
EXTRACT: note_off channel=7 note=51 velocity=0 time=0
EXTRACT: note_on channel=7 note=48 velocity=89 time=0
EXTRACT: note_off channel=8 note=67 velocity=0 time=0
EXTRACT: note_on channel=8 note=65 velocity=89 time=0
EXTRACT: note_off channel=1 note=72 velocity=0 time=0.24193550000000003
EXTRACT: note_off channel=1 note=79 velocity=0 time=0
EXTRACT: note_on channel=1 note=67 velocity=89 time=0
EXTRACT: note_off channel=6 note=72 velocity=0 time=0
EXTRACT: note_off channel=6 note=79 velocity=0 time=0
EXTRACT: note_on channel=6 note=67 velocity=89 time=0
EXTRACT: note_off channel=1 note=67 velocity=0 time=0.24193550000000003
EXTRACT: note_on channel=1 note=72 velocity=89 time=0
EXTRACT: note_off channel=2 note=48 velocity=0 time=0
EXTRACT: note_on channel=2 note=60 velocity=89 time=0
EXTRACT: note_off channel=6 note=67 velocity=0 time=0
EXTRACT: note_on channel=6 note=72 velocity=89 time=0
EXTRACT: note_off channel=7 note=48 velocity=0 time=0
EXTRACT: note_on channel=7 note=60 velocity=89 time=0
EXTRACT: note_off channel=1 note=72 velocity=0 time=0.24193550000000003
EXTRACT: note_on channel=1 note=74 velocity=89 time=0
EXTRACT: note_on channel=1 note=79 velocity=89 time=0
EXTRACT: note_off channel=6 note=72 velocity=0 time=0
EXTRACT: note_on channel=6 note=74 velocity=89 time=0
EXTRACT: note_on channel=6 note=79 velocity=89 time=0
EXTRACT: note_off channel=1 note=79 velocity=0 time=0.24193550000000003
EXTRACT: note_off channel=1 note=74 velocity=0 time=0
EXTRACT: note_on channel=1 note=75 velocity=89 time=0
EXTRACT: note_off channel=2 note=60 velocity=0 time=0
EXTRACT: note_on channel=2 note=60 velocity=89 time=0
EXTRACT: note_off channel=6 note=79 velocity=0 time=0
EXTRACT: note_off channel=6 note=74 velocity=0 time=0
EXTRACT: note_on channel=6 note=75 velocity=89 time=0
EXTRACT: note_off channel=7 note=60 velocity=0 time=0
EXTRACT: note_on channel=7 note=60 velocity=89 time=0
EXTRACT: note_off channel=0 note=65 velocity=0 time=0
EXTRACT: note_on channel=0 note=63 velocity=89 time=0
EXTRACT: note_off channel=1 note=75 velocity=0 time=0
EXTRACT: note_on channel=1 note=67 velocity=89 time=0
EXTRACT: note_off channel=6 note=75 velocity=0 time=0
EXTRACT: note_on channel=6 note=67 velocity=89 time=0
EXTRACT: note_off channel=8 note=65 velocity=0 time=0
EXTRACT: note_on channel=8 note=63 velocity=89 time=0
EXTRACT: note_off channel=0 note=63 velocity=0 time=0
EXTRACT: note_on channel=0 note=65 velocity=89 time=0
EXTRACT: note_off channel=1 note=67 velocity=0 time=0
EXTRACT: note_on channel=1 note=72 velocity=89 time=0
EXTRACT: note_off channel=6 note=67 velocity=0 time=0
EXTRACT: note_on channel=6 note=72 velocity=89 time=0
EXTRACT: note_off channel=8 note=63 velocity=0 time=0
EXTRACT: note_on channel=8 note=65 velocity=89 time=0
EXTRACT: note_off channel=0 note=65 velocity=0 time=0
EXTRACT: note_on channel=0 note=67 velocity=89 time=0
EXTRACT: note_off channel=2 note=60 velocity=0 time=0
EXTRACT: note_on channel=2 note=60 velocity=89 time=0
EXTRACT: note_off channel=7 note=60 velocity=0 time=0
EXTRACT: note_on channel=7 note=60 velocity=89 time=0
EXTRACT: note_off channel=8 note=65 velocity=0 time=0
EXTRACT: note_on channel=8 note=67 velocity=89 time=0
EXTRACT: note_off channel=1 note=72 velocity=0 time=0.24193550000000003
EXTRACT: note_on channel=1 note=67 velocity=89 time=0
EXTRACT: note_off channel=6 note=72 velocity=0 time=0
EXTRACT: note_on channel=6 note=67 velocity=89 time=0
EXTRACT: note_off channel=0 note=67 velocity=0 time=0.24193550000000003
EXTRACT: note_off channel=8 note=67 velocity=0 time=0
EXTRACT: note_off channel=1 note=67 velocity=0 time=0.24193550000000003
EXTRACT: note_on channel=1 note=79 velocity=89 time=0
EXTRACT: note_on channel=1 note=74 velocity=89 time=0
EXTRACT: note_off channel=2 note=60 velocity=0 time=0
EXTRACT: note_on channel=2 note=48 velocity=89 time=0
EXTRACT: note_off channel=6 note=67 velocity=0 time=0
EXTRACT: note_on channel=6 note=79 velocity=89 time=0
EXTRACT: note_on channel=6 note=74 velocity=89 time=0
EXTRACT: note_off channel=7 note=60 velocity=0 time=0
EXTRACT: note_on channel=7 note=48 velocity=89 time=0
EXTRACT: note_on channel=0 note=67 velocity=89 time=0
EXTRACT: note_on channel=8 note=67 velocity=89 time=0
EXTRACT: note_off channel=0 note=67 velocity=0 time=0
EXTRACT: note_on channel=0 note=67 velocity=89 time=0
EXTRACT: note_off channel=1 note=74 velocity=0 time=0
EXTRACT: note_off channel=1 note=79 velocity=0 time=0
EXTRACT: note_on channel=1 note=75 velocity=89 time=0
EXTRACT: note_off channel=2 note=48 velocity=0 time=0
EXTRACT: note_on channel=2 note=60 velocity=89 time=0
EXTRACT: note_off channel=6 note=74 velocity=0 time=0
EXTRACT: note_off channel=6 note=79 velocity=0 time=0
EXTRACT: note_on channel=6 note=75 velocity=89 time=0
EXTRACT: note_off channel=7 note=48 velocity=0 time=0
EXTRACT: note_on channel=7 note=60 velocity=89 time=0
EXTRACT: note_off channel=8 note=67 velocity=0 time=0
EXTRACT: note_on channel=8 note=67 velocity=89 time=0
EXTRACT: note_off channel=1 note=75 velocity=0 time=0
EXTRACT: note_on channel=1 note=67 velocity=89 time=0
EXTRACT: note_off channel=6 note=75 velocity=0 time=0
EXTRACT: note_on channel=6 note=67 velocity=89 time=0
EXTRACT: note_off channel=1 note=67 velocity=0 time=0.24193550000000003
EXTRACT: note_on channel=1 note=79 velocity=89 time=0
EXTRACT: note_off channel=6 note=67 velocity=0 time=0
EXTRACT: note_on channel=6 note=79 velocity=89 time=0
EXTRACT: note_off channel=0 note=67 velocity=0 time=0
EXTRACT: note_on channel=0 note=65 velocity=89 time=0
EXTRACT: note_off channel=1 note=79 velocity=0 time=0
EXTRACT: note_on channel=1 note=77 velocity=89 time=0
EXTRACT: note_on channel=1 note=72 velocity=89 time=0
EXTRACT: note_off channel=2 note=60 velocity=0 time=0
EXTRACT: note_on channel=2 note=56 velocity=89 time=0
EXTRACT: note_off channel=6 note=79 velocity=0 time=0
EXTRACT: note_on channel=6 note=77 velocity=89 time=0
EXTRACT: note_on channel=6 note=72 velocity=89 time=0
EXTRACT: note_off channel=7 note=60 velocity=0 time=0
EXTRACT: note_on channel=7 note=56 velocity=89 time=0
EXTRACT: note_off channel=8 note=67 velocity=0 time=0
EXTRACT: note_on channel=8 note=65 velocity=89 time=0
EXTRACT: note_off channel=1 note=72 velocity=0 time=0.24193550000000003
EXTRACT: note_off channel=1 note=77 velocity=0 time=0
EXTRACT: note_on channel=1 note=68 velocity=89 time=0
EXTRACT: note_off channel=6 note=72 velocity=0 time=0
EXTRACT: note_off channel=6 note=77 velocity=0 time=0
EXTRACT: note_on channel=6 note=68 velocity=89 time=0
EXTRACT: note_off channel=0 note=65 velocity=0 time=0
EXTRACT: note_on channel=0 note=65 velocity=89 time=0
EXTRACT: note_off channel=1 note=68 velocity=0 time=0
EXTRACT: note_on channel=1 note=72 velocity=89 time=0
EXTRACT: note_off channel=6 note=68 velocity=0 time=0
EXTRACT: note_on channel=6 note=72 velocity=89 time=0
EXTRACT: note_off channel=8 note=65 velocity=0 time=0
EXTRACT: note_on channel=8 note=65 velocity=89 time=0
EXTRACT: note_off channel=1 note=72 velocity=0 time=0.24193550000000003
EXTRACT: note_on channel=1 note=68 velocity=89 time=0
EXTRACT: note_off channel=6 note=72 velocity=0 time=0
EXTRACT: note_on channel=6 note=68 velocity=89 time=0
EXTRACT: note_off channel=0 note=65 velocity=0 time=0
EXTRACT: note_on channel=0 note=65 velocity=89 time=0
EXTRACT: note_off channel=1 note=68 velocity=0 time=0
EXTRACT: note_on channel=1 note=77 velocity=89 time=0
EXTRACT: note_off channel=6 note=68 velocity=0 time=0
EXTRACT: note_on channel=6 note=77 velocity=89 time=0
EXTRACT: note_off channel=8 note=65 velocity=0 time=0
EXTRACT: note_on channel=8 note=65 velocity=89 time=0
EXTRACT: note_off channel=1 note=77 velocity=0 time=0.24193550000000003
EXTRACT: note_on channel=1 note=68 velocity=89 time=0
EXTRACT: note_off channel=6 note=77 velocity=0 time=0
EXTRACT: note_on channel=6 note=68 velocity=89 time=0
EXTRACT: note_off channel=0 note=65 velocity=0 time=0
EXTRACT: note_on channel=0 note=63 velocity=89 time=0
EXTRACT: note_off channel=1 note=68 velocity=0 time=0
EXTRACT: note_on channel=1 note=68 velocity=89 time=0
EXTRACT: note_off channel=6 note=68 velocity=0 time=0
EXTRACT: note_on channel=6 note=68 velocity=89 time=0
EXTRACT: note_off channel=8 note=65 velocity=0 time=0
EXTRACT: note_on channel=8 note=63 velocity=89 time=0
EXTRACT: note_off channel=0 note=63 velocity=0 time=0
EXTRACT: note_on channel=0 note=65 velocity=89 time=0
EXTRACT: note_off channel=1 note=68 velocity=0 time=0
EXTRACT: note_on channel=1 note=68 velocity=89 time=0
EXTRACT: note_off channel=6 note=68 velocity=0 time=0
EXTRACT: note_on channel=6 note=68 velocity=89 time=0
EXTRACT: note_off channel=8 note=63 velocity=0 time=0
EXTRACT: note_on channel=8 note=65 velocity=89 time=0
EXTRACT: note_off channel=0 note=65 velocity=0 time=0
EXTRACT: note_on channel=0 note=63 velocity=89 time=0
EXTRACT: note_off channel=1 note=68 velocity=0 time=0
EXTRACT: note_on channel=1 note=80 velocity=89 time=0
EXTRACT: note_off channel=2 note=56 velocity=0 time=0
EXTRACT: note_on channel=2 note=56 velocity=89 time=0
EXTRACT: note_off channel=6 note=68 velocity=0 time=0
EXTRACT: note_on channel=6 note=80 velocity=89 time=0
EXTRACT: note_off channel=7 note=56 velocity=0 time=0
EXTRACT: note_on channel=7 note=56 velocity=89 time=0
EXTRACT: note_off channel=8 note=65 velocity=0 time=0
EXTRACT: note_on channel=8 note=63 velocity=89 time=0
EXTRACT: note_off channel=0 note=63 velocity=0 time=0.24193550000000003
EXTRACT: note_off channel=1 note=80 velocity=0 time=0
EXTRACT: note_on channel=1 note=68 velocity=89 time=0
EXTRACT: note_off channel=6 note=80 velocity=0 time=0
EXTRACT: note_on channel=6 note=68 velocity=89 time=0
EXTRACT: note_off channel=8 note=63 velocity=0 time=0
EXTRACT: note_off channel=1 note=68 velocity=0 time=0.24193550000000003
EXTRACT: note_on channel=1 note=72 velocity=89 time=0
EXTRACT: note_off channel=6 note=68 velocity=0 time=0
EXTRACT: note_on channel=6 note=72 velocity=89 time=0
EXTRACT: note_off channel=1 note=72 velocity=0 time=0.24193550000000003
EXTRACT: note_on channel=1 note=79 velocity=89 time=0
EXTRACT: note_off channel=6 note=72 velocity=0 time=0
EXTRACT: note_on channel=6 note=79 velocity=89 time=0
EXTRACT: note_on channel=0 note=67 velocity=89 time=0
EXTRACT: note_off channel=1 note=79 velocity=0 time=0
EXTRACT: note_on channel=1 note=68 velocity=89 time=0
EXTRACT: note_off channel=6 note=79 velocity=0 time=0
EXTRACT: note_on channel=6 note=68 velocity=89 time=0
EXTRACT: note_on channel=8 note=67 velocity=89 time=0
EXTRACT: note_off channel=2 note=56 velocity=0 time=0
EXTRACT: note_on channel=2 note=56 velocity=89 time=0
EXTRACT: note_off channel=7 note=56 velocity=0 time=0
EXTRACT: note_on channel=7 note=56 velocity=89 time=0
EXTRACT: note_off channel=1 note=68 velocity=0 time=0.24193550000000003
EXTRACT: note_on channel=1 note=75 velocity=89 time=0
EXTRACT: note_off channel=6 note=68 velocity=0 time=0
EXTRACT: note_on channel=6 note=75 velocity=89 time=0
EXTRACT: note_off channel=0 note=67 velocity=0 time=0
EXTRACT: note_on channel=0 note=65 velocity=89 time=0
EXTRACT: note_off channel=1 note=75 velocity=0 time=0
EXTRACT: note_on channel=1 note=77 velocity=89 time=0
EXTRACT: note_off channel=6 note=75 velocity=0 time=0
EXTRACT: note_on channel=6 note=77 velocity=89 time=0
EXTRACT: note_off channel=8 note=67 velocity=0 time=0
EXTRACT: note_on channel=8 note=65 velocity=89 time=0
EXTRACT: note_off channel=0 note=65 velocity=0 time=0
EXTRACT: note_on channel=0 note=65 velocity=89 time=0
EXTRACT: note_off channel=1 note=77 velocity=0 time=0
EXTRACT: note_on channel=1 note=72 velocity=89 time=0
EXTRACT: note_on channel=1 note=68 velocity=89 time=0
EXTRACT: note_off channel=2 note=56 velocity=0 time=0
EXTRACT: note_on channel=2 note=56 velocity=89 time=0
EXTRACT: note_off channel=6 note=77 velocity=0 time=0
EXTRACT: note_on channel=6 note=72 velocity=89 time=0
EXTRACT: note_on channel=6 note=68 velocity=89 time=0
EXTRACT: note_off channel=7 note=56 velocity=0 time=0
EXTRACT: note_on channel=7 note=56 velocity=89 time=0
EXTRACT: note_off channel=8 note=65 velocity=0 time=0
EXTRACT: note_on channel=8 note=65 velocity=89 time=0
EXTRACT: note_off channel=0 note=65 velocity=0 time=0
EXTRACT: note_on channel=0 note=65 velocity=89 time=0
EXTRACT: note_off channel=1 note=68 velocity=0 time=0
EXTRACT: note_off channel=1 note=72 velocity=0 time=0
EXTRACT: note_on channel=1 note=65 velocity=89 time=0
EXTRACT: note_off channel=6 note=68 velocity=0 time=0
EXTRACT: note_off channel=6 note=72 velocity=0 time=0
EXTRACT: note_on channel=6 note=65 velocity=89 time=0
EXTRACT: note_off channel=8 note=65 velocity=0 time=0
EXTRACT: note_on channel=8 note=65 velocity=89 time=0
EXTRACT: note_off channel=1 note=65 velocity=0 time=0.24193550000000003
EXTRACT: note_on channel=1 note=75 velocity=89 time=0
EXTRACT: note_on channel=1 note=72 velocity=89 time=0
EXTRACT: note_off channel=6 note=65 velocity=0 time=0
EXTRACT: note_on channel=6 note=75 velocity=89 time=0
EXTRACT: note_on channel=6 note=72 velocity=89 time=0
EXTRACT: note_off channel=0 note=65 velocity=0 time=0
EXTRACT: note_on channel=0 note=65 velocity=89 time=0
EXTRACT: note_off channel=1 note=72 velocity=0 time=0
EXTRACT: note_off channel=1 note=75 velocity=0 time=0
EXTRACT: note_on channel=1 note=75 velocity=89 time=0
EXTRACT: note_on channel=1 note=72 velocity=89 time=0
EXTRACT: note_off channel=6 note=72 velocity=0 time=0
EXTRACT: note_off channel=6 note=75 velocity=0 time=0
EXTRACT: note_on channel=6 note=75 velocity=89 time=0
EXTRACT: note_on channel=6 note=72 velocity=89 time=0
EXTRACT: note_off channel=8 note=65 velocity=0 time=0
EXTRACT: note_on channel=8 note=65 velocity=89 time=0
EXTRACT: note_off channel=2 note=56 velocity=0 time=0.24193550000000003
EXTRACT: note_on channel=2 note=56 velocity=89 time=0
EXTRACT: note_off channel=7 note=56 velocity=0 time=0
EXTRACT: note_on channel=7 note=56 velocity=89 time=0
EXTRACT: note_off channel=0 note=65 velocity=0 time=0
EXTRACT: note_on channel=0 note=63 velocity=89 time=0
EXTRACT: note_off channel=1 note=72 velocity=0 time=0
EXTRACT: note_off channel=1 note=75 velocity=0 time=0
EXTRACT: note_on channel=1 note=75 velocity=89 time=0
EXTRACT: note_off channel=6 note=72 velocity=0 time=0
EXTRACT: note_off channel=6 note=75 velocity=0 time=0
EXTRACT: note_on channel=6 note=75 velocity=89 time=0
EXTRACT: note_off channel=8 note=65 velocity=0 time=0
EXTRACT: note_on channel=8 note=63 velocity=89 time=0
EXTRACT: note_off channel=0 note=63 velocity=0 time=0
EXTRACT: note_on channel=0 note=65 velocity=89 time=0
EXTRACT: note_off channel=1 note=75 velocity=0 time=0
EXTRACT: note_on channel=1 note=77 velocity=89 time=0
EXTRACT: note_off channel=6 note=75 velocity=0 time=0
EXTRACT: note_on channel=6 note=77 velocity=89 time=0
EXTRACT: note_off channel=8 note=63 velocity=0 time=0
EXTRACT: note_on channel=8 note=65 velocity=89 time=0
EXTRACT: note_off channel=0 note=65 velocity=0 time=0
EXTRACT: note_on channel=0 note=63 velocity=89 time=0
EXTRACT: note_off channel=1 note=77 velocity=0 time=0
EXTRACT: note_on channel=1 note=74 velocity=89 time=0
EXTRACT: note_on channel=1 note=70 velocity=89 time=0
EXTRACT: note_off channel=6 note=77 velocity=0 time=0
EXTRACT: note_on channel=6 note=74 velocity=89 time=0
EXTRACT: note_on channel=6 note=70 velocity=89 time=0
EXTRACT: note_off channel=8 note=65 velocity=0 time=0
EXTRACT: note_on channel=8 note=63 velocity=89 time=0
EXTRACT: note_off channel=0 note=63 velocity=0 time=0.24193550000000003
EXTRACT: note_off channel=8 note=63 velocity=0 time=0
EXTRACT: note_on channel=0 note=67 velocity=89 time=0
EXTRACT: note_off channel=1 note=70 velocity=0 time=0
EXTRACT: note_off channel=1 note=74 velocity=0 time=0
EXTRACT: note_on channel=1 note=70 velocity=89 time=0
EXTRACT: note_off channel=6 note=70 velocity=0 time=0
EXTRACT: note_off channel=6 note=74 velocity=0 time=0
EXTRACT: note_on channel=6 note=70 velocity=89 time=0
EXTRACT: note_on channel=8 note=67 velocity=89 time=0
EXTRACT: note_off channel=0 note=67 velocity=0 time=0
EXTRACT: note_on channel=0 note=67 velocity=89 time=0
EXTRACT: note_off channel=1 note=70 velocity=0 time=0
EXTRACT: note_on channel=1 note=82 velocity=89 time=0
EXTRACT: note_off channel=6 note=70 velocity=0 time=0
EXTRACT: note_on channel=6 note=82 velocity=89 time=0
EXTRACT: note_off channel=8 note=67 velocity=0 time=0
EXTRACT: note_on channel=8 note=67 velocity=89 time=0
EXTRACT: note_off channel=0 note=67 velocity=0 time=0
EXTRACT: note_on channel=0 note=68 velocity=89 time=0
EXTRACT: note_off channel=8 note=67 velocity=0 time=0
EXTRACT: note_on channel=8 note=68 velocity=89 time=0
EXTRACT: note_off channel=0 note=68 velocity=0 time=0
EXTRACT: note_on channel=0 note=70 velocity=89 time=0
EXTRACT: note_off channel=8 note=68 velocity=0 time=0
EXTRACT: note_on channel=8 note=70 velocity=89 time=0
EXTRACT: note_off channel=0 note=70 velocity=0 time=0
EXTRACT: note_on channel=0 note=75 velocity=89 time=0
EXTRACT: note_off channel=8 note=70 velocity=0 time=0
EXTRACT: note_on channel=8 note=75 velocity=89 time=0
EXTRACT: note_off channel=1 note=82 velocity=0 time=0
EXTRACT: note_off channel=2 note=56 velocity=0 time=0
EXTRACT: note_on channel=2 note=48 velocity=89 time=0
EXTRACT: note_on channel=3 note=87 velocity=89 time=0
EXTRACT: note_off channel=6 note=82 velocity=0 time=0
EXTRACT: note_off channel=7 note=56 velocity=0 time=0
EXTRACT: note_on channel=7 note=48 velocity=89 time=0
EXTRACT: note_on channel=1 note=79 velocity=89 time=0.24193550000000003
EXTRACT: note_on channel=6 note=79 velocity=89 time=0
EXTRACT: note_on channel=5 note=60 velocity=89 time=0
EXTRACT: note_off channel=0 note=75 velocity=0 time=0
EXTRACT: note_on channel=0 note=74 velocity=89 time=0
EXTRACT: note_off channel=3 note=87 velocity=0 time=0
EXTRACT: note_on channel=3 note=86 velocity=89 time=0
EXTRACT: note_off channel=8 note=75 velocity=0 time=0
EXTRACT: note_on channel=8 note=74 velocity=89 time=0
EXTRACT: note_off channel=0 note=74 velocity=0 time=0
EXTRACT: note_on channel=0 note=75 velocity=89 time=0
EXTRACT: note_off channel=8 note=74 velocity=0 time=0
EXTRACT: note_on channel=8 note=75 velocity=89 time=0
EXTRACT: note_off channel=0 note=75 velocity=0 time=0
EXTRACT: note_on channel=0 note=74 velocity=89 time=0
EXTRACT: note_off channel=8 note=75 velocity=0 time=0
EXTRACT: note_on channel=8 note=74 velocity=89 time=0
EXTRACT: note_off channel=5 note=60 velocity=0 time=0.24193550000000003
EXTRACT: note_on channel=5 note=60 velocity=89 time=0
EXTRACT: note_off channel=0 note=74 velocity=0 time=0
EXTRACT: note_on channel=0 note=72 velocity=89 time=0
EXTRACT: note_off channel=3 note=86 velocity=0 time=0
EXTRACT: note_on channel=3 note=84 velocity=89 time=0
EXTRACT: note_off channel=8 note=74 velocity=0 time=0
EXTRACT: note_on channel=8 note=72 velocity=89 time=0
EXTRACT: note_off channel=1 note=79 velocity=0 time=0
EXTRACT: note_on channel=1 note=80 velocity=89 time=0
EXTRACT: note_off channel=2 note=48 velocity=0 time=0
EXTRACT: note_on channel=2 note=56 velocity=89 time=0
EXTRACT: note_off channel=5 note=60 velocity=0 time=0
EXTRACT: note_off channel=6 note=79 velocity=0 time=0
EXTRACT: note_on channel=6 note=80 velocity=89 time=0
EXTRACT: note_off channel=7 note=48 velocity=0 time=0
EXTRACT: note_on channel=7 note=56 velocity=89 time=0
EXTRACT: note_off channel=1 note=80 velocity=0 time=0.24193550000000003
EXTRACT: note_on channel=1 note=72 velocity=89 time=0
EXTRACT: note_off channel=6 note=80 velocity=0 time=0
EXTRACT: note_on channel=6 note=72 velocity=89 time=0
EXTRACT: note_off channel=0 note=72 velocity=0 time=0
EXTRACT: note_on channel=0 note=70 velocity=89 time=0
EXTRACT: note_off channel=3 note=84 velocity=0 time=0
EXTRACT: note_on channel=3 note=82 velocity=89 time=0
EXTRACT: note_off channel=8 note=72 velocity=0 time=0
EXTRACT: note_on channel=8 note=70 velocity=89 time=0
EXTRACT: note_off channel=0 note=70 velocity=0 time=0.24193550000000003
EXTRACT: note_off channel=8 note=70 velocity=0 time=0
EXTRACT: note_on channel=5 note=68 velocity=89 time=0.24193550000000003
EXTRACT: note_on channel=0 note=67 velocity=89 time=0
EXTRACT: note_off channel=3 note=82 velocity=0 time=0
EXTRACT: note_on channel=3 note=80 velocity=89 time=0
EXTRACT: note_on channel=8 note=67 velocity=89 time=0
EXTRACT: note_off channel=0 note=67 velocity=0 time=0
EXTRACT: note_on channel=0 note=67 velocity=89 time=0
EXTRACT: note_off channel=3 note=80 velocity=0 time=0
EXTRACT: note_on channel=3 note=82 velocity=89 time=0
EXTRACT: note_off channel=8 note=67 velocity=0 time=0
EXTRACT: note_on channel=8 note=67 velocity=89 time=0
EXTRACT: note_off channel=1 note=72 velocity=0 time=0
EXTRACT: note_on channel=1 note=79 velocity=89 time=0
EXTRACT: note_on channel=1 note=75 velocity=89 time=0
EXTRACT: note_off channel=2 note=56 velocity=0 time=0
EXTRACT: note_on channel=2 note=51 velocity=89 time=0
EXTRACT: note_off channel=3 note=82 velocity=0 time=0
EXTRACT: note_off channel=5 note=68 velocity=0 time=0
EXTRACT: note_off channel=6 note=72 velocity=0 time=0
EXTRACT: note_on channel=6 note=79 velocity=89 time=0
EXTRACT: note_on channel=6 note=75 velocity=89 time=0
EXTRACT: note_off channel=7 note=56 velocity=0 time=0
EXTRACT: note_on channel=7 note=51 velocity=89 time=0
EXTRACT: note_off channel=1 note=75 velocity=0 time=0.7258065
EXTRACT: note_off channel=1 note=79 velocity=0 time=0
EXTRACT: note_on channel=1 note=77 velocity=89 time=0
EXTRACT: note_on channel=1 note=82 velocity=89 time=0
EXTRACT: note_off channel=6 note=75 velocity=0 time=0
EXTRACT: note_off channel=6 note=79 velocity=0 time=0
EXTRACT: note_on channel=6 note=77 velocity=89 time=0
EXTRACT: note_on channel=6 note=82 velocity=89 time=0
EXTRACT: note_off channel=0 note=67 velocity=0 time=0.24193550000000003
EXTRACT: note_off channel=8 note=67 velocity=0 time=0
EXTRACT: note_off channel=2 note=51 velocity=0 time=0.24193550000000003
EXTRACT: note_on channel=2 note=63 velocity=89 time=0
EXTRACT: note_off channel=7 note=51 velocity=0 time=0
EXTRACT: note_on channel=7 note=63 velocity=89 time=0
EXTRACT: note_off channel=1 note=82 velocity=0 time=0.24193550000000003
EXTRACT: note_off channel=1 note=77 velocity=0 time=0
EXTRACT: note_on channel=1 note=75 velocity=89 time=0
EXTRACT: note_off channel=6 note=82 velocity=0 time=0
EXTRACT: note_off channel=6 note=77 velocity=0 time=0
EXTRACT: note_on channel=6 note=75 velocity=89 time=0
EXTRACT: note_off channel=1 note=75 velocity=0 time=0.24193550000000003
EXTRACT: note_on channel=1 note=82 velocity=89 time=0
EXTRACT: note_off channel=6 note=75 velocity=0 time=0
EXTRACT: note_on channel=6 note=82 velocity=89 time=0
EXTRACT: note_on channel=0 note=67 velocity=89 time=0
EXTRACT: note_off channel=1 note=82 velocity=0 time=0
EXTRACT: note_on channel=1 note=77 velocity=89 time=0
EXTRACT: note_on channel=1 note=74 velocity=89 time=0
EXTRACT: note_on channel=1 note=72 velocity=89 time=0
EXTRACT: note_off channel=2 note=63 velocity=0 time=0
EXTRACT: note_on channel=2 note=58 velocity=89 time=0
EXTRACT: note_off channel=6 note=82 velocity=0 time=0
EXTRACT: note_on channel=6 note=77 velocity=89 time=0
EXTRACT: note_on channel=6 note=74 velocity=89 time=0
EXTRACT: note_on channel=6 note=72 velocity=89 time=0
EXTRACT: note_off channel=7 note=63 velocity=0 time=0
EXTRACT: note_on channel=7 note=58 velocity=89 time=0
EXTRACT: note_on channel=8 note=67 velocity=89 time=0
EXTRACT: note_off channel=0 note=67 velocity=0 time=0.24193550000000003
EXTRACT: note_off channel=8 note=67 velocity=0 time=0
EXTRACT: note_on channel=0 note=67 velocity=89 time=0
EXTRACT: note_on channel=8 note=67 velocity=89 time=0
EXTRACT: note_off channel=0 note=67 velocity=0 time=0
EXTRACT: note_on channel=0 note=67 velocity=89 time=0
EXTRACT: note_off channel=1 note=72 velocity=0 time=0
EXTRACT: note_off channel=1 note=74 velocity=0 time=0
EXTRACT: note_off channel=1 note=77 velocity=0 time=0
EXTRACT: note_on channel=1 note=70 velocity=89 time=0
EXTRACT: note_off channel=6 note=72 velocity=0 time=0
EXTRACT: note_off channel=6 note=74 velocity=0 time=0
EXTRACT: note_off channel=6 note=77 velocity=0 time=0
EXTRACT: note_on channel=6 note=70 velocity=89 time=0
EXTRACT: note_off channel=8 note=67 velocity=0 time=0
EXTRACT: note_on channel=8 note=67 velocity=89 time=0
EXTRACT: note_off channel=0 note=67 velocity=0 time=0
EXTRACT: note_on channel=0 note=68 velocity=89 time=0
EXTRACT: note_off channel=8 note=67 velocity=0 time=0
EXTRACT: note_on channel=8 note=68 velocity=89 time=0
EXTRACT: note_off channel=0 note=68 velocity=0 time=0
EXTRACT: note_on channel=0 note=70 velocity=89 time=0
EXTRACT: note_off channel=8 note=68 velocity=0 time=0
EXTRACT: note_on channel=8 note=70 velocity=89 time=0
EXTRACT: note_off channel=0 note=70 velocity=0 time=0
EXTRACT: note_on channel=0 note=75 velocity=89 time=0
EXTRACT: note_off channel=8 note=70 velocity=0 time=0
EXTRACT: note_on channel=8 note=75 velocity=89 time=0
EXTRACT: note_off channel=1 note=70 velocity=0 time=0
EXTRACT: note_off channel=2 note=58 velocity=0 time=0
EXTRACT: note_on channel=2 note=48 velocity=89 time=0
EXTRACT: note_on channel=3 note=87 velocity=89 time=0
EXTRACT: note_off channel=6 note=70 velocity=0 time=0
EXTRACT: note_off channel=7 note=58 velocity=0 time=0
EXTRACT: note_on channel=7 note=48 velocity=89 time=0
EXTRACT: note_on channel=1 note=79 velocity=89 time=0.24193550000000003
EXTRACT: note_on channel=6 note=79 velocity=89 time=0
EXTRACT: note_on channel=5 note=60 velocity=89 time=0
EXTRACT: note_off channel=0 note=75 velocity=0 time=0
EXTRACT: note_on channel=0 note=74 velocity=89 time=0
EXTRACT: note_off channel=3 note=87 velocity=0 time=0
EXTRACT: note_on channel=3 note=86 velocity=89 time=0
EXTRACT: note_off channel=8 note=75 velocity=0 time=0
EXTRACT: note_on channel=8 note=74 velocity=89 time=0
EXTRACT: note_off channel=0 note=74 velocity=0 time=0
EXTRACT: note_on channel=0 note=75 velocity=89 time=0
EXTRACT: note_off channel=8 note=74 velocity=0 time=0
EXTRACT: note_on channel=8 note=75 velocity=89 time=0
EXTRACT: note_off channel=0 note=75 velocity=0 time=0
EXTRACT: note_on channel=0 note=74 velocity=89 time=0
EXTRACT: note_off channel=8 note=75 velocity=0 time=0
EXTRACT: note_on channel=8 note=74 velocity=89 time=0
EXTRACT: note_off channel=5 note=60 velocity=0 time=0.24193550000000003
EXTRACT: note_on channel=5 note=60 velocity=89 time=0
EXTRACT: note_off channel=0 note=74 velocity=0 time=0
EXTRACT: note_on channel=0 note=72 velocity=89 time=0
EXTRACT: note_off channel=3 note=86 velocity=0 time=0
EXTRACT: note_on channel=3 note=84 velocity=89 time=0
EXTRACT: note_off channel=8 note=74 velocity=0 time=0
EXTRACT: note_on channel=8 note=72 velocity=89 time=0
EXTRACT: note_off channel=1 note=79 velocity=0 time=0
EXTRACT: note_on channel=1 note=80 velocity=89 time=0
EXTRACT: note_off channel=2 note=48 velocity=0 time=0
EXTRACT: note_on channel=2 note=44 velocity=89 time=0
EXTRACT: note_off channel=5 note=60 velocity=0 time=0
EXTRACT: note_off channel=6 note=79 velocity=0 time=0
EXTRACT: note_on channel=6 note=80 velocity=89 time=0
EXTRACT: note_off channel=7 note=48 velocity=0 time=0
EXTRACT: note_on channel=7 note=44 velocity=89 time=0
EXTRACT: note_off channel=1 note=80 velocity=0 time=0.24193550000000003
EXTRACT: note_on channel=1 note=72 velocity=89 time=0
EXTRACT: note_off channel=6 note=80 velocity=0 time=0
EXTRACT: note_on channel=6 note=72 velocity=89 time=0
EXTRACT: note_on channel=5 note=56 velocity=89 time=0
EXTRACT: note_off channel=0 note=72 velocity=0 time=0
EXTRACT: note_on channel=0 note=70 velocity=89 time=0
EXTRACT: note_off channel=3 note=84 velocity=0 time=0
EXTRACT: note_on channel=3 note=82 velocity=89 time=0
EXTRACT: note_off channel=8 note=72 velocity=0 time=0
EXTRACT: note_on channel=8 note=70 velocity=89 time=0
EXTRACT: note_off channel=0 note=70 velocity=0 time=0.24193550000000003
EXTRACT: note_off channel=8 note=70 velocity=0 time=0
EXTRACT: note_off channel=5 note=56 velocity=0 time=0.24193550000000003
EXTRACT: note_on channel=5 note=56 velocity=89 time=0
EXTRACT: note_on channel=0 note=67 velocity=89 time=0
EXTRACT: note_off channel=3 note=82 velocity=0 time=0
EXTRACT: note_on channel=3 note=80 velocity=89 time=0
EXTRACT: note_on channel=8 note=67 velocity=89 time=0
EXTRACT: note_off channel=0 note=67 velocity=0 time=0
EXTRACT: note_on channel=0 note=67 velocity=89 time=0
EXTRACT: note_off channel=3 note=80 velocity=0 time=0
EXTRACT: note_on channel=3 note=82 velocity=89 time=0
EXTRACT: note_off channel=8 note=67 velocity=0 time=0
EXTRACT: note_on channel=8 note=67 velocity=89 time=0
EXTRACT: note_off channel=1 note=72 velocity=0 time=0
EXTRACT: note_on channel=1 note=79 velocity=89 time=0
EXTRACT: note_on channel=1 note=75 velocity=89 time=0
EXTRACT: note_off channel=2 note=44 velocity=0 time=0
EXTRACT: note_on channel=2 note=51 velocity=89 time=0
EXTRACT: note_off channel=3 note=82 velocity=0 time=0
EXTRACT: note_off channel=5 note=56 velocity=0 time=0
EXTRACT: note_off channel=6 note=72 velocity=0 time=0
EXTRACT: note_on channel=6 note=79 velocity=89 time=0
EXTRACT: note_on channel=6 note=75 velocity=89 time=0
EXTRACT: note_off channel=7 note=44 velocity=0 time=0
EXTRACT: note_on channel=7 note=51 velocity=89 time=0
EXTRACT: note_off channel=1 note=75 velocity=0 time=0.7258065
EXTRACT: note_off channel=1 note=79 velocity=0 time=0
EXTRACT: note_on channel=1 note=77 velocity=89 time=0
EXTRACT: note_on channel=1 note=82 velocity=89 time=0
EXTRACT: note_off channel=6 note=75 velocity=0 time=0
EXTRACT: note_off channel=6 note=79 velocity=0 time=0
EXTRACT: note_on channel=6 note=77 velocity=89 time=0
EXTRACT: note_on channel=6 note=82 velocity=89 time=0
EXTRACT: note_off channel=0 note=67 velocity=0 time=0.24193550000000003
EXTRACT: note_off channel=8 note=67 velocity=0 time=0
EXTRACT: note_off channel=2 note=51 velocity=0 time=0.24193550000000003
EXTRACT: note_on channel=2 note=63 velocity=89 time=0
EXTRACT: note_off channel=7 note=51 velocity=0 time=0
EXTRACT: note_on channel=7 note=63 velocity=89 time=0
EXTRACT: note_on channel=0 note=67 velocity=89 time=0
EXTRACT: note_off channel=1 note=82 velocity=0 time=0
EXTRACT: note_off channel=1 note=77 velocity=0 time=0
EXTRACT: note_on channel=1 note=75 velocity=89 time=0
EXTRACT: note_off channel=6 note=82 velocity=0 time=0
EXTRACT: note_off channel=6 note=77 velocity=0 time=0
EXTRACT: note_on channel=6 note=75 velocity=89 time=0
EXTRACT: note_on channel=8 note=67 velocity=89 time=0
EXTRACT: note_off channel=0 note=67 velocity=0 time=0
EXTRACT: note_on channel=0 note=65 velocity=89 time=0
EXTRACT: note_off channel=1 note=75 velocity=0 time=0
EXTRACT: note_on channel=1 note=82 velocity=89 time=0
EXTRACT: note_off channel=6 note=75 velocity=0 time=0
EXTRACT: note_on channel=6 note=82 velocity=89 time=0
EXTRACT: note_off channel=8 note=67 velocity=0 time=0
EXTRACT: note_on channel=8 note=65 velocity=89 time=0
EXTRACT: note_off channel=1 note=82 velocity=0 time=0
EXTRACT: note_on channel=1 note=77 velocity=89 time=0
EXTRACT: note_on channel=1 note=74 velocity=89 time=0
EXTRACT: note_on channel=1 note=72 velocity=89 time=0
EXTRACT: note_off channel=2 note=63 velocity=0 time=0
EXTRACT: note_on channel=2 note=58 velocity=89 time=0
EXTRACT: note_off channel=6 note=82 velocity=0 time=0
EXTRACT: note_on channel=6 note=77 velocity=89 time=0
EXTRACT: note_on channel=6 note=74 velocity=89 time=0
EXTRACT: note_on channel=6 note=72 velocity=89 time=0
EXTRACT: note_off channel=7 note=63 velocity=0 time=0
EXTRACT: note_on channel=7 note=58 velocity=89 time=0
EXTRACT: note_off channel=0 note=65 velocity=0 time=0.9677420000000001
EXTRACT: note_off channel=8 note=65 velocity=0 time=0
EXTRACT: note_off channel=1 note=72 velocity=0 time=0.9677420000000001
EXTRACT: note_off channel=1 note=74 velocity=0 time=0
EXTRACT: note_off channel=1 note=77 velocity=0 time=0
EXTRACT: note_on channel=1 note=79 velocity=89 time=0
EXTRACT: note_on channel=1 note=72 velocity=89 time=0
EXTRACT: note_on channel=1 note=67 velocity=89 time=0
EXTRACT: note_off channel=2 note=58 velocity=0 time=0
EXTRACT: note_on channel=2 note=48 velocity=89 time=0
EXTRACT: note_off channel=6 note=72 velocity=0 time=0
EXTRACT: note_off channel=6 note=74 velocity=0 time=0
EXTRACT: note_off channel=6 note=77 velocity=0 time=0
EXTRACT: note_on channel=6 note=79 velocity=89 time=0
EXTRACT: note_on channel=6 note=72 velocity=89 time=0
EXTRACT: note_on channel=6 note=67 velocity=89 time=0
EXTRACT: note_off channel=7 note=58 velocity=0 time=0
EXTRACT: note_on channel=7 note=48 velocity=89 time=0
EXTRACT: note_off channel=1 note=67 velocity=0 time=0.7258065
EXTRACT: note_off channel=1 note=72 velocity=0 time=0
EXTRACT: note_off channel=1 note=79 velocity=0 time=0
EXTRACT: note_on channel=1 note=67 velocity=89 time=0
EXTRACT: note_on channel=1 note=72 velocity=89 time=0
EXTRACT: note_off channel=6 note=67 velocity=0 time=0
EXTRACT: note_off channel=6 note=72 velocity=0 time=0
EXTRACT: note_off channel=6 note=79 velocity=0 time=0
EXTRACT: note_on channel=6 note=67 velocity=89 time=0
EXTRACT: note_on channel=6 note=72 velocity=89 time=0
EXTRACT: note_on channel=0 note=65 velocity=89 time=0
EXTRACT: note_off channel=2 note=48 velocity=0 time=0
EXTRACT: note_on channel=2 note=60 velocity=89 time=0
EXTRACT: note_off channel=7 note=48 velocity=0 time=0
EXTRACT: note_on channel=7 note=60 velocity=89 time=0
EXTRACT: note_on channel=8 note=65 velocity=89 time=0
EXTRACT: note_off channel=0 note=65 velocity=0 time=0
EXTRACT: note_on channel=0 note=67 velocity=89 time=0
EXTRACT: note_off channel=2 note=60 velocity=0 time=0
EXTRACT: note_on channel=2 note=60 velocity=89 time=0
EXTRACT: note_off channel=7 note=60 velocity=0 time=0
EXTRACT: note_on channel=7 note=60 velocity=89 time=0
EXTRACT: note_off channel=8 note=65 velocity=0 time=0
EXTRACT: note_on channel=8 note=67 velocity=89 time=0
EXTRACT: note_off channel=0 note=67 velocity=0 time=0
EXTRACT: note_on channel=0 note=65 velocity=89 time=0
EXTRACT: note_off channel=1 note=72 velocity=0 time=0
EXTRACT: note_off channel=1 note=67 velocity=0 time=0
EXTRACT: note_on channel=1 note=67 velocity=89 time=0
EXTRACT: note_on channel=1 note=72 velocity=89 time=0
EXTRACT: note_off channel=6 note=72 velocity=0 time=0
EXTRACT: note_off channel=6 note=67 velocity=0 time=0
EXTRACT: note_on channel=6 note=67 velocity=89 time=0
EXTRACT: note_on channel=6 note=72 velocity=89 time=0
EXTRACT: note_off channel=8 note=67 velocity=0 time=0
EXTRACT: note_on channel=8 note=65 velocity=89 time=0
EXTRACT: note_off channel=0 note=65 velocity=0 time=0
EXTRACT: note_on channel=0 note=67 velocity=89 time=0
EXTRACT: note_off channel=8 note=65 velocity=0 time=0
EXTRACT: note_on channel=8 note=67 velocity=89 time=0
EXTRACT: note_off channel=0 note=67 velocity=0 time=0
EXTRACT: note_on channel=0 note=65 velocity=89 time=0
EXTRACT: note_off channel=1 note=72 velocity=0 time=0
EXTRACT: note_off channel=1 note=67 velocity=0 time=0
EXTRACT: note_on channel=1 note=75 velocity=89 time=0
EXTRACT: note_on channel=1 note=72 velocity=89 time=0
EXTRACT: note_on channel=1 note=67 velocity=89 time=0
EXTRACT: note_off channel=2 note=60 velocity=0 time=0
EXTRACT: note_on channel=2 note=56 velocity=89 time=0
EXTRACT: note_off channel=6 note=72 velocity=0 time=0
EXTRACT: note_off channel=6 note=67 velocity=0 time=0
EXTRACT: note_on channel=6 note=75 velocity=89 time=0
EXTRACT: note_on channel=6 note=72 velocity=89 time=0
EXTRACT: note_on channel=6 note=67 velocity=89 time=0
EXTRACT: note_off channel=7 note=60 velocity=0 time=0
EXTRACT: note_on channel=7 note=56 velocity=89 time=0
EXTRACT: note_off channel=8 note=67 velocity=0 time=0
EXTRACT: note_on channel=8 note=65 velocity=89 time=0
EXTRACT: note_off channel=0 note=65 velocity=0 time=0
EXTRACT: note_on channel=0 note=67 velocity=89 time=0
EXTRACT: note_off channel=8 note=65 velocity=0 time=0
EXTRACT: note_on channel=8 note=67 velocity=89 time=0
EXTRACT: note_off channel=0 note=67 velocity=0 time=0
EXTRACT: note_on channel=0 note=67 velocity=89 time=0
EXTRACT: note_off channel=8 note=67 velocity=0 time=0
EXTRACT: note_on channel=8 note=67 velocity=89 time=0
EXTRACT: note_off channel=0 note=67 velocity=0 time=0
EXTRACT: note_on channel=0 note=65 velocity=89 time=0
EXTRACT: note_off channel=1 note=67 velocity=0 time=0
EXTRACT: note_off channel=1 note=72 velocity=0 time=0
EXTRACT: note_off channel=1 note=75 velocity=0 time=0
EXTRACT: note_on channel=1 note=75 velocity=89 time=0
EXTRACT: note_on channel=1 note=72 velocity=89 time=0
EXTRACT: note_off channel=6 note=67 velocity=0 time=0
EXTRACT: note_off channel=6 note=72 velocity=0 time=0
EXTRACT: note_off channel=6 note=75 velocity=0 time=0
EXTRACT: note_on channel=6 note=75 velocity=89 time=0
EXTRACT: note_on channel=6 note=72 velocity=89 time=0
EXTRACT: note_off channel=8 note=67 velocity=0 time=0
EXTRACT: note_on channel=8 note=65 velocity=89 time=0
EXTRACT: note_off channel=0 note=65 velocity=0 time=0
EXTRACT: note_on channel=0 note=67 velocity=89 time=0
EXTRACT: note_off channel=8 note=65 velocity=0 time=0
EXTRACT: note_on channel=8 note=67 velocity=89 time=0
EXTRACT: note_off channel=0 note=67 velocity=0 time=0
EXTRACT: note_on channel=0 note=65 velocity=89 time=0
EXTRACT: note_off channel=1 note=72 velocity=0 time=0
EXTRACT: note_off channel=1 note=75 velocity=0 time=0
EXTRACT: note_on channel=1 note=68 velocity=89 time=0
EXTRACT: note_off channel=6 note=72 velocity=0 time=0
EXTRACT: note_off channel=6 note=75 velocity=0 time=0
EXTRACT: note_on channel=6 note=68 velocity=89 time=0
EXTRACT: note_off channel=8 note=67 velocity=0 time=0
EXTRACT: note_on channel=8 note=65 velocity=89 time=0
EXTRACT: note_off channel=0 note=65 velocity=0 time=0
EXTRACT: note_on channel=0 note=63 velocity=89 time=0
EXTRACT: note_off channel=1 note=68 velocity=0 time=0
EXTRACT: note_on channel=1 note=75 velocity=89 time=0
EXTRACT: note_on channel=1 note=72 velocity=89 time=0
EXTRACT: note_off channel=6 note=68 velocity=0 time=0
EXTRACT: note_on channel=6 note=75 velocity=89 time=0
EXTRACT: note_on channel=6 note=72 velocity=89 time=0
EXTRACT: note_off channel=8 note=65 velocity=0 time=0
EXTRACT: note_on channel=8 note=63 velocity=89 time=0
EXTRACT: note_off channel=0 note=63 velocity=0 time=0
EXTRACT: note_on channel=0 note=63 velocity=89 time=0
EXTRACT: note_off channel=1 note=72 velocity=0 time=0
EXTRACT: note_off channel=1 note=75 velocity=0 time=0
EXTRACT: note_on channel=1 note=75 velocity=89 time=0
EXTRACT: note_on channel=1 note=70 velocity=89 time=0
EXTRACT: note_on channel=1 note=67 velocity=89 time=0
EXTRACT: note_off channel=2 note=56 velocity=0 time=0
EXTRACT: note_on channel=2 note=51 velocity=89 time=0
EXTRACT: note_off channel=6 note=72 velocity=0 time=0
EXTRACT: note_off channel=6 note=75 velocity=0 time=0
EXTRACT: note_on channel=6 note=75 velocity=89 time=0
EXTRACT: note_on channel=6 note=70 velocity=89 time=0
EXTRACT: note_on channel=6 note=67 velocity=89 time=0
EXTRACT: note_off channel=7 note=56 velocity=0 time=0
EXTRACT: note_on channel=7 note=51 velocity=89 time=0
EXTRACT: note_off channel=8 note=63 velocity=0 time=0
EXTRACT: note_on channel=8 note=63 velocity=89 time=0
EXTRACT: note_off channel=0 note=63 velocity=0 time=0.48387100000000005
EXTRACT: note_off channel=8 note=63 velocity=0 time=0
EXTRACT: note_off channel=1 note=67 velocity=0 time=0.24193550000000003
EXTRACT: note_off channel=1 note=70 velocity=0 time=0
EXTRACT: note_off channel=1 note=75 velocity=0 time=0
EXTRACT: note_on channel=1 note=75 velocity=89 time=0
EXTRACT: note_on channel=1 note=70 velocity=89 time=0
EXTRACT: note_on channel=1 note=67 velocity=89 time=0
EXTRACT: note_off channel=6 note=67 velocity=0 time=0
EXTRACT: note_off channel=6 note=70 velocity=0 time=0
EXTRACT: note_off channel=6 note=75 velocity=0 time=0
EXTRACT: note_on channel=6 note=75 velocity=89 time=0
EXTRACT: note_on channel=6 note=70 velocity=89 time=0
EXTRACT: note_on channel=6 note=67 velocity=89 time=0
EXTRACT: note_on channel=0 note=68 velocity=89 time=0
EXTRACT: note_on channel=8 note=68 velocity=89 time=0
EXTRACT: note_off channel=0 note=68 velocity=0 time=0
EXTRACT: note_on channel=0 note=67 velocity=89 time=0
EXTRACT: note_off channel=2 note=51 velocity=0 time=0
EXTRACT: note_on channel=2 note=63 velocity=89 time=0
EXTRACT: note_off channel=7 note=51 velocity=0 time=0
EXTRACT: note_on channel=7 note=63 velocity=89 time=0
EXTRACT: note_off channel=8 note=68 velocity=0 time=0
EXTRACT: note_on channel=8 note=67 velocity=89 time=0
EXTRACT: note_off channel=0 note=67 velocity=0 time=0
EXTRACT: note_on channel=0 note=67 velocity=89 time=0
EXTRACT: note_off channel=1 note=67 velocity=0 time=0
EXTRACT: note_off channel=1 note=70 velocity=0 time=0
EXTRACT: note_off channel=1 note=75 velocity=0 time=0
EXTRACT: note_on channel=1 note=75 velocity=89 time=0
EXTRACT: note_on channel=1 note=70 velocity=89 time=0
EXTRACT: note_on channel=1 note=67 velocity=89 time=0
EXTRACT: note_off channel=6 note=67 velocity=0 time=0
EXTRACT: note_off channel=6 note=70 velocity=0 time=0
EXTRACT: note_off channel=6 note=75 velocity=0 time=0
EXTRACT: note_on channel=6 note=75 velocity=89 time=0
EXTRACT: note_on channel=6 note=70 velocity=89 time=0
EXTRACT: note_on channel=6 note=67 velocity=89 time=0
EXTRACT: note_off channel=8 note=67 velocity=0 time=0
EXTRACT: note_on channel=8 note=67 velocity=89 time=0
EXTRACT: note_off channel=0 note=67 velocity=0 time=0
EXTRACT: note_on channel=0 note=67 velocity=89 time=0
EXTRACT: note_off channel=8 note=67 velocity=0 time=0
EXTRACT: note_on channel=8 note=67 velocity=89 time=0
EXTRACT: note_off channel=0 note=67 velocity=0 time=0
EXTRACT: note_on channel=0 note=68 velocity=89 time=0
EXTRACT: note_off channel=1 note=67 velocity=0 time=0
EXTRACT: note_off channel=1 note=70 velocity=0 time=0
EXTRACT: note_off channel=1 note=75 velocity=0 time=0
EXTRACT: note_on channel=1 note=70 velocity=89 time=0
EXTRACT: note_on channel=1 note=65 velocity=89 time=0
EXTRACT: note_on channel=1 note=74 velocity=89 time=0
EXTRACT: note_off channel=2 note=63 velocity=0 time=0
EXTRACT: note_on channel=2 note=46 velocity=89 time=0
EXTRACT: note_off channel=6 note=67 velocity=0 time=0
EXTRACT: note_off channel=6 note=70 velocity=0 time=0
EXTRACT: note_off channel=6 note=75 velocity=0 time=0
EXTRACT: note_on channel=6 note=70 velocity=89 time=0
EXTRACT: note_on channel=6 note=65 velocity=89 time=0
EXTRACT: note_on channel=6 note=74 velocity=89 time=0
EXTRACT: note_off channel=7 note=63 velocity=0 time=0
EXTRACT: note_on channel=7 note=46 velocity=89 time=0
EXTRACT: note_off channel=8 note=67 velocity=0 time=0
EXTRACT: note_on channel=8 note=68 velocity=89 time=0
EXTRACT: note_off channel=0 note=68 velocity=0 time=0
EXTRACT: note_on channel=0 note=70 velocity=89 time=0
EXTRACT: note_off channel=8 note=68 velocity=0 time=0
EXTRACT: note_on channel=8 note=70 velocity=89 time=0
EXTRACT: note_off channel=0 note=70 velocity=0 time=0
EXTRACT: note_on channel=0 note=68 velocity=89 time=0
EXTRACT: note_off channel=8 note=70 velocity=0 time=0
EXTRACT: note_on channel=8 note=68 velocity=89 time=0
EXTRACT: note_off channel=0 note=68 velocity=0 time=0
EXTRACT: note_on channel=0 note=67 velocity=89 time=0
EXTRACT: note_off channel=1 note=74 velocity=0 time=0
EXTRACT: note_off channel=1 note=65 velocity=0 time=0
EXTRACT: note_off channel=1 note=70 velocity=0 time=0
EXTRACT: note_on channel=1 note=70 velocity=89 time=0
EXTRACT: note_on channel=1 note=65 velocity=89 time=0
EXTRACT: note_on channel=1 note=74 velocity=89 time=0
EXTRACT: note_off channel=6 note=74 velocity=0 time=0
EXTRACT: note_off channel=6 note=65 velocity=0 time=0
EXTRACT: note_off channel=6 note=70 velocity=0 time=0
EXTRACT: note_on channel=6 note=70 velocity=89 time=0
EXTRACT: note_on channel=6 note=65 velocity=89 time=0
EXTRACT: note_on channel=6 note=74 velocity=89 time=0
EXTRACT: note_off channel=8 note=68 velocity=0 time=0
EXTRACT: note_on channel=8 note=67 velocity=89 time=0
EXTRACT: note_off channel=0 note=67 velocity=0 time=0
EXTRACT: note_on channel=0 note=67 velocity=89 time=0
EXTRACT: note_off channel=8 note=67 velocity=0 time=0
EXTRACT: note_on channel=8 note=67 velocity=89 time=0
EXTRACT: note_off channel=0 note=67 velocity=0 time=0
EXTRACT: note_on channel=0 note=65 velocity=89 time=0
EXTRACT: note_off channel=2 note=46 velocity=0 time=0
EXTRACT: note_on channel=2 note=58 velocity=89 time=0
EXTRACT: note_off channel=7 note=46 velocity=0 time=0
EXTRACT: note_on channel=7 note=58 velocity=89 time=0
EXTRACT: note_off channel=8 note=67 velocity=0 time=0
EXTRACT: note_on channel=8 note=65 velocity=89 time=0
EXTRACT: note_off channel=0 note=65 velocity=0 time=0
EXTRACT: note_on channel=0 note=63 velocity=89 time=0
EXTRACT: note_off channel=1 note=74 velocity=0 time=0
EXTRACT: note_off channel=1 note=65 velocity=0 time=0
EXTRACT: note_off channel=1 note=70 velocity=0 time=0
EXTRACT: note_on channel=1 note=70 velocity=89 time=0
EXTRACT: note_on channel=1 note=65 velocity=89 time=0
EXTRACT: note_on channel=1 note=74 velocity=89 time=0
EXTRACT: note_off channel=6 note=74 velocity=0 time=0
EXTRACT: note_off channel=6 note=65 velocity=0 time=0
EXTRACT: note_off channel=6 note=70 velocity=0 time=0
EXTRACT: note_on channel=6 note=70 velocity=89 time=0
EXTRACT: note_on channel=6 note=65 velocity=89 time=0
EXTRACT: note_on channel=6 note=74 velocity=89 time=0
EXTRACT: note_off channel=8 note=65 velocity=0 time=0
EXTRACT: note_on channel=8 note=63 velocity=89 time=0
EXTRACT: note_off channel=0 note=63 velocity=0 time=0
EXTRACT: note_on channel=0 note=63 velocity=89 time=0
EXTRACT: note_off channel=8 note=63 velocity=0 time=0
EXTRACT: note_on channel=8 note=63 velocity=89 time=0
EXTRACT: note_off channel=0 note=63 velocity=0 time=0
EXTRACT: note_on channel=0 note=60 velocity=89 time=0
EXTRACT: note_off channel=1 note=74 velocity=0 time=0
EXTRACT: note_off channel=1 note=65 velocity=0 time=0
EXTRACT: note_off channel=1 note=70 velocity=0 time=0
EXTRACT: note_on channel=1 note=75 velocity=89 time=0
EXTRACT: note_on channel=1 note=67 velocity=89 time=0
EXTRACT: note_on channel=1 note=72 velocity=89 time=0
EXTRACT: note_off channel=2 note=58 velocity=0 time=0
EXTRACT: note_on channel=2 note=48 velocity=89 time=0
EXTRACT: note_off channel=6 note=74 velocity=0 time=0
EXTRACT: note_off channel=6 note=65 velocity=0 time=0
EXTRACT: note_off channel=6 note=70 velocity=0 time=0
EXTRACT: note_on channel=6 note=75 velocity=89 time=0
EXTRACT: note_on channel=6 note=67 velocity=89 time=0
EXTRACT: note_on channel=6 note=72 velocity=89 time=0
EXTRACT: note_off channel=7 note=58 velocity=0 time=0
EXTRACT: note_on channel=7 note=48 velocity=89 time=0
EXTRACT: note_off channel=8 note=63 velocity=0 time=0
EXTRACT: note_on channel=8 note=60 velocity=89 time=0
EXTRACT: note_off channel=0 note=60 velocity=0 time=0.48387100000000005
EXTRACT: note_off channel=8 note=60 velocity=0 time=0
EXTRACT: note_on channel=0 note=63 velocity=89 time=0
EXTRACT: note_off channel=1 note=72 velocity=0 time=0
EXTRACT: note_off channel=1 note=67 velocity=0 time=0
EXTRACT: note_off channel=1 note=75 velocity=0 time=0
EXTRACT: note_on channel=1 note=67 velocity=89 time=0
EXTRACT: note_on channel=1 note=74 velocity=89 time=0
EXTRACT: note_off channel=6 note=72 velocity=0 time=0
EXTRACT: note_off channel=6 note=67 velocity=0 time=0
EXTRACT: note_off channel=6 note=75 velocity=0 time=0
EXTRACT: note_on channel=6 note=67 velocity=89 time=0
EXTRACT: note_on channel=6 note=74 velocity=89 time=0
EXTRACT: note_on channel=8 note=63 velocity=89 time=0
EXTRACT: note_off channel=0 note=63 velocity=0 time=0
EXTRACT: note_on channel=0 note=65 velocity=89 time=0
EXTRACT: note_off channel=8 note=63 velocity=0 time=0
EXTRACT: note_on channel=8 note=65 velocity=89 time=0
EXTRACT: note_off channel=0 note=65 velocity=0 time=0
EXTRACT: note_on channel=0 note=67 velocity=89 time=0
EXTRACT: note_off channel=8 note=65 velocity=0 time=0
EXTRACT: note_on channel=8 note=67 velocity=89 time=0
EXTRACT: note_off channel=2 note=48 velocity=0 time=0.12096775000000001
EXTRACT: note_on channel=2 note=60 velocity=89 time=0
EXTRACT: note_off channel=7 note=48 velocity=0 time=0
EXTRACT: note_on channel=7 note=60 velocity=89 time=0
EXTRACT: note_off channel=0 note=67 velocity=0 time=0
EXTRACT: note_on channel=0 note=67 velocity=89 time=0
EXTRACT: note_off channel=8 note=67 velocity=0 time=0
EXTRACT: note_on channel=8 note=67 velocity=89 time=0
EXTRACT: note_off channel=1 note=74 velocity=0 time=0
EXTRACT: note_off channel=1 note=67 velocity=0 time=0
EXTRACT: note_on channel=1 note=67 velocity=89 time=0
EXTRACT: note_on channel=1 note=72 velocity=89 time=0
EXTRACT: note_off channel=6 note=74 velocity=0 time=0
EXTRACT: note_off channel=6 note=67 velocity=0 time=0
EXTRACT: note_on channel=6 note=67 velocity=89 time=0
EXTRACT: note_on channel=6 note=72 velocity=89 time=0
EXTRACT: note_off channel=0 note=67 velocity=0 time=0
EXTRACT: note_on channel=0 note=68 velocity=89 time=0
EXTRACT: note_off channel=1 note=72 velocity=0 time=0
EXTRACT: note_off channel=1 note=67 velocity=0 time=0
EXTRACT: note_on channel=1 note=72 velocity=89 time=0
EXTRACT: note_on channel=1 note=68 velocity=89 time=0
EXTRACT: note_off channel=2 note=60 velocity=0 time=0
EXTRACT: note_on channel=2 note=56 velocity=89 time=0
EXTRACT: note_off channel=6 note=72 velocity=0 time=0
EXTRACT: note_off channel=6 note=67 velocity=0 time=0
EXTRACT: note_on channel=6 note=72 velocity=89 time=0
EXTRACT: note_on channel=6 note=68 velocity=89 time=0
EXTRACT: note_off channel=7 note=60 velocity=0 time=0
EXTRACT: note_on channel=7 note=56 velocity=89 time=0
EXTRACT: note_off channel=8 note=67 velocity=0 time=0
EXTRACT: note_on channel=8 note=68 velocity=89 time=0
EXTRACT: note_off channel=0 note=68 velocity=0 time=0
EXTRACT: note_on channel=0 note=67 velocity=89 time=0
EXTRACT: note_off channel=1 note=68 velocity=0 time=0
EXTRACT: note_off channel=1 note=72 velocity=0 time=0
EXTRACT: note_on channel=1 note=75 velocity=89 time=0
EXTRACT: note_on channel=1 note=70 velocity=89 time=0
EXTRACT: note_off channel=6 note=68 velocity=0 time=0
EXTRACT: note_off channel=6 note=72 velocity=0 time=0
EXTRACT: note_on channel=6 note=75 velocity=89 time=0
EXTRACT: note_on channel=6 note=70 velocity=89 time=0
EXTRACT: note_off channel=8 note=68 velocity=0 time=0
EXTRACT: note_on channel=8 note=67 velocity=89 time=0
EXTRACT: note_off channel=0 note=67 velocity=0 time=0
EXTRACT: note_on channel=0 note=68 velocity=89 time=0
EXTRACT: note_off channel=8 note=67 velocity=0 time=0
EXTRACT: note_on channel=8 note=68 velocity=89 time=0
EXTRACT: note_off channel=0 note=68 velocity=0 time=0
EXTRACT: note_on channel=0 note=67 velocity=89 time=0
EXTRACT: note_off channel=8 note=68 velocity=0 time=0
EXTRACT: note_on channel=8 note=67 velocity=89 time=0
EXTRACT: note_off channel=0 note=67 velocity=0 time=0
EXTRACT: note_on channel=0 note=63 velocity=89 time=0
EXTRACT: note_off channel=2 note=56 velocity=0 time=0
EXTRACT: note_on channel=2 note=56 velocity=89 time=0
EXTRACT: note_off channel=7 note=56 velocity=0 time=0
EXTRACT: note_on channel=7 note=56 velocity=89 time=0
EXTRACT: note_off channel=8 note=67 velocity=0 time=0
EXTRACT: note_on channel=8 note=63 velocity=89 time=0
EXTRACT: note_off channel=1 note=70 velocity=0 time=0.24193550000000003
EXTRACT: note_off channel=1 note=75 velocity=0 time=0
EXTRACT: note_on channel=1 note=68 velocity=89 time=0
EXTRACT: note_off channel=6 note=70 velocity=0 time=0
EXTRACT: note_off channel=6 note=75 velocity=0 time=0
EXTRACT: note_on channel=6 note=68 velocity=89 time=0
EXTRACT: note_off channel=0 note=63 velocity=0 time=0
EXTRACT: note_on channel=0 note=67 velocity=89 time=0
EXTRACT: note_off channel=1 note=68 velocity=0 time=0
EXTRACT: note_on channel=1 note=75 velocity=89 time=0
EXTRACT: note_off channel=6 note=68 velocity=0 time=0
EXTRACT: note_on channel=6 note=75 velocity=89 time=0
EXTRACT: note_off channel=8 note=63 velocity=0 time=0
EXTRACT: note_on channel=8 note=67 velocity=89 time=0
EXTRACT: note_off channel=0 note=67 velocity=0 time=0
EXTRACT: note_on channel=0 note=68 velocity=89 time=0
EXTRACT: note_off channel=1 note=75 velocity=0 time=0
EXTRACT: note_on channel=1 note=67 velocity=89 time=0
EXTRACT: note_on channel=1 note=70 velocity=89 time=0
EXTRACT: note_on channel=1 note=75 velocity=89 time=0
EXTRACT: note_off channel=2 note=56 velocity=0 time=0
EXTRACT: note_on channel=2 note=51 velocity=89 time=0
EXTRACT: note_off channel=6 note=75 velocity=0 time=0
EXTRACT: note_on channel=6 note=67 velocity=89 time=0
EXTRACT: note_on channel=6 note=70 velocity=89 time=0
EXTRACT: note_on channel=6 note=75 velocity=89 time=0
EXTRACT: note_off channel=7 note=56 velocity=0 time=0
EXTRACT: note_on channel=7 note=51 velocity=89 time=0
EXTRACT: note_off channel=8 note=67 velocity=0 time=0
EXTRACT: note_on channel=8 note=68 velocity=89 time=0
EXTRACT: note_off channel=0 note=68 velocity=0 time=0
EXTRACT: note_on channel=0 note=67 velocity=89 time=0
EXTRACT: note_off channel=1 note=75 velocity=0 time=0
EXTRACT: note_off channel=1 note=70 velocity=0 time=0
EXTRACT: note_off channel=1 note=67 velocity=0 time=0
EXTRACT: note_on channel=1 note=75 velocity=89 time=0
EXTRACT: note_on channel=1 note=70 velocity=89 time=0
EXTRACT: note_on channel=1 note=67 velocity=89 time=0
EXTRACT: note_off channel=6 note=75 velocity=0 time=0
EXTRACT: note_off channel=6 note=70 velocity=0 time=0
EXTRACT: note_off channel=6 note=67 velocity=0 time=0
EXTRACT: note_on channel=6 note=75 velocity=89 time=0
EXTRACT: note_on channel=6 note=70 velocity=89 time=0
EXTRACT: note_on channel=6 note=67 velocity=89 time=0
EXTRACT: note_off channel=8 note=68 velocity=0 time=0
EXTRACT: note_on channel=8 note=67 velocity=89 time=0
EXTRACT: note_off channel=0 note=67 velocity=0 time=0
EXTRACT: note_on channel=0 note=63 velocity=89 time=0
EXTRACT: note_off channel=2 note=51 velocity=0 time=0
EXTRACT: note_on channel=2 note=63 velocity=89 time=0
EXTRACT: note_off channel=7 note=51 velocity=0 time=0
EXTRACT: note_on channel=7 note=63 velocity=89 time=0
EXTRACT: note_off channel=8 note=67 velocity=0 time=0
EXTRACT: note_on channel=8 note=63 velocity=89 time=0
EXTRACT: note_off channel=0 note=63 velocity=0 time=0
EXTRACT: note_on channel=0 note=63 velocity=89 time=0
EXTRACT: note_off channel=1 note=67 velocity=0 time=0
EXTRACT: note_off channel=1 note=70 velocity=0 time=0
EXTRACT: note_off channel=1 note=75 velocity=0 time=0
EXTRACT: note_on channel=1 note=67 velocity=89 time=0
EXTRACT: note_on channel=1 note=70 velocity=89 time=0
EXTRACT: note_on channel=1 note=75 velocity=89 time=0
EXTRACT: note_off channel=6 note=67 velocity=0 time=0
EXTRACT: note_off channel=6 note=70 velocity=0 time=0
EXTRACT: note_off channel=6 note=75 velocity=0 time=0
EXTRACT: note_on channel=6 note=67 velocity=89 time=0
EXTRACT: note_on channel=6 note=70 velocity=89 time=0
EXTRACT: note_on channel=6 note=75 velocity=89 time=0
EXTRACT: note_off channel=8 note=63 velocity=0 time=0
EXTRACT: note_on channel=8 note=63 velocity=89 time=0
EXTRACT: note_off channel=0 note=63 velocity=0 time=0
EXTRACT: note_on channel=0 note=65 velocity=89 time=0
EXTRACT: note_off channel=1 note=75 velocity=0 time=0
EXTRACT: note_off channel=1 note=70 velocity=0 time=0
EXTRACT: note_off channel=1 note=67 velocity=0 time=0
EXTRACT: note_on channel=1 note=77 velocity=89 time=0
EXTRACT: note_off channel=6 note=75 velocity=0 time=0
EXTRACT: note_off channel=6 note=70 velocity=0 time=0
EXTRACT: note_off channel=6 note=67 velocity=0 time=0
EXTRACT: note_on channel=6 note=77 velocity=89 time=0
EXTRACT: note_off channel=8 note=63 velocity=0 time=0
EXTRACT: note_on channel=8 note=65 velocity=89 time=0
EXTRACT: note_off channel=1 note=77 velocity=0 time=0
EXTRACT: note_on channel=1 note=74 velocity=89 time=0
EXTRACT: note_on channel=1 note=70 velocity=89 time=0
EXTRACT: note_on channel=1 note=65 velocity=89 time=0
EXTRACT: note_off channel=2 note=63 velocity=0 time=0
EXTRACT: note_on channel=2 note=46 velocity=89 time=0
EXTRACT: note_off channel=6 note=77 velocity=0 time=0
EXTRACT: note_on channel=6 note=74 velocity=89 time=0
EXTRACT: note_on channel=6 note=70 velocity=89 time=0
EXTRACT: note_on channel=6 note=65 velocity=89 time=0
EXTRACT: note_off channel=7 note=63 velocity=0 time=0
EXTRACT: note_on channel=7 note=46 velocity=89 time=0
EXTRACT: note_off channel=0 note=65 velocity=0 time=0.48387100000000005
EXTRACT: note_off channel=8 note=65 velocity=0 time=0
EXTRACT: note_on channel=0 note=65 velocity=89 time=0
EXTRACT: note_off channel=2 note=46 velocity=0 time=0
EXTRACT: note_on channel=2 note=58 velocity=89 time=0
EXTRACT: note_off channel=7 note=46 velocity=0 time=0
EXTRACT: note_on channel=7 note=58 velocity=89 time=0
EXTRACT: note_on channel=8 note=65 velocity=89 time=0
EXTRACT: note_off channel=0 note=65 velocity=0 time=0
EXTRACT: note_on channel=0 note=67 velocity=89 time=0
EXTRACT: note_off channel=1 note=65 velocity=0 time=0
EXTRACT: note_off channel=1 note=70 velocity=0 time=0
EXTRACT: note_off channel=1 note=74 velocity=0 time=0
EXTRACT: note_on channel=1 note=77 velocity=89 time=0
EXTRACT: note_on channel=1 note=70 velocity=89 time=0
EXTRACT: note_off channel=6 note=65 velocity=0 time=0
EXTRACT: note_off channel=6 note=70 velocity=0 time=0
EXTRACT: note_off channel=6 note=74 velocity=0 time=0
EXTRACT: note_on channel=6 note=77 velocity=89 time=0
EXTRACT: note_on channel=6 note=70 velocity=89 time=0
EXTRACT: note_off channel=8 note=65 velocity=0 time=0
EXTRACT: note_on channel=8 note=67 velocity=89 time=0
EXTRACT: note_off channel=0 note=67 velocity=0 time=0
EXTRACT: note_on channel=0 note=65 velocity=89 time=0
EXTRACT: note_off channel=2 note=58 velocity=0 time=0
EXTRACT: note_on channel=2 note=58 velocity=89 time=0
EXTRACT: note_off channel=7 note=58 velocity=0 time=0
EXTRACT: note_on channel=7 note=58 velocity=89 time=0
EXTRACT: note_off channel=8 note=67 velocity=0 time=0
EXTRACT: note_on channel=8 note=65 velocity=89 time=0
EXTRACT: note_off channel=0 note=65 velocity=0 time=0
EXTRACT: note_on channel=0 note=65 velocity=89 time=0
EXTRACT: note_off channel=1 note=70 velocity=0 time=0
EXTRACT: note_off channel=1 note=77 velocity=0 time=0
EXTRACT: note_on channel=1 note=65 velocity=89 time=0
EXTRACT: note_off channel=6 note=70 velocity=0 time=0
EXTRACT: note_off channel=6 note=77 velocity=0 time=0
EXTRACT: note_on channel=6 note=65 velocity=89 time=0
EXTRACT: note_off channel=8 note=65 velocity=0 time=0
EXTRACT: note_on channel=8 note=65 velocity=89 time=0
EXTRACT: note_off channel=0 note=65 velocity=0 time=0
EXTRACT: note_on channel=0 note=60 velocity=89 time=0
EXTRACT: note_off channel=1 note=65 velocity=0 time=0
EXTRACT: note_on channel=1 note=75 velocity=89 time=0
EXTRACT: note_off channel=6 note=65 velocity=0 time=0
EXTRACT: note_on channel=6 note=75 velocity=89 time=0
EXTRACT: note_off channel=8 note=65 velocity=0 time=0
EXTRACT: note_on channel=8 note=60 velocity=89 time=0
EXTRACT: note_off channel=1 note=75 velocity=0 time=0
EXTRACT: note_on channel=1 note=67 velocity=89 time=0
EXTRACT: note_on channel=1 note=70 velocity=89 time=0
EXTRACT: note_on channel=1 note=75 velocity=89 time=0
EXTRACT: note_off channel=2 note=58 velocity=0 time=0
EXTRACT: note_on channel=2 note=48 velocity=89 time=0
EXTRACT: note_off channel=6 note=75 velocity=0 time=0
EXTRACT: note_on channel=6 note=67 velocity=89 time=0
EXTRACT: note_on channel=6 note=70 velocity=89 time=0
EXTRACT: note_on channel=6 note=75 velocity=89 time=0
EXTRACT: note_off channel=7 note=58 velocity=0 time=0
EXTRACT: note_on channel=7 note=48 velocity=89 time=0
EXTRACT: note_off channel=0 note=60 velocity=0 time=0.48387100000000005
EXTRACT: note_off channel=8 note=60 velocity=0 time=0
EXTRACT: note_off channel=1 note=75 velocity=0 time=0.24193550000000003
EXTRACT: note_off channel=1 note=70 velocity=0 time=0
EXTRACT: note_off channel=1 note=67 velocity=0 time=0
EXTRACT: note_on channel=1 note=74 velocity=89 time=0
EXTRACT: note_on channel=1 note=67 velocity=89 time=0
EXTRACT: note_off channel=6 note=75 velocity=0 time=0
EXTRACT: note_off channel=6 note=70 velocity=0 time=0
EXTRACT: note_off channel=6 note=67 velocity=0 time=0
EXTRACT: note_on channel=6 note=74 velocity=89 time=0
EXTRACT: note_on channel=6 note=67 velocity=89 time=0
EXTRACT: note_on channel=0 note=70 velocity=89 time=0
EXTRACT: note_on channel=8 note=70 velocity=89 time=0
EXTRACT: note_off channel=0 note=70 velocity=0 time=0
EXTRACT: note_on channel=0 note=67 velocity=89 time=0
EXTRACT: note_off channel=2 note=48 velocity=0 time=0
EXTRACT: note_on channel=2 note=60 velocity=89 time=0
EXTRACT: note_off channel=7 note=48 velocity=0 time=0
EXTRACT: note_on channel=7 note=60 velocity=89 time=0
EXTRACT: note_off channel=8 note=70 velocity=0 time=0
EXTRACT: note_on channel=8 note=67 velocity=89 time=0
EXTRACT: note_off channel=1 note=67 velocity=0 time=0.24193550000000003
EXTRACT: note_off channel=1 note=74 velocity=0 time=0
EXTRACT: note_on channel=1 note=75 velocity=89 time=0
EXTRACT: note_on channel=1 note=72 velocity=89 time=0
EXTRACT: note_on channel=1 note=67 velocity=89 time=0
EXTRACT: note_off channel=6 note=67 velocity=0 time=0
EXTRACT: note_off channel=6 note=74 velocity=0 time=0
EXTRACT: note_on channel=6 note=75 velocity=89 time=0
EXTRACT: note_on channel=6 note=72 velocity=89 time=0
EXTRACT: note_on channel=6 note=67 velocity=89 time=0
EXTRACT: note_off channel=0 note=67 velocity=0 time=0
EXTRACT: note_on channel=0 note=67 velocity=89 time=0
EXTRACT: note_off channel=8 note=67 velocity=0 time=0
EXTRACT: note_on channel=8 note=67 velocity=89 time=0
EXTRACT: note_off channel=1 note=67 velocity=0 time=0
EXTRACT: note_off channel=1 note=72 velocity=0 time=0
EXTRACT: note_off channel=1 note=75 velocity=0 time=0
EXTRACT: note_on channel=1 note=68 velocity=89 time=0
EXTRACT: note_on channel=1 note=65 velocity=89 time=0
EXTRACT: note_off channel=2 note=60 velocity=0 time=0
EXTRACT: note_on channel=2 note=56 velocity=89 time=0
EXTRACT: note_off channel=6 note=67 velocity=0 time=0
EXTRACT: note_off channel=6 note=72 velocity=0 time=0
EXTRACT: note_off channel=6 note=75 velocity=0 time=0
EXTRACT: note_on channel=6 note=68 velocity=89 time=0
EXTRACT: note_on channel=6 note=65 velocity=89 time=0
EXTRACT: note_off channel=7 note=60 velocity=0 time=0
EXTRACT: note_on channel=7 note=56 velocity=89 time=0
EXTRACT: note_off channel=0 note=67 velocity=0 time=0
EXTRACT: note_on channel=0 note=63 velocity=89 time=0
EXTRACT: note_off channel=8 note=67 velocity=0 time=0
EXTRACT: note_on channel=8 note=63 velocity=89 time=0
EXTRACT: note_off channel=1 note=65 velocity=0 time=0.24193550000000003
EXTRACT: note_off channel=1 note=68 velocity=0 time=0
EXTRACT: note_on channel=1 note=75 velocity=89 time=0
EXTRACT: note_on channel=1 note=70 velocity=89 time=0
EXTRACT: note_off channel=6 note=65 velocity=0 time=0
EXTRACT: note_off channel=6 note=68 velocity=0 time=0
EXTRACT: note_on channel=6 note=75 velocity=89 time=0
EXTRACT: note_on channel=6 note=70 velocity=89 time=0
EXTRACT: note_off channel=0 note=63 velocity=0 time=0
EXTRACT: note_on channel=0 note=70 velocity=89 time=0
EXTRACT: note_off channel=8 note=63 velocity=0 time=0
EXTRACT: note_on channel=8 note=70 velocity=89 time=0
EXTRACT: note_off channel=0 note=70 velocity=0 time=0
EXTRACT: note_on channel=0 note=67 velocity=89 time=0
EXTRACT: note_off channel=1 note=70 velocity=0 time=0
EXTRACT: note_off channel=1 note=75 velocity=0 time=0
EXTRACT: note_on channel=1 note=68 velocity=89 time=0
EXTRACT: note_off channel=6 note=70 velocity=0 time=0
EXTRACT: note_off channel=6 note=75 velocity=0 time=0
EXTRACT: note_on channel=6 note=68 velocity=89 time=0
EXTRACT: note_off channel=8 note=70 velocity=0 time=0
EXTRACT: note_on channel=8 note=67 velocity=89 time=0
EXTRACT: note_off channel=1 note=68 velocity=0 time=0.24193550000000003
EXTRACT: note_on channel=1 note=67 velocity=89 time=0
EXTRACT: note_off channel=6 note=68 velocity=0 time=0
EXTRACT: note_on channel=6 note=67 velocity=89 time=0
EXTRACT: note_off channel=0 note=67 velocity=0 time=0
EXTRACT: note_on channel=0 note=67 velocity=89 time=0
EXTRACT: note_off channel=1 note=67 velocity=0 time=0
EXTRACT: note_on channel=1 note=75 velocity=89 time=0
EXTRACT: note_off channel=6 note=67 velocity=0 time=0
EXTRACT: note_on channel=6 note=75 velocity=89 time=0
EXTRACT: note_off channel=8 note=67 velocity=0 time=0
EXTRACT: note_on channel=8 note=67 velocity=89 time=0
EXTRACT: note_off channel=1 note=75 velocity=0 time=0
EXTRACT: note_on channel=1 note=67 velocity=89 time=0
EXTRACT: note_on channel=1 note=70 velocity=89 time=0
EXTRACT: note_on channel=1 note=75 velocity=89 time=0
EXTRACT: note_off channel=2 note=56 velocity=0 time=0
EXTRACT: note_on channel=2 note=51 velocity=89 time=0
EXTRACT: note_off channel=6 note=75 velocity=0 time=0
EXTRACT: note_on channel=6 note=67 velocity=89 time=0
EXTRACT: note_on channel=6 note=70 velocity=89 time=0
EXTRACT: note_on channel=6 note=75 velocity=89 time=0
EXTRACT: note_off channel=7 note=56 velocity=0 time=0
EXTRACT: note_on channel=7 note=51 velocity=89 time=0
EXTRACT: note_off channel=0 note=67 velocity=0 time=0.24193550000000003
EXTRACT: note_off channel=8 note=67 velocity=0 time=0
EXTRACT: note_on channel=0 note=63 velocity=89 time=0
EXTRACT: note_off channel=1 note=75 velocity=0 time=0
EXTRACT: note_off channel=1 note=70 velocity=0 time=0
EXTRACT: note_off channel=1 note=67 velocity=0 time=0
EXTRACT: note_on channel=1 note=75 velocity=89 time=0
EXTRACT: note_on channel=1 note=70 velocity=89 time=0
EXTRACT: note_on channel=1 note=67 velocity=89 time=0
EXTRACT: note_off channel=6 note=75 velocity=0 time=0
EXTRACT: note_off channel=6 note=70 velocity=0 time=0
EXTRACT: note_off channel=6 note=67 velocity=0 time=0
EXTRACT: note_on channel=6 note=75 velocity=89 time=0
EXTRACT: note_on channel=6 note=70 velocity=89 time=0
EXTRACT: note_on channel=6 note=67 velocity=89 time=0
EXTRACT: note_on channel=8 note=63 velocity=89 time=0
EXTRACT: note_off channel=0 note=63 velocity=0 time=0
EXTRACT: note_on channel=0 note=68 velocity=89 time=0
EXTRACT: note_off channel=8 note=63 velocity=0 time=0
EXTRACT: note_on channel=8 note=68 velocity=89 time=0
EXTRACT: note_off channel=0 note=68 velocity=0 time=0
EXTRACT: note_on channel=0 note=70 velocity=89 time=0
EXTRACT: note_off channel=2 note=51 velocity=0 time=0
EXTRACT: note_on channel=2 note=63 velocity=89 time=0
EXTRACT: note_off channel=7 note=51 velocity=0 time=0
EXTRACT: note_on channel=7 note=63 velocity=89 time=0
EXTRACT: note_off channel=8 note=68 velocity=0 time=0
EXTRACT: note_on channel=8 note=70 velocity=89 time=0
EXTRACT: note_off channel=0 note=70 velocity=0 time=0
EXTRACT: note_on channel=0 note=67 velocity=89 time=0
EXTRACT: note_off channel=1 note=67 velocity=0 time=0
EXTRACT: note_off channel=1 note=70 velocity=0 time=0
EXTRACT: note_off channel=1 note=75 velocity=0 time=0
EXTRACT: note_on channel=1 note=75 velocity=89 time=0
EXTRACT: note_on channel=1 note=70 velocity=89 time=0
EXTRACT: note_on channel=1 note=67 velocity=89 time=0
EXTRACT: note_off channel=6 note=67 velocity=0 time=0
EXTRACT: note_off channel=6 note=70 velocity=0 time=0
EXTRACT: note_off channel=6 note=75 velocity=0 time=0
EXTRACT: note_on channel=6 note=75 velocity=89 time=0
EXTRACT: note_on channel=6 note=70 velocity=89 time=0
EXTRACT: note_on channel=6 note=67 velocity=89 time=0
EXTRACT: note_off channel=8 note=70 velocity=0 time=0
EXTRACT: note_on channel=8 note=67 velocity=89 time=0
EXTRACT: note_off channel=0 note=67 velocity=0 time=0
EXTRACT: note_on channel=0 note=67 velocity=89 time=0
EXTRACT: note_off channel=8 note=67 velocity=0 time=0
EXTRACT: note_on channel=8 note=67 velocity=89 time=0
EXTRACT: note_off channel=0 note=67 velocity=0 time=0
EXTRACT: note_on channel=0 note=65 velocity=89 time=0
EXTRACT: note_off channel=1 note=67 velocity=0 time=0
EXTRACT: note_off channel=1 note=70 velocity=0 time=0
EXTRACT: note_off channel=1 note=75 velocity=0 time=0
EXTRACT: note_on channel=1 note=74 velocity=89 time=0
EXTRACT: note_on channel=1 note=70 velocity=89 time=0
EXTRACT: note_on channel=1 note=65 velocity=89 time=0
EXTRACT: note_off channel=2 note=63 velocity=0 time=0
EXTRACT: note_on channel=2 note=46 velocity=89 time=0
EXTRACT: note_off channel=6 note=67 velocity=0 time=0
EXTRACT: note_off channel=6 note=70 velocity=0 time=0
EXTRACT: note_off channel=6 note=75 velocity=0 time=0
EXTRACT: note_on channel=6 note=74 velocity=89 time=0
EXTRACT: note_on channel=6 note=70 velocity=89 time=0
EXTRACT: note_on channel=6 note=65 velocity=89 time=0
EXTRACT: note_off channel=7 note=63 velocity=0 time=0
EXTRACT: note_on channel=7 note=46 velocity=89 time=0
EXTRACT: note_off channel=8 note=67 velocity=0 time=0
EXTRACT: note_on channel=8 note=65 velocity=89 time=0
EXTRACT: note_off channel=0 note=65 velocity=0 time=0
EXTRACT: note_on channel=0 note=65 velocity=89 time=0
EXTRACT: note_off channel=8 note=65 velocity=0 time=0
EXTRACT: note_on channel=8 note=65 velocity=89 time=0
EXTRACT: note_off channel=0 note=65 velocity=0 time=0
EXTRACT: note_on channel=0 note=65 velocity=89 time=0
EXTRACT: note_off channel=1 note=65 velocity=0 time=0
EXTRACT: note_off channel=1 note=70 velocity=0 time=0
EXTRACT: note_off channel=1 note=74 velocity=0 time=0
EXTRACT: note_on channel=1 note=77 velocity=89 time=0
EXTRACT: note_off channel=6 note=65 velocity=0 time=0
EXTRACT: note_off channel=6 note=70 velocity=0 time=0
EXTRACT: note_off channel=6 note=74 velocity=0 time=0
EXTRACT: note_on channel=6 note=77 velocity=89 time=0
EXTRACT: note_off channel=8 note=65 velocity=0 time=0
EXTRACT: note_on channel=8 note=65 velocity=89 time=0
EXTRACT: note_off channel=0 note=65 velocity=0 time=0
EXTRACT: note_on channel=0 note=67 velocity=89 time=0
EXTRACT: note_off channel=1 note=77 velocity=0 time=0
EXTRACT: note_on channel=1 note=65 velocity=89 time=0
EXTRACT: note_off channel=6 note=77 velocity=0 time=0
EXTRACT: note_on channel=6 note=65 velocity=89 time=0
EXTRACT: note_off channel=8 note=65 velocity=0 time=0
EXTRACT: note_on channel=8 note=67 velocity=89 time=0
EXTRACT: note_off channel=0 note=67 velocity=0 time=0
EXTRACT: note_on channel=0 note=65 velocity=89 time=0
EXTRACT: note_off channel=2 note=46 velocity=0 time=0
EXTRACT: note_on channel=2 note=58 velocity=89 time=0
EXTRACT: note_off channel=7 note=46 velocity=0 time=0
EXTRACT: note_on channel=7 note=58 velocity=89 time=0
EXTRACT: note_off channel=8 note=67 velocity=0 time=0
EXTRACT: note_on channel=8 note=65 velocity=89 time=0
EXTRACT: note_off channel=0 note=65 velocity=0 time=0
EXTRACT: note_on channel=0 note=67 velocity=89 time=0
EXTRACT: note_off channel=1 note=65 velocity=0 time=0
EXTRACT: note_on channel=1 note=74 velocity=89 time=0
EXTRACT: note_on channel=1 note=70 velocity=89 time=0
EXTRACT: note_on channel=1 note=65 velocity=89 time=0
EXTRACT: note_off channel=6 note=65 velocity=0 time=0
EXTRACT: note_on channel=6 note=74 velocity=89 time=0
EXTRACT: note_on channel=6 note=70 velocity=89 time=0
EXTRACT: note_on channel=6 note=65 velocity=89 time=0
EXTRACT: note_off channel=8 note=65 velocity=0 time=0
EXTRACT: note_on channel=8 note=67 velocity=89 time=0
EXTRACT: note_off channel=0 note=67 velocity=0 time=0
EXTRACT: note_on channel=0 note=60 velocity=89 time=0
EXTRACT: note_off channel=8 note=67 velocity=0 time=0
EXTRACT: note_on channel=8 note=60 velocity=89 time=0
EXTRACT: note_off channel=1 note=65 velocity=0 time=0
EXTRACT: note_off channel=1 note=70 velocity=0 time=0
EXTRACT: note_off channel=1 note=74 velocity=0 time=0
EXTRACT: note_on channel=1 note=79 velocity=89 time=0
EXTRACT: note_on channel=1 note=74 velocity=89 time=0
EXTRACT: note_off channel=2 note=58 velocity=0 time=0
EXTRACT: note_on channel=2 note=48 velocity=89 time=0
EXTRACT: note_off channel=6 note=65 velocity=0 time=0
EXTRACT: note_off channel=6 note=70 velocity=0 time=0
EXTRACT: note_off channel=6 note=74 velocity=0 time=0
EXTRACT: note_on channel=6 note=79 velocity=89 time=0
EXTRACT: note_on channel=6 note=74 velocity=89 time=0
EXTRACT: note_off channel=7 note=58 velocity=0 time=0
EXTRACT: note_on channel=7 note=48 velocity=89 time=0
EXTRACT: note_off channel=0 note=60 velocity=0 time=0.48387100000000005
EXTRACT: note_off channel=8 note=60 velocity=0 time=0
EXTRACT: note_on channel=0 note=55 velocity=89 time=0
EXTRACT: note_off channel=1 note=74 velocity=0 time=0
EXTRACT: note_off channel=1 note=79 velocity=0 time=0
EXTRACT: note_on channel=1 note=79 velocity=89 time=0
EXTRACT: note_on channel=1 note=75 velocity=89 time=0
EXTRACT: note_on channel=1 note=72 velocity=89 time=0
EXTRACT: note_on channel=1 note=67 velocity=89 time=0
EXTRACT: note_off channel=6 note=74 velocity=0 time=0
EXTRACT: note_off channel=6 note=79 velocity=0 time=0
EXTRACT: note_on channel=6 note=79 velocity=89 time=0
EXTRACT: note_on channel=6 note=75 velocity=89 time=0
EXTRACT: note_on channel=6 note=72 velocity=89 time=0
EXTRACT: note_on channel=6 note=67 velocity=89 time=0
EXTRACT: note_on channel=8 note=55 velocity=89 time=0
EXTRACT: note_off channel=0 note=55 velocity=0 time=0
EXTRACT: note_on channel=0 note=67 velocity=89 time=0
EXTRACT: note_off channel=8 note=55 velocity=0 time=0
EXTRACT: note_on channel=8 note=67 velocity=89 time=0
EXTRACT: note_off channel=2 note=48 velocity=0 time=0.24193550000000003
EXTRACT: note_on channel=2 note=60 velocity=89 time=0
EXTRACT: note_off channel=7 note=48 velocity=0 time=0
EXTRACT: note_on channel=7 note=60 velocity=89 time=0
EXTRACT: note_off channel=0 note=67 velocity=0 time=0
EXTRACT: note_on channel=0 note=67 velocity=89 time=0
EXTRACT: note_off channel=8 note=67 velocity=0 time=0
EXTRACT: note_on channel=8 note=67 velocity=89 time=0
EXTRACT: note_off channel=1 note=67 velocity=0 time=0
EXTRACT: note_off channel=1 note=72 velocity=0 time=0
EXTRACT: note_off channel=1 note=75 velocity=0 time=0
EXTRACT: note_off channel=1 note=79 velocity=0 time=0
EXTRACT: note_on channel=1 note=67 velocity=89 time=0
EXTRACT: note_on channel=1 note=72 velocity=89 time=0
EXTRACT: note_off channel=6 note=67 velocity=0 time=0
EXTRACT: note_off channel=6 note=72 velocity=0 time=0
EXTRACT: note_off channel=6 note=75 velocity=0 time=0
EXTRACT: note_off channel=6 note=79 velocity=0 time=0
EXTRACT: note_on channel=6 note=67 velocity=89 time=0
EXTRACT: note_on channel=6 note=72 velocity=89 time=0
EXTRACT: note_off channel=0 note=67 velocity=0 time=0
EXTRACT: note_on channel=0 note=68 velocity=89 time=0
EXTRACT: note_off channel=1 note=72 velocity=0 time=0
EXTRACT: note_off channel=1 note=67 velocity=0 time=0
EXTRACT: note_on channel=1 note=74 velocity=89 time=0
EXTRACT: note_on channel=1 note=72 velocity=89 time=0
EXTRACT: note_off channel=2 note=60 velocity=0 time=0
EXTRACT: note_on channel=2 note=44 velocity=89 time=0
EXTRACT: note_off channel=6 note=72 velocity=0 time=0
EXTRACT: note_off channel=6 note=67 velocity=0 time=0
EXTRACT: note_on channel=6 note=74 velocity=89 time=0
EXTRACT: note_on channel=6 note=72 velocity=89 time=0
EXTRACT: note_off channel=7 note=60 velocity=0 time=0
EXTRACT: note_on channel=7 note=44 velocity=89 time=0
EXTRACT: note_off channel=8 note=67 velocity=0 time=0
EXTRACT: note_on channel=8 note=68 velocity=89 time=0
EXTRACT: note_off channel=0 note=68 velocity=0 time=0
EXTRACT: note_on channel=0 note=67 velocity=89 time=0
EXTRACT: note_off channel=1 note=72 velocity=0 time=0
EXTRACT: note_off channel=1 note=74 velocity=0 time=0
EXTRACT: note_on channel=1 note=75 velocity=89 time=0
EXTRACT: note_on channel=1 note=72 velocity=89 time=0
EXTRACT: note_on channel=1 note=68 velocity=89 time=0
EXTRACT: note_off channel=6 note=72 velocity=0 time=0
EXTRACT: note_off channel=6 note=74 velocity=0 time=0
EXTRACT: note_on channel=6 note=75 velocity=89 time=0
EXTRACT: note_on channel=6 note=72 velocity=89 time=0
EXTRACT: note_on channel=6 note=68 velocity=89 time=0
EXTRACT: note_off channel=8 note=68 velocity=0 time=0
EXTRACT: note_on channel=8 note=67 velocity=89 time=0
EXTRACT: note_off channel=0 note=67 velocity=0 time=0
EXTRACT: note_on channel=0 note=63 velocity=89 time=0
EXTRACT: note_off channel=8 note=67 velocity=0 time=0
EXTRACT: note_on channel=8 note=63 velocity=89 time=0
EXTRACT: note_off channel=0 note=63 velocity=0 time=0
EXTRACT: note_on channel=0 note=63 velocity=89 time=0
EXTRACT: note_off channel=2 note=44 velocity=0 time=0
EXTRACT: note_on channel=2 note=56 velocity=89 time=0
EXTRACT: note_off channel=7 note=44 velocity=0 time=0
EXTRACT: note_on channel=7 note=56 velocity=89 time=0
EXTRACT: note_off channel=8 note=63 velocity=0 time=0
EXTRACT: note_on channel=8 note=63 velocity=89 time=0
EXTRACT: note_off channel=0 note=63 velocity=0 time=0.24193550000000003
EXTRACT: note_off channel=1 note=75 velocity=0 time=0
EXTRACT: note_off channel=1 note=72 velocity=0 time=0
EXTRACT: note_off channel=1 note=68 velocity=0 time=0
EXTRACT: note_on channel=1 note=70 velocity=89 time=0
EXTRACT: note_on channel=1 note=68 velocity=89 time=0
EXTRACT: note_off channel=6 note=75 velocity=0 time=0
EXTRACT: note_off channel=6 note=72 velocity=0 time=0
EXTRACT: note_off channel=6 note=68 velocity=0 time=0
EXTRACT: note_on channel=6 note=70 velocity=89 time=0
EXTRACT: note_on channel=6 note=68 velocity=89 time=0
EXTRACT: note_off channel=8 note=63 velocity=0 time=0
EXTRACT: note_on channel=0 note=67 velocity=89 time=0
EXTRACT: note_off channel=1 note=68 velocity=0 time=0
EXTRACT: note_off channel=1 note=70 velocity=0 time=0
EXTRACT: note_on channel=1 note=75 velocity=89 time=0
EXTRACT: note_off channel=6 note=68 velocity=0 time=0
EXTRACT: note_off channel=6 note=70 velocity=0 time=0
EXTRACT: note_on channel=6 note=75 velocity=89 time=0
EXTRACT: note_on channel=8 note=67 velocity=89 time=0
EXTRACT: note_off channel=0 note=67 velocity=0 time=0
EXTRACT: note_on channel=0 note=68 velocity=89 time=0
EXTRACT: note_off channel=1 note=75 velocity=0 time=0
EXTRACT: note_on channel=1 note=67 velocity=89 time=0
EXTRACT: note_on channel=1 note=70 velocity=89 time=0
EXTRACT: note_on channel=1 note=75 velocity=89 time=0
EXTRACT: note_off channel=2 note=56 velocity=0 time=0
EXTRACT: note_on channel=2 note=51 velocity=89 time=0
EXTRACT: note_off channel=6 note=75 velocity=0 time=0
EXTRACT: note_on channel=6 note=67 velocity=89 time=0
EXTRACT: note_on channel=6 note=70 velocity=89 time=0
EXTRACT: note_on channel=6 note=75 velocity=89 time=0
EXTRACT: note_off channel=7 note=56 velocity=0 time=0
EXTRACT: note_on channel=7 note=51 velocity=89 time=0
EXTRACT: note_off channel=8 note=67 velocity=0 time=0
EXTRACT: note_on channel=8 note=68 velocity=89 time=0
EXTRACT: note_off channel=0 note=68 velocity=0 time=0
EXTRACT: note_on channel=0 note=67 velocity=89 time=0
EXTRACT: note_off channel=1 note=75 velocity=0 time=0
EXTRACT: note_off channel=1 note=70 velocity=0 time=0
EXTRACT: note_off channel=1 note=67 velocity=0 time=0
EXTRACT: note_on channel=1 note=75 velocity=89 time=0
EXTRACT: note_on channel=1 note=70 velocity=89 time=0
EXTRACT: note_on channel=1 note=67 velocity=89 time=0
EXTRACT: note_off channel=6 note=75 velocity=0 time=0
EXTRACT: note_off channel=6 note=70 velocity=0 time=0
EXTRACT: note_off channel=6 note=67 velocity=0 time=0
EXTRACT: note_on channel=6 note=75 velocity=89 time=0
EXTRACT: note_on channel=6 note=70 velocity=89 time=0
EXTRACT: note_on channel=6 note=67 velocity=89 time=0
EXTRACT: note_off channel=8 note=68 velocity=0 time=0
EXTRACT: note_on channel=8 note=67 velocity=89 time=0
EXTRACT: note_off channel=0 note=67 velocity=0 time=0
EXTRACT: note_on channel=0 note=63 velocity=89 time=0
EXTRACT: note_off channel=8 note=67 velocity=0 time=0
EXTRACT: note_on channel=8 note=63 velocity=89 time=0
EXTRACT: note_off channel=0 note=63 velocity=0 time=0
EXTRACT: note_on channel=0 note=63 velocity=89 time=0
EXTRACT: note_off channel=2 note=51 velocity=0 time=0
EXTRACT: note_on channel=2 note=63 velocity=89 time=0
EXTRACT: note_off channel=7 note=51 velocity=0 time=0
EXTRACT: note_on channel=7 note=63 velocity=89 time=0
EXTRACT: note_off channel=8 note=63 velocity=0 time=0
EXTRACT: note_on channel=8 note=63 velocity=89 time=0
EXTRACT: note_off channel=0 note=63 velocity=0 time=0.24193550000000003
EXTRACT: note_off channel=1 note=67 velocity=0 time=0
EXTRACT: note_off channel=1 note=70 velocity=0 time=0
EXTRACT: note_off channel=1 note=75 velocity=0 time=0
EXTRACT: note_on channel=1 note=70 velocity=89 time=0
EXTRACT: note_on channel=1 note=67 velocity=89 time=0
EXTRACT: note_off channel=6 note=67 velocity=0 time=0
EXTRACT: note_off channel=6 note=70 velocity=0 time=0
EXTRACT: note_off channel=6 note=75 velocity=0 time=0
EXTRACT: note_on channel=6 note=70 velocity=89 time=0
EXTRACT: note_on channel=6 note=67 velocity=89 time=0
EXTRACT: note_off channel=8 note=63 velocity=0 time=0
EXTRACT: note_on channel=0 note=65 velocity=89 time=0
EXTRACT: note_off channel=1 note=67 velocity=0 time=0
EXTRACT: note_off channel=1 note=70 velocity=0 time=0
EXTRACT: note_on channel=1 note=75 velocity=89 time=0
EXTRACT: note_off channel=6 note=67 velocity=0 time=0
EXTRACT: note_off channel=6 note=70 velocity=0 time=0
EXTRACT: note_on channel=6 note=75 velocity=89 time=0
EXTRACT: note_on channel=8 note=65 velocity=89 time=0
EXTRACT: note_off channel=1 note=75 velocity=0 time=0
EXTRACT: note_on channel=1 note=74 velocity=89 time=0
EXTRACT: note_on channel=1 note=70 velocity=89 time=0
EXTRACT: note_on channel=1 note=65 velocity=89 time=0
EXTRACT: note_off channel=2 note=63 velocity=0 time=0
EXTRACT: note_on channel=2 note=46 velocity=89 time=0
EXTRACT: note_off channel=6 note=75 velocity=0 time=0
EXTRACT: note_on channel=6 note=74 velocity=89 time=0
EXTRACT: note_on channel=6 note=70 velocity=89 time=0
EXTRACT: note_on channel=6 note=65 velocity=89 time=0
EXTRACT: note_off channel=7 note=63 velocity=0 time=0
EXTRACT: note_on channel=7 note=46 velocity=89 time=0
EXTRACT: note_off channel=0 note=65 velocity=0 time=0.48387100000000005
EXTRACT: note_off channel=8 note=65 velocity=0 time=0
EXTRACT: note_on channel=0 note=67 velocity=89 time=0
EXTRACT: note_off channel=1 note=74 velocity=0 time=0
EXTRACT: note_off channel=1 note=70 velocity=0 time=0
EXTRACT: note_off channel=1 note=65 velocity=0 time=0
EXTRACT: note_on channel=1 note=77 velocity=89 time=0
EXTRACT: note_on channel=1 note=70 velocity=89 time=0
EXTRACT: note_off channel=6 note=74 velocity=0 time=0
EXTRACT: note_off channel=6 note=70 velocity=0 time=0
EXTRACT: note_off channel=6 note=65 velocity=0 time=0
EXTRACT: note_on channel=6 note=77 velocity=89 time=0
EXTRACT: note_on channel=6 note=70 velocity=89 time=0
EXTRACT: note_on channel=8 note=67 velocity=89 time=0
EXTRACT: note_off channel=0 note=67 velocity=0 time=0
EXTRACT: note_on channel=0 note=65 velocity=89 time=0
EXTRACT: note_off channel=2 note=46 velocity=0 time=0
EXTRACT: note_on channel=2 note=58 velocity=89 time=0
EXTRACT: note_off channel=7 note=46 velocity=0 time=0
EXTRACT: note_on channel=7 note=58 velocity=89 time=0
EXTRACT: note_off channel=8 note=67 velocity=0 time=0
EXTRACT: note_on channel=8 note=65 velocity=89 time=0
EXTRACT: note_off channel=0 note=65 velocity=0 time=0
EXTRACT: note_on channel=0 note=65 velocity=89 time=0
EXTRACT: note_off channel=1 note=70 velocity=0 time=0
EXTRACT: note_off channel=1 note=77 velocity=0 time=0
EXTRACT: note_on channel=1 note=65 velocity=89 time=0
EXTRACT: note_off channel=6 note=70 velocity=0 time=0
EXTRACT: note_off channel=6 note=77 velocity=0 time=0
EXTRACT: note_on channel=6 note=65 velocity=89 time=0
EXTRACT: note_off channel=8 note=65 velocity=0 time=0
EXTRACT: note_on channel=8 note=65 velocity=89 time=0
EXTRACT: note_off channel=0 note=65 velocity=0 time=0
EXTRACT: note_on channel=0 note=67 velocity=89 time=0
EXTRACT: note_off channel=1 note=65 velocity=0 time=0
EXTRACT: note_on channel=1 note=77 velocity=89 time=0
EXTRACT: note_off channel=6 note=65 velocity=0 time=0
EXTRACT: note_on channel=6 note=77 velocity=89 time=0
EXTRACT: note_off channel=8 note=65 velocity=0 time=0
EXTRACT: note_on channel=8 note=67 velocity=89 time=0
EXTRACT: note_off channel=0 note=67 velocity=0 time=0
EXTRACT: note_on channel=0 note=68 velocity=89 time=0
EXTRACT: note_off channel=1 note=77 velocity=0 time=0
EXTRACT: note_on channel=1 note=67 velocity=89 time=0
EXTRACT: note_off channel=2 note=58 velocity=0 time=0
EXTRACT: note_on channel=2 note=53 velocity=89 time=0
EXTRACT: note_off channel=6 note=77 velocity=0 time=0
EXTRACT: note_on channel=6 note=67 velocity=89 time=0
EXTRACT: note_off channel=7 note=58 velocity=0 time=0
EXTRACT: note_on channel=7 note=53 velocity=89 time=0
EXTRACT: note_off channel=8 note=67 velocity=0 time=0
EXTRACT: note_on channel=8 note=68 velocity=89 time=0
EXTRACT: note_off channel=1 note=67 velocity=0 time=0.24193550000000003
EXTRACT: note_on channel=1 note=68 velocity=89 time=0
EXTRACT: note_off channel=6 note=67 velocity=0 time=0
EXTRACT: note_on channel=6 note=68 velocity=89 time=0
EXTRACT: note_off channel=1 note=68 velocity=0 time=0.24193550000000003
EXTRACT: note_on channel=1 note=72 velocity=89 time=0
EXTRACT: note_off channel=6 note=68 velocity=0 time=0
EXTRACT: note_on channel=6 note=72 velocity=89 time=0
EXTRACT: note_off channel=1 note=72 velocity=0 time=0.24193550000000003
EXTRACT: note_on channel=1 note=77 velocity=89 time=0
EXTRACT: note_off channel=2 note=53 velocity=0 time=0
EXTRACT: note_on channel=2 note=65 velocity=89 time=0
EXTRACT: note_off channel=6 note=72 velocity=0 time=0
EXTRACT: note_on channel=6 note=77 velocity=89 time=0
EXTRACT: note_off channel=7 note=53 velocity=0 time=0
EXTRACT: note_on channel=7 note=65 velocity=89 time=0
EXTRACT: note_off channel=1 note=77 velocity=0 time=0.24193550000000003
EXTRACT: note_on channel=1 note=67 velocity=89 time=0
EXTRACT: note_off channel=6 note=77 velocity=0 time=0
EXTRACT: note_on channel=6 note=67 velocity=89 time=0
EXTRACT: note_off channel=1 note=67 velocity=0 time=0.24193550000000003
EXTRACT: note_on channel=1 note=68 velocity=89 time=0
EXTRACT: note_off channel=6 note=67 velocity=0 time=0
EXTRACT: note_on channel=6 note=68 velocity=89 time=0
EXTRACT: note_off channel=0 note=68 velocity=0 time=0.24193550000000003
EXTRACT: note_off channel=1 note=68 velocity=0 time=0
EXTRACT: note_on channel=1 note=72 velocity=89 time=0
EXTRACT: note_off channel=6 note=68 velocity=0 time=0
EXTRACT: note_on channel=6 note=72 velocity=89 time=0
EXTRACT: note_off channel=8 note=68 velocity=0 time=0
EXTRACT: note_on channel=0 note=63 velocity=89 time=0
EXTRACT: note_off channel=1 note=72 velocity=0 time=0
EXTRACT: note_on channel=1 note=77 velocity=89 time=0
EXTRACT: note_off channel=6 note=72 velocity=0 time=0
EXTRACT: note_on channel=6 note=77 velocity=89 time=0
EXTRACT: note_on channel=8 note=63 velocity=89 time=0
EXTRACT: note_off channel=0 note=63 velocity=0 time=0
EXTRACT: note_on channel=0 note=70 velocity=89 time=0
EXTRACT: note_off channel=1 note=77 velocity=0 time=0
EXTRACT: note_on channel=1 note=80 velocity=89 time=0
EXTRACT: note_off channel=2 note=65 velocity=0 time=0
EXTRACT: note_off channel=6 note=77 velocity=0 time=0
EXTRACT: note_on channel=6 note=80 velocity=89 time=0
EXTRACT: note_off channel=7 note=65 velocity=0 time=0
EXTRACT: note_off channel=8 note=63 velocity=0 time=0
EXTRACT: note_on channel=8 note=70 velocity=89 time=0
EXTRACT: note_off channel=0 note=70 velocity=0 time=0
EXTRACT: note_on channel=0 note=72 velocity=89 time=0
EXTRACT: note_off channel=8 note=70 velocity=0 time=0
EXTRACT: note_on channel=8 note=72 velocity=89 time=0
EXTRACT: note_on channel=2 note=68 velocity=89 time=0.12096775000000001
EXTRACT: note_on channel=7 note=68 velocity=89 time=0
EXTRACT: note_off channel=0 note=72 velocity=0 time=0
EXTRACT: note_on channel=0 note=72 velocity=89 time=0
EXTRACT: note_off channel=2 note=68 velocity=0 time=0
EXTRACT: note_on channel=2 note=65 velocity=89 time=0
EXTRACT: note_off channel=7 note=68 velocity=0 time=0
EXTRACT: note_on channel=7 note=65 velocity=89 time=0
EXTRACT: note_off channel=8 note=72 velocity=0 time=0
EXTRACT: note_on channel=8 note=72 velocity=89 time=0
EXTRACT: note_off channel=0 note=72 velocity=0 time=0
EXTRACT: note_on channel=0 note=70 velocity=89 time=0
EXTRACT: note_off channel=1 note=80 velocity=0 time=0
EXTRACT: note_on channel=1 note=79 velocity=89 time=0
EXTRACT: note_off channel=6 note=80 velocity=0 time=0
EXTRACT: note_on channel=6 note=79 velocity=89 time=0
EXTRACT: note_off channel=8 note=72 velocity=0 time=0
EXTRACT: note_on channel=8 note=70 velocity=89 time=0
EXTRACT: note_off channel=0 note=70 velocity=0 time=0
EXTRACT: note_on channel=0 note=68 velocity=89 time=0
EXTRACT: note_off channel=8 note=70 velocity=0 time=0
EXTRACT: note_on channel=8 note=68 velocity=89 time=0
EXTRACT: note_off channel=0 note=68 velocity=0 time=0
EXTRACT: note_on channel=0 note=68 velocity=89 time=0
EXTRACT: note_off channel=2 note=65 velocity=0 time=0
EXTRACT: note_on channel=2 note=65 velocity=89 time=0
EXTRACT: note_off channel=7 note=65 velocity=0 time=0
EXTRACT: note_on channel=7 note=65 velocity=89 time=0
EXTRACT: note_off channel=8 note=68 velocity=0 time=0
EXTRACT: note_on channel=8 note=68 velocity=89 time=0
EXTRACT: note_off channel=0 note=68 velocity=0 time=0
EXTRACT: note_on channel=0 note=67 velocity=89 time=0
EXTRACT: note_off channel=1 note=79 velocity=0 time=0
EXTRACT: note_on channel=1 note=77 velocity=89 time=0
EXTRACT: note_off channel=6 note=79 velocity=0 time=0
EXTRACT: note_on channel=6 note=77 velocity=89 time=0
EXTRACT: note_off channel=8 note=68 velocity=0 time=0
EXTRACT: note_on channel=8 note=67 velocity=89 time=0
EXTRACT: note_off channel=0 note=67 velocity=0 time=0
EXTRACT: note_on channel=0 note=67 velocity=89 time=0
EXTRACT: note_off channel=8 note=67 velocity=0 time=0
EXTRACT: note_on channel=8 note=67 velocity=89 time=0
EXTRACT: note_off channel=1 note=77 velocity=0 time=0
EXTRACT: note_on channel=1 note=75 velocity=89 time=0
EXTRACT: note_on channel=1 note=67 velocity=89 time=0
EXTRACT: note_on channel=1 note=70 velocity=89 time=0
EXTRACT: note_off channel=2 note=65 velocity=0 time=0
EXTRACT: note_on channel=2 note=51 velocity=89 time=0
EXTRACT: note_off channel=6 note=77 velocity=0 time=0
EXTRACT: note_on channel=6 note=75 velocity=89 time=0
EXTRACT: note_on channel=6 note=67 velocity=89 time=0
EXTRACT: note_on channel=6 note=70 velocity=89 time=0
EXTRACT: note_off channel=7 note=65 velocity=0 time=0
EXTRACT: note_on channel=7 note=51 velocity=89 time=0
EXTRACT: note_off channel=0 note=67 velocity=0 time=0
EXTRACT: note_on channel=0 note=67 velocity=89 time=0
EXTRACT: note_off channel=1 note=70 velocity=0 time=0
EXTRACT: note_off channel=1 note=67 velocity=0 time=0
EXTRACT: note_off channel=1 note=75 velocity=0 time=0
EXTRACT: note_on channel=1 note=67 velocity=89 time=0
EXTRACT: note_on channel=1 note=75 velocity=89 time=0
EXTRACT: note_on channel=1 note=70 velocity=89 time=0
EXTRACT: note_off channel=6 note=70 velocity=0 time=0
EXTRACT: note_off channel=6 note=67 velocity=0 time=0
EXTRACT: note_off channel=6 note=75 velocity=0 time=0
EXTRACT: note_on channel=6 note=67 velocity=89 time=0
EXTRACT: note_on channel=6 note=75 velocity=89 time=0
EXTRACT: note_on channel=6 note=70 velocity=89 time=0
EXTRACT: note_off channel=8 note=67 velocity=0 time=0
EXTRACT: note_on channel=8 note=67 velocity=89 time=0
EXTRACT: note_off channel=0 note=67 velocity=0 time=0
EXTRACT: note_on channel=0 note=65 velocity=89 time=0
EXTRACT: note_off channel=8 note=67 velocity=0 time=0
EXTRACT: note_on channel=8 note=65 velocity=89 time=0
EXTRACT: note_off channel=0 note=65 velocity=0 time=0
EXTRACT: note_on channel=0 note=63 velocity=89 time=0
EXTRACT: note_off channel=8 note=65 velocity=0 time=0
EXTRACT: note_on channel=8 note=63 velocity=89 time=0
EXTRACT: note_off channel=0 note=63 velocity=0 time=0
EXTRACT: note_on channel=0 note=63 velocity=89 time=0
EXTRACT: note_off channel=2 note=51 velocity=0 time=0
EXTRACT: note_on channel=2 note=63 velocity=89 time=0
EXTRACT: note_off channel=7 note=51 velocity=0 time=0
EXTRACT: note_on channel=7 note=63 velocity=89 time=0
EXTRACT: note_off channel=8 note=63 velocity=0 time=0
EXTRACT: note_on channel=8 note=63 velocity=89 time=0
EXTRACT: note_off channel=0 note=63 velocity=0 time=0.24193550000000003
EXTRACT: note_off channel=1 note=70 velocity=0 time=0
EXTRACT: note_off channel=1 note=75 velocity=0 time=0
EXTRACT: note_off channel=1 note=67 velocity=0 time=0
EXTRACT: note_on channel=1 note=70 velocity=89 time=0
EXTRACT: note_off channel=2 note=63 velocity=0 time=0
EXTRACT: note_on channel=2 note=63 velocity=89 time=0
EXTRACT: note_off channel=6 note=70 velocity=0 time=0
EXTRACT: note_off channel=6 note=75 velocity=0 time=0
EXTRACT: note_off channel=6 note=67 velocity=0 time=0
EXTRACT: note_on channel=6 note=70 velocity=89 time=0
EXTRACT: note_off channel=7 note=63 velocity=0 time=0
EXTRACT: note_on channel=7 note=63 velocity=89 time=0
EXTRACT: note_off channel=8 note=63 velocity=0 time=0
EXTRACT: note_on channel=0 note=62 velocity=89 time=0
EXTRACT: note_off channel=1 note=70 velocity=0 time=0
EXTRACT: note_on channel=1 note=74 velocity=89 time=0
EXTRACT: note_off channel=6 note=70 velocity=0 time=0
EXTRACT: note_on channel=6 note=74 velocity=89 time=0
EXTRACT: note_on channel=8 note=62 velocity=89 time=0
EXTRACT: note_off channel=1 note=74 velocity=0 time=0
EXTRACT: note_on channel=1 note=65 velocity=89 time=0
EXTRACT: note_on channel=1 note=70 velocity=89 time=0
EXTRACT: note_on channel=1 note=74 velocity=89 time=0
EXTRACT: note_off channel=2 note=63 velocity=0 time=0
EXTRACT: note_on channel=2 note=58 velocity=89 time=0
EXTRACT: note_off channel=6 note=74 velocity=0 time=0
EXTRACT: note_on channel=6 note=65 velocity=89 time=0
EXTRACT: note_on channel=6 note=70 velocity=89 time=0
EXTRACT: note_on channel=6 note=74 velocity=89 time=0
EXTRACT: note_off channel=7 note=63 velocity=0 time=0
EXTRACT: note_on channel=7 note=58 velocity=89 time=0
EXTRACT: note_off channel=0 note=62 velocity=0 time=0
EXTRACT: note_on channel=0 note=62 velocity=89 time=0
EXTRACT: note_off channel=1 note=74 velocity=0 time=0
EXTRACT: note_off channel=1 note=70 velocity=0 time=0
EXTRACT: note_off channel=1 note=65 velocity=0 time=0
EXTRACT: note_on channel=1 note=65 velocity=89 time=0
EXTRACT: note_on channel=1 note=70 velocity=89 time=0
EXTRACT: note_off channel=6 note=74 velocity=0 time=0
EXTRACT: note_off channel=6 note=70 velocity=0 time=0
EXTRACT: note_off channel=6 note=65 velocity=0 time=0
EXTRACT: note_on channel=6 note=65 velocity=89 time=0
EXTRACT: note_on channel=6 note=70 velocity=89 time=0
EXTRACT: note_off channel=8 note=62 velocity=0 time=0
EXTRACT: note_on channel=8 note=62 velocity=89 time=0
EXTRACT: note_off channel=0 note=62 velocity=0 time=0
EXTRACT: note_on channel=0 note=60 velocity=89 time=0
EXTRACT: note_off channel=8 note=62 velocity=0 time=0
EXTRACT: note_on channel=8 note=60 velocity=89 time=0
EXTRACT: note_off channel=0 note=60 velocity=0 time=0
EXTRACT: note_on channel=0 note=58 velocity=89 time=0
EXTRACT: note_off channel=8 note=60 velocity=0 time=0
EXTRACT: note_on channel=8 note=58 velocity=89 time=0
EXTRACT: note_off channel=0 note=58 velocity=0 time=0
EXTRACT: note_on channel=0 note=58 velocity=89 time=0
EXTRACT: note_off channel=2 note=58 velocity=0 time=0
EXTRACT: note_on channel=2 note=58 velocity=89 time=0
EXTRACT: note_off channel=7 note=58 velocity=0 time=0
EXTRACT: note_on channel=7 note=58 velocity=89 time=0
EXTRACT: note_off channel=8 note=58 velocity=0 time=0
EXTRACT: note_on channel=8 note=58 velocity=89 time=0
EXTRACT: note_off channel=0 note=58 velocity=0 time=0
EXTRACT: note_on channel=0 note=60 velocity=89 time=0
EXTRACT: note_off channel=1 note=70 velocity=0 time=0
EXTRACT: note_off channel=1 note=65 velocity=0 time=0
EXTRACT: note_on channel=1 note=65 velocity=89 time=0
EXTRACT: note_off channel=6 note=70 velocity=0 time=0
EXTRACT: note_off channel=6 note=65 velocity=0 time=0
EXTRACT: note_on channel=6 note=65 velocity=89 time=0
EXTRACT: note_off channel=8 note=58 velocity=0 time=0
EXTRACT: note_on channel=8 note=60 velocity=89 time=0
EXTRACT: note_off channel=0 note=60 velocity=0 time=0
EXTRACT: note_on channel=0 note=60 velocity=89 time=0
EXTRACT: note_off channel=8 note=60 velocity=0 time=0
EXTRACT: note_on channel=8 note=60 velocity=89 time=0
EXTRACT: note_off channel=1 note=65 velocity=0 time=0
EXTRACT: note_on channel=1 note=67 velocity=89 time=0
EXTRACT: note_off channel=2 note=58 velocity=0 time=0
EXTRACT: note_on channel=2 note=53 velocity=89 time=0
EXTRACT: note_off channel=6 note=65 velocity=0 time=0
EXTRACT: note_on channel=6 note=67 velocity=89 time=0
EXTRACT: note_off channel=7 note=58 velocity=0 time=0
EXTRACT: note_on channel=7 note=53 velocity=89 time=0
EXTRACT: note_off channel=1 note=67 velocity=0 time=0.24193550000000003
EXTRACT: note_on channel=1 note=68 velocity=89 time=0
EXTRACT: note_off channel=6 note=67 velocity=0 time=0
EXTRACT: note_on channel=6 note=68 velocity=89 time=0
EXTRACT: note_off channel=1 note=68 velocity=0 time=0.24193550000000003
EXTRACT: note_on channel=1 note=72 velocity=89 time=0
EXTRACT: note_off channel=6 note=68 velocity=0 time=0
EXTRACT: note_on channel=6 note=72 velocity=89 time=0
EXTRACT: note_off channel=1 note=72 velocity=0 time=0.24193550000000003
EXTRACT: note_on channel=1 note=77 velocity=89 time=0
EXTRACT: note_off channel=2 note=53 velocity=0 time=0
EXTRACT: note_on channel=2 note=65 velocity=89 time=0
EXTRACT: note_off channel=6 note=72 velocity=0 time=0
EXTRACT: note_on channel=6 note=77 velocity=89 time=0
EXTRACT: note_off channel=7 note=53 velocity=0 time=0
EXTRACT: note_on channel=7 note=65 velocity=89 time=0
EXTRACT: note_off channel=0 note=60 velocity=0 time=0.24193550000000003
EXTRACT: note_off channel=1 note=77 velocity=0 time=0
EXTRACT: note_on channel=1 note=67 velocity=89 time=0
EXTRACT: note_off channel=6 note=77 velocity=0 time=0
EXTRACT: note_on channel=6 note=67 velocity=89 time=0
EXTRACT: note_off channel=8 note=60 velocity=0 time=0
EXTRACT: note_off channel=1 note=67 velocity=0 time=0.24193550000000003
EXTRACT: note_on channel=1 note=68 velocity=89 time=0
EXTRACT: note_off channel=6 note=67 velocity=0 time=0
EXTRACT: note_on channel=6 note=68 velocity=89 time=0
EXTRACT: note_off channel=1 note=68 velocity=0 time=0.24193550000000003
EXTRACT: note_on channel=1 note=72 velocity=89 time=0
EXTRACT: note_off channel=6 note=68 velocity=0 time=0
EXTRACT: note_on channel=6 note=72 velocity=89 time=0
EXTRACT: note_on channel=0 note=72 velocity=89 time=0
EXTRACT: note_off channel=1 note=72 velocity=0 time=0
EXTRACT: note_on channel=1 note=77 velocity=89 time=0
EXTRACT: note_off channel=6 note=72 velocity=0 time=0
EXTRACT: note_on channel=6 note=77 velocity=89 time=0
EXTRACT: note_on channel=8 note=72 velocity=89 time=0
EXTRACT: note_off channel=1 note=77 velocity=0 time=0
EXTRACT: note_on channel=1 note=80 velocity=89 time=0
EXTRACT: note_off channel=2 note=65 velocity=0 time=0
EXTRACT: note_off channel=6 note=77 velocity=0 time=0
EXTRACT: note_on channel=6 note=80 velocity=89 time=0
EXTRACT: note_off channel=7 note=65 velocity=0 time=0
EXTRACT: note_on channel=2 note=68 velocity=89 time=0.24193550000000003
EXTRACT: note_on channel=7 note=68 velocity=89 time=0
EXTRACT: note_off channel=2 note=68 velocity=0 time=0.24193550000000003
EXTRACT: note_on channel=2 note=65 velocity=89 time=0
EXTRACT: note_off channel=7 note=68 velocity=0 time=0
EXTRACT: note_on channel=7 note=65 velocity=89 time=0
EXTRACT: note_off channel=0 note=72 velocity=0 time=0
EXTRACT: note_on channel=0 note=72 velocity=89 time=0
EXTRACT: note_off channel=1 note=80 velocity=0 time=0
EXTRACT: note_on channel=1 note=79 velocity=89 time=0
EXTRACT: note_off channel=6 note=80 velocity=0 time=0
EXTRACT: note_on channel=6 note=79 velocity=89 time=0
EXTRACT: note_off channel=8 note=72 velocity=0 time=0
EXTRACT: note_on channel=8 note=72 velocity=89 time=0
EXTRACT: note_off channel=0 note=72 velocity=0 time=0
EXTRACT: note_on channel=0 note=70 velocity=89 time=0
EXTRACT: note_off channel=8 note=72 velocity=0 time=0
EXTRACT: note_on channel=8 note=70 velocity=89 time=0
EXTRACT: note_off channel=0 note=70 velocity=0 time=0
EXTRACT: note_on channel=0 note=70 velocity=89 time=0
EXTRACT: note_off channel=2 note=65 velocity=0 time=0
EXTRACT: note_on channel=2 note=65 velocity=89 time=0
EXTRACT: note_off channel=7 note=65 velocity=0 time=0
EXTRACT: note_on channel=7 note=65 velocity=89 time=0
EXTRACT: note_off channel=8 note=70 velocity=0 time=0
EXTRACT: note_on channel=8 note=70 velocity=89 time=0
EXTRACT: note_off channel=0 note=70 velocity=0 time=0
EXTRACT: note_on channel=0 note=68 velocity=89 time=0
EXTRACT: note_off channel=1 note=79 velocity=0 time=0
EXTRACT: note_on channel=1 note=77 velocity=89 time=0
EXTRACT: note_off channel=6 note=79 velocity=0 time=0
EXTRACT: note_on channel=6 note=77 velocity=89 time=0
EXTRACT: note_off channel=8 note=70 velocity=0 time=0
EXTRACT: note_on channel=8 note=68 velocity=89 time=0
EXTRACT: note_off channel=0 note=68 velocity=0 time=0
EXTRACT: note_on channel=0 note=67 velocity=89 time=0
EXTRACT: note_off channel=8 note=68 velocity=0 time=0
EXTRACT: note_on channel=8 note=67 velocity=89 time=0
EXTRACT: note_off channel=1 note=77 velocity=0 time=0
EXTRACT: note_on channel=1 note=75 velocity=89 time=0
EXTRACT: note_on channel=1 note=67 velocity=89 time=0
EXTRACT: note_on channel=1 note=70 velocity=89 time=0
EXTRACT: note_off channel=2 note=65 velocity=0 time=0
EXTRACT: note_on channel=2 note=51 velocity=89 time=0
EXTRACT: note_off channel=6 note=77 velocity=0 time=0
EXTRACT: note_on channel=6 note=75 velocity=89 time=0
EXTRACT: note_on channel=6 note=67 velocity=89 time=0
EXTRACT: note_on channel=6 note=70 velocity=89 time=0
EXTRACT: note_off channel=7 note=65 velocity=0 time=0
EXTRACT: note_on channel=7 note=51 velocity=89 time=0
EXTRACT: note_off channel=0 note=67 velocity=0 time=0
EXTRACT: note_on channel=0 note=67 velocity=89 time=0
EXTRACT: note_off channel=1 note=70 velocity=0 time=0
EXTRACT: note_off channel=1 note=67 velocity=0 time=0
EXTRACT: note_off channel=1 note=75 velocity=0 time=0
EXTRACT: note_on channel=1 note=67 velocity=89 time=0
EXTRACT: note_on channel=1 note=75 velocity=89 time=0
EXTRACT: note_on channel=1 note=70 velocity=89 time=0
EXTRACT: note_off channel=6 note=70 velocity=0 time=0
EXTRACT: note_off channel=6 note=67 velocity=0 time=0
EXTRACT: note_off channel=6 note=75 velocity=0 time=0
EXTRACT: note_on channel=6 note=67 velocity=89 time=0
EXTRACT: note_on channel=6 note=75 velocity=89 time=0
EXTRACT: note_on channel=6 note=70 velocity=89 time=0
EXTRACT: note_off channel=8 note=67 velocity=0 time=0
EXTRACT: note_on channel=8 note=67 velocity=89 time=0
EXTRACT: note_off channel=0 note=67 velocity=0 time=0
EXTRACT: note_on channel=0 note=65 velocity=89 time=0
EXTRACT: note_off channel=8 note=67 velocity=0 time=0
EXTRACT: note_on channel=8 note=65 velocity=89 time=0
EXTRACT: note_off channel=0 note=65 velocity=0 time=0
EXTRACT: note_on channel=0 note=65 velocity=89 time=0
EXTRACT: note_off channel=2 note=51 velocity=0 time=0
EXTRACT: note_on channel=2 note=63 velocity=89 time=0
EXTRACT: note_off channel=7 note=51 velocity=0 time=0
EXTRACT: note_on channel=7 note=63 velocity=89 time=0
EXTRACT: note_off channel=8 note=65 velocity=0 time=0
EXTRACT: note_on channel=8 note=65 velocity=89 time=0
EXTRACT: note_off channel=0 note=65 velocity=0 time=0
EXTRACT: note_on channel=0 note=63 velocity=89 time=0
EXTRACT: note_off channel=1 note=70 velocity=0 time=0
EXTRACT: note_off channel=1 note=75 velocity=0 time=0
EXTRACT: note_off channel=1 note=67 velocity=0 time=0
EXTRACT: note_on channel=1 note=70 velocity=89 time=0
EXTRACT: note_off channel=2 note=63 velocity=0 time=0
EXTRACT: note_on channel=2 note=63 velocity=89 time=0
EXTRACT: note_off channel=6 note=70 velocity=0 time=0
EXTRACT: note_off channel=6 note=75 velocity=0 time=0
EXTRACT: note_off channel=6 note=67 velocity=0 time=0
EXTRACT: note_on channel=6 note=70 velocity=89 time=0
EXTRACT: note_off channel=7 note=63 velocity=0 time=0
EXTRACT: note_on channel=7 note=63 velocity=89 time=0
EXTRACT: note_off channel=8 note=65 velocity=0 time=0
EXTRACT: note_on channel=8 note=63 velocity=89 time=0
EXTRACT: note_off channel=0 note=63 velocity=0 time=0
EXTRACT: note_on channel=0 note=65 velocity=89 time=0
EXTRACT: note_off channel=1 note=70 velocity=0 time=0
EXTRACT: note_on channel=1 note=74 velocity=89 time=0
EXTRACT: note_off channel=6 note=70 velocity=0 time=0
EXTRACT: note_on channel=6 note=74 velocity=89 time=0
EXTRACT: note_off channel=8 note=63 velocity=0 time=0
EXTRACT: note_on channel=8 note=65 velocity=89 time=0
EXTRACT: note_off channel=1 note=74 velocity=0 time=0
EXTRACT: note_on channel=1 note=74 velocity=89 time=0
EXTRACT: note_on channel=1 note=70 velocity=89 time=0
EXTRACT: note_on channel=1 note=65 velocity=89 time=0
EXTRACT: note_off channel=2 note=63 velocity=0 time=0
EXTRACT: note_on channel=2 note=58 velocity=89 time=0
EXTRACT: note_on channel=2 note=46 velocity=89 time=0
EXTRACT: note_off channel=6 note=74 velocity=0 time=0
EXTRACT: note_on channel=6 note=74 velocity=89 time=0
EXTRACT: note_on channel=6 note=70 velocity=89 time=0
EXTRACT: note_on channel=6 note=65 velocity=89 time=0
EXTRACT: note_off channel=7 note=63 velocity=0 time=0
EXTRACT: note_on channel=7 note=58 velocity=89 time=0
EXTRACT: note_on channel=7 note=46 velocity=89 time=0
EXTRACT: note_off channel=0 note=65 velocity=0 time=0
EXTRACT: note_on channel=0 note=67 velocity=89 time=0
EXTRACT: note_off channel=8 note=65 velocity=0 time=0
EXTRACT: note_on channel=8 note=67 velocity=89 time=0
EXTRACT: note_off channel=0 note=67 velocity=0 time=0.24193550000000003
EXTRACT: note_off channel=1 note=65 velocity=0 time=0
EXTRACT: note_off channel=1 note=70 velocity=0 time=0
EXTRACT: note_off channel=1 note=74 velocity=0 time=0
EXTRACT: note_on channel=1 note=82 velocity=89 time=0
EXTRACT: note_off channel=6 note=65 velocity=0 time=0
EXTRACT: note_off channel=6 note=70 velocity=0 time=0
EXTRACT: note_off channel=6 note=74 velocity=0 time=0
EXTRACT: note_on channel=6 note=82 velocity=89 time=0
EXTRACT: note_off channel=8 note=67 velocity=0 time=0
EXTRACT: note_on channel=0 note=67 velocity=89 time=0
EXTRACT: note_on channel=8 note=67 velocity=89 time=0
EXTRACT: note_off channel=0 note=67 velocity=0 time=0
EXTRACT: note_on channel=0 note=67 velocity=89 time=0
EXTRACT: note_off channel=1 note=82 velocity=0 time=0
EXTRACT: note_on channel=1 note=82 velocity=89 time=0
EXTRACT: note_off channel=2 note=46 velocity=0 time=0
EXTRACT: note_off channel=2 note=58 velocity=0 time=0
EXTRACT: note_on channel=2 note=51 velocity=89 time=0
EXTRACT: note_on channel=4 note=75 velocity=89 time=0
EXTRACT: note_off channel=6 note=82 velocity=0 time=0
EXTRACT: note_on channel=6 note=82 velocity=89 time=0
EXTRACT: note_off channel=7 note=46 velocity=0 time=0
EXTRACT: note_off channel=7 note=58 velocity=0 time=0
EXTRACT: note_on channel=7 note=51 velocity=89 time=0
EXTRACT: note_off channel=8 note=67 velocity=0 time=0
EXTRACT: note_on channel=8 note=67 velocity=89 time=0
EXTRACT: note_off channel=0 note=67 velocity=0 time=0
EXTRACT: note_on channel=0 note=70 velocity=89 time=0
EXTRACT: note_off channel=8 note=67 velocity=0 time=0
EXTRACT: note_on channel=8 note=70 velocity=89 time=0
EXTRACT: note_off channel=1 note=82 velocity=0 time=0.12096775000000001
EXTRACT: note_on channel=1 note=79 velocity=89 time=0
EXTRACT: note_off channel=6 note=82 velocity=0 time=0
EXTRACT: note_on channel=6 note=79 velocity=89 time=0
EXTRACT: note_off channel=1 note=79 velocity=0 time=0
EXTRACT: note_on channel=1 note=75 velocity=89 time=0
EXTRACT: note_off channel=6 note=79 velocity=0 time=0
EXTRACT: note_on channel=6 note=75 velocity=89 time=0
EXTRACT: note_off channel=1 note=75 velocity=0 time=0.24193550000000003
EXTRACT: note_on channel=1 note=82 velocity=89 time=0
EXTRACT: note_off channel=2 note=51 velocity=0 time=0
EXTRACT: note_on channel=2 note=63 velocity=89 time=0
EXTRACT: note_off channel=6 note=75 velocity=0 time=0
EXTRACT: note_on channel=6 note=82 velocity=89 time=0
EXTRACT: note_off channel=7 note=51 velocity=0 time=0
EXTRACT: note_on channel=7 note=63 velocity=89 time=0
EXTRACT: note_off channel=1 note=82 velocity=0 time=0.24193550000000003
EXTRACT: note_on channel=1 note=70 velocity=89 time=0
EXTRACT: note_off channel=6 note=82 velocity=0 time=0
EXTRACT: note_on channel=6 note=70 velocity=89 time=0
EXTRACT: note_off channel=1 note=70 velocity=0 time=0.24193550000000003
EXTRACT: note_on channel=1 note=75 velocity=89 time=0
EXTRACT: note_off channel=6 note=70 velocity=0 time=0
EXTRACT: note_on channel=6 note=75 velocity=89 time=0
EXTRACT: note_off channel=0 note=70 velocity=0 time=0
EXTRACT: note_on channel=0 note=67 velocity=89 time=0
EXTRACT: note_off channel=1 note=75 velocity=0 time=0
EXTRACT: note_on channel=1 note=82 velocity=89 time=0
EXTRACT: note_off channel=2 note=63 velocity=0 time=0
EXTRACT: note_off channel=4 note=75 velocity=0 time=0
EXTRACT: note_on channel=4 note=70 velocity=89 time=0
EXTRACT: note_off channel=6 note=75 velocity=0 time=0
EXTRACT: note_on channel=6 note=82 velocity=89 time=0
EXTRACT: note_off channel=7 note=63 velocity=0 time=0
EXTRACT: note_off channel=8 note=70 velocity=0 time=0
EXTRACT: note_on channel=8 note=67 velocity=89 time=0
EXTRACT: note_off channel=0 note=67 velocity=0 time=0
EXTRACT: note_on channel=0 note=70 velocity=89 time=0
EXTRACT: note_off channel=1 note=82 velocity=0 time=0
EXTRACT: note_on channel=1 note=70 velocity=89 time=0
EXTRACT: note_off channel=4 note=70 velocity=0 time=0
EXTRACT: note_on channel=4 note=77 velocity=89 time=0
EXTRACT: note_off channel=6 note=82 velocity=0 time=0
EXTRACT: note_on channel=6 note=70 velocity=89 time=0
EXTRACT: note_off channel=8 note=67 velocity=0 time=0
EXTRACT: note_on channel=8 note=70 velocity=89 time=0
EXTRACT: note_off channel=0 note=70 velocity=0 time=0
EXTRACT: note_on channel=0 note=72 velocity=89 time=0
EXTRACT: note_off channel=1 note=70 velocity=0 time=0
EXTRACT: note_on channel=1 note=82 velocity=89 time=0
EXTRACT: note_on channel=2 note=63 velocity=89 time=0
EXTRACT: note_off channel=6 note=70 velocity=0 time=0
EXTRACT: note_on channel=6 note=82 velocity=89 time=0
EXTRACT: note_on channel=7 note=63 velocity=89 time=0
EXTRACT: note_off channel=8 note=70 velocity=0 time=0
EXTRACT: note_on channel=8 note=72 velocity=89 time=0
EXTRACT: note_off channel=1 note=82 velocity=0 time=0.24193550000000003
EXTRACT: note_on channel=1 note=79 velocity=89 time=0
EXTRACT: note_off channel=6 note=82 velocity=0 time=0
EXTRACT: note_on channel=6 note=79 velocity=89 time=0
EXTRACT: note_off channel=0 note=72 velocity=0 time=0.24193550000000003
EXTRACT: note_off channel=1 note=79 velocity=0 time=0
EXTRACT: note_on channel=1 note=75 velocity=89 time=0
EXTRACT: note_off channel=4 note=77 velocity=0 time=0
EXTRACT: note_off channel=6 note=79 velocity=0 time=0
EXTRACT: note_on channel=6 note=75 velocity=89 time=0
EXTRACT: note_off channel=8 note=72 velocity=0 time=0
EXTRACT: note_off channel=1 note=75 velocity=0 time=0.24193550000000003
EXTRACT: note_on channel=1 note=82 velocity=89 time=0
EXTRACT: note_off channel=6 note=75 velocity=0 time=0
EXTRACT: note_on channel=6 note=82 velocity=89 time=0
EXTRACT: note_on channel=0 note=67 velocity=89 time=0
EXTRACT: note_off channel=1 note=82 velocity=0 time=0
EXTRACT: note_on channel=1 note=79 velocity=89 time=0
EXTRACT: note_on channel=4 note=75 velocity=89 time=0
EXTRACT: note_off channel=6 note=82 velocity=0 time=0
EXTRACT: note_on channel=6 note=79 velocity=89 time=0
EXTRACT: note_on channel=8 note=67 velocity=89 time=0
EXTRACT: note_off channel=1 note=79 velocity=0 time=0.24193550000000003
EXTRACT: note_on channel=1 note=75 velocity=89 time=0
EXTRACT: note_off channel=6 note=79 velocity=0 time=0
EXTRACT: note_on channel=6 note=75 velocity=89 time=0
EXTRACT: note_off channel=1 note=75 velocity=0 time=0.24193550000000003
EXTRACT: note_on channel=1 note=74 velocity=89 time=0
EXTRACT: note_off channel=6 note=75 velocity=0 time=0
EXTRACT: note_on channel=6 note=74 velocity=89 time=0
EXTRACT: note_off channel=0 note=67 velocity=0 time=0
EXTRACT: note_on channel=0 note=65 velocity=89 time=0
EXTRACT: note_off channel=1 note=74 velocity=0 time=0
EXTRACT: note_on channel=1 note=79 velocity=89 time=0
EXTRACT: note_off channel=2 note=63 velocity=0 time=0
EXTRACT: note_on channel=2 note=60 velocity=89 time=0
EXTRACT: note_off channel=4 note=75 velocity=0 time=0
EXTRACT: note_on channel=4 note=74 velocity=89 time=0
EXTRACT: note_off channel=6 note=74 velocity=0 time=0
EXTRACT: note_on channel=6 note=79 velocity=89 time=0
EXTRACT: note_off channel=7 note=63 velocity=0 time=0
EXTRACT: note_on channel=7 note=60 velocity=89 time=0
EXTRACT: note_off channel=8 note=67 velocity=0 time=0
EXTRACT: note_on channel=8 note=65 velocity=89 time=0
EXTRACT: note_off channel=1 note=79 velocity=0 time=0.24193550000000003
EXTRACT: note_on channel=1 note=67 velocity=89 time=0
EXTRACT: note_off channel=6 note=79 velocity=0 time=0
EXTRACT: note_on channel=6 note=67 velocity=89 time=0
EXTRACT: note_off channel=1 note=67 velocity=0 time=0.24193550000000003
EXTRACT: note_on channel=1 note=72 velocity=89 time=0
EXTRACT: note_off channel=6 note=67 velocity=0 time=0
EXTRACT: note_on channel=6 note=72 velocity=89 time=0
EXTRACT: note_off channel=1 note=72 velocity=0 time=0.24193550000000003
EXTRACT: note_on channel=1 note=79 velocity=89 time=0
EXTRACT: note_on channel=1 note=74 velocity=89 time=0
EXTRACT: note_off channel=6 note=72 velocity=0 time=0
EXTRACT: note_on channel=6 note=79 velocity=89 time=0
EXTRACT: note_on channel=6 note=74 velocity=89 time=0
EXTRACT: note_off channel=1 note=74 velocity=0 time=0.24193550000000003
EXTRACT: note_off channel=1 note=79 velocity=0 time=0
EXTRACT: note_on channel=1 note=75 velocity=89 time=0
EXTRACT: note_off channel=6 note=74 velocity=0 time=0
EXTRACT: note_off channel=6 note=79 velocity=0 time=0
EXTRACT: note_on channel=6 note=75 velocity=89 time=0
EXTRACT: note_off channel=0 note=65 velocity=0 time=0
EXTRACT: note_on channel=0 note=63 velocity=89 time=0
EXTRACT: note_off channel=1 note=75 velocity=0 time=0
EXTRACT: note_on channel=1 note=67 velocity=89 time=0
EXTRACT: note_off channel=4 note=74 velocity=0 time=0
EXTRACT: note_on channel=4 note=72 velocity=89 time=0
EXTRACT: note_off channel=6 note=75 velocity=0 time=0
EXTRACT: note_on channel=6 note=67 velocity=89 time=0
EXTRACT: note_off channel=8 note=65 velocity=0 time=0
EXTRACT: note_on channel=8 note=63 velocity=89 time=0
EXTRACT: note_off channel=0 note=63 velocity=0 time=0
EXTRACT: note_on channel=0 note=65 velocity=89 time=0
EXTRACT: note_off channel=1 note=67 velocity=0 time=0
EXTRACT: note_on channel=1 note=72 velocity=89 time=0
EXTRACT: note_off channel=4 note=72 velocity=0 time=0
EXTRACT: note_on channel=4 note=75 velocity=89 time=0
EXTRACT: note_off channel=6 note=67 velocity=0 time=0
EXTRACT: note_on channel=6 note=72 velocity=89 time=0
EXTRACT: note_off channel=8 note=63 velocity=0 time=0
EXTRACT: note_on channel=8 note=65 velocity=89 time=0
EXTRACT: note_off channel=0 note=65 velocity=0 time=0
EXTRACT: note_on channel=0 note=67 velocity=89 time=0
EXTRACT: note_off channel=2 note=60 velocity=0 time=0
EXTRACT: note_on channel=2 note=60 velocity=89 time=0
EXTRACT: note_off channel=7 note=60 velocity=0 time=0
EXTRACT: note_on channel=7 note=60 velocity=89 time=0
EXTRACT: note_off channel=8 note=65 velocity=0 time=0
EXTRACT: note_on channel=8 note=67 velocity=89 time=0
EXTRACT: note_off channel=1 note=72 velocity=0 time=0.24193550000000003
EXTRACT: note_on channel=1 note=67 velocity=89 time=0
EXTRACT: note_off channel=6 note=72 velocity=0 time=0
EXTRACT: note_on channel=6 note=67 velocity=89 time=0
EXTRACT: note_off channel=0 note=67 velocity=0 time=0.24193550000000003
EXTRACT: note_off channel=1 note=67 velocity=0 time=0
EXTRACT: note_on channel=1 note=72 velocity=89 time=0
EXTRACT: note_off channel=4 note=75 velocity=0 time=0
EXTRACT: note_off channel=6 note=67 velocity=0 time=0
EXTRACT: note_on channel=6 note=72 velocity=89 time=0
EXTRACT: note_off channel=8 note=67 velocity=0 time=0
EXTRACT: note_off channel=1 note=72 velocity=0 time=0.24193550000000003
EXTRACT: note_on channel=1 note=79 velocity=89 time=0
EXTRACT: note_on channel=1 note=74 velocity=89 time=0
EXTRACT: note_off channel=6 note=72 velocity=0 time=0
EXTRACT: note_on channel=6 note=79 velocity=89 time=0
EXTRACT: note_on channel=6 note=74 velocity=89 time=0
EXTRACT: note_on channel=0 note=67 velocity=89 time=0
EXTRACT: note_on channel=4 note=72 velocity=89 time=0
EXTRACT: note_on channel=8 note=67 velocity=89 time=0
EXTRACT: note_off channel=0 note=67 velocity=0 time=0
EXTRACT: note_on channel=0 note=67 velocity=89 time=0
EXTRACT: note_off channel=1 note=74 velocity=0 time=0
EXTRACT: note_off channel=1 note=79 velocity=0 time=0
EXTRACT: note_on channel=1 note=75 velocity=89 time=0
EXTRACT: note_off channel=4 note=72 velocity=0 time=0
EXTRACT: note_on channel=4 note=72 velocity=89 time=0
EXTRACT: note_off channel=6 note=74 velocity=0 time=0
EXTRACT: note_off channel=6 note=79 velocity=0 time=0
EXTRACT: note_on channel=6 note=75 velocity=89 time=0
EXTRACT: note_off channel=8 note=67 velocity=0 time=0
EXTRACT: note_on channel=8 note=67 velocity=89 time=0
EXTRACT: note_off channel=1 note=75 velocity=0 time=0.24193550000000003
EXTRACT: note_on channel=1 note=67 velocity=89 time=0
EXTRACT: note_off channel=6 note=75 velocity=0 time=0
EXTRACT: note_on channel=6 note=67 velocity=89 time=0
EXTRACT: note_off channel=0 note=67 velocity=0 time=0
EXTRACT: note_on channel=0 note=65 velocity=89 time=0
EXTRACT: note_off channel=1 note=67 velocity=0 time=0
EXTRACT: note_on channel=1 note=79 velocity=89 time=0
EXTRACT: note_off channel=6 note=67 velocity=0 time=0
EXTRACT: note_on channel=6 note=79 velocity=89 time=0
EXTRACT: note_off channel=8 note=67 velocity=0 time=0
EXTRACT: note_on channel=8 note=65 velocity=89 time=0
EXTRACT: note_off channel=0 note=65 velocity=0 time=0
EXTRACT: note_on channel=0 note=65 velocity=89 time=0
EXTRACT: note_off channel=1 note=79 velocity=0 time=0
EXTRACT: note_on channel=1 note=77 velocity=89 time=0
EXTRACT: note_on channel=1 note=72 velocity=89 time=0
EXTRACT: note_on channel=1 note=68 velocity=89 time=0
EXTRACT: note_off channel=2 note=60 velocity=0 time=0
EXTRACT: note_on channel=2 note=56 velocity=89 time=0
EXTRACT: note_off channel=4 note=72 velocity=0 time=0
EXTRACT: note_on channel=4 note=68 velocity=89 time=0
EXTRACT: note_off channel=6 note=79 velocity=0 time=0
EXTRACT: note_on channel=6 note=77 velocity=89 time=0
EXTRACT: note_on channel=6 note=72 velocity=89 time=0
EXTRACT: note_on channel=6 note=68 velocity=89 time=0
EXTRACT: note_off channel=7 note=60 velocity=0 time=0
EXTRACT: note_on channel=7 note=56 velocity=89 time=0
EXTRACT: note_off channel=8 note=65 velocity=0 time=0
EXTRACT: note_on channel=8 note=65 velocity=89 time=0
EXTRACT: note_off channel=0 note=65 velocity=0 time=0
EXTRACT: note_on channel=0 note=65 velocity=89 time=0
EXTRACT: note_off channel=4 note=68 velocity=0 time=0
EXTRACT: note_on channel=4 note=68 velocity=89 time=0
EXTRACT: note_off channel=8 note=65 velocity=0 time=0
EXTRACT: note_on channel=8 note=65 velocity=89 time=0
EXTRACT: note_off channel=1 note=68 velocity=0 time=0.24193550000000003
EXTRACT: note_off channel=1 note=72 velocity=0 time=0
EXTRACT: note_off channel=1 note=77 velocity=0 time=0
EXTRACT: note_on channel=1 note=77 velocity=89 time=0
EXTRACT: note_off channel=6 note=68 velocity=0 time=0
EXTRACT: note_off channel=6 note=72 velocity=0 time=0
EXTRACT: note_off channel=6 note=77 velocity=0 time=0
EXTRACT: note_on channel=6 note=77 velocity=89 time=0
EXTRACT: note_off channel=0 note=65 velocity=0 time=0
EXTRACT: note_on channel=0 note=65 velocity=89 time=0
EXTRACT: note_off channel=4 note=68 velocity=0 time=0
EXTRACT: note_on channel=4 note=68 velocity=89 time=0
EXTRACT: note_off channel=8 note=65 velocity=0 time=0
EXTRACT: note_on channel=8 note=65 velocity=89 time=0
EXTRACT: note_off channel=1 note=77 velocity=0 time=0.24193550000000003
EXTRACT: note_on channel=1 note=68 velocity=89 time=0
EXTRACT: note_off channel=6 note=77 velocity=0 time=0
EXTRACT: note_on channel=6 note=68 velocity=89 time=0
EXTRACT: note_off channel=0 note=65 velocity=0 time=0
EXTRACT: note_on channel=0 note=63 velocity=89 time=0
EXTRACT: note_off channel=1 note=68 velocity=0 time=0
EXTRACT: note_on channel=1 note=68 velocity=89 time=0
EXTRACT: note_off channel=4 note=68 velocity=0 time=0
EXTRACT: note_on channel=4 note=67 velocity=89 time=0
EXTRACT: note_off channel=6 note=68 velocity=0 time=0
EXTRACT: note_on channel=6 note=68 velocity=89 time=0
EXTRACT: note_off channel=8 note=65 velocity=0 time=0
EXTRACT: note_on channel=8 note=63 velocity=89 time=0
EXTRACT: note_off channel=0 note=63 velocity=0 time=0
EXTRACT: note_on channel=0 note=65 velocity=89 time=0
EXTRACT: note_off channel=1 note=68 velocity=0 time=0
EXTRACT: note_on channel=1 note=72 velocity=89 time=0
EXTRACT: note_off channel=4 note=67 velocity=0 time=0
EXTRACT: note_on channel=4 note=68 velocity=89 time=0
EXTRACT: note_off channel=6 note=68 velocity=0 time=0
EXTRACT: note_on channel=6 note=72 velocity=89 time=0
EXTRACT: note_off channel=8 note=63 velocity=0 time=0
EXTRACT: note_on channel=8 note=65 velocity=89 time=0
EXTRACT: note_off channel=0 note=65 velocity=0 time=0
EXTRACT: note_on channel=0 note=63 velocity=89 time=0
EXTRACT: note_off channel=1 note=72 velocity=0 time=0
EXTRACT: note_on channel=1 note=80 velocity=89 time=0
EXTRACT: note_off channel=4 note=68 velocity=0 time=0
EXTRACT: note_on channel=4 note=65 velocity=89 time=0
EXTRACT: note_off channel=6 note=72 velocity=0 time=0
EXTRACT: note_on channel=6 note=80 velocity=89 time=0
EXTRACT: note_off channel=8 note=65 velocity=0 time=0
EXTRACT: note_on channel=8 note=63 velocity=89 time=0
EXTRACT: note_off channel=0 note=63 velocity=0 time=0.24193550000000003
EXTRACT: note_off channel=1 note=80 velocity=0 time=0
EXTRACT: note_on channel=1 note=68 velocity=89 time=0
EXTRACT: note_off channel=4 note=65 velocity=0 time=0
EXTRACT: note_off channel=6 note=80 velocity=0 time=0
EXTRACT: note_on channel=6 note=68 velocity=89 time=0
EXTRACT: note_off channel=8 note=63 velocity=0 time=0
EXTRACT: note_off channel=1 note=68 velocity=0 time=0.24193550000000003
EXTRACT: note_on channel=1 note=72 velocity=89 time=0
EXTRACT: note_off channel=6 note=68 velocity=0 time=0
EXTRACT: note_on channel=6 note=72 velocity=89 time=0
EXTRACT: note_off channel=1 note=72 velocity=0 time=0.24193550000000003
EXTRACT: note_on channel=1 note=79 velocity=89 time=0
EXTRACT: note_off channel=6 note=72 velocity=0 time=0
EXTRACT: note_on channel=6 note=79 velocity=89 time=0
EXTRACT: note_on channel=0 note=67 velocity=89 time=0
EXTRACT: note_off channel=1 note=79 velocity=0 time=0
EXTRACT: note_on channel=1 note=68 velocity=89 time=0
EXTRACT: note_on channel=4 note=72 velocity=89 time=0
EXTRACT: note_off channel=6 note=79 velocity=0 time=0
EXTRACT: note_on channel=6 note=68 velocity=89 time=0
EXTRACT: note_on channel=8 note=67 velocity=89 time=0
EXTRACT: note_off channel=1 note=68 velocity=0 time=0
EXTRACT: note_on channel=1 note=68 velocity=89 time=0
EXTRACT: note_off channel=4 note=72 velocity=0 time=0
EXTRACT: note_on channel=4 note=72 velocity=89 time=0
EXTRACT: note_off channel=6 note=68 velocity=0 time=0
EXTRACT: note_on channel=6 note=68 velocity=89 time=0
EXTRACT: note_off channel=1 note=68 velocity=0 time=0.24193550000000003
EXTRACT: note_on channel=1 note=75 velocity=89 time=0
EXTRACT: note_off channel=6 note=68 velocity=0 time=0
EXTRACT: note_on channel=6 note=75 velocity=89 time=0
EXTRACT: note_off channel=0 note=67 velocity=0 time=0
EXTRACT: note_on channel=0 note=65 velocity=89 time=0
EXTRACT: note_off channel=1 note=75 velocity=0 time=0
EXTRACT: note_on channel=1 note=77 velocity=89 time=0
EXTRACT: note_off channel=6 note=75 velocity=0 time=0
EXTRACT: note_on channel=6 note=77 velocity=89 time=0
EXTRACT: note_off channel=8 note=67 velocity=0 time=0
EXTRACT: note_on channel=8 note=65 velocity=89 time=0
EXTRACT: note_off channel=0 note=65 velocity=0 time=0
EXTRACT: note_on channel=0 note=65 velocity=89 time=0
EXTRACT: note_off channel=1 note=77 velocity=0 time=0
EXTRACT: note_on channel=1 note=75 velocity=89 time=0
EXTRACT: note_on channel=1 note=72 velocity=89 time=0
EXTRACT: note_off channel=2 note=56 velocity=0 time=0
EXTRACT: note_on channel=2 note=46 velocity=89 time=0
EXTRACT: note_off channel=4 note=72 velocity=0 time=0
EXTRACT: note_on channel=4 note=70 velocity=89 time=0
EXTRACT: note_off channel=6 note=77 velocity=0 time=0
EXTRACT: note_on channel=6 note=75 velocity=89 time=0
EXTRACT: note_on channel=6 note=72 velocity=89 time=0
EXTRACT: note_off channel=7 note=56 velocity=0 time=0
EXTRACT: note_on channel=7 note=46 velocity=89 time=0
EXTRACT: note_off channel=8 note=65 velocity=0 time=0
EXTRACT: note_on channel=8 note=65 velocity=89 time=0
EXTRACT: note_off channel=0 note=65 velocity=0 time=0
EXTRACT: note_on channel=0 note=65 velocity=89 time=0
EXTRACT: note_off channel=1 note=72 velocity=0 time=0
EXTRACT: note_off channel=1 note=75 velocity=0 time=0
EXTRACT: note_on channel=1 note=68 velocity=89 time=0
EXTRACT: note_off channel=4 note=70 velocity=0 time=0
EXTRACT: note_on channel=4 note=70 velocity=89 time=0
EXTRACT: note_off channel=6 note=72 velocity=0 time=0
EXTRACT: note_off channel=6 note=75 velocity=0 time=0
EXTRACT: note_on channel=6 note=68 velocity=89 time=0
EXTRACT: note_off channel=8 note=65 velocity=0 time=0
EXTRACT: note_on channel=8 note=65 velocity=89 time=0
EXTRACT: note_off channel=1 note=68 velocity=0 time=0.24193550000000003
EXTRACT: note_on channel=1 note=75 velocity=89 time=0
EXTRACT: note_on channel=1 note=72 velocity=89 time=0
EXTRACT: note_off channel=6 note=68 velocity=0 time=0
EXTRACT: note_on channel=6 note=75 velocity=89 time=0
EXTRACT: note_on channel=6 note=72 velocity=89 time=0
EXTRACT: note_off channel=0 note=65 velocity=0 time=0
EXTRACT: note_on channel=0 note=65 velocity=89 time=0
EXTRACT: note_off channel=4 note=70 velocity=0 time=0
EXTRACT: note_on channel=4 note=70 velocity=89 time=0
EXTRACT: note_off channel=8 note=65 velocity=0 time=0
EXTRACT: note_on channel=8 note=65 velocity=89 time=0
EXTRACT: note_off channel=2 note=46 velocity=0 time=0.24193550000000003
EXTRACT: note_on channel=2 note=58 velocity=89 time=0
EXTRACT: note_off channel=7 note=46 velocity=0 time=0
EXTRACT: note_on channel=7 note=58 velocity=89 time=0
EXTRACT: note_off channel=0 note=65 velocity=0 time=0
EXTRACT: note_on channel=0 note=63 velocity=89 time=0
EXTRACT: note_off channel=1 note=75 velocity=0 time=0
EXTRACT: note_off channel=1 note=72 velocity=0 time=0
EXTRACT: note_on channel=1 note=68 velocity=89 time=0
EXTRACT: note_off channel=4 note=70 velocity=0 time=0
EXTRACT: note_on channel=4 note=70 velocity=89 time=0
EXTRACT: note_off channel=6 note=75 velocity=0 time=0
EXTRACT: note_off channel=6 note=72 velocity=0 time=0
EXTRACT: note_on channel=6 note=68 velocity=89 time=0
EXTRACT: note_off channel=8 note=65 velocity=0 time=0
EXTRACT: note_on channel=8 note=63 velocity=89 time=0
EXTRACT: note_off channel=0 note=63 velocity=0 time=0
EXTRACT: note_on channel=0 note=65 velocity=89 time=0
EXTRACT: note_off channel=1 note=68 velocity=0 time=0
EXTRACT: note_on channel=1 note=77 velocity=89 time=0
EXTRACT: note_off channel=4 note=70 velocity=0 time=0
EXTRACT: note_on channel=4 note=74 velocity=89 time=0
EXTRACT: note_off channel=6 note=68 velocity=0 time=0
EXTRACT: note_on channel=6 note=77 velocity=89 time=0
EXTRACT: note_off channel=8 note=63 velocity=0 time=0
EXTRACT: note_on channel=8 note=65 velocity=89 time=0
EXTRACT: note_off channel=0 note=65 velocity=0 time=0
EXTRACT: note_on channel=0 note=63 velocity=89 time=0
EXTRACT: note_off channel=1 note=77 velocity=0 time=0
EXTRACT: note_on channel=1 note=77 velocity=89 time=0
EXTRACT: note_on channel=1 note=74 velocity=89 time=0
EXTRACT: note_off channel=4 note=74 velocity=0 time=0
EXTRACT: note_on channel=4 note=65 velocity=89 time=0
EXTRACT: note_off channel=6 note=77 velocity=0 time=0
EXTRACT: note_on channel=6 note=77 velocity=89 time=0
EXTRACT: note_on channel=6 note=74 velocity=89 time=0
EXTRACT: note_off channel=8 note=65 velocity=0 time=0
EXTRACT: note_on channel=8 note=63 velocity=89 time=0
EXTRACT: note_off channel=0 note=63 velocity=0 time=0.24193550000000003
EXTRACT: note_off channel=4 note=65 velocity=0 time=0
EXTRACT: note_off channel=8 note=63 velocity=0 time=0
EXTRACT: note_off channel=1 note=74 velocity=0 time=0.48387100000000005
EXTRACT: note_off channel=1 note=77 velocity=0 time=0
EXTRACT: note_on channel=1 note=70 velocity=89 time=0
EXTRACT: note_off channel=6 note=74 velocity=0 time=0
EXTRACT: note_off channel=6 note=77 velocity=0 time=0
EXTRACT: note_on channel=6 note=70 velocity=89 time=0
EXTRACT: note_on channel=0 note=67 velocity=89 time=0
EXTRACT: note_off channel=1 note=70 velocity=0 time=0
EXTRACT: note_on channel=1 note=82 velocity=89 time=0
EXTRACT: note_on channel=4 note=70 velocity=89 time=0
EXTRACT: note_off channel=6 note=70 velocity=0 time=0
EXTRACT: note_on channel=6 note=82 velocity=89 time=0
EXTRACT: note_on channel=8 note=67 velocity=89 time=0
EXTRACT: note_off channel=0 note=67 velocity=0 time=0
EXTRACT: note_on channel=0 note=67 velocity=89 time=0
EXTRACT: note_off channel=4 note=70 velocity=0 time=0
EXTRACT: note_on channel=4 note=74 velocity=89 time=0
EXTRACT: note_off channel=8 note=67 velocity=0 time=0
EXTRACT: note_on channel=8 note=67 velocity=89 time=0
EXTRACT: note_off channel=0 note=67 velocity=0 time=0
EXTRACT: note_on channel=0 note=67 velocity=89 time=0
EXTRACT: note_off channel=1 note=82 velocity=0 time=0
EXTRACT: note_on channel=1 note=82 velocity=89 time=0
EXTRACT: note_on channel=1 note=79 velocity=89 time=0
EXTRACT: note_on channel=1 note=75 velocity=89 time=0
EXTRACT: note_on channel=1 note=70 velocity=89 time=0
EXTRACT: note_off channel=2 note=58 velocity=0 time=0
EXTRACT: note_on channel=2 note=51 velocity=89 time=0
EXTRACT: note_off channel=4 note=74 velocity=0 time=0
EXTRACT: note_on channel=4 note=75 velocity=89 time=0
EXTRACT: note_off channel=6 note=82 velocity=0 time=0
EXTRACT: note_on channel=6 note=82 velocity=89 time=0
EXTRACT: note_on channel=6 note=79 velocity=89 time=0
EXTRACT: note_on channel=6 note=75 velocity=89 time=0
EXTRACT: note_on channel=6 note=70 velocity=89 time=0
EXTRACT: note_off channel=7 note=58 velocity=0 time=0
EXTRACT: note_on channel=7 note=51 velocity=89 time=0
EXTRACT: note_off channel=8 note=67 velocity=0 time=0
EXTRACT: note_on channel=8 note=67 velocity=89 time=0
EXTRACT: note_off channel=0 note=67 velocity=0 time=0
EXTRACT: note_on channel=0 note=70 velocity=89 time=0
EXTRACT: note_off channel=8 note=67 velocity=0 time=0
EXTRACT: note_on channel=8 note=70 velocity=89 time=0
EXTRACT: note_off channel=1 note=70 velocity=0 time=0.12096775000000001
EXTRACT: note_off channel=1 note=75 velocity=0 time=0
EXTRACT: note_off channel=1 note=79 velocity=0 time=0
EXTRACT: note_off channel=1 note=82 velocity=0 time=0
EXTRACT: note_on channel=1 note=79 velocity=89 time=0
EXTRACT: note_off channel=6 note=70 velocity=0 time=0
EXTRACT: note_off channel=6 note=75 velocity=0 time=0
EXTRACT: note_off channel=6 note=79 velocity=0 time=0
EXTRACT: note_off channel=6 note=82 velocity=0 time=0
EXTRACT: note_on channel=6 note=79 velocity=89 time=0
EXTRACT: note_off channel=1 note=79 velocity=0 time=0
EXTRACT: note_on channel=1 note=75 velocity=89 time=0
EXTRACT: note_off channel=6 note=79 velocity=0 time=0
EXTRACT: note_on channel=6 note=75 velocity=89 time=0
EXTRACT: note_off channel=1 note=75 velocity=0 time=0.24193550000000003
EXTRACT: note_on channel=1 note=82 velocity=89 time=0
EXTRACT: note_off channel=2 note=51 velocity=0 time=0
EXTRACT: note_on channel=2 note=63 velocity=89 time=0
EXTRACT: note_off channel=6 note=75 velocity=0 time=0
EXTRACT: note_on channel=6 note=82 velocity=89 time=0
EXTRACT: note_off channel=7 note=51 velocity=0 time=0
EXTRACT: note_on channel=7 note=63 velocity=89 time=0
EXTRACT: note_off channel=1 note=82 velocity=0 time=0.24193550000000003
EXTRACT: note_on channel=1 note=79 velocity=89 time=0
EXTRACT: note_off channel=6 note=82 velocity=0 time=0
EXTRACT: note_on channel=6 note=79 velocity=89 time=0
EXTRACT: note_off channel=1 note=79 velocity=0 time=0.24193550000000003
EXTRACT: note_on channel=1 note=75 velocity=89 time=0
EXTRACT: note_off channel=6 note=79 velocity=0 time=0
EXTRACT: note_on channel=6 note=75 velocity=89 time=0
EXTRACT: note_off channel=0 note=70 velocity=0 time=0
EXTRACT: note_on channel=0 note=67 velocity=89 time=0
EXTRACT: note_off channel=1 note=75 velocity=0 time=0
EXTRACT: note_on channel=1 note=82 velocity=89 time=0
EXTRACT: note_off channel=4 note=75 velocity=0 time=0
EXTRACT: note_on channel=4 note=70 velocity=89 time=0
EXTRACT: note_off channel=6 note=75 velocity=0 time=0
EXTRACT: note_on channel=6 note=82 velocity=89 time=0
EXTRACT: note_off channel=8 note=70 velocity=0 time=0
EXTRACT: note_on channel=8 note=67 velocity=89 time=0
EXTRACT: note_off channel=0 note=67 velocity=0 time=0
EXTRACT: note_on channel=0 note=70 velocity=89 time=0
EXTRACT: note_off channel=1 note=82 velocity=0 time=0
EXTRACT: note_on channel=1 note=79 velocity=89 time=0
EXTRACT: note_off channel=4 note=70 velocity=0 time=0
EXTRACT: note_on channel=4 note=77 velocity=89 time=0
EXTRACT: note_off channel=6 note=82 velocity=0 time=0
EXTRACT: note_on channel=6 note=79 velocity=89 time=0
EXTRACT: note_off channel=8 note=67 velocity=0 time=0
EXTRACT: note_on channel=8 note=70 velocity=89 time=0
EXTRACT: note_off channel=0 note=70 velocity=0 time=0
EXTRACT: note_on channel=0 note=72 velocity=89 time=0
EXTRACT: note_off channel=1 note=79 velocity=0 time=0
EXTRACT: note_on channel=1 note=82 velocity=89 time=0
EXTRACT: note_off channel=2 note=63 velocity=0 time=0
EXTRACT: note_on channel=2 note=63 velocity=89 time=0
EXTRACT: note_off channel=6 note=79 velocity=0 time=0
EXTRACT: note_on channel=6 note=82 velocity=89 time=0
EXTRACT: note_off channel=7 note=63 velocity=0 time=0
EXTRACT: note_on channel=7 note=63 velocity=89 time=0
EXTRACT: note_off channel=8 note=70 velocity=0 time=0
EXTRACT: note_on channel=8 note=72 velocity=89 time=0
EXTRACT: note_off channel=1 note=82 velocity=0 time=0.24193550000000003
EXTRACT: note_on channel=1 note=79 velocity=89 time=0
EXTRACT: note_off channel=6 note=82 velocity=0 time=0
EXTRACT: note_on channel=6 note=79 velocity=89 time=0
EXTRACT: note_off channel=0 note=72 velocity=0 time=0.24193550000000003
EXTRACT: note_off channel=1 note=79 velocity=0 time=0
EXTRACT: note_on channel=1 note=75 velocity=89 time=0
EXTRACT: note_off channel=4 note=77 velocity=0 time=0
EXTRACT: note_off channel=6 note=79 velocity=0 time=0
EXTRACT: note_on channel=6 note=75 velocity=89 time=0
EXTRACT: note_off channel=8 note=72 velocity=0 time=0
EXTRACT: note_on channel=0 note=67 velocity=89 time=0
EXTRACT: note_off channel=1 note=75 velocity=0 time=0
EXTRACT: note_on channel=1 note=82 velocity=89 time=0
EXTRACT: note_off channel=6 note=75 velocity=0 time=0
EXTRACT: note_on channel=6 note=82 velocity=89 time=0
EXTRACT: note_on channel=8 note=67 velocity=89 time=0
EXTRACT: note_off channel=0 note=67 velocity=0 time=0
EXTRACT: note_on channel=0 note=75 velocity=89 time=0
EXTRACT: note_off channel=1 note=82 velocity=0 time=0
EXTRACT: note_on channel=1 note=70 velocity=89 time=0
EXTRACT: note_on channel=4 note=79 velocity=89 time=0
EXTRACT: note_off channel=6 note=82 velocity=0 time=0
EXTRACT: note_on channel=6 note=70 velocity=89 time=0
EXTRACT: note_off channel=8 note=67 velocity=0 time=0
EXTRACT: note_on channel=8 note=75 velocity=89 time=0
EXTRACT: note_off channel=0 note=75 velocity=0 time=0
EXTRACT: note_on channel=0 note=74 velocity=89 time=0
EXTRACT: note_off channel=1 note=70 velocity=0 time=0
EXTRACT: note_on channel=1 note=75 velocity=89 time=0
EXTRACT: note_off channel=4 note=79 velocity=0 time=0
EXTRACT: note_on channel=4 note=77 velocity=89 time=0
EXTRACT: note_off channel=6 note=70 velocity=0 time=0
EXTRACT: note_on channel=6 note=75 velocity=89 time=0
EXTRACT: note_off channel=8 note=75 velocity=0 time=0
EXTRACT: note_on channel=8 note=74 velocity=89 time=0
EXTRACT: note_off channel=1 note=75 velocity=0 time=0.24193550000000003
EXTRACT: note_on channel=1 note=82 velocity=89 time=0
EXTRACT: note_off channel=2 note=63 velocity=0 time=0
EXTRACT: note_on channel=2 note=51 velocity=89 time=0
EXTRACT: note_off channel=6 note=75 velocity=0 time=0
EXTRACT: note_on channel=6 note=82 velocity=89 time=0
EXTRACT: note_off channel=7 note=63 velocity=0 time=0
EXTRACT: note_on channel=7 note=51 velocity=89 time=0
EXTRACT: note_off channel=0 note=74 velocity=0 time=0
EXTRACT: note_on channel=0 note=72 velocity=89 time=0
EXTRACT: note_off channel=1 note=82 velocity=0 time=0
EXTRACT: note_on channel=1 note=70 velocity=89 time=0
EXTRACT: note_off channel=4 note=77 velocity=0 time=0
EXTRACT: note_on channel=4 note=75 velocity=89 time=0
EXTRACT: note_off channel=6 note=82 velocity=0 time=0
EXTRACT: note_on channel=6 note=70 velocity=89 time=0
EXTRACT: note_off channel=8 note=74 velocity=0 time=0
EXTRACT: note_on channel=8 note=72 velocity=89 time=0
EXTRACT: note_off channel=0 note=72 velocity=0 time=0
EXTRACT: note_on channel=0 note=72 velocity=89 time=0
EXTRACT: note_off channel=1 note=70 velocity=0 time=0
EXTRACT: note_on channel=1 note=79 velocity=89 time=0
EXTRACT: note_off channel=2 note=51 velocity=0 time=0
EXTRACT: note_on channel=2 note=48 velocity=89 time=0
EXTRACT: note_off channel=4 note=75 velocity=0 time=0
EXTRACT: note_on channel=4 note=75 velocity=89 time=0
EXTRACT: note_off channel=6 note=70 velocity=0 time=0
EXTRACT: note_on channel=6 note=79 velocity=89 time=0
EXTRACT: note_off channel=7 note=51 velocity=0 time=0
EXTRACT: note_on channel=7 note=48 velocity=89 time=0
EXTRACT: note_off channel=8 note=72 velocity=0 time=0
EXTRACT: note_on channel=8 note=72 velocity=89 time=0
EXTRACT: note_off channel=1 note=79 velocity=0 time=0.24193550000000003
EXTRACT: note_on channel=1 note=67 velocity=89 time=0
EXTRACT: note_off channel=6 note=79 velocity=0 time=0
EXTRACT: note_on channel=6 note=67 velocity=89 time=0
EXTRACT: note_off channel=1 note=67 velocity=0 time=0.24193550000000003
EXTRACT: note_on channel=1 note=72 velocity=89 time=0
EXTRACT: note_off channel=2 note=48 velocity=0 time=0
EXTRACT: note_on channel=2 note=60 velocity=89 time=0
EXTRACT: note_off channel=6 note=67 velocity=0 time=0
EXTRACT: note_on channel=6 note=72 velocity=89 time=0
EXTRACT: note_off channel=7 note=48 velocity=0 time=0
EXTRACT: note_on channel=7 note=60 velocity=89 time=0
EXTRACT: note_off channel=1 note=72 velocity=0 time=0.24193550000000003
EXTRACT: note_on channel=1 note=74 velocity=89 time=0
EXTRACT: note_on channel=1 note=79 velocity=89 time=0
EXTRACT: note_off channel=6 note=72 velocity=0 time=0
EXTRACT: note_on channel=6 note=74 velocity=89 time=0
EXTRACT: note_on channel=6 note=79 velocity=89 time=0
EXTRACT: note_off channel=1 note=79 velocity=0 time=0.24193550000000003
EXTRACT: note_off channel=1 note=74 velocity=0 time=0
EXTRACT: note_on channel=1 note=79 velocity=89 time=0
EXTRACT: note_on channel=1 note=75 velocity=89 time=0
EXTRACT: note_off channel=2 note=60 velocity=0 time=0
EXTRACT: note_on channel=2 note=60 velocity=89 time=0
EXTRACT: note_off channel=6 note=79 velocity=0 time=0
EXTRACT: note_off channel=6 note=74 velocity=0 time=0
EXTRACT: note_on channel=6 note=79 velocity=89 time=0
EXTRACT: note_on channel=6 note=75 velocity=89 time=0
EXTRACT: note_off channel=7 note=60 velocity=0 time=0
EXTRACT: note_on channel=7 note=60 velocity=89 time=0
EXTRACT: note_off channel=0 note=72 velocity=0 time=0
EXTRACT: note_on channel=0 note=70 velocity=89 time=0
EXTRACT: note_off channel=1 note=75 velocity=0 time=0
EXTRACT: note_off channel=1 note=79 velocity=0 time=0
EXTRACT: note_on channel=1 note=67 velocity=89 time=0
EXTRACT: note_off channel=4 note=75 velocity=0 time=0
EXTRACT: note_on channel=4 note=74 velocity=89 time=0
EXTRACT: note_off channel=6 note=75 velocity=0 time=0
EXTRACT: note_off channel=6 note=79 velocity=0 time=0
EXTRACT: note_on channel=6 note=67 velocity=89 time=0
EXTRACT: note_off channel=8 note=72 velocity=0 time=0
EXTRACT: note_on channel=8 note=70 velocity=89 time=0
EXTRACT: note_off channel=0 note=70 velocity=0 time=0
EXTRACT: note_on channel=0 note=67 velocity=89 time=0
EXTRACT: note_off channel=1 note=67 velocity=0 time=0
EXTRACT: note_on channel=1 note=79 velocity=89 time=0
EXTRACT: note_off channel=4 note=74 velocity=0 time=0
EXTRACT: note_on channel=4 note=72 velocity=89 time=0
EXTRACT: note_off channel=6 note=67 velocity=0 time=0
EXTRACT: note_on channel=6 note=79 velocity=89 time=0
EXTRACT: note_off channel=8 note=70 velocity=0 time=0
EXTRACT: note_on channel=8 note=67 velocity=89 time=0
EXTRACT: note_off channel=1 note=79 velocity=0 time=0
EXTRACT: note_on channel=1 note=67 velocity=89 time=0
EXTRACT: note_off channel=2 note=60 velocity=0 time=0
EXTRACT: note_on channel=2 note=60 velocity=89 time=0
EXTRACT: note_off channel=6 note=79 velocity=0 time=0
EXTRACT: note_on channel=6 note=67 velocity=89 time=0
EXTRACT: note_off channel=7 note=60 velocity=0 time=0
EXTRACT: note_on channel=7 note=60 velocity=89 time=0
EXTRACT: note_off channel=0 note=67 velocity=0 time=0.48387100000000005
EXTRACT: note_off channel=1 note=67 velocity=0 time=0
EXTRACT: note_on channel=1 note=67 velocity=89 time=0
EXTRACT: note_off channel=4 note=72 velocity=0 time=0
EXTRACT: note_off channel=6 note=67 velocity=0 time=0
EXTRACT: note_on channel=6 note=67 velocity=89 time=0
EXTRACT: note_off channel=8 note=67 velocity=0 time=0
EXTRACT: note_off channel=1 note=67 velocity=0 time=0.24193550000000003
EXTRACT: note_on channel=1 note=79 velocity=89 time=0
EXTRACT: note_on channel=1 note=74 velocity=89 time=0
EXTRACT: note_off channel=2 note=60 velocity=0 time=0
EXTRACT: note_on channel=2 note=48 velocity=89 time=0
EXTRACT: note_off channel=6 note=67 velocity=0 time=0
EXTRACT: note_on channel=6 note=79 velocity=89 time=0
EXTRACT: note_on channel=6 note=74 velocity=89 time=0
EXTRACT: note_off channel=7 note=60 velocity=0 time=0
EXTRACT: note_on channel=7 note=48 velocity=89 time=0
EXTRACT: note_on channel=0 note=67 velocity=89 time=0
EXTRACT: note_on channel=4 note=72 velocity=89 time=0
EXTRACT: note_on channel=8 note=67 velocity=89 time=0
EXTRACT: note_off channel=0 note=67 velocity=0 time=0
EXTRACT: note_on channel=0 note=67 velocity=89 time=0
EXTRACT: note_off channel=1 note=74 velocity=0 time=0
EXTRACT: note_off channel=1 note=79 velocity=0 time=0
EXTRACT: note_on channel=1 note=75 velocity=89 time=0
EXTRACT: note_off channel=2 note=48 velocity=0 time=0
EXTRACT: note_on channel=2 note=60 velocity=89 time=0
EXTRACT: note_off channel=4 note=72 velocity=0 time=0
EXTRACT: note_on channel=4 note=72 velocity=89 time=0
EXTRACT: note_off channel=6 note=74 velocity=0 time=0
EXTRACT: note_off channel=6 note=79 velocity=0 time=0
EXTRACT: note_on channel=6 note=75 velocity=89 time=0
EXTRACT: note_off channel=7 note=48 velocity=0 time=0
EXTRACT: note_on channel=7 note=60 velocity=89 time=0
EXTRACT: note_off channel=8 note=67 velocity=0 time=0
EXTRACT: note_on channel=8 note=67 velocity=89 time=0
EXTRACT: note_off channel=1 note=75 velocity=0 time=0
EXTRACT: note_on channel=1 note=67 velocity=89 time=0
EXTRACT: note_off channel=6 note=75 velocity=0 time=0
EXTRACT: note_on channel=6 note=67 velocity=89 time=0
EXTRACT: note_off channel=4 note=72 velocity=0 time=0.12096775000000001
EXTRACT: note_on channel=4 note=70 velocity=89 time=0
EXTRACT: note_off channel=1 note=67 velocity=0 time=0.12096775000000001
EXTRACT: note_on channel=1 note=79 velocity=89 time=0
EXTRACT: note_off channel=4 note=70 velocity=0 time=0
EXTRACT: note_on channel=4 note=67 velocity=89 time=0
EXTRACT: note_off channel=6 note=67 velocity=0 time=0
EXTRACT: note_on channel=6 note=79 velocity=89 time=0
EXTRACT: note_off channel=0 note=67 velocity=0 time=0
EXTRACT: note_on channel=0 note=65 velocity=89 time=0
EXTRACT: note_off channel=1 note=79 velocity=0 time=0
EXTRACT: note_on channel=1 note=77 velocity=89 time=0
EXTRACT: note_on channel=1 note=72 velocity=89 time=0
EXTRACT: note_off channel=2 note=60 velocity=0 time=0
EXTRACT: note_on channel=2 note=56 velocity=89 time=0
EXTRACT: note_off channel=4 note=67 velocity=0 time=0
EXTRACT: note_on channel=4 note=68 velocity=89 time=0
EXTRACT: note_off channel=6 note=79 velocity=0 time=0
EXTRACT: note_on channel=6 note=77 velocity=89 time=0
EXTRACT: note_on channel=6 note=72 velocity=89 time=0
EXTRACT: note_off channel=7 note=60 velocity=0 time=0
EXTRACT: note_on channel=7 note=56 velocity=89 time=0
EXTRACT: note_off channel=8 note=67 velocity=0 time=0
EXTRACT: note_on channel=8 note=65 velocity=89 time=0
EXTRACT: note_off channel=1 note=72 velocity=0 time=0.24193550000000003
EXTRACT: note_off channel=1 note=77 velocity=0 time=0
EXTRACT: note_on channel=1 note=68 velocity=89 time=0
EXTRACT: note_off channel=6 note=72 velocity=0 time=0
EXTRACT: note_off channel=6 note=77 velocity=0 time=0
EXTRACT: note_on channel=6 note=68 velocity=89 time=0
EXTRACT: note_off channel=0 note=65 velocity=0 time=0
EXTRACT: note_on channel=0 note=65 velocity=89 time=0
EXTRACT: note_off channel=1 note=68 velocity=0 time=0
EXTRACT: note_on channel=1 note=72 velocity=89 time=0
EXTRACT: note_off channel=4 note=68 velocity=0 time=0
EXTRACT: note_on channel=4 note=68 velocity=89 time=0
EXTRACT: note_off channel=6 note=68 velocity=0 time=0
EXTRACT: note_on channel=6 note=72 velocity=89 time=0
EXTRACT: note_off channel=8 note=65 velocity=0 time=0
EXTRACT: note_on channel=8 note=65 velocity=89 time=0
EXTRACT: note_off channel=1 note=72 velocity=0 time=0.24193550000000003
EXTRACT: note_on channel=1 note=68 velocity=89 time=0
EXTRACT: note_off channel=6 note=72 velocity=0 time=0
EXTRACT: note_on channel=6 note=68 velocity=89 time=0
EXTRACT: note_off channel=0 note=65 velocity=0 time=0
EXTRACT: note_on channel=0 note=65 velocity=89 time=0
EXTRACT: note_off channel=1 note=68 velocity=0 time=0
EXTRACT: note_on channel=1 note=77 velocity=89 time=0
EXTRACT: note_off channel=4 note=68 velocity=0 time=0
EXTRACT: note_on channel=4 note=68 velocity=89 time=0
EXTRACT: note_off channel=6 note=68 velocity=0 time=0
EXTRACT: note_on channel=6 note=77 velocity=89 time=0
EXTRACT: note_off channel=8 note=65 velocity=0 time=0
EXTRACT: note_on channel=8 note=65 velocity=89 time=0
EXTRACT: note_off channel=1 note=77 velocity=0 time=0.24193550000000003
EXTRACT: note_on channel=1 note=68 velocity=89 time=0
EXTRACT: note_off channel=6 note=77 velocity=0 time=0
EXTRACT: note_on channel=6 note=68 velocity=89 time=0
EXTRACT: note_off channel=0 note=65 velocity=0 time=0
EXTRACT: note_on channel=0 note=63 velocity=89 time=0
EXTRACT: note_off channel=1 note=68 velocity=0 time=0
EXTRACT: note_on channel=1 note=68 velocity=89 time=0
EXTRACT: note_off channel=4 note=68 velocity=0 time=0
EXTRACT: note_on channel=4 note=67 velocity=89 time=0
EXTRACT: note_off channel=6 note=68 velocity=0 time=0
EXTRACT: note_on channel=6 note=68 velocity=89 time=0
EXTRACT: note_off channel=8 note=65 velocity=0 time=0
EXTRACT: note_on channel=8 note=63 velocity=89 time=0
EXTRACT: note_off channel=0 note=63 velocity=0 time=0
EXTRACT: note_on channel=0 note=65 velocity=89 time=0
EXTRACT: note_off channel=1 note=68 velocity=0 time=0
EXTRACT: note_on channel=1 note=68 velocity=89 time=0
EXTRACT: note_off channel=4 note=67 velocity=0 time=0
EXTRACT: note_on channel=4 note=68 velocity=89 time=0
EXTRACT: note_off channel=6 note=68 velocity=0 time=0
EXTRACT: note_on channel=6 note=68 velocity=89 time=0
EXTRACT: note_off channel=8 note=63 velocity=0 time=0
EXTRACT: note_on channel=8 note=65 velocity=89 time=0
EXTRACT: note_off channel=0 note=65 velocity=0 time=0
EXTRACT: note_on channel=0 note=63 velocity=89 time=0
EXTRACT: note_off channel=1 note=68 velocity=0 time=0
EXTRACT: note_on channel=1 note=80 velocity=89 time=0
EXTRACT: note_off channel=2 note=56 velocity=0 time=0
EXTRACT: note_on channel=2 note=56 velocity=89 time=0
EXTRACT: note_off channel=4 note=68 velocity=0 time=0
EXTRACT: note_on channel=4 note=65 velocity=89 time=0
EXTRACT: note_off channel=6 note=68 velocity=0 time=0
EXTRACT: note_on channel=6 note=80 velocity=89 time=0
EXTRACT: note_off channel=7 note=56 velocity=0 time=0
EXTRACT: note_on channel=7 note=56 velocity=89 time=0
EXTRACT: note_off channel=8 note=65 velocity=0 time=0
EXTRACT: note_on channel=8 note=63 velocity=89 time=0
EXTRACT: note_off channel=0 note=63 velocity=0 time=0.24193550000000003
EXTRACT: note_off channel=1 note=80 velocity=0 time=0
EXTRACT: note_on channel=1 note=68 velocity=89 time=0
EXTRACT: note_off channel=4 note=65 velocity=0 time=0
EXTRACT: note_off channel=6 note=80 velocity=0 time=0
EXTRACT: note_on channel=6 note=68 velocity=89 time=0
EXTRACT: note_off channel=8 note=63 velocity=0 time=0
EXTRACT: note_off channel=1 note=68 velocity=0 time=0.24193550000000003
EXTRACT: note_on channel=1 note=72 velocity=89 time=0
EXTRACT: note_off channel=6 note=68 velocity=0 time=0
EXTRACT: note_on channel=6 note=72 velocity=89 time=0
EXTRACT: note_off channel=1 note=72 velocity=0 time=0.24193550000000003
EXTRACT: note_on channel=1 note=79 velocity=89 time=0
EXTRACT: note_off channel=6 note=72 velocity=0 time=0
EXTRACT: note_on channel=6 note=79 velocity=89 time=0
EXTRACT: note_on channel=0 note=67 velocity=89 time=0
EXTRACT: note_off channel=1 note=79 velocity=0 time=0
EXTRACT: note_on channel=1 note=68 velocity=89 time=0
EXTRACT: note_on channel=4 note=72 velocity=89 time=0
EXTRACT: note_off channel=6 note=79 velocity=0 time=0
EXTRACT: note_on channel=6 note=68 velocity=89 time=0
EXTRACT: note_on channel=8 note=67 velocity=89 time=0
EXTRACT: note_off channel=2 note=56 velocity=0 time=0
EXTRACT: note_on channel=2 note=56 velocity=89 time=0
EXTRACT: note_off channel=4 note=72 velocity=0 time=0
EXTRACT: note_on channel=4 note=72 velocity=89 time=0
EXTRACT: note_off channel=7 note=56 velocity=0 time=0
EXTRACT: note_on channel=7 note=56 velocity=89 time=0
EXTRACT: note_off channel=1 note=68 velocity=0 time=0.24193550000000003
EXTRACT: note_on channel=1 note=75 velocity=89 time=0
EXTRACT: note_off channel=6 note=68 velocity=0 time=0
EXTRACT: note_on channel=6 note=75 velocity=89 time=0
EXTRACT: note_off channel=0 note=67 velocity=0 time=0
EXTRACT: note_on channel=0 note=65 velocity=89 time=0
EXTRACT: note_off channel=1 note=75 velocity=0 time=0
EXTRACT: note_on channel=1 note=77 velocity=89 time=0
EXTRACT: note_off channel=6 note=75 velocity=0 time=0
EXTRACT: note_on channel=6 note=77 velocity=89 time=0
EXTRACT: note_off channel=8 note=67 velocity=0 time=0
EXTRACT: note_on channel=8 note=65 velocity=89 time=0
EXTRACT: note_off channel=0 note=65 velocity=0 time=0
EXTRACT: note_on channel=0 note=65 velocity=89 time=0
EXTRACT: note_off channel=1 note=77 velocity=0 time=0
EXTRACT: note_on channel=1 note=77 velocity=89 time=0
EXTRACT: note_on channel=1 note=72 velocity=89 time=0
EXTRACT: note_on channel=1 note=75 velocity=89 time=0
EXTRACT: note_off channel=2 note=56 velocity=0 time=0
EXTRACT: note_on channel=2 note=56 velocity=89 time=0
EXTRACT: note_off channel=4 note=72 velocity=0 time=0
EXTRACT: note_on channel=4 note=70 velocity=89 time=0
EXTRACT: note_off channel=6 note=77 velocity=0 time=0
EXTRACT: note_on channel=6 note=77 velocity=89 time=0
EXTRACT: note_on channel=6 note=72 velocity=89 time=0
EXTRACT: note_on channel=6 note=75 velocity=89 time=0
EXTRACT: note_off channel=7 note=56 velocity=0 time=0
EXTRACT: note_on channel=7 note=56 velocity=89 time=0
EXTRACT: note_off channel=8 note=65 velocity=0 time=0
EXTRACT: note_on channel=8 note=65 velocity=89 time=0
EXTRACT: note_off channel=0 note=65 velocity=0 time=0
EXTRACT: note_on channel=0 note=65 velocity=89 time=0
EXTRACT: note_off channel=4 note=70 velocity=0 time=0
EXTRACT: note_on channel=4 note=70 velocity=89 time=0
EXTRACT: note_off channel=8 note=65 velocity=0 time=0
EXTRACT: note_on channel=8 note=65 velocity=89 time=0
EXTRACT: note_off channel=1 note=75 velocity=0 time=0.24193550000000003
EXTRACT: note_off channel=1 note=72 velocity=0 time=0
EXTRACT: note_off channel=1 note=77 velocity=0 time=0
EXTRACT: note_on channel=1 note=77 velocity=89 time=0
EXTRACT: note_on channel=1 note=75 velocity=89 time=0
EXTRACT: note_on channel=1 note=72 velocity=89 time=0
EXTRACT: note_off channel=6 note=75 velocity=0 time=0
EXTRACT: note_off channel=6 note=72 velocity=0 time=0
EXTRACT: note_off channel=6 note=77 velocity=0 time=0
EXTRACT: note_on channel=6 note=77 velocity=89 time=0
EXTRACT: note_on channel=6 note=75 velocity=89 time=0
EXTRACT: note_on channel=6 note=72 velocity=89 time=0
EXTRACT: note_off channel=0 note=65 velocity=0 time=0
EXTRACT: note_on channel=0 note=65 velocity=89 time=0
EXTRACT: note_off channel=4 note=70 velocity=0 time=0
EXTRACT: note_on channel=4 note=70 velocity=89 time=0
EXTRACT: note_off channel=8 note=65 velocity=0 time=0
EXTRACT: note_on channel=8 note=65 velocity=89 time=0
EXTRACT: note_off channel=2 note=56 velocity=0 time=0.24193550000000003
EXTRACT: note_on channel=2 note=56 velocity=89 time=0
EXTRACT: note_off channel=7 note=56 velocity=0 time=0
EXTRACT: note_on channel=7 note=56 velocity=89 time=0
EXTRACT: note_off channel=0 note=65 velocity=0 time=0
EXTRACT: note_on channel=0 note=63 velocity=89 time=0
EXTRACT: note_off channel=1 note=72 velocity=0 time=0
EXTRACT: note_off channel=1 note=75 velocity=0 time=0
EXTRACT: note_off channel=1 note=77 velocity=0 time=0
EXTRACT: note_on channel=1 note=72 velocity=89 time=0
EXTRACT: note_off channel=4 note=70 velocity=0 time=0
EXTRACT: note_on channel=4 note=67 velocity=89 time=0
EXTRACT: note_off channel=6 note=72 velocity=0 time=0
EXTRACT: note_off channel=6 note=75 velocity=0 time=0
EXTRACT: note_off channel=6 note=77 velocity=0 time=0
EXTRACT: note_on channel=6 note=72 velocity=89 time=0
EXTRACT: note_off channel=8 note=65 velocity=0 time=0
EXTRACT: note_on channel=8 note=63 velocity=89 time=0
EXTRACT: note_off channel=0 note=63 velocity=0 time=0
EXTRACT: note_on channel=0 note=65 velocity=89 time=0
EXTRACT: note_off channel=1 note=72 velocity=0 time=0
EXTRACT: note_on channel=1 note=75 velocity=89 time=0
EXTRACT: note_off channel=4 note=67 velocity=0 time=0
EXTRACT: note_on channel=4 note=70 velocity=89 time=0
EXTRACT: note_off channel=6 note=72 velocity=0 time=0
EXTRACT: note_on channel=6 note=75 velocity=89 time=0
EXTRACT: note_off channel=8 note=63 velocity=0 time=0
EXTRACT: note_on channel=8 note=65 velocity=89 time=0
EXTRACT: note_off channel=0 note=65 velocity=0 time=0
EXTRACT: note_on channel=0 note=63 velocity=89 time=0
EXTRACT: note_off channel=1 note=75 velocity=0 time=0
EXTRACT: note_on channel=1 note=77 velocity=89 time=0
EXTRACT: note_on channel=1 note=74 velocity=89 time=0
EXTRACT: note_on channel=1 note=70 velocity=89 time=0
EXTRACT: note_off channel=4 note=70 velocity=0 time=0
EXTRACT: note_on channel=4 note=67 velocity=89 time=0
EXTRACT: note_off channel=6 note=75 velocity=0 time=0
EXTRACT: note_on channel=6 note=77 velocity=89 time=0
EXTRACT: note_on channel=6 note=74 velocity=89 time=0
EXTRACT: note_on channel=6 note=70 velocity=89 time=0
EXTRACT: note_off channel=8 note=65 velocity=0 time=0
EXTRACT: note_on channel=8 note=63 velocity=89 time=0
EXTRACT: note_off channel=0 note=63 velocity=0 time=0.24193550000000003
EXTRACT: note_off channel=4 note=67 velocity=0 time=0
EXTRACT: note_off channel=8 note=63 velocity=0 time=0
EXTRACT: note_on channel=0 note=67 velocity=89 time=0
EXTRACT: note_off channel=1 note=70 velocity=0 time=0
EXTRACT: note_off channel=1 note=74 velocity=0 time=0
EXTRACT: note_off channel=1 note=77 velocity=0 time=0
EXTRACT: note_on channel=1 note=70 velocity=89 time=0
EXTRACT: note_off channel=6 note=70 velocity=0 time=0
EXTRACT: note_off channel=6 note=74 velocity=0 time=0
EXTRACT: note_off channel=6 note=77 velocity=0 time=0
EXTRACT: note_on channel=6 note=70 velocity=89 time=0
EXTRACT: note_on channel=8 note=67 velocity=89 time=0
EXTRACT: note_off channel=0 note=67 velocity=0 time=0
EXTRACT: note_on channel=0 note=67 velocity=89 time=0
EXTRACT: note_off channel=1 note=70 velocity=0 time=0
EXTRACT: note_on channel=1 note=82 velocity=89 time=0
EXTRACT: note_off channel=6 note=70 velocity=0 time=0
EXTRACT: note_on channel=6 note=82 velocity=89 time=0
EXTRACT: note_off channel=8 note=67 velocity=0 time=0
EXTRACT: note_on channel=8 note=67 velocity=89 time=0
EXTRACT: note_off channel=0 note=67 velocity=0 time=0
EXTRACT: note_on channel=0 note=68 velocity=89 time=0
EXTRACT: note_off channel=1 note=82 velocity=0 time=0
EXTRACT: note_on channel=1 note=74 velocity=89 time=0
EXTRACT: note_off channel=6 note=82 velocity=0 time=0
EXTRACT: note_on channel=6 note=74 velocity=89 time=0
EXTRACT: note_off channel=8 note=67 velocity=0 time=0
EXTRACT: note_on channel=8 note=68 velocity=89 time=0
EXTRACT: note_off channel=0 note=68 velocity=0 time=0
EXTRACT: note_on channel=0 note=70 velocity=89 time=0
EXTRACT: note_off channel=8 note=68 velocity=0 time=0
EXTRACT: note_on channel=8 note=70 velocity=89 time=0
EXTRACT: note_off channel=0 note=70 velocity=0 time=0
EXTRACT: note_on channel=0 note=75 velocity=89 time=0
EXTRACT: note_off channel=8 note=70 velocity=0 time=0
EXTRACT: note_on channel=8 note=75 velocity=89 time=0
EXTRACT: note_off channel=1 note=74 velocity=0 time=0
EXTRACT: note_off channel=2 note=56 velocity=0 time=0
EXTRACT: note_on channel=2 note=48 velocity=89 time=0
EXTRACT: note_on channel=3 note=87 velocity=89 time=0
EXTRACT: note_off channel=6 note=74 velocity=0 time=0
EXTRACT: note_off channel=7 note=56 velocity=0 time=0
EXTRACT: note_on channel=7 note=48 velocity=89 time=0
EXTRACT: note_on channel=1 note=75 velocity=89 time=0.24193550000000003
EXTRACT: note_on channel=6 note=75 velocity=89 time=0
EXTRACT: note_on channel=5 note=60 velocity=89 time=0
EXTRACT: note_off channel=0 note=75 velocity=0 time=0
EXTRACT: note_on channel=0 note=74 velocity=89 time=0
EXTRACT: note_off channel=3 note=87 velocity=0 time=0
EXTRACT: note_on channel=3 note=86 velocity=89 time=0
EXTRACT: note_off channel=8 note=75 velocity=0 time=0
EXTRACT: note_on channel=8 note=74 velocity=89 time=0
EXTRACT: note_off channel=0 note=74 velocity=0 time=0
EXTRACT: note_on channel=0 note=75 velocity=89 time=0
EXTRACT: note_off channel=8 note=74 velocity=0 time=0
EXTRACT: note_on channel=8 note=75 velocity=89 time=0
EXTRACT: note_off channel=0 note=75 velocity=0 time=0
EXTRACT: note_on channel=0 note=74 velocity=89 time=0
EXTRACT: note_off channel=8 note=75 velocity=0 time=0
EXTRACT: note_on channel=8 note=74 velocity=89 time=0
EXTRACT: note_off channel=5 note=60 velocity=0 time=0.24193550000000003
EXTRACT: note_on channel=5 note=60 velocity=89 time=0
EXTRACT: note_off channel=0 note=74 velocity=0 time=0
EXTRACT: note_on channel=0 note=72 velocity=89 time=0
EXTRACT: note_off channel=3 note=86 velocity=0 time=0
EXTRACT: note_on channel=3 note=84 velocity=89 time=0
EXTRACT: note_off channel=8 note=74 velocity=0 time=0
EXTRACT: note_on channel=8 note=72 velocity=89 time=0
EXTRACT: note_off channel=1 note=75 velocity=0 time=0
EXTRACT: note_off channel=2 note=48 velocity=0 time=0
EXTRACT: note_on channel=2 note=56 velocity=89 time=0
EXTRACT: note_off channel=5 note=60 velocity=0 time=0
EXTRACT: note_off channel=6 note=75 velocity=0 time=0
EXTRACT: note_off channel=7 note=48 velocity=0 time=0
EXTRACT: note_on channel=7 note=56 velocity=89 time=0
EXTRACT: note_on channel=1 note=75 velocity=89 time=0.24193550000000003
EXTRACT: note_on channel=6 note=75 velocity=89 time=0
EXTRACT: note_off channel=1 note=75 velocity=0 time=0.24193550000000003
EXTRACT: note_on channel=1 note=72 velocity=89 time=0
EXTRACT: note_off channel=6 note=75 velocity=0 time=0
EXTRACT: note_on channel=6 note=72 velocity=89 time=0
EXTRACT: note_off channel=0 note=72 velocity=0 time=0
EXTRACT: note_on channel=0 note=70 velocity=89 time=0
EXTRACT: note_off channel=3 note=84 velocity=0 time=0
EXTRACT: note_on channel=3 note=82 velocity=89 time=0
EXTRACT: note_off channel=8 note=72 velocity=0 time=0
EXTRACT: note_on channel=8 note=70 velocity=89 time=0
EXTRACT: note_off channel=0 note=70 velocity=0 time=0.24193550000000003
EXTRACT: note_off channel=8 note=70 velocity=0 time=0
EXTRACT: note_on channel=5 note=68 velocity=89 time=0.24193550000000003
EXTRACT: note_on channel=0 note=67 velocity=89 time=0
EXTRACT: note_off channel=5 note=68 velocity=0 time=0
EXTRACT: note_on channel=5 note=70 velocity=89 time=0
EXTRACT: note_on channel=8 note=67 velocity=89 time=0
EXTRACT: note_off channel=0 note=67 velocity=0 time=0
EXTRACT: note_on channel=0 note=67 velocity=89 time=0
EXTRACT: note_off channel=3 note=82 velocity=0 time=0
EXTRACT: note_on channel=3 note=82 velocity=89 time=0
EXTRACT: note_off channel=8 note=67 velocity=0 time=0
EXTRACT: note_on channel=8 note=67 velocity=89 time=0
EXTRACT: note_off channel=1 note=72 velocity=0 time=0
EXTRACT: note_on channel=1 note=79 velocity=89 time=0
EXTRACT: note_on channel=1 note=75 velocity=89 time=0
EXTRACT: note_off channel=2 note=56 velocity=0 time=0
EXTRACT: note_on channel=2 note=51 velocity=89 time=0
EXTRACT: note_off channel=5 note=70 velocity=0 time=0
EXTRACT: note_off channel=6 note=72 velocity=0 time=0
EXTRACT: note_on channel=6 note=79 velocity=89 time=0
EXTRACT: note_on channel=6 note=75 velocity=89 time=0
EXTRACT: note_off channel=7 note=56 velocity=0 time=0
EXTRACT: note_on channel=7 note=51 velocity=89 time=0
EXTRACT: note_off channel=1 note=75 velocity=0 time=0.7258065
EXTRACT: note_off channel=1 note=79 velocity=0 time=0
EXTRACT: note_on channel=1 note=77 velocity=89 time=0
EXTRACT: note_on channel=1 note=82 velocity=89 time=0
EXTRACT: note_off channel=3 note=82 velocity=0 time=0
EXTRACT: note_off channel=6 note=75 velocity=0 time=0
EXTRACT: note_off channel=6 note=79 velocity=0 time=0
EXTRACT: note_on channel=6 note=77 velocity=89 time=0
EXTRACT: note_on channel=6 note=82 velocity=89 time=0
EXTRACT: note_off channel=0 note=67 velocity=0 time=0.24193550000000003
EXTRACT: note_off channel=8 note=67 velocity=0 time=0
EXTRACT: note_off channel=1 note=82 velocity=0 time=0.24193550000000003
EXTRACT: note_off channel=1 note=77 velocity=0 time=0
EXTRACT: note_on channel=1 note=75 velocity=89 time=0
EXTRACT: note_off channel=2 note=51 velocity=0 time=0
EXTRACT: note_on channel=2 note=63 velocity=89 time=0
EXTRACT: note_off channel=6 note=82 velocity=0 time=0
EXTRACT: note_off channel=6 note=77 velocity=0 time=0
EXTRACT: note_on channel=6 note=75 velocity=89 time=0
EXTRACT: note_off channel=7 note=51 velocity=0 time=0
EXTRACT: note_on channel=7 note=63 velocity=89 time=0
EXTRACT: note_off channel=1 note=75 velocity=0 time=0.24193550000000003
EXTRACT: note_on channel=1 note=82 velocity=89 time=0
EXTRACT: note_off channel=6 note=75 velocity=0 time=0
EXTRACT: note_on channel=6 note=82 velocity=89 time=0
EXTRACT: note_on channel=0 note=67 velocity=89 time=0
EXTRACT: note_off channel=1 note=82 velocity=0 time=0
EXTRACT: note_on channel=1 note=77 velocity=89 time=0
EXTRACT: note_on channel=1 note=74 velocity=89 time=0
EXTRACT: note_on channel=1 note=72 velocity=89 time=0
EXTRACT: note_off channel=2 note=63 velocity=0 time=0
EXTRACT: note_on channel=2 note=58 velocity=89 time=0
EXTRACT: note_off channel=6 note=82 velocity=0 time=0
EXTRACT: note_on channel=6 note=77 velocity=89 time=0
EXTRACT: note_on channel=6 note=74 velocity=89 time=0
EXTRACT: note_on channel=6 note=72 velocity=89 time=0
EXTRACT: note_off channel=7 note=63 velocity=0 time=0
EXTRACT: note_on channel=7 note=58 velocity=89 time=0
EXTRACT: note_on channel=8 note=67 velocity=89 time=0
EXTRACT: note_off channel=0 note=67 velocity=0 time=0.24193550000000003
EXTRACT: note_off channel=8 note=67 velocity=0 time=0
EXTRACT: note_on channel=0 note=67 velocity=89 time=0
EXTRACT: note_off channel=1 note=72 velocity=0 time=0
EXTRACT: note_off channel=1 note=74 velocity=0 time=0
EXTRACT: note_off channel=1 note=77 velocity=0 time=0
EXTRACT: note_on channel=1 note=70 velocity=89 time=0
EXTRACT: note_off channel=6 note=72 velocity=0 time=0
EXTRACT: note_off channel=6 note=74 velocity=0 time=0
EXTRACT: note_off channel=6 note=77 velocity=0 time=0
EXTRACT: note_on channel=6 note=70 velocity=89 time=0
EXTRACT: note_on channel=8 note=67 velocity=89 time=0
EXTRACT: note_off channel=0 note=67 velocity=0 time=0
EXTRACT: note_on channel=0 note=67 velocity=89 time=0
EXTRACT: note_off channel=1 note=70 velocity=0 time=0
EXTRACT: note_on channel=1 note=82 velocity=89 time=0
EXTRACT: note_off channel=6 note=70 velocity=0 time=0
EXTRACT: note_on channel=6 note=82 velocity=89 time=0
EXTRACT: note_off channel=8 note=67 velocity=0 time=0
EXTRACT: note_on channel=8 note=67 velocity=89 time=0
EXTRACT: note_off channel=0 note=67 velocity=0 time=0
EXTRACT: note_on channel=0 note=68 velocity=89 time=0
EXTRACT: note_off channel=8 note=67 velocity=0 time=0
EXTRACT: note_on channel=8 note=68 velocity=89 time=0
EXTRACT: note_off channel=0 note=68 velocity=0 time=0
EXTRACT: note_on channel=0 note=70 velocity=89 time=0
EXTRACT: note_off channel=8 note=68 velocity=0 time=0
EXTRACT: note_on channel=8 note=70 velocity=89 time=0
EXTRACT: note_off channel=0 note=70 velocity=0 time=0
EXTRACT: note_on channel=0 note=75 velocity=89 time=0
EXTRACT: note_off channel=8 note=70 velocity=0 time=0
EXTRACT: note_on channel=8 note=75 velocity=89 time=0
EXTRACT: note_off channel=1 note=82 velocity=0 time=0
EXTRACT: note_on channel=1 note=79 velocity=89 time=0
EXTRACT: note_off channel=2 note=58 velocity=0 time=0
EXTRACT: note_on channel=2 note=48 velocity=89 time=0
EXTRACT: note_on channel=3 note=87 velocity=89 time=0
EXTRACT: note_off channel=6 note=82 velocity=0 time=0
EXTRACT: note_on channel=6 note=79 velocity=89 time=0
EXTRACT: note_off channel=7 note=58 velocity=0 time=0
EXTRACT: note_on channel=7 note=48 velocity=89 time=0
EXTRACT: note_off channel=0 note=75 velocity=0 time=0
EXTRACT: note_on channel=0 note=74 velocity=89 time=0
EXTRACT: note_off channel=3 note=87 velocity=0 time=0
EXTRACT: note_on channel=3 note=86 velocity=89 time=0
EXTRACT: note_off channel=8 note=75 velocity=0 time=0
EXTRACT: note_on channel=8 note=74 velocity=89 time=0
EXTRACT: note_off channel=0 note=74 velocity=0 time=0
EXTRACT: note_on channel=0 note=75 velocity=89 time=0
EXTRACT: note_off channel=8 note=74 velocity=0 time=0
EXTRACT: note_on channel=8 note=75 velocity=89 time=0
EXTRACT: note_off channel=0 note=75 velocity=0 time=0
EXTRACT: note_on channel=0 note=74 velocity=89 time=0
EXTRACT: note_off channel=8 note=75 velocity=0 time=0
EXTRACT: note_on channel=8 note=74 velocity=89 time=0
EXTRACT: note_off channel=0 note=74 velocity=0 time=0
EXTRACT: note_on channel=0 note=72 velocity=89 time=0
EXTRACT: note_off channel=1 note=79 velocity=0 time=0
EXTRACT: note_on channel=1 note=80 velocity=89 time=0
EXTRACT: note_off channel=3 note=86 velocity=0 time=0
EXTRACT: note_on channel=3 note=84 velocity=89 time=0
EXTRACT: note_off channel=6 note=79 velocity=0 time=0
EXTRACT: note_on channel=6 note=80 velocity=89 time=0
EXTRACT: note_off channel=8 note=74 velocity=0 time=0
EXTRACT: note_on channel=8 note=72 velocity=89 time=0
EXTRACT: note_off channel=1 note=80 velocity=0 time=0
EXTRACT: note_on channel=1 note=80 velocity=89 time=0
EXTRACT: note_off channel=2 note=48 velocity=0 time=0
EXTRACT: note_on channel=2 note=44 velocity=89 time=0
EXTRACT: note_off channel=6 note=80 velocity=0 time=0
EXTRACT: note_on channel=6 note=80 velocity=89 time=0
EXTRACT: note_off channel=7 note=48 velocity=0 time=0
EXTRACT: note_on channel=7 note=44 velocity=89 time=0
EXTRACT: note_off channel=1 note=80 velocity=0 time=0.24193550000000003
EXTRACT: note_on channel=1 note=75 velocity=89 time=0
EXTRACT: note_off channel=6 note=80 velocity=0 time=0
EXTRACT: note_on channel=6 note=75 velocity=89 time=0
EXTRACT: note_off channel=1 note=75 velocity=0 time=0.24193550000000003
EXTRACT: note_on channel=1 note=72 velocity=89 time=0
EXTRACT: note_off channel=6 note=75 velocity=0 time=0
EXTRACT: note_on channel=6 note=72 velocity=89 time=0
EXTRACT: note_off channel=0 note=72 velocity=0 time=0
EXTRACT: note_on channel=0 note=70 velocity=89 time=0
EXTRACT: note_off channel=3 note=84 velocity=0 time=0
EXTRACT: note_on channel=3 note=82 velocity=89 time=0
EXTRACT: note_off channel=8 note=72 velocity=0 time=0
EXTRACT: note_on channel=8 note=70 velocity=89 time=0
EXTRACT: note_off channel=0 note=70 velocity=0 time=0.24193550000000003
EXTRACT: note_off channel=8 note=70 velocity=0 time=0
EXTRACT: note_on channel=0 note=67 velocity=89 time=0
EXTRACT: note_off channel=3 note=82 velocity=0 time=0
EXTRACT: note_on channel=3 note=80 velocity=89 time=0
EXTRACT: note_on channel=8 note=67 velocity=89 time=0
EXTRACT: note_off channel=0 note=67 velocity=0 time=0
EXTRACT: note_on channel=0 note=67 velocity=89 time=0
EXTRACT: note_off channel=3 note=80 velocity=0 time=0
EXTRACT: note_on channel=3 note=82 velocity=89 time=0
EXTRACT: note_off channel=8 note=67 velocity=0 time=0
EXTRACT: note_on channel=8 note=67 velocity=89 time=0
EXTRACT: note_off channel=1 note=72 velocity=0 time=0
EXTRACT: note_on channel=1 note=79 velocity=89 time=0
EXTRACT: note_on channel=1 note=77 velocity=89 time=0
EXTRACT: note_off channel=2 note=44 velocity=0 time=0
EXTRACT: note_on channel=2 note=51 velocity=89 time=0
EXTRACT: note_off channel=3 note=82 velocity=0 time=0
EXTRACT: note_off channel=6 note=72 velocity=0 time=0
EXTRACT: note_on channel=6 note=79 velocity=89 time=0
EXTRACT: note_on channel=6 note=77 velocity=89 time=0
EXTRACT: note_off channel=7 note=44 velocity=0 time=0
EXTRACT: note_on channel=7 note=51 velocity=89 time=0
EXTRACT: note_off channel=1 note=77 velocity=0 time=0.7258065
EXTRACT: note_off channel=1 note=79 velocity=0 time=0
EXTRACT: note_on channel=1 note=77 velocity=89 time=0
EXTRACT: note_on channel=1 note=82 velocity=89 time=0
EXTRACT: note_off channel=6 note=77 velocity=0 time=0
EXTRACT: note_off channel=6 note=79 velocity=0 time=0
EXTRACT: note_on channel=6 note=77 velocity=89 time=0
EXTRACT: note_on channel=6 note=82 velocity=89 time=0
EXTRACT: note_off channel=0 note=67 velocity=0 time=0.24193550000000003
EXTRACT: note_off channel=8 note=67 velocity=0 time=0
EXTRACT: note_off channel=2 note=51 velocity=0 time=0.24193550000000003
EXTRACT: note_on channel=2 note=63 velocity=89 time=0
EXTRACT: note_off channel=7 note=51 velocity=0 time=0
EXTRACT: note_on channel=7 note=63 velocity=89 time=0
EXTRACT: note_on channel=0 note=67 velocity=89 time=0
EXTRACT: note_off channel=1 note=82 velocity=0 time=0
EXTRACT: note_off channel=1 note=77 velocity=0 time=0
EXTRACT: note_on channel=1 note=75 velocity=89 time=0
EXTRACT: note_off channel=6 note=82 velocity=0 time=0
EXTRACT: note_off channel=6 note=77 velocity=0 time=0
EXTRACT: note_on channel=6 note=75 velocity=89 time=0
EXTRACT: note_on channel=8 note=67 velocity=89 time=0
EXTRACT: note_off channel=0 note=67 velocity=0 time=0
EXTRACT: note_on channel=0 note=65 velocity=89 time=0
EXTRACT: note_off channel=1 note=75 velocity=0 time=0
EXTRACT: note_on channel=1 note=82 velocity=89 time=0
EXTRACT: note_off channel=6 note=75 velocity=0 time=0
EXTRACT: note_on channel=6 note=82 velocity=89 time=0
EXTRACT: note_off channel=8 note=67 velocity=0 time=0
EXTRACT: note_on channel=8 note=65 velocity=89 time=0
EXTRACT: note_off channel=1 note=82 velocity=0 time=0
EXTRACT: note_on channel=1 note=72 velocity=89 time=0
EXTRACT: note_on channel=1 note=74 velocity=89 time=0
EXTRACT: note_on channel=1 note=77 velocity=89 time=0
EXTRACT: note_off channel=2 note=63 velocity=0 time=0
EXTRACT: note_on channel=2 note=58 velocity=89 time=0
EXTRACT: note_off channel=6 note=82 velocity=0 time=0
EXTRACT: note_on channel=6 note=72 velocity=89 time=0
EXTRACT: note_on channel=6 note=74 velocity=89 time=0
EXTRACT: note_on channel=6 note=77 velocity=89 time=0
EXTRACT: note_off channel=7 note=63 velocity=0 time=0
EXTRACT: note_on channel=7 note=58 velocity=89 time=0
EXTRACT: note_off channel=0 note=65 velocity=0 time=0
EXTRACT: note_on channel=0 note=68 velocity=89 time=0
EXTRACT: note_off channel=8 note=65 velocity=0 time=0
EXTRACT: note_on channel=8 note=68 velocity=89 time=0
EXTRACT: note_off channel=0 note=68 velocity=0 time=0
EXTRACT: note_on channel=0 note=70 velocity=89 time=0
EXTRACT: note_off channel=8 note=68 velocity=0 time=0
EXTRACT: note_on channel=8 note=70 velocity=89 time=0
EXTRACT: note_off channel=0 note=70 velocity=0 time=0
EXTRACT: note_on channel=0 note=75 velocity=89 time=0
EXTRACT: note_off channel=1 note=77 velocity=0 time=0
EXTRACT: note_off channel=1 note=74 velocity=0 time=0
EXTRACT: note_off channel=1 note=72 velocity=0 time=0
EXTRACT: note_on channel=1 note=70 velocity=89 time=0
EXTRACT: note_off channel=6 note=77 velocity=0 time=0
EXTRACT: note_off channel=6 note=74 velocity=0 time=0
EXTRACT: note_off channel=6 note=72 velocity=0 time=0
EXTRACT: note_on channel=6 note=70 velocity=89 time=0
EXTRACT: note_off channel=8 note=70 velocity=0 time=0
EXTRACT: note_on channel=8 note=75 velocity=89 time=0
EXTRACT: note_off channel=1 note=70 velocity=0 time=0
EXTRACT: note_on channel=1 note=77 velocity=89 time=0
EXTRACT: note_on channel=1 note=82 velocity=89 time=0
EXTRACT: note_off channel=6 note=70 velocity=0 time=0
EXTRACT: note_on channel=6 note=77 velocity=89 time=0
EXTRACT: note_on channel=6 note=82 velocity=89 time=0
EXTRACT: note_off channel=0 note=75 velocity=0 time=0
EXTRACT: note_on channel=0 note=74 velocity=89 time=0
EXTRACT: note_off channel=1 note=82 velocity=0 time=0
EXTRACT: note_off channel=1 note=77 velocity=0 time=0
EXTRACT: note_on channel=1 note=74 velocity=89 time=0
EXTRACT: note_off channel=6 note=82 velocity=0 time=0
EXTRACT: note_off channel=6 note=77 velocity=0 time=0
EXTRACT: note_on channel=6 note=74 velocity=89 time=0
EXTRACT: note_off channel=8 note=75 velocity=0 time=0
EXTRACT: note_on channel=8 note=74 velocity=89 time=0
EXTRACT: note_off channel=0 note=74 velocity=0 time=0
EXTRACT: note_on channel=0 note=72 velocity=89 time=0
EXTRACT: note_off channel=1 note=74 velocity=0 time=0
EXTRACT: note_on channel=1 note=72 velocity=89 time=0
EXTRACT: note_off channel=6 note=74 velocity=0 time=0
EXTRACT: note_on channel=6 note=72 velocity=89 time=0
EXTRACT: note_off channel=8 note=74 velocity=0 time=0
EXTRACT: note_on channel=8 note=72 velocity=89 time=0
EXTRACT: note_off channel=1 note=72 velocity=0 time=0.24193550000000003
EXTRACT: note_on channel=1 note=82 velocity=89 time=0
EXTRACT: note_off channel=6 note=72 velocity=0 time=0
EXTRACT: note_on channel=6 note=82 velocity=89 time=0
EXTRACT: note_off channel=1 note=82 velocity=0 time=0
EXTRACT: note_on channel=1 note=80 velocity=89 time=0
EXTRACT: note_on channel=1 note=77 velocity=89 time=0
EXTRACT: note_on channel=1 note=72 velocity=89 time=0
EXTRACT: note_off channel=2 note=58 velocity=0 time=0
EXTRACT: note_on channel=2 note=53 velocity=89 time=0
EXTRACT: note_off channel=6 note=82 velocity=0 time=0
EXTRACT: note_on channel=6 note=80 velocity=89 time=0
EXTRACT: note_on channel=6 note=77 velocity=89 time=0
EXTRACT: note_on channel=6 note=72 velocity=89 time=0
EXTRACT: note_off channel=7 note=58 velocity=0 time=0
EXTRACT: note_on channel=7 note=53 velocity=89 time=0
EXTRACT: note_off channel=0 note=72 velocity=0 time=0
EXTRACT: note_on channel=0 note=70 velocity=89 time=0
EXTRACT: note_off channel=1 note=72 velocity=0 time=0
EXTRACT: note_off channel=1 note=77 velocity=0 time=0
EXTRACT: note_off channel=1 note=80 velocity=0 time=0
EXTRACT: note_on channel=1 note=72 velocity=89 time=0
EXTRACT: note_on channel=1 note=67 velocity=89 time=0
EXTRACT: note_off channel=6 note=72 velocity=0 time=0
EXTRACT: note_off channel=6 note=77 velocity=0 time=0
EXTRACT: note_off channel=6 note=80 velocity=0 time=0
EXTRACT: note_on channel=6 note=72 velocity=89 time=0
EXTRACT: note_on channel=6 note=67 velocity=89 time=0
EXTRACT: note_off channel=8 note=72 velocity=0 time=0
EXTRACT: note_on channel=8 note=70 velocity=89 time=0
EXTRACT: note_off channel=0 note=70 velocity=0 time=0
EXTRACT: note_on channel=0 note=68 velocity=89 time=0
EXTRACT: note_off channel=8 note=70 velocity=0 time=0
EXTRACT: note_on channel=8 note=68 velocity=89 time=0
EXTRACT: note_off channel=0 note=68 velocity=0 time=0
EXTRACT: note_on channel=0 note=67 velocity=89 time=0
EXTRACT: note_off channel=8 note=68 velocity=0 time=0
EXTRACT: note_on channel=8 note=67 velocity=89 time=0
EXTRACT: note_off channel=0 note=67 velocity=0 time=0
EXTRACT: note_on channel=0 note=65 velocity=89 time=0
EXTRACT: note_off channel=8 note=67 velocity=0 time=0
EXTRACT: note_on channel=8 note=65 velocity=89 time=0
EXTRACT: note_off channel=0 note=65 velocity=0 time=0
EXTRACT: note_on channel=0 note=63 velocity=89 time=0
EXTRACT: note_off channel=1 note=72 velocity=0 time=0
EXTRACT: note_off channel=1 note=67 velocity=0 time=0
EXTRACT: note_on channel=1 note=72 velocity=89 time=0
EXTRACT: note_on channel=1 note=68 velocity=89 time=0
EXTRACT: note_off channel=6 note=72 velocity=0 time=0
EXTRACT: note_off channel=6 note=67 velocity=0 time=0
EXTRACT: note_on channel=6 note=72 velocity=89 time=0
EXTRACT: note_on channel=6 note=68 velocity=89 time=0
EXTRACT: note_off channel=8 note=65 velocity=0 time=0
EXTRACT: note_on channel=8 note=63 velocity=89 time=0
EXTRACT: note_off channel=1 note=68 velocity=0 time=0.24193550000000003
EXTRACT: note_off channel=1 note=72 velocity=0 time=0
EXTRACT: note_on channel=1 note=72 velocity=89 time=0
EXTRACT: note_on channel=1 note=67 velocity=89 time=0
EXTRACT: note_off channel=6 note=68 velocity=0 time=0
EXTRACT: note_off channel=6 note=72 velocity=0 time=0
EXTRACT: note_on channel=6 note=72 velocity=89 time=0
EXTRACT: note_on channel=6 note=67 velocity=89 time=0
EXTRACT: note_off channel=0 note=63 velocity=0 time=0
EXTRACT: note_on channel=0 note=72 velocity=89 time=0
EXTRACT: note_off channel=1 note=67 velocity=0 time=0
EXTRACT: note_off channel=1 note=72 velocity=0 time=0
EXTRACT: note_on channel=1 note=77 velocity=89 time=0
EXTRACT: note_off channel=6 note=67 velocity=0 time=0
EXTRACT: note_off channel=6 note=72 velocity=0 time=0
EXTRACT: note_on channel=6 note=77 velocity=89 time=0
EXTRACT: note_off channel=8 note=63 velocity=0 time=0
EXTRACT: note_on channel=8 note=72 velocity=89 time=0
EXTRACT: note_off channel=1 note=77 velocity=0 time=0.24193550000000003
EXTRACT: note_on channel=1 note=67 velocity=89 time=0
EXTRACT: note_off channel=6 note=77 velocity=0 time=0
EXTRACT: note_on channel=6 note=67 velocity=89 time=0
EXTRACT: note_off channel=0 note=72 velocity=0 time=0
EXTRACT: note_on channel=0 note=70 velocity=89 time=0
EXTRACT: note_off channel=1 note=67 velocity=0 time=0
EXTRACT: note_on channel=1 note=79 velocity=89 time=0
EXTRACT: note_off channel=6 note=67 velocity=0 time=0
EXTRACT: note_on channel=6 note=79 velocity=89 time=0
EXTRACT: note_off channel=8 note=72 velocity=0 time=0
EXTRACT: note_on channel=8 note=70 velocity=89 time=0
EXTRACT: note_off channel=0 note=70 velocity=0 time=0
EXTRACT: note_on channel=0 note=68 velocity=89 time=0
EXTRACT: note_off channel=8 note=70 velocity=0 time=0
EXTRACT: note_on channel=8 note=68 velocity=89 time=0
EXTRACT: note_off channel=0 note=68 velocity=0 time=0
EXTRACT: note_on channel=0 note=68 velocity=89 time=0
EXTRACT: note_off channel=1 note=79 velocity=0 time=0
EXTRACT: note_on channel=1 note=80 velocity=89 time=0
EXTRACT: note_on channel=1 note=68 velocity=89 time=0
EXTRACT: note_off channel=6 note=79 velocity=0 time=0
EXTRACT: note_on channel=6 note=80 velocity=89 time=0
EXTRACT: note_on channel=6 note=68 velocity=89 time=0
EXTRACT: note_off channel=8 note=68 velocity=0 time=0
EXTRACT: note_on channel=8 note=68 velocity=89 time=0
EXTRACT: note_off channel=0 note=68 velocity=0 time=0
EXTRACT: note_on channel=0 note=73 velocity=89 time=0
EXTRACT: note_off channel=1 note=68 velocity=0 time=0
EXTRACT: note_off channel=1 note=80 velocity=0 time=0
EXTRACT: note_on channel=1 note=79 velocity=89 time=0
EXTRACT: note_off channel=6 note=68 velocity=0 time=0
EXTRACT: note_off channel=6 note=80 velocity=0 time=0
EXTRACT: note_on channel=6 note=79 velocity=89 time=0
EXTRACT: note_off channel=8 note=68 velocity=0 time=0
EXTRACT: note_on channel=8 note=73 velocity=89 time=0
EXTRACT: note_off channel=0 note=73 velocity=0 time=0
EXTRACT: note_on channel=0 note=75 velocity=89 time=0
EXTRACT: note_off channel=1 note=79 velocity=0 time=0
EXTRACT: note_on channel=1 note=79 velocity=89 time=0
EXTRACT: note_on channel=1 note=75 velocity=89 time=0
EXTRACT: note_on channel=1 note=70 velocity=89 time=0
EXTRACT: note_off channel=2 note=53 velocity=0 time=0
EXTRACT: note_on channel=2 note=51 velocity=89 time=0
EXTRACT: note_off channel=6 note=79 velocity=0 time=0
EXTRACT: note_on channel=6 note=79 velocity=89 time=0
EXTRACT: note_on channel=6 note=75 velocity=89 time=0
EXTRACT: note_on channel=6 note=70 velocity=89 time=0
EXTRACT: note_off channel=7 note=53 velocity=0 time=0
EXTRACT: note_on channel=7 note=51 velocity=89 time=0
EXTRACT: note_off channel=8 note=73 velocity=0 time=0
EXTRACT: note_on channel=8 note=75 velocity=89 time=0
EXTRACT: note_off channel=0 note=75 velocity=0 time=0
EXTRACT: note_on channel=0 note=74 velocity=89 time=0
EXTRACT: note_off channel=1 note=70 velocity=0 time=0
EXTRACT: note_off channel=1 note=75 velocity=0 time=0
EXTRACT: note_off channel=1 note=79 velocity=0 time=0
EXTRACT: note_on channel=1 note=77 velocity=89 time=0
EXTRACT: note_on channel=1 note=70 velocity=89 time=0
EXTRACT: note_off channel=2 note=51 velocity=0 time=0
EXTRACT: note_on channel=2 note=58 velocity=89 time=0
EXTRACT: note_off channel=6 note=70 velocity=0 time=0
EXTRACT: note_off channel=6 note=75 velocity=0 time=0
EXTRACT: note_off channel=6 note=79 velocity=0 time=0
EXTRACT: note_on channel=6 note=77 velocity=89 time=0
EXTRACT: note_on channel=6 note=70 velocity=89 time=0
EXTRACT: note_off channel=7 note=51 velocity=0 time=0
EXTRACT: note_on channel=7 note=58 velocity=89 time=0
EXTRACT: note_off channel=8 note=75 velocity=0 time=0
EXTRACT: note_on channel=8 note=74 velocity=89 time=0
EXTRACT: note_off channel=0 note=74 velocity=0 time=0
EXTRACT: note_on channel=0 note=72 velocity=89 time=0
EXTRACT: note_off channel=8 note=74 velocity=0 time=0
EXTRACT: note_on channel=8 note=72 velocity=89 time=0
EXTRACT: note_off channel=0 note=72 velocity=0 time=0
EXTRACT: note_on channel=0 note=72 velocity=89 time=0
EXTRACT: note_off channel=2 note=58 velocity=0 time=0
EXTRACT: note_on channel=2 note=63 velocity=89 time=0
EXTRACT: note_off channel=7 note=58 velocity=0 time=0
EXTRACT: note_on channel=7 note=63 velocity=89 time=0
EXTRACT: note_off channel=8 note=72 velocity=0 time=0
EXTRACT: note_on channel=8 note=72 velocity=89 time=0
EXTRACT: note_off channel=0 note=72 velocity=0 time=0
EXTRACT: note_on channel=0 note=70 velocity=89 time=0
EXTRACT: note_off channel=1 note=70 velocity=0 time=0
EXTRACT: note_off channel=1 note=77 velocity=0 time=0
EXTRACT: note_on channel=1 note=75 velocity=89 time=0
EXTRACT: note_off channel=2 note=63 velocity=0 time=0
EXTRACT: note_on channel=2 note=63 velocity=89 time=0
EXTRACT: note_off channel=6 note=70 velocity=0 time=0
EXTRACT: note_off channel=6 note=77 velocity=0 time=0
EXTRACT: note_on channel=6 note=75 velocity=89 time=0
EXTRACT: note_off channel=7 note=63 velocity=0 time=0
EXTRACT: note_on channel=7 note=63 velocity=89 time=0
EXTRACT: note_off channel=8 note=72 velocity=0 time=0
EXTRACT: note_on channel=8 note=70 velocity=89 time=0
EXTRACT: note_off channel=0 note=70 velocity=0 time=0
EXTRACT: note_on channel=0 note=70 velocity=89 time=0
EXTRACT: note_off channel=1 note=75 velocity=0 time=0
EXTRACT: note_on channel=1 note=82 velocity=89 time=0
EXTRACT: note_off channel=6 note=75 velocity=0 time=0
EXTRACT: note_on channel=6 note=82 velocity=89 time=0
EXTRACT: note_off channel=8 note=70 velocity=0 time=0
EXTRACT: note_on channel=8 note=70 velocity=89 time=0
EXTRACT: note_off channel=1 note=82 velocity=0 time=0
EXTRACT: note_on channel=1 note=77 velocity=89 time=0
EXTRACT: note_on channel=1 note=74 velocity=89 time=0
EXTRACT: note_on channel=1 note=72 velocity=89 time=0
EXTRACT: note_off channel=2 note=63 velocity=0 time=0
EXTRACT: note_on channel=2 note=50 velocity=89 time=0
EXTRACT: note_off channel=6 note=82 velocity=0 time=0
EXTRACT: note_on channel=6 note=77 velocity=89 time=0
EXTRACT: note_on channel=6 note=74 velocity=89 time=0
EXTRACT: note_on channel=6 note=72 velocity=89 time=0
EXTRACT: note_off channel=7 note=63 velocity=0 time=0
EXTRACT: note_on channel=7 note=50 velocity=89 time=0
EXTRACT: note_off channel=0 note=70 velocity=0 time=0.7258065
EXTRACT: note_on channel=0 note=68 velocity=89 time=0
EXTRACT: note_off channel=1 note=72 velocity=0 time=0
EXTRACT: note_off channel=1 note=74 velocity=0 time=0
EXTRACT: note_off channel=1 note=77 velocity=0 time=0
EXTRACT: note_on channel=1 note=70 velocity=89 time=0
EXTRACT: note_on channel=1 note=65 velocity=89 time=0
EXTRACT: note_off channel=6 note=72 velocity=0 time=0
EXTRACT: note_off channel=6 note=74 velocity=0 time=0
EXTRACT: note_off channel=6 note=77 velocity=0 time=0
EXTRACT: note_on channel=6 note=70 velocity=89 time=0
EXTRACT: note_on channel=6 note=65 velocity=89 time=0
EXTRACT: note_off channel=8 note=70 velocity=0 time=0
EXTRACT: note_on channel=8 note=68 velocity=89 time=0
EXTRACT: note_off channel=0 note=68 velocity=0 time=0
EXTRACT: note_on channel=0 note=67 velocity=89 time=0
EXTRACT: note_off channel=1 note=65 velocity=0 time=0
EXTRACT: note_off channel=1 note=70 velocity=0 time=0
EXTRACT: note_on channel=1 note=65 velocity=89 time=0
EXTRACT: note_off channel=6 note=65 velocity=0 time=0
EXTRACT: note_off channel=6 note=70 velocity=0 time=0
EXTRACT: note_on channel=6 note=65 velocity=89 time=0
EXTRACT: note_off channel=8 note=68 velocity=0 time=0
EXTRACT: note_on channel=8 note=67 velocity=89 time=0
EXTRACT: note_off channel=0 note=67 velocity=0 time=0
EXTRACT: note_on channel=0 note=67 velocity=89 time=0
EXTRACT: note_off channel=2 note=50 velocity=0 time=0
EXTRACT: note_on channel=2 note=58 velocity=89 time=0
EXTRACT: note_off channel=7 note=50 velocity=0 time=0
EXTRACT: note_on channel=7 note=58 velocity=89 time=0
EXTRACT: note_off channel=8 note=67 velocity=0 time=0
EXTRACT: note_on channel=8 note=67 velocity=89 time=0
EXTRACT: note_off channel=0 note=67 velocity=0 time=0
EXTRACT: note_on channel=0 note=65 velocity=89 time=0
EXTRACT: note_off channel=1 note=65 velocity=0 time=0
EXTRACT: note_on channel=1 note=65 velocity=89 time=0
EXTRACT: note_off channel=6 note=65 velocity=0 time=0
EXTRACT: note_on channel=6 note=65 velocity=89 time=0
EXTRACT: note_off channel=8 note=67 velocity=0 time=0
EXTRACT: note_on channel=8 note=65 velocity=89 time=0
EXTRACT: note_off channel=0 note=65 velocity=0 time=0
EXTRACT: note_on channel=0 note=65 velocity=89 time=0
EXTRACT: note_off channel=1 note=65 velocity=0 time=0
EXTRACT: note_on channel=1 note=77 velocity=89 time=0
EXTRACT: note_off channel=6 note=65 velocity=0 time=0
EXTRACT: note_on channel=6 note=77 velocity=89 time=0
EXTRACT: note_off channel=8 note=65 velocity=0 time=0
EXTRACT: note_on channel=8 note=65 velocity=89 time=0
EXTRACT: note_off channel=1 note=77 velocity=0 time=0
EXTRACT: note_on channel=1 note=72 velocity=89 time=0
EXTRACT: note_on channel=1 note=67 velocity=89 time=0
EXTRACT: note_off channel=2 note=58 velocity=0 time=0
EXTRACT: note_on channel=2 note=53 velocity=89 time=0
EXTRACT: note_on channel=2 note=60 velocity=89 time=0
EXTRACT: note_off channel=6 note=77 velocity=0 time=0
EXTRACT: note_on channel=6 note=72 velocity=89 time=0
EXTRACT: note_on channel=6 note=67 velocity=89 time=0
EXTRACT: note_off channel=7 note=58 velocity=0 time=0
EXTRACT: note_on channel=7 note=53 velocity=89 time=0
EXTRACT: note_on channel=7 note=60 velocity=89 time=0
EXTRACT: note_off channel=1 note=67 velocity=0 time=0.24193550000000003
EXTRACT: note_off channel=1 note=72 velocity=0 time=0
EXTRACT: note_on channel=1 note=68 velocity=89 time=0
EXTRACT: note_off channel=6 note=67 velocity=0 time=0
EXTRACT: note_off channel=6 note=72 velocity=0 time=0
EXTRACT: note_on channel=6 note=68 velocity=89 time=0
EXTRACT: note_off channel=1 note=68 velocity=0 time=0.48387100000000005
EXTRACT: note_on channel=1 note=77 velocity=89 time=0
EXTRACT: note_on channel=1 note=72 velocity=89 time=0
EXTRACT: note_on channel=1 note=68 velocity=89 time=0
EXTRACT: note_off channel=6 note=68 velocity=0 time=0
EXTRACT: note_on channel=6 note=77 velocity=89 time=0
EXTRACT: note_on channel=6 note=72 velocity=89 time=0
EXTRACT: note_on channel=6 note=68 velocity=89 time=0
EXTRACT: note_off channel=0 note=65 velocity=0 time=0.24193550000000003
EXTRACT: note_off channel=1 note=68 velocity=0 time=0
EXTRACT: note_off channel=1 note=72 velocity=0 time=0
EXTRACT: note_off channel=1 note=77 velocity=0 time=0
EXTRACT: note_on channel=1 note=65 velocity=89 time=0
EXTRACT: note_off channel=6 note=68 velocity=0 time=0
EXTRACT: note_off channel=6 note=72 velocity=0 time=0
EXTRACT: note_off channel=6 note=77 velocity=0 time=0
EXTRACT: note_on channel=6 note=65 velocity=89 time=0
EXTRACT: note_off channel=8 note=65 velocity=0 time=0
EXTRACT: note_off channel=1 note=65 velocity=0 time=0.24193550000000003
EXTRACT: note_on channel=1 note=72 velocity=89 time=0
EXTRACT: note_off channel=6 note=65 velocity=0 time=0
EXTRACT: note_on channel=6 note=72 velocity=89 time=0
EXTRACT: note_off channel=1 note=72 velocity=0 time=0.24193550000000003
EXTRACT: note_on channel=1 note=65 velocity=89 time=0
EXTRACT: note_off channel=6 note=72 velocity=0 time=0
EXTRACT: note_on channel=6 note=65 velocity=89 time=0
EXTRACT: note_on channel=0 note=72 velocity=89 time=0
EXTRACT: note_off channel=1 note=65 velocity=0 time=0
EXTRACT: note_on channel=1 note=77 velocity=89 time=0
EXTRACT: note_on channel=1 note=80 velocity=89 time=0
EXTRACT: note_off channel=6 note=65 velocity=0 time=0
EXTRACT: note_on channel=6 note=77 velocity=89 time=0
EXTRACT: note_on channel=6 note=80 velocity=89 time=0
EXTRACT: note_on channel=8 note=72 velocity=89 time=0
EXTRACT: note_off channel=1 note=80 velocity=0 time=0.24193550000000003
EXTRACT: note_off channel=1 note=77 velocity=0 time=0
EXTRACT: note_on channel=1 note=72 velocity=89 time=0
EXTRACT: note_off channel=6 note=80 velocity=0 time=0
EXTRACT: note_off channel=6 note=77 velocity=0 time=0
EXTRACT: note_on channel=6 note=72 velocity=89 time=0
EXTRACT: note_off channel=0 note=72 velocity=0 time=0
EXTRACT: note_on channel=0 note=70 velocity=89 time=0
EXTRACT: note_off channel=1 note=72 velocity=0 time=0
EXTRACT: note_on channel=1 note=79 velocity=89 time=0
EXTRACT: note_off channel=6 note=72 velocity=0 time=0
EXTRACT: note_on channel=6 note=79 velocity=89 time=0
EXTRACT: note_off channel=8 note=72 velocity=0 time=0
EXTRACT: note_on channel=8 note=70 velocity=89 time=0
EXTRACT: note_off channel=0 note=70 velocity=0 time=0
EXTRACT: note_on channel=0 note=68 velocity=89 time=0
EXTRACT: note_off channel=8 note=70 velocity=0 time=0
EXTRACT: note_on channel=8 note=68 velocity=89 time=0
EXTRACT: note_off channel=1 note=79 velocity=0 time=0.24193550000000003
EXTRACT: note_on channel=1 note=77 velocity=89 time=0
EXTRACT: note_off channel=2 note=53 velocity=0 time=0
EXTRACT: note_off channel=2 note=60 velocity=0 time=0
EXTRACT: note_on channel=2 note=65 velocity=89 time=0
EXTRACT: note_off channel=6 note=79 velocity=0 time=0
EXTRACT: note_on channel=6 note=77 velocity=89 time=0
EXTRACT: note_off channel=7 note=53 velocity=0 time=0
EXTRACT: note_off channel=7 note=60 velocity=0 time=0
EXTRACT: note_on channel=7 note=65 velocity=89 time=0
EXTRACT: note_off channel=0 note=68 velocity=0 time=0
EXTRACT: note_on channel=0 note=73 velocity=89 time=0
EXTRACT: note_off channel=1 note=77 velocity=0 time=0
EXTRACT: note_on channel=1 note=82 velocity=89 time=0
EXTRACT: note_off channel=6 note=77 velocity=0 time=0
EXTRACT: note_on channel=6 note=82 velocity=89 time=0
EXTRACT: note_off channel=8 note=68 velocity=0 time=0
EXTRACT: note_on channel=8 note=73 velocity=89 time=0
EXTRACT: note_off channel=0 note=73 velocity=0 time=0
EXTRACT: note_on channel=0 note=75 velocity=89 time=0
EXTRACT: note_off channel=1 note=82 velocity=0 time=0
EXTRACT: note_on channel=1 note=79 velocity=89 time=0
EXTRACT: note_on channel=1 note=75 velocity=89 time=0
EXTRACT: note_on channel=1 note=70 velocity=89 time=0
EXTRACT: note_off channel=2 note=65 velocity=0 time=0
EXTRACT: note_on channel=2 note=51 velocity=89 time=0
EXTRACT: note_off channel=6 note=82 velocity=0 time=0
EXTRACT: note_on channel=6 note=79 velocity=89 time=0
EXTRACT: note_on channel=6 note=75 velocity=89 time=0
EXTRACT: note_on channel=6 note=70 velocity=89 time=0
EXTRACT: note_off channel=7 note=65 velocity=0 time=0
EXTRACT: note_on channel=7 note=51 velocity=89 time=0
EXTRACT: note_off channel=8 note=73 velocity=0 time=0
EXTRACT: note_on channel=8 note=75 velocity=89 time=0
EXTRACT: note_off channel=0 note=75 velocity=0 time=0
EXTRACT: note_on channel=0 note=74 velocity=89 time=0
EXTRACT: note_off channel=1 note=70 velocity=0 time=0
EXTRACT: note_off channel=1 note=75 velocity=0 time=0
EXTRACT: note_off channel=1 note=79 velocity=0 time=0
EXTRACT: note_on channel=1 note=70 velocity=89 time=0
EXTRACT: note_on channel=1 note=75 velocity=89 time=0
EXTRACT: note_on channel=1 note=67 velocity=89 time=0
EXTRACT: note_off channel=6 note=70 velocity=0 time=0
EXTRACT: note_off channel=6 note=75 velocity=0 time=0
EXTRACT: note_off channel=6 note=79 velocity=0 time=0
EXTRACT: note_on channel=6 note=70 velocity=89 time=0
EXTRACT: note_on channel=6 note=75 velocity=89 time=0
EXTRACT: note_on channel=6 note=67 velocity=89 time=0
EXTRACT: note_off channel=8 note=75 velocity=0 time=0
EXTRACT: note_on channel=8 note=74 velocity=89 time=0
EXTRACT: note_off channel=0 note=74 velocity=0 time=0
EXTRACT: note_on channel=0 note=72 velocity=89 time=0
EXTRACT: note_off channel=8 note=74 velocity=0 time=0
EXTRACT: note_on channel=8 note=72 velocity=89 time=0
EXTRACT: note_off channel=0 note=72 velocity=0 time=0
EXTRACT: note_on channel=0 note=72 velocity=89 time=0
EXTRACT: note_off channel=2 note=51 velocity=0 time=0
EXTRACT: note_on channel=2 note=63 velocity=89 time=0
EXTRACT: note_off channel=7 note=51 velocity=0 time=0
EXTRACT: note_on channel=7 note=63 velocity=89 time=0
EXTRACT: note_off channel=8 note=72 velocity=0 time=0
EXTRACT: note_on channel=8 note=72 velocity=89 time=0
EXTRACT: note_off channel=1 note=67 velocity=0 time=0.24193550000000003
EXTRACT: note_off channel=1 note=75 velocity=0 time=0
EXTRACT: note_off channel=1 note=70 velocity=0 time=0
EXTRACT: note_on channel=1 note=67 velocity=89 time=0
EXTRACT: note_off channel=6 note=67 velocity=0 time=0
EXTRACT: note_off channel=6 note=75 velocity=0 time=0
EXTRACT: note_off channel=6 note=70 velocity=0 time=0
EXTRACT: note_on channel=6 note=67 velocity=89 time=0
EXTRACT: note_off channel=0 note=72 velocity=0 time=0
EXTRACT: note_on channel=0 note=70 velocity=89 time=0
EXTRACT: note_off channel=1 note=67 velocity=0 time=0
EXTRACT: note_on channel=1 note=77 velocity=89 time=0
EXTRACT: note_off channel=6 note=67 velocity=0 time=0
EXTRACT: note_on channel=6 note=77 velocity=89 time=0
EXTRACT: note_off channel=8 note=72 velocity=0 time=0
EXTRACT: note_on channel=8 note=70 velocity=89 time=0
EXTRACT: note_off channel=1 note=77 velocity=0 time=0
EXTRACT: note_on channel=1 note=74 velocity=89 time=0
EXTRACT: note_on channel=1 note=70 velocity=89 time=0
EXTRACT: note_on channel=1 note=65 velocity=89 time=0
EXTRACT: note_off channel=2 note=63 velocity=0 time=0
EXTRACT: note_on channel=2 note=58 velocity=89 time=0
EXTRACT: note_on channel=2 note=46 velocity=89 time=0
EXTRACT: note_off channel=6 note=77 velocity=0 time=0
EXTRACT: note_on channel=6 note=74 velocity=89 time=0
EXTRACT: note_on channel=6 note=70 velocity=89 time=0
EXTRACT: note_on channel=6 note=65 velocity=89 time=0
EXTRACT: note_off channel=7 note=63 velocity=0 time=0
EXTRACT: note_on channel=7 note=58 velocity=89 time=0
EXTRACT: note_on channel=7 note=46 velocity=89 time=0
EXTRACT: note_off channel=0 note=70 velocity=0 time=0.7258065
EXTRACT: note_off channel=8 note=70 velocity=0 time=0
EXTRACT: note_on channel=0 note=67 velocity=89 time=0
EXTRACT: note_on channel=8 note=67 velocity=89 time=0
EXTRACT: note_off channel=0 note=67 velocity=0 time=0
EXTRACT: note_on channel=0 note=67 velocity=89 time=0
EXTRACT: note_off channel=1 note=65 velocity=0 time=0
EXTRACT: note_off channel=1 note=70 velocity=0 time=0
EXTRACT: note_off channel=1 note=74 velocity=0 time=0
EXTRACT: note_on channel=1 note=79 velocity=89 time=0
EXTRACT: note_on channel=1 note=75 velocity=89 time=0
EXTRACT: note_on channel=1 note=70 velocity=89 time=0
EXTRACT: note_off channel=2 note=46 velocity=0 time=0
EXTRACT: note_off channel=2 note=58 velocity=0 time=0
EXTRACT: note_on channel=2 note=63 velocity=89 time=0
EXTRACT: note_on channel=2 note=51 velocity=89 time=0
EXTRACT: note_on channel=4 note=75 velocity=89 time=0
EXTRACT: note_off channel=6 note=65 velocity=0 time=0
EXTRACT: note_off channel=6 note=70 velocity=0 time=0
EXTRACT: note_off channel=6 note=74 velocity=0 time=0
EXTRACT: note_on channel=6 note=79 velocity=89 time=0
EXTRACT: note_on channel=6 note=75 velocity=89 time=0
EXTRACT: note_on channel=6 note=70 velocity=89 time=0
EXTRACT: note_off channel=7 note=46 velocity=0 time=0
EXTRACT: note_off channel=7 note=58 velocity=0 time=0
EXTRACT: note_on channel=7 note=63 velocity=89 time=0
EXTRACT: note_on channel=7 note=51 velocity=89 time=0
EXTRACT: note_off channel=8 note=67 velocity=0 time=0
EXTRACT: note_on channel=8 note=67 velocity=89 time=0
EXTRACT: note_off channel=0 note=67 velocity=0 time=0
EXTRACT: note_on channel=0 note=70 velocity=89 time=0
EXTRACT: note_off channel=8 note=67 velocity=0 time=0
EXTRACT: note_on channel=8 note=70 velocity=89 time=0
EXTRACT: note_off channel=0 note=70 velocity=0 time=0
EXTRACT: note_on channel=0 note=67 velocity=89 time=0
EXTRACT: note_off channel=4 note=75 velocity=0 time=0
EXTRACT: note_on channel=4 note=70 velocity=89 time=0
EXTRACT: note_off channel=8 note=70 velocity=0 time=0
EXTRACT: note_on channel=8 note=67 velocity=89 time=0
EXTRACT: note_off channel=0 note=67 velocity=0 time=0
EXTRACT: note_on channel=0 note=70 velocity=89 time=0
EXTRACT: note_off channel=4 note=70 velocity=0 time=0
EXTRACT: note_on channel=4 note=77 velocity=89 time=0
EXTRACT: note_off channel=8 note=67 velocity=0 time=0
EXTRACT: note_on channel=8 note=70 velocity=89 time=0
EXTRACT: note_off channel=0 note=70 velocity=0 time=0
EXTRACT: note_on channel=0 note=72 velocity=89 time=0
EXTRACT: note_off channel=8 note=70 velocity=0 time=0
EXTRACT: note_on channel=8 note=72 velocity=89 time=0
EXTRACT: note_off channel=0 note=72 velocity=0 time=0.48387100000000005
EXTRACT: note_off channel=4 note=77 velocity=0 time=0
EXTRACT: note_off channel=8 note=72 velocity=0 time=0
EXTRACT: note_on channel=0 note=67 velocity=89 time=0
EXTRACT: note_on channel=4 note=75 velocity=89 time=0
EXTRACT: note_on channel=8 note=67 velocity=89 time=0
EXTRACT: note_off channel=0 note=67 velocity=0 time=0
EXTRACT: note_on channel=0 note=65 velocity=89 time=0
EXTRACT: note_off channel=1 note=70 velocity=0 time=0
EXTRACT: note_off channel=1 note=75 velocity=0 time=0
EXTRACT: note_off channel=1 note=79 velocity=0 time=0
EXTRACT: note_on channel=1 note=79 velocity=89 time=0
EXTRACT: note_on channel=1 note=75 velocity=89 time=0
EXTRACT: note_on channel=1 note=72 velocity=89 time=0
EXTRACT: note_off channel=2 note=51 velocity=0 time=0
EXTRACT: note_off channel=2 note=63 velocity=0 time=0
EXTRACT: note_on channel=2 note=60 velocity=89 time=0
EXTRACT: note_off channel=4 note=75 velocity=0 time=0
EXTRACT: note_on channel=4 note=74 velocity=89 time=0
EXTRACT: note_off channel=6 note=70 velocity=0 time=0
EXTRACT: note_off channel=6 note=75 velocity=0 time=0
EXTRACT: note_off channel=6 note=79 velocity=0 time=0
EXTRACT: note_on channel=6 note=79 velocity=89 time=0
EXTRACT: note_on channel=6 note=75 velocity=89 time=0
EXTRACT: note_on channel=6 note=72 velocity=89 time=0
EXTRACT: note_off channel=7 note=51 velocity=0 time=0
EXTRACT: note_off channel=7 note=63 velocity=0 time=0
EXTRACT: note_on channel=7 note=60 velocity=89 time=0
EXTRACT: note_off channel=8 note=67 velocity=0 time=0
EXTRACT: note_on channel=8 note=65 velocity=89 time=0
EXTRACT: note_off channel=0 note=65 velocity=0 time=0
EXTRACT: note_on channel=0 note=63 velocity=89 time=0
EXTRACT: note_off channel=4 note=74 velocity=0 time=0
EXTRACT: note_on channel=4 note=72 velocity=89 time=0
EXTRACT: note_off channel=8 note=65 velocity=0 time=0
EXTRACT: note_on channel=8 note=63 velocity=89 time=0
EXTRACT: note_off channel=0 note=63 velocity=0 time=0
EXTRACT: note_on channel=0 note=65 velocity=89 time=0
EXTRACT: note_off channel=4 note=72 velocity=0 time=0
EXTRACT: note_on channel=4 note=75 velocity=89 time=0
EXTRACT: note_off channel=8 note=63 velocity=0 time=0
EXTRACT: note_on channel=8 note=65 velocity=89 time=0
EXTRACT: note_off channel=0 note=65 velocity=0 time=0
EXTRACT: note_on channel=0 note=67 velocity=89 time=0
EXTRACT: note_off channel=8 note=65 velocity=0 time=0
EXTRACT: note_on channel=8 note=67 velocity=89 time=0
EXTRACT: note_off channel=0 note=67 velocity=0 time=0.48387100000000005
EXTRACT: note_off channel=4 note=75 velocity=0 time=0
EXTRACT: note_off channel=8 note=67 velocity=0 time=0
EXTRACT: note_on channel=0 note=67 velocity=89 time=0
EXTRACT: note_on channel=4 note=72 velocity=89 time=0
EXTRACT: note_on channel=8 note=67 velocity=89 time=0
EXTRACT: note_off channel=0 note=67 velocity=0 time=0
EXTRACT: note_on channel=0 note=67 velocity=89 time=0
EXTRACT: note_off channel=4 note=72 velocity=0 time=0
EXTRACT: note_on channel=4 note=72 velocity=89 time=0
EXTRACT: note_off channel=8 note=67 velocity=0 time=0
EXTRACT: note_on channel=8 note=67 velocity=89 time=0
EXTRACT: note_off channel=0 note=67 velocity=0 time=0
EXTRACT: note_on channel=0 note=65 velocity=89 time=0
EXTRACT: note_off channel=8 note=67 velocity=0 time=0
EXTRACT: note_on channel=8 note=65 velocity=89 time=0
EXTRACT: note_off channel=0 note=65 velocity=0 time=0
EXTRACT: note_on channel=0 note=65 velocity=89 time=0
EXTRACT: note_off channel=1 note=72 velocity=0 time=0
EXTRACT: note_off channel=1 note=75 velocity=0 time=0
EXTRACT: note_off channel=1 note=79 velocity=0 time=0
EXTRACT: note_on channel=1 note=79 velocity=89 time=0
EXTRACT: note_on channel=1 note=72 velocity=89 time=0
EXTRACT: note_on channel=1 note=68 velocity=89 time=0
EXTRACT: note_off channel=2 note=60 velocity=0 time=0
EXTRACT: note_on channel=2 note=56 velocity=89 time=0
EXTRACT: note_off channel=4 note=72 velocity=0 time=0
EXTRACT: note_on channel=4 note=68 velocity=89 time=0
EXTRACT: note_off channel=6 note=72 velocity=0 time=0
EXTRACT: note_off channel=6 note=75 velocity=0 time=0
EXTRACT: note_off channel=6 note=79 velocity=0 time=0
EXTRACT: note_on channel=6 note=79 velocity=89 time=0
EXTRACT: note_on channel=6 note=72 velocity=89 time=0
EXTRACT: note_on channel=6 note=68 velocity=89 time=0
EXTRACT: note_off channel=7 note=60 velocity=0 time=0
EXTRACT: note_on channel=7 note=56 velocity=89 time=0
EXTRACT: note_off channel=8 note=65 velocity=0 time=0
EXTRACT: note_on channel=8 note=65 velocity=89 time=0
EXTRACT: note_off channel=0 note=65 velocity=0 time=0
EXTRACT: note_on channel=0 note=65 velocity=89 time=0
EXTRACT: note_off channel=4 note=68 velocity=0 time=0
EXTRACT: note_on channel=4 note=68 velocity=89 time=0
EXTRACT: note_off channel=8 note=65 velocity=0 time=0
EXTRACT: note_on channel=8 note=65 velocity=89 time=0
EXTRACT: note_off channel=0 note=65 velocity=0 time=0
EXTRACT: note_on channel=0 note=65 velocity=89 time=0
EXTRACT: note_off channel=4 note=68 velocity=0 time=0
EXTRACT: note_on channel=4 note=68 velocity=89 time=0
EXTRACT: note_off channel=8 note=65 velocity=0 time=0
EXTRACT: note_on channel=8 note=65 velocity=89 time=0
EXTRACT: note_off channel=0 note=65 velocity=0 time=0
EXTRACT: note_on channel=0 note=63 velocity=89 time=0
EXTRACT: note_off channel=4 note=68 velocity=0 time=0
EXTRACT: note_on channel=4 note=67 velocity=89 time=0
EXTRACT: note_off channel=8 note=65 velocity=0 time=0
EXTRACT: note_on channel=8 note=63 velocity=89 time=0
EXTRACT: note_off channel=0 note=63 velocity=0 time=0
EXTRACT: note_on channel=0 note=65 velocity=89 time=0
EXTRACT: note_off channel=4 note=67 velocity=0 time=0
EXTRACT: note_on channel=4 note=68 velocity=89 time=0
EXTRACT: note_off channel=8 note=63 velocity=0 time=0
EXTRACT: note_on channel=8 note=65 velocity=89 time=0
EXTRACT: note_off channel=0 note=65 velocity=0 time=0
EXTRACT: note_on channel=0 note=63 velocity=89 time=0
EXTRACT: note_off channel=4 note=68 velocity=0 time=0
EXTRACT: note_on channel=4 note=65 velocity=89 time=0
EXTRACT: note_off channel=8 note=65 velocity=0 time=0
EXTRACT: note_on channel=8 note=63 velocity=89 time=0
EXTRACT: note_off channel=0 note=63 velocity=0 time=0.24193550000000003
EXTRACT: note_off channel=4 note=65 velocity=0 time=0
EXTRACT: note_off channel=8 note=63 velocity=0 time=0
EXTRACT: note_on channel=0 note=67 velocity=89 time=0
EXTRACT: note_on channel=4 note=72 velocity=89 time=0
EXTRACT: note_on channel=8 note=67 velocity=89 time=0
EXTRACT: note_off channel=4 note=72 velocity=0 time=0
EXTRACT: note_on channel=4 note=72 velocity=89 time=0
EXTRACT: note_off channel=0 note=67 velocity=0 time=0
EXTRACT: note_on channel=0 note=65 velocity=89 time=0
EXTRACT: note_off channel=8 note=67 velocity=0 time=0
EXTRACT: note_on channel=8 note=65 velocity=89 time=0
EXTRACT: note_off channel=0 note=65 velocity=0 time=0
EXTRACT: note_on channel=0 note=65 velocity=89 time=0
EXTRACT: note_off channel=1 note=72 velocity=0 time=0
EXTRACT: note_off channel=1 note=68 velocity=0 time=0
EXTRACT: note_off channel=1 note=79 velocity=0 time=0
EXTRACT: note_on channel=1 note=75 velocity=89 time=0
EXTRACT: note_on channel=1 note=68 velocity=89 time=0
EXTRACT: note_on channel=1 note=72 velocity=89 time=0
EXTRACT: note_on channel=1 note=77 velocity=89 time=0
EXTRACT: note_off channel=2 note=56 velocity=0 time=0
EXTRACT: note_on channel=2 note=58 velocity=89 time=0
EXTRACT: note_off channel=4 note=72 velocity=0 time=0
EXTRACT: note_on channel=4 note=70 velocity=89 time=0
EXTRACT: note_off channel=6 note=72 velocity=0 time=0
EXTRACT: note_off channel=6 note=68 velocity=0 time=0
EXTRACT: note_off channel=6 note=79 velocity=0 time=0
EXTRACT: note_on channel=6 note=75 velocity=89 time=0
EXTRACT: note_on channel=6 note=68 velocity=89 time=0
EXTRACT: note_on channel=6 note=72 velocity=89 time=0
EXTRACT: note_on channel=6 note=77 velocity=89 time=0
EXTRACT: note_off channel=7 note=56 velocity=0 time=0
EXTRACT: note_on channel=7 note=58 velocity=89 time=0
EXTRACT: note_off channel=8 note=65 velocity=0 time=0
EXTRACT: note_on channel=8 note=65 velocity=89 time=0
EXTRACT: note_off channel=0 note=65 velocity=0 time=0
EXTRACT: note_on channel=0 note=65 velocity=89 time=0
EXTRACT: note_off channel=4 note=70 velocity=0 time=0
EXTRACT: note_on channel=4 note=70 velocity=89 time=0
EXTRACT: note_off channel=8 note=65 velocity=0 time=0
EXTRACT: note_on channel=8 note=65 velocity=89 time=0
EXTRACT: note_off channel=0 note=65 velocity=0 time=0
EXTRACT: note_on channel=0 note=65 velocity=89 time=0
EXTRACT: note_off channel=4 note=70 velocity=0 time=0
EXTRACT: note_on channel=4 note=70 velocity=89 time=0
EXTRACT: note_off channel=8 note=65 velocity=0 time=0
EXTRACT: note_on channel=8 note=65 velocity=89 time=0
EXTRACT: note_off channel=0 note=65 velocity=0 time=0
EXTRACT: note_on channel=0 note=62 velocity=89 time=0
EXTRACT: note_off channel=4 note=70 velocity=0 time=0
EXTRACT: note_on channel=4 note=70 velocity=89 time=0
EXTRACT: note_off channel=8 note=65 velocity=0 time=0
EXTRACT: note_on channel=8 note=62 velocity=89 time=0
EXTRACT: note_off channel=0 note=62 velocity=0 time=0
EXTRACT: note_on channel=0 note=65 velocity=89 time=0
EXTRACT: note_off channel=4 note=70 velocity=0 time=0
EXTRACT: note_on channel=4 note=74 velocity=89 time=0
EXTRACT: note_off channel=8 note=62 velocity=0 time=0
EXTRACT: note_on channel=8 note=65 velocity=89 time=0
EXTRACT: note_off channel=0 note=65 velocity=0 time=0
EXTRACT: note_on channel=0 note=63 velocity=89 time=0
EXTRACT: note_off channel=4 note=74 velocity=0 time=0
EXTRACT: note_on channel=4 note=65 velocity=89 time=0
EXTRACT: note_off channel=8 note=65 velocity=0 time=0
EXTRACT: note_on channel=8 note=63 velocity=89 time=0
EXTRACT: note_off channel=0 note=63 velocity=0 time=0.24193550000000003
EXTRACT: note_off channel=4 note=65 velocity=0 time=0
EXTRACT: note_off channel=8 note=63 velocity=0 time=0
EXTRACT: note_on channel=0 note=67 velocity=89 time=0
EXTRACT: note_on channel=4 note=70 velocity=89 time=0
EXTRACT: note_on channel=8 note=67 velocity=89 time=0
EXTRACT: note_off channel=0 note=67 velocity=0 time=0
EXTRACT: note_on channel=0 note=67 velocity=89 time=0
EXTRACT: note_off channel=4 note=70 velocity=0 time=0
EXTRACT: note_on channel=4 note=74 velocity=89 time=0
EXTRACT: note_off channel=8 note=67 velocity=0 time=0
EXTRACT: note_on channel=8 note=67 velocity=89 time=0
EXTRACT: note_off channel=0 note=67 velocity=0 time=0
EXTRACT: note_on channel=0 note=67 velocity=89 time=0
EXTRACT: note_off channel=1 note=77 velocity=0 time=0
EXTRACT: note_off channel=1 note=75 velocity=0 time=0
EXTRACT: note_off channel=1 note=72 velocity=0 time=0
EXTRACT: note_off channel=1 note=68 velocity=0 time=0
EXTRACT: note_on channel=1 note=82 velocity=89 time=0
EXTRACT: note_off channel=2 note=58 velocity=0 time=0
EXTRACT: note_on channel=2 note=51 velocity=89 time=0
EXTRACT: note_off channel=4 note=74 velocity=0 time=0
EXTRACT: note_on channel=4 note=75 velocity=89 time=0
EXTRACT: note_off channel=6 note=77 velocity=0 time=0
EXTRACT: note_off channel=6 note=75 velocity=0 time=0
EXTRACT: note_off channel=6 note=72 velocity=0 time=0
EXTRACT: note_off channel=6 note=68 velocity=0 time=0
EXTRACT: note_on channel=6 note=82 velocity=89 time=0
EXTRACT: note_off channel=7 note=58 velocity=0 time=0
EXTRACT: note_on channel=7 note=51 velocity=89 time=0
EXTRACT: note_off channel=8 note=67 velocity=0 time=0
EXTRACT: note_on channel=8 note=67 velocity=89 time=0
EXTRACT: note_off channel=0 note=67 velocity=0 time=0
EXTRACT: note_on channel=0 note=70 velocity=89 time=0
EXTRACT: note_off channel=8 note=67 velocity=0 time=0
EXTRACT: note_on channel=8 note=70 velocity=89 time=0
EXTRACT: note_off channel=1 note=82 velocity=0 time=0.12096775000000001
EXTRACT: note_on channel=1 note=79 velocity=89 time=0
EXTRACT: note_off channel=6 note=82 velocity=0 time=0
EXTRACT: note_on channel=6 note=79 velocity=89 time=0
EXTRACT: note_off channel=1 note=79 velocity=0 time=0
EXTRACT: note_on channel=1 note=75 velocity=89 time=0
EXTRACT: note_off channel=6 note=79 velocity=0 time=0
EXTRACT: note_on channel=6 note=75 velocity=89 time=0
EXTRACT: note_off channel=1 note=75 velocity=0 time=0.24193550000000003
EXTRACT: note_on channel=1 note=82 velocity=89 time=0
EXTRACT: note_off channel=2 note=51 velocity=0 time=0
EXTRACT: note_on channel=2 note=63 velocity=89 time=0
EXTRACT: note_off channel=6 note=75 velocity=0 time=0
EXTRACT: note_on channel=6 note=82 velocity=89 time=0
EXTRACT: note_off channel=7 note=51 velocity=0 time=0
EXTRACT: note_on channel=7 note=63 velocity=89 time=0
EXTRACT: note_off channel=1 note=82 velocity=0 time=0.24193550000000003
EXTRACT: note_on channel=1 note=79 velocity=89 time=0
EXTRACT: note_off channel=6 note=82 velocity=0 time=0
EXTRACT: note_on channel=6 note=79 velocity=89 time=0
EXTRACT: note_off channel=1 note=79 velocity=0 time=0.24193550000000003
EXTRACT: note_on channel=1 note=75 velocity=89 time=0
EXTRACT: note_off channel=6 note=79 velocity=0 time=0
EXTRACT: note_on channel=6 note=75 velocity=89 time=0
EXTRACT: note_off channel=0 note=70 velocity=0 time=0
EXTRACT: note_on channel=0 note=67 velocity=89 time=0
EXTRACT: note_off channel=1 note=75 velocity=0 time=0
EXTRACT: note_on channel=1 note=82 velocity=89 time=0
EXTRACT: note_off channel=2 note=63 velocity=0 time=0
EXTRACT: note_on channel=2 note=63 velocity=89 time=0
EXTRACT: note_off channel=4 note=75 velocity=0 time=0
EXTRACT: note_on channel=4 note=70 velocity=89 time=0
EXTRACT: note_off channel=6 note=75 velocity=0 time=0
EXTRACT: note_on channel=6 note=82 velocity=89 time=0
EXTRACT: note_off channel=7 note=63 velocity=0 time=0
EXTRACT: note_on channel=7 note=63 velocity=89 time=0
EXTRACT: note_off channel=8 note=70 velocity=0 time=0
EXTRACT: note_on channel=8 note=67 velocity=89 time=0
EXTRACT: note_off channel=0 note=67 velocity=0 time=0
EXTRACT: note_on channel=0 note=70 velocity=89 time=0
EXTRACT: note_off channel=1 note=82 velocity=0 time=0
EXTRACT: note_on channel=1 note=77 velocity=89 time=0
EXTRACT: note_off channel=4 note=70 velocity=0 time=0
EXTRACT: note_on channel=4 note=77 velocity=89 time=0
EXTRACT: note_off channel=6 note=82 velocity=0 time=0
EXTRACT: note_on channel=6 note=77 velocity=89 time=0
EXTRACT: note_off channel=8 note=67 velocity=0 time=0
EXTRACT: note_on channel=8 note=70 velocity=89 time=0
EXTRACT: note_off channel=0 note=70 velocity=0 time=0
EXTRACT: note_on channel=0 note=72 velocity=89 time=0
EXTRACT: note_off channel=1 note=77 velocity=0 time=0
EXTRACT: note_on channel=1 note=82 velocity=89 time=0
EXTRACT: note_off channel=2 note=63 velocity=0 time=0
EXTRACT: note_on channel=2 note=63 velocity=89 time=0
EXTRACT: note_off channel=6 note=77 velocity=0 time=0
EXTRACT: note_on channel=6 note=82 velocity=89 time=0
EXTRACT: note_off channel=7 note=63 velocity=0 time=0
EXTRACT: note_on channel=7 note=63 velocity=89 time=0
EXTRACT: note_off channel=8 note=70 velocity=0 time=0
EXTRACT: note_on channel=8 note=72 velocity=89 time=0
EXTRACT: note_off channel=1 note=82 velocity=0 time=0.24193550000000003
EXTRACT: note_on channel=1 note=79 velocity=89 time=0
EXTRACT: note_off channel=6 note=82 velocity=0 time=0
EXTRACT: note_on channel=6 note=79 velocity=89 time=0
EXTRACT: note_off channel=0 note=72 velocity=0 time=0.24193550000000003
EXTRACT: note_off channel=1 note=79 velocity=0 time=0
EXTRACT: note_on channel=1 note=75 velocity=89 time=0
EXTRACT: note_off channel=4 note=77 velocity=0 time=0
EXTRACT: note_off channel=6 note=79 velocity=0 time=0
EXTRACT: note_on channel=6 note=75 velocity=89 time=0
EXTRACT: note_off channel=8 note=72 velocity=0 time=0
EXTRACT: note_on channel=0 note=67 velocity=89 time=0
EXTRACT: note_off channel=1 note=75 velocity=0 time=0
EXTRACT: note_on channel=1 note=82 velocity=89 time=0
EXTRACT: note_off channel=2 note=63 velocity=0 time=0
EXTRACT: note_on channel=2 note=63 velocity=89 time=0
EXTRACT: note_off channel=6 note=75 velocity=0 time=0
EXTRACT: note_on channel=6 note=82 velocity=89 time=0
EXTRACT: note_off channel=7 note=63 velocity=0 time=0
EXTRACT: note_on channel=7 note=63 velocity=89 time=0
EXTRACT: note_on channel=8 note=67 velocity=89 time=0
EXTRACT: note_off channel=0 note=67 velocity=0 time=0
EXTRACT: note_on channel=0 note=75 velocity=89 time=0
EXTRACT: note_off channel=1 note=82 velocity=0 time=0
EXTRACT: note_on channel=1 note=79 velocity=89 time=0
EXTRACT: note_on channel=4 note=79 velocity=89 time=0
EXTRACT: note_off channel=6 note=82 velocity=0 time=0
EXTRACT: note_on channel=6 note=79 velocity=89 time=0
EXTRACT: note_off channel=8 note=67 velocity=0 time=0
EXTRACT: note_on channel=8 note=75 velocity=89 time=0
EXTRACT: note_off channel=0 note=75 velocity=0 time=0
EXTRACT: note_on channel=0 note=74 velocity=89 time=0
EXTRACT: note_off channel=1 note=79 velocity=0 time=0
EXTRACT: note_on channel=1 note=75 velocity=89 time=0
EXTRACT: note_off channel=4 note=79 velocity=0 time=0
EXTRACT: note_on channel=4 note=77 velocity=89 time=0
EXTRACT: note_off channel=6 note=79 velocity=0 time=0
EXTRACT: note_on channel=6 note=75 velocity=89 time=0
EXTRACT: note_off channel=8 note=75 velocity=0 time=0
EXTRACT: note_on channel=8 note=74 velocity=89 time=0
EXTRACT: note_off channel=1 note=75 velocity=0 time=0.24193550000000003
EXTRACT: note_on channel=1 note=82 velocity=89 time=0
EXTRACT: note_off channel=2 note=63 velocity=0 time=0
EXTRACT: note_on channel=2 note=63 velocity=89 time=0
EXTRACT: note_off channel=6 note=75 velocity=0 time=0
EXTRACT: note_on channel=6 note=82 velocity=89 time=0
EXTRACT: note_off channel=7 note=63 velocity=0 time=0
EXTRACT: note_on channel=7 note=63 velocity=89 time=0
EXTRACT: note_off channel=0 note=74 velocity=0 time=0
EXTRACT: note_on channel=0 note=72 velocity=89 time=0
EXTRACT: note_off channel=1 note=82 velocity=0 time=0
EXTRACT: note_on channel=1 note=70 velocity=89 time=0
EXTRACT: note_off channel=4 note=77 velocity=0 time=0
EXTRACT: note_on channel=4 note=75 velocity=89 time=0
EXTRACT: note_off channel=6 note=82 velocity=0 time=0
EXTRACT: note_on channel=6 note=70 velocity=89 time=0
EXTRACT: note_off channel=8 note=74 velocity=0 time=0
EXTRACT: note_on channel=8 note=72 velocity=89 time=0
EXTRACT: note_off channel=1 note=70 velocity=0 time=0
EXTRACT: note_on channel=1 note=79 velocity=89 time=0
EXTRACT: note_off channel=2 note=63 velocity=0 time=0
EXTRACT: note_on channel=2 note=48 velocity=89 time=0
EXTRACT: note_off channel=4 note=75 velocity=0 time=0
EXTRACT: note_on channel=4 note=75 velocity=89 time=0
EXTRACT: note_off channel=6 note=70 velocity=0 time=0
EXTRACT: note_on channel=6 note=79 velocity=89 time=0
EXTRACT: note_off channel=7 note=63 velocity=0 time=0
EXTRACT: note_on channel=7 note=48 velocity=89 time=0
EXTRACT: note_off channel=1 note=79 velocity=0 time=0.24193550000000003
EXTRACT: note_on channel=1 note=67 velocity=89 time=0
EXTRACT: note_off channel=6 note=79 velocity=0 time=0
EXTRACT: note_on channel=6 note=67 velocity=89 time=0
EXTRACT: note_off channel=1 note=67 velocity=0 time=0.24193550000000003
EXTRACT: note_on channel=1 note=72 velocity=89 time=0
EXTRACT: note_off channel=6 note=67 velocity=0 time=0
EXTRACT: note_on channel=6 note=72 velocity=89 time=0
EXTRACT: note_off channel=1 note=72 velocity=0 time=0.24193550000000003
EXTRACT: note_on channel=1 note=79 velocity=89 time=0
EXTRACT: note_on channel=1 note=74 velocity=89 time=0
EXTRACT: note_off channel=6 note=72 velocity=0 time=0
EXTRACT: note_on channel=6 note=79 velocity=89 time=0
EXTRACT: note_on channel=6 note=74 velocity=89 time=0
EXTRACT: note_off channel=1 note=74 velocity=0 time=0.24193550000000003
EXTRACT: note_off channel=1 note=79 velocity=0 time=0
EXTRACT: note_on channel=1 note=67 velocity=89 time=0
EXTRACT: note_off channel=6 note=74 velocity=0 time=0
EXTRACT: note_off channel=6 note=79 velocity=0 time=0
EXTRACT: note_on channel=6 note=67 velocity=89 time=0
EXTRACT: note_off channel=1 note=67 velocity=0 time=0.24193550000000003
EXTRACT: note_on channel=1 note=75 velocity=89 time=0
EXTRACT: note_on channel=1 note=79 velocity=89 time=0
EXTRACT: note_off channel=6 note=67 velocity=0 time=0
EXTRACT: note_on channel=6 note=75 velocity=89 time=0
EXTRACT: note_on channel=6 note=79 velocity=89 time=0
EXTRACT: note_off channel=0 note=72 velocity=0 time=0
EXTRACT: note_on channel=0 note=70 velocity=89 time=0
EXTRACT: note_off channel=1 note=79 velocity=0 time=0
EXTRACT: note_off channel=1 note=75 velocity=0 time=0
EXTRACT: note_on channel=1 note=67 velocity=89 time=0
EXTRACT: note_off channel=4 note=75 velocity=0 time=0
EXTRACT: note_on channel=4 note=74 velocity=89 time=0
EXTRACT: note_off channel=6 note=79 velocity=0 time=0
EXTRACT: note_off channel=6 note=75 velocity=0 time=0
EXTRACT: note_on channel=6 note=67 velocity=89 time=0
EXTRACT: note_off channel=8 note=72 velocity=0 time=0
EXTRACT: note_on channel=8 note=70 velocity=89 time=0
EXTRACT: note_off channel=0 note=70 velocity=0 time=0
EXTRACT: note_on channel=0 note=67 velocity=89 time=0
EXTRACT: note_off channel=1 note=67 velocity=0 time=0
EXTRACT: note_on channel=1 note=72 velocity=89 time=0
EXTRACT: note_off channel=4 note=74 velocity=0 time=0
EXTRACT: note_on channel=4 note=72 velocity=89 time=0
EXTRACT: note_off channel=6 note=67 velocity=0 time=0
EXTRACT: note_on channel=6 note=72 velocity=89 time=0
EXTRACT: note_off channel=8 note=70 velocity=0 time=0
EXTRACT: note_on channel=8 note=67 velocity=89 time=0
EXTRACT: note_off channel=2 note=48 velocity=0 time=0
EXTRACT: note_on channel=2 note=60 velocity=89 time=0
EXTRACT: note_off channel=7 note=48 velocity=0 time=0
EXTRACT: note_on channel=7 note=60 velocity=89 time=0
EXTRACT: note_off channel=1 note=72 velocity=0 time=0.24193550000000003
EXTRACT: note_on channel=1 note=67 velocity=89 time=0
EXTRACT: note_off channel=6 note=72 velocity=0 time=0
EXTRACT: note_on channel=6 note=67 velocity=89 time=0
EXTRACT: note_off channel=0 note=67 velocity=0 time=0.24193550000000003
EXTRACT: note_off channel=1 note=67 velocity=0 time=0
EXTRACT: note_on channel=1 note=72 velocity=89 time=0
EXTRACT: note_off channel=4 note=72 velocity=0 time=0
EXTRACT: note_off channel=6 note=67 velocity=0 time=0
EXTRACT: note_on channel=6 note=72 velocity=89 time=0
EXTRACT: note_off channel=8 note=67 velocity=0 time=0
EXTRACT: note_off channel=1 note=72 velocity=0 time=0.24193550000000003
EXTRACT: note_on channel=1 note=79 velocity=89 time=0
EXTRACT: note_on channel=1 note=74 velocity=89 time=0
EXTRACT: note_off channel=6 note=72 velocity=0 time=0
EXTRACT: note_on channel=6 note=79 velocity=89 time=0
EXTRACT: note_on channel=6 note=74 velocity=89 time=0
EXTRACT: note_on channel=0 note=67 velocity=89 time=0
EXTRACT: note_on channel=4 note=72 velocity=89 time=0
EXTRACT: note_on channel=8 note=67 velocity=89 time=0
EXTRACT: note_off channel=0 note=67 velocity=0 time=0
EXTRACT: note_on channel=0 note=67 velocity=89 time=0
EXTRACT: note_off channel=1 note=74 velocity=0 time=0
EXTRACT: note_off channel=1 note=79 velocity=0 time=0
EXTRACT: note_on channel=1 note=79 velocity=89 time=0
EXTRACT: note_on channel=1 note=74 velocity=89 time=0
EXTRACT: note_off channel=4 note=72 velocity=0 time=0
EXTRACT: note_on channel=4 note=72 velocity=89 time=0
EXTRACT: note_off channel=6 note=74 velocity=0 time=0
EXTRACT: note_off channel=6 note=79 velocity=0 time=0
EXTRACT: note_on channel=6 note=79 velocity=89 time=0
EXTRACT: note_on channel=6 note=74 velocity=89 time=0
EXTRACT: note_off channel=8 note=67 velocity=0 time=0
EXTRACT: note_on channel=8 note=67 velocity=89 time=0
EXTRACT: note_off channel=4 note=72 velocity=0 time=0.12096775000000001
EXTRACT: note_on channel=4 note=70 velocity=89 time=0
EXTRACT: note_off channel=4 note=70 velocity=0 time=0.12096775000000001
EXTRACT: note_on channel=4 note=67 velocity=89 time=0
EXTRACT: note_off channel=0 note=67 velocity=0 time=0
EXTRACT: note_on channel=0 note=65 velocity=89 time=0
EXTRACT: note_off channel=1 note=74 velocity=0 time=0
EXTRACT: note_off channel=1 note=79 velocity=0 time=0
EXTRACT: note_on channel=1 note=77 velocity=89 time=0
EXTRACT: note_off channel=2 note=60 velocity=0 time=0
EXTRACT: note_on channel=2 note=56 velocity=89 time=0
EXTRACT: note_off channel=4 note=67 velocity=0 time=0
EXTRACT: note_on channel=4 note=68 velocity=89 time=0
EXTRACT: note_off channel=6 note=74 velocity=0 time=0
EXTRACT: note_off channel=6 note=79 velocity=0 time=0
EXTRACT: note_on channel=6 note=77 velocity=89 time=0
EXTRACT: note_off channel=7 note=60 velocity=0 time=0
EXTRACT: note_on channel=7 note=56 velocity=89 time=0
EXTRACT: note_off channel=8 note=67 velocity=0 time=0
EXTRACT: note_on channel=8 note=65 velocity=89 time=0
EXTRACT: note_off channel=1 note=77 velocity=0 time=0.24193550000000003
EXTRACT: note_on channel=1 note=68 velocity=89 time=0
EXTRACT: note_off channel=6 note=77 velocity=0 time=0
EXTRACT: note_on channel=6 note=68 velocity=89 time=0
EXTRACT: note_off channel=0 note=65 velocity=0 time=0
EXTRACT: note_on channel=0 note=65 velocity=89 time=0
EXTRACT: note_off channel=1 note=68 velocity=0 time=0
EXTRACT: note_on channel=1 note=72 velocity=89 time=0
EXTRACT: note_off channel=4 note=68 velocity=0 time=0
EXTRACT: note_on channel=4 note=68 velocity=89 time=0
EXTRACT: note_off channel=6 note=68 velocity=0 time=0
EXTRACT: note_on channel=6 note=72 velocity=89 time=0
EXTRACT: note_off channel=8 note=65 velocity=0 time=0
EXTRACT: note_on channel=8 note=65 velocity=89 time=0
EXTRACT: note_off channel=1 note=72 velocity=0 time=0.24193550000000003
EXTRACT: note_on channel=1 note=77 velocity=89 time=0
EXTRACT: note_off channel=6 note=72 velocity=0 time=0
EXTRACT: note_on channel=6 note=77 velocity=89 time=0
EXTRACT: note_off channel=0 note=65 velocity=0 time=0
EXTRACT: note_on channel=0 note=65 velocity=89 time=0
EXTRACT: note_off channel=4 note=68 velocity=0 time=0
EXTRACT: note_on channel=4 note=68 velocity=89 time=0
EXTRACT: note_off channel=8 note=65 velocity=0 time=0
EXTRACT: note_on channel=8 note=65 velocity=89 time=0
EXTRACT: note_off channel=1 note=77 velocity=0 time=0.24193550000000003
EXTRACT: note_on channel=1 note=68 velocity=89 time=0
EXTRACT: note_off channel=6 note=77 velocity=0 time=0
EXTRACT: note_on channel=6 note=68 velocity=89 time=0
EXTRACT: note_off channel=0 note=65 velocity=0 time=0
EXTRACT: note_on channel=0 note=63 velocity=89 time=0
EXTRACT: note_off channel=1 note=68 velocity=0 time=0
EXTRACT: note_on channel=1 note=67 velocity=89 time=0
EXTRACT: note_off channel=4 note=68 velocity=0 time=0
EXTRACT: note_on channel=4 note=67 velocity=89 time=0
EXTRACT: note_off channel=6 note=68 velocity=0 time=0
EXTRACT: note_on channel=6 note=67 velocity=89 time=0
EXTRACT: note_off channel=8 note=65 velocity=0 time=0
EXTRACT: note_on channel=8 note=63 velocity=89 time=0
EXTRACT: note_off channel=0 note=63 velocity=0 time=0
EXTRACT: note_on channel=0 note=65 velocity=89 time=0
EXTRACT: note_off channel=1 note=67 velocity=0 time=0
EXTRACT: note_on channel=1 note=72 velocity=89 time=0
EXTRACT: note_off channel=4 note=67 velocity=0 time=0
EXTRACT: note_on channel=4 note=68 velocity=89 time=0
EXTRACT: note_off channel=6 note=67 velocity=0 time=0
EXTRACT: note_on channel=6 note=72 velocity=89 time=0
EXTRACT: note_off channel=8 note=63 velocity=0 time=0
EXTRACT: note_on channel=8 note=65 velocity=89 time=0
EXTRACT: note_off channel=0 note=65 velocity=0 time=0
EXTRACT: note_on channel=0 note=63 velocity=89 time=0
EXTRACT: note_off channel=1 note=72 velocity=0 time=0
EXTRACT: note_on channel=1 note=80 velocity=89 time=0
EXTRACT: note_off channel=4 note=68 velocity=0 time=0
EXTRACT: note_on channel=4 note=65 velocity=89 time=0
EXTRACT: note_off channel=6 note=72 velocity=0 time=0
EXTRACT: note_on channel=6 note=80 velocity=89 time=0
EXTRACT: note_off channel=8 note=65 velocity=0 time=0
EXTRACT: note_on channel=8 note=63 velocity=89 time=0
EXTRACT: note_off channel=0 note=63 velocity=0 time=0.24193550000000003
EXTRACT: note_off channel=1 note=80 velocity=0 time=0
EXTRACT: note_on channel=1 note=68 velocity=89 time=0
EXTRACT: note_off channel=4 note=65 velocity=0 time=0
EXTRACT: note_off channel=6 note=80 velocity=0 time=0
EXTRACT: note_on channel=6 note=68 velocity=89 time=0
EXTRACT: note_off channel=8 note=63 velocity=0 time=0
EXTRACT: note_off channel=1 note=68 velocity=0 time=0.24193550000000003
EXTRACT: note_on channel=1 note=72 velocity=89 time=0
EXTRACT: note_off channel=6 note=68 velocity=0 time=0
EXTRACT: note_on channel=6 note=72 velocity=89 time=0
EXTRACT: note_off channel=1 note=72 velocity=0 time=0.24193550000000003
EXTRACT: note_on channel=1 note=79 velocity=89 time=0
EXTRACT: note_off channel=6 note=72 velocity=0 time=0
EXTRACT: note_on channel=6 note=79 velocity=89 time=0
EXTRACT: note_on channel=0 note=67 velocity=89 time=0
EXTRACT: note_off channel=1 note=79 velocity=0 time=0
EXTRACT: note_on channel=1 note=68 velocity=89 time=0
EXTRACT: note_on channel=4 note=72 velocity=89 time=0
EXTRACT: note_off channel=6 note=79 velocity=0 time=0
EXTRACT: note_on channel=6 note=68 velocity=89 time=0
EXTRACT: note_on channel=8 note=67 velocity=89 time=0
EXTRACT: note_off channel=4 note=72 velocity=0 time=0
EXTRACT: note_on channel=4 note=72 velocity=89 time=0
EXTRACT: note_off channel=1 note=68 velocity=0 time=0.24193550000000003
EXTRACT: note_on channel=1 note=75 velocity=89 time=0
EXTRACT: note_off channel=6 note=68 velocity=0 time=0
EXTRACT: note_on channel=6 note=75 velocity=89 time=0
EXTRACT: note_off channel=0 note=67 velocity=0 time=0
EXTRACT: note_on channel=0 note=65 velocity=89 time=0
EXTRACT: note_off channel=1 note=75 velocity=0 time=0
EXTRACT: note_on channel=1 note=77 velocity=89 time=0
EXTRACT: note_off channel=6 note=75 velocity=0 time=0
EXTRACT: note_on channel=6 note=77 velocity=89 time=0
EXTRACT: note_off channel=8 note=67 velocity=0 time=0
EXTRACT: note_on channel=8 note=65 velocity=89 time=0
EXTRACT: note_off channel=0 note=65 velocity=0 time=0
EXTRACT: note_on channel=0 note=65 velocity=89 time=0
EXTRACT: note_off channel=1 note=77 velocity=0 time=0
EXTRACT: note_on channel=1 note=75 velocity=89 time=0
EXTRACT: note_on channel=1 note=72 velocity=89 time=0
EXTRACT: note_on channel=1 note=68 velocity=89 time=0
EXTRACT: note_off channel=2 note=56 velocity=0 time=0
EXTRACT: note_on channel=2 note=46 velocity=89 time=0
EXTRACT: note_off channel=4 note=72 velocity=0 time=0
EXTRACT: note_on channel=4 note=70 velocity=89 time=0
EXTRACT: note_off channel=6 note=77 velocity=0 time=0
EXTRACT: note_on channel=6 note=75 velocity=89 time=0
EXTRACT: note_on channel=6 note=72 velocity=89 time=0
EXTRACT: note_on channel=6 note=68 velocity=89 time=0
EXTRACT: note_off channel=7 note=56 velocity=0 time=0
EXTRACT: note_on channel=7 note=46 velocity=89 time=0
EXTRACT: note_off channel=8 note=65 velocity=0 time=0
EXTRACT: note_on channel=8 note=65 velocity=89 time=0
EXTRACT: note_off channel=0 note=65 velocity=0 time=0
EXTRACT: note_on channel=0 note=65 velocity=89 time=0
EXTRACT: note_off channel=4 note=70 velocity=0 time=0
EXTRACT: note_on channel=4 note=70 velocity=89 time=0
EXTRACT: note_off channel=8 note=65 velocity=0 time=0
EXTRACT: note_on channel=8 note=65 velocity=89 time=0
EXTRACT: note_off channel=1 note=68 velocity=0 time=0.24193550000000003
EXTRACT: note_off channel=1 note=72 velocity=0 time=0
EXTRACT: note_off channel=1 note=75 velocity=0 time=0
EXTRACT: note_on channel=1 note=75 velocity=89 time=0
EXTRACT: note_off channel=6 note=68 velocity=0 time=0
EXTRACT: note_off channel=6 note=72 velocity=0 time=0
EXTRACT: note_off channel=6 note=75 velocity=0 time=0
EXTRACT: note_on channel=6 note=75 velocity=89 time=0
EXTRACT: note_off channel=0 note=65 velocity=0 time=0
EXTRACT: note_on channel=0 note=65 velocity=89 time=0
EXTRACT: note_off channel=4 note=70 velocity=0 time=0
EXTRACT: note_on channel=4 note=70 velocity=89 time=0
EXTRACT: note_off channel=8 note=65 velocity=0 time=0
EXTRACT: note_on channel=8 note=65 velocity=89 time=0
EXTRACT: note_off channel=0 note=65 velocity=0 time=0
EXTRACT: note_on channel=0 note=63 velocity=89 time=0
EXTRACT: note_off channel=4 note=70 velocity=0 time=0
EXTRACT: note_on channel=4 note=67 velocity=89 time=0
EXTRACT: note_off channel=8 note=65 velocity=0 time=0
EXTRACT: note_on channel=8 note=63 velocity=89 time=0
EXTRACT: note_off channel=0 note=63 velocity=0 time=0
EXTRACT: note_on channel=0 note=65 velocity=89 time=0
EXTRACT: note_off channel=1 note=75 velocity=0 time=0
EXTRACT: note_on channel=1 note=77 velocity=89 time=0
EXTRACT: note_off channel=4 note=67 velocity=0 time=0
EXTRACT: note_on channel=4 note=70 velocity=89 time=0
EXTRACT: note_off channel=6 note=75 velocity=0 time=0
EXTRACT: note_on channel=6 note=77 velocity=89 time=0
EXTRACT: note_off channel=8 note=63 velocity=0 time=0
EXTRACT: note_on channel=8 note=65 velocity=89 time=0
EXTRACT: note_off channel=0 note=65 velocity=0 time=0
EXTRACT: note_on channel=0 note=63 velocity=89 time=0
EXTRACT: note_off channel=1 note=77 velocity=0 time=0
EXTRACT: note_on channel=1 note=74 velocity=89 time=0
EXTRACT: note_on channel=1 note=70 velocity=89 time=0
EXTRACT: note_off channel=2 note=46 velocity=0 time=0
EXTRACT: note_on channel=2 note=58 velocity=89 time=0
EXTRACT: note_off channel=4 note=70 velocity=0 time=0
EXTRACT: note_on channel=4 note=67 velocity=89 time=0
EXTRACT: note_off channel=6 note=77 velocity=0 time=0
EXTRACT: note_on channel=6 note=74 velocity=89 time=0
EXTRACT: note_on channel=6 note=70 velocity=89 time=0
EXTRACT: note_off channel=7 note=46 velocity=0 time=0
EXTRACT: note_on channel=7 note=58 velocity=89 time=0
EXTRACT: note_off channel=8 note=65 velocity=0 time=0
EXTRACT: note_on channel=8 note=63 velocity=89 time=0
EXTRACT: note_off channel=0 note=63 velocity=0 time=0.24193550000000003
EXTRACT: note_off channel=4 note=67 velocity=0 time=0
EXTRACT: note_off channel=8 note=63 velocity=0 time=0
EXTRACT: note_on channel=0 note=67 velocity=89 time=0
EXTRACT: note_off channel=1 note=70 velocity=0 time=0
EXTRACT: note_off channel=1 note=74 velocity=0 time=0
EXTRACT: note_on channel=1 note=70 velocity=89 time=0
EXTRACT: note_on channel=4 note=67 velocity=89 time=0
EXTRACT: note_off channel=6 note=70 velocity=0 time=0
EXTRACT: note_off channel=6 note=74 velocity=0 time=0
EXTRACT: note_on channel=6 note=70 velocity=89 time=0
EXTRACT: note_on channel=8 note=67 velocity=89 time=0
EXTRACT: note_off channel=0 note=67 velocity=0 time=0
EXTRACT: note_on channel=0 note=67 velocity=89 time=0
EXTRACT: note_off channel=1 note=70 velocity=0 time=0
EXTRACT: note_on channel=1 note=82 velocity=89 time=0
EXTRACT: note_off channel=4 note=67 velocity=0 time=0
EXTRACT: note_on channel=4 note=75 velocity=89 time=0
EXTRACT: note_off channel=6 note=70 velocity=0 time=0
EXTRACT: note_on channel=6 note=82 velocity=89 time=0
EXTRACT: note_off channel=8 note=67 velocity=0 time=0
EXTRACT: note_on channel=8 note=67 velocity=89 time=0
EXTRACT: note_off channel=0 note=67 velocity=0 time=0
EXTRACT: note_on channel=0 note=68 velocity=89 time=0
EXTRACT: note_off channel=4 note=75 velocity=0 time=0
EXTRACT: note_on channel=4 note=75 velocity=89 time=0
EXTRACT: note_off channel=8 note=67 velocity=0 time=0
EXTRACT: note_on channel=8 note=68 velocity=89 time=0
EXTRACT: note_off channel=0 note=68 velocity=0 time=0
EXTRACT: note_on channel=0 note=70 velocity=89 time=0
EXTRACT: note_off channel=4 note=75 velocity=0 time=0
EXTRACT: note_on channel=4 note=75 velocity=89 time=0
EXTRACT: note_off channel=8 note=68 velocity=0 time=0
EXTRACT: note_on channel=8 note=70 velocity=89 time=0
EXTRACT: note_off channel=0 note=70 velocity=0 time=0
EXTRACT: note_on channel=0 note=75 velocity=89 time=0
EXTRACT: note_off channel=4 note=75 velocity=0 time=0
EXTRACT: note_on channel=4 note=79 velocity=89 time=0
EXTRACT: note_off channel=8 note=70 velocity=0 time=0
EXTRACT: note_on channel=8 note=75 velocity=89 time=0
EXTRACT: note_off channel=1 note=82 velocity=0 time=0
EXTRACT: note_on channel=1 note=79 velocity=89 time=0
EXTRACT: note_on channel=1 note=87 velocity=89 time=0
EXTRACT: note_off channel=2 note=58 velocity=0 time=0
EXTRACT: note_on channel=2 note=48 velocity=89 time=0
EXTRACT: note_off channel=6 note=82 velocity=0 time=0
EXTRACT: note_on channel=6 note=79 velocity=89 time=0
EXTRACT: note_on channel=6 note=87 velocity=89 time=0
EXTRACT: note_off channel=7 note=58 velocity=0 time=0
EXTRACT: note_on channel=7 note=48 velocity=89 time=0
EXTRACT: note_on channel=5 note=60 velocity=89 time=0.48387100000000005
EXTRACT: note_off channel=0 note=75 velocity=0 time=0
EXTRACT: note_on channel=0 note=74 velocity=89 time=0
EXTRACT: note_off channel=1 note=87 velocity=0 time=0
EXTRACT: note_off channel=1 note=79 velocity=0 time=0
EXTRACT: note_on channel=1 note=77 velocity=89 time=0
EXTRACT: note_on channel=1 note=86 velocity=89 time=0
EXTRACT: note_off channel=4 note=79 velocity=0 time=0
EXTRACT: note_on channel=4 note=77 velocity=89 time=0
EXTRACT: note_off channel=6 note=87 velocity=0 time=0
EXTRACT: note_off channel=6 note=79 velocity=0 time=0
EXTRACT: note_on channel=6 note=77 velocity=89 time=0
EXTRACT: note_on channel=6 note=86 velocity=89 time=0
EXTRACT: note_off channel=8 note=75 velocity=0 time=0
EXTRACT: note_on channel=8 note=74 velocity=89 time=0
EXTRACT: note_off channel=0 note=74 velocity=0 time=0
EXTRACT: note_on channel=0 note=75 velocity=89 time=0
EXTRACT: note_off channel=4 note=77 velocity=0 time=0
EXTRACT: note_on channel=4 note=79 velocity=89 time=0
EXTRACT: note_off channel=8 note=74 velocity=0 time=0
EXTRACT: note_on channel=8 note=75 velocity=89 time=0
EXTRACT: note_off channel=0 note=75 velocity=0 time=0
EXTRACT: note_on channel=0 note=74 velocity=89 time=0
EXTRACT: note_off channel=8 note=75 velocity=0 time=0
EXTRACT: note_on channel=8 note=74 velocity=89 time=0
EXTRACT: note_off channel=5 note=60 velocity=0 time=0.24193550000000003
EXTRACT: note_on channel=5 note=60 velocity=89 time=0
EXTRACT: note_off channel=0 note=74 velocity=0 time=0
EXTRACT: note_on channel=0 note=72 velocity=89 time=0
EXTRACT: note_off channel=1 note=86 velocity=0 time=0
EXTRACT: note_off channel=1 note=77 velocity=0 time=0
EXTRACT: note_on channel=1 note=84 velocity=89 time=0
EXTRACT: note_on channel=3 note=84 velocity=89 time=0
EXTRACT: note_off channel=4 note=79 velocity=0 time=0
EXTRACT: note_on channel=4 note=75 velocity=89 time=0
EXTRACT: note_off channel=6 note=86 velocity=0 time=0
EXTRACT: note_off channel=6 note=77 velocity=0 time=0
EXTRACT: note_on channel=6 note=84 velocity=89 time=0
EXTRACT: note_off channel=8 note=74 velocity=0 time=0
EXTRACT: note_on channel=8 note=72 velocity=89 time=0
EXTRACT: note_off channel=1 note=84 velocity=0 time=0
EXTRACT: note_on channel=1 note=80 velocity=89 time=0
EXTRACT: note_off channel=2 note=48 velocity=0 time=0
EXTRACT: note_on channel=2 note=44 velocity=89 time=0
EXTRACT: note_off channel=5 note=60 velocity=0 time=0
EXTRACT: note_off channel=6 note=84 velocity=0 time=0
EXTRACT: note_on channel=6 note=80 velocity=89 time=0
EXTRACT: note_off channel=7 note=48 velocity=0 time=0
EXTRACT: note_on channel=7 note=44 velocity=89 time=0
EXTRACT: note_off channel=1 note=80 velocity=0 time=0.24193550000000003
EXTRACT: note_on channel=1 note=75 velocity=89 time=0
EXTRACT: note_off channel=6 note=80 velocity=0 time=0
EXTRACT: note_on channel=6 note=75 velocity=89 time=0
EXTRACT: note_off channel=1 note=75 velocity=0 time=0.24193550000000003
EXTRACT: note_on channel=1 note=72 velocity=89 time=0
EXTRACT: note_off channel=6 note=75 velocity=0 time=0
EXTRACT: note_on channel=6 note=72 velocity=89 time=0
EXTRACT: note_off channel=0 note=72 velocity=0 time=0
EXTRACT: note_on channel=0 note=70 velocity=89 time=0
EXTRACT: note_off channel=3 note=84 velocity=0 time=0
EXTRACT: note_on channel=3 note=82 velocity=89 time=0
EXTRACT: note_off channel=4 note=75 velocity=0 time=0
EXTRACT: note_on channel=4 note=70 velocity=89 time=0
EXTRACT: note_off channel=8 note=72 velocity=0 time=0
EXTRACT: note_on channel=8 note=70 velocity=89 time=0
EXTRACT: note_off channel=0 note=70 velocity=0 time=0.24193550000000003
EXTRACT: note_off channel=4 note=70 velocity=0 time=0
EXTRACT: note_off channel=8 note=70 velocity=0 time=0
EXTRACT: note_on channel=5 note=56 velocity=89 time=0.24193550000000003
EXTRACT: note_on channel=0 note=67 velocity=89 time=0
EXTRACT: note_off channel=3 note=82 velocity=0 time=0
EXTRACT: note_on channel=3 note=75 velocity=89 time=0
EXTRACT: note_on channel=4 note=75 velocity=89 time=0
EXTRACT: note_on channel=8 note=67 velocity=89 time=0
EXTRACT: note_off channel=0 note=67 velocity=0 time=0
EXTRACT: note_on channel=0 note=67 velocity=89 time=0
EXTRACT: note_off channel=3 note=75 velocity=0 time=0
EXTRACT: note_on channel=3 note=79 velocity=89 time=0
EXTRACT: note_off channel=4 note=75 velocity=0 time=0
EXTRACT: note_on channel=4 note=75 velocity=89 time=0
EXTRACT: note_off channel=8 note=67 velocity=0 time=0
EXTRACT: note_on channel=8 note=67 velocity=89 time=0
EXTRACT: note_off channel=1 note=72 velocity=0 time=0
EXTRACT: note_on channel=1 note=75 velocity=89 time=0
EXTRACT: note_off channel=2 note=44 velocity=0 time=0
EXTRACT: note_on channel=2 note=51 velocity=89 time=0
EXTRACT: note_off channel=3 note=79 velocity=0 time=0
EXTRACT: note_off channel=5 note=56 velocity=0 time=0
EXTRACT: note_off channel=6 note=72 velocity=0 time=0
EXTRACT: note_on channel=6 note=75 velocity=89 time=0
EXTRACT: note_off channel=7 note=44 velocity=0 time=0
EXTRACT: note_on channel=7 note=51 velocity=89 time=0
EXTRACT: note_off channel=1 note=75 velocity=0 time=0.24193550000000003
EXTRACT: note_on channel=1 note=67 velocity=89 time=0
EXTRACT: note_off channel=6 note=75 velocity=0 time=0
EXTRACT: note_on channel=6 note=67 velocity=89 time=0
EXTRACT: note_off channel=1 note=67 velocity=0 time=0.24193550000000003
EXTRACT: note_on channel=1 note=70 velocity=89 time=0
EXTRACT: note_off channel=6 note=67 velocity=0 time=0
EXTRACT: note_on channel=6 note=70 velocity=89 time=0
EXTRACT: note_off channel=1 note=70 velocity=0 time=0.24193550000000003
EXTRACT: note_on channel=1 note=77 velocity=89 time=0
EXTRACT: note_on channel=1 note=82 velocity=89 time=0
EXTRACT: note_off channel=6 note=70 velocity=0 time=0
EXTRACT: note_on channel=6 note=77 velocity=89 time=0
EXTRACT: note_on channel=6 note=82 velocity=89 time=0
EXTRACT: note_off channel=0 note=67 velocity=0 time=0.24193550000000003
EXTRACT: note_off channel=4 note=75 velocity=0 time=0
EXTRACT: note_off channel=8 note=67 velocity=0 time=0
EXTRACT: note_off channel=1 note=82 velocity=0 time=0.24193550000000003
EXTRACT: note_off channel=1 note=77 velocity=0 time=0
EXTRACT: note_on channel=1 note=75 velocity=89 time=0
EXTRACT: note_off channel=6 note=82 velocity=0 time=0
EXTRACT: note_off channel=6 note=77 velocity=0 time=0
EXTRACT: note_on channel=6 note=75 velocity=89 time=0
EXTRACT: note_off channel=1 note=75 velocity=0 time=0.48387100000000005
EXTRACT: note_on channel=1 note=82 velocity=89 time=0
EXTRACT: note_off channel=6 note=75 velocity=0 time=0
EXTRACT: note_on channel=6 note=82 velocity=89 time=0
EXTRACT: note_off channel=1 note=82 velocity=0 time=0.24193550000000003
EXTRACT: note_on channel=1 note=82 velocity=89 time=0
EXTRACT: note_on channel=1 note=77 velocity=89 time=0
EXTRACT: note_on channel=1 note=74 velocity=89 time=0
EXTRACT: note_on channel=1 note=72 velocity=89 time=0
EXTRACT: note_off channel=2 note=51 velocity=0 time=0
EXTRACT: note_on channel=2 note=46 velocity=89 time=0
EXTRACT: note_on channel=2 note=58 velocity=89 time=0
EXTRACT: note_off channel=6 note=82 velocity=0 time=0
EXTRACT: note_on channel=6 note=82 velocity=89 time=0
EXTRACT: note_on channel=6 note=77 velocity=89 time=0
EXTRACT: note_on channel=6 note=74 velocity=89 time=0
EXTRACT: note_on channel=6 note=72 velocity=89 time=0
EXTRACT: note_off channel=7 note=51 velocity=0 time=0
EXTRACT: note_on channel=7 note=46 velocity=89 time=0
EXTRACT: note_on channel=7 note=58 velocity=89 time=0
EXTRACT: note_on channel=0 note=67 velocity=89 time=0
EXTRACT: note_on channel=8 note=67 velocity=89 time=0
EXTRACT: note_off channel=0 note=67 velocity=0 time=0
EXTRACT: note_on channel=0 note=67 velocity=89 time=0
EXTRACT: note_on channel=4 note=75 velocity=89 time=0
EXTRACT: note_off channel=8 note=67 velocity=0 time=0
EXTRACT: note_on channel=8 note=67 velocity=89 time=0
EXTRACT: note_off channel=0 note=67 velocity=0 time=0
EXTRACT: note_on channel=0 note=68 velocity=89 time=0
EXTRACT: note_off channel=4 note=75 velocity=0 time=0
EXTRACT: note_on channel=4 note=75 velocity=89 time=0
EXTRACT: note_off channel=8 note=67 velocity=0 time=0
EXTRACT: note_on channel=8 note=68 velocity=89 time=0
EXTRACT: note_off channel=0 note=68 velocity=0 time=0
EXTRACT: note_on channel=0 note=70 velocity=89 time=0
EXTRACT: note_off channel=4 note=75 velocity=0 time=0
EXTRACT: note_on channel=4 note=75 velocity=89 time=0
EXTRACT: note_off channel=8 note=68 velocity=0 time=0
EXTRACT: note_on channel=8 note=70 velocity=89 time=0
EXTRACT: note_off channel=0 note=70 velocity=0 time=0
EXTRACT: note_on channel=0 note=75 velocity=89 time=0
EXTRACT: note_off channel=4 note=75 velocity=0 time=0
EXTRACT: note_on channel=4 note=79 velocity=89 time=0
EXTRACT: note_off channel=8 note=70 velocity=0 time=0
EXTRACT: note_on channel=8 note=75 velocity=89 time=0
EXTRACT: note_off channel=1 note=72 velocity=0 time=0
EXTRACT: note_off channel=1 note=74 velocity=0 time=0
EXTRACT: note_off channel=1 note=77 velocity=0 time=0
EXTRACT: note_off channel=1 note=82 velocity=0 time=0
EXTRACT: note_on channel=1 note=79 velocity=89 time=0
EXTRACT: note_on channel=1 note=87 velocity=89 time=0
EXTRACT: note_off channel=2 note=58 velocity=0 time=0
EXTRACT: note_off channel=2 note=46 velocity=0 time=0
EXTRACT: note_on channel=2 note=48 velocity=89 time=0
EXTRACT: note_off channel=6 note=72 velocity=0 time=0
EXTRACT: note_off channel=6 note=74 velocity=0 time=0
EXTRACT: note_off channel=6 note=77 velocity=0 time=0
EXTRACT: note_off channel=6 note=82 velocity=0 time=0
EXTRACT: note_on channel=6 note=79 velocity=89 time=0
EXTRACT: note_on channel=6 note=87 velocity=89 time=0
EXTRACT: note_off channel=7 note=58 velocity=0 time=0
EXTRACT: note_off channel=7 note=46 velocity=0 time=0
EXTRACT: note_on channel=7 note=48 velocity=89 time=0
EXTRACT: note_on channel=5 note=60 velocity=89 time=0.48387100000000005
EXTRACT: note_off channel=0 note=75 velocity=0 time=0
EXTRACT: note_on channel=0 note=74 velocity=89 time=0
EXTRACT: note_off channel=1 note=87 velocity=0 time=0
EXTRACT: note_off channel=1 note=79 velocity=0 time=0
EXTRACT: note_on channel=1 note=77 velocity=89 time=0
EXTRACT: note_on channel=1 note=86 velocity=89 time=0
EXTRACT: note_off channel=4 note=79 velocity=0 time=0
EXTRACT: note_on channel=4 note=77 velocity=89 time=0
EXTRACT: note_off channel=6 note=87 velocity=0 time=0
EXTRACT: note_off channel=6 note=79 velocity=0 time=0
EXTRACT: note_on channel=6 note=77 velocity=89 time=0
EXTRACT: note_on channel=6 note=86 velocity=89 time=0
EXTRACT: note_off channel=8 note=75 velocity=0 time=0
EXTRACT: note_on channel=8 note=74 velocity=89 time=0
EXTRACT: note_off channel=0 note=74 velocity=0 time=0
EXTRACT: note_on channel=0 note=75 velocity=89 time=0
EXTRACT: note_off channel=4 note=77 velocity=0 time=0
EXTRACT: note_on channel=4 note=79 velocity=89 time=0
EXTRACT: note_off channel=8 note=74 velocity=0 time=0
EXTRACT: note_on channel=8 note=75 velocity=89 time=0
EXTRACT: note_off channel=0 note=75 velocity=0 time=0
EXTRACT: note_on channel=0 note=74 velocity=89 time=0
EXTRACT: note_off channel=8 note=75 velocity=0 time=0
EXTRACT: note_on channel=8 note=74 velocity=89 time=0
EXTRACT: note_off channel=5 note=60 velocity=0 time=0.24193550000000003
EXTRACT: note_on channel=5 note=60 velocity=89 time=0
EXTRACT: note_off channel=0 note=74 velocity=0 time=0
EXTRACT: note_on channel=0 note=72 velocity=89 time=0
EXTRACT: note_off channel=1 note=86 velocity=0 time=0
EXTRACT: note_off channel=1 note=77 velocity=0 time=0
EXTRACT: note_on channel=1 note=84 velocity=89 time=0
EXTRACT: note_on channel=3 note=84 velocity=89 time=0
EXTRACT: note_off channel=4 note=79 velocity=0 time=0
EXTRACT: note_on channel=4 note=75 velocity=89 time=0
EXTRACT: note_off channel=6 note=86 velocity=0 time=0
EXTRACT: note_off channel=6 note=77 velocity=0 time=0
EXTRACT: note_on channel=6 note=84 velocity=89 time=0
EXTRACT: note_off channel=8 note=74 velocity=0 time=0
EXTRACT: note_on channel=8 note=72 velocity=89 time=0
EXTRACT: note_off channel=1 note=84 velocity=0 time=0
EXTRACT: note_on channel=1 note=80 velocity=89 time=0
EXTRACT: note_off channel=2 note=48 velocity=0 time=0
EXTRACT: note_on channel=2 note=56 velocity=89 time=0
EXTRACT: note_off channel=5 note=60 velocity=0 time=0
EXTRACT: note_off channel=6 note=84 velocity=0 time=0
EXTRACT: note_on channel=6 note=80 velocity=89 time=0
EXTRACT: note_off channel=7 note=48 velocity=0 time=0
EXTRACT: note_on channel=7 note=56 velocity=89 time=0
EXTRACT: note_off channel=1 note=80 velocity=0 time=0.24193550000000003
EXTRACT: note_on channel=1 note=75 velocity=89 time=0
EXTRACT: note_off channel=6 note=80 velocity=0 time=0
EXTRACT: note_on channel=6 note=75 velocity=89 time=0
EXTRACT: note_off channel=1 note=75 velocity=0 time=0.24193550000000003
EXTRACT: note_on channel=1 note=72 velocity=89 time=0
EXTRACT: note_off channel=6 note=75 velocity=0 time=0
EXTRACT: note_on channel=6 note=72 velocity=89 time=0
EXTRACT: note_off channel=0 note=72 velocity=0 time=0
EXTRACT: note_on channel=0 note=70 velocity=89 time=0
EXTRACT: note_off channel=3 note=84 velocity=0 time=0
EXTRACT: note_on channel=3 note=82 velocity=89 time=0
EXTRACT: note_off channel=4 note=75 velocity=0 time=0
EXTRACT: note_on channel=4 note=70 velocity=89 time=0
EXTRACT: note_off channel=8 note=72 velocity=0 time=0
EXTRACT: note_on channel=8 note=70 velocity=89 time=0
EXTRACT: note_off channel=0 note=70 velocity=0 time=0.24193550000000003
EXTRACT: note_off channel=4 note=70 velocity=0 time=0
EXTRACT: note_on channel=5 note=68 velocity=89 time=0
EXTRACT: note_off channel=8 note=70 velocity=0 time=0
EXTRACT: note_on channel=0 note=67 velocity=89 time=0
EXTRACT: note_off channel=3 note=82 velocity=0 time=0
EXTRACT: note_on channel=3 note=75 velocity=89 time=0
EXTRACT: note_on channel=4 note=75 velocity=89 time=0
EXTRACT: note_on channel=8 note=67 velocity=89 time=0
EXTRACT: note_off channel=0 note=67 velocity=0 time=0
EXTRACT: note_on channel=0 note=67 velocity=89 time=0
EXTRACT: note_off channel=3 note=75 velocity=0 time=0
EXTRACT: note_on channel=3 note=79 velocity=89 time=0
EXTRACT: note_off channel=4 note=75 velocity=0 time=0
EXTRACT: note_on channel=4 note=75 velocity=89 time=0
EXTRACT: note_off channel=5 note=68 velocity=0 time=0
EXTRACT: note_off channel=8 note=67 velocity=0 time=0
EXTRACT: note_on channel=8 note=67 velocity=89 time=0
EXTRACT: note_off channel=1 note=72 velocity=0 time=0
EXTRACT: note_on channel=1 note=79 velocity=89 time=0
EXTRACT: note_on channel=1 note=75 velocity=89 time=0
EXTRACT: note_off channel=2 note=56 velocity=0 time=0
EXTRACT: note_on channel=2 note=51 velocity=89 time=0
EXTRACT: note_off channel=3 note=79 velocity=0 time=0
EXTRACT: note_off channel=6 note=72 velocity=0 time=0
EXTRACT: note_on channel=6 note=79 velocity=89 time=0
EXTRACT: note_on channel=6 note=75 velocity=89 time=0
EXTRACT: note_off channel=7 note=56 velocity=0 time=0
EXTRACT: note_on channel=7 note=51 velocity=89 time=0
EXTRACT: note_on channel=5 note=63 velocity=89 time=0.24193550000000003
EXTRACT: note_off channel=5 note=63 velocity=0 time=0.24193550000000003
EXTRACT: note_on channel=5 note=58 velocity=89 time=0
EXTRACT: note_off channel=1 note=75 velocity=0 time=0.24193550000000003
EXTRACT: note_off channel=1 note=79 velocity=0 time=0
EXTRACT: note_on channel=1 note=77 velocity=89 time=0
EXTRACT: note_on channel=1 note=82 velocity=89 time=0
EXTRACT: note_off channel=6 note=75 velocity=0 time=0
EXTRACT: note_off channel=6 note=79 velocity=0 time=0
EXTRACT: note_on channel=6 note=77 velocity=89 time=0
EXTRACT: note_on channel=6 note=82 velocity=89 time=0
EXTRACT: note_off channel=0 note=67 velocity=0 time=0.24193550000000003
EXTRACT: note_off channel=4 note=75 velocity=0 time=0
EXTRACT: note_off channel=8 note=67 velocity=0 time=0
EXTRACT: note_off channel=5 note=58 velocity=0 time=0.24193550000000003
EXTRACT: note_on channel=5 note=63 velocity=89 time=0
EXTRACT: note_off channel=1 note=77 velocity=0 time=0.24193550000000003
EXTRACT: note_off channel=1 note=82 velocity=0 time=0
EXTRACT: note_on channel=1 note=75 velocity=89 time=0
EXTRACT: note_off channel=6 note=77 velocity=0 time=0
EXTRACT: note_off channel=6 note=82 velocity=0 time=0
EXTRACT: note_on channel=6 note=75 velocity=89 time=0
EXTRACT: note_off channel=1 note=75 velocity=0 time=0.24193550000000003
EXTRACT: note_on channel=1 note=82 velocity=89 time=0
EXTRACT: note_off channel=6 note=75 velocity=0 time=0
EXTRACT: note_on channel=6 note=82 velocity=89 time=0
EXTRACT: note_off channel=1 note=82 velocity=0 time=0.24193550000000003
EXTRACT: note_on channel=1 note=82 velocity=89 time=0
EXTRACT: note_on channel=1 note=77 velocity=89 time=0
EXTRACT: note_on channel=1 note=74 velocity=89 time=0
EXTRACT: note_off channel=2 note=51 velocity=0 time=0
EXTRACT: note_on channel=2 note=46 velocity=89 time=0
EXTRACT: note_off channel=5 note=63 velocity=0 time=0
EXTRACT: note_off channel=6 note=82 velocity=0 time=0
EXTRACT: note_on channel=6 note=82 velocity=89 time=0
EXTRACT: note_on channel=6 note=77 velocity=89 time=0
EXTRACT: note_on channel=6 note=74 velocity=89 time=0
EXTRACT: note_off channel=7 note=51 velocity=0 time=0
EXTRACT: note_on channel=7 note=46 velocity=89 time=0
EXTRACT: note_off channel=2 note=46 velocity=0 time=0.7258065
EXTRACT: note_on channel=2 note=58 velocity=89 time=0
EXTRACT: note_off channel=7 note=46 velocity=0 time=0
EXTRACT: note_on channel=7 note=58 velocity=89 time=0
EXTRACT: note_on channel=0 note=67 velocity=89 time=0
EXTRACT: note_off channel=2 note=58 velocity=0 time=0
EXTRACT: note_on channel=2 note=58 velocity=89 time=0
EXTRACT: note_off channel=7 note=58 velocity=0 time=0
EXTRACT: note_on channel=7 note=58 velocity=89 time=0
EXTRACT: note_on channel=8 note=67 velocity=89 time=0
EXTRACT: note_off channel=0 note=67 velocity=0 time=0
EXTRACT: note_on channel=0 note=68 velocity=89 time=0
EXTRACT: note_off channel=8 note=67 velocity=0 time=0
EXTRACT: note_on channel=8 note=68 velocity=89 time=0
EXTRACT: note_off channel=0 note=68 velocity=0 time=0
EXTRACT: note_on channel=0 note=70 velocity=89 time=0
EXTRACT: note_off channel=8 note=68 velocity=0 time=0
EXTRACT: note_on channel=8 note=70 velocity=89 time=0
EXTRACT: note_off channel=0 note=70 velocity=0 time=0
EXTRACT: note_on channel=0 note=75 velocity=89 time=0
EXTRACT: note_off channel=8 note=70 velocity=0 time=0
EXTRACT: note_on channel=8 note=75 velocity=89 time=0
EXTRACT: note_off channel=1 note=74 velocity=0 time=0
EXTRACT: note_off channel=1 note=77 velocity=0 time=0
EXTRACT: note_off channel=1 note=82 velocity=0 time=0
EXTRACT: note_on channel=1 note=87 velocity=89 time=0
EXTRACT: note_off channel=2 note=58 velocity=0 time=0
EXTRACT: note_on channel=2 note=60 velocity=89 time=0
EXTRACT: note_off channel=6 note=74 velocity=0 time=0
EXTRACT: note_off channel=6 note=77 velocity=0 time=0
EXTRACT: note_off channel=6 note=82 velocity=0 time=0
EXTRACT: note_on channel=6 note=87 velocity=89 time=0
EXTRACT: note_off channel=7 note=58 velocity=0 time=0
EXTRACT: note_on channel=7 note=60 velocity=89 time=0
EXTRACT: note_off channel=1 note=87 velocity=0 time=0.24193550000000003
EXTRACT: note_on channel=1 note=75 velocity=89 time=0
EXTRACT: note_off channel=6 note=87 velocity=0 time=0
EXTRACT: note_on channel=6 note=75 velocity=89 time=0
EXTRACT: note_off channel=0 note=75 velocity=0 time=0
EXTRACT: note_on channel=0 note=77 velocity=89 time=0
EXTRACT: note_off channel=1 note=75 velocity=0 time=0
EXTRACT: note_on channel=1 note=79 velocity=89 time=0
EXTRACT: note_off channel=6 note=75 velocity=0 time=0
EXTRACT: note_on channel=6 note=79 velocity=89 time=0
EXTRACT: note_off channel=8 note=75 velocity=0 time=0
EXTRACT: note_on channel=8 note=77 velocity=89 time=0
EXTRACT: note_off channel=0 note=77 velocity=0 time=0
EXTRACT: note_on channel=0 note=74 velocity=89 time=0
EXTRACT: note_off channel=1 note=79 velocity=0 time=0
EXTRACT: note_on channel=1 note=84 velocity=89 time=0
EXTRACT: note_off channel=6 note=79 velocity=0 time=0
EXTRACT: note_on channel=6 note=84 velocity=89 time=0
EXTRACT: note_off channel=8 note=77 velocity=0 time=0
EXTRACT: note_on channel=8 note=74 velocity=89 time=0
EXTRACT: note_off channel=0 note=74 velocity=0 time=0
EXTRACT: note_on channel=0 note=75 velocity=89 time=0
EXTRACT: note_off channel=8 note=74 velocity=0 time=0
EXTRACT: note_on channel=8 note=75 velocity=89 time=0
EXTRACT: note_off channel=0 note=75 velocity=0 time=0
EXTRACT: note_on channel=0 note=72 velocity=89 time=0
EXTRACT: note_off channel=8 note=75 velocity=0 time=0
EXTRACT: note_on channel=8 note=72 velocity=89 time=0
EXTRACT: note_off channel=1 note=84 velocity=0 time=0
EXTRACT: note_on channel=1 note=87 velocity=89 time=0
EXTRACT: note_off channel=2 note=60 velocity=0 time=0
EXTRACT: note_on channel=2 note=68 velocity=89 time=0
EXTRACT: note_off channel=6 note=84 velocity=0 time=0
EXTRACT: note_on channel=6 note=87 velocity=89 time=0
EXTRACT: note_off channel=7 note=60 velocity=0 time=0
EXTRACT: note_on channel=7 note=68 velocity=89 time=0
EXTRACT: note_off channel=1 note=87 velocity=0 time=0.24193550000000003
EXTRACT: note_on channel=1 note=75 velocity=89 time=0
EXTRACT: note_off channel=6 note=87 velocity=0 time=0
EXTRACT: note_on channel=6 note=75 velocity=89 time=0
EXTRACT: note_off channel=1 note=75 velocity=0 time=0.24193550000000003
EXTRACT: note_on channel=1 note=80 velocity=89 time=0
EXTRACT: note_off channel=6 note=75 velocity=0 time=0
EXTRACT: note_on channel=6 note=80 velocity=89 time=0
EXTRACT: note_off channel=0 note=72 velocity=0 time=0
EXTRACT: note_on channel=0 note=70 velocity=89 time=0
EXTRACT: note_off channel=1 note=80 velocity=0 time=0
EXTRACT: note_on channel=1 note=84 velocity=89 time=0
EXTRACT: note_off channel=6 note=80 velocity=0 time=0
EXTRACT: note_on channel=6 note=84 velocity=89 time=0
EXTRACT: note_off channel=8 note=72 velocity=0 time=0
EXTRACT: note_on channel=8 note=70 velocity=89 time=0
EXTRACT: note_off channel=0 note=70 velocity=0 time=0.24193550000000003
EXTRACT: note_off channel=8 note=70 velocity=0 time=0
EXTRACT: note_on channel=0 note=67 velocity=89 time=0
EXTRACT: note_on channel=8 note=67 velocity=89 time=0
EXTRACT: note_off channel=0 note=67 velocity=0 time=0
EXTRACT: note_on channel=0 note=67 velocity=89 time=0
EXTRACT: note_off channel=8 note=67 velocity=0 time=0
EXTRACT: note_on channel=8 note=67 velocity=89 time=0
EXTRACT: note_off channel=1 note=84 velocity=0 time=0
EXTRACT: note_on channel=1 note=82 velocity=89 time=0
EXTRACT: note_off channel=2 note=68 velocity=0 time=0
EXTRACT: note_on channel=2 note=63 velocity=89 time=0
EXTRACT: note_off channel=6 note=84 velocity=0 time=0
EXTRACT: note_on channel=6 note=82 velocity=89 time=0
EXTRACT: note_off channel=7 note=68 velocity=0 time=0
EXTRACT: note_on channel=7 note=63 velocity=89 time=0
EXTRACT: note_off channel=1 note=82 velocity=0 time=0.24193550000000003
EXTRACT: note_on channel=1 note=70 velocity=89 time=0
EXTRACT: note_off channel=6 note=82 velocity=0 time=0
EXTRACT: note_on channel=6 note=70 velocity=89 time=0
EXTRACT: note_off channel=1 note=70 velocity=0 time=0.24193550000000003
EXTRACT: note_on channel=1 note=75 velocity=89 time=0
EXTRACT: note_off channel=6 note=70 velocity=0 time=0
EXTRACT: note_on channel=6 note=75 velocity=89 time=0
EXTRACT: note_off channel=1 note=75 velocity=0 time=0.24193550000000003
EXTRACT: note_on channel=1 note=79 velocity=89 time=0
EXTRACT: note_off channel=6 note=75 velocity=0 time=0
EXTRACT: note_on channel=6 note=79 velocity=89 time=0
EXTRACT: note_off channel=0 note=67 velocity=0 time=0.24193550000000003
EXTRACT: note_off channel=1 note=79 velocity=0 time=0
EXTRACT: note_on channel=1 note=79 velocity=89 time=0
EXTRACT: note_off channel=6 note=79 velocity=0 time=0
EXTRACT: note_on channel=6 note=79 velocity=89 time=0
EXTRACT: note_off channel=8 note=67 velocity=0 time=0
EXTRACT: note_off channel=1 note=79 velocity=0 time=0.48387100000000005
EXTRACT: note_on channel=1 note=82 velocity=89 time=0
EXTRACT: note_off channel=6 note=79 velocity=0 time=0
EXTRACT: note_on channel=6 note=82 velocity=89 time=0
EXTRACT: note_off channel=1 note=82 velocity=0 time=0.48387100000000005
EXTRACT: note_on channel=1 note=77 velocity=89 time=0
EXTRACT: note_on channel=1 note=74 velocity=89 time=0
EXTRACT: note_off channel=2 note=63 velocity=0 time=0
EXTRACT: note_on channel=2 note=58 velocity=89 time=0
EXTRACT: note_off channel=6 note=82 velocity=0 time=0
EXTRACT: note_on channel=6 note=77 velocity=89 time=0
EXTRACT: note_on channel=6 note=74 velocity=89 time=0
EXTRACT: note_off channel=7 note=63 velocity=0 time=0
EXTRACT: note_on channel=7 note=58 velocity=89 time=0
EXTRACT: note_on channel=0 note=67 velocity=89 time=0
EXTRACT: note_on channel=8 note=67 velocity=89 time=0
EXTRACT: note_off channel=0 note=67 velocity=0 time=0
EXTRACT: note_on channel=0 note=67 velocity=89 time=0
EXTRACT: note_off channel=8 note=67 velocity=0 time=0
EXTRACT: note_on channel=8 note=67 velocity=89 time=0
EXTRACT: note_off channel=0 note=67 velocity=0 time=0
EXTRACT: note_on channel=0 note=68 velocity=89 time=0
EXTRACT: note_off channel=8 note=67 velocity=0 time=0
EXTRACT: note_on channel=8 note=68 velocity=89 time=0
EXTRACT: note_off channel=0 note=68 velocity=0 time=0
EXTRACT: note_on channel=0 note=70 velocity=89 time=0
EXTRACT: note_off channel=8 note=68 velocity=0 time=0
EXTRACT: note_on channel=8 note=70 velocity=89 time=0
EXTRACT: note_off channel=0 note=70 velocity=0 time=0
EXTRACT: note_on channel=0 note=75 velocity=89 time=0
EXTRACT: note_off channel=8 note=70 velocity=0 time=0
EXTRACT: note_on channel=8 note=75 velocity=89 time=0
EXTRACT: note_off channel=1 note=74 velocity=0 time=0
EXTRACT: note_off channel=1 note=77 velocity=0 time=0
EXTRACT: note_on channel=1 note=87 velocity=89 time=0
EXTRACT: note_off channel=2 note=58 velocity=0 time=0
EXTRACT: note_on channel=2 note=60 velocity=89 time=0
EXTRACT: note_off channel=6 note=74 velocity=0 time=0
EXTRACT: note_off channel=6 note=77 velocity=0 time=0
EXTRACT: note_on channel=6 note=87 velocity=89 time=0
EXTRACT: note_off channel=7 note=58 velocity=0 time=0
EXTRACT: note_on channel=7 note=60 velocity=89 time=0
EXTRACT: note_off channel=1 note=87 velocity=0 time=0.24193550000000003
EXTRACT: note_on channel=1 note=75 velocity=89 time=0
EXTRACT: note_off channel=6 note=87 velocity=0 time=0
EXTRACT: note_on channel=6 note=75 velocity=89 time=0
EXTRACT: note_off channel=1 note=75 velocity=0 time=0.24193550000000003
EXTRACT: note_on channel=1 note=79 velocity=89 time=0
EXTRACT: note_off channel=6 note=75 velocity=0 time=0
EXTRACT: note_on channel=6 note=79 velocity=89 time=0
EXTRACT: note_off channel=0 note=75 velocity=0 time=0
EXTRACT: note_on channel=0 note=74 velocity=89 time=0
EXTRACT: note_off channel=1 note=79 velocity=0 time=0
EXTRACT: note_on channel=1 note=84 velocity=89 time=0
EXTRACT: note_off channel=6 note=79 velocity=0 time=0
EXTRACT: note_on channel=6 note=84 velocity=89 time=0
EXTRACT: note_off channel=8 note=75 velocity=0 time=0
EXTRACT: note_on channel=8 note=74 velocity=89 time=0
EXTRACT: note_off channel=0 note=74 velocity=0 time=0
EXTRACT: note_on channel=0 note=72 velocity=89 time=0
EXTRACT: note_off channel=8 note=74 velocity=0 time=0
EXTRACT: note_on channel=8 note=72 velocity=89 time=0
EXTRACT: note_off channel=1 note=84 velocity=0 time=0
EXTRACT: note_on channel=1 note=87 velocity=89 time=0
EXTRACT: note_off channel=2 note=60 velocity=0 time=0
EXTRACT: note_on channel=2 note=68 velocity=89 time=0
EXTRACT: note_off channel=6 note=84 velocity=0 time=0
EXTRACT: note_on channel=6 note=87 velocity=89 time=0
EXTRACT: note_off channel=7 note=60 velocity=0 time=0
EXTRACT: note_on channel=7 note=68 velocity=89 time=0
EXTRACT: note_off channel=1 note=87 velocity=0 time=0.24193550000000003
EXTRACT: note_on channel=1 note=75 velocity=89 time=0
EXTRACT: note_off channel=6 note=87 velocity=0 time=0
EXTRACT: note_on channel=6 note=75 velocity=89 time=0
EXTRACT: note_off channel=1 note=75 velocity=0 time=0.24193550000000003
EXTRACT: note_on channel=1 note=80 velocity=89 time=0
EXTRACT: note_off channel=6 note=75 velocity=0 time=0
EXTRACT: note_on channel=6 note=80 velocity=89 time=0
EXTRACT: note_off channel=0 note=72 velocity=0 time=0
EXTRACT: note_on channel=0 note=70 velocity=89 time=0
EXTRACT: note_off channel=1 note=80 velocity=0 time=0
EXTRACT: note_on channel=1 note=84 velocity=89 time=0
EXTRACT: note_off channel=6 note=80 velocity=0 time=0
EXTRACT: note_on channel=6 note=84 velocity=89 time=0
EXTRACT: note_off channel=8 note=72 velocity=0 time=0
EXTRACT: note_on channel=8 note=70 velocity=89 time=0
EXTRACT: note_off channel=0 note=70 velocity=0 time=0.24193550000000003
EXTRACT: note_off channel=8 note=70 velocity=0 time=0
EXTRACT: note_on channel=0 note=67 velocity=89 time=0
EXTRACT: note_on channel=8 note=67 velocity=89 time=0
EXTRACT: note_off channel=0 note=67 velocity=0 time=0
EXTRACT: note_on channel=0 note=67 velocity=89 time=0
EXTRACT: note_off channel=8 note=67 velocity=0 time=0
EXTRACT: note_on channel=8 note=67 velocity=89 time=0
EXTRACT: note_off channel=1 note=84 velocity=0 time=0
EXTRACT: note_on channel=1 note=82 velocity=89 time=0
EXTRACT: note_off channel=2 note=68 velocity=0 time=0
EXTRACT: note_on channel=2 note=63 velocity=89 time=0
EXTRACT: note_off channel=6 note=84 velocity=0 time=0
EXTRACT: note_on channel=6 note=82 velocity=89 time=0
EXTRACT: note_off channel=7 note=68 velocity=0 time=0
EXTRACT: note_on channel=7 note=63 velocity=89 time=0
EXTRACT: note_off channel=1 note=82 velocity=0 time=0.24193550000000003
EXTRACT: note_on channel=1 note=70 velocity=89 time=0
EXTRACT: note_off channel=6 note=82 velocity=0 time=0
EXTRACT: note_on channel=6 note=70 velocity=89 time=0
EXTRACT: note_off channel=1 note=70 velocity=0 time=0.24193550000000003
EXTRACT: note_on channel=1 note=75 velocity=89 time=0
EXTRACT: note_off channel=6 note=70 velocity=0 time=0
EXTRACT: note_on channel=6 note=75 velocity=89 time=0
EXTRACT: note_off channel=1 note=75 velocity=0 time=0.24193550000000003
EXTRACT: note_on channel=1 note=79 velocity=89 time=0
EXTRACT: note_off channel=6 note=75 velocity=0 time=0
EXTRACT: note_on channel=6 note=79 velocity=89 time=0
EXTRACT: note_off channel=0 note=67 velocity=0 time=0.24193550000000003
EXTRACT: note_off channel=1 note=79 velocity=0 time=0
EXTRACT: note_on channel=1 note=79 velocity=89 time=0
EXTRACT: note_off channel=6 note=79 velocity=0 time=0
EXTRACT: note_on channel=6 note=79 velocity=89 time=0
EXTRACT: note_off channel=8 note=67 velocity=0 time=0
EXTRACT: note_on channel=0 note=65 velocity=89 time=0
EXTRACT: note_off channel=1 note=79 velocity=0 time=0
EXTRACT: note_on channel=1 note=82 velocity=89 time=0
EXTRACT: note_off channel=6 note=79 velocity=0 time=0
EXTRACT: note_on channel=6 note=82 velocity=89 time=0
EXTRACT: note_on channel=8 note=65 velocity=89 time=0
EXTRACT: note_off channel=0 note=65 velocity=0 time=0
EXTRACT: note_on channel=0 note=67 velocity=89 time=0
EXTRACT: note_off channel=8 note=65 velocity=0 time=0
EXTRACT: note_on channel=8 note=67 velocity=89 time=0
EXTRACT: note_off channel=0 note=67 velocity=0 time=0
EXTRACT: note_on channel=0 note=65 velocity=89 time=0
EXTRACT: note_off channel=8 note=67 velocity=0 time=0
EXTRACT: note_on channel=8 note=65 velocity=89 time=0
EXTRACT: note_off channel=1 note=82 velocity=0 time=0
EXTRACT: note_on channel=1 note=77 velocity=89 time=0
EXTRACT: note_on channel=1 note=74 velocity=89 time=0
EXTRACT: note_off channel=2 note=63 velocity=0 time=0
EXTRACT: note_on channel=2 note=58 velocity=89 time=0
EXTRACT: note_off channel=6 note=82 velocity=0 time=0
EXTRACT: note_on channel=6 note=77 velocity=89 time=0
EXTRACT: note_on channel=6 note=74 velocity=89 time=0
EXTRACT: note_off channel=7 note=63 velocity=0 time=0
EXTRACT: note_on channel=7 note=58 velocity=89 time=0
EXTRACT: note_off channel=0 note=65 velocity=0 time=1.451613
EXTRACT: note_off channel=8 note=65 velocity=0 time=0
EXTRACT: note_off channel=1 note=74 velocity=0 time=0.48387100000000005
EXTRACT: note_off channel=1 note=77 velocity=0 time=0
EXTRACT: note_off channel=2 note=58 velocity=0 time=0
EXTRACT: note_off channel=6 note=74 velocity=0 time=0
EXTRACT: note_off channel=6 note=77 velocity=0 time=0
EXTRACT: note_off channel=7 note=58 velocity=0 time=0
MUSIC26 - AllofMe.mid
INTERVALS26 - AllofMe.mid
unison156
2m63
2M197
3m27
3M43
4m26
4M0
5m9
5M2
6m1
7m1
7M0
