EXTRACT: sysex data=(126,127,9,1) time=0
EXTRACT: sysex data=(67,16,76,0,0,126,0) time=0
EXTRACT: sysex data=(67,16,76,2,1,32,65,2) time=0
EXTRACT: control_change channel=9 control=0 value=127 time=0
EXTRACT: control_change channel=9 control=32 value=0 time=0
EXTRACT: program_change channel=9 program=8 time=0
EXTRACT: control_change channel=9 control=7 value=95 time=0
EXTRACT: control_change channel=0 control=0 value=0 time=0
EXTRACT: control_change channel=0 control=32 value=0 time=0
EXTRACT: program_change channel=0 program=33 time=0
EXTRACT: control_change channel=0 control=7 value=118 time=0
EXTRACT: control_change channel=2 control=0 value=0 time=0
EXTRACT: control_change channel=2 control=32 value=0 time=0
EXTRACT: program_change channel=2 program=16 time=0
EXTRACT: control_change channel=2 control=7 value=80 time=0
EXTRACT: control_change channel=2 control=10 value=49 time=0
EXTRACT: control_change channel=3 control=0 value=0 time=0
EXTRACT: control_change channel=3 control=32 value=0 time=0
EXTRACT: program_change channel=3 program=81 time=0
EXTRACT: control_change channel=3 control=7 value=85 time=0
EXTRACT: control_change channel=5 control=0 value=0 time=0
EXTRACT: control_change channel=5 control=32 value=0 time=0
EXTRACT: program_change channel=5 program=81 time=0
EXTRACT: control_change channel=5 control=7 value=85 time=0
EXTRACT: control_change channel=5 control=10 value=52 time=0
EXTRACT: control_change channel=6 control=0 value=0 time=0
EXTRACT: control_change channel=6 control=32 value=0 time=0
EXTRACT: program_change channel=6 program=95 time=0
EXTRACT: control_change channel=6 control=7 value=78 time=0
EXTRACT: control_change channel=7 control=0 value=0 time=0
EXTRACT: control_change channel=7 control=32 value=0 time=0
EXTRACT: program_change channel=7 program=118 time=0
EXTRACT: control_change channel=7 control=7 value=106 time=0
EXTRACT: control_change channel=10 control=0 value=0 time=0
EXTRACT: control_change channel=10 control=32 value=0 time=0
EXTRACT: program_change channel=10 program=119 time=0
EXTRACT: control_change channel=10 control=7 value=102 time=0
EXTRACT: control_change channel=0 control=91 value=13 time=0.26044078125
EXTRACT: control_change channel=0 control=93 value=45 time=0.0014468932291666666
EXTRACT: sysex data=(67,16,76,8,1,13,72) time=0
EXTRACT: control_change channel=1 control=0 value=0 time=0.0043406796875
EXTRACT: control_change channel=1 control=32 value=0 time=0
EXTRACT: program_change channel=1 program=38 time=0
EXTRACT: control_change channel=1 control=7 value=95 time=0.0028937864583333333
EXTRACT: control_change channel=1 control=10 value=49 time=0.0014468932291666666
EXTRACT: control_change channel=1 control=91 value=35 time=0.0014468932291666666
EXTRACT: control_change channel=1 control=93 value=31 time=0.0014468932291666666
EXTRACT: control_change channel=1 control=74 value=0 time=0.0014468932291666666
EXTRACT: control_change channel=2 control=91 value=52 time=0.011575145833333333
EXTRACT: control_change channel=2 control=93 value=55 time=0.0014468932291666666
EXTRACT: control_change channel=3 control=91 value=122 time=0.010128252604166667
EXTRACT: control_change channel=3 control=93 value=100 time=0.0014468932291666666
EXTRACT: sysex data=(67,16,76,8,4,12,67) time=0
EXTRACT: sysex data=(67,16,76,8,4,13,81) time=0
EXTRACT: control_change channel=4 control=0 value=0 time=0.0057875729166666666
EXTRACT: control_change channel=4 control=32 value=0 time=0
EXTRACT: program_change channel=4 program=2 time=0
EXTRACT: control_change channel=4 control=7 value=93 time=0.0028937864583333333
EXTRACT: control_change channel=4 control=10 value=76 time=0.0014468932291666666
EXTRACT: control_change channel=4 control=91 value=69 time=0.0014468932291666666
EXTRACT: control_change channel=4 control=93 value=44 time=0.0014468932291666666
EXTRACT: control_change channel=5 control=91 value=52 time=0.011575145833333333
EXTRACT: control_change channel=5 control=93 value=69 time=0.0014468932291666666
EXTRACT: control_change channel=6 control=91 value=56 time=0.010128252604166667
EXTRACT: control_change channel=6 control=93 value=85 time=0.0014468932291666666
EXTRACT: control_change channel=7 control=91 value=52 time=0.010128252604166667
EXTRACT: control_change channel=7 control=93 value=97 time=0.0014468932291666666
EXTRACT: control_change channel=7 control=74 value=54 time=0.0014468932291666666
EXTRACT: sysex data=(67,16,76,8,8,12,71) time=0
EXTRACT: control_change channel=8 control=0 value=0 time=0.0043406796875
EXTRACT: control_change channel=8 control=32 value=0 time=0
EXTRACT: program_change channel=8 program=50 time=0
EXTRACT: control_change channel=8 control=7 value=69 time=0.0028937864583333333
EXTRACT: control_change channel=8 control=10 value=73 time=0.0014468932291666666
EXTRACT: control_change channel=8 control=91 value=99 time=0.0014468932291666666
EXTRACT: control_change channel=8 control=93 value=120 time=0.0014468932291666666
EXTRACT: control_change channel=9 control=91 value=80 time=0.010128252604166667
EXTRACT: control_change channel=9 control=93 value=99 time=0.0014468932291666666
EXTRACT: control_change channel=9 control=71 value=62 time=0.0014468932291666666
EXTRACT: control_change channel=9 control=74 value=100 time=0.0014468932291666666
EXTRACT: control_change channel=10 control=91 value=52 time=0.010128252604166667
EXTRACT: control_change channel=0 control=121 value=0 time=0.4224928229166667
EXTRACT: control_change channel=2 control=121 value=0 time=0.0057875729166666666
EXTRACT: control_change channel=3 control=121 value=0 time=0.0057875729166666666
EXTRACT: control_change channel=4 control=121 value=0 time=0.0057875729166666666
EXTRACT: control_change channel=1 control=121 value=0 time=0.0043406796875
EXTRACT: control_change channel=5 control=121 value=0 time=0.0014468932291666666
EXTRACT: control_change channel=6 control=121 value=0 time=0.0057875729166666666
EXTRACT: control_change channel=7 control=121 value=0 time=0.0057875729166666666
EXTRACT: control_change channel=8 control=121 value=0 time=0.0057875729166666666
EXTRACT: control_change channel=9 control=121 value=0 time=0.0057875729166666666
EXTRACT: control_change channel=10 control=121 value=0 time=0.011575145833333333
EXTRACT: note_on channel=3 note=65 velocity=119 time=3.408880447916667
EXTRACT: note_on channel=3 note=65 velocity=0 time=0.27490971354166666
EXTRACT: note_on channel=3 note=63 velocity=117 time=0.0028937864583333333
EXTRACT: note_on channel=3 note=63 velocity=0 time=0.07523844791666666
EXTRACT: note_on channel=3 note=63 velocity=118 time=0.20256505208333334
EXTRACT: note_on channel=8 note=58 velocity=87 time=0
EXTRACT: note_on channel=8 note=61 velocity=89 time=0
EXTRACT: note_on channel=8 note=65 velocity=88 time=0
EXTRACT: note_on channel=8 note=70 velocity=85 time=0
EXTRACT: note_on channel=8 note=73 velocity=84 time=0
EXTRACT: control_change channel=8 control=1 value=33 time=0.0028937864583333333
EXTRACT: note_on channel=3 note=63 velocity=0 time=0.8218353541666666
EXTRACT: note_on channel=3 note=61 velocity=114 time=0.008681359375
EXTRACT: note_on channel=3 note=61 velocity=0 time=0.8681359375
EXTRACT: note_on channel=8 note=58 velocity=0 time=0.5150939895833333
EXTRACT: note_on channel=8 note=70 velocity=0 time=0.0057875729166666666
EXTRACT: note_on channel=8 note=61 velocity=0 time=0
EXTRACT: note_on channel=8 note=65 velocity=0 time=0
EXTRACT: note_on channel=8 note=73 velocity=0 time=0
EXTRACT: note_on channel=8 note=58 velocity=84 time=0
EXTRACT: note_on channel=8 note=61 velocity=88 time=0
EXTRACT: note_on channel=8 note=66 velocity=81 time=0
EXTRACT: note_on channel=8 note=70 velocity=84 time=0
EXTRACT: note_on channel=8 note=73 velocity=77 time=0
EXTRACT: note_on channel=8 note=58 velocity=0 time=1.0996388541666666
EXTRACT: note_on channel=8 note=61 velocity=0 time=0.0028937864583333333
EXTRACT: note_on channel=8 note=66 velocity=0 time=0.0028937864583333333
EXTRACT: note_on channel=8 note=70 velocity=0 time=0.0028937864583333333
EXTRACT: note_on channel=8 note=73 velocity=0 time=0.0028937864583333333
EXTRACT: note_on channel=8 note=57 velocity=82 time=0
EXTRACT: note_on channel=8 note=60 velocity=86 time=0
EXTRACT: note_on channel=8 note=65 velocity=82 time=0
EXTRACT: note_on channel=8 note=69 velocity=81 time=0
EXTRACT: note_on channel=8 note=72 velocity=78 time=0
EXTRACT: note_on channel=3 note=65 velocity=122 time=0.555607
EXTRACT: note_on channel=3 note=65 velocity=0 time=0.27490971354166666
EXTRACT: note_on channel=3 note=63 velocity=108 time=0.0028937864583333333
EXTRACT: note_on channel=3 note=63 velocity=0 time=0.07234466145833333
EXTRACT: note_on channel=8 note=57 velocity=0 time=0.19388369270833333
EXTRACT: note_on channel=8 note=60 velocity=0 time=0.0057875729166666666
EXTRACT: note_on channel=8 note=65 velocity=0 time=0
EXTRACT: note_on channel=8 note=69 velocity=0 time=0.0028937864583333333
EXTRACT: note_on channel=3 note=63 velocity=119 time=0.0028937864583333333
EXTRACT: note_on channel=8 note=72 velocity=0 time=0
EXTRACT: note_on channel=8 note=58 velocity=86 time=0
EXTRACT: note_on channel=8 note=61 velocity=90 time=0
EXTRACT: note_on channel=8 note=65 velocity=85 time=0
EXTRACT: note_on channel=8 note=70 velocity=85 time=0
EXTRACT: note_on channel=8 note=73 velocity=81 time=0
EXTRACT: note_on channel=3 note=63 velocity=0 time=0.824729140625
EXTRACT: note_on channel=3 note=61 velocity=108 time=0.008681359375
EXTRACT: note_on channel=3 note=61 velocity=0 time=1.0388693385416667
EXTRACT: note_on channel=8 note=58 velocity=0 time=0.338573015625
EXTRACT: note_on channel=8 note=61 velocity=0 time=0.0057875729166666666
EXTRACT: note_on channel=8 note=65 velocity=0 time=0
EXTRACT: note_on channel=8 note=70 velocity=0 time=0.0028937864583333333
EXTRACT: note_on channel=8 note=73 velocity=0 time=0
EXTRACT: note_on channel=8 note=58 velocity=86 time=0.0028937864583333333
EXTRACT: note_on channel=8 note=61 velocity=89 time=0
EXTRACT: note_on channel=8 note=66 velocity=88 time=0
EXTRACT: note_on channel=8 note=70 velocity=85 time=0
EXTRACT: note_on channel=8 note=73 velocity=83 time=0
EXTRACT: note_on channel=8 note=58 velocity=0 time=1.0996388541666666
EXTRACT: note_on channel=8 note=61 velocity=0 time=0.0028937864583333333
EXTRACT: note_on channel=8 note=66 velocity=0 time=0.0028937864583333333
EXTRACT: note_on channel=8 note=70 velocity=0 time=0.0028937864583333333
EXTRACT: note_on channel=8 note=73 velocity=0 time=0
EXTRACT: note_on channel=8 note=57 velocity=85 time=0.0028937864583333333
EXTRACT: note_on channel=8 note=60 velocity=88 time=0
EXTRACT: note_on channel=8 note=65 velocity=80 time=0
EXTRACT: note_on channel=8 note=69 velocity=84 time=0
EXTRACT: note_on channel=8 note=72 velocity=76 time=0
EXTRACT: note_on channel=3 note=65 velocity=123 time=0.555607
EXTRACT: note_on channel=3 note=65 velocity=0 time=0.27490971354166666
EXTRACT: note_on channel=3 note=63 velocity=117 time=0.0028937864583333333
EXTRACT: note_on channel=3 note=63 velocity=0 time=0.08970738020833333
EXTRACT: note_on channel=8 note=57 velocity=0 time=0.17652097395833333
EXTRACT: note_on channel=8 note=60 velocity=0 time=0.0057875729166666666
EXTRACT: note_on channel=8 note=65 velocity=0 time=0.0028937864583333333
EXTRACT: note_on channel=3 note=63 velocity=123 time=0.0028937864583333333
EXTRACT: note_on channel=8 note=69 velocity=0 time=0
EXTRACT: note_on channel=8 note=72 velocity=0 time=0
EXTRACT: note_on channel=8 note=58 velocity=88 time=0
EXTRACT: note_on channel=8 note=61 velocity=85 time=0
EXTRACT: note_on channel=8 note=65 velocity=79 time=0
EXTRACT: note_on channel=8 note=70 velocity=81 time=0
EXTRACT: note_on channel=8 note=73 velocity=75 time=0
EXTRACT: note_on channel=3 note=63 velocity=0 time=0.790003703125
EXTRACT: note_on channel=3 note=61 velocity=115 time=0.043406796875
EXTRACT: note_on channel=8 note=58 velocity=0 time=1.3774423541666667
EXTRACT: note_on channel=3 note=61 velocity=0 time=0.0057875729166666666
EXTRACT: note_on channel=8 note=61 velocity=0 time=0
EXTRACT: note_on channel=8 note=65 velocity=0 time=0.0028937864583333333
EXTRACT: note_on channel=0 note=34 velocity=81 time=0.0028937864583333333
EXTRACT: note_on channel=3 note=58 velocity=122 time=0
EXTRACT: note_on channel=8 note=70 velocity=0 time=0
EXTRACT: note_on channel=8 note=73 velocity=0 time=0
EXTRACT: note_on channel=8 note=58 velocity=84 time=0
EXTRACT: note_on channel=8 note=61 velocity=88 time=0
EXTRACT: note_on channel=8 note=66 velocity=90 time=0
EXTRACT: note_on channel=8 note=70 velocity=84 time=0
EXTRACT: note_on channel=8 note=73 velocity=86 time=0
EXTRACT: note_on channel=1 note=34 velocity=81 time=0.0217033984375
EXTRACT: note_on channel=3 note=58 velocity=0 time=0.3024006848958333
EXTRACT: note_on channel=3 note=61 velocity=118 time=0.23150291666666667
EXTRACT: note_on channel=3 note=61 velocity=0 time=0.32121029687499997
EXTRACT: note_on channel=0 note=34 velocity=0 time=0.16205204166666667
EXTRACT: note_on channel=1 note=34 velocity=0 time=0.0217033984375
EXTRACT: note_on channel=8 note=58 velocity=0 time=0.03617233072916667
EXTRACT: note_on channel=8 note=61 velocity=0 time=0.0028937864583333333
EXTRACT: note_on channel=8 note=66 velocity=0 time=0.0028937864583333333
EXTRACT: note_on channel=8 note=70 velocity=0 time=0.0028937864583333333
EXTRACT: note_on channel=8 note=73 velocity=0 time=0.0028937864583333333
EXTRACT: note_on channel=0 note=34 velocity=75 time=0.0028937864583333333
EXTRACT: note_on channel=3 note=63 velocity=122 time=0
EXTRACT: note_on channel=8 note=60 velocity=83 time=0
EXTRACT: note_on channel=8 note=63 velocity=88 time=0
EXTRACT: note_on channel=8 note=68 velocity=89 time=0
EXTRACT: note_on channel=8 note=72 velocity=83 time=0
EXTRACT: note_on channel=8 note=75 velocity=84 time=0
EXTRACT: note_on channel=1 note=34 velocity=75 time=0.0217033984375
EXTRACT: note_on channel=3 note=63 velocity=0 time=0.5281160286458333
EXTRACT: note_on channel=3 note=58 velocity=115 time=0.0057875729166666666
EXTRACT: note_on channel=3 note=58 velocity=0 time=0.130220390625
EXTRACT: note_on channel=3 note=58 velocity=108 time=0.147583109375
EXTRACT: note_on channel=0 note=34 velocity=0 time=0.20256505208333334
EXTRACT: note_on channel=1 note=34 velocity=0 time=0.0217033984375
EXTRACT: note_on channel=8 note=60 velocity=0 time=0.04195990364583333
EXTRACT: note_on channel=8 note=63 velocity=0 time=0.0057875729166666666
EXTRACT: note_on channel=8 note=68 velocity=0 time=0.0028937864583333333
EXTRACT: note_on channel=0 note=34 velocity=98 time=0.0028937864583333333
EXTRACT: note_on channel=6 note=46 velocity=127 time=0
EXTRACT: note_on channel=6 note=58 velocity=127 time=0
EXTRACT: note_on channel=6 note=65 velocity=127 time=0
EXTRACT: note_on channel=6 note=70 velocity=127 time=0
EXTRACT: note_on channel=8 note=72 velocity=0 time=0
EXTRACT: note_on channel=8 note=75 velocity=0 time=0
EXTRACT: note_on channel=8 note=58 velocity=90 time=0
EXTRACT: note_on channel=8 note=61 velocity=89 time=0
EXTRACT: note_on channel=8 note=65 velocity=78 time=0
EXTRACT: note_on channel=8 note=70 velocity=85 time=0
EXTRACT: note_on channel=8 note=73 velocity=73 time=0
EXTRACT: note_on channel=1 note=34 velocity=98 time=0.0217033984375
EXTRACT: note_on channel=10 note=65 velocity=127 time=1.2284123515625
EXTRACT: note_on channel=3 note=58 velocity=0 time=0.9404805989583334
EXTRACT: note_on channel=8 note=73 velocity=0 time=0.020256505208333334
EXTRACT: note_on channel=8 note=65 velocity=0 time=0
EXTRACT: note_on channel=8 note=70 velocity=0 time=0
EXTRACT: note_on channel=8 note=58 velocity=0 time=0
EXTRACT: note_on channel=8 note=61 velocity=0 time=0.0028937864583333333
EXTRACT: note_on channel=0 note=34 velocity=0 time=0.0028937864583333333
EXTRACT: note_on channel=6 note=46 velocity=0 time=0
EXTRACT: note_on channel=6 note=58 velocity=0 time=0.0028937864583333333
EXTRACT: note_on channel=6 note=65 velocity=0 time=0
EXTRACT: note_on channel=6 note=70 velocity=0 time=0
EXTRACT: note_on channel=10 note=65 velocity=0 time=0
EXTRACT: note_on channel=9 note=36 velocity=127 time=0.0028937864583333333
EXTRACT: note_on channel=9 note=49 velocity=78 time=0
EXTRACT: note_on channel=0 note=34 velocity=98 time=0
EXTRACT: note_on channel=3 note=58 velocity=123 time=0
EXTRACT: note_on channel=3 note=70 velocity=122 time=0
EXTRACT: note_on channel=8 note=58 velocity=90 time=0
EXTRACT: note_on channel=8 note=61 velocity=89 time=0
EXTRACT: note_on channel=8 note=65 velocity=78 time=0
EXTRACT: note_on channel=8 note=70 velocity=85 time=0
EXTRACT: note_on channel=8 note=73 velocity=73 time=0
EXTRACT: note_on channel=1 note=34 velocity=0 time=0.015915825520833333
EXTRACT: note_on channel=1 note=34 velocity=98 time=0.0057875729166666666
EXTRACT: note_on channel=3 note=70 velocity=0 time=0.25899388802083334
EXTRACT: note_on channel=3 note=58 velocity=0 time=0.026044078124999998
EXTRACT: note_on channel=8 note=73 velocity=0 time=0.09838873958333333
EXTRACT: note_on channel=8 note=70 velocity=0 time=0.13890175
EXTRACT: note_on channel=0 note=34 velocity=0 time=0.0028937864583333333
EXTRACT: note_on channel=3 note=61 velocity=121 time=0.008681359375
EXTRACT: note_on channel=3 note=73 velocity=123 time=0
EXTRACT: note_on channel=1 note=34 velocity=0 time=0.013022039062499999
EXTRACT: note_on channel=8 note=65 velocity=0 time=0.11430456510416666
EXTRACT: note_on channel=3 note=73 velocity=0 time=0.095494953125
EXTRACT: note_on channel=8 note=61 velocity=0 time=0.043406796875
EXTRACT: note_on channel=3 note=61 velocity=0 time=0.0057875729166666666
EXTRACT: note_on channel=9 note=36 velocity=0 time=0.13600796354166667
EXTRACT: note_on channel=8 note=58 velocity=0 time=0
EXTRACT: note_on channel=3 note=63 velocity=124 time=0.147583109375
EXTRACT: note_on channel=3 note=75 velocity=119 time=0
EXTRACT: note_on channel=3 note=63 velocity=0 time=0.22571534375
EXTRACT: note_on channel=3 note=75 velocity=0 time=0.008681359375
EXTRACT: note_on channel=3 note=70 velocity=117 time=0.32121029687499997
EXTRACT: note_on channel=3 note=82 velocity=126 time=0
EXTRACT: note_on channel=3 note=82 velocity=0 time=0.27490971354166666
EXTRACT: note_on channel=3 note=70 velocity=0 time=0
EXTRACT: note_on channel=3 note=70 velocity=108 time=0.0028937864583333333
EXTRACT: note_on channel=3 note=82 velocity=117 time=0
EXTRACT: note_on channel=9 note=49 velocity=0 time=0.13600796354166667
EXTRACT: note_on channel=3 note=82 velocity=0 time=0.10417631249999999
EXTRACT: note_on channel=3 note=70 velocity=0 time=0.014468932291666667
EXTRACT: note_on channel=9 note=36 velocity=114 time=0.023150291666666666
EXTRACT: note_on channel=9 note=42 velocity=122 time=0
EXTRACT: note_on channel=9 note=49 velocity=83 time=0
EXTRACT: note_on channel=9 note=54 velocity=90 time=0
EXTRACT: note_on channel=0 note=34 velocity=126 time=0
EXTRACT: note_on channel=2 note=73 velocity=88 time=0
EXTRACT: note_on channel=2 note=77 velocity=85 time=0
EXTRACT: note_on channel=2 note=82 velocity=84 time=0
EXTRACT: note_on channel=5 note=34 velocity=123 time=0
EXTRACT: note_on channel=5 note=46 velocity=92 time=0
EXTRACT: note_on channel=8 note=65 velocity=88 time=0
EXTRACT: note_on channel=8 note=70 velocity=85 time=0
EXTRACT: note_on channel=8 note=73 velocity=84 time=0
EXTRACT: control_change channel=8 control=1 value=33 time=0.0057875729166666666
EXTRACT: note_on channel=1 note=34 velocity=126 time=0.015915825520833333
EXTRACT: note_on channel=9 note=54 velocity=0 time=0.027490971354166668
EXTRACT: note_on channel=9 note=42 velocity=0 time=0.04051301041666667
EXTRACT: note_on channel=9 note=49 velocity=0 time=0.04630058333333333
EXTRACT: note_on channel=9 note=36 velocity=0 time=0
EXTRACT: note_on channel=9 note=54 velocity=42 time=0.0028937864583333333
EXTRACT: note_on channel=9 note=54 velocity=0 time=0.052088156249999996
EXTRACT: note_on channel=9 note=42 velocity=100 time=0.08681359375
EXTRACT: note_on channel=9 note=54 velocity=78 time=0
EXTRACT: note_on channel=9 note=56 velocity=59 time=0
EXTRACT: note_on channel=9 note=80 velocity=127 time=0
EXTRACT: note_on channel=9 note=54 velocity=0 time=0.0347254375
EXTRACT: note_on channel=0 note=34 velocity=0 time=0.0057875729166666666
EXTRACT: note_on channel=1 note=34 velocity=0 time=0.0217033984375
EXTRACT: note_on channel=5 note=34 velocity=0 time=0.0014468932291666666
EXTRACT: note_on channel=5 note=46 velocity=0 time=0.0028937864583333333
EXTRACT: note_on channel=9 note=56 velocity=0 time=0.0028937864583333333
EXTRACT: note_on channel=9 note=42 velocity=0 time=0.0057875729166666666
EXTRACT: note_on channel=9 note=80 velocity=0 time=0.060769515625
EXTRACT: note_on channel=9 note=54 velocity=54 time=0.0028937864583333333
EXTRACT: note_on channel=9 note=56 velocity=23 time=0
EXTRACT: note_on channel=9 note=54 velocity=0 time=0.07523844791666666
EXTRACT: note_on channel=9 note=56 velocity=0 time=0.060769515625
EXTRACT: note_on channel=9 note=39 velocity=80 time=0.0028937864583333333
EXTRACT: note_on channel=9 note=40 velocity=121 time=0
EXTRACT: note_on channel=9 note=42 velocity=114 time=0
EXTRACT: note_on channel=9 note=54 velocity=85 time=0
EXTRACT: note_on channel=0 note=34 velocity=123 time=0
EXTRACT: note_on channel=5 note=34 velocity=124 time=0
EXTRACT: note_on channel=5 note=46 velocity=93 time=0
EXTRACT: note_on channel=1 note=34 velocity=123 time=0.0217033984375
EXTRACT: note_on channel=9 note=54 velocity=0 time=0.0217033984375
EXTRACT: note_on channel=9 note=42 velocity=0 time=0.06366330208333333
EXTRACT: note_on channel=9 note=40 velocity=0 time=0.028937864583333334
EXTRACT: note_on channel=9 note=39 velocity=0 time=0
EXTRACT: note_on channel=9 note=54 velocity=49 time=0.0028937864583333333
EXTRACT: note_on channel=9 note=54 velocity=0 time=0.07234466145833333
EXTRACT: note_on channel=5 note=34 velocity=0 time=0.060769515625
EXTRACT: note_on channel=0 note=34 velocity=0 time=0.0028937864583333333
EXTRACT: note_on channel=9 note=36 velocity=109 time=0.0028937864583333333
EXTRACT: note_on channel=9 note=42 velocity=90 time=0
EXTRACT: note_on channel=9 note=54 velocity=80 time=0
EXTRACT: note_on channel=9 note=56 velocity=59 time=0
EXTRACT: note_on channel=9 note=80 velocity=127 time=0
EXTRACT: note_on channel=0 note=33 velocity=115 time=0
EXTRACT: note_on channel=4 note=34 velocity=114 time=0
EXTRACT: note_on channel=4 note=46 velocity=121 time=0
EXTRACT: note_on channel=5 note=46 velocity=0 time=0
EXTRACT: note_on channel=5 note=33 velocity=105 time=0
EXTRACT: note_on channel=5 note=45 velocity=74 time=0
EXTRACT: note_on channel=1 note=34 velocity=0 time=0.018809611979166665
EXTRACT: note_on channel=1 note=33 velocity=115 time=0.0028937864583333333
EXTRACT: note_on channel=9 note=54 velocity=0 time=0.0217033984375
EXTRACT: note_on channel=9 note=56 velocity=0 time=0.028937864583333334
EXTRACT: note_on channel=9 note=42 velocity=0 time=0.0028937864583333333
EXTRACT: note_on channel=9 note=36 velocity=0 time=0.031831651041666666
EXTRACT: note_on channel=9 note=80 velocity=0 time=0.028937864583333334
EXTRACT: note_on channel=9 note=54 velocity=52 time=0.0028937864583333333
EXTRACT: note_on channel=9 note=56 velocity=23 time=0
EXTRACT: note_on channel=4 note=34 velocity=0 time=0.011575145833333333
EXTRACT: note_on channel=4 note=46 velocity=0 time=0.0347254375
EXTRACT: note_on channel=9 note=54 velocity=0 time=0.0057875729166666666
EXTRACT: note_on channel=0 note=33 velocity=0 time=0.08102602083333334
EXTRACT: note_on channel=5 note=33 velocity=0 time=0
EXTRACT: note_on channel=9 note=56 velocity=0 time=0.0028937864583333333
EXTRACT: note_on channel=9 note=36 velocity=109 time=0.0028937864583333333
EXTRACT: note_on channel=9 note=42 velocity=122 time=0
EXTRACT: note_on channel=9 note=54 velocity=86 time=0
EXTRACT: note_on channel=0 note=32 velocity=113 time=0
EXTRACT: note_on channel=5 note=45 velocity=0 time=0
EXTRACT: note_on channel=5 note=32 velocity=115 time=0
EXTRACT: note_on channel=5 note=44 velocity=84 time=0
EXTRACT: note_on channel=1 note=33 velocity=0 time=0.015915825520833333
EXTRACT: note_on channel=1 note=32 velocity=113 time=0.0057875729166666666
EXTRACT: note_on channel=9 note=54 velocity=0 time=0.033278544270833335
EXTRACT: note_on channel=9 note=42 velocity=0 time=0.03761922395833333
EXTRACT: note_on channel=9 note=36 velocity=0 time=0.008681359375
EXTRACT: note_on channel=9 note=54 velocity=48 time=0.03761922395833333
EXTRACT: note_on channel=9 note=54 velocity=0 time=0.03761922395833333
EXTRACT: note_on channel=0 note=32 velocity=0 time=0.095494953125
EXTRACT: note_on channel=5 note=32 velocity=0 time=0
EXTRACT: note_on channel=9 note=36 velocity=113 time=0.0057875729166666666
EXTRACT: note_on channel=9 note=42 velocity=100 time=0
EXTRACT: note_on channel=9 note=54 velocity=81 time=0
EXTRACT: note_on channel=9 note=56 velocity=59 time=0
EXTRACT: note_on channel=9 note=80 velocity=127 time=0
EXTRACT: note_on channel=0 note=31 velocity=119 time=0
EXTRACT: note_on channel=4 note=34 velocity=118 time=0
EXTRACT: note_on channel=4 note=46 velocity=122 time=0
EXTRACT: note_on channel=5 note=44 velocity=0 time=0
EXTRACT: note_on channel=5 note=31 velocity=110 time=0
EXTRACT: note_on channel=5 note=43 velocity=79 time=0
EXTRACT: note_on channel=1 note=32 velocity=0 time=0.015915825520833333
EXTRACT: note_on channel=1 note=31 velocity=119 time=0.0057875729166666666
EXTRACT: note_on channel=9 note=54 velocity=0 time=0.0303847578125
EXTRACT: note_on channel=9 note=56 velocity=0 time=0.020256505208333334
EXTRACT: note_on channel=9 note=42 velocity=0 time=0.0028937864583333333
EXTRACT: note_on channel=9 note=36 velocity=0 time=0.060769515625
EXTRACT: note_on channel=9 note=80 velocity=0 time=0
EXTRACT: note_on channel=9 note=54 velocity=65 time=0.0028937864583333333
EXTRACT: note_on channel=9 note=56 velocity=23 time=0
EXTRACT: note_on channel=4 note=34 velocity=0 time=0.04051301041666667
EXTRACT: note_on channel=4 note=46 velocity=0 time=0.0057875729166666666
EXTRACT: note_on channel=9 note=54 velocity=0 time=0.014468932291666667
EXTRACT: note_on channel=0 note=31 velocity=0 time=0.07234466145833333
EXTRACT: note_on channel=5 note=31 velocity=0 time=0
EXTRACT: note_on channel=9 note=56 velocity=0 time=0.0028937864583333333
EXTRACT: note_on channel=9 note=39 velocity=80 time=0.0028937864583333333
EXTRACT: note_on channel=9 note=40 velocity=121 time=0
EXTRACT: note_on channel=9 note=42 velocity=114 time=0
EXTRACT: note_on channel=9 note=54 velocity=82 time=0
EXTRACT: note_on channel=0 note=30 velocity=114 time=0
EXTRACT: note_on channel=4 note=34 velocity=115 time=0
EXTRACT: note_on channel=4 note=46 velocity=121 time=0
EXTRACT: note_on channel=5 note=43 velocity=0 time=0
EXTRACT: note_on channel=5 note=30 velocity=108 time=0
EXTRACT: note_on channel=5 note=42 velocity=77 time=0
EXTRACT: note_on channel=1 note=31 velocity=0 time=0.015915825520833333
EXTRACT: note_on channel=1 note=30 velocity=114 time=0.0057875729166666666
EXTRACT: note_on channel=9 note=54 velocity=0 time=0.033278544270833335
EXTRACT: note_on channel=9 note=42 velocity=0 time=0.052088156249999996
EXTRACT: note_on channel=9 note=40 velocity=0 time=0.028937864583333334
EXTRACT: note_on channel=9 note=39 velocity=0 time=0
EXTRACT: note_on channel=9 note=54 velocity=45 time=0.0028937864583333333
EXTRACT: note_on channel=9 note=54 velocity=0 time=0.03761922395833333
EXTRACT: note_on channel=4 note=34 velocity=0 time=0.011575145833333333
EXTRACT: note_on channel=4 note=46 velocity=0 time=0.008681359375
EXTRACT: note_on channel=5 note=30 velocity=0 time=0.03761922395833333
EXTRACT: note_on channel=5 note=42 velocity=0 time=0.0028937864583333333
EXTRACT: note_on channel=9 note=42 velocity=90 time=0.04051301041666667
EXTRACT: note_on channel=9 note=54 velocity=75 time=0
EXTRACT: note_on channel=9 note=56 velocity=59 time=0
EXTRACT: note_on channel=9 note=80 velocity=127 time=0
EXTRACT: note_on channel=4 note=34 velocity=110 time=0
EXTRACT: note_on channel=4 note=46 velocity=110 time=0
EXTRACT: note_on channel=0 note=30 velocity=0 time=0.028937864583333334
EXTRACT: note_on channel=9 note=54 velocity=0 time=0.011575145833333333
EXTRACT: note_on channel=1 note=30 velocity=0 time=0.010128252604166667
EXTRACT: note_on channel=9 note=56 velocity=0 time=0.0217033984375
EXTRACT: note_on channel=9 note=42 velocity=0 time=0.0028937864583333333
EXTRACT: note_on channel=9 note=80 velocity=0 time=0.060769515625
EXTRACT: note_on channel=9 note=54 velocity=49 time=0.0028937864583333333
EXTRACT: note_on channel=9 note=56 velocity=23 time=0
EXTRACT: note_on channel=9 note=54 velocity=0 time=0.04051301041666667
EXTRACT: note_on channel=4 note=34 velocity=0 time=0.054981942708333335
EXTRACT: note_on channel=4 note=46 velocity=0 time=0.011575145833333333
EXTRACT: note_on channel=2 note=73 velocity=0 time=0.023150291666666666
EXTRACT: note_on channel=8 note=65 velocity=0 time=0
EXTRACT: note_on channel=9 note=56 velocity=0 time=0.0057875729166666666
EXTRACT: note_on channel=2 note=77 velocity=0 time=0
EXTRACT: note_on channel=8 note=70 velocity=0 time=0
EXTRACT: note_on channel=9 note=36 velocity=116 time=0.0028937864583333333
EXTRACT: note_on channel=9 note=42 velocity=122 time=0
EXTRACT: note_on channel=9 note=54 velocity=90 time=0
EXTRACT: note_on channel=9 note=57 velocity=60 time=0
EXTRACT: note_on channel=0 note=30 velocity=124 time=0
EXTRACT: note_on channel=2 note=82 velocity=0 time=0
EXTRACT: note_on channel=2 note=73 velocity=86 time=0
EXTRACT: note_on channel=2 note=78 velocity=89 time=0
EXTRACT: note_on channel=2 note=82 velocity=82 time=0
EXTRACT: note_on channel=5 note=30 velocity=124 time=0
EXTRACT: note_on channel=5 note=42 velocity=93 time=0
EXTRACT: note_on channel=8 note=73 velocity=0 time=0
EXTRACT: note_on channel=8 note=66 velocity=81 time=0
EXTRACT: note_on channel=8 note=70 velocity=84 time=0
EXTRACT: note_on channel=8 note=73 velocity=77 time=0
EXTRACT: note_on channel=1 note=30 velocity=124 time=0.0217033984375
EXTRACT: note_on channel=9 note=54 velocity=0 time=0.027490971354166668
EXTRACT: note_on channel=9 note=42 velocity=0 time=0.043406796875
EXTRACT: note_on channel=9 note=36 velocity=0 time=0.043406796875
EXTRACT: note_on channel=9 note=57 velocity=0 time=0
EXTRACT: note_on channel=9 note=54 velocity=42 time=0.0028937864583333333
EXTRACT: note_on channel=9 note=54 velocity=0 time=0.052088156249999996
EXTRACT: note_on channel=0 note=30 velocity=0 time=0.07234466145833333
EXTRACT: note_on channel=9 note=42 velocity=100 time=0.014468932291666667
EXTRACT: note_on channel=9 note=54 velocity=78 time=0
EXTRACT: note_on channel=9 note=56 velocity=59 time=0
EXTRACT: note_on channel=9 note=80 velocity=127 time=0
EXTRACT: note_on channel=1 note=30 velocity=0 time=0.007234466145833333
EXTRACT: note_on channel=9 note=54 velocity=0 time=0.027490971354166668
EXTRACT: note_on channel=5 note=30 velocity=0 time=0.011575145833333333
EXTRACT: note_on channel=5 note=42 velocity=0 time=0.0028937864583333333
EXTRACT: note_on channel=9 note=56 velocity=0 time=0.023150291666666666
EXTRACT: note_on channel=9 note=42 velocity=0 time=0.0028937864583333333
EXTRACT: note_on channel=9 note=80 velocity=0 time=0.060769515625
EXTRACT: note_on channel=9 note=54 velocity=54 time=0.0028937864583333333
EXTRACT: note_on channel=9 note=56 velocity=23 time=0
EXTRACT: note_on channel=9 note=54 velocity=0 time=0.07523844791666666
EXTRACT: note_on channel=9 note=56 velocity=0 time=0.060769515625
EXTRACT: note_on channel=9 note=39 velocity=80 time=0.0028937864583333333
EXTRACT: note_on channel=9 note=40 velocity=121 time=0
EXTRACT: note_on channel=9 note=42 velocity=114 time=0
EXTRACT: note_on channel=9 note=54 velocity=85 time=0
EXTRACT: note_on channel=0 note=30 velocity=119 time=0
EXTRACT: note_on channel=5 note=30 velocity=121 time=0
EXTRACT: note_on channel=5 note=42 velocity=90 time=0
EXTRACT: note_on channel=1 note=30 velocity=119 time=0.0217033984375
EXTRACT: note_on channel=9 note=54 velocity=0 time=0.0217033984375
EXTRACT: note_on channel=9 note=42 velocity=0 time=0.06366330208333333
EXTRACT: note_on channel=9 note=40 velocity=0 time=0.028937864583333334
EXTRACT: note_on channel=9 note=39 velocity=0 time=0
EXTRACT: note_on channel=9 note=54 velocity=49 time=0.0028937864583333333
EXTRACT: note_on channel=9 note=54 velocity=0 time=0.07234466145833333
EXTRACT: note_on channel=5 note=30 velocity=0 time=0.04051301041666667
EXTRACT: note_on channel=5 note=42 velocity=0 time=0.0028937864583333333
EXTRACT: note_on channel=0 note=30 velocity=0 time=0.01736271875
EXTRACT: note_on channel=9 note=36 velocity=111 time=0.0057875729166666666
EXTRACT: note_on channel=9 note=42 velocity=90 time=0
EXTRACT: note_on channel=9 note=54 velocity=80 time=0
EXTRACT: note_on channel=9 note=56 velocity=59 time=0
EXTRACT: note_on channel=9 note=80 velocity=127 time=0
EXTRACT: note_on channel=0 note=32 velocity=122 time=0
EXTRACT: note_on channel=4 note=34 velocity=114 time=0
EXTRACT: note_on channel=4 note=46 velocity=121 time=0
EXTRACT: note_on channel=5 note=32 velocity=107 time=0
EXTRACT: note_on channel=5 note=44 velocity=76 time=0
EXTRACT: note_on channel=1 note=30 velocity=0 time=0.015915825520833333
EXTRACT: note_on channel=1 note=32 velocity=122 time=0.0057875729166666666
EXTRACT: note_on channel=9 note=54 velocity=0 time=0.0217033984375
EXTRACT: note_on channel=9 note=56 velocity=0 time=0.028937864583333334
EXTRACT: note_on channel=9 note=42 velocity=0 time=0.0028937864583333333
EXTRACT: note_on channel=9 note=36 velocity=0 time=0.020256505208333334
EXTRACT: note_on channel=9 note=80 velocity=0 time=0.04051301041666667
EXTRACT: note_on channel=9 note=54 velocity=52 time=0.0028937864583333333
EXTRACT: note_on channel=9 note=56 velocity=23 time=0
EXTRACT: note_on channel=4 note=34 velocity=0 time=0.014468932291666667
EXTRACT: note_on channel=4 note=46 velocity=0 time=0.031831651041666666
EXTRACT: note_on channel=9 note=54 velocity=0 time=0.0057875729166666666
EXTRACT: note_on channel=2 note=73 velocity=0 time=0.07523844791666666
EXTRACT: note_on channel=8 note=66 velocity=0 time=0.0028937864583333333
EXTRACT: note_on channel=0 note=32 velocity=0 time=0.0028937864583333333
EXTRACT: note_on channel=2 note=78 velocity=0 time=0
EXTRACT: note_on channel=8 note=70 velocity=0 time=0
EXTRACT: note_on channel=9 note=56 velocity=0 time=0.0028937864583333333
EXTRACT: note_on channel=5 note=32 velocity=0 time=0
EXTRACT: note_on channel=9 note=36 velocity=112 time=0.0028937864583333333
EXTRACT: note_on channel=9 note=42 velocity=122 time=0
EXTRACT: note_on channel=9 note=54 velocity=86 time=0
EXTRACT: note_on channel=9 note=57 velocity=79 time=0
EXTRACT: note_on channel=0 note=29 velocity=113 time=0
EXTRACT: note_on channel=2 note=82 velocity=0 time=0
EXTRACT: note_on channel=2 note=72 velocity=87 time=0
EXTRACT: note_on channel=2 note=77 velocity=86 time=0
EXTRACT: note_on channel=2 note=81 velocity=83 time=0
EXTRACT: note_on channel=5 note=29 velocity=102 time=0
EXTRACT: note_on channel=5 note=41 velocity=71 time=0
EXTRACT: note_on channel=8 note=73 velocity=0 time=0
EXTRACT: note_on channel=8 note=65 velocity=82 time=0
EXTRACT: note_on channel=8 note=69 velocity=81 time=0
EXTRACT: note_on channel=8 note=72 velocity=78 time=0
EXTRACT: note_on channel=5 note=44 velocity=0 time=0.0028937864583333333
EXTRACT: note_on channel=1 note=32 velocity=0 time=0.013022039062499999
EXTRACT: note_on channel=1 note=29 velocity=113 time=0.0057875729166666666
EXTRACT: note_on channel=9 note=54 velocity=0 time=0.03617233072916667
EXTRACT: note_on channel=9 note=42 velocity=0 time=0.0347254375
EXTRACT: note_on channel=9 note=36 velocity=0 time=0.043406796875
EXTRACT: note_on channel=9 note=57 velocity=0 time=0
EXTRACT: note_on channel=9 note=54 velocity=48 time=0.0028937864583333333
EXTRACT: note_on channel=9 note=54 velocity=0 time=0.03761922395833333
EXTRACT: note_on channel=5 note=29 velocity=0 time=0.08681359375
EXTRACT: note_on channel=5 note=41 velocity=0 time=0.0028937864583333333
EXTRACT: note_on channel=9 note=42 velocity=100 time=0.011575145833333333
EXTRACT: note_on channel=9 note=54 velocity=81 time=0
EXTRACT: note_on channel=9 note=56 velocity=59 time=0
EXTRACT: note_on channel=9 note=80 velocity=127 time=0
EXTRACT: note_on channel=4 note=34 velocity=118 time=0
EXTRACT: note_on channel=4 note=46 velocity=122 time=0
EXTRACT: note_on channel=9 note=54 velocity=0 time=0.052088156249999996
EXTRACT: note_on channel=9 note=56 velocity=0 time=0.020256505208333334
EXTRACT: note_on channel=9 note=42 velocity=0 time=0.0028937864583333333
EXTRACT: note_on channel=0 note=29 velocity=0 time=0.028937864583333334
EXTRACT: note_on channel=1 note=29 velocity=0 time=0.0217033984375
EXTRACT: note_on channel=9 note=80 velocity=0 time=0.010128252604166667
EXTRACT: note_on channel=9 note=54 velocity=65 time=0.0028937864583333333
EXTRACT: note_on channel=9 note=56 velocity=23 time=0
EXTRACT: note_on channel=4 note=34 velocity=0 time=0.043406796875
EXTRACT: note_on channel=4 note=46 velocity=0 time=0.0057875729166666666
EXTRACT: note_on channel=9 note=54 velocity=0 time=0.011575145833333333
EXTRACT: note_on channel=9 note=56 velocity=0 time=0.07523844791666666
EXTRACT: note_on channel=9 note=39 velocity=80 time=0.0028937864583333333
EXTRACT: note_on channel=9 note=40 velocity=121 time=0
EXTRACT: note_on channel=9 note=42 velocity=114 time=0
EXTRACT: note_on channel=9 note=54 velocity=82 time=0
EXTRACT: note_on channel=4 note=34 velocity=115 time=0
EXTRACT: note_on channel=4 note=46 velocity=121 time=0
EXTRACT: note_on channel=9 note=54 velocity=0 time=0.054981942708333335
EXTRACT: note_on channel=9 note=42 velocity=0 time=0.052088156249999996
EXTRACT: note_on channel=9 note=40 velocity=0 time=0.028937864583333334
EXTRACT: note_on channel=9 note=39 velocity=0 time=0
EXTRACT: note_on channel=9 note=54 velocity=45 time=0.0028937864583333333
EXTRACT: note_on channel=9 note=54 velocity=0 time=0.03761922395833333
EXTRACT: note_on channel=4 note=34 velocity=0 time=0.011575145833333333
EXTRACT: note_on channel=4 note=46 velocity=0 time=0.011575145833333333
EXTRACT: note_on channel=9 note=42 velocity=90 time=0.078132234375
EXTRACT: note_on channel=9 note=54 velocity=75 time=0
EXTRACT: note_on channel=9 note=56 velocity=59 time=0
EXTRACT: note_on channel=9 note=80 velocity=127 time=0
EXTRACT: note_on channel=4 note=34 velocity=110 time=0
EXTRACT: note_on channel=4 note=46 velocity=110 time=0
EXTRACT: note_on channel=9 note=54 velocity=0 time=0.04051301041666667
EXTRACT: note_on channel=9 note=56 velocity=0 time=0.031831651041666666
EXTRACT: note_on channel=9 note=42 velocity=0 time=0.0028937864583333333
EXTRACT: note_on channel=9 note=80 velocity=0 time=0.060769515625
EXTRACT: note_on channel=9 note=54 velocity=49 time=0.0028937864583333333
EXTRACT: note_on channel=9 note=56 velocity=23 time=0
EXTRACT: note_on channel=9 note=54 velocity=0 time=0.04051301041666667
EXTRACT: note_on channel=4 note=34 velocity=0 time=0.054981942708333335
EXTRACT: note_on channel=4 note=46 velocity=0 time=0.011575145833333333
EXTRACT: note_on channel=2 note=72 velocity=0 time=0.01736271875
EXTRACT: note_on channel=8 note=65 velocity=0 time=0.0028937864583333333
EXTRACT: note_on channel=2 note=77 velocity=0 time=0.0057875729166666666
EXTRACT: note_on channel=8 note=69 velocity=0 time=0
EXTRACT: note_on channel=9 note=56 velocity=0 time=0.0028937864583333333
EXTRACT: note_on channel=2 note=81 velocity=0 time=0
EXTRACT: note_on channel=9 note=36 velocity=114 time=0.0028937864583333333
EXTRACT: note_on channel=9 note=42 velocity=122 time=0
EXTRACT: note_on channel=9 note=49 velocity=83 time=0
EXTRACT: note_on channel=9 note=54 velocity=90 time=0
EXTRACT: note_on channel=0 note=34 velocity=126 time=0
EXTRACT: note_on channel=2 note=73 velocity=88 time=0
EXTRACT: note_on channel=2 note=77 velocity=85 time=0
EXTRACT: note_on channel=2 note=82 velocity=84 time=0
EXTRACT: note_on channel=5 note=34 velocity=123 time=0
EXTRACT: note_on channel=5 note=46 velocity=92 time=0
EXTRACT: note_on channel=8 note=72 velocity=0 time=0
EXTRACT: note_on channel=8 note=65 velocity=88 time=0
EXTRACT: note_on channel=8 note=70 velocity=85 time=0
EXTRACT: note_on channel=8 note=73 velocity=84 time=0
EXTRACT: control_change channel=8 control=1 value=33 time=0.011575145833333333
EXTRACT: note_on channel=1 note=34 velocity=126 time=0.010128252604166667
EXTRACT: note_on channel=9 note=54 velocity=0 time=0.027490971354166668
EXTRACT: note_on channel=9 note=42 velocity=0 time=0.04051301041666667
EXTRACT: note_on channel=9 note=49 velocity=0 time=0.04630058333333333
EXTRACT: note_on channel=9 note=36 velocity=0 time=0
EXTRACT: note_on channel=9 note=54 velocity=42 time=0.0028937864583333333
EXTRACT: note_on channel=9 note=54 velocity=0 time=0.052088156249999996
EXTRACT: note_on channel=9 note=42 velocity=100 time=0.08681359375
EXTRACT: note_on channel=9 note=54 velocity=78 time=0
EXTRACT: note_on channel=9 note=56 velocity=59 time=0
EXTRACT: note_on channel=9 note=80 velocity=127 time=0
EXTRACT: note_on channel=9 note=54 velocity=0 time=0.0347254375
EXTRACT: note_on channel=0 note=34 velocity=0 time=0.0057875729166666666
EXTRACT: note_on channel=1 note=34 velocity=0 time=0.0217033984375
EXTRACT: note_on channel=5 note=34 velocity=0 time=0.0043406796875
EXTRACT: note_on channel=5 note=46 velocity=0 time=0.0028937864583333333
EXTRACT: note_on channel=9 note=56 velocity=0 time=0.0028937864583333333
EXTRACT: note_on channel=9 note=42 velocity=0 time=0.0028937864583333333
EXTRACT: note_on channel=9 note=80 velocity=0 time=0.060769515625
EXTRACT: note_on channel=9 note=54 velocity=54 time=0.0028937864583333333
EXTRACT: note_on channel=9 note=56 velocity=23 time=0
EXTRACT: note_on channel=9 note=54 velocity=0 time=0.07523844791666666
EXTRACT: note_on channel=9 note=56 velocity=0 time=0.060769515625
EXTRACT: note_on channel=9 note=39 velocity=80 time=0.0028937864583333333
EXTRACT: note_on channel=9 note=40 velocity=121 time=0
EXTRACT: note_on channel=9 note=42 velocity=114 time=0
EXTRACT: note_on channel=9 note=54 velocity=85 time=0
EXTRACT: note_on channel=0 note=34 velocity=123 time=0
EXTRACT: note_on channel=5 note=34 velocity=124 time=0
EXTRACT: note_on channel=5 note=46 velocity=93 time=0
EXTRACT: note_on channel=1 note=34 velocity=123 time=0.0217033984375
EXTRACT: note_on channel=9 note=54 velocity=0 time=0.0217033984375
EXTRACT: note_on channel=9 note=42 velocity=0 time=0.06366330208333333
EXTRACT: note_on channel=9 note=40 velocity=0 time=0.028937864583333334
EXTRACT: note_on channel=9 note=39 velocity=0 time=0
EXTRACT: note_on channel=9 note=54 velocity=49 time=0.0028937864583333333
EXTRACT: note_on channel=9 note=54 velocity=0 time=0.07234466145833333
EXTRACT: note_on channel=0 note=34 velocity=0 time=0.060769515625
EXTRACT: note_on channel=5 note=34 velocity=0 time=0
EXTRACT: note_on channel=9 note=36 velocity=109 time=0.0057875729166666666
EXTRACT: note_on channel=9 note=42 velocity=90 time=0
EXTRACT: note_on channel=9 note=54 velocity=80 time=0
EXTRACT: note_on channel=9 note=56 velocity=59 time=0
EXTRACT: note_on channel=9 note=80 velocity=127 time=0
EXTRACT: note_on channel=0 note=33 velocity=115 time=0
EXTRACT: note_on channel=4 note=34 velocity=114 time=0
EXTRACT: note_on channel=4 note=46 velocity=121 time=0
EXTRACT: note_on channel=5 note=46 velocity=0 time=0
EXTRACT: note_on channel=5 note=33 velocity=105 time=0
EXTRACT: note_on channel=5 note=45 velocity=74 time=0
EXTRACT: note_on channel=1 note=34 velocity=0 time=0.015915825520833333
EXTRACT: note_on channel=1 note=33 velocity=115 time=0.0057875729166666666
EXTRACT: note_on channel=9 note=54 velocity=0 time=0.0217033984375
EXTRACT: note_on channel=9 note=56 velocity=0 time=0.028937864583333334
EXTRACT: note_on channel=9 note=42 velocity=0 time=0.0028937864583333333
EXTRACT: note_on channel=9 note=36 velocity=0 time=0.031831651041666666
EXTRACT: note_on channel=9 note=80 velocity=0 time=0.028937864583333334
EXTRACT: note_on channel=9 note=54 velocity=52 time=0.0028937864583333333
EXTRACT: note_on channel=9 note=56 velocity=23 time=0
EXTRACT: note_on channel=4 note=34 velocity=0 time=0.011575145833333333
EXTRACT: note_on channel=4 note=46 velocity=0 time=0.0347254375
EXTRACT: note_on channel=9 note=54 velocity=0 time=0.0057875729166666666
EXTRACT: note_on channel=0 note=33 velocity=0 time=0.08102602083333334
EXTRACT: note_on channel=5 note=33 velocity=0 time=0
EXTRACT: note_on channel=9 note=56 velocity=0 time=0.0028937864583333333
EXTRACT: note_on channel=9 note=36 velocity=109 time=0.0028937864583333333
EXTRACT: note_on channel=9 note=42 velocity=122 time=0
EXTRACT: note_on channel=9 note=54 velocity=86 time=0
EXTRACT: note_on channel=0 note=32 velocity=113 time=0
EXTRACT: note_on channel=5 note=45 velocity=0 time=0
EXTRACT: note_on channel=5 note=32 velocity=115 time=0
EXTRACT: note_on channel=5 note=44 velocity=84 time=0
EXTRACT: note_on channel=1 note=33 velocity=0 time=0.015915825520833333
EXTRACT: note_on channel=1 note=32 velocity=113 time=0.0057875729166666666
EXTRACT: note_on channel=9 note=54 velocity=0 time=0.033278544270833335
EXTRACT: note_on channel=9 note=42 velocity=0 time=0.03761922395833333
EXTRACT: note_on channel=9 note=36 velocity=0 time=0.008681359375
EXTRACT: note_on channel=9 note=54 velocity=48 time=0.03761922395833333
EXTRACT: note_on channel=9 note=54 velocity=0 time=0.03761922395833333
EXTRACT: note_on channel=0 note=32 velocity=0 time=0.095494953125
EXTRACT: note_on channel=5 note=32 velocity=0 time=0
EXTRACT: note_on channel=9 note=36 velocity=113 time=0.0057875729166666666
EXTRACT: note_on channel=9 note=42 velocity=100 time=0
EXTRACT: note_on channel=9 note=54 velocity=81 time=0
EXTRACT: note_on channel=9 note=56 velocity=59 time=0
EXTRACT: note_on channel=9 note=80 velocity=127 time=0
EXTRACT: note_on channel=0 note=31 velocity=119 time=0
EXTRACT: note_on channel=4 note=34 velocity=118 time=0
EXTRACT: note_on channel=4 note=46 velocity=122 time=0
EXTRACT: note_on channel=5 note=44 velocity=0 time=0
EXTRACT: note_on channel=5 note=31 velocity=110 time=0
EXTRACT: note_on channel=5 note=43 velocity=79 time=0
EXTRACT: note_on channel=1 note=32 velocity=0 time=0.015915825520833333
EXTRACT: note_on channel=1 note=31 velocity=119 time=0.0057875729166666666
EXTRACT: note_on channel=9 note=54 velocity=0 time=0.0303847578125
EXTRACT: note_on channel=9 note=56 velocity=0 time=0.01736271875
EXTRACT: note_on channel=9 note=42 velocity=0 time=0.0057875729166666666
EXTRACT: note_on channel=9 note=36 velocity=0 time=0.060769515625
EXTRACT: note_on channel=9 note=80 velocity=0 time=0
EXTRACT: note_on channel=9 note=54 velocity=65 time=0.0028937864583333333
EXTRACT: note_on channel=9 note=56 velocity=23 time=0
EXTRACT: note_on channel=4 note=34 velocity=0 time=0.04051301041666667
EXTRACT: note_on channel=4 note=46 velocity=0 time=0.0057875729166666666
EXTRACT: note_on channel=9 note=54 velocity=0 time=0.014468932291666667
EXTRACT: note_on channel=0 note=31 velocity=0 time=0.07234466145833333
EXTRACT: note_on channel=5 note=31 velocity=0 time=0
EXTRACT: note_on channel=9 note=56 velocity=0 time=0.0028937864583333333
EXTRACT: note_on channel=9 note=39 velocity=80 time=0.0028937864583333333
EXTRACT: note_on channel=9 note=40 velocity=121 time=0
EXTRACT: note_on channel=9 note=42 velocity=114 time=0
EXTRACT: note_on channel=9 note=54 velocity=82 time=0
EXTRACT: note_on channel=0 note=30 velocity=114 time=0
EXTRACT: note_on channel=4 note=34 velocity=115 time=0
EXTRACT: note_on channel=4 note=46 velocity=121 time=0
EXTRACT: note_on channel=5 note=43 velocity=0 time=0
EXTRACT: note_on channel=5 note=30 velocity=108 time=0
EXTRACT: note_on channel=5 note=42 velocity=77 time=0
EXTRACT: note_on channel=1 note=31 velocity=0 time=0.015915825520833333
EXTRACT: note_on channel=1 note=30 velocity=114 time=0.0057875729166666666
EXTRACT: note_on channel=9 note=54 velocity=0 time=0.033278544270833335
EXTRACT: note_on channel=9 note=42 velocity=0 time=0.052088156249999996
EXTRACT: note_on channel=9 note=40 velocity=0 time=0.028937864583333334
EXTRACT: note_on channel=9 note=39 velocity=0 time=0
EXTRACT: note_on channel=9 note=54 velocity=45 time=0.0028937864583333333
EXTRACT: note_on channel=9 note=54 velocity=0 time=0.03761922395833333
EXTRACT: note_on channel=4 note=34 velocity=0 time=0.011575145833333333
EXTRACT: note_on channel=4 note=46 velocity=0 time=0.008681359375
EXTRACT: note_on channel=5 note=30 velocity=0 time=0.03761922395833333
EXTRACT: note_on channel=5 note=42 velocity=0 time=0.0028937864583333333
EXTRACT: note_on channel=9 note=42 velocity=90 time=0.04051301041666667
EXTRACT: note_on channel=9 note=54 velocity=75 time=0
EXTRACT: note_on channel=9 note=56 velocity=59 time=0
EXTRACT: note_on channel=9 note=80 velocity=127 time=0
EXTRACT: note_on channel=4 note=34 velocity=110 time=0
EXTRACT: note_on channel=4 note=46 velocity=110 time=0
EXTRACT: note_on channel=0 note=30 velocity=0 time=0.028937864583333334
EXTRACT: note_on channel=9 note=54 velocity=0 time=0.011575145833333333
EXTRACT: note_on channel=1 note=30 velocity=0 time=0.010128252604166667
EXTRACT: note_on channel=9 note=56 velocity=0 time=0.018809611979166665
EXTRACT: note_on channel=9 note=42 velocity=0 time=0.0057875729166666666
EXTRACT: note_on channel=9 note=80 velocity=0 time=0.060769515625
EXTRACT: note_on channel=9 note=54 velocity=49 time=0.0028937864583333333
EXTRACT: note_on channel=9 note=56 velocity=23 time=0
EXTRACT: note_on channel=9 note=54 velocity=0 time=0.04051301041666667
EXTRACT: note_on channel=4 note=34 velocity=0 time=0.054981942708333335
EXTRACT: note_on channel=4 note=46 velocity=0 time=0.011575145833333333
EXTRACT: note_on channel=8 note=65 velocity=0 time=0.01736271875
EXTRACT: note_on channel=2 note=73 velocity=0 time=0.0028937864583333333
EXTRACT: note_on channel=8 note=73 velocity=0 time=0.0028937864583333333
EXTRACT: note_on channel=8 note=70 velocity=0 time=0
EXTRACT: note_on channel=2 note=77 velocity=0 time=0.0028937864583333333
EXTRACT: note_on channel=9 note=56 velocity=0 time=0.0028937864583333333
EXTRACT: note_on channel=9 note=36 velocity=116 time=0.0028937864583333333
EXTRACT: note_on channel=9 note=42 velocity=122 time=0
EXTRACT: note_on channel=9 note=54 velocity=90 time=0
EXTRACT: note_on channel=9 note=57 velocity=60 time=0
EXTRACT: note_on channel=0 note=30 velocity=124 time=0
EXTRACT: note_on channel=2 note=82 velocity=0 time=0
EXTRACT: note_on channel=2 note=73 velocity=86 time=0
EXTRACT: note_on channel=2 note=78 velocity=89 time=0
EXTRACT: note_on channel=2 note=82 velocity=82 time=0
EXTRACT: note_on channel=5 note=30 velocity=124 time=0
EXTRACT: note_on channel=5 note=42 velocity=93 time=0
EXTRACT: note_on channel=8 note=66 velocity=81 time=0
EXTRACT: note_on channel=8 note=70 velocity=84 time=0
EXTRACT: note_on channel=8 note=73 velocity=77 time=0
EXTRACT: note_on channel=1 note=30 velocity=124 time=0.0217033984375
EXTRACT: note_on channel=9 note=54 velocity=0 time=0.027490971354166668
EXTRACT: note_on channel=9 note=42 velocity=0 time=0.043406796875
EXTRACT: note_on channel=9 note=36 velocity=0 time=0.043406796875
EXTRACT: note_on channel=9 note=57 velocity=0 time=0
EXTRACT: note_on channel=9 note=54 velocity=42 time=0.0028937864583333333
EXTRACT: note_on channel=9 note=54 velocity=0 time=0.052088156249999996
EXTRACT: note_on channel=0 note=30 velocity=0 time=0.07234466145833333
EXTRACT: note_on channel=9 note=42 velocity=100 time=0.014468932291666667
EXTRACT: note_on channel=9 note=54 velocity=78 time=0
EXTRACT: note_on channel=9 note=56 velocity=59 time=0
EXTRACT: note_on channel=9 note=80 velocity=127 time=0
EXTRACT: note_on channel=1 note=30 velocity=0 time=0.007234466145833333
EXTRACT: note_on channel=9 note=54 velocity=0 time=0.027490971354166668
EXTRACT: note_on channel=5 note=30 velocity=0 time=0.011575145833333333
EXTRACT: note_on channel=5 note=42 velocity=0 time=0.0028937864583333333
EXTRACT: note_on channel=9 note=56 velocity=0 time=0.023150291666666666
EXTRACT: note_on channel=9 note=42 velocity=0 time=0.0028937864583333333
EXTRACT: note_on channel=9 note=80 velocity=0 time=0.060769515625
EXTRACT: note_on channel=9 note=54 velocity=54 time=0.0028937864583333333
EXTRACT: note_on channel=9 note=56 velocity=23 time=0
EXTRACT: note_on channel=9 note=54 velocity=0 time=0.07523844791666666
EXTRACT: note_on channel=9 note=56 velocity=0 time=0.060769515625
EXTRACT: note_on channel=9 note=39 velocity=80 time=0.0028937864583333333
EXTRACT: note_on channel=9 note=40 velocity=121 time=0
EXTRACT: note_on channel=9 note=42 velocity=114 time=0
EXTRACT: note_on channel=9 note=54 velocity=85 time=0
EXTRACT: note_on channel=0 note=30 velocity=119 time=0
EXTRACT: note_on channel=5 note=30 velocity=121 time=0
EXTRACT: note_on channel=5 note=42 velocity=90 time=0
EXTRACT: note_on channel=1 note=30 velocity=119 time=0.0217033984375
EXTRACT: note_on channel=9 note=54 velocity=0 time=0.0217033984375
EXTRACT: note_on channel=9 note=42 velocity=0 time=0.06366330208333333
EXTRACT: note_on channel=9 note=40 velocity=0 time=0.028937864583333334
EXTRACT: note_on channel=9 note=39 velocity=0 time=0
EXTRACT: note_on channel=9 note=54 velocity=49 time=0.0028937864583333333
EXTRACT: note_on channel=9 note=54 velocity=0 time=0.07234466145833333
EXTRACT: note_on channel=5 note=30 velocity=0 time=0.04051301041666667
EXTRACT: note_on channel=5 note=42 velocity=0 time=0.0028937864583333333
EXTRACT: note_on channel=0 note=30 velocity=0 time=0.01736271875
EXTRACT: note_on channel=9 note=36 velocity=111 time=0.0057875729166666666
EXTRACT: note_on channel=9 note=42 velocity=90 time=0
EXTRACT: note_on channel=9 note=54 velocity=80 time=0
EXTRACT: note_on channel=9 note=56 velocity=59 time=0
EXTRACT: note_on channel=9 note=80 velocity=127 time=0
EXTRACT: note_on channel=0 note=32 velocity=122 time=0
EXTRACT: note_on channel=4 note=34 velocity=114 time=0
EXTRACT: note_on channel=4 note=46 velocity=121 time=0
EXTRACT: note_on channel=5 note=32 velocity=107 time=0
EXTRACT: note_on channel=5 note=44 velocity=76 time=0
EXTRACT: note_on channel=1 note=30 velocity=0 time=0.015915825520833333
EXTRACT: note_on channel=1 note=32 velocity=122 time=0.0057875729166666666
EXTRACT: note_on channel=9 note=54 velocity=0 time=0.0217033984375
EXTRACT: note_on channel=9 note=56 velocity=0 time=0.026044078124999998
EXTRACT: note_on channel=9 note=42 velocity=0 time=0.0057875729166666666
EXTRACT: note_on channel=9 note=36 velocity=0 time=0.020256505208333334
EXTRACT: note_on channel=9 note=80 velocity=0 time=0.04051301041666667
EXTRACT: note_on channel=9 note=54 velocity=52 time=0.0028937864583333333
EXTRACT: note_on channel=9 note=56 velocity=23 time=0
EXTRACT: note_on channel=4 note=34 velocity=0 time=0.014468932291666667
EXTRACT: note_on channel=4 note=46 velocity=0 time=0.031831651041666666
EXTRACT: note_on channel=9 note=54 velocity=0 time=0.0057875729166666666
EXTRACT: note_on channel=2 note=73 velocity=0 time=0.07523844791666666
EXTRACT: note_on channel=8 note=66 velocity=0 time=0.0028937864583333333
EXTRACT: note_on channel=0 note=32 velocity=0 time=0.0028937864583333333
EXTRACT: note_on channel=2 note=78 velocity=0 time=0
EXTRACT: note_on channel=8 note=70 velocity=0 time=0
EXTRACT: note_on channel=9 note=56 velocity=0 time=0.0028937864583333333
EXTRACT: note_on channel=5 note=32 velocity=0 time=0
EXTRACT: note_on channel=9 note=36 velocity=112 time=0.0028937864583333333
EXTRACT: note_on channel=9 note=42 velocity=122 time=0
EXTRACT: note_on channel=9 note=54 velocity=86 time=0
EXTRACT: note_on channel=9 note=57 velocity=79 time=0
EXTRACT: note_on channel=0 note=29 velocity=113 time=0
EXTRACT: note_on channel=2 note=72 velocity=87 time=0
EXTRACT: note_on channel=2 note=77 velocity=86 time=0
EXTRACT: note_on channel=2 note=81 velocity=83 time=0
EXTRACT: note_on channel=5 note=29 velocity=102 time=0
EXTRACT: note_on channel=5 note=41 velocity=71 time=0
EXTRACT: note_on channel=8 note=73 velocity=0 time=0
EXTRACT: note_on channel=8 note=65 velocity=82 time=0
EXTRACT: note_on channel=8 note=69 velocity=81 time=0
EXTRACT: note_on channel=8 note=72 velocity=78 time=0
EXTRACT: note_on channel=2 note=82 velocity=0 time=0.0028937864583333333
EXTRACT: note_on channel=5 note=44 velocity=0 time=0
EXTRACT: note_on channel=1 note=32 velocity=0 time=0.013022039062499999
EXTRACT: note_on channel=1 note=29 velocity=113 time=0.0057875729166666666
EXTRACT: note_on channel=9 note=54 velocity=0 time=0.033278544270833335
EXTRACT: note_on channel=9 note=42 velocity=0 time=0.03761922395833333
EXTRACT: note_on channel=9 note=36 velocity=0 time=0.043406796875
EXTRACT: note_on channel=9 note=57 velocity=0 time=0
EXTRACT: note_on channel=9 note=54 velocity=48 time=0.0028937864583333333
EXTRACT: note_on channel=10 note=65 velocity=118 time=0
EXTRACT: note_on channel=9 note=54 velocity=0 time=0.03761922395833333
EXTRACT: note_on channel=5 note=29 velocity=0 time=0.08681359375
EXTRACT: note_on channel=5 note=41 velocity=0 time=0.0028937864583333333
EXTRACT: note_on channel=9 note=42 velocity=100 time=0.011575145833333333
EXTRACT: note_on channel=9 note=54 velocity=81 time=0
EXTRACT: note_on channel=9 note=56 velocity=59 time=0
EXTRACT: note_on channel=9 note=80 velocity=127 time=0
EXTRACT: note_on channel=4 note=34 velocity=118 time=0
EXTRACT: note_on channel=4 note=46 velocity=122 time=0
EXTRACT: note_on channel=9 note=54 velocity=0 time=0.052088156249999996
EXTRACT: note_on channel=9 note=56 velocity=0 time=0.020256505208333334
EXTRACT: note_on channel=9 note=42 velocity=0 time=0.0028937864583333333
EXTRACT: note_on channel=0 note=29 velocity=0 time=0.028937864583333334
EXTRACT: note_on channel=1 note=29 velocity=0 time=0.0217033984375
EXTRACT: note_on channel=9 note=80 velocity=0 time=0.010128252604166667
EXTRACT: note_on channel=9 note=54 velocity=65 time=0.0028937864583333333
EXTRACT: note_on channel=9 note=56 velocity=23 time=0
EXTRACT: note_on channel=4 note=34 velocity=0 time=0.043406796875
EXTRACT: note_on channel=4 note=46 velocity=0 time=0.0057875729166666666
EXTRACT: note_on channel=9 note=54 velocity=0 time=0.011575145833333333
EXTRACT: note_on channel=9 note=56 velocity=0 time=0.07523844791666666
EXTRACT: note_on channel=9 note=39 velocity=80 time=0.0028937864583333333
EXTRACT: note_on channel=9 note=40 velocity=121 time=0
EXTRACT: note_on channel=9 note=42 velocity=114 time=0
EXTRACT: note_on channel=9 note=54 velocity=82 time=0
EXTRACT: note_on channel=4 note=34 velocity=115 time=0
EXTRACT: note_on channel=4 note=46 velocity=121 time=0
EXTRACT: note_on channel=9 note=54 velocity=0 time=0.052088156249999996
EXTRACT: note_on channel=9 note=42 velocity=0 time=0.054981942708333335
EXTRACT: note_on channel=9 note=40 velocity=0 time=0.028937864583333334
EXTRACT: note_on channel=9 note=39 velocity=0 time=0
EXTRACT: note_on channel=9 note=54 velocity=45 time=0.0028937864583333333
EXTRACT: note_on channel=9 note=54 velocity=0 time=0.03761922395833333
EXTRACT: note_on channel=4 note=34 velocity=0 time=0.011575145833333333
EXTRACT: note_on channel=4 note=46 velocity=0 time=0.011575145833333333
EXTRACT: note_on channel=9 note=42 velocity=90 time=0.078132234375
EXTRACT: note_on channel=9 note=54 velocity=75 time=0
EXTRACT: note_on channel=9 note=56 velocity=59 time=0
EXTRACT: note_on channel=9 note=80 velocity=127 time=0
EXTRACT: note_on channel=4 note=34 velocity=110 time=0
EXTRACT: note_on channel=4 note=46 velocity=110 time=0
EXTRACT: note_on channel=9 note=54 velocity=0 time=0.04051301041666667
EXTRACT: note_on channel=9 note=56 velocity=0 time=0.031831651041666666
EXTRACT: note_on channel=9 note=42 velocity=0 time=0.0028937864583333333
EXTRACT: note_on channel=9 note=80 velocity=0 time=0.060769515625
EXTRACT: note_on channel=9 note=54 velocity=49 time=0.0028937864583333333
EXTRACT: note_on channel=9 note=56 velocity=23 time=0
EXTRACT: note_on channel=9 note=54 velocity=0 time=0.04051301041666667
EXTRACT: note_on channel=4 note=34 velocity=0 time=0.05787572916666667
EXTRACT: note_on channel=4 note=46 velocity=0 time=0.008681359375
EXTRACT: note_on channel=2 note=72 velocity=0 time=0.01736271875
EXTRACT: note_on channel=2 note=81 velocity=0 time=0.0028937864583333333
EXTRACT: note_on channel=8 note=65 velocity=0 time=0
EXTRACT: note_on channel=2 note=77 velocity=0 time=0.0028937864583333333
EXTRACT: note_on channel=8 note=72 velocity=0 time=0
EXTRACT: note_on channel=8 note=69 velocity=0 time=0
EXTRACT: note_on channel=9 note=56 velocity=0 time=0.0057875729166666666
EXTRACT: control_change channel=9 control=91 value=63 time=0
EXTRACT: note_on channel=10 note=65 velocity=0 time=0
EXTRACT: note_on channel=9 note=36 velocity=127 time=0.0028937864583333333
EXTRACT: note_on channel=9 note=42 velocity=122 time=0
EXTRACT: note_on channel=9 note=49 velocity=78 time=0
EXTRACT: note_on channel=9 note=54 velocity=90 time=0
EXTRACT: note_on channel=3 note=58 velocity=127 time=0
EXTRACT: note_on channel=9 note=54 velocity=0 time=0.049194369791666664
EXTRACT: note_on channel=9 note=42 velocity=0 time=0.04051301041666667
EXTRACT: note_on channel=3 note=58 velocity=0 time=0.028937864583333334
EXTRACT: note_on channel=3 note=58 velocity=127 time=0.15915825520833332
EXTRACT: note_on channel=3 note=58 velocity=0 time=0.112857671875
EXTRACT: note_on channel=3 note=56 velocity=125 time=0.026044078124999998
EXTRACT: note_on channel=3 note=56 velocity=0 time=0.41381146354166665
EXTRACT: note_on channel=3 note=53 velocity=122 time=0.0028937864583333333
EXTRACT: note_on channel=3 note=53 velocity=0 time=0.10417631249999999
EXTRACT: note_on channel=9 note=36 velocity=0 time=0.028937864583333334
EXTRACT: control_change channel=9 control=91 value=52 time=0.12153903125
EXTRACT: note_on channel=3 note=51 velocity=122 time=0.023150291666666666
EXTRACT: note_on channel=3 note=51 velocity=0 time=0.10996388541666667
EXTRACT: note_on channel=3 note=51 velocity=106 time=0.16783961458333332
EXTRACT: note_on channel=3 note=51 velocity=0 time=0.09260116666666666
EXTRACT: note_on channel=3 note=51 velocity=122 time=0.04630058333333333
EXTRACT: note_on channel=9 note=49 velocity=0 time=0.13600796354166667
EXTRACT: note_on channel=9 note=39 velocity=80 time=0.0028937864583333333
EXTRACT: note_on channel=9 note=40 velocity=121 time=0
EXTRACT: note_on channel=9 note=42 velocity=114 time=0
EXTRACT: note_on channel=9 note=42 velocity=0 time=0.10707009895833333
EXTRACT: note_on channel=9 note=40 velocity=0 time=0.052088156249999996
EXTRACT: note_on channel=9 note=39 velocity=0 time=0
EXTRACT: note_on channel=3 note=51 velocity=0 time=0.11575145833333333
EXTRACT: note_on channel=9 note=36 velocity=82 time=0.0028937864583333333
EXTRACT: note_on channel=9 note=46 velocity=54 time=0
EXTRACT: note_on channel=3 note=49 velocity=125 time=0
EXTRACT: note_on channel=9 note=46 velocity=0 time=0.07523844791666666
EXTRACT: note_on channel=9 note=36 velocity=0 time=0.03761922395833333
EXTRACT: note_on channel=3 note=49 velocity=0 time=0.0057875729166666666
EXTRACT: note_on channel=9 note=54 velocity=11 time=0.020256505208333334
EXTRACT: note_on channel=9 note=54 velocity=0 time=0.04051301041666667
EXTRACT: note_on channel=9 note=30 velocity=42 time=0.09838873958333333
EXTRACT: note_on channel=9 note=36 velocity=116 time=0
EXTRACT: note_on channel=9 note=42 velocity=122 time=0
EXTRACT: note_on channel=9 note=54 velocity=65 time=0
EXTRACT: note_on channel=9 note=57 velocity=51 time=0
EXTRACT: note_on channel=0 note=30 velocity=110 time=0
EXTRACT: note_on channel=6 note=66 velocity=53 time=0
EXTRACT: note_on channel=6 note=73 velocity=39 time=0
EXTRACT: note_on channel=1 note=30 velocity=110 time=0.0217033984375
EXTRACT: note_on channel=9 note=54 velocity=0 time=0.027490971354166668
EXTRACT: note_on channel=9 note=42 velocity=0 time=0.04051301041666667
EXTRACT: note_on channel=9 note=30 velocity=0 time=0.04630058333333333
EXTRACT: note_on channel=9 note=36 velocity=0 time=0
EXTRACT: note_on channel=9 note=57 velocity=0 time=0
EXTRACT: note_on channel=9 note=54 velocity=17 time=0.0028937864583333333
EXTRACT: note_on channel=9 note=54 velocity=0 time=0.052088156249999996
EXTRACT: note_on channel=0 note=30 velocity=0 time=0.07234466145833333
EXTRACT: note_on channel=9 note=30 velocity=42 time=0.014468932291666667
EXTRACT: note_on channel=9 note=42 velocity=100 time=0
EXTRACT: note_on channel=9 note=54 velocity=53 time=0
EXTRACT: note_on channel=9 note=56 velocity=19 time=0
EXTRACT: note_on channel=9 note=80 velocity=127 time=0
EXTRACT: note_on channel=1 note=30 velocity=0 time=0.007234466145833333
EXTRACT: note_on channel=9 note=54 velocity=0 time=0.027490971354166668
EXTRACT: note_on channel=9 note=56 velocity=0 time=0.03761922395833333
EXTRACT: note_on channel=9 note=42 velocity=0 time=0.0028937864583333333
EXTRACT: note_on channel=9 note=30 velocity=0 time=0.060769515625
EXTRACT: note_on channel=9 note=80 velocity=0 time=0
EXTRACT: note_on channel=9 note=54 velocity=29 time=0.0028937864583333333
EXTRACT: note_on channel=9 note=56 velocity=10 time=0
EXTRACT: note_on channel=9 note=54 velocity=0 time=0.07523844791666666
EXTRACT: note_on channel=9 note=56 velocity=0 time=0.060769515625
EXTRACT: note_on channel=9 note=29 velocity=39 time=0.0028937864583333333
EXTRACT: note_on channel=9 note=39 velocity=80 time=0
EXTRACT: note_on channel=9 note=40 velocity=121 time=0
EXTRACT: note_on channel=9 note=42 velocity=114 time=0
EXTRACT: note_on channel=9 note=54 velocity=60 time=0
EXTRACT: note_on channel=0 note=30 velocity=105 time=0
EXTRACT: note_on channel=1 note=30 velocity=105 time=0.0217033984375
EXTRACT: note_on channel=9 note=54 velocity=0 time=0.0217033984375
EXTRACT: note_on channel=9 note=42 velocity=0 time=0.06366330208333333
EXTRACT: note_on channel=9 note=29 velocity=0 time=0.028937864583333334
EXTRACT: note_on channel=9 note=39 velocity=0 time=0
EXTRACT: note_on channel=9 note=40 velocity=0 time=0
EXTRACT: note_on channel=9 note=54 velocity=24 time=0.0028937864583333333
EXTRACT: note_on channel=9 note=54 velocity=0 time=0.07234466145833333
EXTRACT: note_on channel=0 note=30 velocity=0 time=0.060769515625
EXTRACT: note_on channel=9 note=30 velocity=42 time=0.0057875729166666666
EXTRACT: note_on channel=9 note=36 velocity=111 time=0
EXTRACT: note_on channel=9 note=42 velocity=90 time=0
EXTRACT: note_on channel=9 note=54 velocity=55 time=0
EXTRACT: note_on channel=9 note=56 velocity=19 time=0
EXTRACT: note_on channel=9 note=80 velocity=127 time=0
EXTRACT: note_on channel=0 note=32 velocity=108 time=0
EXTRACT: note_on channel=1 note=30 velocity=0 time=0.015915825520833333
EXTRACT: note_on channel=1 note=32 velocity=108 time=0.0057875729166666666
EXTRACT: note_on channel=9 note=54 velocity=0 time=0.0217033984375
EXTRACT: note_on channel=9 note=56 velocity=0 time=0.026044078124999998
EXTRACT: note_on channel=9 note=42 velocity=0 time=0.0057875729166666666
EXTRACT: note_on channel=9 note=36 velocity=0 time=0.020256505208333334
EXTRACT: note_on channel=9 note=30 velocity=0 time=0.03761922395833333
EXTRACT: note_on channel=9 note=80 velocity=0 time=0.0028937864583333333
EXTRACT: note_on channel=9 note=29 velocity=28 time=0.0028937864583333333
EXTRACT: note_on channel=9 note=54 velocity=27 time=0
EXTRACT: note_on channel=9 note=56 velocity=10 time=0
EXTRACT: note_on channel=9 note=54 velocity=0 time=0.052088156249999996
EXTRACT: note_on channel=6 note=66 velocity=0 time=0.078132234375
EXTRACT: note_on channel=0 note=32 velocity=0 time=0.0028937864583333333
EXTRACT: note_on channel=9 note=56 velocity=0 time=0.0028937864583333333
EXTRACT: note_on channel=9 note=29 velocity=0 time=0
EXTRACT: note_on channel=6 note=73 velocity=0 time=0
EXTRACT: note_on channel=9 note=30 velocity=39 time=0.0028937864583333333
EXTRACT: note_on channel=9 note=36 velocity=112 time=0
EXTRACT: note_on channel=9 note=42 velocity=122 time=0
EXTRACT: note_on channel=9 note=54 velocity=61 time=0
EXTRACT: note_on channel=9 note=57 velocity=70 time=0
EXTRACT: note_on channel=0 note=29 velocity=99 time=0
EXTRACT: note_on channel=6 note=65 velocity=53 time=0
EXTRACT: note_on channel=6 note=72 velocity=39 time=0
EXTRACT: note_on channel=1 note=32 velocity=0 time=0.015915825520833333
EXTRACT: note_on channel=1 note=29 velocity=99 time=0.0057875729166666666
EXTRACT: note_on channel=9 note=54 velocity=0 time=0.033278544270833335
EXTRACT: note_on channel=9 note=42 velocity=0 time=0.03761922395833333
EXTRACT: note_on channel=9 note=30 velocity=0 time=0.03761922395833333
EXTRACT: note_on channel=9 note=36 velocity=0 time=0.0057875729166666666
EXTRACT: note_on channel=9 note=57 velocity=0 time=0
EXTRACT: note_on channel=9 note=29 velocity=29 time=0.0028937864583333333
EXTRACT: note_on channel=9 note=54 velocity=23 time=0
EXTRACT: note_on channel=9 note=54 velocity=0 time=0.03761922395833333
EXTRACT: note_on channel=0 note=29 velocity=0 time=0.06655708854166667
EXTRACT: note_on channel=1 note=29 velocity=0 time=0.0217033984375
EXTRACT: note_on channel=9 note=29 velocity=0 time=0.010128252604166667
EXTRACT: note_on channel=9 note=30 velocity=38 time=0.0028937864583333333
EXTRACT: note_on channel=9 note=42 velocity=100 time=0
EXTRACT: note_on channel=9 note=54 velocity=56 time=0
EXTRACT: note_on channel=9 note=56 velocity=19 time=0
EXTRACT: note_on channel=9 note=80 velocity=127 time=0
EXTRACT: note_on channel=9 note=54 velocity=0 time=0.052088156249999996
EXTRACT: note_on channel=9 note=56 velocity=0 time=0.020256505208333334
EXTRACT: note_on channel=9 note=42 velocity=0 time=0.0028937864583333333
EXTRACT: note_on channel=9 note=30 velocity=0 time=0.060769515625
EXTRACT: note_on channel=9 note=80 velocity=0 time=0
EXTRACT: note_on channel=9 note=29 velocity=26 time=0.0028937864583333333
EXTRACT: note_on channel=9 note=54 velocity=40 time=0
EXTRACT: note_on channel=9 note=56 velocity=10 time=0
EXTRACT: note_on channel=9 note=54 velocity=0 time=0.060769515625
EXTRACT: note_on channel=9 note=56 velocity=0 time=0.07523844791666666
EXTRACT: note_on channel=9 note=29 velocity=0 time=0
EXTRACT: note_on channel=9 note=30 velocity=31 time=0.0028937864583333333
EXTRACT: note_on channel=9 note=39 velocity=80 time=0
EXTRACT: note_on channel=9 note=40 velocity=121 time=0
EXTRACT: note_on channel=9 note=42 velocity=114 time=0
EXTRACT: note_on channel=9 note=54 velocity=57 time=0
EXTRACT: note_on channel=9 note=54 velocity=0 time=0.054981942708333335
EXTRACT: note_on channel=9 note=42 velocity=0 time=0.052088156249999996
EXTRACT: note_on channel=9 note=30 velocity=0 time=0.028937864583333334
EXTRACT: note_on channel=9 note=39 velocity=0 time=0
EXTRACT: note_on channel=9 note=40 velocity=0 time=0
EXTRACT: note_on channel=9 note=54 velocity=20 time=0.0028937864583333333
EXTRACT: note_on channel=9 note=54 velocity=0 time=0.03761922395833333
EXTRACT: note_on channel=9 note=30 velocity=35 time=0.10128252604166667
EXTRACT: note_on channel=9 note=42 velocity=90 time=0
EXTRACT: note_on channel=9 note=54 velocity=50 time=0
EXTRACT: note_on channel=9 note=56 velocity=19 time=0
EXTRACT: note_on channel=9 note=80 velocity=127 time=0
EXTRACT: note_on channel=9 note=54 velocity=0 time=0.04051301041666667
EXTRACT: note_on channel=9 note=56 velocity=0 time=0.031831651041666666
EXTRACT: note_on channel=9 note=42 velocity=0 time=0.0028937864583333333
EXTRACT: note_on channel=9 note=30 velocity=0 time=0.060769515625
EXTRACT: note_on channel=9 note=80 velocity=0 time=0
EXTRACT: note_on channel=9 note=29 velocity=28 time=0.0028937864583333333
EXTRACT: note_on channel=9 note=54 velocity=24 time=0
EXTRACT: note_on channel=9 note=56 velocity=10 time=0
EXTRACT: note_on channel=9 note=54 velocity=0 time=0.04051301041666667
EXTRACT: note_on channel=6 note=65 velocity=0 time=0.09260116666666666
EXTRACT: note_on channel=9 note=56 velocity=0 time=0.0028937864583333333
EXTRACT: note_on channel=9 note=29 velocity=0 time=0
EXTRACT: note_on channel=9 note=30 velocity=42 time=0.0028937864583333333
EXTRACT: note_on channel=9 note=36 velocity=114 time=0
EXTRACT: note_on channel=9 note=42 velocity=122 time=0
EXTRACT: note_on channel=9 note=54 velocity=65 time=0
EXTRACT: note_on channel=0 note=34 velocity=112 time=0
EXTRACT: note_on channel=3 note=58 velocity=127 time=0
EXTRACT: note_on channel=6 note=72 velocity=0 time=0
EXTRACT: note_on channel=1 note=34 velocity=112 time=0.0217033984375
EXTRACT: note_on channel=9 note=54 velocity=0 time=0.027490971354166668
EXTRACT: note_on channel=9 note=42 velocity=0 time=0.043406796875
EXTRACT: note_on channel=3 note=58 velocity=0 time=0.011575145833333333
EXTRACT: note_on channel=9 note=36 velocity=0 time=0.031831651041666666
EXTRACT: note_on channel=9 note=30 velocity=0 time=0
EXTRACT: note_on channel=9 note=54 velocity=17 time=0.0028937864583333333
EXTRACT: note_on channel=9 note=54 velocity=0 time=0.052088156249999996
EXTRACT: note_on channel=9 note=30 velocity=42 time=0.08681359375
EXTRACT: note_on channel=9 note=42 velocity=100 time=0
EXTRACT: note_on channel=9 note=54 velocity=53 time=0
EXTRACT: note_on channel=9 note=56 velocity=19 time=0
EXTRACT: note_on channel=9 note=80 velocity=127 time=0
EXTRACT: note_on channel=3 note=58 velocity=127 time=0
EXTRACT: note_on channel=9 note=54 velocity=0 time=0.0347254375
EXTRACT: note_on channel=0 note=34 velocity=0 time=0.0057875729166666666
EXTRACT: note_on channel=1 note=34 velocity=0 time=0.0217033984375
EXTRACT: note_on channel=9 note=56 velocity=0 time=0.010128252604166667
EXTRACT: note_on channel=9 note=42 velocity=0 time=0.0028937864583333333
EXTRACT: note_on channel=3 note=58 velocity=0 time=0.008681359375
EXTRACT: note_on channel=9 note=30 velocity=0 time=0.052088156249999996
EXTRACT: note_on channel=9 note=80 velocity=0 time=0
EXTRACT: note_on channel=9 note=54 velocity=29 time=0.0028937864583333333
EXTRACT: note_on channel=9 note=56 velocity=10 time=0
EXTRACT: note_on channel=3 note=56 velocity=127 time=0
EXTRACT: note_on channel=9 note=54 velocity=0 time=0.07523844791666666
EXTRACT: note_on channel=9 note=56 velocity=0 time=0.060769515625
EXTRACT: note_on channel=9 note=29 velocity=39 time=0.0028937864583333333
EXTRACT: note_on channel=9 note=39 velocity=80 time=0
EXTRACT: note_on channel=9 note=40 velocity=121 time=0
EXTRACT: note_on channel=9 note=42 velocity=114 time=0
EXTRACT: note_on channel=9 note=54 velocity=60 time=0
EXTRACT: note_on channel=0 note=34 velocity=109 time=0
EXTRACT: note_on channel=1 note=34 velocity=109 time=0.0217033984375
EXTRACT: note_on channel=9 note=54 velocity=0 time=0.0217033984375
EXTRACT: note_on channel=9 note=42 velocity=0 time=0.06366330208333333
EXTRACT: note_on channel=9 note=29 velocity=0 time=0.028937864583333334
EXTRACT: note_on channel=9 note=39 velocity=0 time=0
EXTRACT: note_on channel=9 note=40 velocity=0 time=0
EXTRACT: note_on channel=9 note=54 velocity=24 time=0.0028937864583333333
EXTRACT: note_on channel=9 note=54 velocity=0 time=0.07234466145833333
EXTRACT: note_on channel=0 note=34 velocity=0 time=0.060769515625
EXTRACT: note_on channel=3 note=56 velocity=0 time=0.0028937864583333333
EXTRACT: note_on channel=9 note=30 velocity=42 time=0.0028937864583333333
EXTRACT: note_on channel=9 note=36 velocity=109 time=0
EXTRACT: note_on channel=9 note=42 velocity=90 time=0
EXTRACT: note_on channel=9 note=54 velocity=55 time=0
EXTRACT: note_on channel=9 note=56 velocity=19 time=0
EXTRACT: note_on channel=9 note=80 velocity=127 time=0
EXTRACT: note_on channel=0 note=33 velocity=101 time=0
EXTRACT: note_on channel=3 note=53 velocity=109 time=0
EXTRACT: note_on channel=1 note=34 velocity=0 time=0.015915825520833333
EXTRACT: note_on channel=1 note=33 velocity=101 time=0.0057875729166666666
EXTRACT: note_on channel=9 note=54 velocity=0 time=0.018809611979166665
EXTRACT: note_on channel=9 note=56 velocity=0 time=0.028937864583333334
EXTRACT: note_on channel=9 note=42 velocity=0 time=0.0057875729166666666
EXTRACT: note_on channel=9 note=36 velocity=0 time=0.031831651041666666
EXTRACT: note_on channel=3 note=53 velocity=0 time=0.020256505208333334
EXTRACT: note_on channel=9 note=30 velocity=0 time=0.0057875729166666666
EXTRACT: note_on channel=9 note=80 velocity=0 time=0.0028937864583333333
EXTRACT: note_on channel=9 note=29 velocity=28 time=0.0028937864583333333
EXTRACT: note_on channel=9 note=54 velocity=27 time=0
EXTRACT: note_on channel=9 note=56 velocity=10 time=0
EXTRACT: note_on channel=9 note=54 velocity=0 time=0.052088156249999996
EXTRACT: note_on channel=0 note=33 velocity=0 time=0.08102602083333334
EXTRACT: note_on channel=9 note=56 velocity=0 time=0.0028937864583333333
EXTRACT: note_on channel=9 note=29 velocity=0 time=0
EXTRACT: note_on channel=9 note=30 velocity=39 time=0.0028937864583333333
EXTRACT: note_on channel=9 note=36 velocity=109 time=0
EXTRACT: note_on channel=9 note=42 velocity=122 time=0
EXTRACT: note_on channel=9 note=54 velocity=61 time=0
EXTRACT: note_on channel=0 note=32 velocity=99 time=0
EXTRACT: note_on channel=3 note=51 velocity=126 time=0
EXTRACT: note_on channel=1 note=33 velocity=0 time=0.015915825520833333
EXTRACT: note_on channel=1 note=32 velocity=99 time=0.0057875729166666666
EXTRACT: note_on channel=9 note=54 velocity=0 time=0.03617233072916667
EXTRACT: note_on channel=9 note=42 velocity=0 time=0.0347254375
EXTRACT: note_on channel=9 note=36 velocity=0 time=0.008681359375
EXTRACT: note_on channel=3 note=51 velocity=0 time=0.008681359375
EXTRACT: note_on channel=9 note=30 velocity=0 time=0.023150291666666666
EXTRACT: note_on channel=9 note=29 velocity=29 time=0.0057875729166666666
EXTRACT: note_on channel=9 note=54 velocity=23 time=0
EXTRACT: note_on channel=9 note=54 velocity=0 time=0.03761922395833333
EXTRACT: note_on channel=0 note=32 velocity=0 time=0.095494953125
EXTRACT: note_on channel=9 note=29 velocity=0 time=0.0028937864583333333
EXTRACT: note_on channel=9 note=30 velocity=38 time=0.0028937864583333333
EXTRACT: note_on channel=9 note=36 velocity=113 time=0
EXTRACT: note_on channel=9 note=42 velocity=100 time=0
EXTRACT: note_on channel=9 note=54 velocity=56 time=0
EXTRACT: note_on channel=9 note=56 velocity=19 time=0
EXTRACT: note_on channel=9 note=80 velocity=127 time=0
EXTRACT: note_on channel=0 note=31 velocity=105 time=0
EXTRACT: note_on channel=3 note=51 velocity=127 time=0
EXTRACT: note_on channel=1 note=32 velocity=0 time=0.015915825520833333
EXTRACT: note_on channel=1 note=31 velocity=105 time=0.0057875729166666666
EXTRACT: note_on channel=9 note=54 velocity=0 time=0.0303847578125
EXTRACT: note_on channel=9 note=56 velocity=0 time=0.020256505208333334
EXTRACT: note_on channel=9 note=42 velocity=0 time=0.0028937864583333333
EXTRACT: note_on channel=3 note=51 velocity=0 time=0.014468932291666667
EXTRACT: note_on channel=9 note=30 velocity=0 time=0.043406796875
EXTRACT: note_on channel=9 note=36 velocity=0 time=0.0028937864583333333
EXTRACT: note_on channel=9 note=80 velocity=0 time=0
EXTRACT: note_on channel=9 note=29 velocity=26 time=0.0028937864583333333
EXTRACT: note_on channel=9 note=54 velocity=40 time=0
EXTRACT: note_on channel=9 note=56 velocity=10 time=0
EXTRACT: note_on channel=9 note=54 velocity=0 time=0.060769515625
EXTRACT: note_on channel=0 note=31 velocity=0 time=0.07234466145833333
EXTRACT: note_on channel=9 note=56 velocity=0 time=0.0028937864583333333
EXTRACT: note_on channel=9 note=29 velocity=0 time=0
EXTRACT: note_on channel=9 note=30 velocity=31 time=0.0028937864583333333
EXTRACT: note_on channel=9 note=39 velocity=80 time=0
EXTRACT: note_on channel=9 note=40 velocity=121 time=0
EXTRACT: note_on channel=9 note=42 velocity=114 time=0
EXTRACT: note_on channel=9 note=54 velocity=57 time=0
EXTRACT: note_on channel=0 note=30 velocity=100 time=0
EXTRACT: note_on channel=3 note=51 velocity=127 time=0
EXTRACT: note_on channel=1 note=31 velocity=0 time=0.015915825520833333
EXTRACT: note_on channel=1 note=30 velocity=100 time=0.0057875729166666666
EXTRACT: note_on channel=9 note=54 velocity=0 time=0.033278544270833335
EXTRACT: note_on channel=9 note=42 velocity=0 time=0.052088156249999996
EXTRACT: note_on channel=9 note=30 velocity=0 time=0.028937864583333334
EXTRACT: note_on channel=9 note=39 velocity=0 time=0
EXTRACT: note_on channel=9 note=40 velocity=0 time=0
EXTRACT: note_on channel=9 note=54 velocity=20 time=0.0028937864583333333
EXTRACT: note_on channel=9 note=54 velocity=0 time=0.03761922395833333
EXTRACT: note_on channel=3 note=51 velocity=0 time=0.095494953125
EXTRACT: note_on channel=9 note=30 velocity=35 time=0.0057875729166666666
EXTRACT: note_on channel=9 note=42 velocity=90 time=0
EXTRACT: note_on channel=9 note=54 velocity=50 time=0
EXTRACT: note_on channel=9 note=56 velocity=19 time=0
EXTRACT: note_on channel=9 note=80 velocity=127 time=0
EXTRACT: note_on channel=3 note=49 velocity=121 time=0
EXTRACT: note_on channel=0 note=30 velocity=0 time=0.028937864583333334
EXTRACT: note_on channel=9 note=54 velocity=0 time=0.011575145833333333
EXTRACT: note_on channel=1 note=30 velocity=0 time=0.010128252604166667
EXTRACT: note_on channel=9 note=56 velocity=0 time=0.0217033984375
EXTRACT: note_on channel=9 note=42 velocity=0 time=0.0028937864583333333
EXTRACT: note_on channel=9 note=30 velocity=0 time=0.05787572916666667
EXTRACT: note_on channel=9 note=80 velocity=0 time=0.0028937864583333333
EXTRACT: note_on channel=9 note=29 velocity=28 time=0.0028937864583333333
EXTRACT: note_on channel=9 note=54 velocity=24 time=0
EXTRACT: note_on channel=9 note=56 velocity=10 time=0
EXTRACT: note_on channel=3 note=49 velocity=0 time=0.011575145833333333
EXTRACT: note_on channel=9 note=54 velocity=0 time=0.028937864583333334
EXTRACT: note_on channel=9 note=56 velocity=0 time=0.095494953125
EXTRACT: note_on channel=9 note=29 velocity=0 time=0
EXTRACT: note_on channel=9 note=30 velocity=42 time=0.0028937864583333333
EXTRACT: note_on channel=9 note=36 velocity=116 time=0
EXTRACT: note_on channel=9 note=42 velocity=122 time=0
EXTRACT: note_on channel=9 note=54 velocity=65 time=0
EXTRACT: note_on channel=9 note=57 velocity=51 time=0
EXTRACT: note_on channel=0 note=30 velocity=110 time=0
EXTRACT: note_on channel=6 note=66 velocity=53 time=0
EXTRACT: note_on channel=6 note=73 velocity=39 time=0
EXTRACT: note_on channel=1 note=30 velocity=110 time=0.0217033984375
EXTRACT: note_on channel=9 note=54 velocity=0 time=0.027490971354166668
EXTRACT: note_on channel=9 note=42 velocity=0 time=0.043406796875
EXTRACT: note_on channel=9 note=30 velocity=0 time=0.043406796875
EXTRACT: note_on channel=9 note=36 velocity=0 time=0
EXTRACT: note_on channel=9 note=57 velocity=0 time=0
EXTRACT: note_on channel=9 note=54 velocity=17 time=0.0028937864583333333
EXTRACT: note_on channel=9 note=54 velocity=0 time=0.052088156249999996
EXTRACT: note_on channel=0 note=30 velocity=0 time=0.07234466145833333
EXTRACT: note_on channel=9 note=30 velocity=42 time=0.014468932291666667
EXTRACT: note_on channel=9 note=42 velocity=100 time=0
EXTRACT: note_on channel=9 note=54 velocity=53 time=0
EXTRACT: note_on channel=9 note=56 velocity=19 time=0
EXTRACT: note_on channel=9 note=80 velocity=127 time=0
EXTRACT: note_on channel=1 note=30 velocity=0 time=0.007234466145833333
EXTRACT: note_on channel=9 note=54 velocity=0 time=0.027490971354166668
EXTRACT: note_on channel=9 note=56 velocity=0 time=0.03761922395833333
EXTRACT: note_on channel=9 note=42 velocity=0 time=0.0028937864583333333
EXTRACT: note_on channel=9 note=30 velocity=0 time=0.060769515625
EXTRACT: note_on channel=9 note=80 velocity=0 time=0
EXTRACT: note_on channel=9 note=54 velocity=29 time=0.0028937864583333333
EXTRACT: note_on channel=9 note=56 velocity=10 time=0
EXTRACT: note_on channel=9 note=54 velocity=0 time=0.07523844791666666
EXTRACT: note_on channel=9 note=56 velocity=0 time=0.060769515625
EXTRACT: note_on channel=9 note=29 velocity=39 time=0.0028937864583333333
EXTRACT: note_on channel=9 note=39 velocity=80 time=0
EXTRACT: note_on channel=9 note=40 velocity=121 time=0
EXTRACT: note_on channel=9 note=42 velocity=114 time=0
EXTRACT: note_on channel=9 note=54 velocity=60 time=0
EXTRACT: note_on channel=0 note=30 velocity=105 time=0
EXTRACT: note_on channel=1 note=30 velocity=105 time=0.0217033984375
EXTRACT: note_on channel=9 note=54 velocity=0 time=0.0217033984375
EXTRACT: note_on channel=9 note=42 velocity=0 time=0.06366330208333333
EXTRACT: note_on channel=9 note=29 velocity=0 time=0.028937864583333334
EXTRACT: note_on channel=9 note=39 velocity=0 time=0
EXTRACT: note_on channel=9 note=40 velocity=0 time=0
EXTRACT: note_on channel=9 note=54 velocity=24 time=0.0028937864583333333
EXTRACT: note_on channel=9 note=54 velocity=0 time=0.07234466145833333
EXTRACT: note_on channel=0 note=30 velocity=0 time=0.060769515625
EXTRACT: note_on channel=9 note=30 velocity=42 time=0.0057875729166666666
EXTRACT: note_on channel=9 note=36 velocity=111 time=0
EXTRACT: note_on channel=9 note=42 velocity=90 time=0
EXTRACT: note_on channel=9 note=54 velocity=55 time=0
EXTRACT: note_on channel=9 note=56 velocity=19 time=0
EXTRACT: note_on channel=9 note=80 velocity=127 time=0
EXTRACT: note_on channel=0 note=32 velocity=108 time=0
EXTRACT: note_on channel=1 note=30 velocity=0 time=0.015915825520833333
EXTRACT: note_on channel=1 note=32 velocity=108 time=0.0057875729166666666
EXTRACT: note_on channel=9 note=54 velocity=0 time=0.018809611979166665
EXTRACT: note_on channel=9 note=56 velocity=0 time=0.028937864583333334
EXTRACT: note_on channel=9 note=42 velocity=0 time=0.0057875729166666666
EXTRACT: note_on channel=9 note=36 velocity=0 time=0.020256505208333334
EXTRACT: note_on channel=9 note=30 velocity=0 time=0.03761922395833333
EXTRACT: note_on channel=9 note=80 velocity=0 time=0.0028937864583333333
EXTRACT: note_on channel=9 note=29 velocity=28 time=0.0028937864583333333
EXTRACT: note_on channel=9 note=54 velocity=27 time=0
EXTRACT: note_on channel=9 note=56 velocity=10 time=0
EXTRACT: note_on channel=9 note=54 velocity=0 time=0.052088156249999996
EXTRACT: note_on channel=0 note=32 velocity=0 time=0.08102602083333334
EXTRACT: note_on channel=6 note=66 velocity=0 time=0
EXTRACT: note_on channel=9 note=56 velocity=0 time=0.0028937864583333333
EXTRACT: note_on channel=9 note=29 velocity=0 time=0
EXTRACT: note_on channel=9 note=30 velocity=39 time=0.0028937864583333333
EXTRACT: note_on channel=9 note=36 velocity=112 time=0
EXTRACT: note_on channel=9 note=42 velocity=122 time=0
EXTRACT: note_on channel=9 note=54 velocity=61 time=0
EXTRACT: note_on channel=9 note=57 velocity=70 time=0
EXTRACT: note_on channel=0 note=29 velocity=99 time=0
EXTRACT: note_on channel=6 note=73 velocity=0 time=0
EXTRACT: note_on channel=6 note=65 velocity=53 time=0
EXTRACT: note_on channel=6 note=72 velocity=39 time=0
EXTRACT: note_on channel=1 note=32 velocity=0 time=0.015915825520833333
EXTRACT: note_on channel=1 note=29 velocity=99 time=0.0057875729166666666
EXTRACT: note_on channel=9 note=54 velocity=0 time=0.03617233072916667
EXTRACT: note_on channel=9 note=42 velocity=0 time=0.0347254375
EXTRACT: note_on channel=9 note=30 velocity=0 time=0.03761922395833333
EXTRACT: note_on channel=9 note=36 velocity=0 time=0.0057875729166666666
EXTRACT: note_on channel=9 note=57 velocity=0 time=0
EXTRACT: note_on channel=9 note=29 velocity=29 time=0.0028937864583333333
EXTRACT: note_on channel=9 note=54 velocity=23 time=0
EXTRACT: note_on channel=9 note=54 velocity=0 time=0.03761922395833333
EXTRACT: note_on channel=0 note=29 velocity=0 time=0.06655708854166667
EXTRACT: note_on channel=1 note=29 velocity=0 time=0.0217033984375
EXTRACT: note_on channel=9 note=29 velocity=0 time=0.010128252604166667
EXTRACT: note_on channel=9 note=30 velocity=38 time=0.0028937864583333333
EXTRACT: note_on channel=9 note=42 velocity=100 time=0
EXTRACT: note_on channel=9 note=54 velocity=56 time=0
EXTRACT: note_on channel=9 note=56 velocity=19 time=0
EXTRACT: note_on channel=9 note=80 velocity=127 time=0
EXTRACT: note_on channel=9 note=54 velocity=0 time=0.052088156249999996
EXTRACT: note_on channel=9 note=56 velocity=0 time=0.020256505208333334
EXTRACT: note_on channel=9 note=42 velocity=0 time=0.0028937864583333333
EXTRACT: note_on channel=9 note=30 velocity=0 time=0.060769515625
EXTRACT: note_on channel=9 note=80 velocity=0 time=0
EXTRACT: note_on channel=9 note=29 velocity=26 time=0.0028937864583333333
EXTRACT: note_on channel=9 note=54 velocity=40 time=0
EXTRACT: note_on channel=9 note=56 velocity=10 time=0
EXTRACT: note_on channel=9 note=54 velocity=0 time=0.060769515625
EXTRACT: note_on channel=9 note=56 velocity=0 time=0.07523844791666666
EXTRACT: note_on channel=9 note=29 velocity=0 time=0
EXTRACT: note_on channel=9 note=30 velocity=31 time=0.0028937864583333333
EXTRACT: note_on channel=9 note=39 velocity=80 time=0
EXTRACT: note_on channel=9 note=40 velocity=121 time=0
EXTRACT: note_on channel=9 note=42 velocity=114 time=0
EXTRACT: note_on channel=9 note=54 velocity=57 time=0
EXTRACT: note_on channel=9 note=54 velocity=0 time=0.054981942708333335
EXTRACT: note_on channel=9 note=42 velocity=0 time=0.052088156249999996
EXTRACT: note_on channel=9 note=30 velocity=0 time=0.028937864583333334
EXTRACT: note_on channel=9 note=39 velocity=0 time=0
EXTRACT: note_on channel=9 note=40 velocity=0 time=0
EXTRACT: note_on channel=9 note=54 velocity=20 time=0.0028937864583333333
EXTRACT: note_on channel=9 note=54 velocity=0 time=0.03761922395833333
EXTRACT: note_on channel=9 note=30 velocity=35 time=0.10128252604166667
EXTRACT: note_on channel=9 note=42 velocity=90 time=0
EXTRACT: note_on channel=9 note=54 velocity=50 time=0
EXTRACT: note_on channel=9 note=56 velocity=19 time=0
EXTRACT: note_on channel=9 note=80 velocity=127 time=0
EXTRACT: note_on channel=9 note=54 velocity=0 time=0.04051301041666667
EXTRACT: note_on channel=9 note=56 velocity=0 time=0.031831651041666666
EXTRACT: note_on channel=9 note=42 velocity=0 time=0.0028937864583333333
EXTRACT: note_on channel=9 note=30 velocity=0 time=0.05787572916666667
EXTRACT: note_on channel=9 note=80 velocity=0 time=0.0028937864583333333
EXTRACT: note_on channel=9 note=29 velocity=28 time=0.0028937864583333333
EXTRACT: note_on channel=9 note=54 velocity=24 time=0
EXTRACT: note_on channel=9 note=56 velocity=10 time=0
EXTRACT: note_on channel=9 note=54 velocity=0 time=0.04051301041666667
EXTRACT: note_on channel=6 note=65 velocity=0 time=0.09260116666666666
EXTRACT: note_on channel=9 note=56 velocity=0 time=0.0028937864583333333
EXTRACT: note_on channel=9 note=29 velocity=0 time=0
EXTRACT: note_on channel=9 note=30 velocity=42 time=0.0028937864583333333
EXTRACT: note_on channel=9 note=36 velocity=114 time=0
EXTRACT: note_on channel=9 note=42 velocity=122 time=0
EXTRACT: note_on channel=9 note=49 velocity=74 time=0
EXTRACT: note_on channel=9 note=54 velocity=65 time=0
EXTRACT: note_on channel=0 note=34 velocity=112 time=0
EXTRACT: note_on channel=3 note=58 velocity=127 time=0
EXTRACT: note_on channel=6 note=72 velocity=0 time=0.0028937864583333333
EXTRACT: note_on channel=1 note=34 velocity=112 time=0.018809611979166665
EXTRACT: note_on channel=9 note=54 velocity=0 time=0.027490971354166668
EXTRACT: note_on channel=9 note=42 velocity=0 time=0.043406796875
EXTRACT: note_on channel=3 note=58 velocity=0 time=0.008681359375
EXTRACT: note_on channel=9 note=30 velocity=0 time=0.0347254375
EXTRACT: note_on channel=9 note=36 velocity=0 time=0
EXTRACT: note_on channel=9 note=49 velocity=0 time=0
EXTRACT: note_on channel=9 note=54 velocity=17 time=0.0028937864583333333
EXTRACT: note_on channel=9 note=54 velocity=0 time=0.052088156249999996
EXTRACT: note_on channel=9 note=30 velocity=42 time=0.08681359375
EXTRACT: note_on channel=9 note=42 velocity=100 time=0
EXTRACT: note_on channel=9 note=54 velocity=53 time=0
EXTRACT: note_on channel=9 note=56 velocity=19 time=0
EXTRACT: note_on channel=9 note=80 velocity=127 time=0
EXTRACT: note_on channel=3 note=58 velocity=127 time=0
EXTRACT: note_on channel=9 note=54 velocity=0 time=0.0347254375
EXTRACT: note_on channel=0 note=34 velocity=0 time=0.0057875729166666666
EXTRACT: note_on channel=1 note=34 velocity=0 time=0.0217033984375
EXTRACT: note_on channel=9 note=56 velocity=0 time=0.010128252604166667
EXTRACT: note_on channel=9 note=42 velocity=0 time=0.0028937864583333333
EXTRACT: note_on channel=3 note=58 velocity=0 time=0.008681359375
EXTRACT: note_on channel=9 note=30 velocity=0 time=0.052088156249999996
EXTRACT: note_on channel=9 note=80 velocity=0 time=0
EXTRACT: note_on channel=9 note=54 velocity=29 time=0.0028937864583333333
EXTRACT: note_on channel=9 note=56 velocity=10 time=0
EXTRACT: note_on channel=3 note=56 velocity=127 time=0
EXTRACT: note_on channel=9 note=54 velocity=0 time=0.07523844791666666
EXTRACT: note_on channel=9 note=56 velocity=0 time=0.060769515625
EXTRACT: note_on channel=9 note=29 velocity=39 time=0.0028937864583333333
EXTRACT: note_on channel=9 note=39 velocity=80 time=0
EXTRACT: note_on channel=9 note=40 velocity=121 time=0
EXTRACT: note_on channel=9 note=42 velocity=114 time=0
EXTRACT: note_on channel=9 note=54 velocity=60 time=0
EXTRACT: note_on channel=0 note=34 velocity=109 time=0
EXTRACT: note_on channel=1 note=34 velocity=109 time=0.0217033984375
EXTRACT: note_on channel=9 note=54 velocity=0 time=0.018809611979166665
EXTRACT: note_on channel=9 note=42 velocity=0 time=0.06655708854166667
EXTRACT: note_on channel=9 note=29 velocity=0 time=0.028937864583333334
EXTRACT: note_on channel=9 note=39 velocity=0 time=0
EXTRACT: note_on channel=9 note=40 velocity=0 time=0
EXTRACT: note_on channel=9 note=54 velocity=24 time=0.0028937864583333333
EXTRACT: note_on channel=9 note=54 velocity=0 time=0.07234466145833333
EXTRACT: note_on channel=0 note=34 velocity=0 time=0.060769515625
EXTRACT: note_on channel=3 note=56 velocity=0 time=0.0028937864583333333
EXTRACT: note_on channel=9 note=30 velocity=42 time=0.0028937864583333333
EXTRACT: note_on channel=9 note=36 velocity=109 time=0
EXTRACT: note_on channel=9 note=42 velocity=90 time=0
EXTRACT: note_on channel=9 note=54 velocity=55 time=0
EXTRACT: note_on channel=9 note=56 velocity=19 time=0
EXTRACT: note_on channel=9 note=80 velocity=127 time=0
EXTRACT: note_on channel=0 note=33 velocity=101 time=0
EXTRACT: note_on channel=3 note=53 velocity=108 time=0
EXTRACT: note_on channel=1 note=34 velocity=0 time=0.015915825520833333
EXTRACT: note_on channel=1 note=33 velocity=101 time=0.0057875729166666666
EXTRACT: note_on channel=9 note=54 velocity=0 time=0.0217033984375
EXTRACT: note_on channel=9 note=56 velocity=0 time=0.028937864583333334
EXTRACT: note_on channel=9 note=42 velocity=0 time=0.0028937864583333333
EXTRACT: note_on channel=3 note=53 velocity=0 time=0.023150291666666666
EXTRACT: note_on channel=9 note=36 velocity=0 time=0.008681359375
EXTRACT: note_on channel=9 note=30 velocity=0 time=0.026044078124999998
EXTRACT: note_on channel=9 note=80 velocity=0 time=0.0028937864583333333
EXTRACT: note_on channel=9 note=29 velocity=28 time=0.0028937864583333333
EXTRACT: note_on channel=9 note=54 velocity=27 time=0
EXTRACT: note_on channel=9 note=56 velocity=10 time=0
EXTRACT: note_on channel=9 note=54 velocity=0 time=0.052088156249999996
EXTRACT: note_on channel=0 note=33 velocity=0 time=0.08102602083333334
EXTRACT: note_on channel=9 note=56 velocity=0 time=0.0028937864583333333
EXTRACT: note_on channel=9 note=29 velocity=0 time=0
EXTRACT: note_on channel=9 note=30 velocity=39 time=0.0028937864583333333
EXTRACT: note_on channel=9 note=36 velocity=109 time=0
EXTRACT: note_on channel=9 note=42 velocity=122 time=0
EXTRACT: note_on channel=9 note=54 velocity=61 time=0
EXTRACT: note_on channel=0 note=32 velocity=99 time=0
EXTRACT: note_on channel=3 note=51 velocity=125 time=0
EXTRACT: note_on channel=1 note=33 velocity=0 time=0.015915825520833333
EXTRACT: note_on channel=1 note=32 velocity=99 time=0.0057875729166666666
EXTRACT: note_on channel=9 note=54 velocity=0 time=0.03617233072916667
EXTRACT: note_on channel=9 note=42 velocity=0 time=0.0347254375
EXTRACT: note_on channel=9 note=36 velocity=0 time=0.008681359375
EXTRACT: note_on channel=3 note=51 velocity=0 time=0
EXTRACT: note_on channel=9 note=30 velocity=0 time=0.031831651041666666
EXTRACT: note_on channel=9 note=29 velocity=29 time=0.0057875729166666666
EXTRACT: note_on channel=9 note=54 velocity=23 time=0
EXTRACT: note_on channel=9 note=54 velocity=0 time=0.03761922395833333
EXTRACT: note_on channel=0 note=32 velocity=0 time=0.095494953125
EXTRACT: note_on channel=9 note=29 velocity=0 time=0.0028937864583333333
EXTRACT: note_on channel=9 note=30 velocity=38 time=0.0028937864583333333
EXTRACT: note_on channel=9 note=36 velocity=113 time=0
EXTRACT: note_on channel=9 note=42 velocity=100 time=0
EXTRACT: note_on channel=9 note=54 velocity=56 time=0
EXTRACT: note_on channel=9 note=56 velocity=19 time=0
EXTRACT: note_on channel=9 note=80 velocity=127 time=0
EXTRACT: note_on channel=0 note=31 velocity=105 time=0
EXTRACT: note_on channel=3 note=51 velocity=125 time=0
EXTRACT: note_on channel=1 note=32 velocity=0 time=0.015915825520833333
EXTRACT: note_on channel=1 note=31 velocity=105 time=0.0057875729166666666
EXTRACT: note_on channel=9 note=54 velocity=0 time=0.0303847578125
EXTRACT: note_on channel=9 note=56 velocity=0 time=0.020256505208333334
EXTRACT: note_on channel=9 note=42 velocity=0 time=0.0028937864583333333
EXTRACT: note_on channel=3 note=51 velocity=0 time=0.008681359375
EXTRACT: note_on channel=9 note=30 velocity=0 time=0.049194369791666664
EXTRACT: note_on channel=9 note=36 velocity=0 time=0.0028937864583333333
EXTRACT: note_on channel=9 note=80 velocity=0 time=0
EXTRACT: note_on channel=9 note=29 velocity=26 time=0.0028937864583333333
EXTRACT: note_on channel=9 note=54 velocity=40 time=0
EXTRACT: note_on channel=9 note=56 velocity=10 time=0
EXTRACT: note_on channel=9 note=54 velocity=0 time=0.060769515625
EXTRACT: note_on channel=0 note=31 velocity=0 time=0.07234466145833333
EXTRACT: note_on channel=9 note=56 velocity=0 time=0.0028937864583333333
EXTRACT: note_on channel=9 note=29 velocity=0 time=0
EXTRACT: note_on channel=9 note=30 velocity=31 time=0.0028937864583333333
EXTRACT: note_on channel=9 note=39 velocity=80 time=0
EXTRACT: note_on channel=9 note=40 velocity=121 time=0
EXTRACT: note_on channel=9 note=42 velocity=114 time=0
EXTRACT: note_on channel=9 note=54 velocity=57 time=0
EXTRACT: note_on channel=0 note=30 velocity=100 time=0
EXTRACT: note_on channel=3 note=51 velocity=126 time=0
EXTRACT: note_on channel=1 note=31 velocity=0 time=0.015915825520833333
EXTRACT: note_on channel=1 note=30 velocity=100 time=0.0057875729166666666
EXTRACT: note_on channel=9 note=54 velocity=0 time=0.033278544270833335
EXTRACT: note_on channel=9 note=42 velocity=0 time=0.052088156249999996
EXTRACT: note_on channel=9 note=30 velocity=0 time=0.028937864583333334
EXTRACT: note_on channel=9 note=39 velocity=0 time=0
EXTRACT: note_on channel=9 note=40 velocity=0 time=0
EXTRACT: note_on channel=9 note=54 velocity=20 time=0.0028937864583333333
EXTRACT: note_on channel=9 note=54 velocity=0 time=0.03761922395833333
EXTRACT: note_on channel=3 note=51 velocity=0 time=0.095494953125
EXTRACT: note_on channel=9 note=30 velocity=35 time=0.0057875729166666666
EXTRACT: note_on channel=9 note=42 velocity=90 time=0
EXTRACT: note_on channel=9 note=54 velocity=50 time=0
EXTRACT: note_on channel=9 note=56 velocity=19 time=0
EXTRACT: note_on channel=9 note=80 velocity=127 time=0
EXTRACT: note_on channel=3 note=49 velocity=127 time=0
EXTRACT: note_on channel=0 note=30 velocity=0 time=0.028937864583333334
EXTRACT: note_on channel=9 note=54 velocity=0 time=0.011575145833333333
EXTRACT: note_on channel=1 note=30 velocity=0 time=0.010128252604166667
EXTRACT: note_on channel=9 note=56 velocity=0 time=0.0217033984375
EXTRACT: note_on channel=9 note=42 velocity=0 time=0.0028937864583333333
EXTRACT: note_on channel=3 note=49 velocity=0 time=0.04051301041666667
EXTRACT: note_on channel=9 note=30 velocity=0 time=0.01736271875
EXTRACT: note_on channel=9 note=80 velocity=0 time=0.0028937864583333333
EXTRACT: note_on channel=9 note=29 velocity=28 time=0.0028937864583333333
EXTRACT: note_on channel=9 note=54 velocity=24 time=0
EXTRACT: note_on channel=9 note=56 velocity=10 time=0
EXTRACT: note_on channel=9 note=54 velocity=0 time=0.04051301041666667
EXTRACT: note_on channel=9 note=56 velocity=0 time=0.095494953125
EXTRACT: note_on channel=9 note=29 velocity=0 time=0
EXTRACT: note_on channel=9 note=30 velocity=42 time=0.0028937864583333333
EXTRACT: note_on channel=9 note=36 velocity=116 time=0
EXTRACT: note_on channel=9 note=42 velocity=122 time=0
EXTRACT: note_on channel=9 note=54 velocity=65 time=0
EXTRACT: note_on channel=9 note=57 velocity=51 time=0
EXTRACT: note_on channel=0 note=30 velocity=110 time=0
EXTRACT: note_on channel=6 note=66 velocity=53 time=0
EXTRACT: note_on channel=6 note=73 velocity=39 time=0
EXTRACT: note_on channel=1 note=30 velocity=110 time=0.0217033984375
EXTRACT: note_on channel=9 note=54 velocity=0 time=0.027490971354166668
EXTRACT: note_on channel=9 note=42 velocity=0 time=0.043406796875
EXTRACT: note_on channel=9 note=30 velocity=0 time=0.043406796875
EXTRACT: note_on channel=9 note=36 velocity=0 time=0
EXTRACT: note_on channel=9 note=57 velocity=0 time=0
EXTRACT: note_on channel=9 note=54 velocity=17 time=0.0028937864583333333
EXTRACT: note_on channel=9 note=54 velocity=0 time=0.052088156249999996
EXTRACT: note_on channel=0 note=30 velocity=0 time=0.07234466145833333
EXTRACT: note_on channel=9 note=30 velocity=42 time=0.014468932291666667
EXTRACT: note_on channel=9 note=42 velocity=100 time=0
EXTRACT: note_on channel=9 note=54 velocity=53 time=0
EXTRACT: note_on channel=9 note=56 velocity=19 time=0
EXTRACT: note_on channel=9 note=80 velocity=127 time=0
EXTRACT: note_on channel=1 note=30 velocity=0 time=0.007234466145833333
EXTRACT: note_on channel=9 note=54 velocity=0 time=0.027490971354166668
EXTRACT: note_on channel=9 note=56 velocity=0 time=0.0347254375
EXTRACT: note_on channel=9 note=42 velocity=0 time=0.0057875729166666666
EXTRACT: note_on channel=9 note=30 velocity=0 time=0.060769515625
EXTRACT: note_on channel=9 note=80 velocity=0 time=0
EXTRACT: note_on channel=9 note=54 velocity=29 time=0.0028937864583333333
EXTRACT: note_on channel=9 note=56 velocity=10 time=0
EXTRACT: note_on channel=9 note=54 velocity=0 time=0.07523844791666666
EXTRACT: note_on channel=9 note=56 velocity=0 time=0.060769515625
EXTRACT: note_on channel=9 note=29 velocity=39 time=0.0028937864583333333
EXTRACT: note_on channel=9 note=39 velocity=80 time=0
EXTRACT: note_on channel=9 note=40 velocity=121 time=0
EXTRACT: note_on channel=9 note=42 velocity=114 time=0
EXTRACT: note_on channel=9 note=54 velocity=60 time=0
EXTRACT: note_on channel=0 note=30 velocity=105 time=0
EXTRACT: note_on channel=1 note=30 velocity=105 time=0.0217033984375
EXTRACT: note_on channel=9 note=54 velocity=0 time=0.0217033984375
EXTRACT: note_on channel=9 note=42 velocity=0 time=0.06366330208333333
EXTRACT: note_on channel=9 note=29 velocity=0 time=0.028937864583333334
EXTRACT: note_on channel=9 note=39 velocity=0 time=0
EXTRACT: note_on channel=9 note=40 velocity=0 time=0
EXTRACT: note_on channel=9 note=54 velocity=24 time=0.0028937864583333333
EXTRACT: note_on channel=9 note=54 velocity=0 time=0.07234466145833333
EXTRACT: note_on channel=0 note=30 velocity=0 time=0.06366330208333333
EXTRACT: note_on channel=9 note=30 velocity=42 time=0.0028937864583333333
EXTRACT: note_on channel=9 note=36 velocity=111 time=0
EXTRACT: note_on channel=9 note=42 velocity=90 time=0
EXTRACT: note_on channel=9 note=54 velocity=55 time=0
EXTRACT: note_on channel=9 note=56 velocity=19 time=0
EXTRACT: note_on channel=9 note=80 velocity=127 time=0
EXTRACT: note_on channel=0 note=32 velocity=108 time=0
EXTRACT: note_on channel=1 note=30 velocity=0 time=0.018809611979166665
EXTRACT: note_on channel=1 note=32 velocity=108 time=0.0028937864583333333
EXTRACT: note_on channel=9 note=54 velocity=0 time=0.0217033984375
EXTRACT: note_on channel=9 note=56 velocity=0 time=0.028937864583333334
EXTRACT: note_on channel=9 note=42 velocity=0 time=0.0028937864583333333
EXTRACT: note_on channel=9 note=36 velocity=0 time=0.020256505208333334
EXTRACT: note_on channel=9 note=30 velocity=0 time=0.03761922395833333
EXTRACT: note_on channel=9 note=80 velocity=0 time=0.0028937864583333333
EXTRACT: note_on channel=9 note=29 velocity=28 time=0.0028937864583333333
EXTRACT: note_on channel=9 note=54 velocity=27 time=0
EXTRACT: note_on channel=9 note=56 velocity=10 time=0
EXTRACT: note_on channel=9 note=54 velocity=0 time=0.052088156249999996
EXTRACT: note_on channel=0 note=32 velocity=0 time=0.08102602083333334
EXTRACT: note_on channel=6 note=66 velocity=0 time=0
EXTRACT: note_on channel=9 note=56 velocity=0 time=0.0028937864583333333
EXTRACT: note_on channel=9 note=29 velocity=0 time=0
EXTRACT: note_on channel=9 note=30 velocity=39 time=0.0028937864583333333
EXTRACT: note_on channel=9 note=36 velocity=112 time=0
EXTRACT: note_on channel=9 note=42 velocity=122 time=0
EXTRACT: note_on channel=9 note=54 velocity=61 time=0
EXTRACT: note_on channel=9 note=57 velocity=70 time=0
EXTRACT: note_on channel=0 note=29 velocity=99 time=0
EXTRACT: note_on channel=6 note=73 velocity=0 time=0
EXTRACT: note_on channel=6 note=65 velocity=53 time=0
EXTRACT: note_on channel=6 note=72 velocity=39 time=0
EXTRACT: note_on channel=1 note=32 velocity=0 time=0.015915825520833333
EXTRACT: note_on channel=1 note=29 velocity=99 time=0.0057875729166666666
EXTRACT: note_on channel=9 note=54 velocity=0 time=0.033278544270833335
EXTRACT: note_on channel=9 note=42 velocity=0 time=0.03761922395833333
EXTRACT: note_on channel=9 note=30 velocity=0 time=0.03761922395833333
EXTRACT: note_on channel=9 note=36 velocity=0 time=0.0057875729166666666
EXTRACT: note_on channel=9 note=57 velocity=0 time=0
EXTRACT: note_on channel=9 note=29 velocity=29 time=0.0028937864583333333
EXTRACT: note_on channel=9 note=54 velocity=23 time=0
EXTRACT: note_on channel=9 note=54 velocity=0 time=0.03761922395833333
EXTRACT: note_on channel=0 note=29 velocity=0 time=0.06655708854166667
EXTRACT: note_on channel=1 note=29 velocity=0 time=0.0217033984375
EXTRACT: note_on channel=9 note=29 velocity=0 time=0.010128252604166667
EXTRACT: note_on channel=9 note=30 velocity=38 time=0.0028937864583333333
EXTRACT: note_on channel=9 note=42 velocity=100 time=0
EXTRACT: note_on channel=9 note=54 velocity=56 time=0
EXTRACT: note_on channel=9 note=56 velocity=19 time=0
EXTRACT: note_on channel=9 note=80 velocity=127 time=0
EXTRACT: note_on channel=9 note=54 velocity=0 time=0.052088156249999996
EXTRACT: note_on channel=9 note=56 velocity=0 time=0.020256505208333334
EXTRACT: note_on channel=9 note=42 velocity=0 time=0.0028937864583333333
EXTRACT: note_on channel=9 note=30 velocity=0 time=0.05787572916666667
EXTRACT: note_on channel=9 note=80 velocity=0 time=0.0028937864583333333
EXTRACT: note_on channel=9 note=29 velocity=26 time=0.0028937864583333333
EXTRACT: note_on channel=9 note=54 velocity=40 time=0
EXTRACT: note_on channel=9 note=56 velocity=10 time=0
EXTRACT: note_on channel=9 note=54 velocity=0 time=0.060769515625
EXTRACT: note_on channel=9 note=56 velocity=0 time=0.07523844791666666
EXTRACT: note_on channel=9 note=29 velocity=0 time=0
EXTRACT: note_on channel=9 note=30 velocity=31 time=0.0028937864583333333
EXTRACT: note_on channel=9 note=39 velocity=80 time=0
EXTRACT: note_on channel=9 note=40 velocity=121 time=0
EXTRACT: note_on channel=9 note=42 velocity=114 time=0
EXTRACT: note_on channel=9 note=54 velocity=57 time=0
EXTRACT: note_on channel=9 note=54 velocity=0 time=0.054981942708333335
EXTRACT: note_on channel=9 note=42 velocity=0 time=0.052088156249999996
EXTRACT: note_on channel=9 note=30 velocity=0 time=0.028937864583333334
EXTRACT: note_on channel=9 note=39 velocity=0 time=0
EXTRACT: note_on channel=9 note=40 velocity=0 time=0
EXTRACT: note_on channel=9 note=54 velocity=20 time=0.0028937864583333333
EXTRACT: note_on channel=9 note=54 velocity=0 time=0.03761922395833333
EXTRACT: note_on channel=9 note=30 velocity=35 time=0.10128252604166667
EXTRACT: note_on channel=9 note=42 velocity=90 time=0
EXTRACT: note_on channel=9 note=54 velocity=50 time=0
EXTRACT: note_on channel=9 note=56 velocity=19 time=0
EXTRACT: note_on channel=9 note=80 velocity=127 time=0
EXTRACT: note_on channel=3 note=51 velocity=121 time=0
EXTRACT: note_on channel=9 note=54 velocity=0 time=0.04051301041666667
EXTRACT: note_on channel=9 note=56 velocity=0 time=0.031831651041666666
EXTRACT: note_on channel=9 note=42 velocity=0 time=0.0028937864583333333
EXTRACT: note_on channel=9 note=30 velocity=0 time=0.05787572916666667
EXTRACT: note_on channel=9 note=80 velocity=0 time=0.0028937864583333333
EXTRACT: note_on channel=9 note=29 velocity=28 time=0.0028937864583333333
EXTRACT: note_on channel=9 note=54 velocity=24 time=0
EXTRACT: note_on channel=9 note=56 velocity=10 time=0
EXTRACT: note_on channel=9 note=54 velocity=0 time=0.04051301041666667
EXTRACT: note_on channel=3 note=51 velocity=0 time=0.08970738020833333
EXTRACT: note_on channel=6 note=65 velocity=0 time=0.0028937864583333333
EXTRACT: note_on channel=9 note=56 velocity=0 time=0.0028937864583333333
EXTRACT: note_on channel=9 note=29 velocity=0 time=0
EXTRACT: note_on channel=6 note=72 velocity=0 time=0
EXTRACT: note_on channel=9 note=30 velocity=42 time=0.0028937864583333333
EXTRACT: note_on channel=9 note=36 velocity=114 time=0
EXTRACT: note_on channel=9 note=42 velocity=122 time=0
EXTRACT: note_on channel=9 note=54 velocity=65 time=0
EXTRACT: note_on channel=0 note=34 velocity=112 time=0
EXTRACT: note_on channel=3 note=58 velocity=127 time=0
EXTRACT: note_on channel=1 note=34 velocity=112 time=0.0217033984375
EXTRACT: note_on channel=9 note=54 velocity=0 time=0.027490971354166668
EXTRACT: note_on channel=9 note=42 velocity=0 time=0.043406796875
EXTRACT: note_on channel=3 note=58 velocity=0 time=0.04051301041666667
EXTRACT: note_on channel=9 note=36 velocity=0 time=0.0028937864583333333
EXTRACT: note_on channel=9 note=30 velocity=0 time=0
EXTRACT: note_on channel=9 note=54 velocity=17 time=0.0028937864583333333
EXTRACT: note_on channel=9 note=54 velocity=0 time=0.052088156249999996
EXTRACT: note_on channel=9 note=30 velocity=42 time=0.08681359375
EXTRACT: note_on channel=9 note=42 velocity=100 time=0
EXTRACT: note_on channel=9 note=54 velocity=53 time=0
EXTRACT: note_on channel=9 note=56 velocity=19 time=0
EXTRACT: note_on channel=9 note=80 velocity=127 time=0
EXTRACT: note_on channel=3 note=58 velocity=127 time=0
EXTRACT: note_on channel=9 note=54 velocity=0 time=0.0347254375
EXTRACT: note_on channel=0 note=34 velocity=0 time=0.0057875729166666666
EXTRACT: note_on channel=1 note=34 velocity=0 time=0.0217033984375
EXTRACT: note_on channel=9 note=56 velocity=0 time=0.010128252604166667
EXTRACT: note_on channel=9 note=42 velocity=0 time=0.0028937864583333333
EXTRACT: note_on channel=3 note=58 velocity=0 time=0.008681359375
EXTRACT: note_on channel=9 note=30 velocity=0 time=0.052088156249999996
EXTRACT: note_on channel=9 note=80 velocity=0 time=0
EXTRACT: note_on channel=9 note=54 velocity=29 time=0.0028937864583333333
EXTRACT: note_on channel=9 note=56 velocity=10 time=0
EXTRACT: note_on channel=3 note=56 velocity=125 time=0
EXTRACT: note_on channel=9 note=54 velocity=0 time=0.07523844791666666
EXTRACT: note_on channel=9 note=56 velocity=0 time=0.060769515625
EXTRACT: note_on channel=9 note=29 velocity=39 time=0.0028937864583333333
EXTRACT: note_on channel=9 note=39 velocity=80 time=0
EXTRACT: note_on channel=9 note=40 velocity=121 time=0
EXTRACT: note_on channel=9 note=42 velocity=114 time=0
EXTRACT: note_on channel=9 note=54 velocity=60 time=0
EXTRACT: note_on channel=0 note=34 velocity=109 time=0
EXTRACT: note_on channel=1 note=34 velocity=109 time=0.0217033984375
EXTRACT: note_on channel=9 note=54 velocity=0 time=0.0217033984375
EXTRACT: note_on channel=3 note=56 velocity=0 time=0.04051301041666667
EXTRACT: note_on channel=9 note=42 velocity=0 time=0.023150291666666666
EXTRACT: note_on channel=9 note=29 velocity=0 time=0.028937864583333334
EXTRACT: note_on channel=9 note=39 velocity=0 time=0
EXTRACT: note_on channel=9 note=40 velocity=0 time=0
EXTRACT: note_on channel=9 note=54 velocity=24 time=0.0028937864583333333
EXTRACT: note_on channel=3 note=56 velocity=101 time=0
EXTRACT: note_on channel=9 note=54 velocity=0 time=0.07234466145833333
EXTRACT: note_on channel=3 note=56 velocity=0 time=0.04051301041666667
EXTRACT: note_on channel=0 note=34 velocity=0 time=0.020256505208333334
EXTRACT: note_on channel=9 note=30 velocity=42 time=0.0057875729166666666
EXTRACT: note_on channel=9 note=36 velocity=109 time=0
EXTRACT: note_on channel=9 note=42 velocity=90 time=0
EXTRACT: note_on channel=9 note=54 velocity=55 time=0
EXTRACT: note_on channel=9 note=56 velocity=19 time=0
EXTRACT: note_on channel=9 note=80 velocity=127 time=0
EXTRACT: note_on channel=0 note=33 velocity=101 time=0
EXTRACT: note_on channel=3 note=53 velocity=124 time=0
EXTRACT: note_on channel=1 note=34 velocity=0 time=0.015915825520833333
EXTRACT: note_on channel=1 note=33 velocity=101 time=0.0057875729166666666
EXTRACT: note_on channel=9 note=54 velocity=0 time=0.0217033984375
EXTRACT: note_on channel=9 note=56 velocity=0 time=0.028937864583333334
EXTRACT: note_on channel=9 note=42 velocity=0 time=0.0028937864583333333
EXTRACT: note_on channel=9 note=36 velocity=0 time=0.031831651041666666
EXTRACT: note_on channel=3 note=53 velocity=0 time=0.020256505208333334
EXTRACT: note_on channel=9 note=30 velocity=0 time=0.0057875729166666666
EXTRACT: note_on channel=9 note=80 velocity=0 time=0.0028937864583333333
EXTRACT: note_on channel=9 note=29 velocity=28 time=0.0028937864583333333
EXTRACT: note_on channel=9 note=54 velocity=27 time=0
EXTRACT: note_on channel=9 note=56 velocity=10 time=0
EXTRACT: note_on channel=9 note=54 velocity=0 time=0.052088156249999996
EXTRACT: note_on channel=0 note=33 velocity=0 time=0.08102602083333334
EXTRACT: note_on channel=9 note=56 velocity=0 time=0.0028937864583333333
EXTRACT: note_on channel=9 note=29 velocity=0 time=0
EXTRACT: note_on channel=9 note=30 velocity=39 time=0.0028937864583333333
EXTRACT: note_on channel=9 note=36 velocity=109 time=0
EXTRACT: note_on channel=9 note=42 velocity=122 time=0
EXTRACT: note_on channel=9 note=54 velocity=61 time=0
EXTRACT: note_on channel=0 note=32 velocity=99 time=0
EXTRACT: note_on channel=3 note=51 velocity=123 time=0
EXTRACT: note_on channel=1 note=33 velocity=0 time=0.015915825520833333
EXTRACT: note_on channel=1 note=32 velocity=99 time=0.0057875729166666666
EXTRACT: note_on channel=9 note=54 velocity=0 time=0.033278544270833335
EXTRACT: note_on channel=9 note=42 velocity=0 time=0.03761922395833333
EXTRACT: note_on channel=9 note=36 velocity=0 time=0.008681359375
EXTRACT: note_on channel=9 note=30 velocity=0 time=0.031831651041666666
EXTRACT: note_on channel=9 note=29 velocity=29 time=0.0057875729166666666
EXTRACT: note_on channel=9 note=54 velocity=23 time=0
EXTRACT: note_on channel=3 note=51 velocity=0 time=0.0028937864583333333
EXTRACT: note_on channel=9 note=54 velocity=0 time=0.0347254375
EXTRACT: note_on channel=0 note=32 velocity=0 time=0.095494953125
EXTRACT: note_on channel=9 note=29 velocity=0 time=0.0028937864583333333
EXTRACT: note_on channel=9 note=30 velocity=38 time=0.0028937864583333333
EXTRACT: note_on channel=9 note=36 velocity=113 time=0
EXTRACT: note_on channel=9 note=42 velocity=100 time=0
EXTRACT: note_on channel=9 note=54 velocity=56 time=0
EXTRACT: note_on channel=9 note=56 velocity=19 time=0
EXTRACT: note_on channel=9 note=80 velocity=127 time=0
EXTRACT: note_on channel=0 note=31 velocity=105 time=0
EXTRACT: note_on channel=3 note=51 velocity=112 time=0
EXTRACT: note_on channel=1 note=32 velocity=0 time=0.015915825520833333
EXTRACT: note_on channel=1 note=31 velocity=105 time=0.0057875729166666666
EXTRACT: note_on channel=9 note=54 velocity=0 time=0.0303847578125
EXTRACT: note_on channel=9 note=56 velocity=0 time=0.01736271875
EXTRACT: note_on channel=9 note=42 velocity=0 time=0.0057875729166666666
EXTRACT: note_on channel=3 note=51 velocity=0 time=0.0347254375
EXTRACT: note_on channel=9 note=30 velocity=0 time=0.023150291666666666
EXTRACT: note_on channel=9 note=36 velocity=0 time=0.0028937864583333333
EXTRACT: note_on channel=9 note=80 velocity=0 time=0
EXTRACT: note_on channel=9 note=29 velocity=26 time=0.0028937864583333333
EXTRACT: note_on channel=9 note=54 velocity=40 time=0
EXTRACT: note_on channel=9 note=56 velocity=10 time=0
EXTRACT: note_on channel=9 note=54 velocity=0 time=0.060769515625
EXTRACT: note_on channel=0 note=31 velocity=0 time=0.07234466145833333
EXTRACT: note_on channel=9 note=56 velocity=0 time=0.0028937864583333333
EXTRACT: note_on channel=9 note=29 velocity=0 time=0
EXTRACT: note_on channel=9 note=30 velocity=31 time=0.0028937864583333333
EXTRACT: note_on channel=9 note=39 velocity=80 time=0
EXTRACT: note_on channel=9 note=40 velocity=121 time=0
EXTRACT: note_on channel=9 note=42 velocity=114 time=0
EXTRACT: note_on channel=9 note=54 velocity=57 time=0
EXTRACT: note_on channel=0 note=30 velocity=100 time=0
EXTRACT: note_on channel=3 note=51 velocity=127 time=0
EXTRACT: note_on channel=1 note=31 velocity=0 time=0.015915825520833333
EXTRACT: note_on channel=1 note=30 velocity=100 time=0.0057875729166666666
EXTRACT: note_on channel=9 note=54 velocity=0 time=0.033278544270833335
EXTRACT: note_on channel=9 note=42 velocity=0 time=0.052088156249999996
EXTRACT: note_on channel=9 note=30 velocity=0 time=0.028937864583333334
EXTRACT: note_on channel=9 note=39 velocity=0 time=0
EXTRACT: note_on channel=9 note=40 velocity=0 time=0
EXTRACT: note_on channel=9 note=54 velocity=20 time=0.0028937864583333333
EXTRACT: note_on channel=9 note=54 velocity=0 time=0.03761922395833333
EXTRACT: note_on channel=3 note=51 velocity=0 time=0.09260116666666666
EXTRACT: note_on channel=9 note=30 velocity=35 time=0.008681359375
EXTRACT: note_on channel=9 note=42 velocity=90 time=0
EXTRACT: note_on channel=9 note=54 velocity=50 time=0
EXTRACT: note_on channel=9 note=56 velocity=19 time=0
EXTRACT: note_on channel=9 note=80 velocity=127 time=0
EXTRACT: note_on channel=3 note=49 velocity=127 time=0
EXTRACT: note_on channel=0 note=30 velocity=0 time=0.028937864583333334
EXTRACT: note_on channel=9 note=54 velocity=0 time=0.011575145833333333
EXTRACT: note_on channel=1 note=30 velocity=0 time=0.010128252604166667
EXTRACT: note_on channel=9 note=56 velocity=0 time=0.018809611979166665
EXTRACT: note_on channel=9 note=42 velocity=0 time=0.0057875729166666666
EXTRACT: note_on channel=9 note=30 velocity=0 time=0.05787572916666667
EXTRACT: note_on channel=9 note=80 velocity=0 time=0.0028937864583333333
EXTRACT: note_on channel=9 note=29 velocity=28 time=0.0028937864583333333
EXTRACT: note_on channel=9 note=54 velocity=24 time=0
EXTRACT: note_on channel=9 note=56 velocity=10 time=0
EXTRACT: note_on channel=3 note=49 velocity=0 time=0.0057875729166666666
EXTRACT: note_on channel=9 note=54 velocity=0 time=0.0347254375
EXTRACT: note_on channel=9 note=56 velocity=0 time=0.095494953125
EXTRACT: note_on channel=9 note=29 velocity=0 time=0
EXTRACT: note_on channel=9 note=30 velocity=42 time=0.0028937864583333333
EXTRACT: note_on channel=9 note=36 velocity=116 time=0
EXTRACT: note_on channel=9 note=42 velocity=122 time=0
EXTRACT: note_on channel=9 note=54 velocity=65 time=0
EXTRACT: note_on channel=9 note=57 velocity=51 time=0
EXTRACT: note_on channel=0 note=30 velocity=110 time=0
EXTRACT: note_on channel=6 note=66 velocity=53 time=0
EXTRACT: note_on channel=6 note=73 velocity=39 time=0
EXTRACT: note_on channel=1 note=30 velocity=110 time=0.0217033984375
EXTRACT: note_on channel=9 note=54 velocity=0 time=0.027490971354166668
EXTRACT: note_on channel=9 note=42 velocity=0 time=0.043406796875
EXTRACT: note_on channel=9 note=30 velocity=0 time=0.043406796875
EXTRACT: note_on channel=9 note=36 velocity=0 time=0
EXTRACT: note_on channel=9 note=57 velocity=0 time=0
EXTRACT: note_on channel=9 note=54 velocity=17 time=0.0028937864583333333
EXTRACT: note_on channel=9 note=54 velocity=0 time=0.052088156249999996
EXTRACT: note_on channel=0 note=30 velocity=0 time=0.07234466145833333
EXTRACT: note_on channel=9 note=30 velocity=42 time=0.014468932291666667
EXTRACT: note_on channel=9 note=42 velocity=100 time=0
EXTRACT: note_on channel=9 note=54 velocity=53 time=0
EXTRACT: note_on channel=9 note=56 velocity=19 time=0
EXTRACT: note_on channel=9 note=80 velocity=127 time=0
EXTRACT: note_on channel=1 note=30 velocity=0 time=0.007234466145833333
EXTRACT: note_on channel=9 note=54 velocity=0 time=0.027490971354166668
EXTRACT: note_on channel=9 note=56 velocity=0 time=0.03761922395833333
EXTRACT: note_on channel=9 note=42 velocity=0 time=0.0028937864583333333
EXTRACT: note_on channel=9 note=30 velocity=0 time=0.060769515625
EXTRACT: note_on channel=9 note=80 velocity=0 time=0
EXTRACT: note_on channel=9 note=54 velocity=29 time=0.0028937864583333333
EXTRACT: note_on channel=9 note=56 velocity=10 time=0
EXTRACT: note_on channel=9 note=54 velocity=0 time=0.07523844791666666
EXTRACT: note_on channel=9 note=56 velocity=0 time=0.060769515625
EXTRACT: note_on channel=9 note=29 velocity=39 time=0.0028937864583333333
EXTRACT: note_on channel=9 note=39 velocity=80 time=0
EXTRACT: note_on channel=9 note=40 velocity=121 time=0
EXTRACT: note_on channel=9 note=42 velocity=114 time=0
EXTRACT: note_on channel=9 note=54 velocity=60 time=0
EXTRACT: note_on channel=0 note=30 velocity=105 time=0
EXTRACT: note_on channel=1 note=30 velocity=105 time=0.0217033984375
EXTRACT: note_on channel=9 note=54 velocity=0 time=0.0217033984375
EXTRACT: note_on channel=9 note=42 velocity=0 time=0.06366330208333333
EXTRACT: note_on channel=9 note=29 velocity=0 time=0.028937864583333334
EXTRACT: note_on channel=9 note=39 velocity=0 time=0
EXTRACT: note_on channel=9 note=40 velocity=0 time=0
EXTRACT: note_on channel=9 note=54 velocity=24 time=0.0028937864583333333
EXTRACT: note_on channel=9 note=54 velocity=0 time=0.07234466145833333
EXTRACT: note_on channel=0 note=30 velocity=0 time=0.060769515625
EXTRACT: note_on channel=9 note=30 velocity=42 time=0.0057875729166666666
EXTRACT: note_on channel=9 note=36 velocity=111 time=0
EXTRACT: note_on channel=9 note=42 velocity=90 time=0
EXTRACT: note_on channel=9 note=54 velocity=55 time=0
EXTRACT: note_on channel=9 note=56 velocity=19 time=0
EXTRACT: note_on channel=9 note=80 velocity=127 time=0
EXTRACT: note_on channel=0 note=32 velocity=108 time=0
EXTRACT: note_on channel=1 note=30 velocity=0 time=0.015915825520833333
EXTRACT: note_on channel=1 note=32 velocity=108 time=0.0057875729166666666
EXTRACT: note_on channel=9 note=54 velocity=0 time=0.0217033984375
EXTRACT: note_on channel=9 note=56 velocity=0 time=0.028937864583333334
EXTRACT: note_on channel=9 note=42 velocity=0 time=0.0028937864583333333
EXTRACT: note_on channel=9 note=36 velocity=0 time=0.020256505208333334
EXTRACT: note_on channel=9 note=30 velocity=0 time=0.03761922395833333
EXTRACT: note_on channel=9 note=80 velocity=0 time=0.0028937864583333333
EXTRACT: note_on channel=9 note=29 velocity=28 time=0.0028937864583333333
EXTRACT: note_on channel=9 note=54 velocity=27 time=0
EXTRACT: note_on channel=9 note=56 velocity=10 time=0
EXTRACT: note_on channel=9 note=54 velocity=0 time=0.052088156249999996
EXTRACT: note_on channel=0 note=32 velocity=0 time=0.08102602083333334
EXTRACT: note_on channel=6 note=66 velocity=0 time=0
EXTRACT: note_on channel=9 note=56 velocity=0 time=0.0028937864583333333
EXTRACT: note_on channel=9 note=29 velocity=0 time=0
EXTRACT: note_on channel=9 note=30 velocity=39 time=0.0028937864583333333
EXTRACT: note_on channel=9 note=36 velocity=112 time=0
EXTRACT: note_on channel=9 note=42 velocity=122 time=0
EXTRACT: note_on channel=9 note=54 velocity=61 time=0
EXTRACT: note_on channel=9 note=57 velocity=70 time=0
EXTRACT: note_on channel=0 note=29 velocity=99 time=0
EXTRACT: note_on channel=6 note=73 velocity=0 time=0
EXTRACT: note_on channel=6 note=65 velocity=53 time=0
EXTRACT: note_on channel=6 note=72 velocity=39 time=0
EXTRACT: note_on channel=1 note=32 velocity=0 time=0.015915825520833333
EXTRACT: note_on channel=1 note=29 velocity=99 time=0.0057875729166666666
EXTRACT: note_on channel=9 note=54 velocity=0 time=0.033278544270833335
EXTRACT: note_on channel=9 note=42 velocity=0 time=0.03761922395833333
EXTRACT: note_on channel=9 note=30 velocity=0 time=0.03761922395833333
EXTRACT: note_on channel=9 note=36 velocity=0 time=0.0057875729166666666
EXTRACT: note_on channel=9 note=57 velocity=0 time=0
EXTRACT: note_on channel=9 note=29 velocity=29 time=0.0028937864583333333
EXTRACT: note_on channel=9 note=54 velocity=23 time=0
EXTRACT: note_on channel=10 note=65 velocity=127 time=0
EXTRACT: note_on channel=9 note=54 velocity=0 time=0.03761922395833333
EXTRACT: note_on channel=0 note=29 velocity=0 time=0.06655708854166667
EXTRACT: note_on channel=1 note=29 velocity=0 time=0.0217033984375
EXTRACT: note_on channel=9 note=29 velocity=0 time=0.010128252604166667
EXTRACT: note_on channel=9 note=30 velocity=38 time=0.0028937864583333333
EXTRACT: note_on channel=9 note=42 velocity=100 time=0
EXTRACT: note_on channel=9 note=54 velocity=56 time=0
EXTRACT: note_on channel=9 note=56 velocity=19 time=0
EXTRACT: note_on channel=9 note=80 velocity=127 time=0
EXTRACT: note_on channel=3 note=63 velocity=127 time=0
EXTRACT: note_on channel=9 note=54 velocity=0 time=0.052088156249999996
EXTRACT: note_on channel=9 note=56 velocity=0 time=0.020256505208333334
EXTRACT: note_on channel=9 note=42 velocity=0 time=0.0028937864583333333
EXTRACT: note_on channel=3 note=63 velocity=0 time=0.043406796875
EXTRACT: note_on channel=9 note=30 velocity=0 time=0.014468932291666667
EXTRACT: note_on channel=9 note=80 velocity=0 time=0.0028937864583333333
EXTRACT: note_on channel=9 note=29 velocity=26 time=0.0028937864583333333
EXTRACT: note_on channel=9 note=54 velocity=40 time=0
EXTRACT: note_on channel=9 note=56 velocity=10 time=0
EXTRACT: note_on channel=9 note=54 velocity=0 time=0.060769515625
EXTRACT: note_on channel=9 note=56 velocity=0 time=0.07523844791666666
EXTRACT: note_on channel=9 note=29 velocity=0 time=0
EXTRACT: note_on channel=9 note=30 velocity=31 time=0.0028937864583333333
EXTRACT: note_on channel=9 note=39 velocity=80 time=0
EXTRACT: note_on channel=9 note=40 velocity=121 time=0
EXTRACT: note_on channel=9 note=42 velocity=114 time=0
EXTRACT: note_on channel=9 note=54 velocity=57 time=0
EXTRACT: note_on channel=3 note=63 velocity=127 time=0
EXTRACT: note_on channel=9 note=54 velocity=0 time=0.054981942708333335
EXTRACT: note_on channel=9 note=42 velocity=0 time=0.052088156249999996
EXTRACT: note_on channel=9 note=30 velocity=0 time=0.028937864583333334
EXTRACT: note_on channel=9 note=39 velocity=0 time=0
EXTRACT: note_on channel=9 note=40 velocity=0 time=0
EXTRACT: note_on channel=9 note=54 velocity=20 time=0.0028937864583333333
EXTRACT: note_on channel=9 note=54 velocity=0 time=0.03761922395833333
EXTRACT: note_on channel=3 note=63 velocity=0 time=0.0057875729166666666
EXTRACT: note_on channel=9 note=30 velocity=35 time=0.095494953125
EXTRACT: note_on channel=9 note=42 velocity=90 time=0
EXTRACT: note_on channel=9 note=54 velocity=50 time=0
EXTRACT: note_on channel=9 note=56 velocity=19 time=0
EXTRACT: note_on channel=9 note=80 velocity=127 time=0
EXTRACT: note_on channel=3 note=58 velocity=127 time=0
EXTRACT: note_on channel=9 note=54 velocity=0 time=0.04051301041666667
EXTRACT: note_on channel=9 note=56 velocity=0 time=0.028937864583333334
EXTRACT: note_on channel=9 note=42 velocity=0 time=0.0057875729166666666
EXTRACT: note_on channel=9 note=30 velocity=0 time=0.05787572916666667
EXTRACT: note_on channel=9 note=80 velocity=0 time=0.0028937864583333333
EXTRACT: note_on channel=9 note=29 velocity=28 time=0.0028937864583333333
EXTRACT: note_on channel=9 note=54 velocity=24 time=0
EXTRACT: note_on channel=9 note=56 velocity=10 time=0
EXTRACT: note_on channel=9 note=54 velocity=0 time=0.04051301041666667
EXTRACT: note_on channel=3 note=58 velocity=0 time=0.020256505208333334
EXTRACT: note_on channel=6 note=72 velocity=0 time=0.07234466145833333
EXTRACT: note_on channel=6 note=65 velocity=0 time=0
EXTRACT: note_on channel=9 note=56 velocity=0 time=0.0028937864583333333
EXTRACT: note_on channel=9 note=29 velocity=0 time=0
EXTRACT: note_on channel=10 note=65 velocity=0 time=0
EXTRACT: note_on channel=9 note=30 velocity=42 time=0.0028937864583333333
EXTRACT: note_on channel=9 note=36 velocity=114 time=0
EXTRACT: note_on channel=9 note=42 velocity=122 time=0
EXTRACT: note_on channel=9 note=49 velocity=74 time=0
EXTRACT: note_on channel=9 note=54 velocity=65 time=0
EXTRACT: note_on channel=0 note=34 velocity=112 time=0
EXTRACT: note_on channel=2 note=73 velocity=41 time=0
EXTRACT: note_on channel=2 note=77 velocity=39 time=0
EXTRACT: note_on channel=2 note=82 velocity=39 time=0
EXTRACT: note_on channel=3 note=61 velocity=119 time=0
EXTRACT: note_on channel=8 note=61 velocity=83 time=0
EXTRACT: note_on channel=8 note=65 velocity=80 time=0
EXTRACT: note_on channel=8 note=70 velocity=79 time=0
EXTRACT: control_change channel=8 control=1 value=33 time=0.0057875729166666666
EXTRACT: note_on channel=1 note=34 velocity=112 time=0.015915825520833333
EXTRACT: note_on channel=9 note=54 velocity=0 time=0.027490971354166668
EXTRACT: note_on channel=9 note=42 velocity=0 time=0.04051301041666667
EXTRACT: note_on channel=9 note=30 velocity=0 time=0.04630058333333333
EXTRACT: note_on channel=9 note=36 velocity=0 time=0
EXTRACT: note_on channel=9 note=49 velocity=0 time=0
EXTRACT: note_on channel=9 note=54 velocity=17 time=0.0028937864583333333
EXTRACT: note_on channel=9 note=54 velocity=0 time=0.052088156249999996
EXTRACT: note_on channel=9 note=30 velocity=42 time=0.08681359375
EXTRACT: note_on channel=9 note=42 velocity=100 time=0
EXTRACT: note_on channel=9 note=54 velocity=53 time=0
EXTRACT: note_on channel=9 note=56 velocity=19 time=0
EXTRACT: note_on channel=9 note=80 velocity=127 time=0
EXTRACT: note_on channel=9 note=54 velocity=0 time=0.0347254375
EXTRACT: note_on channel=0 note=34 velocity=0 time=0.0057875729166666666
EXTRACT: note_on channel=1 note=34 velocity=0 time=0.0217033984375
EXTRACT: note_on channel=9 note=56 velocity=0 time=0.010128252604166667
EXTRACT: note_on channel=9 note=42 velocity=0 time=0.0028937864583333333
EXTRACT: note_on channel=3 note=61 velocity=0 time=0.052088156249999996
EXTRACT: note_on channel=9 note=30 velocity=0 time=0.008681359375
EXTRACT: note_on channel=9 note=80 velocity=0 time=0
EXTRACT: note_on channel=9 note=54 velocity=29 time=0.0028937864583333333
EXTRACT: note_on channel=9 note=56 velocity=10 time=0
EXTRACT: note_on channel=3 note=63 velocity=117 time=0
EXTRACT: note_on channel=9 note=54 velocity=0 time=0.07523844791666666
EXTRACT: note_on channel=3 note=63 velocity=0 time=0.011575145833333333
EXTRACT: note_on channel=9 note=56 velocity=0 time=0.049194369791666664
EXTRACT: note_on channel=9 note=29 velocity=39 time=0.0028937864583333333
EXTRACT: note_on channel=9 note=39 velocity=80 time=0
EXTRACT: note_on channel=9 note=40 velocity=121 time=0
EXTRACT: note_on channel=9 note=42 velocity=114 time=0
EXTRACT: note_on channel=9 note=54 velocity=60 time=0
EXTRACT: note_on channel=0 note=34 velocity=109 time=0
EXTRACT: note_on channel=1 note=34 velocity=109 time=0.0217033984375
EXTRACT: note_on channel=9 note=54 velocity=0 time=0.0217033984375
EXTRACT: note_on channel=9 note=42 velocity=0 time=0.06366330208333333
EXTRACT: note_on channel=9 note=29 velocity=0 time=0.028937864583333334
EXTRACT: note_on channel=9 note=39 velocity=0 time=0
EXTRACT: note_on channel=9 note=40 velocity=0 time=0
EXTRACT: note_on channel=9 note=54 velocity=24 time=0.0028937864583333333
EXTRACT: note_on channel=9 note=54 velocity=0 time=0.07234466145833333
EXTRACT: note_on channel=0 note=34 velocity=0 time=0.060769515625
EXTRACT: note_on channel=9 note=30 velocity=42 time=0.0057875729166666666
EXTRACT: note_on channel=9 note=36 velocity=109 time=0
EXTRACT: note_on channel=9 note=42 velocity=90 time=0
EXTRACT: note_on channel=9 note=54 velocity=55 time=0
EXTRACT: note_on channel=9 note=56 velocity=19 time=0
EXTRACT: note_on channel=9 note=80 velocity=127 time=0
EXTRACT: note_on channel=0 note=33 velocity=101 time=0
EXTRACT: note_on channel=3 note=63 velocity=118 time=0
EXTRACT: note_on channel=1 note=34 velocity=0 time=0.015915825520833333
EXTRACT: note_on channel=1 note=33 velocity=101 time=0.0057875729166666666
EXTRACT: note_on channel=9 note=54 velocity=0 time=0.0217033984375
EXTRACT: note_on channel=9 note=56 velocity=0 time=0.026044078124999998
EXTRACT: note_on channel=9 note=42 velocity=0 time=0.0057875729166666666
EXTRACT: note_on channel=9 note=36 velocity=0 time=0.031831651041666666
EXTRACT: note_on channel=9 note=30 velocity=0 time=0.026044078124999998
EXTRACT: note_on channel=9 note=80 velocity=0 time=0.0028937864583333333
EXTRACT: note_on channel=9 note=29 velocity=28 time=0.0028937864583333333
EXTRACT: note_on channel=9 note=54 velocity=27 time=0
EXTRACT: note_on channel=9 note=56 velocity=10 time=0
EXTRACT: note_on channel=3 note=63 velocity=0 time=0.03761922395833333
EXTRACT: note_on channel=9 note=54 velocity=0 time=0.014468932291666667
EXTRACT: note_on channel=0 note=33 velocity=0 time=0.08102602083333334
EXTRACT: note_on channel=9 note=56 velocity=0 time=0.0028937864583333333
EXTRACT: note_on channel=9 note=29 velocity=0 time=0
EXTRACT: note_on channel=9 note=30 velocity=39 time=0.0028937864583333333
EXTRACT: note_on channel=9 note=36 velocity=109 time=0
EXTRACT: note_on channel=9 note=42 velocity=122 time=0
EXTRACT: note_on channel=9 note=54 velocity=61 time=0
EXTRACT: note_on channel=0 note=32 velocity=99 time=0
EXTRACT: note_on channel=1 note=33 velocity=0 time=0.015915825520833333
EXTRACT: note_on channel=1 note=32 velocity=99 time=0.0057875729166666666
EXTRACT: note_on channel=9 note=54 velocity=0 time=0.033278544270833335
EXTRACT: note_on channel=9 note=42 velocity=0 time=0.03761922395833333
EXTRACT: note_on channel=9 note=36 velocity=0 time=0.008681359375
EXTRACT: note_on channel=9 note=30 velocity=0 time=0.031831651041666666
EXTRACT: note_on channel=9 note=29 velocity=29 time=0.0057875729166666666
EXTRACT: note_on channel=9 note=54 velocity=23 time=0
EXTRACT: note_on channel=9 note=54 velocity=0 time=0.03761922395833333
EXTRACT: note_on channel=0 note=32 velocity=0 time=0.095494953125
EXTRACT: note_on channel=9 note=29 velocity=0 time=0.0028937864583333333
EXTRACT: note_on channel=9 note=30 velocity=38 time=0.0028937864583333333
EXTRACT: note_on channel=9 note=36 velocity=113 time=0
EXTRACT: note_on channel=9 note=42 velocity=100 time=0
EXTRACT: note_on channel=9 note=54 velocity=56 time=0
EXTRACT: note_on channel=9 note=56 velocity=19 time=0
EXTRACT: note_on channel=9 note=80 velocity=127 time=0
EXTRACT: note_on channel=0 note=31 velocity=105 time=0
EXTRACT: note_on channel=1 note=32 velocity=0 time=0.015915825520833333
EXTRACT: note_on channel=1 note=31 velocity=105 time=0.0057875729166666666
EXTRACT: note_on channel=9 note=54 velocity=0 time=0.027490971354166668
EXTRACT: note_on channel=9 note=56 velocity=0 time=0.020256505208333334
EXTRACT: note_on channel=9 note=42 velocity=0 time=0.0057875729166666666
EXTRACT: note_on channel=9 note=30 velocity=0 time=0.05787572916666667
EXTRACT: note_on channel=9 note=36 velocity=0 time=0.0028937864583333333
EXTRACT: note_on channel=9 note=80 velocity=0 time=0
EXTRACT: note_on channel=9 note=29 velocity=26 time=0.0028937864583333333
EXTRACT: note_on channel=9 note=54 velocity=40 time=0
EXTRACT: note_on channel=9 note=56 velocity=10 time=0
EXTRACT: note_on channel=9 note=54 velocity=0 time=0.060769515625
EXTRACT: note_on channel=0 note=31 velocity=0 time=0.07234466145833333
EXTRACT: note_on channel=9 note=56 velocity=0 time=0.0028937864583333333
EXTRACT: note_on channel=9 note=29 velocity=0 time=0
EXTRACT: note_on channel=9 note=30 velocity=31 time=0.0028937864583333333
EXTRACT: note_on channel=9 note=39 velocity=80 time=0
EXTRACT: note_on channel=9 note=40 velocity=121 time=0
EXTRACT: note_on channel=9 note=42 velocity=114 time=0
EXTRACT: note_on channel=9 note=54 velocity=57 time=0
EXTRACT: note_on channel=0 note=30 velocity=100 time=0
EXTRACT: note_on channel=1 note=31 velocity=0 time=0.015915825520833333
EXTRACT: note_on channel=1 note=30 velocity=100 time=0.0057875729166666666
EXTRACT: note_on channel=9 note=54 velocity=0 time=0.0303847578125
EXTRACT: note_on channel=9 note=42 velocity=0 time=0.054981942708333335
EXTRACT: note_on channel=9 note=30 velocity=0 time=0.028937864583333334
EXTRACT: note_on channel=9 note=39 velocity=0 time=0
EXTRACT: note_on channel=9 note=40 velocity=0 time=0
EXTRACT: note_on channel=9 note=54 velocity=20 time=0.0028937864583333333
EXTRACT: note_on channel=9 note=54 velocity=0 time=0.03761922395833333
EXTRACT: note_on channel=9 note=30 velocity=35 time=0.10128252604166667
EXTRACT: note_on channel=9 note=42 velocity=90 time=0
EXTRACT: note_on channel=9 note=54 velocity=50 time=0
EXTRACT: note_on channel=9 note=56 velocity=19 time=0
EXTRACT: note_on channel=9 note=80 velocity=127 time=0
EXTRACT: note_on channel=0 note=30 velocity=0 time=0.028937864583333334
EXTRACT: note_on channel=9 note=54 velocity=0 time=0.011575145833333333
EXTRACT: note_on channel=1 note=30 velocity=0 time=0.010128252604166667
EXTRACT: note_on channel=9 note=56 velocity=0 time=0.0217033984375
EXTRACT: note_on channel=9 note=42 velocity=0 time=0.0028937864583333333
EXTRACT: note_on channel=9 note=30 velocity=0 time=0.060769515625
EXTRACT: note_on channel=9 note=80 velocity=0 time=0
EXTRACT: note_on channel=9 note=29 velocity=28 time=0.0028937864583333333
EXTRACT: note_on channel=9 note=54 velocity=24 time=0
EXTRACT: note_on channel=9 note=56 velocity=10 time=0
EXTRACT: note_on channel=9 note=54 velocity=0 time=0.04051301041666667
EXTRACT: note_on channel=2 note=73 velocity=0 time=0.08970738020833333
EXTRACT: note_on channel=8 note=61 velocity=0 time=0
EXTRACT: note_on channel=9 note=56 velocity=0 time=0.0057875729166666666
EXTRACT: note_on channel=9 note=29 velocity=0 time=0
EXTRACT: note_on channel=2 note=77 velocity=0 time=0
EXTRACT: note_on channel=8 note=65 velocity=0 time=0
EXTRACT: note_on channel=9 note=30 velocity=42 time=0.0028937864583333333
EXTRACT: note_on channel=9 note=36 velocity=116 time=0
EXTRACT: note_on channel=9 note=42 velocity=122 time=0
EXTRACT: note_on channel=9 note=54 velocity=65 time=0
EXTRACT: note_on channel=9 note=57 velocity=51 time=0
EXTRACT: note_on channel=0 note=30 velocity=110 time=0
EXTRACT: note_on channel=2 note=82 velocity=0 time=0
EXTRACT: note_on channel=2 note=73 velocity=37 time=0
EXTRACT: note_on channel=2 note=78 velocity=39 time=0
EXTRACT: note_on channel=2 note=82 velocity=35 time=0
EXTRACT: note_on channel=3 note=61 velocity=115 time=0
EXTRACT: note_on channel=3 note=70 velocity=115 time=0
EXTRACT: note_on channel=6 note=66 velocity=49 time=0
EXTRACT: note_on channel=6 note=73 velocity=25 time=0
EXTRACT: note_on channel=8 note=70 velocity=0 time=0
EXTRACT: note_on channel=8 note=61 velocity=76 time=0
EXTRACT: note_on channel=8 note=66 velocity=79 time=0
EXTRACT: note_on channel=8 note=70 velocity=72 time=0
EXTRACT: note_on channel=1 note=30 velocity=110 time=0.0217033984375
EXTRACT: note_on channel=9 note=54 velocity=0 time=0.0303847578125
EXTRACT: note_on channel=9 note=42 velocity=0 time=0.04051301041666667
EXTRACT: note_on channel=9 note=30 velocity=0 time=0.043406796875
EXTRACT: note_on channel=9 note=36 velocity=0 time=0
EXTRACT: note_on channel=9 note=57 velocity=0 time=0
EXTRACT: note_on channel=9 note=54 velocity=17 time=0.0028937864583333333
EXTRACT: note_on channel=9 note=54 velocity=0 time=0.052088156249999996
EXTRACT: note_on channel=0 note=30 velocity=0 time=0.07234466145833333
EXTRACT: note_on channel=9 note=30 velocity=42 time=0.014468932291666667
EXTRACT: note_on channel=9 note=42 velocity=100 time=0
EXTRACT: note_on channel=9 note=54 velocity=53 time=0
EXTRACT: note_on channel=9 note=56 velocity=19 time=0
EXTRACT: note_on channel=9 note=80 velocity=127 time=0
EXTRACT: note_on channel=1 note=30 velocity=0 time=0.007234466145833333
EXTRACT: note_on channel=9 note=54 velocity=0 time=0.027490971354166668
EXTRACT: note_on channel=9 note=56 velocity=0 time=0.03761922395833333
EXTRACT: note_on channel=9 note=42 velocity=0 time=0.0028937864583333333
EXTRACT: note_on channel=9 note=30 velocity=0 time=0.060769515625
EXTRACT: note_on channel=9 note=80 velocity=0 time=0
EXTRACT: note_on channel=9 note=54 velocity=29 time=0.0028937864583333333
EXTRACT: note_on channel=9 note=56 velocity=10 time=0
EXTRACT: note_on channel=9 note=54 velocity=0 time=0.07523844791666666
EXTRACT: note_on channel=9 note=56 velocity=0 time=0.060769515625
EXTRACT: note_on channel=9 note=29 velocity=39 time=0.0028937864583333333
EXTRACT: note_on channel=9 note=39 velocity=80 time=0
EXTRACT: note_on channel=9 note=40 velocity=121 time=0
EXTRACT: note_on channel=9 note=42 velocity=114 time=0
EXTRACT: note_on channel=9 note=54 velocity=60 time=0
EXTRACT: note_on channel=0 note=30 velocity=105 time=0
EXTRACT: note_on channel=1 note=30 velocity=105 time=0.0217033984375
EXTRACT: note_on channel=9 note=54 velocity=0 time=0.0217033984375
EXTRACT: note_on channel=9 note=42 velocity=0 time=0.06366330208333333
EXTRACT: note_on channel=9 note=29 velocity=0 time=0.028937864583333334
EXTRACT: note_on channel=9 note=39 velocity=0 time=0
EXTRACT: note_on channel=9 note=40 velocity=0 time=0
EXTRACT: note_on channel=9 note=54 velocity=24 time=0.0028937864583333333
EXTRACT: note_on channel=3 note=61 velocity=0 time=0.06366330208333333
EXTRACT: note_on channel=9 note=54 velocity=0 time=0.008681359375
EXTRACT: note_on channel=3 note=70 velocity=0 time=0.0057875729166666666
EXTRACT: note_on channel=0 note=30 velocity=0 time=0.054981942708333335
EXTRACT: note_on channel=9 note=30 velocity=42 time=0.0057875729166666666
EXTRACT: note_on channel=9 note=36 velocity=111 time=0
EXTRACT: note_on channel=9 note=42 velocity=90 time=0
EXTRACT: note_on channel=9 note=54 velocity=55 time=0
EXTRACT: note_on channel=9 note=56 velocity=19 time=0
EXTRACT: note_on channel=9 note=80 velocity=127 time=0
EXTRACT: note_on channel=0 note=32 velocity=108 time=0
EXTRACT: note_on channel=3 note=60 velocity=113 time=0
EXTRACT: note_on channel=3 note=69 velocity=103 time=0
EXTRACT: note_on channel=1 note=30 velocity=0 time=0.015915825520833333
EXTRACT: note_on channel=1 note=32 velocity=108 time=0.0057875729166666666
EXTRACT: note_on channel=9 note=54 velocity=0 time=0.0217033984375
EXTRACT: note_on channel=9 note=56 velocity=0 time=0.026044078124999998
EXTRACT: note_on channel=9 note=42 velocity=0 time=0.0057875729166666666
EXTRACT: note_on channel=9 note=36 velocity=0 time=0.020256505208333334
EXTRACT: note_on channel=3 note=60 velocity=0 time=0.028937864583333334
EXTRACT: note_on channel=9 note=30 velocity=0 time=0.008681359375
EXTRACT: note_on channel=9 note=80 velocity=0 time=0.0028937864583333333
EXTRACT: note_on channel=9 note=29 velocity=28 time=0.0028937864583333333
EXTRACT: note_on channel=9 note=54 velocity=27 time=0
EXTRACT: note_on channel=9 note=56 velocity=10 time=0
EXTRACT: note_on channel=3 note=69 velocity=0 time=0
EXTRACT: note_on channel=9 note=54 velocity=0 time=0.052088156249999996
EXTRACT: note_on channel=2 note=73 velocity=0 time=0.07234466145833333
EXTRACT: note_on channel=8 note=61 velocity=0 time=0.0028937864583333333
EXTRACT: note_on channel=0 note=32 velocity=0 time=0.0057875729166666666
EXTRACT: note_on channel=2 note=78 velocity=0 time=0
EXTRACT: note_on channel=6 note=66 velocity=0 time=0
EXTRACT: note_on channel=8 note=66 velocity=0 time=0
EXTRACT: note_on channel=9 note=56 velocity=0 time=0.0028937864583333333
EXTRACT: note_on channel=9 note=29 velocity=0 time=0
EXTRACT: note_on channel=8 note=70 velocity=0 time=0
EXTRACT: note_on channel=9 note=30 velocity=39 time=0.0028937864583333333
EXTRACT: note_on channel=9 note=36 velocity=112 time=0
EXTRACT: note_on channel=9 note=42 velocity=122 time=0
EXTRACT: note_on channel=9 note=54 velocity=61 time=0
EXTRACT: note_on channel=9 note=57 velocity=70 time=0
EXTRACT: note_on channel=0 note=29 velocity=99 time=0
EXTRACT: note_on channel=2 note=82 velocity=0 time=0
EXTRACT: note_on channel=2 note=72 velocity=38 time=0
EXTRACT: note_on channel=2 note=77 velocity=37 time=0
EXTRACT: note_on channel=2 note=81 velocity=36 time=0
EXTRACT: note_on channel=6 note=73 velocity=0 time=0
EXTRACT: note_on channel=6 note=65 velocity=49 time=0
EXTRACT: note_on channel=6 note=72 velocity=25 time=0
EXTRACT: note_on channel=8 note=60 velocity=77 time=0
EXTRACT: note_on channel=8 note=65 velocity=76 time=0
EXTRACT: note_on channel=8 note=69 velocity=73 time=0
EXTRACT: note_on channel=1 note=32 velocity=0 time=0.015915825520833333
EXTRACT: note_on channel=1 note=29 velocity=99 time=0.0057875729166666666
EXTRACT: note_on channel=9 note=54 velocity=0 time=0.033278544270833335
EXTRACT: note_on channel=9 note=42 velocity=0 time=0.03761922395833333
EXTRACT: note_on channel=9 note=30 velocity=0 time=0.03761922395833333
EXTRACT: note_on channel=9 note=36 velocity=0 time=0.0057875729166666666
EXTRACT: note_on channel=9 note=57 velocity=0 time=0
EXTRACT: note_on channel=9 note=29 velocity=29 time=0.0028937864583333333
EXTRACT: note_on channel=9 note=54 velocity=23 time=0
EXTRACT: note_on channel=9 note=54 velocity=0 time=0.03761922395833333
EXTRACT: note_on channel=0 note=29 velocity=0 time=0.06655708854166667
EXTRACT: note_on channel=1 note=29 velocity=0 time=0.0217033984375
EXTRACT: note_on channel=9 note=29 velocity=0 time=0.010128252604166667
EXTRACT: note_on channel=9 note=30 velocity=38 time=0.0028937864583333333
EXTRACT: note_on channel=9 note=42 velocity=100 time=0
EXTRACT: note_on channel=9 note=54 velocity=56 time=0
EXTRACT: note_on channel=9 note=56 velocity=19 time=0
EXTRACT: note_on channel=9 note=80 velocity=127 time=0
EXTRACT: note_on channel=3 note=63 velocity=115 time=0
EXTRACT: note_on channel=9 note=54 velocity=0 time=0.052088156249999996
EXTRACT: note_on channel=9 note=56 velocity=0 time=0.01736271875
EXTRACT: note_on channel=9 note=42 velocity=0 time=0.0057875729166666666
EXTRACT: note_on channel=3 note=63 velocity=0 time=0
EXTRACT: note_on channel=9 note=30 velocity=0 time=0.05787572916666667
EXTRACT: note_on channel=9 note=80 velocity=0 time=0.0028937864583333333
EXTRACT: note_on channel=9 note=29 velocity=26 time=0.0028937864583333333
EXTRACT: note_on channel=9 note=54 velocity=40 time=0
EXTRACT: note_on channel=9 note=56 velocity=10 time=0
EXTRACT: note_on channel=9 note=54 velocity=0 time=0.060769515625
EXTRACT: note_on channel=9 note=56 velocity=0 time=0.07523844791666666
EXTRACT: note_on channel=9 note=29 velocity=0 time=0
EXTRACT: note_on channel=9 note=30 velocity=31 time=0.0028937864583333333
EXTRACT: note_on channel=9 note=39 velocity=80 time=0
EXTRACT: note_on channel=9 note=40 velocity=121 time=0
EXTRACT: note_on channel=9 note=42 velocity=114 time=0
EXTRACT: note_on channel=9 note=54 velocity=57 time=0
EXTRACT: note_on channel=3 note=63 velocity=117 time=0
EXTRACT: note_on channel=9 note=54 velocity=0 time=0.054981942708333335
EXTRACT: note_on channel=9 note=42 velocity=0 time=0.052088156249999996
EXTRACT: note_on channel=9 note=30 velocity=0 time=0.028937864583333334
EXTRACT: note_on channel=9 note=39 velocity=0 time=0
EXTRACT: note_on channel=9 note=40 velocity=0 time=0
EXTRACT: note_on channel=9 note=54 velocity=20 time=0.0028937864583333333
EXTRACT: note_on channel=9 note=54 velocity=0 time=0.03761922395833333
EXTRACT: note_on channel=3 note=63 velocity=0 time=0.07523844791666666
EXTRACT: note_on channel=9 note=30 velocity=35 time=0.026044078124999998
EXTRACT: note_on channel=9 note=42 velocity=90 time=0
EXTRACT: note_on channel=9 note=54 velocity=50 time=0
EXTRACT: note_on channel=9 note=56 velocity=19 time=0
EXTRACT: note_on channel=9 note=80 velocity=127 time=0
EXTRACT: note_on channel=3 note=58 velocity=116 time=0
EXTRACT: note_on channel=9 note=54 velocity=0 time=0.04051301041666667
EXTRACT: note_on channel=9 note=56 velocity=0 time=0.031831651041666666
EXTRACT: note_on channel=9 note=42 velocity=0 time=0.0028937864583333333
EXTRACT: note_on channel=3 note=58 velocity=0 time=0.0057875729166666666
EXTRACT: note_on channel=9 note=30 velocity=0 time=0.054981942708333335
EXTRACT: note_on channel=9 note=80 velocity=0 time=0
EXTRACT: note_on channel=9 note=29 velocity=28 time=0.0028937864583333333
EXTRACT: note_on channel=9 note=54 velocity=24 time=0
EXTRACT: note_on channel=9 note=56 velocity=10 time=0
EXTRACT: note_on channel=9 note=54 velocity=0 time=0.04051301041666667
EXTRACT: note_on channel=2 note=72 velocity=0 time=0.08391980729166666
EXTRACT: note_on channel=8 note=60 velocity=0 time=0.0028937864583333333
EXTRACT: note_on channel=2 note=77 velocity=0 time=0.0028937864583333333
EXTRACT: note_on channel=6 note=65 velocity=0 time=0
EXTRACT: note_on channel=8 note=65 velocity=0 time=0
EXTRACT: note_on channel=9 note=56 velocity=0 time=0.0057875729166666666
EXTRACT: note_on channel=9 note=29 velocity=0 time=0
EXTRACT: note_on channel=2 note=81 velocity=0 time=0
EXTRACT: note_on channel=8 note=69 velocity=0 time=0
EXTRACT: note_on channel=9 note=30 velocity=42 time=0.0028937864583333333
EXTRACT: note_on channel=9 note=36 velocity=114 time=0
EXTRACT: note_on channel=9 note=42 velocity=122 time=0
EXTRACT: note_on channel=9 note=54 velocity=65 time=0
EXTRACT: note_on channel=0 note=34 velocity=112 time=0
EXTRACT: note_on channel=2 note=73 velocity=41 time=0
EXTRACT: note_on channel=2 note=77 velocity=39 time=0
EXTRACT: note_on channel=2 note=82 velocity=39 time=0
EXTRACT: note_on channel=3 note=61 velocity=120 time=0
EXTRACT: note_on channel=6 note=72 velocity=0 time=0
EXTRACT: note_on channel=8 note=61 velocity=83 time=0
EXTRACT: note_on channel=8 note=65 velocity=80 time=0
EXTRACT: note_on channel=8 note=70 velocity=79 time=0
EXTRACT: note_on channel=1 note=34 velocity=112 time=0.0217033984375
EXTRACT: note_on channel=9 note=54 velocity=0 time=0.027490971354166668
EXTRACT: note_on channel=9 note=42 velocity=0 time=0.043406796875
EXTRACT: note_on channel=9 note=36 velocity=0 time=0.043406796875
EXTRACT: note_on channel=9 note=30 velocity=0 time=0
EXTRACT: note_on channel=9 note=54 velocity=17 time=0.0028937864583333333
EXTRACT: note_on channel=9 note=54 velocity=0 time=0.052088156249999996
EXTRACT: note_on channel=9 note=30 velocity=42 time=0.08681359375
EXTRACT: note_on channel=9 note=42 velocity=100 time=0
EXTRACT: note_on channel=9 note=54 velocity=53 time=0
EXTRACT: note_on channel=9 note=56 velocity=19 time=0
EXTRACT: note_on channel=9 note=80 velocity=127 time=0
EXTRACT: note_on channel=9 note=54 velocity=0 time=0.0347254375
EXTRACT: note_on channel=0 note=34 velocity=0 time=0.0057875729166666666
EXTRACT: note_on channel=1 note=34 velocity=0 time=0.0217033984375
EXTRACT: note_on channel=9 note=56 velocity=0 time=0.010128252604166667
EXTRACT: note_on channel=9 note=42 velocity=0 time=0.0028937864583333333
EXTRACT: note_on channel=3 note=61 velocity=0 time=0.054981942708333335
EXTRACT: note_on channel=9 note=30 velocity=0 time=0.0057875729166666666
EXTRACT: note_on channel=9 note=80 velocity=0 time=0
EXTRACT: note_on channel=9 note=54 velocity=29 time=0.0028937864583333333
EXTRACT: note_on channel=9 note=56 velocity=10 time=0
EXTRACT: note_on channel=3 note=63 velocity=115 time=0
EXTRACT: note_on channel=3 note=63 velocity=0 time=0.04630058333333333
EXTRACT: note_on channel=9 note=54 velocity=0 time=0.028937864583333334
EXTRACT: note_on channel=9 note=56 velocity=0 time=0.060769515625
EXTRACT: note_on channel=9 note=29 velocity=39 time=0.0028937864583333333
EXTRACT: note_on channel=9 note=39 velocity=80 time=0
EXTRACT: note_on channel=9 note=40 velocity=121 time=0
EXTRACT: note_on channel=9 note=42 velocity=114 time=0
EXTRACT: note_on channel=9 note=54 velocity=60 time=0
EXTRACT: note_on channel=0 note=34 velocity=109 time=0
EXTRACT: note_on channel=1 note=34 velocity=109 time=0.0217033984375
EXTRACT: note_on channel=9 note=54 velocity=0 time=0.0217033984375
EXTRACT: note_on channel=9 note=42 velocity=0 time=0.06366330208333333
EXTRACT: note_on channel=9 note=29 velocity=0 time=0.028937864583333334
EXTRACT: note_on channel=9 note=39 velocity=0 time=0
EXTRACT: note_on channel=9 note=40 velocity=0 time=0
EXTRACT: note_on channel=9 note=54 velocity=24 time=0.0028937864583333333
EXTRACT: note_on channel=9 note=54 velocity=0 time=0.07234466145833333
EXTRACT: note_on channel=0 note=34 velocity=0 time=0.060769515625
EXTRACT: note_on channel=9 note=30 velocity=42 time=0.0057875729166666666
EXTRACT: note_on channel=9 note=36 velocity=109 time=0
EXTRACT: note_on channel=9 note=42 velocity=90 time=0
EXTRACT: note_on channel=9 note=54 velocity=55 time=0
EXTRACT: note_on channel=9 note=56 velocity=19 time=0
EXTRACT: note_on channel=9 note=80 velocity=127 time=0
EXTRACT: note_on channel=0 note=33 velocity=101 time=0
EXTRACT: note_on channel=3 note=63 velocity=118 time=0
EXTRACT: note_on channel=1 note=34 velocity=0 time=0.015915825520833333
EXTRACT: note_on channel=1 note=33 velocity=101 time=0.0057875729166666666
EXTRACT: note_on channel=9 note=54 velocity=0 time=0.0217033984375
EXTRACT: note_on channel=9 note=56 velocity=0 time=0.026044078124999998
EXTRACT: note_on channel=9 note=42 velocity=0 time=0.0057875729166666666
EXTRACT: note_on channel=9 note=36 velocity=0 time=0.031831651041666666
EXTRACT: note_on channel=9 note=30 velocity=0 time=0.026044078124999998
EXTRACT: note_on channel=9 note=80 velocity=0 time=0.0028937864583333333
EXTRACT: note_on channel=9 note=29 velocity=28 time=0.0028937864583333333
EXTRACT: note_on channel=9 note=54 velocity=27 time=0
EXTRACT: note_on channel=9 note=56 velocity=10 time=0
EXTRACT: note_on channel=3 note=63 velocity=0 time=0.043406796875
EXTRACT: note_on channel=9 note=54 velocity=0 time=0.008681359375
EXTRACT: note_on channel=0 note=33 velocity=0 time=0.08102602083333334
EXTRACT: note_on channel=9 note=56 velocity=0 time=0.0028937864583333333
EXTRACT: note_on channel=9 note=29 velocity=0 time=0
EXTRACT: note_on channel=9 note=30 velocity=39 time=0.0028937864583333333
EXTRACT: note_on channel=9 note=36 velocity=109 time=0
EXTRACT: note_on channel=9 note=42 velocity=122 time=0
EXTRACT: note_on channel=9 note=54 velocity=61 time=0
EXTRACT: note_on channel=0 note=32 velocity=99 time=0
EXTRACT: note_on channel=1 note=33 velocity=0 time=0.015915825520833333
EXTRACT: note_on channel=1 note=32 velocity=99 time=0.0057875729166666666
EXTRACT: note_on channel=9 note=54 velocity=0 time=0.033278544270833335
EXTRACT: note_on channel=9 note=42 velocity=0 time=0.03761922395833333
EXTRACT: note_on channel=9 note=36 velocity=0 time=0.008681359375
EXTRACT: note_on channel=9 note=30 velocity=0 time=0.031831651041666666
EXTRACT: note_on channel=9 note=29 velocity=29 time=0.0057875729166666666
EXTRACT: note_on channel=9 note=54 velocity=23 time=0
EXTRACT: note_on channel=9 note=54 velocity=0 time=0.03761922395833333
EXTRACT: note_on channel=0 note=32 velocity=0 time=0.095494953125
EXTRACT: note_on channel=9 note=29 velocity=0 time=0.0028937864583333333
EXTRACT: note_on channel=9 note=30 velocity=38 time=0.0028937864583333333
EXTRACT: note_on channel=9 note=36 velocity=113 time=0
EXTRACT: note_on channel=9 note=42 velocity=100 time=0
EXTRACT: note_on channel=9 note=54 velocity=56 time=0
EXTRACT: note_on channel=9 note=56 velocity=19 time=0
EXTRACT: note_on channel=9 note=80 velocity=127 time=0
EXTRACT: note_on channel=0 note=31 velocity=105 time=0
EXTRACT: note_on channel=1 note=32 velocity=0 time=0.015915825520833333
EXTRACT: note_on channel=1 note=31 velocity=105 time=0.0057875729166666666
EXTRACT: note_on channel=9 note=54 velocity=0 time=0.0303847578125
EXTRACT: note_on channel=9 note=56 velocity=0 time=0.020256505208333334
EXTRACT: note_on channel=9 note=42 velocity=0 time=0.0028937864583333333
EXTRACT: note_on channel=9 note=30 velocity=0 time=0.05787572916666667
EXTRACT: note_on channel=9 note=36 velocity=0 time=0.0028937864583333333
EXTRACT: note_on channel=9 note=80 velocity=0 time=0
EXTRACT: note_on channel=9 note=29 velocity=26 time=0.0028937864583333333
EXTRACT: note_on channel=9 note=54 velocity=40 time=0
EXTRACT: note_on channel=9 note=56 velocity=10 time=0
EXTRACT: note_on channel=9 note=54 velocity=0 time=0.060769515625
EXTRACT: note_on channel=0 note=31 velocity=0 time=0.07234466145833333
EXTRACT: note_on channel=9 note=56 velocity=0 time=0.0028937864583333333
EXTRACT: note_on channel=9 note=29 velocity=0 time=0
EXTRACT: note_on channel=9 note=30 velocity=31 time=0.0028937864583333333
EXTRACT: note_on channel=9 note=39 velocity=80 time=0
EXTRACT: note_on channel=9 note=40 velocity=121 time=0
EXTRACT: note_on channel=9 note=42 velocity=114 time=0
EXTRACT: note_on channel=9 note=54 velocity=57 time=0
EXTRACT: note_on channel=0 note=30 velocity=100 time=0
EXTRACT: note_on channel=1 note=31 velocity=0 time=0.015915825520833333
EXTRACT: note_on channel=1 note=30 velocity=100 time=0.0057875729166666666
EXTRACT: note_on channel=9 note=54 velocity=0 time=0.033278544270833335
EXTRACT: note_on channel=9 note=42 velocity=0 time=0.052088156249999996
EXTRACT: note_on channel=9 note=30 velocity=0 time=0.028937864583333334
EXTRACT: note_on channel=9 note=39 velocity=0 time=0
EXTRACT: note_on channel=9 note=40 velocity=0 time=0
EXTRACT: note_on channel=9 note=54 velocity=20 time=0.0028937864583333333
EXTRACT: note_on channel=9 note=54 velocity=0 time=0.03761922395833333
EXTRACT: note_on channel=9 note=30 velocity=35 time=0.10128252604166667
EXTRACT: note_on channel=9 note=42 velocity=90 time=0
EXTRACT: note_on channel=9 note=54 velocity=50 time=0
EXTRACT: note_on channel=9 note=56 velocity=19 time=0
EXTRACT: note_on channel=9 note=80 velocity=127 time=0
EXTRACT: note_on channel=0 note=30 velocity=0 time=0.028937864583333334
EXTRACT: note_on channel=9 note=54 velocity=0 time=0.011575145833333333
EXTRACT: note_on channel=1 note=30 velocity=0 time=0.010128252604166667
EXTRACT: note_on channel=9 note=56 velocity=0 time=0.0217033984375
EXTRACT: note_on channel=9 note=42 velocity=0 time=0.0028937864583333333
EXTRACT: note_on channel=9 note=30 velocity=0 time=0.060769515625
EXTRACT: note_on channel=9 note=80 velocity=0 time=0
EXTRACT: note_on channel=9 note=29 velocity=28 time=0.0028937864583333333
EXTRACT: note_on channel=9 note=54 velocity=24 time=0
EXTRACT: note_on channel=9 note=56 velocity=10 time=0
EXTRACT: note_on channel=9 note=54 velocity=0 time=0.04051301041666667
EXTRACT: note_on channel=2 note=73 velocity=0 time=0.08391980729166666
EXTRACT: note_on channel=8 note=61 velocity=0 time=0.0028937864583333333
EXTRACT: note_on channel=2 note=77 velocity=0 time=0.0057875729166666666
EXTRACT: note_on channel=8 note=65 velocity=0 time=0
EXTRACT: note_on channel=9 note=56 velocity=0 time=0.0028937864583333333
EXTRACT: note_on channel=9 note=29 velocity=0 time=0
EXTRACT: note_on channel=9 note=30 velocity=42 time=0.0028937864583333333
EXTRACT: note_on channel=9 note=36 velocity=116 time=0
EXTRACT: note_on channel=9 note=42 velocity=122 time=0
EXTRACT: note_on channel=9 note=54 velocity=65 time=0
EXTRACT: note_on channel=9 note=57 velocity=51 time=0
EXTRACT: note_on channel=0 note=30 velocity=110 time=0
EXTRACT: note_on channel=2 note=82 velocity=0 time=0
EXTRACT: note_on channel=2 note=73 velocity=37 time=0
EXTRACT: note_on channel=2 note=78 velocity=39 time=0
EXTRACT: note_on channel=2 note=82 velocity=35 time=0
EXTRACT: note_on channel=3 note=61 velocity=113 time=0
EXTRACT: note_on channel=3 note=70 velocity=118 time=0
EXTRACT: note_on channel=6 note=66 velocity=49 time=0
EXTRACT: note_on channel=6 note=73 velocity=25 time=0
EXTRACT: note_on channel=8 note=70 velocity=0 time=0
EXTRACT: note_on channel=8 note=61 velocity=76 time=0
EXTRACT: note_on channel=8 note=66 velocity=79 time=0
EXTRACT: note_on channel=8 note=70 velocity=72 time=0
EXTRACT: note_on channel=1 note=30 velocity=110 time=0.0217033984375
EXTRACT: note_on channel=9 note=54 velocity=0 time=0.027490971354166668
EXTRACT: note_on channel=9 note=42 velocity=0 time=0.043406796875
EXTRACT: note_on channel=9 note=30 velocity=0 time=0.043406796875
EXTRACT: note_on channel=9 note=36 velocity=0 time=0
EXTRACT: note_on channel=9 note=57 velocity=0 time=0
EXTRACT: note_on channel=9 note=54 velocity=17 time=0.0028937864583333333
EXTRACT: note_on channel=9 note=54 velocity=0 time=0.052088156249999996
EXTRACT: note_on channel=0 note=30 velocity=0 time=0.07234466145833333
EXTRACT: note_on channel=9 note=30 velocity=42 time=0.014468932291666667
EXTRACT: note_on channel=9 note=42 velocity=100 time=0
EXTRACT: note_on channel=9 note=54 velocity=53 time=0
EXTRACT: note_on channel=9 note=56 velocity=19 time=0
EXTRACT: note_on channel=9 note=80 velocity=127 time=0
EXTRACT: note_on channel=1 note=30 velocity=0 time=0.007234466145833333
EXTRACT: note_on channel=9 note=54 velocity=0 time=0.027490971354166668
EXTRACT: note_on channel=9 note=56 velocity=0 time=0.03761922395833333
EXTRACT: note_on channel=9 note=42 velocity=0 time=0.0028937864583333333
EXTRACT: note_on channel=9 note=30 velocity=0 time=0.060769515625
EXTRACT: note_on channel=9 note=80 velocity=0 time=0
EXTRACT: note_on channel=9 note=54 velocity=29 time=0.0028937864583333333
EXTRACT: note_on channel=9 note=56 velocity=10 time=0
EXTRACT: note_on channel=9 note=54 velocity=0 time=0.07523844791666666
EXTRACT: note_on channel=9 note=56 velocity=0 time=0.060769515625
EXTRACT: note_on channel=9 note=29 velocity=39 time=0.0028937864583333333
EXTRACT: note_on channel=9 note=39 velocity=80 time=0
EXTRACT: note_on channel=9 note=40 velocity=121 time=0
EXTRACT: note_on channel=9 note=42 velocity=114 time=0
EXTRACT: note_on channel=9 note=54 velocity=60 time=0
EXTRACT: note_on channel=0 note=30 velocity=105 time=0
EXTRACT: note_on channel=1 note=30 velocity=105 time=0.0217033984375
EXTRACT: note_on channel=9 note=54 velocity=0 time=0.0217033984375
EXTRACT: note_on channel=9 note=42 velocity=0 time=0.06366330208333333
EXTRACT: note_on channel=9 note=29 velocity=0 time=0.028937864583333334
EXTRACT: note_on channel=9 note=39 velocity=0 time=0
EXTRACT: note_on channel=9 note=40 velocity=0 time=0
EXTRACT: note_on channel=9 note=54 velocity=24 time=0.0028937864583333333
EXTRACT: note_on channel=3 note=61 velocity=0 time=0.043406796875
EXTRACT: note_on channel=3 note=70 velocity=0 time=0.0028937864583333333
EXTRACT: note_on channel=9 note=54 velocity=0 time=0.026044078124999998
EXTRACT: note_on channel=0 note=30 velocity=0 time=0.060769515625
EXTRACT: note_on channel=9 note=30 velocity=42 time=0.0057875729166666666
EXTRACT: note_on channel=9 note=36 velocity=111 time=0
EXTRACT: note_on channel=9 note=42 velocity=90 time=0
EXTRACT: note_on channel=9 note=54 velocity=55 time=0
EXTRACT: note_on channel=9 note=56 velocity=19 time=0
EXTRACT: note_on channel=9 note=80 velocity=127 time=0
EXTRACT: note_on channel=0 note=32 velocity=108 time=0
EXTRACT: note_on channel=3 note=60 velocity=113 time=0
EXTRACT: note_on channel=3 note=69 velocity=104 time=0
EXTRACT: note_on channel=1 note=30 velocity=0 time=0.015915825520833333
EXTRACT: note_on channel=1 note=32 velocity=108 time=0.0057875729166666666
EXTRACT: note_on channel=9 note=54 velocity=0 time=0.018809611979166665
EXTRACT: note_on channel=9 note=56 velocity=0 time=0.028937864583333334
EXTRACT: note_on channel=9 note=42 velocity=0 time=0.0057875729166666666
EXTRACT: note_on channel=9 note=36 velocity=0 time=0.020256505208333334
EXTRACT: note_on channel=3 note=60 velocity=0 time=0.008681359375
EXTRACT: note_on channel=9 note=30 velocity=0 time=0.028937864583333334
EXTRACT: note_on channel=9 note=80 velocity=0 time=0.0028937864583333333
EXTRACT: note_on channel=3 note=69 velocity=0 time=0
EXTRACT: note_on channel=9 note=29 velocity=28 time=0.0028937864583333333
EXTRACT: note_on channel=9 note=54 velocity=27 time=0
EXTRACT: note_on channel=9 note=56 velocity=10 time=0
EXTRACT: note_on channel=9 note=54 velocity=0 time=0.052088156249999996
EXTRACT: note_on channel=2 note=73 velocity=0 time=0.07523844791666666
EXTRACT: note_on channel=8 note=61 velocity=0 time=0
EXTRACT: note_on channel=2 note=78 velocity=0 time=0.0028937864583333333
EXTRACT: note_on channel=8 note=66 velocity=0 time=0
EXTRACT: note_on channel=0 note=32 velocity=0 time=0.0028937864583333333
EXTRACT: note_on channel=6 note=66 velocity=0 time=0
EXTRACT: note_on channel=9 note=56 velocity=0 time=0.0028937864583333333
EXTRACT: note_on channel=9 note=29 velocity=0 time=0
EXTRACT: note_on channel=8 note=70 velocity=0 time=0
EXTRACT: note_on channel=9 note=30 velocity=39 time=0.0028937864583333333
EXTRACT: note_on channel=9 note=36 velocity=112 time=0
EXTRACT: note_on channel=9 note=42 velocity=122 time=0
EXTRACT: note_on channel=9 note=54 velocity=61 time=0
EXTRACT: note_on channel=9 note=57 velocity=70 time=0
EXTRACT: note_on channel=0 note=29 velocity=99 time=0
EXTRACT: note_on channel=2 note=82 velocity=0 time=0
EXTRACT: note_on channel=2 note=72 velocity=38 time=0
EXTRACT: note_on channel=2 note=77 velocity=37 time=0
EXTRACT: note_on channel=2 note=81 velocity=36 time=0
EXTRACT: note_on channel=6 note=73 velocity=0 time=0
EXTRACT: note_on channel=6 note=65 velocity=49 time=0
EXTRACT: note_on channel=6 note=72 velocity=25 time=0
EXTRACT: note_on channel=8 note=60 velocity=77 time=0
EXTRACT: note_on channel=8 note=65 velocity=76 time=0
EXTRACT: note_on channel=8 note=69 velocity=73 time=0
EXTRACT: note_on channel=1 note=32 velocity=0 time=0.015915825520833333
EXTRACT: note_on channel=1 note=29 velocity=99 time=0.0057875729166666666
EXTRACT: note_on channel=9 note=54 velocity=0 time=0.033278544270833335
EXTRACT: note_on channel=9 note=42 velocity=0 time=0.03761922395833333
EXTRACT: note_on channel=9 note=30 velocity=0 time=0.03761922395833333
EXTRACT: note_on channel=9 note=36 velocity=0 time=0.0057875729166666666
EXTRACT: note_on channel=9 note=57 velocity=0 time=0
EXTRACT: note_on channel=9 note=29 velocity=29 time=0.0028937864583333333
EXTRACT: note_on channel=9 note=54 velocity=23 time=0
EXTRACT: note_on channel=9 note=54 velocity=0 time=0.03761922395833333
EXTRACT: note_on channel=0 note=29 velocity=0 time=0.06655708854166667
EXTRACT: note_on channel=1 note=29 velocity=0 time=0.0217033984375
EXTRACT: note_on channel=9 note=29 velocity=0 time=0.010128252604166667
EXTRACT: note_on channel=9 note=30 velocity=38 time=0.0028937864583333333
EXTRACT: note_on channel=9 note=42 velocity=100 time=0
EXTRACT: note_on channel=9 note=54 velocity=56 time=0
EXTRACT: note_on channel=9 note=56 velocity=19 time=0
EXTRACT: note_on channel=9 note=80 velocity=127 time=0
EXTRACT: note_on channel=3 note=63 velocity=116 time=0
EXTRACT: note_on channel=9 note=54 velocity=0 time=0.052088156249999996
EXTRACT: note_on channel=3 note=63 velocity=0 time=0.008681359375
EXTRACT: note_on channel=9 note=56 velocity=0 time=0.011575145833333333
EXTRACT: note_on channel=9 note=42 velocity=0 time=0.0028937864583333333
EXTRACT: note_on channel=9 note=30 velocity=0 time=0.060769515625
EXTRACT: note_on channel=9 note=80 velocity=0 time=0
EXTRACT: note_on channel=9 note=29 velocity=26 time=0.0028937864583333333
EXTRACT: note_on channel=9 note=54 velocity=40 time=0
EXTRACT: note_on channel=9 note=56 velocity=10 time=0
EXTRACT: note_on channel=9 note=54 velocity=0 time=0.060769515625
EXTRACT: note_on channel=9 note=56 velocity=0 time=0.07523844791666666
EXTRACT: note_on channel=9 note=29 velocity=0 time=0
EXTRACT: note_on channel=9 note=30 velocity=31 time=0.0028937864583333333
EXTRACT: note_on channel=9 note=39 velocity=80 time=0
EXTRACT: note_on channel=9 note=40 velocity=121 time=0
EXTRACT: note_on channel=9 note=42 velocity=114 time=0
EXTRACT: note_on channel=9 note=54 velocity=57 time=0
EXTRACT: note_on channel=3 note=63 velocity=116 time=0
EXTRACT: note_on channel=9 note=54 velocity=0 time=0.054981942708333335
EXTRACT: note_on channel=9 note=42 velocity=0 time=0.052088156249999996
EXTRACT: note_on channel=9 note=30 velocity=0 time=0.028937864583333334
EXTRACT: note_on channel=9 note=39 velocity=0 time=0
EXTRACT: note_on channel=9 note=40 velocity=0 time=0
EXTRACT: note_on channel=9 note=54 velocity=20 time=0.0028937864583333333
EXTRACT: note_on channel=9 note=54 velocity=0 time=0.03761922395833333
EXTRACT: note_on channel=3 note=63 velocity=0 time=0.06655708854166667
EXTRACT: note_on channel=9 note=30 velocity=35 time=0.0347254375
EXTRACT: note_on channel=9 note=42 velocity=90 time=0
EXTRACT: note_on channel=9 note=54 velocity=50 time=0
EXTRACT: note_on channel=9 note=56 velocity=19 time=0
EXTRACT: note_on channel=9 note=80 velocity=127 time=0
EXTRACT: note_on channel=3 note=58 velocity=113 time=0
EXTRACT: note_on channel=9 note=54 velocity=0 time=0.04051301041666667
EXTRACT: note_on channel=9 note=56 velocity=0 time=0.031831651041666666
EXTRACT: note_on channel=9 note=42 velocity=0 time=0.0028937864583333333
EXTRACT: note_on channel=3 note=58 velocity=0 time=0
EXTRACT: note_on channel=9 note=30 velocity=0 time=0.060769515625
EXTRACT: note_on channel=9 note=80 velocity=0 time=0
EXTRACT: note_on channel=9 note=29 velocity=28 time=0.0028937864583333333
EXTRACT: note_on channel=9 note=54 velocity=24 time=0
EXTRACT: note_on channel=9 note=56 velocity=10 time=0
EXTRACT: note_on channel=9 note=54 velocity=0 time=0.04051301041666667
EXTRACT: note_on channel=2 note=72 velocity=0 time=0.08391980729166666
EXTRACT: note_on channel=8 note=60 velocity=0 time=0.0028937864583333333
EXTRACT: note_on channel=2 note=77 velocity=0 time=0.0028937864583333333
EXTRACT: note_on channel=6 note=65 velocity=0 time=0
EXTRACT: note_on channel=8 note=65 velocity=0 time=0
EXTRACT: note_on channel=9 note=56 velocity=0 time=0.0057875729166666666
EXTRACT: note_on channel=9 note=29 velocity=0 time=0
EXTRACT: note_on channel=8 note=69 velocity=0 time=0
EXTRACT: note_on channel=9 note=30 velocity=42 time=0.0028937864583333333
EXTRACT: note_on channel=9 note=36 velocity=114 time=0
EXTRACT: note_on channel=9 note=42 velocity=122 time=0
EXTRACT: note_on channel=9 note=49 velocity=74 time=0
EXTRACT: note_on channel=9 note=54 velocity=65 time=0
EXTRACT: note_on channel=0 note=34 velocity=112 time=0
EXTRACT: note_on channel=2 note=81 velocity=0 time=0
EXTRACT: note_on channel=2 note=73 velocity=41 time=0
EXTRACT: note_on channel=2 note=77 velocity=39 time=0
EXTRACT: note_on channel=2 note=82 velocity=39 time=0
EXTRACT: note_on channel=3 note=61 velocity=119 time=0
EXTRACT: note_on channel=6 note=72 velocity=0 time=0
EXTRACT: note_on channel=8 note=61 velocity=83 time=0
EXTRACT: note_on channel=8 note=65 velocity=80 time=0
EXTRACT: note_on channel=8 note=70 velocity=79 time=0
EXTRACT: note_on channel=1 note=34 velocity=112 time=0.0217033984375
EXTRACT: note_on channel=9 note=54 velocity=0 time=0.027490971354166668
EXTRACT: note_on channel=9 note=42 velocity=0 time=0.043406796875
EXTRACT: note_on channel=9 note=30 velocity=0 time=0.043406796875
EXTRACT: note_on channel=9 note=36 velocity=0 time=0
EXTRACT: note_on channel=9 note=49 velocity=0 time=0
EXTRACT: note_on channel=9 note=54 velocity=17 time=0.0028937864583333333
EXTRACT: note_on channel=9 note=54 velocity=0 time=0.052088156249999996
EXTRACT: note_on channel=9 note=30 velocity=42 time=0.08681359375
EXTRACT: note_on channel=9 note=42 velocity=100 time=0
EXTRACT: note_on channel=9 note=54 velocity=53 time=0
EXTRACT: note_on channel=9 note=56 velocity=19 time=0
EXTRACT: note_on channel=9 note=80 velocity=127 time=0
EXTRACT: note_on channel=9 note=54 velocity=0 time=0.0347254375
EXTRACT: note_on channel=0 note=34 velocity=0 time=0.0057875729166666666
EXTRACT: note_on channel=1 note=34 velocity=0 time=0.0217033984375
EXTRACT: note_on channel=9 note=56 velocity=0 time=0.010128252604166667
EXTRACT: note_on channel=9 note=42 velocity=0 time=0.0028937864583333333
EXTRACT: note_on channel=3 note=61 velocity=0 time=0.054981942708333335
EXTRACT: note_on channel=9 note=30 velocity=0 time=0.0057875729166666666
EXTRACT: note_on channel=9 note=80 velocity=0 time=0
EXTRACT: note_on channel=9 note=54 velocity=29 time=0.0028937864583333333
EXTRACT: note_on channel=9 note=56 velocity=10 time=0
EXTRACT: note_on channel=3 note=63 velocity=115 time=0
EXTRACT: note_on channel=3 note=63 velocity=0 time=0.06366330208333333
EXTRACT: note_on channel=9 note=54 velocity=0 time=0.011575145833333333
EXTRACT: note_on channel=9 note=56 velocity=0 time=0.060769515625
EXTRACT: note_on channel=9 note=29 velocity=39 time=0.0028937864583333333
EXTRACT: note_on channel=9 note=39 velocity=80 time=0
EXTRACT: note_on channel=9 note=40 velocity=121 time=0
EXTRACT: note_on channel=9 note=42 velocity=114 time=0
EXTRACT: note_on channel=9 note=54 velocity=60 time=0
EXTRACT: note_on channel=0 note=34 velocity=109 time=0
EXTRACT: note_on channel=1 note=34 velocity=109 time=0.0217033984375
EXTRACT: note_on channel=9 note=54 velocity=0 time=0.0217033984375
EXTRACT: note_on channel=9 note=42 velocity=0 time=0.06366330208333333
EXTRACT: note_on channel=9 note=29 velocity=0 time=0.028937864583333334
EXTRACT: note_on channel=9 note=39 velocity=0 time=0
EXTRACT: note_on channel=9 note=40 velocity=0 time=0
EXTRACT: note_on channel=9 note=54 velocity=24 time=0.0028937864583333333
EXTRACT: note_on channel=9 note=54 velocity=0 time=0.07234466145833333
EXTRACT: note_on channel=0 note=34 velocity=0 time=0.060769515625
EXTRACT: note_on channel=9 note=30 velocity=42 time=0.0057875729166666666
EXTRACT: note_on channel=9 note=36 velocity=109 time=0
EXTRACT: note_on channel=9 note=42 velocity=90 time=0
EXTRACT: note_on channel=9 note=54 velocity=55 time=0
EXTRACT: note_on channel=9 note=56 velocity=19 time=0
EXTRACT: note_on channel=9 note=80 velocity=127 time=0
EXTRACT: note_on channel=0 note=33 velocity=101 time=0
EXTRACT: note_on channel=3 note=63 velocity=118 time=0
EXTRACT: note_on channel=1 note=34 velocity=0 time=0.015915825520833333
EXTRACT: note_on channel=1 note=33 velocity=101 time=0.0057875729166666666
EXTRACT: note_on channel=9 note=54 velocity=0 time=0.018809611979166665
EXTRACT: note_on channel=9 note=56 velocity=0 time=0.028937864583333334
EXTRACT: note_on channel=9 note=42 velocity=0 time=0.0057875729166666666
EXTRACT: note_on channel=9 note=36 velocity=0 time=0.031831651041666666
EXTRACT: note_on channel=9 note=30 velocity=0 time=0.026044078124999998
EXTRACT: note_on channel=9 note=80 velocity=0 time=0.0028937864583333333
EXTRACT: note_on channel=9 note=29 velocity=28 time=0.0028937864583333333
EXTRACT: note_on channel=9 note=54 velocity=27 time=0
EXTRACT: note_on channel=9 note=56 velocity=10 time=0
EXTRACT: note_on channel=9 note=54 velocity=0 time=0.052088156249999996
EXTRACT: note_on channel=0 note=33 velocity=0 time=0.08102602083333334
EXTRACT: note_on channel=9 note=56 velocity=0 time=0.0028937864583333333
EXTRACT: note_on channel=9 note=29 velocity=0 time=0
EXTRACT: note_on channel=9 note=30 velocity=39 time=0.0028937864583333333
EXTRACT: note_on channel=9 note=36 velocity=109 time=0
EXTRACT: note_on channel=9 note=42 velocity=122 time=0
EXTRACT: note_on channel=9 note=54 velocity=61 time=0
EXTRACT: note_on channel=0 note=32 velocity=99 time=0
EXTRACT: note_on channel=1 note=33 velocity=0 time=0.015915825520833333
EXTRACT: note_on channel=1 note=32 velocity=99 time=0.0057875729166666666
EXTRACT: note_on channel=3 note=63 velocity=0 time=0.013022039062499999
EXTRACT: note_on channel=9 note=54 velocity=0 time=0.023150291666666666
EXTRACT: note_on channel=9 note=42 velocity=0 time=0.0347254375
EXTRACT: note_on channel=9 note=36 velocity=0 time=0.008681359375
EXTRACT: note_on channel=9 note=30 velocity=0 time=0.031831651041666666
EXTRACT: note_on channel=9 note=29 velocity=29 time=0.0057875729166666666
EXTRACT: note_on channel=9 note=54 velocity=23 time=0
EXTRACT: note_on channel=9 note=54 velocity=0 time=0.03761922395833333
EXTRACT: note_on channel=0 note=32 velocity=0 time=0.095494953125
EXTRACT: note_on channel=9 note=29 velocity=0 time=0.0028937864583333333
EXTRACT: note_on channel=9 note=30 velocity=38 time=0.0028937864583333333
EXTRACT: note_on channel=9 note=36 velocity=113 time=0
EXTRACT: note_on channel=9 note=42 velocity=100 time=0
EXTRACT: note_on channel=9 note=54 velocity=56 time=0
EXTRACT: note_on channel=9 note=56 velocity=19 time=0
EXTRACT: note_on channel=9 note=80 velocity=127 time=0
EXTRACT: note_on channel=0 note=31 velocity=105 time=0
EXTRACT: note_on channel=1 note=32 velocity=0 time=0.015915825520833333
EXTRACT: note_on channel=1 note=31 velocity=105 time=0.0057875729166666666
EXTRACT: note_on channel=9 note=54 velocity=0 time=0.0303847578125
EXTRACT: note_on channel=9 note=56 velocity=0 time=0.020256505208333334
EXTRACT: note_on channel=9 note=42 velocity=0 time=0.0028937864583333333
EXTRACT: note_on channel=9 note=30 velocity=0 time=0.05787572916666667
EXTRACT: note_on channel=9 note=36 velocity=0 time=0.0028937864583333333
EXTRACT: note_on channel=9 note=80 velocity=0 time=0
EXTRACT: note_on channel=9 note=29 velocity=26 time=0.0028937864583333333
EXTRACT: note_on channel=9 note=54 velocity=40 time=0
EXTRACT: note_on channel=9 note=56 velocity=10 time=0
EXTRACT: note_on channel=9 note=54 velocity=0 time=0.060769515625
EXTRACT: note_on channel=0 note=31 velocity=0 time=0.07234466145833333
EXTRACT: note_on channel=9 note=56 velocity=0 time=0.0028937864583333333
EXTRACT: note_on channel=9 note=29 velocity=0 time=0
EXTRACT: note_on channel=9 note=30 velocity=31 time=0.0028937864583333333
EXTRACT: note_on channel=9 note=39 velocity=80 time=0
EXTRACT: note_on channel=9 note=40 velocity=121 time=0
EXTRACT: note_on channel=9 note=42 velocity=114 time=0
EXTRACT: note_on channel=9 note=54 velocity=57 time=0
EXTRACT: note_on channel=0 note=30 velocity=100 time=0
EXTRACT: note_on channel=1 note=31 velocity=0 time=0.015915825520833333
EXTRACT: note_on channel=1 note=30 velocity=100 time=0.0057875729166666666
EXTRACT: note_on channel=9 note=54 velocity=0 time=0.033278544270833335
EXTRACT: note_on channel=9 note=42 velocity=0 time=0.052088156249999996
EXTRACT: note_on channel=9 note=30 velocity=0 time=0.028937864583333334
EXTRACT: note_on channel=9 note=39 velocity=0 time=0
EXTRACT: note_on channel=9 note=40 velocity=0 time=0
EXTRACT: note_on channel=9 note=54 velocity=20 time=0.0028937864583333333
EXTRACT: note_on channel=9 note=54 velocity=0 time=0.03761922395833333
EXTRACT: note_on channel=9 note=30 velocity=35 time=0.10128252604166667
EXTRACT: note_on channel=9 note=42 velocity=90 time=0
EXTRACT: note_on channel=9 note=54 velocity=50 time=0
EXTRACT: note_on channel=9 note=56 velocity=19 time=0
EXTRACT: note_on channel=9 note=80 velocity=127 time=0
EXTRACT: note_on channel=0 note=30 velocity=0 time=0.028937864583333334
EXTRACT: note_on channel=9 note=54 velocity=0 time=0.011575145833333333
EXTRACT: note_on channel=1 note=30 velocity=0 time=0.010128252604166667
EXTRACT: note_on channel=9 note=56 velocity=0 time=0.0217033984375
EXTRACT: note_on channel=9 note=42 velocity=0 time=0.0028937864583333333
EXTRACT: note_on channel=9 note=30 velocity=0 time=0.05787572916666667
EXTRACT: note_on channel=9 note=80 velocity=0 time=0.0028937864583333333
EXTRACT: note_on channel=9 note=29 velocity=28 time=0.0028937864583333333
EXTRACT: note_on channel=9 note=54 velocity=24 time=0
EXTRACT: note_on channel=9 note=56 velocity=10 time=0
EXTRACT: note_on channel=9 note=54 velocity=0 time=0.04051301041666667
EXTRACT: note_on channel=2 note=73 velocity=0 time=0.08391980729166666
EXTRACT: note_on channel=8 note=61 velocity=0 time=0.0028937864583333333
EXTRACT: note_on channel=2 note=77 velocity=0 time=0.0028937864583333333
EXTRACT: note_on channel=8 note=65 velocity=0 time=0.0028937864583333333
EXTRACT: note_on channel=9 note=56 velocity=0 time=0.0028937864583333333
EXTRACT: note_on channel=9 note=29 velocity=0 time=0
EXTRACT: note_on channel=8 note=70 velocity=0 time=0
EXTRACT: note_on channel=9 note=30 velocity=42 time=0.0028937864583333333
EXTRACT: note_on channel=9 note=36 velocity=116 time=0
EXTRACT: note_on channel=9 note=42 velocity=122 time=0
EXTRACT: note_on channel=9 note=54 velocity=65 time=0
EXTRACT: note_on channel=9 note=57 velocity=51 time=0
EXTRACT: note_on channel=0 note=30 velocity=110 time=0
EXTRACT: note_on channel=2 note=82 velocity=0 time=0
EXTRACT: note_on channel=2 note=73 velocity=37 time=0
EXTRACT: note_on channel=2 note=78 velocity=39 time=0
EXTRACT: note_on channel=2 note=82 velocity=35 time=0
EXTRACT: note_on channel=3 note=61 velocity=110 time=0
EXTRACT: note_on channel=3 note=70 velocity=114 time=0
EXTRACT: note_on channel=6 note=66 velocity=49 time=0
EXTRACT: note_on channel=6 note=73 velocity=35 time=0
EXTRACT: note_on channel=8 note=61 velocity=76 time=0
EXTRACT: note_on channel=8 note=66 velocity=79 time=0
EXTRACT: note_on channel=8 note=70 velocity=72 time=0
EXTRACT: note_on channel=1 note=30 velocity=110 time=0.0217033984375
EXTRACT: note_on channel=9 note=54 velocity=0 time=0.027490971354166668
EXTRACT: note_on channel=9 note=42 velocity=0 time=0.043406796875
EXTRACT: note_on channel=9 note=30 velocity=0 time=0.043406796875
EXTRACT: note_on channel=9 note=36 velocity=0 time=0
EXTRACT: note_on channel=9 note=57 velocity=0 time=0
EXTRACT: note_on channel=9 note=54 velocity=17 time=0.0028937864583333333
EXTRACT: note_on channel=9 note=54 velocity=0 time=0.052088156249999996
EXTRACT: note_on channel=0 note=30 velocity=0 time=0.07234466145833333
EXTRACT: note_on channel=9 note=30 velocity=42 time=0.014468932291666667
EXTRACT: note_on channel=9 note=42 velocity=100 time=0
EXTRACT: note_on channel=9 note=54 velocity=53 time=0
EXTRACT: note_on channel=9 note=56 velocity=19 time=0
EXTRACT: note_on channel=9 note=80 velocity=127 time=0
EXTRACT: note_on channel=1 note=30 velocity=0 time=0.007234466145833333
EXTRACT: note_on channel=9 note=54 velocity=0 time=0.027490971354166668
EXTRACT: note_on channel=9 note=56 velocity=0 time=0.0347254375
EXTRACT: note_on channel=9 note=42 velocity=0 time=0.0057875729166666666
EXTRACT: note_on channel=9 note=30 velocity=0 time=0.060769515625
EXTRACT: note_on channel=9 note=80 velocity=0 time=0
EXTRACT: note_on channel=9 note=54 velocity=29 time=0.0028937864583333333
EXTRACT: note_on channel=9 note=56 velocity=10 time=0
EXTRACT: note_on channel=9 note=54 velocity=0 time=0.07523844791666666
EXTRACT: note_on channel=9 note=56 velocity=0 time=0.060769515625
EXTRACT: note_on channel=9 note=29 velocity=39 time=0.0028937864583333333
EXTRACT: note_on channel=9 note=39 velocity=80 time=0
EXTRACT: note_on channel=9 note=40 velocity=121 time=0
EXTRACT: note_on channel=9 note=42 velocity=114 time=0
EXTRACT: note_on channel=9 note=54 velocity=60 time=0
EXTRACT: note_on channel=0 note=30 velocity=105 time=0
EXTRACT: note_on channel=1 note=30 velocity=105 time=0.0217033984375
EXTRACT: note_on channel=9 note=54 velocity=0 time=0.018809611979166665
EXTRACT: note_on channel=9 note=42 velocity=0 time=0.06655708854166667
EXTRACT: note_on channel=9 note=29 velocity=0 time=0.028937864583333334
EXTRACT: note_on channel=9 note=39 velocity=0 time=0
EXTRACT: note_on channel=9 note=40 velocity=0 time=0
EXTRACT: note_on channel=9 note=54 velocity=24 time=0.0028937864583333333
EXTRACT: note_on channel=9 note=54 velocity=0 time=0.07234466145833333
EXTRACT: note_on channel=3 note=70 velocity=0 time=0.0057875729166666666
EXTRACT: note_on channel=3 note=61 velocity=0 time=0.008681359375
EXTRACT: note_on channel=0 note=30 velocity=0 time=0.04630058333333333
EXTRACT: note_on channel=9 note=30 velocity=42 time=0.0057875729166666666
EXTRACT: note_on channel=9 note=36 velocity=111 time=0
EXTRACT: note_on channel=9 note=42 velocity=90 time=0
EXTRACT: note_on channel=9 note=54 velocity=55 time=0
EXTRACT: note_on channel=9 note=56 velocity=19 time=0
EXTRACT: note_on channel=9 note=80 velocity=127 time=0
EXTRACT: note_on channel=0 note=32 velocity=108 time=0
EXTRACT: note_on channel=3 note=60 velocity=100 time=0
EXTRACT: note_on channel=3 note=69 velocity=96 time=0
EXTRACT: note_on channel=1 note=30 velocity=0 time=0.015915825520833333
EXTRACT: note_on channel=1 note=32 velocity=108 time=0.0057875729166666666
EXTRACT: note_on channel=9 note=54 velocity=0 time=0.0217033984375
EXTRACT: note_on channel=9 note=56 velocity=0 time=0.028937864583333334
EXTRACT: note_on channel=9 note=42 velocity=0 time=0.0028937864583333333
EXTRACT: note_on channel=9 note=36 velocity=0 time=0.020256505208333334
EXTRACT: note_on channel=9 note=30 velocity=0 time=0.03761922395833333
EXTRACT: note_on channel=9 note=80 velocity=0 time=0.0028937864583333333
EXTRACT: note_on channel=9 note=29 velocity=28 time=0.0028937864583333333
EXTRACT: note_on channel=9 note=54 velocity=27 time=0
EXTRACT: note_on channel=9 note=56 velocity=10 time=0
EXTRACT: note_on channel=9 note=54 velocity=0 time=0.052088156249999996
EXTRACT: note_on channel=2 note=73 velocity=0 time=0.07234466145833333
EXTRACT: note_on channel=8 note=61 velocity=0 time=0.0028937864583333333
EXTRACT: note_on channel=8 note=66 velocity=0 time=0.0028937864583333333
EXTRACT: note_on channel=0 note=32 velocity=0 time=0.0028937864583333333
EXTRACT: note_on channel=2 note=78 velocity=0 time=0
EXTRACT: note_on channel=6 note=66 velocity=0 time=0
EXTRACT: note_on channel=9 note=56 velocity=0 time=0.0028937864583333333
EXTRACT: note_on channel=9 note=29 velocity=0 time=0
EXTRACT: note_on channel=8 note=70 velocity=0 time=0
EXTRACT: note_on channel=9 note=30 velocity=39 time=0.0028937864583333333
EXTRACT: note_on channel=9 note=36 velocity=112 time=0
EXTRACT: note_on channel=9 note=42 velocity=122 time=0
EXTRACT: note_on channel=9 note=54 velocity=61 time=0
EXTRACT: note_on channel=9 note=57 velocity=70 time=0
EXTRACT: note_on channel=0 note=29 velocity=99 time=0
EXTRACT: note_on channel=2 note=82 velocity=0 time=0
EXTRACT: note_on channel=2 note=72 velocity=38 time=0
EXTRACT: note_on channel=2 note=77 velocity=37 time=0
EXTRACT: note_on channel=2 note=81 velocity=36 time=0
EXTRACT: note_on channel=6 note=73 velocity=0 time=0
EXTRACT: note_on channel=6 note=65 velocity=49 time=0
EXTRACT: note_on channel=6 note=72 velocity=52 time=0
EXTRACT: note_on channel=8 note=60 velocity=77 time=0
EXTRACT: note_on channel=8 note=65 velocity=76 time=0
EXTRACT: note_on channel=8 note=69 velocity=73 time=0
EXTRACT: note_on channel=1 note=32 velocity=0 time=0.015915825520833333
EXTRACT: note_on channel=1 note=29 velocity=99 time=0.0057875729166666666
EXTRACT: note_on channel=3 note=69 velocity=0 time=0.0303847578125
EXTRACT: note_on channel=9 note=54 velocity=0 time=0.0028937864583333333
EXTRACT: note_on channel=9 note=42 velocity=0 time=0.03761922395833333
EXTRACT: note_on channel=9 note=30 velocity=0 time=0.03761922395833333
EXTRACT: note_on channel=3 note=60 velocity=0 time=0
EXTRACT: note_on channel=9 note=36 velocity=0 time=0.0057875729166666666
EXTRACT: note_on channel=9 note=57 velocity=0 time=0
EXTRACT: note_on channel=9 note=29 velocity=29 time=0.0028937864583333333
EXTRACT: note_on channel=9 note=54 velocity=23 time=0
EXTRACT: note_on channel=9 note=54 velocity=0 time=0.03761922395833333
EXTRACT: note_on channel=0 note=29 velocity=0 time=0.06655708854166667
EXTRACT: note_on channel=1 note=29 velocity=0 time=0.0217033984375
EXTRACT: note_on channel=9 note=29 velocity=0 time=0.010128252604166667
EXTRACT: note_on channel=9 note=30 velocity=38 time=0.0028937864583333333
EXTRACT: note_on channel=9 note=42 velocity=100 time=0
EXTRACT: note_on channel=9 note=54 velocity=56 time=0
EXTRACT: note_on channel=9 note=56 velocity=19 time=0
EXTRACT: note_on channel=9 note=80 velocity=127 time=0
EXTRACT: note_on channel=9 note=54 velocity=0 time=0.052088156249999996
EXTRACT: note_on channel=9 note=56 velocity=0 time=0.020256505208333334
EXTRACT: note_on channel=9 note=42 velocity=0 time=0.0028937864583333333
EXTRACT: note_on channel=9 note=30 velocity=0 time=0.060769515625
EXTRACT: note_on channel=9 note=80 velocity=0 time=0
EXTRACT: note_on channel=9 note=29 velocity=26 time=0.0028937864583333333
EXTRACT: note_on channel=9 note=54 velocity=40 time=0
EXTRACT: note_on channel=9 note=56 velocity=10 time=0
EXTRACT: note_on channel=9 note=54 velocity=0 time=0.060769515625
EXTRACT: note_on channel=9 note=56 velocity=0 time=0.07523844791666666
EXTRACT: note_on channel=9 note=29 velocity=0 time=0
EXTRACT: note_on channel=9 note=30 velocity=31 time=0.0028937864583333333
EXTRACT: note_on channel=9 note=39 velocity=80 time=0
EXTRACT: note_on channel=9 note=40 velocity=121 time=0
EXTRACT: note_on channel=9 note=42 velocity=114 time=0
EXTRACT: note_on channel=9 note=54 velocity=57 time=0
EXTRACT: note_on channel=3 note=61 velocity=119 time=0
EXTRACT: note_on channel=9 note=54 velocity=0 time=0.054981942708333335
EXTRACT: note_on channel=9 note=42 velocity=0 time=0.052088156249999996
EXTRACT: note_on channel=9 note=30 velocity=0 time=0.028937864583333334
EXTRACT: note_on channel=9 note=39 velocity=0 time=0
EXTRACT: note_on channel=9 note=40 velocity=0 time=0
EXTRACT: note_on channel=9 note=54 velocity=20 time=0.0028937864583333333
EXTRACT: note_on channel=3 note=61 velocity=0 time=0
EXTRACT: note_on channel=9 note=54 velocity=0 time=0.03761922395833333
EXTRACT: note_on channel=9 note=30 velocity=35 time=0.10128252604166667
EXTRACT: note_on channel=9 note=42 velocity=90 time=0
EXTRACT: note_on channel=9 note=54 velocity=50 time=0
EXTRACT: note_on channel=9 note=56 velocity=19 time=0
EXTRACT: note_on channel=9 note=80 velocity=127 time=0
EXTRACT: note_on channel=3 note=63 velocity=115 time=0
EXTRACT: note_on channel=9 note=54 velocity=0 time=0.04051301041666667
EXTRACT: note_on channel=9 note=56 velocity=0 time=0.031831651041666666
EXTRACT: note_on channel=9 note=42 velocity=0 time=0.0028937864583333333
EXTRACT: note_on channel=3 note=63 velocity=0 time=0.028937864583333334
EXTRACT: note_on channel=9 note=30 velocity=0 time=0.028937864583333334
EXTRACT: note_on channel=9 note=80 velocity=0 time=0.0028937864583333333
EXTRACT: note_on channel=9 note=29 velocity=28 time=0.0028937864583333333
EXTRACT: note_on channel=9 note=54 velocity=24 time=0
EXTRACT: note_on channel=9 note=56 velocity=10 time=0
EXTRACT: note_on channel=9 note=54 velocity=0 time=0.04051301041666667
EXTRACT: note_on channel=2 note=72 velocity=0 time=0.08391980729166666
EXTRACT: note_on channel=8 note=60 velocity=0 time=0.0028937864583333333
EXTRACT: note_on channel=2 note=77 velocity=0 time=0.0028937864583333333
EXTRACT: note_on channel=6 note=65 velocity=0 time=0
EXTRACT: note_on channel=8 note=65 velocity=0 time=0.0028937864583333333
EXTRACT: note_on channel=9 note=56 velocity=0 time=0.0028937864583333333
EXTRACT: note_on channel=9 note=29 velocity=0 time=0
EXTRACT: note_on channel=8 note=69 velocity=0 time=0
EXTRACT: note_on channel=9 note=30 velocity=42 time=0.0028937864583333333
EXTRACT: note_on channel=9 note=36 velocity=114 time=0
EXTRACT: note_on channel=9 note=42 velocity=122 time=0
EXTRACT: note_on channel=9 note=49 velocity=74 time=0
EXTRACT: note_on channel=9 note=54 velocity=65 time=0
EXTRACT: note_on channel=0 note=30 velocity=112 time=0
EXTRACT: note_on channel=2 note=81 velocity=0 time=0
EXTRACT: note_on channel=2 note=73 velocity=37 time=0
EXTRACT: note_on channel=2 note=78 velocity=39 time=0
EXTRACT: note_on channel=2 note=84 velocity=35 time=0
EXTRACT: note_on channel=3 note=65 velocity=119 time=0
EXTRACT: note_on channel=6 note=72 velocity=0 time=0
EXTRACT: note_on channel=6 note=66 velocity=49 time=0
EXTRACT: note_on channel=6 note=75 velocity=45 time=0
EXTRACT: note_on channel=8 note=61 velocity=76 time=0
EXTRACT: note_on channel=8 note=66 velocity=79 time=0
EXTRACT: note_on channel=8 note=72 velocity=72 time=0
EXTRACT: note_on channel=1 note=30 velocity=112 time=0.0217033984375
EXTRACT: note_on channel=9 note=54 velocity=0 time=0.027490971354166668
EXTRACT: note_on channel=9 note=42 velocity=0 time=0.043406796875
EXTRACT: note_on channel=9 note=30 velocity=0 time=0.043406796875
EXTRACT: note_on channel=9 note=36 velocity=0 time=0
EXTRACT: note_on channel=9 note=49 velocity=0 time=0
EXTRACT: note_on channel=9 note=54 velocity=17 time=0.0028937864583333333
EXTRACT: note_on channel=9 note=54 velocity=0 time=0.052088156249999996
EXTRACT: note_on channel=9 note=30 velocity=42 time=0.08681359375
EXTRACT: note_on channel=9 note=42 velocity=100 time=0
EXTRACT: note_on channel=9 note=54 velocity=53 time=0
EXTRACT: note_on channel=9 note=56 velocity=19 time=0
EXTRACT: note_on channel=9 note=80 velocity=127 time=0
EXTRACT: note_on channel=3 note=66 velocity=100 time=0
EXTRACT: note_on channel=9 note=54 velocity=0 time=0.0347254375
EXTRACT: note_on channel=0 note=30 velocity=0 time=0.0057875729166666666
EXTRACT: note_on channel=3 note=65 velocity=0 time=0.011575145833333333
EXTRACT: note_on channel=1 note=30 velocity=0 time=0.010128252604166667
EXTRACT: note_on channel=9 note=56 velocity=0 time=0.007234466145833333
EXTRACT: note_on channel=9 note=42 velocity=0 time=0.0057875729166666666
EXTRACT: note_on channel=3 note=66 velocity=0 time=0.05787572916666667
EXTRACT: note_on channel=9 note=30 velocity=0 time=0.0028937864583333333
EXTRACT: note_on channel=9 note=80 velocity=0 time=0
EXTRACT: note_on channel=9 note=54 velocity=29 time=0.0028937864583333333
EXTRACT: note_on channel=9 note=56 velocity=10 time=0
EXTRACT: note_on channel=9 note=54 velocity=0 time=0.07523844791666666
EXTRACT: note_on channel=9 note=56 velocity=0 time=0.060769515625
EXTRACT: note_on channel=9 note=29 velocity=39 time=0.0028937864583333333
EXTRACT: note_on channel=9 note=39 velocity=80 time=0
EXTRACT: note_on channel=9 note=40 velocity=121 time=0
EXTRACT: note_on channel=9 note=42 velocity=114 time=0
EXTRACT: note_on channel=9 note=54 velocity=60 time=0
EXTRACT: note_on channel=0 note=30 velocity=109 time=0
EXTRACT: note_on channel=3 note=65 velocity=115 time=0
EXTRACT: note_on channel=1 note=30 velocity=109 time=0.0217033984375
EXTRACT: note_on channel=9 note=54 velocity=0 time=0.0217033984375
EXTRACT: note_on channel=9 note=42 velocity=0 time=0.06366330208333333
EXTRACT: note_on channel=9 note=29 velocity=0 time=0.028937864583333334
EXTRACT: note_on channel=9 note=39 velocity=0 time=0
EXTRACT: note_on channel=9 note=40 velocity=0 time=0
EXTRACT: note_on channel=9 note=54 velocity=24 time=0.0028937864583333333
EXTRACT: note_on channel=3 note=65 velocity=0 time=0.028937864583333334
EXTRACT: note_on channel=9 note=54 velocity=0 time=0.043406796875
EXTRACT: note_on channel=0 note=30 velocity=0 time=0.060769515625
EXTRACT: note_on channel=9 note=30 velocity=42 time=0.0057875729166666666
EXTRACT: note_on channel=9 note=36 velocity=109 time=0
EXTRACT: note_on channel=9 note=42 velocity=90 time=0
EXTRACT: note_on channel=9 note=54 velocity=55 time=0
EXTRACT: note_on channel=9 note=56 velocity=19 time=0
EXTRACT: note_on channel=9 note=80 velocity=127 time=0
EXTRACT: note_on channel=0 note=29 velocity=101 time=0
EXTRACT: note_on channel=3 note=66 velocity=116 time=0
EXTRACT: note_on channel=1 note=30 velocity=0 time=0.015915825520833333
EXTRACT: note_on channel=1 note=29 velocity=101 time=0.0057875729166666666
EXTRACT: note_on channel=9 note=54 velocity=0 time=0.0217033984375
EXTRACT: note_on channel=9 note=56 velocity=0 time=0.028937864583333334
EXTRACT: note_on channel=9 note=42 velocity=0 time=0.0028937864583333333
EXTRACT: note_on channel=9 note=36 velocity=0 time=0.031831651041666666
EXTRACT: note_on channel=9 note=30 velocity=0 time=0.026044078124999998
EXTRACT: note_on channel=9 note=80 velocity=0 time=0.0028937864583333333
EXTRACT: note_on channel=9 note=29 velocity=28 time=0.0028937864583333333
EXTRACT: note_on channel=9 note=54 velocity=27 time=0
EXTRACT: note_on channel=9 note=56 velocity=10 time=0
EXTRACT: note_on channel=9 note=54 velocity=0 time=0.052088156249999996
EXTRACT: note_on channel=3 note=66 velocity=0 time=0
EXTRACT: note_on channel=2 note=73 velocity=0 time=0.07234466145833333
EXTRACT: note_on channel=8 note=61 velocity=0 time=0
EXTRACT: note_on channel=2 note=78 velocity=0 time=0.0057875729166666666
EXTRACT: note_on channel=8 note=66 velocity=0 time=0
EXTRACT: note_on channel=0 note=29 velocity=0 time=0.0028937864583333333
EXTRACT: note_on channel=6 note=66 velocity=0 time=0
EXTRACT: note_on channel=9 note=56 velocity=0 time=0.0028937864583333333
EXTRACT: note_on channel=9 note=29 velocity=0 time=0
EXTRACT: note_on channel=2 note=84 velocity=0 time=0
EXTRACT: note_on channel=8 note=72 velocity=0 time=0
EXTRACT: note_on channel=9 note=30 velocity=39 time=0.0028937864583333333
EXTRACT: note_on channel=9 note=36 velocity=109 time=0
EXTRACT: note_on channel=9 note=42 velocity=122 time=0
EXTRACT: note_on channel=9 note=54 velocity=61 time=0
EXTRACT: note_on channel=0 note=28 velocity=99 time=0
EXTRACT: note_on channel=2 note=73 velocity=38 time=0
EXTRACT: note_on channel=2 note=78 velocity=37 time=0
EXTRACT: note_on channel=2 note=82 velocity=36 time=0
EXTRACT: note_on channel=3 note=65 velocity=117 time=0
EXTRACT: note_on channel=6 note=75 velocity=0 time=0
EXTRACT: note_on channel=6 note=65 velocity=35 time=0
EXTRACT: note_on channel=6 note=70 velocity=35 time=0
EXTRACT: note_on channel=8 note=61 velocity=77 time=0
EXTRACT: note_on channel=8 note=66 velocity=76 time=0
EXTRACT: note_on channel=8 note=70 velocity=73 time=0
EXTRACT: note_on channel=1 note=29 velocity=0 time=0.015915825520833333
EXTRACT: note_on channel=1 note=28 velocity=99 time=0.0057875729166666666
EXTRACT: note_on channel=9 note=54 velocity=0 time=0.033278544270833335
EXTRACT: note_on channel=9 note=42 velocity=0 time=0.03761922395833333
EXTRACT: note_on channel=9 note=36 velocity=0 time=0.008681359375
EXTRACT: note_on channel=9 note=30 velocity=0 time=0.028937864583333334
EXTRACT: note_on channel=9 note=29 velocity=29 time=0.008681359375
EXTRACT: note_on channel=9 note=54 velocity=23 time=0
EXTRACT: note_on channel=9 note=54 velocity=0 time=0.03761922395833333
EXTRACT: note_on channel=3 note=65 velocity=0 time=0.08970738020833333
EXTRACT: note_on channel=0 note=28 velocity=0 time=0.0057875729166666666
EXTRACT: note_on channel=9 note=29 velocity=0 time=0.0028937864583333333
EXTRACT: note_on channel=9 note=30 velocity=38 time=0.0028937864583333333
EXTRACT: note_on channel=9 note=36 velocity=113 time=0
EXTRACT: note_on channel=9 note=42 velocity=100 time=0
EXTRACT: note_on channel=9 note=54 velocity=56 time=0
EXTRACT: note_on channel=9 note=56 velocity=19 time=0
EXTRACT: note_on channel=9 note=80 velocity=127 time=0
EXTRACT: note_on channel=0 note=27 velocity=105 time=0
EXTRACT: note_on channel=3 note=63 velocity=118 time=0
EXTRACT: note_on channel=1 note=28 velocity=0 time=0.015915825520833333
EXTRACT: note_on channel=1 note=27 velocity=105 time=0.0057875729166666666
EXTRACT: note_on channel=9 note=54 velocity=0 time=0.0303847578125
EXTRACT: note_on channel=9 note=56 velocity=0 time=0.01736271875
EXTRACT: note_on channel=9 note=42 velocity=0 time=0.0057875729166666666
EXTRACT: note_on channel=9 note=30 velocity=0 time=0.05787572916666667
EXTRACT: note_on channel=9 note=36 velocity=0 time=0.0028937864583333333
EXTRACT: note_on channel=9 note=80 velocity=0 time=0
EXTRACT: note_on channel=9 note=29 velocity=26 time=0.0028937864583333333
EXTRACT: note_on channel=9 note=54 velocity=40 time=0
EXTRACT: note_on channel=9 note=56 velocity=10 time=0
EXTRACT: note_on channel=3 note=63 velocity=0 time=0.052088156249999996
EXTRACT: note_on channel=9 note=54 velocity=0 time=0.008681359375
EXTRACT: note_on channel=0 note=27 velocity=0 time=0.07234466145833333
EXTRACT: note_on channel=9 note=56 velocity=0 time=0.0028937864583333333
EXTRACT: note_on channel=9 note=29 velocity=0 time=0
EXTRACT: note_on channel=9 note=30 velocity=31 time=0.0028937864583333333
EXTRACT: note_on channel=9 note=39 velocity=80 time=0
EXTRACT: note_on channel=9 note=40 velocity=121 time=0
EXTRACT: note_on channel=9 note=42 velocity=114 time=0
EXTRACT: note_on channel=9 note=54 velocity=57 time=0
EXTRACT: note_on channel=0 note=26 velocity=100 time=0
EXTRACT: note_on channel=3 note=61 velocity=115 time=0
EXTRACT: note_on channel=1 note=27 velocity=0 time=0.015915825520833333
EXTRACT: note_on channel=1 note=26 velocity=100 time=0.0057875729166666666
EXTRACT: note_on channel=9 note=54 velocity=0 time=0.033278544270833335
EXTRACT: note_on channel=9 note=42 velocity=0 time=0.052088156249999996
EXTRACT: note_on channel=9 note=30 velocity=0 time=0.028937864583333334
EXTRACT: note_on channel=9 note=39 velocity=0 time=0
EXTRACT: note_on channel=9 note=40 velocity=0 time=0
EXTRACT: note_on channel=9 note=54 velocity=20 time=0.0028937864583333333
EXTRACT: note_on channel=9 note=54 velocity=0 time=0.03761922395833333
EXTRACT: note_on channel=3 note=61 velocity=0 time=0.08391980729166666
EXTRACT: note_on channel=9 note=30 velocity=35 time=0.01736271875
EXTRACT: note_on channel=9 note=42 velocity=90 time=0
EXTRACT: note_on channel=9 note=54 velocity=50 time=0
EXTRACT: note_on channel=9 note=56 velocity=19 time=0
EXTRACT: note_on channel=9 note=80 velocity=127 time=0
EXTRACT: note_on channel=3 note=58 velocity=118 time=0
EXTRACT: note_on channel=0 note=26 velocity=0 time=0.028937864583333334
EXTRACT: note_on channel=9 note=54 velocity=0 time=0.011575145833333333
EXTRACT: note_on channel=1 note=26 velocity=0 time=0.010128252604166667
EXTRACT: note_on channel=9 note=56 velocity=0 time=0.0217033984375
EXTRACT: note_on channel=9 note=42 velocity=0 time=0.0028937864583333333
EXTRACT: note_on channel=9 note=30 velocity=0 time=0.05787572916666667
EXTRACT: note_on channel=9 note=80 velocity=0 time=0.0028937864583333333
EXTRACT: note_on channel=9 note=29 velocity=28 time=0.0028937864583333333
EXTRACT: note_on channel=9 note=54 velocity=24 time=0
EXTRACT: note_on channel=9 note=56 velocity=10 time=0
EXTRACT: note_on channel=3 note=58 velocity=0 time=0.0028937864583333333
EXTRACT: note_on channel=9 note=54 velocity=0 time=0.03761922395833333
EXTRACT: note_on channel=2 note=73 velocity=0 time=0.08391980729166666
EXTRACT: note_on channel=8 note=61 velocity=0 time=0
EXTRACT: note_on channel=2 note=78 velocity=0 time=0.0057875729166666666
EXTRACT: note_on channel=6 note=65 velocity=0 time=0
EXTRACT: note_on channel=8 note=66 velocity=0 time=0
EXTRACT: note_on channel=9 note=56 velocity=0 time=0.0057875729166666666
EXTRACT: note_on channel=9 note=29 velocity=0 time=0
EXTRACT: note_on channel=9 note=30 velocity=42 time=0.0028937864583333333
EXTRACT: note_on channel=9 note=36 velocity=116 time=0
EXTRACT: note_on channel=9 note=42 velocity=122 time=0
EXTRACT: note_on channel=9 note=49 velocity=74 time=0
EXTRACT: note_on channel=9 note=54 velocity=65 time=0
EXTRACT: note_on channel=0 note=30 velocity=110 time=0
EXTRACT: note_on channel=2 note=82 velocity=0 time=0
EXTRACT: note_on channel=2 note=75 velocity=37 time=0
EXTRACT: note_on channel=2 note=80 velocity=39 time=0
EXTRACT: note_on channel=2 note=85 velocity=35 time=0
EXTRACT: note_on channel=3 note=65 velocity=103 time=0
EXTRACT: note_on channel=6 note=70 velocity=0 time=0
EXTRACT: note_on channel=6 note=68 velocity=49 time=0
EXTRACT: note_on channel=6 note=73 velocity=35 time=0
EXTRACT: note_on channel=8 note=70 velocity=0 time=0
EXTRACT: note_on channel=8 note=63 velocity=76 time=0
EXTRACT: note_on channel=8 note=68 velocity=79 time=0
EXTRACT: note_on channel=8 note=73 velocity=72 time=0
EXTRACT: note_on channel=1 note=30 velocity=110 time=0.0217033984375
EXTRACT: note_on channel=9 note=54 velocity=0 time=0.0303847578125
EXTRACT: note_on channel=9 note=42 velocity=0 time=0.04051301041666667
EXTRACT: note_on channel=9 note=30 velocity=0 time=0.043406796875
EXTRACT: note_on channel=9 note=36 velocity=0 time=0
EXTRACT: note_on channel=9 note=49 velocity=0 time=0
EXTRACT: note_on channel=9 note=54 velocity=17 time=0.0028937864583333333
EXTRACT: note_on channel=9 note=54 velocity=0 time=0.052088156249999996
EXTRACT: note_on channel=3 note=65 velocity=0 time=0.05787572916666667
EXTRACT: note_on channel=0 note=30 velocity=0 time=0.014468932291666667
EXTRACT: note_on channel=9 note=30 velocity=42 time=0.014468932291666667
EXTRACT: note_on channel=9 note=42 velocity=100 time=0
EXTRACT: note_on channel=9 note=54 velocity=53 time=0
EXTRACT: note_on channel=9 note=56 velocity=19 time=0
EXTRACT: note_on channel=9 note=80 velocity=127 time=0
EXTRACT: note_on channel=3 note=66 velocity=119 time=0
EXTRACT: note_on channel=1 note=30 velocity=0 time=0.007234466145833333
EXTRACT: note_on channel=9 note=54 velocity=0 time=0.027490971354166668
EXTRACT: note_on channel=9 note=56 velocity=0 time=0.03761922395833333
EXTRACT: note_on channel=9 note=42 velocity=0 time=0.0028937864583333333
EXTRACT: note_on channel=9 note=30 velocity=0 time=0.060769515625
EXTRACT: note_on channel=9 note=80 velocity=0 time=0
EXTRACT: note_on channel=9 note=54 velocity=29 time=0.0028937864583333333
EXTRACT: note_on channel=9 note=56 velocity=10 time=0
EXTRACT: note_on channel=3 note=66 velocity=0 time=0.031831651041666666
EXTRACT: note_on channel=9 note=54 velocity=0 time=0.043406796875
EXTRACT: note_on channel=9 note=56 velocity=0 time=0.060769515625
EXTRACT: note_on channel=9 note=29 velocity=39 time=0.0028937864583333333
EXTRACT: note_on channel=9 note=39 velocity=80 time=0
EXTRACT: note_on channel=9 note=40 velocity=121 time=0
EXTRACT: note_on channel=9 note=42 velocity=114 time=0
EXTRACT: note_on channel=9 note=54 velocity=60 time=0
EXTRACT: note_on channel=0 note=30 velocity=105 time=0
EXTRACT: note_on channel=3 note=65 velocity=115 time=0
EXTRACT: note_on channel=1 note=30 velocity=105 time=0.0217033984375
EXTRACT: note_on channel=9 note=54 velocity=0 time=0.0217033984375
EXTRACT: note_on channel=9 note=42 velocity=0 time=0.06366330208333333
EXTRACT: note_on channel=9 note=29 velocity=0 time=0.028937864583333334
EXTRACT: note_on channel=9 note=39 velocity=0 time=0
EXTRACT: note_on channel=9 note=40 velocity=0 time=0
EXTRACT: note_on channel=9 note=54 velocity=24 time=0.0028937864583333333
EXTRACT: note_on channel=9 note=54 velocity=0 time=0.07234466145833333
EXTRACT: note_on channel=3 note=65 velocity=0 time=0.043406796875
EXTRACT: note_on channel=0 note=30 velocity=0 time=0.01736271875
EXTRACT: note_on channel=9 note=30 velocity=42 time=0.0057875729166666666
EXTRACT: note_on channel=9 note=36 velocity=111 time=0
EXTRACT: note_on channel=9 note=42 velocity=90 time=0
EXTRACT: note_on channel=9 note=54 velocity=55 time=0
EXTRACT: note_on channel=9 note=56 velocity=19 time=0
EXTRACT: note_on channel=9 note=80 velocity=127 time=0
EXTRACT: note_on channel=0 note=31 velocity=108 time=0
EXTRACT: note_on channel=3 note=63 velocity=121 time=0
EXTRACT: note_on channel=1 note=30 velocity=0 time=0.015915825520833333
EXTRACT: note_on channel=1 note=31 velocity=108 time=0.0057875729166666666
EXTRACT: note_on channel=9 note=54 velocity=0 time=0.0217033984375
EXTRACT: note_on channel=9 note=56 velocity=0 time=0.028937864583333334
EXTRACT: note_on channel=9 note=42 velocity=0 time=0.0028937864583333333
EXTRACT: note_on channel=9 note=36 velocity=0 time=0.020256505208333334
EXTRACT: note_on channel=9 note=30 velocity=0 time=0.03761922395833333
EXTRACT: note_on channel=9 note=80 velocity=0 time=0.0028937864583333333
EXTRACT: note_on channel=9 note=29 velocity=28 time=0.0028937864583333333
EXTRACT: note_on channel=9 note=54 velocity=27 time=0
EXTRACT: note_on channel=9 note=56 velocity=10 time=0
EXTRACT: note_on channel=9 note=54 velocity=0 time=0.052088156249999996
EXTRACT: note_on channel=2 note=75 velocity=0 time=0.069450875
EXTRACT: note_on channel=8 note=63 velocity=0 time=0.0028937864583333333
EXTRACT: note_on channel=2 note=80 velocity=0 time=0.0057875729166666666
EXTRACT: note_on channel=8 note=68 velocity=0 time=0
EXTRACT: note_on channel=0 note=31 velocity=0 time=0.0028937864583333333
EXTRACT: note_on channel=6 note=68 velocity=0 time=0
EXTRACT: note_on channel=9 note=56 velocity=0 time=0.0028937864583333333
EXTRACT: note_on channel=9 note=29 velocity=0 time=0
EXTRACT: note_on channel=2 note=85 velocity=0 time=0
EXTRACT: note_on channel=3 note=63 velocity=0 time=0
EXTRACT: note_on channel=9 note=30 velocity=39 time=0.0028937864583333333
EXTRACT: note_on channel=9 note=36 velocity=112 time=0
EXTRACT: note_on channel=9 note=42 velocity=122 time=0
EXTRACT: note_on channel=9 note=54 velocity=61 time=0
EXTRACT: note_on channel=0 note=32 velocity=99 time=0
EXTRACT: note_on channel=2 note=75 velocity=38 time=0
EXTRACT: note_on channel=2 note=80 velocity=37 time=0
EXTRACT: note_on channel=2 note=84 velocity=36 time=0
EXTRACT: note_on channel=3 note=61 velocity=122 time=0
EXTRACT: note_on channel=6 note=73 velocity=0 time=0
EXTRACT: note_on channel=6 note=68 velocity=49 time=0
EXTRACT: note_on channel=6 note=72 velocity=35 time=0
EXTRACT: note_on channel=8 note=73 velocity=0 time=0
EXTRACT: note_on channel=8 note=63 velocity=77 time=0
EXTRACT: note_on channel=8 note=68 velocity=76 time=0
EXTRACT: note_on channel=8 note=72 velocity=73 time=0
EXTRACT: note_on channel=1 note=31 velocity=0 time=0.015915825520833333
EXTRACT: note_on channel=1 note=32 velocity=99 time=0.0057875729166666666
EXTRACT: note_on channel=9 note=54 velocity=0 time=0.033278544270833335
EXTRACT: note_on channel=9 note=42 velocity=0 time=0.0347254375
EXTRACT: note_on channel=9 note=30 velocity=0 time=0.04051301041666667
EXTRACT: note_on channel=9 note=36 velocity=0 time=0.0057875729166666666
EXTRACT: note_on channel=9 note=29 velocity=29 time=0.0028937864583333333
EXTRACT: note_on channel=9 note=54 velocity=23 time=0
EXTRACT: note_on channel=10 note=65 velocity=127 time=0
EXTRACT: note_on channel=3 note=61 velocity=0 time=0.028937864583333334
EXTRACT: note_on channel=9 note=54 velocity=0 time=0.008681359375
EXTRACT: note_on channel=0 note=32 velocity=0 time=0.06655708854166667
EXTRACT: note_on channel=1 note=32 velocity=0 time=0.0217033984375
EXTRACT: note_on channel=9 note=29 velocity=0 time=0.010128252604166667
EXTRACT: note_on channel=9 note=30 velocity=38 time=0.0028937864583333333
EXTRACT: note_on channel=9 note=42 velocity=100 time=0
EXTRACT: note_on channel=9 note=54 velocity=56 time=0
EXTRACT: note_on channel=9 note=56 velocity=19 time=0
EXTRACT: note_on channel=9 note=80 velocity=127 time=0
EXTRACT: note_on channel=9 note=54 velocity=0 time=0.052088156249999996
EXTRACT: note_on channel=9 note=56 velocity=0 time=0.020256505208333334
EXTRACT: note_on channel=9 note=42 velocity=0 time=0.0028937864583333333
EXTRACT: note_on channel=2 note=75 velocity=0 time=0.04630058333333333
EXTRACT: note_on channel=2 note=80 velocity=0 time=0.0028937864583333333
EXTRACT: note_on channel=8 note=63 velocity=0 time=0
EXTRACT: note_on channel=8 note=68 velocity=0 time=0.0028937864583333333
EXTRACT: note_on channel=2 note=84 velocity=0 time=0.0028937864583333333
EXTRACT: note_on channel=6 note=68 velocity=0 time=0
EXTRACT: note_on channel=8 note=72 velocity=0 time=0
EXTRACT: note_on channel=9 note=30 velocity=0 time=0.0028937864583333333
EXTRACT: note_on channel=9 note=80 velocity=0 time=0.0028937864583333333
EXTRACT: note_on channel=6 note=72 velocity=0 time=0
EXTRACT: note_on channel=9 note=29 velocity=26 time=0.0028937864583333333
EXTRACT: note_on channel=9 note=54 velocity=40 time=0
EXTRACT: note_on channel=9 note=56 velocity=10 time=0
EXTRACT: note_on channel=9 note=54 velocity=0 time=0.060769515625
EXTRACT: note_on channel=9 note=29 velocity=0 time=0.07234466145833333
EXTRACT: note_on channel=9 note=56 velocity=0 time=0.0028937864583333333
EXTRACT: note_on channel=9 note=30 velocity=31 time=0.0028937864583333333
EXTRACT: note_on channel=9 note=39 velocity=80 time=0
EXTRACT: note_on channel=9 note=40 velocity=121 time=0
EXTRACT: note_on channel=9 note=54 velocity=57 time=0
EXTRACT: note_on channel=3 note=65 velocity=118 time=0
EXTRACT: note_on channel=3 note=77 velocity=111 time=0
EXTRACT: note_on channel=9 note=54 velocity=0 time=0.054981942708333335
EXTRACT: note_on channel=9 note=30 velocity=0 time=0.08102602083333334
EXTRACT: note_on channel=9 note=39 velocity=0 time=0
EXTRACT: note_on channel=9 note=40 velocity=0 time=0
EXTRACT: note_on channel=9 note=54 velocity=20 time=0.0028937864583333333
EXTRACT: note_on channel=3 note=77 velocity=0 time=0.0028937864583333333
EXTRACT: note_on channel=3 note=65 velocity=0 time=0.026044078124999998
EXTRACT: note_on channel=9 note=54 velocity=0 time=0.008681359375
EXTRACT: note_on channel=9 note=30 velocity=35 time=0.10128252604166667
EXTRACT: note_on channel=9 note=54 velocity=50 time=0
EXTRACT: note_on channel=9 note=56 velocity=19 time=0
EXTRACT: note_on channel=9 note=80 velocity=127 time=0
EXTRACT: note_on channel=3 note=63 velocity=106 time=0
EXTRACT: note_on channel=3 note=75 velocity=116 time=0
EXTRACT: note_on channel=9 note=54 velocity=0 time=0.04051301041666667
EXTRACT: note_on channel=9 note=56 velocity=0 time=0.031831651041666666
EXTRACT: note_on channel=3 note=75 velocity=0 time=0.023150291666666666
EXTRACT: note_on channel=3 note=63 velocity=0 time=0.026044078124999998
EXTRACT: note_on channel=9 note=30 velocity=0 time=0.011575145833333333
EXTRACT: note_on channel=9 note=80 velocity=0 time=0.0028937864583333333
EXTRACT: note_on channel=9 note=29 velocity=28 time=0.0028937864583333333
EXTRACT: note_on channel=9 note=54 velocity=24 time=0
EXTRACT: note_on channel=9 note=56 velocity=10 time=0
EXTRACT: note_on channel=9 note=54 velocity=0 time=0.04051301041666667
EXTRACT: note_on channel=9 note=56 velocity=0 time=0.095494953125
EXTRACT: note_on channel=9 note=29 velocity=0 time=0
EXTRACT: note_on channel=10 note=65 velocity=0 time=0
EXTRACT: note_on channel=9 note=36 velocity=114 time=0.0028937864583333333
EXTRACT: note_on channel=9 note=42 velocity=122 time=0
EXTRACT: note_on channel=9 note=49 velocity=83 time=0
EXTRACT: note_on channel=9 note=54 velocity=90 time=0
EXTRACT: note_on channel=0 note=34 velocity=126 time=0
EXTRACT: note_on channel=2 note=73 velocity=88 time=0
EXTRACT: note_on channel=2 note=77 velocity=85 time=0
EXTRACT: note_on channel=2 note=82 velocity=84 time=0
EXTRACT: note_on channel=3 note=63 velocity=120 time=0
EXTRACT: note_on channel=3 note=75 velocity=118 time=0
EXTRACT: note_on channel=5 note=34 velocity=123 time=0
EXTRACT: note_on channel=5 note=46 velocity=92 time=0
EXTRACT: note_on channel=8 note=65 velocity=88 time=0
EXTRACT: note_on channel=8 note=70 velocity=85 time=0
EXTRACT: note_on channel=8 note=73 velocity=84 time=0
EXTRACT: control_change channel=8 control=1 value=33 time=0.0057875729166666666
EXTRACT: note_on channel=1 note=34 velocity=126 time=0.015915825520833333
EXTRACT: note_on channel=9 note=54 velocity=0 time=0.027490971354166668
EXTRACT: note_on channel=9 note=42 velocity=0 time=0.04051301041666667
EXTRACT: note_on channel=9 note=49 velocity=0 time=0.04630058333333333
EXTRACT: note_on channel=9 note=36 velocity=0 time=0
EXTRACT: note_on channel=9 note=54 velocity=42 time=0.0028937864583333333
EXTRACT: note_on channel=9 note=54 velocity=0 time=0.052088156249999996
EXTRACT: note_on channel=9 note=42 velocity=100 time=0.08681359375
EXTRACT: note_on channel=9 note=54 velocity=78 time=0
EXTRACT: note_on channel=9 note=56 velocity=59 time=0
EXTRACT: note_on channel=9 note=80 velocity=127 time=0
EXTRACT: note_on channel=9 note=54 velocity=0 time=0.0347254375
EXTRACT: note_on channel=0 note=34 velocity=0 time=0.0057875729166666666
EXTRACT: note_on channel=1 note=34 velocity=0 time=0.0217033984375
EXTRACT: note_on channel=5 note=34 velocity=0 time=0.0043406796875
EXTRACT: note_on channel=5 note=46 velocity=0 time=0.0028937864583333333
EXTRACT: note_on channel=9 note=56 velocity=0 time=0.0028937864583333333
EXTRACT: note_on channel=9 note=42 velocity=0 time=0.0028937864583333333
EXTRACT: note_on channel=9 note=80 velocity=0 time=0.060769515625
EXTRACT: note_on channel=9 note=54 velocity=54 time=0.0028937864583333333
EXTRACT: note_on channel=9 note=56 velocity=23 time=0
EXTRACT: note_on channel=9 note=54 velocity=0 time=0.07523844791666666
EXTRACT: note_on channel=9 note=56 velocity=0 time=0.060769515625
EXTRACT: note_on channel=9 note=39 velocity=80 time=0.0028937864583333333
EXTRACT: note_on channel=9 note=40 velocity=121 time=0
EXTRACT: note_on channel=9 note=42 velocity=114 time=0
EXTRACT: note_on channel=9 note=54 velocity=85 time=0
EXTRACT: note_on channel=0 note=34 velocity=123 time=0
EXTRACT: note_on channel=5 note=34 velocity=124 time=0
EXTRACT: note_on channel=5 note=46 velocity=93 time=0
EXTRACT: note_on channel=1 note=34 velocity=123 time=0.0217033984375
EXTRACT: note_on channel=9 note=54 velocity=0 time=0.0217033984375
EXTRACT: note_on channel=9 note=42 velocity=0 time=0.06366330208333333
EXTRACT: note_on channel=9 note=40 velocity=0 time=0.028937864583333334
EXTRACT: note_on channel=9 note=39 velocity=0 time=0
EXTRACT: note_on channel=9 note=54 velocity=49 time=0.0028937864583333333
EXTRACT: note_on channel=9 note=54 velocity=0 time=0.07234466145833333
EXTRACT: note_on channel=3 note=63 velocity=0 time=0.054981942708333335
EXTRACT: note_on channel=0 note=34 velocity=0 time=0.0057875729166666666
EXTRACT: note_on channel=5 note=34 velocity=0 time=0
EXTRACT: note_on channel=3 note=75 velocity=0 time=0.0028937864583333333
EXTRACT: note_on channel=9 note=36 velocity=109 time=0.0028937864583333333
EXTRACT: note_on channel=9 note=42 velocity=90 time=0
EXTRACT: note_on channel=9 note=54 velocity=80 time=0
EXTRACT: note_on channel=9 note=56 velocity=59 time=0
EXTRACT: note_on channel=9 note=80 velocity=127 time=0
EXTRACT: note_on channel=0 note=33 velocity=115 time=0
EXTRACT: note_on channel=3 note=61 velocity=116 time=0
EXTRACT: note_on channel=3 note=73 velocity=118 time=0
EXTRACT: note_on channel=4 note=34 velocity=114 time=0
EXTRACT: note_on channel=4 note=46 velocity=121 time=0
EXTRACT: note_on channel=5 note=46 velocity=0 time=0
EXTRACT: note_on channel=5 note=33 velocity=105 time=0
EXTRACT: note_on channel=5 note=45 velocity=74 time=0
EXTRACT: note_on channel=1 note=34 velocity=0 time=0.015915825520833333
EXTRACT: note_on channel=1 note=33 velocity=115 time=0.0057875729166666666
EXTRACT: note_on channel=9 note=54 velocity=0 time=0.0217033984375
EXTRACT: note_on channel=9 note=56 velocity=0 time=0.028937864583333334
EXTRACT: note_on channel=9 note=42 velocity=0 time=0.0028937864583333333
EXTRACT: note_on channel=9 note=36 velocity=0 time=0.031831651041666666
EXTRACT: note_on channel=9 note=80 velocity=0 time=0.028937864583333334
EXTRACT: note_on channel=9 note=54 velocity=52 time=0.0028937864583333333
EXTRACT: note_on channel=9 note=56 velocity=23 time=0
EXTRACT: note_on channel=4 note=34 velocity=0 time=0.011575145833333333
EXTRACT: note_on channel=3 note=73 velocity=0 time=0.020256505208333334
EXTRACT: note_on channel=4 note=46 velocity=0 time=0.014468932291666667
EXTRACT: note_on channel=9 note=54 velocity=0 time=0.0057875729166666666
EXTRACT: note_on channel=0 note=33 velocity=0 time=0.08102602083333334
EXTRACT: note_on channel=5 note=33 velocity=0 time=0
EXTRACT: note_on channel=9 note=56 velocity=0 time=0.0028937864583333333
EXTRACT: note_on channel=9 note=36 velocity=109 time=0.0028937864583333333
EXTRACT: note_on channel=9 note=42 velocity=122 time=0
EXTRACT: note_on channel=9 note=54 velocity=86 time=0
EXTRACT: note_on channel=0 note=32 velocity=113 time=0
EXTRACT: note_on channel=5 note=45 velocity=0 time=0
EXTRACT: note_on channel=5 note=32 velocity=115 time=0
EXTRACT: note_on channel=5 note=44 velocity=84 time=0
EXTRACT: note_on channel=3 note=61 velocity=0 time=0.0057875729166666666
EXTRACT: note_on channel=1 note=33 velocity=0 time=0.010128252604166667
EXTRACT: note_on channel=1 note=32 velocity=113 time=0.0057875729166666666
EXTRACT: note_on channel=9 note=54 velocity=0 time=0.033278544270833335
EXTRACT: note_on channel=9 note=42 velocity=0 time=0.03761922395833333
EXTRACT: note_on channel=9 note=36 velocity=0 time=0.008681359375
EXTRACT: note_on channel=9 note=54 velocity=48 time=0.03761922395833333
EXTRACT: note_on channel=9 note=54 velocity=0 time=0.03761922395833333
EXTRACT: note_on channel=0 note=32 velocity=0 time=0.095494953125
EXTRACT: note_on channel=5 note=32 velocity=0 time=0
EXTRACT: note_on channel=9 note=36 velocity=113 time=0.0057875729166666666
EXTRACT: note_on channel=9 note=42 velocity=100 time=0
EXTRACT: note_on channel=9 note=54 velocity=81 time=0
EXTRACT: note_on channel=9 note=56 velocity=59 time=0
EXTRACT: note_on channel=9 note=80 velocity=127 time=0
EXTRACT: note_on channel=0 note=31 velocity=119 time=0
EXTRACT: note_on channel=4 note=34 velocity=118 time=0
EXTRACT: note_on channel=4 note=46 velocity=122 time=0
EXTRACT: note_on channel=5 note=44 velocity=0 time=0
EXTRACT: note_on channel=5 note=31 velocity=110 time=0
EXTRACT: note_on channel=5 note=43 velocity=79 time=0
EXTRACT: note_on channel=1 note=32 velocity=0 time=0.015915825520833333
EXTRACT: note_on channel=1 note=31 velocity=119 time=0.0057875729166666666
EXTRACT: note_on channel=9 note=54 velocity=0 time=0.0303847578125
EXTRACT: note_on channel=9 note=56 velocity=0 time=0.01736271875
EXTRACT: note_on channel=9 note=42 velocity=0 time=0.0057875729166666666
EXTRACT: note_on channel=9 note=36 velocity=0 time=0.060769515625
EXTRACT: note_on channel=9 note=80 velocity=0 time=0
EXTRACT: note_on channel=9 note=54 velocity=65 time=0.0028937864583333333
EXTRACT: note_on channel=9 note=56 velocity=23 time=0
EXTRACT: note_on channel=4 note=34 velocity=0 time=0.04051301041666667
EXTRACT: note_on channel=4 note=46 velocity=0 time=0.0057875729166666666
EXTRACT: note_on channel=9 note=54 velocity=0 time=0.014468932291666667
EXTRACT: note_on channel=0 note=31 velocity=0 time=0.07234466145833333
EXTRACT: note_on channel=5 note=31 velocity=0 time=0
EXTRACT: note_on channel=9 note=56 velocity=0 time=0.0028937864583333333
EXTRACT: note_on channel=9 note=39 velocity=80 time=0.0028937864583333333
EXTRACT: note_on channel=9 note=40 velocity=121 time=0
EXTRACT: note_on channel=9 note=42 velocity=114 time=0
EXTRACT: note_on channel=9 note=54 velocity=82 time=0
EXTRACT: note_on channel=0 note=30 velocity=114 time=0
EXTRACT: note_on channel=4 note=34 velocity=115 time=0
EXTRACT: note_on channel=4 note=46 velocity=121 time=0
EXTRACT: note_on channel=5 note=43 velocity=0 time=0
EXTRACT: note_on channel=5 note=30 velocity=108 time=0
EXTRACT: note_on channel=5 note=42 velocity=77 time=0
EXTRACT: note_on channel=1 note=31 velocity=0 time=0.015915825520833333
EXTRACT: note_on channel=1 note=30 velocity=114 time=0.0057875729166666666
EXTRACT: note_on channel=9 note=54 velocity=0 time=0.033278544270833335
EXTRACT: note_on channel=9 note=42 velocity=0 time=0.052088156249999996
EXTRACT: note_on channel=9 note=40 velocity=0 time=0.028937864583333334
EXTRACT: note_on channel=9 note=39 velocity=0 time=0
EXTRACT: note_on channel=9 note=54 velocity=45 time=0.0028937864583333333
EXTRACT: note_on channel=9 note=54 velocity=0 time=0.03761922395833333
EXTRACT: note_on channel=4 note=34 velocity=0 time=0.011575145833333333
EXTRACT: note_on channel=4 note=46 velocity=0 time=0.008681359375
EXTRACT: note_on channel=5 note=30 velocity=0 time=0.03761922395833333
EXTRACT: note_on channel=5 note=42 velocity=0 time=0.0028937864583333333
EXTRACT: note_on channel=9 note=42 velocity=90 time=0.04051301041666667
EXTRACT: note_on channel=9 note=54 velocity=75 time=0
EXTRACT: note_on channel=9 note=56 velocity=59 time=0
EXTRACT: note_on channel=9 note=80 velocity=127 time=0
EXTRACT: note_on channel=4 note=34 velocity=110 time=0
EXTRACT: note_on channel=4 note=46 velocity=110 time=0
EXTRACT: note_on channel=0 note=30 velocity=0 time=0.028937864583333334
EXTRACT: note_on channel=9 note=54 velocity=0 time=0.011575145833333333
EXTRACT: note_on channel=1 note=30 velocity=0 time=0.010128252604166667
EXTRACT: note_on channel=9 note=56 velocity=0 time=0.018809611979166665
EXTRACT: note_on channel=9 note=42 velocity=0 time=0.0057875729166666666
EXTRACT: note_on channel=9 note=80 velocity=0 time=0.060769515625
EXTRACT: note_on channel=9 note=54 velocity=49 time=0.0028937864583333333
EXTRACT: note_on channel=9 note=56 velocity=23 time=0
EXTRACT: note_on channel=9 note=54 velocity=0 time=0.04051301041666667
EXTRACT: note_on channel=4 note=34 velocity=0 time=0.054981942708333335
EXTRACT: note_on channel=4 note=46 velocity=0 time=0.011575145833333333
EXTRACT: note_on channel=8 note=65 velocity=0 time=0.020256505208333334
EXTRACT: note_on channel=2 note=73 velocity=0 time=0.0028937864583333333
EXTRACT: note_on channel=9 note=56 velocity=0 time=0.0057875729166666666
EXTRACT: note_on channel=8 note=70 velocity=0 time=0
EXTRACT: note_on channel=9 note=36 velocity=116 time=0.0028937864583333333
EXTRACT: note_on channel=9 note=42 velocity=122 time=0
EXTRACT: note_on channel=9 note=54 velocity=90 time=0
EXTRACT: note_on channel=9 note=57 velocity=60 time=0
EXTRACT: note_on channel=0 note=30 velocity=124 time=0
EXTRACT: note_on channel=2 note=82 velocity=0 time=0
EXTRACT: note_on channel=2 note=77 velocity=0 time=0
EXTRACT: note_on channel=2 note=73 velocity=86 time=0
EXTRACT: note_on channel=2 note=78 velocity=89 time=0
EXTRACT: note_on channel=2 note=82 velocity=82 time=0
EXTRACT: note_on channel=3 note=61 velocity=116 time=0
EXTRACT: note_on channel=3 note=70 velocity=117 time=0
EXTRACT: note_on channel=5 note=30 velocity=124 time=0
EXTRACT: note_on channel=5 note=42 velocity=93 time=0
EXTRACT: note_on channel=8 note=73 velocity=0 time=0
EXTRACT: note_on channel=8 note=66 velocity=81 time=0
EXTRACT: note_on channel=8 note=70 velocity=84 time=0
EXTRACT: note_on channel=8 note=73 velocity=77 time=0
EXTRACT: note_on channel=1 note=30 velocity=124 time=0.0217033984375
EXTRACT: note_on channel=9 note=54 velocity=0 time=0.027490971354166668
EXTRACT: note_on channel=9 note=42 velocity=0 time=0.043406796875
EXTRACT: note_on channel=9 note=36 velocity=0 time=0.043406796875
EXTRACT: note_on channel=9 note=57 velocity=0 time=0
EXTRACT: note_on channel=9 note=54 velocity=42 time=0.0028937864583333333
EXTRACT: note_on channel=9 note=54 velocity=0 time=0.052088156249999996
EXTRACT: note_on channel=0 note=30 velocity=0 time=0.07234466145833333
EXTRACT: note_on channel=9 note=42 velocity=100 time=0.014468932291666667
EXTRACT: note_on channel=9 note=54 velocity=78 time=0
EXTRACT: note_on channel=9 note=56 velocity=59 time=0
EXTRACT: note_on channel=9 note=80 velocity=127 time=0
EXTRACT: note_on channel=1 note=30 velocity=0 time=0.007234466145833333
EXTRACT: note_on channel=9 note=54 velocity=0 time=0.027490971354166668
EXTRACT: note_on channel=5 note=30 velocity=0 time=0.014468932291666667
EXTRACT: note_on channel=5 note=42 velocity=0 time=0.0028937864583333333
EXTRACT: note_on channel=9 note=56 velocity=0 time=0.020256505208333334
EXTRACT: note_on channel=9 note=42 velocity=0 time=0.0028937864583333333
EXTRACT: note_on channel=9 note=80 velocity=0 time=0.060769515625
EXTRACT: note_on channel=9 note=54 velocity=54 time=0.0028937864583333333
EXTRACT: note_on channel=9 note=56 velocity=23 time=0
EXTRACT: note_on channel=9 note=54 velocity=0 time=0.07523844791666666
EXTRACT: note_on channel=9 note=56 velocity=0 time=0.060769515625
EXTRACT: note_on channel=9 note=39 velocity=80 time=0.0028937864583333333
EXTRACT: note_on channel=9 note=40 velocity=121 time=0
EXTRACT: note_on channel=9 note=42 velocity=114 time=0
EXTRACT: note_on channel=9 note=54 velocity=85 time=0
EXTRACT: note_on channel=0 note=30 velocity=119 time=0
EXTRACT: note_on channel=5 note=30 velocity=121 time=0
EXTRACT: note_on channel=5 note=42 velocity=90 time=0
EXTRACT: note_on channel=1 note=30 velocity=119 time=0.0217033984375
EXTRACT: note_on channel=9 note=54 velocity=0 time=0.0217033984375
EXTRACT: note_on channel=9 note=42 velocity=0 time=0.06366330208333333
EXTRACT: note_on channel=9 note=40 velocity=0 time=0.028937864583333334
EXTRACT: note_on channel=9 note=39 velocity=0 time=0
EXTRACT: note_on channel=9 note=54 velocity=49 time=0.0028937864583333333
EXTRACT: note_on channel=9 note=54 velocity=0 time=0.07234466145833333
EXTRACT: note_on channel=3 note=61 velocity=0 time=0.020256505208333334
EXTRACT: note_on channel=3 note=70 velocity=0 time=0.01736271875
EXTRACT: note_on channel=5 note=30 velocity=0 time=0.0028937864583333333
EXTRACT: note_on channel=5 note=42 velocity=0 time=0.0028937864583333333
EXTRACT: note_on channel=0 note=30 velocity=0 time=0.01736271875
EXTRACT: note_on channel=9 note=36 velocity=111 time=0.0057875729166666666
EXTRACT: note_on channel=9 note=42 velocity=90 time=0
EXTRACT: note_on channel=9 note=54 velocity=80 time=0
EXTRACT: note_on channel=9 note=56 velocity=59 time=0
EXTRACT: note_on channel=9 note=80 velocity=127 time=0
EXTRACT: note_on channel=0 note=32 velocity=122 time=0
EXTRACT: note_on channel=3 note=60 velocity=115 time=0
EXTRACT: note_on channel=3 note=69 velocity=112 time=0
EXTRACT: note_on channel=4 note=34 velocity=114 time=0
EXTRACT: note_on channel=4 note=46 velocity=121 time=0
EXTRACT: note_on channel=5 note=32 velocity=107 time=0
EXTRACT: note_on channel=5 note=44 velocity=76 time=0
EXTRACT: note_on channel=1 note=30 velocity=0 time=0.015915825520833333
EXTRACT: note_on channel=1 note=32 velocity=122 time=0.0057875729166666666
EXTRACT: note_on channel=9 note=54 velocity=0 time=0.0217033984375
EXTRACT: note_on channel=9 note=56 velocity=0 time=0.026044078124999998
EXTRACT: note_on channel=9 note=42 velocity=0 time=0.0057875729166666666
EXTRACT: note_on channel=9 note=36 velocity=0 time=0.020256505208333334
EXTRACT: note_on channel=3 note=60 velocity=0 time=0.011575145833333333
EXTRACT: note_on channel=9 note=80 velocity=0 time=0.028937864583333334
EXTRACT: note_on channel=9 note=54 velocity=52 time=0.0028937864583333333
EXTRACT: note_on channel=9 note=56 velocity=23 time=0
EXTRACT: note_on channel=3 note=69 velocity=0 time=0.008681359375
EXTRACT: note_on channel=4 note=34 velocity=0 time=0.0057875729166666666
EXTRACT: note_on channel=4 note=46 velocity=0 time=0.031831651041666666
EXTRACT: note_on channel=9 note=54 velocity=0 time=0.0057875729166666666
EXTRACT: note_on channel=2 note=73 velocity=0 time=0.07523844791666666
EXTRACT: note_on channel=8 note=66 velocity=0 time=0
EXTRACT: note_on channel=0 note=32 velocity=0 time=0.0057875729166666666
EXTRACT: note_on channel=5 note=32 velocity=0 time=0
EXTRACT: note_on channel=8 note=70 velocity=0 time=0
EXTRACT: note_on channel=9 note=56 velocity=0 time=0.0028937864583333333
EXTRACT: note_on channel=2 note=78 velocity=0 time=0
EXTRACT: note_on channel=9 note=36 velocity=112 time=0.0028937864583333333
EXTRACT: note_on channel=9 note=42 velocity=122 time=0
EXTRACT: note_on channel=9 note=54 velocity=86 time=0
EXTRACT: note_on channel=9 note=57 velocity=79 time=0
EXTRACT: note_on channel=0 note=29 velocity=113 time=0
EXTRACT: note_on channel=2 note=82 velocity=0 time=0
EXTRACT: note_on channel=2 note=72 velocity=87 time=0
EXTRACT: note_on channel=2 note=77 velocity=86 time=0
EXTRACT: note_on channel=2 note=81 velocity=83 time=0
EXTRACT: note_on channel=5 note=44 velocity=0 time=0
EXTRACT: note_on channel=5 note=29 velocity=102 time=0
EXTRACT: note_on channel=5 note=41 velocity=71 time=0
EXTRACT: note_on channel=8 note=73 velocity=0 time=0
EXTRACT: note_on channel=8 note=65 velocity=82 time=0
EXTRACT: note_on channel=8 note=69 velocity=81 time=0
EXTRACT: note_on channel=8 note=72 velocity=78 time=0
EXTRACT: note_on channel=1 note=32 velocity=0 time=0.015915825520833333
EXTRACT: note_on channel=1 note=29 velocity=113 time=0.0057875729166666666
EXTRACT: note_on channel=9 note=54 velocity=0 time=0.033278544270833335
EXTRACT: note_on channel=9 note=42 velocity=0 time=0.03761922395833333
EXTRACT: note_on channel=9 note=36 velocity=0 time=0.043406796875
EXTRACT: note_on channel=9 note=57 velocity=0 time=0
EXTRACT: note_on channel=9 note=54 velocity=48 time=0.0028937864583333333
EXTRACT: note_on channel=9 note=54 velocity=0 time=0.03761922395833333
EXTRACT: note_on channel=5 note=41 velocity=0 time=0.08970738020833333
EXTRACT: note_on channel=5 note=29 velocity=0 time=0
EXTRACT: note_on channel=9 note=42 velocity=100 time=0.011575145833333333
EXTRACT: note_on channel=9 note=54 velocity=81 time=0
EXTRACT: note_on channel=9 note=56 velocity=59 time=0
EXTRACT: note_on channel=9 note=80 velocity=127 time=0
EXTRACT: note_on channel=4 note=34 velocity=118 time=0
EXTRACT: note_on channel=4 note=46 velocity=122 time=0
EXTRACT: note_on channel=9 note=54 velocity=0 time=0.052088156249999996
EXTRACT: note_on channel=9 note=56 velocity=0 time=0.020256505208333334
EXTRACT: note_on channel=9 note=42 velocity=0 time=0.0028937864583333333
EXTRACT: note_on channel=0 note=29 velocity=0 time=0.028937864583333334
EXTRACT: note_on channel=1 note=29 velocity=0 time=0.0217033984375
EXTRACT: note_on channel=9 note=80 velocity=0 time=0.010128252604166667
EXTRACT: note_on channel=9 note=54 velocity=65 time=0.0028937864583333333
EXTRACT: note_on channel=9 note=56 velocity=23 time=0
EXTRACT: note_on channel=4 note=34 velocity=0 time=0.043406796875
EXTRACT: note_on channel=4 note=46 velocity=0 time=0.0057875729166666666
EXTRACT: note_on channel=9 note=54 velocity=0 time=0.011575145833333333
EXTRACT: note_on channel=9 note=56 velocity=0 time=0.07523844791666666
EXTRACT: note_on channel=9 note=39 velocity=80 time=0.0028937864583333333
EXTRACT: note_on channel=9 note=40 velocity=121 time=0
EXTRACT: note_on channel=9 note=42 velocity=114 time=0
EXTRACT: note_on channel=9 note=54 velocity=82 time=0
EXTRACT: note_on channel=3 note=65 velocity=118 time=0
EXTRACT: note_on channel=3 note=77 velocity=113 time=0
EXTRACT: note_on channel=4 note=34 velocity=115 time=0
EXTRACT: note_on channel=4 note=46 velocity=121 time=0
EXTRACT: note_on channel=9 note=54 velocity=0 time=0.052088156249999996
EXTRACT: note_on channel=9 note=42 velocity=0 time=0.054981942708333335
EXTRACT: note_on channel=9 note=40 velocity=0 time=0.028937864583333334
EXTRACT: note_on channel=9 note=39 velocity=0 time=0
EXTRACT: note_on channel=9 note=54 velocity=45 time=0.0028937864583333333
EXTRACT: note_on channel=9 note=54 velocity=0 time=0.03761922395833333
EXTRACT: note_on channel=4 note=34 velocity=0 time=0.011575145833333333
EXTRACT: note_on channel=3 note=77 velocity=0 time=0.011575145833333333
EXTRACT: note_on channel=4 note=46 velocity=0 time=0
EXTRACT: note_on channel=3 note=65 velocity=0 time=0.07234466145833333
EXTRACT: note_on channel=9 note=42 velocity=90 time=0.0057875729166666666
EXTRACT: note_on channel=9 note=54 velocity=75 time=0
EXTRACT: note_on channel=9 note=56 velocity=59 time=0
EXTRACT: note_on channel=9 note=80 velocity=127 time=0
EXTRACT: note_on channel=3 note=63 velocity=117 time=0
EXTRACT: note_on channel=3 note=75 velocity=116 time=0
EXTRACT: note_on channel=4 note=34 velocity=110 time=0
EXTRACT: note_on channel=4 note=46 velocity=110 time=0
EXTRACT: note_on channel=9 note=54 velocity=0 time=0.04051301041666667
EXTRACT: note_on channel=9 note=56 velocity=0 time=0.031831651041666666
EXTRACT: note_on channel=9 note=42 velocity=0 time=0.0028937864583333333
EXTRACT: note_on channel=3 note=75 velocity=0 time=0.0057875729166666666
EXTRACT: note_on channel=3 note=63 velocity=0 time=0.011575145833333333
EXTRACT: note_on channel=9 note=80 velocity=0 time=0.043406796875
EXTRACT: note_on channel=9 note=54 velocity=49 time=0.0028937864583333333
EXTRACT: note_on channel=9 note=56 velocity=23 time=0
EXTRACT: note_on channel=9 note=54 velocity=0 time=0.04051301041666667
EXTRACT: note_on channel=4 note=34 velocity=0 time=0.054981942708333335
EXTRACT: note_on channel=4 note=46 velocity=0 time=0.011575145833333333
EXTRACT: note_on channel=8 note=65 velocity=0 time=0.01736271875
EXTRACT: note_on channel=2 note=72 velocity=0 time=0.0028937864583333333
EXTRACT: note_on channel=8 note=69 velocity=0 time=0.0057875729166666666
EXTRACT: note_on channel=9 note=56 velocity=0 time=0.0028937864583333333
EXTRACT: note_on channel=2 note=77 velocity=0 time=0
EXTRACT: note_on channel=9 note=36 velocity=114 time=0.0028937864583333333
EXTRACT: note_on channel=9 note=42 velocity=122 time=0
EXTRACT: note_on channel=9 note=49 velocity=83 time=0
EXTRACT: note_on channel=9 note=54 velocity=90 time=0
EXTRACT: note_on channel=0 note=34 velocity=126 time=0
EXTRACT: note_on channel=2 note=81 velocity=0 time=0
EXTRACT: note_on channel=2 note=73 velocity=88 time=0
EXTRACT: note_on channel=2 note=77 velocity=85 time=0
EXTRACT: note_on channel=2 note=82 velocity=84 time=0
EXTRACT: note_on channel=3 note=63 velocity=117 time=0
EXTRACT: note_on channel=3 note=75 velocity=118 time=0
EXTRACT: note_on channel=5 note=34 velocity=123 time=0
EXTRACT: note_on channel=5 note=46 velocity=92 time=0
EXTRACT: note_on channel=8 note=72 velocity=0 time=0
EXTRACT: note_on channel=8 note=65 velocity=88 time=0
EXTRACT: note_on channel=8 note=70 velocity=85 time=0
EXTRACT: note_on channel=8 note=73 velocity=84 time=0
EXTRACT: note_on channel=1 note=34 velocity=126 time=0.0217033984375
EXTRACT: note_on channel=9 note=54 velocity=0 time=0.027490971354166668
EXTRACT: note_on channel=9 note=42 velocity=0 time=0.043406796875
EXTRACT: note_on channel=9 note=49 velocity=0 time=0.043406796875
EXTRACT: note_on channel=9 note=36 velocity=0 time=0
EXTRACT: note_on channel=9 note=54 velocity=42 time=0.0028937864583333333
EXTRACT: note_on channel=9 note=54 velocity=0 time=0.052088156249999996
EXTRACT: note_on channel=9 note=42 velocity=100 time=0.08681359375
EXTRACT: note_on channel=9 note=54 velocity=78 time=0
EXTRACT: note_on channel=9 note=56 velocity=59 time=0
EXTRACT: note_on channel=9 note=80 velocity=127 time=0
EXTRACT: note_on channel=9 note=54 velocity=0 time=0.0347254375
EXTRACT: note_on channel=0 note=34 velocity=0 time=0.0057875729166666666
EXTRACT: note_on channel=1 note=34 velocity=0 time=0.0217033984375
EXTRACT: note_on channel=5 note=46 velocity=0 time=0.007234466145833333
EXTRACT: note_on channel=5 note=34 velocity=0 time=0
EXTRACT: note_on channel=9 note=56 velocity=0 time=0.0028937864583333333
EXTRACT: note_on channel=9 note=42 velocity=0 time=0.0028937864583333333
EXTRACT: note_on channel=9 note=80 velocity=0 time=0.060769515625
EXTRACT: note_on channel=9 note=54 velocity=54 time=0.0028937864583333333
EXTRACT: note_on channel=9 note=56 velocity=23 time=0
EXTRACT: note_on channel=9 note=54 velocity=0 time=0.07523844791666666
EXTRACT: note_on channel=9 note=56 velocity=0 time=0.060769515625
EXTRACT: note_on channel=9 note=39 velocity=80 time=0.0028937864583333333
EXTRACT: note_on channel=9 note=40 velocity=121 time=0
EXTRACT: note_on channel=9 note=42 velocity=114 time=0
EXTRACT: note_on channel=9 note=54 velocity=85 time=0
EXTRACT: note_on channel=0 note=34 velocity=123 time=0
EXTRACT: note_on channel=5 note=34 velocity=124 time=0
EXTRACT: note_on channel=5 note=46 velocity=93 time=0
EXTRACT: note_on channel=1 note=34 velocity=123 time=0.0217033984375
EXTRACT: note_on channel=9 note=54 velocity=0 time=0.0217033984375
EXTRACT: note_on channel=9 note=42 velocity=0 time=0.06366330208333333
EXTRACT: note_on channel=9 note=40 velocity=0 time=0.028937864583333334
EXTRACT: note_on channel=9 note=39 velocity=0 time=0
EXTRACT: note_on channel=9 note=54 velocity=49 time=0.0028937864583333333
EXTRACT: note_on channel=9 note=54 velocity=0 time=0.07234466145833333
EXTRACT: note_on channel=3 note=63 velocity=0 time=0.043406796875
EXTRACT: note_on channel=3 note=75 velocity=0 time=0.0057875729166666666
EXTRACT: note_on channel=0 note=34 velocity=0 time=0.011575145833333333
EXTRACT: note_on channel=5 note=34 velocity=0 time=0
EXTRACT: note_on channel=9 note=36 velocity=109 time=0.0057875729166666666
EXTRACT: note_on channel=9 note=42 velocity=90 time=0
EXTRACT: note_on channel=9 note=54 velocity=80 time=0
EXTRACT: note_on channel=9 note=56 velocity=59 time=0
EXTRACT: note_on channel=9 note=80 velocity=127 time=0
EXTRACT: note_on channel=0 note=33 velocity=115 time=0
EXTRACT: note_on channel=3 note=61 velocity=112 time=0
EXTRACT: note_on channel=3 note=73 velocity=117 time=0
EXTRACT: note_on channel=4 note=34 velocity=114 time=0
EXTRACT: note_on channel=4 note=46 velocity=121 time=0
EXTRACT: note_on channel=5 note=46 velocity=0 time=0
EXTRACT: note_on channel=5 note=33 velocity=105 time=0
EXTRACT: note_on channel=5 note=45 velocity=74 time=0
EXTRACT: note_on channel=1 note=34 velocity=0 time=0.015915825520833333
EXTRACT: note_on channel=1 note=33 velocity=115 time=0.0057875729166666666
EXTRACT: note_on channel=9 note=54 velocity=0 time=0.0217033984375
EXTRACT: note_on channel=9 note=56 velocity=0 time=0.026044078124999998
EXTRACT: note_on channel=9 note=42 velocity=0 time=0.0057875729166666666
EXTRACT: note_on channel=9 note=36 velocity=0 time=0.031831651041666666
EXTRACT: note_on channel=9 note=80 velocity=0 time=0.028937864583333334
EXTRACT: note_on channel=9 note=54 velocity=52 time=0.0028937864583333333
EXTRACT: note_on channel=9 note=56 velocity=23 time=0
EXTRACT: note_on channel=4 note=34 velocity=0 time=0.011575145833333333
EXTRACT: note_on channel=4 note=46 velocity=0 time=0.0347254375
EXTRACT: note_on channel=9 note=54 velocity=0 time=0.0057875729166666666
EXTRACT: note_on channel=3 note=73 velocity=0 time=0.07523844791666666
EXTRACT: note_on channel=0 note=33 velocity=0 time=0.0057875729166666666
EXTRACT: note_on channel=5 note=33 velocity=0 time=0
EXTRACT: note_on channel=9 note=56 velocity=0 time=0.0028937864583333333
EXTRACT: note_on channel=9 note=36 velocity=109 time=0.0028937864583333333
EXTRACT: note_on channel=9 note=42 velocity=122 time=0
EXTRACT: note_on channel=9 note=54 velocity=86 time=0
EXTRACT: note_on channel=0 note=32 velocity=113 time=0
EXTRACT: note_on channel=5 note=45 velocity=0 time=0
EXTRACT: note_on channel=5 note=32 velocity=115 time=0
EXTRACT: note_on channel=5 note=44 velocity=84 time=0
EXTRACT: note_on channel=1 note=33 velocity=0 time=0.015915825520833333
EXTRACT: note_on channel=1 note=32 velocity=113 time=0.0057875729166666666
EXTRACT: note_on channel=3 note=61 velocity=0 time=0.007234466145833333
EXTRACT: note_on channel=9 note=54 velocity=0 time=0.026044078124999998
EXTRACT: note_on channel=9 note=42 velocity=0 time=0.03761922395833333
EXTRACT: note_on channel=9 note=36 velocity=0 time=0.008681359375
EXTRACT: note_on channel=9 note=54 velocity=48 time=0.03761922395833333
EXTRACT: note_on channel=9 note=54 velocity=0 time=0.03761922395833333
EXTRACT: note_on channel=0 note=32 velocity=0 time=0.095494953125
EXTRACT: note_on channel=5 note=32 velocity=0 time=0
EXTRACT: note_on channel=9 note=36 velocity=113 time=0.0057875729166666666
EXTRACT: note_on channel=9 note=42 velocity=100 time=0
EXTRACT: note_on channel=9 note=54 velocity=81 time=0
EXTRACT: note_on channel=9 note=56 velocity=59 time=0
EXTRACT: note_on channel=9 note=80 velocity=127 time=0
EXTRACT: note_on channel=0 note=31 velocity=119 time=0
EXTRACT: note_on channel=4 note=34 velocity=118 time=0
EXTRACT: note_on channel=4 note=46 velocity=122 time=0
EXTRACT: note_on channel=5 note=44 velocity=0 time=0
EXTRACT: note_on channel=5 note=31 velocity=110 time=0
EXTRACT: note_on channel=5 note=43 velocity=79 time=0
EXTRACT: note_on channel=1 note=32 velocity=0 time=0.015915825520833333
EXTRACT: note_on channel=1 note=31 velocity=119 time=0.0057875729166666666
EXTRACT: note_on channel=9 note=54 velocity=0 time=0.027490971354166668
EXTRACT: note_on channel=9 note=56 velocity=0 time=0.020256505208333334
EXTRACT: note_on channel=9 note=42 velocity=0 time=0.0057875729166666666
EXTRACT: note_on channel=9 note=36 velocity=0 time=0.060769515625
EXTRACT: note_on channel=9 note=80 velocity=0 time=0
EXTRACT: note_on channel=9 note=54 velocity=65 time=0.0028937864583333333
EXTRACT: note_on channel=9 note=56 velocity=23 time=0
EXTRACT: note_on channel=4 note=34 velocity=0 time=0.04051301041666667
EXTRACT: note_on channel=4 note=46 velocity=0 time=0.0057875729166666666
EXTRACT: note_on channel=9 note=54 velocity=0 time=0.014468932291666667
EXTRACT: note_on channel=0 note=31 velocity=0 time=0.07234466145833333
EXTRACT: note_on channel=5 note=31 velocity=0 time=0
EXTRACT: note_on channel=9 note=56 velocity=0 time=0.0028937864583333333
EXTRACT: note_on channel=5 note=43 velocity=0 time=0
EXTRACT: note_on channel=9 note=39 velocity=80 time=0.0028937864583333333
EXTRACT: note_on channel=9 note=40 velocity=121 time=0
EXTRACT: note_on channel=9 note=42 velocity=114 time=0
EXTRACT: note_on channel=9 note=54 velocity=82 time=0
EXTRACT: note_on channel=0 note=30 velocity=114 time=0
EXTRACT: note_on channel=4 note=34 velocity=115 time=0
EXTRACT: note_on channel=4 note=46 velocity=121 time=0
EXTRACT: note_on channel=5 note=30 velocity=108 time=0
EXTRACT: note_on channel=5 note=42 velocity=77 time=0
EXTRACT: note_on channel=1 note=31 velocity=0 time=0.015915825520833333
EXTRACT: note_on channel=1 note=30 velocity=114 time=0.0057875729166666666
EXTRACT: note_on channel=9 note=54 velocity=0 time=0.033278544270833335
EXTRACT: note_on channel=9 note=42 velocity=0 time=0.052088156249999996
EXTRACT: note_on channel=9 note=40 velocity=0 time=0.028937864583333334
EXTRACT: note_on channel=9 note=39 velocity=0 time=0
EXTRACT: note_on channel=9 note=54 velocity=45 time=0.0028937864583333333
EXTRACT: note_on channel=9 note=54 velocity=0 time=0.03761922395833333
EXTRACT: note_on channel=4 note=34 velocity=0 time=0.011575145833333333
EXTRACT: note_on channel=4 note=46 velocity=0 time=0.008681359375
EXTRACT: note_on channel=5 note=30 velocity=0 time=0.03761922395833333
EXTRACT: note_on channel=5 note=42 velocity=0 time=0.0028937864583333333
EXTRACT: note_on channel=9 note=42 velocity=90 time=0.04051301041666667
EXTRACT: note_on channel=9 note=54 velocity=75 time=0
EXTRACT: note_on channel=9 note=56 velocity=59 time=0
EXTRACT: note_on channel=9 note=80 velocity=127 time=0
EXTRACT: note_on channel=4 note=34 velocity=110 time=0
EXTRACT: note_on channel=4 note=46 velocity=110 time=0
EXTRACT: note_on channel=0 note=30 velocity=0 time=0.028937864583333334
EXTRACT: note_on channel=9 note=54 velocity=0 time=0.011575145833333333
EXTRACT: note_on channel=1 note=30 velocity=0 time=0.010128252604166667
EXTRACT: note_on channel=9 note=56 velocity=0 time=0.0217033984375
EXTRACT: note_on channel=9 note=42 velocity=0 time=0.0028937864583333333
EXTRACT: note_on channel=9 note=80 velocity=0 time=0.060769515625
EXTRACT: note_on channel=9 note=54 velocity=49 time=0.0028937864583333333
EXTRACT: note_on channel=9 note=56 velocity=23 time=0
EXTRACT: note_on channel=9 note=54 velocity=0 time=0.04051301041666667
EXTRACT: note_on channel=4 note=34 velocity=0 time=0.054981942708333335
EXTRACT: note_on channel=4 note=46 velocity=0 time=0.011575145833333333
EXTRACT: note_on channel=8 note=65 velocity=0 time=0.01736271875
EXTRACT: note_on channel=2 note=73 velocity=0 time=0.0028937864583333333
EXTRACT: note_on channel=8 note=70 velocity=0 time=0.0057875729166666666
EXTRACT: note_on channel=9 note=56 velocity=0 time=0.0028937864583333333
EXTRACT: note_on channel=2 note=77 velocity=0 time=0
EXTRACT: note_on channel=9 note=36 velocity=116 time=0.0028937864583333333
EXTRACT: note_on channel=9 note=42 velocity=122 time=0
EXTRACT: note_on channel=9 note=54 velocity=90 time=0
EXTRACT: note_on channel=9 note=57 velocity=60 time=0
EXTRACT: note_on channel=0 note=30 velocity=124 time=0
EXTRACT: note_on channel=2 note=82 velocity=0 time=0
EXTRACT: note_on channel=2 note=73 velocity=86 time=0
EXTRACT: note_on channel=2 note=78 velocity=89 time=0
EXTRACT: note_on channel=2 note=82 velocity=82 time=0
EXTRACT: note_on channel=3 note=61 velocity=115 time=0
EXTRACT: note_on channel=3 note=70 velocity=117 time=0
EXTRACT: note_on channel=5 note=30 velocity=124 time=0
EXTRACT: note_on channel=5 note=42 velocity=93 time=0
EXTRACT: note_on channel=8 note=73 velocity=0 time=0
EXTRACT: note_on channel=8 note=66 velocity=81 time=0
EXTRACT: note_on channel=8 note=70 velocity=84 time=0
EXTRACT: note_on channel=8 note=73 velocity=77 time=0
EXTRACT: note_on channel=1 note=30 velocity=124 time=0.0217033984375
EXTRACT: note_on channel=9 note=54 velocity=0 time=0.027490971354166668
EXTRACT: note_on channel=9 note=42 velocity=0 time=0.043406796875
EXTRACT: note_on channel=9 note=36 velocity=0 time=0.043406796875
EXTRACT: note_on channel=9 note=57 velocity=0 time=0
EXTRACT: note_on channel=9 note=54 velocity=42 time=0.0028937864583333333
EXTRACT: note_on channel=9 note=54 velocity=0 time=0.052088156249999996
EXTRACT: note_on channel=0 note=30 velocity=0 time=0.07234466145833333
EXTRACT: note_on channel=9 note=42 velocity=100 time=0.014468932291666667
EXTRACT: note_on channel=9 note=54 velocity=78 time=0
EXTRACT: note_on channel=9 note=56 velocity=59 time=0
EXTRACT: note_on channel=9 note=80 velocity=127 time=0
EXTRACT: note_on channel=1 note=30 velocity=0 time=0.007234466145833333
EXTRACT: note_on channel=9 note=54 velocity=0 time=0.027490971354166668
EXTRACT: note_on channel=5 note=30 velocity=0 time=0.014468932291666667
EXTRACT: note_on channel=5 note=42 velocity=0 time=0.0028937864583333333
EXTRACT: note_on channel=9 note=56 velocity=0 time=0.020256505208333334
EXTRACT: note_on channel=9 note=42 velocity=0 time=0.0028937864583333333
EXTRACT: note_on channel=9 note=80 velocity=0 time=0.060769515625
EXTRACT: note_on channel=9 note=54 velocity=54 time=0.0028937864583333333
EXTRACT: note_on channel=9 note=56 velocity=23 time=0
EXTRACT: note_on channel=9 note=54 velocity=0 time=0.07523844791666666
EXTRACT: note_on channel=9 note=56 velocity=0 time=0.060769515625
EXTRACT: note_on channel=9 note=39 velocity=80 time=0.0028937864583333333
EXTRACT: note_on channel=9 note=40 velocity=121 time=0
EXTRACT: note_on channel=9 note=42 velocity=114 time=0
EXTRACT: note_on channel=9 note=54 velocity=85 time=0
EXTRACT: note_on channel=0 note=30 velocity=119 time=0
EXTRACT: note_on channel=5 note=30 velocity=121 time=0
EXTRACT: note_on channel=5 note=42 velocity=90 time=0
EXTRACT: note_on channel=1 note=30 velocity=119 time=0.0217033984375
EXTRACT: note_on channel=9 note=54 velocity=0 time=0.0217033984375
EXTRACT: note_on channel=9 note=42 velocity=0 time=0.06366330208333333
EXTRACT: note_on channel=9 note=40 velocity=0 time=0.028937864583333334
EXTRACT: note_on channel=9 note=39 velocity=0 time=0
EXTRACT: note_on channel=9 note=54 velocity=49 time=0.0028937864583333333
EXTRACT: note_on channel=9 note=54 velocity=0 time=0.07234466145833333
EXTRACT: note_on channel=3 note=61 velocity=0 time=0.020256505208333334
EXTRACT: note_on channel=5 note=30 velocity=0 time=0.020256505208333334
EXTRACT: note_on channel=5 note=42 velocity=0 time=0.0028937864583333333
EXTRACT: note_on channel=3 note=70 velocity=0 time=0.008681359375
EXTRACT: note_on channel=0 note=30 velocity=0 time=0.008681359375
EXTRACT: note_on channel=9 note=36 velocity=111 time=0.0057875729166666666
EXTRACT: note_on channel=9 note=42 velocity=90 time=0
EXTRACT: note_on channel=9 note=54 velocity=80 time=0
EXTRACT: note_on channel=9 note=56 velocity=59 time=0
EXTRACT: note_on channel=9 note=80 velocity=127 time=0
EXTRACT: note_on channel=0 note=32 velocity=122 time=0
EXTRACT: note_on channel=3 note=60 velocity=112 time=0
EXTRACT: note_on channel=3 note=69 velocity=100 time=0
EXTRACT: note_on channel=4 note=34 velocity=114 time=0
EXTRACT: note_on channel=4 note=46 velocity=121 time=0
EXTRACT: note_on channel=5 note=32 velocity=107 time=0
EXTRACT: note_on channel=5 note=44 velocity=76 time=0
EXTRACT: note_on channel=1 note=30 velocity=0 time=0.015915825520833333
EXTRACT: note_on channel=1 note=32 velocity=122 time=0.0057875729166666666
EXTRACT: note_on channel=9 note=54 velocity=0 time=0.0217033984375
EXTRACT: note_on channel=9 note=56 velocity=0 time=0.026044078124999998
EXTRACT: note_on channel=9 note=42 velocity=0 time=0.0057875729166666666
EXTRACT: note_on channel=9 note=36 velocity=0 time=0.020256505208333334
EXTRACT: note_on channel=9 note=80 velocity=0 time=0.04051301041666667
EXTRACT: note_on channel=9 note=54 velocity=52 time=0.0028937864583333333
EXTRACT: note_on channel=9 note=56 velocity=23 time=0
EXTRACT: note_on channel=4 note=34 velocity=0 time=0.011575145833333333
EXTRACT: note_on channel=3 note=60 velocity=0 time=0.0028937864583333333
EXTRACT: note_on channel=4 note=46 velocity=0 time=0.031831651041666666
EXTRACT: note_on channel=9 note=54 velocity=0 time=0.0057875729166666666
EXTRACT: note_on channel=3 note=69 velocity=0 time=0.026044078124999998
EXTRACT: note_on channel=2 note=73 velocity=0 time=0.049194369791666664
EXTRACT: note_on channel=8 note=66 velocity=0 time=0
EXTRACT: note_on channel=0 note=32 velocity=0 time=0.0057875729166666666
EXTRACT: note_on channel=5 note=32 velocity=0 time=0
EXTRACT: note_on channel=8 note=70 velocity=0 time=0
EXTRACT: note_on channel=9 note=56 velocity=0 time=0.0028937864583333333
EXTRACT: note_on channel=2 note=78 velocity=0 time=0
EXTRACT: note_on channel=8 note=73 velocity=0 time=0
EXTRACT: note_on channel=9 note=36 velocity=112 time=0.0028937864583333333
EXTRACT: note_on channel=9 note=42 velocity=122 time=0
EXTRACT: note_on channel=9 note=54 velocity=86 time=0
EXTRACT: note_on channel=9 note=57 velocity=79 time=0
EXTRACT: note_on channel=0 note=29 velocity=113 time=0
EXTRACT: note_on channel=2 note=82 velocity=0 time=0
EXTRACT: note_on channel=2 note=72 velocity=87 time=0
EXTRACT: note_on channel=2 note=77 velocity=86 time=0
EXTRACT: note_on channel=2 note=81 velocity=83 time=0
EXTRACT: note_on channel=5 note=44 velocity=0 time=0
EXTRACT: note_on channel=5 note=29 velocity=102 time=0
EXTRACT: note_on channel=5 note=41 velocity=71 time=0
EXTRACT: note_on channel=8 note=65 velocity=82 time=0
EXTRACT: note_on channel=8 note=69 velocity=81 time=0
EXTRACT: note_on channel=8 note=72 velocity=78 time=0
EXTRACT: note_on channel=1 note=32 velocity=0 time=0.015915825520833333
EXTRACT: note_on channel=1 note=29 velocity=113 time=0.0057875729166666666
EXTRACT: note_on channel=9 note=54 velocity=0 time=0.033278544270833335
EXTRACT: note_on channel=9 note=42 velocity=0 time=0.03761922395833333
EXTRACT: note_on channel=9 note=36 velocity=0 time=0.043406796875
EXTRACT: note_on channel=9 note=57 velocity=0 time=0
EXTRACT: note_on channel=9 note=54 velocity=48 time=0.0028937864583333333
EXTRACT: note_on channel=9 note=54 velocity=0 time=0.03761922395833333
EXTRACT: note_on channel=5 note=41 velocity=0 time=0.08970738020833333
EXTRACT: note_on channel=5 note=29 velocity=0 time=0
EXTRACT: note_on channel=9 note=42 velocity=100 time=0.011575145833333333
EXTRACT: note_on channel=9 note=54 velocity=81 time=0
EXTRACT: note_on channel=9 note=56 velocity=59 time=0
EXTRACT: note_on channel=9 note=80 velocity=127 time=0
EXTRACT: note_on channel=4 note=34 velocity=118 time=0
EXTRACT: note_on channel=4 note=46 velocity=122 time=0
EXTRACT: note_on channel=9 note=54 velocity=0 time=0.052088156249999996
EXTRACT: note_on channel=9 note=56 velocity=0 time=0.020256505208333334
EXTRACT: note_on channel=9 note=42 velocity=0 time=0.0028937864583333333
EXTRACT: note_on channel=0 note=29 velocity=0 time=0.028937864583333334
EXTRACT: note_on channel=1 note=29 velocity=0 time=0.0217033984375
EXTRACT: note_on channel=9 note=80 velocity=0 time=0.010128252604166667
EXTRACT: note_on channel=9 note=54 velocity=65 time=0.0028937864583333333
EXTRACT: note_on channel=9 note=56 velocity=23 time=0
EXTRACT: note_on channel=4 note=34 velocity=0 time=0.04630058333333333
EXTRACT: note_on channel=4 note=46 velocity=0 time=0.0028937864583333333
EXTRACT: note_on channel=9 note=54 velocity=0 time=0.011575145833333333
EXTRACT: note_on channel=9 note=56 velocity=0 time=0.07523844791666666
EXTRACT: note_on channel=9 note=39 velocity=80 time=0.0028937864583333333
EXTRACT: note_on channel=9 note=40 velocity=121 time=0
EXTRACT: note_on channel=9 note=42 velocity=114 time=0
EXTRACT: note_on channel=9 note=54 velocity=82 time=0
EXTRACT: note_on channel=3 note=65 velocity=117 time=0
EXTRACT: note_on channel=3 note=77 velocity=105 time=0
EXTRACT: note_on channel=4 note=34 velocity=115 time=0
EXTRACT: note_on channel=4 note=46 velocity=121 time=0
EXTRACT: note_on channel=9 note=54 velocity=0 time=0.054981942708333335
EXTRACT: note_on channel=9 note=42 velocity=0 time=0.052088156249999996
EXTRACT: note_on channel=9 note=40 velocity=0 time=0.028937864583333334
EXTRACT: note_on channel=9 note=39 velocity=0 time=0
EXTRACT: note_on channel=9 note=54 velocity=45 time=0.0028937864583333333
EXTRACT: note_on channel=9 note=54 velocity=0 time=0.03761922395833333
EXTRACT: note_on channel=4 note=34 velocity=0 time=0.011575145833333333
EXTRACT: note_on channel=4 note=46 velocity=0 time=0.011575145833333333
EXTRACT: note_on channel=3 note=65 velocity=0 time=0.07234466145833333
EXTRACT: note_on channel=3 note=77 velocity=0 time=0.0028937864583333333
EXTRACT: note_on channel=9 note=42 velocity=90 time=0.0028937864583333333
EXTRACT: note_on channel=9 note=54 velocity=75 time=0
EXTRACT: note_on channel=9 note=56 velocity=59 time=0
EXTRACT: note_on channel=9 note=80 velocity=127 time=0
EXTRACT: note_on channel=3 note=63 velocity=117 time=0
EXTRACT: note_on channel=3 note=75 velocity=112 time=0
EXTRACT: note_on channel=4 note=34 velocity=110 time=0
EXTRACT: note_on channel=4 note=46 velocity=110 time=0
EXTRACT: note_on channel=9 note=54 velocity=0 time=0.04051301041666667
EXTRACT: note_on channel=9 note=56 velocity=0 time=0.031831651041666666
EXTRACT: note_on channel=9 note=42 velocity=0 time=0.0028937864583333333
EXTRACT: note_on channel=3 note=75 velocity=0 time=0.008681359375
EXTRACT: note_on channel=3 note=63 velocity=0 time=0.01736271875
EXTRACT: note_on channel=9 note=80 velocity=0 time=0.0347254375
EXTRACT: note_on channel=9 note=54 velocity=49 time=0.0028937864583333333
EXTRACT: note_on channel=9 note=56 velocity=23 time=0
EXTRACT: note_on channel=9 note=54 velocity=0 time=0.04051301041666667
EXTRACT: note_on channel=4 note=34 velocity=0 time=0.054981942708333335
EXTRACT: note_on channel=4 note=46 velocity=0 time=0.011575145833333333
EXTRACT: note_on channel=8 note=65 velocity=0 time=0.01736271875
EXTRACT: note_on channel=2 note=72 velocity=0 time=0.0028937864583333333
EXTRACT: note_on channel=8 note=69 velocity=0 time=0.0057875729166666666
EXTRACT: note_on channel=9 note=56 velocity=0 time=0.0028937864583333333
EXTRACT: note_on channel=2 note=77 velocity=0 time=0
EXTRACT: note_on channel=9 note=36 velocity=114 time=0.0028937864583333333
EXTRACT: note_on channel=9 note=42 velocity=122 time=0
EXTRACT: note_on channel=9 note=49 velocity=83 time=0
EXTRACT: note_on channel=9 note=54 velocity=90 time=0
EXTRACT: note_on channel=0 note=34 velocity=126 time=0
EXTRACT: note_on channel=2 note=81 velocity=0 time=0
EXTRACT: note_on channel=2 note=73 velocity=88 time=0
EXTRACT: note_on channel=2 note=77 velocity=85 time=0
EXTRACT: note_on channel=2 note=82 velocity=84 time=0
EXTRACT: note_on channel=3 note=63 velocity=116 time=0
EXTRACT: note_on channel=3 note=75 velocity=118 time=0
EXTRACT: note_on channel=5 note=34 velocity=123 time=0
EXTRACT: note_on channel=5 note=46 velocity=92 time=0
EXTRACT: note_on channel=8 note=72 velocity=0 time=0
EXTRACT: note_on channel=8 note=65 velocity=88 time=0
EXTRACT: note_on channel=8 note=70 velocity=85 time=0
EXTRACT: note_on channel=8 note=73 velocity=84 time=0
EXTRACT: note_on channel=1 note=34 velocity=126 time=0.0217033984375
EXTRACT: note_on channel=9 note=54 velocity=0 time=0.027490971354166668
EXTRACT: note_on channel=9 note=42 velocity=0 time=0.043406796875
EXTRACT: note_on channel=9 note=49 velocity=0 time=0.043406796875
EXTRACT: note_on channel=9 note=36 velocity=0 time=0
EXTRACT: note_on channel=9 note=54 velocity=42 time=0.0028937864583333333
EXTRACT: note_on channel=9 note=54 velocity=0 time=0.052088156249999996
EXTRACT: note_on channel=9 note=42 velocity=100 time=0.08681359375
EXTRACT: note_on channel=9 note=54 velocity=78 time=0
EXTRACT: note_on channel=9 note=56 velocity=59 time=0
EXTRACT: note_on channel=9 note=80 velocity=127 time=0
EXTRACT: note_on channel=9 note=54 velocity=0 time=0.0347254375
EXTRACT: note_on channel=0 note=34 velocity=0 time=0.0057875729166666666
EXTRACT: note_on channel=1 note=34 velocity=0 time=0.0217033984375
EXTRACT: note_on channel=5 note=34 velocity=0 time=0.007234466145833333
EXTRACT: note_on channel=9 note=56 velocity=0 time=0.0028937864583333333
EXTRACT: note_on channel=5 note=46 velocity=0 time=0
EXTRACT: note_on channel=9 note=42 velocity=0 time=0.0028937864583333333
EXTRACT: note_on channel=9 note=80 velocity=0 time=0.060769515625
EXTRACT: note_on channel=9 note=54 velocity=54 time=0.0028937864583333333
EXTRACT: note_on channel=9 note=56 velocity=23 time=0
EXTRACT: note_on channel=9 note=54 velocity=0 time=0.07523844791666666
EXTRACT: note_on channel=9 note=56 velocity=0 time=0.060769515625
EXTRACT: note_on channel=9 note=39 velocity=80 time=0.0028937864583333333
EXTRACT: note_on channel=9 note=40 velocity=121 time=0
EXTRACT: note_on channel=9 note=42 velocity=114 time=0
EXTRACT: note_on channel=9 note=54 velocity=85 time=0
EXTRACT: note_on channel=0 note=34 velocity=123 time=0
EXTRACT: note_on channel=5 note=34 velocity=124 time=0
EXTRACT: note_on channel=5 note=46 velocity=93 time=0
EXTRACT: note_on channel=1 note=34 velocity=123 time=0.0217033984375
EXTRACT: note_on channel=9 note=54 velocity=0 time=0.0217033984375
EXTRACT: note_on channel=9 note=42 velocity=0 time=0.06366330208333333
EXTRACT: note_on channel=9 note=40 velocity=0 time=0.028937864583333334
EXTRACT: note_on channel=9 note=39 velocity=0 time=0
EXTRACT: note_on channel=9 note=54 velocity=49 time=0.0028937864583333333
EXTRACT: note_on channel=9 note=54 velocity=0 time=0.07234466145833333
EXTRACT: note_on channel=3 note=75 velocity=0 time=0.04630058333333333
EXTRACT: note_on channel=3 note=63 velocity=0 time=0.0057875729166666666
EXTRACT: note_on channel=0 note=34 velocity=0 time=0.008681359375
EXTRACT: note_on channel=5 note=34 velocity=0 time=0
EXTRACT: note_on channel=9 note=36 velocity=109 time=0.0057875729166666666
EXTRACT: note_on channel=9 note=42 velocity=90 time=0
EXTRACT: note_on channel=9 note=54 velocity=80 time=0
EXTRACT: note_on channel=9 note=56 velocity=59 time=0
EXTRACT: note_on channel=9 note=80 velocity=127 time=0
EXTRACT: note_on channel=0 note=33 velocity=115 time=0
EXTRACT: note_on channel=3 note=61 velocity=111 time=0
EXTRACT: note_on channel=3 note=73 velocity=118 time=0
EXTRACT: note_on channel=4 note=34 velocity=114 time=0
EXTRACT: note_on channel=4 note=46 velocity=121 time=0
EXTRACT: note_on channel=5 note=46 velocity=0 time=0
EXTRACT: note_on channel=5 note=33 velocity=105 time=0
EXTRACT: note_on channel=5 note=45 velocity=74 time=0
EXTRACT: note_on channel=1 note=34 velocity=0 time=0.015915825520833333
EXTRACT: note_on channel=1 note=33 velocity=115 time=0.0057875729166666666
EXTRACT: note_on channel=9 note=54 velocity=0 time=0.018809611979166665
EXTRACT: note_on channel=9 note=56 velocity=0 time=0.028937864583333334
EXTRACT: note_on channel=9 note=42 velocity=0 time=0.0057875729166666666
EXTRACT: note_on channel=9 note=36 velocity=0 time=0.031831651041666666
EXTRACT: note_on channel=9 note=80 velocity=0 time=0.028937864583333334
EXTRACT: note_on channel=9 note=54 velocity=52 time=0.0028937864583333333
EXTRACT: note_on channel=9 note=56 velocity=23 time=0
EXTRACT: note_on channel=4 note=34 velocity=0 time=0.011575145833333333
EXTRACT: note_on channel=4 note=46 velocity=0 time=0.0347254375
EXTRACT: note_on channel=9 note=54 velocity=0 time=0.0057875729166666666
EXTRACT: note_on channel=0 note=33 velocity=0 time=0.08102602083333334
EXTRACT: note_on channel=5 note=33 velocity=0 time=0
EXTRACT: note_on channel=9 note=56 velocity=0 time=0.0028937864583333333
EXTRACT: note_on channel=5 note=45 velocity=0 time=0
EXTRACT: note_on channel=9 note=36 velocity=109 time=0.0028937864583333333
EXTRACT: note_on channel=9 note=42 velocity=122 time=0
EXTRACT: note_on channel=9 note=54 velocity=86 time=0
EXTRACT: note_on channel=0 note=32 velocity=113 time=0
EXTRACT: note_on channel=5 note=32 velocity=115 time=0
EXTRACT: note_on channel=5 note=44 velocity=84 time=0
EXTRACT: note_on channel=1 note=33 velocity=0 time=0.015915825520833333
EXTRACT: note_on channel=1 note=32 velocity=113 time=0.0057875729166666666
EXTRACT: note_on channel=9 note=54 velocity=0 time=0.03617233072916667
EXTRACT: note_on channel=9 note=42 velocity=0 time=0.0347254375
EXTRACT: note_on channel=9 note=36 velocity=0 time=0.008681359375
EXTRACT: note_on channel=9 note=54 velocity=48 time=0.03761922395833333
EXTRACT: note_on channel=9 note=54 velocity=0 time=0.03761922395833333
EXTRACT: note_on channel=0 note=32 velocity=0 time=0.095494953125
EXTRACT: note_on channel=5 note=32 velocity=0 time=0
EXTRACT: note_on channel=9 note=36 velocity=113 time=0.0057875729166666666
EXTRACT: note_on channel=9 note=42 velocity=100 time=0
EXTRACT: note_on channel=9 note=54 velocity=81 time=0
EXTRACT: note_on channel=9 note=56 velocity=59 time=0
EXTRACT: note_on channel=9 note=80 velocity=127 time=0
EXTRACT: note_on channel=0 note=31 velocity=119 time=0
EXTRACT: note_on channel=4 note=34 velocity=118 time=0
EXTRACT: note_on channel=4 note=46 velocity=122 time=0
EXTRACT: note_on channel=5 note=44 velocity=0 time=0
EXTRACT: note_on channel=5 note=31 velocity=110 time=0
EXTRACT: note_on channel=5 note=43 velocity=79 time=0
EXTRACT: note_on channel=1 note=32 velocity=0 time=0.015915825520833333
EXTRACT: note_on channel=1 note=31 velocity=119 time=0.0057875729166666666
EXTRACT: note_on channel=9 note=54 velocity=0 time=0.0303847578125
EXTRACT: note_on channel=9 note=56 velocity=0 time=0.020256505208333334
EXTRACT: note_on channel=9 note=42 velocity=0 time=0.0028937864583333333
EXTRACT: note_on channel=3 note=61 velocity=0 time=0.020256505208333334
EXTRACT: note_on channel=3 note=73 velocity=0 time=0.023150291666666666
EXTRACT: note_on channel=9 note=36 velocity=0 time=0.01736271875
EXTRACT: note_on channel=9 note=80 velocity=0 time=0
EXTRACT: note_on channel=9 note=54 velocity=65 time=0.0028937864583333333
EXTRACT: note_on channel=9 note=56 velocity=23 time=0
EXTRACT: note_on channel=4 note=34 velocity=0 time=0.04051301041666667
EXTRACT: note_on channel=4 note=46 velocity=0 time=0.0057875729166666666
EXTRACT: note_on channel=9 note=54 velocity=0 time=0.014468932291666667
EXTRACT: note_on channel=0 note=31 velocity=0 time=0.07234466145833333
EXTRACT: note_on channel=5 note=31 velocity=0 time=0
EXTRACT: note_on channel=9 note=56 velocity=0 time=0.0028937864583333333
EXTRACT: note_on channel=9 note=39 velocity=80 time=0.0028937864583333333
EXTRACT: note_on channel=9 note=40 velocity=121 time=0
EXTRACT: note_on channel=9 note=42 velocity=114 time=0
EXTRACT: note_on channel=9 note=54 velocity=82 time=0
EXTRACT: note_on channel=0 note=30 velocity=114 time=0
EXTRACT: note_on channel=4 note=34 velocity=115 time=0
EXTRACT: note_on channel=4 note=46 velocity=121 time=0
EXTRACT: note_on channel=5 note=43 velocity=0 time=0
EXTRACT: note_on channel=5 note=30 velocity=108 time=0
EXTRACT: note_on channel=5 note=42 velocity=77 time=0
EXTRACT: note_on channel=1 note=31 velocity=0 time=0.015915825520833333
EXTRACT: note_on channel=1 note=30 velocity=114 time=0.0057875729166666666
EXTRACT: note_on channel=9 note=54 velocity=0 time=0.033278544270833335
EXTRACT: note_on channel=9 note=42 velocity=0 time=0.052088156249999996
EXTRACT: note_on channel=9 note=40 velocity=0 time=0.028937864583333334
EXTRACT: note_on channel=9 note=39 velocity=0 time=0
EXTRACT: note_on channel=9 note=54 velocity=45 time=0.0028937864583333333
EXTRACT: note_on channel=9 note=54 velocity=0 time=0.03761922395833333
EXTRACT: note_on channel=4 note=34 velocity=0 time=0.008681359375
EXTRACT: note_on channel=4 note=46 velocity=0 time=0.011575145833333333
EXTRACT: note_on channel=5 note=30 velocity=0 time=0.03761922395833333
EXTRACT: note_on channel=5 note=42 velocity=0 time=0.0028937864583333333
EXTRACT: note_on channel=9 note=42 velocity=90 time=0.04051301041666667
EXTRACT: note_on channel=9 note=54 velocity=75 time=0
EXTRACT: note_on channel=9 note=56 velocity=59 time=0
EXTRACT: note_on channel=9 note=80 velocity=127 time=0
EXTRACT: note_on channel=4 note=34 velocity=110 time=0
EXTRACT: note_on channel=4 note=46 velocity=110 time=0
EXTRACT: note_on channel=0 note=30 velocity=0 time=0.028937864583333334
EXTRACT: note_on channel=9 note=54 velocity=0 time=0.011575145833333333
EXTRACT: note_on channel=1 note=30 velocity=0 time=0.010128252604166667
EXTRACT: note_on channel=9 note=56 velocity=0 time=0.0217033984375
EXTRACT: note_on channel=9 note=42 velocity=0 time=0.0028937864583333333
EXTRACT: note_on channel=9 note=80 velocity=0 time=0.060769515625
EXTRACT: note_on channel=9 note=54 velocity=49 time=0.0028937864583333333
EXTRACT: note_on channel=9 note=56 velocity=23 time=0
EXTRACT: note_on channel=9 note=54 velocity=0 time=0.04051301041666667
EXTRACT: note_on channel=4 note=34 velocity=0 time=0.054981942708333335
EXTRACT: note_on channel=4 note=46 velocity=0 time=0.011575145833333333
EXTRACT: note_on channel=8 note=65 velocity=0 time=0.01736271875
EXTRACT: note_on channel=2 note=73 velocity=0 time=0.0028937864583333333
EXTRACT: note_on channel=2 note=77 velocity=0 time=0.0057875729166666666
EXTRACT: note_on channel=8 note=70 velocity=0 time=0
EXTRACT: note_on channel=9 note=56 velocity=0 time=0.0028937864583333333
EXTRACT: note_on channel=2 note=82 velocity=0 time=0
EXTRACT: note_on channel=8 note=73 velocity=0 time=0
EXTRACT: note_on channel=9 note=36 velocity=116 time=0.0028937864583333333
EXTRACT: note_on channel=9 note=42 velocity=122 time=0
EXTRACT: note_on channel=9 note=54 velocity=90 time=0
EXTRACT: note_on channel=9 note=57 velocity=60 time=0
EXTRACT: note_on channel=0 note=30 velocity=124 time=0
EXTRACT: note_on channel=2 note=73 velocity=86 time=0
EXTRACT: note_on channel=2 note=78 velocity=89 time=0
EXTRACT: note_on channel=2 note=82 velocity=82 time=0
EXTRACT: note_on channel=3 note=58 velocity=120 time=0
EXTRACT: note_on channel=3 note=70 velocity=119 time=0
EXTRACT: note_on channel=5 note=30 velocity=124 time=0
EXTRACT: note_on channel=5 note=42 velocity=93 time=0
EXTRACT: note_on channel=8 note=66 velocity=81 time=0
EXTRACT: note_on channel=8 note=70 velocity=84 time=0
EXTRACT: note_on channel=8 note=73 velocity=77 time=0
EXTRACT: note_on channel=1 note=30 velocity=124 time=0.0217033984375
EXTRACT: note_on channel=9 note=54 velocity=0 time=0.027490971354166668
EXTRACT: note_on channel=9 note=42 velocity=0 time=0.043406796875
EXTRACT: note_on channel=9 note=36 velocity=0 time=0.043406796875
EXTRACT: note_on channel=9 note=57 velocity=0 time=0
EXTRACT: note_on channel=9 note=54 velocity=42 time=0.0028937864583333333
EXTRACT: note_on channel=9 note=54 velocity=0 time=0.052088156249999996
EXTRACT: note_on channel=3 note=58 velocity=0 time=0.028937864583333334
EXTRACT: note_on channel=3 note=70 velocity=0 time=0.011575145833333333
EXTRACT: note_on channel=0 note=30 velocity=0 time=0.031831651041666666
EXTRACT: note_on channel=9 note=42 velocity=100 time=0.014468932291666667
EXTRACT: note_on channel=9 note=54 velocity=78 time=0
EXTRACT: note_on channel=9 note=56 velocity=59 time=0
EXTRACT: note_on channel=9 note=80 velocity=127 time=0
EXTRACT: note_on channel=1 note=30 velocity=0 time=0.007234466145833333
EXTRACT: note_on channel=9 note=54 velocity=0 time=0.027490971354166668
EXTRACT: note_on channel=5 note=30 velocity=0 time=0.014468932291666667
EXTRACT: note_on channel=5 note=42 velocity=0 time=0.0028937864583333333
EXTRACT: note_on channel=9 note=56 velocity=0 time=0.020256505208333334
EXTRACT: note_on channel=9 note=42 velocity=0 time=0.0028937864583333333
EXTRACT: note_on channel=9 note=80 velocity=0 time=0.060769515625
EXTRACT: note_on channel=9 note=54 velocity=54 time=0.0028937864583333333
EXTRACT: note_on channel=9 note=56 velocity=23 time=0
EXTRACT: note_on channel=9 note=54 velocity=0 time=0.07523844791666666
EXTRACT: note_on channel=9 note=56 velocity=0 time=0.060769515625
EXTRACT: note_on channel=9 note=39 velocity=80 time=0.0028937864583333333
EXTRACT: note_on channel=9 note=40 velocity=121 time=0
EXTRACT: note_on channel=9 note=42 velocity=114 time=0
EXTRACT: note_on channel=9 note=54 velocity=85 time=0
EXTRACT: note_on channel=0 note=30 velocity=119 time=0
EXTRACT: note_on channel=3 note=61 velocity=118 time=0
EXTRACT: note_on channel=3 note=73 velocity=114 time=0
EXTRACT: note_on channel=5 note=30 velocity=121 time=0
EXTRACT: note_on channel=5 note=42 velocity=90 time=0
EXTRACT: note_on channel=1 note=30 velocity=119 time=0.0217033984375
EXTRACT: note_on channel=9 note=54 velocity=0 time=0.0217033984375
EXTRACT: note_on channel=9 note=42 velocity=0 time=0.06366330208333333
EXTRACT: note_on channel=9 note=40 velocity=0 time=0.028937864583333334
EXTRACT: note_on channel=9 note=39 velocity=0 time=0
EXTRACT: note_on channel=9 note=54 velocity=49 time=0.0028937864583333333
EXTRACT: note_on channel=9 note=54 velocity=0 time=0.07234466145833333
EXTRACT: note_on channel=5 note=30 velocity=0 time=0.04051301041666667
EXTRACT: note_on channel=5 note=42 velocity=0 time=0.0028937864583333333
EXTRACT: note_on channel=0 note=30 velocity=0 time=0.01736271875
EXTRACT: note_on channel=9 note=36 velocity=111 time=0.0057875729166666666
EXTRACT: note_on channel=9 note=42 velocity=90 time=0
EXTRACT: note_on channel=9 note=54 velocity=80 time=0
EXTRACT: note_on channel=9 note=56 velocity=59 time=0
EXTRACT: note_on channel=9 note=80 velocity=127 time=0
EXTRACT: note_on channel=0 note=32 velocity=122 time=0
EXTRACT: note_on channel=4 note=34 velocity=114 time=0
EXTRACT: note_on channel=4 note=46 velocity=121 time=0
EXTRACT: note_on channel=5 note=32 velocity=107 time=0
EXTRACT: note_on channel=5 note=44 velocity=76 time=0
EXTRACT: note_on channel=3 note=61 velocity=0 time=0.0028937864583333333
EXTRACT: note_on channel=1 note=30 velocity=0 time=0.013022039062499999
EXTRACT: note_on channel=3 note=73 velocity=0 time=0.0014468932291666666
EXTRACT: note_on channel=1 note=32 velocity=122 time=0.0043406796875
EXTRACT: note_on channel=9 note=54 velocity=0 time=0.0217033984375
EXTRACT: note_on channel=9 note=56 velocity=0 time=0.028937864583333334
EXTRACT: note_on channel=9 note=42 velocity=0 time=0.0028937864583333333
EXTRACT: note_on channel=9 note=36 velocity=0 time=0.020256505208333334
EXTRACT: note_on channel=9 note=80 velocity=0 time=0.04051301041666667
EXTRACT: note_on channel=9 note=54 velocity=52 time=0.0028937864583333333
EXTRACT: note_on channel=9 note=56 velocity=23 time=0
EXTRACT: note_on channel=4 note=34 velocity=0 time=0.014468932291666667
EXTRACT: note_on channel=4 note=46 velocity=0 time=0.0347254375
EXTRACT: note_on channel=9 note=54 velocity=0 time=0.0028937864583333333
EXTRACT: note_on channel=2 note=73 velocity=0 time=0.07523844791666666
EXTRACT: note_on channel=8 note=66 velocity=0 time=0
EXTRACT: note_on channel=0 note=32 velocity=0 time=0.0057875729166666666
EXTRACT: note_on channel=5 note=32 velocity=0 time=0
EXTRACT: note_on channel=8 note=70 velocity=0 time=0
EXTRACT: note_on channel=9 note=56 velocity=0 time=0.0028937864583333333
EXTRACT: note_on channel=2 note=78 velocity=0 time=0
EXTRACT: note_on channel=9 note=36 velocity=112 time=0.0028937864583333333
EXTRACT: note_on channel=9 note=42 velocity=122 time=0
EXTRACT: note_on channel=9 note=54 velocity=86 time=0
EXTRACT: note_on channel=9 note=57 velocity=79 time=0
EXTRACT: note_on channel=0 note=29 velocity=113 time=0
EXTRACT: note_on channel=2 note=82 velocity=0 time=0
EXTRACT: note_on channel=2 note=75 velocity=86 time=0
EXTRACT: note_on channel=2 note=80 velocity=83 time=0
EXTRACT: note_on channel=2 note=84 velocity=87 time=0
EXTRACT: note_on channel=3 note=63 velocity=118 time=0
EXTRACT: note_on channel=3 note=75 velocity=118 time=0
EXTRACT: note_on channel=5 note=44 velocity=0 time=0
EXTRACT: note_on channel=5 note=29 velocity=102 time=0
EXTRACT: note_on channel=5 note=41 velocity=71 time=0
EXTRACT: note_on channel=8 note=73 velocity=0 time=0
EXTRACT: note_on channel=8 note=68 velocity=82 time=0
EXTRACT: note_on channel=8 note=72 velocity=81 time=0
EXTRACT: note_on channel=8 note=75 velocity=78 time=0
EXTRACT: note_on channel=1 note=32 velocity=0 time=0.015915825520833333
EXTRACT: note_on channel=1 note=29 velocity=113 time=0.0057875729166666666
EXTRACT: note_on channel=9 note=54 velocity=0 time=0.03617233072916667
EXTRACT: note_on channel=9 note=42 velocity=0 time=0.0347254375
EXTRACT: note_on channel=9 note=36 velocity=0 time=0.043406796875
EXTRACT: note_on channel=9 note=57 velocity=0 time=0
EXTRACT: note_on channel=9 note=54 velocity=48 time=0.0028937864583333333
EXTRACT: note_on channel=9 note=54 velocity=0 time=0.03761922395833333
EXTRACT: note_on channel=5 note=29 velocity=0 time=0.08970738020833333
EXTRACT: note_on channel=5 note=41 velocity=0 time=0.0028937864583333333
EXTRACT: note_on channel=9 note=42 velocity=100 time=0.008681359375
EXTRACT: note_on channel=9 note=54 velocity=81 time=0
EXTRACT: note_on channel=9 note=56 velocity=59 time=0
EXTRACT: note_on channel=9 note=80 velocity=127 time=0
EXTRACT: note_on channel=4 note=34 velocity=118 time=0
EXTRACT: note_on channel=4 note=46 velocity=122 time=0
EXTRACT: note_on channel=9 note=54 velocity=0 time=0.052088156249999996
EXTRACT: note_on channel=9 note=56 velocity=0 time=0.020256505208333334
EXTRACT: note_on channel=9 note=42 velocity=0 time=0.0028937864583333333
EXTRACT: note_on channel=0 note=29 velocity=0 time=0.028937864583333334
EXTRACT: note_on channel=1 note=29 velocity=0 time=0.0217033984375
EXTRACT: note_on channel=9 note=80 velocity=0 time=0.010128252604166667
EXTRACT: note_on channel=9 note=54 velocity=65 time=0.0028937864583333333
EXTRACT: note_on channel=9 note=56 velocity=23 time=0
EXTRACT: note_on channel=4 note=34 velocity=0 time=0.043406796875
EXTRACT: note_on channel=4 note=46 velocity=0 time=0.0057875729166666666
EXTRACT: note_on channel=9 note=54 velocity=0 time=0.011575145833333333
EXTRACT: note_on channel=3 note=63 velocity=0 time=0.069450875
EXTRACT: note_on channel=9 note=56 velocity=0 time=0.0057875729166666666
EXTRACT: note_on channel=3 note=75 velocity=0 time=0
EXTRACT: note_on channel=9 note=39 velocity=80 time=0.0028937864583333333
EXTRACT: note_on channel=9 note=40 velocity=121 time=0
EXTRACT: note_on channel=9 note=42 velocity=114 time=0
EXTRACT: note_on channel=9 note=54 velocity=82 time=0
EXTRACT: note_on channel=3 note=58 velocity=112 time=0
EXTRACT: note_on channel=3 note=70 velocity=116 time=0
EXTRACT: note_on channel=4 note=34 velocity=115 time=0
EXTRACT: note_on channel=4 note=46 velocity=121 time=0
EXTRACT: note_on channel=9 note=54 velocity=0 time=0.054981942708333335
EXTRACT: note_on channel=9 note=42 velocity=0 time=0.052088156249999996
EXTRACT: note_on channel=9 note=40 velocity=0 time=0.028937864583333334
EXTRACT: note_on channel=9 note=39 velocity=0 time=0
EXTRACT: note_on channel=9 note=54 velocity=45 time=0.0028937864583333333
EXTRACT: note_on channel=9 note=54 velocity=0 time=0.03761922395833333
EXTRACT: note_on channel=4 note=34 velocity=0 time=0.011575145833333333
EXTRACT: note_on channel=4 note=46 velocity=0 time=0.011575145833333333
EXTRACT: note_on channel=3 note=58 velocity=0 time=0.069450875
EXTRACT: note_on channel=3 note=70 velocity=0 time=0.0057875729166666666
EXTRACT: note_on channel=9 note=42 velocity=90 time=0.0028937864583333333
EXTRACT: note_on channel=9 note=54 velocity=75 time=0
EXTRACT: note_on channel=9 note=56 velocity=59 time=0
EXTRACT: note_on channel=9 note=80 velocity=127 time=0
EXTRACT: note_on channel=3 note=58 velocity=120 time=0
EXTRACT: note_on channel=4 note=34 velocity=110 time=0
EXTRACT: note_on channel=4 note=46 velocity=110 time=0
EXTRACT: note_on channel=9 note=54 velocity=0 time=0.04051301041666667
EXTRACT: note_on channel=9 note=56 velocity=0 time=0.031831651041666666
EXTRACT: note_on channel=9 note=42 velocity=0 time=0.0028937864583333333
EXTRACT: note_on channel=9 note=80 velocity=0 time=0.060769515625
EXTRACT: note_on channel=9 note=54 velocity=49 time=0.0028937864583333333
EXTRACT: note_on channel=9 note=56 velocity=23 time=0
EXTRACT: note_on channel=9 note=54 velocity=0 time=0.04051301041666667
EXTRACT: note_on channel=4 note=34 velocity=0 time=0.054981942708333335
EXTRACT: note_on channel=4 note=46 velocity=0 time=0.011575145833333333
EXTRACT: note_on channel=3 note=58 velocity=0 time=0.008681359375
EXTRACT: note_on channel=8 note=68 velocity=0 time=0.008681359375
EXTRACT: note_on channel=2 note=75 velocity=0 time=0.0028937864583333333
EXTRACT: note_on channel=8 note=72 velocity=0 time=0.0057875729166666666
EXTRACT: note_on channel=9 note=56 velocity=0 time=0.0028937864583333333
EXTRACT: note_on channel=2 note=84 velocity=0 time=0
EXTRACT: note_on channel=2 note=80 velocity=0 time=0
EXTRACT: note_on channel=8 note=75 velocity=0 time=0
EXTRACT: note_on channel=9 note=36 velocity=114 time=0.0028937864583333333
EXTRACT: note_on channel=9 note=42 velocity=122 time=0
EXTRACT: note_on channel=9 note=49 velocity=83 time=0
EXTRACT: note_on channel=9 note=54 velocity=90 time=0
EXTRACT: note_on channel=0 note=34 velocity=126 time=0
EXTRACT: note_on channel=2 note=73 velocity=88 time=0
EXTRACT: note_on channel=2 note=77 velocity=85 time=0
EXTRACT: note_on channel=2 note=82 velocity=84 time=0
EXTRACT: note_on channel=5 note=34 velocity=123 time=0
EXTRACT: note_on channel=5 note=46 velocity=92 time=0
EXTRACT: note_on channel=8 note=65 velocity=88 time=0
EXTRACT: note_on channel=8 note=70 velocity=85 time=0
EXTRACT: note_on channel=8 note=73 velocity=84 time=0
EXTRACT: note_on channel=1 note=34 velocity=126 time=0.0217033984375
EXTRACT: note_on channel=9 note=54 velocity=0 time=0.027490971354166668
EXTRACT: note_on channel=9 note=42 velocity=0 time=0.043406796875
EXTRACT: note_on channel=9 note=49 velocity=0 time=0.043406796875
EXTRACT: note_on channel=9 note=36 velocity=0 time=0
EXTRACT: note_on channel=9 note=54 velocity=42 time=0.0028937864583333333
EXTRACT: note_on channel=9 note=54 velocity=0 time=0.052088156249999996
EXTRACT: note_on channel=9 note=42 velocity=100 time=0.08681359375
EXTRACT: note_on channel=9 note=54 velocity=78 time=0
EXTRACT: note_on channel=9 note=56 velocity=59 time=0
EXTRACT: note_on channel=9 note=80 velocity=127 time=0
EXTRACT: note_on channel=9 note=54 velocity=0 time=0.0347254375
EXTRACT: note_on channel=0 note=34 velocity=0 time=0.0057875729166666666
EXTRACT: note_on channel=1 note=34 velocity=0 time=0.0217033984375
EXTRACT: note_on channel=5 note=34 velocity=0 time=0.007234466145833333
EXTRACT: note_on channel=9 note=56 velocity=0 time=0.0028937864583333333
EXTRACT: note_on channel=5 note=46 velocity=0 time=0
EXTRACT: note_on channel=9 note=42 velocity=0 time=0.0028937864583333333
EXTRACT: note_on channel=9 note=80 velocity=0 time=0.060769515625
EXTRACT: note_on channel=9 note=54 velocity=54 time=0.0028937864583333333
EXTRACT: note_on channel=9 note=56 velocity=23 time=0
EXTRACT: note_on channel=9 note=54 velocity=0 time=0.07523844791666666
EXTRACT: note_on channel=9 note=56 velocity=0 time=0.060769515625
EXTRACT: note_on channel=9 note=39 velocity=80 time=0.0028937864583333333
EXTRACT: note_on channel=9 note=40 velocity=121 time=0
EXTRACT: note_on channel=9 note=42 velocity=114 time=0
EXTRACT: note_on channel=9 note=54 velocity=85 time=0
EXTRACT: note_on channel=0 note=34 velocity=123 time=0
EXTRACT: note_on channel=5 note=34 velocity=124 time=0
EXTRACT: note_on channel=5 note=46 velocity=93 time=0
EXTRACT: note_on channel=1 note=34 velocity=123 time=0.0217033984375
EXTRACT: note_on channel=9 note=54 velocity=0 time=0.018809611979166665
EXTRACT: note_on channel=9 note=42 velocity=0 time=0.06655708854166667
EXTRACT: note_on channel=9 note=40 velocity=0 time=0.028937864583333334
EXTRACT: note_on channel=9 note=39 velocity=0 time=0
EXTRACT: note_on channel=9 note=54 velocity=49 time=0.0028937864583333333
EXTRACT: note_on channel=9 note=54 velocity=0 time=0.07234466145833333
EXTRACT: note_on channel=0 note=34 velocity=0 time=0.060769515625
EXTRACT: note_on channel=5 note=34 velocity=0 time=0
EXTRACT: note_on channel=9 note=36 velocity=109 time=0.0057875729166666666
EXTRACT: note_on channel=9 note=42 velocity=90 time=0
EXTRACT: note_on channel=9 note=54 velocity=80 time=0
EXTRACT: note_on channel=9 note=56 velocity=59 time=0
EXTRACT: note_on channel=9 note=80 velocity=127 time=0
EXTRACT: note_on channel=0 note=33 velocity=115 time=0
EXTRACT: note_on channel=4 note=34 velocity=114 time=0
EXTRACT: note_on channel=4 note=46 velocity=121 time=0
EXTRACT: note_on channel=5 note=46 velocity=0 time=0
EXTRACT: note_on channel=5 note=33 velocity=105 time=0
EXTRACT: note_on channel=5 note=45 velocity=74 time=0
EXTRACT: note_on channel=1 note=34 velocity=0 time=0.015915825520833333
EXTRACT: note_on channel=1 note=33 velocity=115 time=0.0057875729166666666
EXTRACT: note_on channel=9 note=54 velocity=0 time=0.0217033984375
EXTRACT: note_on channel=9 note=56 velocity=0 time=0.028937864583333334
EXTRACT: note_on channel=9 note=42 velocity=0 time=0.0028937864583333333
EXTRACT: note_on channel=9 note=36 velocity=0 time=0.031831651041666666
EXTRACT: note_on channel=9 note=80 velocity=0 time=0.028937864583333334
EXTRACT: note_on channel=9 note=54 velocity=52 time=0.0028937864583333333
EXTRACT: note_on channel=9 note=56 velocity=23 time=0
EXTRACT: note_on channel=4 note=34 velocity=0 time=0.014468932291666667
EXTRACT: note_on channel=4 note=46 velocity=0 time=0.0347254375
EXTRACT: note_on channel=9 note=54 velocity=0 time=0.0028937864583333333
EXTRACT: note_on channel=0 note=33 velocity=0 time=0.08102602083333334
EXTRACT: note_on channel=5 note=33 velocity=0 time=0
EXTRACT: note_on channel=9 note=56 velocity=0 time=0.0028937864583333333
EXTRACT: note_on channel=9 note=36 velocity=109 time=0.0028937864583333333
EXTRACT: note_on channel=9 note=42 velocity=122 time=0
EXTRACT: note_on channel=9 note=54 velocity=86 time=0
EXTRACT: note_on channel=0 note=32 velocity=113 time=0
EXTRACT: note_on channel=5 note=45 velocity=0 time=0
EXTRACT: note_on channel=5 note=32 velocity=115 time=0
EXTRACT: note_on channel=5 note=44 velocity=84 time=0
EXTRACT: note_on channel=1 note=33 velocity=0 time=0.015915825520833333
EXTRACT: note_on channel=1 note=32 velocity=113 time=0.0057875729166666666
EXTRACT: note_on channel=9 note=54 velocity=0 time=0.03617233072916667
EXTRACT: note_on channel=9 note=42 velocity=0 time=0.0347254375
EXTRACT: note_on channel=9 note=36 velocity=0 time=0.008681359375
EXTRACT: note_on channel=9 note=54 velocity=48 time=0.03761922395833333
EXTRACT: note_on channel=9 note=54 velocity=0 time=0.03761922395833333
EXTRACT: note_on channel=0 note=32 velocity=0 time=0.095494953125
EXTRACT: note_on channel=5 note=32 velocity=0 time=0
EXTRACT: note_on channel=9 note=36 velocity=113 time=0.0057875729166666666
EXTRACT: note_on channel=9 note=42 velocity=100 time=0
EXTRACT: note_on channel=9 note=54 velocity=81 time=0
EXTRACT: note_on channel=9 note=56 velocity=59 time=0
EXTRACT: note_on channel=9 note=80 velocity=127 time=0
EXTRACT: note_on channel=0 note=31 velocity=119 time=0
EXTRACT: note_on channel=4 note=34 velocity=118 time=0
EXTRACT: note_on channel=4 note=46 velocity=122 time=0
EXTRACT: note_on channel=5 note=44 velocity=0 time=0
EXTRACT: note_on channel=5 note=31 velocity=110 time=0
EXTRACT: note_on channel=5 note=43 velocity=79 time=0
EXTRACT: note_on channel=1 note=32 velocity=0 time=0.015915825520833333
EXTRACT: note_on channel=1 note=31 velocity=119 time=0.0057875729166666666
EXTRACT: note_on channel=9 note=54 velocity=0 time=0.0303847578125
EXTRACT: note_on channel=9 note=56 velocity=0 time=0.020256505208333334
EXTRACT: note_on channel=9 note=42 velocity=0 time=0.0028937864583333333
EXTRACT: note_on channel=9 note=36 velocity=0 time=0.060769515625
EXTRACT: note_on channel=9 note=80 velocity=0 time=0
EXTRACT: note_on channel=9 note=54 velocity=65 time=0.0028937864583333333
EXTRACT: note_on channel=9 note=56 velocity=23 time=0
EXTRACT: note_on channel=4 note=34 velocity=0 time=0.04051301041666667
EXTRACT: note_on channel=4 note=46 velocity=0 time=0.0057875729166666666
EXTRACT: note_on channel=9 note=54 velocity=0 time=0.014468932291666667
EXTRACT: note_on channel=0 note=31 velocity=0 time=0.07234466145833333
EXTRACT: note_on channel=5 note=31 velocity=0 time=0
EXTRACT: note_on channel=9 note=56 velocity=0 time=0.0028937864583333333
EXTRACT: note_on channel=9 note=39 velocity=80 time=0.0028937864583333333
EXTRACT: note_on channel=9 note=40 velocity=121 time=0
EXTRACT: note_on channel=9 note=42 velocity=114 time=0
EXTRACT: note_on channel=9 note=54 velocity=82 time=0
EXTRACT: note_on channel=0 note=30 velocity=114 time=0
EXTRACT: note_on channel=4 note=34 velocity=115 time=0
EXTRACT: note_on channel=4 note=46 velocity=121 time=0
EXTRACT: note_on channel=5 note=43 velocity=0 time=0
EXTRACT: note_on channel=5 note=30 velocity=108 time=0
EXTRACT: note_on channel=5 note=42 velocity=77 time=0
EXTRACT: note_on channel=1 note=31 velocity=0 time=0.015915825520833333
EXTRACT: note_on channel=1 note=30 velocity=114 time=0.0057875729166666666
EXTRACT: note_on channel=9 note=54 velocity=0 time=0.033278544270833335
EXTRACT: note_on channel=9 note=42 velocity=0 time=0.052088156249999996
EXTRACT: note_on channel=9 note=40 velocity=0 time=0.028937864583333334
EXTRACT: note_on channel=9 note=39 velocity=0 time=0
EXTRACT: note_on channel=9 note=54 velocity=45 time=0.0028937864583333333
EXTRACT: note_on channel=9 note=54 velocity=0 time=0.03761922395833333
EXTRACT: note_on channel=4 note=34 velocity=0 time=0.011575145833333333
EXTRACT: note_on channel=4 note=46 velocity=0 time=0.008681359375
EXTRACT: note_on channel=5 note=30 velocity=0 time=0.03761922395833333
EXTRACT: note_on channel=5 note=42 velocity=0 time=0.0028937864583333333
EXTRACT: note_on channel=9 note=42 velocity=90 time=0.04051301041666667
EXTRACT: note_on channel=9 note=54 velocity=75 time=0
EXTRACT: note_on channel=9 note=56 velocity=59 time=0
EXTRACT: note_on channel=9 note=80 velocity=127 time=0
EXTRACT: note_on channel=4 note=34 velocity=110 time=0
EXTRACT: note_on channel=4 note=46 velocity=110 time=0
EXTRACT: note_on channel=0 note=30 velocity=0 time=0.028937864583333334
EXTRACT: note_on channel=9 note=54 velocity=0 time=0.011575145833333333
EXTRACT: note_on channel=1 note=30 velocity=0 time=0.010128252604166667
EXTRACT: note_on channel=9 note=56 velocity=0 time=0.0217033984375
EXTRACT: note_on channel=9 note=42 velocity=0 time=0.0028937864583333333
EXTRACT: note_on channel=9 note=80 velocity=0 time=0.060769515625
EXTRACT: note_on channel=9 note=54 velocity=49 time=0.0028937864583333333
EXTRACT: note_on channel=9 note=56 velocity=23 time=0
EXTRACT: note_on channel=9 note=54 velocity=0 time=0.04051301041666667
EXTRACT: note_on channel=4 note=34 velocity=0 time=0.054981942708333335
EXTRACT: note_on channel=4 note=46 velocity=0 time=0.011575145833333333
EXTRACT: note_on channel=2 note=73 velocity=0 time=0.020256505208333334
EXTRACT: note_on channel=8 note=65 velocity=0 time=0
EXTRACT: note_on channel=8 note=70 velocity=0 time=0.0057875729166666666
EXTRACT: note_on channel=9 note=56 velocity=0 time=0.0028937864583333333
EXTRACT: note_on channel=2 note=77 velocity=0 time=0
EXTRACT: note_on channel=9 note=36 velocity=116 time=0.0028937864583333333
EXTRACT: note_on channel=9 note=42 velocity=122 time=0
EXTRACT: note_on channel=9 note=54 velocity=90 time=0
EXTRACT: note_on channel=9 note=57 velocity=60 time=0
EXTRACT: note_on channel=0 note=30 velocity=124 time=0
EXTRACT: note_on channel=2 note=82 velocity=0 time=0
EXTRACT: note_on channel=2 note=73 velocity=86 time=0
EXTRACT: note_on channel=2 note=78 velocity=89 time=0
EXTRACT: note_on channel=2 note=82 velocity=82 time=0
EXTRACT: note_on channel=3 note=58 velocity=119 time=0
EXTRACT: note_on channel=3 note=70 velocity=120 time=0
EXTRACT: note_on channel=5 note=30 velocity=124 time=0
EXTRACT: note_on channel=5 note=42 velocity=93 time=0
EXTRACT: note_on channel=8 note=73 velocity=0 time=0
EXTRACT: note_on channel=8 note=66 velocity=81 time=0
EXTRACT: note_on channel=8 note=70 velocity=84 time=0
EXTRACT: note_on channel=8 note=73 velocity=77 time=0
EXTRACT: note_on channel=1 note=30 velocity=124 time=0.0217033984375
EXTRACT: note_on channel=9 note=54 velocity=0 time=0.027490971354166668
EXTRACT: note_on channel=9 note=42 velocity=0 time=0.043406796875
EXTRACT: note_on channel=9 note=36 velocity=0 time=0.043406796875
EXTRACT: note_on channel=9 note=57 velocity=0 time=0
EXTRACT: note_on channel=9 note=54 velocity=42 time=0.0028937864583333333
EXTRACT: note_on channel=9 note=54 velocity=0 time=0.052088156249999996
EXTRACT: note_on channel=3 note=58 velocity=0 time=0.052088156249999996
EXTRACT: note_on channel=3 note=70 velocity=0 time=0.011575145833333333
EXTRACT: note_on channel=0 note=30 velocity=0 time=0.008681359375
EXTRACT: note_on channel=9 note=42 velocity=100 time=0.014468932291666667
EXTRACT: note_on channel=9 note=54 velocity=78 time=0
EXTRACT: note_on channel=9 note=56 velocity=59 time=0
EXTRACT: note_on channel=9 note=80 velocity=127 time=0
EXTRACT: note_on channel=1 note=30 velocity=0 time=0.007234466145833333
EXTRACT: note_on channel=9 note=54 velocity=0 time=0.027490971354166668
EXTRACT: note_on channel=5 note=30 velocity=0 time=0.014468932291666667
EXTRACT: note_on channel=5 note=42 velocity=0 time=0.0028937864583333333
EXTRACT: note_on channel=9 note=56 velocity=0 time=0.01736271875
EXTRACT: note_on channel=9 note=42 velocity=0 time=0.0057875729166666666
EXTRACT: note_on channel=9 note=80 velocity=0 time=0.060769515625
EXTRACT: note_on channel=9 note=54 velocity=54 time=0.0028937864583333333
EXTRACT: note_on channel=9 note=56 velocity=23 time=0
EXTRACT: note_on channel=9 note=54 velocity=0 time=0.07523844791666666
EXTRACT: note_on channel=9 note=56 velocity=0 time=0.060769515625
EXTRACT: note_on channel=9 note=39 velocity=80 time=0.0028937864583333333
EXTRACT: note_on channel=9 note=40 velocity=121 time=0
EXTRACT: note_on channel=9 note=42 velocity=114 time=0
EXTRACT: note_on channel=9 note=54 velocity=85 time=0
EXTRACT: note_on channel=0 note=30 velocity=119 time=0
EXTRACT: note_on channel=3 note=61 velocity=118 time=0
EXTRACT: note_on channel=3 note=73 velocity=116 time=0
EXTRACT: note_on channel=5 note=30 velocity=121 time=0
EXTRACT: note_on channel=5 note=42 velocity=90 time=0
EXTRACT: note_on channel=1 note=30 velocity=119 time=0.0217033984375
EXTRACT: note_on channel=9 note=54 velocity=0 time=0.0217033984375
EXTRACT: note_on channel=9 note=42 velocity=0 time=0.06366330208333333
EXTRACT: note_on channel=9 note=40 velocity=0 time=0.028937864583333334
EXTRACT: note_on channel=9 note=39 velocity=0 time=0
EXTRACT: note_on channel=9 note=54 velocity=49 time=0.0028937864583333333
EXTRACT: note_on channel=9 note=54 velocity=0 time=0.07234466145833333
EXTRACT: note_on channel=3 note=61 velocity=0 time=0.031831651041666666
EXTRACT: note_on channel=3 note=73 velocity=0 time=0.008681359375
EXTRACT: note_on channel=5 note=30 velocity=0 time=0
EXTRACT: note_on channel=5 note=42 velocity=0 time=0.0028937864583333333
EXTRACT: note_on channel=0 note=30 velocity=0 time=0.01736271875
EXTRACT: note_on channel=9 note=36 velocity=111 time=0.0057875729166666666
EXTRACT: note_on channel=9 note=42 velocity=90 time=0
EXTRACT: note_on channel=9 note=54 velocity=80 time=0
EXTRACT: note_on channel=9 note=56 velocity=59 time=0
EXTRACT: note_on channel=9 note=80 velocity=127 time=0
EXTRACT: note_on channel=0 note=32 velocity=122 time=0
EXTRACT: note_on channel=4 note=34 velocity=114 time=0
EXTRACT: note_on channel=4 note=46 velocity=121 time=0
EXTRACT: note_on channel=5 note=32 velocity=107 time=0
EXTRACT: note_on channel=5 note=44 velocity=76 time=0
EXTRACT: note_on channel=1 note=30 velocity=0 time=0.015915825520833333
EXTRACT: note_on channel=1 note=32 velocity=122 time=0.0057875729166666666
EXTRACT: note_on channel=9 note=54 velocity=0 time=0.0217033984375
EXTRACT: note_on channel=9 note=56 velocity=0 time=0.028937864583333334
EXTRACT: note_on channel=9 note=42 velocity=0 time=0.0028937864583333333
EXTRACT: note_on channel=9 note=36 velocity=0 time=0.020256505208333334
EXTRACT: note_on channel=9 note=80 velocity=0 time=0.04051301041666667
EXTRACT: note_on channel=9 note=54 velocity=52 time=0.0028937864583333333
EXTRACT: note_on channel=9 note=56 velocity=23 time=0
EXTRACT: note_on channel=4 note=34 velocity=0 time=0.014468932291666667
EXTRACT: note_on channel=4 note=46 velocity=0 time=0.031831651041666666
EXTRACT: note_on channel=9 note=54 velocity=0 time=0.0057875729166666666
EXTRACT: note_on channel=2 note=73 velocity=0 time=0.07523844791666666
EXTRACT: note_on channel=8 note=66 velocity=0 time=0
EXTRACT: note_on channel=0 note=32 velocity=0 time=0.0057875729166666666
EXTRACT: note_on channel=5 note=32 velocity=0 time=0
EXTRACT: note_on channel=8 note=70 velocity=0 time=0
EXTRACT: note_on channel=9 note=56 velocity=0 time=0.0028937864583333333
EXTRACT: note_on channel=2 note=78 velocity=0 time=0
EXTRACT: note_on channel=9 note=36 velocity=112 time=0.0028937864583333333
EXTRACT: note_on channel=9 note=42 velocity=122 time=0
EXTRACT: note_on channel=9 note=54 velocity=86 time=0
EXTRACT: note_on channel=9 note=57 velocity=79 time=0
EXTRACT: note_on channel=0 note=29 velocity=113 time=0
EXTRACT: note_on channel=2 note=82 velocity=0 time=0
EXTRACT: note_on channel=2 note=75 velocity=86 time=0
EXTRACT: note_on channel=2 note=80 velocity=83 time=0
EXTRACT: note_on channel=2 note=84 velocity=87 time=0
EXTRACT: note_on channel=3 note=63 velocity=114 time=0
EXTRACT: note_on channel=3 note=75 velocity=118 time=0
EXTRACT: note_on channel=5 note=44 velocity=0 time=0
EXTRACT: note_on channel=5 note=29 velocity=102 time=0
EXTRACT: note_on channel=5 note=41 velocity=71 time=0
EXTRACT: note_on channel=8 note=73 velocity=0 time=0
EXTRACT: note_on channel=8 note=68 velocity=82 time=0
EXTRACT: note_on channel=8 note=72 velocity=81 time=0
EXTRACT: note_on channel=8 note=75 velocity=78 time=0
EXTRACT: note_on channel=1 note=32 velocity=0 time=0.015915825520833333
EXTRACT: note_on channel=1 note=29 velocity=113 time=0.0057875729166666666
EXTRACT: note_on channel=9 note=54 velocity=0 time=0.03617233072916667
EXTRACT: note_on channel=9 note=42 velocity=0 time=0.0347254375
EXTRACT: note_on channel=9 note=36 velocity=0 time=0.043406796875
EXTRACT: note_on channel=9 note=57 velocity=0 time=0
EXTRACT: note_on channel=9 note=54 velocity=48 time=0.0028937864583333333
EXTRACT: note_on channel=9 note=54 velocity=0 time=0.03761922395833333
EXTRACT: note_on channel=5 note=41 velocity=0 time=0.08970738020833333
EXTRACT: note_on channel=5 note=29 velocity=0 time=0
EXTRACT: note_on channel=9 note=42 velocity=100 time=0.011575145833333333
EXTRACT: note_on channel=9 note=54 velocity=81 time=0
EXTRACT: note_on channel=9 note=56 velocity=59 time=0
EXTRACT: note_on channel=9 note=80 velocity=127 time=0
EXTRACT: note_on channel=3 note=75 velocity=0 time=0
EXTRACT: note_on channel=4 note=34 velocity=118 time=0
EXTRACT: note_on channel=4 note=46 velocity=122 time=0
EXTRACT: note_on channel=9 note=54 velocity=0 time=0.052088156249999996
EXTRACT: note_on channel=9 note=56 velocity=0 time=0.020256505208333334
EXTRACT: note_on channel=9 note=42 velocity=0 time=0.0028937864583333333
EXTRACT: note_on channel=0 note=29 velocity=0 time=0.028937864583333334
EXTRACT: note_on channel=1 note=29 velocity=0 time=0.0217033984375
EXTRACT: note_on channel=9 note=80 velocity=0 time=0.010128252604166667
EXTRACT: note_on channel=9 note=54 velocity=65 time=0.0028937864583333333
EXTRACT: note_on channel=9 note=56 velocity=23 time=0
EXTRACT: note_on channel=4 note=34 velocity=0 time=0.043406796875
EXTRACT: note_on channel=4 note=46 velocity=0 time=0.0057875729166666666
EXTRACT: note_on channel=9 note=54 velocity=0 time=0.011575145833333333
EXTRACT: note_on channel=3 note=63 velocity=0 time=0.069450875
EXTRACT: note_on channel=9 note=56 velocity=0 time=0.0057875729166666666
EXTRACT: note_on channel=9 note=39 velocity=80 time=0.0028937864583333333
EXTRACT: note_on channel=9 note=40 velocity=121 time=0
EXTRACT: note_on channel=9 note=42 velocity=114 time=0
EXTRACT: note_on channel=9 note=54 velocity=82 time=0
EXTRACT: note_on channel=3 note=70 velocity=106 time=0
EXTRACT: note_on channel=3 note=82 velocity=117 time=0
EXTRACT: note_on channel=4 note=34 velocity=115 time=0
EXTRACT: note_on channel=4 note=46 velocity=121 time=0
EXTRACT: note_on channel=9 note=54 velocity=0 time=0.054981942708333335
EXTRACT: note_on channel=9 note=42 velocity=0 time=0.052088156249999996
EXTRACT: note_on channel=9 note=40 velocity=0 time=0.028937864583333334
EXTRACT: note_on channel=9 note=39 velocity=0 time=0
EXTRACT: note_on channel=9 note=54 velocity=45 time=0.0028937864583333333
EXTRACT: note_on channel=9 note=54 velocity=0 time=0.03761922395833333
EXTRACT: note_on channel=4 note=34 velocity=0 time=0.011575145833333333
EXTRACT: note_on channel=3 note=82 velocity=0 time=0.008681359375
EXTRACT: note_on channel=4 note=46 velocity=0 time=0.0028937864583333333
EXTRACT: note_on channel=9 note=42 velocity=90 time=0.078132234375
EXTRACT: note_on channel=9 note=54 velocity=75 time=0
EXTRACT: note_on channel=9 note=56 velocity=59 time=0
EXTRACT: note_on channel=9 note=80 velocity=127 time=0
EXTRACT: note_on channel=3 note=82 velocity=114 time=0
EXTRACT: note_on channel=4 note=34 velocity=110 time=0
EXTRACT: note_on channel=4 note=46 velocity=110 time=0
EXTRACT: note_on channel=9 note=54 velocity=0 time=0.04051301041666667
EXTRACT: note_on channel=9 note=56 velocity=0 time=0.031831651041666666
EXTRACT: note_on channel=9 note=42 velocity=0 time=0.0028937864583333333
EXTRACT: note_on channel=3 note=70 velocity=0 time=0.05787572916666667
EXTRACT: note_on channel=9 note=80 velocity=0 time=0.0028937864583333333
EXTRACT: note_on channel=9 note=54 velocity=49 time=0.0028937864583333333
EXTRACT: note_on channel=9 note=56 velocity=23 time=0
EXTRACT: note_on channel=9 note=54 velocity=0 time=0.04051301041666667
EXTRACT: note_on channel=4 note=34 velocity=0 time=0.054981942708333335
EXTRACT: note_on channel=4 note=46 velocity=0 time=0.011575145833333333
EXTRACT: note_on channel=8 note=68 velocity=0 time=0.01736271875
EXTRACT: note_on channel=2 note=75 velocity=0 time=0.0028937864583333333
EXTRACT: note_on channel=2 note=80 velocity=0 time=0.0057875729166666666
EXTRACT: note_on channel=8 note=72 velocity=0 time=0
EXTRACT: note_on channel=9 note=56 velocity=0 time=0.0028937864583333333
EXTRACT: note_on channel=2 note=84 velocity=0 time=0
EXTRACT: note_on channel=9 note=36 velocity=114 time=0.0028937864583333333
EXTRACT: note_on channel=9 note=42 velocity=122 time=0
EXTRACT: note_on channel=9 note=49 velocity=83 time=0
EXTRACT: note_on channel=9 note=54 velocity=90 time=0
EXTRACT: note_on channel=0 note=34 velocity=126 time=0
EXTRACT: note_on channel=2 note=73 velocity=88 time=0
EXTRACT: note_on channel=2 note=77 velocity=85 time=0
EXTRACT: note_on channel=2 note=82 velocity=84 time=0
EXTRACT: note_on channel=5 note=34 velocity=123 time=0
EXTRACT: note_on channel=5 note=46 velocity=92 time=0
EXTRACT: note_on channel=8 note=75 velocity=0 time=0
EXTRACT: note_on channel=8 note=65 velocity=88 time=0
EXTRACT: note_on channel=8 note=70 velocity=85 time=0
EXTRACT: note_on channel=8 note=73 velocity=84 time=0
EXTRACT: note_on channel=1 note=34 velocity=126 time=0.0217033984375
EXTRACT: note_on channel=3 note=82 velocity=0 time=0.015915825520833333
EXTRACT: note_on channel=9 note=54 velocity=0 time=0.011575145833333333
EXTRACT: note_on channel=9 note=42 velocity=0 time=0.04051301041666667
EXTRACT: note_on channel=9 note=49 velocity=0 time=0.04630058333333333
EXTRACT: note_on channel=9 note=36 velocity=0 time=0
EXTRACT: note_on channel=9 note=54 velocity=42 time=0.0028937864583333333
EXTRACT: note_on channel=9 note=54 velocity=0 time=0.052088156249999996
EXTRACT: note_on channel=9 note=42 velocity=100 time=0.08681359375
EXTRACT: note_on channel=9 note=54 velocity=78 time=0
EXTRACT: note_on channel=9 note=56 velocity=59 time=0
EXTRACT: note_on channel=9 note=80 velocity=127 time=0
EXTRACT: note_on channel=9 note=54 velocity=0 time=0.0347254375
EXTRACT: note_on channel=0 note=34 velocity=0 time=0.0057875729166666666
EXTRACT: note_on channel=1 note=34 velocity=0 time=0.0217033984375
EXTRACT: note_on channel=5 note=46 velocity=0 time=0.007234466145833333
EXTRACT: note_on channel=5 note=34 velocity=0 time=0
EXTRACT: note_on channel=9 note=56 velocity=0 time=0.0028937864583333333
EXTRACT: note_on channel=9 note=42 velocity=0 time=0.0028937864583333333
EXTRACT: note_on channel=9 note=80 velocity=0 time=0.060769515625
EXTRACT: note_on channel=9 note=54 velocity=54 time=0.0028937864583333333
EXTRACT: note_on channel=9 note=56 velocity=23 time=0
EXTRACT: note_on channel=9 note=54 velocity=0 time=0.07523844791666666
EXTRACT: note_on channel=9 note=56 velocity=0 time=0.060769515625
EXTRACT: note_on channel=9 note=39 velocity=80 time=0.0028937864583333333
EXTRACT: note_on channel=9 note=40 velocity=121 time=0
EXTRACT: note_on channel=9 note=42 velocity=114 time=0
EXTRACT: note_on channel=9 note=54 velocity=85 time=0
EXTRACT: note_on channel=0 note=34 velocity=123 time=0
EXTRACT: note_on channel=5 note=34 velocity=124 time=0
EXTRACT: note_on channel=5 note=46 velocity=93 time=0
EXTRACT: note_on channel=1 note=34 velocity=123 time=0.0217033984375
EXTRACT: note_on channel=9 note=54 velocity=0 time=0.0217033984375
EXTRACT: note_on channel=9 note=42 velocity=0 time=0.06366330208333333
EXTRACT: note_on channel=9 note=40 velocity=0 time=0.028937864583333334
EXTRACT: note_on channel=9 note=39 velocity=0 time=0
EXTRACT: note_on channel=9 note=54 velocity=49 time=0.0028937864583333333
EXTRACT: note_on channel=9 note=54 velocity=0 time=0.07234466145833333
EXTRACT: note_on channel=0 note=34 velocity=0 time=0.060769515625
EXTRACT: note_on channel=5 note=34 velocity=0 time=0
EXTRACT: note_on channel=9 note=36 velocity=109 time=0.0057875729166666666
EXTRACT: note_on channel=9 note=42 velocity=90 time=0
EXTRACT: note_on channel=9 note=54 velocity=80 time=0
EXTRACT: note_on channel=9 note=56 velocity=59 time=0
EXTRACT: note_on channel=9 note=80 velocity=127 time=0
EXTRACT: note_on channel=0 note=33 velocity=115 time=0
EXTRACT: note_on channel=4 note=34 velocity=114 time=0
EXTRACT: note_on channel=4 note=46 velocity=121 time=0
EXTRACT: note_on channel=5 note=46 velocity=0 time=0
EXTRACT: note_on channel=5 note=33 velocity=105 time=0
EXTRACT: note_on channel=5 note=45 velocity=74 time=0
EXTRACT: note_on channel=1 note=34 velocity=0 time=0.015915825520833333
EXTRACT: note_on channel=1 note=33 velocity=115 time=0.0057875729166666666
EXTRACT: note_on channel=9 note=54 velocity=0 time=0.0217033984375
EXTRACT: note_on channel=9 note=56 velocity=0 time=0.028937864583333334
EXTRACT: note_on channel=9 note=42 velocity=0 time=0.0028937864583333333
EXTRACT: note_on channel=9 note=36 velocity=0 time=0.031831651041666666
EXTRACT: note_on channel=9 note=80 velocity=0 time=0.028937864583333334
EXTRACT: note_on channel=9 note=54 velocity=52 time=0.0028937864583333333
EXTRACT: note_on channel=9 note=56 velocity=23 time=0
EXTRACT: note_on channel=4 note=34 velocity=0 time=0.011575145833333333
EXTRACT: note_on channel=4 note=46 velocity=0 time=0.0347254375
EXTRACT: note_on channel=9 note=54 velocity=0 time=0.0057875729166666666
EXTRACT: note_on channel=0 note=33 velocity=0 time=0.08102602083333334
EXTRACT: note_on channel=5 note=33 velocity=0 time=0
EXTRACT: note_on channel=9 note=56 velocity=0 time=0.0028937864583333333
EXTRACT: note_on channel=9 note=36 velocity=109 time=0.0028937864583333333
EXTRACT: note_on channel=9 note=42 velocity=122 time=0
EXTRACT: note_on channel=9 note=54 velocity=86 time=0
EXTRACT: note_on channel=0 note=32 velocity=113 time=0
EXTRACT: note_on channel=5 note=45 velocity=0 time=0
EXTRACT: note_on channel=5 note=32 velocity=115 time=0
EXTRACT: note_on channel=5 note=44 velocity=84 time=0
EXTRACT: note_on channel=1 note=33 velocity=0 time=0.015915825520833333
EXTRACT: note_on channel=1 note=32 velocity=113 time=0.0057875729166666666
EXTRACT: note_on channel=9 note=54 velocity=0 time=0.033278544270833335
EXTRACT: note_on channel=9 note=42 velocity=0 time=0.03761922395833333
EXTRACT: note_on channel=9 note=36 velocity=0 time=0.008681359375
EXTRACT: note_on channel=9 note=54 velocity=48 time=0.03761922395833333
EXTRACT: note_on channel=9 note=54 velocity=0 time=0.03761922395833333
EXTRACT: note_on channel=0 note=32 velocity=0 time=0.095494953125
EXTRACT: note_on channel=5 note=32 velocity=0 time=0
EXTRACT: note_on channel=5 note=44 velocity=0 time=0.0028937864583333333
EXTRACT: note_on channel=9 note=36 velocity=113 time=0.0028937864583333333
EXTRACT: note_on channel=9 note=42 velocity=100 time=0
EXTRACT: note_on channel=9 note=54 velocity=81 time=0
EXTRACT: note_on channel=9 note=56 velocity=59 time=0
EXTRACT: note_on channel=9 note=80 velocity=127 time=0
EXTRACT: note_on channel=0 note=31 velocity=119 time=0
EXTRACT: note_on channel=4 note=34 velocity=118 time=0
EXTRACT: note_on channel=4 note=46 velocity=122 time=0
EXTRACT: note_on channel=5 note=31 velocity=110 time=0
EXTRACT: note_on channel=5 note=43 velocity=79 time=0
EXTRACT: note_on channel=1 note=32 velocity=0 time=0.015915825520833333
EXTRACT: note_on channel=1 note=31 velocity=119 time=0.0057875729166666666
EXTRACT: note_on channel=9 note=54 velocity=0 time=0.0303847578125
EXTRACT: note_on channel=9 note=56 velocity=0 time=0.01736271875
EXTRACT: note_on channel=9 note=42 velocity=0 time=0.0057875729166666666
EXTRACT: note_on channel=9 note=36 velocity=0 time=0.060769515625
EXTRACT: note_on channel=9 note=80 velocity=0 time=0
EXTRACT: note_on channel=9 note=54 velocity=65 time=0.0028937864583333333
EXTRACT: note_on channel=9 note=56 velocity=23 time=0
EXTRACT: note_on channel=4 note=34 velocity=0 time=0.04051301041666667
EXTRACT: note_on channel=4 note=46 velocity=0 time=0.0057875729166666666
EXTRACT: note_on channel=9 note=54 velocity=0 time=0.014468932291666667
EXTRACT: note_on channel=0 note=31 velocity=0 time=0.07234466145833333
EXTRACT: note_on channel=5 note=31 velocity=0 time=0
EXTRACT: note_on channel=9 note=56 velocity=0 time=0.0028937864583333333
EXTRACT: note_on channel=9 note=39 velocity=80 time=0.0028937864583333333
EXTRACT: note_on channel=9 note=40 velocity=121 time=0
EXTRACT: note_on channel=9 note=42 velocity=114 time=0
EXTRACT: note_on channel=9 note=54 velocity=82 time=0
EXTRACT: note_on channel=0 note=30 velocity=114 time=0
EXTRACT: note_on channel=4 note=34 velocity=115 time=0
EXTRACT: note_on channel=4 note=46 velocity=121 time=0
EXTRACT: note_on channel=5 note=43 velocity=0 time=0
EXTRACT: note_on channel=5 note=30 velocity=108 time=0
EXTRACT: note_on channel=5 note=42 velocity=77 time=0
EXTRACT: note_on channel=1 note=31 velocity=0 time=0.015915825520833333
EXTRACT: note_on channel=1 note=30 velocity=114 time=0.0057875729166666666
EXTRACT: note_on channel=9 note=54 velocity=0 time=0.033278544270833335
EXTRACT: note_on channel=9 note=42 velocity=0 time=0.052088156249999996
EXTRACT: note_on channel=9 note=40 velocity=0 time=0.028937864583333334
EXTRACT: note_on channel=9 note=39 velocity=0 time=0
EXTRACT: note_on channel=9 note=54 velocity=45 time=0.0028937864583333333
EXTRACT: note_on channel=9 note=54 velocity=0 time=0.03761922395833333
EXTRACT: note_on channel=4 note=34 velocity=0 time=0.011575145833333333
EXTRACT: note_on channel=4 note=46 velocity=0 time=0.008681359375
EXTRACT: note_on channel=5 note=30 velocity=0 time=0.03761922395833333
EXTRACT: note_on channel=5 note=42 velocity=0 time=0.0028937864583333333
EXTRACT: note_on channel=9 note=42 velocity=90 time=0.04051301041666667
EXTRACT: note_on channel=9 note=54 velocity=75 time=0
EXTRACT: note_on channel=9 note=56 velocity=59 time=0
EXTRACT: note_on channel=9 note=80 velocity=127 time=0
EXTRACT: note_on channel=4 note=34 velocity=110 time=0
EXTRACT: note_on channel=4 note=46 velocity=110 time=0
EXTRACT: note_on channel=0 note=30 velocity=0 time=0.028937864583333334
EXTRACT: note_on channel=9 note=54 velocity=0 time=0.011575145833333333
EXTRACT: note_on channel=1 note=30 velocity=0 time=0.010128252604166667
EXTRACT: note_on channel=9 note=56 velocity=0 time=0.018809611979166665
EXTRACT: note_on channel=9 note=42 velocity=0 time=0.0057875729166666666
EXTRACT: note_on channel=9 note=80 velocity=0 time=0.060769515625
EXTRACT: note_on channel=9 note=54 velocity=49 time=0.0028937864583333333
EXTRACT: note_on channel=9 note=56 velocity=23 time=0
EXTRACT: note_on channel=9 note=54 velocity=0 time=0.04051301041666667
EXTRACT: note_on channel=4 note=34 velocity=0 time=0.054981942708333335
EXTRACT: note_on channel=4 note=46 velocity=0 time=0.011575145833333333
EXTRACT: note_on channel=8 note=65 velocity=0 time=0.01736271875
EXTRACT: note_on channel=2 note=73 velocity=0 time=0.0028937864583333333
EXTRACT: note_on channel=8 note=70 velocity=0 time=0.0057875729166666666
EXTRACT: note_on channel=9 note=56 velocity=0 time=0.0028937864583333333
EXTRACT: note_on channel=2 note=82 velocity=0 time=0
EXTRACT: note_on channel=2 note=77 velocity=0 time=0
EXTRACT: note_on channel=8 note=73 velocity=0 time=0
EXTRACT: note_on channel=9 note=36 velocity=116 time=0.0028937864583333333
EXTRACT: note_on channel=9 note=42 velocity=122 time=0
EXTRACT: note_on channel=9 note=54 velocity=90 time=0
EXTRACT: note_on channel=9 note=57 velocity=60 time=0
EXTRACT: note_on channel=0 note=30 velocity=124 time=0
EXTRACT: note_on channel=2 note=73 velocity=86 time=0
EXTRACT: note_on channel=2 note=78 velocity=89 time=0
EXTRACT: note_on channel=2 note=82 velocity=82 time=0
EXTRACT: note_on channel=5 note=30 velocity=124 time=0
EXTRACT: note_on channel=5 note=42 velocity=93 time=0
EXTRACT: note_on channel=8 note=66 velocity=81 time=0
EXTRACT: note_on channel=8 note=70 velocity=84 time=0
EXTRACT: note_on channel=8 note=73 velocity=77 time=0
EXTRACT: note_on channel=1 note=30 velocity=124 time=0.0217033984375
EXTRACT: note_on channel=9 note=54 velocity=0 time=0.027490971354166668
EXTRACT: note_on channel=9 note=42 velocity=0 time=0.043406796875
EXTRACT: note_on channel=9 note=36 velocity=0 time=0.043406796875
EXTRACT: note_on channel=9 note=57 velocity=0 time=0
EXTRACT: note_on channel=9 note=54 velocity=42 time=0.0028937864583333333
EXTRACT: note_on channel=9 note=54 velocity=0 time=0.052088156249999996
EXTRACT: note_on channel=0 note=30 velocity=0 time=0.07234466145833333
EXTRACT: note_on channel=9 note=42 velocity=100 time=0.014468932291666667
EXTRACT: note_on channel=9 note=54 velocity=78 time=0
EXTRACT: note_on channel=9 note=56 velocity=59 time=0
EXTRACT: note_on channel=9 note=80 velocity=127 time=0
EXTRACT: note_on channel=1 note=30 velocity=0 time=0.007234466145833333
EXTRACT: note_on channel=9 note=54 velocity=0 time=0.027490971354166668
EXTRACT: note_on channel=5 note=30 velocity=0 time=0.014468932291666667
EXTRACT: note_on channel=5 note=42 velocity=0 time=0.0028937864583333333
EXTRACT: note_on channel=9 note=56 velocity=0 time=0.020256505208333334
EXTRACT: note_on channel=9 note=42 velocity=0 time=0.0028937864583333333
EXTRACT: note_on channel=9 note=80 velocity=0 time=0.060769515625
EXTRACT: note_on channel=9 note=54 velocity=54 time=0.0028937864583333333
EXTRACT: note_on channel=9 note=56 velocity=23 time=0
EXTRACT: note_on channel=9 note=54 velocity=0 time=0.07523844791666666
EXTRACT: note_on channel=9 note=56 velocity=0 time=0.060769515625
EXTRACT: note_on channel=9 note=39 velocity=80 time=0.0028937864583333333
EXTRACT: note_on channel=9 note=40 velocity=121 time=0
EXTRACT: note_on channel=9 note=42 velocity=114 time=0
EXTRACT: note_on channel=9 note=54 velocity=85 time=0
EXTRACT: note_on channel=0 note=30 velocity=119 time=0
EXTRACT: note_on channel=5 note=30 velocity=121 time=0
EXTRACT: note_on channel=5 note=42 velocity=90 time=0
EXTRACT: note_on channel=1 note=30 velocity=119 time=0.0217033984375
EXTRACT: note_on channel=9 note=54 velocity=0 time=0.0217033984375
EXTRACT: note_on channel=9 note=42 velocity=0 time=0.06366330208333333
EXTRACT: note_on channel=9 note=40 velocity=0 time=0.028937864583333334
EXTRACT: note_on channel=9 note=39 velocity=0 time=0
EXTRACT: note_on channel=9 note=54 velocity=49 time=0.0028937864583333333
EXTRACT: note_on channel=9 note=54 velocity=0 time=0.07234466145833333
EXTRACT: note_on channel=5 note=30 velocity=0 time=0.04051301041666667
EXTRACT: note_on channel=5 note=42 velocity=0 time=0.0028937864583333333
EXTRACT: note_on channel=0 note=30 velocity=0 time=0.01736271875
EXTRACT: note_on channel=9 note=36 velocity=111 time=0.0057875729166666666
EXTRACT: note_on channel=9 note=42 velocity=90 time=0
EXTRACT: note_on channel=9 note=54 velocity=80 time=0
EXTRACT: note_on channel=9 note=56 velocity=59 time=0
EXTRACT: note_on channel=9 note=80 velocity=127 time=0
EXTRACT: note_on channel=0 note=32 velocity=122 time=0
EXTRACT: note_on channel=4 note=34 velocity=114 time=0
EXTRACT: note_on channel=4 note=46 velocity=121 time=0
EXTRACT: note_on channel=5 note=32 velocity=107 time=0
EXTRACT: note_on channel=5 note=44 velocity=76 time=0
EXTRACT: note_on channel=1 note=30 velocity=0 time=0.015915825520833333
EXTRACT: note_on channel=1 note=32 velocity=122 time=0.0057875729166666666
EXTRACT: note_on channel=9 note=54 velocity=0 time=0.0217033984375
EXTRACT: note_on channel=9 note=56 velocity=0 time=0.028937864583333334
EXTRACT: note_on channel=9 note=42 velocity=0 time=0.0028937864583333333
EXTRACT: note_on channel=9 note=36 velocity=0 time=0.020256505208333334
EXTRACT: note_on channel=9 note=80 velocity=0 time=0.04051301041666667
EXTRACT: note_on channel=9 note=54 velocity=52 time=0.0028937864583333333
EXTRACT: note_on channel=9 note=56 velocity=23 time=0
EXTRACT: note_on channel=4 note=34 velocity=0 time=0.014468932291666667
EXTRACT: note_on channel=4 note=46 velocity=0 time=0.031831651041666666
EXTRACT: note_on channel=9 note=54 velocity=0 time=0.0057875729166666666
EXTRACT: note_on channel=2 note=73 velocity=0 time=0.078132234375
EXTRACT: note_on channel=8 note=66 velocity=0 time=0
EXTRACT: note_on channel=0 note=32 velocity=0 time=0.0028937864583333333
EXTRACT: note_on channel=5 note=32 velocity=0 time=0
EXTRACT: note_on channel=9 note=56 velocity=0 time=0.0028937864583333333
EXTRACT: note_on channel=2 note=78 velocity=0 time=0
EXTRACT: note_on channel=8 note=70 velocity=0 time=0
EXTRACT: note_on channel=9 note=36 velocity=112 time=0.0028937864583333333
EXTRACT: note_on channel=9 note=42 velocity=122 time=0
EXTRACT: note_on channel=9 note=54 velocity=86 time=0
EXTRACT: note_on channel=9 note=57 velocity=79 time=0
EXTRACT: note_on channel=0 note=29 velocity=113 time=0
EXTRACT: note_on channel=2 note=82 velocity=0 time=0
EXTRACT: note_on channel=2 note=72 velocity=87 time=0
EXTRACT: note_on channel=2 note=77 velocity=86 time=0
EXTRACT: note_on channel=2 note=81 velocity=83 time=0
EXTRACT: note_on channel=5 note=44 velocity=0 time=0
EXTRACT: note_on channel=5 note=29 velocity=102 time=0
EXTRACT: note_on channel=5 note=41 velocity=71 time=0
EXTRACT: note_on channel=8 note=73 velocity=0 time=0
EXTRACT: note_on channel=8 note=65 velocity=82 time=0
EXTRACT: note_on channel=8 note=69 velocity=81 time=0
EXTRACT: note_on channel=8 note=72 velocity=78 time=0
EXTRACT: note_on channel=1 note=32 velocity=0 time=0.015915825520833333
EXTRACT: note_on channel=1 note=29 velocity=113 time=0.0057875729166666666
EXTRACT: note_on channel=9 note=54 velocity=0 time=0.03617233072916667
EXTRACT: note_on channel=9 note=42 velocity=0 time=0.0347254375
EXTRACT: note_on channel=9 note=36 velocity=0 time=0.043406796875
EXTRACT: note_on channel=9 note=57 velocity=0 time=0
EXTRACT: note_on channel=9 note=54 velocity=48 time=0.0028937864583333333
EXTRACT: note_on channel=9 note=54 velocity=0 time=0.03761922395833333
EXTRACT: note_on channel=5 note=41 velocity=0 time=0.08970738020833333
EXTRACT: note_on channel=5 note=29 velocity=0 time=0
EXTRACT: note_on channel=9 note=42 velocity=100 time=0.011575145833333333
EXTRACT: note_on channel=9 note=54 velocity=81 time=0
EXTRACT: note_on channel=9 note=56 velocity=59 time=0
EXTRACT: note_on channel=9 note=80 velocity=127 time=0
EXTRACT: note_on channel=4 note=34 velocity=118 time=0
EXTRACT: note_on channel=4 note=46 velocity=122 time=0
EXTRACT: note_on channel=9 note=54 velocity=0 time=0.052088156249999996
EXTRACT: note_on channel=9 note=56 velocity=0 time=0.020256505208333334
EXTRACT: note_on channel=9 note=42 velocity=0 time=0.0028937864583333333
EXTRACT: note_on channel=0 note=29 velocity=0 time=0.028937864583333334
EXTRACT: note_on channel=1 note=29 velocity=0 time=0.0217033984375
EXTRACT: note_on channel=9 note=80 velocity=0 time=0.010128252604166667
EXTRACT: note_on channel=9 note=54 velocity=65 time=0.0028937864583333333
EXTRACT: note_on channel=9 note=56 velocity=23 time=0
EXTRACT: note_on channel=4 note=34 velocity=0 time=0.043406796875
EXTRACT: note_on channel=4 note=46 velocity=0 time=0.0057875729166666666
EXTRACT: note_on channel=9 note=54 velocity=0 time=0.011575145833333333
EXTRACT: note_on channel=9 note=56 velocity=0 time=0.07523844791666666
EXTRACT: note_on channel=9 note=39 velocity=80 time=0.0028937864583333333
EXTRACT: note_on channel=9 note=40 velocity=121 time=0
EXTRACT: note_on channel=9 note=42 velocity=114 time=0
EXTRACT: note_on channel=9 note=54 velocity=82 time=0
EXTRACT: note_on channel=3 note=70 velocity=118 time=0
EXTRACT: note_on channel=3 note=82 velocity=118 time=0
EXTRACT: note_on channel=4 note=34 velocity=115 time=0
EXTRACT: note_on channel=4 note=46 velocity=121 time=0
EXTRACT: note_on channel=9 note=54 velocity=0 time=0.054981942708333335
EXTRACT: note_on channel=9 note=42 velocity=0 time=0.052088156249999996
EXTRACT: note_on channel=9 note=40 velocity=0 time=0.028937864583333334
EXTRACT: note_on channel=9 note=39 velocity=0 time=0
EXTRACT: note_on channel=9 note=54 velocity=45 time=0.0028937864583333333
EXTRACT: note_on channel=9 note=54 velocity=0 time=0.03761922395833333
EXTRACT: note_on channel=4 note=34 velocity=0 time=0.011575145833333333
EXTRACT: note_on channel=4 note=46 velocity=0 time=0.011575145833333333
EXTRACT: note_on channel=3 note=82 velocity=0 time=0.01736271875
EXTRACT: note_on channel=3 note=70 velocity=0 time=0.0057875729166666666
EXTRACT: note_on channel=9 note=42 velocity=90 time=0.054981942708333335
EXTRACT: note_on channel=9 note=54 velocity=75 time=0
EXTRACT: note_on channel=9 note=56 velocity=59 time=0
EXTRACT: note_on channel=9 note=80 velocity=127 time=0
EXTRACT: note_on channel=3 note=70 velocity=110 time=0
EXTRACT: note_on channel=3 note=82 velocity=112 time=0
EXTRACT: note_on channel=4 note=34 velocity=110 time=0
EXTRACT: note_on channel=4 note=46 velocity=110 time=0
EXTRACT: note_on channel=9 note=54 velocity=0 time=0.04051301041666667
EXTRACT: note_on channel=9 note=56 velocity=0 time=0.031831651041666666
EXTRACT: note_on channel=9 note=42 velocity=0 time=0.0028937864583333333
EXTRACT: note_on channel=9 note=80 velocity=0 time=0.060769515625
EXTRACT: note_on channel=9 note=54 velocity=49 time=0.0028937864583333333
EXTRACT: note_on channel=9 note=56 velocity=23 time=0
EXTRACT: note_on channel=9 note=54 velocity=0 time=0.04051301041666667
EXTRACT: note_on channel=4 note=34 velocity=0 time=0.05787572916666667
EXTRACT: note_on channel=8 note=65 velocity=0 time=0.0057875729166666666
EXTRACT: note_on channel=4 note=46 velocity=0 time=0.0028937864583333333
EXTRACT: note_on channel=8 note=69 velocity=0 time=0
EXTRACT: note_on channel=8 note=72 velocity=0 time=0.0028937864583333333
EXTRACT: note_on channel=3 note=70 velocity=0 time=0.0028937864583333333
EXTRACT: note_on channel=3 note=82 velocity=0 time=0.0028937864583333333
EXTRACT: note_on channel=2 note=72 velocity=0 time=0.011575145833333333
EXTRACT: note_on channel=9 note=56 velocity=0 time=0.008681359375
EXTRACT: note_on channel=2 note=77 velocity=0 time=0
EXTRACT: note_on channel=9 note=36 velocity=114 time=0.0028937864583333333
EXTRACT: note_on channel=9 note=42 velocity=122 time=0
EXTRACT: note_on channel=9 note=49 velocity=83 time=0
EXTRACT: note_on channel=9 note=54 velocity=90 time=0
EXTRACT: note_on channel=0 note=34 velocity=126 time=0
EXTRACT: note_on channel=2 note=81 velocity=0 time=0
EXTRACT: note_on channel=2 note=73 velocity=88 time=0
EXTRACT: note_on channel=2 note=77 velocity=85 time=0
EXTRACT: note_on channel=2 note=82 velocity=84 time=0
EXTRACT: note_on channel=5 note=34 velocity=123 time=0
EXTRACT: note_on channel=5 note=46 velocity=92 time=0
EXTRACT: note_on channel=8 note=65 velocity=88 time=0
EXTRACT: note_on channel=8 note=70 velocity=85 time=0
EXTRACT: note_on channel=8 note=73 velocity=84 time=0
EXTRACT: note_on channel=1 note=34 velocity=126 time=0.0217033984375
EXTRACT: note_on channel=9 note=54 velocity=0 time=0.027490971354166668
EXTRACT: note_on channel=9 note=42 velocity=0 time=0.043406796875
EXTRACT: note_on channel=9 note=49 velocity=0 time=0.043406796875
EXTRACT: note_on channel=9 note=36 velocity=0 time=0
EXTRACT: note_on channel=9 note=54 velocity=42 time=0.0028937864583333333
EXTRACT: note_on channel=9 note=54 velocity=0 time=0.052088156249999996
EXTRACT: note_on channel=9 note=42 velocity=100 time=0.08681359375
EXTRACT: note_on channel=9 note=54 velocity=78 time=0
EXTRACT: note_on channel=9 note=56 velocity=59 time=0
EXTRACT: note_on channel=9 note=80 velocity=127 time=0
EXTRACT: note_on channel=9 note=54 velocity=0 time=0.0347254375
EXTRACT: note_on channel=0 note=34 velocity=0 time=0.0057875729166666666
EXTRACT: note_on channel=1 note=34 velocity=0 time=0.0217033984375
EXTRACT: note_on channel=5 note=34 velocity=0 time=0.007234466145833333
EXTRACT: note_on channel=9 note=56 velocity=0 time=0.0028937864583333333
EXTRACT: note_on channel=5 note=46 velocity=0 time=0
EXTRACT: note_on channel=9 note=42 velocity=0 time=0.0028937864583333333
EXTRACT: note_on channel=9 note=80 velocity=0 time=0.060769515625
EXTRACT: note_on channel=9 note=54 velocity=54 time=0.0028937864583333333
EXTRACT: note_on channel=9 note=56 velocity=23 time=0
EXTRACT: note_on channel=9 note=54 velocity=0 time=0.07523844791666666
EXTRACT: note_on channel=9 note=56 velocity=0 time=0.060769515625
EXTRACT: note_on channel=9 note=39 velocity=80 time=0.0028937864583333333
EXTRACT: note_on channel=9 note=40 velocity=121 time=0
EXTRACT: note_on channel=9 note=42 velocity=114 time=0
EXTRACT: note_on channel=9 note=54 velocity=85 time=0
EXTRACT: note_on channel=0 note=34 velocity=123 time=0
EXTRACT: note_on channel=5 note=34 velocity=124 time=0
EXTRACT: note_on channel=5 note=46 velocity=93 time=0
EXTRACT: note_on channel=1 note=34 velocity=123 time=0.0217033984375
EXTRACT: note_on channel=9 note=54 velocity=0 time=0.0217033984375
EXTRACT: note_on channel=9 note=42 velocity=0 time=0.06366330208333333
EXTRACT: note_on channel=9 note=40 velocity=0 time=0.028937864583333334
EXTRACT: note_on channel=9 note=39 velocity=0 time=0
EXTRACT: note_on channel=9 note=54 velocity=49 time=0.0028937864583333333
EXTRACT: note_on channel=9 note=54 velocity=0 time=0.07234466145833333
EXTRACT: note_on channel=0 note=34 velocity=0 time=0.060769515625
EXTRACT: note_on channel=5 note=34 velocity=0 time=0
EXTRACT: note_on channel=9 note=36 velocity=109 time=0.0057875729166666666
EXTRACT: note_on channel=9 note=42 velocity=90 time=0
EXTRACT: note_on channel=9 note=54 velocity=80 time=0
EXTRACT: note_on channel=9 note=56 velocity=59 time=0
EXTRACT: note_on channel=9 note=80 velocity=127 time=0
EXTRACT: note_on channel=0 note=33 velocity=115 time=0
EXTRACT: note_on channel=4 note=34 velocity=114 time=0
EXTRACT: note_on channel=4 note=46 velocity=121 time=0
EXTRACT: note_on channel=5 note=46 velocity=0 time=0
EXTRACT: note_on channel=5 note=33 velocity=105 time=0
EXTRACT: note_on channel=5 note=45 velocity=74 time=0
EXTRACT: note_on channel=1 note=34 velocity=0 time=0.015915825520833333
EXTRACT: note_on channel=1 note=33 velocity=115 time=0.0057875729166666666
EXTRACT: note_on channel=9 note=54 velocity=0 time=0.0217033984375
EXTRACT: note_on channel=9 note=56 velocity=0 time=0.026044078124999998
EXTRACT: note_on channel=9 note=42 velocity=0 time=0.0057875729166666666
EXTRACT: note_on channel=9 note=36 velocity=0 time=0.031831651041666666
EXTRACT: note_on channel=9 note=80 velocity=0 time=0.028937864583333334
EXTRACT: note_on channel=9 note=54 velocity=52 time=0.0028937864583333333
EXTRACT: note_on channel=9 note=56 velocity=23 time=0
EXTRACT: note_on channel=4 note=34 velocity=0 time=0.011575145833333333
EXTRACT: note_on channel=4 note=46 velocity=0 time=0.0347254375
EXTRACT: note_on channel=9 note=54 velocity=0 time=0.0057875729166666666
EXTRACT: note_on channel=0 note=33 velocity=0 time=0.08102602083333334
EXTRACT: note_on channel=5 note=33 velocity=0 time=0
EXTRACT: note_on channel=9 note=56 velocity=0 time=0.0028937864583333333
EXTRACT: note_on channel=9 note=36 velocity=109 time=0.0028937864583333333
EXTRACT: note_on channel=9 note=42 velocity=122 time=0
EXTRACT: note_on channel=9 note=54 velocity=86 time=0
EXTRACT: note_on channel=0 note=32 velocity=113 time=0
EXTRACT: note_on channel=5 note=45 velocity=0 time=0
EXTRACT: note_on channel=5 note=32 velocity=115 time=0
EXTRACT: note_on channel=5 note=44 velocity=84 time=0
EXTRACT: note_on channel=1 note=33 velocity=0 time=0.015915825520833333
EXTRACT: note_on channel=1 note=32 velocity=113 time=0.0057875729166666666
EXTRACT: note_on channel=9 note=54 velocity=0 time=0.033278544270833335
EXTRACT: note_on channel=9 note=42 velocity=0 time=0.03761922395833333
EXTRACT: note_on channel=9 note=36 velocity=0 time=0.008681359375
EXTRACT: note_on channel=9 note=54 velocity=48 time=0.03761922395833333
EXTRACT: note_on channel=9 note=54 velocity=0 time=0.03761922395833333
EXTRACT: note_on channel=0 note=32 velocity=0 time=0.095494953125
EXTRACT: note_on channel=5 note=32 velocity=0 time=0
EXTRACT: note_on channel=9 note=36 velocity=113 time=0.0057875729166666666
EXTRACT: note_on channel=9 note=42 velocity=100 time=0
EXTRACT: note_on channel=9 note=54 velocity=81 time=0
EXTRACT: note_on channel=9 note=56 velocity=59 time=0
EXTRACT: note_on channel=9 note=80 velocity=127 time=0
EXTRACT: note_on channel=0 note=31 velocity=119 time=0
EXTRACT: note_on channel=4 note=34 velocity=118 time=0
EXTRACT: note_on channel=4 note=46 velocity=122 time=0
EXTRACT: note_on channel=5 note=44 velocity=0 time=0
EXTRACT: note_on channel=5 note=31 velocity=110 time=0
EXTRACT: note_on channel=5 note=43 velocity=79 time=0
EXTRACT: note_on channel=1 note=32 velocity=0 time=0.015915825520833333
EXTRACT: note_on channel=1 note=31 velocity=119 time=0.0057875729166666666
EXTRACT: note_on channel=9 note=54 velocity=0 time=0.0303847578125
EXTRACT: note_on channel=9 note=56 velocity=0 time=0.01736271875
EXTRACT: note_on channel=9 note=42 velocity=0 time=0.0057875729166666666
EXTRACT: note_on channel=9 note=36 velocity=0 time=0.060769515625
EXTRACT: note_on channel=9 note=80 velocity=0 time=0
EXTRACT: note_on channel=9 note=54 velocity=65 time=0.0028937864583333333
EXTRACT: note_on channel=9 note=56 velocity=23 time=0
EXTRACT: note_on channel=4 note=34 velocity=0 time=0.04051301041666667
EXTRACT: note_on channel=4 note=46 velocity=0 time=0.0057875729166666666
EXTRACT: note_on channel=9 note=54 velocity=0 time=0.014468932291666667
EXTRACT: note_on channel=0 note=31 velocity=0 time=0.07234466145833333
EXTRACT: note_on channel=5 note=31 velocity=0 time=0
EXTRACT: note_on channel=9 note=56 velocity=0 time=0.0028937864583333333
EXTRACT: note_on channel=9 note=39 velocity=80 time=0.0028937864583333333
EXTRACT: note_on channel=9 note=40 velocity=121 time=0
EXTRACT: note_on channel=9 note=42 velocity=114 time=0
EXTRACT: note_on channel=9 note=54 velocity=82 time=0
EXTRACT: note_on channel=0 note=30 velocity=114 time=0
EXTRACT: note_on channel=4 note=34 velocity=115 time=0
EXTRACT: note_on channel=4 note=46 velocity=121 time=0
EXTRACT: note_on channel=5 note=43 velocity=0 time=0
EXTRACT: note_on channel=5 note=30 velocity=108 time=0
EXTRACT: note_on channel=5 note=42 velocity=77 time=0
EXTRACT: note_on channel=1 note=31 velocity=0 time=0.015915825520833333
EXTRACT: note_on channel=1 note=30 velocity=114 time=0.0057875729166666666
EXTRACT: note_on channel=9 note=54 velocity=0 time=0.0303847578125
EXTRACT: note_on channel=9 note=42 velocity=0 time=0.054981942708333335
EXTRACT: note_on channel=9 note=40 velocity=0 time=0.028937864583333334
EXTRACT: note_on channel=9 note=39 velocity=0 time=0
EXTRACT: note_on channel=9 note=54 velocity=45 time=0.0028937864583333333
EXTRACT: note_on channel=9 note=54 velocity=0 time=0.03761922395833333
EXTRACT: note_on channel=4 note=34 velocity=0 time=0.011575145833333333
EXTRACT: note_on channel=4 note=46 velocity=0 time=0.008681359375
EXTRACT: note_on channel=5 note=30 velocity=0 time=0.03761922395833333
EXTRACT: note_on channel=5 note=42 velocity=0 time=0.0028937864583333333
EXTRACT: note_on channel=9 note=42 velocity=90 time=0.04051301041666667
EXTRACT: note_on channel=9 note=54 velocity=75 time=0
EXTRACT: note_on channel=9 note=56 velocity=59 time=0
EXTRACT: note_on channel=9 note=80 velocity=127 time=0
EXTRACT: note_on channel=4 note=34 velocity=110 time=0
EXTRACT: note_on channel=4 note=46 velocity=110 time=0
EXTRACT: note_on channel=0 note=30 velocity=0 time=0.028937864583333334
EXTRACT: note_on channel=9 note=54 velocity=0 time=0.011575145833333333
EXTRACT: note_on channel=1 note=30 velocity=0 time=0.010128252604166667
EXTRACT: note_on channel=9 note=56 velocity=0 time=0.0217033984375
EXTRACT: note_on channel=9 note=42 velocity=0 time=0.0028937864583333333
EXTRACT: note_on channel=9 note=80 velocity=0 time=0.060769515625
EXTRACT: note_on channel=9 note=54 velocity=49 time=0.0028937864583333333
EXTRACT: note_on channel=9 note=56 velocity=23 time=0
EXTRACT: note_on channel=9 note=54 velocity=0 time=0.04051301041666667
EXTRACT: note_on channel=4 note=34 velocity=0 time=0.054981942708333335
EXTRACT: note_on channel=4 note=46 velocity=0 time=0.011575145833333333
EXTRACT: note_on channel=2 note=73 velocity=0 time=0.020256505208333334
EXTRACT: note_on channel=8 note=65 velocity=0 time=0.0028937864583333333
EXTRACT: note_on channel=9 note=56 velocity=0 time=0.0057875729166666666
EXTRACT: note_on channel=2 note=77 velocity=0 time=0
EXTRACT: note_on channel=9 note=36 velocity=116 time=0.0028937864583333333
EXTRACT: note_on channel=9 note=42 velocity=122 time=0
EXTRACT: note_on channel=9 note=54 velocity=90 time=0
EXTRACT: note_on channel=9 note=57 velocity=60 time=0
EXTRACT: note_on channel=0 note=30 velocity=124 time=0
EXTRACT: note_on channel=2 note=82 velocity=0 time=0
EXTRACT: note_on channel=2 note=73 velocity=86 time=0
EXTRACT: note_on channel=2 note=78 velocity=89 time=0
EXTRACT: note_on channel=2 note=82 velocity=82 time=0
EXTRACT: note_on channel=5 note=30 velocity=124 time=0
EXTRACT: note_on channel=5 note=42 velocity=93 time=0
EXTRACT: note_on channel=6 note=58 velocity=127 time=0
EXTRACT: note_on channel=6 note=65 velocity=127 time=0
EXTRACT: note_on channel=6 note=70 velocity=127 time=0
EXTRACT: note_on channel=8 note=73 velocity=0 time=0
EXTRACT: note_on channel=8 note=70 velocity=0 time=0
EXTRACT: note_on channel=8 note=66 velocity=81 time=0
EXTRACT: note_on channel=8 note=70 velocity=84 time=0
EXTRACT: note_on channel=8 note=73 velocity=77 time=0
EXTRACT: note_on channel=1 note=30 velocity=124 time=0.0217033984375
EXTRACT: note_on channel=9 note=54 velocity=0 time=0.027490971354166668
EXTRACT: note_on channel=9 note=42 velocity=0 time=0.043406796875
EXTRACT: note_on channel=9 note=36 velocity=0 time=0.043406796875
EXTRACT: note_on channel=9 note=57 velocity=0 time=0
EXTRACT: note_on channel=9 note=54 velocity=42 time=0.0028937864583333333
EXTRACT: note_on channel=9 note=54 velocity=0 time=0.052088156249999996
EXTRACT: note_on channel=0 note=30 velocity=0 time=0.07234466145833333
EXTRACT: note_on channel=9 note=42 velocity=100 time=0.014468932291666667
EXTRACT: note_on channel=9 note=54 velocity=78 time=0
EXTRACT: note_on channel=9 note=56 velocity=59 time=0
EXTRACT: note_on channel=9 note=80 velocity=127 time=0
EXTRACT: note_on channel=1 note=30 velocity=0 time=0.007234466145833333
EXTRACT: note_on channel=9 note=54 velocity=0 time=0.027490971354166668
EXTRACT: note_on channel=5 note=30 velocity=0 time=0.014468932291666667
EXTRACT: note_on channel=5 note=42 velocity=0 time=0.0028937864583333333
EXTRACT: note_on channel=9 note=56 velocity=0 time=0.020256505208333334
EXTRACT: note_on channel=9 note=42 velocity=0 time=0.0028937864583333333
EXTRACT: note_on channel=9 note=80 velocity=0 time=0.060769515625
EXTRACT: note_on channel=9 note=54 velocity=54 time=0.0028937864583333333
EXTRACT: note_on channel=9 note=56 velocity=23 time=0
EXTRACT: note_on channel=9 note=54 velocity=0 time=0.07523844791666666
EXTRACT: note_on channel=9 note=56 velocity=0 time=0.060769515625
EXTRACT: note_on channel=9 note=39 velocity=80 time=0.0028937864583333333
EXTRACT: note_on channel=9 note=40 velocity=121 time=0
EXTRACT: note_on channel=9 note=42 velocity=114 time=0
EXTRACT: note_on channel=9 note=54 velocity=85 time=0
EXTRACT: note_on channel=0 note=30 velocity=119 time=0
EXTRACT: note_on channel=5 note=30 velocity=121 time=0
EXTRACT: note_on channel=5 note=42 velocity=90 time=0
EXTRACT: note_on channel=1 note=30 velocity=119 time=0.0217033984375
EXTRACT: note_on channel=9 note=54 velocity=0 time=0.0217033984375
EXTRACT: note_on channel=9 note=42 velocity=0 time=0.06366330208333333
EXTRACT: note_on channel=9 note=40 velocity=0 time=0.028937864583333334
EXTRACT: note_on channel=9 note=39 velocity=0 time=0
EXTRACT: note_on channel=9 note=54 velocity=49 time=0.0028937864583333333
EXTRACT: note_on channel=9 note=54 velocity=0 time=0.07234466145833333
EXTRACT: note_on channel=5 note=30 velocity=0 time=0.04051301041666667
EXTRACT: note_on channel=5 note=42 velocity=0 time=0.0028937864583333333
EXTRACT: note_on channel=0 note=30 velocity=0 time=0.01736271875
EXTRACT: note_on channel=9 note=36 velocity=111 time=0.0057875729166666666
EXTRACT: note_on channel=9 note=42 velocity=90 time=0
EXTRACT: note_on channel=9 note=54 velocity=80 time=0
EXTRACT: note_on channel=9 note=56 velocity=59 time=0
EXTRACT: note_on channel=9 note=80 velocity=127 time=0
EXTRACT: note_on channel=0 note=32 velocity=122 time=0
EXTRACT: note_on channel=4 note=34 velocity=114 time=0
EXTRACT: note_on channel=4 note=46 velocity=121 time=0
EXTRACT: note_on channel=5 note=32 velocity=107 time=0
EXTRACT: note_on channel=5 note=44 velocity=76 time=0
EXTRACT: note_on channel=1 note=30 velocity=0 time=0.015915825520833333
EXTRACT: note_on channel=1 note=32 velocity=122 time=0.0057875729166666666
EXTRACT: note_on channel=9 note=54 velocity=0 time=0.0217033984375
EXTRACT: note_on channel=9 note=56 velocity=0 time=0.026044078124999998
EXTRACT: note_on channel=9 note=42 velocity=0 time=0.0057875729166666666
EXTRACT: note_on channel=9 note=36 velocity=0 time=0.020256505208333334
EXTRACT: note_on channel=9 note=80 velocity=0 time=0.04051301041666667
EXTRACT: note_on channel=9 note=54 velocity=52 time=0.0028937864583333333
EXTRACT: note_on channel=9 note=56 velocity=23 time=0
EXTRACT: note_on channel=4 note=34 velocity=0 time=0.011575145833333333
EXTRACT: note_on channel=4 note=46 velocity=0 time=0.0347254375
EXTRACT: note_on channel=9 note=54 velocity=0 time=0.0057875729166666666
EXTRACT: note_on channel=2 note=73 velocity=0 time=0.07523844791666666
EXTRACT: note_on channel=8 note=66 velocity=0 time=0
EXTRACT: note_on channel=0 note=32 velocity=0 time=0.0057875729166666666
EXTRACT: note_on channel=5 note=32 velocity=0 time=0
EXTRACT: note_on channel=8 note=70 velocity=0 time=0
EXTRACT: note_on channel=9 note=56 velocity=0 time=0.0028937864583333333
EXTRACT: note_on channel=2 note=82 velocity=0 time=0
EXTRACT: note_on channel=2 note=78 velocity=0 time=0
EXTRACT: note_on channel=9 note=36 velocity=112 time=0.0028937864583333333
EXTRACT: note_on channel=9 note=42 velocity=122 time=0
EXTRACT: note_on channel=9 note=54 velocity=86 time=0
EXTRACT: note_on channel=9 note=57 velocity=79 time=0
EXTRACT: note_on channel=0 note=29 velocity=113 time=0
EXTRACT: note_on channel=2 note=72 velocity=87 time=0
EXTRACT: note_on channel=2 note=77 velocity=86 time=0
EXTRACT: note_on channel=2 note=81 velocity=83 time=0
EXTRACT: note_on channel=5 note=44 velocity=0 time=0
EXTRACT: note_on channel=5 note=29 velocity=102 time=0
EXTRACT: note_on channel=5 note=41 velocity=71 time=0
EXTRACT: note_on channel=8 note=73 velocity=0 time=0
EXTRACT: note_on channel=8 note=65 velocity=82 time=0
EXTRACT: note_on channel=8 note=69 velocity=81 time=0
EXTRACT: note_on channel=8 note=72 velocity=78 time=0
EXTRACT: note_on channel=1 note=32 velocity=0 time=0.015915825520833333
EXTRACT: note_on channel=1 note=29 velocity=113 time=0.0057875729166666666
EXTRACT: note_on channel=9 note=54 velocity=0 time=0.03617233072916667
EXTRACT: note_on channel=9 note=42 velocity=0 time=0.0347254375
EXTRACT: note_on channel=9 note=36 velocity=0 time=0.043406796875
EXTRACT: note_on channel=9 note=57 velocity=0 time=0
EXTRACT: note_on channel=9 note=54 velocity=48 time=0.0028937864583333333
EXTRACT: note_on channel=10 note=65 velocity=118 time=0
EXTRACT: note_on channel=9 note=54 velocity=0 time=0.03761922395833333
EXTRACT: note_on channel=5 note=41 velocity=0 time=0.08970738020833333
EXTRACT: note_on channel=5 note=29 velocity=0 time=0
EXTRACT: note_on channel=9 note=42 velocity=100 time=0.011575145833333333
EXTRACT: note_on channel=9 note=54 velocity=81 time=0
EXTRACT: note_on channel=9 note=56 velocity=59 time=0
EXTRACT: note_on channel=9 note=80 velocity=127 time=0
EXTRACT: note_on channel=4 note=34 velocity=118 time=0
EXTRACT: note_on channel=4 note=46 velocity=122 time=0
EXTRACT: note_on channel=9 note=54 velocity=0 time=0.052088156249999996
EXTRACT: note_on channel=9 note=56 velocity=0 time=0.01736271875
EXTRACT: note_on channel=9 note=42 velocity=0 time=0.0057875729166666666
EXTRACT: note_on channel=0 note=29 velocity=0 time=0.028937864583333334
EXTRACT: note_on channel=1 note=29 velocity=0 time=0.0217033984375
EXTRACT: note_on channel=9 note=80 velocity=0 time=0.010128252604166667
EXTRACT: note_on channel=9 note=54 velocity=65 time=0.0028937864583333333
EXTRACT: note_on channel=9 note=56 velocity=23 time=0
EXTRACT: note_on channel=4 note=34 velocity=0 time=0.043406796875
EXTRACT: note_on channel=4 note=46 velocity=0 time=0.0057875729166666666
EXTRACT: note_on channel=9 note=54 velocity=0 time=0.011575145833333333
EXTRACT: note_on channel=9 note=56 velocity=0 time=0.07523844791666666
EXTRACT: note_on channel=9 note=39 velocity=80 time=0.0028937864583333333
EXTRACT: note_on channel=9 note=40 velocity=121 time=0
EXTRACT: note_on channel=9 note=42 velocity=114 time=0
EXTRACT: note_on channel=9 note=54 velocity=82 time=0
EXTRACT: note_on channel=4 note=34 velocity=115 time=0
EXTRACT: note_on channel=4 note=46 velocity=121 time=0
EXTRACT: note_on channel=9 note=54 velocity=0 time=0.054981942708333335
EXTRACT: note_on channel=9 note=42 velocity=0 time=0.052088156249999996
EXTRACT: note_on channel=9 note=40 velocity=0 time=0.028937864583333334
EXTRACT: note_on channel=9 note=39 velocity=0 time=0
EXTRACT: note_on channel=9 note=54 velocity=45 time=0.0028937864583333333
EXTRACT: note_on channel=9 note=54 velocity=0 time=0.03761922395833333
EXTRACT: note_on channel=4 note=34 velocity=0 time=0.011575145833333333
EXTRACT: note_on channel=4 note=46 velocity=0 time=0.011575145833333333
EXTRACT: note_on channel=9 note=42 velocity=90 time=0.078132234375
EXTRACT: note_on channel=9 note=54 velocity=75 time=0
EXTRACT: note_on channel=9 note=56 velocity=59 time=0
EXTRACT: note_on channel=9 note=80 velocity=127 time=0
EXTRACT: note_on channel=3 note=53 velocity=126 time=0
EXTRACT: note_on channel=4 note=34 velocity=110 time=0
EXTRACT: note_on channel=4 note=46 velocity=110 time=0
EXTRACT: note_on channel=9 note=54 velocity=0 time=0.04051301041666667
EXTRACT: note_on channel=9 note=56 velocity=0 time=0.031831651041666666
EXTRACT: note_on channel=9 note=42 velocity=0 time=0.0028937864583333333
EXTRACT: note_on channel=9 note=80 velocity=0 time=0.060769515625
EXTRACT: note_on channel=9 note=54 velocity=49 time=0.0028937864583333333
EXTRACT: note_on channel=9 note=56 velocity=23 time=0
EXTRACT: note_on channel=9 note=54 velocity=0 time=0.04051301041666667
EXTRACT: note_on channel=3 note=53 velocity=0 time=0.008681359375
EXTRACT: note_on channel=4 note=34 velocity=0 time=0.04630058333333333
EXTRACT: note_on channel=8 note=65 velocity=0 time=0.008681359375
EXTRACT: note_on channel=4 note=46 velocity=0 time=0.0028937864583333333
EXTRACT: note_on channel=8 note=69 velocity=0 time=0
EXTRACT: note_on channel=6 note=58 velocity=0 time=0.0028937864583333333
EXTRACT: note_on channel=8 note=72 velocity=0 time=0
EXTRACT: note_on channel=6 note=65 velocity=0 time=0.0028937864583333333
EXTRACT: note_on channel=6 note=70 velocity=0 time=0.0028937864583333333
EXTRACT: note_on channel=2 note=72 velocity=0 time=0.011575145833333333
EXTRACT: note_on channel=2 note=81 velocity=0 time=0.0028937864583333333
EXTRACT: note_on channel=2 note=77 velocity=0 time=0
EXTRACT: note_on channel=9 note=56 velocity=0 time=0.0057875729166666666
EXTRACT: note_on channel=10 note=65 velocity=0 time=0
EXTRACT: note_on channel=9 note=36 velocity=107 time=0.0028937864583333333
EXTRACT: note_on channel=9 note=42 velocity=122 time=0
EXTRACT: note_on channel=9 note=49 velocity=83 time=0
EXTRACT: note_on channel=9 note=54 velocity=65 time=0
EXTRACT: note_on channel=3 note=56 velocity=118 time=0
EXTRACT: note_on channel=7 note=25 velocity=125 time=0
EXTRACT: note_on channel=8 note=77 velocity=15 time=0
EXTRACT: note_on channel=8 note=82 velocity=45 time=0
EXTRACT: note_on channel=9 note=54 velocity=0 time=0.049194369791666664
EXTRACT: note_on channel=9 note=42 velocity=0 time=0.04051301041666667
EXTRACT: note_on channel=9 note=49 velocity=0 time=0.04630058333333333
EXTRACT: note_on channel=9 note=36 velocity=0 time=0
EXTRACT: note_on channel=9 note=54 velocity=17 time=0.0028937864583333333
EXTRACT: note_on channel=7 note=25 velocity=0 time=0.043406796875
EXTRACT: note_on channel=9 note=54 velocity=0 time=0.008681359375
EXTRACT: note_on channel=3 note=56 velocity=0 time=0.014468932291666667
EXTRACT: note_on channel=9 note=42 velocity=100 time=0.07234466145833333
EXTRACT: note_on channel=9 note=54 velocity=53 time=0
EXTRACT: note_on channel=9 note=56 velocity=19 time=0
EXTRACT: note_on channel=9 note=67 velocity=36 time=0
EXTRACT: note_on channel=9 note=80 velocity=127 time=0
EXTRACT: note_on channel=3 note=56 velocity=104 time=0
EXTRACT: note_on channel=7 note=88 velocity=83 time=0
EXTRACT: note_on channel=7 note=88 velocity=0 time=0.020256505208333334
EXTRACT: note_on channel=9 note=54 velocity=0 time=0.014468932291666667
EXTRACT: note_on channel=9 note=56 velocity=0 time=0.03761922395833333
EXTRACT: note_on channel=9 note=42 velocity=0 time=0.0028937864583333333
EXTRACT: note_on channel=9 note=67 velocity=0 time=0.0028937864583333333
EXTRACT: note_on channel=3 note=56 velocity=0 time=0.054981942708333335
EXTRACT: note_on channel=9 note=80 velocity=0 time=0.0028937864583333333
EXTRACT: note_on channel=9 note=54 velocity=29 time=0.0028937864583333333
EXTRACT: note_on channel=9 note=56 velocity=10 time=0
EXTRACT: note_on channel=9 note=67 velocity=24 time=0
EXTRACT: note_on channel=3 note=58 velocity=119 time=0
EXTRACT: note_on channel=9 note=67 velocity=0 time=0.07523844791666666
EXTRACT: note_on channel=9 note=54 velocity=0 time=0
EXTRACT: note_on channel=3 note=58 velocity=0 time=0.04630058333333333
EXTRACT: note_on channel=9 note=56 velocity=0 time=0.014468932291666667
EXTRACT: note_on channel=9 note=39 velocity=80 time=0.0028937864583333333
EXTRACT: note_on channel=9 note=40 velocity=121 time=0
EXTRACT: note_on channel=9 note=42 velocity=114 time=0
EXTRACT: note_on channel=9 note=54 velocity=60 time=0
EXTRACT: note_on channel=7 note=76 velocity=127 time=0
EXTRACT: note_on channel=9 note=54 velocity=0 time=0.043406796875
EXTRACT: note_on channel=9 note=42 velocity=0 time=0.06366330208333333
EXTRACT: note_on channel=9 note=40 velocity=0 time=0.028937864583333334
EXTRACT: note_on channel=9 note=39 velocity=0 time=0
EXTRACT: note_on channel=9 note=54 velocity=24 time=0.0028937864583333333
EXTRACT: note_on channel=3 note=58 velocity=117 time=0
EXTRACT: note_on channel=7 note=76 velocity=0 time=0.01736271875
EXTRACT: note_on channel=9 note=54 velocity=0 time=0.054981942708333335
EXTRACT: note_on channel=3 note=58 velocity=0 time=0.028937864583333334
EXTRACT: note_on channel=9 note=36 velocity=102 time=0.03761922395833333
EXTRACT: note_on channel=9 note=42 velocity=90 time=0
EXTRACT: note_on channel=9 note=54 velocity=55 time=0
EXTRACT: note_on channel=9 note=56 velocity=19 time=0
EXTRACT: note_on channel=9 note=67 velocity=33 time=0
EXTRACT: note_on channel=9 note=80 velocity=127 time=0
EXTRACT: note_on channel=3 note=53 velocity=117 time=0
EXTRACT: note_on channel=7 note=25 velocity=120 time=0
EXTRACT: note_on channel=7 note=88 velocity=45 time=0
EXTRACT: note_on channel=7 note=88 velocity=0 time=0.011575145833333333
EXTRACT: note_on channel=9 note=54 velocity=0 time=0.031831651041666666
EXTRACT: note_on channel=9 note=67 velocity=0 time=0.014468932291666667
EXTRACT: note_on channel=9 note=56 velocity=0 time=0.011575145833333333
EXTRACT: note_on channel=9 note=42 velocity=0 time=0.0057875729166666666
EXTRACT: note_on channel=7 note=25 velocity=0 time=0.028937864583333334
EXTRACT: note_on channel=9 note=36 velocity=0 time=0.0028937864583333333
EXTRACT: note_on channel=9 note=80 velocity=0 time=0.028937864583333334
EXTRACT: note_on channel=9 note=54 velocity=27 time=0.0028937864583333333
EXTRACT: note_on channel=9 note=56 velocity=10 time=0
EXTRACT: note_on channel=3 note=53 velocity=0 time=0.049194369791666664
EXTRACT: note_on channel=9 note=54 velocity=0 time=0.0028937864583333333
EXTRACT: note_on channel=9 note=56 velocity=0 time=0.08391980729166666
EXTRACT: note_on channel=9 note=42 velocity=122 time=0.0028937864583333333
EXTRACT: note_on channel=9 note=54 velocity=61 time=0
EXTRACT: note_on channel=3 note=56 velocity=126 time=0
EXTRACT: note_on channel=9 note=54 velocity=0 time=0.054981942708333335
EXTRACT: note_on channel=9 note=42 velocity=0 time=0.03761922395833333
EXTRACT: note_on channel=3 note=56 velocity=0 time=0.011575145833333333
EXTRACT: note_on channel=9 note=54 velocity=23 time=0.0347254375
EXTRACT: note_on channel=9 note=54 velocity=0 time=0.03761922395833333
EXTRACT: note_on channel=9 note=36 velocity=106 time=0.10128252604166667
EXTRACT: note_on channel=9 note=42 velocity=100 time=0
EXTRACT: note_on channel=9 note=54 velocity=56 time=0
EXTRACT: note_on channel=9 note=56 velocity=19 time=0
EXTRACT: note_on channel=9 note=67 velocity=58 time=0
EXTRACT: note_on channel=9 note=80 velocity=127 time=0
EXTRACT: note_on channel=3 note=56 velocity=126 time=0
EXTRACT: note_on channel=7 note=25 velocity=124 time=0
EXTRACT: note_on channel=7 note=88 velocity=87 time=0
EXTRACT: note_on channel=7 note=88 velocity=0 time=0.020256505208333334
EXTRACT: note_on channel=9 note=54 velocity=0 time=0.031831651041666666
EXTRACT: note_on channel=9 note=67 velocity=0 time=0.0028937864583333333
EXTRACT: note_on channel=9 note=56 velocity=0 time=0.01736271875
EXTRACT: note_on channel=9 note=42 velocity=0 time=0.0028937864583333333
EXTRACT: note_on channel=3 note=56 velocity=0 time=0.03761922395833333
EXTRACT: note_on channel=9 note=36 velocity=0 time=0.023150291666666666
EXTRACT: note_on channel=9 note=80 velocity=0 time=0
EXTRACT: note_on channel=9 note=54 velocity=40 time=0.0028937864583333333
EXTRACT: note_on channel=9 note=56 velocity=10 time=0
EXTRACT: note_on channel=9 note=67 velocity=47 time=0
EXTRACT: note_on channel=7 note=25 velocity=0 time=0.05787572916666667
EXTRACT: note_on channel=9 note=54 velocity=0 time=0.0028937864583333333
EXTRACT: note_on channel=9 note=67 velocity=0 time=0.008681359375
EXTRACT: note_on channel=9 note=56 velocity=0 time=0.06655708854166667
EXTRACT: note_on channel=9 note=39 velocity=80 time=0.0028937864583333333
EXTRACT: note_on channel=9 note=40 velocity=121 time=0
EXTRACT: note_on channel=9 note=42 velocity=114 time=0
EXTRACT: note_on channel=9 note=54 velocity=57 time=0
EXTRACT: note_on channel=9 note=67 velocity=49 time=0
EXTRACT: note_on channel=3 note=58 velocity=126 time=0
EXTRACT: note_on channel=7 note=76 velocity=127 time=0
EXTRACT: note_on channel=9 note=54 velocity=0 time=0.054981942708333335
EXTRACT: note_on channel=9 note=67 velocity=0 time=0.026044078124999998
EXTRACT: note_on channel=9 note=42 velocity=0 time=0.026044078124999998
EXTRACT: note_on channel=9 note=40 velocity=0 time=0.028937864583333334
EXTRACT: note_on channel=9 note=39 velocity=0 time=0
EXTRACT: note_on channel=9 note=54 velocity=20 time=0.0028937864583333333
EXTRACT: note_on channel=9 note=67 velocity=51 time=0
EXTRACT: note_on channel=7 note=76 velocity=0 time=0.01736271875
EXTRACT: note_on channel=9 note=54 velocity=0 time=0.020256505208333334
EXTRACT: note_on channel=3 note=58 velocity=0 time=0.0028937864583333333
EXTRACT: note_on channel=9 note=67 velocity=0 time=0.054981942708333335
EXTRACT: note_on channel=9 note=36 velocity=62 time=0.043406796875
EXTRACT: note_on channel=9 note=42 velocity=90 time=0
EXTRACT: note_on channel=9 note=54 velocity=50 time=0
EXTRACT: note_on channel=9 note=56 velocity=19 time=0
EXTRACT: note_on channel=9 note=67 velocity=48 time=0
EXTRACT: note_on channel=9 note=80 velocity=127 time=0
EXTRACT: note_on channel=7 note=25 velocity=80 time=0
EXTRACT: note_on channel=7 note=88 velocity=45 time=0
EXTRACT: note_on channel=7 note=88 velocity=0 time=0.011575145833333333
EXTRACT: note_on channel=9 note=54 velocity=0 time=0.028937864583333334
EXTRACT: note_on channel=9 note=67 velocity=0 time=0.020256505208333334
EXTRACT: note_on channel=9 note=56 velocity=0 time=0.011575145833333333
EXTRACT: note_on channel=9 note=42 velocity=0 time=0.0028937864583333333
EXTRACT: note_on channel=9 note=36 velocity=0 time=0.060769515625
EXTRACT: note_on channel=9 note=80 velocity=0 time=0
EXTRACT: note_on channel=9 note=54 velocity=24 time=0.0028937864583333333
EXTRACT: note_on channel=9 note=56 velocity=10 time=0
EXTRACT: note_on channel=9 note=54 velocity=0 time=0.04051301041666667
EXTRACT: note_on channel=7 note=25 velocity=0 time=0.052088156249999996
EXTRACT: note_on channel=9 note=56 velocity=0 time=0.043406796875
EXTRACT: note_on channel=9 note=36 velocity=109 time=0.0028937864583333333
EXTRACT: note_on channel=9 note=42 velocity=122 time=0
EXTRACT: note_on channel=9 note=54 velocity=65 time=0
EXTRACT: note_on channel=9 note=57 velocity=48 time=0
EXTRACT: note_on channel=7 note=25 velocity=127 time=0
EXTRACT: note_on channel=9 note=54 velocity=0 time=0.049194369791666664
EXTRACT: note_on channel=9 note=42 velocity=0 time=0.043406796875
EXTRACT: note_on channel=9 note=36 velocity=0 time=0.043406796875
EXTRACT: note_on channel=9 note=57 velocity=0 time=0
EXTRACT: note_on channel=9 note=54 velocity=17 time=0.0028937864583333333
EXTRACT: note_on channel=7 note=25 velocity=0 time=0.014468932291666667
EXTRACT: note_on channel=9 note=54 velocity=0 time=0.03761922395833333
EXTRACT: note_on channel=9 note=42 velocity=100 time=0.08681359375
EXTRACT: note_on channel=9 note=54 velocity=53 time=0
EXTRACT: note_on channel=9 note=56 velocity=19 time=0
EXTRACT: note_on channel=9 note=67 velocity=61 time=0
EXTRACT: note_on channel=9 note=80 velocity=127 time=0
EXTRACT: note_on channel=7 note=88 velocity=87 time=0
EXTRACT: note_on channel=7 note=88 velocity=0 time=0.020256505208333334
EXTRACT: note_on channel=9 note=54 velocity=0 time=0.014468932291666667
EXTRACT: note_on channel=9 note=56 velocity=0 time=0.03761922395833333
EXTRACT: note_on channel=9 note=42 velocity=0 time=0.0028937864583333333
EXTRACT: note_on channel=9 note=67 velocity=0 time=0.0028937864583333333
EXTRACT: note_on channel=9 note=80 velocity=0 time=0.05787572916666667
EXTRACT: note_on channel=9 note=54 velocity=29 time=0.0028937864583333333
EXTRACT: note_on channel=9 note=56 velocity=10 time=0
EXTRACT: note_on channel=9 note=67 velocity=49 time=0
EXTRACT: note_on channel=9 note=67 velocity=0 time=0.07523844791666666
EXTRACT: note_on channel=9 note=54 velocity=0 time=0
EXTRACT: note_on channel=9 note=56 velocity=0 time=0.060769515625
EXTRACT: note_on channel=9 note=39 velocity=80 time=0.0028937864583333333
EXTRACT: note_on channel=9 note=40 velocity=121 time=0
EXTRACT: note_on channel=9 note=42 velocity=114 time=0
EXTRACT: note_on channel=9 note=54 velocity=60 time=0
EXTRACT: note_on channel=7 note=76 velocity=127 time=0
EXTRACT: note_on channel=9 note=54 velocity=0 time=0.043406796875
EXTRACT: note_on channel=9 note=42 velocity=0 time=0.06366330208333333
EXTRACT: note_on channel=9 note=40 velocity=0 time=0.028937864583333334
EXTRACT: note_on channel=9 note=39 velocity=0 time=0
EXTRACT: note_on channel=9 note=54 velocity=24 time=0.0028937864583333333
EXTRACT: note_on channel=7 note=76 velocity=0 time=0.01736271875
EXTRACT: note_on channel=9 note=54 velocity=0 time=0.054981942708333335
EXTRACT: note_on channel=9 note=36 velocity=67 time=0.06655708854166667
EXTRACT: note_on channel=9 note=42 velocity=90 time=0
EXTRACT: note_on channel=9 note=54 velocity=55 time=0
EXTRACT: note_on channel=9 note=56 velocity=19 time=0
EXTRACT: note_on channel=9 note=67 velocity=58 time=0
EXTRACT: note_on channel=9 note=80 velocity=127 time=0
EXTRACT: note_on channel=7 note=25 velocity=85 time=0
EXTRACT: note_on channel=7 note=88 velocity=83 time=0
EXTRACT: note_on channel=7 note=88 velocity=0 time=0.011575145833333333
EXTRACT: note_on channel=9 note=54 velocity=0 time=0.028937864583333334
EXTRACT: note_on channel=9 note=67 velocity=0 time=0.01736271875
EXTRACT: note_on channel=9 note=56 velocity=0 time=0.011575145833333333
EXTRACT: note_on channel=9 note=42 velocity=0 time=0.0057875729166666666
EXTRACT: note_on channel=9 note=36 velocity=0 time=0.060769515625
EXTRACT: note_on channel=9 note=80 velocity=0 time=0
EXTRACT: note_on channel=9 note=54 velocity=27 time=0.0028937864583333333
EXTRACT: note_on channel=9 note=56 velocity=10 time=0
EXTRACT: note_on channel=9 note=54 velocity=0 time=0.052088156249999996
EXTRACT: note_on channel=7 note=25 velocity=0 time=0.08102602083333334
EXTRACT: note_on channel=9 note=56 velocity=0 time=0.0028937864583333333
EXTRACT: note_on channel=9 note=36 velocity=105 time=0.0028937864583333333
EXTRACT: note_on channel=9 note=42 velocity=122 time=0
EXTRACT: note_on channel=9 note=54 velocity=61 time=0
EXTRACT: note_on channel=7 note=25 velocity=123 time=0
EXTRACT: note_on channel=9 note=54 velocity=0 time=0.05787572916666667
EXTRACT: note_on channel=9 note=42 velocity=0 time=0.0347254375
EXTRACT: note_on channel=9 note=36 velocity=0 time=0.043406796875
EXTRACT: note_on channel=7 note=25 velocity=0 time=0
EXTRACT: note_on channel=9 note=54 velocity=23 time=0.0028937864583333333
EXTRACT: note_on channel=9 note=54 velocity=0 time=0.03761922395833333
EXTRACT: note_on channel=9 note=42 velocity=100 time=0.10128252604166667
EXTRACT: note_on channel=9 note=54 velocity=56 time=0
EXTRACT: note_on channel=9 note=56 velocity=19 time=0
EXTRACT: note_on channel=9 note=67 velocity=64 time=0
EXTRACT: note_on channel=9 note=76 velocity=60 time=0
EXTRACT: note_on channel=9 note=80 velocity=127 time=0
EXTRACT: note_on channel=7 note=88 velocity=89 time=0
EXTRACT: note_on channel=7 note=88 velocity=0 time=0.020256505208333334
EXTRACT: note_on channel=9 note=67 velocity=0 time=0.028937864583333334
EXTRACT: note_on channel=9 note=54 velocity=0 time=0.0028937864583333333
EXTRACT: note_on channel=9 note=76 velocity=0 time=0.008681359375
EXTRACT: note_on channel=9 note=56 velocity=0 time=0.011575145833333333
EXTRACT: note_on channel=9 note=42 velocity=0 time=0.0028937864583333333
EXTRACT: note_on channel=9 note=80 velocity=0 time=0.060769515625
EXTRACT: note_on channel=9 note=54 velocity=40 time=0.0028937864583333333
EXTRACT: note_on channel=9 note=56 velocity=10 time=0
EXTRACT: note_on channel=9 note=67 velocity=43 time=0
EXTRACT: note_on channel=9 note=76 velocity=46 time=0
EXTRACT: note_on channel=9 note=54 velocity=0 time=0.060769515625
EXTRACT: note_on channel=9 note=76 velocity=0 time=0.020256505208333334
EXTRACT: note_on channel=9 note=67 velocity=0 time=0.0028937864583333333
EXTRACT: note_on channel=9 note=56 velocity=0 time=0.052088156249999996
EXTRACT: note_on channel=9 note=39 velocity=80 time=0.0028937864583333333
EXTRACT: note_on channel=9 note=40 velocity=121 time=0
EXTRACT: note_on channel=9 note=42 velocity=114 time=0
EXTRACT: note_on channel=9 note=54 velocity=57 time=0
EXTRACT: note_on channel=9 note=76 velocity=57 time=0
EXTRACT: note_on channel=7 note=76 velocity=127 time=0
EXTRACT: note_on channel=9 note=54 velocity=0 time=0.054981942708333335
EXTRACT: note_on channel=9 note=76 velocity=0 time=0.026044078124999998
EXTRACT: note_on channel=9 note=42 velocity=0 time=0.026044078124999998
EXTRACT: note_on channel=9 note=40 velocity=0 time=0.028937864583333334
EXTRACT: note_on channel=9 note=39 velocity=0 time=0
EXTRACT: note_on channel=9 note=54 velocity=20 time=0.0028937864583333333
EXTRACT: note_on channel=9 note=76 velocity=42 time=0
EXTRACT: note_on channel=7 note=76 velocity=0 time=0.01736271875
EXTRACT: note_on channel=9 note=54 velocity=0 time=0.020256505208333334
EXTRACT: note_on channel=9 note=76 velocity=0 time=0.049194369791666664
EXTRACT: note_on channel=9 note=36 velocity=32 time=0.052088156249999996
EXTRACT: note_on channel=9 note=42 velocity=90 time=0
EXTRACT: note_on channel=9 note=54 velocity=50 time=0
EXTRACT: note_on channel=9 note=56 velocity=19 time=0
EXTRACT: note_on channel=9 note=67 velocity=52 time=0
EXTRACT: note_on channel=9 note=76 velocity=55 time=0
EXTRACT: note_on channel=9 note=80 velocity=127 time=0
EXTRACT: note_on channel=7 note=25 velocity=50 time=0
EXTRACT: note_on channel=7 note=88 velocity=45 time=0
EXTRACT: note_on channel=7 note=88 velocity=0 time=0.011575145833333333
EXTRACT: note_on channel=9 note=54 velocity=0 time=0.028937864583333334
EXTRACT: note_on channel=9 note=67 velocity=0 time=0.011575145833333333
EXTRACT: note_on channel=9 note=76 velocity=0 time=0.0057875729166666666
EXTRACT: note_on channel=9 note=56 velocity=0 time=0.014468932291666667
EXTRACT: note_on channel=9 note=42 velocity=0 time=0.0028937864583333333
EXTRACT: note_on channel=9 note=36 velocity=0 time=0.060769515625
EXTRACT: note_on channel=9 note=80 velocity=0 time=0
EXTRACT: note_on channel=9 note=54 velocity=24 time=0.0028937864583333333
EXTRACT: note_on channel=9 note=56 velocity=10 time=0
EXTRACT: note_on channel=9 note=54 velocity=0 time=0.04051301041666667
EXTRACT: note_on channel=7 note=25 velocity=0 time=0.052088156249999996
EXTRACT: note_on channel=9 note=56 velocity=0 time=0.043406796875
EXTRACT: note_on channel=9 note=36 velocity=107 time=0.0028937864583333333
EXTRACT: note_on channel=9 note=42 velocity=122 time=0
EXTRACT: note_on channel=9 note=54 velocity=65 time=0
EXTRACT: note_on channel=9 note=57 velocity=48 time=0
EXTRACT: note_on channel=3 note=56 velocity=127 time=0
EXTRACT: note_on channel=7 note=25 velocity=125 time=0
EXTRACT: note_on channel=9 note=54 velocity=0 time=0.049194369791666664
EXTRACT: note_on channel=9 note=42 velocity=0 time=0.043406796875
EXTRACT: note_on channel=9 note=36 velocity=0 time=0.043406796875
EXTRACT: note_on channel=9 note=57 velocity=0 time=0
EXTRACT: note_on channel=9 note=54 velocity=17 time=0.0028937864583333333
EXTRACT: note_on channel=3 note=56 velocity=0 time=0.01736271875
EXTRACT: note_on channel=7 note=25 velocity=0 time=0.026044078124999998
EXTRACT: note_on channel=9 note=54 velocity=0 time=0.008681359375
EXTRACT: note_on channel=9 note=42 velocity=100 time=0.08681359375
EXTRACT: note_on channel=9 note=54 velocity=53 time=0
EXTRACT: note_on channel=9 note=56 velocity=19 time=0
EXTRACT: note_on channel=9 note=67 velocity=36 time=0
EXTRACT: note_on channel=9 note=80 velocity=127 time=0
EXTRACT: note_on channel=3 note=56 velocity=114 time=0
EXTRACT: note_on channel=7 note=88 velocity=83 time=0
EXTRACT: note_on channel=7 note=88 velocity=0 time=0.020256505208333334
EXTRACT: note_on channel=9 note=54 velocity=0 time=0.014468932291666667
EXTRACT: note_on channel=9 note=56 velocity=0 time=0.03761922395833333
EXTRACT: note_on channel=9 note=42 velocity=0 time=0.0028937864583333333
EXTRACT: note_on channel=9 note=67 velocity=0 time=0.0028937864583333333
EXTRACT: note_on channel=3 note=56 velocity=0 time=0.049194369791666664
EXTRACT: note_on channel=9 note=80 velocity=0 time=0.008681359375
EXTRACT: note_on channel=9 note=54 velocity=29 time=0.0028937864583333333
EXTRACT: note_on channel=9 note=56 velocity=10 time=0
EXTRACT: note_on channel=9 note=67 velocity=24 time=0
EXTRACT: note_on channel=3 note=58 velocity=127 time=0
EXTRACT: note_on channel=9 note=67 velocity=0 time=0.07523844791666666
EXTRACT: note_on channel=9 note=54 velocity=0 time=0
EXTRACT: note_on channel=3 note=58 velocity=0 time=0.04051301041666667
EXTRACT: note_on channel=9 note=56 velocity=0 time=0.020256505208333334
EXTRACT: note_on channel=9 note=39 velocity=80 time=0.0028937864583333333
EXTRACT: note_on channel=9 note=40 velocity=121 time=0
EXTRACT: note_on channel=9 note=42 velocity=114 time=0
EXTRACT: note_on channel=9 note=54 velocity=60 time=0
EXTRACT: note_on channel=7 note=76 velocity=127 time=0
EXTRACT: note_on channel=9 note=54 velocity=0 time=0.043406796875
EXTRACT: note_on channel=9 note=42 velocity=0 time=0.06366330208333333
EXTRACT: note_on channel=9 note=40 velocity=0 time=0.028937864583333334
EXTRACT: note_on channel=9 note=39 velocity=0 time=0
EXTRACT: note_on channel=9 note=54 velocity=24 time=0.0028937864583333333
EXTRACT: note_on channel=3 note=58 velocity=123 time=0
EXTRACT: note_on channel=7 note=76 velocity=0 time=0.01736271875
EXTRACT: note_on channel=9 note=54 velocity=0 time=0.054981942708333335
EXTRACT: note_on channel=3 note=58 velocity=0 time=0.04051301041666667
EXTRACT: note_on channel=9 note=36 velocity=102 time=0.026044078124999998
EXTRACT: note_on channel=9 note=42 velocity=90 time=0
EXTRACT: note_on channel=9 note=54 velocity=55 time=0
EXTRACT: note_on channel=9 note=56 velocity=19 time=0
EXTRACT: note_on channel=9 note=67 velocity=33 time=0
EXTRACT: note_on channel=9 note=80 velocity=127 time=0
EXTRACT: note_on channel=3 note=53 velocity=125 time=0
EXTRACT: note_on channel=7 note=25 velocity=120 time=0
EXTRACT: note_on channel=7 note=88 velocity=45 time=0
EXTRACT: note_on channel=7 note=88 velocity=0 time=0.011575145833333333
EXTRACT: note_on channel=9 note=54 velocity=0 time=0.031831651041666666
EXTRACT: note_on channel=9 note=67 velocity=0 time=0.014468932291666667
EXTRACT: note_on channel=9 note=56 velocity=0 time=0.014468932291666667
EXTRACT: note_on channel=9 note=42 velocity=0 time=0.0028937864583333333
EXTRACT: note_on channel=7 note=25 velocity=0 time=0.028937864583333334
EXTRACT: note_on channel=9 note=36 velocity=0 time=0.0028937864583333333
EXTRACT: note_on channel=3 note=53 velocity=0 time=0.026044078124999998
EXTRACT: note_on channel=9 note=80 velocity=0 time=0.0028937864583333333
EXTRACT: note_on channel=9 note=54 velocity=27 time=0.0028937864583333333
EXTRACT: note_on channel=9 note=56 velocity=10 time=0
EXTRACT: note_on channel=9 note=54 velocity=0 time=0.052088156249999996
EXTRACT: note_on channel=9 note=56 velocity=0 time=0.08391980729166666
EXTRACT: note_on channel=9 note=42 velocity=122 time=0.0028937864583333333
EXTRACT: note_on channel=9 note=54 velocity=61 time=0
EXTRACT: note_on channel=3 note=51 velocity=114 time=0
EXTRACT: note_on channel=9 note=54 velocity=0 time=0.05787572916666667
EXTRACT: note_on channel=9 note=42 velocity=0 time=0.0347254375
EXTRACT: note_on channel=9 note=54 velocity=23 time=0.04630058333333333
EXTRACT: note_on channel=3 note=51 velocity=0 time=0.0028937864583333333
EXTRACT: note_on channel=9 note=54 velocity=0 time=0.0347254375
EXTRACT: note_on channel=9 note=36 velocity=106 time=0.10128252604166667
EXTRACT: note_on channel=9 note=42 velocity=100 time=0
EXTRACT: note_on channel=9 note=54 velocity=56 time=0
EXTRACT: note_on channel=9 note=56 velocity=19 time=0
EXTRACT: note_on channel=9 note=67 velocity=58 time=0
EXTRACT: note_on channel=9 note=80 velocity=127 time=0
EXTRACT: note_on channel=3 note=51 velocity=114 time=0
EXTRACT: note_on channel=7 note=25 velocity=124 time=0
EXTRACT: note_on channel=7 note=88 velocity=87 time=0
EXTRACT: note_on channel=7 note=88 velocity=0 time=0.020256505208333334
EXTRACT: note_on channel=9 note=54 velocity=0 time=0.031831651041666666
EXTRACT: note_on channel=9 note=67 velocity=0 time=0.0028937864583333333
EXTRACT: note_on channel=9 note=56 velocity=0 time=0.01736271875
EXTRACT: note_on channel=9 note=42 velocity=0 time=0.0028937864583333333
EXTRACT: note_on channel=9 note=36 velocity=0 time=0.060769515625
EXTRACT: note_on channel=9 note=80 velocity=0 time=0
EXTRACT: note_on channel=9 note=54 velocity=40 time=0.0028937864583333333
EXTRACT: note_on channel=9 note=56 velocity=10 time=0
EXTRACT: note_on channel=9 note=67 velocity=47 time=0
EXTRACT: note_on channel=3 note=51 velocity=0 time=0
EXTRACT: note_on channel=7 note=25 velocity=0 time=0.05787572916666667
EXTRACT: note_on channel=9 note=54 velocity=0 time=0.0028937864583333333
EXTRACT: note_on channel=9 note=67 velocity=0 time=0.008681359375
EXTRACT: note_on channel=9 note=56 velocity=0 time=0.06655708854166667
EXTRACT: note_on channel=9 note=39 velocity=80 time=0.0028937864583333333
EXTRACT: note_on channel=9 note=40 velocity=121 time=0
EXTRACT: note_on channel=9 note=42 velocity=114 time=0
EXTRACT: note_on channel=9 note=54 velocity=57 time=0
EXTRACT: note_on channel=9 note=67 velocity=49 time=0
EXTRACT: note_on channel=3 note=51 velocity=121 time=0
EXTRACT: note_on channel=7 note=76 velocity=127 time=0
EXTRACT: note_on channel=9 note=54 velocity=0 time=0.054981942708333335
EXTRACT: note_on channel=9 note=67 velocity=0 time=0.026044078124999998
EXTRACT: note_on channel=9 note=42 velocity=0 time=0.026044078124999998
EXTRACT: note_on channel=9 note=40 velocity=0 time=0.028937864583333334
EXTRACT: note_on channel=9 note=39 velocity=0 time=0
EXTRACT: note_on channel=9 note=54 velocity=20 time=0.0028937864583333333
EXTRACT: note_on channel=9 note=67 velocity=51 time=0
EXTRACT: note_on channel=7 note=76 velocity=0 time=0.01736271875
EXTRACT: note_on channel=9 note=54 velocity=0 time=0.020256505208333334
EXTRACT: note_on channel=9 note=67 velocity=0 time=0.05787572916666667
EXTRACT: note_on channel=3 note=51 velocity=0 time=0.03761922395833333
EXTRACT: note_on channel=9 note=36 velocity=62 time=0.0057875729166666666
EXTRACT: note_on channel=9 note=42 velocity=90 time=0
EXTRACT: note_on channel=9 note=54 velocity=50 time=0
EXTRACT: note_on channel=9 note=56 velocity=19 time=0
EXTRACT: note_on channel=9 note=67 velocity=48 time=0
EXTRACT: note_on channel=9 note=80 velocity=127 time=0
EXTRACT: note_on channel=3 note=49 velocity=126 time=0
EXTRACT: note_on channel=7 note=25 velocity=80 time=0
EXTRACT: note_on channel=7 note=88 velocity=45 time=0
EXTRACT: note_on channel=7 note=88 velocity=0 time=0.011575145833333333
EXTRACT: note_on channel=9 note=54 velocity=0 time=0.028937864583333334
EXTRACT: note_on channel=9 note=67 velocity=0 time=0.020256505208333334
EXTRACT: note_on channel=9 note=56 velocity=0 time=0.008681359375
EXTRACT: note_on channel=9 note=42 velocity=0 time=0.0057875729166666666
EXTRACT: note_on channel=9 note=36 velocity=0 time=0.060769515625
EXTRACT: note_on channel=9 note=80 velocity=0 time=0
EXTRACT: note_on channel=9 note=54 velocity=24 time=0.0028937864583333333
EXTRACT: note_on channel=9 note=56 velocity=10 time=0
EXTRACT: note_on channel=3 note=49 velocity=0 time=0.020256505208333334
EXTRACT: note_on channel=9 note=54 velocity=0 time=0.020256505208333334
EXTRACT: note_on channel=7 note=25 velocity=0 time=0.052088156249999996
EXTRACT: note_on channel=9 note=56 velocity=0 time=0.043406796875
EXTRACT: note_on channel=9 note=36 velocity=109 time=0.0028937864583333333
EXTRACT: note_on channel=9 note=42 velocity=122 time=0
EXTRACT: note_on channel=9 note=54 velocity=65 time=0
EXTRACT: note_on channel=9 note=57 velocity=48 time=0
EXTRACT: note_on channel=7 note=25 velocity=127 time=0
EXTRACT: note_on channel=9 note=54 velocity=0 time=0.049194369791666664
EXTRACT: note_on channel=9 note=42 velocity=0 time=0.043406796875
EXTRACT: note_on channel=9 note=36 velocity=0 time=0.043406796875
EXTRACT: note_on channel=9 note=57 velocity=0 time=0
EXTRACT: note_on channel=9 note=54 velocity=17 time=0.0028937864583333333
EXTRACT: note_on channel=7 note=25 velocity=0 time=0.014468932291666667
EXTRACT: note_on channel=9 note=54 velocity=0 time=0.03761922395833333
EXTRACT: note_on channel=9 note=42 velocity=100 time=0.08681359375
EXTRACT: note_on channel=9 note=54 velocity=53 time=0
EXTRACT: note_on channel=9 note=56 velocity=19 time=0
EXTRACT: note_on channel=9 note=67 velocity=61 time=0
EXTRACT: note_on channel=9 note=80 velocity=127 time=0
EXTRACT: note_on channel=7 note=88 velocity=87 time=0
EXTRACT: note_on channel=7 note=88 velocity=0 time=0.020256505208333334
EXTRACT: note_on channel=9 note=54 velocity=0 time=0.014468932291666667
EXTRACT: note_on channel=9 note=56 velocity=0 time=0.03761922395833333
EXTRACT: note_on channel=9 note=42 velocity=0 time=0.0028937864583333333
EXTRACT: note_on channel=9 note=67 velocity=0 time=0.0028937864583333333
EXTRACT: note_on channel=9 note=80 velocity=0 time=0.05787572916666667
EXTRACT: note_on channel=9 note=54 velocity=29 time=0.0028937864583333333
EXTRACT: note_on channel=9 note=56 velocity=10 time=0
EXTRACT: note_on channel=9 note=67 velocity=49 time=0
EXTRACT: note_on channel=9 note=67 velocity=0 time=0.07523844791666666
EXTRACT: note_on channel=9 note=54 velocity=0 time=0
EXTRACT: note_on channel=9 note=56 velocity=0 time=0.060769515625
EXTRACT: note_on channel=9 note=39 velocity=80 time=0.0028937864583333333
EXTRACT: note_on channel=9 note=40 velocity=121 time=0
EXTRACT: note_on channel=9 note=42 velocity=114 time=0
EXTRACT: note_on channel=9 note=54 velocity=60 time=0
EXTRACT: note_on channel=7 note=76 velocity=127 time=0
EXTRACT: note_on channel=9 note=54 velocity=0 time=0.04051301041666667
EXTRACT: note_on channel=9 note=42 velocity=0 time=0.06655708854166667
EXTRACT: note_on channel=9 note=40 velocity=0 time=0.028937864583333334
EXTRACT: note_on channel=9 note=39 velocity=0 time=0
EXTRACT: note_on channel=9 note=54 velocity=24 time=0.0028937864583333333
EXTRACT: note_on channel=7 note=76 velocity=0 time=0.01736271875
EXTRACT: note_on channel=9 note=54 velocity=0 time=0.054981942708333335
EXTRACT: note_on channel=9 note=36 velocity=67 time=0.06655708854166667
EXTRACT: note_on channel=9 note=42 velocity=90 time=0
EXTRACT: note_on channel=9 note=54 velocity=55 time=0
EXTRACT: note_on channel=9 note=56 velocity=19 time=0
EXTRACT: note_on channel=9 note=67 velocity=58 time=0
EXTRACT: note_on channel=9 note=80 velocity=127 time=0
EXTRACT: note_on channel=7 note=25 velocity=85 time=0
EXTRACT: note_on channel=7 note=88 velocity=83 time=0
EXTRACT: note_on channel=7 note=88 velocity=0 time=0.011575145833333333
EXTRACT: note_on channel=9 note=54 velocity=0 time=0.031831651041666666
EXTRACT: note_on channel=9 note=67 velocity=0 time=0.014468932291666667
EXTRACT: note_on channel=9 note=56 velocity=0 time=0.014468932291666667
EXTRACT: note_on channel=9 note=42 velocity=0 time=0.0028937864583333333
EXTRACT: note_on channel=9 note=36 velocity=0 time=0.060769515625
EXTRACT: note_on channel=9 note=80 velocity=0 time=0
EXTRACT: note_on channel=9 note=54 velocity=27 time=0.0028937864583333333
EXTRACT: note_on channel=9 note=56 velocity=10 time=0
EXTRACT: note_on channel=9 note=54 velocity=0 time=0.052088156249999996
EXTRACT: note_on channel=7 note=25 velocity=0 time=0.08102602083333334
EXTRACT: note_on channel=9 note=56 velocity=0 time=0.0028937864583333333
EXTRACT: note_on channel=9 note=36 velocity=105 time=0.0028937864583333333
EXTRACT: note_on channel=9 note=42 velocity=122 time=0
EXTRACT: note_on channel=9 note=54 velocity=61 time=0
EXTRACT: note_on channel=7 note=25 velocity=123 time=0
EXTRACT: note_on channel=9 note=54 velocity=0 time=0.054981942708333335
EXTRACT: note_on channel=9 note=42 velocity=0 time=0.03761922395833333
EXTRACT: note_on channel=9 note=36 velocity=0 time=0.043406796875
EXTRACT: note_on channel=7 note=25 velocity=0 time=0
EXTRACT: note_on channel=9 note=54 velocity=23 time=0.0028937864583333333
EXTRACT: note_on channel=9 note=54 velocity=0 time=0.03761922395833333
EXTRACT: note_on channel=9 note=42 velocity=100 time=0.10128252604166667
EXTRACT: note_on channel=9 note=54 velocity=56 time=0
EXTRACT: note_on channel=9 note=56 velocity=19 time=0
EXTRACT: note_on channel=9 note=67 velocity=64 time=0
EXTRACT: note_on channel=9 note=76 velocity=60 time=0
EXTRACT: note_on channel=9 note=80 velocity=127 time=0
EXTRACT: note_on channel=7 note=88 velocity=89 time=0
EXTRACT: note_on channel=7 note=88 velocity=0 time=0.020256505208333334
EXTRACT: note_on channel=9 note=67 velocity=0 time=0.028937864583333334
EXTRACT: note_on channel=9 note=54 velocity=0 time=0.0028937864583333333
EXTRACT: note_on channel=9 note=76 velocity=0 time=0.008681359375
EXTRACT: note_on channel=9 note=56 velocity=0 time=0.011575145833333333
EXTRACT: note_on channel=9 note=42 velocity=0 time=0.0028937864583333333
EXTRACT: note_on channel=9 note=80 velocity=0 time=0.060769515625
EXTRACT: note_on channel=9 note=54 velocity=40 time=0.0028937864583333333
EXTRACT: note_on channel=9 note=56 velocity=10 time=0
EXTRACT: note_on channel=9 note=67 velocity=43 time=0
EXTRACT: note_on channel=9 note=76 velocity=46 time=0
EXTRACT: note_on channel=9 note=54 velocity=0 time=0.060769515625
EXTRACT: note_on channel=9 note=76 velocity=0 time=0.020256505208333334
EXTRACT: note_on channel=9 note=67 velocity=0 time=0.0028937864583333333
EXTRACT: note_on channel=9 note=56 velocity=0 time=0.052088156249999996
EXTRACT: note_on channel=9 note=39 velocity=80 time=0.0028937864583333333
EXTRACT: note_on channel=9 note=40 velocity=121 time=0
EXTRACT: note_on channel=9 note=42 velocity=114 time=0
EXTRACT: note_on channel=9 note=54 velocity=57 time=0
EXTRACT: note_on channel=9 note=76 velocity=57 time=0
EXTRACT: note_on channel=7 note=76 velocity=127 time=0
EXTRACT: note_on channel=9 note=54 velocity=0 time=0.054981942708333335
EXTRACT: note_on channel=9 note=76 velocity=0 time=0.026044078124999998
EXTRACT: note_on channel=9 note=42 velocity=0 time=0.026044078124999998
EXTRACT: note_on channel=9 note=40 velocity=0 time=0.028937864583333334
EXTRACT: note_on channel=9 note=39 velocity=0 time=0
EXTRACT: note_on channel=9 note=54 velocity=20 time=0.0028937864583333333
EXTRACT: note_on channel=9 note=76 velocity=42 time=0
EXTRACT: note_on channel=7 note=76 velocity=0 time=0.01736271875
EXTRACT: note_on channel=9 note=54 velocity=0 time=0.020256505208333334
EXTRACT: note_on channel=9 note=76 velocity=0 time=0.049194369791666664
EXTRACT: note_on channel=9 note=36 velocity=32 time=0.052088156249999996
EXTRACT: note_on channel=9 note=42 velocity=90 time=0
EXTRACT: note_on channel=9 note=54 velocity=50 time=0
EXTRACT: note_on channel=9 note=56 velocity=19 time=0
EXTRACT: note_on channel=9 note=67 velocity=52 time=0
EXTRACT: note_on channel=9 note=76 velocity=55 time=0
EXTRACT: note_on channel=9 note=80 velocity=127 time=0
EXTRACT: note_on channel=3 note=53 velocity=127 time=0
EXTRACT: note_on channel=7 note=25 velocity=50 time=0
EXTRACT: note_on channel=7 note=88 velocity=45 time=0
EXTRACT: note_on channel=7 note=88 velocity=0 time=0.011575145833333333
EXTRACT: note_on channel=9 note=54 velocity=0 time=0.028937864583333334
EXTRACT: note_on channel=9 note=67 velocity=0 time=0.011575145833333333
EXTRACT: note_on channel=9 note=76 velocity=0 time=0.0057875729166666666
EXTRACT: note_on channel=9 note=56 velocity=0 time=0.011575145833333333
EXTRACT: note_on channel=9 note=42 velocity=0 time=0.0057875729166666666
EXTRACT: note_on channel=3 note=53 velocity=0 time=0.05787572916666667
EXTRACT: note_on channel=9 note=36 velocity=0 time=0.0028937864583333333
EXTRACT: note_on channel=9 note=80 velocity=0 time=0
EXTRACT: note_on channel=9 note=54 velocity=24 time=0.0028937864583333333
EXTRACT: note_on channel=9 note=56 velocity=10 time=0
EXTRACT: note_on channel=9 note=54 velocity=0 time=0.04051301041666667
EXTRACT: note_on channel=7 note=25 velocity=0 time=0.052088156249999996
EXTRACT: note_on channel=9 note=56 velocity=0 time=0.043406796875
EXTRACT: note_on channel=9 note=36 velocity=107 time=0.0028937864583333333
EXTRACT: note_on channel=9 note=42 velocity=122 time=0
EXTRACT: note_on channel=9 note=49 velocity=83 time=0
EXTRACT: note_on channel=9 note=54 velocity=65 time=0
EXTRACT: note_on channel=3 note=56 velocity=127 time=0
EXTRACT: note_on channel=7 note=25 velocity=125 time=0
EXTRACT: note_on channel=9 note=54 velocity=0 time=0.049194369791666664
EXTRACT: note_on channel=9 note=42 velocity=0 time=0.043406796875
EXTRACT: note_on channel=3 note=56 velocity=0 time=0.031831651041666666
EXTRACT: note_on channel=9 note=49 velocity=0 time=0.011575145833333333
EXTRACT: note_on channel=9 note=36 velocity=0 time=0
EXTRACT: note_on channel=9 note=54 velocity=17 time=0.0028937864583333333
EXTRACT: note_on channel=7 note=25 velocity=0 time=0.043406796875
EXTRACT: note_on channel=9 note=54 velocity=0 time=0.008681359375
EXTRACT: note_on channel=9 note=42 velocity=100 time=0.08681359375
EXTRACT: note_on channel=9 note=54 velocity=53 time=0
EXTRACT: note_on channel=9 note=56 velocity=19 time=0
EXTRACT: note_on channel=9 note=67 velocity=36 time=0
EXTRACT: note_on channel=9 note=80 velocity=127 time=0
EXTRACT: note_on channel=3 note=56 velocity=121 time=0
EXTRACT: note_on channel=7 note=88 velocity=83 time=0
EXTRACT: note_on channel=7 note=88 velocity=0 time=0.020256505208333334
EXTRACT: note_on channel=9 note=54 velocity=0 time=0.014468932291666667
EXTRACT: note_on channel=9 note=56 velocity=0 time=0.0347254375
EXTRACT: note_on channel=9 note=42 velocity=0 time=0.0057875729166666666
EXTRACT: note_on channel=9 note=67 velocity=0 time=0.0028937864583333333
EXTRACT: note_on channel=3 note=56 velocity=0 time=0.026044078124999998
EXTRACT: note_on channel=9 note=80 velocity=0 time=0.031831651041666666
EXTRACT: note_on channel=9 note=54 velocity=29 time=0.0028937864583333333
EXTRACT: note_on channel=9 note=56 velocity=10 time=0
EXTRACT: note_on channel=9 note=67 velocity=24 time=0
EXTRACT: note_on channel=3 note=58 velocity=126 time=0
EXTRACT: note_on channel=9 note=67 velocity=0 time=0.07523844791666666
EXTRACT: note_on channel=9 note=54 velocity=0 time=0
EXTRACT: note_on channel=3 note=58 velocity=0 time=0.054981942708333335
EXTRACT: note_on channel=9 note=56 velocity=0 time=0.0057875729166666666
EXTRACT: note_on channel=9 note=39 velocity=80 time=0.0028937864583333333
EXTRACT: note_on channel=9 note=40 velocity=121 time=0
EXTRACT: note_on channel=9 note=42 velocity=114 time=0
EXTRACT: note_on channel=9 note=54 velocity=60 time=0
EXTRACT: note_on channel=7 note=76 velocity=127 time=0
EXTRACT: note_on channel=9 note=54 velocity=0 time=0.043406796875
EXTRACT: note_on channel=9 note=42 velocity=0 time=0.06366330208333333
EXTRACT: note_on channel=9 note=40 velocity=0 time=0.028937864583333334
EXTRACT: note_on channel=9 note=39 velocity=0 time=0
EXTRACT: note_on channel=9 note=54 velocity=24 time=0.0028937864583333333
EXTRACT: note_on channel=3 note=58 velocity=123 time=0
EXTRACT: note_on channel=7 note=76 velocity=0 time=0.01736271875
EXTRACT: note_on channel=9 note=54 velocity=0 time=0.054981942708333335
EXTRACT: note_on channel=3 note=58 velocity=0 time=0.020256505208333334
EXTRACT: note_on channel=9 note=36 velocity=102 time=0.04630058333333333
EXTRACT: note_on channel=9 note=42 velocity=90 time=0
EXTRACT: note_on channel=9 note=54 velocity=55 time=0
EXTRACT: note_on channel=9 note=56 velocity=19 time=0
EXTRACT: note_on channel=9 note=67 velocity=33 time=0
EXTRACT: note_on channel=9 note=80 velocity=127 time=0
EXTRACT: note_on channel=3 note=53 velocity=122 time=0
EXTRACT: note_on channel=7 note=25 velocity=120 time=0
EXTRACT: note_on channel=7 note=88 velocity=45 time=0
EXTRACT: note_on channel=7 note=88 velocity=0 time=0.011575145833333333
EXTRACT: note_on channel=9 note=54 velocity=0 time=0.031831651041666666
EXTRACT: note_on channel=9 note=67 velocity=0 time=0.014468932291666667
EXTRACT: note_on channel=9 note=56 velocity=0 time=0.014468932291666667
EXTRACT: note_on channel=9 note=42 velocity=0 time=0.0028937864583333333
EXTRACT: note_on channel=7 note=25 velocity=0 time=0.028937864583333334
EXTRACT: note_on channel=9 note=36 velocity=0 time=0.0028937864583333333
EXTRACT: note_on channel=9 note=80 velocity=0 time=0.028937864583333334
EXTRACT: note_on channel=9 note=54 velocity=27 time=0.0028937864583333333
EXTRACT: note_on channel=9 note=56 velocity=10 time=0
EXTRACT: note_on channel=3 note=53 velocity=0 time=0.01736271875
EXTRACT: note_on channel=9 note=54 velocity=0 time=0.0347254375
EXTRACT: note_on channel=9 note=56 velocity=0 time=0.08391980729166666
EXTRACT: note_on channel=9 note=42 velocity=122 time=0.0028937864583333333
EXTRACT: note_on channel=9 note=54 velocity=61 time=0
EXTRACT: note_on channel=3 note=56 velocity=121 time=0
EXTRACT: note_on channel=9 note=54 velocity=0 time=0.05787572916666667
EXTRACT: note_on channel=9 note=42 velocity=0 time=0.0347254375
EXTRACT: note_on channel=3 note=56 velocity=0 time=0.020256505208333334
EXTRACT: note_on channel=9 note=54 velocity=23 time=0.026044078124999998
EXTRACT: note_on channel=9 note=54 velocity=0 time=0.03761922395833333
EXTRACT: note_on channel=9 note=36 velocity=106 time=0.10128252604166667
EXTRACT: note_on channel=9 note=42 velocity=100 time=0
EXTRACT: note_on channel=9 note=54 velocity=56 time=0
EXTRACT: note_on channel=9 note=56 velocity=19 time=0
EXTRACT: note_on channel=9 note=67 velocity=58 time=0
EXTRACT: note_on channel=9 note=80 velocity=127 time=0
EXTRACT: note_on channel=3 note=56 velocity=126 time=0
EXTRACT: note_on channel=7 note=25 velocity=124 time=0
EXTRACT: note_on channel=7 note=88 velocity=87 time=0
EXTRACT: note_on channel=7 note=88 velocity=0 time=0.020256505208333334
EXTRACT: note_on channel=9 note=54 velocity=0 time=0.031831651041666666
EXTRACT: note_on channel=9 note=67 velocity=0 time=0.0028937864583333333
EXTRACT: note_on channel=9 note=56 velocity=0 time=0.014468932291666667
EXTRACT: note_on channel=9 note=42 velocity=0 time=0.0057875729166666666
EXTRACT: note_on channel=3 note=56 velocity=0 time=0.05787572916666667
EXTRACT: note_on channel=9 note=36 velocity=0 time=0.0028937864583333333
EXTRACT: note_on channel=9 note=80 velocity=0 time=0
EXTRACT: note_on channel=9 note=54 velocity=40 time=0.0028937864583333333
EXTRACT: note_on channel=9 note=56 velocity=10 time=0
EXTRACT: note_on channel=9 note=67 velocity=47 time=0
EXTRACT: note_on channel=7 note=25 velocity=0 time=0.05787572916666667
EXTRACT: note_on channel=9 note=54 velocity=0 time=0.0028937864583333333
EXTRACT: note_on channel=9 note=67 velocity=0 time=0.008681359375
EXTRACT: note_on channel=9 note=56 velocity=0 time=0.06655708854166667
EXTRACT: note_on channel=9 note=39 velocity=80 time=0.0028937864583333333
EXTRACT: note_on channel=9 note=40 velocity=121 time=0
EXTRACT: note_on channel=9 note=42 velocity=114 time=0
EXTRACT: note_on channel=9 note=54 velocity=57 time=0
EXTRACT: note_on channel=9 note=67 velocity=49 time=0
EXTRACT: note_on channel=3 note=58 velocity=127 time=0
EXTRACT: note_on channel=7 note=76 velocity=127 time=0
EXTRACT: note_on channel=9 note=54 velocity=0 time=0.054981942708333335
EXTRACT: note_on channel=9 note=67 velocity=0 time=0.026044078124999998
EXTRACT: note_on channel=9 note=42 velocity=0 time=0.026044078124999998
EXTRACT: note_on channel=9 note=40 velocity=0 time=0.028937864583333334
EXTRACT: note_on channel=9 note=39 velocity=0 time=0
EXTRACT: note_on channel=9 note=54 velocity=20 time=0.0028937864583333333
EXTRACT: note_on channel=9 note=67 velocity=51 time=0
EXTRACT: note_on channel=7 note=76 velocity=0 time=0.01736271875
EXTRACT: note_on channel=9 note=54 velocity=0 time=0.020256505208333334
EXTRACT: note_on channel=3 note=58 velocity=0 time=0.0028937864583333333
EXTRACT: note_on channel=9 note=67 velocity=0 time=0.054981942708333335
EXTRACT: note_on channel=9 note=36 velocity=62 time=0.043406796875
EXTRACT: note_on channel=9 note=42 velocity=90 time=0
EXTRACT: note_on channel=9 note=54 velocity=50 time=0
EXTRACT: note_on channel=9 note=56 velocity=19 time=0
EXTRACT: note_on channel=9 note=67 velocity=48 time=0
EXTRACT: note_on channel=9 note=80 velocity=127 time=0
EXTRACT: note_on channel=7 note=25 velocity=80 time=0
EXTRACT: note_on channel=7 note=88 velocity=45 time=0
EXTRACT: note_on channel=7 note=88 velocity=0 time=0.011575145833333333
EXTRACT: note_on channel=9 note=54 velocity=0 time=0.028937864583333334
EXTRACT: note_on channel=9 note=67 velocity=0 time=0.020256505208333334
EXTRACT: note_on channel=9 note=56 velocity=0 time=0.008681359375
EXTRACT: note_on channel=9 note=42 velocity=0 time=0.0057875729166666666
EXTRACT: note_on channel=9 note=36 velocity=0 time=0.060769515625
EXTRACT: note_on channel=9 note=80 velocity=0 time=0
EXTRACT: note_on channel=9 note=54 velocity=24 time=0.0028937864583333333
EXTRACT: note_on channel=9 note=56 velocity=10 time=0
EXTRACT: note_on channel=9 note=54 velocity=0 time=0.04051301041666667
EXTRACT: note_on channel=7 note=25 velocity=0 time=0.052088156249999996
EXTRACT: note_on channel=9 note=56 velocity=0 time=0.043406796875
EXTRACT: note_on channel=9 note=36 velocity=109 time=0.0028937864583333333
EXTRACT: note_on channel=9 note=42 velocity=122 time=0
EXTRACT: note_on channel=9 note=54 velocity=65 time=0
EXTRACT: note_on channel=9 note=57 velocity=48 time=0
EXTRACT: note_on channel=7 note=25 velocity=127 time=0
EXTRACT: note_on channel=9 note=54 velocity=0 time=0.049194369791666664
EXTRACT: note_on channel=9 note=42 velocity=0 time=0.043406796875
EXTRACT: note_on channel=9 note=36 velocity=0 time=0.043406796875
EXTRACT: note_on channel=9 note=57 velocity=0 time=0
EXTRACT: note_on channel=9 note=54 velocity=17 time=0.0028937864583333333
EXTRACT: note_on channel=7 note=25 velocity=0 time=0.014468932291666667
EXTRACT: note_on channel=9 note=54 velocity=0 time=0.03761922395833333
EXTRACT: note_on channel=9 note=42 velocity=100 time=0.08681359375
EXTRACT: note_on channel=9 note=54 velocity=53 time=0
EXTRACT: note_on channel=9 note=56 velocity=19 time=0
EXTRACT: note_on channel=9 note=67 velocity=61 time=0
EXTRACT: note_on channel=9 note=80 velocity=127 time=0
EXTRACT: note_on channel=7 note=88 velocity=87 time=0
EXTRACT: note_on channel=7 note=88 velocity=0 time=0.023150291666666666
EXTRACT: note_on channel=9 note=54 velocity=0 time=0.011575145833333333
EXTRACT: note_on channel=9 note=56 velocity=0 time=0.03761922395833333
EXTRACT: note_on channel=9 note=42 velocity=0 time=0.0028937864583333333
EXTRACT: note_on channel=9 note=67 velocity=0 time=0.0028937864583333333
EXTRACT: note_on channel=9 note=80 velocity=0 time=0.05787572916666667
EXTRACT: note_on channel=9 note=54 velocity=29 time=0.0028937864583333333
EXTRACT: note_on channel=9 note=56 velocity=10 time=0
EXTRACT: note_on channel=9 note=67 velocity=49 time=0
EXTRACT: note_on channel=9 note=67 velocity=0 time=0.07523844791666666
EXTRACT: note_on channel=9 note=54 velocity=0 time=0
EXTRACT: note_on channel=9 note=56 velocity=0 time=0.060769515625
EXTRACT: note_on channel=9 note=39 velocity=80 time=0.0028937864583333333
EXTRACT: note_on channel=9 note=40 velocity=121 time=0
EXTRACT: note_on channel=9 note=42 velocity=114 time=0
EXTRACT: note_on channel=9 note=54 velocity=60 time=0
EXTRACT: note_on channel=7 note=76 velocity=127 time=0
EXTRACT: note_on channel=9 note=54 velocity=0 time=0.043406796875
EXTRACT: note_on channel=9 note=42 velocity=0 time=0.06366330208333333
EXTRACT: note_on channel=9 note=40 velocity=0 time=0.028937864583333334
EXTRACT: note_on channel=9 note=39 velocity=0 time=0
EXTRACT: note_on channel=9 note=54 velocity=24 time=0.0028937864583333333
EXTRACT: note_on channel=7 note=76 velocity=0 time=0.01736271875
EXTRACT: note_on channel=9 note=54 velocity=0 time=0.054981942708333335
EXTRACT: note_on channel=9 note=36 velocity=67 time=0.06655708854166667
EXTRACT: note_on channel=9 note=42 velocity=90 time=0
EXTRACT: note_on channel=9 note=54 velocity=55 time=0
EXTRACT: note_on channel=9 note=56 velocity=19 time=0
EXTRACT: note_on channel=9 note=67 velocity=58 time=0
EXTRACT: note_on channel=9 note=80 velocity=127 time=0
EXTRACT: note_on channel=7 note=25 velocity=85 time=0
EXTRACT: note_on channel=7 note=88 velocity=83 time=0
EXTRACT: note_on channel=7 note=88 velocity=0 time=0.011575145833333333
EXTRACT: note_on channel=9 note=54 velocity=0 time=0.031831651041666666
EXTRACT: note_on channel=9 note=67 velocity=0 time=0.014468932291666667
EXTRACT: note_on channel=9 note=56 velocity=0 time=0.014468932291666667
EXTRACT: note_on channel=9 note=42 velocity=0 time=0.0028937864583333333
EXTRACT: note_on channel=9 note=36 velocity=0 time=0.060769515625
EXTRACT: note_on channel=9 note=80 velocity=0 time=0
EXTRACT: note_on channel=9 note=54 velocity=27 time=0.0028937864583333333
EXTRACT: note_on channel=9 note=56 velocity=10 time=0
EXTRACT: note_on channel=9 note=54 velocity=0 time=0.052088156249999996
EXTRACT: note_on channel=7 note=25 velocity=0 time=0.08102602083333334
EXTRACT: note_on channel=9 note=56 velocity=0 time=0.0028937864583333333
EXTRACT: note_on channel=9 note=36 velocity=105 time=0.0028937864583333333
EXTRACT: note_on channel=9 note=42 velocity=122 time=0
EXTRACT: note_on channel=9 note=54 velocity=61 time=0
EXTRACT: note_on channel=7 note=25 velocity=123 time=0
EXTRACT: note_on channel=9 note=54 velocity=0 time=0.054981942708333335
EXTRACT: note_on channel=9 note=42 velocity=0 time=0.03761922395833333
EXTRACT: note_on channel=9 note=36 velocity=0 time=0.043406796875
EXTRACT: note_on channel=7 note=25 velocity=0 time=0
EXTRACT: note_on channel=9 note=54 velocity=23 time=0.0028937864583333333
EXTRACT: note_on channel=9 note=54 velocity=0 time=0.03761922395833333
EXTRACT: note_on channel=9 note=42 velocity=100 time=0.10128252604166667
EXTRACT: note_on channel=9 note=54 velocity=56 time=0
EXTRACT: note_on channel=9 note=56 velocity=19 time=0
EXTRACT: note_on channel=9 note=67 velocity=64 time=0
EXTRACT: note_on channel=9 note=76 velocity=60 time=0
EXTRACT: note_on channel=9 note=80 velocity=127 time=0
EXTRACT: note_on channel=7 note=88 velocity=89 time=0
EXTRACT: note_on channel=7 note=88 velocity=0 time=0.020256505208333334
EXTRACT: note_on channel=9 note=67 velocity=0 time=0.028937864583333334
EXTRACT: note_on channel=9 note=54 velocity=0 time=0.0028937864583333333
EXTRACT: note_on channel=9 note=76 velocity=0 time=0.008681359375
EXTRACT: note_on channel=9 note=56 velocity=0 time=0.011575145833333333
EXTRACT: note_on channel=9 note=42 velocity=0 time=0.0028937864583333333
EXTRACT: note_on channel=9 note=80 velocity=0 time=0.060769515625
EXTRACT: note_on channel=9 note=54 velocity=40 time=0.0028937864583333333
EXTRACT: note_on channel=9 note=56 velocity=10 time=0
EXTRACT: note_on channel=9 note=67 velocity=43 time=0
EXTRACT: note_on channel=9 note=76 velocity=46 time=0
EXTRACT: note_on channel=9 note=54 velocity=0 time=0.060769515625
EXTRACT: note_on channel=9 note=76 velocity=0 time=0.020256505208333334
EXTRACT: note_on channel=9 note=67 velocity=0 time=0.0028937864583333333
EXTRACT: note_on channel=9 note=56 velocity=0 time=0.052088156249999996
EXTRACT: note_on channel=9 note=39 velocity=80 time=0.0028937864583333333
EXTRACT: note_on channel=9 note=40 velocity=121 time=0
EXTRACT: note_on channel=9 note=42 velocity=114 time=0
EXTRACT: note_on channel=9 note=54 velocity=57 time=0
EXTRACT: note_on channel=9 note=76 velocity=57 time=0
EXTRACT: note_on channel=7 note=76 velocity=127 time=0
EXTRACT: note_on channel=9 note=54 velocity=0 time=0.054981942708333335
EXTRACT: note_on channel=9 note=76 velocity=0 time=0.026044078124999998
EXTRACT: note_on channel=9 note=42 velocity=0 time=0.026044078124999998
EXTRACT: note_on channel=9 note=40 velocity=0 time=0.028937864583333334
EXTRACT: note_on channel=9 note=39 velocity=0 time=0
EXTRACT: note_on channel=9 note=54 velocity=20 time=0.0028937864583333333
EXTRACT: note_on channel=9 note=76 velocity=42 time=0
EXTRACT: note_on channel=7 note=76 velocity=0 time=0.01736271875
EXTRACT: note_on channel=9 note=54 velocity=0 time=0.020256505208333334
EXTRACT: note_on channel=9 note=76 velocity=0 time=0.049194369791666664
EXTRACT: note_on channel=9 note=36 velocity=32 time=0.052088156249999996
EXTRACT: note_on channel=9 note=42 velocity=90 time=0
EXTRACT: note_on channel=9 note=54 velocity=50 time=0
EXTRACT: note_on channel=9 note=56 velocity=19 time=0
EXTRACT: note_on channel=9 note=67 velocity=52 time=0
EXTRACT: note_on channel=9 note=76 velocity=55 time=0
EXTRACT: note_on channel=9 note=80 velocity=127 time=0
EXTRACT: note_on channel=3 note=53 velocity=127 time=0
EXTRACT: note_on channel=7 note=25 velocity=50 time=0
EXTRACT: note_on channel=7 note=88 velocity=45 time=0
EXTRACT: note_on channel=7 note=88 velocity=0 time=0.011575145833333333
EXTRACT: note_on channel=9 note=54 velocity=0 time=0.026044078124999998
EXTRACT: note_on channel=9 note=67 velocity=0 time=0.014468932291666667
EXTRACT: note_on channel=9 note=76 velocity=0 time=0.0028937864583333333
EXTRACT: note_on channel=9 note=56 velocity=0 time=0.014468932291666667
EXTRACT: note_on channel=9 note=42 velocity=0 time=0.0057875729166666666
EXTRACT: note_on channel=3 note=53 velocity=0 time=0.031831651041666666
EXTRACT: note_on channel=9 note=36 velocity=0 time=0.028937864583333334
EXTRACT: note_on channel=9 note=80 velocity=0 time=0
EXTRACT: note_on channel=9 note=54 velocity=24 time=0.0028937864583333333
EXTRACT: note_on channel=9 note=56 velocity=10 time=0
EXTRACT: note_on channel=9 note=54 velocity=0 time=0.04051301041666667
EXTRACT: note_on channel=7 note=25 velocity=0 time=0.052088156249999996
EXTRACT: note_on channel=9 note=56 velocity=0 time=0.043406796875
EXTRACT: note_on channel=9 note=36 velocity=107 time=0.0028937864583333333
EXTRACT: note_on channel=9 note=42 velocity=122 time=0
EXTRACT: note_on channel=9 note=54 velocity=65 time=0
EXTRACT: note_on channel=9 note=57 velocity=48 time=0
EXTRACT: note_on channel=3 note=56 velocity=127 time=0
EXTRACT: note_on channel=7 note=25 velocity=125 time=0
EXTRACT: note_on channel=9 note=54 velocity=0 time=0.049194369791666664
EXTRACT: note_on channel=9 note=42 velocity=0 time=0.043406796875
EXTRACT: note_on channel=9 note=36 velocity=0 time=0.043406796875
EXTRACT: note_on channel=9 note=57 velocity=0 time=0
EXTRACT: note_on channel=9 note=54 velocity=17 time=0.0028937864583333333
EXTRACT: note_on channel=3 note=56 velocity=0 time=0.0028937864583333333
EXTRACT: note_on channel=7 note=25 velocity=0 time=0.04051301041666667
EXTRACT: note_on channel=9 note=54 velocity=0 time=0.008681359375
EXTRACT: note_on channel=9 note=42 velocity=100 time=0.08681359375
EXTRACT: note_on channel=9 note=54 velocity=53 time=0
EXTRACT: note_on channel=9 note=56 velocity=19 time=0
EXTRACT: note_on channel=9 note=67 velocity=36 time=0
EXTRACT: note_on channel=9 note=80 velocity=127 time=0
EXTRACT: note_on channel=3 note=56 velocity=96 time=0
EXTRACT: note_on channel=7 note=88 velocity=83 time=0
EXTRACT: note_on channel=7 note=88 velocity=0 time=0.020256505208333334
EXTRACT: note_on channel=9 note=54 velocity=0 time=0.014468932291666667
EXTRACT: note_on channel=9 note=56 velocity=0 time=0.03761922395833333
EXTRACT: note_on channel=9 note=42 velocity=0 time=0.0028937864583333333
EXTRACT: note_on channel=9 note=67 velocity=0 time=0.0028937864583333333
EXTRACT: note_on channel=3 note=56 velocity=0 time=0.054981942708333335
EXTRACT: note_on channel=9 note=80 velocity=0 time=0.0028937864583333333
EXTRACT: note_on channel=9 note=54 velocity=29 time=0.0028937864583333333
EXTRACT: note_on channel=9 note=56 velocity=10 time=0
EXTRACT: note_on channel=9 note=67 velocity=24 time=0
EXTRACT: note_on channel=3 note=58 velocity=125 time=0
EXTRACT: note_on channel=9 note=67 velocity=0 time=0.07523844791666666
EXTRACT: note_on channel=9 note=54 velocity=0 time=0
EXTRACT: note_on channel=3 note=58 velocity=0 time=0.026044078124999998
EXTRACT: note_on channel=9 note=56 velocity=0 time=0.0347254375
EXTRACT: note_on channel=9 note=39 velocity=80 time=0.0028937864583333333
EXTRACT: note_on channel=9 note=40 velocity=121 time=0
EXTRACT: note_on channel=9 note=42 velocity=114 time=0
EXTRACT: note_on channel=9 note=54 velocity=60 time=0
EXTRACT: note_on channel=7 note=76 velocity=127 time=0
EXTRACT: note_on channel=9 note=54 velocity=0 time=0.043406796875
EXTRACT: note_on channel=9 note=42 velocity=0 time=0.06366330208333333
EXTRACT: note_on channel=9 note=40 velocity=0 time=0.028937864583333334
EXTRACT: note_on channel=9 note=39 velocity=0 time=0
EXTRACT: note_on channel=9 note=54 velocity=24 time=0.0028937864583333333
EXTRACT: note_on channel=3 note=58 velocity=123 time=0
EXTRACT: note_on channel=7 note=76 velocity=0 time=0.01736271875
EXTRACT: note_on channel=9 note=54 velocity=0 time=0.054981942708333335
EXTRACT: note_on channel=3 note=58 velocity=0 time=0.03761922395833333
EXTRACT: note_on channel=9 note=36 velocity=102 time=0.028937864583333334
EXTRACT: note_on channel=9 note=42 velocity=90 time=0
EXTRACT: note_on channel=9 note=54 velocity=55 time=0
EXTRACT: note_on channel=9 note=56 velocity=19 time=0
EXTRACT: note_on channel=9 note=67 velocity=33 time=0
EXTRACT: note_on channel=9 note=80 velocity=127 time=0
EXTRACT: note_on channel=3 note=53 velocity=122 time=0
EXTRACT: note_on channel=7 note=25 velocity=120 time=0
EXTRACT: note_on channel=7 note=88 velocity=45 time=0
EXTRACT: note_on channel=7 note=88 velocity=0 time=0.011575145833333333
EXTRACT: note_on channel=9 note=54 velocity=0 time=0.031831651041666666
EXTRACT: note_on channel=9 note=67 velocity=0 time=0.014468932291666667
EXTRACT: note_on channel=9 note=56 velocity=0 time=0.014468932291666667
EXTRACT: note_on channel=9 note=42 velocity=0 time=0.0028937864583333333
EXTRACT: note_on channel=7 note=25 velocity=0 time=0.028937864583333334
EXTRACT: note_on channel=9 note=36 velocity=0 time=0.0028937864583333333
EXTRACT: note_on channel=9 note=80 velocity=0 time=0.028937864583333334
EXTRACT: note_on channel=9 note=54 velocity=27 time=0.0028937864583333333
EXTRACT: note_on channel=9 note=56 velocity=10 time=0
EXTRACT: note_on channel=3 note=53 velocity=0 time=0.008681359375
EXTRACT: note_on channel=9 note=54 velocity=0 time=0.043406796875
EXTRACT: note_on channel=9 note=56 velocity=0 time=0.08391980729166666
EXTRACT: note_on channel=9 note=42 velocity=122 time=0.0028937864583333333
EXTRACT: note_on channel=9 note=54 velocity=61 time=0
EXTRACT: note_on channel=3 note=51 velocity=116 time=0
EXTRACT: note_on channel=9 note=54 velocity=0 time=0.05787572916666667
EXTRACT: note_on channel=9 note=42 velocity=0 time=0.0347254375
EXTRACT: note_on channel=9 note=54 velocity=23 time=0.04630058333333333
EXTRACT: note_on channel=3 note=51 velocity=0 time=0.008681359375
EXTRACT: note_on channel=9 note=54 velocity=0 time=0.028937864583333334
EXTRACT: note_on channel=9 note=36 velocity=106 time=0.10128252604166667
EXTRACT: note_on channel=9 note=42 velocity=100 time=0
EXTRACT: note_on channel=9 note=54 velocity=56 time=0
EXTRACT: note_on channel=9 note=56 velocity=19 time=0
EXTRACT: note_on channel=9 note=67 velocity=58 time=0
EXTRACT: note_on channel=9 note=80 velocity=127 time=0
EXTRACT: note_on channel=3 note=51 velocity=118 time=0
EXTRACT: note_on channel=7 note=25 velocity=124 time=0
EXTRACT: note_on channel=7 note=88 velocity=87 time=0
EXTRACT: note_on channel=7 note=88 velocity=0 time=0.020256505208333334
EXTRACT: note_on channel=9 note=54 velocity=0 time=0.031831651041666666
EXTRACT: note_on channel=9 note=67 velocity=0 time=0.0028937864583333333
EXTRACT: note_on channel=9 note=56 velocity=0 time=0.014468932291666667
EXTRACT: note_on channel=9 note=42 velocity=0 time=0.0057875729166666666
EXTRACT: note_on channel=3 note=51 velocity=0 time=0.026044078124999998
EXTRACT: note_on channel=9 note=36 velocity=0 time=0.0347254375
EXTRACT: note_on channel=9 note=80 velocity=0 time=0
EXTRACT: note_on channel=9 note=54 velocity=40 time=0.0028937864583333333
EXTRACT: note_on channel=9 note=56 velocity=10 time=0
EXTRACT: note_on channel=9 note=67 velocity=47 time=0
EXTRACT: note_on channel=7 note=25 velocity=0 time=0.05787572916666667
EXTRACT: note_on channel=9 note=54 velocity=0 time=0.0028937864583333333
EXTRACT: note_on channel=9 note=67 velocity=0 time=0.008681359375
EXTRACT: note_on channel=9 note=56 velocity=0 time=0.06655708854166667
EXTRACT: note_on channel=9 note=39 velocity=80 time=0.0028937864583333333
EXTRACT: note_on channel=9 note=40 velocity=121 time=0
EXTRACT: note_on channel=9 note=42 velocity=114 time=0
EXTRACT: note_on channel=9 note=54 velocity=57 time=0
EXTRACT: note_on channel=9 note=67 velocity=49 time=0
EXTRACT: note_on channel=3 note=51 velocity=123 time=0
EXTRACT: note_on channel=7 note=76 velocity=127 time=0
EXTRACT: note_on channel=9 note=54 velocity=0 time=0.052088156249999996
EXTRACT: note_on channel=9 note=67 velocity=0 time=0.028937864583333334
EXTRACT: note_on channel=9 note=42 velocity=0 time=0.026044078124999998
EXTRACT: note_on channel=9 note=40 velocity=0 time=0.028937864583333334
EXTRACT: note_on channel=9 note=39 velocity=0 time=0
EXTRACT: note_on channel=9 note=54 velocity=20 time=0.0028937864583333333
EXTRACT: note_on channel=9 note=67 velocity=51 time=0
EXTRACT: note_on channel=7 note=76 velocity=0 time=0.01736271875
EXTRACT: note_on channel=9 note=54 velocity=0 time=0.020256505208333334
EXTRACT: note_on channel=9 note=67 velocity=0 time=0.05787572916666667
EXTRACT: note_on channel=3 note=51 velocity=0 time=0.03761922395833333
EXTRACT: note_on channel=9 note=36 velocity=62 time=0.0057875729166666666
EXTRACT: note_on channel=9 note=42 velocity=90 time=0
EXTRACT: note_on channel=9 note=54 velocity=50 time=0
EXTRACT: note_on channel=9 note=56 velocity=19 time=0
EXTRACT: note_on channel=9 note=67 velocity=48 time=0
EXTRACT: note_on channel=9 note=80 velocity=127 time=0
EXTRACT: note_on channel=3 note=49 velocity=122 time=0
EXTRACT: note_on channel=7 note=25 velocity=80 time=0
EXTRACT: note_on channel=7 note=88 velocity=45 time=0
EXTRACT: note_on channel=7 note=88 velocity=0 time=0.011575145833333333
EXTRACT: note_on channel=9 note=54 velocity=0 time=0.028937864583333334
EXTRACT: note_on channel=9 note=67 velocity=0 time=0.020256505208333334
EXTRACT: note_on channel=9 note=56 velocity=0 time=0.011575145833333333
EXTRACT: note_on channel=9 note=42 velocity=0 time=0.0028937864583333333
EXTRACT: note_on channel=9 note=36 velocity=0 time=0.060769515625
EXTRACT: note_on channel=9 note=80 velocity=0 time=0
EXTRACT: note_on channel=9 note=54 velocity=24 time=0.0028937864583333333
EXTRACT: note_on channel=9 note=56 velocity=10 time=0
EXTRACT: note_on channel=9 note=54 velocity=0 time=0.04051301041666667
EXTRACT: note_on channel=7 note=25 velocity=0 time=0.052088156249999996
EXTRACT: note_on channel=9 note=56 velocity=0 time=0.043406796875
EXTRACT: note_on channel=9 note=36 velocity=109 time=0.0028937864583333333
EXTRACT: note_on channel=9 note=42 velocity=122 time=0
EXTRACT: note_on channel=9 note=54 velocity=65 time=0
EXTRACT: note_on channel=9 note=57 velocity=48 time=0
EXTRACT: note_on channel=7 note=25 velocity=127 time=0
EXTRACT: note_on channel=3 note=49 velocity=0 time=0.01736271875
EXTRACT: note_on channel=9 note=54 velocity=0 time=0.031831651041666666
EXTRACT: note_on channel=9 note=42 velocity=0 time=0.043406796875
EXTRACT: note_on channel=9 note=36 velocity=0 time=0.043406796875
EXTRACT: note_on channel=9 note=57 velocity=0 time=0
EXTRACT: note_on channel=9 note=54 velocity=17 time=0.0028937864583333333
EXTRACT: note_on channel=7 note=25 velocity=0 time=0.014468932291666667
EXTRACT: note_on channel=9 note=54 velocity=0 time=0.03761922395833333
EXTRACT: note_on channel=9 note=42 velocity=100 time=0.08681359375
EXTRACT: note_on channel=9 note=54 velocity=53 time=0
EXTRACT: note_on channel=9 note=56 velocity=19 time=0
EXTRACT: note_on channel=9 note=80 velocity=127 time=0
EXTRACT: note_on channel=9 note=54 velocity=0 time=0.0347254375
EXTRACT: note_on channel=9 note=56 velocity=0 time=0.03761922395833333
EXTRACT: note_on channel=9 note=42 velocity=0 time=0.0028937864583333333
EXTRACT: note_on channel=9 note=80 velocity=0 time=0.060769515625
EXTRACT: note_on channel=9 note=54 velocity=29 time=0.0028937864583333333
EXTRACT: note_on channel=9 note=56 velocity=10 time=0
EXTRACT: note_on channel=9 note=54 velocity=0 time=0.07523844791666666
EXTRACT: note_on channel=9 note=56 velocity=0 time=0.060769515625
EXTRACT: note_on channel=9 note=39 velocity=80 time=0.0028937864583333333
EXTRACT: note_on channel=9 note=40 velocity=121 time=0
EXTRACT: note_on channel=9 note=42 velocity=114 time=0
EXTRACT: note_on channel=9 note=54 velocity=60 time=0
EXTRACT: note_on channel=9 note=54 velocity=0 time=0.043406796875
EXTRACT: note_on channel=9 note=42 velocity=0 time=0.06366330208333333
EXTRACT: note_on channel=9 note=40 velocity=0 time=0.028937864583333334
EXTRACT: note_on channel=9 note=39 velocity=0 time=0
EXTRACT: note_on channel=9 note=54 velocity=24 time=0.0028937864583333333
EXTRACT: note_on channel=9 note=54 velocity=0 time=0.07234466145833333
EXTRACT: note_on channel=9 note=42 velocity=90 time=0.06655708854166667
EXTRACT: note_on channel=9 note=54 velocity=55 time=0
EXTRACT: note_on channel=9 note=56 velocity=19 time=0
EXTRACT: note_on channel=9 note=80 velocity=127 time=0
EXTRACT: note_on channel=9 note=54 velocity=0 time=0.043406796875
EXTRACT: note_on channel=9 note=56 velocity=0 time=0.028937864583333334
EXTRACT: note_on channel=9 note=42 velocity=0 time=0.0028937864583333333
EXTRACT: note_on channel=9 note=80 velocity=0 time=0.060769515625
EXTRACT: note_on channel=9 note=54 velocity=27 time=0.0028937864583333333
EXTRACT: note_on channel=9 note=56 velocity=10 time=0
EXTRACT: note_on channel=9 note=54 velocity=0 time=0.052088156249999996
EXTRACT: note_on channel=8 note=77 velocity=0 time=0.078132234375
EXTRACT: note_on channel=8 note=82 velocity=0 time=0.0028937864583333333
EXTRACT: note_on channel=9 note=56 velocity=0 time=0.0028937864583333333
EXTRACT: note_on channel=9 note=36 velocity=107 time=0.0028937864583333333
EXTRACT: note_on channel=9 note=42 velocity=122 time=0
EXTRACT: note_on channel=9 note=49 velocity=83 time=0
EXTRACT: note_on channel=9 note=54 velocity=90 time=0
EXTRACT: note_on channel=0 note=27 velocity=108 time=0
EXTRACT: note_on channel=7 note=25 velocity=79 time=0
EXTRACT: note_on channel=1 note=27 velocity=108 time=0.0217033984375
EXTRACT: note_on channel=9 note=54 velocity=0 time=0.027490971354166668
EXTRACT: note_on channel=9 note=42 velocity=0 time=0.04051301041666667
EXTRACT: control_change channel=0 control=1 value=39 time=0.04051301041666667
EXTRACT: note_on channel=10 note=65 velocity=118 time=0.008681359375
EXTRACT: control_change channel=1 control=1 value=39 time=0.013022039062499999
EXTRACT: control_change channel=0 control=1 value=90 time=0.0217033984375
EXTRACT: note_on channel=9 note=36 velocity=0 time=0.008681359375
EXTRACT: note_on channel=7 note=25 velocity=0 time=0
EXTRACT: control_change channel=1 control=1 value=90 time=0.013022039062499999
EXTRACT: control_change channel=0 control=1 value=127 time=0.024597184895833332
EXTRACT: control_change channel=1 control=1 value=127 time=0.0217033984375
EXTRACT: note_on channel=9 note=49 velocity=0 time=0.033278544270833335
EXTRACT: note_on channel=9 note=56 velocity=19 time=0.0028937864583333333
EXTRACT: note_on channel=3 note=63 velocity=121 time=0
EXTRACT: note_on channel=7 note=88 velocity=37 time=0
EXTRACT: note_on channel=7 note=88 velocity=0 time=0.023150291666666666
EXTRACT: note_on channel=9 note=56 velocity=0 time=0.049194369791666664
EXTRACT: note_on channel=9 note=56 velocity=10 time=0.06655708854166667
EXTRACT: note_on channel=3 note=63 velocity=0 time=0.011575145833333333
EXTRACT: control_change channel=0 control=1 value=101 time=0.095494953125
EXTRACT: control_change channel=1 control=1 value=101 time=0.0217033984375
EXTRACT: note_on channel=0 note=27 velocity=0 time=0.0014468932291666666
EXTRACT: note_on channel=9 note=56 velocity=0 time=0.0057875729166666666
EXTRACT: note_on channel=9 note=39 velocity=41 time=0.0028937864583333333
EXTRACT: note_on channel=0 note=25 velocity=103 time=0
EXTRACT: note_on channel=3 note=63 velocity=119 time=0
EXTRACT: note_on channel=7 note=76 velocity=86 time=0
EXTRACT: note_on channel=1 note=27 velocity=0 time=0.013022039062499999
EXTRACT: note_on channel=1 note=25 velocity=103 time=0.008681359375
EXTRACT: control_change channel=0 control=1 value=0 time=0.03617233072916667
EXTRACT: control_change channel=1 control=1 value=0 time=0.0217033984375
EXTRACT: note_on channel=9 note=39 velocity=0 time=0.07957912760416666
EXTRACT: note_on channel=7 note=76 velocity=0 time=0
EXTRACT: note_on channel=3 note=63 velocity=0 time=0.10417631249999999
EXTRACT: note_on channel=0 note=25 velocity=0 time=0.011575145833333333
EXTRACT: note_on channel=9 note=56 velocity=19 time=0.0028937864583333333
EXTRACT: note_on channel=0 note=22 velocity=102 time=0
EXTRACT: note_on channel=3 note=58 velocity=118 time=0
EXTRACT: note_on channel=7 note=25 velocity=74 time=0
EXTRACT: note_on channel=7 note=88 velocity=12 time=0
EXTRACT: note_on channel=7 note=88 velocity=0 time=0.014468932291666667
EXTRACT: note_on channel=1 note=25 velocity=0 time=0.0043406796875
EXTRACT: note_on channel=1 note=22 velocity=102 time=0.0028937864583333333
EXTRACT: note_on channel=9 note=56 velocity=0 time=0.050641263020833334
EXTRACT: note_on channel=7 note=25 velocity=0 time=0.0347254375
EXTRACT: note_on channel=9 note=54 velocity=11 time=0.031831651041666666
EXTRACT: note_on channel=9 note=56 velocity=10 time=0
EXTRACT: note_on channel=9 note=54 velocity=0 time=0.04051301041666667
EXTRACT: note_on channel=0 note=22 velocity=0 time=0.06366330208333333
EXTRACT: note_on channel=3 note=58 velocity=0 time=0.008681359375
EXTRACT: note_on channel=1 note=22 velocity=0 time=0.013022039062499999
EXTRACT: note_on channel=9 note=56 velocity=0 time=0.010128252604166667
EXTRACT: note_on channel=10 note=65 velocity=0 time=0
EXTRACT: note_on channel=9 note=30 velocity=42 time=0.0028937864583333333
EXTRACT: note_on channel=9 note=36 velocity=114 time=0
EXTRACT: note_on channel=9 note=42 velocity=122 time=0
EXTRACT: note_on channel=9 note=49 velocity=74 time=0
EXTRACT: note_on channel=9 note=54 velocity=65 time=0
EXTRACT: note_on channel=0 note=34 velocity=112 time=0
EXTRACT: note_on channel=2 note=73 velocity=41 time=0
EXTRACT: note_on channel=2 note=77 velocity=39 time=0
EXTRACT: note_on channel=2 note=82 velocity=39 time=0
EXTRACT: note_on channel=3 note=61 velocity=119 time=0
EXTRACT: note_on channel=8 note=61 velocity=83 time=0
EXTRACT: note_on channel=8 note=65 velocity=80 time=0
EXTRACT: note_on channel=8 note=70 velocity=79 time=0
EXTRACT: control_change channel=8 control=1 value=33 time=0.0028937864583333333
EXTRACT: note_on channel=1 note=34 velocity=112 time=0.018809611979166665
EXTRACT: note_on channel=9 note=54 velocity=0 time=0.0217033984375
EXTRACT: note_on channel=9 note=42 velocity=0 time=0.043406796875
EXTRACT: note_on channel=9 note=30 velocity=0 time=0.049194369791666664
EXTRACT: note_on channel=9 note=36 velocity=0 time=0
EXTRACT: note_on channel=9 note=49 velocity=0 time=0
EXTRACT: note_on channel=9 note=54 velocity=17 time=0.0028937864583333333
EXTRACT: note_on channel=9 note=54 velocity=0 time=0.052088156249999996
EXTRACT: note_on channel=9 note=30 velocity=42 time=0.08681359375
EXTRACT: note_on channel=9 note=42 velocity=100 time=0
EXTRACT: note_on channel=9 note=54 velocity=53 time=0
EXTRACT: note_on channel=9 note=56 velocity=19 time=0
EXTRACT: note_on channel=9 note=80 velocity=127 time=0
EXTRACT: note_on channel=9 note=54 velocity=0 time=0.0347254375
EXTRACT: note_on channel=0 note=34 velocity=0 time=0.0057875729166666666
EXTRACT: note_on channel=1 note=34 velocity=0 time=0.0217033984375
EXTRACT: note_on channel=9 note=56 velocity=0 time=0.007234466145833333
EXTRACT: note_on channel=9 note=42 velocity=0 time=0.0057875729166666666
EXTRACT: note_on channel=3 note=61 velocity=0 time=0.052088156249999996
EXTRACT: note_on channel=9 note=30 velocity=0 time=0.008681359375
EXTRACT: note_on channel=9 note=80 velocity=0 time=0
EXTRACT: note_on channel=9 note=54 velocity=29 time=0.0028937864583333333
EXTRACT: note_on channel=9 note=56 velocity=10 time=0
EXTRACT: note_on channel=3 note=63 velocity=117 time=0
EXTRACT: note_on channel=9 note=54 velocity=0 time=0.07523844791666666
EXTRACT: note_on channel=3 note=63 velocity=0 time=0.011575145833333333
EXTRACT: note_on channel=9 note=56 velocity=0 time=0.049194369791666664
EXTRACT: note_on channel=9 note=29 velocity=39 time=0.0028937864583333333
EXTRACT: note_on channel=9 note=39 velocity=80 time=0
EXTRACT: note_on channel=9 note=40 velocity=121 time=0
EXTRACT: note_on channel=9 note=42 velocity=114 time=0
EXTRACT: note_on channel=9 note=54 velocity=60 time=0
EXTRACT: note_on channel=0 note=34 velocity=109 time=0
EXTRACT: note_on channel=1 note=34 velocity=109 time=0.0217033984375
EXTRACT: note_on channel=9 note=54 velocity=0 time=0.018809611979166665
EXTRACT: note_on channel=9 note=42 velocity=0 time=0.06366330208333333
EXTRACT: note_on channel=9 note=29 velocity=0 time=0.031831651041666666
EXTRACT: note_on channel=9 note=39 velocity=0 time=0
EXTRACT: note_on channel=9 note=40 velocity=0 time=0
EXTRACT: note_on channel=9 note=54 velocity=24 time=0.0028937864583333333
EXTRACT: note_on channel=9 note=54 velocity=0 time=0.07234466145833333
EXTRACT: note_on channel=0 note=34 velocity=0 time=0.06366330208333333
EXTRACT: note_on channel=9 note=30 velocity=42 time=0.0028937864583333333
EXTRACT: note_on channel=9 note=36 velocity=109 time=0
EXTRACT: note_on channel=9 note=42 velocity=90 time=0
EXTRACT: note_on channel=9 note=54 velocity=55 time=0
EXTRACT: note_on channel=9 note=56 velocity=19 time=0
EXTRACT: note_on channel=9 note=80 velocity=127 time=0
EXTRACT: note_on channel=0 note=33 velocity=101 time=0
EXTRACT: note_on channel=3 note=63 velocity=118 time=0
EXTRACT: note_on channel=1 note=34 velocity=0 time=0.018809611979166665
EXTRACT: note_on channel=1 note=33 velocity=101 time=0.0028937864583333333
EXTRACT: note_on channel=9 note=54 velocity=0 time=0.018809611979166665
EXTRACT: note_on channel=9 note=56 velocity=0 time=0.028937864583333334
EXTRACT: note_on channel=9 note=42 velocity=0 time=0.0028937864583333333
EXTRACT: note_on channel=9 note=36 velocity=0 time=0.0347254375
EXTRACT: note_on channel=9 note=30 velocity=0 time=0.026044078124999998
EXTRACT: note_on channel=9 note=80 velocity=0 time=0.0028937864583333333
EXTRACT: note_on channel=9 note=29 velocity=28 time=0.0028937864583333333
EXTRACT: note_on channel=9 note=54 velocity=27 time=0
EXTRACT: note_on channel=9 note=56 velocity=10 time=0
EXTRACT: note_on channel=3 note=63 velocity=0 time=0.0347254375
EXTRACT: note_on channel=9 note=54 velocity=0 time=0.01736271875
EXTRACT: note_on channel=9 note=56 velocity=0 time=0.08391980729166666
EXTRACT: note_on channel=9 note=29 velocity=0 time=0
EXTRACT: note_on channel=0 note=33 velocity=0 time=0
EXTRACT: note_on channel=9 note=30 velocity=39 time=0.0028937864583333333
EXTRACT: note_on channel=9 note=36 velocity=109 time=0
EXTRACT: note_on channel=9 note=42 velocity=122 time=0
EXTRACT: note_on channel=9 note=54 velocity=61 time=0
EXTRACT: note_on channel=0 note=32 velocity=99 time=0
EXTRACT: note_on channel=1 note=33 velocity=0 time=0.018809611979166665
EXTRACT: note_on channel=1 note=32 velocity=99 time=0.0028937864583333333
EXTRACT: note_on channel=9 note=54 velocity=0 time=0.033278544270833335
EXTRACT: note_on channel=9 note=42 velocity=0 time=0.0347254375
EXTRACT: note_on channel=9 note=36 velocity=0 time=0.008681359375
EXTRACT: note_on channel=9 note=30 velocity=0 time=0.0347254375
EXTRACT: note_on channel=9 note=29 velocity=29 time=0.0057875729166666666
EXTRACT: note_on channel=9 note=54 velocity=23 time=0
EXTRACT: note_on channel=9 note=54 velocity=0 time=0.03761922395833333
EXTRACT: note_on channel=0 note=32 velocity=0 time=0.095494953125
EXTRACT: note_on channel=9 note=29 velocity=0 time=0.0028937864583333333
EXTRACT: note_on channel=9 note=30 velocity=38 time=0.0028937864583333333
EXTRACT: note_on channel=9 note=36 velocity=113 time=0
EXTRACT: note_on channel=9 note=42 velocity=100 time=0
EXTRACT: note_on channel=9 note=54 velocity=56 time=0
EXTRACT: note_on channel=9 note=56 velocity=19 time=0
EXTRACT: note_on channel=9 note=80 velocity=127 time=0
EXTRACT: note_on channel=0 note=31 velocity=105 time=0
EXTRACT: note_on channel=1 note=32 velocity=0 time=0.015915825520833333
EXTRACT: note_on channel=1 note=31 velocity=105 time=0.0057875729166666666
EXTRACT: note_on channel=9 note=54 velocity=0 time=0.027490971354166668
EXTRACT: note_on channel=9 note=56 velocity=0 time=0.020256505208333334
EXTRACT: note_on channel=9 note=42 velocity=0 time=0.0028937864583333333
EXTRACT: note_on channel=9 note=30 velocity=0 time=0.060769515625
EXTRACT: note_on channel=9 note=36 velocity=0 time=0.0028937864583333333
EXTRACT: note_on channel=9 note=80 velocity=0 time=0
EXTRACT: note_on channel=9 note=29 velocity=26 time=0.0028937864583333333
EXTRACT: note_on channel=9 note=54 velocity=40 time=0
EXTRACT: note_on channel=9 note=56 velocity=10 time=0
EXTRACT: note_on channel=9 note=54 velocity=0 time=0.060769515625
EXTRACT: note_on channel=9 note=56 velocity=0 time=0.07523844791666666
EXTRACT: note_on channel=9 note=29 velocity=0 time=0
EXTRACT: note_on channel=0 note=31 velocity=0 time=0
EXTRACT: note_on channel=9 note=30 velocity=31 time=0.0028937864583333333
EXTRACT: note_on channel=9 note=39 velocity=80 time=0
EXTRACT: note_on channel=9 note=40 velocity=121 time=0
EXTRACT: note_on channel=9 note=42 velocity=114 time=0
EXTRACT: note_on channel=9 note=54 velocity=57 time=0
EXTRACT: note_on channel=0 note=30 velocity=100 time=0
EXTRACT: note_on channel=1 note=31 velocity=0 time=0.018809611979166665
EXTRACT: note_on channel=1 note=30 velocity=100 time=0.0028937864583333333
EXTRACT: note_on channel=9 note=54 velocity=0 time=0.0303847578125
EXTRACT: note_on channel=9 note=42 velocity=0 time=0.052088156249999996
EXTRACT: note_on channel=9 note=30 velocity=0 time=0.031831651041666666
EXTRACT: note_on channel=9 note=39 velocity=0 time=0
EXTRACT: note_on channel=9 note=40 velocity=0 time=0
EXTRACT: note_on channel=9 note=54 velocity=20 time=0.0028937864583333333
EXTRACT: note_on channel=9 note=54 velocity=0 time=0.03761922395833333
EXTRACT: note_on channel=9 note=30 velocity=35 time=0.10128252604166667
EXTRACT: note_on channel=9 note=42 velocity=90 time=0
EXTRACT: note_on channel=9 note=54 velocity=50 time=0
EXTRACT: note_on channel=9 note=56 velocity=19 time=0
EXTRACT: note_on channel=9 note=80 velocity=127 time=0
EXTRACT: note_on channel=0 note=30 velocity=0 time=0.031831651041666666
EXTRACT: note_on channel=9 note=54 velocity=0 time=0.008681359375
EXTRACT: note_on channel=1 note=30 velocity=0 time=0.013022039062499999
EXTRACT: note_on channel=9 note=56 velocity=0 time=0.015915825520833333
EXTRACT: note_on channel=9 note=42 velocity=0 time=0.0057875729166666666
EXTRACT: note_on channel=9 note=30 velocity=0 time=0.05787572916666667
EXTRACT: note_on channel=9 note=80 velocity=0 time=0.0028937864583333333
EXTRACT: note_on channel=9 note=29 velocity=28 time=0.0028937864583333333
EXTRACT: note_on channel=9 note=54 velocity=24 time=0
EXTRACT: note_on channel=9 note=56 velocity=10 time=0
EXTRACT: note_on channel=9 note=54 velocity=0 time=0.04051301041666667
EXTRACT: note_on channel=2 note=73 velocity=0 time=0.08970738020833333
EXTRACT: note_on channel=8 note=61 velocity=0 time=0.0028937864583333333
EXTRACT: note_on channel=9 note=56 velocity=0 time=0.0028937864583333333
EXTRACT: note_on channel=9 note=29 velocity=0 time=0
EXTRACT: note_on channel=2 note=77 velocity=0 time=0
EXTRACT: note_on channel=9 note=30 velocity=42 time=0.0028937864583333333
EXTRACT: note_on channel=9 note=36 velocity=116 time=0
EXTRACT: note_on channel=9 note=42 velocity=122 time=0
EXTRACT: note_on channel=9 note=54 velocity=65 time=0
EXTRACT: note_on channel=9 note=57 velocity=51 time=0
EXTRACT: note_on channel=0 note=30 velocity=110 time=0
EXTRACT: note_on channel=2 note=82 velocity=0 time=0
EXTRACT: note_on channel=2 note=73 velocity=37 time=0
EXTRACT: note_on channel=2 note=78 velocity=39 time=0
EXTRACT: note_on channel=2 note=82 velocity=35 time=0
EXTRACT: note_on channel=3 note=61 velocity=115 time=0
EXTRACT: note_on channel=3 note=70 velocity=115 time=0
EXTRACT: note_on channel=6 note=66 velocity=49 time=0
EXTRACT: note_on channel=6 note=73 velocity=25 time=0
EXTRACT: note_on channel=8 note=70 velocity=0 time=0
EXTRACT: note_on channel=8 note=65 velocity=0 time=0
EXTRACT: note_on channel=8 note=61 velocity=76 time=0
EXTRACT: note_on channel=8 note=66 velocity=79 time=0
EXTRACT: note_on channel=8 note=70 velocity=72 time=0
EXTRACT: note_on channel=1 note=30 velocity=110 time=0.0217033984375
EXTRACT: note_on channel=9 note=54 velocity=0 time=0.024597184895833332
EXTRACT: note_on channel=9 note=42 velocity=0 time=0.04051301041666667
EXTRACT: note_on channel=9 note=30 velocity=0 time=0.049194369791666664
EXTRACT: note_on channel=9 note=36 velocity=0 time=0
EXTRACT: note_on channel=9 note=57 velocity=0 time=0
EXTRACT: note_on channel=9 note=54 velocity=17 time=0.0028937864583333333
EXTRACT: note_on channel=9 note=54 velocity=0 time=0.052088156249999996
EXTRACT: note_on channel=0 note=30 velocity=0 time=0.07234466145833333
EXTRACT: note_on channel=9 note=30 velocity=42 time=0.014468932291666667
EXTRACT: note_on channel=9 note=42 velocity=100 time=0
EXTRACT: note_on channel=9 note=54 velocity=53 time=0
EXTRACT: note_on channel=9 note=56 velocity=19 time=0
EXTRACT: note_on channel=9 note=80 velocity=127 time=0
EXTRACT: note_on channel=1 note=30 velocity=0 time=0.007234466145833333
EXTRACT: note_on channel=9 note=54 velocity=0 time=0.027490971354166668
EXTRACT: note_on channel=9 note=56 velocity=0 time=0.0347254375
EXTRACT: note_on channel=9 note=42 velocity=0 time=0.0057875729166666666
EXTRACT: note_on channel=9 note=30 velocity=0 time=0.060769515625
EXTRACT: note_on channel=9 note=80 velocity=0 time=0
EXTRACT: note_on channel=9 note=54 velocity=29 time=0.0028937864583333333
EXTRACT: note_on channel=9 note=56 velocity=10 time=0
EXTRACT: note_on channel=9 note=54 velocity=0 time=0.07523844791666666
EXTRACT: note_on channel=9 note=56 velocity=0 time=0.060769515625
EXTRACT: note_on channel=9 note=29 velocity=39 time=0.0028937864583333333
EXTRACT: note_on channel=9 note=39 velocity=80 time=0
EXTRACT: note_on channel=9 note=40 velocity=121 time=0
EXTRACT: note_on channel=9 note=42 velocity=114 time=0
EXTRACT: note_on channel=9 note=54 velocity=60 time=0
EXTRACT: note_on channel=0 note=30 velocity=105 time=0
EXTRACT: note_on channel=1 note=30 velocity=105 time=0.0217033984375
EXTRACT: note_on channel=9 note=54 velocity=0 time=0.018809611979166665
EXTRACT: note_on channel=9 note=42 velocity=0 time=0.06366330208333333
EXTRACT: note_on channel=9 note=29 velocity=0 time=0.031831651041666666
EXTRACT: note_on channel=9 note=39 velocity=0 time=0
EXTRACT: note_on channel=9 note=40 velocity=0 time=0
EXTRACT: note_on channel=9 note=54 velocity=24 time=0.0028937864583333333
EXTRACT: note_on channel=3 note=61 velocity=0 time=0.06366330208333333
EXTRACT: note_on channel=9 note=54 velocity=0 time=0.008681359375
EXTRACT: note_on channel=3 note=70 velocity=0 time=0.0028937864583333333
EXTRACT: note_on channel=0 note=30 velocity=0 time=0.05787572916666667
EXTRACT: note_on channel=9 note=30 velocity=42 time=0.0057875729166666666
EXTRACT: note_on channel=9 note=36 velocity=111 time=0
EXTRACT: note_on channel=9 note=42 velocity=90 time=0
EXTRACT: note_on channel=9 note=54 velocity=55 time=0
EXTRACT: note_on channel=9 note=56 velocity=19 time=0
EXTRACT: note_on channel=9 note=80 velocity=127 time=0
EXTRACT: note_on channel=0 note=32 velocity=108 time=0
EXTRACT: note_on channel=3 note=60 velocity=113 time=0
EXTRACT: note_on channel=3 note=69 velocity=103 time=0
EXTRACT: note_on channel=1 note=30 velocity=0 time=0.015915825520833333
EXTRACT: note_on channel=1 note=32 velocity=108 time=0.0057875729166666666
EXTRACT: note_on channel=9 note=54 velocity=0 time=0.018809611979166665
EXTRACT: note_on channel=9 note=56 velocity=0 time=0.028937864583333334
EXTRACT: note_on channel=9 note=42 velocity=0 time=0.0028937864583333333
EXTRACT: note_on channel=9 note=36 velocity=0 time=0.023150291666666666
EXTRACT: note_on channel=3 note=60 velocity=0 time=0.026044078124999998
EXTRACT: note_on channel=9 note=30 velocity=0 time=0.011575145833333333
EXTRACT: note_on channel=9 note=80 velocity=0 time=0.0028937864583333333
EXTRACT: note_on channel=9 note=29 velocity=28 time=0.0028937864583333333
EXTRACT: note_on channel=9 note=54 velocity=27 time=0
EXTRACT: note_on channel=9 note=56 velocity=10 time=0
EXTRACT: note_on channel=3 note=69 velocity=0 time=0
EXTRACT: note_on channel=9 note=54 velocity=0 time=0.052088156249999996
EXTRACT: note_on channel=2 note=73 velocity=0 time=0.07234466145833333
EXTRACT: note_on channel=8 note=61 velocity=0 time=0.0028937864583333333
EXTRACT: note_on channel=2 note=78 velocity=0 time=0.0028937864583333333
EXTRACT: note_on channel=6 note=66 velocity=0 time=0
EXTRACT: note_on channel=8 note=66 velocity=0 time=0
EXTRACT: note_on channel=9 note=56 velocity=0 time=0.0057875729166666666
EXTRACT: note_on channel=9 note=29 velocity=0 time=0
EXTRACT: note_on channel=0 note=32 velocity=0 time=0
EXTRACT: note_on channel=6 note=73 velocity=0 time=0
EXTRACT: note_on channel=9 note=30 velocity=39 time=0.0028937864583333333
EXTRACT: note_on channel=9 note=36 velocity=112 time=0
EXTRACT: note_on channel=9 note=42 velocity=122 time=0
EXTRACT: note_on channel=9 note=54 velocity=61 time=0
EXTRACT: note_on channel=9 note=57 velocity=70 time=0
EXTRACT: note_on channel=0 note=29 velocity=99 time=0
EXTRACT: note_on channel=2 note=82 velocity=0 time=0
EXTRACT: note_on channel=2 note=72 velocity=38 time=0
EXTRACT: note_on channel=2 note=77 velocity=37 time=0
EXTRACT: note_on channel=2 note=81 velocity=36 time=0
EXTRACT: note_on channel=6 note=65 velocity=49 time=0
EXTRACT: note_on channel=6 note=72 velocity=25 time=0
EXTRACT: note_on channel=8 note=70 velocity=0 time=0
EXTRACT: note_on channel=8 note=60 velocity=77 time=0
EXTRACT: note_on channel=8 note=65 velocity=76 time=0
EXTRACT: note_on channel=8 note=69 velocity=73 time=0
EXTRACT: note_on channel=1 note=32 velocity=0 time=0.018809611979166665
EXTRACT: note_on channel=1 note=29 velocity=99 time=0.0028937864583333333
EXTRACT: note_on channel=9 note=54 velocity=0 time=0.0303847578125
EXTRACT: note_on channel=9 note=42 velocity=0 time=0.0347254375
EXTRACT: note_on channel=9 note=30 velocity=0 time=0.043406796875
EXTRACT: note_on channel=9 note=36 velocity=0 time=0.0057875729166666666
EXTRACT: note_on channel=9 note=57 velocity=0 time=0
EXTRACT: note_on channel=9 note=29 velocity=29 time=0.0028937864583333333
EXTRACT: note_on channel=9 note=54 velocity=23 time=0
EXTRACT: note_on channel=9 note=54 velocity=0 time=0.03761922395833333
EXTRACT: note_on channel=0 note=29 velocity=0 time=0.069450875
EXTRACT: note_on channel=1 note=29 velocity=0 time=0.0217033984375
EXTRACT: note_on channel=9 note=29 velocity=0 time=0.007234466145833333
EXTRACT: note_on channel=9 note=30 velocity=38 time=0.0028937864583333333
EXTRACT: note_on channel=9 note=42 velocity=100 time=0
EXTRACT: note_on channel=9 note=54 velocity=56 time=0
EXTRACT: note_on channel=9 note=56 velocity=19 time=0
EXTRACT: note_on channel=9 note=80 velocity=127 time=0
EXTRACT: note_on channel=3 note=63 velocity=115 time=0
EXTRACT: note_on channel=9 note=54 velocity=0 time=0.052088156249999996
EXTRACT: note_on channel=9 note=56 velocity=0 time=0.020256505208333334
EXTRACT: note_on channel=9 note=42 velocity=0 time=0.0028937864583333333
EXTRACT: note_on channel=3 note=63 velocity=0 time=0
EXTRACT: note_on channel=9 note=30 velocity=0 time=0.05787572916666667
EXTRACT: note_on channel=9 note=80 velocity=0 time=0.0028937864583333333
EXTRACT: note_on channel=9 note=29 velocity=26 time=0.0028937864583333333
EXTRACT: note_on channel=9 note=54 velocity=40 time=0
EXTRACT: note_on channel=9 note=56 velocity=10 time=0
EXTRACT: note_on channel=9 note=54 velocity=0 time=0.060769515625
EXTRACT: note_on channel=9 note=56 velocity=0 time=0.07523844791666666
EXTRACT: note_on channel=9 note=29 velocity=0 time=0
EXTRACT: note_on channel=9 note=30 velocity=31 time=0.0028937864583333333
EXTRACT: note_on channel=9 note=39 velocity=80 time=0
EXTRACT: note_on channel=9 note=40 velocity=121 time=0
EXTRACT: note_on channel=9 note=42 velocity=114 time=0
EXTRACT: note_on channel=9 note=54 velocity=57 time=0
EXTRACT: note_on channel=3 note=63 velocity=117 time=0
EXTRACT: note_on channel=9 note=54 velocity=0 time=0.052088156249999996
EXTRACT: note_on channel=9 note=42 velocity=0 time=0.052088156249999996
EXTRACT: note_on channel=9 note=30 velocity=0 time=0.031831651041666666
EXTRACT: note_on channel=9 note=39 velocity=0 time=0
EXTRACT: note_on channel=9 note=40 velocity=0 time=0
EXTRACT: note_on channel=9 note=54 velocity=20 time=0.0028937864583333333
EXTRACT: note_on channel=9 note=54 velocity=0 time=0.03761922395833333
EXTRACT: note_on channel=3 note=63 velocity=0 time=0.07523844791666666
EXTRACT: note_on channel=9 note=30 velocity=35 time=0.026044078124999998
EXTRACT: note_on channel=9 note=42 velocity=90 time=0
EXTRACT: note_on channel=9 note=54 velocity=50 time=0
EXTRACT: note_on channel=9 note=56 velocity=19 time=0
EXTRACT: note_on channel=9 note=80 velocity=127 time=0
EXTRACT: note_on channel=3 note=58 velocity=116 time=0
EXTRACT: note_on channel=9 note=54 velocity=0 time=0.04051301041666667
EXTRACT: note_on channel=9 note=56 velocity=0 time=0.028937864583333334
EXTRACT: note_on channel=9 note=42 velocity=0 time=0.0057875729166666666
EXTRACT: note_on channel=3 note=58 velocity=0 time=0.0057875729166666666
EXTRACT: note_on channel=9 note=30 velocity=0 time=0.052088156249999996
EXTRACT: note_on channel=9 note=80 velocity=0 time=0.0028937864583333333
EXTRACT: note_on channel=9 note=29 velocity=28 time=0.0028937864583333333
EXTRACT: note_on channel=9 note=54 velocity=24 time=0
EXTRACT: note_on channel=9 note=56 velocity=10 time=0
EXTRACT: note_on channel=9 note=54 velocity=0 time=0.04051301041666667
EXTRACT: note_on channel=2 note=72 velocity=0 time=0.08391980729166666
EXTRACT: note_on channel=8 note=60 velocity=0 time=0.0028937864583333333
EXTRACT: note_on channel=2 note=77 velocity=0 time=0.0028937864583333333
EXTRACT: note_on channel=8 note=65 velocity=0 time=0
EXTRACT: note_on channel=6 note=65 velocity=0 time=0.0028937864583333333
EXTRACT: note_on channel=9 note=56 velocity=0 time=0.0028937864583333333
EXTRACT: note_on channel=9 note=29 velocity=0 time=0
EXTRACT: note_on channel=8 note=69 velocity=0 time=0
EXTRACT: note_on channel=9 note=30 velocity=42 time=0.0028937864583333333
EXTRACT: note_on channel=9 note=36 velocity=114 time=0
EXTRACT: note_on channel=9 note=42 velocity=122 time=0
EXTRACT: note_on channel=9 note=54 velocity=65 time=0
EXTRACT: note_on channel=0 note=34 velocity=112 time=0
EXTRACT: note_on channel=2 note=81 velocity=0 time=0
EXTRACT: note_on channel=2 note=73 velocity=41 time=0
EXTRACT: note_on channel=2 note=77 velocity=39 time=0
EXTRACT: note_on channel=2 note=82 velocity=39 time=0
EXTRACT: note_on channel=3 note=66 velocity=120 time=0
EXTRACT: note_on channel=6 note=72 velocity=0 time=0
EXTRACT: note_on channel=8 note=61 velocity=83 time=0
EXTRACT: note_on channel=8 note=65 velocity=80 time=0
EXTRACT: note_on channel=8 note=70 velocity=79 time=0
EXTRACT: note_on channel=1 note=34 velocity=112 time=0.0217033984375
EXTRACT: note_on channel=9 note=54 velocity=0 time=0.024597184895833332
EXTRACT: note_on channel=9 note=42 velocity=0 time=0.043406796875
EXTRACT: note_on channel=9 note=36 velocity=0 time=0.04630058333333333
EXTRACT: note_on channel=9 note=30 velocity=0 time=0
EXTRACT: note_on channel=9 note=54 velocity=17 time=0.0028937864583333333
EXTRACT: note_on channel=9 note=54 velocity=0 time=0.052088156249999996
EXTRACT: note_on channel=9 note=30 velocity=42 time=0.08681359375
EXTRACT: note_on channel=9 note=42 velocity=100 time=0
EXTRACT: note_on channel=9 note=54 velocity=53 time=0
EXTRACT: note_on channel=9 note=56 velocity=19 time=0
EXTRACT: note_on channel=9 note=80 velocity=127 time=0
EXTRACT: note_on channel=9 note=54 velocity=0 time=0.031831651041666666
EXTRACT: note_on channel=0 note=34 velocity=0 time=0.011575145833333333
EXTRACT: note_on channel=1 note=34 velocity=0 time=0.0217033984375
EXTRACT: note_on channel=9 note=56 velocity=0 time=0.0043406796875
EXTRACT: note_on channel=9 note=42 velocity=0 time=0.0057875729166666666
EXTRACT: note_on channel=3 note=66 velocity=0 time=0.054981942708333335
EXTRACT: note_on channel=9 note=30 velocity=0 time=0.0057875729166666666
EXTRACT: note_on channel=9 note=80 velocity=0 time=0
EXTRACT: note_on channel=9 note=54 velocity=29 time=0.0028937864583333333
EXTRACT: note_on channel=9 note=56 velocity=10 time=0
EXTRACT: note_on channel=3 note=65 velocity=115 time=0
EXTRACT: note_on channel=3 note=65 velocity=0 time=0.04630058333333333
EXTRACT: note_on channel=9 note=54 velocity=0 time=0.028937864583333334
EXTRACT: note_on channel=9 note=56 velocity=0 time=0.060769515625
EXTRACT: note_on channel=9 note=29 velocity=39 time=0.0028937864583333333
EXTRACT: note_on channel=9 note=39 velocity=80 time=0
EXTRACT: note_on channel=9 note=40 velocity=121 time=0
EXTRACT: note_on channel=9 note=42 velocity=114 time=0
EXTRACT: note_on channel=9 note=54 velocity=60 time=0
EXTRACT: note_on channel=0 note=34 velocity=109 time=0
EXTRACT: note_on channel=1 note=34 velocity=109 time=0.0217033984375
EXTRACT: note_on channel=9 note=54 velocity=0 time=0.018809611979166665
EXTRACT: note_on channel=9 note=42 velocity=0 time=0.06366330208333333
EXTRACT: note_on channel=9 note=29 velocity=0 time=0.031831651041666666
EXTRACT: note_on channel=9 note=39 velocity=0 time=0
EXTRACT: note_on channel=9 note=40 velocity=0 time=0
EXTRACT: note_on channel=9 note=54 velocity=24 time=0.0028937864583333333
EXTRACT: note_on channel=9 note=54 velocity=0 time=0.07234466145833333
EXTRACT: note_on channel=0 note=34 velocity=0 time=0.060769515625
EXTRACT: note_on channel=9 note=30 velocity=42 time=0.0057875729166666666
EXTRACT: note_on channel=9 note=36 velocity=109 time=0
EXTRACT: note_on channel=9 note=42 velocity=90 time=0
EXTRACT: note_on channel=9 note=54 velocity=55 time=0
EXTRACT: note_on channel=9 note=56 velocity=19 time=0
EXTRACT: note_on channel=9 note=80 velocity=127 time=0
EXTRACT: note_on channel=0 note=33 velocity=101 time=0
EXTRACT: note_on channel=3 note=65 velocity=118 time=0
EXTRACT: note_on channel=1 note=34 velocity=0 time=0.015915825520833333
EXTRACT: note_on channel=1 note=33 velocity=101 time=0.0057875729166666666
EXTRACT: note_on channel=9 note=54 velocity=0 time=0.018809611979166665
EXTRACT: note_on channel=9 note=56 velocity=0 time=0.028937864583333334
EXTRACT: note_on channel=9 note=42 velocity=0 time=0.0028937864583333333
EXTRACT: note_on channel=9 note=36 velocity=0 time=0.0347254375
EXTRACT: note_on channel=9 note=30 velocity=0 time=0.026044078124999998
EXTRACT: note_on channel=9 note=80 velocity=0 time=0.0028937864583333333
EXTRACT: note_on channel=9 note=29 velocity=28 time=0.0028937864583333333
EXTRACT: note_on channel=9 note=54 velocity=27 time=0
EXTRACT: note_on channel=9 note=56 velocity=10 time=0
EXTRACT: note_on channel=3 note=65 velocity=0 time=0.043406796875
EXTRACT: note_on channel=9 note=54 velocity=0 time=0.008681359375
EXTRACT: note_on channel=9 note=29 velocity=0 time=0.08102602083333334
EXTRACT: note_on channel=9 note=56 velocity=0 time=0.0028937864583333333
EXTRACT: note_on channel=0 note=33 velocity=0 time=0
EXTRACT: note_on channel=9 note=30 velocity=39 time=0.0028937864583333333
EXTRACT: note_on channel=9 note=36 velocity=109 time=0
EXTRACT: note_on channel=9 note=42 velocity=122 time=0
EXTRACT: note_on channel=9 note=54 velocity=61 time=0
EXTRACT: note_on channel=0 note=32 velocity=99 time=0
EXTRACT: note_on channel=1 note=33 velocity=0 time=0.018809611979166665
EXTRACT: note_on channel=1 note=32 velocity=99 time=0.0028937864583333333
EXTRACT: note_on channel=9 note=54 velocity=0 time=0.033278544270833335
EXTRACT: note_on channel=9 note=42 velocity=0 time=0.0347254375
EXTRACT: note_on channel=9 note=36 velocity=0 time=0.008681359375
EXTRACT: note_on channel=9 note=30 velocity=0 time=0.0347254375
EXTRACT: note_on channel=9 note=29 velocity=29 time=0.0057875729166666666
EXTRACT: note_on channel=9 note=54 velocity=23 time=0
EXTRACT: note_on channel=9 note=54 velocity=0 time=0.03761922395833333
EXTRACT: note_on channel=9 note=29 velocity=0 time=0.09838873958333333
EXTRACT: note_on channel=0 note=32 velocity=0 time=0
EXTRACT: note_on channel=9 note=30 velocity=38 time=0.0028937864583333333
EXTRACT: note_on channel=9 note=36 velocity=113 time=0
EXTRACT: note_on channel=9 note=42 velocity=100 time=0
EXTRACT: note_on channel=9 note=54 velocity=56 time=0
EXTRACT: note_on channel=9 note=56 velocity=19 time=0
EXTRACT: note_on channel=9 note=80 velocity=127 time=0
EXTRACT: note_on channel=0 note=31 velocity=105 time=0
EXTRACT: note_on channel=1 note=32 velocity=0 time=0.018809611979166665
EXTRACT: note_on channel=1 note=31 velocity=105 time=0.0028937864583333333
EXTRACT: note_on channel=9 note=54 velocity=0 time=0.027490971354166668
EXTRACT: note_on channel=9 note=56 velocity=0 time=0.020256505208333334
EXTRACT: note_on channel=9 note=42 velocity=0 time=0.0057875729166666666
EXTRACT: note_on channel=9 note=30 velocity=0 time=0.05787572916666667
EXTRACT: note_on channel=9 note=36 velocity=0 time=0.0028937864583333333
EXTRACT: note_on channel=9 note=80 velocity=0 time=0
EXTRACT: note_on channel=9 note=29 velocity=26 time=0.0028937864583333333
EXTRACT: note_on channel=9 note=54 velocity=40 time=0
EXTRACT: note_on channel=9 note=56 velocity=10 time=0
EXTRACT: note_on channel=9 note=54 velocity=0 time=0.060769515625
EXTRACT: note_on channel=9 note=56 velocity=0 time=0.07523844791666666
EXTRACT: note_on channel=9 note=29 velocity=0 time=0
EXTRACT: note_on channel=0 note=31 velocity=0 time=0
EXTRACT: note_on channel=9 note=30 velocity=31 time=0.0028937864583333333
EXTRACT: note_on channel=9 note=39 velocity=80 time=0
EXTRACT: note_on channel=9 note=40 velocity=121 time=0
EXTRACT: note_on channel=9 note=42 velocity=114 time=0
EXTRACT: note_on channel=9 note=54 velocity=57 time=0
EXTRACT: note_on channel=0 note=30 velocity=100 time=0
EXTRACT: note_on channel=1 note=31 velocity=0 time=0.018809611979166665
EXTRACT: note_on channel=1 note=30 velocity=100 time=0.0028937864583333333
EXTRACT: note_on channel=9 note=54 velocity=0 time=0.0303847578125
EXTRACT: note_on channel=9 note=42 velocity=0 time=0.052088156249999996
EXTRACT: note_on channel=9 note=30 velocity=0 time=0.031831651041666666
EXTRACT: note_on channel=9 note=39 velocity=0 time=0
EXTRACT: note_on channel=9 note=40 velocity=0 time=0
EXTRACT: note_on channel=9 note=54 velocity=20 time=0.0028937864583333333
EXTRACT: note_on channel=9 note=54 velocity=0 time=0.03761922395833333
EXTRACT: note_on channel=9 note=30 velocity=35 time=0.10128252604166667
EXTRACT: note_on channel=9 note=42 velocity=90 time=0
EXTRACT: note_on channel=9 note=54 velocity=50 time=0
EXTRACT: note_on channel=9 note=56 velocity=19 time=0
EXTRACT: note_on channel=9 note=80 velocity=127 time=0
EXTRACT: note_on channel=0 note=30 velocity=0 time=0.031831651041666666
EXTRACT: note_on channel=9 note=54 velocity=0 time=0.008681359375
EXTRACT: note_on channel=1 note=30 velocity=0 time=0.013022039062499999
EXTRACT: note_on channel=9 note=56 velocity=0 time=0.015915825520833333
EXTRACT: note_on channel=9 note=42 velocity=0 time=0.0057875729166666666
EXTRACT: note_on channel=9 note=30 velocity=0 time=0.05787572916666667
EXTRACT: note_on channel=9 note=80 velocity=0 time=0.0028937864583333333
EXTRACT: note_on channel=9 note=29 velocity=28 time=0.0028937864583333333
EXTRACT: note_on channel=9 note=54 velocity=24 time=0
EXTRACT: note_on channel=9 note=56 velocity=10 time=0
EXTRACT: note_on channel=9 note=54 velocity=0 time=0.04051301041666667
EXTRACT: note_on channel=2 note=73 velocity=0 time=0.08391980729166666
EXTRACT: note_on channel=8 note=61 velocity=0 time=0.0028937864583333333
EXTRACT: note_on channel=2 note=77 velocity=0 time=0.0028937864583333333
EXTRACT: note_on channel=8 note=65 velocity=0 time=0.0028937864583333333
EXTRACT: note_on channel=9 note=56 velocity=0 time=0.0028937864583333333
EXTRACT: note_on channel=9 note=29 velocity=0 time=0
EXTRACT: note_on channel=9 note=30 velocity=42 time=0.0028937864583333333
EXTRACT: note_on channel=9 note=36 velocity=116 time=0
EXTRACT: note_on channel=9 note=42 velocity=122 time=0
EXTRACT: note_on channel=9 note=54 velocity=65 time=0
EXTRACT: note_on channel=9 note=57 velocity=51 time=0
EXTRACT: note_on channel=0 note=30 velocity=110 time=0
EXTRACT: note_on channel=2 note=82 velocity=0 time=0
EXTRACT: note_on channel=2 note=73 velocity=37 time=0
EXTRACT: note_on channel=2 note=78 velocity=39 time=0
EXTRACT: note_on channel=2 note=82 velocity=35 time=0
EXTRACT: note_on channel=3 note=61 velocity=113 time=0
EXTRACT: note_on channel=3 note=70 velocity=118 time=0
EXTRACT: note_on channel=6 note=66 velocity=49 time=0
EXTRACT: note_on channel=6 note=73 velocity=25 time=0
EXTRACT: note_on channel=8 note=70 velocity=0 time=0
EXTRACT: note_on channel=8 note=61 velocity=76 time=0
EXTRACT: note_on channel=8 note=66 velocity=79 time=0
EXTRACT: note_on channel=8 note=70 velocity=72 time=0
EXTRACT: note_on channel=1 note=30 velocity=110 time=0.0217033984375
EXTRACT: note_on channel=9 note=54 velocity=0 time=0.024597184895833332
EXTRACT: note_on channel=9 note=42 velocity=0 time=0.04051301041666667
EXTRACT: note_on channel=9 note=30 velocity=0 time=0.049194369791666664
EXTRACT: note_on channel=9 note=36 velocity=0 time=0
EXTRACT: note_on channel=9 note=57 velocity=0 time=0
EXTRACT: note_on channel=9 note=54 velocity=17 time=0.0028937864583333333
EXTRACT: note_on channel=9 note=54 velocity=0 time=0.052088156249999996
EXTRACT: note_on channel=0 note=30 velocity=0 time=0.07234466145833333
EXTRACT: note_on channel=9 note=30 velocity=42 time=0.014468932291666667
EXTRACT: note_on channel=9 note=42 velocity=100 time=0
EXTRACT: note_on channel=9 note=54 velocity=53 time=0
EXTRACT: note_on channel=9 note=56 velocity=19 time=0
EXTRACT: note_on channel=9 note=80 velocity=127 time=0
EXTRACT: note_on channel=1 note=30 velocity=0 time=0.007234466145833333
EXTRACT: note_on channel=9 note=54 velocity=0 time=0.024597184895833332
EXTRACT: note_on channel=9 note=56 velocity=0 time=0.03761922395833333
EXTRACT: note_on channel=9 note=42 velocity=0 time=0.0057875729166666666
EXTRACT: note_on channel=9 note=30 velocity=0 time=0.060769515625
EXTRACT: note_on channel=9 note=80 velocity=0 time=0
EXTRACT: note_on channel=9 note=54 velocity=29 time=0.0028937864583333333
EXTRACT: note_on channel=9 note=56 velocity=10 time=0
EXTRACT: note_on channel=9 note=54 velocity=0 time=0.07523844791666666
EXTRACT: note_on channel=9 note=56 velocity=0 time=0.060769515625
EXTRACT: note_on channel=9 note=29 velocity=39 time=0.0028937864583333333
EXTRACT: note_on channel=9 note=39 velocity=80 time=0
EXTRACT: note_on channel=9 note=40 velocity=121 time=0
EXTRACT: note_on channel=9 note=42 velocity=114 time=0
EXTRACT: note_on channel=9 note=54 velocity=60 time=0
EXTRACT: note_on channel=0 note=30 velocity=105 time=0
EXTRACT: note_on channel=1 note=30 velocity=105 time=0.0217033984375
EXTRACT: note_on channel=9 note=54 velocity=0 time=0.018809611979166665
EXTRACT: note_on channel=9 note=42 velocity=0 time=0.06366330208333333
EXTRACT: note_on channel=9 note=29 velocity=0 time=0.031831651041666666
EXTRACT: note_on channel=9 note=39 velocity=0 time=0
EXTRACT: note_on channel=9 note=40 velocity=0 time=0
EXTRACT: note_on channel=9 note=54 velocity=24 time=0.0028937864583333333
EXTRACT: note_on channel=3 note=70 velocity=0 time=0.043406796875
EXTRACT: note_on channel=3 note=61 velocity=0 time=0
EXTRACT: note_on channel=9 note=54 velocity=0 time=0.028937864583333334
EXTRACT: note_on channel=0 note=30 velocity=0 time=0.060769515625
EXTRACT: note_on channel=9 note=30 velocity=42 time=0.0057875729166666666
EXTRACT: note_on channel=9 note=36 velocity=111 time=0
EXTRACT: note_on channel=9 note=42 velocity=90 time=0
EXTRACT: note_on channel=9 note=54 velocity=55 time=0
EXTRACT: note_on channel=9 note=56 velocity=19 time=0
EXTRACT: note_on channel=9 note=80 velocity=127 time=0
EXTRACT: note_on channel=0 note=32 velocity=108 time=0
EXTRACT: note_on channel=3 note=60 velocity=113 time=0
EXTRACT: note_on channel=3 note=69 velocity=104 time=0
EXTRACT: note_on channel=1 note=30 velocity=0 time=0.015915825520833333
EXTRACT: note_on channel=1 note=32 velocity=108 time=0.0057875729166666666
EXTRACT: note_on channel=9 note=54 velocity=0 time=0.018809611979166665
EXTRACT: note_on channel=9 note=56 velocity=0 time=0.028937864583333334
EXTRACT: note_on channel=9 note=42 velocity=0 time=0.0057875729166666666
EXTRACT: note_on channel=9 note=36 velocity=0 time=0.020256505208333334
EXTRACT: note_on channel=3 note=60 velocity=0 time=0.008681359375
EXTRACT: note_on channel=9 note=30 velocity=0 time=0.028937864583333334
EXTRACT: note_on channel=3 note=69 velocity=0 time=0
EXTRACT: note_on channel=9 note=80 velocity=0 time=0.0028937864583333333
EXTRACT: note_on channel=9 note=29 velocity=28 time=0.0028937864583333333
EXTRACT: note_on channel=9 note=54 velocity=27 time=0
EXTRACT: note_on channel=9 note=56 velocity=10 time=0
EXTRACT: note_on channel=9 note=54 velocity=0 time=0.052088156249999996
EXTRACT: note_on channel=2 note=73 velocity=0 time=0.07234466145833333
EXTRACT: note_on channel=8 note=61 velocity=0 time=0.0028937864583333333
EXTRACT: note_on channel=2 note=78 velocity=0 time=0.0028937864583333333
EXTRACT: note_on channel=8 note=66 velocity=0 time=0.0028937864583333333
EXTRACT: note_on channel=9 note=56 velocity=0 time=0.0028937864583333333
EXTRACT: note_on channel=9 note=29 velocity=0 time=0
EXTRACT: note_on channel=0 note=32 velocity=0 time=0
EXTRACT: note_on channel=6 note=73 velocity=0 time=0
EXTRACT: note_on channel=6 note=66 velocity=0 time=0
EXTRACT: note_on channel=9 note=30 velocity=39 time=0.0028937864583333333
EXTRACT: note_on channel=9 note=36 velocity=112 time=0
EXTRACT: note_on channel=9 note=42 velocity=122 time=0
EXTRACT: note_on channel=9 note=54 velocity=61 time=0
EXTRACT: note_on channel=9 note=57 velocity=70 time=0
EXTRACT: note_on channel=0 note=29 velocity=99 time=0
EXTRACT: note_on channel=2 note=82 velocity=0 time=0
EXTRACT: note_on channel=2 note=72 velocity=38 time=0
EXTRACT: note_on channel=2 note=77 velocity=37 time=0
EXTRACT: note_on channel=2 note=81 velocity=36 time=0
EXTRACT: note_on channel=6 note=65 velocity=49 time=0
EXTRACT: note_on channel=6 note=72 velocity=25 time=0
EXTRACT: note_on channel=8 note=70 velocity=0 time=0
EXTRACT: note_on channel=8 note=60 velocity=77 time=0
EXTRACT: note_on channel=8 note=65 velocity=76 time=0
EXTRACT: note_on channel=8 note=69 velocity=73 time=0
EXTRACT: note_on channel=1 note=32 velocity=0 time=0.018809611979166665
EXTRACT: note_on channel=1 note=29 velocity=99 time=0.0028937864583333333
EXTRACT: note_on channel=9 note=54 velocity=0 time=0.0303847578125
EXTRACT: note_on channel=9 note=42 velocity=0 time=0.0347254375
EXTRACT: note_on channel=9 note=30 velocity=0 time=0.043406796875
EXTRACT: note_on channel=9 note=36 velocity=0 time=0.0057875729166666666
EXTRACT: note_on channel=9 note=57 velocity=0 time=0
EXTRACT: note_on channel=9 note=29 velocity=29 time=0.0028937864583333333
EXTRACT: note_on channel=9 note=54 velocity=23 time=0
EXTRACT: note_on channel=9 note=54 velocity=0 time=0.03761922395833333
EXTRACT: note_on channel=0 note=29 velocity=0 time=0.069450875
EXTRACT: note_on channel=1 note=29 velocity=0 time=0.0217033984375
EXTRACT: note_on channel=9 note=29 velocity=0 time=0.007234466145833333
EXTRACT: note_on channel=9 note=30 velocity=38 time=0.0028937864583333333
EXTRACT: note_on channel=9 note=42 velocity=100 time=0
EXTRACT: note_on channel=9 note=54 velocity=56 time=0
EXTRACT: note_on channel=9 note=56 velocity=19 time=0
EXTRACT: note_on channel=9 note=80 velocity=127 time=0
EXTRACT: note_on channel=3 note=63 velocity=116 time=0
EXTRACT: note_on channel=9 note=54 velocity=0 time=0.052088156249999996
EXTRACT: note_on channel=3 note=63 velocity=0 time=0.008681359375
EXTRACT: note_on channel=9 note=56 velocity=0 time=0.008681359375
EXTRACT: note_on channel=9 note=42 velocity=0 time=0.0057875729166666666
EXTRACT: note_on channel=9 note=30 velocity=0 time=0.05787572916666667
EXTRACT: note_on channel=9 note=80 velocity=0 time=0.0028937864583333333
EXTRACT: note_on channel=9 note=29 velocity=26 time=0.0028937864583333333
EXTRACT: note_on channel=9 note=54 velocity=40 time=0
EXTRACT: note_on channel=9 note=56 velocity=10 time=0
EXTRACT: note_on channel=9 note=54 velocity=0 time=0.060769515625
EXTRACT: note_on channel=9 note=56 velocity=0 time=0.07523844791666666
EXTRACT: note_on channel=9 note=29 velocity=0 time=0
EXTRACT: note_on channel=9 note=30 velocity=31 time=0.0028937864583333333
EXTRACT: note_on channel=9 note=39 velocity=80 time=0
EXTRACT: note_on channel=9 note=40 velocity=121 time=0
EXTRACT: note_on channel=9 note=42 velocity=114 time=0
EXTRACT: note_on channel=9 note=54 velocity=57 time=0
EXTRACT: note_on channel=3 note=63 velocity=116 time=0
EXTRACT: note_on channel=9 note=54 velocity=0 time=0.052088156249999996
EXTRACT: note_on channel=9 note=42 velocity=0 time=0.052088156249999996
EXTRACT: note_on channel=9 note=30 velocity=0 time=0.031831651041666666
EXTRACT: note_on channel=9 note=39 velocity=0 time=0
EXTRACT: note_on channel=9 note=40 velocity=0 time=0
EXTRACT: note_on channel=9 note=54 velocity=20 time=0.0028937864583333333
EXTRACT: note_on channel=9 note=54 velocity=0 time=0.03761922395833333
EXTRACT: note_on channel=3 note=63 velocity=0 time=0.06366330208333333
EXTRACT: note_on channel=9 note=30 velocity=35 time=0.03761922395833333
EXTRACT: note_on channel=9 note=42 velocity=90 time=0
EXTRACT: note_on channel=9 note=54 velocity=50 time=0
EXTRACT: note_on channel=9 note=56 velocity=19 time=0
EXTRACT: note_on channel=9 note=80 velocity=127 time=0
EXTRACT: note_on channel=3 note=58 velocity=113 time=0
EXTRACT: note_on channel=9 note=54 velocity=0 time=0.04051301041666667
EXTRACT: note_on channel=9 note=56 velocity=0 time=0.028937864583333334
EXTRACT: note_on channel=9 note=42 velocity=0 time=0.0057875729166666666
EXTRACT: note_on channel=3 note=58 velocity=0 time=0
EXTRACT: note_on channel=9 note=30 velocity=0 time=0.05787572916666667
EXTRACT: note_on channel=9 note=80 velocity=0 time=0.0028937864583333333
EXTRACT: note_on channel=9 note=29 velocity=28 time=0.0028937864583333333
EXTRACT: note_on channel=9 note=54 velocity=24 time=0
EXTRACT: note_on channel=9 note=56 velocity=10 time=0
EXTRACT: note_on channel=9 note=54 velocity=0 time=0.04051301041666667
EXTRACT: note_on channel=2 note=72 velocity=0 time=0.08391980729166666
EXTRACT: note_on channel=8 note=60 velocity=0 time=0.0028937864583333333
EXTRACT: note_on channel=2 note=77 velocity=0 time=0.0028937864583333333
EXTRACT: note_on channel=8 note=65 velocity=0 time=0
EXTRACT: note_on channel=6 note=65 velocity=0 time=0.0028937864583333333
EXTRACT: note_on channel=9 note=56 velocity=0 time=0.0028937864583333333
EXTRACT: note_on channel=9 note=29 velocity=0 time=0
EXTRACT: note_on channel=8 note=69 velocity=0 time=0
EXTRACT: note_on channel=9 note=30 velocity=42 time=0.0028937864583333333
EXTRACT: note_on channel=9 note=36 velocity=114 time=0
EXTRACT: note_on channel=9 note=42 velocity=122 time=0
EXTRACT: note_on channel=9 note=49 velocity=74 time=0
EXTRACT: note_on channel=9 note=54 velocity=65 time=0
EXTRACT: note_on channel=0 note=34 velocity=112 time=0
EXTRACT: note_on channel=2 note=81 velocity=0 time=0
EXTRACT: note_on channel=2 note=73 velocity=41 time=0
EXTRACT: note_on channel=2 note=77 velocity=39 time=0
EXTRACT: note_on channel=2 note=82 velocity=39 time=0
EXTRACT: note_on channel=3 note=61 velocity=119 time=0
EXTRACT: note_on channel=6 note=72 velocity=0 time=0
EXTRACT: note_on channel=8 note=61 velocity=83 time=0
EXTRACT: note_on channel=8 note=65 velocity=80 time=0
EXTRACT: note_on channel=8 note=70 velocity=79 time=0
EXTRACT: note_on channel=1 note=34 velocity=112 time=0.0217033984375
EXTRACT: note_on channel=9 note=54 velocity=0 time=0.024597184895833332
EXTRACT: note_on channel=9 note=42 velocity=0 time=0.043406796875
EXTRACT: note_on channel=9 note=30 velocity=0 time=0.04630058333333333
EXTRACT: note_on channel=9 note=36 velocity=0 time=0
EXTRACT: note_on channel=9 note=49 velocity=0 time=0
EXTRACT: note_on channel=9 note=54 velocity=17 time=0.0028937864583333333
EXTRACT: note_on channel=9 note=54 velocity=0 time=0.052088156249999996
EXTRACT: note_on channel=9 note=30 velocity=42 time=0.08681359375
EXTRACT: note_on channel=9 note=42 velocity=100 time=0
EXTRACT: note_on channel=9 note=54 velocity=53 time=0
EXTRACT: note_on channel=9 note=56 velocity=19 time=0
EXTRACT: note_on channel=9 note=80 velocity=127 time=0
EXTRACT: note_on channel=9 note=54 velocity=0 time=0.031831651041666666
EXTRACT: note_on channel=0 note=34 velocity=0 time=0.011575145833333333
EXTRACT: note_on channel=1 note=34 velocity=0 time=0.0217033984375
EXTRACT: note_on channel=9 note=56 velocity=0 time=0.0043406796875
EXTRACT: note_on channel=9 note=42 velocity=0 time=0.0057875729166666666
EXTRACT: note_on channel=3 note=61 velocity=0 time=0.054981942708333335
EXTRACT: note_on channel=9 note=30 velocity=0 time=0.0057875729166666666
EXTRACT: note_on channel=9 note=80 velocity=0 time=0
EXTRACT: note_on channel=9 note=54 velocity=29 time=0.0028937864583333333
EXTRACT: note_on channel=9 note=56 velocity=10 time=0
EXTRACT: note_on channel=3 note=63 velocity=115 time=0
EXTRACT: note_on channel=3 note=63 velocity=0 time=0.060769515625
EXTRACT: note_on channel=9 note=54 velocity=0 time=0.014468932291666667
EXTRACT: note_on channel=9 note=56 velocity=0 time=0.060769515625
EXTRACT: note_on channel=9 note=29 velocity=39 time=0.0028937864583333333
EXTRACT: note_on channel=9 note=39 velocity=80 time=0
EXTRACT: note_on channel=9 note=40 velocity=121 time=0
EXTRACT: note_on channel=9 note=42 velocity=114 time=0
EXTRACT: note_on channel=9 note=54 velocity=60 time=0
EXTRACT: note_on channel=0 note=34 velocity=109 time=0
EXTRACT: note_on channel=1 note=34 velocity=109 time=0.0217033984375
EXTRACT: note_on channel=9 note=54 velocity=0 time=0.018809611979166665
EXTRACT: note_on channel=9 note=42 velocity=0 time=0.06366330208333333
EXTRACT: note_on channel=9 note=29 velocity=0 time=0.031831651041666666
EXTRACT: note_on channel=9 note=39 velocity=0 time=0
EXTRACT: note_on channel=9 note=40 velocity=0 time=0
EXTRACT: note_on channel=9 note=54 velocity=24 time=0.0028937864583333333
EXTRACT: note_on channel=9 note=54 velocity=0 time=0.07234466145833333
EXTRACT: note_on channel=0 note=34 velocity=0 time=0.06366330208333333
EXTRACT: note_on channel=9 note=30 velocity=42 time=0.0028937864583333333
EXTRACT: note_on channel=9 note=36 velocity=109 time=0
EXTRACT: note_on channel=9 note=42 velocity=90 time=0
EXTRACT: note_on channel=9 note=54 velocity=55 time=0
EXTRACT: note_on channel=9 note=56 velocity=19 time=0
EXTRACT: note_on channel=9 note=80 velocity=127 time=0
EXTRACT: note_on channel=0 note=33 velocity=101 time=0
EXTRACT: note_on channel=3 note=63 velocity=118 time=0
EXTRACT: note_on channel=1 note=34 velocity=0 time=0.018809611979166665
EXTRACT: note_on channel=1 note=33 velocity=101 time=0.0028937864583333333
EXTRACT: note_on channel=9 note=54 velocity=0 time=0.018809611979166665
EXTRACT: note_on channel=9 note=56 velocity=0 time=0.028937864583333334
EXTRACT: note_on channel=9 note=42 velocity=0 time=0.0057875729166666666
EXTRACT: note_on channel=9 note=36 velocity=0 time=0.031831651041666666
EXTRACT: note_on channel=9 note=30 velocity=0 time=0.026044078124999998
EXTRACT: note_on channel=9 note=80 velocity=0 time=0.0028937864583333333
EXTRACT: note_on channel=9 note=29 velocity=28 time=0.0028937864583333333
EXTRACT: note_on channel=9 note=54 velocity=27 time=0
EXTRACT: note_on channel=9 note=56 velocity=10 time=0
EXTRACT: note_on channel=9 note=54 velocity=0 time=0.052088156249999996
EXTRACT: note_on channel=9 note=56 velocity=0 time=0.08391980729166666
EXTRACT: note_on channel=9 note=29 velocity=0 time=0
EXTRACT: note_on channel=0 note=33 velocity=0 time=0
EXTRACT: note_on channel=9 note=30 velocity=39 time=0.0028937864583333333
EXTRACT: note_on channel=9 note=36 velocity=109 time=0
EXTRACT: note_on channel=9 note=42 velocity=122 time=0
EXTRACT: note_on channel=9 note=54 velocity=61 time=0
EXTRACT: note_on channel=0 note=32 velocity=99 time=0
EXTRACT: note_on channel=1 note=33 velocity=0 time=0.018809611979166665
EXTRACT: note_on channel=1 note=32 velocity=99 time=0.0028937864583333333
EXTRACT: note_on channel=3 note=63 velocity=0 time=0.013022039062499999
EXTRACT: note_on channel=9 note=54 velocity=0 time=0.020256505208333334
EXTRACT: note_on channel=9 note=42 velocity=0 time=0.0347254375
EXTRACT: note_on channel=9 note=36 velocity=0 time=0.008681359375
EXTRACT: note_on channel=9 note=30 velocity=0 time=0.0347254375
EXTRACT: note_on channel=9 note=29 velocity=29 time=0.0057875729166666666
EXTRACT: note_on channel=9 note=54 velocity=23 time=0
EXTRACT: note_on channel=9 note=54 velocity=0 time=0.03761922395833333
EXTRACT: note_on channel=0 note=32 velocity=0 time=0.095494953125
EXTRACT: note_on channel=9 note=29 velocity=0 time=0.0028937864583333333
EXTRACT: note_on channel=9 note=30 velocity=38 time=0.0028937864583333333
EXTRACT: note_on channel=9 note=36 velocity=113 time=0
EXTRACT: note_on channel=9 note=42 velocity=100 time=0
EXTRACT: note_on channel=9 note=54 velocity=56 time=0
EXTRACT: note_on channel=9 note=56 velocity=19 time=0
EXTRACT: note_on channel=9 note=80 velocity=127 time=0
EXTRACT: note_on channel=0 note=31 velocity=105 time=0
EXTRACT: note_on channel=1 note=32 velocity=0 time=0.015915825520833333
EXTRACT: note_on channel=1 note=31 velocity=105 time=0.0057875729166666666
EXTRACT: note_on channel=9 note=54 velocity=0 time=0.027490971354166668
EXTRACT: note_on channel=9 note=56 velocity=0 time=0.020256505208333334
EXTRACT: note_on channel=9 note=42 velocity=0 time=0.0057875729166666666
EXTRACT: note_on channel=9 note=30 velocity=0 time=0.05787572916666667
EXTRACT: note_on channel=9 note=36 velocity=0 time=0.0028937864583333333
EXTRACT: note_on channel=9 note=80 velocity=0 time=0
EXTRACT: note_on channel=9 note=29 velocity=26 time=0.0028937864583333333
EXTRACT: note_on channel=9 note=54 velocity=40 time=0
EXTRACT: note_on channel=9 note=56 velocity=10 time=0
EXTRACT: note_on channel=9 note=54 velocity=0 time=0.060769515625
EXTRACT: note_on channel=9 note=56 velocity=0 time=0.07523844791666666
EXTRACT: note_on channel=9 note=29 velocity=0 time=0
EXTRACT: note_on channel=0 note=31 velocity=0 time=0
EXTRACT: note_on channel=9 note=30 velocity=31 time=0.0028937864583333333
EXTRACT: note_on channel=9 note=39 velocity=80 time=0
EXTRACT: note_on channel=9 note=40 velocity=121 time=0
EXTRACT: note_on channel=9 note=42 velocity=114 time=0
EXTRACT: note_on channel=9 note=54 velocity=57 time=0
EXTRACT: note_on channel=0 note=30 velocity=100 time=0
EXTRACT: note_on channel=1 note=31 velocity=0 time=0.018809611979166665
EXTRACT: note_on channel=1 note=30 velocity=100 time=0.0028937864583333333
EXTRACT: note_on channel=9 note=54 velocity=0 time=0.0303847578125
EXTRACT: note_on channel=9 note=42 velocity=0 time=0.052088156249999996
EXTRACT: note_on channel=9 note=30 velocity=0 time=0.031831651041666666
EXTRACT: note_on channel=9 note=39 velocity=0 time=0
EXTRACT: note_on channel=9 note=40 velocity=0 time=0
EXTRACT: note_on channel=9 note=54 velocity=20 time=0.0028937864583333333
EXTRACT: note_on channel=9 note=54 velocity=0 time=0.03761922395833333
EXTRACT: note_on channel=9 note=30 velocity=35 time=0.10128252604166667
EXTRACT: note_on channel=9 note=42 velocity=90 time=0
EXTRACT: note_on channel=9 note=54 velocity=50 time=0
EXTRACT: note_on channel=9 note=56 velocity=19 time=0
EXTRACT: note_on channel=9 note=80 velocity=127 time=0
EXTRACT: note_on channel=0 note=30 velocity=0 time=0.031831651041666666
EXTRACT: note_on channel=9 note=54 velocity=0 time=0.0057875729166666666
EXTRACT: note_on channel=1 note=30 velocity=0 time=0.015915825520833333
EXTRACT: note_on channel=9 note=56 velocity=0 time=0.015915825520833333
EXTRACT: note_on channel=9 note=42 velocity=0 time=0.0057875729166666666
EXTRACT: note_on channel=9 note=30 velocity=0 time=0.05787572916666667
EXTRACT: note_on channel=9 note=80 velocity=0 time=0.0028937864583333333
EXTRACT: note_on channel=9 note=29 velocity=28 time=0.0028937864583333333
EXTRACT: note_on channel=9 note=54 velocity=24 time=0
EXTRACT: note_on channel=9 note=56 velocity=10 time=0
EXTRACT: note_on channel=9 note=54 velocity=0 time=0.04051301041666667
EXTRACT: note_on channel=2 note=73 velocity=0 time=0.08391980729166666
EXTRACT: note_on channel=8 note=61 velocity=0 time=0.0028937864583333333
EXTRACT: note_on channel=2 note=77 velocity=0 time=0.0028937864583333333
EXTRACT: note_on channel=8 note=65 velocity=0 time=0.0028937864583333333
EXTRACT: note_on channel=9 note=56 velocity=0 time=0.0028937864583333333
EXTRACT: note_on channel=9 note=29 velocity=0 time=0
EXTRACT: note_on channel=9 note=30 velocity=42 time=0.0028937864583333333
EXTRACT: note_on channel=9 note=36 velocity=116 time=0
EXTRACT: note_on channel=9 note=42 velocity=122 time=0
EXTRACT: note_on channel=9 note=54 velocity=65 time=0
EXTRACT: note_on channel=9 note=57 velocity=51 time=0
EXTRACT: note_on channel=0 note=30 velocity=110 time=0
EXTRACT: note_on channel=2 note=82 velocity=0 time=0
EXTRACT: note_on channel=2 note=73 velocity=37 time=0
EXTRACT: note_on channel=2 note=78 velocity=39 time=0
EXTRACT: note_on channel=2 note=82 velocity=35 time=0
EXTRACT: note_on channel=3 note=61 velocity=110 time=0
EXTRACT: note_on channel=3 note=70 velocity=114 time=0
EXTRACT: note_on channel=6 note=66 velocity=49 time=0
EXTRACT: note_on channel=6 note=73 velocity=35 time=0
EXTRACT: note_on channel=8 note=70 velocity=0 time=0
EXTRACT: note_on channel=8 note=61 velocity=76 time=0
EXTRACT: note_on channel=8 note=66 velocity=79 time=0
EXTRACT: note_on channel=8 note=70 velocity=72 time=0
EXTRACT: note_on channel=1 note=30 velocity=110 time=0.0217033984375
EXTRACT: note_on channel=9 note=54 velocity=0 time=0.024597184895833332
EXTRACT: note_on channel=9 note=42 velocity=0 time=0.04051301041666667
EXTRACT: note_on channel=9 note=30 velocity=0 time=0.049194369791666664
EXTRACT: note_on channel=9 note=36 velocity=0 time=0
EXTRACT: note_on channel=9 note=57 velocity=0 time=0
EXTRACT: note_on channel=9 note=54 velocity=17 time=0.0028937864583333333
EXTRACT: note_on channel=9 note=54 velocity=0 time=0.052088156249999996
EXTRACT: note_on channel=0 note=30 velocity=0 time=0.07234466145833333
EXTRACT: note_on channel=9 note=30 velocity=42 time=0.014468932291666667
EXTRACT: note_on channel=9 note=42 velocity=100 time=0
EXTRACT: note_on channel=9 note=54 velocity=53 time=0
EXTRACT: note_on channel=9 note=56 velocity=19 time=0
EXTRACT: note_on channel=9 note=80 velocity=127 time=0
EXTRACT: note_on channel=1 note=30 velocity=0 time=0.007234466145833333
EXTRACT: note_on channel=9 note=54 velocity=0 time=0.024597184895833332
EXTRACT: note_on channel=9 note=56 velocity=0 time=0.03761922395833333
EXTRACT: note_on channel=9 note=42 velocity=0 time=0.0057875729166666666
EXTRACT: note_on channel=9 note=30 velocity=0 time=0.060769515625
EXTRACT: note_on channel=9 note=80 velocity=0 time=0
EXTRACT: note_on channel=9 note=54 velocity=29 time=0.0028937864583333333
EXTRACT: note_on channel=9 note=56 velocity=10 time=0
EXTRACT: note_on channel=9 note=54 velocity=0 time=0.07523844791666666
EXTRACT: note_on channel=9 note=56 velocity=0 time=0.060769515625
EXTRACT: note_on channel=9 note=29 velocity=39 time=0.0028937864583333333
EXTRACT: note_on channel=9 note=39 velocity=80 time=0
EXTRACT: note_on channel=9 note=40 velocity=121 time=0
EXTRACT: note_on channel=9 note=42 velocity=114 time=0
EXTRACT: note_on channel=9 note=54 velocity=60 time=0
EXTRACT: note_on channel=0 note=30 velocity=105 time=0
EXTRACT: note_on channel=1 note=30 velocity=105 time=0.0217033984375
EXTRACT: note_on channel=9 note=54 velocity=0 time=0.018809611979166665
EXTRACT: note_on channel=9 note=42 velocity=0 time=0.06366330208333333
EXTRACT: note_on channel=9 note=29 velocity=0 time=0.031831651041666666
EXTRACT: note_on channel=9 note=39 velocity=0 time=0
EXTRACT: note_on channel=9 note=40 velocity=0 time=0
EXTRACT: note_on channel=9 note=54 velocity=24 time=0.0028937864583333333
EXTRACT: note_on channel=9 note=54 velocity=0 time=0.07234466145833333
EXTRACT: note_on channel=3 note=70 velocity=0 time=0.0057875729166666666
EXTRACT: note_on channel=3 note=61 velocity=0 time=0.008681359375
EXTRACT: note_on channel=0 note=30 velocity=0 time=0.049194369791666664
EXTRACT: note_on channel=9 note=30 velocity=42 time=0.0028937864583333333
EXTRACT: note_on channel=9 note=36 velocity=111 time=0
EXTRACT: note_on channel=9 note=42 velocity=90 time=0
EXTRACT: note_on channel=9 note=54 velocity=55 time=0
EXTRACT: note_on channel=9 note=56 velocity=19 time=0
EXTRACT: note_on channel=9 note=80 velocity=127 time=0
EXTRACT: note_on channel=0 note=32 velocity=108 time=0
EXTRACT: note_on channel=3 note=60 velocity=100 time=0
EXTRACT: note_on channel=3 note=69 velocity=96 time=0
EXTRACT: note_on channel=1 note=30 velocity=0 time=0.018809611979166665
EXTRACT: note_on channel=1 note=32 velocity=108 time=0.0028937864583333333
EXTRACT: note_on channel=9 note=54 velocity=0 time=0.018809611979166665
EXTRACT: note_on channel=9 note=56 velocity=0 time=0.028937864583333334
EXTRACT: note_on channel=9 note=42 velocity=0 time=0.0057875729166666666
EXTRACT: note_on channel=9 note=36 velocity=0 time=0.020256505208333334
EXTRACT: note_on channel=9 note=30 velocity=0 time=0.03761922395833333
EXTRACT: note_on channel=9 note=80 velocity=0 time=0.0028937864583333333
EXTRACT: note_on channel=9 note=29 velocity=28 time=0.0028937864583333333
EXTRACT: note_on channel=9 note=54 velocity=27 time=0
EXTRACT: note_on channel=9 note=56 velocity=10 time=0
EXTRACT: note_on channel=9 note=54 velocity=0 time=0.052088156249999996
EXTRACT: note_on channel=2 note=73 velocity=0 time=0.07234466145833333
EXTRACT: note_on channel=8 note=61 velocity=0 time=0.0028937864583333333
EXTRACT: note_on channel=2 note=78 velocity=0 time=0.0028937864583333333
EXTRACT: note_on channel=6 note=66 velocity=0 time=0.0028937864583333333
EXTRACT: note_on channel=8 note=66 velocity=0 time=0
EXTRACT: note_on channel=9 note=56 velocity=0 time=0.0028937864583333333
EXTRACT: note_on channel=9 note=29 velocity=0 time=0
EXTRACT: note_on channel=0 note=32 velocity=0 time=0
EXTRACT: note_on channel=6 note=73 velocity=0 time=0
EXTRACT: note_on channel=9 note=30 velocity=39 time=0.0028937864583333333
EXTRACT: note_on channel=9 note=36 velocity=112 time=0
EXTRACT: note_on channel=9 note=42 velocity=122 time=0
EXTRACT: note_on channel=9 note=54 velocity=61 time=0
EXTRACT: note_on channel=9 note=57 velocity=70 time=0
EXTRACT: note_on channel=0 note=29 velocity=99 time=0
EXTRACT: note_on channel=2 note=82 velocity=0 time=0
EXTRACT: note_on channel=2 note=72 velocity=38 time=0
EXTRACT: note_on channel=2 note=77 velocity=37 time=0
EXTRACT: note_on channel=2 note=81 velocity=36 time=0
EXTRACT: note_on channel=6 note=65 velocity=49 time=0
EXTRACT: note_on channel=6 note=72 velocity=52 time=0
EXTRACT: note_on channel=8 note=70 velocity=0 time=0
EXTRACT: note_on channel=8 note=60 velocity=77 time=0
EXTRACT: note_on channel=8 note=65 velocity=76 time=0
EXTRACT: note_on channel=8 note=69 velocity=73 time=0
EXTRACT: note_on channel=1 note=32 velocity=0 time=0.018809611979166665
EXTRACT: note_on channel=1 note=29 velocity=99 time=0.0028937864583333333
EXTRACT: note_on channel=3 note=69 velocity=0 time=0.027490971354166668
EXTRACT: note_on channel=9 note=54 velocity=0 time=0.0028937864583333333
EXTRACT: note_on channel=9 note=42 velocity=0 time=0.0347254375
EXTRACT: note_on channel=9 note=30 velocity=0 time=0.043406796875
EXTRACT: note_on channel=3 note=60 velocity=0 time=0
EXTRACT: note_on channel=9 note=36 velocity=0 time=0.0057875729166666666
EXTRACT: note_on channel=9 note=57 velocity=0 time=0
EXTRACT: note_on channel=9 note=29 velocity=29 time=0.0028937864583333333
EXTRACT: note_on channel=9 note=54 velocity=23 time=0
EXTRACT: note_on channel=9 note=54 velocity=0 time=0.03761922395833333
EXTRACT: note_on channel=0 note=29 velocity=0 time=0.069450875
EXTRACT: note_on channel=1 note=29 velocity=0 time=0.0217033984375
EXTRACT: note_on channel=9 note=29 velocity=0 time=0.007234466145833333
EXTRACT: note_on channel=9 note=30 velocity=38 time=0.0028937864583333333
EXTRACT: note_on channel=9 note=42 velocity=100 time=0
EXTRACT: note_on channel=9 note=54 velocity=56 time=0
EXTRACT: note_on channel=9 note=56 velocity=19 time=0
EXTRACT: note_on channel=9 note=80 velocity=127 time=0
EXTRACT: note_on channel=9 note=54 velocity=0 time=0.052088156249999996
EXTRACT: note_on channel=9 note=56 velocity=0 time=0.01736271875
EXTRACT: note_on channel=9 note=42 velocity=0 time=0.0057875729166666666
EXTRACT: note_on channel=9 note=30 velocity=0 time=0.05787572916666667
EXTRACT: note_on channel=9 note=80 velocity=0 time=0.0028937864583333333
EXTRACT: note_on channel=9 note=29 velocity=26 time=0.0028937864583333333
EXTRACT: note_on channel=9 note=54 velocity=40 time=0
EXTRACT: note_on channel=9 note=56 velocity=10 time=0
EXTRACT: note_on channel=9 note=54 velocity=0 time=0.060769515625
EXTRACT: note_on channel=9 note=56 velocity=0 time=0.07523844791666666
EXTRACT: note_on channel=9 note=29 velocity=0 time=0
EXTRACT: note_on channel=9 note=30 velocity=31 time=0.0028937864583333333
EXTRACT: note_on channel=9 note=39 velocity=80 time=0
EXTRACT: note_on channel=9 note=40 velocity=121 time=0
EXTRACT: note_on channel=9 note=42 velocity=114 time=0
EXTRACT: note_on channel=9 note=54 velocity=57 time=0
EXTRACT: note_on channel=3 note=61 velocity=119 time=0
EXTRACT: note_on channel=9 note=54 velocity=0 time=0.052088156249999996
EXTRACT: note_on channel=9 note=42 velocity=0 time=0.052088156249999996
EXTRACT: note_on channel=9 note=30 velocity=0 time=0.031831651041666666
EXTRACT: note_on channel=9 note=39 velocity=0 time=0
EXTRACT: note_on channel=9 note=40 velocity=0 time=0
EXTRACT: note_on channel=3 note=61 velocity=0 time=0
EXTRACT: note_on channel=9 note=54 velocity=20 time=0.0028937864583333333
EXTRACT: note_on channel=9 note=54 velocity=0 time=0.03761922395833333
EXTRACT: note_on channel=9 note=30 velocity=35 time=0.10128252604166667
EXTRACT: note_on channel=9 note=42 velocity=90 time=0
EXTRACT: note_on channel=9 note=54 velocity=50 time=0
EXTRACT: note_on channel=9 note=56 velocity=19 time=0
EXTRACT: note_on channel=9 note=80 velocity=127 time=0
EXTRACT: note_on channel=3 note=63 velocity=115 time=0
EXTRACT: note_on channel=9 note=54 velocity=0 time=0.03761922395833333
EXTRACT: note_on channel=9 note=56 velocity=0 time=0.031831651041666666
EXTRACT: note_on channel=9 note=42 velocity=0 time=0.0057875729166666666
EXTRACT: note_on channel=3 note=63 velocity=0 time=0.028937864583333334
EXTRACT: note_on channel=9 note=30 velocity=0 time=0.028937864583333334
EXTRACT: note_on channel=9 note=80 velocity=0 time=0.0028937864583333333
EXTRACT: note_on channel=9 note=29 velocity=28 time=0.0028937864583333333
EXTRACT: note_on channel=9 note=54 velocity=24 time=0
EXTRACT: note_on channel=9 note=56 velocity=10 time=0
EXTRACT: note_on channel=9 note=54 velocity=0 time=0.04051301041666667
EXTRACT: note_on channel=2 note=72 velocity=0 time=0.08391980729166666
EXTRACT: note_on channel=8 note=60 velocity=0 time=0.0028937864583333333
EXTRACT: note_on channel=2 note=77 velocity=0 time=0.0028937864583333333
EXTRACT: note_on channel=8 note=65 velocity=0 time=0
EXTRACT: note_on channel=6 note=65 velocity=0 time=0.0028937864583333333
EXTRACT: note_on channel=9 note=56 velocity=0 time=0.0028937864583333333
EXTRACT: note_on channel=9 note=29 velocity=0 time=0
EXTRACT: note_on channel=8 note=69 velocity=0 time=0
EXTRACT: note_on channel=9 note=30 velocity=42 time=0.0028937864583333333
EXTRACT: note_on channel=9 note=36 velocity=114 time=0
EXTRACT: note_on channel=9 note=42 velocity=122 time=0
EXTRACT: note_on channel=9 note=49 velocity=74 time=0
EXTRACT: note_on channel=9 note=54 velocity=65 time=0
EXTRACT: note_on channel=0 note=30 velocity=112 time=0
EXTRACT: note_on channel=2 note=81 velocity=0 time=0
EXTRACT: note_on channel=2 note=73 velocity=37 time=0
EXTRACT: note_on channel=2 note=78 velocity=39 time=0
EXTRACT: note_on channel=2 note=84 velocity=35 time=0
EXTRACT: note_on channel=3 note=65 velocity=119 time=0
EXTRACT: note_on channel=6 note=72 velocity=0 time=0
EXTRACT: note_on channel=6 note=66 velocity=49 time=0
EXTRACT: note_on channel=6 note=75 velocity=45 time=0
EXTRACT: note_on channel=8 note=61 velocity=76 time=0
EXTRACT: note_on channel=8 note=66 velocity=79 time=0
EXTRACT: note_on channel=8 note=72 velocity=72 time=0
EXTRACT: note_on channel=1 note=30 velocity=112 time=0.0217033984375
EXTRACT: note_on channel=9 note=54 velocity=0 time=0.024597184895833332
EXTRACT: note_on channel=9 note=42 velocity=0 time=0.04051301041666667
EXTRACT: note_on channel=9 note=30 velocity=0 time=0.049194369791666664
EXTRACT: note_on channel=9 note=36 velocity=0 time=0
EXTRACT: note_on channel=9 note=49 velocity=0 time=0
EXTRACT: note_on channel=9 note=54 velocity=17 time=0.0028937864583333333
EXTRACT: note_on channel=9 note=54 velocity=0 time=0.052088156249999996
EXTRACT: note_on channel=9 note=30 velocity=42 time=0.08681359375
EXTRACT: note_on channel=9 note=42 velocity=100 time=0
EXTRACT: note_on channel=9 note=54 velocity=53 time=0
EXTRACT: note_on channel=9 note=56 velocity=19 time=0
EXTRACT: note_on channel=9 note=80 velocity=127 time=0
EXTRACT: note_on channel=3 note=66 velocity=100 time=0
EXTRACT: note_on channel=9 note=54 velocity=0 time=0.0347254375
EXTRACT: note_on channel=0 note=30 velocity=0 time=0.0057875729166666666
EXTRACT: note_on channel=3 note=65 velocity=0 time=0.014468932291666667
EXTRACT: note_on channel=1 note=30 velocity=0 time=0.007234466145833333
EXTRACT: note_on channel=9 note=56 velocity=0 time=0.010128252604166667
EXTRACT: note_on channel=9 note=42 velocity=0 time=0.0028937864583333333
EXTRACT: note_on channel=3 note=66 velocity=0 time=0.05787572916666667
EXTRACT: note_on channel=9 note=30 velocity=0 time=0.0028937864583333333
EXTRACT: note_on channel=9 note=80 velocity=0 time=0
EXTRACT: note_on channel=9 note=54 velocity=29 time=0.0028937864583333333
EXTRACT: note_on channel=9 note=56 velocity=10 time=0
EXTRACT: note_on channel=9 note=54 velocity=0 time=0.07523844791666666
EXTRACT: note_on channel=9 note=56 velocity=0 time=0.060769515625
EXTRACT: note_on channel=9 note=29 velocity=39 time=0.0028937864583333333
EXTRACT: note_on channel=9 note=39 velocity=80 time=0
EXTRACT: note_on channel=9 note=40 velocity=121 time=0
EXTRACT: note_on channel=9 note=42 velocity=114 time=0
EXTRACT: note_on channel=9 note=54 velocity=60 time=0
EXTRACT: note_on channel=0 note=30 velocity=109 time=0
EXTRACT: note_on channel=3 note=65 velocity=115 time=0
EXTRACT: note_on channel=1 note=30 velocity=109 time=0.0217033984375
EXTRACT: note_on channel=9 note=54 velocity=0 time=0.018809611979166665
EXTRACT: note_on channel=9 note=42 velocity=0 time=0.06366330208333333
EXTRACT: note_on channel=9 note=29 velocity=0 time=0.031831651041666666
EXTRACT: note_on channel=9 note=39 velocity=0 time=0
EXTRACT: note_on channel=9 note=40 velocity=0 time=0
EXTRACT: note_on channel=9 note=54 velocity=24 time=0.0028937864583333333
EXTRACT: note_on channel=3 note=65 velocity=0 time=0.026044078124999998
EXTRACT: note_on channel=9 note=54 velocity=0 time=0.04630058333333333
EXTRACT: note_on channel=0 note=30 velocity=0 time=0.06366330208333333
EXTRACT: note_on channel=9 note=30 velocity=42 time=0.0028937864583333333
EXTRACT: note_on channel=9 note=36 velocity=109 time=0
EXTRACT: note_on channel=9 note=42 velocity=90 time=0
EXTRACT: note_on channel=9 note=54 velocity=55 time=0
EXTRACT: note_on channel=9 note=56 velocity=19 time=0
EXTRACT: note_on channel=9 note=80 velocity=127 time=0
EXTRACT: note_on channel=0 note=29 velocity=101 time=0
EXTRACT: note_on channel=3 note=66 velocity=116 time=0
EXTRACT: note_on channel=1 note=30 velocity=0 time=0.018809611979166665
EXTRACT: note_on channel=1 note=29 velocity=101 time=0.0028937864583333333
EXTRACT: note_on channel=9 note=54 velocity=0 time=0.018809611979166665
EXTRACT: note_on channel=9 note=56 velocity=0 time=0.028937864583333334
EXTRACT: note_on channel=9 note=42 velocity=0 time=0.0057875729166666666
EXTRACT: note_on channel=9 note=36 velocity=0 time=0.031831651041666666
EXTRACT: note_on channel=9 note=30 velocity=0 time=0.026044078124999998
EXTRACT: note_on channel=9 note=80 velocity=0 time=0.0028937864583333333
EXTRACT: note_on channel=9 note=29 velocity=28 time=0.0028937864583333333
EXTRACT: note_on channel=9 note=54 velocity=27 time=0
EXTRACT: note_on channel=9 note=56 velocity=10 time=0
EXTRACT: note_on channel=9 note=54 velocity=0 time=0.052088156249999996
EXTRACT: note_on channel=3 note=66 velocity=0 time=0
EXTRACT: note_on channel=2 note=73 velocity=0 time=0.07234466145833333
EXTRACT: note_on channel=8 note=61 velocity=0 time=0.0028937864583333333
EXTRACT: note_on channel=2 note=78 velocity=0 time=0.0028937864583333333
EXTRACT: note_on channel=6 note=66 velocity=0 time=0
EXTRACT: note_on channel=8 note=66 velocity=0 time=0.0028937864583333333
EXTRACT: note_on channel=9 note=56 velocity=0 time=0.0028937864583333333
EXTRACT: note_on channel=9 note=29 velocity=0 time=0
EXTRACT: note_on channel=0 note=29 velocity=0 time=0
EXTRACT: note_on channel=6 note=75 velocity=0 time=0
EXTRACT: note_on channel=8 note=72 velocity=0 time=0
EXTRACT: note_on channel=9 note=30 velocity=39 time=0.0028937864583333333
EXTRACT: note_on channel=9 note=36 velocity=109 time=0
EXTRACT: note_on channel=9 note=42 velocity=122 time=0
EXTRACT: note_on channel=9 note=54 velocity=61 time=0
EXTRACT: note_on channel=0 note=28 velocity=99 time=0
EXTRACT: note_on channel=2 note=84 velocity=0 time=0
EXTRACT: note_on channel=2 note=73 velocity=38 time=0
EXTRACT: note_on channel=2 note=78 velocity=37 time=0
EXTRACT: note_on channel=2 note=82 velocity=36 time=0
EXTRACT: note_on channel=3 note=65 velocity=117 time=0
EXTRACT: note_on channel=6 note=65 velocity=35 time=0
EXTRACT: note_on channel=6 note=70 velocity=35 time=0
EXTRACT: note_on channel=8 note=61 velocity=77 time=0
EXTRACT: note_on channel=8 note=66 velocity=76 time=0
EXTRACT: note_on channel=8 note=70 velocity=73 time=0
EXTRACT: note_on channel=1 note=29 velocity=0 time=0.018809611979166665
EXTRACT: note_on channel=1 note=28 velocity=99 time=0.0028937864583333333
EXTRACT: note_on channel=9 note=54 velocity=0 time=0.0303847578125
EXTRACT: note_on channel=9 note=42 velocity=0 time=0.0347254375
EXTRACT: note_on channel=9 note=36 velocity=0 time=0.008681359375
EXTRACT: note_on channel=9 note=30 velocity=0 time=0.0347254375
EXTRACT: note_on channel=9 note=29 velocity=29 time=0.008681359375
EXTRACT: note_on channel=9 note=54 velocity=23 time=0
EXTRACT: note_on channel=9 note=54 velocity=0 time=0.03761922395833333
EXTRACT: note_on channel=3 note=65 velocity=0 time=0.08970738020833333
EXTRACT: note_on channel=9 note=29 velocity=0 time=0.008681359375
EXTRACT: note_on channel=0 note=28 velocity=0 time=0
EXTRACT: note_on channel=9 note=30 velocity=38 time=0.0028937864583333333
EXTRACT: note_on channel=9 note=36 velocity=113 time=0
EXTRACT: note_on channel=9 note=42 velocity=100 time=0
EXTRACT: note_on channel=9 note=54 velocity=56 time=0
EXTRACT: note_on channel=9 note=56 velocity=19 time=0
EXTRACT: note_on channel=9 note=80 velocity=127 time=0
EXTRACT: note_on channel=0 note=27 velocity=105 time=0
EXTRACT: note_on channel=3 note=63 velocity=118 time=0
EXTRACT: note_on channel=1 note=28 velocity=0 time=0.018809611979166665
EXTRACT: note_on channel=1 note=27 velocity=105 time=0.0028937864583333333
EXTRACT: note_on channel=9 note=54 velocity=0 time=0.027490971354166668
EXTRACT: note_on channel=9 note=56 velocity=0 time=0.020256505208333334
EXTRACT: note_on channel=9 note=42 velocity=0 time=0.0028937864583333333
EXTRACT: note_on channel=9 note=30 velocity=0 time=0.060769515625
EXTRACT: note_on channel=9 note=36 velocity=0 time=0.0028937864583333333
EXTRACT: note_on channel=9 note=80 velocity=0 time=0
EXTRACT: note_on channel=9 note=29 velocity=26 time=0.0028937864583333333
EXTRACT: note_on channel=9 note=54 velocity=40 time=0
EXTRACT: note_on channel=9 note=56 velocity=10 time=0
EXTRACT: note_on channel=3 note=63 velocity=0 time=0.049194369791666664
EXTRACT: note_on channel=9 note=54 velocity=0 time=0.011575145833333333
EXTRACT: note_on channel=9 note=56 velocity=0 time=0.07523844791666666
EXTRACT: note_on channel=9 note=29 velocity=0 time=0
EXTRACT: note_on channel=0 note=27 velocity=0 time=0
EXTRACT: note_on channel=9 note=30 velocity=31 time=0.0028937864583333333
EXTRACT: note_on channel=9 note=39 velocity=80 time=0
EXTRACT: note_on channel=9 note=40 velocity=121 time=0
EXTRACT: note_on channel=9 note=42 velocity=114 time=0
EXTRACT: note_on channel=9 note=54 velocity=57 time=0
EXTRACT: note_on channel=0 note=26 velocity=100 time=0
EXTRACT: note_on channel=3 note=61 velocity=115 time=0
EXTRACT: note_on channel=1 note=27 velocity=0 time=0.018809611979166665
EXTRACT: note_on channel=1 note=26 velocity=100 time=0.0028937864583333333
EXTRACT: note_on channel=9 note=54 velocity=0 time=0.0303847578125
EXTRACT: note_on channel=9 note=42 velocity=0 time=0.052088156249999996
EXTRACT: note_on channel=9 note=30 velocity=0 time=0.031831651041666666
EXTRACT: note_on channel=9 note=39 velocity=0 time=0
EXTRACT: note_on channel=9 note=40 velocity=0 time=0
EXTRACT: note_on channel=9 note=54 velocity=20 time=0.0028937864583333333
EXTRACT: note_on channel=9 note=54 velocity=0 time=0.03761922395833333
EXTRACT: note_on channel=3 note=61 velocity=0 time=0.08102602083333334
EXTRACT: note_on channel=9 note=30 velocity=35 time=0.020256505208333334
EXTRACT: note_on channel=9 note=42 velocity=90 time=0
EXTRACT: note_on channel=9 note=54 velocity=50 time=0
EXTRACT: note_on channel=9 note=56 velocity=19 time=0
EXTRACT: note_on channel=9 note=80 velocity=127 time=0
EXTRACT: note_on channel=3 note=58 velocity=118 time=0
EXTRACT: note_on channel=0 note=26 velocity=0 time=0.028937864583333334
EXTRACT: note_on channel=9 note=54 velocity=0 time=0.008681359375
EXTRACT: note_on channel=1 note=26 velocity=0 time=0.013022039062499999
EXTRACT: note_on channel=9 note=56 velocity=0 time=0.018809611979166665
EXTRACT: note_on channel=9 note=42 velocity=0 time=0.0057875729166666666
EXTRACT: note_on channel=9 note=30 velocity=0 time=0.05787572916666667
EXTRACT: note_on channel=9 note=80 velocity=0 time=0.0028937864583333333
EXTRACT: note_on channel=9 note=29 velocity=28 time=0.0028937864583333333
EXTRACT: note_on channel=9 note=54 velocity=24 time=0
EXTRACT: note_on channel=9 note=56 velocity=10 time=0
EXTRACT: note_on channel=3 note=58 velocity=0 time=0.0028937864583333333
EXTRACT: note_on channel=9 note=54 velocity=0 time=0.03761922395833333
EXTRACT: note_on channel=2 note=73 velocity=0 time=0.08391980729166666
EXTRACT: note_on channel=8 note=61 velocity=0 time=0.0028937864583333333
EXTRACT: note_on channel=2 note=78 velocity=0 time=0.0057875729166666666
EXTRACT: note_on channel=6 note=65 velocity=0 time=0
EXTRACT: note_on channel=8 note=66 velocity=0 time=0
EXTRACT: note_on channel=9 note=56 velocity=0 time=0.0028937864583333333
EXTRACT: note_on channel=9 note=29 velocity=0 time=0
EXTRACT: note_on channel=9 note=30 velocity=42 time=0.0028937864583333333
EXTRACT: note_on channel=9 note=36 velocity=116 time=0
EXTRACT: note_on channel=9 note=42 velocity=122 time=0
EXTRACT: note_on channel=9 note=49 velocity=74 time=0
EXTRACT: note_on channel=9 note=54 velocity=65 time=0
EXTRACT: note_on channel=0 note=30 velocity=110 time=0
EXTRACT: note_on channel=2 note=82 velocity=0 time=0
EXTRACT: note_on channel=2 note=75 velocity=37 time=0
EXTRACT: note_on channel=2 note=80 velocity=39 time=0
EXTRACT: note_on channel=2 note=85 velocity=35 time=0
EXTRACT: note_on channel=3 note=65 velocity=103 time=0
EXTRACT: note_on channel=6 note=68 velocity=49 time=0
EXTRACT: note_on channel=6 note=73 velocity=35 time=0
EXTRACT: note_on channel=8 note=70 velocity=0 time=0
EXTRACT: note_on channel=8 note=63 velocity=76 time=0
EXTRACT: note_on channel=8 note=68 velocity=79 time=0
EXTRACT: note_on channel=8 note=73 velocity=72 time=0
EXTRACT: note_on channel=6 note=70 velocity=0 time=0.0028937864583333333
EXTRACT: note_on channel=1 note=30 velocity=110 time=0.018809611979166665
EXTRACT: note_on channel=9 note=54 velocity=0 time=0.0217033984375
EXTRACT: note_on channel=9 note=42 velocity=0 time=0.04051301041666667
EXTRACT: note_on channel=9 note=30 velocity=0 time=0.052088156249999996
EXTRACT: note_on channel=9 note=36 velocity=0 time=0
EXTRACT: note_on channel=9 note=49 velocity=0 time=0
EXTRACT: note_on channel=9 note=54 velocity=17 time=0.0028937864583333333
EXTRACT: note_on channel=9 note=54 velocity=0 time=0.052088156249999996
EXTRACT: note_on channel=3 note=65 velocity=0 time=0.054981942708333335
EXTRACT: note_on channel=0 note=30 velocity=0 time=0.014468932291666667
EXTRACT: note_on channel=9 note=30 velocity=42 time=0.01736271875
EXTRACT: note_on channel=9 note=36 velocity=111 time=0
EXTRACT: note_on channel=9 note=42 velocity=100 time=0
EXTRACT: note_on channel=9 note=54 velocity=53 time=0
EXTRACT: note_on channel=9 note=56 velocity=19 time=0
EXTRACT: note_on channel=9 note=80 velocity=127 time=0
EXTRACT: note_on channel=3 note=66 velocity=119 time=0
EXTRACT: note_on channel=1 note=30 velocity=0 time=0.0043406796875
EXTRACT: note_on channel=9 note=54 velocity=0 time=0.0303847578125
EXTRACT: note_on channel=9 note=56 velocity=0 time=0.0347254375
EXTRACT: note_on channel=9 note=42 velocity=0 time=0.0057875729166666666
EXTRACT: note_on channel=9 note=36 velocity=0 time=0.020256505208333334
EXTRACT: note_on channel=9 note=30 velocity=0 time=0.04051301041666667
EXTRACT: note_on channel=9 note=80 velocity=0 time=0
EXTRACT: note_on channel=9 note=54 velocity=29 time=0.0028937864583333333
EXTRACT: note_on channel=9 note=56 velocity=10 time=0
EXTRACT: note_on channel=3 note=66 velocity=0 time=0.031831651041666666
EXTRACT: note_on channel=9 note=54 velocity=0 time=0.043406796875
EXTRACT: note_on channel=9 note=56 velocity=0 time=0.060769515625
EXTRACT: note_on channel=9 note=29 velocity=39 time=0.0028937864583333333
EXTRACT: note_on channel=9 note=36 velocity=116 time=0
EXTRACT: note_on channel=9 note=42 velocity=114 time=0
EXTRACT: note_on channel=9 note=54 velocity=60 time=0
EXTRACT: note_on channel=0 note=30 velocity=105 time=0
EXTRACT: note_on channel=3 note=65 velocity=115 time=0
EXTRACT: note_on channel=1 note=30 velocity=105 time=0.0217033984375
EXTRACT: note_on channel=9 note=54 velocity=0 time=0.018809611979166665
EXTRACT: note_on channel=9 note=42 velocity=0 time=0.06366330208333333
EXTRACT: note_on channel=9 note=36 velocity=0 time=0.031831651041666666
EXTRACT: note_on channel=9 note=29 velocity=0 time=0
EXTRACT: note_on channel=9 note=54 velocity=24 time=0.0028937864583333333
EXTRACT: note_on channel=9 note=54 velocity=0 time=0.07234466145833333
EXTRACT: note_on channel=3 note=65 velocity=0 time=0.043406796875
EXTRACT: note_on channel=0 note=30 velocity=0 time=0.020256505208333334
EXTRACT: note_on channel=9 note=30 velocity=42 time=0.0028937864583333333
EXTRACT: note_on channel=9 note=36 velocity=111 time=0
EXTRACT: note_on channel=9 note=42 velocity=90 time=0
EXTRACT: note_on channel=9 note=54 velocity=55 time=0
EXTRACT: note_on channel=9 note=56 velocity=19 time=0
EXTRACT: note_on channel=9 note=80 velocity=127 time=0
EXTRACT: note_on channel=0 note=31 velocity=108 time=0
EXTRACT: note_on channel=3 note=63 velocity=121 time=0
EXTRACT: note_on channel=1 note=30 velocity=0 time=0.018809611979166665
EXTRACT: note_on channel=1 note=31 velocity=108 time=0.0028937864583333333
EXTRACT: note_on channel=9 note=54 velocity=0 time=0.018809611979166665
EXTRACT: note_on channel=9 note=56 velocity=0 time=0.028937864583333334
EXTRACT: note_on channel=9 note=42 velocity=0 time=0.0057875729166666666
EXTRACT: note_on channel=9 note=36 velocity=0 time=0.020256505208333334
EXTRACT: note_on channel=9 note=30 velocity=0 time=0.03761922395833333
EXTRACT: note_on channel=9 note=80 velocity=0 time=0.0028937864583333333
EXTRACT: note_on channel=9 note=29 velocity=28 time=0.0028937864583333333
EXTRACT: note_on channel=9 note=54 velocity=27 time=0
EXTRACT: note_on channel=9 note=56 velocity=10 time=0
EXTRACT: note_on channel=9 note=54 velocity=0 time=0.052088156249999996
EXTRACT: note_on channel=2 note=75 velocity=0 time=0.069450875
EXTRACT: note_on channel=8 note=63 velocity=0 time=0.0028937864583333333
EXTRACT: note_on channel=2 note=80 velocity=0 time=0.0028937864583333333
EXTRACT: note_on channel=6 note=68 velocity=0 time=0
EXTRACT: note_on channel=8 note=68 velocity=0 time=0
EXTRACT: note_on channel=6 note=73 velocity=0 time=0.0057875729166666666
EXTRACT: note_on channel=9 note=56 velocity=0 time=0.0028937864583333333
EXTRACT: note_on channel=9 note=29 velocity=0 time=0
EXTRACT: note_on channel=0 note=31 velocity=0 time=0
EXTRACT: note_on channel=3 note=63 velocity=0 time=0
EXTRACT: note_on channel=8 note=73 velocity=0 time=0
EXTRACT: note_on channel=9 note=30 velocity=39 time=0.0028937864583333333
EXTRACT: note_on channel=9 note=36 velocity=116 time=0
EXTRACT: note_on channel=9 note=42 velocity=122 time=0
EXTRACT: note_on channel=9 note=54 velocity=61 time=0
EXTRACT: note_on channel=9 note=57 velocity=47 time=0
EXTRACT: note_on channel=0 note=32 velocity=99 time=0
EXTRACT: note_on channel=2 note=85 velocity=0 time=0
EXTRACT: note_on channel=2 note=75 velocity=38 time=0
EXTRACT: note_on channel=2 note=80 velocity=37 time=0
EXTRACT: note_on channel=2 note=84 velocity=36 time=0
EXTRACT: note_on channel=3 note=61 velocity=122 time=0
EXTRACT: note_on channel=6 note=68 velocity=49 time=0
EXTRACT: note_on channel=6 note=72 velocity=35 time=0
EXTRACT: note_on channel=8 note=63 velocity=77 time=0
EXTRACT: note_on channel=8 note=68 velocity=76 time=0
EXTRACT: note_on channel=8 note=72 velocity=73 time=0
EXTRACT: note_on channel=1 note=31 velocity=0 time=0.018809611979166665
EXTRACT: note_on channel=1 note=32 velocity=99 time=0.0028937864583333333
EXTRACT: note_on channel=9 note=54 velocity=0 time=0.0303847578125
EXTRACT: note_on channel=9 note=42 velocity=0 time=0.0347254375
EXTRACT: note_on channel=9 note=30 velocity=0 time=0.04051301041666667
EXTRACT: note_on channel=9 note=57 velocity=0 time=0.0028937864583333333
EXTRACT: note_on channel=10 note=65 velocity=127 time=0.008681359375
EXTRACT: note_on channel=9 note=36 velocity=0 time=0.011575145833333333
EXTRACT: note_on channel=3 note=61 velocity=0 time=0.01736271875
EXTRACT: note_on channel=0 note=32 velocity=0 time=0.07523844791666666
EXTRACT: note_on channel=1 note=32 velocity=0 time=0.0217033984375
EXTRACT: note_on channel=2 note=75 velocity=0 time=0.1345610703125
EXTRACT: note_on channel=2 note=80 velocity=0 time=0.0028937864583333333
EXTRACT: note_on channel=8 note=63 velocity=0 time=0
EXTRACT: note_on channel=2 note=84 velocity=0 time=0.0028937864583333333
EXTRACT: note_on channel=8 note=68 velocity=0 time=0
EXTRACT: note_on channel=8 note=72 velocity=0 time=0.0028937864583333333
EXTRACT: note_on channel=6 note=72 velocity=0 time=0.0028937864583333333
EXTRACT: note_on channel=6 note=68 velocity=0 time=0
EXTRACT: note_on channel=9 note=39 velocity=80 time=0.14468932291666667
EXTRACT: note_on channel=9 note=40 velocity=121 time=0
EXTRACT: note_on channel=3 note=65 velocity=118 time=0
EXTRACT: note_on channel=3 note=77 velocity=111 time=0
EXTRACT: note_on channel=9 note=40 velocity=0 time=0.13600796354166667
EXTRACT: note_on channel=9 note=39 velocity=0 time=0
EXTRACT: note_on channel=9 note=54 velocity=20 time=0.0028937864583333333
EXTRACT: note_on channel=3 note=77 velocity=0 time=0.0028937864583333333
EXTRACT: note_on channel=3 note=65 velocity=0 time=0.026044078124999998
EXTRACT: note_on channel=9 note=54 velocity=0 time=0.008681359375
EXTRACT: note_on channel=9 note=36 velocity=12 time=0.10128252604166667
EXTRACT: note_on channel=9 note=42 velocity=55 time=0
EXTRACT: note_on channel=9 note=54 velocity=50 time=0
EXTRACT: note_on channel=9 note=80 velocity=127 time=0
EXTRACT: note_on channel=3 note=63 velocity=106 time=0
EXTRACT: note_on channel=3 note=75 velocity=116 time=0
EXTRACT: note_on channel=9 note=54 velocity=0 time=0.04051301041666667
EXTRACT: note_on channel=9 note=42 velocity=0 time=0.0347254375
EXTRACT: note_on channel=3 note=75 velocity=0 time=0.020256505208333334
EXTRACT: note_on channel=3 note=63 velocity=0 time=0.026044078124999998
EXTRACT: note_on channel=9 note=36 velocity=0 time=0.014468932291666667
EXTRACT: note_on channel=9 note=80 velocity=0 time=0
EXTRACT: note_on channel=9 note=54 velocity=24 time=0.0028937864583333333
EXTRACT: note_on channel=9 note=54 velocity=0 time=0.04051301041666667
EXTRACT: note_on channel=10 note=65 velocity=0 time=0.095494953125
EXTRACT: note_on channel=9 note=36 velocity=114 time=0.0028937864583333333
EXTRACT: note_on channel=9 note=42 velocity=122 time=0
EXTRACT: note_on channel=9 note=49 velocity=83 time=0
EXTRACT: note_on channel=9 note=54 velocity=90 time=0
EXTRACT: note_on channel=0 note=34 velocity=126 time=0
EXTRACT: note_on channel=2 note=73 velocity=88 time=0
EXTRACT: note_on channel=2 note=77 velocity=85 time=0
EXTRACT: note_on channel=2 note=82 velocity=84 time=0
EXTRACT: note_on channel=3 note=63 velocity=120 time=0
EXTRACT: note_on channel=3 note=75 velocity=118 time=0
EXTRACT: note_on channel=5 note=34 velocity=123 time=0
EXTRACT: note_on channel=5 note=46 velocity=92 time=0
EXTRACT: note_on channel=8 note=65 velocity=88 time=0
EXTRACT: note_on channel=8 note=70 velocity=85 time=0
EXTRACT: note_on channel=8 note=73 velocity=84 time=0
EXTRACT: control_change channel=8 control=1 value=33 time=0.0057875729166666666
EXTRACT: note_on channel=1 note=34 velocity=126 time=0.015915825520833333
EXTRACT: note_on channel=9 note=54 velocity=0 time=0.027490971354166668
EXTRACT: note_on channel=9 note=42 velocity=0 time=0.04051301041666667
EXTRACT: note_on channel=9 note=49 velocity=0 time=0.04630058333333333
EXTRACT: note_on channel=9 note=36 velocity=0 time=0
EXTRACT: note_on channel=9 note=54 velocity=42 time=0.0028937864583333333
EXTRACT: note_on channel=9 note=54 velocity=0 time=0.052088156249999996
EXTRACT: note_on channel=9 note=42 velocity=100 time=0.08681359375
EXTRACT: note_on channel=9 note=54 velocity=78 time=0
EXTRACT: note_on channel=9 note=56 velocity=59 time=0
EXTRACT: note_on channel=9 note=80 velocity=127 time=0
EXTRACT: note_on channel=9 note=54 velocity=0 time=0.0347254375
EXTRACT: note_on channel=0 note=34 velocity=0 time=0.0057875729166666666
EXTRACT: note_on channel=1 note=34 velocity=0 time=0.0217033984375
EXTRACT: note_on channel=5 note=34 velocity=0 time=0.0043406796875
EXTRACT: note_on channel=5 note=46 velocity=0 time=0.0028937864583333333
EXTRACT: note_on channel=9 note=56 velocity=0 time=0.0028937864583333333
EXTRACT: note_on channel=9 note=42 velocity=0 time=0.0028937864583333333
EXTRACT: note_on channel=9 note=80 velocity=0 time=0.060769515625
EXTRACT: note_on channel=9 note=54 velocity=54 time=0.0028937864583333333
EXTRACT: note_on channel=9 note=56 velocity=23 time=0
EXTRACT: note_on channel=9 note=54 velocity=0 time=0.07523844791666666
EXTRACT: note_on channel=9 note=56 velocity=0 time=0.060769515625
EXTRACT: note_on channel=9 note=39 velocity=80 time=0.0028937864583333333
EXTRACT: note_on channel=9 note=40 velocity=121 time=0
EXTRACT: note_on channel=9 note=42 velocity=114 time=0
EXTRACT: note_on channel=9 note=54 velocity=85 time=0
EXTRACT: note_on channel=0 note=34 velocity=123 time=0
EXTRACT: note_on channel=5 note=34 velocity=124 time=0
EXTRACT: note_on channel=5 note=46 velocity=93 time=0
EXTRACT: note_on channel=1 note=34 velocity=123 time=0.0217033984375
EXTRACT: note_on channel=9 note=54 velocity=0 time=0.0217033984375
EXTRACT: note_on channel=9 note=42 velocity=0 time=0.06366330208333333
EXTRACT: note_on channel=9 note=40 velocity=0 time=0.028937864583333334
EXTRACT: note_on channel=9 note=39 velocity=0 time=0
EXTRACT: note_on channel=9 note=54 velocity=49 time=0.0028937864583333333
EXTRACT: note_on channel=9 note=54 velocity=0 time=0.07234466145833333
EXTRACT: note_on channel=3 note=63 velocity=0 time=0.054981942708333335
EXTRACT: note_on channel=0 note=34 velocity=0 time=0.0057875729166666666
EXTRACT: note_on channel=5 note=34 velocity=0 time=0
EXTRACT: note_on channel=3 note=75 velocity=0 time=0.0028937864583333333
EXTRACT: note_on channel=9 note=36 velocity=109 time=0.0028937864583333333
EXTRACT: note_on channel=9 note=42 velocity=90 time=0
EXTRACT: note_on channel=9 note=54 velocity=80 time=0
EXTRACT: note_on channel=9 note=56 velocity=59 time=0
EXTRACT: note_on channel=9 note=80 velocity=127 time=0
EXTRACT: note_on channel=0 note=33 velocity=115 time=0
EXTRACT: note_on channel=3 note=61 velocity=116 time=0
EXTRACT: note_on channel=3 note=73 velocity=118 time=0
EXTRACT: note_on channel=4 note=34 velocity=114 time=0
EXTRACT: note_on channel=4 note=46 velocity=121 time=0
EXTRACT: note_on channel=5 note=46 velocity=0 time=0
EXTRACT: note_on channel=5 note=33 velocity=105 time=0
EXTRACT: note_on channel=5 note=45 velocity=74 time=0
EXTRACT: note_on channel=1 note=34 velocity=0 time=0.015915825520833333
EXTRACT: note_on channel=1 note=33 velocity=115 time=0.0057875729166666666
EXTRACT: note_on channel=9 note=54 velocity=0 time=0.0217033984375
EXTRACT: note_on channel=9 note=56 velocity=0 time=0.026044078124999998
EXTRACT: note_on channel=9 note=42 velocity=0 time=0.0057875729166666666
EXTRACT: note_on channel=9 note=36 velocity=0 time=0.031831651041666666
EXTRACT: note_on channel=9 note=80 velocity=0 time=0.028937864583333334
EXTRACT: note_on channel=9 note=54 velocity=52 time=0.0028937864583333333
EXTRACT: note_on channel=9 note=56 velocity=23 time=0
EXTRACT: note_on channel=4 note=34 velocity=0 time=0.011575145833333333
EXTRACT: note_on channel=3 note=73 velocity=0 time=0.020256505208333334
EXTRACT: note_on channel=4 note=46 velocity=0 time=0.014468932291666667
EXTRACT: note_on channel=9 note=54 velocity=0 time=0.0057875729166666666
EXTRACT: note_on channel=0 note=33 velocity=0 time=0.08102602083333334
EXTRACT: note_on channel=5 note=33 velocity=0 time=0
EXTRACT: note_on channel=9 note=56 velocity=0 time=0.0028937864583333333
EXTRACT: note_on channel=9 note=36 velocity=109 time=0.0028937864583333333
EXTRACT: note_on channel=9 note=42 velocity=122 time=0
EXTRACT: note_on channel=9 note=54 velocity=86 time=0
EXTRACT: note_on channel=0 note=32 velocity=113 time=0
EXTRACT: note_on channel=5 note=45 velocity=0 time=0
EXTRACT: note_on channel=5 note=32 velocity=115 time=0
EXTRACT: note_on channel=5 note=44 velocity=84 time=0
EXTRACT: note_on channel=3 note=61 velocity=0 time=0.0057875729166666666
EXTRACT: note_on channel=1 note=33 velocity=0 time=0.010128252604166667
EXTRACT: note_on channel=1 note=32 velocity=113 time=0.0057875729166666666
EXTRACT: note_on channel=9 note=54 velocity=0 time=0.033278544270833335
EXTRACT: note_on channel=9 note=42 velocity=0 time=0.03761922395833333
EXTRACT: note_on channel=9 note=36 velocity=0 time=0.008681359375
EXTRACT: note_on channel=9 note=54 velocity=48 time=0.03761922395833333
EXTRACT: note_on channel=9 note=54 velocity=0 time=0.03761922395833333
EXTRACT: note_on channel=0 note=32 velocity=0 time=0.095494953125
EXTRACT: note_on channel=5 note=32 velocity=0 time=0
EXTRACT: note_on channel=9 note=36 velocity=113 time=0.0057875729166666666
EXTRACT: note_on channel=9 note=42 velocity=100 time=0
EXTRACT: note_on channel=9 note=54 velocity=81 time=0
EXTRACT: note_on channel=9 note=56 velocity=59 time=0
EXTRACT: note_on channel=9 note=80 velocity=127 time=0
EXTRACT: note_on channel=0 note=31 velocity=119 time=0
EXTRACT: note_on channel=4 note=34 velocity=118 time=0
EXTRACT: note_on channel=4 note=46 velocity=122 time=0
EXTRACT: note_on channel=5 note=44 velocity=0 time=0
EXTRACT: note_on channel=5 note=31 velocity=110 time=0
EXTRACT: note_on channel=5 note=43 velocity=79 time=0
EXTRACT: note_on channel=1 note=32 velocity=0 time=0.015915825520833333
EXTRACT: note_on channel=1 note=31 velocity=119 time=0.0057875729166666666
EXTRACT: note_on channel=9 note=54 velocity=0 time=0.027490971354166668
EXTRACT: note_on channel=9 note=56 velocity=0 time=0.020256505208333334
EXTRACT: note_on channel=9 note=42 velocity=0 time=0.0057875729166666666
EXTRACT: note_on channel=9 note=36 velocity=0 time=0.060769515625
EXTRACT: note_on channel=9 note=80 velocity=0 time=0
EXTRACT: note_on channel=9 note=54 velocity=65 time=0.0028937864583333333
EXTRACT: note_on channel=9 note=56 velocity=23 time=0
EXTRACT: note_on channel=4 note=34 velocity=0 time=0.04051301041666667
EXTRACT: note_on channel=4 note=46 velocity=0 time=0.0057875729166666666
EXTRACT: note_on channel=9 note=54 velocity=0 time=0.014468932291666667
EXTRACT: note_on channel=0 note=31 velocity=0 time=0.07234466145833333
EXTRACT: note_on channel=5 note=31 velocity=0 time=0
EXTRACT: note_on channel=9 note=56 velocity=0 time=0.0028937864583333333
EXTRACT: note_on channel=5 note=43 velocity=0 time=0
EXTRACT: note_on channel=9 note=39 velocity=80 time=0.0028937864583333333
EXTRACT: note_on channel=9 note=40 velocity=121 time=0
EXTRACT: note_on channel=9 note=42 velocity=114 time=0
EXTRACT: note_on channel=9 note=54 velocity=82 time=0
EXTRACT: note_on channel=0 note=30 velocity=114 time=0
EXTRACT: note_on channel=4 note=34 velocity=115 time=0
EXTRACT: note_on channel=4 note=46 velocity=121 time=0
EXTRACT: note_on channel=5 note=30 velocity=108 time=0
EXTRACT: note_on channel=5 note=42 velocity=77 time=0
EXTRACT: note_on channel=1 note=31 velocity=0 time=0.015915825520833333
EXTRACT: note_on channel=1 note=30 velocity=114 time=0.0057875729166666666
EXTRACT: note_on channel=9 note=54 velocity=0 time=0.033278544270833335
EXTRACT: note_on channel=9 note=42 velocity=0 time=0.052088156249999996
EXTRACT: note_on channel=9 note=40 velocity=0 time=0.028937864583333334
EXTRACT: note_on channel=9 note=39 velocity=0 time=0
EXTRACT: note_on channel=9 note=54 velocity=45 time=0.0028937864583333333
EXTRACT: note_on channel=9 note=54 velocity=0 time=0.03761922395833333
EXTRACT: note_on channel=4 note=34 velocity=0 time=0.011575145833333333
EXTRACT: note_on channel=4 note=46 velocity=0 time=0.011575145833333333
EXTRACT: note_on channel=5 note=30 velocity=0 time=0.0347254375
EXTRACT: note_on channel=5 note=42 velocity=0 time=0.0028937864583333333
EXTRACT: note_on channel=9 note=42 velocity=90 time=0.04051301041666667
EXTRACT: note_on channel=9 note=54 velocity=75 time=0
EXTRACT: note_on channel=9 note=56 velocity=59 time=0
EXTRACT: note_on channel=9 note=80 velocity=127 time=0
EXTRACT: note_on channel=4 note=34 velocity=110 time=0
EXTRACT: note_on channel=4 note=46 velocity=110 time=0
EXTRACT: note_on channel=0 note=30 velocity=0 time=0.031831651041666666
EXTRACT: note_on channel=9 note=54 velocity=0 time=0.008681359375
EXTRACT: note_on channel=1 note=30 velocity=0 time=0.013022039062499999
EXTRACT: note_on channel=9 note=56 velocity=0 time=0.018809611979166665
EXTRACT: note_on channel=9 note=42 velocity=0 time=0.0028937864583333333
EXTRACT: note_on channel=9 note=80 velocity=0 time=0.060769515625
EXTRACT: note_on channel=9 note=54 velocity=49 time=0.0028937864583333333
EXTRACT: note_on channel=9 note=56 velocity=23 time=0
EXTRACT: note_on channel=9 note=54 velocity=0 time=0.04051301041666667
EXTRACT: note_on channel=4 note=34 velocity=0 time=0.054981942708333335
EXTRACT: note_on channel=4 note=46 velocity=0 time=0.011575145833333333
EXTRACT: note_on channel=8 note=65 velocity=0 time=0.020256505208333334
EXTRACT: note_on channel=2 note=73 velocity=0 time=0.0028937864583333333
EXTRACT: note_on channel=9 note=56 velocity=0 time=0.0057875729166666666
EXTRACT: note_on channel=8 note=70 velocity=0 time=0
EXTRACT: note_on channel=9 note=36 velocity=116 time=0.0028937864583333333
EXTRACT: note_on channel=9 note=42 velocity=122 time=0
EXTRACT: note_on channel=9 note=54 velocity=90 time=0
EXTRACT: note_on channel=9 note=57 velocity=60 time=0
EXTRACT: note_on channel=0 note=30 velocity=124 time=0
EXTRACT: note_on channel=2 note=82 velocity=0 time=0
EXTRACT: note_on channel=2 note=77 velocity=0 time=0
EXTRACT: note_on channel=2 note=73 velocity=86 time=0
EXTRACT: note_on channel=2 note=78 velocity=89 time=0
EXTRACT: note_on channel=2 note=82 velocity=82 time=0
EXTRACT: note_on channel=3 note=61 velocity=116 time=0
EXTRACT: note_on channel=3 note=70 velocity=117 time=0
EXTRACT: note_on channel=5 note=30 velocity=124 time=0
EXTRACT: note_on channel=5 note=42 velocity=93 time=0
EXTRACT: note_on channel=8 note=73 velocity=0 time=0
EXTRACT: note_on channel=8 note=66 velocity=81 time=0
EXTRACT: note_on channel=8 note=70 velocity=84 time=0
EXTRACT: note_on channel=8 note=73 velocity=77 time=0
EXTRACT: note_on channel=1 note=30 velocity=124 time=0.0217033984375
EXTRACT: note_on channel=9 note=54 velocity=0 time=0.027490971354166668
EXTRACT: note_on channel=9 note=42 velocity=0 time=0.043406796875
EXTRACT: note_on channel=9 note=36 velocity=0 time=0.043406796875
EXTRACT: note_on channel=9 note=57 velocity=0 time=0
EXTRACT: note_on channel=9 note=54 velocity=42 time=0.0028937864583333333
EXTRACT: note_on channel=9 note=54 velocity=0 time=0.052088156249999996
EXTRACT: note_on channel=0 note=30 velocity=0 time=0.07234466145833333
EXTRACT: note_on channel=9 note=42 velocity=100 time=0.014468932291666667
EXTRACT: note_on channel=9 note=54 velocity=78 time=0
EXTRACT: note_on channel=9 note=56 velocity=59 time=0
EXTRACT: note_on channel=9 note=80 velocity=127 time=0
EXTRACT: note_on channel=1 note=30 velocity=0 time=0.007234466145833333
EXTRACT: note_on channel=9 note=54 velocity=0 time=0.027490971354166668
EXTRACT: note_on channel=5 note=30 velocity=0 time=0.014468932291666667
EXTRACT: note_on channel=5 note=42 velocity=0 time=0.0028937864583333333
EXTRACT: note_on channel=9 note=56 velocity=0 time=0.020256505208333334
EXTRACT: note_on channel=9 note=42 velocity=0 time=0.0028937864583333333
EXTRACT: note_on channel=9 note=80 velocity=0 time=0.060769515625
EXTRACT: note_on channel=9 note=54 velocity=54 time=0.0028937864583333333
EXTRACT: note_on channel=9 note=56 velocity=23 time=0
EXTRACT: note_on channel=9 note=54 velocity=0 time=0.07523844791666666
EXTRACT: note_on channel=9 note=56 velocity=0 time=0.060769515625
EXTRACT: note_on channel=9 note=39 velocity=80 time=0.0028937864583333333
EXTRACT: note_on channel=9 note=40 velocity=121 time=0
EXTRACT: note_on channel=9 note=42 velocity=114 time=0
EXTRACT: note_on channel=9 note=54 velocity=85 time=0
EXTRACT: note_on channel=0 note=30 velocity=119 time=0
EXTRACT: note_on channel=5 note=30 velocity=121 time=0
EXTRACT: note_on channel=5 note=42 velocity=90 time=0
EXTRACT: note_on channel=1 note=30 velocity=119 time=0.0217033984375
EXTRACT: note_on channel=9 note=54 velocity=0 time=0.0217033984375
EXTRACT: note_on channel=9 note=42 velocity=0 time=0.06366330208333333
EXTRACT: note_on channel=9 note=40 velocity=0 time=0.028937864583333334
EXTRACT: note_on channel=9 note=39 velocity=0 time=0
EXTRACT: note_on channel=9 note=54 velocity=49 time=0.0028937864583333333
EXTRACT: note_on channel=9 note=54 velocity=0 time=0.07234466145833333
EXTRACT: note_on channel=3 note=61 velocity=0 time=0.020256505208333334
EXTRACT: note_on channel=3 note=70 velocity=0 time=0.01736271875
EXTRACT: note_on channel=5 note=30 velocity=0 time=0.0028937864583333333
EXTRACT: note_on channel=5 note=42 velocity=0 time=0.0028937864583333333
EXTRACT: note_on channel=0 note=30 velocity=0 time=0.01736271875
EXTRACT: note_on channel=9 note=36 velocity=111 time=0.0057875729166666666
EXTRACT: note_on channel=9 note=42 velocity=90 time=0
EXTRACT: note_on channel=9 note=54 velocity=80 time=0
EXTRACT: note_on channel=9 note=56 velocity=59 time=0
EXTRACT: note_on channel=9 note=80 velocity=127 time=0
EXTRACT: note_on channel=0 note=32 velocity=122 time=0
EXTRACT: note_on channel=3 note=60 velocity=115 time=0
EXTRACT: note_on channel=3 note=69 velocity=112 time=0
EXTRACT: note_on channel=4 note=34 velocity=114 time=0
EXTRACT: note_on channel=4 note=46 velocity=121 time=0
EXTRACT: note_on channel=5 note=32 velocity=107 time=0
EXTRACT: note_on channel=5 note=44 velocity=76 time=0
EXTRACT: note_on channel=1 note=30 velocity=0 time=0.015915825520833333
EXTRACT: note_on channel=1 note=32 velocity=122 time=0.0057875729166666666
EXTRACT: note_on channel=9 note=54 velocity=0 time=0.0217033984375
EXTRACT: note_on channel=9 note=56 velocity=0 time=0.026044078124999998
EXTRACT: note_on channel=9 note=42 velocity=0 time=0.0057875729166666666
EXTRACT: note_on channel=9 note=36 velocity=0 time=0.020256505208333334
EXTRACT: note_on channel=3 note=60 velocity=0 time=0.011575145833333333
EXTRACT: note_on channel=9 note=80 velocity=0 time=0.028937864583333334
EXTRACT: note_on channel=9 note=54 velocity=52 time=0.0028937864583333333
EXTRACT: note_on channel=9 note=56 velocity=23 time=0
EXTRACT: note_on channel=3 note=69 velocity=0 time=0.008681359375
EXTRACT: note_on channel=4 note=34 velocity=0 time=0.0028937864583333333
EXTRACT: note_on channel=4 note=46 velocity=0 time=0.0347254375
EXTRACT: note_on channel=9 note=54 velocity=0 time=0.0057875729166666666
EXTRACT: note_on channel=2 note=73 velocity=0 time=0.07523844791666666
EXTRACT: note_on channel=8 note=66 velocity=0 time=0
EXTRACT: note_on channel=0 note=32 velocity=0 time=0.0057875729166666666
EXTRACT: note_on channel=5 note=32 velocity=0 time=0
EXTRACT: note_on channel=8 note=70 velocity=0 time=0
EXTRACT: note_on channel=9 note=56 velocity=0 time=0.0028937864583333333
EXTRACT: note_on channel=2 note=78 velocity=0 time=0
EXTRACT: note_on channel=9 note=36 velocity=112 time=0.0028937864583333333
EXTRACT: note_on channel=9 note=42 velocity=122 time=0
EXTRACT: note_on channel=9 note=54 velocity=86 time=0
EXTRACT: note_on channel=9 note=57 velocity=79 time=0
EXTRACT: note_on channel=0 note=29 velocity=113 time=0
EXTRACT: note_on channel=2 note=82 velocity=0 time=0
EXTRACT: note_on channel=2 note=72 velocity=87 time=0
EXTRACT: note_on channel=2 note=77 velocity=86 time=0
EXTRACT: note_on channel=2 note=81 velocity=83 time=0
EXTRACT: note_on channel=5 note=44 velocity=0 time=0
EXTRACT: note_on channel=5 note=29 velocity=102 time=0
EXTRACT: note_on channel=5 note=41 velocity=71 time=0
EXTRACT: note_on channel=8 note=73 velocity=0 time=0
EXTRACT: note_on channel=8 note=65 velocity=82 time=0
EXTRACT: note_on channel=8 note=69 velocity=81 time=0
EXTRACT: note_on channel=8 note=72 velocity=78 time=0
EXTRACT: note_on channel=1 note=32 velocity=0 time=0.015915825520833333
EXTRACT: note_on channel=1 note=29 velocity=113 time=0.0057875729166666666
EXTRACT: note_on channel=9 note=54 velocity=0 time=0.03617233072916667
EXTRACT: note_on channel=9 note=42 velocity=0 time=0.0347254375
EXTRACT: note_on channel=9 note=36 velocity=0 time=0.043406796875
EXTRACT: note_on channel=9 note=57 velocity=0 time=0
EXTRACT: note_on channel=9 note=54 velocity=48 time=0.0028937864583333333
EXTRACT: note_on channel=9 note=54 velocity=0 time=0.03761922395833333
EXTRACT: note_on channel=5 note=41 velocity=0 time=0.08970738020833333
EXTRACT: note_on channel=5 note=29 velocity=0 time=0
EXTRACT: note_on channel=9 note=42 velocity=100 time=0.011575145833333333
EXTRACT: note_on channel=9 note=54 velocity=81 time=0
EXTRACT: note_on channel=9 note=56 velocity=59 time=0
EXTRACT: note_on channel=9 note=80 velocity=127 time=0
EXTRACT: note_on channel=4 note=34 velocity=118 time=0
EXTRACT: note_on channel=4 note=46 velocity=122 time=0
EXTRACT: note_on channel=9 note=54 velocity=0 time=0.052088156249999996
EXTRACT: note_on channel=9 note=56 velocity=0 time=0.01736271875
EXTRACT: note_on channel=9 note=42 velocity=0 time=0.0057875729166666666
EXTRACT: note_on channel=0 note=29 velocity=0 time=0.028937864583333334
EXTRACT: note_on channel=1 note=29 velocity=0 time=0.0217033984375
EXTRACT: note_on channel=9 note=80 velocity=0 time=0.010128252604166667
EXTRACT: note_on channel=9 note=54 velocity=65 time=0.0028937864583333333
EXTRACT: note_on channel=9 note=56 velocity=23 time=0
EXTRACT: note_on channel=4 note=34 velocity=0 time=0.043406796875
EXTRACT: note_on channel=4 note=46 velocity=0 time=0.0057875729166666666
EXTRACT: note_on channel=9 note=54 velocity=0 time=0.011575145833333333
EXTRACT: note_on channel=9 note=56 velocity=0 time=0.07523844791666666
EXTRACT: note_on channel=9 note=39 velocity=80 time=0.0028937864583333333
EXTRACT: note_on channel=9 note=40 velocity=121 time=0
EXTRACT: note_on channel=9 note=42 velocity=114 time=0
EXTRACT: note_on channel=9 note=54 velocity=82 time=0
EXTRACT: note_on channel=3 note=65 velocity=118 time=0
EXTRACT: note_on channel=3 note=77 velocity=113 time=0
EXTRACT: note_on channel=4 note=34 velocity=115 time=0
EXTRACT: note_on channel=4 note=46 velocity=121 time=0
EXTRACT: note_on channel=9 note=54 velocity=0 time=0.054981942708333335
EXTRACT: note_on channel=9 note=42 velocity=0 time=0.052088156249999996
EXTRACT: note_on channel=9 note=40 velocity=0 time=0.028937864583333334
EXTRACT: note_on channel=9 note=39 velocity=0 time=0
EXTRACT: note_on channel=9 note=54 velocity=45 time=0.0028937864583333333
EXTRACT: note_on channel=9 note=54 velocity=0 time=0.03761922395833333
EXTRACT: note_on channel=4 note=34 velocity=0 time=0.011575145833333333
EXTRACT: note_on channel=3 note=77 velocity=0 time=0.011575145833333333
EXTRACT: note_on channel=4 note=46 velocity=0 time=0
EXTRACT: note_on channel=3 note=65 velocity=0 time=0.07234466145833333
EXTRACT: note_on channel=9 note=42 velocity=90 time=0.0057875729166666666
EXTRACT: note_on channel=9 note=54 velocity=75 time=0
EXTRACT: note_on channel=9 note=56 velocity=59 time=0
EXTRACT: note_on channel=9 note=80 velocity=127 time=0
EXTRACT: note_on channel=3 note=63 velocity=117 time=0
EXTRACT: note_on channel=3 note=75 velocity=116 time=0
EXTRACT: note_on channel=4 note=34 velocity=110 time=0
EXTRACT: note_on channel=4 note=46 velocity=110 time=0
EXTRACT: note_on channel=9 note=54 velocity=0 time=0.04051301041666667
EXTRACT: note_on channel=9 note=56 velocity=0 time=0.031831651041666666
EXTRACT: note_on channel=9 note=42 velocity=0 time=0.0028937864583333333
EXTRACT: note_on channel=3 note=75 velocity=0 time=0.0057875729166666666
EXTRACT: note_on channel=3 note=63 velocity=0 time=0.011575145833333333
EXTRACT: note_on channel=9 note=80 velocity=0 time=0.043406796875
EXTRACT: note_on channel=9 note=54 velocity=49 time=0.0028937864583333333
EXTRACT: note_on channel=9 note=56 velocity=23 time=0
EXTRACT: note_on channel=9 note=54 velocity=0 time=0.04051301041666667
EXTRACT: note_on channel=4 note=34 velocity=0 time=0.054981942708333335
EXTRACT: note_on channel=4 note=46 velocity=0 time=0.011575145833333333
EXTRACT: note_on channel=8 note=65 velocity=0 time=0.01736271875
EXTRACT: note_on channel=2 note=72 velocity=0 time=0.0028937864583333333
EXTRACT: note_on channel=8 note=69 velocity=0 time=0.0057875729166666666
EXTRACT: note_on channel=9 note=56 velocity=0 time=0.0028937864583333333
EXTRACT: note_on channel=2 note=77 velocity=0 time=0
EXTRACT: note_on channel=9 note=36 velocity=114 time=0.0028937864583333333
EXTRACT: note_on channel=9 note=42 velocity=122 time=0
EXTRACT: note_on channel=9 note=49 velocity=83 time=0
EXTRACT: note_on channel=9 note=54 velocity=90 time=0
EXTRACT: note_on channel=0 note=34 velocity=126 time=0
EXTRACT: note_on channel=2 note=81 velocity=0 time=0
EXTRACT: note_on channel=2 note=73 velocity=88 time=0
EXTRACT: note_on channel=2 note=77 velocity=85 time=0
EXTRACT: note_on channel=2 note=82 velocity=84 time=0
EXTRACT: note_on channel=3 note=63 velocity=117 time=0
EXTRACT: note_on channel=3 note=75 velocity=118 time=0
EXTRACT: note_on channel=5 note=34 velocity=123 time=0
EXTRACT: note_on channel=5 note=46 velocity=92 time=0
EXTRACT: note_on channel=8 note=72 velocity=0 time=0
EXTRACT: note_on channel=8 note=65 velocity=88 time=0
EXTRACT: note_on channel=8 note=70 velocity=85 time=0
EXTRACT: note_on channel=8 note=73 velocity=84 time=0
EXTRACT: note_on channel=1 note=34 velocity=126 time=0.0217033984375
EXTRACT: note_on channel=9 note=54 velocity=0 time=0.027490971354166668
EXTRACT: note_on channel=9 note=42 velocity=0 time=0.043406796875
EXTRACT: note_on channel=9 note=49 velocity=0 time=0.043406796875
EXTRACT: note_on channel=9 note=36 velocity=0 time=0
EXTRACT: note_on channel=9 note=54 velocity=42 time=0.0028937864583333333
EXTRACT: note_on channel=9 note=54 velocity=0 time=0.052088156249999996
EXTRACT: note_on channel=9 note=42 velocity=100 time=0.08681359375
EXTRACT: note_on channel=9 note=54 velocity=78 time=0
EXTRACT: note_on channel=9 note=56 velocity=59 time=0
EXTRACT: note_on channel=9 note=80 velocity=127 time=0
EXTRACT: note_on channel=9 note=54 velocity=0 time=0.0347254375
EXTRACT: note_on channel=0 note=34 velocity=0 time=0.0057875729166666666
EXTRACT: note_on channel=1 note=34 velocity=0 time=0.0217033984375
EXTRACT: note_on channel=5 note=46 velocity=0 time=0.007234466145833333
EXTRACT: note_on channel=5 note=34 velocity=0 time=0
EXTRACT: note_on channel=9 note=56 velocity=0 time=0.0028937864583333333
EXTRACT: note_on channel=9 note=42 velocity=0 time=0.0028937864583333333
EXTRACT: note_on channel=9 note=80 velocity=0 time=0.060769515625
EXTRACT: note_on channel=9 note=54 velocity=54 time=0.0028937864583333333
EXTRACT: note_on channel=9 note=56 velocity=23 time=0
EXTRACT: note_on channel=9 note=54 velocity=0 time=0.07523844791666666
EXTRACT: note_on channel=9 note=56 velocity=0 time=0.060769515625
EXTRACT: note_on channel=9 note=39 velocity=80 time=0.0028937864583333333
EXTRACT: note_on channel=9 note=40 velocity=121 time=0
EXTRACT: note_on channel=9 note=42 velocity=114 time=0
EXTRACT: note_on channel=9 note=54 velocity=85 time=0
EXTRACT: note_on channel=0 note=34 velocity=123 time=0
EXTRACT: note_on channel=5 note=34 velocity=124 time=0
EXTRACT: note_on channel=5 note=46 velocity=93 time=0
EXTRACT: note_on channel=1 note=34 velocity=123 time=0.0217033984375
EXTRACT: note_on channel=9 note=54 velocity=0 time=0.0217033984375
EXTRACT: note_on channel=9 note=42 velocity=0 time=0.06366330208333333
EXTRACT: note_on channel=9 note=40 velocity=0 time=0.028937864583333334
EXTRACT: note_on channel=9 note=39 velocity=0 time=0
EXTRACT: note_on channel=9 note=54 velocity=49 time=0.0028937864583333333
EXTRACT: note_on channel=9 note=54 velocity=0 time=0.07234466145833333
EXTRACT: note_on channel=3 note=63 velocity=0 time=0.043406796875
EXTRACT: note_on channel=3 note=75 velocity=0 time=0.0057875729166666666
EXTRACT: note_on channel=0 note=34 velocity=0 time=0.011575145833333333
EXTRACT: note_on channel=5 note=34 velocity=0 time=0
EXTRACT: note_on channel=9 note=36 velocity=109 time=0.0057875729166666666
EXTRACT: note_on channel=9 note=42 velocity=90 time=0
EXTRACT: note_on channel=9 note=54 velocity=80 time=0
EXTRACT: note_on channel=9 note=56 velocity=59 time=0
EXTRACT: note_on channel=9 note=80 velocity=127 time=0
EXTRACT: note_on channel=0 note=33 velocity=115 time=0
EXTRACT: note_on channel=3 note=61 velocity=112 time=0
EXTRACT: note_on channel=3 note=73 velocity=117 time=0
EXTRACT: note_on channel=4 note=34 velocity=114 time=0
EXTRACT: note_on channel=4 note=46 velocity=121 time=0
EXTRACT: note_on channel=5 note=46 velocity=0 time=0
EXTRACT: note_on channel=5 note=33 velocity=105 time=0
EXTRACT: note_on channel=5 note=45 velocity=74 time=0
EXTRACT: note_on channel=1 note=34 velocity=0 time=0.015915825520833333
EXTRACT: note_on channel=1 note=33 velocity=115 time=0.0057875729166666666
EXTRACT: note_on channel=9 note=54 velocity=0 time=0.0217033984375
EXTRACT: note_on channel=9 note=56 velocity=0 time=0.026044078124999998
EXTRACT: note_on channel=9 note=42 velocity=0 time=0.0057875729166666666
EXTRACT: note_on channel=9 note=36 velocity=0 time=0.031831651041666666
EXTRACT: note_on channel=9 note=80 velocity=0 time=0.028937864583333334
EXTRACT: note_on channel=9 note=54 velocity=52 time=0.0028937864583333333
EXTRACT: note_on channel=9 note=56 velocity=23 time=0
EXTRACT: note_on channel=4 note=34 velocity=0 time=0.011575145833333333
EXTRACT: note_on channel=4 note=46 velocity=0 time=0.0347254375
EXTRACT: note_on channel=9 note=54 velocity=0 time=0.0057875729166666666
EXTRACT: note_on channel=3 note=73 velocity=0 time=0.07523844791666666
EXTRACT: note_on channel=0 note=33 velocity=0 time=0.0057875729166666666
EXTRACT: note_on channel=5 note=33 velocity=0 time=0
EXTRACT: note_on channel=9 note=56 velocity=0 time=0.0028937864583333333
EXTRACT: note_on channel=9 note=36 velocity=109 time=0.0028937864583333333
EXTRACT: note_on channel=9 note=42 velocity=122 time=0
EXTRACT: note_on channel=9 note=54 velocity=86 time=0
EXTRACT: note_on channel=0 note=32 velocity=113 time=0
EXTRACT: note_on channel=5 note=45 velocity=0 time=0
EXTRACT: note_on channel=5 note=32 velocity=115 time=0
EXTRACT: note_on channel=5 note=44 velocity=84 time=0
EXTRACT: note_on channel=1 note=33 velocity=0 time=0.015915825520833333
EXTRACT: note_on channel=1 note=32 velocity=113 time=0.0057875729166666666
EXTRACT: note_on channel=3 note=61 velocity=0 time=0.007234466145833333
EXTRACT: note_on channel=9 note=54 velocity=0 time=0.026044078124999998
EXTRACT: note_on channel=9 note=42 velocity=0 time=0.03761922395833333
EXTRACT: note_on channel=9 note=36 velocity=0 time=0.008681359375
EXTRACT: note_on channel=9 note=54 velocity=48 time=0.03761922395833333
EXTRACT: note_on channel=9 note=54 velocity=0 time=0.03761922395833333
EXTRACT: note_on channel=0 note=32 velocity=0 time=0.095494953125
EXTRACT: note_on channel=5 note=32 velocity=0 time=0
EXTRACT: note_on channel=9 note=36 velocity=113 time=0.0057875729166666666
EXTRACT: note_on channel=9 note=42 velocity=100 time=0
EXTRACT: note_on channel=9 note=54 velocity=81 time=0
EXTRACT: note_on channel=9 note=56 velocity=59 time=0
EXTRACT: note_on channel=9 note=80 velocity=127 time=0
EXTRACT: note_on channel=0 note=31 velocity=119 time=0
EXTRACT: note_on channel=4 note=34 velocity=118 time=0
EXTRACT: note_on channel=4 note=46 velocity=122 time=0
EXTRACT: note_on channel=5 note=44 velocity=0 time=0
EXTRACT: note_on channel=5 note=31 velocity=110 time=0
EXTRACT: note_on channel=5 note=43 velocity=79 time=0
EXTRACT: note_on channel=1 note=32 velocity=0 time=0.015915825520833333
EXTRACT: note_on channel=1 note=31 velocity=119 time=0.0057875729166666666
EXTRACT: note_on channel=9 note=54 velocity=0 time=0.0303847578125
EXTRACT: note_on channel=9 note=56 velocity=0 time=0.020256505208333334
EXTRACT: note_on channel=9 note=42 velocity=0 time=0.0028937864583333333
EXTRACT: note_on channel=9 note=36 velocity=0 time=0.060769515625
EXTRACT: note_on channel=9 note=80 velocity=0 time=0
EXTRACT: note_on channel=9 note=54 velocity=65 time=0.0028937864583333333
EXTRACT: note_on channel=9 note=56 velocity=23 time=0
EXTRACT: note_on channel=4 note=34 velocity=0 time=0.043406796875
EXTRACT: note_on channel=4 note=46 velocity=0 time=0.0028937864583333333
EXTRACT: note_on channel=9 note=54 velocity=0 time=0.014468932291666667
EXTRACT: note_on channel=0 note=31 velocity=0 time=0.07234466145833333
EXTRACT: note_on channel=5 note=31 velocity=0 time=0
EXTRACT: note_on channel=9 note=56 velocity=0 time=0.0028937864583333333
EXTRACT: note_on channel=9 note=39 velocity=80 time=0.0028937864583333333
EXTRACT: note_on channel=9 note=40 velocity=121 time=0
EXTRACT: note_on channel=9 note=42 velocity=114 time=0
EXTRACT: note_on channel=9 note=54 velocity=82 time=0
EXTRACT: note_on channel=0 note=30 velocity=114 time=0
EXTRACT: note_on channel=4 note=34 velocity=115 time=0
EXTRACT: note_on channel=4 note=46 velocity=121 time=0
EXTRACT: note_on channel=5 note=43 velocity=0 time=0
EXTRACT: note_on channel=5 note=30 velocity=108 time=0
EXTRACT: note_on channel=5 note=42 velocity=77 time=0
EXTRACT: note_on channel=1 note=31 velocity=0 time=0.015915825520833333
EXTRACT: note_on channel=1 note=30 velocity=114 time=0.0057875729166666666
EXTRACT: note_on channel=9 note=54 velocity=0 time=0.033278544270833335
EXTRACT: note_on channel=9 note=42 velocity=0 time=0.052088156249999996
EXTRACT: note_on channel=9 note=40 velocity=0 time=0.028937864583333334
EXTRACT: note_on channel=9 note=39 velocity=0 time=0
EXTRACT: note_on channel=9 note=54 velocity=45 time=0.0028937864583333333
EXTRACT: note_on channel=9 note=54 velocity=0 time=0.03761922395833333
EXTRACT: note_on channel=4 note=34 velocity=0 time=0.008681359375
EXTRACT: note_on channel=4 note=46 velocity=0 time=0.011575145833333333
EXTRACT: note_on channel=5 note=30 velocity=0 time=0.03761922395833333
EXTRACT: note_on channel=5 note=42 velocity=0 time=0.0028937864583333333
EXTRACT: note_on channel=9 note=42 velocity=90 time=0.04051301041666667
EXTRACT: note_on channel=9 note=54 velocity=75 time=0
EXTRACT: note_on channel=9 note=56 velocity=59 time=0
EXTRACT: note_on channel=9 note=80 velocity=127 time=0
EXTRACT: note_on channel=4 note=34 velocity=110 time=0
EXTRACT: note_on channel=4 note=46 velocity=110 time=0
EXTRACT: note_on channel=0 note=30 velocity=0 time=0.028937864583333334
EXTRACT: note_on channel=9 note=54 velocity=0 time=0.011575145833333333
EXTRACT: note_on channel=1 note=30 velocity=0 time=0.010128252604166667
EXTRACT: note_on channel=9 note=56 velocity=0 time=0.0217033984375
EXTRACT: note_on channel=9 note=42 velocity=0 time=0.0028937864583333333
EXTRACT: note_on channel=9 note=80 velocity=0 time=0.060769515625
EXTRACT: note_on channel=9 note=54 velocity=49 time=0.0028937864583333333
EXTRACT: note_on channel=9 note=56 velocity=23 time=0
EXTRACT: note_on channel=9 note=54 velocity=0 time=0.04051301041666667
EXTRACT: note_on channel=4 note=34 velocity=0 time=0.054981942708333335
EXTRACT: note_on channel=4 note=46 velocity=0 time=0.011575145833333333
EXTRACT: note_on channel=8 note=65 velocity=0 time=0.01736271875
EXTRACT: note_on channel=2 note=73 velocity=0 time=0.0028937864583333333
EXTRACT: note_on channel=8 note=70 velocity=0 time=0.0057875729166666666
EXTRACT: note_on channel=9 note=56 velocity=0 time=0.0028937864583333333
EXTRACT: note_on channel=2 note=77 velocity=0 time=0
EXTRACT: note_on channel=9 note=36 velocity=116 time=0.0028937864583333333
EXTRACT: note_on channel=9 note=42 velocity=122 time=0
EXTRACT: note_on channel=9 note=54 velocity=90 time=0
EXTRACT: note_on channel=9 note=57 velocity=60 time=0
EXTRACT: note_on channel=0 note=30 velocity=124 time=0
EXTRACT: note_on channel=2 note=82 velocity=0 time=0
EXTRACT: note_on channel=2 note=73 velocity=86 time=0
EXTRACT: note_on channel=2 note=78 velocity=89 time=0
EXTRACT: note_on channel=2 note=82 velocity=82 time=0
EXTRACT: note_on channel=3 note=61 velocity=115 time=0
EXTRACT: note_on channel=3 note=70 velocity=117 time=0
EXTRACT: note_on channel=5 note=30 velocity=124 time=0
EXTRACT: note_on channel=5 note=42 velocity=93 time=0
EXTRACT: note_on channel=8 note=73 velocity=0 time=0
EXTRACT: note_on channel=8 note=66 velocity=81 time=0
EXTRACT: note_on channel=8 note=70 velocity=84 time=0
EXTRACT: note_on channel=8 note=73 velocity=77 time=0
EXTRACT: note_on channel=1 note=30 velocity=124 time=0.0217033984375
EXTRACT: note_on channel=9 note=54 velocity=0 time=0.027490971354166668
EXTRACT: note_on channel=9 note=42 velocity=0 time=0.043406796875
EXTRACT: note_on channel=9 note=36 velocity=0 time=0.043406796875
EXTRACT: note_on channel=9 note=57 velocity=0 time=0
EXTRACT: note_on channel=9 note=54 velocity=42 time=0.0028937864583333333
EXTRACT: note_on channel=9 note=54 velocity=0 time=0.052088156249999996
EXTRACT: note_on channel=0 note=30 velocity=0 time=0.07234466145833333
EXTRACT: note_on channel=9 note=42 velocity=100 time=0.014468932291666667
EXTRACT: note_on channel=9 note=54 velocity=78 time=0
EXTRACT: note_on channel=9 note=56 velocity=59 time=0
EXTRACT: note_on channel=9 note=80 velocity=127 time=0
EXTRACT: note_on channel=1 note=30 velocity=0 time=0.007234466145833333
EXTRACT: note_on channel=9 note=54 velocity=0 time=0.027490971354166668
EXTRACT: note_on channel=5 note=30 velocity=0 time=0.014468932291666667
EXTRACT: note_on channel=5 note=42 velocity=0 time=0.0028937864583333333
EXTRACT: note_on channel=9 note=56 velocity=0 time=0.020256505208333334
EXTRACT: note_on channel=9 note=42 velocity=0 time=0.0028937864583333333
EXTRACT: note_on channel=9 note=80 velocity=0 time=0.060769515625
EXTRACT: note_on channel=9 note=54 velocity=54 time=0.0028937864583333333
EXTRACT: note_on channel=9 note=56 velocity=23 time=0
EXTRACT: note_on channel=9 note=54 velocity=0 time=0.07523844791666666
EXTRACT: note_on channel=9 note=56 velocity=0 time=0.060769515625
EXTRACT: note_on channel=9 note=39 velocity=80 time=0.0028937864583333333
EXTRACT: note_on channel=9 note=40 velocity=121 time=0
EXTRACT: note_on channel=9 note=42 velocity=114 time=0
EXTRACT: note_on channel=9 note=54 velocity=85 time=0
EXTRACT: note_on channel=0 note=30 velocity=119 time=0
EXTRACT: note_on channel=5 note=30 velocity=121 time=0
EXTRACT: note_on channel=5 note=42 velocity=90 time=0
EXTRACT: note_on channel=1 note=30 velocity=119 time=0.0217033984375
EXTRACT: note_on channel=9 note=54 velocity=0 time=0.0217033984375
EXTRACT: note_on channel=9 note=42 velocity=0 time=0.06366330208333333
EXTRACT: note_on channel=9 note=40 velocity=0 time=0.028937864583333334
EXTRACT: note_on channel=9 note=39 velocity=0 time=0
EXTRACT: note_on channel=9 note=54 velocity=49 time=0.0028937864583333333
EXTRACT: note_on channel=9 note=54 velocity=0 time=0.07234466145833333
EXTRACT: note_on channel=3 note=61 velocity=0 time=0.020256505208333334
EXTRACT: note_on channel=5 note=30 velocity=0 time=0.020256505208333334
EXTRACT: note_on channel=5 note=42 velocity=0 time=0.0028937864583333333
EXTRACT: note_on channel=3 note=70 velocity=0 time=0.008681359375
EXTRACT: note_on channel=0 note=30 velocity=0 time=0.008681359375
EXTRACT: note_on channel=9 note=36 velocity=111 time=0.0057875729166666666
EXTRACT: note_on channel=9 note=42 velocity=90 time=0
EXTRACT: note_on channel=9 note=54 velocity=80 time=0
EXTRACT: note_on channel=9 note=56 velocity=59 time=0
EXTRACT: note_on channel=9 note=80 velocity=127 time=0
EXTRACT: note_on channel=0 note=32 velocity=122 time=0
EXTRACT: note_on channel=3 note=60 velocity=112 time=0
EXTRACT: note_on channel=3 note=69 velocity=100 time=0
EXTRACT: note_on channel=4 note=34 velocity=114 time=0
EXTRACT: note_on channel=4 note=46 velocity=121 time=0
EXTRACT: note_on channel=5 note=32 velocity=107 time=0
EXTRACT: note_on channel=5 note=44 velocity=76 time=0
EXTRACT: note_on channel=1 note=30 velocity=0 time=0.015915825520833333
EXTRACT: note_on channel=1 note=32 velocity=122 time=0.0057875729166666666
EXTRACT: note_on channel=9 note=54 velocity=0 time=0.018809611979166665
EXTRACT: note_on channel=9 note=56 velocity=0 time=0.028937864583333334
EXTRACT: note_on channel=9 note=42 velocity=0 time=0.0057875729166666666
EXTRACT: note_on channel=9 note=36 velocity=0 time=0.020256505208333334
EXTRACT: note_on channel=9 note=80 velocity=0 time=0.04051301041666667
EXTRACT: note_on channel=9 note=54 velocity=52 time=0.0028937864583333333
EXTRACT: note_on channel=9 note=56 velocity=23 time=0
EXTRACT: note_on channel=4 note=34 velocity=0 time=0.011575145833333333
EXTRACT: note_on channel=3 note=60 velocity=0 time=0.0028937864583333333
EXTRACT: note_on channel=4 note=46 velocity=0 time=0.031831651041666666
EXTRACT: note_on channel=9 note=54 velocity=0 time=0.0057875729166666666
EXTRACT: note_on channel=3 note=69 velocity=0 time=0.026044078124999998
EXTRACT: note_on channel=2 note=73 velocity=0 time=0.049194369791666664
EXTRACT: note_on channel=8 note=66 velocity=0 time=0
EXTRACT: note_on channel=0 note=32 velocity=0 time=0.0057875729166666666
EXTRACT: note_on channel=5 note=32 velocity=0 time=0
EXTRACT: note_on channel=8 note=70 velocity=0 time=0
EXTRACT: note_on channel=9 note=56 velocity=0 time=0.0028937864583333333
EXTRACT: note_on channel=2 note=78 velocity=0 time=0
EXTRACT: note_on channel=8 note=73 velocity=0 time=0
EXTRACT: note_on channel=9 note=36 velocity=112 time=0.0028937864583333333
EXTRACT: note_on channel=9 note=42 velocity=122 time=0
EXTRACT: note_on channel=9 note=54 velocity=86 time=0
EXTRACT: note_on channel=9 note=57 velocity=79 time=0
EXTRACT: note_on channel=0 note=29 velocity=113 time=0
EXTRACT: note_on channel=2 note=82 velocity=0 time=0
EXTRACT: note_on channel=2 note=72 velocity=87 time=0
EXTRACT: note_on channel=2 note=77 velocity=86 time=0
EXTRACT: note_on channel=2 note=81 velocity=83 time=0
EXTRACT: note_on channel=5 note=44 velocity=0 time=0
EXTRACT: note_on channel=5 note=29 velocity=102 time=0
EXTRACT: note_on channel=5 note=41 velocity=71 time=0
EXTRACT: note_on channel=8 note=65 velocity=82 time=0
EXTRACT: note_on channel=8 note=69 velocity=81 time=0
EXTRACT: note_on channel=8 note=72 velocity=78 time=0
EXTRACT: note_on channel=1 note=32 velocity=0 time=0.015915825520833333
EXTRACT: note_on channel=1 note=29 velocity=113 time=0.0057875729166666666
EXTRACT: note_on channel=9 note=54 velocity=0 time=0.03617233072916667
EXTRACT: note_on channel=9 note=42 velocity=0 time=0.0347254375
EXTRACT: note_on channel=9 note=36 velocity=0 time=0.043406796875
EXTRACT: note_on channel=9 note=57 velocity=0 time=0
EXTRACT: note_on channel=9 note=54 velocity=48 time=0.0028937864583333333
EXTRACT: note_on channel=9 note=54 velocity=0 time=0.03761922395833333
EXTRACT: note_on channel=5 note=29 velocity=0 time=0.08970738020833333
EXTRACT: note_on channel=5 note=41 velocity=0 time=0.0028937864583333333
EXTRACT: note_on channel=9 note=42 velocity=100 time=0.008681359375
EXTRACT: note_on channel=9 note=54 velocity=81 time=0
EXTRACT: note_on channel=9 note=56 velocity=59 time=0
EXTRACT: note_on channel=9 note=80 velocity=127 time=0
EXTRACT: note_on channel=4 note=34 velocity=118 time=0
EXTRACT: note_on channel=4 note=46 velocity=122 time=0
EXTRACT: note_on channel=9 note=54 velocity=0 time=0.052088156249999996
EXTRACT: note_on channel=9 note=56 velocity=0 time=0.020256505208333334
EXTRACT: note_on channel=9 note=42 velocity=0 time=0.0028937864583333333
EXTRACT: note_on channel=0 note=29 velocity=0 time=0.028937864583333334
EXTRACT: note_on channel=1 note=29 velocity=0 time=0.0217033984375
EXTRACT: note_on channel=9 note=80 velocity=0 time=0.010128252604166667
EXTRACT: note_on channel=9 note=54 velocity=65 time=0.0028937864583333333
EXTRACT: note_on channel=9 note=56 velocity=23 time=0
EXTRACT: note_on channel=4 note=34 velocity=0 time=0.043406796875
EXTRACT: note_on channel=4 note=46 velocity=0 time=0.0057875729166666666
EXTRACT: note_on channel=9 note=54 velocity=0 time=0.011575145833333333
EXTRACT: note_on channel=9 note=56 velocity=0 time=0.07523844791666666
EXTRACT: note_on channel=9 note=39 velocity=80 time=0.0028937864583333333
EXTRACT: note_on channel=9 note=40 velocity=121 time=0
EXTRACT: note_on channel=9 note=42 velocity=114 time=0
EXTRACT: note_on channel=9 note=54 velocity=82 time=0
EXTRACT: note_on channel=3 note=65 velocity=117 time=0
EXTRACT: note_on channel=3 note=77 velocity=105 time=0
EXTRACT: note_on channel=4 note=34 velocity=115 time=0
EXTRACT: note_on channel=4 note=46 velocity=121 time=0
EXTRACT: note_on channel=9 note=54 velocity=0 time=0.054981942708333335
EXTRACT: note_on channel=9 note=42 velocity=0 time=0.052088156249999996
EXTRACT: note_on channel=9 note=40 velocity=0 time=0.028937864583333334
EXTRACT: note_on channel=9 note=39 velocity=0 time=0
EXTRACT: note_on channel=9 note=54 velocity=45 time=0.0028937864583333333
EXTRACT: note_on channel=9 note=54 velocity=0 time=0.03761922395833333
EXTRACT: note_on channel=4 note=34 velocity=0 time=0.011575145833333333
EXTRACT: note_on channel=4 note=46 velocity=0 time=0.011575145833333333
EXTRACT: note_on channel=3 note=65 velocity=0 time=0.069450875
EXTRACT: note_on channel=3 note=77 velocity=0 time=0.0057875729166666666
EXTRACT: note_on channel=9 note=42 velocity=90 time=0.0028937864583333333
EXTRACT: note_on channel=9 note=54 velocity=75 time=0
EXTRACT: note_on channel=9 note=56 velocity=59 time=0
EXTRACT: note_on channel=9 note=80 velocity=127 time=0
EXTRACT: note_on channel=3 note=63 velocity=117 time=0
EXTRACT: note_on channel=3 note=75 velocity=112 time=0
EXTRACT: note_on channel=4 note=34 velocity=110 time=0
EXTRACT: note_on channel=4 note=46 velocity=110 time=0
EXTRACT: note_on channel=9 note=54 velocity=0 time=0.04051301041666667
EXTRACT: note_on channel=9 note=56 velocity=0 time=0.031831651041666666
EXTRACT: note_on channel=9 note=42 velocity=0 time=0.0028937864583333333
EXTRACT: note_on channel=3 note=75 velocity=0 time=0.008681359375
EXTRACT: note_on channel=3 note=63 velocity=0 time=0.01736271875
EXTRACT: note_on channel=9 note=80 velocity=0 time=0.0347254375
EXTRACT: note_on channel=9 note=54 velocity=49 time=0.0028937864583333333
EXTRACT: note_on channel=9 note=56 velocity=23 time=0
EXTRACT: note_on channel=9 note=54 velocity=0 time=0.04051301041666667
EXTRACT: note_on channel=4 note=34 velocity=0 time=0.054981942708333335
EXTRACT: note_on channel=4 note=46 velocity=0 time=0.011575145833333333
EXTRACT: note_on channel=8 note=65 velocity=0 time=0.01736271875
EXTRACT: note_on channel=2 note=72 velocity=0 time=0.0028937864583333333
EXTRACT: note_on channel=8 note=69 velocity=0 time=0.0057875729166666666
EXTRACT: note_on channel=9 note=56 velocity=0 time=0.0028937864583333333
EXTRACT: note_on channel=2 note=77 velocity=0 time=0
EXTRACT: note_on channel=9 note=36 velocity=114 time=0.0028937864583333333
EXTRACT: note_on channel=9 note=42 velocity=122 time=0
EXTRACT: note_on channel=9 note=49 velocity=83 time=0
EXTRACT: note_on channel=9 note=54 velocity=90 time=0
EXTRACT: note_on channel=0 note=34 velocity=126 time=0
EXTRACT: note_on channel=2 note=81 velocity=0 time=0
EXTRACT: note_on channel=2 note=73 velocity=88 time=0
EXTRACT: note_on channel=2 note=77 velocity=85 time=0
EXTRACT: note_on channel=2 note=82 velocity=84 time=0
EXTRACT: note_on channel=3 note=63 velocity=116 time=0
EXTRACT: note_on channel=3 note=75 velocity=118 time=0
EXTRACT: note_on channel=5 note=34 velocity=123 time=0
EXTRACT: note_on channel=5 note=46 velocity=92 time=0
EXTRACT: note_on channel=8 note=72 velocity=0 time=0
EXTRACT: note_on channel=8 note=65 velocity=88 time=0
EXTRACT: note_on channel=8 note=70 velocity=85 time=0
EXTRACT: note_on channel=8 note=73 velocity=84 time=0
EXTRACT: note_on channel=1 note=34 velocity=126 time=0.0217033984375
EXTRACT: note_on channel=9 note=54 velocity=0 time=0.027490971354166668
EXTRACT: note_on channel=9 note=42 velocity=0 time=0.043406796875
EXTRACT: note_on channel=9 note=49 velocity=0 time=0.043406796875
EXTRACT: note_on channel=9 note=36 velocity=0 time=0
EXTRACT: note_on channel=9 note=54 velocity=42 time=0.0028937864583333333
EXTRACT: note_on channel=9 note=54 velocity=0 time=0.052088156249999996
EXTRACT: note_on channel=9 note=42 velocity=100 time=0.08681359375
EXTRACT: note_on channel=9 note=54 velocity=78 time=0
EXTRACT: note_on channel=9 note=56 velocity=59 time=0
EXTRACT: note_on channel=9 note=80 velocity=127 time=0
EXTRACT: note_on channel=9 note=54 velocity=0 time=0.0347254375
EXTRACT: note_on channel=0 note=34 velocity=0 time=0.0057875729166666666
EXTRACT: note_on channel=1 note=34 velocity=0 time=0.0217033984375
EXTRACT: note_on channel=5 note=34 velocity=0 time=0.007234466145833333
EXTRACT: note_on channel=9 note=56 velocity=0 time=0.0028937864583333333
EXTRACT: note_on channel=5 note=46 velocity=0 time=0
EXTRACT: note_on channel=9 note=42 velocity=0 time=0.0028937864583333333
EXTRACT: note_on channel=9 note=80 velocity=0 time=0.060769515625
EXTRACT: note_on channel=9 note=54 velocity=54 time=0.0028937864583333333
EXTRACT: note_on channel=9 note=56 velocity=23 time=0
EXTRACT: note_on channel=9 note=54 velocity=0 time=0.07523844791666666
EXTRACT: note_on channel=9 note=56 velocity=0 time=0.060769515625
EXTRACT: note_on channel=9 note=39 velocity=80 time=0.0028937864583333333
EXTRACT: note_on channel=9 note=40 velocity=121 time=0
EXTRACT: note_on channel=9 note=42 velocity=114 time=0
EXTRACT: note_on channel=9 note=54 velocity=85 time=0
EXTRACT: note_on channel=0 note=34 velocity=123 time=0
EXTRACT: note_on channel=5 note=34 velocity=124 time=0
EXTRACT: note_on channel=5 note=46 velocity=93 time=0
EXTRACT: note_on channel=1 note=34 velocity=123 time=0.0217033984375
EXTRACT: note_on channel=9 note=54 velocity=0 time=0.018809611979166665
EXTRACT: note_on channel=9 note=42 velocity=0 time=0.06655708854166667
EXTRACT: note_on channel=9 note=40 velocity=0 time=0.028937864583333334
EXTRACT: note_on channel=9 note=39 velocity=0 time=0
EXTRACT: note_on channel=9 note=54 velocity=49 time=0.0028937864583333333
EXTRACT: note_on channel=9 note=54 velocity=0 time=0.07234466145833333
EXTRACT: note_on channel=3 note=75 velocity=0 time=0.04630058333333333
EXTRACT: note_on channel=3 note=63 velocity=0 time=0.0057875729166666666
EXTRACT: note_on channel=0 note=34 velocity=0 time=0.008681359375
EXTRACT: note_on channel=5 note=34 velocity=0 time=0
EXTRACT: note_on channel=9 note=36 velocity=109 time=0.0057875729166666666
EXTRACT: note_on channel=9 note=42 velocity=90 time=0
EXTRACT: note_on channel=9 note=54 velocity=80 time=0
EXTRACT: note_on channel=9 note=56 velocity=59 time=0
EXTRACT: note_on channel=9 note=80 velocity=127 time=0
EXTRACT: note_on channel=0 note=33 velocity=115 time=0
EXTRACT: note_on channel=3 note=61 velocity=111 time=0
EXTRACT: note_on channel=3 note=73 velocity=118 time=0
EXTRACT: note_on channel=4 note=34 velocity=114 time=0
EXTRACT: note_on channel=4 note=46 velocity=121 time=0
EXTRACT: note_on channel=5 note=46 velocity=0 time=0
EXTRACT: note_on channel=5 note=33 velocity=105 time=0
EXTRACT: note_on channel=5 note=45 velocity=74 time=0
EXTRACT: note_on channel=1 note=34 velocity=0 time=0.015915825520833333
EXTRACT: note_on channel=1 note=33 velocity=115 time=0.0057875729166666666
EXTRACT: note_on channel=9 note=54 velocity=0 time=0.0217033984375
EXTRACT: note_on channel=9 note=56 velocity=0 time=0.028937864583333334
EXTRACT: note_on channel=9 note=42 velocity=0 time=0.0028937864583333333
EXTRACT: note_on channel=9 note=36 velocity=0 time=0.031831651041666666
EXTRACT: note_on channel=9 note=80 velocity=0 time=0.028937864583333334
EXTRACT: note_on channel=9 note=54 velocity=52 time=0.0028937864583333333
EXTRACT: note_on channel=9 note=56 velocity=23 time=0
EXTRACT: note_on channel=4 note=34 velocity=0 time=0.014468932291666667
EXTRACT: note_on channel=4 note=46 velocity=0 time=0.0347254375
EXTRACT: note_on channel=9 note=54 velocity=0 time=0.0028937864583333333
EXTRACT: note_on channel=0 note=33 velocity=0 time=0.08102602083333334
EXTRACT: note_on channel=5 note=33 velocity=0 time=0
EXTRACT: note_on channel=9 note=56 velocity=0 time=0.0028937864583333333
EXTRACT: note_on channel=9 note=36 velocity=109 time=0.0028937864583333333
EXTRACT: note_on channel=9 note=42 velocity=122 time=0
EXTRACT: note_on channel=9 note=54 velocity=86 time=0
EXTRACT: note_on channel=0 note=32 velocity=113 time=0
EXTRACT: note_on channel=5 note=45 velocity=0 time=0
EXTRACT: note_on channel=5 note=32 velocity=115 time=0
EXTRACT: note_on channel=5 note=44 velocity=84 time=0
EXTRACT: note_on channel=1 note=33 velocity=0 time=0.015915825520833333
EXTRACT: note_on channel=1 note=32 velocity=113 time=0.0057875729166666666
EXTRACT: note_on channel=9 note=54 velocity=0 time=0.03617233072916667
EXTRACT: note_on channel=9 note=42 velocity=0 time=0.0347254375
EXTRACT: note_on channel=9 note=36 velocity=0 time=0.008681359375
EXTRACT: note_on channel=9 note=54 velocity=48 time=0.03761922395833333
EXTRACT: note_on channel=9 note=54 velocity=0 time=0.03761922395833333
EXTRACT: note_on channel=0 note=32 velocity=0 time=0.095494953125
EXTRACT: note_on channel=5 note=32 velocity=0 time=0
EXTRACT: note_on channel=9 note=36 velocity=113 time=0.0057875729166666666
EXTRACT: note_on channel=9 note=42 velocity=100 time=0
EXTRACT: note_on channel=9 note=54 velocity=81 time=0
EXTRACT: note_on channel=9 note=56 velocity=59 time=0
EXTRACT: note_on channel=9 note=80 velocity=127 time=0
EXTRACT: note_on channel=0 note=31 velocity=119 time=0
EXTRACT: note_on channel=4 note=34 velocity=118 time=0
EXTRACT: note_on channel=4 note=46 velocity=122 time=0
EXTRACT: note_on channel=5 note=44 velocity=0 time=0
EXTRACT: note_on channel=5 note=31 velocity=110 time=0
EXTRACT: note_on channel=5 note=43 velocity=79 time=0
EXTRACT: note_on channel=1 note=32 velocity=0 time=0.015915825520833333
EXTRACT: note_on channel=1 note=31 velocity=119 time=0.0057875729166666666
EXTRACT: note_on channel=9 note=54 velocity=0 time=0.0303847578125
EXTRACT: note_on channel=9 note=56 velocity=0 time=0.020256505208333334
EXTRACT: note_on channel=9 note=42 velocity=0 time=0.0028937864583333333
EXTRACT: note_on channel=3 note=61 velocity=0 time=0.020256505208333334
EXTRACT: note_on channel=3 note=73 velocity=0 time=0.023150291666666666
EXTRACT: note_on channel=9 note=36 velocity=0 time=0.01736271875
EXTRACT: note_on channel=9 note=80 velocity=0 time=0
EXTRACT: note_on channel=9 note=54 velocity=65 time=0.0028937864583333333
EXTRACT: note_on channel=9 note=56 velocity=23 time=0
EXTRACT: note_on channel=4 note=34 velocity=0 time=0.04051301041666667
EXTRACT: note_on channel=4 note=46 velocity=0 time=0.0057875729166666666
EXTRACT: note_on channel=9 note=54 velocity=0 time=0.014468932291666667
EXTRACT: note_on channel=0 note=31 velocity=0 time=0.07234466145833333
EXTRACT: note_on channel=5 note=31 velocity=0 time=0
EXTRACT: note_on channel=9 note=56 velocity=0 time=0.0028937864583333333
EXTRACT: note_on channel=9 note=39 velocity=80 time=0.0028937864583333333
EXTRACT: note_on channel=9 note=40 velocity=121 time=0
EXTRACT: note_on channel=9 note=42 velocity=114 time=0
EXTRACT: note_on channel=9 note=54 velocity=82 time=0
EXTRACT: note_on channel=0 note=30 velocity=114 time=0
EXTRACT: note_on channel=4 note=34 velocity=115 time=0
EXTRACT: note_on channel=4 note=46 velocity=121 time=0
EXTRACT: note_on channel=5 note=43 velocity=0 time=0
EXTRACT: note_on channel=5 note=30 velocity=108 time=0
EXTRACT: note_on channel=5 note=42 velocity=77 time=0
EXTRACT: note_on channel=1 note=31 velocity=0 time=0.015915825520833333
EXTRACT: note_on channel=1 note=30 velocity=114 time=0.0057875729166666666
EXTRACT: note_on channel=9 note=54 velocity=0 time=0.033278544270833335
EXTRACT: note_on channel=9 note=42 velocity=0 time=0.052088156249999996
EXTRACT: note_on channel=9 note=40 velocity=0 time=0.028937864583333334
EXTRACT: note_on channel=9 note=39 velocity=0 time=0
EXTRACT: note_on channel=9 note=54 velocity=45 time=0.0028937864583333333
EXTRACT: note_on channel=9 note=54 velocity=0 time=0.03761922395833333
EXTRACT: note_on channel=4 note=34 velocity=0 time=0.011575145833333333
EXTRACT: note_on channel=4 note=46 velocity=0 time=0.008681359375
EXTRACT: note_on channel=5 note=30 velocity=0 time=0.03761922395833333
EXTRACT: note_on channel=5 note=42 velocity=0 time=0.0028937864583333333
EXTRACT: note_on channel=9 note=42 velocity=90 time=0.04051301041666667
EXTRACT: note_on channel=9 note=54 velocity=75 time=0
EXTRACT: note_on channel=9 note=56 velocity=59 time=0
EXTRACT: note_on channel=9 note=80 velocity=127 time=0
EXTRACT: note_on channel=4 note=34 velocity=110 time=0
EXTRACT: note_on channel=4 note=46 velocity=110 time=0
EXTRACT: note_on channel=0 note=30 velocity=0 time=0.028937864583333334
EXTRACT: note_on channel=9 note=54 velocity=0 time=0.011575145833333333
EXTRACT: note_on channel=1 note=30 velocity=0 time=0.010128252604166667
EXTRACT: note_on channel=9 note=56 velocity=0 time=0.0217033984375
EXTRACT: note_on channel=9 note=42 velocity=0 time=0.0028937864583333333
EXTRACT: note_on channel=9 note=80 velocity=0 time=0.060769515625
EXTRACT: note_on channel=9 note=54 velocity=49 time=0.0028937864583333333
EXTRACT: note_on channel=9 note=56 velocity=23 time=0
EXTRACT: note_on channel=9 note=54 velocity=0 time=0.04051301041666667
EXTRACT: note_on channel=4 note=34 velocity=0 time=0.054981942708333335
EXTRACT: note_on channel=4 note=46 velocity=0 time=0.011575145833333333
EXTRACT: note_on channel=8 note=65 velocity=0 time=0.01736271875
EXTRACT: note_on channel=2 note=73 velocity=0 time=0.0028937864583333333
EXTRACT: note_on channel=2 note=77 velocity=0 time=0.0057875729166666666
EXTRACT: note_on channel=8 note=70 velocity=0 time=0
EXTRACT: note_on channel=9 note=56 velocity=0 time=0.0028937864583333333
EXTRACT: note_on channel=2 note=82 velocity=0 time=0
EXTRACT: note_on channel=8 note=73 velocity=0 time=0
EXTRACT: note_on channel=9 note=36 velocity=116 time=0.0028937864583333333
EXTRACT: note_on channel=9 note=42 velocity=122 time=0
EXTRACT: note_on channel=9 note=54 velocity=90 time=0
EXTRACT: note_on channel=9 note=57 velocity=60 time=0
EXTRACT: note_on channel=0 note=30 velocity=124 time=0
EXTRACT: note_on channel=2 note=73 velocity=86 time=0
EXTRACT: note_on channel=2 note=78 velocity=89 time=0
EXTRACT: note_on channel=2 note=82 velocity=82 time=0
EXTRACT: note_on channel=3 note=58 velocity=120 time=0
EXTRACT: note_on channel=3 note=70 velocity=119 time=0
EXTRACT: note_on channel=5 note=30 velocity=124 time=0
EXTRACT: note_on channel=5 note=42 velocity=93 time=0
EXTRACT: note_on channel=8 note=66 velocity=81 time=0
EXTRACT: note_on channel=8 note=70 velocity=84 time=0
EXTRACT: note_on channel=8 note=73 velocity=77 time=0
EXTRACT: note_on channel=1 note=30 velocity=124 time=0.0217033984375
EXTRACT: note_on channel=9 note=54 velocity=0 time=0.027490971354166668
EXTRACT: note_on channel=9 note=42 velocity=0 time=0.043406796875
EXTRACT: note_on channel=9 note=36 velocity=0 time=0.043406796875
EXTRACT: note_on channel=9 note=57 velocity=0 time=0
EXTRACT: note_on channel=9 note=54 velocity=42 time=0.0028937864583333333
EXTRACT: note_on channel=9 note=54 velocity=0 time=0.052088156249999996
EXTRACT: note_on channel=3 note=58 velocity=0 time=0.028937864583333334
EXTRACT: note_on channel=3 note=70 velocity=0 time=0.011575145833333333
EXTRACT: note_on channel=0 note=30 velocity=0 time=0.031831651041666666
EXTRACT: note_on channel=9 note=42 velocity=100 time=0.014468932291666667
EXTRACT: note_on channel=9 note=54 velocity=78 time=0
EXTRACT: note_on channel=9 note=56 velocity=59 time=0
EXTRACT: note_on channel=9 note=80 velocity=127 time=0
EXTRACT: note_on channel=1 note=30 velocity=0 time=0.007234466145833333
EXTRACT: note_on channel=9 note=54 velocity=0 time=0.027490971354166668
EXTRACT: note_on channel=5 note=30 velocity=0 time=0.014468932291666667
EXTRACT: note_on channel=5 note=42 velocity=0 time=0.0028937864583333333
EXTRACT: note_on channel=9 note=56 velocity=0 time=0.020256505208333334
EXTRACT: note_on channel=9 note=42 velocity=0 time=0.0028937864583333333
EXTRACT: note_on channel=9 note=80 velocity=0 time=0.060769515625
EXTRACT: note_on channel=9 note=54 velocity=54 time=0.0028937864583333333
EXTRACT: note_on channel=9 note=56 velocity=23 time=0
EXTRACT: note_on channel=9 note=54 velocity=0 time=0.07523844791666666
EXTRACT: note_on channel=9 note=56 velocity=0 time=0.060769515625
EXTRACT: note_on channel=9 note=39 velocity=80 time=0.0028937864583333333
EXTRACT: note_on channel=9 note=40 velocity=121 time=0
EXTRACT: note_on channel=9 note=42 velocity=114 time=0
EXTRACT: note_on channel=9 note=54 velocity=85 time=0
EXTRACT: note_on channel=0 note=30 velocity=119 time=0
EXTRACT: note_on channel=3 note=61 velocity=118 time=0
EXTRACT: note_on channel=3 note=73 velocity=114 time=0
EXTRACT: note_on channel=5 note=30 velocity=121 time=0
EXTRACT: note_on channel=5 note=42 velocity=90 time=0
EXTRACT: note_on channel=1 note=30 velocity=119 time=0.0217033984375
EXTRACT: note_on channel=9 note=54 velocity=0 time=0.0217033984375
EXTRACT: note_on channel=9 note=42 velocity=0 time=0.06366330208333333
EXTRACT: note_on channel=9 note=40 velocity=0 time=0.028937864583333334
EXTRACT: note_on channel=9 note=39 velocity=0 time=0
EXTRACT: note_on channel=9 note=54 velocity=49 time=0.0028937864583333333
EXTRACT: note_on channel=9 note=54 velocity=0 time=0.07234466145833333
EXTRACT: note_on channel=5 note=30 velocity=0 time=0.04051301041666667
EXTRACT: note_on channel=5 note=42 velocity=0 time=0.0028937864583333333
EXTRACT: note_on channel=0 note=30 velocity=0 time=0.020256505208333334
EXTRACT: note_on channel=9 note=36 velocity=111 time=0.0028937864583333333
EXTRACT: note_on channel=9 note=42 velocity=90 time=0
EXTRACT: note_on channel=9 note=54 velocity=80 time=0
EXTRACT: note_on channel=9 note=56 velocity=59 time=0
EXTRACT: note_on channel=9 note=80 velocity=127 time=0
EXTRACT: note_on channel=0 note=32 velocity=122 time=0
EXTRACT: note_on channel=4 note=34 velocity=114 time=0
EXTRACT: note_on channel=4 note=46 velocity=121 time=0
EXTRACT: note_on channel=5 note=32 velocity=107 time=0
EXTRACT: note_on channel=5 note=44 velocity=76 time=0
EXTRACT: note_on channel=3 note=61 velocity=0 time=0.0028937864583333333
EXTRACT: note_on channel=3 note=73 velocity=0 time=0.014468932291666667
EXTRACT: note_on channel=1 note=30 velocity=0 time=0.0014468932291666666
EXTRACT: note_on channel=1 note=32 velocity=122 time=0.0028937864583333333
EXTRACT: note_on channel=9 note=54 velocity=0 time=0.0217033984375
EXTRACT: note_on channel=9 note=56 velocity=0 time=0.028937864583333334
EXTRACT: note_on channel=9 note=42 velocity=0 time=0.0028937864583333333
EXTRACT: note_on channel=9 note=36 velocity=0 time=0.020256505208333334
EXTRACT: note_on channel=9 note=80 velocity=0 time=0.04051301041666667
EXTRACT: note_on channel=9 note=54 velocity=52 time=0.0028937864583333333
EXTRACT: note_on channel=9 note=56 velocity=23 time=0
EXTRACT: note_on channel=4 note=34 velocity=0 time=0.014468932291666667
EXTRACT: note_on channel=4 note=46 velocity=0 time=0.031831651041666666
EXTRACT: note_on channel=9 note=54 velocity=0 time=0.0057875729166666666
EXTRACT: note_on channel=2 note=73 velocity=0 time=0.07523844791666666
EXTRACT: note_on channel=8 note=66 velocity=0 time=0
EXTRACT: note_on channel=0 note=32 velocity=0 time=0.0057875729166666666
EXTRACT: note_on channel=5 note=32 velocity=0 time=0
EXTRACT: note_on channel=8 note=70 velocity=0 time=0
EXTRACT: note_on channel=9 note=56 velocity=0 time=0.0028937864583333333
EXTRACT: note_on channel=2 note=78 velocity=0 time=0
EXTRACT: note_on channel=9 note=36 velocity=112 time=0.0028937864583333333
EXTRACT: note_on channel=9 note=42 velocity=122 time=0
EXTRACT: note_on channel=9 note=54 velocity=86 time=0
EXTRACT: note_on channel=9 note=57 velocity=79 time=0
EXTRACT: note_on channel=0 note=29 velocity=113 time=0
EXTRACT: note_on channel=2 note=82 velocity=0 time=0
EXTRACT: note_on channel=2 note=75 velocity=86 time=0
EXTRACT: note_on channel=2 note=80 velocity=83 time=0
EXTRACT: note_on channel=2 note=84 velocity=87 time=0
EXTRACT: note_on channel=3 note=63 velocity=118 time=0
EXTRACT: note_on channel=3 note=75 velocity=118 time=0
EXTRACT: note_on channel=5 note=44 velocity=0 time=0
EXTRACT: note_on channel=5 note=29 velocity=102 time=0
EXTRACT: note_on channel=5 note=41 velocity=71 time=0
EXTRACT: note_on channel=8 note=73 velocity=0 time=0
EXTRACT: note_on channel=8 note=68 velocity=82 time=0
EXTRACT: note_on channel=8 note=72 velocity=81 time=0
EXTRACT: note_on channel=8 note=75 velocity=78 time=0
EXTRACT: note_on channel=1 note=32 velocity=0 time=0.015915825520833333
EXTRACT: note_on channel=1 note=29 velocity=113 time=0.0057875729166666666
EXTRACT: note_on channel=9 note=54 velocity=0 time=0.03617233072916667
EXTRACT: note_on channel=9 note=42 velocity=0 time=0.0347254375
EXTRACT: note_on channel=9 note=36 velocity=0 time=0.043406796875
EXTRACT: note_on channel=9 note=57 velocity=0 time=0
EXTRACT: note_on channel=9 note=54 velocity=48 time=0.0028937864583333333
EXTRACT: note_on channel=9 note=54 velocity=0 time=0.03761922395833333
EXTRACT: note_on channel=5 note=41 velocity=0 time=0.08970738020833333
EXTRACT: note_on channel=5 note=29 velocity=0 time=0
EXTRACT: note_on channel=9 note=42 velocity=100 time=0.011575145833333333
EXTRACT: note_on channel=9 note=54 velocity=81 time=0
EXTRACT: note_on channel=9 note=56 velocity=59 time=0
EXTRACT: note_on channel=9 note=80 velocity=127 time=0
EXTRACT: note_on channel=4 note=34 velocity=118 time=0
EXTRACT: note_on channel=4 note=46 velocity=122 time=0
EXTRACT: note_on channel=9 note=54 velocity=0 time=0.052088156249999996
EXTRACT: note_on channel=9 note=56 velocity=0 time=0.020256505208333334
EXTRACT: note_on channel=9 note=42 velocity=0 time=0.0028937864583333333
EXTRACT: note_on channel=0 note=29 velocity=0 time=0.028937864583333334
EXTRACT: note_on channel=1 note=29 velocity=0 time=0.0217033984375
EXTRACT: note_on channel=9 note=80 velocity=0 time=0.010128252604166667
EXTRACT: note_on channel=9 note=54 velocity=65 time=0.0028937864583333333
EXTRACT: note_on channel=9 note=56 velocity=23 time=0
EXTRACT: note_on channel=4 note=34 velocity=0 time=0.043406796875
EXTRACT: note_on channel=4 note=46 velocity=0 time=0.0057875729166666666
EXTRACT: note_on channel=9 note=54 velocity=0 time=0.011575145833333333
EXTRACT: note_on channel=3 note=63 velocity=0 time=0.069450875
EXTRACT: note_on channel=9 note=56 velocity=0 time=0.0057875729166666666
EXTRACT: note_on channel=3 note=75 velocity=0 time=0
EXTRACT: note_on channel=9 note=39 velocity=80 time=0.0028937864583333333
EXTRACT: note_on channel=9 note=40 velocity=121 time=0
EXTRACT: note_on channel=9 note=42 velocity=114 time=0
EXTRACT: note_on channel=9 note=54 velocity=82 time=0
EXTRACT: note_on channel=3 note=58 velocity=112 time=0
EXTRACT: note_on channel=3 note=70 velocity=116 time=0
EXTRACT: note_on channel=4 note=34 velocity=115 time=0
EXTRACT: note_on channel=4 note=46 velocity=121 time=0
EXTRACT: note_on channel=9 note=54 velocity=0 time=0.054981942708333335
EXTRACT: note_on channel=9 note=42 velocity=0 time=0.052088156249999996
EXTRACT: note_on channel=9 note=40 velocity=0 time=0.028937864583333334
EXTRACT: note_on channel=9 note=39 velocity=0 time=0
EXTRACT: note_on channel=9 note=54 velocity=45 time=0.0028937864583333333
EXTRACT: note_on channel=9 note=54 velocity=0 time=0.03761922395833333
EXTRACT: note_on channel=4 note=34 velocity=0 time=0.011575145833333333
EXTRACT: note_on channel=4 note=46 velocity=0 time=0.011575145833333333
EXTRACT: note_on channel=3 note=58 velocity=0 time=0.07234466145833333
EXTRACT: note_on channel=9 note=42 velocity=90 time=0.0057875729166666666
EXTRACT: note_on channel=9 note=54 velocity=75 time=0
EXTRACT: note_on channel=9 note=56 velocity=59 time=0
EXTRACT: note_on channel=9 note=80 velocity=127 time=0
EXTRACT: note_on channel=3 note=58 velocity=103 time=0
EXTRACT: note_on channel=4 note=34 velocity=110 time=0
EXTRACT: note_on channel=4 note=46 velocity=110 time=0
EXTRACT: note_on channel=9 note=54 velocity=0 time=0.04051301041666667
EXTRACT: note_on channel=9 note=56 velocity=0 time=0.031831651041666666
EXTRACT: note_on channel=9 note=42 velocity=0 time=0.0028937864583333333
EXTRACT: note_on channel=9 note=80 velocity=0 time=0.060769515625
EXTRACT: note_on channel=3 note=70 velocity=0 time=0
EXTRACT: note_on channel=9 note=54 velocity=49 time=0.0028937864583333333
EXTRACT: note_on channel=9 note=56 velocity=23 time=0
EXTRACT: note_on channel=9 note=54 velocity=0 time=0.04051301041666667
EXTRACT: note_on channel=4 note=34 velocity=0 time=0.054981942708333335
EXTRACT: note_on channel=4 note=46 velocity=0 time=0.011575145833333333
EXTRACT: note_on channel=3 note=58 velocity=0 time=0.008681359375
EXTRACT: note_on channel=8 note=68 velocity=0 time=0.008681359375
EXTRACT: note_on channel=2 note=75 velocity=0 time=0.0028937864583333333
EXTRACT: note_on channel=8 note=72 velocity=0 time=0.0057875729166666666
EXTRACT: note_on channel=9 note=56 velocity=0 time=0.0028937864583333333
EXTRACT: note_on channel=2 note=84 velocity=0 time=0
EXTRACT: note_on channel=2 note=80 velocity=0 time=0
EXTRACT: note_on channel=8 note=75 velocity=0 time=0
EXTRACT: note_on channel=9 note=36 velocity=114 time=0.0028937864583333333
EXTRACT: note_on channel=9 note=42 velocity=122 time=0
EXTRACT: note_on channel=9 note=49 velocity=83 time=0
EXTRACT: note_on channel=9 note=54 velocity=90 time=0
EXTRACT: note_on channel=0 note=34 velocity=126 time=0
EXTRACT: note_on channel=2 note=73 velocity=88 time=0
EXTRACT: note_on channel=2 note=77 velocity=85 time=0
EXTRACT: note_on channel=2 note=82 velocity=84 time=0
EXTRACT: note_on channel=5 note=34 velocity=123 time=0
EXTRACT: note_on channel=5 note=46 velocity=92 time=0
EXTRACT: note_on channel=8 note=65 velocity=88 time=0
EXTRACT: note_on channel=8 note=70 velocity=85 time=0
EXTRACT: note_on channel=8 note=73 velocity=84 time=0
EXTRACT: note_on channel=1 note=34 velocity=126 time=0.0217033984375
EXTRACT: note_on channel=9 note=54 velocity=0 time=0.027490971354166668
EXTRACT: note_on channel=9 note=42 velocity=0 time=0.04051301041666667
EXTRACT: note_on channel=9 note=49 velocity=0 time=0.04630058333333333
EXTRACT: note_on channel=9 note=36 velocity=0 time=0
EXTRACT: note_on channel=9 note=54 velocity=42 time=0.0028937864583333333
EXTRACT: note_on channel=9 note=54 velocity=0 time=0.052088156249999996
EXTRACT: note_on channel=9 note=42 velocity=100 time=0.08681359375
EXTRACT: note_on channel=9 note=54 velocity=78 time=0
EXTRACT: note_on channel=9 note=56 velocity=59 time=0
EXTRACT: note_on channel=9 note=80 velocity=127 time=0
EXTRACT: note_on channel=9 note=54 velocity=0 time=0.0347254375
EXTRACT: note_on channel=0 note=34 velocity=0 time=0.0057875729166666666
EXTRACT: note_on channel=1 note=34 velocity=0 time=0.0217033984375
EXTRACT: note_on channel=9 note=56 velocity=0 time=0.007234466145833333
EXTRACT: note_on channel=5 note=46 velocity=0 time=0
EXTRACT: note_on channel=5 note=34 velocity=0 time=0
EXTRACT: note_on channel=9 note=42 velocity=0 time=0.0057875729166666666
EXTRACT: note_on channel=9 note=80 velocity=0 time=0.060769515625
EXTRACT: note_on channel=9 note=54 velocity=54 time=0.0028937864583333333
EXTRACT: note_on channel=9 note=56 velocity=23 time=0
EXTRACT: note_on channel=9 note=54 velocity=0 time=0.07523844791666666
EXTRACT: note_on channel=9 note=56 velocity=0 time=0.060769515625
EXTRACT: note_on channel=9 note=39 velocity=80 time=0.0028937864583333333
EXTRACT: note_on channel=9 note=40 velocity=121 time=0
EXTRACT: note_on channel=9 note=42 velocity=114 time=0
EXTRACT: note_on channel=9 note=54 velocity=85 time=0
EXTRACT: note_on channel=0 note=34 velocity=123 time=0
EXTRACT: note_on channel=5 note=34 velocity=124 time=0
EXTRACT: note_on channel=5 note=46 velocity=93 time=0
EXTRACT: note_on channel=1 note=34 velocity=123 time=0.0217033984375
EXTRACT: note_on channel=9 note=54 velocity=0 time=0.0217033984375
EXTRACT: note_on channel=9 note=42 velocity=0 time=0.06366330208333333
EXTRACT: note_on channel=9 note=40 velocity=0 time=0.028937864583333334
EXTRACT: note_on channel=9 note=39 velocity=0 time=0
EXTRACT: note_on channel=9 note=54 velocity=49 time=0.0028937864583333333
EXTRACT: note_on channel=9 note=54 velocity=0 time=0.07234466145833333
EXTRACT: note_on channel=0 note=34 velocity=0 time=0.060769515625
EXTRACT: note_on channel=5 note=34 velocity=0 time=0
EXTRACT: note_on channel=9 note=36 velocity=109 time=0.0057875729166666666
EXTRACT: note_on channel=9 note=42 velocity=90 time=0
EXTRACT: note_on channel=9 note=54 velocity=80 time=0
EXTRACT: note_on channel=9 note=56 velocity=59 time=0
EXTRACT: note_on channel=9 note=80 velocity=127 time=0
EXTRACT: note_on channel=0 note=33 velocity=115 time=0
EXTRACT: note_on channel=4 note=34 velocity=114 time=0
EXTRACT: note_on channel=4 note=46 velocity=121 time=0
EXTRACT: note_on channel=5 note=46 velocity=0 time=0
EXTRACT: note_on channel=5 note=33 velocity=105 time=0
EXTRACT: note_on channel=5 note=45 velocity=74 time=0
EXTRACT: note_on channel=1 note=34 velocity=0 time=0.015915825520833333
EXTRACT: note_on channel=1 note=33 velocity=115 time=0.0057875729166666666
EXTRACT: note_on channel=9 note=54 velocity=0 time=0.0217033984375
EXTRACT: note_on channel=9 note=56 velocity=0 time=0.028937864583333334
EXTRACT: note_on channel=9 note=42 velocity=0 time=0.0028937864583333333
EXTRACT: note_on channel=9 note=36 velocity=0 time=0.031831651041666666
EXTRACT: note_on channel=9 note=80 velocity=0 time=0.028937864583333334
EXTRACT: note_on channel=9 note=54 velocity=52 time=0.0028937864583333333
EXTRACT: note_on channel=9 note=56 velocity=23 time=0
EXTRACT: note_on channel=4 note=34 velocity=0 time=0.011575145833333333
EXTRACT: note_on channel=4 note=46 velocity=0 time=0.0347254375
EXTRACT: note_on channel=9 note=54 velocity=0 time=0.0057875729166666666
EXTRACT: note_on channel=0 note=33 velocity=0 time=0.08102602083333334
EXTRACT: note_on channel=5 note=33 velocity=0 time=0
EXTRACT: note_on channel=9 note=56 velocity=0 time=0.0028937864583333333
EXTRACT: note_on channel=9 note=36 velocity=109 time=0.0028937864583333333
EXTRACT: note_on channel=9 note=42 velocity=122 time=0
EXTRACT: note_on channel=9 note=54 velocity=86 time=0
EXTRACT: note_on channel=0 note=32 velocity=113 time=0
EXTRACT: note_on channel=5 note=45 velocity=0 time=0
EXTRACT: note_on channel=5 note=32 velocity=115 time=0
EXTRACT: note_on channel=5 note=44 velocity=84 time=0
EXTRACT: note_on channel=1 note=33 velocity=0 time=0.015915825520833333
EXTRACT: note_on channel=1 note=32 velocity=113 time=0.0057875729166666666
EXTRACT: note_on channel=9 note=54 velocity=0 time=0.033278544270833335
EXTRACT: note_on channel=9 note=42 velocity=0 time=0.03761922395833333
EXTRACT: note_on channel=9 note=36 velocity=0 time=0.008681359375
EXTRACT: note_on channel=9 note=54 velocity=48 time=0.03761922395833333
EXTRACT: note_on channel=9 note=54 velocity=0 time=0.03761922395833333
EXTRACT: note_on channel=0 note=32 velocity=0 time=0.095494953125
EXTRACT: note_on channel=5 note=32 velocity=0 time=0
EXTRACT: note_on channel=5 note=44 velocity=0 time=0.0028937864583333333
EXTRACT: note_on channel=9 note=36 velocity=113 time=0.0028937864583333333
EXTRACT: note_on channel=9 note=42 velocity=100 time=0
EXTRACT: note_on channel=9 note=54 velocity=81 time=0
EXTRACT: note_on channel=9 note=56 velocity=59 time=0
EXTRACT: note_on channel=9 note=80 velocity=127 time=0
EXTRACT: note_on channel=0 note=31 velocity=119 time=0
EXTRACT: note_on channel=4 note=34 velocity=118 time=0
EXTRACT: note_on channel=4 note=46 velocity=122 time=0
EXTRACT: note_on channel=5 note=31 velocity=110 time=0
EXTRACT: note_on channel=5 note=43 velocity=79 time=0
EXTRACT: note_on channel=1 note=32 velocity=0 time=0.015915825520833333
EXTRACT: note_on channel=1 note=31 velocity=119 time=0.0057875729166666666
EXTRACT: note_on channel=9 note=54 velocity=0 time=0.0303847578125
EXTRACT: note_on channel=9 note=56 velocity=0 time=0.01736271875
EXTRACT: note_on channel=9 note=42 velocity=0 time=0.0057875729166666666
EXTRACT: note_on channel=9 note=36 velocity=0 time=0.060769515625
EXTRACT: note_on channel=9 note=80 velocity=0 time=0
EXTRACT: note_on channel=9 note=54 velocity=65 time=0.0028937864583333333
EXTRACT: note_on channel=9 note=56 velocity=23 time=0
EXTRACT: note_on channel=4 note=34 velocity=0 time=0.04051301041666667
EXTRACT: note_on channel=4 note=46 velocity=0 time=0.0057875729166666666
EXTRACT: note_on channel=9 note=54 velocity=0 time=0.014468932291666667
EXTRACT: note_on channel=0 note=31 velocity=0 time=0.07234466145833333
EXTRACT: note_on channel=5 note=31 velocity=0 time=0
EXTRACT: note_on channel=9 note=56 velocity=0 time=0.0028937864583333333
EXTRACT: note_on channel=9 note=39 velocity=80 time=0.0028937864583333333
EXTRACT: note_on channel=9 note=40 velocity=121 time=0
EXTRACT: note_on channel=9 note=42 velocity=114 time=0
EXTRACT: note_on channel=9 note=54 velocity=82 time=0
EXTRACT: note_on channel=0 note=30 velocity=114 time=0
EXTRACT: note_on channel=4 note=34 velocity=115 time=0
EXTRACT: note_on channel=4 note=46 velocity=121 time=0
EXTRACT: note_on channel=5 note=43 velocity=0 time=0
EXTRACT: note_on channel=5 note=30 velocity=108 time=0
EXTRACT: note_on channel=5 note=42 velocity=77 time=0
EXTRACT: note_on channel=1 note=31 velocity=0 time=0.015915825520833333
EXTRACT: note_on channel=1 note=30 velocity=114 time=0.0057875729166666666
EXTRACT: note_on channel=9 note=54 velocity=0 time=0.033278544270833335
EXTRACT: note_on channel=9 note=42 velocity=0 time=0.052088156249999996
EXTRACT: note_on channel=9 note=40 velocity=0 time=0.028937864583333334
EXTRACT: note_on channel=9 note=39 velocity=0 time=0
EXTRACT: note_on channel=9 note=54 velocity=45 time=0.0028937864583333333
EXTRACT: note_on channel=9 note=54 velocity=0 time=0.03761922395833333
EXTRACT: note_on channel=4 note=34 velocity=0 time=0.011575145833333333
EXTRACT: note_on channel=4 note=46 velocity=0 time=0.008681359375
EXTRACT: note_on channel=5 note=30 velocity=0 time=0.03761922395833333
EXTRACT: note_on channel=5 note=42 velocity=0 time=0.0028937864583333333
EXTRACT: note_on channel=9 note=42 velocity=90 time=0.04051301041666667
EXTRACT: note_on channel=9 note=54 velocity=75 time=0
EXTRACT: note_on channel=9 note=56 velocity=59 time=0
EXTRACT: note_on channel=9 note=80 velocity=127 time=0
EXTRACT: note_on channel=4 note=34 velocity=110 time=0
EXTRACT: note_on channel=4 note=46 velocity=110 time=0
EXTRACT: note_on channel=0 note=30 velocity=0 time=0.028937864583333334
EXTRACT: note_on channel=9 note=54 velocity=0 time=0.011575145833333333
EXTRACT: note_on channel=1 note=30 velocity=0 time=0.010128252604166667
EXTRACT: note_on channel=9 note=56 velocity=0 time=0.0217033984375
EXTRACT: note_on channel=9 note=42 velocity=0 time=0.0028937864583333333
EXTRACT: note_on channel=9 note=80 velocity=0 time=0.060769515625
EXTRACT: note_on channel=9 note=54 velocity=49 time=0.0028937864583333333
EXTRACT: note_on channel=9 note=56 velocity=23 time=0
EXTRACT: note_on channel=9 note=54 velocity=0 time=0.04051301041666667
EXTRACT: note_on channel=4 note=34 velocity=0 time=0.054981942708333335
EXTRACT: note_on channel=4 note=46 velocity=0 time=0.011575145833333333
EXTRACT: note_on channel=2 note=73 velocity=0 time=0.020256505208333334
EXTRACT: note_on channel=8 note=65 velocity=0 time=0
EXTRACT: note_on channel=8 note=70 velocity=0 time=0.0057875729166666666
EXTRACT: note_on channel=9 note=56 velocity=0 time=0.0028937864583333333
EXTRACT: note_on channel=2 note=77 velocity=0 time=0
EXTRACT: note_on channel=9 note=36 velocity=116 time=0.0028937864583333333
EXTRACT: note_on channel=9 note=42 velocity=122 time=0
EXTRACT: note_on channel=9 note=54 velocity=90 time=0
EXTRACT: note_on channel=9 note=57 velocity=60 time=0
EXTRACT: note_on channel=0 note=30 velocity=124 time=0
EXTRACT: note_on channel=2 note=82 velocity=0 time=0
EXTRACT: note_on channel=2 note=73 velocity=86 time=0
EXTRACT: note_on channel=2 note=78 velocity=89 time=0
EXTRACT: note_on channel=2 note=82 velocity=82 time=0
EXTRACT: note_on channel=3 note=58 velocity=119 time=0
EXTRACT: note_on channel=3 note=70 velocity=120 time=0
EXTRACT: note_on channel=5 note=30 velocity=124 time=0
EXTRACT: note_on channel=5 note=42 velocity=93 time=0
EXTRACT: note_on channel=8 note=73 velocity=0 time=0
EXTRACT: note_on channel=8 note=66 velocity=81 time=0
EXTRACT: note_on channel=8 note=70 velocity=84 time=0
EXTRACT: note_on channel=8 note=73 velocity=77 time=0
EXTRACT: note_on channel=1 note=30 velocity=124 time=0.0217033984375
EXTRACT: note_on channel=9 note=54 velocity=0 time=0.027490971354166668
EXTRACT: note_on channel=9 note=42 velocity=0 time=0.043406796875
EXTRACT: note_on channel=9 note=36 velocity=0 time=0.043406796875
EXTRACT: note_on channel=9 note=57 velocity=0 time=0
EXTRACT: note_on channel=9 note=54 velocity=42 time=0.0028937864583333333
EXTRACT: note_on channel=9 note=54 velocity=0 time=0.052088156249999996
EXTRACT: note_on channel=3 note=58 velocity=0 time=0.052088156249999996
EXTRACT: note_on channel=3 note=70 velocity=0 time=0.011575145833333333
EXTRACT: note_on channel=0 note=30 velocity=0 time=0.008681359375
EXTRACT: note_on channel=9 note=42 velocity=100 time=0.014468932291666667
EXTRACT: note_on channel=9 note=54 velocity=78 time=0
EXTRACT: note_on channel=9 note=56 velocity=59 time=0
EXTRACT: note_on channel=9 note=80 velocity=127 time=0
EXTRACT: note_on channel=1 note=30 velocity=0 time=0.007234466145833333
EXTRACT: note_on channel=9 note=54 velocity=0 time=0.027490971354166668
EXTRACT: note_on channel=5 note=30 velocity=0 time=0.014468932291666667
EXTRACT: note_on channel=5 note=42 velocity=0 time=0.0028937864583333333
EXTRACT: note_on channel=9 note=56 velocity=0 time=0.020256505208333334
EXTRACT: note_on channel=9 note=42 velocity=0 time=0.0028937864583333333
EXTRACT: note_on channel=9 note=80 velocity=0 time=0.060769515625
EXTRACT: note_on channel=9 note=54 velocity=54 time=0.0028937864583333333
EXTRACT: note_on channel=9 note=56 velocity=23 time=0
EXTRACT: note_on channel=9 note=54 velocity=0 time=0.07523844791666666
EXTRACT: note_on channel=9 note=56 velocity=0 time=0.060769515625
EXTRACT: note_on channel=9 note=39 velocity=80 time=0.0028937864583333333
EXTRACT: note_on channel=9 note=40 velocity=121 time=0
EXTRACT: note_on channel=9 note=42 velocity=114 time=0
EXTRACT: note_on channel=9 note=54 velocity=85 time=0
EXTRACT: note_on channel=0 note=30 velocity=119 time=0
EXTRACT: note_on channel=3 note=61 velocity=118 time=0
EXTRACT: note_on channel=3 note=73 velocity=116 time=0
EXTRACT: note_on channel=5 note=30 velocity=121 time=0
EXTRACT: note_on channel=5 note=42 velocity=90 time=0
EXTRACT: note_on channel=1 note=30 velocity=119 time=0.0217033984375
EXTRACT: note_on channel=9 note=54 velocity=0 time=0.0217033984375
EXTRACT: note_on channel=9 note=42 velocity=0 time=0.06366330208333333
EXTRACT: note_on channel=9 note=40 velocity=0 time=0.028937864583333334
EXTRACT: note_on channel=9 note=39 velocity=0 time=0
EXTRACT: note_on channel=9 note=54 velocity=49 time=0.0028937864583333333
EXTRACT: note_on channel=9 note=54 velocity=0 time=0.07234466145833333
EXTRACT: note_on channel=3 note=61 velocity=0 time=0.028937864583333334
EXTRACT: note_on channel=3 note=73 velocity=0 time=0.011575145833333333
EXTRACT: note_on channel=5 note=30 velocity=0 time=0
EXTRACT: note_on channel=5 note=42 velocity=0 time=0.0028937864583333333
EXTRACT: note_on channel=0 note=30 velocity=0 time=0.01736271875
EXTRACT: note_on channel=9 note=36 velocity=111 time=0.0057875729166666666
EXTRACT: note_on channel=9 note=42 velocity=90 time=0
EXTRACT: note_on channel=9 note=54 velocity=80 time=0
EXTRACT: note_on channel=9 note=56 velocity=59 time=0
EXTRACT: note_on channel=9 note=80 velocity=127 time=0
EXTRACT: note_on channel=0 note=32 velocity=122 time=0
EXTRACT: note_on channel=4 note=34 velocity=114 time=0
EXTRACT: note_on channel=4 note=46 velocity=121 time=0
EXTRACT: note_on channel=5 note=32 velocity=107 time=0
EXTRACT: note_on channel=5 note=44 velocity=76 time=0
EXTRACT: note_on channel=1 note=30 velocity=0 time=0.015915825520833333
EXTRACT: note_on channel=1 note=32 velocity=122 time=0.0057875729166666666
EXTRACT: note_on channel=9 note=54 velocity=0 time=0.0217033984375
EXTRACT: note_on channel=9 note=56 velocity=0 time=0.028937864583333334
EXTRACT: note_on channel=9 note=42 velocity=0 time=0.0028937864583333333
EXTRACT: note_on channel=9 note=36 velocity=0 time=0.020256505208333334
EXTRACT: note_on channel=9 note=80 velocity=0 time=0.04051301041666667
EXTRACT: note_on channel=9 note=54 velocity=52 time=0.0028937864583333333
EXTRACT: note_on channel=9 note=56 velocity=23 time=0
EXTRACT: note_on channel=4 note=34 velocity=0 time=0.014468932291666667
EXTRACT: note_on channel=4 note=46 velocity=0 time=0.031831651041666666
EXTRACT: note_on channel=9 note=54 velocity=0 time=0.0057875729166666666
EXTRACT: note_on channel=2 note=73 velocity=0 time=0.07523844791666666
EXTRACT: note_on channel=8 note=66 velocity=0 time=0
EXTRACT: note_on channel=0 note=32 velocity=0 time=0.0057875729166666666
EXTRACT: note_on channel=5 note=32 velocity=0 time=0
EXTRACT: note_on channel=8 note=70 velocity=0 time=0
EXTRACT: note_on channel=9 note=56 velocity=0 time=0.0028937864583333333
EXTRACT: note_on channel=2 note=78 velocity=0 time=0
EXTRACT: note_on channel=9 note=36 velocity=112 time=0.0028937864583333333
EXTRACT: note_on channel=9 note=42 velocity=122 time=0
EXTRACT: note_on channel=9 note=54 velocity=86 time=0
EXTRACT: note_on channel=9 note=57 velocity=79 time=0
EXTRACT: note_on channel=0 note=29 velocity=113 time=0
EXTRACT: note_on channel=2 note=82 velocity=0 time=0
EXTRACT: note_on channel=2 note=75 velocity=86 time=0
EXTRACT: note_on channel=2 note=80 velocity=83 time=0
EXTRACT: note_on channel=2 note=84 velocity=87 time=0
EXTRACT: note_on channel=3 note=63 velocity=114 time=0
EXTRACT: note_on channel=3 note=75 velocity=118 time=0
EXTRACT: note_on channel=5 note=44 velocity=0 time=0
EXTRACT: note_on channel=5 note=29 velocity=102 time=0
EXTRACT: note_on channel=5 note=41 velocity=71 time=0
EXTRACT: note_on channel=8 note=73 velocity=0 time=0
EXTRACT: note_on channel=8 note=68 velocity=82 time=0
EXTRACT: note_on channel=8 note=72 velocity=81 time=0
EXTRACT: note_on channel=8 note=75 velocity=78 time=0
EXTRACT: note_on channel=1 note=32 velocity=0 time=0.015915825520833333
EXTRACT: note_on channel=1 note=29 velocity=113 time=0.0057875729166666666
EXTRACT: note_on channel=9 note=54 velocity=0 time=0.03617233072916667
EXTRACT: note_on channel=9 note=42 velocity=0 time=0.0347254375
EXTRACT: note_on channel=9 note=36 velocity=0 time=0.043406796875
EXTRACT: note_on channel=9 note=57 velocity=0 time=0
EXTRACT: note_on channel=9 note=54 velocity=48 time=0.0028937864583333333
EXTRACT: note_on channel=9 note=54 velocity=0 time=0.03761922395833333
EXTRACT: note_on channel=5 note=41 velocity=0 time=0.08970738020833333
EXTRACT: note_on channel=5 note=29 velocity=0 time=0
EXTRACT: note_on channel=9 note=42 velocity=100 time=0.011575145833333333
EXTRACT: note_on channel=9 note=54 velocity=81 time=0
EXTRACT: note_on channel=9 note=56 velocity=59 time=0
EXTRACT: note_on channel=9 note=80 velocity=127 time=0
EXTRACT: note_on channel=3 note=75 velocity=0 time=0
EXTRACT: note_on channel=4 note=34 velocity=118 time=0
EXTRACT: note_on channel=4 note=46 velocity=122 time=0
EXTRACT: note_on channel=9 note=54 velocity=0 time=0.052088156249999996
EXTRACT: note_on channel=9 note=56 velocity=0 time=0.020256505208333334
EXTRACT: note_on channel=9 note=42 velocity=0 time=0.0028937864583333333
EXTRACT: note_on channel=0 note=29 velocity=0 time=0.028937864583333334
EXTRACT: note_on channel=1 note=29 velocity=0 time=0.0217033984375
EXTRACT: note_on channel=9 note=80 velocity=0 time=0.010128252604166667
EXTRACT: note_on channel=9 note=54 velocity=65 time=0.0028937864583333333
EXTRACT: note_on channel=9 note=56 velocity=23 time=0
EXTRACT: note_on channel=4 note=34 velocity=0 time=0.043406796875
EXTRACT: note_on channel=4 note=46 velocity=0 time=0.0057875729166666666
EXTRACT: note_on channel=9 note=54 velocity=0 time=0.011575145833333333
EXTRACT: note_on channel=3 note=63 velocity=0 time=0.069450875
EXTRACT: note_on channel=9 note=56 velocity=0 time=0.0057875729166666666
EXTRACT: note_on channel=9 note=39 velocity=80 time=0.0028937864583333333
EXTRACT: note_on channel=9 note=40 velocity=121 time=0
EXTRACT: note_on channel=9 note=42 velocity=114 time=0
EXTRACT: note_on channel=9 note=54 velocity=82 time=0
EXTRACT: note_on channel=3 note=70 velocity=106 time=0
EXTRACT: note_on channel=3 note=82 velocity=117 time=0
EXTRACT: note_on channel=4 note=34 velocity=115 time=0
EXTRACT: note_on channel=4 note=46 velocity=121 time=0
EXTRACT: note_on channel=9 note=54 velocity=0 time=0.054981942708333335
EXTRACT: note_on channel=9 note=42 velocity=0 time=0.052088156249999996
EXTRACT: note_on channel=9 note=40 velocity=0 time=0.028937864583333334
EXTRACT: note_on channel=9 note=39 velocity=0 time=0
EXTRACT: note_on channel=9 note=54 velocity=45 time=0.0028937864583333333
EXTRACT: note_on channel=9 note=54 velocity=0 time=0.03761922395833333
EXTRACT: note_on channel=4 note=34 velocity=0 time=0.011575145833333333
EXTRACT: note_on channel=3 note=82 velocity=0 time=0.008681359375
EXTRACT: note_on channel=4 note=46 velocity=0 time=0.0028937864583333333
EXTRACT: note_on channel=9 note=42 velocity=90 time=0.078132234375
EXTRACT: note_on channel=9 note=54 velocity=75 time=0
EXTRACT: note_on channel=9 note=56 velocity=59 time=0
EXTRACT: note_on channel=9 note=80 velocity=127 time=0
EXTRACT: note_on channel=3 note=82 velocity=114 time=0
EXTRACT: note_on channel=4 note=34 velocity=110 time=0
EXTRACT: note_on channel=4 note=46 velocity=110 time=0
EXTRACT: note_on channel=9 note=54 velocity=0 time=0.04051301041666667
EXTRACT: note_on channel=9 note=56 velocity=0 time=0.028937864583333334
EXTRACT: note_on channel=9 note=42 velocity=0 time=0.0057875729166666666
EXTRACT: note_on channel=3 note=70 velocity=0 time=0.05787572916666667
EXTRACT: note_on channel=9 note=80 velocity=0 time=0.0028937864583333333
EXTRACT: note_on channel=9 note=54 velocity=49 time=0.0028937864583333333
EXTRACT: note_on channel=9 note=56 velocity=23 time=0
EXTRACT: note_on channel=9 note=54 velocity=0 time=0.04051301041666667
EXTRACT: note_on channel=4 note=34 velocity=0 time=0.054981942708333335
EXTRACT: note_on channel=4 note=46 velocity=0 time=0.011575145833333333
EXTRACT: note_on channel=8 note=68 velocity=0 time=0.01736271875
EXTRACT: note_on channel=2 note=75 velocity=0 time=0.0028937864583333333
EXTRACT: note_on channel=2 note=80 velocity=0 time=0.0057875729166666666
EXTRACT: note_on channel=8 note=72 velocity=0 time=0
EXTRACT: note_on channel=9 note=56 velocity=0 time=0.0028937864583333333
EXTRACT: note_on channel=2 note=84 velocity=0 time=0
EXTRACT: note_on channel=8 note=75 velocity=0 time=0
EXTRACT: note_on channel=9 note=36 velocity=114 time=0.0028937864583333333
EXTRACT: note_on channel=9 note=42 velocity=122 time=0
EXTRACT: note_on channel=9 note=49 velocity=83 time=0
EXTRACT: note_on channel=9 note=54 velocity=90 time=0
EXTRACT: note_on channel=0 note=34 velocity=126 time=0
EXTRACT: note_on channel=2 note=73 velocity=88 time=0
EXTRACT: note_on channel=2 note=77 velocity=85 time=0
EXTRACT: note_on channel=2 note=82 velocity=84 time=0
EXTRACT: note_on channel=5 note=34 velocity=123 time=0
EXTRACT: note_on channel=5 note=46 velocity=92 time=0
EXTRACT: note_on channel=8 note=65 velocity=88 time=0
EXTRACT: note_on channel=8 note=70 velocity=85 time=0
EXTRACT: note_on channel=8 note=73 velocity=84 time=0
EXTRACT: note_on channel=1 note=34 velocity=126 time=0.0217033984375
EXTRACT: note_on channel=3 note=82 velocity=0 time=0.015915825520833333
EXTRACT: note_on channel=9 note=54 velocity=0 time=0.011575145833333333
EXTRACT: note_on channel=9 note=42 velocity=0 time=0.043406796875
EXTRACT: note_on channel=9 note=49 velocity=0 time=0.043406796875
EXTRACT: note_on channel=9 note=36 velocity=0 time=0
EXTRACT: note_on channel=9 note=54 velocity=42 time=0.0028937864583333333
EXTRACT: note_on channel=9 note=54 velocity=0 time=0.052088156249999996
EXTRACT: note_on channel=9 note=42 velocity=100 time=0.08681359375
EXTRACT: note_on channel=9 note=54 velocity=78 time=0
EXTRACT: note_on channel=9 note=56 velocity=59 time=0
EXTRACT: note_on channel=9 note=80 velocity=127 time=0
EXTRACT: note_on channel=9 note=54 velocity=0 time=0.0347254375
EXTRACT: note_on channel=0 note=34 velocity=0 time=0.0057875729166666666
EXTRACT: note_on channel=1 note=34 velocity=0 time=0.0217033984375
EXTRACT: note_on channel=5 note=34 velocity=0 time=0.007234466145833333
EXTRACT: note_on channel=9 note=56 velocity=0 time=0.0028937864583333333
EXTRACT: note_on channel=5 note=46 velocity=0 time=0
EXTRACT: note_on channel=9 note=42 velocity=0 time=0.0028937864583333333
EXTRACT: note_on channel=9 note=80 velocity=0 time=0.060769515625
EXTRACT: note_on channel=9 note=54 velocity=54 time=0.0028937864583333333
EXTRACT: note_on channel=9 note=56 velocity=23 time=0
EXTRACT: note_on channel=9 note=54 velocity=0 time=0.07523844791666666
EXTRACT: note_on channel=9 note=56 velocity=0 time=0.060769515625
EXTRACT: note_on channel=9 note=39 velocity=80 time=0.0028937864583333333
EXTRACT: note_on channel=9 note=40 velocity=121 time=0
EXTRACT: note_on channel=9 note=42 velocity=114 time=0
EXTRACT: note_on channel=9 note=54 velocity=85 time=0
EXTRACT: note_on channel=0 note=34 velocity=123 time=0
EXTRACT: note_on channel=5 note=34 velocity=124 time=0
EXTRACT: note_on channel=5 note=46 velocity=93 time=0
EXTRACT: note_on channel=1 note=34 velocity=123 time=0.0217033984375
EXTRACT: note_on channel=9 note=54 velocity=0 time=0.0217033984375
EXTRACT: note_on channel=9 note=42 velocity=0 time=0.06366330208333333
EXTRACT: note_on channel=9 note=40 velocity=0 time=0.028937864583333334
EXTRACT: note_on channel=9 note=39 velocity=0 time=0
EXTRACT: note_on channel=9 note=54 velocity=49 time=0.0028937864583333333
EXTRACT: note_on channel=9 note=54 velocity=0 time=0.07234466145833333
EXTRACT: note_on channel=0 note=34 velocity=0 time=0.060769515625
EXTRACT: note_on channel=5 note=34 velocity=0 time=0
EXTRACT: note_on channel=9 note=36 velocity=109 time=0.0057875729166666666
EXTRACT: note_on channel=9 note=42 velocity=90 time=0
EXTRACT: note_on channel=9 note=54 velocity=80 time=0
EXTRACT: note_on channel=9 note=56 velocity=59 time=0
EXTRACT: note_on channel=9 note=80 velocity=127 time=0
EXTRACT: note_on channel=0 note=33 velocity=115 time=0
EXTRACT: note_on channel=4 note=34 velocity=114 time=0
EXTRACT: note_on channel=4 note=46 velocity=121 time=0
EXTRACT: note_on channel=5 note=46 velocity=0 time=0
EXTRACT: note_on channel=5 note=33 velocity=105 time=0
EXTRACT: note_on channel=5 note=45 velocity=74 time=0
EXTRACT: note_on channel=1 note=34 velocity=0 time=0.015915825520833333
EXTRACT: note_on channel=1 note=33 velocity=115 time=0.0057875729166666666
EXTRACT: note_on channel=9 note=54 velocity=0 time=0.0217033984375
EXTRACT: note_on channel=9 note=56 velocity=0 time=0.026044078124999998
EXTRACT: note_on channel=9 note=42 velocity=0 time=0.0057875729166666666
EXTRACT: note_on channel=9 note=36 velocity=0 time=0.031831651041666666
EXTRACT: note_on channel=9 note=80 velocity=0 time=0.028937864583333334
EXTRACT: note_on channel=9 note=54 velocity=52 time=0.0028937864583333333
EXTRACT: note_on channel=9 note=56 velocity=23 time=0
EXTRACT: note_on channel=4 note=34 velocity=0 time=0.011575145833333333
EXTRACT: note_on channel=4 note=46 velocity=0 time=0.0347254375
EXTRACT: note_on channel=9 note=54 velocity=0 time=0.0057875729166666666
EXTRACT: note_on channel=0 note=33 velocity=0 time=0.08102602083333334
EXTRACT: note_on channel=5 note=33 velocity=0 time=0
EXTRACT: note_on channel=9 note=56 velocity=0 time=0.0028937864583333333
EXTRACT: note_on channel=9 note=36 velocity=109 time=0.0028937864583333333
EXTRACT: note_on channel=9 note=42 velocity=122 time=0
EXTRACT: note_on channel=9 note=54 velocity=86 time=0
EXTRACT: note_on channel=0 note=32 velocity=113 time=0
EXTRACT: note_on channel=5 note=45 velocity=0 time=0
EXTRACT: note_on channel=5 note=32 velocity=115 time=0
EXTRACT: note_on channel=5 note=44 velocity=84 time=0
EXTRACT: note_on channel=1 note=33 velocity=0 time=0.015915825520833333
EXTRACT: note_on channel=1 note=32 velocity=113 time=0.0057875729166666666
EXTRACT: note_on channel=9 note=54 velocity=0 time=0.033278544270833335
EXTRACT: note_on channel=9 note=42 velocity=0 time=0.03761922395833333
EXTRACT: note_on channel=9 note=36 velocity=0 time=0.008681359375
EXTRACT: note_on channel=9 note=54 velocity=48 time=0.03761922395833333
EXTRACT: note_on channel=9 note=54 velocity=0 time=0.03761922395833333
EXTRACT: note_on channel=0 note=32 velocity=0 time=0.095494953125
EXTRACT: note_on channel=5 note=32 velocity=0 time=0
EXTRACT: note_on channel=9 note=36 velocity=113 time=0.0057875729166666666
EXTRACT: note_on channel=9 note=42 velocity=100 time=0
EXTRACT: note_on channel=9 note=54 velocity=81 time=0
EXTRACT: note_on channel=9 note=56 velocity=59 time=0
EXTRACT: note_on channel=9 note=80 velocity=127 time=0
EXTRACT: note_on channel=0 note=31 velocity=119 time=0
EXTRACT: note_on channel=4 note=34 velocity=118 time=0
EXTRACT: note_on channel=4 note=46 velocity=122 time=0
EXTRACT: note_on channel=5 note=44 velocity=0 time=0
EXTRACT: note_on channel=5 note=31 velocity=110 time=0
EXTRACT: note_on channel=5 note=43 velocity=79 time=0
EXTRACT: note_on channel=1 note=32 velocity=0 time=0.015915825520833333
EXTRACT: note_on channel=1 note=31 velocity=119 time=0.0057875729166666666
EXTRACT: note_on channel=9 note=54 velocity=0 time=0.0303847578125
EXTRACT: note_on channel=9 note=56 velocity=0 time=0.01736271875
EXTRACT: note_on channel=9 note=42 velocity=0 time=0.0057875729166666666
EXTRACT: note_on channel=9 note=36 velocity=0 time=0.060769515625
EXTRACT: note_on channel=9 note=80 velocity=0 time=0
EXTRACT: note_on channel=9 note=54 velocity=65 time=0.0028937864583333333
EXTRACT: note_on channel=9 note=56 velocity=23 time=0
EXTRACT: note_on channel=4 note=34 velocity=0 time=0.04051301041666667
EXTRACT: note_on channel=4 note=46 velocity=0 time=0.0057875729166666666
EXTRACT: note_on channel=9 note=54 velocity=0 time=0.014468932291666667
EXTRACT: note_on channel=0 note=31 velocity=0 time=0.07234466145833333
EXTRACT: note_on channel=5 note=31 velocity=0 time=0
EXTRACT: note_on channel=9 note=56 velocity=0 time=0.0028937864583333333
EXTRACT: note_on channel=9 note=39 velocity=80 time=0.0028937864583333333
EXTRACT: note_on channel=9 note=40 velocity=121 time=0
EXTRACT: note_on channel=9 note=42 velocity=114 time=0
EXTRACT: note_on channel=9 note=54 velocity=82 time=0
EXTRACT: note_on channel=0 note=30 velocity=114 time=0
EXTRACT: note_on channel=4 note=34 velocity=115 time=0
EXTRACT: note_on channel=4 note=46 velocity=121 time=0
EXTRACT: note_on channel=5 note=43 velocity=0 time=0
EXTRACT: note_on channel=5 note=30 velocity=108 time=0
EXTRACT: note_on channel=5 note=42 velocity=77 time=0
EXTRACT: note_on channel=1 note=31 velocity=0 time=0.015915825520833333
EXTRACT: note_on channel=1 note=30 velocity=114 time=0.0057875729166666666
EXTRACT: note_on channel=9 note=54 velocity=0 time=0.0303847578125
EXTRACT: note_on channel=9 note=42 velocity=0 time=0.054981942708333335
EXTRACT: note_on channel=9 note=40 velocity=0 time=0.028937864583333334
EXTRACT: note_on channel=9 note=39 velocity=0 time=0
EXTRACT: note_on channel=9 note=54 velocity=45 time=0.0028937864583333333
EXTRACT: note_on channel=9 note=54 velocity=0 time=0.03761922395833333
EXTRACT: note_on channel=4 note=34 velocity=0 time=0.008681359375
EXTRACT: note_on channel=4 note=46 velocity=0 time=0.011575145833333333
EXTRACT: note_on channel=5 note=30 velocity=0 time=0.03761922395833333
EXTRACT: note_on channel=5 note=42 velocity=0 time=0.0028937864583333333
EXTRACT: note_on channel=9 note=42 velocity=90 time=0.04051301041666667
EXTRACT: note_on channel=9 note=54 velocity=75 time=0
EXTRACT: note_on channel=9 note=56 velocity=59 time=0
EXTRACT: note_on channel=9 note=80 velocity=127 time=0
EXTRACT: note_on channel=4 note=34 velocity=110 time=0
EXTRACT: note_on channel=4 note=46 velocity=110 time=0
EXTRACT: note_on channel=0 note=30 velocity=0 time=0.028937864583333334
EXTRACT: note_on channel=9 note=54 velocity=0 time=0.011575145833333333
EXTRACT: note_on channel=1 note=30 velocity=0 time=0.010128252604166667
EXTRACT: note_on channel=9 note=56 velocity=0 time=0.0217033984375
EXTRACT: note_on channel=9 note=42 velocity=0 time=0.0028937864583333333
EXTRACT: note_on channel=9 note=80 velocity=0 time=0.060769515625
EXTRACT: note_on channel=9 note=54 velocity=49 time=0.0028937864583333333
EXTRACT: note_on channel=9 note=56 velocity=23 time=0
EXTRACT: note_on channel=9 note=54 velocity=0 time=0.04051301041666667
EXTRACT: note_on channel=4 note=34 velocity=0 time=0.05787572916666667
EXTRACT: note_on channel=4 note=46 velocity=0 time=0.008681359375
EXTRACT: note_on channel=8 note=65 velocity=0 time=0.01736271875
EXTRACT: note_on channel=2 note=73 velocity=0 time=0.0028937864583333333
EXTRACT: note_on channel=8 note=70 velocity=0 time=0.0057875729166666666
EXTRACT: note_on channel=9 note=56 velocity=0 time=0.0028937864583333333
EXTRACT: note_on channel=2 note=77 velocity=0 time=0
EXTRACT: note_on channel=9 note=36 velocity=116 time=0.0028937864583333333
EXTRACT: note_on channel=9 note=42 velocity=122 time=0
EXTRACT: note_on channel=9 note=54 velocity=90 time=0
EXTRACT: note_on channel=9 note=57 velocity=60 time=0
EXTRACT: note_on channel=0 note=30 velocity=124 time=0
EXTRACT: note_on channel=2 note=82 velocity=0 time=0
EXTRACT: note_on channel=2 note=73 velocity=86 time=0
EXTRACT: note_on channel=2 note=78 velocity=89 time=0
EXTRACT: note_on channel=2 note=82 velocity=82 time=0
EXTRACT: note_on channel=5 note=30 velocity=124 time=0
EXTRACT: note_on channel=5 note=42 velocity=93 time=0
EXTRACT: note_on channel=6 note=58 velocity=127 time=0
EXTRACT: note_on channel=6 note=65 velocity=127 time=0
EXTRACT: note_on channel=6 note=70 velocity=127 time=0
EXTRACT: note_on channel=8 note=73 velocity=0 time=0
EXTRACT: note_on channel=8 note=66 velocity=81 time=0
EXTRACT: note_on channel=8 note=70 velocity=84 time=0
EXTRACT: note_on channel=8 note=73 velocity=77 time=0
EXTRACT: note_on channel=1 note=30 velocity=124 time=0.0217033984375
EXTRACT: note_on channel=9 note=54 velocity=0 time=0.027490971354166668
EXTRACT: note_on channel=9 note=42 velocity=0 time=0.043406796875
EXTRACT: note_on channel=9 note=36 velocity=0 time=0.043406796875
EXTRACT: note_on channel=9 note=57 velocity=0 time=0
EXTRACT: note_on channel=9 note=54 velocity=42 time=0.0028937864583333333
EXTRACT: note_on channel=9 note=54 velocity=0 time=0.052088156249999996
EXTRACT: note_on channel=0 note=30 velocity=0 time=0.07234466145833333
EXTRACT: note_on channel=9 note=42 velocity=100 time=0.014468932291666667
EXTRACT: note_on channel=9 note=54 velocity=78 time=0
EXTRACT: note_on channel=9 note=56 velocity=59 time=0
EXTRACT: note_on channel=9 note=80 velocity=127 time=0
EXTRACT: note_on channel=1 note=30 velocity=0 time=0.007234466145833333
EXTRACT: note_on channel=9 note=54 velocity=0 time=0.027490971354166668
EXTRACT: note_on channel=5 note=30 velocity=0 time=0.014468932291666667
EXTRACT: note_on channel=5 note=42 velocity=0 time=0.0028937864583333333
EXTRACT: note_on channel=9 note=56 velocity=0 time=0.020256505208333334
EXTRACT: note_on channel=9 note=42 velocity=0 time=0.0028937864583333333
EXTRACT: note_on channel=9 note=80 velocity=0 time=0.060769515625
EXTRACT: note_on channel=9 note=54 velocity=54 time=0.0028937864583333333
EXTRACT: note_on channel=9 note=56 velocity=23 time=0
EXTRACT: note_on channel=9 note=54 velocity=0 time=0.07523844791666666
EXTRACT: note_on channel=9 note=56 velocity=0 time=0.060769515625
EXTRACT: note_on channel=9 note=39 velocity=80 time=0.0028937864583333333
EXTRACT: note_on channel=9 note=40 velocity=121 time=0
EXTRACT: note_on channel=9 note=42 velocity=114 time=0
EXTRACT: note_on channel=9 note=54 velocity=85 time=0
EXTRACT: note_on channel=0 note=30 velocity=119 time=0
EXTRACT: note_on channel=5 note=30 velocity=121 time=0
EXTRACT: note_on channel=5 note=42 velocity=90 time=0
EXTRACT: note_on channel=1 note=30 velocity=119 time=0.0217033984375
EXTRACT: note_on channel=9 note=54 velocity=0 time=0.0217033984375
EXTRACT: note_on channel=9 note=42 velocity=0 time=0.06366330208333333
EXTRACT: note_on channel=9 note=40 velocity=0 time=0.028937864583333334
EXTRACT: note_on channel=9 note=39 velocity=0 time=0
EXTRACT: note_on channel=9 note=54 velocity=49 time=0.0028937864583333333
EXTRACT: note_on channel=9 note=54 velocity=0 time=0.07234466145833333
EXTRACT: note_on channel=5 note=30 velocity=0 time=0.04051301041666667
EXTRACT: note_on channel=5 note=42 velocity=0 time=0.0028937864583333333
EXTRACT: note_on channel=0 note=30 velocity=0 time=0.01736271875
EXTRACT: note_on channel=9 note=36 velocity=111 time=0.0057875729166666666
EXTRACT: note_on channel=9 note=42 velocity=90 time=0
EXTRACT: note_on channel=9 note=54 velocity=80 time=0
EXTRACT: note_on channel=9 note=56 velocity=59 time=0
EXTRACT: note_on channel=9 note=80 velocity=127 time=0
EXTRACT: note_on channel=0 note=32 velocity=122 time=0
EXTRACT: note_on channel=4 note=34 velocity=114 time=0
EXTRACT: note_on channel=4 note=46 velocity=121 time=0
EXTRACT: note_on channel=5 note=32 velocity=107 time=0
EXTRACT: note_on channel=5 note=44 velocity=76 time=0
EXTRACT: note_on channel=1 note=30 velocity=0 time=0.015915825520833333
EXTRACT: note_on channel=1 note=32 velocity=122 time=0.0057875729166666666
EXTRACT: note_on channel=9 note=54 velocity=0 time=0.0217033984375
EXTRACT: note_on channel=9 note=56 velocity=0 time=0.026044078124999998
EXTRACT: note_on channel=9 note=42 velocity=0 time=0.0057875729166666666
EXTRACT: note_on channel=9 note=36 velocity=0 time=0.020256505208333334
EXTRACT: note_on channel=9 note=80 velocity=0 time=0.04051301041666667
EXTRACT: note_on channel=9 note=54 velocity=52 time=0.0028937864583333333
EXTRACT: note_on channel=9 note=56 velocity=23 time=0
EXTRACT: note_on channel=4 note=34 velocity=0 time=0.011575145833333333
EXTRACT: note_on channel=4 note=46 velocity=0 time=0.0347254375
EXTRACT: note_on channel=9 note=54 velocity=0 time=0.0057875729166666666
EXTRACT: note_on channel=2 note=73 velocity=0 time=0.07523844791666666
EXTRACT: note_on channel=8 note=66 velocity=0 time=0
EXTRACT: note_on channel=0 note=32 velocity=0 time=0.0057875729166666666
EXTRACT: note_on channel=5 note=32 velocity=0 time=0
EXTRACT: note_on channel=8 note=70 velocity=0 time=0
EXTRACT: note_on channel=9 note=56 velocity=0 time=0.0028937864583333333
EXTRACT: note_on channel=2 note=78 velocity=0 time=0
EXTRACT: note_on channel=9 note=36 velocity=112 time=0.0028937864583333333
EXTRACT: note_on channel=9 note=42 velocity=122 time=0
EXTRACT: note_on channel=9 note=54 velocity=86 time=0
EXTRACT: note_on channel=9 note=57 velocity=79 time=0
EXTRACT: note_on channel=0 note=29 velocity=113 time=0
EXTRACT: note_on channel=2 note=82 velocity=0 time=0
EXTRACT: note_on channel=2 note=72 velocity=87 time=0
EXTRACT: note_on channel=2 note=77 velocity=86 time=0
EXTRACT: note_on channel=2 note=81 velocity=83 time=0
EXTRACT: note_on channel=5 note=44 velocity=0 time=0
EXTRACT: note_on channel=5 note=29 velocity=102 time=0
EXTRACT: note_on channel=5 note=41 velocity=71 time=0
EXTRACT: note_on channel=8 note=73 velocity=0 time=0
EXTRACT: note_on channel=8 note=65 velocity=82 time=0
EXTRACT: note_on channel=8 note=69 velocity=81 time=0
EXTRACT: note_on channel=8 note=72 velocity=78 time=0
EXTRACT: note_on channel=1 note=32 velocity=0 time=0.015915825520833333
EXTRACT: note_on channel=1 note=29 velocity=113 time=0.0057875729166666666
EXTRACT: note_on channel=9 note=54 velocity=0 time=0.03617233072916667
EXTRACT: note_on channel=9 note=42 velocity=0 time=0.0347254375
EXTRACT: note_on channel=9 note=36 velocity=0 time=0.043406796875
EXTRACT: note_on channel=9 note=57 velocity=0 time=0
EXTRACT: note_on channel=9 note=54 velocity=48 time=0.0028937864583333333
EXTRACT: note_on channel=10 note=65 velocity=118 time=0
EXTRACT: note_on channel=9 note=54 velocity=0 time=0.03761922395833333
EXTRACT: note_on channel=5 note=41 velocity=0 time=0.08970738020833333
EXTRACT: note_on channel=5 note=29 velocity=0 time=0
EXTRACT: note_on channel=9 note=42 velocity=100 time=0.011575145833333333
EXTRACT: note_on channel=9 note=54 velocity=81 time=0
EXTRACT: note_on channel=9 note=56 velocity=59 time=0
EXTRACT: note_on channel=9 note=80 velocity=127 time=0
EXTRACT: note_on channel=4 note=34 velocity=118 time=0
EXTRACT: note_on channel=4 note=46 velocity=122 time=0
EXTRACT: note_on channel=9 note=54 velocity=0 time=0.052088156249999996
EXTRACT: note_on channel=9 note=56 velocity=0 time=0.01736271875
EXTRACT: note_on channel=9 note=42 velocity=0 time=0.0057875729166666666
EXTRACT: note_on channel=0 note=29 velocity=0 time=0.028937864583333334
EXTRACT: note_on channel=1 note=29 velocity=0 time=0.0217033984375
EXTRACT: note_on channel=9 note=80 velocity=0 time=0.010128252604166667
EXTRACT: note_on channel=9 note=54 velocity=65 time=0.0028937864583333333
EXTRACT: note_on channel=9 note=56 velocity=23 time=0
EXTRACT: note_on channel=4 note=34 velocity=0 time=0.043406796875
EXTRACT: note_on channel=4 note=46 velocity=0 time=0.0057875729166666666
EXTRACT: note_on channel=9 note=54 velocity=0 time=0.011575145833333333
EXTRACT: note_on channel=9 note=56 velocity=0 time=0.07523844791666666
EXTRACT: note_on channel=9 note=39 velocity=80 time=0.0028937864583333333
EXTRACT: note_on channel=9 note=40 velocity=121 time=0
EXTRACT: note_on channel=9 note=42 velocity=114 time=0
EXTRACT: note_on channel=9 note=54 velocity=82 time=0
EXTRACT: note_on channel=3 note=70 velocity=118 time=0
EXTRACT: note_on channel=3 note=82 velocity=118 time=0
EXTRACT: note_on channel=4 note=34 velocity=115 time=0
EXTRACT: note_on channel=4 note=46 velocity=121 time=0
EXTRACT: note_on channel=9 note=54 velocity=0 time=0.054981942708333335
EXTRACT: note_on channel=9 note=42 velocity=0 time=0.052088156249999996
EXTRACT: note_on channel=9 note=40 velocity=0 time=0.028937864583333334
EXTRACT: note_on channel=9 note=39 velocity=0 time=0
EXTRACT: note_on channel=9 note=54 velocity=45 time=0.0028937864583333333
EXTRACT: note_on channel=9 note=54 velocity=0 time=0.03761922395833333
EXTRACT: note_on channel=4 note=34 velocity=0 time=0.014468932291666667
EXTRACT: note_on channel=4 note=46 velocity=0 time=0.008681359375
EXTRACT: note_on channel=3 note=82 velocity=0 time=0.01736271875
EXTRACT: note_on channel=3 note=70 velocity=0 time=0.0057875729166666666
EXTRACT: note_on channel=9 note=42 velocity=90 time=0.054981942708333335
EXTRACT: note_on channel=9 note=54 velocity=75 time=0
EXTRACT: note_on channel=9 note=56 velocity=59 time=0
EXTRACT: note_on channel=9 note=80 velocity=127 time=0
EXTRACT: note_on channel=3 note=70 velocity=110 time=0
EXTRACT: note_on channel=3 note=82 velocity=112 time=0
EXTRACT: note_on channel=4 note=34 velocity=110 time=0
EXTRACT: note_on channel=4 note=46 velocity=110 time=0
EXTRACT: note_on channel=9 note=54 velocity=0 time=0.04051301041666667
EXTRACT: note_on channel=9 note=56 velocity=0 time=0.031831651041666666
EXTRACT: note_on channel=9 note=42 velocity=0 time=0.0028937864583333333
EXTRACT: note_on channel=9 note=80 velocity=0 time=0.060769515625
EXTRACT: note_on channel=9 note=54 velocity=49 time=0.0028937864583333333
EXTRACT: note_on channel=9 note=56 velocity=23 time=0
EXTRACT: note_on channel=9 note=54 velocity=0 time=0.04051301041666667
EXTRACT: note_on channel=4 note=34 velocity=0 time=0.054981942708333335
EXTRACT: note_on channel=8 note=65 velocity=0 time=0.008681359375
EXTRACT: note_on channel=4 note=46 velocity=0 time=0.0028937864583333333
EXTRACT: note_on channel=8 note=69 velocity=0 time=0
EXTRACT: note_on channel=6 note=58 velocity=0 time=0.0028937864583333333
EXTRACT: note_on channel=3 note=70 velocity=0 time=0.0028937864583333333
EXTRACT: note_on channel=6 note=65 velocity=0 time=0
EXTRACT: note_on channel=8 note=72 velocity=0 time=0
EXTRACT: note_on channel=3 note=82 velocity=0 time=0.0028937864583333333
EXTRACT: note_on channel=6 note=70 velocity=0 time=0.0028937864583333333
EXTRACT: note_on channel=2 note=72 velocity=0 time=0.008681359375
EXTRACT: note_on channel=2 note=81 velocity=0 time=0.0028937864583333333
EXTRACT: note_on channel=2 note=77 velocity=0 time=0
EXTRACT: note_on channel=9 note=56 velocity=0 time=0.0057875729166666666
EXTRACT: note_on channel=10 note=65 velocity=0 time=0
EXTRACT: note_on channel=9 note=30 velocity=42 time=0.0028937864583333333
EXTRACT: note_on channel=9 note=36 velocity=114 time=0
EXTRACT: note_on channel=9 note=42 velocity=122 time=0
EXTRACT: note_on channel=9 note=49 velocity=83 time=0
EXTRACT: note_on channel=9 note=54 velocity=90 time=0
EXTRACT: note_on channel=0 note=34 velocity=127 time=0
EXTRACT: note_on channel=2 note=73 velocity=109 time=0
EXTRACT: note_on channel=2 note=77 velocity=106 time=0
EXTRACT: note_on channel=2 note=82 velocity=105 time=0
EXTRACT: note_on channel=5 note=70 velocity=72 time=0
EXTRACT: note_on channel=8 note=65 velocity=88 time=0
EXTRACT: note_on channel=8 note=70 velocity=85 time=0
EXTRACT: note_on channel=8 note=73 velocity=84 time=0
EXTRACT: note_on channel=5 note=70 velocity=0 time=0.008681359375
EXTRACT: control_change channel=0 control=65 value=127 time=0.0028937864583333333
EXTRACT: note_on channel=2 note=73 velocity=0 time=0
EXTRACT: control_change channel=2 control=65 value=127 time=0
EXTRACT: control_change channel=5 control=65 value=127 time=0
EXTRACT: control_change channel=8 control=65 value=127 time=0
EXTRACT: control_change channel=0 control=5 value=107 time=0.0028937864583333333
EXTRACT: note_on channel=2 note=77 velocity=0 time=0
EXTRACT: control_change channel=2 control=5 value=101 time=0
EXTRACT: control_change channel=5 control=5 value=101 time=0
EXTRACT: note_on channel=8 note=65 velocity=0 time=0
EXTRACT: control_change channel=8 control=5 value=96 time=0
EXTRACT: note_on channel=0 note=34 velocity=0 time=0.0028937864583333333
EXTRACT: note_on channel=2 note=82 velocity=0 time=0
EXTRACT: note_on channel=8 note=70 velocity=0 time=0
EXTRACT: note_on channel=8 note=73 velocity=0 time=0.0028937864583333333
EXTRACT: note_on channel=1 note=34 velocity=127 time=0.0014468932291666666
EXTRACT: control_change channel=1 control=65 value=127 time=0.011575145833333333
EXTRACT: note_on channel=0 note=10 velocity=127 time=0.0014468932291666666
EXTRACT: note_on channel=2 note=13 velocity=109 time=0
EXTRACT: note_on channel=2 note=17 velocity=106 time=0
EXTRACT: note_on channel=2 note=22 velocity=105 time=0
EXTRACT: note_on channel=5 note=22 velocity=72 time=0
EXTRACT: note_on channel=8 note=17 velocity=88 time=0
EXTRACT: note_on channel=8 note=22 velocity=85 time=0
EXTRACT: note_on channel=8 note=25 velocity=84 time=0
EXTRACT: control_change channel=1 control=5 value=107 time=0.0014468932291666666
EXTRACT: note_on channel=1 note=34 velocity=0 time=0.0028937864583333333
EXTRACT: note_on channel=9 note=54 velocity=0 time=0.010128252604166667
EXTRACT: note_on channel=1 note=10 velocity=127 time=0.007234466145833333
EXTRACT: note_on channel=9 note=42 velocity=0 time=0.033278544270833335
EXTRACT: note_on channel=9 note=30 velocity=0 time=0.04630058333333333
EXTRACT: note_on channel=9 note=36 velocity=0 time=0
EXTRACT: note_on channel=9 note=49 velocity=0 time=0
EXTRACT: note_on channel=9 note=54 velocity=42 time=0.0028937864583333333
EXTRACT: note_on channel=9 note=54 velocity=0 time=0.052088156249999996
EXTRACT: note_on channel=9 note=30 velocity=42 time=0.08681359375
EXTRACT: note_on channel=9 note=42 velocity=100 time=0
EXTRACT: note_on channel=9 note=54 velocity=78 time=0
EXTRACT: note_on channel=9 note=56 velocity=19 time=0
EXTRACT: note_on channel=9 note=80 velocity=127 time=0
EXTRACT: note_on channel=9 note=54 velocity=0 time=0.0347254375
EXTRACT: note_on channel=9 note=56 velocity=0 time=0.03761922395833333
EXTRACT: note_on channel=9 note=42 velocity=0 time=0.0028937864583333333
EXTRACT: note_on channel=9 note=30 velocity=0 time=0.060769515625
EXTRACT: note_on channel=9 note=80 velocity=0 time=0
EXTRACT: note_on channel=9 note=54 velocity=54 time=0.0028937864583333333
EXTRACT: note_on channel=9 note=56 velocity=10 time=0
EXTRACT: note_on channel=9 note=54 velocity=0 time=0.07523844791666666
EXTRACT: note_on channel=9 note=56 velocity=0 time=0.060769515625
EXTRACT: note_on channel=9 note=29 velocity=39 time=0.0028937864583333333
EXTRACT: note_on channel=9 note=39 velocity=80 time=0
EXTRACT: note_on channel=9 note=40 velocity=121 time=0
EXTRACT: note_on channel=9 note=42 velocity=114 time=0
EXTRACT: note_on channel=9 note=54 velocity=85 time=0
EXTRACT: note_on channel=9 note=54 velocity=0 time=0.043406796875
EXTRACT: note_on channel=9 note=42 velocity=0 time=0.06366330208333333
EXTRACT: note_on channel=9 note=29 velocity=0 time=0.028937864583333334
EXTRACT: note_on channel=9 note=39 velocity=0 time=0
EXTRACT: note_on channel=9 note=40 velocity=0 time=0
EXTRACT: note_on channel=9 note=54 velocity=49 time=0.0028937864583333333
EXTRACT: note_on channel=9 note=54 velocity=0 time=0.07234466145833333
EXTRACT: note_on channel=9 note=30 velocity=42 time=0.06655708854166667
EXTRACT: note_on channel=9 note=36 velocity=109 time=0
EXTRACT: note_on channel=9 note=42 velocity=90 time=0
EXTRACT: note_on channel=9 note=54 velocity=80 time=0
EXTRACT: note_on channel=9 note=56 velocity=19 time=0
EXTRACT: note_on channel=9 note=80 velocity=127 time=0
EXTRACT: note_on channel=9 note=54 velocity=0 time=0.043406796875
EXTRACT: note_on channel=9 note=56 velocity=0 time=0.026044078124999998
EXTRACT: note_on channel=9 note=42 velocity=0 time=0.0057875729166666666
EXTRACT: note_on channel=9 note=36 velocity=0 time=0.031831651041666666
EXTRACT: note_on channel=9 note=30 velocity=0 time=0.026044078124999998
EXTRACT: note_on channel=9 note=80 velocity=0 time=0.0028937864583333333
EXTRACT: note_on channel=9 note=29 velocity=28 time=0.0028937864583333333
EXTRACT: note_on channel=9 note=54 velocity=52 time=0
EXTRACT: note_on channel=9 note=56 velocity=10 time=0
EXTRACT: note_on channel=9 note=54 velocity=0 time=0.052088156249999996
EXTRACT: note_on channel=9 note=56 velocity=0 time=0.08391980729166666
EXTRACT: note_on channel=9 note=29 velocity=0 time=0
EXTRACT: note_on channel=9 note=30 velocity=39 time=0.0028937864583333333
EXTRACT: note_on channel=9 note=36 velocity=109 time=0
EXTRACT: note_on channel=9 note=42 velocity=122 time=0
EXTRACT: note_on channel=9 note=54 velocity=86 time=0
EXTRACT: note_on channel=9 note=54 velocity=0 time=0.05787572916666667
EXTRACT: note_on channel=9 note=42 velocity=0 time=0.0347254375
EXTRACT: note_on channel=9 note=36 velocity=0 time=0.008681359375
EXTRACT: note_on channel=9 note=30 velocity=0 time=0.031831651041666666
EXTRACT: note_on channel=9 note=29 velocity=29 time=0.0057875729166666666
EXTRACT: note_on channel=9 note=54 velocity=48 time=0
EXTRACT: note_on channel=9 note=54 velocity=0 time=0.03761922395833333
EXTRACT: note_on channel=9 note=29 velocity=0 time=0.09838873958333333
EXTRACT: note_on channel=9 note=30 velocity=38 time=0.0028937864583333333
EXTRACT: note_on channel=9 note=36 velocity=113 time=0
EXTRACT: note_on channel=9 note=42 velocity=100 time=0
EXTRACT: note_on channel=9 note=54 velocity=81 time=0
EXTRACT: note_on channel=9 note=56 velocity=19 time=0
EXTRACT: note_on channel=9 note=80 velocity=127 time=0
EXTRACT: note_on channel=9 note=54 velocity=0 time=0.052088156249999996
EXTRACT: note_on channel=9 note=56 velocity=0 time=0.020256505208333334
EXTRACT: note_on channel=9 note=42 velocity=0 time=0.0028937864583333333
EXTRACT: note_on channel=9 note=30 velocity=0 time=0.05787572916666667
EXTRACT: note_on channel=9 note=36 velocity=0 time=0.0028937864583333333
EXTRACT: note_on channel=9 note=80 velocity=0 time=0
EXTRACT: note_on channel=9 note=29 velocity=26 time=0.0028937864583333333
EXTRACT: note_on channel=9 note=54 velocity=65 time=0
EXTRACT: note_on channel=9 note=56 velocity=10 time=0
EXTRACT: note_on channel=9 note=54 velocity=0 time=0.060769515625
EXTRACT: note_on channel=9 note=56 velocity=0 time=0.07523844791666666
EXTRACT: note_on channel=9 note=29 velocity=0 time=0
EXTRACT: note_on channel=9 note=30 velocity=31 time=0.0028937864583333333
EXTRACT: note_on channel=9 note=39 velocity=80 time=0
EXTRACT: note_on channel=9 note=40 velocity=121 time=0
EXTRACT: note_on channel=9 note=42 velocity=114 time=0
EXTRACT: note_on channel=9 note=54 velocity=82 time=0
EXTRACT: note_on channel=9 note=54 velocity=0 time=0.054981942708333335
EXTRACT: note_on channel=9 note=42 velocity=0 time=0.052088156249999996
EXTRACT: note_on channel=9 note=30 velocity=0 time=0.028937864583333334
EXTRACT: note_on channel=9 note=39 velocity=0 time=0
EXTRACT: note_on channel=9 note=40 velocity=0 time=0
EXTRACT: note_on channel=9 note=54 velocity=45 time=0.0028937864583333333
EXTRACT: note_on channel=9 note=54 velocity=0 time=0.03761922395833333
EXTRACT: note_on channel=9 note=30 velocity=35 time=0.10128252604166667
EXTRACT: note_on channel=9 note=42 velocity=90 time=0
EXTRACT: note_on channel=9 note=54 velocity=75 time=0
EXTRACT: note_on channel=9 note=56 velocity=19 time=0
EXTRACT: note_on channel=9 note=80 velocity=127 time=0
EXTRACT: note_on channel=9 note=54 velocity=0 time=0.04051301041666667
EXTRACT: note_on channel=9 note=56 velocity=0 time=0.031831651041666666
EXTRACT: note_on channel=9 note=42 velocity=0 time=0.0028937864583333333
EXTRACT: note_on channel=9 note=30 velocity=0 time=0.060769515625
EXTRACT: note_on channel=9 note=80 velocity=0 time=0
EXTRACT: note_on channel=9 note=29 velocity=28 time=0.0028937864583333333
EXTRACT: note_on channel=9 note=54 velocity=49 time=0
EXTRACT: note_on channel=9 note=56 velocity=10 time=0
EXTRACT: note_on channel=9 note=54 velocity=0 time=0.04051301041666667
EXTRACT: note_on channel=9 note=56 velocity=0 time=0.095494953125
EXTRACT: note_on channel=9 note=29 velocity=0 time=0
EXTRACT: note_on channel=9 note=30 velocity=42 time=0.0028937864583333333
EXTRACT: note_on channel=9 note=36 velocity=116 time=0
EXTRACT: note_on channel=9 note=42 velocity=122 time=0
EXTRACT: note_on channel=9 note=54 velocity=90 time=0
EXTRACT: note_on channel=9 note=57 velocity=60 time=0
EXTRACT: note_on channel=9 note=54 velocity=0 time=0.052088156249999996
EXTRACT: note_on channel=9 note=42 velocity=0 time=0.04051301041666667
EXTRACT: note_on channel=9 note=30 velocity=0 time=0.043406796875
EXTRACT: note_on channel=9 note=36 velocity=0 time=0
EXTRACT: note_on channel=9 note=57 velocity=0 time=0
EXTRACT: note_on channel=9 note=54 velocity=42 time=0.0028937864583333333
EXTRACT: note_on channel=9 note=54 velocity=0 time=0.052088156249999996
EXTRACT: note_on channel=9 note=30 velocity=42 time=0.08681359375
EXTRACT: note_on channel=9 note=42 velocity=100 time=0
EXTRACT: note_on channel=9 note=54 velocity=78 time=0
EXTRACT: note_on channel=9 note=56 velocity=19 time=0
EXTRACT: note_on channel=9 note=80 velocity=127 time=0
EXTRACT: note_on channel=9 note=54 velocity=0 time=0.0347254375
EXTRACT: note_on channel=9 note=56 velocity=0 time=0.03761922395833333
EXTRACT: note_on channel=9 note=42 velocity=0 time=0.0028937864583333333
EXTRACT: note_on channel=9 note=30 velocity=0 time=0.060769515625
EXTRACT: note_on channel=9 note=80 velocity=0 time=0
EXTRACT: note_on channel=9 note=54 velocity=54 time=0.0028937864583333333
EXTRACT: note_on channel=9 note=56 velocity=10 time=0
EXTRACT: note_on channel=9 note=54 velocity=0 time=0.07523844791666666
EXTRACT: note_on channel=9 note=56 velocity=0 time=0.060769515625
EXTRACT: note_on channel=9 note=29 velocity=39 time=0.0028937864583333333
EXTRACT: note_on channel=9 note=39 velocity=80 time=0
EXTRACT: note_on channel=9 note=40 velocity=121 time=0
EXTRACT: note_on channel=9 note=42 velocity=114 time=0
EXTRACT: note_on channel=9 note=54 velocity=85 time=0
EXTRACT: note_on channel=9 note=54 velocity=0 time=0.043406796875
EXTRACT: note_on channel=9 note=42 velocity=0 time=0.06366330208333333
EXTRACT: note_on channel=9 note=29 velocity=0 time=0.028937864583333334
EXTRACT: note_on channel=9 note=39 velocity=0 time=0
EXTRACT: note_on channel=9 note=40 velocity=0 time=0
EXTRACT: note_on channel=9 note=54 velocity=49 time=0.0028937864583333333
EXTRACT: note_on channel=9 note=54 velocity=0 time=0.07234466145833333
EXTRACT: note_on channel=9 note=30 velocity=42 time=0.06655708854166667
EXTRACT: note_on channel=9 note=36 velocity=111 time=0
EXTRACT: note_on channel=9 note=42 velocity=90 time=0
EXTRACT: note_on channel=9 note=54 velocity=80 time=0
EXTRACT: note_on channel=9 note=56 velocity=19 time=0
EXTRACT: note_on channel=9 note=80 velocity=127 time=0
EXTRACT: note_on channel=9 note=54 velocity=0 time=0.04051301041666667
EXTRACT: note_on channel=9 note=56 velocity=0 time=0.028937864583333334
EXTRACT: note_on channel=9 note=42 velocity=0 time=0.0057875729166666666
EXTRACT: note_on channel=9 note=36 velocity=0 time=0.020256505208333334
EXTRACT: note_on channel=9 note=30 velocity=0 time=0.03761922395833333
EXTRACT: note_on channel=9 note=80 velocity=0 time=0.0028937864583333333
EXTRACT: note_on channel=9 note=29 velocity=28 time=0.0028937864583333333
EXTRACT: note_on channel=9 note=54 velocity=52 time=0
EXTRACT: note_on channel=9 note=56 velocity=10 time=0
EXTRACT: note_on channel=9 note=54 velocity=0 time=0.052088156249999996
EXTRACT: note_on channel=9 note=56 velocity=0 time=0.08391980729166666
EXTRACT: note_on channel=9 note=29 velocity=0 time=0
EXTRACT: note_on channel=9 note=30 velocity=39 time=0.0028937864583333333
EXTRACT: note_on channel=9 note=36 velocity=112 time=0
EXTRACT: note_on channel=9 note=42 velocity=122 time=0
EXTRACT: note_on channel=9 note=54 velocity=86 time=0
EXTRACT: note_on channel=9 note=57 velocity=79 time=0
EXTRACT: note_on channel=9 note=54 velocity=0 time=0.054981942708333335
EXTRACT: note_on channel=9 note=42 velocity=0 time=0.03761922395833333
EXTRACT: note_on channel=9 note=30 velocity=0 time=0.04051301041666667
EXTRACT: note_on channel=9 note=36 velocity=0 time=0.0028937864583333333
EXTRACT: note_on channel=9 note=57 velocity=0 time=0
EXTRACT: note_on channel=9 note=29 velocity=29 time=0.0028937864583333333
EXTRACT: note_on channel=9 note=54 velocity=48 time=0
EXTRACT: note_on channel=9 note=54 velocity=0 time=0.03761922395833333
EXTRACT: note_on channel=9 note=29 velocity=0 time=0.09838873958333333
EXTRACT: note_on channel=9 note=30 velocity=38 time=0.0028937864583333333
EXTRACT: note_on channel=9 note=42 velocity=100 time=0
EXTRACT: note_on channel=9 note=54 velocity=81 time=0
EXTRACT: note_on channel=9 note=56 velocity=19 time=0
EXTRACT: note_on channel=9 note=80 velocity=127 time=0
EXTRACT: note_on channel=9 note=54 velocity=0 time=0.052088156249999996
EXTRACT: note_on channel=9 note=56 velocity=0 time=0.020256505208333334
EXTRACT: note_on channel=9 note=42 velocity=0 time=0.0028937864583333333
EXTRACT: note_on channel=9 note=30 velocity=0 time=0.060769515625
EXTRACT: note_on channel=9 note=80 velocity=0 time=0
EXTRACT: note_on channel=9 note=29 velocity=26 time=0.0028937864583333333
EXTRACT: note_on channel=9 note=54 velocity=65 time=0
EXTRACT: note_on channel=9 note=56 velocity=10 time=0
EXTRACT: note_on channel=9 note=54 velocity=0 time=0.060769515625
EXTRACT: note_on channel=9 note=56 velocity=0 time=0.07523844791666666
EXTRACT: note_on channel=9 note=29 velocity=0 time=0
EXTRACT: note_on channel=9 note=30 velocity=31 time=0.0028937864583333333
EXTRACT: note_on channel=9 note=39 velocity=80 time=0
EXTRACT: note_on channel=9 note=40 velocity=121 time=0
EXTRACT: note_on channel=9 note=42 velocity=114 time=0
EXTRACT: note_on channel=9 note=54 velocity=82 time=0
EXTRACT: note_on channel=9 note=54 velocity=0 time=0.054981942708333335
EXTRACT: note_on channel=9 note=42 velocity=0 time=0.052088156249999996
EXTRACT: note_on channel=9 note=30 velocity=0 time=0.028937864583333334
EXTRACT: note_on channel=9 note=39 velocity=0 time=0
EXTRACT: note_on channel=9 note=40 velocity=0 time=0
EXTRACT: note_on channel=9 note=54 velocity=45 time=0.0028937864583333333
EXTRACT: note_on channel=9 note=54 velocity=0 time=0.03761922395833333
EXTRACT: note_on channel=9 note=30 velocity=35 time=0.10128252604166667
EXTRACT: note_on channel=9 note=42 velocity=90 time=0
EXTRACT: note_on channel=9 note=54 velocity=75 time=0
EXTRACT: note_on channel=9 note=56 velocity=19 time=0
EXTRACT: note_on channel=9 note=80 velocity=127 time=0
EXTRACT: note_on channel=9 note=54 velocity=0 time=0.04051301041666667
EXTRACT: note_on channel=9 note=56 velocity=0 time=0.031831651041666666
EXTRACT: note_on channel=9 note=42 velocity=0 time=0.0028937864583333333
EXTRACT: note_on channel=9 note=30 velocity=0 time=0.060769515625
EXTRACT: note_on channel=9 note=80 velocity=0 time=0
EXTRACT: note_on channel=9 note=29 velocity=28 time=0.0028937864583333333
EXTRACT: note_on channel=9 note=54 velocity=49 time=0
EXTRACT: note_on channel=9 note=56 velocity=10 time=0
EXTRACT: note_on channel=9 note=54 velocity=0 time=0.04051301041666667
EXTRACT: note_on channel=9 note=56 velocity=0 time=0.095494953125
EXTRACT: note_on channel=9 note=29 velocity=0 time=0
EXTRACT: note_on channel=9 note=30 velocity=42 time=0.0028937864583333333
EXTRACT: note_on channel=9 note=36 velocity=114 time=0
EXTRACT: note_on channel=9 note=42 velocity=122 time=0
EXTRACT: note_on channel=9 note=49 velocity=83 time=0
EXTRACT: note_on channel=9 note=54 velocity=90 time=0
EXTRACT: note_on channel=9 note=54 velocity=0 time=0.052088156249999996
EXTRACT: note_on channel=9 note=42 velocity=0 time=0.04051301041666667
EXTRACT: note_on channel=9 note=30 velocity=0 time=0.043406796875
EXTRACT: note_on channel=9 note=36 velocity=0 time=0
EXTRACT: note_on channel=9 note=49 velocity=0 time=0
EXTRACT: note_on channel=9 note=54 velocity=42 time=0.0028937864583333333
EXTRACT: note_on channel=9 note=54 velocity=0 time=0.052088156249999996
EXTRACT: note_on channel=9 note=30 velocity=42 time=0.08681359375
EXTRACT: note_on channel=9 note=42 velocity=100 time=0
EXTRACT: note_on channel=9 note=54 velocity=78 time=0
EXTRACT: note_on channel=9 note=56 velocity=19 time=0
EXTRACT: note_on channel=9 note=80 velocity=127 time=0
EXTRACT: note_on channel=9 note=54 velocity=0 time=0.0347254375
EXTRACT: note_on channel=9 note=56 velocity=0 time=0.03761922395833333
EXTRACT: note_on channel=9 note=42 velocity=0 time=0.0028937864583333333
EXTRACT: note_on channel=9 note=30 velocity=0 time=0.060769515625
EXTRACT: note_on channel=9 note=80 velocity=0 time=0
EXTRACT: note_on channel=9 note=54 velocity=54 time=0.0028937864583333333
EXTRACT: note_on channel=9 note=56 velocity=10 time=0
EXTRACT: note_on channel=9 note=54 velocity=0 time=0.07523844791666666
EXTRACT: note_on channel=9 note=56 velocity=0 time=0.060769515625
EXTRACT: note_on channel=9 note=29 velocity=39 time=0.0028937864583333333
EXTRACT: note_on channel=9 note=39 velocity=80 time=0
EXTRACT: note_on channel=9 note=40 velocity=121 time=0
EXTRACT: note_on channel=9 note=42 velocity=114 time=0
EXTRACT: note_on channel=9 note=54 velocity=85 time=0
EXTRACT: note_on channel=9 note=54 velocity=0 time=0.043406796875
EXTRACT: note_on channel=9 note=42 velocity=0 time=0.06366330208333333
EXTRACT: note_on channel=9 note=29 velocity=0 time=0.028937864583333334
EXTRACT: note_on channel=9 note=39 velocity=0 time=0
EXTRACT: note_on channel=9 note=40 velocity=0 time=0
EXTRACT: note_on channel=9 note=54 velocity=49 time=0.0028937864583333333
EXTRACT: note_on channel=9 note=54 velocity=0 time=0.07234466145833333
EXTRACT: note_on channel=9 note=30 velocity=42 time=0.06655708854166667
EXTRACT: note_on channel=9 note=36 velocity=109 time=0
EXTRACT: note_on channel=9 note=42 velocity=90 time=0
EXTRACT: note_on channel=9 note=54 velocity=80 time=0
EXTRACT: note_on channel=9 note=56 velocity=19 time=0
EXTRACT: note_on channel=9 note=80 velocity=127 time=0
EXTRACT: note_on channel=9 note=54 velocity=0 time=0.04051301041666667
EXTRACT: note_on channel=9 note=56 velocity=0 time=0.028937864583333334
EXTRACT: note_on channel=9 note=42 velocity=0 time=0.0057875729166666666
EXTRACT: note_on channel=9 note=36 velocity=0 time=0.031831651041666666
EXTRACT: note_on channel=9 note=30 velocity=0 time=0.026044078124999998
EXTRACT: note_on channel=9 note=80 velocity=0 time=0.0028937864583333333
EXTRACT: note_on channel=9 note=29 velocity=28 time=0.0028937864583333333
EXTRACT: note_on channel=9 note=54 velocity=52 time=0
EXTRACT: note_on channel=9 note=56 velocity=10 time=0
EXTRACT: note_on channel=9 note=54 velocity=0 time=0.052088156249999996
EXTRACT: note_on channel=9 note=56 velocity=0 time=0.08391980729166666
EXTRACT: note_on channel=9 note=29 velocity=0 time=0
EXTRACT: note_on channel=9 note=30 velocity=39 time=0.0028937864583333333
EXTRACT: note_on channel=9 note=36 velocity=109 time=0
EXTRACT: note_on channel=9 note=42 velocity=122 time=0
EXTRACT: note_on channel=9 note=54 velocity=86 time=0
EXTRACT: note_on channel=9 note=54 velocity=0 time=0.05787572916666667
EXTRACT: note_on channel=9 note=42 velocity=0 time=0.0347254375
EXTRACT: note_on channel=9 note=36 velocity=0 time=0.008681359375
EXTRACT: note_on channel=9 note=30 velocity=0 time=0.031831651041666666
EXTRACT: note_on channel=9 note=29 velocity=29 time=0.0057875729166666666
EXTRACT: note_on channel=9 note=54 velocity=48 time=0
EXTRACT: note_on channel=9 note=54 velocity=0 time=0.03761922395833333
EXTRACT: note_on channel=9 note=29 velocity=0 time=0.09838873958333333
EXTRACT: note_on channel=9 note=30 velocity=38 time=0.0028937864583333333
EXTRACT: note_on channel=9 note=36 velocity=113 time=0
EXTRACT: note_on channel=9 note=42 velocity=100 time=0
EXTRACT: note_on channel=9 note=54 velocity=81 time=0
EXTRACT: note_on channel=9 note=56 velocity=19 time=0
EXTRACT: note_on channel=9 note=80 velocity=127 time=0
EXTRACT: note_on channel=9 note=54 velocity=0 time=0.052088156249999996
EXTRACT: note_on channel=9 note=56 velocity=0 time=0.020256505208333334
EXTRACT: note_on channel=9 note=42 velocity=0 time=0.0028937864583333333
EXTRACT: note_on channel=9 note=30 velocity=0 time=0.05787572916666667
EXTRACT: note_on channel=9 note=36 velocity=0 time=0.0028937864583333333
EXTRACT: note_on channel=9 note=80 velocity=0 time=0
EXTRACT: note_on channel=9 note=29 velocity=26 time=0.0028937864583333333
EXTRACT: note_on channel=9 note=54 velocity=65 time=0
EXTRACT: note_on channel=9 note=56 velocity=10 time=0
EXTRACT: note_on channel=9 note=54 velocity=0 time=0.060769515625
EXTRACT: note_on channel=9 note=56 velocity=0 time=0.07523844791666666
EXTRACT: note_on channel=9 note=29 velocity=0 time=0
EXTRACT: note_on channel=9 note=30 velocity=31 time=0.0028937864583333333
EXTRACT: note_on channel=9 note=39 velocity=80 time=0
EXTRACT: note_on channel=9 note=40 velocity=121 time=0
EXTRACT: note_on channel=9 note=42 velocity=114 time=0
EXTRACT: note_on channel=9 note=54 velocity=82 time=0
EXTRACT: note_on channel=9 note=54 velocity=0 time=0.054981942708333335
EXTRACT: note_on channel=9 note=42 velocity=0 time=0.052088156249999996
EXTRACT: note_on channel=9 note=30 velocity=0 time=0.028937864583333334
EXTRACT: note_on channel=9 note=39 velocity=0 time=0
EXTRACT: note_on channel=9 note=40 velocity=0 time=0
EXTRACT: note_on channel=9 note=54 velocity=45 time=0.0028937864583333333
EXTRACT: note_on channel=9 note=54 velocity=0 time=0.03761922395833333
EXTRACT: note_on channel=9 note=30 velocity=35 time=0.10128252604166667
EXTRACT: note_on channel=9 note=42 velocity=90 time=0
EXTRACT: note_on channel=9 note=54 velocity=75 time=0
EXTRACT: note_on channel=9 note=56 velocity=19 time=0
EXTRACT: note_on channel=9 note=80 velocity=127 time=0
EXTRACT: note_on channel=9 note=54 velocity=0 time=0.04051301041666667
EXTRACT: note_on channel=9 note=56 velocity=0 time=0.031831651041666666
EXTRACT: note_on channel=9 note=42 velocity=0 time=0.0028937864583333333
EXTRACT: note_on channel=9 note=30 velocity=0 time=0.05787572916666667
EXTRACT: note_on channel=9 note=80 velocity=0 time=0.0028937864583333333
EXTRACT: note_on channel=9 note=29 velocity=28 time=0.0028937864583333333
EXTRACT: note_on channel=9 note=54 velocity=49 time=0
EXTRACT: note_on channel=9 note=56 velocity=10 time=0
EXTRACT: note_on channel=9 note=54 velocity=0 time=0.04051301041666667
EXTRACT: note_on channel=9 note=56 velocity=0 time=0.095494953125
EXTRACT: note_on channel=9 note=29 velocity=0 time=0
EXTRACT: note_on channel=9 note=30 velocity=42 time=0.0028937864583333333
EXTRACT: note_on channel=9 note=36 velocity=116 time=0
EXTRACT: note_on channel=9 note=42 velocity=122 time=0
EXTRACT: note_on channel=9 note=54 velocity=90 time=0
EXTRACT: note_on channel=9 note=57 velocity=60 time=0
EXTRACT: note_on channel=9 note=54 velocity=0 time=0.052088156249999996
EXTRACT: note_on channel=9 note=42 velocity=0 time=0.04051301041666667
EXTRACT: note_on channel=9 note=30 velocity=0 time=0.043406796875
EXTRACT: note_on channel=9 note=36 velocity=0 time=0
EXTRACT: note_on channel=9 note=57 velocity=0 time=0
EXTRACT: note_on channel=9 note=54 velocity=42 time=0.0028937864583333333
EXTRACT: note_on channel=9 note=54 velocity=0 time=0.052088156249999996
EXTRACT: note_on channel=9 note=30 velocity=42 time=0.08681359375
EXTRACT: note_on channel=9 note=42 velocity=100 time=0
EXTRACT: note_on channel=9 note=54 velocity=78 time=0
EXTRACT: note_on channel=9 note=56 velocity=19 time=0
EXTRACT: note_on channel=9 note=80 velocity=127 time=0
EXTRACT: note_on channel=9 note=54 velocity=0 time=0.0347254375
EXTRACT: note_on channel=9 note=56 velocity=0 time=0.03761922395833333
EXTRACT: note_on channel=9 note=42 velocity=0 time=0.0028937864583333333
EXTRACT: note_on channel=9 note=30 velocity=0 time=0.060769515625
EXTRACT: note_on channel=9 note=80 velocity=0 time=0
EXTRACT: note_on channel=9 note=54 velocity=54 time=0.0028937864583333333
EXTRACT: note_on channel=9 note=56 velocity=10 time=0
EXTRACT: note_on channel=9 note=54 velocity=0 time=0.07523844791666666
EXTRACT: note_on channel=9 note=56 velocity=0 time=0.060769515625
EXTRACT: note_on channel=9 note=29 velocity=39 time=0.0028937864583333333
EXTRACT: note_on channel=9 note=39 velocity=80 time=0
EXTRACT: note_on channel=9 note=40 velocity=121 time=0
EXTRACT: note_on channel=9 note=42 velocity=114 time=0
EXTRACT: note_on channel=9 note=54 velocity=85 time=0
EXTRACT: note_on channel=9 note=54 velocity=0 time=0.043406796875
EXTRACT: note_on channel=9 note=42 velocity=0 time=0.06366330208333333
EXTRACT: note_on channel=9 note=29 velocity=0 time=0.028937864583333334
EXTRACT: note_on channel=9 note=39 velocity=0 time=0
EXTRACT: note_on channel=9 note=40 velocity=0 time=0
EXTRACT: note_on channel=9 note=54 velocity=49 time=0.0028937864583333333
EXTRACT: note_on channel=9 note=54 velocity=0 time=0.07234466145833333
EXTRACT: note_on channel=9 note=30 velocity=42 time=0.06655708854166667
EXTRACT: note_on channel=9 note=36 velocity=111 time=0
EXTRACT: note_on channel=9 note=42 velocity=90 time=0
EXTRACT: note_on channel=9 note=54 velocity=80 time=0
EXTRACT: note_on channel=9 note=56 velocity=19 time=0
EXTRACT: note_on channel=9 note=80 velocity=127 time=0
EXTRACT: note_on channel=9 note=54 velocity=0 time=0.043406796875
EXTRACT: note_on channel=9 note=56 velocity=0 time=0.028937864583333334
EXTRACT: note_on channel=9 note=42 velocity=0 time=0.0028937864583333333
EXTRACT: note_on channel=9 note=36 velocity=0 time=0.020256505208333334
EXTRACT: note_on channel=9 note=30 velocity=0 time=0.03761922395833333
EXTRACT: note_on channel=9 note=80 velocity=0 time=0.0028937864583333333
EXTRACT: note_on channel=9 note=29 velocity=28 time=0.0028937864583333333
EXTRACT: note_on channel=9 note=54 velocity=52 time=0
EXTRACT: note_on channel=9 note=56 velocity=10 time=0
EXTRACT: note_on channel=9 note=54 velocity=0 time=0.052088156249999996
EXTRACT: note_on channel=9 note=56 velocity=0 time=0.08391980729166666
EXTRACT: note_on channel=9 note=29 velocity=0 time=0
EXTRACT: note_on channel=9 note=30 velocity=39 time=0.0028937864583333333
EXTRACT: note_on channel=9 note=36 velocity=112 time=0
EXTRACT: note_on channel=9 note=42 velocity=122 time=0
EXTRACT: note_on channel=9 note=54 velocity=86 time=0
EXTRACT: note_on channel=9 note=84 velocity=44 time=0
EXTRACT: note_on channel=9 note=54 velocity=0 time=0.05787572916666667
EXTRACT: note_on channel=9 note=42 velocity=0 time=0.0347254375
EXTRACT: note_on channel=9 note=30 velocity=0 time=0.04051301041666667
EXTRACT: note_on channel=10 note=65 velocity=127 time=0.0057875729166666666
EXTRACT: note_on channel=9 note=84 velocity=0 time=0.031831651041666666
EXTRACT: note_on channel=9 note=36 velocity=0 time=0.054981942708333335
EXTRACT: note_on channel=9 note=30 velocity=38 time=0.052088156249999996
EXTRACT: note_on channel=9 note=36 velocity=75 time=0
EXTRACT: note_on channel=9 note=42 velocity=100 time=0
EXTRACT: note_on channel=9 note=54 velocity=81 time=0
EXTRACT: note_on channel=9 note=56 velocity=19 time=0
EXTRACT: note_on channel=9 note=80 velocity=127 time=0
EXTRACT: note_on channel=9 note=84 velocity=41 time=0
EXTRACT: note_on channel=9 note=54 velocity=0 time=0.052088156249999996
EXTRACT: note_on channel=9 note=56 velocity=0 time=0.020256505208333334
EXTRACT: note_on channel=9 note=42 velocity=0 time=0.0028937864583333333
EXTRACT: note_on channel=9 note=30 velocity=0 time=0.05787572916666667
EXTRACT: note_on channel=9 note=36 velocity=0 time=0.0028937864583333333
EXTRACT: note_on channel=9 note=84 velocity=0 time=0
EXTRACT: note_on channel=9 note=80 velocity=0 time=0
EXTRACT: note_on channel=9 note=56 velocity=10 time=0.0028937864583333333
EXTRACT: note_on channel=9 note=56 velocity=0 time=0.13600796354166667
EXTRACT: note_on channel=9 note=29 velocity=31 time=0.0028937864583333333
EXTRACT: note_on channel=9 note=39 velocity=80 time=0
EXTRACT: note_on channel=9 note=40 velocity=121 time=0
EXTRACT: note_on channel=9 note=54 velocity=82 time=0
EXTRACT: note_on channel=9 note=54 velocity=0 time=0.054981942708333335
EXTRACT: note_on channel=9 note=40 velocity=0 time=0.10417631249999999
EXTRACT: note_on channel=9 note=39 velocity=0 time=0
EXTRACT: note_on channel=9 note=29 velocity=0 time=0.112857671875
EXTRACT: note_on channel=9 note=36 velocity=22 time=0.0057875729166666666
EXTRACT: note_on channel=9 note=56 velocity=19 time=0
EXTRACT: note_on channel=3 note=58 velocity=123 time=0
EXTRACT: note_on channel=9 note=56 velocity=0 time=0.07234466145833333
EXTRACT: note_on channel=3 note=58 velocity=0 time=0.0057875729166666666
EXTRACT: note_on channel=9 note=36 velocity=0 time=0.05787572916666667
EXTRACT: note_on channel=9 note=56 velocity=10 time=0.0028937864583333333
EXTRACT: note_on channel=5 note=22 velocity=0 time=0.11864524479166666
EXTRACT: note_on channel=2 note=13 velocity=0 time=0.0028937864583333333
EXTRACT: note_on channel=8 note=17 velocity=0 time=0
EXTRACT: note_on channel=0 note=10 velocity=0 time=0.0028937864583333333
EXTRACT: note_on channel=2 note=22 velocity=0 time=0
EXTRACT: note_on channel=2 note=17 velocity=0 time=0
EXTRACT: note_on channel=8 note=22 velocity=0 time=0
EXTRACT: control_change channel=0 control=65 value=0 time=0.0028937864583333333
EXTRACT: control_change channel=2 control=65 value=0 time=0
EXTRACT: note_on channel=8 note=25 velocity=0 time=0
EXTRACT: control_change channel=8 control=65 value=0 time=0
EXTRACT: control_change channel=5 control=65 value=0 time=0.0028937864583333333
EXTRACT: note_on channel=9 note=56 velocity=0 time=0.0057875729166666666
EXTRACT: control_change channel=9 control=91 value=63 time=0
EXTRACT: note_on channel=10 note=65 velocity=0 time=0
EXTRACT: note_on channel=9 note=36 velocity=127 time=0.0028937864583333333
EXTRACT: note_on channel=9 note=49 velocity=78 time=0
EXTRACT: note_on channel=3 note=61 velocity=115 time=0
EXTRACT: note_on channel=8 note=46 velocity=96 time=0
EXTRACT: note_on channel=8 note=58 velocity=93 time=0
EXTRACT: note_on channel=8 note=61 velocity=98 time=0
EXTRACT: note_on channel=8 note=65 velocity=97 time=0
EXTRACT: note_on channel=8 note=70 velocity=94 time=0
EXTRACT: control_change channel=8 control=1 value=33 time=0.0028937864583333333
EXTRACT: note_on channel=1 note=10 velocity=0 time=0.0043406796875
EXTRACT: control_change channel=1 control=65 value=0 time=0.0028937864583333333
EXTRACT: note_on channel=3 note=61 velocity=0 time=0.1432424296875
EXTRACT: note_on channel=3 note=61 velocity=101 time=0.12443281770833334
EXTRACT: note_on channel=3 note=61 velocity=0 time=0.13600796354166667
EXTRACT: note_on channel=3 note=63 velocity=120 time=0.0028937864583333333
EXTRACT: note_on channel=3 note=63 velocity=0 time=0.41381146354166665
EXTRACT: note_on channel=3 note=58 velocity=101 time=0.0028937864583333333
EXTRACT: note_on channel=9 note=36 velocity=0 time=0.13311417708333334
EXTRACT: note_on channel=3 note=58 velocity=0 time=0.04051301041666667
EXTRACT: note_on channel=3 note=61 velocity=124 time=0.10417631249999999
EXTRACT: note_on channel=3 note=61 velocity=0 time=0.112857671875
EXTRACT: note_on channel=3 note=61 velocity=118 time=0.164945828125
EXTRACT: note_on channel=3 note=61 velocity=0 time=0.13600796354166667
EXTRACT: note_on channel=3 note=63 velocity=127 time=0.14179553645833334
EXTRACT: note_on channel=3 note=63 velocity=0 time=0.21992777083333334
EXTRACT: note_on channel=9 note=49 velocity=0 time=0.19677747916666666
EXTRACT: note_on channel=8 note=46 velocity=0 time=0.130220390625
EXTRACT: note_on channel=8 note=58 velocity=0 time=0.0028937864583333333
EXTRACT: note_on channel=8 note=61 velocity=0 time=0.0028937864583333333
EXTRACT: note_on channel=6 note=65 velocity=62 time=0.0028937864583333333
EXTRACT: note_on channel=6 note=70 velocity=38 time=0
EXTRACT: note_on channel=8 note=65 velocity=0 time=0
EXTRACT: note_on channel=8 note=70 velocity=0 time=0
EXTRACT: note_on channel=8 note=41 velocity=93 time=0
EXTRACT: note_on channel=8 note=53 velocity=97 time=0
EXTRACT: note_on channel=8 note=60 velocity=90 time=0
EXTRACT: note_on channel=8 note=65 velocity=93 time=0
EXTRACT: note_on channel=8 note=70 velocity=86 time=0
EXTRACT: note_on channel=8 note=60 velocity=0 time=1.0996388541666666
EXTRACT: note_on channel=8 note=65 velocity=0 time=0.0028937864583333333
EXTRACT: note_on channel=8 note=70 velocity=0 time=0.0028937864583333333
EXTRACT: note_on channel=6 note=65 velocity=0 time=0.0028937864583333333
EXTRACT: note_on channel=6 note=70 velocity=0 time=0.0028937864583333333
EXTRACT: note_on channel=6 note=65 velocity=62 time=0
EXTRACT: note_on channel=6 note=72 velocity=38 time=0
EXTRACT: note_on channel=8 note=60 velocity=95 time=0
EXTRACT: note_on channel=8 note=65 velocity=91 time=0
EXTRACT: note_on channel=8 note=69 velocity=90 time=0
EXTRACT: note_on channel=3 note=58 velocity=116 time=0.8334104999999999
EXTRACT: note_on channel=3 note=58 velocity=0 time=0.147583109375
EXTRACT: note_on channel=8 note=41 velocity=0 time=0.11864524479166666
EXTRACT: note_on channel=8 note=53 velocity=0 time=0.0028937864583333333
EXTRACT: note_on channel=6 note=65 velocity=0 time=0.0057875729166666666
EXTRACT: note_on channel=3 note=61 velocity=124 time=0.0028937864583333333
EXTRACT: note_on channel=6 note=72 velocity=0 time=0
EXTRACT: note_on channel=8 note=60 velocity=0 time=0
EXTRACT: note_on channel=8 note=39 velocity=99 time=0
EXTRACT: note_on channel=8 note=61 velocity=62 time=0
EXTRACT: note_on channel=8 note=63 velocity=95 time=0
EXTRACT: note_on channel=8 note=66 velocity=94 time=0
EXTRACT: note_on channel=8 note=70 velocity=90 time=0
EXTRACT: note_on channel=8 note=65 velocity=0 time=0.0028937864583333333
EXTRACT: note_on channel=8 note=69 velocity=0 time=0.0028937864583333333
EXTRACT: note_on channel=3 note=61 velocity=0 time=0.10996388541666667
EXTRACT: note_on channel=3 note=61 velocity=108 time=0.16205204166666667
EXTRACT: note_on channel=3 note=61 velocity=0 time=0.12732660416666666
EXTRACT: note_on channel=3 note=63 velocity=120 time=0.011575145833333333
EXTRACT: note_on channel=3 note=63 velocity=0 time=0.17941476041666665
EXTRACT: note_on channel=3 note=63 velocity=115 time=0.09838873958333333
EXTRACT: note_on channel=3 note=63 velocity=0 time=0.11575145833333333
EXTRACT: note_on channel=3 note=58 velocity=99 time=0.023150291666666666
EXTRACT: note_on channel=3 note=58 velocity=0 time=0.26044078125
EXTRACT: note_on channel=3 note=61 velocity=118 time=0.01736271875
EXTRACT: note_on channel=3 note=61 velocity=0 time=0.12443281770833334
EXTRACT: note_on channel=3 note=61 velocity=118 time=0.15337068229166667
EXTRACT: note_on channel=3 note=61 velocity=0 time=0.14179553645833334
EXTRACT: note_on channel=3 note=63 velocity=124 time=0.13600796354166667
EXTRACT: note_on channel=3 note=63 velocity=0 time=0.20545883854166666
EXTRACT: note_on channel=8 note=39 velocity=0 time=0.338573015625
EXTRACT: note_on channel=8 note=61 velocity=0 time=0.0028937864583333333
EXTRACT: note_on channel=8 note=63 velocity=0 time=0.0028937864583333333
EXTRACT: note_on channel=8 note=66 velocity=0 time=0.0028937864583333333
EXTRACT: note_on channel=6 note=61 velocity=62 time=0.0028937864583333333
EXTRACT: note_on channel=6 note=66 velocity=38 time=0
EXTRACT: note_on channel=8 note=70 velocity=0 time=0
EXTRACT: note_on channel=8 note=42 velocity=98 time=0
EXTRACT: note_on channel=8 note=54 velocity=95 time=0
EXTRACT: note_on channel=8 note=61 velocity=97 time=0
EXTRACT: note_on channel=8 note=66 velocity=94 time=0
EXTRACT: note_on channel=8 note=70 velocity=92 time=0
EXTRACT: note_on channel=8 note=42 velocity=0 time=1.0996388541666666
EXTRACT: note_on channel=8 note=54 velocity=0 time=0.0028937864583333333
EXTRACT: note_on channel=8 note=61 velocity=0 time=0.0028937864583333333
EXTRACT: note_on channel=6 note=61 velocity=0 time=0.0028937864583333333
EXTRACT: note_on channel=8 note=66 velocity=0 time=0
EXTRACT: note_on channel=8 note=70 velocity=0 time=0
EXTRACT: note_on channel=9 note=84 velocity=18 time=0.0028937864583333333
EXTRACT: note_on channel=6 note=66 velocity=0 time=0
EXTRACT: note_on channel=6 note=63 velocity=62 time=0
EXTRACT: note_on channel=6 note=68 velocity=38 time=0
EXTRACT: note_on channel=8 note=44 velocity=97 time=0
EXTRACT: note_on channel=8 note=56 velocity=94 time=0
EXTRACT: note_on channel=8 note=63 velocity=89 time=0
EXTRACT: note_on channel=8 note=68 velocity=93 time=0
EXTRACT: note_on channel=8 note=72 velocity=85 time=0
EXTRACT: note_on channel=9 note=84 velocity=0 time=0.5498194270833333
EXTRACT: note_on channel=9 note=84 velocity=15 time=0.0057875729166666666
EXTRACT: note_on channel=3 note=58 velocity=118 time=0.2778035
EXTRACT: note_on channel=3 note=58 velocity=0 time=0.16205204166666667
EXTRACT: note_on channel=8 note=44 velocity=0 time=0.10417631249999999
EXTRACT: note_on channel=8 note=56 velocity=0 time=0.0057875729166666666
EXTRACT: note_on channel=8 note=63 velocity=0 time=0
EXTRACT: note_on channel=9 note=84 velocity=0 time=0.0028937864583333333
EXTRACT: note_on channel=6 note=63 velocity=0 time=0
EXTRACT: note_on channel=8 note=68 velocity=0 time=0
EXTRACT: note_on channel=9 note=36 velocity=127 time=0.0028937864583333333
EXTRACT: note_on channel=9 note=49 velocity=78 time=0
EXTRACT: note_on channel=3 note=61 velocity=125 time=0
EXTRACT: note_on channel=8 note=72 velocity=0 time=0
EXTRACT: note_on channel=8 note=46 velocity=96 time=0
EXTRACT: note_on channel=8 note=58 velocity=93 time=0
EXTRACT: note_on channel=8 note=61 velocity=98 time=0
EXTRACT: note_on channel=8 note=65 velocity=97 time=0
EXTRACT: note_on channel=8 note=70 velocity=94 time=0
EXTRACT: note_on channel=6 note=68 velocity=0 time=0.0028937864583333333
EXTRACT: note_on channel=3 note=61 velocity=0 time=0.10417631249999999
EXTRACT: note_on channel=3 note=61 velocity=101 time=0.17073340104166668
EXTRACT: note_on channel=3 note=61 velocity=0 time=0.13600796354166667
EXTRACT: note_on channel=3 note=63 velocity=123 time=0.0028937864583333333
EXTRACT: note_on channel=3 note=63 velocity=0 time=0.29516621875
EXTRACT: note_on channel=3 note=58 velocity=108 time=0.12153903125
EXTRACT: note_on channel=9 note=36 velocity=0 time=0.13600796354166667
EXTRACT: note_on channel=3 note=58 velocity=0 time=0.01736271875
EXTRACT: note_on channel=3 note=61 velocity=124 time=0.12443281770833334
EXTRACT: note_on channel=3 note=61 velocity=0 time=0.10707009895833333
EXTRACT: note_on channel=3 note=61 velocity=124 time=0.17073340104166668
EXTRACT: note_on channel=3 note=61 velocity=0 time=0.17941476041666665
EXTRACT: note_on channel=3 note=63 velocity=127 time=0.09838873958333333
EXTRACT: note_on channel=3 note=63 velocity=0 time=0.28937864583333334
EXTRACT: note_on channel=9 note=49 velocity=0 time=0.130220390625
EXTRACT: note_on channel=8 note=46 velocity=0 time=0.12443281770833334
EXTRACT: note_on channel=8 note=58 velocity=0 time=0.0028937864583333333
EXTRACT: note_on channel=8 note=61 velocity=0 time=0.0028937864583333333
EXTRACT: note_on channel=8 note=65 velocity=0 time=0.0028937864583333333
EXTRACT: note_on channel=8 note=70 velocity=0 time=0
EXTRACT: note_on channel=6 note=65 velocity=62 time=0.0028937864583333333
EXTRACT: note_on channel=6 note=70 velocity=48 time=0
EXTRACT: note_on channel=8 note=41 velocity=93 time=0
EXTRACT: note_on channel=8 note=53 velocity=97 time=0
EXTRACT: note_on channel=8 note=60 velocity=90 time=0
EXTRACT: note_on channel=8 note=65 velocity=93 time=0
EXTRACT: note_on channel=8 note=70 velocity=86 time=0
EXTRACT: note_on channel=8 note=60 velocity=0 time=1.0996388541666666
EXTRACT: note_on channel=8 note=65 velocity=0 time=0.0028937864583333333
EXTRACT: note_on channel=8 note=70 velocity=0 time=0.0028937864583333333
EXTRACT: note_on channel=6 note=65 velocity=0 time=0.0028937864583333333
EXTRACT: note_on channel=6 note=70 velocity=0 time=0.0028937864583333333
EXTRACT: note_on channel=6 note=65 velocity=62 time=0
EXTRACT: note_on channel=6 note=72 velocity=65 time=0
EXTRACT: note_on channel=8 note=65 velocity=91 time=0
EXTRACT: note_on channel=8 note=69 velocity=90 time=0
EXTRACT: note_on channel=8 note=72 velocity=95 time=0
EXTRACT: note_on channel=3 note=56 velocity=127 time=0.8334104999999999
EXTRACT: note_on channel=8 note=41 velocity=0 time=0.2662283541666667
EXTRACT: note_on channel=8 note=53 velocity=0 time=0.0028937864583333333
EXTRACT: note_on channel=3 note=56 velocity=0 time=0.0057875729166666666
EXTRACT: note_on channel=6 note=65 velocity=0 time=0
EXTRACT: note_on channel=3 note=54 velocity=104 time=0.0028937864583333333
EXTRACT: note_on channel=6 note=72 velocity=0 time=0
EXTRACT: note_on channel=6 note=66 velocity=62 time=0
EXTRACT: note_on channel=6 note=72 velocity=58 time=0
EXTRACT: note_on channel=8 note=72 velocity=0 time=0
EXTRACT: note_on channel=8 note=65 velocity=0 time=0
EXTRACT: note_on channel=8 note=42 velocity=98 time=0
EXTRACT: note_on channel=8 note=54 velocity=95 time=0
EXTRACT: note_on channel=8 note=61 velocity=97 time=0
EXTRACT: note_on channel=8 note=66 velocity=94 time=0
EXTRACT: note_on channel=8 note=72 velocity=92 time=0
EXTRACT: note_on channel=8 note=69 velocity=0 time=0.0028937864583333333
EXTRACT: note_on channel=3 note=54 velocity=0 time=0.27201592708333333
EXTRACT: note_on channel=3 note=56 velocity=123 time=0.0028937864583333333
EXTRACT: note_on channel=3 note=56 velocity=0 time=0.27490971354166666
EXTRACT: note_on channel=3 note=58 velocity=118 time=0.0028937864583333333
EXTRACT: note_on channel=3 note=58 velocity=0 time=0.23729048958333332
EXTRACT: note_on channel=3 note=61 velocity=123 time=0.04051301041666667
EXTRACT: note_on channel=8 note=42 velocity=0 time=0.2662283541666667
EXTRACT: note_on channel=8 note=54 velocity=0 time=0.0028937864583333333
EXTRACT: note_on channel=8 note=61 velocity=0 time=0.0028937864583333333
EXTRACT: note_on channel=3 note=61 velocity=0 time=0.0028937864583333333
EXTRACT: note_on channel=6 note=72 velocity=0 time=0
EXTRACT: note_on channel=6 note=66 velocity=0 time=0
EXTRACT: note_on channel=8 note=66 velocity=0 time=0
EXTRACT: note_on channel=8 note=72 velocity=0 time=0
EXTRACT: note_on channel=3 note=63 velocity=119 time=0.0028937864583333333
EXTRACT: note_on channel=6 note=66 velocity=48 time=0
EXTRACT: note_on channel=6 note=70 velocity=48 time=0
EXTRACT: note_on channel=8 note=42 velocity=97 time=0
EXTRACT: note_on channel=8 note=54 velocity=94 time=0
EXTRACT: note_on channel=8 note=61 velocity=89 time=0
EXTRACT: note_on channel=8 note=66 velocity=93 time=0
EXTRACT: note_on channel=8 note=70 velocity=85 time=0
EXTRACT: note_on channel=3 note=63 velocity=0 time=0.20545883854166666
EXTRACT: note_on channel=3 note=65 velocity=121 time=0.07234466145833333
EXTRACT: note_on channel=3 note=65 velocity=0 time=0.26333456770833336
EXTRACT: note_on channel=3 note=63 velocity=121 time=0.014468932291666667
EXTRACT: note_on channel=3 note=63 velocity=0 time=0.24597184895833332
EXTRACT: note_on channel=3 note=65 velocity=127 time=0.031831651041666666
EXTRACT: note_on channel=8 note=42 velocity=0 time=0.2662283541666667
EXTRACT: note_on channel=8 note=54 velocity=0 time=0.0028937864583333333
EXTRACT: note_on channel=8 note=61 velocity=0 time=0.0028937864583333333
EXTRACT: note_on channel=3 note=65 velocity=0 time=0.0028937864583333333
EXTRACT: note_on channel=6 note=70 velocity=0 time=0
EXTRACT: note_on channel=6 note=66 velocity=0 time=0
EXTRACT: note_on channel=8 note=66 velocity=0 time=0
EXTRACT: note_on channel=3 note=63 velocity=115 time=0.0028937864583333333
EXTRACT: note_on channel=6 note=68 velocity=62 time=0
EXTRACT: note_on channel=6 note=73 velocity=48 time=0
EXTRACT: note_on channel=8 note=70 velocity=0 time=0
EXTRACT: note_on channel=8 note=44 velocity=98 time=0
EXTRACT: note_on channel=8 note=56 velocity=95 time=0
EXTRACT: note_on channel=8 note=63 velocity=97 time=0
EXTRACT: note_on channel=8 note=68 velocity=94 time=0
EXTRACT: note_on channel=8 note=73 velocity=92 time=0
EXTRACT: note_on channel=3 note=63 velocity=0 time=0.27490971354166666
EXTRACT: note_on channel=3 note=65 velocity=120 time=0.2806972864583333
EXTRACT: note_on channel=3 note=65 velocity=0 time=0.27490971354166666
EXTRACT: note_on channel=8 note=44 velocity=0 time=0.269122140625
EXTRACT: note_on channel=8 note=56 velocity=0 time=0.0028937864583333333
EXTRACT: note_on channel=8 note=63 velocity=0 time=0.0028937864583333333
EXTRACT: note_on channel=6 note=73 velocity=0 time=0.0028937864583333333
EXTRACT: note_on channel=6 note=68 velocity=0 time=0
EXTRACT: note_on channel=8 note=68 velocity=0 time=0
EXTRACT: note_on channel=3 note=63 velocity=118 time=0.0028937864583333333
EXTRACT: note_on channel=6 note=68 velocity=62 time=0
EXTRACT: note_on channel=6 note=72 velocity=48 time=0
EXTRACT: note_on channel=8 note=73 velocity=0 time=0
EXTRACT: note_on channel=8 note=44 velocity=97 time=0
EXTRACT: note_on channel=8 note=56 velocity=94 time=0
EXTRACT: note_on channel=8 note=63 velocity=89 time=0
EXTRACT: note_on channel=8 note=68 velocity=93 time=0
EXTRACT: note_on channel=8 note=72 velocity=85 time=0
EXTRACT: note_on channel=10 note=65 velocity=118 time=0.13890175
EXTRACT: note_on channel=3 note=63 velocity=0 time=0.13600796354166667
EXTRACT: note_on channel=3 note=61 velocity=116 time=0.2806972864583333
EXTRACT: note_on channel=3 note=61 velocity=0 time=0.130220390625
EXTRACT: note_on channel=3 note=60 velocity=119 time=0.147583109375
EXTRACT: control_change channel=9 control=91 value=52 time=0.2546532083333333
EXTRACT: note_on channel=8 note=72 velocity=0 time=0.011575145833333333
EXTRACT: note_on channel=8 note=44 velocity=0 time=0
EXTRACT: note_on channel=8 note=68 velocity=0 time=0.0028937864583333333
EXTRACT: note_on channel=8 note=63 velocity=0 time=0
EXTRACT: note_on channel=8 note=56 velocity=0 time=0.0028937864583333333
EXTRACT: note_on channel=6 note=68 velocity=0 time=0.0028937864583333333
EXTRACT: note_on channel=10 note=65 velocity=0 time=0
EXTRACT: note_on channel=9 note=36 velocity=114 time=0.0028937864583333333
EXTRACT: note_on channel=9 note=42 velocity=118 time=0
EXTRACT: note_on channel=9 note=49 velocity=64 time=0
EXTRACT: note_on channel=0 note=10 velocity=127 time=0
EXTRACT: note_on channel=2 note=34 velocity=127 time=0
EXTRACT: note_on channel=5 note=46 velocity=72 time=0
EXTRACT: note_on channel=6 note=72 velocity=0 time=0
EXTRACT: note_on channel=8 note=34 velocity=88 time=0
EXTRACT: note_on channel=5 note=46 velocity=0 time=0.008681359375
EXTRACT: control_change channel=0 control=65 value=127 time=0.0028937864583333333
EXTRACT: control_change channel=0 control=5 value=107 time=0
EXTRACT: note_on channel=2 note=34 velocity=0 time=0
EXTRACT: control_change channel=2 control=65 value=127 time=0
EXTRACT: control_change channel=5 control=65 value=127 time=0
EXTRACT: note_on channel=8 note=34 velocity=0 time=0
EXTRACT: control_change channel=8 control=65 value=127 time=0
EXTRACT: control_change channel=2 control=5 value=101 time=0.0028937864583333333
EXTRACT: control_change channel=5 control=5 value=101 time=0
EXTRACT: control_change channel=8 control=5 value=103 time=0
EXTRACT: note_on channel=0 note=10 velocity=0 time=0.0028937864583333333
EXTRACT: note_on channel=1 note=10 velocity=127 time=0.0043406796875
EXTRACT: control_change channel=1 control=65 value=127 time=0.011575145833333333
EXTRACT: control_change channel=1 control=5 value=107 time=0
EXTRACT: note_on channel=0 note=34 velocity=127 time=0.0014468932291666666
EXTRACT: note_on channel=2 note=82 velocity=127 time=0
EXTRACT: note_on channel=5 note=82 velocity=72 time=0
EXTRACT: note_on channel=8 note=82 velocity=85 time=0
EXTRACT: note_on channel=1 note=10 velocity=0 time=0.0043406796875
EXTRACT: note_on channel=1 note=34 velocity=127 time=0.01736271875
EXTRACT: note_on channel=9 note=42 velocity=0 time=0.0303847578125
EXTRACT: note_on channel=9 note=36 velocity=0 time=0.095494953125
EXTRACT: note_on channel=3 note=60 velocity=0 time=0.09260116666666666
EXTRACT: note_on channel=3 note=58 velocity=88 time=0.0028937864583333333
EXTRACT: note_on channel=9 note=49 velocity=0 time=0.27490971354166666
EXTRACT: note_on channel=9 note=42 velocity=110 time=0.0028937864583333333
EXTRACT: note_on channel=9 note=42 velocity=0 time=0.10707009895833333
EXTRACT: note_on channel=3 note=58 velocity=0 time=0.39934253124999997
EXTRACT: note_on channel=9 note=42 velocity=118 time=0.049194369791666664
EXTRACT: note_on channel=9 note=42 velocity=0 time=0.09260116666666666
EXTRACT: note_on channel=9 note=42 velocity=110 time=0.46300583333333334
EXTRACT: note_on channel=9 note=42 velocity=0 time=0.10707009895833333
EXTRACT: note_on channel=9 note=36 velocity=64 time=0.17073340104166668
EXTRACT: note_on channel=9 note=36 velocity=0 time=0.10707009895833333
EXTRACT: note_on channel=9 note=36 velocity=109 time=0.17073340104166668
EXTRACT: note_on channel=9 note=42 velocity=118 time=0
EXTRACT: note_on channel=9 note=57 velocity=60 time=0
EXTRACT: note_on channel=9 note=42 velocity=0 time=0.09260116666666666
EXTRACT: note_on channel=9 note=36 velocity=0 time=0.008681359375
EXTRACT: note_on channel=9 note=57 velocity=0 time=0.09260116666666666
EXTRACT: note_on channel=9 note=42 velocity=110 time=0.3617233072916667
EXTRACT: note_on channel=9 note=42 velocity=0 time=0.10707009895833333
EXTRACT: note_on channel=9 note=42 velocity=118 time=0.44853690104166666
EXTRACT: note_on channel=9 note=42 velocity=0 time=0.09260116666666666
EXTRACT: note_on channel=9 note=42 velocity=110 time=0.46300583333333334
EXTRACT: note_on channel=9 note=42 velocity=0 time=0.10707009895833333
EXTRACT: note_on channel=9 note=36 velocity=77 time=0.17073340104166668
EXTRACT: note_on channel=9 note=36 velocity=0 time=0.19967126562499998
EXTRACT: note_on channel=9 note=36 velocity=116 time=0.078132234375
EXTRACT: note_on channel=9 note=42 velocity=118 time=0
EXTRACT: note_on channel=9 note=49 velocity=64 time=0
EXTRACT: note_on channel=9 note=42 velocity=0 time=0.09260116666666666
EXTRACT: note_on channel=9 note=36 velocity=0 time=0.06366330208333333
EXTRACT: note_on channel=9 note=49 velocity=0 time=0.39644874479166664
EXTRACT: note_on channel=9 note=42 velocity=110 time=0.0028937864583333333
EXTRACT: note_on channel=9 note=42 velocity=0 time=0.10707009895833333
EXTRACT: note_on channel=9 note=36 velocity=77 time=0.17073340104166668
EXTRACT: note_on channel=9 note=36 velocity=0 time=0.095494953125
EXTRACT: note_on channel=9 note=36 velocity=112 time=0.182308546875
EXTRACT: note_on channel=9 note=42 velocity=118 time=0
EXTRACT: note_on channel=9 note=57 velocity=60 time=0
EXTRACT: note_on channel=9 note=42 velocity=0 time=0.09260116666666666
EXTRACT: note_on channel=9 note=57 velocity=0 time=0.10128252604166667
EXTRACT: note_on channel=9 note=36 velocity=0 time=0.031831651041666666
EXTRACT: note_on channel=9 note=42 velocity=110 time=0.32989165625
EXTRACT: note_on channel=9 note=42 velocity=0 time=0.10707009895833333
EXTRACT: note_on channel=9 note=36 velocity=76 time=0.17073340104166668
EXTRACT: note_on channel=9 note=36 velocity=0 time=0.10707009895833333
EXTRACT: note_on channel=9 note=36 velocity=109 time=0.17073340104166668
EXTRACT: note_on channel=9 note=39 velocity=81 time=0
EXTRACT: note_on channel=9 note=40 velocity=81 time=0
EXTRACT: note_on channel=9 note=42 velocity=118 time=0
EXTRACT: note_on channel=9 note=49 velocity=64 time=0
EXTRACT: note_on channel=9 note=42 velocity=0 time=0.09260116666666666
EXTRACT: note_on channel=9 note=36 velocity=0 time=0.008681359375
EXTRACT: note_on channel=9 note=39 velocity=0 time=0.054981942708333335
EXTRACT: note_on channel=9 note=40 velocity=0 time=0.0028937864583333333
EXTRACT: note_on channel=9 note=49 velocity=0 time=0.11575145833333333
EXTRACT: note_on channel=9 note=36 velocity=88 time=0.0028937864583333333
EXTRACT: note_on channel=9 note=39 velocity=85 time=0
EXTRACT: note_on channel=9 note=40 velocity=85 time=0
EXTRACT: note_on channel=9 note=42 velocity=96 time=0
EXTRACT: note_on channel=9 note=57 velocity=60 time=0
EXTRACT: note_on channel=9 note=42 velocity=0 time=0.07523844791666666
EXTRACT: note_on channel=9 note=39 velocity=0 time=0.060769515625
EXTRACT: note_on channel=9 note=40 velocity=0 time=0.0028937864583333333
EXTRACT: note_on channel=9 note=57 velocity=0 time=0.054981942708333335
EXTRACT: note_on channel=9 note=36 velocity=0 time=0.0057875729166666666
EXTRACT: note_on channel=9 note=36 velocity=116 time=0.078132234375
EXTRACT: note_on channel=9 note=39 velocity=81 time=0
EXTRACT: note_on channel=9 note=40 velocity=81 time=0
EXTRACT: note_on channel=9 note=42 velocity=110 time=0
EXTRACT: note_on channel=9 note=49 velocity=64 time=0
EXTRACT: note_on channel=9 note=42 velocity=0 time=0.10707009895833333
EXTRACT: note_on channel=9 note=39 velocity=0 time=0.049194369791666664
EXTRACT: note_on channel=9 note=36 velocity=0 time=0
EXTRACT: note_on channel=9 note=40 velocity=0 time=0.0028937864583333333
EXTRACT: note_on channel=9 note=49 velocity=0 time=0.11575145833333333
EXTRACT: note_on channel=9 note=36 velocity=95 time=0.0028937864583333333
EXTRACT: note_on channel=9 note=39 velocity=85 time=0
EXTRACT: note_on channel=9 note=40 velocity=85 time=0
EXTRACT: note_on channel=9 note=42 velocity=86 time=0
EXTRACT: note_on channel=9 note=57 velocity=60 time=0
EXTRACT: note_on channel=9 note=42 velocity=0 time=0.07523844791666666
EXTRACT: note_on channel=9 note=36 velocity=0 time=0.020256505208333334
EXTRACT: note_on channel=9 note=39 velocity=0 time=0.04051301041666667
EXTRACT: note_on channel=9 note=40 velocity=0 time=0.0028937864583333333
EXTRACT: note_on channel=9 note=57 velocity=0 time=0.054981942708333335
EXTRACT: note_on channel=9 note=36 velocity=112 time=0.08391980729166666
EXTRACT: note_on channel=9 note=39 velocity=81 time=0
EXTRACT: note_on channel=9 note=40 velocity=81 time=0
EXTRACT: note_on channel=9 note=42 velocity=118 time=0
EXTRACT: note_on channel=9 note=49 velocity=83 time=0
EXTRACT: note_on channel=5 note=82 velocity=0 time=0.0057875729166666666
EXTRACT: note_on channel=0 note=34 velocity=0 time=0.0028937864583333333
EXTRACT: note_on channel=2 note=82 velocity=0 time=0
EXTRACT: note_on channel=8 note=82 velocity=0 time=0
EXTRACT: note_on channel=1 note=34 velocity=0 time=0.0217033984375
EXTRACT: note_on channel=9 note=42 velocity=0 time=0.05932262239583333
EXTRACT: note_on channel=9 note=49 velocity=0 time=0.04630058333333333
EXTRACT: note_on channel=10 note=65 velocity=127 time=0.0028937864583333333
EXTRACT: note_on channel=9 note=39 velocity=0 time=0.01736271875
EXTRACT: note_on channel=9 note=40 velocity=0 time=0.0028937864583333333
EXTRACT: note_on channel=9 note=36 velocity=0 time=0.06655708854166667
EXTRACT: note_on channel=3 note=65 velocity=121 time=0.32989165625
EXTRACT: note_on channel=3 note=77 velocity=112 time=0
EXTRACT: note_on channel=3 note=77 velocity=0 time=0.21124641145833334
EXTRACT: note_on channel=3 note=65 velocity=0 time=0.04051301041666667
EXTRACT: note_on channel=9 note=42 velocity=67 time=0.026044078124999998
EXTRACT: note_on channel=3 note=63 velocity=115 time=0
EXTRACT: note_on channel=3 note=75 velocity=109 time=0
EXTRACT: note_on channel=3 note=75 velocity=0 time=0.07234466145833333
EXTRACT: note_on channel=9 note=42 velocity=0 time=0.0028937864583333333
EXTRACT: note_on channel=3 note=63 velocity=0 time=0.01736271875
EXTRACT: control_change channel=0 control=65 value=0 time=0.1736271875
EXTRACT: control_change channel=2 control=65 value=0 time=0
EXTRACT: control_change channel=5 control=65 value=0 time=0
EXTRACT: control_change channel=8 control=65 value=0 time=0
EXTRACT: note_on channel=10 note=65 velocity=0 time=0.008681359375
EXTRACT: note_on channel=9 note=36 velocity=114 time=0.0028937864583333333
EXTRACT: note_on channel=9 note=42 velocity=122 time=0
EXTRACT: note_on channel=9 note=49 velocity=83 time=0
EXTRACT: note_on channel=9 note=54 velocity=90 time=0
EXTRACT: note_on channel=0 note=34 velocity=126 time=0
EXTRACT: note_on channel=2 note=73 velocity=88 time=0
EXTRACT: note_on channel=2 note=77 velocity=85 time=0
EXTRACT: note_on channel=2 note=82 velocity=84 time=0
EXTRACT: note_on channel=3 note=63 velocity=120 time=0
EXTRACT: note_on channel=3 note=75 velocity=118 time=0
EXTRACT: note_on channel=5 note=34 velocity=123 time=0
EXTRACT: note_on channel=5 note=46 velocity=92 time=0
EXTRACT: note_on channel=8 note=65 velocity=88 time=0
EXTRACT: note_on channel=8 note=70 velocity=85 time=0
EXTRACT: note_on channel=8 note=73 velocity=84 time=0
EXTRACT: control_change channel=8 control=1 value=33 time=0.0057875729166666666
EXTRACT: control_change channel=1 control=65 value=0 time=0.0043406796875
EXTRACT: note_on channel=1 note=34 velocity=126 time=0.011575145833333333
EXTRACT: note_on channel=9 note=54 velocity=0 time=0.027490971354166668
EXTRACT: note_on channel=9 note=42 velocity=0 time=0.04051301041666667
EXTRACT: note_on channel=9 note=49 velocity=0 time=0.04630058333333333
EXTRACT: note_on channel=9 note=36 velocity=0 time=0
EXTRACT: note_on channel=9 note=54 velocity=42 time=0.0028937864583333333
EXTRACT: note_on channel=9 note=54 velocity=0 time=0.052088156249999996
EXTRACT: note_on channel=9 note=42 velocity=100 time=0.08681359375
EXTRACT: note_on channel=9 note=54 velocity=78 time=0
EXTRACT: note_on channel=9 note=56 velocity=59 time=0
EXTRACT: note_on channel=9 note=80 velocity=127 time=0
EXTRACT: note_on channel=9 note=54 velocity=0 time=0.0347254375
EXTRACT: note_on channel=0 note=34 velocity=0 time=0.0057875729166666666
EXTRACT: note_on channel=1 note=34 velocity=0 time=0.0217033984375
EXTRACT: note_on channel=5 note=34 velocity=0 time=0.0043406796875
EXTRACT: note_on channel=5 note=46 velocity=0 time=0.0028937864583333333
EXTRACT: note_on channel=9 note=56 velocity=0 time=0.0028937864583333333
EXTRACT: note_on channel=9 note=42 velocity=0 time=0.0028937864583333333
EXTRACT: note_on channel=9 note=80 velocity=0 time=0.060769515625
EXTRACT: note_on channel=9 note=54 velocity=54 time=0.0028937864583333333
EXTRACT: note_on channel=9 note=56 velocity=23 time=0
EXTRACT: note_on channel=9 note=54 velocity=0 time=0.07523844791666666
EXTRACT: note_on channel=9 note=56 velocity=0 time=0.060769515625
EXTRACT: note_on channel=9 note=39 velocity=80 time=0.0028937864583333333
EXTRACT: note_on channel=9 note=40 velocity=121 time=0
EXTRACT: note_on channel=9 note=42 velocity=114 time=0
EXTRACT: note_on channel=9 note=54 velocity=85 time=0
EXTRACT: note_on channel=0 note=34 velocity=123 time=0
EXTRACT: note_on channel=5 note=34 velocity=124 time=0
EXTRACT: note_on channel=5 note=46 velocity=93 time=0
EXTRACT: note_on channel=1 note=34 velocity=123 time=0.0217033984375
EXTRACT: note_on channel=9 note=54 velocity=0 time=0.0217033984375
EXTRACT: note_on channel=9 note=42 velocity=0 time=0.06366330208333333
EXTRACT: note_on channel=9 note=40 velocity=0 time=0.028937864583333334
EXTRACT: note_on channel=9 note=39 velocity=0 time=0
EXTRACT: note_on channel=9 note=54 velocity=49 time=0.0028937864583333333
EXTRACT: note_on channel=9 note=54 velocity=0 time=0.07234466145833333
EXTRACT: note_on channel=3 note=63 velocity=0 time=0.054981942708333335
EXTRACT: note_on channel=0 note=34 velocity=0 time=0.0057875729166666666
EXTRACT: note_on channel=5 note=34 velocity=0 time=0
EXTRACT: note_on channel=3 note=75 velocity=0 time=0.0028937864583333333
EXTRACT: note_on channel=9 note=36 velocity=109 time=0.0028937864583333333
EXTRACT: note_on channel=9 note=42 velocity=90 time=0
EXTRACT: note_on channel=9 note=54 velocity=80 time=0
EXTRACT: note_on channel=9 note=56 velocity=59 time=0
EXTRACT: note_on channel=9 note=80 velocity=127 time=0
EXTRACT: note_on channel=0 note=33 velocity=115 time=0
EXTRACT: note_on channel=3 note=61 velocity=116 time=0
EXTRACT: note_on channel=3 note=73 velocity=118 time=0
EXTRACT: note_on channel=4 note=34 velocity=114 time=0
EXTRACT: note_on channel=4 note=46 velocity=121 time=0
EXTRACT: note_on channel=5 note=46 velocity=0 time=0
EXTRACT: note_on channel=5 note=33 velocity=105 time=0
EXTRACT: note_on channel=5 note=45 velocity=74 time=0
EXTRACT: note_on channel=1 note=34 velocity=0 time=0.015915825520833333
EXTRACT: note_on channel=1 note=33 velocity=115 time=0.0057875729166666666
EXTRACT: note_on channel=9 note=54 velocity=0 time=0.0217033984375
EXTRACT: note_on channel=9 note=56 velocity=0 time=0.026044078124999998
EXTRACT: note_on channel=9 note=42 velocity=0 time=0.0057875729166666666
EXTRACT: note_on channel=9 note=36 velocity=0 time=0.031831651041666666
EXTRACT: note_on channel=9 note=80 velocity=0 time=0.028937864583333334
EXTRACT: note_on channel=9 note=54 velocity=52 time=0.0028937864583333333
EXTRACT: note_on channel=9 note=56 velocity=23 time=0
EXTRACT: note_on channel=4 note=34 velocity=0 time=0.011575145833333333
EXTRACT: note_on channel=3 note=73 velocity=0 time=0.020256505208333334
EXTRACT: note_on channel=4 note=46 velocity=0 time=0.014468932291666667
EXTRACT: note_on channel=9 note=54 velocity=0 time=0.0057875729166666666
EXTRACT: note_on channel=0 note=33 velocity=0 time=0.08102602083333334
EXTRACT: note_on channel=5 note=33 velocity=0 time=0
EXTRACT: note_on channel=9 note=56 velocity=0 time=0.0028937864583333333
EXTRACT: note_on channel=9 note=36 velocity=109 time=0.0028937864583333333
EXTRACT: note_on channel=9 note=42 velocity=122 time=0
EXTRACT: note_on channel=9 note=54 velocity=86 time=0
EXTRACT: note_on channel=0 note=32 velocity=113 time=0
EXTRACT: note_on channel=5 note=45 velocity=0 time=0
EXTRACT: note_on channel=5 note=32 velocity=115 time=0
EXTRACT: note_on channel=5 note=44 velocity=84 time=0
EXTRACT: note_on channel=3 note=61 velocity=0 time=0.0057875729166666666
EXTRACT: note_on channel=1 note=33 velocity=0 time=0.010128252604166667
EXTRACT: note_on channel=1 note=32 velocity=113 time=0.0057875729166666666
EXTRACT: note_on channel=9 note=54 velocity=0 time=0.033278544270833335
EXTRACT: note_on channel=9 note=42 velocity=0 time=0.03761922395833333
EXTRACT: note_on channel=9 note=36 velocity=0 time=0.008681359375
EXTRACT: note_on channel=9 note=54 velocity=48 time=0.03761922395833333
EXTRACT: note_on channel=9 note=54 velocity=0 time=0.03761922395833333
EXTRACT: note_on channel=0 note=32 velocity=0 time=0.095494953125
EXTRACT: note_on channel=5 note=32 velocity=0 time=0
EXTRACT: note_on channel=9 note=36 velocity=113 time=0.0057875729166666666
EXTRACT: note_on channel=9 note=42 velocity=100 time=0
EXTRACT: note_on channel=9 note=54 velocity=81 time=0
EXTRACT: note_on channel=9 note=56 velocity=59 time=0
EXTRACT: note_on channel=9 note=80 velocity=127 time=0
EXTRACT: note_on channel=0 note=31 velocity=119 time=0
EXTRACT: note_on channel=4 note=34 velocity=118 time=0
EXTRACT: note_on channel=4 note=46 velocity=122 time=0
EXTRACT: note_on channel=5 note=44 velocity=0 time=0
EXTRACT: note_on channel=5 note=31 velocity=110 time=0
EXTRACT: note_on channel=5 note=43 velocity=79 time=0
EXTRACT: note_on channel=1 note=32 velocity=0 time=0.015915825520833333
EXTRACT: note_on channel=1 note=31 velocity=119 time=0.0057875729166666666
EXTRACT: note_on channel=9 note=54 velocity=0 time=0.0303847578125
EXTRACT: note_on channel=9 note=56 velocity=0 time=0.01736271875
EXTRACT: note_on channel=9 note=42 velocity=0 time=0.0057875729166666666
EXTRACT: note_on channel=9 note=36 velocity=0 time=0.060769515625
EXTRACT: note_on channel=9 note=80 velocity=0 time=0
EXTRACT: note_on channel=9 note=54 velocity=65 time=0.0028937864583333333
EXTRACT: note_on channel=9 note=56 velocity=23 time=0
EXTRACT: note_on channel=4 note=34 velocity=0 time=0.04051301041666667
EXTRACT: note_on channel=4 note=46 velocity=0 time=0.0057875729166666666
EXTRACT: note_on channel=9 note=54 velocity=0 time=0.014468932291666667
EXTRACT: note_on channel=0 note=31 velocity=0 time=0.07234466145833333
EXTRACT: note_on channel=5 note=31 velocity=0 time=0
EXTRACT: note_on channel=9 note=56 velocity=0 time=0.0028937864583333333
EXTRACT: note_on channel=9 note=39 velocity=80 time=0.0028937864583333333
EXTRACT: note_on channel=9 note=40 velocity=121 time=0
EXTRACT: note_on channel=9 note=42 velocity=114 time=0
EXTRACT: note_on channel=9 note=54 velocity=82 time=0
EXTRACT: note_on channel=0 note=30 velocity=114 time=0
EXTRACT: note_on channel=4 note=34 velocity=115 time=0
EXTRACT: note_on channel=4 note=46 velocity=121 time=0
EXTRACT: note_on channel=5 note=43 velocity=0 time=0
EXTRACT: note_on channel=5 note=30 velocity=108 time=0
EXTRACT: note_on channel=5 note=42 velocity=77 time=0
EXTRACT: note_on channel=1 note=31 velocity=0 time=0.015915825520833333
EXTRACT: note_on channel=1 note=30 velocity=114 time=0.0057875729166666666
EXTRACT: note_on channel=9 note=54 velocity=0 time=0.0303847578125
EXTRACT: note_on channel=9 note=42 velocity=0 time=0.054981942708333335
EXTRACT: note_on channel=9 note=40 velocity=0 time=0.028937864583333334
EXTRACT: note_on channel=9 note=39 velocity=0 time=0
EXTRACT: note_on channel=9 note=54 velocity=45 time=0.0028937864583333333
EXTRACT: note_on channel=9 note=54 velocity=0 time=0.03761922395833333
EXTRACT: note_on channel=4 note=34 velocity=0 time=0.008681359375
EXTRACT: note_on channel=4 note=46 velocity=0 time=0.011575145833333333
EXTRACT: note_on channel=5 note=30 velocity=0 time=0.03761922395833333
EXTRACT: note_on channel=5 note=42 velocity=0 time=0.0028937864583333333
EXTRACT: note_on channel=9 note=42 velocity=90 time=0.04051301041666667
EXTRACT: note_on channel=9 note=54 velocity=75 time=0
EXTRACT: note_on channel=9 note=56 velocity=59 time=0
EXTRACT: note_on channel=9 note=80 velocity=127 time=0
EXTRACT: note_on channel=4 note=34 velocity=110 time=0
EXTRACT: note_on channel=4 note=46 velocity=110 time=0
EXTRACT: note_on channel=0 note=30 velocity=0 time=0.028937864583333334
EXTRACT: note_on channel=9 note=54 velocity=0 time=0.011575145833333333
EXTRACT: note_on channel=1 note=30 velocity=0 time=0.010128252604166667
EXTRACT: note_on channel=9 note=56 velocity=0 time=0.0217033984375
EXTRACT: note_on channel=9 note=42 velocity=0 time=0.0028937864583333333
EXTRACT: note_on channel=9 note=80 velocity=0 time=0.060769515625
EXTRACT: note_on channel=9 note=54 velocity=49 time=0.0028937864583333333
EXTRACT: note_on channel=9 note=56 velocity=23 time=0
EXTRACT: note_on channel=9 note=54 velocity=0 time=0.04051301041666667
EXTRACT: note_on channel=4 note=34 velocity=0 time=0.054981942708333335
EXTRACT: note_on channel=4 note=46 velocity=0 time=0.011575145833333333
EXTRACT: note_on channel=8 note=65 velocity=0 time=0.020256505208333334
EXTRACT: note_on channel=2 note=73 velocity=0 time=0.0028937864583333333
EXTRACT: note_on channel=9 note=56 velocity=0 time=0.0057875729166666666
EXTRACT: note_on channel=8 note=70 velocity=0 time=0
EXTRACT: note_on channel=9 note=36 velocity=116 time=0.0028937864583333333
EXTRACT: note_on channel=9 note=42 velocity=122 time=0
EXTRACT: note_on channel=9 note=54 velocity=90 time=0
EXTRACT: note_on channel=9 note=57 velocity=60 time=0
EXTRACT: note_on channel=0 note=30 velocity=124 time=0
EXTRACT: note_on channel=2 note=82 velocity=0 time=0
EXTRACT: note_on channel=2 note=77 velocity=0 time=0
EXTRACT: note_on channel=2 note=73 velocity=86 time=0
EXTRACT: note_on channel=2 note=78 velocity=89 time=0
EXTRACT: note_on channel=2 note=82 velocity=82 time=0
EXTRACT: note_on channel=3 note=61 velocity=116 time=0
EXTRACT: note_on channel=3 note=70 velocity=117 time=0
EXTRACT: note_on channel=5 note=30 velocity=124 time=0
EXTRACT: note_on channel=5 note=42 velocity=93 time=0
EXTRACT: note_on channel=8 note=73 velocity=0 time=0
EXTRACT: note_on channel=8 note=66 velocity=81 time=0
EXTRACT: note_on channel=8 note=70 velocity=84 time=0
EXTRACT: note_on channel=8 note=73 velocity=77 time=0
EXTRACT: note_on channel=1 note=30 velocity=124 time=0.0217033984375
EXTRACT: note_on channel=9 note=54 velocity=0 time=0.027490971354166668
EXTRACT: note_on channel=9 note=42 velocity=0 time=0.043406796875
EXTRACT: note_on channel=9 note=36 velocity=0 time=0.043406796875
EXTRACT: note_on channel=9 note=57 velocity=0 time=0
EXTRACT: note_on channel=9 note=54 velocity=42 time=0.0028937864583333333
EXTRACT: note_on channel=9 note=54 velocity=0 time=0.052088156249999996
EXTRACT: note_on channel=0 note=30 velocity=0 time=0.07234466145833333
EXTRACT: note_on channel=9 note=42 velocity=100 time=0.014468932291666667
EXTRACT: note_on channel=9 note=54 velocity=78 time=0
EXTRACT: note_on channel=9 note=56 velocity=59 time=0
EXTRACT: note_on channel=9 note=80 velocity=127 time=0
EXTRACT: note_on channel=1 note=30 velocity=0 time=0.007234466145833333
EXTRACT: note_on channel=9 note=54 velocity=0 time=0.027490971354166668
EXTRACT: note_on channel=5 note=30 velocity=0 time=0.014468932291666667
EXTRACT: note_on channel=5 note=42 velocity=0 time=0.0028937864583333333
EXTRACT: note_on channel=9 note=56 velocity=0 time=0.020256505208333334
EXTRACT: note_on channel=9 note=42 velocity=0 time=0.0028937864583333333
EXTRACT: note_on channel=9 note=80 velocity=0 time=0.060769515625
EXTRACT: note_on channel=9 note=54 velocity=54 time=0.0028937864583333333
EXTRACT: note_on channel=9 note=56 velocity=23 time=0
EXTRACT: note_on channel=9 note=54 velocity=0 time=0.07523844791666666
EXTRACT: note_on channel=9 note=56 velocity=0 time=0.060769515625
EXTRACT: note_on channel=9 note=39 velocity=80 time=0.0028937864583333333
EXTRACT: note_on channel=9 note=40 velocity=121 time=0
EXTRACT: note_on channel=9 note=42 velocity=114 time=0
EXTRACT: note_on channel=9 note=54 velocity=85 time=0
EXTRACT: note_on channel=0 note=30 velocity=119 time=0
EXTRACT: note_on channel=5 note=30 velocity=121 time=0
EXTRACT: note_on channel=5 note=42 velocity=90 time=0
EXTRACT: note_on channel=1 note=30 velocity=119 time=0.0217033984375
EXTRACT: note_on channel=9 note=54 velocity=0 time=0.0217033984375
EXTRACT: note_on channel=9 note=42 velocity=0 time=0.06366330208333333
EXTRACT: note_on channel=9 note=40 velocity=0 time=0.028937864583333334
EXTRACT: note_on channel=9 note=39 velocity=0 time=0
EXTRACT: note_on channel=9 note=54 velocity=49 time=0.0028937864583333333
EXTRACT: note_on channel=9 note=54 velocity=0 time=0.07234466145833333
EXTRACT: note_on channel=3 note=61 velocity=0 time=0.020256505208333334
EXTRACT: note_on channel=3 note=70 velocity=0 time=0.01736271875
EXTRACT: note_on channel=5 note=30 velocity=0 time=0.0028937864583333333
EXTRACT: note_on channel=5 note=42 velocity=0 time=0.0028937864583333333
EXTRACT: note_on channel=0 note=30 velocity=0 time=0.01736271875
EXTRACT: note_on channel=9 note=36 velocity=111 time=0.0057875729166666666
EXTRACT: note_on channel=9 note=42 velocity=90 time=0
EXTRACT: note_on channel=9 note=54 velocity=80 time=0
EXTRACT: note_on channel=9 note=56 velocity=59 time=0
EXTRACT: note_on channel=9 note=80 velocity=127 time=0
EXTRACT: note_on channel=0 note=32 velocity=122 time=0
EXTRACT: note_on channel=3 note=60 velocity=115 time=0
EXTRACT: note_on channel=3 note=69 velocity=112 time=0
EXTRACT: note_on channel=4 note=34 velocity=114 time=0
EXTRACT: note_on channel=4 note=46 velocity=121 time=0
EXTRACT: note_on channel=5 note=32 velocity=107 time=0
EXTRACT: note_on channel=5 note=44 velocity=76 time=0
EXTRACT: note_on channel=1 note=30 velocity=0 time=0.015915825520833333
EXTRACT: note_on channel=1 note=32 velocity=122 time=0.0057875729166666666
EXTRACT: note_on channel=9 note=54 velocity=0 time=0.0217033984375
EXTRACT: note_on channel=9 note=56 velocity=0 time=0.026044078124999998
EXTRACT: note_on channel=9 note=42 velocity=0 time=0.0057875729166666666
EXTRACT: note_on channel=9 note=36 velocity=0 time=0.020256505208333334
EXTRACT: note_on channel=3 note=60 velocity=0 time=0.011575145833333333
EXTRACT: note_on channel=9 note=80 velocity=0 time=0.028937864583333334
EXTRACT: note_on channel=9 note=54 velocity=52 time=0.0028937864583333333
EXTRACT: note_on channel=9 note=56 velocity=23 time=0
EXTRACT: note_on channel=3 note=69 velocity=0 time=0.008681359375
EXTRACT: note_on channel=4 note=34 velocity=0 time=0.0028937864583333333
EXTRACT: note_on channel=4 note=46 velocity=0 time=0.0347254375
EXTRACT: note_on channel=9 note=54 velocity=0 time=0.0057875729166666666
EXTRACT: note_on channel=2 note=73 velocity=0 time=0.07523844791666666
EXTRACT: note_on channel=8 note=66 velocity=0 time=0
EXTRACT: note_on channel=0 note=32 velocity=0 time=0.0057875729166666666
EXTRACT: note_on channel=5 note=32 velocity=0 time=0
EXTRACT: note_on channel=8 note=70 velocity=0 time=0
EXTRACT: note_on channel=9 note=56 velocity=0 time=0.0028937864583333333
EXTRACT: note_on channel=2 note=78 velocity=0 time=0
EXTRACT: note_on channel=9 note=36 velocity=112 time=0.0028937864583333333
EXTRACT: note_on channel=9 note=42 velocity=122 time=0
EXTRACT: note_on channel=9 note=54 velocity=86 time=0
EXTRACT: note_on channel=9 note=57 velocity=79 time=0
EXTRACT: note_on channel=0 note=29 velocity=113 time=0
EXTRACT: note_on channel=2 note=82 velocity=0 time=0
EXTRACT: note_on channel=2 note=72 velocity=87 time=0
EXTRACT: note_on channel=2 note=77 velocity=86 time=0
EXTRACT: note_on channel=2 note=81 velocity=83 time=0
EXTRACT: note_on channel=5 note=44 velocity=0 time=0
EXTRACT: note_on channel=5 note=29 velocity=102 time=0
EXTRACT: note_on channel=5 note=41 velocity=71 time=0
EXTRACT: note_on channel=8 note=73 velocity=0 time=0
EXTRACT: note_on channel=8 note=65 velocity=82 time=0
EXTRACT: note_on channel=8 note=69 velocity=81 time=0
EXTRACT: note_on channel=8 note=72 velocity=78 time=0
EXTRACT: note_on channel=1 note=32 velocity=0 time=0.015915825520833333
EXTRACT: note_on channel=1 note=29 velocity=113 time=0.0057875729166666666
EXTRACT: note_on channel=9 note=54 velocity=0 time=0.03617233072916667
EXTRACT: note_on channel=9 note=42 velocity=0 time=0.0347254375
EXTRACT: note_on channel=9 note=36 velocity=0 time=0.043406796875
EXTRACT: note_on channel=9 note=57 velocity=0 time=0
EXTRACT: note_on channel=9 note=54 velocity=48 time=0.0028937864583333333
EXTRACT: note_on channel=9 note=54 velocity=0 time=0.03761922395833333
EXTRACT: note_on channel=5 note=41 velocity=0 time=0.08970738020833333
EXTRACT: note_on channel=5 note=29 velocity=0 time=0
EXTRACT: note_on channel=9 note=42 velocity=100 time=0.011575145833333333
EXTRACT: note_on channel=9 note=54 velocity=81 time=0
EXTRACT: note_on channel=9 note=56 velocity=59 time=0
EXTRACT: note_on channel=9 note=80 velocity=127 time=0
EXTRACT: note_on channel=4 note=34 velocity=118 time=0
EXTRACT: note_on channel=4 note=46 velocity=122 time=0
EXTRACT: note_on channel=9 note=54 velocity=0 time=0.052088156249999996
EXTRACT: note_on channel=9 note=56 velocity=0 time=0.01736271875
EXTRACT: note_on channel=9 note=42 velocity=0 time=0.0057875729166666666
EXTRACT: note_on channel=0 note=29 velocity=0 time=0.028937864583333334
EXTRACT: note_on channel=1 note=29 velocity=0 time=0.0217033984375
EXTRACT: note_on channel=9 note=80 velocity=0 time=0.010128252604166667
EXTRACT: note_on channel=9 note=54 velocity=65 time=0.0028937864583333333
EXTRACT: note_on channel=9 note=56 velocity=23 time=0
EXTRACT: note_on channel=4 note=34 velocity=0 time=0.043406796875
EXTRACT: note_on channel=4 note=46 velocity=0 time=0.0057875729166666666
EXTRACT: note_on channel=9 note=54 velocity=0 time=0.011575145833333333
EXTRACT: note_on channel=9 note=56 velocity=0 time=0.07523844791666666
EXTRACT: note_on channel=9 note=39 velocity=80 time=0.0028937864583333333
EXTRACT: note_on channel=9 note=40 velocity=121 time=0
EXTRACT: note_on channel=9 note=42 velocity=114 time=0
EXTRACT: note_on channel=9 note=54 velocity=82 time=0
EXTRACT: note_on channel=3 note=65 velocity=118 time=0
EXTRACT: note_on channel=3 note=77 velocity=113 time=0
EXTRACT: note_on channel=4 note=34 velocity=115 time=0
EXTRACT: note_on channel=4 note=46 velocity=121 time=0
EXTRACT: note_on channel=9 note=54 velocity=0 time=0.054981942708333335
EXTRACT: note_on channel=9 note=42 velocity=0 time=0.052088156249999996
EXTRACT: note_on channel=9 note=40 velocity=0 time=0.028937864583333334
EXTRACT: note_on channel=9 note=39 velocity=0 time=0
EXTRACT: note_on channel=9 note=54 velocity=45 time=0.0028937864583333333
EXTRACT: note_on channel=9 note=54 velocity=0 time=0.03761922395833333
EXTRACT: note_on channel=4 note=34 velocity=0 time=0.011575145833333333
EXTRACT: note_on channel=3 note=77 velocity=0 time=0.011575145833333333
EXTRACT: note_on channel=4 note=46 velocity=0 time=0
EXTRACT: note_on channel=3 note=65 velocity=0 time=0.07234466145833333
EXTRACT: note_on channel=9 note=42 velocity=90 time=0.0057875729166666666
EXTRACT: note_on channel=9 note=54 velocity=75 time=0
EXTRACT: note_on channel=9 note=56 velocity=59 time=0
EXTRACT: note_on channel=9 note=80 velocity=127 time=0
EXTRACT: note_on channel=3 note=63 velocity=117 time=0
EXTRACT: note_on channel=3 note=75 velocity=116 time=0
EXTRACT: note_on channel=4 note=34 velocity=110 time=0
EXTRACT: note_on channel=4 note=46 velocity=110 time=0
EXTRACT: note_on channel=9 note=54 velocity=0 time=0.04051301041666667
EXTRACT: note_on channel=9 note=56 velocity=0 time=0.031831651041666666
EXTRACT: note_on channel=9 note=42 velocity=0 time=0.0028937864583333333
EXTRACT: note_on channel=3 note=75 velocity=0 time=0.0057875729166666666
EXTRACT: note_on channel=3 note=63 velocity=0 time=0.011575145833333333
EXTRACT: note_on channel=9 note=80 velocity=0 time=0.043406796875
EXTRACT: note_on channel=9 note=54 velocity=49 time=0.0028937864583333333
EXTRACT: note_on channel=9 note=56 velocity=23 time=0
EXTRACT: note_on channel=9 note=54 velocity=0 time=0.04051301041666667
EXTRACT: note_on channel=4 note=34 velocity=0 time=0.054981942708333335
EXTRACT: note_on channel=4 note=46 velocity=0 time=0.011575145833333333
EXTRACT: note_on channel=8 note=65 velocity=0 time=0.01736271875
EXTRACT: note_on channel=2 note=72 velocity=0 time=0.0028937864583333333
EXTRACT: note_on channel=8 note=69 velocity=0 time=0.0057875729166666666
EXTRACT: note_on channel=9 note=56 velocity=0 time=0.0028937864583333333
EXTRACT: note_on channel=2 note=77 velocity=0 time=0
EXTRACT: note_on channel=9 note=36 velocity=114 time=0.0028937864583333333
EXTRACT: note_on channel=9 note=42 velocity=122 time=0
EXTRACT: note_on channel=9 note=49 velocity=83 time=0
EXTRACT: note_on channel=9 note=54 velocity=90 time=0
EXTRACT: note_on channel=0 note=34 velocity=126 time=0
EXTRACT: note_on channel=2 note=81 velocity=0 time=0
EXTRACT: note_on channel=2 note=73 velocity=88 time=0
EXTRACT: note_on channel=2 note=77 velocity=85 time=0
EXTRACT: note_on channel=2 note=82 velocity=84 time=0
EXTRACT: note_on channel=3 note=63 velocity=117 time=0
EXTRACT: note_on channel=3 note=75 velocity=118 time=0
EXTRACT: note_on channel=5 note=34 velocity=123 time=0
EXTRACT: note_on channel=5 note=46 velocity=92 time=0
EXTRACT: note_on channel=8 note=72 velocity=0 time=0
EXTRACT: note_on channel=8 note=65 velocity=88 time=0
EXTRACT: note_on channel=8 note=70 velocity=85 time=0
EXTRACT: note_on channel=8 note=73 velocity=84 time=0
EXTRACT: note_on channel=1 note=34 velocity=126 time=0.0217033984375
EXTRACT: note_on channel=9 note=54 velocity=0 time=0.027490971354166668
EXTRACT: note_on channel=9 note=42 velocity=0 time=0.043406796875
EXTRACT: note_on channel=9 note=49 velocity=0 time=0.043406796875
EXTRACT: note_on channel=9 note=36 velocity=0 time=0
EXTRACT: note_on channel=9 note=54 velocity=42 time=0.0028937864583333333
EXTRACT: note_on channel=9 note=54 velocity=0 time=0.052088156249999996
EXTRACT: note_on channel=9 note=42 velocity=100 time=0.08681359375
EXTRACT: note_on channel=9 note=54 velocity=78 time=0
EXTRACT: note_on channel=9 note=56 velocity=59 time=0
EXTRACT: note_on channel=9 note=80 velocity=127 time=0
EXTRACT: note_on channel=9 note=54 velocity=0 time=0.0347254375
EXTRACT: note_on channel=0 note=34 velocity=0 time=0.0057875729166666666
EXTRACT: note_on channel=1 note=34 velocity=0 time=0.0217033984375
EXTRACT: note_on channel=5 note=46 velocity=0 time=0.007234466145833333
EXTRACT: note_on channel=5 note=34 velocity=0 time=0
EXTRACT: note_on channel=9 note=56 velocity=0 time=0.0028937864583333333
EXTRACT: note_on channel=9 note=42 velocity=0 time=0.0028937864583333333
EXTRACT: note_on channel=9 note=80 velocity=0 time=0.060769515625
EXTRACT: note_on channel=9 note=54 velocity=54 time=0.0028937864583333333
EXTRACT: note_on channel=9 note=56 velocity=23 time=0
EXTRACT: note_on channel=9 note=54 velocity=0 time=0.07523844791666666
EXTRACT: note_on channel=9 note=56 velocity=0 time=0.060769515625
EXTRACT: note_on channel=9 note=39 velocity=80 time=0.0028937864583333333
EXTRACT: note_on channel=9 note=40 velocity=121 time=0
EXTRACT: note_on channel=9 note=42 velocity=114 time=0
EXTRACT: note_on channel=9 note=54 velocity=85 time=0
EXTRACT: note_on channel=0 note=34 velocity=123 time=0
EXTRACT: note_on channel=5 note=34 velocity=124 time=0
EXTRACT: note_on channel=5 note=46 velocity=93 time=0
EXTRACT: note_on channel=1 note=34 velocity=123 time=0.0217033984375
EXTRACT: note_on channel=9 note=54 velocity=0 time=0.0217033984375
EXTRACT: note_on channel=9 note=42 velocity=0 time=0.06366330208333333
EXTRACT: note_on channel=9 note=40 velocity=0 time=0.028937864583333334
EXTRACT: note_on channel=9 note=39 velocity=0 time=0
EXTRACT: note_on channel=9 note=54 velocity=49 time=0.0028937864583333333
EXTRACT: note_on channel=9 note=54 velocity=0 time=0.07234466145833333
EXTRACT: note_on channel=3 note=63 velocity=0 time=0.043406796875
EXTRACT: note_on channel=3 note=75 velocity=0 time=0.0057875729166666666
EXTRACT: note_on channel=0 note=34 velocity=0 time=0.011575145833333333
EXTRACT: note_on channel=5 note=34 velocity=0 time=0
EXTRACT: note_on channel=9 note=36 velocity=109 time=0.0057875729166666666
EXTRACT: note_on channel=9 note=42 velocity=90 time=0
EXTRACT: note_on channel=9 note=54 velocity=80 time=0
EXTRACT: note_on channel=9 note=56 velocity=59 time=0
EXTRACT: note_on channel=9 note=80 velocity=127 time=0
EXTRACT: note_on channel=0 note=33 velocity=115 time=0
EXTRACT: note_on channel=3 note=61 velocity=112 time=0
EXTRACT: note_on channel=3 note=73 velocity=117 time=0
EXTRACT: note_on channel=4 note=34 velocity=114 time=0
EXTRACT: note_on channel=4 note=46 velocity=121 time=0
EXTRACT: note_on channel=5 note=46 velocity=0 time=0
EXTRACT: note_on channel=5 note=33 velocity=105 time=0
EXTRACT: note_on channel=5 note=45 velocity=74 time=0
EXTRACT: note_on channel=1 note=34 velocity=0 time=0.015915825520833333
EXTRACT: note_on channel=1 note=33 velocity=115 time=0.0057875729166666666
EXTRACT: note_on channel=9 note=54 velocity=0 time=0.0217033984375
EXTRACT: note_on channel=9 note=56 velocity=0 time=0.026044078124999998
EXTRACT: note_on channel=9 note=42 velocity=0 time=0.0057875729166666666
EXTRACT: note_on channel=9 note=36 velocity=0 time=0.031831651041666666
EXTRACT: note_on channel=9 note=80 velocity=0 time=0.028937864583333334
EXTRACT: note_on channel=9 note=54 velocity=52 time=0.0028937864583333333
EXTRACT: note_on channel=9 note=56 velocity=23 time=0
EXTRACT: note_on channel=4 note=34 velocity=0 time=0.011575145833333333
EXTRACT: note_on channel=4 note=46 velocity=0 time=0.0347254375
EXTRACT: note_on channel=9 note=54 velocity=0 time=0.0057875729166666666
EXTRACT: note_on channel=3 note=73 velocity=0 time=0.07523844791666666
EXTRACT: note_on channel=0 note=33 velocity=0 time=0.0057875729166666666
EXTRACT: note_on channel=5 note=33 velocity=0 time=0
EXTRACT: note_on channel=9 note=56 velocity=0 time=0.0028937864583333333
EXTRACT: note_on channel=9 note=36 velocity=109 time=0.0028937864583333333
EXTRACT: note_on channel=9 note=42 velocity=122 time=0
EXTRACT: note_on channel=9 note=54 velocity=86 time=0
EXTRACT: note_on channel=0 note=32 velocity=113 time=0
EXTRACT: note_on channel=5 note=45 velocity=0 time=0
EXTRACT: note_on channel=5 note=32 velocity=115 time=0
EXTRACT: note_on channel=5 note=44 velocity=84 time=0
EXTRACT: note_on channel=1 note=33 velocity=0 time=0.015915825520833333
EXTRACT: note_on channel=1 note=32 velocity=113 time=0.0057875729166666666
EXTRACT: note_on channel=3 note=61 velocity=0 time=0.007234466145833333
EXTRACT: note_on channel=9 note=54 velocity=0 time=0.026044078124999998
EXTRACT: note_on channel=9 note=42 velocity=0 time=0.03761922395833333
EXTRACT: note_on channel=9 note=36 velocity=0 time=0.008681359375
EXTRACT: note_on channel=9 note=54 velocity=48 time=0.03761922395833333
EXTRACT: note_on channel=9 note=54 velocity=0 time=0.03761922395833333
EXTRACT: note_on channel=0 note=32 velocity=0 time=0.095494953125
EXTRACT: note_on channel=5 note=32 velocity=0 time=0
EXTRACT: note_on channel=9 note=36 velocity=113 time=0.0057875729166666666
EXTRACT: note_on channel=9 note=42 velocity=100 time=0
EXTRACT: note_on channel=9 note=54 velocity=81 time=0
EXTRACT: note_on channel=9 note=56 velocity=59 time=0
EXTRACT: note_on channel=9 note=80 velocity=127 time=0
EXTRACT: note_on channel=0 note=31 velocity=119 time=0
EXTRACT: note_on channel=4 note=34 velocity=118 time=0
EXTRACT: note_on channel=4 note=46 velocity=122 time=0
EXTRACT: note_on channel=5 note=44 velocity=0 time=0
EXTRACT: note_on channel=5 note=31 velocity=110 time=0
EXTRACT: note_on channel=5 note=43 velocity=79 time=0
EXTRACT: note_on channel=1 note=32 velocity=0 time=0.015915825520833333
EXTRACT: note_on channel=1 note=31 velocity=119 time=0.0057875729166666666
EXTRACT: note_on channel=9 note=54 velocity=0 time=0.0303847578125
EXTRACT: note_on channel=9 note=56 velocity=0 time=0.020256505208333334
EXTRACT: note_on channel=9 note=42 velocity=0 time=0.0028937864583333333
EXTRACT: note_on channel=9 note=36 velocity=0 time=0.060769515625
EXTRACT: note_on channel=9 note=80 velocity=0 time=0
EXTRACT: note_on channel=9 note=54 velocity=65 time=0.0028937864583333333
EXTRACT: note_on channel=9 note=56 velocity=23 time=0
EXTRACT: note_on channel=4 note=34 velocity=0 time=0.043406796875
EXTRACT: note_on channel=4 note=46 velocity=0 time=0.0028937864583333333
EXTRACT: note_on channel=9 note=54 velocity=0 time=0.014468932291666667
EXTRACT: note_on channel=0 note=31 velocity=0 time=0.07234466145833333
EXTRACT: note_on channel=5 note=31 velocity=0 time=0
EXTRACT: note_on channel=9 note=56 velocity=0 time=0.0028937864583333333
EXTRACT: note_on channel=9 note=39 velocity=80 time=0.0028937864583333333
EXTRACT: note_on channel=9 note=40 velocity=121 time=0
EXTRACT: note_on channel=9 note=42 velocity=114 time=0
EXTRACT: note_on channel=9 note=54 velocity=82 time=0
EXTRACT: note_on channel=0 note=30 velocity=114 time=0
EXTRACT: note_on channel=4 note=34 velocity=115 time=0
EXTRACT: note_on channel=4 note=46 velocity=121 time=0
EXTRACT: note_on channel=5 note=43 velocity=0 time=0
EXTRACT: note_on channel=5 note=30 velocity=108 time=0
EXTRACT: note_on channel=5 note=42 velocity=77 time=0
EXTRACT: note_on channel=1 note=31 velocity=0 time=0.015915825520833333
EXTRACT: note_on channel=1 note=30 velocity=114 time=0.0057875729166666666
EXTRACT: note_on channel=9 note=54 velocity=0 time=0.033278544270833335
EXTRACT: note_on channel=9 note=42 velocity=0 time=0.052088156249999996
EXTRACT: note_on channel=9 note=40 velocity=0 time=0.028937864583333334
EXTRACT: note_on channel=9 note=39 velocity=0 time=0
EXTRACT: note_on channel=9 note=54 velocity=45 time=0.0028937864583333333
EXTRACT: note_on channel=9 note=54 velocity=0 time=0.03761922395833333
EXTRACT: note_on channel=4 note=34 velocity=0 time=0.008681359375
EXTRACT: note_on channel=4 note=46 velocity=0 time=0.011575145833333333
EXTRACT: note_on channel=5 note=30 velocity=0 time=0.03761922395833333
EXTRACT: note_on channel=5 note=42 velocity=0 time=0.0028937864583333333
EXTRACT: note_on channel=9 note=42 velocity=90 time=0.04051301041666667
EXTRACT: note_on channel=9 note=54 velocity=75 time=0
EXTRACT: note_on channel=9 note=56 velocity=59 time=0
EXTRACT: note_on channel=9 note=80 velocity=127 time=0
EXTRACT: note_on channel=4 note=34 velocity=110 time=0
EXTRACT: note_on channel=4 note=46 velocity=110 time=0
EXTRACT: note_on channel=0 note=30 velocity=0 time=0.028937864583333334
EXTRACT: note_on channel=9 note=54 velocity=0 time=0.011575145833333333
EXTRACT: note_on channel=1 note=30 velocity=0 time=0.010128252604166667
EXTRACT: note_on channel=9 note=56 velocity=0 time=0.0217033984375
EXTRACT: note_on channel=9 note=42 velocity=0 time=0.0028937864583333333
EXTRACT: note_on channel=9 note=80 velocity=0 time=0.060769515625
EXTRACT: note_on channel=9 note=54 velocity=49 time=0.0028937864583333333
EXTRACT: note_on channel=9 note=56 velocity=23 time=0
EXTRACT: note_on channel=9 note=54 velocity=0 time=0.04051301041666667
EXTRACT: note_on channel=4 note=34 velocity=0 time=0.054981942708333335
EXTRACT: note_on channel=4 note=46 velocity=0 time=0.011575145833333333
EXTRACT: note_on channel=8 note=65 velocity=0 time=0.01736271875
EXTRACT: note_on channel=2 note=73 velocity=0 time=0.0028937864583333333
EXTRACT: note_on channel=8 note=70 velocity=0 time=0.0057875729166666666
EXTRACT: note_on channel=9 note=56 velocity=0 time=0.0028937864583333333
EXTRACT: note_on channel=2 note=77 velocity=0 time=0
EXTRACT: note_on channel=9 note=36 velocity=116 time=0.0028937864583333333
EXTRACT: note_on channel=9 note=42 velocity=122 time=0
EXTRACT: note_on channel=9 note=54 velocity=90 time=0
EXTRACT: note_on channel=9 note=57 velocity=60 time=0
EXTRACT: note_on channel=0 note=30 velocity=124 time=0
EXTRACT: note_on channel=2 note=82 velocity=0 time=0
EXTRACT: note_on channel=2 note=73 velocity=86 time=0
EXTRACT: note_on channel=2 note=78 velocity=89 time=0
EXTRACT: note_on channel=2 note=82 velocity=82 time=0
EXTRACT: note_on channel=3 note=61 velocity=115 time=0
EXTRACT: note_on channel=3 note=70 velocity=117 time=0
EXTRACT: note_on channel=5 note=30 velocity=124 time=0
EXTRACT: note_on channel=5 note=42 velocity=93 time=0
EXTRACT: note_on channel=8 note=73 velocity=0 time=0
EXTRACT: note_on channel=8 note=66 velocity=81 time=0
EXTRACT: note_on channel=8 note=70 velocity=84 time=0
EXTRACT: note_on channel=8 note=73 velocity=77 time=0
EXTRACT: note_on channel=1 note=30 velocity=124 time=0.0217033984375
EXTRACT: note_on channel=9 note=54 velocity=0 time=0.027490971354166668
EXTRACT: note_on channel=9 note=42 velocity=0 time=0.043406796875
EXTRACT: note_on channel=9 note=36 velocity=0 time=0.043406796875
EXTRACT: note_on channel=9 note=57 velocity=0 time=0
EXTRACT: note_on channel=9 note=54 velocity=42 time=0.0028937864583333333
EXTRACT: note_on channel=9 note=54 velocity=0 time=0.052088156249999996
EXTRACT: note_on channel=0 note=30 velocity=0 time=0.07234466145833333
EXTRACT: note_on channel=9 note=42 velocity=100 time=0.014468932291666667
EXTRACT: note_on channel=9 note=54 velocity=78 time=0
EXTRACT: note_on channel=9 note=56 velocity=59 time=0
EXTRACT: note_on channel=9 note=80 velocity=127 time=0
EXTRACT: note_on channel=1 note=30 velocity=0 time=0.007234466145833333
EXTRACT: note_on channel=9 note=54 velocity=0 time=0.027490971354166668
EXTRACT: note_on channel=5 note=30 velocity=0 time=0.014468932291666667
EXTRACT: note_on channel=5 note=42 velocity=0 time=0.0028937864583333333
EXTRACT: note_on channel=9 note=56 velocity=0 time=0.020256505208333334
EXTRACT: note_on channel=9 note=42 velocity=0 time=0.0028937864583333333
EXTRACT: note_on channel=9 note=80 velocity=0 time=0.060769515625
EXTRACT: note_on channel=9 note=54 velocity=54 time=0.0028937864583333333
EXTRACT: note_on channel=9 note=56 velocity=23 time=0
EXTRACT: note_on channel=9 note=54 velocity=0 time=0.07523844791666666
EXTRACT: note_on channel=9 note=56 velocity=0 time=0.060769515625
EXTRACT: note_on channel=9 note=39 velocity=80 time=0.0028937864583333333
EXTRACT: note_on channel=9 note=40 velocity=121 time=0
EXTRACT: note_on channel=9 note=42 velocity=114 time=0
EXTRACT: note_on channel=9 note=54 velocity=85 time=0
EXTRACT: note_on channel=0 note=30 velocity=119 time=0
EXTRACT: note_on channel=5 note=30 velocity=121 time=0
EXTRACT: note_on channel=5 note=42 velocity=90 time=0
EXTRACT: note_on channel=1 note=30 velocity=119 time=0.0217033984375
EXTRACT: note_on channel=9 note=54 velocity=0 time=0.0217033984375
EXTRACT: note_on channel=9 note=42 velocity=0 time=0.06366330208333333
EXTRACT: note_on channel=9 note=40 velocity=0 time=0.028937864583333334
EXTRACT: note_on channel=9 note=39 velocity=0 time=0
EXTRACT: note_on channel=9 note=54 velocity=49 time=0.0028937864583333333
EXTRACT: note_on channel=9 note=54 velocity=0 time=0.07234466145833333
EXTRACT: note_on channel=3 note=61 velocity=0 time=0.020256505208333334
EXTRACT: note_on channel=5 note=30 velocity=0 time=0.020256505208333334
EXTRACT: note_on channel=5 note=42 velocity=0 time=0.0028937864583333333
EXTRACT: note_on channel=3 note=70 velocity=0 time=0.008681359375
EXTRACT: note_on channel=0 note=30 velocity=0 time=0.008681359375
EXTRACT: note_on channel=9 note=36 velocity=111 time=0.0057875729166666666
EXTRACT: note_on channel=9 note=42 velocity=90 time=0
EXTRACT: note_on channel=9 note=54 velocity=80 time=0
EXTRACT: note_on channel=9 note=56 velocity=59 time=0
EXTRACT: note_on channel=9 note=80 velocity=127 time=0
EXTRACT: note_on channel=0 note=32 velocity=122 time=0
EXTRACT: note_on channel=3 note=60 velocity=112 time=0
EXTRACT: note_on channel=3 note=69 velocity=100 time=0
EXTRACT: note_on channel=4 note=34 velocity=114 time=0
EXTRACT: note_on channel=4 note=46 velocity=121 time=0
EXTRACT: note_on channel=5 note=32 velocity=107 time=0
EXTRACT: note_on channel=5 note=44 velocity=76 time=0
EXTRACT: note_on channel=1 note=30 velocity=0 time=0.015915825520833333
EXTRACT: note_on channel=1 note=32 velocity=122 time=0.0057875729166666666
EXTRACT: note_on channel=9 note=54 velocity=0 time=0.018809611979166665
EXTRACT: note_on channel=9 note=56 velocity=0 time=0.028937864583333334
EXTRACT: note_on channel=9 note=42 velocity=0 time=0.0057875729166666666
EXTRACT: note_on channel=9 note=36 velocity=0 time=0.020256505208333334
EXTRACT: note_on channel=9 note=80 velocity=0 time=0.04051301041666667
EXTRACT: note_on channel=9 note=54 velocity=52 time=0.0028937864583333333
EXTRACT: note_on channel=9 note=56 velocity=23 time=0
EXTRACT: note_on channel=4 note=34 velocity=0 time=0.011575145833333333
EXTRACT: note_on channel=3 note=60 velocity=0 time=0.0028937864583333333
EXTRACT: note_on channel=4 note=46 velocity=0 time=0.031831651041666666
EXTRACT: note_on channel=9 note=54 velocity=0 time=0.0057875729166666666
EXTRACT: note_on channel=3 note=69 velocity=0 time=0.026044078124999998
EXTRACT: note_on channel=8 note=66 velocity=0 time=0.049194369791666664
EXTRACT: note_on channel=2 note=73 velocity=0 time=0.0028937864583333333
EXTRACT: note_on channel=0 note=32 velocity=0 time=0.0028937864583333333
EXTRACT: note_on channel=5 note=32 velocity=0 time=0
EXTRACT: note_on channel=8 note=70 velocity=0 time=0
EXTRACT: note_on channel=9 note=56 velocity=0 time=0.0028937864583333333
EXTRACT: note_on channel=2 note=78 velocity=0 time=0
EXTRACT: note_on channel=8 note=73 velocity=0 time=0
EXTRACT: note_on channel=9 note=36 velocity=112 time=0.0028937864583333333
EXTRACT: note_on channel=9 note=42 velocity=122 time=0
EXTRACT: note_on channel=9 note=54 velocity=86 time=0
EXTRACT: note_on channel=9 note=57 velocity=79 time=0
EXTRACT: note_on channel=0 note=29 velocity=113 time=0
EXTRACT: note_on channel=2 note=82 velocity=0 time=0
EXTRACT: note_on channel=2 note=72 velocity=87 time=0
EXTRACT: note_on channel=2 note=77 velocity=86 time=0
EXTRACT: note_on channel=2 note=81 velocity=83 time=0
EXTRACT: note_on channel=5 note=44 velocity=0 time=0
EXTRACT: note_on channel=5 note=29 velocity=102 time=0
EXTRACT: note_on channel=5 note=41 velocity=71 time=0
EXTRACT: note_on channel=8 note=65 velocity=82 time=0
EXTRACT: note_on channel=8 note=69 velocity=81 time=0
EXTRACT: note_on channel=8 note=72 velocity=78 time=0
EXTRACT: note_on channel=1 note=32 velocity=0 time=0.015915825520833333
EXTRACT: note_on channel=1 note=29 velocity=113 time=0.0057875729166666666
EXTRACT: note_on channel=9 note=54 velocity=0 time=0.03617233072916667
EXTRACT: note_on channel=9 note=42 velocity=0 time=0.0347254375
EXTRACT: note_on channel=9 note=36 velocity=0 time=0.043406796875
EXTRACT: note_on channel=9 note=57 velocity=0 time=0
EXTRACT: note_on channel=9 note=54 velocity=48 time=0.0028937864583333333
EXTRACT: note_on channel=9 note=54 velocity=0 time=0.03761922395833333
EXTRACT: note_on channel=5 note=29 velocity=0 time=0.08970738020833333
EXTRACT: note_on channel=5 note=41 velocity=0 time=0.0028937864583333333
EXTRACT: note_on channel=9 note=42 velocity=100 time=0.008681359375
EXTRACT: note_on channel=9 note=54 velocity=81 time=0
EXTRACT: note_on channel=9 note=56 velocity=59 time=0
EXTRACT: note_on channel=9 note=80 velocity=127 time=0
EXTRACT: note_on channel=4 note=34 velocity=118 time=0
EXTRACT: note_on channel=4 note=46 velocity=122 time=0
EXTRACT: note_on channel=9 note=54 velocity=0 time=0.052088156249999996
EXTRACT: note_on channel=9 note=56 velocity=0 time=0.020256505208333334
EXTRACT: note_on channel=9 note=42 velocity=0 time=0.0028937864583333333
EXTRACT: note_on channel=0 note=29 velocity=0 time=0.028937864583333334
EXTRACT: note_on channel=1 note=29 velocity=0 time=0.0217033984375
EXTRACT: note_on channel=9 note=80 velocity=0 time=0.010128252604166667
EXTRACT: note_on channel=9 note=54 velocity=65 time=0.0028937864583333333
EXTRACT: note_on channel=9 note=56 velocity=23 time=0
EXTRACT: note_on channel=4 note=34 velocity=0 time=0.043406796875
EXTRACT: note_on channel=4 note=46 velocity=0 time=0.0057875729166666666
EXTRACT: note_on channel=9 note=54 velocity=0 time=0.011575145833333333
EXTRACT: note_on channel=9 note=56 velocity=0 time=0.07523844791666666
EXTRACT: note_on channel=9 note=39 velocity=80 time=0.0028937864583333333
EXTRACT: note_on channel=9 note=40 velocity=121 time=0
EXTRACT: note_on channel=9 note=42 velocity=114 time=0
EXTRACT: note_on channel=9 note=54 velocity=82 time=0
EXTRACT: note_on channel=3 note=65 velocity=117 time=0
EXTRACT: note_on channel=3 note=77 velocity=105 time=0
EXTRACT: note_on channel=4 note=34 velocity=115 time=0
EXTRACT: note_on channel=4 note=46 velocity=121 time=0
EXTRACT: note_on channel=9 note=54 velocity=0 time=0.054981942708333335
EXTRACT: note_on channel=9 note=42 velocity=0 time=0.052088156249999996
EXTRACT: note_on channel=9 note=40 velocity=0 time=0.028937864583333334
EXTRACT: note_on channel=9 note=39 velocity=0 time=0
EXTRACT: note_on channel=9 note=54 velocity=45 time=0.0028937864583333333
EXTRACT: note_on channel=9 note=54 velocity=0 time=0.03761922395833333
EXTRACT: note_on channel=4 note=34 velocity=0 time=0.011575145833333333
EXTRACT: note_on channel=4 note=46 velocity=0 time=0.011575145833333333
EXTRACT: note_on channel=3 note=65 velocity=0 time=0.07234466145833333
EXTRACT: note_on channel=3 note=77 velocity=0 time=0.0028937864583333333
EXTRACT: note_on channel=9 note=42 velocity=90 time=0.0028937864583333333
EXTRACT: note_on channel=9 note=54 velocity=75 time=0
EXTRACT: note_on channel=9 note=56 velocity=59 time=0
EXTRACT: note_on channel=9 note=80 velocity=127 time=0
EXTRACT: note_on channel=3 note=63 velocity=117 time=0
EXTRACT: note_on channel=3 note=75 velocity=112 time=0
EXTRACT: note_on channel=4 note=34 velocity=110 time=0
EXTRACT: note_on channel=4 note=46 velocity=110 time=0
EXTRACT: note_on channel=9 note=54 velocity=0 time=0.04051301041666667
EXTRACT: note_on channel=9 note=56 velocity=0 time=0.031831651041666666
EXTRACT: note_on channel=9 note=42 velocity=0 time=0.0028937864583333333
EXTRACT: note_on channel=3 note=75 velocity=0 time=0.008681359375
EXTRACT: note_on channel=3 note=63 velocity=0 time=0.01736271875
EXTRACT: note_on channel=9 note=80 velocity=0 time=0.0347254375
EXTRACT: note_on channel=9 note=54 velocity=49 time=0.0028937864583333333
EXTRACT: note_on channel=9 note=56 velocity=23 time=0
EXTRACT: note_on channel=9 note=54 velocity=0 time=0.04051301041666667
EXTRACT: note_on channel=4 note=34 velocity=0 time=0.054981942708333335
EXTRACT: note_on channel=4 note=46 velocity=0 time=0.011575145833333333
EXTRACT: note_on channel=8 note=65 velocity=0 time=0.01736271875
EXTRACT: note_on channel=2 note=72 velocity=0 time=0.0028937864583333333
EXTRACT: note_on channel=8 note=69 velocity=0 time=0.0057875729166666666
EXTRACT: note_on channel=9 note=56 velocity=0 time=0.0028937864583333333
EXTRACT: note_on channel=2 note=77 velocity=0 time=0
EXTRACT: note_on channel=9 note=36 velocity=114 time=0.0028937864583333333
EXTRACT: note_on channel=9 note=42 velocity=122 time=0
EXTRACT: note_on channel=9 note=49 velocity=83 time=0
EXTRACT: note_on channel=9 note=54 velocity=90 time=0
EXTRACT: note_on channel=0 note=34 velocity=126 time=0
EXTRACT: note_on channel=2 note=81 velocity=0 time=0
EXTRACT: note_on channel=2 note=73 velocity=88 time=0
EXTRACT: note_on channel=2 note=77 velocity=85 time=0
EXTRACT: note_on channel=2 note=82 velocity=84 time=0
EXTRACT: note_on channel=3 note=63 velocity=116 time=0
EXTRACT: note_on channel=3 note=75 velocity=118 time=0
EXTRACT: note_on channel=5 note=34 velocity=123 time=0
EXTRACT: note_on channel=5 note=46 velocity=92 time=0
EXTRACT: note_on channel=8 note=72 velocity=0 time=0
EXTRACT: note_on channel=8 note=65 velocity=88 time=0
EXTRACT: note_on channel=8 note=70 velocity=85 time=0
EXTRACT: note_on channel=8 note=73 velocity=84 time=0
EXTRACT: note_on channel=1 note=34 velocity=126 time=0.0217033984375
EXTRACT: note_on channel=9 note=54 velocity=0 time=0.027490971354166668
EXTRACT: note_on channel=9 note=42 velocity=0 time=0.043406796875
EXTRACT: note_on channel=9 note=49 velocity=0 time=0.043406796875
EXTRACT: note_on channel=9 note=36 velocity=0 time=0
EXTRACT: note_on channel=9 note=54 velocity=42 time=0.0028937864583333333
EXTRACT: note_on channel=9 note=54 velocity=0 time=0.052088156249999996
EXTRACT: note_on channel=9 note=42 velocity=100 time=0.08681359375
EXTRACT: note_on channel=9 note=54 velocity=78 time=0
EXTRACT: note_on channel=9 note=56 velocity=59 time=0
EXTRACT: note_on channel=9 note=80 velocity=127 time=0
EXTRACT: note_on channel=9 note=54 velocity=0 time=0.0347254375
EXTRACT: note_on channel=0 note=34 velocity=0 time=0.0057875729166666666
EXTRACT: note_on channel=1 note=34 velocity=0 time=0.0217033984375
EXTRACT: note_on channel=5 note=34 velocity=0 time=0.007234466145833333
EXTRACT: note_on channel=9 note=56 velocity=0 time=0.0028937864583333333
EXTRACT: note_on channel=5 note=46 velocity=0 time=0
EXTRACT: note_on channel=9 note=42 velocity=0 time=0.0028937864583333333
EXTRACT: note_on channel=9 note=80 velocity=0 time=0.060769515625
EXTRACT: note_on channel=9 note=54 velocity=54 time=0.0028937864583333333
EXTRACT: note_on channel=9 note=56 velocity=23 time=0
EXTRACT: note_on channel=9 note=54 velocity=0 time=0.07523844791666666
EXTRACT: note_on channel=9 note=56 velocity=0 time=0.060769515625
EXTRACT: note_on channel=9 note=39 velocity=80 time=0.0028937864583333333
EXTRACT: note_on channel=9 note=40 velocity=121 time=0
EXTRACT: note_on channel=9 note=42 velocity=114 time=0
EXTRACT: note_on channel=9 note=54 velocity=85 time=0
EXTRACT: note_on channel=0 note=34 velocity=123 time=0
EXTRACT: note_on channel=5 note=34 velocity=124 time=0
EXTRACT: note_on channel=5 note=46 velocity=93 time=0
EXTRACT: note_on channel=1 note=34 velocity=123 time=0.0217033984375
EXTRACT: note_on channel=9 note=54 velocity=0 time=0.0217033984375
EXTRACT: note_on channel=9 note=42 velocity=0 time=0.06366330208333333
EXTRACT: note_on channel=9 note=40 velocity=0 time=0.028937864583333334
EXTRACT: note_on channel=9 note=39 velocity=0 time=0
EXTRACT: note_on channel=9 note=54 velocity=49 time=0.0028937864583333333
EXTRACT: note_on channel=9 note=54 velocity=0 time=0.07234466145833333
EXTRACT: note_on channel=3 note=75 velocity=0 time=0.04630058333333333
EXTRACT: note_on channel=3 note=63 velocity=0 time=0.0057875729166666666
EXTRACT: note_on channel=0 note=34 velocity=0 time=0.008681359375
EXTRACT: note_on channel=5 note=34 velocity=0 time=0
EXTRACT: note_on channel=9 note=36 velocity=109 time=0.0057875729166666666
EXTRACT: note_on channel=9 note=42 velocity=90 time=0
EXTRACT: note_on channel=9 note=54 velocity=80 time=0
EXTRACT: note_on channel=9 note=56 velocity=59 time=0
EXTRACT: note_on channel=9 note=80 velocity=127 time=0
EXTRACT: note_on channel=0 note=33 velocity=115 time=0
EXTRACT: note_on channel=3 note=61 velocity=111 time=0
EXTRACT: note_on channel=3 note=73 velocity=118 time=0
EXTRACT: note_on channel=4 note=34 velocity=114 time=0
EXTRACT: note_on channel=4 note=46 velocity=121 time=0
EXTRACT: note_on channel=5 note=46 velocity=0 time=0
EXTRACT: note_on channel=5 note=33 velocity=105 time=0
EXTRACT: note_on channel=5 note=45 velocity=74 time=0
EXTRACT: note_on channel=1 note=34 velocity=0 time=0.015915825520833333
EXTRACT: note_on channel=1 note=33 velocity=115 time=0.0057875729166666666
EXTRACT: note_on channel=9 note=54 velocity=0 time=0.018809611979166665
EXTRACT: note_on channel=9 note=56 velocity=0 time=0.028937864583333334
EXTRACT: note_on channel=9 note=42 velocity=0 time=0.0057875729166666666
EXTRACT: note_on channel=9 note=36 velocity=0 time=0.031831651041666666
EXTRACT: note_on channel=9 note=80 velocity=0 time=0.028937864583333334
EXTRACT: note_on channel=9 note=54 velocity=52 time=0.0028937864583333333
EXTRACT: note_on channel=9 note=56 velocity=23 time=0
EXTRACT: note_on channel=4 note=34 velocity=0 time=0.011575145833333333
EXTRACT: note_on channel=4 note=46 velocity=0 time=0.0347254375
EXTRACT: note_on channel=9 note=54 velocity=0 time=0.0057875729166666666
EXTRACT: note_on channel=0 note=33 velocity=0 time=0.08102602083333334
EXTRACT: note_on channel=5 note=33 velocity=0 time=0
EXTRACT: note_on channel=9 note=56 velocity=0 time=0.0028937864583333333
EXTRACT: note_on channel=9 note=36 velocity=109 time=0.0028937864583333333
EXTRACT: note_on channel=9 note=42 velocity=122 time=0
EXTRACT: note_on channel=9 note=54 velocity=86 time=0
EXTRACT: note_on channel=0 note=32 velocity=113 time=0
EXTRACT: note_on channel=5 note=45 velocity=0 time=0
EXTRACT: note_on channel=5 note=32 velocity=115 time=0
EXTRACT: note_on channel=5 note=44 velocity=84 time=0
EXTRACT: note_on channel=1 note=33 velocity=0 time=0.015915825520833333
EXTRACT: note_on channel=1 note=32 velocity=113 time=0.0057875729166666666
EXTRACT: note_on channel=9 note=54 velocity=0 time=0.03617233072916667
EXTRACT: note_on channel=9 note=42 velocity=0 time=0.0347254375
EXTRACT: note_on channel=9 note=36 velocity=0 time=0.008681359375
EXTRACT: note_on channel=9 note=54 velocity=48 time=0.03761922395833333
EXTRACT: note_on channel=9 note=54 velocity=0 time=0.03761922395833333
EXTRACT: note_on channel=0 note=32 velocity=0 time=0.095494953125
EXTRACT: note_on channel=5 note=32 velocity=0 time=0
EXTRACT: note_on channel=9 note=36 velocity=113 time=0.0057875729166666666
EXTRACT: note_on channel=9 note=42 velocity=100 time=0
EXTRACT: note_on channel=9 note=54 velocity=81 time=0
EXTRACT: note_on channel=9 note=56 velocity=59 time=0
EXTRACT: note_on channel=9 note=80 velocity=127 time=0
EXTRACT: note_on channel=0 note=31 velocity=119 time=0
EXTRACT: note_on channel=4 note=34 velocity=118 time=0
EXTRACT: note_on channel=4 note=46 velocity=122 time=0
EXTRACT: note_on channel=5 note=44 velocity=0 time=0
EXTRACT: note_on channel=5 note=31 velocity=110 time=0
EXTRACT: note_on channel=5 note=43 velocity=79 time=0
EXTRACT: note_on channel=1 note=32 velocity=0 time=0.015915825520833333
EXTRACT: note_on channel=1 note=31 velocity=119 time=0.0057875729166666666
EXTRACT: note_on channel=9 note=54 velocity=0 time=0.0303847578125
EXTRACT: note_on channel=9 note=56 velocity=0 time=0.020256505208333334
EXTRACT: note_on channel=9 note=42 velocity=0 time=0.0028937864583333333
EXTRACT: note_on channel=3 note=61 velocity=0 time=0.020256505208333334
EXTRACT: note_on channel=3 note=73 velocity=0 time=0.023150291666666666
EXTRACT: note_on channel=9 note=36 velocity=0 time=0.01736271875
EXTRACT: note_on channel=9 note=80 velocity=0 time=0
EXTRACT: note_on channel=9 note=54 velocity=65 time=0.0028937864583333333
EXTRACT: note_on channel=9 note=56 velocity=23 time=0
EXTRACT: note_on channel=4 note=34 velocity=0 time=0.04051301041666667
EXTRACT: note_on channel=4 note=46 velocity=0 time=0.0057875729166666666
EXTRACT: note_on channel=9 note=54 velocity=0 time=0.014468932291666667
EXTRACT: note_on channel=0 note=31 velocity=0 time=0.07234466145833333
EXTRACT: note_on channel=5 note=31 velocity=0 time=0
EXTRACT: note_on channel=9 note=56 velocity=0 time=0.0028937864583333333
EXTRACT: note_on channel=9 note=39 velocity=80 time=0.0028937864583333333
EXTRACT: note_on channel=9 note=40 velocity=121 time=0
EXTRACT: note_on channel=9 note=42 velocity=114 time=0
EXTRACT: note_on channel=9 note=54 velocity=82 time=0
EXTRACT: note_on channel=0 note=30 velocity=114 time=0
EXTRACT: note_on channel=4 note=34 velocity=115 time=0
EXTRACT: note_on channel=4 note=46 velocity=121 time=0
EXTRACT: note_on channel=5 note=43 velocity=0 time=0
EXTRACT: note_on channel=5 note=30 velocity=108 time=0
EXTRACT: note_on channel=5 note=42 velocity=77 time=0
EXTRACT: note_on channel=1 note=31 velocity=0 time=0.015915825520833333
EXTRACT: note_on channel=1 note=30 velocity=114 time=0.0057875729166666666
EXTRACT: note_on channel=9 note=54 velocity=0 time=0.033278544270833335
EXTRACT: note_on channel=9 note=42 velocity=0 time=0.052088156249999996
EXTRACT: note_on channel=9 note=40 velocity=0 time=0.028937864583333334
EXTRACT: note_on channel=9 note=39 velocity=0 time=0
EXTRACT: note_on channel=9 note=54 velocity=45 time=0.0028937864583333333
EXTRACT: note_on channel=9 note=54 velocity=0 time=0.03761922395833333
EXTRACT: note_on channel=4 note=34 velocity=0 time=0.008681359375
EXTRACT: note_on channel=4 note=46 velocity=0 time=0.011575145833333333
EXTRACT: note_on channel=5 note=30 velocity=0 time=0.03761922395833333
EXTRACT: note_on channel=5 note=42 velocity=0 time=0.0028937864583333333
EXTRACT: note_on channel=9 note=42 velocity=90 time=0.04051301041666667
EXTRACT: note_on channel=9 note=54 velocity=75 time=0
EXTRACT: note_on channel=9 note=56 velocity=59 time=0
EXTRACT: note_on channel=9 note=80 velocity=127 time=0
EXTRACT: note_on channel=4 note=34 velocity=110 time=0
EXTRACT: note_on channel=4 note=46 velocity=110 time=0
EXTRACT: note_on channel=0 note=30 velocity=0 time=0.028937864583333334
EXTRACT: note_on channel=9 note=54 velocity=0 time=0.011575145833333333
EXTRACT: note_on channel=1 note=30 velocity=0 time=0.010128252604166667
EXTRACT: note_on channel=9 note=56 velocity=0 time=0.0217033984375
EXTRACT: note_on channel=9 note=42 velocity=0 time=0.0028937864583333333
EXTRACT: note_on channel=9 note=80 velocity=0 time=0.060769515625
EXTRACT: note_on channel=9 note=54 velocity=49 time=0.0028937864583333333
EXTRACT: note_on channel=9 note=56 velocity=23 time=0
EXTRACT: note_on channel=9 note=54 velocity=0 time=0.04051301041666667
EXTRACT: note_on channel=4 note=34 velocity=0 time=0.054981942708333335
EXTRACT: note_on channel=4 note=46 velocity=0 time=0.011575145833333333
EXTRACT: note_on channel=8 note=65 velocity=0 time=0.01736271875
EXTRACT: note_on channel=2 note=73 velocity=0 time=0.0028937864583333333
EXTRACT: note_on channel=2 note=77 velocity=0 time=0.0057875729166666666
EXTRACT: note_on channel=8 note=70 velocity=0 time=0
EXTRACT: note_on channel=9 note=56 velocity=0 time=0.0028937864583333333
EXTRACT: note_on channel=2 note=82 velocity=0 time=0
EXTRACT: note_on channel=8 note=73 velocity=0 time=0
EXTRACT: note_on channel=9 note=36 velocity=116 time=0.0028937864583333333
EXTRACT: note_on channel=9 note=42 velocity=122 time=0
EXTRACT: note_on channel=9 note=54 velocity=90 time=0
EXTRACT: note_on channel=9 note=57 velocity=60 time=0
EXTRACT: note_on channel=0 note=30 velocity=124 time=0
EXTRACT: note_on channel=2 note=73 velocity=86 time=0
EXTRACT: note_on channel=2 note=78 velocity=89 time=0
EXTRACT: note_on channel=2 note=82 velocity=82 time=0
EXTRACT: note_on channel=3 note=58 velocity=120 time=0
EXTRACT: note_on channel=3 note=70 velocity=119 time=0
EXTRACT: note_on channel=5 note=30 velocity=124 time=0
EXTRACT: note_on channel=5 note=42 velocity=93 time=0
EXTRACT: note_on channel=8 note=66 velocity=81 time=0
EXTRACT: note_on channel=8 note=70 velocity=84 time=0
EXTRACT: note_on channel=8 note=73 velocity=77 time=0
EXTRACT: note_on channel=1 note=30 velocity=124 time=0.0217033984375
EXTRACT: note_on channel=9 note=54 velocity=0 time=0.027490971354166668
EXTRACT: note_on channel=9 note=42 velocity=0 time=0.043406796875
EXTRACT: note_on channel=9 note=36 velocity=0 time=0.043406796875
EXTRACT: note_on channel=9 note=57 velocity=0 time=0
EXTRACT: note_on channel=9 note=54 velocity=42 time=0.0028937864583333333
EXTRACT: note_on channel=9 note=54 velocity=0 time=0.052088156249999996
EXTRACT: note_on channel=3 note=58 velocity=0 time=0.028937864583333334
EXTRACT: note_on channel=3 note=70 velocity=0 time=0.011575145833333333
EXTRACT: note_on channel=0 note=30 velocity=0 time=0.031831651041666666
EXTRACT: note_on channel=9 note=42 velocity=100 time=0.014468932291666667
EXTRACT: note_on channel=9 note=54 velocity=78 time=0
EXTRACT: note_on channel=9 note=56 velocity=59 time=0
EXTRACT: note_on channel=9 note=80 velocity=127 time=0
EXTRACT: note_on channel=1 note=30 velocity=0 time=0.007234466145833333
EXTRACT: note_on channel=9 note=54 velocity=0 time=0.027490971354166668
EXTRACT: note_on channel=5 note=30 velocity=0 time=0.014468932291666667
EXTRACT: note_on channel=5 note=42 velocity=0 time=0.0028937864583333333
EXTRACT: note_on channel=9 note=56 velocity=0 time=0.020256505208333334
EXTRACT: note_on channel=9 note=42 velocity=0 time=0.0028937864583333333
EXTRACT: note_on channel=9 note=80 velocity=0 time=0.060769515625
EXTRACT: note_on channel=9 note=54 velocity=54 time=0.0028937864583333333
EXTRACT: note_on channel=9 note=56 velocity=23 time=0
EXTRACT: note_on channel=9 note=54 velocity=0 time=0.07523844791666666
EXTRACT: note_on channel=9 note=56 velocity=0 time=0.060769515625
EXTRACT: note_on channel=9 note=39 velocity=80 time=0.0028937864583333333
EXTRACT: note_on channel=9 note=40 velocity=121 time=0
EXTRACT: note_on channel=9 note=42 velocity=114 time=0
EXTRACT: note_on channel=9 note=54 velocity=85 time=0
EXTRACT: note_on channel=0 note=30 velocity=119 time=0
EXTRACT: note_on channel=3 note=61 velocity=118 time=0
EXTRACT: note_on channel=3 note=73 velocity=114 time=0
EXTRACT: note_on channel=5 note=30 velocity=121 time=0
EXTRACT: note_on channel=5 note=42 velocity=90 time=0
EXTRACT: note_on channel=1 note=30 velocity=119 time=0.0217033984375
EXTRACT: note_on channel=9 note=54 velocity=0 time=0.018809611979166665
EXTRACT: note_on channel=9 note=42 velocity=0 time=0.06655708854166667
EXTRACT: note_on channel=9 note=40 velocity=0 time=0.028937864583333334
EXTRACT: note_on channel=9 note=39 velocity=0 time=0
EXTRACT: note_on channel=9 note=54 velocity=49 time=0.0028937864583333333
EXTRACT: note_on channel=9 note=54 velocity=0 time=0.07234466145833333
EXTRACT: note_on channel=5 note=30 velocity=0 time=0.04051301041666667
EXTRACT: note_on channel=5 note=42 velocity=0 time=0.0028937864583333333
EXTRACT: note_on channel=0 note=30 velocity=0 time=0.01736271875
EXTRACT: note_on channel=9 note=36 velocity=111 time=0.0057875729166666666
EXTRACT: note_on channel=9 note=42 velocity=90 time=0
EXTRACT: note_on channel=9 note=54 velocity=80 time=0
EXTRACT: note_on channel=9 note=56 velocity=59 time=0
EXTRACT: note_on channel=9 note=80 velocity=127 time=0
EXTRACT: note_on channel=0 note=32 velocity=122 time=0
EXTRACT: note_on channel=3 note=61 velocity=0 time=0
EXTRACT: note_on channel=4 note=34 velocity=114 time=0
EXTRACT: note_on channel=4 note=46 velocity=121 time=0
EXTRACT: note_on channel=5 note=32 velocity=107 time=0
EXTRACT: note_on channel=5 note=44 velocity=76 time=0
EXTRACT: note_on channel=1 note=30 velocity=0 time=0.015915825520833333
EXTRACT: note_on channel=3 note=73 velocity=0 time=0.0014468932291666666
EXTRACT: note_on channel=1 note=32 velocity=122 time=0.0043406796875
EXTRACT: note_on channel=9 note=54 velocity=0 time=0.0217033984375
EXTRACT: note_on channel=9 note=56 velocity=0 time=0.028937864583333334
EXTRACT: note_on channel=9 note=42 velocity=0 time=0.0028937864583333333
EXTRACT: note_on channel=9 note=36 velocity=0 time=0.020256505208333334
EXTRACT: note_on channel=9 note=80 velocity=0 time=0.04051301041666667
EXTRACT: note_on channel=9 note=54 velocity=52 time=0.0028937864583333333
EXTRACT: note_on channel=9 note=56 velocity=23 time=0
EXTRACT: note_on channel=4 note=34 velocity=0 time=0.014468932291666667
EXTRACT: note_on channel=4 note=46 velocity=0 time=0.0347254375
EXTRACT: note_on channel=9 note=54 velocity=0 time=0.0028937864583333333
EXTRACT: note_on channel=2 note=73 velocity=0 time=0.07523844791666666
EXTRACT: note_on channel=8 note=66 velocity=0 time=0
EXTRACT: note_on channel=0 note=32 velocity=0 time=0.0057875729166666666
EXTRACT: note_on channel=5 note=32 velocity=0 time=0
EXTRACT: note_on channel=8 note=70 velocity=0 time=0
EXTRACT: note_on channel=9 note=56 velocity=0 time=0.0028937864583333333
EXTRACT: note_on channel=2 note=78 velocity=0 time=0
EXTRACT: note_on channel=9 note=36 velocity=112 time=0.0028937864583333333
EXTRACT: note_on channel=9 note=42 velocity=122 time=0
EXTRACT: note_on channel=9 note=54 velocity=86 time=0
EXTRACT: note_on channel=9 note=57 velocity=79 time=0
EXTRACT: note_on channel=0 note=29 velocity=113 time=0
EXTRACT: note_on channel=2 note=82 velocity=0 time=0
EXTRACT: note_on channel=2 note=75 velocity=86 time=0
EXTRACT: note_on channel=2 note=80 velocity=83 time=0
EXTRACT: note_on channel=2 note=84 velocity=87 time=0
EXTRACT: note_on channel=3 note=63 velocity=118 time=0
EXTRACT: note_on channel=3 note=75 velocity=118 time=0
EXTRACT: note_on channel=5 note=44 velocity=0 time=0
EXTRACT: note_on channel=5 note=29 velocity=102 time=0
EXTRACT: note_on channel=5 note=41 velocity=71 time=0
EXTRACT: note_on channel=8 note=73 velocity=0 time=0
EXTRACT: note_on channel=8 note=68 velocity=82 time=0
EXTRACT: note_on channel=8 note=72 velocity=81 time=0
EXTRACT: note_on channel=8 note=75 velocity=78 time=0
EXTRACT: note_on channel=1 note=32 velocity=0 time=0.015915825520833333
EXTRACT: note_on channel=1 note=29 velocity=113 time=0.0057875729166666666
EXTRACT: note_on channel=9 note=54 velocity=0 time=0.033278544270833335
EXTRACT: note_on channel=9 note=42 velocity=0 time=0.03761922395833333
EXTRACT: note_on channel=9 note=36 velocity=0 time=0.043406796875
EXTRACT: note_on channel=9 note=57 velocity=0 time=0
EXTRACT: note_on channel=9 note=54 velocity=48 time=0.0028937864583333333
EXTRACT: note_on channel=9 note=54 velocity=0 time=0.03761922395833333
EXTRACT: note_on channel=5 note=41 velocity=0 time=0.08970738020833333
EXTRACT: note_on channel=5 note=29 velocity=0 time=0
EXTRACT: note_on channel=9 note=42 velocity=100 time=0.011575145833333333
EXTRACT: note_on channel=9 note=54 velocity=81 time=0
EXTRACT: note_on channel=9 note=56 velocity=59 time=0
EXTRACT: note_on channel=9 note=80 velocity=127 time=0
EXTRACT: note_on channel=4 note=34 velocity=118 time=0
EXTRACT: note_on channel=4 note=46 velocity=122 time=0
EXTRACT: note_on channel=9 note=54 velocity=0 time=0.052088156249999996
EXTRACT: note_on channel=9 note=56 velocity=0 time=0.020256505208333334
EXTRACT: note_on channel=9 note=42 velocity=0 time=0.0028937864583333333
EXTRACT: note_on channel=0 note=29 velocity=0 time=0.028937864583333334
EXTRACT: note_on channel=1 note=29 velocity=0 time=0.0217033984375
EXTRACT: note_on channel=9 note=80 velocity=0 time=0.010128252604166667
EXTRACT: note_on channel=9 note=54 velocity=65 time=0.0028937864583333333
EXTRACT: note_on channel=9 note=56 velocity=23 time=0
EXTRACT: note_on channel=4 note=34 velocity=0 time=0.043406796875
EXTRACT: note_on channel=4 note=46 velocity=0 time=0.0057875729166666666
EXTRACT: note_on channel=9 note=54 velocity=0 time=0.011575145833333333
EXTRACT: note_on channel=3 note=63 velocity=0 time=0.069450875
EXTRACT: note_on channel=9 note=56 velocity=0 time=0.0057875729166666666
EXTRACT: note_on channel=3 note=75 velocity=0 time=0
EXTRACT: note_on channel=9 note=39 velocity=80 time=0.0028937864583333333
EXTRACT: note_on channel=9 note=40 velocity=121 time=0
EXTRACT: note_on channel=9 note=42 velocity=114 time=0
EXTRACT: note_on channel=9 note=54 velocity=82 time=0
EXTRACT: note_on channel=3 note=58 velocity=112 time=0
EXTRACT: note_on channel=3 note=70 velocity=116 time=0
EXTRACT: note_on channel=4 note=34 velocity=115 time=0
EXTRACT: note_on channel=4 note=46 velocity=121 time=0
EXTRACT: note_on channel=9 note=54 velocity=0 time=0.054981942708333335
EXTRACT: note_on channel=9 note=42 velocity=0 time=0.052088156249999996
EXTRACT: note_on channel=9 note=40 velocity=0 time=0.028937864583333334
EXTRACT: note_on channel=9 note=39 velocity=0 time=0
EXTRACT: note_on channel=9 note=54 velocity=45 time=0.0028937864583333333
EXTRACT: note_on channel=9 note=54 velocity=0 time=0.03761922395833333
EXTRACT: note_on channel=4 note=34 velocity=0 time=0.011575145833333333
EXTRACT: note_on channel=4 note=46 velocity=0 time=0.011575145833333333
EXTRACT: note_on channel=3 note=58 velocity=0 time=0.07234466145833333
EXTRACT: note_on channel=9 note=42 velocity=90 time=0.0057875729166666666
EXTRACT: note_on channel=9 note=54 velocity=75 time=0
EXTRACT: note_on channel=9 note=56 velocity=59 time=0
EXTRACT: note_on channel=9 note=80 velocity=127 time=0
EXTRACT: note_on channel=3 note=58 velocity=103 time=0
EXTRACT: note_on channel=4 note=34 velocity=110 time=0
EXTRACT: note_on channel=4 note=46 velocity=110 time=0
EXTRACT: note_on channel=9 note=54 velocity=0 time=0.04051301041666667
EXTRACT: note_on channel=9 note=56 velocity=0 time=0.031831651041666666
EXTRACT: note_on channel=9 note=42 velocity=0 time=0.0028937864583333333
EXTRACT: note_on channel=9 note=80 velocity=0 time=0.060769515625
EXTRACT: note_on channel=3 note=70 velocity=0 time=0
EXTRACT: note_on channel=9 note=54 velocity=49 time=0.0028937864583333333
EXTRACT: note_on channel=9 note=56 velocity=23 time=0
EXTRACT: note_on channel=9 note=54 velocity=0 time=0.04051301041666667
EXTRACT: note_on channel=4 note=34 velocity=0 time=0.054981942708333335
EXTRACT: note_on channel=4 note=46 velocity=0 time=0.011575145833333333
EXTRACT: note_on channel=3 note=58 velocity=0 time=0.008681359375
EXTRACT: note_on channel=8 note=68 velocity=0 time=0.008681359375
EXTRACT: note_on channel=2 note=75 velocity=0 time=0.0028937864583333333
EXTRACT: note_on channel=2 note=80 velocity=0 time=0.0057875729166666666
EXTRACT: note_on channel=8 note=72 velocity=0 time=0
EXTRACT: note_on channel=9 note=56 velocity=0 time=0.0028937864583333333
EXTRACT: note_on channel=2 note=84 velocity=0 time=0
EXTRACT: note_on channel=8 note=75 velocity=0 time=0
EXTRACT: note_on channel=9 note=36 velocity=114 time=0.0028937864583333333
EXTRACT: note_on channel=9 note=42 velocity=122 time=0
EXTRACT: note_on channel=9 note=49 velocity=83 time=0
EXTRACT: note_on channel=9 note=54 velocity=90 time=0
EXTRACT: note_on channel=0 note=34 velocity=126 time=0
EXTRACT: note_on channel=2 note=73 velocity=88 time=0
EXTRACT: note_on channel=2 note=77 velocity=85 time=0
EXTRACT: note_on channel=2 note=82 velocity=84 time=0
EXTRACT: note_on channel=5 note=34 velocity=123 time=0
EXTRACT: note_on channel=5 note=46 velocity=92 time=0
EXTRACT: note_on channel=8 note=65 velocity=88 time=0
EXTRACT: note_on channel=8 note=70 velocity=85 time=0
EXTRACT: note_on channel=8 note=73 velocity=84 time=0
EXTRACT: note_on channel=1 note=34 velocity=126 time=0.0217033984375
EXTRACT: note_on channel=9 note=54 velocity=0 time=0.027490971354166668
EXTRACT: note_on channel=9 note=42 velocity=0 time=0.04051301041666667
EXTRACT: note_on channel=9 note=49 velocity=0 time=0.04630058333333333
EXTRACT: note_on channel=9 note=36 velocity=0 time=0
EXTRACT: note_on channel=9 note=54 velocity=42 time=0.0028937864583333333
EXTRACT: note_on channel=9 note=54 velocity=0 time=0.052088156249999996
EXTRACT: note_on channel=9 note=42 velocity=100 time=0.08681359375
EXTRACT: note_on channel=9 note=54 velocity=78 time=0
EXTRACT: note_on channel=9 note=56 velocity=59 time=0
EXTRACT: note_on channel=9 note=80 velocity=127 time=0
EXTRACT: note_on channel=9 note=54 velocity=0 time=0.0347254375
EXTRACT: note_on channel=0 note=34 velocity=0 time=0.0057875729166666666
EXTRACT: note_on channel=1 note=34 velocity=0 time=0.0217033984375
EXTRACT: note_on channel=9 note=56 velocity=0 time=0.007234466145833333
EXTRACT: note_on channel=5 note=34 velocity=0 time=0
EXTRACT: note_on channel=5 note=46 velocity=0 time=0.0028937864583333333
EXTRACT: note_on channel=9 note=42 velocity=0 time=0.0028937864583333333
EXTRACT: note_on channel=9 note=80 velocity=0 time=0.060769515625
EXTRACT: note_on channel=9 note=54 velocity=54 time=0.0028937864583333333
EXTRACT: note_on channel=9 note=56 velocity=23 time=0
EXTRACT: note_on channel=9 note=54 velocity=0 time=0.07523844791666666
EXTRACT: note_on channel=9 note=56 velocity=0 time=0.060769515625
EXTRACT: note_on channel=9 note=39 velocity=80 time=0.0028937864583333333
EXTRACT: note_on channel=9 note=40 velocity=121 time=0
EXTRACT: note_on channel=9 note=42 velocity=114 time=0
EXTRACT: note_on channel=9 note=54 velocity=85 time=0
EXTRACT: note_on channel=0 note=34 velocity=123 time=0
EXTRACT: note_on channel=5 note=34 velocity=124 time=0
EXTRACT: note_on channel=5 note=46 velocity=93 time=0
EXTRACT: note_on channel=1 note=34 velocity=123 time=0.0217033984375
EXTRACT: note_on channel=9 note=54 velocity=0 time=0.0217033984375
EXTRACT: note_on channel=9 note=42 velocity=0 time=0.06366330208333333
EXTRACT: note_on channel=9 note=40 velocity=0 time=0.028937864583333334
EXTRACT: note_on channel=9 note=39 velocity=0 time=0
EXTRACT: note_on channel=9 note=54 velocity=49 time=0.0028937864583333333
EXTRACT: note_on channel=9 note=54 velocity=0 time=0.07234466145833333
EXTRACT: note_on channel=5 note=34 velocity=0 time=0.060769515625
EXTRACT: note_on channel=0 note=34 velocity=0 time=0.0028937864583333333
EXTRACT: note_on channel=9 note=36 velocity=109 time=0.0028937864583333333
EXTRACT: note_on channel=9 note=42 velocity=90 time=0
EXTRACT: note_on channel=9 note=54 velocity=80 time=0
EXTRACT: note_on channel=9 note=56 velocity=59 time=0
EXTRACT: note_on channel=9 note=80 velocity=127 time=0
EXTRACT: note_on channel=0 note=33 velocity=115 time=0
EXTRACT: note_on channel=4 note=34 velocity=114 time=0
EXTRACT: note_on channel=4 note=46 velocity=121 time=0
EXTRACT: note_on channel=5 note=46 velocity=0 time=0
EXTRACT: note_on channel=5 note=33 velocity=105 time=0
EXTRACT: note_on channel=5 note=45 velocity=74 time=0
EXTRACT: note_on channel=1 note=34 velocity=0 time=0.018809611979166665
EXTRACT: note_on channel=1 note=33 velocity=115 time=0.0028937864583333333
EXTRACT: note_on channel=9 note=54 velocity=0 time=0.0217033984375
EXTRACT: note_on channel=9 note=56 velocity=0 time=0.028937864583333334
EXTRACT: note_on channel=9 note=42 velocity=0 time=0.0028937864583333333
EXTRACT: note_on channel=9 note=36 velocity=0 time=0.031831651041666666
EXTRACT: note_on channel=9 note=80 velocity=0 time=0.028937864583333334
EXTRACT: note_on channel=9 note=54 velocity=52 time=0.0028937864583333333
EXTRACT: note_on channel=9 note=56 velocity=23 time=0
EXTRACT: note_on channel=4 note=34 velocity=0 time=0.011575145833333333
EXTRACT: note_on channel=4 note=46 velocity=0 time=0.0347254375
EXTRACT: note_on channel=9 note=54 velocity=0 time=0.0057875729166666666
EXTRACT: note_on channel=0 note=33 velocity=0 time=0.08102602083333334
EXTRACT: note_on channel=5 note=33 velocity=0 time=0
EXTRACT: note_on channel=9 note=56 velocity=0 time=0.0028937864583333333
EXTRACT: note_on channel=9 note=36 velocity=109 time=0.0028937864583333333
EXTRACT: note_on channel=9 note=42 velocity=122 time=0
EXTRACT: note_on channel=9 note=54 velocity=86 time=0
EXTRACT: note_on channel=0 note=32 velocity=113 time=0
EXTRACT: note_on channel=5 note=45 velocity=0 time=0
EXTRACT: note_on channel=5 note=32 velocity=115 time=0
EXTRACT: note_on channel=5 note=44 velocity=84 time=0
EXTRACT: note_on channel=1 note=33 velocity=0 time=0.015915825520833333
EXTRACT: note_on channel=1 note=32 velocity=113 time=0.0057875729166666666
EXTRACT: note_on channel=9 note=54 velocity=0 time=0.033278544270833335
EXTRACT: note_on channel=9 note=42 velocity=0 time=0.03761922395833333
EXTRACT: note_on channel=9 note=36 velocity=0 time=0.008681359375
EXTRACT: note_on channel=9 note=54 velocity=48 time=0.03761922395833333
EXTRACT: note_on channel=9 note=54 velocity=0 time=0.03761922395833333
EXTRACT: note_on channel=0 note=32 velocity=0 time=0.095494953125
EXTRACT: note_on channel=5 note=32 velocity=0 time=0
EXTRACT: note_on channel=9 note=36 velocity=113 time=0.0057875729166666666
EXTRACT: note_on channel=9 note=42 velocity=100 time=0
EXTRACT: note_on channel=9 note=54 velocity=81 time=0
EXTRACT: note_on channel=9 note=56 velocity=59 time=0
EXTRACT: note_on channel=9 note=80 velocity=127 time=0
EXTRACT: note_on channel=0 note=31 velocity=119 time=0
EXTRACT: note_on channel=4 note=34 velocity=118 time=0
EXTRACT: note_on channel=4 note=46 velocity=122 time=0
EXTRACT: note_on channel=5 note=44 velocity=0 time=0
EXTRACT: note_on channel=5 note=31 velocity=110 time=0
EXTRACT: note_on channel=5 note=43 velocity=79 time=0
EXTRACT: note_on channel=1 note=32 velocity=0 time=0.015915825520833333
EXTRACT: note_on channel=1 note=31 velocity=119 time=0.0057875729166666666
EXTRACT: note_on channel=9 note=54 velocity=0 time=0.0303847578125
EXTRACT: note_on channel=9 note=56 velocity=0 time=0.01736271875
EXTRACT: note_on channel=9 note=42 velocity=0 time=0.0057875729166666666
EXTRACT: note_on channel=9 note=36 velocity=0 time=0.060769515625
EXTRACT: note_on channel=9 note=80 velocity=0 time=0
EXTRACT: note_on channel=9 note=54 velocity=65 time=0.0028937864583333333
EXTRACT: note_on channel=9 note=56 velocity=23 time=0
EXTRACT: note_on channel=4 note=34 velocity=0 time=0.04051301041666667
EXTRACT: note_on channel=4 note=46 velocity=0 time=0.0057875729166666666
EXTRACT: note_on channel=9 note=54 velocity=0 time=0.014468932291666667
EXTRACT: note_on channel=0 note=31 velocity=0 time=0.07234466145833333
EXTRACT: note_on channel=5 note=31 velocity=0 time=0
EXTRACT: note_on channel=9 note=56 velocity=0 time=0.0028937864583333333
EXTRACT: note_on channel=9 note=39 velocity=80 time=0.0028937864583333333
EXTRACT: note_on channel=9 note=40 velocity=121 time=0
EXTRACT: note_on channel=9 note=42 velocity=114 time=0
EXTRACT: note_on channel=9 note=54 velocity=82 time=0
EXTRACT: note_on channel=0 note=30 velocity=114 time=0
EXTRACT: note_on channel=4 note=34 velocity=115 time=0
EXTRACT: note_on channel=4 note=46 velocity=121 time=0
EXTRACT: note_on channel=5 note=43 velocity=0 time=0
EXTRACT: note_on channel=5 note=30 velocity=108 time=0
EXTRACT: note_on channel=5 note=42 velocity=77 time=0
EXTRACT: note_on channel=1 note=31 velocity=0 time=0.015915825520833333
EXTRACT: note_on channel=1 note=30 velocity=114 time=0.0057875729166666666
EXTRACT: note_on channel=9 note=54 velocity=0 time=0.033278544270833335
EXTRACT: note_on channel=9 note=42 velocity=0 time=0.052088156249999996
EXTRACT: note_on channel=9 note=40 velocity=0 time=0.028937864583333334
EXTRACT: note_on channel=9 note=39 velocity=0 time=0
EXTRACT: note_on channel=9 note=54 velocity=45 time=0.0028937864583333333
EXTRACT: note_on channel=9 note=54 velocity=0 time=0.03761922395833333
EXTRACT: note_on channel=4 note=34 velocity=0 time=0.011575145833333333
EXTRACT: note_on channel=4 note=46 velocity=0 time=0.008681359375
EXTRACT: note_on channel=5 note=30 velocity=0 time=0.03761922395833333
EXTRACT: note_on channel=5 note=42 velocity=0 time=0.0028937864583333333
EXTRACT: note_on channel=9 note=42 velocity=90 time=0.04051301041666667
EXTRACT: note_on channel=9 note=54 velocity=75 time=0
EXTRACT: note_on channel=9 note=56 velocity=59 time=0
EXTRACT: note_on channel=9 note=80 velocity=127 time=0
EXTRACT: note_on channel=4 note=34 velocity=110 time=0
EXTRACT: note_on channel=4 note=46 velocity=110 time=0
EXTRACT: note_on channel=0 note=30 velocity=0 time=0.028937864583333334
EXTRACT: note_on channel=9 note=54 velocity=0 time=0.011575145833333333
EXTRACT: note_on channel=1 note=30 velocity=0 time=0.010128252604166667
EXTRACT: note_on channel=9 note=56 velocity=0 time=0.0217033984375
EXTRACT: note_on channel=9 note=42 velocity=0 time=0.0028937864583333333
EXTRACT: note_on channel=9 note=80 velocity=0 time=0.060769515625
EXTRACT: note_on channel=9 note=54 velocity=49 time=0.0028937864583333333
EXTRACT: note_on channel=9 note=56 velocity=23 time=0
EXTRACT: note_on channel=9 note=54 velocity=0 time=0.04051301041666667
EXTRACT: note_on channel=4 note=34 velocity=0 time=0.054981942708333335
EXTRACT: note_on channel=4 note=46 velocity=0 time=0.011575145833333333
EXTRACT: note_on channel=2 note=73 velocity=0 time=0.020256505208333334
EXTRACT: note_on channel=8 note=65 velocity=0 time=0
EXTRACT: note_on channel=8 note=70 velocity=0 time=0.0057875729166666666
EXTRACT: note_on channel=9 note=56 velocity=0 time=0.0028937864583333333
EXTRACT: note_on channel=2 note=77 velocity=0 time=0
EXTRACT: note_on channel=9 note=36 velocity=116 time=0.0028937864583333333
EXTRACT: note_on channel=9 note=42 velocity=122 time=0
EXTRACT: note_on channel=9 note=54 velocity=90 time=0
EXTRACT: note_on channel=9 note=57 velocity=60 time=0
EXTRACT: note_on channel=0 note=30 velocity=124 time=0
EXTRACT: note_on channel=2 note=82 velocity=0 time=0
EXTRACT: note_on channel=2 note=73 velocity=86 time=0
EXTRACT: note_on channel=2 note=78 velocity=89 time=0
EXTRACT: note_on channel=2 note=82 velocity=82 time=0
EXTRACT: note_on channel=3 note=58 velocity=119 time=0
EXTRACT: note_on channel=3 note=70 velocity=120 time=0
EXTRACT: note_on channel=5 note=30 velocity=124 time=0
EXTRACT: note_on channel=5 note=42 velocity=93 time=0
EXTRACT: note_on channel=8 note=73 velocity=0 time=0
EXTRACT: note_on channel=8 note=66 velocity=81 time=0
EXTRACT: note_on channel=8 note=70 velocity=84 time=0
EXTRACT: note_on channel=8 note=73 velocity=77 time=0
EXTRACT: note_on channel=1 note=30 velocity=124 time=0.0217033984375
EXTRACT: note_on channel=9 note=54 velocity=0 time=0.027490971354166668
EXTRACT: note_on channel=9 note=42 velocity=0 time=0.043406796875
EXTRACT: note_on channel=9 note=36 velocity=0 time=0.043406796875
EXTRACT: note_on channel=9 note=57 velocity=0 time=0
EXTRACT: note_on channel=9 note=54 velocity=42 time=0.0028937864583333333
EXTRACT: note_on channel=9 note=54 velocity=0 time=0.052088156249999996
EXTRACT: note_on channel=3 note=58 velocity=0 time=0.052088156249999996
EXTRACT: note_on channel=3 note=70 velocity=0 time=0.011575145833333333
EXTRACT: note_on channel=0 note=30 velocity=0 time=0.008681359375
EXTRACT: note_on channel=9 note=42 velocity=100 time=0.014468932291666667
EXTRACT: note_on channel=9 note=54 velocity=78 time=0
EXTRACT: note_on channel=9 note=56 velocity=59 time=0
EXTRACT: note_on channel=9 note=80 velocity=127 time=0
EXTRACT: note_on channel=1 note=30 velocity=0 time=0.007234466145833333
EXTRACT: note_on channel=9 note=54 velocity=0 time=0.027490971354166668
EXTRACT: note_on channel=5 note=30 velocity=0 time=0.014468932291666667
EXTRACT: note_on channel=5 note=42 velocity=0 time=0.0028937864583333333
EXTRACT: note_on channel=9 note=56 velocity=0 time=0.020256505208333334
EXTRACT: note_on channel=9 note=42 velocity=0 time=0.0028937864583333333
EXTRACT: note_on channel=9 note=80 velocity=0 time=0.060769515625
EXTRACT: note_on channel=9 note=54 velocity=54 time=0.0028937864583333333
EXTRACT: note_on channel=9 note=56 velocity=23 time=0
EXTRACT: note_on channel=9 note=54 velocity=0 time=0.07523844791666666
EXTRACT: note_on channel=9 note=56 velocity=0 time=0.060769515625
EXTRACT: note_on channel=9 note=39 velocity=80 time=0.0028937864583333333
EXTRACT: note_on channel=9 note=40 velocity=121 time=0
EXTRACT: note_on channel=9 note=42 velocity=114 time=0
EXTRACT: note_on channel=9 note=54 velocity=85 time=0
EXTRACT: note_on channel=0 note=30 velocity=119 time=0
EXTRACT: note_on channel=3 note=61 velocity=118 time=0
EXTRACT: note_on channel=3 note=73 velocity=116 time=0
EXTRACT: note_on channel=5 note=30 velocity=121 time=0
EXTRACT: note_on channel=5 note=42 velocity=90 time=0
EXTRACT: note_on channel=1 note=30 velocity=119 time=0.0217033984375
EXTRACT: note_on channel=9 note=54 velocity=0 time=0.0217033984375
EXTRACT: note_on channel=9 note=42 velocity=0 time=0.06366330208333333
EXTRACT: note_on channel=9 note=40 velocity=0 time=0.028937864583333334
EXTRACT: note_on channel=9 note=39 velocity=0 time=0
EXTRACT: note_on channel=9 note=54 velocity=49 time=0.0028937864583333333
EXTRACT: note_on channel=9 note=54 velocity=0 time=0.07234466145833333
EXTRACT: note_on channel=3 note=61 velocity=0 time=0.028937864583333334
EXTRACT: note_on channel=3 note=73 velocity=0 time=0.011575145833333333
EXTRACT: note_on channel=5 note=30 velocity=0 time=0
EXTRACT: note_on channel=5 note=42 velocity=0 time=0.0028937864583333333
EXTRACT: note_on channel=0 note=30 velocity=0 time=0.01736271875
EXTRACT: note_on channel=9 note=36 velocity=111 time=0.0057875729166666666
EXTRACT: note_on channel=9 note=42 velocity=90 time=0
EXTRACT: note_on channel=9 note=54 velocity=80 time=0
EXTRACT: note_on channel=9 note=56 velocity=59 time=0
EXTRACT: note_on channel=9 note=80 velocity=127 time=0
EXTRACT: note_on channel=0 note=32 velocity=122 time=0
EXTRACT: note_on channel=4 note=34 velocity=114 time=0
EXTRACT: note_on channel=4 note=46 velocity=121 time=0
EXTRACT: note_on channel=5 note=32 velocity=107 time=0
EXTRACT: note_on channel=5 note=44 velocity=76 time=0
EXTRACT: note_on channel=1 note=30 velocity=0 time=0.015915825520833333
EXTRACT: note_on channel=1 note=32 velocity=122 time=0.0057875729166666666
EXTRACT: note_on channel=9 note=54 velocity=0 time=0.0217033984375
EXTRACT: note_on channel=9 note=56 velocity=0 time=0.028937864583333334
EXTRACT: note_on channel=9 note=42 velocity=0 time=0.0028937864583333333
EXTRACT: note_on channel=9 note=36 velocity=0 time=0.020256505208333334
EXTRACT: note_on channel=9 note=80 velocity=0 time=0.04051301041666667
EXTRACT: note_on channel=9 note=54 velocity=52 time=0.0028937864583333333
EXTRACT: note_on channel=9 note=56 velocity=23 time=0
EXTRACT: note_on channel=4 note=34 velocity=0 time=0.014468932291666667
EXTRACT: note_on channel=4 note=46 velocity=0 time=0.031831651041666666
EXTRACT: note_on channel=9 note=54 velocity=0 time=0.0057875729166666666
EXTRACT: note_on channel=2 note=73 velocity=0 time=0.07523844791666666
EXTRACT: note_on channel=8 note=66 velocity=0 time=0
EXTRACT: note_on channel=0 note=32 velocity=0 time=0.0057875729166666666
EXTRACT: note_on channel=5 note=32 velocity=0 time=0
EXTRACT: note_on channel=8 note=70 velocity=0 time=0
EXTRACT: note_on channel=9 note=56 velocity=0 time=0.0028937864583333333
EXTRACT: note_on channel=2 note=78 velocity=0 time=0
EXTRACT: note_on channel=9 note=36 velocity=112 time=0.0028937864583333333
EXTRACT: note_on channel=9 note=42 velocity=122 time=0
EXTRACT: note_on channel=9 note=54 velocity=86 time=0
EXTRACT: note_on channel=9 note=57 velocity=79 time=0
EXTRACT: note_on channel=0 note=29 velocity=113 time=0
EXTRACT: note_on channel=2 note=82 velocity=0 time=0
EXTRACT: note_on channel=2 note=75 velocity=86 time=0
EXTRACT: note_on channel=2 note=80 velocity=83 time=0
EXTRACT: note_on channel=2 note=84 velocity=87 time=0
EXTRACT: note_on channel=3 note=63 velocity=114 time=0
EXTRACT: note_on channel=3 note=75 velocity=118 time=0
EXTRACT: note_on channel=5 note=44 velocity=0 time=0
EXTRACT: note_on channel=5 note=29 velocity=102 time=0
EXTRACT: note_on channel=5 note=41 velocity=71 time=0
EXTRACT: note_on channel=8 note=73 velocity=0 time=0
EXTRACT: note_on channel=8 note=68 velocity=82 time=0
EXTRACT: note_on channel=8 note=72 velocity=81 time=0
EXTRACT: note_on channel=8 note=75 velocity=78 time=0
EXTRACT: note_on channel=1 note=32 velocity=0 time=0.015915825520833333
EXTRACT: note_on channel=1 note=29 velocity=113 time=0.0057875729166666666
EXTRACT: note_on channel=9 note=54 velocity=0 time=0.033278544270833335
EXTRACT: note_on channel=9 note=42 velocity=0 time=0.03761922395833333
EXTRACT: note_on channel=9 note=36 velocity=0 time=0.043406796875
EXTRACT: note_on channel=9 note=57 velocity=0 time=0
EXTRACT: note_on channel=9 note=54 velocity=48 time=0.0028937864583333333
EXTRACT: note_on channel=9 note=54 velocity=0 time=0.03761922395833333
EXTRACT: note_on channel=5 note=41 velocity=0 time=0.08970738020833333
EXTRACT: note_on channel=5 note=29 velocity=0 time=0
EXTRACT: note_on channel=9 note=42 velocity=100 time=0.011575145833333333
EXTRACT: note_on channel=9 note=54 velocity=81 time=0
EXTRACT: note_on channel=9 note=56 velocity=59 time=0
EXTRACT: note_on channel=9 note=80 velocity=127 time=0
EXTRACT: note_on channel=3 note=75 velocity=0 time=0
EXTRACT: note_on channel=4 note=34 velocity=118 time=0
EXTRACT: note_on channel=4 note=46 velocity=122 time=0
EXTRACT: note_on channel=9 note=54 velocity=0 time=0.052088156249999996
EXTRACT: note_on channel=9 note=56 velocity=0 time=0.020256505208333334
EXTRACT: note_on channel=9 note=42 velocity=0 time=0.0028937864583333333
EXTRACT: note_on channel=0 note=29 velocity=0 time=0.028937864583333334
EXTRACT: note_on channel=1 note=29 velocity=0 time=0.0217033984375
EXTRACT: note_on channel=9 note=80 velocity=0 time=0.010128252604166667
EXTRACT: note_on channel=9 note=54 velocity=65 time=0.0028937864583333333
EXTRACT: note_on channel=9 note=56 velocity=23 time=0
EXTRACT: note_on channel=4 note=34 velocity=0 time=0.043406796875
EXTRACT: note_on channel=4 note=46 velocity=0 time=0.0057875729166666666
EXTRACT: note_on channel=9 note=54 velocity=0 time=0.011575145833333333
EXTRACT: note_on channel=3 note=63 velocity=0 time=0.069450875
EXTRACT: note_on channel=9 note=56 velocity=0 time=0.0057875729166666666
EXTRACT: note_on channel=9 note=39 velocity=80 time=0.0028937864583333333
EXTRACT: note_on channel=9 note=40 velocity=121 time=0
EXTRACT: note_on channel=9 note=42 velocity=114 time=0
EXTRACT: note_on channel=9 note=54 velocity=82 time=0
EXTRACT: note_on channel=3 note=65 velocity=121 time=0
EXTRACT: note_on channel=3 note=77 velocity=112 time=0
EXTRACT: note_on channel=4 note=34 velocity=115 time=0
EXTRACT: note_on channel=4 note=46 velocity=121 time=0
EXTRACT: note_on channel=9 note=54 velocity=0 time=0.054981942708333335
EXTRACT: note_on channel=9 note=42 velocity=0 time=0.052088156249999996
EXTRACT: note_on channel=9 note=40 velocity=0 time=0.028937864583333334
EXTRACT: note_on channel=9 note=39 velocity=0 time=0
EXTRACT: note_on channel=9 note=54 velocity=45 time=0.0028937864583333333
EXTRACT: note_on channel=9 note=54 velocity=0 time=0.03761922395833333
EXTRACT: note_on channel=4 note=34 velocity=0 time=0.011575145833333333
EXTRACT: note_on channel=4 note=46 velocity=0 time=0.011575145833333333
EXTRACT: note_on channel=3 note=77 velocity=0 time=0.008681359375
EXTRACT: note_on channel=3 note=65 velocity=0 time=0.04051301041666667
EXTRACT: note_on channel=9 note=42 velocity=90 time=0.028937864583333334
EXTRACT: note_on channel=9 note=54 velocity=75 time=0
EXTRACT: note_on channel=9 note=56 velocity=59 time=0
EXTRACT: note_on channel=9 note=80 velocity=127 time=0
EXTRACT: note_on channel=3 note=63 velocity=115 time=0
EXTRACT: note_on channel=3 note=75 velocity=109 time=0
EXTRACT: note_on channel=4 note=34 velocity=110 time=0
EXTRACT: note_on channel=4 note=46 velocity=110 time=0
EXTRACT: note_on channel=9 note=54 velocity=0 time=0.04051301041666667
EXTRACT: note_on channel=3 note=75 velocity=0 time=0.028937864583333334
EXTRACT: note_on channel=9 note=56 velocity=0 time=0.0028937864583333333
EXTRACT: note_on channel=9 note=42 velocity=0 time=0.0028937864583333333
EXTRACT: note_on channel=3 note=63 velocity=0 time=0.014468932291666667
EXTRACT: note_on channel=9 note=80 velocity=0 time=0.04630058333333333
EXTRACT: note_on channel=9 note=54 velocity=49 time=0.0028937864583333333
EXTRACT: note_on channel=9 note=56 velocity=23 time=0
EXTRACT: note_on channel=9 note=54 velocity=0 time=0.04051301041666667
EXTRACT: note_on channel=4 note=34 velocity=0 time=0.054981942708333335
EXTRACT: note_on channel=4 note=46 velocity=0 time=0.011575145833333333
EXTRACT: note_on channel=8 note=68 velocity=0 time=0.01736271875
EXTRACT: note_on channel=2 note=84 velocity=0 time=0.0028937864583333333
EXTRACT: note_on channel=2 note=80 velocity=0 time=0
EXTRACT: note_on channel=2 note=75 velocity=0 time=0
EXTRACT: note_on channel=9 note=56 velocity=0 time=0.008681359375
EXTRACT: note_on channel=9 note=36 velocity=114 time=0.0028937864583333333
EXTRACT: note_on channel=9 note=42 velocity=122 time=0
EXTRACT: note_on channel=9 note=49 velocity=83 time=0
EXTRACT: note_on channel=9 note=54 velocity=90 time=0
EXTRACT: note_on channel=0 note=34 velocity=126 time=0
EXTRACT: note_on channel=2 note=73 velocity=88 time=0
EXTRACT: note_on channel=2 note=77 velocity=85 time=0
EXTRACT: note_on channel=2 note=82 velocity=84 time=0
EXTRACT: note_on channel=3 note=63 velocity=120 time=0
EXTRACT: note_on channel=3 note=75 velocity=118 time=0
EXTRACT: note_on channel=5 note=34 velocity=123 time=0
EXTRACT: note_on channel=5 note=46 velocity=92 time=0
EXTRACT: note_on channel=8 note=65 velocity=88 time=0
EXTRACT: note_on channel=8 note=70 velocity=85 time=0
EXTRACT: note_on channel=8 note=73 velocity=84 time=0
EXTRACT: control_change channel=8 control=1 value=33 time=0.008681359375
EXTRACT: note_on channel=1 note=34 velocity=126 time=0.013022039062499999
EXTRACT: note_on channel=9 note=54 velocity=0 time=0.027490971354166668
EXTRACT: note_on channel=9 note=42 velocity=0 time=0.04051301041666667
EXTRACT: note_on channel=9 note=49 velocity=0 time=0.04630058333333333
EXTRACT: note_on channel=9 note=36 velocity=0 time=0
EXTRACT: note_on channel=9 note=54 velocity=42 time=0.0028937864583333333
EXTRACT: note_on channel=9 note=54 velocity=0 time=0.052088156249999996
EXTRACT: note_on channel=9 note=42 velocity=100 time=0.08681359375
EXTRACT: note_on channel=9 note=54 velocity=78 time=0
EXTRACT: note_on channel=9 note=56 velocity=59 time=0
EXTRACT: note_on channel=9 note=80 velocity=127 time=0
EXTRACT: note_on channel=9 note=54 velocity=0 time=0.0347254375
EXTRACT: note_on channel=0 note=34 velocity=0 time=0.0057875729166666666
EXTRACT: note_on channel=1 note=34 velocity=0 time=0.0217033984375
EXTRACT: note_on channel=5 note=34 velocity=0 time=0.0043406796875
EXTRACT: note_on channel=5 note=46 velocity=0 time=0.0028937864583333333
EXTRACT: note_on channel=9 note=56 velocity=0 time=0.0028937864583333333
EXTRACT: note_on channel=9 note=42 velocity=0 time=0.0028937864583333333
EXTRACT: note_on channel=9 note=80 velocity=0 time=0.060769515625
EXTRACT: note_on channel=9 note=54 velocity=54 time=0.0028937864583333333
EXTRACT: note_on channel=9 note=56 velocity=23 time=0
EXTRACT: note_on channel=9 note=54 velocity=0 time=0.07523844791666666
EXTRACT: note_on channel=9 note=56 velocity=0 time=0.060769515625
EXTRACT: note_on channel=9 note=39 velocity=80 time=0.0028937864583333333
EXTRACT: note_on channel=9 note=40 velocity=121 time=0
EXTRACT: note_on channel=9 note=42 velocity=114 time=0
EXTRACT: note_on channel=9 note=54 velocity=85 time=0
EXTRACT: note_on channel=0 note=34 velocity=123 time=0
EXTRACT: note_on channel=5 note=34 velocity=124 time=0
EXTRACT: note_on channel=5 note=46 velocity=93 time=0
EXTRACT: note_on channel=1 note=34 velocity=123 time=0.0217033984375
EXTRACT: note_on channel=9 note=54 velocity=0 time=0.0217033984375
EXTRACT: note_on channel=9 note=42 velocity=0 time=0.06366330208333333
EXTRACT: note_on channel=9 note=40 velocity=0 time=0.028937864583333334
EXTRACT: note_on channel=9 note=39 velocity=0 time=0
EXTRACT: note_on channel=9 note=54 velocity=49 time=0.0028937864583333333
EXTRACT: note_on channel=9 note=54 velocity=0 time=0.07234466145833333
EXTRACT: note_on channel=3 note=63 velocity=0 time=0.052088156249999996
EXTRACT: note_on channel=0 note=34 velocity=0 time=0.008681359375
EXTRACT: note_on channel=3 note=75 velocity=0 time=0
EXTRACT: note_on channel=5 note=34 velocity=0 time=0
EXTRACT: note_on channel=9 note=36 velocity=109 time=0.0057875729166666666
EXTRACT: note_on channel=9 note=42 velocity=90 time=0
EXTRACT: note_on channel=9 note=54 velocity=80 time=0
EXTRACT: note_on channel=9 note=56 velocity=59 time=0
EXTRACT: note_on channel=9 note=80 velocity=127 time=0
EXTRACT: note_on channel=0 note=33 velocity=115 time=0
EXTRACT: note_on channel=3 note=61 velocity=116 time=0
EXTRACT: note_on channel=3 note=73 velocity=118 time=0
EXTRACT: note_on channel=4 note=34 velocity=114 time=0
EXTRACT: note_on channel=4 note=46 velocity=121 time=0
EXTRACT: note_on channel=5 note=46 velocity=0 time=0
EXTRACT: note_on channel=5 note=33 velocity=105 time=0
EXTRACT: note_on channel=5 note=45 velocity=74 time=0
EXTRACT: note_on channel=1 note=34 velocity=0 time=0.015915825520833333
EXTRACT: note_on channel=1 note=33 velocity=115 time=0.0057875729166666666
EXTRACT: note_on channel=9 note=54 velocity=0 time=0.0217033984375
EXTRACT: note_on channel=9 note=56 velocity=0 time=0.028937864583333334
EXTRACT: note_on channel=9 note=42 velocity=0 time=0.0028937864583333333
EXTRACT: note_on channel=9 note=36 velocity=0 time=0.031831651041666666
EXTRACT: note_on channel=9 note=80 velocity=0 time=0.028937864583333334
EXTRACT: note_on channel=9 note=54 velocity=52 time=0.0028937864583333333
EXTRACT: note_on channel=9 note=56 velocity=23 time=0
EXTRACT: note_on channel=4 note=34 velocity=0 time=0.011575145833333333
EXTRACT: note_on channel=3 note=73 velocity=0 time=0.020256505208333334
EXTRACT: note_on channel=4 note=46 velocity=0 time=0.014468932291666667
EXTRACT: note_on channel=9 note=54 velocity=0 time=0.0057875729166666666
EXTRACT: note_on channel=0 note=33 velocity=0 time=0.08102602083333334
EXTRACT: note_on channel=5 note=33 velocity=0 time=0
EXTRACT: note_on channel=9 note=56 velocity=0 time=0.0028937864583333333
EXTRACT: note_on channel=9 note=36 velocity=109 time=0.0028937864583333333
EXTRACT: note_on channel=9 note=42 velocity=122 time=0
EXTRACT: note_on channel=9 note=54 velocity=86 time=0
EXTRACT: note_on channel=0 note=32 velocity=113 time=0
EXTRACT: note_on channel=5 note=45 velocity=0 time=0
EXTRACT: note_on channel=5 note=32 velocity=115 time=0
EXTRACT: note_on channel=5 note=44 velocity=84 time=0
EXTRACT: note_on channel=3 note=61 velocity=0 time=0.0057875729166666666
EXTRACT: note_on channel=1 note=33 velocity=0 time=0.010128252604166667
EXTRACT: note_on channel=1 note=32 velocity=113 time=0.0057875729166666666
EXTRACT: note_on channel=9 note=54 velocity=0 time=0.033278544270833335
EXTRACT: note_on channel=9 note=42 velocity=0 time=0.03761922395833333
EXTRACT: note_on channel=9 note=36 velocity=0 time=0.008681359375
EXTRACT: note_on channel=9 note=54 velocity=48 time=0.03761922395833333
EXTRACT: note_on channel=9 note=54 velocity=0 time=0.03761922395833333
EXTRACT: note_on channel=0 note=32 velocity=0 time=0.095494953125
EXTRACT: note_on channel=5 note=32 velocity=0 time=0
EXTRACT: note_on channel=9 note=36 velocity=113 time=0.0057875729166666666
EXTRACT: note_on channel=9 note=42 velocity=100 time=0
EXTRACT: note_on channel=9 note=54 velocity=81 time=0
EXTRACT: note_on channel=9 note=56 velocity=59 time=0
EXTRACT: note_on channel=9 note=80 velocity=127 time=0
EXTRACT: note_on channel=0 note=31 velocity=119 time=0
EXTRACT: note_on channel=4 note=34 velocity=118 time=0
EXTRACT: note_on channel=4 note=46 velocity=122 time=0
EXTRACT: note_on channel=5 note=44 velocity=0 time=0
EXTRACT: note_on channel=5 note=31 velocity=110 time=0
EXTRACT: note_on channel=5 note=43 velocity=79 time=0
EXTRACT: note_on channel=1 note=32 velocity=0 time=0.015915825520833333
EXTRACT: note_on channel=1 note=31 velocity=119 time=0.0057875729166666666
EXTRACT: note_on channel=9 note=54 velocity=0 time=0.0303847578125
EXTRACT: note_on channel=9 note=56 velocity=0 time=0.01736271875
EXTRACT: note_on channel=9 note=42 velocity=0 time=0.0057875729166666666
EXTRACT: note_on channel=9 note=36 velocity=0 time=0.060769515625
EXTRACT: note_on channel=9 note=80 velocity=0 time=0
EXTRACT: note_on channel=9 note=54 velocity=65 time=0.0028937864583333333
EXTRACT: note_on channel=9 note=56 velocity=23 time=0
EXTRACT: note_on channel=4 note=34 velocity=0 time=0.04051301041666667
EXTRACT: note_on channel=4 note=46 velocity=0 time=0.0057875729166666666
EXTRACT: note_on channel=9 note=54 velocity=0 time=0.014468932291666667
EXTRACT: note_on channel=0 note=31 velocity=0 time=0.07234466145833333
EXTRACT: note_on channel=5 note=31 velocity=0 time=0
EXTRACT: note_on channel=9 note=56 velocity=0 time=0.0028937864583333333
EXTRACT: note_on channel=9 note=39 velocity=80 time=0.0028937864583333333
EXTRACT: note_on channel=9 note=40 velocity=121 time=0
EXTRACT: note_on channel=9 note=42 velocity=114 time=0
EXTRACT: note_on channel=9 note=54 velocity=82 time=0
EXTRACT: note_on channel=0 note=30 velocity=114 time=0
EXTRACT: note_on channel=4 note=34 velocity=115 time=0
EXTRACT: note_on channel=4 note=46 velocity=121 time=0
EXTRACT: note_on channel=5 note=43 velocity=0 time=0
EXTRACT: note_on channel=5 note=30 velocity=108 time=0
EXTRACT: note_on channel=5 note=42 velocity=77 time=0
EXTRACT: note_on channel=1 note=31 velocity=0 time=0.015915825520833333
EXTRACT: note_on channel=1 note=30 velocity=114 time=0.0057875729166666666
EXTRACT: note_on channel=9 note=54 velocity=0 time=0.033278544270833335
EXTRACT: note_on channel=9 note=42 velocity=0 time=0.052088156249999996
EXTRACT: note_on channel=9 note=40 velocity=0 time=0.028937864583333334
EXTRACT: note_on channel=9 note=39 velocity=0 time=0
EXTRACT: note_on channel=9 note=54 velocity=45 time=0.0028937864583333333
EXTRACT: note_on channel=9 note=54 velocity=0 time=0.03761922395833333
EXTRACT: note_on channel=4 note=34 velocity=0 time=0.011575145833333333
EXTRACT: note_on channel=4 note=46 velocity=0 time=0.008681359375
EXTRACT: note_on channel=5 note=30 velocity=0 time=0.03761922395833333
EXTRACT: note_on channel=5 note=42 velocity=0 time=0.0028937864583333333
EXTRACT: note_on channel=9 note=42 velocity=90 time=0.04051301041666667
EXTRACT: note_on channel=9 note=54 velocity=75 time=0
EXTRACT: note_on channel=9 note=56 velocity=59 time=0
EXTRACT: note_on channel=9 note=80 velocity=127 time=0
EXTRACT: note_on channel=4 note=34 velocity=110 time=0
EXTRACT: note_on channel=4 note=46 velocity=110 time=0
EXTRACT: note_on channel=0 note=30 velocity=0 time=0.028937864583333334
EXTRACT: note_on channel=9 note=54 velocity=0 time=0.011575145833333333
EXTRACT: note_on channel=1 note=30 velocity=0 time=0.010128252604166667
EXTRACT: note_on channel=9 note=56 velocity=0 time=0.018809611979166665
EXTRACT: note_on channel=9 note=42 velocity=0 time=0.0057875729166666666
EXTRACT: note_on channel=9 note=80 velocity=0 time=0.060769515625
EXTRACT: note_on channel=9 note=54 velocity=49 time=0.0028937864583333333
EXTRACT: note_on channel=9 note=56 velocity=23 time=0
EXTRACT: note_on channel=9 note=54 velocity=0 time=0.04051301041666667
EXTRACT: note_on channel=4 note=34 velocity=0 time=0.054981942708333335
EXTRACT: note_on channel=4 note=46 velocity=0 time=0.011575145833333333
EXTRACT: note_on channel=8 note=65 velocity=0 time=0.020256505208333334
EXTRACT: note_on channel=2 note=73 velocity=0 time=0.0028937864583333333
EXTRACT: note_on channel=9 note=56 velocity=0 time=0.0057875729166666666
EXTRACT: note_on channel=8 note=70 velocity=0 time=0
EXTRACT: note_on channel=9 note=36 velocity=116 time=0.0028937864583333333
EXTRACT: note_on channel=9 note=42 velocity=122 time=0
EXTRACT: note_on channel=9 note=54 velocity=90 time=0
EXTRACT: note_on channel=9 note=57 velocity=60 time=0
EXTRACT: note_on channel=0 note=30 velocity=124 time=0
EXTRACT: note_on channel=2 note=82 velocity=0 time=0
EXTRACT: note_on channel=2 note=77 velocity=0 time=0
EXTRACT: note_on channel=2 note=73 velocity=86 time=0
EXTRACT: note_on channel=2 note=78 velocity=89 time=0
EXTRACT: note_on channel=2 note=82 velocity=82 time=0
EXTRACT: note_on channel=3 note=61 velocity=116 time=0
EXTRACT: note_on channel=3 note=70 velocity=117 time=0
EXTRACT: note_on channel=5 note=30 velocity=124 time=0
EXTRACT: note_on channel=5 note=42 velocity=93 time=0
EXTRACT: note_on channel=8 note=73 velocity=0 time=0
EXTRACT: note_on channel=8 note=66 velocity=81 time=0
EXTRACT: note_on channel=8 note=70 velocity=84 time=0
EXTRACT: note_on channel=8 note=73 velocity=77 time=0
EXTRACT: note_on channel=1 note=30 velocity=124 time=0.0217033984375
EXTRACT: note_on channel=9 note=54 velocity=0 time=0.027490971354166668
EXTRACT: note_on channel=9 note=42 velocity=0 time=0.043406796875
EXTRACT: note_on channel=9 note=36 velocity=0 time=0.043406796875
EXTRACT: note_on channel=9 note=57 velocity=0 time=0
EXTRACT: note_on channel=9 note=54 velocity=42 time=0.0028937864583333333
EXTRACT: note_on channel=9 note=54 velocity=0 time=0.052088156249999996
EXTRACT: note_on channel=0 note=30 velocity=0 time=0.07234466145833333
EXTRACT: note_on channel=9 note=42 velocity=100 time=0.014468932291666667
EXTRACT: note_on channel=9 note=54 velocity=78 time=0
EXTRACT: note_on channel=9 note=56 velocity=59 time=0
EXTRACT: note_on channel=9 note=80 velocity=127 time=0
EXTRACT: note_on channel=1 note=30 velocity=0 time=0.007234466145833333
EXTRACT: note_on channel=9 note=54 velocity=0 time=0.027490971354166668
EXTRACT: note_on channel=5 note=30 velocity=0 time=0.014468932291666667
EXTRACT: note_on channel=5 note=42 velocity=0 time=0.0028937864583333333
EXTRACT: note_on channel=9 note=56 velocity=0 time=0.020256505208333334
EXTRACT: note_on channel=9 note=42 velocity=0 time=0.0028937864583333333
EXTRACT: note_on channel=9 note=80 velocity=0 time=0.060769515625
EXTRACT: note_on channel=9 note=54 velocity=54 time=0.0028937864583333333
EXTRACT: note_on channel=9 note=56 velocity=23 time=0
EXTRACT: note_on channel=9 note=54 velocity=0 time=0.07523844791666666
EXTRACT: note_on channel=9 note=56 velocity=0 time=0.060769515625
EXTRACT: note_on channel=9 note=39 velocity=80 time=0.0028937864583333333
EXTRACT: note_on channel=9 note=40 velocity=121 time=0
EXTRACT: note_on channel=9 note=42 velocity=114 time=0
EXTRACT: note_on channel=9 note=54 velocity=85 time=0
EXTRACT: note_on channel=0 note=30 velocity=119 time=0
EXTRACT: note_on channel=5 note=30 velocity=121 time=0
EXTRACT: note_on channel=5 note=42 velocity=90 time=0
EXTRACT: note_on channel=1 note=30 velocity=119 time=0.0217033984375
EXTRACT: note_on channel=9 note=54 velocity=0 time=0.0217033984375
EXTRACT: note_on channel=9 note=42 velocity=0 time=0.06366330208333333
EXTRACT: note_on channel=9 note=40 velocity=0 time=0.028937864583333334
EXTRACT: note_on channel=9 note=39 velocity=0 time=0
EXTRACT: note_on channel=9 note=54 velocity=49 time=0.0028937864583333333
EXTRACT: note_on channel=9 note=54 velocity=0 time=0.07234466145833333
EXTRACT: note_on channel=3 note=61 velocity=0 time=0.020256505208333334
EXTRACT: note_on channel=3 note=70 velocity=0 time=0.01736271875
EXTRACT: note_on channel=5 note=30 velocity=0 time=0.0028937864583333333
EXTRACT: note_on channel=5 note=42 velocity=0 time=0.0028937864583333333
EXTRACT: note_on channel=0 note=30 velocity=0 time=0.01736271875
EXTRACT: note_on channel=9 note=36 velocity=111 time=0.0057875729166666666
EXTRACT: note_on channel=9 note=42 velocity=90 time=0
EXTRACT: note_on channel=9 note=54 velocity=80 time=0
EXTRACT: note_on channel=9 note=56 velocity=59 time=0
EXTRACT: note_on channel=9 note=80 velocity=127 time=0
EXTRACT: note_on channel=0 note=32 velocity=122 time=0
EXTRACT: note_on channel=3 note=60 velocity=115 time=0
EXTRACT: note_on channel=3 note=69 velocity=112 time=0
EXTRACT: note_on channel=4 note=34 velocity=114 time=0
EXTRACT: note_on channel=4 note=46 velocity=121 time=0
EXTRACT: note_on channel=5 note=32 velocity=107 time=0
EXTRACT: note_on channel=5 note=44 velocity=76 time=0
EXTRACT: note_on channel=1 note=30 velocity=0 time=0.015915825520833333
EXTRACT: note_on channel=1 note=32 velocity=122 time=0.0057875729166666666
EXTRACT: note_on channel=9 note=54 velocity=0 time=0.0217033984375
EXTRACT: note_on channel=9 note=56 velocity=0 time=0.026044078124999998
EXTRACT: note_on channel=9 note=42 velocity=0 time=0.0057875729166666666
EXTRACT: note_on channel=9 note=36 velocity=0 time=0.020256505208333334
EXTRACT: note_on channel=3 note=60 velocity=0 time=0.011575145833333333
EXTRACT: note_on channel=9 note=80 velocity=0 time=0.028937864583333334
EXTRACT: note_on channel=9 note=54 velocity=52 time=0.0028937864583333333
EXTRACT: note_on channel=9 note=56 velocity=23 time=0
EXTRACT: note_on channel=3 note=69 velocity=0 time=0.008681359375
EXTRACT: note_on channel=4 note=34 velocity=0 time=0.0057875729166666666
EXTRACT: note_on channel=4 note=46 velocity=0 time=0.031831651041666666
EXTRACT: note_on channel=9 note=54 velocity=0 time=0.0057875729166666666
EXTRACT: note_on channel=2 note=73 velocity=0 time=0.07523844791666666
EXTRACT: note_on channel=8 note=66 velocity=0 time=0
EXTRACT: note_on channel=0 note=32 velocity=0 time=0.0057875729166666666
EXTRACT: note_on channel=5 note=32 velocity=0 time=0
EXTRACT: note_on channel=8 note=70 velocity=0 time=0
EXTRACT: note_on channel=9 note=56 velocity=0 time=0.0028937864583333333
EXTRACT: note_on channel=2 note=78 velocity=0 time=0
EXTRACT: note_on channel=8 note=72 velocity=0 time=0
EXTRACT: note_on channel=9 note=36 velocity=112 time=0.0028937864583333333
EXTRACT: note_on channel=9 note=42 velocity=122 time=0
EXTRACT: note_on channel=9 note=54 velocity=86 time=0
EXTRACT: note_on channel=9 note=57 velocity=79 time=0
EXTRACT: note_on channel=0 note=29 velocity=113 time=0
EXTRACT: note_on channel=2 note=82 velocity=0 time=0
EXTRACT: note_on channel=2 note=72 velocity=87 time=0
EXTRACT: note_on channel=2 note=77 velocity=86 time=0
EXTRACT: note_on channel=2 note=81 velocity=83 time=0
EXTRACT: note_on channel=5 note=44 velocity=0 time=0
EXTRACT: note_on channel=5 note=29 velocity=102 time=0
EXTRACT: note_on channel=5 note=41 velocity=71 time=0
EXTRACT: note_on channel=8 note=73 velocity=0 time=0
EXTRACT: note_on channel=8 note=65 velocity=82 time=0
EXTRACT: note_on channel=8 note=69 velocity=81 time=0
EXTRACT: note_on channel=8 note=72 velocity=78 time=0
EXTRACT: note_on channel=1 note=32 velocity=0 time=0.015915825520833333
EXTRACT: note_on channel=1 note=29 velocity=113 time=0.0057875729166666666
EXTRACT: note_on channel=9 note=54 velocity=0 time=0.033278544270833335
EXTRACT: note_on channel=9 note=42 velocity=0 time=0.03761922395833333
EXTRACT: note_on channel=9 note=36 velocity=0 time=0.043406796875
EXTRACT: note_on channel=9 note=57 velocity=0 time=0
EXTRACT: note_on channel=9 note=54 velocity=48 time=0.0028937864583333333
EXTRACT: note_on channel=9 note=54 velocity=0 time=0.03761922395833333
EXTRACT: note_on channel=5 note=41 velocity=0 time=0.08970738020833333
EXTRACT: note_on channel=5 note=29 velocity=0 time=0
EXTRACT: note_on channel=9 note=42 velocity=100 time=0.011575145833333333
EXTRACT: note_on channel=9 note=54 velocity=81 time=0
EXTRACT: note_on channel=9 note=56 velocity=59 time=0
EXTRACT: note_on channel=9 note=80 velocity=127 time=0
EXTRACT: note_on channel=4 note=34 velocity=118 time=0
EXTRACT: note_on channel=4 note=46 velocity=122 time=0
EXTRACT: note_on channel=9 note=54 velocity=0 time=0.052088156249999996
EXTRACT: note_on channel=9 note=56 velocity=0 time=0.020256505208333334
EXTRACT: note_on channel=9 note=42 velocity=0 time=0.0028937864583333333
EXTRACT: note_on channel=0 note=29 velocity=0 time=0.028937864583333334
EXTRACT: note_on channel=1 note=29 velocity=0 time=0.0217033984375
EXTRACT: note_on channel=9 note=80 velocity=0 time=0.010128252604166667
EXTRACT: note_on channel=9 note=54 velocity=65 time=0.0028937864583333333
EXTRACT: note_on channel=9 note=56 velocity=23 time=0
EXTRACT: note_on channel=4 note=34 velocity=0 time=0.043406796875
EXTRACT: note_on channel=4 note=46 velocity=0 time=0.0057875729166666666
EXTRACT: note_on channel=9 note=54 velocity=0 time=0.011575145833333333
EXTRACT: note_on channel=9 note=56 velocity=0 time=0.07523844791666666
EXTRACT: note_on channel=9 note=39 velocity=80 time=0.0028937864583333333
EXTRACT: note_on channel=9 note=40 velocity=121 time=0
EXTRACT: note_on channel=9 note=42 velocity=114 time=0
EXTRACT: note_on channel=9 note=54 velocity=82 time=0
EXTRACT: note_on channel=3 note=65 velocity=118 time=0
EXTRACT: note_on channel=3 note=77 velocity=113 time=0
EXTRACT: note_on channel=4 note=34 velocity=115 time=0
EXTRACT: note_on channel=4 note=46 velocity=121 time=0
EXTRACT: note_on channel=9 note=54 velocity=0 time=0.052088156249999996
EXTRACT: note_on channel=9 note=42 velocity=0 time=0.054981942708333335
EXTRACT: note_on channel=9 note=40 velocity=0 time=0.028937864583333334
EXTRACT: note_on channel=9 note=39 velocity=0 time=0
EXTRACT: note_on channel=9 note=54 velocity=45 time=0.0028937864583333333
EXTRACT: note_on channel=9 note=54 velocity=0 time=0.03761922395833333
EXTRACT: note_on channel=4 note=34 velocity=0 time=0.011575145833333333
EXTRACT: note_on channel=3 note=77 velocity=0 time=0.011575145833333333
EXTRACT: note_on channel=4 note=46 velocity=0 time=0
EXTRACT: note_on channel=3 note=65 velocity=0 time=0.07234466145833333
EXTRACT: note_on channel=9 note=42 velocity=90 time=0.0057875729166666666
EXTRACT: note_on channel=9 note=54 velocity=75 time=0
EXTRACT: note_on channel=9 note=56 velocity=59 time=0
EXTRACT: note_on channel=9 note=80 velocity=127 time=0
EXTRACT: note_on channel=3 note=63 velocity=117 time=0
EXTRACT: note_on channel=3 note=75 velocity=116 time=0
EXTRACT: note_on channel=4 note=34 velocity=110 time=0
EXTRACT: note_on channel=4 note=46 velocity=110 time=0
EXTRACT: note_on channel=9 note=54 velocity=0 time=0.04051301041666667
EXTRACT: note_on channel=9 note=56 velocity=0 time=0.031831651041666666
EXTRACT: note_on channel=9 note=42 velocity=0 time=0.0028937864583333333
EXTRACT: note_on channel=3 note=75 velocity=0 time=0.0057875729166666666
EXTRACT: note_on channel=3 note=63 velocity=0 time=0.011575145833333333
EXTRACT: note_on channel=9 note=80 velocity=0 time=0.043406796875
EXTRACT: note_on channel=9 note=54 velocity=49 time=0.0028937864583333333
EXTRACT: note_on channel=9 note=56 velocity=23 time=0
EXTRACT: note_on channel=9 note=54 velocity=0 time=0.04051301041666667
EXTRACT: note_on channel=4 note=34 velocity=0 time=0.054981942708333335
EXTRACT: note_on channel=4 note=46 velocity=0 time=0.011575145833333333
EXTRACT: note_on channel=8 note=65 velocity=0 time=0.01736271875
EXTRACT: note_on channel=2 note=72 velocity=0 time=0.0028937864583333333
EXTRACT: note_on channel=8 note=69 velocity=0 time=0.0057875729166666666
EXTRACT: note_on channel=9 note=56 velocity=0 time=0.0028937864583333333
EXTRACT: note_on channel=2 note=77 velocity=0 time=0
EXTRACT: note_on channel=9 note=36 velocity=114 time=0.0028937864583333333
EXTRACT: note_on channel=9 note=42 velocity=122 time=0
EXTRACT: note_on channel=9 note=49 velocity=83 time=0
EXTRACT: note_on channel=9 note=54 velocity=90 time=0
EXTRACT: note_on channel=0 note=34 velocity=126 time=0
EXTRACT: note_on channel=2 note=81 velocity=0 time=0
EXTRACT: note_on channel=2 note=73 velocity=88 time=0
EXTRACT: note_on channel=2 note=77 velocity=85 time=0
EXTRACT: note_on channel=2 note=82 velocity=84 time=0
EXTRACT: note_on channel=3 note=63 velocity=117 time=0
EXTRACT: note_on channel=3 note=75 velocity=118 time=0
EXTRACT: note_on channel=5 note=34 velocity=123 time=0
EXTRACT: note_on channel=5 note=46 velocity=92 time=0
EXTRACT: note_on channel=8 note=72 velocity=0 time=0
EXTRACT: note_on channel=8 note=65 velocity=88 time=0
EXTRACT: note_on channel=8 note=70 velocity=85 time=0
EXTRACT: note_on channel=8 note=73 velocity=84 time=0
EXTRACT: note_on channel=1 note=34 velocity=126 time=0.0217033984375
EXTRACT: note_on channel=9 note=54 velocity=0 time=0.027490971354166668
EXTRACT: note_on channel=9 note=42 velocity=0 time=0.043406796875
EXTRACT: note_on channel=9 note=49 velocity=0 time=0.043406796875
EXTRACT: note_on channel=9 note=36 velocity=0 time=0
EXTRACT: note_on channel=9 note=54 velocity=42 time=0.0028937864583333333
EXTRACT: note_on channel=9 note=54 velocity=0 time=0.052088156249999996
EXTRACT: note_on channel=9 note=42 velocity=100 time=0.08681359375
EXTRACT: note_on channel=9 note=54 velocity=78 time=0
EXTRACT: note_on channel=9 note=56 velocity=59 time=0
EXTRACT: note_on channel=9 note=80 velocity=127 time=0
EXTRACT: note_on channel=9 note=54 velocity=0 time=0.0347254375
EXTRACT: note_on channel=0 note=34 velocity=0 time=0.0057875729166666666
EXTRACT: note_on channel=1 note=34 velocity=0 time=0.0217033984375
EXTRACT: note_on channel=5 note=46 velocity=0 time=0.007234466145833333
EXTRACT: note_on channel=5 note=34 velocity=0 time=0
EXTRACT: note_on channel=9 note=56 velocity=0 time=0.0028937864583333333
EXTRACT: note_on channel=9 note=42 velocity=0 time=0.0028937864583333333
EXTRACT: note_on channel=9 note=80 velocity=0 time=0.060769515625
EXTRACT: note_on channel=9 note=54 velocity=54 time=0.0028937864583333333
EXTRACT: note_on channel=9 note=56 velocity=23 time=0
EXTRACT: note_on channel=9 note=54 velocity=0 time=0.07523844791666666
EXTRACT: note_on channel=9 note=56 velocity=0 time=0.060769515625
EXTRACT: note_on channel=9 note=39 velocity=80 time=0.0028937864583333333
EXTRACT: note_on channel=9 note=40 velocity=121 time=0
EXTRACT: note_on channel=9 note=42 velocity=114 time=0
EXTRACT: note_on channel=9 note=54 velocity=85 time=0
EXTRACT: note_on channel=0 note=34 velocity=123 time=0
EXTRACT: note_on channel=5 note=34 velocity=124 time=0
EXTRACT: note_on channel=5 note=46 velocity=93 time=0
EXTRACT: note_on channel=1 note=34 velocity=123 time=0.0217033984375
EXTRACT: note_on channel=9 note=54 velocity=0 time=0.0217033984375
EXTRACT: note_on channel=9 note=42 velocity=0 time=0.06366330208333333
EXTRACT: note_on channel=9 note=40 velocity=0 time=0.028937864583333334
EXTRACT: note_on channel=9 note=39 velocity=0 time=0
EXTRACT: note_on channel=9 note=54 velocity=49 time=0.0028937864583333333
EXTRACT: note_on channel=9 note=54 velocity=0 time=0.07234466145833333
EXTRACT: note_on channel=3 note=63 velocity=0 time=0.043406796875
EXTRACT: note_on channel=3 note=75 velocity=0 time=0.0057875729166666666
EXTRACT: note_on channel=0 note=34 velocity=0 time=0.011575145833333333
EXTRACT: note_on channel=5 note=34 velocity=0 time=0
EXTRACT: note_on channel=9 note=36 velocity=109 time=0.0057875729166666666
EXTRACT: note_on channel=9 note=42 velocity=90 time=0
EXTRACT: note_on channel=9 note=54 velocity=80 time=0
EXTRACT: note_on channel=9 note=56 velocity=59 time=0
EXTRACT: note_on channel=9 note=80 velocity=127 time=0
EXTRACT: note_on channel=0 note=33 velocity=115 time=0
EXTRACT: note_on channel=3 note=61 velocity=112 time=0
EXTRACT: note_on channel=3 note=73 velocity=117 time=0
EXTRACT: note_on channel=4 note=34 velocity=114 time=0
EXTRACT: note_on channel=4 note=46 velocity=121 time=0
EXTRACT: note_on channel=5 note=46 velocity=0 time=0
EXTRACT: note_on channel=5 note=33 velocity=105 time=0
EXTRACT: note_on channel=5 note=45 velocity=74 time=0
EXTRACT: note_on channel=1 note=34 velocity=0 time=0.015915825520833333
EXTRACT: note_on channel=1 note=33 velocity=115 time=0.0057875729166666666
EXTRACT: note_on channel=9 note=54 velocity=0 time=0.0217033984375
EXTRACT: note_on channel=9 note=56 velocity=0 time=0.026044078124999998
EXTRACT: note_on channel=9 note=42 velocity=0 time=0.0057875729166666666
EXTRACT: note_on channel=9 note=36 velocity=0 time=0.031831651041666666
EXTRACT: note_on channel=9 note=80 velocity=0 time=0.028937864583333334
EXTRACT: note_on channel=9 note=54 velocity=52 time=0.0028937864583333333
EXTRACT: note_on channel=9 note=56 velocity=23 time=0
EXTRACT: note_on channel=4 note=34 velocity=0 time=0.011575145833333333
EXTRACT: note_on channel=4 note=46 velocity=0 time=0.0347254375
EXTRACT: note_on channel=9 note=54 velocity=0 time=0.0057875729166666666
EXTRACT: note_on channel=3 note=73 velocity=0 time=0.07523844791666666
EXTRACT: note_on channel=0 note=33 velocity=0 time=0.0057875729166666666
EXTRACT: note_on channel=5 note=33 velocity=0 time=0
EXTRACT: note_on channel=9 note=56 velocity=0 time=0.0028937864583333333
EXTRACT: note_on channel=9 note=36 velocity=109 time=0.0028937864583333333
EXTRACT: note_on channel=9 note=42 velocity=122 time=0
EXTRACT: note_on channel=9 note=54 velocity=86 time=0
EXTRACT: note_on channel=0 note=32 velocity=113 time=0
EXTRACT: note_on channel=5 note=45 velocity=0 time=0
EXTRACT: note_on channel=5 note=32 velocity=115 time=0
EXTRACT: note_on channel=5 note=44 velocity=84 time=0
EXTRACT: note_on channel=1 note=33 velocity=0 time=0.015915825520833333
EXTRACT: note_on channel=1 note=32 velocity=113 time=0.0057875729166666666
EXTRACT: note_on channel=3 note=61 velocity=0 time=0.007234466145833333
EXTRACT: note_on channel=9 note=54 velocity=0 time=0.026044078124999998
EXTRACT: note_on channel=9 note=42 velocity=0 time=0.03761922395833333
EXTRACT: note_on channel=9 note=36 velocity=0 time=0.008681359375
EXTRACT: note_on channel=9 note=54 velocity=48 time=0.03761922395833333
EXTRACT: note_on channel=9 note=54 velocity=0 time=0.03761922395833333
EXTRACT: note_on channel=0 note=32 velocity=0 time=0.095494953125
EXTRACT: note_on channel=5 note=32 velocity=0 time=0
EXTRACT: note_on channel=9 note=36 velocity=113 time=0.0057875729166666666
EXTRACT: note_on channel=9 note=42 velocity=100 time=0
EXTRACT: note_on channel=9 note=54 velocity=81 time=0
EXTRACT: note_on channel=9 note=56 velocity=59 time=0
EXTRACT: note_on channel=9 note=80 velocity=127 time=0
EXTRACT: note_on channel=0 note=31 velocity=119 time=0
EXTRACT: note_on channel=4 note=34 velocity=118 time=0
EXTRACT: note_on channel=4 note=46 velocity=122 time=0
EXTRACT: note_on channel=5 note=44 velocity=0 time=0
EXTRACT: note_on channel=5 note=31 velocity=110 time=0
EXTRACT: note_on channel=5 note=43 velocity=79 time=0
EXTRACT: note_on channel=1 note=32 velocity=0 time=0.015915825520833333
EXTRACT: note_on channel=1 note=31 velocity=119 time=0.0057875729166666666
EXTRACT: note_on channel=9 note=54 velocity=0 time=0.027490971354166668
EXTRACT: note_on channel=9 note=56 velocity=0 time=0.020256505208333334
EXTRACT: note_on channel=9 note=42 velocity=0 time=0.0057875729166666666
EXTRACT: note_on channel=9 note=36 velocity=0 time=0.060769515625
EXTRACT: note_on channel=9 note=80 velocity=0 time=0
EXTRACT: note_on channel=9 note=54 velocity=65 time=0.0028937864583333333
EXTRACT: note_on channel=9 note=56 velocity=23 time=0
EXTRACT: note_on channel=4 note=34 velocity=0 time=0.04051301041666667
EXTRACT: note_on channel=4 note=46 velocity=0 time=0.0057875729166666666
EXTRACT: note_on channel=9 note=54 velocity=0 time=0.014468932291666667
EXTRACT: note_on channel=0 note=31 velocity=0 time=0.07234466145833333
EXTRACT: note_on channel=5 note=31 velocity=0 time=0
EXTRACT: note_on channel=9 note=56 velocity=0 time=0.0028937864583333333
EXTRACT: note_on channel=9 note=39 velocity=80 time=0.0028937864583333333
EXTRACT: note_on channel=9 note=40 velocity=121 time=0
EXTRACT: note_on channel=9 note=42 velocity=114 time=0
EXTRACT: note_on channel=9 note=54 velocity=82 time=0
EXTRACT: note_on channel=0 note=30 velocity=114 time=0
EXTRACT: note_on channel=4 note=34 velocity=115 time=0
EXTRACT: note_on channel=4 note=46 velocity=121 time=0
EXTRACT: note_on channel=5 note=43 velocity=0 time=0
EXTRACT: note_on channel=5 note=30 velocity=108 time=0
EXTRACT: note_on channel=5 note=42 velocity=77 time=0
EXTRACT: note_on channel=1 note=31 velocity=0 time=0.015915825520833333
EXTRACT: note_on channel=1 note=30 velocity=114 time=0.0057875729166666666
EXTRACT: note_on channel=9 note=54 velocity=0 time=0.033278544270833335
EXTRACT: note_on channel=9 note=42 velocity=0 time=0.052088156249999996
EXTRACT: note_on channel=9 note=40 velocity=0 time=0.028937864583333334
EXTRACT: note_on channel=9 note=39 velocity=0 time=0
EXTRACT: note_on channel=9 note=54 velocity=45 time=0.0028937864583333333
EXTRACT: note_on channel=9 note=54 velocity=0 time=0.03761922395833333
EXTRACT: note_on channel=4 note=34 velocity=0 time=0.011575145833333333
EXTRACT: note_on channel=4 note=46 velocity=0 time=0.008681359375
EXTRACT: note_on channel=5 note=30 velocity=0 time=0.03761922395833333
EXTRACT: note_on channel=5 note=42 velocity=0 time=0.0028937864583333333
EXTRACT: note_on channel=9 note=42 velocity=90 time=0.04051301041666667
EXTRACT: note_on channel=9 note=54 velocity=75 time=0
EXTRACT: note_on channel=9 note=56 velocity=59 time=0
EXTRACT: note_on channel=9 note=80 velocity=127 time=0
EXTRACT: note_on channel=4 note=34 velocity=110 time=0
EXTRACT: note_on channel=4 note=46 velocity=110 time=0
EXTRACT: note_on channel=0 note=30 velocity=0 time=0.028937864583333334
EXTRACT: note_on channel=9 note=54 velocity=0 time=0.011575145833333333
EXTRACT: note_on channel=1 note=30 velocity=0 time=0.010128252604166667
EXTRACT: note_on channel=9 note=56 velocity=0 time=0.0217033984375
EXTRACT: note_on channel=9 note=42 velocity=0 time=0.0028937864583333333
EXTRACT: note_on channel=9 note=80 velocity=0 time=0.060769515625
EXTRACT: note_on channel=9 note=54 velocity=49 time=0.0028937864583333333
EXTRACT: note_on channel=9 note=56 velocity=23 time=0
EXTRACT: note_on channel=9 note=54 velocity=0 time=0.04051301041666667
EXTRACT: note_on channel=4 note=34 velocity=0 time=0.054981942708333335
EXTRACT: note_on channel=4 note=46 velocity=0 time=0.011575145833333333
EXTRACT: note_on channel=8 note=65 velocity=0 time=0.01736271875
EXTRACT: note_on channel=2 note=73 velocity=0 time=0.0028937864583333333
EXTRACT: note_on channel=8 note=70 velocity=0 time=0.0057875729166666666
EXTRACT: note_on channel=9 note=56 velocity=0 time=0.0028937864583333333
EXTRACT: note_on channel=2 note=77 velocity=0 time=0
EXTRACT: note_on channel=9 note=36 velocity=116 time=0.0028937864583333333
EXTRACT: note_on channel=9 note=42 velocity=122 time=0
EXTRACT: note_on channel=9 note=54 velocity=90 time=0
EXTRACT: note_on channel=9 note=57 velocity=60 time=0
EXTRACT: note_on channel=0 note=30 velocity=124 time=0
EXTRACT: note_on channel=2 note=82 velocity=0 time=0
EXTRACT: note_on channel=2 note=73 velocity=86 time=0
EXTRACT: note_on channel=2 note=78 velocity=89 time=0
EXTRACT: note_on channel=2 note=82 velocity=82 time=0
EXTRACT: note_on channel=3 note=61 velocity=115 time=0
EXTRACT: note_on channel=3 note=70 velocity=117 time=0
EXTRACT: note_on channel=5 note=30 velocity=124 time=0
EXTRACT: note_on channel=5 note=42 velocity=93 time=0
EXTRACT: note_on channel=8 note=73 velocity=0 time=0
EXTRACT: note_on channel=8 note=66 velocity=81 time=0
EXTRACT: note_on channel=8 note=70 velocity=84 time=0
EXTRACT: note_on channel=8 note=73 velocity=77 time=0
EXTRACT: note_on channel=1 note=30 velocity=124 time=0.0217033984375
EXTRACT: note_on channel=9 note=54 velocity=0 time=0.027490971354166668
EXTRACT: note_on channel=9 note=42 velocity=0 time=0.043406796875
EXTRACT: note_on channel=9 note=36 velocity=0 time=0.043406796875
EXTRACT: note_on channel=9 note=57 velocity=0 time=0
EXTRACT: note_on channel=9 note=54 velocity=42 time=0.0028937864583333333
EXTRACT: note_on channel=9 note=54 velocity=0 time=0.052088156249999996
EXTRACT: note_on channel=0 note=30 velocity=0 time=0.07234466145833333
EXTRACT: note_on channel=9 note=42 velocity=100 time=0.014468932291666667
EXTRACT: note_on channel=9 note=54 velocity=78 time=0
EXTRACT: note_on channel=9 note=56 velocity=59 time=0
EXTRACT: note_on channel=9 note=80 velocity=127 time=0
EXTRACT: note_on channel=1 note=30 velocity=0 time=0.007234466145833333
EXTRACT: note_on channel=9 note=54 velocity=0 time=0.027490971354166668
EXTRACT: note_on channel=5 note=30 velocity=0 time=0.014468932291666667
EXTRACT: note_on channel=5 note=42 velocity=0 time=0.0028937864583333333
EXTRACT: note_on channel=9 note=56 velocity=0 time=0.020256505208333334
EXTRACT: note_on channel=9 note=42 velocity=0 time=0.0028937864583333333
EXTRACT: note_on channel=9 note=80 velocity=0 time=0.060769515625
EXTRACT: note_on channel=9 note=54 velocity=54 time=0.0028937864583333333
EXTRACT: note_on channel=9 note=56 velocity=23 time=0
EXTRACT: note_on channel=9 note=54 velocity=0 time=0.07523844791666666
EXTRACT: note_on channel=9 note=56 velocity=0 time=0.060769515625
EXTRACT: note_on channel=9 note=39 velocity=80 time=0.0028937864583333333
EXTRACT: note_on channel=9 note=40 velocity=121 time=0
EXTRACT: note_on channel=9 note=42 velocity=114 time=0
EXTRACT: note_on channel=9 note=54 velocity=85 time=0
EXTRACT: note_on channel=0 note=30 velocity=119 time=0
EXTRACT: note_on channel=5 note=30 velocity=121 time=0
EXTRACT: note_on channel=5 note=42 velocity=90 time=0
EXTRACT: note_on channel=1 note=30 velocity=119 time=0.0217033984375
EXTRACT: note_on channel=9 note=54 velocity=0 time=0.0217033984375
EXTRACT: note_on channel=9 note=42 velocity=0 time=0.06366330208333333
EXTRACT: note_on channel=9 note=40 velocity=0 time=0.028937864583333334
EXTRACT: note_on channel=9 note=39 velocity=0 time=0
EXTRACT: note_on channel=9 note=54 velocity=49 time=0.0028937864583333333
EXTRACT: note_on channel=9 note=54 velocity=0 time=0.07234466145833333
EXTRACT: note_on channel=3 note=61 velocity=0 time=0.020256505208333334
EXTRACT: note_on channel=5 note=30 velocity=0 time=0.020256505208333334
EXTRACT: note_on channel=5 note=42 velocity=0 time=0.0028937864583333333
EXTRACT: note_on channel=3 note=70 velocity=0 time=0.008681359375
EXTRACT: note_on channel=0 note=30 velocity=0 time=0.008681359375
EXTRACT: note_on channel=9 note=36 velocity=111 time=0.0057875729166666666
EXTRACT: note_on channel=9 note=42 velocity=90 time=0
EXTRACT: note_on channel=9 note=54 velocity=80 time=0
EXTRACT: note_on channel=9 note=56 velocity=59 time=0
EXTRACT: note_on channel=9 note=80 velocity=127 time=0
EXTRACT: note_on channel=0 note=32 velocity=122 time=0
EXTRACT: note_on channel=3 note=60 velocity=112 time=0
EXTRACT: note_on channel=3 note=69 velocity=100 time=0
EXTRACT: note_on channel=4 note=34 velocity=114 time=0
EXTRACT: note_on channel=4 note=46 velocity=121 time=0
EXTRACT: note_on channel=5 note=32 velocity=107 time=0
EXTRACT: note_on channel=5 note=44 velocity=76 time=0
EXTRACT: note_on channel=1 note=30 velocity=0 time=0.015915825520833333
EXTRACT: note_on channel=1 note=32 velocity=122 time=0.0057875729166666666
EXTRACT: note_on channel=9 note=54 velocity=0 time=0.0217033984375
EXTRACT: note_on channel=9 note=56 velocity=0 time=0.026044078124999998
EXTRACT: note_on channel=9 note=42 velocity=0 time=0.0057875729166666666
EXTRACT: note_on channel=9 note=36 velocity=0 time=0.020256505208333334
EXTRACT: note_on channel=9 note=80 velocity=0 time=0.04051301041666667
EXTRACT: note_on channel=9 note=54 velocity=52 time=0.0028937864583333333
EXTRACT: note_on channel=9 note=56 velocity=23 time=0
EXTRACT: note_on channel=4 note=34 velocity=0 time=0.011575145833333333
EXTRACT: note_on channel=3 note=60 velocity=0 time=0.0028937864583333333
EXTRACT: note_on channel=4 note=46 velocity=0 time=0.031831651041666666
EXTRACT: note_on channel=9 note=54 velocity=0 time=0.0057875729166666666
EXTRACT: note_on channel=3 note=69 velocity=0 time=0.026044078124999998
EXTRACT: note_on channel=2 note=73 velocity=0 time=0.049194369791666664
EXTRACT: note_on channel=8 note=66 velocity=0 time=0
EXTRACT: note_on channel=0 note=32 velocity=0 time=0.0057875729166666666
EXTRACT: note_on channel=5 note=32 velocity=0 time=0
EXTRACT: note_on channel=8 note=70 velocity=0 time=0
EXTRACT: note_on channel=9 note=56 velocity=0 time=0.0028937864583333333
EXTRACT: note_on channel=2 note=78 velocity=0 time=0
EXTRACT: note_on channel=9 note=36 velocity=112 time=0.0028937864583333333
EXTRACT: note_on channel=9 note=42 velocity=122 time=0
EXTRACT: note_on channel=9 note=54 velocity=86 time=0
EXTRACT: note_on channel=9 note=57 velocity=79 time=0
EXTRACT: note_on channel=0 note=29 velocity=113 time=0
EXTRACT: note_on channel=2 note=82 velocity=0 time=0
EXTRACT: note_on channel=2 note=72 velocity=87 time=0
EXTRACT: note_on channel=2 note=77 velocity=86 time=0
EXTRACT: note_on channel=2 note=81 velocity=83 time=0
EXTRACT: note_on channel=5 note=44 velocity=0 time=0
EXTRACT: note_on channel=5 note=29 velocity=102 time=0
EXTRACT: note_on channel=5 note=41 velocity=71 time=0
EXTRACT: note_on channel=8 note=73 velocity=0 time=0
EXTRACT: note_on channel=8 note=65 velocity=82 time=0
EXTRACT: note_on channel=8 note=69 velocity=81 time=0
EXTRACT: note_on channel=8 note=72 velocity=78 time=0
EXTRACT: note_on channel=1 note=32 velocity=0 time=0.015915825520833333
EXTRACT: note_on channel=1 note=29 velocity=113 time=0.0057875729166666666
EXTRACT: note_on channel=9 note=54 velocity=0 time=0.03617233072916667
EXTRACT: note_on channel=9 note=42 velocity=0 time=0.0347254375
EXTRACT: note_on channel=9 note=36 velocity=0 time=0.043406796875
EXTRACT: note_on channel=9 note=57 velocity=0 time=0
EXTRACT: note_on channel=9 note=54 velocity=48 time=0.0028937864583333333
EXTRACT: note_on channel=9 note=54 velocity=0 time=0.03761922395833333
EXTRACT: note_on channel=5 note=41 velocity=0 time=0.08970738020833333
EXTRACT: note_on channel=5 note=29 velocity=0 time=0
EXTRACT: note_on channel=9 note=42 velocity=100 time=0.011575145833333333
EXTRACT: note_on channel=9 note=54 velocity=81 time=0
EXTRACT: note_on channel=9 note=56 velocity=59 time=0
EXTRACT: note_on channel=9 note=80 velocity=127 time=0
EXTRACT: note_on channel=4 note=34 velocity=118 time=0
EXTRACT: note_on channel=4 note=46 velocity=122 time=0
EXTRACT: note_on channel=9 note=54 velocity=0 time=0.052088156249999996
EXTRACT: note_on channel=9 note=56 velocity=0 time=0.020256505208333334
EXTRACT: note_on channel=9 note=42 velocity=0 time=0.0028937864583333333
EXTRACT: note_on channel=0 note=29 velocity=0 time=0.028937864583333334
EXTRACT: note_on channel=1 note=29 velocity=0 time=0.0217033984375
EXTRACT: note_on channel=9 note=80 velocity=0 time=0.010128252604166667
EXTRACT: note_on channel=9 note=54 velocity=65 time=0.0028937864583333333
EXTRACT: note_on channel=9 note=56 velocity=23 time=0
EXTRACT: note_on channel=4 note=34 velocity=0 time=0.04630058333333333
EXTRACT: note_on channel=4 note=46 velocity=0 time=0.0028937864583333333
EXTRACT: note_on channel=9 note=54 velocity=0 time=0.011575145833333333
EXTRACT: note_on channel=9 note=56 velocity=0 time=0.07523844791666666
EXTRACT: note_on channel=9 note=39 velocity=80 time=0.0028937864583333333
EXTRACT: note_on channel=9 note=40 velocity=121 time=0
EXTRACT: note_on channel=9 note=42 velocity=114 time=0
EXTRACT: note_on channel=9 note=54 velocity=82 time=0
EXTRACT: note_on channel=3 note=65 velocity=117 time=0
EXTRACT: note_on channel=3 note=77 velocity=105 time=0
EXTRACT: note_on channel=4 note=34 velocity=115 time=0
EXTRACT: note_on channel=4 note=46 velocity=121 time=0
EXTRACT: note_on channel=9 note=54 velocity=0 time=0.054981942708333335
EXTRACT: note_on channel=9 note=42 velocity=0 time=0.052088156249999996
EXTRACT: note_on channel=9 note=40 velocity=0 time=0.028937864583333334
EXTRACT: note_on channel=9 note=39 velocity=0 time=0
EXTRACT: note_on channel=9 note=54 velocity=45 time=0.0028937864583333333
EXTRACT: note_on channel=9 note=54 velocity=0 time=0.03761922395833333
EXTRACT: note_on channel=4 note=34 velocity=0 time=0.011575145833333333
EXTRACT: note_on channel=4 note=46 velocity=0 time=0.011575145833333333
EXTRACT: note_on channel=3 note=65 velocity=0 time=0.07234466145833333
EXTRACT: note_on channel=3 note=77 velocity=0 time=0.0028937864583333333
EXTRACT: note_on channel=9 note=42 velocity=90 time=0.0028937864583333333
EXTRACT: note_on channel=9 note=54 velocity=75 time=0
EXTRACT: note_on channel=9 note=56 velocity=59 time=0
EXTRACT: note_on channel=9 note=80 velocity=127 time=0
EXTRACT: note_on channel=3 note=63 velocity=117 time=0
EXTRACT: note_on channel=3 note=75 velocity=112 time=0
EXTRACT: note_on channel=4 note=34 velocity=110 time=0
EXTRACT: note_on channel=4 note=46 velocity=110 time=0
EXTRACT: note_on channel=9 note=54 velocity=0 time=0.04051301041666667
EXTRACT: note_on channel=9 note=56 velocity=0 time=0.031831651041666666
EXTRACT: note_on channel=9 note=42 velocity=0 time=0.0028937864583333333
EXTRACT: note_on channel=3 note=75 velocity=0 time=0.008681359375
EXTRACT: note_on channel=3 note=63 velocity=0 time=0.01736271875
EXTRACT: note_on channel=9 note=80 velocity=0 time=0.0347254375
EXTRACT: note_on channel=9 note=54 velocity=49 time=0.0028937864583333333
EXTRACT: note_on channel=9 note=56 velocity=23 time=0
EXTRACT: note_on channel=9 note=54 velocity=0 time=0.04051301041666667
EXTRACT: note_on channel=4 note=34 velocity=0 time=0.054981942708333335
EXTRACT: note_on channel=4 note=46 velocity=0 time=0.011575145833333333
EXTRACT: note_on channel=8 note=65 velocity=0 time=0.01736271875
EXTRACT: note_on channel=2 note=72 velocity=0 time=0.0028937864583333333
EXTRACT: note_on channel=8 note=69 velocity=0 time=0.0057875729166666666
EXTRACT: note_on channel=9 note=56 velocity=0 time=0.0028937864583333333
EXTRACT: note_on channel=2 note=77 velocity=0 time=0
EXTRACT: note_on channel=9 note=36 velocity=114 time=0.0028937864583333333
EXTRACT: note_on channel=9 note=42 velocity=122 time=0
EXTRACT: note_on channel=9 note=49 velocity=83 time=0
EXTRACT: note_on channel=9 note=54 velocity=90 time=0
EXTRACT: note_on channel=0 note=34 velocity=126 time=0
EXTRACT: note_on channel=2 note=81 velocity=0 time=0
EXTRACT: note_on channel=2 note=73 velocity=88 time=0
EXTRACT: note_on channel=2 note=77 velocity=85 time=0
EXTRACT: note_on channel=2 note=82 velocity=84 time=0
EXTRACT: note_on channel=3 note=63 velocity=116 time=0
EXTRACT: note_on channel=3 note=75 velocity=118 time=0
EXTRACT: note_on channel=5 note=34 velocity=123 time=0
EXTRACT: note_on channel=5 note=46 velocity=92 time=0
EXTRACT: note_on channel=8 note=72 velocity=0 time=0
EXTRACT: note_on channel=8 note=65 velocity=88 time=0
EXTRACT: note_on channel=8 note=70 velocity=85 time=0
EXTRACT: note_on channel=8 note=73 velocity=84 time=0
EXTRACT: note_on channel=1 note=34 velocity=126 time=0.0217033984375
EXTRACT: note_on channel=9 note=54 velocity=0 time=0.027490971354166668
EXTRACT: note_on channel=9 note=42 velocity=0 time=0.043406796875
EXTRACT: note_on channel=9 note=49 velocity=0 time=0.043406796875
EXTRACT: note_on channel=9 note=36 velocity=0 time=0
EXTRACT: note_on channel=9 note=54 velocity=42 time=0.0028937864583333333
EXTRACT: note_on channel=9 note=54 velocity=0 time=0.052088156249999996
EXTRACT: note_on channel=9 note=42 velocity=100 time=0.08681359375
EXTRACT: note_on channel=9 note=54 velocity=78 time=0
EXTRACT: note_on channel=9 note=56 velocity=59 time=0
EXTRACT: note_on channel=9 note=80 velocity=127 time=0
EXTRACT: note_on channel=9 note=54 velocity=0 time=0.0347254375
EXTRACT: note_on channel=0 note=34 velocity=0 time=0.0057875729166666666
EXTRACT: note_on channel=1 note=34 velocity=0 time=0.0217033984375
EXTRACT: note_on channel=5 note=46 velocity=0 time=0.007234466145833333
EXTRACT: note_on channel=5 note=34 velocity=0 time=0
EXTRACT: note_on channel=9 note=56 velocity=0 time=0.0028937864583333333
EXTRACT: note_on channel=9 note=42 velocity=0 time=0.0028937864583333333
EXTRACT: note_on channel=9 note=80 velocity=0 time=0.060769515625
EXTRACT: note_on channel=9 note=54 velocity=54 time=0.0028937864583333333
EXTRACT: note_on channel=9 note=56 velocity=23 time=0
EXTRACT: note_on channel=9 note=54 velocity=0 time=0.07523844791666666
EXTRACT: note_on channel=9 note=56 velocity=0 time=0.060769515625
EXTRACT: note_on channel=9 note=39 velocity=80 time=0.0028937864583333333
EXTRACT: note_on channel=9 note=40 velocity=121 time=0
EXTRACT: note_on channel=9 note=42 velocity=114 time=0
EXTRACT: note_on channel=9 note=54 velocity=85 time=0
EXTRACT: note_on channel=0 note=34 velocity=123 time=0
EXTRACT: note_on channel=5 note=34 velocity=124 time=0
EXTRACT: note_on channel=5 note=46 velocity=93 time=0
EXTRACT: note_on channel=1 note=34 velocity=123 time=0.0217033984375
EXTRACT: note_on channel=9 note=54 velocity=0 time=0.0217033984375
EXTRACT: note_on channel=9 note=42 velocity=0 time=0.06366330208333333
EXTRACT: note_on channel=9 note=40 velocity=0 time=0.028937864583333334
EXTRACT: note_on channel=9 note=39 velocity=0 time=0
EXTRACT: note_on channel=9 note=54 velocity=49 time=0.0028937864583333333
EXTRACT: note_on channel=9 note=54 velocity=0 time=0.07234466145833333
EXTRACT: note_on channel=3 note=75 velocity=0 time=0.04630058333333333
EXTRACT: note_on channel=3 note=63 velocity=0 time=0.0057875729166666666
EXTRACT: note_on channel=0 note=34 velocity=0 time=0.008681359375
EXTRACT: note_on channel=5 note=34 velocity=0 time=0
EXTRACT: note_on channel=9 note=36 velocity=109 time=0.0057875729166666666
EXTRACT: note_on channel=9 note=42 velocity=90 time=0
EXTRACT: note_on channel=9 note=54 velocity=80 time=0
EXTRACT: note_on channel=9 note=56 velocity=59 time=0
EXTRACT: note_on channel=9 note=80 velocity=127 time=0
EXTRACT: note_on channel=0 note=33 velocity=115 time=0
EXTRACT: note_on channel=3 note=61 velocity=111 time=0
EXTRACT: note_on channel=3 note=73 velocity=118 time=0
EXTRACT: note_on channel=4 note=34 velocity=114 time=0
EXTRACT: note_on channel=4 note=46 velocity=121 time=0
EXTRACT: note_on channel=5 note=46 velocity=0 time=0
EXTRACT: note_on channel=5 note=33 velocity=105 time=0
EXTRACT: note_on channel=5 note=45 velocity=74 time=0
EXTRACT: note_on channel=1 note=34 velocity=0 time=0.015915825520833333
EXTRACT: note_on channel=1 note=33 velocity=115 time=0.0057875729166666666
EXTRACT: note_on channel=9 note=54 velocity=0 time=0.018809611979166665
EXTRACT: note_on channel=9 note=56 velocity=0 time=0.028937864583333334
EXTRACT: note_on channel=9 note=42 velocity=0 time=0.0057875729166666666
EXTRACT: note_on channel=9 note=36 velocity=0 time=0.031831651041666666
EXTRACT: note_on channel=9 note=80 velocity=0 time=0.028937864583333334
EXTRACT: note_on channel=9 note=54 velocity=52 time=0.0028937864583333333
EXTRACT: note_on channel=9 note=56 velocity=23 time=0
EXTRACT: note_on channel=4 note=34 velocity=0 time=0.011575145833333333
EXTRACT: note_on channel=4 note=46 velocity=0 time=0.0347254375
EXTRACT: note_on channel=9 note=54 velocity=0 time=0.0057875729166666666
EXTRACT: note_on channel=0 note=33 velocity=0 time=0.08102602083333334
EXTRACT: note_on channel=5 note=33 velocity=0 time=0
EXTRACT: note_on channel=9 note=56 velocity=0 time=0.0028937864583333333
EXTRACT: note_on channel=5 note=45 velocity=0 time=0
EXTRACT: note_on channel=9 note=36 velocity=109 time=0.0028937864583333333
EXTRACT: note_on channel=9 note=42 velocity=122 time=0
EXTRACT: note_on channel=9 note=54 velocity=86 time=0
EXTRACT: note_on channel=0 note=32 velocity=113 time=0
EXTRACT: note_on channel=5 note=32 velocity=115 time=0
EXTRACT: note_on channel=5 note=44 velocity=84 time=0
EXTRACT: note_on channel=1 note=33 velocity=0 time=0.015915825520833333
EXTRACT: note_on channel=1 note=32 velocity=113 time=0.0057875729166666666
EXTRACT: note_on channel=9 note=54 velocity=0 time=0.03617233072916667
EXTRACT: note_on channel=9 note=42 velocity=0 time=0.0347254375
EXTRACT: note_on channel=9 note=36 velocity=0 time=0.008681359375
EXTRACT: note_on channel=9 note=54 velocity=48 time=0.03761922395833333
EXTRACT: note_on channel=9 note=54 velocity=0 time=0.03761922395833333
EXTRACT: note_on channel=0 note=32 velocity=0 time=0.095494953125
EXTRACT: note_on channel=5 note=32 velocity=0 time=0
EXTRACT: note_on channel=9 note=36 velocity=113 time=0.0057875729166666666
EXTRACT: note_on channel=9 note=42 velocity=100 time=0
EXTRACT: note_on channel=9 note=54 velocity=81 time=0
EXTRACT: note_on channel=9 note=56 velocity=59 time=0
EXTRACT: note_on channel=9 note=80 velocity=127 time=0
EXTRACT: note_on channel=0 note=31 velocity=119 time=0
EXTRACT: note_on channel=4 note=34 velocity=118 time=0
EXTRACT: note_on channel=4 note=46 velocity=122 time=0
EXTRACT: note_on channel=5 note=44 velocity=0 time=0
EXTRACT: note_on channel=5 note=31 velocity=110 time=0
EXTRACT: note_on channel=5 note=43 velocity=79 time=0
EXTRACT: note_on channel=1 note=32 velocity=0 time=0.015915825520833333
EXTRACT: note_on channel=1 note=31 velocity=119 time=0.0057875729166666666
EXTRACT: note_on channel=9 note=54 velocity=0 time=0.0303847578125
EXTRACT: note_on channel=9 note=56 velocity=0 time=0.020256505208333334
EXTRACT: note_on channel=9 note=42 velocity=0 time=0.0028937864583333333
EXTRACT: note_on channel=3 note=61 velocity=0 time=0.020256505208333334
EXTRACT: note_on channel=3 note=73 velocity=0 time=0.023150291666666666
EXTRACT: note_on channel=9 note=36 velocity=0 time=0.01736271875
EXTRACT: note_on channel=9 note=80 velocity=0 time=0
EXTRACT: note_on channel=9 note=54 velocity=65 time=0.0028937864583333333
EXTRACT: note_on channel=9 note=56 velocity=23 time=0
EXTRACT: note_on channel=4 note=34 velocity=0 time=0.04051301041666667
EXTRACT: note_on channel=4 note=46 velocity=0 time=0.0057875729166666666
EXTRACT: note_on channel=9 note=54 velocity=0 time=0.014468932291666667
EXTRACT: note_on channel=0 note=31 velocity=0 time=0.07234466145833333
EXTRACT: note_on channel=5 note=31 velocity=0 time=0
EXTRACT: note_on channel=9 note=56 velocity=0 time=0.0028937864583333333
EXTRACT: note_on channel=9 note=39 velocity=80 time=0.0028937864583333333
EXTRACT: note_on channel=9 note=40 velocity=121 time=0
EXTRACT: note_on channel=9 note=42 velocity=114 time=0
EXTRACT: note_on channel=9 note=54 velocity=82 time=0
EXTRACT: note_on channel=0 note=30 velocity=114 time=0
EXTRACT: note_on channel=4 note=34 velocity=115 time=0
EXTRACT: note_on channel=4 note=46 velocity=121 time=0
EXTRACT: note_on channel=5 note=43 velocity=0 time=0
EXTRACT: note_on channel=5 note=30 velocity=108 time=0
EXTRACT: note_on channel=5 note=42 velocity=77 time=0
EXTRACT: note_on channel=1 note=31 velocity=0 time=0.015915825520833333
EXTRACT: note_on channel=1 note=30 velocity=114 time=0.0057875729166666666
EXTRACT: note_on channel=9 note=54 velocity=0 time=0.033278544270833335
EXTRACT: note_on channel=9 note=42 velocity=0 time=0.052088156249999996
EXTRACT: note_on channel=9 note=40 velocity=0 time=0.028937864583333334
EXTRACT: note_on channel=9 note=39 velocity=0 time=0
EXTRACT: note_on channel=9 note=54 velocity=45 time=0.0028937864583333333
EXTRACT: note_on channel=9 note=54 velocity=0 time=0.03761922395833333
EXTRACT: note_on channel=4 note=34 velocity=0 time=0.008681359375
EXTRACT: note_on channel=4 note=46 velocity=0 time=0.011575145833333333
EXTRACT: note_on channel=5 note=30 velocity=0 time=0.03761922395833333
EXTRACT: note_on channel=5 note=42 velocity=0 time=0.0028937864583333333
EXTRACT: note_on channel=9 note=42 velocity=90 time=0.04051301041666667
EXTRACT: note_on channel=9 note=54 velocity=75 time=0
EXTRACT: note_on channel=9 note=56 velocity=59 time=0
EXTRACT: note_on channel=9 note=80 velocity=127 time=0
EXTRACT: note_on channel=4 note=34 velocity=110 time=0
EXTRACT: note_on channel=4 note=46 velocity=110 time=0
EXTRACT: note_on channel=0 note=30 velocity=0 time=0.028937864583333334
EXTRACT: note_on channel=9 note=54 velocity=0 time=0.011575145833333333
EXTRACT: note_on channel=1 note=30 velocity=0 time=0.010128252604166667
EXTRACT: note_on channel=9 note=56 velocity=0 time=0.0217033984375
EXTRACT: note_on channel=9 note=42 velocity=0 time=0.0028937864583333333
EXTRACT: note_on channel=9 note=80 velocity=0 time=0.060769515625
EXTRACT: note_on channel=9 note=54 velocity=49 time=0.0028937864583333333
EXTRACT: note_on channel=9 note=56 velocity=23 time=0
EXTRACT: note_on channel=9 note=54 velocity=0 time=0.04051301041666667
EXTRACT: note_on channel=4 note=34 velocity=0 time=0.054981942708333335
EXTRACT: note_on channel=4 note=46 velocity=0 time=0.011575145833333333
EXTRACT: note_on channel=8 note=65 velocity=0 time=0.01736271875
EXTRACT: note_on channel=2 note=73 velocity=0 time=0.0028937864583333333
EXTRACT: note_on channel=2 note=77 velocity=0 time=0.0057875729166666666
EXTRACT: note_on channel=8 note=70 velocity=0 time=0
EXTRACT: note_on channel=9 note=56 velocity=0 time=0.0028937864583333333
EXTRACT: note_on channel=2 note=82 velocity=0 time=0
EXTRACT: note_on channel=8 note=73 velocity=0 time=0
EXTRACT: note_on channel=9 note=36 velocity=116 time=0.0028937864583333333
EXTRACT: note_on channel=9 note=42 velocity=122 time=0
EXTRACT: note_on channel=9 note=54 velocity=90 time=0
EXTRACT: note_on channel=9 note=57 velocity=60 time=0
EXTRACT: note_on channel=0 note=30 velocity=124 time=0
EXTRACT: note_on channel=2 note=73 velocity=86 time=0
EXTRACT: note_on channel=2 note=78 velocity=89 time=0
EXTRACT: note_on channel=2 note=82 velocity=82 time=0
EXTRACT: note_on channel=3 note=58 velocity=120 time=0
EXTRACT: note_on channel=3 note=70 velocity=119 time=0
EXTRACT: note_on channel=5 note=30 velocity=124 time=0
EXTRACT: note_on channel=5 note=42 velocity=93 time=0
EXTRACT: note_on channel=8 note=66 velocity=81 time=0
EXTRACT: note_on channel=8 note=70 velocity=84 time=0
EXTRACT: note_on channel=8 note=73 velocity=77 time=0
EXTRACT: note_on channel=1 note=30 velocity=124 time=0.0217033984375
EXTRACT: note_on channel=9 note=54 velocity=0 time=0.027490971354166668
EXTRACT: note_on channel=9 note=42 velocity=0 time=0.043406796875
EXTRACT: note_on channel=9 note=36 velocity=0 time=0.043406796875
EXTRACT: note_on channel=9 note=57 velocity=0 time=0
EXTRACT: note_on channel=9 note=54 velocity=42 time=0.0028937864583333333
EXTRACT: note_on channel=9 note=54 velocity=0 time=0.052088156249999996
EXTRACT: note_on channel=3 note=58 velocity=0 time=0.028937864583333334
EXTRACT: note_on channel=3 note=70 velocity=0 time=0.011575145833333333
EXTRACT: note_on channel=0 note=30 velocity=0 time=0.031831651041666666
EXTRACT: note_on channel=9 note=42 velocity=100 time=0.014468932291666667
EXTRACT: note_on channel=9 note=54 velocity=78 time=0
EXTRACT: note_on channel=9 note=56 velocity=59 time=0
EXTRACT: note_on channel=9 note=80 velocity=127 time=0
EXTRACT: note_on channel=1 note=30 velocity=0 time=0.007234466145833333
EXTRACT: note_on channel=9 note=54 velocity=0 time=0.027490971354166668
EXTRACT: note_on channel=5 note=30 velocity=0 time=0.014468932291666667
EXTRACT: note_on channel=5 note=42 velocity=0 time=0.0028937864583333333
EXTRACT: note_on channel=9 note=56 velocity=0 time=0.020256505208333334
EXTRACT: note_on channel=9 note=42 velocity=0 time=0.0028937864583333333
EXTRACT: note_on channel=9 note=80 velocity=0 time=0.060769515625
EXTRACT: note_on channel=9 note=54 velocity=54 time=0.0028937864583333333
EXTRACT: note_on channel=9 note=56 velocity=23 time=0
EXTRACT: note_on channel=9 note=54 velocity=0 time=0.07523844791666666
EXTRACT: note_on channel=9 note=56 velocity=0 time=0.060769515625
EXTRACT: note_on channel=9 note=39 velocity=80 time=0.0028937864583333333
EXTRACT: note_on channel=9 note=40 velocity=121 time=0
EXTRACT: note_on channel=9 note=42 velocity=114 time=0
EXTRACT: note_on channel=9 note=54 velocity=85 time=0
EXTRACT: note_on channel=0 note=30 velocity=119 time=0
EXTRACT: note_on channel=3 note=61 velocity=118 time=0
EXTRACT: note_on channel=3 note=73 velocity=114 time=0
EXTRACT: note_on channel=5 note=30 velocity=121 time=0
EXTRACT: note_on channel=5 note=42 velocity=90 time=0
EXTRACT: note_on channel=1 note=30 velocity=119 time=0.0217033984375
EXTRACT: note_on channel=9 note=54 velocity=0 time=0.0217033984375
EXTRACT: note_on channel=9 note=42 velocity=0 time=0.06366330208333333
EXTRACT: note_on channel=9 note=40 velocity=0 time=0.028937864583333334
EXTRACT: note_on channel=9 note=39 velocity=0 time=0
EXTRACT: note_on channel=9 note=54 velocity=49 time=0.0028937864583333333
EXTRACT: note_on channel=9 note=54 velocity=0 time=0.07234466145833333
EXTRACT: note_on channel=5 note=30 velocity=0 time=0.04051301041666667
EXTRACT: note_on channel=5 note=42 velocity=0 time=0.0028937864583333333
EXTRACT: note_on channel=0 note=30 velocity=0 time=0.01736271875
EXTRACT: note_on channel=9 note=36 velocity=111 time=0.0057875729166666666
EXTRACT: note_on channel=9 note=42 velocity=90 time=0
EXTRACT: note_on channel=9 note=54 velocity=80 time=0
EXTRACT: note_on channel=9 note=56 velocity=59 time=0
EXTRACT: note_on channel=9 note=80 velocity=127 time=0
EXTRACT: note_on channel=0 note=32 velocity=122 time=0
EXTRACT: note_on channel=3 note=61 velocity=0 time=0
EXTRACT: note_on channel=4 note=34 velocity=114 time=0
EXTRACT: note_on channel=4 note=46 velocity=121 time=0
EXTRACT: note_on channel=5 note=32 velocity=107 time=0
EXTRACT: note_on channel=5 note=44 velocity=76 time=0
EXTRACT: note_on channel=1 note=30 velocity=0 time=0.015915825520833333
EXTRACT: note_on channel=3 note=73 velocity=0 time=0.0014468932291666666
EXTRACT: note_on channel=1 note=32 velocity=122 time=0.0043406796875
EXTRACT: note_on channel=9 note=54 velocity=0 time=0.0217033984375
EXTRACT: note_on channel=9 note=56 velocity=0 time=0.028937864583333334
EXTRACT: note_on channel=9 note=42 velocity=0 time=0.0028937864583333333
EXTRACT: note_on channel=9 note=36 velocity=0 time=0.020256505208333334
EXTRACT: note_on channel=9 note=80 velocity=0 time=0.04051301041666667
EXTRACT: note_on channel=9 note=54 velocity=52 time=0.0028937864583333333
EXTRACT: note_on channel=9 note=56 velocity=23 time=0
EXTRACT: note_on channel=4 note=34 velocity=0 time=0.014468932291666667
EXTRACT: note_on channel=4 note=46 velocity=0 time=0.0347254375
EXTRACT: note_on channel=9 note=54 velocity=0 time=0.0028937864583333333
EXTRACT: note_on channel=2 note=73 velocity=0 time=0.07523844791666666
EXTRACT: note_on channel=8 note=66 velocity=0 time=0
EXTRACT: note_on channel=0 note=32 velocity=0 time=0.0057875729166666666
EXTRACT: note_on channel=5 note=32 velocity=0 time=0
EXTRACT: note_on channel=8 note=70 velocity=0 time=0
EXTRACT: note_on channel=9 note=56 velocity=0 time=0.0028937864583333333
EXTRACT: note_on channel=2 note=78 velocity=0 time=0
EXTRACT: note_on channel=8 note=75 velocity=0 time=0
EXTRACT: note_on channel=9 note=36 velocity=112 time=0.0028937864583333333
EXTRACT: note_on channel=9 note=42 velocity=122 time=0
EXTRACT: note_on channel=9 note=54 velocity=86 time=0
EXTRACT: note_on channel=9 note=57 velocity=79 time=0
EXTRACT: note_on channel=0 note=29 velocity=113 time=0
EXTRACT: note_on channel=2 note=82 velocity=0 time=0
EXTRACT: note_on channel=2 note=75 velocity=86 time=0
EXTRACT: note_on channel=2 note=80 velocity=83 time=0
EXTRACT: note_on channel=2 note=84 velocity=87 time=0
EXTRACT: note_on channel=3 note=63 velocity=118 time=0
EXTRACT: note_on channel=3 note=75 velocity=118 time=0
EXTRACT: note_on channel=5 note=44 velocity=0 time=0
EXTRACT: note_on channel=5 note=29 velocity=102 time=0
EXTRACT: note_on channel=5 note=41 velocity=71 time=0
EXTRACT: note_on channel=8 note=73 velocity=0 time=0
EXTRACT: note_on channel=8 note=68 velocity=82 time=0
EXTRACT: note_on channel=8 note=72 velocity=81 time=0
EXTRACT: note_on channel=8 note=75 velocity=78 time=0
EXTRACT: note_on channel=1 note=32 velocity=0 time=0.015915825520833333
EXTRACT: note_on channel=1 note=29 velocity=113 time=0.0057875729166666666
EXTRACT: note_on channel=9 note=54 velocity=0 time=0.03617233072916667
EXTRACT: note_on channel=9 note=42 velocity=0 time=0.0347254375
EXTRACT: note_on channel=9 note=36 velocity=0 time=0.043406796875
EXTRACT: note_on channel=9 note=57 velocity=0 time=0
EXTRACT: note_on channel=9 note=54 velocity=48 time=0.0028937864583333333
EXTRACT: note_on channel=9 note=54 velocity=0 time=0.03761922395833333
EXTRACT: note_on channel=5 note=29 velocity=0 time=0.08970738020833333
EXTRACT: note_on channel=5 note=41 velocity=0 time=0.0028937864583333333
EXTRACT: note_on channel=9 note=42 velocity=100 time=0.008681359375
EXTRACT: note_on channel=9 note=54 velocity=81 time=0
EXTRACT: note_on channel=9 note=56 velocity=59 time=0
EXTRACT: note_on channel=9 note=80 velocity=127 time=0
EXTRACT: note_on channel=4 note=34 velocity=118 time=0
EXTRACT: note_on channel=4 note=46 velocity=122 time=0
EXTRACT: note_on channel=9 note=54 velocity=0 time=0.052088156249999996
EXTRACT: note_on channel=9 note=56 velocity=0 time=0.020256505208333334
EXTRACT: note_on channel=9 note=42 velocity=0 time=0.0028937864583333333
EXTRACT: note_on channel=0 note=29 velocity=0 time=0.028937864583333334
EXTRACT: note_on channel=1 note=29 velocity=0 time=0.0217033984375
EXTRACT: note_on channel=9 note=80 velocity=0 time=0.010128252604166667
EXTRACT: note_on channel=9 note=54 velocity=65 time=0.0028937864583333333
EXTRACT: note_on channel=9 note=56 velocity=23 time=0
EXTRACT: note_on channel=4 note=34 velocity=0 time=0.043406796875
EXTRACT: note_on channel=4 note=46 velocity=0 time=0.0057875729166666666
EXTRACT: note_on channel=9 note=54 velocity=0 time=0.011575145833333333
EXTRACT: note_on channel=3 note=63 velocity=0 time=0.069450875
EXTRACT: note_on channel=9 note=56 velocity=0 time=0.0057875729166666666
EXTRACT: note_on channel=3 note=75 velocity=0 time=0
EXTRACT: note_on channel=9 note=39 velocity=80 time=0.0028937864583333333
EXTRACT: note_on channel=9 note=40 velocity=121 time=0
EXTRACT: note_on channel=9 note=42 velocity=114 time=0
EXTRACT: note_on channel=9 note=54 velocity=82 time=0
EXTRACT: note_on channel=3 note=58 velocity=112 time=0
EXTRACT: note_on channel=3 note=70 velocity=116 time=0
EXTRACT: note_on channel=4 note=34 velocity=115 time=0
EXTRACT: note_on channel=4 note=46 velocity=121 time=0
EXTRACT: note_on channel=9 note=54 velocity=0 time=0.054981942708333335
EXTRACT: note_on channel=9 note=42 velocity=0 time=0.052088156249999996
EXTRACT: note_on channel=9 note=40 velocity=0 time=0.028937864583333334
EXTRACT: note_on channel=9 note=39 velocity=0 time=0
EXTRACT: note_on channel=9 note=54 velocity=45 time=0.0028937864583333333
EXTRACT: note_on channel=9 note=54 velocity=0 time=0.03761922395833333
EXTRACT: note_on channel=4 note=34 velocity=0 time=0.011575145833333333
EXTRACT: note_on channel=4 note=46 velocity=0 time=0.011575145833333333
EXTRACT: note_on channel=3 note=58 velocity=0 time=0.069450875
EXTRACT: note_on channel=9 note=42 velocity=90 time=0.008681359375
EXTRACT: note_on channel=9 note=54 velocity=75 time=0
EXTRACT: note_on channel=9 note=56 velocity=59 time=0
EXTRACT: note_on channel=9 note=80 velocity=127 time=0
EXTRACT: note_on channel=3 note=58 velocity=103 time=0
EXTRACT: note_on channel=4 note=34 velocity=110 time=0
EXTRACT: note_on channel=4 note=46 velocity=110 time=0
EXTRACT: note_on channel=9 note=54 velocity=0 time=0.04051301041666667
EXTRACT: note_on channel=9 note=56 velocity=0 time=0.031831651041666666
EXTRACT: note_on channel=9 note=42 velocity=0 time=0.0028937864583333333
EXTRACT: note_on channel=9 note=80 velocity=0 time=0.060769515625
EXTRACT: note_on channel=3 note=70 velocity=0 time=0
EXTRACT: note_on channel=9 note=54 velocity=49 time=0.0028937864583333333
EXTRACT: note_on channel=9 note=56 velocity=23 time=0
EXTRACT: note_on channel=9 note=54 velocity=0 time=0.04051301041666667
EXTRACT: note_on channel=4 note=34 velocity=0 time=0.054981942708333335
EXTRACT: note_on channel=4 note=46 velocity=0 time=0.011575145833333333
EXTRACT: note_on channel=3 note=58 velocity=0 time=0.008681359375
EXTRACT: note_on channel=8 note=68 velocity=0 time=0.008681359375
EXTRACT: note_on channel=2 note=75 velocity=0 time=0.0028937864583333333
EXTRACT: note_on channel=8 note=72 velocity=0 time=0.0057875729166666666
EXTRACT: note_on channel=9 note=56 velocity=0 time=0.0028937864583333333
EXTRACT: note_on channel=2 note=84 velocity=0 time=0
EXTRACT: note_on channel=2 note=80 velocity=0 time=0
EXTRACT: note_on channel=8 note=75 velocity=0 time=0
EXTRACT: note_on channel=9 note=36 velocity=114 time=0.0028937864583333333
EXTRACT: note_on channel=9 note=42 velocity=122 time=0
EXTRACT: note_on channel=9 note=49 velocity=83 time=0
EXTRACT: note_on channel=9 note=54 velocity=90 time=0
EXTRACT: note_on channel=0 note=34 velocity=126 time=0
EXTRACT: note_on channel=2 note=73 velocity=88 time=0
EXTRACT: note_on channel=2 note=77 velocity=85 time=0
EXTRACT: note_on channel=2 note=82 velocity=84 time=0
EXTRACT: note_on channel=5 note=34 velocity=123 time=0
EXTRACT: note_on channel=5 note=46 velocity=92 time=0
EXTRACT: note_on channel=8 note=65 velocity=88 time=0
EXTRACT: note_on channel=8 note=70 velocity=85 time=0
EXTRACT: note_on channel=8 note=73 velocity=84 time=0
EXTRACT: note_on channel=1 note=34 velocity=126 time=0.0217033984375
EXTRACT: note_on channel=9 note=54 velocity=0 time=0.027490971354166668
EXTRACT: note_on channel=9 note=42 velocity=0 time=0.043406796875
EXTRACT: note_on channel=9 note=49 velocity=0 time=0.043406796875
EXTRACT: note_on channel=9 note=36 velocity=0 time=0
EXTRACT: note_on channel=9 note=54 velocity=42 time=0.0028937864583333333
EXTRACT: note_on channel=9 note=54 velocity=0 time=0.052088156249999996
EXTRACT: note_on channel=9 note=42 velocity=100 time=0.08681359375
EXTRACT: note_on channel=9 note=54 velocity=78 time=0
EXTRACT: note_on channel=9 note=56 velocity=59 time=0
EXTRACT: note_on channel=9 note=80 velocity=127 time=0
EXTRACT: note_on channel=9 note=54 velocity=0 time=0.0347254375
EXTRACT: note_on channel=0 note=34 velocity=0 time=0.0057875729166666666
EXTRACT: note_on channel=1 note=34 velocity=0 time=0.0217033984375
EXTRACT: note_on channel=5 note=34 velocity=0 time=0.007234466145833333
EXTRACT: note_on channel=9 note=56 velocity=0 time=0.0028937864583333333
EXTRACT: note_on channel=5 note=46 velocity=0 time=0
EXTRACT: note_on channel=9 note=42 velocity=0 time=0.0028937864583333333
EXTRACT: note_on channel=9 note=80 velocity=0 time=0.060769515625
EXTRACT: note_on channel=9 note=54 velocity=54 time=0.0028937864583333333
EXTRACT: note_on channel=9 note=56 velocity=23 time=0
EXTRACT: note_on channel=9 note=54 velocity=0 time=0.07523844791666666
EXTRACT: note_on channel=9 note=56 velocity=0 time=0.060769515625
EXTRACT: note_on channel=9 note=39 velocity=80 time=0.0028937864583333333
EXTRACT: note_on channel=9 note=40 velocity=121 time=0
EXTRACT: note_on channel=9 note=42 velocity=114 time=0
EXTRACT: note_on channel=9 note=54 velocity=85 time=0
EXTRACT: note_on channel=0 note=34 velocity=123 time=0
EXTRACT: note_on channel=5 note=34 velocity=124 time=0
EXTRACT: note_on channel=5 note=46 velocity=93 time=0
EXTRACT: note_on channel=1 note=34 velocity=123 time=0.0217033984375
EXTRACT: note_on channel=9 note=54 velocity=0 time=0.018809611979166665
EXTRACT: note_on channel=9 note=42 velocity=0 time=0.06655708854166667
EXTRACT: note_on channel=9 note=40 velocity=0 time=0.028937864583333334
EXTRACT: note_on channel=9 note=39 velocity=0 time=0
EXTRACT: note_on channel=9 note=54 velocity=49 time=0.0028937864583333333
EXTRACT: note_on channel=9 note=54 velocity=0 time=0.07234466145833333
EXTRACT: note_on channel=0 note=34 velocity=0 time=0.060769515625
EXTRACT: note_on channel=5 note=34 velocity=0 time=0
EXTRACT: note_on channel=9 note=36 velocity=109 time=0.0057875729166666666
EXTRACT: note_on channel=9 note=42 velocity=90 time=0
EXTRACT: note_on channel=9 note=54 velocity=80 time=0
EXTRACT: note_on channel=9 note=56 velocity=59 time=0
EXTRACT: note_on channel=9 note=80 velocity=127 time=0
EXTRACT: note_on channel=0 note=33 velocity=115 time=0
EXTRACT: note_on channel=4 note=34 velocity=114 time=0
EXTRACT: note_on channel=4 note=46 velocity=121 time=0
EXTRACT: note_on channel=5 note=46 velocity=0 time=0
EXTRACT: note_on channel=5 note=33 velocity=105 time=0
EXTRACT: note_on channel=5 note=45 velocity=74 time=0
EXTRACT: note_on channel=1 note=34 velocity=0 time=0.015915825520833333
EXTRACT: note_on channel=1 note=33 velocity=115 time=0.0057875729166666666
EXTRACT: note_on channel=9 note=54 velocity=0 time=0.0217033984375
EXTRACT: note_on channel=9 note=56 velocity=0 time=0.028937864583333334
EXTRACT: note_on channel=9 note=42 velocity=0 time=0.0028937864583333333
EXTRACT: note_on channel=9 note=36 velocity=0 time=0.031831651041666666
EXTRACT: note_on channel=9 note=80 velocity=0 time=0.028937864583333334
EXTRACT: note_on channel=9 note=54 velocity=52 time=0.0028937864583333333
EXTRACT: note_on channel=9 note=56 velocity=23 time=0
EXTRACT: note_on channel=4 note=34 velocity=0 time=0.014468932291666667
EXTRACT: note_on channel=4 note=46 velocity=0 time=0.0347254375
EXTRACT: note_on channel=9 note=54 velocity=0 time=0.0028937864583333333
EXTRACT: note_on channel=0 note=33 velocity=0 time=0.08102602083333334
EXTRACT: note_on channel=5 note=33 velocity=0 time=0
EXTRACT: note_on channel=9 note=56 velocity=0 time=0.0028937864583333333
EXTRACT: note_on channel=9 note=36 velocity=109 time=0.0028937864583333333
EXTRACT: note_on channel=9 note=42 velocity=122 time=0
EXTRACT: note_on channel=9 note=54 velocity=86 time=0
EXTRACT: note_on channel=0 note=32 velocity=113 time=0
EXTRACT: note_on channel=5 note=45 velocity=0 time=0
EXTRACT: note_on channel=5 note=32 velocity=115 time=0
EXTRACT: note_on channel=5 note=44 velocity=84 time=0
EXTRACT: note_on channel=1 note=33 velocity=0 time=0.015915825520833333
EXTRACT: note_on channel=1 note=32 velocity=113 time=0.0057875729166666666
EXTRACT: note_on channel=9 note=54 velocity=0 time=0.03617233072916667
EXTRACT: note_on channel=9 note=42 velocity=0 time=0.0347254375
EXTRACT: note_on channel=9 note=36 velocity=0 time=0.008681359375
EXTRACT: note_on channel=9 note=54 velocity=48 time=0.03761922395833333
EXTRACT: note_on channel=9 note=54 velocity=0 time=0.03761922395833333
EXTRACT: note_on channel=0 note=32 velocity=0 time=0.095494953125
EXTRACT: note_on channel=5 note=32 velocity=0 time=0
EXTRACT: note_on channel=9 note=36 velocity=113 time=0.0057875729166666666
EXTRACT: note_on channel=9 note=42 velocity=100 time=0
EXTRACT: note_on channel=9 note=54 velocity=81 time=0
EXTRACT: note_on channel=9 note=56 velocity=59 time=0
EXTRACT: note_on channel=9 note=80 velocity=127 time=0
EXTRACT: note_on channel=0 note=31 velocity=119 time=0
EXTRACT: note_on channel=4 note=34 velocity=118 time=0
EXTRACT: note_on channel=4 note=46 velocity=122 time=0
EXTRACT: note_on channel=5 note=44 velocity=0 time=0
EXTRACT: note_on channel=5 note=31 velocity=110 time=0
EXTRACT: note_on channel=5 note=43 velocity=79 time=0
EXTRACT: note_on channel=1 note=32 velocity=0 time=0.015915825520833333
EXTRACT: note_on channel=1 note=31 velocity=119 time=0.0057875729166666666
EXTRACT: note_on channel=9 note=54 velocity=0 time=0.0303847578125
EXTRACT: note_on channel=9 note=56 velocity=0 time=0.020256505208333334
EXTRACT: note_on channel=9 note=42 velocity=0 time=0.0028937864583333333
EXTRACT: note_on channel=9 note=36 velocity=0 time=0.060769515625
EXTRACT: note_on channel=9 note=80 velocity=0 time=0
EXTRACT: note_on channel=9 note=54 velocity=65 time=0.0028937864583333333
EXTRACT: note_on channel=9 note=56 velocity=23 time=0
EXTRACT: note_on channel=4 note=34 velocity=0 time=0.04051301041666667
EXTRACT: note_on channel=4 note=46 velocity=0 time=0.0057875729166666666
EXTRACT: note_on channel=9 note=54 velocity=0 time=0.014468932291666667
EXTRACT: note_on channel=0 note=31 velocity=0 time=0.07234466145833333
EXTRACT: note_on channel=5 note=31 velocity=0 time=0
EXTRACT: note_on channel=9 note=56 velocity=0 time=0.0028937864583333333
EXTRACT: note_on channel=9 note=39 velocity=80 time=0.0028937864583333333
EXTRACT: note_on channel=9 note=40 velocity=121 time=0
EXTRACT: note_on channel=9 note=42 velocity=114 time=0
EXTRACT: note_on channel=9 note=54 velocity=82 time=0
EXTRACT: note_on channel=0 note=30 velocity=114 time=0
EXTRACT: note_on channel=4 note=34 velocity=115 time=0
EXTRACT: note_on channel=4 note=46 velocity=121 time=0
EXTRACT: note_on channel=5 note=43 velocity=0 time=0
EXTRACT: note_on channel=5 note=30 velocity=108 time=0
EXTRACT: note_on channel=5 note=42 velocity=77 time=0
EXTRACT: note_on channel=1 note=31 velocity=0 time=0.015915825520833333
EXTRACT: note_on channel=1 note=30 velocity=114 time=0.0057875729166666666
EXTRACT: note_on channel=9 note=54 velocity=0 time=0.033278544270833335
EXTRACT: note_on channel=9 note=42 velocity=0 time=0.052088156249999996
EXTRACT: note_on channel=9 note=40 velocity=0 time=0.028937864583333334
EXTRACT: note_on channel=9 note=39 velocity=0 time=0
EXTRACT: note_on channel=9 note=54 velocity=45 time=0.0028937864583333333
EXTRACT: note_on channel=9 note=54 velocity=0 time=0.03761922395833333
EXTRACT: note_on channel=4 note=34 velocity=0 time=0.011575145833333333
EXTRACT: note_on channel=4 note=46 velocity=0 time=0.008681359375
EXTRACT: note_on channel=5 note=30 velocity=0 time=0.03761922395833333
EXTRACT: note_on channel=5 note=42 velocity=0 time=0.0028937864583333333
EXTRACT: note_on channel=9 note=42 velocity=90 time=0.04051301041666667
EXTRACT: note_on channel=9 note=54 velocity=75 time=0
EXTRACT: note_on channel=9 note=56 velocity=59 time=0
EXTRACT: note_on channel=9 note=80 velocity=127 time=0
EXTRACT: note_on channel=4 note=34 velocity=110 time=0
EXTRACT: note_on channel=4 note=46 velocity=110 time=0
EXTRACT: note_on channel=0 note=30 velocity=0 time=0.028937864583333334
EXTRACT: note_on channel=9 note=54 velocity=0 time=0.011575145833333333
EXTRACT: note_on channel=1 note=30 velocity=0 time=0.010128252604166667
EXTRACT: note_on channel=9 note=56 velocity=0 time=0.0217033984375
EXTRACT: note_on channel=9 note=42 velocity=0 time=0.0028937864583333333
EXTRACT: note_on channel=9 note=80 velocity=0 time=0.060769515625
EXTRACT: note_on channel=9 note=54 velocity=49 time=0.0028937864583333333
EXTRACT: note_on channel=9 note=56 velocity=23 time=0
EXTRACT: note_on channel=9 note=54 velocity=0 time=0.04051301041666667
EXTRACT: note_on channel=4 note=34 velocity=0 time=0.054981942708333335
EXTRACT: note_on channel=4 note=46 velocity=0 time=0.011575145833333333
EXTRACT: note_on channel=2 note=73 velocity=0 time=0.020256505208333334
EXTRACT: note_on channel=8 note=65 velocity=0 time=0
EXTRACT: note_on channel=2 note=82 velocity=0 time=0.0028937864583333333
EXTRACT: note_on channel=2 note=77 velocity=0 time=0
EXTRACT: note_on channel=9 note=56 velocity=0 time=0.0057875729166666666
EXTRACT: note_on channel=8 note=73 velocity=0 time=0
EXTRACT: note_on channel=8 note=70 velocity=0 time=0
EXTRACT: note_on channel=9 note=36 velocity=114 time=0.0028937864583333333
EXTRACT: note_on channel=9 note=42 velocity=122 time=0
EXTRACT: note_on channel=9 note=49 velocity=83 time=0
EXTRACT: note_on channel=9 note=54 velocity=90 time=0
EXTRACT: note_on channel=0 note=30 velocity=126 time=0
EXTRACT: note_on channel=2 note=73 velocity=86 time=0
EXTRACT: note_on channel=2 note=78 velocity=89 time=0
EXTRACT: note_on channel=2 note=82 velocity=82 time=0
EXTRACT: note_on channel=3 note=58 velocity=119 time=0
EXTRACT: note_on channel=3 note=70 velocity=120 time=0
EXTRACT: note_on channel=4 note=30 velocity=114 time=0
EXTRACT: note_on channel=4 note=42 velocity=121 time=0
EXTRACT: note_on channel=5 note=30 velocity=123 time=0
EXTRACT: note_on channel=5 note=42 velocity=92 time=0
EXTRACT: note_on channel=8 note=66 velocity=81 time=0
EXTRACT: note_on channel=8 note=70 velocity=84 time=0
EXTRACT: note_on channel=8 note=73 velocity=77 time=0
EXTRACT: control_change channel=8 control=1 value=33 time=0.008681359375
EXTRACT: note_on channel=1 note=30 velocity=126 time=0.013022039062499999
EXTRACT: note_on channel=9 note=54 velocity=0 time=0.027490971354166668
EXTRACT: note_on channel=9 note=42 velocity=0 time=0.04051301041666667
EXTRACT: note_on channel=9 note=36 velocity=0 time=0.09260116666666666
EXTRACT: note_on channel=3 note=58 velocity=0 time=0.06366330208333333
EXTRACT: note_on channel=3 note=70 velocity=0 time=0.011575145833333333
EXTRACT: note_on channel=3 note=61 velocity=118 time=0.2980600052083333
EXTRACT: note_on channel=3 note=73 velocity=116 time=0
EXTRACT: note_on channel=3 note=61 velocity=0 time=0.24597184895833332
EXTRACT: note_on channel=3 note=73 velocity=0 time=0.011575145833333333
EXTRACT: note_on channel=8 note=66 velocity=0 time=0.286484859375
EXTRACT: note_on channel=9 note=49 velocity=0 time=0.0028937864583333333
EXTRACT: note_on channel=0 note=30 velocity=0 time=0
EXTRACT: note_on channel=2 note=73 velocity=0 time=0
EXTRACT: note_on channel=4 note=30 velocity=0 time=0
EXTRACT: note_on channel=5 note=30 velocity=0 time=0
EXTRACT: note_on channel=4 note=42 velocity=0 time=0.0057875729166666666
EXTRACT: note_on channel=5 note=42 velocity=0 time=0
EXTRACT: note_on channel=8 note=70 velocity=0 time=0
EXTRACT: note_on channel=9 note=36 velocity=109 time=0.0028937864583333333
EXTRACT: note_on channel=9 note=57 velocity=76 time=0
EXTRACT: note_on channel=0 note=32 velocity=123 time=0
EXTRACT: note_on channel=2 note=78 velocity=0 time=0
EXTRACT: note_on channel=2 note=75 velocity=86 time=0
EXTRACT: note_on channel=2 note=80 velocity=83 time=0
EXTRACT: note_on channel=2 note=84 velocity=87 time=0
EXTRACT: note_on channel=3 note=63 velocity=114 time=0
EXTRACT: note_on channel=3 note=75 velocity=118 time=0
EXTRACT: note_on channel=4 note=32 velocity=118 time=0
EXTRACT: note_on channel=4 note=44 velocity=122 time=0
EXTRACT: note_on channel=5 note=32 velocity=124 time=0
EXTRACT: note_on channel=5 note=44 velocity=93 time=0
EXTRACT: note_on channel=8 note=73 velocity=0 time=0
EXTRACT: note_on channel=8 note=68 velocity=82 time=0
EXTRACT: note_on channel=8 note=72 velocity=81 time=0
EXTRACT: note_on channel=8 note=75 velocity=78 time=0
EXTRACT: note_on channel=2 note=82 velocity=0 time=0.0028937864583333333
EXTRACT: note_on channel=1 note=30 velocity=0 time=0.010128252604166667
EXTRACT: note_on channel=1 note=32 velocity=123 time=0.008681359375
EXTRACT: note_on channel=9 note=36 velocity=0 time=0.07957912760416666
EXTRACT: note_on channel=9 note=57 velocity=0 time=0.08970738020833333
EXTRACT: note_on channel=3 note=75 velocity=0 time=0.08970738020833333
EXTRACT: note_on channel=3 note=63 velocity=0 time=0.27201592708333333
EXTRACT: note_on channel=3 note=70 velocity=106 time=0.0028937864583333333
EXTRACT: note_on channel=3 note=82 velocity=117 time=0
EXTRACT: note_on channel=3 note=82 velocity=0 time=0.27490971354166666
EXTRACT: note_on channel=3 note=82 velocity=114 time=0.0028937864583333333
EXTRACT: note_on channel=3 note=70 velocity=0 time=0.13600796354166667
EXTRACT: note_on channel=2 note=75 velocity=0 time=0.12732660416666666
EXTRACT: note_on channel=8 note=68 velocity=0 time=0.0028937864583333333
EXTRACT: note_on channel=4 note=32 velocity=0 time=0.0028937864583333333
EXTRACT: note_on channel=5 note=32 velocity=0 time=0
EXTRACT: note_on channel=8 note=72 velocity=0 time=0
EXTRACT: note_on channel=0 note=32 velocity=0 time=0.0028937864583333333
EXTRACT: note_on channel=2 note=80 velocity=0 time=0
EXTRACT: note_on channel=8 note=75 velocity=0 time=0
EXTRACT: note_on channel=2 note=84 velocity=0 time=0.0028937864583333333
EXTRACT: note_on channel=4 note=44 velocity=0 time=0
EXTRACT: note_on channel=5 note=44 velocity=0 time=0
EXTRACT: note_on channel=9 note=36 velocity=116 time=0.0028937864583333333
EXTRACT: note_on channel=9 note=49 velocity=80 time=0
EXTRACT: note_on channel=0 note=34 velocity=115 time=0
EXTRACT: note_on channel=2 note=46 velocity=88 time=0
EXTRACT: note_on channel=4 note=34 velocity=115 time=0
EXTRACT: note_on channel=4 note=46 velocity=121 time=0
EXTRACT: note_on channel=5 note=34 velocity=81 time=0
EXTRACT: note_on channel=5 note=46 velocity=57 time=0
EXTRACT: note_on channel=8 note=34 velocity=88 time=0
EXTRACT: note_on channel=8 note=46 velocity=88 time=0
EXTRACT: note_on channel=1 note=32 velocity=0 time=0.015915825520833333
EXTRACT: note_on channel=1 note=34 velocity=115 time=0.0057875729166666666
EXTRACT: note_on channel=3 note=82 velocity=0 time=0.018809611979166665
EXTRACT: note_on channel=9 note=36 velocity=0 time=0.11575145833333333
EXTRACT: note_on channel=9 note=49 velocity=0 time=0.06655708854166667
EXTRACT: note_on channel=4 note=34 velocity=0 time=3.8545235625
EXTRACT: note_on channel=4 note=46 velocity=0 time=0.011575145833333333
EXTRACT: note_on channel=5 note=34 velocity=0 time=0.07234466145833333
EXTRACT: note_on channel=5 note=46 velocity=0 time=0.0028937864583333333
EXTRACT: note_on channel=8 note=34 velocity=0 time=0.130220390625
EXTRACT: note_on channel=8 note=46 velocity=0 time=0.0028937864583333333
EXTRACT: note_on channel=0 note=34 velocity=0 time=0.0057875729166666666
EXTRACT: note_on channel=1 note=34 velocity=0 time=0.0217033984375
EXTRACT: note_on channel=2 note=46 velocity=0 time=0.1085169921875
EXTRACT: control_change channel=9 control=121 value=0 time=2.216640427083333
EXTRACT: control_change channel=9 control=7 value=95 time=0
EXTRACT: control_change channel=0 control=121 value=0 time=0
EXTRACT: control_change channel=0 control=7 value=100 time=0
EXTRACT: control_change channel=2 control=121 value=0 time=0
EXTRACT: control_change channel=2 control=7 value=68 time=0
EXTRACT: control_change channel=3 control=121 value=0 time=0
EXTRACT: control_change channel=3 control=7 value=58 time=0
EXTRACT: control_change channel=4 control=121 value=0 time=0
EXTRACT: control_change channel=4 control=7 value=85 time=0
EXTRACT: control_change channel=5 control=121 value=0 time=0
EXTRACT: control_change channel=5 control=7 value=85 time=0
EXTRACT: control_change channel=6 control=121 value=0 time=0
EXTRACT: control_change channel=6 control=7 value=70 time=0
EXTRACT: control_change channel=7 control=121 value=0 time=0
EXTRACT: control_change channel=7 control=7 value=87 time=0
EXTRACT: control_change channel=8 control=121 value=0 time=0
EXTRACT: control_change channel=8 control=7 value=69 time=0
EXTRACT: control_change channel=10 control=121 value=0 time=0
EXTRACT: control_change channel=10 control=7 value=73 time=0
EXTRACT: control_change channel=1 control=121 value=0 time=0.0217033984375
EXTRACT: control_change channel=1 control=7 value=100 time=0
