EXTRACT: control_change channel=0 control=121 value=0 time=0
EXTRACT: program_change channel=0 program=0 time=0
EXTRACT: control_change channel=0 control=7 value=100 time=0
EXTRACT: control_change channel=0 control=10 value=64 time=0
EXTRACT: control_change channel=0 control=91 value=0 time=0
EXTRACT: control_change channel=0 control=93 value=0 time=0
EXTRACT: note_on channel=0 note=46 velocity=80 time=0
EXTRACT: note_on channel=0 note=61 velocity=80 time=0.20833349999999998
EXTRACT: note_on channel=0 note=65 velocity=80 time=0
EXTRACT: note_on channel=0 note=61 velocity=0 time=0.39496559374999995
EXTRACT: note_on channel=0 note=65 velocity=0 time=0
EXTRACT: note_on channel=0 note=61 velocity=80 time=0.02170140625
EXTRACT: note_on channel=0 note=65 velocity=80 time=0
EXTRACT: note_on channel=0 note=46 velocity=0 time=0.16579874374999998
EXTRACT: note_on channel=0 note=61 velocity=0 time=0.22916684999999998
EXTRACT: note_on channel=0 note=65 velocity=0 time=0
EXTRACT: note_on channel=0 note=61 velocity=80 time=0.02170140625
EXTRACT: note_on channel=0 note=65 velocity=80 time=0
EXTRACT: note_on channel=0 note=61 velocity=0 time=0.39496559374999995
EXTRACT: note_on channel=0 note=65 velocity=0 time=0
EXTRACT: note_on channel=0 note=61 velocity=80 time=0.02170140625
EXTRACT: note_on channel=0 note=65 velocity=80 time=0
EXTRACT: note_on channel=0 note=61 velocity=0 time=0.19704876875
EXTRACT: note_on channel=0 note=65 velocity=0 time=0
EXTRACT: note_on channel=0 note=44 velocity=80 time=0.011284731249999999
EXTRACT: note_on channel=0 note=60 velocity=80 time=0.20833349999999998
EXTRACT: note_on channel=0 note=63 velocity=80 time=0
EXTRACT: note_on channel=0 note=60 velocity=0 time=0.39496559374999995
EXTRACT: note_on channel=0 note=63 velocity=0 time=0
EXTRACT: note_on channel=0 note=60 velocity=80 time=0.02170140625
EXTRACT: note_on channel=0 note=63 velocity=80 time=0
EXTRACT: note_on channel=0 note=60 velocity=0 time=0.39496559374999995
EXTRACT: note_on channel=0 note=63 velocity=0 time=0
EXTRACT: note_on channel=0 note=60 velocity=80 time=0.02170140625
EXTRACT: note_on channel=0 note=63 velocity=80 time=0
EXTRACT: note_on channel=0 note=60 velocity=0 time=0.39496559374999995
EXTRACT: note_on channel=0 note=63 velocity=0 time=0
EXTRACT: note_on channel=0 note=60 velocity=80 time=0.02170140625
EXTRACT: note_on channel=0 note=63 velocity=80 time=0
EXTRACT: note_on channel=0 note=44 velocity=0 time=0.12413204374999999
EXTRACT: note_on channel=0 note=60 velocity=0 time=0.072916725
EXTRACT: note_on channel=0 note=63 velocity=0 time=0
EXTRACT: note_on channel=0 note=49 velocity=80 time=0.011284731249999999
EXTRACT: note_on channel=0 note=61 velocity=80 time=0.20833349999999998
EXTRACT: note_on channel=0 note=65 velocity=80 time=0
EXTRACT: note_on channel=0 note=61 velocity=0 time=0.39496559374999995
EXTRACT: note_on channel=0 note=65 velocity=0 time=0
EXTRACT: note_on channel=0 note=61 velocity=80 time=0.02170140625
EXTRACT: note_on channel=0 note=65 velocity=80 time=0
EXTRACT: note_on channel=0 note=61 velocity=0 time=0.39496559374999995
EXTRACT: note_on channel=0 note=65 velocity=0 time=0
EXTRACT: note_on channel=0 note=61 velocity=80 time=0.02170140625
EXTRACT: note_on channel=0 note=65 velocity=80 time=0
EXTRACT: note_on channel=0 note=61 velocity=0 time=0.39496559374999995
EXTRACT: note_on channel=0 note=65 velocity=0 time=0
EXTRACT: note_on channel=0 note=61 velocity=80 time=0.02170140625
EXTRACT: note_on channel=0 note=65 velocity=80 time=0
EXTRACT: note_on channel=0 note=49 velocity=0 time=0.12413204374999999
EXTRACT: note_on channel=0 note=61 velocity=0 time=0.072916725
EXTRACT: note_on channel=0 note=65 velocity=0 time=0
EXTRACT: note_on channel=0 note=42 velocity=80 time=0.011284731249999999
EXTRACT: note_on channel=0 note=58 velocity=80 time=0.20833349999999998
EXTRACT: note_on channel=0 note=61 velocity=80 time=0
EXTRACT: note_on channel=0 note=58 velocity=0 time=0.39496559374999995
EXTRACT: note_on channel=0 note=61 velocity=0 time=0
EXTRACT: note_on channel=0 note=58 velocity=80 time=0.02170140625
EXTRACT: note_on channel=0 note=61 velocity=80 time=0
EXTRACT: note_on channel=0 note=58 velocity=0 time=0.39496559374999995
EXTRACT: note_on channel=0 note=61 velocity=0 time=0
EXTRACT: note_on channel=0 note=58 velocity=80 time=0.02170140625
EXTRACT: note_on channel=0 note=61 velocity=80 time=0
EXTRACT: note_on channel=0 note=58 velocity=0 time=0.39496559374999995
EXTRACT: note_on channel=0 note=61 velocity=0 time=0
EXTRACT: note_on channel=0 note=58 velocity=80 time=0.02170140625
EXTRACT: note_on channel=0 note=61 velocity=80 time=0
EXTRACT: note_on channel=0 note=42 velocity=0 time=0.12413204374999999
EXTRACT: note_on channel=0 note=58 velocity=0 time=0.072916725
EXTRACT: note_on channel=0 note=61 velocity=0 time=0
EXTRACT: note_on channel=0 note=46 velocity=80 time=0.011284731249999999
EXTRACT: note_on channel=0 note=70 velocity=80 time=0.41666699999999995
EXTRACT: note_on channel=0 note=70 velocity=0 time=0.39496559374999995
EXTRACT: note_on channel=0 note=68 velocity=80 time=0.02170140625
EXTRACT: note_on channel=0 note=68 velocity=0 time=0.39496559374999995
EXTRACT: note_on channel=0 note=65 velocity=80 time=0.02170140625
EXTRACT: note_on channel=0 note=46 velocity=0 time=0.33246554375
EXTRACT: note_on channel=0 note=65 velocity=0 time=0.06250005
EXTRACT: note_on channel=0 note=70 velocity=80 time=0.02170140625
EXTRACT: note_on channel=0 note=44 velocity=80 time=0
EXTRACT: note_on channel=0 note=70 velocity=0 time=0.39496559374999995
EXTRACT: note_on channel=0 note=68 velocity=80 time=0.02170140625
EXTRACT: note_on channel=0 note=68 velocity=0 time=0.39496559374999995
EXTRACT: note_on channel=0 note=65 velocity=80 time=0.02170140625
EXTRACT: note_on channel=0 note=65 velocity=0 time=0.39496559374999995
EXTRACT: note_on channel=0 note=63 velocity=80 time=0.02170140625
EXTRACT: note_on channel=0 note=63 velocity=0 time=0.19704876875
EXTRACT: note_on channel=0 note=65 velocity=80 time=0.011284731249999999
EXTRACT: note_on channel=0 note=44 velocity=0 time=0.12413204374999999
EXTRACT: note_on channel=0 note=49 velocity=80 time=0.08420145625
EXTRACT: note_on channel=0 note=65 velocity=0 time=1.57204986875
EXTRACT: note_on channel=0 note=49 velocity=0 time=0.010416675
EXTRACT: note_on channel=0 note=42 velocity=80 time=0.08420145625
EXTRACT: note_on channel=0 note=63 velocity=80 time=1.250001
EXTRACT: note_on channel=0 note=63 velocity=0 time=0.19704876875
EXTRACT: note_on channel=0 note=65 velocity=80 time=0.011284731249999999
EXTRACT: note_on channel=0 note=42 velocity=0 time=0.12413204374999999
EXTRACT: note_on channel=0 note=46 velocity=80 time=0.08420145625
EXTRACT: note_on channel=0 note=65 velocity=0 time=0.38454891874999997
EXTRACT: note_on channel=0 note=63 velocity=80 time=0.03211808125
EXTRACT: note_on channel=0 note=63 velocity=0 time=0.19704876875
EXTRACT: note_on channel=0 note=65 velocity=80 time=0.011284731249999999
EXTRACT: note_on channel=0 note=65 velocity=0 time=0.5928824187499999
EXTRACT: note_on channel=0 note=63 velocity=80 time=0.03211808125
EXTRACT: note_on channel=0 note=63 velocity=0 time=0.19704876875
EXTRACT: note_on channel=0 note=65 velocity=80 time=0.011284731249999999
EXTRACT: note_on channel=0 note=46 velocity=0 time=0.12413204374999999
EXTRACT: note_on channel=0 note=44 velocity=80 time=0.08420145625
EXTRACT: note_on channel=0 note=65 velocity=0 time=0.18663209374999998
EXTRACT: note_on channel=0 note=63 velocity=80 time=0.02170140625
EXTRACT: note_on channel=0 note=63 velocity=0 time=0.39496559374999995
EXTRACT: note_on channel=0 note=61 velocity=80 time=0.02170140625
EXTRACT: note_on channel=0 note=61 velocity=0 time=0.39496559374999995
EXTRACT: note_on channel=0 note=63 velocity=80 time=0.02170140625
EXTRACT: note_on channel=0 note=63 velocity=0 time=0.39496559374999995
EXTRACT: note_on channel=0 note=61 velocity=80 time=0.02170140625
EXTRACT: note_on channel=0 note=44 velocity=0 time=0.12413204374999999
EXTRACT: note_on channel=0 note=49 velocity=80 time=0.08420145625
EXTRACT: note_on channel=0 note=61 velocity=0 time=1.57204986875
EXTRACT: note_on channel=0 note=49 velocity=0 time=0.010416675
EXTRACT: note_on channel=0 note=42 velocity=80 time=0.08420145625
EXTRACT: note_on channel=0 note=42 velocity=0 time=1.5824665437499998
EXTRACT: note_on channel=0 note=46 velocity=80 time=0.08420145625
EXTRACT: note_on channel=0 note=70 velocity=80 time=0.41666699999999995
EXTRACT: note_on channel=0 note=70 velocity=0 time=0.39496559374999995
EXTRACT: note_on channel=0 note=68 velocity=80 time=0.02170140625
EXTRACT: note_on channel=0 note=68 velocity=0 time=0.39496559374999995
EXTRACT: note_on channel=0 note=65 velocity=80 time=0.02170140625
EXTRACT: note_on channel=0 note=46 velocity=0 time=0.33246554375
EXTRACT: note_on channel=0 note=65 velocity=0 time=0.06250005
EXTRACT: note_on channel=0 note=70 velocity=80 time=0.02170140625
EXTRACT: note_on channel=0 note=44 velocity=80 time=0
EXTRACT: note_on channel=0 note=70 velocity=0 time=0.39496559374999995
EXTRACT: note_on channel=0 note=68 velocity=80 time=0.02170140625
EXTRACT: note_on channel=0 note=68 velocity=0 time=0.39496559374999995
EXTRACT: note_on channel=0 note=65 velocity=80 time=0.02170140625
EXTRACT: note_on channel=0 note=65 velocity=0 time=0.39496559374999995
EXTRACT: note_on channel=0 note=63 velocity=80 time=0.02170140625
EXTRACT: note_on channel=0 note=63 velocity=0 time=0.19704876875
EXTRACT: note_on channel=0 note=65 velocity=80 time=0.011284731249999999
EXTRACT: note_on channel=0 note=44 velocity=0 time=0.12413204374999999
EXTRACT: note_on channel=0 note=49 velocity=80 time=0.08420145625
EXTRACT: note_on channel=0 note=65 velocity=0 time=1.57204986875
EXTRACT: note_on channel=0 note=49 velocity=0 time=0.010416675
EXTRACT: note_on channel=0 note=42 velocity=80 time=0.08420145625
EXTRACT: note_on channel=0 note=61 velocity=80 time=1.0416675
EXTRACT: note_on channel=0 note=61 velocity=0 time=0.19704876875
EXTRACT: note_on channel=0 note=63 velocity=80 time=0.011284731249999999
EXTRACT: note_on channel=0 note=63 velocity=0 time=0.19704876875
EXTRACT: note_on channel=0 note=65 velocity=80 time=0.011284731249999999
EXTRACT: note_on channel=0 note=42 velocity=0 time=0.12413204374999999
EXTRACT: note_on channel=0 note=65 velocity=0 time=0.072916725
EXTRACT: note_on channel=0 note=63 velocity=80 time=0.011284731249999999
EXTRACT: note_on channel=0 note=46 velocity=80 time=0
EXTRACT: note_on channel=0 note=63 velocity=0 time=0.39496559374999995
EXTRACT: note_on channel=0 note=63 velocity=80 time=0.02170140625
EXTRACT: note_on channel=0 note=63 velocity=0 time=0.19704876875
EXTRACT: note_on channel=0 note=63 velocity=80 time=0.011284731249999999
EXTRACT: note_on channel=0 note=63 velocity=0 time=0.5928824187499999
EXTRACT: note_on channel=0 note=61 velocity=80 time=0.03211808125
EXTRACT: note_on channel=0 note=61 velocity=0 time=0.19704876875
EXTRACT: note_on channel=0 note=65 velocity=80 time=0.011284731249999999
EXTRACT: note_on channel=0 note=46 velocity=0 time=0.12413204374999999
EXTRACT: note_on channel=0 note=65 velocity=0 time=0.072916725
EXTRACT: note_on channel=0 note=63 velocity=80 time=0.011284731249999999
EXTRACT: note_on channel=0 note=44 velocity=80 time=0
EXTRACT: note_on channel=0 note=63 velocity=0 time=0.39496559374999995
EXTRACT: note_on channel=0 note=63 velocity=80 time=0.02170140625
EXTRACT: note_on channel=0 note=63 velocity=0 time=0.19704876875
EXTRACT: note_on channel=0 note=61 velocity=80 time=0.011284731249999999
EXTRACT: note_on channel=0 note=61 velocity=0 time=0.5928824187499999
EXTRACT: note_on channel=0 note=63 velocity=80 time=0.03211808125
EXTRACT: note_on channel=0 note=63 velocity=0 time=0.19704876875
EXTRACT: note_on channel=0 note=61 velocity=80 time=0.011284731249999999
EXTRACT: note_on channel=0 note=44 velocity=0 time=0.12413204374999999
EXTRACT: note_on channel=0 note=49 velocity=80 time=0.08420145625
EXTRACT: note_on channel=0 note=61 velocity=0 time=1.57204986875
EXTRACT: note_on channel=0 note=49 velocity=0 time=0.010416675
EXTRACT: note_on channel=0 note=42 velocity=80 time=0.08420145625
EXTRACT: note_on channel=0 note=42 velocity=0 time=1.5824665437499998
EXTRACT: note_on channel=0 note=30 velocity=80 time=0.08420145625
EXTRACT: note_on channel=0 note=42 velocity=80 time=0
EXTRACT: note_on channel=0 note=68 velocity=80 time=0.41666699999999995
EXTRACT: note_on channel=0 note=68 velocity=0 time=0.19704876875
EXTRACT: note_on channel=0 note=70 velocity=80 time=0.011284731249999999
EXTRACT: note_on channel=0 note=70 velocity=0 time=0.19704876875
EXTRACT: note_on channel=0 note=70 velocity=80 time=0.011284731249999999
EXTRACT: note_on channel=0 note=70 velocity=0 time=0.19704876875
EXTRACT: note_on channel=0 note=70 velocity=80 time=0.011284731249999999
EXTRACT: note_on channel=0 note=70 velocity=0 time=0.19704876875
EXTRACT: note_on channel=0 note=70 velocity=80 time=0.011284731249999999
EXTRACT: note_on channel=0 note=70 velocity=0 time=0.19704876875
EXTRACT: note_on channel=0 note=70 velocity=80 time=0.011284731249999999
EXTRACT: note_on channel=0 note=30 velocity=0 time=0.12413204374999999
EXTRACT: note_on channel=0 note=42 velocity=0 time=0
EXTRACT: note_on channel=0 note=70 velocity=0 time=0.072916725
EXTRACT: note_on channel=0 note=72 velocity=80 time=0.011284731249999999
EXTRACT: note_on channel=0 note=32 velocity=80 time=0
EXTRACT: note_on channel=0 note=44 velocity=80 time=0
EXTRACT: note_on channel=0 note=72 velocity=0 time=0.39496559374999995
EXTRACT: note_on channel=0 note=72 velocity=80 time=0.02170140625
EXTRACT: note_on channel=0 note=72 velocity=0 time=0.39496559374999995
EXTRACT: note_on channel=0 note=72 velocity=80 time=0.02170140625
EXTRACT: note_on channel=0 note=72 velocity=0 time=0.19704876875
EXTRACT: note_on channel=0 note=70 velocity=80 time=0.011284731249999999
EXTRACT: note_on channel=0 note=70 velocity=0 time=0.19704876875
EXTRACT: note_on channel=0 note=70 velocity=80 time=0.011284731249999999
EXTRACT: note_on channel=0 note=32 velocity=0 time=0.33246554375
EXTRACT: note_on channel=0 note=44 velocity=0 time=0
EXTRACT: note_on channel=0 note=70 velocity=0 time=0.06250005
EXTRACT: note_on channel=0 note=34 velocity=80 time=0.02170140625
EXTRACT: note_on channel=0 note=46 velocity=80 time=0
EXTRACT: note_on channel=0 note=68 velocity=80 time=0.41666699999999995
EXTRACT: note_on channel=0 note=68 velocity=0 time=0.19704876875
EXTRACT: note_on channel=0 note=70 velocity=80 time=0.011284731249999999
EXTRACT: note_on channel=0 note=70 velocity=0 time=0.19704876875
EXTRACT: note_on channel=0 note=70 velocity=80 time=0.011284731249999999
EXTRACT: note_on channel=0 note=70 velocity=0 time=0.39496559374999995
EXTRACT: note_on channel=0 note=70 velocity=80 time=0.02170140625
EXTRACT: note_on channel=0 note=70 velocity=0 time=0.19704876875
EXTRACT: note_on channel=0 note=70 velocity=80 time=0.011284731249999999
EXTRACT: note_on channel=0 note=34 velocity=0 time=0.12413204374999999
EXTRACT: note_on channel=0 note=46 velocity=0 time=0
EXTRACT: note_on channel=0 note=70 velocity=0 time=0.072916725
EXTRACT: note_on channel=0 note=68 velocity=80 time=0.011284731249999999
EXTRACT: note_on channel=0 note=72 velocity=80 time=0
EXTRACT: note_on channel=0 note=75 velocity=80 time=0
EXTRACT: note_on channel=0 note=34 velocity=80 time=0
EXTRACT: note_on channel=0 note=46 velocity=80 time=0
EXTRACT: note_on channel=0 note=68 velocity=0 time=0.39496559374999995
EXTRACT: note_on channel=0 note=72 velocity=0 time=0
EXTRACT: note_on channel=0 note=75 velocity=0 time=0
EXTRACT: note_on channel=0 note=68 velocity=80 time=0.02170140625
EXTRACT: note_on channel=0 note=72 velocity=80 time=0
EXTRACT: note_on channel=0 note=75 velocity=80 time=0
EXTRACT: note_on channel=0 note=68 velocity=0 time=0.39496559374999995
EXTRACT: note_on channel=0 note=72 velocity=0 time=0
EXTRACT: note_on channel=0 note=75 velocity=0 time=0
EXTRACT: note_on channel=0 note=68 velocity=80 time=0.02170140625
EXTRACT: note_on channel=0 note=72 velocity=80 time=0
EXTRACT: note_on channel=0 note=75 velocity=80 time=0
EXTRACT: note_on channel=0 note=68 velocity=0 time=0.39496559374999995
EXTRACT: note_on channel=0 note=72 velocity=0 time=0
EXTRACT: note_on channel=0 note=75 velocity=0 time=0
EXTRACT: note_on channel=0 note=70 velocity=80 time=0.02170140625
EXTRACT: note_on channel=0 note=73 velocity=80 time=0
EXTRACT: note_on channel=0 note=77 velocity=80 time=0
EXTRACT: note_on channel=0 note=70 velocity=0 time=0.19704876875
EXTRACT: note_on channel=0 note=73 velocity=0 time=0
EXTRACT: note_on channel=0 note=77 velocity=0 time=0
EXTRACT: note_on channel=0 note=70 velocity=80 time=0.011284731249999999
EXTRACT: note_on channel=0 note=73 velocity=80 time=0
EXTRACT: note_on channel=0 note=77 velocity=80 time=0
EXTRACT: note_on channel=0 note=34 velocity=0 time=0.12413204374999999
EXTRACT: note_on channel=0 note=46 velocity=0 time=0
EXTRACT: note_on channel=0 note=30 velocity=80 time=0.08420145625
EXTRACT: note_on channel=0 note=42 velocity=80 time=0
EXTRACT: note_on channel=0 note=70 velocity=0 time=0.18663209374999998
EXTRACT: note_on channel=0 note=73 velocity=0 time=0
EXTRACT: note_on channel=0 note=77 velocity=0 time=0
EXTRACT: note_on channel=0 note=70 velocity=80 time=0.23003490624999998
EXTRACT: note_on channel=0 note=70 velocity=0 time=0.19704876875
EXTRACT: note_on channel=0 note=70 velocity=80 time=0.011284731249999999
EXTRACT: note_on channel=0 note=70 velocity=0 time=0.19704876875
EXTRACT: note_on channel=0 note=70 velocity=80 time=0.011284731249999999
EXTRACT: note_on channel=0 note=70 velocity=0 time=0.39496559374999995
EXTRACT: note_on channel=0 note=70 velocity=80 time=0.02170140625
EXTRACT: note_on channel=0 note=70 velocity=0 time=0.19704876875
EXTRACT: note_on channel=0 note=70 velocity=80 time=0.011284731249999999
EXTRACT: note_on channel=0 note=30 velocity=0 time=0.12413204374999999
EXTRACT: note_on channel=0 note=42 velocity=0 time=0
EXTRACT: note_on channel=0 note=70 velocity=0 time=0.072916725
EXTRACT: note_on channel=0 note=72 velocity=80 time=0.011284731249999999
EXTRACT: note_on channel=0 note=32 velocity=80 time=0
EXTRACT: note_on channel=0 note=44 velocity=80 time=0
EXTRACT: note_on channel=0 note=72 velocity=0 time=0.39496559374999995
EXTRACT: note_on channel=0 note=72 velocity=80 time=0.02170140625
EXTRACT: note_on channel=0 note=72 velocity=0 time=0.39496559374999995
EXTRACT: note_on channel=0 note=72 velocity=80 time=0.02170140625
EXTRACT: note_on channel=0 note=72 velocity=0 time=0.19704876875
EXTRACT: note_on channel=0 note=70 velocity=80 time=0.011284731249999999
EXTRACT: note_on channel=0 note=70 velocity=0 time=0.19704876875
EXTRACT: note_on channel=0 note=70 velocity=80 time=0.011284731249999999
EXTRACT: note_on channel=0 note=32 velocity=0 time=0.33246554375
EXTRACT: note_on channel=0 note=44 velocity=0 time=0
EXTRACT: note_on channel=0 note=70 velocity=0 time=0.06250005
EXTRACT: note_on channel=0 note=34 velocity=80 time=0.02170140625
EXTRACT: note_on channel=0 note=46 velocity=80 time=0
EXTRACT: note_on channel=0 note=73 velocity=80 time=0.41666699999999995
EXTRACT: note_on channel=0 note=77 velocity=80 time=0
EXTRACT: note_on channel=0 note=73 velocity=0 time=0.19704876875
EXTRACT: note_on channel=0 note=77 velocity=0 time=0
EXTRACT: note_on channel=0 note=72 velocity=80 time=0.011284731249999999
EXTRACT: note_on channel=0 note=75 velocity=80 time=0
EXTRACT: note_on channel=0 note=72 velocity=0 time=0.39496559374999995
EXTRACT: note_on channel=0 note=75 velocity=0 time=0
EXTRACT: note_on channel=0 note=73 velocity=80 time=0.02170140625
EXTRACT: note_on channel=0 note=77 velocity=80 time=0
EXTRACT: note_on channel=0 note=73 velocity=0 time=0.09809035625
EXTRACT: note_on channel=0 note=77 velocity=0 time=0
EXTRACT: note_on channel=0 note=72 velocity=80 time=0.00607639375
EXTRACT: note_on channel=0 note=75 velocity=80 time=0
EXTRACT: note_on channel=0 note=72 velocity=0 time=0.09809035625
EXTRACT: note_on channel=0 note=75 velocity=0 time=0
EXTRACT: note_on channel=0 note=70 velocity=80 time=0.00607639375
EXTRACT: note_on channel=0 note=73 velocity=80 time=0
EXTRACT: note_on channel=0 note=34 velocity=0 time=0.33246554375
EXTRACT: note_on channel=0 note=46 velocity=0 time=0
EXTRACT: note_on channel=0 note=70 velocity=0 time=0.06250005
EXTRACT: note_on channel=0 note=73 velocity=0 time=0
EXTRACT: note_on channel=0 note=44 velocity=80 time=0.02170140625
EXTRACT: note_on channel=0 note=77 velocity=80 time=0.41666699999999995
EXTRACT: note_on channel=0 note=77 velocity=0 time=0.39496559374999995
EXTRACT: note_on channel=0 note=75 velocity=80 time=0.02170140625
EXTRACT: note_on channel=0 note=75 velocity=0 time=0.39496559374999995
EXTRACT: note_on channel=0 note=73 velocity=80 time=0.02170140625
EXTRACT: note_on channel=0 note=44 velocity=0 time=0.33246554375
EXTRACT: note_on channel=0 note=73 velocity=0 time=0.06250005
EXTRACT: note_on channel=0 note=77 velocity=80 time=0.02170140625
EXTRACT: note_on channel=0 note=34 velocity=80 time=0
EXTRACT: note_on channel=0 note=77 velocity=0 time=0.19704876875
EXTRACT: note_on channel=0 note=80 velocity=80 time=0.011284731249999999
EXTRACT: note_on channel=0 note=80 velocity=0 time=0.19704876875
EXTRACT: note_on channel=0 note=77 velocity=80 time=0.011284731249999999
EXTRACT: note_on channel=0 note=77 velocity=0 time=0.19704876875
EXTRACT: note_on channel=0 note=75 velocity=80 time=0.011284731249999999
EXTRACT: note_on channel=0 note=34 velocity=0 time=0.16579874374999998
EXTRACT: note_on channel=0 note=75 velocity=0 time=0.031250025
EXTRACT: note_on channel=0 note=77 velocity=80 time=0.011284731249999999
EXTRACT: note_on channel=0 note=46 velocity=80 time=0
EXTRACT: note_on channel=0 note=77 velocity=0 time=0.19704876875
EXTRACT: note_on channel=0 note=75 velocity=80 time=0.011284731249999999
EXTRACT: note_on channel=0 note=75 velocity=0 time=0.19704876875
EXTRACT: note_on channel=0 note=75 velocity=80 time=0.011284731249999999
EXTRACT: note_on channel=0 note=46 velocity=0 time=0.37413224375
EXTRACT: note_on channel=0 note=75 velocity=0 time=0.02083335
EXTRACT: note_on channel=0 note=32 velocity=80 time=0.02170140625
EXTRACT: note_on channel=0 note=73 velocity=80 time=0.6250005
EXTRACT: note_on channel=0 note=32 velocity=0 time=0.16579874374999998
EXTRACT: note_on channel=0 note=73 velocity=0 time=0.031250025
EXTRACT: note_on channel=0 note=75 velocity=80 time=0.011284731249999999
EXTRACT: note_on channel=0 note=44 velocity=80 time=0
EXTRACT: note_on channel=0 note=75 velocity=0 time=0.39496559374999995
EXTRACT: note_on channel=0 note=73 velocity=80 time=0.02170140625
EXTRACT: note_on channel=0 note=44 velocity=0 time=0.37413224375
EXTRACT: note_on channel=0 note=73 velocity=0 time=0.02083335
EXTRACT: note_on channel=0 note=77 velocity=80 time=0.02170140625
EXTRACT: note_on channel=0 note=37 velocity=80 time=0
EXTRACT: note_on channel=0 note=77 velocity=0 time=0.19704876875
EXTRACT: note_on channel=0 note=80 velocity=80 time=0.011284731249999999
EXTRACT: note_on channel=0 note=80 velocity=0 time=0.19704876875
EXTRACT: note_on channel=0 note=77 velocity=80 time=0.011284731249999999
EXTRACT: note_on channel=0 note=77 velocity=0 time=0.19704876875
EXTRACT: note_on channel=0 note=75 velocity=80 time=0.011284731249999999
EXTRACT: note_on channel=0 note=37 velocity=0 time=0.16579874374999998
EXTRACT: note_on channel=0 note=75 velocity=0 time=0.031250025
EXTRACT: note_on channel=0 note=77 velocity=80 time=0.011284731249999999
EXTRACT: note_on channel=0 note=49 velocity=80 time=0
EXTRACT: note_on channel=0 note=77 velocity=0 time=0.19704876875
EXTRACT: note_on channel=0 note=75 velocity=80 time=0.011284731249999999
EXTRACT: note_on channel=0 note=75 velocity=0 time=0.19704876875
EXTRACT: note_on channel=0 note=75 velocity=80 time=0.011284731249999999
EXTRACT: note_on channel=0 note=49 velocity=0 time=0.37413224375
EXTRACT: note_on channel=0 note=75 velocity=0 time=0.02083335
EXTRACT: note_on channel=0 note=30 velocity=80 time=0.02170140625
EXTRACT: note_on channel=0 note=77 velocity=80 time=0.6250005
EXTRACT: note_on channel=0 note=30 velocity=0 time=0.16579874374999998
EXTRACT: note_on channel=0 note=77 velocity=0 time=0.031250025
EXTRACT: note_on channel=0 note=75 velocity=80 time=0.011284731249999999
EXTRACT: note_on channel=0 note=42 velocity=80 time=0
EXTRACT: note_on channel=0 note=75 velocity=0 time=0.39496559374999995
EXTRACT: note_on channel=0 note=73 velocity=80 time=0.02170140625
EXTRACT: note_on channel=0 note=42 velocity=0 time=0.37413224375
EXTRACT: note_on channel=0 note=73 velocity=0 time=0.02083335
EXTRACT: note_on channel=0 note=70 velocity=80 time=0.02170140625
EXTRACT: note_on channel=0 note=34 velocity=80 time=0
EXTRACT: note_on channel=0 note=70 velocity=0 time=0.19704876875
EXTRACT: note_on channel=0 note=72 velocity=80 time=0.011284731249999999
EXTRACT: note_on channel=0 note=72 velocity=0 time=0.39496559374999995
EXTRACT: note_on channel=0 note=73 velocity=80 time=0.02170140625
EXTRACT: note_on channel=0 note=34 velocity=0 time=0.16579874374999998
EXTRACT: note_on channel=0 note=46 velocity=80 time=0.04253475625
EXTRACT: note_on channel=0 note=73 velocity=0 time=0.18663209374999998
EXTRACT: note_on channel=0 note=80 velocity=80 time=0.02170140625
EXTRACT: note_on channel=0 note=80 velocity=0 time=0.39496559374999995
EXTRACT: note_on channel=0 note=77 velocity=80 time=0.02170140625
EXTRACT: note_on channel=0 note=46 velocity=0 time=0.16579874374999998
EXTRACT: note_on channel=0 note=32 velocity=80 time=0.04253475625
EXTRACT: note_on channel=0 note=77 velocity=0 time=0.5824657437499999
EXTRACT: note_on channel=0 note=75 velocity=80 time=0.04253475625
EXTRACT: note_on channel=0 note=32 velocity=0 time=0.16579874374999998
EXTRACT: note_on channel=0 note=44 velocity=80 time=0.04253475625
EXTRACT: note_on channel=0 note=75 velocity=0 time=0.38454891874999997
EXTRACT: note_on channel=0 note=44 velocity=0 time=0.40625032499999997
EXTRACT: note_on channel=0 note=70 velocity=80 time=0.04253475625
EXTRACT: note_on channel=0 note=30 velocity=80 time=0
EXTRACT: note_on channel=0 note=70 velocity=0 time=0.19704876875
EXTRACT: note_on channel=0 note=72 velocity=80 time=0.011284731249999999
EXTRACT: note_on channel=0 note=72 velocity=0 time=0.39496559374999995
EXTRACT: note_on channel=0 note=73 velocity=80 time=0.02170140625
EXTRACT: note_on channel=0 note=30 velocity=0 time=0.16579874374999998
EXTRACT: note_on channel=0 note=42 velocity=80 time=0.04253475625
EXTRACT: note_on channel=0 note=73 velocity=0 time=0.18663209374999998
EXTRACT: note_on channel=0 note=80 velocity=80 time=0.02170140625
EXTRACT: note_on channel=0 note=80 velocity=0 time=0.39496559374999995
EXTRACT: note_on channel=0 note=77 velocity=80 time=0.02170140625
EXTRACT: note_on channel=0 note=42 velocity=0 time=0.16579874374999998
EXTRACT: note_on channel=0 note=37 velocity=80 time=0.04253475625
EXTRACT: note_on channel=0 note=77 velocity=0 time=0.5824657437499999
EXTRACT: note_on channel=0 note=75 velocity=80 time=0.04253475625
EXTRACT: note_on channel=0 note=37 velocity=0 time=0.16579874374999998
EXTRACT: note_on channel=0 note=49 velocity=80 time=0.04253475625
EXTRACT: note_on channel=0 note=75 velocity=0 time=0.38454891874999997
EXTRACT: note_on channel=0 note=70 velocity=80 time=0.24045158125
EXTRACT: note_on channel=0 note=49 velocity=0 time=0.16579874374999998
EXTRACT: note_on channel=0 note=70 velocity=0 time=0.031250025
EXTRACT: note_on channel=0 note=77 velocity=80 time=0.011284731249999999
EXTRACT: note_on channel=0 note=34 velocity=80 time=0
EXTRACT: note_on channel=0 note=77 velocity=0 time=0.19704876875
EXTRACT: note_on channel=0 note=80 velocity=80 time=0.011284731249999999
EXTRACT: note_on channel=0 note=80 velocity=0 time=0.19704876875
EXTRACT: note_on channel=0 note=77 velocity=80 time=0.011284731249999999
EXTRACT: note_on channel=0 note=77 velocity=0 time=0.19704876875
EXTRACT: note_on channel=0 note=75 velocity=80 time=0.011284731249999999
EXTRACT: note_on channel=0 note=34 velocity=0 time=0.16579874374999998
EXTRACT: note_on channel=0 note=75 velocity=0 time=0.031250025
EXTRACT: note_on channel=0 note=77 velocity=80 time=0.011284731249999999
EXTRACT: note_on channel=0 note=46 velocity=80 time=0
EXTRACT: note_on channel=0 note=77 velocity=0 time=0.19704876875
EXTRACT: note_on channel=0 note=75 velocity=80 time=0.011284731249999999
EXTRACT: note_on channel=0 note=75 velocity=0 time=0.19704876875
EXTRACT: note_on channel=0 note=75 velocity=80 time=0.011284731249999999
EXTRACT: note_on channel=0 note=46 velocity=0 time=0.37413224375
EXTRACT: note_on channel=0 note=75 velocity=0 time=0.02083335
EXTRACT: note_on channel=0 note=32 velocity=80 time=0.02170140625
EXTRACT: note_on channel=0 note=73 velocity=80 time=0.6250005
EXTRACT: note_on channel=0 note=32 velocity=0 time=0.16579874374999998
EXTRACT: note_on channel=0 note=73 velocity=0 time=0.031250025
EXTRACT: note_on channel=0 note=75 velocity=80 time=0.011284731249999999
EXTRACT: note_on channel=0 note=44 velocity=80 time=0
EXTRACT: note_on channel=0 note=75 velocity=0 time=0.39496559374999995
EXTRACT: note_on channel=0 note=73 velocity=80 time=0.02170140625
EXTRACT: note_on channel=0 note=44 velocity=0 time=0.37413224375
EXTRACT: note_on channel=0 note=73 velocity=0 time=0.02083335
EXTRACT: note_on channel=0 note=77 velocity=80 time=0.02170140625
EXTRACT: note_on channel=0 note=37 velocity=80 time=0
EXTRACT: note_on channel=0 note=77 velocity=0 time=0.19704876875
EXTRACT: note_on channel=0 note=80 velocity=80 time=0.011284731249999999
EXTRACT: note_on channel=0 note=80 velocity=0 time=0.19704876875
EXTRACT: note_on channel=0 note=77 velocity=80 time=0.011284731249999999
EXTRACT: note_on channel=0 note=77 velocity=0 time=0.19704876875
EXTRACT: note_on channel=0 note=75 velocity=80 time=0.011284731249999999
EXTRACT: note_on channel=0 note=37 velocity=0 time=0.16579874374999998
EXTRACT: note_on channel=0 note=75 velocity=0 time=0.031250025
EXTRACT: note_on channel=0 note=77 velocity=80 time=0.011284731249999999
EXTRACT: note_on channel=0 note=49 velocity=80 time=0
EXTRACT: note_on channel=0 note=77 velocity=0 time=0.19704876875
EXTRACT: note_on channel=0 note=75 velocity=80 time=0.011284731249999999
EXTRACT: note_on channel=0 note=75 velocity=0 time=0.19704876875
EXTRACT: note_on channel=0 note=75 velocity=80 time=0.011284731249999999
EXTRACT: note_on channel=0 note=49 velocity=0 time=0.37413224375
EXTRACT: note_on channel=0 note=75 velocity=0 time=0.02083335
EXTRACT: note_on channel=0 note=30 velocity=80 time=0.02170140625
EXTRACT: note_on channel=0 note=77 velocity=80 time=0.6250005
EXTRACT: note_on channel=0 note=30 velocity=0 time=0.16579874374999998
EXTRACT: note_on channel=0 note=77 velocity=0 time=0.031250025
EXTRACT: note_on channel=0 note=75 velocity=80 time=0.011284731249999999
EXTRACT: note_on channel=0 note=42 velocity=80 time=0
EXTRACT: note_on channel=0 note=75 velocity=0 time=0.39496559374999995
EXTRACT: note_on channel=0 note=73 velocity=80 time=0.02170140625
EXTRACT: note_on channel=0 note=42 velocity=0 time=0.37413224375
EXTRACT: note_on channel=0 note=73 velocity=0 time=0.02083335
EXTRACT: note_on channel=0 note=70 velocity=80 time=0.02170140625
EXTRACT: note_on channel=0 note=34 velocity=80 time=0
EXTRACT: note_on channel=0 note=70 velocity=0 time=0.19704876875
EXTRACT: note_on channel=0 note=72 velocity=80 time=0.011284731249999999
EXTRACT: note_on channel=0 note=72 velocity=0 time=0.39496559374999995
EXTRACT: note_on channel=0 note=73 velocity=80 time=0.02170140625
EXTRACT: note_on channel=0 note=34 velocity=0 time=0.16579874374999998
EXTRACT: note_on channel=0 note=46 velocity=80 time=0.04253475625
EXTRACT: note_on channel=0 note=73 velocity=0 time=0.18663209374999998
EXTRACT: note_on channel=0 note=80 velocity=80 time=0.02170140625
EXTRACT: note_on channel=0 note=80 velocity=0 time=0.39496559374999995
EXTRACT: note_on channel=0 note=77 velocity=80 time=0.02170140625
EXTRACT: note_on channel=0 note=46 velocity=0 time=0.16579874374999998
EXTRACT: note_on channel=0 note=32 velocity=80 time=0.04253475625
EXTRACT: note_on channel=0 note=77 velocity=0 time=0.5824657437499999
EXTRACT: note_on channel=0 note=75 velocity=80 time=0.04253475625
EXTRACT: note_on channel=0 note=32 velocity=0 time=0.16579874374999998
EXTRACT: note_on channel=0 note=44 velocity=80 time=0.04253475625
EXTRACT: note_on channel=0 note=75 velocity=0 time=0.38454891874999997
EXTRACT: note_on channel=0 note=44 velocity=0 time=0.40625032499999997
EXTRACT: note_on channel=0 note=70 velocity=80 time=0.04253475625
EXTRACT: note_on channel=0 note=30 velocity=80 time=0
EXTRACT: note_on channel=0 note=70 velocity=0 time=0.19704876875
EXTRACT: note_on channel=0 note=72 velocity=80 time=0.011284731249999999
EXTRACT: note_on channel=0 note=72 velocity=0 time=0.39496559374999995
EXTRACT: note_on channel=0 note=73 velocity=80 time=0.02170140625
EXTRACT: note_on channel=0 note=30 velocity=0 time=0.16579874374999998
EXTRACT: note_on channel=0 note=42 velocity=80 time=0.04253475625
EXTRACT: note_on channel=0 note=73 velocity=0 time=0.18663209374999998
EXTRACT: note_on channel=0 note=80 velocity=80 time=0.02170140625
EXTRACT: note_on channel=0 note=80 velocity=0 time=0.39496559374999995
EXTRACT: note_on channel=0 note=77 velocity=80 time=0.02170140625
EXTRACT: note_on channel=0 note=42 velocity=0 time=0.16579874374999998
EXTRACT: note_on channel=0 note=37 velocity=80 time=0.04253475625
EXTRACT: note_on channel=0 note=77 velocity=0 time=0.5824657437499999
EXTRACT: note_on channel=0 note=75 velocity=80 time=0.04253475625
EXTRACT: note_on channel=0 note=37 velocity=0 time=0.16579874374999998
EXTRACT: note_on channel=0 note=49 velocity=80 time=0.04253475625
EXTRACT: note_on channel=0 note=75 velocity=0 time=0.38454891874999997
EXTRACT: note_on channel=0 note=49 velocity=0 time=0.40625032499999997
EXTRACT: note_on channel=0 note=46 velocity=80 time=0.04253475625
EXTRACT: note_on channel=0 note=53 velocity=80 time=0
EXTRACT: note_on channel=0 note=46 velocity=0 time=0.19704876875
EXTRACT: note_on channel=0 note=53 velocity=0 time=0
EXTRACT: note_on channel=0 note=46 velocity=80 time=0.011284731249999999
EXTRACT: note_on channel=0 note=53 velocity=80 time=0
EXTRACT: note_on channel=0 note=46 velocity=0 time=0.19704876875
EXTRACT: note_on channel=0 note=53 velocity=0 time=0
EXTRACT: note_on channel=0 note=70 velocity=80 time=0.011284731249999999
EXTRACT: note_on channel=0 note=46 velocity=80 time=0
EXTRACT: note_on channel=0 note=53 velocity=80 time=0
EXTRACT: note_on channel=0 note=46 velocity=0 time=0.19704876875
EXTRACT: note_on channel=0 note=53 velocity=0 time=0
EXTRACT: note_on channel=0 note=46 velocity=80 time=0.011284731249999999
EXTRACT: note_on channel=0 note=53 velocity=80 time=0
EXTRACT: note_on channel=0 note=70 velocity=0 time=0.18663209374999998
EXTRACT: note_on channel=0 note=46 velocity=0 time=0.010416675
EXTRACT: note_on channel=0 note=53 velocity=0 time=0
EXTRACT: note_on channel=0 note=68 velocity=80 time=0.011284731249999999
EXTRACT: note_on channel=0 note=46 velocity=80 time=0
EXTRACT: note_on channel=0 note=53 velocity=80 time=0
EXTRACT: note_on channel=0 note=46 velocity=0 time=0.19704876875
EXTRACT: note_on channel=0 note=53 velocity=0 time=0
EXTRACT: note_on channel=0 note=46 velocity=80 time=0.011284731249999999
EXTRACT: note_on channel=0 note=53 velocity=80 time=0
EXTRACT: note_on channel=0 note=68 velocity=0 time=0.18663209374999998
EXTRACT: note_on channel=0 note=46 velocity=0 time=0.010416675
EXTRACT: note_on channel=0 note=53 velocity=0 time=0
EXTRACT: note_on channel=0 note=65 velocity=80 time=0.011284731249999999
EXTRACT: note_on channel=0 note=46 velocity=80 time=0
EXTRACT: note_on channel=0 note=53 velocity=80 time=0
EXTRACT: note_on channel=0 note=46 velocity=0 time=0.19704876875
EXTRACT: note_on channel=0 note=53 velocity=0 time=0
EXTRACT: note_on channel=0 note=46 velocity=80 time=0.011284731249999999
EXTRACT: note_on channel=0 note=53 velocity=80 time=0
EXTRACT: note_on channel=0 note=65 velocity=0 time=0.18663209374999998
EXTRACT: note_on channel=0 note=46 velocity=0 time=0.010416675
EXTRACT: note_on channel=0 note=53 velocity=0 time=0
EXTRACT: note_on channel=0 note=70 velocity=80 time=0.011284731249999999
EXTRACT: note_on channel=0 note=44 velocity=80 time=0
EXTRACT: note_on channel=0 note=51 velocity=80 time=0
EXTRACT: note_on channel=0 note=44 velocity=0 time=0.19704876875
EXTRACT: note_on channel=0 note=51 velocity=0 time=0
EXTRACT: note_on channel=0 note=44 velocity=80 time=0.011284731249999999
EXTRACT: note_on channel=0 note=51 velocity=80 time=0
EXTRACT: note_on channel=0 note=70 velocity=0 time=0.18663209374999998
EXTRACT: note_on channel=0 note=44 velocity=0 time=0.010416675
EXTRACT: note_on channel=0 note=51 velocity=0 time=0
EXTRACT: note_on channel=0 note=68 velocity=80 time=0.011284731249999999
EXTRACT: note_on channel=0 note=44 velocity=80 time=0
EXTRACT: note_on channel=0 note=51 velocity=80 time=0
EXTRACT: note_on channel=0 note=44 velocity=0 time=0.19704876875
EXTRACT: note_on channel=0 note=51 velocity=0 time=0
EXTRACT: note_on channel=0 note=44 velocity=80 time=0.011284731249999999
EXTRACT: note_on channel=0 note=51 velocity=80 time=0
EXTRACT: note_on channel=0 note=68 velocity=0 time=0.18663209374999998
EXTRACT: note_on channel=0 note=44 velocity=0 time=0.010416675
EXTRACT: note_on channel=0 note=51 velocity=0 time=0
EXTRACT: note_on channel=0 note=65 velocity=80 time=0.011284731249999999
EXTRACT: note_on channel=0 note=44 velocity=80 time=0
EXTRACT: note_on channel=0 note=51 velocity=80 time=0
EXTRACT: note_on channel=0 note=44 velocity=0 time=0.19704876875
EXTRACT: note_on channel=0 note=51 velocity=0 time=0
EXTRACT: note_on channel=0 note=44 velocity=80 time=0.011284731249999999
EXTRACT: note_on channel=0 note=51 velocity=80 time=0
EXTRACT: note_on channel=0 note=65 velocity=0 time=0.18663209374999998
EXTRACT: note_on channel=0 note=44 velocity=0 time=0.010416675
EXTRACT: note_on channel=0 note=51 velocity=0 time=0
EXTRACT: note_on channel=0 note=63 velocity=80 time=0.011284731249999999
EXTRACT: note_on channel=0 note=44 velocity=80 time=0
EXTRACT: note_on channel=0 note=51 velocity=80 time=0
EXTRACT: note_on channel=0 note=63 velocity=0 time=0.19704876875
EXTRACT: note_on channel=0 note=44 velocity=0 time=0
EXTRACT: note_on channel=0 note=51 velocity=0 time=0
EXTRACT: note_on channel=0 note=65 velocity=80 time=0.011284731249999999
EXTRACT: note_on channel=0 note=44 velocity=80 time=0
EXTRACT: note_on channel=0 note=51 velocity=80 time=0
EXTRACT: note_on channel=0 note=44 velocity=0 time=0.19704876875
EXTRACT: note_on channel=0 note=51 velocity=0 time=0
EXTRACT: note_on channel=0 note=49 velocity=80 time=0.011284731249999999
EXTRACT: note_on channel=0 note=53 velocity=80 time=0
EXTRACT: note_on channel=0 note=49 velocity=0 time=0.19704876875
EXTRACT: note_on channel=0 note=53 velocity=0 time=0
EXTRACT: note_on channel=0 note=49 velocity=80 time=0.011284731249999999
EXTRACT: note_on channel=0 note=53 velocity=80 time=0
EXTRACT: note_on channel=0 note=49 velocity=0 time=0.19704876875
EXTRACT: note_on channel=0 note=53 velocity=0 time=0
EXTRACT: note_on channel=0 note=49 velocity=80 time=0.011284731249999999
EXTRACT: note_on channel=0 note=53 velocity=80 time=0
EXTRACT: note_on channel=0 note=49 velocity=0 time=0.19704876875
EXTRACT: note_on channel=0 note=53 velocity=0 time=0
EXTRACT: note_on channel=0 note=49 velocity=80 time=0.011284731249999999
EXTRACT: note_on channel=0 note=53 velocity=80 time=0
EXTRACT: note_on channel=0 note=49 velocity=0 time=0.19704876875
EXTRACT: note_on channel=0 note=53 velocity=0 time=0
EXTRACT: note_on channel=0 note=49 velocity=80 time=0.011284731249999999
EXTRACT: note_on channel=0 note=53 velocity=80 time=0
EXTRACT: note_on channel=0 note=49 velocity=0 time=0.19704876875
EXTRACT: note_on channel=0 note=53 velocity=0 time=0
EXTRACT: note_on channel=0 note=49 velocity=80 time=0.011284731249999999
EXTRACT: note_on channel=0 note=53 velocity=80 time=0
EXTRACT: note_on channel=0 note=49 velocity=0 time=0.19704876875
EXTRACT: note_on channel=0 note=53 velocity=0 time=0
EXTRACT: note_on channel=0 note=49 velocity=80 time=0.011284731249999999
EXTRACT: note_on channel=0 note=53 velocity=80 time=0
EXTRACT: note_on channel=0 note=49 velocity=0 time=0.19704876875
EXTRACT: note_on channel=0 note=53 velocity=0 time=0
EXTRACT: note_on channel=0 note=49 velocity=80 time=0.011284731249999999
EXTRACT: note_on channel=0 note=53 velocity=80 time=0
EXTRACT: note_on channel=0 note=65 velocity=0 time=0.11371536874999999
EXTRACT: note_on channel=0 note=49 velocity=0 time=0.0833334
EXTRACT: note_on channel=0 note=53 velocity=0 time=0
EXTRACT: note_on channel=0 note=42 velocity=80 time=0.011284731249999999
EXTRACT: note_on channel=0 note=49 velocity=80 time=0
EXTRACT: note_on channel=0 note=42 velocity=0 time=0.19704876875
EXTRACT: note_on channel=0 note=49 velocity=0 time=0
EXTRACT: note_on channel=0 note=42 velocity=80 time=0.011284731249999999
EXTRACT: note_on channel=0 note=49 velocity=80 time=0
EXTRACT: note_on channel=0 note=42 velocity=0 time=0.19704876875
EXTRACT: note_on channel=0 note=49 velocity=0 time=0
EXTRACT: note_on channel=0 note=42 velocity=80 time=0.011284731249999999
EXTRACT: note_on channel=0 note=49 velocity=80 time=0
EXTRACT: note_on channel=0 note=42 velocity=0 time=0.19704876875
EXTRACT: note_on channel=0 note=49 velocity=0 time=0
EXTRACT: note_on channel=0 note=42 velocity=80 time=0.011284731249999999
EXTRACT: note_on channel=0 note=49 velocity=80 time=0
EXTRACT: note_on channel=0 note=42 velocity=0 time=0.19704876875
EXTRACT: note_on channel=0 note=49 velocity=0 time=0
EXTRACT: note_on channel=0 note=42 velocity=80 time=0.011284731249999999
EXTRACT: note_on channel=0 note=49 velocity=80 time=0
EXTRACT: note_on channel=0 note=42 velocity=0 time=0.19704876875
EXTRACT: note_on channel=0 note=49 velocity=0 time=0
EXTRACT: note_on channel=0 note=61 velocity=80 time=0.011284731249999999
EXTRACT: note_on channel=0 note=42 velocity=80 time=0
EXTRACT: note_on channel=0 note=49 velocity=80 time=0
EXTRACT: note_on channel=0 note=61 velocity=0 time=0.19704876875
EXTRACT: note_on channel=0 note=42 velocity=0 time=0
EXTRACT: note_on channel=0 note=49 velocity=0 time=0
EXTRACT: note_on channel=0 note=63 velocity=80 time=0.011284731249999999
EXTRACT: note_on channel=0 note=42 velocity=80 time=0
EXTRACT: note_on channel=0 note=49 velocity=80 time=0
EXTRACT: note_on channel=0 note=63 velocity=0 time=0.19704876875
EXTRACT: note_on channel=0 note=42 velocity=0 time=0
EXTRACT: note_on channel=0 note=49 velocity=0 time=0
EXTRACT: note_on channel=0 note=65 velocity=80 time=0.011284731249999999
EXTRACT: note_on channel=0 note=42 velocity=80 time=0
EXTRACT: note_on channel=0 note=49 velocity=80 time=0
EXTRACT: note_on channel=0 note=65 velocity=0 time=0.19704876875
EXTRACT: note_on channel=0 note=42 velocity=0 time=0
EXTRACT: note_on channel=0 note=49 velocity=0 time=0
EXTRACT: note_on channel=0 note=63 velocity=80 time=0.011284731249999999
EXTRACT: note_on channel=0 note=46 velocity=80 time=0
EXTRACT: note_on channel=0 note=53 velocity=80 time=0
EXTRACT: note_on channel=0 note=46 velocity=0 time=0.19704876875
EXTRACT: note_on channel=0 note=53 velocity=0 time=0
EXTRACT: note_on channel=0 note=46 velocity=80 time=0.011284731249999999
EXTRACT: note_on channel=0 note=53 velocity=80 time=0
EXTRACT: note_on channel=0 note=63 velocity=0 time=0.18663209374999998
EXTRACT: note_on channel=0 note=46 velocity=0 time=0.010416675
EXTRACT: note_on channel=0 note=53 velocity=0 time=0
EXTRACT: note_on channel=0 note=63 velocity=80 time=0.011284731249999999
EXTRACT: note_on channel=0 note=46 velocity=80 time=0
EXTRACT: note_on channel=0 note=53 velocity=80 time=0
EXTRACT: note_on channel=0 note=63 velocity=0 time=0.19704876875
EXTRACT: note_on channel=0 note=46 velocity=0 time=0
EXTRACT: note_on channel=0 note=53 velocity=0 time=0
EXTRACT: note_on channel=0 note=65 velocity=80 time=0.011284731249999999
EXTRACT: note_on channel=0 note=46 velocity=80 time=0
EXTRACT: note_on channel=0 note=53 velocity=80 time=0
EXTRACT: note_on channel=0 note=65 velocity=0 time=0.19704876875
EXTRACT: note_on channel=0 note=46 velocity=0 time=0
EXTRACT: note_on channel=0 note=53 velocity=0 time=0
EXTRACT: note_on channel=0 note=65 velocity=80 time=0.011284731249999999
EXTRACT: note_on channel=0 note=46 velocity=80 time=0
EXTRACT: note_on channel=0 note=53 velocity=80 time=0
EXTRACT: note_on channel=0 note=46 velocity=0 time=0.19704876875
EXTRACT: note_on channel=0 note=53 velocity=0 time=0
EXTRACT: note_on channel=0 note=46 velocity=80 time=0.011284731249999999
EXTRACT: note_on channel=0 note=53 velocity=80 time=0
EXTRACT: note_on channel=0 note=65 velocity=0 time=0.18663209374999998
EXTRACT: note_on channel=0 note=46 velocity=0 time=0.010416675
EXTRACT: note_on channel=0 note=53 velocity=0 time=0
EXTRACT: note_on channel=0 note=63 velocity=80 time=0.011284731249999999
EXTRACT: note_on channel=0 note=46 velocity=80 time=0
EXTRACT: note_on channel=0 note=53 velocity=80 time=0
EXTRACT: note_on channel=0 note=63 velocity=0 time=0.19704876875
EXTRACT: note_on channel=0 note=46 velocity=0 time=0
EXTRACT: note_on channel=0 note=53 velocity=0 time=0
EXTRACT: note_on channel=0 note=65 velocity=80 time=0.011284731249999999
EXTRACT: note_on channel=0 note=46 velocity=80 time=0
EXTRACT: note_on channel=0 note=53 velocity=80 time=0
EXTRACT: note_on channel=0 note=46 velocity=0 time=0.19704876875
EXTRACT: note_on channel=0 note=53 velocity=0 time=0
EXTRACT: note_on channel=0 note=44 velocity=80 time=0.011284731249999999
EXTRACT: note_on channel=0 note=51 velocity=80 time=0
EXTRACT: note_on channel=0 note=65 velocity=0 time=0.18663209374999998
EXTRACT: note_on channel=0 note=44 velocity=0 time=0.010416675
EXTRACT: note_on channel=0 note=51 velocity=0 time=0
EXTRACT: note_on channel=0 note=63 velocity=80 time=0.011284731249999999
EXTRACT: note_on channel=0 note=44 velocity=80 time=0
EXTRACT: note_on channel=0 note=51 velocity=80 time=0
EXTRACT: note_on channel=0 note=44 velocity=0 time=0.19704876875
EXTRACT: note_on channel=0 note=51 velocity=0 time=0
EXTRACT: note_on channel=0 note=44 velocity=80 time=0.011284731249999999
EXTRACT: note_on channel=0 note=51 velocity=80 time=0
EXTRACT: note_on channel=0 note=63 velocity=0 time=0.18663209374999998
EXTRACT: note_on channel=0 note=44 velocity=0 time=0.010416675
EXTRACT: note_on channel=0 note=51 velocity=0 time=0
EXTRACT: note_on channel=0 note=61 velocity=80 time=0.011284731249999999
EXTRACT: note_on channel=0 note=44 velocity=80 time=0
EXTRACT: note_on channel=0 note=51 velocity=80 time=0
EXTRACT: note_on channel=0 note=44 velocity=0 time=0.19704876875
EXTRACT: note_on channel=0 note=51 velocity=0 time=0
EXTRACT: note_on channel=0 note=44 velocity=80 time=0.011284731249999999
EXTRACT: note_on channel=0 note=51 velocity=80 time=0
EXTRACT: note_on channel=0 note=44 velocity=0 time=0.19704876875
EXTRACT: note_on channel=0 note=51 velocity=0 time=0
EXTRACT: note_on channel=0 note=44 velocity=80 time=0.011284731249999999
EXTRACT: note_on channel=0 note=51 velocity=80 time=0
EXTRACT: note_on channel=0 note=61 velocity=0 time=0.17621541875
EXTRACT: note_on channel=0 note=44 velocity=0 time=0.02083335
EXTRACT: note_on channel=0 note=51 velocity=0 time=0
EXTRACT: note_on channel=0 note=63 velocity=80 time=0.011284731249999999
EXTRACT: note_on channel=0 note=44 velocity=80 time=0
EXTRACT: note_on channel=0 note=51 velocity=80 time=0
EXTRACT: note_on channel=0 note=63 velocity=0 time=0.19704876875
EXTRACT: note_on channel=0 note=44 velocity=0 time=0
EXTRACT: note_on channel=0 note=51 velocity=0 time=0
EXTRACT: note_on channel=0 note=61 velocity=80 time=0.011284731249999999
EXTRACT: note_on channel=0 note=44 velocity=80 time=0
EXTRACT: note_on channel=0 note=51 velocity=80 time=0
EXTRACT: note_on channel=0 note=44 velocity=0 time=0.19704876875
EXTRACT: note_on channel=0 note=51 velocity=0 time=0
EXTRACT: note_on channel=0 note=49 velocity=80 time=0.011284731249999999
EXTRACT: note_on channel=0 note=53 velocity=80 time=0
EXTRACT: note_on channel=0 note=49 velocity=0 time=0.19704876875
EXTRACT: note_on channel=0 note=53 velocity=0 time=0
EXTRACT: note_on channel=0 note=49 velocity=80 time=0.011284731249999999
EXTRACT: note_on channel=0 note=53 velocity=80 time=0
EXTRACT: note_on channel=0 note=49 velocity=0 time=0.19704876875
EXTRACT: note_on channel=0 note=53 velocity=0 time=0
EXTRACT: note_on channel=0 note=49 velocity=80 time=0.011284731249999999
EXTRACT: note_on channel=0 note=53 velocity=80 time=0
EXTRACT: note_on channel=0 note=49 velocity=0 time=0.19704876875
EXTRACT: note_on channel=0 note=53 velocity=0 time=0
EXTRACT: note_on channel=0 note=49 velocity=80 time=0.011284731249999999
EXTRACT: note_on channel=0 note=53 velocity=80 time=0
EXTRACT: note_on channel=0 note=49 velocity=0 time=0.19704876875
EXTRACT: note_on channel=0 note=53 velocity=0 time=0
EXTRACT: note_on channel=0 note=49 velocity=80 time=0.011284731249999999
EXTRACT: note_on channel=0 note=53 velocity=80 time=0
EXTRACT: note_on channel=0 note=49 velocity=0 time=0.19704876875
EXTRACT: note_on channel=0 note=53 velocity=0 time=0
EXTRACT: note_on channel=0 note=49 velocity=80 time=0.011284731249999999
EXTRACT: note_on channel=0 note=53 velocity=80 time=0
EXTRACT: note_on channel=0 note=49 velocity=0 time=0.19704876875
EXTRACT: note_on channel=0 note=53 velocity=0 time=0
EXTRACT: note_on channel=0 note=49 velocity=80 time=0.011284731249999999
EXTRACT: note_on channel=0 note=53 velocity=80 time=0
EXTRACT: note_on channel=0 note=49 velocity=0 time=0.19704876875
EXTRACT: note_on channel=0 note=53 velocity=0 time=0
EXTRACT: note_on channel=0 note=49 velocity=80 time=0.011284731249999999
EXTRACT: note_on channel=0 note=53 velocity=80 time=0
EXTRACT: note_on channel=0 note=61 velocity=0 time=0.11371536874999999
EXTRACT: note_on channel=0 note=49 velocity=0 time=0.0833334
EXTRACT: note_on channel=0 note=53 velocity=0 time=0
EXTRACT: note_on channel=0 note=42 velocity=80 time=0.011284731249999999
EXTRACT: note_on channel=0 note=49 velocity=80 time=0
EXTRACT: note_on channel=0 note=42 velocity=0 time=0.19704876875
EXTRACT: note_on channel=0 note=49 velocity=0 time=0
EXTRACT: note_on channel=0 note=42 velocity=80 time=0.011284731249999999
EXTRACT: note_on channel=0 note=49 velocity=80 time=0
EXTRACT: note_on channel=0 note=42 velocity=0 time=0.19704876875
EXTRACT: note_on channel=0 note=49 velocity=0 time=0
EXTRACT: note_on channel=0 note=42 velocity=80 time=0.011284731249999999
EXTRACT: note_on channel=0 note=49 velocity=80 time=0
EXTRACT: note_on channel=0 note=42 velocity=0 time=0.19704876875
EXTRACT: note_on channel=0 note=49 velocity=0 time=0
EXTRACT: note_on channel=0 note=42 velocity=80 time=0.011284731249999999
EXTRACT: note_on channel=0 note=49 velocity=80 time=0
EXTRACT: note_on channel=0 note=42 velocity=0 time=0.19704876875
EXTRACT: note_on channel=0 note=49 velocity=0 time=0
EXTRACT: note_on channel=0 note=42 velocity=80 time=0.011284731249999999
EXTRACT: note_on channel=0 note=49 velocity=80 time=0
EXTRACT: note_on channel=0 note=42 velocity=0 time=0.19704876875
EXTRACT: note_on channel=0 note=49 velocity=0 time=0
EXTRACT: note_on channel=0 note=42 velocity=80 time=0.011284731249999999
EXTRACT: note_on channel=0 note=49 velocity=80 time=0
EXTRACT: note_on channel=0 note=42 velocity=0 time=0.19704876875
EXTRACT: note_on channel=0 note=49 velocity=0 time=0
EXTRACT: note_on channel=0 note=42 velocity=80 time=0.011284731249999999
EXTRACT: note_on channel=0 note=49 velocity=80 time=0
EXTRACT: note_on channel=0 note=42 velocity=0 time=0.19704876875
EXTRACT: note_on channel=0 note=49 velocity=0 time=0
EXTRACT: note_on channel=0 note=42 velocity=80 time=0.011284731249999999
EXTRACT: note_on channel=0 note=49 velocity=80 time=0
EXTRACT: note_on channel=0 note=42 velocity=0 time=0.19704876875
EXTRACT: note_on channel=0 note=49 velocity=0 time=0
EXTRACT: note_on channel=0 note=46 velocity=80 time=0.011284731249999999
EXTRACT: note_on channel=0 note=53 velocity=80 time=0
EXTRACT: note_on channel=0 note=46 velocity=0 time=0.19704876875
EXTRACT: note_on channel=0 note=53 velocity=0 time=0
EXTRACT: note_on channel=0 note=46 velocity=80 time=0.011284731249999999
EXTRACT: note_on channel=0 note=53 velocity=80 time=0
EXTRACT: note_on channel=0 note=46 velocity=0 time=0.19704876875
EXTRACT: note_on channel=0 note=53 velocity=0 time=0
EXTRACT: note_on channel=0 note=70 velocity=80 time=0.011284731249999999
EXTRACT: note_on channel=0 note=46 velocity=80 time=0
EXTRACT: note_on channel=0 note=53 velocity=80 time=0
EXTRACT: note_on channel=0 note=46 velocity=0 time=0.19704876875
EXTRACT: note_on channel=0 note=53 velocity=0 time=0
EXTRACT: note_on channel=0 note=46 velocity=80 time=0.011284731249999999
EXTRACT: note_on channel=0 note=53 velocity=80 time=0
EXTRACT: note_on channel=0 note=70 velocity=0 time=0.18663209374999998
EXTRACT: note_on channel=0 note=46 velocity=0 time=0.010416675
EXTRACT: note_on channel=0 note=53 velocity=0 time=0
EXTRACT: note_on channel=0 note=68 velocity=80 time=0.011284731249999999
EXTRACT: note_on channel=0 note=46 velocity=80 time=0
EXTRACT: note_on channel=0 note=53 velocity=80 time=0
EXTRACT: note_on channel=0 note=68 velocity=0 time=0.19704876875
EXTRACT: note_on channel=0 note=46 velocity=0 time=0
EXTRACT: note_on channel=0 note=53 velocity=0 time=0
EXTRACT: note_on channel=0 note=65 velocity=80 time=0.011284731249999999
EXTRACT: note_on channel=0 note=46 velocity=80 time=0
EXTRACT: note_on channel=0 note=53 velocity=80 time=0
EXTRACT: note_on channel=0 note=46 velocity=0 time=0.19704876875
EXTRACT: note_on channel=0 note=53 velocity=0 time=0
EXTRACT: note_on channel=0 note=46 velocity=80 time=0.011284731249999999
EXTRACT: note_on channel=0 note=53 velocity=80 time=0
EXTRACT: note_on channel=0 note=65 velocity=0 time=0.18663209374999998
EXTRACT: note_on channel=0 note=46 velocity=0 time=0.010416675
EXTRACT: note_on channel=0 note=53 velocity=0 time=0
EXTRACT: note_on channel=0 note=70 velocity=80 time=0.011284731249999999
EXTRACT: note_on channel=0 note=46 velocity=80 time=0
EXTRACT: note_on channel=0 note=53 velocity=80 time=0
EXTRACT: note_on channel=0 note=46 velocity=0 time=0.19704876875
EXTRACT: note_on channel=0 note=53 velocity=0 time=0
EXTRACT: note_on channel=0 note=44 velocity=80 time=0.011284731249999999
EXTRACT: note_on channel=0 note=51 velocity=80 time=0
EXTRACT: note_on channel=0 note=70 velocity=0 time=0.18663209374999998
EXTRACT: note_on channel=0 note=44 velocity=0 time=0.010416675
EXTRACT: note_on channel=0 note=51 velocity=0 time=0
EXTRACT: note_on channel=0 note=68 velocity=80 time=0.011284731249999999
EXTRACT: note_on channel=0 note=44 velocity=80 time=0
EXTRACT: note_on channel=0 note=51 velocity=80 time=0
EXTRACT: note_on channel=0 note=44 velocity=0 time=0.19704876875
EXTRACT: note_on channel=0 note=51 velocity=0 time=0
EXTRACT: note_on channel=0 note=44 velocity=80 time=0.011284731249999999
EXTRACT: note_on channel=0 note=51 velocity=80 time=0
EXTRACT: note_on channel=0 note=44 velocity=0 time=0.19704876875
EXTRACT: note_on channel=0 note=51 velocity=0 time=0
EXTRACT: note_on channel=0 note=44 velocity=80 time=0.011284731249999999
EXTRACT: note_on channel=0 note=51 velocity=80 time=0
EXTRACT: note_on channel=0 note=68 velocity=0 time=0.17621541875
EXTRACT: note_on channel=0 note=44 velocity=0 time=0.02083335
EXTRACT: note_on channel=0 note=51 velocity=0 time=0
EXTRACT: note_on channel=0 note=65 velocity=80 time=0.011284731249999999
EXTRACT: note_on channel=0 note=44 velocity=80 time=0
EXTRACT: note_on channel=0 note=51 velocity=80 time=0
EXTRACT: note_on channel=0 note=44 velocity=0 time=0.19704876875
EXTRACT: note_on channel=0 note=51 velocity=0 time=0
EXTRACT: note_on channel=0 note=44 velocity=80 time=0.011284731249999999
EXTRACT: note_on channel=0 note=51 velocity=80 time=0
EXTRACT: note_on channel=0 note=65 velocity=0 time=0.18663209374999998
EXTRACT: note_on channel=0 note=44 velocity=0 time=0.010416675
EXTRACT: note_on channel=0 note=51 velocity=0 time=0
EXTRACT: note_on channel=0 note=63 velocity=80 time=0.011284731249999999
EXTRACT: note_on channel=0 note=44 velocity=80 time=0
EXTRACT: note_on channel=0 note=51 velocity=80 time=0
EXTRACT: note_on channel=0 note=63 velocity=0 time=0.19704876875
EXTRACT: note_on channel=0 note=44 velocity=0 time=0
EXTRACT: note_on channel=0 note=51 velocity=0 time=0
EXTRACT: note_on channel=0 note=65 velocity=80 time=0.011284731249999999
EXTRACT: note_on channel=0 note=44 velocity=80 time=0
EXTRACT: note_on channel=0 note=51 velocity=80 time=0
EXTRACT: note_on channel=0 note=44 velocity=0 time=0.19704876875
EXTRACT: note_on channel=0 note=51 velocity=0 time=0
EXTRACT: note_on channel=0 note=49 velocity=80 time=0.011284731249999999
EXTRACT: note_on channel=0 note=53 velocity=80 time=0
EXTRACT: note_on channel=0 note=49 velocity=0 time=0.19704876875
EXTRACT: note_on channel=0 note=53 velocity=0 time=0
EXTRACT: note_on channel=0 note=49 velocity=80 time=0.011284731249999999
EXTRACT: note_on channel=0 note=53 velocity=80 time=0
EXTRACT: note_on channel=0 note=49 velocity=0 time=0.19704876875
EXTRACT: note_on channel=0 note=53 velocity=0 time=0
EXTRACT: note_on channel=0 note=49 velocity=80 time=0.011284731249999999
EXTRACT: note_on channel=0 note=53 velocity=80 time=0
EXTRACT: note_on channel=0 note=49 velocity=0 time=0.19704876875
EXTRACT: note_on channel=0 note=53 velocity=0 time=0
EXTRACT: note_on channel=0 note=49 velocity=80 time=0.011284731249999999
EXTRACT: note_on channel=0 note=53 velocity=80 time=0
EXTRACT: note_on channel=0 note=49 velocity=0 time=0.19704876875
EXTRACT: note_on channel=0 note=53 velocity=0 time=0
EXTRACT: note_on channel=0 note=49 velocity=80 time=0.011284731249999999
EXTRACT: note_on channel=0 note=53 velocity=80 time=0
EXTRACT: note_on channel=0 note=49 velocity=0 time=0.19704876875
EXTRACT: note_on channel=0 note=53 velocity=0 time=0
EXTRACT: note_on channel=0 note=49 velocity=80 time=0.011284731249999999
EXTRACT: note_on channel=0 note=53 velocity=80 time=0
EXTRACT: note_on channel=0 note=49 velocity=0 time=0.19704876875
EXTRACT: note_on channel=0 note=53 velocity=0 time=0
EXTRACT: note_on channel=0 note=49 velocity=80 time=0.011284731249999999
EXTRACT: note_on channel=0 note=53 velocity=80 time=0
EXTRACT: note_on channel=0 note=49 velocity=0 time=0.19704876875
EXTRACT: note_on channel=0 note=53 velocity=0 time=0
EXTRACT: note_on channel=0 note=49 velocity=80 time=0.011284731249999999
EXTRACT: note_on channel=0 note=53 velocity=80 time=0
EXTRACT: note_on channel=0 note=65 velocity=0 time=0.11371536874999999
EXTRACT: note_on channel=0 note=49 velocity=0 time=0.0833334
EXTRACT: note_on channel=0 note=53 velocity=0 time=0
EXTRACT: note_on channel=0 note=42 velocity=80 time=0.011284731249999999
EXTRACT: note_on channel=0 note=49 velocity=80 time=0
EXTRACT: note_on channel=0 note=42 velocity=0 time=0.19704876875
EXTRACT: note_on channel=0 note=49 velocity=0 time=0
EXTRACT: note_on channel=0 note=42 velocity=80 time=0.011284731249999999
EXTRACT: note_on channel=0 note=49 velocity=80 time=0
EXTRACT: note_on channel=0 note=42 velocity=0 time=0.19704876875
EXTRACT: note_on channel=0 note=49 velocity=0 time=0
EXTRACT: note_on channel=0 note=42 velocity=80 time=0.011284731249999999
EXTRACT: note_on channel=0 note=49 velocity=80 time=0
EXTRACT: note_on channel=0 note=42 velocity=0 time=0.19704876875
EXTRACT: note_on channel=0 note=49 velocity=0 time=0
EXTRACT: note_on channel=0 note=61 velocity=80 time=0.011284731249999999
EXTRACT: note_on channel=0 note=65 velocity=80 time=0
EXTRACT: note_on channel=0 note=42 velocity=80 time=0
EXTRACT: note_on channel=0 note=49 velocity=80 time=0
EXTRACT: note_on channel=0 note=61 velocity=0 time=0.19704876875
EXTRACT: note_on channel=0 note=65 velocity=0 time=0
EXTRACT: note_on channel=0 note=42 velocity=0 time=0
EXTRACT: note_on channel=0 note=49 velocity=0 time=0
EXTRACT: note_on channel=0 note=61 velocity=80 time=0.011284731249999999
EXTRACT: note_on channel=0 note=65 velocity=80 time=0
EXTRACT: note_on channel=0 note=42 velocity=80 time=0
EXTRACT: note_on channel=0 note=49 velocity=80 time=0
EXTRACT: note_on channel=0 note=61 velocity=0 time=0.19704876875
EXTRACT: note_on channel=0 note=65 velocity=0 time=0
EXTRACT: note_on channel=0 note=42 velocity=0 time=0
EXTRACT: note_on channel=0 note=49 velocity=0 time=0
EXTRACT: note_on channel=0 note=61 velocity=80 time=0.011284731249999999
EXTRACT: note_on channel=0 note=65 velocity=80 time=0
EXTRACT: note_on channel=0 note=42 velocity=80 time=0
EXTRACT: note_on channel=0 note=49 velocity=80 time=0
EXTRACT: note_on channel=0 note=61 velocity=0 time=0.19704876875
EXTRACT: note_on channel=0 note=65 velocity=0 time=0
EXTRACT: note_on channel=0 note=42 velocity=0 time=0
EXTRACT: note_on channel=0 note=49 velocity=0 time=0
EXTRACT: note_on channel=0 note=63 velocity=80 time=0.011284731249999999
EXTRACT: note_on channel=0 note=66 velocity=80 time=0
EXTRACT: note_on channel=0 note=42 velocity=80 time=0
EXTRACT: note_on channel=0 note=49 velocity=80 time=0
EXTRACT: note_on channel=0 note=63 velocity=0 time=0.19704876875
EXTRACT: note_on channel=0 note=66 velocity=0 time=0
EXTRACT: note_on channel=0 note=42 velocity=0 time=0
EXTRACT: note_on channel=0 note=49 velocity=0 time=0
EXTRACT: note_on channel=0 note=65 velocity=80 time=0.011284731249999999
EXTRACT: note_on channel=0 note=68 velocity=80 time=0
EXTRACT: note_on channel=0 note=42 velocity=80 time=0
EXTRACT: note_on channel=0 note=49 velocity=80 time=0
EXTRACT: note_on channel=0 note=42 velocity=0 time=0.19704876875
EXTRACT: note_on channel=0 note=49 velocity=0 time=0
EXTRACT: note_on channel=0 note=46 velocity=80 time=0.011284731249999999
EXTRACT: note_on channel=0 note=53 velocity=80 time=0
EXTRACT: note_on channel=0 note=65 velocity=0 time=0.18663209374999998
EXTRACT: note_on channel=0 note=68 velocity=0 time=0
EXTRACT: note_on channel=0 note=46 velocity=0 time=0.010416675
EXTRACT: note_on channel=0 note=53 velocity=0 time=0
EXTRACT: note_on channel=0 note=65 velocity=80 time=0.011284731249999999
EXTRACT: note_on channel=0 note=68 velocity=80 time=0
EXTRACT: note_on channel=0 note=46 velocity=80 time=0
EXTRACT: note_on channel=0 note=53 velocity=80 time=0
EXTRACT: note_on channel=0 note=46 velocity=0 time=0.19704876875
EXTRACT: note_on channel=0 note=53 velocity=0 time=0
EXTRACT: note_on channel=0 note=46 velocity=80 time=0.011284731249999999
EXTRACT: note_on channel=0 note=53 velocity=80 time=0
EXTRACT: note_on channel=0 note=65 velocity=0 time=0.18663209374999998
EXTRACT: note_on channel=0 note=68 velocity=0 time=0
EXTRACT: note_on channel=0 note=46 velocity=0 time=0.010416675
EXTRACT: note_on channel=0 note=53 velocity=0 time=0
EXTRACT: note_on channel=0 note=65 velocity=80 time=0.011284731249999999
EXTRACT: note_on channel=0 note=68 velocity=80 time=0
EXTRACT: note_on channel=0 note=46 velocity=80 time=0
EXTRACT: note_on channel=0 note=53 velocity=80 time=0
EXTRACT: note_on channel=0 note=46 velocity=0 time=0.19704876875
EXTRACT: note_on channel=0 note=53 velocity=0 time=0
EXTRACT: note_on channel=0 note=46 velocity=80 time=0.011284731249999999
EXTRACT: note_on channel=0 note=53 velocity=80 time=0
EXTRACT: note_on channel=0 note=65 velocity=0 time=0.18663209374999998
EXTRACT: note_on channel=0 note=68 velocity=0 time=0
EXTRACT: note_on channel=0 note=46 velocity=0 time=0.010416675
EXTRACT: note_on channel=0 note=53 velocity=0 time=0
EXTRACT: note_on channel=0 note=65 velocity=80 time=0.011284731249999999
EXTRACT: note_on channel=0 note=68 velocity=80 time=0
EXTRACT: note_on channel=0 note=46 velocity=80 time=0
EXTRACT: note_on channel=0 note=53 velocity=80 time=0
EXTRACT: note_on channel=0 note=46 velocity=0 time=0.19704876875
EXTRACT: note_on channel=0 note=53 velocity=0 time=0
EXTRACT: note_on channel=0 note=46 velocity=80 time=0.011284731249999999
EXTRACT: note_on channel=0 note=53 velocity=80 time=0
EXTRACT: note_on channel=0 note=46 velocity=0 time=0.19704876875
EXTRACT: note_on channel=0 note=53 velocity=0 time=0
EXTRACT: note_on channel=0 note=46 velocity=80 time=0.011284731249999999
EXTRACT: note_on channel=0 note=53 velocity=80 time=0
EXTRACT: note_on channel=0 note=65 velocity=0 time=0.17621541875
EXTRACT: note_on channel=0 note=68 velocity=0 time=0
EXTRACT: note_on channel=0 note=46 velocity=0 time=0.02083335
EXTRACT: note_on channel=0 note=53 velocity=0 time=0
EXTRACT: note_on channel=0 note=44 velocity=80 time=0.011284731249999999
EXTRACT: note_on channel=0 note=51 velocity=80 time=0
EXTRACT: note_on channel=0 note=44 velocity=0 time=0.19704876875
EXTRACT: note_on channel=0 note=51 velocity=0 time=0
EXTRACT: note_on channel=0 note=44 velocity=80 time=0.011284731249999999
EXTRACT: note_on channel=0 note=51 velocity=80 time=0
EXTRACT: note_on channel=0 note=44 velocity=0 time=0.19704876875
EXTRACT: note_on channel=0 note=51 velocity=0 time=0
EXTRACT: note_on channel=0 note=44 velocity=80 time=0.011284731249999999
EXTRACT: note_on channel=0 note=51 velocity=80 time=0
EXTRACT: note_on channel=0 note=44 velocity=0 time=0.19704876875
EXTRACT: note_on channel=0 note=51 velocity=0 time=0
EXTRACT: note_on channel=0 note=61 velocity=80 time=0.011284731249999999
EXTRACT: note_on channel=0 note=65 velocity=80 time=0
EXTRACT: note_on channel=0 note=44 velocity=80 time=0
EXTRACT: note_on channel=0 note=51 velocity=80 time=0
EXTRACT: note_on channel=0 note=61 velocity=0 time=0.19704876875
EXTRACT: note_on channel=0 note=65 velocity=0 time=0
EXTRACT: note_on channel=0 note=44 velocity=0 time=0
EXTRACT: note_on channel=0 note=51 velocity=0 time=0
EXTRACT: note_on channel=0 note=61 velocity=80 time=0.011284731249999999
EXTRACT: note_on channel=0 note=65 velocity=80 time=0
EXTRACT: note_on channel=0 note=44 velocity=80 time=0
EXTRACT: note_on channel=0 note=51 velocity=80 time=0
EXTRACT: note_on channel=0 note=61 velocity=0 time=0.19704876875
EXTRACT: note_on channel=0 note=65 velocity=0 time=0
EXTRACT: note_on channel=0 note=44 velocity=0 time=0
EXTRACT: note_on channel=0 note=51 velocity=0 time=0
EXTRACT: note_on channel=0 note=61 velocity=80 time=0.011284731249999999
EXTRACT: note_on channel=0 note=65 velocity=80 time=0
EXTRACT: note_on channel=0 note=44 velocity=80 time=0
EXTRACT: note_on channel=0 note=51 velocity=80 time=0
EXTRACT: note_on channel=0 note=61 velocity=0 time=0.19704876875
EXTRACT: note_on channel=0 note=65 velocity=0 time=0
EXTRACT: note_on channel=0 note=44 velocity=0 time=0
EXTRACT: note_on channel=0 note=51 velocity=0 time=0
EXTRACT: note_on channel=0 note=63 velocity=80 time=0.011284731249999999
EXTRACT: note_on channel=0 note=66 velocity=80 time=0
EXTRACT: note_on channel=0 note=44 velocity=80 time=0
EXTRACT: note_on channel=0 note=51 velocity=80 time=0
EXTRACT: note_on channel=0 note=63 velocity=0 time=0.19704876875
EXTRACT: note_on channel=0 note=66 velocity=0 time=0
EXTRACT: note_on channel=0 note=44 velocity=0 time=0
EXTRACT: note_on channel=0 note=51 velocity=0 time=0
EXTRACT: note_on channel=0 note=65 velocity=80 time=0.011284731249999999
EXTRACT: note_on channel=0 note=68 velocity=80 time=0
EXTRACT: note_on channel=0 note=44 velocity=80 time=0
EXTRACT: note_on channel=0 note=51 velocity=80 time=0
EXTRACT: note_on channel=0 note=44 velocity=0 time=0.19704876875
EXTRACT: note_on channel=0 note=51 velocity=0 time=0
EXTRACT: note_on channel=0 note=49 velocity=80 time=0.011284731249999999
EXTRACT: note_on channel=0 note=53 velocity=80 time=0
EXTRACT: note_on channel=0 note=65 velocity=0 time=0.18663209374999998
EXTRACT: note_on channel=0 note=68 velocity=0 time=0
EXTRACT: note_on channel=0 note=49 velocity=0 time=0.010416675
EXTRACT: note_on channel=0 note=53 velocity=0 time=0
EXTRACT: note_on channel=0 note=65 velocity=80 time=0.011284731249999999
EXTRACT: note_on channel=0 note=68 velocity=80 time=0
EXTRACT: note_on channel=0 note=49 velocity=80 time=0
EXTRACT: note_on channel=0 note=53 velocity=80 time=0
EXTRACT: note_on channel=0 note=49 velocity=0 time=0.19704876875
EXTRACT: note_on channel=0 note=53 velocity=0 time=0
EXTRACT: note_on channel=0 note=49 velocity=80 time=0.011284731249999999
EXTRACT: note_on channel=0 note=53 velocity=80 time=0
EXTRACT: note_on channel=0 note=65 velocity=0 time=0.18663209374999998
EXTRACT: note_on channel=0 note=68 velocity=0 time=0
EXTRACT: note_on channel=0 note=49 velocity=0 time=0.010416675
EXTRACT: note_on channel=0 note=53 velocity=0 time=0
EXTRACT: note_on channel=0 note=65 velocity=80 time=0.011284731249999999
EXTRACT: note_on channel=0 note=68 velocity=80 time=0
EXTRACT: note_on channel=0 note=49 velocity=80 time=0
EXTRACT: note_on channel=0 note=53 velocity=80 time=0
EXTRACT: note_on channel=0 note=49 velocity=0 time=0.19704876875
EXTRACT: note_on channel=0 note=53 velocity=0 time=0
EXTRACT: note_on channel=0 note=49 velocity=80 time=0.011284731249999999
EXTRACT: note_on channel=0 note=53 velocity=80 time=0
EXTRACT: note_on channel=0 note=65 velocity=0 time=0.18663209374999998
EXTRACT: note_on channel=0 note=68 velocity=0 time=0
EXTRACT: note_on channel=0 note=49 velocity=0 time=0.010416675
EXTRACT: note_on channel=0 note=53 velocity=0 time=0
EXTRACT: note_on channel=0 note=63 velocity=80 time=0.011284731249999999
EXTRACT: note_on channel=0 note=66 velocity=80 time=0
EXTRACT: note_on channel=0 note=49 velocity=80 time=0
EXTRACT: note_on channel=0 note=53 velocity=80 time=0
EXTRACT: note_on channel=0 note=49 velocity=0 time=0.19704876875
EXTRACT: note_on channel=0 note=53 velocity=0 time=0
EXTRACT: note_on channel=0 note=49 velocity=80 time=0.011284731249999999
EXTRACT: note_on channel=0 note=53 velocity=80 time=0
EXTRACT: note_on channel=0 note=49 velocity=0 time=0.19704876875
EXTRACT: note_on channel=0 note=53 velocity=0 time=0
EXTRACT: note_on channel=0 note=49 velocity=80 time=0.011284731249999999
EXTRACT: note_on channel=0 note=53 velocity=80 time=0
EXTRACT: note_on channel=0 note=49 velocity=0 time=0.19704876875
EXTRACT: note_on channel=0 note=53 velocity=0 time=0
EXTRACT: note_on channel=0 note=42 velocity=80 time=0.011284731249999999
EXTRACT: note_on channel=0 note=49 velocity=80 time=0
EXTRACT: note_on channel=0 note=42 velocity=0 time=0.19704876875
EXTRACT: note_on channel=0 note=49 velocity=0 time=0
EXTRACT: note_on channel=0 note=42 velocity=80 time=0.011284731249999999
EXTRACT: note_on channel=0 note=49 velocity=80 time=0
EXTRACT: note_on channel=0 note=42 velocity=0 time=0.19704876875
EXTRACT: note_on channel=0 note=49 velocity=0 time=0
EXTRACT: note_on channel=0 note=42 velocity=80 time=0.011284731249999999
EXTRACT: note_on channel=0 note=49 velocity=80 time=0
EXTRACT: note_on channel=0 note=42 velocity=0 time=0.19704876875
EXTRACT: note_on channel=0 note=49 velocity=0 time=0
EXTRACT: note_on channel=0 note=42 velocity=80 time=0.011284731249999999
EXTRACT: note_on channel=0 note=49 velocity=80 time=0
EXTRACT: note_on channel=0 note=63 velocity=0 time=0.13454871875
EXTRACT: note_on channel=0 note=66 velocity=0 time=0
EXTRACT: note_on channel=0 note=42 velocity=0 time=0.06250005
EXTRACT: note_on channel=0 note=49 velocity=0 time=0
EXTRACT: note_on channel=0 note=42 velocity=80 time=0.011284731249999999
EXTRACT: note_on channel=0 note=49 velocity=80 time=0
EXTRACT: note_on channel=0 note=42 velocity=0 time=0.19704876875
EXTRACT: note_on channel=0 note=49 velocity=0 time=0
EXTRACT: note_on channel=0 note=42 velocity=80 time=0.011284731249999999
EXTRACT: note_on channel=0 note=49 velocity=80 time=0
EXTRACT: note_on channel=0 note=42 velocity=0 time=0.19704876875
EXTRACT: note_on channel=0 note=49 velocity=0 time=0
EXTRACT: note_on channel=0 note=42 velocity=80 time=0.011284731249999999
EXTRACT: note_on channel=0 note=49 velocity=80 time=0
EXTRACT: note_on channel=0 note=42 velocity=0 time=0.19704876875
EXTRACT: note_on channel=0 note=49 velocity=0 time=0
EXTRACT: note_on channel=0 note=42 velocity=80 time=0.011284731249999999
EXTRACT: note_on channel=0 note=49 velocity=80 time=0
EXTRACT: note_on channel=0 note=42 velocity=0 time=0.19704876875
EXTRACT: note_on channel=0 note=49 velocity=0 time=0
EXTRACT: note_on channel=0 note=30 velocity=80 time=0.011284731249999999
EXTRACT: note_on channel=0 note=42 velocity=80 time=0
EXTRACT: note_on channel=0 note=68 velocity=80 time=0.41666699999999995
EXTRACT: note_on channel=0 note=68 velocity=0 time=0.19704876875
EXTRACT: note_on channel=0 note=70 velocity=80 time=0.011284731249999999
EXTRACT: note_on channel=0 note=70 velocity=0 time=0.19704876875
EXTRACT: note_on channel=0 note=70 velocity=80 time=0.011284731249999999
EXTRACT: note_on channel=0 note=70 velocity=0 time=0.19704876875
EXTRACT: note_on channel=0 note=70 velocity=80 time=0.011284731249999999
EXTRACT: note_on channel=0 note=70 velocity=0 time=0.19704876875
EXTRACT: note_on channel=0 note=70 velocity=80 time=0.011284731249999999
EXTRACT: note_on channel=0 note=70 velocity=0 time=0.19704876875
EXTRACT: note_on channel=0 note=70 velocity=80 time=0.011284731249999999
EXTRACT: note_on channel=0 note=30 velocity=0 time=0.12413204374999999
EXTRACT: note_on channel=0 note=42 velocity=0 time=0
EXTRACT: note_on channel=0 note=70 velocity=0 time=0.072916725
EXTRACT: note_on channel=0 note=72 velocity=80 time=0.011284731249999999
EXTRACT: note_on channel=0 note=32 velocity=80 time=0
EXTRACT: note_on channel=0 note=44 velocity=80 time=0
EXTRACT: note_on channel=0 note=72 velocity=0 time=0.39496559374999995
EXTRACT: note_on channel=0 note=72 velocity=80 time=0.02170140625
EXTRACT: note_on channel=0 note=72 velocity=0 time=0.39496559374999995
EXTRACT: note_on channel=0 note=72 velocity=80 time=0.02170140625
EXTRACT: note_on channel=0 note=72 velocity=0 time=0.19704876875
EXTRACT: note_on channel=0 note=70 velocity=80 time=0.011284731249999999
EXTRACT: note_on channel=0 note=70 velocity=0 time=0.19704876875
EXTRACT: note_on channel=0 note=70 velocity=80 time=0.011284731249999999
EXTRACT: note_on channel=0 note=32 velocity=0 time=0.33246554375
EXTRACT: note_on channel=0 note=44 velocity=0 time=0
EXTRACT: note_on channel=0 note=70 velocity=0 time=0.06250005
EXTRACT: note_on channel=0 note=34 velocity=80 time=0.02170140625
EXTRACT: note_on channel=0 note=46 velocity=80 time=0
EXTRACT: note_on channel=0 note=68 velocity=80 time=0.41666699999999995
EXTRACT: note_on channel=0 note=68 velocity=0 time=0.19704876875
EXTRACT: note_on channel=0 note=70 velocity=80 time=0.011284731249999999
EXTRACT: note_on channel=0 note=70 velocity=0 time=0.19704876875
EXTRACT: note_on channel=0 note=70 velocity=80 time=0.011284731249999999
EXTRACT: note_on channel=0 note=70 velocity=0 time=0.39496559374999995
EXTRACT: note_on channel=0 note=70 velocity=80 time=0.02170140625
EXTRACT: note_on channel=0 note=70 velocity=0 time=0.19704876875
EXTRACT: note_on channel=0 note=70 velocity=80 time=0.011284731249999999
EXTRACT: note_on channel=0 note=34 velocity=0 time=0.12413204374999999
EXTRACT: note_on channel=0 note=46 velocity=0 time=0
EXTRACT: note_on channel=0 note=70 velocity=0 time=0.072916725
EXTRACT: note_on channel=0 note=68 velocity=80 time=0.011284731249999999
EXTRACT: note_on channel=0 note=72 velocity=80 time=0
EXTRACT: note_on channel=0 note=75 velocity=80 time=0
EXTRACT: note_on channel=0 note=34 velocity=80 time=0
EXTRACT: note_on channel=0 note=46 velocity=80 time=0
EXTRACT: note_on channel=0 note=68 velocity=0 time=0.39496559374999995
EXTRACT: note_on channel=0 note=72 velocity=0 time=0
EXTRACT: note_on channel=0 note=75 velocity=0 time=0
EXTRACT: note_on channel=0 note=68 velocity=80 time=0.02170140625
EXTRACT: note_on channel=0 note=72 velocity=80 time=0
EXTRACT: note_on channel=0 note=75 velocity=80 time=0
EXTRACT: note_on channel=0 note=68 velocity=0 time=0.39496559374999995
EXTRACT: note_on channel=0 note=72 velocity=0 time=0
EXTRACT: note_on channel=0 note=75 velocity=0 time=0
EXTRACT: note_on channel=0 note=68 velocity=80 time=0.02170140625
EXTRACT: note_on channel=0 note=72 velocity=80 time=0
EXTRACT: note_on channel=0 note=75 velocity=80 time=0
EXTRACT: note_on channel=0 note=68 velocity=0 time=0.39496559374999995
EXTRACT: note_on channel=0 note=72 velocity=0 time=0
EXTRACT: note_on channel=0 note=75 velocity=0 time=0
EXTRACT: note_on channel=0 note=70 velocity=80 time=0.02170140625
EXTRACT: note_on channel=0 note=73 velocity=80 time=0
EXTRACT: note_on channel=0 note=77 velocity=80 time=0
EXTRACT: note_on channel=0 note=70 velocity=0 time=0.19704876875
EXTRACT: note_on channel=0 note=73 velocity=0 time=0
EXTRACT: note_on channel=0 note=77 velocity=0 time=0
EXTRACT: note_on channel=0 note=70 velocity=80 time=0.011284731249999999
EXTRACT: note_on channel=0 note=73 velocity=80 time=0
EXTRACT: note_on channel=0 note=77 velocity=80 time=0
EXTRACT: note_on channel=0 note=34 velocity=0 time=0.12413204374999999
EXTRACT: note_on channel=0 note=46 velocity=0 time=0
EXTRACT: note_on channel=0 note=30 velocity=80 time=0.08420145625
EXTRACT: note_on channel=0 note=42 velocity=80 time=0
EXTRACT: note_on channel=0 note=70 velocity=0 time=0.18663209374999998
EXTRACT: note_on channel=0 note=73 velocity=0 time=0
EXTRACT: note_on channel=0 note=77 velocity=0 time=0
EXTRACT: note_on channel=0 note=70 velocity=80 time=0.23003490624999998
EXTRACT: note_on channel=0 note=70 velocity=0 time=0.19704876875
EXTRACT: note_on channel=0 note=70 velocity=80 time=0.011284731249999999
EXTRACT: note_on channel=0 note=70 velocity=0 time=0.19704876875
EXTRACT: note_on channel=0 note=70 velocity=80 time=0.011284731249999999
EXTRACT: note_on channel=0 note=70 velocity=0 time=0.39496559374999995
EXTRACT: note_on channel=0 note=70 velocity=80 time=0.02170140625
EXTRACT: note_on channel=0 note=70 velocity=0 time=0.19704876875
EXTRACT: note_on channel=0 note=70 velocity=80 time=0.011284731249999999
EXTRACT: note_on channel=0 note=30 velocity=0 time=0.12413204374999999
EXTRACT: note_on channel=0 note=42 velocity=0 time=0
EXTRACT: note_on channel=0 note=70 velocity=0 time=0.072916725
EXTRACT: note_on channel=0 note=72 velocity=80 time=0.011284731249999999
EXTRACT: note_on channel=0 note=32 velocity=80 time=0
EXTRACT: note_on channel=0 note=44 velocity=80 time=0
EXTRACT: note_on channel=0 note=72 velocity=0 time=0.39496559374999995
EXTRACT: note_on channel=0 note=72 velocity=80 time=0.02170140625
EXTRACT: note_on channel=0 note=72 velocity=0 time=0.39496559374999995
EXTRACT: note_on channel=0 note=72 velocity=80 time=0.02170140625
EXTRACT: note_on channel=0 note=72 velocity=0 time=0.19704876875
EXTRACT: note_on channel=0 note=70 velocity=80 time=0.011284731249999999
EXTRACT: note_on channel=0 note=70 velocity=0 time=0.19704876875
EXTRACT: note_on channel=0 note=70 velocity=80 time=0.011284731249999999
EXTRACT: note_on channel=0 note=32 velocity=0 time=0.33246554375
EXTRACT: note_on channel=0 note=44 velocity=0 time=0
EXTRACT: note_on channel=0 note=70 velocity=0 time=0.06250005
EXTRACT: note_on channel=0 note=34 velocity=80 time=0.02170140625
EXTRACT: note_on channel=0 note=46 velocity=80 time=0
EXTRACT: note_on channel=0 note=73 velocity=80 time=0.41666699999999995
EXTRACT: note_on channel=0 note=77 velocity=80 time=0
EXTRACT: note_on channel=0 note=73 velocity=0 time=0.19704876875
EXTRACT: note_on channel=0 note=77 velocity=0 time=0
EXTRACT: note_on channel=0 note=72 velocity=80 time=0.011284731249999999
EXTRACT: note_on channel=0 note=75 velocity=80 time=0
EXTRACT: note_on channel=0 note=72 velocity=0 time=0.39496559374999995
EXTRACT: note_on channel=0 note=75 velocity=0 time=0
EXTRACT: note_on channel=0 note=73 velocity=80 time=0.02170140625
EXTRACT: note_on channel=0 note=77 velocity=80 time=0
EXTRACT: note_on channel=0 note=73 velocity=0 time=0.09809035625
EXTRACT: note_on channel=0 note=77 velocity=0 time=0
EXTRACT: note_on channel=0 note=72 velocity=80 time=0.00607639375
EXTRACT: note_on channel=0 note=75 velocity=80 time=0
EXTRACT: note_on channel=0 note=72 velocity=0 time=0.09809035625
EXTRACT: note_on channel=0 note=75 velocity=0 time=0
EXTRACT: note_on channel=0 note=70 velocity=80 time=0.00607639375
EXTRACT: note_on channel=0 note=73 velocity=80 time=0
EXTRACT: note_on channel=0 note=34 velocity=0 time=0.33246554375
EXTRACT: note_on channel=0 note=46 velocity=0 time=0
EXTRACT: note_on channel=0 note=70 velocity=0 time=0.06250005
EXTRACT: note_on channel=0 note=73 velocity=0 time=0
EXTRACT: note_on channel=0 note=44 velocity=80 time=0.02170140625
EXTRACT: note_on channel=0 note=77 velocity=80 time=0.41666699999999995
EXTRACT: note_on channel=0 note=77 velocity=0 time=0.39496559374999995
EXTRACT: note_on channel=0 note=75 velocity=80 time=0.02170140625
EXTRACT: note_on channel=0 note=75 velocity=0 time=0.39496559374999995
EXTRACT: note_on channel=0 note=73 velocity=80 time=0.02170140625
EXTRACT: note_on channel=0 note=44 velocity=0 time=0.33246554375
EXTRACT: note_on channel=0 note=73 velocity=0 time=0.06250005
EXTRACT: note_on channel=0 note=77 velocity=80 time=0.02170140625
EXTRACT: note_on channel=0 note=34 velocity=80 time=0
EXTRACT: note_on channel=0 note=77 velocity=0 time=0.19704876875
EXTRACT: note_on channel=0 note=80 velocity=80 time=0.011284731249999999
EXTRACT: note_on channel=0 note=80 velocity=0 time=0.19704876875
EXTRACT: note_on channel=0 note=77 velocity=80 time=0.011284731249999999
EXTRACT: note_on channel=0 note=77 velocity=0 time=0.19704876875
EXTRACT: note_on channel=0 note=75 velocity=80 time=0.011284731249999999
EXTRACT: note_on channel=0 note=34 velocity=0 time=0.16579874374999998
EXTRACT: note_on channel=0 note=75 velocity=0 time=0.031250025
EXTRACT: note_on channel=0 note=77 velocity=80 time=0.011284731249999999
EXTRACT: note_on channel=0 note=46 velocity=80 time=0
EXTRACT: note_on channel=0 note=77 velocity=0 time=0.19704876875
EXTRACT: note_on channel=0 note=75 velocity=80 time=0.011284731249999999
EXTRACT: note_on channel=0 note=75 velocity=0 time=0.19704876875
EXTRACT: note_on channel=0 note=75 velocity=80 time=0.011284731249999999
EXTRACT: note_on channel=0 note=46 velocity=0 time=0.37413224375
EXTRACT: note_on channel=0 note=75 velocity=0 time=0.02083335
EXTRACT: note_on channel=0 note=32 velocity=80 time=0.02170140625
EXTRACT: note_on channel=0 note=73 velocity=80 time=0.6250005
EXTRACT: note_on channel=0 note=32 velocity=0 time=0.16579874374999998
EXTRACT: note_on channel=0 note=73 velocity=0 time=0.031250025
EXTRACT: note_on channel=0 note=75 velocity=80 time=0.011284731249999999
EXTRACT: note_on channel=0 note=44 velocity=80 time=0
EXTRACT: note_on channel=0 note=75 velocity=0 time=0.39496559374999995
EXTRACT: note_on channel=0 note=73 velocity=80 time=0.02170140625
EXTRACT: note_on channel=0 note=44 velocity=0 time=0.37413224375
EXTRACT: note_on channel=0 note=73 velocity=0 time=0.02083335
EXTRACT: note_on channel=0 note=77 velocity=80 time=0.02170140625
EXTRACT: note_on channel=0 note=37 velocity=80 time=0
EXTRACT: note_on channel=0 note=77 velocity=0 time=0.19704876875
EXTRACT: note_on channel=0 note=80 velocity=80 time=0.011284731249999999
EXTRACT: note_on channel=0 note=80 velocity=0 time=0.19704876875
EXTRACT: note_on channel=0 note=77 velocity=80 time=0.011284731249999999
EXTRACT: note_on channel=0 note=77 velocity=0 time=0.19704876875
EXTRACT: note_on channel=0 note=75 velocity=80 time=0.011284731249999999
EXTRACT: note_on channel=0 note=37 velocity=0 time=0.16579874374999998
EXTRACT: note_on channel=0 note=75 velocity=0 time=0.031250025
EXTRACT: note_on channel=0 note=77 velocity=80 time=0.011284731249999999
EXTRACT: note_on channel=0 note=49 velocity=80 time=0
EXTRACT: note_on channel=0 note=77 velocity=0 time=0.19704876875
EXTRACT: note_on channel=0 note=75 velocity=80 time=0.011284731249999999
EXTRACT: note_on channel=0 note=75 velocity=0 time=0.19704876875
EXTRACT: note_on channel=0 note=75 velocity=80 time=0.011284731249999999
EXTRACT: note_on channel=0 note=49 velocity=0 time=0.37413224375
EXTRACT: note_on channel=0 note=75 velocity=0 time=0.02083335
EXTRACT: note_on channel=0 note=30 velocity=80 time=0.02170140625
EXTRACT: note_on channel=0 note=77 velocity=80 time=0.6250005
EXTRACT: note_on channel=0 note=30 velocity=0 time=0.16579874374999998
EXTRACT: note_on channel=0 note=77 velocity=0 time=0.031250025
EXTRACT: note_on channel=0 note=75 velocity=80 time=0.011284731249999999
EXTRACT: note_on channel=0 note=42 velocity=80 time=0
EXTRACT: note_on channel=0 note=75 velocity=0 time=0.39496559374999995
EXTRACT: note_on channel=0 note=73 velocity=80 time=0.02170140625
EXTRACT: note_on channel=0 note=42 velocity=0 time=0.37413224375
EXTRACT: note_on channel=0 note=73 velocity=0 time=0.02083335
EXTRACT: note_on channel=0 note=70 velocity=80 time=0.02170140625
EXTRACT: note_on channel=0 note=34 velocity=80 time=0
EXTRACT: note_on channel=0 note=70 velocity=0 time=0.19704876875
EXTRACT: note_on channel=0 note=72 velocity=80 time=0.011284731249999999
EXTRACT: note_on channel=0 note=72 velocity=0 time=0.39496559374999995
EXTRACT: note_on channel=0 note=73 velocity=80 time=0.02170140625
EXTRACT: note_on channel=0 note=34 velocity=0 time=0.16579874374999998
EXTRACT: note_on channel=0 note=46 velocity=80 time=0.04253475625
EXTRACT: note_on channel=0 note=73 velocity=0 time=0.18663209374999998
EXTRACT: note_on channel=0 note=80 velocity=80 time=0.02170140625
EXTRACT: note_on channel=0 note=80 velocity=0 time=0.39496559374999995
EXTRACT: note_on channel=0 note=77 velocity=80 time=0.02170140625
EXTRACT: note_on channel=0 note=46 velocity=0 time=0.16579874374999998
EXTRACT: note_on channel=0 note=32 velocity=80 time=0.04253475625
EXTRACT: note_on channel=0 note=77 velocity=0 time=0.5824657437499999
EXTRACT: note_on channel=0 note=75 velocity=80 time=0.04253475625
EXTRACT: note_on channel=0 note=32 velocity=0 time=0.16579874374999998
EXTRACT: note_on channel=0 note=44 velocity=80 time=0.04253475625
EXTRACT: note_on channel=0 note=75 velocity=0 time=0.38454891874999997
EXTRACT: note_on channel=0 note=44 velocity=0 time=0.40625032499999997
EXTRACT: note_on channel=0 note=70 velocity=80 time=0.04253475625
EXTRACT: note_on channel=0 note=30 velocity=80 time=0
EXTRACT: note_on channel=0 note=70 velocity=0 time=0.19704876875
EXTRACT: note_on channel=0 note=72 velocity=80 time=0.011284731249999999
EXTRACT: note_on channel=0 note=72 velocity=0 time=0.39496559374999995
EXTRACT: note_on channel=0 note=73 velocity=80 time=0.02170140625
EXTRACT: note_on channel=0 note=30 velocity=0 time=0.16579874374999998
EXTRACT: note_on channel=0 note=42 velocity=80 time=0.04253475625
EXTRACT: note_on channel=0 note=73 velocity=0 time=0.18663209374999998
EXTRACT: note_on channel=0 note=80 velocity=80 time=0.02170140625
EXTRACT: note_on channel=0 note=80 velocity=0 time=0.39496559374999995
EXTRACT: note_on channel=0 note=77 velocity=80 time=0.02170140625
EXTRACT: note_on channel=0 note=42 velocity=0 time=0.16579874374999998
EXTRACT: note_on channel=0 note=37 velocity=80 time=0.04253475625
EXTRACT: note_on channel=0 note=77 velocity=0 time=0.5824657437499999
EXTRACT: note_on channel=0 note=75 velocity=80 time=0.04253475625
EXTRACT: note_on channel=0 note=37 velocity=0 time=0.16579874374999998
EXTRACT: note_on channel=0 note=49 velocity=80 time=0.04253475625
EXTRACT: note_on channel=0 note=75 velocity=0 time=0.38454891874999997
EXTRACT: note_on channel=0 note=70 velocity=80 time=0.24045158125
EXTRACT: note_on channel=0 note=49 velocity=0 time=0.16579874374999998
EXTRACT: note_on channel=0 note=70 velocity=0 time=0.031250025
EXTRACT: note_on channel=0 note=77 velocity=80 time=0.011284731249999999
EXTRACT: note_on channel=0 note=34 velocity=80 time=0
EXTRACT: note_on channel=0 note=77 velocity=0 time=0.19704876875
EXTRACT: note_on channel=0 note=80 velocity=80 time=0.011284731249999999
EXTRACT: note_on channel=0 note=80 velocity=0 time=0.19704876875
EXTRACT: note_on channel=0 note=77 velocity=80 time=0.011284731249999999
EXTRACT: note_on channel=0 note=77 velocity=0 time=0.19704876875
EXTRACT: note_on channel=0 note=75 velocity=80 time=0.011284731249999999
EXTRACT: note_on channel=0 note=34 velocity=0 time=0.16579874374999998
EXTRACT: note_on channel=0 note=75 velocity=0 time=0.031250025
EXTRACT: note_on channel=0 note=77 velocity=80 time=0.011284731249999999
EXTRACT: note_on channel=0 note=46 velocity=80 time=0
EXTRACT: note_on channel=0 note=77 velocity=0 time=0.19704876875
EXTRACT: note_on channel=0 note=75 velocity=80 time=0.011284731249999999
EXTRACT: note_on channel=0 note=75 velocity=0 time=0.19704876875
EXTRACT: note_on channel=0 note=75 velocity=80 time=0.011284731249999999
EXTRACT: note_on channel=0 note=46 velocity=0 time=0.37413224375
EXTRACT: note_on channel=0 note=75 velocity=0 time=0.02083335
EXTRACT: note_on channel=0 note=32 velocity=80 time=0.02170140625
EXTRACT: note_on channel=0 note=73 velocity=80 time=0.6250005
EXTRACT: note_on channel=0 note=32 velocity=0 time=0.16579874374999998
EXTRACT: note_on channel=0 note=73 velocity=0 time=0.031250025
EXTRACT: note_on channel=0 note=75 velocity=80 time=0.011284731249999999
EXTRACT: note_on channel=0 note=44 velocity=80 time=0
EXTRACT: note_on channel=0 note=75 velocity=0 time=0.39496559374999995
EXTRACT: note_on channel=0 note=73 velocity=80 time=0.02170140625
EXTRACT: note_on channel=0 note=44 velocity=0 time=0.37413224375
EXTRACT: note_on channel=0 note=73 velocity=0 time=0.02083335
EXTRACT: note_on channel=0 note=77 velocity=80 time=0.02170140625
EXTRACT: note_on channel=0 note=37 velocity=80 time=0
EXTRACT: note_on channel=0 note=77 velocity=0 time=0.19704876875
EXTRACT: note_on channel=0 note=80 velocity=80 time=0.011284731249999999
EXTRACT: note_on channel=0 note=80 velocity=0 time=0.19704876875
EXTRACT: note_on channel=0 note=77 velocity=80 time=0.011284731249999999
EXTRACT: note_on channel=0 note=77 velocity=0 time=0.19704876875
EXTRACT: note_on channel=0 note=75 velocity=80 time=0.011284731249999999
EXTRACT: note_on channel=0 note=37 velocity=0 time=0.16579874374999998
EXTRACT: note_on channel=0 note=75 velocity=0 time=0.031250025
EXTRACT: note_on channel=0 note=77 velocity=80 time=0.011284731249999999
EXTRACT: note_on channel=0 note=49 velocity=80 time=0
EXTRACT: note_on channel=0 note=77 velocity=0 time=0.19704876875
EXTRACT: note_on channel=0 note=75 velocity=80 time=0.011284731249999999
EXTRACT: note_on channel=0 note=75 velocity=0 time=0.19704876875
EXTRACT: note_on channel=0 note=75 velocity=80 time=0.011284731249999999
EXTRACT: note_on channel=0 note=49 velocity=0 time=0.37413224375
EXTRACT: note_on channel=0 note=75 velocity=0 time=0.02083335
EXTRACT: note_on channel=0 note=30 velocity=80 time=0.02170140625
EXTRACT: note_on channel=0 note=77 velocity=80 time=0.6250005
EXTRACT: note_on channel=0 note=30 velocity=0 time=0.16579874374999998
EXTRACT: note_on channel=0 note=77 velocity=0 time=0.031250025
EXTRACT: note_on channel=0 note=75 velocity=80 time=0.011284731249999999
EXTRACT: note_on channel=0 note=42 velocity=80 time=0
EXTRACT: note_on channel=0 note=75 velocity=0 time=0.39496559374999995
EXTRACT: note_on channel=0 note=73 velocity=80 time=0.02170140625
EXTRACT: note_on channel=0 note=42 velocity=0 time=0.37413224375
EXTRACT: note_on channel=0 note=73 velocity=0 time=0.02083335
EXTRACT: note_on channel=0 note=70 velocity=80 time=0.02170140625
EXTRACT: note_on channel=0 note=34 velocity=80 time=0
EXTRACT: note_on channel=0 note=70 velocity=0 time=0.19704876875
EXTRACT: note_on channel=0 note=72 velocity=80 time=0.011284731249999999
EXTRACT: note_on channel=0 note=72 velocity=0 time=0.39496559374999995
EXTRACT: note_on channel=0 note=73 velocity=80 time=0.02170140625
EXTRACT: note_on channel=0 note=34 velocity=0 time=0.16579874374999998
EXTRACT: note_on channel=0 note=46 velocity=80 time=0.04253475625
EXTRACT: note_on channel=0 note=73 velocity=0 time=0.18663209374999998
EXTRACT: note_on channel=0 note=80 velocity=80 time=0.02170140625
EXTRACT: note_on channel=0 note=80 velocity=0 time=0.39496559374999995
EXTRACT: note_on channel=0 note=77 velocity=80 time=0.02170140625
EXTRACT: note_on channel=0 note=46 velocity=0 time=0.16579874374999998
EXTRACT: note_on channel=0 note=32 velocity=80 time=0.04253475625
EXTRACT: note_on channel=0 note=77 velocity=0 time=0.5824657437499999
EXTRACT: note_on channel=0 note=75 velocity=80 time=0.04253475625
EXTRACT: note_on channel=0 note=32 velocity=0 time=0.16579874374999998
EXTRACT: note_on channel=0 note=44 velocity=80 time=0.04253475625
EXTRACT: note_on channel=0 note=75 velocity=0 time=0.38454891874999997
EXTRACT: note_on channel=0 note=44 velocity=0 time=0.40625032499999997
EXTRACT: note_on channel=0 note=70 velocity=80 time=0.04253475625
EXTRACT: note_on channel=0 note=30 velocity=80 time=0
EXTRACT: note_on channel=0 note=70 velocity=0 time=0.19704876875
EXTRACT: note_on channel=0 note=72 velocity=80 time=0.011284731249999999
EXTRACT: note_on channel=0 note=72 velocity=0 time=0.39496559374999995
EXTRACT: note_on channel=0 note=73 velocity=80 time=0.02170140625
EXTRACT: note_on channel=0 note=30 velocity=0 time=0.16579874374999998
EXTRACT: note_on channel=0 note=42 velocity=80 time=0.04253475625
EXTRACT: note_on channel=0 note=73 velocity=0 time=0.18663209374999998
EXTRACT: note_on channel=0 note=80 velocity=80 time=0.02170140625
EXTRACT: note_on channel=0 note=80 velocity=0 time=0.39496559374999995
EXTRACT: note_on channel=0 note=77 velocity=80 time=0.02170140625
EXTRACT: note_on channel=0 note=42 velocity=0 time=0.16579874374999998
EXTRACT: note_on channel=0 note=37 velocity=80 time=0.04253475625
EXTRACT: note_on channel=0 note=77 velocity=0 time=0.5824657437499999
EXTRACT: note_on channel=0 note=75 velocity=80 time=0.04253475625
EXTRACT: note_on channel=0 note=37 velocity=0 time=0.16579874374999998
EXTRACT: note_on channel=0 note=49 velocity=80 time=0.04253475625
EXTRACT: note_on channel=0 note=75 velocity=0 time=0.38454891874999997
EXTRACT: note_on channel=0 note=49 velocity=0 time=0.40625032499999997
EXTRACT: note_on channel=0 note=46 velocity=80 time=0.04253475625
EXTRACT: note_on channel=0 note=46 velocity=0 time=0.19704876875
EXTRACT: note_on channel=0 note=46 velocity=80 time=0.011284731249999999
EXTRACT: note_on channel=0 note=46 velocity=0 time=0.19704876875
EXTRACT: note_on channel=0 note=58 velocity=80 time=0.011284731249999999
EXTRACT: note_on channel=0 note=61 velocity=80 time=0
EXTRACT: note_on channel=0 note=65 velocity=80 time=0
EXTRACT: note_on channel=0 note=58 velocity=0 time=0.19704876875
EXTRACT: note_on channel=0 note=61 velocity=0 time=0
EXTRACT: note_on channel=0 note=65 velocity=0 time=0
EXTRACT: note_on channel=0 note=46 velocity=80 time=0.011284731249999999
EXTRACT: note_on channel=0 note=46 velocity=0 time=0.19704876875
EXTRACT: note_on channel=0 note=46 velocity=80 time=0.011284731249999999
EXTRACT: note_on channel=0 note=46 velocity=0 time=0.19704876875
EXTRACT: note_on channel=0 note=46 velocity=80 time=0.011284731249999999
EXTRACT: note_on channel=0 note=46 velocity=0 time=0.19704876875
EXTRACT: note_on channel=0 note=58 velocity=80 time=0.011284731249999999
EXTRACT: note_on channel=0 note=61 velocity=80 time=0
EXTRACT: note_on channel=0 note=65 velocity=80 time=0
EXTRACT: note_on channel=0 note=58 velocity=0 time=0.19704876875
EXTRACT: note_on channel=0 note=61 velocity=0 time=0
EXTRACT: note_on channel=0 note=65 velocity=0 time=0
EXTRACT: note_on channel=0 note=44 velocity=80 time=0.011284731249999999
EXTRACT: note_on channel=0 note=44 velocity=0 time=0.19704876875
EXTRACT: note_on channel=0 note=44 velocity=80 time=0.011284731249999999
EXTRACT: note_on channel=0 note=44 velocity=0 time=0.19704876875
EXTRACT: note_on channel=0 note=44 velocity=80 time=0.011284731249999999
EXTRACT: note_on channel=0 note=44 velocity=0 time=0.19704876875
EXTRACT: note_on channel=0 note=56 velocity=80 time=0.011284731249999999
EXTRACT: note_on channel=0 note=60 velocity=80 time=0
EXTRACT: note_on channel=0 note=63 velocity=80 time=0
EXTRACT: note_on channel=0 note=56 velocity=0 time=0.19704876875
EXTRACT: note_on channel=0 note=60 velocity=0 time=0
EXTRACT: note_on channel=0 note=63 velocity=0 time=0
EXTRACT: note_on channel=0 note=44 velocity=80 time=0.011284731249999999
EXTRACT: note_on channel=0 note=44 velocity=0 time=0.19704876875
EXTRACT: note_on channel=0 note=44 velocity=80 time=0.011284731249999999
EXTRACT: note_on channel=0 note=44 velocity=0 time=0.19704876875
EXTRACT: note_on channel=0 note=44 velocity=80 time=0.011284731249999999
EXTRACT: note_on channel=0 note=44 velocity=0 time=0.19704876875
EXTRACT: note_on channel=0 note=56 velocity=80 time=0.011284731249999999
EXTRACT: note_on channel=0 note=60 velocity=80 time=0
EXTRACT: note_on channel=0 note=63 velocity=80 time=0
EXTRACT: note_on channel=0 note=56 velocity=0 time=0.19704876875
EXTRACT: note_on channel=0 note=60 velocity=0 time=0
EXTRACT: note_on channel=0 note=63 velocity=0 time=0
EXTRACT: note_on channel=0 note=49 velocity=80 time=0.011284731249999999
EXTRACT: note_on channel=0 note=49 velocity=0 time=0.19704876875
EXTRACT: note_on channel=0 note=49 velocity=80 time=0.011284731249999999
EXTRACT: note_on channel=0 note=49 velocity=0 time=0.19704876875
EXTRACT: note_on channel=0 note=49 velocity=80 time=0.011284731249999999
EXTRACT: note_on channel=0 note=49 velocity=0 time=0.19704876875
EXTRACT: note_on channel=0 note=56 velocity=80 time=0.011284731249999999
EXTRACT: note_on channel=0 note=61 velocity=80 time=0
EXTRACT: note_on channel=0 note=65 velocity=80 time=0
EXTRACT: note_on channel=0 note=56 velocity=0 time=0.19704876875
EXTRACT: note_on channel=0 note=61 velocity=0 time=0
EXTRACT: note_on channel=0 note=65 velocity=0 time=0
EXTRACT: note_on channel=0 note=49 velocity=80 time=0.011284731249999999
EXTRACT: note_on channel=0 note=49 velocity=0 time=0.19704876875
EXTRACT: note_on channel=0 note=49 velocity=80 time=0.011284731249999999
EXTRACT: note_on channel=0 note=49 velocity=0 time=0.19704876875
EXTRACT: note_on channel=0 note=49 velocity=80 time=0.011284731249999999
EXTRACT: note_on channel=0 note=49 velocity=0 time=0.19704876875
EXTRACT: note_on channel=0 note=56 velocity=80 time=0.011284731249999999
EXTRACT: note_on channel=0 note=61 velocity=80 time=0
EXTRACT: note_on channel=0 note=65 velocity=80 time=0
EXTRACT: note_on channel=0 note=56 velocity=0 time=0.19704876875
EXTRACT: note_on channel=0 note=61 velocity=0 time=0
EXTRACT: note_on channel=0 note=65 velocity=0 time=0
EXTRACT: note_on channel=0 note=42 velocity=80 time=0.011284731249999999
EXTRACT: note_on channel=0 note=42 velocity=0 time=0.19704876875
EXTRACT: note_on channel=0 note=42 velocity=80 time=0.011284731249999999
EXTRACT: note_on channel=0 note=42 velocity=0 time=0.19704876875
EXTRACT: note_on channel=0 note=42 velocity=80 time=0.011284731249999999
EXTRACT: note_on channel=0 note=42 velocity=0 time=0.19704876875
EXTRACT: note_on channel=0 note=58 velocity=80 time=0.011284731249999999
EXTRACT: note_on channel=0 note=61 velocity=80 time=0
EXTRACT: note_on channel=0 note=66 velocity=80 time=0
EXTRACT: note_on channel=0 note=58 velocity=0 time=0.19704876875
EXTRACT: note_on channel=0 note=61 velocity=0 time=0
EXTRACT: note_on channel=0 note=66 velocity=0 time=0
EXTRACT: note_on channel=0 note=42 velocity=80 time=0.011284731249999999
EXTRACT: note_on channel=0 note=42 velocity=0 time=0.19704876875
EXTRACT: note_on channel=0 note=42 velocity=80 time=0.011284731249999999
EXTRACT: note_on channel=0 note=42 velocity=0 time=0.19704876875
EXTRACT: note_on channel=0 note=42 velocity=80 time=0.011284731249999999
EXTRACT: note_on channel=0 note=42 velocity=0 time=0.19704876875
EXTRACT: note_on channel=0 note=58 velocity=80 time=0.011284731249999999
EXTRACT: note_on channel=0 note=61 velocity=80 time=0
EXTRACT: note_on channel=0 note=66 velocity=80 time=0
EXTRACT: note_on channel=0 note=58 velocity=0 time=0.19704876875
EXTRACT: note_on channel=0 note=61 velocity=0 time=0
EXTRACT: note_on channel=0 note=66 velocity=0 time=0
EXTRACT: note_on channel=0 note=42 velocity=80 time=0.011284731249999999
EXTRACT: note_on channel=0 note=42 velocity=0 time=0.19704876875
EXTRACT: note_on channel=0 note=63 velocity=80 time=0.011284731249999999
EXTRACT: note_on channel=0 note=46 velocity=80 time=0
EXTRACT: note_on channel=0 note=63 velocity=0 time=0.19704876875
EXTRACT: note_on channel=0 note=46 velocity=0 time=0
EXTRACT: note_on channel=0 note=65 velocity=80 time=0.011284731249999999
EXTRACT: note_on channel=0 note=46 velocity=80 time=0
EXTRACT: note_on channel=0 note=65 velocity=0 time=0.19704876875
EXTRACT: note_on channel=0 note=46 velocity=0 time=0
EXTRACT: note_on channel=0 note=65 velocity=80 time=0.011284731249999999
EXTRACT: note_on channel=0 note=65 velocity=0 time=0.19704876875
EXTRACT: note_on channel=0 note=65 velocity=80 time=0.011284731249999999
EXTRACT: note_on channel=0 note=46 velocity=80 time=0
EXTRACT: note_on channel=0 note=65 velocity=0 time=0.19704876875
EXTRACT: note_on channel=0 note=46 velocity=0 time=0
EXTRACT: note_on channel=0 note=65 velocity=80 time=0.011284731249999999
EXTRACT: note_on channel=0 note=46 velocity=80 time=0
EXTRACT: note_on channel=0 note=46 velocity=0 time=0.19704876875
EXTRACT: note_on channel=0 note=46 velocity=80 time=0.011284731249999999
EXTRACT: note_on channel=0 note=65 velocity=0 time=0.18663209374999998
EXTRACT: note_on channel=0 note=46 velocity=0 time=0.010416675
EXTRACT: note_on channel=0 note=61 velocity=80 time=0.011284731249999999
EXTRACT: note_on channel=0 note=61 velocity=0 time=0.19704876875
EXTRACT: note_on channel=0 note=63 velocity=80 time=0.011284731249999999
EXTRACT: note_on channel=0 note=44 velocity=80 time=0
EXTRACT: note_on channel=0 note=63 velocity=0 time=0.19704876875
EXTRACT: note_on channel=0 note=44 velocity=0 time=0
EXTRACT: note_on channel=0 note=63 velocity=80 time=0.011284731249999999
EXTRACT: note_on channel=0 note=44 velocity=80 time=0
EXTRACT: note_on channel=0 note=63 velocity=0 time=0.19704876875
EXTRACT: note_on channel=0 note=44 velocity=0 time=0
EXTRACT: note_on channel=0 note=65 velocity=80 time=0.011284731249999999
EXTRACT: note_on channel=0 note=44 velocity=80 time=0
EXTRACT: note_on channel=0 note=65 velocity=0 time=0.19704876875
EXTRACT: note_on channel=0 note=44 velocity=0 time=0
EXTRACT: note_on channel=0 note=65 velocity=80 time=0.011284731249999999
EXTRACT: note_on channel=0 note=65 velocity=0 time=0.19704876875
EXTRACT: note_on channel=0 note=65 velocity=80 time=0.011284731249999999
EXTRACT: note_on channel=0 note=44 velocity=80 time=0
EXTRACT: note_on channel=0 note=65 velocity=0 time=0.19704876875
EXTRACT: note_on channel=0 note=44 velocity=0 time=0
EXTRACT: note_on channel=0 note=65 velocity=80 time=0.011284731249999999
EXTRACT: note_on channel=0 note=44 velocity=80 time=0
EXTRACT: note_on channel=0 note=44 velocity=0 time=0.19704876875
EXTRACT: note_on channel=0 note=44 velocity=80 time=0.011284731249999999
EXTRACT: note_on channel=0 note=65 velocity=0 time=0.18663209374999998
EXTRACT: note_on channel=0 note=44 velocity=0 time=0.010416675
EXTRACT: note_on channel=0 note=63 velocity=80 time=0.011284731249999999
EXTRACT: note_on channel=0 note=49 velocity=80 time=0.20833349999999998
EXTRACT: note_on channel=0 note=63 velocity=0 time=0.18663209374999998
EXTRACT: note_on channel=0 note=49 velocity=0 time=0.010416675
EXTRACT: note_on channel=0 note=63 velocity=80 time=0.011284731249999999
EXTRACT: note_on channel=0 note=49 velocity=80 time=0
EXTRACT: note_on channel=0 note=63 velocity=0 time=0.19704876875
EXTRACT: note_on channel=0 note=49 velocity=0 time=0
EXTRACT: note_on channel=0 note=65 velocity=80 time=0.011284731249999999
EXTRACT: note_on channel=0 note=49 velocity=80 time=0
EXTRACT: note_on channel=0 note=65 velocity=0 time=0.19704876875
EXTRACT: note_on channel=0 note=49 velocity=0 time=0
EXTRACT: note_on channel=0 note=65 velocity=80 time=0.011284731249999999
EXTRACT: note_on channel=0 note=65 velocity=0 time=0.19704876875
EXTRACT: note_on channel=0 note=65 velocity=80 time=0.011284731249999999
EXTRACT: note_on channel=0 note=49 velocity=80 time=0
EXTRACT: note_on channel=0 note=65 velocity=0 time=0.19704876875
EXTRACT: note_on channel=0 note=49 velocity=0 time=0
EXTRACT: note_on channel=0 note=65 velocity=80 time=0.011284731249999999
EXTRACT: note_on channel=0 note=49 velocity=80 time=0
EXTRACT: note_on channel=0 note=49 velocity=0 time=0.19704876875
EXTRACT: note_on channel=0 note=49 velocity=80 time=0.011284731249999999
EXTRACT: note_on channel=0 note=65 velocity=0 time=0.18663209374999998
EXTRACT: note_on channel=0 note=49 velocity=0 time=0.010416675
EXTRACT: note_on channel=0 note=61 velocity=80 time=0.011284731249999999
EXTRACT: note_on channel=0 note=61 velocity=0 time=0.19704876875
EXTRACT: note_on channel=0 note=63 velocity=80 time=0.011284731249999999
EXTRACT: note_on channel=0 note=42 velocity=80 time=0
EXTRACT: note_on channel=0 note=63 velocity=0 time=0.19704876875
EXTRACT: note_on channel=0 note=42 velocity=0 time=0
EXTRACT: note_on channel=0 note=65 velocity=80 time=0.011284731249999999
EXTRACT: note_on channel=0 note=42 velocity=80 time=0
EXTRACT: note_on channel=0 note=42 velocity=0 time=0.19704876875
EXTRACT: note_on channel=0 note=42 velocity=80 time=0.011284731249999999
EXTRACT: note_on channel=0 note=65 velocity=0 time=0.18663209374999998
EXTRACT: note_on channel=0 note=42 velocity=0 time=0.010416675
EXTRACT: note_on channel=0 note=65 velocity=80 time=0.011284731249999999
EXTRACT: note_on channel=0 note=42 velocity=80 time=0.20833349999999998
EXTRACT: note_on channel=0 note=65 velocity=0 time=0.18663209374999998
EXTRACT: note_on channel=0 note=42 velocity=0 time=0.010416675
EXTRACT: note_on channel=0 note=63 velocity=80 time=0.011284731249999999
EXTRACT: note_on channel=0 note=42 velocity=80 time=0
EXTRACT: note_on channel=0 note=42 velocity=0 time=0.19704876875
EXTRACT: note_on channel=0 note=42 velocity=80 time=0.011284731249999999
EXTRACT: note_on channel=0 note=63 velocity=0 time=0.18663209374999998
EXTRACT: note_on channel=0 note=42 velocity=0 time=0.010416675
EXTRACT: note_on channel=0 note=42 velocity=80 time=0.21961823125
EXTRACT: note_on channel=0 note=42 velocity=0 time=0.19704876875
EXTRACT: note_on channel=0 note=63 velocity=80 time=0.011284731249999999
EXTRACT: note_on channel=0 note=46 velocity=80 time=0
EXTRACT: note_on channel=0 note=63 velocity=0 time=0.19704876875
EXTRACT: note_on channel=0 note=46 velocity=0 time=0
EXTRACT: note_on channel=0 note=65 velocity=80 time=0.011284731249999999
EXTRACT: note_on channel=0 note=46 velocity=80 time=0
EXTRACT: note_on channel=0 note=65 velocity=0 time=0.19704876875
EXTRACT: note_on channel=0 note=46 velocity=0 time=0
EXTRACT: note_on channel=0 note=65 velocity=80 time=0.011284731249999999
EXTRACT: note_on channel=0 note=65 velocity=0 time=0.19704876875
EXTRACT: note_on channel=0 note=65 velocity=80 time=0.011284731249999999
EXTRACT: note_on channel=0 note=46 velocity=80 time=0
EXTRACT: note_on channel=0 note=65 velocity=0 time=0.19704876875
EXTRACT: note_on channel=0 note=46 velocity=0 time=0
EXTRACT: note_on channel=0 note=65 velocity=80 time=0.011284731249999999
EXTRACT: note_on channel=0 note=46 velocity=80 time=0
EXTRACT: note_on channel=0 note=46 velocity=0 time=0.19704876875
EXTRACT: note_on channel=0 note=46 velocity=80 time=0.011284731249999999
EXTRACT: note_on channel=0 note=65 velocity=0 time=0.18663209374999998
EXTRACT: note_on channel=0 note=46 velocity=0 time=0.010416675
EXTRACT: note_on channel=0 note=61 velocity=80 time=0.011284731249999999
EXTRACT: note_on channel=0 note=61 velocity=0 time=0.19704876875
EXTRACT: note_on channel=0 note=63 velocity=80 time=0.011284731249999999
EXTRACT: note_on channel=0 note=44 velocity=80 time=0
EXTRACT: note_on channel=0 note=63 velocity=0 time=0.19704876875
EXTRACT: note_on channel=0 note=44 velocity=0 time=0
EXTRACT: note_on channel=0 note=63 velocity=80 time=0.011284731249999999
EXTRACT: note_on channel=0 note=44 velocity=80 time=0
EXTRACT: note_on channel=0 note=63 velocity=0 time=0.19704876875
EXTRACT: note_on channel=0 note=44 velocity=0 time=0
EXTRACT: note_on channel=0 note=65 velocity=80 time=0.011284731249999999
EXTRACT: note_on channel=0 note=44 velocity=80 time=0
EXTRACT: note_on channel=0 note=65 velocity=0 time=0.19704876875
EXTRACT: note_on channel=0 note=44 velocity=0 time=0
EXTRACT: note_on channel=0 note=65 velocity=80 time=0.011284731249999999
EXTRACT: note_on channel=0 note=65 velocity=0 time=0.19704876875
EXTRACT: note_on channel=0 note=65 velocity=80 time=0.011284731249999999
EXTRACT: note_on channel=0 note=44 velocity=80 time=0
EXTRACT: note_on channel=0 note=65 velocity=0 time=0.19704876875
EXTRACT: note_on channel=0 note=44 velocity=0 time=0
EXTRACT: note_on channel=0 note=65 velocity=80 time=0.011284731249999999
EXTRACT: note_on channel=0 note=44 velocity=80 time=0
EXTRACT: note_on channel=0 note=44 velocity=0 time=0.19704876875
EXTRACT: note_on channel=0 note=44 velocity=80 time=0.011284731249999999
EXTRACT: note_on channel=0 note=65 velocity=0 time=0.18663209374999998
EXTRACT: note_on channel=0 note=44 velocity=0 time=0.010416675
EXTRACT: note_on channel=0 note=63 velocity=80 time=0.011284731249999999
EXTRACT: note_on channel=0 note=49 velocity=80 time=0.20833349999999998
EXTRACT: note_on channel=0 note=63 velocity=0 time=0.18663209374999998
EXTRACT: note_on channel=0 note=49 velocity=0 time=0.010416675
EXTRACT: note_on channel=0 note=63 velocity=80 time=0.011284731249999999
EXTRACT: note_on channel=0 note=49 velocity=80 time=0
EXTRACT: note_on channel=0 note=63 velocity=0 time=0.19704876875
EXTRACT: note_on channel=0 note=49 velocity=0 time=0
EXTRACT: note_on channel=0 note=65 velocity=80 time=0.011284731249999999
EXTRACT: note_on channel=0 note=49 velocity=80 time=0
EXTRACT: note_on channel=0 note=65 velocity=0 time=0.19704876875
EXTRACT: note_on channel=0 note=49 velocity=0 time=0
EXTRACT: note_on channel=0 note=65 velocity=80 time=0.011284731249999999
EXTRACT: note_on channel=0 note=65 velocity=0 time=0.19704876875
EXTRACT: note_on channel=0 note=65 velocity=80 time=0.011284731249999999
EXTRACT: note_on channel=0 note=49 velocity=80 time=0
EXTRACT: note_on channel=0 note=65 velocity=0 time=0.19704876875
EXTRACT: note_on channel=0 note=49 velocity=0 time=0
EXTRACT: note_on channel=0 note=65 velocity=80 time=0.011284731249999999
EXTRACT: note_on channel=0 note=49 velocity=80 time=0
EXTRACT: note_on channel=0 note=49 velocity=0 time=0.19704876875
EXTRACT: note_on channel=0 note=49 velocity=80 time=0.011284731249999999
EXTRACT: note_on channel=0 note=65 velocity=0 time=0.18663209374999998
EXTRACT: note_on channel=0 note=49 velocity=0 time=0.010416675
EXTRACT: note_on channel=0 note=61 velocity=80 time=0.011284731249999999
EXTRACT: note_on channel=0 note=61 velocity=0 time=0.19704876875
EXTRACT: note_on channel=0 note=63 velocity=80 time=0.011284731249999999
EXTRACT: note_on channel=0 note=42 velocity=80 time=0
EXTRACT: note_on channel=0 note=63 velocity=0 time=0.19704876875
EXTRACT: note_on channel=0 note=42 velocity=0 time=0
EXTRACT: note_on channel=0 note=65 velocity=80 time=0.011284731249999999
EXTRACT: note_on channel=0 note=42 velocity=80 time=0
EXTRACT: note_on channel=0 note=42 velocity=0 time=0.19704876875
EXTRACT: note_on channel=0 note=42 velocity=80 time=0.011284731249999999
EXTRACT: note_on channel=0 note=65 velocity=0 time=0.18663209374999998
EXTRACT: note_on channel=0 note=42 velocity=0 time=0.010416675
EXTRACT: note_on channel=0 note=65 velocity=80 time=0.011284731249999999
EXTRACT: note_on channel=0 note=42 velocity=80 time=0.20833349999999998
EXTRACT: note_on channel=0 note=65 velocity=0 time=0.18663209374999998
EXTRACT: note_on channel=0 note=42 velocity=0 time=0.010416675
EXTRACT: note_on channel=0 note=63 velocity=80 time=0.011284731249999999
EXTRACT: note_on channel=0 note=42 velocity=80 time=0
EXTRACT: note_on channel=0 note=42 velocity=0 time=0.19704876875
EXTRACT: note_on channel=0 note=42 velocity=80 time=0.011284731249999999
EXTRACT: note_on channel=0 note=63 velocity=0 time=0.18663209374999998
EXTRACT: note_on channel=0 note=42 velocity=0 time=0.010416675
EXTRACT: note_on channel=0 note=42 velocity=80 time=0.21961823125
EXTRACT: note_on channel=0 note=42 velocity=0 time=0.19704876875
EXTRACT: note_on channel=0 note=75 velocity=80 time=0.011284731249999999
EXTRACT: note_on channel=0 note=46 velocity=80 time=0
EXTRACT: note_on channel=0 note=75 velocity=0 time=0.19704876875
EXTRACT: note_on channel=0 note=46 velocity=0 time=0
EXTRACT: note_on channel=0 note=77 velocity=80 time=0.011284731249999999
EXTRACT: note_on channel=0 note=46 velocity=80 time=0
EXTRACT: note_on channel=0 note=77 velocity=0 time=0.19704876875
EXTRACT: note_on channel=0 note=46 velocity=0 time=0
EXTRACT: note_on channel=0 note=77 velocity=80 time=0.011284731249999999
EXTRACT: note_on channel=0 note=77 velocity=0 time=0.19704876875
EXTRACT: note_on channel=0 note=77 velocity=80 time=0.011284731249999999
EXTRACT: note_on channel=0 note=46 velocity=80 time=0
EXTRACT: note_on channel=0 note=77 velocity=0 time=0.19704876875
EXTRACT: note_on channel=0 note=46 velocity=0 time=0
EXTRACT: note_on channel=0 note=77 velocity=80 time=0.011284731249999999
EXTRACT: note_on channel=0 note=46 velocity=80 time=0
EXTRACT: note_on channel=0 note=46 velocity=0 time=0.19704876875
EXTRACT: note_on channel=0 note=46 velocity=80 time=0.011284731249999999
EXTRACT: note_on channel=0 note=77 velocity=0 time=0.18663209374999998
EXTRACT: note_on channel=0 note=46 velocity=0 time=0.010416675
EXTRACT: note_on channel=0 note=73 velocity=80 time=0.011284731249999999
EXTRACT: note_on channel=0 note=73 velocity=0 time=0.19704876875
EXTRACT: note_on channel=0 note=75 velocity=80 time=0.011284731249999999
EXTRACT: note_on channel=0 note=44 velocity=80 time=0
EXTRACT: note_on channel=0 note=75 velocity=0 time=0.19704876875
EXTRACT: note_on channel=0 note=44 velocity=0 time=0
EXTRACT: note_on channel=0 note=75 velocity=80 time=0.011284731249999999
EXTRACT: note_on channel=0 note=44 velocity=80 time=0
EXTRACT: note_on channel=0 note=75 velocity=0 time=0.19704876875
EXTRACT: note_on channel=0 note=44 velocity=0 time=0
EXTRACT: note_on channel=0 note=77 velocity=80 time=0.011284731249999999
EXTRACT: note_on channel=0 note=44 velocity=80 time=0
EXTRACT: note_on channel=0 note=77 velocity=0 time=0.19704876875
EXTRACT: note_on channel=0 note=44 velocity=0 time=0
EXTRACT: note_on channel=0 note=77 velocity=80 time=0.011284731249999999
EXTRACT: note_on channel=0 note=77 velocity=0 time=0.19704876875
EXTRACT: note_on channel=0 note=77 velocity=80 time=0.011284731249999999
EXTRACT: note_on channel=0 note=44 velocity=80 time=0
EXTRACT: note_on channel=0 note=77 velocity=0 time=0.19704876875
EXTRACT: note_on channel=0 note=44 velocity=0 time=0
EXTRACT: note_on channel=0 note=77 velocity=80 time=0.011284731249999999
EXTRACT: note_on channel=0 note=44 velocity=80 time=0
EXTRACT: note_on channel=0 note=44 velocity=0 time=0.19704876875
EXTRACT: note_on channel=0 note=44 velocity=80 time=0.011284731249999999
EXTRACT: note_on channel=0 note=77 velocity=0 time=0.18663209374999998
EXTRACT: note_on channel=0 note=44 velocity=0 time=0.010416675
EXTRACT: note_on channel=0 note=75 velocity=80 time=0.011284731249999999
EXTRACT: note_on channel=0 note=49 velocity=80 time=0.20833349999999998
EXTRACT: note_on channel=0 note=75 velocity=0 time=0.18663209374999998
EXTRACT: note_on channel=0 note=49 velocity=0 time=0.010416675
EXTRACT: note_on channel=0 note=75 velocity=80 time=0.011284731249999999
EXTRACT: note_on channel=0 note=49 velocity=80 time=0
EXTRACT: note_on channel=0 note=75 velocity=0 time=0.19704876875
EXTRACT: note_on channel=0 note=49 velocity=0 time=0
EXTRACT: note_on channel=0 note=77 velocity=80 time=0.011284731249999999
EXTRACT: note_on channel=0 note=49 velocity=80 time=0
EXTRACT: note_on channel=0 note=77 velocity=0 time=0.19704876875
EXTRACT: note_on channel=0 note=49 velocity=0 time=0
EXTRACT: note_on channel=0 note=77 velocity=80 time=0.011284731249999999
EXTRACT: note_on channel=0 note=77 velocity=0 time=0.19704876875
EXTRACT: note_on channel=0 note=77 velocity=80 time=0.011284731249999999
EXTRACT: note_on channel=0 note=49 velocity=80 time=0
EXTRACT: note_on channel=0 note=77 velocity=0 time=0.19704876875
EXTRACT: note_on channel=0 note=49 velocity=0 time=0
EXTRACT: note_on channel=0 note=77 velocity=80 time=0.011284731249999999
EXTRACT: note_on channel=0 note=49 velocity=80 time=0
EXTRACT: note_on channel=0 note=49 velocity=0 time=0.19704876875
EXTRACT: note_on channel=0 note=49 velocity=80 time=0.011284731249999999
EXTRACT: note_on channel=0 note=77 velocity=0 time=0.18663209374999998
EXTRACT: note_on channel=0 note=49 velocity=0 time=0.010416675
EXTRACT: note_on channel=0 note=73 velocity=80 time=0.011284731249999999
EXTRACT: note_on channel=0 note=73 velocity=0 time=0.19704876875
EXTRACT: note_on channel=0 note=75 velocity=80 time=0.011284731249999999
EXTRACT: note_on channel=0 note=42 velocity=80 time=0
EXTRACT: note_on channel=0 note=75 velocity=0 time=0.19704876875
EXTRACT: note_on channel=0 note=42 velocity=0 time=0
EXTRACT: note_on channel=0 note=77 velocity=80 time=0.011284731249999999
EXTRACT: note_on channel=0 note=42 velocity=80 time=0
EXTRACT: note_on channel=0 note=42 velocity=0 time=0.19704876875
EXTRACT: note_on channel=0 note=42 velocity=80 time=0.011284731249999999
EXTRACT: note_on channel=0 note=77 velocity=0 time=0.18663209374999998
EXTRACT: note_on channel=0 note=42 velocity=0 time=0.010416675
EXTRACT: note_on channel=0 note=77 velocity=80 time=0.011284731249999999
EXTRACT: note_on channel=0 note=42 velocity=80 time=0.20833349999999998
EXTRACT: note_on channel=0 note=77 velocity=0 time=0.18663209374999998
EXTRACT: note_on channel=0 note=42 velocity=0 time=0.010416675
EXTRACT: note_on channel=0 note=75 velocity=80 time=0.011284731249999999
EXTRACT: note_on channel=0 note=42 velocity=80 time=0
EXTRACT: note_on channel=0 note=42 velocity=0 time=0.19704876875
EXTRACT: note_on channel=0 note=42 velocity=80 time=0.011284731249999999
EXTRACT: note_on channel=0 note=75 velocity=0 time=0.18663209374999998
EXTRACT: note_on channel=0 note=42 velocity=0 time=0.010416675
EXTRACT: note_on channel=0 note=42 velocity=80 time=0.21961823125
EXTRACT: note_on channel=0 note=42 velocity=0 time=0.19704876875
EXTRACT: note_on channel=0 note=75 velocity=80 time=0.011284731249999999
EXTRACT: note_on channel=0 note=46 velocity=80 time=0
EXTRACT: note_on channel=0 note=75 velocity=0 time=0.19704876875
EXTRACT: note_on channel=0 note=46 velocity=0 time=0
EXTRACT: note_on channel=0 note=77 velocity=80 time=0.011284731249999999
EXTRACT: note_on channel=0 note=46 velocity=80 time=0
EXTRACT: note_on channel=0 note=77 velocity=0 time=0.19704876875
EXTRACT: note_on channel=0 note=46 velocity=0 time=0
EXTRACT: note_on channel=0 note=77 velocity=80 time=0.011284731249999999
EXTRACT: note_on channel=0 note=77 velocity=0 time=0.19704876875
EXTRACT: note_on channel=0 note=77 velocity=80 time=0.011284731249999999
EXTRACT: note_on channel=0 note=46 velocity=80 time=0
EXTRACT: note_on channel=0 note=77 velocity=0 time=0.19704876875
EXTRACT: note_on channel=0 note=46 velocity=0 time=0
EXTRACT: note_on channel=0 note=77 velocity=80 time=0.011284731249999999
EXTRACT: note_on channel=0 note=46 velocity=80 time=0
EXTRACT: note_on channel=0 note=46 velocity=0 time=0.19704876875
EXTRACT: note_on channel=0 note=46 velocity=80 time=0.011284731249999999
EXTRACT: note_on channel=0 note=77 velocity=0 time=0.18663209374999998
EXTRACT: note_on channel=0 note=46 velocity=0 time=0.010416675
EXTRACT: note_on channel=0 note=73 velocity=80 time=0.011284731249999999
EXTRACT: note_on channel=0 note=73 velocity=0 time=0.19704876875
EXTRACT: note_on channel=0 note=75 velocity=80 time=0.011284731249999999
EXTRACT: note_on channel=0 note=44 velocity=80 time=0
EXTRACT: note_on channel=0 note=75 velocity=0 time=0.19704876875
EXTRACT: note_on channel=0 note=44 velocity=0 time=0
EXTRACT: note_on channel=0 note=75 velocity=80 time=0.011284731249999999
EXTRACT: note_on channel=0 note=44 velocity=80 time=0
EXTRACT: note_on channel=0 note=75 velocity=0 time=0.19704876875
EXTRACT: note_on channel=0 note=44 velocity=0 time=0
EXTRACT: note_on channel=0 note=77 velocity=80 time=0.011284731249999999
EXTRACT: note_on channel=0 note=44 velocity=80 time=0
EXTRACT: note_on channel=0 note=77 velocity=0 time=0.19704876875
EXTRACT: note_on channel=0 note=44 velocity=0 time=0
EXTRACT: note_on channel=0 note=77 velocity=80 time=0.011284731249999999
EXTRACT: note_on channel=0 note=77 velocity=0 time=0.19704876875
EXTRACT: note_on channel=0 note=77 velocity=80 time=0.011284731249999999
EXTRACT: note_on channel=0 note=44 velocity=80 time=0
EXTRACT: note_on channel=0 note=77 velocity=0 time=0.19704876875
EXTRACT: note_on channel=0 note=44 velocity=0 time=0
EXTRACT: note_on channel=0 note=77 velocity=80 time=0.011284731249999999
EXTRACT: note_on channel=0 note=44 velocity=80 time=0
EXTRACT: note_on channel=0 note=44 velocity=0 time=0.19704876875
EXTRACT: note_on channel=0 note=44 velocity=80 time=0.011284731249999999
EXTRACT: note_on channel=0 note=77 velocity=0 time=0.18663209374999998
EXTRACT: note_on channel=0 note=44 velocity=0 time=0.010416675
EXTRACT: note_on channel=0 note=75 velocity=80 time=0.011284731249999999
EXTRACT: note_on channel=0 note=49 velocity=80 time=0.20833349999999998
EXTRACT: note_on channel=0 note=75 velocity=0 time=0.18663209374999998
EXTRACT: note_on channel=0 note=49 velocity=0 time=0.010416675
EXTRACT: note_on channel=0 note=75 velocity=80 time=0.011284731249999999
EXTRACT: note_on channel=0 note=49 velocity=80 time=0
EXTRACT: note_on channel=0 note=75 velocity=0 time=0.19704876875
EXTRACT: note_on channel=0 note=49 velocity=0 time=0
EXTRACT: note_on channel=0 note=77 velocity=80 time=0.011284731249999999
EXTRACT: note_on channel=0 note=49 velocity=80 time=0
EXTRACT: note_on channel=0 note=77 velocity=0 time=0.19704876875
EXTRACT: note_on channel=0 note=49 velocity=0 time=0
EXTRACT: note_on channel=0 note=77 velocity=80 time=0.011284731249999999
EXTRACT: note_on channel=0 note=77 velocity=0 time=0.19704876875
EXTRACT: note_on channel=0 note=77 velocity=80 time=0.011284731249999999
EXTRACT: note_on channel=0 note=49 velocity=80 time=0
EXTRACT: note_on channel=0 note=77 velocity=0 time=0.19704876875
EXTRACT: note_on channel=0 note=49 velocity=0 time=0
EXTRACT: note_on channel=0 note=77 velocity=80 time=0.011284731249999999
EXTRACT: note_on channel=0 note=49 velocity=80 time=0
EXTRACT: note_on channel=0 note=49 velocity=0 time=0.19704876875
EXTRACT: note_on channel=0 note=49 velocity=80 time=0.011284731249999999
EXTRACT: note_on channel=0 note=77 velocity=0 time=0.18663209374999998
EXTRACT: note_on channel=0 note=49 velocity=0 time=0.010416675
EXTRACT: note_on channel=0 note=75 velocity=80 time=0.011284731249999999
EXTRACT: note_on channel=0 note=42 velocity=80 time=0.20833349999999998
EXTRACT: note_on channel=0 note=75 velocity=0 time=0.18663209374999998
EXTRACT: note_on channel=0 note=42 velocity=0 time=0.010416675
EXTRACT: note_on channel=0 note=77 velocity=80 time=0.42795173124999997
EXTRACT: note_on channel=0 note=77 velocity=0 time=0.39496559374999995
EXTRACT: note_on channel=0 note=75 velocity=80 time=0.02170140625
EXTRACT: note_on channel=0 note=75 velocity=0 time=0.39496559374999995
EXTRACT: note_on channel=0 note=73 velocity=80 time=0.02170140625
EXTRACT: note_on channel=0 note=73 velocity=0 time=0.39496559374999995
EXTRACT: note_on channel=0 note=77 velocity=80 time=0.02170140625
EXTRACT: note_on channel=0 note=34 velocity=80 time=0
EXTRACT: note_on channel=0 note=77 velocity=0 time=0.19704876875
EXTRACT: note_on channel=0 note=80 velocity=80 time=0.011284731249999999
EXTRACT: note_on channel=0 note=80 velocity=0 time=0.19704876875
EXTRACT: note_on channel=0 note=77 velocity=80 time=0.011284731249999999
EXTRACT: note_on channel=0 note=77 velocity=0 time=0.19704876875
EXTRACT: note_on channel=0 note=75 velocity=80 time=0.011284731249999999
EXTRACT: note_on channel=0 note=34 velocity=0 time=0.16579874374999998
EXTRACT: note_on channel=0 note=75 velocity=0 time=0.031250025
EXTRACT: note_on channel=0 note=77 velocity=80 time=0.011284731249999999
EXTRACT: note_on channel=0 note=46 velocity=80 time=0
EXTRACT: note_on channel=0 note=77 velocity=0 time=0.19704876875
EXTRACT: note_on channel=0 note=75 velocity=80 time=0.011284731249999999
EXTRACT: note_on channel=0 note=75 velocity=0 time=0.19704876875
EXTRACT: note_on channel=0 note=75 velocity=80 time=0.011284731249999999
EXTRACT: note_on channel=0 note=46 velocity=0 time=0.37413224375
EXTRACT: note_on channel=0 note=75 velocity=0 time=0.02083335
EXTRACT: note_on channel=0 note=32 velocity=80 time=0.02170140625
EXTRACT: note_on channel=0 note=73 velocity=80 time=0.6250005
EXTRACT: note_on channel=0 note=32 velocity=0 time=0.16579874374999998
EXTRACT: note_on channel=0 note=73 velocity=0 time=0.031250025
EXTRACT: note_on channel=0 note=75 velocity=80 time=0.011284731249999999
EXTRACT: note_on channel=0 note=44 velocity=80 time=0
EXTRACT: note_on channel=0 note=75 velocity=0 time=0.39496559374999995
EXTRACT: note_on channel=0 note=73 velocity=80 time=0.02170140625
EXTRACT: note_on channel=0 note=44 velocity=0 time=0.37413224375
EXTRACT: note_on channel=0 note=73 velocity=0 time=0.02083335
EXTRACT: note_on channel=0 note=77 velocity=80 time=0.02170140625
EXTRACT: note_on channel=0 note=37 velocity=80 time=0
EXTRACT: note_on channel=0 note=77 velocity=0 time=0.19704876875
EXTRACT: note_on channel=0 note=80 velocity=80 time=0.011284731249999999
EXTRACT: note_on channel=0 note=80 velocity=0 time=0.19704876875
EXTRACT: note_on channel=0 note=77 velocity=80 time=0.011284731249999999
EXTRACT: note_on channel=0 note=77 velocity=0 time=0.19704876875
EXTRACT: note_on channel=0 note=75 velocity=80 time=0.011284731249999999
EXTRACT: note_on channel=0 note=37 velocity=0 time=0.16579874374999998
EXTRACT: note_on channel=0 note=75 velocity=0 time=0.031250025
EXTRACT: note_on channel=0 note=77 velocity=80 time=0.011284731249999999
EXTRACT: note_on channel=0 note=49 velocity=80 time=0
EXTRACT: note_on channel=0 note=77 velocity=0 time=0.19704876875
EXTRACT: note_on channel=0 note=75 velocity=80 time=0.011284731249999999
EXTRACT: note_on channel=0 note=75 velocity=0 time=0.19704876875
EXTRACT: note_on channel=0 note=75 velocity=80 time=0.011284731249999999
EXTRACT: note_on channel=0 note=49 velocity=0 time=0.37413224375
EXTRACT: note_on channel=0 note=75 velocity=0 time=0.02083335
EXTRACT: note_on channel=0 note=30 velocity=80 time=0.02170140625
EXTRACT: note_on channel=0 note=77 velocity=80 time=0.6250005
EXTRACT: note_on channel=0 note=30 velocity=0 time=0.16579874374999998
EXTRACT: note_on channel=0 note=77 velocity=0 time=0.031250025
EXTRACT: note_on channel=0 note=75 velocity=80 time=0.011284731249999999
EXTRACT: note_on channel=0 note=42 velocity=80 time=0
EXTRACT: note_on channel=0 note=75 velocity=0 time=0.39496559374999995
EXTRACT: note_on channel=0 note=73 velocity=80 time=0.02170140625
EXTRACT: note_on channel=0 note=42 velocity=0 time=0.37413224375
EXTRACT: note_on channel=0 note=73 velocity=0 time=0.02083335
EXTRACT: note_on channel=0 note=70 velocity=80 time=0.02170140625
EXTRACT: note_on channel=0 note=34 velocity=80 time=0
EXTRACT: note_on channel=0 note=70 velocity=0 time=0.19704876875
EXTRACT: note_on channel=0 note=72 velocity=80 time=0.011284731249999999
EXTRACT: note_on channel=0 note=72 velocity=0 time=0.39496559374999995
EXTRACT: note_on channel=0 note=73 velocity=80 time=0.02170140625
EXTRACT: note_on channel=0 note=34 velocity=0 time=0.16579874374999998
EXTRACT: note_on channel=0 note=46 velocity=80 time=0.04253475625
EXTRACT: note_on channel=0 note=73 velocity=0 time=0.18663209374999998
EXTRACT: note_on channel=0 note=80 velocity=80 time=0.02170140625
EXTRACT: note_on channel=0 note=80 velocity=0 time=0.39496559374999995
EXTRACT: note_on channel=0 note=77 velocity=80 time=0.02170140625
EXTRACT: note_on channel=0 note=46 velocity=0 time=0.16579874374999998
EXTRACT: note_on channel=0 note=32 velocity=80 time=0.04253475625
EXTRACT: note_on channel=0 note=77 velocity=0 time=0.5824657437499999
EXTRACT: note_on channel=0 note=75 velocity=80 time=0.04253475625
EXTRACT: note_on channel=0 note=32 velocity=0 time=0.16579874374999998
EXTRACT: note_on channel=0 note=44 velocity=80 time=0.04253475625
EXTRACT: note_on channel=0 note=75 velocity=0 time=0.38454891874999997
EXTRACT: note_on channel=0 note=44 velocity=0 time=0.40625032499999997
EXTRACT: note_on channel=0 note=70 velocity=80 time=0.04253475625
EXTRACT: note_on channel=0 note=30 velocity=80 time=0
EXTRACT: note_on channel=0 note=70 velocity=0 time=0.19704876875
EXTRACT: note_on channel=0 note=72 velocity=80 time=0.011284731249999999
EXTRACT: note_on channel=0 note=72 velocity=0 time=0.39496559374999995
EXTRACT: note_on channel=0 note=73 velocity=80 time=0.02170140625
EXTRACT: note_on channel=0 note=30 velocity=0 time=0.16579874374999998
EXTRACT: note_on channel=0 note=42 velocity=80 time=0.04253475625
EXTRACT: note_on channel=0 note=73 velocity=0 time=0.18663209374999998
EXTRACT: note_on channel=0 note=80 velocity=80 time=0.02170140625
EXTRACT: note_on channel=0 note=80 velocity=0 time=0.39496559374999995
EXTRACT: note_on channel=0 note=77 velocity=80 time=0.02170140625
EXTRACT: note_on channel=0 note=42 velocity=0 time=0.16579874374999998
EXTRACT: note_on channel=0 note=37 velocity=80 time=0.04253475625
EXTRACT: note_on channel=0 note=77 velocity=0 time=0.5824657437499999
EXTRACT: note_on channel=0 note=75 velocity=80 time=0.04253475625
EXTRACT: note_on channel=0 note=37 velocity=0 time=0.16579874374999998
EXTRACT: note_on channel=0 note=49 velocity=80 time=0.04253475625
EXTRACT: note_on channel=0 note=75 velocity=0 time=0.38454891874999997
EXTRACT: note_on channel=0 note=70 velocity=80 time=0.24045158125
EXTRACT: note_on channel=0 note=49 velocity=0 time=0.16579874374999998
EXTRACT: note_on channel=0 note=70 velocity=0 time=0.031250025
EXTRACT: note_on channel=0 note=77 velocity=80 time=0.011284731249999999
EXTRACT: note_on channel=0 note=34 velocity=80 time=0
EXTRACT: note_on channel=0 note=77 velocity=0 time=0.19704876875
EXTRACT: note_on channel=0 note=80 velocity=80 time=0.011284731249999999
EXTRACT: note_on channel=0 note=80 velocity=0 time=0.19704876875
EXTRACT: note_on channel=0 note=77 velocity=80 time=0.011284731249999999
EXTRACT: note_on channel=0 note=77 velocity=0 time=0.19704876875
EXTRACT: note_on channel=0 note=75 velocity=80 time=0.011284731249999999
EXTRACT: note_on channel=0 note=34 velocity=0 time=0.16579874374999998
EXTRACT: note_on channel=0 note=75 velocity=0 time=0.031250025
EXTRACT: note_on channel=0 note=77 velocity=80 time=0.011284731249999999
EXTRACT: note_on channel=0 note=46 velocity=80 time=0
EXTRACT: note_on channel=0 note=77 velocity=0 time=0.19704876875
EXTRACT: note_on channel=0 note=75 velocity=80 time=0.011284731249999999
EXTRACT: note_on channel=0 note=75 velocity=0 time=0.19704876875
EXTRACT: note_on channel=0 note=75 velocity=80 time=0.011284731249999999
EXTRACT: note_on channel=0 note=46 velocity=0 time=0.37413224375
EXTRACT: note_on channel=0 note=75 velocity=0 time=0.02083335
EXTRACT: note_on channel=0 note=32 velocity=80 time=0.02170140625
EXTRACT: note_on channel=0 note=73 velocity=80 time=0.6250005
EXTRACT: note_on channel=0 note=32 velocity=0 time=0.16579874374999998
EXTRACT: note_on channel=0 note=73 velocity=0 time=0.031250025
EXTRACT: note_on channel=0 note=75 velocity=80 time=0.011284731249999999
EXTRACT: note_on channel=0 note=44 velocity=80 time=0
EXTRACT: note_on channel=0 note=75 velocity=0 time=0.39496559374999995
EXTRACT: note_on channel=0 note=73 velocity=80 time=0.02170140625
EXTRACT: note_on channel=0 note=44 velocity=0 time=0.37413224375
EXTRACT: note_on channel=0 note=73 velocity=0 time=0.02083335
EXTRACT: note_on channel=0 note=77 velocity=80 time=0.02170140625
EXTRACT: note_on channel=0 note=37 velocity=80 time=0
EXTRACT: note_on channel=0 note=77 velocity=0 time=0.19704876875
EXTRACT: note_on channel=0 note=80 velocity=80 time=0.011284731249999999
EXTRACT: note_on channel=0 note=80 velocity=0 time=0.19704876875
EXTRACT: note_on channel=0 note=77 velocity=80 time=0.011284731249999999
EXTRACT: note_on channel=0 note=77 velocity=0 time=0.19704876875
EXTRACT: note_on channel=0 note=75 velocity=80 time=0.011284731249999999
EXTRACT: note_on channel=0 note=37 velocity=0 time=0.16579874374999998
EXTRACT: note_on channel=0 note=75 velocity=0 time=0.031250025
EXTRACT: note_on channel=0 note=77 velocity=80 time=0.011284731249999999
EXTRACT: note_on channel=0 note=49 velocity=80 time=0
EXTRACT: note_on channel=0 note=77 velocity=0 time=0.19704876875
EXTRACT: note_on channel=0 note=75 velocity=80 time=0.011284731249999999
EXTRACT: note_on channel=0 note=75 velocity=0 time=0.19704876875
EXTRACT: note_on channel=0 note=75 velocity=80 time=0.011284731249999999
EXTRACT: note_on channel=0 note=49 velocity=0 time=0.37413224375
EXTRACT: note_on channel=0 note=75 velocity=0 time=0.02083335
EXTRACT: note_on channel=0 note=30 velocity=80 time=0.02170140625
EXTRACT: note_on channel=0 note=77 velocity=80 time=0.6250005
EXTRACT: note_on channel=0 note=30 velocity=0 time=0.16579874374999998
EXTRACT: note_on channel=0 note=77 velocity=0 time=0.031250025
EXTRACT: note_on channel=0 note=75 velocity=80 time=0.011284731249999999
EXTRACT: note_on channel=0 note=42 velocity=80 time=0
EXTRACT: note_on channel=0 note=75 velocity=0 time=0.39496559374999995
EXTRACT: note_on channel=0 note=73 velocity=80 time=0.02170140625
EXTRACT: note_on channel=0 note=42 velocity=0 time=0.37413224375
EXTRACT: note_on channel=0 note=73 velocity=0 time=0.02083335
EXTRACT: note_on channel=0 note=70 velocity=80 time=0.02170140625
EXTRACT: note_on channel=0 note=34 velocity=80 time=0
EXTRACT: note_on channel=0 note=70 velocity=0 time=0.19704876875
EXTRACT: note_on channel=0 note=72 velocity=80 time=0.011284731249999999
EXTRACT: note_on channel=0 note=72 velocity=0 time=0.39496559374999995
EXTRACT: note_on channel=0 note=73 velocity=80 time=0.02170140625
EXTRACT: note_on channel=0 note=34 velocity=0 time=0.16579874374999998
EXTRACT: note_on channel=0 note=46 velocity=80 time=0.04253475625
EXTRACT: note_on channel=0 note=73 velocity=0 time=0.18663209374999998
EXTRACT: note_on channel=0 note=80 velocity=80 time=0.02170140625
EXTRACT: note_on channel=0 note=80 velocity=0 time=0.39496559374999995
EXTRACT: note_on channel=0 note=77 velocity=80 time=0.02170140625
EXTRACT: note_on channel=0 note=46 velocity=0 time=0.16579874374999998
EXTRACT: note_on channel=0 note=32 velocity=80 time=0.04253475625
EXTRACT: note_on channel=0 note=77 velocity=0 time=0.5824657437499999
EXTRACT: note_on channel=0 note=75 velocity=80 time=0.04253475625
EXTRACT: note_on channel=0 note=32 velocity=0 time=0.16579874374999998
EXTRACT: note_on channel=0 note=44 velocity=80 time=0.04253475625
EXTRACT: note_on channel=0 note=75 velocity=0 time=0.38454891874999997
EXTRACT: note_on channel=0 note=44 velocity=0 time=0.40625032499999997
EXTRACT: note_on channel=0 note=70 velocity=80 time=0.04253475625
EXTRACT: note_on channel=0 note=30 velocity=80 time=0
EXTRACT: note_on channel=0 note=70 velocity=0 time=0.19704876875
EXTRACT: note_on channel=0 note=72 velocity=80 time=0.011284731249999999
EXTRACT: note_on channel=0 note=72 velocity=0 time=0.39496559374999995
EXTRACT: note_on channel=0 note=73 velocity=80 time=0.02170140625
EXTRACT: note_on channel=0 note=30 velocity=0 time=0.16579874374999998
EXTRACT: note_on channel=0 note=42 velocity=80 time=0.04253475625
EXTRACT: note_on channel=0 note=73 velocity=0 time=0.18663209374999998
EXTRACT: note_on channel=0 note=80 velocity=80 time=0.02170140625
EXTRACT: note_on channel=0 note=80 velocity=0 time=0.39496559374999995
EXTRACT: note_on channel=0 note=77 velocity=80 time=0.02170140625
EXTRACT: note_on channel=0 note=42 velocity=0 time=0.16579874374999998
EXTRACT: note_on channel=0 note=77 velocity=80 time=0.04253475625
EXTRACT: note_on channel=0 note=37 velocity=80 time=0
EXTRACT: note_on channel=0 note=77 velocity=0 time=0.5824657437499999
EXTRACT: note_on channel=0 note=77 velocity=0 time=0.010416675
EXTRACT: note_on channel=0 note=75 velocity=80 time=0.03211808125
EXTRACT: note_on channel=0 note=77 velocity=80 time=0
EXTRACT: note_on channel=0 note=37 velocity=0 time=0.16579874374999998
EXTRACT: note_on channel=0 note=77 velocity=0 time=0.031250025
EXTRACT: note_on channel=0 note=49 velocity=80 time=0.011284731249999999
EXTRACT: note_on channel=0 note=75 velocity=0 time=0.38454891874999997
EXTRACT: note_on channel=0 note=73 velocity=80 time=0.03211808125
EXTRACT: note_on channel=0 note=49 velocity=0 time=0.37413224375
EXTRACT: note_on channel=0 note=73 velocity=0 time=0.02083335
EXTRACT: note_on channel=0 note=70 velocity=80 time=0.02170140625
EXTRACT: note_on channel=0 note=34 velocity=80 time=0
EXTRACT: note_on channel=0 note=34 velocity=0 time=0.10329869374999999
EXTRACT: note_on channel=0 note=70 velocity=0 time=0.09375007499999999
EXTRACT: note_on channel=0 note=72 velocity=80 time=0.011284731249999999
EXTRACT: note_on channel=0 note=72 velocity=0 time=0.39496559374999995
EXTRACT: note_on channel=0 note=73 velocity=80 time=0.02170140625
EXTRACT: note_on channel=0 note=34 velocity=80 time=0
EXTRACT: note_on channel=0 note=34 velocity=0 time=0.10329869374999999
EXTRACT: note_on channel=0 note=73 velocity=0 time=0.2916669
EXTRACT: note_on channel=0 note=80 velocity=80 time=0.02170140625
EXTRACT: note_on channel=0 note=34 velocity=80 time=0
EXTRACT: note_on channel=0 note=34 velocity=0 time=0.10329869374999999
EXTRACT: note_on channel=0 note=80 velocity=0 time=0.2916669
EXTRACT: note_on channel=0 note=77 velocity=80 time=0.02170140625
EXTRACT: note_on channel=0 note=34 velocity=80 time=0.20833349999999998
EXTRACT: note_on channel=0 note=34 velocity=0 time=0.10329869374999999
EXTRACT: note_on channel=0 note=77 velocity=0 time=0.47916705
EXTRACT: note_on channel=0 note=75 velocity=80 time=0.04253475625
EXTRACT: note_on channel=0 note=34 velocity=80 time=0
EXTRACT: note_on channel=0 note=34 velocity=0 time=0.10329869374999999
EXTRACT: note_on channel=0 note=34 velocity=80 time=0.31336830625
EXTRACT: note_on channel=0 note=34 velocity=0 time=0.10329869374999999
EXTRACT: note_on channel=0 note=75 velocity=0 time=0.072916725
EXTRACT: note_on channel=0 note=70 velocity=80 time=0.44878508125
EXTRACT: note_on channel=0 note=34 velocity=80 time=0
EXTRACT: note_on channel=0 note=34 velocity=0 time=0.10329869374999999
EXTRACT: note_on channel=0 note=70 velocity=0 time=0.09375007499999999
EXTRACT: note_on channel=0 note=72 velocity=80 time=0.011284731249999999
EXTRACT: note_on channel=0 note=72 velocity=0 time=0.39496559374999995
EXTRACT: note_on channel=0 note=73 velocity=80 time=0.02170140625
EXTRACT: note_on channel=0 note=34 velocity=80 time=0
EXTRACT: note_on channel=0 note=34 velocity=0 time=0.10329869374999999
EXTRACT: note_on channel=0 note=73 velocity=0 time=0.2916669
EXTRACT: note_on channel=0 note=80 velocity=80 time=0.02170140625
EXTRACT: note_on channel=0 note=34 velocity=80 time=0
EXTRACT: note_on channel=0 note=34 velocity=0 time=0.10329869374999999
EXTRACT: note_on channel=0 note=80 velocity=0 time=0.2916669
EXTRACT: note_on channel=0 note=77 velocity=80 time=0.02170140625
EXTRACT: note_on channel=0 note=34 velocity=80 time=0.20833349999999998
EXTRACT: note_on channel=0 note=34 velocity=0 time=0.10329869374999999
EXTRACT: note_on channel=0 note=77 velocity=0 time=0.47916705
EXTRACT: note_on channel=0 note=75 velocity=80 time=0.04253475625
EXTRACT: note_on channel=0 note=77 velocity=80 time=0
EXTRACT: note_on channel=0 note=34 velocity=80 time=0
EXTRACT: note_on channel=0 note=34 velocity=0 time=0.10329869374999999
EXTRACT: note_on channel=0 note=77 velocity=0 time=0.09375007499999999
EXTRACT: note_on channel=0 note=34 velocity=80 time=0.21961823125
EXTRACT: note_on channel=0 note=34 velocity=0 time=0.10329869374999999
EXTRACT: note_on channel=0 note=75 velocity=0 time=0.072916725
EXTRACT: note_on channel=0 note=73 velocity=80 time=0.03211808125
EXTRACT: note_on channel=0 note=73 velocity=0 time=0.39496559374999995
EXTRACT: note_on channel=0 note=70 velocity=80 time=0.02170140625
EXTRACT: note_on channel=0 note=34 velocity=80 time=0
EXTRACT: note_on channel=0 note=34 velocity=0 time=0.10329869374999999
EXTRACT: note_on channel=0 note=70 velocity=0 time=0.09375007499999999
EXTRACT: note_on channel=0 note=72 velocity=80 time=0.011284731249999999
EXTRACT: note_on channel=0 note=72 velocity=0 time=0.39496559374999995
EXTRACT: note_on channel=0 note=73 velocity=80 time=0.02170140625
EXTRACT: note_on channel=0 note=34 velocity=80 time=0
EXTRACT: note_on channel=0 note=34 velocity=0 time=0.10329869374999999
EXTRACT: note_on channel=0 note=73 velocity=0 time=0.2916669
EXTRACT: note_on channel=0 note=80 velocity=80 time=0.02170140625
EXTRACT: note_on channel=0 note=34 velocity=80 time=0
EXTRACT: note_on channel=0 note=34 velocity=0 time=0.10329869374999999
EXTRACT: note_on channel=0 note=80 velocity=0 time=0.2916669
EXTRACT: note_on channel=0 note=77 velocity=80 time=0.02170140625
EXTRACT: note_on channel=0 note=34 velocity=80 time=0.20833349999999998
EXTRACT: note_on channel=0 note=34 velocity=0 time=0.10329869374999999
EXTRACT: note_on channel=0 note=77 velocity=0 time=0.47916705
EXTRACT: note_on channel=0 note=75 velocity=80 time=0.04253475625
EXTRACT: note_on channel=0 note=34 velocity=80 time=0
EXTRACT: note_on channel=0 note=34 velocity=0 time=0.10329869374999999
EXTRACT: note_on channel=0 note=34 velocity=80 time=0.31336830625
EXTRACT: note_on channel=0 note=34 velocity=0 time=0.10329869374999999
EXTRACT: note_on channel=0 note=75 velocity=0 time=0.072916725
EXTRACT: note_on channel=0 note=70 velocity=80 time=0.44878508125
EXTRACT: note_on channel=0 note=34 velocity=80 time=0
EXTRACT: note_on channel=0 note=34 velocity=0 time=0.10329869374999999
EXTRACT: note_on channel=0 note=70 velocity=0 time=0.09375007499999999
EXTRACT: note_on channel=0 note=72 velocity=80 time=0.011284731249999999
EXTRACT: note_on channel=0 note=72 velocity=0 time=0.39496559374999995
EXTRACT: note_on channel=0 note=73 velocity=80 time=0.02170140625
EXTRACT: note_on channel=0 note=34 velocity=80 time=0
EXTRACT: note_on channel=0 note=34 velocity=0 time=0.10329869374999999
EXTRACT: note_on channel=0 note=73 velocity=0 time=0.2916669
EXTRACT: note_on channel=0 note=80 velocity=80 time=0.02170140625
EXTRACT: note_on channel=0 note=34 velocity=80 time=0
EXTRACT: note_on channel=0 note=34 velocity=0 time=0.10329869374999999
EXTRACT: note_on channel=0 note=80 velocity=0 time=0.2916669
EXTRACT: note_on channel=0 note=77 velocity=80 time=0.02170140625
EXTRACT: note_on channel=0 note=77 velocity=80 time=0.20833349999999998
EXTRACT: note_on channel=0 note=77 velocity=0 time=0.5824657437499999
EXTRACT: note_on channel=0 note=77 velocity=0 time=0.010416675
EXTRACT: note_on channel=0 note=75 velocity=80 time=0.03211808125
EXTRACT: note_on channel=0 note=75 velocity=0 time=0.5928824187499999
MUSIC042 - Shawn Mendes - Stitches (Official Video).mid
INTERVALS042 - Shawn Mendes - Stitches (Official Video).mid
unison326
2m16
2M155
3m211
3M152
4m32
4M0
5m336
5M3
6m5
7m15
7M4
