EXTRACT: sysex data=(126,127,9,1) time=0
EXTRACT: sysex data=(65,16,66,18,64,0,127,0,65) time=0.27777799999999997
EXTRACT: control_change channel=0 control=0 value=0 time=0.2789354083333333
EXTRACT: control_change channel=0 control=32 value=0 time=0.0011574083333333331
EXTRACT: program_change channel=0 program=28 time=0.0011574083333333331
EXTRACT: control_change channel=0 control=7 value=110 time=0.0011574083333333331
EXTRACT: control_change channel=0 control=10 value=64 time=0.0011574083333333331
EXTRACT: control_change channel=0 control=11 value=127 time=0.0011574083333333331
EXTRACT: control_change channel=0 control=91 value=55 time=0.0011574083333333331
EXTRACT: control_change channel=0 control=93 value=0 time=0.0011574083333333331
EXTRACT: control_change channel=1 control=0 value=0 time=0.0011574083333333331
EXTRACT: control_change channel=1 control=32 value=0 time=0.0011574083333333331
EXTRACT: program_change channel=1 program=33 time=0.0011574083333333331
EXTRACT: control_change channel=1 control=7 value=116 time=0.0011574083333333331
EXTRACT: control_change channel=1 control=10 value=64 time=0.0011574083333333331
EXTRACT: control_change channel=1 control=11 value=127 time=0.0011574083333333331
EXTRACT: control_change channel=1 control=91 value=55 time=0.0011574083333333331
EXTRACT: control_change channel=1 control=93 value=0 time=0.0011574083333333331
EXTRACT: control_change channel=2 control=0 value=0 time=0.0011574083333333331
EXTRACT: control_change channel=2 control=32 value=0 time=0.0011574083333333331
EXTRACT: program_change channel=2 program=25 time=0.0011574083333333331
EXTRACT: control_change channel=2 control=7 value=110 time=0.0011574083333333331
EXTRACT: control_change channel=2 control=10 value=64 time=0.0011574083333333331
EXTRACT: control_change channel=1 control=101 value=0 time=0.0011574083333333331
EXTRACT: control_change channel=2 control=11 value=127 time=0.0011574083333333331
EXTRACT: control_change channel=2 control=91 value=55 time=0
EXTRACT: control_change channel=2 control=93 value=0 time=0.0011574083333333331
EXTRACT: control_change channel=3 control=0 value=0 time=0.0011574083333333331
EXTRACT: control_change channel=1 control=100 value=0 time=0.0011574083333333331
EXTRACT: control_change channel=3 control=32 value=0 time=0.0011574083333333331
EXTRACT: program_change channel=3 program=66 time=0
EXTRACT: control_change channel=3 control=7 value=110 time=0.0011574083333333331
EXTRACT: control_change channel=3 control=10 value=64 time=0.0011574083333333331
EXTRACT: control_change channel=1 control=6 value=2 time=0.0011574083333333331
EXTRACT: control_change channel=3 control=11 value=127 time=0.0011574083333333331
EXTRACT: control_change channel=3 control=91 value=55 time=0
EXTRACT: control_change channel=3 control=93 value=0 time=0.0011574083333333331
EXTRACT: control_change channel=4 control=0 value=0 time=0.0011574083333333331
EXTRACT: control_change channel=1 control=101 value=127 time=0.0011574083333333331
EXTRACT: control_change channel=4 control=32 value=0 time=0.0011574083333333331
EXTRACT: program_change channel=4 program=54 time=0
EXTRACT: control_change channel=4 control=7 value=110 time=0.0011574083333333331
EXTRACT: control_change channel=4 control=10 value=64 time=0.0011574083333333331
EXTRACT: control_change channel=1 control=100 value=127 time=0.0011574083333333331
EXTRACT: control_change channel=4 control=11 value=127 time=0.0011574083333333331
EXTRACT: control_change channel=4 control=91 value=55 time=0
EXTRACT: control_change channel=4 control=93 value=0 time=0.0011574083333333331
EXTRACT: control_change channel=5 control=0 value=0 time=0.0011574083333333331
EXTRACT: control_change channel=5 control=32 value=0 time=0.0011574083333333331
EXTRACT: program_change channel=5 program=53 time=0.0011574083333333331
EXTRACT: control_change channel=5 control=7 value=110 time=0.0011574083333333331
EXTRACT: control_change channel=5 control=10 value=64 time=0.0011574083333333331
EXTRACT: control_change channel=5 control=11 value=127 time=0.0011574083333333331
EXTRACT: control_change channel=5 control=91 value=55 time=0.0011574083333333331
EXTRACT: control_change channel=5 control=93 value=0 time=0.0011574083333333331
EXTRACT: control_change channel=6 control=0 value=0 time=0.0011574083333333331
EXTRACT: control_change channel=7 control=0 value=0 time=0
EXTRACT: control_change channel=8 control=0 value=0 time=0
EXTRACT: control_change channel=10 control=0 value=0 time=0
EXTRACT: control_change channel=11 control=0 value=0 time=0
EXTRACT: control_change channel=15 control=0 value=0 time=0
EXTRACT: control_change channel=6 control=32 value=0 time=0.0011574083333333331
EXTRACT: control_change channel=7 control=32 value=0 time=0
EXTRACT: control_change channel=8 control=32 value=0 time=0
EXTRACT: control_change channel=10 control=32 value=0 time=0
EXTRACT: control_change channel=11 control=32 value=0 time=0
EXTRACT: control_change channel=15 control=32 value=0 time=0
EXTRACT: program_change channel=6 program=0 time=0.0011574083333333331
EXTRACT: program_change channel=7 program=18 time=0
EXTRACT: program_change channel=8 program=42 time=0
EXTRACT: program_change channel=10 program=48 time=0
EXTRACT: program_change channel=11 program=48 time=0
EXTRACT: program_change channel=15 program=0 time=0
EXTRACT: control_change channel=6 control=7 value=110 time=0.0011574083333333331
EXTRACT: control_change channel=7 control=7 value=85 time=0
EXTRACT: control_change channel=8 control=7 value=80 time=0
EXTRACT: control_change channel=10 control=7 value=100 time=0
EXTRACT: control_change channel=11 control=7 value=100 time=0
EXTRACT: control_change channel=15 control=7 value=110 time=0
EXTRACT: control_change channel=6 control=10 value=64 time=0.0011574083333333331
EXTRACT: control_change channel=7 control=10 value=64 time=0
EXTRACT: control_change channel=8 control=10 value=64 time=0
EXTRACT: control_change channel=10 control=10 value=96 time=0
EXTRACT: control_change channel=11 control=10 value=32 time=0
EXTRACT: control_change channel=15 control=10 value=64 time=0
EXTRACT: control_change channel=6 control=11 value=127 time=0.0011574083333333331
EXTRACT: control_change channel=7 control=11 value=127 time=0
EXTRACT: control_change channel=8 control=11 value=127 time=0
EXTRACT: control_change channel=10 control=11 value=127 time=0
EXTRACT: control_change channel=11 control=11 value=127 time=0
EXTRACT: control_change channel=15 control=11 value=127 time=0
EXTRACT: control_change channel=6 control=91 value=55 time=0.0011574083333333331
EXTRACT: control_change channel=7 control=91 value=55 time=0
EXTRACT: control_change channel=8 control=91 value=55 time=0
EXTRACT: control_change channel=10 control=91 value=55 time=0
EXTRACT: control_change channel=11 control=91 value=55 time=0
EXTRACT: control_change channel=15 control=91 value=55 time=0
EXTRACT: control_change channel=6 control=93 value=0 time=0.0011574083333333331
EXTRACT: control_change channel=7 control=93 value=0 time=0
EXTRACT: control_change channel=8 control=93 value=0 time=0
EXTRACT: control_change channel=10 control=93 value=0 time=0
EXTRACT: control_change channel=11 control=93 value=0 time=0
EXTRACT: control_change channel=15 control=93 value=0 time=0
EXTRACT: control_change channel=9 control=0 value=0 time=0.01967594166666666
EXTRACT: control_change channel=9 control=32 value=0 time=0.0011574083333333331
EXTRACT: program_change channel=9 program=0 time=0.0011574083333333331
EXTRACT: control_change channel=9 control=7 value=127 time=0.0011574083333333331
EXTRACT: control_change channel=9 control=10 value=64 time=0.0011574083333333331
EXTRACT: control_change channel=9 control=11 value=127 time=0.0011574083333333331
EXTRACT: control_change channel=9 control=91 value=46 time=0.0011574083333333331
EXTRACT: control_change channel=9 control=93 value=0 time=0.0011574083333333331
EXTRACT: control_change channel=0 control=101 value=0 time=0.020833349999999997
EXTRACT: control_change channel=0 control=100 value=0 time=0.0046296333333333325
EXTRACT: control_change channel=0 control=6 value=2 time=0.0046296333333333325
EXTRACT: control_change channel=0 control=101 value=127 time=0.0046296333333333325
EXTRACT: control_change channel=0 control=100 value=127 time=0.0046296333333333325
EXTRACT: control_change channel=2 control=101 value=0 time=0.034722249999999996
EXTRACT: control_change channel=2 control=100 value=0 time=0.0046296333333333325
EXTRACT: control_change channel=2 control=6 value=2 time=0.0046296333333333325
EXTRACT: control_change channel=3 control=101 value=0 time=0.0011574083333333331
EXTRACT: control_change channel=2 control=101 value=127 time=0.0034722249999999994
EXTRACT: control_change channel=3 control=100 value=0 time=0.0011574083333333331
EXTRACT: control_change channel=2 control=100 value=127 time=0.0034722249999999994
EXTRACT: control_change channel=3 control=6 value=2 time=0.0011574083333333331
EXTRACT: control_change channel=6 control=101 value=0 time=0.0023148166666666662
EXTRACT: control_change channel=7 control=101 value=0 time=0
EXTRACT: control_change channel=8 control=101 value=0 time=0
EXTRACT: control_change channel=10 control=101 value=0 time=0
EXTRACT: control_change channel=11 control=101 value=0 time=0
EXTRACT: control_change channel=15 control=101 value=0 time=0
EXTRACT: control_change channel=3 control=101 value=127 time=0.0023148166666666662
EXTRACT: control_change channel=5 control=101 value=0 time=0.0023148166666666662
EXTRACT: control_change channel=6 control=100 value=0 time=0.0011574083333333331
EXTRACT: control_change channel=7 control=100 value=0 time=0
EXTRACT: control_change channel=8 control=100 value=0 time=0
EXTRACT: control_change channel=10 control=100 value=0 time=0
EXTRACT: control_change channel=11 control=100 value=0 time=0
EXTRACT: control_change channel=15 control=100 value=0 time=0
EXTRACT: control_change channel=3 control=100 value=127 time=0.0023148166666666662
EXTRACT: control_change channel=4 control=101 value=0 time=0
EXTRACT: control_change channel=5 control=100 value=0 time=0.0011574083333333331
EXTRACT: control_change channel=6 control=6 value=2 time=0.0011574083333333331
EXTRACT: control_change channel=7 control=6 value=2 time=0
EXTRACT: control_change channel=8 control=6 value=2 time=0
EXTRACT: control_change channel=10 control=6 value=2 time=0
EXTRACT: control_change channel=11 control=6 value=2 time=0
EXTRACT: control_change channel=15 control=6 value=2 time=0
EXTRACT: control_change channel=4 control=100 value=0 time=0.0023148166666666662
EXTRACT: control_change channel=5 control=6 value=2 time=0.0011574083333333331
EXTRACT: control_change channel=6 control=101 value=127 time=0.0011574083333333331
EXTRACT: control_change channel=7 control=101 value=127 time=0
EXTRACT: control_change channel=8 control=101 value=127 time=0
EXTRACT: control_change channel=10 control=101 value=127 time=0
EXTRACT: control_change channel=11 control=101 value=127 time=0
EXTRACT: control_change channel=15 control=101 value=127 time=0
EXTRACT: control_change channel=4 control=6 value=2 time=0.0023148166666666662
EXTRACT: control_change channel=5 control=101 value=127 time=0.0011574083333333331
EXTRACT: control_change channel=6 control=100 value=127 time=0.0011574083333333331
EXTRACT: control_change channel=7 control=100 value=127 time=0
EXTRACT: control_change channel=8 control=100 value=127 time=0
EXTRACT: control_change channel=10 control=100 value=127 time=0
EXTRACT: control_change channel=11 control=100 value=127 time=0
EXTRACT: control_change channel=15 control=100 value=127 time=0
EXTRACT: control_change channel=4 control=101 value=127 time=0.0023148166666666662
EXTRACT: control_change channel=5 control=100 value=127 time=0.0011574083333333331
EXTRACT: control_change channel=4 control=100 value=127 time=0.0034722249999999994
EXTRACT: control_change channel=0 control=0 value=0 time=0
EXTRACT: control_change channel=0 control=32 value=0 time=0
EXTRACT: control_change channel=0 control=101 value=127 time=0
EXTRACT: control_change channel=0 control=100 value=127 time=0
EXTRACT: control_change channel=0 control=93 value=0 time=0
EXTRACT: control_change channel=0 control=91 value=55 time=0
EXTRACT: control_change channel=0 control=6 value=2 time=0
EXTRACT: control_change channel=0 control=7 value=110 time=0
EXTRACT: control_change channel=0 control=10 value=64 time=0
EXTRACT: control_change channel=0 control=11 value=127 time=0
EXTRACT: note_on channel=0 note=40 velocity=70 time=0
EXTRACT: note_on channel=0 note=52 velocity=70 time=0
EXTRACT: note_on channel=0 note=56 velocity=68 time=0
EXTRACT: control_change channel=1 control=0 value=0 time=0
EXTRACT: control_change channel=1 control=32 value=0 time=0
EXTRACT: control_change channel=1 control=101 value=127 time=0
EXTRACT: control_change channel=1 control=100 value=127 time=0
EXTRACT: control_change channel=1 control=93 value=0 time=0
EXTRACT: control_change channel=1 control=91 value=55 time=0
EXTRACT: control_change channel=1 control=6 value=2 time=0
EXTRACT: control_change channel=1 control=7 value=116 time=0
EXTRACT: control_change channel=1 control=10 value=64 time=0
EXTRACT: control_change channel=1 control=11 value=127 time=0
EXTRACT: note_on channel=1 note=40 velocity=101 time=0
EXTRACT: control_change channel=2 control=0 value=0 time=0
EXTRACT: control_change channel=2 control=32 value=0 time=0
EXTRACT: control_change channel=2 control=101 value=127 time=0
EXTRACT: control_change channel=2 control=100 value=127 time=0
EXTRACT: control_change channel=2 control=93 value=0 time=0
EXTRACT: control_change channel=2 control=91 value=55 time=0
EXTRACT: control_change channel=2 control=6 value=2 time=0
EXTRACT: control_change channel=2 control=7 value=110 time=0
EXTRACT: control_change channel=2 control=10 value=64 time=0
EXTRACT: control_change channel=2 control=11 value=127 time=0
EXTRACT: note_on channel=2 note=40 velocity=58 time=0
EXTRACT: note_on channel=2 note=47 velocity=63 time=0
EXTRACT: note_on channel=2 note=52 velocity=72 time=0
EXTRACT: note_on channel=2 note=56 velocity=78 time=0
EXTRACT: note_on channel=2 note=59 velocity=79 time=0
EXTRACT: note_on channel=2 note=64 velocity=73 time=0
EXTRACT: control_change channel=3 control=0 value=0 time=0
EXTRACT: control_change channel=3 control=32 value=0 time=0
EXTRACT: control_change channel=3 control=101 value=127 time=0
EXTRACT: control_change channel=3 control=100 value=127 time=0
EXTRACT: control_change channel=3 control=93 value=0 time=0
EXTRACT: control_change channel=3 control=91 value=55 time=0
EXTRACT: control_change channel=3 control=6 value=2 time=0
EXTRACT: control_change channel=3 control=7 value=110 time=0
EXTRACT: control_change channel=3 control=10 value=64 time=0
EXTRACT: control_change channel=3 control=11 value=127 time=0
EXTRACT: note_on channel=3 note=68 velocity=80 time=0
EXTRACT: control_change channel=3 control=1 value=0 time=0
EXTRACT: control_change channel=4 control=0 value=0 time=0
EXTRACT: control_change channel=4 control=32 value=0 time=0
EXTRACT: control_change channel=4 control=101 value=127 time=0
EXTRACT: control_change channel=4 control=100 value=127 time=0
EXTRACT: control_change channel=4 control=93 value=0 time=0
EXTRACT: control_change channel=4 control=91 value=55 time=0
EXTRACT: control_change channel=4 control=6 value=2 time=0
EXTRACT: control_change channel=4 control=7 value=110 time=0
EXTRACT: control_change channel=4 control=10 value=64 time=0
EXTRACT: control_change channel=4 control=11 value=127 time=0
EXTRACT: note_on channel=4 note=56 velocity=82 time=0
EXTRACT: note_on channel=4 note=68 velocity=93 time=0
EXTRACT: control_change channel=5 control=0 value=0 time=0
EXTRACT: control_change channel=5 control=32 value=0 time=0
EXTRACT: control_change channel=5 control=101 value=127 time=0
EXTRACT: control_change channel=5 control=100 value=127 time=0
EXTRACT: control_change channel=5 control=93 value=0 time=0
EXTRACT: control_change channel=5 control=91 value=55 time=0
EXTRACT: control_change channel=5 control=6 value=2 time=0
EXTRACT: control_change channel=5 control=7 value=110 time=0
EXTRACT: control_change channel=5 control=10 value=64 time=0
EXTRACT: control_change channel=5 control=11 value=127 time=0
EXTRACT: control_change channel=6 control=0 value=0 time=0
EXTRACT: control_change channel=6 control=32 value=0 time=0
EXTRACT: control_change channel=6 control=101 value=127 time=0
EXTRACT: control_change channel=6 control=100 value=127 time=0
EXTRACT: control_change channel=6 control=93 value=0 time=0
EXTRACT: control_change channel=6 control=91 value=55 time=0
EXTRACT: control_change channel=6 control=6 value=2 time=0
EXTRACT: control_change channel=6 control=7 value=110 time=0
EXTRACT: control_change channel=6 control=10 value=64 time=0
EXTRACT: control_change channel=6 control=11 value=127 time=0
EXTRACT: note_on channel=6 note=28 velocity=60 time=0
EXTRACT: note_on channel=6 note=40 velocity=62 time=0
EXTRACT: note_on channel=6 note=56 velocity=74 time=0
EXTRACT: note_on channel=6 note=59 velocity=84 time=0
EXTRACT: note_on channel=6 note=64 velocity=75 time=0
EXTRACT: control_change channel=7 control=0 value=0 time=0
EXTRACT: control_change channel=7 control=32 value=0 time=0
EXTRACT: control_change channel=7 control=101 value=127 time=0
EXTRACT: control_change channel=7 control=100 value=127 time=0
EXTRACT: control_change channel=7 control=93 value=0 time=0
EXTRACT: control_change channel=7 control=91 value=55 time=0
EXTRACT: control_change channel=7 control=6 value=2 time=0
EXTRACT: control_change channel=7 control=7 value=85 time=0
EXTRACT: control_change channel=7 control=10 value=64 time=0
EXTRACT: control_change channel=7 control=11 value=127 time=0
EXTRACT: note_on channel=7 note=76 velocity=82 time=0
EXTRACT: note_on channel=7 note=83 velocity=88 time=0
EXTRACT: note_on channel=7 note=88 velocity=90 time=0
EXTRACT: control_change channel=8 control=0 value=0 time=0
EXTRACT: control_change channel=8 control=32 value=0 time=0
EXTRACT: control_change channel=8 control=101 value=127 time=0
EXTRACT: control_change channel=8 control=100 value=127 time=0
EXTRACT: control_change channel=8 control=93 value=0 time=0
EXTRACT: control_change channel=8 control=91 value=55 time=0
EXTRACT: control_change channel=8 control=6 value=2 time=0
EXTRACT: control_change channel=8 control=7 value=80 time=0
EXTRACT: control_change channel=8 control=10 value=64 time=0
EXTRACT: control_change channel=8 control=11 value=127 time=0
EXTRACT: control_change channel=9 control=0 value=0 time=0
EXTRACT: control_change channel=9 control=32 value=0 time=0
EXTRACT: control_change channel=9 control=93 value=0 time=0
EXTRACT: control_change channel=9 control=91 value=46 time=0
EXTRACT: control_change channel=9 control=7 value=127 time=0
EXTRACT: control_change channel=9 control=10 value=64 time=0
EXTRACT: control_change channel=9 control=11 value=127 time=0
EXTRACT: note_on channel=9 note=36 velocity=98 time=0
EXTRACT: note_on channel=9 note=41 velocity=110 time=0
EXTRACT: control_change channel=9 control=0 value=0 time=0
EXTRACT: control_change channel=9 control=32 value=0 time=0
EXTRACT: control_change channel=9 control=93 value=0 time=0
EXTRACT: control_change channel=9 control=91 value=46 time=0
EXTRACT: control_change channel=9 control=7 value=127 time=0
EXTRACT: control_change channel=9 control=10 value=64 time=0
EXTRACT: control_change channel=9 control=11 value=127 time=0
EXTRACT: control_change channel=10 control=0 value=0 time=0
EXTRACT: control_change channel=10 control=32 value=0 time=0
EXTRACT: control_change channel=10 control=101 value=127 time=0
EXTRACT: control_change channel=10 control=100 value=127 time=0
EXTRACT: control_change channel=10 control=93 value=0 time=0
EXTRACT: control_change channel=10 control=91 value=55 time=0
EXTRACT: control_change channel=10 control=6 value=2 time=0
EXTRACT: control_change channel=10 control=7 value=100 time=0
EXTRACT: control_change channel=10 control=10 value=96 time=0
EXTRACT: control_change channel=10 control=11 value=127 time=0
EXTRACT: note_on channel=10 note=40 velocity=66 time=0
EXTRACT: note_on channel=10 note=56 velocity=63 time=0
EXTRACT: note_on channel=10 note=59 velocity=72 time=0
EXTRACT: note_on channel=10 note=64 velocity=70 time=0
EXTRACT: control_change channel=11 control=0 value=0 time=0
EXTRACT: control_change channel=11 control=32 value=0 time=0
EXTRACT: control_change channel=11 control=101 value=127 time=0
EXTRACT: control_change channel=11 control=100 value=127 time=0
EXTRACT: control_change channel=11 control=93 value=0 time=0
EXTRACT: control_change channel=11 control=91 value=55 time=0
EXTRACT: control_change channel=11 control=6 value=2 time=0
EXTRACT: control_change channel=11 control=7 value=100 time=0
EXTRACT: control_change channel=11 control=10 value=32 time=0
EXTRACT: control_change channel=11 control=11 value=127 time=0
EXTRACT: control_change channel=15 control=0 value=0 time=0
EXTRACT: control_change channel=15 control=32 value=0 time=0
EXTRACT: control_change channel=15 control=101 value=127 time=0
EXTRACT: control_change channel=15 control=100 value=127 time=0
EXTRACT: control_change channel=15 control=93 value=0 time=0
EXTRACT: control_change channel=15 control=91 value=55 time=0
EXTRACT: control_change channel=15 control=6 value=2 time=0
EXTRACT: control_change channel=15 control=7 value=110 time=0
EXTRACT: control_change channel=15 control=10 value=64 time=0
EXTRACT: control_change channel=15 control=11 value=127 time=0
EXTRACT: note_on channel=15 note=40 velocity=1 time=0
EXTRACT: note_on channel=15 note=56 velocity=1 time=0
EXTRACT: note_on channel=15 note=59 velocity=1 time=0
EXTRACT: note_on channel=15 note=64 velocity=1 time=0
EXTRACT: control_change channel=8 control=1 value=0 time=0.0011574083333333331
EXTRACT: note_on channel=9 note=36 velocity=0 time=0.010416674999999999
EXTRACT: note_on channel=9 note=41 velocity=0 time=0
EXTRACT: control_change channel=0 control=64 value=127 time=0.016203716666666663
EXTRACT: pitchwheel channel=3 pitch=-6144 time=0.011574083333333332
EXTRACT: pitchwheel channel=3 pitch=0 time=0.049768558333333324
EXTRACT: note_on channel=0 note=56 velocity=0 time=0.04050929166666666
EXTRACT: note_on channel=0 note=52 velocity=0 time=0.0046296333333333325
EXTRACT: pitchwheel channel=3 pitch=0 time=0.0046296333333333325
EXTRACT: note_on channel=2 note=56 velocity=0 time=0.049768558333333324
EXTRACT: note_on channel=1 note=40 velocity=0 time=0.026620391666666663
EXTRACT: note_on channel=2 note=59 velocity=0 time=0.03703706666666666
EXTRACT: note_on channel=2 note=64 velocity=0 time=0.024305574999999996
EXTRACT: note_on channel=0 note=52 velocity=50 time=0.0011574083333333331
EXTRACT: note_on channel=0 note=56 velocity=50 time=0
EXTRACT: note_on channel=1 note=40 velocity=103 time=0
EXTRACT: note_on channel=2 note=52 velocity=0 time=0.0034722249999999994
EXTRACT: note_on channel=2 note=40 velocity=0 time=0.03356484166666666
EXTRACT: note_on channel=2 note=47 velocity=0 time=0.02199075833333333
EXTRACT: note_on channel=0 note=56 velocity=0 time=0.006944449999999999
EXTRACT: control_change channel=6 control=64 value=127 time=0.009259266666666665
EXTRACT: note_on channel=0 note=52 velocity=0 time=0.006944449999999999
EXTRACT: note_on channel=4 note=68 velocity=0 time=0.006944449999999999
EXTRACT: note_on channel=4 note=56 velocity=0 time=0.025462983333333328
EXTRACT: control_change channel=15 control=64 value=127 time=0.011574083333333332
EXTRACT: note_on channel=3 note=68 velocity=0 time=0.016203716666666663
EXTRACT: note_on channel=0 note=40 velocity=0 time=0.017361124999999998
EXTRACT: note_on channel=1 note=40 velocity=0 time=0.06597227499999998
EXTRACT: note_on channel=0 note=52 velocity=50 time=0.05208337499999999
EXTRACT: note_on channel=0 note=56 velocity=50 time=0
EXTRACT: note_on channel=1 note=40 velocity=92 time=0
EXTRACT: note_on channel=2 note=40 velocity=50 time=0
EXTRACT: note_on channel=2 note=47 velocity=50 time=0
EXTRACT: note_on channel=2 note=52 velocity=51 time=0
EXTRACT: note_on channel=2 note=56 velocity=56 time=0
EXTRACT: note_on channel=2 note=59 velocity=57 time=0
EXTRACT: note_on channel=2 note=64 velocity=52 time=0
EXTRACT: note_on channel=9 note=36 velocity=104 time=0
EXTRACT: note_on channel=9 note=42 velocity=102 time=0
EXTRACT: note_on channel=9 note=54 velocity=116 time=0
EXTRACT: note_on channel=9 note=36 velocity=0 time=0.011574083333333332
EXTRACT: note_on channel=9 note=42 velocity=0 time=0
EXTRACT: note_on channel=9 note=54 velocity=0 time=0
EXTRACT: note_on channel=2 note=47 velocity=0 time=0.04861114999999999
EXTRACT: note_on channel=0 note=52 velocity=0 time=0.013888899999999997
EXTRACT: note_on channel=2 note=56 velocity=0 time=0.008101858333333331
EXTRACT: note_on channel=2 note=64 velocity=0 time=0.009259266666666665
EXTRACT: note_on channel=2 note=59 velocity=0 time=0.02199075833333333
EXTRACT: note_on channel=0 note=56 velocity=0 time=0.0011574083333333331
EXTRACT: note_on channel=2 note=52 velocity=0 time=0
EXTRACT: note_on channel=2 note=40 velocity=0 time=0.053240783333333326
EXTRACT: control_change channel=10 control=64 value=127 time=0.011574083333333332
EXTRACT: note_on channel=1 note=40 velocity=0 time=0.03587965833333333
EXTRACT: note_on channel=0 note=40 velocity=72 time=0.06250004999999999
EXTRACT: note_on channel=0 note=52 velocity=65 time=0
EXTRACT: note_on channel=0 note=56 velocity=65 time=0
EXTRACT: note_on channel=1 note=40 velocity=91 time=0
EXTRACT: note_on channel=2 note=40 velocity=50 time=0
EXTRACT: note_on channel=2 note=47 velocity=63 time=0
EXTRACT: note_on channel=2 note=52 velocity=67 time=0
EXTRACT: note_on channel=2 note=56 velocity=77 time=0
EXTRACT: note_on channel=2 note=59 velocity=76 time=0
EXTRACT: note_on channel=2 note=64 velocity=63 time=0
EXTRACT: note_on channel=9 note=41 velocity=113 time=0
EXTRACT: note_on channel=9 note=41 velocity=0 time=0.011574083333333332
EXTRACT: note_on channel=0 note=52 velocity=0 time=0.10416674999999997
EXTRACT: note_on channel=0 note=56 velocity=0 time=0.017361124999999998
EXTRACT: note_on channel=1 note=40 velocity=0 time=0.07754635833333332
EXTRACT: note_on channel=2 note=56 velocity=0 time=0.042824108333333326
EXTRACT: note_on channel=2 note=52 velocity=0 time=0.006944449999999999
EXTRACT: note_on channel=0 note=52 velocity=50 time=0.017361124999999998
EXTRACT: note_on channel=0 note=56 velocity=50 time=0
EXTRACT: note_on channel=1 note=40 velocity=97 time=0
EXTRACT: note_on channel=3 note=59 velocity=77 time=0
EXTRACT: note_on channel=4 note=47 velocity=81 time=0
EXTRACT: note_on channel=4 note=59 velocity=98 time=0
EXTRACT: note_on channel=9 note=36 velocity=104 time=0
EXTRACT: note_on channel=2 note=64 velocity=0 time=0.0023148166666666662
EXTRACT: note_on channel=9 note=36 velocity=0 time=0.009259266666666665
EXTRACT: note_on channel=2 note=40 velocity=0 time=0.015046308333333331
EXTRACT: note_on channel=2 note=59 velocity=0 time=0.008101858333333331
EXTRACT: note_on channel=2 note=47 velocity=0 time=0.01967594166666666
EXTRACT: note_on channel=0 note=52 velocity=0 time=0.024305574999999996
EXTRACT: note_on channel=0 note=56 velocity=0 time=0.05439819166666666
EXTRACT: note_on channel=1 note=40 velocity=0 time=0.08333339999999999
EXTRACT: note_on channel=0 note=52 velocity=50 time=0.061342641666666656
EXTRACT: note_on channel=0 note=56 velocity=50 time=0
EXTRACT: note_on channel=1 note=40 velocity=78 time=0
EXTRACT: note_on channel=2 note=40 velocity=50 time=0
EXTRACT: note_on channel=2 note=47 velocity=50 time=0
EXTRACT: note_on channel=2 note=52 velocity=50 time=0
EXTRACT: note_on channel=2 note=56 velocity=61 time=0
EXTRACT: note_on channel=2 note=59 velocity=52 time=0
EXTRACT: note_on channel=2 note=64 velocity=50 time=0
EXTRACT: note_on channel=9 note=42 velocity=102 time=0
EXTRACT: note_on channel=9 note=54 velocity=116 time=0
EXTRACT: note_on channel=3 note=59 velocity=0 time=0.005787041666666666
EXTRACT: note_on channel=9 note=42 velocity=0 time=0.005787041666666666
EXTRACT: note_on channel=9 note=54 velocity=0 time=0
EXTRACT: note_on channel=4 note=47 velocity=0 time=0.024305574999999996
EXTRACT: note_on channel=2 note=52 velocity=0 time=0.04050929166666666
EXTRACT: note_on channel=2 note=56 velocity=0 time=0
EXTRACT: note_on channel=0 note=52 velocity=0 time=0.005787041666666666
EXTRACT: note_on channel=2 note=64 velocity=0 time=0.0046296333333333325
EXTRACT: note_on channel=4 note=59 velocity=0 time=0.010416674999999999
EXTRACT: note_on channel=2 note=40 velocity=0 time=0.020833349999999997
EXTRACT: note_on channel=2 note=59 velocity=0 time=0
EXTRACT: note_on channel=0 note=56 velocity=0 time=0.0034722249999999994
EXTRACT: note_on channel=2 note=47 velocity=0 time=0.023148166666666664
EXTRACT: note_on channel=1 note=40 velocity=0 time=0.06828709166666666
EXTRACT: note_on channel=0 note=52 velocity=70 time=0.06481486666666665
EXTRACT: note_on channel=0 note=56 velocity=64 time=0
EXTRACT: note_on channel=1 note=40 velocity=85 time=0
EXTRACT: note_on channel=2 note=40 velocity=50 time=0
EXTRACT: note_on channel=2 note=47 velocity=58 time=0
EXTRACT: note_on channel=2 note=52 velocity=66 time=0
EXTRACT: note_on channel=2 note=56 velocity=68 time=0
EXTRACT: note_on channel=2 note=59 velocity=81 time=0
EXTRACT: note_on channel=2 note=64 velocity=61 time=0
EXTRACT: note_on channel=9 note=36 velocity=112 time=0
EXTRACT: note_on channel=9 note=40 velocity=103 time=0
EXTRACT: note_on channel=9 note=36 velocity=0 time=0.011574083333333332
EXTRACT: note_on channel=9 note=40 velocity=0 time=0
EXTRACT: note_on channel=0 note=40 velocity=0 time=0.009259266666666665
EXTRACT: note_on channel=2 note=56 velocity=0 time=0.07523154166666665
EXTRACT: note_on channel=2 note=59 velocity=0 time=0.025462983333333328
EXTRACT: note_on channel=2 note=52 velocity=0 time=0.005787041666666666
EXTRACT: note_on channel=0 note=52 velocity=0 time=0.008101858333333331
EXTRACT: note_on channel=0 note=56 velocity=0 time=0.006944449999999999
EXTRACT: note_on channel=2 note=64 velocity=0 time=0.006944449999999999
EXTRACT: note_on channel=2 note=47 velocity=0 time=0.016203716666666663
EXTRACT: note_on channel=2 note=40 velocity=0 time=0.04050929166666666
EXTRACT: note_on channel=1 note=40 velocity=0 time=0.015046308333333331
EXTRACT: note_on channel=0 note=52 velocity=50 time=0.05671300833333332
EXTRACT: note_on channel=0 note=56 velocity=50 time=0
EXTRACT: note_on channel=1 note=40 velocity=87 time=0
EXTRACT: note_on channel=2 note=40 velocity=50 time=0
EXTRACT: note_on channel=2 note=47 velocity=50 time=0
EXTRACT: note_on channel=2 note=52 velocity=50 time=0
EXTRACT: note_on channel=2 note=56 velocity=50 time=0
EXTRACT: note_on channel=2 note=59 velocity=58 time=0
EXTRACT: note_on channel=2 note=64 velocity=50 time=0
EXTRACT: note_on channel=9 note=54 velocity=50 time=0
EXTRACT: note_on channel=9 note=54 velocity=0 time=0.011574083333333332
EXTRACT: note_on channel=2 note=56 velocity=0 time=0.04050929166666666
EXTRACT: note_on channel=2 note=52 velocity=0 time=0.010416674999999999
EXTRACT: note_on channel=0 note=52 velocity=0 time=0.005787041666666666
EXTRACT: note_on channel=6 note=56 velocity=0 time=0
EXTRACT: note_on channel=9 note=54 velocity=50 time=0.0011574083333333331
EXTRACT: note_on channel=9 note=54 velocity=0 time=0.011574083333333332
EXTRACT: note_on channel=0 note=56 velocity=0 time=0.013888899999999997
EXTRACT: note_on channel=2 note=59 velocity=0 time=0.0011574083333333331
EXTRACT: note_on channel=2 note=47 velocity=0 time=0.0034722249999999994
EXTRACT: note_on channel=0 note=52 velocity=50 time=0.03935188333333332
EXTRACT: note_on channel=0 note=56 velocity=50 time=0
EXTRACT: note_on channel=2 note=47 velocity=50 time=0
EXTRACT: note_on channel=2 note=52 velocity=74 time=0
EXTRACT: note_on channel=2 note=56 velocity=78 time=0
EXTRACT: note_on channel=2 note=59 velocity=50 time=0
EXTRACT: note_on channel=9 note=54 velocity=61 time=0
EXTRACT: note_on channel=9 note=54 velocity=0 time=0.011574083333333332
EXTRACT: note_on channel=6 note=40 velocity=0 time=0.0011574083333333331
EXTRACT: note_on channel=0 note=56 velocity=0 time=0.032407433333333326
EXTRACT: note_on channel=2 note=47 velocity=0 time=0.0046296333333333325
EXTRACT: note_on channel=0 note=52 velocity=0 time=0.0046296333333333325
EXTRACT: note_on channel=1 note=40 velocity=0 time=0
EXTRACT: note_on channel=2 note=52 velocity=0 time=0
EXTRACT: note_on channel=9 note=54 velocity=95 time=0.015046308333333331
EXTRACT: note_on channel=2 note=64 velocity=0 time=0.0011574083333333331
EXTRACT: note_on channel=2 note=40 velocity=0 time=0.0023148166666666662
EXTRACT: note_on channel=9 note=54 velocity=0 time=0.008101858333333331
EXTRACT: note_on channel=2 note=56 velocity=0 time=0.0011574083333333331
EXTRACT: note_on channel=2 note=59 velocity=0 time=0.009259266666666665
EXTRACT: note_on channel=0 note=40 velocity=72 time=0.04745374166666666
EXTRACT: note_on channel=0 note=52 velocity=61 time=0
EXTRACT: note_on channel=0 note=56 velocity=50 time=0
EXTRACT: note_on channel=1 note=40 velocity=74 time=0
EXTRACT: note_on channel=2 note=40 velocity=50 time=0
EXTRACT: note_on channel=2 note=47 velocity=56 time=0
EXTRACT: note_on channel=2 note=52 velocity=79 time=0
EXTRACT: note_on channel=2 note=56 velocity=68 time=0
EXTRACT: note_on channel=2 note=59 velocity=91 time=0
EXTRACT: note_on channel=2 note=64 velocity=50 time=0
EXTRACT: note_on channel=3 note=59 velocity=70 time=0
EXTRACT: note_on channel=4 note=47 velocity=71 time=0
EXTRACT: note_on channel=4 note=59 velocity=93 time=0
EXTRACT: note_on channel=6 note=40 velocity=59 time=0
EXTRACT: note_on channel=6 note=56 velocity=57 time=0
EXTRACT: note_on channel=9 note=36 velocity=103 time=0
EXTRACT: note_on channel=9 note=41 velocity=107 time=0
EXTRACT: note_on channel=9 note=54 velocity=100 time=0
EXTRACT: note_on channel=9 note=36 velocity=0 time=0.011574083333333332
EXTRACT: note_on channel=9 note=41 velocity=0 time=0
EXTRACT: note_on channel=9 note=54 velocity=0 time=0
EXTRACT: note_on channel=0 note=52 velocity=0 time=0.10648156666666665
EXTRACT: note_on channel=0 note=56 velocity=0 time=0.026620391666666663
EXTRACT: note_on channel=2 note=52 velocity=0 time=0.016203716666666663
EXTRACT: note_on channel=2 note=56 velocity=0 time=0.005787041666666666
EXTRACT: note_on channel=2 note=64 velocity=0 time=0.0034722249999999994
EXTRACT: note_on channel=2 note=40 velocity=0 time=0.012731491666666664
EXTRACT: note_on channel=2 note=59 velocity=0 time=0.011574083333333332
EXTRACT: note_on channel=1 note=40 velocity=0 time=0.01967594166666666
EXTRACT: note_on channel=4 note=47 velocity=0 time=0.02199075833333333
EXTRACT: note_on channel=2 note=47 velocity=0 time=0.0046296333333333325
EXTRACT: note_on channel=4 note=59 velocity=0 time=0.0034722249999999994
EXTRACT: note_on channel=3 note=59 velocity=0 time=0.012731491666666664
EXTRACT: note_on channel=0 note=52 velocity=50 time=0.020833349999999997
EXTRACT: note_on channel=0 note=56 velocity=50 time=0
EXTRACT: note_on channel=1 note=40 velocity=78 time=0
EXTRACT: note_on channel=3 note=68 velocity=74 time=0
EXTRACT: note_on channel=4 note=56 velocity=82 time=0
EXTRACT: note_on channel=4 note=68 velocity=86 time=0
EXTRACT: note_on channel=6 note=56 velocity=0 time=0.05671300833333332
EXTRACT: note_on channel=0 note=52 velocity=0 time=0.026620391666666663
EXTRACT: note_on channel=0 note=56 velocity=0 time=0.031250024999999994
EXTRACT: note_on channel=4 note=56 velocity=0 time=0.10069452499999998
EXTRACT: note_on channel=3 note=68 velocity=0 time=0.005787041666666666
EXTRACT: note_on channel=1 note=40 velocity=0 time=0.0011574083333333331
EXTRACT: note_on channel=4 note=68 velocity=0 time=0.0046296333333333325
EXTRACT: note_on channel=0 note=52 velocity=50 time=0.050925966666666656
EXTRACT: note_on channel=0 note=56 velocity=50 time=0
EXTRACT: note_on channel=1 note=40 velocity=89 time=0
EXTRACT: note_on channel=2 note=40 velocity=50 time=0
EXTRACT: note_on channel=2 note=47 velocity=50 time=0
EXTRACT: note_on channel=2 note=52 velocity=50 time=0
EXTRACT: note_on channel=2 note=56 velocity=63 time=0
EXTRACT: note_on channel=2 note=59 velocity=63 time=0
EXTRACT: note_on channel=2 note=64 velocity=56 time=0
EXTRACT: note_on channel=3 note=68 velocity=81 time=0
EXTRACT: note_on channel=4 note=56 velocity=84 time=0
EXTRACT: note_on channel=4 note=68 velocity=83 time=0
EXTRACT: note_on channel=6 note=59 velocity=0 time=0
EXTRACT: note_on channel=9 note=36 velocity=100 time=0
EXTRACT: note_on channel=9 note=42 velocity=106 time=0
EXTRACT: note_on channel=9 note=54 velocity=116 time=0
EXTRACT: note_on channel=9 note=36 velocity=0 time=0.011574083333333332
EXTRACT: note_on channel=9 note=42 velocity=0 time=0
EXTRACT: note_on channel=9 note=54 velocity=0 time=0
EXTRACT: note_on channel=0 note=40 velocity=0 time=0.027777799999999995
EXTRACT: note_on channel=0 note=52 velocity=0 time=0.023148166666666664
EXTRACT: note_on channel=2 note=64 velocity=0 time=0.016203716666666663
EXTRACT: note_on channel=2 note=56 velocity=0 time=0.008101858333333331
EXTRACT: note_on channel=0 note=56 velocity=0 time=0.02199075833333333
EXTRACT: note_on channel=2 note=59 velocity=0 time=0.0023148166666666662
EXTRACT: note_on channel=2 note=52 velocity=0 time=0.0011574083333333331
EXTRACT: note_on channel=2 note=47 velocity=0 time=0.01851853333333333
EXTRACT: note_on channel=2 note=40 velocity=0 time=0.027777799999999995
EXTRACT: note_on channel=1 note=40 velocity=0 time=0.04861114999999999
EXTRACT: pitchwheel channel=3 pitch=-256 time=0.0046296333333333325
EXTRACT: note_on channel=3 note=68 velocity=0 time=0.01967594166666666
EXTRACT: note_on channel=4 note=56 velocity=0 time=0.015046308333333331
EXTRACT: pitchwheel channel=3 pitch=-5888 time=0.016203716666666663
EXTRACT: note_on channel=4 note=68 velocity=0 time=0.005787041666666666
EXTRACT: note_on channel=0 note=40 velocity=71 time=0.009259266666666665
EXTRACT: note_on channel=0 note=52 velocity=62 time=0
EXTRACT: note_on channel=0 note=56 velocity=70 time=0
EXTRACT: note_on channel=1 note=40 velocity=81 time=0
EXTRACT: note_on channel=2 note=40 velocity=50 time=0
EXTRACT: note_on channel=2 note=47 velocity=50 time=0
EXTRACT: note_on channel=2 note=52 velocity=73 time=0
EXTRACT: note_on channel=2 note=56 velocity=81 time=0
EXTRACT: note_on channel=2 note=59 velocity=82 time=0
EXTRACT: note_on channel=2 note=64 velocity=64 time=0
EXTRACT: note_on channel=3 note=69 velocity=77 time=0
EXTRACT: note_on channel=4 note=57 velocity=81 time=0
EXTRACT: note_on channel=4 note=69 velocity=83 time=0
EXTRACT: note_on channel=6 note=56 velocity=70 time=0
EXTRACT: note_on channel=6 note=59 velocity=81 time=0
EXTRACT: note_on channel=9 note=41 velocity=109 time=0
EXTRACT: note_on channel=9 note=41 velocity=0 time=0.011574083333333332
EXTRACT: pitchwheel channel=3 pitch=-6912 time=0.023148166666666664
EXTRACT: pitchwheel channel=3 pitch=-5632 time=0.049768558333333324
EXTRACT: note_on channel=0 note=56 velocity=0 time=0.049768558333333324
EXTRACT: pitchwheel channel=3 pitch=-2688 time=0
EXTRACT: note_on channel=0 note=52 velocity=0 time=0.0023148166666666662
EXTRACT: note_on channel=2 note=52 velocity=0 time=0.03356484166666666
EXTRACT: pitchwheel channel=3 pitch=-640 time=0.015046308333333331
EXTRACT: note_on channel=2 note=40 velocity=0 time=0.017361124999999998
EXTRACT: note_on channel=2 note=56 velocity=0 time=0.016203716666666663
EXTRACT: note_on channel=1 note=40 velocity=0 time=0.011574083333333332
EXTRACT: pitchwheel channel=3 pitch=0 time=0.0046296333333333325
EXTRACT: note_on channel=2 note=47 velocity=0 time=0.026620391666666663
EXTRACT: note_on channel=2 note=64 velocity=0 time=0.006944449999999999
EXTRACT: note_on channel=2 note=59 velocity=0 time=0.005787041666666666
EXTRACT: note_on channel=0 note=52 velocity=50 time=0.0034722249999999994
EXTRACT: note_on channel=0 note=56 velocity=50 time=0
EXTRACT: note_on channel=1 note=40 velocity=84 time=0
EXTRACT: note_on channel=9 note=36 velocity=105 time=0
EXTRACT: pitchwheel channel=3 pitch=0 time=0.006944449999999999
EXTRACT: note_on channel=9 note=36 velocity=0 time=0.0046296333333333325
EXTRACT: note_on channel=6 note=40 velocity=0 time=0.053240783333333326
EXTRACT: note_on channel=0 note=52 velocity=0 time=0.008101858333333331
EXTRACT: note_on channel=0 note=56 velocity=0 time=0.023148166666666664
EXTRACT: note_on channel=6 note=56 velocity=0 time=0.06481486666666665
EXTRACT: note_on channel=1 note=40 velocity=0 time=0.05439819166666666
EXTRACT: note_on channel=4 note=57 velocity=0 time=0.042824108333333326
EXTRACT: note_on channel=0 note=52 velocity=50 time=0.01967594166666666
EXTRACT: note_on channel=0 note=56 velocity=50 time=0
EXTRACT: note_on channel=1 note=40 velocity=82 time=0
EXTRACT: note_on channel=2 note=40 velocity=50 time=0
EXTRACT: note_on channel=2 note=47 velocity=50 time=0
EXTRACT: note_on channel=2 note=52 velocity=50 time=0
EXTRACT: note_on channel=2 note=56 velocity=60 time=0
EXTRACT: note_on channel=2 note=59 velocity=66 time=0
EXTRACT: note_on channel=2 note=64 velocity=50 time=0
EXTRACT: note_on channel=3 note=68 velocity=77 time=0
EXTRACT: note_on channel=4 note=56 velocity=79 time=0
EXTRACT: note_on channel=4 note=68 velocity=90 time=0
EXTRACT: note_on channel=6 note=40 velocity=58 time=0
EXTRACT: note_on channel=9 note=42 velocity=106 time=0
EXTRACT: note_on channel=9 note=54 velocity=116 time=0
EXTRACT: note_on channel=3 note=69 velocity=0 time=0.0046296333333333325
EXTRACT: note_on channel=9 note=42 velocity=0 time=0.006944449999999999
EXTRACT: note_on channel=9 note=54 velocity=0 time=0
EXTRACT: note_on channel=4 note=69 velocity=0 time=0.013888899999999997
EXTRACT: note_on channel=2 note=64 velocity=0 time=0.04629633333333333
EXTRACT: note_on channel=0 note=52 velocity=0 time=0.011574083333333332
EXTRACT: note_on channel=2 note=56 velocity=0 time=0.006944449999999999
EXTRACT: note_on channel=2 note=52 velocity=0 time=0.011574083333333332
EXTRACT: note_on channel=0 note=56 velocity=0 time=0.0023148166666666662
EXTRACT: note_on channel=2 note=59 velocity=0 time=0.010416674999999999
EXTRACT: note_on channel=6 note=28 velocity=0 time=0.009259266666666665
EXTRACT: note_on channel=2 note=47 velocity=0 time=0.0023148166666666662
EXTRACT: note_on channel=2 note=40 velocity=0 time=0.0023148166666666662
EXTRACT: note_on channel=1 note=40 velocity=0 time=0.07870376666666665
EXTRACT: note_on channel=3 note=68 velocity=0 time=0.06944449999999999
EXTRACT: note_on channel=0 note=52 velocity=57 time=0.0011574083333333331
EXTRACT: note_on channel=0 note=56 velocity=67 time=0
EXTRACT: note_on channel=1 note=40 velocity=85 time=0
EXTRACT: note_on channel=2 note=40 velocity=50 time=0
EXTRACT: note_on channel=2 note=47 velocity=53 time=0
EXTRACT: note_on channel=2 note=52 velocity=61 time=0
EXTRACT: note_on channel=2 note=56 velocity=62 time=0
EXTRACT: note_on channel=2 note=59 velocity=78 time=0
EXTRACT: note_on channel=2 note=64 velocity=63 time=0
EXTRACT: note_on channel=3 note=66 velocity=77 time=0
EXTRACT: note_on channel=4 note=68 velocity=0 time=0
EXTRACT: note_on channel=4 note=54 velocity=81 time=0
EXTRACT: note_on channel=4 note=66 velocity=93 time=0
EXTRACT: note_on channel=6 note=56 velocity=83 time=0
EXTRACT: note_on channel=9 note=36 velocity=110 time=0
EXTRACT: note_on channel=9 note=40 velocity=109 time=0
EXTRACT: note_on channel=9 note=36 velocity=0 time=0.011574083333333332
EXTRACT: note_on channel=9 note=40 velocity=0 time=0
EXTRACT: note_on channel=4 note=56 velocity=0 time=0.010416674999999999
EXTRACT: note_on channel=6 note=59 velocity=0 time=0.009259266666666665
EXTRACT: note_on channel=6 note=40 velocity=0 time=0.005787041666666666
EXTRACT: note_on channel=2 note=56 velocity=0 time=0.008101858333333331
EXTRACT: note_on channel=2 note=59 velocity=0 time=0.0011574083333333331
EXTRACT: note_on channel=2 note=52 velocity=0 time=0.0011574083333333331
EXTRACT: note_on channel=2 note=47 velocity=0 time=0.0011574083333333331
EXTRACT: note_on channel=2 note=64 velocity=0 time=0.0034722249999999994
EXTRACT: note_on channel=6 note=64 velocity=0 time=0.020833349999999997
EXTRACT: note_on channel=2 note=40 velocity=0 time=0.0023148166666666662
EXTRACT: note_on channel=0 note=40 velocity=0 time=0.0046296333333333325
EXTRACT: note_on channel=0 note=52 velocity=0 time=0.024305574999999996
EXTRACT: note_on channel=0 note=56 velocity=0 time=0.023148166666666664
EXTRACT: note_on channel=2 note=40 velocity=50 time=0.011574083333333332
EXTRACT: note_on channel=2 note=47 velocity=50 time=0
EXTRACT: note_on channel=2 note=52 velocity=61 time=0
EXTRACT: note_on channel=2 note=56 velocity=52 time=0
EXTRACT: note_on channel=2 note=59 velocity=62 time=0
EXTRACT: note_on channel=2 note=64 velocity=65 time=0
EXTRACT: note_on channel=15 note=56 velocity=0 time=0.031250024999999994
EXTRACT: note_on channel=2 note=64 velocity=0 time=0.011574083333333332
EXTRACT: note_on channel=2 note=47 velocity=0 time=0.008101858333333331
EXTRACT: note_on channel=2 note=56 velocity=0 time=0
EXTRACT: note_on channel=1 note=40 velocity=0 time=0.023148166666666664
EXTRACT: note_on channel=2 note=59 velocity=0 time=0.0023148166666666662
EXTRACT: note_on channel=2 note=52 velocity=0 time=0.0023148166666666662
EXTRACT: note_on channel=15 note=59 velocity=0 time=0.015046308333333331
EXTRACT: note_on channel=15 note=64 velocity=0 time=0.03587965833333333
EXTRACT: note_on channel=3 note=66 velocity=0 time=0.0023148166666666662
EXTRACT: note_on channel=4 note=66 velocity=0 time=0.0023148166666666662
EXTRACT: note_on channel=0 note=52 velocity=50 time=0.0046296333333333325
EXTRACT: note_on channel=0 note=56 velocity=50 time=0
EXTRACT: note_on channel=1 note=40 velocity=97 time=0
EXTRACT: note_on channel=2 note=47 velocity=50 time=0
EXTRACT: note_on channel=2 note=52 velocity=50 time=0
EXTRACT: note_on channel=2 note=56 velocity=50 time=0
EXTRACT: note_on channel=2 note=59 velocity=72 time=0
EXTRACT: note_on channel=2 note=64 velocity=50 time=0
EXTRACT: note_on channel=3 note=64 velocity=66 time=0
EXTRACT: note_on channel=4 note=52 velocity=82 time=0
EXTRACT: note_on channel=4 note=64 velocity=92 time=0
EXTRACT: note_on channel=6 note=59 velocity=67 time=0
EXTRACT: note_on channel=9 note=54 velocity=50 time=0
EXTRACT: note_on channel=4 note=54 velocity=0 time=0.009259266666666665
EXTRACT: note_on channel=6 note=56 velocity=0 time=0
EXTRACT: note_on channel=9 note=54 velocity=0 time=0.0023148166666666662
EXTRACT: note_on channel=10 note=56 velocity=0 time=0.012731491666666664
EXTRACT: note_on channel=2 note=59 velocity=0 time=0.016203716666666663
EXTRACT: note_on channel=2 note=56 velocity=0 time=0.0034722249999999994
EXTRACT: note_on channel=2 note=47 velocity=0 time=0.011574083333333332
EXTRACT: note_on channel=2 note=64 velocity=0 time=0.0034722249999999994
EXTRACT: note_on channel=2 note=52 velocity=0 time=0.0023148166666666662
EXTRACT: note_on channel=9 note=54 velocity=54 time=0.008101858333333331
EXTRACT: note_on channel=0 note=52 velocity=0 time=0.008101858333333331
EXTRACT: note_on channel=9 note=54 velocity=0 time=0.0034722249999999994
EXTRACT: note_on channel=6 note=59 velocity=0 time=0.0034722249999999994
EXTRACT: note_on channel=0 note=56 velocity=0 time=0.0023148166666666662
EXTRACT: note_on channel=2 note=47 velocity=50 time=0.05208337499999999
EXTRACT: note_on channel=2 note=52 velocity=63 time=0
EXTRACT: note_on channel=2 note=56 velocity=58 time=0
EXTRACT: note_on channel=2 note=59 velocity=81 time=0
EXTRACT: note_on channel=2 note=64 velocity=70 time=0
EXTRACT: note_on channel=9 note=54 velocity=68 time=0
EXTRACT: note_on channel=9 note=54 velocity=0 time=0.011574083333333332
EXTRACT: pitchwheel channel=3 pitch=-1536 time=0.023148166666666664
EXTRACT: note_on channel=2 note=59 velocity=0 time=0.0011574083333333331
EXTRACT: note_on channel=2 note=64 velocity=0 time=0.006944449999999999
EXTRACT: note_on channel=2 note=47 velocity=0 time=0.006944449999999999
EXTRACT: note_on channel=2 note=40 velocity=0 time=0.01967594166666666
EXTRACT: note_on channel=9 note=54 velocity=76 time=0
EXTRACT: note_on channel=10 note=40 velocity=0 time=0.0034722249999999994
EXTRACT: control_change channel=0 control=64 value=0 time=0.0011574083333333331
EXTRACT: note_on channel=9 note=54 velocity=0 time=0.006944449999999999
EXTRACT: note_on channel=2 note=56 velocity=0 time=0.0011574083333333331
EXTRACT: pitchwheel channel=3 pitch=-6528 time=0.0023148166666666662
EXTRACT: note_on channel=15 note=40 velocity=0 time=0.008101858333333331
EXTRACT: control_change channel=6 control=64 value=0 time=0.005787041666666666
EXTRACT: note_on channel=1 note=40 velocity=0 time=0.006944449999999999
EXTRACT: note_on channel=3 note=64 velocity=0 time=0
EXTRACT: note_on channel=2 note=52 velocity=0 time=0.0011574083333333331
EXTRACT: control_change channel=2 control=64 value=0 time=0.0034722249999999994
EXTRACT: control_change channel=10 control=64 value=0 time=0.020833349999999997
EXTRACT: note_on channel=0 note=47 velocity=77 time=0.008101858333333331
EXTRACT: note_on channel=0 note=52 velocity=58 time=0
EXTRACT: note_on channel=0 note=54 velocity=77 time=0
EXTRACT: note_on channel=1 note=35 velocity=92 time=0
EXTRACT: note_on channel=2 note=47 velocity=73 time=0
EXTRACT: note_on channel=2 note=54 velocity=93 time=0
EXTRACT: note_on channel=2 note=59 velocity=64 time=0
EXTRACT: note_on channel=2 note=63 velocity=85 time=0
EXTRACT: control_change channel=3 control=1 value=0 time=0
EXTRACT: note_on channel=3 note=68 velocity=79 time=0
EXTRACT: note_on channel=4 note=56 velocity=90 time=0
EXTRACT: note_on channel=4 note=68 velocity=98 time=0
EXTRACT: note_on channel=6 note=35 velocity=62 time=0
EXTRACT: note_on channel=6 note=47 velocity=63 time=0
EXTRACT: note_on channel=6 note=54 velocity=85 time=0
EXTRACT: note_on channel=6 note=59 velocity=81 time=0
EXTRACT: note_on channel=6 note=64 velocity=81 time=0
EXTRACT: note_on channel=7 note=78 velocity=98 time=0
EXTRACT: note_on channel=9 note=36 velocity=100 time=0
EXTRACT: note_on channel=9 note=41 velocity=107 time=0
EXTRACT: note_on channel=9 note=54 velocity=100 time=0
EXTRACT: note_on channel=10 note=47 velocity=68 time=0
EXTRACT: note_on channel=10 note=54 velocity=64 time=0
EXTRACT: note_on channel=15 note=47 velocity=1 time=0
EXTRACT: note_on channel=15 note=54 velocity=1 time=0
EXTRACT: note_on channel=15 note=59 velocity=1 time=0
EXTRACT: note_on channel=15 note=64 velocity=1 time=0
EXTRACT: note_on channel=9 note=36 velocity=0 time=0.011574083333333332
EXTRACT: note_on channel=9 note=41 velocity=0 time=0
EXTRACT: note_on channel=9 note=54 velocity=0 time=0
EXTRACT: control_change channel=15 control=64 value=0 time=0
EXTRACT: note_on channel=4 note=52 velocity=0 time=0.0034722249999999994
EXTRACT: note_on channel=4 note=64 velocity=0 time=0
EXTRACT: note_on channel=7 note=76 velocity=0 time=0.006944449999999999
EXTRACT: pitchwheel channel=3 pitch=-3328 time=0.024305574999999996
EXTRACT: pitchwheel channel=3 pitch=0 time=0.049768558333333324
EXTRACT: control_change channel=2 control=64 value=127 time=0.025462983333333328
EXTRACT: control_change channel=0 control=64 value=127 time=0.015046308333333331
EXTRACT: pitchwheel channel=3 pitch=0 time=0.009259266666666665
EXTRACT: note_on channel=0 note=52 velocity=0 time=0.0034722249999999994
EXTRACT: note_on channel=0 note=54 velocity=0 time=0.0034722249999999994
EXTRACT: control_change channel=3 control=1 value=1 time=0.023148166666666664
EXTRACT: note_on channel=1 note=35 velocity=0 time=0.053240783333333326
EXTRACT: control_change channel=10 control=64 value=127 time=0.012731491666666664
EXTRACT: control_change channel=3 control=1 value=2 time=0.02199075833333333
EXTRACT: note_on channel=0 note=52 velocity=50 time=0.013888899999999997
EXTRACT: note_on channel=0 note=54 velocity=50 time=0
EXTRACT: note_on channel=1 note=35 velocity=97 time=0
EXTRACT: note_on channel=4 note=68 velocity=0 time=0.06597227499999998
EXTRACT: control_change channel=3 control=1 value=3 time=0.009259266666666665
EXTRACT: note_on channel=2 note=54 velocity=0 time=0.0011574083333333331
EXTRACT: control_change channel=15 control=64 value=127 time=0.006944449999999999
EXTRACT: note_on channel=3 note=68 velocity=0 time=0.0034722249999999994
EXTRACT: note_on channel=0 note=52 velocity=0 time=0.0011574083333333331
EXTRACT: note_on channel=2 note=59 velocity=0 time=0.0046296333333333325
EXTRACT: note_on channel=4 note=56 velocity=0 time=0.0023148166666666662
EXTRACT: note_on channel=2 note=47 velocity=0 time=0.020833349999999997
EXTRACT: note_on channel=2 note=63 velocity=0 time=0.0011574083333333331
EXTRACT: note_on channel=0 note=54 velocity=0 time=0.005787041666666666
EXTRACT: control_change channel=3 control=1 value=4 time=0.04050929166666666
EXTRACT: control_change channel=6 control=64 value=127 time=0.01851853333333333
EXTRACT: note_on channel=1 note=35 velocity=0 time=0.03356484166666666
EXTRACT: control_change channel=3 control=1 value=5 time=0.03587965833333333
EXTRACT: note_on channel=0 note=52 velocity=50 time=0.026620391666666663
EXTRACT: note_on channel=0 note=54 velocity=58 time=0
EXTRACT: note_on channel=1 note=35 velocity=94 time=0
EXTRACT: note_on channel=2 note=47 velocity=63 time=0
EXTRACT: note_on channel=2 note=54 velocity=59 time=0
EXTRACT: note_on channel=2 note=59 velocity=64 time=0
EXTRACT: note_on channel=2 note=63 velocity=74 time=0
EXTRACT: note_on channel=9 note=36 velocity=99 time=0
EXTRACT: note_on channel=9 note=42 velocity=103 time=0
EXTRACT: note_on channel=9 note=54 velocity=116 time=0
EXTRACT: note_on channel=9 note=36 velocity=0 time=0.011574083333333332
EXTRACT: note_on channel=9 note=42 velocity=0 time=0
EXTRACT: note_on channel=9 note=54 velocity=0 time=0
EXTRACT: note_on channel=0 note=47 velocity=0 time=0.042824108333333326
EXTRACT: control_change channel=3 control=1 value=6 time=0.008101858333333331
EXTRACT: note_on channel=0 note=52 velocity=0 time=0.0046296333333333325
EXTRACT: note_on channel=2 note=54 velocity=0 time=0.03935188333333332
EXTRACT: note_on channel=2 note=47 velocity=0 time=0.005787041666666666
EXTRACT: note_on channel=0 note=54 velocity=0 time=0.0023148166666666662
EXTRACT: note_on channel=2 note=63 velocity=0 time=0.010416674999999999
EXTRACT: note_on channel=2 note=59 velocity=0 time=0.0011574083333333331
EXTRACT: control_change channel=3 control=1 value=7 time=0.024305574999999996
EXTRACT: control_change channel=3 control=1 value=8 time=0.08796303333333332
EXTRACT: note_on channel=1 note=35 velocity=0 time=0.0011574083333333331
EXTRACT: note_on channel=0 note=47 velocity=74 time=0.03819447499999999
EXTRACT: note_on channel=0 note=52 velocity=50 time=0
EXTRACT: note_on channel=0 note=54 velocity=62 time=0
EXTRACT: note_on channel=1 note=35 velocity=102 time=0
EXTRACT: note_on channel=2 note=47 velocity=82 time=0
EXTRACT: note_on channel=2 note=54 velocity=80 time=0
EXTRACT: note_on channel=2 note=59 velocity=60 time=0
EXTRACT: note_on channel=2 note=63 velocity=75 time=0
EXTRACT: note_on channel=9 note=41 velocity=109 time=0
EXTRACT: note_on channel=9 note=41 velocity=0 time=0.011574083333333332
EXTRACT: control_change channel=3 control=1 value=9 time=0.03819447499999999
EXTRACT: note_on channel=0 note=52 velocity=0 time=0.027777799999999995
EXTRACT: note_on channel=0 note=54 velocity=0 time=0.04398151666666666
EXTRACT: control_change channel=3 control=1 value=10 time=0.016203716666666663
EXTRACT: note_on channel=1 note=35 velocity=0 time=0.07870376666666665
EXTRACT: note_on channel=15 note=64 velocity=0 time=0.0034722249999999994
EXTRACT: control_change channel=3 control=1 value=11 time=0.005787041666666666
EXTRACT: control_change channel=6 control=64 value=0 time=0.0011574083333333331
EXTRACT: note_on channel=2 note=54 velocity=0 time=0.020833349999999997
EXTRACT: note_on channel=2 note=63 velocity=0 time=0.0023148166666666662
EXTRACT: control_change channel=10 control=64 value=0 time=0.008101858333333331
EXTRACT: note_on channel=0 note=52 velocity=50 time=0.01967594166666666
EXTRACT: note_on channel=0 note=54 velocity=50 time=0
EXTRACT: note_on channel=1 note=35 velocity=92 time=0
EXTRACT: note_on channel=3 note=66 velocity=63 time=0
EXTRACT: note_on channel=4 note=54 velocity=85 time=0
EXTRACT: note_on channel=4 note=66 velocity=95 time=0
EXTRACT: note_on channel=6 note=63 velocity=87 time=0
EXTRACT: note_on channel=7 note=87 velocity=86 time=0
EXTRACT: note_on channel=9 note=36 velocity=105 time=0
EXTRACT: note_on channel=10 note=63 velocity=55 time=0
EXTRACT: note_on channel=15 note=63 velocity=1 time=0
EXTRACT: control_change channel=15 control=64 value=0 time=0
EXTRACT: note_on channel=2 note=59 velocity=0 time=0.009259266666666665
EXTRACT: note_on channel=2 note=47 velocity=0 time=0
EXTRACT: note_on channel=9 note=36 velocity=0 time=0.0023148166666666662
EXTRACT: note_on channel=7 note=88 velocity=0 time=0.0023148166666666662
EXTRACT: note_on channel=6 note=64 velocity=0 time=0.013888899999999997
EXTRACT: control_change channel=3 control=1 value=12 time=0.009259266666666665
EXTRACT: note_on channel=10 note=64 velocity=0 time=0.01967594166666666
EXTRACT: note_on channel=0 note=52 velocity=0 time=0.0034722249999999994
EXTRACT: note_on channel=0 note=54 velocity=0 time=0.05787041666666665
EXTRACT: control_change channel=3 control=1 value=13 time=0.006944449999999999
EXTRACT: control_change channel=3 control=1 value=14 time=0
EXTRACT: control_change channel=3 control=1 value=31 time=0.017361124999999998
EXTRACT: control_change channel=3 control=1 value=49 time=0.017361124999999998
EXTRACT: control_change channel=3 control=1 value=66 time=0.016203716666666663
EXTRACT: control_change channel=10 control=64 value=127 time=0.0046296333333333325
EXTRACT: control_change channel=3 control=1 value=81 time=0.012731491666666664
EXTRACT: control_change channel=3 control=1 value=96 time=0.017361124999999998
EXTRACT: note_on channel=1 note=35 velocity=0 time=0.0034722249999999994
EXTRACT: control_change channel=3 control=1 value=109 time=0.011574083333333332
EXTRACT: control_change channel=3 control=1 value=114 time=0.017361124999999998
EXTRACT: control_change channel=3 control=1 value=119 time=0.017361124999999998
EXTRACT: control_change channel=3 control=1 value=124 time=0.015046308333333331
EXTRACT: note_on channel=0 note=52 velocity=50 time=0.0023148166666666662
EXTRACT: note_on channel=0 note=54 velocity=50 time=0
EXTRACT: note_on channel=1 note=35 velocity=100 time=0
EXTRACT: note_on channel=2 note=47 velocity=50 time=0
EXTRACT: note_on channel=2 note=54 velocity=50 time=0
EXTRACT: note_on channel=2 note=59 velocity=61 time=0
EXTRACT: note_on channel=2 note=63 velocity=55 time=0
EXTRACT: note_on channel=9 note=42 velocity=106 time=0
EXTRACT: note_on channel=9 note=54 velocity=116 time=0
EXTRACT: note_on channel=9 note=42 velocity=0 time=0.011574083333333332
EXTRACT: note_on channel=9 note=54 velocity=0 time=0
EXTRACT: control_change channel=3 control=1 value=119 time=0.020833349999999997
EXTRACT: control_change channel=3 control=1 value=116 time=0.015046308333333331
EXTRACT: note_on channel=2 note=54 velocity=0 time=0.011574083333333332
EXTRACT: note_on channel=0 note=52 velocity=0 time=0.005787041666666666
EXTRACT: control_change channel=3 control=1 value=107 time=0
EXTRACT: control_change channel=6 control=64 value=127 time=0.006944449999999999
EXTRACT: note_on channel=4 note=54 velocity=0 time=0.009259266666666665
EXTRACT: control_change channel=3 control=1 value=97 time=0.0011574083333333331
EXTRACT: control_change channel=3 control=1 value=88 time=0.016203716666666663
EXTRACT: note_on channel=2 note=47 velocity=0 time=0.008101858333333331
EXTRACT: note_on channel=2 note=59 velocity=0 time=0.0046296333333333325
EXTRACT: note_on channel=0 note=54 velocity=0 time=0.0034722249999999994
EXTRACT: control_change channel=3 control=1 value=76 time=0.0011574083333333331
EXTRACT: control_change channel=15 control=64 value=127 time=0.006944449999999999
EXTRACT: control_change channel=3 control=1 value=63 time=0.010416674999999999
EXTRACT: note_on channel=4 note=66 velocity=0 time=0.0046296333333333325
EXTRACT: note_on channel=2 note=63 velocity=0 time=0.005787041666666666
EXTRACT: control_change channel=3 control=1 value=52 time=0.0046296333333333325
EXTRACT: control_change channel=3 control=1 value=36 time=0.017361124999999998
EXTRACT: note_on channel=3 note=66 velocity=0 time=0.016203716666666663
EXTRACT: control_change channel=3 control=1 value=19 time=0
EXTRACT: control_change channel=3 control=1 value=4 time=0.016203716666666663
EXTRACT: note_on channel=1 note=35 velocity=0 time=0.027777799999999995
EXTRACT: control_change channel=3 control=1 value=2 time=0.006944449999999999
EXTRACT: control_change channel=3 control=1 value=0 time=0.015046308333333331
EXTRACT: note_on channel=0 note=52 velocity=65 time=0.030092616666666662
EXTRACT: note_on channel=0 note=54 velocity=82 time=0
EXTRACT: note_on channel=1 note=35 velocity=94 time=0
EXTRACT: note_on channel=2 note=47 velocity=80 time=0
EXTRACT: note_on channel=2 note=54 velocity=78 time=0
EXTRACT: note_on channel=2 note=59 velocity=66 time=0
EXTRACT: note_on channel=2 note=63 velocity=57 time=0
EXTRACT: note_on channel=9 note=36 velocity=110 time=0
EXTRACT: note_on channel=9 note=40 velocity=103 time=0
EXTRACT: note_on channel=9 note=36 velocity=0 time=0.011574083333333332
EXTRACT: note_on channel=9 note=40 velocity=0 time=0
EXTRACT: note_on channel=2 note=54 velocity=0 time=0.08680562499999998
EXTRACT: note_on channel=0 note=52 velocity=0 time=0.03356484166666666
EXTRACT: note_on channel=0 note=54 velocity=0 time=0.015046308333333331
EXTRACT: note_on channel=2 note=63 velocity=0 time=0.0011574083333333331
EXTRACT: note_on channel=2 note=47 velocity=0 time=0.0011574083333333331
EXTRACT: note_on channel=2 note=59 velocity=0 time=0.0023148166666666662
EXTRACT: note_on channel=1 note=35 velocity=0 time=0.04861114999999999
EXTRACT: note_on channel=0 note=47 velocity=0 time=0.01967594166666666
EXTRACT: pitchwheel channel=3 pitch=0 time=0.013888899999999997
EXTRACT: note_on channel=0 note=52 velocity=50 time=0.04398151666666666
EXTRACT: note_on channel=0 note=54 velocity=50 time=0
EXTRACT: note_on channel=1 note=35 velocity=99 time=0
EXTRACT: note_on channel=2 note=47 velocity=50 time=0
EXTRACT: note_on channel=2 note=54 velocity=50 time=0
EXTRACT: note_on channel=2 note=59 velocity=59 time=0
EXTRACT: note_on channel=2 note=63 velocity=50 time=0
EXTRACT: note_on channel=9 note=54 velocity=50 time=0
EXTRACT: pitchwheel channel=3 pitch=0 time=0.006944449999999999
EXTRACT: note_on channel=9 note=54 velocity=0 time=0.0046296333333333325
EXTRACT: note_on channel=2 note=54 velocity=0 time=0.03356484166666666
EXTRACT: note_on channel=2 note=63 velocity=0 time=0.009259266666666665
EXTRACT: note_on channel=0 note=54 velocity=0 time=0.008101858333333331
EXTRACT: note_on channel=2 note=47 velocity=0 time=0.0011574083333333331
EXTRACT: note_on channel=0 note=52 velocity=0 time=0.0023148166666666662
EXTRACT: note_on channel=9 note=54 velocity=50 time=0.0034722249999999994
EXTRACT: note_on channel=9 note=54 velocity=0 time=0.011574083333333332
EXTRACT: note_on channel=2 note=59 velocity=0 time=0.012731491666666664
EXTRACT: note_on channel=6 note=54 velocity=0 time=0.028935208333333327
EXTRACT: note_on channel=0 note=52 velocity=50 time=0.016203716666666663
EXTRACT: note_on channel=0 note=54 velocity=60 time=0
EXTRACT: note_on channel=2 note=47 velocity=62 time=0
EXTRACT: note_on channel=2 note=54 velocity=61 time=0
EXTRACT: note_on channel=2 note=59 velocity=50 time=0
EXTRACT: note_on channel=2 note=63 velocity=58 time=0
EXTRACT: note_on channel=9 note=54 velocity=61 time=0
EXTRACT: note_on channel=9 note=54 velocity=0 time=0.011574083333333332
EXTRACT: pitchwheel channel=3 pitch=0 time=0.005787041666666666
EXTRACT: note_on channel=6 note=47 velocity=0 time=0.015046308333333331
EXTRACT: note_on channel=0 note=54 velocity=0 time=0.009259266666666665
EXTRACT: note_on channel=1 note=35 velocity=0 time=0.009259266666666665
EXTRACT: note_on channel=2 note=63 velocity=0 time=0.0011574083333333331
EXTRACT: note_on channel=2 note=59 velocity=0 time=0.0023148166666666662
EXTRACT: pitchwheel channel=3 pitch=-4608 time=0.012731491666666664
EXTRACT: note_on channel=0 note=52 velocity=0 time=0.0011574083333333331
EXTRACT: note_on channel=2 note=47 velocity=0 time=0
EXTRACT: note_on channel=2 note=54 velocity=0 time=0.0011574083333333331
EXTRACT: note_on channel=9 note=54 velocity=95 time=0
EXTRACT: note_on channel=9 note=54 velocity=0 time=0.011574083333333332
EXTRACT: pitchwheel channel=3 pitch=-5632 time=0.03587965833333333
EXTRACT: note_on channel=0 note=47 velocity=80 time=0.02199075833333333
EXTRACT: note_on channel=0 note=52 velocity=50 time=0
EXTRACT: note_on channel=0 note=54 velocity=61 time=0
EXTRACT: note_on channel=1 note=35 velocity=87 time=0
EXTRACT: note_on channel=2 note=47 velocity=80 time=0
EXTRACT: note_on channel=2 note=54 velocity=82 time=0
EXTRACT: note_on channel=2 note=59 velocity=74 time=0
EXTRACT: note_on channel=2 note=63 velocity=75 time=0
EXTRACT: control_change channel=3 control=1 value=0 time=0
EXTRACT: note_on channel=3 note=68 velocity=83 time=0
EXTRACT: note_on channel=4 note=56 velocity=94 time=0
EXTRACT: note_on channel=4 note=68 velocity=87 time=0
EXTRACT: note_on channel=6 note=47 velocity=50 time=0
EXTRACT: note_on channel=6 note=54 velocity=50 time=0
EXTRACT: note_on channel=9 note=36 velocity=102 time=0
EXTRACT: note_on channel=9 note=41 velocity=103 time=0
EXTRACT: note_on channel=9 note=54 velocity=100 time=0
EXTRACT: note_on channel=9 note=36 velocity=0 time=0.011574083333333332
EXTRACT: note_on channel=9 note=41 velocity=0 time=0
EXTRACT: note_on channel=9 note=54 velocity=0 time=0
EXTRACT: pitchwheel channel=3 pitch=-3456 time=0.017361124999999998
EXTRACT: pitchwheel channel=3 pitch=0 time=0.049768558333333324
EXTRACT: note_on channel=0 note=52 velocity=0 time=0.04745374166666666
EXTRACT: note_on channel=0 note=54 velocity=0 time=0.011574083333333332
EXTRACT: note_on channel=2 note=54 velocity=0 time=0.041666699999999994
EXTRACT: note_on channel=2 note=59 velocity=0 time=0.03587965833333333
EXTRACT: note_on channel=2 note=63 velocity=0 time=0.0023148166666666662
EXTRACT: note_on channel=1 note=35 velocity=0 time=0.0011574083333333331
EXTRACT: note_on channel=4 note=68 velocity=0 time=0.0046296333333333325
EXTRACT: note_on channel=4 note=56 velocity=0 time=0
EXTRACT: note_on channel=2 note=47 velocity=0 time=0.0034722249999999994
EXTRACT: note_on channel=3 note=68 velocity=0 time=0.023148166666666664
EXTRACT: note_on channel=0 note=52 velocity=50 time=0.027777799999999995
EXTRACT: note_on channel=0 note=54 velocity=50 time=0
EXTRACT: note_on channel=1 note=35 velocity=86 time=0
EXTRACT: note_on channel=3 note=68 velocity=81 time=0
EXTRACT: note_on channel=4 note=56 velocity=79 time=0
EXTRACT: note_on channel=4 note=68 velocity=83 time=0
EXTRACT: note_on channel=0 note=52 velocity=0 time=0.09259266666666666
EXTRACT: note_on channel=0 note=54 velocity=0 time=0.02199075833333333
EXTRACT: note_on channel=3 note=68 velocity=0 time=0.09375007499999999
EXTRACT: note_on channel=4 note=56 velocity=0 time=0.0034722249999999994
EXTRACT: note_on channel=4 note=68 velocity=0 time=0.0046296333333333325
EXTRACT: note_on channel=1 note=35 velocity=0 time=0.006944449999999999
EXTRACT: note_on channel=6 note=59 velocity=0 time=0.016203716666666663
EXTRACT: note_on channel=6 note=54 velocity=0 time=0.011574083333333332
EXTRACT: control_change channel=3 control=1 value=1 time=0.0023148166666666662
EXTRACT: note_on channel=0 note=52 velocity=50 time=0.024305574999999996
EXTRACT: note_on channel=0 note=54 velocity=60 time=0
EXTRACT: note_on channel=1 note=35 velocity=92 time=0
EXTRACT: note_on channel=2 note=47 velocity=65 time=0
EXTRACT: note_on channel=2 note=54 velocity=56 time=0
EXTRACT: note_on channel=2 note=59 velocity=58 time=0
EXTRACT: note_on channel=2 note=63 velocity=72 time=0
EXTRACT: note_on channel=3 note=68 velocity=86 time=0
EXTRACT: note_on channel=4 note=56 velocity=93 time=0
EXTRACT: note_on channel=4 note=68 velocity=88 time=0
EXTRACT: note_on channel=9 note=36 velocity=99 time=0
EXTRACT: note_on channel=9 note=42 velocity=108 time=0
EXTRACT: note_on channel=9 note=54 velocity=116 time=0
EXTRACT: note_on channel=9 note=36 velocity=0 time=0.011574083333333332
EXTRACT: note_on channel=9 note=42 velocity=0 time=0
EXTRACT: note_on channel=9 note=54 velocity=0 time=0
EXTRACT: note_on channel=2 note=54 velocity=0 time=0.061342641666666656
EXTRACT: note_on channel=0 note=52 velocity=0 time=0.0034722249999999994
EXTRACT: note_on channel=0 note=47 velocity=0 time=0.01967594166666666
EXTRACT: note_on channel=2 note=59 velocity=0 time=0.010416674999999999
EXTRACT: note_on channel=0 note=54 velocity=0 time=0.006944449999999999
EXTRACT: note_on channel=2 note=47 velocity=0 time=0.0046296333333333325
EXTRACT: note_on channel=2 note=63 velocity=0 time=0.010416674999999999
EXTRACT: note_on channel=6 note=35 velocity=0 time=0.04513892499999999
EXTRACT: note_on channel=1 note=35 velocity=0 time=0.03703706666666666
EXTRACT: note_on channel=3 note=68 velocity=0 time=0.006944449999999999
EXTRACT: pitchwheel channel=3 pitch=-3712 time=0.005787041666666666
EXTRACT: control_change channel=3 control=1 value=2 time=0.01851853333333333
EXTRACT: note_on channel=4 note=56 velocity=0 time=0.009259266666666665
EXTRACT: note_on channel=4 note=68 velocity=0 time=0.006944449999999999
EXTRACT: pitchwheel channel=3 pitch=-6400 time=0.015046308333333331
EXTRACT: note_on channel=0 note=47 velocity=77 time=0.0046296333333333325
EXTRACT: note_on channel=0 note=52 velocity=58 time=0
EXTRACT: note_on channel=0 note=54 velocity=74 time=0
EXTRACT: note_on channel=1 note=35 velocity=89 time=0
EXTRACT: note_on channel=2 note=47 velocity=74 time=0
EXTRACT: note_on channel=2 note=54 velocity=76 time=0
EXTRACT: note_on channel=2 note=59 velocity=62 time=0
EXTRACT: note_on channel=2 note=63 velocity=84 time=0
EXTRACT: note_on channel=3 note=69 velocity=84 time=0
EXTRACT: note_on channel=4 note=57 velocity=94 time=0
EXTRACT: note_on channel=4 note=69 velocity=85 time=0
EXTRACT: note_on channel=6 note=54 velocity=57 time=0
EXTRACT: note_on channel=6 note=59 velocity=66 time=0
EXTRACT: note_on channel=9 note=41 velocity=112 time=0
EXTRACT: note_on channel=9 note=41 velocity=0 time=0.011574083333333332
EXTRACT: pitchwheel channel=3 pitch=-5376 time=0.03356484166666666
EXTRACT: note_on channel=0 note=52 velocity=0 time=0.042824108333333326
EXTRACT: pitchwheel channel=3 pitch=0 time=0.008101858333333331
EXTRACT: pitchwheel channel=3 pitch=0 time=0.049768558333333324
EXTRACT: note_on channel=0 note=54 velocity=0 time=0.0034722249999999994
EXTRACT: pitchwheel channel=3 pitch=0 time=0.04629633333333333
EXTRACT: note_on channel=2 note=54 velocity=0 time=0.01851853333333333
EXTRACT: note_on channel=2 note=63 velocity=0 time=0.013888899999999997
EXTRACT: control_change channel=3 control=1 value=3 time=0.0011574083333333331
EXTRACT: note_on channel=1 note=35 velocity=0 time=0.006944449999999999
EXTRACT: note_on channel=2 note=59 velocity=0 time=0.0023148166666666662
EXTRACT: note_on channel=2 note=47 velocity=0 time=0.03703706666666666
EXTRACT: note_on channel=0 note=52 velocity=50 time=0.0023148166666666662
EXTRACT: note_on channel=0 note=54 velocity=50 time=0
EXTRACT: note_on channel=1 note=35 velocity=87 time=0
EXTRACT: note_on channel=6 note=35 velocity=53 time=0
EXTRACT: note_on channel=9 note=36 velocity=103 time=0
EXTRACT: note_on channel=9 note=36 velocity=0 time=0.011574083333333332
EXTRACT: note_on channel=0 note=52 velocity=0 time=0.06250004999999999
EXTRACT: note_on channel=6 note=47 velocity=0 time=0.020833349999999997
EXTRACT: note_on channel=0 note=54 velocity=0 time=0.04629633333333333
EXTRACT: note_on channel=1 note=35 velocity=0 time=0.07175931666666666
EXTRACT: control_change channel=3 control=1 value=4 time=0.005787041666666666
EXTRACT: note_on channel=0 note=52 velocity=50 time=0.05902782499999999
EXTRACT: note_on channel=0 note=54 velocity=50 time=0
EXTRACT: note_on channel=1 note=35 velocity=87 time=0
EXTRACT: note_on channel=2 note=47 velocity=50 time=0
EXTRACT: note_on channel=2 note=54 velocity=63 time=0
EXTRACT: note_on channel=2 note=59 velocity=68 time=0
EXTRACT: note_on channel=2 note=63 velocity=70 time=0
EXTRACT: note_on channel=3 note=68 velocity=82 time=0
EXTRACT: note_on channel=4 note=56 velocity=84 time=0
EXTRACT: note_on channel=4 note=68 velocity=88 time=0
EXTRACT: note_on channel=6 note=47 velocity=58 time=0
EXTRACT: note_on channel=9 note=42 velocity=103 time=0
EXTRACT: note_on channel=9 note=54 velocity=116 time=0
EXTRACT: note_on channel=3 note=69 velocity=0 time=0.0023148166666666662
EXTRACT: note_on channel=4 note=57 velocity=0 time=0.005787041666666666
EXTRACT: note_on channel=4 note=69 velocity=0 time=0
EXTRACT: note_on channel=9 note=42 velocity=0 time=0.0034722249999999994
EXTRACT: note_on channel=9 note=54 velocity=0 time=0
EXTRACT: note_on channel=6 note=54 velocity=0 time=0.01967594166666666
EXTRACT: note_on channel=0 note=52 velocity=0 time=0.031250024999999994
EXTRACT: note_on channel=2 note=59 velocity=0 time=0.01967594166666666
EXTRACT: note_on channel=2 note=54 velocity=0 time=0.005787041666666666
EXTRACT: note_on channel=2 note=63 velocity=0 time=0.012731491666666664
EXTRACT: note_on channel=0 note=54 velocity=0 time=0.013888899999999997
EXTRACT: note_on channel=2 note=47 velocity=0 time=0.017361124999999998
EXTRACT: control_change channel=3 control=1 value=5 time=0.07407413333333332
EXTRACT: note_on channel=1 note=35 velocity=0 time=0.0011574083333333331
EXTRACT: note_on channel=0 note=47 velocity=0 time=0.01851853333333333
EXTRACT: note_on channel=15 note=54 velocity=0 time=0.026620391666666663
EXTRACT: note_on channel=3 note=68 velocity=0 time=0.0011574083333333331
EXTRACT: note_on channel=4 note=68 velocity=0 time=0.011574083333333332
EXTRACT: note_on channel=4 note=56 velocity=0 time=0.006944449999999999
EXTRACT: note_on channel=0 note=52 velocity=64 time=0.005787041666666666
EXTRACT: note_on channel=0 note=54 velocity=62 time=0
EXTRACT: note_on channel=1 note=35 velocity=91 time=0
EXTRACT: note_on channel=2 note=47 velocity=65 time=0
EXTRACT: note_on channel=2 note=54 velocity=80 time=0
EXTRACT: note_on channel=2 note=59 velocity=81 time=0
EXTRACT: note_on channel=2 note=63 velocity=87 time=0
EXTRACT: note_on channel=3 note=66 velocity=75 time=0
EXTRACT: note_on channel=4 note=54 velocity=83 time=0
EXTRACT: note_on channel=4 note=66 velocity=88 time=0
EXTRACT: note_on channel=6 note=54 velocity=73 time=0
EXTRACT: note_on channel=9 note=36 velocity=109 time=0
EXTRACT: note_on channel=9 note=40 velocity=104 time=0
EXTRACT: note_on channel=10 note=59 velocity=0 time=0.0034722249999999994
EXTRACT: note_on channel=10 note=54 velocity=0 time=0.0011574083333333331
EXTRACT: note_on channel=9 note=36 velocity=0 time=0.006944449999999999
EXTRACT: note_on channel=9 note=40 velocity=0 time=0
EXTRACT: note_on channel=15 note=59 velocity=0 time=0.028935208333333327
EXTRACT: note_on channel=6 note=35 velocity=0 time=0.010416674999999999
EXTRACT: note_on channel=6 note=63 velocity=0 time=0.005787041666666666
EXTRACT: note_on channel=0 note=52 velocity=0 time=0.013888899999999997
EXTRACT: note_on channel=15 note=63 velocity=0 time=0.02199075833333333
EXTRACT: note_on channel=10 note=63 velocity=0 time=0.006944449999999999
EXTRACT: note_on channel=2 note=54 velocity=0 time=0.006944449999999999
EXTRACT: note_on channel=0 note=54 velocity=0 time=0.01967594166666666
EXTRACT: note_on channel=2 note=59 velocity=0 time=0.011574083333333332
EXTRACT: note_on channel=2 note=63 velocity=0 time=0.006944449999999999
EXTRACT: note_on channel=2 note=47 velocity=0 time=0.0023148166666666662
EXTRACT: note_on channel=6 note=47 velocity=0 time=0.0046296333333333325
EXTRACT: control_change channel=3 control=1 value=6 time=0.042824108333333326
EXTRACT: note_on channel=1 note=35 velocity=0 time=0.026620391666666663
EXTRACT: note_on channel=4 note=66 velocity=0 time=0.03703706666666666
EXTRACT: note_on channel=0 note=52 velocity=50 time=0.01967594166666666
EXTRACT: note_on channel=0 note=54 velocity=55 time=0
EXTRACT: note_on channel=1 note=35 velocity=95 time=0
EXTRACT: note_on channel=2 note=47 velocity=50 time=0
EXTRACT: note_on channel=2 note=54 velocity=50 time=0
EXTRACT: note_on channel=2 note=59 velocity=50 time=0
EXTRACT: note_on channel=2 note=63 velocity=50 time=0
EXTRACT: note_on channel=3 note=64 velocity=72 time=0
EXTRACT: note_on channel=4 note=52 velocity=79 time=0
EXTRACT: note_on channel=4 note=64 velocity=89 time=0
EXTRACT: note_on channel=6 note=63 velocity=83 time=0
EXTRACT: note_on channel=9 note=54 velocity=50 time=0
EXTRACT: note_on channel=4 note=54 velocity=0 time=0.008101858333333331
EXTRACT: note_on channel=9 note=54 velocity=0 time=0.0034722249999999994
EXTRACT: note_on channel=3 note=66 velocity=0 time=0.005787041666666666
EXTRACT: note_on channel=6 note=59 velocity=0 time=0.010416674999999999
EXTRACT: note_on channel=0 note=52 velocity=0 time=0.015046308333333331
EXTRACT: note_on channel=2 note=54 velocity=0 time=0
EXTRACT: note_on channel=2 note=59 velocity=0 time=0.010416674999999999
EXTRACT: note_on channel=2 note=63 velocity=0 time=0.0046296333333333325
EXTRACT: note_on channel=15 note=47 velocity=0 time=0.010416674999999999
EXTRACT: note_on channel=9 note=54 velocity=54 time=0.0011574083333333331
EXTRACT: note_on channel=0 note=54 velocity=0 time=0.0023148166666666662
EXTRACT: note_on channel=6 note=54 velocity=0 time=0.0011574083333333331
EXTRACT: note_on channel=9 note=54 velocity=0 time=0.008101858333333331
EXTRACT: note_on channel=2 note=47 velocity=0 time=0.005787041666666666
EXTRACT: pitchwheel channel=3 pitch=0 time=0.04861114999999999
EXTRACT: note_on channel=2 note=47 velocity=72 time=0.0034722249999999994
EXTRACT: note_on channel=2 note=54 velocity=64 time=0
EXTRACT: note_on channel=2 note=59 velocity=73 time=0
EXTRACT: note_on channel=2 note=63 velocity=66 time=0
EXTRACT: note_on channel=9 note=54 velocity=68 time=0
EXTRACT: note_on channel=6 note=63 velocity=0 time=0.008101858333333331
EXTRACT: note_on channel=9 note=54 velocity=0 time=0.0034722249999999994
EXTRACT: note_on channel=10 note=47 velocity=0 time=0.026620391666666663
EXTRACT: control_change channel=3 control=1 value=7 time=0.0046296333333333325
EXTRACT: pitchwheel channel=3 pitch=-4992 time=0.0034722249999999994
EXTRACT: note_on channel=9 note=54 velocity=76 time=0.023148166666666664
EXTRACT: note_on channel=1 note=35 velocity=0 time=0.0046296333333333325
EXTRACT: control_change channel=0 control=64 value=0 time=0.006944449999999999
EXTRACT: note_on channel=9 note=54 velocity=0 time=0
EXTRACT: note_on channel=2 note=54 velocity=0 time=0.005787041666666666
EXTRACT: control_change channel=10 control=64 value=0 time=0.0011574083333333331
EXTRACT: pitchwheel channel=3 pitch=-6912 time=0.008101858333333331
EXTRACT: note_on channel=2 note=59 velocity=0 time=0.0046296333333333325
EXTRACT: note_on channel=2 note=63 velocity=0 time=0
EXTRACT: control_change channel=6 control=64 value=0 time=0.0046296333333333325
EXTRACT: note_on channel=3 note=64 velocity=0 time=0.0023148166666666662
EXTRACT: control_change channel=2 control=64 value=0 time=0.009259266666666665
EXTRACT: note_on channel=4 note=52 velocity=0 time=0
EXTRACT: note_on channel=2 note=47 velocity=0 time=0.020833349999999997
EXTRACT: control_change channel=0 control=64 value=0 time=0.0011574083333333331
EXTRACT: note_on channel=0 note=49 velocity=89 time=0
EXTRACT: note_on channel=0 note=52 velocity=85 time=0
EXTRACT: note_on channel=0 note=56 velocity=74 time=0
EXTRACT: note_on channel=0 note=61 velocity=85 time=0
EXTRACT: note_on channel=1 note=37 velocity=112 time=0
EXTRACT: note_on channel=2 note=49 velocity=71 time=0
EXTRACT: note_on channel=2 note=56 velocity=78 time=0
EXTRACT: note_on channel=2 note=61 velocity=59 time=0
EXTRACT: note_on channel=2 note=64 velocity=70 time=0
EXTRACT: note_on channel=3 note=68 velocity=81 time=0
EXTRACT: note_on channel=4 note=56 velocity=90 time=0
EXTRACT: note_on channel=4 note=68 velocity=92 time=0
EXTRACT: note_on channel=6 note=37 velocity=73 time=0
EXTRACT: note_on channel=6 note=49 velocity=65 time=0
EXTRACT: note_on channel=6 note=56 velocity=88 time=0
EXTRACT: note_on channel=6 note=61 velocity=65 time=0
EXTRACT: note_on channel=6 note=64 velocity=76 time=0
EXTRACT: note_on channel=7 note=80 velocity=90 time=0
EXTRACT: note_on channel=7 note=85 velocity=79 time=0
EXTRACT: note_on channel=7 note=88 velocity=78 time=0
EXTRACT: note_on channel=9 note=36 velocity=104 time=0
EXTRACT: note_on channel=9 note=41 velocity=106 time=0
EXTRACT: note_on channel=9 note=54 velocity=100 time=0
EXTRACT: note_on channel=10 note=49 velocity=67 time=0
EXTRACT: note_on channel=10 note=56 velocity=59 time=0
EXTRACT: note_on channel=10 note=61 velocity=58 time=0
EXTRACT: note_on channel=10 note=64 velocity=60 time=0
EXTRACT: note_on channel=15 note=49 velocity=1 time=0
EXTRACT: note_on channel=15 note=56 velocity=1 time=0
EXTRACT: note_on channel=15 note=61 velocity=1 time=0
EXTRACT: note_on channel=15 note=64 velocity=1 time=0
EXTRACT: pitchwheel channel=3 pitch=-6144 time=0.006944449999999999
EXTRACT: note_on channel=4 note=64 velocity=0 time=0.0023148166666666662
EXTRACT: note_on channel=9 note=36 velocity=0 time=0.0023148166666666662
EXTRACT: note_on channel=9 note=41 velocity=0 time=0
EXTRACT: note_on channel=9 note=54 velocity=0 time=0
EXTRACT: note_on channel=7 note=83 velocity=0 time=0.0011574083333333331
EXTRACT: note_on channel=7 note=87 velocity=0 time=0.0023148166666666662
EXTRACT: control_change channel=15 control=64 value=0 time=0.0034722249999999994
EXTRACT: note_on channel=7 note=78 velocity=0 time=0.011574083333333332
EXTRACT: pitchwheel channel=3 pitch=-2048 time=0.026620391666666663
EXTRACT: control_change channel=0 control=64 value=127 time=0.031250024999999994
EXTRACT: pitchwheel channel=3 pitch=0 time=0.01967594166666666
EXTRACT: control_change channel=2 control=64 value=127 time=0.020833349999999997
EXTRACT: pitchwheel channel=3 pitch=0 time=0.028935208333333327
EXTRACT: note_on channel=0 note=52 velocity=0 time=0.008101858333333331
EXTRACT: note_on channel=0 note=56 velocity=0 time=0.0034722249999999994
EXTRACT: control_change channel=3 control=1 value=8 time=0.0011574083333333331
EXTRACT: control_change channel=10 control=64 value=127 time=0.028935208333333327
EXTRACT: note_on channel=0 note=61 velocity=0 time=0.016203716666666663
EXTRACT: note_on channel=1 note=37 velocity=0 time=0.0023148166666666662
EXTRACT: note_on channel=0 note=52 velocity=50 time=0.060185233333333324
EXTRACT: note_on channel=0 note=56 velocity=50 time=0
EXTRACT: note_on channel=0 note=61 velocity=56 time=0
EXTRACT: note_on channel=1 note=37 velocity=88 time=0
EXTRACT: note_on channel=3 note=68 velocity=0 time=0.07291672499999999
EXTRACT: note_on channel=2 note=56 velocity=0 time=0.011574083333333332
EXTRACT: note_on channel=0 note=52 velocity=0 time=0.0011574083333333331
EXTRACT: control_change channel=15 control=64 value=127 time=0.005787041666666666
EXTRACT: note_on channel=0 note=56 velocity=0 time=0.015046308333333331
EXTRACT: note_on channel=4 note=68 velocity=0 time=0
EXTRACT: note_on channel=0 note=61 velocity=0 time=0.012731491666666664
EXTRACT: note_on channel=4 note=56 velocity=0 time=0.011574083333333332
EXTRACT: note_on channel=2 note=64 velocity=0 time=0.006944449999999999
EXTRACT: note_on channel=2 note=49 velocity=0 time=0.020833349999999997
EXTRACT: control_change channel=3 control=1 value=9 time=0
EXTRACT: note_on channel=2 note=61 velocity=0 time=0.0046296333333333325
EXTRACT: control_change channel=6 control=64 value=127 time=0.026620391666666663
EXTRACT: note_on channel=1 note=37 velocity=0 time=0.016203716666666663
EXTRACT: note_on channel=0 note=52 velocity=58 time=0.07175931666666666
EXTRACT: note_on channel=0 note=56 velocity=62 time=0
EXTRACT: note_on channel=0 note=61 velocity=69 time=0
EXTRACT: note_on channel=1 note=37 velocity=93 time=0
EXTRACT: note_on channel=2 note=49 velocity=50 time=0
EXTRACT: note_on channel=2 note=56 velocity=66 time=0
EXTRACT: note_on channel=2 note=61 velocity=50 time=0
EXTRACT: note_on channel=2 note=64 velocity=50 time=0
EXTRACT: note_on channel=9 note=36 velocity=101 time=0
EXTRACT: note_on channel=9 note=42 velocity=98 time=0
EXTRACT: note_on channel=9 note=54 velocity=116 time=0
EXTRACT: note_on channel=9 note=36 velocity=0 time=0.011574083333333332
EXTRACT: note_on channel=9 note=42 velocity=0 time=0
EXTRACT: note_on channel=9 note=54 velocity=0 time=0
EXTRACT: note_on channel=0 note=56 velocity=0 time=0.030092616666666662
EXTRACT: note_on channel=0 note=52 velocity=0 time=0.04050929166666666
EXTRACT: note_on channel=2 note=56 velocity=0 time=0.010416674999999999
EXTRACT: note_on channel=0 note=61 velocity=0 time=0.016203716666666663
EXTRACT: note_on channel=2 note=64 velocity=0 time=0.027777799999999995
EXTRACT: note_on channel=2 note=49 velocity=0 time=0.0034722249999999994
EXTRACT: note_on channel=2 note=61 velocity=0 time=0.0011574083333333331
EXTRACT: control_change channel=3 control=1 value=10 time=0.0046296333333333325
EXTRACT: note_on channel=1 note=37 velocity=0 time=0.07407413333333332
EXTRACT: note_on channel=0 note=52 velocity=85 time=0.05787041666666665
EXTRACT: note_on channel=0 note=56 velocity=80 time=0
EXTRACT: note_on channel=0 note=61 velocity=89 time=0
EXTRACT: note_on channel=1 note=37 velocity=87 time=0
EXTRACT: note_on channel=2 note=49 velocity=84 time=0
EXTRACT: note_on channel=2 note=56 velocity=82 time=0
EXTRACT: note_on channel=2 note=61 velocity=57 time=0
EXTRACT: note_on channel=2 note=64 velocity=50 time=0
EXTRACT: note_on channel=9 note=41 velocity=109 time=0
EXTRACT: note_on channel=9 note=41 velocity=0 time=0.011574083333333332
EXTRACT: note_on channel=0 note=56 velocity=0 time=0.1157408333333333
EXTRACT: control_change channel=3 control=1 value=11 time=0.008101858333333331
EXTRACT: note_on channel=0 note=52 velocity=0 time=0.013888899999999997
EXTRACT: note_on channel=0 note=61 velocity=0 time=0.03935188333333332
EXTRACT: note_on channel=2 note=56 velocity=0 time=0.006944449999999999
EXTRACT: note_on channel=1 note=37 velocity=0 time=0.03356484166666666
EXTRACT: note_on channel=2 note=64 velocity=0 time=0.008101858333333331
EXTRACT: note_on channel=2 note=49 velocity=0 time=0.006944449999999999
EXTRACT: note_on channel=2 note=61 velocity=0 time=0.028935208333333327
EXTRACT: note_on channel=0 note=52 velocity=50 time=0.0046296333333333325
EXTRACT: note_on channel=0 note=56 velocity=50 time=0
EXTRACT: note_on channel=0 note=61 velocity=57 time=0
EXTRACT: note_on channel=1 note=37 velocity=82 time=0
EXTRACT: note_on channel=3 note=66 velocity=83 time=0
EXTRACT: note_on channel=4 note=54 velocity=85 time=0
EXTRACT: note_on channel=4 note=66 velocity=108 time=0
EXTRACT: note_on channel=9 note=36 velocity=102 time=0
EXTRACT: note_on channel=9 note=36 velocity=0 time=0.011574083333333332
EXTRACT: note_on channel=0 note=52 velocity=0 time=0.07407413333333332
EXTRACT: note_on channel=0 note=61 velocity=0 time=0.01967594166666666
EXTRACT: note_on channel=0 note=56 velocity=0 time=0.0034722249999999994
EXTRACT: control_change channel=3 control=1 value=12 time=0.013888899999999997
EXTRACT: note_on channel=1 note=37 velocity=0 time=0.08680562499999998
EXTRACT: note_on channel=0 note=52 velocity=68 time=0.06828709166666666
EXTRACT: note_on channel=0 note=56 velocity=50 time=0
EXTRACT: note_on channel=0 note=61 velocity=67 time=0
EXTRACT: note_on channel=1 note=37 velocity=83 time=0
EXTRACT: note_on channel=2 note=49 velocity=50 time=0
EXTRACT: note_on channel=2 note=56 velocity=59 time=0
EXTRACT: note_on channel=2 note=61 velocity=50 time=0
EXTRACT: note_on channel=2 note=64 velocity=50 time=0
EXTRACT: note_on channel=9 note=42 velocity=108 time=0
EXTRACT: note_on channel=9 note=54 velocity=116 time=0
EXTRACT: note_on channel=9 note=42 velocity=0 time=0.011574083333333332
EXTRACT: note_on channel=9 note=54 velocity=0 time=0
EXTRACT: note_on channel=6 note=49 velocity=0 time=0.031250024999999994
EXTRACT: note_on channel=3 note=66 velocity=0 time=0.016203716666666663
EXTRACT: note_on channel=0 note=52 velocity=0 time=0.0046296333333333325
EXTRACT: note_on channel=2 note=56 velocity=0 time=0.0046296333333333325
EXTRACT: note_on channel=2 note=64 velocity=0 time=0.005787041666666666
EXTRACT: note_on channel=0 note=56 velocity=0 time=0.0034722249999999994
EXTRACT: note_on channel=4 note=54 velocity=0 time=0.0023148166666666662
EXTRACT: note_on channel=0 note=61 velocity=0 time=0.024305574999999996
EXTRACT: control_change channel=3 control=1 value=13 time=0.006944449999999999
EXTRACT: note_on channel=4 note=66 velocity=0 time=0.0046296333333333325
EXTRACT: note_on channel=2 note=61 velocity=0 time=0.009259266666666665
EXTRACT: note_on channel=2 note=49 velocity=0 time=0.011574083333333332
EXTRACT: note_on channel=1 note=37 velocity=0 time=0.08449080833333332
EXTRACT: note_on channel=0 note=52 velocity=77 time=0.05671300833333332
EXTRACT: note_on channel=0 note=56 velocity=61 time=0
EXTRACT: note_on channel=0 note=61 velocity=83 time=0
EXTRACT: note_on channel=1 note=37 velocity=81 time=0
EXTRACT: note_on channel=2 note=49 velocity=71 time=0
EXTRACT: note_on channel=2 note=56 velocity=74 time=0
EXTRACT: note_on channel=2 note=61 velocity=58 time=0
EXTRACT: note_on channel=2 note=64 velocity=62 time=0
EXTRACT: note_on channel=6 note=49 velocity=50 time=0
EXTRACT: note_on channel=9 note=36 velocity=106 time=0
EXTRACT: note_on channel=9 note=40 velocity=107 time=0
EXTRACT: note_on channel=9 note=36 velocity=0 time=0.011574083333333332
EXTRACT: note_on channel=9 note=40 velocity=0 time=0
EXTRACT: note_on channel=2 note=56 velocity=0 time=0.08564821666666665
EXTRACT: control_change channel=3 control=1 value=14 time=0.0011574083333333331
EXTRACT: note_on channel=0 note=52 velocity=0 time=0.008101858333333331
EXTRACT: note_on channel=0 note=56 velocity=0 time=0.0023148166666666662
EXTRACT: note_on channel=2 note=61 velocity=0 time=0.028935208333333327
EXTRACT: note_on channel=0 note=61 velocity=0 time=0.0011574083333333331
EXTRACT: note_on channel=2 note=64 velocity=0 time=0.005787041666666666
EXTRACT: note_on channel=2 note=49 velocity=0 time=0.010416674999999999
EXTRACT: note_on channel=6 note=37 velocity=0 time=0.0023148166666666662
EXTRACT: note_on channel=1 note=37 velocity=0 time=0.05439819166666666
EXTRACT: note_on channel=0 note=52 velocity=50 time=0.06597227499999998
EXTRACT: note_on channel=0 note=56 velocity=56 time=0
EXTRACT: note_on channel=0 note=61 velocity=51 time=0
EXTRACT: note_on channel=1 note=37 velocity=102 time=0
EXTRACT: note_on channel=2 note=49 velocity=50 time=0
EXTRACT: note_on channel=2 note=56 velocity=59 time=0
EXTRACT: note_on channel=2 note=61 velocity=50 time=0
EXTRACT: note_on channel=2 note=64 velocity=50 time=0
EXTRACT: note_on channel=9 note=54 velocity=50 time=0
EXTRACT: note_on channel=9 note=54 velocity=0 time=0.011574083333333332
EXTRACT: note_on channel=6 note=64 velocity=0 time=0.01967594166666666
EXTRACT: note_on channel=0 note=56 velocity=0 time=0.0046296333333333325
EXTRACT: note_on channel=6 note=61 velocity=0 time=0.006944449999999999
EXTRACT: note_on channel=0 note=61 velocity=0 time=0.0023148166666666662
EXTRACT: note_on channel=2 note=56 velocity=0 time=0
EXTRACT: note_on channel=0 note=49 velocity=0 time=0.009259266666666665
EXTRACT: note_on channel=0 note=52 velocity=0 time=0.0034722249999999994
EXTRACT: note_on channel=2 note=64 velocity=0 time=0.0023148166666666662
EXTRACT: note_on channel=9 note=54 velocity=50 time=0.009259266666666665
EXTRACT: note_on channel=2 note=61 velocity=0 time=0.0011574083333333331
EXTRACT: note_on channel=2 note=49 velocity=0 time=0.0034722249999999994
EXTRACT: note_on channel=9 note=54 velocity=0 time=0.006944449999999999
EXTRACT: control_change channel=3 control=1 value=15 time=0.006944449999999999
EXTRACT: note_on channel=6 note=56 velocity=0 time=0.012731491666666664
EXTRACT: note_on channel=0 note=52 velocity=66 time=0.03819447499999999
EXTRACT: note_on channel=0 note=56 velocity=50 time=0
EXTRACT: note_on channel=0 note=61 velocity=50 time=0
EXTRACT: note_on channel=2 note=49 velocity=74 time=0
EXTRACT: note_on channel=2 note=56 velocity=61 time=0
EXTRACT: note_on channel=2 note=61 velocity=74 time=0
EXTRACT: note_on channel=2 note=64 velocity=57 time=0
EXTRACT: note_on channel=3 note=59 velocity=70 time=0
EXTRACT: note_on channel=9 note=54 velocity=61 time=0
EXTRACT: note_on channel=9 note=54 velocity=0 time=0.011574083333333332
EXTRACT: note_on channel=2 note=64 velocity=0 time=0.031250024999999994
EXTRACT: note_on channel=0 note=61 velocity=0 time=0.015046308333333331
EXTRACT: note_on channel=1 note=37 velocity=0 time=0.0011574083333333331
EXTRACT: note_on channel=0 note=52 velocity=0 time=0.005787041666666666
EXTRACT: note_on channel=9 note=54 velocity=95 time=0.0046296333333333325
EXTRACT: note_on channel=2 note=49 velocity=0 time=0.008101858333333331
EXTRACT: note_on channel=0 note=56 velocity=0 time=0.0011574083333333331
EXTRACT: note_on channel=2 note=56 velocity=0 time=0.0011574083333333331
EXTRACT: note_on channel=9 note=54 velocity=0 time=0.0011574083333333331
EXTRACT: note_on channel=2 note=61 velocity=0 time=0.010416674999999999
EXTRACT: note_on channel=3 note=59 velocity=0 time=0.0023148166666666662
EXTRACT: note_on channel=0 note=49 velocity=83 time=0.04513892499999999
EXTRACT: note_on channel=0 note=52 velocity=73 time=0
EXTRACT: note_on channel=0 note=56 velocity=70 time=0
EXTRACT: note_on channel=0 note=61 velocity=66 time=0
EXTRACT: note_on channel=1 note=37 velocity=86 time=0
EXTRACT: note_on channel=2 note=49 velocity=84 time=0
EXTRACT: note_on channel=2 note=56 velocity=61 time=0
EXTRACT: note_on channel=2 note=61 velocity=61 time=0
EXTRACT: note_on channel=2 note=64 velocity=50 time=0
EXTRACT: note_on channel=3 note=66 velocity=80 time=0
EXTRACT: note_on channel=4 note=54 velocity=86 time=0
EXTRACT: note_on channel=4 note=66 velocity=86 time=0
EXTRACT: note_on channel=6 note=37 velocity=56 time=0
EXTRACT: note_on channel=6 note=56 velocity=74 time=0
EXTRACT: note_on channel=6 note=61 velocity=57 time=0
EXTRACT: note_on channel=6 note=64 velocity=74 time=0
EXTRACT: note_on channel=9 note=36 velocity=103 time=0
EXTRACT: note_on channel=9 note=41 velocity=105 time=0
EXTRACT: note_on channel=9 note=54 velocity=100 time=0
EXTRACT: note_on channel=9 note=36 velocity=0 time=0.011574083333333332
EXTRACT: note_on channel=9 note=41 velocity=0 time=0
EXTRACT: note_on channel=9 note=54 velocity=0 time=0
EXTRACT: control_change channel=3 control=1 value=16 time=0.06365745833333332
EXTRACT: note_on channel=0 note=52 velocity=0 time=0.05671300833333332
EXTRACT: note_on channel=0 note=56 velocity=0 time=0.005787041666666666
EXTRACT: note_on channel=0 note=61 velocity=0 time=0.025462983333333328
EXTRACT: note_on channel=2 note=56 velocity=0 time=0.010416674999999999
EXTRACT: note_on channel=2 note=61 velocity=0 time=0.02199075833333333
EXTRACT: note_on channel=2 note=64 velocity=0 time=0.0034722249999999994
EXTRACT: note_on channel=2 note=49 velocity=0 time=0.006944449999999999
EXTRACT: note_on channel=1 note=37 velocity=0 time=0.010416674999999999
EXTRACT: note_on channel=4 note=66 velocity=0 time=0.04629633333333333
EXTRACT: note_on channel=3 note=66 velocity=0 time=0.013888899999999997
EXTRACT: note_on channel=0 note=52 velocity=50 time=0.0011574083333333331
EXTRACT: note_on channel=0 note=56 velocity=50 time=0
EXTRACT: note_on channel=0 note=61 velocity=50 time=0
EXTRACT: note_on channel=1 note=37 velocity=81 time=0
EXTRACT: note_on channel=3 note=68 velocity=90 time=0
EXTRACT: note_on channel=4 note=56 velocity=93 time=0
EXTRACT: note_on channel=4 note=68 velocity=93 time=0
EXTRACT: note_on channel=4 note=54 velocity=0 time=0.03356484166666666
EXTRACT: control_change channel=3 control=1 value=17 time=0.028935208333333327
EXTRACT: note_on channel=0 note=52 velocity=0 time=0.01967594166666666
EXTRACT: note_on channel=0 note=56 velocity=0 time=0.03703706666666666
EXTRACT: note_on channel=0 note=61 velocity=0 time=0.008101858333333331
EXTRACT: note_on channel=6 note=49 velocity=0 time=0.008101858333333331
EXTRACT: note_on channel=1 note=37 velocity=0 time=0.07754635833333332
EXTRACT: note_on channel=4 note=68 velocity=0 time=0.028935208333333327
EXTRACT: note_on channel=4 note=56 velocity=0 time=0.016203716666666663
EXTRACT: note_on channel=3 note=68 velocity=0 time=0.0034722249999999994
EXTRACT: note_on channel=0 note=52 velocity=62 time=0.016203716666666663
EXTRACT: note_on channel=0 note=56 velocity=70 time=0
EXTRACT: note_on channel=0 note=61 velocity=65 time=0
EXTRACT: note_on channel=1 note=37 velocity=80 time=0
EXTRACT: note_on channel=2 note=49 velocity=50 time=0
EXTRACT: note_on channel=2 note=56 velocity=58 time=0
EXTRACT: note_on channel=2 note=61 velocity=58 time=0
EXTRACT: note_on channel=2 note=64 velocity=55 time=0
EXTRACT: note_on channel=9 note=36 velocity=96 time=0
EXTRACT: note_on channel=9 note=42 velocity=103 time=0
EXTRACT: note_on channel=9 note=54 velocity=116 time=0
EXTRACT: note_on channel=9 note=36 velocity=0 time=0.011574083333333332
EXTRACT: note_on channel=9 note=42 velocity=0 time=0
EXTRACT: note_on channel=9 note=54 velocity=0 time=0
EXTRACT: note_on channel=0 note=49 velocity=0 time=0.010416674999999999
EXTRACT: control_change channel=3 control=1 value=18 time=0.028935208333333327
EXTRACT: note_on channel=0 note=56 velocity=0 time=0.012731491666666664
EXTRACT: note_on channel=0 note=52 velocity=0 time=0.026620391666666663
EXTRACT: note_on channel=6 note=56 velocity=0 time=0.0023148166666666662
EXTRACT: note_on channel=2 note=56 velocity=0 time=0.0034722249999999994
EXTRACT: note_on channel=2 note=64 velocity=0 time=0.0023148166666666662
EXTRACT: note_on channel=0 note=61 velocity=0 time=0.015046308333333331
EXTRACT: note_on channel=2 note=61 velocity=0 time=0.0034722249999999994
EXTRACT: note_on channel=2 note=49 velocity=0 time=0.0046296333333333325
EXTRACT: pitchwheel channel=3 pitch=0 time=0.034722249999999996
EXTRACT: pitchwheel channel=3 pitch=-1792 time=0.049768558333333324
EXTRACT: note_on channel=1 note=37 velocity=0 time=0.016203716666666663
EXTRACT: pitchwheel channel=3 pitch=-6272 time=0.03356484166666666
EXTRACT: note_on channel=0 note=49 velocity=94 time=0.02199075833333333
EXTRACT: note_on channel=0 note=52 velocity=72 time=0
EXTRACT: note_on channel=0 note=56 velocity=76 time=0
EXTRACT: note_on channel=0 note=61 velocity=81 time=0
EXTRACT: note_on channel=1 note=37 velocity=87 time=0
EXTRACT: note_on channel=2 note=49 velocity=76 time=0
EXTRACT: note_on channel=2 note=56 velocity=84 time=0
EXTRACT: note_on channel=2 note=61 velocity=65 time=0
EXTRACT: note_on channel=2 note=64 velocity=60 time=0
EXTRACT: note_on channel=3 note=69 velocity=91 time=0
EXTRACT: note_on channel=4 note=57 velocity=91 time=0
EXTRACT: note_on channel=4 note=69 velocity=90 time=0
EXTRACT: note_on channel=6 note=49 velocity=74 time=0
EXTRACT: note_on channel=6 note=56 velocity=62 time=0
EXTRACT: note_on channel=9 note=41 velocity=105 time=0
EXTRACT: note_on channel=9 note=41 velocity=0 time=0.011574083333333332
EXTRACT: control_change channel=3 control=1 value=19 time=0.027777799999999995
EXTRACT: pitchwheel channel=3 pitch=-1792 time=0.03935188333333332
EXTRACT: note_on channel=0 note=52 velocity=0 time=0.04050929166666666
EXTRACT: note_on channel=0 note=56 velocity=0 time=0.0023148166666666662
EXTRACT: pitchwheel channel=3 pitch=0 time=0.006944449999999999
EXTRACT: note_on channel=0 note=61 velocity=0 time=0.028935208333333327
EXTRACT: pitchwheel channel=3 pitch=0 time=0.020833349999999997
EXTRACT: note_on channel=2 note=56 velocity=0 time=0.009259266666666665
EXTRACT: note_on channel=2 note=61 velocity=0 time=0.01967594166666666
EXTRACT: note_on channel=1 note=37 velocity=0 time=0.0023148166666666662
EXTRACT: note_on channel=2 note=64 velocity=0 time=0.011574083333333332
EXTRACT: note_on channel=2 note=49 velocity=0 time=0.006944449999999999
EXTRACT: note_on channel=0 note=52 velocity=50 time=0.049768558333333324
EXTRACT: note_on channel=0 note=56 velocity=55 time=0
EXTRACT: note_on channel=0 note=61 velocity=50 time=0
EXTRACT: note_on channel=1 note=37 velocity=98 time=0
EXTRACT: note_on channel=9 note=36 velocity=101 time=0
EXTRACT: note_on channel=9 note=36 velocity=0 time=0.011574083333333332
EXTRACT: control_change channel=3 control=1 value=20 time=0.016203716666666663
EXTRACT: note_on channel=0 note=52 velocity=0 time=0.04050929166666666
EXTRACT: note_on channel=0 note=56 velocity=0 time=0.028935208333333327
EXTRACT: note_on channel=6 note=37 velocity=0 time=0.011574083333333332
EXTRACT: note_on channel=0 note=61 velocity=0 time=0.012731491666666664
EXTRACT: note_on channel=1 note=37 velocity=0 time=0.09837970833333332
EXTRACT: note_on channel=4 note=57 velocity=0 time=0.053240783333333326
EXTRACT: note_on channel=3 note=69 velocity=0 time=0.0034722249999999994
EXTRACT: note_on channel=0 note=52 velocity=53 time=0.0011574083333333331
EXTRACT: note_on channel=0 note=56 velocity=61 time=0
EXTRACT: note_on channel=0 note=61 velocity=71 time=0
EXTRACT: note_on channel=1 note=37 velocity=79 time=0
EXTRACT: note_on channel=2 note=49 velocity=50 time=0
EXTRACT: note_on channel=2 note=56 velocity=65 time=0
EXTRACT: note_on channel=2 note=61 velocity=55 time=0
EXTRACT: note_on channel=2 note=64 velocity=59 time=0
EXTRACT: note_on channel=3 note=68 velocity=78 time=0
EXTRACT: note_on channel=4 note=56 velocity=86 time=0
EXTRACT: note_on channel=4 note=68 velocity=89 time=0
EXTRACT: note_on channel=6 note=37 velocity=82 time=0
EXTRACT: note_on channel=9 note=42 velocity=108 time=0
EXTRACT: note_on channel=9 note=54 velocity=116 time=0
EXTRACT: note_on channel=9 note=42 velocity=0 time=0.011574083333333332
EXTRACT: note_on channel=9 note=54 velocity=0 time=0
EXTRACT: control_change channel=3 control=1 value=21 time=0.0034722249999999994
EXTRACT: note_on channel=4 note=69 velocity=0 time=0
EXTRACT: note_on channel=0 note=52 velocity=0 time=0.04861114999999999
EXTRACT: note_on channel=6 note=56 velocity=0 time=0.0046296333333333325
EXTRACT: note_on channel=0 note=56 velocity=0 time=0.013888899999999997
EXTRACT: note_on channel=2 note=56 velocity=0 time=0.02199075833333333
EXTRACT: note_on channel=0 note=61 velocity=0 time=0.0023148166666666662
EXTRACT: note_on channel=0 note=49 velocity=0 time=0.0023148166666666662
EXTRACT: note_on channel=2 note=64 velocity=0 time=0.0046296333333333325
EXTRACT: note_on channel=2 note=49 velocity=0 time=0.0011574083333333331
EXTRACT: note_on channel=2 note=61 velocity=0 time=0.01851853333333333
EXTRACT: note_on channel=1 note=37 velocity=0 time=0.09027784999999998
EXTRACT: note_on channel=6 note=37 velocity=0 time=0.009259266666666665
EXTRACT: note_on channel=15 note=64 velocity=0 time=0.0034722249999999994
EXTRACT: note_on channel=6 note=49 velocity=0 time=0.009259266666666665
EXTRACT: note_on channel=0 note=52 velocity=85 time=0.032407433333333326
EXTRACT: note_on channel=0 note=56 velocity=82 time=0
EXTRACT: note_on channel=0 note=61 velocity=90 time=0
EXTRACT: note_on channel=1 note=37 velocity=85 time=0
EXTRACT: note_on channel=2 note=49 velocity=62 time=0
EXTRACT: note_on channel=2 note=56 velocity=82 time=0
EXTRACT: note_on channel=2 note=61 velocity=53 time=0
EXTRACT: note_on channel=2 note=64 velocity=65 time=0
EXTRACT: note_on channel=3 note=66 velocity=78 time=0
EXTRACT: note_on channel=4 note=54 velocity=83 time=0
EXTRACT: note_on channel=4 note=66 velocity=83 time=0
EXTRACT: note_on channel=6 note=56 velocity=68 time=0
EXTRACT: note_on channel=9 note=36 velocity=104 time=0
EXTRACT: note_on channel=9 note=40 velocity=103 time=0
EXTRACT: control_change channel=3 control=1 value=22 time=0.0034722249999999994
EXTRACT: note_on channel=3 note=68 velocity=0 time=0.0046296333333333325
EXTRACT: note_on channel=9 note=36 velocity=0 time=0.0034722249999999994
EXTRACT: note_on channel=9 note=40 velocity=0 time=0
EXTRACT: note_on channel=4 note=56 velocity=0 time=0.010416674999999999
EXTRACT: note_on channel=4 note=68 velocity=0 time=0.010416674999999999
EXTRACT: note_on channel=15 note=56 velocity=0 time=0.020833349999999997
EXTRACT: note_on channel=6 note=64 velocity=0 time=0.023148166666666664
EXTRACT: note_on channel=2 note=56 velocity=0 time=0.02199075833333333
EXTRACT: note_on channel=0 note=52 velocity=0 time=0.009259266666666665
EXTRACT: note_on channel=6 note=61 velocity=0 time=0.01851853333333333
EXTRACT: note_on channel=15 note=61 velocity=0 time=0.0011574083333333331
EXTRACT: note_on channel=2 note=49 velocity=0 time=0.0023148166666666662
EXTRACT: note_on channel=0 note=56 velocity=0 time=0.0011574083333333331
EXTRACT: note_on channel=3 note=66 velocity=0 time=0.0046296333333333325
EXTRACT: note_on channel=3 note=64 velocity=75 time=0.0034722249999999994
EXTRACT: note_on channel=4 note=52 velocity=84 time=0
EXTRACT: note_on channel=4 note=64 velocity=89 time=0
EXTRACT: note_on channel=2 note=64 velocity=0 time=0.0034722249999999994
EXTRACT: note_on channel=4 note=66 velocity=0 time=0.0023148166666666662
EXTRACT: note_on channel=0 note=61 velocity=0 time=0.0034722249999999994
EXTRACT: note_on channel=2 note=61 velocity=0 time=0.012731491666666664
EXTRACT: note_on channel=4 note=54 velocity=0 time=0.0046296333333333325
EXTRACT: note_on channel=6 note=56 velocity=0 time=0.005787041666666666
EXTRACT: note_on channel=1 note=37 velocity=0 time=0.03935188333333332
EXTRACT: note_on channel=4 note=52 velocity=0 time=0.023148166666666664
EXTRACT: note_on channel=3 note=64 velocity=0 time=0.017361124999999998
EXTRACT: note_on channel=4 note=64 velocity=0 time=0.009259266666666665
EXTRACT: control_change channel=3 control=1 value=23 time=0.009259266666666665
EXTRACT: note_on channel=0 note=52 velocity=50 time=0.008101858333333331
EXTRACT: note_on channel=0 note=56 velocity=50 time=0
EXTRACT: note_on channel=0 note=61 velocity=50 time=0
EXTRACT: note_on channel=1 note=37 velocity=104 time=0
EXTRACT: note_on channel=2 note=49 velocity=50 time=0
EXTRACT: note_on channel=2 note=56 velocity=64 time=0
EXTRACT: note_on channel=2 note=61 velocity=51 time=0
EXTRACT: note_on channel=2 note=64 velocity=50 time=0
EXTRACT: note_on channel=3 note=64 velocity=80 time=0
EXTRACT: note_on channel=4 note=52 velocity=85 time=0
EXTRACT: note_on channel=4 note=64 velocity=95 time=0
EXTRACT: note_on channel=6 note=64 velocity=78 time=0
EXTRACT: note_on channel=9 note=54 velocity=50 time=0
EXTRACT: note_on channel=9 note=54 velocity=0 time=0.011574083333333332
EXTRACT: note_on channel=2 note=56 velocity=0 time=0.024305574999999996
EXTRACT: note_on channel=2 note=49 velocity=0 time=0.009259266666666665
EXTRACT: note_on channel=0 note=56 velocity=0 time=0.005787041666666666
EXTRACT: note_on channel=0 note=52 velocity=0 time=0.008101858333333331
EXTRACT: note_on channel=2 note=64 velocity=0 time=0.0023148166666666662
EXTRACT: note_on channel=9 note=54 velocity=54 time=0.008101858333333331
EXTRACT: note_on channel=9 note=54 velocity=0 time=0.011574083333333332
EXTRACT: note_on channel=2 note=61 velocity=0 time=0.009259266666666665
EXTRACT: note_on channel=2 note=49 velocity=61 time=0.04861114999999999
EXTRACT: note_on channel=2 note=56 velocity=50 time=0
EXTRACT: note_on channel=2 note=61 velocity=74 time=0
EXTRACT: note_on channel=2 note=64 velocity=50 time=0
EXTRACT: note_on channel=9 note=54 velocity=68 time=0
EXTRACT: note_on channel=0 note=61 velocity=0 time=0.0034722249999999994
EXTRACT: note_on channel=9 note=54 velocity=0 time=0.008101858333333331
EXTRACT: note_on channel=2 note=64 velocity=0 time=0.04050929166666666
EXTRACT: control_change channel=6 control=64 value=0 time=0.010416674999999999
EXTRACT: note_on channel=2 note=56 velocity=0 time=0.005787041666666666
EXTRACT: note_on channel=9 note=54 velocity=76 time=0.0011574083333333331
EXTRACT: control_change channel=2 control=64 value=0 time=0.0046296333333333325
EXTRACT: note_on channel=9 note=54 velocity=0 time=0.006944449999999999
EXTRACT: note_on channel=15 note=49 velocity=0 time=0.0023148166666666662
EXTRACT: note_on channel=10 note=56 velocity=0 time=0.009259266666666665
EXTRACT: control_change channel=10 control=64 value=0 time=0.0023148166666666662
EXTRACT: note_on channel=1 note=37 velocity=0 time=0.006944449999999999
EXTRACT: note_on channel=2 note=61 velocity=0 time=0.009259266666666665
EXTRACT: note_on channel=2 note=49 velocity=0 time=0.0023148166666666662
EXTRACT: control_change channel=3 control=1 value=24 time=0.0046296333333333325
EXTRACT: control_change channel=3 control=1 value=25 time=0
EXTRACT: control_change channel=0 control=64 value=0 time=0.015046308333333331
EXTRACT: control_change channel=3 control=1 value=34 time=0.0034722249999999994
EXTRACT: note_on channel=0 note=45 velocity=87 time=0.0023148166666666662
EXTRACT: note_on channel=0 note=52 velocity=57 time=0
EXTRACT: note_on channel=0 note=57 velocity=80 time=0
EXTRACT: note_on channel=1 note=33 velocity=93 time=0
EXTRACT: note_on channel=2 note=45 velocity=51 time=0
EXTRACT: note_on channel=2 note=52 velocity=72 time=0
EXTRACT: note_on channel=2 note=57 velocity=64 time=0
EXTRACT: note_on channel=2 note=59 velocity=79 time=0
EXTRACT: note_on channel=2 note=64 velocity=58 time=0
EXTRACT: note_on channel=6 note=33 velocity=76 time=0
EXTRACT: note_on channel=6 note=45 velocity=71 time=0
EXTRACT: note_on channel=6 note=52 velocity=74 time=0
EXTRACT: note_on channel=6 note=57 velocity=71 time=0
EXTRACT: note_on channel=6 note=59 velocity=77 time=0
EXTRACT: note_on channel=7 note=81 velocity=94 time=0
EXTRACT: note_on channel=7 note=83 velocity=80 time=0
EXTRACT: note_on channel=9 note=36 velocity=99 time=0
EXTRACT: note_on channel=9 note=41 velocity=106 time=0
EXTRACT: note_on channel=9 note=54 velocity=100 time=0
EXTRACT: note_on channel=10 note=45 velocity=68 time=0
EXTRACT: note_on channel=10 note=57 velocity=50 time=0
EXTRACT: note_on channel=10 note=59 velocity=58 time=0
EXTRACT: note_on channel=15 note=45 velocity=1 time=0
EXTRACT: note_on channel=15 note=57 velocity=1 time=0
EXTRACT: note_on channel=15 note=61 velocity=1 time=0
EXTRACT: note_on channel=15 note=64 velocity=1 time=0
EXTRACT: note_on channel=9 note=36 velocity=0 time=0.011574083333333332
EXTRACT: note_on channel=9 note=41 velocity=0 time=0
EXTRACT: note_on channel=9 note=54 velocity=0 time=0
EXTRACT: control_change channel=3 control=1 value=43 time=0.0034722249999999994
EXTRACT: control_change channel=15 control=64 value=0 time=0.010416674999999999
EXTRACT: control_change channel=3 control=1 value=51 time=0.0046296333333333325
EXTRACT: control_change channel=3 control=1 value=56 time=0.017361124999999998
EXTRACT: note_on channel=10 note=49 velocity=0 time=0
EXTRACT: control_change channel=3 control=1 value=61 time=0.017361124999999998
EXTRACT: note_on channel=7 note=80 velocity=0 time=0.010416674999999999
EXTRACT: note_on channel=7 note=85 velocity=0 time=0.0034722249999999994
EXTRACT: note_on channel=10 note=61 velocity=0 time=0
EXTRACT: control_change channel=3 control=1 value=66 time=0.0011574083333333331
EXTRACT: control_change channel=3 control=1 value=70 time=0.034722249999999996
EXTRACT: control_change channel=3 control=1 value=72 time=0.015046308333333331
EXTRACT: control_change channel=2 control=64 value=127 time=0.005787041666666666
EXTRACT: control_change channel=0 control=64 value=127 time=0.009259266666666665
EXTRACT: note_on channel=0 note=52 velocity=0 time=0.0046296333333333325
EXTRACT: control_change channel=3 control=1 value=73 time=0.015046308333333331
EXTRACT: control_change channel=3 control=1 value=75 time=0.034722249999999996
EXTRACT: note_on channel=1 note=33 velocity=0 time=0.017361124999999998
EXTRACT: control_change channel=3 control=1 value=77 time=0.013888899999999997
EXTRACT: control_change channel=10 control=64 value=127 time=0.025462983333333328
EXTRACT: control_change channel=6 control=64 value=127 time=0.01851853333333333
EXTRACT: note_on channel=0 note=52 velocity=52 time=0.0034722249999999994
EXTRACT: note_on channel=1 note=33 velocity=94 time=0
EXTRACT: control_change channel=3 control=1 value=76 time=0.032407433333333326
EXTRACT: control_change channel=15 control=64 value=127 time=0.015046308333333331
EXTRACT: note_on channel=2 note=57 velocity=0 time=0.016203716666666663
EXTRACT: note_on channel=0 note=57 velocity=0 time=0.042824108333333326
EXTRACT: note_on channel=2 note=59 velocity=0 time=0
EXTRACT: note_on channel=0 note=52 velocity=0 time=0.0023148166666666662
EXTRACT: control_change channel=3 control=1 value=75 time=0.0034722249999999994
EXTRACT: note_on channel=2 note=64 velocity=0 time=0.06597227499999998
EXTRACT: note_on channel=2 note=52 velocity=0 time=0.0034722249999999994
EXTRACT: note_on channel=2 note=45 velocity=0 time=0.009259266666666665
EXTRACT: control_change channel=3 control=1 value=74 time=0.0011574083333333331
EXTRACT: note_on channel=6 note=64 velocity=0 time=0.026620391666666663
EXTRACT: note_on channel=1 note=33 velocity=0 time=0.01967594166666666
EXTRACT: note_on channel=6 note=59 velocity=0 time=0.026620391666666663
EXTRACT: control_change channel=3 control=1 value=73 time=0.006944449999999999
EXTRACT: note_on channel=6 note=57 velocity=0 time=0
EXTRACT: note_on channel=0 note=52 velocity=74 time=0.005787041666666666
EXTRACT: note_on channel=0 note=57 velocity=61 time=0
EXTRACT: note_on channel=1 note=33 velocity=94 time=0
EXTRACT: note_on channel=2 note=45 velocity=50 time=0
EXTRACT: note_on channel=2 note=52 velocity=58 time=0
EXTRACT: note_on channel=2 note=57 velocity=64 time=0
EXTRACT: note_on channel=2 note=59 velocity=68 time=0
EXTRACT: note_on channel=2 note=64 velocity=54 time=0
EXTRACT: note_on channel=9 note=36 velocity=100 time=0
EXTRACT: note_on channel=9 note=42 velocity=106 time=0
EXTRACT: note_on channel=9 note=54 velocity=116 time=0
EXTRACT: note_on channel=9 note=36 velocity=0 time=0.011574083333333332
EXTRACT: note_on channel=9 note=42 velocity=0 time=0
EXTRACT: note_on channel=9 note=54 velocity=0 time=0
EXTRACT: note_on channel=0 note=45 velocity=0 time=0.03819447499999999
EXTRACT: note_on channel=2 note=57 velocity=0 time=0.016203716666666663
EXTRACT: control_change channel=3 control=1 value=72 time=0.008101858333333331
EXTRACT: note_on channel=2 note=59 velocity=0 time=0.0023148166666666662
EXTRACT: note_on channel=0 note=57 velocity=0 time=0.01967594166666666
EXTRACT: note_on channel=0 note=52 velocity=0 time=0.012731491666666664
EXTRACT: note_on channel=2 note=52 velocity=0 time=0
EXTRACT: control_change channel=3 control=1 value=70 time=0
EXTRACT: note_on channel=2 note=64 velocity=0 time=0.01851853333333333
EXTRACT: control_change channel=3 control=1 value=68 time=0.016203716666666663
EXTRACT: note_on channel=2 note=45 velocity=0 time=0.0046296333333333325
EXTRACT: control_change channel=3 control=1 value=66 time=0.026620391666666663
EXTRACT: note_on channel=1 note=33 velocity=0 time=0.03356484166666666
EXTRACT: control_change channel=3 control=1 value=65 time=0.03587965833333333
EXTRACT: note_on channel=0 note=45 velocity=81 time=0.03356484166666666
EXTRACT: note_on channel=0 note=52 velocity=76 time=0
EXTRACT: note_on channel=0 note=57 velocity=79 time=0
EXTRACT: note_on channel=1 note=33 velocity=101 time=0
EXTRACT: note_on channel=2 note=45 velocity=50 time=0
EXTRACT: note_on channel=2 note=52 velocity=57 time=0
EXTRACT: note_on channel=2 note=57 velocity=72 time=0
EXTRACT: note_on channel=2 note=59 velocity=81 time=0
EXTRACT: note_on channel=2 note=64 velocity=61 time=0
EXTRACT: note_on channel=6 note=57 velocity=61 time=0
EXTRACT: note_on channel=6 note=59 velocity=65 time=0
EXTRACT: note_on channel=6 note=64 velocity=64 time=0
EXTRACT: note_on channel=9 note=41 velocity=109 time=0
EXTRACT: note_on channel=9 note=41 velocity=0 time=0.011574083333333332
EXTRACT: control_change channel=3 control=1 value=64 time=0.024305574999999996
EXTRACT: control_change channel=3 control=1 value=63 time=0.06944449999999999
EXTRACT: note_on channel=0 note=57 velocity=0 time=0.049768558333333324
EXTRACT: note_on channel=0 note=52 velocity=0 time=0.010416674999999999
EXTRACT: control_change channel=3 control=1 value=62 time=0.009259266666666665
EXTRACT: note_on channel=2 note=57 velocity=0 time=0.0023148166666666662
EXTRACT: note_on channel=1 note=33 velocity=0 time=0.04050929166666666
EXTRACT: note_on channel=2 note=64 velocity=0 time=0.010416674999999999
EXTRACT: note_on channel=2 note=59 velocity=0 time=0.0011574083333333331
EXTRACT: control_change channel=3 control=1 value=61 time=0.015046308333333331
EXTRACT: control_change channel=3 control=1 value=60 time=0.0023148166666666662
EXTRACT: note_on channel=0 note=52 velocity=50 time=0.031250024999999994
EXTRACT: note_on channel=0 note=57 velocity=50 time=0
EXTRACT: note_on channel=1 note=33 velocity=103 time=0
EXTRACT: note_on channel=9 note=36 velocity=104 time=0
EXTRACT: control_change channel=3 control=1 value=57 time=0.0034722249999999994
EXTRACT: note_on channel=9 note=36 velocity=0 time=0.008101858333333331
EXTRACT: control_change channel=3 control=1 value=55 time=0.008101858333333331
EXTRACT: note_on channel=2 note=52 velocity=0 time=0.0034722249999999994
EXTRACT: note_on channel=2 note=45 velocity=0 time=0.0023148166666666662
EXTRACT: control_change channel=3 control=1 value=51 time=0.011574083333333332
EXTRACT: control_change channel=3 control=1 value=47 time=0.017361124999999998
EXTRACT: control_change channel=3 control=1 value=43 time=0.015046308333333331
EXTRACT: control_change channel=3 control=1 value=35 time=0.017361124999999998
EXTRACT: control_change channel=3 control=1 value=27 time=0.017361124999999998
EXTRACT: note_on channel=0 note=52 velocity=0 time=0.008101858333333331
EXTRACT: control_change channel=3 control=1 value=20 time=0.006944449999999999
EXTRACT: note_on channel=0 note=57 velocity=0 time=0.016203716666666663
EXTRACT: control_change channel=3 control=1 value=14 time=0.0011574083333333331
EXTRACT: control_change channel=3 control=1 value=7 time=0.017361124999999998
EXTRACT: control_change channel=3 control=1 value=0 time=0.015046308333333331
EXTRACT: note_on channel=1 note=33 velocity=0 time=0.05208337499999999
EXTRACT: control_change channel=3 control=1 value=2 time=0.017361124999999998
EXTRACT: note_on channel=4 note=64 velocity=0 time=0.0034722249999999994
EXTRACT: note_on channel=0 note=52 velocity=69 time=0.03587965833333333
EXTRACT: note_on channel=0 note=57 velocity=55 time=0
EXTRACT: note_on channel=1 note=33 velocity=99 time=0
EXTRACT: note_on channel=2 note=45 velocity=50 time=0
EXTRACT: note_on channel=2 note=52 velocity=50 time=0
EXTRACT: note_on channel=2 note=57 velocity=61 time=0
EXTRACT: note_on channel=2 note=59 velocity=77 time=0
EXTRACT: note_on channel=2 note=64 velocity=59 time=0
EXTRACT: note_on channel=3 note=66 velocity=78 time=0
EXTRACT: note_on channel=4 note=54 velocity=79 time=0
EXTRACT: note_on channel=4 note=66 velocity=79 time=0
EXTRACT: note_on channel=9 note=42 velocity=108 time=0
EXTRACT: note_on channel=9 note=54 velocity=116 time=0
EXTRACT: note_on channel=3 note=64 velocity=0 time=0.011574083333333332
EXTRACT: note_on channel=9 note=42 velocity=0 time=0
EXTRACT: note_on channel=9 note=54 velocity=0 time=0
EXTRACT: note_on channel=4 note=52 velocity=0 time=0.0034722249999999994
EXTRACT: control_change channel=3 control=1 value=5 time=0.015046308333333331
EXTRACT: note_on channel=2 note=57 velocity=0 time=0.027777799999999995
EXTRACT: note_on channel=2 note=52 velocity=0 time=0.008101858333333331
EXTRACT: note_on channel=2 note=64 velocity=0 time=0.015046308333333331
EXTRACT: note_on channel=0 note=52 velocity=0 time=0.0046296333333333325
EXTRACT: note_on channel=0 note=57 velocity=0 time=0.008101858333333331
EXTRACT: note_on channel=2 note=59 velocity=0 time=0.0011574083333333331
EXTRACT: control_change channel=3 control=1 value=8 time=0.0046296333333333325
EXTRACT: note_on channel=3 note=66 velocity=0 time=0.006944449999999999
EXTRACT: note_on channel=2 note=45 velocity=0 time=0.02199075833333333
EXTRACT: note_on channel=4 note=66 velocity=0 time=0.009259266666666665
EXTRACT: note_on channel=3 note=68 velocity=74 time=0.0011574083333333331
EXTRACT: note_on channel=4 note=56 velocity=92 time=0
EXTRACT: note_on channel=4 note=68 velocity=88 time=0
EXTRACT: note_on channel=4 note=54 velocity=0 time=0.01851853333333333
EXTRACT: control_change channel=3 control=1 value=11 time=0.011574083333333332
EXTRACT: note_on channel=1 note=33 velocity=0 time=0.031250024999999994
EXTRACT: control_change channel=3 control=1 value=13 time=0.03819447499999999
EXTRACT: control_change channel=3 control=1 value=14 time=0.0034722249999999994
EXTRACT: control_change channel=3 control=1 value=23 time=0.017361124999999998
EXTRACT: control_change channel=3 control=1 value=33 time=0.017361124999999998
EXTRACT: note_on channel=0 note=52 velocity=84 time=0.0011574083333333331
EXTRACT: note_on channel=0 note=57 velocity=87 time=0
EXTRACT: note_on channel=1 note=33 velocity=94 time=0
EXTRACT: note_on channel=2 note=45 velocity=50 time=0
EXTRACT: note_on channel=2 note=52 velocity=64 time=0
EXTRACT: note_on channel=2 note=57 velocity=79 time=0
EXTRACT: note_on channel=2 note=59 velocity=84 time=0
EXTRACT: note_on channel=2 note=64 velocity=71 time=0
EXTRACT: note_on channel=9 note=36 velocity=109 time=0
EXTRACT: note_on channel=9 note=40 velocity=104 time=0
EXTRACT: note_on channel=6 note=45 velocity=0 time=0.010416674999999999
EXTRACT: note_on channel=9 note=36 velocity=0 time=0.0011574083333333331
EXTRACT: note_on channel=9 note=40 velocity=0 time=0
EXTRACT: control_change channel=3 control=1 value=42 time=0.0023148166666666662
EXTRACT: control_change channel=3 control=1 value=47 time=0.017361124999999998
EXTRACT: control_change channel=3 control=1 value=53 time=0.017361124999999998
EXTRACT: control_change channel=3 control=1 value=59 time=0.015046308333333331
EXTRACT: control_change channel=3 control=1 value=62 time=0.017361124999999998
EXTRACT: note_on channel=2 note=59 velocity=0 time=0.012731491666666664
EXTRACT: control_change channel=3 control=1 value=65 time=0.0046296333333333325
EXTRACT: note_on channel=2 note=52 velocity=0 time=0.015046308333333331
EXTRACT: control_change channel=3 control=1 value=69 time=0
EXTRACT: note_on channel=2 note=57 velocity=0 time=0.0034722249999999994
EXTRACT: note_on channel=2 note=64 velocity=0 time=0.005787041666666666
EXTRACT: note_on channel=0 note=57 velocity=0 time=0.010416674999999999
EXTRACT: note_on channel=0 note=52 velocity=0 time=0.011574083333333332
EXTRACT: note_on channel=2 note=45 velocity=0 time=0
EXTRACT: control_change channel=3 control=1 value=73 time=0.0034722249999999994
EXTRACT: control_change channel=3 control=1 value=76 time=0.016203716666666663
EXTRACT: note_on channel=0 note=45 velocity=0 time=0.04513892499999999
EXTRACT: note_on channel=1 note=33 velocity=0 time=0.013888899999999997
EXTRACT: control_change channel=3 control=1 value=77 time=0.010416674999999999
EXTRACT: note_on channel=6 note=57 velocity=0 time=0.020833349999999997
EXTRACT: note_on channel=0 note=52 velocity=50 time=0.023148166666666664
EXTRACT: note_on channel=0 note=57 velocity=50 time=0
EXTRACT: note_on channel=1 note=33 velocity=94 time=0
EXTRACT: note_on channel=2 note=45 velocity=50 time=0
EXTRACT: note_on channel=2 note=52 velocity=50 time=0
EXTRACT: note_on channel=2 note=57 velocity=50 time=0
EXTRACT: note_on channel=2 note=59 velocity=70 time=0
EXTRACT: note_on channel=2 note=64 velocity=50 time=0
EXTRACT: note_on channel=6 note=45 velocity=50 time=0
EXTRACT: note_on channel=9 note=54 velocity=50 time=0
EXTRACT: note_on channel=9 note=54 velocity=0 time=0.011574083333333332
EXTRACT: control_change channel=3 control=1 value=79 time=0.013888899999999997
EXTRACT: note_on channel=6 note=59 velocity=0 time=0.024305574999999996
EXTRACT: note_on channel=2 note=59 velocity=0 time=0.0034722249999999994
EXTRACT: note_on channel=2 note=57 velocity=0 time=0.0034722249999999994
EXTRACT: note_on channel=2 note=64 velocity=0 time=0.0011574083333333331
EXTRACT: note_on channel=2 note=52 velocity=0 time=0.010416674999999999
EXTRACT: note_on channel=9 note=54 velocity=50 time=0.0011574083333333331
EXTRACT: note_on channel=0 note=57 velocity=0 time=0.006944449999999999
EXTRACT: note_on channel=0 note=52 velocity=0 time=0.0034722249999999994
EXTRACT: note_on channel=9 note=54 velocity=0 time=0.0011574083333333331
EXTRACT: note_on channel=2 note=45 velocity=0 time=0.0011574083333333331
EXTRACT: control_change channel=3 control=1 value=81 time=0.012731491666666664
EXTRACT: note_on channel=6 note=52 velocity=0 time=0.026620391666666663
EXTRACT: control_change channel=3 control=1 value=82 time=0.015046308333333331
EXTRACT: note_on channel=0 note=52 velocity=69 time=0.0023148166666666662
EXTRACT: note_on channel=0 note=57 velocity=65 time=0
EXTRACT: note_on channel=2 note=45 velocity=50 time=0
EXTRACT: note_on channel=2 note=52 velocity=66 time=0
EXTRACT: note_on channel=2 note=57 velocity=53 time=0
EXTRACT: note_on channel=2 note=59 velocity=67 time=0
EXTRACT: note_on channel=2 note=64 velocity=50 time=0
EXTRACT: note_on channel=9 note=54 velocity=61 time=0
EXTRACT: note_on channel=9 note=54 velocity=0 time=0.011574083333333332
EXTRACT: note_on channel=6 note=33 velocity=0 time=0.0011574083333333331
EXTRACT: note_on channel=2 note=52 velocity=0 time=0.034722249999999996
EXTRACT: note_on channel=2 note=45 velocity=0 time=0.008101858333333331
EXTRACT: note_on channel=2 note=64 velocity=0 time=0.0034722249999999994
EXTRACT: note_on channel=0 note=57 velocity=0 time=0.006944449999999999
EXTRACT: note_on channel=1 note=33 velocity=0 time=0
EXTRACT: control_change channel=3 control=1 value=81 time=0.0011574083333333331
EXTRACT: note_on channel=9 note=54 velocity=95 time=0.0023148166666666662
EXTRACT: note_on channel=9 note=54 velocity=0 time=0.011574083333333332
EXTRACT: note_on channel=0 note=52 velocity=0 time=0.0023148166666666662
EXTRACT: note_on channel=2 note=59 velocity=0 time=0
EXTRACT: note_on channel=2 note=57 velocity=0 time=0.0034722249999999994
EXTRACT: control_change channel=3 control=1 value=80 time=0.049768558333333324
EXTRACT: note_on channel=0 note=45 velocity=88 time=0.0023148166666666662
EXTRACT: note_on channel=0 note=52 velocity=81 time=0
EXTRACT: note_on channel=0 note=57 velocity=85 time=0
EXTRACT: note_on channel=1 note=33 velocity=85 time=0
EXTRACT: note_on channel=2 note=45 velocity=72 time=0
EXTRACT: note_on channel=2 note=52 velocity=59 time=0
EXTRACT: note_on channel=2 note=57 velocity=59 time=0
EXTRACT: note_on channel=2 note=59 velocity=90 time=0
EXTRACT: note_on channel=2 note=64 velocity=68 time=0
EXTRACT: control_change channel=3 control=1 value=79 time=0
EXTRACT: note_on channel=6 note=33 velocity=60 time=0
EXTRACT: note_on channel=6 note=52 velocity=65 time=0
EXTRACT: note_on channel=6 note=57 velocity=63 time=0
EXTRACT: note_on channel=6 note=59 velocity=63 time=0
EXTRACT: note_on channel=9 note=36 velocity=101 time=0
EXTRACT: note_on channel=9 note=41 velocity=109 time=0
EXTRACT: note_on channel=9 note=54 velocity=100 time=0
EXTRACT: note_on channel=9 note=36 velocity=0 time=0.011574083333333332
EXTRACT: note_on channel=9 note=41 velocity=0 time=0
EXTRACT: note_on channel=9 note=54 velocity=0 time=0
EXTRACT: control_change channel=3 control=1 value=78 time=0.05787041666666665
EXTRACT: note_on channel=2 note=59 velocity=0 time=0.027777799999999995
EXTRACT: control_change channel=3 control=1 value=77 time=0.011574083333333332
EXTRACT: control_change channel=3 control=1 value=75 time=0.034722249999999996
EXTRACT: note_on channel=0 note=57 velocity=0 time=0.0023148166666666662
EXTRACT: note_on channel=2 note=57 velocity=0 time=0.0011574083333333331
EXTRACT: note_on channel=2 note=64 velocity=0 time=0.0023148166666666662
EXTRACT: note_on channel=0 note=52 velocity=0 time=0.010416674999999999
EXTRACT: note_on channel=2 note=52 velocity=0 time=0
EXTRACT: control_change channel=3 control=1 value=72 time=0.01851853333333333
EXTRACT: note_on channel=2 note=45 velocity=0 time=0.008101858333333331
EXTRACT: control_change channel=3 control=1 value=69 time=0.02199075833333333
EXTRACT: note_on channel=1 note=33 velocity=0 time=0.02199075833333333
EXTRACT: control_change channel=3 control=1 value=66 time=0.012731491666666664
EXTRACT: control_change channel=3 control=1 value=64 time=0.015046308333333331
EXTRACT: note_on channel=0 note=52 velocity=51 time=0.01967594166666666
EXTRACT: note_on channel=0 note=57 velocity=50 time=0
EXTRACT: note_on channel=1 note=33 velocity=92 time=0
EXTRACT: control_change channel=3 control=1 value=61 time=0.015046308333333331
EXTRACT: control_change channel=3 control=1 value=58 time=0.034722249999999996
EXTRACT: note_on channel=6 note=57 velocity=0 time=0.017361124999999998
EXTRACT: note_on channel=6 note=59 velocity=0 time=0.0023148166666666662
EXTRACT: control_change channel=3 control=1 value=55 time=0.011574083333333332
EXTRACT: note_on channel=0 note=52 velocity=0 time=0.011574083333333332
EXTRACT: note_on channel=0 note=57 velocity=0 time=0.01967594166666666
EXTRACT: control_change channel=3 control=1 value=52 time=0.0034722249999999994
EXTRACT: control_change channel=3 control=1 value=50 time=0.015046308333333331
EXTRACT: note_on channel=6 note=64 velocity=0 time=0.03356484166666666
EXTRACT: control_change channel=3 control=1 value=45 time=0.0011574083333333331
EXTRACT: control_change channel=3 control=1 value=42 time=0.015046308333333331
EXTRACT: control_change channel=3 control=1 value=36 time=0.017361124999999998
EXTRACT: control_change channel=3 control=1 value=29 time=0.017361124999999998
EXTRACT: note_on channel=1 note=33 velocity=0 time=0.0011574083333333331
EXTRACT: control_change channel=3 control=1 value=23 time=0.015046308333333331
EXTRACT: control_change channel=3 control=1 value=15 time=0.017361124999999998
EXTRACT: note_on channel=4 note=68 velocity=0 time=0.010416674999999999
EXTRACT: control_change channel=3 control=1 value=7 time=0.006944449999999999
EXTRACT: note_on channel=0 note=52 velocity=70 time=0.011574083333333332
EXTRACT: note_on channel=0 note=57 velocity=67 time=0
EXTRACT: note_on channel=1 note=33 velocity=92 time=0
EXTRACT: note_on channel=2 note=45 velocity=50 time=0
EXTRACT: note_on channel=2 note=52 velocity=50 time=0
EXTRACT: note_on channel=2 note=57 velocity=64 time=0
EXTRACT: note_on channel=2 note=59 velocity=73 time=0
EXTRACT: note_on channel=2 note=64 velocity=58 time=0
EXTRACT: note_on channel=9 note=36 velocity=99 time=0
EXTRACT: note_on channel=9 note=42 velocity=111 time=0
EXTRACT: note_on channel=9 note=54 velocity=116 time=0
EXTRACT: control_change channel=3 control=1 value=0 time=0.0034722249999999994
EXTRACT: note_on channel=9 note=36 velocity=0 time=0.008101858333333331
EXTRACT: note_on channel=9 note=42 velocity=0 time=0
EXTRACT: note_on channel=9 note=54 velocity=0 time=0
EXTRACT: note_on channel=3 note=68 velocity=0 time=0.024305574999999996
EXTRACT: note_on channel=4 note=56 velocity=0 time=0.016203716666666663
EXTRACT: note_on channel=2 note=57 velocity=0 time=0.0034722249999999994
EXTRACT: note_on channel=2 note=64 velocity=0 time=0.0034722249999999994
EXTRACT: note_on channel=2 note=59 velocity=0 time=0.012731491666666664
EXTRACT: note_on channel=2 note=52 velocity=0 time=0.008101858333333331
EXTRACT: note_on channel=0 note=45 velocity=0 time=0.012731491666666664
EXTRACT: note_on channel=0 note=57 velocity=0 time=0.008101858333333331
EXTRACT: note_on channel=0 note=52 velocity=0 time=0.0034722249999999994
EXTRACT: note_on channel=2 note=45 velocity=0 time=0.034722249999999996
EXTRACT: note_on channel=1 note=33 velocity=0 time=0.08101858333333332
EXTRACT: note_on channel=0 note=45 velocity=94 time=0.05787041666666665
EXTRACT: note_on channel=0 note=52 velocity=85 time=0
EXTRACT: note_on channel=0 note=57 velocity=92 time=0
EXTRACT: note_on channel=1 note=33 velocity=98 time=0
EXTRACT: note_on channel=2 note=45 velocity=50 time=0
EXTRACT: note_on channel=2 note=52 velocity=50 time=0
EXTRACT: note_on channel=2 note=57 velocity=69 time=0
EXTRACT: note_on channel=2 note=59 velocity=82 time=0
EXTRACT: note_on channel=2 note=64 velocity=70 time=0
EXTRACT: note_on channel=6 note=57 velocity=70 time=0
EXTRACT: note_on channel=6 note=59 velocity=77 time=0
EXTRACT: note_on channel=6 note=64 velocity=83 time=0
EXTRACT: note_on channel=9 note=41 velocity=109 time=0
EXTRACT: note_on channel=9 note=41 velocity=0 time=0.011574083333333332
EXTRACT: note_on channel=0 note=52 velocity=0 time=0.11921305833333332
EXTRACT: note_on channel=0 note=57 velocity=0 time=0
EXTRACT: note_on channel=1 note=33 velocity=0 time=0.06250004999999999
EXTRACT: note_on channel=2 note=57 velocity=0 time=0.053240783333333326
EXTRACT: note_on channel=2 note=59 velocity=0 time=0.013888899999999997
EXTRACT: note_on channel=2 note=64 velocity=0 time=0.008101858333333331
EXTRACT: note_on channel=2 note=52 velocity=0 time=0.0046296333333333325
EXTRACT: note_on channel=0 note=52 velocity=50 time=0.0046296333333333325
EXTRACT: note_on channel=0 note=57 velocity=50 time=0
EXTRACT: note_on channel=1 note=33 velocity=88 time=0
EXTRACT: note_on channel=9 note=36 velocity=107 time=0
EXTRACT: note_on channel=9 note=36 velocity=0 time=0.011574083333333332
EXTRACT: note_on channel=0 note=52 velocity=0 time=0.07523154166666665
EXTRACT: note_on channel=2 note=45 velocity=0 time=0.0034722249999999994
EXTRACT: note_on channel=0 note=57 velocity=0 time=0.023148166666666664
EXTRACT: note_on channel=1 note=33 velocity=0 time=0.08796303333333332
EXTRACT: note_on channel=6 note=45 velocity=0 time=0.05671300833333332
EXTRACT: note_on channel=6 note=52 velocity=0 time=0.0034722249999999994
EXTRACT: note_on channel=0 note=52 velocity=70 time=0.016203716666666663
EXTRACT: note_on channel=0 note=57 velocity=57 time=0
EXTRACT: note_on channel=1 note=33 velocity=84 time=0
EXTRACT: note_on channel=2 note=45 velocity=50 time=0
EXTRACT: note_on channel=2 note=52 velocity=50 time=0
EXTRACT: note_on channel=2 note=57 velocity=64 time=0
EXTRACT: note_on channel=2 note=59 velocity=72 time=0
EXTRACT: note_on channel=2 note=64 velocity=59 time=0
EXTRACT: note_on channel=3 note=64 velocity=87 time=0
EXTRACT: note_on channel=4 note=52 velocity=73 time=0
EXTRACT: note_on channel=4 note=64 velocity=93 time=0
EXTRACT: note_on channel=9 note=42 velocity=106 time=0
EXTRACT: note_on channel=9 note=54 velocity=116 time=0
EXTRACT: note_on channel=9 note=42 velocity=0 time=0.011574083333333332
EXTRACT: note_on channel=9 note=54 velocity=0 time=0
EXTRACT: note_on channel=2 note=57 velocity=0 time=0.04629633333333333
EXTRACT: note_on channel=2 note=59 velocity=0 time=0.0023148166666666662
EXTRACT: note_on channel=2 note=52 velocity=0 time=0.0034722249999999994
EXTRACT: note_on channel=2 note=64 velocity=0 time=0.0011574083333333331
EXTRACT: note_on channel=2 note=45 velocity=0 time=0.020833349999999997
EXTRACT: note_on channel=0 note=52 velocity=0 time=0.0046296333333333325
EXTRACT: note_on channel=0 note=57 velocity=0 time=0.0034722249999999994
EXTRACT: note_on channel=4 note=64 velocity=0 time=0.10879638333333332
EXTRACT: note_on channel=1 note=33 velocity=0 time=0.005787041666666666
EXTRACT: note_on channel=3 note=64 velocity=0 time=0.008101858333333331
EXTRACT: note_on channel=4 note=52 velocity=0 time=0
EXTRACT: note_on channel=0 note=52 velocity=88 time=0.061342641666666656
EXTRACT: note_on channel=0 note=57 velocity=96 time=0
EXTRACT: note_on channel=1 note=33 velocity=86 time=0
EXTRACT: note_on channel=2 note=45 velocity=50 time=0
EXTRACT: note_on channel=2 note=52 velocity=50 time=0
EXTRACT: note_on channel=2 note=57 velocity=70 time=0
EXTRACT: note_on channel=2 note=59 velocity=74 time=0
EXTRACT: note_on channel=2 note=64 velocity=65 time=0
EXTRACT: note_on channel=3 note=64 velocity=91 time=0
EXTRACT: note_on channel=4 note=52 velocity=53 time=0
EXTRACT: note_on channel=4 note=64 velocity=96 time=0
EXTRACT: note_on channel=6 note=45 velocity=82 time=0
EXTRACT: note_on channel=6 note=52 velocity=80 time=0
EXTRACT: note_on channel=9 note=36 velocity=110 time=0
EXTRACT: note_on channel=9 note=40 velocity=107 time=0
EXTRACT: note_on channel=9 note=36 velocity=0 time=0.011574083333333332
EXTRACT: note_on channel=9 note=40 velocity=0 time=0
EXTRACT: note_on channel=2 note=59 velocity=0 time=0.026620391666666663
EXTRACT: note_on channel=2 note=64 velocity=0 time=0.009259266666666665
EXTRACT: note_on channel=2 note=52 velocity=0 time=0.005787041666666666
EXTRACT: note_on channel=2 note=45 velocity=0 time=0.0023148166666666662
EXTRACT: note_on channel=2 note=57 velocity=0 time=0.0011574083333333331
EXTRACT: note_on channel=2 note=45 velocity=62 time=0.08217599166666666
EXTRACT: note_on channel=2 note=52 velocity=54 time=0
EXTRACT: note_on channel=2 note=57 velocity=65 time=0
EXTRACT: note_on channel=2 note=59 velocity=59 time=0
EXTRACT: note_on channel=2 note=64 velocity=61 time=0
EXTRACT: note_on channel=0 note=52 velocity=0 time=0.005787041666666666
EXTRACT: note_on channel=0 note=57 velocity=0 time=0.009259266666666665
EXTRACT: note_on channel=2 note=57 velocity=0 time=0.027777799999999995
EXTRACT: note_on channel=2 note=52 velocity=0 time=0.0046296333333333325
EXTRACT: note_on channel=2 note=64 velocity=0 time=0.0023148166666666662
EXTRACT: note_on channel=2 note=45 velocity=0 time=0.0023148166666666662
EXTRACT: note_on channel=2 note=59 velocity=0 time=0.012731491666666664
EXTRACT: note_on channel=1 note=33 velocity=0 time=0.006944449999999999
EXTRACT: note_on channel=15 note=57 velocity=0 time=0.015046308333333331
EXTRACT: note_on channel=15 note=61 velocity=0 time=0.009259266666666665
EXTRACT: note_on channel=6 note=57 velocity=0 time=0.013888899999999997
EXTRACT: note_on channel=6 note=52 velocity=0 time=0.0011574083333333331
EXTRACT: note_on channel=4 note=64 velocity=0 time=0.0046296333333333325
EXTRACT: note_on channel=6 note=59 velocity=0 time=0.02199075833333333
EXTRACT: note_on channel=0 note=52 velocity=57 time=0.0011574083333333331
EXTRACT: note_on channel=0 note=57 velocity=50 time=0
EXTRACT: note_on channel=1 note=33 velocity=90 time=0
EXTRACT: note_on channel=2 note=45 velocity=51 time=0
EXTRACT: note_on channel=2 note=52 velocity=50 time=0
EXTRACT: note_on channel=2 note=57 velocity=60 time=0
EXTRACT: note_on channel=2 note=59 velocity=80 time=0
EXTRACT: note_on channel=2 note=64 velocity=51 time=0
EXTRACT: note_on channel=3 note=66 velocity=93 time=0
EXTRACT: note_on channel=4 note=54 velocity=83 time=0
EXTRACT: note_on channel=4 note=66 velocity=98 time=0
EXTRACT: note_on channel=9 note=54 velocity=50 time=0
EXTRACT: note_on channel=0 note=45 velocity=0 time=0.0023148166666666662
EXTRACT: note_on channel=10 note=57 velocity=0 time=0.0011574083333333331
EXTRACT: note_on channel=9 note=54 velocity=0 time=0.008101858333333331
EXTRACT: note_on channel=3 note=64 velocity=0 time=0.0046296333333333325
EXTRACT: note_on channel=6 note=45 velocity=0 time=0.005787041666666666
EXTRACT: note_on channel=6 note=64 velocity=0 time=0.009259266666666665
EXTRACT: note_on channel=10 note=45 velocity=0 time=0
EXTRACT: note_on channel=10 note=59 velocity=0 time=0.005787041666666666
EXTRACT: note_on channel=15 note=64 velocity=0 time=0.0011574083333333331
EXTRACT: note_on channel=15 note=45 velocity=0 time=0.0011574083333333331
EXTRACT: note_on channel=2 note=64 velocity=0 time=0.009259266666666665
EXTRACT: note_on channel=2 note=57 velocity=0 time=0
EXTRACT: note_on channel=2 note=45 velocity=0 time=0.009259266666666665
EXTRACT: note_on channel=2 note=52 velocity=0 time=0.0011574083333333331
EXTRACT: note_on channel=2 note=59 velocity=0 time=0.008101858333333331
EXTRACT: note_on channel=9 note=54 velocity=54 time=0.0023148166666666662
EXTRACT: note_on channel=9 note=54 velocity=0 time=0.011574083333333332
EXTRACT: note_on channel=4 note=52 velocity=0 time=0.01967594166666666
EXTRACT: note_on channel=0 note=52 velocity=0 time=0.005787041666666666
EXTRACT: note_on channel=0 note=57 velocity=0 time=0
EXTRACT: note_on channel=6 note=33 velocity=0 time=0.013888899999999997
EXTRACT: note_on channel=10 note=64 velocity=0 time=0.011574083333333332
EXTRACT: note_on channel=2 note=45 velocity=50 time=0.006944449999999999
EXTRACT: note_on channel=2 note=52 velocity=50 time=0
EXTRACT: note_on channel=2 note=57 velocity=63 time=0
EXTRACT: note_on channel=2 note=59 velocity=70 time=0
EXTRACT: note_on channel=2 note=64 velocity=50 time=0
EXTRACT: note_on channel=9 note=54 velocity=68 time=0
EXTRACT: note_on channel=9 note=54 velocity=0 time=0.011574083333333332
EXTRACT: control_change channel=15 control=64 value=0 time=0.010416674999999999
EXTRACT: note_on channel=2 note=57 velocity=0 time=0.015046308333333331
EXTRACT: note_on channel=2 note=45 velocity=0 time=0.006944449999999999
EXTRACT: note_on channel=2 note=52 velocity=0 time=0.01967594166666666
EXTRACT: note_on channel=9 note=54 velocity=76 time=0.005787041666666666
EXTRACT: note_on channel=2 note=59 velocity=0 time=0.008101858333333331
EXTRACT: note_on channel=2 note=64 velocity=0 time=0
EXTRACT: note_on channel=3 note=66 velocity=0 time=0
EXTRACT: pitchwheel channel=3 pitch=-1536 time=0.0011574083333333331
EXTRACT: note_on channel=9 note=54 velocity=0 time=0.0023148166666666662
EXTRACT: note_on channel=4 note=66 velocity=0 time=0.0023148166666666662
EXTRACT: control_change channel=0 control=64 value=0 time=0.006944449999999999
EXTRACT: control_change channel=10 control=64 value=0 time=0.011574083333333332
EXTRACT: note_on channel=1 note=33 velocity=0 time=0.0034722249999999994
EXTRACT: control_change channel=6 control=64 value=0 time=0.015046308333333331
EXTRACT: pitchwheel channel=3 pitch=-5248 time=0.008101858333333331
EXTRACT: control_change channel=2 control=64 value=0 time=0.0034722249999999994
EXTRACT: control_change channel=0 control=64 value=0 time=0.006944449999999999
EXTRACT: note_on channel=0 note=40 velocity=70 time=0
EXTRACT: note_on channel=0 note=52 velocity=70 time=0
EXTRACT: note_on channel=0 note=56 velocity=68 time=0
EXTRACT: note_on channel=1 note=40 velocity=87 time=0
EXTRACT: note_on channel=2 note=40 velocity=56 time=0
EXTRACT: note_on channel=2 note=47 velocity=75 time=0
EXTRACT: note_on channel=2 note=52 velocity=61 time=0
EXTRACT: note_on channel=2 note=56 velocity=82 time=0
EXTRACT: note_on channel=2 note=59 velocity=73 time=0
EXTRACT: note_on channel=2 note=64 velocity=56 time=0
EXTRACT: control_change channel=3 control=1 value=0 time=0
EXTRACT: note_on channel=3 note=68 velocity=92 time=0
EXTRACT: note_on channel=4 note=56 velocity=83 time=0
EXTRACT: note_on channel=4 note=68 velocity=98 time=0
EXTRACT: control_change channel=6 control=64 value=0 time=0
EXTRACT: note_on channel=6 note=28 velocity=65 time=0
EXTRACT: note_on channel=6 note=40 velocity=74 time=0
EXTRACT: note_on channel=6 note=56 velocity=80 time=0
EXTRACT: note_on channel=6 note=59 velocity=88 time=0
EXTRACT: note_on channel=6 note=64 velocity=79 time=0
EXTRACT: note_on channel=7 note=76 velocity=84 time=0
EXTRACT: note_on channel=9 note=36 velocity=98 time=0
EXTRACT: note_on channel=9 note=41 velocity=110 time=0
EXTRACT: note_on channel=9 note=54 velocity=100 time=0
EXTRACT: control_change channel=10 control=64 value=0 time=0
EXTRACT: note_on channel=10 note=40 velocity=72 time=0
EXTRACT: note_on channel=10 note=56 velocity=65 time=0
EXTRACT: note_on channel=10 note=59 velocity=74 time=0
EXTRACT: note_on channel=10 note=64 velocity=69 time=0
EXTRACT: control_change channel=15 control=64 value=0 time=0
EXTRACT: note_on channel=15 note=40 velocity=1 time=0
EXTRACT: note_on channel=15 note=56 velocity=1 time=0
EXTRACT: note_on channel=15 note=59 velocity=1 time=0
EXTRACT: note_on channel=15 note=64 velocity=1 time=0
EXTRACT: note_on channel=4 note=54 velocity=0 time=0.005787041666666666
EXTRACT: note_on channel=7 note=81 velocity=0 time=0
EXTRACT: note_on channel=9 note=36 velocity=0 time=0.005787041666666666
EXTRACT: note_on channel=9 note=41 velocity=0 time=0
EXTRACT: note_on channel=9 note=54 velocity=0 time=0
EXTRACT: control_change channel=0 control=64 value=127 time=0.016203716666666663
EXTRACT: pitchwheel channel=3 pitch=-6144 time=0.012731491666666664
EXTRACT: pitchwheel channel=3 pitch=-4992 time=0.049768558333333324
EXTRACT: note_on channel=0 note=56 velocity=0 time=0.03935188333333332
EXTRACT: note_on channel=0 note=52 velocity=0 time=0.0046296333333333325
EXTRACT: pitchwheel channel=3 pitch=0 time=0.005787041666666666
EXTRACT: control_change channel=2 control=64 value=127 time=0.0023148166666666662
EXTRACT: pitchwheel channel=3 pitch=0 time=0.04745374166666666
EXTRACT: note_on channel=1 note=40 velocity=0 time=0.027777799999999995
EXTRACT: note_on channel=0 note=52 velocity=50 time=0.060185233333333324
EXTRACT: note_on channel=0 note=56 velocity=50 time=0
EXTRACT: note_on channel=1 note=40 velocity=85 time=0
EXTRACT: control_change channel=6 control=64 value=127 time=0.03703706666666666
EXTRACT: note_on channel=0 note=56 velocity=0 time=0.028935208333333327
EXTRACT: note_on channel=4 note=68 velocity=0 time=0
EXTRACT: control_change channel=3 control=1 value=1 time=0.0046296333333333325
EXTRACT: note_on channel=2 note=56 velocity=0 time=0.0034722249999999994
EXTRACT: note_on channel=2 note=59 velocity=0 time=0.006944449999999999
EXTRACT: note_on channel=0 note=52 velocity=0 time=0.0011574083333333331
EXTRACT: note_on channel=4 note=56 velocity=0 time=0.012731491666666664
EXTRACT: note_on channel=2 note=52 velocity=0 time=0.0023148166666666662
EXTRACT: note_on channel=2 note=40 velocity=0 time=0.0011574083333333331
EXTRACT: note_on channel=3 note=68 velocity=0 time=0.0023148166666666662
EXTRACT: note_on channel=2 note=64 velocity=0 time=0.008101858333333331
EXTRACT: note_on channel=2 note=47 velocity=0 time=0.012731491666666664
EXTRACT: control_change channel=15 control=64 value=127 time=0.0046296333333333325
EXTRACT: note_on channel=0 note=40 velocity=0 time=0.03356484166666666
EXTRACT: control_change channel=10 control=64 value=127 time=0.04398151666666666
EXTRACT: note_on channel=1 note=40 velocity=0 time=0.028935208333333327
EXTRACT: note_on channel=0 note=52 velocity=50 time=0.04513892499999999
EXTRACT: note_on channel=0 note=56 velocity=50 time=0
EXTRACT: note_on channel=1 note=40 velocity=91 time=0
EXTRACT: note_on channel=2 note=40 velocity=50 time=0
EXTRACT: note_on channel=2 note=47 velocity=50 time=0
EXTRACT: note_on channel=2 note=52 velocity=56 time=0
EXTRACT: note_on channel=2 note=56 velocity=61 time=0
EXTRACT: note_on channel=2 note=59 velocity=59 time=0
EXTRACT: note_on channel=2 note=64 velocity=50 time=0
EXTRACT: note_on channel=9 note=36 velocity=104 time=0
EXTRACT: note_on channel=9 note=42 velocity=102 time=0
EXTRACT: note_on channel=9 note=54 velocity=116 time=0
EXTRACT: note_on channel=9 note=36 velocity=0 time=0.011574083333333332
EXTRACT: note_on channel=9 note=42 velocity=0 time=0
EXTRACT: note_on channel=9 note=54 velocity=0 time=0
EXTRACT: note_on channel=2 note=59 velocity=0 time=0.04398151666666666
EXTRACT: note_on channel=2 note=64 velocity=0 time=0.012731491666666664
EXTRACT: note_on channel=0 note=52 velocity=0 time=0.005787041666666666
EXTRACT: note_on channel=2 note=56 velocity=0 time=0.0011574083333333331
EXTRACT: note_on channel=2 note=52 velocity=0 time=0.01967594166666666
EXTRACT: note_on channel=2 note=40 velocity=0 time=0.01851853333333333
EXTRACT: note_on channel=0 note=56 velocity=0 time=0.0011574083333333331
EXTRACT: note_on channel=2 note=47 velocity=0 time=0.013888899999999997
EXTRACT: control_change channel=3 control=1 value=2 time=0.012731491666666664
EXTRACT: note_on channel=1 note=40 velocity=0 time=0.06944449999999999
EXTRACT: note_on channel=0 note=40 velocity=72 time=0.06712968333333331
EXTRACT: note_on channel=0 note=52 velocity=65 time=0
EXTRACT: note_on channel=0 note=56 velocity=65 time=0
EXTRACT: note_on channel=1 note=40 velocity=92 time=0
EXTRACT: note_on channel=2 note=40 velocity=50 time=0
EXTRACT: note_on channel=2 note=47 velocity=58 time=0
EXTRACT: note_on channel=2 note=52 velocity=67 time=0
EXTRACT: note_on channel=2 note=56 velocity=70 time=0
EXTRACT: note_on channel=2 note=59 velocity=72 time=0
EXTRACT: note_on channel=2 note=64 velocity=64 time=0
EXTRACT: note_on channel=9 note=41 velocity=113 time=0
EXTRACT: note_on channel=9 note=41 velocity=0 time=0.011574083333333332
EXTRACT: note_on channel=0 note=52 velocity=0 time=0.10416674999999997
EXTRACT: note_on channel=0 note=56 velocity=0 time=0.017361124999999998
EXTRACT: note_on channel=1 note=40 velocity=0 time=0.06365745833333332
EXTRACT: control_change channel=3 control=1 value=3 time=0.016203716666666663
EXTRACT: note_on channel=2 note=40 velocity=0 time=0.010416674999999999
EXTRACT: note_on channel=2 note=56 velocity=0 time=0.009259266666666665
EXTRACT: note_on channel=2 note=64 velocity=0 time=0.012731491666666664
EXTRACT: note_on channel=2 note=52 velocity=0 time=0.0023148166666666662
EXTRACT: note_on channel=2 note=59 velocity=0 time=0.011574083333333332
EXTRACT: note_on channel=2 note=47 velocity=0 time=0.017361124999999998
EXTRACT: note_on channel=0 note=52 velocity=50 time=0.0011574083333333331
EXTRACT: note_on channel=0 note=56 velocity=50 time=0
EXTRACT: note_on channel=1 note=40 velocity=92 time=0
EXTRACT: note_on channel=3 note=59 velocity=89 time=0
EXTRACT: note_on channel=4 note=47 velocity=75 time=0
EXTRACT: note_on channel=4 note=59 velocity=100 time=0
EXTRACT: note_on channel=9 note=36 velocity=104 time=0
EXTRACT: note_on channel=9 note=36 velocity=0 time=0.011574083333333332
EXTRACT: note_on channel=0 note=52 velocity=0 time=0.06712968333333331
EXTRACT: note_on channel=0 note=56 velocity=0 time=0.05439819166666666
EXTRACT: note_on channel=1 note=40 velocity=0 time=0.09027784999999998
EXTRACT: note_on channel=0 note=52 velocity=50 time=0.05439819166666666
EXTRACT: note_on channel=0 note=56 velocity=50 time=0
EXTRACT: note_on channel=1 note=40 velocity=77 time=0
EXTRACT: note_on channel=2 note=40 velocity=50 time=0
EXTRACT: note_on channel=2 note=47 velocity=50 time=0
EXTRACT: note_on channel=2 note=52 velocity=50 time=0
EXTRACT: note_on channel=2 note=56 velocity=67 time=0
EXTRACT: note_on channel=2 note=59 velocity=69 time=0
EXTRACT: note_on channel=2 note=64 velocity=53 time=0
EXTRACT: note_on channel=9 note=42 velocity=102 time=0
EXTRACT: note_on channel=9 note=54 velocity=116 time=0
EXTRACT: control_change channel=3 control=1 value=4 time=0.005787041666666666
EXTRACT: note_on channel=9 note=42 velocity=0 time=0.005787041666666666
EXTRACT: note_on channel=9 note=54 velocity=0 time=0
EXTRACT: note_on channel=3 note=59 velocity=0 time=0.0011574083333333331
EXTRACT: note_on channel=2 note=64 velocity=0 time=0.05671300833333332
EXTRACT: note_on channel=0 note=52 velocity=0 time=0.012731491666666664
EXTRACT: note_on channel=2 note=56 velocity=0 time=0.0011574083333333331
EXTRACT: note_on channel=2 note=52 velocity=0 time=0.006944449999999999
EXTRACT: note_on channel=2 note=59 velocity=0 time=0.013888899999999997
EXTRACT: note_on channel=2 note=47 velocity=0 time=0.013888899999999997
EXTRACT: note_on channel=0 note=56 velocity=0 time=0.0034722249999999994
EXTRACT: note_on channel=4 note=59 velocity=0 time=0.010416674999999999
EXTRACT: note_on channel=2 note=40 velocity=0 time=0.0023148166666666662
EXTRACT: note_on channel=4 note=47 velocity=0 time=0.07407413333333332
EXTRACT: note_on channel=1 note=40 velocity=0 time=0.009259266666666665
EXTRACT: note_on channel=0 note=52 velocity=70 time=0.060185233333333324
EXTRACT: note_on channel=0 note=56 velocity=64 time=0
EXTRACT: note_on channel=1 note=40 velocity=82 time=0
EXTRACT: note_on channel=2 note=40 velocity=50 time=0
EXTRACT: note_on channel=2 note=47 velocity=51 time=0
EXTRACT: note_on channel=2 note=52 velocity=61 time=0
EXTRACT: note_on channel=2 note=56 velocity=63 time=0
EXTRACT: note_on channel=2 note=59 velocity=74 time=0
EXTRACT: note_on channel=2 note=64 velocity=54 time=0
EXTRACT: note_on channel=9 note=36 velocity=112 time=0
EXTRACT: note_on channel=9 note=40 velocity=103 time=0
EXTRACT: note_on channel=9 note=36 velocity=0 time=0.011574083333333332
EXTRACT: note_on channel=9 note=40 velocity=0 time=0
EXTRACT: note_on channel=0 note=40 velocity=0 time=0.009259266666666665
EXTRACT: control_change channel=10 control=1 value=48 time=0.015046308333333331
EXTRACT: note_on channel=2 note=64 velocity=0 time=0.034722249999999996
EXTRACT: control_change channel=3 control=1 value=5 time=0.006944449999999999
EXTRACT: control_change channel=10 control=1 value=49 time=0.008101858333333331
EXTRACT: note_on channel=2 note=56 velocity=0 time=0.012731491666666664
EXTRACT: note_on channel=2 note=59 velocity=0 time=0.02199075833333333
EXTRACT: note_on channel=2 note=52 velocity=0 time=0
EXTRACT: control_change channel=10 control=1 value=51 time=0
EXTRACT: note_on channel=0 note=52 velocity=0 time=0.015046308333333331
EXTRACT: control_change channel=10 control=1 value=53 time=0
EXTRACT: note_on channel=2 note=47 velocity=0 time=0.0046296333333333325
EXTRACT: note_on channel=0 note=56 velocity=0 time=0.0023148166666666662
EXTRACT: note_on channel=2 note=40 velocity=0 time=0.027777799999999995
EXTRACT: control_change channel=10 control=1 value=51 time=0.034722249999999996
EXTRACT: note_on channel=1 note=40 velocity=0 time=0.027777799999999995
EXTRACT: control_change channel=10 control=1 value=48 time=0.041666699999999994
EXTRACT: note_on channel=0 note=52 velocity=50 time=0.0034722249999999994
EXTRACT: note_on channel=0 note=56 velocity=50 time=0
EXTRACT: note_on channel=1 note=40 velocity=90 time=0
EXTRACT: note_on channel=2 note=40 velocity=50 time=0
EXTRACT: note_on channel=2 note=47 velocity=50 time=0
EXTRACT: note_on channel=2 note=52 velocity=50 time=0
EXTRACT: note_on channel=2 note=56 velocity=69 time=0
EXTRACT: note_on channel=2 note=59 velocity=50 time=0
EXTRACT: note_on channel=2 note=64 velocity=50 time=0
EXTRACT: note_on channel=9 note=54 velocity=50 time=0
EXTRACT: note_on channel=6 note=28 velocity=0 time=0.008101858333333331
EXTRACT: control_change channel=10 control=1 value=47 time=0
EXTRACT: note_on channel=6 note=56 velocity=0 time=0.0034722249999999994
EXTRACT: note_on channel=9 note=54 velocity=0 time=0
EXTRACT: control_change channel=10 control=1 value=43 time=0.013888899999999997
EXTRACT: note_on channel=6 note=59 velocity=0 time=0.011574083333333332
EXTRACT: control_change channel=10 control=1 value=39 time=0.005787041666666666
EXTRACT: note_on channel=2 note=56 velocity=0 time=0.0034722249999999994
EXTRACT: control_change channel=10 control=1 value=35 time=0.011574083333333332
EXTRACT: note_on channel=2 note=47 velocity=0 time=0.0011574083333333331
EXTRACT: note_on channel=2 note=59 velocity=0 time=0.0023148166666666662
EXTRACT: note_on channel=2 note=64 velocity=0 time=0
EXTRACT: note_on channel=2 note=52 velocity=0 time=0.0023148166666666662
EXTRACT: note_on channel=0 note=52 velocity=0 time=0.0046296333333333325
EXTRACT: note_on channel=9 note=54 velocity=50 time=0.0011574083333333331
EXTRACT: control_change channel=10 control=1 value=23 time=0.005787041666666666
EXTRACT: note_on channel=2 note=40 velocity=0 time=0.0011574083333333331
EXTRACT: note_on channel=9 note=54 velocity=0 time=0.0046296333333333325
EXTRACT: control_change channel=10 control=1 value=11 time=0.011574083333333332
EXTRACT: note_on channel=0 note=56 velocity=0 time=0.0023148166666666662
EXTRACT: control_change channel=10 control=1 value=0 time=0.012731491666666664
EXTRACT: note_on channel=0 note=52 velocity=50 time=0.031250024999999994
EXTRACT: note_on channel=0 note=56 velocity=50 time=0
EXTRACT: note_on channel=2 note=40 velocity=50 time=0
EXTRACT: note_on channel=2 note=47 velocity=52 time=0
EXTRACT: note_on channel=2 note=52 velocity=55 time=0
EXTRACT: note_on channel=2 note=56 velocity=50 time=0
EXTRACT: note_on channel=2 note=59 velocity=77 time=0
EXTRACT: note_on channel=2 note=64 velocity=50 time=0
EXTRACT: note_on channel=9 note=54 velocity=61 time=0
EXTRACT: control_change channel=3 control=1 value=6 time=0.009259266666666665
EXTRACT: note_on channel=9 note=54 velocity=0 time=0.0023148166666666662
EXTRACT: control_change channel=10 control=1 value=2 time=0.026620391666666663
EXTRACT: note_on channel=2 note=59 velocity=0 time=0.0023148166666666662
EXTRACT: note_on channel=0 note=56 velocity=0 time=0.0046296333333333325
EXTRACT: note_on channel=2 note=47 velocity=0 time=0.0011574083333333331
EXTRACT: note_on channel=2 note=52 velocity=0 time=0.0023148166666666662
EXTRACT: note_on channel=2 note=64 velocity=0 time=0
EXTRACT: note_on channel=2 note=56 velocity=0 time=0.0034722249999999994
EXTRACT: note_on channel=0 note=52 velocity=0 time=0.0023148166666666662
EXTRACT: note_on channel=1 note=40 velocity=0 time=0.006944449999999999
EXTRACT: note_on channel=9 note=54 velocity=95 time=0.008101858333333331
EXTRACT: note_on channel=9 note=54 velocity=0 time=0.011574083333333332
EXTRACT: control_change channel=10 control=1 value=5 time=0.026620391666666663
EXTRACT: note_on channel=0 note=40 velocity=72 time=0.031250024999999994
EXTRACT: note_on channel=0 note=52 velocity=61 time=0
EXTRACT: note_on channel=0 note=56 velocity=50 time=0
EXTRACT: note_on channel=1 note=40 velocity=82 time=0
EXTRACT: note_on channel=2 note=47 velocity=59 time=0
EXTRACT: note_on channel=2 note=52 velocity=60 time=0
EXTRACT: note_on channel=2 note=56 velocity=72 time=0
EXTRACT: note_on channel=2 note=59 velocity=80 time=0
EXTRACT: note_on channel=2 note=64 velocity=73 time=0
EXTRACT: note_on channel=3 note=66 velocity=78 time=0
EXTRACT: note_on channel=4 note=54 velocity=85 time=0
EXTRACT: note_on channel=4 note=66 velocity=90 time=0
EXTRACT: note_on channel=6 note=28 velocity=61 time=0
EXTRACT: note_on channel=6 note=56 velocity=66 time=0
EXTRACT: note_on channel=6 note=59 velocity=61 time=0
EXTRACT: note_on channel=9 note=36 velocity=103 time=0
EXTRACT: note_on channel=9 note=41 velocity=107 time=0
EXTRACT: note_on channel=9 note=54 velocity=100 time=0
EXTRACT: note_on channel=9 note=36 velocity=0 time=0.011574083333333332
EXTRACT: note_on channel=9 note=41 velocity=0 time=0
EXTRACT: note_on channel=9 note=54 velocity=0 time=0
EXTRACT: control_change channel=10 control=1 value=8 time=0.026620391666666663
EXTRACT: control_change channel=10 control=1 value=10 time=0.06944449999999999
EXTRACT: note_on channel=0 note=52 velocity=0 time=0.010416674999999999
EXTRACT: note_on channel=0 note=56 velocity=0 time=0.026620391666666663
EXTRACT: control_change channel=10 control=1 value=13 time=0.032407433333333326
EXTRACT: note_on channel=2 note=56 velocity=0 time=0.015046308333333331
EXTRACT: note_on channel=2 note=52 velocity=0 time=0
EXTRACT: note_on channel=1 note=40 velocity=0 time=0.006944449999999999
EXTRACT: note_on channel=2 note=40 velocity=0 time=0.0011574083333333331
EXTRACT: note_on channel=2 note=64 velocity=0 time=0.0046296333333333325
EXTRACT: note_on channel=2 note=59 velocity=0 time=0.0023148166666666662
EXTRACT: note_on channel=4 note=66 velocity=0 time=0.0046296333333333325
EXTRACT: note_on channel=2 note=47 velocity=0 time=0.005787041666666666
EXTRACT: control_change channel=3 control=1 value=7 time=0.0023148166666666662
EXTRACT: note_on channel=4 note=54 velocity=0 time=0.013888899999999997
EXTRACT: note_on channel=3 note=66 velocity=0 time=0.005787041666666666
EXTRACT: control_change channel=10 control=1 value=16 time=0.006944449999999999
EXTRACT: note_on channel=0 note=52 velocity=50 time=0.031250024999999994
EXTRACT: note_on channel=0 note=56 velocity=50 time=0
EXTRACT: note_on channel=1 note=40 velocity=76 time=0
EXTRACT: note_on channel=3 note=68 velocity=81 time=0
EXTRACT: note_on channel=4 note=56 velocity=75 time=0
EXTRACT: note_on channel=4 note=68 velocity=87 time=0
EXTRACT: control_change channel=10 control=1 value=18 time=0.03819447499999999
EXTRACT: note_on channel=0 note=52 velocity=0 time=0.04513892499999999
EXTRACT: control_change channel=10 control=1 value=21 time=0.024305574999999996
EXTRACT: note_on channel=0 note=56 velocity=0 time=0.006944449999999999
EXTRACT: control_change channel=10 control=1 value=24 time=0.06250004999999999
EXTRACT: note_on channel=4 note=56 velocity=0 time=0.050925966666666656
EXTRACT: note_on channel=4 note=68 velocity=0 time=0.0034722249999999994
EXTRACT: note_on channel=3 note=68 velocity=0 time=0.0034722249999999994
EXTRACT: note_on channel=1 note=40 velocity=0 time=0.0011574083333333331
EXTRACT: control_change channel=10 control=1 value=26 time=0.010416674999999999
EXTRACT: note_on channel=0 note=52 velocity=50 time=0.031250024999999994
EXTRACT: note_on channel=0 note=56 velocity=50 time=0
EXTRACT: note_on channel=1 note=40 velocity=78 time=0
EXTRACT: note_on channel=2 note=40 velocity=50 time=0
EXTRACT: note_on channel=2 note=47 velocity=57 time=0
EXTRACT: note_on channel=2 note=52 velocity=59 time=0
EXTRACT: note_on channel=2 note=56 velocity=57 time=0
EXTRACT: note_on channel=2 note=59 velocity=63 time=0
EXTRACT: note_on channel=2 note=64 velocity=50 time=0
EXTRACT: note_on channel=3 note=68 velocity=95 time=0
EXTRACT: note_on channel=4 note=56 velocity=83 time=0
EXTRACT: note_on channel=4 note=68 velocity=92 time=0
EXTRACT: note_on channel=9 note=36 velocity=100 time=0
EXTRACT: note_on channel=9 note=42 velocity=106 time=0
EXTRACT: note_on channel=9 note=54 velocity=116 time=0
EXTRACT: note_on channel=6 note=40 velocity=0 time=0.0046296333333333325
EXTRACT: note_on channel=9 note=36 velocity=0 time=0.006944449999999999
EXTRACT: note_on channel=9 note=42 velocity=0 time=0
EXTRACT: note_on channel=9 note=54 velocity=0 time=0
EXTRACT: control_change channel=3 control=1 value=8 time=0.0011574083333333331
EXTRACT: control_change channel=10 control=1 value=29 time=0.011574083333333332
EXTRACT: note_on channel=0 note=40 velocity=0 time=0.015046308333333331
EXTRACT: control_change channel=10 control=1 value=31 time=0.01967594166666666
EXTRACT: note_on channel=2 note=56 velocity=0 time=0.0011574083333333331
EXTRACT: note_on channel=0 note=52 velocity=0 time=0.0023148166666666662
EXTRACT: note_on channel=2 note=64 velocity=0 time=0.0011574083333333331
EXTRACT: note_on channel=2 note=52 velocity=0 time=0.0034722249999999994
EXTRACT: control_change channel=10 control=1 value=32 time=0.008101858333333331
EXTRACT: note_on channel=6 note=56 velocity=0 time=0.020833349999999997
EXTRACT: note_on channel=2 note=47 velocity=0 time=0.0011574083333333331
EXTRACT: note_on channel=2 note=59 velocity=0 time=0.0023148166666666662
EXTRACT: note_on channel=0 note=56 velocity=0 time=0.009259266666666665
EXTRACT: control_change channel=10 control=1 value=34 time=0.0011574083333333331
EXTRACT: note_on channel=2 note=40 velocity=0 time=0.013888899999999997
EXTRACT: control_change channel=10 control=1 value=35 time=0.0011574083333333331
EXTRACT: control_change channel=10 control=1 value=33 time=0.034722249999999996
EXTRACT: control_change channel=10 control=1 value=32 time=0.015046308333333331
EXTRACT: control_change channel=10 control=1 value=22 time=0.017361124999999998
EXTRACT: control_change channel=10 control=1 value=11 time=0.017361124999999998
EXTRACT: pitchwheel channel=3 pitch=0 time=0.0034722249999999994
EXTRACT: note_on channel=1 note=40 velocity=0 time=0.010416674999999999
EXTRACT: control_change channel=10 control=1 value=1 time=0.0011574083333333331
EXTRACT: note_on channel=4 note=68 velocity=0 time=0.0034722249999999994
EXTRACT: note_on channel=3 note=68 velocity=0 time=0.024305574999999996
EXTRACT: pitchwheel channel=3 pitch=-4352 time=0.010416674999999999
EXTRACT: control_change channel=10 control=1 value=0 time=0.011574083333333332
EXTRACT: note_on channel=4 note=56 velocity=0 time=0.0023148166666666662
EXTRACT: note_on channel=0 note=40 velocity=71 time=0.0011574083333333331
EXTRACT: note_on channel=0 note=52 velocity=62 time=0
EXTRACT: note_on channel=0 note=56 velocity=70 time=0
EXTRACT: note_on channel=1 note=40 velocity=73 time=0
EXTRACT: note_on channel=2 note=40 velocity=50 time=0
EXTRACT: note_on channel=2 note=47 velocity=66 time=0
EXTRACT: note_on channel=2 note=52 velocity=70 time=0
EXTRACT: note_on channel=2 note=56 velocity=83 time=0
EXTRACT: note_on channel=2 note=59 velocity=80 time=0
EXTRACT: note_on channel=2 note=64 velocity=61 time=0
EXTRACT: note_on channel=3 note=69 velocity=87 time=0
EXTRACT: note_on channel=4 note=57 velocity=85 time=0
EXTRACT: note_on channel=4 note=69 velocity=90 time=0
EXTRACT: note_on channel=6 note=40 velocity=50 time=0
EXTRACT: note_on channel=6 note=56 velocity=51 time=0
EXTRACT: note_on channel=9 note=41 velocity=109 time=0
EXTRACT: note_on channel=9 note=41 velocity=0 time=0.011574083333333332
EXTRACT: pitchwheel channel=3 pitch=-6144 time=0.024305574999999996
EXTRACT: control_change channel=3 control=1 value=9 time=0.04745374166666666
EXTRACT: pitchwheel channel=3 pitch=-5120 time=0.0023148166666666662
EXTRACT: note_on channel=0 note=56 velocity=0 time=0.04861114999999999
EXTRACT: pitchwheel channel=3 pitch=0 time=0.0011574083333333331
EXTRACT: note_on channel=0 note=52 velocity=0 time=0.0011574083333333331
EXTRACT: note_on channel=2 note=52 velocity=0 time=0.041666699999999994
EXTRACT: pitchwheel channel=3 pitch=0 time=0.006944449999999999
EXTRACT: note_on channel=2 note=47 velocity=0 time=0.015046308333333331
EXTRACT: note_on channel=1 note=40 velocity=0 time=0.005787041666666666
EXTRACT: note_on channel=6 note=56 velocity=0 time=0.0023148166666666662
EXTRACT: note_on channel=2 note=64 velocity=0 time=0.009259266666666665
EXTRACT: note_on channel=2 note=56 velocity=0 time=0.015046308333333331
EXTRACT: note_on channel=2 note=40 velocity=0 time=0.012731491666666664
EXTRACT: note_on channel=2 note=59 velocity=0 time=0.023148166666666664
EXTRACT: note_on channel=0 note=52 velocity=50 time=0.009259266666666665
EXTRACT: note_on channel=0 note=56 velocity=50 time=0
EXTRACT: note_on channel=1 note=40 velocity=92 time=0
EXTRACT: note_on channel=9 note=36 velocity=105 time=0
EXTRACT: note_on channel=9 note=36 velocity=0 time=0.011574083333333332
EXTRACT: note_on channel=0 note=52 velocity=0 time=0.061342641666666656
EXTRACT: note_on channel=0 note=56 velocity=0 time=0.023148166666666664
EXTRACT: control_change channel=3 control=1 value=10 time=0.05902782499999999
EXTRACT: note_on channel=1 note=40 velocity=0 time=0.06828709166666666
EXTRACT: note_on channel=0 note=52 velocity=50 time=0.05439819166666666
EXTRACT: note_on channel=0 note=56 velocity=50 time=0
EXTRACT: note_on channel=1 note=40 velocity=92 time=0
EXTRACT: note_on channel=2 note=40 velocity=50 time=0
EXTRACT: note_on channel=2 note=47 velocity=50 time=0
EXTRACT: note_on channel=2 note=52 velocity=50 time=0
EXTRACT: note_on channel=2 note=56 velocity=58 time=0
EXTRACT: note_on channel=2 note=59 velocity=63 time=0
EXTRACT: note_on channel=2 note=64 velocity=50 time=0
EXTRACT: note_on channel=3 note=68 velocity=82 time=0
EXTRACT: note_on channel=4 note=56 velocity=86 time=0
EXTRACT: note_on channel=4 note=68 velocity=92 time=0
EXTRACT: note_on channel=6 note=56 velocity=61 time=0
EXTRACT: note_on channel=9 note=42 velocity=106 time=0
EXTRACT: note_on channel=9 note=54 velocity=116 time=0
EXTRACT: note_on channel=9 note=42 velocity=0 time=0.011574083333333332
EXTRACT: note_on channel=9 note=54 velocity=0 time=0
EXTRACT: note_on channel=3 note=69 velocity=0 time=0.010416674999999999
EXTRACT: note_on channel=4 note=57 velocity=0 time=0.0046296333333333325
EXTRACT: note_on channel=4 note=69 velocity=0 time=0.03356484166666666
EXTRACT: note_on channel=6 note=64 velocity=0 time=0.009259266666666665
EXTRACT: note_on channel=2 note=64 velocity=0 time=0.0046296333333333325
EXTRACT: note_on channel=2 note=56 velocity=0 time=0
EXTRACT: note_on channel=2 note=47 velocity=0 time=0.0046296333333333325
EXTRACT: note_on channel=2 note=52 velocity=0 time=0
EXTRACT: note_on channel=0 note=52 velocity=0 time=0.0046296333333333325
EXTRACT: note_on channel=6 note=59 velocity=0 time=0.009259266666666665
EXTRACT: note_on channel=6 note=28 velocity=0 time=0.010416674999999999
EXTRACT: note_on channel=0 note=56 velocity=0 time=0.0011574083333333331
EXTRACT: note_on channel=2 note=59 velocity=0 time=0.006944449999999999
EXTRACT: note_on channel=2 note=40 velocity=0 time=0.024305574999999996
EXTRACT: note_on channel=1 note=40 velocity=0 time=0.07638894999999998
EXTRACT: control_change channel=3 control=1 value=11 time=0.013888899999999997
EXTRACT: note_on channel=4 note=68 velocity=0 time=0.028935208333333327
EXTRACT: note_on channel=6 note=40 velocity=0 time=0.0034722249999999994
EXTRACT: note_on channel=3 note=68 velocity=0 time=0.0034722249999999994
EXTRACT: note_on channel=0 note=52 velocity=57 time=0.016203716666666663
EXTRACT: note_on channel=0 note=56 velocity=67 time=0
EXTRACT: note_on channel=1 note=40 velocity=89 time=0
EXTRACT: note_on channel=2 note=40 velocity=50 time=0
EXTRACT: note_on channel=2 note=47 velocity=68 time=0
EXTRACT: note_on channel=2 note=52 velocity=66 time=0
EXTRACT: note_on channel=2 note=56 velocity=74 time=0
EXTRACT: note_on channel=2 note=59 velocity=78 time=0
EXTRACT: note_on channel=2 note=64 velocity=61 time=0
EXTRACT: note_on channel=3 note=66 velocity=85 time=0
EXTRACT: note_on channel=4 note=54 velocity=80 time=0
EXTRACT: note_on channel=4 note=66 velocity=88 time=0
EXTRACT: note_on channel=6 note=59 velocity=65 time=0
EXTRACT: note_on channel=9 note=36 velocity=110 time=0
EXTRACT: note_on channel=9 note=40 velocity=109 time=0
EXTRACT: note_on channel=9 note=36 velocity=0 time=0.011574083333333332
EXTRACT: note_on channel=9 note=40 velocity=0 time=0
EXTRACT: note_on channel=4 note=56 velocity=0 time=0.005787041666666666
EXTRACT: note_on channel=6 note=56 velocity=0 time=0.012731491666666664
EXTRACT: note_on channel=0 note=40 velocity=0 time=0.049768558333333324
EXTRACT: note_on channel=2 note=52 velocity=0 time=0.016203716666666663
EXTRACT: note_on channel=2 note=56 velocity=0 time=0
EXTRACT: note_on channel=0 note=52 velocity=0 time=0.008101858333333331
EXTRACT: note_on channel=2 note=59 velocity=0 time=0.013888899999999997
EXTRACT: note_on channel=2 note=47 velocity=0 time=0.006944449999999999
EXTRACT: note_on channel=0 note=56 velocity=0 time=0.0023148166666666662
EXTRACT: note_on channel=2 note=64 velocity=0 time=0.0023148166666666662
EXTRACT: note_on channel=2 note=40 velocity=0 time=0.020833349999999997
EXTRACT: note_on channel=15 note=56 velocity=0 time=0.01967594166666666
EXTRACT: note_on channel=1 note=40 velocity=0 time=0.04398151666666666
EXTRACT: note_on channel=6 note=59 velocity=0 time=0.01851853333333333
EXTRACT: note_on channel=15 note=59 velocity=0 time=0
EXTRACT: note_on channel=4 note=66 velocity=0 time=0.030092616666666662
EXTRACT: note_on channel=15 note=64 velocity=0 time=0.005787041666666666
EXTRACT: note_on channel=3 note=66 velocity=0 time=0.0034722249999999994
EXTRACT: note_on channel=0 note=52 velocity=50 time=0.005787041666666666
EXTRACT: note_on channel=0 note=56 velocity=50 time=0
EXTRACT: note_on channel=1 note=40 velocity=89 time=0
EXTRACT: note_on channel=2 note=40 velocity=50 time=0
EXTRACT: note_on channel=2 note=47 velocity=50 time=0
EXTRACT: note_on channel=2 note=52 velocity=54 time=0
EXTRACT: note_on channel=2 note=56 velocity=62 time=0
EXTRACT: note_on channel=2 note=59 velocity=65 time=0
EXTRACT: note_on channel=2 note=64 velocity=50 time=0
EXTRACT: note_on channel=3 note=64 velocity=78 time=0
EXTRACT: note_on channel=4 note=52 velocity=72 time=0
EXTRACT: note_on channel=4 note=54 velocity=0 time=0
EXTRACT: note_on channel=4 note=64 velocity=87 time=0
EXTRACT: note_on channel=6 note=64 velocity=76 time=0
EXTRACT: note_on channel=9 note=54 velocity=50 time=0
EXTRACT: note_on channel=9 note=54 velocity=0 time=0.011574083333333332
EXTRACT: control_change channel=3 control=1 value=12 time=0.008101858333333331
EXTRACT: note_on channel=2 note=56 velocity=0 time=0.01851853333333333
EXTRACT: note_on channel=10 note=56 velocity=0 time=0.016203716666666663
EXTRACT: note_on channel=2 note=64 velocity=0 time=0.009259266666666665
EXTRACT: note_on channel=2 note=52 velocity=0 time=0.0011574083333333331
EXTRACT: note_on channel=2 note=47 velocity=0 time=0.0023148166666666662
EXTRACT: note_on channel=9 note=54 velocity=54 time=0.0023148166666666662
EXTRACT: note_on channel=2 note=59 velocity=0 time=0.006944449999999999
EXTRACT: note_on channel=0 note=52 velocity=0 time=0.0011574083333333331
EXTRACT: note_on channel=9 note=54 velocity=0 time=0.0034722249999999994
EXTRACT: note_on channel=0 note=56 velocity=0 time=0.005787041666666666
EXTRACT: note_on channel=2 note=47 velocity=50 time=0.05208337499999999
EXTRACT: note_on channel=2 note=52 velocity=64 time=0
EXTRACT: note_on channel=2 note=56 velocity=50 time=0
EXTRACT: note_on channel=2 note=59 velocity=74 time=0
EXTRACT: note_on channel=2 note=64 velocity=51 time=0
EXTRACT: note_on channel=9 note=54 velocity=68 time=0
EXTRACT: note_on channel=9 note=54 velocity=0 time=0.011574083333333332
EXTRACT: pitchwheel channel=3 pitch=0 time=0.024305574999999996
EXTRACT: note_on channel=2 note=59 velocity=0 time=0.0046296333333333325
EXTRACT: note_on channel=2 note=64 velocity=0 time=0.0034722249999999994
EXTRACT: note_on channel=2 note=40 velocity=0 time=0.0034722249999999994
EXTRACT: note_on channel=10 note=40 velocity=0 time=0.010416674999999999
EXTRACT: note_on channel=2 note=47 velocity=0 time=0.0023148166666666662
EXTRACT: note_on channel=2 note=56 velocity=0 time=0.0011574083333333331
EXTRACT: note_on channel=9 note=54 velocity=76 time=0.008101858333333331
EXTRACT: control_change channel=0 control=64 value=0 time=0.0046296333333333325
EXTRACT: note_on channel=9 note=54 velocity=0 time=0.006944449999999999
EXTRACT: pitchwheel channel=3 pitch=-4608 time=0.0046296333333333325
EXTRACT: control_change channel=2 control=64 value=0 time=0.0034722249999999994
EXTRACT: note_on channel=15 note=40 velocity=0 time=0.0034722249999999994
EXTRACT: note_on channel=1 note=40 velocity=0 time=0.013888899999999997
EXTRACT: note_on channel=2 note=52 velocity=0 time=0.0023148166666666662
EXTRACT: control_change channel=10 control=64 value=0 time=0.01851853333333333
EXTRACT: pitchwheel channel=3 pitch=-5760 time=0.008101858333333331
EXTRACT: note_on channel=0 note=47 velocity=77 time=0.0034722249999999994
EXTRACT: note_on channel=0 note=52 velocity=58 time=0
EXTRACT: note_on channel=0 note=54 velocity=77 time=0
EXTRACT: note_on channel=1 note=35 velocity=95 time=0
EXTRACT: note_on channel=2 note=47 velocity=77 time=0
EXTRACT: note_on channel=2 note=54 velocity=88 time=0
EXTRACT: note_on channel=2 note=59 velocity=67 time=0
EXTRACT: note_on channel=2 note=63 velocity=82 time=0
EXTRACT: note_on channel=3 note=68 velocity=83 time=0
EXTRACT: note_on channel=4 note=56 velocity=93 time=0
EXTRACT: note_on channel=4 note=68 velocity=98 time=0
EXTRACT: note_on channel=6 note=35 velocity=57 time=0
EXTRACT: note_on channel=6 note=47 velocity=61 time=0
EXTRACT: note_on channel=6 note=54 velocity=76 time=0
EXTRACT: note_on channel=6 note=59 velocity=79 time=0
EXTRACT: note_on channel=7 note=78 velocity=95 time=0
EXTRACT: note_on channel=9 note=36 velocity=100 time=0
EXTRACT: note_on channel=9 note=41 velocity=107 time=0
EXTRACT: note_on channel=9 note=54 velocity=100 time=0
EXTRACT: note_on channel=10 note=47 velocity=65 time=0
EXTRACT: note_on channel=10 note=54 velocity=60 time=0
EXTRACT: note_on channel=10 note=63 velocity=64 time=0
EXTRACT: note_on channel=15 note=47 velocity=1 time=0
EXTRACT: note_on channel=15 note=54 velocity=1 time=0
EXTRACT: note_on channel=15 note=59 velocity=1 time=0
EXTRACT: note_on channel=15 note=64 velocity=1 time=0
EXTRACT: note_on channel=4 note=64 velocity=0 time=0.006944449999999999
EXTRACT: note_on channel=10 note=64 velocity=0 time=0.0011574083333333331
EXTRACT: note_on channel=9 note=36 velocity=0 time=0.0034722249999999994
EXTRACT: note_on channel=9 note=41 velocity=0 time=0
EXTRACT: note_on channel=9 note=54 velocity=0 time=0
EXTRACT: control_change channel=15 control=64 value=0 time=0
EXTRACT: note_on channel=3 note=64 velocity=0 time=0.005787041666666666
EXTRACT: control_change channel=6 control=64 value=0 time=0.0046296333333333325
EXTRACT: note_on channel=4 note=52 velocity=0 time=0.017361124999999998
EXTRACT: pitchwheel channel=3 pitch=-4608 time=0.008101858333333331
EXTRACT: note_on channel=7 note=76 velocity=0 time=0.0023148166666666662
EXTRACT: control_change channel=3 control=1 value=13 time=0.04050929166666666
EXTRACT: pitchwheel channel=3 pitch=-1280 time=0.006944449999999999
EXTRACT: control_change channel=0 control=64 value=127 time=0.03935188333333332
EXTRACT: pitchwheel channel=3 pitch=0 time=0.010416674999999999
EXTRACT: note_on channel=0 note=52 velocity=0 time=0.0023148166666666662
EXTRACT: control_change channel=2 control=64 value=127 time=0
EXTRACT: note_on channel=0 note=54 velocity=0 time=0.0034722249999999994
EXTRACT: pitchwheel channel=3 pitch=0 time=0.04398151666666666
EXTRACT: note_on channel=1 note=35 velocity=0 time=0.04398151666666666
EXTRACT: note_on channel=0 note=52 velocity=50 time=0.03703706666666666
EXTRACT: note_on channel=0 note=54 velocity=50 time=0
EXTRACT: note_on channel=1 note=35 velocity=96 time=0
EXTRACT: note_on channel=2 note=63 velocity=0 time=0.027777799999999995
EXTRACT: control_change channel=10 control=64 value=127 time=0.03356484166666666
EXTRACT: note_on channel=2 note=54 velocity=0 time=0.0011574083333333331
EXTRACT: note_on channel=4 note=56 velocity=0 time=0.006944449999999999
EXTRACT: note_on channel=4 note=68 velocity=0 time=0.010416674999999999
EXTRACT: note_on channel=2 note=59 velocity=0 time=0.0034722249999999994
EXTRACT: control_change channel=15 control=64 value=127 time=0
EXTRACT: note_on channel=0 note=52 velocity=0 time=0.0046296333333333325
EXTRACT: note_on channel=3 note=68 velocity=0 time=0.01967594166666666
EXTRACT: note_on channel=2 note=47 velocity=0 time=0.009259266666666665
EXTRACT: note_on channel=0 note=54 velocity=0 time=0.005787041666666666
EXTRACT: control_change channel=3 control=1 value=14 time=0.03935188333333332
EXTRACT: control_change channel=6 control=64 value=127 time=0.032407433333333326
EXTRACT: note_on channel=1 note=35 velocity=0 time=0.0046296333333333325
EXTRACT: note_on channel=0 note=52 velocity=50 time=0.07870376666666665
EXTRACT: note_on channel=0 note=54 velocity=58 time=0
EXTRACT: note_on channel=1 note=35 velocity=84 time=0
EXTRACT: note_on channel=2 note=47 velocity=51 time=0
EXTRACT: note_on channel=2 note=54 velocity=58 time=0
EXTRACT: note_on channel=2 note=59 velocity=63 time=0
EXTRACT: note_on channel=2 note=63 velocity=66 time=0
EXTRACT: note_on channel=9 note=36 velocity=99 time=0
EXTRACT: note_on channel=9 note=42 velocity=103 time=0
EXTRACT: note_on channel=9 note=54 velocity=116 time=0
EXTRACT: note_on channel=9 note=36 velocity=0 time=0.011574083333333332
EXTRACT: note_on channel=9 note=42 velocity=0 time=0
EXTRACT: note_on channel=9 note=54 velocity=0 time=0
EXTRACT: note_on channel=0 note=47 velocity=0 time=0.042824108333333326
EXTRACT: note_on channel=0 note=52 velocity=0 time=0.012731491666666664
EXTRACT: note_on channel=2 note=54 velocity=0 time=0.0046296333333333325
EXTRACT: note_on channel=0 note=54 velocity=0 time=0.042824108333333326
EXTRACT: note_on channel=2 note=47 velocity=0 time=0
EXTRACT: note_on channel=2 note=63 velocity=0 time=0.006944449999999999
EXTRACT: note_on channel=2 note=59 velocity=0 time=0.006944449999999999
EXTRACT: note_on channel=1 note=35 velocity=0 time=0.08912044166666665
EXTRACT: note_on channel=6 note=64 velocity=0 time=0.005787041666666666
EXTRACT: control_change channel=3 control=1 value=15 time=0.009259266666666665
EXTRACT: note_on channel=0 note=47 velocity=74 time=0.04513892499999999
EXTRACT: note_on channel=0 note=52 velocity=50 time=0
EXTRACT: note_on channel=0 note=54 velocity=62 time=0
EXTRACT: note_on channel=1 note=35 velocity=88 time=0
EXTRACT: note_on channel=2 note=47 velocity=83 time=0
EXTRACT: note_on channel=2 note=54 velocity=79 time=0
EXTRACT: note_on channel=2 note=59 velocity=75 time=0
EXTRACT: note_on channel=2 note=63 velocity=69 time=0
EXTRACT: note_on channel=9 note=41 velocity=109 time=0
EXTRACT: note_on channel=9 note=41 velocity=0 time=0.011574083333333332
EXTRACT: note_on channel=0 note=52 velocity=0 time=0.06597227499999998
EXTRACT: note_on channel=0 note=54 velocity=0 time=0.04398151666666666
EXTRACT: note_on channel=2 note=54 velocity=0 time=0.07060190833333332
EXTRACT: note_on channel=2 note=63 velocity=0 time=0.011574083333333332
EXTRACT: note_on channel=1 note=35 velocity=0 time=0.012731491666666664
EXTRACT: note_on channel=15 note=64 velocity=0 time=0.0034722249999999994
EXTRACT: note_on channel=2 note=59 velocity=0 time=0.006944449999999999
EXTRACT: note_on channel=2 note=47 velocity=0 time=0.020833349999999997
EXTRACT: note_on channel=0 note=52 velocity=50 time=0.030092616666666662
EXTRACT: note_on channel=0 note=54 velocity=50 time=0
EXTRACT: note_on channel=1 note=35 velocity=90 time=0
EXTRACT: note_on channel=3 note=66 velocity=85 time=0
EXTRACT: note_on channel=4 note=54 velocity=87 time=0
EXTRACT: note_on channel=4 note=66 velocity=92 time=0
EXTRACT: note_on channel=6 note=63 velocity=83 time=0
EXTRACT: note_on channel=7 note=87 velocity=94 time=0
EXTRACT: note_on channel=9 note=36 velocity=105 time=0
EXTRACT: note_on channel=15 note=63 velocity=1 time=0
EXTRACT: control_change channel=15 control=64 value=0 time=0
EXTRACT: control_change channel=6 control=64 value=0 time=0.011574083333333332
EXTRACT: note_on channel=9 note=36 velocity=0 time=0
EXTRACT: note_on channel=7 note=88 velocity=0 time=0.012731491666666664
EXTRACT: control_change channel=3 control=1 value=16 time=0.0023148166666666662
EXTRACT: control_change channel=3 control=1 value=30 time=0.017361124999999998
EXTRACT: note_on channel=0 note=52 velocity=0 time=0.016203716666666663
EXTRACT: control_change channel=3 control=1 value=45 time=0.0011574083333333331
EXTRACT: control_change channel=3 control=1 value=58 time=0.015046308333333331
EXTRACT: control_change channel=3 control=1 value=71 time=0.017361124999999998
EXTRACT: control_change channel=3 control=1 value=85 time=0.017361124999999998
EXTRACT: note_on channel=0 note=54 velocity=0 time=0.006944449999999999
EXTRACT: control_change channel=3 control=1 value=98 time=0.008101858333333331
EXTRACT: control_change channel=3 control=1 value=106 time=0.017361124999999998
EXTRACT: control_change channel=3 control=1 value=115 time=0.017361124999999998
EXTRACT: control_change channel=3 control=1 value=124 time=0.016203716666666663
EXTRACT: note_on channel=1 note=35 velocity=0 time=0.020833349999999997
EXTRACT: control_change channel=3 control=1 value=120 time=0.013888899999999997
EXTRACT: control_change channel=3 control=1 value=115 time=0.034722249999999996
EXTRACT: control_change channel=3 control=1 value=111 time=0.030092616666666662
EXTRACT: note_on channel=0 note=52 velocity=50 time=0.0011574083333333331
EXTRACT: note_on channel=0 note=54 velocity=50 time=0
EXTRACT: note_on channel=1 note=35 velocity=82 time=0
EXTRACT: note_on channel=2 note=47 velocity=61 time=0
EXTRACT: note_on channel=2 note=54 velocity=59 time=0
EXTRACT: note_on channel=2 note=59 velocity=68 time=0
EXTRACT: note_on channel=2 note=63 velocity=63 time=0
EXTRACT: note_on channel=9 note=42 velocity=106 time=0
EXTRACT: note_on channel=9 note=54 velocity=116 time=0
EXTRACT: note_on channel=9 note=42 velocity=0 time=0.011574083333333332
EXTRACT: note_on channel=9 note=54 velocity=0 time=0
EXTRACT: control_change channel=3 control=1 value=101 time=0.0046296333333333325
EXTRACT: control_change channel=3 control=1 value=91 time=0.017361124999999998
EXTRACT: control_change channel=6 control=64 value=127 time=0
EXTRACT: control_change channel=3 control=1 value=81 time=0.015046308333333331
EXTRACT: note_on channel=2 note=54 velocity=0 time=0.009259266666666665
EXTRACT: note_on channel=0 note=52 velocity=0 time=0.006944449999999999
EXTRACT: control_change channel=3 control=1 value=68 time=0.0011574083333333331
EXTRACT: control_change channel=3 control=1 value=54 time=0.017361124999999998
EXTRACT: note_on channel=4 note=66 velocity=0 time=0.013888899999999997
EXTRACT: control_change channel=3 control=1 value=42 time=0.0011574083333333331
EXTRACT: note_on channel=2 note=63 velocity=0 time=0.011574083333333332
EXTRACT: note_on channel=0 note=54 velocity=0 time=0.0046296333333333325
EXTRACT: control_change channel=3 control=1 value=28 time=0.0011574083333333331
EXTRACT: control_change channel=15 control=64 value=127 time=0.006944449999999999
EXTRACT: note_on channel=2 note=47 velocity=0 time=0.0023148166666666662
EXTRACT: note_on channel=4 note=54 velocity=0 time=0
EXTRACT: note_on channel=2 note=59 velocity=0 time=0.0023148166666666662
EXTRACT: note_on channel=3 note=66 velocity=0 time=0
EXTRACT: control_change channel=3 control=1 value=14 time=0.005787041666666666
EXTRACT: control_change channel=3 control=1 value=0 time=0.016203716666666663
EXTRACT: note_on channel=1 note=35 velocity=0 time=0.05671300833333332
EXTRACT: note_on channel=0 note=52 velocity=65 time=0.07175931666666666
EXTRACT: note_on channel=0 note=54 velocity=82 time=0
EXTRACT: note_on channel=1 note=35 velocity=84 time=0
EXTRACT: note_on channel=2 note=47 velocity=77 time=0
EXTRACT: note_on channel=2 note=54 velocity=79 time=0
EXTRACT: note_on channel=2 note=59 velocity=72 time=0
EXTRACT: note_on channel=2 note=63 velocity=74 time=0
EXTRACT: note_on channel=9 note=36 velocity=110 time=0
EXTRACT: note_on channel=9 note=40 velocity=103 time=0
EXTRACT: note_on channel=9 note=36 velocity=0 time=0.011574083333333332
EXTRACT: note_on channel=9 note=40 velocity=0 time=0
EXTRACT: note_on channel=2 note=54 velocity=0 time=0.09953711666666665
EXTRACT: note_on channel=2 note=63 velocity=0 time=0.008101858333333331
EXTRACT: note_on channel=2 note=59 velocity=0 time=0.006944449999999999
EXTRACT: note_on channel=0 note=52 velocity=0 time=0.005787041666666666
EXTRACT: note_on channel=2 note=47 velocity=0 time=0.0034722249999999994
EXTRACT: note_on channel=0 note=54 velocity=0 time=0.011574083333333332
EXTRACT: note_on channel=1 note=35 velocity=0 time=0.049768558333333324
EXTRACT: note_on channel=0 note=47 velocity=0 time=0.023148166666666664
EXTRACT: note_on channel=0 note=52 velocity=50 time=0.05787041666666665
EXTRACT: note_on channel=0 note=54 velocity=50 time=0
EXTRACT: note_on channel=1 note=35 velocity=90 time=0
EXTRACT: note_on channel=2 note=47 velocity=50 time=0
EXTRACT: note_on channel=2 note=54 velocity=50 time=0
EXTRACT: note_on channel=2 note=59 velocity=55 time=0
EXTRACT: note_on channel=2 note=63 velocity=50 time=0
EXTRACT: note_on channel=9 note=54 velocity=50 time=0
EXTRACT: note_on channel=6 note=54 velocity=0 time=0.006944449999999999
EXTRACT: note_on channel=9 note=54 velocity=0 time=0.0046296333333333325
EXTRACT: note_on channel=2 note=63 velocity=0 time=0.030092616666666662
EXTRACT: note_on channel=2 note=54 velocity=0 time=0.0034722249999999994
EXTRACT: note_on channel=0 note=54 velocity=0 time=0.017361124999999998
EXTRACT: note_on channel=0 note=52 velocity=0 time=0.0034722249999999994
EXTRACT: note_on channel=2 note=47 velocity=0 time=0.0034722249999999994
EXTRACT: note_on channel=9 note=54 velocity=50 time=0
EXTRACT: note_on channel=2 note=59 velocity=0 time=0.0023148166666666662
EXTRACT: control_change channel=3 control=1 value=1 time=0.005787041666666666
EXTRACT: note_on channel=9 note=54 velocity=0 time=0.0034722249999999994
EXTRACT: note_on channel=6 note=47 velocity=0 time=0.024305574999999996
EXTRACT: note_on channel=0 note=52 velocity=50 time=0.03356484166666666
EXTRACT: note_on channel=0 note=54 velocity=60 time=0
EXTRACT: note_on channel=2 note=47 velocity=50 time=0
EXTRACT: note_on channel=2 note=54 velocity=50 time=0
EXTRACT: note_on channel=2 note=59 velocity=59 time=0
EXTRACT: note_on channel=2 note=63 velocity=56 time=0
EXTRACT: note_on channel=9 note=54 velocity=61 time=0
EXTRACT: note_on channel=9 note=54 velocity=0 time=0.011574083333333332
EXTRACT: note_on channel=0 note=54 velocity=0 time=0.030092616666666662
EXTRACT: note_on channel=2 note=47 velocity=0 time=0.0046296333333333325
EXTRACT: note_on channel=2 note=54 velocity=0 time=0.012731491666666664
EXTRACT: note_on channel=0 note=52 velocity=0 time=0.009259266666666665
EXTRACT: note_on channel=9 note=54 velocity=95 time=0.0011574083333333331
EXTRACT: note_on channel=1 note=35 velocity=0 time=0.005787041666666666
EXTRACT: note_on channel=9 note=54 velocity=0 time=0.005787041666666666
EXTRACT: note_on channel=2 note=59 velocity=0 time=0.0046296333333333325
EXTRACT: note_on channel=2 note=63 velocity=0 time=0.016203716666666663
EXTRACT: note_on channel=0 note=47 velocity=80 time=0.03703706666666666
EXTRACT: note_on channel=0 note=52 velocity=50 time=0
EXTRACT: note_on channel=0 note=54 velocity=61 time=0
EXTRACT: note_on channel=1 note=35 velocity=88 time=0
EXTRACT: note_on channel=2 note=47 velocity=64 time=0
EXTRACT: note_on channel=2 note=54 velocity=64 time=0
EXTRACT: note_on channel=2 note=59 velocity=80 time=0
EXTRACT: note_on channel=2 note=63 velocity=81 time=0
EXTRACT: note_on channel=3 note=66 velocity=82 time=0
EXTRACT: note_on channel=4 note=54 velocity=83 time=0
EXTRACT: note_on channel=4 note=66 velocity=84 time=0
EXTRACT: note_on channel=6 note=47 velocity=70 time=0
EXTRACT: note_on channel=6 note=54 velocity=69 time=0
EXTRACT: note_on channel=9 note=36 velocity=102 time=0
EXTRACT: note_on channel=9 note=41 velocity=103 time=0
EXTRACT: note_on channel=9 note=54 velocity=100 time=0
EXTRACT: note_on channel=9 note=36 velocity=0 time=0.011574083333333332
EXTRACT: note_on channel=9 note=41 velocity=0 time=0
EXTRACT: note_on channel=9 note=54 velocity=0 time=0
EXTRACT: note_on channel=0 note=52 velocity=0 time=0.11458342499999997
EXTRACT: note_on channel=0 note=54 velocity=0 time=0.011574083333333332
EXTRACT: note_on channel=2 note=59 velocity=0 time=0.04513892499999999
EXTRACT: note_on channel=2 note=54 velocity=0 time=0.0034722249999999994
EXTRACT: note_on channel=2 note=63 velocity=0 time=0.011574083333333332
EXTRACT: note_on channel=1 note=35 velocity=0 time=0.017361124999999998
EXTRACT: note_on channel=3 note=66 velocity=0 time=0.013888899999999997
EXTRACT: note_on channel=2 note=47 velocity=0 time=0.015046308333333331
EXTRACT: note_on channel=4 note=66 velocity=0 time=0.01851853333333333
EXTRACT: note_on channel=0 note=52 velocity=50 time=0.015046308333333331
EXTRACT: note_on channel=0 note=54 velocity=50 time=0
EXTRACT: note_on channel=1 note=35 velocity=87 time=0
EXTRACT: note_on channel=3 note=68 velocity=82 time=0
EXTRACT: note_on channel=4 note=56 velocity=78 time=0
EXTRACT: note_on channel=4 note=68 velocity=92 time=0
EXTRACT: control_change channel=3 control=1 value=2 time=0.006944449999999999
EXTRACT: note_on channel=4 note=54 velocity=0 time=0
EXTRACT: note_on channel=0 note=52 velocity=0 time=0.08564821666666665
EXTRACT: note_on channel=0 note=54 velocity=0 time=0.02199075833333333
EXTRACT: note_on channel=3 note=68 velocity=0 time=0.09490748333333332
EXTRACT: note_on channel=4 note=56 velocity=0 time=0.006944449999999999
EXTRACT: note_on channel=4 note=68 velocity=0 time=0.008101858333333331
EXTRACT: note_on channel=1 note=35 velocity=0 time=0.005787041666666666
EXTRACT: note_on channel=0 note=52 velocity=50 time=0.04745374166666666
EXTRACT: note_on channel=0 note=54 velocity=60 time=0
EXTRACT: note_on channel=1 note=35 velocity=81 time=0
EXTRACT: note_on channel=2 note=47 velocity=58 time=0
EXTRACT: note_on channel=2 note=54 velocity=61 time=0
EXTRACT: note_on channel=2 note=59 velocity=60 time=0
EXTRACT: note_on channel=2 note=63 velocity=63 time=0
EXTRACT: note_on channel=3 note=68 velocity=83 time=0
EXTRACT: note_on channel=4 note=56 velocity=66 time=0
EXTRACT: note_on channel=4 note=68 velocity=103 time=0
EXTRACT: note_on channel=9 note=36 velocity=99 time=0
EXTRACT: note_on channel=9 note=42 velocity=108 time=0
EXTRACT: note_on channel=9 note=54 velocity=116 time=0
EXTRACT: note_on channel=6 note=59 velocity=0 time=0.010416674999999999
EXTRACT: note_on channel=9 note=36 velocity=0 time=0.0011574083333333331
EXTRACT: note_on channel=9 note=42 velocity=0 time=0
EXTRACT: note_on channel=9 note=54 velocity=0 time=0
EXTRACT: note_on channel=0 note=52 velocity=0 time=0.06481486666666665
EXTRACT: note_on channel=2 note=54 velocity=0 time=0.0046296333333333325
EXTRACT: note_on channel=0 note=47 velocity=0 time=0.015046308333333331
EXTRACT: note_on channel=0 note=54 velocity=0 time=0.017361124999999998
EXTRACT: note_on channel=2 note=59 velocity=0 time=0.0034722249999999994
EXTRACT: note_on channel=2 note=47 velocity=0 time=0.010416674999999999
EXTRACT: note_on channel=2 note=63 velocity=0 time=0.010416674999999999
EXTRACT: note_on channel=1 note=35 velocity=0 time=0.060185233333333324
EXTRACT: control_change channel=3 control=1 value=3 time=0.015046308333333331
EXTRACT: pitchwheel channel=3 pitch=-2432 time=0.006944449999999999
EXTRACT: note_on channel=4 note=68 velocity=0 time=0.0023148166666666662
EXTRACT: note_on channel=3 note=68 velocity=0 time=0.011574083333333332
EXTRACT: note_on channel=4 note=56 velocity=0 time=0.030092616666666662
EXTRACT: pitchwheel channel=3 pitch=-6912 time=0.006944449999999999
EXTRACT: note_on channel=0 note=47 velocity=77 time=0.006944449999999999
EXTRACT: note_on channel=0 note=52 velocity=58 time=0
EXTRACT: note_on channel=0 note=54 velocity=74 time=0
EXTRACT: note_on channel=1 note=35 velocity=90 time=0
EXTRACT: note_on channel=2 note=47 velocity=82 time=0
EXTRACT: note_on channel=2 note=54 velocity=79 time=0
EXTRACT: note_on channel=2 note=59 velocity=78 time=0
EXTRACT: note_on channel=2 note=63 velocity=66 time=0
EXTRACT: note_on channel=3 note=69 velocity=88 time=0
EXTRACT: note_on channel=4 note=57 velocity=90 time=0
EXTRACT: note_on channel=4 note=69 velocity=92 time=0
EXTRACT: note_on channel=9 note=41 velocity=112 time=0
EXTRACT: note_on channel=9 note=41 velocity=0 time=0.011574083333333332
EXTRACT: pitchwheel channel=3 pitch=-7424 time=0.031250024999999994
EXTRACT: note_on channel=0 note=52 velocity=0 time=0.04513892499999999
EXTRACT: pitchwheel channel=3 pitch=-5760 time=0.0046296333333333325
EXTRACT: pitchwheel channel=3 pitch=-3072 time=0.049768558333333324
EXTRACT: note_on channel=0 note=54 velocity=0 time=0.006944449999999999
EXTRACT: pitchwheel channel=3 pitch=0 time=0.042824108333333326
EXTRACT: note_on channel=1 note=35 velocity=0 time=0.015046308333333331
EXTRACT: note_on channel=2 note=54 velocity=0 time=0.0034722249999999994
EXTRACT: note_on channel=2 note=59 velocity=0 time=0.011574083333333332
EXTRACT: note_on channel=2 note=63 velocity=0 time=0.010416674999999999
EXTRACT: pitchwheel channel=3 pitch=0 time=0.010416674999999999
EXTRACT: note_on channel=2 note=47 velocity=0 time=0.027777799999999995
EXTRACT: note_on channel=0 note=52 velocity=50 time=0.006944449999999999
EXTRACT: note_on channel=0 note=54 velocity=50 time=0
EXTRACT: note_on channel=1 note=35 velocity=81 time=0
EXTRACT: note_on channel=9 note=36 velocity=103 time=0
EXTRACT: note_on channel=9 note=36 velocity=0 time=0.011574083333333332
EXTRACT: note_on channel=6 note=35 velocity=0 time=0.02199075833333333
EXTRACT: note_on channel=0 note=52 velocity=0 time=0.04050929166666666
EXTRACT: note_on channel=0 note=54 velocity=0 time=0.06712968333333331
EXTRACT: control_change channel=3 control=1 value=4 time=0.0011574083333333331
EXTRACT: note_on channel=1 note=35 velocity=0 time=0.08912044166666665
EXTRACT: note_on channel=4 note=69 velocity=0 time=0.042824108333333326
EXTRACT: note_on channel=0 note=52 velocity=50 time=0.0034722249999999994
EXTRACT: note_on channel=0 note=54 velocity=50 time=0
EXTRACT: note_on channel=1 note=35 velocity=92 time=0
EXTRACT: note_on channel=2 note=47 velocity=62 time=0
EXTRACT: note_on channel=2 note=54 velocity=65 time=0
EXTRACT: note_on channel=2 note=59 velocity=66 time=0
EXTRACT: note_on channel=2 note=63 velocity=68 time=0
EXTRACT: note_on channel=3 note=68 velocity=89 time=0
EXTRACT: note_on channel=4 note=56 velocity=82 time=0
EXTRACT: note_on channel=4 note=68 velocity=84 time=0
EXTRACT: note_on channel=6 note=35 velocity=64 time=0
EXTRACT: note_on channel=9 note=42 velocity=103 time=0
EXTRACT: note_on channel=9 note=54 velocity=116 time=0
EXTRACT: note_on channel=9 note=42 velocity=0 time=0.011574083333333332
EXTRACT: note_on channel=9 note=54 velocity=0 time=0
EXTRACT: note_on channel=4 note=57 velocity=0 time=0.011574083333333332
EXTRACT: note_on channel=3 note=69 velocity=0 time=0.006944449999999999
EXTRACT: note_on channel=0 note=52 velocity=0 time=0.032407433333333326
EXTRACT: note_on channel=6 note=54 velocity=0 time=0.013888899999999997
EXTRACT: note_on channel=0 note=54 velocity=0 time=0.03819447499999999
EXTRACT: note_on channel=2 note=54 velocity=0 time=0.0034722249999999994
EXTRACT: note_on channel=2 note=47 velocity=0 time=0.0046296333333333325
EXTRACT: note_on channel=2 note=59 velocity=0 time=0.013888899999999997
EXTRACT: note_on channel=2 note=63 velocity=0 time=0.0023148166666666662
EXTRACT: note_on channel=6 note=47 velocity=0 time=0.011574083333333332
EXTRACT: note_on channel=0 note=47 velocity=0 time=0.07523154166666665
EXTRACT: note_on channel=1 note=35 velocity=0 time=0.0023148166666666662
EXTRACT: note_on channel=15 note=54 velocity=0 time=0.024305574999999996
EXTRACT: note_on channel=0 note=52 velocity=64 time=0.025462983333333328
EXTRACT: note_on channel=0 note=54 velocity=62 time=0
EXTRACT: note_on channel=1 note=35 velocity=102 time=0
EXTRACT: note_on channel=2 note=47 velocity=62 time=0
EXTRACT: note_on channel=2 note=54 velocity=70 time=0
EXTRACT: note_on channel=2 note=59 velocity=84 time=0
EXTRACT: note_on channel=2 note=63 velocity=83 time=0
EXTRACT: note_on channel=3 note=66 velocity=85 time=0
EXTRACT: note_on channel=4 note=54 velocity=81 time=0
EXTRACT: note_on channel=4 note=56 velocity=0 time=0
EXTRACT: note_on channel=4 note=66 velocity=86 time=0
EXTRACT: note_on channel=4 note=68 velocity=0 time=0
EXTRACT: note_on channel=6 note=47 velocity=85 time=0
EXTRACT: note_on channel=6 note=54 velocity=59 time=0
EXTRACT: note_on channel=6 note=59 velocity=77 time=0
EXTRACT: note_on channel=9 note=36 velocity=109 time=0
EXTRACT: note_on channel=9 note=40 velocity=104 time=0
EXTRACT: note_on channel=3 note=68 velocity=0 time=0.0023148166666666662
EXTRACT: note_on channel=9 note=36 velocity=0 time=0.009259266666666665
EXTRACT: note_on channel=9 note=40 velocity=0 time=0
EXTRACT: note_on channel=15 note=59 velocity=0 time=0.028935208333333327
EXTRACT: note_on channel=6 note=35 velocity=0 time=0.009259266666666665
EXTRACT: note_on channel=0 note=52 velocity=0 time=0.020833349999999997
EXTRACT: control_change channel=3 control=1 value=5 time=0
EXTRACT: note_on channel=10 note=59 velocity=0 time=0.015046308333333331
EXTRACT: note_on channel=15 note=63 velocity=0 time=0.006944449999999999
EXTRACT: note_on channel=2 note=54 velocity=0 time=0.0023148166666666662
EXTRACT: note_on channel=6 note=54 velocity=0 time=0.01851853333333333
EXTRACT: note_on channel=0 note=54 velocity=0 time=0.012731491666666664
EXTRACT: note_on channel=2 note=63 velocity=0 time=0.009259266666666665
EXTRACT: note_on channel=2 note=47 velocity=0 time=0.005787041666666666
EXTRACT: note_on channel=10 note=54 velocity=0 time=0.0034722249999999994
EXTRACT: note_on channel=2 note=59 velocity=0 time=0.011574083333333332
EXTRACT: note_on channel=10 note=63 velocity=0 time=0.030092616666666662
EXTRACT: note_on channel=1 note=35 velocity=0 time=0.008101858333333331
EXTRACT: note_on channel=6 note=47 velocity=0 time=0.013888899999999997
EXTRACT: note_on channel=6 note=63 velocity=0 time=0.02199075833333333
EXTRACT: note_on channel=4 note=54 velocity=0 time=0.023148166666666664
EXTRACT: note_on channel=3 note=66 velocity=0 time=0.01851853333333333
EXTRACT: note_on channel=0 note=52 velocity=50 time=0.005787041666666666
EXTRACT: note_on channel=0 note=54 velocity=55 time=0
EXTRACT: note_on channel=1 note=35 velocity=92 time=0
EXTRACT: note_on channel=2 note=47 velocity=50 time=0
EXTRACT: note_on channel=2 note=54 velocity=70 time=0
EXTRACT: note_on channel=2 note=59 velocity=68 time=0
EXTRACT: note_on channel=2 note=63 velocity=50 time=0
EXTRACT: note_on channel=3 note=64 velocity=80 time=0
EXTRACT: note_on channel=4 note=66 velocity=0 time=0
EXTRACT: note_on channel=4 note=52 velocity=69 time=0
EXTRACT: note_on channel=4 note=64 velocity=81 time=0
EXTRACT: note_on channel=6 note=54 velocity=62 time=0
EXTRACT: note_on channel=9 note=54 velocity=50 time=0
EXTRACT: note_on channel=9 note=54 velocity=0 time=0.011574083333333332
EXTRACT: note_on channel=2 note=54 velocity=0 time=0.02199075833333333
EXTRACT: note_on channel=0 note=52 velocity=0 time=0.009259266666666665
EXTRACT: note_on channel=6 note=59 velocity=0 time=0.01851853333333333
EXTRACT: note_on channel=6 note=54 velocity=0 time=0.0011574083333333331
EXTRACT: note_on channel=15 note=47 velocity=0 time=0.005787041666666666
EXTRACT: note_on channel=9 note=54 velocity=54 time=0.0011574083333333331
EXTRACT: note_on channel=0 note=54 velocity=0 time=0.0023148166666666662
EXTRACT: note_on channel=2 note=47 velocity=0 time=0
EXTRACT: note_on channel=9 note=54 velocity=0 time=0.009259266666666665
EXTRACT: note_on channel=2 note=63 velocity=0 time=0.011574083333333332
EXTRACT: note_on channel=2 note=59 velocity=0 time=0
EXTRACT: note_on channel=2 note=47 velocity=62 time=0.04629633333333333
EXTRACT: note_on channel=2 note=54 velocity=50 time=0
EXTRACT: note_on channel=2 note=59 velocity=74 time=0
EXTRACT: note_on channel=2 note=63 velocity=64 time=0
EXTRACT: note_on channel=9 note=54 velocity=68 time=0
EXTRACT: note_on channel=9 note=54 velocity=0 time=0.011574083333333332
EXTRACT: pitchwheel channel=3 pitch=0 time=0.031250024999999994
EXTRACT: control_change channel=2 control=64 value=0 time=0.0034722249999999994
EXTRACT: note_on channel=2 note=54 velocity=0 time=0.0034722249999999994
EXTRACT: note_on channel=9 note=54 velocity=76 time=0.01967594166666666
EXTRACT: note_on channel=1 note=35 velocity=0 time=0.0011574083333333331
EXTRACT: note_on channel=2 note=59 velocity=0 time=0.0023148166666666662
EXTRACT: control_change channel=0 control=64 value=0 time=0.008101858333333331
EXTRACT: note_on channel=9 note=54 velocity=0 time=0
EXTRACT: pitchwheel channel=3 pitch=-4992 time=0.011574083333333332
EXTRACT: note_on channel=10 note=47 velocity=0 time=0.026620391666666663
EXTRACT: note_on channel=2 note=63 velocity=0 time=0.0011574083333333331
EXTRACT: note_on channel=3 note=64 velocity=0 time=0.0034722249999999994
EXTRACT: note_on channel=2 note=47 velocity=0 time=0.0034722249999999994
EXTRACT: note_on channel=4 note=64 velocity=0 time=0.0046296333333333325
EXTRACT: control_change channel=10 control=64 value=0 time=0.0023148166666666662
EXTRACT: control_change channel=0 control=64 value=0 time=0.0046296333333333325
EXTRACT: note_on channel=0 note=49 velocity=89 time=0
EXTRACT: note_on channel=0 note=52 velocity=85 time=0
EXTRACT: note_on channel=0 note=56 velocity=74 time=0
EXTRACT: note_on channel=0 note=61 velocity=85 time=0
EXTRACT: note_on channel=1 note=37 velocity=100 time=0
EXTRACT: note_on channel=2 note=49 velocity=82 time=0
EXTRACT: note_on channel=2 note=56 velocity=81 time=0
EXTRACT: note_on channel=2 note=61 velocity=71 time=0
EXTRACT: note_on channel=2 note=64 velocity=67 time=0
EXTRACT: control_change channel=3 control=1 value=6 time=0
EXTRACT: note_on channel=3 note=71 velocity=92 time=0
EXTRACT: note_on channel=4 note=59 velocity=95 time=0
EXTRACT: note_on channel=4 note=71 velocity=92 time=0
EXTRACT: note_on channel=6 note=37 velocity=68 time=0
EXTRACT: note_on channel=6 note=49 velocity=65 time=0
EXTRACT: note_on channel=6 note=56 velocity=85 time=0
EXTRACT: note_on channel=6 note=61 velocity=66 time=0
EXTRACT: note_on channel=6 note=64 velocity=72 time=0
EXTRACT: note_on channel=7 note=80 velocity=92 time=0
EXTRACT: note_on channel=7 note=85 velocity=88 time=0
EXTRACT: note_on channel=7 note=88 velocity=77 time=0
EXTRACT: note_on channel=9 note=36 velocity=104 time=0
EXTRACT: note_on channel=9 note=41 velocity=106 time=0
EXTRACT: note_on channel=9 note=54 velocity=100 time=0
EXTRACT: note_on channel=10 note=49 velocity=73 time=0
EXTRACT: note_on channel=10 note=56 velocity=56 time=0
EXTRACT: note_on channel=10 note=61 velocity=50 time=0
EXTRACT: note_on channel=10 note=64 velocity=52 time=0
EXTRACT: note_on channel=15 note=49 velocity=1 time=0
EXTRACT: note_on channel=15 note=56 velocity=1 time=0
EXTRACT: note_on channel=15 note=61 velocity=1 time=0
EXTRACT: note_on channel=15 note=64 velocity=1 time=0
EXTRACT: pitchwheel channel=3 pitch=-7040 time=0.0046296333333333325
EXTRACT: note_on channel=7 note=83 velocity=0 time=0
EXTRACT: note_on channel=9 note=36 velocity=0 time=0.006944449999999999
EXTRACT: note_on channel=9 note=41 velocity=0 time=0
EXTRACT: note_on channel=9 note=54 velocity=0 time=0
EXTRACT: control_change channel=15 control=64 value=0 time=0.006944449999999999
EXTRACT: control_change channel=6 control=64 value=0 time=0.010416674999999999
EXTRACT: note_on channel=7 note=78 velocity=0 time=0
EXTRACT: note_on channel=7 note=87 velocity=0 time=0.008101858333333331
EXTRACT: note_on channel=4 note=52 velocity=0 time=0.0011574083333333331
EXTRACT: control_change channel=0 control=64 value=127 time=0.049768558333333324
EXTRACT: pitchwheel channel=3 pitch=-5120 time=0.016203716666666663
EXTRACT: pitchwheel channel=3 pitch=-2944 time=0.049768558333333324
EXTRACT: control_change channel=2 control=64 value=127 time=0.0034722249999999994
EXTRACT: note_on channel=0 note=52 velocity=0 time=0.008101858333333331
EXTRACT: note_on channel=0 note=56 velocity=0 time=0.0034722249999999994
EXTRACT: pitchwheel channel=3 pitch=0 time=0.034722249999999996
EXTRACT: note_on channel=1 note=37 velocity=0 time=0.008101858333333331
EXTRACT: note_on channel=0 note=61 velocity=0 time=0.0034722249999999994
EXTRACT: pitchwheel channel=3 pitch=0 time=0.03935188333333332
EXTRACT: note_on channel=0 note=52 velocity=50 time=0.023148166666666664
EXTRACT: note_on channel=0 note=56 velocity=50 time=0
EXTRACT: note_on channel=0 note=61 velocity=56 time=0
EXTRACT: note_on channel=1 note=37 velocity=83 time=0
EXTRACT: note_on channel=2 note=64 velocity=0 time=0.050925966666666656
EXTRACT: note_on channel=2 note=56 velocity=0 time=0.01967594166666666
EXTRACT: note_on channel=0 note=52 velocity=0 time=0.015046308333333331
EXTRACT: control_change channel=15 control=64 value=127 time=0.005787041666666666
EXTRACT: note_on channel=2 note=61 velocity=0 time=0.006944449999999999
EXTRACT: note_on channel=0 note=56 velocity=0 time=0.008101858333333331
EXTRACT: note_on channel=0 note=61 velocity=0 time=0.012731491666666664
EXTRACT: note_on channel=4 note=59 velocity=0 time=0.020833349999999997
EXTRACT: note_on channel=4 note=71 velocity=0 time=0.006944449999999999
EXTRACT: control_change channel=6 control=64 value=127 time=0.0046296333333333325
EXTRACT: note_on channel=2 note=49 velocity=0 time=0.0046296333333333325
EXTRACT: control_change channel=10 control=64 value=127 time=0.011574083333333332
EXTRACT: note_on channel=3 note=71 velocity=0 time=0.011574083333333332
EXTRACT: note_on channel=1 note=37 velocity=0 time=0.03819447499999999
EXTRACT: note_on channel=0 note=52 velocity=58 time=0.060185233333333324
EXTRACT: note_on channel=0 note=56 velocity=62 time=0
EXTRACT: note_on channel=0 note=61 velocity=69 time=0
EXTRACT: note_on channel=1 note=37 velocity=94 time=0
EXTRACT: note_on channel=2 note=49 velocity=50 time=0
EXTRACT: note_on channel=2 note=56 velocity=66 time=0
EXTRACT: note_on channel=2 note=61 velocity=50 time=0
EXTRACT: note_on channel=2 note=64 velocity=58 time=0
EXTRACT: note_on channel=9 note=36 velocity=101 time=0
EXTRACT: note_on channel=9 note=42 velocity=98 time=0
EXTRACT: note_on channel=9 note=54 velocity=116 time=0
EXTRACT: note_on channel=9 note=36 velocity=0 time=0.011574083333333332
EXTRACT: note_on channel=9 note=42 velocity=0 time=0
EXTRACT: note_on channel=9 note=54 velocity=0 time=0
EXTRACT: note_on channel=0 note=56 velocity=0 time=0.030092616666666662
EXTRACT: note_on channel=0 note=52 velocity=0 time=0.04050929166666666
EXTRACT: note_on channel=2 note=56 velocity=0 time=0.009259266666666665
EXTRACT: note_on channel=2 note=64 velocity=0 time=0.009259266666666665
EXTRACT: note_on channel=0 note=61 velocity=0 time=0.008101858333333331
EXTRACT: note_on channel=2 note=49 velocity=0 time=0.01967594166666666
EXTRACT: note_on channel=2 note=61 velocity=0 time=0.031250024999999994
EXTRACT: note_on channel=1 note=37 velocity=0 time=0.06712968333333331
EXTRACT: note_on channel=0 note=52 velocity=85 time=0.050925966666666656
EXTRACT: note_on channel=0 note=56 velocity=80 time=0
EXTRACT: note_on channel=0 note=61 velocity=89 time=0
EXTRACT: note_on channel=1 note=37 velocity=93 time=0
EXTRACT: note_on channel=2 note=49 velocity=80 time=0
EXTRACT: note_on channel=2 note=56 velocity=83 time=0
EXTRACT: note_on channel=2 note=61 velocity=50 time=0
EXTRACT: note_on channel=2 note=64 velocity=73 time=0
EXTRACT: note_on channel=9 note=41 velocity=109 time=0
EXTRACT: note_on channel=9 note=41 velocity=0 time=0.011574083333333332
EXTRACT: control_change channel=3 control=1 value=7 time=0.10416674999999997
EXTRACT: note_on channel=0 note=56 velocity=0 time=0.011574083333333332
EXTRACT: note_on channel=0 note=52 velocity=0 time=0.02199075833333333
EXTRACT: note_on channel=2 note=56 velocity=0 time=0.0011574083333333331
EXTRACT: note_on channel=0 note=61 velocity=0 time=0.03819447499999999
EXTRACT: note_on channel=2 note=61 velocity=0 time=0.011574083333333332
EXTRACT: note_on channel=2 note=64 velocity=0 time=0.005787041666666666
EXTRACT: note_on channel=1 note=37 velocity=0 time=0.01851853333333333
EXTRACT: note_on channel=2 note=49 velocity=0 time=0.04398151666666666
EXTRACT: note_on channel=0 note=52 velocity=50 time=0.009259266666666665
EXTRACT: note_on channel=0 note=56 velocity=50 time=0
EXTRACT: note_on channel=0 note=61 velocity=57 time=0
EXTRACT: note_on channel=1 note=37 velocity=89 time=0
EXTRACT: note_on channel=3 note=68 velocity=86 time=0
EXTRACT: note_on channel=4 note=56 velocity=97 time=0
EXTRACT: note_on channel=4 note=68 velocity=90 time=0
EXTRACT: note_on channel=9 note=36 velocity=102 time=0
EXTRACT: note_on channel=9 note=36 velocity=0 time=0.011574083333333332
EXTRACT: note_on channel=0 note=52 velocity=0 time=0.07407413333333332
EXTRACT: note_on channel=0 note=61 velocity=0 time=0.01967594166666666
EXTRACT: note_on channel=0 note=56 velocity=0 time=0.0034722249999999994
EXTRACT: note_on channel=1 note=37 velocity=0 time=0.09259266666666666
EXTRACT: note_on channel=0 note=52 velocity=68 time=0.07638894999999998
EXTRACT: note_on channel=0 note=56 velocity=50 time=0
EXTRACT: note_on channel=0 note=61 velocity=67 time=0
EXTRACT: note_on channel=1 note=37 velocity=82 time=0
EXTRACT: note_on channel=2 note=49 velocity=58 time=0
EXTRACT: note_on channel=2 note=56 velocity=62 time=0
EXTRACT: note_on channel=2 note=61 velocity=57 time=0
EXTRACT: note_on channel=2 note=64 velocity=54 time=0
EXTRACT: note_on channel=9 note=42 velocity=108 time=0
EXTRACT: note_on channel=9 note=54 velocity=116 time=0
EXTRACT: note_on channel=9 note=42 velocity=0 time=0.011574083333333332
EXTRACT: note_on channel=9 note=54 velocity=0 time=0
EXTRACT: note_on channel=3 note=68 velocity=0 time=0.013888899999999997
EXTRACT: control_change channel=3 control=1 value=8 time=0.009259266666666665
EXTRACT: note_on channel=2 note=64 velocity=0 time=0.024305574999999996
EXTRACT: note_on channel=0 note=52 velocity=0 time=0.0046296333333333325
EXTRACT: note_on channel=4 note=68 velocity=0 time=0.0011574083333333331
EXTRACT: note_on channel=0 note=56 velocity=0 time=0.012731491666666664
EXTRACT: note_on channel=4 note=56 velocity=0 time=0.0034722249999999994
EXTRACT: note_on channel=2 note=49 velocity=0 time=0.011574083333333332
EXTRACT: note_on channel=2 note=61 velocity=0 time=0.009259266666666665
EXTRACT: note_on channel=2 note=56 velocity=0 time=0.0011574083333333331
EXTRACT: note_on channel=0 note=61 velocity=0 time=0.0011574083333333331
EXTRACT: note_on channel=1 note=37 velocity=0 time=0.09722229999999998
EXTRACT: note_on channel=0 note=52 velocity=77 time=0.07638894999999998
EXTRACT: note_on channel=0 note=56 velocity=61 time=0
EXTRACT: note_on channel=0 note=61 velocity=83 time=0
EXTRACT: note_on channel=1 note=37 velocity=83 time=0
EXTRACT: note_on channel=2 note=49 velocity=76 time=0
EXTRACT: note_on channel=2 note=56 velocity=80 time=0
EXTRACT: note_on channel=2 note=61 velocity=63 time=0
EXTRACT: note_on channel=2 note=64 velocity=69 time=0
EXTRACT: note_on channel=9 note=36 velocity=106 time=0
EXTRACT: note_on channel=9 note=40 velocity=107 time=0
EXTRACT: note_on channel=9 note=36 velocity=0 time=0.011574083333333332
EXTRACT: note_on channel=9 note=40 velocity=0 time=0
EXTRACT: note_on channel=6 note=49 velocity=0 time=0.05671300833333332
EXTRACT: note_on channel=0 note=52 velocity=0 time=0.03819447499999999
EXTRACT: note_on channel=0 note=56 velocity=0 time=0.0023148166666666662
EXTRACT: note_on channel=0 note=61 velocity=0 time=0.030092616666666662
EXTRACT: note_on channel=2 note=56 velocity=0 time=0.0023148166666666662
EXTRACT: note_on channel=2 note=64 velocity=0 time=0.015046308333333331
EXTRACT: note_on channel=2 note=61 velocity=0 time=0.009259266666666665
EXTRACT: note_on channel=2 note=49 velocity=0 time=0.009259266666666665
EXTRACT: note_on channel=1 note=37 velocity=0 time=0.03587965833333333
EXTRACT: control_change channel=3 control=1 value=9 time=0.020833349999999997
EXTRACT: note_on channel=0 note=52 velocity=50 time=0.04629633333333333
EXTRACT: note_on channel=0 note=56 velocity=56 time=0
EXTRACT: note_on channel=0 note=61 velocity=51 time=0
EXTRACT: note_on channel=1 note=37 velocity=84 time=0
EXTRACT: note_on channel=2 note=49 velocity=50 time=0
EXTRACT: note_on channel=2 note=56 velocity=51 time=0
EXTRACT: note_on channel=2 note=61 velocity=53 time=0
EXTRACT: note_on channel=2 note=64 velocity=50 time=0
EXTRACT: note_on channel=6 note=49 velocity=50 time=0
EXTRACT: note_on channel=9 note=54 velocity=50 time=0
EXTRACT: note_on channel=9 note=54 velocity=0 time=0.011574083333333332
EXTRACT: note_on channel=0 note=56 velocity=0 time=0.024305574999999996
EXTRACT: note_on channel=2 note=56 velocity=0 time=0.005787041666666666
EXTRACT: note_on channel=0 note=61 velocity=0 time=0.0034722249999999994
EXTRACT: note_on channel=0 note=49 velocity=0 time=0.009259266666666665
EXTRACT: note_on channel=0 note=52 velocity=0 time=0.0034722249999999994
EXTRACT: note_on channel=2 note=49 velocity=0 time=0
EXTRACT: note_on channel=9 note=54 velocity=50 time=0.011574083333333332
EXTRACT: note_on channel=2 note=64 velocity=0 time=0.005787041666666666
EXTRACT: note_on channel=9 note=54 velocity=0 time=0.005787041666666666
EXTRACT: note_on channel=6 note=64 velocity=0 time=0.008101858333333331
EXTRACT: note_on channel=2 note=61 velocity=0 time=0.0023148166666666662
EXTRACT: note_on channel=6 note=37 velocity=0 time=0.0011574083333333331
EXTRACT: note_on channel=6 note=56 velocity=0 time=0.005787041666666666
EXTRACT: note_on channel=0 note=52 velocity=66 time=0.04050929166666666
EXTRACT: note_on channel=0 note=56 velocity=50 time=0
EXTRACT: note_on channel=0 note=61 velocity=50 time=0
EXTRACT: note_on channel=2 note=49 velocity=64 time=0
EXTRACT: note_on channel=2 note=56 velocity=50 time=0
EXTRACT: note_on channel=2 note=61 velocity=72 time=0
EXTRACT: note_on channel=2 note=64 velocity=50 time=0
EXTRACT: note_on channel=3 note=59 velocity=85 time=0
EXTRACT: note_on channel=9 note=54 velocity=61 time=0
EXTRACT: note_on channel=9 note=54 velocity=0 time=0.011574083333333332
EXTRACT: note_on channel=2 note=56 velocity=0 time=0.03356484166666666
EXTRACT: note_on channel=2 note=61 velocity=0 time=0
EXTRACT: note_on channel=2 note=64 velocity=0 time=0.006944449999999999
EXTRACT: note_on channel=1 note=37 velocity=0 time=0.0046296333333333325
EXTRACT: note_on channel=0 note=61 velocity=0 time=0.0011574083333333331
EXTRACT: note_on channel=0 note=52 velocity=0 time=0.006944449999999999
EXTRACT: note_on channel=2 note=49 velocity=0 time=0.0011574083333333331
EXTRACT: note_on channel=9 note=54 velocity=95 time=0.0034722249999999994
EXTRACT: note_on channel=0 note=56 velocity=0 time=0.009259266666666665
EXTRACT: note_on channel=9 note=54 velocity=0 time=0.0023148166666666662
EXTRACT: note_on channel=3 note=59 velocity=0 time=0.04629633333333333
EXTRACT: note_on channel=0 note=49 velocity=83 time=0.011574083333333332
EXTRACT: note_on channel=0 note=52 velocity=73 time=0
EXTRACT: note_on channel=0 note=56 velocity=70 time=0
EXTRACT: note_on channel=0 note=61 velocity=66 time=0
EXTRACT: note_on channel=1 note=37 velocity=92 time=0
EXTRACT: note_on channel=2 note=49 velocity=78 time=0
EXTRACT: note_on channel=2 note=56 velocity=57 time=0
EXTRACT: note_on channel=2 note=61 velocity=61 time=0
EXTRACT: note_on channel=2 note=64 velocity=77 time=0
EXTRACT: note_on channel=3 note=66 velocity=94 time=0
EXTRACT: note_on channel=4 note=54 velocity=88 time=0
EXTRACT: note_on channel=4 note=66 velocity=85 time=0
EXTRACT: note_on channel=6 note=37 velocity=50 time=0
EXTRACT: note_on channel=6 note=56 velocity=74 time=0
EXTRACT: note_on channel=6 note=64 velocity=66 time=0
EXTRACT: note_on channel=9 note=36 velocity=103 time=0
EXTRACT: note_on channel=9 note=41 velocity=105 time=0
EXTRACT: note_on channel=9 note=54 velocity=100 time=0
EXTRACT: note_on channel=9 note=36 velocity=0 time=0.011574083333333332
EXTRACT: note_on channel=9 note=41 velocity=0 time=0
EXTRACT: note_on channel=9 note=54 velocity=0 time=0
EXTRACT: note_on channel=0 note=52 velocity=0 time=0.12037046666666665
EXTRACT: note_on channel=0 note=56 velocity=0 time=0.005787041666666666
EXTRACT: control_change channel=3 control=1 value=10 time=0.012731491666666664
EXTRACT: note_on channel=0 note=61 velocity=0 time=0.012731491666666664
EXTRACT: note_on channel=2 note=64 velocity=0 time=0.030092616666666662
EXTRACT: note_on channel=2 note=56 velocity=0 time=0.0011574083333333331
EXTRACT: note_on channel=2 note=61 velocity=0 time=0.032407433333333326
EXTRACT: note_on channel=1 note=37 velocity=0 time=0.0011574083333333331
EXTRACT: note_on channel=4 note=66 velocity=0 time=0.026620391666666663
EXTRACT: note_on channel=3 note=66 velocity=0 time=0.012731491666666664
EXTRACT: note_on channel=2 note=49 velocity=0 time=0.008101858333333331
EXTRACT: note_on channel=0 note=52 velocity=50 time=0.0023148166666666662
EXTRACT: note_on channel=0 note=56 velocity=50 time=0
EXTRACT: note_on channel=0 note=61 velocity=50 time=0
EXTRACT: note_on channel=1 note=37 velocity=86 time=0
EXTRACT: note_on channel=3 note=68 velocity=92 time=0
EXTRACT: note_on channel=4 note=56 velocity=84 time=0
EXTRACT: note_on channel=4 note=68 velocity=90 time=0
EXTRACT: note_on channel=4 note=54 velocity=0 time=0.04398151666666666
EXTRACT: note_on channel=0 note=52 velocity=0 time=0.03819447499999999
EXTRACT: note_on channel=0 note=56 velocity=0 time=0.03703706666666666
EXTRACT: note_on channel=0 note=61 velocity=0 time=0.008101858333333331
EXTRACT: note_on channel=1 note=37 velocity=0 time=0.08912044166666665
EXTRACT: note_on channel=6 note=61 velocity=0 time=0.03703706666666666
EXTRACT: note_on channel=0 note=52 velocity=62 time=0.024305574999999996
EXTRACT: note_on channel=0 note=56 velocity=70 time=0
EXTRACT: note_on channel=0 note=61 velocity=65 time=0
EXTRACT: note_on channel=1 note=37 velocity=82 time=0
EXTRACT: note_on channel=2 note=49 velocity=50 time=0
EXTRACT: note_on channel=2 note=56 velocity=55 time=0
EXTRACT: note_on channel=2 note=61 velocity=50 time=0
EXTRACT: note_on channel=2 note=64 velocity=50 time=0
EXTRACT: note_on channel=9 note=36 velocity=96 time=0
EXTRACT: note_on channel=9 note=42 velocity=103 time=0
EXTRACT: note_on channel=9 note=54 velocity=116 time=0
EXTRACT: note_on channel=4 note=68 velocity=0 time=0.005787041666666666
EXTRACT: note_on channel=9 note=36 velocity=0 time=0.005787041666666666
EXTRACT: note_on channel=9 note=42 velocity=0 time=0
EXTRACT: note_on channel=9 note=54 velocity=0 time=0
EXTRACT: note_on channel=3 note=68 velocity=0 time=0.006944449999999999
EXTRACT: note_on channel=0 note=49 velocity=0 time=0.0034722249999999994
EXTRACT: note_on channel=6 note=56 velocity=0 time=0.0023148166666666662
EXTRACT: note_on channel=4 note=56 velocity=0 time=0.012731491666666664
EXTRACT: note_on channel=0 note=56 velocity=0 time=0.026620391666666663
EXTRACT: note_on channel=2 note=64 velocity=0 time=0.005787041666666666
EXTRACT: control_change channel=3 control=1 value=11 time=0
EXTRACT: note_on channel=6 note=49 velocity=0 time=0.010416674999999999
EXTRACT: note_on channel=0 note=52 velocity=0 time=0.010416674999999999
EXTRACT: note_on channel=2 note=56 velocity=0 time=0.0011574083333333331
EXTRACT: note_on channel=2 note=61 velocity=0 time=0.016203716666666663
EXTRACT: note_on channel=0 note=61 velocity=0 time=0.005787041666666666
EXTRACT: note_on channel=2 note=49 velocity=0 time=0.0046296333333333325
EXTRACT: pitchwheel channel=3 pitch=0 time=0.05902782499999999
EXTRACT: note_on channel=1 note=37 velocity=0 time=0.025462983333333328
EXTRACT: pitchwheel channel=3 pitch=-4352 time=0.025462983333333328
EXTRACT: note_on channel=0 note=49 velocity=94 time=0.049768558333333324
EXTRACT: note_on channel=0 note=52 velocity=72 time=0
EXTRACT: note_on channel=0 note=56 velocity=76 time=0
EXTRACT: note_on channel=0 note=61 velocity=81 time=0
EXTRACT: note_on channel=1 note=37 velocity=82 time=0
EXTRACT: note_on channel=2 note=49 velocity=77 time=0
EXTRACT: note_on channel=2 note=56 velocity=77 time=0
EXTRACT: note_on channel=2 note=61 velocity=72 time=0
EXTRACT: note_on channel=2 note=64 velocity=64 time=0
EXTRACT: pitchwheel channel=3 pitch=-7168 time=0
EXTRACT: note_on channel=3 note=69 velocity=89 time=0
EXTRACT: note_on channel=4 note=57 velocity=84 time=0
EXTRACT: note_on channel=4 note=69 velocity=93 time=0
EXTRACT: note_on channel=6 note=49 velocity=68 time=0
EXTRACT: note_on channel=6 note=56 velocity=77 time=0
EXTRACT: note_on channel=6 note=61 velocity=68 time=0
EXTRACT: note_on channel=9 note=41 velocity=105 time=0
EXTRACT: note_on channel=9 note=41 velocity=0 time=0.011574083333333332
EXTRACT: pitchwheel channel=3 pitch=-5120 time=0.08796303333333332
EXTRACT: note_on channel=0 note=52 velocity=0 time=0.01967594166666666
EXTRACT: note_on channel=0 note=56 velocity=0 time=0.0023148166666666662
EXTRACT: pitchwheel channel=3 pitch=-1792 time=0.028935208333333327
EXTRACT: note_on channel=2 note=56 velocity=0 time=0.005787041666666666
EXTRACT: note_on channel=0 note=61 velocity=0 time=0.0011574083333333331
EXTRACT: note_on channel=2 note=61 velocity=0 time=0.0011574083333333331
EXTRACT: note_on channel=2 note=64 velocity=0 time=0
EXTRACT: note_on channel=2 note=49 velocity=0 time=0.009259266666666665
EXTRACT: pitchwheel channel=3 pitch=0 time=0.032407433333333326
EXTRACT: note_on channel=1 note=37 velocity=0 time=0.010416674999999999
EXTRACT: pitchwheel channel=3 pitch=0 time=0.03935188333333332
EXTRACT: control_change channel=3 control=1 value=12 time=0.016203716666666663
EXTRACT: note_on channel=0 note=52 velocity=50 time=0.011574083333333332
EXTRACT: note_on channel=0 note=56 velocity=55 time=0
EXTRACT: note_on channel=0 note=61 velocity=50 time=0
EXTRACT: note_on channel=1 note=37 velocity=76 time=0
EXTRACT: note_on channel=9 note=36 velocity=101 time=0
EXTRACT: note_on channel=9 note=36 velocity=0 time=0.011574083333333332
EXTRACT: note_on channel=0 note=52 velocity=0 time=0.05671300833333332
EXTRACT: note_on channel=0 note=56 velocity=0 time=0.028935208333333327
EXTRACT: note_on channel=0 note=61 velocity=0 time=0.024305574999999996
EXTRACT: note_on channel=1 note=37 velocity=0 time=0.09953711666666665
EXTRACT: note_on channel=4 note=57 velocity=0 time=0.034722249999999996
EXTRACT: note_on channel=0 note=52 velocity=53 time=0.02199075833333333
EXTRACT: note_on channel=0 note=56 velocity=61 time=0
EXTRACT: note_on channel=0 note=61 velocity=71 time=0
EXTRACT: note_on channel=1 note=37 velocity=85 time=0
EXTRACT: note_on channel=2 note=49 velocity=57 time=0
EXTRACT: note_on channel=2 note=56 velocity=63 time=0
EXTRACT: note_on channel=2 note=61 velocity=62 time=0
EXTRACT: note_on channel=2 note=64 velocity=54 time=0
EXTRACT: note_on channel=3 note=68 velocity=87 time=0
EXTRACT: note_on channel=4 note=56 velocity=83 time=0
EXTRACT: note_on channel=4 note=68 velocity=84 time=0
EXTRACT: note_on channel=9 note=42 velocity=108 time=0
EXTRACT: note_on channel=9 note=54 velocity=116 time=0
EXTRACT: note_on channel=3 note=69 velocity=0 time=0.008101858333333331
EXTRACT: note_on channel=9 note=42 velocity=0 time=0.0034722249999999994
EXTRACT: note_on channel=9 note=54 velocity=0 time=0
EXTRACT: note_on channel=4 note=69 velocity=0 time=0.032407433333333326
EXTRACT: note_on channel=0 note=52 velocity=0 time=0.01967594166666666
EXTRACT: note_on channel=2 note=64 velocity=0 time=0.013888899999999997
EXTRACT: note_on channel=0 note=56 velocity=0 time=0.0046296333333333325
EXTRACT: note_on channel=2 note=56 velocity=0 time=0.01851853333333333
EXTRACT: note_on channel=0 note=61 velocity=0 time=0.005787041666666666
EXTRACT: note_on channel=6 note=49 velocity=0 time=0
EXTRACT: note_on channel=0 note=49 velocity=0 time=0.0023148166666666662
EXTRACT: note_on channel=2 note=49 velocity=0 time=0
EXTRACT: note_on channel=2 note=61 velocity=0 time=0.012731491666666664
EXTRACT: note_on channel=6 note=37 velocity=0 time=0.02199075833333333
EXTRACT: control_change channel=3 control=1 value=13 time=0.041666699999999994
EXTRACT: note_on channel=6 note=56 velocity=0 time=0
EXTRACT: note_on channel=1 note=37 velocity=0 time=0.024305574999999996
EXTRACT: note_on channel=6 note=64 velocity=0 time=0.024305574999999996
EXTRACT: note_on channel=15 note=64 velocity=0 time=0.0023148166666666662
EXTRACT: note_on channel=3 note=68 velocity=0 time=0.015046308333333331
EXTRACT: note_on channel=4 note=68 velocity=0 time=0.025462983333333328
EXTRACT: note_on channel=0 note=52 velocity=85 time=0.0011574083333333331
EXTRACT: note_on channel=0 note=56 velocity=82 time=0
EXTRACT: note_on channel=0 note=61 velocity=90 time=0
EXTRACT: note_on channel=1 note=37 velocity=90 time=0
EXTRACT: note_on channel=2 note=49 velocity=70 time=0
EXTRACT: note_on channel=2 note=56 velocity=76 time=0
EXTRACT: note_on channel=2 note=61 velocity=65 time=0
EXTRACT: note_on channel=2 note=64 velocity=61 time=0
EXTRACT: note_on channel=3 note=66 velocity=82 time=0
EXTRACT: note_on channel=4 note=54 velocity=84 time=0
EXTRACT: note_on channel=4 note=66 velocity=88 time=0
EXTRACT: note_on channel=9 note=36 velocity=104 time=0
EXTRACT: note_on channel=9 note=40 velocity=103 time=0
EXTRACT: note_on channel=9 note=36 velocity=0 time=0.011574083333333332
EXTRACT: note_on channel=9 note=40 velocity=0 time=0
EXTRACT: note_on channel=4 note=56 velocity=0 time=0.0023148166666666662
EXTRACT: note_on channel=15 note=56 velocity=0 time=0.03935188333333332
EXTRACT: note_on channel=6 note=61 velocity=0 time=0.009259266666666665
EXTRACT: note_on channel=0 note=52 velocity=0 time=0.04513892499999999
EXTRACT: note_on channel=2 note=56 velocity=0 time=0.0034722249999999994
EXTRACT: note_on channel=2 note=49 velocity=0 time=0.005787041666666666
EXTRACT: note_on channel=15 note=61 velocity=0 time=0.010416674999999999
EXTRACT: note_on channel=2 note=61 velocity=0 time=0.0023148166666666662
EXTRACT: note_on channel=0 note=56 velocity=0 time=0.0011574083333333331
EXTRACT: note_on channel=2 note=64 velocity=0 time=0.011574083333333332
EXTRACT: note_on channel=0 note=61 velocity=0 time=0.005787041666666666
EXTRACT: note_on channel=1 note=37 velocity=0 time=0.05787041666666665
EXTRACT: note_on channel=4 note=54 velocity=0 time=0.023148166666666664
EXTRACT: note_on channel=4 note=66 velocity=0 time=0.024305574999999996
EXTRACT: note_on channel=3 note=66 velocity=0 time=0.01967594166666666
EXTRACT: note_on channel=0 note=52 velocity=50 time=0.0046296333333333325
EXTRACT: note_on channel=0 note=56 velocity=50 time=0
EXTRACT: note_on channel=0 note=61 velocity=50 time=0
EXTRACT: note_on channel=1 note=37 velocity=92 time=0
EXTRACT: note_on channel=2 note=49 velocity=50 time=0
EXTRACT: note_on channel=2 note=56 velocity=50 time=0
EXTRACT: note_on channel=2 note=61 velocity=50 time=0
EXTRACT: note_on channel=2 note=64 velocity=50 time=0
EXTRACT: note_on channel=3 note=64 velocity=77 time=0
EXTRACT: note_on channel=4 note=52 velocity=73 time=0
EXTRACT: note_on channel=4 note=64 velocity=88 time=0
EXTRACT: note_on channel=9 note=54 velocity=50 time=0
EXTRACT: note_on channel=9 note=54 velocity=0 time=0.011574083333333332
EXTRACT: note_on channel=2 note=56 velocity=0 time=0.026620391666666663
EXTRACT: note_on channel=0 note=56 velocity=0 time=0.012731491666666664
EXTRACT: note_on channel=2 note=49 velocity=0 time=0.0011574083333333331
EXTRACT: note_on channel=0 note=52 velocity=0 time=0.006944449999999999
EXTRACT: note_on channel=2 note=64 velocity=0 time=0.008101858333333331
EXTRACT: note_on channel=9 note=54 velocity=54 time=0.0023148166666666662
EXTRACT: note_on channel=2 note=61 velocity=0 time=0.006944449999999999
EXTRACT: note_on channel=9 note=54 velocity=0 time=0.0046296333333333325
EXTRACT: control_change channel=3 control=1 value=14 time=0.023148166666666664
EXTRACT: note_on channel=2 note=49 velocity=74 time=0.034722249999999996
EXTRACT: note_on channel=2 note=56 velocity=52 time=0
EXTRACT: note_on channel=2 note=61 velocity=59 time=0
EXTRACT: note_on channel=2 note=64 velocity=50 time=0
EXTRACT: note_on channel=9 note=54 velocity=68 time=0
EXTRACT: note_on channel=0 note=61 velocity=0 time=0.0034722249999999994
EXTRACT: note_on channel=9 note=54 velocity=0 time=0.008101858333333331
EXTRACT: note_on channel=10 note=56 velocity=0 time=0.031250024999999994
EXTRACT: note_on channel=2 note=64 velocity=0 time=0.01967594166666666
EXTRACT: note_on channel=9 note=54 velocity=76 time=0.006944449999999999
EXTRACT: control_change channel=6 control=64 value=0 time=0.005787041666666666
EXTRACT: note_on channel=9 note=54 velocity=0 time=0.005787041666666666
EXTRACT: note_on channel=15 note=49 velocity=0 time=0.0023148166666666662
EXTRACT: control_change channel=10 control=64 value=0 time=0.008101858333333331
EXTRACT: note_on channel=1 note=37 velocity=0 time=0.0011574083333333331
EXTRACT: note_on channel=3 note=64 velocity=0 time=0.0034722249999999994
EXTRACT: note_on channel=2 note=56 velocity=0 time=0.0023148166666666662
EXTRACT: note_on channel=4 note=64 velocity=0 time=0
EXTRACT: note_on channel=2 note=49 velocity=0 time=0.0023148166666666662
EXTRACT: control_change channel=2 control=64 value=0 time=0.0023148166666666662
EXTRACT: note_on channel=2 note=61 velocity=0 time=0.0046296333333333325
EXTRACT: note_on channel=4 note=52 velocity=0 time=0.0023148166666666662
EXTRACT: control_change channel=0 control=64 value=0 time=0.023148166666666664
EXTRACT: note_on channel=0 note=45 velocity=87 time=0.005787041666666666
EXTRACT: note_on channel=0 note=52 velocity=57 time=0
EXTRACT: note_on channel=0 note=57 velocity=80 time=0
EXTRACT: note_on channel=1 note=33 velocity=100 time=0
EXTRACT: control_change channel=2 control=64 value=0 time=0
EXTRACT: note_on channel=2 note=45 velocity=64 time=0
EXTRACT: note_on channel=2 note=52 velocity=81 time=0
EXTRACT: note_on channel=2 note=57 velocity=84 time=0
EXTRACT: note_on channel=2 note=59 velocity=87 time=0
EXTRACT: note_on channel=2 note=64 velocity=79 time=0
EXTRACT: note_on channel=3 note=64 velocity=77 time=0
EXTRACT: note_on channel=4 note=52 velocity=91 time=0
EXTRACT: note_on channel=4 note=64 velocity=81 time=0
EXTRACT: note_on channel=6 note=33 velocity=73 time=0
EXTRACT: note_on channel=6 note=45 velocity=71 time=0
EXTRACT: note_on channel=6 note=52 velocity=63 time=0
EXTRACT: note_on channel=6 note=57 velocity=60 time=0
EXTRACT: note_on channel=6 note=59 velocity=64 time=0
EXTRACT: note_on channel=6 note=64 velocity=77 time=0
EXTRACT: note_on channel=7 note=81 velocity=91 time=0
EXTRACT: note_on channel=7 note=83 velocity=79 time=0
EXTRACT: note_on channel=9 note=36 velocity=99 time=0
EXTRACT: note_on channel=9 note=41 velocity=106 time=0
EXTRACT: note_on channel=9 note=54 velocity=100 time=0
EXTRACT: note_on channel=10 note=45 velocity=63 time=0
EXTRACT: note_on channel=10 note=57 velocity=51 time=0
EXTRACT: note_on channel=10 note=59 velocity=62 time=0
EXTRACT: note_on channel=15 note=45 velocity=1 time=0
EXTRACT: note_on channel=15 note=57 velocity=1 time=0
EXTRACT: note_on channel=15 note=61 velocity=1 time=0
EXTRACT: note_on channel=15 note=64 velocity=1 time=0
EXTRACT: note_on channel=10 note=49 velocity=0 time=0.005787041666666666
EXTRACT: note_on channel=9 note=36 velocity=0 time=0.005787041666666666
EXTRACT: note_on channel=9 note=41 velocity=0 time=0
EXTRACT: note_on channel=9 note=54 velocity=0 time=0
EXTRACT: note_on channel=10 note=61 velocity=0 time=0
EXTRACT: control_change channel=15 control=64 value=0 time=0.013888899999999997
EXTRACT: note_on channel=7 note=85 velocity=0 time=0.06944449999999999
EXTRACT: note_on channel=7 note=80 velocity=0 time=0.0046296333333333325
EXTRACT: control_change channel=0 control=64 value=127 time=0.04513892499999999
EXTRACT: note_on channel=0 note=52 velocity=0 time=0.0046296333333333325
EXTRACT: note_on channel=1 note=33 velocity=0 time=0.07754635833333332
EXTRACT: note_on channel=0 note=52 velocity=52 time=0.050925966666666656
EXTRACT: note_on channel=1 note=33 velocity=90 time=0
EXTRACT: control_change channel=3 control=1 value=15 time=0.023148166666666664
EXTRACT: control_change channel=3 control=1 value=16 time=0
EXTRACT: control_change channel=3 control=1 value=26 time=0.017361124999999998
EXTRACT: control_change channel=15 control=64 value=127 time=0.006944449999999999
EXTRACT: control_change channel=3 control=1 value=37 time=0.010416674999999999
EXTRACT: control_change channel=3 control=1 value=47 time=0.016203716666666663
EXTRACT: control_change channel=10 control=64 value=127 time=0.0011574083333333331
EXTRACT: control_change channel=3 control=1 value=55 time=0.016203716666666663
EXTRACT: note_on channel=0 note=57 velocity=0 time=0.015046308333333331
EXTRACT: note_on channel=0 note=52 velocity=0 time=0.0023148166666666662
EXTRACT: control_change channel=3 control=1 value=63 time=0
EXTRACT: control_change channel=6 control=64 value=127 time=0
EXTRACT: control_change channel=3 control=1 value=70 time=0.015046308333333331
EXTRACT: control_change channel=3 control=1 value=73 time=0.017361124999999998
EXTRACT: control_change channel=3 control=1 value=76 time=0.017361124999999998
EXTRACT: control_change channel=3 control=1 value=80 time=0.015046308333333331
EXTRACT: note_on channel=1 note=33 velocity=0 time=0.049768558333333324
EXTRACT: control_change channel=3 control=1 value=78 time=0.01967594166666666
EXTRACT: control_change channel=2 control=64 value=127 time=0.03356484166666666
EXTRACT: note_on channel=0 note=52 velocity=74 time=0.0011574083333333331
EXTRACT: note_on channel=0 note=57 velocity=61 time=0
EXTRACT: note_on channel=1 note=33 velocity=89 time=0
EXTRACT: note_on channel=9 note=36 velocity=100 time=0
EXTRACT: note_on channel=9 note=42 velocity=106 time=0
EXTRACT: note_on channel=9 note=54 velocity=116 time=0
EXTRACT: note_on channel=9 note=36 velocity=0 time=0.011574083333333332
EXTRACT: note_on channel=9 note=42 velocity=0 time=0
EXTRACT: note_on channel=9 note=54 velocity=0 time=0
EXTRACT: control_change channel=3 control=1 value=75 time=0.023148166666666664
EXTRACT: note_on channel=0 note=45 velocity=0 time=0.015046308333333331
EXTRACT: note_on channel=0 note=57 velocity=0 time=0.04629633333333333
EXTRACT: control_change channel=3 control=1 value=72 time=0.008101858333333331
EXTRACT: note_on channel=0 note=52 velocity=0 time=0.0046296333333333325
EXTRACT: control_change channel=3 control=1 value=70 time=0.03703706666666666
EXTRACT: control_change channel=3 control=1 value=68 time=0.034722249999999996
EXTRACT: control_change channel=3 control=1 value=66 time=0.034722249999999996
EXTRACT: note_on channel=1 note=33 velocity=0 time=0.010416674999999999
EXTRACT: control_change channel=3 control=1 value=63 time=0.020833349999999997
EXTRACT: note_on channel=0 note=45 velocity=81 time=0.031250024999999994
EXTRACT: note_on channel=0 note=52 velocity=76 time=0
EXTRACT: note_on channel=0 note=57 velocity=79 time=0
EXTRACT: note_on channel=1 note=33 velocity=97 time=0
EXTRACT: note_on channel=9 note=41 velocity=109 time=0
EXTRACT: control_change channel=3 control=1 value=58 time=0.0034722249999999994
EXTRACT: note_on channel=9 note=41 velocity=0 time=0.008101858333333331
EXTRACT: control_change channel=3 control=1 value=55 time=0.006944449999999999
EXTRACT: control_change channel=3 control=1 value=50 time=0.034722249999999996
EXTRACT: control_change channel=3 control=1 value=47 time=0.015046308333333331
EXTRACT: control_change channel=3 control=1 value=43 time=0.034722249999999996
EXTRACT: control_change channel=3 control=1 value=41 time=0.015046308333333331
EXTRACT: control_change channel=3 control=1 value=36 time=0.034722249999999996
EXTRACT: note_on channel=0 note=57 velocity=0 time=0.0023148166666666662
EXTRACT: note_on channel=0 note=52 velocity=0 time=0.010416674999999999
EXTRACT: control_change channel=3 control=1 value=33 time=0.0023148166666666662
EXTRACT: control_change channel=3 control=1 value=30 time=0.017361124999999998
EXTRACT: control_change channel=3 control=1 value=26 time=0.017361124999999998
EXTRACT: note_on channel=1 note=33 velocity=0 time=0.005787041666666666
EXTRACT: control_change channel=3 control=1 value=22 time=0.010416674999999999
EXTRACT: control_change channel=3 control=1 value=16 time=0.017361124999999998
EXTRACT: control_change channel=3 control=1 value=10 time=0.017361124999999998
EXTRACT: control_change channel=3 control=1 value=4 time=0.015046308333333331
EXTRACT: note_on channel=0 note=52 velocity=50 time=0.009259266666666665
EXTRACT: note_on channel=0 note=57 velocity=50 time=0
EXTRACT: note_on channel=1 note=33 velocity=92 time=0
EXTRACT: note_on channel=9 note=36 velocity=104 time=0
EXTRACT: note_on channel=9 note=36 velocity=0 time=0.011574083333333332
EXTRACT: note_on channel=3 note=64 velocity=0 time=0.011574083333333332
EXTRACT: control_change channel=3 control=1 value=2 time=0.0023148166666666662
EXTRACT: control_change channel=3 control=1 value=0 time=0.015046308333333331
EXTRACT: note_on channel=0 note=52 velocity=0 time=0.07175931666666666
EXTRACT: note_on channel=0 note=57 velocity=0 time=0.023148166666666664
EXTRACT: note_on channel=6 note=45 velocity=0 time=0.0011574083333333331
EXTRACT: note_on channel=1 note=33 velocity=0 time=0.08680562499999998
EXTRACT: control_change channel=3 control=1 value=1 time=0.050925966666666656
EXTRACT: note_on channel=0 note=52 velocity=69 time=0.0034722249999999994
EXTRACT: note_on channel=0 note=57 velocity=55 time=0
EXTRACT: note_on channel=1 note=33 velocity=90 time=0
EXTRACT: note_on channel=6 note=45 velocity=74 time=0
EXTRACT: note_on channel=9 note=42 velocity=108 time=0
EXTRACT: note_on channel=9 note=54 velocity=116 time=0
EXTRACT: note_on channel=6 note=52 velocity=0 time=0.011574083333333332
EXTRACT: note_on channel=9 note=42 velocity=0 time=0
EXTRACT: note_on channel=9 note=54 velocity=0 time=0
EXTRACT: note_on channel=4 note=64 velocity=0 time=0.07175931666666666
EXTRACT: note_on channel=0 note=52 velocity=0 time=0.0023148166666666662
EXTRACT: note_on channel=0 note=57 velocity=0 time=0.008101858333333331
EXTRACT: control_change channel=3 control=1 value=2 time=0.01851853333333333
EXTRACT: note_on channel=4 note=52 velocity=0 time=0
EXTRACT: note_on channel=1 note=33 velocity=0 time=0.09490748333333332
EXTRACT: control_change channel=3 control=1 value=3 time=0.023148166666666664
EXTRACT: note_on channel=0 note=52 velocity=84 time=0.04745374166666666
EXTRACT: note_on channel=0 note=57 velocity=87 time=0
EXTRACT: note_on channel=1 note=33 velocity=89 time=0
EXTRACT: note_on channel=6 note=52 velocity=76 time=0
EXTRACT: note_on channel=9 note=36 velocity=109 time=0
EXTRACT: note_on channel=9 note=40 velocity=104 time=0
EXTRACT: note_on channel=9 note=36 velocity=0 time=0.011574083333333332
EXTRACT: note_on channel=9 note=40 velocity=0 time=0
EXTRACT: note_on channel=6 note=57 velocity=0 time=0.024305574999999996
EXTRACT: control_change channel=3 control=1 value=4 time=0.032407433333333326
EXTRACT: note_on channel=2 note=57 velocity=0 time=0.06250004999999999
EXTRACT: note_on channel=0 note=57 velocity=0 time=0.0023148166666666662
EXTRACT: note_on channel=0 note=52 velocity=0 time=0.011574083333333332
EXTRACT: note_on channel=2 note=59 velocity=0 time=0.01851853333333333
EXTRACT: note_on channel=2 note=64 velocity=0 time=0.01967594166666666
EXTRACT: control_change channel=3 control=1 value=5 time=0.0023148166666666662
EXTRACT: note_on channel=6 note=59 velocity=0 time=0.01851853333333333
EXTRACT: note_on channel=2 note=52 velocity=0 time=0.0034722249999999994
EXTRACT: note_on channel=0 note=45 velocity=0 time=0.0023148166666666662
EXTRACT: note_on channel=2 note=45 velocity=0 time=0.0046296333333333325
EXTRACT: note_on channel=1 note=33 velocity=0 time=0.0034722249999999994
EXTRACT: note_on channel=6 note=33 velocity=0 time=0.013888899999999997
EXTRACT: note_on channel=0 note=52 velocity=50 time=0.04629633333333333
EXTRACT: note_on channel=0 note=57 velocity=50 time=0
EXTRACT: note_on channel=1 note=33 velocity=92 time=0
EXTRACT: note_on channel=6 note=57 velocity=74 time=0
EXTRACT: note_on channel=9 note=54 velocity=50 time=0
EXTRACT: note_on channel=9 note=54 velocity=0 time=0.011574083333333332
EXTRACT: control_change channel=3 control=1 value=6 time=0.012731491666666664
EXTRACT: note_on channel=6 note=64 velocity=0 time=0.024305574999999996
EXTRACT: note_on channel=9 note=54 velocity=50 time=0.020833349999999997
EXTRACT: note_on channel=0 note=57 velocity=0 time=0.006944449999999999
EXTRACT: note_on channel=0 note=52 velocity=0 time=0.0034722249999999994
EXTRACT: note_on channel=9 note=54 velocity=0 time=0.0011574083333333331
EXTRACT: note_on channel=0 note=52 velocity=69 time=0.05787041666666665
EXTRACT: note_on channel=0 note=57 velocity=65 time=0
EXTRACT: note_on channel=9 note=54 velocity=61 time=0
EXTRACT: control_change channel=3 control=1 value=7 time=0.0023148166666666662
EXTRACT: note_on channel=9 note=54 velocity=0 time=0.009259266666666665
EXTRACT: note_on channel=1 note=33 velocity=0 time=0.041666699999999994
EXTRACT: note_on channel=0 note=57 velocity=0 time=0.012731491666666664
EXTRACT: note_on channel=9 note=54 velocity=95 time=0.0034722249999999994
EXTRACT: note_on channel=9 note=54 velocity=0 time=0.011574083333333332
EXTRACT: note_on channel=0 note=52 velocity=0 time=0.0023148166666666662
EXTRACT: control_change channel=3 control=1 value=8 time=0.034722249999999996
EXTRACT: note_on channel=0 note=45 velocity=88 time=0.020833349999999997
EXTRACT: note_on channel=0 note=52 velocity=81 time=0
EXTRACT: note_on channel=0 note=57 velocity=85 time=0
EXTRACT: note_on channel=1 note=33 velocity=85 time=0
EXTRACT: note_on channel=2 note=45 velocity=52 time=0
EXTRACT: note_on channel=2 note=52 velocity=59 time=0
EXTRACT: note_on channel=2 note=57 velocity=70 time=0
EXTRACT: note_on channel=2 note=59 velocity=75 time=0
EXTRACT: note_on channel=2 note=64 velocity=74 time=0
EXTRACT: note_on channel=3 note=63 velocity=87 time=0
EXTRACT: note_on channel=4 note=51 velocity=88 time=0
EXTRACT: note_on channel=4 note=63 velocity=92 time=0
EXTRACT: note_on channel=4 note=66 velocity=85 time=0
EXTRACT: note_on channel=6 note=33 velocity=71 time=0
EXTRACT: note_on channel=6 note=59 velocity=90 time=0
EXTRACT: note_on channel=6 note=64 velocity=83 time=0
EXTRACT: note_on channel=9 note=36 velocity=101 time=0
EXTRACT: note_on channel=9 note=41 velocity=109 time=0
EXTRACT: note_on channel=9 note=54 velocity=100 time=0
EXTRACT: note_on channel=9 note=36 velocity=0 time=0.011574083333333332
EXTRACT: note_on channel=9 note=41 velocity=0 time=0
EXTRACT: note_on channel=9 note=54 velocity=0 time=0
EXTRACT: control_change channel=3 control=1 value=9 time=0.08449080833333332
EXTRACT: note_on channel=0 note=57 velocity=0 time=0.049768558333333324
EXTRACT: note_on channel=0 note=52 velocity=0 time=0.013888899999999997
EXTRACT: control_change channel=3 control=1 value=10 time=0.05439819166666666
EXTRACT: note_on channel=4 note=51 velocity=0 time=0.013888899999999997
EXTRACT: note_on channel=1 note=33 velocity=0 time=0.009259266666666665
EXTRACT: note_on channel=4 note=63 velocity=0 time=0.005787041666666666
EXTRACT: note_on channel=4 note=66 velocity=0 time=0.02199075833333333
EXTRACT: note_on channel=0 note=52 velocity=51 time=0.012731491666666664
EXTRACT: note_on channel=0 note=57 velocity=50 time=0
EXTRACT: note_on channel=1 note=33 velocity=89 time=0
EXTRACT: note_on channel=3 note=64 velocity=84 time=0
EXTRACT: note_on channel=4 note=52 velocity=85 time=0
EXTRACT: note_on channel=4 note=64 velocity=90 time=0
EXTRACT: note_on channel=4 note=68 velocity=82 time=0
EXTRACT: note_on channel=3 note=63 velocity=0 time=0.0023148166666666662
EXTRACT: control_change channel=3 control=1 value=11 time=0.049768558333333324
EXTRACT: note_on channel=0 note=52 velocity=0 time=0.04050929166666666
EXTRACT: note_on channel=0 note=57 velocity=0 time=0.01967594166666666
EXTRACT: note_on channel=6 note=45 velocity=0 time=0.032407433333333326
EXTRACT: control_change channel=3 control=1 value=12 time=0.024305574999999996
EXTRACT: note_on channel=1 note=33 velocity=0 time=0.041666699999999994
EXTRACT: note_on channel=6 note=59 velocity=0 time=0.017361124999999998
EXTRACT: note_on channel=6 note=64 velocity=0 time=0.012731491666666664
EXTRACT: note_on channel=6 note=57 velocity=0 time=0.0034722249999999994
EXTRACT: note_on channel=0 note=52 velocity=70 time=0.03356484166666666
EXTRACT: note_on channel=0 note=57 velocity=67 time=0
EXTRACT: note_on channel=1 note=33 velocity=89 time=0
EXTRACT: note_on channel=6 note=45 velocity=58 time=0
EXTRACT: note_on channel=9 note=36 velocity=99 time=0
EXTRACT: note_on channel=9 note=42 velocity=111 time=0
EXTRACT: note_on channel=9 note=54 velocity=116 time=0
EXTRACT: control_change channel=3 control=1 value=13 time=0.008101858333333331
EXTRACT: note_on channel=9 note=36 velocity=0 time=0.0034722249999999994
EXTRACT: note_on channel=9 note=42 velocity=0 time=0
EXTRACT: note_on channel=9 note=54 velocity=0 time=0
EXTRACT: note_on channel=0 note=45 velocity=0 time=0.08101858333333332
EXTRACT: note_on channel=0 note=57 velocity=0 time=0.008101858333333331
EXTRACT: note_on channel=0 note=52 velocity=0 time=0.0034722249999999994
EXTRACT: control_change channel=3 control=1 value=14 time=0.01967594166666666
EXTRACT: note_on channel=1 note=33 velocity=0 time=0.09837970833333332
EXTRACT: control_change channel=3 control=1 value=15 time=0.01967594166666666
EXTRACT: note_on channel=0 note=45 velocity=94 time=0.03587965833333333
EXTRACT: note_on channel=0 note=52 velocity=85 time=0
EXTRACT: note_on channel=0 note=57 velocity=92 time=0
EXTRACT: note_on channel=1 note=33 velocity=92 time=0
EXTRACT: note_on channel=3 note=63 velocity=92 time=0
EXTRACT: note_on channel=4 note=51 velocity=87 time=0
EXTRACT: note_on channel=4 note=63 velocity=83 time=0
EXTRACT: note_on channel=4 note=66 velocity=87 time=0
EXTRACT: note_on channel=6 note=57 velocity=75 time=0
EXTRACT: note_on channel=6 note=59 velocity=78 time=0
EXTRACT: note_on channel=6 note=64 velocity=74 time=0
EXTRACT: note_on channel=9 note=41 velocity=109 time=0
EXTRACT: note_on channel=4 note=68 velocity=0 time=0.0034722249999999994
EXTRACT: note_on channel=3 note=64 velocity=0 time=0.0023148166666666662
EXTRACT: note_on channel=4 note=64 velocity=0 time=0.0034722249999999994
EXTRACT: note_on channel=9 note=41 velocity=0 time=0.0023148166666666662
EXTRACT: note_on channel=4 note=52 velocity=0 time=0.053240783333333326
EXTRACT: control_change channel=3 control=1 value=16 time=0.015046308333333331
EXTRACT: note_on channel=0 note=52 velocity=0 time=0.050925966666666656
EXTRACT: note_on channel=0 note=57 velocity=0 time=0
EXTRACT: note_on channel=1 note=33 velocity=0 time=0.06481486666666665
EXTRACT: control_change channel=3 control=1 value=17 time=0.0011574083333333331
EXTRACT: note_on channel=4 note=66 velocity=0 time=0.031250024999999994
EXTRACT: note_on channel=4 note=63 velocity=0 time=0.01851853333333333
EXTRACT: note_on channel=3 note=63 velocity=0 time=0.008101858333333331
EXTRACT: note_on channel=0 note=52 velocity=50 time=0.023148166666666664
EXTRACT: note_on channel=0 note=57 velocity=50 time=0
EXTRACT: note_on channel=1 note=33 velocity=97 time=0
EXTRACT: note_on channel=3 note=64 velocity=72 time=0
EXTRACT: note_on channel=4 note=51 velocity=0 time=0
EXTRACT: note_on channel=4 note=52 velocity=81 time=0
EXTRACT: note_on channel=4 note=64 velocity=82 time=0
EXTRACT: note_on channel=4 note=68 velocity=74 time=0
EXTRACT: note_on channel=9 note=36 velocity=107 time=0
EXTRACT: note_on channel=9 note=36 velocity=0 time=0.011574083333333332
EXTRACT: control_change channel=3 control=1 value=18 time=0.024305574999999996
EXTRACT: note_on channel=0 note=52 velocity=0 time=0.050925966666666656
EXTRACT: note_on channel=0 note=57 velocity=0 time=0.026620391666666663
EXTRACT: control_change channel=3 control=1 value=19 time=0.03935188333333332
EXTRACT: note_on channel=1 note=33 velocity=0 time=0.05208337499999999
EXTRACT: note_on channel=4 note=52 velocity=0 time=0.0034722249999999994
EXTRACT: note_on channel=4 note=64 velocity=0 time=0
EXTRACT: note_on channel=3 note=64 velocity=0 time=0.0023148166666666662
EXTRACT: note_on channel=4 note=68 velocity=0 time=0.03935188333333332
EXTRACT: control_change channel=3 control=1 value=20 time=0.01851853333333333
EXTRACT: note_on channel=0 note=52 velocity=70 time=0.009259266666666665
EXTRACT: note_on channel=0 note=57 velocity=57 time=0
EXTRACT: note_on channel=1 note=33 velocity=81 time=0
EXTRACT: note_on channel=3 note=64 velocity=84 time=0
EXTRACT: note_on channel=4 note=52 velocity=94 time=0
EXTRACT: note_on channel=4 note=64 velocity=85 time=0
EXTRACT: note_on channel=4 note=68 velocity=94 time=0
EXTRACT: note_on channel=9 note=42 velocity=106 time=0
EXTRACT: note_on channel=9 note=54 velocity=116 time=0
EXTRACT: note_on channel=9 note=42 velocity=0 time=0.011574083333333332
EXTRACT: note_on channel=9 note=54 velocity=0 time=0
EXTRACT: note_on channel=0 note=52 velocity=0 time=0.07870376666666665
EXTRACT: note_on channel=0 note=57 velocity=0 time=0.0034722249999999994
EXTRACT: control_change channel=3 control=1 value=21 time=0.013888899999999997
EXTRACT: note_on channel=1 note=33 velocity=0 time=0.11111119999999998
EXTRACT: control_change channel=3 control=1 value=22 time=0.006944449999999999
EXTRACT: note_on channel=0 note=52 velocity=88 time=0.05208337499999999
EXTRACT: note_on channel=0 note=57 velocity=96 time=0
EXTRACT: note_on channel=1 note=33 velocity=94 time=0
EXTRACT: note_on channel=9 note=36 velocity=110 time=0
EXTRACT: note_on channel=9 note=40 velocity=107 time=0
EXTRACT: note_on channel=9 note=36 velocity=0 time=0.011574083333333332
EXTRACT: note_on channel=9 note=40 velocity=0 time=0
EXTRACT: note_on channel=6 note=52 velocity=0 time=0.009259266666666665
EXTRACT: control_change channel=3 control=1 value=23 time=0.042824108333333326
EXTRACT: note_on channel=6 note=57 velocity=0 time=0.06944449999999999
EXTRACT: note_on channel=6 note=59 velocity=0 time=0.0046296333333333325
EXTRACT: note_on channel=0 note=52 velocity=0 time=0.006944449999999999
EXTRACT: note_on channel=6 note=45 velocity=0 time=0.006944449999999999
EXTRACT: note_on channel=0 note=57 velocity=0 time=0.0023148166666666662
EXTRACT: note_on channel=4 note=68 velocity=0 time=0.005787041666666666
EXTRACT: note_on channel=6 note=64 velocity=0 time=0.011574083333333332
EXTRACT: note_on channel=10 note=57 velocity=0 time=0.005787041666666666
EXTRACT: control_change channel=3 control=1 value=24 time=0.0034722249999999994
EXTRACT: note_on channel=2 note=57 velocity=0 time=0.0046296333333333325
EXTRACT: note_on channel=3 note=64 velocity=0 time=0.0023148166666666662
EXTRACT: note_on channel=2 note=59 velocity=0 time=0.011574083333333332
EXTRACT: note_on channel=4 note=64 velocity=0 time=0.0046296333333333325
EXTRACT: note_on channel=4 note=52 velocity=0 time=0
EXTRACT: note_on channel=6 note=33 velocity=0 time=0.008101858333333331
EXTRACT: note_on channel=1 note=33 velocity=0 time=0.0023148166666666662
EXTRACT: note_on channel=2 note=52 velocity=0 time=0.008101858333333331
EXTRACT: note_on channel=15 note=57 velocity=0 time=0.0034722249999999994
EXTRACT: note_on channel=15 note=61 velocity=0 time=0.009259266666666665
EXTRACT: note_on channel=10 note=59 velocity=0 time=0.03703706666666666
EXTRACT: note_on channel=0 note=52 velocity=57 time=0.005787041666666666
EXTRACT: note_on channel=0 note=57 velocity=50 time=0
EXTRACT: note_on channel=1 note=33 velocity=102 time=0
EXTRACT: note_on channel=3 note=64 velocity=71 time=0
EXTRACT: note_on channel=4 note=52 velocity=91 time=0
EXTRACT: note_on channel=4 note=64 velocity=72 time=0
EXTRACT: note_on channel=4 note=68 velocity=74 time=0
EXTRACT: note_on channel=9 note=54 velocity=50 time=0
EXTRACT: note_on channel=2 note=64 velocity=0 time=0.0011574083333333331
EXTRACT: note_on channel=0 note=45 velocity=0 time=0.0011574083333333331
EXTRACT: note_on channel=9 note=54 velocity=0 time=0.009259266666666665
EXTRACT: note_on channel=10 note=64 velocity=0 time=0.0046296333333333325
EXTRACT: control_change channel=3 control=1 value=25 time=0.0034722249999999994
EXTRACT: note_on channel=2 note=45 velocity=0 time=0.015046308333333331
EXTRACT: note_on channel=15 note=64 velocity=0 time=0.0034722249999999994
EXTRACT: note_on channel=15 note=45 velocity=0 time=0.0011574083333333331
EXTRACT: note_on channel=10 note=45 velocity=0 time=0.015046308333333331
EXTRACT: note_on channel=9 note=54 velocity=54 time=0.015046308333333331
EXTRACT: note_on channel=9 note=54 velocity=0 time=0.011574083333333332
EXTRACT: note_on channel=0 note=52 velocity=0 time=0.025462983333333328
EXTRACT: note_on channel=0 note=57 velocity=0 time=0
EXTRACT: control_change channel=3 control=1 value=26 time=0.028935208333333327
EXTRACT: control_change channel=3 control=1 value=27 time=0
EXTRACT: note_on channel=9 note=54 velocity=68 time=0.0034722249999999994
EXTRACT: note_on channel=9 note=54 velocity=0 time=0.011574083333333332
EXTRACT: control_change channel=3 control=1 value=42 time=0.0034722249999999994
EXTRACT: control_change channel=15 control=64 value=0 time=0.006944449999999999
EXTRACT: control_change channel=3 control=1 value=58 time=0.010416674999999999
EXTRACT: control_change channel=3 control=1 value=72 time=0.015046308333333331
EXTRACT: control_change channel=10 control=64 value=0 time=0.0011574083333333331
EXTRACT: note_on channel=7 note=81 velocity=0 time=0.006944449999999999
EXTRACT: note_on channel=7 note=83 velocity=0 time=0
EXTRACT: note_on channel=7 note=88 velocity=0 time=0.005787041666666666
EXTRACT: control_change channel=3 control=1 value=83 time=0.0034722249999999994
EXTRACT: note_on channel=9 note=54 velocity=76 time=0.0046296333333333325
EXTRACT: note_on channel=1 note=33 velocity=0 time=0.010416674999999999
EXTRACT: note_on channel=9 note=54 velocity=0 time=0.0011574083333333331
EXTRACT: control_change channel=3 control=1 value=94 time=0.0011574083333333331
EXTRACT: control_change channel=0 control=64 value=0 time=0.008101858333333331
EXTRACT: control_change channel=3 control=1 value=105 time=0.006944449999999999
EXTRACT: control_change channel=2 control=64 value=0 time=0.0034722249999999994
EXTRACT: control_change channel=3 control=1 value=110 time=0.013888899999999997
EXTRACT: control_change channel=3 control=1 value=116 time=0.017361124999999998
EXTRACT: control_change channel=6 control=64 value=0 time=0
EXTRACT: control_change channel=0 control=64 value=0 time=0.006944449999999999
EXTRACT: control_change channel=2 control=64 value=0 time=0
EXTRACT: control_change channel=3 control=1 value=119 time=0
EXTRACT: note_on channel=3 note=64 velocity=0 time=0
EXTRACT: note_on channel=4 note=52 velocity=0 time=0
EXTRACT: note_on channel=4 note=64 velocity=0 time=0
EXTRACT: note_on channel=4 note=68 velocity=0 time=0
EXTRACT: control_change channel=6 control=64 value=0 time=0
EXTRACT: control_change channel=8 control=1 value=0 time=0
EXTRACT: control_change channel=9 control=0 value=0 time=0
EXTRACT: control_change channel=9 control=32 value=0 time=0
EXTRACT: control_change channel=9 control=93 value=0 time=0
EXTRACT: control_change channel=9 control=91 value=46 time=0
EXTRACT: control_change channel=9 control=7 value=127 time=0
EXTRACT: control_change channel=9 control=10 value=64 time=0
EXTRACT: control_change channel=9 control=11 value=127 time=0
EXTRACT: control_change channel=10 control=64 value=0 time=0
EXTRACT: control_change channel=10 control=1 value=0 time=0
EXTRACT: control_change channel=15 control=64 value=0 time=0
