EXTRACT: sysex data=(65,16,66,18,64,0,127,0,65) time=0
EXTRACT: sysex data=(65,16,69,18,16,1,0,5,10,10,10,10,10,10,0,0,4,4,4,7,4,4,4,0,20,16,20,21,21,20,0,0,16,21,17,21,21,21,20,0,10,8,26,10,10,18,0,0,0,2,20,4,2,2,20,0,0,0,0,0,0,0,0,0,0,0,0,0,0,0,0,12) time=0
EXTRACT: sysex data=(65,16,69,18,16,0,0,40,99,41,32,77,105,100,105,32,72,105,116,115,97) time=0
EXTRACT: sysex data=(65,16,69,18,16,0,0,76,111,118,101,32,84,104,101,32,87,97,121,32,89,111,117,32,76,105,101,32,17) time=0
EXTRACT: program_change channel=3 program=64 time=0
EXTRACT: control_change channel=3 control=7 value=127 time=0
EXTRACT: control_change channel=3 control=10 value=64 time=0
EXTRACT: control_change channel=3 control=121 value=0 time=0
EXTRACT: program_change channel=1 program=53 time=0
EXTRACT: control_change channel=1 control=7 value=82 time=0
EXTRACT: control_change channel=1 control=10 value=40 time=0
EXTRACT: control_change channel=1 control=121 value=0 time=0
EXTRACT: program_change channel=2 program=38 time=0
EXTRACT: control_change channel=2 control=7 value=108 time=0
EXTRACT: control_change channel=2 control=10 value=64 time=0
EXTRACT: control_change channel=2 control=121 value=0 time=0
EXTRACT: program_change channel=0 program=0 time=0
EXTRACT: control_change channel=0 control=7 value=90 time=0
EXTRACT: control_change channel=0 control=10 value=55 time=0
EXTRACT: control_change channel=0 control=121 value=0 time=0
EXTRACT: program_change channel=4 program=25 time=0
EXTRACT: control_change channel=4 control=7 value=85 time=0
EXTRACT: control_change channel=4 control=10 value=75 time=0
EXTRACT: control_change channel=4 control=121 value=0 time=0
EXTRACT: program_change channel=5 program=25 time=0
EXTRACT: control_change channel=5 control=7 value=84 time=0
EXTRACT: control_change channel=5 control=10 value=33 time=0
EXTRACT: control_change channel=5 control=121 value=0 time=0
EXTRACT: program_change channel=6 program=26 time=0
EXTRACT: control_change channel=6 control=7 value=64 time=0
EXTRACT: control_change channel=6 control=10 value=84 time=0
EXTRACT: control_change channel=6 control=121 value=0 time=0
EXTRACT: program_change channel=7 program=29 time=0
EXTRACT: control_change channel=7 control=7 value=70 time=0
EXTRACT: control_change channel=7 control=10 value=44 time=0
EXTRACT: control_change channel=7 control=121 value=0 time=0
EXTRACT: program_change channel=8 program=48 time=0
EXTRACT: control_change channel=8 control=7 value=79 time=0
EXTRACT: control_change channel=8 control=10 value=62 time=0
EXTRACT: control_change channel=8 control=121 value=0 time=0
EXTRACT: program_change channel=10 program=50 time=0
EXTRACT: control_change channel=10 control=7 value=90 time=0
EXTRACT: control_change channel=10 control=10 value=66 time=0
EXTRACT: control_change channel=10 control=121 value=0 time=0
EXTRACT: program_change channel=9 program=25 time=0
EXTRACT: control_change channel=9 control=7 value=110 time=0
EXTRACT: control_change channel=9 control=10 value=64 time=0
EXTRACT: control_change channel=9 control=121 value=0 time=0
EXTRACT: control_change channel=3 control=91 value=60 time=0.074712625
EXTRACT: control_change channel=1 control=91 value=40 time=0
EXTRACT: control_change channel=2 control=91 value=0 time=0
EXTRACT: control_change channel=0 control=91 value=50 time=0
EXTRACT: control_change channel=4 control=91 value=40 time=0
EXTRACT: control_change channel=5 control=91 value=40 time=0
EXTRACT: control_change channel=6 control=91 value=50 time=0
EXTRACT: control_change channel=7 control=91 value=60 time=0
EXTRACT: control_change channel=8 control=91 value=30 time=0
EXTRACT: control_change channel=10 control=91 value=60 time=0
EXTRACT: control_change channel=9 control=91 value=44 time=0
EXTRACT: control_change channel=3 control=93 value=30 time=0.614942375
EXTRACT: control_change channel=1 control=93 value=20 time=0
EXTRACT: control_change channel=2 control=93 value=0 time=0
EXTRACT: control_change channel=0 control=93 value=30 time=0
EXTRACT: control_change channel=4 control=93 value=10 time=0
EXTRACT: control_change channel=5 control=93 value=10 time=0
EXTRACT: control_change channel=6 control=93 value=10 time=0
EXTRACT: control_change channel=7 control=93 value=10 time=0
EXTRACT: control_change channel=8 control=93 value=20 time=0
EXTRACT: control_change channel=10 control=93 value=0 time=0
EXTRACT: control_change channel=9 control=93 value=0 time=0
EXTRACT: control_change channel=3 control=94 value=20 time=0.09195400000000001
EXTRACT: control_change channel=1 control=94 value=0 time=0
EXTRACT: control_change channel=2 control=94 value=0 time=0
EXTRACT: control_change channel=0 control=94 value=10 time=0
EXTRACT: control_change channel=4 control=94 value=10 time=0
EXTRACT: control_change channel=5 control=94 value=10 time=0
EXTRACT: control_change channel=6 control=94 value=10 time=0
EXTRACT: control_change channel=7 control=94 value=20 time=0
EXTRACT: control_change channel=8 control=94 value=0 time=0
EXTRACT: control_change channel=10 control=94 value=0 time=0
EXTRACT: control_change channel=9 control=94 value=0 time=0
EXTRACT: control_change channel=3 control=11 value=127 time=0.12068962500000001
EXTRACT: control_change channel=1 control=11 value=127 time=0
EXTRACT: control_change channel=2 control=11 value=127 time=0
EXTRACT: control_change channel=0 control=11 value=127 time=0
EXTRACT: control_change channel=4 control=11 value=127 time=0
EXTRACT: control_change channel=5 control=11 value=127 time=0
EXTRACT: control_change channel=6 control=11 value=127 time=0
EXTRACT: control_change channel=7 control=11 value=127 time=0
EXTRACT: control_change channel=8 control=11 value=127 time=0
EXTRACT: control_change channel=10 control=11 value=127 time=0
EXTRACT: control_change channel=9 control=11 value=127 time=0
EXTRACT: control_change channel=3 control=1 value=0 time=0.14367812500000002
EXTRACT: control_change channel=1 control=1 value=0 time=0
EXTRACT: control_change channel=2 control=1 value=0 time=0
EXTRACT: control_change channel=0 control=1 value=0 time=0
EXTRACT: control_change channel=4 control=1 value=0 time=0
EXTRACT: control_change channel=5 control=1 value=0 time=0
EXTRACT: control_change channel=6 control=1 value=0 time=0
EXTRACT: control_change channel=7 control=1 value=0 time=0
EXTRACT: control_change channel=8 control=1 value=0 time=0
EXTRACT: control_change channel=10 control=1 value=0 time=0
EXTRACT: control_change channel=9 control=1 value=0 time=0
EXTRACT: control_change channel=3 control=64 value=0 time=0.06321837500000001
EXTRACT: control_change channel=1 control=64 value=0 time=0
EXTRACT: control_change channel=2 control=64 value=0 time=0
EXTRACT: control_change channel=0 control=64 value=0 time=0
EXTRACT: control_change channel=4 control=64 value=0 time=0
EXTRACT: control_change channel=5 control=64 value=0 time=0
EXTRACT: control_change channel=6 control=64 value=0 time=0
EXTRACT: control_change channel=7 control=64 value=0 time=0
EXTRACT: control_change channel=8 control=64 value=0 time=0
EXTRACT: control_change channel=10 control=64 value=0 time=0
EXTRACT: control_change channel=9 control=64 value=0 time=0
EXTRACT: pitchwheel channel=3 pitch=0 time=0.05747125
EXTRACT: pitchwheel channel=1 pitch=0 time=0
EXTRACT: pitchwheel channel=2 pitch=0 time=0
EXTRACT: pitchwheel channel=0 pitch=0 time=0
EXTRACT: pitchwheel channel=4 pitch=0 time=0
EXTRACT: pitchwheel channel=5 pitch=0 time=0
EXTRACT: pitchwheel channel=6 pitch=0 time=0
EXTRACT: pitchwheel channel=7 pitch=0 time=0
EXTRACT: pitchwheel channel=8 pitch=0 time=0
EXTRACT: pitchwheel channel=10 pitch=0 time=0
EXTRACT: pitchwheel channel=9 pitch=0 time=0
EXTRACT: control_change channel=3 control=65 value=0 time=0.086206875
EXTRACT: control_change channel=1 control=65 value=0 time=0
EXTRACT: control_change channel=2 control=65 value=0 time=0
EXTRACT: control_change channel=0 control=65 value=0 time=0
EXTRACT: control_change channel=4 control=65 value=0 time=0
EXTRACT: control_change channel=5 control=65 value=0 time=0
EXTRACT: control_change channel=6 control=65 value=0 time=0
EXTRACT: control_change channel=7 control=65 value=0 time=0
EXTRACT: control_change channel=8 control=65 value=0 time=0
EXTRACT: control_change channel=10 control=65 value=0 time=0
EXTRACT: control_change channel=9 control=65 value=0 time=0
EXTRACT: control_change channel=3 control=5 value=0 time=0.074712625
EXTRACT: control_change channel=1 control=5 value=0 time=0
EXTRACT: control_change channel=2 control=5 value=0 time=0
EXTRACT: control_change channel=0 control=5 value=0 time=0
EXTRACT: control_change channel=4 control=5 value=0 time=0
EXTRACT: control_change channel=5 control=5 value=0 time=0
EXTRACT: control_change channel=6 control=5 value=0 time=0
EXTRACT: control_change channel=7 control=5 value=0 time=0
EXTRACT: control_change channel=8 control=5 value=0 time=0
EXTRACT: control_change channel=10 control=5 value=0 time=0
EXTRACT: control_change channel=9 control=5 value=0 time=0
EXTRACT: note_on channel=9 note=44 velocity=90 time=0.741379125
EXTRACT: note_on channel=9 note=44 velocity=0 time=0.0057471250000000005
EXTRACT: note_on channel=9 note=44 velocity=110 time=0.683907875
EXTRACT: note_on channel=9 note=44 velocity=0 time=0.0057471250000000005
EXTRACT: note_on channel=9 note=46 velocity=70 time=0.683907875
EXTRACT: note_on channel=9 note=46 velocity=0 time=0.0057471250000000005
EXTRACT: note_on channel=9 note=44 velocity=100 time=0.683907875
EXTRACT: note_on channel=9 note=44 velocity=0 time=0.0057471250000000005
EXTRACT: note_on channel=3 note=67 velocity=87 time=0
EXTRACT: note_on channel=3 note=67 velocity=0 time=0.31034475
EXTRACT: note_on channel=3 note=67 velocity=96 time=0
EXTRACT: note_on channel=3 note=67 velocity=0 time=0.31034475
EXTRACT: note_on channel=3 note=65 velocity=96 time=0
EXTRACT: note_on channel=3 note=65 velocity=0 time=0.327586125
EXTRACT: note_on channel=3 note=74 velocity=91 time=0
EXTRACT: note_on channel=0 note=62 velocity=75 time=0
EXTRACT: note_on channel=0 note=55 velocity=74 time=0
EXTRACT: note_on channel=0 note=43 velocity=64 time=0
EXTRACT: note_on channel=0 note=67 velocity=69 time=0
EXTRACT: note_on channel=0 note=50 velocity=72 time=0.3448275
EXTRACT: note_on channel=3 note=74 velocity=0 time=0.23563212500000003
EXTRACT: note_on channel=0 note=55 velocity=0 time=0.051724125
EXTRACT: note_on channel=3 note=67 velocity=96 time=0
EXTRACT: note_on channel=0 note=55 velocity=72 time=0
EXTRACT: note_on channel=3 note=67 velocity=0 time=0.316091875
EXTRACT: note_on channel=3 note=65 velocity=87 time=0
EXTRACT: note_on channel=0 note=58 velocity=79 time=0
EXTRACT: note_on channel=0 note=62 velocity=0 time=0.28735625000000004
EXTRACT: note_on channel=0 note=55 velocity=0 time=0.017241375000000003
EXTRACT: note_on channel=0 note=58 velocity=0 time=0
EXTRACT: note_on channel=3 note=65 velocity=0 time=0.0057471250000000005
EXTRACT: note_on channel=0 note=50 velocity=0 time=0.0057471250000000005
EXTRACT: note_on channel=0 note=67 velocity=0 time=0.017241375000000003
EXTRACT: note_on channel=3 note=74 velocity=89 time=0
EXTRACT: note_on channel=0 note=62 velocity=81 time=0
EXTRACT: note_on channel=0 note=67 velocity=81 time=0
EXTRACT: note_on channel=0 note=55 velocity=81 time=0
EXTRACT: note_on channel=0 note=43 velocity=0 time=0.011494250000000001
EXTRACT: note_on channel=0 note=43 velocity=64 time=0.33333325
EXTRACT: note_on channel=3 note=74 velocity=0 time=0.09770112500000001
EXTRACT: note_on channel=3 note=67 velocity=89 time=0
EXTRACT: note_on channel=0 note=50 velocity=75 time=0.17241375
EXTRACT: note_on channel=0 note=55 velocity=0 time=0.27011487500000003
EXTRACT: note_on channel=3 note=67 velocity=0 time=0.0057471250000000005
EXTRACT: note_on channel=3 note=65 velocity=87 time=0
EXTRACT: note_on channel=0 note=55 velocity=78 time=0
EXTRACT: note_on channel=0 note=55 velocity=0 time=0.327586125
EXTRACT: note_on channel=0 note=50 velocity=0 time=0.0057471250000000005
EXTRACT: note_on channel=0 note=58 velocity=74 time=0.011494250000000001
EXTRACT: note_on channel=0 note=63 velocity=67 time=0
EXTRACT: note_on channel=0 note=51 velocity=81 time=0
EXTRACT: note_on channel=0 note=43 velocity=0 time=0.011494250000000001
EXTRACT: note_on channel=0 note=67 velocity=0 time=0
EXTRACT: note_on channel=0 note=62 velocity=0 time=0.0057471250000000005
EXTRACT: note_on channel=3 note=65 velocity=0 time=0.281609125
EXTRACT: note_on channel=0 note=46 velocity=72 time=0.045977000000000004
EXTRACT: note_on channel=0 note=51 velocity=0 time=0.27011487500000003
EXTRACT: note_on channel=0 note=51 velocity=74 time=0.074712625
EXTRACT: note_on channel=0 note=63 velocity=0 time=0.27011487500000003
EXTRACT: note_on channel=0 note=58 velocity=0 time=0.0057471250000000005
EXTRACT: note_on channel=0 note=51 velocity=0 time=0.051724125
EXTRACT: note_on channel=0 note=63 velocity=73 time=0.017241375000000003
EXTRACT: note_on channel=0 note=58 velocity=79 time=0
EXTRACT: note_on channel=0 note=51 velocity=66 time=0
EXTRACT: note_on channel=3 note=58 velocity=82 time=0
EXTRACT: note_on channel=3 note=58 velocity=0 time=0.14367812500000002
EXTRACT: note_on channel=3 note=63 velocity=96 time=0
EXTRACT: note_on channel=0 note=46 velocity=0 time=0.28735625000000004
EXTRACT: note_on channel=3 note=63 velocity=0 time=0.017241375000000003
EXTRACT: note_on channel=3 note=63 velocity=96 time=0
EXTRACT: note_on channel=0 note=46 velocity=62 time=0
EXTRACT: note_on channel=0 note=51 velocity=0 time=0.316091875
EXTRACT: note_on channel=0 note=51 velocity=69 time=0.028735625
EXTRACT: note_on channel=0 note=58 velocity=0 time=0.2988505
EXTRACT: note_on channel=3 note=63 velocity=0 time=0.0057471250000000005
EXTRACT: note_on channel=3 note=63 velocity=96 time=0
EXTRACT: note_on channel=0 note=58 velocity=70 time=0
EXTRACT: note_on channel=0 note=51 velocity=0 time=0.27586200000000005
EXTRACT: note_on channel=0 note=46 velocity=0 time=0.0057471250000000005
EXTRACT: note_on channel=0 note=63 velocity=0 time=0.028735625
EXTRACT: note_on channel=0 note=58 velocity=0 time=0.011494250000000001
EXTRACT: note_on channel=0 note=46 velocity=79 time=0.022988500000000002
EXTRACT: note_on channel=0 note=53 velocity=76 time=0
EXTRACT: note_on channel=0 note=62 velocity=76 time=0
EXTRACT: note_on channel=3 note=63 velocity=0 time=0.21839075000000002
EXTRACT: note_on channel=0 note=53 velocity=0 time=0.09195400000000001
EXTRACT: note_on channel=3 note=62 velocity=81 time=0
EXTRACT: note_on channel=0 note=53 velocity=79 time=0
EXTRACT: note_on channel=3 note=62 velocity=0 time=0.12643675000000001
EXTRACT: note_on channel=3 note=62 velocity=96 time=0
EXTRACT: note_on channel=0 note=58 velocity=55 time=0.17241375
EXTRACT: note_on channel=3 note=62 velocity=0 time=0.28735625000000004
EXTRACT: note_on channel=0 note=58 velocity=0 time=0
EXTRACT: note_on channel=3 note=63 velocity=88 time=0
EXTRACT: note_on channel=0 note=58 velocity=64 time=0
EXTRACT: note_on channel=3 note=63 velocity=0 time=0.155172375
EXTRACT: note_on channel=3 note=63 velocity=96 time=0
EXTRACT: note_on channel=0 note=53 velocity=0 time=0.09770112500000001
EXTRACT: note_on channel=0 note=62 velocity=0 time=0.022988500000000002
EXTRACT: note_on channel=0 note=53 velocity=83 time=0.051724125
EXTRACT: note_on channel=0 note=62 velocity=87 time=0
EXTRACT: note_on channel=0 note=53 velocity=0 time=0.25862062500000005
EXTRACT: note_on channel=3 note=63 velocity=0 time=0.028735625
EXTRACT: note_on channel=3 note=62 velocity=85 time=0
EXTRACT: note_on channel=0 note=53 velocity=74 time=0
EXTRACT: note_on channel=3 note=62 velocity=0 time=0.14942525
EXTRACT: note_on channel=3 note=62 velocity=96 time=0
EXTRACT: note_on channel=0 note=58 velocity=0 time=0.1149425
EXTRACT: note_on channel=0 note=58 velocity=74 time=0.05747125
EXTRACT: note_on channel=3 note=62 velocity=0 time=0.293103375
EXTRACT: note_on channel=3 note=60 velocity=87 time=0
EXTRACT: note_on channel=0 note=65 velocity=84 time=0
EXTRACT: note_on channel=3 note=60 velocity=0 time=0.155172375
EXTRACT: note_on channel=3 note=60 velocity=96 time=0
EXTRACT: note_on channel=0 note=65 velocity=0 time=0.14942525
EXTRACT: note_on channel=0 note=46 velocity=0 time=0.011494250000000001
EXTRACT: note_on channel=0 note=58 velocity=0 time=0.0057471250000000005
EXTRACT: note_on channel=0 note=45 velocity=72 time=0.0057471250000000005
EXTRACT: note_on channel=0 note=65 velocity=80 time=0
EXTRACT: note_on channel=0 note=62 velocity=0 time=0.0057471250000000005
EXTRACT: note_on channel=0 note=53 velocity=0 time=0.0057471250000000005
EXTRACT: note_on channel=0 note=53 velocity=79 time=0.33333325
EXTRACT: note_on channel=3 note=60 velocity=0 time=0.35057462500000003
EXTRACT: note_on channel=0 note=60 velocity=70 time=0.0057471250000000005
EXTRACT: note_on channel=0 note=65 velocity=0 time=0.27586200000000005
EXTRACT: note_on channel=0 note=65 velocity=81 time=0.05747125
EXTRACT: note_on channel=0 note=69 velocity=72 time=0
EXTRACT: note_on channel=0 note=72 velocity=55 time=0.011494250000000001
EXTRACT: note_on channel=0 note=53 velocity=0 time=0.6206895
EXTRACT: note_on channel=3 note=67 velocity=87 time=0
EXTRACT: note_on channel=0 note=53 velocity=58 time=0
EXTRACT: note_on channel=0 note=60 velocity=0 time=0.281609125
EXTRACT: note_on channel=3 note=67 velocity=0 time=0.0057471250000000005
EXTRACT: note_on channel=0 note=69 velocity=0 time=0.045977000000000004
EXTRACT: note_on channel=3 note=67 velocity=96 time=0
EXTRACT: note_on channel=0 note=60 velocity=71 time=0
EXTRACT: note_on channel=0 note=72 velocity=0 time=0.022988500000000002
EXTRACT: note_on channel=3 note=67 velocity=0 time=0.281609125
EXTRACT: note_on channel=0 note=65 velocity=0 time=0.0057471250000000005
EXTRACT: note_on channel=3 note=65 velocity=88 time=0
EXTRACT: note_on channel=0 note=65 velocity=60 time=0
EXTRACT: note_on channel=0 note=53 velocity=0 time=0.27586200000000005
EXTRACT: note_on channel=0 note=60 velocity=0 time=0.034482750000000006
EXTRACT: note_on channel=3 note=65 velocity=0 time=0.011494250000000001
EXTRACT: note_on channel=0 note=45 velocity=0 time=0.0057471250000000005
EXTRACT: note_on channel=0 note=65 velocity=0 time=0.011494250000000001
EXTRACT: note_on channel=3 note=74 velocity=92 time=0
EXTRACT: note_on channel=0 note=62 velocity=75 time=0.0057471250000000005
EXTRACT: note_on channel=0 note=55 velocity=74 time=0
EXTRACT: note_on channel=0 note=43 velocity=64 time=0
EXTRACT: note_on channel=0 note=67 velocity=69 time=0
EXTRACT: note_on channel=0 note=50 velocity=72 time=0.3448275
EXTRACT: note_on channel=3 note=74 velocity=0 time=0.17816087500000002
EXTRACT: note_on channel=0 note=55 velocity=0 time=0.10919537500000001
EXTRACT: note_on channel=3 note=67 velocity=89 time=0
EXTRACT: note_on channel=0 note=55 velocity=72 time=0.0057471250000000005
EXTRACT: note_on channel=3 note=67 velocity=0 time=0.30459762500000004
EXTRACT: note_on channel=3 note=65 velocity=88 time=0
EXTRACT: note_on channel=0 note=58 velocity=79 time=0.0057471250000000005
EXTRACT: note_on channel=0 note=62 velocity=0 time=0.28735625000000004
EXTRACT: note_on channel=3 note=65 velocity=0 time=0.017241375000000003
EXTRACT: note_on channel=0 note=55 velocity=0 time=0
EXTRACT: note_on channel=0 note=67 velocity=0 time=0.028735625
EXTRACT: note_on channel=3 note=74 velocity=88 time=0
EXTRACT: note_on channel=0 note=62 velocity=81 time=0.0057471250000000005
EXTRACT: note_on channel=0 note=67 velocity=81 time=0
EXTRACT: note_on channel=0 note=55 velocity=81 time=0
EXTRACT: note_on channel=0 note=70 velocity=81 time=0
EXTRACT: note_on channel=0 note=43 velocity=0 time=0.27586200000000005
EXTRACT: note_on channel=0 note=50 velocity=0 time=0.011494250000000001
EXTRACT: note_on channel=0 note=43 velocity=64 time=0.05747125
EXTRACT: note_on channel=0 note=50 velocity=45 time=0.0057471250000000005
EXTRACT: note_on channel=3 note=74 velocity=0 time=0.086206875
EXTRACT: note_on channel=3 note=67 velocity=96 time=0
EXTRACT: note_on channel=0 note=55 velocity=0 time=0.09195400000000001
EXTRACT: note_on channel=0 note=58 velocity=0 time=0.045977000000000004
EXTRACT: note_on channel=0 note=55 velocity=78 time=0.034482750000000006
EXTRACT: note_on channel=3 note=67 velocity=0 time=0.26436775
EXTRACT: note_on channel=0 note=62 velocity=0 time=0.028735625
EXTRACT: note_on channel=3 note=65 velocity=96 time=0
EXTRACT: note_on channel=0 note=62 velocity=78 time=0.0057471250000000005
EXTRACT: note_on channel=0 note=55 velocity=0 time=0.31034475
EXTRACT: note_on channel=0 note=50 velocity=0 time=0.011494250000000001
EXTRACT: note_on channel=0 note=62 velocity=0 time=0.0057471250000000005
EXTRACT: note_on channel=0 note=58 velocity=74 time=0.017241375000000003
EXTRACT: note_on channel=0 note=63 velocity=67 time=0
EXTRACT: note_on channel=0 note=51 velocity=81 time=0
EXTRACT: note_on channel=0 note=39 velocity=72 time=0.0057471250000000005
EXTRACT: note_on channel=0 note=70 velocity=0 time=0.0057471250000000005
EXTRACT: note_on channel=0 note=43 velocity=0 time=0
EXTRACT: note_on channel=0 note=67 velocity=0 time=0
EXTRACT: note_on channel=3 note=65 velocity=0 time=0.20114937500000002
EXTRACT: note_on channel=0 note=46 velocity=72 time=0.132183875
EXTRACT: note_on channel=0 note=51 velocity=0 time=0.27011487500000003
EXTRACT: note_on channel=0 note=51 velocity=74 time=0.074712625
EXTRACT: note_on channel=0 note=63 velocity=0 time=0.27011487500000003
EXTRACT: note_on channel=0 note=58 velocity=0 time=0.0057471250000000005
EXTRACT: note_on channel=0 note=63 velocity=73 time=0.06896550000000001
EXTRACT: note_on channel=0 note=58 velocity=79 time=0
EXTRACT: note_on channel=0 note=67 velocity=73 time=0
EXTRACT: note_on channel=3 note=58 velocity=83 time=0
EXTRACT: note_on channel=3 note=58 velocity=0 time=0.13793100000000003
EXTRACT: note_on channel=3 note=63 velocity=96 time=0
EXTRACT: note_on channel=0 note=51 velocity=0 time=0.26436775
EXTRACT: note_on channel=3 note=63 velocity=0 time=0.022988500000000002
EXTRACT: note_on channel=3 note=63 velocity=96 time=0
EXTRACT: note_on channel=0 note=51 velocity=62 time=0
EXTRACT: note_on channel=0 note=58 velocity=0 time=0.24137925000000002
EXTRACT: note_on channel=0 note=58 velocity=69 time=0.1149425
EXTRACT: note_on channel=3 note=63 velocity=0 time=0.247126375
EXTRACT: note_on channel=3 note=63 velocity=96 time=0
EXTRACT: note_on channel=0 note=46 velocity=0 time=0.281609125
EXTRACT: note_on channel=0 note=51 velocity=0 time=0
EXTRACT: note_on channel=0 note=58 velocity=0 time=0.0057471250000000005
EXTRACT: note_on channel=0 note=39 velocity=0 time=0.017241375000000003
EXTRACT: note_on channel=0 note=67 velocity=0 time=0.011494250000000001
EXTRACT: note_on channel=0 note=63 velocity=0 time=0
EXTRACT: note_on channel=0 note=46 velocity=79 time=0.034482750000000006
EXTRACT: note_on channel=0 note=70 velocity=76 time=0
EXTRACT: note_on channel=0 note=65 velocity=76 time=0.0057471250000000005
EXTRACT: note_on channel=3 note=63 velocity=0 time=0.16091950000000002
EXTRACT: note_on channel=3 note=62 velocity=83 time=0
EXTRACT: note_on channel=0 note=53 velocity=76 time=0.011494250000000001
EXTRACT: note_on channel=3 note=62 velocity=0 time=0.13793100000000003
EXTRACT: note_on channel=3 note=62 velocity=96 time=0
EXTRACT: note_on channel=0 note=62 velocity=55 time=0.166666625
EXTRACT: note_on channel=0 note=65 velocity=0 time=0.27011487500000003
EXTRACT: note_on channel=3 note=62 velocity=0 time=0.028735625
EXTRACT: note_on channel=3 note=63 velocity=84 time=0
EXTRACT: note_on channel=0 note=65 velocity=64 time=0.0057471250000000005
EXTRACT: note_on channel=3 note=63 velocity=0 time=0.132183875
EXTRACT: note_on channel=3 note=63 velocity=96 time=0
EXTRACT: note_on channel=0 note=70 velocity=0 time=0.09770112500000001
EXTRACT: note_on channel=0 note=70 velocity=87 time=0.08045975000000001
EXTRACT: note_on channel=0 note=53 velocity=0 time=0.25287350000000003
EXTRACT: note_on channel=3 note=63 velocity=0 time=0.011494250000000001
EXTRACT: note_on channel=3 note=62 velocity=86 time=0
EXTRACT: note_on channel=0 note=53 velocity=74 time=0.0057471250000000005
EXTRACT: note_on channel=3 note=62 velocity=0 time=0.13793100000000003
EXTRACT: note_on channel=3 note=62 velocity=96 time=0
EXTRACT: note_on channel=0 note=58 velocity=74 time=0.166666625
EXTRACT: note_on channel=0 note=62 velocity=0 time=0.26436775
EXTRACT: note_on channel=3 note=62 velocity=0 time=0.017241375000000003
EXTRACT: note_on channel=3 note=60 velocity=85 time=0
EXTRACT: note_on channel=0 note=62 velocity=84 time=0.0057471250000000005
EXTRACT: note_on channel=3 note=60 velocity=0 time=0.14367812500000002
EXTRACT: note_on channel=3 note=60 velocity=96 time=0
EXTRACT: note_on channel=0 note=65 velocity=0 time=0.10344825
EXTRACT: note_on channel=0 note=62 velocity=0 time=0.051724125
EXTRACT: note_on channel=0 note=46 velocity=0 time=0.011494250000000001
EXTRACT: note_on channel=0 note=58 velocity=0 time=0.0057471250000000005
EXTRACT: note_on channel=0 note=45 velocity=72 time=0.0057471250000000005
EXTRACT: note_on channel=0 note=65 velocity=80 time=0
EXTRACT: note_on channel=0 note=70 velocity=0 time=0.0057471250000000005
EXTRACT: note_on channel=0 note=60 velocity=70 time=0
EXTRACT: note_on channel=0 note=53 velocity=0 time=0.0057471250000000005
EXTRACT: note_on channel=0 note=53 velocity=79 time=0.33333325
EXTRACT: note_on channel=0 note=60 velocity=0 time=0.31034475
EXTRACT: note_on channel=3 note=60 velocity=0 time=0.040229875000000005
EXTRACT: note_on channel=0 note=60 velocity=70 time=0
EXTRACT: note_on channel=0 note=65 velocity=0 time=0.281609125
EXTRACT: note_on channel=0 note=65 velocity=81 time=0.05747125
EXTRACT: note_on channel=3 note=58 velocity=84 time=0
EXTRACT: note_on channel=0 note=60 velocity=0 time=0.14367812500000002
EXTRACT: note_on channel=3 note=58 velocity=0 time=0.0057471250000000005
EXTRACT: note_on channel=3 note=63 velocity=96 time=0
EXTRACT: note_on channel=0 note=60 velocity=71 time=0
EXTRACT: note_on channel=0 note=69 velocity=72 time=0
EXTRACT: note_on channel=3 note=63 velocity=0 time=0.293103375
EXTRACT: note_on channel=0 note=53 velocity=0 time=0
EXTRACT: note_on channel=3 note=62 velocity=84 time=0
EXTRACT: note_on channel=0 note=53 velocity=58 time=0.0057471250000000005
EXTRACT: note_on channel=3 note=62 velocity=0 time=0.13793100000000003
EXTRACT: note_on channel=3 note=62 velocity=96 time=0
EXTRACT: note_on channel=0 note=65 velocity=0 time=0.09770112500000001
EXTRACT: note_on channel=0 note=65 velocity=60 time=0.086206875
EXTRACT: note_on channel=3 note=62 velocity=0 time=0.25862062500000005
EXTRACT: note_on channel=0 note=60 velocity=0 time=0.022988500000000002
EXTRACT: note_on channel=3 note=58 velocity=85 time=0
EXTRACT: note_on channel=0 note=60 velocity=45 time=0.011494250000000001
EXTRACT: note_on channel=3 note=58 velocity=0 time=0.13793100000000003
EXTRACT: note_on channel=3 note=58 velocity=96 time=0
EXTRACT: note_on channel=0 note=53 velocity=0 time=0.10344825
EXTRACT: note_on channel=0 note=69 velocity=0 time=0.011494250000000001
EXTRACT: note_on channel=0 note=65 velocity=0 time=0.040229875000000005
EXTRACT: note_on channel=0 note=45 velocity=0 time=0
EXTRACT: note_on channel=0 note=58 velocity=58 time=0.011494250000000001
EXTRACT: note_on channel=0 note=62 velocity=67 time=0
EXTRACT: note_on channel=0 note=55 velocity=51 time=0
EXTRACT: note_on channel=0 note=60 velocity=0 time=0.0057471250000000005
EXTRACT: note_on channel=0 note=43 velocity=76 time=0
EXTRACT: note_on channel=0 note=67 velocity=51 time=0.0057471250000000005
EXTRACT: pitchwheel channel=0 pitch=-128 time=0.189655125
EXTRACT: pitchwheel channel=0 pitch=-256 time=0.011494250000000001
EXTRACT: pitchwheel channel=0 pitch=-384 time=0.0057471250000000005
EXTRACT: pitchwheel channel=0 pitch=-512 time=0.011494250000000001
EXTRACT: pitchwheel channel=0 pitch=-640 time=0.011494250000000001
EXTRACT: pitchwheel channel=0 pitch=-768 time=0.017241375000000003
EXTRACT: pitchwheel channel=0 pitch=-896 time=0.017241375000000003
EXTRACT: pitchwheel channel=0 pitch=-1024 time=0.011494250000000001
EXTRACT: pitchwheel channel=0 pitch=-1152 time=0.011494250000000001
EXTRACT: pitchwheel channel=0 pitch=-1280 time=0.011494250000000001
EXTRACT: pitchwheel channel=0 pitch=-1408 time=0.017241375000000003
EXTRACT: pitchwheel channel=0 pitch=-1536 time=0.017241375000000003
EXTRACT: note_on channel=3 note=58 velocity=0 time=0.0057471250000000005
EXTRACT: pitchwheel channel=0 pitch=-1664 time=0.017241375000000003
EXTRACT: pitchwheel channel=0 pitch=-1792 time=0.011494250000000001
EXTRACT: pitchwheel channel=0 pitch=-1920 time=0.017241375000000003
EXTRACT: pitchwheel channel=0 pitch=-2048 time=0.011494250000000001
EXTRACT: pitchwheel channel=0 pitch=-2176 time=0.011494250000000001
EXTRACT: pitchwheel channel=0 pitch=-2304 time=0.011494250000000001
EXTRACT: pitchwheel channel=0 pitch=-2432 time=0.011494250000000001
EXTRACT: pitchwheel channel=0 pitch=-2560 time=0.011494250000000001
EXTRACT: pitchwheel channel=0 pitch=-2688 time=0.0057471250000000005
EXTRACT: pitchwheel channel=0 pitch=-2816 time=0.017241375000000003
EXTRACT: pitchwheel channel=0 pitch=-3072 time=0.022988500000000002
EXTRACT: pitchwheel channel=0 pitch=-3200 time=0.034482750000000006
EXTRACT: pitchwheel channel=0 pitch=-3328 time=0.051724125
EXTRACT: pitchwheel channel=0 pitch=-3456 time=0.028735625
EXTRACT: pitchwheel channel=0 pitch=-3584 time=0.022988500000000002
EXTRACT: pitchwheel channel=0 pitch=-3712 time=0.017241375000000003
EXTRACT: pitchwheel channel=0 pitch=-3840 time=0.011494250000000001
EXTRACT: pitchwheel channel=0 pitch=-3968 time=0.011494250000000001
EXTRACT: pitchwheel channel=0 pitch=-4096 time=0.011494250000000001
EXTRACT: pitchwheel channel=0 pitch=-4224 time=0.017241375000000003
EXTRACT: pitchwheel channel=0 pitch=-4352 time=0.0057471250000000005
EXTRACT: pitchwheel channel=0 pitch=-4480 time=0.0057471250000000005
EXTRACT: pitchwheel channel=0 pitch=-4608 time=0.011494250000000001
EXTRACT: pitchwheel channel=0 pitch=-4736 time=0.011494250000000001
EXTRACT: pitchwheel channel=0 pitch=-4864 time=0.011494250000000001
EXTRACT: pitchwheel channel=0 pitch=-4992 time=0.011494250000000001
EXTRACT: pitchwheel channel=0 pitch=-5120 time=0.011494250000000001
EXTRACT: pitchwheel channel=0 pitch=-5248 time=0.011494250000000001
EXTRACT: pitchwheel channel=0 pitch=-5376 time=0.011494250000000001
EXTRACT: pitchwheel channel=0 pitch=-5504 time=0.011494250000000001
EXTRACT: pitchwheel channel=0 pitch=-5632 time=0.0057471250000000005
EXTRACT: pitchwheel channel=0 pitch=-5760 time=0.017241375000000003
EXTRACT: pitchwheel channel=0 pitch=-5888 time=0.011494250000000001
EXTRACT: pitchwheel channel=0 pitch=-6016 time=0.028735625
EXTRACT: pitchwheel channel=0 pitch=-6144 time=0.028735625
EXTRACT: pitchwheel channel=0 pitch=-6272 time=0.028735625
EXTRACT: pitchwheel channel=0 pitch=-6400 time=0.022988500000000002
EXTRACT: pitchwheel channel=0 pitch=-6528 time=0.011494250000000001
EXTRACT: pitchwheel channel=0 pitch=-6656 time=0.011494250000000001
EXTRACT: pitchwheel channel=0 pitch=-6784 time=0.011494250000000001
EXTRACT: pitchwheel channel=0 pitch=-6912 time=0.0057471250000000005
EXTRACT: pitchwheel channel=0 pitch=-7040 time=0.011494250000000001
EXTRACT: pitchwheel channel=0 pitch=-7168 time=0.0057471250000000005
EXTRACT: pitchwheel channel=0 pitch=-7296 time=0.011494250000000001
EXTRACT: pitchwheel channel=0 pitch=-7424 time=0.0057471250000000005
EXTRACT: pitchwheel channel=0 pitch=-7552 time=0.0057471250000000005
EXTRACT: pitchwheel channel=0 pitch=-7680 time=0.011494250000000001
EXTRACT: pitchwheel channel=0 pitch=-7808 time=0.0057471250000000005
EXTRACT: pitchwheel channel=0 pitch=-7936 time=0.011494250000000001
EXTRACT: pitchwheel channel=0 pitch=-8064 time=0.0057471250000000005
EXTRACT: pitchwheel channel=0 pitch=-8192 time=0.0057471250000000005
EXTRACT: note_on channel=0 note=31 velocity=56 time=0.31034475
EXTRACT: note_on channel=0 note=58 velocity=0 time=0.011494250000000001
EXTRACT: note_on channel=0 note=55 velocity=0 time=0
EXTRACT: note_on channel=0 note=62 velocity=0 time=0
EXTRACT: note_on channel=0 note=43 velocity=0 time=0.011494250000000001
EXTRACT: note_on channel=0 note=67 velocity=0 time=0
EXTRACT: note_on channel=3 note=55 velocity=98 time=0
EXTRACT: note_on channel=3 note=55 velocity=0 time=0.1149425
EXTRACT: note_on channel=3 note=62 velocity=100 time=0
EXTRACT: pitchwheel channel=0 pitch=-8064 time=0.011494250000000001
EXTRACT: pitchwheel channel=0 pitch=-7552 time=0.0057471250000000005
EXTRACT: pitchwheel channel=0 pitch=-4992 time=0.0057471250000000005
EXTRACT: pitchwheel channel=0 pitch=-3072 time=0.0057471250000000005
EXTRACT: pitchwheel channel=0 pitch=-1408 time=0.0057471250000000005
EXTRACT: pitchwheel channel=0 pitch=0 time=0.0057471250000000005
EXTRACT: note_on channel=3 note=62 velocity=0 time=0.25862062500000005
EXTRACT: note_on channel=3 note=60 velocity=102 time=0
EXTRACT: note_on channel=3 note=60 velocity=0 time=0.13793100000000003
EXTRACT: note_on channel=3 note=60 velocity=99 time=0
EXTRACT: note_on channel=3 note=60 velocity=0 time=0.12068962500000001
EXTRACT: note_on channel=0 note=31 velocity=0 time=0.045977000000000004
EXTRACT: note_on channel=3 note=58 velocity=100 time=0
EXTRACT: note_on channel=3 note=58 velocity=0 time=0.12068962500000001
EXTRACT: note_on channel=3 note=58 velocity=100 time=0
EXTRACT: note_on channel=3 note=58 velocity=0 time=0.132183875
EXTRACT: note_on channel=5 note=62 velocity=65 time=0.028735625
EXTRACT: note_on channel=3 note=58 velocity=100 time=0
EXTRACT: note_on channel=5 note=67 velocity=74 time=0
EXTRACT: note_on channel=5 note=70 velocity=65 time=0
EXTRACT: note_on channel=9 note=36 velocity=113 time=0
EXTRACT: note_on channel=9 note=41 velocity=110 time=0
EXTRACT: note_on channel=9 note=46 velocity=80 time=0
EXTRACT: note_on channel=2 note=31 velocity=95 time=0.0057471250000000005
EXTRACT: note_on channel=4 note=58 velocity=68 time=0
EXTRACT: note_on channel=4 note=62 velocity=68 time=0
EXTRACT: note_on channel=4 note=67 velocity=63 time=0
EXTRACT: note_on channel=4 note=55 velocity=62 time=0
EXTRACT: note_on channel=4 note=43 velocity=55 time=0
EXTRACT: note_on channel=9 note=46 velocity=0 time=0
EXTRACT: note_on channel=9 note=41 velocity=0 time=0
EXTRACT: note_on channel=9 note=36 velocity=0 time=0
EXTRACT: note_on channel=3 note=58 velocity=0 time=0.13793100000000003
EXTRACT: note_on channel=3 note=55 velocity=98 time=0
EXTRACT: note_on channel=3 note=55 velocity=0 time=0.13793100000000003
EXTRACT: note_on channel=5 note=62 velocity=0 time=0.011494250000000001
EXTRACT: note_on channel=5 note=70 velocity=0 time=0.0057471250000000005
EXTRACT: note_on channel=5 note=67 velocity=0 time=0
EXTRACT: note_on channel=4 note=43 velocity=0 time=0.0057471250000000005
EXTRACT: note_on channel=4 note=67 velocity=0 time=0
EXTRACT: note_on channel=4 note=58 velocity=0 time=0
EXTRACT: note_on channel=4 note=62 velocity=0 time=0
EXTRACT: note_on channel=4 note=55 velocity=0 time=0
EXTRACT: note_on channel=9 note=35 velocity=64 time=0.0057471250000000005
EXTRACT: note_on channel=9 note=38 velocity=64 time=0
EXTRACT: note_on channel=3 note=55 velocity=104 time=0
EXTRACT: note_on channel=4 note=55 velocity=59 time=0
EXTRACT: note_on channel=4 note=67 velocity=58 time=0
EXTRACT: note_on channel=4 note=62 velocity=64 time=0
EXTRACT: note_on channel=4 note=58 velocity=62 time=0
EXTRACT: note_on channel=4 note=43 velocity=55 time=0
EXTRACT: note_on channel=5 note=67 velocity=59 time=0
EXTRACT: note_on channel=5 note=62 velocity=58 time=0
EXTRACT: note_on channel=5 note=70 velocity=58 time=0
EXTRACT: note_on channel=9 note=38 velocity=0 time=0
EXTRACT: note_on channel=9 note=35 velocity=0 time=0
EXTRACT: note_on channel=9 note=35 velocity=64 time=0.166666625
EXTRACT: note_on channel=9 note=35 velocity=0 time=0.0057471250000000005
EXTRACT: note_on channel=3 note=55 velocity=0 time=0.10344825
EXTRACT: note_on channel=3 note=62 velocity=101 time=0
EXTRACT: note_on channel=4 note=43 velocity=0 time=0
EXTRACT: note_on channel=4 note=62 velocity=0 time=0
EXTRACT: note_on channel=4 note=55 velocity=0 time=0
EXTRACT: note_on channel=4 note=67 velocity=0 time=0
EXTRACT: note_on channel=4 note=58 velocity=0 time=0
EXTRACT: note_on channel=5 note=70 velocity=0 time=0
EXTRACT: note_on channel=5 note=62 velocity=0 time=0
EXTRACT: note_on channel=5 note=67 velocity=0 time=0
EXTRACT: note_on channel=9 note=39 velocity=111 time=0.0057471250000000005
EXTRACT: note_on channel=2 note=31 velocity=0 time=0.0057471250000000005
EXTRACT: note_on channel=4 note=62 velocity=69 time=0
EXTRACT: note_on channel=4 note=58 velocity=67 time=0
EXTRACT: note_on channel=4 note=55 velocity=65 time=0
EXTRACT: note_on channel=4 note=43 velocity=55 time=0
EXTRACT: note_on channel=4 note=67 velocity=61 time=0
EXTRACT: note_on channel=5 note=62 velocity=63 time=0
EXTRACT: note_on channel=5 note=67 velocity=70 time=0
EXTRACT: note_on channel=5 note=70 velocity=63 time=0
EXTRACT: note_on channel=9 note=39 velocity=0 time=0
EXTRACT: note_on channel=3 note=62 velocity=0 time=0.13793100000000003
EXTRACT: note_on channel=3 note=62 velocity=98 time=0
EXTRACT: note_on channel=9 note=37 velocity=57 time=0
EXTRACT: note_on channel=9 note=37 velocity=0 time=0.0057471250000000005
EXTRACT: note_on channel=3 note=62 velocity=0 time=0.132183875
EXTRACT: note_on channel=4 note=67 velocity=0 time=0.028735625
EXTRACT: note_on channel=4 note=55 velocity=0 time=0
EXTRACT: note_on channel=4 note=62 velocity=0 time=0
EXTRACT: note_on channel=4 note=58 velocity=0 time=0
EXTRACT: note_on channel=4 note=43 velocity=0 time=0
EXTRACT: note_on channel=5 note=70 velocity=0 time=0
EXTRACT: note_on channel=5 note=67 velocity=0 time=0
EXTRACT: note_on channel=5 note=62 velocity=0 time=0
EXTRACT: note_on channel=3 note=60 velocity=101 time=0
EXTRACT: note_on channel=4 note=67 velocity=54 time=0
EXTRACT: note_on channel=4 note=62 velocity=63 time=0
EXTRACT: note_on channel=4 note=55 velocity=58 time=0
EXTRACT: note_on channel=4 note=58 velocity=60 time=0
EXTRACT: note_on channel=4 note=43 velocity=55 time=0
EXTRACT: note_on channel=5 note=67 velocity=59 time=0
EXTRACT: note_on channel=5 note=62 velocity=58 time=0
EXTRACT: note_on channel=5 note=70 velocity=57 time=0
EXTRACT: note_on channel=3 note=60 velocity=0 time=0.13793100000000003
EXTRACT: note_on channel=4 note=43 velocity=0 time=0.022988500000000002
EXTRACT: note_on channel=4 note=55 velocity=0 time=0
EXTRACT: note_on channel=4 note=67 velocity=0 time=0
EXTRACT: note_on channel=4 note=62 velocity=0 time=0
EXTRACT: note_on channel=4 note=58 velocity=0 time=0
EXTRACT: note_on channel=5 note=70 velocity=0 time=0
EXTRACT: note_on channel=5 note=62 velocity=0 time=0
EXTRACT: note_on channel=5 note=67 velocity=0 time=0
EXTRACT: note_on channel=9 note=39 velocity=108 time=0.0057471250000000005
EXTRACT: note_on channel=3 note=60 velocity=98 time=0
EXTRACT: note_on channel=4 note=58 velocity=71 time=0
EXTRACT: note_on channel=4 note=43 velocity=55 time=0
EXTRACT: note_on channel=4 note=55 velocity=63 time=0
EXTRACT: note_on channel=4 note=62 velocity=71 time=0
EXTRACT: note_on channel=4 note=67 velocity=63 time=0
EXTRACT: note_on channel=5 note=62 velocity=63 time=0
EXTRACT: note_on channel=5 note=67 velocity=69 time=0
EXTRACT: note_on channel=5 note=70 velocity=63 time=0
EXTRACT: note_on channel=9 note=39 velocity=0 time=0
EXTRACT: note_on channel=3 note=60 velocity=0 time=0.14367812500000002
EXTRACT: note_on channel=3 note=58 velocity=99 time=0
EXTRACT: note_on channel=3 note=58 velocity=0 time=0.13793100000000003
EXTRACT: note_on channel=4 note=67 velocity=0 time=0.022988500000000002
EXTRACT: note_on channel=4 note=55 velocity=0 time=0
EXTRACT: note_on channel=4 note=58 velocity=0 time=0
EXTRACT: note_on channel=4 note=43 velocity=0 time=0
EXTRACT: note_on channel=4 note=62 velocity=0 time=0
EXTRACT: note_on channel=5 note=70 velocity=0 time=0
EXTRACT: note_on channel=5 note=67 velocity=0 time=0
EXTRACT: note_on channel=5 note=62 velocity=0 time=0
EXTRACT: note_on channel=9 note=35 velocity=61 time=0.0057471250000000005
EXTRACT: note_on channel=9 note=37 velocity=59 time=0
EXTRACT: note_on channel=3 note=58 velocity=98 time=0
EXTRACT: note_on channel=4 note=55 velocity=60 time=0
EXTRACT: note_on channel=4 note=67 velocity=58 time=0
EXTRACT: note_on channel=4 note=43 velocity=55 time=0
EXTRACT: note_on channel=4 note=58 velocity=63 time=0
EXTRACT: note_on channel=4 note=62 velocity=64 time=0
EXTRACT: note_on channel=5 note=62 velocity=57 time=0
EXTRACT: note_on channel=5 note=67 velocity=59 time=0
EXTRACT: note_on channel=5 note=70 velocity=58 time=0
EXTRACT: note_on channel=9 note=37 velocity=0 time=0
EXTRACT: note_on channel=9 note=35 velocity=0 time=0
EXTRACT: note_on channel=3 note=58 velocity=0 time=0.14942525
EXTRACT: note_on channel=4 note=62 velocity=0 time=0.011494250000000001
EXTRACT: note_on channel=4 note=43 velocity=0 time=0
EXTRACT: note_on channel=4 note=55 velocity=0 time=0
EXTRACT: note_on channel=4 note=67 velocity=0 time=0
EXTRACT: note_on channel=4 note=58 velocity=0 time=0
EXTRACT: note_on channel=5 note=70 velocity=0 time=0
EXTRACT: note_on channel=5 note=67 velocity=0 time=0
EXTRACT: note_on channel=5 note=62 velocity=0 time=0
EXTRACT: note_on channel=9 note=35 velocity=67 time=0.0057471250000000005
EXTRACT: note_on channel=9 note=37 velocity=64 time=0
EXTRACT: note_on channel=3 note=60 velocity=100 time=0
EXTRACT: note_on channel=4 note=58 velocity=65 time=0
EXTRACT: note_on channel=4 note=55 velocity=58 time=0
EXTRACT: note_on channel=4 note=62 velocity=71 time=0
EXTRACT: note_on channel=4 note=67 velocity=60 time=0
EXTRACT: note_on channel=4 note=43 velocity=55 time=0
EXTRACT: note_on channel=5 note=62 velocity=59 time=0
EXTRACT: note_on channel=5 note=67 velocity=67 time=0
EXTRACT: note_on channel=5 note=70 velocity=65 time=0
EXTRACT: note_on channel=9 note=37 velocity=0 time=0
EXTRACT: note_on channel=9 note=35 velocity=0 time=0
EXTRACT: note_on channel=3 note=60 velocity=0 time=0.14367812500000002
EXTRACT: note_on channel=3 note=60 velocity=100 time=0
EXTRACT: note_on channel=3 note=60 velocity=0 time=0.155172375
EXTRACT: note_on channel=4 note=43 velocity=0 time=0.0057471250000000005
EXTRACT: note_on channel=4 note=62 velocity=0 time=0
EXTRACT: note_on channel=4 note=58 velocity=0 time=0
EXTRACT: note_on channel=4 note=55 velocity=0 time=0
EXTRACT: note_on channel=4 note=67 velocity=0 time=0
EXTRACT: note_on channel=5 note=70 velocity=0 time=0
EXTRACT: note_on channel=5 note=67 velocity=0 time=0
EXTRACT: note_on channel=5 note=62 velocity=0 time=0
EXTRACT: note_on channel=9 note=39 velocity=114 time=0.0057471250000000005
EXTRACT: note_on channel=3 note=58 velocity=99 time=0
EXTRACT: note_on channel=4 note=55 velocity=63 time=0
EXTRACT: note_on channel=4 note=62 velocity=69 time=0
EXTRACT: note_on channel=4 note=58 velocity=70 time=0
EXTRACT: note_on channel=4 note=43 velocity=55 time=0
EXTRACT: note_on channel=4 note=67 velocity=63 time=0
EXTRACT: note_on channel=5 note=67 velocity=69 time=0
EXTRACT: note_on channel=5 note=62 velocity=65 time=0
EXTRACT: note_on channel=5 note=70 velocity=66 time=0
EXTRACT: note_on channel=9 note=39 velocity=0 time=0
EXTRACT: note_on channel=4 note=67 velocity=0 time=0.16091950000000002
EXTRACT: note_on channel=4 note=58 velocity=0 time=0
EXTRACT: note_on channel=4 note=55 velocity=0 time=0
EXTRACT: note_on channel=4 note=62 velocity=0 time=0
EXTRACT: note_on channel=4 note=43 velocity=0 time=0
EXTRACT: note_on channel=5 note=70 velocity=0 time=0
EXTRACT: note_on channel=5 note=62 velocity=0 time=0
EXTRACT: note_on channel=5 note=67 velocity=0 time=0
EXTRACT: note_on channel=9 note=35 velocity=61 time=0.0057471250000000005
EXTRACT: note_on channel=4 note=43 velocity=55 time=0.0057471250000000005
EXTRACT: note_on channel=4 note=62 velocity=67 time=0
EXTRACT: note_on channel=4 note=67 velocity=58 time=0
EXTRACT: note_on channel=4 note=55 velocity=57 time=0
EXTRACT: note_on channel=4 note=58 velocity=65 time=0
EXTRACT: note_on channel=5 note=62 velocity=48 time=0
EXTRACT: note_on channel=5 note=67 velocity=66 time=0
EXTRACT: note_on channel=5 note=70 velocity=63 time=0
EXTRACT: note_on channel=9 note=35 velocity=0 time=0
EXTRACT: note_on channel=3 note=58 velocity=0 time=0.13793100000000003
EXTRACT: note_on channel=4 note=58 velocity=0 time=0.022988500000000002
EXTRACT: note_on channel=4 note=67 velocity=0 time=0
EXTRACT: note_on channel=4 note=43 velocity=0 time=0
EXTRACT: note_on channel=4 note=62 velocity=0 time=0
EXTRACT: note_on channel=4 note=55 velocity=0 time=0
EXTRACT: note_on channel=5 note=70 velocity=0 time=0
EXTRACT: note_on channel=5 note=67 velocity=0 time=0
EXTRACT: note_on channel=5 note=62 velocity=0 time=0
EXTRACT: note_on channel=9 note=28 velocity=51 time=0.0057471250000000005
EXTRACT: note_on channel=3 note=55 velocity=99 time=0
EXTRACT: note_on channel=4 note=58 velocity=68 time=0
EXTRACT: note_on channel=4 note=43 velocity=55 time=0
EXTRACT: note_on channel=4 note=55 velocity=63 time=0
EXTRACT: note_on channel=4 note=62 velocity=69 time=0
EXTRACT: note_on channel=4 note=67 velocity=61 time=0
EXTRACT: note_on channel=5 note=62 velocity=55 time=0
EXTRACT: note_on channel=5 note=67 velocity=67 time=0
EXTRACT: note_on channel=5 note=70 velocity=63 time=0
EXTRACT: note_on channel=9 note=28 velocity=0 time=0
EXTRACT: note_on channel=4 note=67 velocity=0 time=0.16091950000000002
EXTRACT: note_on channel=4 note=55 velocity=0 time=0
EXTRACT: note_on channel=4 note=58 velocity=0 time=0
EXTRACT: note_on channel=4 note=43 velocity=0 time=0
EXTRACT: note_on channel=4 note=62 velocity=0 time=0
EXTRACT: note_on channel=5 note=70 velocity=0 time=0
EXTRACT: note_on channel=5 note=67 velocity=0 time=0
EXTRACT: note_on channel=5 note=62 velocity=0 time=0
EXTRACT: note_on channel=4 note=67 velocity=59 time=0.011494250000000001
EXTRACT: note_on channel=4 note=55 velocity=59 time=0
EXTRACT: note_on channel=4 note=62 velocity=59 time=0
EXTRACT: note_on channel=4 note=58 velocity=59 time=0
EXTRACT: note_on channel=4 note=43 velocity=55 time=0
EXTRACT: note_on channel=5 note=62 velocity=63 time=0
EXTRACT: note_on channel=5 note=67 velocity=63 time=0
EXTRACT: note_on channel=5 note=70 velocity=63 time=0
EXTRACT: note_on channel=3 note=55 velocity=0 time=0.13793100000000003
EXTRACT: note_on channel=4 note=43 velocity=0 time=0.022988500000000002
EXTRACT: note_on channel=4 note=62 velocity=0 time=0
EXTRACT: note_on channel=4 note=67 velocity=0 time=0
EXTRACT: note_on channel=4 note=55 velocity=0 time=0
EXTRACT: note_on channel=4 note=58 velocity=0 time=0
EXTRACT: note_on channel=5 note=70 velocity=0 time=0
EXTRACT: note_on channel=5 note=67 velocity=0 time=0
EXTRACT: note_on channel=5 note=62 velocity=0 time=0
EXTRACT: note_on channel=5 note=70 velocity=65 time=0.0057471250000000005
EXTRACT: note_on channel=9 note=36 velocity=114 time=0
EXTRACT: note_on channel=9 note=41 velocity=110 time=0
EXTRACT: note_on channel=9 note=46 velocity=81 time=0
EXTRACT: note_on channel=3 note=58 velocity=104 time=0
EXTRACT: note_on channel=2 note=27 velocity=97 time=0
EXTRACT: note_on channel=4 note=63 velocity=64 time=0
EXTRACT: note_on channel=4 note=67 velocity=63 time=0
EXTRACT: note_on channel=4 note=58 velocity=65 time=0
EXTRACT: note_on channel=4 note=55 velocity=64 time=0
EXTRACT: note_on channel=4 note=39 velocity=55 time=0
EXTRACT: note_on channel=5 note=65 velocity=74 time=0
EXTRACT: note_on channel=9 note=46 velocity=0 time=0
EXTRACT: note_on channel=9 note=41 velocity=0 time=0
EXTRACT: note_on channel=9 note=36 velocity=0 time=0
EXTRACT: note_on channel=3 note=58 velocity=0 time=0.13793100000000003
EXTRACT: note_on channel=3 note=62 velocity=104 time=0
EXTRACT: note_on channel=5 note=70 velocity=0 time=0.155172375
EXTRACT: note_on channel=4 note=39 velocity=0 time=0.0057471250000000005
EXTRACT: note_on channel=4 note=58 velocity=0 time=0
EXTRACT: note_on channel=4 note=63 velocity=0 time=0
EXTRACT: note_on channel=4 note=67 velocity=0 time=0
EXTRACT: note_on channel=4 note=55 velocity=0 time=0
EXTRACT: note_on channel=5 note=65 velocity=0 time=0
EXTRACT: note_on channel=9 note=35 velocity=68 time=0.0057471250000000005
EXTRACT: note_on channel=9 note=38 velocity=68 time=0
EXTRACT: note_on channel=4 note=63 velocity=63 time=0.0057471250000000005
EXTRACT: note_on channel=4 note=55 velocity=58 time=0
EXTRACT: note_on channel=4 note=67 velocity=56 time=0
EXTRACT: note_on channel=4 note=58 velocity=61 time=0
EXTRACT: note_on channel=4 note=39 velocity=55 time=0
EXTRACT: note_on channel=5 note=65 velocity=73 time=0
EXTRACT: note_on channel=5 note=70 velocity=63 time=0
EXTRACT: note_on channel=9 note=38 velocity=0 time=0
EXTRACT: note_on channel=9 note=35 velocity=0 time=0
EXTRACT: note_on channel=3 note=62 velocity=0 time=0.1149425
EXTRACT: note_on channel=9 note=35 velocity=63 time=0.051724125
EXTRACT: note_on channel=3 note=63 velocity=101 time=0
EXTRACT: note_on channel=9 note=35 velocity=0 time=0
EXTRACT: note_on channel=3 note=63 velocity=0 time=0.16091950000000002
EXTRACT: note_on channel=3 note=63 velocity=101 time=0
EXTRACT: note_on channel=4 note=39 velocity=0 time=0
EXTRACT: note_on channel=4 note=67 velocity=0 time=0
EXTRACT: note_on channel=4 note=63 velocity=0 time=0
EXTRACT: note_on channel=4 note=55 velocity=0 time=0
EXTRACT: note_on channel=4 note=58 velocity=0 time=0
EXTRACT: note_on channel=5 note=70 velocity=0 time=0
EXTRACT: note_on channel=5 note=65 velocity=0 time=0
EXTRACT: note_on channel=9 note=39 velocity=110 time=0.0057471250000000005
EXTRACT: note_on channel=4 note=63 velocity=67 time=0.0057471250000000005
EXTRACT: note_on channel=4 note=58 velocity=65 time=0
EXTRACT: note_on channel=4 note=67 velocity=65 time=0
EXTRACT: note_on channel=4 note=39 velocity=55 time=0
EXTRACT: note_on channel=4 note=55 velocity=62 time=0
EXTRACT: note_on channel=5 note=67 velocity=74 time=0
EXTRACT: note_on channel=5 note=70 velocity=76 time=0
EXTRACT: note_on channel=9 note=39 velocity=0 time=0
EXTRACT: note_on channel=2 note=27 velocity=0 time=0.0057471250000000005
EXTRACT: note_on channel=3 note=63 velocity=0 time=0.14367812500000002
EXTRACT: note_on channel=3 note=60 velocity=100 time=0
EXTRACT: note_on channel=9 note=37 velocity=57 time=0.0057471250000000005
EXTRACT: note_on channel=9 note=37 velocity=0 time=0.0057471250000000005
EXTRACT: note_on channel=3 note=60 velocity=0 time=0.14367812500000002
EXTRACT: note_on channel=5 note=67 velocity=0 time=0.0057471250000000005
EXTRACT: note_on channel=4 note=55 velocity=0 time=0.011494250000000001
EXTRACT: note_on channel=4 note=67 velocity=0 time=0
EXTRACT: note_on channel=4 note=63 velocity=0 time=0
EXTRACT: note_on channel=4 note=58 velocity=0 time=0
EXTRACT: note_on channel=4 note=39 velocity=0 time=0
EXTRACT: note_on channel=5 note=70 velocity=0 time=0
EXTRACT: note_on channel=3 note=60 velocity=103 time=0
EXTRACT: note_on channel=4 note=55 velocity=57 time=0.0057471250000000005
EXTRACT: note_on channel=4 note=63 velocity=61 time=0
EXTRACT: note_on channel=4 note=67 velocity=58 time=0
EXTRACT: note_on channel=4 note=58 velocity=59 time=0
EXTRACT: note_on channel=4 note=39 velocity=55 time=0
EXTRACT: note_on channel=5 note=65 velocity=67 time=0
EXTRACT: note_on channel=5 note=70 velocity=67 time=0
EXTRACT: note_on channel=4 note=39 velocity=0 time=0.16091950000000002
EXTRACT: note_on channel=4 note=67 velocity=0 time=0
EXTRACT: note_on channel=4 note=55 velocity=0 time=0
EXTRACT: note_on channel=4 note=63 velocity=0 time=0
EXTRACT: note_on channel=4 note=58 velocity=0 time=0
EXTRACT: note_on channel=5 note=70 velocity=0 time=0
EXTRACT: note_on channel=5 note=65 velocity=0 time=0
EXTRACT: note_on channel=9 note=39 velocity=110 time=0.0057471250000000005
EXTRACT: note_on channel=4 note=58 velocity=67 time=0.0057471250000000005
EXTRACT: note_on channel=4 note=39 velocity=55 time=0
EXTRACT: note_on channel=4 note=55 velocity=61 time=0
EXTRACT: note_on channel=4 note=63 velocity=65 time=0
EXTRACT: note_on channel=4 note=67 velocity=59 time=0
EXTRACT: note_on channel=5 note=70 velocity=75 time=0
EXTRACT: note_on channel=5 note=67 velocity=75 time=0
EXTRACT: note_on channel=9 note=39 velocity=0 time=0
EXTRACT: note_on channel=3 note=60 velocity=0 time=0.12643675000000001
EXTRACT: note_on channel=3 note=63 velocity=102 time=0
EXTRACT: note_on channel=4 note=67 velocity=0 time=0.166666625
EXTRACT: note_on channel=4 note=55 velocity=0 time=0
EXTRACT: note_on channel=4 note=58 velocity=0 time=0
EXTRACT: note_on channel=4 note=39 velocity=0 time=0
EXTRACT: note_on channel=4 note=63 velocity=0 time=0
EXTRACT: note_on channel=5 note=67 velocity=0 time=0
EXTRACT: note_on channel=5 note=70 velocity=0 time=0
EXTRACT: note_on channel=9 note=35 velocity=62 time=0.0057471250000000005
EXTRACT: note_on channel=9 note=37 velocity=59 time=0
EXTRACT: note_on channel=4 note=63 velocity=61 time=0.0057471250000000005
EXTRACT: note_on channel=4 note=55 velocity=58 time=0
EXTRACT: note_on channel=4 note=39 velocity=55 time=0
EXTRACT: note_on channel=4 note=58 velocity=61 time=0
EXTRACT: note_on channel=4 note=67 velocity=59 time=0
EXTRACT: note_on channel=5 note=65 velocity=70 time=0
EXTRACT: note_on channel=5 note=70 velocity=67 time=0
EXTRACT: note_on channel=9 note=37 velocity=0 time=0
EXTRACT: note_on channel=9 note=35 velocity=0 time=0
EXTRACT: note_on channel=3 note=63 velocity=0 time=0.10344825
EXTRACT: note_on channel=4 note=67 velocity=0 time=0.05747125
EXTRACT: note_on channel=4 note=39 velocity=0 time=0
EXTRACT: note_on channel=4 note=63 velocity=0 time=0
EXTRACT: note_on channel=4 note=55 velocity=0 time=0
EXTRACT: note_on channel=4 note=58 velocity=0 time=0
EXTRACT: note_on channel=5 note=70 velocity=0 time=0
EXTRACT: note_on channel=5 note=65 velocity=0 time=0
EXTRACT: note_on channel=9 note=35 velocity=65 time=0.0057471250000000005
EXTRACT: note_on channel=9 note=37 velocity=63 time=0
EXTRACT: note_on channel=3 note=60 velocity=98 time=0
EXTRACT: note_on channel=4 note=58 velocity=68 time=0
EXTRACT: note_on channel=4 note=67 velocity=65 time=0
EXTRACT: note_on channel=4 note=63 velocity=68 time=0
EXTRACT: note_on channel=4 note=55 velocity=60 time=0
EXTRACT: note_on channel=4 note=39 velocity=55 time=0
EXTRACT: note_on channel=5 note=65 velocity=81 time=0
EXTRACT: note_on channel=5 note=70 velocity=74 time=0
EXTRACT: note_on channel=9 note=37 velocity=0 time=0
EXTRACT: note_on channel=9 note=35 velocity=0 time=0
EXTRACT: note_on channel=3 note=60 velocity=0 time=0.14367812500000002
EXTRACT: note_on channel=3 note=60 velocity=86 time=0
EXTRACT: note_on channel=3 note=60 velocity=0 time=0.14367812500000002
EXTRACT: note_on channel=4 note=39 velocity=0 time=0.017241375000000003
EXTRACT: note_on channel=4 note=63 velocity=0 time=0
EXTRACT: note_on channel=4 note=58 velocity=0 time=0
EXTRACT: note_on channel=4 note=67 velocity=0 time=0
EXTRACT: note_on channel=4 note=55 velocity=0 time=0
EXTRACT: note_on channel=5 note=70 velocity=0 time=0
EXTRACT: note_on channel=5 note=65 velocity=0 time=0
EXTRACT: note_on channel=9 note=39 velocity=109 time=0.0057471250000000005
EXTRACT: note_on channel=3 note=63 velocity=101 time=0
EXTRACT: note_on channel=4 note=58 velocity=69 time=0
EXTRACT: note_on channel=4 note=63 velocity=69 time=0
EXTRACT: note_on channel=4 note=67 velocity=65 time=0
EXTRACT: note_on channel=4 note=39 velocity=55 time=0
EXTRACT: note_on channel=4 note=55 velocity=63 time=0
EXTRACT: note_on channel=5 note=70 velocity=66 time=0
EXTRACT: note_on channel=5 note=65 velocity=66 time=0
EXTRACT: note_on channel=9 note=39 velocity=0 time=0
EXTRACT: note_on channel=4 note=55 velocity=0 time=0.16091950000000002
EXTRACT: note_on channel=4 note=67 velocity=0 time=0
EXTRACT: note_on channel=4 note=58 velocity=0 time=0
EXTRACT: note_on channel=4 note=63 velocity=0 time=0
EXTRACT: note_on channel=4 note=39 velocity=0 time=0
EXTRACT: note_on channel=5 note=65 velocity=0 time=0
EXTRACT: note_on channel=5 note=70 velocity=0 time=0
EXTRACT: note_on channel=9 note=35 velocity=62 time=0.0057471250000000005
EXTRACT: note_on channel=4 note=39 velocity=55 time=0.0057471250000000005
EXTRACT: note_on channel=4 note=63 velocity=67 time=0
EXTRACT: note_on channel=4 note=55 velocity=61 time=0
EXTRACT: note_on channel=4 note=67 velocity=60 time=0
EXTRACT: note_on channel=4 note=58 velocity=67 time=0
EXTRACT: note_on channel=5 note=65 velocity=64 time=0
EXTRACT: note_on channel=5 note=70 velocity=69 time=0
EXTRACT: note_on channel=9 note=35 velocity=0 time=0
EXTRACT: note_on channel=3 note=63 velocity=0 time=0.1149425
EXTRACT: note_on channel=4 note=58 velocity=0 time=0.045977000000000004
EXTRACT: note_on channel=4 note=55 velocity=0 time=0
EXTRACT: note_on channel=4 note=39 velocity=0 time=0
EXTRACT: note_on channel=4 note=63 velocity=0 time=0
EXTRACT: note_on channel=4 note=67 velocity=0 time=0
EXTRACT: note_on channel=5 note=70 velocity=0 time=0
EXTRACT: note_on channel=5 note=65 velocity=0 time=0
EXTRACT: note_on channel=9 note=38 velocity=66 time=0.0057471250000000005
EXTRACT: note_on channel=9 note=28 velocity=52 time=0
EXTRACT: note_on channel=3 note=60 velocity=101 time=0
EXTRACT: note_on channel=4 note=58 velocity=66 time=0
EXTRACT: note_on channel=4 note=39 velocity=55 time=0
EXTRACT: note_on channel=4 note=67 velocity=60 time=0
EXTRACT: note_on channel=4 note=63 velocity=69 time=0
EXTRACT: note_on channel=4 note=55 velocity=60 time=0
EXTRACT: note_on channel=5 note=65 velocity=70 time=0
EXTRACT: note_on channel=5 note=70 velocity=68 time=0
EXTRACT: note_on channel=9 note=28 velocity=0 time=0
EXTRACT: note_on channel=9 note=38 velocity=0 time=0
EXTRACT: note_on channel=4 note=55 velocity=0 time=0.16091950000000002
EXTRACT: note_on channel=4 note=67 velocity=0 time=0
EXTRACT: note_on channel=4 note=58 velocity=0 time=0
EXTRACT: note_on channel=4 note=39 velocity=0 time=0
EXTRACT: note_on channel=4 note=63 velocity=0 time=0
EXTRACT: note_on channel=5 note=70 velocity=0 time=0
EXTRACT: note_on channel=5 note=65 velocity=0 time=0
EXTRACT: note_on channel=9 note=36 velocity=110 time=0.0057471250000000005
EXTRACT: note_on channel=4 note=58 velocity=57 time=0.0057471250000000005
EXTRACT: note_on channel=4 note=55 velocity=57 time=0
EXTRACT: note_on channel=4 note=63 velocity=57 time=0
EXTRACT: note_on channel=4 note=67 velocity=57 time=0
EXTRACT: note_on channel=4 note=39 velocity=55 time=0
EXTRACT: note_on channel=5 note=65 velocity=63 time=0
EXTRACT: note_on channel=5 note=70 velocity=63 time=0
EXTRACT: note_on channel=9 note=36 velocity=0 time=0
EXTRACT: note_on channel=3 note=60 velocity=0 time=0.12068962500000001
EXTRACT: note_on channel=2 note=34 velocity=96 time=0.040229875000000005
EXTRACT: note_on channel=4 note=39 velocity=0 time=0
EXTRACT: note_on channel=4 note=63 velocity=0 time=0
EXTRACT: note_on channel=4 note=58 velocity=0 time=0
EXTRACT: note_on channel=4 note=55 velocity=0 time=0
EXTRACT: note_on channel=4 note=67 velocity=0 time=0
EXTRACT: note_on channel=5 note=70 velocity=0 time=0
EXTRACT: note_on channel=5 note=65 velocity=0 time=0
EXTRACT: note_on channel=9 note=36 velocity=113 time=0.0057471250000000005
EXTRACT: note_on channel=9 note=41 velocity=110 time=0
EXTRACT: note_on channel=9 note=46 velocity=80 time=0
EXTRACT: note_on channel=3 note=60 velocity=104 time=0
EXTRACT: note_on channel=4 note=58 velocity=74 time=0
EXTRACT: note_on channel=4 note=62 velocity=69 time=0
EXTRACT: note_on channel=4 note=65 velocity=66 time=0
EXTRACT: note_on channel=4 note=53 velocity=66 time=0
EXTRACT: note_on channel=4 note=46 velocity=55 time=0
EXTRACT: note_on channel=5 note=65 velocity=74 time=0
EXTRACT: note_on channel=5 note=70 velocity=63 time=0
EXTRACT: note_on channel=9 note=46 velocity=0 time=0
EXTRACT: note_on channel=9 note=41 velocity=0 time=0
EXTRACT: note_on channel=9 note=36 velocity=0 time=0
EXTRACT: note_on channel=3 note=60 velocity=0 time=0.155172375
EXTRACT: note_on channel=3 note=62 velocity=100 time=0
EXTRACT: note_on channel=4 note=46 velocity=0 time=0.16091950000000002
EXTRACT: note_on channel=4 note=65 velocity=0 time=0
EXTRACT: note_on channel=4 note=58 velocity=0 time=0
EXTRACT: note_on channel=4 note=62 velocity=0 time=0
EXTRACT: note_on channel=4 note=53 velocity=0 time=0
EXTRACT: note_on channel=5 note=70 velocity=0 time=0
EXTRACT: note_on channel=5 note=65 velocity=0 time=0
EXTRACT: note_on channel=9 note=35 velocity=64 time=0.0057471250000000005
EXTRACT: note_on channel=9 note=38 velocity=64 time=0
EXTRACT: note_on channel=4 note=58 velocity=61 time=0.0057471250000000005
EXTRACT: note_on channel=4 note=62 velocity=61 time=0
EXTRACT: note_on channel=4 note=65 velocity=59 time=0
EXTRACT: note_on channel=4 note=53 velocity=60 time=0
EXTRACT: note_on channel=4 note=46 velocity=55 time=0
EXTRACT: note_on channel=5 note=70 velocity=62 time=0
EXTRACT: note_on channel=5 note=65 velocity=64 time=0
EXTRACT: note_on channel=9 note=38 velocity=0 time=0
EXTRACT: note_on channel=9 note=35 velocity=0 time=0
EXTRACT: note_on channel=3 note=62 velocity=0 time=0.12068962500000001
EXTRACT: note_on channel=3 note=65 velocity=93 time=0
EXTRACT: note_on channel=9 note=35 velocity=64 time=0.0057471250000000005
EXTRACT: note_on channel=9 note=35 velocity=0 time=0.0057471250000000005
EXTRACT: note_on channel=3 note=65 velocity=0 time=0.132183875
EXTRACT: note_on channel=3 note=60 velocity=93 time=0
EXTRACT: note_on channel=4 note=46 velocity=0 time=0
EXTRACT: note_on channel=4 note=65 velocity=0 time=0
EXTRACT: note_on channel=4 note=58 velocity=0 time=0
EXTRACT: note_on channel=4 note=62 velocity=0 time=0
EXTRACT: note_on channel=4 note=53 velocity=0 time=0
EXTRACT: note_on channel=5 note=65 velocity=0 time=0
EXTRACT: note_on channel=5 note=70 velocity=0 time=0
EXTRACT: note_on channel=5 note=65 velocity=74 time=0.0057471250000000005
EXTRACT: note_on channel=9 note=39 velocity=111 time=0
EXTRACT: note_on channel=4 note=62 velocity=67 time=0.0057471250000000005
EXTRACT: note_on channel=4 note=58 velocity=65 time=0
EXTRACT: note_on channel=4 note=53 velocity=64 time=0
EXTRACT: note_on channel=4 note=65 velocity=63 time=0
EXTRACT: note_on channel=4 note=46 velocity=55 time=0
EXTRACT: note_on channel=5 note=70 velocity=65 time=0
EXTRACT: note_on channel=9 note=39 velocity=0 time=0
EXTRACT: note_on channel=2 note=34 velocity=0 time=0.0057471250000000005
EXTRACT: note_on channel=3 note=60 velocity=0 time=0.12643675000000001
EXTRACT: note_on channel=3 note=60 velocity=102 time=0
EXTRACT: note_on channel=9 note=37 velocity=57 time=0.0057471250000000005
EXTRACT: note_on channel=9 note=37 velocity=0 time=0.0057471250000000005
EXTRACT: note_on channel=3 note=60 velocity=0 time=0.14367812500000002
EXTRACT: note_on channel=5 note=65 velocity=0 time=0.011494250000000001
EXTRACT: note_on channel=4 note=46 velocity=0 time=0.0057471250000000005
EXTRACT: note_on channel=4 note=53 velocity=0 time=0
EXTRACT: note_on channel=4 note=62 velocity=0 time=0
EXTRACT: note_on channel=4 note=58 velocity=0 time=0
EXTRACT: note_on channel=4 note=65 velocity=0 time=0
EXTRACT: note_on channel=5 note=70 velocity=0 time=0
EXTRACT: note_on channel=5 note=70 velocity=61 time=0
EXTRACT: note_on channel=5 note=65 velocity=64 time=0
EXTRACT: note_on channel=3 note=60 velocity=103 time=0
EXTRACT: note_on channel=4 note=65 velocity=59 time=0
EXTRACT: note_on channel=4 note=62 velocity=64 time=0
EXTRACT: note_on channel=4 note=58 velocity=59 time=0
EXTRACT: note_on channel=4 note=53 velocity=60 time=0
EXTRACT: note_on channel=4 note=46 velocity=55 time=0
EXTRACT: note_on channel=5 note=65 velocity=0 time=0.14942525
EXTRACT: note_on channel=5 note=70 velocity=0 time=0
EXTRACT: note_on channel=4 note=46 velocity=0 time=0.011494250000000001
EXTRACT: note_on channel=4 note=58 velocity=0 time=0
EXTRACT: note_on channel=4 note=65 velocity=0 time=0
EXTRACT: note_on channel=4 note=62 velocity=0 time=0
EXTRACT: note_on channel=4 note=53 velocity=0 time=0
EXTRACT: note_on channel=5 note=70 velocity=65 time=0
EXTRACT: note_on channel=5 note=65 velocity=72 time=0
EXTRACT: note_on channel=9 note=39 velocity=108 time=0.0057471250000000005
EXTRACT: note_on channel=4 note=58 velocity=67 time=0.0057471250000000005
EXTRACT: note_on channel=4 note=62 velocity=66 time=0
EXTRACT: note_on channel=4 note=53 velocity=63 time=0
EXTRACT: note_on channel=4 note=65 velocity=60 time=0
EXTRACT: note_on channel=4 note=46 velocity=55 time=0
EXTRACT: note_on channel=9 note=39 velocity=0 time=0
EXTRACT: note_on channel=3 note=60 velocity=0 time=0.086206875
EXTRACT: note_on channel=3 note=63 velocity=102 time=0
EXTRACT: note_on channel=5 note=65 velocity=0 time=0.16091950000000002
EXTRACT: note_on channel=5 note=70 velocity=0 time=0
EXTRACT: note_on channel=4 note=46 velocity=0 time=0.011494250000000001
EXTRACT: note_on channel=4 note=53 velocity=0 time=0
EXTRACT: note_on channel=4 note=58 velocity=0 time=0
EXTRACT: note_on channel=4 note=62 velocity=0 time=0
EXTRACT: note_on channel=4 note=65 velocity=0 time=0
EXTRACT: note_on channel=5 note=70 velocity=60 time=0
EXTRACT: note_on channel=5 note=65 velocity=64 time=0
EXTRACT: note_on channel=9 note=35 velocity=61 time=0.0057471250000000005
EXTRACT: note_on channel=9 note=37 velocity=59 time=0
EXTRACT: note_on channel=4 note=62 velocity=65 time=0.0057471250000000005
EXTRACT: note_on channel=4 note=65 velocity=59 time=0
EXTRACT: note_on channel=4 note=58 velocity=65 time=0
EXTRACT: note_on channel=4 note=53 velocity=63 time=0
EXTRACT: note_on channel=4 note=46 velocity=55 time=0
EXTRACT: note_on channel=9 note=37 velocity=0 time=0
EXTRACT: note_on channel=9 note=35 velocity=0 time=0
EXTRACT: note_on channel=3 note=63 velocity=0 time=0.13793100000000003
EXTRACT: note_on channel=5 note=65 velocity=0 time=0.011494250000000001
EXTRACT: note_on channel=5 note=70 velocity=0 time=0
EXTRACT: note_on channel=4 note=46 velocity=0 time=0.011494250000000001
EXTRACT: note_on channel=4 note=58 velocity=0 time=0
EXTRACT: note_on channel=4 note=62 velocity=0 time=0
EXTRACT: note_on channel=4 note=65 velocity=0 time=0
EXTRACT: note_on channel=4 note=53 velocity=0 time=0
EXTRACT: note_on channel=5 note=65 velocity=70 time=0
EXTRACT: note_on channel=5 note=70 velocity=65 time=0
EXTRACT: note_on channel=9 note=35 velocity=67 time=0.0057471250000000005
EXTRACT: note_on channel=9 note=37 velocity=64 time=0
EXTRACT: note_on channel=3 note=60 velocity=102 time=0
EXTRACT: note_on channel=4 note=58 velocity=64 time=0
EXTRACT: note_on channel=4 note=53 velocity=64 time=0
EXTRACT: note_on channel=4 note=62 velocity=64 time=0
EXTRACT: note_on channel=4 note=65 velocity=59 time=0
EXTRACT: note_on channel=4 note=46 velocity=55 time=0
EXTRACT: note_on channel=9 note=37 velocity=0 time=0
EXTRACT: note_on channel=9 note=35 velocity=0 time=0
EXTRACT: note_on channel=3 note=60 velocity=0 time=0.14367812500000002
EXTRACT: note_on channel=3 note=60 velocity=101 time=0
EXTRACT: note_on channel=5 note=70 velocity=0 time=0.14942525
EXTRACT: note_on channel=5 note=65 velocity=0 time=0
EXTRACT: note_on channel=4 note=46 velocity=0 time=0.011494250000000001
EXTRACT: note_on channel=4 note=62 velocity=0 time=0
EXTRACT: note_on channel=4 note=58 velocity=0 time=0
EXTRACT: note_on channel=4 note=53 velocity=0 time=0
EXTRACT: note_on channel=4 note=65 velocity=0 time=0
EXTRACT: note_on channel=3 note=60 velocity=0 time=0.0057471250000000005
EXTRACT: note_on channel=9 note=39 velocity=114 time=0
EXTRACT: note_on channel=3 note=63 velocity=103 time=0
EXTRACT: note_on channel=4 note=53 velocity=66 time=0
EXTRACT: note_on channel=4 note=62 velocity=69 time=0
EXTRACT: note_on channel=4 note=58 velocity=75 time=0
EXTRACT: note_on channel=4 note=65 velocity=63 time=0
EXTRACT: note_on channel=4 note=46 velocity=55 time=0
EXTRACT: note_on channel=5 note=70 velocity=72 time=0
EXTRACT: note_on channel=5 note=65 velocity=72 time=0
EXTRACT: note_on channel=9 note=39 velocity=0 time=0
EXTRACT: note_on channel=4 note=46 velocity=0 time=0.16091950000000002
EXTRACT: note_on channel=4 note=58 velocity=0 time=0
EXTRACT: note_on channel=4 note=53 velocity=0 time=0
EXTRACT: note_on channel=4 note=62 velocity=0 time=0
EXTRACT: note_on channel=4 note=65 velocity=0 time=0
EXTRACT: note_on channel=5 note=65 velocity=0 time=0
EXTRACT: note_on channel=5 note=70 velocity=0 time=0
EXTRACT: note_on channel=9 note=35 velocity=61 time=0.0057471250000000005
EXTRACT: note_on channel=4 note=58 velocity=66 time=0.0057471250000000005
EXTRACT: note_on channel=4 note=53 velocity=64 time=0
EXTRACT: note_on channel=4 note=62 velocity=66 time=0
EXTRACT: note_on channel=4 note=65 velocity=59 time=0
EXTRACT: note_on channel=4 note=46 velocity=55 time=0
EXTRACT: note_on channel=5 note=65 velocity=65 time=0
EXTRACT: note_on channel=5 note=70 velocity=63 time=0
EXTRACT: note_on channel=9 note=35 velocity=0 time=0
EXTRACT: note_on channel=3 note=63 velocity=0 time=0.12643675000000001
EXTRACT: note_on channel=4 note=46 velocity=0 time=0.034482750000000006
EXTRACT: note_on channel=4 note=62 velocity=0 time=0
EXTRACT: note_on channel=4 note=58 velocity=0 time=0
EXTRACT: note_on channel=4 note=53 velocity=0 time=0
EXTRACT: note_on channel=4 note=65 velocity=0 time=0
EXTRACT: note_on channel=5 note=70 velocity=0 time=0
EXTRACT: note_on channel=5 note=65 velocity=0 time=0
EXTRACT: note_on channel=9 note=28 velocity=51 time=0.0057471250000000005
EXTRACT: note_on channel=3 note=60 velocity=101 time=0
EXTRACT: note_on channel=4 note=53 velocity=60 time=0
EXTRACT: note_on channel=4 note=65 velocity=58 time=0
EXTRACT: note_on channel=4 note=58 velocity=63 time=0
EXTRACT: note_on channel=4 note=62 velocity=66 time=0
EXTRACT: note_on channel=4 note=46 velocity=55 time=0
EXTRACT: note_on channel=5 note=65 velocity=65 time=0
EXTRACT: note_on channel=5 note=70 velocity=61 time=0
EXTRACT: note_on channel=9 note=28 velocity=0 time=0
EXTRACT: note_on channel=4 note=46 velocity=0 time=0.16091950000000002
EXTRACT: note_on channel=4 note=58 velocity=0 time=0
EXTRACT: note_on channel=4 note=53 velocity=0 time=0
EXTRACT: note_on channel=4 note=65 velocity=0 time=0
EXTRACT: note_on channel=4 note=62 velocity=0 time=0
EXTRACT: note_on channel=5 note=70 velocity=0 time=0
EXTRACT: note_on channel=5 note=65 velocity=0 time=0
EXTRACT: note_on channel=4 note=62 velocity=57 time=0.011494250000000001
EXTRACT: note_on channel=4 note=65 velocity=57 time=0
EXTRACT: note_on channel=4 note=53 velocity=57 time=0
EXTRACT: note_on channel=4 note=58 velocity=57 time=0
EXTRACT: note_on channel=4 note=46 velocity=55 time=0
EXTRACT: note_on channel=5 note=65 velocity=63 time=0
EXTRACT: note_on channel=5 note=70 velocity=60 time=0
EXTRACT: note_on channel=3 note=60 velocity=0 time=0.10344825
EXTRACT: note_on channel=4 note=46 velocity=0 time=0.05747125
EXTRACT: note_on channel=4 note=53 velocity=0 time=0
EXTRACT: note_on channel=4 note=62 velocity=0 time=0
EXTRACT: note_on channel=4 note=65 velocity=0 time=0
EXTRACT: note_on channel=4 note=58 velocity=0 time=0
EXTRACT: note_on channel=5 note=70 velocity=0 time=0
EXTRACT: note_on channel=5 note=65 velocity=0 time=0
EXTRACT: note_on channel=9 note=36 velocity=114 time=0.0057471250000000005
EXTRACT: note_on channel=9 note=41 velocity=110 time=0
EXTRACT: note_on channel=9 note=46 velocity=81 time=0
EXTRACT: note_on channel=3 note=60 velocity=101 time=0
EXTRACT: note_on channel=2 note=33 velocity=97 time=0
EXTRACT: note_on channel=4 note=60 velocity=69 time=0
EXTRACT: note_on channel=4 note=57 velocity=69 time=0
EXTRACT: note_on channel=4 note=65 velocity=69 time=0
EXTRACT: note_on channel=4 note=45 velocity=55 time=0
EXTRACT: note_on channel=5 note=65 velocity=76 time=0
EXTRACT: note_on channel=5 note=70 velocity=69 time=0
EXTRACT: note_on channel=9 note=46 velocity=0 time=0
EXTRACT: note_on channel=9 note=41 velocity=0 time=0
EXTRACT: note_on channel=9 note=36 velocity=0 time=0
EXTRACT: note_on channel=3 note=60 velocity=0 time=0.12068962500000001
EXTRACT: note_on channel=3 note=63 velocity=101 time=0
EXTRACT: note_on channel=3 note=63 velocity=0 time=0.13793100000000003
EXTRACT: note_on channel=4 note=45 velocity=0 time=0.022988500000000002
EXTRACT: note_on channel=4 note=60 velocity=0 time=0
EXTRACT: note_on channel=4 note=57 velocity=0 time=0
EXTRACT: note_on channel=4 note=65 velocity=0 time=0
EXTRACT: note_on channel=5 note=70 velocity=0 time=0
EXTRACT: note_on channel=5 note=65 velocity=0 time=0
EXTRACT: note_on channel=9 note=35 velocity=68 time=0.0057471250000000005
EXTRACT: note_on channel=9 note=38 velocity=68 time=0
EXTRACT: note_on channel=3 note=63 velocity=104 time=0
EXTRACT: note_on channel=4 note=57 velocity=59 time=0
EXTRACT: note_on channel=4 note=65 velocity=66 time=0
EXTRACT: note_on channel=4 note=60 velocity=70 time=0
EXTRACT: note_on channel=4 note=45 velocity=55 time=0
EXTRACT: note_on channel=5 note=70 velocity=67 time=0
EXTRACT: note_on channel=5 note=65 velocity=71 time=0
EXTRACT: note_on channel=9 note=38 velocity=0 time=0
EXTRACT: note_on channel=9 note=35 velocity=0 time=0
EXTRACT: note_on channel=3 note=63 velocity=0 time=0.14367812500000002
EXTRACT: note_on channel=9 note=35 velocity=63 time=0.022988500000000002
EXTRACT: note_on channel=3 note=60 velocity=104 time=0
EXTRACT: note_on channel=9 note=35 velocity=0 time=0
EXTRACT: note_on channel=3 note=60 velocity=0 time=0.13793100000000003
EXTRACT: note_on channel=4 note=45 velocity=0 time=0.022988500000000002
EXTRACT: note_on channel=4 note=57 velocity=0 time=0
EXTRACT: note_on channel=4 note=65 velocity=0 time=0
EXTRACT: note_on channel=4 note=60 velocity=0 time=0
EXTRACT: note_on channel=5 note=65 velocity=0 time=0
EXTRACT: note_on channel=5 note=70 velocity=0 time=0
EXTRACT: note_on channel=2 note=33 velocity=0 time=0.0057471250000000005
EXTRACT: note_on channel=9 note=39 velocity=110 time=0
EXTRACT: note_on channel=3 note=63 velocity=102 time=0
EXTRACT: note_on channel=4 note=57 velocity=75 time=0
EXTRACT: note_on channel=4 note=60 velocity=75 time=0
EXTRACT: note_on channel=4 note=65 velocity=75 time=0
EXTRACT: note_on channel=4 note=45 velocity=55 time=0
EXTRACT: note_on channel=5 note=70 velocity=65 time=0
EXTRACT: note_on channel=5 note=65 velocity=71 time=0
EXTRACT: note_on channel=9 note=39 velocity=0 time=0
EXTRACT: note_on channel=9 note=37 velocity=57 time=0.166666625
EXTRACT: note_on channel=9 note=37 velocity=0 time=0.0057471250000000005
EXTRACT: note_on channel=3 note=63 velocity=0 time=0.1149425
EXTRACT: note_on channel=4 note=45 velocity=0 time=0.045977000000000004
EXTRACT: note_on channel=4 note=57 velocity=0 time=0
EXTRACT: note_on channel=4 note=60 velocity=0 time=0
EXTRACT: note_on channel=4 note=65 velocity=0 time=0
EXTRACT: note_on channel=5 note=65 velocity=0 time=0
EXTRACT: note_on channel=5 note=70 velocity=0 time=0
EXTRACT: note_on channel=3 note=60 velocity=101 time=0
EXTRACT: note_on channel=4 note=65 velocity=60 time=0
EXTRACT: note_on channel=4 note=57 velocity=60 time=0
EXTRACT: note_on channel=4 note=60 velocity=59 time=0
EXTRACT: note_on channel=4 note=45 velocity=55 time=0
EXTRACT: note_on channel=5 note=65 velocity=64 time=0
EXTRACT: note_on channel=5 note=70 velocity=59 time=0
EXTRACT: note_on channel=4 note=45 velocity=0 time=0.16091950000000002
EXTRACT: note_on channel=4 note=65 velocity=0 time=0
EXTRACT: note_on channel=4 note=57 velocity=0 time=0
EXTRACT: note_on channel=4 note=60 velocity=0 time=0
EXTRACT: note_on channel=5 note=70 velocity=0 time=0
EXTRACT: note_on channel=5 note=65 velocity=0 time=0
EXTRACT: note_on channel=9 note=39 velocity=110 time=0.0057471250000000005
EXTRACT: note_on channel=4 note=60 velocity=74 time=0.0057471250000000005
EXTRACT: note_on channel=4 note=65 velocity=74 time=0
EXTRACT: note_on channel=4 note=57 velocity=74 time=0
EXTRACT: note_on channel=4 note=45 velocity=55 time=0
EXTRACT: note_on channel=5 note=65 velocity=69 time=0
EXTRACT: note_on channel=5 note=70 velocity=65 time=0
EXTRACT: note_on channel=9 note=39 velocity=0 time=0
EXTRACT: note_on channel=3 note=60 velocity=0 time=0.08045975000000001
EXTRACT: note_on channel=3 note=63 velocity=102 time=0
EXTRACT: note_on channel=3 note=63 velocity=0 time=0.132183875
EXTRACT: note_on channel=4 note=45 velocity=0 time=0.028735625
EXTRACT: note_on channel=4 note=60 velocity=0 time=0
EXTRACT: note_on channel=4 note=65 velocity=0 time=0
EXTRACT: note_on channel=4 note=57 velocity=0 time=0
EXTRACT: note_on channel=5 note=70 velocity=0 time=0
EXTRACT: note_on channel=5 note=65 velocity=0 time=0
EXTRACT: note_on channel=9 note=35 velocity=62 time=0.0057471250000000005
EXTRACT: note_on channel=9 note=37 velocity=59 time=0
EXTRACT: note_on channel=3 note=63 velocity=100 time=0
EXTRACT: note_on channel=4 note=57 velocity=63 time=0
EXTRACT: note_on channel=4 note=60 velocity=70 time=0
EXTRACT: note_on channel=4 note=65 velocity=69 time=0
EXTRACT: note_on channel=4 note=45 velocity=55 time=0
EXTRACT: note_on channel=5 note=65 velocity=72 time=0
EXTRACT: note_on channel=5 note=70 velocity=67 time=0
EXTRACT: note_on channel=9 note=37 velocity=0 time=0
EXTRACT: note_on channel=9 note=35 velocity=0 time=0
EXTRACT: note_on channel=3 note=63 velocity=0 time=0.13793100000000003
EXTRACT: note_on channel=4 note=45 velocity=0 time=0.022988500000000002
EXTRACT: note_on channel=4 note=57 velocity=0 time=0
EXTRACT: note_on channel=4 note=60 velocity=0 time=0
EXTRACT: note_on channel=4 note=65 velocity=0 time=0
EXTRACT: note_on channel=5 note=70 velocity=0 time=0
EXTRACT: note_on channel=5 note=65 velocity=0 time=0
EXTRACT: note_on channel=9 note=35 velocity=65 time=0.0057471250000000005
EXTRACT: note_on channel=9 note=37 velocity=63 time=0
EXTRACT: note_on channel=3 note=60 velocity=101 time=0
EXTRACT: note_on channel=4 note=57 velocity=64 time=0
EXTRACT: note_on channel=4 note=60 velocity=75 time=0
EXTRACT: note_on channel=4 note=65 velocity=71 time=0
EXTRACT: note_on channel=4 note=45 velocity=55 time=0
EXTRACT: note_on channel=5 note=65 velocity=69 time=0
EXTRACT: note_on channel=5 note=70 velocity=64 time=0
EXTRACT: note_on channel=9 note=37 velocity=0 time=0
EXTRACT: note_on channel=9 note=35 velocity=0 time=0
EXTRACT: note_on channel=3 note=60 velocity=0 time=0.14942525
EXTRACT: note_on channel=3 note=60 velocity=95 time=0
EXTRACT: note_on channel=3 note=60 velocity=0 time=0.12643675000000001
EXTRACT: note_on channel=4 note=45 velocity=0 time=0.034482750000000006
EXTRACT: note_on channel=4 note=57 velocity=0 time=0
EXTRACT: note_on channel=4 note=60 velocity=0 time=0
EXTRACT: note_on channel=4 note=65 velocity=0 time=0
EXTRACT: note_on channel=5 note=70 velocity=0 time=0
EXTRACT: note_on channel=5 note=65 velocity=0 time=0
EXTRACT: note_on channel=9 note=39 velocity=109 time=0.0057471250000000005
EXTRACT: note_on channel=3 note=63 velocity=101 time=0
EXTRACT: note_on channel=4 note=60 velocity=74 time=0
EXTRACT: note_on channel=4 note=65 velocity=74 time=0
EXTRACT: note_on channel=4 note=57 velocity=74 time=0
EXTRACT: note_on channel=4 note=45 velocity=55 time=0
EXTRACT: note_on channel=5 note=65 velocity=76 time=0
EXTRACT: note_on channel=5 note=70 velocity=69 time=0
EXTRACT: note_on channel=9 note=39 velocity=0 time=0
EXTRACT: note_on channel=4 note=45 velocity=0 time=0.16091950000000002
EXTRACT: note_on channel=4 note=60 velocity=0 time=0
EXTRACT: note_on channel=4 note=65 velocity=0 time=0
EXTRACT: note_on channel=4 note=57 velocity=0 time=0
EXTRACT: note_on channel=5 note=70 velocity=0 time=0
EXTRACT: note_on channel=5 note=65 velocity=0 time=0
EXTRACT: note_on channel=9 note=35 velocity=62 time=0.0057471250000000005
EXTRACT: note_on channel=4 note=60 velocity=77 time=0.0057471250000000005
EXTRACT: note_on channel=4 note=57 velocity=65 time=0
EXTRACT: note_on channel=4 note=65 velocity=69 time=0
EXTRACT: note_on channel=4 note=45 velocity=55 time=0
EXTRACT: note_on channel=5 note=65 velocity=69 time=0
EXTRACT: note_on channel=5 note=70 velocity=67 time=0
EXTRACT: note_on channel=9 note=35 velocity=0 time=0
EXTRACT: note_on channel=3 note=63 velocity=0 time=0.09770112500000001
EXTRACT: note_on channel=4 note=45 velocity=0 time=0.06321837500000001
EXTRACT: note_on channel=4 note=60 velocity=0 time=0
EXTRACT: note_on channel=4 note=57 velocity=0 time=0
EXTRACT: note_on channel=4 note=65 velocity=0 time=0
EXTRACT: note_on channel=5 note=70 velocity=0 time=0
EXTRACT: note_on channel=5 note=65 velocity=0 time=0
EXTRACT: note_on channel=9 note=28 velocity=52 time=0.0057471250000000005
EXTRACT: note_on channel=3 note=65 velocity=101 time=0
EXTRACT: note_on channel=4 note=60 velocity=79 time=0
EXTRACT: note_on channel=4 note=57 velocity=65 time=0
EXTRACT: note_on channel=4 note=65 velocity=72 time=0
EXTRACT: note_on channel=4 note=45 velocity=55 time=0
EXTRACT: note_on channel=5 note=65 velocity=64 time=0
EXTRACT: note_on channel=5 note=70 velocity=63 time=0
EXTRACT: note_on channel=9 note=28 velocity=0 time=0
EXTRACT: note_on channel=4 note=45 velocity=0 time=0.16091950000000002
EXTRACT: note_on channel=4 note=60 velocity=0 time=0
EXTRACT: note_on channel=4 note=57 velocity=0 time=0
EXTRACT: note_on channel=4 note=65 velocity=0 time=0
EXTRACT: note_on channel=5 note=70 velocity=0 time=0
EXTRACT: note_on channel=5 note=65 velocity=0 time=0
EXTRACT: note_on channel=9 note=36 velocity=110 time=0.0057471250000000005
EXTRACT: note_on channel=9 note=41 velocity=110 time=0
EXTRACT: note_on channel=2 note=33 velocity=80 time=0.0057471250000000005
EXTRACT: note_on channel=4 note=65 velocity=65 time=0
EXTRACT: note_on channel=4 note=60 velocity=65 time=0
EXTRACT: note_on channel=4 note=57 velocity=65 time=0
EXTRACT: note_on channel=4 note=45 velocity=55 time=0
EXTRACT: note_on channel=5 note=65 velocity=64 time=0
EXTRACT: note_on channel=5 note=70 velocity=64 time=0
EXTRACT: note_on channel=9 note=41 velocity=0 time=0
EXTRACT: note_on channel=9 note=36 velocity=0 time=0
EXTRACT: note_on channel=3 note=65 velocity=0 time=0.09195400000000001
EXTRACT: note_on channel=2 note=33 velocity=0 time=0.06321837500000001
EXTRACT: note_on channel=4 note=45 velocity=0 time=0.0057471250000000005
EXTRACT: note_on channel=4 note=65 velocity=0 time=0
EXTRACT: note_on channel=4 note=60 velocity=0 time=0
EXTRACT: note_on channel=4 note=57 velocity=0 time=0
EXTRACT: note_on channel=5 note=70 velocity=0 time=0
EXTRACT: note_on channel=5 note=65 velocity=0 time=0
EXTRACT: note_on channel=2 note=31 velocity=95 time=0.0057471250000000005
EXTRACT: note_on channel=4 note=43 velocity=55 time=0
EXTRACT: note_on channel=5 note=62 velocity=65 time=0
EXTRACT: note_on channel=9 note=36 velocity=113 time=0
EXTRACT: note_on channel=9 note=41 velocity=110 time=0
EXTRACT: note_on channel=9 note=46 velocity=80 time=0
EXTRACT: note_on channel=5 note=67 velocity=74 time=0.0057471250000000005
EXTRACT: note_on channel=5 note=70 velocity=65 time=0
EXTRACT: note_on channel=9 note=46 velocity=0 time=0
EXTRACT: note_on channel=9 note=41 velocity=0 time=0
EXTRACT: note_on channel=9 note=36 velocity=0 time=0
EXTRACT: note_on channel=4 note=58 velocity=68 time=0.0057471250000000005
EXTRACT: note_on channel=4 note=62 velocity=68 time=0
EXTRACT: note_on channel=4 note=67 velocity=63 time=0
EXTRACT: note_on channel=4 note=55 velocity=62 time=0
EXTRACT: note_on channel=3 note=65 velocity=98 time=0
EXTRACT: note_on channel=3 note=65 velocity=0 time=0.13793100000000003
EXTRACT: note_on channel=4 note=43 velocity=0 time=0.017241375000000003
EXTRACT: note_on channel=5 note=62 velocity=0 time=0
EXTRACT: note_on channel=5 note=70 velocity=0 time=0.0057471250000000005
EXTRACT: note_on channel=5 note=67 velocity=0 time=0
EXTRACT: note_on channel=4 note=67 velocity=0 time=0.0057471250000000005
EXTRACT: note_on channel=4 note=58 velocity=0 time=0
EXTRACT: note_on channel=4 note=62 velocity=0 time=0
EXTRACT: note_on channel=4 note=55 velocity=0 time=0
EXTRACT: note_on channel=4 note=43 velocity=55 time=0
EXTRACT: note_on channel=9 note=35 velocity=64 time=0
EXTRACT: note_on channel=9 note=38 velocity=64 time=0
EXTRACT: note_on channel=3 note=62 velocity=102 time=0
EXTRACT: note_on channel=9 note=38 velocity=0 time=0
EXTRACT: note_on channel=9 note=35 velocity=0 time=0
EXTRACT: note_on channel=4 note=58 velocity=62 time=0.0057471250000000005
EXTRACT: note_on channel=4 note=55 velocity=59 time=0
EXTRACT: note_on channel=4 note=67 velocity=58 time=0
EXTRACT: note_on channel=4 note=62 velocity=64 time=0
EXTRACT: note_on channel=5 note=67 velocity=59 time=0
EXTRACT: note_on channel=5 note=62 velocity=58 time=0
EXTRACT: note_on channel=5 note=70 velocity=58 time=0
EXTRACT: note_on channel=3 note=62 velocity=0 time=0.12643675000000001
EXTRACT: note_on channel=9 note=35 velocity=64 time=0.034482750000000006
EXTRACT: note_on channel=3 note=62 velocity=90 time=0
EXTRACT: note_on channel=9 note=35 velocity=0 time=0
EXTRACT: note_on channel=3 note=62 velocity=0 time=0.12643675000000001
EXTRACT: note_on channel=4 note=43 velocity=0 time=0.028735625
EXTRACT: note_on channel=2 note=31 velocity=0 time=0.011494250000000001
EXTRACT: note_on channel=4 note=67 velocity=0 time=0
EXTRACT: note_on channel=4 note=58 velocity=0 time=0
EXTRACT: note_on channel=4 note=55 velocity=0 time=0
EXTRACT: note_on channel=4 note=62 velocity=0 time=0
EXTRACT: note_on channel=4 note=43 velocity=55 time=0
EXTRACT: note_on channel=5 note=70 velocity=0 time=0
EXTRACT: note_on channel=5 note=62 velocity=0 time=0
EXTRACT: note_on channel=5 note=67 velocity=0 time=0
EXTRACT: note_on channel=9 note=39 velocity=111 time=0
EXTRACT: note_on channel=3 note=62 velocity=101 time=0
EXTRACT: note_on channel=9 note=39 velocity=0 time=0
EXTRACT: note_on channel=4 note=58 velocity=67 time=0.0057471250000000005
EXTRACT: note_on channel=4 note=55 velocity=65 time=0
EXTRACT: note_on channel=4 note=62 velocity=69 time=0
EXTRACT: note_on channel=4 note=67 velocity=61 time=0
EXTRACT: note_on channel=5 note=62 velocity=63 time=0
EXTRACT: note_on channel=5 note=67 velocity=70 time=0
EXTRACT: note_on channel=5 note=70 velocity=63 time=0
EXTRACT: note_on channel=9 note=37 velocity=57 time=0.16091950000000002
EXTRACT: note_on channel=9 note=37 velocity=0 time=0.0057471250000000005
EXTRACT: note_on channel=3 note=62 velocity=0 time=0.09195400000000001
EXTRACT: note_on channel=4 note=43 velocity=0 time=0.06321837500000001
EXTRACT: note_on channel=4 note=62 velocity=0 time=0.011494250000000001
EXTRACT: note_on channel=4 note=58 velocity=0 time=0
EXTRACT: note_on channel=4 note=55 velocity=0 time=0
EXTRACT: note_on channel=4 note=67 velocity=0 time=0
EXTRACT: note_on channel=4 note=43 velocity=55 time=0
EXTRACT: note_on channel=5 note=70 velocity=0 time=0
EXTRACT: note_on channel=5 note=67 velocity=0 time=0
EXTRACT: note_on channel=5 note=62 velocity=0 time=0
EXTRACT: note_on channel=3 note=65 velocity=99 time=0
EXTRACT: note_on channel=4 note=58 velocity=60 time=0.0057471250000000005
EXTRACT: note_on channel=4 note=62 velocity=63 time=0
EXTRACT: note_on channel=4 note=55 velocity=58 time=0
EXTRACT: note_on channel=4 note=67 velocity=54 time=0
EXTRACT: note_on channel=5 note=67 velocity=59 time=0
EXTRACT: note_on channel=5 note=62 velocity=58 time=0
EXTRACT: note_on channel=5 note=70 velocity=57 time=0
EXTRACT: note_on channel=3 note=65 velocity=0 time=0.13793100000000003
EXTRACT: note_on channel=4 note=43 velocity=0 time=0.011494250000000001
EXTRACT: note_on channel=4 note=55 velocity=0 time=0.011494250000000001
EXTRACT: note_on channel=4 note=58 velocity=0 time=0
EXTRACT: note_on channel=4 note=62 velocity=0 time=0
EXTRACT: note_on channel=4 note=67 velocity=0 time=0
EXTRACT: note_on channel=4 note=43 velocity=55 time=0
EXTRACT: note_on channel=5 note=70 velocity=0 time=0
EXTRACT: note_on channel=5 note=62 velocity=0 time=0
EXTRACT: note_on channel=5 note=67 velocity=0 time=0
EXTRACT: note_on channel=9 note=39 velocity=108 time=0
EXTRACT: note_on channel=3 note=62 velocity=101 time=0
EXTRACT: note_on channel=9 note=39 velocity=0 time=0
EXTRACT: note_on channel=4 note=58 velocity=71 time=0.0057471250000000005
EXTRACT: note_on channel=4 note=55 velocity=63 time=0
EXTRACT: note_on channel=4 note=62 velocity=71 time=0
EXTRACT: note_on channel=4 note=67 velocity=63 time=0
EXTRACT: note_on channel=5 note=62 velocity=63 time=0
EXTRACT: note_on channel=5 note=67 velocity=69 time=0
EXTRACT: note_on channel=5 note=70 velocity=63 time=0
EXTRACT: note_on channel=3 note=62 velocity=0 time=0.12068962500000001
EXTRACT: note_on channel=3 note=62 velocity=98 time=0
EXTRACT: note_on channel=3 note=62 velocity=0 time=0.12643675000000001
EXTRACT: note_on channel=4 note=43 velocity=0 time=0.028735625
EXTRACT: note_on channel=4 note=62 velocity=0 time=0.011494250000000001
EXTRACT: note_on channel=4 note=58 velocity=0 time=0
EXTRACT: note_on channel=4 note=55 velocity=0 time=0
EXTRACT: note_on channel=4 note=67 velocity=0 time=0
EXTRACT: note_on channel=4 note=43 velocity=55 time=0
EXTRACT: note_on channel=5 note=70 velocity=0 time=0
EXTRACT: note_on channel=5 note=67 velocity=0 time=0
EXTRACT: note_on channel=5 note=62 velocity=0 time=0
EXTRACT: note_on channel=9 note=35 velocity=61 time=0
EXTRACT: note_on channel=9 note=37 velocity=59 time=0
EXTRACT: note_on channel=3 note=62 velocity=98 time=0
EXTRACT: note_on channel=9 note=37 velocity=0 time=0
EXTRACT: note_on channel=9 note=35 velocity=0 time=0
EXTRACT: note_on channel=4 note=58 velocity=63 time=0.0057471250000000005
EXTRACT: note_on channel=4 note=62 velocity=64 time=0
EXTRACT: note_on channel=4 note=55 velocity=60 time=0
EXTRACT: note_on channel=4 note=67 velocity=58 time=0
EXTRACT: note_on channel=5 note=62 velocity=57 time=0
EXTRACT: note_on channel=5 note=67 velocity=59 time=0
EXTRACT: note_on channel=5 note=70 velocity=58 time=0
EXTRACT: note_on channel=4 note=43 velocity=0 time=0.14942525
EXTRACT: note_on channel=4 note=55 velocity=0 time=0.011494250000000001
EXTRACT: note_on channel=4 note=58 velocity=0 time=0
EXTRACT: note_on channel=4 note=62 velocity=0 time=0
EXTRACT: note_on channel=4 note=67 velocity=0 time=0
EXTRACT: note_on channel=4 note=43 velocity=55 time=0
EXTRACT: note_on channel=5 note=70 velocity=0 time=0
EXTRACT: note_on channel=5 note=67 velocity=0 time=0
EXTRACT: note_on channel=5 note=62 velocity=0 time=0
EXTRACT: note_on channel=9 note=35 velocity=67 time=0
EXTRACT: note_on channel=9 note=37 velocity=64 time=0
EXTRACT: note_on channel=9 note=37 velocity=0 time=0.0057471250000000005
EXTRACT: note_on channel=9 note=35 velocity=0 time=0
EXTRACT: note_on channel=4 note=58 velocity=65 time=0.0057471250000000005
EXTRACT: note_on channel=4 note=55 velocity=58 time=0
EXTRACT: note_on channel=4 note=62 velocity=71 time=0
EXTRACT: note_on channel=4 note=67 velocity=60 time=0
EXTRACT: note_on channel=5 note=62 velocity=59 time=0
EXTRACT: note_on channel=5 note=67 velocity=67 time=0
EXTRACT: note_on channel=5 note=70 velocity=65 time=0
EXTRACT: note_on channel=3 note=62 velocity=0 time=0.09195400000000001
EXTRACT: note_on channel=3 note=62 velocity=104 time=0
EXTRACT: note_on channel=3 note=62 velocity=0 time=0.14367812500000002
EXTRACT: note_on channel=4 note=43 velocity=0 time=0.011494250000000001
EXTRACT: note_on channel=4 note=62 velocity=0 time=0.011494250000000001
EXTRACT: note_on channel=4 note=58 velocity=0 time=0
EXTRACT: note_on channel=4 note=55 velocity=0 time=0
EXTRACT: note_on channel=4 note=67 velocity=0 time=0
EXTRACT: note_on channel=4 note=43 velocity=55 time=0
EXTRACT: note_on channel=5 note=70 velocity=0 time=0
EXTRACT: note_on channel=5 note=67 velocity=0 time=0
EXTRACT: note_on channel=5 note=62 velocity=0 time=0
EXTRACT: note_on channel=9 note=39 velocity=114 time=0
EXTRACT: note_on channel=3 note=65 velocity=93 time=0
EXTRACT: note_on channel=9 note=39 velocity=0 time=0
EXTRACT: note_on channel=4 note=58 velocity=70 time=0.0057471250000000005
EXTRACT: note_on channel=4 note=55 velocity=63 time=0
EXTRACT: note_on channel=4 note=62 velocity=69 time=0
EXTRACT: note_on channel=4 note=67 velocity=63 time=0
EXTRACT: note_on channel=5 note=67 velocity=69 time=0
EXTRACT: note_on channel=5 note=62 velocity=65 time=0
EXTRACT: note_on channel=5 note=70 velocity=66 time=0
EXTRACT: note_on channel=3 note=65 velocity=0 time=0.13793100000000003
EXTRACT: note_on channel=4 note=43 velocity=0 time=0.011494250000000001
EXTRACT: note_on channel=4 note=62 velocity=0 time=0.011494250000000001
EXTRACT: note_on channel=4 note=58 velocity=0 time=0
EXTRACT: note_on channel=4 note=55 velocity=0 time=0
EXTRACT: note_on channel=4 note=67 velocity=0 time=0
EXTRACT: note_on channel=4 note=43 velocity=55 time=0
EXTRACT: note_on channel=5 note=70 velocity=0 time=0
EXTRACT: note_on channel=5 note=62 velocity=0 time=0
EXTRACT: note_on channel=5 note=67 velocity=0 time=0
EXTRACT: note_on channel=9 note=35 velocity=61 time=0
EXTRACT: note_on channel=3 note=62 velocity=98 time=0
EXTRACT: note_on channel=9 note=35 velocity=0 time=0
EXTRACT: note_on channel=4 note=58 velocity=65 time=0.0057471250000000005
EXTRACT: note_on channel=4 note=62 velocity=67 time=0
EXTRACT: note_on channel=4 note=55 velocity=57 time=0
EXTRACT: note_on channel=4 note=67 velocity=58 time=0
EXTRACT: note_on channel=5 note=62 velocity=48 time=0
EXTRACT: note_on channel=5 note=67 velocity=66 time=0
EXTRACT: note_on channel=5 note=70 velocity=63 time=0
EXTRACT: note_on channel=3 note=62 velocity=0 time=0.132183875
EXTRACT: note_on channel=4 note=43 velocity=0 time=0.017241375000000003
EXTRACT: note_on channel=4 note=55 velocity=0 time=0.011494250000000001
EXTRACT: note_on channel=4 note=58 velocity=0 time=0
EXTRACT: note_on channel=4 note=62 velocity=0 time=0
EXTRACT: note_on channel=4 note=67 velocity=0 time=0
EXTRACT: note_on channel=4 note=43 velocity=55 time=0
EXTRACT: note_on channel=5 note=70 velocity=0 time=0
EXTRACT: note_on channel=5 note=67 velocity=0 time=0
EXTRACT: note_on channel=5 note=62 velocity=0 time=0
EXTRACT: note_on channel=9 note=28 velocity=51 time=0
EXTRACT: note_on channel=3 note=65 velocity=104 time=0
EXTRACT: note_on channel=9 note=28 velocity=0 time=0
EXTRACT: note_on channel=4 note=58 velocity=68 time=0.0057471250000000005
EXTRACT: note_on channel=4 note=55 velocity=63 time=0
EXTRACT: note_on channel=4 note=62 velocity=69 time=0
EXTRACT: note_on channel=4 note=67 velocity=61 time=0
EXTRACT: note_on channel=5 note=62 velocity=55 time=0
EXTRACT: note_on channel=5 note=67 velocity=67 time=0
EXTRACT: note_on channel=5 note=70 velocity=63 time=0
EXTRACT: note_on channel=3 note=65 velocity=0 time=0.132183875
EXTRACT: note_on channel=4 note=43 velocity=0 time=0.017241375000000003
EXTRACT: note_on channel=4 note=62 velocity=0 time=0.011494250000000001
EXTRACT: note_on channel=4 note=58 velocity=0 time=0
EXTRACT: note_on channel=4 note=55 velocity=0 time=0
EXTRACT: note_on channel=4 note=67 velocity=0 time=0
EXTRACT: note_on channel=4 note=43 velocity=55 time=0
EXTRACT: note_on channel=5 note=70 velocity=0 time=0
EXTRACT: note_on channel=5 note=67 velocity=0 time=0
EXTRACT: note_on channel=5 note=62 velocity=0 time=0
EXTRACT: note_on channel=3 note=62 velocity=104 time=0
EXTRACT: note_on channel=4 note=58 velocity=59 time=0.0057471250000000005
EXTRACT: note_on channel=4 note=67 velocity=59 time=0
EXTRACT: note_on channel=4 note=55 velocity=59 time=0
EXTRACT: note_on channel=4 note=62 velocity=59 time=0
EXTRACT: note_on channel=5 note=62 velocity=63 time=0
EXTRACT: note_on channel=5 note=67 velocity=63 time=0
EXTRACT: note_on channel=5 note=70 velocity=63 time=0
EXTRACT: note_on channel=3 note=62 velocity=0 time=0.13793100000000003
EXTRACT: note_on channel=4 note=43 velocity=0 time=0.011494250000000001
EXTRACT: note_on channel=2 note=27 velocity=97 time=0.011494250000000001
EXTRACT: note_on channel=4 note=55 velocity=0 time=0
EXTRACT: note_on channel=4 note=58 velocity=0 time=0
EXTRACT: note_on channel=4 note=67 velocity=0 time=0
EXTRACT: note_on channel=4 note=62 velocity=0 time=0
EXTRACT: note_on channel=4 note=39 velocity=55 time=0
EXTRACT: note_on channel=5 note=70 velocity=0 time=0
EXTRACT: note_on channel=5 note=67 velocity=0 time=0
EXTRACT: note_on channel=5 note=62 velocity=0 time=0
EXTRACT: note_on channel=9 note=36 velocity=114 time=0
EXTRACT: note_on channel=9 note=41 velocity=110 time=0
EXTRACT: note_on channel=9 note=46 velocity=81 time=0
EXTRACT: note_on channel=3 note=63 velocity=103 time=0
EXTRACT: note_on channel=5 note=70 velocity=65 time=0
EXTRACT: note_on channel=9 note=46 velocity=0 time=0
EXTRACT: note_on channel=9 note=41 velocity=0 time=0
EXTRACT: note_on channel=9 note=36 velocity=0 time=0
EXTRACT: note_on channel=4 note=63 velocity=64 time=0.0057471250000000005
EXTRACT: note_on channel=4 note=67 velocity=63 time=0
EXTRACT: note_on channel=4 note=58 velocity=65 time=0
EXTRACT: note_on channel=4 note=55 velocity=64 time=0
EXTRACT: note_on channel=5 note=65 velocity=74 time=0
EXTRACT: note_on channel=3 note=63 velocity=0 time=0.13793100000000003
EXTRACT: note_on channel=3 note=63 velocity=103 time=0
EXTRACT: note_on channel=3 note=63 velocity=0 time=0.14367812500000002
EXTRACT: note_on channel=4 note=39 velocity=0 time=0.022988500000000002
EXTRACT: note_on channel=5 note=70 velocity=0 time=0.0057471250000000005
EXTRACT: note_on channel=3 note=60 velocity=83 time=0
EXTRACT: note_on channel=4 note=58 velocity=0 time=0
EXTRACT: note_on channel=4 note=63 velocity=0 time=0
EXTRACT: note_on channel=4 note=67 velocity=0 time=0
EXTRACT: note_on channel=4 note=55 velocity=0 time=0
EXTRACT: note_on channel=4 note=39 velocity=55 time=0
EXTRACT: note_on channel=5 note=65 velocity=0 time=0
EXTRACT: note_on channel=9 note=35 velocity=68 time=0
EXTRACT: note_on channel=9 note=38 velocity=68 time=0
EXTRACT: note_on channel=9 note=38 velocity=0 time=0.0057471250000000005
EXTRACT: note_on channel=9 note=35 velocity=0 time=0
EXTRACT: note_on channel=4 note=58 velocity=61 time=0.0057471250000000005
EXTRACT: note_on channel=4 note=63 velocity=63 time=0
EXTRACT: note_on channel=4 note=55 velocity=58 time=0
EXTRACT: note_on channel=4 note=67 velocity=56 time=0
EXTRACT: note_on channel=5 note=65 velocity=73 time=0
EXTRACT: note_on channel=5 note=70 velocity=63 time=0
EXTRACT: note_on channel=3 note=60 velocity=0 time=0.12068962500000001
EXTRACT: note_on channel=9 note=35 velocity=63 time=0.040229875000000005
EXTRACT: note_on channel=3 note=63 velocity=98 time=0
EXTRACT: note_on channel=9 note=35 velocity=0 time=0
EXTRACT: note_on channel=3 note=63 velocity=0 time=0.12068962500000001
EXTRACT: note_on channel=4 note=39 velocity=0 time=0.034482750000000006
EXTRACT: note_on channel=4 note=55 velocity=0 time=0.011494250000000001
EXTRACT: note_on channel=4 note=58 velocity=0 time=0
EXTRACT: note_on channel=4 note=63 velocity=0 time=0
EXTRACT: note_on channel=4 note=67 velocity=0 time=0
EXTRACT: note_on channel=4 note=39 velocity=55 time=0
EXTRACT: note_on channel=5 note=70 velocity=0 time=0
EXTRACT: note_on channel=5 note=65 velocity=0 time=0
EXTRACT: note_on channel=9 note=39 velocity=110 time=0
EXTRACT: note_on channel=3 note=60 velocity=93 time=0
EXTRACT: note_on channel=2 note=27 velocity=0 time=0
EXTRACT: note_on channel=9 note=39 velocity=0 time=0
EXTRACT: note_on channel=4 note=58 velocity=65 time=0.0057471250000000005
EXTRACT: note_on channel=4 note=67 velocity=65 time=0
EXTRACT: note_on channel=4 note=63 velocity=67 time=0
EXTRACT: note_on channel=4 note=55 velocity=62 time=0
EXTRACT: note_on channel=5 note=67 velocity=74 time=0
EXTRACT: note_on channel=5 note=70 velocity=76 time=0
EXTRACT: note_on channel=3 note=60 velocity=0 time=0.13793100000000003
EXTRACT: note_on channel=9 note=37 velocity=57 time=0.022988500000000002
EXTRACT: note_on channel=3 note=60 velocity=81 time=0
EXTRACT: note_on channel=9 note=37 velocity=0 time=0
EXTRACT: note_on channel=3 note=60 velocity=0 time=0.13793100000000003
EXTRACT: note_on channel=4 note=39 velocity=0 time=0.017241375000000003
EXTRACT: note_on channel=5 note=67 velocity=0 time=0
EXTRACT: note_on channel=4 note=63 velocity=0 time=0.011494250000000001
EXTRACT: note_on channel=4 note=58 velocity=0 time=0
EXTRACT: note_on channel=4 note=67 velocity=0 time=0
EXTRACT: note_on channel=4 note=55 velocity=0 time=0
EXTRACT: note_on channel=4 note=39 velocity=55 time=0
EXTRACT: note_on channel=5 note=70 velocity=0 time=0
EXTRACT: note_on channel=3 note=63 velocity=100 time=0
EXTRACT: note_on channel=4 note=58 velocity=59 time=0.0057471250000000005
EXTRACT: note_on channel=4 note=63 velocity=61 time=0
EXTRACT: note_on channel=4 note=67 velocity=58 time=0
EXTRACT: note_on channel=4 note=55 velocity=57 time=0
EXTRACT: note_on channel=5 note=65 velocity=67 time=0
EXTRACT: note_on channel=5 note=70 velocity=67 time=0
EXTRACT: note_on channel=4 note=39 velocity=0 time=0.14942525
EXTRACT: note_on channel=4 note=67 velocity=0 time=0.011494250000000001
EXTRACT: note_on channel=4 note=58 velocity=0 time=0
EXTRACT: note_on channel=4 note=63 velocity=0 time=0
EXTRACT: note_on channel=4 note=55 velocity=0 time=0
EXTRACT: note_on channel=4 note=39 velocity=55 time=0
EXTRACT: note_on channel=5 note=70 velocity=0 time=0
EXTRACT: note_on channel=5 note=65 velocity=0 time=0
EXTRACT: note_on channel=9 note=39 velocity=110 time=0
EXTRACT: note_on channel=9 note=39 velocity=0 time=0.0057471250000000005
EXTRACT: note_on channel=4 note=58 velocity=67 time=0.0057471250000000005
EXTRACT: note_on channel=4 note=55 velocity=61 time=0
EXTRACT: note_on channel=4 note=63 velocity=65 time=0
EXTRACT: note_on channel=4 note=67 velocity=59 time=0
EXTRACT: note_on channel=5 note=70 velocity=75 time=0
EXTRACT: note_on channel=5 note=67 velocity=75 time=0
EXTRACT: note_on channel=3 note=63 velocity=0 time=0.12068962500000001
EXTRACT: note_on channel=3 note=60 velocity=104 time=0
EXTRACT: note_on channel=3 note=60 velocity=0 time=0.14942525
EXTRACT: note_on channel=4 note=39 velocity=0 time=0.017241375000000003
EXTRACT: note_on channel=4 note=63 velocity=0 time=0.011494250000000001
EXTRACT: note_on channel=4 note=58 velocity=0 time=0
EXTRACT: note_on channel=4 note=55 velocity=0 time=0
EXTRACT: note_on channel=4 note=67 velocity=0 time=0
EXTRACT: note_on channel=4 note=39 velocity=55 time=0
EXTRACT: note_on channel=5 note=67 velocity=0 time=0
EXTRACT: note_on channel=5 note=70 velocity=0 time=0
EXTRACT: note_on channel=9 note=35 velocity=62 time=0
EXTRACT: note_on channel=9 note=37 velocity=59 time=0
EXTRACT: note_on channel=3 note=60 velocity=101 time=0
EXTRACT: note_on channel=9 note=37 velocity=0 time=0
EXTRACT: note_on channel=9 note=35 velocity=0 time=0
EXTRACT: note_on channel=4 note=58 velocity=61 time=0.0057471250000000005
EXTRACT: note_on channel=4 note=67 velocity=59 time=0
EXTRACT: note_on channel=4 note=63 velocity=61 time=0
EXTRACT: note_on channel=4 note=55 velocity=58 time=0
EXTRACT: note_on channel=5 note=65 velocity=70 time=0
EXTRACT: note_on channel=5 note=70 velocity=67 time=0
EXTRACT: note_on channel=4 note=39 velocity=0 time=0.14942525
EXTRACT: note_on channel=4 note=63 velocity=0 time=0.011494250000000001
EXTRACT: note_on channel=4 note=58 velocity=0 time=0
EXTRACT: note_on channel=4 note=67 velocity=0 time=0
EXTRACT: note_on channel=4 note=55 velocity=0 time=0
EXTRACT: note_on channel=4 note=39 velocity=55 time=0
EXTRACT: note_on channel=5 note=70 velocity=0 time=0
EXTRACT: note_on channel=5 note=65 velocity=0 time=0
EXTRACT: note_on channel=9 note=35 velocity=65 time=0
EXTRACT: note_on channel=9 note=37 velocity=63 time=0
EXTRACT: note_on channel=9 note=37 velocity=0 time=0.0057471250000000005
EXTRACT: note_on channel=9 note=35 velocity=0 time=0
EXTRACT: note_on channel=4 note=58 velocity=68 time=0.0057471250000000005
EXTRACT: note_on channel=4 note=67 velocity=65 time=0
EXTRACT: note_on channel=4 note=63 velocity=68 time=0
EXTRACT: note_on channel=4 note=55 velocity=60 time=0
EXTRACT: note_on channel=5 note=65 velocity=81 time=0
EXTRACT: note_on channel=5 note=70 velocity=74 time=0
EXTRACT: note_on channel=3 note=60 velocity=0 time=0.1149425
EXTRACT: note_on channel=3 note=60 velocity=98 time=0
EXTRACT: note_on channel=3 note=60 velocity=0 time=0.14942525
EXTRACT: note_on channel=4 note=39 velocity=0 time=0.017241375000000003
EXTRACT: note_on channel=3 note=63 velocity=98 time=0
EXTRACT: note_on channel=4 note=63 velocity=0 time=0.0057471250000000005
EXTRACT: note_on channel=4 note=58 velocity=0 time=0
EXTRACT: note_on channel=4 note=67 velocity=0 time=0
EXTRACT: note_on channel=4 note=55 velocity=0 time=0
EXTRACT: note_on channel=4 note=39 velocity=55 time=0
EXTRACT: note_on channel=5 note=70 velocity=0 time=0
EXTRACT: note_on channel=5 note=65 velocity=0 time=0
EXTRACT: note_on channel=9 note=39 velocity=109 time=0
EXTRACT: note_on channel=9 note=39 velocity=0 time=0.0057471250000000005
EXTRACT: note_on channel=4 note=67 velocity=65 time=0.0057471250000000005
EXTRACT: note_on channel=4 note=58 velocity=69 time=0
EXTRACT: note_on channel=4 note=63 velocity=69 time=0
EXTRACT: note_on channel=4 note=55 velocity=63 time=0
EXTRACT: note_on channel=5 note=70 velocity=66 time=0
EXTRACT: note_on channel=5 note=65 velocity=66 time=0
EXTRACT: note_on channel=3 note=63 velocity=0 time=0.132183875
EXTRACT: note_on channel=4 note=39 velocity=0 time=0.017241375000000003
EXTRACT: note_on channel=4 note=63 velocity=0 time=0.011494250000000001
EXTRACT: note_on channel=4 note=67 velocity=0 time=0
EXTRACT: note_on channel=4 note=58 velocity=0 time=0
EXTRACT: note_on channel=4 note=55 velocity=0 time=0
EXTRACT: note_on channel=4 note=39 velocity=55 time=0
EXTRACT: note_on channel=5 note=65 velocity=0 time=0
EXTRACT: note_on channel=5 note=70 velocity=0 time=0
EXTRACT: note_on channel=9 note=35 velocity=62 time=0
EXTRACT: note_on channel=3 note=60 velocity=86 time=0
EXTRACT: note_on channel=9 note=35 velocity=0 time=0
EXTRACT: note_on channel=4 note=58 velocity=67 time=0.0057471250000000005
EXTRACT: note_on channel=4 note=63 velocity=67 time=0
EXTRACT: note_on channel=4 note=67 velocity=60 time=0
EXTRACT: note_on channel=4 note=55 velocity=61 time=0
EXTRACT: note_on channel=5 note=65 velocity=64 time=0
EXTRACT: note_on channel=5 note=70 velocity=69 time=0
EXTRACT: note_on channel=3 note=60 velocity=0 time=0.13793100000000003
EXTRACT: note_on channel=4 note=39 velocity=0 time=0.011494250000000001
EXTRACT: note_on channel=4 note=67 velocity=0 time=0.011494250000000001
EXTRACT: note_on channel=4 note=58 velocity=0 time=0
EXTRACT: note_on channel=4 note=63 velocity=0 time=0
EXTRACT: note_on channel=4 note=55 velocity=0 time=0
EXTRACT: note_on channel=4 note=39 velocity=55 time=0
EXTRACT: note_on channel=5 note=70 velocity=0 time=0
EXTRACT: note_on channel=5 note=65 velocity=0 time=0
EXTRACT: note_on channel=9 note=38 velocity=66 time=0
EXTRACT: note_on channel=9 note=28 velocity=52 time=0
EXTRACT: note_on channel=3 note=63 velocity=100 time=0
EXTRACT: note_on channel=9 note=28 velocity=0 time=0
EXTRACT: note_on channel=9 note=38 velocity=0 time=0
EXTRACT: note_on channel=4 note=58 velocity=66 time=0.0057471250000000005
EXTRACT: note_on channel=4 note=67 velocity=60 time=0
EXTRACT: note_on channel=4 note=63 velocity=69 time=0
EXTRACT: note_on channel=4 note=55 velocity=60 time=0
EXTRACT: note_on channel=5 note=65 velocity=70 time=0
EXTRACT: note_on channel=5 note=70 velocity=68 time=0
EXTRACT: note_on channel=4 note=39 velocity=0 time=0.14942525
EXTRACT: note_on channel=4 note=63 velocity=0 time=0.011494250000000001
EXTRACT: note_on channel=4 note=58 velocity=0 time=0
EXTRACT: note_on channel=4 note=67 velocity=0 time=0
EXTRACT: note_on channel=4 note=55 velocity=0 time=0
EXTRACT: note_on channel=4 note=39 velocity=55 time=0
EXTRACT: note_on channel=5 note=70 velocity=0 time=0
EXTRACT: note_on channel=5 note=65 velocity=0 time=0
EXTRACT: note_on channel=9 note=36 velocity=110 time=0
EXTRACT: note_on channel=9 note=36 velocity=0 time=0.0057471250000000005
EXTRACT: note_on channel=4 note=67 velocity=57 time=0.0057471250000000005
EXTRACT: note_on channel=4 note=58 velocity=57 time=0
EXTRACT: note_on channel=4 note=55 velocity=57 time=0
EXTRACT: note_on channel=4 note=63 velocity=57 time=0
EXTRACT: note_on channel=5 note=65 velocity=63 time=0
EXTRACT: note_on channel=5 note=70 velocity=63 time=0
EXTRACT: note_on channel=3 note=63 velocity=0 time=0.05747125
EXTRACT: note_on channel=2 note=34 velocity=96 time=0.09195400000000001
EXTRACT: note_on channel=4 note=39 velocity=0 time=0
EXTRACT: note_on channel=4 note=55 velocity=0 time=0.011494250000000001
EXTRACT: note_on channel=4 note=67 velocity=0 time=0
EXTRACT: note_on channel=4 note=58 velocity=0 time=0
EXTRACT: note_on channel=4 note=63 velocity=0 time=0
EXTRACT: note_on channel=4 note=46 velocity=55 time=0
EXTRACT: note_on channel=5 note=70 velocity=0 time=0
EXTRACT: note_on channel=5 note=65 velocity=0 time=0
EXTRACT: note_on channel=9 note=36 velocity=113 time=0
EXTRACT: note_on channel=9 note=41 velocity=110 time=0
EXTRACT: note_on channel=9 note=46 velocity=80 time=0
EXTRACT: note_on channel=3 note=60 velocity=100 time=0
EXTRACT: note_on channel=9 note=46 velocity=0 time=0
EXTRACT: note_on channel=9 note=41 velocity=0 time=0
EXTRACT: note_on channel=9 note=36 velocity=0 time=0
EXTRACT: note_on channel=4 note=58 velocity=74 time=0.0057471250000000005
EXTRACT: note_on channel=4 note=62 velocity=69 time=0
EXTRACT: note_on channel=4 note=65 velocity=66 time=0
EXTRACT: note_on channel=4 note=53 velocity=66 time=0
EXTRACT: note_on channel=5 note=65 velocity=74 time=0
EXTRACT: note_on channel=5 note=70 velocity=63 time=0
EXTRACT: note_on channel=3 note=60 velocity=0 time=0.14942525
EXTRACT: note_on channel=3 note=62 velocity=98 time=0
EXTRACT: note_on channel=3 note=62 velocity=0 time=0.14942525
EXTRACT: note_on channel=4 note=46 velocity=0 time=0.0057471250000000005
EXTRACT: note_on channel=4 note=65 velocity=0 time=0.011494250000000001
EXTRACT: note_on channel=4 note=58 velocity=0 time=0
EXTRACT: note_on channel=4 note=62 velocity=0 time=0
EXTRACT: note_on channel=4 note=53 velocity=0 time=0
EXTRACT: note_on channel=4 note=46 velocity=55 time=0
EXTRACT: note_on channel=5 note=70 velocity=0 time=0
EXTRACT: note_on channel=5 note=65 velocity=0 time=0
EXTRACT: note_on channel=9 note=35 velocity=64 time=0
EXTRACT: note_on channel=9 note=38 velocity=64 time=0
EXTRACT: note_on channel=3 note=62 velocity=100 time=0
EXTRACT: note_on channel=9 note=38 velocity=0 time=0
EXTRACT: note_on channel=9 note=35 velocity=0 time=0
EXTRACT: note_on channel=4 note=53 velocity=60 time=0.0057471250000000005
EXTRACT: note_on channel=4 note=58 velocity=61 time=0
EXTRACT: note_on channel=4 note=62 velocity=61 time=0
EXTRACT: note_on channel=4 note=65 velocity=59 time=0
EXTRACT: note_on channel=5 note=70 velocity=62 time=0
EXTRACT: note_on channel=5 note=65 velocity=64 time=0
EXTRACT: note_on channel=3 note=62 velocity=0 time=0.12643675000000001
EXTRACT: note_on channel=9 note=35 velocity=64 time=0.034482750000000006
EXTRACT: note_on channel=3 note=63 velocity=100 time=0
EXTRACT: note_on channel=9 note=35 velocity=0 time=0
EXTRACT: note_on channel=4 note=46 velocity=0 time=0.155172375
EXTRACT: note_on channel=3 note=63 velocity=0 time=0.0057471250000000005
EXTRACT: note_on channel=4 note=62 velocity=0 time=0.0057471250000000005
EXTRACT: note_on channel=4 note=53 velocity=0 time=0
EXTRACT: note_on channel=4 note=58 velocity=0 time=0
EXTRACT: note_on channel=4 note=65 velocity=0 time=0
EXTRACT: note_on channel=4 note=46 velocity=55 time=0
EXTRACT: note_on channel=5 note=65 velocity=0 time=0
EXTRACT: note_on channel=5 note=70 velocity=0 time=0
EXTRACT: note_on channel=9 note=39 velocity=111 time=0
EXTRACT: note_on channel=3 note=60 velocity=100 time=0
EXTRACT: note_on channel=2 note=34 velocity=0 time=0
EXTRACT: note_on channel=5 note=65 velocity=74 time=0
EXTRACT: note_on channel=9 note=39 velocity=0 time=0
EXTRACT: note_on channel=4 note=58 velocity=65 time=0.0057471250000000005
EXTRACT: note_on channel=4 note=53 velocity=64 time=0
EXTRACT: note_on channel=4 note=62 velocity=67 time=0
EXTRACT: note_on channel=4 note=65 velocity=63 time=0
EXTRACT: note_on channel=5 note=70 velocity=65 time=0
EXTRACT: note_on channel=3 note=60 velocity=0 time=0.155172375
EXTRACT: note_on channel=9 note=37 velocity=57 time=0.0057471250000000005
EXTRACT: note_on channel=3 note=60 velocity=101 time=0
EXTRACT: note_on channel=9 note=37 velocity=0 time=0
EXTRACT: note_on channel=3 note=60 velocity=0 time=0.14942525
EXTRACT: note_on channel=4 note=46 velocity=0 time=0.0057471250000000005
EXTRACT: note_on channel=5 note=65 velocity=0 time=0.0057471250000000005
EXTRACT: note_on channel=4 note=62 velocity=0 time=0.0057471250000000005
EXTRACT: note_on channel=4 note=58 velocity=0 time=0
EXTRACT: note_on channel=4 note=53 velocity=0 time=0
EXTRACT: note_on channel=4 note=65 velocity=0 time=0
EXTRACT: note_on channel=4 note=46 velocity=55 time=0
EXTRACT: note_on channel=5 note=70 velocity=0 time=0
EXTRACT: note_on channel=5 note=70 velocity=61 time=0
EXTRACT: note_on channel=5 note=65 velocity=64 time=0
EXTRACT: note_on channel=3 note=60 velocity=104 time=0
EXTRACT: note_on channel=4 note=53 velocity=60 time=0.0057471250000000005
EXTRACT: note_on channel=4 note=62 velocity=64 time=0
EXTRACT: note_on channel=4 note=58 velocity=59 time=0
EXTRACT: note_on channel=4 note=65 velocity=59 time=0
EXTRACT: note_on channel=4 note=46 velocity=0 time=0.14942525
EXTRACT: note_on channel=5 note=65 velocity=0 time=0
EXTRACT: note_on channel=5 note=70 velocity=0 time=0
EXTRACT: note_on channel=3 note=60 velocity=0 time=0.011494250000000001
EXTRACT: note_on channel=4 note=58 velocity=0 time=0
EXTRACT: note_on channel=4 note=53 velocity=0 time=0
EXTRACT: note_on channel=4 note=62 velocity=0 time=0
EXTRACT: note_on channel=4 note=65 velocity=0 time=0
EXTRACT: note_on channel=4 note=46 velocity=55 time=0
EXTRACT: note_on channel=5 note=70 velocity=65 time=0
EXTRACT: note_on channel=5 note=65 velocity=72 time=0
EXTRACT: note_on channel=9 note=39 velocity=108 time=0
EXTRACT: note_on channel=3 note=62 velocity=102 time=0
EXTRACT: note_on channel=9 note=39 velocity=0 time=0
EXTRACT: note_on channel=4 note=58 velocity=67 time=0.0057471250000000005
EXTRACT: note_on channel=4 note=53 velocity=63 time=0
EXTRACT: note_on channel=4 note=65 velocity=60 time=0
EXTRACT: note_on channel=4 note=62 velocity=66 time=0
EXTRACT: note_on channel=3 note=62 velocity=0 time=0.14367812500000002
EXTRACT: note_on channel=3 note=63 velocity=104 time=0
EXTRACT: note_on channel=4 note=46 velocity=0 time=0.16091950000000002
EXTRACT: note_on channel=5 note=65 velocity=0 time=0
EXTRACT: note_on channel=5 note=70 velocity=0 time=0
EXTRACT: note_on channel=4 note=65 velocity=0 time=0.011494250000000001
EXTRACT: note_on channel=4 note=58 velocity=0 time=0
EXTRACT: note_on channel=4 note=53 velocity=0 time=0
EXTRACT: note_on channel=4 note=62 velocity=0 time=0
EXTRACT: note_on channel=4 note=46 velocity=55 time=0
EXTRACT: note_on channel=5 note=70 velocity=60 time=0
EXTRACT: note_on channel=5 note=65 velocity=64 time=0
EXTRACT: note_on channel=9 note=35 velocity=61 time=0
EXTRACT: note_on channel=9 note=37 velocity=59 time=0
EXTRACT: note_on channel=9 note=37 velocity=0 time=0.0057471250000000005
EXTRACT: note_on channel=9 note=35 velocity=0 time=0
EXTRACT: note_on channel=4 note=58 velocity=65 time=0.0057471250000000005
EXTRACT: note_on channel=4 note=53 velocity=63 time=0
EXTRACT: note_on channel=4 note=62 velocity=65 time=0
EXTRACT: note_on channel=4 note=65 velocity=59 time=0
EXTRACT: note_on channel=3 note=63 velocity=0 time=0.086206875
EXTRACT: note_on channel=4 note=46 velocity=0 time=0.06321837500000001
EXTRACT: note_on channel=5 note=65 velocity=0 time=0
EXTRACT: note_on channel=5 note=70 velocity=0 time=0
EXTRACT: note_on channel=4 note=62 velocity=0 time=0.011494250000000001
EXTRACT: note_on channel=4 note=58 velocity=0 time=0
EXTRACT: note_on channel=4 note=53 velocity=0 time=0
EXTRACT: note_on channel=4 note=65 velocity=0 time=0
EXTRACT: note_on channel=4 note=46 velocity=55 time=0
EXTRACT: note_on channel=5 note=65 velocity=70 time=0
EXTRACT: note_on channel=5 note=70 velocity=65 time=0
EXTRACT: note_on channel=9 note=35 velocity=67 time=0
EXTRACT: note_on channel=9 note=37 velocity=64 time=0
EXTRACT: note_on channel=3 note=60 velocity=104 time=0
EXTRACT: note_on channel=9 note=37 velocity=0 time=0
EXTRACT: note_on channel=9 note=35 velocity=0 time=0
EXTRACT: note_on channel=4 note=58 velocity=64 time=0.0057471250000000005
EXTRACT: note_on channel=4 note=53 velocity=64 time=0
EXTRACT: note_on channel=4 note=62 velocity=64 time=0
EXTRACT: note_on channel=4 note=65 velocity=59 time=0
EXTRACT: note_on channel=3 note=60 velocity=0 time=0.12643675000000001
EXTRACT: note_on channel=3 note=60 velocity=108 time=0
EXTRACT: note_on channel=3 note=60 velocity=0 time=0.1149425
EXTRACT: note_on channel=4 note=46 velocity=0 time=0.040229875000000005
EXTRACT: note_on channel=5 note=70 velocity=0 time=0
EXTRACT: note_on channel=5 note=65 velocity=0 time=0
EXTRACT: note_on channel=4 note=62 velocity=0 time=0.011494250000000001
EXTRACT: note_on channel=4 note=58 velocity=0 time=0
EXTRACT: note_on channel=4 note=53 velocity=0 time=0
EXTRACT: note_on channel=4 note=65 velocity=0 time=0
EXTRACT: note_on channel=4 note=46 velocity=55 time=0
EXTRACT: note_on channel=9 note=39 velocity=114 time=0
EXTRACT: note_on channel=3 note=62 velocity=103 time=0
EXTRACT: note_on channel=9 note=39 velocity=0 time=0
EXTRACT: note_on channel=4 note=58 velocity=75 time=0.0057471250000000005
EXTRACT: note_on channel=4 note=53 velocity=66 time=0
EXTRACT: note_on channel=4 note=62 velocity=69 time=0
EXTRACT: note_on channel=4 note=65 velocity=63 time=0
EXTRACT: note_on channel=5 note=70 velocity=72 time=0
EXTRACT: note_on channel=5 note=65 velocity=72 time=0
EXTRACT: note_on channel=3 note=62 velocity=0 time=0.132183875
EXTRACT: note_on channel=4 note=46 velocity=0 time=0.017241375000000003
EXTRACT: note_on channel=4 note=62 velocity=0 time=0.011494250000000001
EXTRACT: note_on channel=4 note=58 velocity=0 time=0
EXTRACT: note_on channel=4 note=53 velocity=0 time=0
EXTRACT: note_on channel=4 note=65 velocity=0 time=0
EXTRACT: note_on channel=4 note=46 velocity=55 time=0
EXTRACT: note_on channel=5 note=65 velocity=0 time=0
EXTRACT: note_on channel=5 note=70 velocity=0 time=0
EXTRACT: note_on channel=9 note=35 velocity=61 time=0
EXTRACT: note_on channel=3 note=62 velocity=108 time=0
EXTRACT: note_on channel=9 note=35 velocity=0 time=0
EXTRACT: note_on channel=4 note=58 velocity=66 time=0.0057471250000000005
EXTRACT: note_on channel=4 note=53 velocity=64 time=0
EXTRACT: note_on channel=4 note=65 velocity=59 time=0
EXTRACT: note_on channel=4 note=62 velocity=66 time=0
EXTRACT: note_on channel=5 note=65 velocity=65 time=0
EXTRACT: note_on channel=5 note=70 velocity=63 time=0
EXTRACT: note_on channel=3 note=62 velocity=0 time=0.12643675000000001
EXTRACT: note_on channel=4 note=46 velocity=0 time=0.022988500000000002
EXTRACT: note_on channel=4 note=65 velocity=0 time=0.011494250000000001
EXTRACT: note_on channel=4 note=58 velocity=0 time=0
EXTRACT: note_on channel=4 note=53 velocity=0 time=0
EXTRACT: note_on channel=4 note=62 velocity=0 time=0
EXTRACT: note_on channel=4 note=46 velocity=55 time=0
EXTRACT: note_on channel=5 note=70 velocity=0 time=0
EXTRACT: note_on channel=5 note=65 velocity=0 time=0
EXTRACT: note_on channel=9 note=28 velocity=51 time=0
EXTRACT: note_on channel=3 note=63 velocity=108 time=0
EXTRACT: note_on channel=9 note=28 velocity=0 time=0
EXTRACT: note_on channel=4 note=53 velocity=60 time=0.0057471250000000005
EXTRACT: note_on channel=4 note=58 velocity=63 time=0
EXTRACT: note_on channel=4 note=62 velocity=66 time=0
EXTRACT: note_on channel=4 note=65 velocity=58 time=0
EXTRACT: note_on channel=5 note=65 velocity=65 time=0
EXTRACT: note_on channel=5 note=70 velocity=61 time=0
EXTRACT: note_on channel=4 note=46 velocity=0 time=0.14942525
EXTRACT: note_on channel=4 note=62 velocity=0 time=0.011494250000000001
EXTRACT: note_on channel=4 note=53 velocity=0 time=0
EXTRACT: note_on channel=4 note=58 velocity=0 time=0
EXTRACT: note_on channel=4 note=65 velocity=0 time=0
EXTRACT: note_on channel=4 note=46 velocity=55 time=0
EXTRACT: note_on channel=5 note=70 velocity=0 time=0
EXTRACT: note_on channel=5 note=65 velocity=0 time=0
EXTRACT: note_on channel=4 note=58 velocity=57 time=0.011494250000000001
EXTRACT: note_on channel=4 note=62 velocity=57 time=0
EXTRACT: note_on channel=4 note=65 velocity=57 time=0
EXTRACT: note_on channel=4 note=53 velocity=57 time=0
EXTRACT: note_on channel=5 note=65 velocity=63 time=0
EXTRACT: note_on channel=5 note=70 velocity=60 time=0
EXTRACT: note_on channel=3 note=63 velocity=0 time=0.1149425
EXTRACT: note_on channel=4 note=46 velocity=0 time=0.034482750000000006
EXTRACT: note_on channel=2 note=33 velocity=97 time=0.011494250000000001
EXTRACT: note_on channel=4 note=65 velocity=0 time=0
EXTRACT: note_on channel=4 note=58 velocity=0 time=0
EXTRACT: note_on channel=4 note=62 velocity=0 time=0
EXTRACT: note_on channel=4 note=53 velocity=0 time=0
EXTRACT: note_on channel=4 note=45 velocity=55 time=0
EXTRACT: note_on channel=5 note=70 velocity=0 time=0
EXTRACT: note_on channel=5 note=65 velocity=0 time=0
EXTRACT: note_on channel=9 note=36 velocity=114 time=0
EXTRACT: note_on channel=9 note=41 velocity=110 time=0
EXTRACT: note_on channel=9 note=46 velocity=81 time=0
EXTRACT: note_on channel=9 note=46 velocity=0 time=0.0057471250000000005
EXTRACT: note_on channel=9 note=41 velocity=0 time=0
EXTRACT: note_on channel=9 note=36 velocity=0 time=0
EXTRACT: note_on channel=4 note=60 velocity=69 time=0.0057471250000000005
EXTRACT: note_on channel=4 note=57 velocity=69 time=0
EXTRACT: note_on channel=4 note=65 velocity=69 time=0
EXTRACT: note_on channel=5 note=65 velocity=76 time=0
EXTRACT: note_on channel=5 note=70 velocity=69 time=0
EXTRACT: note_on channel=3 note=62 velocity=105 time=0
EXTRACT: note_on channel=4 note=45 velocity=0 time=0.155172375
EXTRACT: note_on channel=4 note=60 velocity=0 time=0.011494250000000001
EXTRACT: note_on channel=4 note=57 velocity=0 time=0
EXTRACT: note_on channel=4 note=65 velocity=0 time=0
EXTRACT: note_on channel=4 note=45 velocity=55 time=0
EXTRACT: note_on channel=5 note=70 velocity=0 time=0
EXTRACT: note_on channel=5 note=65 velocity=0 time=0
EXTRACT: note_on channel=9 note=35 velocity=68 time=0
EXTRACT: note_on channel=9 note=38 velocity=68 time=0
EXTRACT: note_on channel=9 note=38 velocity=0 time=0.0057471250000000005
EXTRACT: note_on channel=9 note=35 velocity=0 time=0
EXTRACT: note_on channel=4 note=57 velocity=59 time=0.0057471250000000005
EXTRACT: note_on channel=4 note=60 velocity=70 time=0
EXTRACT: note_on channel=4 note=65 velocity=66 time=0
EXTRACT: note_on channel=5 note=70 velocity=67 time=0
EXTRACT: note_on channel=5 note=65 velocity=71 time=0
EXTRACT: note_on channel=3 note=62 velocity=0 time=0.045977000000000004
EXTRACT: note_on channel=9 note=35 velocity=63 time=0.1149425
EXTRACT: note_on channel=3 note=63 velocity=100 time=0
EXTRACT: note_on channel=9 note=35 velocity=0 time=0
EXTRACT: note_on channel=3 note=63 velocity=0 time=0.13793100000000003
EXTRACT: note_on channel=4 note=45 velocity=0 time=0.017241375000000003
EXTRACT: note_on channel=2 note=33 velocity=0 time=0.0057471250000000005
EXTRACT: note_on channel=4 note=57 velocity=0 time=0.0057471250000000005
EXTRACT: note_on channel=4 note=60 velocity=0 time=0
EXTRACT: note_on channel=4 note=65 velocity=0 time=0
EXTRACT: note_on channel=4 note=45 velocity=55 time=0
EXTRACT: note_on channel=5 note=65 velocity=0 time=0
EXTRACT: note_on channel=5 note=70 velocity=0 time=0
EXTRACT: note_on channel=9 note=39 velocity=110 time=0
EXTRACT: note_on channel=3 note=63 velocity=95 time=0
EXTRACT: note_on channel=9 note=39 velocity=0 time=0
EXTRACT: note_on channel=4 note=60 velocity=75 time=0.0057471250000000005
EXTRACT: note_on channel=4 note=65 velocity=75 time=0
EXTRACT: note_on channel=4 note=57 velocity=75 time=0
EXTRACT: note_on channel=5 note=70 velocity=65 time=0
EXTRACT: note_on channel=5 note=65 velocity=71 time=0
EXTRACT: note_on channel=3 note=63 velocity=0 time=0.14942525
EXTRACT: note_on channel=9 note=37 velocity=57 time=0.011494250000000001
EXTRACT: note_on channel=3 note=60 velocity=93 time=0
EXTRACT: note_on channel=9 note=37 velocity=0 time=0
EXTRACT: note_on channel=3 note=60 velocity=0 time=0.13793100000000003
EXTRACT: note_on channel=4 note=45 velocity=0 time=0.017241375000000003
EXTRACT: note_on channel=4 note=60 velocity=0 time=0.011494250000000001
EXTRACT: note_on channel=4 note=65 velocity=0 time=0
EXTRACT: note_on channel=4 note=57 velocity=0 time=0
EXTRACT: note_on channel=4 note=45 velocity=55 time=0
EXTRACT: note_on channel=5 note=65 velocity=0 time=0
EXTRACT: note_on channel=5 note=70 velocity=0 time=0
EXTRACT: note_on channel=3 note=67 velocity=102 time=0
EXTRACT: note_on channel=4 note=57 velocity=60 time=0.0057471250000000005
EXTRACT: note_on channel=4 note=65 velocity=60 time=0
EXTRACT: note_on channel=4 note=60 velocity=59 time=0
EXTRACT: note_on channel=5 note=65 velocity=64 time=0
EXTRACT: note_on channel=5 note=70 velocity=59 time=0
EXTRACT: note_on channel=4 note=45 velocity=0 time=0.14942525
EXTRACT: note_on channel=4 note=57 velocity=0 time=0.011494250000000001
EXTRACT: note_on channel=4 note=65 velocity=0 time=0
EXTRACT: note_on channel=4 note=60 velocity=0 time=0
EXTRACT: note_on channel=4 note=45 velocity=55 time=0
EXTRACT: note_on channel=5 note=70 velocity=0 time=0
EXTRACT: note_on channel=5 note=65 velocity=0 time=0
EXTRACT: note_on channel=9 note=39 velocity=110 time=0
EXTRACT: note_on channel=9 note=39 velocity=0 time=0.0057471250000000005
EXTRACT: note_on channel=4 note=60 velocity=74 time=0.0057471250000000005
EXTRACT: note_on channel=4 note=57 velocity=74 time=0
EXTRACT: note_on channel=4 note=65 velocity=74 time=0
EXTRACT: note_on channel=5 note=65 velocity=69 time=0
EXTRACT: note_on channel=5 note=70 velocity=65 time=0
EXTRACT: note_on channel=3 note=67 velocity=0 time=0.14942525
EXTRACT: note_on channel=3 note=63 velocity=101 time=0
EXTRACT: note_on channel=4 note=45 velocity=0 time=0.155172375
EXTRACT: note_on channel=4 note=60 velocity=0 time=0.011494250000000001
EXTRACT: note_on channel=4 note=57 velocity=0 time=0
EXTRACT: note_on channel=4 note=65 velocity=0 time=0
EXTRACT: note_on channel=4 note=45 velocity=55 time=0
EXTRACT: note_on channel=5 note=70 velocity=0 time=0
EXTRACT: note_on channel=5 note=65 velocity=0 time=0
EXTRACT: note_on channel=9 note=35 velocity=62 time=0
EXTRACT: note_on channel=9 note=37 velocity=59 time=0
EXTRACT: note_on channel=9 note=37 velocity=0 time=0.0057471250000000005
EXTRACT: note_on channel=9 note=35 velocity=0 time=0
EXTRACT: note_on channel=4 note=60 velocity=70 time=0.0057471250000000005
EXTRACT: note_on channel=4 note=57 velocity=63 time=0
EXTRACT: note_on channel=4 note=65 velocity=69 time=0
EXTRACT: note_on channel=5 note=65 velocity=72 time=0
EXTRACT: note_on channel=5 note=70 velocity=67 time=0
EXTRACT: note_on channel=3 note=63 velocity=0 time=0.10919537500000001
EXTRACT: note_on channel=4 note=45 velocity=0 time=0.040229875000000005
EXTRACT: note_on channel=4 note=60 velocity=0 time=0.011494250000000001
EXTRACT: note_on channel=4 note=57 velocity=0 time=0
EXTRACT: note_on channel=4 note=65 velocity=0 time=0
EXTRACT: note_on channel=4 note=45 velocity=55 time=0
EXTRACT: note_on channel=5 note=70 velocity=0 time=0
EXTRACT: note_on channel=5 note=65 velocity=0 time=0
EXTRACT: note_on channel=9 note=35 velocity=65 time=0
EXTRACT: note_on channel=9 note=37 velocity=63 time=0
EXTRACT: note_on channel=3 note=63 velocity=102 time=0
EXTRACT: note_on channel=9 note=37 velocity=0 time=0
EXTRACT: note_on channel=9 note=35 velocity=0 time=0
EXTRACT: note_on channel=4 note=60 velocity=75 time=0.0057471250000000005
EXTRACT: note_on channel=4 note=57 velocity=64 time=0
EXTRACT: note_on channel=4 note=65 velocity=71 time=0
EXTRACT: note_on channel=5 note=65 velocity=69 time=0
EXTRACT: note_on channel=5 note=70 velocity=64 time=0
EXTRACT: note_on channel=3 note=63 velocity=0 time=0.14367812500000002
EXTRACT: note_on channel=3 note=63 velocity=104 time=0
EXTRACT: note_on channel=3 note=63 velocity=0 time=0.12643675000000001
EXTRACT: note_on channel=4 note=45 velocity=0 time=0.034482750000000006
EXTRACT: note_on channel=4 note=60 velocity=0 time=0.011494250000000001
EXTRACT: note_on channel=4 note=57 velocity=0 time=0
EXTRACT: note_on channel=4 note=65 velocity=0 time=0
EXTRACT: note_on channel=4 note=45 velocity=55 time=0
EXTRACT: note_on channel=5 note=70 velocity=0 time=0
EXTRACT: note_on channel=5 note=65 velocity=0 time=0
EXTRACT: note_on channel=9 note=39 velocity=109 time=0
EXTRACT: note_on channel=3 note=67 velocity=108 time=0
EXTRACT: note_on channel=9 note=39 velocity=0 time=0
EXTRACT: note_on channel=4 note=60 velocity=74 time=0.0057471250000000005
EXTRACT: note_on channel=4 note=57 velocity=74 time=0
EXTRACT: note_on channel=4 note=65 velocity=74 time=0
EXTRACT: note_on channel=5 note=65 velocity=76 time=0
EXTRACT: note_on channel=5 note=70 velocity=69 time=0
EXTRACT: note_on channel=3 note=67 velocity=0 time=0.132183875
EXTRACT: note_on channel=4 note=45 velocity=0 time=0.017241375000000003
EXTRACT: note_on channel=4 note=60 velocity=0 time=0.011494250000000001
EXTRACT: note_on channel=4 note=57 velocity=0 time=0
EXTRACT: note_on channel=4 note=65 velocity=0 time=0
EXTRACT: note_on channel=4 note=45 velocity=55 time=0
EXTRACT: note_on channel=5 note=70 velocity=0 time=0
EXTRACT: note_on channel=5 note=65 velocity=0 time=0
EXTRACT: note_on channel=9 note=35 velocity=62 time=0
EXTRACT: note_on channel=3 note=63 velocity=104 time=0
EXTRACT: note_on channel=9 note=35 velocity=0 time=0
EXTRACT: note_on channel=4 note=60 velocity=77 time=0.0057471250000000005
EXTRACT: note_on channel=4 note=57 velocity=65 time=0
EXTRACT: note_on channel=4 note=65 velocity=69 time=0
EXTRACT: note_on channel=5 note=65 velocity=69 time=0
EXTRACT: note_on channel=5 note=70 velocity=67 time=0
EXTRACT: note_on channel=3 note=63 velocity=0 time=0.132183875
EXTRACT: note_on channel=4 note=45 velocity=0 time=0.017241375000000003
EXTRACT: note_on channel=4 note=60 velocity=0 time=0.011494250000000001
EXTRACT: note_on channel=4 note=57 velocity=0 time=0
EXTRACT: note_on channel=4 note=65 velocity=0 time=0
EXTRACT: note_on channel=4 note=45 velocity=55 time=0
EXTRACT: note_on channel=5 note=70 velocity=0 time=0
EXTRACT: note_on channel=5 note=65 velocity=0 time=0
EXTRACT: note_on channel=9 note=28 velocity=52 time=0
EXTRACT: note_on channel=3 note=67 velocity=105 time=0
EXTRACT: note_on channel=9 note=28 velocity=0 time=0
EXTRACT: note_on channel=4 note=60 velocity=79 time=0.0057471250000000005
EXTRACT: note_on channel=4 note=57 velocity=65 time=0
EXTRACT: note_on channel=4 note=65 velocity=72 time=0
EXTRACT: note_on channel=5 note=65 velocity=64 time=0
EXTRACT: note_on channel=5 note=70 velocity=63 time=0
EXTRACT: note_on channel=4 note=45 velocity=0 time=0.14942525
EXTRACT: note_on channel=2 note=33 velocity=80 time=0.011494250000000001
EXTRACT: note_on channel=4 note=60 velocity=0 time=0
EXTRACT: note_on channel=4 note=57 velocity=0 time=0
EXTRACT: note_on channel=4 note=65 velocity=0 time=0
EXTRACT: note_on channel=4 note=45 velocity=55 time=0
EXTRACT: note_on channel=5 note=70 velocity=0 time=0
EXTRACT: note_on channel=5 note=65 velocity=0 time=0
EXTRACT: note_on channel=9 note=36 velocity=110 time=0
EXTRACT: note_on channel=9 note=41 velocity=110 time=0
EXTRACT: note_on channel=9 note=41 velocity=0 time=0.0057471250000000005
EXTRACT: note_on channel=9 note=36 velocity=0 time=0
EXTRACT: note_on channel=4 note=60 velocity=65 time=0.0057471250000000005
EXTRACT: note_on channel=4 note=57 velocity=65 time=0
EXTRACT: note_on channel=4 note=65 velocity=65 time=0
EXTRACT: note_on channel=5 note=65 velocity=64 time=0
EXTRACT: note_on channel=5 note=70 velocity=64 time=0
EXTRACT: note_on channel=3 note=67 velocity=0 time=0.08045975000000001
EXTRACT: note_on channel=2 note=33 velocity=0 time=0.06321837500000001
EXTRACT: note_on channel=4 note=45 velocity=0 time=0.0057471250000000005
EXTRACT: note_on channel=2 note=31 velocity=95 time=0.011494250000000001
EXTRACT: note_on channel=4 note=60 velocity=0 time=0
EXTRACT: note_on channel=4 note=57 velocity=0 time=0
EXTRACT: note_on channel=4 note=65 velocity=0 time=0
EXTRACT: note_on channel=4 note=43 velocity=55 time=0
EXTRACT: note_on channel=5 note=70 velocity=0 time=0
EXTRACT: note_on channel=5 note=65 velocity=0 time=0
EXTRACT: note_on channel=5 note=62 velocity=65 time=0
EXTRACT: note_on channel=9 note=36 velocity=113 time=0
EXTRACT: note_on channel=9 note=41 velocity=110 time=0
EXTRACT: note_on channel=9 note=46 velocity=80 time=0
EXTRACT: note_on channel=5 note=67 velocity=74 time=0.0057471250000000005
EXTRACT: note_on channel=5 note=70 velocity=65 time=0
EXTRACT: note_on channel=9 note=46 velocity=0 time=0
EXTRACT: note_on channel=9 note=41 velocity=0 time=0
EXTRACT: note_on channel=9 note=36 velocity=0 time=0
EXTRACT: note_on channel=4 note=58 velocity=68 time=0.0057471250000000005
EXTRACT: note_on channel=4 note=62 velocity=68 time=0
EXTRACT: note_on channel=4 note=67 velocity=63 time=0
EXTRACT: note_on channel=4 note=55 velocity=62 time=0
EXTRACT: note_on channel=3 note=65 velocity=98 time=0
EXTRACT: note_on channel=3 note=65 velocity=0 time=0.132183875
EXTRACT: note_on channel=4 note=43 velocity=0 time=0.022988500000000002
EXTRACT: note_on channel=5 note=62 velocity=0 time=0
EXTRACT: note_on channel=5 note=70 velocity=0 time=0.0057471250000000005
EXTRACT: note_on channel=5 note=67 velocity=0 time=0
EXTRACT: note_on channel=4 note=67 velocity=0 time=0.0057471250000000005
EXTRACT: note_on channel=4 note=58 velocity=0 time=0
EXTRACT: note_on channel=4 note=62 velocity=0 time=0
EXTRACT: note_on channel=4 note=55 velocity=0 time=0
EXTRACT: note_on channel=4 note=43 velocity=55 time=0
EXTRACT: note_on channel=9 note=35 velocity=64 time=0
EXTRACT: note_on channel=9 note=38 velocity=64 time=0
EXTRACT: note_on channel=3 note=65 velocity=86 time=0
EXTRACT: note_on channel=9 note=38 velocity=0 time=0
EXTRACT: note_on channel=9 note=35 velocity=0 time=0
EXTRACT: note_on channel=4 note=58 velocity=62 time=0.0057471250000000005
EXTRACT: note_on channel=4 note=55 velocity=59 time=0
EXTRACT: note_on channel=4 note=67 velocity=58 time=0
EXTRACT: note_on channel=4 note=62 velocity=64 time=0
EXTRACT: note_on channel=5 note=67 velocity=59 time=0
EXTRACT: note_on channel=5 note=62 velocity=58 time=0
EXTRACT: note_on channel=5 note=70 velocity=58 time=0
EXTRACT: note_on channel=3 note=65 velocity=0 time=0.14367812500000002
EXTRACT: note_on channel=9 note=35 velocity=64 time=0.017241375000000003
EXTRACT: note_on channel=3 note=65 velocity=101 time=0
EXTRACT: note_on channel=9 note=35 velocity=0 time=0
EXTRACT: note_on channel=3 note=65 velocity=0 time=0.14367812500000002
EXTRACT: note_on channel=4 note=43 velocity=0 time=0.011494250000000001
EXTRACT: note_on channel=3 note=62 velocity=101 time=0
EXTRACT: note_on channel=2 note=31 velocity=0 time=0.0057471250000000005
EXTRACT: note_on channel=4 note=67 velocity=0 time=0
EXTRACT: note_on channel=4 note=58 velocity=0 time=0
EXTRACT: note_on channel=4 note=55 velocity=0 time=0
EXTRACT: note_on channel=4 note=62 velocity=0 time=0
EXTRACT: note_on channel=4 note=43 velocity=55 time=0
EXTRACT: note_on channel=5 note=70 velocity=0 time=0
EXTRACT: note_on channel=5 note=62 velocity=0 time=0
EXTRACT: note_on channel=5 note=67 velocity=0 time=0
EXTRACT: note_on channel=9 note=39 velocity=111 time=0
EXTRACT: note_on channel=9 note=39 velocity=0 time=0.0057471250000000005
EXTRACT: note_on channel=4 note=58 velocity=67 time=0.0057471250000000005
EXTRACT: note_on channel=4 note=55 velocity=65 time=0
EXTRACT: note_on channel=4 note=62 velocity=69 time=0
EXTRACT: note_on channel=4 note=67 velocity=61 time=0
EXTRACT: note_on channel=5 note=62 velocity=63 time=0
EXTRACT: note_on channel=5 note=67 velocity=70 time=0
EXTRACT: note_on channel=5 note=70 velocity=63 time=0
EXTRACT: note_on channel=3 note=62 velocity=0 time=0.12643675000000001
EXTRACT: note_on channel=9 note=37 velocity=57 time=0.034482750000000006
EXTRACT: note_on channel=3 note=62 velocity=100 time=0
EXTRACT: note_on channel=9 note=37 velocity=0 time=0
EXTRACT: note_on channel=3 note=62 velocity=0 time=0.155172375
EXTRACT: note_on channel=4 note=43 velocity=0 time=0
EXTRACT: note_on channel=4 note=62 velocity=0 time=0.011494250000000001
EXTRACT: note_on channel=4 note=58 velocity=0 time=0
EXTRACT: note_on channel=4 note=55 velocity=0 time=0
EXTRACT: note_on channel=4 note=67 velocity=0 time=0
EXTRACT: note_on channel=4 note=43 velocity=55 time=0
EXTRACT: note_on channel=5 note=70 velocity=0 time=0
EXTRACT: note_on channel=5 note=67 velocity=0 time=0
EXTRACT: note_on channel=5 note=62 velocity=0 time=0
EXTRACT: note_on channel=3 note=67 velocity=98 time=0
EXTRACT: note_on channel=4 note=58 velocity=60 time=0.0057471250000000005
EXTRACT: note_on channel=4 note=62 velocity=63 time=0
EXTRACT: note_on channel=4 note=55 velocity=58 time=0
EXTRACT: note_on channel=4 note=67 velocity=54 time=0
EXTRACT: note_on channel=5 note=67 velocity=59 time=0
EXTRACT: note_on channel=5 note=62 velocity=58 time=0
EXTRACT: note_on channel=5 note=70 velocity=57 time=0
EXTRACT: note_on channel=3 note=67 velocity=0 time=0.132183875
EXTRACT: note_on channel=4 note=43 velocity=0 time=0.017241375000000003
EXTRACT: note_on channel=4 note=55 velocity=0 time=0.011494250000000001
EXTRACT: note_on channel=4 note=58 velocity=0 time=0
EXTRACT: note_on channel=4 note=62 velocity=0 time=0
EXTRACT: note_on channel=4 note=67 velocity=0 time=0
EXTRACT: note_on channel=4 note=43 velocity=55 time=0
EXTRACT: note_on channel=5 note=70 velocity=0 time=0
EXTRACT: note_on channel=5 note=62 velocity=0 time=0
EXTRACT: note_on channel=5 note=67 velocity=0 time=0
EXTRACT: note_on channel=9 note=39 velocity=108 time=0
EXTRACT: note_on channel=3 note=63 velocity=100 time=0
EXTRACT: note_on channel=9 note=39 velocity=0 time=0
EXTRACT: note_on channel=4 note=58 velocity=71 time=0.0057471250000000005
EXTRACT: note_on channel=4 note=55 velocity=63 time=0
EXTRACT: note_on channel=4 note=62 velocity=71 time=0
EXTRACT: note_on channel=4 note=67 velocity=63 time=0
EXTRACT: note_on channel=5 note=62 velocity=63 time=0
EXTRACT: note_on channel=5 note=67 velocity=69 time=0
EXTRACT: note_on channel=5 note=70 velocity=63 time=0
EXTRACT: note_on channel=3 note=63 velocity=0 time=0.14942525
EXTRACT: note_on channel=3 note=62 velocity=100 time=0
EXTRACT: note_on channel=4 note=43 velocity=0 time=0.155172375
EXTRACT: note_on channel=4 note=62 velocity=0 time=0.011494250000000001
EXTRACT: note_on channel=4 note=58 velocity=0 time=0
EXTRACT: note_on channel=4 note=55 velocity=0 time=0
EXTRACT: note_on channel=4 note=67 velocity=0 time=0
EXTRACT: note_on channel=4 note=43 velocity=55 time=0
EXTRACT: note_on channel=5 note=70 velocity=0 time=0
EXTRACT: note_on channel=5 note=67 velocity=0 time=0
EXTRACT: note_on channel=5 note=62 velocity=0 time=0
EXTRACT: note_on channel=9 note=35 velocity=61 time=0
EXTRACT: note_on channel=9 note=37 velocity=59 time=0
EXTRACT: note_on channel=9 note=37 velocity=0 time=0.0057471250000000005
EXTRACT: note_on channel=9 note=35 velocity=0 time=0
EXTRACT: note_on channel=4 note=58 velocity=63 time=0.0057471250000000005
EXTRACT: note_on channel=4 note=62 velocity=64 time=0
EXTRACT: note_on channel=4 note=55 velocity=60 time=0
EXTRACT: note_on channel=4 note=67 velocity=58 time=0
EXTRACT: note_on channel=5 note=62 velocity=57 time=0
EXTRACT: note_on channel=5 note=67 velocity=59 time=0
EXTRACT: note_on channel=5 note=70 velocity=58 time=0
EXTRACT: note_on channel=3 note=62 velocity=0 time=0.040229875000000005
EXTRACT: note_on channel=4 note=43 velocity=0 time=0.10919537500000001
EXTRACT: note_on channel=4 note=55 velocity=0 time=0.011494250000000001
EXTRACT: note_on channel=4 note=58 velocity=0 time=0
EXTRACT: note_on channel=4 note=62 velocity=0 time=0
EXTRACT: note_on channel=4 note=67 velocity=0 time=0
EXTRACT: note_on channel=4 note=43 velocity=55 time=0
EXTRACT: note_on channel=5 note=70 velocity=0 time=0
EXTRACT: note_on channel=5 note=67 velocity=0 time=0
EXTRACT: note_on channel=5 note=62 velocity=0 time=0
EXTRACT: note_on channel=9 note=35 velocity=67 time=0
EXTRACT: note_on channel=9 note=37 velocity=64 time=0
EXTRACT: note_on channel=9 note=37 velocity=0 time=0.0057471250000000005
EXTRACT: note_on channel=9 note=35 velocity=0 time=0
EXTRACT: note_on channel=4 note=58 velocity=65 time=0.0057471250000000005
EXTRACT: note_on channel=4 note=55 velocity=58 time=0
EXTRACT: note_on channel=4 note=62 velocity=71 time=0
EXTRACT: note_on channel=4 note=67 velocity=60 time=0
EXTRACT: note_on channel=5 note=62 velocity=59 time=0
EXTRACT: note_on channel=5 note=67 velocity=67 time=0
EXTRACT: note_on channel=5 note=70 velocity=65 time=0
EXTRACT: note_on channel=4 note=43 velocity=0 time=0.32183900000000004
EXTRACT: note_on channel=3 note=67 velocity=104 time=0
EXTRACT: note_on channel=4 note=62 velocity=0 time=0.0057471250000000005
EXTRACT: note_on channel=4 note=58 velocity=0 time=0
EXTRACT: note_on channel=4 note=55 velocity=0 time=0
EXTRACT: note_on channel=4 note=67 velocity=0 time=0
EXTRACT: note_on channel=4 note=43 velocity=55 time=0
EXTRACT: note_on channel=5 note=70 velocity=0 time=0
EXTRACT: note_on channel=5 note=67 velocity=0 time=0
EXTRACT: note_on channel=5 note=62 velocity=0 time=0
EXTRACT: note_on channel=9 note=39 velocity=114 time=0
EXTRACT: note_on channel=9 note=39 velocity=0 time=0.0057471250000000005
EXTRACT: note_on channel=4 note=58 velocity=70 time=0.0057471250000000005
EXTRACT: note_on channel=4 note=55 velocity=63 time=0
EXTRACT: note_on channel=4 note=62 velocity=69 time=0
EXTRACT: note_on channel=4 note=67 velocity=63 time=0
EXTRACT: note_on channel=5 note=67 velocity=69 time=0
EXTRACT: note_on channel=5 note=62 velocity=65 time=0
EXTRACT: note_on channel=5 note=70 velocity=66 time=0
EXTRACT: note_on channel=3 note=67 velocity=0 time=0.132183875
EXTRACT: note_on channel=4 note=43 velocity=0 time=0.017241375000000003
EXTRACT: note_on channel=3 note=62 velocity=98 time=0
EXTRACT: note_on channel=4 note=62 velocity=0 time=0.0057471250000000005
EXTRACT: note_on channel=4 note=58 velocity=0 time=0
EXTRACT: note_on channel=4 note=55 velocity=0 time=0
EXTRACT: note_on channel=4 note=67 velocity=0 time=0
EXTRACT: note_on channel=4 note=43 velocity=55 time=0
EXTRACT: note_on channel=5 note=70 velocity=0 time=0
EXTRACT: note_on channel=5 note=62 velocity=0 time=0
EXTRACT: note_on channel=5 note=67 velocity=0 time=0
EXTRACT: note_on channel=9 note=35 velocity=61 time=0
EXTRACT: note_on channel=9 note=35 velocity=0 time=0.0057471250000000005
EXTRACT: note_on channel=4 note=58 velocity=65 time=0.0057471250000000005
EXTRACT: note_on channel=4 note=62 velocity=67 time=0
EXTRACT: note_on channel=4 note=55 velocity=57 time=0
EXTRACT: note_on channel=4 note=67 velocity=58 time=0
EXTRACT: note_on channel=5 note=62 velocity=48 time=0
EXTRACT: note_on channel=5 note=67 velocity=66 time=0
EXTRACT: note_on channel=5 note=70 velocity=63 time=0
EXTRACT: note_on channel=3 note=62 velocity=0 time=0.13793100000000003
EXTRACT: note_on channel=4 note=43 velocity=0 time=0.011494250000000001
EXTRACT: note_on channel=3 note=63 velocity=100 time=0
EXTRACT: note_on channel=4 note=55 velocity=0 time=0.0057471250000000005
EXTRACT: note_on channel=4 note=58 velocity=0 time=0
EXTRACT: note_on channel=4 note=62 velocity=0 time=0
EXTRACT: note_on channel=4 note=67 velocity=0 time=0
EXTRACT: note_on channel=4 note=43 velocity=55 time=0
EXTRACT: note_on channel=5 note=70 velocity=0 time=0
EXTRACT: note_on channel=5 note=67 velocity=0 time=0
EXTRACT: note_on channel=5 note=62 velocity=0 time=0
EXTRACT: note_on channel=9 note=28 velocity=51 time=0
EXTRACT: note_on channel=9 note=28 velocity=0 time=0.0057471250000000005
EXTRACT: note_on channel=4 note=58 velocity=68 time=0.0057471250000000005
EXTRACT: note_on channel=4 note=55 velocity=63 time=0
EXTRACT: note_on channel=4 note=62 velocity=69 time=0
EXTRACT: note_on channel=4 note=67 velocity=61 time=0
EXTRACT: note_on channel=5 note=62 velocity=55 time=0
EXTRACT: note_on channel=5 note=67 velocity=67 time=0
EXTRACT: note_on channel=5 note=70 velocity=63 time=0
EXTRACT: note_on channel=4 note=43 velocity=0 time=0.14942525
EXTRACT: note_on channel=4 note=62 velocity=0 time=0.011494250000000001
EXTRACT: note_on channel=4 note=58 velocity=0 time=0
EXTRACT: note_on channel=4 note=55 velocity=0 time=0
EXTRACT: note_on channel=4 note=67 velocity=0 time=0
EXTRACT: note_on channel=4 note=43 velocity=55 time=0
EXTRACT: note_on channel=5 note=70 velocity=0 time=0
EXTRACT: note_on channel=5 note=67 velocity=0 time=0
EXTRACT: note_on channel=5 note=62 velocity=0 time=0
EXTRACT: note_on channel=4 note=58 velocity=59 time=0.011494250000000001
EXTRACT: note_on channel=4 note=67 velocity=59 time=0
EXTRACT: note_on channel=4 note=55 velocity=59 time=0
EXTRACT: note_on channel=4 note=62 velocity=59 time=0
EXTRACT: note_on channel=5 note=62 velocity=63 time=0
EXTRACT: note_on channel=5 note=67 velocity=63 time=0
EXTRACT: note_on channel=5 note=70 velocity=63 time=0
EXTRACT: note_on channel=3 note=63 velocity=0 time=0.09195400000000001
EXTRACT: note_on channel=4 note=43 velocity=0 time=0.05747125
EXTRACT: note_on channel=2 note=27 velocity=97 time=0
EXTRACT: note_on channel=4 note=55 velocity=0 time=0
EXTRACT: note_on channel=4 note=58 velocity=0 time=0
EXTRACT: note_on channel=4 note=67 velocity=0 time=0
EXTRACT: note_on channel=4 note=62 velocity=0 time=0
EXTRACT: note_on channel=4 note=39 velocity=55 time=0
EXTRACT: note_on channel=5 note=70 velocity=0 time=0
EXTRACT: note_on channel=5 note=67 velocity=0 time=0
EXTRACT: note_on channel=5 note=62 velocity=0 time=0
EXTRACT: note_on channel=9 note=36 velocity=114 time=0
EXTRACT: note_on channel=9 note=41 velocity=110 time=0
EXTRACT: note_on channel=9 note=46 velocity=81 time=0
EXTRACT: note_on channel=3 note=63 velocity=105 time=0
EXTRACT: note_on channel=5 note=70 velocity=65 time=0
EXTRACT: note_on channel=9 note=46 velocity=0 time=0
EXTRACT: note_on channel=9 note=41 velocity=0 time=0
EXTRACT: note_on channel=9 note=36 velocity=0 time=0
EXTRACT: note_on channel=4 note=63 velocity=64 time=0.0057471250000000005
EXTRACT: note_on channel=4 note=67 velocity=63 time=0
EXTRACT: note_on channel=4 note=58 velocity=65 time=0
EXTRACT: note_on channel=4 note=55 velocity=64 time=0
EXTRACT: note_on channel=5 note=65 velocity=74 time=0
EXTRACT: note_on channel=3 note=63 velocity=0 time=0.10919537500000001
EXTRACT: note_on channel=3 note=63 velocity=100 time=0
EXTRACT: note_on channel=4 note=39 velocity=0 time=0.155172375
EXTRACT: note_on channel=5 note=70 velocity=0 time=0.0057471250000000005
EXTRACT: note_on channel=4 note=58 velocity=0 time=0.0057471250000000005
EXTRACT: note_on channel=4 note=63 velocity=0 time=0
EXTRACT: note_on channel=4 note=67 velocity=0 time=0
EXTRACT: note_on channel=4 note=55 velocity=0 time=0
EXTRACT: note_on channel=4 note=39 velocity=55 time=0
EXTRACT: note_on channel=5 note=65 velocity=0 time=0
EXTRACT: note_on channel=9 note=35 velocity=68 time=0
EXTRACT: note_on channel=9 note=38 velocity=68 time=0
EXTRACT: note_on channel=9 note=38 velocity=0 time=0.0057471250000000005
EXTRACT: note_on channel=9 note=35 velocity=0 time=0
EXTRACT: note_on channel=4 note=58 velocity=61 time=0.0057471250000000005
EXTRACT: note_on channel=4 note=63 velocity=63 time=0
EXTRACT: note_on channel=4 note=55 velocity=58 time=0
EXTRACT: note_on channel=4 note=67 velocity=56 time=0
EXTRACT: note_on channel=5 note=65 velocity=73 time=0
EXTRACT: note_on channel=5 note=70 velocity=63 time=0
EXTRACT: note_on channel=3 note=63 velocity=0 time=0.10919537500000001
EXTRACT: note_on channel=9 note=35 velocity=63 time=0.051724125
EXTRACT: note_on channel=3 note=63 velocity=103 time=0
EXTRACT: note_on channel=9 note=35 velocity=0 time=0
EXTRACT: note_on channel=3 note=63 velocity=0 time=0.12068962500000001
EXTRACT: note_on channel=4 note=39 velocity=0 time=0.034482750000000006
EXTRACT: note_on channel=3 note=65 velocity=101 time=0
EXTRACT: note_on channel=4 note=55 velocity=0 time=0
EXTRACT: note_on channel=4 note=58 velocity=0 time=0
EXTRACT: note_on channel=4 note=63 velocity=0 time=0
EXTRACT: note_on channel=4 note=67 velocity=0 time=0
EXTRACT: note_on channel=4 note=39 velocity=55 time=0
EXTRACT: note_on channel=5 note=70 velocity=0 time=0
EXTRACT: note_on channel=5 note=65 velocity=0 time=0
EXTRACT: note_on channel=9 note=39 velocity=110 time=0
EXTRACT: note_on channel=2 note=27 velocity=0 time=0.0057471250000000005
EXTRACT: note_on channel=9 note=39 velocity=0 time=0
EXTRACT: note_on channel=4 note=58 velocity=65 time=0.0057471250000000005
EXTRACT: note_on channel=4 note=67 velocity=65 time=0
EXTRACT: note_on channel=4 note=63 velocity=67 time=0
EXTRACT: note_on channel=4 note=55 velocity=62 time=0
EXTRACT: note_on channel=5 note=67 velocity=74 time=0
EXTRACT: note_on channel=5 note=70 velocity=76 time=0
EXTRACT: note_on channel=3 note=65 velocity=0 time=0.132183875
EXTRACT: note_on channel=9 note=37 velocity=57 time=0.028735625
EXTRACT: note_on channel=3 note=65 velocity=100 time=0
EXTRACT: note_on channel=9 note=37 velocity=0 time=0
EXTRACT: note_on channel=3 note=65 velocity=0 time=0.14942525
EXTRACT: note_on channel=4 note=39 velocity=0 time=0.0057471250000000005
EXTRACT: note_on channel=5 note=67 velocity=0 time=0
EXTRACT: note_on channel=4 note=63 velocity=0 time=0.011494250000000001
EXTRACT: note_on channel=4 note=58 velocity=0 time=0
EXTRACT: note_on channel=4 note=67 velocity=0 time=0
EXTRACT: note_on channel=4 note=55 velocity=0 time=0
EXTRACT: note_on channel=4 note=39 velocity=55 time=0
EXTRACT: note_on channel=5 note=70 velocity=0 time=0
EXTRACT: note_on channel=3 note=63 velocity=101 time=0
EXTRACT: note_on channel=4 note=58 velocity=59 time=0.0057471250000000005
EXTRACT: note_on channel=4 note=63 velocity=61 time=0
EXTRACT: note_on channel=4 note=67 velocity=58 time=0
EXTRACT: note_on channel=4 note=55 velocity=57 time=0
EXTRACT: note_on channel=5 note=65 velocity=67 time=0
EXTRACT: note_on channel=5 note=70 velocity=67 time=0
EXTRACT: note_on channel=4 note=39 velocity=0 time=0.14942525
EXTRACT: note_on channel=4 note=67 velocity=0 time=0.011494250000000001
EXTRACT: note_on channel=4 note=58 velocity=0 time=0
EXTRACT: note_on channel=4 note=63 velocity=0 time=0
EXTRACT: note_on channel=4 note=55 velocity=0 time=0
EXTRACT: note_on channel=4 note=39 velocity=55 time=0
EXTRACT: note_on channel=5 note=70 velocity=0 time=0
EXTRACT: note_on channel=5 note=65 velocity=0 time=0
EXTRACT: note_on channel=9 note=39 velocity=110 time=0
EXTRACT: note_on channel=9 note=39 velocity=0 time=0.0057471250000000005
EXTRACT: note_on channel=4 note=58 velocity=67 time=0.0057471250000000005
EXTRACT: note_on channel=4 note=55 velocity=61 time=0
EXTRACT: note_on channel=4 note=63 velocity=65 time=0
EXTRACT: note_on channel=4 note=67 velocity=59 time=0
EXTRACT: note_on channel=5 note=70 velocity=75 time=0
EXTRACT: note_on channel=5 note=67 velocity=75 time=0
EXTRACT: note_on channel=3 note=63 velocity=0 time=0.10919537500000001
EXTRACT: note_on channel=3 note=60 velocity=103 time=0
EXTRACT: note_on channel=4 note=39 velocity=0 time=0.155172375
EXTRACT: note_on channel=4 note=63 velocity=0 time=0.011494250000000001
EXTRACT: note_on channel=4 note=58 velocity=0 time=0
EXTRACT: note_on channel=4 note=55 velocity=0 time=0
EXTRACT: note_on channel=4 note=67 velocity=0 time=0
EXTRACT: note_on channel=4 note=39 velocity=55 time=0
EXTRACT: note_on channel=5 note=67 velocity=0 time=0
EXTRACT: note_on channel=5 note=70 velocity=0 time=0
EXTRACT: note_on channel=9 note=35 velocity=62 time=0
EXTRACT: note_on channel=9 note=37 velocity=59 time=0
EXTRACT: note_on channel=9 note=37 velocity=0 time=0.0057471250000000005
EXTRACT: note_on channel=9 note=35 velocity=0 time=0
EXTRACT: note_on channel=4 note=58 velocity=61 time=0.0057471250000000005
EXTRACT: note_on channel=4 note=67 velocity=59 time=0
EXTRACT: note_on channel=4 note=63 velocity=61 time=0
EXTRACT: note_on channel=4 note=55 velocity=58 time=0
EXTRACT: note_on channel=5 note=65 velocity=70 time=0
EXTRACT: note_on channel=5 note=70 velocity=67 time=0
EXTRACT: note_on channel=3 note=60 velocity=0 time=0.08045975000000001
EXTRACT: note_on channel=4 note=39 velocity=0 time=0.06896550000000001
EXTRACT: note_on channel=4 note=63 velocity=0 time=0.011494250000000001
EXTRACT: note_on channel=4 note=58 velocity=0 time=0
EXTRACT: note_on channel=4 note=67 velocity=0 time=0
EXTRACT: note_on channel=4 note=55 velocity=0 time=0
EXTRACT: note_on channel=4 note=39 velocity=55 time=0
EXTRACT: note_on channel=5 note=70 velocity=0 time=0
EXTRACT: note_on channel=5 note=65 velocity=0 time=0
EXTRACT: note_on channel=9 note=35 velocity=65 time=0
EXTRACT: note_on channel=9 note=37 velocity=63 time=0
EXTRACT: note_on channel=3 note=63 velocity=100 time=0
EXTRACT: note_on channel=9 note=37 velocity=0 time=0
EXTRACT: note_on channel=9 note=35 velocity=0 time=0
EXTRACT: note_on channel=4 note=58 velocity=68 time=0.0057471250000000005
EXTRACT: note_on channel=4 note=67 velocity=65 time=0
EXTRACT: note_on channel=4 note=63 velocity=68 time=0
EXTRACT: note_on channel=4 note=55 velocity=60 time=0
EXTRACT: note_on channel=5 note=65 velocity=81 time=0
EXTRACT: note_on channel=5 note=70 velocity=74 time=0
EXTRACT: note_on channel=3 note=63 velocity=0 time=0.14367812500000002
EXTRACT: note_on channel=3 note=63 velocity=100 time=0
EXTRACT: note_on channel=4 note=39 velocity=0 time=0.155172375
EXTRACT: note_on channel=3 note=63 velocity=0 time=0.0057471250000000005
EXTRACT: note_on channel=4 note=63 velocity=0 time=0.0057471250000000005
EXTRACT: note_on channel=4 note=58 velocity=0 time=0
EXTRACT: note_on channel=4 note=67 velocity=0 time=0
EXTRACT: note_on channel=4 note=55 velocity=0 time=0
EXTRACT: note_on channel=4 note=39 velocity=55 time=0
EXTRACT: note_on channel=5 note=70 velocity=0 time=0
EXTRACT: note_on channel=5 note=65 velocity=0 time=0
EXTRACT: note_on channel=9 note=39 velocity=109 time=0
EXTRACT: note_on channel=3 note=60 velocity=101 time=0
EXTRACT: note_on channel=9 note=39 velocity=0 time=0
EXTRACT: note_on channel=4 note=67 velocity=65 time=0.0057471250000000005
EXTRACT: note_on channel=4 note=58 velocity=69 time=0
EXTRACT: note_on channel=4 note=63 velocity=69 time=0
EXTRACT: note_on channel=4 note=55 velocity=63 time=0
EXTRACT: note_on channel=5 note=70 velocity=66 time=0
EXTRACT: note_on channel=5 note=65 velocity=66 time=0
EXTRACT: note_on channel=3 note=60 velocity=0 time=0.14367812500000002
EXTRACT: note_on channel=4 note=39 velocity=0 time=0.0057471250000000005
EXTRACT: note_on channel=4 note=63 velocity=0 time=0.011494250000000001
EXTRACT: note_on channel=4 note=67 velocity=0 time=0
EXTRACT: note_on channel=4 note=58 velocity=0 time=0
EXTRACT: note_on channel=4 note=55 velocity=0 time=0
EXTRACT: note_on channel=4 note=39 velocity=55 time=0
EXTRACT: note_on channel=5 note=65 velocity=0 time=0
EXTRACT: note_on channel=5 note=70 velocity=0 time=0
EXTRACT: note_on channel=9 note=35 velocity=62 time=0
EXTRACT: note_on channel=3 note=60 velocity=98 time=0
EXTRACT: note_on channel=9 note=35 velocity=0 time=0
EXTRACT: note_on channel=4 note=58 velocity=67 time=0.0057471250000000005
EXTRACT: note_on channel=4 note=63 velocity=67 time=0
EXTRACT: note_on channel=4 note=67 velocity=60 time=0
EXTRACT: note_on channel=4 note=55 velocity=61 time=0
EXTRACT: note_on channel=5 note=65 velocity=64 time=0
EXTRACT: note_on channel=5 note=70 velocity=69 time=0
EXTRACT: note_on channel=3 note=60 velocity=0 time=0.14942525
EXTRACT: note_on channel=4 note=39 velocity=0 time=0
EXTRACT: note_on channel=4 note=67 velocity=0 time=0.011494250000000001
EXTRACT: note_on channel=4 note=58 velocity=0 time=0
EXTRACT: note_on channel=4 note=63 velocity=0 time=0
EXTRACT: note_on channel=4 note=55 velocity=0 time=0
EXTRACT: note_on channel=4 note=39 velocity=55 time=0
EXTRACT: note_on channel=5 note=70 velocity=0 time=0
EXTRACT: note_on channel=5 note=65 velocity=0 time=0
EXTRACT: note_on channel=9 note=38 velocity=66 time=0
EXTRACT: note_on channel=9 note=28 velocity=52 time=0
EXTRACT: note_on channel=3 note=63 velocity=100 time=0
EXTRACT: note_on channel=9 note=28 velocity=0 time=0
EXTRACT: note_on channel=9 note=38 velocity=0 time=0
EXTRACT: note_on channel=4 note=58 velocity=66 time=0.0057471250000000005
EXTRACT: note_on channel=4 note=67 velocity=60 time=0
EXTRACT: note_on channel=4 note=63 velocity=69 time=0
EXTRACT: note_on channel=4 note=55 velocity=60 time=0
EXTRACT: note_on channel=5 note=65 velocity=70 time=0
EXTRACT: note_on channel=5 note=70 velocity=68 time=0
EXTRACT: note_on channel=4 note=39 velocity=0 time=0.14942525
EXTRACT: note_on channel=4 note=63 velocity=0 time=0.011494250000000001
EXTRACT: note_on channel=4 note=58 velocity=0 time=0
EXTRACT: note_on channel=4 note=67 velocity=0 time=0
EXTRACT: note_on channel=4 note=55 velocity=0 time=0
EXTRACT: note_on channel=4 note=39 velocity=55 time=0
EXTRACT: note_on channel=5 note=70 velocity=0 time=0
EXTRACT: note_on channel=5 note=65 velocity=0 time=0
EXTRACT: note_on channel=9 note=36 velocity=110 time=0
EXTRACT: note_on channel=9 note=36 velocity=0 time=0.0057471250000000005
EXTRACT: note_on channel=4 note=67 velocity=57 time=0.0057471250000000005
EXTRACT: note_on channel=4 note=58 velocity=57 time=0
EXTRACT: note_on channel=4 note=55 velocity=57 time=0
EXTRACT: note_on channel=4 note=63 velocity=57 time=0
EXTRACT: note_on channel=5 note=65 velocity=63 time=0
EXTRACT: note_on channel=5 note=70 velocity=63 time=0
EXTRACT: note_on channel=3 note=63 velocity=0 time=0.09770112500000001
EXTRACT: note_on channel=2 note=34 velocity=96 time=0.051724125
EXTRACT: note_on channel=4 note=39 velocity=0 time=0
EXTRACT: note_on channel=3 note=62 velocity=102 time=0
EXTRACT: note_on channel=4 note=55 velocity=0 time=0.0057471250000000005
EXTRACT: note_on channel=4 note=67 velocity=0 time=0
EXTRACT: note_on channel=4 note=58 velocity=0 time=0
EXTRACT: note_on channel=4 note=63 velocity=0 time=0
EXTRACT: note_on channel=4 note=46 velocity=55 time=0
EXTRACT: note_on channel=5 note=70 velocity=0 time=0
EXTRACT: note_on channel=5 note=65 velocity=0 time=0
EXTRACT: note_on channel=9 note=36 velocity=113 time=0
EXTRACT: note_on channel=9 note=41 velocity=110 time=0
EXTRACT: note_on channel=9 note=46 velocity=80 time=0
EXTRACT: note_on channel=9 note=46 velocity=0 time=0.0057471250000000005
EXTRACT: note_on channel=9 note=41 velocity=0 time=0
EXTRACT: note_on channel=9 note=36 velocity=0 time=0
EXTRACT: note_on channel=4 note=58 velocity=74 time=0.0057471250000000005
EXTRACT: note_on channel=4 note=62 velocity=69 time=0
EXTRACT: note_on channel=4 note=65 velocity=66 time=0
EXTRACT: note_on channel=4 note=53 velocity=66 time=0
EXTRACT: note_on channel=5 note=65 velocity=74 time=0
EXTRACT: note_on channel=5 note=70 velocity=63 time=0
EXTRACT: note_on channel=3 note=62 velocity=0 time=0.12068962500000001
EXTRACT: note_on channel=3 note=62 velocity=95 time=0
EXTRACT: note_on channel=3 note=62 velocity=0 time=0.14367812500000002
EXTRACT: note_on channel=4 note=46 velocity=0 time=0.022988500000000002
EXTRACT: note_on channel=3 note=62 velocity=104 time=0
EXTRACT: note_on channel=4 note=65 velocity=0 time=0.0057471250000000005
EXTRACT: note_on channel=4 note=58 velocity=0 time=0
EXTRACT: note_on channel=4 note=62 velocity=0 time=0
EXTRACT: note_on channel=4 note=53 velocity=0 time=0
EXTRACT: note_on channel=4 note=46 velocity=55 time=0
EXTRACT: note_on channel=5 note=70 velocity=0 time=0
EXTRACT: note_on channel=5 note=65 velocity=0 time=0
EXTRACT: note_on channel=9 note=35 velocity=64 time=0
EXTRACT: note_on channel=9 note=38 velocity=64 time=0
EXTRACT: note_on channel=9 note=38 velocity=0 time=0.0057471250000000005
EXTRACT: note_on channel=9 note=35 velocity=0 time=0
EXTRACT: note_on channel=4 note=53 velocity=60 time=0.0057471250000000005
EXTRACT: note_on channel=4 note=58 velocity=61 time=0
EXTRACT: note_on channel=4 note=62 velocity=61 time=0
EXTRACT: note_on channel=4 note=65 velocity=59 time=0
EXTRACT: note_on channel=5 note=70 velocity=62 time=0
EXTRACT: note_on channel=5 note=65 velocity=64 time=0
EXTRACT: note_on channel=3 note=62 velocity=0 time=0.14367812500000002
EXTRACT: note_on channel=9 note=35 velocity=64 time=0.017241375000000003
EXTRACT: note_on channel=3 note=65 velocity=98 time=0
EXTRACT: note_on channel=9 note=35 velocity=0 time=0
EXTRACT: note_on channel=4 note=46 velocity=0 time=0.155172375
EXTRACT: note_on channel=4 note=62 velocity=0 time=0.011494250000000001
EXTRACT: note_on channel=4 note=53 velocity=0 time=0
EXTRACT: note_on channel=4 note=58 velocity=0 time=0
EXTRACT: note_on channel=4 note=65 velocity=0 time=0
EXTRACT: note_on channel=4 note=46 velocity=55 time=0
EXTRACT: note_on channel=5 note=65 velocity=0 time=0
EXTRACT: note_on channel=5 note=70 velocity=0 time=0
EXTRACT: note_on channel=9 note=39 velocity=111 time=0
EXTRACT: note_on channel=2 note=34 velocity=0 time=0.0057471250000000005
EXTRACT: note_on channel=5 note=65 velocity=74 time=0
EXTRACT: note_on channel=9 note=39 velocity=0 time=0
EXTRACT: note_on channel=4 note=58 velocity=65 time=0.0057471250000000005
EXTRACT: note_on channel=4 note=53 velocity=64 time=0
EXTRACT: note_on channel=4 note=62 velocity=67 time=0
EXTRACT: note_on channel=4 note=65 velocity=63 time=0
EXTRACT: note_on channel=5 note=70 velocity=65 time=0
EXTRACT: note_on channel=3 note=65 velocity=0 time=0.13793100000000003
EXTRACT: note_on channel=9 note=37 velocity=57 time=0.022988500000000002
EXTRACT: note_on channel=3 note=62 velocity=103 time=0
EXTRACT: note_on channel=9 note=37 velocity=0 time=0
EXTRACT: note_on channel=3 note=62 velocity=0 time=0.14942525
EXTRACT: note_on channel=4 note=46 velocity=0 time=0.0057471250000000005
EXTRACT: note_on channel=5 note=65 velocity=0 time=0.0057471250000000005
EXTRACT: note_on channel=4 note=62 velocity=0 time=0.0057471250000000005
EXTRACT: note_on channel=4 note=58 velocity=0 time=0
EXTRACT: note_on channel=4 note=53 velocity=0 time=0
EXTRACT: note_on channel=4 note=65 velocity=0 time=0
EXTRACT: note_on channel=4 note=46 velocity=55 time=0
EXTRACT: note_on channel=5 note=70 velocity=0 time=0
EXTRACT: note_on channel=5 note=70 velocity=61 time=0
EXTRACT: note_on channel=5 note=65 velocity=64 time=0
EXTRACT: note_on channel=3 note=62 velocity=104 time=0
EXTRACT: note_on channel=4 note=53 velocity=60 time=0.0057471250000000005
EXTRACT: note_on channel=4 note=62 velocity=64 time=0
EXTRACT: note_on channel=4 note=58 velocity=59 time=0
EXTRACT: note_on channel=4 note=65 velocity=59 time=0
EXTRACT: note_on channel=3 note=62 velocity=0 time=0.12643675000000001
EXTRACT: note_on channel=4 note=46 velocity=0 time=0.022988500000000002
EXTRACT: note_on channel=5 note=65 velocity=0 time=0
EXTRACT: note_on channel=5 note=70 velocity=0 time=0
EXTRACT: note_on channel=4 note=58 velocity=0 time=0.011494250000000001
EXTRACT: note_on channel=4 note=53 velocity=0 time=0
EXTRACT: note_on channel=4 note=62 velocity=0 time=0
EXTRACT: note_on channel=4 note=65 velocity=0 time=0
EXTRACT: note_on channel=4 note=46 velocity=55 time=0
EXTRACT: note_on channel=5 note=70 velocity=65 time=0
EXTRACT: note_on channel=5 note=65 velocity=72 time=0
EXTRACT: note_on channel=9 note=39 velocity=108 time=0
EXTRACT: note_on channel=3 note=62 velocity=105 time=0
EXTRACT: note_on channel=9 note=39 velocity=0 time=0
EXTRACT: note_on channel=4 note=58 velocity=67 time=0.0057471250000000005
EXTRACT: note_on channel=4 note=53 velocity=63 time=0
EXTRACT: note_on channel=4 note=65 velocity=60 time=0
EXTRACT: note_on channel=4 note=62 velocity=66 time=0
EXTRACT: note_on channel=3 note=62 velocity=0 time=0.132183875
EXTRACT: note_on channel=3 note=62 velocity=107 time=0
EXTRACT: note_on channel=3 note=62 velocity=0 time=0.132183875
EXTRACT: note_on channel=4 note=46 velocity=0 time=0.034482750000000006
EXTRACT: note_on channel=5 note=65 velocity=0 time=0
EXTRACT: note_on channel=5 note=70 velocity=0 time=0
EXTRACT: note_on channel=3 note=62 velocity=95 time=0
EXTRACT: note_on channel=4 note=65 velocity=0 time=0.0057471250000000005
EXTRACT: note_on channel=4 note=58 velocity=0 time=0
EXTRACT: note_on channel=4 note=53 velocity=0 time=0
EXTRACT: note_on channel=4 note=62 velocity=0 time=0
EXTRACT: note_on channel=4 note=46 velocity=55 time=0
EXTRACT: note_on channel=5 note=70 velocity=60 time=0
EXTRACT: note_on channel=5 note=65 velocity=64 time=0
EXTRACT: note_on channel=9 note=35 velocity=61 time=0
EXTRACT: note_on channel=9 note=37 velocity=59 time=0
EXTRACT: note_on channel=9 note=37 velocity=0 time=0.0057471250000000005
EXTRACT: note_on channel=9 note=35 velocity=0 time=0
EXTRACT: note_on channel=4 note=58 velocity=65 time=0.0057471250000000005
EXTRACT: note_on channel=4 note=53 velocity=63 time=0
EXTRACT: note_on channel=4 note=62 velocity=65 time=0
EXTRACT: note_on channel=4 note=65 velocity=59 time=0
EXTRACT: note_on channel=3 note=62 velocity=0 time=0.12643675000000001
EXTRACT: note_on channel=4 note=46 velocity=0 time=0.022988500000000002
EXTRACT: note_on channel=5 note=65 velocity=0 time=0
EXTRACT: note_on channel=5 note=70 velocity=0 time=0
EXTRACT: note_on channel=3 note=65 velocity=99 time=0
EXTRACT: note_on channel=4 note=62 velocity=0 time=0
EXTRACT: note_on channel=4 note=58 velocity=0 time=0
EXTRACT: note_on channel=4 note=53 velocity=0 time=0
EXTRACT: note_on channel=4 note=65 velocity=0 time=0
EXTRACT: note_on channel=4 note=46 velocity=55 time=0
EXTRACT: note_on channel=5 note=65 velocity=70 time=0
EXTRACT: note_on channel=5 note=70 velocity=65 time=0
EXTRACT: note_on channel=9 note=35 velocity=67 time=0
EXTRACT: note_on channel=9 note=37 velocity=64 time=0
EXTRACT: note_on channel=9 note=37 velocity=0 time=0.0057471250000000005
EXTRACT: note_on channel=9 note=35 velocity=0 time=0
EXTRACT: note_on channel=4 note=58 velocity=64 time=0.0057471250000000005
EXTRACT: note_on channel=4 note=53 velocity=64 time=0
EXTRACT: note_on channel=4 note=62 velocity=64 time=0
EXTRACT: note_on channel=4 note=65 velocity=59 time=0
EXTRACT: note_on channel=3 note=65 velocity=0 time=0.132183875
EXTRACT: note_on channel=3 note=65 velocity=95 time=0
EXTRACT: note_on channel=3 note=65 velocity=0 time=0.12643675000000001
EXTRACT: note_on channel=4 note=46 velocity=0 time=0.028735625
EXTRACT: note_on channel=5 note=70 velocity=0 time=0
EXTRACT: note_on channel=5 note=65 velocity=0 time=0
EXTRACT: note_on channel=3 note=62 velocity=102 time=0
EXTRACT: note_on channel=4 note=62 velocity=0 time=0.0057471250000000005
EXTRACT: note_on channel=4 note=58 velocity=0 time=0
EXTRACT: note_on channel=4 note=53 velocity=0 time=0
EXTRACT: note_on channel=4 note=65 velocity=0 time=0
EXTRACT: note_on channel=4 note=46 velocity=55 time=0
EXTRACT: note_on channel=9 note=39 velocity=114 time=0
EXTRACT: note_on channel=9 note=39 velocity=0 time=0.0057471250000000005
EXTRACT: note_on channel=4 note=58 velocity=75 time=0.0057471250000000005
EXTRACT: note_on channel=4 note=53 velocity=66 time=0
EXTRACT: note_on channel=4 note=62 velocity=69 time=0
EXTRACT: note_on channel=4 note=65 velocity=63 time=0
EXTRACT: note_on channel=5 note=70 velocity=72 time=0
EXTRACT: note_on channel=5 note=65 velocity=72 time=0
EXTRACT: note_on channel=3 note=62 velocity=0 time=0.12643675000000001
EXTRACT: note_on channel=4 note=46 velocity=0 time=0.022988500000000002
EXTRACT: note_on channel=3 note=62 velocity=104 time=0
EXTRACT: note_on channel=4 note=62 velocity=0 time=0
EXTRACT: note_on channel=4 note=58 velocity=0 time=0
EXTRACT: note_on channel=4 note=53 velocity=0 time=0
EXTRACT: note_on channel=4 note=65 velocity=0 time=0
EXTRACT: note_on channel=4 note=46 velocity=55 time=0
EXTRACT: note_on channel=5 note=65 velocity=0 time=0
EXTRACT: note_on channel=5 note=70 velocity=0 time=0
EXTRACT: note_on channel=9 note=35 velocity=61 time=0
EXTRACT: note_on channel=9 note=35 velocity=0 time=0.0057471250000000005
EXTRACT: note_on channel=4 note=58 velocity=66 time=0.0057471250000000005
EXTRACT: note_on channel=4 note=53 velocity=64 time=0
EXTRACT: note_on channel=4 note=65 velocity=59 time=0
EXTRACT: note_on channel=4 note=62 velocity=66 time=0
EXTRACT: note_on channel=5 note=65 velocity=65 time=0
EXTRACT: note_on channel=5 note=70 velocity=63 time=0
EXTRACT: note_on channel=3 note=62 velocity=0 time=0.12643675000000001
EXTRACT: note_on channel=4 note=46 velocity=0 time=0.022988500000000002
EXTRACT: note_on channel=4 note=65 velocity=0 time=0.011494250000000001
EXTRACT: note_on channel=4 note=58 velocity=0 time=0
EXTRACT: note_on channel=4 note=53 velocity=0 time=0
EXTRACT: note_on channel=4 note=62 velocity=0 time=0
EXTRACT: note_on channel=4 note=46 velocity=55 time=0
EXTRACT: note_on channel=5 note=70 velocity=0 time=0
EXTRACT: note_on channel=5 note=65 velocity=0 time=0
EXTRACT: note_on channel=9 note=28 velocity=51 time=0
EXTRACT: note_on channel=3 note=65 velocity=107 time=0
EXTRACT: note_on channel=9 note=28 velocity=0 time=0
EXTRACT: note_on channel=4 note=53 velocity=60 time=0.0057471250000000005
EXTRACT: note_on channel=4 note=58 velocity=63 time=0
EXTRACT: note_on channel=4 note=62 velocity=66 time=0
EXTRACT: note_on channel=4 note=65 velocity=58 time=0
EXTRACT: note_on channel=5 note=65 velocity=65 time=0
EXTRACT: note_on channel=5 note=70 velocity=61 time=0
EXTRACT: note_on channel=4 note=46 velocity=0 time=0.14942525
EXTRACT: note_on channel=4 note=62 velocity=0 time=0.011494250000000001
EXTRACT: note_on channel=4 note=53 velocity=0 time=0
EXTRACT: note_on channel=4 note=58 velocity=0 time=0
EXTRACT: note_on channel=4 note=65 velocity=0 time=0
EXTRACT: note_on channel=4 note=46 velocity=55 time=0
EXTRACT: note_on channel=5 note=70 velocity=0 time=0
EXTRACT: note_on channel=5 note=65 velocity=0 time=0
EXTRACT: note_on channel=4 note=58 velocity=57 time=0.011494250000000001
EXTRACT: note_on channel=4 note=62 velocity=57 time=0
EXTRACT: note_on channel=4 note=65 velocity=57 time=0
EXTRACT: note_on channel=4 note=53 velocity=57 time=0
EXTRACT: note_on channel=5 note=65 velocity=63 time=0
EXTRACT: note_on channel=5 note=70 velocity=60 time=0
EXTRACT: note_on channel=3 note=65 velocity=0 time=0.09195400000000001
EXTRACT: note_on channel=4 note=46 velocity=0 time=0.05747125
EXTRACT: note_on channel=2 note=33 velocity=97 time=0.011494250000000001
EXTRACT: note_on channel=4 note=65 velocity=0 time=0
EXTRACT: note_on channel=4 note=58 velocity=0 time=0
EXTRACT: note_on channel=4 note=62 velocity=0 time=0
EXTRACT: note_on channel=4 note=53 velocity=0 time=0
EXTRACT: note_on channel=4 note=45 velocity=55 time=0
EXTRACT: note_on channel=5 note=70 velocity=0 time=0
EXTRACT: note_on channel=5 note=65 velocity=0 time=0
EXTRACT: note_on channel=9 note=36 velocity=114 time=0
EXTRACT: note_on channel=9 note=41 velocity=110 time=0
EXTRACT: note_on channel=9 note=46 velocity=81 time=0
EXTRACT: note_on channel=3 note=62 velocity=105 time=0
EXTRACT: note_on channel=9 note=46 velocity=0 time=0
EXTRACT: note_on channel=9 note=41 velocity=0 time=0
EXTRACT: note_on channel=9 note=36 velocity=0 time=0
EXTRACT: note_on channel=4 note=60 velocity=69 time=0.0057471250000000005
EXTRACT: note_on channel=4 note=57 velocity=69 time=0
EXTRACT: note_on channel=4 note=65 velocity=69 time=0
EXTRACT: note_on channel=5 note=65 velocity=76 time=0
EXTRACT: note_on channel=5 note=70 velocity=69 time=0
EXTRACT: note_on channel=3 note=62 velocity=0 time=0.132183875
EXTRACT: note_on channel=3 note=65 velocity=98 time=0
EXTRACT: note_on channel=3 note=65 velocity=0 time=0.14367812500000002
EXTRACT: note_on channel=4 note=45 velocity=0 time=0.011494250000000001
EXTRACT: note_on channel=3 note=62 velocity=105 time=0
EXTRACT: note_on channel=4 note=60 velocity=0 time=0
EXTRACT: note_on channel=4 note=57 velocity=0 time=0
EXTRACT: note_on channel=4 note=65 velocity=0 time=0
EXTRACT: note_on channel=4 note=45 velocity=55 time=0
EXTRACT: note_on channel=5 note=70 velocity=0 time=0
EXTRACT: note_on channel=5 note=65 velocity=0 time=0
EXTRACT: note_on channel=9 note=35 velocity=68 time=0
EXTRACT: note_on channel=9 note=38 velocity=68 time=0
EXTRACT: note_on channel=9 note=38 velocity=0 time=0.0057471250000000005
EXTRACT: note_on channel=9 note=35 velocity=0 time=0
EXTRACT: note_on channel=4 note=57 velocity=59 time=0.0057471250000000005
EXTRACT: note_on channel=4 note=60 velocity=70 time=0
EXTRACT: note_on channel=4 note=65 velocity=66 time=0
EXTRACT: note_on channel=5 note=70 velocity=67 time=0
EXTRACT: note_on channel=5 note=65 velocity=71 time=0
EXTRACT: note_on channel=3 note=62 velocity=0 time=0.132183875
EXTRACT: note_on channel=9 note=35 velocity=63 time=0.028735625
EXTRACT: note_on channel=3 note=62 velocity=106 time=0
EXTRACT: note_on channel=9 note=35 velocity=0 time=0
EXTRACT: note_on channel=4 note=45 velocity=0 time=0.155172375
EXTRACT: note_on channel=2 note=33 velocity=0 time=0.0057471250000000005
EXTRACT: note_on channel=4 note=57 velocity=0 time=0.0057471250000000005
EXTRACT: note_on channel=4 note=60 velocity=0 time=0
EXTRACT: note_on channel=4 note=65 velocity=0 time=0
EXTRACT: note_on channel=4 note=45 velocity=55 time=0
EXTRACT: note_on channel=5 note=65 velocity=0 time=0
EXTRACT: note_on channel=5 note=70 velocity=0 time=0
EXTRACT: note_on channel=9 note=39 velocity=110 time=0
EXTRACT: note_on channel=9 note=39 velocity=0 time=0.0057471250000000005
EXTRACT: note_on channel=4 note=60 velocity=75 time=0.0057471250000000005
EXTRACT: note_on channel=4 note=65 velocity=75 time=0
EXTRACT: note_on channel=4 note=57 velocity=75 time=0
EXTRACT: note_on channel=5 note=70 velocity=65 time=0
EXTRACT: note_on channel=5 note=65 velocity=71 time=0
EXTRACT: note_on channel=3 note=62 velocity=0 time=0.09770112500000001
EXTRACT: note_on channel=9 note=37 velocity=57 time=0.06321837500000001
EXTRACT: note_on channel=3 note=62 velocity=104 time=0
EXTRACT: note_on channel=9 note=37 velocity=0 time=0
EXTRACT: note_on channel=3 note=62 velocity=0 time=0.12643675000000001
EXTRACT: note_on channel=4 note=45 velocity=0 time=0.028735625
EXTRACT: note_on channel=3 note=62 velocity=104 time=0
EXTRACT: note_on channel=4 note=60 velocity=0 time=0.0057471250000000005
EXTRACT: note_on channel=4 note=65 velocity=0 time=0
EXTRACT: note_on channel=4 note=57 velocity=0 time=0
EXTRACT: note_on channel=4 note=45 velocity=55 time=0
EXTRACT: note_on channel=5 note=65 velocity=0 time=0
EXTRACT: note_on channel=5 note=70 velocity=0 time=0
EXTRACT: note_on channel=4 note=57 velocity=60 time=0.011494250000000001
EXTRACT: note_on channel=4 note=65 velocity=60 time=0
EXTRACT: note_on channel=4 note=60 velocity=59 time=0
EXTRACT: note_on channel=5 note=65 velocity=64 time=0
EXTRACT: note_on channel=5 note=70 velocity=59 time=0
EXTRACT: note_on channel=3 note=62 velocity=0 time=0.06321837500000001
EXTRACT: note_on channel=3 note=67 velocity=95 time=0
EXTRACT: note_on channel=4 note=45 velocity=0 time=0.051724125
EXTRACT: note_on channel=4 note=57 velocity=0 time=0.011494250000000001
EXTRACT: note_on channel=4 note=65 velocity=0 time=0
EXTRACT: note_on channel=4 note=60 velocity=0 time=0
EXTRACT: note_on channel=4 note=45 velocity=55 time=0
EXTRACT: note_on channel=5 note=70 velocity=0 time=0
EXTRACT: note_on channel=5 note=65 velocity=0 time=0
EXTRACT: note_on channel=9 note=39 velocity=110 time=0
EXTRACT: note_on channel=9 note=39 velocity=0 time=0.0057471250000000005
EXTRACT: note_on channel=4 note=60 velocity=74 time=0.0057471250000000005
EXTRACT: note_on channel=4 note=57 velocity=74 time=0
EXTRACT: note_on channel=4 note=65 velocity=74 time=0
EXTRACT: note_on channel=5 note=65 velocity=69 time=0
EXTRACT: note_on channel=5 note=70 velocity=65 time=0
EXTRACT: note_on channel=3 note=67 velocity=0 time=0.045977000000000004
EXTRACT: note_on channel=3 note=62 velocity=102 time=0
EXTRACT: note_on channel=3 note=62 velocity=0 time=0.09195400000000001
EXTRACT: note_on channel=3 note=60 velocity=104 time=0
EXTRACT: note_on channel=3 note=60 velocity=0 time=0.13793100000000003
EXTRACT: note_on channel=4 note=45 velocity=0 time=0.017241375000000003
EXTRACT: note_on channel=4 note=60 velocity=0 time=0.011494250000000001
EXTRACT: note_on channel=4 note=57 velocity=0 time=0
EXTRACT: note_on channel=4 note=65 velocity=0 time=0
EXTRACT: note_on channel=4 note=45 velocity=55 time=0
EXTRACT: note_on channel=5 note=70 velocity=0 time=0
EXTRACT: note_on channel=5 note=65 velocity=0 time=0
EXTRACT: note_on channel=9 note=35 velocity=62 time=0
EXTRACT: note_on channel=9 note=37 velocity=59 time=0
EXTRACT: note_on channel=3 note=60 velocity=105 time=0
EXTRACT: note_on channel=9 note=37 velocity=0 time=0
EXTRACT: note_on channel=9 note=35 velocity=0 time=0
EXTRACT: note_on channel=4 note=60 velocity=70 time=0.0057471250000000005
EXTRACT: note_on channel=4 note=57 velocity=63 time=0
EXTRACT: note_on channel=4 note=65 velocity=69 time=0
EXTRACT: note_on channel=5 note=65 velocity=72 time=0
EXTRACT: note_on channel=5 note=70 velocity=67 time=0
EXTRACT: note_on channel=4 note=45 velocity=0 time=0.14942525
EXTRACT: note_on channel=4 note=60 velocity=0 time=0.011494250000000001
EXTRACT: note_on channel=4 note=57 velocity=0 time=0
EXTRACT: note_on channel=4 note=65 velocity=0 time=0
EXTRACT: note_on channel=4 note=45 velocity=55 time=0
EXTRACT: note_on channel=5 note=70 velocity=0 time=0
EXTRACT: note_on channel=5 note=65 velocity=0 time=0
EXTRACT: note_on channel=9 note=35 velocity=65 time=0
EXTRACT: note_on channel=9 note=37 velocity=63 time=0
EXTRACT: note_on channel=9 note=37 velocity=0 time=0.0057471250000000005
EXTRACT: note_on channel=9 note=35 velocity=0 time=0
EXTRACT: note_on channel=4 note=60 velocity=75 time=0.0057471250000000005
EXTRACT: note_on channel=4 note=57 velocity=64 time=0
EXTRACT: note_on channel=4 note=65 velocity=71 time=0
EXTRACT: note_on channel=5 note=65 velocity=69 time=0
EXTRACT: note_on channel=5 note=70 velocity=64 time=0
EXTRACT: note_on channel=3 note=60 velocity=0 time=0.06896550000000001
EXTRACT: note_on channel=3 note=62 velocity=90 time=0
EXTRACT: note_on channel=3 note=62 velocity=0 time=0.14367812500000002
EXTRACT: note_on channel=4 note=45 velocity=0 time=0.022988500000000002
EXTRACT: note_on channel=4 note=60 velocity=0 time=0.011494250000000001
EXTRACT: note_on channel=4 note=57 velocity=0 time=0
EXTRACT: note_on channel=4 note=65 velocity=0 time=0
EXTRACT: note_on channel=4 note=45 velocity=55 time=0
EXTRACT: note_on channel=5 note=70 velocity=0 time=0
EXTRACT: note_on channel=5 note=65 velocity=0 time=0
EXTRACT: note_on channel=9 note=39 velocity=109 time=0
EXTRACT: note_on channel=9 note=54 velocity=83 time=0
EXTRACT: note_on channel=3 note=62 velocity=100 time=0
EXTRACT: note_on channel=9 note=54 velocity=0 time=0
EXTRACT: note_on channel=9 note=39 velocity=0 time=0
EXTRACT: note_on channel=4 note=60 velocity=74 time=0.0057471250000000005
EXTRACT: note_on channel=4 note=57 velocity=74 time=0
EXTRACT: note_on channel=4 note=65 velocity=74 time=0
EXTRACT: note_on channel=5 note=65 velocity=76 time=0
EXTRACT: note_on channel=5 note=70 velocity=69 time=0
EXTRACT: note_on channel=9 note=54 velocity=81 time=0.074712625
EXTRACT: note_on channel=9 note=54 velocity=0 time=0.0057471250000000005
EXTRACT: note_on channel=3 note=62 velocity=0 time=0.045977000000000004
EXTRACT: note_on channel=4 note=45 velocity=0 time=0.022988500000000002
EXTRACT: note_on channel=4 note=60 velocity=0 time=0.011494250000000001
EXTRACT: note_on channel=4 note=57 velocity=0 time=0
EXTRACT: note_on channel=4 note=65 velocity=0 time=0
EXTRACT: note_on channel=4 note=45 velocity=55 time=0
EXTRACT: note_on channel=5 note=70 velocity=0 time=0
EXTRACT: note_on channel=5 note=65 velocity=0 time=0
EXTRACT: note_on channel=9 note=35 velocity=62 time=0
EXTRACT: note_on channel=9 note=54 velocity=78 time=0
EXTRACT: note_on channel=3 note=62 velocity=95 time=0
EXTRACT: note_on channel=9 note=54 velocity=0 time=0
EXTRACT: note_on channel=9 note=35 velocity=0 time=0
EXTRACT: note_on channel=4 note=60 velocity=77 time=0.0057471250000000005
EXTRACT: note_on channel=4 note=57 velocity=65 time=0
EXTRACT: note_on channel=4 note=65 velocity=69 time=0
EXTRACT: note_on channel=5 note=65 velocity=69 time=0
EXTRACT: note_on channel=5 note=70 velocity=67 time=0
EXTRACT: note_on channel=9 note=54 velocity=75 time=0.074712625
EXTRACT: note_on channel=9 note=54 velocity=0 time=0.0057471250000000005
EXTRACT: note_on channel=3 note=62 velocity=0 time=0.040229875000000005
EXTRACT: note_on channel=4 note=45 velocity=0 time=0.028735625
EXTRACT: note_on channel=4 note=60 velocity=0 time=0.011494250000000001
EXTRACT: note_on channel=4 note=57 velocity=0 time=0
EXTRACT: note_on channel=4 note=65 velocity=0 time=0
EXTRACT: note_on channel=4 note=45 velocity=55 time=0
EXTRACT: note_on channel=5 note=70 velocity=0 time=0
EXTRACT: note_on channel=5 note=65 velocity=0 time=0
EXTRACT: note_on channel=9 note=54 velocity=73 time=0
EXTRACT: note_on channel=9 note=28 velocity=52 time=0
EXTRACT: note_on channel=3 note=65 velocity=99 time=0
EXTRACT: note_on channel=9 note=28 velocity=0 time=0
EXTRACT: note_on channel=9 note=54 velocity=0 time=0
EXTRACT: note_on channel=4 note=60 velocity=79 time=0.0057471250000000005
EXTRACT: note_on channel=4 note=57 velocity=65 time=0
EXTRACT: note_on channel=4 note=65 velocity=72 time=0
EXTRACT: note_on channel=5 note=65 velocity=64 time=0
EXTRACT: note_on channel=5 note=70 velocity=63 time=0
EXTRACT: note_on channel=9 note=54 velocity=70 time=0.074712625
EXTRACT: note_on channel=9 note=54 velocity=0 time=0.0057471250000000005
EXTRACT: note_on channel=4 note=45 velocity=0 time=0.06896550000000001
EXTRACT: note_on channel=2 note=33 velocity=80 time=0.011494250000000001
EXTRACT: note_on channel=4 note=60 velocity=0 time=0
EXTRACT: note_on channel=4 note=57 velocity=0 time=0
EXTRACT: note_on channel=4 note=65 velocity=0 time=0
EXTRACT: note_on channel=4 note=45 velocity=55 time=0
EXTRACT: note_on channel=5 note=70 velocity=0 time=0
EXTRACT: note_on channel=5 note=65 velocity=0 time=0
EXTRACT: note_on channel=9 note=36 velocity=110 time=0
EXTRACT: note_on channel=9 note=41 velocity=110 time=0
EXTRACT: note_on channel=9 note=54 velocity=67 time=0
EXTRACT: note_on channel=9 note=54 velocity=0 time=0.0057471250000000005
EXTRACT: note_on channel=9 note=41 velocity=0 time=0
EXTRACT: note_on channel=9 note=36 velocity=0 time=0
EXTRACT: note_on channel=4 note=60 velocity=65 time=0.0057471250000000005
EXTRACT: note_on channel=4 note=57 velocity=65 time=0
EXTRACT: note_on channel=4 note=65 velocity=65 time=0
EXTRACT: note_on channel=5 note=65 velocity=64 time=0
EXTRACT: note_on channel=5 note=70 velocity=64 time=0
EXTRACT: note_on channel=9 note=54 velocity=64 time=0.074712625
EXTRACT: note_on channel=9 note=54 velocity=0 time=0.0057471250000000005
EXTRACT: note_on channel=3 note=65 velocity=0 time=0.051724125
EXTRACT: note_on channel=2 note=33 velocity=0 time=0.011494250000000001
EXTRACT: note_on channel=4 note=45 velocity=0 time=0.0057471250000000005
EXTRACT: note_on channel=3 note=62 velocity=100 time=0
EXTRACT: note_on channel=2 note=31 velocity=95 time=0
EXTRACT: note_on channel=4 note=60 velocity=0 time=0.0057471250000000005
EXTRACT: note_on channel=4 note=57 velocity=0 time=0
EXTRACT: note_on channel=4 note=65 velocity=0 time=0
EXTRACT: note_on channel=4 note=43 velocity=55 time=0
EXTRACT: note_on channel=5 note=70 velocity=0 time=0
EXTRACT: note_on channel=5 note=65 velocity=0 time=0
EXTRACT: note_on channel=9 note=36 velocity=113 time=0
EXTRACT: note_on channel=9 note=41 velocity=110 time=0
EXTRACT: note_on channel=9 note=46 velocity=80 time=0
EXTRACT: note_on channel=5 note=62 velocity=65 time=0.0057471250000000005
EXTRACT: note_on channel=9 note=46 velocity=0 time=0
EXTRACT: note_on channel=9 note=41 velocity=0 time=0
EXTRACT: note_on channel=9 note=36 velocity=0 time=0
EXTRACT: note_on channel=5 note=67 velocity=74 time=0.0057471250000000005
EXTRACT: note_on channel=5 note=70 velocity=65 time=0
EXTRACT: note_on channel=4 note=58 velocity=68 time=0.0057471250000000005
EXTRACT: note_on channel=4 note=62 velocity=68 time=0
EXTRACT: note_on channel=4 note=67 velocity=63 time=0
EXTRACT: note_on channel=4 note=55 velocity=62 time=0
EXTRACT: note_on channel=3 note=62 velocity=0 time=0.12068962500000001
EXTRACT: note_on channel=3 note=62 velocity=81 time=0
EXTRACT: note_on channel=3 note=62 velocity=0 time=0.14942525
EXTRACT: note_on channel=4 note=43 velocity=0 time=0.011494250000000001
EXTRACT: note_on channel=3 note=62 velocity=93 time=0
EXTRACT: note_on channel=5 note=62 velocity=0 time=0
EXTRACT: note_on channel=4 note=43 velocity=55 time=0.0057471250000000005
EXTRACT: note_on channel=5 note=70 velocity=0 time=0
EXTRACT: note_on channel=5 note=67 velocity=0 time=0
EXTRACT: note_on channel=9 note=35 velocity=64 time=0
EXTRACT: note_on channel=9 note=38 velocity=64 time=0
EXTRACT: note_on channel=4 note=67 velocity=0 time=0.0057471250000000005
EXTRACT: note_on channel=4 note=55 velocity=0 time=0
EXTRACT: note_on channel=4 note=58 velocity=0 time=0
EXTRACT: note_on channel=4 note=62 velocity=0 time=0
EXTRACT: note_on channel=9 note=38 velocity=0 time=0
EXTRACT: note_on channel=9 note=35 velocity=0 time=0
EXTRACT: note_on channel=4 note=58 velocity=62 time=0.011494250000000001
EXTRACT: note_on channel=4 note=55 velocity=59 time=0
EXTRACT: note_on channel=4 note=67 velocity=58 time=0
EXTRACT: note_on channel=4 note=62 velocity=64 time=0
EXTRACT: note_on channel=5 note=67 velocity=59 time=0
EXTRACT: note_on channel=5 note=62 velocity=58 time=0
EXTRACT: note_on channel=5 note=70 velocity=58 time=0
EXTRACT: note_on channel=3 note=62 velocity=0 time=0.10344825
EXTRACT: note_on channel=9 note=35 velocity=64 time=0.051724125
EXTRACT: note_on channel=3 note=65 velocity=100 time=0
EXTRACT: note_on channel=9 note=35 velocity=0 time=0
EXTRACT: note_on channel=4 note=43 velocity=0 time=0.155172375
EXTRACT: note_on channel=2 note=31 velocity=0 time=0.0057471250000000005
EXTRACT: note_on channel=4 note=43 velocity=55 time=0.0057471250000000005
EXTRACT: note_on channel=9 note=39 velocity=111 time=0
EXTRACT: note_on channel=4 note=67 velocity=0 time=0.0057471250000000005
EXTRACT: note_on channel=4 note=62 velocity=0 time=0
EXTRACT: note_on channel=4 note=58 velocity=0 time=0
EXTRACT: note_on channel=4 note=55 velocity=0 time=0
EXTRACT: note_on channel=5 note=70 velocity=0 time=0
EXTRACT: note_on channel=5 note=62 velocity=0 time=0
EXTRACT: note_on channel=5 note=67 velocity=0 time=0
EXTRACT: note_on channel=9 note=39 velocity=0 time=0
EXTRACT: note_on channel=4 note=58 velocity=67 time=0.011494250000000001
EXTRACT: note_on channel=4 note=55 velocity=65 time=0
EXTRACT: note_on channel=4 note=62 velocity=69 time=0
EXTRACT: note_on channel=4 note=67 velocity=61 time=0
EXTRACT: note_on channel=5 note=62 velocity=63 time=0
EXTRACT: note_on channel=5 note=67 velocity=70 time=0
EXTRACT: note_on channel=5 note=70 velocity=63 time=0
EXTRACT: note_on channel=9 note=37 velocity=57 time=0.155172375
EXTRACT: note_on channel=3 note=65 velocity=0 time=0.0057471250000000005
EXTRACT: note_on channel=3 note=62 velocity=93 time=0
EXTRACT: note_on channel=9 note=37 velocity=0 time=0
EXTRACT: note_on channel=3 note=62 velocity=0 time=0.12643675000000001
EXTRACT: note_on channel=4 note=43 velocity=0 time=0.028735625
EXTRACT: note_on channel=3 note=65 velocity=98 time=0
EXTRACT: note_on channel=4 note=43 velocity=55 time=0.0057471250000000005
EXTRACT: note_on channel=4 note=62 velocity=0 time=0.0057471250000000005
EXTRACT: note_on channel=4 note=67 velocity=0 time=0
EXTRACT: note_on channel=4 note=58 velocity=0 time=0
EXTRACT: note_on channel=4 note=55 velocity=0 time=0
EXTRACT: note_on channel=5 note=70 velocity=0 time=0
EXTRACT: note_on channel=5 note=67 velocity=0 time=0
EXTRACT: note_on channel=5 note=62 velocity=0 time=0
EXTRACT: note_on channel=4 note=58 velocity=60 time=0.011494250000000001
EXTRACT: note_on channel=4 note=62 velocity=63 time=0
EXTRACT: note_on channel=4 note=55 velocity=58 time=0
EXTRACT: note_on channel=4 note=67 velocity=54 time=0
EXTRACT: note_on channel=5 note=67 velocity=59 time=0
EXTRACT: note_on channel=5 note=62 velocity=58 time=0
EXTRACT: note_on channel=5 note=70 velocity=57 time=0
EXTRACT: note_on channel=4 note=43 velocity=0 time=0.14367812500000002
EXTRACT: note_on channel=4 note=43 velocity=55 time=0.011494250000000001
EXTRACT: note_on channel=9 note=39 velocity=108 time=0
EXTRACT: note_on channel=4 note=55 velocity=0 time=0.0057471250000000005
EXTRACT: note_on channel=4 note=67 velocity=0 time=0
EXTRACT: note_on channel=4 note=58 velocity=0 time=0
EXTRACT: note_on channel=4 note=62 velocity=0 time=0
EXTRACT: note_on channel=5 note=70 velocity=0 time=0
EXTRACT: note_on channel=5 note=62 velocity=0 time=0
EXTRACT: note_on channel=5 note=67 velocity=0 time=0
EXTRACT: note_on channel=9 note=39 velocity=0 time=0
EXTRACT: note_on channel=4 note=58 velocity=71 time=0.011494250000000001
EXTRACT: note_on channel=4 note=55 velocity=63 time=0
EXTRACT: note_on channel=4 note=62 velocity=71 time=0
EXTRACT: note_on channel=4 note=67 velocity=63 time=0
EXTRACT: note_on channel=5 note=62 velocity=63 time=0
EXTRACT: note_on channel=5 note=67 velocity=69 time=0
EXTRACT: note_on channel=5 note=70 velocity=63 time=0
EXTRACT: note_on channel=3 note=65 velocity=0 time=0.14942525
EXTRACT: note_on channel=3 note=62 velocity=98 time=0
EXTRACT: note_on channel=4 note=43 velocity=0 time=0.155172375
EXTRACT: note_on channel=4 note=43 velocity=55 time=0.011494250000000001
EXTRACT: note_on channel=9 note=35 velocity=61 time=0
EXTRACT: note_on channel=9 note=37 velocity=59 time=0
EXTRACT: note_on channel=4 note=62 velocity=0 time=0.0057471250000000005
EXTRACT: note_on channel=4 note=67 velocity=0 time=0
EXTRACT: note_on channel=4 note=58 velocity=0 time=0
EXTRACT: note_on channel=4 note=55 velocity=0 time=0
EXTRACT: note_on channel=5 note=70 velocity=0 time=0
EXTRACT: note_on channel=5 note=67 velocity=0 time=0
EXTRACT: note_on channel=5 note=62 velocity=0 time=0
EXTRACT: note_on channel=9 note=37 velocity=0 time=0
EXTRACT: note_on channel=9 note=35 velocity=0 time=0
EXTRACT: note_on channel=4 note=58 velocity=63 time=0.011494250000000001
EXTRACT: note_on channel=4 note=62 velocity=64 time=0
EXTRACT: note_on channel=4 note=55 velocity=60 time=0
EXTRACT: note_on channel=4 note=67 velocity=58 time=0
EXTRACT: note_on channel=5 note=62 velocity=57 time=0
EXTRACT: note_on channel=5 note=67 velocity=59 time=0
EXTRACT: note_on channel=5 note=70 velocity=58 time=0
EXTRACT: note_on channel=3 note=62 velocity=0 time=0.074712625
EXTRACT: note_on channel=4 note=43 velocity=0 time=0.06896550000000001
EXTRACT: note_on channel=4 note=43 velocity=55 time=0.011494250000000001
EXTRACT: note_on channel=9 note=35 velocity=67 time=0
EXTRACT: note_on channel=9 note=37 velocity=64 time=0
EXTRACT: note_on channel=3 note=65 velocity=97 time=0
EXTRACT: note_on channel=4 note=55 velocity=0 time=0
EXTRACT: note_on channel=4 note=67 velocity=0 time=0
EXTRACT: note_on channel=4 note=58 velocity=0 time=0
EXTRACT: note_on channel=4 note=62 velocity=0 time=0
EXTRACT: note_on channel=5 note=70 velocity=0 time=0
EXTRACT: note_on channel=5 note=67 velocity=0 time=0
EXTRACT: note_on channel=5 note=62 velocity=0 time=0
EXTRACT: note_on channel=9 note=37 velocity=0 time=0
EXTRACT: note_on channel=9 note=35 velocity=0 time=0
EXTRACT: note_on channel=4 note=58 velocity=65 time=0.011494250000000001
EXTRACT: note_on channel=4 note=55 velocity=58 time=0
EXTRACT: note_on channel=4 note=62 velocity=71 time=0
EXTRACT: note_on channel=4 note=67 velocity=60 time=0
EXTRACT: note_on channel=5 note=62 velocity=59 time=0
EXTRACT: note_on channel=5 note=67 velocity=67 time=0
EXTRACT: note_on channel=5 note=70 velocity=65 time=0
EXTRACT: note_on channel=3 note=65 velocity=0 time=0.12643675000000001
EXTRACT: note_on channel=3 note=65 velocity=87 time=0
EXTRACT: note_on channel=3 note=65 velocity=0 time=0.155172375
EXTRACT: note_on channel=4 note=43 velocity=0 time=0
EXTRACT: note_on channel=4 note=43 velocity=55 time=0.011494250000000001
EXTRACT: note_on channel=9 note=39 velocity=114 time=0
EXTRACT: note_on channel=3 note=62 velocity=98 time=0
EXTRACT: note_on channel=4 note=62 velocity=0 time=0
EXTRACT: note_on channel=4 note=67 velocity=0 time=0
EXTRACT: note_on channel=4 note=58 velocity=0 time=0
EXTRACT: note_on channel=4 note=55 velocity=0 time=0
EXTRACT: note_on channel=5 note=70 velocity=0 time=0
EXTRACT: note_on channel=5 note=67 velocity=0 time=0
EXTRACT: note_on channel=5 note=62 velocity=0 time=0
EXTRACT: note_on channel=9 note=39 velocity=0 time=0
EXTRACT: note_on channel=4 note=58 velocity=70 time=0.011494250000000001
EXTRACT: note_on channel=4 note=55 velocity=63 time=0
EXTRACT: note_on channel=4 note=62 velocity=69 time=0
EXTRACT: note_on channel=4 note=67 velocity=63 time=0
EXTRACT: note_on channel=5 note=67 velocity=69 time=0
EXTRACT: note_on channel=5 note=62 velocity=65 time=0
EXTRACT: note_on channel=5 note=70 velocity=66 time=0
EXTRACT: note_on channel=3 note=62 velocity=0 time=0.13793100000000003
EXTRACT: note_on channel=4 note=43 velocity=0 time=0.0057471250000000005
EXTRACT: note_on channel=4 note=43 velocity=55 time=0.011494250000000001
EXTRACT: note_on channel=9 note=35 velocity=61 time=0
EXTRACT: note_on channel=3 note=62 velocity=96 time=0
EXTRACT: note_on channel=4 note=62 velocity=0 time=0
EXTRACT: note_on channel=4 note=67 velocity=0 time=0
EXTRACT: note_on channel=4 note=58 velocity=0 time=0
EXTRACT: note_on channel=4 note=55 velocity=0 time=0
EXTRACT: note_on channel=5 note=70 velocity=0 time=0
EXTRACT: note_on channel=5 note=62 velocity=0 time=0
EXTRACT: note_on channel=5 note=67 velocity=0 time=0
EXTRACT: note_on channel=9 note=35 velocity=0 time=0
EXTRACT: note_on channel=4 note=58 velocity=65 time=0.011494250000000001
EXTRACT: note_on channel=4 note=62 velocity=67 time=0
EXTRACT: note_on channel=4 note=55 velocity=57 time=0
EXTRACT: note_on channel=4 note=67 velocity=58 time=0
EXTRACT: note_on channel=5 note=62 velocity=48 time=0
EXTRACT: note_on channel=5 note=67 velocity=66 time=0
EXTRACT: note_on channel=5 note=70 velocity=63 time=0
EXTRACT: note_on channel=3 note=62 velocity=0 time=0.132183875
EXTRACT: note_on channel=4 note=43 velocity=0 time=0.011494250000000001
EXTRACT: note_on channel=4 note=43 velocity=55 time=0.011494250000000001
EXTRACT: note_on channel=9 note=28 velocity=51 time=0
EXTRACT: note_on channel=3 note=65 velocity=96 time=0
EXTRACT: note_on channel=4 note=55 velocity=0 time=0
EXTRACT: note_on channel=4 note=67 velocity=0 time=0
EXTRACT: note_on channel=4 note=58 velocity=0 time=0
EXTRACT: note_on channel=4 note=62 velocity=0 time=0
EXTRACT: note_on channel=5 note=70 velocity=0 time=0
EXTRACT: note_on channel=5 note=67 velocity=0 time=0
EXTRACT: note_on channel=5 note=62 velocity=0 time=0
EXTRACT: note_on channel=9 note=28 velocity=0 time=0
EXTRACT: note_on channel=4 note=58 velocity=68 time=0.011494250000000001
EXTRACT: note_on channel=4 note=55 velocity=63 time=0
EXTRACT: note_on channel=4 note=62 velocity=69 time=0
EXTRACT: note_on channel=4 note=67 velocity=61 time=0
EXTRACT: note_on channel=5 note=62 velocity=55 time=0
EXTRACT: note_on channel=5 note=67 velocity=67 time=0
EXTRACT: note_on channel=5 note=70 velocity=63 time=0
EXTRACT: note_on channel=4 note=43 velocity=0 time=0.14367812500000002
EXTRACT: note_on channel=4 note=43 velocity=55 time=0.011494250000000001
EXTRACT: note_on channel=4 note=62 velocity=0 time=0.0057471250000000005
EXTRACT: note_on channel=4 note=67 velocity=0 time=0
EXTRACT: note_on channel=4 note=58 velocity=0 time=0
EXTRACT: note_on channel=4 note=55 velocity=0 time=0
EXTRACT: note_on channel=5 note=70 velocity=0 time=0
EXTRACT: note_on channel=5 note=67 velocity=0 time=0
EXTRACT: note_on channel=5 note=62 velocity=0 time=0
EXTRACT: note_on channel=4 note=58 velocity=59 time=0.011494250000000001
EXTRACT: note_on channel=4 note=67 velocity=59 time=0
EXTRACT: note_on channel=4 note=55 velocity=59 time=0
EXTRACT: note_on channel=4 note=62 velocity=59 time=0
EXTRACT: note_on channel=5 note=62 velocity=63 time=0
EXTRACT: note_on channel=5 note=67 velocity=63 time=0
EXTRACT: note_on channel=5 note=70 velocity=63 time=0
EXTRACT: note_on channel=3 note=65 velocity=0 time=0.05747125
EXTRACT: note_on channel=4 note=43 velocity=0 time=0.086206875
EXTRACT: note_on channel=3 note=62 velocity=98 time=0
EXTRACT: note_on channel=2 note=27 velocity=97 time=0
EXTRACT: note_on channel=4 note=39 velocity=55 time=0.0057471250000000005
EXTRACT: note_on channel=9 note=36 velocity=114 time=0
EXTRACT: note_on channel=9 note=41 velocity=110 time=0
EXTRACT: note_on channel=9 note=46 velocity=81 time=0
EXTRACT: note_on channel=4 note=55 velocity=0 time=0.0057471250000000005
EXTRACT: note_on channel=4 note=62 velocity=0 time=0
EXTRACT: note_on channel=4 note=58 velocity=0 time=0
EXTRACT: note_on channel=4 note=67 velocity=0 time=0
EXTRACT: note_on channel=5 note=70 velocity=0 time=0
EXTRACT: note_on channel=5 note=67 velocity=0 time=0
EXTRACT: note_on channel=5 note=62 velocity=0 time=0
EXTRACT: note_on channel=9 note=46 velocity=0 time=0
EXTRACT: note_on channel=9 note=41 velocity=0 time=0
EXTRACT: note_on channel=9 note=36 velocity=0 time=0
EXTRACT: note_on channel=5 note=70 velocity=65 time=0.0057471250000000005
EXTRACT: note_on channel=4 note=63 velocity=64 time=0.0057471250000000005
EXTRACT: note_on channel=4 note=67 velocity=63 time=0
EXTRACT: note_on channel=4 note=58 velocity=65 time=0
EXTRACT: note_on channel=4 note=55 velocity=64 time=0
EXTRACT: note_on channel=5 note=65 velocity=74 time=0
EXTRACT: note_on channel=3 note=62 velocity=0 time=0.132183875
EXTRACT: note_on channel=3 note=65 velocity=98 time=0
EXTRACT: note_on channel=4 note=39 velocity=0 time=0.155172375
EXTRACT: note_on channel=4 note=39 velocity=55 time=0.011494250000000001
EXTRACT: note_on channel=5 note=70 velocity=0 time=0
EXTRACT: note_on channel=9 note=35 velocity=68 time=0
EXTRACT: note_on channel=9 note=38 velocity=68 time=0
EXTRACT: note_on channel=4 note=58 velocity=0 time=0.0057471250000000005
EXTRACT: note_on channel=4 note=55 velocity=0 time=0
EXTRACT: note_on channel=4 note=63 velocity=0 time=0
EXTRACT: note_on channel=4 note=67 velocity=0 time=0
EXTRACT: note_on channel=5 note=65 velocity=0 time=0
EXTRACT: note_on channel=9 note=38 velocity=0 time=0
EXTRACT: note_on channel=9 note=35 velocity=0 time=0
EXTRACT: note_on channel=4 note=58 velocity=61 time=0.011494250000000001
EXTRACT: note_on channel=4 note=63 velocity=63 time=0
EXTRACT: note_on channel=4 note=55 velocity=58 time=0
EXTRACT: note_on channel=4 note=67 velocity=56 time=0
EXTRACT: note_on channel=5 note=65 velocity=73 time=0
EXTRACT: note_on channel=5 note=70 velocity=63 time=0
EXTRACT: note_on channel=3 note=65 velocity=0 time=0.132183875
EXTRACT: note_on channel=9 note=35 velocity=63 time=0.022988500000000002
EXTRACT: note_on channel=3 note=62 velocity=81 time=0
EXTRACT: note_on channel=9 note=35 velocity=0 time=0
EXTRACT: note_on channel=3 note=62 velocity=0 time=0.132183875
EXTRACT: note_on channel=4 note=39 velocity=0 time=0.022988500000000002
EXTRACT: note_on channel=2 note=27 velocity=0 time=0.011494250000000001
EXTRACT: note_on channel=4 note=39 velocity=55 time=0
EXTRACT: note_on channel=9 note=39 velocity=110 time=0
EXTRACT: note_on channel=3 note=65 velocity=97 time=0
EXTRACT: note_on channel=4 note=55 velocity=0 time=0
EXTRACT: note_on channel=4 note=67 velocity=0 time=0
EXTRACT: note_on channel=4 note=58 velocity=0 time=0
EXTRACT: note_on channel=4 note=63 velocity=0 time=0
EXTRACT: note_on channel=5 note=70 velocity=0 time=0
EXTRACT: note_on channel=5 note=65 velocity=0 time=0
EXTRACT: note_on channel=9 note=39 velocity=0 time=0
EXTRACT: note_on channel=4 note=58 velocity=65 time=0.011494250000000001
EXTRACT: note_on channel=4 note=67 velocity=65 time=0
EXTRACT: note_on channel=4 note=63 velocity=67 time=0
EXTRACT: note_on channel=4 note=55 velocity=62 time=0
EXTRACT: note_on channel=5 note=67 velocity=74 time=0
EXTRACT: note_on channel=5 note=70 velocity=76 time=0
EXTRACT: note_on channel=9 note=37 velocity=57 time=0.155172375
EXTRACT: note_on channel=9 note=37 velocity=0 time=0.0057471250000000005
EXTRACT: note_on channel=3 note=65 velocity=0 time=0.155172375
EXTRACT: note_on channel=4 note=39 velocity=0 time=0
EXTRACT: note_on channel=5 note=67 velocity=0 time=0.0057471250000000005
EXTRACT: note_on channel=4 note=39 velocity=55 time=0.0057471250000000005
EXTRACT: note_on channel=3 note=62 velocity=97 time=0
EXTRACT: note_on channel=4 note=63 velocity=0 time=0
EXTRACT: note_on channel=4 note=55 velocity=0 time=0
EXTRACT: note_on channel=4 note=58 velocity=0 time=0
EXTRACT: note_on channel=4 note=67 velocity=0 time=0
EXTRACT: note_on channel=5 note=70 velocity=0 time=0
EXTRACT: note_on channel=4 note=58 velocity=59 time=0.011494250000000001
EXTRACT: note_on channel=4 note=63 velocity=61 time=0
EXTRACT: note_on channel=4 note=67 velocity=58 time=0
EXTRACT: note_on channel=4 note=55 velocity=57 time=0
EXTRACT: note_on channel=5 note=65 velocity=67 time=0
EXTRACT: note_on channel=5 note=70 velocity=67 time=0
EXTRACT: note_on channel=4 note=39 velocity=0 time=0.14367812500000002
EXTRACT: note_on channel=4 note=39 velocity=55 time=0.011494250000000001
EXTRACT: note_on channel=9 note=39 velocity=110 time=0
EXTRACT: note_on channel=4 note=67 velocity=0 time=0.0057471250000000005
EXTRACT: note_on channel=4 note=55 velocity=0 time=0
EXTRACT: note_on channel=4 note=58 velocity=0 time=0
EXTRACT: note_on channel=4 note=63 velocity=0 time=0
EXTRACT: note_on channel=5 note=70 velocity=0 time=0
EXTRACT: note_on channel=5 note=65 velocity=0 time=0
EXTRACT: note_on channel=9 note=39 velocity=0 time=0
EXTRACT: note_on channel=4 note=58 velocity=67 time=0.011494250000000001
EXTRACT: note_on channel=4 note=55 velocity=61 time=0
EXTRACT: note_on channel=4 note=63 velocity=65 time=0
EXTRACT: note_on channel=4 note=67 velocity=59 time=0
EXTRACT: note_on channel=5 note=70 velocity=75 time=0
EXTRACT: note_on channel=5 note=67 velocity=75 time=0
EXTRACT: note_on channel=3 note=62 velocity=0 time=0.040229875000000005
EXTRACT: note_on channel=3 note=67 velocity=93 time=0
EXTRACT: note_on channel=3 note=67 velocity=0 time=0.13793100000000003
EXTRACT: note_on channel=4 note=39 velocity=0 time=0.028735625
EXTRACT: note_on channel=4 note=39 velocity=55 time=0.011494250000000001
EXTRACT: note_on channel=9 note=35 velocity=62 time=0
EXTRACT: note_on channel=9 note=37 velocity=59 time=0
EXTRACT: note_on channel=3 note=67 velocity=95 time=0
EXTRACT: note_on channel=4 note=63 velocity=0 time=0
EXTRACT: note_on channel=4 note=67 velocity=0 time=0
EXTRACT: note_on channel=4 note=58 velocity=0 time=0
EXTRACT: note_on channel=4 note=55 velocity=0 time=0
EXTRACT: note_on channel=5 note=67 velocity=0 time=0
EXTRACT: note_on channel=5 note=70 velocity=0 time=0
EXTRACT: note_on channel=9 note=37 velocity=0 time=0
EXTRACT: note_on channel=9 note=35 velocity=0 time=0
EXTRACT: note_on channel=4 note=58 velocity=61 time=0.011494250000000001
EXTRACT: note_on channel=4 note=67 velocity=59 time=0
EXTRACT: note_on channel=4 note=63 velocity=61 time=0
EXTRACT: note_on channel=4 note=55 velocity=58 time=0
EXTRACT: note_on channel=5 note=65 velocity=70 time=0
EXTRACT: note_on channel=5 note=70 velocity=67 time=0
EXTRACT: note_on channel=3 note=67 velocity=0 time=0.12068962500000001
EXTRACT: note_on channel=4 note=39 velocity=0 time=0.022988500000000002
EXTRACT: note_on channel=4 note=39 velocity=55 time=0.011494250000000001
EXTRACT: note_on channel=9 note=35 velocity=65 time=0
EXTRACT: note_on channel=9 note=37 velocity=63 time=0
EXTRACT: note_on channel=3 note=65 velocity=97 time=0
EXTRACT: note_on channel=4 note=63 velocity=0 time=0
EXTRACT: note_on channel=4 note=55 velocity=0 time=0
EXTRACT: note_on channel=4 note=58 velocity=0 time=0
EXTRACT: note_on channel=4 note=67 velocity=0 time=0
EXTRACT: note_on channel=5 note=70 velocity=0 time=0
EXTRACT: note_on channel=5 note=65 velocity=0 time=0
EXTRACT: note_on channel=9 note=37 velocity=0 time=0
EXTRACT: note_on channel=9 note=35 velocity=0 time=0
EXTRACT: note_on channel=4 note=58 velocity=68 time=0.011494250000000001
EXTRACT: note_on channel=4 note=67 velocity=65 time=0
EXTRACT: note_on channel=4 note=63 velocity=68 time=0
EXTRACT: note_on channel=4 note=55 velocity=60 time=0
EXTRACT: note_on channel=5 note=65 velocity=81 time=0
EXTRACT: note_on channel=5 note=70 velocity=74 time=0
EXTRACT: note_on channel=3 note=65 velocity=0 time=0.12643675000000001
EXTRACT: note_on channel=3 note=65 velocity=104 time=0
EXTRACT: note_on channel=3 note=65 velocity=0 time=0.14942525
EXTRACT: note_on channel=4 note=39 velocity=0 time=0.0057471250000000005
EXTRACT: note_on channel=4 note=39 velocity=55 time=0.011494250000000001
EXTRACT: note_on channel=9 note=39 velocity=109 time=0
EXTRACT: note_on channel=3 note=65 velocity=97 time=0
EXTRACT: note_on channel=4 note=63 velocity=0 time=0
EXTRACT: note_on channel=4 note=55 velocity=0 time=0
EXTRACT: note_on channel=4 note=58 velocity=0 time=0
EXTRACT: note_on channel=4 note=67 velocity=0 time=0
EXTRACT: note_on channel=5 note=70 velocity=0 time=0
EXTRACT: note_on channel=5 note=65 velocity=0 time=0
EXTRACT: note_on channel=9 note=39 velocity=0 time=0
EXTRACT: note_on channel=4 note=67 velocity=65 time=0.011494250000000001
EXTRACT: note_on channel=4 note=58 velocity=69 time=0
EXTRACT: note_on channel=4 note=63 velocity=69 time=0
EXTRACT: note_on channel=4 note=55 velocity=63 time=0
EXTRACT: note_on channel=5 note=70 velocity=66 time=0
EXTRACT: note_on channel=5 note=65 velocity=66 time=0
EXTRACT: note_on channel=3 note=65 velocity=0 time=0.14367812500000002
EXTRACT: note_on channel=4 note=39 velocity=0 time=0
EXTRACT: note_on channel=4 note=39 velocity=55 time=0.011494250000000001
EXTRACT: note_on channel=9 note=35 velocity=62 time=0
EXTRACT: note_on channel=3 note=65 velocity=94 time=0
EXTRACT: note_on channel=4 note=63 velocity=0 time=0
EXTRACT: note_on channel=4 note=55 velocity=0 time=0
EXTRACT: note_on channel=4 note=67 velocity=0 time=0
EXTRACT: note_on channel=4 note=58 velocity=0 time=0
EXTRACT: note_on channel=5 note=65 velocity=0 time=0
EXTRACT: note_on channel=5 note=70 velocity=0 time=0
EXTRACT: note_on channel=9 note=35 velocity=0 time=0
EXTRACT: note_on channel=4 note=58 velocity=67 time=0.011494250000000001
EXTRACT: note_on channel=4 note=63 velocity=67 time=0
EXTRACT: note_on channel=4 note=67 velocity=60 time=0
EXTRACT: note_on channel=4 note=55 velocity=61 time=0
EXTRACT: note_on channel=5 note=65 velocity=64 time=0
EXTRACT: note_on channel=5 note=70 velocity=69 time=0
EXTRACT: note_on channel=3 note=65 velocity=0 time=0.12643675000000001
EXTRACT: note_on channel=4 note=39 velocity=0 time=0.017241375000000003
EXTRACT: note_on channel=4 note=39 velocity=55 time=0.011494250000000001
EXTRACT: note_on channel=9 note=38 velocity=66 time=0
EXTRACT: note_on channel=9 note=28 velocity=52 time=0
EXTRACT: note_on channel=3 note=62 velocity=95 time=0
EXTRACT: note_on channel=4 note=67 velocity=0 time=0
EXTRACT: note_on channel=4 note=55 velocity=0 time=0
EXTRACT: note_on channel=4 note=58 velocity=0 time=0
EXTRACT: note_on channel=4 note=63 velocity=0 time=0
EXTRACT: note_on channel=5 note=70 velocity=0 time=0
EXTRACT: note_on channel=5 note=65 velocity=0 time=0
EXTRACT: note_on channel=9 note=28 velocity=0 time=0
EXTRACT: note_on channel=9 note=38 velocity=0 time=0
EXTRACT: note_on channel=4 note=58 velocity=66 time=0.011494250000000001
EXTRACT: note_on channel=4 note=67 velocity=60 time=0
EXTRACT: note_on channel=4 note=63 velocity=69 time=0
EXTRACT: note_on channel=4 note=55 velocity=60 time=0
EXTRACT: note_on channel=5 note=65 velocity=70 time=0
EXTRACT: note_on channel=5 note=70 velocity=68 time=0
EXTRACT: note_on channel=4 note=39 velocity=0 time=0.14367812500000002
EXTRACT: note_on channel=4 note=39 velocity=55 time=0.011494250000000001
EXTRACT: note_on channel=9 note=36 velocity=110 time=0
EXTRACT: note_on channel=4 note=63 velocity=0 time=0.0057471250000000005
EXTRACT: note_on channel=4 note=55 velocity=0 time=0
EXTRACT: note_on channel=4 note=58 velocity=0 time=0
EXTRACT: note_on channel=4 note=67 velocity=0 time=0
EXTRACT: note_on channel=5 note=70 velocity=0 time=0
EXTRACT: note_on channel=5 note=65 velocity=0 time=0
EXTRACT: note_on channel=9 note=36 velocity=0 time=0
EXTRACT: note_on channel=4 note=67 velocity=57 time=0.011494250000000001
EXTRACT: note_on channel=4 note=58 velocity=57 time=0
EXTRACT: note_on channel=4 note=55 velocity=57 time=0
EXTRACT: note_on channel=4 note=63 velocity=57 time=0
EXTRACT: note_on channel=5 note=65 velocity=63 time=0
EXTRACT: note_on channel=5 note=70 velocity=63 time=0
EXTRACT: note_on channel=3 note=62 velocity=0 time=0.12643675000000001
EXTRACT: note_on channel=2 note=34 velocity=96 time=0.011494250000000001
EXTRACT: note_on channel=4 note=39 velocity=0 time=0.0057471250000000005
EXTRACT: note_on channel=3 note=62 velocity=99 time=0
EXTRACT: note_on channel=4 note=46 velocity=55 time=0
EXTRACT: note_on channel=9 note=36 velocity=113 time=0
EXTRACT: note_on channel=9 note=41 velocity=110 time=0
EXTRACT: note_on channel=9 note=46 velocity=80 time=0
EXTRACT: note_on channel=4 note=55 velocity=0 time=0.0057471250000000005
EXTRACT: note_on channel=4 note=63 velocity=0 time=0
EXTRACT: note_on channel=4 note=67 velocity=0 time=0
EXTRACT: note_on channel=4 note=58 velocity=0 time=0
EXTRACT: note_on channel=5 note=70 velocity=0 time=0
EXTRACT: note_on channel=5 note=65 velocity=0 time=0
EXTRACT: note_on channel=9 note=46 velocity=0 time=0
EXTRACT: note_on channel=9 note=41 velocity=0 time=0
EXTRACT: note_on channel=9 note=36 velocity=0 time=0
EXTRACT: note_on channel=4 note=58 velocity=74 time=0.011494250000000001
EXTRACT: note_on channel=4 note=62 velocity=69 time=0
EXTRACT: note_on channel=4 note=65 velocity=66 time=0
EXTRACT: note_on channel=4 note=53 velocity=66 time=0
EXTRACT: note_on channel=5 note=65 velocity=74 time=0
EXTRACT: note_on channel=5 note=70 velocity=63 time=0
EXTRACT: note_on channel=3 note=62 velocity=0 time=0.1149425
EXTRACT: note_on channel=3 note=63 velocity=98 time=0
EXTRACT: note_on channel=4 note=46 velocity=0 time=0.155172375
EXTRACT: note_on channel=4 note=46 velocity=55 time=0.011494250000000001
EXTRACT: note_on channel=9 note=35 velocity=64 time=0
EXTRACT: note_on channel=9 note=38 velocity=64 time=0
EXTRACT: note_on channel=4 note=65 velocity=0 time=0.0057471250000000005
EXTRACT: note_on channel=4 note=53 velocity=0 time=0
EXTRACT: note_on channel=4 note=58 velocity=0 time=0
EXTRACT: note_on channel=4 note=62 velocity=0 time=0
EXTRACT: note_on channel=5 note=70 velocity=0 time=0
EXTRACT: note_on channel=5 note=65 velocity=0 time=0
EXTRACT: note_on channel=9 note=38 velocity=0 time=0
EXTRACT: note_on channel=9 note=35 velocity=0 time=0
EXTRACT: note_on channel=4 note=53 velocity=60 time=0.011494250000000001
EXTRACT: note_on channel=4 note=58 velocity=61 time=0
EXTRACT: note_on channel=4 note=62 velocity=61 time=0
EXTRACT: note_on channel=4 note=65 velocity=59 time=0
EXTRACT: note_on channel=5 note=70 velocity=62 time=0
EXTRACT: note_on channel=5 note=65 velocity=64 time=0
EXTRACT: note_on channel=3 note=63 velocity=0 time=0.12068962500000001
EXTRACT: note_on channel=9 note=35 velocity=64 time=0.034482750000000006
EXTRACT: note_on channel=3 note=63 velocity=96 time=0
EXTRACT: note_on channel=9 note=35 velocity=0 time=0
EXTRACT: note_on channel=4 note=46 velocity=0 time=0.155172375
EXTRACT: note_on channel=2 note=34 velocity=0 time=0.011494250000000001
EXTRACT: note_on channel=4 note=46 velocity=55 time=0
EXTRACT: note_on channel=9 note=39 velocity=111 time=0
EXTRACT: note_on channel=4 note=62 velocity=0 time=0.0057471250000000005
EXTRACT: note_on channel=4 note=65 velocity=0 time=0
EXTRACT: note_on channel=4 note=53 velocity=0 time=0
EXTRACT: note_on channel=4 note=58 velocity=0 time=0
EXTRACT: note_on channel=5 note=65 velocity=0 time=0
EXTRACT: note_on channel=5 note=70 velocity=0 time=0
EXTRACT: note_on channel=9 note=39 velocity=0 time=0
EXTRACT: note_on channel=5 note=65 velocity=74 time=0.0057471250000000005
EXTRACT: note_on channel=4 note=58 velocity=65 time=0.0057471250000000005
EXTRACT: note_on channel=4 note=53 velocity=64 time=0
EXTRACT: note_on channel=4 note=62 velocity=67 time=0
EXTRACT: note_on channel=4 note=65 velocity=63 time=0
EXTRACT: note_on channel=5 note=70 velocity=65 time=0
EXTRACT: note_on channel=3 note=63 velocity=0 time=0.074712625
EXTRACT: note_on channel=3 note=62 velocity=104 time=0
EXTRACT: note_on channel=9 note=37 velocity=57 time=0.0057471250000000005
EXTRACT: note_on channel=9 note=37 velocity=0 time=0.0057471250000000005
EXTRACT: note_on channel=3 note=62 velocity=0 time=0.1149425
EXTRACT: note_on channel=4 note=46 velocity=0 time=0.040229875000000005
EXTRACT: note_on channel=4 note=46 velocity=55 time=0.011494250000000001
EXTRACT: note_on channel=5 note=65 velocity=0 time=0
EXTRACT: note_on channel=3 note=62 velocity=102 time=0
EXTRACT: note_on channel=4 note=62 velocity=0 time=0
EXTRACT: note_on channel=4 note=65 velocity=0 time=0
EXTRACT: note_on channel=4 note=58 velocity=0 time=0
EXTRACT: note_on channel=4 note=53 velocity=0 time=0
EXTRACT: note_on channel=5 note=70 velocity=0 time=0
EXTRACT: note_on channel=5 note=70 velocity=61 time=0
EXTRACT: note_on channel=5 note=65 velocity=64 time=0
EXTRACT: note_on channel=4 note=53 velocity=60 time=0.011494250000000001
EXTRACT: note_on channel=4 note=62 velocity=64 time=0
EXTRACT: note_on channel=4 note=58 velocity=59 time=0
EXTRACT: note_on channel=4 note=65 velocity=59 time=0
EXTRACT: note_on channel=4 note=46 velocity=0 time=0.14367812500000002
EXTRACT: note_on channel=3 note=62 velocity=0 time=0.0057471250000000005
EXTRACT: note_on channel=5 note=65 velocity=0 time=0
EXTRACT: note_on channel=5 note=70 velocity=0 time=0
EXTRACT: note_on channel=4 note=46 velocity=55 time=0.0057471250000000005
EXTRACT: note_on channel=9 note=39 velocity=108 time=0
EXTRACT: note_on channel=3 note=62 velocity=98 time=0
EXTRACT: note_on channel=4 note=58 velocity=0 time=0
EXTRACT: note_on channel=4 note=65 velocity=0 time=0
EXTRACT: note_on channel=4 note=53 velocity=0 time=0
EXTRACT: note_on channel=4 note=62 velocity=0 time=0
EXTRACT: note_on channel=5 note=70 velocity=65 time=0
EXTRACT: note_on channel=5 note=65 velocity=72 time=0
EXTRACT: note_on channel=9 note=39 velocity=0 time=0
EXTRACT: note_on channel=4 note=58 velocity=67 time=0.011494250000000001
EXTRACT: note_on channel=4 note=53 velocity=63 time=0
EXTRACT: note_on channel=4 note=65 velocity=60 time=0
EXTRACT: note_on channel=4 note=62 velocity=66 time=0
EXTRACT: note_on channel=3 note=62 velocity=0 time=0.13793100000000003
EXTRACT: note_on channel=3 note=67 velocity=100 time=0
EXTRACT: note_on channel=3 note=67 velocity=0 time=0.13793100000000003
EXTRACT: note_on channel=4 note=46 velocity=0 time=0.022988500000000002
EXTRACT: note_on channel=5 note=65 velocity=0 time=0.0057471250000000005
EXTRACT: note_on channel=5 note=70 velocity=0 time=0
EXTRACT: note_on channel=4 note=46 velocity=55 time=0.0057471250000000005
EXTRACT: note_on channel=9 note=35 velocity=61 time=0
EXTRACT: note_on channel=9 note=37 velocity=59 time=0
EXTRACT: note_on channel=3 note=67 velocity=90 time=0
EXTRACT: note_on channel=4 note=65 velocity=0 time=0
EXTRACT: note_on channel=4 note=62 velocity=0 time=0
EXTRACT: note_on channel=4 note=58 velocity=0 time=0
EXTRACT: note_on channel=4 note=53 velocity=0 time=0
EXTRACT: note_on channel=5 note=70 velocity=60 time=0
EXTRACT: note_on channel=5 note=65 velocity=64 time=0
EXTRACT: note_on channel=9 note=37 velocity=0 time=0
EXTRACT: note_on channel=9 note=35 velocity=0 time=0
EXTRACT: note_on channel=4 note=58 velocity=65 time=0.011494250000000001
EXTRACT: note_on channel=4 note=53 velocity=63 time=0
EXTRACT: note_on channel=4 note=62 velocity=65 time=0
EXTRACT: note_on channel=4 note=65 velocity=59 time=0
EXTRACT: note_on channel=3 note=67 velocity=0 time=0.1149425
EXTRACT: note_on channel=4 note=46 velocity=0 time=0.028735625
EXTRACT: note_on channel=5 note=65 velocity=0 time=0.0057471250000000005
EXTRACT: note_on channel=5 note=70 velocity=0 time=0
EXTRACT: note_on channel=4 note=46 velocity=55 time=0.0057471250000000005
EXTRACT: note_on channel=9 note=35 velocity=67 time=0
EXTRACT: note_on channel=9 note=37 velocity=64 time=0
EXTRACT: note_on channel=3 note=65 velocity=99 time=0
EXTRACT: note_on channel=4 note=62 velocity=0 time=0
EXTRACT: note_on channel=4 note=65 velocity=0 time=0
EXTRACT: note_on channel=4 note=58 velocity=0 time=0
EXTRACT: note_on channel=4 note=53 velocity=0 time=0
EXTRACT: note_on channel=5 note=65 velocity=70 time=0
EXTRACT: note_on channel=5 note=70 velocity=65 time=0
EXTRACT: note_on channel=9 note=37 velocity=0 time=0
EXTRACT: note_on channel=9 note=35 velocity=0 time=0
EXTRACT: note_on channel=4 note=58 velocity=64 time=0.011494250000000001
EXTRACT: note_on channel=4 note=53 velocity=64 time=0
EXTRACT: note_on channel=4 note=62 velocity=64 time=0
EXTRACT: note_on channel=4 note=65 velocity=59 time=0
EXTRACT: note_on channel=3 note=65 velocity=0 time=0.12068962500000001
EXTRACT: note_on channel=3 note=65 velocity=98 time=0
EXTRACT: note_on channel=3 note=65 velocity=0 time=0.1149425
EXTRACT: note_on channel=4 note=46 velocity=0 time=0.040229875000000005
EXTRACT: note_on channel=5 note=70 velocity=0 time=0.0057471250000000005
EXTRACT: note_on channel=5 note=65 velocity=0 time=0
EXTRACT: note_on channel=4 note=46 velocity=55 time=0.0057471250000000005
EXTRACT: note_on channel=9 note=39 velocity=114 time=0
EXTRACT: note_on channel=3 note=65 velocity=99 time=0
EXTRACT: note_on channel=4 note=62 velocity=0 time=0
EXTRACT: note_on channel=4 note=65 velocity=0 time=0
EXTRACT: note_on channel=4 note=58 velocity=0 time=0
EXTRACT: note_on channel=4 note=53 velocity=0 time=0
EXTRACT: note_on channel=9 note=39 velocity=0 time=0
EXTRACT: note_on channel=4 note=58 velocity=75 time=0.011494250000000001
EXTRACT: note_on channel=4 note=53 velocity=66 time=0
EXTRACT: note_on channel=4 note=62 velocity=69 time=0
EXTRACT: note_on channel=4 note=65 velocity=63 time=0
EXTRACT: note_on channel=5 note=70 velocity=72 time=0
EXTRACT: note_on channel=5 note=65 velocity=72 time=0
EXTRACT: note_on channel=3 note=65 velocity=0 time=0.132183875
EXTRACT: note_on channel=4 note=46 velocity=0 time=0.011494250000000001
EXTRACT: note_on channel=4 note=46 velocity=55 time=0.011494250000000001
EXTRACT: note_on channel=9 note=35 velocity=61 time=0
EXTRACT: note_on channel=3 note=65 velocity=98 time=0
EXTRACT: note_on channel=4 note=62 velocity=0 time=0
EXTRACT: note_on channel=4 note=65 velocity=0 time=0
EXTRACT: note_on channel=4 note=58 velocity=0 time=0
EXTRACT: note_on channel=4 note=53 velocity=0 time=0
EXTRACT: note_on channel=5 note=65 velocity=0 time=0
EXTRACT: note_on channel=5 note=70 velocity=0 time=0
EXTRACT: note_on channel=9 note=35 velocity=0 time=0
EXTRACT: note_on channel=4 note=58 velocity=66 time=0.011494250000000001
EXTRACT: note_on channel=4 note=53 velocity=64 time=0
EXTRACT: note_on channel=4 note=65 velocity=59 time=0
EXTRACT: note_on channel=4 note=62 velocity=66 time=0
EXTRACT: note_on channel=5 note=65 velocity=65 time=0
EXTRACT: note_on channel=5 note=70 velocity=63 time=0
EXTRACT: note_on channel=3 note=65 velocity=0 time=0.132183875
EXTRACT: note_on channel=4 note=46 velocity=0 time=0.011494250000000001
EXTRACT: note_on channel=4 note=46 velocity=55 time=0.011494250000000001
EXTRACT: note_on channel=3 note=62 velocity=99 time=0
EXTRACT: note_on channel=4 note=65 velocity=0 time=0
EXTRACT: note_on channel=4 note=62 velocity=0 time=0
EXTRACT: note_on channel=4 note=58 velocity=0 time=0
EXTRACT: note_on channel=4 note=53 velocity=0 time=0
EXTRACT: note_on channel=5 note=70 velocity=0 time=0
EXTRACT: note_on channel=5 note=65 velocity=0 time=0
EXTRACT: note_on channel=4 note=53 velocity=60 time=0.011494250000000001
EXTRACT: note_on channel=4 note=58 velocity=63 time=0
EXTRACT: note_on channel=4 note=62 velocity=66 time=0
EXTRACT: note_on channel=4 note=65 velocity=58 time=0
EXTRACT: note_on channel=5 note=65 velocity=65 time=0
EXTRACT: note_on channel=5 note=70 velocity=61 time=0
EXTRACT: note_on channel=4 note=46 velocity=0 time=0.14367812500000002
EXTRACT: note_on channel=4 note=46 velocity=55 time=0.011494250000000001
EXTRACT: note_on channel=4 note=62 velocity=0 time=0.0057471250000000005
EXTRACT: note_on channel=4 note=65 velocity=0 time=0
EXTRACT: note_on channel=4 note=53 velocity=0 time=0
EXTRACT: note_on channel=4 note=58 velocity=0 time=0
EXTRACT: note_on channel=5 note=70 velocity=0 time=0
EXTRACT: note_on channel=5 note=65 velocity=0 time=0
EXTRACT: note_on channel=4 note=58 velocity=57 time=0.011494250000000001
EXTRACT: note_on channel=4 note=62 velocity=57 time=0
EXTRACT: note_on channel=4 note=65 velocity=57 time=0
EXTRACT: note_on channel=4 note=53 velocity=57 time=0
EXTRACT: note_on channel=5 note=65 velocity=63 time=0
EXTRACT: note_on channel=5 note=70 velocity=60 time=0
EXTRACT: note_on channel=3 note=62 velocity=0 time=0.132183875
EXTRACT: note_on channel=4 note=46 velocity=0 time=0.011494250000000001
EXTRACT: note_on channel=4 note=45 velocity=55 time=0.011494250000000001
EXTRACT: note_on channel=3 note=62 velocity=97 time=0
EXTRACT: note_on channel=4 note=65 velocity=0 time=0
EXTRACT: note_on channel=4 note=53 velocity=0 time=0
EXTRACT: note_on channel=4 note=58 velocity=0 time=0
EXTRACT: note_on channel=4 note=62 velocity=0 time=0
EXTRACT: note_on channel=5 note=70 velocity=0 time=0
EXTRACT: note_on channel=5 note=65 velocity=0 time=0
EXTRACT: note_on channel=4 note=60 velocity=33 time=0.011494250000000001
EXTRACT: note_on channel=4 note=57 velocity=69 time=0
EXTRACT: note_on channel=4 note=65 velocity=33 time=0
EXTRACT: note_on channel=5 note=65 velocity=33 time=0
EXTRACT: note_on channel=5 note=70 velocity=45 time=0
EXTRACT: note_on channel=3 note=62 velocity=0 time=0.14942525
EXTRACT: note_on channel=3 note=63 velocity=98 time=0
EXTRACT: note_on channel=4 note=45 velocity=0 time=0.155172375
EXTRACT: note_on channel=3 note=63 velocity=0 time=0.0057471250000000005
EXTRACT: note_on channel=4 note=45 velocity=55 time=0.0057471250000000005
EXTRACT: note_on channel=3 note=62 velocity=97 time=0
EXTRACT: note_on channel=4 note=60 velocity=0 time=0
EXTRACT: note_on channel=4 note=65 velocity=0 time=0
EXTRACT: note_on channel=4 note=57 velocity=0 time=0
EXTRACT: note_on channel=5 note=70 velocity=0 time=0
EXTRACT: note_on channel=5 note=65 velocity=0 time=0
EXTRACT: note_on channel=4 note=57 velocity=59 time=0.011494250000000001
EXTRACT: note_on channel=4 note=60 velocity=39 time=0
EXTRACT: note_on channel=4 note=65 velocity=39 time=0
EXTRACT: note_on channel=5 note=70 velocity=45 time=0
EXTRACT: note_on channel=5 note=65 velocity=39 time=0
EXTRACT: note_on channel=3 note=62 velocity=0 time=0.14942525
EXTRACT: note_on channel=3 note=63 velocity=98 time=0
EXTRACT: note_on channel=4 note=45 velocity=0 time=0.155172375
EXTRACT: note_on channel=3 note=63 velocity=0 time=0.0057471250000000005
EXTRACT: note_on channel=4 note=45 velocity=55 time=0.0057471250000000005
EXTRACT: note_on channel=9 note=39 velocity=110 time=0
EXTRACT: note_on channel=3 note=62 velocity=97 time=0
EXTRACT: note_on channel=4 note=57 velocity=0 time=0
EXTRACT: note_on channel=4 note=65 velocity=0 time=0
EXTRACT: note_on channel=4 note=60 velocity=0 time=0
EXTRACT: note_on channel=5 note=65 velocity=0 time=0
EXTRACT: note_on channel=5 note=70 velocity=0 time=0
EXTRACT: note_on channel=9 note=39 velocity=0 time=0
EXTRACT: note_on channel=4 note=60 velocity=45 time=0.011494250000000001
EXTRACT: note_on channel=4 note=65 velocity=45 time=0
EXTRACT: note_on channel=4 note=57 velocity=75 time=0
EXTRACT: note_on channel=5 note=70 velocity=45 time=0
EXTRACT: note_on channel=5 note=65 velocity=45 time=0
EXTRACT: note_on channel=3 note=62 velocity=0 time=0.14942525
EXTRACT: note_on channel=3 note=62 velocity=97 time=0
EXTRACT: note_on channel=4 note=45 velocity=0 time=0.155172375
EXTRACT: note_on channel=3 note=62 velocity=0 time=0.0057471250000000005
EXTRACT: note_on channel=4 note=45 velocity=55 time=0.0057471250000000005
EXTRACT: note_on channel=3 note=65 velocity=98 time=0
EXTRACT: note_on channel=4 note=60 velocity=0 time=0
EXTRACT: note_on channel=4 note=57 velocity=0 time=0
EXTRACT: note_on channel=4 note=65 velocity=0 time=0
EXTRACT: note_on channel=5 note=65 velocity=0 time=0
EXTRACT: note_on channel=5 note=70 velocity=0 time=0
EXTRACT: note_on channel=4 note=57 velocity=60 time=0.011494250000000001
EXTRACT: note_on channel=4 note=65 velocity=51 time=0
EXTRACT: note_on channel=4 note=60 velocity=51 time=0
EXTRACT: note_on channel=5 note=65 velocity=51 time=0
EXTRACT: note_on channel=5 note=70 velocity=45 time=0
EXTRACT: note_on channel=4 note=45 velocity=0 time=0.14367812500000002
EXTRACT: note_on channel=4 note=45 velocity=55 time=0.011494250000000001
EXTRACT: note_on channel=9 note=39 velocity=110 time=0
EXTRACT: note_on channel=4 note=57 velocity=0 time=0.0057471250000000005
EXTRACT: note_on channel=4 note=60 velocity=0 time=0
EXTRACT: note_on channel=4 note=65 velocity=0 time=0
EXTRACT: note_on channel=5 note=70 velocity=0 time=0
EXTRACT: note_on channel=5 note=65 velocity=0 time=0
EXTRACT: note_on channel=9 note=39 velocity=0 time=0
EXTRACT: note_on channel=4 note=60 velocity=55 time=0.011494250000000001
EXTRACT: note_on channel=4 note=57 velocity=74 time=0
EXTRACT: note_on channel=4 note=65 velocity=55 time=0
EXTRACT: note_on channel=5 note=65 velocity=55 time=0
EXTRACT: note_on channel=5 note=70 velocity=45 time=0
EXTRACT: note_on channel=3 note=65 velocity=0 time=0.06896550000000001
EXTRACT: note_on channel=4 note=45 velocity=0 time=0.074712625
EXTRACT: note_on channel=3 note=62 velocity=95 time=0
EXTRACT: note_on channel=4 note=60 velocity=0 time=0
EXTRACT: note_on channel=4 note=57 velocity=0 time=0
EXTRACT: note_on channel=4 note=65 velocity=0 time=0.17241375
EXTRACT: note_on channel=5 note=70 velocity=0 time=0
EXTRACT: note_on channel=5 note=65 velocity=0 time=0
EXTRACT: note_on channel=3 note=62 velocity=0 time=0.086206875
EXTRACT: note_on channel=1 note=55 velocity=93 time=0.074712625
EXTRACT: note_on channel=3 note=67 velocity=106 time=0
EXTRACT: note_on channel=1 note=55 velocity=0 time=0.22413787500000001
EXTRACT: note_on channel=3 note=67 velocity=0 time=0.011494250000000001
EXTRACT: note_on channel=1 note=55 velocity=93 time=0.09770112500000001
EXTRACT: note_on channel=3 note=67 velocity=103 time=0
EXTRACT: note_on channel=1 note=55 velocity=0 time=0.32183900000000004
EXTRACT: note_on channel=3 note=67 velocity=0 time=0.011494250000000001
EXTRACT: note_on channel=1 note=53 velocity=93 time=0
EXTRACT: note_on channel=3 note=65 velocity=105 time=0
EXTRACT: note_on channel=1 note=53 velocity=0 time=0.293103375
EXTRACT: note_on channel=3 note=65 velocity=0 time=0.011494250000000001
EXTRACT: note_on channel=8 note=70 velocity=59 time=0.028735625
EXTRACT: note_on channel=8 note=79 velocity=61 time=0
EXTRACT: note_on channel=8 note=74 velocity=74 time=0
EXTRACT: note_on channel=3 note=74 velocity=106 time=0
EXTRACT: note_on channel=1 note=67 velocity=93 time=0
EXTRACT: note_on channel=2 note=31 velocity=96 time=0
EXTRACT: note_on channel=0 note=62 velocity=75 time=0
EXTRACT: note_on channel=0 note=55 velocity=74 time=0
EXTRACT: note_on channel=0 note=43 velocity=64 time=0
EXTRACT: note_on channel=0 note=67 velocity=69 time=0
EXTRACT: note_on channel=4 note=43 velocity=55 time=0
EXTRACT: note_on channel=5 note=62 velocity=65 time=0
EXTRACT: note_on channel=6 note=67 velocity=62 time=0
EXTRACT: note_on channel=10 note=67 velocity=85 time=0
EXTRACT: note_on channel=9 note=36 velocity=113 time=0
EXTRACT: note_on channel=9 note=41 velocity=110 time=0
EXTRACT: note_on channel=9 note=49 velocity=90 time=0
EXTRACT: note_on channel=5 note=67 velocity=74 time=0.0057471250000000005
EXTRACT: note_on channel=5 note=70 velocity=65 time=0
EXTRACT: note_on channel=10 note=79 velocity=77 time=0
EXTRACT: note_on channel=9 note=49 velocity=0 time=0
EXTRACT: note_on channel=9 note=41 velocity=0 time=0
EXTRACT: note_on channel=9 note=36 velocity=0 time=0
EXTRACT: note_on channel=4 note=58 velocity=68 time=0.0057471250000000005
EXTRACT: note_on channel=4 note=62 velocity=68 time=0
EXTRACT: note_on channel=4 note=67 velocity=63 time=0
EXTRACT: note_on channel=4 note=55 velocity=62 time=0
EXTRACT: note_on channel=4 note=43 velocity=0 time=0.32183900000000004
EXTRACT: note_on channel=5 note=62 velocity=0 time=0
EXTRACT: note_on channel=5 note=70 velocity=0 time=0.0057471250000000005
EXTRACT: note_on channel=5 note=67 velocity=0 time=0
EXTRACT: note_on channel=0 note=50 velocity=72 time=0.0057471250000000005
EXTRACT: note_on channel=4 note=67 velocity=0 time=0
EXTRACT: note_on channel=4 note=58 velocity=0 time=0
EXTRACT: note_on channel=4 note=62 velocity=0 time=0
EXTRACT: note_on channel=4 note=55 velocity=0 time=0
EXTRACT: note_on channel=4 note=43 velocity=55 time=0
EXTRACT: note_on channel=9 note=35 velocity=64 time=0
EXTRACT: note_on channel=9 note=38 velocity=64 time=0
EXTRACT: note_on channel=9 note=42 velocity=50 time=0
EXTRACT: note_on channel=9 note=42 velocity=0 time=0.0057471250000000005
EXTRACT: note_on channel=9 note=38 velocity=0 time=0
EXTRACT: note_on channel=9 note=35 velocity=0 time=0
EXTRACT: note_on channel=4 note=58 velocity=62 time=0.0057471250000000005
EXTRACT: note_on channel=4 note=55 velocity=59 time=0
EXTRACT: note_on channel=4 note=67 velocity=58 time=0
EXTRACT: note_on channel=4 note=62 velocity=64 time=0
EXTRACT: note_on channel=5 note=67 velocity=59 time=0
EXTRACT: note_on channel=5 note=62 velocity=58 time=0
EXTRACT: note_on channel=5 note=70 velocity=58 time=0
EXTRACT: note_on channel=6 note=62 velocity=56 time=0
EXTRACT: note_on channel=9 note=35 velocity=64 time=0.16091950000000002
EXTRACT: note_on channel=9 note=35 velocity=0 time=0.0057471250000000005
EXTRACT: note_on channel=3 note=74 velocity=0 time=0.05747125
EXTRACT: note_on channel=1 note=67 velocity=0 time=0
EXTRACT: note_on channel=0 note=55 velocity=0 time=0.051724125
EXTRACT: note_on channel=6 note=67 velocity=0 time=0.040229875000000005
EXTRACT: note_on channel=4 note=43 velocity=0 time=0.0057471250000000005
EXTRACT: note_on channel=3 note=67 velocity=102 time=0
EXTRACT: note_on channel=0 note=55 velocity=72 time=0
EXTRACT: note_on channel=4 note=67 velocity=0 time=0
EXTRACT: note_on channel=4 note=58 velocity=0 time=0
EXTRACT: note_on channel=4 note=55 velocity=0 time=0
EXTRACT: note_on channel=4 note=62 velocity=0 time=0
EXTRACT: note_on channel=4 note=43 velocity=55 time=0
EXTRACT: note_on channel=5 note=70 velocity=0 time=0
EXTRACT: note_on channel=5 note=62 velocity=0 time=0
EXTRACT: note_on channel=5 note=67 velocity=0 time=0
EXTRACT: note_on channel=9 note=40 velocity=78 time=0
EXTRACT: note_on channel=9 note=39 velocity=111 time=0
EXTRACT: note_on channel=9 note=42 velocity=64 time=0
EXTRACT: note_on channel=9 note=42 velocity=0 time=0.0057471250000000005
EXTRACT: note_on channel=9 note=39 velocity=0 time=0
EXTRACT: note_on channel=9 note=40 velocity=0 time=0
EXTRACT: note_on channel=4 note=58 velocity=67 time=0.0057471250000000005
EXTRACT: note_on channel=4 note=55 velocity=65 time=0
EXTRACT: note_on channel=4 note=62 velocity=69 time=0
EXTRACT: note_on channel=4 note=67 velocity=61 time=0
EXTRACT: note_on channel=5 note=62 velocity=63 time=0
EXTRACT: note_on channel=5 note=67 velocity=70 time=0
EXTRACT: note_on channel=5 note=70 velocity=63 time=0
EXTRACT: note_on channel=6 note=67 velocity=64 time=0
EXTRACT: note_on channel=9 note=37 velocity=57 time=0.16091950000000002
EXTRACT: note_on channel=9 note=37 velocity=0 time=0.0057471250000000005
EXTRACT: note_on channel=3 note=67 velocity=0 time=0.13793100000000003
EXTRACT: note_on channel=4 note=43 velocity=0 time=0.017241375000000003
EXTRACT: note_on channel=3 note=65 velocity=101 time=0
EXTRACT: note_on channel=0 note=58 velocity=79 time=0
EXTRACT: note_on channel=4 note=62 velocity=0 time=0
EXTRACT: note_on channel=4 note=58 velocity=0 time=0
EXTRACT: note_on channel=4 note=55 velocity=0 time=0
EXTRACT: note_on channel=4 note=67 velocity=0 time=0
EXTRACT: note_on channel=4 note=43 velocity=55 time=0
EXTRACT: note_on channel=5 note=70 velocity=0 time=0
EXTRACT: note_on channel=5 note=67 velocity=0 time=0
EXTRACT: note_on channel=5 note=62 velocity=0 time=0
EXTRACT: note_on channel=9 note=40 velocity=67 time=0
EXTRACT: note_on channel=9 note=42 velocity=53 time=0
EXTRACT: note_on channel=9 note=42 velocity=0 time=0.0057471250000000005
EXTRACT: note_on channel=9 note=40 velocity=0 time=0
EXTRACT: note_on channel=4 note=58 velocity=60 time=0.0057471250000000005
EXTRACT: note_on channel=4 note=62 velocity=63 time=0
EXTRACT: note_on channel=4 note=55 velocity=58 time=0
EXTRACT: note_on channel=4 note=67 velocity=54 time=0
EXTRACT: note_on channel=5 note=67 velocity=59 time=0
EXTRACT: note_on channel=5 note=62 velocity=58 time=0
EXTRACT: note_on channel=5 note=70 velocity=57 time=0
EXTRACT: note_on channel=6 note=65 velocity=55 time=0
EXTRACT: note_on channel=4 note=43 velocity=0 time=0.14942525
EXTRACT: note_on channel=4 note=55 velocity=0 time=0.011494250000000001
EXTRACT: note_on channel=4 note=58 velocity=0 time=0
EXTRACT: note_on channel=4 note=62 velocity=0 time=0
EXTRACT: note_on channel=4 note=67 velocity=0 time=0
EXTRACT: note_on channel=4 note=43 velocity=55 time=0
EXTRACT: note_on channel=5 note=70 velocity=0 time=0
EXTRACT: note_on channel=5 note=62 velocity=0 time=0
EXTRACT: note_on channel=5 note=67 velocity=0 time=0
EXTRACT: note_on channel=9 note=39 velocity=108 time=0
EXTRACT: note_on channel=9 note=39 velocity=0 time=0.0057471250000000005
EXTRACT: note_on channel=4 note=58 velocity=71 time=0.0057471250000000005
EXTRACT: note_on channel=4 note=55 velocity=63 time=0
EXTRACT: note_on channel=4 note=62 velocity=71 time=0
EXTRACT: note_on channel=4 note=67 velocity=63 time=0
EXTRACT: note_on channel=5 note=62 velocity=63 time=0
EXTRACT: note_on channel=5 note=67 velocity=69 time=0
EXTRACT: note_on channel=5 note=70 velocity=63 time=0
EXTRACT: note_on channel=0 note=62 velocity=0 time=0.10344825
EXTRACT: note_on channel=6 note=67 velocity=0 time=0
EXTRACT: note_on channel=10 note=79 velocity=0 time=0
EXTRACT: note_on channel=10 note=67 velocity=0 time=0.0057471250000000005
EXTRACT: note_on channel=0 note=55 velocity=0 time=0.011494250000000001
EXTRACT: note_on channel=0 note=58 velocity=0 time=0
EXTRACT: note_on channel=3 note=65 velocity=0 time=0.0057471250000000005
EXTRACT: note_on channel=0 note=50 velocity=0 time=0.0057471250000000005
EXTRACT: note_on channel=0 note=67 velocity=0 time=0.017241375000000003
EXTRACT: note_on channel=3 note=74 velocity=104 time=0
EXTRACT: note_on channel=1 note=67 velocity=93 time=0
EXTRACT: note_on channel=0 note=62 velocity=81 time=0
EXTRACT: note_on channel=0 note=67 velocity=81 time=0
EXTRACT: note_on channel=0 note=55 velocity=81 time=0
EXTRACT: note_on channel=9 note=42 velocity=61 time=0
EXTRACT: note_on channel=9 note=42 velocity=0 time=0.0057471250000000005
EXTRACT: note_on channel=0 note=43 velocity=0 time=0.0057471250000000005
EXTRACT: note_on channel=6 note=67 velocity=62 time=0
EXTRACT: note_on channel=4 note=43 velocity=0 time=0.14942525
EXTRACT: note_on channel=4 note=62 velocity=0 time=0.011494250000000001
EXTRACT: note_on channel=4 note=58 velocity=0 time=0
EXTRACT: note_on channel=4 note=55 velocity=0 time=0
EXTRACT: note_on channel=4 note=67 velocity=0 time=0
EXTRACT: note_on channel=4 note=43 velocity=55 time=0
EXTRACT: note_on channel=5 note=70 velocity=0 time=0
EXTRACT: note_on channel=5 note=67 velocity=0 time=0
EXTRACT: note_on channel=5 note=62 velocity=0 time=0
EXTRACT: note_on channel=9 note=35 velocity=61 time=0
EXTRACT: note_on channel=9 note=37 velocity=59 time=0
EXTRACT: note_on channel=9 note=37 velocity=0 time=0.0057471250000000005
EXTRACT: note_on channel=9 note=35 velocity=0 time=0
EXTRACT: note_on channel=4 note=58 velocity=63 time=0.0057471250000000005
EXTRACT: note_on channel=4 note=62 velocity=64 time=0
EXTRACT: note_on channel=4 note=55 velocity=60 time=0
EXTRACT: note_on channel=4 note=67 velocity=58 time=0
EXTRACT: note_on channel=5 note=62 velocity=57 time=0
EXTRACT: note_on channel=5 note=67 velocity=59 time=0
EXTRACT: note_on channel=5 note=70 velocity=58 time=0
EXTRACT: note_on channel=6 note=62 velocity=0 time=0.12068962500000001
EXTRACT: note_on channel=4 note=43 velocity=0 time=0.028735625
EXTRACT: note_on channel=0 note=43 velocity=64 time=0.011494250000000001
EXTRACT: note_on channel=4 note=55 velocity=0 time=0
EXTRACT: note_on channel=4 note=58 velocity=0 time=0
EXTRACT: note_on channel=4 note=62 velocity=0 time=0
EXTRACT: note_on channel=4 note=67 velocity=0 time=0
EXTRACT: note_on channel=4 note=43 velocity=55 time=0
EXTRACT: note_on channel=5 note=70 velocity=0 time=0
EXTRACT: note_on channel=5 note=67 velocity=0 time=0
EXTRACT: note_on channel=5 note=62 velocity=0 time=0
EXTRACT: note_on channel=9 note=35 velocity=67 time=0
EXTRACT: note_on channel=9 note=37 velocity=64 time=0
EXTRACT: note_on channel=9 note=42 velocity=53 time=0
EXTRACT: note_on channel=9 note=42 velocity=0 time=0.0057471250000000005
EXTRACT: note_on channel=9 note=37 velocity=0 time=0
EXTRACT: note_on channel=9 note=35 velocity=0 time=0
EXTRACT: note_on channel=4 note=58 velocity=65 time=0.0057471250000000005
EXTRACT: note_on channel=4 note=55 velocity=58 time=0
EXTRACT: note_on channel=4 note=62 velocity=71 time=0
EXTRACT: note_on channel=4 note=67 velocity=60 time=0
EXTRACT: note_on channel=5 note=62 velocity=59 time=0
EXTRACT: note_on channel=5 note=67 velocity=67 time=0
EXTRACT: note_on channel=5 note=70 velocity=65 time=0
EXTRACT: note_on channel=6 note=62 velocity=53 time=0
EXTRACT: note_on channel=3 note=74 velocity=0 time=0.086206875
EXTRACT: note_on channel=1 note=67 velocity=0 time=0
EXTRACT: note_on channel=3 note=67 velocity=100 time=0
EXTRACT: note_on channel=6 note=67 velocity=0 time=0.14367812500000002
EXTRACT: note_on channel=4 note=43 velocity=0 time=0.017241375000000003
EXTRACT: note_on channel=0 note=50 velocity=75 time=0.011494250000000001
EXTRACT: note_on channel=4 note=62 velocity=0 time=0
EXTRACT: note_on channel=4 note=58 velocity=0 time=0
EXTRACT: note_on channel=4 note=55 velocity=0 time=0
EXTRACT: note_on channel=4 note=67 velocity=0 time=0
EXTRACT: note_on channel=4 note=43 velocity=55 time=0
EXTRACT: note_on channel=5 note=70 velocity=0 time=0
EXTRACT: note_on channel=5 note=67 velocity=0 time=0
EXTRACT: note_on channel=5 note=62 velocity=0 time=0
EXTRACT: note_on channel=9 note=40 velocity=81 time=0
EXTRACT: note_on channel=9 note=39 velocity=114 time=0
EXTRACT: note_on channel=9 note=42 velocity=67 time=0
EXTRACT: note_on channel=9 note=42 velocity=0 time=0.0057471250000000005
EXTRACT: note_on channel=9 note=39 velocity=0 time=0
EXTRACT: note_on channel=9 note=40 velocity=0 time=0
EXTRACT: note_on channel=4 note=58 velocity=70 time=0.0057471250000000005
EXTRACT: note_on channel=4 note=55 velocity=63 time=0
EXTRACT: note_on channel=4 note=62 velocity=69 time=0
EXTRACT: note_on channel=4 note=67 velocity=63 time=0
EXTRACT: note_on channel=5 note=67 velocity=69 time=0
EXTRACT: note_on channel=5 note=62 velocity=65 time=0
EXTRACT: note_on channel=5 note=70 velocity=66 time=0
EXTRACT: note_on channel=6 note=67 velocity=64 time=0
EXTRACT: note_on channel=6 note=65 velocity=0 time=0.0057471250000000005
EXTRACT: note_on channel=4 note=43 velocity=0 time=0.14367812500000002
EXTRACT: note_on channel=4 note=62 velocity=0 time=0.011494250000000001
EXTRACT: note_on channel=4 note=58 velocity=0 time=0
EXTRACT: note_on channel=4 note=55 velocity=0 time=0
EXTRACT: note_on channel=4 note=67 velocity=0 time=0
EXTRACT: note_on channel=4 note=43 velocity=55 time=0
EXTRACT: note_on channel=5 note=70 velocity=0 time=0
EXTRACT: note_on channel=5 note=62 velocity=0 time=0
EXTRACT: note_on channel=5 note=67 velocity=0 time=0
EXTRACT: note_on channel=9 note=35 velocity=61 time=0
EXTRACT: note_on channel=9 note=35 velocity=0 time=0.0057471250000000005
EXTRACT: note_on channel=4 note=58 velocity=65 time=0.0057471250000000005
EXTRACT: note_on channel=4 note=62 velocity=67 time=0
EXTRACT: note_on channel=4 note=55 velocity=57 time=0
EXTRACT: note_on channel=4 note=67 velocity=58 time=0
EXTRACT: note_on channel=5 note=62 velocity=48 time=0
EXTRACT: note_on channel=5 note=67 velocity=66 time=0
EXTRACT: note_on channel=5 note=70 velocity=63 time=0
EXTRACT: note_on channel=0 note=55 velocity=0 time=0.086206875
EXTRACT: note_on channel=3 note=67 velocity=0 time=0.0057471250000000005
EXTRACT: note_on channel=4 note=43 velocity=0 time=0.05747125
EXTRACT: note_on channel=3 note=65 velocity=106 time=0
EXTRACT: note_on channel=0 note=55 velocity=78 time=0
EXTRACT: note_on channel=4 note=55 velocity=0 time=0
EXTRACT: note_on channel=4 note=58 velocity=0 time=0
EXTRACT: note_on channel=4 note=62 velocity=0 time=0
EXTRACT: note_on channel=4 note=67 velocity=0 time=0
EXTRACT: note_on channel=4 note=43 velocity=55 time=0
EXTRACT: note_on channel=5 note=70 velocity=0 time=0
EXTRACT: note_on channel=5 note=67 velocity=0 time=0
EXTRACT: note_on channel=5 note=62 velocity=0 time=0
EXTRACT: note_on channel=9 note=40 velocity=65 time=0
EXTRACT: note_on channel=9 note=42 velocity=51 time=0
EXTRACT: note_on channel=9 note=28 velocity=51 time=0
EXTRACT: note_on channel=9 note=28 velocity=0 time=0.0057471250000000005
EXTRACT: note_on channel=9 note=42 velocity=0 time=0
EXTRACT: note_on channel=9 note=40 velocity=0 time=0
EXTRACT: note_on channel=4 note=58 velocity=68 time=0.0057471250000000005
EXTRACT: note_on channel=4 note=55 velocity=63 time=0
EXTRACT: note_on channel=4 note=62 velocity=69 time=0
EXTRACT: note_on channel=4 note=67 velocity=61 time=0
EXTRACT: note_on channel=5 note=62 velocity=55 time=0
EXTRACT: note_on channel=5 note=67 velocity=67 time=0
EXTRACT: note_on channel=5 note=70 velocity=63 time=0
EXTRACT: note_on channel=6 note=65 velocity=58 time=0
EXTRACT: note_on channel=4 note=43 velocity=0 time=0.14942525
EXTRACT: note_on channel=4 note=62 velocity=0 time=0.011494250000000001
EXTRACT: note_on channel=4 note=58 velocity=0 time=0
EXTRACT: note_on channel=4 note=55 velocity=0 time=0
EXTRACT: note_on channel=4 note=67 velocity=0 time=0
EXTRACT: note_on channel=4 note=43 velocity=55 time=0
EXTRACT: note_on channel=5 note=70 velocity=0 time=0
EXTRACT: note_on channel=5 note=67 velocity=0 time=0
EXTRACT: note_on channel=5 note=62 velocity=0 time=0
EXTRACT: note_on channel=4 note=58 velocity=59 time=0.011494250000000001
EXTRACT: note_on channel=4 note=67 velocity=59 time=0
EXTRACT: note_on channel=4 note=55 velocity=59 time=0
EXTRACT: note_on channel=4 note=62 velocity=59 time=0
EXTRACT: note_on channel=5 note=62 velocity=63 time=0
EXTRACT: note_on channel=5 note=67 velocity=63 time=0
EXTRACT: note_on channel=5 note=70 velocity=63 time=0
EXTRACT: note_on channel=8 note=70 velocity=0 time=0.09195400000000001
EXTRACT: note_on channel=6 note=62 velocity=0 time=0.0057471250000000005
EXTRACT: note_on channel=8 note=79 velocity=0 time=0.0057471250000000005
EXTRACT: note_on channel=2 note=31 velocity=0 time=0.0057471250000000005
EXTRACT: note_on channel=8 note=74 velocity=0 time=0.022988500000000002
EXTRACT: note_on channel=6 note=67 velocity=0 time=0.0057471250000000005
EXTRACT: note_on channel=0 note=55 velocity=0 time=0.0057471250000000005
EXTRACT: note_on channel=0 note=50 velocity=0 time=0.0057471250000000005
EXTRACT: note_on channel=4 note=43 velocity=0 time=0
EXTRACT: note_on channel=8 note=70 velocity=60 time=0.0057471250000000005
EXTRACT: note_on channel=8 note=79 velocity=62 time=0
EXTRACT: note_on channel=8 note=75 velocity=63 time=0
EXTRACT: note_on channel=2 note=27 velocity=96 time=0.0057471250000000005
EXTRACT: note_on channel=0 note=58 velocity=74 time=0
EXTRACT: note_on channel=0 note=63 velocity=67 time=0
EXTRACT: note_on channel=0 note=51 velocity=81 time=0
EXTRACT: note_on channel=4 note=55 velocity=0 time=0
EXTRACT: note_on channel=4 note=58 velocity=0 time=0
EXTRACT: note_on channel=4 note=67 velocity=0 time=0
EXTRACT: note_on channel=4 note=62 velocity=0 time=0
EXTRACT: note_on channel=4 note=39 velocity=55 time=0
EXTRACT: note_on channel=5 note=70 velocity=0 time=0
EXTRACT: note_on channel=5 note=67 velocity=0 time=0
EXTRACT: note_on channel=5 note=62 velocity=0 time=0
EXTRACT: note_on channel=6 note=67 velocity=62 time=0
EXTRACT: note_on channel=9 note=36 velocity=114 time=0
EXTRACT: note_on channel=9 note=41 velocity=110 time=0
EXTRACT: note_on channel=9 note=46 velocity=81 time=0
EXTRACT: note_on channel=5 note=70 velocity=65 time=0.0057471250000000005
EXTRACT: note_on channel=6 note=65 velocity=0 time=0
EXTRACT: note_on channel=9 note=46 velocity=0 time=0
EXTRACT: note_on channel=9 note=41 velocity=0 time=0
EXTRACT: note_on channel=9 note=36 velocity=0 time=0
EXTRACT: note_on channel=0 note=43 velocity=0 time=0.0057471250000000005
EXTRACT: note_on channel=0 note=67 velocity=0 time=0
EXTRACT: note_on channel=4 note=63 velocity=64 time=0
EXTRACT: note_on channel=4 note=67 velocity=63 time=0
EXTRACT: note_on channel=4 note=58 velocity=65 time=0
EXTRACT: note_on channel=4 note=55 velocity=64 time=0
EXTRACT: note_on channel=5 note=65 velocity=74 time=0
EXTRACT: note_on channel=0 note=62 velocity=0 time=0.0057471250000000005
EXTRACT: note_on channel=3 note=65 velocity=0 time=0.281609125
EXTRACT: note_on channel=4 note=39 velocity=0 time=0.034482750000000006
EXTRACT: note_on channel=5 note=70 velocity=0 time=0.0057471250000000005
EXTRACT: note_on channel=0 note=46 velocity=72 time=0.0057471250000000005
EXTRACT: note_on channel=4 note=58 velocity=0 time=0
EXTRACT: note_on channel=4 note=63 velocity=0 time=0
EXTRACT: note_on channel=4 note=67 velocity=0 time=0
EXTRACT: note_on channel=4 note=55 velocity=0 time=0
EXTRACT: note_on channel=4 note=39 velocity=55 time=0
EXTRACT: note_on channel=5 note=65 velocity=0 time=0
EXTRACT: note_on channel=9 note=35 velocity=68 time=0
EXTRACT: note_on channel=9 note=38 velocity=68 time=0
EXTRACT: note_on channel=9 note=42 velocity=54 time=0
EXTRACT: note_on channel=9 note=42 velocity=0 time=0.0057471250000000005
EXTRACT: note_on channel=9 note=38 velocity=0 time=0
EXTRACT: note_on channel=9 note=35 velocity=0 time=0
EXTRACT: note_on channel=4 note=58 velocity=61 time=0.0057471250000000005
EXTRACT: note_on channel=4 note=63 velocity=63 time=0
EXTRACT: note_on channel=4 note=55 velocity=58 time=0
EXTRACT: note_on channel=4 note=67 velocity=56 time=0
EXTRACT: note_on channel=5 note=65 velocity=73 time=0
EXTRACT: note_on channel=5 note=70 velocity=63 time=0
EXTRACT: note_on channel=6 note=63 velocity=56 time=0
EXTRACT: note_on channel=9 note=35 velocity=63 time=0.16091950000000002
EXTRACT: note_on channel=9 note=35 velocity=0 time=0.0057471250000000005
EXTRACT: note_on channel=0 note=51 velocity=0 time=0.09195400000000001
EXTRACT: note_on channel=6 note=67 velocity=0 time=0.05747125
EXTRACT: note_on channel=4 note=39 velocity=0 time=0.0057471250000000005
EXTRACT: note_on channel=0 note=51 velocity=74 time=0.011494250000000001
EXTRACT: note_on channel=4 note=55 velocity=0 time=0
EXTRACT: note_on channel=4 note=58 velocity=0 time=0
EXTRACT: note_on channel=4 note=63 velocity=0 time=0
EXTRACT: note_on channel=4 note=67 velocity=0 time=0
EXTRACT: note_on channel=4 note=39 velocity=55 time=0
EXTRACT: note_on channel=5 note=70 velocity=0 time=0
EXTRACT: note_on channel=5 note=65 velocity=0 time=0
EXTRACT: note_on channel=9 note=40 velocity=77 time=0
EXTRACT: note_on channel=9 note=39 velocity=110 time=0
EXTRACT: note_on channel=9 note=42 velocity=64 time=0
EXTRACT: note_on channel=9 note=42 velocity=0 time=0.0057471250000000005
EXTRACT: note_on channel=9 note=39 velocity=0 time=0
EXTRACT: note_on channel=9 note=40 velocity=0 time=0
EXTRACT: note_on channel=4 note=58 velocity=65 time=0.0057471250000000005
EXTRACT: note_on channel=4 note=67 velocity=65 time=0
EXTRACT: note_on channel=4 note=63 velocity=67 time=0
EXTRACT: note_on channel=4 note=55 velocity=62 time=0
EXTRACT: note_on channel=5 note=67 velocity=74 time=0
EXTRACT: note_on channel=5 note=70 velocity=76 time=0
EXTRACT: note_on channel=6 note=67 velocity=64 time=0
EXTRACT: note_on channel=9 note=37 velocity=57 time=0.16091950000000002
EXTRACT: note_on channel=9 note=37 velocity=0 time=0.0057471250000000005
EXTRACT: note_on channel=0 note=63 velocity=0 time=0.09195400000000001
EXTRACT: note_on channel=0 note=58 velocity=0 time=0.0057471250000000005
EXTRACT: note_on channel=0 note=51 velocity=0 time=0.051724125
EXTRACT: note_on channel=4 note=39 velocity=0 time=0.0057471250000000005
EXTRACT: note_on channel=5 note=67 velocity=0 time=0
EXTRACT: note_on channel=0 note=63 velocity=73 time=0.011494250000000001
EXTRACT: note_on channel=0 note=58 velocity=79 time=0
EXTRACT: note_on channel=0 note=51 velocity=66 time=0
EXTRACT: note_on channel=4 note=63 velocity=0 time=0
EXTRACT: note_on channel=4 note=58 velocity=0 time=0
EXTRACT: note_on channel=4 note=67 velocity=0 time=0
EXTRACT: note_on channel=4 note=55 velocity=0 time=0
EXTRACT: note_on channel=4 note=39 velocity=55 time=0
EXTRACT: note_on channel=5 note=70 velocity=0 time=0
EXTRACT: note_on channel=9 note=40 velocity=65 time=0
EXTRACT: note_on channel=9 note=42 velocity=51 time=0
EXTRACT: note_on channel=9 note=42 velocity=0 time=0.0057471250000000005
EXTRACT: note_on channel=9 note=40 velocity=0 time=0
EXTRACT: note_on channel=4 note=58 velocity=59 time=0.0057471250000000005
EXTRACT: note_on channel=4 note=63 velocity=61 time=0
EXTRACT: note_on channel=4 note=67 velocity=58 time=0
EXTRACT: note_on channel=4 note=55 velocity=57 time=0
EXTRACT: note_on channel=5 note=65 velocity=67 time=0
EXTRACT: note_on channel=5 note=70 velocity=67 time=0
EXTRACT: note_on channel=6 note=65 velocity=55 time=0
EXTRACT: note_on channel=4 note=39 velocity=0 time=0.14942525
EXTRACT: note_on channel=4 note=67 velocity=0 time=0.011494250000000001
EXTRACT: note_on channel=4 note=58 velocity=0 time=0
EXTRACT: note_on channel=4 note=63 velocity=0 time=0
EXTRACT: note_on channel=4 note=55 velocity=0 time=0
EXTRACT: note_on channel=4 note=39 velocity=55 time=0
EXTRACT: note_on channel=5 note=70 velocity=0 time=0
EXTRACT: note_on channel=5 note=65 velocity=0 time=0
EXTRACT: note_on channel=9 note=39 velocity=110 time=0
EXTRACT: note_on channel=9 note=39 velocity=0 time=0.0057471250000000005
EXTRACT: note_on channel=3 note=58 velocity=82 time=0
EXTRACT: note_on channel=4 note=58 velocity=67 time=0
EXTRACT: note_on channel=4 note=55 velocity=61 time=0
EXTRACT: note_on channel=4 note=63 velocity=65 time=0
EXTRACT: note_on channel=4 note=67 velocity=59 time=0
EXTRACT: note_on channel=5 note=70 velocity=75 time=0
EXTRACT: note_on channel=5 note=67 velocity=75 time=0
EXTRACT: note_on channel=6 note=67 velocity=0 time=0.10344825
EXTRACT: note_on channel=3 note=58 velocity=0 time=0.040229875000000005
EXTRACT: note_on channel=1 note=67 velocity=93 time=0.011494250000000001
EXTRACT: note_on channel=3 note=63 velocity=106 time=0
EXTRACT: note_on channel=9 note=42 velocity=64 time=0
EXTRACT: note_on channel=9 note=42 velocity=0 time=0.0057471250000000005
EXTRACT: note_on channel=6 note=67 velocity=62 time=0.0057471250000000005
EXTRACT: note_on channel=4 note=39 velocity=0 time=0.14942525
EXTRACT: note_on channel=4 note=63 velocity=0 time=0.011494250000000001
EXTRACT: note_on channel=4 note=58 velocity=0 time=0
EXTRACT: note_on channel=4 note=55 velocity=0 time=0
EXTRACT: note_on channel=4 note=67 velocity=0 time=0
EXTRACT: note_on channel=4 note=39 velocity=55 time=0
EXTRACT: note_on channel=5 note=67 velocity=0 time=0
EXTRACT: note_on channel=5 note=70 velocity=0 time=0
EXTRACT: note_on channel=9 note=35 velocity=62 time=0
EXTRACT: note_on channel=9 note=37 velocity=59 time=0
EXTRACT: note_on channel=9 note=37 velocity=0 time=0.0057471250000000005
EXTRACT: note_on channel=9 note=35 velocity=0 time=0
EXTRACT: note_on channel=4 note=58 velocity=61 time=0.0057471250000000005
EXTRACT: note_on channel=4 note=67 velocity=59 time=0
EXTRACT: note_on channel=4 note=63 velocity=61 time=0
EXTRACT: note_on channel=4 note=55 velocity=58 time=0
EXTRACT: note_on channel=5 note=65 velocity=70 time=0
EXTRACT: note_on channel=5 note=70 velocity=67 time=0
EXTRACT: note_on channel=0 note=46 velocity=0 time=0.10344825
EXTRACT: note_on channel=1 note=67 velocity=0 time=0.011494250000000001
EXTRACT: note_on channel=3 note=63 velocity=0 time=0.0057471250000000005
EXTRACT: note_on channel=6 note=63 velocity=0 time=0
EXTRACT: note_on channel=4 note=39 velocity=0 time=0.028735625
EXTRACT: note_on channel=1 note=67 velocity=93 time=0.0057471250000000005
EXTRACT: note_on channel=10 note=67 velocity=87 time=0
EXTRACT: note_on channel=10 note=79 velocity=85 time=0
EXTRACT: note_on channel=3 note=63 velocity=106 time=0
EXTRACT: note_on channel=0 note=46 velocity=62 time=0
EXTRACT: note_on channel=4 note=63 velocity=0 time=0
EXTRACT: note_on channel=4 note=58 velocity=0 time=0
EXTRACT: note_on channel=4 note=67 velocity=0 time=0
EXTRACT: note_on channel=4 note=55 velocity=0 time=0
EXTRACT: note_on channel=4 note=39 velocity=55 time=0
EXTRACT: note_on channel=5 note=70 velocity=0 time=0
EXTRACT: note_on channel=5 note=65 velocity=0 time=0
EXTRACT: note_on channel=9 note=35 velocity=65 time=0
EXTRACT: note_on channel=9 note=37 velocity=63 time=0
EXTRACT: note_on channel=9 note=42 velocity=52 time=0
EXTRACT: note_on channel=9 note=42 velocity=0 time=0.0057471250000000005
EXTRACT: note_on channel=9 note=37 velocity=0 time=0
EXTRACT: note_on channel=9 note=35 velocity=0 time=0
EXTRACT: note_on channel=4 note=58 velocity=68 time=0.0057471250000000005
EXTRACT: note_on channel=4 note=67 velocity=65 time=0
EXTRACT: note_on channel=4 note=63 velocity=68 time=0
EXTRACT: note_on channel=4 note=55 velocity=60 time=0
EXTRACT: note_on channel=5 note=65 velocity=81 time=0
EXTRACT: note_on channel=5 note=70 velocity=74 time=0
EXTRACT: note_on channel=6 note=63 velocity=53 time=0
EXTRACT: note_on channel=10 note=79 velocity=0 time=0.26436775
EXTRACT: note_on channel=10 note=67 velocity=0 time=0.0057471250000000005
EXTRACT: note_on channel=0 note=51 velocity=0 time=0.034482750000000006
EXTRACT: note_on channel=6 note=67 velocity=0 time=0
EXTRACT: note_on channel=4 note=39 velocity=0 time=0.017241375000000003
EXTRACT: note_on channel=0 note=51 velocity=69 time=0.011494250000000001
EXTRACT: note_on channel=4 note=63 velocity=0 time=0
EXTRACT: note_on channel=4 note=58 velocity=0 time=0
EXTRACT: note_on channel=4 note=67 velocity=0 time=0
EXTRACT: note_on channel=4 note=55 velocity=0 time=0
EXTRACT: note_on channel=4 note=39 velocity=55 time=0
EXTRACT: note_on channel=5 note=70 velocity=0 time=0
EXTRACT: note_on channel=5 note=65 velocity=0 time=0
EXTRACT: note_on channel=9 note=40 velocity=75 time=0
EXTRACT: note_on channel=9 note=39 velocity=109 time=0
EXTRACT: note_on channel=9 note=42 velocity=62 time=0
EXTRACT: note_on channel=10 note=67 velocity=79 time=0.0057471250000000005
EXTRACT: note_on channel=10 note=79 velocity=85 time=0
EXTRACT: note_on channel=9 note=42 velocity=0 time=0
EXTRACT: note_on channel=9 note=39 velocity=0 time=0
EXTRACT: note_on channel=9 note=40 velocity=0 time=0
EXTRACT: note_on channel=4 note=67 velocity=65 time=0.0057471250000000005
EXTRACT: note_on channel=4 note=58 velocity=69 time=0
EXTRACT: note_on channel=4 note=63 velocity=69 time=0
EXTRACT: note_on channel=4 note=55 velocity=63 time=0
EXTRACT: note_on channel=5 note=70 velocity=66 time=0
EXTRACT: note_on channel=5 note=65 velocity=66 time=0
EXTRACT: note_on channel=6 note=67 velocity=64 time=0
EXTRACT: note_on channel=6 note=65 velocity=0 time=0.0057471250000000005
EXTRACT: note_on channel=4 note=39 velocity=0 time=0.14367812500000002
EXTRACT: note_on channel=4 note=63 velocity=0 time=0.011494250000000001
EXTRACT: note_on channel=4 note=67 velocity=0 time=0
EXTRACT: note_on channel=4 note=58 velocity=0 time=0
EXTRACT: note_on channel=4 note=55 velocity=0 time=0
EXTRACT: note_on channel=4 note=39 velocity=55 time=0
EXTRACT: note_on channel=5 note=65 velocity=0 time=0
EXTRACT: note_on channel=5 note=70 velocity=0 time=0
EXTRACT: note_on channel=9 note=35 velocity=62 time=0
EXTRACT: note_on channel=9 note=35 velocity=0 time=0.0057471250000000005
EXTRACT: note_on channel=4 note=58 velocity=67 time=0.0057471250000000005
EXTRACT: note_on channel=4 note=63 velocity=67 time=0
EXTRACT: note_on channel=4 note=67 velocity=60 time=0
EXTRACT: note_on channel=4 note=55 velocity=61 time=0
EXTRACT: note_on channel=5 note=65 velocity=64 time=0
EXTRACT: note_on channel=5 note=70 velocity=69 time=0
EXTRACT: note_on channel=10 note=79 velocity=0 time=0.06321837500000001
EXTRACT: note_on channel=10 note=67 velocity=0 time=0.011494250000000001
EXTRACT: note_on channel=1 note=67 velocity=0 time=0.040229875000000005
EXTRACT: note_on channel=0 note=58 velocity=0 time=0
EXTRACT: note_on channel=3 note=63 velocity=0 time=0.0057471250000000005
EXTRACT: note_on channel=4 note=39 velocity=0 time=0.028735625
EXTRACT: note_on channel=1 note=67 velocity=93 time=0.0057471250000000005
EXTRACT: note_on channel=3 note=63 velocity=104 time=0
EXTRACT: note_on channel=0 note=58 velocity=70 time=0
EXTRACT: note_on channel=4 note=67 velocity=0 time=0
EXTRACT: note_on channel=4 note=58 velocity=0 time=0
EXTRACT: note_on channel=4 note=63 velocity=0 time=0
EXTRACT: note_on channel=4 note=55 velocity=0 time=0
EXTRACT: note_on channel=4 note=39 velocity=55 time=0
EXTRACT: note_on channel=5 note=70 velocity=0 time=0
EXTRACT: note_on channel=5 note=65 velocity=0 time=0
EXTRACT: note_on channel=9 note=38 velocity=66 time=0
EXTRACT: note_on channel=9 note=40 velocity=66 time=0
EXTRACT: note_on channel=9 note=42 velocity=52 time=0
EXTRACT: note_on channel=9 note=28 velocity=52 time=0
EXTRACT: note_on channel=10 note=79 velocity=89 time=0.0057471250000000005
EXTRACT: note_on channel=10 note=67 velocity=89 time=0
EXTRACT: note_on channel=9 note=28 velocity=0 time=0
EXTRACT: note_on channel=9 note=38 velocity=0 time=0
EXTRACT: note_on channel=9 note=40 velocity=0 time=0
EXTRACT: note_on channel=9 note=42 velocity=0 time=0
EXTRACT: note_on channel=4 note=58 velocity=66 time=0.0057471250000000005
EXTRACT: note_on channel=4 note=67 velocity=60 time=0
EXTRACT: note_on channel=4 note=63 velocity=69 time=0
EXTRACT: note_on channel=4 note=55 velocity=60 time=0
EXTRACT: note_on channel=5 note=65 velocity=70 time=0
EXTRACT: note_on channel=5 note=70 velocity=68 time=0
EXTRACT: note_on channel=6 note=65 velocity=58 time=0
EXTRACT: note_on channel=4 note=39 velocity=0 time=0.14942525
EXTRACT: note_on channel=4 note=63 velocity=0 time=0.011494250000000001
EXTRACT: note_on channel=4 note=58 velocity=0 time=0
EXTRACT: note_on channel=4 note=67 velocity=0 time=0
EXTRACT: note_on channel=4 note=55 velocity=0 time=0
EXTRACT: note_on channel=4 note=39 velocity=55 time=0
EXTRACT: note_on channel=5 note=70 velocity=0 time=0
EXTRACT: note_on channel=5 note=65 velocity=0 time=0
EXTRACT: note_on channel=9 note=36 velocity=110 time=0
EXTRACT: note_on channel=9 note=36 velocity=0 time=0.0057471250000000005
EXTRACT: note_on channel=4 note=67 velocity=57 time=0.0057471250000000005
EXTRACT: note_on channel=4 note=58 velocity=57 time=0
EXTRACT: note_on channel=4 note=55 velocity=57 time=0
EXTRACT: note_on channel=4 note=63 velocity=57 time=0
EXTRACT: note_on channel=5 note=65 velocity=63 time=0
EXTRACT: note_on channel=5 note=70 velocity=63 time=0
EXTRACT: note_on channel=2 note=27 velocity=0 time=0.086206875
EXTRACT: note_on channel=0 note=51 velocity=0 time=0.0057471250000000005
EXTRACT: note_on channel=0 note=46 velocity=0 time=0.0057471250000000005
EXTRACT: note_on channel=6 note=63 velocity=0 time=0
EXTRACT: note_on channel=10 note=67 velocity=0 time=0
EXTRACT: note_on channel=10 note=79 velocity=0 time=0.011494250000000001
EXTRACT: note_on channel=8 note=70 velocity=0 time=0.0057471250000000005
EXTRACT: note_on channel=8 note=79 velocity=0 time=0.0057471250000000005
EXTRACT: note_on channel=0 note=63 velocity=0 time=0.0057471250000000005
EXTRACT: note_on channel=8 note=75 velocity=0 time=0.0057471250000000005
EXTRACT: note_on channel=0 note=58 velocity=0 time=0.0057471250000000005
EXTRACT: note_on channel=6 note=67 velocity=0 time=0
EXTRACT: note_on channel=6 note=65 velocity=0 time=0.0057471250000000005
EXTRACT: note_on channel=4 note=39 velocity=0 time=0.0057471250000000005
EXTRACT: note_on channel=8 note=70 velocity=49 time=0.0057471250000000005
EXTRACT: note_on channel=8 note=74 velocity=72 time=0
EXTRACT: note_on channel=8 note=77 velocity=53 time=0
EXTRACT: note_on channel=2 note=34 velocity=96 time=0.0057471250000000005
EXTRACT: note_on channel=0 note=46 velocity=79 time=0
EXTRACT: note_on channel=0 note=53 velocity=76 time=0
EXTRACT: note_on channel=0 note=62 velocity=76 time=0
EXTRACT: note_on channel=4 note=55 velocity=0 time=0
EXTRACT: note_on channel=4 note=67 velocity=0 time=0
EXTRACT: note_on channel=4 note=58 velocity=0 time=0
EXTRACT: note_on channel=4 note=63 velocity=0 time=0
EXTRACT: note_on channel=4 note=46 velocity=55 time=0
EXTRACT: note_on channel=5 note=70 velocity=0 time=0
EXTRACT: note_on channel=5 note=65 velocity=0 time=0
EXTRACT: note_on channel=6 note=67 velocity=62 time=0
EXTRACT: note_on channel=9 note=36 velocity=113 time=0
EXTRACT: note_on channel=9 note=41 velocity=110 time=0
EXTRACT: note_on channel=9 note=46 velocity=80 time=0
EXTRACT: note_on channel=10 note=70 velocity=83 time=0.0057471250000000005
EXTRACT: note_on channel=10 note=58 velocity=86 time=0
EXTRACT: note_on channel=9 note=46 velocity=0 time=0
EXTRACT: note_on channel=9 note=41 velocity=0 time=0
EXTRACT: note_on channel=9 note=36 velocity=0 time=0
EXTRACT: note_on channel=4 note=58 velocity=74 time=0.0057471250000000005
EXTRACT: note_on channel=4 note=62 velocity=69 time=0
EXTRACT: note_on channel=4 note=65 velocity=66 time=0
EXTRACT: note_on channel=4 note=53 velocity=66 time=0
EXTRACT: note_on channel=5 note=65 velocity=74 time=0
EXTRACT: note_on channel=5 note=70 velocity=63 time=0
EXTRACT: note_on channel=1 note=67 velocity=0 time=0.21264362500000003
EXTRACT: note_on channel=3 note=63 velocity=0 time=0.0057471250000000005
EXTRACT: note_on channel=0 note=53 velocity=0 time=0.08045975000000001
EXTRACT: note_on channel=4 note=46 velocity=0 time=0.022988500000000002
EXTRACT: note_on channel=3 note=62 velocity=81 time=0
EXTRACT: note_on channel=1 note=65 velocity=83 time=0
EXTRACT: note_on channel=0 note=53 velocity=79 time=0
EXTRACT: note_on channel=4 note=65 velocity=0 time=0
EXTRACT: note_on channel=4 note=58 velocity=0 time=0
EXTRACT: note_on channel=4 note=62 velocity=0 time=0
EXTRACT: note_on channel=4 note=53 velocity=0 time=0
EXTRACT: note_on channel=4 note=46 velocity=55 time=0
EXTRACT: note_on channel=5 note=70 velocity=0 time=0
EXTRACT: note_on channel=5 note=65 velocity=0 time=0
EXTRACT: note_on channel=9 note=35 velocity=64 time=0
EXTRACT: note_on channel=9 note=38 velocity=64 time=0
EXTRACT: note_on channel=9 note=42 velocity=50 time=0
EXTRACT: note_on channel=9 note=42 velocity=0 time=0.0057471250000000005
EXTRACT: note_on channel=9 note=38 velocity=0 time=0
EXTRACT: note_on channel=9 note=35 velocity=0 time=0
EXTRACT: note_on channel=4 note=53 velocity=60 time=0.0057471250000000005
EXTRACT: note_on channel=4 note=58 velocity=61 time=0
EXTRACT: note_on channel=4 note=62 velocity=61 time=0
EXTRACT: note_on channel=4 note=65 velocity=59 time=0
EXTRACT: note_on channel=5 note=70 velocity=62 time=0
EXTRACT: note_on channel=5 note=65 velocity=64 time=0
EXTRACT: note_on channel=6 note=62 velocity=56 time=0
EXTRACT: note_on channel=3 note=62 velocity=0 time=0.1149425
EXTRACT: note_on channel=1 note=65 velocity=0 time=0
EXTRACT: note_on channel=3 note=62 velocity=105 time=0
EXTRACT: note_on channel=1 note=65 velocity=93 time=0
EXTRACT: note_on channel=9 note=35 velocity=64 time=0
EXTRACT: note_on channel=9 note=35 velocity=0 time=0.0057471250000000005
EXTRACT: note_on channel=6 note=67 velocity=0 time=0.14942525
EXTRACT: note_on channel=4 note=46 velocity=0 time=0.0057471250000000005
EXTRACT: note_on channel=0 note=58 velocity=55 time=0.011494250000000001
EXTRACT: note_on channel=4 note=62 velocity=0 time=0
EXTRACT: note_on channel=4 note=53 velocity=0 time=0
EXTRACT: note_on channel=4 note=58 velocity=0 time=0
EXTRACT: note_on channel=4 note=65 velocity=0 time=0
EXTRACT: note_on channel=4 note=46 velocity=55 time=0
EXTRACT: note_on channel=5 note=65 velocity=0 time=0
EXTRACT: note_on channel=5 note=70 velocity=0 time=0
EXTRACT: note_on channel=9 note=40 velocity=78 time=0
EXTRACT: note_on channel=9 note=39 velocity=111 time=0
EXTRACT: note_on channel=9 note=42 velocity=64 time=0
EXTRACT: note_on channel=5 note=65 velocity=74 time=0.0057471250000000005
EXTRACT: note_on channel=9 note=42 velocity=0 time=0
EXTRACT: note_on channel=9 note=39 velocity=0 time=0
EXTRACT: note_on channel=9 note=40 velocity=0 time=0
EXTRACT: note_on channel=4 note=58 velocity=65 time=0.0057471250000000005
EXTRACT: note_on channel=4 note=53 velocity=64 time=0
EXTRACT: note_on channel=4 note=62 velocity=67 time=0
EXTRACT: note_on channel=4 note=65 velocity=63 time=0
EXTRACT: note_on channel=5 note=70 velocity=65 time=0
EXTRACT: note_on channel=6 note=67 velocity=64 time=0
EXTRACT: note_on channel=9 note=37 velocity=57 time=0.16091950000000002
EXTRACT: note_on channel=9 note=37 velocity=0 time=0.0057471250000000005
EXTRACT: note_on channel=3 note=62 velocity=0 time=0.10919537500000001
EXTRACT: note_on channel=1 note=65 velocity=0 time=0
EXTRACT: note_on channel=0 note=58 velocity=0 time=0
EXTRACT: note_on channel=4 note=46 velocity=0 time=0.045977000000000004
EXTRACT: note_on channel=5 note=65 velocity=0 time=0.0057471250000000005
EXTRACT: note_on channel=3 note=63 velocity=88 time=0
EXTRACT: note_on channel=1 note=67 velocity=86 time=0
EXTRACT: note_on channel=0 note=58 velocity=64 time=0
EXTRACT: note_on channel=4 note=62 velocity=0 time=0
EXTRACT: note_on channel=4 note=58 velocity=0 time=0
EXTRACT: note_on channel=4 note=53 velocity=0 time=0
EXTRACT: note_on channel=4 note=65 velocity=0 time=0
EXTRACT: note_on channel=4 note=46 velocity=55 time=0
EXTRACT: note_on channel=5 note=70 velocity=0 time=0
EXTRACT: note_on channel=5 note=70 velocity=61 time=0
EXTRACT: note_on channel=5 note=65 velocity=64 time=0
EXTRACT: note_on channel=9 note=40 velocity=67 time=0
EXTRACT: note_on channel=9 note=42 velocity=53 time=0
EXTRACT: note_on channel=9 note=42 velocity=0 time=0.0057471250000000005
EXTRACT: note_on channel=9 note=40 velocity=0 time=0
EXTRACT: note_on channel=4 note=53 velocity=60 time=0.0057471250000000005
EXTRACT: note_on channel=4 note=62 velocity=64 time=0
EXTRACT: note_on channel=4 note=58 velocity=59 time=0
EXTRACT: note_on channel=4 note=65 velocity=59 time=0
EXTRACT: note_on channel=6 note=65 velocity=55 time=0
EXTRACT: note_on channel=3 note=63 velocity=0 time=0.14367812500000002
EXTRACT: note_on channel=1 note=67 velocity=0 time=0
EXTRACT: note_on channel=4 note=46 velocity=0 time=0.0057471250000000005
EXTRACT: note_on channel=5 note=65 velocity=0 time=0
EXTRACT: note_on channel=5 note=70 velocity=0 time=0
EXTRACT: note_on channel=10 note=58 velocity=0 time=0.0057471250000000005
EXTRACT: note_on channel=3 note=63 velocity=110 time=0
EXTRACT: note_on channel=1 note=67 velocity=93 time=0
EXTRACT: note_on channel=4 note=58 velocity=0 time=0
EXTRACT: note_on channel=4 note=53 velocity=0 time=0
EXTRACT: note_on channel=4 note=62 velocity=0 time=0
EXTRACT: note_on channel=4 note=65 velocity=0 time=0
EXTRACT: note_on channel=4 note=46 velocity=55 time=0
EXTRACT: note_on channel=5 note=70 velocity=65 time=0
EXTRACT: note_on channel=5 note=65 velocity=72 time=0
EXTRACT: note_on channel=9 note=39 velocity=108 time=0
EXTRACT: note_on channel=9 note=39 velocity=0 time=0.0057471250000000005
EXTRACT: note_on channel=4 note=58 velocity=67 time=0.0057471250000000005
EXTRACT: note_on channel=4 note=53 velocity=63 time=0
EXTRACT: note_on channel=4 note=65 velocity=60 time=0
EXTRACT: note_on channel=4 note=62 velocity=66 time=0
EXTRACT: note_on channel=10 note=70 velocity=0 time=0
EXTRACT: note_on channel=0 note=53 velocity=0 time=0.086206875
EXTRACT: note_on channel=6 note=67 velocity=0 time=0.017241375000000003
EXTRACT: note_on channel=0 note=62 velocity=0 time=0.0057471250000000005
EXTRACT: note_on channel=0 note=53 velocity=83 time=0.051724125
EXTRACT: note_on channel=0 note=62 velocity=87 time=0
EXTRACT: note_on channel=9 note=42 velocity=61 time=0
EXTRACT: note_on channel=9 note=42 velocity=0 time=0.0057471250000000005
EXTRACT: note_on channel=6 note=67 velocity=62 time=0.0057471250000000005
EXTRACT: note_on channel=4 note=46 velocity=0 time=0.14942525
EXTRACT: note_on channel=5 note=65 velocity=0 time=0
EXTRACT: note_on channel=5 note=70 velocity=0 time=0
EXTRACT: note_on channel=4 note=65 velocity=0 time=0.011494250000000001
EXTRACT: note_on channel=4 note=58 velocity=0 time=0
EXTRACT: note_on channel=4 note=53 velocity=0 time=0
EXTRACT: note_on channel=4 note=62 velocity=0 time=0
EXTRACT: note_on channel=4 note=46 velocity=55 time=0
EXTRACT: note_on channel=5 note=70 velocity=60 time=0
EXTRACT: note_on channel=5 note=65 velocity=64 time=0
EXTRACT: note_on channel=9 note=35 velocity=61 time=0
EXTRACT: note_on channel=9 note=37 velocity=59 time=0
EXTRACT: note_on channel=9 note=37 velocity=0 time=0.0057471250000000005
EXTRACT: note_on channel=9 note=35 velocity=0 time=0
EXTRACT: note_on channel=4 note=58 velocity=65 time=0.0057471250000000005
EXTRACT: note_on channel=4 note=53 velocity=63 time=0
EXTRACT: note_on channel=4 note=62 velocity=65 time=0
EXTRACT: note_on channel=4 note=65 velocity=59 time=0
EXTRACT: note_on channel=0 note=53 velocity=0 time=0.074712625
EXTRACT: note_on channel=3 note=63 velocity=0 time=0.028735625
EXTRACT: note_on channel=1 note=67 velocity=0 time=0
EXTRACT: note_on channel=6 note=62 velocity=0 time=0.017241375000000003
EXTRACT: note_on channel=4 note=46 velocity=0 time=0.028735625
EXTRACT: note_on channel=5 note=65 velocity=0 time=0
EXTRACT: note_on channel=5 note=70 velocity=0 time=0
EXTRACT: note_on channel=3 note=62 velocity=85 time=0
EXTRACT: note_on channel=1 note=65 velocity=85 time=0
EXTRACT: note_on channel=0 note=53 velocity=74 time=0
EXTRACT: note_on channel=4 note=62 velocity=0 time=0
EXTRACT: note_on channel=4 note=58 velocity=0 time=0
EXTRACT: note_on channel=4 note=53 velocity=0 time=0
EXTRACT: note_on channel=4 note=65 velocity=0 time=0
EXTRACT: note_on channel=4 note=46 velocity=55 time=0
EXTRACT: note_on channel=5 note=65 velocity=70 time=0
EXTRACT: note_on channel=5 note=70 velocity=65 time=0
EXTRACT: note_on channel=9 note=35 velocity=67 time=0
EXTRACT: note_on channel=9 note=37 velocity=64 time=0
EXTRACT: note_on channel=9 note=42 velocity=53 time=0
EXTRACT: note_on channel=9 note=42 velocity=0 time=0.0057471250000000005
EXTRACT: note_on channel=9 note=37 velocity=0 time=0
EXTRACT: note_on channel=9 note=35 velocity=0 time=0
EXTRACT: note_on channel=4 note=58 velocity=64 time=0.0057471250000000005
EXTRACT: note_on channel=4 note=53 velocity=64 time=0
EXTRACT: note_on channel=4 note=62 velocity=64 time=0
EXTRACT: note_on channel=4 note=65 velocity=59 time=0
EXTRACT: note_on channel=6 note=62 velocity=53 time=0
EXTRACT: note_on channel=3 note=62 velocity=0 time=0.13793100000000003
EXTRACT: note_on channel=1 note=65 velocity=0 time=0
EXTRACT: note_on channel=3 note=62 velocity=107 time=0
EXTRACT: note_on channel=1 note=65 velocity=93 time=0
EXTRACT: note_on channel=0 note=58 velocity=0 time=0.1149425
EXTRACT: note_on channel=6 note=67 velocity=0 time=0.028735625
EXTRACT: note_on channel=4 note=46 velocity=0 time=0.017241375000000003
EXTRACT: note_on channel=5 note=70 velocity=0 time=0
EXTRACT: note_on channel=5 note=65 velocity=0 time=0
EXTRACT: note_on channel=0 note=58 velocity=74 time=0.011494250000000001
EXTRACT: note_on channel=4 note=62 velocity=0 time=0
EXTRACT: note_on channel=4 note=58 velocity=0 time=0
EXTRACT: note_on channel=4 note=53 velocity=0 time=0
EXTRACT: note_on channel=4 note=65 velocity=0 time=0
EXTRACT: note_on channel=4 note=46 velocity=55 time=0
EXTRACT: note_on channel=9 note=40 velocity=81 time=0
EXTRACT: note_on channel=9 note=39 velocity=114 time=0
EXTRACT: note_on channel=9 note=42 velocity=67 time=0
EXTRACT: note_on channel=9 note=42 velocity=0 time=0.0057471250000000005
EXTRACT: note_on channel=9 note=39 velocity=0 time=0
EXTRACT: note_on channel=9 note=40 velocity=0 time=0
EXTRACT: note_on channel=4 note=58 velocity=75 time=0.0057471250000000005
EXTRACT: note_on channel=4 note=53 velocity=66 time=0
EXTRACT: note_on channel=4 note=62 velocity=69 time=0
EXTRACT: note_on channel=4 note=65 velocity=63 time=0
EXTRACT: note_on channel=5 note=70 velocity=72 time=0
EXTRACT: note_on channel=5 note=65 velocity=72 time=0
EXTRACT: note_on channel=6 note=67 velocity=64 time=0
EXTRACT: note_on channel=6 note=65 velocity=0 time=0.0057471250000000005
EXTRACT: note_on channel=4 note=46 velocity=0 time=0.14367812500000002
EXTRACT: note_on channel=4 note=62 velocity=0 time=0.011494250000000001
EXTRACT: note_on channel=4 note=58 velocity=0 time=0
EXTRACT: note_on channel=4 note=53 velocity=0 time=0
EXTRACT: note_on channel=4 note=65 velocity=0 time=0
EXTRACT: note_on channel=4 note=46 velocity=55 time=0
EXTRACT: note_on channel=5 note=65 velocity=0 time=0
EXTRACT: note_on channel=5 note=70 velocity=0 time=0
EXTRACT: note_on channel=9 note=35 velocity=61 time=0
EXTRACT: note_on channel=9 note=35 velocity=0 time=0.0057471250000000005
EXTRACT: note_on channel=4 note=58 velocity=66 time=0.0057471250000000005
EXTRACT: note_on channel=4 note=53 velocity=64 time=0
EXTRACT: note_on channel=4 note=65 velocity=59 time=0
EXTRACT: note_on channel=4 note=62 velocity=66 time=0
EXTRACT: note_on channel=5 note=65 velocity=65 time=0
EXTRACT: note_on channel=5 note=70 velocity=63 time=0
EXTRACT: note_on channel=3 note=62 velocity=0 time=0.10919537500000001
EXTRACT: note_on channel=1 note=65 velocity=0 time=0
EXTRACT: note_on channel=4 note=46 velocity=0 time=0.040229875000000005
EXTRACT: note_on channel=3 note=60 velocity=87 time=0
EXTRACT: note_on channel=1 note=63 velocity=87 time=0
EXTRACT: note_on channel=0 note=65 velocity=84 time=0
EXTRACT: note_on channel=4 note=65 velocity=0 time=0
EXTRACT: note_on channel=4 note=58 velocity=0 time=0
EXTRACT: note_on channel=4 note=53 velocity=0 time=0
EXTRACT: note_on channel=4 note=62 velocity=0 time=0
EXTRACT: note_on channel=4 note=46 velocity=55 time=0
EXTRACT: note_on channel=5 note=70 velocity=0 time=0
EXTRACT: note_on channel=5 note=65 velocity=0 time=0
EXTRACT: note_on channel=9 note=40 velocity=65 time=0
EXTRACT: note_on channel=9 note=42 velocity=51 time=0
EXTRACT: note_on channel=9 note=28 velocity=51 time=0
EXTRACT: note_on channel=9 note=28 velocity=0 time=0.0057471250000000005
EXTRACT: note_on channel=9 note=42 velocity=0 time=0
EXTRACT: note_on channel=9 note=40 velocity=0 time=0
EXTRACT: note_on channel=4 note=53 velocity=60 time=0.0057471250000000005
EXTRACT: note_on channel=4 note=58 velocity=63 time=0
EXTRACT: note_on channel=4 note=62 velocity=66 time=0
EXTRACT: note_on channel=4 note=65 velocity=58 time=0
EXTRACT: note_on channel=5 note=65 velocity=65 time=0
EXTRACT: note_on channel=5 note=70 velocity=61 time=0
EXTRACT: note_on channel=6 note=65 velocity=58 time=0
EXTRACT: note_on channel=3 note=60 velocity=0 time=0.14367812500000002
EXTRACT: note_on channel=1 note=63 velocity=0 time=0
EXTRACT: note_on channel=4 note=46 velocity=0 time=0.0057471250000000005
EXTRACT: note_on channel=3 note=60 velocity=108 time=0
EXTRACT: note_on channel=1 note=63 velocity=93 time=0
EXTRACT: note_on channel=4 note=62 velocity=0 time=0
EXTRACT: note_on channel=4 note=53 velocity=0 time=0
EXTRACT: note_on channel=4 note=58 velocity=0 time=0
EXTRACT: note_on channel=4 note=65 velocity=0 time=0
EXTRACT: note_on channel=4 note=46 velocity=55 time=0
EXTRACT: note_on channel=5 note=70 velocity=0 time=0
EXTRACT: note_on channel=5 note=65 velocity=0 time=0
EXTRACT: note_on channel=4 note=58 velocity=57 time=0.011494250000000001
EXTRACT: note_on channel=4 note=62 velocity=57 time=0
EXTRACT: note_on channel=4 note=65 velocity=57 time=0
EXTRACT: note_on channel=4 note=53 velocity=57 time=0
EXTRACT: note_on channel=5 note=65 velocity=63 time=0
EXTRACT: note_on channel=5 note=70 velocity=60 time=0
EXTRACT: note_on channel=2 note=34 velocity=0 time=0.09770112500000001
EXTRACT: note_on channel=6 note=62 velocity=0 time=0
EXTRACT: note_on channel=8 note=74 velocity=0 time=0.0057471250000000005
EXTRACT: note_on channel=6 note=67 velocity=0 time=0.017241375000000003
EXTRACT: note_on channel=0 note=65 velocity=0 time=0.017241375000000003
EXTRACT: note_on channel=6 note=65 velocity=0 time=0
EXTRACT: note_on channel=0 note=46 velocity=0 time=0.011494250000000001
EXTRACT: note_on channel=4 note=46 velocity=0 time=0
EXTRACT: note_on channel=0 note=58 velocity=0 time=0.0057471250000000005
EXTRACT: note_on channel=8 note=77 velocity=0 time=0
EXTRACT: note_on channel=8 note=70 velocity=0 time=0
EXTRACT: note_on channel=2 note=33 velocity=96 time=0.0057471250000000005
EXTRACT: note_on channel=0 note=45 velocity=72 time=0
EXTRACT: note_on channel=0 note=65 velocity=80 time=0
EXTRACT: note_on channel=4 note=65 velocity=0 time=0
EXTRACT: note_on channel=4 note=58 velocity=0 time=0
EXTRACT: note_on channel=4 note=62 velocity=0 time=0
EXTRACT: note_on channel=4 note=53 velocity=0 time=0
EXTRACT: note_on channel=4 note=45 velocity=55 time=0
EXTRACT: note_on channel=5 note=70 velocity=0 time=0
EXTRACT: note_on channel=5 note=65 velocity=0 time=0
EXTRACT: note_on channel=6 note=65 velocity=62 time=0
EXTRACT: note_on channel=8 note=77 velocity=63 time=0
EXTRACT: note_on channel=8 note=72 velocity=67 time=0
EXTRACT: note_on channel=8 note=69 velocity=61 time=0
EXTRACT: note_on channel=9 note=36 velocity=114 time=0
EXTRACT: note_on channel=9 note=41 velocity=110 time=0
EXTRACT: note_on channel=9 note=46 velocity=81 time=0
EXTRACT: note_on channel=0 note=62 velocity=0 time=0.0057471250000000005
EXTRACT: note_on channel=10 note=69 velocity=87 time=0
EXTRACT: note_on channel=10 note=57 velocity=62 time=0
EXTRACT: note_on channel=9 note=46 velocity=0 time=0
EXTRACT: note_on channel=9 note=41 velocity=0 time=0
EXTRACT: note_on channel=9 note=36 velocity=0 time=0
EXTRACT: note_on channel=0 note=53 velocity=0 time=0.0057471250000000005
EXTRACT: note_on channel=4 note=60 velocity=69 time=0
EXTRACT: note_on channel=4 note=57 velocity=69 time=0
EXTRACT: note_on channel=4 note=65 velocity=69 time=0
EXTRACT: note_on channel=5 note=65 velocity=76 time=0
EXTRACT: note_on channel=5 note=70 velocity=69 time=0
EXTRACT: note_on channel=4 note=45 velocity=0 time=0.32183900000000004
EXTRACT: note_on channel=0 note=53 velocity=79 time=0.011494250000000001
EXTRACT: note_on channel=4 note=60 velocity=0 time=0
EXTRACT: note_on channel=4 note=57 velocity=0 time=0
EXTRACT: note_on channel=4 note=65 velocity=0 time=0
EXTRACT: note_on channel=4 note=45 velocity=55 time=0
EXTRACT: note_on channel=5 note=70 velocity=0 time=0
EXTRACT: note_on channel=5 note=65 velocity=0 time=0
EXTRACT: note_on channel=9 note=35 velocity=68 time=0
EXTRACT: note_on channel=9 note=38 velocity=68 time=0
EXTRACT: note_on channel=9 note=42 velocity=54 time=0
EXTRACT: note_on channel=9 note=42 velocity=0 time=0.0057471250000000005
EXTRACT: note_on channel=9 note=38 velocity=0 time=0
EXTRACT: note_on channel=9 note=35 velocity=0 time=0
EXTRACT: note_on channel=4 note=57 velocity=59 time=0.0057471250000000005
EXTRACT: note_on channel=4 note=60 velocity=70 time=0
EXTRACT: note_on channel=4 note=65 velocity=66 time=0
EXTRACT: note_on channel=5 note=70 velocity=67 time=0
EXTRACT: note_on channel=5 note=65 velocity=71 time=0
EXTRACT: note_on channel=6 note=60 velocity=56 time=0
EXTRACT: note_on channel=9 note=35 velocity=63 time=0.16091950000000002
EXTRACT: note_on channel=9 note=35 velocity=0 time=0.0057471250000000005
EXTRACT: note_on channel=10 note=69 velocity=0 time=0.10344825
EXTRACT: note_on channel=10 note=57 velocity=0 time=0.022988500000000002
EXTRACT: note_on channel=6 note=65 velocity=0 time=0.022988500000000002
EXTRACT: note_on channel=4 note=45 velocity=0 time=0.0057471250000000005
EXTRACT: note_on channel=4 note=57 velocity=0 time=0.011494250000000001
EXTRACT: note_on channel=4 note=60 velocity=0 time=0
EXTRACT: note_on channel=4 note=65 velocity=0 time=0
EXTRACT: note_on channel=4 note=45 velocity=55 time=0
EXTRACT: note_on channel=5 note=65 velocity=0 time=0
EXTRACT: note_on channel=5 note=70 velocity=0 time=0
EXTRACT: note_on channel=9 note=40 velocity=77 time=0
EXTRACT: note_on channel=9 note=39 velocity=110 time=0
EXTRACT: note_on channel=9 note=42 velocity=64 time=0
EXTRACT: note_on channel=10 note=70 velocity=86 time=0.0057471250000000005
EXTRACT: note_on channel=10 note=58 velocity=86 time=0
EXTRACT: note_on channel=9 note=42 velocity=0 time=0
EXTRACT: note_on channel=9 note=39 velocity=0 time=0
EXTRACT: note_on channel=9 note=40 velocity=0 time=0
EXTRACT: note_on channel=3 note=60 velocity=0 time=0.0057471250000000005
EXTRACT: note_on channel=1 note=63 velocity=0 time=0
EXTRACT: note_on channel=0 note=60 velocity=70 time=0
EXTRACT: note_on channel=4 note=60 velocity=75 time=0
EXTRACT: note_on channel=4 note=65 velocity=75 time=0
EXTRACT: note_on channel=4 note=57 velocity=75 time=0
EXTRACT: note_on channel=5 note=70 velocity=65 time=0
EXTRACT: note_on channel=5 note=65 velocity=71 time=0
EXTRACT: note_on channel=6 note=65 velocity=64 time=0
EXTRACT: note_on channel=9 note=37 velocity=57 time=0.16091950000000002
EXTRACT: note_on channel=9 note=37 velocity=0 time=0.0057471250000000005
EXTRACT: note_on channel=0 note=65 velocity=0 time=0.10919537500000001
EXTRACT: note_on channel=6 note=60 velocity=0 time=0.0057471250000000005
EXTRACT: note_on channel=4 note=45 velocity=0 time=0.040229875000000005
EXTRACT: note_on channel=0 note=65 velocity=81 time=0.011494250000000001
EXTRACT: note_on channel=0 note=69 velocity=72 time=0
EXTRACT: note_on channel=4 note=60 velocity=0 time=0
EXTRACT: note_on channel=4 note=65 velocity=0 time=0
EXTRACT: note_on channel=4 note=57 velocity=0 time=0
EXTRACT: note_on channel=4 note=45 velocity=55 time=0
EXTRACT: note_on channel=5 note=65 velocity=0 time=0
EXTRACT: note_on channel=5 note=70 velocity=0 time=0
EXTRACT: note_on channel=9 note=40 velocity=65 time=0
EXTRACT: note_on channel=9 note=42 velocity=51 time=0
EXTRACT: note_on channel=9 note=42 velocity=0 time=0.0057471250000000005
EXTRACT: note_on channel=9 note=40 velocity=0 time=0
EXTRACT: note_on channel=0 note=72 velocity=55 time=0.0057471250000000005
EXTRACT: note_on channel=4 note=57 velocity=60 time=0
EXTRACT: note_on channel=4 note=65 velocity=60 time=0
EXTRACT: note_on channel=4 note=60 velocity=59 time=0
EXTRACT: note_on channel=5 note=65 velocity=64 time=0
EXTRACT: note_on channel=5 note=70 velocity=59 time=0
EXTRACT: note_on channel=6 note=60 velocity=55 time=0
EXTRACT: note_on channel=10 note=70 velocity=0 time=0.132183875
EXTRACT: note_on channel=10 note=58 velocity=0 time=0.0057471250000000005
EXTRACT: note_on channel=4 note=45 velocity=0 time=0.011494250000000001
EXTRACT: note_on channel=4 note=57 velocity=0 time=0.011494250000000001
EXTRACT: note_on channel=4 note=65 velocity=0 time=0
EXTRACT: note_on channel=4 note=60 velocity=0 time=0
EXTRACT: note_on channel=4 note=45 velocity=55 time=0
EXTRACT: note_on channel=5 note=70 velocity=0 time=0
EXTRACT: note_on channel=5 note=65 velocity=0 time=0
EXTRACT: note_on channel=9 note=39 velocity=110 time=0
EXTRACT: note_on channel=9 note=39 velocity=0 time=0.0057471250000000005
EXTRACT: note_on channel=4 note=60 velocity=74 time=0.0057471250000000005
EXTRACT: note_on channel=4 note=57 velocity=74 time=0
EXTRACT: note_on channel=4 note=65 velocity=74 time=0
EXTRACT: note_on channel=5 note=65 velocity=69 time=0
EXTRACT: note_on channel=5 note=70 velocity=65 time=0
EXTRACT: note_on channel=6 note=65 velocity=0 time=0.10344825
EXTRACT: note_on channel=9 note=42 velocity=64 time=0.05747125
EXTRACT: note_on channel=9 note=42 velocity=0 time=0.0057471250000000005
EXTRACT: note_on channel=6 note=65 velocity=62 time=0.0057471250000000005
EXTRACT: note_on channel=4 note=45 velocity=0 time=0.14942525
EXTRACT: note_on channel=4 note=60 velocity=0 time=0.011494250000000001
EXTRACT: note_on channel=4 note=57 velocity=0 time=0
EXTRACT: note_on channel=4 note=65 velocity=0 time=0
EXTRACT: note_on channel=4 note=45 velocity=55 time=0
EXTRACT: note_on channel=5 note=70 velocity=0 time=0
EXTRACT: note_on channel=5 note=65 velocity=0 time=0
EXTRACT: note_on channel=9 note=35 velocity=62 time=0
EXTRACT: note_on channel=9 note=37 velocity=59 time=0
EXTRACT: note_on channel=9 note=37 velocity=0 time=0.0057471250000000005
EXTRACT: note_on channel=9 note=35 velocity=0 time=0
EXTRACT: note_on channel=4 note=60 velocity=70 time=0.0057471250000000005
EXTRACT: note_on channel=4 note=57 velocity=63 time=0
EXTRACT: note_on channel=4 note=65 velocity=69 time=0
EXTRACT: note_on channel=5 note=65 velocity=72 time=0
EXTRACT: note_on channel=5 note=70 velocity=67 time=0
EXTRACT: note_on channel=0 note=53 velocity=0 time=0.10344825
EXTRACT: note_on channel=6 note=60 velocity=0 time=0.017241375000000003
EXTRACT: note_on channel=4 note=45 velocity=0 time=0.028735625
EXTRACT: note_on channel=3 note=67 velocity=105 time=0
EXTRACT: note_on channel=0 note=53 velocity=58 time=0
EXTRACT: note_on channel=4 note=60 velocity=0 time=0
EXTRACT: note_on channel=4 note=57 velocity=0 time=0
EXTRACT: note_on channel=4 note=65 velocity=0 time=0
EXTRACT: note_on channel=4 note=45 velocity=55 time=0
EXTRACT: note_on channel=5 note=70 velocity=0 time=0
EXTRACT: note_on channel=5 note=65 velocity=0 time=0
EXTRACT: note_on channel=9 note=35 velocity=65 time=0
EXTRACT: note_on channel=9 note=37 velocity=63 time=0
EXTRACT: note_on channel=9 note=42 velocity=52 time=0
EXTRACT: note_on channel=9 note=42 velocity=0 time=0.0057471250000000005
EXTRACT: note_on channel=9 note=37 velocity=0 time=0
EXTRACT: note_on channel=9 note=35 velocity=0 time=0
EXTRACT: note_on channel=4 note=60 velocity=75 time=0.0057471250000000005
EXTRACT: note_on channel=4 note=57 velocity=64 time=0
EXTRACT: note_on channel=4 note=65 velocity=71 time=0
EXTRACT: note_on channel=5 note=65 velocity=69 time=0
EXTRACT: note_on channel=5 note=70 velocity=64 time=0
EXTRACT: note_on channel=6 note=60 velocity=53 time=0
EXTRACT: note_on channel=0 note=60 velocity=0 time=0.27011487500000003
EXTRACT: note_on channel=3 note=67 velocity=0 time=0.0057471250000000005
EXTRACT: note_on channel=6 note=65 velocity=0 time=0.028735625
EXTRACT: note_on channel=0 note=69 velocity=0 time=0.017241375000000003
EXTRACT: note_on channel=4 note=45 velocity=0 time=0
EXTRACT: note_on channel=3 note=67 velocity=109 time=0
EXTRACT: note_on channel=0 note=60 velocity=71 time=0
EXTRACT: note_on channel=4 note=60 velocity=0 time=0
EXTRACT: note_on channel=4 note=57 velocity=0 time=0
EXTRACT: note_on channel=4 note=65 velocity=0 time=0
EXTRACT: note_on channel=4 note=45 velocity=55 time=0
EXTRACT: note_on channel=5 note=70 velocity=0 time=0
EXTRACT: note_on channel=5 note=65 velocity=0 time=0
EXTRACT: note_on channel=9 note=40 velocity=75 time=0
EXTRACT: note_on channel=9 note=39 velocity=109 time=0
EXTRACT: note_on channel=9 note=42 velocity=62 time=0
EXTRACT: note_on channel=9 note=42 velocity=0 time=0.0057471250000000005
EXTRACT: note_on channel=9 note=39 velocity=0 time=0
EXTRACT: note_on channel=9 note=40 velocity=0 time=0
EXTRACT: note_on channel=4 note=60 velocity=74 time=0.0057471250000000005
EXTRACT: note_on channel=4 note=57 velocity=74 time=0
EXTRACT: note_on channel=4 note=65 velocity=74 time=0
EXTRACT: note_on channel=5 note=65 velocity=76 time=0
EXTRACT: note_on channel=5 note=70 velocity=69 time=0
EXTRACT: note_on channel=6 note=65 velocity=64 time=0
EXTRACT: note_on channel=0 note=72 velocity=0 time=0.011494250000000001
EXTRACT: note_on channel=4 note=45 velocity=0 time=0.13793100000000003
EXTRACT: note_on channel=4 note=60 velocity=0 time=0.011494250000000001
EXTRACT: note_on channel=4 note=57 velocity=0 time=0
EXTRACT: note_on channel=4 note=65 velocity=0 time=0
EXTRACT: note_on channel=4 note=45 velocity=55 time=0
EXTRACT: note_on channel=5 note=70 velocity=0 time=0
EXTRACT: note_on channel=5 note=65 velocity=0 time=0
EXTRACT: note_on channel=9 note=35 velocity=62 time=0
EXTRACT: note_on channel=0 note=74 velocity=100 time=0.0057471250000000005
EXTRACT: note_on channel=9 note=35 velocity=0 time=0
EXTRACT: note_on channel=4 note=60 velocity=77 time=0.0057471250000000005
EXTRACT: note_on channel=4 note=57 velocity=65 time=0
EXTRACT: note_on channel=4 note=65 velocity=69 time=0
EXTRACT: note_on channel=5 note=65 velocity=69 time=0
EXTRACT: note_on channel=5 note=70 velocity=67 time=0
EXTRACT: note_on channel=3 note=67 velocity=0 time=0.12068962500000001
EXTRACT: note_on channel=6 note=60 velocity=0 time=0
EXTRACT: note_on channel=0 note=65 velocity=0 time=0.0057471250000000005
EXTRACT: note_on channel=4 note=45 velocity=0 time=0.022988500000000002
EXTRACT: note_on channel=3 note=65 velocity=103 time=0
EXTRACT: note_on channel=0 note=65 velocity=60 time=0
EXTRACT: note_on channel=4 note=60 velocity=0 time=0
EXTRACT: note_on channel=4 note=57 velocity=0 time=0
EXTRACT: note_on channel=4 note=65 velocity=0 time=0
EXTRACT: note_on channel=4 note=45 velocity=55 time=0
EXTRACT: note_on channel=5 note=70 velocity=0 time=0
EXTRACT: note_on channel=5 note=65 velocity=0 time=0
EXTRACT: note_on channel=9 note=40 velocity=66 time=0
EXTRACT: note_on channel=9 note=42 velocity=52 time=0
EXTRACT: note_on channel=9 note=28 velocity=52 time=0
EXTRACT: note_on channel=9 note=28 velocity=0 time=0.0057471250000000005
EXTRACT: note_on channel=9 note=42 velocity=0 time=0
EXTRACT: note_on channel=9 note=40 velocity=0 time=0
EXTRACT: note_on channel=4 note=60 velocity=79 time=0.0057471250000000005
EXTRACT: note_on channel=4 note=57 velocity=65 time=0
EXTRACT: note_on channel=4 note=65 velocity=72 time=0
EXTRACT: note_on channel=5 note=65 velocity=64 time=0
EXTRACT: note_on channel=5 note=70 velocity=63 time=0
EXTRACT: note_on channel=6 note=60 velocity=58 time=0
EXTRACT: note_on channel=4 note=45 velocity=0 time=0.14942525
EXTRACT: note_on channel=4 note=60 velocity=0 time=0.011494250000000001
EXTRACT: note_on channel=4 note=57 velocity=0 time=0
EXTRACT: note_on channel=4 note=65 velocity=0 time=0
EXTRACT: note_on channel=4 note=45 velocity=55 time=0
EXTRACT: note_on channel=5 note=70 velocity=0 time=0
EXTRACT: note_on channel=5 note=65 velocity=0 time=0
EXTRACT: note_on channel=9 note=36 velocity=110 time=0
EXTRACT: note_on channel=9 note=41 velocity=110 time=0
EXTRACT: note_on channel=9 note=41 velocity=0 time=0.0057471250000000005
EXTRACT: note_on channel=9 note=36 velocity=0 time=0
EXTRACT: note_on channel=4 note=60 velocity=65 time=0.0057471250000000005
EXTRACT: note_on channel=4 note=57 velocity=65 time=0
EXTRACT: note_on channel=4 note=65 velocity=65 time=0
EXTRACT: note_on channel=5 note=65 velocity=64 time=0
EXTRACT: note_on channel=5 note=70 velocity=64 time=0
EXTRACT: note_on channel=0 note=53 velocity=0 time=0.09195400000000001
EXTRACT: note_on channel=0 note=60 velocity=0 time=0.034482750000000006
EXTRACT: note_on channel=3 note=65 velocity=0 time=0.011494250000000001
EXTRACT: note_on channel=6 note=60 velocity=0 time=0
EXTRACT: note_on channel=6 note=65 velocity=0 time=0
EXTRACT: note_on channel=0 note=45 velocity=0 time=0.0057471250000000005
EXTRACT: note_on channel=4 note=45 velocity=0 time=0.0057471250000000005
EXTRACT: note_on channel=8 note=69 velocity=0 time=0
EXTRACT: note_on channel=8 note=77 velocity=0 time=0
EXTRACT: note_on channel=2 note=33 velocity=0 time=0.0057471250000000005
EXTRACT: note_on channel=0 note=65 velocity=0 time=0
EXTRACT: note_on channel=8 note=72 velocity=0 time=0
EXTRACT: note_on channel=10 note=67 velocity=85 time=0
EXTRACT: note_on channel=3 note=74 velocity=111 time=0
EXTRACT: note_on channel=1 note=67 velocity=93 time=0
EXTRACT: note_on channel=2 note=31 velocity=96 time=0
EXTRACT: note_on channel=4 note=60 velocity=0 time=0
EXTRACT: note_on channel=4 note=57 velocity=0 time=0
EXTRACT: note_on channel=4 note=65 velocity=0 time=0
EXTRACT: note_on channel=4 note=43 velocity=55 time=0
EXTRACT: note_on channel=5 note=70 velocity=0 time=0
EXTRACT: note_on channel=5 note=65 velocity=0 time=0
EXTRACT: note_on channel=5 note=62 velocity=65 time=0
EXTRACT: note_on channel=6 note=67 velocity=62 time=0
EXTRACT: note_on channel=9 note=36 velocity=113 time=0
EXTRACT: note_on channel=9 note=41 velocity=110 time=0
EXTRACT: note_on channel=9 note=46 velocity=80 time=0
EXTRACT: note_on channel=0 note=55 velocity=74 time=0.0057471250000000005
EXTRACT: note_on channel=0 note=43 velocity=64 time=0
EXTRACT: note_on channel=0 note=67 velocity=69 time=0
EXTRACT: note_on channel=0 note=62 velocity=75 time=0
EXTRACT: note_on channel=5 note=67 velocity=74 time=0
EXTRACT: note_on channel=5 note=70 velocity=65 time=0
EXTRACT: note_on channel=8 note=70 velocity=58 time=0
EXTRACT: note_on channel=8 note=74 velocity=72 time=0
EXTRACT: note_on channel=8 note=79 velocity=62 time=0
EXTRACT: note_on channel=10 note=79 velocity=83 time=0
EXTRACT: note_on channel=9 note=46 velocity=0 time=0
EXTRACT: note_on channel=9 note=41 velocity=0 time=0
EXTRACT: note_on channel=9 note=36 velocity=0 time=0
EXTRACT: note_on channel=4 note=58 velocity=68 time=0.0057471250000000005
EXTRACT: note_on channel=4 note=62 velocity=68 time=0
EXTRACT: note_on channel=4 note=67 velocity=63 time=0
EXTRACT: note_on channel=4 note=55 velocity=62 time=0
EXTRACT: note_on channel=4 note=43 velocity=0 time=0.32183900000000004
EXTRACT: note_on channel=5 note=62 velocity=0 time=0
EXTRACT: note_on channel=5 note=70 velocity=0 time=0.0057471250000000005
EXTRACT: note_on channel=5 note=67 velocity=0 time=0
EXTRACT: note_on channel=4 note=67 velocity=0 time=0.0057471250000000005
EXTRACT: note_on channel=4 note=58 velocity=0 time=0
EXTRACT: note_on channel=4 note=62 velocity=0 time=0
EXTRACT: note_on channel=4 note=55 velocity=0 time=0
EXTRACT: note_on channel=4 note=43 velocity=55 time=0
EXTRACT: note_on channel=9 note=35 velocity=64 time=0
EXTRACT: note_on channel=9 note=38 velocity=64 time=0
EXTRACT: note_on channel=9 note=42 velocity=50 time=0
EXTRACT: note_on channel=0 note=50 velocity=72 time=0.0057471250000000005
EXTRACT: note_on channel=9 note=42 velocity=0 time=0
EXTRACT: note_on channel=9 note=38 velocity=0 time=0
EXTRACT: note_on channel=9 note=35 velocity=0 time=0
EXTRACT: note_on channel=4 note=58 velocity=62 time=0.0057471250000000005
EXTRACT: note_on channel=4 note=55 velocity=59 time=0
EXTRACT: note_on channel=4 note=67 velocity=58 time=0
EXTRACT: note_on channel=4 note=62 velocity=64 time=0
EXTRACT: note_on channel=5 note=67 velocity=59 time=0
EXTRACT: note_on channel=5 note=62 velocity=58 time=0
EXTRACT: note_on channel=5 note=70 velocity=58 time=0
EXTRACT: note_on channel=6 note=62 velocity=56 time=0
EXTRACT: note_on channel=9 note=35 velocity=64 time=0.16091950000000002
EXTRACT: note_on channel=9 note=35 velocity=0 time=0.0057471250000000005
EXTRACT: note_on channel=3 note=74 velocity=0 time=0.0057471250000000005
EXTRACT: note_on channel=1 note=67 velocity=0 time=0
EXTRACT: note_on channel=0 note=55 velocity=0 time=0.10919537500000001
EXTRACT: note_on channel=6 note=67 velocity=0 time=0.034482750000000006
EXTRACT: note_on channel=4 note=43 velocity=0 time=0.0057471250000000005
EXTRACT: note_on channel=0 note=74 velocity=0 time=0.0057471250000000005
EXTRACT: note_on channel=3 note=67 velocity=106 time=0
EXTRACT: note_on channel=4 note=67 velocity=0 time=0
EXTRACT: note_on channel=4 note=58 velocity=0 time=0
EXTRACT: note_on channel=4 note=55 velocity=0 time=0
EXTRACT: note_on channel=4 note=62 velocity=0 time=0
EXTRACT: note_on channel=4 note=43 velocity=55 time=0
EXTRACT: note_on channel=5 note=70 velocity=0 time=0
EXTRACT: note_on channel=5 note=62 velocity=0 time=0
EXTRACT: note_on channel=5 note=67 velocity=0 time=0
EXTRACT: note_on channel=9 note=40 velocity=78 time=0
EXTRACT: note_on channel=9 note=39 velocity=111 time=0
EXTRACT: note_on channel=9 note=42 velocity=64 time=0
EXTRACT: note_on channel=0 note=55 velocity=72 time=0.0057471250000000005
EXTRACT: note_on channel=9 note=42 velocity=0 time=0
EXTRACT: note_on channel=9 note=39 velocity=0 time=0
EXTRACT: note_on channel=9 note=40 velocity=0 time=0
EXTRACT: note_on channel=4 note=58 velocity=67 time=0.0057471250000000005
EXTRACT: note_on channel=4 note=55 velocity=65 time=0
EXTRACT: note_on channel=4 note=62 velocity=69 time=0
EXTRACT: note_on channel=4 note=67 velocity=61 time=0
EXTRACT: note_on channel=5 note=62 velocity=63 time=0
EXTRACT: note_on channel=5 note=67 velocity=70 time=0
EXTRACT: note_on channel=5 note=70 velocity=63 time=0
EXTRACT: note_on channel=6 note=67 velocity=64 time=0
EXTRACT: note_on channel=9 note=37 velocity=57 time=0.16091950000000002
EXTRACT: note_on channel=9 note=37 velocity=0 time=0.0057471250000000005
EXTRACT: note_on channel=3 note=67 velocity=0 time=0.132183875
EXTRACT: note_on channel=4 note=43 velocity=0 time=0.022988500000000002
EXTRACT: note_on channel=3 note=65 velocity=101 time=0
EXTRACT: note_on channel=4 note=62 velocity=0 time=0
EXTRACT: note_on channel=4 note=58 velocity=0 time=0
EXTRACT: note_on channel=4 note=55 velocity=0 time=0
EXTRACT: note_on channel=4 note=67 velocity=0 time=0
EXTRACT: note_on channel=4 note=43 velocity=55 time=0
EXTRACT: note_on channel=5 note=70 velocity=0 time=0
EXTRACT: note_on channel=5 note=67 velocity=0 time=0
EXTRACT: note_on channel=5 note=62 velocity=0 time=0
EXTRACT: note_on channel=9 note=40 velocity=67 time=0
EXTRACT: note_on channel=9 note=42 velocity=53 time=0
EXTRACT: note_on channel=0 note=58 velocity=79 time=0.0057471250000000005
EXTRACT: note_on channel=9 note=42 velocity=0 time=0
EXTRACT: note_on channel=9 note=40 velocity=0 time=0
EXTRACT: note_on channel=4 note=58 velocity=60 time=0.0057471250000000005
EXTRACT: note_on channel=4 note=62 velocity=63 time=0
EXTRACT: note_on channel=4 note=55 velocity=58 time=0
EXTRACT: note_on channel=4 note=67 velocity=54 time=0
EXTRACT: note_on channel=5 note=67 velocity=59 time=0
EXTRACT: note_on channel=5 note=62 velocity=58 time=0
EXTRACT: note_on channel=5 note=70 velocity=57 time=0
EXTRACT: note_on channel=6 note=65 velocity=55 time=0
EXTRACT: note_on channel=10 note=79 velocity=0 time=0.034482750000000006
EXTRACT: note_on channel=10 note=67 velocity=0 time=0
EXTRACT: note_on channel=4 note=43 velocity=0 time=0.1149425
EXTRACT: note_on channel=4 note=55 velocity=0 time=0.011494250000000001
EXTRACT: note_on channel=4 note=58 velocity=0 time=0
EXTRACT: note_on channel=4 note=62 velocity=0 time=0
EXTRACT: note_on channel=4 note=67 velocity=0 time=0
EXTRACT: note_on channel=4 note=43 velocity=55 time=0
EXTRACT: note_on channel=5 note=70 velocity=0 time=0
EXTRACT: note_on channel=5 note=62 velocity=0 time=0
EXTRACT: note_on channel=5 note=67 velocity=0 time=0
EXTRACT: note_on channel=9 note=39 velocity=108 time=0
EXTRACT: note_on channel=9 note=39 velocity=0 time=0.0057471250000000005
EXTRACT: note_on channel=4 note=58 velocity=71 time=0.0057471250000000005
EXTRACT: note_on channel=4 note=55 velocity=63 time=0
EXTRACT: note_on channel=4 note=62 velocity=71 time=0
EXTRACT: note_on channel=4 note=67 velocity=63 time=0
EXTRACT: note_on channel=5 note=62 velocity=63 time=0
EXTRACT: note_on channel=5 note=67 velocity=69 time=0
EXTRACT: note_on channel=5 note=70 velocity=63 time=0
EXTRACT: note_on channel=6 note=67 velocity=0 time=0.10344825
EXTRACT: note_on channel=0 note=62 velocity=0 time=0.0057471250000000005
EXTRACT: note_on channel=3 note=65 velocity=0 time=0.017241375000000003
EXTRACT: note_on channel=0 note=55 velocity=0 time=0
EXTRACT: note_on channel=0 note=67 velocity=0 time=0.028735625
EXTRACT: note_on channel=3 note=74 velocity=109 time=0
EXTRACT: note_on channel=1 note=67 velocity=93 time=0
EXTRACT: note_on channel=9 note=42 velocity=61 time=0
EXTRACT: note_on channel=0 note=67 velocity=81 time=0.0057471250000000005
EXTRACT: note_on channel=0 note=55 velocity=81 time=0
EXTRACT: note_on channel=0 note=70 velocity=81 time=0
EXTRACT: note_on channel=0 note=62 velocity=81 time=0
EXTRACT: note_on channel=9 note=42 velocity=0 time=0
EXTRACT: note_on channel=6 note=67 velocity=62 time=0.0057471250000000005
EXTRACT: note_on channel=4 note=43 velocity=0 time=0.14942525
EXTRACT: note_on channel=4 note=62 velocity=0 time=0.011494250000000001
EXTRACT: note_on channel=4 note=58 velocity=0 time=0
EXTRACT: note_on channel=4 note=55 velocity=0 time=0
EXTRACT: note_on channel=4 note=67 velocity=0 time=0
EXTRACT: note_on channel=4 note=43 velocity=55 time=0
EXTRACT: note_on channel=5 note=70 velocity=0 time=0
EXTRACT: note_on channel=5 note=67 velocity=0 time=0
EXTRACT: note_on channel=5 note=62 velocity=0 time=0
EXTRACT: note_on channel=9 note=35 velocity=61 time=0
EXTRACT: note_on channel=9 note=37 velocity=59 time=0
EXTRACT: note_on channel=9 note=37 velocity=0 time=0.0057471250000000005
EXTRACT: note_on channel=9 note=35 velocity=0 time=0
EXTRACT: note_on channel=4 note=58 velocity=63 time=0.0057471250000000005
EXTRACT: note_on channel=4 note=62 velocity=64 time=0
EXTRACT: note_on channel=4 note=55 velocity=60 time=0
EXTRACT: note_on channel=4 note=67 velocity=58 time=0
EXTRACT: note_on channel=5 note=62 velocity=57 time=0
EXTRACT: note_on channel=5 note=67 velocity=59 time=0
EXTRACT: note_on channel=5 note=70 velocity=58 time=0
EXTRACT: note_on channel=0 note=43 velocity=0 time=0.09770112500000001
EXTRACT: note_on channel=0 note=50 velocity=0 time=0.011494250000000001
EXTRACT: note_on channel=6 note=62 velocity=0 time=0.011494250000000001
EXTRACT: note_on channel=4 note=43 velocity=0 time=0.028735625
EXTRACT: note_on channel=4 note=55 velocity=0 time=0.011494250000000001
EXTRACT: note_on channel=4 note=58 velocity=0 time=0
EXTRACT: note_on channel=4 note=62 velocity=0 time=0
EXTRACT: note_on channel=4 note=67 velocity=0 time=0
EXTRACT: note_on channel=4 note=43 velocity=55 time=0
EXTRACT: note_on channel=5 note=70 velocity=0 time=0
EXTRACT: note_on channel=5 note=67 velocity=0 time=0
EXTRACT: note_on channel=5 note=62 velocity=0 time=0
EXTRACT: note_on channel=9 note=35 velocity=67 time=0
EXTRACT: note_on channel=9 note=37 velocity=64 time=0
EXTRACT: note_on channel=9 note=42 velocity=53 time=0
EXTRACT: note_on channel=0 note=43 velocity=64 time=0.0057471250000000005
EXTRACT: note_on channel=9 note=42 velocity=0 time=0
EXTRACT: note_on channel=9 note=37 velocity=0 time=0
EXTRACT: note_on channel=9 note=35 velocity=0 time=0
EXTRACT: note_on channel=0 note=50 velocity=45 time=0.0057471250000000005
EXTRACT: note_on channel=4 note=58 velocity=65 time=0
EXTRACT: note_on channel=4 note=55 velocity=58 time=0
EXTRACT: note_on channel=4 note=62 velocity=71 time=0
EXTRACT: note_on channel=4 note=67 velocity=60 time=0
EXTRACT: note_on channel=5 note=62 velocity=59 time=0
EXTRACT: note_on channel=5 note=67 velocity=67 time=0
EXTRACT: note_on channel=5 note=70 velocity=65 time=0
EXTRACT: note_on channel=6 note=62 velocity=53 time=0
EXTRACT: note_on channel=3 note=74 velocity=0 time=0.086206875
EXTRACT: note_on channel=1 note=67 velocity=0 time=0
EXTRACT: note_on channel=3 note=67 velocity=106 time=0
EXTRACT: note_on channel=0 note=55 velocity=0 time=0.09195400000000001
EXTRACT: note_on channel=0 note=58 velocity=0 time=0.045977000000000004
EXTRACT: note_on channel=6 note=67 velocity=0 time=0
EXTRACT: note_on channel=4 note=43 velocity=0 time=0.017241375000000003
EXTRACT: note_on channel=4 note=62 velocity=0 time=0.011494250000000001
EXTRACT: note_on channel=4 note=58 velocity=0 time=0
EXTRACT: note_on channel=4 note=55 velocity=0 time=0
EXTRACT: note_on channel=4 note=67 velocity=0 time=0
EXTRACT: note_on channel=4 note=43 velocity=55 time=0
EXTRACT: note_on channel=5 note=70 velocity=0 time=0
EXTRACT: note_on channel=5 note=67 velocity=0 time=0
EXTRACT: note_on channel=5 note=62 velocity=0 time=0
EXTRACT: note_on channel=9 note=40 velocity=81 time=0
EXTRACT: note_on channel=9 note=39 velocity=114 time=0
EXTRACT: note_on channel=9 note=42 velocity=67 time=0
EXTRACT: note_on channel=0 note=70 velocity=0 time=0.0057471250000000005
EXTRACT: note_on channel=0 note=55 velocity=78 time=0
EXTRACT: note_on channel=9 note=42 velocity=0 time=0
EXTRACT: note_on channel=9 note=39 velocity=0 time=0
EXTRACT: note_on channel=9 note=40 velocity=0 time=0
EXTRACT: note_on channel=4 note=58 velocity=70 time=0.0057471250000000005
EXTRACT: note_on channel=4 note=55 velocity=63 time=0
EXTRACT: note_on channel=4 note=62 velocity=69 time=0
EXTRACT: note_on channel=4 note=67 velocity=63 time=0
EXTRACT: note_on channel=5 note=67 velocity=69 time=0
EXTRACT: note_on channel=5 note=62 velocity=65 time=0
EXTRACT: note_on channel=5 note=70 velocity=66 time=0
EXTRACT: note_on channel=6 note=67 velocity=64 time=0
EXTRACT: note_on channel=6 note=65 velocity=0 time=0.0057471250000000005
EXTRACT: note_on channel=4 note=43 velocity=0 time=0.14367812500000002
EXTRACT: note_on channel=4 note=62 velocity=0 time=0.011494250000000001
EXTRACT: note_on channel=4 note=58 velocity=0 time=0
EXTRACT: note_on channel=4 note=55 velocity=0 time=0
EXTRACT: note_on channel=4 note=67 velocity=0 time=0
EXTRACT: note_on channel=4 note=43 velocity=55 time=0
EXTRACT: note_on channel=5 note=70 velocity=0 time=0
EXTRACT: note_on channel=5 note=62 velocity=0 time=0
EXTRACT: note_on channel=5 note=67 velocity=0 time=0
EXTRACT: note_on channel=9 note=35 velocity=61 time=0
EXTRACT: note_on channel=0 note=70 velocity=100 time=0.0057471250000000005
EXTRACT: note_on channel=9 note=35 velocity=0 time=0
EXTRACT: note_on channel=4 note=58 velocity=65 time=0.0057471250000000005
EXTRACT: note_on channel=4 note=62 velocity=67 time=0
EXTRACT: note_on channel=4 note=55 velocity=57 time=0
EXTRACT: note_on channel=4 note=67 velocity=58 time=0
EXTRACT: note_on channel=5 note=62 velocity=48 time=0
EXTRACT: note_on channel=5 note=67 velocity=66 time=0
EXTRACT: note_on channel=5 note=70 velocity=63 time=0
EXTRACT: note_on channel=3 note=67 velocity=0 time=0.086206875
EXTRACT: note_on channel=0 note=62 velocity=0 time=0.028735625
EXTRACT: note_on channel=4 note=43 velocity=0 time=0.034482750000000006
EXTRACT: note_on channel=3 note=65 velocity=109 time=0
EXTRACT: note_on channel=4 note=55 velocity=0 time=0
EXTRACT: note_on channel=4 note=58 velocity=0 time=0
EXTRACT: note_on channel=4 note=62 velocity=0 time=0
EXTRACT: note_on channel=4 note=67 velocity=0 time=0
EXTRACT: note_on channel=4 note=43 velocity=55 time=0
EXTRACT: note_on channel=5 note=70 velocity=0 time=0
EXTRACT: note_on channel=5 note=67 velocity=0 time=0
EXTRACT: note_on channel=5 note=62 velocity=0 time=0
EXTRACT: note_on channel=9 note=40 velocity=65 time=0
EXTRACT: note_on channel=9 note=42 velocity=51 time=0
EXTRACT: note_on channel=9 note=28 velocity=51 time=0
EXTRACT: note_on channel=0 note=62 velocity=78 time=0.0057471250000000005
EXTRACT: note_on channel=9 note=28 velocity=0 time=0
EXTRACT: note_on channel=9 note=42 velocity=0 time=0
EXTRACT: note_on channel=9 note=40 velocity=0 time=0
EXTRACT: note_on channel=4 note=58 velocity=68 time=0.0057471250000000005
EXTRACT: note_on channel=4 note=55 velocity=63 time=0
EXTRACT: note_on channel=4 note=62 velocity=69 time=0
EXTRACT: note_on channel=4 note=67 velocity=61 time=0
EXTRACT: note_on channel=5 note=62 velocity=55 time=0
EXTRACT: note_on channel=5 note=67 velocity=67 time=0
EXTRACT: note_on channel=5 note=70 velocity=63 time=0
EXTRACT: note_on channel=6 note=65 velocity=58 time=0
EXTRACT: note_on channel=4 note=43 velocity=0 time=0.14942525
EXTRACT: note_on channel=4 note=62 velocity=0 time=0.011494250000000001
EXTRACT: note_on channel=4 note=58 velocity=0 time=0
EXTRACT: note_on channel=4 note=55 velocity=0 time=0
EXTRACT: note_on channel=4 note=67 velocity=0 time=0
EXTRACT: note_on channel=4 note=43 velocity=55 time=0
EXTRACT: note_on channel=5 note=70 velocity=0 time=0
EXTRACT: note_on channel=5 note=67 velocity=0 time=0
EXTRACT: note_on channel=5 note=62 velocity=0 time=0
EXTRACT: note_on channel=4 note=58 velocity=59 time=0.011494250000000001
EXTRACT: note_on channel=4 note=67 velocity=59 time=0
EXTRACT: note_on channel=4 note=55 velocity=59 time=0
EXTRACT: note_on channel=4 note=62 velocity=59 time=0
EXTRACT: note_on channel=5 note=62 velocity=63 time=0
EXTRACT: note_on channel=5 note=67 velocity=63 time=0
EXTRACT: note_on channel=5 note=70 velocity=63 time=0
EXTRACT: note_on channel=6 note=62 velocity=0 time=0.09770112500000001
EXTRACT: note_on channel=2 note=31 velocity=0 time=0.011494250000000001
EXTRACT: note_on channel=8 note=79 velocity=0 time=0.0057471250000000005
EXTRACT: note_on channel=8 note=70 velocity=0 time=0
EXTRACT: note_on channel=0 note=55 velocity=0 time=0.017241375000000003
EXTRACT: note_on channel=6 note=67 velocity=0 time=0.0057471250000000005
EXTRACT: note_on channel=0 note=50 velocity=0 time=0.0057471250000000005
EXTRACT: note_on channel=0 note=62 velocity=0 time=0.0057471250000000005
EXTRACT: note_on channel=4 note=43 velocity=0 time=0
EXTRACT: note_on channel=2 note=27 velocity=96 time=0.011494250000000001
EXTRACT: note_on channel=4 note=55 velocity=0 time=0
EXTRACT: note_on channel=4 note=58 velocity=0 time=0
EXTRACT: note_on channel=4 note=67 velocity=0 time=0
EXTRACT: note_on channel=4 note=62 velocity=0 time=0
EXTRACT: note_on channel=4 note=39 velocity=55 time=0
EXTRACT: note_on channel=5 note=70 velocity=0 time=0
EXTRACT: note_on channel=5 note=67 velocity=0 time=0
EXTRACT: note_on channel=5 note=62 velocity=0 time=0
EXTRACT: note_on channel=6 note=67 velocity=62 time=0
EXTRACT: note_on channel=9 note=36 velocity=114 time=0
EXTRACT: note_on channel=9 note=41 velocity=110 time=0
EXTRACT: note_on channel=9 note=46 velocity=81 time=0
EXTRACT: note_on channel=0 note=58 velocity=74 time=0.0057471250000000005
EXTRACT: note_on channel=0 note=63 velocity=67 time=0
EXTRACT: note_on channel=0 note=51 velocity=81 time=0
EXTRACT: note_on channel=5 note=70 velocity=65 time=0
EXTRACT: note_on channel=6 note=65 velocity=0 time=0
EXTRACT: note_on channel=8 note=74 velocity=0 time=0
EXTRACT: note_on channel=8 note=70 velocity=62 time=0
EXTRACT: note_on channel=8 note=79 velocity=65 time=0
EXTRACT: note_on channel=8 note=75 velocity=63 time=0
EXTRACT: note_on channel=9 note=46 velocity=0 time=0
EXTRACT: note_on channel=9 note=41 velocity=0 time=0
EXTRACT: note_on channel=9 note=36 velocity=0 time=0
EXTRACT: note_on channel=0 note=39 velocity=72 time=0.0057471250000000005
EXTRACT: note_on channel=4 note=63 velocity=64 time=0
EXTRACT: note_on channel=4 note=67 velocity=63 time=0
EXTRACT: note_on channel=4 note=58 velocity=65 time=0
EXTRACT: note_on channel=4 note=55 velocity=64 time=0
EXTRACT: note_on channel=5 note=65 velocity=74 time=0
EXTRACT: note_on channel=0 note=67 velocity=0 time=0.0057471250000000005
EXTRACT: note_on channel=0 note=43 velocity=0 time=0
EXTRACT: note_on channel=3 note=65 velocity=0 time=0.22413787500000001
EXTRACT: note_on channel=4 note=39 velocity=0 time=0.09195400000000001
EXTRACT: note_on channel=5 note=70 velocity=0 time=0.0057471250000000005
EXTRACT: note_on channel=4 note=58 velocity=0 time=0.0057471250000000005
EXTRACT: note_on channel=4 note=63 velocity=0 time=0
EXTRACT: note_on channel=4 note=67 velocity=0 time=0
EXTRACT: note_on channel=4 note=55 velocity=0 time=0
EXTRACT: note_on channel=4 note=39 velocity=55 time=0
EXTRACT: note_on channel=5 note=65 velocity=0 time=0
EXTRACT: note_on channel=9 note=35 velocity=68 time=0
EXTRACT: note_on channel=9 note=38 velocity=68 time=0
EXTRACT: note_on channel=9 note=42 velocity=54 time=0
EXTRACT: note_on channel=0 note=46 velocity=72 time=0.0057471250000000005
EXTRACT: note_on channel=9 note=42 velocity=0 time=0
EXTRACT: note_on channel=9 note=38 velocity=0 time=0
EXTRACT: note_on channel=9 note=35 velocity=0 time=0
EXTRACT: note_on channel=4 note=58 velocity=61 time=0.0057471250000000005
EXTRACT: note_on channel=4 note=63 velocity=63 time=0
EXTRACT: note_on channel=4 note=55 velocity=58 time=0
EXTRACT: note_on channel=4 note=67 velocity=56 time=0
EXTRACT: note_on channel=5 note=65 velocity=73 time=0
EXTRACT: note_on channel=5 note=70 velocity=63 time=0
EXTRACT: note_on channel=6 note=63 velocity=56 time=0
EXTRACT: note_on channel=9 note=35 velocity=63 time=0.16091950000000002
EXTRACT: note_on channel=9 note=35 velocity=0 time=0.0057471250000000005
EXTRACT: note_on channel=0 note=51 velocity=0 time=0.09770112500000001
EXTRACT: note_on channel=6 note=67 velocity=0 time=0.051724125
EXTRACT: note_on channel=4 note=39 velocity=0 time=0.0057471250000000005
EXTRACT: note_on channel=4 note=55 velocity=0 time=0.011494250000000001
EXTRACT: note_on channel=4 note=58 velocity=0 time=0
EXTRACT: note_on channel=4 note=63 velocity=0 time=0
EXTRACT: note_on channel=4 note=67 velocity=0 time=0
EXTRACT: note_on channel=4 note=39 velocity=55 time=0
EXTRACT: note_on channel=5 note=70 velocity=0 time=0
EXTRACT: note_on channel=5 note=65 velocity=0 time=0
EXTRACT: note_on channel=9 note=40 velocity=77 time=0
EXTRACT: note_on channel=9 note=39 velocity=110 time=0
EXTRACT: note_on channel=9 note=42 velocity=64 time=0
EXTRACT: note_on channel=0 note=70 velocity=0 time=0.0057471250000000005
EXTRACT: note_on channel=0 note=51 velocity=74 time=0
EXTRACT: note_on channel=9 note=42 velocity=0 time=0
EXTRACT: note_on channel=9 note=39 velocity=0 time=0
EXTRACT: note_on channel=9 note=40 velocity=0 time=0
EXTRACT: note_on channel=4 note=58 velocity=65 time=0.0057471250000000005
EXTRACT: note_on channel=4 note=67 velocity=65 time=0
EXTRACT: note_on channel=4 note=63 velocity=67 time=0
EXTRACT: note_on channel=4 note=55 velocity=62 time=0
EXTRACT: note_on channel=5 note=67 velocity=74 time=0
EXTRACT: note_on channel=5 note=70 velocity=76 time=0
EXTRACT: note_on channel=6 note=67 velocity=64 time=0
EXTRACT: note_on channel=9 note=37 velocity=57 time=0.16091950000000002
EXTRACT: note_on channel=9 note=37 velocity=0 time=0.0057471250000000005
EXTRACT: note_on channel=0 note=63 velocity=0 time=0.09770112500000001
EXTRACT: note_on channel=0 note=58 velocity=0 time=0.0057471250000000005
EXTRACT: note_on channel=4 note=39 velocity=0 time=0.051724125
EXTRACT: note_on channel=5 note=67 velocity=0 time=0
EXTRACT: note_on channel=4 note=63 velocity=0 time=0.011494250000000001
EXTRACT: note_on channel=4 note=58 velocity=0 time=0
EXTRACT: note_on channel=4 note=67 velocity=0 time=0
EXTRACT: note_on channel=4 note=55 velocity=0 time=0
EXTRACT: note_on channel=4 note=39 velocity=55 time=0
EXTRACT: note_on channel=5 note=70 velocity=0 time=0
EXTRACT: note_on channel=9 note=40 velocity=65 time=0
EXTRACT: note_on channel=9 note=42 velocity=51 time=0
EXTRACT: note_on channel=0 note=63 velocity=73 time=0.0057471250000000005
EXTRACT: note_on channel=0 note=58 velocity=79 time=0
EXTRACT: note_on channel=0 note=67 velocity=73 time=0
EXTRACT: note_on channel=9 note=42 velocity=0 time=0
EXTRACT: note_on channel=9 note=40 velocity=0 time=0
EXTRACT: note_on channel=4 note=58 velocity=59 time=0.0057471250000000005
EXTRACT: note_on channel=4 note=63 velocity=61 time=0
EXTRACT: note_on channel=4 note=67 velocity=58 time=0
EXTRACT: note_on channel=4 note=55 velocity=57 time=0
EXTRACT: note_on channel=5 note=65 velocity=67 time=0
EXTRACT: note_on channel=5 note=70 velocity=67 time=0
EXTRACT: note_on channel=6 note=65 velocity=55 time=0
EXTRACT: note_on channel=4 note=39 velocity=0 time=0.14942525
EXTRACT: note_on channel=3 note=58 velocity=83 time=0
EXTRACT: note_on channel=4 note=67 velocity=0 time=0
EXTRACT: note_on channel=4 note=58 velocity=0 time=0
EXTRACT: note_on channel=4 note=63 velocity=0 time=0
EXTRACT: note_on channel=4 note=55 velocity=0 time=0
EXTRACT: note_on channel=4 note=39 velocity=55 time=0
EXTRACT: note_on channel=5 note=70 velocity=0 time=0
EXTRACT: note_on channel=5 note=65 velocity=0 time=0
EXTRACT: note_on channel=9 note=39 velocity=110 time=0
EXTRACT: note_on channel=9 note=39 velocity=0 time=0.0057471250000000005
EXTRACT: note_on channel=4 note=58 velocity=67 time=0.0057471250000000005
EXTRACT: note_on channel=4 note=55 velocity=61 time=0
EXTRACT: note_on channel=4 note=63 velocity=65 time=0
EXTRACT: note_on channel=4 note=67 velocity=59 time=0
EXTRACT: note_on channel=5 note=70 velocity=75 time=0
EXTRACT: note_on channel=5 note=67 velocity=75 time=0
EXTRACT: note_on channel=6 note=67 velocity=0 time=0.10344825
EXTRACT: note_on channel=3 note=58 velocity=0 time=0.022988500000000002
EXTRACT: note_on channel=3 note=63 velocity=108 time=0
EXTRACT: note_on channel=1 note=67 velocity=93 time=0
EXTRACT: note_on channel=9 note=42 velocity=64 time=0
EXTRACT: note_on channel=9 note=42 velocity=0 time=0.0057471250000000005
EXTRACT: note_on channel=6 note=67 velocity=62 time=0.0057471250000000005
EXTRACT: note_on channel=4 note=39 velocity=0 time=0.14942525
EXTRACT: note_on channel=4 note=63 velocity=0 time=0.011494250000000001
EXTRACT: note_on channel=4 note=58 velocity=0 time=0
EXTRACT: note_on channel=4 note=55 velocity=0 time=0
EXTRACT: note_on channel=4 note=67 velocity=0 time=0
EXTRACT: note_on channel=4 note=39 velocity=55 time=0
EXTRACT: note_on channel=5 note=67 velocity=0 time=0
EXTRACT: note_on channel=5 note=70 velocity=0 time=0
EXTRACT: note_on channel=9 note=35 velocity=62 time=0
EXTRACT: note_on channel=9 note=37 velocity=59 time=0
EXTRACT: note_on channel=9 note=37 velocity=0 time=0.0057471250000000005
EXTRACT: note_on channel=9 note=35 velocity=0 time=0
EXTRACT: note_on channel=4 note=58 velocity=61 time=0.0057471250000000005
EXTRACT: note_on channel=4 note=67 velocity=59 time=0
EXTRACT: note_on channel=4 note=63 velocity=61 time=0
EXTRACT: note_on channel=4 note=55 velocity=58 time=0
EXTRACT: note_on channel=5 note=65 velocity=70 time=0
EXTRACT: note_on channel=5 note=70 velocity=67 time=0
EXTRACT: note_on channel=0 note=51 velocity=0 time=0.08045975000000001
EXTRACT: note_on channel=3 note=63 velocity=0 time=0.022988500000000002
EXTRACT: note_on channel=1 note=67 velocity=0 time=0
EXTRACT: note_on channel=6 note=63 velocity=0 time=0.017241375000000003
EXTRACT: note_on channel=4 note=39 velocity=0 time=0.028735625
EXTRACT: note_on channel=10 note=67 velocity=85 time=0.0057471250000000005
EXTRACT: note_on channel=10 note=79 velocity=83 time=0
EXTRACT: note_on channel=3 note=63 velocity=109 time=0
EXTRACT: note_on channel=1 note=67 velocity=93 time=0
EXTRACT: note_on channel=0 note=51 velocity=62 time=0
EXTRACT: note_on channel=4 note=63 velocity=0 time=0
EXTRACT: note_on channel=4 note=58 velocity=0 time=0
EXTRACT: note_on channel=4 note=67 velocity=0 time=0
EXTRACT: note_on channel=4 note=55 velocity=0 time=0
EXTRACT: note_on channel=4 note=39 velocity=55 time=0
EXTRACT: note_on channel=5 note=70 velocity=0 time=0
EXTRACT: note_on channel=5 note=65 velocity=0 time=0
EXTRACT: note_on channel=9 note=35 velocity=65 time=0
EXTRACT: note_on channel=9 note=37 velocity=63 time=0
EXTRACT: note_on channel=9 note=42 velocity=52 time=0
EXTRACT: note_on channel=9 note=42 velocity=0 time=0.0057471250000000005
EXTRACT: note_on channel=9 note=37 velocity=0 time=0
EXTRACT: note_on channel=9 note=35 velocity=0 time=0
EXTRACT: note_on channel=4 note=58 velocity=68 time=0.0057471250000000005
EXTRACT: note_on channel=4 note=67 velocity=65 time=0
EXTRACT: note_on channel=4 note=63 velocity=68 time=0
EXTRACT: note_on channel=4 note=55 velocity=60 time=0
EXTRACT: note_on channel=5 note=65 velocity=81 time=0
EXTRACT: note_on channel=5 note=70 velocity=74 time=0
EXTRACT: note_on channel=6 note=63 velocity=53 time=0
EXTRACT: note_on channel=10 note=79 velocity=0 time=0.189655125
EXTRACT: note_on channel=10 note=67 velocity=0 time=0.011494250000000001
EXTRACT: note_on channel=0 note=58 velocity=0 time=0.028735625
EXTRACT: note_on channel=6 note=67 velocity=0 time=0.074712625
EXTRACT: note_on channel=4 note=39 velocity=0 time=0.017241375000000003
EXTRACT: note_on channel=10 note=67 velocity=77 time=0.0057471250000000005
EXTRACT: note_on channel=10 note=79 velocity=81 time=0
EXTRACT: note_on channel=4 note=63 velocity=0 time=0.0057471250000000005
EXTRACT: note_on channel=4 note=58 velocity=0 time=0
EXTRACT: note_on channel=4 note=67 velocity=0 time=0
EXTRACT: note_on channel=4 note=55 velocity=0 time=0
EXTRACT: note_on channel=4 note=39 velocity=55 time=0
EXTRACT: note_on channel=5 note=70 velocity=0 time=0
EXTRACT: note_on channel=5 note=65 velocity=0 time=0
EXTRACT: note_on channel=9 note=40 velocity=75 time=0
EXTRACT: note_on channel=9 note=39 velocity=109 time=0
EXTRACT: note_on channel=9 note=42 velocity=62 time=0
EXTRACT: note_on channel=9 note=42 velocity=0 time=0.0057471250000000005
EXTRACT: note_on channel=9 note=39 velocity=0 time=0
EXTRACT: note_on channel=9 note=40 velocity=0 time=0
EXTRACT: note_on channel=0 note=58 velocity=69 time=0.0057471250000000005
EXTRACT: note_on channel=4 note=67 velocity=65 time=0
EXTRACT: note_on channel=4 note=58 velocity=69 time=0
EXTRACT: note_on channel=4 note=63 velocity=69 time=0
EXTRACT: note_on channel=4 note=55 velocity=63 time=0
EXTRACT: note_on channel=5 note=70 velocity=66 time=0
EXTRACT: note_on channel=5 note=65 velocity=66 time=0
EXTRACT: note_on channel=6 note=67 velocity=64 time=0
EXTRACT: note_on channel=6 note=65 velocity=0 time=0.0057471250000000005
EXTRACT: note_on channel=4 note=39 velocity=0 time=0.14367812500000002
EXTRACT: note_on channel=4 note=63 velocity=0 time=0.011494250000000001
EXTRACT: note_on channel=4 note=67 velocity=0 time=0
EXTRACT: note_on channel=4 note=58 velocity=0 time=0
EXTRACT: note_on channel=4 note=55 velocity=0 time=0
EXTRACT: note_on channel=4 note=39 velocity=55 time=0
EXTRACT: note_on channel=5 note=65 velocity=0 time=0
EXTRACT: note_on channel=5 note=70 velocity=0 time=0
EXTRACT: note_on channel=9 note=35 velocity=62 time=0
EXTRACT: note_on channel=9 note=35 velocity=0 time=0.0057471250000000005
EXTRACT: note_on channel=4 note=58 velocity=67 time=0.0057471250000000005
EXTRACT: note_on channel=4 note=63 velocity=67 time=0
EXTRACT: note_on channel=4 note=67 velocity=60 time=0
EXTRACT: note_on channel=4 note=55 velocity=61 time=0
EXTRACT: note_on channel=5 note=65 velocity=64 time=0
EXTRACT: note_on channel=5 note=70 velocity=69 time=0
EXTRACT: note_on channel=10 note=79 velocity=0 time=0
EXTRACT: note_on channel=10 note=67 velocity=0 time=0.0057471250000000005
EXTRACT: note_on channel=3 note=63 velocity=0 time=0.06896550000000001
EXTRACT: note_on channel=1 note=67 velocity=0 time=0
EXTRACT: note_on channel=4 note=39 velocity=0 time=0.074712625
EXTRACT: note_on channel=3 note=63 velocity=107 time=0
EXTRACT: note_on channel=1 note=67 velocity=93 time=0
EXTRACT: note_on channel=4 note=67 velocity=0 time=0
EXTRACT: note_on channel=4 note=58 velocity=0 time=0
EXTRACT: note_on channel=4 note=63 velocity=0 time=0
EXTRACT: note_on channel=4 note=55 velocity=0 time=0
EXTRACT: note_on channel=4 note=39 velocity=55 time=0
EXTRACT: note_on channel=5 note=70 velocity=0 time=0
EXTRACT: note_on channel=5 note=65 velocity=0 time=0
EXTRACT: note_on channel=9 note=38 velocity=66 time=0
EXTRACT: note_on channel=9 note=40 velocity=66 time=0
EXTRACT: note_on channel=9 note=42 velocity=52 time=0
EXTRACT: note_on channel=9 note=28 velocity=52 time=0
EXTRACT: note_on channel=10 note=79 velocity=86 time=0.0057471250000000005
EXTRACT: note_on channel=10 note=67 velocity=85 time=0
EXTRACT: note_on channel=9 note=28 velocity=0 time=0
EXTRACT: note_on channel=9 note=38 velocity=0 time=0
EXTRACT: note_on channel=9 note=40 velocity=0 time=0
EXTRACT: note_on channel=9 note=42 velocity=0 time=0
EXTRACT: note_on channel=4 note=58 velocity=66 time=0.0057471250000000005
EXTRACT: note_on channel=4 note=67 velocity=60 time=0
EXTRACT: note_on channel=4 note=63 velocity=69 time=0
EXTRACT: note_on channel=4 note=55 velocity=60 time=0
EXTRACT: note_on channel=5 note=65 velocity=70 time=0
EXTRACT: note_on channel=5 note=70 velocity=68 time=0
EXTRACT: note_on channel=6 note=65 velocity=58 time=0
EXTRACT: note_on channel=4 note=39 velocity=0 time=0.14942525
EXTRACT: note_on channel=4 note=63 velocity=0 time=0.011494250000000001
EXTRACT: note_on channel=4 note=58 velocity=0 time=0
EXTRACT: note_on channel=4 note=67 velocity=0 time=0
EXTRACT: note_on channel=4 note=55 velocity=0 time=0
EXTRACT: note_on channel=4 note=39 velocity=55 time=0
EXTRACT: note_on channel=5 note=70 velocity=0 time=0
EXTRACT: note_on channel=5 note=65 velocity=0 time=0
EXTRACT: note_on channel=9 note=36 velocity=110 time=0
EXTRACT: note_on channel=9 note=36 velocity=0 time=0.0057471250000000005
EXTRACT: note_on channel=4 note=67 velocity=57 time=0.0057471250000000005
EXTRACT: note_on channel=4 note=58 velocity=57 time=0
EXTRACT: note_on channel=4 note=55 velocity=57 time=0
EXTRACT: note_on channel=4 note=63 velocity=57 time=0
EXTRACT: note_on channel=5 note=65 velocity=63 time=0
EXTRACT: note_on channel=5 note=70 velocity=63 time=0
EXTRACT: note_on channel=10 note=79 velocity=0 time=0.045977000000000004
EXTRACT: note_on channel=10 note=67 velocity=0 time=0.017241375000000003
EXTRACT: note_on channel=2 note=27 velocity=0 time=0.022988500000000002
EXTRACT: note_on channel=0 note=46 velocity=0 time=0.011494250000000001
EXTRACT: note_on channel=0 note=51 velocity=0 time=0
EXTRACT: note_on channel=6 note=63 velocity=0 time=0
EXTRACT: note_on channel=0 note=58 velocity=0 time=0.0057471250000000005
EXTRACT: note_on channel=8 note=70 velocity=0 time=0.011494250000000001
EXTRACT: note_on channel=0 note=39 velocity=0 time=0.0057471250000000005
EXTRACT: note_on channel=0 note=67 velocity=0 time=0.011494250000000001
EXTRACT: note_on channel=0 note=63 velocity=0 time=0
EXTRACT: note_on channel=8 note=79 velocity=0 time=0
EXTRACT: note_on channel=6 note=67 velocity=0 time=0.0057471250000000005
EXTRACT: note_on channel=6 note=65 velocity=0 time=0.0057471250000000005
EXTRACT: note_on channel=4 note=39 velocity=0 time=0.0057471250000000005
EXTRACT: note_on channel=8 note=75 velocity=0 time=0
EXTRACT: note_on channel=8 note=77 velocity=59 time=0.0057471250000000005
EXTRACT: note_on channel=8 note=74 velocity=73 time=0
EXTRACT: note_on channel=8 note=70 velocity=59 time=0
EXTRACT: note_on channel=2 note=34 velocity=96 time=0.0057471250000000005
EXTRACT: note_on channel=4 note=55 velocity=0 time=0
EXTRACT: note_on channel=4 note=67 velocity=0 time=0
EXTRACT: note_on channel=4 note=58 velocity=0 time=0
EXTRACT: note_on channel=4 note=63 velocity=0 time=0
EXTRACT: note_on channel=4 note=46 velocity=55 time=0
EXTRACT: note_on channel=5 note=70 velocity=0 time=0
EXTRACT: note_on channel=5 note=65 velocity=0 time=0
EXTRACT: note_on channel=6 note=67 velocity=62 time=0
EXTRACT: note_on channel=9 note=36 velocity=113 time=0
EXTRACT: note_on channel=9 note=41 velocity=110 time=0
EXTRACT: note_on channel=9 note=46 velocity=80 time=0
EXTRACT: note_on channel=0 note=46 velocity=79 time=0.0057471250000000005
EXTRACT: note_on channel=0 note=70 velocity=76 time=0
EXTRACT: note_on channel=10 note=77 velocity=92 time=0
EXTRACT: note_on channel=10 note=65 velocity=92 time=0
EXTRACT: note_on channel=9 note=46 velocity=0 time=0
EXTRACT: note_on channel=9 note=41 velocity=0 time=0
EXTRACT: note_on channel=9 note=36 velocity=0 time=0
EXTRACT: note_on channel=0 note=65 velocity=76 time=0.0057471250000000005
EXTRACT: note_on channel=4 note=58 velocity=74 time=0
EXTRACT: note_on channel=4 note=62 velocity=69 time=0
EXTRACT: note_on channel=4 note=65 velocity=66 time=0
EXTRACT: note_on channel=4 note=53 velocity=66 time=0
EXTRACT: note_on channel=5 note=65 velocity=74 time=0
EXTRACT: note_on channel=5 note=70 velocity=63 time=0
EXTRACT: note_on channel=3 note=63 velocity=0 time=0.27011487500000003
EXTRACT: note_on channel=1 note=67 velocity=0 time=0
EXTRACT: note_on channel=4 note=46 velocity=0 time=0.051724125
EXTRACT: note_on channel=3 note=62 velocity=83 time=0
EXTRACT: note_on channel=1 note=65 velocity=83 time=0
EXTRACT: note_on channel=4 note=65 velocity=0 time=0
EXTRACT: note_on channel=4 note=58 velocity=0 time=0
EXTRACT: note_on channel=4 note=62 velocity=0 time=0
EXTRACT: note_on channel=4 note=53 velocity=0 time=0
EXTRACT: note_on channel=4 note=46 velocity=55 time=0
EXTRACT: note_on channel=5 note=70 velocity=0 time=0
EXTRACT: note_on channel=5 note=65 velocity=0 time=0
EXTRACT: note_on channel=9 note=35 velocity=64 time=0
EXTRACT: note_on channel=9 note=38 velocity=64 time=0
EXTRACT: note_on channel=9 note=42 velocity=50 time=0
EXTRACT: note_on channel=9 note=42 velocity=0 time=0.0057471250000000005
EXTRACT: note_on channel=9 note=38 velocity=0 time=0
EXTRACT: note_on channel=9 note=35 velocity=0 time=0
EXTRACT: note_on channel=0 note=53 velocity=76 time=0.0057471250000000005
EXTRACT: note_on channel=4 note=53 velocity=60 time=0
EXTRACT: note_on channel=4 note=58 velocity=61 time=0
EXTRACT: note_on channel=4 note=62 velocity=61 time=0
EXTRACT: note_on channel=4 note=65 velocity=59 time=0
EXTRACT: note_on channel=5 note=70 velocity=62 time=0
EXTRACT: note_on channel=5 note=65 velocity=64 time=0
EXTRACT: note_on channel=6 note=62 velocity=56 time=0
EXTRACT: note_on channel=3 note=62 velocity=0 time=0.13793100000000003
EXTRACT: note_on channel=1 note=65 velocity=0 time=0
EXTRACT: note_on channel=9 note=35 velocity=64 time=0.022988500000000002
EXTRACT: note_on channel=1 note=65 velocity=93 time=0.0057471250000000005
EXTRACT: note_on channel=9 note=35 velocity=0 time=0
EXTRACT: note_on channel=3 note=62 velocity=105 time=0
EXTRACT: note_on channel=6 note=67 velocity=0 time=0.14367812500000002
EXTRACT: note_on channel=4 note=46 velocity=0 time=0.0057471250000000005
EXTRACT: note_on channel=4 note=62 velocity=0 time=0.011494250000000001
EXTRACT: note_on channel=4 note=53 velocity=0 time=0
EXTRACT: note_on channel=4 note=58 velocity=0 time=0
EXTRACT: note_on channel=4 note=65 velocity=0 time=0
EXTRACT: note_on channel=4 note=46 velocity=55 time=0
EXTRACT: note_on channel=5 note=65 velocity=0 time=0
EXTRACT: note_on channel=5 note=70 velocity=0 time=0
EXTRACT: note_on channel=9 note=40 velocity=78 time=0
EXTRACT: note_on channel=9 note=39 velocity=111 time=0
EXTRACT: note_on channel=9 note=42 velocity=64 time=0
EXTRACT: note_on channel=0 note=62 velocity=55 time=0.0057471250000000005
EXTRACT: note_on channel=5 note=65 velocity=74 time=0
EXTRACT: note_on channel=9 note=42 velocity=0 time=0
EXTRACT: note_on channel=9 note=39 velocity=0 time=0
EXTRACT: note_on channel=9 note=40 velocity=0 time=0
EXTRACT: note_on channel=4 note=58 velocity=65 time=0.0057471250000000005
EXTRACT: note_on channel=4 note=53 velocity=64 time=0
EXTRACT: note_on channel=4 note=62 velocity=67 time=0
EXTRACT: note_on channel=4 note=65 velocity=63 time=0
EXTRACT: note_on channel=5 note=70 velocity=65 time=0
EXTRACT: note_on channel=6 note=67 velocity=64 time=0
EXTRACT: note_on channel=10 note=65 velocity=0 time=0.051724125
EXTRACT: note_on channel=10 note=77 velocity=0 time=0
EXTRACT: note_on channel=9 note=37 velocity=57 time=0.10919537500000001
EXTRACT: note_on channel=9 note=37 velocity=0 time=0.0057471250000000005
EXTRACT: note_on channel=0 note=65 velocity=0 time=0.09770112500000001
EXTRACT: note_on channel=1 note=65 velocity=0 time=0.022988500000000002
EXTRACT: note_on channel=3 note=62 velocity=0 time=0.0057471250000000005
EXTRACT: note_on channel=4 note=46 velocity=0 time=0.028735625
EXTRACT: note_on channel=5 note=65 velocity=0 time=0.0057471250000000005
EXTRACT: note_on channel=3 note=63 velocity=84 time=0
EXTRACT: note_on channel=1 note=67 velocity=85 time=0
EXTRACT: note_on channel=4 note=62 velocity=0 time=0
EXTRACT: note_on channel=4 note=58 velocity=0 time=0
EXTRACT: note_on channel=4 note=53 velocity=0 time=0
EXTRACT: note_on channel=4 note=65 velocity=0 time=0
EXTRACT: note_on channel=4 note=46 velocity=55 time=0
EXTRACT: note_on channel=5 note=70 velocity=0 time=0
EXTRACT: note_on channel=5 note=70 velocity=61 time=0
EXTRACT: note_on channel=5 note=65 velocity=64 time=0
EXTRACT: note_on channel=9 note=40 velocity=67 time=0
EXTRACT: note_on channel=9 note=42 velocity=53 time=0
EXTRACT: note_on channel=0 note=65 velocity=64 time=0.0057471250000000005
EXTRACT: note_on channel=9 note=42 velocity=0 time=0
EXTRACT: note_on channel=9 note=40 velocity=0 time=0
EXTRACT: note_on channel=4 note=53 velocity=60 time=0.0057471250000000005
EXTRACT: note_on channel=4 note=62 velocity=64 time=0
EXTRACT: note_on channel=4 note=58 velocity=59 time=0
EXTRACT: note_on channel=4 note=65 velocity=59 time=0
EXTRACT: note_on channel=6 note=65 velocity=55 time=0
EXTRACT: note_on channel=3 note=63 velocity=0 time=0.12643675000000001
EXTRACT: note_on channel=1 note=67 velocity=0 time=0
EXTRACT: note_on channel=4 note=46 velocity=0 time=0.022988500000000002
EXTRACT: note_on channel=5 note=65 velocity=0 time=0
EXTRACT: note_on channel=5 note=70 velocity=0 time=0
EXTRACT: note_on channel=3 note=63 velocity=110 time=0
EXTRACT: note_on channel=1 note=67 velocity=93 time=0
EXTRACT: note_on channel=4 note=58 velocity=0 time=0
EXTRACT: note_on channel=4 note=53 velocity=0 time=0
EXTRACT: note_on channel=4 note=62 velocity=0 time=0
EXTRACT: note_on channel=4 note=65 velocity=0 time=0
EXTRACT: note_on channel=4 note=46 velocity=55 time=0
EXTRACT: note_on channel=5 note=70 velocity=65 time=0
EXTRACT: note_on channel=5 note=65 velocity=72 time=0
EXTRACT: note_on channel=9 note=39 velocity=108 time=0
EXTRACT: note_on channel=9 note=39 velocity=0 time=0.0057471250000000005
EXTRACT: note_on channel=4 note=58 velocity=67 time=0.0057471250000000005
EXTRACT: note_on channel=4 note=53 velocity=63 time=0
EXTRACT: note_on channel=4 note=65 velocity=60 time=0
EXTRACT: note_on channel=4 note=62 velocity=66 time=0
EXTRACT: note_on channel=0 note=70 velocity=0 time=0.086206875
EXTRACT: note_on channel=6 note=67 velocity=0 time=0.017241375000000003
EXTRACT: note_on channel=9 note=42 velocity=61 time=0.05747125
EXTRACT: note_on channel=0 note=70 velocity=87 time=0.0057471250000000005
EXTRACT: note_on channel=9 note=42 velocity=0 time=0
EXTRACT: note_on channel=6 note=67 velocity=62 time=0.0057471250000000005
EXTRACT: note_on channel=4 note=46 velocity=0 time=0.14942525
EXTRACT: note_on channel=5 note=65 velocity=0 time=0
EXTRACT: note_on channel=5 note=70 velocity=0 time=0
EXTRACT: note_on channel=4 note=65 velocity=0 time=0.011494250000000001
EXTRACT: note_on channel=4 note=58 velocity=0 time=0
EXTRACT: note_on channel=4 note=53 velocity=0 time=0
EXTRACT: note_on channel=4 note=62 velocity=0 time=0
EXTRACT: note_on channel=4 note=46 velocity=55 time=0
EXTRACT: note_on channel=5 note=70 velocity=60 time=0
EXTRACT: note_on channel=5 note=65 velocity=64 time=0
EXTRACT: note_on channel=9 note=35 velocity=61 time=0
EXTRACT: note_on channel=9 note=37 velocity=59 time=0
EXTRACT: note_on channel=9 note=37 velocity=0 time=0.0057471250000000005
EXTRACT: note_on channel=9 note=35 velocity=0 time=0
EXTRACT: note_on channel=4 note=58 velocity=65 time=0.0057471250000000005
EXTRACT: note_on channel=4 note=53 velocity=63 time=0
EXTRACT: note_on channel=4 note=62 velocity=65 time=0
EXTRACT: note_on channel=4 note=65 velocity=59 time=0
EXTRACT: note_on channel=0 note=53 velocity=0 time=0.074712625
EXTRACT: note_on channel=3 note=63 velocity=0 time=0.011494250000000001
EXTRACT: note_on channel=1 note=67 velocity=0 time=0
EXTRACT: note_on channel=6 note=62 velocity=0 time=0.034482750000000006
EXTRACT: note_on channel=4 note=46 velocity=0 time=0.028735625
EXTRACT: note_on channel=5 note=65 velocity=0 time=0
EXTRACT: note_on channel=5 note=70 velocity=0 time=0
EXTRACT: note_on channel=3 note=62 velocity=86 time=0
EXTRACT: note_on channel=1 note=65 velocity=84 time=0
EXTRACT: note_on channel=4 note=62 velocity=0 time=0
EXTRACT: note_on channel=4 note=58 velocity=0 time=0
EXTRACT: note_on channel=4 note=53 velocity=0 time=0
EXTRACT: note_on channel=4 note=65 velocity=0 time=0
EXTRACT: note_on channel=4 note=46 velocity=55 time=0
EXTRACT: note_on channel=5 note=65 velocity=70 time=0
EXTRACT: note_on channel=5 note=70 velocity=65 time=0
EXTRACT: note_on channel=9 note=35 velocity=67 time=0
EXTRACT: note_on channel=9 note=37 velocity=64 time=0
EXTRACT: note_on channel=9 note=42 velocity=53 time=0
EXTRACT: note_on channel=0 note=53 velocity=74 time=0.0057471250000000005
EXTRACT: note_on channel=9 note=42 velocity=0 time=0
EXTRACT: note_on channel=9 note=37 velocity=0 time=0
EXTRACT: note_on channel=9 note=35 velocity=0 time=0
EXTRACT: note_on channel=4 note=58 velocity=64 time=0.0057471250000000005
EXTRACT: note_on channel=4 note=53 velocity=64 time=0
EXTRACT: note_on channel=4 note=62 velocity=64 time=0
EXTRACT: note_on channel=4 note=65 velocity=59 time=0
EXTRACT: note_on channel=6 note=62 velocity=53 time=0
EXTRACT: note_on channel=3 note=62 velocity=0 time=0.132183875
EXTRACT: note_on channel=1 note=65 velocity=0 time=0
EXTRACT: note_on channel=1 note=65 velocity=93 time=0.034482750000000006
EXTRACT: note_on channel=3 note=62 velocity=107 time=0
EXTRACT: note_on channel=6 note=67 velocity=0 time=0.132183875
EXTRACT: note_on channel=4 note=46 velocity=0 time=0.017241375000000003
EXTRACT: note_on channel=5 note=70 velocity=0 time=0
EXTRACT: note_on channel=5 note=65 velocity=0 time=0
EXTRACT: note_on channel=4 note=62 velocity=0 time=0.011494250000000001
EXTRACT: note_on channel=4 note=58 velocity=0 time=0
EXTRACT: note_on channel=4 note=53 velocity=0 time=0
EXTRACT: note_on channel=4 note=65 velocity=0 time=0
EXTRACT: note_on channel=4 note=46 velocity=55 time=0
EXTRACT: note_on channel=9 note=40 velocity=81 time=0
EXTRACT: note_on channel=9 note=39 velocity=114 time=0
EXTRACT: note_on channel=9 note=42 velocity=67 time=0
EXTRACT: note_on channel=0 note=58 velocity=74 time=0.0057471250000000005
EXTRACT: note_on channel=9 note=42 velocity=0 time=0
EXTRACT: note_on channel=9 note=39 velocity=0 time=0
EXTRACT: note_on channel=9 note=40 velocity=0 time=0
EXTRACT: note_on channel=4 note=58 velocity=75 time=0.0057471250000000005
EXTRACT: note_on channel=4 note=53 velocity=66 time=0
EXTRACT: note_on channel=4 note=62 velocity=69 time=0
EXTRACT: note_on channel=4 note=65 velocity=63 time=0
EXTRACT: note_on channel=5 note=70 velocity=72 time=0
EXTRACT: note_on channel=5 note=65 velocity=72 time=0
EXTRACT: note_on channel=6 note=67 velocity=64 time=0
EXTRACT: note_on channel=6 note=65 velocity=0 time=0.0057471250000000005
EXTRACT: note_on channel=0 note=70 velocity=0 time=0.028735625
EXTRACT: note_on channel=4 note=46 velocity=0 time=0.1149425
EXTRACT: note_on channel=4 note=62 velocity=0 time=0.011494250000000001
EXTRACT: note_on channel=4 note=58 velocity=0 time=0
EXTRACT: note_on channel=4 note=53 velocity=0 time=0
EXTRACT: note_on channel=4 note=65 velocity=0 time=0
EXTRACT: note_on channel=4 note=46 velocity=55 time=0
EXTRACT: note_on channel=5 note=65 velocity=0 time=0
EXTRACT: note_on channel=5 note=70 velocity=0 time=0
EXTRACT: note_on channel=9 note=35 velocity=61 time=0
EXTRACT: note_on channel=0 note=70 velocity=100 time=0.0057471250000000005
EXTRACT: note_on channel=9 note=35 velocity=0 time=0
EXTRACT: note_on channel=4 note=58 velocity=66 time=0.0057471250000000005
EXTRACT: note_on channel=4 note=53 velocity=64 time=0
EXTRACT: note_on channel=4 note=65 velocity=59 time=0
EXTRACT: note_on channel=4 note=62 velocity=66 time=0
EXTRACT: note_on channel=5 note=65 velocity=65 time=0
EXTRACT: note_on channel=5 note=70 velocity=63 time=0
EXTRACT: note_on channel=0 note=62 velocity=0 time=0.086206875
EXTRACT: note_on channel=1 note=65 velocity=0 time=0.011494250000000001
EXTRACT: note_on channel=3 note=62 velocity=0 time=0.0057471250000000005
EXTRACT: note_on channel=4 note=46 velocity=0 time=0.045977000000000004
EXTRACT: note_on channel=3 note=60 velocity=85 time=0
EXTRACT: note_on channel=1 note=63 velocity=83 time=0
EXTRACT: note_on channel=4 note=65 velocity=0 time=0
EXTRACT: note_on channel=4 note=58 velocity=0 time=0
EXTRACT: note_on channel=4 note=53 velocity=0 time=0
EXTRACT: note_on channel=4 note=62 velocity=0 time=0
EXTRACT: note_on channel=4 note=46 velocity=55 time=0
EXTRACT: note_on channel=5 note=70 velocity=0 time=0
EXTRACT: note_on channel=5 note=65 velocity=0 time=0
EXTRACT: note_on channel=9 note=40 velocity=65 time=0
EXTRACT: note_on channel=9 note=42 velocity=51 time=0
EXTRACT: note_on channel=9 note=28 velocity=51 time=0
EXTRACT: note_on channel=0 note=62 velocity=84 time=0.0057471250000000005
EXTRACT: note_on channel=9 note=28 velocity=0 time=0
EXTRACT: note_on channel=9 note=42 velocity=0 time=0
EXTRACT: note_on channel=9 note=40 velocity=0 time=0
EXTRACT: note_on channel=4 note=53 velocity=60 time=0.0057471250000000005
EXTRACT: note_on channel=4 note=58 velocity=63 time=0
EXTRACT: note_on channel=4 note=62 velocity=66 time=0
EXTRACT: note_on channel=4 note=65 velocity=58 time=0
EXTRACT: note_on channel=5 note=65 velocity=65 time=0
EXTRACT: note_on channel=5 note=70 velocity=61 time=0
EXTRACT: note_on channel=6 note=65 velocity=58 time=0
EXTRACT: note_on channel=3 note=60 velocity=0 time=0.13793100000000003
EXTRACT: note_on channel=1 note=63 velocity=0 time=0
EXTRACT: note_on channel=4 note=46 velocity=0 time=0.011494250000000001
EXTRACT: note_on channel=3 note=60 velocity=109 time=0
EXTRACT: note_on channel=1 note=63 velocity=93 time=0
EXTRACT: note_on channel=4 note=62 velocity=0 time=0
EXTRACT: note_on channel=4 note=53 velocity=0 time=0
EXTRACT: note_on channel=4 note=58 velocity=0 time=0
EXTRACT: note_on channel=4 note=65 velocity=0 time=0
EXTRACT: note_on channel=4 note=46 velocity=55 time=0
EXTRACT: note_on channel=5 note=70 velocity=0 time=0
EXTRACT: note_on channel=5 note=65 velocity=0 time=0
EXTRACT: note_on channel=4 note=58 velocity=57 time=0.011494250000000001
EXTRACT: note_on channel=4 note=62 velocity=57 time=0
EXTRACT: note_on channel=4 note=65 velocity=57 time=0
EXTRACT: note_on channel=4 note=53 velocity=57 time=0
EXTRACT: note_on channel=5 note=65 velocity=63 time=0
EXTRACT: note_on channel=5 note=70 velocity=60 time=0
EXTRACT: note_on channel=0 note=65 velocity=0 time=0.09195400000000001
EXTRACT: note_on channel=2 note=34 velocity=0 time=0.0057471250000000005
EXTRACT: note_on channel=6 note=62 velocity=0 time=0
EXTRACT: note_on channel=6 note=67 velocity=0 time=0.022988500000000002
EXTRACT: note_on channel=6 note=65 velocity=0 time=0.017241375000000003
EXTRACT: note_on channel=0 note=62 velocity=0 time=0.0057471250000000005
EXTRACT: note_on channel=8 note=74 velocity=0 time=0
EXTRACT: note_on channel=4 note=46 velocity=0 time=0.0057471250000000005
EXTRACT: note_on channel=8 note=77 velocity=0 time=0
EXTRACT: note_on channel=0 note=46 velocity=0 time=0.0057471250000000005
EXTRACT: note_on channel=8 note=70 velocity=0 time=0
EXTRACT: note_on channel=2 note=33 velocity=96 time=0.0057471250000000005
EXTRACT: note_on channel=0 note=58 velocity=0 time=0
EXTRACT: note_on channel=4 note=65 velocity=0 time=0
EXTRACT: note_on channel=4 note=58 velocity=0 time=0
EXTRACT: note_on channel=4 note=62 velocity=0 time=0
EXTRACT: note_on channel=4 note=53 velocity=0 time=0
EXTRACT: note_on channel=4 note=45 velocity=55 time=0
EXTRACT: note_on channel=5 note=70 velocity=0 time=0
EXTRACT: note_on channel=5 note=65 velocity=0 time=0
EXTRACT: note_on channel=6 note=65 velocity=62 time=0
EXTRACT: note_on channel=9 note=36 velocity=114 time=0
EXTRACT: note_on channel=9 note=41 velocity=110 time=0
EXTRACT: note_on channel=9 note=46 velocity=81 time=0
EXTRACT: note_on channel=0 note=65 velocity=80 time=0.0057471250000000005
EXTRACT: note_on channel=0 note=45 velocity=72 time=0
EXTRACT: note_on channel=8 note=69 velocity=93 time=0
EXTRACT: note_on channel=8 note=81 velocity=93 time=0
EXTRACT: note_on channel=10 note=69 velocity=96 time=0
EXTRACT: note_on channel=10 note=81 velocity=96 time=0
EXTRACT: note_on channel=9 note=46 velocity=0 time=0
EXTRACT: note_on channel=9 note=41 velocity=0 time=0
EXTRACT: note_on channel=9 note=36 velocity=0 time=0
EXTRACT: note_on channel=0 note=60 velocity=70 time=0.0057471250000000005
EXTRACT: note_on channel=4 note=60 velocity=69 time=0
EXTRACT: note_on channel=4 note=57 velocity=69 time=0
EXTRACT: note_on channel=4 note=65 velocity=69 time=0
EXTRACT: note_on channel=5 note=65 velocity=76 time=0
EXTRACT: note_on channel=5 note=70 velocity=69 time=0
EXTRACT: note_on channel=0 note=53 velocity=0 time=0.0057471250000000005
EXTRACT: note_on channel=0 note=70 velocity=0 time=0.16091950000000002
EXTRACT: note_on channel=4 note=45 velocity=0 time=0.155172375
EXTRACT: note_on channel=4 note=60 velocity=0 time=0.011494250000000001
EXTRACT: note_on channel=4 note=57 velocity=0 time=0
EXTRACT: note_on channel=4 note=65 velocity=0 time=0
EXTRACT: note_on channel=4 note=45 velocity=55 time=0
EXTRACT: note_on channel=5 note=70 velocity=0 time=0
EXTRACT: note_on channel=5 note=65 velocity=0 time=0
EXTRACT: note_on channel=9 note=35 velocity=68 time=0
EXTRACT: note_on channel=9 note=38 velocity=68 time=0
EXTRACT: note_on channel=9 note=42 velocity=54 time=0
EXTRACT: note_on channel=0 note=53 velocity=79 time=0.0057471250000000005
EXTRACT: note_on channel=9 note=42 velocity=0 time=0
EXTRACT: note_on channel=9 note=38 velocity=0 time=0
EXTRACT: note_on channel=9 note=35 velocity=0 time=0
EXTRACT: note_on channel=4 note=57 velocity=59 time=0.0057471250000000005
EXTRACT: note_on channel=4 note=60 velocity=70 time=0
EXTRACT: note_on channel=4 note=65 velocity=66 time=0
EXTRACT: note_on channel=5 note=70 velocity=67 time=0
EXTRACT: note_on channel=5 note=65 velocity=71 time=0
EXTRACT: note_on channel=6 note=60 velocity=56 time=0
EXTRACT: note_on channel=3 note=60 velocity=0 time=0.045977000000000004
EXTRACT: note_on channel=1 note=63 velocity=0 time=0
EXTRACT: note_on channel=9 note=35 velocity=63 time=0.1149425
EXTRACT: note_on channel=9 note=35 velocity=0 time=0.0057471250000000005
EXTRACT: note_on channel=0 note=60 velocity=0 time=0.13793100000000003
EXTRACT: note_on channel=6 note=65 velocity=0 time=0.011494250000000001
EXTRACT: note_on channel=4 note=45 velocity=0 time=0.0057471250000000005
EXTRACT: note_on channel=4 note=57 velocity=0 time=0.011494250000000001
EXTRACT: note_on channel=4 note=60 velocity=0 time=0
EXTRACT: note_on channel=4 note=65 velocity=0 time=0
EXTRACT: note_on channel=4 note=45 velocity=55 time=0
EXTRACT: note_on channel=5 note=65 velocity=0 time=0
EXTRACT: note_on channel=5 note=70 velocity=0 time=0
EXTRACT: note_on channel=9 note=40 velocity=77 time=0
EXTRACT: note_on channel=9 note=39 velocity=110 time=0
EXTRACT: note_on channel=9 note=42 velocity=64 time=0
EXTRACT: note_on channel=9 note=42 velocity=0 time=0.0057471250000000005
EXTRACT: note_on channel=9 note=39 velocity=0 time=0
EXTRACT: note_on channel=9 note=40 velocity=0 time=0
EXTRACT: note_on channel=0 note=60 velocity=70 time=0.0057471250000000005
EXTRACT: note_on channel=4 note=60 velocity=75 time=0
EXTRACT: note_on channel=4 note=65 velocity=75 time=0
EXTRACT: note_on channel=4 note=57 velocity=75 time=0
EXTRACT: note_on channel=5 note=70 velocity=65 time=0
EXTRACT: note_on channel=5 note=65 velocity=71 time=0
EXTRACT: note_on channel=6 note=65 velocity=64 time=0
EXTRACT: note_on channel=9 note=37 velocity=57 time=0.16091950000000002
EXTRACT: note_on channel=9 note=37 velocity=0 time=0.0057471250000000005
EXTRACT: note_on channel=10 note=81 velocity=0 time=0.040229875000000005
EXTRACT: note_on channel=10 note=69 velocity=0 time=0.011494250000000001
EXTRACT: note_on channel=0 note=65 velocity=0 time=0.06321837500000001
EXTRACT: note_on channel=6 note=60 velocity=0 time=0
EXTRACT: note_on channel=4 note=45 velocity=0 time=0.040229875000000005
EXTRACT: note_on channel=4 note=60 velocity=0 time=0.011494250000000001
EXTRACT: note_on channel=4 note=65 velocity=0 time=0
EXTRACT: note_on channel=4 note=57 velocity=0 time=0
EXTRACT: note_on channel=4 note=45 velocity=55 time=0
EXTRACT: note_on channel=5 note=65 velocity=0 time=0
EXTRACT: note_on channel=5 note=70 velocity=0 time=0
EXTRACT: note_on channel=9 note=40 velocity=65 time=0
EXTRACT: note_on channel=9 note=42 velocity=51 time=0
EXTRACT: note_on channel=0 note=65 velocity=81 time=0.0057471250000000005
EXTRACT: note_on channel=9 note=42 velocity=0 time=0
EXTRACT: note_on channel=9 note=40 velocity=0 time=0
EXTRACT: note_on channel=4 note=57 velocity=60 time=0.0057471250000000005
EXTRACT: note_on channel=4 note=65 velocity=60 time=0
EXTRACT: note_on channel=4 note=60 velocity=59 time=0
EXTRACT: note_on channel=5 note=65 velocity=64 time=0
EXTRACT: note_on channel=5 note=70 velocity=59 time=0
EXTRACT: note_on channel=6 note=60 velocity=55 time=0
EXTRACT: note_on channel=8 note=81 velocity=0 time=0.022988500000000002
EXTRACT: note_on channel=8 note=69 velocity=0 time=0
EXTRACT: note_on channel=4 note=45 velocity=0 time=0.12643675000000001
EXTRACT: note_on channel=3 note=58 velocity=84 time=0
EXTRACT: note_on channel=4 note=57 velocity=0 time=0
EXTRACT: note_on channel=4 note=65 velocity=0 time=0
EXTRACT: note_on channel=4 note=60 velocity=0 time=0
EXTRACT: note_on channel=4 note=45 velocity=55 time=0
EXTRACT: note_on channel=5 note=70 velocity=0 time=0
EXTRACT: note_on channel=5 note=65 velocity=0 time=0
EXTRACT: note_on channel=9 note=39 velocity=110 time=0
EXTRACT: note_on channel=9 note=39 velocity=0 time=0.0057471250000000005
EXTRACT: note_on channel=4 note=60 velocity=74 time=0.0057471250000000005
EXTRACT: note_on channel=4 note=57 velocity=74 time=0
EXTRACT: note_on channel=4 note=65 velocity=74 time=0
EXTRACT: note_on channel=5 note=65 velocity=69 time=0
EXTRACT: note_on channel=5 note=70 velocity=65 time=0
EXTRACT: note_on channel=6 note=65 velocity=0 time=0.10344825
EXTRACT: note_on channel=0 note=60 velocity=0 time=0.028735625
EXTRACT: note_on channel=3 note=58 velocity=0 time=0.0057471250000000005
EXTRACT: note_on channel=3 note=63 velocity=109 time=0
EXTRACT: note_on channel=0 note=60 velocity=71 time=0
EXTRACT: note_on channel=9 note=42 velocity=64 time=0
EXTRACT: note_on channel=0 note=79 velocity=112 time=0.0057471250000000005
EXTRACT: note_on channel=0 note=67 velocity=104 time=0
EXTRACT: note_on channel=8 note=79 velocity=96 time=0
EXTRACT: note_on channel=8 note=67 velocity=96 time=0
EXTRACT: note_on channel=10 note=67 velocity=95 time=0
EXTRACT: note_on channel=10 note=79 velocity=95 time=0
EXTRACT: note_on channel=9 note=42 velocity=0 time=0
EXTRACT: note_on channel=6 note=65 velocity=62 time=0.0057471250000000005
EXTRACT: note_on channel=4 note=45 velocity=0 time=0.14942525
EXTRACT: note_on channel=4 note=60 velocity=0 time=0.011494250000000001
EXTRACT: note_on channel=4 note=57 velocity=0 time=0
EXTRACT: note_on channel=4 note=65 velocity=0 time=0
EXTRACT: note_on channel=4 note=45 velocity=55 time=0
EXTRACT: note_on channel=5 note=70 velocity=0 time=0
EXTRACT: note_on channel=5 note=65 velocity=0 time=0
EXTRACT: note_on channel=9 note=35 velocity=62 time=0
EXTRACT: note_on channel=9 note=37 velocity=59 time=0
EXTRACT: note_on channel=9 note=37 velocity=0 time=0.0057471250000000005
EXTRACT: note_on channel=9 note=35 velocity=0 time=0
EXTRACT: note_on channel=4 note=60 velocity=70 time=0.0057471250000000005
EXTRACT: note_on channel=4 note=57 velocity=63 time=0
EXTRACT: note_on channel=4 note=65 velocity=69 time=0
EXTRACT: note_on channel=5 note=65 velocity=72 time=0
EXTRACT: note_on channel=5 note=70 velocity=67 time=0
EXTRACT: note_on channel=3 note=63 velocity=0 time=0.10919537500000001
EXTRACT: note_on channel=0 note=53 velocity=0 time=0
EXTRACT: note_on channel=6 note=60 velocity=0 time=0.011494250000000001
EXTRACT: note_on channel=4 note=45 velocity=0 time=0.028735625
EXTRACT: note_on channel=3 note=62 velocity=84 time=0
EXTRACT: note_on channel=4 note=60 velocity=0 time=0
EXTRACT: note_on channel=4 note=57 velocity=0 time=0
EXTRACT: note_on channel=4 note=65 velocity=0 time=0
EXTRACT: note_on channel=4 note=45 velocity=55 time=0
EXTRACT: note_on channel=5 note=70 velocity=0 time=0
EXTRACT: note_on channel=5 note=65 velocity=0 time=0
EXTRACT: note_on channel=9 note=35 velocity=65 time=0
EXTRACT: note_on channel=9 note=37 velocity=63 time=0
EXTRACT: note_on channel=9 note=42 velocity=52 time=0
EXTRACT: note_on channel=0 note=53 velocity=58 time=0.0057471250000000005
EXTRACT: note_on channel=9 note=42 velocity=0 time=0
EXTRACT: note_on channel=9 note=37 velocity=0 time=0
EXTRACT: note_on channel=9 note=35 velocity=0 time=0
EXTRACT: note_on channel=4 note=60 velocity=75 time=0.0057471250000000005
EXTRACT: note_on channel=4 note=57 velocity=64 time=0
EXTRACT: note_on channel=4 note=65 velocity=71 time=0
EXTRACT: note_on channel=5 note=65 velocity=69 time=0
EXTRACT: note_on channel=5 note=70 velocity=64 time=0
EXTRACT: note_on channel=6 note=60 velocity=53 time=0
EXTRACT: note_on channel=8 note=67 velocity=0 time=0.09770112500000001
EXTRACT: note_on channel=10 note=79 velocity=0 time=0.017241375000000003
EXTRACT: note_on channel=8 note=79 velocity=0 time=0.0057471250000000005
EXTRACT: note_on channel=3 note=62 velocity=0 time=0.011494250000000001
EXTRACT: note_on channel=0 note=79 velocity=0 time=0
EXTRACT: note_on channel=10 note=67 velocity=0 time=0.017241375000000003
EXTRACT: note_on channel=3 note=62 velocity=107 time=0
EXTRACT: note_on channel=0 note=82 velocity=117 time=0.0057471250000000005
EXTRACT: note_on channel=0 note=70 velocity=117 time=0
EXTRACT: note_on channel=8 note=82 velocity=94 time=0
EXTRACT: note_on channel=8 note=70 velocity=94 time=0
EXTRACT: note_on channel=10 note=70 velocity=95 time=0
EXTRACT: note_on channel=10 note=82 velocity=95 time=0
EXTRACT: note_on channel=0 note=67 velocity=0 time=0.022988500000000002
EXTRACT: note_on channel=0 note=65 velocity=0 time=0.06896550000000001
EXTRACT: note_on channel=6 note=65 velocity=0 time=0.045977000000000004
EXTRACT: note_on channel=4 note=45 velocity=0 time=0.017241375000000003
EXTRACT: note_on channel=4 note=60 velocity=0 time=0.011494250000000001
EXTRACT: note_on channel=4 note=57 velocity=0 time=0
EXTRACT: note_on channel=4 note=65 velocity=0 time=0
EXTRACT: note_on channel=4 note=45 velocity=55 time=0
EXTRACT: note_on channel=5 note=70 velocity=0 time=0
EXTRACT: note_on channel=5 note=65 velocity=0 time=0
EXTRACT: note_on channel=9 note=40 velocity=75 time=0
EXTRACT: note_on channel=9 note=39 velocity=109 time=0
EXTRACT: note_on channel=9 note=42 velocity=62 time=0
EXTRACT: note_on channel=9 note=42 velocity=0 time=0.0057471250000000005
EXTRACT: note_on channel=9 note=39 velocity=0 time=0
EXTRACT: note_on channel=9 note=40 velocity=0 time=0
EXTRACT: note_on channel=0 note=65 velocity=60 time=0.0057471250000000005
EXTRACT: note_on channel=4 note=60 velocity=74 time=0
EXTRACT: note_on channel=4 note=57 velocity=74 time=0
EXTRACT: note_on channel=4 note=65 velocity=74 time=0
EXTRACT: note_on channel=5 note=65 velocity=76 time=0
EXTRACT: note_on channel=5 note=70 velocity=69 time=0
EXTRACT: note_on channel=6 note=65 velocity=64 time=0
EXTRACT: note_on channel=4 note=45 velocity=0 time=0.14942525
EXTRACT: note_on channel=4 note=60 velocity=0 time=0.011494250000000001
EXTRACT: note_on channel=4 note=57 velocity=0 time=0
EXTRACT: note_on channel=4 note=65 velocity=0 time=0
EXTRACT: note_on channel=4 note=45 velocity=55 time=0
EXTRACT: note_on channel=5 note=70 velocity=0 time=0
EXTRACT: note_on channel=5 note=65 velocity=0 time=0
EXTRACT: note_on channel=9 note=35 velocity=62 time=0
EXTRACT: note_on channel=9 note=35 velocity=0 time=0.0057471250000000005
EXTRACT: note_on channel=4 note=60 velocity=77 time=0.0057471250000000005
EXTRACT: note_on channel=4 note=57 velocity=65 time=0
EXTRACT: note_on channel=4 note=65 velocity=69 time=0
EXTRACT: note_on channel=5 note=65 velocity=69 time=0
EXTRACT: note_on channel=5 note=70 velocity=67 time=0
EXTRACT: note_on channel=3 note=62 velocity=0 time=0.086206875
EXTRACT: note_on channel=8 note=70 velocity=0 time=0.011494250000000001
EXTRACT: note_on channel=0 note=60 velocity=0 time=0.011494250000000001
EXTRACT: note_on channel=6 note=60 velocity=0 time=0.011494250000000001
EXTRACT: note_on channel=10 note=82 velocity=0 time=0
EXTRACT: note_on channel=8 note=82 velocity=0 time=0.0057471250000000005
EXTRACT: note_on channel=4 note=45 velocity=0 time=0.022988500000000002
EXTRACT: note_on channel=0 note=82 velocity=0 time=0.0057471250000000005
EXTRACT: note_on channel=3 note=58 velocity=85 time=0
EXTRACT: note_on channel=4 note=60 velocity=0 time=0
EXTRACT: note_on channel=4 note=57 velocity=0 time=0
EXTRACT: note_on channel=4 note=65 velocity=0 time=0
EXTRACT: note_on channel=4 note=45 velocity=55 time=0
EXTRACT: note_on channel=5 note=70 velocity=0 time=0
EXTRACT: note_on channel=5 note=65 velocity=0 time=0
EXTRACT: note_on channel=9 note=40 velocity=66 time=0
EXTRACT: note_on channel=9 note=42 velocity=52 time=0
EXTRACT: note_on channel=9 note=28 velocity=52 time=0
EXTRACT: note_on channel=0 note=84 velocity=111 time=0.0057471250000000005
EXTRACT: note_on channel=0 note=72 velocity=117 time=0
EXTRACT: note_on channel=8 note=84 velocity=94 time=0
EXTRACT: note_on channel=8 note=72 velocity=94 time=0
EXTRACT: note_on channel=10 note=72 velocity=95 time=0
EXTRACT: note_on channel=10 note=84 velocity=95 time=0
EXTRACT: note_on channel=9 note=28 velocity=0 time=0
EXTRACT: note_on channel=9 note=42 velocity=0 time=0
EXTRACT: note_on channel=9 note=40 velocity=0 time=0
EXTRACT: note_on channel=0 note=70 velocity=0 time=0.0057471250000000005
EXTRACT: note_on channel=0 note=60 velocity=45 time=0
EXTRACT: note_on channel=4 note=60 velocity=79 time=0
EXTRACT: note_on channel=4 note=57 velocity=65 time=0
EXTRACT: note_on channel=4 note=65 velocity=72 time=0
EXTRACT: note_on channel=5 note=65 velocity=64 time=0
EXTRACT: note_on channel=5 note=70 velocity=63 time=0
EXTRACT: note_on channel=6 note=60 velocity=58 time=0
EXTRACT: note_on channel=10 note=70 velocity=0 time=0
EXTRACT: note_on channel=3 note=58 velocity=0 time=0.13793100000000003
EXTRACT: note_on channel=4 note=45 velocity=0 time=0.011494250000000001
EXTRACT: note_on channel=4 note=60 velocity=0 time=0.011494250000000001
EXTRACT: note_on channel=4 note=57 velocity=0 time=0
EXTRACT: note_on channel=4 note=65 velocity=0 time=0
EXTRACT: note_on channel=4 note=45 velocity=55 time=0
EXTRACT: note_on channel=5 note=70 velocity=0 time=0
EXTRACT: note_on channel=5 note=65 velocity=0 time=0
EXTRACT: note_on channel=9 note=36 velocity=110 time=0
EXTRACT: note_on channel=9 note=41 velocity=110 time=0
EXTRACT: note_on channel=3 note=58 velocity=109 time=0
EXTRACT: note_on channel=9 note=41 velocity=0 time=0
EXTRACT: note_on channel=9 note=36 velocity=0 time=0
EXTRACT: note_on channel=4 note=60 velocity=65 time=0.0057471250000000005
EXTRACT: note_on channel=4 note=57 velocity=65 time=0
EXTRACT: note_on channel=4 note=65 velocity=65 time=0
EXTRACT: note_on channel=5 note=65 velocity=64 time=0
EXTRACT: note_on channel=5 note=70 velocity=64 time=0
EXTRACT: note_on channel=10 note=84 velocity=0 time=0.074712625
EXTRACT: note_on channel=0 note=53 velocity=0 time=0.022988500000000002
EXTRACT: note_on channel=10 note=72 velocity=0 time=0.017241375000000003
EXTRACT: note_on channel=6 note=60 velocity=0 time=0.022988500000000002
EXTRACT: note_on channel=6 note=65 velocity=0 time=0
EXTRACT: note_on channel=0 note=45 velocity=0 time=0.011494250000000001
EXTRACT: note_on channel=0 note=65 velocity=0 time=0
EXTRACT: note_on channel=4 note=45 velocity=0 time=0
EXTRACT: note_on channel=2 note=33 velocity=0 time=0.0057471250000000005
EXTRACT: note_on channel=8 note=72 velocity=0 time=0
EXTRACT: note_on channel=2 note=31 velocity=86 time=0.0057471250000000005
EXTRACT: note_on channel=0 note=84 velocity=0 time=0
EXTRACT: note_on channel=4 note=60 velocity=0 time=0
EXTRACT: note_on channel=4 note=57 velocity=0 time=0
EXTRACT: note_on channel=4 note=65 velocity=0 time=0
EXTRACT: note_on channel=4 note=43 velocity=55 time=0
EXTRACT: note_on channel=5 note=70 velocity=0 time=0
EXTRACT: note_on channel=5 note=65 velocity=0 time=0
EXTRACT: note_on channel=6 note=67 velocity=62 time=0
EXTRACT: note_on channel=7 note=43 velocity=71 time=0
EXTRACT: note_on channel=9 note=36 velocity=113 time=0
EXTRACT: note_on channel=9 note=46 velocity=80 time=0
EXTRACT: note_on channel=0 note=60 velocity=0 time=0.0057471250000000005
EXTRACT: note_on channel=0 note=70 velocity=109 time=0
EXTRACT: note_on channel=0 note=82 velocity=109 time=0
EXTRACT: note_on channel=5 note=62 velocity=65 time=0
EXTRACT: note_on channel=9 note=46 velocity=0 time=0
EXTRACT: note_on channel=9 note=36 velocity=0 time=0
EXTRACT: note_on channel=0 note=72 velocity=0 time=0.0057471250000000005
EXTRACT: note_on channel=5 note=67 velocity=74 time=0
EXTRACT: note_on channel=5 note=70 velocity=65 time=0
EXTRACT: note_on channel=4 note=58 velocity=68 time=0.0057471250000000005
EXTRACT: note_on channel=4 note=62 velocity=68 time=0
EXTRACT: note_on channel=4 note=67 velocity=63 time=0
EXTRACT: note_on channel=4 note=55 velocity=62 time=0
EXTRACT: note_on channel=8 note=84 velocity=0 time=0
EXTRACT: note_on channel=4 note=43 velocity=0 time=0.316091875
EXTRACT: note_on channel=5 note=62 velocity=0 time=0.0057471250000000005
EXTRACT: note_on channel=4 note=43 velocity=55 time=0.0057471250000000005
EXTRACT: note_on channel=5 note=70 velocity=0 time=0
EXTRACT: note_on channel=5 note=67 velocity=0 time=0
EXTRACT: note_on channel=9 note=28 velocity=73 time=0
EXTRACT: note_on channel=4 note=67 velocity=0 time=0.0057471250000000005
EXTRACT: note_on channel=4 note=55 velocity=0 time=0
EXTRACT: note_on channel=4 note=58 velocity=0 time=0
EXTRACT: note_on channel=4 note=62 velocity=0 time=0
EXTRACT: note_on channel=9 note=28 velocity=0 time=0
EXTRACT: note_on channel=6 note=62 velocity=56 time=0.0057471250000000005
EXTRACT: note_on channel=4 note=58 velocity=62 time=0.0057471250000000005
EXTRACT: note_on channel=4 note=55 velocity=59 time=0
EXTRACT: note_on channel=4 note=67 velocity=58 time=0
EXTRACT: note_on channel=4 note=62 velocity=64 time=0
EXTRACT: note_on channel=5 note=67 velocity=59 time=0
EXTRACT: note_on channel=5 note=62 velocity=58 time=0
EXTRACT: note_on channel=5 note=70 velocity=58 time=0
EXTRACT: note_on channel=6 note=67 velocity=0 time=0.31034475
EXTRACT: note_on channel=4 note=43 velocity=0 time=0.0057471250000000005
EXTRACT: note_on channel=4 note=43 velocity=55 time=0.011494250000000001
EXTRACT: note_on channel=4 note=67 velocity=0 time=0.0057471250000000005
EXTRACT: note_on channel=4 note=62 velocity=0 time=0
EXTRACT: note_on channel=4 note=58 velocity=0 time=0
EXTRACT: note_on channel=4 note=55 velocity=0 time=0
EXTRACT: note_on channel=5 note=70 velocity=0 time=0
EXTRACT: note_on channel=5 note=62 velocity=0 time=0
EXTRACT: note_on channel=5 note=67 velocity=0 time=0
EXTRACT: note_on channel=3 note=58 velocity=0 time=0.0057471250000000005
EXTRACT: note_on channel=6 note=67 velocity=64 time=0
EXTRACT: note_on channel=4 note=58 velocity=67 time=0.0057471250000000005
EXTRACT: note_on channel=4 note=55 velocity=65 time=0
EXTRACT: note_on channel=4 note=62 velocity=69 time=0
EXTRACT: note_on channel=4 note=67 velocity=61 time=0
EXTRACT: note_on channel=5 note=62 velocity=63 time=0
EXTRACT: note_on channel=5 note=67 velocity=70 time=0
EXTRACT: note_on channel=5 note=70 velocity=63 time=0
EXTRACT: note_on channel=9 note=28 velocity=68 time=0.155172375
EXTRACT: note_on channel=9 note=28 velocity=0 time=0.0057471250000000005
EXTRACT: note_on channel=4 note=43 velocity=0 time=0.155172375
EXTRACT: note_on channel=4 note=43 velocity=55 time=0.011494250000000001
EXTRACT: note_on channel=4 note=62 velocity=0 time=0.0057471250000000005
EXTRACT: note_on channel=4 note=67 velocity=0 time=0
EXTRACT: note_on channel=4 note=58 velocity=0 time=0
EXTRACT: note_on channel=4 note=55 velocity=0 time=0
EXTRACT: note_on channel=5 note=70 velocity=0 time=0
EXTRACT: note_on channel=5 note=67 velocity=0 time=0
EXTRACT: note_on channel=5 note=62 velocity=0 time=0
EXTRACT: note_on channel=6 note=65 velocity=55 time=0.0057471250000000005
EXTRACT: note_on channel=4 note=58 velocity=60 time=0.0057471250000000005
EXTRACT: note_on channel=4 note=62 velocity=63 time=0
EXTRACT: note_on channel=4 note=55 velocity=58 time=0
EXTRACT: note_on channel=4 note=67 velocity=54 time=0
EXTRACT: note_on channel=5 note=67 velocity=59 time=0
EXTRACT: note_on channel=5 note=62 velocity=58 time=0
EXTRACT: note_on channel=5 note=70 velocity=57 time=0
EXTRACT: note_on channel=4 note=43 velocity=0 time=0.14367812500000002
EXTRACT: note_on channel=4 note=43 velocity=55 time=0.011494250000000001
EXTRACT: note_on channel=4 note=55 velocity=0 time=0.0057471250000000005
EXTRACT: note_on channel=4 note=67 velocity=0 time=0
EXTRACT: note_on channel=4 note=58 velocity=0 time=0
EXTRACT: note_on channel=4 note=62 velocity=0 time=0
EXTRACT: note_on channel=5 note=70 velocity=0 time=0
EXTRACT: note_on channel=5 note=62 velocity=0 time=0
EXTRACT: note_on channel=5 note=67 velocity=0 time=0
EXTRACT: note_on channel=4 note=58 velocity=71 time=0.011494250000000001
EXTRACT: note_on channel=4 note=55 velocity=63 time=0
EXTRACT: note_on channel=4 note=62 velocity=71 time=0
EXTRACT: note_on channel=4 note=67 velocity=63 time=0
EXTRACT: note_on channel=5 note=62 velocity=63 time=0
EXTRACT: note_on channel=5 note=67 velocity=69 time=0
EXTRACT: note_on channel=5 note=70 velocity=63 time=0
EXTRACT: note_on channel=6 note=67 velocity=0 time=0.09770112500000001
EXTRACT: note_on channel=9 note=28 velocity=83 time=0.05747125
EXTRACT: note_on channel=9 note=28 velocity=0 time=0.0057471250000000005
EXTRACT: note_on channel=6 note=67 velocity=62 time=0.0057471250000000005
EXTRACT: note_on channel=4 note=43 velocity=0 time=0.14942525
EXTRACT: note_on channel=4 note=43 velocity=55 time=0.011494250000000001
EXTRACT: note_on channel=9 note=28 velocity=64 time=0
EXTRACT: note_on channel=4 note=62 velocity=0 time=0.0057471250000000005
EXTRACT: note_on channel=4 note=67 velocity=0 time=0
EXTRACT: note_on channel=4 note=58 velocity=0 time=0
EXTRACT: note_on channel=4 note=55 velocity=0 time=0
EXTRACT: note_on channel=5 note=70 velocity=0 time=0
EXTRACT: note_on channel=5 note=67 velocity=0 time=0
EXTRACT: note_on channel=5 note=62 velocity=0 time=0
EXTRACT: note_on channel=9 note=28 velocity=0 time=0
EXTRACT: note_on channel=4 note=58 velocity=63 time=0.011494250000000001
EXTRACT: note_on channel=4 note=62 velocity=64 time=0
EXTRACT: note_on channel=4 note=55 velocity=60 time=0
EXTRACT: note_on channel=4 note=67 velocity=58 time=0
EXTRACT: note_on channel=5 note=62 velocity=57 time=0
EXTRACT: note_on channel=5 note=67 velocity=59 time=0
EXTRACT: note_on channel=5 note=70 velocity=58 time=0
EXTRACT: note_on channel=6 note=62 velocity=0 time=0.1149425
EXTRACT: note_on channel=4 note=43 velocity=0 time=0.028735625
EXTRACT: note_on channel=4 note=43 velocity=55 time=0.011494250000000001
EXTRACT: note_on channel=9 note=28 velocity=64 time=0
EXTRACT: note_on channel=0 note=62 velocity=95 time=0.0057471250000000005
EXTRACT: note_on channel=4 note=55 velocity=0 time=0
EXTRACT: note_on channel=4 note=67 velocity=0 time=0
EXTRACT: note_on channel=4 note=58 velocity=0 time=0
EXTRACT: note_on channel=4 note=62 velocity=0 time=0
EXTRACT: note_on channel=5 note=70 velocity=0 time=0
EXTRACT: note_on channel=5 note=67 velocity=0 time=0
EXTRACT: note_on channel=5 note=62 velocity=0 time=0
EXTRACT: note_on channel=9 note=28 velocity=0 time=0
EXTRACT: note_on channel=6 note=62 velocity=53 time=0.0057471250000000005
EXTRACT: note_on channel=4 note=58 velocity=65 time=0.0057471250000000005
EXTRACT: note_on channel=4 note=55 velocity=58 time=0
EXTRACT: note_on channel=4 note=62 velocity=71 time=0
EXTRACT: note_on channel=4 note=67 velocity=60 time=0
EXTRACT: note_on channel=5 note=62 velocity=59 time=0
EXTRACT: note_on channel=5 note=67 velocity=67 time=0
EXTRACT: note_on channel=5 note=70 velocity=65 time=0
EXTRACT: note_on channel=6 note=67 velocity=0 time=0.2988505
EXTRACT: note_on channel=4 note=43 velocity=0 time=0.017241375000000003
EXTRACT: note_on channel=4 note=43 velocity=55 time=0.011494250000000001
EXTRACT: note_on channel=0 note=67 velocity=104 time=0.0057471250000000005
EXTRACT: note_on channel=4 note=62 velocity=0 time=0
EXTRACT: note_on channel=4 note=67 velocity=0 time=0
EXTRACT: note_on channel=4 note=58 velocity=0 time=0
EXTRACT: note_on channel=4 note=55 velocity=0 time=0
EXTRACT: note_on channel=5 note=70 velocity=0 time=0
EXTRACT: note_on channel=5 note=67 velocity=0 time=0
EXTRACT: note_on channel=5 note=62 velocity=0 time=0
EXTRACT: note_on channel=6 note=67 velocity=64 time=0.0057471250000000005
EXTRACT: note_on channel=4 note=58 velocity=70 time=0.0057471250000000005
EXTRACT: note_on channel=4 note=55 velocity=63 time=0
EXTRACT: note_on channel=4 note=62 velocity=69 time=0
EXTRACT: note_on channel=4 note=67 velocity=63 time=0
EXTRACT: note_on channel=5 note=67 velocity=69 time=0
EXTRACT: note_on channel=5 note=62 velocity=65 time=0
EXTRACT: note_on channel=5 note=70 velocity=66 time=0
EXTRACT: note_on channel=6 note=65 velocity=0 time=0
EXTRACT: note_on channel=4 note=43 velocity=0 time=0.14367812500000002
EXTRACT: note_on channel=4 note=43 velocity=55 time=0.011494250000000001
EXTRACT: note_on channel=4 note=62 velocity=0 time=0.0057471250000000005
EXTRACT: note_on channel=4 note=67 velocity=0 time=0
EXTRACT: note_on channel=4 note=58 velocity=0 time=0
EXTRACT: note_on channel=4 note=55 velocity=0 time=0
EXTRACT: note_on channel=5 note=70 velocity=0 time=0
EXTRACT: note_on channel=5 note=62 velocity=0 time=0
EXTRACT: note_on channel=5 note=67 velocity=0 time=0
EXTRACT: note_on channel=4 note=58 velocity=65 time=0.011494250000000001
EXTRACT: note_on channel=4 note=62 velocity=67 time=0
EXTRACT: note_on channel=4 note=55 velocity=57 time=0
EXTRACT: note_on channel=4 note=67 velocity=58 time=0
EXTRACT: note_on channel=5 note=62 velocity=48 time=0
EXTRACT: note_on channel=5 note=67 velocity=66 time=0
EXTRACT: note_on channel=5 note=70 velocity=63 time=0
EXTRACT: note_on channel=0 note=62 velocity=0 time=0.06321837500000001
EXTRACT: note_on channel=4 note=43 velocity=0 time=0.08045975000000001
EXTRACT: note_on channel=4 note=43 velocity=55 time=0.011494250000000001
EXTRACT: note_on channel=0 note=62 velocity=97 time=0.0057471250000000005
EXTRACT: note_on channel=4 note=55 velocity=0 time=0
EXTRACT: note_on channel=4 note=67 velocity=0 time=0
EXTRACT: note_on channel=4 note=58 velocity=0 time=0
EXTRACT: note_on channel=4 note=62 velocity=0 time=0
EXTRACT: note_on channel=5 note=70 velocity=0 time=0
EXTRACT: note_on channel=5 note=67 velocity=0 time=0
EXTRACT: note_on channel=5 note=62 velocity=0 time=0
EXTRACT: note_on channel=6 note=65 velocity=58 time=0.0057471250000000005
EXTRACT: note_on channel=4 note=58 velocity=68 time=0.0057471250000000005
EXTRACT: note_on channel=4 note=55 velocity=63 time=0
EXTRACT: note_on channel=4 note=62 velocity=69 time=0
EXTRACT: note_on channel=4 note=67 velocity=61 time=0
EXTRACT: note_on channel=5 note=62 velocity=55 time=0
EXTRACT: note_on channel=5 note=67 velocity=67 time=0
EXTRACT: note_on channel=5 note=70 velocity=63 time=0
EXTRACT: pitchwheel channel=7 pitch=-128 time=0.1149425
EXTRACT: pitchwheel channel=7 pitch=-256 time=0.0057471250000000005
EXTRACT: pitchwheel channel=7 pitch=-384 time=0.0057471250000000005
EXTRACT: pitchwheel channel=7 pitch=-512 time=0.0057471250000000005
EXTRACT: pitchwheel channel=7 pitch=-640 time=0.0057471250000000005
EXTRACT: note_on channel=4 note=43 velocity=0 time=0.0057471250000000005
EXTRACT: pitchwheel channel=7 pitch=-768 time=0
EXTRACT: pitchwheel channel=7 pitch=-896 time=0.0057471250000000005
EXTRACT: note_on channel=4 note=43 velocity=55 time=0.0057471250000000005
EXTRACT: pitchwheel channel=7 pitch=-1152 time=0
EXTRACT: note_on channel=4 note=62 velocity=0 time=0.0057471250000000005
EXTRACT: note_on channel=4 note=67 velocity=0 time=0
EXTRACT: note_on channel=4 note=58 velocity=0 time=0
EXTRACT: note_on channel=4 note=55 velocity=0 time=0
EXTRACT: note_on channel=5 note=70 velocity=0 time=0
EXTRACT: note_on channel=5 note=67 velocity=0 time=0
EXTRACT: note_on channel=5 note=62 velocity=0 time=0
EXTRACT: pitchwheel channel=7 pitch=-1408 time=0
EXTRACT: pitchwheel channel=7 pitch=-1664 time=0.0057471250000000005
EXTRACT: note_on channel=4 note=58 velocity=59 time=0.0057471250000000005
EXTRACT: note_on channel=4 note=67 velocity=59 time=0
EXTRACT: note_on channel=4 note=55 velocity=59 time=0
EXTRACT: note_on channel=4 note=62 velocity=59 time=0
EXTRACT: note_on channel=5 note=62 velocity=63 time=0
EXTRACT: note_on channel=5 note=67 velocity=63 time=0
EXTRACT: note_on channel=5 note=70 velocity=63 time=0
EXTRACT: pitchwheel channel=7 pitch=-1792 time=0
EXTRACT: pitchwheel channel=7 pitch=-2048 time=0.0057471250000000005
EXTRACT: pitchwheel channel=7 pitch=-2304 time=0.0057471250000000005
EXTRACT: pitchwheel channel=7 pitch=-2432 time=0.0057471250000000005
EXTRACT: pitchwheel channel=7 pitch=-2688 time=0.0057471250000000005
EXTRACT: pitchwheel channel=7 pitch=-3072 time=0.0057471250000000005
EXTRACT: pitchwheel channel=7 pitch=-3200 time=0.0057471250000000005
EXTRACT: pitchwheel channel=7 pitch=-3328 time=0.0057471250000000005
EXTRACT: pitchwheel channel=7 pitch=-3584 time=0.0057471250000000005
EXTRACT: pitchwheel channel=7 pitch=-3840 time=0.0057471250000000005
EXTRACT: pitchwheel channel=7 pitch=-4096 time=0.0057471250000000005
EXTRACT: note_on channel=2 note=31 velocity=0 time=0.0057471250000000005
EXTRACT: pitchwheel channel=7 pitch=-4224 time=0
EXTRACT: pitchwheel channel=7 pitch=-4480 time=0.0057471250000000005
EXTRACT: pitchwheel channel=7 pitch=-4608 time=0.0057471250000000005
EXTRACT: pitchwheel channel=7 pitch=-4864 time=0.0057471250000000005
EXTRACT: pitchwheel channel=7 pitch=-4992 time=0.0057471250000000005
EXTRACT: note_on channel=6 note=62 velocity=0 time=0.0057471250000000005
EXTRACT: pitchwheel channel=7 pitch=-5120 time=0
EXTRACT: pitchwheel channel=7 pitch=-5248 time=0.0057471250000000005
EXTRACT: note_on channel=0 note=82 velocity=0 time=0.0057471250000000005
EXTRACT: pitchwheel channel=7 pitch=-5504 time=0
EXTRACT: note_on channel=0 note=70 velocity=0 time=0.0057471250000000005
EXTRACT: pitchwheel channel=7 pitch=-5632 time=0
EXTRACT: pitchwheel channel=7 pitch=-5760 time=0.0057471250000000005
EXTRACT: pitchwheel channel=7 pitch=-5888 time=0.0057471250000000005
EXTRACT: note_on channel=6 note=67 velocity=0 time=0.011494250000000001
EXTRACT: pitchwheel channel=7 pitch=-6016 time=0
EXTRACT: note_on channel=4 note=43 velocity=0 time=0.011494250000000001
EXTRACT: pitchwheel channel=7 pitch=-5888 time=0
EXTRACT: pitchwheel channel=7 pitch=-5760 time=0.0057471250000000005
EXTRACT: note_on channel=2 note=27 velocity=92 time=0.0057471250000000005
EXTRACT: note_on channel=4 note=39 velocity=55 time=0
EXTRACT: note_on channel=6 note=67 velocity=62 time=0
EXTRACT: note_on channel=7 note=43 velocity=0 time=0
EXTRACT: pitchwheel channel=7 pitch=-4736 time=0
EXTRACT: note_on channel=9 note=36 velocity=114 time=0
EXTRACT: note_on channel=9 note=46 velocity=81 time=0
EXTRACT: note_on channel=0 note=63 velocity=104 time=0.0057471250000000005
EXTRACT: note_on channel=4 note=55 velocity=0 time=0
EXTRACT: note_on channel=4 note=62 velocity=0 time=0
EXTRACT: note_on channel=4 note=58 velocity=0 time=0
EXTRACT: note_on channel=4 note=67 velocity=0 time=0
EXTRACT: note_on channel=5 note=70 velocity=0 time=0
EXTRACT: note_on channel=5 note=67 velocity=0 time=0
EXTRACT: note_on channel=5 note=62 velocity=0 time=0
EXTRACT: note_on channel=6 note=65 velocity=0 time=0
EXTRACT: pitchwheel channel=7 pitch=-3968 time=0
EXTRACT: note_on channel=9 note=46 velocity=0 time=0
EXTRACT: note_on channel=9 note=36 velocity=0 time=0
EXTRACT: note_on channel=5 note=70 velocity=65 time=0.0057471250000000005
EXTRACT: pitchwheel channel=7 pitch=-2432 time=0
EXTRACT: note_on channel=7 note=39 velocity=72 time=0
EXTRACT: note_on channel=0 note=62 velocity=0 time=0.0057471250000000005
EXTRACT: note_on channel=4 note=63 velocity=64 time=0
EXTRACT: note_on channel=4 note=67 velocity=63 time=0
EXTRACT: note_on channel=4 note=58 velocity=65 time=0
EXTRACT: note_on channel=4 note=55 velocity=64 time=0
EXTRACT: note_on channel=5 note=67 velocity=74 time=0
EXTRACT: pitchwheel channel=7 pitch=-384 time=0
EXTRACT: pitchwheel channel=7 pitch=-896 time=0
EXTRACT: pitchwheel channel=7 pitch=0 time=0.0057471250000000005
EXTRACT: note_on channel=4 note=39 velocity=0 time=0.31034475
EXTRACT: note_on channel=4 note=39 velocity=55 time=0.011494250000000001
EXTRACT: note_on channel=5 note=70 velocity=0 time=0
EXTRACT: note_on channel=9 note=28 velocity=72 time=0
EXTRACT: note_on channel=4 note=58 velocity=0 time=0.0057471250000000005
EXTRACT: note_on channel=4 note=55 velocity=0 time=0
EXTRACT: note_on channel=4 note=63 velocity=0 time=0
EXTRACT: note_on channel=4 note=67 velocity=0 time=0
EXTRACT: note_on channel=5 note=67 velocity=0 time=0
EXTRACT: note_on channel=9 note=28 velocity=0 time=0
EXTRACT: note_on channel=6 note=63 velocity=56 time=0.0057471250000000005
EXTRACT: note_on channel=4 note=58 velocity=61 time=0.0057471250000000005
EXTRACT: note_on channel=4 note=63 velocity=63 time=0
EXTRACT: note_on channel=4 note=55 velocity=58 time=0
EXTRACT: note_on channel=4 note=67 velocity=56 time=0
EXTRACT: note_on channel=5 note=67 velocity=73 time=0
EXTRACT: note_on channel=5 note=70 velocity=63 time=0
EXTRACT: note_on channel=0 note=67 velocity=0 time=0.12068962500000001
EXTRACT: note_on channel=2 note=27 velocity=0 time=0.09770112500000001
EXTRACT: note_on channel=6 note=67 velocity=0 time=0.09195400000000001
EXTRACT: note_on channel=4 note=39 velocity=0 time=0.0057471250000000005
EXTRACT: note_on channel=4 note=39 velocity=55 time=0.011494250000000001
EXTRACT: note_on channel=4 note=55 velocity=0 time=0.0057471250000000005
EXTRACT: note_on channel=4 note=67 velocity=0 time=0
EXTRACT: note_on channel=4 note=58 velocity=0 time=0
EXTRACT: note_on channel=4 note=63 velocity=0 time=0
EXTRACT: note_on channel=5 note=70 velocity=0 time=0
EXTRACT: note_on channel=5 note=67 velocity=0 time=0
EXTRACT: note_on channel=6 note=67 velocity=64 time=0.0057471250000000005
EXTRACT: note_on channel=4 note=58 velocity=65 time=0.0057471250000000005
EXTRACT: note_on channel=4 note=67 velocity=65 time=0
EXTRACT: note_on channel=4 note=63 velocity=67 time=0
EXTRACT: note_on channel=4 note=55 velocity=62 time=0
EXTRACT: note_on channel=5 note=67 velocity=74 time=0
EXTRACT: note_on channel=5 note=70 velocity=76 time=0
EXTRACT: note_on channel=9 note=28 velocity=65 time=0.155172375
EXTRACT: note_on channel=9 note=28 velocity=0 time=0.0057471250000000005
EXTRACT: note_on channel=4 note=39 velocity=0 time=0.155172375
EXTRACT: note_on channel=5 note=67 velocity=0 time=0.0057471250000000005
EXTRACT: note_on channel=4 note=39 velocity=55 time=0.0057471250000000005
EXTRACT: note_on channel=4 note=63 velocity=0 time=0.0057471250000000005
EXTRACT: note_on channel=4 note=55 velocity=0 time=0
EXTRACT: note_on channel=4 note=58 velocity=0 time=0
EXTRACT: note_on channel=4 note=67 velocity=0 time=0
EXTRACT: note_on channel=5 note=70 velocity=0 time=0
EXTRACT: note_on channel=6 note=65 velocity=55 time=0.0057471250000000005
EXTRACT: note_on channel=4 note=58 velocity=59 time=0.0057471250000000005
EXTRACT: note_on channel=4 note=63 velocity=61 time=0
EXTRACT: note_on channel=4 note=67 velocity=58 time=0
EXTRACT: note_on channel=4 note=55 velocity=57 time=0
EXTRACT: note_on channel=5 note=67 velocity=67 time=0
EXTRACT: note_on channel=5 note=70 velocity=67 time=0
EXTRACT: note_on channel=4 note=39 velocity=0 time=0.14367812500000002
EXTRACT: note_on channel=3 note=58 velocity=104 time=0
EXTRACT: note_on channel=4 note=39 velocity=55 time=0
EXTRACT: note_on channel=4 note=67 velocity=0 time=0.0057471250000000005
EXTRACT: note_on channel=4 note=55 velocity=0 time=0
EXTRACT: note_on channel=4 note=58 velocity=0 time=0
EXTRACT: note_on channel=4 note=63 velocity=0 time=0
EXTRACT: note_on channel=5 note=70 velocity=0 time=0
EXTRACT: note_on channel=5 note=67 velocity=0 time=0
EXTRACT: note_on channel=4 note=58 velocity=67 time=0.011494250000000001
EXTRACT: note_on channel=4 note=55 velocity=61 time=0
EXTRACT: note_on channel=4 note=63 velocity=65 time=0
EXTRACT: note_on channel=4 note=67 velocity=59 time=0
EXTRACT: note_on channel=5 note=70 velocity=75 time=0
EXTRACT: note_on channel=5 note=67 velocity=75 time=0
EXTRACT: note_on channel=6 note=67 velocity=0 time=0.09770112500000001
EXTRACT: note_on channel=3 note=58 velocity=0 time=0.022988500000000002
EXTRACT: note_on channel=3 note=63 velocity=112 time=0
EXTRACT: note_on channel=9 note=28 velocity=81 time=0.0057471250000000005
EXTRACT: note_on channel=0 note=67 velocity=98 time=0.0057471250000000005
EXTRACT: note_on channel=9 note=28 velocity=0 time=0
EXTRACT: note_on channel=6 note=67 velocity=62 time=0.0057471250000000005
EXTRACT: note_on channel=4 note=39 velocity=0 time=0.14942525
EXTRACT: note_on channel=4 note=39 velocity=55 time=0.011494250000000001
EXTRACT: note_on channel=9 note=28 velocity=60 time=0
EXTRACT: note_on channel=4 note=63 velocity=0 time=0.0057471250000000005
EXTRACT: note_on channel=4 note=67 velocity=0 time=0
EXTRACT: note_on channel=4 note=58 velocity=0 time=0
EXTRACT: note_on channel=4 note=55 velocity=0 time=0
EXTRACT: note_on channel=5 note=67 velocity=0 time=0
EXTRACT: note_on channel=5 note=70 velocity=0 time=0
EXTRACT: note_on channel=9 note=28 velocity=0 time=0
EXTRACT: note_on channel=4 note=58 velocity=61 time=0.011494250000000001
EXTRACT: note_on channel=4 note=67 velocity=59 time=0
EXTRACT: note_on channel=4 note=63 velocity=61 time=0
EXTRACT: note_on channel=4 note=55 velocity=58 time=0
EXTRACT: note_on channel=5 note=67 velocity=70 time=0
EXTRACT: note_on channel=5 note=70 velocity=67 time=0
EXTRACT: note_on channel=0 note=63 velocity=0 time=0.028735625
EXTRACT: note_on channel=3 note=63 velocity=0 time=0.06896550000000001
EXTRACT: note_on channel=6 note=63 velocity=0 time=0.017241375000000003
EXTRACT: note_on channel=4 note=39 velocity=0 time=0.028735625
EXTRACT: note_on channel=4 note=39 velocity=55 time=0.011494250000000001
EXTRACT: note_on channel=9 note=28 velocity=58 time=0
EXTRACT: note_on channel=3 note=62 velocity=101 time=0
EXTRACT: note_on channel=4 note=63 velocity=0 time=0
EXTRACT: note_on channel=4 note=55 velocity=0 time=0
EXTRACT: note_on channel=4 note=58 velocity=0 time=0
EXTRACT: note_on channel=4 note=67 velocity=0 time=0
EXTRACT: note_on channel=5 note=70 velocity=0 time=0
EXTRACT: note_on channel=5 note=67 velocity=0 time=0
EXTRACT: note_on channel=9 note=28 velocity=0 time=0
EXTRACT: note_on channel=6 note=63 velocity=53 time=0.0057471250000000005
EXTRACT: note_on channel=4 note=58 velocity=68 time=0.0057471250000000005
EXTRACT: note_on channel=4 note=67 velocity=65 time=0
EXTRACT: note_on channel=4 note=63 velocity=68 time=0
EXTRACT: note_on channel=4 note=55 velocity=60 time=0
EXTRACT: note_on channel=5 note=67 velocity=81 time=0
EXTRACT: note_on channel=5 note=70 velocity=74 time=0
EXTRACT: note_on channel=3 note=62 velocity=0 time=0.13793100000000003
EXTRACT: note_on channel=3 note=62 velocity=113 time=0
EXTRACT: note_on channel=6 note=67 velocity=0 time=0.13793100000000003
EXTRACT: note_on channel=4 note=39 velocity=0 time=0.017241375000000003
EXTRACT: note_on channel=0 note=63 velocity=104 time=0.0057471250000000005
EXTRACT: note_on channel=4 note=39 velocity=55 time=0.0057471250000000005
EXTRACT: note_on channel=4 note=63 velocity=0 time=0.0057471250000000005
EXTRACT: note_on channel=4 note=55 velocity=0 time=0
EXTRACT: note_on channel=4 note=58 velocity=0 time=0
EXTRACT: note_on channel=4 note=67 velocity=0 time=0
EXTRACT: note_on channel=5 note=70 velocity=0 time=0
EXTRACT: note_on channel=5 note=67 velocity=0 time=0
EXTRACT: note_on channel=6 note=67 velocity=64 time=0.0057471250000000005
EXTRACT: note_on channel=4 note=67 velocity=65 time=0.0057471250000000005
EXTRACT: note_on channel=4 note=58 velocity=69 time=0
EXTRACT: note_on channel=4 note=63 velocity=69 time=0
EXTRACT: note_on channel=4 note=55 velocity=63 time=0
EXTRACT: note_on channel=5 note=70 velocity=66 time=0
EXTRACT: note_on channel=5 note=67 velocity=66 time=0
EXTRACT: note_on channel=6 note=65 velocity=0 time=0
EXTRACT: note_on channel=4 note=39 velocity=0 time=0.14367812500000002
EXTRACT: note_on channel=4 note=39 velocity=55 time=0.011494250000000001
EXTRACT: note_on channel=4 note=63 velocity=0 time=0.0057471250000000005
EXTRACT: note_on channel=4 note=55 velocity=0 time=0
EXTRACT: note_on channel=4 note=67 velocity=0 time=0
EXTRACT: note_on channel=4 note=58 velocity=0 time=0
EXTRACT: note_on channel=5 note=67 velocity=0 time=0
EXTRACT: note_on channel=5 note=70 velocity=0 time=0
EXTRACT: note_on channel=4 note=58 velocity=67 time=0.011494250000000001
EXTRACT: note_on channel=4 note=63 velocity=67 time=0
EXTRACT: note_on channel=4 note=67 velocity=60 time=0
EXTRACT: note_on channel=4 note=55 velocity=61 time=0
EXTRACT: note_on channel=5 note=67 velocity=64 time=0
EXTRACT: note_on channel=5 note=70 velocity=69 time=0
EXTRACT: pitchwheel channel=7 pitch=-128 time=0.09195400000000001
EXTRACT: note_on channel=3 note=62 velocity=0 time=0.017241375000000003
EXTRACT: pitchwheel channel=7 pitch=-256 time=0
EXTRACT: pitchwheel channel=7 pitch=-384 time=0.011494250000000001
EXTRACT: pitchwheel channel=7 pitch=-512 time=0.017241375000000003
EXTRACT: note_on channel=4 note=39 velocity=0 time=0.0057471250000000005
EXTRACT: note_on channel=3 note=58 velocity=98 time=0
EXTRACT: note_on channel=0 note=62 velocity=95 time=0
EXTRACT: pitchwheel channel=7 pitch=-640 time=0
EXTRACT: note_on channel=4 note=39 velocity=55 time=0.0057471250000000005
EXTRACT: note_on channel=4 note=67 velocity=0 time=0.0057471250000000005
EXTRACT: note_on channel=4 note=55 velocity=0 time=0
EXTRACT: note_on channel=4 note=58 velocity=0 time=0
EXTRACT: note_on channel=4 note=63 velocity=0 time=0
EXTRACT: note_on channel=5 note=70 velocity=0 time=0
EXTRACT: note_on channel=5 note=67 velocity=0 time=0
EXTRACT: note_on channel=6 note=65 velocity=58 time=0.0057471250000000005
EXTRACT: pitchwheel channel=7 pitch=-768 time=0
EXTRACT: note_on channel=4 note=58 velocity=66 time=0.0057471250000000005
EXTRACT: note_on channel=4 note=67 velocity=60 time=0
EXTRACT: note_on channel=4 note=63 velocity=69 time=0
EXTRACT: note_on channel=4 note=55 velocity=60 time=0
EXTRACT: note_on channel=5 note=67 velocity=70 time=0
EXTRACT: note_on channel=5 note=70 velocity=68 time=0
EXTRACT: pitchwheel channel=7 pitch=-896 time=0.0057471250000000005
EXTRACT: pitchwheel channel=7 pitch=-1024 time=0.011494250000000001
EXTRACT: pitchwheel channel=7 pitch=-1152 time=0.011494250000000001
EXTRACT: pitchwheel channel=7 pitch=-1280 time=0.0057471250000000005
EXTRACT: pitchwheel channel=7 pitch=-1408 time=0.017241375000000003
EXTRACT: pitchwheel channel=7 pitch=-1536 time=0.0057471250000000005
EXTRACT: pitchwheel channel=7 pitch=-1664 time=0.011494250000000001
EXTRACT: pitchwheel channel=7 pitch=-1792 time=0.011494250000000001
EXTRACT: pitchwheel channel=7 pitch=-1920 time=0.0057471250000000005
EXTRACT: pitchwheel channel=7 pitch=-2048 time=0.011494250000000001
EXTRACT: pitchwheel channel=7 pitch=-2176 time=0.011494250000000001
EXTRACT: pitchwheel channel=7 pitch=-2304 time=0.0057471250000000005
EXTRACT: note_on channel=3 note=58 velocity=0 time=0.011494250000000001
EXTRACT: pitchwheel channel=7 pitch=-2432 time=0
EXTRACT: pitchwheel channel=7 pitch=-2560 time=0.0057471250000000005
EXTRACT: note_on channel=4 note=39 velocity=0 time=0.011494250000000001
EXTRACT: pitchwheel channel=7 pitch=-2688 time=0
EXTRACT: pitchwheel channel=7 pitch=-2816 time=0.0057471250000000005
EXTRACT: note_on channel=4 note=39 velocity=55 time=0.0057471250000000005
EXTRACT: note_on channel=3 note=58 velocity=107 time=0
EXTRACT: note_on channel=4 note=63 velocity=0 time=0
EXTRACT: note_on channel=4 note=55 velocity=0 time=0
EXTRACT: note_on channel=4 note=58 velocity=0 time=0
EXTRACT: note_on channel=4 note=67 velocity=0 time=0
EXTRACT: note_on channel=5 note=70 velocity=0 time=0
EXTRACT: note_on channel=5 note=67 velocity=0 time=0
EXTRACT: pitchwheel channel=7 pitch=-3072 time=0
EXTRACT: note_on channel=4 note=67 velocity=57 time=0.011494250000000001
EXTRACT: note_on channel=4 note=58 velocity=57 time=0
EXTRACT: note_on channel=4 note=55 velocity=57 time=0
EXTRACT: note_on channel=4 note=63 velocity=57 time=0
EXTRACT: note_on channel=5 note=67 velocity=63 time=0
EXTRACT: note_on channel=5 note=70 velocity=63 time=0
EXTRACT: pitchwheel channel=7 pitch=-3200 time=0
EXTRACT: pitchwheel channel=7 pitch=-3328 time=0.0057471250000000005
EXTRACT: pitchwheel channel=7 pitch=-3456 time=0.011494250000000001
EXTRACT: pitchwheel channel=7 pitch=-3584 time=0.0057471250000000005
EXTRACT: pitchwheel channel=7 pitch=-3712 time=0.0057471250000000005
EXTRACT: pitchwheel channel=7 pitch=-3840 time=0.0057471250000000005
EXTRACT: pitchwheel channel=7 pitch=-3840 time=0.017241375000000003
EXTRACT: pitchwheel channel=7 pitch=-3584 time=0.0057471250000000005
EXTRACT: pitchwheel channel=7 pitch=-2816 time=0.0057471250000000005
EXTRACT: pitchwheel channel=7 pitch=-1792 time=0.0057471250000000005
EXTRACT: pitchwheel channel=7 pitch=-1024 time=0.0057471250000000005
EXTRACT: pitchwheel channel=7 pitch=0 time=0.0057471250000000005
EXTRACT: note_on channel=0 note=62 velocity=0 time=0.011494250000000001
EXTRACT: note_on channel=6 note=63 velocity=0 time=0
EXTRACT: note_on channel=6 note=67 velocity=0 time=0.040229875000000005
EXTRACT: note_on channel=6 note=65 velocity=0 time=0.0057471250000000005
EXTRACT: note_on channel=7 note=39 velocity=0 time=0
EXTRACT: note_on channel=4 note=39 velocity=0 time=0.0057471250000000005
EXTRACT: note_on channel=2 note=34 velocity=93 time=0.011494250000000001
EXTRACT: note_on channel=4 note=46 velocity=55 time=0
EXTRACT: note_on channel=6 note=67 velocity=62 time=0
EXTRACT: note_on channel=9 note=36 velocity=113 time=0
EXTRACT: note_on channel=9 note=46 velocity=80 time=0
EXTRACT: note_on channel=0 note=62 velocity=108 time=0.0057471250000000005
EXTRACT: note_on channel=4 note=55 velocity=0 time=0
EXTRACT: note_on channel=4 note=63 velocity=0 time=0
EXTRACT: note_on channel=4 note=67 velocity=0 time=0
EXTRACT: note_on channel=4 note=58 velocity=0 time=0
EXTRACT: note_on channel=5 note=70 velocity=0 time=0
EXTRACT: note_on channel=5 note=67 velocity=0 time=0
EXTRACT: note_on channel=7 note=46 velocity=73 time=0
EXTRACT: note_on channel=9 note=46 velocity=0 time=0
EXTRACT: note_on channel=9 note=36 velocity=0 time=0
EXTRACT: note_on channel=0 note=67 velocity=0 time=0.0057471250000000005
EXTRACT: note_on channel=4 note=58 velocity=74 time=0.0057471250000000005
EXTRACT: note_on channel=4 note=62 velocity=69 time=0
EXTRACT: note_on channel=4 note=65 velocity=66 time=0
EXTRACT: note_on channel=4 note=53 velocity=66 time=0
EXTRACT: note_on channel=5 note=65 velocity=74 time=0
EXTRACT: note_on channel=5 note=70 velocity=63 time=0
EXTRACT: note_on channel=0 note=63 velocity=0 time=0.017241375000000003
EXTRACT: note_on channel=4 note=46 velocity=0 time=0.2988505
EXTRACT: note_on channel=4 note=46 velocity=55 time=0.011494250000000001
EXTRACT: note_on channel=9 note=28 velocity=71 time=0
EXTRACT: note_on channel=4 note=65 velocity=0 time=0.0057471250000000005
EXTRACT: note_on channel=4 note=53 velocity=0 time=0
EXTRACT: note_on channel=4 note=58 velocity=0 time=0
EXTRACT: note_on channel=4 note=62 velocity=0 time=0
EXTRACT: note_on channel=5 note=70 velocity=0 time=0
EXTRACT: note_on channel=5 note=65 velocity=0 time=0
EXTRACT: note_on channel=9 note=28 velocity=0 time=0
EXTRACT: note_on channel=6 note=62 velocity=56 time=0.0057471250000000005
EXTRACT: note_on channel=4 note=53 velocity=60 time=0.0057471250000000005
EXTRACT: note_on channel=4 note=58 velocity=61 time=0
EXTRACT: note_on channel=4 note=62 velocity=61 time=0
EXTRACT: note_on channel=4 note=65 velocity=59 time=0
EXTRACT: note_on channel=5 note=70 velocity=62 time=0
EXTRACT: note_on channel=5 note=65 velocity=64 time=0
EXTRACT: note_on channel=2 note=34 velocity=0 time=0.20114937500000002
EXTRACT: note_on channel=6 note=67 velocity=0 time=0.10919537500000001
EXTRACT: note_on channel=4 note=46 velocity=0 time=0.0057471250000000005
EXTRACT: note_on channel=4 note=46 velocity=55 time=0.011494250000000001
EXTRACT: note_on channel=4 note=62 velocity=0 time=0.0057471250000000005
EXTRACT: note_on channel=4 note=65 velocity=0 time=0
EXTRACT: note_on channel=4 note=53 velocity=0 time=0
EXTRACT: note_on channel=4 note=58 velocity=0 time=0
EXTRACT: note_on channel=5 note=65 velocity=0 time=0
EXTRACT: note_on channel=5 note=70 velocity=0 time=0
EXTRACT: note_on channel=5 note=65 velocity=74 time=0.0057471250000000005
EXTRACT: note_on channel=6 note=67 velocity=64 time=0
EXTRACT: note_on channel=4 note=58 velocity=65 time=0.0057471250000000005
EXTRACT: note_on channel=4 note=53 velocity=64 time=0
EXTRACT: note_on channel=4 note=62 velocity=67 time=0
EXTRACT: note_on channel=4 note=65 velocity=63 time=0
EXTRACT: note_on channel=5 note=70 velocity=65 time=0
EXTRACT: note_on channel=3 note=58 velocity=0 time=0.034482750000000006
EXTRACT: note_on channel=9 note=28 velocity=65 time=0.12068962500000001
EXTRACT: note_on channel=9 note=28 velocity=0 time=0.0057471250000000005
EXTRACT: note_on channel=4 note=46 velocity=0 time=0.155172375
EXTRACT: note_on channel=4 note=46 velocity=55 time=0.011494250000000001
EXTRACT: note_on channel=5 note=65 velocity=0 time=0
EXTRACT: note_on channel=4 note=62 velocity=0 time=0.0057471250000000005
EXTRACT: note_on channel=4 note=65 velocity=0 time=0
EXTRACT: note_on channel=4 note=58 velocity=0 time=0
EXTRACT: note_on channel=4 note=53 velocity=0 time=0
EXTRACT: note_on channel=5 note=70 velocity=0 time=0
EXTRACT: note_on channel=5 note=70 velocity=61 time=0
EXTRACT: note_on channel=5 note=65 velocity=64 time=0
EXTRACT: note_on channel=6 note=65 velocity=55 time=0.0057471250000000005
EXTRACT: note_on channel=4 note=53 velocity=60 time=0.0057471250000000005
EXTRACT: note_on channel=4 note=62 velocity=64 time=0
EXTRACT: note_on channel=4 note=58 velocity=59 time=0
EXTRACT: note_on channel=4 note=65 velocity=59 time=0
EXTRACT: note_on channel=4 note=46 velocity=0 time=0.14367812500000002
EXTRACT: note_on channel=5 note=65 velocity=0 time=0.0057471250000000005
EXTRACT: note_on channel=5 note=70 velocity=0 time=0
EXTRACT: note_on channel=4 note=46 velocity=55 time=0.0057471250000000005
EXTRACT: note_on channel=4 note=58 velocity=0 time=0.0057471250000000005
EXTRACT: note_on channel=4 note=65 velocity=0 time=0
EXTRACT: note_on channel=4 note=53 velocity=0 time=0
EXTRACT: note_on channel=4 note=62 velocity=0 time=0
EXTRACT: note_on channel=5 note=70 velocity=65 time=0
EXTRACT: note_on channel=5 note=65 velocity=72 time=0
EXTRACT: note_on channel=4 note=58 velocity=67 time=0.011494250000000001
EXTRACT: note_on channel=4 note=53 velocity=63 time=0
EXTRACT: note_on channel=4 note=65 velocity=60 time=0
EXTRACT: note_on channel=4 note=62 velocity=66 time=0
EXTRACT: note_on channel=6 note=67 velocity=0 time=0.09770112500000001
EXTRACT: note_on channel=9 note=84 velocity=80 time=0.05747125
EXTRACT: note_on channel=9 note=28 velocity=80 time=0
EXTRACT: note_on channel=9 note=28 velocity=0 time=0.0057471250000000005
EXTRACT: note_on channel=9 note=84 velocity=0 time=0
EXTRACT: note_on channel=6 note=67 velocity=62 time=0.0057471250000000005
EXTRACT: note_on channel=4 note=46 velocity=0 time=0.14942525
EXTRACT: note_on channel=5 note=65 velocity=0 time=0.0057471250000000005
EXTRACT: note_on channel=5 note=70 velocity=0 time=0
EXTRACT: note_on channel=4 note=46 velocity=55 time=0.0057471250000000005
EXTRACT: note_on channel=9 note=28 velocity=61 time=0
EXTRACT: note_on channel=4 note=65 velocity=0 time=0.0057471250000000005
EXTRACT: note_on channel=4 note=62 velocity=0 time=0
EXTRACT: note_on channel=4 note=58 velocity=0 time=0
EXTRACT: note_on channel=4 note=53 velocity=0 time=0
EXTRACT: note_on channel=5 note=70 velocity=60 time=0
EXTRACT: note_on channel=5 note=65 velocity=64 time=0
EXTRACT: note_on channel=9 note=28 velocity=0 time=0
EXTRACT: note_on channel=4 note=58 velocity=65 time=0.011494250000000001
EXTRACT: note_on channel=4 note=53 velocity=63 time=0
EXTRACT: note_on channel=4 note=62 velocity=65 time=0
EXTRACT: note_on channel=4 note=65 velocity=59 time=0
EXTRACT: note_on channel=0 note=62 velocity=0 time=0.086206875
EXTRACT: note_on channel=6 note=62 velocity=0 time=0.028735625
EXTRACT: note_on channel=4 note=46 velocity=0 time=0.028735625
EXTRACT: note_on channel=5 note=65 velocity=0 time=0.0057471250000000005
EXTRACT: note_on channel=5 note=70 velocity=0 time=0
EXTRACT: note_on channel=4 note=46 velocity=55 time=0.0057471250000000005
EXTRACT: note_on channel=9 note=28 velocity=60 time=0
EXTRACT: note_on channel=0 note=58 velocity=104 time=0.0057471250000000005
EXTRACT: note_on channel=4 note=62 velocity=0 time=0
EXTRACT: note_on channel=4 note=65 velocity=0 time=0
EXTRACT: note_on channel=4 note=58 velocity=0 time=0
EXTRACT: note_on channel=4 note=53 velocity=0 time=0
EXTRACT: note_on channel=5 note=65 velocity=70 time=0
EXTRACT: note_on channel=5 note=70 velocity=65 time=0
EXTRACT: note_on channel=9 note=28 velocity=0 time=0
EXTRACT: note_on channel=6 note=62 velocity=53 time=0.0057471250000000005
EXTRACT: note_on channel=4 note=58 velocity=64 time=0.0057471250000000005
EXTRACT: note_on channel=4 note=53 velocity=64 time=0
EXTRACT: note_on channel=4 note=62 velocity=64 time=0
EXTRACT: note_on channel=4 note=65 velocity=59 time=0
EXTRACT: note_on channel=6 note=67 velocity=0 time=0.2988505
EXTRACT: note_on channel=4 note=46 velocity=0 time=0.017241375000000003
EXTRACT: note_on channel=5 note=70 velocity=0 time=0.0057471250000000005
EXTRACT: note_on channel=5 note=65 velocity=0 time=0
EXTRACT: note_on channel=4 note=46 velocity=55 time=0.0057471250000000005
EXTRACT: note_on channel=9 note=84 velocity=87 time=0
EXTRACT: note_on channel=0 note=65 velocity=86 time=0.0057471250000000005
EXTRACT: note_on channel=4 note=62 velocity=0 time=0
EXTRACT: note_on channel=4 note=65 velocity=0 time=0
EXTRACT: note_on channel=4 note=58 velocity=0 time=0
EXTRACT: note_on channel=4 note=53 velocity=0 time=0
EXTRACT: note_on channel=9 note=84 velocity=0 time=0
EXTRACT: note_on channel=6 note=67 velocity=64 time=0.0057471250000000005
EXTRACT: note_on channel=4 note=58 velocity=75 time=0.0057471250000000005
EXTRACT: note_on channel=4 note=53 velocity=66 time=0
EXTRACT: note_on channel=4 note=62 velocity=69 time=0
EXTRACT: note_on channel=4 note=65 velocity=63 time=0
EXTRACT: note_on channel=5 note=70 velocity=72 time=0
EXTRACT: note_on channel=5 note=65 velocity=72 time=0
EXTRACT: note_on channel=6 note=65 velocity=0 time=0
EXTRACT: note_on channel=4 note=46 velocity=0 time=0.14367812500000002
EXTRACT: note_on channel=4 note=46 velocity=55 time=0.011494250000000001
EXTRACT: note_on channel=4 note=62 velocity=0 time=0.0057471250000000005
EXTRACT: note_on channel=4 note=65 velocity=0 time=0
EXTRACT: note_on channel=4 note=58 velocity=0 time=0
EXTRACT: note_on channel=4 note=53 velocity=0 time=0
EXTRACT: note_on channel=5 note=65 velocity=0 time=0
EXTRACT: note_on channel=5 note=70 velocity=0 time=0
EXTRACT: note_on channel=4 note=58 velocity=66 time=0.011494250000000001
EXTRACT: note_on channel=4 note=53 velocity=64 time=0
EXTRACT: note_on channel=4 note=65 velocity=59 time=0
EXTRACT: note_on channel=4 note=62 velocity=66 time=0
EXTRACT: note_on channel=5 note=65 velocity=65 time=0
EXTRACT: note_on channel=5 note=70 velocity=63 time=0
EXTRACT: note_on channel=0 note=65 velocity=0 time=0.09195400000000001
EXTRACT: note_on channel=4 note=46 velocity=0 time=0.051724125
EXTRACT: note_on channel=4 note=46 velocity=55 time=0.011494250000000001
EXTRACT: note_on channel=0 note=65 velocity=108 time=0.0057471250000000005
EXTRACT: note_on channel=4 note=65 velocity=0 time=0
EXTRACT: note_on channel=4 note=62 velocity=0 time=0
EXTRACT: note_on channel=4 note=58 velocity=0 time=0
EXTRACT: note_on channel=4 note=53 velocity=0 time=0
EXTRACT: note_on channel=5 note=70 velocity=0 time=0
EXTRACT: note_on channel=5 note=65 velocity=0 time=0
EXTRACT: note_on channel=6 note=65 velocity=58 time=0.0057471250000000005
EXTRACT: note_on channel=4 note=53 velocity=60 time=0.0057471250000000005
EXTRACT: note_on channel=4 note=58 velocity=63 time=0
EXTRACT: note_on channel=4 note=62 velocity=66 time=0
EXTRACT: note_on channel=4 note=65 velocity=58 time=0
EXTRACT: note_on channel=5 note=65 velocity=65 time=0
EXTRACT: note_on channel=5 note=70 velocity=61 time=0
EXTRACT: note_on channel=4 note=46 velocity=0 time=0.14367812500000002
EXTRACT: note_on channel=4 note=46 velocity=55 time=0.011494250000000001
EXTRACT: note_on channel=4 note=62 velocity=0 time=0.0057471250000000005
EXTRACT: note_on channel=4 note=65 velocity=0 time=0
EXTRACT: note_on channel=4 note=53 velocity=0 time=0
EXTRACT: note_on channel=4 note=58 velocity=0 time=0
EXTRACT: note_on channel=5 note=70 velocity=0 time=0
EXTRACT: note_on channel=5 note=65 velocity=0 time=0
EXTRACT: note_on channel=4 note=58 velocity=57 time=0.011494250000000001
EXTRACT: note_on channel=4 note=62 velocity=57 time=0
EXTRACT: note_on channel=4 note=65 velocity=57 time=0
EXTRACT: note_on channel=4 note=53 velocity=57 time=0
EXTRACT: note_on channel=5 note=65 velocity=63 time=0
EXTRACT: note_on channel=5 note=70 velocity=60 time=0
EXTRACT: note_on channel=0 note=65 velocity=0 time=0.074712625
EXTRACT: note_on channel=6 note=62 velocity=0 time=0.017241375000000003
EXTRACT: note_on channel=6 note=67 velocity=0 time=0.022988500000000002
EXTRACT: note_on channel=6 note=65 velocity=0 time=0.017241375000000003
EXTRACT: note_on channel=7 note=46 velocity=0 time=0
EXTRACT: note_on channel=4 note=46 velocity=0 time=0.011494250000000001
EXTRACT: note_on channel=2 note=33 velocity=93 time=0.011494250000000001
EXTRACT: note_on channel=0 note=65 velocity=108 time=0
EXTRACT: note_on channel=4 note=45 velocity=55 time=0
EXTRACT: note_on channel=6 note=65 velocity=62 time=0
EXTRACT: note_on channel=7 note=45 velocity=71 time=0
EXTRACT: note_on channel=9 note=36 velocity=114 time=0
EXTRACT: note_on channel=9 note=46 velocity=81 time=0
EXTRACT: note_on channel=9 note=84 velocity=88 time=0
EXTRACT: note_on channel=4 note=65 velocity=0 time=0.0057471250000000005
EXTRACT: note_on channel=4 note=53 velocity=0 time=0
EXTRACT: note_on channel=4 note=58 velocity=0 time=0
EXTRACT: note_on channel=4 note=62 velocity=0 time=0
EXTRACT: note_on channel=5 note=70 velocity=0 time=0
EXTRACT: note_on channel=5 note=65 velocity=0 time=0
EXTRACT: note_on channel=9 note=84 velocity=0 time=0
EXTRACT: note_on channel=9 note=46 velocity=0 time=0
EXTRACT: note_on channel=9 note=36 velocity=0 time=0
EXTRACT: note_on channel=0 note=58 velocity=0 time=0.0057471250000000005
EXTRACT: note_on channel=4 note=60 velocity=33 time=0.0057471250000000005
EXTRACT: note_on channel=4 note=57 velocity=69 time=0
EXTRACT: note_on channel=4 note=65 velocity=33 time=0
EXTRACT: note_on channel=5 note=65 velocity=33 time=0
EXTRACT: note_on channel=5 note=70 velocity=45 time=0
EXTRACT: note_on channel=4 note=45 velocity=0 time=0.316091875
EXTRACT: note_on channel=4 note=45 velocity=55 time=0.011494250000000001
EXTRACT: note_on channel=9 note=28 velocity=54 time=0
EXTRACT: note_on channel=4 note=60 velocity=0 time=0.0057471250000000005
EXTRACT: note_on channel=4 note=65 velocity=0 time=0
EXTRACT: note_on channel=4 note=57 velocity=0 time=0
EXTRACT: note_on channel=5 note=70 velocity=0 time=0
EXTRACT: note_on channel=5 note=65 velocity=0 time=0
EXTRACT: note_on channel=9 note=28 velocity=0 time=0
EXTRACT: note_on channel=6 note=60 velocity=56 time=0.0057471250000000005
EXTRACT: note_on channel=4 note=57 velocity=59 time=0.0057471250000000005
EXTRACT: note_on channel=4 note=60 velocity=39 time=0
EXTRACT: note_on channel=4 note=65 velocity=39 time=0
EXTRACT: note_on channel=5 note=70 velocity=45 time=0
EXTRACT: note_on channel=5 note=65 velocity=39 time=0
EXTRACT: note_on channel=6 note=65 velocity=0 time=0.31034475
EXTRACT: note_on channel=4 note=45 velocity=0 time=0.0057471250000000005
EXTRACT: note_on channel=4 note=45 velocity=55 time=0.011494250000000001
EXTRACT: note_on channel=9 note=84 velocity=84 time=0
EXTRACT: note_on channel=4 note=57 velocity=0 time=0.0057471250000000005
EXTRACT: note_on channel=4 note=65 velocity=0 time=0
EXTRACT: note_on channel=4 note=60 velocity=0 time=0
EXTRACT: note_on channel=5 note=65 velocity=0 time=0
EXTRACT: note_on channel=5 note=70 velocity=0 time=0
EXTRACT: note_on channel=9 note=84 velocity=0 time=0
EXTRACT: note_on channel=6 note=65 velocity=64 time=0.0057471250000000005
EXTRACT: note_on channel=4 note=60 velocity=45 time=0.0057471250000000005
EXTRACT: note_on channel=4 note=65 velocity=45 time=0
EXTRACT: note_on channel=4 note=57 velocity=75 time=0
EXTRACT: note_on channel=5 note=70 velocity=45 time=0
EXTRACT: note_on channel=5 note=65 velocity=45 time=0
EXTRACT: note_on channel=2 note=33 velocity=0 time=0.017241375000000003
EXTRACT: note_on channel=9 note=28 velocity=53 time=0.13793100000000003
EXTRACT: note_on channel=9 note=28 velocity=0 time=0.0057471250000000005
EXTRACT: note_on channel=6 note=60 velocity=0 time=0.1149425
EXTRACT: note_on channel=4 note=45 velocity=0 time=0.040229875000000005
EXTRACT: note_on channel=4 note=45 velocity=55 time=0.011494250000000001
EXTRACT: note_on channel=9 note=40 velocity=52 time=0
EXTRACT: note_on channel=4 note=60 velocity=0 time=0.0057471250000000005
EXTRACT: note_on channel=4 note=57 velocity=0 time=0
EXTRACT: note_on channel=4 note=65 velocity=0 time=0
EXTRACT: note_on channel=5 note=65 velocity=0 time=0
EXTRACT: note_on channel=5 note=70 velocity=0 time=0
EXTRACT: note_on channel=9 note=40 velocity=0 time=0
EXTRACT: note_on channel=4 note=57 velocity=60 time=0.011494250000000001
EXTRACT: note_on channel=4 note=65 velocity=51 time=0
EXTRACT: note_on channel=4 note=60 velocity=51 time=0
EXTRACT: note_on channel=5 note=65 velocity=51 time=0
EXTRACT: note_on channel=5 note=70 velocity=45 time=0
EXTRACT: note_on channel=4 note=45 velocity=0 time=0.14367812500000002
EXTRACT: note_on channel=4 note=45 velocity=55 time=0.011494250000000001
EXTRACT: note_on channel=9 note=40 velocity=58 time=0
EXTRACT: note_on channel=4 note=57 velocity=0 time=0.0057471250000000005
EXTRACT: note_on channel=4 note=60 velocity=0 time=0
EXTRACT: note_on channel=4 note=65 velocity=0 time=0
EXTRACT: note_on channel=5 note=70 velocity=0 time=0
EXTRACT: note_on channel=5 note=65 velocity=0 time=0
EXTRACT: note_on channel=9 note=40 velocity=0 time=0
EXTRACT: note_on channel=4 note=60 velocity=55 time=0.011494250000000001
EXTRACT: note_on channel=4 note=57 velocity=74 time=0
EXTRACT: note_on channel=4 note=65 velocity=55 time=0
EXTRACT: note_on channel=5 note=65 velocity=55 time=0
EXTRACT: note_on channel=5 note=70 velocity=45 time=0
EXTRACT: note_on channel=6 note=65 velocity=0 time=0.09770112500000001
EXTRACT: note_on channel=4 note=45 velocity=0 time=0.045977000000000004
EXTRACT: note_on channel=0 note=65 velocity=0 time=0.011494250000000001
EXTRACT: note_on channel=9 note=40 velocity=103 time=0
EXTRACT: note_on channel=4 note=60 velocity=0 time=0.0057471250000000005
EXTRACT: note_on channel=4 note=57 velocity=0 time=0
EXTRACT: note_on channel=9 note=40 velocity=0 time=0
EXTRACT: note_on channel=7 note=45 velocity=0 time=0.017241375000000003
EXTRACT: note_on channel=9 note=40 velocity=81 time=0.14942525
EXTRACT: note_on channel=4 note=65 velocity=0 time=0.0057471250000000005
EXTRACT: note_on channel=5 note=70 velocity=0 time=0
EXTRACT: note_on channel=5 note=65 velocity=0 time=0
EXTRACT: note_on channel=9 note=40 velocity=0 time=0
EXTRACT: note_on channel=9 note=40 velocity=79 time=0.166666625
EXTRACT: note_on channel=9 note=40 velocity=0 time=0.0057471250000000005
EXTRACT: note_on channel=9 note=40 velocity=72 time=0.166666625
EXTRACT: note_on channel=3 note=65 velocity=100 time=0
EXTRACT: note_on channel=9 note=40 velocity=0 time=0
EXTRACT: note_on channel=3 note=65 velocity=0 time=0.16091950000000002
EXTRACT: note_on channel=3 note=62 velocity=102 time=0
EXTRACT: note_on channel=9 note=40 velocity=74 time=0.0057471250000000005
EXTRACT: note_on channel=9 note=40 velocity=0 time=0.0057471250000000005
EXTRACT: note_on channel=3 note=62 velocity=0 time=0.12643675000000001
EXTRACT: note_on channel=3 note=62 velocity=99 time=0
EXTRACT: note_on channel=9 note=40 velocity=53 time=0.0057471250000000005
EXTRACT: note_on channel=9 note=40 velocity=0 time=0.0057471250000000005
EXTRACT: note_on channel=3 note=62 velocity=0 time=0.10919537500000001
EXTRACT: note_on channel=3 note=62 velocity=100 time=0
EXTRACT: note_on channel=9 note=40 velocity=51 time=0.0057471250000000005
EXTRACT: note_on channel=9 note=40 velocity=0 time=0.0057471250000000005
EXTRACT: note_on channel=3 note=62 velocity=0 time=0.10919537500000001
EXTRACT: note_on channel=3 note=62 velocity=100 time=0
EXTRACT: note_on channel=9 note=40 velocity=33 time=0.0057471250000000005
EXTRACT: note_on channel=9 note=40 velocity=0 time=0.0057471250000000005
EXTRACT: note_on channel=3 note=62 velocity=0 time=0.12068962500000001
EXTRACT: note_on channel=2 note=31 velocity=94 time=0.045977000000000004
EXTRACT: note_on channel=5 note=62 velocity=65 time=0
EXTRACT: note_on channel=6 note=67 velocity=78 time=0
EXTRACT: note_on channel=9 note=36 velocity=113 time=0
EXTRACT: note_on channel=9 note=41 velocity=110 time=0
EXTRACT: note_on channel=9 note=46 velocity=80 time=0
EXTRACT: note_on channel=3 note=62 velocity=100 time=0
EXTRACT: note_on channel=5 note=67 velocity=74 time=0
EXTRACT: note_on channel=5 note=70 velocity=65 time=0
EXTRACT: note_on channel=9 note=46 velocity=0 time=0
EXTRACT: note_on channel=9 note=41 velocity=0 time=0
EXTRACT: note_on channel=9 note=36 velocity=0 time=0
EXTRACT: note_on channel=4 note=58 velocity=68 time=0.0057471250000000005
EXTRACT: note_on channel=4 note=62 velocity=68 time=0
EXTRACT: note_on channel=4 note=67 velocity=63 time=0
EXTRACT: note_on channel=4 note=55 velocity=62 time=0
EXTRACT: note_on channel=4 note=43 velocity=55 time=0
EXTRACT: note_on channel=3 note=62 velocity=0 time=0.13793100000000003
EXTRACT: note_on channel=3 note=62 velocity=100 time=0
EXTRACT: note_on channel=3 note=62 velocity=0 time=0.14367812500000002
EXTRACT: note_on channel=5 note=62 velocity=0 time=0.011494250000000001
EXTRACT: note_on channel=3 note=62 velocity=98 time=0
EXTRACT: note_on channel=5 note=70 velocity=0 time=0
EXTRACT: note_on channel=5 note=67 velocity=0 time=0
EXTRACT: note_on channel=4 note=43 velocity=0 time=0.0057471250000000005
EXTRACT: note_on channel=4 note=67 velocity=0 time=0
EXTRACT: note_on channel=4 note=58 velocity=0 time=0
EXTRACT: note_on channel=4 note=62 velocity=0 time=0
EXTRACT: note_on channel=4 note=55 velocity=0 time=0
EXTRACT: note_on channel=9 note=35 velocity=64 time=0
EXTRACT: note_on channel=9 note=38 velocity=64 time=0
EXTRACT: note_on channel=9 note=38 velocity=0 time=0.0057471250000000005
EXTRACT: note_on channel=9 note=35 velocity=0 time=0
EXTRACT: note_on channel=4 note=55 velocity=59 time=0.0057471250000000005
EXTRACT: note_on channel=4 note=67 velocity=58 time=0
EXTRACT: note_on channel=4 note=62 velocity=64 time=0
EXTRACT: note_on channel=4 note=58 velocity=62 time=0
EXTRACT: note_on channel=4 note=43 velocity=55 time=0
EXTRACT: note_on channel=5 note=67 velocity=59 time=0
EXTRACT: note_on channel=5 note=62 velocity=58 time=0
EXTRACT: note_on channel=5 note=70 velocity=58 time=0
EXTRACT: note_on channel=6 note=62 velocity=79 time=0
EXTRACT: note_on channel=6 note=67 velocity=0 time=0.06321837500000001
EXTRACT: note_on channel=3 note=62 velocity=0 time=0.05747125
EXTRACT: note_on channel=3 note=62 velocity=98 time=0
EXTRACT: note_on channel=9 note=35 velocity=64 time=0.0057471250000000005
EXTRACT: note_on channel=9 note=35 velocity=0 time=0.0057471250000000005
EXTRACT: note_on channel=3 note=62 velocity=0 time=0.12643675000000001
EXTRACT: note_on channel=2 note=31 velocity=0 time=0.040229875000000005
EXTRACT: note_on channel=4 note=43 velocity=0 time=0
EXTRACT: note_on channel=4 note=62 velocity=0 time=0
EXTRACT: note_on channel=4 note=55 velocity=0 time=0
EXTRACT: note_on channel=4 note=67 velocity=0 time=0
EXTRACT: note_on channel=4 note=58 velocity=0 time=0
EXTRACT: note_on channel=5 note=70 velocity=0 time=0
EXTRACT: note_on channel=5 note=62 velocity=0 time=0
EXTRACT: note_on channel=5 note=67 velocity=0 time=0
EXTRACT: note_on channel=9 note=39 velocity=111 time=0
EXTRACT: note_on channel=9 note=39 velocity=0 time=0.0057471250000000005
EXTRACT: note_on channel=4 note=62 velocity=69 time=0.0057471250000000005
EXTRACT: note_on channel=4 note=58 velocity=67 time=0
EXTRACT: note_on channel=4 note=55 velocity=65 time=0
EXTRACT: note_on channel=4 note=43 velocity=55 time=0
EXTRACT: note_on channel=4 note=67 velocity=61 time=0
EXTRACT: note_on channel=5 note=62 velocity=63 time=0
EXTRACT: note_on channel=5 note=67 velocity=70 time=0
EXTRACT: note_on channel=5 note=70 velocity=63 time=0
EXTRACT: note_on channel=6 note=67 velocity=77 time=0
EXTRACT: note_on channel=6 note=62 velocity=0 time=0.017241375000000003
EXTRACT: note_on channel=3 note=62 velocity=98 time=0
EXTRACT: note_on channel=9 note=37 velocity=57 time=0.0057471250000000005
EXTRACT: note_on channel=9 note=37 velocity=0 time=0.0057471250000000005
EXTRACT: note_on channel=3 note=62 velocity=0 time=0.12643675000000001
EXTRACT: note_on channel=3 note=62 velocity=101 time=0
EXTRACT: note_on channel=4 note=67 velocity=0 time=0.0057471250000000005
EXTRACT: note_on channel=4 note=55 velocity=0 time=0
EXTRACT: note_on channel=4 note=62 velocity=0 time=0
EXTRACT: note_on channel=4 note=58 velocity=0 time=0
EXTRACT: note_on channel=4 note=43 velocity=0 time=0
EXTRACT: note_on channel=5 note=70 velocity=0 time=0
EXTRACT: note_on channel=5 note=67 velocity=0 time=0
EXTRACT: note_on channel=5 note=62 velocity=0 time=0
EXTRACT: note_on channel=4 note=67 velocity=54 time=0.011494250000000001
EXTRACT: note_on channel=4 note=62 velocity=63 time=0
EXTRACT: note_on channel=4 note=55 velocity=58 time=0
EXTRACT: note_on channel=4 note=58 velocity=60 time=0
EXTRACT: note_on channel=4 note=43 velocity=55 time=0
EXTRACT: note_on channel=5 note=67 velocity=59 time=0
EXTRACT: note_on channel=5 note=62 velocity=58 time=0
EXTRACT: note_on channel=5 note=70 velocity=57 time=0
EXTRACT: note_on channel=6 note=62 velocity=77 time=0
EXTRACT: note_on channel=6 note=67 velocity=0 time=0.045977000000000004
EXTRACT: note_on channel=3 note=62 velocity=0 time=0.074712625
EXTRACT: note_on channel=3 note=62 velocity=98 time=0
EXTRACT: note_on channel=4 note=43 velocity=0 time=0.0057471250000000005
EXTRACT: note_on channel=4 note=55 velocity=0 time=0
EXTRACT: note_on channel=4 note=67 velocity=0 time=0
EXTRACT: note_on channel=4 note=62 velocity=0 time=0
EXTRACT: note_on channel=4 note=58 velocity=0 time=0
EXTRACT: note_on channel=5 note=70 velocity=0 time=0
EXTRACT: note_on channel=5 note=62 velocity=0 time=0
EXTRACT: note_on channel=5 note=67 velocity=0 time=0
EXTRACT: note_on channel=9 note=39 velocity=108 time=0
EXTRACT: note_on channel=9 note=39 velocity=0 time=0.0057471250000000005
EXTRACT: note_on channel=4 note=58 velocity=71 time=0.0057471250000000005
EXTRACT: note_on channel=4 note=43 velocity=55 time=0
EXTRACT: note_on channel=4 note=55 velocity=63 time=0
EXTRACT: note_on channel=4 note=62 velocity=71 time=0
EXTRACT: note_on channel=4 note=67 velocity=63 time=0
EXTRACT: note_on channel=5 note=62 velocity=63 time=0
EXTRACT: note_on channel=5 note=67 velocity=69 time=0
EXTRACT: note_on channel=5 note=70 velocity=63 time=0
EXTRACT: note_on channel=3 note=62 velocity=0 time=0.12643675000000001
EXTRACT: note_on channel=3 note=62 velocity=99 time=0
EXTRACT: note_on channel=6 note=67 velocity=75 time=0.0057471250000000005
EXTRACT: note_on channel=6 note=62 velocity=0 time=0.028735625
EXTRACT: note_on channel=4 note=67 velocity=0 time=0.132183875
EXTRACT: note_on channel=4 note=55 velocity=0 time=0
EXTRACT: note_on channel=4 note=58 velocity=0 time=0
EXTRACT: note_on channel=4 note=43 velocity=0 time=0
EXTRACT: note_on channel=4 note=62 velocity=0 time=0
EXTRACT: note_on channel=5 note=70 velocity=0 time=0
EXTRACT: note_on channel=5 note=67 velocity=0 time=0
EXTRACT: note_on channel=5 note=62 velocity=0 time=0
EXTRACT: note_on channel=9 note=35 velocity=61 time=0
EXTRACT: note_on channel=9 note=37 velocity=59 time=0
EXTRACT: note_on channel=9 note=37 velocity=0 time=0.0057471250000000005
EXTRACT: note_on channel=9 note=35 velocity=0 time=0
EXTRACT: note_on channel=4 note=55 velocity=60 time=0.0057471250000000005
EXTRACT: note_on channel=4 note=67 velocity=58 time=0
EXTRACT: note_on channel=4 note=43 velocity=55 time=0
EXTRACT: note_on channel=4 note=58 velocity=63 time=0
EXTRACT: note_on channel=4 note=62 velocity=64 time=0
EXTRACT: note_on channel=5 note=62 velocity=57 time=0
EXTRACT: note_on channel=5 note=67 velocity=59 time=0
EXTRACT: note_on channel=5 note=70 velocity=58 time=0
EXTRACT: note_on channel=3 note=62 velocity=0 time=0.12068962500000001
EXTRACT: note_on channel=4 note=62 velocity=0 time=0.040229875000000005
EXTRACT: note_on channel=4 note=43 velocity=0 time=0
EXTRACT: note_on channel=4 note=55 velocity=0 time=0
EXTRACT: note_on channel=4 note=67 velocity=0 time=0
EXTRACT: note_on channel=4 note=58 velocity=0 time=0
EXTRACT: note_on channel=5 note=70 velocity=0 time=0
EXTRACT: note_on channel=5 note=67 velocity=0 time=0
EXTRACT: note_on channel=5 note=62 velocity=0 time=0
EXTRACT: note_on channel=9 note=35 velocity=67 time=0
EXTRACT: note_on channel=9 note=37 velocity=64 time=0
EXTRACT: note_on channel=3 note=62 velocity=100 time=0
EXTRACT: note_on channel=9 note=37 velocity=0 time=0
EXTRACT: note_on channel=9 note=35 velocity=0 time=0
EXTRACT: note_on channel=4 note=58 velocity=65 time=0.0057471250000000005
EXTRACT: note_on channel=4 note=55 velocity=58 time=0
EXTRACT: note_on channel=4 note=62 velocity=71 time=0
EXTRACT: note_on channel=4 note=67 velocity=60 time=0
EXTRACT: note_on channel=4 note=43 velocity=55 time=0
EXTRACT: note_on channel=5 note=62 velocity=59 time=0
EXTRACT: note_on channel=5 note=67 velocity=67 time=0
EXTRACT: note_on channel=5 note=70 velocity=65 time=0
EXTRACT: note_on channel=6 note=62 velocity=76 time=0
EXTRACT: note_on channel=6 note=67 velocity=0 time=0.051724125
EXTRACT: note_on channel=3 note=62 velocity=0 time=0.086206875
EXTRACT: note_on channel=3 note=62 velocity=100 time=0
EXTRACT: note_on channel=3 note=62 velocity=0 time=0.155172375
EXTRACT: note_on channel=4 note=43 velocity=0 time=0.011494250000000001
EXTRACT: note_on channel=4 note=62 velocity=0 time=0
EXTRACT: note_on channel=4 note=58 velocity=0 time=0
EXTRACT: note_on channel=4 note=55 velocity=0 time=0
EXTRACT: note_on channel=4 note=67 velocity=0 time=0
EXTRACT: note_on channel=5 note=70 velocity=0 time=0
EXTRACT: note_on channel=5 note=67 velocity=0 time=0
EXTRACT: note_on channel=5 note=62 velocity=0 time=0
EXTRACT: note_on channel=9 note=39 velocity=114 time=0
EXTRACT: note_on channel=3 note=62 velocity=100 time=0
EXTRACT: note_on channel=6 note=62 velocity=0 time=0
EXTRACT: note_on channel=9 note=39 velocity=0 time=0
EXTRACT: note_on channel=4 note=55 velocity=63 time=0.0057471250000000005
EXTRACT: note_on channel=4 note=62 velocity=69 time=0
EXTRACT: note_on channel=4 note=58 velocity=70 time=0
EXTRACT: note_on channel=4 note=43 velocity=55 time=0
EXTRACT: note_on channel=4 note=67 velocity=63 time=0
EXTRACT: note_on channel=5 note=67 velocity=69 time=0
EXTRACT: note_on channel=5 note=62 velocity=65 time=0
EXTRACT: note_on channel=5 note=70 velocity=66 time=0
EXTRACT: note_on channel=6 note=67 velocity=74 time=0
EXTRACT: note_on channel=3 note=62 velocity=0 time=0.13793100000000003
EXTRACT: note_on channel=4 note=67 velocity=0 time=0.022988500000000002
EXTRACT: note_on channel=4 note=58 velocity=0 time=0
EXTRACT: note_on channel=4 note=55 velocity=0 time=0
EXTRACT: note_on channel=4 note=62 velocity=0 time=0
EXTRACT: note_on channel=4 note=43 velocity=0 time=0
EXTRACT: note_on channel=5 note=70 velocity=0 time=0
EXTRACT: note_on channel=5 note=62 velocity=0 time=0
EXTRACT: note_on channel=5 note=67 velocity=0 time=0
EXTRACT: note_on channel=9 note=35 velocity=61 time=0
EXTRACT: note_on channel=3 note=62 velocity=100 time=0
EXTRACT: note_on channel=9 note=35 velocity=0 time=0
EXTRACT: note_on channel=4 note=43 velocity=55 time=0.0057471250000000005
EXTRACT: note_on channel=4 note=62 velocity=67 time=0
EXTRACT: note_on channel=4 note=67 velocity=58 time=0
EXTRACT: note_on channel=4 note=55 velocity=57 time=0
EXTRACT: note_on channel=4 note=58 velocity=65 time=0
EXTRACT: note_on channel=5 note=62 velocity=48 time=0
EXTRACT: note_on channel=5 note=67 velocity=66 time=0
EXTRACT: note_on channel=5 note=70 velocity=63 time=0
EXTRACT: note_on channel=3 note=62 velocity=0 time=0.14942525
EXTRACT: note_on channel=4 note=58 velocity=0 time=0.011494250000000001
EXTRACT: note_on channel=4 note=67 velocity=0 time=0
EXTRACT: note_on channel=4 note=43 velocity=0 time=0
EXTRACT: note_on channel=4 note=62 velocity=0 time=0
EXTRACT: note_on channel=4 note=55 velocity=0 time=0
EXTRACT: note_on channel=5 note=70 velocity=0 time=0
EXTRACT: note_on channel=5 note=67 velocity=0 time=0
EXTRACT: note_on channel=5 note=62 velocity=0 time=0
EXTRACT: note_on channel=9 note=28 velocity=51 time=0
EXTRACT: note_on channel=3 note=60 velocity=100 time=0
EXTRACT: note_on channel=9 note=28 velocity=0 time=0
EXTRACT: note_on channel=4 note=58 velocity=68 time=0.0057471250000000005
EXTRACT: note_on channel=4 note=43 velocity=55 time=0
EXTRACT: note_on channel=4 note=55 velocity=63 time=0
EXTRACT: note_on channel=4 note=62 velocity=69 time=0
EXTRACT: note_on channel=4 note=67 velocity=61 time=0
EXTRACT: note_on channel=5 note=62 velocity=55 time=0
EXTRACT: note_on channel=5 note=67 velocity=67 time=0
EXTRACT: note_on channel=5 note=70 velocity=63 time=0
EXTRACT: note_on channel=6 note=65 velocity=78 time=0
EXTRACT: note_on channel=6 note=67 velocity=0 time=0.028735625
EXTRACT: note_on channel=3 note=60 velocity=0 time=0.10919537500000001
EXTRACT: note_on channel=4 note=67 velocity=0 time=0.022988500000000002
EXTRACT: note_on channel=4 note=55 velocity=0 time=0
EXTRACT: note_on channel=4 note=58 velocity=0 time=0
EXTRACT: note_on channel=4 note=43 velocity=0 time=0
EXTRACT: note_on channel=4 note=62 velocity=0 time=0
EXTRACT: note_on channel=5 note=70 velocity=0 time=0
EXTRACT: note_on channel=5 note=67 velocity=0 time=0
EXTRACT: note_on channel=5 note=62 velocity=0 time=0
EXTRACT: note_on channel=3 note=62 velocity=100 time=0
EXTRACT: note_on channel=4 note=67 velocity=59 time=0.0057471250000000005
EXTRACT: note_on channel=4 note=55 velocity=59 time=0
EXTRACT: note_on channel=4 note=62 velocity=59 time=0
EXTRACT: note_on channel=4 note=58 velocity=59 time=0
EXTRACT: note_on channel=4 note=43 velocity=55 time=0
EXTRACT: note_on channel=5 note=62 velocity=63 time=0
EXTRACT: note_on channel=5 note=67 velocity=63 time=0
EXTRACT: note_on channel=5 note=70 velocity=63 time=0
EXTRACT: note_on channel=6 note=65 velocity=0 time=0.13793100000000003
EXTRACT: note_on channel=2 note=27 velocity=97 time=0.022988500000000002
EXTRACT: note_on channel=4 note=43 velocity=0 time=0
EXTRACT: note_on channel=4 note=62 velocity=0 time=0
EXTRACT: note_on channel=4 note=67 velocity=0 time=0
EXTRACT: note_on channel=4 note=55 velocity=0 time=0
EXTRACT: note_on channel=4 note=58 velocity=0 time=0
EXTRACT: note_on channel=5 note=70 velocity=0 time=0
EXTRACT: note_on channel=5 note=67 velocity=0 time=0
EXTRACT: note_on channel=5 note=62 velocity=0 time=0
EXTRACT: note_on channel=9 note=36 velocity=114 time=0
EXTRACT: note_on channel=9 note=41 velocity=110 time=0
EXTRACT: note_on channel=9 note=46 velocity=81 time=0
EXTRACT: note_on channel=5 note=70 velocity=65 time=0.0057471250000000005
EXTRACT: note_on channel=6 note=67 velocity=74 time=0
EXTRACT: note_on channel=9 note=46 velocity=0 time=0
EXTRACT: note_on channel=9 note=41 velocity=0 time=0
EXTRACT: note_on channel=9 note=36 velocity=0 time=0
EXTRACT: note_on channel=4 note=63 velocity=64 time=0.0057471250000000005
EXTRACT: note_on channel=4 note=67 velocity=63 time=0
EXTRACT: note_on channel=4 note=58 velocity=65 time=0
EXTRACT: note_on channel=4 note=55 velocity=64 time=0
EXTRACT: note_on channel=4 note=39 velocity=55 time=0
EXTRACT: note_on channel=5 note=65 velocity=74 time=0
EXTRACT: note_on channel=3 note=62 velocity=0 time=0.09770112500000001
EXTRACT: note_on channel=3 note=62 velocity=104 time=0
EXTRACT: note_on channel=3 note=62 velocity=0 time=0.16091950000000002
EXTRACT: note_on channel=5 note=70 velocity=0 time=0.011494250000000001
EXTRACT: note_on channel=3 note=62 velocity=104 time=0
EXTRACT: note_on channel=4 note=39 velocity=0 time=0
EXTRACT: note_on channel=4 note=58 velocity=0 time=0
EXTRACT: note_on channel=4 note=63 velocity=0 time=0
EXTRACT: note_on channel=4 note=67 velocity=0 time=0
EXTRACT: note_on channel=4 note=55 velocity=0 time=0
EXTRACT: note_on channel=5 note=65 velocity=0 time=0
EXTRACT: note_on channel=9 note=35 velocity=68 time=0
EXTRACT: note_on channel=9 note=38 velocity=68 time=0
EXTRACT: note_on channel=9 note=38 velocity=0 time=0.0057471250000000005
EXTRACT: note_on channel=9 note=35 velocity=0 time=0
EXTRACT: note_on channel=4 note=63 velocity=63 time=0.0057471250000000005
EXTRACT: note_on channel=4 note=55 velocity=58 time=0
EXTRACT: note_on channel=4 note=67 velocity=56 time=0
EXTRACT: note_on channel=4 note=58 velocity=61 time=0
EXTRACT: note_on channel=4 note=39 velocity=55 time=0
EXTRACT: note_on channel=5 note=65 velocity=73 time=0
EXTRACT: note_on channel=5 note=70 velocity=63 time=0
EXTRACT: note_on channel=6 note=65 velocity=76 time=0
EXTRACT: note_on channel=6 note=67 velocity=0 time=0.051724125
EXTRACT: note_on channel=3 note=62 velocity=0 time=0.09770112500000001
EXTRACT: note_on channel=3 note=60 velocity=101 time=0
EXTRACT: note_on channel=9 note=35 velocity=63 time=0.0057471250000000005
EXTRACT: note_on channel=9 note=35 velocity=0 time=0.0057471250000000005
EXTRACT: note_on channel=6 note=65 velocity=0 time=0.13793100000000003
EXTRACT: note_on channel=3 note=60 velocity=0 time=0.011494250000000001
EXTRACT: note_on channel=4 note=39 velocity=0 time=0.017241375000000003
EXTRACT: note_on channel=4 note=67 velocity=0 time=0
EXTRACT: note_on channel=4 note=63 velocity=0 time=0
EXTRACT: note_on channel=4 note=55 velocity=0 time=0
EXTRACT: note_on channel=4 note=58 velocity=0 time=0
EXTRACT: note_on channel=5 note=70 velocity=0 time=0
EXTRACT: note_on channel=5 note=65 velocity=0 time=0
EXTRACT: note_on channel=6 note=67 velocity=77 time=0
EXTRACT: note_on channel=9 note=39 velocity=110 time=0
EXTRACT: note_on channel=3 note=62 velocity=100 time=0
EXTRACT: note_on channel=2 note=27 velocity=0 time=0
EXTRACT: note_on channel=9 note=39 velocity=0 time=0
EXTRACT: note_on channel=4 note=63 velocity=67 time=0.0057471250000000005
EXTRACT: note_on channel=4 note=58 velocity=65 time=0
EXTRACT: note_on channel=4 note=67 velocity=65 time=0
EXTRACT: note_on channel=4 note=39 velocity=55 time=0
EXTRACT: note_on channel=4 note=55 velocity=62 time=0
EXTRACT: note_on channel=5 note=67 velocity=74 time=0
EXTRACT: note_on channel=5 note=70 velocity=76 time=0
EXTRACT: note_on channel=3 note=62 velocity=0 time=0.14942525
EXTRACT: note_on channel=3 note=62 velocity=100 time=0
EXTRACT: note_on channel=9 note=37 velocity=57 time=0.0057471250000000005
EXTRACT: note_on channel=9 note=37 velocity=0 time=0.0057471250000000005
EXTRACT: note_on channel=3 note=62 velocity=0 time=0.14367812500000002
EXTRACT: note_on channel=5 note=67 velocity=0 time=0.011494250000000001
EXTRACT: note_on channel=3 note=62 velocity=103 time=0
EXTRACT: note_on channel=4 note=55 velocity=0 time=0.0057471250000000005
EXTRACT: note_on channel=4 note=67 velocity=0 time=0
EXTRACT: note_on channel=4 note=63 velocity=0 time=0
EXTRACT: note_on channel=4 note=58 velocity=0 time=0
EXTRACT: note_on channel=4 note=39 velocity=0 time=0
EXTRACT: note_on channel=5 note=70 velocity=0 time=0
EXTRACT: note_on channel=4 note=55 velocity=57 time=0.011494250000000001
EXTRACT: note_on channel=4 note=63 velocity=61 time=0
EXTRACT: note_on channel=4 note=67 velocity=58 time=0
EXTRACT: note_on channel=4 note=58 velocity=59 time=0
EXTRACT: note_on channel=4 note=39 velocity=55 time=0
EXTRACT: note_on channel=5 note=65 velocity=67 time=0
EXTRACT: note_on channel=5 note=70 velocity=67 time=0
EXTRACT: note_on channel=6 note=65 velocity=76 time=0
EXTRACT: note_on channel=6 note=67 velocity=0 time=0.045977000000000004
EXTRACT: note_on channel=4 note=39 velocity=0 time=0.1149425
EXTRACT: note_on channel=4 note=67 velocity=0 time=0
EXTRACT: note_on channel=4 note=55 velocity=0 time=0
EXTRACT: note_on channel=4 note=63 velocity=0 time=0
EXTRACT: note_on channel=4 note=58 velocity=0 time=0
EXTRACT: note_on channel=5 note=70 velocity=0 time=0
EXTRACT: note_on channel=5 note=65 velocity=0 time=0
EXTRACT: note_on channel=9 note=39 velocity=110 time=0
EXTRACT: note_on channel=9 note=39 velocity=0 time=0.0057471250000000005
EXTRACT: note_on channel=4 note=58 velocity=67 time=0.0057471250000000005
EXTRACT: note_on channel=4 note=39 velocity=55 time=0
EXTRACT: note_on channel=4 note=55 velocity=61 time=0
EXTRACT: note_on channel=4 note=63 velocity=65 time=0
EXTRACT: note_on channel=4 note=67 velocity=59 time=0
EXTRACT: note_on channel=5 note=70 velocity=75 time=0
EXTRACT: note_on channel=5 note=67 velocity=75 time=0
EXTRACT: note_on channel=3 note=62 velocity=0 time=0.1149425
EXTRACT: note_on channel=3 note=62 velocity=102 time=0
EXTRACT: note_on channel=6 note=65 velocity=0 time=0
EXTRACT: note_on channel=6 note=67 velocity=79 time=0.011494250000000001
EXTRACT: note_on channel=3 note=62 velocity=0 time=0.14942525
EXTRACT: note_on channel=4 note=67 velocity=0 time=0.011494250000000001
EXTRACT: note_on channel=4 note=55 velocity=0 time=0
EXTRACT: note_on channel=4 note=58 velocity=0 time=0
EXTRACT: note_on channel=4 note=39 velocity=0 time=0
EXTRACT: note_on channel=4 note=63 velocity=0 time=0
EXTRACT: note_on channel=5 note=67 velocity=0 time=0
EXTRACT: note_on channel=5 note=70 velocity=0 time=0
EXTRACT: note_on channel=9 note=35 velocity=62 time=0
EXTRACT: note_on channel=9 note=37 velocity=59 time=0
EXTRACT: note_on channel=3 note=62 velocity=98 time=0
EXTRACT: note_on channel=9 note=37 velocity=0 time=0
EXTRACT: note_on channel=9 note=35 velocity=0 time=0
EXTRACT: note_on channel=4 note=63 velocity=61 time=0.0057471250000000005
EXTRACT: note_on channel=4 note=55 velocity=58 time=0
EXTRACT: note_on channel=4 note=39 velocity=55 time=0
EXTRACT: note_on channel=4 note=58 velocity=61 time=0
EXTRACT: note_on channel=4 note=67 velocity=59 time=0
EXTRACT: note_on channel=5 note=65 velocity=70 time=0
EXTRACT: note_on channel=5 note=70 velocity=67 time=0
EXTRACT: note_on channel=3 note=62 velocity=0 time=0.13793100000000003
EXTRACT: note_on channel=4 note=67 velocity=0 time=0.022988500000000002
EXTRACT: note_on channel=4 note=39 velocity=0 time=0
EXTRACT: note_on channel=4 note=63 velocity=0 time=0
EXTRACT: note_on channel=4 note=55 velocity=0 time=0
EXTRACT: note_on channel=4 note=58 velocity=0 time=0
EXTRACT: note_on channel=5 note=70 velocity=0 time=0
EXTRACT: note_on channel=5 note=65 velocity=0 time=0
EXTRACT: note_on channel=9 note=35 velocity=65 time=0
EXTRACT: note_on channel=9 note=37 velocity=63 time=0
EXTRACT: note_on channel=3 note=62 velocity=98 time=0
EXTRACT: note_on channel=9 note=37 velocity=0 time=0
EXTRACT: note_on channel=9 note=35 velocity=0 time=0
EXTRACT: note_on channel=4 note=58 velocity=68 time=0.0057471250000000005
EXTRACT: note_on channel=4 note=67 velocity=65 time=0
EXTRACT: note_on channel=4 note=63 velocity=68 time=0
EXTRACT: note_on channel=4 note=55 velocity=60 time=0
EXTRACT: note_on channel=4 note=39 velocity=55 time=0
EXTRACT: note_on channel=5 note=65 velocity=81 time=0
EXTRACT: note_on channel=5 note=70 velocity=74 time=0
EXTRACT: note_on channel=6 note=65 velocity=76 time=0
EXTRACT: note_on channel=6 note=67 velocity=0 time=0.045977000000000004
EXTRACT: note_on channel=3 note=62 velocity=0 time=0.09195400000000001
EXTRACT: note_on channel=3 note=62 velocity=86 time=0
EXTRACT: note_on channel=3 note=62 velocity=0 time=0.14367812500000002
EXTRACT: note_on channel=3 note=62 velocity=102 time=0
EXTRACT: note_on channel=4 note=39 velocity=0 time=0.0057471250000000005
EXTRACT: note_on channel=4 note=63 velocity=0 time=0
EXTRACT: note_on channel=4 note=58 velocity=0 time=0
EXTRACT: note_on channel=4 note=67 velocity=0 time=0
EXTRACT: note_on channel=4 note=55 velocity=0 time=0
EXTRACT: note_on channel=5 note=70 velocity=0 time=0
EXTRACT: note_on channel=5 note=65 velocity=0 time=0
EXTRACT: note_on channel=6 note=65 velocity=0 time=0
EXTRACT: note_on channel=9 note=39 velocity=109 time=0
EXTRACT: note_on channel=9 note=39 velocity=0 time=0.0057471250000000005
EXTRACT: note_on channel=4 note=58 velocity=69 time=0.0057471250000000005
EXTRACT: note_on channel=4 note=63 velocity=69 time=0
EXTRACT: note_on channel=4 note=67 velocity=65 time=0
EXTRACT: note_on channel=4 note=39 velocity=55 time=0
EXTRACT: note_on channel=4 note=55 velocity=63 time=0
EXTRACT: note_on channel=5 note=70 velocity=66 time=0
EXTRACT: note_on channel=5 note=65 velocity=66 time=0
EXTRACT: note_on channel=6 note=67 velocity=78 time=0
EXTRACT: note_on channel=3 note=62 velocity=0 time=0.14367812500000002
EXTRACT: note_on channel=3 note=62 velocity=98 time=0
EXTRACT: note_on channel=4 note=55 velocity=0 time=0
EXTRACT: note_on channel=4 note=67 velocity=0 time=0
EXTRACT: note_on channel=4 note=58 velocity=0 time=0
EXTRACT: note_on channel=4 note=63 velocity=0 time=0
EXTRACT: note_on channel=4 note=39 velocity=0 time=0
EXTRACT: note_on channel=5 note=65 velocity=0 time=0
EXTRACT: note_on channel=5 note=70 velocity=0 time=0
EXTRACT: note_on channel=9 note=35 velocity=62 time=0
EXTRACT: note_on channel=9 note=35 velocity=0 time=0.0057471250000000005
EXTRACT: note_on channel=4 note=39 velocity=55 time=0.0057471250000000005
EXTRACT: note_on channel=4 note=63 velocity=67 time=0
EXTRACT: note_on channel=4 note=55 velocity=61 time=0
EXTRACT: note_on channel=4 note=67 velocity=60 time=0
EXTRACT: note_on channel=4 note=58 velocity=67 time=0
EXTRACT: note_on channel=5 note=65 velocity=64 time=0
EXTRACT: note_on channel=5 note=70 velocity=69 time=0
EXTRACT: note_on channel=3 note=62 velocity=0 time=0.132183875
EXTRACT: note_on channel=3 note=60 velocity=98 time=0
EXTRACT: note_on channel=4 note=58 velocity=0 time=0
EXTRACT: note_on channel=4 note=55 velocity=0 time=0
EXTRACT: note_on channel=4 note=39 velocity=0 time=0
EXTRACT: note_on channel=4 note=63 velocity=0 time=0
EXTRACT: note_on channel=4 note=67 velocity=0 time=0
EXTRACT: note_on channel=5 note=70 velocity=0 time=0
EXTRACT: note_on channel=5 note=65 velocity=0 time=0
EXTRACT: note_on channel=9 note=38 velocity=66 time=0
EXTRACT: note_on channel=9 note=28 velocity=52 time=0
EXTRACT: note_on channel=9 note=28 velocity=0 time=0.0057471250000000005
EXTRACT: note_on channel=9 note=38 velocity=0 time=0
EXTRACT: note_on channel=4 note=58 velocity=66 time=0.0057471250000000005
EXTRACT: note_on channel=4 note=39 velocity=55 time=0
EXTRACT: note_on channel=4 note=67 velocity=60 time=0
EXTRACT: note_on channel=4 note=63 velocity=69 time=0
EXTRACT: note_on channel=4 note=55 velocity=60 time=0
EXTRACT: note_on channel=5 note=65 velocity=70 time=0
EXTRACT: note_on channel=5 note=70 velocity=68 time=0
EXTRACT: note_on channel=6 note=65 velocity=76 time=0
EXTRACT: note_on channel=6 note=67 velocity=0 time=0.034482750000000006
EXTRACT: note_on channel=3 note=60 velocity=0 time=0.09770112500000001
EXTRACT: note_on channel=3 note=62 velocity=86 time=0
EXTRACT: note_on channel=4 note=55 velocity=0 time=0.0057471250000000005
EXTRACT: note_on channel=4 note=67 velocity=0 time=0
EXTRACT: note_on channel=4 note=58 velocity=0 time=0
EXTRACT: note_on channel=4 note=39 velocity=0 time=0
EXTRACT: note_on channel=4 note=63 velocity=0 time=0
EXTRACT: note_on channel=5 note=70 velocity=0 time=0
EXTRACT: note_on channel=5 note=65 velocity=0 time=0
EXTRACT: note_on channel=9 note=36 velocity=110 time=0
EXTRACT: note_on channel=9 note=36 velocity=0 time=0.0057471250000000005
EXTRACT: note_on channel=4 note=58 velocity=57 time=0.0057471250000000005
EXTRACT: note_on channel=4 note=55 velocity=57 time=0
EXTRACT: note_on channel=4 note=63 velocity=57 time=0
EXTRACT: note_on channel=4 note=67 velocity=57 time=0
EXTRACT: note_on channel=4 note=39 velocity=55 time=0
EXTRACT: note_on channel=5 note=65 velocity=63 time=0
EXTRACT: note_on channel=5 note=70 velocity=63 time=0
EXTRACT: note_on channel=6 note=65 velocity=0 time=0.10344825
EXTRACT: note_on channel=3 note=62 velocity=0 time=0.022988500000000002
EXTRACT: note_on channel=2 note=34 velocity=96 time=0.022988500000000002
EXTRACT: note_on channel=4 note=39 velocity=0 time=0.011494250000000001
EXTRACT: note_on channel=4 note=63 velocity=0 time=0
EXTRACT: note_on channel=4 note=58 velocity=0 time=0
EXTRACT: note_on channel=4 note=55 velocity=0 time=0
EXTRACT: note_on channel=4 note=67 velocity=0 time=0
EXTRACT: note_on channel=5 note=70 velocity=0 time=0
EXTRACT: note_on channel=5 note=65 velocity=0 time=0
EXTRACT: note_on channel=6 note=65 velocity=83 time=0
EXTRACT: note_on channel=9 note=36 velocity=113 time=0
EXTRACT: note_on channel=9 note=41 velocity=110 time=0
EXTRACT: note_on channel=9 note=46 velocity=80 time=0
EXTRACT: note_on channel=3 note=62 velocity=104 time=0
EXTRACT: note_on channel=9 note=46 velocity=0 time=0
EXTRACT: note_on channel=9 note=41 velocity=0 time=0
EXTRACT: note_on channel=9 note=36 velocity=0 time=0
EXTRACT: note_on channel=4 note=58 velocity=74 time=0.0057471250000000005
EXTRACT: note_on channel=4 note=62 velocity=69 time=0
EXTRACT: note_on channel=4 note=65 velocity=66 time=0
EXTRACT: note_on channel=4 note=53 velocity=66 time=0
EXTRACT: note_on channel=4 note=46 velocity=55 time=0
EXTRACT: note_on channel=5 note=65 velocity=74 time=0
EXTRACT: note_on channel=5 note=70 velocity=63 time=0
EXTRACT: note_on channel=3 note=62 velocity=0 time=0.2988505
EXTRACT: note_on channel=3 note=62 velocity=104 time=0
EXTRACT: note_on channel=4 note=46 velocity=0 time=0.0057471250000000005
EXTRACT: note_on channel=4 note=65 velocity=0 time=0
EXTRACT: note_on channel=4 note=58 velocity=0 time=0
EXTRACT: note_on channel=4 note=62 velocity=0 time=0
EXTRACT: note_on channel=4 note=53 velocity=0 time=0
EXTRACT: note_on channel=5 note=70 velocity=0 time=0
EXTRACT: note_on channel=5 note=65 velocity=0 time=0
EXTRACT: note_on channel=9 note=35 velocity=64 time=0
EXTRACT: note_on channel=9 note=38 velocity=64 time=0
EXTRACT: note_on channel=9 note=38 velocity=0 time=0.0057471250000000005
EXTRACT: note_on channel=9 note=35 velocity=0 time=0
EXTRACT: note_on channel=4 note=58 velocity=61 time=0.0057471250000000005
EXTRACT: note_on channel=4 note=62 velocity=61 time=0
EXTRACT: note_on channel=4 note=65 velocity=59 time=0
EXTRACT: note_on channel=4 note=53 velocity=60 time=0
EXTRACT: note_on channel=4 note=46 velocity=55 time=0
EXTRACT: note_on channel=5 note=70 velocity=62 time=0
EXTRACT: note_on channel=5 note=65 velocity=64 time=0
EXTRACT: note_on channel=6 note=62 velocity=82 time=0
EXTRACT: note_on channel=6 note=65 velocity=0 time=0.06321837500000001
EXTRACT: note_on channel=3 note=62 velocity=0 time=0.074712625
EXTRACT: note_on channel=3 note=62 velocity=104 time=0
EXTRACT: note_on channel=9 note=35 velocity=64 time=0.0057471250000000005
EXTRACT: note_on channel=9 note=35 velocity=0 time=0.0057471250000000005
EXTRACT: note_on channel=3 note=62 velocity=0 time=0.14367812500000002
EXTRACT: note_on channel=3 note=62 velocity=102 time=0
EXTRACT: note_on channel=4 note=46 velocity=0 time=0
EXTRACT: note_on channel=4 note=65 velocity=0 time=0
EXTRACT: note_on channel=4 note=58 velocity=0 time=0
EXTRACT: note_on channel=4 note=62 velocity=0 time=0
EXTRACT: note_on channel=4 note=53 velocity=0 time=0
EXTRACT: note_on channel=5 note=65 velocity=0 time=0
EXTRACT: note_on channel=5 note=70 velocity=0 time=0
EXTRACT: note_on channel=9 note=39 velocity=111 time=0
EXTRACT: note_on channel=2 note=34 velocity=0 time=0.0057471250000000005
EXTRACT: note_on channel=5 note=65 velocity=74 time=0
EXTRACT: note_on channel=6 note=62 velocity=0 time=0
EXTRACT: note_on channel=6 note=65 velocity=82 time=0
EXTRACT: note_on channel=9 note=39 velocity=0 time=0
EXTRACT: note_on channel=4 note=62 velocity=67 time=0.0057471250000000005
EXTRACT: note_on channel=4 note=58 velocity=65 time=0
EXTRACT: note_on channel=4 note=53 velocity=64 time=0
EXTRACT: note_on channel=4 note=65 velocity=63 time=0
EXTRACT: note_on channel=4 note=46 velocity=55 time=0
EXTRACT: note_on channel=5 note=70 velocity=65 time=0
EXTRACT: note_on channel=3 note=62 velocity=0 time=0.14942525
EXTRACT: note_on channel=9 note=37 velocity=57 time=0.011494250000000001
EXTRACT: note_on channel=3 note=62 velocity=98 time=0
EXTRACT: note_on channel=9 note=37 velocity=0 time=0
EXTRACT: note_on channel=3 note=62 velocity=0 time=0.14367812500000002
EXTRACT: note_on channel=5 note=65 velocity=0 time=0.017241375000000003
EXTRACT: note_on channel=4 note=46 velocity=0 time=0.0057471250000000005
EXTRACT: note_on channel=4 note=53 velocity=0 time=0
EXTRACT: note_on channel=4 note=62 velocity=0 time=0
EXTRACT: note_on channel=4 note=58 velocity=0 time=0
EXTRACT: note_on channel=4 note=65 velocity=0 time=0
EXTRACT: note_on channel=5 note=70 velocity=0 time=0
EXTRACT: note_on channel=5 note=70 velocity=61 time=0
EXTRACT: note_on channel=5 note=65 velocity=64 time=0
EXTRACT: note_on channel=3 note=60 velocity=98 time=0
EXTRACT: note_on channel=4 note=65 velocity=59 time=0.0057471250000000005
EXTRACT: note_on channel=4 note=62 velocity=64 time=0
EXTRACT: note_on channel=4 note=58 velocity=59 time=0
EXTRACT: note_on channel=4 note=53 velocity=60 time=0
EXTRACT: note_on channel=4 note=46 velocity=55 time=0
EXTRACT: note_on channel=6 note=62 velocity=78 time=0
EXTRACT: note_on channel=6 note=65 velocity=0 time=0.045977000000000004
EXTRACT: note_on channel=3 note=60 velocity=0 time=0.09195400000000001
EXTRACT: note_on channel=5 note=65 velocity=0 time=0.011494250000000001
EXTRACT: note_on channel=5 note=70 velocity=0 time=0
EXTRACT: note_on channel=3 note=62 velocity=86 time=0
EXTRACT: note_on channel=4 note=46 velocity=0 time=0
EXTRACT: note_on channel=4 note=58 velocity=0 time=0
EXTRACT: note_on channel=4 note=65 velocity=0 time=0
EXTRACT: note_on channel=4 note=62 velocity=0 time=0
EXTRACT: note_on channel=4 note=53 velocity=0 time=0
EXTRACT: note_on channel=5 note=70 velocity=65 time=0
EXTRACT: note_on channel=5 note=65 velocity=72 time=0
EXTRACT: note_on channel=9 note=39 velocity=108 time=0
EXTRACT: note_on channel=9 note=39 velocity=0 time=0.0057471250000000005
EXTRACT: note_on channel=4 note=58 velocity=67 time=0.0057471250000000005
EXTRACT: note_on channel=4 note=62 velocity=66 time=0
EXTRACT: note_on channel=4 note=53 velocity=63 time=0
EXTRACT: note_on channel=4 note=65 velocity=60 time=0
EXTRACT: note_on channel=4 note=46 velocity=55 time=0
EXTRACT: note_on channel=3 note=62 velocity=0 time=0.132183875
EXTRACT: note_on channel=3 note=62 velocity=102 time=0
EXTRACT: note_on channel=6 note=62 velocity=0 time=0.017241375000000003
EXTRACT: note_on channel=6 note=65 velocity=76 time=0
EXTRACT: note_on channel=5 note=65 velocity=0 time=0.14942525
EXTRACT: note_on channel=5 note=70 velocity=0 time=0
EXTRACT: note_on channel=4 note=46 velocity=0 time=0.011494250000000001
EXTRACT: note_on channel=4 note=53 velocity=0 time=0
EXTRACT: note_on channel=4 note=58 velocity=0 time=0
EXTRACT: note_on channel=4 note=62 velocity=0 time=0
EXTRACT: note_on channel=4 note=65 velocity=0 time=0
EXTRACT: note_on channel=5 note=70 velocity=60 time=0
EXTRACT: note_on channel=5 note=65 velocity=64 time=0
EXTRACT: note_on channel=9 note=35 velocity=61 time=0
EXTRACT: note_on channel=9 note=37 velocity=59 time=0
EXTRACT: note_on channel=9 note=37 velocity=0 time=0.0057471250000000005
EXTRACT: note_on channel=9 note=35 velocity=0 time=0
EXTRACT: note_on channel=4 note=62 velocity=65 time=0.0057471250000000005
EXTRACT: note_on channel=4 note=65 velocity=59 time=0
EXTRACT: note_on channel=4 note=58 velocity=65 time=0
EXTRACT: note_on channel=4 note=53 velocity=63 time=0
EXTRACT: note_on channel=4 note=46 velocity=55 time=0
EXTRACT: note_on channel=3 note=62 velocity=0 time=0.132183875
EXTRACT: note_on channel=5 note=65 velocity=0 time=0.017241375000000003
EXTRACT: note_on channel=5 note=70 velocity=0 time=0
EXTRACT: note_on channel=4 note=46 velocity=0 time=0.011494250000000001
EXTRACT: note_on channel=4 note=58 velocity=0 time=0
EXTRACT: note_on channel=4 note=62 velocity=0 time=0
EXTRACT: note_on channel=4 note=65 velocity=0 time=0
EXTRACT: note_on channel=4 note=53 velocity=0 time=0
EXTRACT: note_on channel=5 note=65 velocity=70 time=0
EXTRACT: note_on channel=5 note=70 velocity=65 time=0
EXTRACT: note_on channel=9 note=35 velocity=67 time=0
EXTRACT: note_on channel=9 note=37 velocity=64 time=0
EXTRACT: note_on channel=3 note=60 velocity=102 time=0
EXTRACT: note_on channel=9 note=37 velocity=0 time=0
EXTRACT: note_on channel=9 note=35 velocity=0 time=0
EXTRACT: note_on channel=4 note=58 velocity=64 time=0.0057471250000000005
EXTRACT: note_on channel=4 note=53 velocity=64 time=0
EXTRACT: note_on channel=4 note=62 velocity=64 time=0
EXTRACT: note_on channel=4 note=65 velocity=59 time=0
EXTRACT: note_on channel=4 note=46 velocity=55 time=0
EXTRACT: note_on channel=6 note=62 velocity=83 time=0
EXTRACT: note_on channel=6 note=65 velocity=0 time=0.06321837500000001
EXTRACT: note_on channel=3 note=60 velocity=0 time=0.074712625
EXTRACT: note_on channel=3 note=62 velocity=101 time=0
EXTRACT: note_on channel=5 note=70 velocity=0 time=0.155172375
EXTRACT: note_on channel=5 note=65 velocity=0 time=0
EXTRACT: note_on channel=3 note=62 velocity=0 time=0.011494250000000001
EXTRACT: note_on channel=4 note=46 velocity=0 time=0
EXTRACT: note_on channel=4 note=62 velocity=0 time=0
EXTRACT: note_on channel=4 note=58 velocity=0 time=0
EXTRACT: note_on channel=4 note=53 velocity=0 time=0
EXTRACT: note_on channel=4 note=65 velocity=0 time=0
EXTRACT: note_on channel=9 note=39 velocity=114 time=0
EXTRACT: note_on channel=3 note=62 velocity=101 time=0
EXTRACT: note_on channel=9 note=39 velocity=0 time=0
EXTRACT: note_on channel=4 note=53 velocity=66 time=0.0057471250000000005
EXTRACT: note_on channel=4 note=62 velocity=69 time=0
EXTRACT: note_on channel=4 note=58 velocity=75 time=0
EXTRACT: note_on channel=4 note=65 velocity=63 time=0
EXTRACT: note_on channel=4 note=46 velocity=55 time=0
EXTRACT: note_on channel=5 note=70 velocity=72 time=0
EXTRACT: note_on channel=5 note=65 velocity=72 time=0
EXTRACT: note_on channel=6 note=65 velocity=79 time=0
EXTRACT: note_on channel=6 note=62 velocity=0 time=0.022988500000000002
EXTRACT: note_on channel=3 note=62 velocity=0 time=0.13793100000000003
EXTRACT: note_on channel=4 note=46 velocity=0 time=0
EXTRACT: note_on channel=4 note=58 velocity=0 time=0
EXTRACT: note_on channel=4 note=53 velocity=0 time=0
EXTRACT: note_on channel=4 note=62 velocity=0 time=0
EXTRACT: note_on channel=4 note=65 velocity=0 time=0
EXTRACT: note_on channel=5 note=65 velocity=0 time=0
EXTRACT: note_on channel=5 note=70 velocity=0 time=0
EXTRACT: note_on channel=9 note=35 velocity=61 time=0
EXTRACT: note_on channel=3 note=62 velocity=101 time=0
EXTRACT: note_on channel=9 note=35 velocity=0 time=0
EXTRACT: note_on channel=4 note=58 velocity=66 time=0.0057471250000000005
EXTRACT: note_on channel=4 note=53 velocity=64 time=0
EXTRACT: note_on channel=4 note=62 velocity=66 time=0
EXTRACT: note_on channel=4 note=65 velocity=59 time=0
EXTRACT: note_on channel=4 note=46 velocity=55 time=0
EXTRACT: note_on channel=5 note=65 velocity=65 time=0
EXTRACT: note_on channel=5 note=70 velocity=63 time=0
EXTRACT: note_on channel=3 note=60 velocity=101 time=0
EXTRACT: note_on channel=3 note=62 velocity=0 time=0.0057471250000000005
EXTRACT: note_on channel=4 note=46 velocity=0 time=0
EXTRACT: note_on channel=4 note=62 velocity=0 time=0
EXTRACT: note_on channel=4 note=58 velocity=0 time=0
EXTRACT: note_on channel=4 note=53 velocity=0 time=0
EXTRACT: note_on channel=4 note=65 velocity=0 time=0
EXTRACT: note_on channel=5 note=70 velocity=0 time=0
EXTRACT: note_on channel=5 note=65 velocity=0 time=0
EXTRACT: note_on channel=9 note=28 velocity=51 time=0
EXTRACT: note_on channel=9 note=28 velocity=0 time=0.0057471250000000005
EXTRACT: note_on channel=4 note=53 velocity=60 time=0.0057471250000000005
EXTRACT: note_on channel=4 note=65 velocity=58 time=0
EXTRACT: note_on channel=4 note=58 velocity=63 time=0
EXTRACT: note_on channel=4 note=62 velocity=66 time=0
EXTRACT: note_on channel=4 note=46 velocity=55 time=0
EXTRACT: note_on channel=5 note=65 velocity=65 time=0
EXTRACT: note_on channel=5 note=70 velocity=61 time=0
EXTRACT: note_on channel=6 note=62 velocity=75 time=0
EXTRACT: note_on channel=6 note=65 velocity=0 time=0.028735625
EXTRACT: note_on channel=3 note=60 velocity=0 time=0.12068962500000001
EXTRACT: note_on channel=3 note=62 velocity=101 time=0
EXTRACT: note_on channel=4 note=46 velocity=0 time=0.0057471250000000005
EXTRACT: note_on channel=4 note=58 velocity=0 time=0
EXTRACT: note_on channel=4 note=53 velocity=0 time=0
EXTRACT: note_on channel=4 note=65 velocity=0 time=0
EXTRACT: note_on channel=4 note=62 velocity=0 time=0
EXTRACT: note_on channel=5 note=70 velocity=0 time=0
EXTRACT: note_on channel=5 note=65 velocity=0 time=0
EXTRACT: note_on channel=4 note=62 velocity=57 time=0.011494250000000001
EXTRACT: note_on channel=4 note=65 velocity=57 time=0
EXTRACT: note_on channel=4 note=53 velocity=57 time=0
EXTRACT: note_on channel=4 note=58 velocity=57 time=0
EXTRACT: note_on channel=4 note=46 velocity=55 time=0
EXTRACT: note_on channel=5 note=65 velocity=63 time=0
EXTRACT: note_on channel=5 note=70 velocity=60 time=0
EXTRACT: note_on channel=3 note=62 velocity=0 time=0.14942525
EXTRACT: note_on channel=6 note=62 velocity=0 time=0.0057471250000000005
EXTRACT: note_on channel=2 note=33 velocity=97 time=0.0057471250000000005
EXTRACT: note_on channel=4 note=46 velocity=0 time=0
EXTRACT: note_on channel=4 note=53 velocity=0 time=0
EXTRACT: note_on channel=4 note=62 velocity=0 time=0
EXTRACT: note_on channel=4 note=65 velocity=0 time=0
EXTRACT: note_on channel=4 note=58 velocity=0 time=0
EXTRACT: note_on channel=5 note=70 velocity=0 time=0
EXTRACT: note_on channel=5 note=65 velocity=0 time=0
EXTRACT: note_on channel=6 note=65 velocity=83 time=0
EXTRACT: note_on channel=9 note=36 velocity=114 time=0
EXTRACT: note_on channel=9 note=41 velocity=110 time=0
EXTRACT: note_on channel=9 note=46 velocity=81 time=0
EXTRACT: note_on channel=3 note=62 velocity=101 time=0
EXTRACT: note_on channel=9 note=46 velocity=0 time=0
EXTRACT: note_on channel=9 note=41 velocity=0 time=0
EXTRACT: note_on channel=9 note=36 velocity=0 time=0
EXTRACT: note_on channel=4 note=60 velocity=69 time=0.0057471250000000005
EXTRACT: note_on channel=4 note=57 velocity=69 time=0
EXTRACT: note_on channel=4 note=65 velocity=69 time=0
EXTRACT: note_on channel=4 note=45 velocity=55 time=0
EXTRACT: note_on channel=5 note=65 velocity=76 time=0
EXTRACT: note_on channel=5 note=70 velocity=69 time=0
EXTRACT: note_on channel=3 note=62 velocity=0 time=0.13793100000000003
EXTRACT: note_on channel=3 note=62 velocity=101 time=0
EXTRACT: note_on channel=3 note=62 velocity=0 time=0.14367812500000002
EXTRACT: note_on channel=3 note=62 velocity=101 time=0
EXTRACT: note_on channel=4 note=45 velocity=0 time=0.0057471250000000005
EXTRACT: note_on channel=4 note=60 velocity=0 time=0
EXTRACT: note_on channel=4 note=57 velocity=0 time=0
EXTRACT: note_on channel=4 note=65 velocity=0 time=0
EXTRACT: note_on channel=5 note=70 velocity=0 time=0
EXTRACT: note_on channel=5 note=65 velocity=0 time=0
EXTRACT: note_on channel=9 note=35 velocity=68 time=0
EXTRACT: note_on channel=9 note=38 velocity=68 time=0
EXTRACT: note_on channel=9 note=38 velocity=0 time=0.0057471250000000005
EXTRACT: note_on channel=9 note=35 velocity=0 time=0
EXTRACT: note_on channel=4 note=57 velocity=59 time=0.0057471250000000005
EXTRACT: note_on channel=4 note=65 velocity=66 time=0
EXTRACT: note_on channel=4 note=60 velocity=70 time=0
EXTRACT: note_on channel=4 note=45 velocity=55 time=0
EXTRACT: note_on channel=5 note=70 velocity=67 time=0
EXTRACT: note_on channel=5 note=65 velocity=71 time=0
EXTRACT: note_on channel=6 note=60 velocity=83 time=0
EXTRACT: note_on channel=6 note=65 velocity=0 time=0.028735625
EXTRACT: note_on channel=3 note=62 velocity=0 time=0.09770112500000001
EXTRACT: note_on channel=3 note=60 velocity=104 time=0
EXTRACT: note_on channel=9 note=35 velocity=63 time=0.0057471250000000005
EXTRACT: note_on channel=9 note=35 velocity=0 time=0.0057471250000000005
EXTRACT: note_on channel=3 note=60 velocity=0 time=0.12643675000000001
EXTRACT: note_on channel=2 note=33 velocity=0 time=0.034482750000000006
EXTRACT: note_on channel=4 note=45 velocity=0 time=0.0057471250000000005
EXTRACT: note_on channel=4 note=57 velocity=0 time=0
EXTRACT: note_on channel=4 note=65 velocity=0 time=0
EXTRACT: note_on channel=4 note=60 velocity=0 time=0
EXTRACT: note_on channel=5 note=65 velocity=0 time=0
EXTRACT: note_on channel=5 note=70 velocity=0 time=0
EXTRACT: note_on channel=9 note=39 velocity=110 time=0
EXTRACT: note_on channel=3 note=62 velocity=104 time=0
EXTRACT: note_on channel=9 note=39 velocity=0 time=0
EXTRACT: note_on channel=4 note=57 velocity=75 time=0.0057471250000000005
EXTRACT: note_on channel=4 note=60 velocity=75 time=0
EXTRACT: note_on channel=4 note=65 velocity=75 time=0
EXTRACT: note_on channel=4 note=45 velocity=55 time=0
EXTRACT: note_on channel=5 note=70 velocity=65 time=0
EXTRACT: note_on channel=5 note=65 velocity=71 time=0
EXTRACT: note_on channel=6 note=65 velocity=76 time=0
EXTRACT: note_on channel=6 note=60 velocity=0 time=0.0057471250000000005
EXTRACT: note_on channel=3 note=62 velocity=0 time=0.12643675000000001
EXTRACT: note_on channel=3 note=62 velocity=104 time=0
EXTRACT: note_on channel=9 note=37 velocity=57 time=0.0057471250000000005
EXTRACT: note_on channel=9 note=37 velocity=0 time=0.0057471250000000005
EXTRACT: note_on channel=3 note=62 velocity=0 time=0.12643675000000001
EXTRACT: note_on channel=3 note=63 velocity=104 time=0
EXTRACT: note_on channel=4 note=45 velocity=0 time=0.0057471250000000005
EXTRACT: note_on channel=4 note=57 velocity=0 time=0
EXTRACT: note_on channel=4 note=60 velocity=0 time=0
EXTRACT: note_on channel=4 note=65 velocity=0 time=0
EXTRACT: note_on channel=5 note=65 velocity=0 time=0
EXTRACT: note_on channel=5 note=70 velocity=0 time=0
EXTRACT: note_on channel=4 note=65 velocity=60 time=0.011494250000000001
EXTRACT: note_on channel=4 note=57 velocity=60 time=0
EXTRACT: note_on channel=4 note=60 velocity=59 time=0
EXTRACT: note_on channel=4 note=45 velocity=55 time=0
EXTRACT: note_on channel=5 note=65 velocity=64 time=0
EXTRACT: note_on channel=5 note=70 velocity=59 time=0
EXTRACT: note_on channel=6 note=60 velocity=77 time=0
EXTRACT: note_on channel=6 note=65 velocity=0 time=0.034482750000000006
EXTRACT: note_on channel=3 note=63 velocity=0 time=0.086206875
EXTRACT: note_on channel=3 note=63 velocity=104 time=0
EXTRACT: note_on channel=4 note=45 velocity=0 time=0.0057471250000000005
EXTRACT: note_on channel=4 note=65 velocity=0 time=0
EXTRACT: note_on channel=4 note=57 velocity=0 time=0
EXTRACT: note_on channel=4 note=60 velocity=0 time=0
EXTRACT: note_on channel=5 note=70 velocity=0 time=0
EXTRACT: note_on channel=5 note=65 velocity=0 time=0
EXTRACT: note_on channel=9 note=39 velocity=110 time=0
EXTRACT: note_on channel=9 note=39 velocity=0 time=0.0057471250000000005
EXTRACT: note_on channel=4 note=60 velocity=74 time=0.0057471250000000005
EXTRACT: note_on channel=4 note=65 velocity=74 time=0
EXTRACT: note_on channel=4 note=57 velocity=74 time=0
EXTRACT: note_on channel=4 note=45 velocity=55 time=0
EXTRACT: note_on channel=5 note=65 velocity=69 time=0
EXTRACT: note_on channel=5 note=70 velocity=65 time=0
EXTRACT: note_on channel=3 note=63 velocity=0 time=0.12068962500000001
EXTRACT: note_on channel=3 note=63 velocity=102 time=0
EXTRACT: note_on channel=6 note=65 velocity=72 time=0.017241375000000003
EXTRACT: note_on channel=6 note=60 velocity=0 time=0.040229875000000005
EXTRACT: note_on channel=3 note=63 velocity=0 time=0.074712625
EXTRACT: note_on channel=3 note=63 velocity=100 time=0
EXTRACT: note_on channel=4 note=45 velocity=0 time=0.0057471250000000005
EXTRACT: note_on channel=4 note=60 velocity=0 time=0
EXTRACT: note_on channel=4 note=65 velocity=0 time=0
EXTRACT: note_on channel=4 note=57 velocity=0 time=0
EXTRACT: note_on channel=5 note=70 velocity=0 time=0
EXTRACT: note_on channel=5 note=65 velocity=0 time=0
EXTRACT: note_on channel=9 note=35 velocity=62 time=0
EXTRACT: note_on channel=9 note=37 velocity=59 time=0
EXTRACT: note_on channel=9 note=37 velocity=0 time=0.0057471250000000005
EXTRACT: note_on channel=9 note=35 velocity=0 time=0
EXTRACT: note_on channel=4 note=57 velocity=63 time=0.0057471250000000005
EXTRACT: note_on channel=4 note=60 velocity=70 time=0
EXTRACT: note_on channel=4 note=65 velocity=69 time=0
EXTRACT: note_on channel=4 note=45 velocity=55 time=0
EXTRACT: note_on channel=5 note=65 velocity=72 time=0
EXTRACT: note_on channel=5 note=70 velocity=67 time=0
EXTRACT: note_on channel=3 note=63 velocity=0 time=0.12068962500000001
EXTRACT: note_on channel=4 note=45 velocity=0 time=0.040229875000000005
EXTRACT: note_on channel=4 note=57 velocity=0 time=0
EXTRACT: note_on channel=4 note=60 velocity=0 time=0
EXTRACT: note_on channel=4 note=65 velocity=0 time=0
EXTRACT: note_on channel=5 note=70 velocity=0 time=0
EXTRACT: note_on channel=5 note=65 velocity=0 time=0
EXTRACT: note_on channel=9 note=35 velocity=65 time=0
EXTRACT: note_on channel=9 note=37 velocity=63 time=0
EXTRACT: note_on channel=9 note=37 velocity=0 time=0.0057471250000000005
EXTRACT: note_on channel=9 note=35 velocity=0 time=0
EXTRACT: note_on channel=4 note=57 velocity=64 time=0.0057471250000000005
EXTRACT: note_on channel=4 note=60 velocity=75 time=0
EXTRACT: note_on channel=4 note=65 velocity=71 time=0
EXTRACT: note_on channel=4 note=45 velocity=55 time=0
EXTRACT: note_on channel=5 note=65 velocity=69 time=0
EXTRACT: note_on channel=5 note=70 velocity=64 time=0
EXTRACT: note_on channel=6 note=60 velocity=78 time=0
EXTRACT: note_on channel=6 note=65 velocity=0 time=0.022988500000000002
EXTRACT: note_on channel=3 note=62 velocity=95 time=0
EXTRACT: note_on channel=3 note=62 velocity=0 time=0.12643675000000001
EXTRACT: note_on channel=3 note=67 velocity=101 time=0
EXTRACT: note_on channel=4 note=45 velocity=0 time=0.0057471250000000005
EXTRACT: note_on channel=4 note=57 velocity=0 time=0
EXTRACT: note_on channel=4 note=60 velocity=0 time=0
EXTRACT: note_on channel=4 note=65 velocity=0 time=0
EXTRACT: note_on channel=5 note=70 velocity=0 time=0
EXTRACT: note_on channel=5 note=65 velocity=0 time=0
EXTRACT: note_on channel=9 note=39 velocity=109 time=0
EXTRACT: note_on channel=9 note=39 velocity=0 time=0.0057471250000000005
EXTRACT: note_on channel=4 note=60 velocity=74 time=0.0057471250000000005
EXTRACT: note_on channel=4 note=65 velocity=74 time=0
EXTRACT: note_on channel=4 note=57 velocity=74 time=0
EXTRACT: note_on channel=4 note=45 velocity=55 time=0
EXTRACT: note_on channel=5 note=65 velocity=76 time=0
EXTRACT: note_on channel=5 note=70 velocity=69 time=0
EXTRACT: note_on channel=6 note=65 velocity=74 time=0
EXTRACT: note_on channel=6 note=60 velocity=0 time=0.011494250000000001
EXTRACT: note_on channel=3 note=67 velocity=0 time=0.132183875
EXTRACT: note_on channel=4 note=45 velocity=0 time=0.017241375000000003
EXTRACT: note_on channel=4 note=60 velocity=0 time=0
EXTRACT: note_on channel=4 note=65 velocity=0 time=0
EXTRACT: note_on channel=4 note=57 velocity=0 time=0
EXTRACT: note_on channel=5 note=70 velocity=0 time=0
EXTRACT: note_on channel=5 note=65 velocity=0 time=0
EXTRACT: note_on channel=9 note=35 velocity=62 time=0
EXTRACT: note_on channel=3 note=62 velocity=101 time=0
EXTRACT: note_on channel=9 note=35 velocity=0 time=0
EXTRACT: note_on channel=4 note=60 velocity=77 time=0.0057471250000000005
EXTRACT: note_on channel=4 note=57 velocity=65 time=0
EXTRACT: note_on channel=4 note=65 velocity=69 time=0
EXTRACT: note_on channel=4 note=45 velocity=55 time=0
EXTRACT: note_on channel=5 note=65 velocity=69 time=0
EXTRACT: note_on channel=5 note=70 velocity=67 time=0
EXTRACT: note_on channel=3 note=62 velocity=0 time=0.155172375
EXTRACT: note_on channel=3 note=62 velocity=101 time=0
EXTRACT: note_on channel=4 note=45 velocity=0 time=0
EXTRACT: note_on channel=4 note=60 velocity=0 time=0
EXTRACT: note_on channel=4 note=57 velocity=0 time=0
EXTRACT: note_on channel=4 note=65 velocity=0 time=0
EXTRACT: note_on channel=5 note=70 velocity=0 time=0
EXTRACT: note_on channel=5 note=65 velocity=0 time=0
EXTRACT: note_on channel=9 note=28 velocity=52 time=0
EXTRACT: note_on channel=9 note=28 velocity=0 time=0.0057471250000000005
EXTRACT: note_on channel=4 note=60 velocity=79 time=0.0057471250000000005
EXTRACT: note_on channel=4 note=57 velocity=65 time=0
EXTRACT: note_on channel=4 note=65 velocity=72 time=0
EXTRACT: note_on channel=4 note=45 velocity=55 time=0
EXTRACT: note_on channel=5 note=65 velocity=64 time=0
EXTRACT: note_on channel=5 note=70 velocity=63 time=0
EXTRACT: note_on channel=6 note=60 velocity=75 time=0
EXTRACT: note_on channel=3 note=62 velocity=0 time=0.14942525
EXTRACT: note_on channel=2 note=33 velocity=80 time=0.011494250000000001
EXTRACT: note_on channel=4 note=45 velocity=0 time=0
EXTRACT: note_on channel=4 note=60 velocity=0 time=0
EXTRACT: note_on channel=4 note=57 velocity=0 time=0
EXTRACT: note_on channel=4 note=65 velocity=0 time=0
EXTRACT: note_on channel=5 note=70 velocity=0 time=0
EXTRACT: note_on channel=5 note=65 velocity=0 time=0
EXTRACT: note_on channel=9 note=36 velocity=110 time=0
EXTRACT: note_on channel=9 note=41 velocity=110 time=0
EXTRACT: note_on channel=3 note=62 velocity=101 time=0
EXTRACT: note_on channel=9 note=41 velocity=0 time=0
EXTRACT: note_on channel=9 note=36 velocity=0 time=0
EXTRACT: note_on channel=4 note=65 velocity=65 time=0.0057471250000000005
EXTRACT: note_on channel=4 note=60 velocity=65 time=0
EXTRACT: note_on channel=4 note=57 velocity=65 time=0
EXTRACT: note_on channel=4 note=45 velocity=55 time=0
EXTRACT: note_on channel=5 note=65 velocity=64 time=0
EXTRACT: note_on channel=5 note=70 velocity=64 time=0
EXTRACT: note_on channel=6 note=65 velocity=0 time=0.1149425
EXTRACT: note_on channel=6 note=60 velocity=0 time=0.011494250000000001
EXTRACT: note_on channel=2 note=33 velocity=0 time=0.017241375000000003
EXTRACT: note_on channel=3 note=62 velocity=0 time=0.011494250000000001
EXTRACT: note_on channel=2 note=31 velocity=95 time=0
EXTRACT: note_on channel=3 note=62 velocity=98 time=0
EXTRACT: note_on channel=4 note=45 velocity=0 time=0
EXTRACT: note_on channel=4 note=65 velocity=0 time=0
EXTRACT: note_on channel=4 note=60 velocity=0 time=0
EXTRACT: note_on channel=4 note=57 velocity=0 time=0
EXTRACT: note_on channel=5 note=70 velocity=0 time=0
EXTRACT: note_on channel=5 note=65 velocity=0 time=0
EXTRACT: note_on channel=9 note=36 velocity=113 time=0
EXTRACT: note_on channel=9 note=41 velocity=110 time=0
EXTRACT: note_on channel=9 note=46 velocity=80 time=0
EXTRACT: note_on channel=4 note=43 velocity=55 time=0.0057471250000000005
EXTRACT: note_on channel=5 note=62 velocity=65 time=0
EXTRACT: note_on channel=6 note=67 velocity=78 time=0
EXTRACT: note_on channel=9 note=46 velocity=0 time=0
EXTRACT: note_on channel=9 note=41 velocity=0 time=0
EXTRACT: note_on channel=9 note=36 velocity=0 time=0
EXTRACT: note_on channel=5 note=67 velocity=74 time=0.0057471250000000005
EXTRACT: note_on channel=5 note=70 velocity=65 time=0
EXTRACT: note_on channel=4 note=58 velocity=68 time=0.0057471250000000005
EXTRACT: note_on channel=4 note=62 velocity=68 time=0
EXTRACT: note_on channel=4 note=67 velocity=63 time=0
EXTRACT: note_on channel=4 note=55 velocity=62 time=0
EXTRACT: note_on channel=3 note=62 velocity=0 time=0.12068962500000001
EXTRACT: note_on channel=3 note=62 velocity=98 time=0
EXTRACT: note_on channel=3 note=62 velocity=0 time=0.13793100000000003
EXTRACT: note_on channel=3 note=62 velocity=102 time=0
EXTRACT: note_on channel=4 note=43 velocity=0 time=0
EXTRACT: note_on channel=5 note=62 velocity=0 time=0
EXTRACT: note_on channel=5 note=70 velocity=0 time=0.0057471250000000005
EXTRACT: note_on channel=5 note=67 velocity=0 time=0
EXTRACT: note_on channel=9 note=35 velocity=64 time=0
EXTRACT: note_on channel=9 note=38 velocity=64 time=0
EXTRACT: note_on channel=4 note=67 velocity=0 time=0.0057471250000000005
EXTRACT: note_on channel=4 note=58 velocity=0 time=0
EXTRACT: note_on channel=4 note=62 velocity=0 time=0
EXTRACT: note_on channel=4 note=55 velocity=0 time=0
EXTRACT: note_on channel=4 note=43 velocity=55 time=0
EXTRACT: note_on channel=9 note=38 velocity=0 time=0
EXTRACT: note_on channel=9 note=35 velocity=0 time=0
EXTRACT: note_on channel=4 note=58 velocity=62 time=0.011494250000000001
EXTRACT: note_on channel=4 note=55 velocity=59 time=0
EXTRACT: note_on channel=4 note=67 velocity=58 time=0
EXTRACT: note_on channel=4 note=62 velocity=64 time=0
EXTRACT: note_on channel=5 note=67 velocity=59 time=0
EXTRACT: note_on channel=5 note=62 velocity=58 time=0
EXTRACT: note_on channel=5 note=70 velocity=58 time=0
EXTRACT: note_on channel=6 note=62 velocity=79 time=0
EXTRACT: note_on channel=6 note=67 velocity=0 time=0.06321837500000001
EXTRACT: note_on channel=3 note=62 velocity=0 time=0.045977000000000004
EXTRACT: note_on channel=3 note=62 velocity=90 time=0
EXTRACT: note_on channel=9 note=35 velocity=64 time=0.0057471250000000005
EXTRACT: note_on channel=9 note=35 velocity=0 time=0.0057471250000000005
EXTRACT: note_on channel=3 note=62 velocity=0 time=0.1149425
EXTRACT: note_on channel=3 note=62 velocity=101 time=0
EXTRACT: note_on channel=2 note=31 velocity=0 time=0
EXTRACT: note_on channel=4 note=43 velocity=0 time=0
EXTRACT: note_on channel=9 note=39 velocity=111 time=0.0057471250000000005
EXTRACT: note_on channel=4 note=67 velocity=0 time=0.0057471250000000005
EXTRACT: note_on channel=4 note=58 velocity=0 time=0
EXTRACT: note_on channel=4 note=55 velocity=0 time=0
EXTRACT: note_on channel=4 note=62 velocity=0 time=0
EXTRACT: note_on channel=4 note=43 velocity=55 time=0
EXTRACT: note_on channel=5 note=70 velocity=0 time=0
EXTRACT: note_on channel=5 note=62 velocity=0 time=0
EXTRACT: note_on channel=5 note=67 velocity=0 time=0
EXTRACT: note_on channel=9 note=39 velocity=0 time=0
EXTRACT: note_on channel=4 note=58 velocity=67 time=0.011494250000000001
EXTRACT: note_on channel=4 note=55 velocity=65 time=0
EXTRACT: note_on channel=4 note=62 velocity=69 time=0
EXTRACT: note_on channel=4 note=67 velocity=61 time=0
EXTRACT: note_on channel=5 note=62 velocity=63 time=0
EXTRACT: note_on channel=5 note=67 velocity=70 time=0
EXTRACT: note_on channel=5 note=70 velocity=63 time=0
EXTRACT: note_on channel=6 note=67 velocity=77 time=0
EXTRACT: note_on channel=6 note=62 velocity=0 time=0.017241375000000003
EXTRACT: note_on channel=3 note=62 velocity=0 time=0.12068962500000001
EXTRACT: note_on channel=9 note=37 velocity=57 time=0.017241375000000003
EXTRACT: note_on channel=3 note=62 velocity=99 time=0
EXTRACT: note_on channel=9 note=37 velocity=0 time=0
EXTRACT: note_on channel=3 note=62 velocity=0 time=0.14367812500000002
EXTRACT: note_on channel=4 note=43 velocity=0 time=0.017241375000000003
EXTRACT: note_on channel=3 note=62 velocity=99 time=0
EXTRACT: note_on channel=4 note=62 velocity=0 time=0
EXTRACT: note_on channel=4 note=58 velocity=0 time=0
EXTRACT: note_on channel=4 note=55 velocity=0 time=0
EXTRACT: note_on channel=4 note=67 velocity=0 time=0
EXTRACT: note_on channel=4 note=43 velocity=55 time=0
EXTRACT: note_on channel=5 note=70 velocity=0 time=0
EXTRACT: note_on channel=5 note=67 velocity=0 time=0
EXTRACT: note_on channel=5 note=62 velocity=0 time=0
EXTRACT: note_on channel=4 note=58 velocity=60 time=0.011494250000000001
EXTRACT: note_on channel=4 note=62 velocity=63 time=0
EXTRACT: note_on channel=4 note=55 velocity=58 time=0
EXTRACT: note_on channel=4 note=67 velocity=54 time=0
EXTRACT: note_on channel=5 note=67 velocity=59 time=0
EXTRACT: note_on channel=5 note=62 velocity=58 time=0
EXTRACT: note_on channel=5 note=70 velocity=57 time=0
EXTRACT: note_on channel=6 note=62 velocity=77 time=0
EXTRACT: note_on channel=6 note=67 velocity=0 time=0.045977000000000004
EXTRACT: note_on channel=3 note=62 velocity=0 time=0.086206875
EXTRACT: note_on channel=3 note=62 velocity=101 time=0
EXTRACT: note_on channel=4 note=43 velocity=0 time=0
EXTRACT: note_on channel=9 note=39 velocity=108 time=0.0057471250000000005
EXTRACT: note_on channel=4 note=55 velocity=0 time=0.0057471250000000005
EXTRACT: note_on channel=4 note=58 velocity=0 time=0
EXTRACT: note_on channel=4 note=62 velocity=0 time=0
EXTRACT: note_on channel=4 note=67 velocity=0 time=0
EXTRACT: note_on channel=4 note=43 velocity=55 time=0
EXTRACT: note_on channel=5 note=70 velocity=0 time=0
EXTRACT: note_on channel=5 note=62 velocity=0 time=0
EXTRACT: note_on channel=5 note=67 velocity=0 time=0
EXTRACT: note_on channel=9 note=39 velocity=0 time=0
EXTRACT: note_on channel=4 note=58 velocity=71 time=0.011494250000000001
EXTRACT: note_on channel=4 note=55 velocity=63 time=0
EXTRACT: note_on channel=4 note=62 velocity=71 time=0
EXTRACT: note_on channel=4 note=67 velocity=63 time=0
EXTRACT: note_on channel=5 note=62 velocity=63 time=0
EXTRACT: note_on channel=5 note=67 velocity=69 time=0
EXTRACT: note_on channel=5 note=70 velocity=63 time=0
EXTRACT: note_on channel=3 note=62 velocity=0 time=0.10344825
EXTRACT: note_on channel=3 note=62 velocity=98 time=0
EXTRACT: note_on channel=6 note=67 velocity=75 time=0.022988500000000002
EXTRACT: note_on channel=6 note=62 velocity=0 time=0.028735625
EXTRACT: note_on channel=3 note=62 velocity=0 time=0.074712625
EXTRACT: note_on channel=3 note=62 velocity=98 time=0
EXTRACT: note_on channel=4 note=43 velocity=0 time=0
EXTRACT: note_on channel=9 note=35 velocity=61 time=0.0057471250000000005
EXTRACT: note_on channel=9 note=37 velocity=59 time=0
EXTRACT: note_on channel=4 note=62 velocity=0 time=0.0057471250000000005
EXTRACT: note_on channel=4 note=58 velocity=0 time=0
EXTRACT: note_on channel=4 note=55 velocity=0 time=0
EXTRACT: note_on channel=4 note=67 velocity=0 time=0
EXTRACT: note_on channel=4 note=43 velocity=55 time=0
EXTRACT: note_on channel=5 note=70 velocity=0 time=0
EXTRACT: note_on channel=5 note=67 velocity=0 time=0
EXTRACT: note_on channel=5 note=62 velocity=0 time=0
EXTRACT: note_on channel=9 note=37 velocity=0 time=0
EXTRACT: note_on channel=9 note=35 velocity=0 time=0
EXTRACT: note_on channel=4 note=58 velocity=63 time=0.011494250000000001
EXTRACT: note_on channel=4 note=62 velocity=64 time=0
EXTRACT: note_on channel=4 note=55 velocity=60 time=0
EXTRACT: note_on channel=4 note=67 velocity=58 time=0
EXTRACT: note_on channel=5 note=62 velocity=57 time=0
EXTRACT: note_on channel=5 note=67 velocity=59 time=0
EXTRACT: note_on channel=5 note=70 velocity=58 time=0
EXTRACT: note_on channel=3 note=62 velocity=0 time=0.10344825
EXTRACT: note_on channel=3 note=62 velocity=98 time=0
EXTRACT: note_on channel=4 note=43 velocity=0 time=0
EXTRACT: note_on channel=9 note=35 velocity=67 time=0.0057471250000000005
EXTRACT: note_on channel=9 note=37 velocity=64 time=0
EXTRACT: note_on channel=4 note=55 velocity=0 time=0.0057471250000000005
EXTRACT: note_on channel=4 note=58 velocity=0 time=0
EXTRACT: note_on channel=4 note=62 velocity=0 time=0
EXTRACT: note_on channel=4 note=67 velocity=0 time=0
EXTRACT: note_on channel=4 note=43 velocity=55 time=0
EXTRACT: note_on channel=5 note=70 velocity=0 time=0
EXTRACT: note_on channel=5 note=67 velocity=0 time=0
EXTRACT: note_on channel=5 note=62 velocity=0 time=0
EXTRACT: note_on channel=9 note=37 velocity=0 time=0
EXTRACT: note_on channel=9 note=35 velocity=0 time=0
EXTRACT: note_on channel=4 note=58 velocity=65 time=0.011494250000000001
EXTRACT: note_on channel=4 note=55 velocity=58 time=0
EXTRACT: note_on channel=4 note=62 velocity=71 time=0
EXTRACT: note_on channel=4 note=67 velocity=60 time=0
EXTRACT: note_on channel=5 note=62 velocity=59 time=0
EXTRACT: note_on channel=5 note=67 velocity=67 time=0
EXTRACT: note_on channel=5 note=70 velocity=65 time=0
EXTRACT: note_on channel=6 note=62 velocity=76 time=0
EXTRACT: note_on channel=6 note=67 velocity=0 time=0.051724125
EXTRACT: note_on channel=3 note=62 velocity=0 time=0.051724125
EXTRACT: note_on channel=3 note=62 velocity=104 time=0
EXTRACT: note_on channel=3 note=62 velocity=0 time=0.14367812500000002
EXTRACT: note_on channel=4 note=43 velocity=0 time=0.028735625
EXTRACT: note_on channel=9 note=39 velocity=114 time=0.0057471250000000005
EXTRACT: note_on channel=3 note=62 velocity=93 time=0
EXTRACT: note_on channel=4 note=62 velocity=0 time=0
EXTRACT: note_on channel=4 note=58 velocity=0 time=0
EXTRACT: note_on channel=4 note=55 velocity=0 time=0
EXTRACT: note_on channel=4 note=67 velocity=0 time=0
EXTRACT: note_on channel=4 note=43 velocity=55 time=0
EXTRACT: note_on channel=5 note=70 velocity=0 time=0
EXTRACT: note_on channel=5 note=67 velocity=0 time=0
EXTRACT: note_on channel=5 note=62 velocity=0 time=0
EXTRACT: note_on channel=9 note=39 velocity=0 time=0
EXTRACT: note_on channel=6 note=62 velocity=0 time=0.0057471250000000005
EXTRACT: note_on channel=4 note=58 velocity=70 time=0.0057471250000000005
EXTRACT: note_on channel=4 note=55 velocity=63 time=0
EXTRACT: note_on channel=4 note=62 velocity=69 time=0
EXTRACT: note_on channel=4 note=67 velocity=63 time=0
EXTRACT: note_on channel=5 note=67 velocity=69 time=0
EXTRACT: note_on channel=5 note=62 velocity=65 time=0
EXTRACT: note_on channel=5 note=70 velocity=66 time=0
EXTRACT: note_on channel=6 note=67 velocity=74 time=0
EXTRACT: note_on channel=3 note=62 velocity=0 time=0.132183875
EXTRACT: note_on channel=3 note=62 velocity=98 time=0
EXTRACT: note_on channel=4 note=43 velocity=0 time=0
EXTRACT: note_on channel=9 note=35 velocity=61 time=0.0057471250000000005
EXTRACT: note_on channel=4 note=62 velocity=0 time=0.0057471250000000005
EXTRACT: note_on channel=4 note=58 velocity=0 time=0
EXTRACT: note_on channel=4 note=55 velocity=0 time=0
EXTRACT: note_on channel=4 note=67 velocity=0 time=0
EXTRACT: note_on channel=4 note=43 velocity=55 time=0
EXTRACT: note_on channel=5 note=70 velocity=0 time=0
EXTRACT: note_on channel=5 note=62 velocity=0 time=0
EXTRACT: note_on channel=5 note=67 velocity=0 time=0
EXTRACT: note_on channel=9 note=35 velocity=0 time=0
EXTRACT: note_on channel=4 note=58 velocity=65 time=0.011494250000000001
EXTRACT: note_on channel=4 note=62 velocity=67 time=0
EXTRACT: note_on channel=4 note=55 velocity=57 time=0
EXTRACT: note_on channel=4 note=67 velocity=58 time=0
EXTRACT: note_on channel=5 note=62 velocity=48 time=0
EXTRACT: note_on channel=5 note=67 velocity=66 time=0
EXTRACT: note_on channel=5 note=70 velocity=63 time=0
EXTRACT: note_on channel=3 note=62 velocity=0 time=0.1149425
EXTRACT: note_on channel=3 note=62 velocity=104 time=0
EXTRACT: note_on channel=4 note=43 velocity=0 time=0
EXTRACT: note_on channel=9 note=28 velocity=51 time=0.0057471250000000005
EXTRACT: note_on channel=4 note=55 velocity=0 time=0.0057471250000000005
EXTRACT: note_on channel=4 note=58 velocity=0 time=0
EXTRACT: note_on channel=4 note=62 velocity=0 time=0
EXTRACT: note_on channel=4 note=67 velocity=0 time=0
EXTRACT: note_on channel=4 note=43 velocity=55 time=0
EXTRACT: note_on channel=5 note=70 velocity=0 time=0
EXTRACT: note_on channel=5 note=67 velocity=0 time=0
EXTRACT: note_on channel=5 note=62 velocity=0 time=0
EXTRACT: note_on channel=9 note=28 velocity=0 time=0
EXTRACT: note_on channel=4 note=58 velocity=68 time=0.011494250000000001
EXTRACT: note_on channel=4 note=55 velocity=63 time=0
EXTRACT: note_on channel=4 note=62 velocity=69 time=0
EXTRACT: note_on channel=4 note=67 velocity=61 time=0
EXTRACT: note_on channel=5 note=62 velocity=55 time=0
EXTRACT: note_on channel=5 note=67 velocity=67 time=0
EXTRACT: note_on channel=5 note=70 velocity=63 time=0
EXTRACT: note_on channel=6 note=65 velocity=78 time=0
EXTRACT: note_on channel=6 note=67 velocity=0 time=0.028735625
EXTRACT: note_on channel=3 note=62 velocity=0 time=0.086206875
EXTRACT: note_on channel=3 note=62 velocity=104 time=0
EXTRACT: note_on channel=4 note=43 velocity=0 time=0
EXTRACT: note_on channel=4 note=62 velocity=0 time=0.011494250000000001
EXTRACT: note_on channel=4 note=58 velocity=0 time=0
EXTRACT: note_on channel=4 note=55 velocity=0 time=0
EXTRACT: note_on channel=4 note=67 velocity=0 time=0
EXTRACT: note_on channel=4 note=43 velocity=55 time=0
EXTRACT: note_on channel=5 note=70 velocity=0 time=0
EXTRACT: note_on channel=5 note=67 velocity=0 time=0
EXTRACT: note_on channel=5 note=62 velocity=0 time=0
EXTRACT: note_on channel=4 note=58 velocity=59 time=0.011494250000000001
EXTRACT: note_on channel=4 note=67 velocity=59 time=0
EXTRACT: note_on channel=4 note=55 velocity=59 time=0
EXTRACT: note_on channel=4 note=62 velocity=59 time=0
EXTRACT: note_on channel=5 note=62 velocity=63 time=0
EXTRACT: note_on channel=5 note=67 velocity=63 time=0
EXTRACT: note_on channel=5 note=70 velocity=63 time=0
EXTRACT: note_on channel=3 note=62 velocity=0 time=0.12068962500000001
EXTRACT: note_on channel=6 note=65 velocity=0 time=0.017241375000000003
EXTRACT: note_on channel=2 note=27 velocity=97 time=0.011494250000000001
EXTRACT: note_on channel=4 note=43 velocity=0 time=0
EXTRACT: note_on channel=3 note=62 velocity=103 time=0
EXTRACT: note_on channel=9 note=36 velocity=114 time=0
EXTRACT: note_on channel=9 note=41 velocity=110 time=0
EXTRACT: note_on channel=9 note=46 velocity=81 time=0
EXTRACT: note_on channel=4 note=55 velocity=0 time=0.0057471250000000005
EXTRACT: note_on channel=4 note=58 velocity=0 time=0
EXTRACT: note_on channel=4 note=67 velocity=0 time=0
EXTRACT: note_on channel=4 note=62 velocity=0 time=0
EXTRACT: note_on channel=4 note=39 velocity=55 time=0
EXTRACT: note_on channel=5 note=70 velocity=0 time=0
EXTRACT: note_on channel=5 note=67 velocity=0 time=0
EXTRACT: note_on channel=5 note=62 velocity=0 time=0
EXTRACT: note_on channel=9 note=46 velocity=0 time=0
EXTRACT: note_on channel=9 note=41 velocity=0 time=0
EXTRACT: note_on channel=9 note=36 velocity=0 time=0
EXTRACT: note_on channel=5 note=70 velocity=65 time=0.0057471250000000005
EXTRACT: note_on channel=6 note=67 velocity=74 time=0
EXTRACT: note_on channel=4 note=63 velocity=64 time=0.0057471250000000005
EXTRACT: note_on channel=4 note=67 velocity=63 time=0
EXTRACT: note_on channel=4 note=58 velocity=65 time=0
EXTRACT: note_on channel=4 note=55 velocity=64 time=0
EXTRACT: note_on channel=5 note=65 velocity=74 time=0
EXTRACT: note_on channel=3 note=62 velocity=0 time=0.27586200000000005
EXTRACT: note_on channel=3 note=62 velocity=83 time=0
EXTRACT: note_on channel=4 note=39 velocity=0 time=0
EXTRACT: note_on channel=5 note=70 velocity=0 time=0.0057471250000000005
EXTRACT: note_on channel=9 note=35 velocity=68 time=0
EXTRACT: note_on channel=9 note=38 velocity=68 time=0
EXTRACT: note_on channel=4 note=58 velocity=0 time=0.0057471250000000005
EXTRACT: note_on channel=4 note=63 velocity=0 time=0
EXTRACT: note_on channel=4 note=67 velocity=0 time=0
EXTRACT: note_on channel=4 note=55 velocity=0 time=0
EXTRACT: note_on channel=4 note=39 velocity=55 time=0
EXTRACT: note_on channel=5 note=65 velocity=0 time=0
EXTRACT: note_on channel=9 note=38 velocity=0 time=0
EXTRACT: note_on channel=9 note=35 velocity=0 time=0
EXTRACT: note_on channel=4 note=58 velocity=61 time=0.011494250000000001
EXTRACT: note_on channel=4 note=63 velocity=63 time=0
EXTRACT: note_on channel=4 note=55 velocity=58 time=0
EXTRACT: note_on channel=4 note=67 velocity=56 time=0
EXTRACT: note_on channel=5 note=65 velocity=73 time=0
EXTRACT: note_on channel=5 note=70 velocity=63 time=0
EXTRACT: note_on channel=6 note=65 velocity=76 time=0
EXTRACT: note_on channel=6 note=67 velocity=0 time=0.051724125
EXTRACT: note_on channel=3 note=62 velocity=0 time=0.05747125
EXTRACT: note_on channel=9 note=35 velocity=63 time=0.045977000000000004
EXTRACT: note_on channel=3 note=62 velocity=98 time=0
EXTRACT: note_on channel=9 note=35 velocity=0 time=0
EXTRACT: note_on channel=3 note=62 velocity=0 time=0.12068962500000001
EXTRACT: note_on channel=6 note=65 velocity=0 time=0.022988500000000002
EXTRACT: note_on channel=4 note=39 velocity=0 time=0.017241375000000003
EXTRACT: note_on channel=2 note=27 velocity=0 time=0.0057471250000000005
EXTRACT: note_on channel=9 note=39 velocity=110 time=0
EXTRACT: note_on channel=3 note=62 velocity=93 time=0
EXTRACT: note_on channel=4 note=55 velocity=0 time=0
EXTRACT: note_on channel=4 note=58 velocity=0 time=0
EXTRACT: note_on channel=4 note=63 velocity=0 time=0
EXTRACT: note_on channel=4 note=67 velocity=0 time=0
EXTRACT: note_on channel=4 note=39 velocity=55 time=0
EXTRACT: note_on channel=5 note=70 velocity=0 time=0
EXTRACT: note_on channel=5 note=65 velocity=0 time=0
EXTRACT: note_on channel=6 note=67 velocity=77 time=0
EXTRACT: note_on channel=9 note=39 velocity=0 time=0
EXTRACT: note_on channel=4 note=58 velocity=65 time=0.011494250000000001
EXTRACT: note_on channel=4 note=67 velocity=65 time=0
EXTRACT: note_on channel=4 note=63 velocity=67 time=0
EXTRACT: note_on channel=4 note=55 velocity=62 time=0
EXTRACT: note_on channel=5 note=67 velocity=74 time=0
EXTRACT: note_on channel=5 note=70 velocity=76 time=0
EXTRACT: note_on channel=3 note=62 velocity=0 time=0.132183875
EXTRACT: note_on channel=3 note=62 velocity=81 time=0
EXTRACT: note_on channel=9 note=37 velocity=57 time=0.0057471250000000005
EXTRACT: note_on channel=9 note=37 velocity=0 time=0.0057471250000000005
EXTRACT: note_on channel=3 note=62 velocity=0 time=0.12643675000000001
EXTRACT: note_on channel=4 note=39 velocity=0 time=0.034482750000000006
EXTRACT: note_on channel=5 note=67 velocity=0 time=0
EXTRACT: note_on channel=3 note=62 velocity=93 time=0
EXTRACT: note_on channel=4 note=63 velocity=0 time=0.0057471250000000005
EXTRACT: note_on channel=4 note=58 velocity=0 time=0
EXTRACT: note_on channel=4 note=67 velocity=0 time=0
EXTRACT: note_on channel=4 note=55 velocity=0 time=0
EXTRACT: note_on channel=4 note=39 velocity=55 time=0
EXTRACT: note_on channel=5 note=70 velocity=0 time=0
EXTRACT: note_on channel=4 note=58 velocity=59 time=0.011494250000000001
EXTRACT: note_on channel=4 note=63 velocity=61 time=0
EXTRACT: note_on channel=4 note=67 velocity=58 time=0
EXTRACT: note_on channel=4 note=55 velocity=57 time=0
EXTRACT: note_on channel=5 note=65 velocity=67 time=0
EXTRACT: note_on channel=5 note=70 velocity=67 time=0
EXTRACT: note_on channel=6 note=65 velocity=76 time=0
EXTRACT: note_on channel=6 note=67 velocity=0 time=0.045977000000000004
EXTRACT: note_on channel=3 note=62 velocity=0 time=0.08045975000000001
EXTRACT: note_on channel=3 note=62 velocity=81 time=0
EXTRACT: note_on channel=4 note=39 velocity=0 time=0
EXTRACT: note_on channel=9 note=39 velocity=110 time=0.0057471250000000005
EXTRACT: note_on channel=4 note=67 velocity=0 time=0.0057471250000000005
EXTRACT: note_on channel=4 note=58 velocity=0 time=0
EXTRACT: note_on channel=4 note=63 velocity=0 time=0
EXTRACT: note_on channel=4 note=55 velocity=0 time=0
EXTRACT: note_on channel=4 note=39 velocity=55 time=0
EXTRACT: note_on channel=5 note=70 velocity=0 time=0
EXTRACT: note_on channel=5 note=65 velocity=0 time=0
EXTRACT: note_on channel=9 note=39 velocity=0 time=0
EXTRACT: note_on channel=4 note=58 velocity=67 time=0.011494250000000001
EXTRACT: note_on channel=4 note=55 velocity=61 time=0
EXTRACT: note_on channel=4 note=63 velocity=65 time=0
EXTRACT: note_on channel=4 note=67 velocity=59 time=0
EXTRACT: note_on channel=5 note=70 velocity=75 time=0
EXTRACT: note_on channel=5 note=67 velocity=75 time=0
EXTRACT: note_on channel=3 note=62 velocity=0 time=0.1149425
EXTRACT: note_on channel=3 note=62 velocity=93 time=0
EXTRACT: note_on channel=6 note=65 velocity=0 time=0.011494250000000001
EXTRACT: note_on channel=6 note=67 velocity=79 time=0.011494250000000001
EXTRACT: note_on channel=3 note=62 velocity=0 time=0.12068962500000001
EXTRACT: note_on channel=4 note=39 velocity=0 time=0.028735625
EXTRACT: note_on channel=9 note=35 velocity=62 time=0.0057471250000000005
EXTRACT: note_on channel=9 note=37 velocity=59 time=0
EXTRACT: note_on channel=4 note=63 velocity=0 time=0.0057471250000000005
EXTRACT: note_on channel=4 note=58 velocity=0 time=0
EXTRACT: note_on channel=4 note=55 velocity=0 time=0
EXTRACT: note_on channel=4 note=67 velocity=0 time=0
EXTRACT: note_on channel=4 note=39 velocity=55 time=0
EXTRACT: note_on channel=5 note=67 velocity=0 time=0
EXTRACT: note_on channel=5 note=70 velocity=0 time=0
EXTRACT: note_on channel=9 note=37 velocity=0 time=0
EXTRACT: note_on channel=9 note=35 velocity=0 time=0
EXTRACT: note_on channel=4 note=58 velocity=61 time=0.011494250000000001
EXTRACT: note_on channel=4 note=67 velocity=59 time=0
EXTRACT: note_on channel=4 note=63 velocity=61 time=0
EXTRACT: note_on channel=4 note=55 velocity=58 time=0
EXTRACT: note_on channel=5 note=65 velocity=70 time=0
EXTRACT: note_on channel=5 note=70 velocity=67 time=0
EXTRACT: note_on channel=3 note=62 velocity=93 time=0
EXTRACT: note_on channel=4 note=39 velocity=0 time=0
EXTRACT: note_on channel=9 note=35 velocity=65 time=0.0057471250000000005
EXTRACT: note_on channel=9 note=37 velocity=63 time=0
EXTRACT: note_on channel=4 note=63 velocity=0 time=0.0057471250000000005
EXTRACT: note_on channel=4 note=58 velocity=0 time=0
EXTRACT: note_on channel=4 note=67 velocity=0 time=0
EXTRACT: note_on channel=4 note=55 velocity=0 time=0
EXTRACT: note_on channel=4 note=39 velocity=55 time=0
EXTRACT: note_on channel=5 note=70 velocity=0 time=0
EXTRACT: note_on channel=5 note=65 velocity=0 time=0
EXTRACT: note_on channel=9 note=37 velocity=0 time=0
EXTRACT: note_on channel=9 note=35 velocity=0 time=0
EXTRACT: note_on channel=4 note=58 velocity=68 time=0.011494250000000001
EXTRACT: note_on channel=4 note=67 velocity=65 time=0
EXTRACT: note_on channel=4 note=63 velocity=68 time=0
EXTRACT: note_on channel=4 note=55 velocity=60 time=0
EXTRACT: note_on channel=5 note=65 velocity=81 time=0
EXTRACT: note_on channel=5 note=70 velocity=74 time=0
EXTRACT: note_on channel=6 note=65 velocity=76 time=0
EXTRACT: note_on channel=6 note=67 velocity=0 time=0.045977000000000004
EXTRACT: note_on channel=3 note=62 velocity=0 time=0.074712625
EXTRACT: note_on channel=3 note=62 velocity=81 time=0
EXTRACT: note_on channel=3 note=62 velocity=0 time=0.13793100000000003
EXTRACT: note_on channel=3 note=62 velocity=98 time=0
EXTRACT: note_on channel=4 note=39 velocity=0 time=0
EXTRACT: note_on channel=9 note=39 velocity=109 time=0.0057471250000000005
EXTRACT: note_on channel=4 note=63 velocity=0 time=0.0057471250000000005
EXTRACT: note_on channel=4 note=58 velocity=0 time=0
EXTRACT: note_on channel=4 note=67 velocity=0 time=0
EXTRACT: note_on channel=4 note=55 velocity=0 time=0
EXTRACT: note_on channel=4 note=39 velocity=55 time=0
EXTRACT: note_on channel=5 note=70 velocity=0 time=0
EXTRACT: note_on channel=5 note=65 velocity=0 time=0
EXTRACT: note_on channel=6 note=65 velocity=0 time=0
EXTRACT: note_on channel=9 note=39 velocity=0 time=0
EXTRACT: note_on channel=4 note=67 velocity=65 time=0.011494250000000001
EXTRACT: note_on channel=4 note=58 velocity=69 time=0
EXTRACT: note_on channel=4 note=63 velocity=69 time=0
EXTRACT: note_on channel=4 note=55 velocity=63 time=0
EXTRACT: note_on channel=5 note=70 velocity=66 time=0
EXTRACT: note_on channel=5 note=65 velocity=66 time=0
EXTRACT: note_on channel=6 note=67 velocity=78 time=0
EXTRACT: note_on channel=3 note=62 velocity=0 time=0.12643675000000001
EXTRACT: note_on channel=3 note=62 velocity=86 time=0
EXTRACT: note_on channel=4 note=39 velocity=0 time=0
EXTRACT: note_on channel=9 note=35 velocity=62 time=0.0057471250000000005
EXTRACT: note_on channel=4 note=63 velocity=0 time=0.0057471250000000005
EXTRACT: note_on channel=4 note=67 velocity=0 time=0
EXTRACT: note_on channel=4 note=58 velocity=0 time=0
EXTRACT: note_on channel=4 note=55 velocity=0 time=0
EXTRACT: note_on channel=4 note=39 velocity=55 time=0
EXTRACT: note_on channel=5 note=65 velocity=0 time=0
EXTRACT: note_on channel=5 note=70 velocity=0 time=0
EXTRACT: note_on channel=9 note=35 velocity=0 time=0
EXTRACT: note_on channel=4 note=58 velocity=67 time=0.011494250000000001
EXTRACT: note_on channel=4 note=63 velocity=67 time=0
EXTRACT: note_on channel=4 note=67 velocity=60 time=0
EXTRACT: note_on channel=4 note=55 velocity=61 time=0
EXTRACT: note_on channel=5 note=65 velocity=64 time=0
EXTRACT: note_on channel=5 note=70 velocity=69 time=0
EXTRACT: note_on channel=3 note=62 velocity=0 time=0.12068962500000001
EXTRACT: note_on channel=4 note=39 velocity=0 time=0.028735625
EXTRACT: note_on channel=9 note=38 velocity=66 time=0.0057471250000000005
EXTRACT: note_on channel=9 note=28 velocity=52 time=0
EXTRACT: note_on channel=4 note=67 velocity=0 time=0.0057471250000000005
EXTRACT: note_on channel=4 note=58 velocity=0 time=0
EXTRACT: note_on channel=4 note=63 velocity=0 time=0
EXTRACT: note_on channel=4 note=55 velocity=0 time=0
EXTRACT: note_on channel=4 note=39 velocity=55 time=0
EXTRACT: note_on channel=5 note=70 velocity=0 time=0
EXTRACT: note_on channel=5 note=65 velocity=0 time=0
EXTRACT: note_on channel=9 note=28 velocity=0 time=0
EXTRACT: note_on channel=9 note=38 velocity=0 time=0
EXTRACT: note_on channel=4 note=58 velocity=66 time=0.011494250000000001
EXTRACT: note_on channel=4 note=67 velocity=60 time=0
EXTRACT: note_on channel=4 note=63 velocity=69 time=0
EXTRACT: note_on channel=4 note=55 velocity=60 time=0
EXTRACT: note_on channel=5 note=65 velocity=70 time=0
EXTRACT: note_on channel=5 note=70 velocity=68 time=0
EXTRACT: note_on channel=6 note=65 velocity=76 time=0
EXTRACT: note_on channel=6 note=67 velocity=0 time=0.034482750000000006
EXTRACT: note_on channel=3 note=62 velocity=86 time=0
EXTRACT: note_on channel=4 note=39 velocity=0 time=0
EXTRACT: note_on channel=9 note=36 velocity=110 time=0.0057471250000000005
EXTRACT: note_on channel=4 note=63 velocity=0 time=0.0057471250000000005
EXTRACT: note_on channel=4 note=58 velocity=0 time=0
EXTRACT: note_on channel=4 note=67 velocity=0 time=0
EXTRACT: note_on channel=4 note=55 velocity=0 time=0
EXTRACT: note_on channel=4 note=39 velocity=55 time=0
EXTRACT: note_on channel=5 note=70 velocity=0 time=0
EXTRACT: note_on channel=5 note=65 velocity=0 time=0
EXTRACT: note_on channel=9 note=36 velocity=0 time=0
EXTRACT: note_on channel=4 note=67 velocity=57 time=0.011494250000000001
EXTRACT: note_on channel=4 note=58 velocity=57 time=0
EXTRACT: note_on channel=4 note=55 velocity=57 time=0
EXTRACT: note_on channel=4 note=63 velocity=57 time=0
EXTRACT: note_on channel=5 note=65 velocity=63 time=0
EXTRACT: note_on channel=5 note=70 velocity=63 time=0
EXTRACT: note_on channel=6 note=65 velocity=0 time=0.10344825
EXTRACT: note_on channel=3 note=62 velocity=0 time=0.017241375000000003
EXTRACT: note_on channel=2 note=34 velocity=96 time=0.017241375000000003
EXTRACT: note_on channel=4 note=39 velocity=0 time=0.011494250000000001
EXTRACT: note_on channel=9 note=36 velocity=113 time=0.0057471250000000005
EXTRACT: note_on channel=9 note=41 velocity=110 time=0
EXTRACT: note_on channel=9 note=46 velocity=80 time=0
EXTRACT: note_on channel=3 note=62 velocity=98 time=0
EXTRACT: note_on channel=4 note=55 velocity=0 time=0
EXTRACT: note_on channel=4 note=67 velocity=0 time=0
EXTRACT: note_on channel=4 note=58 velocity=0 time=0
EXTRACT: note_on channel=4 note=63 velocity=0 time=0
EXTRACT: note_on channel=4 note=46 velocity=55 time=0
EXTRACT: note_on channel=5 note=70 velocity=0 time=0
EXTRACT: note_on channel=5 note=65 velocity=0 time=0
EXTRACT: note_on channel=6 note=65 velocity=83 time=0
EXTRACT: note_on channel=9 note=46 velocity=0 time=0
EXTRACT: note_on channel=9 note=41 velocity=0 time=0
EXTRACT: note_on channel=9 note=36 velocity=0 time=0
EXTRACT: note_on channel=4 note=58 velocity=74 time=0.011494250000000001
EXTRACT: note_on channel=4 note=62 velocity=69 time=0
EXTRACT: note_on channel=4 note=65 velocity=66 time=0
EXTRACT: note_on channel=4 note=53 velocity=66 time=0
EXTRACT: note_on channel=5 note=65 velocity=74 time=0
EXTRACT: note_on channel=5 note=70 velocity=63 time=0
EXTRACT: note_on channel=3 note=62 velocity=0 time=0.27011487500000003
EXTRACT: note_on channel=3 note=60 velocity=100 time=0
EXTRACT: note_on channel=4 note=46 velocity=0 time=0
EXTRACT: note_on channel=9 note=35 velocity=64 time=0.0057471250000000005
EXTRACT: note_on channel=9 note=38 velocity=64 time=0
EXTRACT: note_on channel=4 note=65 velocity=0 time=0.0057471250000000005
EXTRACT: note_on channel=4 note=58 velocity=0 time=0
EXTRACT: note_on channel=4 note=62 velocity=0 time=0
EXTRACT: note_on channel=4 note=53 velocity=0 time=0
EXTRACT: note_on channel=4 note=46 velocity=55 time=0
EXTRACT: note_on channel=5 note=70 velocity=0 time=0
EXTRACT: note_on channel=5 note=65 velocity=0 time=0
EXTRACT: note_on channel=9 note=38 velocity=0 time=0
EXTRACT: note_on channel=9 note=35 velocity=0 time=0
EXTRACT: note_on channel=4 note=53 velocity=60 time=0.011494250000000001
EXTRACT: note_on channel=4 note=58 velocity=61 time=0
EXTRACT: note_on channel=4 note=62 velocity=61 time=0
EXTRACT: note_on channel=4 note=65 velocity=59 time=0
EXTRACT: note_on channel=5 note=70 velocity=62 time=0
EXTRACT: note_on channel=5 note=65 velocity=64 time=0
EXTRACT: note_on channel=6 note=62 velocity=82 time=0
EXTRACT: note_on channel=6 note=65 velocity=0 time=0.06321837500000001
EXTRACT: note_on channel=3 note=60 velocity=0 time=0.045977000000000004
EXTRACT: note_on channel=3 note=60 velocity=100 time=0
EXTRACT: note_on channel=9 note=35 velocity=64 time=0
EXTRACT: note_on channel=9 note=35 velocity=0 time=0.0057471250000000005
EXTRACT: note_on channel=3 note=60 velocity=0 time=0.12643675000000001
EXTRACT: note_on channel=4 note=46 velocity=0 time=0.034482750000000006
EXTRACT: note_on channel=2 note=34 velocity=0 time=0.0057471250000000005
EXTRACT: note_on channel=9 note=39 velocity=111 time=0
EXTRACT: note_on channel=3 note=60 velocity=101 time=0
EXTRACT: note_on channel=4 note=62 velocity=0 time=0
EXTRACT: note_on channel=4 note=53 velocity=0 time=0
EXTRACT: note_on channel=4 note=58 velocity=0 time=0
EXTRACT: note_on channel=4 note=65 velocity=0 time=0
EXTRACT: note_on channel=4 note=46 velocity=55 time=0
EXTRACT: note_on channel=5 note=65 velocity=0 time=0
EXTRACT: note_on channel=5 note=70 velocity=0 time=0
EXTRACT: note_on channel=9 note=39 velocity=0 time=0
EXTRACT: note_on channel=5 note=65 velocity=74 time=0.0057471250000000005
EXTRACT: note_on channel=6 note=62 velocity=0 time=0
EXTRACT: note_on channel=6 note=65 velocity=82 time=0
EXTRACT: note_on channel=4 note=58 velocity=65 time=0.0057471250000000005
EXTRACT: note_on channel=4 note=53 velocity=64 time=0
EXTRACT: note_on channel=4 note=62 velocity=67 time=0
EXTRACT: note_on channel=4 note=65 velocity=63 time=0
EXTRACT: note_on channel=5 note=70 velocity=65 time=0
EXTRACT: note_on channel=3 note=60 velocity=0 time=0.13793100000000003
EXTRACT: note_on channel=3 note=60 velocity=101 time=0
EXTRACT: note_on channel=9 note=37 velocity=57 time=0.0057471250000000005
EXTRACT: note_on channel=9 note=37 velocity=0 time=0.0057471250000000005
EXTRACT: note_on channel=3 note=60 velocity=0 time=0.13793100000000003
EXTRACT: note_on channel=3 note=62 velocity=104 time=0
EXTRACT: note_on channel=4 note=46 velocity=0 time=0
EXTRACT: note_on channel=5 note=65 velocity=0 time=0.0057471250000000005
EXTRACT: note_on channel=4 note=62 velocity=0 time=0.0057471250000000005
EXTRACT: note_on channel=4 note=58 velocity=0 time=0
EXTRACT: note_on channel=4 note=53 velocity=0 time=0
EXTRACT: note_on channel=4 note=65 velocity=0 time=0
EXTRACT: note_on channel=4 note=46 velocity=55 time=0
EXTRACT: note_on channel=5 note=70 velocity=0 time=0
EXTRACT: note_on channel=5 note=70 velocity=61 time=0
EXTRACT: note_on channel=5 note=65 velocity=64 time=0
EXTRACT: note_on channel=4 note=53 velocity=60 time=0.011494250000000001
EXTRACT: note_on channel=4 note=62 velocity=64 time=0
EXTRACT: note_on channel=4 note=58 velocity=59 time=0
EXTRACT: note_on channel=4 note=65 velocity=59 time=0
EXTRACT: note_on channel=6 note=62 velocity=78 time=0
EXTRACT: note_on channel=6 note=65 velocity=0 time=0.045977000000000004
EXTRACT: note_on channel=4 note=46 velocity=0 time=0.10344825
EXTRACT: note_on channel=5 note=65 velocity=0 time=0
EXTRACT: note_on channel=5 note=70 velocity=0 time=0
EXTRACT: note_on channel=9 note=39 velocity=108 time=0.0057471250000000005
EXTRACT: note_on channel=4 note=58 velocity=0 time=0.0057471250000000005
EXTRACT: note_on channel=4 note=53 velocity=0 time=0
EXTRACT: note_on channel=4 note=62 velocity=0 time=0
EXTRACT: note_on channel=4 note=65 velocity=0 time=0
EXTRACT: note_on channel=4 note=46 velocity=55 time=0
EXTRACT: note_on channel=5 note=70 velocity=65 time=0
EXTRACT: note_on channel=5 note=65 velocity=72 time=0
EXTRACT: note_on channel=9 note=39 velocity=0 time=0
EXTRACT: note_on channel=4 note=58 velocity=67 time=0.011494250000000001
EXTRACT: note_on channel=4 note=53 velocity=63 time=0
EXTRACT: note_on channel=4 note=65 velocity=60 time=0
EXTRACT: note_on channel=4 note=62 velocity=66 time=0
EXTRACT: note_on channel=3 note=62 velocity=0 time=0.086206875
EXTRACT: note_on channel=3 note=62 velocity=104 time=0
EXTRACT: note_on channel=6 note=62 velocity=0 time=0.022988500000000002
EXTRACT: note_on channel=6 note=65 velocity=76 time=0
EXTRACT: note_on channel=4 note=46 velocity=0 time=0.14942525
EXTRACT: note_on channel=5 note=65 velocity=0 time=0
EXTRACT: note_on channel=5 note=70 velocity=0 time=0
EXTRACT: note_on channel=9 note=35 velocity=61 time=0.0057471250000000005
EXTRACT: note_on channel=9 note=37 velocity=59 time=0
EXTRACT: note_on channel=4 note=65 velocity=0 time=0.0057471250000000005
EXTRACT: note_on channel=4 note=58 velocity=0 time=0
EXTRACT: note_on channel=4 note=53 velocity=0 time=0
EXTRACT: note_on channel=4 note=62 velocity=0 time=0
EXTRACT: note_on channel=4 note=46 velocity=55 time=0
EXTRACT: note_on channel=5 note=70 velocity=60 time=0
EXTRACT: note_on channel=5 note=65 velocity=64 time=0
EXTRACT: note_on channel=9 note=37 velocity=0 time=0
EXTRACT: note_on channel=9 note=35 velocity=0 time=0
EXTRACT: note_on channel=4 note=58 velocity=65 time=0.011494250000000001
EXTRACT: note_on channel=4 note=53 velocity=63 time=0
EXTRACT: note_on channel=4 note=62 velocity=65 time=0
EXTRACT: note_on channel=4 note=65 velocity=59 time=0
EXTRACT: note_on channel=3 note=62 velocity=0 time=0.074712625
EXTRACT: note_on channel=3 note=62 velocity=104 time=0
EXTRACT: note_on channel=4 note=46 velocity=0 time=0
EXTRACT: note_on channel=5 note=65 velocity=0 time=0
EXTRACT: note_on channel=5 note=70 velocity=0 time=0
EXTRACT: note_on channel=9 note=35 velocity=67 time=0.0057471250000000005
EXTRACT: note_on channel=9 note=37 velocity=64 time=0
EXTRACT: note_on channel=4 note=62 velocity=0 time=0.0057471250000000005
EXTRACT: note_on channel=4 note=58 velocity=0 time=0
EXTRACT: note_on channel=4 note=53 velocity=0 time=0
EXTRACT: note_on channel=4 note=65 velocity=0 time=0
EXTRACT: note_on channel=4 note=46 velocity=55 time=0
EXTRACT: note_on channel=5 note=65 velocity=70 time=0
EXTRACT: note_on channel=5 note=70 velocity=65 time=0
EXTRACT: note_on channel=9 note=37 velocity=0 time=0
EXTRACT: note_on channel=9 note=35 velocity=0 time=0
EXTRACT: note_on channel=4 note=58 velocity=64 time=0.011494250000000001
EXTRACT: note_on channel=4 note=53 velocity=64 time=0
EXTRACT: note_on channel=4 note=62 velocity=64 time=0
EXTRACT: note_on channel=4 note=65 velocity=59 time=0
EXTRACT: note_on channel=6 note=62 velocity=83 time=0
EXTRACT: note_on channel=6 note=65 velocity=0 time=0.06321837500000001
EXTRACT: note_on channel=3 note=62 velocity=0 time=0.045977000000000004
EXTRACT: note_on channel=3 note=62 velocity=103 time=0
EXTRACT: note_on channel=4 note=46 velocity=0 time=0
EXTRACT: note_on channel=5 note=70 velocity=0 time=0
EXTRACT: note_on channel=5 note=65 velocity=0 time=0
EXTRACT: note_on channel=9 note=39 velocity=114 time=0.0057471250000000005
EXTRACT: note_on channel=4 note=62 velocity=0 time=0.0057471250000000005
EXTRACT: note_on channel=4 note=58 velocity=0 time=0
EXTRACT: note_on channel=4 note=53 velocity=0 time=0
EXTRACT: note_on channel=4 note=65 velocity=0 time=0
EXTRACT: note_on channel=4 note=46 velocity=55 time=0
EXTRACT: note_on channel=9 note=39 velocity=0 time=0
EXTRACT: note_on channel=4 note=58 velocity=75 time=0.011494250000000001
EXTRACT: note_on channel=4 note=53 velocity=66 time=0
EXTRACT: note_on channel=4 note=62 velocity=69 time=0
EXTRACT: note_on channel=4 note=65 velocity=63 time=0
EXTRACT: note_on channel=5 note=70 velocity=72 time=0
EXTRACT: note_on channel=5 note=65 velocity=72 time=0
EXTRACT: note_on channel=6 note=65 velocity=79 time=0
EXTRACT: note_on channel=6 note=62 velocity=0 time=0.022988500000000002
EXTRACT: note_on channel=3 note=62 velocity=0 time=0.09195400000000001
EXTRACT: note_on channel=3 note=62 velocity=108 time=0
EXTRACT: note_on channel=4 note=46 velocity=0 time=0
EXTRACT: note_on channel=9 note=35 velocity=61 time=0.0057471250000000005
EXTRACT: note_on channel=4 note=62 velocity=0 time=0.0057471250000000005
EXTRACT: note_on channel=4 note=58 velocity=0 time=0
EXTRACT: note_on channel=4 note=53 velocity=0 time=0
EXTRACT: note_on channel=4 note=65 velocity=0 time=0
EXTRACT: note_on channel=4 note=46 velocity=55 time=0
EXTRACT: note_on channel=5 note=65 velocity=0 time=0
EXTRACT: note_on channel=5 note=70 velocity=0 time=0
EXTRACT: note_on channel=9 note=35 velocity=0 time=0
EXTRACT: note_on channel=4 note=58 velocity=66 time=0.011494250000000001
EXTRACT: note_on channel=4 note=53 velocity=64 time=0
EXTRACT: note_on channel=4 note=65 velocity=59 time=0
EXTRACT: note_on channel=4 note=62 velocity=66 time=0
EXTRACT: note_on channel=5 note=65 velocity=65 time=0
EXTRACT: note_on channel=5 note=70 velocity=63 time=0
EXTRACT: note_on channel=3 note=62 velocity=0 time=0.10919537500000001
EXTRACT: note_on channel=4 note=46 velocity=0 time=0.040229875000000005
EXTRACT: note_on channel=3 note=62 velocity=103 time=0
EXTRACT: note_on channel=9 note=28 velocity=51 time=0
EXTRACT: note_on channel=4 note=65 velocity=0 time=0.0057471250000000005
EXTRACT: note_on channel=4 note=58 velocity=0 time=0
EXTRACT: note_on channel=4 note=53 velocity=0 time=0
EXTRACT: note_on channel=4 note=62 velocity=0 time=0
EXTRACT: note_on channel=4 note=46 velocity=55 time=0
EXTRACT: note_on channel=5 note=70 velocity=0 time=0
EXTRACT: note_on channel=5 note=65 velocity=0 time=0
EXTRACT: note_on channel=9 note=28 velocity=0 time=0
EXTRACT: note_on channel=4 note=53 velocity=60 time=0.011494250000000001
EXTRACT: note_on channel=4 note=58 velocity=63 time=0
EXTRACT: note_on channel=4 note=62 velocity=66 time=0
EXTRACT: note_on channel=4 note=65 velocity=58 time=0
EXTRACT: note_on channel=5 note=65 velocity=65 time=0
EXTRACT: note_on channel=5 note=70 velocity=61 time=0
EXTRACT: note_on channel=6 note=62 velocity=75 time=0
EXTRACT: note_on channel=6 note=65 velocity=0 time=0.028735625
EXTRACT: note_on channel=3 note=62 velocity=0 time=0.09195400000000001
EXTRACT: note_on channel=4 note=46 velocity=0 time=0.028735625
EXTRACT: note_on channel=3 note=62 velocity=108 time=0
EXTRACT: note_on channel=4 note=62 velocity=0 time=0.0057471250000000005
EXTRACT: note_on channel=4 note=53 velocity=0 time=0
EXTRACT: note_on channel=4 note=58 velocity=0 time=0
EXTRACT: note_on channel=4 note=65 velocity=0 time=0
EXTRACT: note_on channel=4 note=46 velocity=55 time=0
EXTRACT: note_on channel=5 note=70 velocity=0 time=0
EXTRACT: note_on channel=5 note=65 velocity=0 time=0
EXTRACT: note_on channel=4 note=58 velocity=57 time=0.011494250000000001
EXTRACT: note_on channel=4 note=62 velocity=57 time=0
EXTRACT: note_on channel=4 note=65 velocity=57 time=0
EXTRACT: note_on channel=4 note=53 velocity=57 time=0
EXTRACT: note_on channel=5 note=65 velocity=63 time=0
EXTRACT: note_on channel=5 note=70 velocity=60 time=0
EXTRACT: note_on channel=3 note=62 velocity=0 time=0.1149425
EXTRACT: note_on channel=2 note=33 velocity=97 time=0.034482750000000006
EXTRACT: note_on channel=4 note=46 velocity=0 time=0
EXTRACT: note_on channel=6 note=62 velocity=0 time=0.0057471250000000005
EXTRACT: note_on channel=9 note=36 velocity=114 time=0
EXTRACT: note_on channel=9 note=41 velocity=110 time=0
EXTRACT: note_on channel=9 note=46 velocity=81 time=0
EXTRACT: note_on channel=3 note=62 velocity=105 time=0
EXTRACT: note_on channel=4 note=65 velocity=0 time=0
EXTRACT: note_on channel=4 note=58 velocity=0 time=0
EXTRACT: note_on channel=4 note=62 velocity=0 time=0
EXTRACT: note_on channel=4 note=53 velocity=0 time=0
EXTRACT: note_on channel=4 note=45 velocity=55 time=0
EXTRACT: note_on channel=5 note=70 velocity=0 time=0
EXTRACT: note_on channel=5 note=65 velocity=0 time=0
EXTRACT: note_on channel=6 note=65 velocity=83 time=0
EXTRACT: note_on channel=9 note=46 velocity=0 time=0
EXTRACT: note_on channel=9 note=41 velocity=0 time=0
EXTRACT: note_on channel=9 note=36 velocity=0 time=0
EXTRACT: note_on channel=4 note=60 velocity=69 time=0.011494250000000001
EXTRACT: note_on channel=4 note=57 velocity=69 time=0
EXTRACT: note_on channel=4 note=65 velocity=69 time=0
EXTRACT: note_on channel=5 note=65 velocity=76 time=0
EXTRACT: note_on channel=5 note=70 velocity=69 time=0
EXTRACT: note_on channel=3 note=62 velocity=0 time=0.21264362500000003
EXTRACT: note_on channel=3 note=62 velocity=100 time=0
EXTRACT: note_on channel=4 note=45 velocity=0 time=0
EXTRACT: note_on channel=9 note=35 velocity=68 time=0.0057471250000000005
EXTRACT: note_on channel=9 note=38 velocity=68 time=0
EXTRACT: note_on channel=4 note=60 velocity=0 time=0.0057471250000000005
EXTRACT: note_on channel=4 note=57 velocity=0 time=0
EXTRACT: note_on channel=4 note=65 velocity=0 time=0
EXTRACT: note_on channel=4 note=45 velocity=55 time=0
EXTRACT: note_on channel=5 note=70 velocity=0 time=0
EXTRACT: note_on channel=5 note=65 velocity=0 time=0
EXTRACT: note_on channel=9 note=38 velocity=0 time=0
EXTRACT: note_on channel=9 note=35 velocity=0 time=0
EXTRACT: note_on channel=4 note=57 velocity=59 time=0.011494250000000001
EXTRACT: note_on channel=4 note=60 velocity=70 time=0
EXTRACT: note_on channel=4 note=65 velocity=66 time=0
EXTRACT: note_on channel=5 note=70 velocity=67 time=0
EXTRACT: note_on channel=5 note=65 velocity=71 time=0
EXTRACT: note_on channel=6 note=60 velocity=83 time=0
EXTRACT: note_on channel=6 note=65 velocity=0 time=0.028735625
EXTRACT: note_on channel=3 note=62 velocity=0 time=0.086206875
EXTRACT: note_on channel=3 note=62 velocity=100 time=0
EXTRACT: note_on channel=9 note=35 velocity=63 time=0.0057471250000000005
EXTRACT: note_on channel=9 note=35 velocity=0 time=0.0057471250000000005
EXTRACT: note_on channel=3 note=62 velocity=0 time=0.12643675000000001
EXTRACT: note_on channel=2 note=33 velocity=0 time=0.028735625
EXTRACT: note_on channel=4 note=45 velocity=0 time=0.0057471250000000005
EXTRACT: note_on channel=9 note=39 velocity=110 time=0.0057471250000000005
EXTRACT: note_on channel=3 note=62 velocity=95 time=0
EXTRACT: note_on channel=4 note=57 velocity=0 time=0
EXTRACT: note_on channel=4 note=60 velocity=0 time=0
EXTRACT: note_on channel=4 note=65 velocity=0 time=0
EXTRACT: note_on channel=4 note=45 velocity=55 time=0
EXTRACT: note_on channel=5 note=65 velocity=0 time=0
EXTRACT: note_on channel=5 note=70 velocity=0 time=0
EXTRACT: note_on channel=9 note=39 velocity=0 time=0
EXTRACT: note_on channel=4 note=60 velocity=75 time=0.011494250000000001
EXTRACT: note_on channel=4 note=65 velocity=75 time=0
EXTRACT: note_on channel=4 note=57 velocity=75 time=0
EXTRACT: note_on channel=5 note=70 velocity=65 time=0
EXTRACT: note_on channel=5 note=65 velocity=71 time=0
EXTRACT: note_on channel=6 note=65 velocity=76 time=0
EXTRACT: note_on channel=6 note=60 velocity=0 time=0.0057471250000000005
EXTRACT: note_on channel=3 note=62 velocity=0 time=0.13793100000000003
EXTRACT: note_on channel=9 note=37 velocity=57 time=0.011494250000000001
EXTRACT: note_on channel=3 note=63 velocity=93 time=0
EXTRACT: note_on channel=9 note=37 velocity=0 time=0
EXTRACT: note_on channel=3 note=63 velocity=0 time=0.13793100000000003
EXTRACT: note_on channel=4 note=45 velocity=0 time=0.022988500000000002
EXTRACT: note_on channel=3 note=62 velocity=93 time=0
EXTRACT: note_on channel=4 note=60 velocity=0 time=0
EXTRACT: note_on channel=4 note=65 velocity=0 time=0
EXTRACT: note_on channel=4 note=57 velocity=0 time=0
EXTRACT: note_on channel=4 note=45 velocity=55 time=0
EXTRACT: note_on channel=5 note=65 velocity=0 time=0
EXTRACT: note_on channel=5 note=70 velocity=0 time=0
EXTRACT: note_on channel=4 note=57 velocity=60 time=0.011494250000000001
EXTRACT: note_on channel=4 note=65 velocity=60 time=0
EXTRACT: note_on channel=4 note=60 velocity=59 time=0
EXTRACT: note_on channel=5 note=65 velocity=64 time=0
EXTRACT: note_on channel=5 note=70 velocity=59 time=0
EXTRACT: note_on channel=6 note=60 velocity=77 time=0
EXTRACT: note_on channel=6 note=65 velocity=0 time=0.034482750000000006
EXTRACT: note_on channel=3 note=62 velocity=0 time=0.09195400000000001
EXTRACT: note_on channel=3 note=62 velocity=93 time=0
EXTRACT: note_on channel=4 note=45 velocity=0 time=0
EXTRACT: note_on channel=9 note=39 velocity=110 time=0.0057471250000000005
EXTRACT: note_on channel=4 note=57 velocity=0 time=0.0057471250000000005
EXTRACT: note_on channel=4 note=65 velocity=0 time=0
EXTRACT: note_on channel=4 note=60 velocity=0 time=0
EXTRACT: note_on channel=4 note=45 velocity=55 time=0
EXTRACT: note_on channel=5 note=70 velocity=0 time=0
EXTRACT: note_on channel=5 note=65 velocity=0 time=0
EXTRACT: note_on channel=9 note=39 velocity=0 time=0
EXTRACT: note_on channel=4 note=60 velocity=74 time=0.011494250000000001
EXTRACT: note_on channel=4 note=57 velocity=74 time=0
EXTRACT: note_on channel=4 note=65 velocity=74 time=0
EXTRACT: note_on channel=5 note=65 velocity=69 time=0
EXTRACT: note_on channel=5 note=70 velocity=65 time=0
EXTRACT: note_on channel=3 note=62 velocity=0 time=0.1149425
EXTRACT: note_on channel=3 note=65 velocity=101 time=0
EXTRACT: note_on channel=6 note=65 velocity=72 time=0.022988500000000002
EXTRACT: note_on channel=6 note=60 velocity=0 time=0.040229875000000005
EXTRACT: note_on channel=3 note=65 velocity=0 time=0.08045975000000001
EXTRACT: note_on channel=3 note=65 velocity=101 time=0
EXTRACT: note_on channel=4 note=45 velocity=0 time=0
EXTRACT: note_on channel=9 note=35 velocity=62 time=0.0057471250000000005
EXTRACT: note_on channel=9 note=37 velocity=59 time=0
EXTRACT: note_on channel=4 note=60 velocity=0 time=0.0057471250000000005
EXTRACT: note_on channel=4 note=57 velocity=0 time=0
EXTRACT: note_on channel=4 note=65 velocity=0 time=0
EXTRACT: note_on channel=4 note=45 velocity=55 time=0
EXTRACT: note_on channel=5 note=70 velocity=0 time=0
EXTRACT: note_on channel=5 note=65 velocity=0 time=0
EXTRACT: note_on channel=9 note=37 velocity=0 time=0
EXTRACT: note_on channel=9 note=35 velocity=0 time=0
EXTRACT: note_on channel=4 note=60 velocity=70 time=0.011494250000000001
EXTRACT: note_on channel=4 note=57 velocity=63 time=0
EXTRACT: note_on channel=4 note=65 velocity=69 time=0
EXTRACT: note_on channel=5 note=65 velocity=72 time=0
EXTRACT: note_on channel=5 note=70 velocity=67 time=0
EXTRACT: note_on channel=3 note=65 velocity=0 time=0.12068962500000001
EXTRACT: note_on channel=4 note=45 velocity=0 time=0.028735625
EXTRACT: note_on channel=3 note=62 velocity=102 time=0
EXTRACT: note_on channel=9 note=35 velocity=65 time=0
EXTRACT: note_on channel=9 note=37 velocity=63 time=0
EXTRACT: note_on channel=4 note=60 velocity=0 time=0.0057471250000000005
EXTRACT: note_on channel=4 note=57 velocity=0 time=0
EXTRACT: note_on channel=4 note=65 velocity=0 time=0
EXTRACT: note_on channel=4 note=45 velocity=55 time=0
EXTRACT: note_on channel=5 note=70 velocity=0 time=0
EXTRACT: note_on channel=5 note=65 velocity=0 time=0
EXTRACT: note_on channel=9 note=37 velocity=0 time=0
EXTRACT: note_on channel=9 note=35 velocity=0 time=0
EXTRACT: note_on channel=4 note=60 velocity=75 time=0.011494250000000001
EXTRACT: note_on channel=4 note=57 velocity=64 time=0
EXTRACT: note_on channel=4 note=65 velocity=71 time=0
EXTRACT: note_on channel=5 note=65 velocity=69 time=0
EXTRACT: note_on channel=5 note=70 velocity=64 time=0
EXTRACT: note_on channel=6 note=60 velocity=78 time=0
EXTRACT: note_on channel=6 note=65 velocity=0 time=0.022988500000000002
EXTRACT: note_on channel=3 note=62 velocity=0 time=0.10919537500000001
EXTRACT: note_on channel=3 note=62 velocity=104 time=0
EXTRACT: note_on channel=3 note=62 velocity=0 time=0.12643675000000001
EXTRACT: note_on channel=4 note=45 velocity=0 time=0.045977000000000004
EXTRACT: note_on channel=9 note=39 velocity=109 time=0.0057471250000000005
EXTRACT: note_on channel=3 note=65 velocity=108 time=0
EXTRACT: note_on channel=4 note=60 velocity=0 time=0
EXTRACT: note_on channel=4 note=57 velocity=0 time=0
EXTRACT: note_on channel=4 note=65 velocity=0 time=0
EXTRACT: note_on channel=4 note=45 velocity=55 time=0
EXTRACT: note_on channel=5 note=70 velocity=0 time=0
EXTRACT: note_on channel=5 note=65 velocity=0 time=0
EXTRACT: note_on channel=9 note=39 velocity=0 time=0
EXTRACT: note_on channel=4 note=60 velocity=74 time=0.011494250000000001
EXTRACT: note_on channel=4 note=57 velocity=74 time=0
EXTRACT: note_on channel=4 note=65 velocity=74 time=0
EXTRACT: note_on channel=5 note=65 velocity=76 time=0
EXTRACT: note_on channel=5 note=70 velocity=69 time=0
EXTRACT: note_on channel=6 note=65 velocity=74 time=0
EXTRACT: note_on channel=6 note=60 velocity=0 time=0.011494250000000001
EXTRACT: note_on channel=3 note=65 velocity=0 time=0.1149425
EXTRACT: note_on channel=3 note=65 velocity=104 time=0
EXTRACT: note_on channel=4 note=45 velocity=0 time=0
EXTRACT: note_on channel=9 note=35 velocity=62 time=0.0057471250000000005
EXTRACT: note_on channel=4 note=60 velocity=0 time=0.0057471250000000005
EXTRACT: note_on channel=4 note=57 velocity=0 time=0
EXTRACT: note_on channel=4 note=65 velocity=0 time=0
EXTRACT: note_on channel=4 note=45 velocity=55 time=0
EXTRACT: note_on channel=5 note=70 velocity=0 time=0
EXTRACT: note_on channel=5 note=65 velocity=0 time=0
EXTRACT: note_on channel=9 note=35 velocity=0 time=0
EXTRACT: note_on channel=4 note=60 velocity=77 time=0.011494250000000001
EXTRACT: note_on channel=4 note=57 velocity=65 time=0
EXTRACT: note_on channel=4 note=65 velocity=69 time=0
EXTRACT: note_on channel=5 note=65 velocity=69 time=0
EXTRACT: note_on channel=5 note=70 velocity=67 time=0
EXTRACT: note_on channel=3 note=65 velocity=0 time=0.1149425
EXTRACT: note_on channel=4 note=45 velocity=0 time=0.034482750000000006
EXTRACT: note_on channel=9 note=28 velocity=52 time=0.0057471250000000005
EXTRACT: note_on channel=3 note=62 velocity=108 time=0
EXTRACT: note_on channel=4 note=60 velocity=0 time=0
EXTRACT: note_on channel=4 note=57 velocity=0 time=0
EXTRACT: note_on channel=4 note=65 velocity=0 time=0
EXTRACT: note_on channel=4 note=45 velocity=55 time=0
EXTRACT: note_on channel=5 note=70 velocity=0 time=0
EXTRACT: note_on channel=5 note=65 velocity=0 time=0
EXTRACT: note_on channel=9 note=28 velocity=0 time=0
EXTRACT: note_on channel=4 note=60 velocity=79 time=0.011494250000000001
EXTRACT: note_on channel=4 note=57 velocity=65 time=0
EXTRACT: note_on channel=4 note=65 velocity=72 time=0
EXTRACT: note_on channel=5 note=65 velocity=64 time=0
EXTRACT: note_on channel=5 note=70 velocity=63 time=0
EXTRACT: note_on channel=6 note=60 velocity=75 time=0
EXTRACT: note_on channel=3 note=62 velocity=0 time=0.12643675000000001
EXTRACT: note_on channel=2 note=33 velocity=80 time=0.022988500000000002
EXTRACT: note_on channel=4 note=45 velocity=0 time=0
EXTRACT: note_on channel=9 note=36 velocity=110 time=0.0057471250000000005
EXTRACT: note_on channel=9 note=41 velocity=110 time=0
EXTRACT: note_on channel=3 note=62 velocity=104 time=0
EXTRACT: note_on channel=4 note=60 velocity=0 time=0
EXTRACT: note_on channel=4 note=57 velocity=0 time=0
EXTRACT: note_on channel=4 note=65 velocity=0 time=0
EXTRACT: note_on channel=4 note=45 velocity=55 time=0
EXTRACT: note_on channel=5 note=70 velocity=0 time=0
EXTRACT: note_on channel=5 note=65 velocity=0 time=0
EXTRACT: note_on channel=9 note=41 velocity=0 time=0
EXTRACT: note_on channel=9 note=36 velocity=0 time=0
EXTRACT: note_on channel=4 note=60 velocity=65 time=0.011494250000000001
EXTRACT: note_on channel=4 note=57 velocity=65 time=0
EXTRACT: note_on channel=4 note=65 velocity=65 time=0
EXTRACT: note_on channel=5 note=65 velocity=64 time=0
EXTRACT: note_on channel=5 note=70 velocity=64 time=0
EXTRACT: note_on channel=6 note=65 velocity=0 time=0.1149425
EXTRACT: note_on channel=3 note=62 velocity=0 time=0.011494250000000001
EXTRACT: note_on channel=6 note=60 velocity=0 time=0
EXTRACT: note_on channel=2 note=33 velocity=0 time=0.0057471250000000005
EXTRACT: note_on channel=2 note=31 velocity=95 time=0.017241375000000003
EXTRACT: note_on channel=4 note=45 velocity=0 time=0
EXTRACT: note_on channel=9 note=36 velocity=113 time=0.0057471250000000005
EXTRACT: note_on channel=9 note=41 velocity=110 time=0
EXTRACT: note_on channel=9 note=49 velocity=90 time=0
EXTRACT: note_on channel=3 note=67 velocity=101 time=0
EXTRACT: note_on channel=4 note=60 velocity=0 time=0
EXTRACT: note_on channel=4 note=57 velocity=0 time=0
EXTRACT: note_on channel=4 note=65 velocity=0 time=0
EXTRACT: note_on channel=4 note=43 velocity=55 time=0
EXTRACT: note_on channel=5 note=70 velocity=0 time=0
EXTRACT: note_on channel=5 note=65 velocity=0 time=0
EXTRACT: note_on channel=5 note=62 velocity=65 time=0
EXTRACT: note_on channel=6 note=67 velocity=78 time=0
EXTRACT: note_on channel=9 note=49 velocity=0 time=0
EXTRACT: note_on channel=9 note=41 velocity=0 time=0
EXTRACT: note_on channel=9 note=36 velocity=0 time=0
EXTRACT: note_on channel=5 note=67 velocity=74 time=0.0057471250000000005
EXTRACT: note_on channel=5 note=70 velocity=65 time=0
EXTRACT: note_on channel=4 note=58 velocity=68 time=0.0057471250000000005
EXTRACT: note_on channel=4 note=62 velocity=68 time=0
EXTRACT: note_on channel=4 note=67 velocity=63 time=0
EXTRACT: note_on channel=4 note=55 velocity=62 time=0
EXTRACT: note_on channel=3 note=67 velocity=0 time=0.281609125
EXTRACT: note_on channel=4 note=43 velocity=0 time=0.040229875000000005
EXTRACT: note_on channel=5 note=62 velocity=0 time=0
EXTRACT: note_on channel=5 note=70 velocity=0 time=0.0057471250000000005
EXTRACT: note_on channel=5 note=67 velocity=0 time=0
EXTRACT: note_on channel=9 note=35 velocity=64 time=0
EXTRACT: note_on channel=9 note=38 velocity=64 time=0
EXTRACT: note_on channel=3 note=62 velocity=86 time=0
EXTRACT: note_on channel=4 note=67 velocity=0 time=0
EXTRACT: note_on channel=4 note=58 velocity=0 time=0
EXTRACT: note_on channel=4 note=62 velocity=0 time=0
EXTRACT: note_on channel=4 note=55 velocity=0 time=0
EXTRACT: note_on channel=4 note=43 velocity=55 time=0
EXTRACT: note_on channel=9 note=38 velocity=0 time=0
EXTRACT: note_on channel=9 note=35 velocity=0 time=0
EXTRACT: note_on channel=4 note=58 velocity=62 time=0.011494250000000001
EXTRACT: note_on channel=4 note=55 velocity=59 time=0
EXTRACT: note_on channel=4 note=67 velocity=58 time=0
EXTRACT: note_on channel=4 note=62 velocity=64 time=0
EXTRACT: note_on channel=5 note=67 velocity=59 time=0
EXTRACT: note_on channel=5 note=62 velocity=58 time=0
EXTRACT: note_on channel=5 note=70 velocity=58 time=0
EXTRACT: note_on channel=6 note=62 velocity=79 time=0
EXTRACT: note_on channel=6 note=67 velocity=0 time=0.06321837500000001
EXTRACT: note_on channel=3 note=62 velocity=0 time=0.074712625
EXTRACT: note_on channel=3 note=62 velocity=86 time=0
EXTRACT: note_on channel=9 note=35 velocity=64 time=0
EXTRACT: note_on channel=9 note=35 velocity=0 time=0.0057471250000000005
EXTRACT: note_on channel=3 note=62 velocity=0 time=0.14367812500000002
EXTRACT: note_on channel=3 note=62 velocity=100 time=0
EXTRACT: note_on channel=2 note=31 velocity=0 time=0
EXTRACT: note_on channel=4 note=43 velocity=0 time=0
EXTRACT: note_on channel=9 note=39 velocity=111 time=0.0057471250000000005
EXTRACT: note_on channel=4 note=67 velocity=0 time=0.0057471250000000005
EXTRACT: note_on channel=4 note=58 velocity=0 time=0
EXTRACT: note_on channel=4 note=55 velocity=0 time=0
EXTRACT: note_on channel=4 note=62 velocity=0 time=0
EXTRACT: note_on channel=4 note=43 velocity=55 time=0
EXTRACT: note_on channel=5 note=70 velocity=0 time=0
EXTRACT: note_on channel=5 note=62 velocity=0 time=0
EXTRACT: note_on channel=5 note=67 velocity=0 time=0
EXTRACT: note_on channel=9 note=39 velocity=0 time=0
EXTRACT: note_on channel=4 note=58 velocity=67 time=0.011494250000000001
EXTRACT: note_on channel=4 note=55 velocity=65 time=0
EXTRACT: note_on channel=4 note=62 velocity=69 time=0
EXTRACT: note_on channel=4 note=67 velocity=61 time=0
EXTRACT: note_on channel=5 note=62 velocity=63 time=0
EXTRACT: note_on channel=5 note=67 velocity=70 time=0
EXTRACT: note_on channel=5 note=70 velocity=63 time=0
EXTRACT: note_on channel=6 note=67 velocity=77 time=0
EXTRACT: note_on channel=6 note=62 velocity=0 time=0.017241375000000003
EXTRACT: note_on channel=3 note=62 velocity=0 time=0.10344825
EXTRACT: note_on channel=9 note=37 velocity=57 time=0.034482750000000006
EXTRACT: note_on channel=3 note=62 velocity=100 time=0
EXTRACT: note_on channel=9 note=37 velocity=0 time=0
EXTRACT: note_on channel=3 note=62 velocity=0 time=0.14367812500000002
EXTRACT: note_on channel=3 note=62 velocity=98 time=0
EXTRACT: note_on channel=4 note=43 velocity=0 time=0
EXTRACT: note_on channel=4 note=62 velocity=0 time=0.011494250000000001
EXTRACT: note_on channel=4 note=58 velocity=0 time=0
EXTRACT: note_on channel=4 note=55 velocity=0 time=0
EXTRACT: note_on channel=4 note=67 velocity=0 time=0
EXTRACT: note_on channel=4 note=43 velocity=55 time=0
EXTRACT: note_on channel=5 note=70 velocity=0 time=0
EXTRACT: note_on channel=5 note=67 velocity=0 time=0
EXTRACT: note_on channel=5 note=62 velocity=0 time=0
EXTRACT: note_on channel=4 note=58 velocity=60 time=0.011494250000000001
EXTRACT: note_on channel=4 note=62 velocity=63 time=0
EXTRACT: note_on channel=4 note=55 velocity=58 time=0
EXTRACT: note_on channel=4 note=67 velocity=54 time=0
EXTRACT: note_on channel=5 note=67 velocity=59 time=0
EXTRACT: note_on channel=5 note=62 velocity=58 time=0
EXTRACT: note_on channel=5 note=70 velocity=57 time=0
EXTRACT: note_on channel=6 note=62 velocity=77 time=0
EXTRACT: note_on channel=6 note=67 velocity=0 time=0.045977000000000004
EXTRACT: note_on channel=3 note=62 velocity=0 time=0.06896550000000001
EXTRACT: note_on channel=3 note=60 velocity=100 time=0
EXTRACT: note_on channel=4 note=43 velocity=0 time=0
EXTRACT: note_on channel=9 note=39 velocity=108 time=0.0057471250000000005
EXTRACT: note_on channel=4 note=55 velocity=0 time=0.0057471250000000005
EXTRACT: note_on channel=4 note=58 velocity=0 time=0
EXTRACT: note_on channel=4 note=62 velocity=0 time=0
EXTRACT: note_on channel=4 note=67 velocity=0 time=0
EXTRACT: note_on channel=4 note=43 velocity=55 time=0
EXTRACT: note_on channel=5 note=70 velocity=0 time=0
EXTRACT: note_on channel=5 note=62 velocity=0 time=0
EXTRACT: note_on channel=5 note=67 velocity=0 time=0
EXTRACT: note_on channel=9 note=39 velocity=0 time=0
EXTRACT: note_on channel=4 note=58 velocity=71 time=0.011494250000000001
EXTRACT: note_on channel=4 note=55 velocity=63 time=0
EXTRACT: note_on channel=4 note=62 velocity=71 time=0
EXTRACT: note_on channel=4 note=67 velocity=63 time=0
EXTRACT: note_on channel=5 note=62 velocity=63 time=0
EXTRACT: note_on channel=5 note=67 velocity=69 time=0
EXTRACT: note_on channel=5 note=70 velocity=63 time=0
EXTRACT: note_on channel=3 note=60 velocity=0 time=0.132183875
EXTRACT: note_on channel=3 note=62 velocity=100 time=0
EXTRACT: note_on channel=6 note=67 velocity=75 time=0.017241375000000003
EXTRACT: note_on channel=6 note=62 velocity=0 time=0.028735625
EXTRACT: note_on channel=3 note=62 velocity=0 time=0.10919537500000001
EXTRACT: note_on channel=4 note=43 velocity=0 time=0.011494250000000001
EXTRACT: note_on channel=3 note=62 velocity=100 time=0
EXTRACT: note_on channel=9 note=35 velocity=61 time=0
EXTRACT: note_on channel=9 note=37 velocity=59 time=0
EXTRACT: note_on channel=4 note=62 velocity=0 time=0.0057471250000000005
EXTRACT: note_on channel=4 note=58 velocity=0 time=0
EXTRACT: note_on channel=4 note=55 velocity=0 time=0
EXTRACT: note_on channel=4 note=67 velocity=0 time=0
EXTRACT: note_on channel=4 note=43 velocity=55 time=0
EXTRACT: note_on channel=5 note=70 velocity=0 time=0
EXTRACT: note_on channel=5 note=67 velocity=0 time=0
EXTRACT: note_on channel=5 note=62 velocity=0 time=0
EXTRACT: note_on channel=9 note=37 velocity=0 time=0
EXTRACT: note_on channel=9 note=35 velocity=0 time=0
EXTRACT: note_on channel=4 note=58 velocity=63 time=0.011494250000000001
EXTRACT: note_on channel=4 note=62 velocity=64 time=0
EXTRACT: note_on channel=4 note=55 velocity=60 time=0
EXTRACT: note_on channel=4 note=67 velocity=58 time=0
EXTRACT: note_on channel=5 note=62 velocity=57 time=0
EXTRACT: note_on channel=5 note=67 velocity=59 time=0
EXTRACT: note_on channel=5 note=70 velocity=58 time=0
EXTRACT: note_on channel=3 note=62 velocity=0 time=0.13793100000000003
EXTRACT: note_on channel=4 note=43 velocity=0 time=0.011494250000000001
EXTRACT: note_on channel=9 note=35 velocity=67 time=0.0057471250000000005
EXTRACT: note_on channel=9 note=37 velocity=64 time=0
EXTRACT: note_on channel=3 note=60 velocity=100 time=0
EXTRACT: note_on channel=4 note=55 velocity=0 time=0
EXTRACT: note_on channel=4 note=58 velocity=0 time=0
EXTRACT: note_on channel=4 note=62 velocity=0 time=0
EXTRACT: note_on channel=4 note=67 velocity=0 time=0
EXTRACT: note_on channel=4 note=43 velocity=55 time=0
EXTRACT: note_on channel=5 note=70 velocity=0 time=0
EXTRACT: note_on channel=5 note=67 velocity=0 time=0
EXTRACT: note_on channel=5 note=62 velocity=0 time=0
EXTRACT: note_on channel=9 note=37 velocity=0 time=0
EXTRACT: note_on channel=9 note=35 velocity=0 time=0
EXTRACT: note_on channel=4 note=58 velocity=65 time=0.011494250000000001
EXTRACT: note_on channel=4 note=55 velocity=58 time=0
EXTRACT: note_on channel=4 note=62 velocity=71 time=0
EXTRACT: note_on channel=4 note=67 velocity=60 time=0
EXTRACT: note_on channel=5 note=62 velocity=59 time=0
EXTRACT: note_on channel=5 note=67 velocity=67 time=0
EXTRACT: note_on channel=5 note=70 velocity=65 time=0
EXTRACT: note_on channel=6 note=62 velocity=76 time=0
EXTRACT: note_on channel=6 note=67 velocity=0 time=0.051724125
EXTRACT: note_on channel=3 note=60 velocity=0 time=0.155172375
EXTRACT: note_on channel=4 note=43 velocity=0 time=0.1149425
EXTRACT: note_on channel=9 note=39 velocity=114 time=0.0057471250000000005
EXTRACT: note_on channel=3 note=65 velocity=104 time=0
EXTRACT: note_on channel=4 note=62 velocity=0 time=0
EXTRACT: note_on channel=4 note=58 velocity=0 time=0
EXTRACT: note_on channel=4 note=55 velocity=0 time=0
EXTRACT: note_on channel=4 note=67 velocity=0 time=0
EXTRACT: note_on channel=4 note=43 velocity=55 time=0
EXTRACT: note_on channel=5 note=70 velocity=0 time=0
EXTRACT: note_on channel=5 note=67 velocity=0 time=0
EXTRACT: note_on channel=5 note=62 velocity=0 time=0
EXTRACT: note_on channel=9 note=39 velocity=0 time=0
EXTRACT: note_on channel=6 note=62 velocity=0 time=0.0057471250000000005
EXTRACT: note_on channel=4 note=58 velocity=70 time=0.0057471250000000005
EXTRACT: note_on channel=4 note=55 velocity=63 time=0
EXTRACT: note_on channel=4 note=62 velocity=69 time=0
EXTRACT: note_on channel=4 note=67 velocity=63 time=0
EXTRACT: note_on channel=5 note=67 velocity=69 time=0
EXTRACT: note_on channel=5 note=62 velocity=65 time=0
EXTRACT: note_on channel=5 note=70 velocity=66 time=0
EXTRACT: note_on channel=6 note=67 velocity=74 time=0
EXTRACT: note_on channel=3 note=65 velocity=0 time=0.13793100000000003
EXTRACT: note_on channel=4 note=43 velocity=0 time=0.011494250000000001
EXTRACT: note_on channel=9 note=35 velocity=61 time=0.0057471250000000005
EXTRACT: note_on channel=3 note=65 velocity=104 time=0
EXTRACT: note_on channel=4 note=62 velocity=0 time=0
EXTRACT: note_on channel=4 note=58 velocity=0 time=0
EXTRACT: note_on channel=4 note=55 velocity=0 time=0
EXTRACT: note_on channel=4 note=67 velocity=0 time=0
EXTRACT: note_on channel=4 note=43 velocity=55 time=0
EXTRACT: note_on channel=5 note=70 velocity=0 time=0
EXTRACT: note_on channel=5 note=62 velocity=0 time=0
EXTRACT: note_on channel=5 note=67 velocity=0 time=0
EXTRACT: note_on channel=9 note=35 velocity=0 time=0
EXTRACT: note_on channel=4 note=58 velocity=65 time=0.011494250000000001
EXTRACT: note_on channel=4 note=62 velocity=67 time=0
EXTRACT: note_on channel=4 note=55 velocity=57 time=0
EXTRACT: note_on channel=4 note=67 velocity=58 time=0
EXTRACT: note_on channel=5 note=62 velocity=48 time=0
EXTRACT: note_on channel=5 note=67 velocity=66 time=0
EXTRACT: note_on channel=5 note=70 velocity=63 time=0
EXTRACT: note_on channel=3 note=65 velocity=0 time=0.13793100000000003
EXTRACT: note_on channel=4 note=43 velocity=0 time=0.011494250000000001
EXTRACT: note_on channel=9 note=28 velocity=51 time=0.0057471250000000005
EXTRACT: note_on channel=3 note=65 velocity=104 time=0
EXTRACT: note_on channel=4 note=55 velocity=0 time=0
EXTRACT: note_on channel=4 note=58 velocity=0 time=0
EXTRACT: note_on channel=4 note=62 velocity=0 time=0
EXTRACT: note_on channel=4 note=67 velocity=0 time=0
EXTRACT: note_on channel=4 note=43 velocity=55 time=0
EXTRACT: note_on channel=5 note=70 velocity=0 time=0
EXTRACT: note_on channel=5 note=67 velocity=0 time=0
EXTRACT: note_on channel=5 note=62 velocity=0 time=0
EXTRACT: note_on channel=9 note=28 velocity=0 time=0
EXTRACT: note_on channel=4 note=58 velocity=68 time=0.011494250000000001
EXTRACT: note_on channel=4 note=55 velocity=63 time=0
EXTRACT: note_on channel=4 note=62 velocity=69 time=0
EXTRACT: note_on channel=4 note=67 velocity=61 time=0
EXTRACT: note_on channel=5 note=62 velocity=55 time=0
EXTRACT: note_on channel=5 note=67 velocity=67 time=0
EXTRACT: note_on channel=5 note=70 velocity=63 time=0
EXTRACT: note_on channel=6 note=65 velocity=78 time=0
EXTRACT: note_on channel=6 note=67 velocity=0 time=0.028735625
EXTRACT: note_on channel=3 note=65 velocity=0 time=0.10919537500000001
EXTRACT: note_on channel=4 note=43 velocity=0 time=0.011494250000000001
EXTRACT: note_on channel=3 note=65 velocity=104 time=0
EXTRACT: note_on channel=4 note=62 velocity=0 time=0
EXTRACT: note_on channel=4 note=58 velocity=0 time=0
EXTRACT: note_on channel=4 note=55 velocity=0 time=0
EXTRACT: note_on channel=4 note=67 velocity=0 time=0
EXTRACT: note_on channel=4 note=43 velocity=55 time=0
EXTRACT: note_on channel=5 note=70 velocity=0 time=0
EXTRACT: note_on channel=5 note=67 velocity=0 time=0
EXTRACT: note_on channel=5 note=62 velocity=0 time=0
EXTRACT: note_on channel=4 note=58 velocity=59 time=0.011494250000000001
EXTRACT: note_on channel=4 note=67 velocity=59 time=0
EXTRACT: note_on channel=4 note=55 velocity=59 time=0
EXTRACT: note_on channel=4 note=62 velocity=59 time=0
EXTRACT: note_on channel=5 note=62 velocity=63 time=0
EXTRACT: note_on channel=5 note=67 velocity=63 time=0
EXTRACT: note_on channel=5 note=70 velocity=63 time=0
EXTRACT: note_on channel=3 note=65 velocity=0 time=0.13793100000000003
EXTRACT: note_on channel=6 note=65 velocity=0 time=0
EXTRACT: note_on channel=3 note=65 velocity=104 time=0
EXTRACT: note_on channel=2 note=27 velocity=97 time=0
EXTRACT: note_on channel=4 note=43 velocity=0 time=0
EXTRACT: note_on channel=9 note=36 velocity=114 time=0.0057471250000000005
EXTRACT: note_on channel=9 note=41 velocity=110 time=0
EXTRACT: note_on channel=9 note=46 velocity=81 time=0
EXTRACT: note_on channel=4 note=55 velocity=0 time=0.0057471250000000005
EXTRACT: note_on channel=4 note=58 velocity=0 time=0
EXTRACT: note_on channel=4 note=67 velocity=0 time=0
EXTRACT: note_on channel=4 note=62 velocity=0 time=0
EXTRACT: note_on channel=4 note=39 velocity=55 time=0
EXTRACT: note_on channel=5 note=70 velocity=0 time=0
EXTRACT: note_on channel=5 note=67 velocity=0 time=0
EXTRACT: note_on channel=5 note=62 velocity=0 time=0
EXTRACT: note_on channel=9 note=46 velocity=0 time=0
EXTRACT: note_on channel=9 note=41 velocity=0 time=0
EXTRACT: note_on channel=9 note=36 velocity=0 time=0
EXTRACT: note_on channel=5 note=70 velocity=65 time=0.0057471250000000005
EXTRACT: note_on channel=6 note=67 velocity=74 time=0
EXTRACT: note_on channel=4 note=63 velocity=64 time=0.0057471250000000005
EXTRACT: note_on channel=4 note=67 velocity=63 time=0
EXTRACT: note_on channel=4 note=58 velocity=65 time=0
EXTRACT: note_on channel=4 note=55 velocity=64 time=0
EXTRACT: note_on channel=5 note=65 velocity=74 time=0
EXTRACT: note_on channel=3 note=65 velocity=0 time=0.12643675000000001
EXTRACT: note_on channel=3 note=62 velocity=104 time=0
EXTRACT: note_on channel=3 note=62 velocity=0 time=0.14942525
EXTRACT: note_on channel=4 note=39 velocity=0 time=0.011494250000000001
EXTRACT: note_on channel=5 note=70 velocity=0 time=0.0057471250000000005
EXTRACT: note_on channel=9 note=35 velocity=68 time=0
EXTRACT: note_on channel=9 note=38 velocity=68 time=0
EXTRACT: note_on channel=3 note=62 velocity=104 time=0
EXTRACT: note_on channel=4 note=58 velocity=0 time=0
EXTRACT: note_on channel=4 note=63 velocity=0 time=0
EXTRACT: note_on channel=4 note=67 velocity=0 time=0
EXTRACT: note_on channel=4 note=55 velocity=0 time=0
EXTRACT: note_on channel=4 note=39 velocity=55 time=0
EXTRACT: note_on channel=5 note=65 velocity=0 time=0
EXTRACT: note_on channel=9 note=38 velocity=0 time=0
EXTRACT: note_on channel=9 note=35 velocity=0 time=0
EXTRACT: note_on channel=4 note=58 velocity=61 time=0.011494250000000001
EXTRACT: note_on channel=4 note=63 velocity=63 time=0
EXTRACT: note_on channel=4 note=55 velocity=58 time=0
EXTRACT: note_on channel=4 note=67 velocity=56 time=0
EXTRACT: note_on channel=5 note=65 velocity=73 time=0
EXTRACT: note_on channel=5 note=70 velocity=63 time=0
EXTRACT: note_on channel=6 note=65 velocity=76 time=0
EXTRACT: note_on channel=6 note=67 velocity=0 time=0.051724125
EXTRACT: note_on channel=3 note=62 velocity=0 time=0.086206875
EXTRACT: note_on channel=9 note=35 velocity=63 time=0.017241375000000003
EXTRACT: note_on channel=3 note=62 velocity=104 time=0
EXTRACT: note_on channel=9 note=35 velocity=0 time=0
EXTRACT: note_on channel=6 note=65 velocity=0 time=0.14367812500000002
EXTRACT: note_on channel=3 note=62 velocity=0 time=0.0057471250000000005
EXTRACT: note_on channel=4 note=39 velocity=0 time=0.011494250000000001
EXTRACT: note_on channel=2 note=27 velocity=0 time=0.0057471250000000005
EXTRACT: note_on channel=9 note=39 velocity=110 time=0
EXTRACT: note_on channel=3 note=62 velocity=104 time=0
EXTRACT: note_on channel=4 note=55 velocity=0 time=0
EXTRACT: note_on channel=4 note=58 velocity=0 time=0
EXTRACT: note_on channel=4 note=63 velocity=0 time=0
EXTRACT: note_on channel=4 note=67 velocity=0 time=0
EXTRACT: note_on channel=4 note=39 velocity=55 time=0
EXTRACT: note_on channel=5 note=70 velocity=0 time=0
EXTRACT: note_on channel=5 note=65 velocity=0 time=0
EXTRACT: note_on channel=6 note=67 velocity=77 time=0
EXTRACT: note_on channel=9 note=39 velocity=0 time=0
EXTRACT: note_on channel=4 note=58 velocity=65 time=0.011494250000000001
EXTRACT: note_on channel=4 note=67 velocity=65 time=0
EXTRACT: note_on channel=4 note=63 velocity=67 time=0
EXTRACT: note_on channel=4 note=55 velocity=62 time=0
EXTRACT: note_on channel=5 note=67 velocity=74 time=0
EXTRACT: note_on channel=5 note=70 velocity=76 time=0
EXTRACT: note_on channel=3 note=62 velocity=0 time=0.13793100000000003
EXTRACT: note_on channel=9 note=37 velocity=57 time=0.017241375000000003
EXTRACT: note_on channel=3 note=65 velocity=104 time=0
EXTRACT: note_on channel=9 note=37 velocity=0 time=0
EXTRACT: note_on channel=3 note=65 velocity=0 time=0.14942525
EXTRACT: note_on channel=4 note=39 velocity=0 time=0.011494250000000001
EXTRACT: note_on channel=5 note=67 velocity=0 time=0
EXTRACT: note_on channel=3 note=60 velocity=103 time=0
EXTRACT: note_on channel=4 note=63 velocity=0 time=0
EXTRACT: note_on channel=4 note=58 velocity=0 time=0
EXTRACT: note_on channel=4 note=67 velocity=0 time=0
EXTRACT: note_on channel=4 note=55 velocity=0 time=0
EXTRACT: note_on channel=4 note=39 velocity=55 time=0
EXTRACT: note_on channel=5 note=70 velocity=0 time=0
EXTRACT: note_on channel=4 note=58 velocity=59 time=0.011494250000000001
EXTRACT: note_on channel=4 note=63 velocity=61 time=0
EXTRACT: note_on channel=4 note=67 velocity=58 time=0
EXTRACT: note_on channel=4 note=55 velocity=57 time=0
EXTRACT: note_on channel=5 note=65 velocity=67 time=0
EXTRACT: note_on channel=5 note=70 velocity=67 time=0
EXTRACT: note_on channel=6 note=65 velocity=76 time=0
EXTRACT: note_on channel=6 note=67 velocity=0 time=0.045977000000000004
EXTRACT: note_on channel=4 note=39 velocity=0 time=0.10344825
EXTRACT: note_on channel=9 note=39 velocity=110 time=0.0057471250000000005
EXTRACT: note_on channel=4 note=67 velocity=0 time=0.0057471250000000005
EXTRACT: note_on channel=4 note=58 velocity=0 time=0
EXTRACT: note_on channel=4 note=63 velocity=0 time=0
EXTRACT: note_on channel=4 note=55 velocity=0 time=0
EXTRACT: note_on channel=4 note=39 velocity=55 time=0
EXTRACT: note_on channel=5 note=70 velocity=0 time=0
EXTRACT: note_on channel=5 note=65 velocity=0 time=0
EXTRACT: note_on channel=9 note=39 velocity=0 time=0
EXTRACT: note_on channel=4 note=58 velocity=67 time=0.011494250000000001
EXTRACT: note_on channel=4 note=55 velocity=61 time=0
EXTRACT: note_on channel=4 note=63 velocity=65 time=0
EXTRACT: note_on channel=4 note=67 velocity=59 time=0
EXTRACT: note_on channel=5 note=70 velocity=75 time=0
EXTRACT: note_on channel=5 note=67 velocity=75 time=0
EXTRACT: note_on channel=3 note=60 velocity=0 time=0.074712625
EXTRACT: note_on channel=3 note=65 velocity=100 time=0
EXTRACT: note_on channel=6 note=65 velocity=0 time=0
EXTRACT: note_on channel=6 note=67 velocity=79 time=0.011494250000000001
EXTRACT: note_on channel=3 note=65 velocity=0 time=0.13793100000000003
EXTRACT: note_on channel=4 note=39 velocity=0 time=0.011494250000000001
EXTRACT: note_on channel=9 note=35 velocity=62 time=0.0057471250000000005
EXTRACT: note_on channel=9 note=37 velocity=59 time=0
EXTRACT: note_on channel=3 note=62 velocity=100 time=0
EXTRACT: note_on channel=4 note=63 velocity=0 time=0
EXTRACT: note_on channel=4 note=58 velocity=0 time=0
EXTRACT: note_on channel=4 note=55 velocity=0 time=0
EXTRACT: note_on channel=4 note=67 velocity=0 time=0
EXTRACT: note_on channel=4 note=39 velocity=55 time=0
EXTRACT: note_on channel=5 note=67 velocity=0 time=0
EXTRACT: note_on channel=5 note=70 velocity=0 time=0
EXTRACT: note_on channel=9 note=37 velocity=0 time=0
EXTRACT: note_on channel=9 note=35 velocity=0 time=0
EXTRACT: note_on channel=4 note=58 velocity=61 time=0.011494250000000001
EXTRACT: note_on channel=4 note=67 velocity=59 time=0
EXTRACT: note_on channel=4 note=63 velocity=61 time=0
EXTRACT: note_on channel=4 note=55 velocity=58 time=0
EXTRACT: note_on channel=5 note=65 velocity=70 time=0
EXTRACT: note_on channel=5 note=70 velocity=67 time=0
EXTRACT: note_on channel=3 note=62 velocity=0 time=0.14942525
EXTRACT: note_on channel=4 note=39 velocity=0 time=0
EXTRACT: note_on channel=9 note=35 velocity=65 time=0.0057471250000000005
EXTRACT: note_on channel=9 note=37 velocity=63 time=0
EXTRACT: note_on channel=3 note=62 velocity=100 time=0
EXTRACT: note_on channel=4 note=63 velocity=0 time=0
EXTRACT: note_on channel=4 note=58 velocity=0 time=0
EXTRACT: note_on channel=4 note=67 velocity=0 time=0
EXTRACT: note_on channel=4 note=55 velocity=0 time=0
EXTRACT: note_on channel=4 note=39 velocity=55 time=0
EXTRACT: note_on channel=5 note=70 velocity=0 time=0
EXTRACT: note_on channel=5 note=65 velocity=0 time=0
EXTRACT: note_on channel=9 note=37 velocity=0 time=0
EXTRACT: note_on channel=9 note=35 velocity=0 time=0
EXTRACT: note_on channel=4 note=58 velocity=68 time=0.011494250000000001
EXTRACT: note_on channel=4 note=67 velocity=65 time=0
EXTRACT: note_on channel=4 note=63 velocity=68 time=0
EXTRACT: note_on channel=4 note=55 velocity=60 time=0
EXTRACT: note_on channel=5 note=65 velocity=81 time=0
EXTRACT: note_on channel=5 note=70 velocity=74 time=0
EXTRACT: note_on channel=6 note=65 velocity=76 time=0
EXTRACT: note_on channel=6 note=67 velocity=0 time=0.045977000000000004
EXTRACT: note_on channel=3 note=62 velocity=0 time=0.09195400000000001
EXTRACT: note_on channel=3 note=62 velocity=100 time=0
EXTRACT: note_on channel=3 note=62 velocity=0 time=0.16091950000000002
EXTRACT: note_on channel=3 note=62 velocity=101 time=0
EXTRACT: note_on channel=4 note=39 velocity=0 time=0
EXTRACT: note_on channel=9 note=39 velocity=109 time=0.0057471250000000005
EXTRACT: note_on channel=4 note=63 velocity=0 time=0.0057471250000000005
EXTRACT: note_on channel=4 note=58 velocity=0 time=0
EXTRACT: note_on channel=4 note=67 velocity=0 time=0
EXTRACT: note_on channel=4 note=55 velocity=0 time=0
EXTRACT: note_on channel=4 note=39 velocity=55 time=0
EXTRACT: note_on channel=5 note=70 velocity=0 time=0
EXTRACT: note_on channel=5 note=65 velocity=0 time=0
EXTRACT: note_on channel=6 note=65 velocity=0 time=0
EXTRACT: note_on channel=9 note=39 velocity=0 time=0
EXTRACT: note_on channel=4 note=67 velocity=65 time=0.011494250000000001
EXTRACT: note_on channel=4 note=58 velocity=69 time=0
EXTRACT: note_on channel=4 note=63 velocity=69 time=0
EXTRACT: note_on channel=4 note=55 velocity=63 time=0
EXTRACT: note_on channel=5 note=70 velocity=66 time=0
EXTRACT: note_on channel=5 note=65 velocity=66 time=0
EXTRACT: note_on channel=6 note=67 velocity=78 time=0
EXTRACT: note_on channel=3 note=62 velocity=0 time=0.12643675000000001
EXTRACT: note_on channel=3 note=62 velocity=98 time=0
EXTRACT: note_on channel=4 note=39 velocity=0 time=0
EXTRACT: note_on channel=9 note=35 velocity=62 time=0.0057471250000000005
EXTRACT: note_on channel=4 note=63 velocity=0 time=0.0057471250000000005
EXTRACT: note_on channel=4 note=67 velocity=0 time=0
EXTRACT: note_on channel=4 note=58 velocity=0 time=0
EXTRACT: note_on channel=4 note=55 velocity=0 time=0
EXTRACT: note_on channel=4 note=39 velocity=55 time=0
EXTRACT: note_on channel=5 note=65 velocity=0 time=0
EXTRACT: note_on channel=5 note=70 velocity=0 time=0
EXTRACT: note_on channel=9 note=35 velocity=0 time=0
EXTRACT: note_on channel=4 note=58 velocity=67 time=0.011494250000000001
EXTRACT: note_on channel=4 note=63 velocity=67 time=0
EXTRACT: note_on channel=4 note=67 velocity=60 time=0
EXTRACT: note_on channel=4 note=55 velocity=61 time=0
EXTRACT: note_on channel=5 note=65 velocity=64 time=0
EXTRACT: note_on channel=5 note=70 velocity=69 time=0
EXTRACT: note_on channel=3 note=62 velocity=0 time=0.132183875
EXTRACT: note_on channel=3 note=62 velocity=101 time=0
EXTRACT: note_on channel=4 note=39 velocity=0 time=0
EXTRACT: note_on channel=9 note=38 velocity=66 time=0.0057471250000000005
EXTRACT: note_on channel=9 note=28 velocity=52 time=0
EXTRACT: note_on channel=4 note=67 velocity=0 time=0.0057471250000000005
EXTRACT: note_on channel=4 note=58 velocity=0 time=0
EXTRACT: note_on channel=4 note=63 velocity=0 time=0
EXTRACT: note_on channel=4 note=55 velocity=0 time=0
EXTRACT: note_on channel=4 note=39 velocity=55 time=0
EXTRACT: note_on channel=5 note=70 velocity=0 time=0
EXTRACT: note_on channel=5 note=65 velocity=0 time=0
EXTRACT: note_on channel=9 note=28 velocity=0 time=0
EXTRACT: note_on channel=9 note=38 velocity=0 time=0
EXTRACT: note_on channel=4 note=58 velocity=66 time=0.011494250000000001
EXTRACT: note_on channel=4 note=67 velocity=60 time=0
EXTRACT: note_on channel=4 note=63 velocity=69 time=0
EXTRACT: note_on channel=4 note=55 velocity=60 time=0
EXTRACT: note_on channel=5 note=65 velocity=70 time=0
EXTRACT: note_on channel=5 note=70 velocity=68 time=0
EXTRACT: note_on channel=6 note=65 velocity=76 time=0
EXTRACT: note_on channel=6 note=67 velocity=0 time=0.034482750000000006
EXTRACT: note_on channel=3 note=62 velocity=0 time=0.09195400000000001
EXTRACT: note_on channel=3 note=62 velocity=98 time=0
EXTRACT: note_on channel=4 note=39 velocity=0 time=0
EXTRACT: note_on channel=9 note=36 velocity=110 time=0.0057471250000000005
EXTRACT: note_on channel=4 note=63 velocity=0 time=0.0057471250000000005
EXTRACT: note_on channel=4 note=58 velocity=0 time=0
EXTRACT: note_on channel=4 note=67 velocity=0 time=0
EXTRACT: note_on channel=4 note=55 velocity=0 time=0
EXTRACT: note_on channel=4 note=39 velocity=55 time=0
EXTRACT: note_on channel=5 note=70 velocity=0 time=0
EXTRACT: note_on channel=5 note=65 velocity=0 time=0
EXTRACT: note_on channel=9 note=36 velocity=0 time=0
EXTRACT: note_on channel=4 note=67 velocity=57 time=0.011494250000000001
EXTRACT: note_on channel=4 note=58 velocity=57 time=0
EXTRACT: note_on channel=4 note=55 velocity=57 time=0
EXTRACT: note_on channel=4 note=63 velocity=57 time=0
EXTRACT: note_on channel=5 note=65 velocity=63 time=0
EXTRACT: note_on channel=5 note=70 velocity=63 time=0
EXTRACT: note_on channel=6 note=65 velocity=0 time=0.10344825
EXTRACT: note_on channel=3 note=62 velocity=0 time=0.028735625
EXTRACT: note_on channel=2 note=34 velocity=96 time=0.0057471250000000005
EXTRACT: note_on channel=3 note=62 velocity=102 time=0
EXTRACT: note_on channel=4 note=39 velocity=0 time=0
EXTRACT: note_on channel=9 note=36 velocity=113 time=0.0057471250000000005
EXTRACT: note_on channel=9 note=41 velocity=110 time=0
EXTRACT: note_on channel=9 note=46 velocity=80 time=0
EXTRACT: note_on channel=4 note=55 velocity=0 time=0.0057471250000000005
EXTRACT: note_on channel=4 note=67 velocity=0 time=0
EXTRACT: note_on channel=4 note=58 velocity=0 time=0
EXTRACT: note_on channel=4 note=63 velocity=0 time=0
EXTRACT: note_on channel=4 note=46 velocity=55 time=0
EXTRACT: note_on channel=5 note=70 velocity=0 time=0
EXTRACT: note_on channel=5 note=65 velocity=0 time=0
EXTRACT: note_on channel=6 note=65 velocity=83 time=0
EXTRACT: note_on channel=9 note=46 velocity=0 time=0
EXTRACT: note_on channel=9 note=41 velocity=0 time=0
EXTRACT: note_on channel=9 note=36 velocity=0 time=0
EXTRACT: note_on channel=4 note=58 velocity=74 time=0.011494250000000001
EXTRACT: note_on channel=4 note=62 velocity=69 time=0
EXTRACT: note_on channel=4 note=65 velocity=66 time=0
EXTRACT: note_on channel=4 note=53 velocity=66 time=0
EXTRACT: note_on channel=5 note=65 velocity=74 time=0
EXTRACT: note_on channel=5 note=70 velocity=63 time=0
EXTRACT: note_on channel=3 note=62 velocity=0 time=0.1149425
EXTRACT: note_on channel=3 note=62 velocity=104 time=0
EXTRACT: note_on channel=4 note=46 velocity=0 time=0
EXTRACT: note_on channel=9 note=35 velocity=64 time=0.0057471250000000005
EXTRACT: note_on channel=9 note=38 velocity=64 time=0
EXTRACT: note_on channel=4 note=65 velocity=0 time=0.0057471250000000005
EXTRACT: note_on channel=4 note=58 velocity=0 time=0
EXTRACT: note_on channel=4 note=62 velocity=0 time=0
EXTRACT: note_on channel=4 note=53 velocity=0 time=0
EXTRACT: note_on channel=4 note=46 velocity=55 time=0
EXTRACT: note_on channel=5 note=70 velocity=0 time=0
EXTRACT: note_on channel=5 note=65 velocity=0 time=0
EXTRACT: note_on channel=9 note=38 velocity=0 time=0
EXTRACT: note_on channel=9 note=35 velocity=0 time=0
EXTRACT: note_on channel=4 note=53 velocity=60 time=0.011494250000000001
EXTRACT: note_on channel=4 note=58 velocity=61 time=0
EXTRACT: note_on channel=4 note=62 velocity=61 time=0
EXTRACT: note_on channel=4 note=65 velocity=59 time=0
EXTRACT: note_on channel=5 note=70 velocity=62 time=0
EXTRACT: note_on channel=5 note=65 velocity=64 time=0
EXTRACT: note_on channel=6 note=62 velocity=82 time=0
EXTRACT: note_on channel=6 note=65 velocity=0 time=0.06321837500000001
EXTRACT: note_on channel=3 note=62 velocity=0 time=0.074712625
EXTRACT: note_on channel=3 note=62 velocity=104 time=0
EXTRACT: note_on channel=9 note=35 velocity=64 time=0.0057471250000000005
EXTRACT: note_on channel=9 note=35 velocity=0 time=0.0057471250000000005
EXTRACT: note_on channel=3 note=62 velocity=0 time=0.14942525
EXTRACT: note_on channel=4 note=46 velocity=0 time=0.011494250000000001
EXTRACT: note_on channel=3 note=62 velocity=104 time=0
EXTRACT: note_on channel=2 note=34 velocity=0 time=0
EXTRACT: note_on channel=9 note=39 velocity=111 time=0
EXTRACT: note_on channel=4 note=62 velocity=0 time=0.0057471250000000005
EXTRACT: note_on channel=4 note=53 velocity=0 time=0
EXTRACT: note_on channel=4 note=58 velocity=0 time=0
EXTRACT: note_on channel=4 note=65 velocity=0 time=0
EXTRACT: note_on channel=4 note=46 velocity=55 time=0
EXTRACT: note_on channel=5 note=65 velocity=0 time=0
EXTRACT: note_on channel=5 note=70 velocity=0 time=0
EXTRACT: note_on channel=9 note=39 velocity=0 time=0
EXTRACT: note_on channel=5 note=65 velocity=74 time=0.0057471250000000005
EXTRACT: note_on channel=6 note=62 velocity=0 time=0
EXTRACT: note_on channel=6 note=65 velocity=82 time=0
EXTRACT: note_on channel=4 note=58 velocity=65 time=0.0057471250000000005
EXTRACT: note_on channel=4 note=53 velocity=64 time=0
EXTRACT: note_on channel=4 note=62 velocity=67 time=0
EXTRACT: note_on channel=4 note=65 velocity=63 time=0
EXTRACT: note_on channel=5 note=70 velocity=65 time=0
EXTRACT: note_on channel=3 note=62 velocity=0 time=0.14367812500000002
EXTRACT: note_on channel=3 note=62 velocity=103 time=0
EXTRACT: note_on channel=9 note=37 velocity=57 time=0.0057471250000000005
EXTRACT: note_on channel=9 note=37 velocity=0 time=0.0057471250000000005
EXTRACT: note_on channel=3 note=62 velocity=0 time=0.13793100000000003
EXTRACT: note_on channel=3 note=62 velocity=104 time=0
EXTRACT: note_on channel=4 note=46 velocity=0 time=0
EXTRACT: note_on channel=5 note=65 velocity=0 time=0.0057471250000000005
EXTRACT: note_on channel=4 note=62 velocity=0 time=0.0057471250000000005
EXTRACT: note_on channel=4 note=58 velocity=0 time=0
EXTRACT: note_on channel=4 note=53 velocity=0 time=0
EXTRACT: note_on channel=4 note=65 velocity=0 time=0
EXTRACT: note_on channel=4 note=46 velocity=55 time=0
EXTRACT: note_on channel=5 note=70 velocity=0 time=0
EXTRACT: note_on channel=5 note=70 velocity=61 time=0
EXTRACT: note_on channel=5 note=65 velocity=64 time=0
EXTRACT: note_on channel=4 note=53 velocity=60 time=0.011494250000000001
EXTRACT: note_on channel=4 note=62 velocity=64 time=0
EXTRACT: note_on channel=4 note=58 velocity=59 time=0
EXTRACT: note_on channel=4 note=65 velocity=59 time=0
EXTRACT: note_on channel=6 note=62 velocity=78 time=0
EXTRACT: note_on channel=6 note=65 velocity=0 time=0.045977000000000004
EXTRACT: note_on channel=4 note=46 velocity=0 time=0.10344825
EXTRACT: note_on channel=5 note=65 velocity=0 time=0
EXTRACT: note_on channel=5 note=70 velocity=0 time=0
EXTRACT: note_on channel=9 note=39 velocity=108 time=0.0057471250000000005
EXTRACT: note_on channel=4 note=58 velocity=0 time=0.0057471250000000005
EXTRACT: note_on channel=4 note=53 velocity=0 time=0
EXTRACT: note_on channel=4 note=62 velocity=0 time=0
EXTRACT: note_on channel=4 note=65 velocity=0 time=0
EXTRACT: note_on channel=4 note=46 velocity=55 time=0
EXTRACT: note_on channel=5 note=70 velocity=65 time=0
EXTRACT: note_on channel=5 note=65 velocity=72 time=0
EXTRACT: note_on channel=9 note=39 velocity=0 time=0
EXTRACT: note_on channel=4 note=58 velocity=67 time=0.011494250000000001
EXTRACT: note_on channel=4 note=53 velocity=63 time=0
EXTRACT: note_on channel=4 note=65 velocity=60 time=0
EXTRACT: note_on channel=4 note=62 velocity=66 time=0
EXTRACT: note_on channel=3 note=62 velocity=0 time=0.051724125
EXTRACT: note_on channel=3 note=65 velocity=107 time=0
EXTRACT: note_on channel=6 note=62 velocity=0 time=0.022988500000000002
EXTRACT: note_on channel=6 note=65 velocity=76 time=0
EXTRACT: note_on channel=3 note=65 velocity=0 time=0.10919537500000001
EXTRACT: note_on channel=3 note=62 velocity=95 time=0
EXTRACT: note_on channel=4 note=46 velocity=0 time=0
EXTRACT: note_on channel=5 note=65 velocity=0 time=0
EXTRACT: note_on channel=5 note=70 velocity=0 time=0
EXTRACT: note_on channel=9 note=35 velocity=61 time=0.0057471250000000005
EXTRACT: note_on channel=9 note=37 velocity=59 time=0
EXTRACT: note_on channel=4 note=65 velocity=0 time=0.0057471250000000005
EXTRACT: note_on channel=4 note=58 velocity=0 time=0
EXTRACT: note_on channel=4 note=53 velocity=0 time=0
EXTRACT: note_on channel=4 note=62 velocity=0 time=0
EXTRACT: note_on channel=4 note=46 velocity=55 time=0
EXTRACT: note_on channel=5 note=70 velocity=60 time=0
EXTRACT: note_on channel=5 note=65 velocity=64 time=0
EXTRACT: note_on channel=9 note=37 velocity=0 time=0
EXTRACT: note_on channel=9 note=35 velocity=0 time=0
EXTRACT: note_on channel=4 note=58 velocity=65 time=0.011494250000000001
EXTRACT: note_on channel=4 note=53 velocity=63 time=0
EXTRACT: note_on channel=4 note=62 velocity=65 time=0
EXTRACT: note_on channel=4 note=65 velocity=59 time=0
EXTRACT: note_on channel=3 note=62 velocity=0 time=0.12068962500000001
EXTRACT: note_on channel=3 note=62 velocity=99 time=0
EXTRACT: note_on channel=4 note=46 velocity=0 time=0
EXTRACT: note_on channel=5 note=65 velocity=0 time=0
EXTRACT: note_on channel=5 note=70 velocity=0 time=0
EXTRACT: note_on channel=9 note=35 velocity=67 time=0.0057471250000000005
EXTRACT: note_on channel=9 note=37 velocity=64 time=0
EXTRACT: note_on channel=4 note=62 velocity=0 time=0.0057471250000000005
EXTRACT: note_on channel=4 note=58 velocity=0 time=0
EXTRACT: note_on channel=4 note=53 velocity=0 time=0
EXTRACT: note_on channel=4 note=65 velocity=0 time=0
EXTRACT: note_on channel=4 note=46 velocity=55 time=0
EXTRACT: note_on channel=5 note=65 velocity=70 time=0
EXTRACT: note_on channel=5 note=70 velocity=65 time=0
EXTRACT: note_on channel=9 note=37 velocity=0 time=0
EXTRACT: note_on channel=9 note=35 velocity=0 time=0
EXTRACT: note_on channel=4 note=58 velocity=64 time=0.011494250000000001
EXTRACT: note_on channel=4 note=53 velocity=64 time=0
EXTRACT: note_on channel=4 note=62 velocity=64 time=0
EXTRACT: note_on channel=4 note=65 velocity=59 time=0
EXTRACT: note_on channel=6 note=62 velocity=83 time=0
EXTRACT: note_on channel=6 note=65 velocity=0 time=0.06321837500000001
EXTRACT: note_on channel=3 note=62 velocity=0 time=0.05747125
EXTRACT: note_on channel=3 note=62 velocity=102 time=0
EXTRACT: note_on channel=3 note=62 velocity=0 time=0.14367812500000002
EXTRACT: note_on channel=3 note=62 velocity=102 time=0
EXTRACT: note_on channel=4 note=46 velocity=0 time=0
EXTRACT: note_on channel=5 note=70 velocity=0 time=0
EXTRACT: note_on channel=5 note=65 velocity=0 time=0
EXTRACT: note_on channel=9 note=39 velocity=114 time=0.0057471250000000005
EXTRACT: note_on channel=4 note=62 velocity=0 time=0.0057471250000000005
EXTRACT: note_on channel=4 note=58 velocity=0 time=0
EXTRACT: note_on channel=4 note=53 velocity=0 time=0
EXTRACT: note_on channel=4 note=65 velocity=0 time=0
EXTRACT: note_on channel=4 note=46 velocity=55 time=0
EXTRACT: note_on channel=9 note=39 velocity=0 time=0
EXTRACT: note_on channel=4 note=58 velocity=75 time=0.011494250000000001
EXTRACT: note_on channel=4 note=53 velocity=66 time=0
EXTRACT: note_on channel=4 note=62 velocity=69 time=0
EXTRACT: note_on channel=4 note=65 velocity=63 time=0
EXTRACT: note_on channel=5 note=70 velocity=72 time=0
EXTRACT: note_on channel=5 note=65 velocity=72 time=0
EXTRACT: note_on channel=6 note=65 velocity=79 time=0
EXTRACT: note_on channel=6 note=62 velocity=0 time=0.022988500000000002
EXTRACT: note_on channel=3 note=62 velocity=0 time=0.09770112500000001
EXTRACT: note_on channel=3 note=62 velocity=104 time=0
EXTRACT: note_on channel=4 note=46 velocity=0 time=0
EXTRACT: note_on channel=9 note=35 velocity=61 time=0.0057471250000000005
EXTRACT: note_on channel=4 note=62 velocity=0 time=0.0057471250000000005
EXTRACT: note_on channel=4 note=58 velocity=0 time=0
EXTRACT: note_on channel=4 note=53 velocity=0 time=0
EXTRACT: note_on channel=4 note=65 velocity=0 time=0
EXTRACT: note_on channel=4 note=46 velocity=55 time=0
EXTRACT: note_on channel=5 note=65 velocity=0 time=0
EXTRACT: note_on channel=5 note=70 velocity=0 time=0
EXTRACT: note_on channel=9 note=35 velocity=0 time=0
EXTRACT: note_on channel=4 note=58 velocity=66 time=0.011494250000000001
EXTRACT: note_on channel=4 note=53 velocity=64 time=0
EXTRACT: note_on channel=4 note=65 velocity=59 time=0
EXTRACT: note_on channel=4 note=62 velocity=66 time=0
EXTRACT: note_on channel=5 note=65 velocity=65 time=0
EXTRACT: note_on channel=5 note=70 velocity=63 time=0
EXTRACT: note_on channel=3 note=62 velocity=0 time=0.1149425
EXTRACT: note_on channel=4 note=46 velocity=0 time=0.034482750000000006
EXTRACT: note_on channel=3 note=62 velocity=104 time=0
EXTRACT: note_on channel=9 note=28 velocity=51 time=0
EXTRACT: note_on channel=4 note=65 velocity=0 time=0.0057471250000000005
EXTRACT: note_on channel=4 note=58 velocity=0 time=0
EXTRACT: note_on channel=4 note=53 velocity=0 time=0
EXTRACT: note_on channel=4 note=62 velocity=0 time=0
EXTRACT: note_on channel=4 note=46 velocity=55 time=0
EXTRACT: note_on channel=5 note=70 velocity=0 time=0
EXTRACT: note_on channel=5 note=65 velocity=0 time=0
EXTRACT: note_on channel=9 note=28 velocity=0 time=0
EXTRACT: note_on channel=4 note=53 velocity=60 time=0.011494250000000001
EXTRACT: note_on channel=4 note=58 velocity=63 time=0
EXTRACT: note_on channel=4 note=62 velocity=66 time=0
EXTRACT: note_on channel=4 note=65 velocity=58 time=0
EXTRACT: note_on channel=5 note=65 velocity=65 time=0
EXTRACT: note_on channel=5 note=70 velocity=61 time=0
EXTRACT: note_on channel=6 note=62 velocity=75 time=0
EXTRACT: note_on channel=6 note=65 velocity=0 time=0.028735625
EXTRACT: note_on channel=3 note=62 velocity=0 time=0.09195400000000001
EXTRACT: note_on channel=3 note=62 velocity=104 time=0
EXTRACT: note_on channel=4 note=46 velocity=0 time=0
EXTRACT: note_on channel=4 note=62 velocity=0 time=0.011494250000000001
EXTRACT: note_on channel=4 note=53 velocity=0 time=0
EXTRACT: note_on channel=4 note=58 velocity=0 time=0
EXTRACT: note_on channel=4 note=65 velocity=0 time=0
EXTRACT: note_on channel=4 note=46 velocity=55 time=0
EXTRACT: note_on channel=5 note=70 velocity=0 time=0
EXTRACT: note_on channel=5 note=65 velocity=0 time=0
EXTRACT: note_on channel=4 note=58 velocity=57 time=0.011494250000000001
EXTRACT: note_on channel=4 note=62 velocity=57 time=0
EXTRACT: note_on channel=4 note=65 velocity=57 time=0
EXTRACT: note_on channel=4 note=53 velocity=57 time=0
EXTRACT: note_on channel=5 note=65 velocity=63 time=0
EXTRACT: note_on channel=5 note=70 velocity=60 time=0
EXTRACT: note_on channel=3 note=62 velocity=0 time=0.1149425
EXTRACT: note_on channel=3 note=62 velocity=105 time=0
EXTRACT: note_on channel=2 note=33 velocity=97 time=0
EXTRACT: note_on channel=4 note=46 velocity=0 time=0
EXTRACT: note_on channel=6 note=62 velocity=0 time=0.0057471250000000005
EXTRACT: note_on channel=9 note=36 velocity=114 time=0
EXTRACT: note_on channel=9 note=41 velocity=110 time=0
EXTRACT: note_on channel=9 note=46 velocity=81 time=0
EXTRACT: note_on channel=4 note=65 velocity=0 time=0.0057471250000000005
EXTRACT: note_on channel=4 note=58 velocity=0 time=0
EXTRACT: note_on channel=4 note=62 velocity=0 time=0
EXTRACT: note_on channel=4 note=53 velocity=0 time=0
EXTRACT: note_on channel=4 note=45 velocity=55 time=0
EXTRACT: note_on channel=5 note=70 velocity=0 time=0
EXTRACT: note_on channel=5 note=65 velocity=0 time=0
EXTRACT: note_on channel=6 note=65 velocity=83 time=0
EXTRACT: note_on channel=9 note=46 velocity=0 time=0
EXTRACT: note_on channel=9 note=41 velocity=0 time=0
EXTRACT: note_on channel=9 note=36 velocity=0 time=0
EXTRACT: note_on channel=4 note=60 velocity=69 time=0.011494250000000001
EXTRACT: note_on channel=4 note=57 velocity=69 time=0
EXTRACT: note_on channel=4 note=65 velocity=69 time=0
EXTRACT: note_on channel=5 note=65 velocity=76 time=0
EXTRACT: note_on channel=5 note=70 velocity=69 time=0
EXTRACT: note_on channel=3 note=62 velocity=0 time=0.1149425
EXTRACT: note_on channel=3 note=62 velocity=98 time=0
EXTRACT: note_on channel=3 note=62 velocity=0 time=0.14367812500000002
EXTRACT: note_on channel=3 note=60 velocity=105 time=0
EXTRACT: note_on channel=4 note=45 velocity=0 time=0.0057471250000000005
EXTRACT: note_on channel=9 note=35 velocity=68 time=0.0057471250000000005
EXTRACT: note_on channel=9 note=38 velocity=68 time=0
EXTRACT: note_on channel=4 note=60 velocity=0 time=0.0057471250000000005
EXTRACT: note_on channel=4 note=57 velocity=0 time=0
EXTRACT: note_on channel=4 note=65 velocity=0 time=0
EXTRACT: note_on channel=4 note=45 velocity=55 time=0
EXTRACT: note_on channel=5 note=70 velocity=0 time=0
EXTRACT: note_on channel=5 note=65 velocity=0 time=0
EXTRACT: note_on channel=9 note=38 velocity=0 time=0
EXTRACT: note_on channel=9 note=35 velocity=0 time=0
EXTRACT: note_on channel=4 note=57 velocity=59 time=0.011494250000000001
EXTRACT: note_on channel=4 note=60 velocity=70 time=0
EXTRACT: note_on channel=4 note=65 velocity=66 time=0
EXTRACT: note_on channel=5 note=70 velocity=67 time=0
EXTRACT: note_on channel=5 note=65 velocity=71 time=0
EXTRACT: note_on channel=6 note=60 velocity=83 time=0
EXTRACT: note_on channel=6 note=65 velocity=0 time=0.028735625
EXTRACT: note_on channel=9 note=35 velocity=63 time=0.12643675000000001
EXTRACT: note_on channel=9 note=35 velocity=0 time=0.0057471250000000005
EXTRACT: note_on channel=3 note=60 velocity=0 time=0.1149425
EXTRACT: note_on channel=2 note=33 velocity=0 time=0.040229875000000005
EXTRACT: note_on channel=3 note=62 velocity=104 time=0
EXTRACT: note_on channel=4 note=45 velocity=0 time=0
EXTRACT: note_on channel=9 note=39 velocity=110 time=0.0057471250000000005
EXTRACT: note_on channel=4 note=57 velocity=0 time=0.0057471250000000005
EXTRACT: note_on channel=4 note=60 velocity=0 time=0
EXTRACT: note_on channel=4 note=65 velocity=0 time=0
EXTRACT: note_on channel=4 note=45 velocity=55 time=0
EXTRACT: note_on channel=5 note=65 velocity=0 time=0
EXTRACT: note_on channel=5 note=70 velocity=0 time=0
EXTRACT: note_on channel=9 note=39 velocity=0 time=0
EXTRACT: note_on channel=4 note=60 velocity=75 time=0.011494250000000001
EXTRACT: note_on channel=4 note=65 velocity=75 time=0
EXTRACT: note_on channel=4 note=57 velocity=75 time=0
EXTRACT: note_on channel=5 note=70 velocity=65 time=0
EXTRACT: note_on channel=5 note=65 velocity=71 time=0
EXTRACT: note_on channel=6 note=65 velocity=76 time=0
EXTRACT: note_on channel=6 note=60 velocity=0 time=0.0057471250000000005
EXTRACT: note_on channel=3 note=62 velocity=0 time=0.09770112500000001
EXTRACT: note_on channel=3 note=62 velocity=95 time=0
EXTRACT: note_on channel=9 note=37 velocity=57 time=0.0057471250000000005
EXTRACT: note_on channel=9 note=37 velocity=0 time=0.0057471250000000005
EXTRACT: note_on channel=3 note=62 velocity=0 time=0.10919537500000001
EXTRACT: note_on channel=4 note=45 velocity=0 time=0.051724125
EXTRACT: note_on channel=3 note=62 velocity=95 time=0
EXTRACT: note_on channel=4 note=60 velocity=0 time=0
EXTRACT: note_on channel=4 note=65 velocity=0 time=0
EXTRACT: note_on channel=4 note=57 velocity=0 time=0
EXTRACT: note_on channel=4 note=45 velocity=55 time=0
EXTRACT: note_on channel=5 note=65 velocity=0 time=0
EXTRACT: note_on channel=5 note=70 velocity=0 time=0
EXTRACT: note_on channel=4 note=57 velocity=60 time=0.011494250000000001
EXTRACT: note_on channel=4 note=65 velocity=60 time=0
EXTRACT: note_on channel=4 note=60 velocity=59 time=0
EXTRACT: note_on channel=5 note=65 velocity=64 time=0
EXTRACT: note_on channel=5 note=70 velocity=59 time=0
EXTRACT: note_on channel=6 note=60 velocity=77 time=0
EXTRACT: note_on channel=6 note=65 velocity=0 time=0.034482750000000006
EXTRACT: note_on channel=3 note=62 velocity=0 time=0.074712625
EXTRACT: note_on channel=4 note=45 velocity=0 time=0.040229875000000005
EXTRACT: note_on channel=9 note=39 velocity=110 time=0.0057471250000000005
EXTRACT: note_on channel=3 note=62 velocity=95 time=0
EXTRACT: note_on channel=4 note=57 velocity=0 time=0
EXTRACT: note_on channel=4 note=65 velocity=0 time=0
EXTRACT: note_on channel=4 note=60 velocity=0 time=0
EXTRACT: note_on channel=4 note=45 velocity=55 time=0
EXTRACT: note_on channel=5 note=70 velocity=0 time=0
EXTRACT: note_on channel=5 note=65 velocity=0 time=0
EXTRACT: note_on channel=9 note=39 velocity=0 time=0
EXTRACT: note_on channel=4 note=60 velocity=74 time=0.011494250000000001
EXTRACT: note_on channel=4 note=57 velocity=74 time=0
EXTRACT: note_on channel=4 note=65 velocity=74 time=0
EXTRACT: note_on channel=5 note=65 velocity=69 time=0
EXTRACT: note_on channel=5 note=70 velocity=65 time=0
EXTRACT: note_on channel=3 note=62 velocity=0 time=0.10919537500000001
EXTRACT: note_on channel=3 note=65 velocity=104 time=0
EXTRACT: note_on channel=6 note=65 velocity=72 time=0.022988500000000002
EXTRACT: note_on channel=6 note=60 velocity=0 time=0.040229875000000005
EXTRACT: note_on channel=3 note=65 velocity=0 time=0.074712625
EXTRACT: note_on channel=3 note=62 velocity=105 time=0
EXTRACT: note_on channel=4 note=45 velocity=0 time=0
EXTRACT: note_on channel=9 note=35 velocity=62 time=0.0057471250000000005
EXTRACT: note_on channel=9 note=37 velocity=59 time=0
EXTRACT: note_on channel=4 note=60 velocity=0 time=0.0057471250000000005
EXTRACT: note_on channel=4 note=57 velocity=0 time=0
EXTRACT: note_on channel=4 note=65 velocity=0 time=0
EXTRACT: note_on channel=4 note=45 velocity=55 time=0
EXTRACT: note_on channel=5 note=70 velocity=0 time=0
EXTRACT: note_on channel=5 note=65 velocity=0 time=0
EXTRACT: note_on channel=9 note=37 velocity=0 time=0
EXTRACT: note_on channel=9 note=35 velocity=0 time=0
EXTRACT: note_on channel=4 note=60 velocity=70 time=0.011494250000000001
EXTRACT: note_on channel=4 note=57 velocity=63 time=0
EXTRACT: note_on channel=4 note=65 velocity=69 time=0
EXTRACT: note_on channel=5 note=65 velocity=72 time=0
EXTRACT: note_on channel=5 note=70 velocity=67 time=0
EXTRACT: note_on channel=3 note=62 velocity=0 time=0.12068962500000001
EXTRACT: note_on channel=3 note=62 velocity=105 time=0
EXTRACT: note_on channel=4 note=45 velocity=0 time=0
EXTRACT: note_on channel=9 note=35 velocity=65 time=0.0057471250000000005
EXTRACT: note_on channel=9 note=37 velocity=63 time=0
EXTRACT: note_on channel=4 note=60 velocity=0 time=0.0057471250000000005
EXTRACT: note_on channel=4 note=57 velocity=0 time=0
EXTRACT: note_on channel=4 note=65 velocity=0 time=0
EXTRACT: note_on channel=4 note=45 velocity=55 time=0
EXTRACT: note_on channel=5 note=70 velocity=0 time=0
EXTRACT: note_on channel=5 note=65 velocity=0 time=0
EXTRACT: note_on channel=9 note=37 velocity=0 time=0
EXTRACT: note_on channel=9 note=35 velocity=0 time=0
EXTRACT: note_on channel=4 note=60 velocity=75 time=0.011494250000000001
EXTRACT: note_on channel=4 note=57 velocity=64 time=0
EXTRACT: note_on channel=4 note=65 velocity=71 time=0
EXTRACT: note_on channel=5 note=65 velocity=69 time=0
EXTRACT: note_on channel=5 note=70 velocity=64 time=0
EXTRACT: note_on channel=6 note=60 velocity=78 time=0
EXTRACT: note_on channel=6 note=65 velocity=0 time=0.022988500000000002
EXTRACT: note_on channel=3 note=62 velocity=0 time=0.09770112500000001
EXTRACT: note_on channel=3 note=62 velocity=90 time=0
EXTRACT: note_on channel=3 note=62 velocity=0 time=0.14367812500000002
EXTRACT: note_on channel=3 note=62 velocity=100 time=0
EXTRACT: note_on channel=4 note=45 velocity=0 time=0
EXTRACT: note_on channel=9 note=39 velocity=109 time=0.0057471250000000005
EXTRACT: note_on channel=9 note=54 velocity=83 time=0
EXTRACT: note_on channel=4 note=60 velocity=0 time=0.0057471250000000005
EXTRACT: note_on channel=4 note=57 velocity=0 time=0
EXTRACT: note_on channel=4 note=65 velocity=0 time=0
EXTRACT: note_on channel=4 note=45 velocity=55 time=0
EXTRACT: note_on channel=5 note=70 velocity=0 time=0
EXTRACT: note_on channel=5 note=65 velocity=0 time=0
EXTRACT: note_on channel=9 note=54 velocity=0 time=0
EXTRACT: note_on channel=9 note=39 velocity=0 time=0
EXTRACT: note_on channel=4 note=60 velocity=74 time=0.011494250000000001
EXTRACT: note_on channel=4 note=57 velocity=74 time=0
EXTRACT: note_on channel=4 note=65 velocity=74 time=0
EXTRACT: note_on channel=5 note=65 velocity=76 time=0
EXTRACT: note_on channel=5 note=70 velocity=69 time=0
EXTRACT: note_on channel=6 note=65 velocity=74 time=0
EXTRACT: note_on channel=6 note=60 velocity=0 time=0.011494250000000001
EXTRACT: note_on channel=9 note=54 velocity=81 time=0.05747125
EXTRACT: note_on channel=9 note=54 velocity=0 time=0.0057471250000000005
EXTRACT: note_on channel=3 note=62 velocity=0 time=0.034482750000000006
EXTRACT: note_on channel=3 note=62 velocity=95 time=0
EXTRACT: note_on channel=4 note=45 velocity=0 time=0
EXTRACT: note_on channel=9 note=35 velocity=62 time=0.0057471250000000005
EXTRACT: note_on channel=9 note=54 velocity=78 time=0
EXTRACT: note_on channel=4 note=60 velocity=0 time=0.0057471250000000005
EXTRACT: note_on channel=4 note=57 velocity=0 time=0
EXTRACT: note_on channel=4 note=65 velocity=0 time=0
EXTRACT: note_on channel=4 note=45 velocity=55 time=0
EXTRACT: note_on channel=5 note=70 velocity=0 time=0
EXTRACT: note_on channel=5 note=65 velocity=0 time=0
EXTRACT: note_on channel=9 note=54 velocity=0 time=0
EXTRACT: note_on channel=9 note=35 velocity=0 time=0
EXTRACT: note_on channel=4 note=60 velocity=77 time=0.011494250000000001
EXTRACT: note_on channel=4 note=57 velocity=65 time=0
EXTRACT: note_on channel=4 note=65 velocity=69 time=0
EXTRACT: note_on channel=5 note=65 velocity=69 time=0
EXTRACT: note_on channel=5 note=70 velocity=67 time=0
EXTRACT: note_on channel=9 note=54 velocity=75 time=0.06896550000000001
EXTRACT: note_on channel=9 note=54 velocity=0 time=0.0057471250000000005
EXTRACT: note_on channel=3 note=62 velocity=0 time=0.028735625
EXTRACT: note_on channel=3 note=62 velocity=95 time=0
EXTRACT: note_on channel=4 note=45 velocity=0 time=0
EXTRACT: note_on channel=9 note=54 velocity=73 time=0.0057471250000000005
EXTRACT: note_on channel=9 note=28 velocity=52 time=0
EXTRACT: note_on channel=4 note=60 velocity=0 time=0.0057471250000000005
EXTRACT: note_on channel=4 note=57 velocity=0 time=0
EXTRACT: note_on channel=4 note=65 velocity=0 time=0
EXTRACT: note_on channel=4 note=45 velocity=55 time=0
EXTRACT: note_on channel=5 note=70 velocity=0 time=0
EXTRACT: note_on channel=5 note=65 velocity=0 time=0
EXTRACT: note_on channel=9 note=28 velocity=0 time=0
EXTRACT: note_on channel=9 note=54 velocity=0 time=0
EXTRACT: note_on channel=4 note=60 velocity=79 time=0.011494250000000001
EXTRACT: note_on channel=4 note=57 velocity=65 time=0
EXTRACT: note_on channel=4 note=65 velocity=72 time=0
EXTRACT: note_on channel=5 note=65 velocity=64 time=0
EXTRACT: note_on channel=5 note=70 velocity=63 time=0
EXTRACT: note_on channel=6 note=60 velocity=75 time=0
EXTRACT: note_on channel=9 note=54 velocity=70 time=0.06896550000000001
EXTRACT: note_on channel=9 note=54 velocity=0 time=0.0057471250000000005
EXTRACT: note_on channel=3 note=62 velocity=0 time=0.028735625
EXTRACT: note_on channel=3 note=62 velocity=95 time=0
EXTRACT: note_on channel=2 note=33 velocity=80 time=0
EXTRACT: note_on channel=4 note=45 velocity=0 time=0
EXTRACT: note_on channel=9 note=36 velocity=110 time=0.0057471250000000005
EXTRACT: note_on channel=9 note=41 velocity=110 time=0
EXTRACT: note_on channel=9 note=54 velocity=67 time=0
EXTRACT: note_on channel=4 note=60 velocity=0 time=0.0057471250000000005
EXTRACT: note_on channel=4 note=57 velocity=0 time=0
EXTRACT: note_on channel=4 note=65 velocity=0 time=0
EXTRACT: note_on channel=4 note=45 velocity=55 time=0
EXTRACT: note_on channel=5 note=70 velocity=0 time=0
EXTRACT: note_on channel=5 note=65 velocity=0 time=0
EXTRACT: note_on channel=9 note=54 velocity=0 time=0
EXTRACT: note_on channel=9 note=41 velocity=0 time=0
EXTRACT: note_on channel=9 note=36 velocity=0 time=0
EXTRACT: note_on channel=4 note=60 velocity=65 time=0.011494250000000001
EXTRACT: note_on channel=4 note=57 velocity=65 time=0
EXTRACT: note_on channel=4 note=65 velocity=65 time=0
EXTRACT: note_on channel=5 note=65 velocity=64 time=0
EXTRACT: note_on channel=5 note=70 velocity=64 time=0
EXTRACT: note_on channel=9 note=54 velocity=64 time=0.06896550000000001
EXTRACT: note_on channel=9 note=54 velocity=0 time=0.0057471250000000005
EXTRACT: note_on channel=3 note=62 velocity=0 time=0.028735625
EXTRACT: note_on channel=6 note=65 velocity=0 time=0.011494250000000001
EXTRACT: note_on channel=6 note=60 velocity=0 time=0.011494250000000001
EXTRACT: note_on channel=2 note=33 velocity=0 time=0.0057471250000000005
EXTRACT: note_on channel=2 note=31 velocity=95 time=0.011494250000000001
EXTRACT: note_on channel=3 note=62 velocity=100 time=0
EXTRACT: note_on channel=4 note=45 velocity=0 time=0
EXTRACT: note_on channel=9 note=36 velocity=113 time=0.0057471250000000005
EXTRACT: note_on channel=9 note=41 velocity=110 time=0
EXTRACT: note_on channel=9 note=46 velocity=80 time=0
EXTRACT: note_on channel=4 note=60 velocity=0 time=0.0057471250000000005
EXTRACT: note_on channel=4 note=57 velocity=0 time=0
EXTRACT: note_on channel=4 note=65 velocity=0 time=0
EXTRACT: note_on channel=4 note=43 velocity=55 time=0
EXTRACT: note_on channel=5 note=70 velocity=0 time=0
EXTRACT: note_on channel=5 note=65 velocity=0 time=0
EXTRACT: note_on channel=6 note=67 velocity=78 time=0
EXTRACT: note_on channel=9 note=46 velocity=0 time=0
EXTRACT: note_on channel=9 note=41 velocity=0 time=0
EXTRACT: note_on channel=9 note=36 velocity=0 time=0
EXTRACT: note_on channel=5 note=62 velocity=65 time=0.0057471250000000005
EXTRACT: note_on channel=5 note=67 velocity=74 time=0.0057471250000000005
EXTRACT: note_on channel=5 note=70 velocity=65 time=0
EXTRACT: note_on channel=4 note=58 velocity=68 time=0.0057471250000000005
EXTRACT: note_on channel=4 note=62 velocity=68 time=0
EXTRACT: note_on channel=4 note=67 velocity=63 time=0
EXTRACT: note_on channel=4 note=55 velocity=62 time=0
EXTRACT: note_on channel=3 note=62 velocity=0 time=0.1149425
EXTRACT: note_on channel=3 note=62 velocity=81 time=0
EXTRACT: note_on channel=3 note=62 velocity=0 time=0.14942525
EXTRACT: note_on channel=3 note=62 velocity=93 time=0
EXTRACT: note_on channel=4 note=43 velocity=0 time=0
EXTRACT: note_on channel=5 note=62 velocity=0 time=0.0057471250000000005
EXTRACT: note_on channel=9 note=35 velocity=64 time=0
EXTRACT: note_on channel=9 note=38 velocity=64 time=0
EXTRACT: note_on channel=4 note=43 velocity=55 time=0.0057471250000000005
EXTRACT: note_on channel=5 note=70 velocity=0 time=0
EXTRACT: note_on channel=5 note=67 velocity=0 time=0
EXTRACT: note_on channel=9 note=38 velocity=0 time=0
EXTRACT: note_on channel=9 note=35 velocity=0 time=0
EXTRACT: note_on channel=4 note=67 velocity=0 time=0.0057471250000000005
EXTRACT: note_on channel=4 note=55 velocity=0 time=0
EXTRACT: note_on channel=4 note=58 velocity=0 time=0
EXTRACT: note_on channel=4 note=62 velocity=0 time=0
EXTRACT: note_on channel=6 note=62 velocity=79 time=0.0057471250000000005
EXTRACT: note_on channel=4 note=58 velocity=62 time=0.0057471250000000005
EXTRACT: note_on channel=4 note=55 velocity=59 time=0
EXTRACT: note_on channel=4 note=67 velocity=58 time=0
EXTRACT: note_on channel=4 note=62 velocity=64 time=0
EXTRACT: note_on channel=5 note=67 velocity=59 time=0
EXTRACT: note_on channel=5 note=62 velocity=58 time=0
EXTRACT: note_on channel=5 note=70 velocity=58 time=0
EXTRACT: note_on channel=6 note=67 velocity=0 time=0.05747125
EXTRACT: note_on channel=3 note=62 velocity=0 time=0.040229875000000005
EXTRACT: note_on channel=9 note=35 velocity=64 time=0.051724125
EXTRACT: note_on channel=9 note=35 velocity=0 time=0.0057471250000000005
EXTRACT: note_on channel=2 note=31 velocity=0 time=0.155172375
EXTRACT: note_on channel=4 note=43 velocity=0 time=0.0057471250000000005
EXTRACT: note_on channel=9 note=39 velocity=111 time=0.0057471250000000005
EXTRACT: note_on channel=3 note=65 velocity=93 time=0
EXTRACT: note_on channel=4 note=43 velocity=55 time=0
EXTRACT: note_on channel=9 note=39 velocity=0 time=0
EXTRACT: note_on channel=4 note=67 velocity=0 time=0.0057471250000000005
EXTRACT: note_on channel=4 note=62 velocity=0 time=0
EXTRACT: note_on channel=4 note=58 velocity=0 time=0
EXTRACT: note_on channel=4 note=55 velocity=0 time=0
EXTRACT: note_on channel=5 note=70 velocity=0 time=0
EXTRACT: note_on channel=5 note=62 velocity=0 time=0
EXTRACT: note_on channel=5 note=67 velocity=0 time=0
EXTRACT: note_on channel=6 note=67 velocity=77 time=0.0057471250000000005
EXTRACT: note_on channel=4 note=58 velocity=67 time=0.0057471250000000005
EXTRACT: note_on channel=4 note=55 velocity=65 time=0
EXTRACT: note_on channel=4 note=62 velocity=69 time=0
EXTRACT: note_on channel=4 note=67 velocity=61 time=0
EXTRACT: note_on channel=5 note=62 velocity=63 time=0
EXTRACT: note_on channel=5 note=67 velocity=70 time=0
EXTRACT: note_on channel=5 note=70 velocity=63 time=0
EXTRACT: note_on channel=6 note=62 velocity=0 time=0.011494250000000001
EXTRACT: note_on channel=3 note=65 velocity=0 time=0.09770112500000001
EXTRACT: note_on channel=9 note=37 velocity=57 time=0.040229875000000005
EXTRACT: note_on channel=9 note=37 velocity=0 time=0.0057471250000000005
EXTRACT: note_on channel=4 note=43 velocity=0 time=0.16091950000000002
EXTRACT: note_on channel=3 note=62 velocity=93 time=0
EXTRACT: note_on channel=4 note=43 velocity=55 time=0.0057471250000000005
EXTRACT: note_on channel=4 note=62 velocity=0 time=0.0057471250000000005
EXTRACT: note_on channel=4 note=67 velocity=0 time=0
EXTRACT: note_on channel=4 note=58 velocity=0 time=0
EXTRACT: note_on channel=4 note=55 velocity=0 time=0
EXTRACT: note_on channel=5 note=70 velocity=0 time=0
EXTRACT: note_on channel=5 note=67 velocity=0 time=0
EXTRACT: note_on channel=5 note=62 velocity=0 time=0
EXTRACT: note_on channel=6 note=62 velocity=77 time=0.0057471250000000005
EXTRACT: note_on channel=4 note=58 velocity=60 time=0.0057471250000000005
EXTRACT: note_on channel=4 note=62 velocity=63 time=0
EXTRACT: note_on channel=4 note=55 velocity=58 time=0
EXTRACT: note_on channel=4 note=67 velocity=54 time=0
EXTRACT: note_on channel=5 note=67 velocity=59 time=0
EXTRACT: note_on channel=5 note=62 velocity=58 time=0
EXTRACT: note_on channel=5 note=70 velocity=57 time=0
EXTRACT: note_on channel=6 note=67 velocity=0 time=0.040229875000000005
EXTRACT: note_on channel=3 note=62 velocity=0 time=0.06321837500000001
EXTRACT: note_on channel=3 note=62 velocity=93 time=0
EXTRACT: note_on channel=4 note=43 velocity=0 time=0
EXTRACT: note_on channel=9 note=39 velocity=108 time=0.0057471250000000005
EXTRACT: note_on channel=4 note=43 velocity=55 time=0.0057471250000000005
EXTRACT: note_on channel=9 note=39 velocity=0 time=0
EXTRACT: note_on channel=4 note=55 velocity=0 time=0.0057471250000000005
EXTRACT: note_on channel=4 note=67 velocity=0 time=0
EXTRACT: note_on channel=4 note=58 velocity=0 time=0
EXTRACT: note_on channel=4 note=62 velocity=0 time=0
EXTRACT: note_on channel=5 note=70 velocity=0 time=0
EXTRACT: note_on channel=5 note=62 velocity=0 time=0
EXTRACT: note_on channel=5 note=67 velocity=0 time=0
EXTRACT: note_on channel=4 note=58 velocity=71 time=0.011494250000000001
EXTRACT: note_on channel=4 note=55 velocity=63 time=0
EXTRACT: note_on channel=4 note=62 velocity=71 time=0
EXTRACT: note_on channel=4 note=67 velocity=63 time=0
EXTRACT: note_on channel=5 note=62 velocity=63 time=0
EXTRACT: note_on channel=5 note=67 velocity=69 time=0
EXTRACT: note_on channel=5 note=70 velocity=63 time=0
EXTRACT: note_on channel=3 note=62 velocity=0 time=0.09770112500000001
EXTRACT: note_on channel=3 note=62 velocity=93 time=0
EXTRACT: note_on channel=6 note=67 velocity=75 time=0.017241375000000003
EXTRACT: note_on channel=6 note=62 velocity=0 time=0.028735625
EXTRACT: note_on channel=3 note=62 velocity=0 time=0.08045975000000001
EXTRACT: note_on channel=3 note=62 velocity=93 time=0
EXTRACT: note_on channel=4 note=43 velocity=0 time=0
EXTRACT: note_on channel=9 note=35 velocity=61 time=0.0057471250000000005
EXTRACT: note_on channel=9 note=37 velocity=59 time=0
EXTRACT: note_on channel=4 note=43 velocity=55 time=0.0057471250000000005
EXTRACT: note_on channel=9 note=37 velocity=0 time=0
EXTRACT: note_on channel=9 note=35 velocity=0 time=0
EXTRACT: note_on channel=4 note=62 velocity=0 time=0.0057471250000000005
EXTRACT: note_on channel=4 note=67 velocity=0 time=0
EXTRACT: note_on channel=4 note=58 velocity=0 time=0
EXTRACT: note_on channel=4 note=55 velocity=0 time=0
EXTRACT: note_on channel=5 note=70 velocity=0 time=0
EXTRACT: note_on channel=5 note=67 velocity=0 time=0
EXTRACT: note_on channel=5 note=62 velocity=0 time=0
EXTRACT: note_on channel=4 note=58 velocity=63 time=0.011494250000000001
EXTRACT: note_on channel=4 note=62 velocity=64 time=0
EXTRACT: note_on channel=4 note=55 velocity=60 time=0
EXTRACT: note_on channel=4 note=67 velocity=58 time=0
EXTRACT: note_on channel=5 note=62 velocity=57 time=0
EXTRACT: note_on channel=5 note=67 velocity=59 time=0
EXTRACT: note_on channel=5 note=70 velocity=58 time=0
EXTRACT: note_on channel=3 note=62 velocity=0 time=0.09770112500000001
EXTRACT: note_on channel=3 note=60 velocity=97 time=0
EXTRACT: note_on channel=4 note=43 velocity=0 time=0
EXTRACT: note_on channel=9 note=35 velocity=67 time=0.0057471250000000005
EXTRACT: note_on channel=9 note=37 velocity=64 time=0
EXTRACT: note_on channel=4 note=43 velocity=55 time=0.0057471250000000005
EXTRACT: note_on channel=9 note=37 velocity=0 time=0
EXTRACT: note_on channel=9 note=35 velocity=0 time=0
EXTRACT: note_on channel=4 note=55 velocity=0 time=0.0057471250000000005
EXTRACT: note_on channel=4 note=67 velocity=0 time=0
EXTRACT: note_on channel=4 note=58 velocity=0 time=0
EXTRACT: note_on channel=4 note=62 velocity=0 time=0
EXTRACT: note_on channel=5 note=70 velocity=0 time=0
EXTRACT: note_on channel=5 note=67 velocity=0 time=0
EXTRACT: note_on channel=5 note=62 velocity=0 time=0
EXTRACT: note_on channel=6 note=62 velocity=76 time=0.0057471250000000005
EXTRACT: note_on channel=4 note=58 velocity=65 time=0.0057471250000000005
EXTRACT: note_on channel=4 note=55 velocity=58 time=0
EXTRACT: note_on channel=4 note=62 velocity=71 time=0
EXTRACT: note_on channel=4 note=67 velocity=60 time=0
EXTRACT: note_on channel=5 note=62 velocity=59 time=0
EXTRACT: note_on channel=5 note=67 velocity=67 time=0
EXTRACT: note_on channel=5 note=70 velocity=65 time=0
EXTRACT: note_on channel=6 note=67 velocity=0 time=0.045977000000000004
EXTRACT: note_on channel=3 note=60 velocity=0 time=0.2068965
EXTRACT: note_on channel=3 note=65 velocity=98 time=0
EXTRACT: note_on channel=4 note=43 velocity=0 time=0
EXTRACT: note_on channel=9 note=39 velocity=114 time=0.0057471250000000005
EXTRACT: note_on channel=4 note=43 velocity=55 time=0.0057471250000000005
EXTRACT: note_on channel=9 note=39 velocity=0 time=0
EXTRACT: note_on channel=4 note=62 velocity=0 time=0.0057471250000000005
EXTRACT: note_on channel=4 note=67 velocity=0 time=0
EXTRACT: note_on channel=4 note=58 velocity=0 time=0
EXTRACT: note_on channel=4 note=55 velocity=0 time=0
EXTRACT: note_on channel=5 note=70 velocity=0 time=0
EXTRACT: note_on channel=5 note=67 velocity=0 time=0
EXTRACT: note_on channel=5 note=62 velocity=0 time=0
EXTRACT: note_on channel=6 note=62 velocity=0 time=0
EXTRACT: note_on channel=6 note=67 velocity=74 time=0.0057471250000000005
EXTRACT: note_on channel=4 note=58 velocity=70 time=0.0057471250000000005
EXTRACT: note_on channel=4 note=55 velocity=63 time=0
EXTRACT: note_on channel=4 note=62 velocity=69 time=0
EXTRACT: note_on channel=4 note=67 velocity=63 time=0
EXTRACT: note_on channel=5 note=67 velocity=69 time=0
EXTRACT: note_on channel=5 note=62 velocity=65 time=0
EXTRACT: note_on channel=5 note=70 velocity=66 time=0
EXTRACT: note_on channel=3 note=65 velocity=0 time=0.12068962500000001
EXTRACT: note_on channel=3 note=65 velocity=96 time=0
EXTRACT: note_on channel=4 note=43 velocity=0 time=0
EXTRACT: note_on channel=9 note=35 velocity=61 time=0.0057471250000000005
EXTRACT: note_on channel=4 note=43 velocity=55 time=0.0057471250000000005
EXTRACT: note_on channel=9 note=35 velocity=0 time=0
EXTRACT: note_on channel=4 note=62 velocity=0 time=0.0057471250000000005
EXTRACT: note_on channel=4 note=67 velocity=0 time=0
EXTRACT: note_on channel=4 note=58 velocity=0 time=0
EXTRACT: note_on channel=4 note=55 velocity=0 time=0
EXTRACT: note_on channel=5 note=70 velocity=0 time=0
EXTRACT: note_on channel=5 note=62 velocity=0 time=0
EXTRACT: note_on channel=5 note=67 velocity=0 time=0
EXTRACT: note_on channel=4 note=58 velocity=65 time=0.011494250000000001
EXTRACT: note_on channel=4 note=62 velocity=67 time=0
EXTRACT: note_on channel=4 note=55 velocity=57 time=0
EXTRACT: note_on channel=4 note=67 velocity=58 time=0
EXTRACT: note_on channel=5 note=62 velocity=48 time=0
EXTRACT: note_on channel=5 note=67 velocity=66 time=0
EXTRACT: note_on channel=5 note=70 velocity=63 time=0
EXTRACT: note_on channel=3 note=65 velocity=0 time=0.1149425
EXTRACT: note_on channel=3 note=67 velocity=96 time=0
EXTRACT: note_on channel=4 note=43 velocity=0 time=0
EXTRACT: note_on channel=9 note=28 velocity=51 time=0.0057471250000000005
EXTRACT: note_on channel=4 note=43 velocity=55 time=0.0057471250000000005
EXTRACT: note_on channel=9 note=28 velocity=0 time=0
EXTRACT: note_on channel=4 note=55 velocity=0 time=0.0057471250000000005
EXTRACT: note_on channel=4 note=67 velocity=0 time=0
EXTRACT: note_on channel=4 note=58 velocity=0 time=0
EXTRACT: note_on channel=4 note=62 velocity=0 time=0
EXTRACT: note_on channel=5 note=70 velocity=0 time=0
EXTRACT: note_on channel=5 note=67 velocity=0 time=0
EXTRACT: note_on channel=5 note=62 velocity=0 time=0
EXTRACT: note_on channel=6 note=65 velocity=78 time=0.0057471250000000005
EXTRACT: note_on channel=4 note=58 velocity=68 time=0.0057471250000000005
EXTRACT: note_on channel=4 note=55 velocity=63 time=0
EXTRACT: note_on channel=4 note=62 velocity=69 time=0
EXTRACT: note_on channel=4 note=67 velocity=61 time=0
EXTRACT: note_on channel=5 note=62 velocity=55 time=0
EXTRACT: note_on channel=5 note=67 velocity=67 time=0
EXTRACT: note_on channel=5 note=70 velocity=63 time=0
EXTRACT: note_on channel=6 note=67 velocity=0 time=0.022988500000000002
EXTRACT: note_on channel=3 note=67 velocity=0 time=0.09195400000000001
EXTRACT: note_on channel=3 note=65 velocity=96 time=0
EXTRACT: note_on channel=4 note=43 velocity=0 time=0
EXTRACT: note_on channel=4 note=43 velocity=55 time=0.011494250000000001
EXTRACT: note_on channel=4 note=62 velocity=0 time=0.0057471250000000005
EXTRACT: note_on channel=4 note=67 velocity=0 time=0
EXTRACT: note_on channel=4 note=58 velocity=0 time=0
EXTRACT: note_on channel=4 note=55 velocity=0 time=0
EXTRACT: note_on channel=5 note=70 velocity=0 time=0
EXTRACT: note_on channel=5 note=67 velocity=0 time=0
EXTRACT: note_on channel=5 note=62 velocity=0 time=0
EXTRACT: note_on channel=4 note=58 velocity=59 time=0.011494250000000001
EXTRACT: note_on channel=4 note=67 velocity=59 time=0
EXTRACT: note_on channel=4 note=55 velocity=59 time=0
EXTRACT: note_on channel=4 note=62 velocity=59 time=0
EXTRACT: note_on channel=5 note=62 velocity=63 time=0
EXTRACT: note_on channel=5 note=67 velocity=63 time=0
EXTRACT: note_on channel=5 note=70 velocity=63 time=0
EXTRACT: note_on channel=3 note=65 velocity=0 time=0.1149425
EXTRACT: note_on channel=6 note=65 velocity=0 time=0.017241375000000003
EXTRACT: note_on channel=2 note=27 velocity=97 time=0.0057471250000000005
EXTRACT: note_on channel=4 note=43 velocity=0 time=0.0057471250000000005
EXTRACT: note_on channel=3 note=63 velocity=98 time=0
EXTRACT: note_on channel=9 note=36 velocity=114 time=0
EXTRACT: note_on channel=9 note=41 velocity=110 time=0
EXTRACT: note_on channel=9 note=46 velocity=81 time=0
EXTRACT: note_on channel=4 note=39 velocity=55 time=0.0057471250000000005
EXTRACT: note_on channel=9 note=46 velocity=0 time=0
EXTRACT: note_on channel=9 note=41 velocity=0 time=0
EXTRACT: note_on channel=9 note=36 velocity=0 time=0
EXTRACT: note_on channel=4 note=55 velocity=0 time=0.0057471250000000005
EXTRACT: note_on channel=4 note=62 velocity=0 time=0
EXTRACT: note_on channel=4 note=58 velocity=0 time=0
EXTRACT: note_on channel=4 note=67 velocity=0 time=0
EXTRACT: note_on channel=5 note=70 velocity=0 time=0
EXTRACT: note_on channel=5 note=67 velocity=0 time=0
EXTRACT: note_on channel=5 note=62 velocity=0 time=0
EXTRACT: note_on channel=6 note=67 velocity=74 time=0
EXTRACT: note_on channel=5 note=70 velocity=65 time=0.0057471250000000005
EXTRACT: note_on channel=4 note=63 velocity=64 time=0.0057471250000000005
EXTRACT: note_on channel=4 note=67 velocity=63 time=0
EXTRACT: note_on channel=4 note=58 velocity=65 time=0
EXTRACT: note_on channel=4 note=55 velocity=64 time=0
EXTRACT: note_on channel=5 note=65 velocity=74 time=0
EXTRACT: note_on channel=3 note=63 velocity=0 time=0.132183875
EXTRACT: note_on channel=3 note=63 velocity=98 time=0
EXTRACT: note_on channel=3 note=63 velocity=0 time=0.155172375
EXTRACT: note_on channel=3 note=63 velocity=98 time=0
EXTRACT: note_on channel=4 note=39 velocity=0 time=0
EXTRACT: note_on channel=9 note=35 velocity=68 time=0.0057471250000000005
EXTRACT: note_on channel=9 note=38 velocity=68 time=0
EXTRACT: note_on channel=4 note=39 velocity=55 time=0.0057471250000000005
EXTRACT: note_on channel=5 note=70 velocity=0 time=0
EXTRACT: note_on channel=9 note=38 velocity=0 time=0
EXTRACT: note_on channel=9 note=35 velocity=0 time=0
EXTRACT: note_on channel=4 note=58 velocity=0 time=0.0057471250000000005
EXTRACT: note_on channel=4 note=55 velocity=0 time=0
EXTRACT: note_on channel=4 note=63 velocity=0 time=0
EXTRACT: note_on channel=4 note=67 velocity=0 time=0
EXTRACT: note_on channel=5 note=65 velocity=0 time=0
EXTRACT: note_on channel=6 note=65 velocity=76 time=0.0057471250000000005
EXTRACT: note_on channel=4 note=58 velocity=61 time=0.0057471250000000005
EXTRACT: note_on channel=4 note=63 velocity=63 time=0
EXTRACT: note_on channel=4 note=55 velocity=58 time=0
EXTRACT: note_on channel=4 note=67 velocity=56 time=0
EXTRACT: note_on channel=5 note=65 velocity=73 time=0
EXTRACT: note_on channel=5 note=70 velocity=63 time=0
EXTRACT: note_on channel=6 note=67 velocity=0 time=0.045977000000000004
EXTRACT: note_on channel=9 note=35 velocity=63 time=0.10344825
EXTRACT: note_on channel=9 note=35 velocity=0 time=0.0057471250000000005
EXTRACT: note_on channel=3 note=63 velocity=0 time=0.09195400000000001
EXTRACT: note_on channel=6 note=65 velocity=0 time=0.051724125
EXTRACT: note_on channel=2 note=27 velocity=0 time=0.017241375000000003
EXTRACT: note_on channel=4 note=39 velocity=0 time=0
EXTRACT: note_on channel=9 note=39 velocity=110 time=0.0057471250000000005
EXTRACT: note_on channel=3 note=67 velocity=93 time=0
EXTRACT: note_on channel=4 note=39 velocity=55 time=0
EXTRACT: note_on channel=6 note=67 velocity=77 time=0
EXTRACT: note_on channel=9 note=39 velocity=0 time=0
EXTRACT: note_on channel=4 note=55 velocity=0 time=0.0057471250000000005
EXTRACT: note_on channel=4 note=67 velocity=0 time=0
EXTRACT: note_on channel=4 note=58 velocity=0 time=0
EXTRACT: note_on channel=4 note=63 velocity=0 time=0
EXTRACT: note_on channel=5 note=70 velocity=0 time=0
EXTRACT: note_on channel=5 note=65 velocity=0 time=0
EXTRACT: note_on channel=4 note=58 velocity=65 time=0.011494250000000001
EXTRACT: note_on channel=4 note=67 velocity=65 time=0
EXTRACT: note_on channel=4 note=63 velocity=67 time=0
EXTRACT: note_on channel=4 note=55 velocity=62 time=0
EXTRACT: note_on channel=5 note=67 velocity=74 time=0
EXTRACT: note_on channel=5 note=70 velocity=76 time=0
EXTRACT: note_on channel=3 note=67 velocity=0 time=0.12068962500000001
EXTRACT: note_on channel=9 note=37 velocity=57 time=0.028735625
EXTRACT: note_on channel=3 note=63 velocity=95 time=0
EXTRACT: note_on channel=9 note=37 velocity=0 time=0
EXTRACT: note_on channel=3 note=63 velocity=0 time=0.132183875
EXTRACT: note_on channel=4 note=39 velocity=0 time=0.028735625
EXTRACT: note_on channel=3 note=63 velocity=97 time=0
EXTRACT: note_on channel=5 note=67 velocity=0 time=0
EXTRACT: note_on channel=4 note=39 velocity=55 time=0.0057471250000000005
EXTRACT: note_on channel=4 note=63 velocity=0 time=0.0057471250000000005
EXTRACT: note_on channel=4 note=55 velocity=0 time=0
EXTRACT: note_on channel=4 note=58 velocity=0 time=0
EXTRACT: note_on channel=4 note=67 velocity=0 time=0
EXTRACT: note_on channel=5 note=70 velocity=0 time=0
EXTRACT: note_on channel=6 note=65 velocity=76 time=0.0057471250000000005
EXTRACT: note_on channel=4 note=58 velocity=59 time=0.0057471250000000005
EXTRACT: note_on channel=4 note=63 velocity=61 time=0
EXTRACT: note_on channel=4 note=67 velocity=58 time=0
EXTRACT: note_on channel=4 note=55 velocity=57 time=0
EXTRACT: note_on channel=5 note=65 velocity=67 time=0
EXTRACT: note_on channel=5 note=70 velocity=67 time=0
EXTRACT: note_on channel=6 note=67 velocity=0 time=0.040229875000000005
EXTRACT: note_on channel=3 note=63 velocity=0 time=0.074712625
EXTRACT: note_on channel=4 note=39 velocity=0 time=0.028735625
EXTRACT: note_on channel=3 note=63 velocity=104 time=0
EXTRACT: note_on channel=9 note=39 velocity=110 time=0
EXTRACT: note_on channel=4 note=39 velocity=55 time=0.0057471250000000005
EXTRACT: note_on channel=9 note=39 velocity=0 time=0
EXTRACT: note_on channel=4 note=67 velocity=0 time=0.0057471250000000005
EXTRACT: note_on channel=4 note=55 velocity=0 time=0
EXTRACT: note_on channel=4 note=58 velocity=0 time=0
EXTRACT: note_on channel=4 note=63 velocity=0 time=0
EXTRACT: note_on channel=5 note=70 velocity=0 time=0
EXTRACT: note_on channel=5 note=65 velocity=0 time=0
EXTRACT: note_on channel=4 note=58 velocity=67 time=0.011494250000000001
EXTRACT: note_on channel=4 note=55 velocity=61 time=0
EXTRACT: note_on channel=4 note=63 velocity=65 time=0
EXTRACT: note_on channel=4 note=67 velocity=59 time=0
EXTRACT: note_on channel=5 note=70 velocity=75 time=0
EXTRACT: note_on channel=5 note=67 velocity=75 time=0
EXTRACT: note_on channel=3 note=63 velocity=0 time=0.12643675000000001
EXTRACT: note_on channel=3 note=63 velocity=97 time=0
EXTRACT: note_on channel=6 note=65 velocity=0 time=0.0057471250000000005
EXTRACT: note_on channel=6 note=67 velocity=79 time=0.011494250000000001
EXTRACT: note_on channel=3 note=63 velocity=0 time=0.13793100000000003
EXTRACT: note_on channel=4 note=39 velocity=0 time=0.011494250000000001
EXTRACT: note_on channel=3 note=63 velocity=94 time=0
EXTRACT: note_on channel=9 note=35 velocity=62 time=0
EXTRACT: note_on channel=9 note=37 velocity=59 time=0
EXTRACT: note_on channel=4 note=39 velocity=55 time=0.0057471250000000005
EXTRACT: note_on channel=9 note=37 velocity=0 time=0
EXTRACT: note_on channel=9 note=35 velocity=0 time=0
EXTRACT: note_on channel=4 note=63 velocity=0 time=0.0057471250000000005
EXTRACT: note_on channel=4 note=67 velocity=0 time=0
EXTRACT: note_on channel=4 note=58 velocity=0 time=0
EXTRACT: note_on channel=4 note=55 velocity=0 time=0
EXTRACT: note_on channel=5 note=67 velocity=0 time=0
EXTRACT: note_on channel=5 note=70 velocity=0 time=0
EXTRACT: note_on channel=4 note=58 velocity=61 time=0.011494250000000001
EXTRACT: note_on channel=4 note=67 velocity=59 time=0
EXTRACT: note_on channel=4 note=63 velocity=61 time=0
EXTRACT: note_on channel=4 note=55 velocity=58 time=0
EXTRACT: note_on channel=5 note=65 velocity=70 time=0
EXTRACT: note_on channel=5 note=70 velocity=67 time=0
EXTRACT: note_on channel=3 note=63 velocity=0 time=0.1149425
EXTRACT: note_on channel=4 note=39 velocity=0 time=0.028735625
EXTRACT: note_on channel=3 note=63 velocity=94 time=0
EXTRACT: note_on channel=9 note=35 velocity=65 time=0
EXTRACT: note_on channel=9 note=37 velocity=63 time=0
EXTRACT: note_on channel=4 note=39 velocity=55 time=0.0057471250000000005
EXTRACT: note_on channel=9 note=37 velocity=0 time=0
EXTRACT: note_on channel=9 note=35 velocity=0 time=0
EXTRACT: note_on channel=4 note=63 velocity=0 time=0.0057471250000000005
EXTRACT: note_on channel=4 note=55 velocity=0 time=0
EXTRACT: note_on channel=4 note=58 velocity=0 time=0
EXTRACT: note_on channel=4 note=67 velocity=0 time=0
EXTRACT: note_on channel=5 note=70 velocity=0 time=0
EXTRACT: note_on channel=5 note=65 velocity=0 time=0
EXTRACT: note_on channel=6 note=65 velocity=76 time=0.0057471250000000005
EXTRACT: note_on channel=4 note=58 velocity=68 time=0.0057471250000000005
EXTRACT: note_on channel=4 note=67 velocity=65 time=0
EXTRACT: note_on channel=4 note=63 velocity=68 time=0
EXTRACT: note_on channel=4 note=55 velocity=60 time=0
EXTRACT: note_on channel=5 note=65 velocity=81 time=0
EXTRACT: note_on channel=5 note=70 velocity=74 time=0
EXTRACT: note_on channel=6 note=67 velocity=0 time=0.040229875000000005
EXTRACT: note_on channel=3 note=63 velocity=0 time=0.247126375
EXTRACT: note_on channel=4 note=39 velocity=0 time=0.028735625
EXTRACT: note_on channel=3 note=63 velocity=99 time=0
EXTRACT: note_on channel=9 note=39 velocity=109 time=0
EXTRACT: note_on channel=4 note=39 velocity=55 time=0.0057471250000000005
EXTRACT: note_on channel=6 note=65 velocity=0 time=0
EXTRACT: note_on channel=9 note=39 velocity=0 time=0
EXTRACT: note_on channel=4 note=63 velocity=0 time=0.0057471250000000005
EXTRACT: note_on channel=4 note=55 velocity=0 time=0
EXTRACT: note_on channel=4 note=58 velocity=0 time=0
EXTRACT: note_on channel=4 note=67 velocity=0 time=0
EXTRACT: note_on channel=5 note=70 velocity=0 time=0
EXTRACT: note_on channel=5 note=65 velocity=0 time=0
EXTRACT: note_on channel=6 note=67 velocity=78 time=0.0057471250000000005
EXTRACT: note_on channel=4 note=67 velocity=65 time=0.0057471250000000005
EXTRACT: note_on channel=4 note=58 velocity=69 time=0
EXTRACT: note_on channel=4 note=63 velocity=69 time=0
EXTRACT: note_on channel=4 note=55 velocity=63 time=0
EXTRACT: note_on channel=5 note=70 velocity=66 time=0
EXTRACT: note_on channel=5 note=65 velocity=66 time=0
EXTRACT: note_on channel=3 note=63 velocity=0 time=0.10919537500000001
EXTRACT: note_on channel=3 note=63 velocity=99 time=0
EXTRACT: note_on channel=4 note=39 velocity=0 time=0
EXTRACT: note_on channel=9 note=35 velocity=62 time=0.0057471250000000005
EXTRACT: note_on channel=4 note=39 velocity=55 time=0.0057471250000000005
EXTRACT: note_on channel=9 note=35 velocity=0 time=0
EXTRACT: note_on channel=4 note=63 velocity=0 time=0.0057471250000000005
EXTRACT: note_on channel=4 note=55 velocity=0 time=0
EXTRACT: note_on channel=4 note=67 velocity=0 time=0
EXTRACT: note_on channel=4 note=58 velocity=0 time=0
EXTRACT: note_on channel=5 note=65 velocity=0 time=0
EXTRACT: note_on channel=5 note=70 velocity=0 time=0
EXTRACT: note_on channel=4 note=58 velocity=67 time=0.011494250000000001
EXTRACT: note_on channel=4 note=63 velocity=67 time=0
EXTRACT: note_on channel=4 note=67 velocity=60 time=0
EXTRACT: note_on channel=4 note=55 velocity=61 time=0
EXTRACT: note_on channel=5 note=65 velocity=64 time=0
EXTRACT: note_on channel=5 note=70 velocity=69 time=0
EXTRACT: note_on channel=3 note=63 velocity=0 time=0.10344825
EXTRACT: note_on channel=3 note=63 velocity=99 time=0
EXTRACT: note_on channel=4 note=39 velocity=0 time=0
EXTRACT: note_on channel=9 note=38 velocity=66 time=0.0057471250000000005
EXTRACT: note_on channel=9 note=28 velocity=52 time=0
EXTRACT: note_on channel=4 note=39 velocity=55 time=0.0057471250000000005
EXTRACT: note_on channel=9 note=28 velocity=0 time=0
EXTRACT: note_on channel=9 note=38 velocity=0 time=0
EXTRACT: note_on channel=4 note=67 velocity=0 time=0.0057471250000000005
EXTRACT: note_on channel=4 note=55 velocity=0 time=0
EXTRACT: note_on channel=4 note=58 velocity=0 time=0
EXTRACT: note_on channel=4 note=63 velocity=0 time=0
EXTRACT: note_on channel=5 note=70 velocity=0 time=0
EXTRACT: note_on channel=5 note=65 velocity=0 time=0
EXTRACT: note_on channel=6 note=65 velocity=76 time=0.0057471250000000005
EXTRACT: note_on channel=4 note=58 velocity=66 time=0.0057471250000000005
EXTRACT: note_on channel=4 note=67 velocity=60 time=0
EXTRACT: note_on channel=4 note=63 velocity=69 time=0
EXTRACT: note_on channel=4 note=55 velocity=60 time=0
EXTRACT: note_on channel=5 note=65 velocity=70 time=0
EXTRACT: note_on channel=5 note=70 velocity=68 time=0
EXTRACT: note_on channel=6 note=67 velocity=0 time=0.028735625
EXTRACT: note_on channel=3 note=63 velocity=0 time=0.074712625
EXTRACT: note_on channel=3 note=63 velocity=99 time=0
EXTRACT: note_on channel=4 note=39 velocity=0 time=0
EXTRACT: note_on channel=9 note=36 velocity=110 time=0.0057471250000000005
EXTRACT: note_on channel=4 note=39 velocity=55 time=0.0057471250000000005
EXTRACT: note_on channel=9 note=36 velocity=0 time=0
EXTRACT: note_on channel=4 note=63 velocity=0 time=0.0057471250000000005
EXTRACT: note_on channel=4 note=55 velocity=0 time=0
EXTRACT: note_on channel=4 note=58 velocity=0 time=0
EXTRACT: note_on channel=4 note=67 velocity=0 time=0
EXTRACT: note_on channel=5 note=70 velocity=0 time=0
EXTRACT: note_on channel=5 note=65 velocity=0 time=0
EXTRACT: note_on channel=4 note=67 velocity=57 time=0.011494250000000001
EXTRACT: note_on channel=4 note=58 velocity=57 time=0
EXTRACT: note_on channel=4 note=55 velocity=57 time=0
EXTRACT: note_on channel=4 note=63 velocity=57 time=0
EXTRACT: note_on channel=5 note=65 velocity=63 time=0
EXTRACT: note_on channel=5 note=70 velocity=63 time=0
EXTRACT: note_on channel=6 note=65 velocity=0 time=0.09770112500000001
EXTRACT: note_on channel=3 note=63 velocity=0 time=0.0057471250000000005
EXTRACT: note_on channel=2 note=34 velocity=96 time=0.022988500000000002
EXTRACT: note_on channel=3 note=60 velocity=99 time=0
EXTRACT: note_on channel=4 note=39 velocity=0 time=0
EXTRACT: note_on channel=9 note=36 velocity=113 time=0.0057471250000000005
EXTRACT: note_on channel=9 note=41 velocity=110 time=0
EXTRACT: note_on channel=9 note=46 velocity=80 time=0
EXTRACT: note_on channel=4 note=46 velocity=55 time=0.0057471250000000005
EXTRACT: note_on channel=6 note=65 velocity=83 time=0
EXTRACT: note_on channel=9 note=46 velocity=0 time=0
EXTRACT: note_on channel=9 note=41 velocity=0 time=0
EXTRACT: note_on channel=9 note=36 velocity=0 time=0
EXTRACT: note_on channel=4 note=55 velocity=0 time=0.0057471250000000005
EXTRACT: note_on channel=4 note=63 velocity=0 time=0
EXTRACT: note_on channel=4 note=67 velocity=0 time=0
EXTRACT: note_on channel=4 note=58 velocity=0 time=0
EXTRACT: note_on channel=5 note=70 velocity=0 time=0
EXTRACT: note_on channel=5 note=65 velocity=0 time=0
EXTRACT: note_on channel=4 note=58 velocity=74 time=0.011494250000000001
EXTRACT: note_on channel=4 note=62 velocity=69 time=0
EXTRACT: note_on channel=4 note=65 velocity=66 time=0
EXTRACT: note_on channel=4 note=53 velocity=66 time=0
EXTRACT: note_on channel=5 note=65 velocity=74 time=0
EXTRACT: note_on channel=5 note=70 velocity=63 time=0
EXTRACT: note_on channel=3 note=60 velocity=0 time=0.10344825
EXTRACT: note_on channel=3 note=63 velocity=99 time=0
EXTRACT: note_on channel=4 note=46 velocity=0 time=0
EXTRACT: note_on channel=9 note=35 velocity=64 time=0.0057471250000000005
EXTRACT: note_on channel=9 note=38 velocity=64 time=0
EXTRACT: note_on channel=4 note=46 velocity=55 time=0.0057471250000000005
EXTRACT: note_on channel=9 note=38 velocity=0 time=0
EXTRACT: note_on channel=9 note=35 velocity=0 time=0
EXTRACT: note_on channel=4 note=65 velocity=0 time=0.0057471250000000005
EXTRACT: note_on channel=4 note=53 velocity=0 time=0
EXTRACT: note_on channel=4 note=58 velocity=0 time=0
EXTRACT: note_on channel=4 note=62 velocity=0 time=0
EXTRACT: note_on channel=5 note=70 velocity=0 time=0
EXTRACT: note_on channel=5 note=65 velocity=0 time=0
EXTRACT: note_on channel=6 note=62 velocity=82 time=0.0057471250000000005
EXTRACT: note_on channel=4 note=53 velocity=60 time=0.0057471250000000005
EXTRACT: note_on channel=4 note=58 velocity=61 time=0
EXTRACT: note_on channel=4 note=62 velocity=61 time=0
EXTRACT: note_on channel=4 note=65 velocity=59 time=0
EXTRACT: note_on channel=5 note=70 velocity=62 time=0
EXTRACT: note_on channel=5 note=65 velocity=64 time=0
EXTRACT: note_on channel=6 note=65 velocity=0 time=0.05747125
EXTRACT: note_on channel=3 note=63 velocity=0 time=0.045977000000000004
EXTRACT: note_on channel=3 note=63 velocity=99 time=0
EXTRACT: note_on channel=9 note=35 velocity=64 time=0.0057471250000000005
EXTRACT: note_on channel=9 note=35 velocity=0 time=0.0057471250000000005
EXTRACT: note_on channel=3 note=63 velocity=0 time=0.12068962500000001
EXTRACT: note_on channel=3 note=63 velocity=99 time=0
EXTRACT: note_on channel=2 note=34 velocity=0 time=0
EXTRACT: note_on channel=4 note=46 velocity=0 time=0
EXTRACT: note_on channel=9 note=39 velocity=111 time=0.0057471250000000005
EXTRACT: note_on channel=4 note=46 velocity=55 time=0.0057471250000000005
EXTRACT: note_on channel=9 note=39 velocity=0 time=0
EXTRACT: note_on channel=4 note=62 velocity=0 time=0.0057471250000000005
EXTRACT: note_on channel=4 note=65 velocity=0 time=0
EXTRACT: note_on channel=4 note=53 velocity=0 time=0
EXTRACT: note_on channel=4 note=58 velocity=0 time=0
EXTRACT: note_on channel=5 note=65 velocity=0 time=0
EXTRACT: note_on channel=5 note=70 velocity=0 time=0
EXTRACT: note_on channel=6 note=62 velocity=0 time=0
EXTRACT: note_on channel=6 note=65 velocity=82 time=0
EXTRACT: note_on channel=5 note=65 velocity=74 time=0.0057471250000000005
EXTRACT: note_on channel=4 note=58 velocity=65 time=0.0057471250000000005
EXTRACT: note_on channel=4 note=53 velocity=64 time=0
EXTRACT: note_on channel=4 note=62 velocity=67 time=0
EXTRACT: note_on channel=4 note=65 velocity=63 time=0
EXTRACT: note_on channel=5 note=70 velocity=65 time=0
EXTRACT: note_on channel=3 note=63 velocity=0 time=0.10344825
EXTRACT: note_on channel=3 note=63 velocity=99 time=0
EXTRACT: note_on channel=9 note=37 velocity=57 time=0.0057471250000000005
EXTRACT: note_on channel=9 note=37 velocity=0 time=0.0057471250000000005
EXTRACT: note_on channel=3 note=63 velocity=0 time=0.12068962500000001
EXTRACT: note_on channel=4 note=46 velocity=0 time=0.040229875000000005
EXTRACT: note_on channel=3 note=60 velocity=99 time=0
EXTRACT: note_on channel=4 note=46 velocity=55 time=0
EXTRACT: note_on channel=5 note=65 velocity=0 time=0
EXTRACT: note_on channel=4 note=62 velocity=0 time=0.0057471250000000005
EXTRACT: note_on channel=4 note=65 velocity=0 time=0
EXTRACT: note_on channel=4 note=58 velocity=0 time=0
EXTRACT: note_on channel=4 note=53 velocity=0 time=0
EXTRACT: note_on channel=5 note=70 velocity=0 time=0
EXTRACT: note_on channel=5 note=70 velocity=61 time=0
EXTRACT: note_on channel=5 note=65 velocity=64 time=0
EXTRACT: note_on channel=6 note=62 velocity=78 time=0.0057471250000000005
EXTRACT: note_on channel=4 note=53 velocity=60 time=0.0057471250000000005
EXTRACT: note_on channel=4 note=62 velocity=64 time=0
EXTRACT: note_on channel=4 note=58 velocity=59 time=0
EXTRACT: note_on channel=4 note=65 velocity=59 time=0
EXTRACT: note_on channel=6 note=65 velocity=0 time=0.040229875000000005
EXTRACT: note_on channel=3 note=60 velocity=0 time=0.074712625
EXTRACT: note_on channel=4 note=46 velocity=0 time=0.028735625
EXTRACT: note_on channel=5 note=65 velocity=0 time=0.0057471250000000005
EXTRACT: note_on channel=5 note=70 velocity=0 time=0
EXTRACT: note_on channel=9 note=39 velocity=108 time=0
EXTRACT: note_on channel=3 note=60 velocity=99 time=0
EXTRACT: note_on channel=4 note=46 velocity=55 time=0
EXTRACT: note_on channel=9 note=39 velocity=0 time=0
EXTRACT: note_on channel=4 note=58 velocity=0 time=0.0057471250000000005
EXTRACT: note_on channel=4 note=65 velocity=0 time=0
EXTRACT: note_on channel=4 note=53 velocity=0 time=0
EXTRACT: note_on channel=4 note=62 velocity=0 time=0
EXTRACT: note_on channel=5 note=70 velocity=65 time=0
EXTRACT: note_on channel=5 note=65 velocity=72 time=0
EXTRACT: note_on channel=4 note=58 velocity=67 time=0.011494250000000001
EXTRACT: note_on channel=4 note=53 velocity=63 time=0
EXTRACT: note_on channel=4 note=65 velocity=60 time=0
EXTRACT: note_on channel=4 note=62 velocity=66 time=0
EXTRACT: note_on channel=3 note=60 velocity=0 time=0.1149425
EXTRACT: note_on channel=3 note=63 velocity=100 time=0
EXTRACT: note_on channel=6 note=62 velocity=0 time=0.022988500000000002
EXTRACT: note_on channel=6 note=65 velocity=76 time=0
EXTRACT: note_on channel=4 note=46 velocity=0 time=0.14942525
EXTRACT: note_on channel=5 note=65 velocity=0 time=0.0057471250000000005
EXTRACT: note_on channel=5 note=70 velocity=0 time=0
EXTRACT: note_on channel=9 note=35 velocity=61 time=0
EXTRACT: note_on channel=9 note=37 velocity=59 time=0
EXTRACT: note_on channel=4 note=46 velocity=55 time=0.0057471250000000005
EXTRACT: note_on channel=9 note=37 velocity=0 time=0
EXTRACT: note_on channel=9 note=35 velocity=0 time=0
EXTRACT: note_on channel=4 note=65 velocity=0 time=0.0057471250000000005
EXTRACT: note_on channel=4 note=62 velocity=0 time=0
EXTRACT: note_on channel=4 note=58 velocity=0 time=0
EXTRACT: note_on channel=4 note=53 velocity=0 time=0
EXTRACT: note_on channel=5 note=70 velocity=60 time=0
EXTRACT: note_on channel=5 note=65 velocity=64 time=0
EXTRACT: note_on channel=4 note=58 velocity=65 time=0.011494250000000001
EXTRACT: note_on channel=4 note=53 velocity=63 time=0
EXTRACT: note_on channel=4 note=62 velocity=65 time=0
EXTRACT: note_on channel=4 note=65 velocity=59 time=0
EXTRACT: note_on channel=3 note=63 velocity=0 time=0.09195400000000001
EXTRACT: note_on channel=3 note=60 velocity=99 time=0
EXTRACT: note_on channel=4 note=46 velocity=0 time=0
EXTRACT: note_on channel=5 note=65 velocity=0 time=0.0057471250000000005
EXTRACT: note_on channel=5 note=70 velocity=0 time=0
EXTRACT: note_on channel=9 note=35 velocity=67 time=0
EXTRACT: note_on channel=9 note=37 velocity=64 time=0
EXTRACT: note_on channel=4 note=46 velocity=55 time=0.0057471250000000005
EXTRACT: note_on channel=9 note=37 velocity=0 time=0
EXTRACT: note_on channel=9 note=35 velocity=0 time=0
EXTRACT: note_on channel=4 note=62 velocity=0 time=0.0057471250000000005
EXTRACT: note_on channel=4 note=65 velocity=0 time=0
EXTRACT: note_on channel=4 note=58 velocity=0 time=0
EXTRACT: note_on channel=4 note=53 velocity=0 time=0
EXTRACT: note_on channel=5 note=65 velocity=70 time=0
EXTRACT: note_on channel=5 note=70 velocity=65 time=0
EXTRACT: note_on channel=6 note=62 velocity=83 time=0.0057471250000000005
EXTRACT: note_on channel=4 note=58 velocity=64 time=0.0057471250000000005
EXTRACT: note_on channel=4 note=53 velocity=64 time=0
EXTRACT: note_on channel=4 note=62 velocity=64 time=0
EXTRACT: note_on channel=4 note=65 velocity=59 time=0
EXTRACT: note_on channel=6 note=65 velocity=0 time=0.05747125
EXTRACT: note_on channel=3 note=60 velocity=0 time=0.045977000000000004
EXTRACT: note_on channel=3 note=60 velocity=98 time=0
EXTRACT: note_on channel=3 note=60 velocity=0 time=0.1149425
EXTRACT: note_on channel=3 note=63 velocity=99 time=0
EXTRACT: note_on channel=4 note=46 velocity=0 time=0
EXTRACT: note_on channel=5 note=70 velocity=0 time=0.0057471250000000005
EXTRACT: note_on channel=5 note=65 velocity=0 time=0
EXTRACT: note_on channel=9 note=39 velocity=114 time=0
EXTRACT: note_on channel=4 note=46 velocity=55 time=0.0057471250000000005
EXTRACT: note_on channel=9 note=39 velocity=0 time=0
EXTRACT: note_on channel=4 note=62 velocity=0 time=0.0057471250000000005
EXTRACT: note_on channel=4 note=65 velocity=0 time=0
EXTRACT: note_on channel=4 note=58 velocity=0 time=0
EXTRACT: note_on channel=4 note=53 velocity=0 time=0
EXTRACT: note_on channel=6 note=65 velocity=79 time=0.0057471250000000005
EXTRACT: note_on channel=4 note=58 velocity=75 time=0.0057471250000000005
EXTRACT: note_on channel=4 note=53 velocity=66 time=0
EXTRACT: note_on channel=4 note=62 velocity=69 time=0
EXTRACT: note_on channel=4 note=65 velocity=63 time=0
EXTRACT: note_on channel=5 note=70 velocity=72 time=0
EXTRACT: note_on channel=5 note=65 velocity=72 time=0
EXTRACT: note_on channel=6 note=62 velocity=0 time=0.017241375000000003
EXTRACT: note_on channel=3 note=63 velocity=0 time=0.09770112500000001
EXTRACT: note_on channel=3 note=63 velocity=98 time=0
EXTRACT: note_on channel=4 note=46 velocity=0 time=0
EXTRACT: note_on channel=9 note=35 velocity=61 time=0.0057471250000000005
EXTRACT: note_on channel=4 note=46 velocity=55 time=0.0057471250000000005
EXTRACT: note_on channel=9 note=35 velocity=0 time=0
EXTRACT: note_on channel=4 note=62 velocity=0 time=0.0057471250000000005
EXTRACT: note_on channel=4 note=65 velocity=0 time=0
EXTRACT: note_on channel=4 note=58 velocity=0 time=0
EXTRACT: note_on channel=4 note=53 velocity=0 time=0
EXTRACT: note_on channel=5 note=65 velocity=0 time=0
EXTRACT: note_on channel=5 note=70 velocity=0 time=0
EXTRACT: note_on channel=4 note=58 velocity=66 time=0.011494250000000001
EXTRACT: note_on channel=4 note=53 velocity=64 time=0
EXTRACT: note_on channel=4 note=65 velocity=59 time=0
EXTRACT: note_on channel=4 note=62 velocity=66 time=0
EXTRACT: note_on channel=5 note=65 velocity=65 time=0
EXTRACT: note_on channel=5 note=70 velocity=63 time=0
EXTRACT: note_on channel=3 note=63 velocity=0 time=0.1149425
EXTRACT: note_on channel=3 note=60 velocity=99 time=0
EXTRACT: note_on channel=4 note=46 velocity=0 time=0
EXTRACT: note_on channel=4 note=46 velocity=55 time=0.011494250000000001
EXTRACT: note_on channel=4 note=65 velocity=0 time=0.0057471250000000005
EXTRACT: note_on channel=4 note=62 velocity=0 time=0
EXTRACT: note_on channel=4 note=58 velocity=0 time=0
EXTRACT: note_on channel=4 note=53 velocity=0 time=0
EXTRACT: note_on channel=5 note=70 velocity=0 time=0
EXTRACT: note_on channel=5 note=65 velocity=0 time=0
EXTRACT: note_on channel=6 note=62 velocity=75 time=0.0057471250000000005
EXTRACT: note_on channel=4 note=53 velocity=60 time=0.0057471250000000005
EXTRACT: note_on channel=4 note=58 velocity=63 time=0
EXTRACT: note_on channel=4 note=62 velocity=66 time=0
EXTRACT: note_on channel=4 note=65 velocity=58 time=0
EXTRACT: note_on channel=5 note=65 velocity=65 time=0
EXTRACT: note_on channel=5 note=70 velocity=61 time=0
EXTRACT: note_on channel=6 note=65 velocity=0 time=0.022988500000000002
EXTRACT: note_on channel=3 note=60 velocity=0 time=0.09195400000000001
EXTRACT: note_on channel=3 note=60 velocity=98 time=0
EXTRACT: note_on channel=4 note=46 velocity=0 time=0
EXTRACT: note_on channel=4 note=46 velocity=55 time=0.011494250000000001
EXTRACT: note_on channel=4 note=62 velocity=0 time=0.0057471250000000005
EXTRACT: note_on channel=4 note=65 velocity=0 time=0
EXTRACT: note_on channel=4 note=53 velocity=0 time=0
EXTRACT: note_on channel=4 note=58 velocity=0 time=0
EXTRACT: note_on channel=5 note=70 velocity=0 time=0
EXTRACT: note_on channel=5 note=65 velocity=0 time=0
EXTRACT: note_on channel=4 note=58 velocity=57 time=0.011494250000000001
EXTRACT: note_on channel=4 note=62 velocity=57 time=0
EXTRACT: note_on channel=4 note=65 velocity=57 time=0
EXTRACT: note_on channel=4 note=53 velocity=57 time=0
EXTRACT: note_on channel=5 note=65 velocity=63 time=0
EXTRACT: note_on channel=5 note=70 velocity=60 time=0
EXTRACT: note_on channel=3 note=60 velocity=0 time=0.1149425
EXTRACT: note_on channel=3 note=63 velocity=97 time=0
EXTRACT: note_on channel=4 note=46 velocity=0 time=0
EXTRACT: note_on channel=6 note=62 velocity=0 time=0.0057471250000000005
EXTRACT: note_on channel=4 note=45 velocity=55 time=0.0057471250000000005
EXTRACT: note_on channel=6 note=65 velocity=62 time=0
EXTRACT: note_on channel=4 note=65 velocity=0 time=0.0057471250000000005
EXTRACT: note_on channel=4 note=53 velocity=0 time=0
EXTRACT: note_on channel=4 note=58 velocity=0 time=0
EXTRACT: note_on channel=4 note=62 velocity=0 time=0
EXTRACT: note_on channel=5 note=70 velocity=0 time=0
EXTRACT: note_on channel=5 note=65 velocity=0 time=0
EXTRACT: note_on channel=4 note=60 velocity=33 time=0.011494250000000001
EXTRACT: note_on channel=4 note=57 velocity=69 time=0
EXTRACT: note_on channel=4 note=65 velocity=33 time=0
EXTRACT: note_on channel=5 note=65 velocity=33 time=0
EXTRACT: note_on channel=5 note=70 velocity=45 time=0
EXTRACT: note_on channel=3 note=63 velocity=0 time=0.132183875
EXTRACT: note_on channel=3 note=63 velocity=98 time=0
EXTRACT: note_on channel=3 note=63 velocity=0 time=0.16091950000000002
EXTRACT: note_on channel=3 note=60 velocity=97 time=0
EXTRACT: note_on channel=4 note=45 velocity=0 time=0
EXTRACT: note_on channel=4 note=45 velocity=55 time=0.011494250000000001
EXTRACT: note_on channel=4 note=60 velocity=0 time=0.0057471250000000005
EXTRACT: note_on channel=4 note=65 velocity=0 time=0
EXTRACT: note_on channel=4 note=57 velocity=0 time=0
EXTRACT: note_on channel=5 note=70 velocity=0 time=0
EXTRACT: note_on channel=5 note=65 velocity=0 time=0
EXTRACT: note_on channel=6 note=60 velocity=56 time=0.0057471250000000005
EXTRACT: note_on channel=4 note=57 velocity=59 time=0.0057471250000000005
EXTRACT: note_on channel=4 note=60 velocity=39 time=0
EXTRACT: note_on channel=4 note=65 velocity=39 time=0
EXTRACT: note_on channel=5 note=70 velocity=45 time=0
EXTRACT: note_on channel=5 note=65 velocity=39 time=0
EXTRACT: note_on channel=3 note=60 velocity=0 time=0.132183875
EXTRACT: note_on channel=3 note=60 velocity=98 time=0
EXTRACT: note_on channel=3 note=60 velocity=0 time=0.16091950000000002
EXTRACT: note_on channel=6 note=65 velocity=0 time=0.0057471250000000005
EXTRACT: note_on channel=3 note=63 velocity=97 time=0
EXTRACT: note_on channel=4 note=45 velocity=0 time=0
EXTRACT: note_on channel=9 note=39 velocity=110 time=0.0057471250000000005
EXTRACT: note_on channel=4 note=45 velocity=55 time=0.0057471250000000005
EXTRACT: note_on channel=9 note=39 velocity=0 time=0
EXTRACT: note_on channel=4 note=57 velocity=0 time=0.0057471250000000005
EXTRACT: note_on channel=4 note=65 velocity=0 time=0
EXTRACT: note_on channel=4 note=60 velocity=0 time=0
EXTRACT: note_on channel=5 note=65 velocity=0 time=0
EXTRACT: note_on channel=5 note=70 velocity=0 time=0
EXTRACT: note_on channel=6 note=65 velocity=64 time=0.0057471250000000005
EXTRACT: note_on channel=4 note=60 velocity=45 time=0.0057471250000000005
EXTRACT: note_on channel=4 note=65 velocity=45 time=0
EXTRACT: note_on channel=4 note=57 velocity=75 time=0
EXTRACT: note_on channel=5 note=70 velocity=45 time=0
EXTRACT: note_on channel=5 note=65 velocity=45 time=0
EXTRACT: note_on channel=3 note=63 velocity=0 time=0.132183875
EXTRACT: note_on channel=3 note=63 velocity=97 time=0
EXTRACT: note_on channel=6 note=60 velocity=0 time=0.132183875
EXTRACT: note_on channel=3 note=63 velocity=0 time=0.028735625
EXTRACT: note_on channel=3 note=60 velocity=98 time=0
EXTRACT: note_on channel=4 note=45 velocity=0 time=0
EXTRACT: note_on channel=4 note=45 velocity=55 time=0.011494250000000001
EXTRACT: note_on channel=4 note=60 velocity=0 time=0.0057471250000000005
EXTRACT: note_on channel=4 note=57 velocity=0 time=0
EXTRACT: note_on channel=4 note=65 velocity=0 time=0
EXTRACT: note_on channel=5 note=65 velocity=0 time=0
EXTRACT: note_on channel=5 note=70 velocity=0 time=0
EXTRACT: note_on channel=6 note=60 velocity=55 time=0.0057471250000000005
EXTRACT: note_on channel=4 note=57 velocity=60 time=0.0057471250000000005
EXTRACT: note_on channel=4 note=65 velocity=51 time=0
EXTRACT: note_on channel=4 note=60 velocity=51 time=0
EXTRACT: note_on channel=5 note=65 velocity=51 time=0
EXTRACT: note_on channel=5 note=70 velocity=45 time=0
EXTRACT: note_on channel=4 note=45 velocity=0 time=0.14367812500000002
EXTRACT: note_on channel=9 note=39 velocity=110 time=0.0057471250000000005
EXTRACT: note_on channel=4 note=45 velocity=55 time=0.0057471250000000005
EXTRACT: note_on channel=9 note=39 velocity=0 time=0
EXTRACT: note_on channel=4 note=57 velocity=0 time=0.0057471250000000005
EXTRACT: note_on channel=4 note=60 velocity=0 time=0
EXTRACT: note_on channel=4 note=65 velocity=0 time=0
EXTRACT: note_on channel=5 note=70 velocity=0 time=0
EXTRACT: note_on channel=5 note=65 velocity=0 time=0
EXTRACT: note_on channel=4 note=60 velocity=55 time=0.011494250000000001
EXTRACT: note_on channel=4 note=57 velocity=74 time=0
EXTRACT: note_on channel=4 note=65 velocity=55 time=0
EXTRACT: note_on channel=5 note=65 velocity=55 time=0
EXTRACT: note_on channel=5 note=70 velocity=45 time=0
EXTRACT: note_on channel=3 note=60 velocity=0 time=0.051724125
EXTRACT: note_on channel=6 note=65 velocity=0 time=0.045977000000000004
EXTRACT: note_on channel=4 note=45 velocity=0 time=0.045977000000000004
EXTRACT: note_on channel=4 note=60 velocity=0 time=0.017241375000000003
EXTRACT: note_on channel=4 note=57 velocity=0 time=0
EXTRACT: note_on channel=4 note=65 velocity=0 time=0.17241375
EXTRACT: note_on channel=5 note=70 velocity=0 time=0
EXTRACT: note_on channel=5 note=65 velocity=0 time=0
EXTRACT: note_on channel=6 note=60 velocity=0 time=0.12643675000000001
EXTRACT: note_on channel=3 note=67 velocity=106 time=0
EXTRACT: note_on channel=1 note=55 velocity=93 time=0
EXTRACT: note_on channel=1 note=55 velocity=0 time=0.23563212500000003
EXTRACT: note_on channel=3 note=67 velocity=0 time=0.06321837500000001
EXTRACT: note_on channel=3 note=67 velocity=103 time=0
EXTRACT: note_on channel=1 note=55 velocity=93 time=0
EXTRACT: note_on channel=3 note=67 velocity=0 time=0.33333325
EXTRACT: note_on channel=1 note=55 velocity=0 time=0
EXTRACT: note_on channel=3 note=65 velocity=105 time=0
EXTRACT: note_on channel=1 note=53 velocity=93 time=0
EXTRACT: note_on channel=3 note=65 velocity=0 time=0.30459762500000004
EXTRACT: note_on channel=1 note=53 velocity=0 time=0
EXTRACT: note_on channel=3 note=74 velocity=106 time=0
EXTRACT: note_on channel=1 note=67 velocity=93 time=0.011494250000000001
EXTRACT: note_on channel=2 note=31 velocity=96 time=0
EXTRACT: note_on channel=6 note=67 velocity=62 time=0
EXTRACT: note_on channel=8 note=70 velocity=59 time=0
EXTRACT: note_on channel=8 note=79 velocity=61 time=0
EXTRACT: note_on channel=8 note=74 velocity=74 time=0
EXTRACT: note_on channel=10 note=67 velocity=85 time=0
EXTRACT: note_on channel=9 note=36 velocity=113 time=0
EXTRACT: note_on channel=9 note=41 velocity=110 time=0
EXTRACT: note_on channel=9 note=49 velocity=90 time=0
EXTRACT: note_on channel=0 note=62 velocity=75 time=0.0057471250000000005
EXTRACT: note_on channel=0 note=55 velocity=74 time=0
EXTRACT: note_on channel=0 note=43 velocity=64 time=0
EXTRACT: note_on channel=0 note=67 velocity=69 time=0
EXTRACT: note_on channel=4 note=43 velocity=55 time=0
EXTRACT: note_on channel=5 note=62 velocity=65 time=0
EXTRACT: note_on channel=10 note=79 velocity=77 time=0
EXTRACT: note_on channel=9 note=49 velocity=0 time=0
EXTRACT: note_on channel=9 note=41 velocity=0 time=0
EXTRACT: note_on channel=9 note=36 velocity=0 time=0
EXTRACT: note_on channel=5 note=67 velocity=74 time=0.0057471250000000005
EXTRACT: note_on channel=5 note=70 velocity=65 time=0
EXTRACT: note_on channel=4 note=58 velocity=68 time=0.0057471250000000005
EXTRACT: note_on channel=4 note=62 velocity=68 time=0
EXTRACT: note_on channel=4 note=67 velocity=63 time=0
EXTRACT: note_on channel=4 note=55 velocity=62 time=0
EXTRACT: note_on channel=4 note=43 velocity=0 time=0.32183900000000004
EXTRACT: note_on channel=5 note=62 velocity=0 time=0
EXTRACT: note_on channel=5 note=70 velocity=0 time=0.0057471250000000005
EXTRACT: note_on channel=5 note=67 velocity=0 time=0
EXTRACT: note_on channel=9 note=35 velocity=64 time=0
EXTRACT: note_on channel=9 note=38 velocity=64 time=0
EXTRACT: note_on channel=9 note=42 velocity=50 time=0
EXTRACT: note_on channel=0 note=50 velocity=72 time=0.0057471250000000005
EXTRACT: note_on channel=4 note=67 velocity=0 time=0
EXTRACT: note_on channel=4 note=58 velocity=0 time=0
EXTRACT: note_on channel=4 note=62 velocity=0 time=0
EXTRACT: note_on channel=4 note=55 velocity=0 time=0
EXTRACT: note_on channel=4 note=43 velocity=55 time=0
EXTRACT: note_on channel=9 note=42 velocity=0 time=0
EXTRACT: note_on channel=9 note=38 velocity=0 time=0
EXTRACT: note_on channel=9 note=35 velocity=0 time=0
EXTRACT: note_on channel=6 note=62 velocity=56 time=0.0057471250000000005
EXTRACT: note_on channel=4 note=58 velocity=62 time=0.0057471250000000005
EXTRACT: note_on channel=4 note=55 velocity=59 time=0
EXTRACT: note_on channel=4 note=67 velocity=58 time=0
EXTRACT: note_on channel=4 note=62 velocity=64 time=0
EXTRACT: note_on channel=5 note=67 velocity=59 time=0
EXTRACT: note_on channel=5 note=62 velocity=58 time=0
EXTRACT: note_on channel=5 note=70 velocity=58 time=0
EXTRACT: note_on channel=9 note=35 velocity=64 time=0.155172375
EXTRACT: note_on channel=9 note=35 velocity=0 time=0.0057471250000000005
EXTRACT: note_on channel=3 note=74 velocity=0 time=0.045977000000000004
EXTRACT: note_on channel=1 note=67 velocity=0 time=0.011494250000000001
EXTRACT: note_on channel=0 note=55 velocity=0 time=0.05747125
EXTRACT: note_on channel=6 note=67 velocity=0 time=0.034482750000000006
EXTRACT: note_on channel=3 note=67 velocity=102 time=0
EXTRACT: note_on channel=4 note=43 velocity=0 time=0.0057471250000000005
EXTRACT: note_on channel=9 note=40 velocity=78 time=0.0057471250000000005
EXTRACT: note_on channel=9 note=39 velocity=111 time=0
EXTRACT: note_on channel=9 note=42 velocity=64 time=0
EXTRACT: note_on channel=0 note=55 velocity=72 time=0.0057471250000000005
EXTRACT: note_on channel=4 note=67 velocity=0 time=0
EXTRACT: note_on channel=4 note=58 velocity=0 time=0
EXTRACT: note_on channel=4 note=55 velocity=0 time=0
EXTRACT: note_on channel=4 note=62 velocity=0 time=0
EXTRACT: note_on channel=4 note=43 velocity=55 time=0
EXTRACT: note_on channel=5 note=70 velocity=0 time=0
EXTRACT: note_on channel=5 note=62 velocity=0 time=0
EXTRACT: note_on channel=5 note=67 velocity=0 time=0
EXTRACT: note_on channel=9 note=42 velocity=0 time=0
EXTRACT: note_on channel=9 note=39 velocity=0 time=0
EXTRACT: note_on channel=9 note=40 velocity=0 time=0
EXTRACT: note_on channel=6 note=67 velocity=64 time=0.0057471250000000005
EXTRACT: note_on channel=4 note=58 velocity=67 time=0.0057471250000000005
EXTRACT: note_on channel=4 note=55 velocity=65 time=0
EXTRACT: note_on channel=4 note=62 velocity=69 time=0
EXTRACT: note_on channel=4 note=67 velocity=61 time=0
EXTRACT: note_on channel=5 note=62 velocity=63 time=0
EXTRACT: note_on channel=5 note=67 velocity=70 time=0
EXTRACT: note_on channel=5 note=70 velocity=63 time=0
EXTRACT: note_on channel=9 note=37 velocity=57 time=0.155172375
EXTRACT: note_on channel=9 note=37 velocity=0 time=0.0057471250000000005
EXTRACT: note_on channel=3 note=67 velocity=0 time=0.12643675000000001
EXTRACT: note_on channel=3 note=65 velocity=101 time=0
EXTRACT: note_on channel=4 note=43 velocity=0 time=0.0057471250000000005
EXTRACT: note_on channel=9 note=40 velocity=67 time=0.0057471250000000005
EXTRACT: note_on channel=9 note=42 velocity=53 time=0
EXTRACT: note_on channel=0 note=58 velocity=79 time=0.0057471250000000005
EXTRACT: note_on channel=4 note=62 velocity=0 time=0
EXTRACT: note_on channel=4 note=58 velocity=0 time=0
EXTRACT: note_on channel=4 note=55 velocity=0 time=0
EXTRACT: note_on channel=4 note=67 velocity=0 time=0
EXTRACT: note_on channel=4 note=43 velocity=55 time=0
EXTRACT: note_on channel=5 note=70 velocity=0 time=0
EXTRACT: note_on channel=5 note=67 velocity=0 time=0
EXTRACT: note_on channel=5 note=62 velocity=0 time=0
EXTRACT: note_on channel=9 note=42 velocity=0 time=0
EXTRACT: note_on channel=9 note=40 velocity=0 time=0
EXTRACT: note_on channel=6 note=65 velocity=55 time=0.0057471250000000005
EXTRACT: note_on channel=4 note=58 velocity=60 time=0.0057471250000000005
EXTRACT: note_on channel=4 note=62 velocity=63 time=0
EXTRACT: note_on channel=4 note=55 velocity=58 time=0
EXTRACT: note_on channel=4 note=67 velocity=54 time=0
EXTRACT: note_on channel=5 note=67 velocity=59 time=0
EXTRACT: note_on channel=5 note=62 velocity=58 time=0
EXTRACT: note_on channel=5 note=70 velocity=57 time=0
EXTRACT: note_on channel=4 note=43 velocity=0 time=0.14942525
EXTRACT: note_on channel=9 note=39 velocity=108 time=0.0057471250000000005
EXTRACT: note_on channel=4 note=55 velocity=0 time=0.0057471250000000005
EXTRACT: note_on channel=4 note=58 velocity=0 time=0
EXTRACT: note_on channel=4 note=62 velocity=0 time=0
EXTRACT: note_on channel=4 note=67 velocity=0 time=0
EXTRACT: note_on channel=4 note=43 velocity=55 time=0
EXTRACT: note_on channel=5 note=70 velocity=0 time=0
EXTRACT: note_on channel=5 note=62 velocity=0 time=0
EXTRACT: note_on channel=5 note=67 velocity=0 time=0
EXTRACT: note_on channel=9 note=39 velocity=0 time=0
EXTRACT: note_on channel=4 note=58 velocity=71 time=0.011494250000000001
EXTRACT: note_on channel=4 note=55 velocity=63 time=0
EXTRACT: note_on channel=4 note=62 velocity=71 time=0
EXTRACT: note_on channel=4 note=67 velocity=63 time=0
EXTRACT: note_on channel=5 note=62 velocity=63 time=0
EXTRACT: note_on channel=5 note=67 velocity=69 time=0
EXTRACT: note_on channel=5 note=70 velocity=63 time=0
EXTRACT: note_on channel=6 note=67 velocity=0 time=0.09770112500000001
EXTRACT: note_on channel=10 note=79 velocity=0 time=0
EXTRACT: note_on channel=0 note=62 velocity=0 time=0.0057471250000000005
EXTRACT: note_on channel=10 note=67 velocity=0 time=0
EXTRACT: note_on channel=3 note=65 velocity=0 time=0.0057471250000000005
EXTRACT: note_on channel=0 note=55 velocity=0 time=0.011494250000000001
EXTRACT: note_on channel=0 note=58 velocity=0 time=0
EXTRACT: note_on channel=0 note=50 velocity=0 time=0.011494250000000001
EXTRACT: note_on channel=3 note=74 velocity=104 time=0
EXTRACT: note_on channel=0 note=67 velocity=0 time=0.0057471250000000005
EXTRACT: note_on channel=1 note=67 velocity=93 time=0.0057471250000000005
EXTRACT: note_on channel=9 note=42 velocity=61 time=0
EXTRACT: note_on channel=0 note=62 velocity=81 time=0.0057471250000000005
EXTRACT: note_on channel=0 note=67 velocity=81 time=0
EXTRACT: note_on channel=0 note=55 velocity=81 time=0
EXTRACT: note_on channel=9 note=42 velocity=0 time=0
EXTRACT: note_on channel=6 note=67 velocity=62 time=0.0057471250000000005
EXTRACT: note_on channel=0 note=43 velocity=0 time=0.0057471250000000005
EXTRACT: note_on channel=4 note=43 velocity=0 time=0.14942525
EXTRACT: note_on channel=9 note=35 velocity=61 time=0.0057471250000000005
EXTRACT: note_on channel=9 note=37 velocity=59 time=0
EXTRACT: note_on channel=4 note=62 velocity=0 time=0.0057471250000000005
EXTRACT: note_on channel=4 note=58 velocity=0 time=0
EXTRACT: note_on channel=4 note=55 velocity=0 time=0
EXTRACT: note_on channel=4 note=67 velocity=0 time=0
EXTRACT: note_on channel=4 note=43 velocity=55 time=0
EXTRACT: note_on channel=5 note=70 velocity=0 time=0
EXTRACT: note_on channel=5 note=67 velocity=0 time=0
EXTRACT: note_on channel=5 note=62 velocity=0 time=0
EXTRACT: note_on channel=9 note=37 velocity=0 time=0
EXTRACT: note_on channel=9 note=35 velocity=0 time=0
EXTRACT: note_on channel=4 note=58 velocity=63 time=0.011494250000000001
EXTRACT: note_on channel=4 note=62 velocity=64 time=0
EXTRACT: note_on channel=4 note=55 velocity=60 time=0
EXTRACT: note_on channel=4 note=67 velocity=58 time=0
EXTRACT: note_on channel=5 note=62 velocity=57 time=0
EXTRACT: note_on channel=5 note=67 velocity=59 time=0
EXTRACT: note_on channel=5 note=70 velocity=58 time=0
EXTRACT: note_on channel=6 note=62 velocity=0 time=0.1149425
EXTRACT: note_on channel=4 note=43 velocity=0 time=0.034482750000000006
EXTRACT: note_on channel=9 note=35 velocity=67 time=0.0057471250000000005
EXTRACT: note_on channel=9 note=37 velocity=64 time=0
EXTRACT: note_on channel=9 note=42 velocity=53 time=0
EXTRACT: note_on channel=0 note=43 velocity=64 time=0.0057471250000000005
EXTRACT: note_on channel=4 note=55 velocity=0 time=0
EXTRACT: note_on channel=4 note=58 velocity=0 time=0
EXTRACT: note_on channel=4 note=62 velocity=0 time=0
EXTRACT: note_on channel=4 note=67 velocity=0 time=0
EXTRACT: note_on channel=4 note=43 velocity=55 time=0
EXTRACT: note_on channel=5 note=70 velocity=0 time=0
EXTRACT: note_on channel=5 note=67 velocity=0 time=0
EXTRACT: note_on channel=5 note=62 velocity=0 time=0
EXTRACT: note_on channel=9 note=42 velocity=0 time=0
EXTRACT: note_on channel=9 note=37 velocity=0 time=0
EXTRACT: note_on channel=9 note=35 velocity=0 time=0
EXTRACT: note_on channel=6 note=62 velocity=53 time=0.0057471250000000005
EXTRACT: note_on channel=4 note=58 velocity=65 time=0.0057471250000000005
EXTRACT: note_on channel=4 note=55 velocity=58 time=0
EXTRACT: note_on channel=4 note=62 velocity=71 time=0
EXTRACT: note_on channel=4 note=67 velocity=60 time=0
EXTRACT: note_on channel=5 note=62 velocity=59 time=0
EXTRACT: note_on channel=5 note=67 velocity=67 time=0
EXTRACT: note_on channel=5 note=70 velocity=65 time=0
EXTRACT: note_on channel=3 note=74 velocity=0 time=0.06896550000000001
EXTRACT: note_on channel=1 note=67 velocity=0 time=0.011494250000000001
EXTRACT: note_on channel=3 note=67 velocity=100 time=0
EXTRACT: note_on channel=6 note=67 velocity=0 time=0.155172375
EXTRACT: note_on channel=4 note=43 velocity=0 time=0.022988500000000002
EXTRACT: note_on channel=9 note=40 velocity=81 time=0.0057471250000000005
EXTRACT: note_on channel=9 note=39 velocity=114 time=0
EXTRACT: note_on channel=9 note=42 velocity=67 time=0
EXTRACT: note_on channel=0 note=50 velocity=75 time=0.0057471250000000005
EXTRACT: note_on channel=4 note=62 velocity=0 time=0
EXTRACT: note_on channel=4 note=58 velocity=0 time=0
EXTRACT: note_on channel=4 note=55 velocity=0 time=0
EXTRACT: note_on channel=4 note=67 velocity=0 time=0
EXTRACT: note_on channel=4 note=43 velocity=55 time=0
EXTRACT: note_on channel=5 note=70 velocity=0 time=0
EXTRACT: note_on channel=5 note=67 velocity=0 time=0
EXTRACT: note_on channel=5 note=62 velocity=0 time=0
EXTRACT: note_on channel=9 note=42 velocity=0 time=0
EXTRACT: note_on channel=9 note=39 velocity=0 time=0
EXTRACT: note_on channel=9 note=40 velocity=0 time=0
EXTRACT: note_on channel=6 note=67 velocity=64 time=0.0057471250000000005
EXTRACT: note_on channel=4 note=58 velocity=70 time=0.0057471250000000005
EXTRACT: note_on channel=4 note=55 velocity=63 time=0
EXTRACT: note_on channel=4 note=62 velocity=69 time=0
EXTRACT: note_on channel=4 note=67 velocity=63 time=0
EXTRACT: note_on channel=5 note=67 velocity=69 time=0
EXTRACT: note_on channel=5 note=62 velocity=65 time=0
EXTRACT: note_on channel=5 note=70 velocity=66 time=0
EXTRACT: note_on channel=6 note=65 velocity=0 time=0
EXTRACT: note_on channel=4 note=43 velocity=0 time=0.14942525
EXTRACT: note_on channel=9 note=35 velocity=61 time=0.0057471250000000005
EXTRACT: note_on channel=4 note=62 velocity=0 time=0.0057471250000000005
EXTRACT: note_on channel=4 note=58 velocity=0 time=0
EXTRACT: note_on channel=4 note=55 velocity=0 time=0
EXTRACT: note_on channel=4 note=67 velocity=0 time=0
EXTRACT: note_on channel=4 note=43 velocity=55 time=0
EXTRACT: note_on channel=5 note=70 velocity=0 time=0
EXTRACT: note_on channel=5 note=62 velocity=0 time=0
EXTRACT: note_on channel=5 note=67 velocity=0 time=0
EXTRACT: note_on channel=9 note=35 velocity=0 time=0
EXTRACT: note_on channel=4 note=58 velocity=65 time=0.011494250000000001
EXTRACT: note_on channel=4 note=62 velocity=67 time=0
EXTRACT: note_on channel=4 note=55 velocity=57 time=0
EXTRACT: note_on channel=4 note=67 velocity=58 time=0
EXTRACT: note_on channel=5 note=62 velocity=48 time=0
EXTRACT: note_on channel=5 note=67 velocity=66 time=0
EXTRACT: note_on channel=5 note=70 velocity=63 time=0
EXTRACT: note_on channel=3 note=67 velocity=0 time=0.074712625
EXTRACT: note_on channel=0 note=55 velocity=0 time=0.011494250000000001
EXTRACT: note_on channel=3 note=65 velocity=106 time=0
EXTRACT: note_on channel=4 note=43 velocity=0 time=0.0057471250000000005
EXTRACT: note_on channel=9 note=40 velocity=65 time=0.0057471250000000005
EXTRACT: note_on channel=9 note=42 velocity=51 time=0
EXTRACT: note_on channel=9 note=28 velocity=51 time=0
EXTRACT: note_on channel=0 note=55 velocity=78 time=0.0057471250000000005
EXTRACT: note_on channel=4 note=55 velocity=0 time=0
EXTRACT: note_on channel=4 note=58 velocity=0 time=0
EXTRACT: note_on channel=4 note=62 velocity=0 time=0
EXTRACT: note_on channel=4 note=67 velocity=0 time=0
EXTRACT: note_on channel=4 note=43 velocity=55 time=0
EXTRACT: note_on channel=5 note=70 velocity=0 time=0
EXTRACT: note_on channel=5 note=67 velocity=0 time=0
EXTRACT: note_on channel=5 note=62 velocity=0 time=0
EXTRACT: note_on channel=9 note=28 velocity=0 time=0
EXTRACT: note_on channel=9 note=42 velocity=0 time=0
EXTRACT: note_on channel=9 note=40 velocity=0 time=0
EXTRACT: note_on channel=6 note=65 velocity=58 time=0.0057471250000000005
EXTRACT: note_on channel=4 note=58 velocity=68 time=0.0057471250000000005
EXTRACT: note_on channel=4 note=55 velocity=63 time=0
EXTRACT: note_on channel=4 note=62 velocity=69 time=0
EXTRACT: note_on channel=4 note=67 velocity=61 time=0
EXTRACT: note_on channel=5 note=62 velocity=55 time=0
EXTRACT: note_on channel=5 note=67 velocity=67 time=0
EXTRACT: note_on channel=5 note=70 velocity=63 time=0
EXTRACT: note_on channel=4 note=43 velocity=0 time=0.14942525
EXTRACT: note_on channel=4 note=62 velocity=0 time=0.011494250000000001
EXTRACT: note_on channel=4 note=58 velocity=0 time=0
EXTRACT: note_on channel=4 note=55 velocity=0 time=0
EXTRACT: note_on channel=4 note=67 velocity=0 time=0
EXTRACT: note_on channel=4 note=43 velocity=55 time=0
EXTRACT: note_on channel=5 note=70 velocity=0 time=0
EXTRACT: note_on channel=5 note=67 velocity=0 time=0
EXTRACT: note_on channel=5 note=62 velocity=0 time=0
EXTRACT: note_on channel=4 note=58 velocity=59 time=0.011494250000000001
EXTRACT: note_on channel=4 note=67 velocity=59 time=0
EXTRACT: note_on channel=4 note=55 velocity=59 time=0
EXTRACT: note_on channel=4 note=62 velocity=59 time=0
EXTRACT: note_on channel=5 note=62 velocity=63 time=0
EXTRACT: note_on channel=5 note=67 velocity=63 time=0
EXTRACT: note_on channel=5 note=70 velocity=63 time=0
EXTRACT: note_on channel=6 note=62 velocity=0 time=0.09195400000000001
EXTRACT: note_on channel=8 note=70 velocity=0 time=0
EXTRACT: note_on channel=2 note=31 velocity=0 time=0.011494250000000001
EXTRACT: note_on channel=8 note=79 velocity=0 time=0
EXTRACT: note_on channel=6 note=67 velocity=0 time=0.028735625
EXTRACT: note_on channel=8 note=74 velocity=0 time=0
EXTRACT: note_on channel=0 note=55 velocity=0 time=0.011494250000000001
EXTRACT: note_on channel=0 note=50 velocity=0 time=0.0057471250000000005
EXTRACT: note_on channel=4 note=43 velocity=0 time=0
EXTRACT: note_on channel=2 note=27 velocity=96 time=0.0057471250000000005
EXTRACT: note_on channel=6 note=67 velocity=62 time=0
EXTRACT: note_on channel=8 note=70 velocity=60 time=0
EXTRACT: note_on channel=8 note=79 velocity=62 time=0
EXTRACT: note_on channel=8 note=75 velocity=63 time=0
EXTRACT: note_on channel=9 note=36 velocity=114 time=0
EXTRACT: note_on channel=9 note=41 velocity=110 time=0
EXTRACT: note_on channel=9 note=46 velocity=81 time=0
EXTRACT: note_on channel=0 note=58 velocity=74 time=0.0057471250000000005
EXTRACT: note_on channel=0 note=63 velocity=67 time=0
EXTRACT: note_on channel=0 note=51 velocity=81 time=0
EXTRACT: note_on channel=4 note=55 velocity=0 time=0
EXTRACT: note_on channel=4 note=58 velocity=0 time=0
EXTRACT: note_on channel=4 note=67 velocity=0 time=0
EXTRACT: note_on channel=4 note=62 velocity=0 time=0
EXTRACT: note_on channel=4 note=39 velocity=55 time=0
EXTRACT: note_on channel=5 note=70 velocity=0 time=0
EXTRACT: note_on channel=5 note=67 velocity=0 time=0
EXTRACT: note_on channel=5 note=62 velocity=0 time=0
EXTRACT: note_on channel=6 note=65 velocity=0 time=0
EXTRACT: note_on channel=9 note=46 velocity=0 time=0
EXTRACT: note_on channel=9 note=41 velocity=0 time=0
EXTRACT: note_on channel=9 note=36 velocity=0 time=0
EXTRACT: note_on channel=5 note=70 velocity=65 time=0.0057471250000000005
EXTRACT: note_on channel=0 note=43 velocity=0 time=0.0057471250000000005
EXTRACT: note_on channel=0 note=67 velocity=0 time=0
EXTRACT: note_on channel=4 note=63 velocity=64 time=0
EXTRACT: note_on channel=4 note=67 velocity=63 time=0
EXTRACT: note_on channel=4 note=58 velocity=65 time=0
EXTRACT: note_on channel=4 note=55 velocity=64 time=0
EXTRACT: note_on channel=5 note=65 velocity=74 time=0
EXTRACT: note_on channel=0 note=62 velocity=0 time=0.0057471250000000005
EXTRACT: note_on channel=3 note=65 velocity=0 time=0.26436775
EXTRACT: note_on channel=4 note=39 velocity=0 time=0.051724125
EXTRACT: note_on channel=5 note=70 velocity=0 time=0.0057471250000000005
EXTRACT: note_on channel=9 note=35 velocity=68 time=0
EXTRACT: note_on channel=9 note=38 velocity=68 time=0
EXTRACT: note_on channel=9 note=42 velocity=54 time=0
EXTRACT: note_on channel=0 note=46 velocity=72 time=0.0057471250000000005
EXTRACT: note_on channel=4 note=58 velocity=0 time=0
EXTRACT: note_on channel=4 note=63 velocity=0 time=0
EXTRACT: note_on channel=4 note=67 velocity=0 time=0
EXTRACT: note_on channel=4 note=55 velocity=0 time=0
EXTRACT: note_on channel=4 note=39 velocity=55 time=0
EXTRACT: note_on channel=5 note=65 velocity=0 time=0
EXTRACT: note_on channel=9 note=42 velocity=0 time=0
EXTRACT: note_on channel=9 note=38 velocity=0 time=0
EXTRACT: note_on channel=9 note=35 velocity=0 time=0
EXTRACT: note_on channel=6 note=63 velocity=56 time=0.0057471250000000005
EXTRACT: note_on channel=4 note=58 velocity=61 time=0.0057471250000000005
EXTRACT: note_on channel=4 note=63 velocity=63 time=0
EXTRACT: note_on channel=4 note=55 velocity=58 time=0
EXTRACT: note_on channel=4 note=67 velocity=56 time=0
EXTRACT: note_on channel=5 note=65 velocity=73 time=0
EXTRACT: note_on channel=5 note=70 velocity=63 time=0
EXTRACT: note_on channel=9 note=35 velocity=63 time=0.155172375
EXTRACT: note_on channel=9 note=35 velocity=0 time=0.0057471250000000005
EXTRACT: note_on channel=0 note=51 velocity=0 time=0.09770112500000001
EXTRACT: note_on channel=6 note=67 velocity=0 time=0.051724125
EXTRACT: note_on channel=4 note=39 velocity=0 time=0.011494250000000001
EXTRACT: note_on channel=9 note=40 velocity=77 time=0.0057471250000000005
EXTRACT: note_on channel=9 note=39 velocity=110 time=0
EXTRACT: note_on channel=9 note=42 velocity=64 time=0
EXTRACT: note_on channel=0 note=51 velocity=74 time=0.0057471250000000005
EXTRACT: note_on channel=4 note=55 velocity=0 time=0
EXTRACT: note_on channel=4 note=58 velocity=0 time=0
EXTRACT: note_on channel=4 note=63 velocity=0 time=0
EXTRACT: note_on channel=4 note=67 velocity=0 time=0
EXTRACT: note_on channel=4 note=39 velocity=55 time=0
EXTRACT: note_on channel=5 note=70 velocity=0 time=0
EXTRACT: note_on channel=5 note=65 velocity=0 time=0
EXTRACT: note_on channel=9 note=42 velocity=0 time=0
EXTRACT: note_on channel=9 note=39 velocity=0 time=0
EXTRACT: note_on channel=9 note=40 velocity=0 time=0
EXTRACT: note_on channel=6 note=67 velocity=64 time=0.0057471250000000005
EXTRACT: note_on channel=4 note=58 velocity=65 time=0.0057471250000000005
EXTRACT: note_on channel=4 note=67 velocity=65 time=0
EXTRACT: note_on channel=4 note=63 velocity=67 time=0
EXTRACT: note_on channel=4 note=55 velocity=62 time=0
EXTRACT: note_on channel=5 note=67 velocity=74 time=0
EXTRACT: note_on channel=5 note=70 velocity=76 time=0
EXTRACT: note_on channel=9 note=37 velocity=57 time=0.155172375
EXTRACT: note_on channel=9 note=37 velocity=0 time=0.0057471250000000005
EXTRACT: note_on channel=0 note=63 velocity=0 time=0.09770112500000001
EXTRACT: note_on channel=0 note=58 velocity=0 time=0.0057471250000000005
EXTRACT: note_on channel=0 note=51 velocity=0 time=0.051724125
EXTRACT: note_on channel=4 note=39 velocity=0 time=0.0057471250000000005
EXTRACT: note_on channel=5 note=67 velocity=0 time=0
EXTRACT: note_on channel=9 note=40 velocity=65 time=0.0057471250000000005
EXTRACT: note_on channel=9 note=42 velocity=51 time=0
EXTRACT: note_on channel=0 note=63 velocity=73 time=0.0057471250000000005
EXTRACT: note_on channel=0 note=58 velocity=79 time=0
EXTRACT: note_on channel=0 note=51 velocity=66 time=0
EXTRACT: note_on channel=4 note=63 velocity=0 time=0
EXTRACT: note_on channel=4 note=58 velocity=0 time=0
EXTRACT: note_on channel=4 note=67 velocity=0 time=0
EXTRACT: note_on channel=4 note=55 velocity=0 time=0
EXTRACT: note_on channel=4 note=39 velocity=55 time=0
EXTRACT: note_on channel=5 note=70 velocity=0 time=0
EXTRACT: note_on channel=9 note=42 velocity=0 time=0
EXTRACT: note_on channel=9 note=40 velocity=0 time=0
EXTRACT: note_on channel=6 note=65 velocity=55 time=0.0057471250000000005
EXTRACT: note_on channel=4 note=58 velocity=59 time=0.0057471250000000005
EXTRACT: note_on channel=4 note=63 velocity=61 time=0
EXTRACT: note_on channel=4 note=67 velocity=58 time=0
EXTRACT: note_on channel=4 note=55 velocity=57 time=0
EXTRACT: note_on channel=5 note=65 velocity=67 time=0
EXTRACT: note_on channel=5 note=70 velocity=67 time=0
EXTRACT: note_on channel=4 note=39 velocity=0 time=0.14942525
EXTRACT: note_on channel=3 note=58 velocity=82 time=0
EXTRACT: note_on channel=9 note=39 velocity=110 time=0
EXTRACT: note_on channel=4 note=67 velocity=0 time=0.0057471250000000005
EXTRACT: note_on channel=4 note=58 velocity=0 time=0
EXTRACT: note_on channel=4 note=63 velocity=0 time=0
EXTRACT: note_on channel=4 note=55 velocity=0 time=0
EXTRACT: note_on channel=4 note=39 velocity=55 time=0
EXTRACT: note_on channel=5 note=70 velocity=0 time=0
EXTRACT: note_on channel=5 note=65 velocity=0 time=0
EXTRACT: note_on channel=9 note=39 velocity=0 time=0
EXTRACT: note_on channel=4 note=58 velocity=67 time=0.011494250000000001
EXTRACT: note_on channel=4 note=55 velocity=61 time=0
EXTRACT: note_on channel=4 note=63 velocity=65 time=0
EXTRACT: note_on channel=4 note=67 velocity=59 time=0
EXTRACT: note_on channel=5 note=70 velocity=75 time=0
EXTRACT: note_on channel=5 note=67 velocity=75 time=0
EXTRACT: note_on channel=6 note=67 velocity=0 time=0.09770112500000001
EXTRACT: note_on channel=3 note=58 velocity=0 time=0.028735625
EXTRACT: note_on channel=3 note=63 velocity=106 time=0
EXTRACT: note_on channel=1 note=67 velocity=93 time=0.0057471250000000005
EXTRACT: note_on channel=9 note=42 velocity=64 time=0.0057471250000000005
EXTRACT: note_on channel=9 note=42 velocity=0 time=0.0057471250000000005
EXTRACT: note_on channel=6 note=67 velocity=62 time=0.0057471250000000005
EXTRACT: note_on channel=4 note=39 velocity=0 time=0.155172375
EXTRACT: note_on channel=9 note=35 velocity=62 time=0.0057471250000000005
EXTRACT: note_on channel=9 note=37 velocity=59 time=0
EXTRACT: note_on channel=4 note=63 velocity=0 time=0.0057471250000000005
EXTRACT: note_on channel=4 note=58 velocity=0 time=0
EXTRACT: note_on channel=4 note=55 velocity=0 time=0
EXTRACT: note_on channel=4 note=67 velocity=0 time=0
EXTRACT: note_on channel=4 note=39 velocity=55 time=0
EXTRACT: note_on channel=5 note=67 velocity=0 time=0
EXTRACT: note_on channel=5 note=70 velocity=0 time=0
EXTRACT: note_on channel=9 note=37 velocity=0 time=0
EXTRACT: note_on channel=9 note=35 velocity=0 time=0
EXTRACT: note_on channel=4 note=58 velocity=61 time=0.011494250000000001
EXTRACT: note_on channel=4 note=67 velocity=59 time=0
EXTRACT: note_on channel=4 note=63 velocity=61 time=0
EXTRACT: note_on channel=4 note=55 velocity=58 time=0
EXTRACT: note_on channel=5 note=65 velocity=70 time=0
EXTRACT: note_on channel=5 note=70 velocity=67 time=0
EXTRACT: note_on channel=3 note=63 velocity=0 time=0.10344825
EXTRACT: note_on channel=0 note=46 velocity=0 time=0
EXTRACT: note_on channel=1 note=67 velocity=0 time=0.0057471250000000005
EXTRACT: note_on channel=6 note=63 velocity=0 time=0.0057471250000000005
EXTRACT: note_on channel=3 note=63 velocity=106 time=0
EXTRACT: note_on channel=1 note=67 velocity=93 time=0.0057471250000000005
EXTRACT: note_on channel=4 note=39 velocity=0 time=0
EXTRACT: note_on channel=10 note=67 velocity=87 time=0
EXTRACT: note_on channel=10 note=79 velocity=85 time=0
EXTRACT: note_on channel=9 note=35 velocity=65 time=0.0057471250000000005
EXTRACT: note_on channel=9 note=37 velocity=63 time=0
EXTRACT: note_on channel=9 note=42 velocity=52 time=0
EXTRACT: note_on channel=0 note=46 velocity=62 time=0.0057471250000000005
EXTRACT: note_on channel=4 note=63 velocity=0 time=0
EXTRACT: note_on channel=4 note=58 velocity=0 time=0
EXTRACT: note_on channel=4 note=67 velocity=0 time=0
EXTRACT: note_on channel=4 note=55 velocity=0 time=0
EXTRACT: note_on channel=4 note=39 velocity=55 time=0
EXTRACT: note_on channel=5 note=70 velocity=0 time=0
EXTRACT: note_on channel=5 note=65 velocity=0 time=0
EXTRACT: note_on channel=9 note=42 velocity=0 time=0
EXTRACT: note_on channel=9 note=37 velocity=0 time=0
EXTRACT: note_on channel=9 note=35 velocity=0 time=0
EXTRACT: note_on channel=6 note=63 velocity=53 time=0.0057471250000000005
EXTRACT: note_on channel=4 note=58 velocity=68 time=0.0057471250000000005
EXTRACT: note_on channel=4 note=67 velocity=65 time=0
EXTRACT: note_on channel=4 note=63 velocity=68 time=0
EXTRACT: note_on channel=4 note=55 velocity=60 time=0
EXTRACT: note_on channel=5 note=65 velocity=81 time=0
EXTRACT: note_on channel=5 note=70 velocity=74 time=0
EXTRACT: note_on channel=10 note=79 velocity=0 time=0.25862062500000005
EXTRACT: note_on channel=10 note=67 velocity=0 time=0.0057471250000000005
EXTRACT: note_on channel=6 note=67 velocity=0 time=0.034482750000000006
EXTRACT: note_on channel=0 note=51 velocity=0 time=0.0057471250000000005
EXTRACT: note_on channel=4 note=39 velocity=0 time=0.017241375000000003
EXTRACT: note_on channel=9 note=40 velocity=75 time=0.0057471250000000005
EXTRACT: note_on channel=9 note=39 velocity=109 time=0
EXTRACT: note_on channel=9 note=42 velocity=62 time=0
EXTRACT: note_on channel=0 note=51 velocity=69 time=0.0057471250000000005
EXTRACT: note_on channel=4 note=63 velocity=0 time=0
EXTRACT: note_on channel=4 note=58 velocity=0 time=0
EXTRACT: note_on channel=4 note=67 velocity=0 time=0
EXTRACT: note_on channel=4 note=55 velocity=0 time=0
EXTRACT: note_on channel=4 note=39 velocity=55 time=0
EXTRACT: note_on channel=5 note=70 velocity=0 time=0
EXTRACT: note_on channel=5 note=65 velocity=0 time=0
EXTRACT: note_on channel=10 note=67 velocity=79 time=0
EXTRACT: note_on channel=10 note=79 velocity=85 time=0
EXTRACT: note_on channel=9 note=42 velocity=0 time=0
EXTRACT: note_on channel=9 note=39 velocity=0 time=0
EXTRACT: note_on channel=9 note=40 velocity=0 time=0
EXTRACT: note_on channel=6 note=67 velocity=64 time=0.0057471250000000005
EXTRACT: note_on channel=4 note=67 velocity=65 time=0.0057471250000000005
EXTRACT: note_on channel=4 note=58 velocity=69 time=0
EXTRACT: note_on channel=4 note=63 velocity=69 time=0
EXTRACT: note_on channel=4 note=55 velocity=63 time=0
EXTRACT: note_on channel=5 note=70 velocity=66 time=0
EXTRACT: note_on channel=5 note=65 velocity=66 time=0
EXTRACT: note_on channel=6 note=65 velocity=0 time=0
EXTRACT: note_on channel=4 note=39 velocity=0 time=0.14942525
EXTRACT: note_on channel=9 note=35 velocity=62 time=0.0057471250000000005
EXTRACT: note_on channel=4 note=63 velocity=0 time=0.0057471250000000005
EXTRACT: note_on channel=4 note=67 velocity=0 time=0
EXTRACT: note_on channel=4 note=58 velocity=0 time=0
EXTRACT: note_on channel=4 note=55 velocity=0 time=0
EXTRACT: note_on channel=4 note=39 velocity=55 time=0
EXTRACT: note_on channel=5 note=65 velocity=0 time=0
EXTRACT: note_on channel=5 note=70 velocity=0 time=0
EXTRACT: note_on channel=9 note=35 velocity=0 time=0
EXTRACT: note_on channel=4 note=58 velocity=67 time=0.011494250000000001
EXTRACT: note_on channel=4 note=63 velocity=67 time=0
EXTRACT: note_on channel=4 note=67 velocity=60 time=0
EXTRACT: note_on channel=4 note=55 velocity=61 time=0
EXTRACT: note_on channel=5 note=65 velocity=64 time=0
EXTRACT: note_on channel=5 note=70 velocity=69 time=0
EXTRACT: note_on channel=10 note=79 velocity=0 time=0.05747125
EXTRACT: note_on channel=10 note=67 velocity=0 time=0.011494250000000001
EXTRACT: note_on channel=3 note=63 velocity=0 time=0.034482750000000006
EXTRACT: note_on channel=1 note=67 velocity=0 time=0.0057471250000000005
EXTRACT: note_on channel=0 note=58 velocity=0 time=0.0057471250000000005
EXTRACT: note_on channel=3 note=63 velocity=104 time=0
EXTRACT: note_on channel=1 note=67 velocity=93 time=0.0057471250000000005
EXTRACT: note_on channel=4 note=39 velocity=0 time=0
EXTRACT: note_on channel=9 note=38 velocity=66 time=0.0057471250000000005
EXTRACT: note_on channel=9 note=40 velocity=66 time=0
EXTRACT: note_on channel=9 note=42 velocity=52 time=0
EXTRACT: note_on channel=9 note=28 velocity=52 time=0
EXTRACT: note_on channel=0 note=58 velocity=70 time=0.0057471250000000005
EXTRACT: note_on channel=4 note=67 velocity=0 time=0
EXTRACT: note_on channel=4 note=58 velocity=0 time=0
EXTRACT: note_on channel=4 note=63 velocity=0 time=0
EXTRACT: note_on channel=4 note=55 velocity=0 time=0
EXTRACT: note_on channel=4 note=39 velocity=55 time=0
EXTRACT: note_on channel=5 note=70 velocity=0 time=0
EXTRACT: note_on channel=5 note=65 velocity=0 time=0
EXTRACT: note_on channel=10 note=79 velocity=89 time=0
EXTRACT: note_on channel=10 note=67 velocity=89 time=0
EXTRACT: note_on channel=9 note=28 velocity=0 time=0
EXTRACT: note_on channel=9 note=38 velocity=0 time=0
EXTRACT: note_on channel=9 note=40 velocity=0 time=0
EXTRACT: note_on channel=9 note=42 velocity=0 time=0
EXTRACT: note_on channel=6 note=65 velocity=58 time=0.0057471250000000005
EXTRACT: note_on channel=4 note=58 velocity=66 time=0.0057471250000000005
EXTRACT: note_on channel=4 note=67 velocity=60 time=0
EXTRACT: note_on channel=4 note=63 velocity=69 time=0
EXTRACT: note_on channel=4 note=55 velocity=60 time=0
EXTRACT: note_on channel=5 note=65 velocity=70 time=0
EXTRACT: note_on channel=5 note=70 velocity=68 time=0
EXTRACT: note_on channel=4 note=39 velocity=0 time=0.14942525
EXTRACT: note_on channel=9 note=36 velocity=110 time=0.0057471250000000005
EXTRACT: note_on channel=4 note=63 velocity=0 time=0.0057471250000000005
EXTRACT: note_on channel=4 note=58 velocity=0 time=0
EXTRACT: note_on channel=4 note=67 velocity=0 time=0
EXTRACT: note_on channel=4 note=55 velocity=0 time=0
EXTRACT: note_on channel=4 note=39 velocity=55 time=0
EXTRACT: note_on channel=5 note=70 velocity=0 time=0
EXTRACT: note_on channel=5 note=65 velocity=0 time=0
EXTRACT: note_on channel=9 note=36 velocity=0 time=0
EXTRACT: note_on channel=4 note=67 velocity=57 time=0.011494250000000001
EXTRACT: note_on channel=4 note=58 velocity=57 time=0
EXTRACT: note_on channel=4 note=55 velocity=57 time=0
EXTRACT: note_on channel=4 note=63 velocity=57 time=0
EXTRACT: note_on channel=5 note=65 velocity=63 time=0
EXTRACT: note_on channel=5 note=70 velocity=63 time=0
EXTRACT: note_on channel=2 note=27 velocity=0 time=0.08045975000000001
EXTRACT: note_on channel=0 note=51 velocity=0 time=0.011494250000000001
EXTRACT: note_on channel=6 note=63 velocity=0 time=0
EXTRACT: note_on channel=10 note=67 velocity=0 time=0
EXTRACT: note_on channel=0 note=46 velocity=0 time=0.0057471250000000005
EXTRACT: note_on channel=10 note=79 velocity=0 time=0.0057471250000000005
EXTRACT: note_on channel=8 note=70 velocity=0 time=0.011494250000000001
EXTRACT: note_on channel=8 note=79 velocity=0 time=0.0057471250000000005
EXTRACT: note_on channel=0 note=63 velocity=0 time=0.0057471250000000005
EXTRACT: note_on channel=6 note=67 velocity=0 time=0.0057471250000000005
EXTRACT: note_on channel=8 note=75 velocity=0 time=0
EXTRACT: note_on channel=0 note=58 velocity=0 time=0.0057471250000000005
EXTRACT: note_on channel=6 note=65 velocity=0 time=0
EXTRACT: note_on channel=4 note=39 velocity=0 time=0.011494250000000001
EXTRACT: note_on channel=2 note=34 velocity=96 time=0.0057471250000000005
EXTRACT: note_on channel=6 note=67 velocity=62 time=0
EXTRACT: note_on channel=8 note=70 velocity=49 time=0
EXTRACT: note_on channel=8 note=74 velocity=72 time=0
EXTRACT: note_on channel=8 note=77 velocity=53 time=0
EXTRACT: note_on channel=9 note=36 velocity=113 time=0
EXTRACT: note_on channel=9 note=41 velocity=110 time=0
EXTRACT: note_on channel=9 note=46 velocity=80 time=0
EXTRACT: note_on channel=0 note=46 velocity=79 time=0.0057471250000000005
EXTRACT: note_on channel=0 note=53 velocity=76 time=0
EXTRACT: note_on channel=0 note=62 velocity=76 time=0
EXTRACT: note_on channel=4 note=55 velocity=0 time=0
EXTRACT: note_on channel=4 note=67 velocity=0 time=0
EXTRACT: note_on channel=4 note=58 velocity=0 time=0
EXTRACT: note_on channel=4 note=63 velocity=0 time=0
EXTRACT: note_on channel=4 note=46 velocity=55 time=0
EXTRACT: note_on channel=5 note=70 velocity=0 time=0
EXTRACT: note_on channel=5 note=65 velocity=0 time=0
EXTRACT: note_on channel=10 note=70 velocity=83 time=0
EXTRACT: note_on channel=10 note=58 velocity=86 time=0
EXTRACT: note_on channel=9 note=46 velocity=0 time=0
EXTRACT: note_on channel=9 note=41 velocity=0 time=0
EXTRACT: note_on channel=9 note=36 velocity=0 time=0
EXTRACT: note_on channel=4 note=58 velocity=74 time=0.011494250000000001
EXTRACT: note_on channel=4 note=62 velocity=69 time=0
EXTRACT: note_on channel=4 note=65 velocity=66 time=0
EXTRACT: note_on channel=4 note=53 velocity=66 time=0
EXTRACT: note_on channel=5 note=65 velocity=74 time=0
EXTRACT: note_on channel=5 note=70 velocity=63 time=0
EXTRACT: note_on channel=3 note=63 velocity=0 time=0.20114937500000002
EXTRACT: note_on channel=1 note=67 velocity=0 time=0.0057471250000000005
EXTRACT: note_on channel=0 note=53 velocity=0 time=0.09195400000000001
EXTRACT: note_on channel=3 note=62 velocity=81 time=0
EXTRACT: note_on channel=4 note=46 velocity=0 time=0.0057471250000000005
EXTRACT: note_on channel=1 note=65 velocity=83 time=0.0057471250000000005
EXTRACT: note_on channel=9 note=35 velocity=64 time=0
EXTRACT: note_on channel=9 note=38 velocity=64 time=0
EXTRACT: note_on channel=9 note=42 velocity=50 time=0
EXTRACT: note_on channel=0 note=53 velocity=79 time=0.0057471250000000005
EXTRACT: note_on channel=4 note=65 velocity=0 time=0
EXTRACT: note_on channel=4 note=58 velocity=0 time=0
EXTRACT: note_on channel=4 note=62 velocity=0 time=0
EXTRACT: note_on channel=4 note=53 velocity=0 time=0
EXTRACT: note_on channel=4 note=46 velocity=55 time=0
EXTRACT: note_on channel=5 note=70 velocity=0 time=0
EXTRACT: note_on channel=5 note=65 velocity=0 time=0
EXTRACT: note_on channel=9 note=42 velocity=0 time=0
EXTRACT: note_on channel=9 note=38 velocity=0 time=0
EXTRACT: note_on channel=9 note=35 velocity=0 time=0
EXTRACT: note_on channel=6 note=62 velocity=56 time=0.0057471250000000005
EXTRACT: note_on channel=4 note=53 velocity=60 time=0.0057471250000000005
EXTRACT: note_on channel=4 note=58 velocity=61 time=0
EXTRACT: note_on channel=4 note=62 velocity=61 time=0
EXTRACT: note_on channel=4 note=65 velocity=59 time=0
EXTRACT: note_on channel=5 note=70 velocity=62 time=0
EXTRACT: note_on channel=5 note=65 velocity=64 time=0
EXTRACT: note_on channel=3 note=62 velocity=0 time=0.09770112500000001
EXTRACT: note_on channel=1 note=65 velocity=0 time=0.011494250000000001
EXTRACT: note_on channel=3 note=62 velocity=105 time=0
EXTRACT: note_on channel=1 note=65 velocity=93 time=0.011494250000000001
EXTRACT: note_on channel=9 note=35 velocity=64 time=0
EXTRACT: note_on channel=9 note=35 velocity=0 time=0.0057471250000000005
EXTRACT: note_on channel=6 note=67 velocity=0 time=0.14942525
EXTRACT: note_on channel=4 note=46 velocity=0 time=0.011494250000000001
EXTRACT: note_on channel=9 note=40 velocity=78 time=0.0057471250000000005
EXTRACT: note_on channel=9 note=39 velocity=111 time=0
EXTRACT: note_on channel=9 note=42 velocity=64 time=0
EXTRACT: note_on channel=0 note=58 velocity=55 time=0.0057471250000000005
EXTRACT: note_on channel=4 note=62 velocity=0 time=0
EXTRACT: note_on channel=4 note=53 velocity=0 time=0
EXTRACT: note_on channel=4 note=58 velocity=0 time=0
EXTRACT: note_on channel=4 note=65 velocity=0 time=0
EXTRACT: note_on channel=4 note=46 velocity=55 time=0
EXTRACT: note_on channel=5 note=65 velocity=0 time=0
EXTRACT: note_on channel=5 note=70 velocity=0 time=0
EXTRACT: note_on channel=9 note=42 velocity=0 time=0
EXTRACT: note_on channel=9 note=39 velocity=0 time=0
EXTRACT: note_on channel=9 note=40 velocity=0 time=0
EXTRACT: note_on channel=5 note=65 velocity=74 time=0.0057471250000000005
EXTRACT: note_on channel=6 note=67 velocity=64 time=0
EXTRACT: note_on channel=4 note=58 velocity=65 time=0.0057471250000000005
EXTRACT: note_on channel=4 note=53 velocity=64 time=0
EXTRACT: note_on channel=4 note=62 velocity=67 time=0
EXTRACT: note_on channel=4 note=65 velocity=63 time=0
EXTRACT: note_on channel=5 note=70 velocity=65 time=0
EXTRACT: note_on channel=9 note=37 velocity=57 time=0.155172375
EXTRACT: note_on channel=9 note=37 velocity=0 time=0.0057471250000000005
EXTRACT: note_on channel=3 note=62 velocity=0 time=0.09770112500000001
EXTRACT: note_on channel=1 note=65 velocity=0 time=0.011494250000000001
EXTRACT: note_on channel=0 note=58 velocity=0 time=0.0057471250000000005
EXTRACT: note_on channel=3 note=63 velocity=88 time=0
EXTRACT: note_on channel=4 note=46 velocity=0 time=0.0057471250000000005
EXTRACT: note_on channel=1 note=67 velocity=86 time=0.0057471250000000005
EXTRACT: note_on channel=5 note=65 velocity=0 time=0
EXTRACT: note_on channel=9 note=40 velocity=67 time=0
EXTRACT: note_on channel=9 note=42 velocity=53 time=0
EXTRACT: note_on channel=0 note=58 velocity=64 time=0.0057471250000000005
EXTRACT: note_on channel=4 note=62 velocity=0 time=0
EXTRACT: note_on channel=4 note=58 velocity=0 time=0
EXTRACT: note_on channel=4 note=53 velocity=0 time=0
EXTRACT: note_on channel=4 note=65 velocity=0 time=0
EXTRACT: note_on channel=4 note=46 velocity=55 time=0
EXTRACT: note_on channel=5 note=70 velocity=0 time=0
EXTRACT: note_on channel=5 note=70 velocity=61 time=0
EXTRACT: note_on channel=5 note=65 velocity=64 time=0
EXTRACT: note_on channel=9 note=42 velocity=0 time=0
EXTRACT: note_on channel=9 note=40 velocity=0 time=0
EXTRACT: note_on channel=6 note=65 velocity=55 time=0.0057471250000000005
EXTRACT: note_on channel=4 note=53 velocity=60 time=0.0057471250000000005
EXTRACT: note_on channel=4 note=62 velocity=64 time=0
EXTRACT: note_on channel=4 note=58 velocity=59 time=0
EXTRACT: note_on channel=4 note=65 velocity=59 time=0
EXTRACT: note_on channel=3 note=63 velocity=0 time=0.12643675000000001
EXTRACT: note_on channel=1 note=67 velocity=0 time=0.011494250000000001
EXTRACT: note_on channel=3 note=63 velocity=110 time=0
EXTRACT: note_on channel=4 note=46 velocity=0 time=0.0057471250000000005
EXTRACT: note_on channel=5 note=65 velocity=0 time=0
EXTRACT: note_on channel=5 note=70 velocity=0 time=0
EXTRACT: note_on channel=10 note=58 velocity=0 time=0
EXTRACT: note_on channel=1 note=67 velocity=93 time=0.0057471250000000005
EXTRACT: note_on channel=9 note=39 velocity=108 time=0
EXTRACT: note_on channel=4 note=58 velocity=0 time=0.0057471250000000005
EXTRACT: note_on channel=4 note=53 velocity=0 time=0
EXTRACT: note_on channel=4 note=62 velocity=0 time=0
EXTRACT: note_on channel=4 note=65 velocity=0 time=0
EXTRACT: note_on channel=4 note=46 velocity=55 time=0
EXTRACT: note_on channel=5 note=70 velocity=65 time=0
EXTRACT: note_on channel=5 note=65 velocity=72 time=0
EXTRACT: note_on channel=9 note=39 velocity=0 time=0
EXTRACT: note_on channel=10 note=70 velocity=0 time=0.0057471250000000005
EXTRACT: note_on channel=4 note=58 velocity=67 time=0.0057471250000000005
EXTRACT: note_on channel=4 note=53 velocity=63 time=0
EXTRACT: note_on channel=4 note=65 velocity=60 time=0
EXTRACT: note_on channel=4 note=62 velocity=66 time=0
EXTRACT: note_on channel=0 note=53 velocity=0 time=0.086206875
EXTRACT: note_on channel=6 note=67 velocity=0 time=0.011494250000000001
EXTRACT: note_on channel=0 note=62 velocity=0 time=0.011494250000000001
EXTRACT: note_on channel=9 note=42 velocity=61 time=0.045977000000000004
EXTRACT: note_on channel=0 note=53 velocity=83 time=0.0057471250000000005
EXTRACT: note_on channel=0 note=62 velocity=87 time=0
EXTRACT: note_on channel=9 note=42 velocity=0 time=0
EXTRACT: note_on channel=6 note=67 velocity=62 time=0.0057471250000000005
EXTRACT: note_on channel=4 note=46 velocity=0 time=0.155172375
EXTRACT: note_on channel=5 note=65 velocity=0 time=0
EXTRACT: note_on channel=5 note=70 velocity=0 time=0
EXTRACT: note_on channel=9 note=35 velocity=61 time=0.0057471250000000005
EXTRACT: note_on channel=9 note=37 velocity=59 time=0
EXTRACT: note_on channel=4 note=65 velocity=0 time=0.0057471250000000005
EXTRACT: note_on channel=4 note=58 velocity=0 time=0
EXTRACT: note_on channel=4 note=53 velocity=0 time=0
EXTRACT: note_on channel=4 note=62 velocity=0 time=0
EXTRACT: note_on channel=4 note=46 velocity=55 time=0
EXTRACT: note_on channel=5 note=70 velocity=60 time=0
EXTRACT: note_on channel=5 note=65 velocity=64 time=0
EXTRACT: note_on channel=9 note=37 velocity=0 time=0
EXTRACT: note_on channel=9 note=35 velocity=0 time=0
EXTRACT: note_on channel=4 note=58 velocity=65 time=0.011494250000000001
EXTRACT: note_on channel=4 note=53 velocity=63 time=0
EXTRACT: note_on channel=4 note=62 velocity=65 time=0
EXTRACT: note_on channel=4 note=65 velocity=59 time=0
EXTRACT: note_on channel=0 note=53 velocity=0 time=0.074712625
EXTRACT: note_on channel=3 note=63 velocity=0 time=0.011494250000000001
EXTRACT: note_on channel=1 note=67 velocity=0 time=0.011494250000000001
EXTRACT: note_on channel=6 note=62 velocity=0 time=0.017241375000000003
EXTRACT: note_on channel=3 note=62 velocity=85 time=0
EXTRACT: note_on channel=4 note=46 velocity=0 time=0.0057471250000000005
EXTRACT: note_on channel=5 note=65 velocity=0 time=0
EXTRACT: note_on channel=5 note=70 velocity=0 time=0
EXTRACT: note_on channel=1 note=65 velocity=85 time=0.0057471250000000005
EXTRACT: note_on channel=9 note=35 velocity=67 time=0
EXTRACT: note_on channel=9 note=37 velocity=64 time=0
EXTRACT: note_on channel=9 note=42 velocity=53 time=0
EXTRACT: note_on channel=0 note=53 velocity=74 time=0.0057471250000000005
EXTRACT: note_on channel=4 note=62 velocity=0 time=0
EXTRACT: note_on channel=4 note=58 velocity=0 time=0
EXTRACT: note_on channel=4 note=53 velocity=0 time=0
EXTRACT: note_on channel=4 note=65 velocity=0 time=0
EXTRACT: note_on channel=4 note=46 velocity=55 time=0
EXTRACT: note_on channel=5 note=65 velocity=70 time=0
EXTRACT: note_on channel=5 note=70 velocity=65 time=0
EXTRACT: note_on channel=9 note=42 velocity=0 time=0
EXTRACT: note_on channel=9 note=37 velocity=0 time=0
EXTRACT: note_on channel=9 note=35 velocity=0 time=0
EXTRACT: note_on channel=6 note=62 velocity=53 time=0.0057471250000000005
EXTRACT: note_on channel=4 note=58 velocity=64 time=0.0057471250000000005
EXTRACT: note_on channel=4 note=53 velocity=64 time=0
EXTRACT: note_on channel=4 note=62 velocity=64 time=0
EXTRACT: note_on channel=4 note=65 velocity=59 time=0
EXTRACT: note_on channel=3 note=62 velocity=0 time=0.12068962500000001
EXTRACT: note_on channel=1 note=65 velocity=0 time=0.011494250000000001
EXTRACT: note_on channel=3 note=62 velocity=107 time=0
EXTRACT: note_on channel=1 note=65 velocity=93 time=0.011494250000000001
EXTRACT: note_on channel=0 note=58 velocity=0 time=0.12068962500000001
EXTRACT: note_on channel=6 note=67 velocity=0 time=0.022988500000000002
EXTRACT: note_on channel=4 note=46 velocity=0 time=0.022988500000000002
EXTRACT: note_on channel=5 note=70 velocity=0 time=0
EXTRACT: note_on channel=5 note=65 velocity=0 time=0
EXTRACT: note_on channel=9 note=40 velocity=81 time=0.0057471250000000005
EXTRACT: note_on channel=9 note=39 velocity=114 time=0
EXTRACT: note_on channel=9 note=42 velocity=67 time=0
EXTRACT: note_on channel=0 note=58 velocity=74 time=0.0057471250000000005
EXTRACT: note_on channel=4 note=62 velocity=0 time=0
EXTRACT: note_on channel=4 note=58 velocity=0 time=0
EXTRACT: note_on channel=4 note=53 velocity=0 time=0
EXTRACT: note_on channel=4 note=65 velocity=0 time=0
EXTRACT: note_on channel=4 note=46 velocity=55 time=0
EXTRACT: note_on channel=9 note=42 velocity=0 time=0
EXTRACT: note_on channel=9 note=39 velocity=0 time=0
EXTRACT: note_on channel=9 note=40 velocity=0 time=0
EXTRACT: note_on channel=6 note=67 velocity=64 time=0.0057471250000000005
EXTRACT: note_on channel=4 note=58 velocity=75 time=0.0057471250000000005
EXTRACT: note_on channel=4 note=53 velocity=66 time=0
EXTRACT: note_on channel=4 note=62 velocity=69 time=0
EXTRACT: note_on channel=4 note=65 velocity=63 time=0
EXTRACT: note_on channel=5 note=70 velocity=72 time=0
EXTRACT: note_on channel=5 note=65 velocity=72 time=0
EXTRACT: note_on channel=6 note=65 velocity=0 time=0
EXTRACT: note_on channel=4 note=46 velocity=0 time=0.14942525
EXTRACT: note_on channel=9 note=35 velocity=61 time=0.0057471250000000005
EXTRACT: note_on channel=4 note=62 velocity=0 time=0.0057471250000000005
EXTRACT: note_on channel=4 note=58 velocity=0 time=0
EXTRACT: note_on channel=4 note=53 velocity=0 time=0
EXTRACT: note_on channel=4 note=65 velocity=0 time=0
EXTRACT: note_on channel=4 note=46 velocity=55 time=0
EXTRACT: note_on channel=5 note=65 velocity=0 time=0
EXTRACT: note_on channel=5 note=70 velocity=0 time=0
EXTRACT: note_on channel=9 note=35 velocity=0 time=0
EXTRACT: note_on channel=4 note=58 velocity=66 time=0.011494250000000001
EXTRACT: note_on channel=4 note=53 velocity=64 time=0
EXTRACT: note_on channel=4 note=65 velocity=59 time=0
EXTRACT: note_on channel=4 note=62 velocity=66 time=0
EXTRACT: note_on channel=5 note=65 velocity=65 time=0
EXTRACT: note_on channel=5 note=70 velocity=63 time=0
EXTRACT: note_on channel=3 note=62 velocity=0 time=0.09195400000000001
EXTRACT: note_on channel=1 note=65 velocity=0 time=0.011494250000000001
EXTRACT: note_on channel=3 note=60 velocity=87 time=0
EXTRACT: note_on channel=4 note=46 velocity=0 time=0.0057471250000000005
EXTRACT: note_on channel=1 note=63 velocity=87 time=0.0057471250000000005
EXTRACT: note_on channel=9 note=40 velocity=65 time=0
EXTRACT: note_on channel=9 note=42 velocity=51 time=0
EXTRACT: note_on channel=9 note=28 velocity=51 time=0
EXTRACT: note_on channel=0 note=65 velocity=84 time=0.0057471250000000005
EXTRACT: note_on channel=4 note=65 velocity=0 time=0
EXTRACT: note_on channel=4 note=58 velocity=0 time=0
EXTRACT: note_on channel=4 note=53 velocity=0 time=0
EXTRACT: note_on channel=4 note=62 velocity=0 time=0
EXTRACT: note_on channel=4 note=46 velocity=55 time=0
EXTRACT: note_on channel=5 note=70 velocity=0 time=0
EXTRACT: note_on channel=5 note=65 velocity=0 time=0
EXTRACT: note_on channel=9 note=28 velocity=0 time=0
EXTRACT: note_on channel=9 note=42 velocity=0 time=0
EXTRACT: note_on channel=9 note=40 velocity=0 time=0
EXTRACT: note_on channel=6 note=65 velocity=58 time=0.0057471250000000005
EXTRACT: note_on channel=4 note=53 velocity=60 time=0.0057471250000000005
EXTRACT: note_on channel=4 note=58 velocity=63 time=0
EXTRACT: note_on channel=4 note=62 velocity=66 time=0
EXTRACT: note_on channel=4 note=65 velocity=58 time=0
EXTRACT: note_on channel=5 note=65 velocity=65 time=0
EXTRACT: note_on channel=5 note=70 velocity=61 time=0
EXTRACT: note_on channel=3 note=60 velocity=0 time=0.12643675000000001
EXTRACT: note_on channel=1 note=63 velocity=0 time=0.011494250000000001
EXTRACT: note_on channel=3 note=60 velocity=108 time=0
EXTRACT: note_on channel=4 note=46 velocity=0 time=0.0057471250000000005
EXTRACT: note_on channel=1 note=63 velocity=93 time=0.0057471250000000005
EXTRACT: note_on channel=4 note=62 velocity=0 time=0.0057471250000000005
EXTRACT: note_on channel=4 note=53 velocity=0 time=0
EXTRACT: note_on channel=4 note=58 velocity=0 time=0
EXTRACT: note_on channel=4 note=65 velocity=0 time=0
EXTRACT: note_on channel=4 note=46 velocity=55 time=0
EXTRACT: note_on channel=5 note=70 velocity=0 time=0
EXTRACT: note_on channel=5 note=65 velocity=0 time=0
EXTRACT: note_on channel=4 note=58 velocity=57 time=0.011494250000000001
EXTRACT: note_on channel=4 note=62 velocity=57 time=0
EXTRACT: note_on channel=4 note=65 velocity=57 time=0
EXTRACT: note_on channel=4 note=53 velocity=57 time=0
EXTRACT: note_on channel=5 note=65 velocity=63 time=0
EXTRACT: note_on channel=5 note=70 velocity=60 time=0
EXTRACT: note_on channel=2 note=34 velocity=0 time=0.09195400000000001
EXTRACT: note_on channel=6 note=62 velocity=0 time=0
EXTRACT: note_on channel=8 note=74 velocity=0 time=0.011494250000000001
EXTRACT: note_on channel=6 note=67 velocity=0 time=0.011494250000000001
EXTRACT: note_on channel=6 note=65 velocity=0 time=0.017241375000000003
EXTRACT: note_on channel=0 note=65 velocity=0 time=0.0057471250000000005
EXTRACT: note_on channel=0 note=46 velocity=0 time=0.011494250000000001
EXTRACT: note_on channel=4 note=46 velocity=0 time=0
EXTRACT: note_on channel=2 note=33 velocity=96 time=0.0057471250000000005
EXTRACT: note_on channel=0 note=58 velocity=0 time=0
EXTRACT: note_on channel=6 note=65 velocity=62 time=0
EXTRACT: note_on channel=8 note=77 velocity=0 time=0
EXTRACT: note_on channel=8 note=70 velocity=0 time=0
EXTRACT: note_on channel=9 note=36 velocity=114 time=0
EXTRACT: note_on channel=9 note=41 velocity=110 time=0
EXTRACT: note_on channel=9 note=46 velocity=81 time=0
EXTRACT: note_on channel=0 note=45 velocity=72 time=0.0057471250000000005
EXTRACT: note_on channel=0 note=65 velocity=80 time=0
EXTRACT: note_on channel=4 note=65 velocity=0 time=0
EXTRACT: note_on channel=4 note=58 velocity=0 time=0
EXTRACT: note_on channel=4 note=62 velocity=0 time=0
EXTRACT: note_on channel=4 note=53 velocity=0 time=0
EXTRACT: note_on channel=4 note=45 velocity=55 time=0
EXTRACT: note_on channel=5 note=70 velocity=0 time=0
EXTRACT: note_on channel=5 note=65 velocity=0 time=0
EXTRACT: note_on channel=8 note=77 velocity=63 time=0
EXTRACT: note_on channel=8 note=72 velocity=67 time=0
EXTRACT: note_on channel=8 note=69 velocity=61 time=0
EXTRACT: note_on channel=10 note=69 velocity=87 time=0
EXTRACT: note_on channel=10 note=57 velocity=62 time=0
EXTRACT: note_on channel=9 note=46 velocity=0 time=0
EXTRACT: note_on channel=9 note=41 velocity=0 time=0
EXTRACT: note_on channel=9 note=36 velocity=0 time=0
EXTRACT: note_on channel=0 note=62 velocity=0 time=0.0057471250000000005
EXTRACT: note_on channel=0 note=53 velocity=0 time=0.0057471250000000005
EXTRACT: note_on channel=4 note=60 velocity=69 time=0
EXTRACT: note_on channel=4 note=57 velocity=69 time=0
EXTRACT: note_on channel=4 note=65 velocity=69 time=0
EXTRACT: note_on channel=5 note=65 velocity=76 time=0
EXTRACT: note_on channel=5 note=70 velocity=69 time=0
EXTRACT: note_on channel=4 note=45 velocity=0 time=0.32183900000000004
EXTRACT: note_on channel=9 note=35 velocity=68 time=0.0057471250000000005
EXTRACT: note_on channel=9 note=38 velocity=68 time=0
EXTRACT: note_on channel=9 note=42 velocity=54 time=0
EXTRACT: note_on channel=0 note=53 velocity=79 time=0.0057471250000000005
EXTRACT: note_on channel=4 note=60 velocity=0 time=0
EXTRACT: note_on channel=4 note=57 velocity=0 time=0
EXTRACT: note_on channel=4 note=65 velocity=0 time=0
EXTRACT: note_on channel=4 note=45 velocity=55 time=0
EXTRACT: note_on channel=5 note=70 velocity=0 time=0
EXTRACT: note_on channel=5 note=65 velocity=0 time=0
EXTRACT: note_on channel=9 note=42 velocity=0 time=0
EXTRACT: note_on channel=9 note=38 velocity=0 time=0
EXTRACT: note_on channel=9 note=35 velocity=0 time=0
EXTRACT: note_on channel=6 note=60 velocity=56 time=0.0057471250000000005
EXTRACT: note_on channel=4 note=57 velocity=59 time=0.0057471250000000005
EXTRACT: note_on channel=4 note=60 velocity=70 time=0
EXTRACT: note_on channel=4 note=65 velocity=66 time=0
EXTRACT: note_on channel=5 note=70 velocity=67 time=0
EXTRACT: note_on channel=5 note=65 velocity=71 time=0
EXTRACT: note_on channel=9 note=35 velocity=63 time=0.155172375
EXTRACT: note_on channel=9 note=35 velocity=0 time=0.0057471250000000005
EXTRACT: note_on channel=10 note=69 velocity=0 time=0.10344825
EXTRACT: note_on channel=10 note=57 velocity=0 time=0.022988500000000002
EXTRACT: note_on channel=6 note=65 velocity=0 time=0.022988500000000002
EXTRACT: note_on channel=4 note=45 velocity=0 time=0.011494250000000001
EXTRACT: note_on channel=3 note=60 velocity=0 time=0.0057471250000000005
EXTRACT: note_on channel=9 note=40 velocity=77 time=0
EXTRACT: note_on channel=9 note=39 velocity=110 time=0
EXTRACT: note_on channel=9 note=42 velocity=64 time=0
EXTRACT: note_on channel=4 note=57 velocity=0 time=0.0057471250000000005
EXTRACT: note_on channel=4 note=60 velocity=0 time=0
EXTRACT: note_on channel=4 note=65 velocity=0 time=0
EXTRACT: note_on channel=4 note=45 velocity=55 time=0
EXTRACT: note_on channel=5 note=65 velocity=0 time=0
EXTRACT: note_on channel=5 note=70 velocity=0 time=0
EXTRACT: note_on channel=10 note=70 velocity=86 time=0
EXTRACT: note_on channel=10 note=58 velocity=86 time=0
EXTRACT: note_on channel=9 note=42 velocity=0 time=0
EXTRACT: note_on channel=9 note=39 velocity=0 time=0
EXTRACT: note_on channel=9 note=40 velocity=0 time=0
EXTRACT: note_on channel=1 note=63 velocity=0 time=0.0057471250000000005
EXTRACT: note_on channel=6 note=65 velocity=64 time=0
EXTRACT: note_on channel=0 note=60 velocity=70 time=0.0057471250000000005
EXTRACT: note_on channel=4 note=60 velocity=75 time=0
EXTRACT: note_on channel=4 note=65 velocity=75 time=0
EXTRACT: note_on channel=4 note=57 velocity=75 time=0
EXTRACT: note_on channel=5 note=70 velocity=65 time=0
EXTRACT: note_on channel=5 note=65 velocity=71 time=0
EXTRACT: note_on channel=9 note=37 velocity=57 time=0.155172375
EXTRACT: note_on channel=9 note=37 velocity=0 time=0.0057471250000000005
EXTRACT: note_on channel=0 note=65 velocity=0 time=0.1149425
EXTRACT: note_on channel=6 note=60 velocity=0 time=0
EXTRACT: note_on channel=4 note=45 velocity=0 time=0.045977000000000004
EXTRACT: note_on channel=9 note=40 velocity=65 time=0.0057471250000000005
EXTRACT: note_on channel=9 note=42 velocity=51 time=0
EXTRACT: note_on channel=0 note=65 velocity=81 time=0.0057471250000000005
EXTRACT: note_on channel=0 note=69 velocity=72 time=0
EXTRACT: note_on channel=4 note=60 velocity=0 time=0
EXTRACT: note_on channel=4 note=65 velocity=0 time=0
EXTRACT: note_on channel=4 note=57 velocity=0 time=0
EXTRACT: note_on channel=4 note=45 velocity=55 time=0
EXTRACT: note_on channel=5 note=65 velocity=0 time=0
EXTRACT: note_on channel=5 note=70 velocity=0 time=0
EXTRACT: note_on channel=9 note=42 velocity=0 time=0
EXTRACT: note_on channel=9 note=40 velocity=0 time=0
EXTRACT: note_on channel=6 note=60 velocity=55 time=0.0057471250000000005
EXTRACT: note_on channel=0 note=72 velocity=55 time=0.0057471250000000005
EXTRACT: note_on channel=4 note=57 velocity=60 time=0
EXTRACT: note_on channel=4 note=65 velocity=60 time=0
EXTRACT: note_on channel=4 note=60 velocity=59 time=0
EXTRACT: note_on channel=5 note=65 velocity=64 time=0
EXTRACT: note_on channel=5 note=70 velocity=59 time=0
EXTRACT: note_on channel=10 note=70 velocity=0 time=0.12643675000000001
EXTRACT: note_on channel=10 note=58 velocity=0 time=0.0057471250000000005
EXTRACT: note_on channel=4 note=45 velocity=0 time=0.017241375000000003
EXTRACT: note_on channel=9 note=39 velocity=110 time=0.0057471250000000005
EXTRACT: note_on channel=4 note=57 velocity=0 time=0.0057471250000000005
EXTRACT: note_on channel=4 note=65 velocity=0 time=0
EXTRACT: note_on channel=4 note=60 velocity=0 time=0
EXTRACT: note_on channel=4 note=45 velocity=55 time=0
EXTRACT: note_on channel=5 note=70 velocity=0 time=0
EXTRACT: note_on channel=5 note=65 velocity=0 time=0
EXTRACT: note_on channel=9 note=39 velocity=0 time=0
EXTRACT: note_on channel=4 note=60 velocity=74 time=0.011494250000000001
EXTRACT: note_on channel=4 note=57 velocity=74 time=0
EXTRACT: note_on channel=4 note=65 velocity=74 time=0
EXTRACT: note_on channel=5 note=65 velocity=69 time=0
EXTRACT: note_on channel=5 note=70 velocity=65 time=0
EXTRACT: note_on channel=6 note=65 velocity=0 time=0.09770112500000001
EXTRACT: note_on channel=9 note=42 velocity=64 time=0.05747125
EXTRACT: note_on channel=9 note=42 velocity=0 time=0.0057471250000000005
EXTRACT: note_on channel=6 note=65 velocity=62 time=0.0057471250000000005
EXTRACT: note_on channel=4 note=45 velocity=0 time=0.155172375
EXTRACT: note_on channel=9 note=35 velocity=62 time=0.0057471250000000005
EXTRACT: note_on channel=9 note=37 velocity=59 time=0
EXTRACT: note_on channel=4 note=60 velocity=0 time=0.0057471250000000005
EXTRACT: note_on channel=4 note=57 velocity=0 time=0
EXTRACT: note_on channel=4 note=65 velocity=0 time=0
EXTRACT: note_on channel=4 note=45 velocity=55 time=0
EXTRACT: note_on channel=5 note=70 velocity=0 time=0
EXTRACT: note_on channel=5 note=65 velocity=0 time=0
EXTRACT: note_on channel=9 note=37 velocity=0 time=0
EXTRACT: note_on channel=9 note=35 velocity=0 time=0
EXTRACT: note_on channel=4 note=60 velocity=70 time=0.011494250000000001
EXTRACT: note_on channel=4 note=57 velocity=63 time=0
EXTRACT: note_on channel=4 note=65 velocity=69 time=0
EXTRACT: note_on channel=5 note=65 velocity=72 time=0
EXTRACT: note_on channel=5 note=70 velocity=67 time=0
EXTRACT: note_on channel=0 note=53 velocity=0 time=0.10344825
EXTRACT: note_on channel=6 note=60 velocity=0 time=0.011494250000000001
EXTRACT: note_on channel=3 note=67 velocity=105 time=0
EXTRACT: note_on channel=4 note=45 velocity=0 time=0.0057471250000000005
EXTRACT: note_on channel=9 note=35 velocity=65 time=0.0057471250000000005
EXTRACT: note_on channel=9 note=37 velocity=63 time=0
EXTRACT: note_on channel=9 note=42 velocity=52 time=0
EXTRACT: note_on channel=0 note=53 velocity=58 time=0.0057471250000000005
EXTRACT: note_on channel=4 note=60 velocity=0 time=0
EXTRACT: note_on channel=4 note=57 velocity=0 time=0
EXTRACT: note_on channel=4 note=65 velocity=0 time=0
EXTRACT: note_on channel=4 note=45 velocity=55 time=0
EXTRACT: note_on channel=5 note=70 velocity=0 time=0
EXTRACT: note_on channel=5 note=65 velocity=0 time=0
EXTRACT: note_on channel=9 note=42 velocity=0 time=0
EXTRACT: note_on channel=9 note=37 velocity=0 time=0
EXTRACT: note_on channel=9 note=35 velocity=0 time=0
EXTRACT: note_on channel=6 note=60 velocity=53 time=0.0057471250000000005
EXTRACT: note_on channel=4 note=60 velocity=75 time=0.0057471250000000005
EXTRACT: note_on channel=4 note=57 velocity=64 time=0
EXTRACT: note_on channel=4 note=65 velocity=71 time=0
EXTRACT: note_on channel=5 note=65 velocity=69 time=0
EXTRACT: note_on channel=5 note=70 velocity=64 time=0
EXTRACT: note_on channel=3 note=67 velocity=0 time=0.25862062500000005
EXTRACT: note_on channel=0 note=60 velocity=0 time=0.011494250000000001
EXTRACT: note_on channel=6 note=65 velocity=0 time=0.028735625
EXTRACT: note_on channel=3 note=67 velocity=109 time=0
EXTRACT: note_on channel=0 note=69 velocity=0 time=0.0057471250000000005
EXTRACT: note_on channel=4 note=45 velocity=0 time=0
EXTRACT: note_on channel=9 note=40 velocity=75 time=0.0057471250000000005
EXTRACT: note_on channel=9 note=39 velocity=109 time=0
EXTRACT: note_on channel=9 note=42 velocity=62 time=0
EXTRACT: note_on channel=0 note=60 velocity=71 time=0.0057471250000000005
EXTRACT: note_on channel=4 note=60 velocity=0 time=0
EXTRACT: note_on channel=4 note=57 velocity=0 time=0
EXTRACT: note_on channel=4 note=65 velocity=0 time=0
EXTRACT: note_on channel=4 note=45 velocity=55 time=0
EXTRACT: note_on channel=5 note=70 velocity=0 time=0
EXTRACT: note_on channel=5 note=65 velocity=0 time=0
EXTRACT: note_on channel=9 note=42 velocity=0 time=0
EXTRACT: note_on channel=9 note=39 velocity=0 time=0
EXTRACT: note_on channel=9 note=40 velocity=0 time=0
EXTRACT: note_on channel=6 note=65 velocity=64 time=0.0057471250000000005
EXTRACT: note_on channel=4 note=60 velocity=74 time=0.0057471250000000005
EXTRACT: note_on channel=4 note=57 velocity=74 time=0
EXTRACT: note_on channel=4 note=65 velocity=74 time=0
EXTRACT: note_on channel=5 note=65 velocity=76 time=0
EXTRACT: note_on channel=5 note=70 velocity=69 time=0
EXTRACT: note_on channel=0 note=72 velocity=0 time=0.011494250000000001
EXTRACT: note_on channel=4 note=45 velocity=0 time=0.13793100000000003
EXTRACT: note_on channel=9 note=35 velocity=62 time=0.0057471250000000005
EXTRACT: note_on channel=4 note=60 velocity=0 time=0.0057471250000000005
EXTRACT: note_on channel=4 note=57 velocity=0 time=0
EXTRACT: note_on channel=4 note=65 velocity=0 time=0
EXTRACT: note_on channel=4 note=45 velocity=55 time=0
EXTRACT: note_on channel=5 note=70 velocity=0 time=0
EXTRACT: note_on channel=5 note=65 velocity=0 time=0
EXTRACT: note_on channel=9 note=35 velocity=0 time=0
EXTRACT: note_on channel=0 note=74 velocity=100 time=0.0057471250000000005
EXTRACT: note_on channel=4 note=60 velocity=77 time=0.0057471250000000005
EXTRACT: note_on channel=4 note=57 velocity=65 time=0
EXTRACT: note_on channel=4 note=65 velocity=69 time=0
EXTRACT: note_on channel=5 note=65 velocity=69 time=0
EXTRACT: note_on channel=5 note=70 velocity=67 time=0
EXTRACT: note_on channel=3 note=67 velocity=0 time=0.10344825
EXTRACT: note_on channel=6 note=60 velocity=0 time=0.011494250000000001
EXTRACT: note_on channel=0 note=65 velocity=0 time=0.011494250000000001
EXTRACT: note_on channel=3 note=65 velocity=103 time=0
EXTRACT: note_on channel=4 note=45 velocity=0 time=0.0057471250000000005
EXTRACT: note_on channel=9 note=40 velocity=66 time=0.0057471250000000005
EXTRACT: note_on channel=9 note=42 velocity=52 time=0
EXTRACT: note_on channel=9 note=28 velocity=52 time=0
EXTRACT: note_on channel=0 note=65 velocity=60 time=0.0057471250000000005
EXTRACT: note_on channel=4 note=60 velocity=0 time=0
EXTRACT: note_on channel=4 note=57 velocity=0 time=0
EXTRACT: note_on channel=4 note=65 velocity=0 time=0
EXTRACT: note_on channel=4 note=45 velocity=55 time=0
EXTRACT: note_on channel=5 note=70 velocity=0 time=0
EXTRACT: note_on channel=5 note=65 velocity=0 time=0
EXTRACT: note_on channel=9 note=28 velocity=0 time=0
EXTRACT: note_on channel=9 note=42 velocity=0 time=0
EXTRACT: note_on channel=9 note=40 velocity=0 time=0
EXTRACT: note_on channel=6 note=60 velocity=58 time=0.0057471250000000005
EXTRACT: note_on channel=4 note=60 velocity=79 time=0.0057471250000000005
EXTRACT: note_on channel=4 note=57 velocity=65 time=0
EXTRACT: note_on channel=4 note=65 velocity=72 time=0
EXTRACT: note_on channel=5 note=65 velocity=64 time=0
EXTRACT: note_on channel=5 note=70 velocity=63 time=0
EXTRACT: note_on channel=4 note=45 velocity=0 time=0.14942525
EXTRACT: note_on channel=9 note=36 velocity=110 time=0.0057471250000000005
EXTRACT: note_on channel=9 note=41 velocity=110 time=0
EXTRACT: note_on channel=4 note=60 velocity=0 time=0.0057471250000000005
EXTRACT: note_on channel=4 note=57 velocity=0 time=0
EXTRACT: note_on channel=4 note=65 velocity=0 time=0
EXTRACT: note_on channel=4 note=45 velocity=55 time=0
EXTRACT: note_on channel=5 note=70 velocity=0 time=0
EXTRACT: note_on channel=5 note=65 velocity=0 time=0
EXTRACT: note_on channel=9 note=41 velocity=0 time=0
EXTRACT: note_on channel=9 note=36 velocity=0 time=0
EXTRACT: note_on channel=4 note=60 velocity=65 time=0.011494250000000001
EXTRACT: note_on channel=4 note=57 velocity=65 time=0
EXTRACT: note_on channel=4 note=65 velocity=65 time=0
EXTRACT: note_on channel=5 note=65 velocity=64 time=0
EXTRACT: note_on channel=5 note=70 velocity=64 time=0
EXTRACT: note_on channel=0 note=53 velocity=0 time=0.09195400000000001
EXTRACT: note_on channel=3 note=65 velocity=0 time=0.028735625
EXTRACT: note_on channel=0 note=60 velocity=0 time=0.0057471250000000005
EXTRACT: note_on channel=6 note=60 velocity=0 time=0.0057471250000000005
EXTRACT: note_on channel=6 note=65 velocity=0 time=0
EXTRACT: note_on channel=3 note=74 velocity=111 time=0
EXTRACT: note_on channel=0 note=45 velocity=0 time=0
EXTRACT: note_on channel=2 note=33 velocity=0 time=0.0057471250000000005
EXTRACT: note_on channel=4 note=45 velocity=0 time=0
EXTRACT: note_on channel=8 note=69 velocity=0 time=0
EXTRACT: note_on channel=8 note=77 velocity=0 time=0
EXTRACT: note_on channel=10 note=67 velocity=85 time=0
EXTRACT: note_on channel=1 note=67 velocity=93 time=0.0057471250000000005
EXTRACT: note_on channel=2 note=31 velocity=96 time=0
EXTRACT: note_on channel=0 note=65 velocity=0 time=0
EXTRACT: note_on channel=6 note=67 velocity=62 time=0
EXTRACT: note_on channel=8 note=72 velocity=0 time=0
EXTRACT: note_on channel=9 note=36 velocity=113 time=0
EXTRACT: note_on channel=9 note=41 velocity=110 time=0
EXTRACT: note_on channel=9 note=46 velocity=80 time=0
EXTRACT: note_on channel=4 note=60 velocity=0 time=0.0057471250000000005
EXTRACT: note_on channel=4 note=57 velocity=0 time=0
EXTRACT: note_on channel=4 note=65 velocity=0 time=0
EXTRACT: note_on channel=4 note=43 velocity=55 time=0
EXTRACT: note_on channel=5 note=70 velocity=0 time=0
EXTRACT: note_on channel=5 note=65 velocity=0 time=0
EXTRACT: note_on channel=5 note=62 velocity=65 time=0
EXTRACT: note_on channel=10 note=79 velocity=83 time=0
EXTRACT: note_on channel=9 note=46 velocity=0 time=0
EXTRACT: note_on channel=9 note=41 velocity=0 time=0
EXTRACT: note_on channel=9 note=36 velocity=0 time=0
EXTRACT: note_on channel=0 note=55 velocity=74 time=0.0057471250000000005
EXTRACT: note_on channel=0 note=43 velocity=64 time=0
EXTRACT: note_on channel=0 note=67 velocity=69 time=0
EXTRACT: note_on channel=0 note=62 velocity=75 time=0
EXTRACT: note_on channel=5 note=67 velocity=74 time=0
EXTRACT: note_on channel=5 note=70 velocity=65 time=0
EXTRACT: note_on channel=8 note=70 velocity=58 time=0
EXTRACT: note_on channel=8 note=74 velocity=72 time=0
EXTRACT: note_on channel=8 note=79 velocity=62 time=0
EXTRACT: note_on channel=4 note=58 velocity=68 time=0.0057471250000000005
EXTRACT: note_on channel=4 note=62 velocity=68 time=0
EXTRACT: note_on channel=4 note=67 velocity=63 time=0
EXTRACT: note_on channel=4 note=55 velocity=62 time=0
EXTRACT: note_on channel=4 note=43 velocity=0 time=0.32183900000000004
EXTRACT: note_on channel=5 note=62 velocity=0 time=0
EXTRACT: note_on channel=5 note=70 velocity=0 time=0.0057471250000000005
EXTRACT: note_on channel=5 note=67 velocity=0 time=0
EXTRACT: note_on channel=9 note=35 velocity=64 time=0
EXTRACT: note_on channel=9 note=38 velocity=64 time=0
EXTRACT: note_on channel=9 note=42 velocity=50 time=0
EXTRACT: note_on channel=4 note=67 velocity=0 time=0.0057471250000000005
EXTRACT: note_on channel=4 note=58 velocity=0 time=0
EXTRACT: note_on channel=4 note=62 velocity=0 time=0
EXTRACT: note_on channel=4 note=55 velocity=0 time=0
EXTRACT: note_on channel=4 note=43 velocity=55 time=0
EXTRACT: note_on channel=9 note=42 velocity=0 time=0
EXTRACT: note_on channel=9 note=38 velocity=0 time=0
EXTRACT: note_on channel=9 note=35 velocity=0 time=0
EXTRACT: note_on channel=0 note=50 velocity=72 time=0.0057471250000000005
EXTRACT: note_on channel=6 note=62 velocity=56 time=0
EXTRACT: note_on channel=4 note=58 velocity=62 time=0.0057471250000000005
EXTRACT: note_on channel=4 note=55 velocity=59 time=0
EXTRACT: note_on channel=4 note=67 velocity=58 time=0
EXTRACT: note_on channel=4 note=62 velocity=64 time=0
EXTRACT: note_on channel=5 note=67 velocity=59 time=0
EXTRACT: note_on channel=5 note=62 velocity=58 time=0
EXTRACT: note_on channel=5 note=70 velocity=58 time=0
EXTRACT: note_on channel=3 note=74 velocity=0 time=0.155172375
EXTRACT: note_on channel=9 note=35 velocity=64 time=0
EXTRACT: note_on channel=9 note=35 velocity=0 time=0.0057471250000000005
EXTRACT: note_on channel=1 note=67 velocity=0 time=0.0057471250000000005
EXTRACT: note_on channel=0 note=55 velocity=0 time=0.1149425
EXTRACT: note_on channel=6 note=67 velocity=0 time=0.028735625
EXTRACT: note_on channel=3 note=67 velocity=106 time=0
EXTRACT: note_on channel=4 note=43 velocity=0 time=0.0057471250000000005
EXTRACT: note_on channel=0 note=74 velocity=0 time=0.0057471250000000005
EXTRACT: note_on channel=9 note=40 velocity=78 time=0
EXTRACT: note_on channel=9 note=39 velocity=111 time=0
EXTRACT: note_on channel=9 note=42 velocity=64 time=0
EXTRACT: note_on channel=4 note=67 velocity=0 time=0.0057471250000000005
EXTRACT: note_on channel=4 note=58 velocity=0 time=0
EXTRACT: note_on channel=4 note=55 velocity=0 time=0
EXTRACT: note_on channel=4 note=62 velocity=0 time=0
EXTRACT: note_on channel=4 note=43 velocity=55 time=0
EXTRACT: note_on channel=5 note=70 velocity=0 time=0
EXTRACT: note_on channel=5 note=62 velocity=0 time=0
EXTRACT: note_on channel=5 note=67 velocity=0 time=0
EXTRACT: note_on channel=9 note=42 velocity=0 time=0
EXTRACT: note_on channel=9 note=39 velocity=0 time=0
EXTRACT: note_on channel=9 note=40 velocity=0 time=0
EXTRACT: note_on channel=0 note=55 velocity=72 time=0.0057471250000000005
EXTRACT: note_on channel=6 note=67 velocity=64 time=0
EXTRACT: note_on channel=4 note=58 velocity=67 time=0.0057471250000000005
EXTRACT: note_on channel=4 note=55 velocity=65 time=0
EXTRACT: note_on channel=4 note=62 velocity=69 time=0
EXTRACT: note_on channel=4 note=67 velocity=61 time=0
EXTRACT: note_on channel=5 note=62 velocity=63 time=0
EXTRACT: note_on channel=5 note=67 velocity=70 time=0
EXTRACT: note_on channel=5 note=70 velocity=63 time=0
EXTRACT: note_on channel=9 note=37 velocity=57 time=0.155172375
EXTRACT: note_on channel=9 note=37 velocity=0 time=0.0057471250000000005
EXTRACT: note_on channel=3 note=67 velocity=0 time=0.12068962500000001
EXTRACT: note_on channel=3 note=65 velocity=101 time=0
EXTRACT: note_on channel=4 note=43 velocity=0 time=0.0057471250000000005
EXTRACT: note_on channel=9 note=40 velocity=67 time=0.0057471250000000005
EXTRACT: note_on channel=9 note=42 velocity=53 time=0
EXTRACT: note_on channel=4 note=62 velocity=0 time=0.0057471250000000005
EXTRACT: note_on channel=4 note=58 velocity=0 time=0
EXTRACT: note_on channel=4 note=55 velocity=0 time=0
EXTRACT: note_on channel=4 note=67 velocity=0 time=0
EXTRACT: note_on channel=4 note=43 velocity=55 time=0
EXTRACT: note_on channel=5 note=70 velocity=0 time=0
EXTRACT: note_on channel=5 note=67 velocity=0 time=0
EXTRACT: note_on channel=5 note=62 velocity=0 time=0
EXTRACT: note_on channel=9 note=42 velocity=0 time=0
EXTRACT: note_on channel=9 note=40 velocity=0 time=0
EXTRACT: note_on channel=0 note=58 velocity=79 time=0.0057471250000000005
EXTRACT: note_on channel=6 note=65 velocity=55 time=0
EXTRACT: note_on channel=4 note=58 velocity=60 time=0.0057471250000000005
EXTRACT: note_on channel=4 note=62 velocity=63 time=0
EXTRACT: note_on channel=4 note=55 velocity=58 time=0
EXTRACT: note_on channel=4 note=67 velocity=54 time=0
EXTRACT: note_on channel=5 note=67 velocity=59 time=0
EXTRACT: note_on channel=5 note=62 velocity=58 time=0
EXTRACT: note_on channel=5 note=70 velocity=57 time=0
EXTRACT: note_on channel=10 note=79 velocity=0 time=0.028735625
EXTRACT: note_on channel=10 note=67 velocity=0 time=0
EXTRACT: note_on channel=4 note=43 velocity=0 time=0.12068962500000001
EXTRACT: note_on channel=9 note=39 velocity=108 time=0.0057471250000000005
EXTRACT: note_on channel=4 note=55 velocity=0 time=0.0057471250000000005
EXTRACT: note_on channel=4 note=58 velocity=0 time=0
EXTRACT: note_on channel=4 note=62 velocity=0 time=0
EXTRACT: note_on channel=4 note=67 velocity=0 time=0
EXTRACT: note_on channel=4 note=43 velocity=55 time=0
EXTRACT: note_on channel=5 note=70 velocity=0 time=0
EXTRACT: note_on channel=5 note=62 velocity=0 time=0
EXTRACT: note_on channel=5 note=67 velocity=0 time=0
EXTRACT: note_on channel=9 note=39 velocity=0 time=0
EXTRACT: note_on channel=4 note=58 velocity=71 time=0.011494250000000001
EXTRACT: note_on channel=4 note=55 velocity=63 time=0
EXTRACT: note_on channel=4 note=62 velocity=71 time=0
EXTRACT: note_on channel=4 note=67 velocity=63 time=0
EXTRACT: note_on channel=5 note=62 velocity=63 time=0
EXTRACT: note_on channel=5 note=67 velocity=69 time=0
EXTRACT: note_on channel=5 note=70 velocity=63 time=0
EXTRACT: note_on channel=6 note=67 velocity=0 time=0.09770112500000001
EXTRACT: note_on channel=3 note=65 velocity=0 time=0.011494250000000001
EXTRACT: note_on channel=0 note=62 velocity=0 time=0
EXTRACT: note_on channel=0 note=55 velocity=0 time=0.017241375000000003
EXTRACT: note_on channel=3 note=74 velocity=109 time=0
EXTRACT: note_on channel=1 note=67 velocity=93 time=0.011494250000000001
EXTRACT: note_on channel=0 note=67 velocity=0 time=0
EXTRACT: note_on channel=9 note=42 velocity=61 time=0
EXTRACT: note_on channel=9 note=42 velocity=0 time=0.0057471250000000005
EXTRACT: note_on channel=0 note=67 velocity=81 time=0.0057471250000000005
EXTRACT: note_on channel=0 note=55 velocity=81 time=0
EXTRACT: note_on channel=0 note=70 velocity=81 time=0
EXTRACT: note_on channel=0 note=62 velocity=81 time=0
EXTRACT: note_on channel=6 note=67 velocity=62 time=0
EXTRACT: note_on channel=4 note=43 velocity=0 time=0.155172375
EXTRACT: note_on channel=9 note=35 velocity=61 time=0.0057471250000000005
EXTRACT: note_on channel=9 note=37 velocity=59 time=0
EXTRACT: note_on channel=4 note=62 velocity=0 time=0.0057471250000000005
EXTRACT: note_on channel=4 note=58 velocity=0 time=0
EXTRACT: note_on channel=4 note=55 velocity=0 time=0
EXTRACT: note_on channel=4 note=67 velocity=0 time=0
EXTRACT: note_on channel=4 note=43 velocity=55 time=0
EXTRACT: note_on channel=5 note=70 velocity=0 time=0
EXTRACT: note_on channel=5 note=67 velocity=0 time=0
EXTRACT: note_on channel=5 note=62 velocity=0 time=0
EXTRACT: note_on channel=9 note=37 velocity=0 time=0
EXTRACT: note_on channel=9 note=35 velocity=0 time=0
EXTRACT: note_on channel=4 note=58 velocity=63 time=0.011494250000000001
EXTRACT: note_on channel=4 note=62 velocity=64 time=0
EXTRACT: note_on channel=4 note=55 velocity=60 time=0
EXTRACT: note_on channel=4 note=67 velocity=58 time=0
EXTRACT: note_on channel=5 note=62 velocity=57 time=0
EXTRACT: note_on channel=5 note=67 velocity=59 time=0
EXTRACT: note_on channel=5 note=70 velocity=58 time=0
EXTRACT: note_on channel=0 note=43 velocity=0 time=0.09770112500000001
EXTRACT: note_on channel=0 note=50 velocity=0 time=0.011494250000000001
EXTRACT: note_on channel=6 note=62 velocity=0 time=0.0057471250000000005
EXTRACT: note_on channel=4 note=43 velocity=0 time=0.034482750000000006
EXTRACT: note_on channel=9 note=35 velocity=67 time=0.0057471250000000005
EXTRACT: note_on channel=9 note=37 velocity=64 time=0
EXTRACT: note_on channel=9 note=42 velocity=53 time=0
EXTRACT: note_on channel=4 note=55 velocity=0 time=0.0057471250000000005
EXTRACT: note_on channel=4 note=58 velocity=0 time=0
EXTRACT: note_on channel=4 note=62 velocity=0 time=0
EXTRACT: note_on channel=4 note=67 velocity=0 time=0
EXTRACT: note_on channel=4 note=43 velocity=55 time=0
EXTRACT: note_on channel=5 note=70 velocity=0 time=0
EXTRACT: note_on channel=5 note=67 velocity=0 time=0
EXTRACT: note_on channel=5 note=62 velocity=0 time=0
EXTRACT: note_on channel=9 note=42 velocity=0 time=0
EXTRACT: note_on channel=9 note=37 velocity=0 time=0
EXTRACT: note_on channel=9 note=35 velocity=0 time=0
EXTRACT: note_on channel=0 note=43 velocity=64 time=0.0057471250000000005
EXTRACT: note_on channel=6 note=62 velocity=53 time=0
EXTRACT: note_on channel=0 note=50 velocity=45 time=0.0057471250000000005
EXTRACT: note_on channel=4 note=58 velocity=65 time=0
EXTRACT: note_on channel=4 note=55 velocity=58 time=0
EXTRACT: note_on channel=4 note=62 velocity=71 time=0
EXTRACT: note_on channel=4 note=67 velocity=60 time=0
EXTRACT: note_on channel=5 note=62 velocity=59 time=0
EXTRACT: note_on channel=5 note=67 velocity=67 time=0
EXTRACT: note_on channel=5 note=70 velocity=65 time=0
EXTRACT: note_on channel=3 note=74 velocity=0 time=0.06896550000000001
EXTRACT: note_on channel=1 note=67 velocity=0 time=0.011494250000000001
EXTRACT: note_on channel=3 note=67 velocity=106 time=0
EXTRACT: note_on channel=0 note=55 velocity=0 time=0.10919537500000001
EXTRACT: note_on channel=6 note=67 velocity=0 time=0.040229875000000005
EXTRACT: note_on channel=0 note=58 velocity=0 time=0.0057471250000000005
EXTRACT: note_on channel=4 note=43 velocity=0 time=0.017241375000000003
EXTRACT: note_on channel=9 note=40 velocity=81 time=0.0057471250000000005
EXTRACT: note_on channel=9 note=39 velocity=114 time=0
EXTRACT: note_on channel=9 note=42 velocity=67 time=0
EXTRACT: note_on channel=4 note=62 velocity=0 time=0.0057471250000000005
EXTRACT: note_on channel=4 note=58 velocity=0 time=0
EXTRACT: note_on channel=4 note=55 velocity=0 time=0
EXTRACT: note_on channel=4 note=67 velocity=0 time=0
EXTRACT: note_on channel=4 note=43 velocity=55 time=0
EXTRACT: note_on channel=5 note=70 velocity=0 time=0
EXTRACT: note_on channel=5 note=67 velocity=0 time=0
EXTRACT: note_on channel=5 note=62 velocity=0 time=0
EXTRACT: note_on channel=9 note=42 velocity=0 time=0
EXTRACT: note_on channel=9 note=39 velocity=0 time=0
EXTRACT: note_on channel=9 note=40 velocity=0 time=0
EXTRACT: note_on channel=0 note=70 velocity=0 time=0.0057471250000000005
EXTRACT: note_on channel=0 note=55 velocity=78 time=0
EXTRACT: note_on channel=6 note=67 velocity=64 time=0
EXTRACT: note_on channel=4 note=58 velocity=70 time=0.0057471250000000005
EXTRACT: note_on channel=4 note=55 velocity=63 time=0
EXTRACT: note_on channel=4 note=62 velocity=69 time=0
EXTRACT: note_on channel=4 note=67 velocity=63 time=0
EXTRACT: note_on channel=5 note=67 velocity=69 time=0
EXTRACT: note_on channel=5 note=62 velocity=65 time=0
EXTRACT: note_on channel=5 note=70 velocity=66 time=0
EXTRACT: note_on channel=6 note=65 velocity=0 time=0
EXTRACT: note_on channel=4 note=43 velocity=0 time=0.14942525
EXTRACT: note_on channel=9 note=35 velocity=61 time=0.0057471250000000005
EXTRACT: note_on channel=4 note=62 velocity=0 time=0.0057471250000000005
EXTRACT: note_on channel=4 note=58 velocity=0 time=0
EXTRACT: note_on channel=4 note=55 velocity=0 time=0
EXTRACT: note_on channel=4 note=67 velocity=0 time=0
EXTRACT: note_on channel=4 note=43 velocity=55 time=0
EXTRACT: note_on channel=5 note=70 velocity=0 time=0
EXTRACT: note_on channel=5 note=62 velocity=0 time=0
EXTRACT: note_on channel=5 note=67 velocity=0 time=0
EXTRACT: note_on channel=9 note=35 velocity=0 time=0
EXTRACT: note_on channel=0 note=70 velocity=100 time=0.0057471250000000005
EXTRACT: note_on channel=4 note=58 velocity=65 time=0.0057471250000000005
EXTRACT: note_on channel=4 note=62 velocity=67 time=0
EXTRACT: note_on channel=4 note=55 velocity=57 time=0
EXTRACT: note_on channel=4 note=67 velocity=58 time=0
EXTRACT: note_on channel=5 note=62 velocity=48 time=0
EXTRACT: note_on channel=5 note=67 velocity=66 time=0
EXTRACT: note_on channel=5 note=70 velocity=63 time=0
EXTRACT: note_on channel=3 note=67 velocity=0 time=0.06896550000000001
EXTRACT: note_on channel=0 note=62 velocity=0 time=0.045977000000000004
EXTRACT: note_on channel=3 note=65 velocity=109 time=0
EXTRACT: note_on channel=4 note=43 velocity=0 time=0.0057471250000000005
EXTRACT: note_on channel=9 note=40 velocity=65 time=0.0057471250000000005
EXTRACT: note_on channel=9 note=42 velocity=51 time=0
EXTRACT: note_on channel=9 note=28 velocity=51 time=0
EXTRACT: note_on channel=4 note=55 velocity=0 time=0.0057471250000000005
EXTRACT: note_on channel=4 note=58 velocity=0 time=0
EXTRACT: note_on channel=4 note=62 velocity=0 time=0
EXTRACT: note_on channel=4 note=67 velocity=0 time=0
EXTRACT: note_on channel=4 note=43 velocity=55 time=0
EXTRACT: note_on channel=5 note=70 velocity=0 time=0
EXTRACT: note_on channel=5 note=67 velocity=0 time=0
EXTRACT: note_on channel=5 note=62 velocity=0 time=0
EXTRACT: note_on channel=9 note=28 velocity=0 time=0
EXTRACT: note_on channel=9 note=42 velocity=0 time=0
EXTRACT: note_on channel=9 note=40 velocity=0 time=0
EXTRACT: note_on channel=0 note=62 velocity=78 time=0.0057471250000000005
EXTRACT: note_on channel=6 note=65 velocity=58 time=0
EXTRACT: note_on channel=4 note=58 velocity=68 time=0.0057471250000000005
EXTRACT: note_on channel=4 note=55 velocity=63 time=0
EXTRACT: note_on channel=4 note=62 velocity=69 time=0
EXTRACT: note_on channel=4 note=67 velocity=61 time=0
EXTRACT: note_on channel=5 note=62 velocity=55 time=0
EXTRACT: note_on channel=5 note=67 velocity=67 time=0
EXTRACT: note_on channel=5 note=70 velocity=63 time=0
EXTRACT: note_on channel=4 note=43 velocity=0 time=0.14942525
EXTRACT: note_on channel=4 note=62 velocity=0 time=0.011494250000000001
EXTRACT: note_on channel=4 note=58 velocity=0 time=0
EXTRACT: note_on channel=4 note=55 velocity=0 time=0
EXTRACT: note_on channel=4 note=67 velocity=0 time=0
EXTRACT: note_on channel=4 note=43 velocity=55 time=0
EXTRACT: note_on channel=5 note=70 velocity=0 time=0
EXTRACT: note_on channel=5 note=67 velocity=0 time=0
EXTRACT: note_on channel=5 note=62 velocity=0 time=0
EXTRACT: note_on channel=4 note=58 velocity=59 time=0.011494250000000001
EXTRACT: note_on channel=4 note=67 velocity=59 time=0
EXTRACT: note_on channel=4 note=55 velocity=59 time=0
EXTRACT: note_on channel=4 note=62 velocity=59 time=0
EXTRACT: note_on channel=5 note=62 velocity=63 time=0
EXTRACT: note_on channel=5 note=67 velocity=63 time=0
EXTRACT: note_on channel=5 note=70 velocity=63 time=0
EXTRACT: note_on channel=6 note=62 velocity=0 time=0.09195400000000001
EXTRACT: note_on channel=2 note=31 velocity=0 time=0.011494250000000001
EXTRACT: note_on channel=8 note=79 velocity=0 time=0.011494250000000001
EXTRACT: note_on channel=8 note=70 velocity=0 time=0
EXTRACT: note_on channel=0 note=55 velocity=0 time=0.017241375000000003
EXTRACT: note_on channel=6 note=67 velocity=0 time=0
EXTRACT: note_on channel=0 note=50 velocity=0 time=0.011494250000000001
EXTRACT: note_on channel=0 note=62 velocity=0 time=0.0057471250000000005
EXTRACT: note_on channel=4 note=43 velocity=0 time=0
EXTRACT: note_on channel=2 note=27 velocity=96 time=0.0057471250000000005
EXTRACT: note_on channel=6 note=67 velocity=62 time=0
EXTRACT: note_on channel=9 note=36 velocity=114 time=0
EXTRACT: note_on channel=9 note=41 velocity=110 time=0
EXTRACT: note_on channel=9 note=46 velocity=81 time=0
EXTRACT: note_on channel=4 note=55 velocity=0 time=0.0057471250000000005
EXTRACT: note_on channel=4 note=58 velocity=0 time=0
EXTRACT: note_on channel=4 note=67 velocity=0 time=0
EXTRACT: note_on channel=4 note=62 velocity=0 time=0
EXTRACT: note_on channel=4 note=39 velocity=55 time=0
EXTRACT: note_on channel=5 note=70 velocity=0 time=0
EXTRACT: note_on channel=5 note=67 velocity=0 time=0
EXTRACT: note_on channel=5 note=62 velocity=0 time=0
EXTRACT: note_on channel=6 note=65 velocity=0 time=0
EXTRACT: note_on channel=9 note=46 velocity=0 time=0
EXTRACT: note_on channel=9 note=41 velocity=0 time=0
EXTRACT: note_on channel=9 note=36 velocity=0 time=0
EXTRACT: note_on channel=0 note=58 velocity=74 time=0.0057471250000000005
EXTRACT: note_on channel=0 note=63 velocity=67 time=0
EXTRACT: note_on channel=0 note=51 velocity=81 time=0
EXTRACT: note_on channel=5 note=70 velocity=65 time=0
EXTRACT: note_on channel=8 note=74 velocity=0 time=0
EXTRACT: note_on channel=8 note=70 velocity=62 time=0
EXTRACT: note_on channel=8 note=79 velocity=65 time=0
EXTRACT: note_on channel=8 note=75 velocity=63 time=0
EXTRACT: note_on channel=0 note=39 velocity=72 time=0.0057471250000000005
EXTRACT: note_on channel=4 note=63 velocity=64 time=0
EXTRACT: note_on channel=4 note=67 velocity=63 time=0
EXTRACT: note_on channel=4 note=58 velocity=65 time=0
EXTRACT: note_on channel=4 note=55 velocity=64 time=0
EXTRACT: note_on channel=5 note=65 velocity=74 time=0
EXTRACT: note_on channel=0 note=67 velocity=0 time=0.0057471250000000005
EXTRACT: note_on channel=0 note=43 velocity=0 time=0
EXTRACT: note_on channel=3 note=65 velocity=0 time=0.2068965
EXTRACT: note_on channel=4 note=39 velocity=0 time=0.10919537500000001
EXTRACT: note_on channel=5 note=70 velocity=0 time=0.0057471250000000005
EXTRACT: note_on channel=9 note=35 velocity=68 time=0
EXTRACT: note_on channel=9 note=38 velocity=68 time=0
EXTRACT: note_on channel=9 note=42 velocity=54 time=0
EXTRACT: note_on channel=4 note=58 velocity=0 time=0.0057471250000000005
EXTRACT: note_on channel=4 note=63 velocity=0 time=0
EXTRACT: note_on channel=4 note=67 velocity=0 time=0
EXTRACT: note_on channel=4 note=55 velocity=0 time=0
EXTRACT: note_on channel=4 note=39 velocity=55 time=0
EXTRACT: note_on channel=5 note=65 velocity=0 time=0
EXTRACT: note_on channel=9 note=42 velocity=0 time=0
EXTRACT: note_on channel=9 note=38 velocity=0 time=0
EXTRACT: note_on channel=9 note=35 velocity=0 time=0
EXTRACT: note_on channel=0 note=46 velocity=72 time=0.0057471250000000005
EXTRACT: note_on channel=6 note=63 velocity=56 time=0
EXTRACT: note_on channel=4 note=58 velocity=61 time=0.0057471250000000005
EXTRACT: note_on channel=4 note=63 velocity=63 time=0
EXTRACT: note_on channel=4 note=55 velocity=58 time=0
EXTRACT: note_on channel=4 note=67 velocity=56 time=0
EXTRACT: note_on channel=5 note=65 velocity=73 time=0
EXTRACT: note_on channel=5 note=70 velocity=63 time=0
EXTRACT: note_on channel=9 note=35 velocity=63 time=0.155172375
EXTRACT: note_on channel=9 note=35 velocity=0 time=0.0057471250000000005
EXTRACT: note_on channel=0 note=51 velocity=0 time=0.10344825
EXTRACT: note_on channel=6 note=67 velocity=0 time=0.045977000000000004
EXTRACT: note_on channel=4 note=39 velocity=0 time=0.011494250000000001
EXTRACT: note_on channel=9 note=40 velocity=77 time=0.0057471250000000005
EXTRACT: note_on channel=9 note=39 velocity=110 time=0
EXTRACT: note_on channel=9 note=42 velocity=64 time=0
EXTRACT: note_on channel=4 note=55 velocity=0 time=0.0057471250000000005
EXTRACT: note_on channel=4 note=58 velocity=0 time=0
EXTRACT: note_on channel=4 note=63 velocity=0 time=0
EXTRACT: note_on channel=4 note=67 velocity=0 time=0
EXTRACT: note_on channel=4 note=39 velocity=55 time=0
EXTRACT: note_on channel=5 note=70 velocity=0 time=0
EXTRACT: note_on channel=5 note=65 velocity=0 time=0
EXTRACT: note_on channel=9 note=42 velocity=0 time=0
EXTRACT: note_on channel=9 note=39 velocity=0 time=0
EXTRACT: note_on channel=9 note=40 velocity=0 time=0
EXTRACT: note_on channel=0 note=70 velocity=0 time=0.0057471250000000005
EXTRACT: note_on channel=0 note=51 velocity=74 time=0
EXTRACT: note_on channel=6 note=67 velocity=64 time=0
EXTRACT: note_on channel=4 note=58 velocity=65 time=0.0057471250000000005
EXTRACT: note_on channel=4 note=67 velocity=65 time=0
EXTRACT: note_on channel=4 note=63 velocity=67 time=0
EXTRACT: note_on channel=4 note=55 velocity=62 time=0
EXTRACT: note_on channel=5 note=67 velocity=74 time=0
EXTRACT: note_on channel=5 note=70 velocity=76 time=0
EXTRACT: note_on channel=9 note=37 velocity=57 time=0.155172375
EXTRACT: note_on channel=9 note=37 velocity=0 time=0.0057471250000000005
EXTRACT: note_on channel=0 note=63 velocity=0 time=0.10344825
EXTRACT: note_on channel=0 note=58 velocity=0 time=0.0057471250000000005
EXTRACT: note_on channel=4 note=39 velocity=0 time=0.051724125
EXTRACT: note_on channel=5 note=67 velocity=0 time=0
EXTRACT: note_on channel=9 note=40 velocity=65 time=0.0057471250000000005
EXTRACT: note_on channel=9 note=42 velocity=51 time=0
EXTRACT: note_on channel=4 note=63 velocity=0 time=0.0057471250000000005
EXTRACT: note_on channel=4 note=58 velocity=0 time=0
EXTRACT: note_on channel=4 note=67 velocity=0 time=0
EXTRACT: note_on channel=4 note=55 velocity=0 time=0
EXTRACT: note_on channel=4 note=39 velocity=55 time=0
EXTRACT: note_on channel=5 note=70 velocity=0 time=0
EXTRACT: note_on channel=9 note=42 velocity=0 time=0
EXTRACT: note_on channel=9 note=40 velocity=0 time=0
EXTRACT: note_on channel=0 note=63 velocity=73 time=0.0057471250000000005
EXTRACT: note_on channel=0 note=58 velocity=79 time=0
EXTRACT: note_on channel=0 note=67 velocity=73 time=0
EXTRACT: note_on channel=6 note=65 velocity=55 time=0
EXTRACT: note_on channel=4 note=58 velocity=59 time=0.0057471250000000005
EXTRACT: note_on channel=4 note=63 velocity=61 time=0
EXTRACT: note_on channel=4 note=67 velocity=58 time=0
EXTRACT: note_on channel=4 note=55 velocity=57 time=0
EXTRACT: note_on channel=5 note=65 velocity=67 time=0
EXTRACT: note_on channel=5 note=70 velocity=67 time=0
EXTRACT: note_on channel=3 note=58 velocity=83 time=0
EXTRACT: note_on channel=4 note=39 velocity=0 time=0.0057471250000000005
EXTRACT: note_on channel=9 note=39 velocity=110 time=0.0057471250000000005
EXTRACT: note_on channel=4 note=67 velocity=0 time=0.0057471250000000005
EXTRACT: note_on channel=4 note=58 velocity=0 time=0
EXTRACT: note_on channel=4 note=63 velocity=0 time=0
EXTRACT: note_on channel=4 note=55 velocity=0 time=0
EXTRACT: note_on channel=4 note=39 velocity=55 time=0
EXTRACT: note_on channel=5 note=70 velocity=0 time=0
EXTRACT: note_on channel=5 note=65 velocity=0 time=0
EXTRACT: note_on channel=9 note=39 velocity=0 time=0
EXTRACT: note_on channel=4 note=58 velocity=67 time=0.011494250000000001
EXTRACT: note_on channel=4 note=55 velocity=61 time=0
EXTRACT: note_on channel=4 note=63 velocity=65 time=0
EXTRACT: note_on channel=4 note=67 velocity=59 time=0
EXTRACT: note_on channel=5 note=70 velocity=75 time=0
EXTRACT: note_on channel=5 note=67 velocity=75 time=0
EXTRACT: note_on channel=6 note=67 velocity=0 time=0.09770112500000001
EXTRACT: note_on channel=3 note=58 velocity=0 time=0.011494250000000001
EXTRACT: note_on channel=3 note=63 velocity=108 time=0
EXTRACT: note_on channel=1 note=67 velocity=93 time=0.011494250000000001
EXTRACT: note_on channel=9 note=42 velocity=64 time=0
EXTRACT: note_on channel=9 note=42 velocity=0 time=0.0057471250000000005
EXTRACT: note_on channel=6 note=67 velocity=62 time=0.0057471250000000005
EXTRACT: note_on channel=4 note=39 velocity=0 time=0.155172375
EXTRACT: note_on channel=9 note=35 velocity=62 time=0.0057471250000000005
EXTRACT: note_on channel=9 note=37 velocity=59 time=0
EXTRACT: note_on channel=4 note=63 velocity=0 time=0.0057471250000000005
EXTRACT: note_on channel=4 note=58 velocity=0 time=0
EXTRACT: note_on channel=4 note=55 velocity=0 time=0
EXTRACT: note_on channel=4 note=67 velocity=0 time=0
EXTRACT: note_on channel=4 note=39 velocity=55 time=0
EXTRACT: note_on channel=5 note=67 velocity=0 time=0
EXTRACT: note_on channel=5 note=70 velocity=0 time=0
EXTRACT: note_on channel=9 note=37 velocity=0 time=0
EXTRACT: note_on channel=9 note=35 velocity=0 time=0
EXTRACT: note_on channel=4 note=58 velocity=61 time=0.011494250000000001
EXTRACT: note_on channel=4 note=67 velocity=59 time=0
EXTRACT: note_on channel=4 note=63 velocity=61 time=0
EXTRACT: note_on channel=4 note=55 velocity=58 time=0
EXTRACT: note_on channel=5 note=65 velocity=70 time=0
EXTRACT: note_on channel=5 note=70 velocity=67 time=0
EXTRACT: note_on channel=0 note=51 velocity=0 time=0.08045975000000001
EXTRACT: note_on channel=3 note=63 velocity=0 time=0.0057471250000000005
EXTRACT: note_on channel=1 note=67 velocity=0 time=0.011494250000000001
EXTRACT: note_on channel=6 note=63 velocity=0 time=0.017241375000000003
EXTRACT: note_on channel=3 note=63 velocity=109 time=0
EXTRACT: note_on channel=4 note=39 velocity=0 time=0.0057471250000000005
EXTRACT: note_on channel=10 note=67 velocity=85 time=0
EXTRACT: note_on channel=10 note=79 velocity=83 time=0
EXTRACT: note_on channel=1 note=67 velocity=93 time=0.0057471250000000005
EXTRACT: note_on channel=9 note=35 velocity=65 time=0
EXTRACT: note_on channel=9 note=37 velocity=63 time=0
EXTRACT: note_on channel=9 note=42 velocity=52 time=0
EXTRACT: note_on channel=0 note=51 velocity=62 time=0.0057471250000000005
EXTRACT: note_on channel=4 note=63 velocity=0 time=0
EXTRACT: note_on channel=4 note=58 velocity=0 time=0
EXTRACT: note_on channel=4 note=67 velocity=0 time=0
EXTRACT: note_on channel=4 note=55 velocity=0 time=0
EXTRACT: note_on channel=4 note=39 velocity=55 time=0
EXTRACT: note_on channel=5 note=70 velocity=0 time=0
EXTRACT: note_on channel=5 note=65 velocity=0 time=0
EXTRACT: note_on channel=9 note=42 velocity=0 time=0
EXTRACT: note_on channel=9 note=37 velocity=0 time=0
EXTRACT: note_on channel=9 note=35 velocity=0 time=0
EXTRACT: note_on channel=6 note=63 velocity=53 time=0.0057471250000000005
EXTRACT: note_on channel=4 note=58 velocity=68 time=0.0057471250000000005
EXTRACT: note_on channel=4 note=67 velocity=65 time=0
EXTRACT: note_on channel=4 note=63 velocity=68 time=0
EXTRACT: note_on channel=4 note=55 velocity=60 time=0
EXTRACT: note_on channel=5 note=65 velocity=81 time=0
EXTRACT: note_on channel=5 note=70 velocity=74 time=0
EXTRACT: note_on channel=10 note=79 velocity=0 time=0.18390800000000002
EXTRACT: note_on channel=10 note=67 velocity=0 time=0.011494250000000001
EXTRACT: note_on channel=0 note=58 velocity=0 time=0.034482750000000006
EXTRACT: note_on channel=6 note=67 velocity=0 time=0.06896550000000001
EXTRACT: note_on channel=4 note=39 velocity=0 time=0.022988500000000002
EXTRACT: note_on channel=10 note=67 velocity=77 time=0
EXTRACT: note_on channel=10 note=79 velocity=81 time=0
EXTRACT: note_on channel=9 note=40 velocity=75 time=0.0057471250000000005
EXTRACT: note_on channel=9 note=39 velocity=109 time=0
EXTRACT: note_on channel=9 note=42 velocity=62 time=0
EXTRACT: note_on channel=4 note=63 velocity=0 time=0.0057471250000000005
EXTRACT: note_on channel=4 note=58 velocity=0 time=0
EXTRACT: note_on channel=4 note=67 velocity=0 time=0
EXTRACT: note_on channel=4 note=55 velocity=0 time=0
EXTRACT: note_on channel=4 note=39 velocity=55 time=0
EXTRACT: note_on channel=5 note=70 velocity=0 time=0
EXTRACT: note_on channel=5 note=65 velocity=0 time=0
EXTRACT: note_on channel=9 note=42 velocity=0 time=0
EXTRACT: note_on channel=9 note=39 velocity=0 time=0
EXTRACT: note_on channel=9 note=40 velocity=0 time=0
EXTRACT: note_on channel=6 note=67 velocity=64 time=0.0057471250000000005
EXTRACT: note_on channel=0 note=58 velocity=69 time=0.0057471250000000005
EXTRACT: note_on channel=4 note=67 velocity=65 time=0
EXTRACT: note_on channel=4 note=58 velocity=69 time=0
EXTRACT: note_on channel=4 note=63 velocity=69 time=0
EXTRACT: note_on channel=4 note=55 velocity=63 time=0
EXTRACT: note_on channel=5 note=70 velocity=66 time=0
EXTRACT: note_on channel=5 note=65 velocity=66 time=0
EXTRACT: note_on channel=6 note=65 velocity=0 time=0
EXTRACT: note_on channel=4 note=39 velocity=0 time=0.14942525
EXTRACT: note_on channel=9 note=35 velocity=62 time=0.0057471250000000005
EXTRACT: note_on channel=4 note=63 velocity=0 time=0.0057471250000000005
EXTRACT: note_on channel=4 note=67 velocity=0 time=0
EXTRACT: note_on channel=4 note=58 velocity=0 time=0
EXTRACT: note_on channel=4 note=55 velocity=0 time=0
EXTRACT: note_on channel=4 note=39 velocity=55 time=0
EXTRACT: note_on channel=5 note=65 velocity=0 time=0
EXTRACT: note_on channel=5 note=70 velocity=0 time=0
EXTRACT: note_on channel=9 note=35 velocity=0 time=0
EXTRACT: note_on channel=10 note=79 velocity=0 time=0.0057471250000000005
EXTRACT: note_on channel=4 note=58 velocity=67 time=0.0057471250000000005
EXTRACT: note_on channel=4 note=63 velocity=67 time=0
EXTRACT: note_on channel=4 note=67 velocity=60 time=0
EXTRACT: note_on channel=4 note=55 velocity=61 time=0
EXTRACT: note_on channel=5 note=65 velocity=64 time=0
EXTRACT: note_on channel=5 note=70 velocity=69 time=0
EXTRACT: note_on channel=10 note=67 velocity=0 time=0
EXTRACT: note_on channel=3 note=63 velocity=0 time=0.05747125
EXTRACT: note_on channel=1 note=67 velocity=0 time=0.011494250000000001
EXTRACT: note_on channel=3 note=63 velocity=107 time=0
EXTRACT: note_on channel=4 note=39 velocity=0 time=0.0057471250000000005
EXTRACT: note_on channel=1 note=67 velocity=93 time=0.0057471250000000005
EXTRACT: note_on channel=9 note=38 velocity=66 time=0
EXTRACT: note_on channel=9 note=40 velocity=66 time=0
EXTRACT: note_on channel=9 note=42 velocity=52 time=0
EXTRACT: note_on channel=9 note=28 velocity=52 time=0
EXTRACT: note_on channel=4 note=67 velocity=0 time=0.0057471250000000005
EXTRACT: note_on channel=4 note=58 velocity=0 time=0
EXTRACT: note_on channel=4 note=63 velocity=0 time=0
EXTRACT: note_on channel=4 note=55 velocity=0 time=0
EXTRACT: note_on channel=4 note=39 velocity=55 time=0
EXTRACT: note_on channel=5 note=70 velocity=0 time=0
EXTRACT: note_on channel=5 note=65 velocity=0 time=0
EXTRACT: note_on channel=10 note=79 velocity=86 time=0
EXTRACT: note_on channel=10 note=67 velocity=85 time=0
EXTRACT: note_on channel=9 note=28 velocity=0 time=0
EXTRACT: note_on channel=9 note=38 velocity=0 time=0
EXTRACT: note_on channel=9 note=40 velocity=0 time=0
EXTRACT: note_on channel=9 note=42 velocity=0 time=0
EXTRACT: note_on channel=6 note=65 velocity=58 time=0.0057471250000000005
EXTRACT: note_on channel=4 note=58 velocity=66 time=0.0057471250000000005
EXTRACT: note_on channel=4 note=67 velocity=60 time=0
EXTRACT: note_on channel=4 note=63 velocity=69 time=0
EXTRACT: note_on channel=4 note=55 velocity=60 time=0
EXTRACT: note_on channel=5 note=65 velocity=70 time=0
EXTRACT: note_on channel=5 note=70 velocity=68 time=0
EXTRACT: note_on channel=4 note=39 velocity=0 time=0.14942525
EXTRACT: note_on channel=9 note=36 velocity=110 time=0.0057471250000000005
EXTRACT: note_on channel=4 note=63 velocity=0 time=0.0057471250000000005
EXTRACT: note_on channel=4 note=58 velocity=0 time=0
EXTRACT: note_on channel=4 note=67 velocity=0 time=0
EXTRACT: note_on channel=4 note=55 velocity=0 time=0
EXTRACT: note_on channel=4 note=39 velocity=55 time=0
EXTRACT: note_on channel=5 note=70 velocity=0 time=0
EXTRACT: note_on channel=5 note=65 velocity=0 time=0
EXTRACT: note_on channel=9 note=36 velocity=0 time=0
EXTRACT: note_on channel=4 note=67 velocity=57 time=0.011494250000000001
EXTRACT: note_on channel=4 note=58 velocity=57 time=0
EXTRACT: note_on channel=4 note=55 velocity=57 time=0
EXTRACT: note_on channel=4 note=63 velocity=57 time=0
EXTRACT: note_on channel=5 note=65 velocity=63 time=0
EXTRACT: note_on channel=5 note=70 velocity=63 time=0
EXTRACT: note_on channel=10 note=79 velocity=0 time=0.040229875000000005
EXTRACT: note_on channel=10 note=67 velocity=0 time=0.017241375000000003
EXTRACT: note_on channel=2 note=27 velocity=0 time=0.022988500000000002
EXTRACT: note_on channel=6 note=63 velocity=0 time=0.011494250000000001
EXTRACT: note_on channel=0 note=46 velocity=0 time=0.0057471250000000005
EXTRACT: note_on channel=0 note=51 velocity=0 time=0
EXTRACT: note_on channel=0 note=58 velocity=0 time=0.0057471250000000005
EXTRACT: note_on channel=8 note=70 velocity=0 time=0.011494250000000001
EXTRACT: note_on channel=0 note=39 velocity=0 time=0.0057471250000000005
EXTRACT: note_on channel=0 note=67 velocity=0 time=0.011494250000000001
EXTRACT: note_on channel=0 note=63 velocity=0 time=0
EXTRACT: note_on channel=6 note=67 velocity=0 time=0
EXTRACT: note_on channel=8 note=79 velocity=0 time=0
EXTRACT: note_on channel=6 note=65 velocity=0 time=0.0057471250000000005
EXTRACT: note_on channel=4 note=39 velocity=0 time=0.011494250000000001
EXTRACT: note_on channel=8 note=75 velocity=0 time=0
EXTRACT: note_on channel=2 note=34 velocity=96 time=0.0057471250000000005
EXTRACT: note_on channel=6 note=67 velocity=62 time=0
EXTRACT: note_on channel=8 note=77 velocity=59 time=0
EXTRACT: note_on channel=8 note=74 velocity=73 time=0
EXTRACT: note_on channel=8 note=70 velocity=59 time=0
EXTRACT: note_on channel=9 note=36 velocity=113 time=0
EXTRACT: note_on channel=9 note=41 velocity=110 time=0
EXTRACT: note_on channel=9 note=46 velocity=80 time=0
EXTRACT: note_on channel=4 note=55 velocity=0 time=0.0057471250000000005
EXTRACT: note_on channel=4 note=67 velocity=0 time=0
EXTRACT: note_on channel=4 note=58 velocity=0 time=0
EXTRACT: note_on channel=4 note=63 velocity=0 time=0
EXTRACT: note_on channel=4 note=46 velocity=55 time=0
EXTRACT: note_on channel=5 note=70 velocity=0 time=0
EXTRACT: note_on channel=5 note=65 velocity=0 time=0
EXTRACT: note_on channel=10 note=77 velocity=92 time=0
EXTRACT: note_on channel=10 note=65 velocity=92 time=0
EXTRACT: note_on channel=9 note=46 velocity=0 time=0
EXTRACT: note_on channel=9 note=41 velocity=0 time=0
EXTRACT: note_on channel=9 note=36 velocity=0 time=0
EXTRACT: note_on channel=0 note=46 velocity=79 time=0.0057471250000000005
EXTRACT: note_on channel=0 note=70 velocity=76 time=0
EXTRACT: note_on channel=0 note=65 velocity=76 time=0.0057471250000000005
EXTRACT: note_on channel=4 note=58 velocity=74 time=0
EXTRACT: note_on channel=4 note=62 velocity=69 time=0
EXTRACT: note_on channel=4 note=65 velocity=66 time=0
EXTRACT: note_on channel=4 note=53 velocity=66 time=0
EXTRACT: note_on channel=5 note=65 velocity=74 time=0
EXTRACT: note_on channel=5 note=70 velocity=63 time=0
EXTRACT: note_on channel=3 note=63 velocity=0 time=0.25287350000000003
EXTRACT: note_on channel=1 note=67 velocity=0 time=0.011494250000000001
EXTRACT: note_on channel=3 note=62 velocity=83 time=0
EXTRACT: note_on channel=4 note=46 velocity=0 time=0.0057471250000000005
EXTRACT: note_on channel=1 note=65 velocity=83 time=0.0057471250000000005
EXTRACT: note_on channel=9 note=35 velocity=64 time=0
EXTRACT: note_on channel=9 note=38 velocity=64 time=0
EXTRACT: note_on channel=9 note=42 velocity=50 time=0
EXTRACT: note_on channel=4 note=65 velocity=0 time=0.0057471250000000005
EXTRACT: note_on channel=4 note=58 velocity=0 time=0
EXTRACT: note_on channel=4 note=62 velocity=0 time=0
EXTRACT: note_on channel=4 note=53 velocity=0 time=0
EXTRACT: note_on channel=4 note=46 velocity=55 time=0
EXTRACT: note_on channel=5 note=70 velocity=0 time=0
EXTRACT: note_on channel=5 note=65 velocity=0 time=0
EXTRACT: note_on channel=9 note=42 velocity=0 time=0
EXTRACT: note_on channel=9 note=38 velocity=0 time=0
EXTRACT: note_on channel=9 note=35 velocity=0 time=0
EXTRACT: note_on channel=6 note=62 velocity=56 time=0.0057471250000000005
EXTRACT: note_on channel=0 note=53 velocity=76 time=0.0057471250000000005
EXTRACT: note_on channel=4 note=53 velocity=60 time=0
EXTRACT: note_on channel=4 note=58 velocity=61 time=0
EXTRACT: note_on channel=4 note=62 velocity=61 time=0
EXTRACT: note_on channel=4 note=65 velocity=59 time=0
EXTRACT: note_on channel=5 note=70 velocity=62 time=0
EXTRACT: note_on channel=5 note=65 velocity=64 time=0
EXTRACT: note_on channel=3 note=62 velocity=0 time=0.12068962500000001
EXTRACT: note_on channel=1 note=65 velocity=0 time=0.011494250000000001
EXTRACT: note_on channel=3 note=62 velocity=105 time=0
EXTRACT: note_on channel=9 note=35 velocity=64 time=0
EXTRACT: note_on channel=1 note=65 velocity=93 time=0.0057471250000000005
EXTRACT: note_on channel=9 note=35 velocity=0 time=0
EXTRACT: note_on channel=6 note=67 velocity=0 time=0.14942525
EXTRACT: note_on channel=4 note=46 velocity=0 time=0.011494250000000001
EXTRACT: note_on channel=9 note=40 velocity=78 time=0.0057471250000000005
EXTRACT: note_on channel=9 note=39 velocity=111 time=0
EXTRACT: note_on channel=9 note=42 velocity=64 time=0
EXTRACT: note_on channel=4 note=62 velocity=0 time=0.0057471250000000005
EXTRACT: note_on channel=4 note=53 velocity=0 time=0
EXTRACT: note_on channel=4 note=58 velocity=0 time=0
EXTRACT: note_on channel=4 note=65 velocity=0 time=0
EXTRACT: note_on channel=4 note=46 velocity=55 time=0
EXTRACT: note_on channel=5 note=65 velocity=0 time=0
EXTRACT: note_on channel=5 note=70 velocity=0 time=0
EXTRACT: note_on channel=9 note=42 velocity=0 time=0
EXTRACT: note_on channel=9 note=39 velocity=0 time=0
EXTRACT: note_on channel=9 note=40 velocity=0 time=0
EXTRACT: note_on channel=0 note=62 velocity=55 time=0.0057471250000000005
EXTRACT: note_on channel=5 note=65 velocity=74 time=0
EXTRACT: note_on channel=6 note=67 velocity=64 time=0
EXTRACT: note_on channel=4 note=58 velocity=65 time=0.0057471250000000005
EXTRACT: note_on channel=4 note=53 velocity=64 time=0
EXTRACT: note_on channel=4 note=62 velocity=67 time=0
EXTRACT: note_on channel=4 note=65 velocity=63 time=0
EXTRACT: note_on channel=5 note=70 velocity=65 time=0
EXTRACT: note_on channel=10 note=65 velocity=0 time=0.045977000000000004
EXTRACT: note_on channel=10 note=77 velocity=0 time=0
EXTRACT: note_on channel=9 note=37 velocity=57 time=0.10919537500000001
EXTRACT: note_on channel=9 note=37 velocity=0 time=0.0057471250000000005
EXTRACT: note_on channel=0 note=65 velocity=0 time=0.10344825
EXTRACT: note_on channel=3 note=62 velocity=0 time=0.011494250000000001
EXTRACT: note_on channel=1 note=65 velocity=0 time=0.0057471250000000005
EXTRACT: note_on channel=3 note=63 velocity=84 time=0
EXTRACT: note_on channel=4 note=46 velocity=0 time=0.0057471250000000005
EXTRACT: note_on channel=1 note=67 velocity=85 time=0.0057471250000000005
EXTRACT: note_on channel=5 note=65 velocity=0 time=0
EXTRACT: note_on channel=9 note=40 velocity=67 time=0
EXTRACT: note_on channel=9 note=42 velocity=53 time=0
EXTRACT: note_on channel=4 note=62 velocity=0 time=0.0057471250000000005
EXTRACT: note_on channel=4 note=58 velocity=0 time=0
EXTRACT: note_on channel=4 note=53 velocity=0 time=0
EXTRACT: note_on channel=4 note=65 velocity=0 time=0
EXTRACT: note_on channel=4 note=46 velocity=55 time=0
EXTRACT: note_on channel=5 note=70 velocity=0 time=0
EXTRACT: note_on channel=5 note=70 velocity=61 time=0
EXTRACT: note_on channel=5 note=65 velocity=64 time=0
EXTRACT: note_on channel=9 note=42 velocity=0 time=0
EXTRACT: note_on channel=9 note=40 velocity=0 time=0
EXTRACT: note_on channel=0 note=65 velocity=64 time=0.0057471250000000005
EXTRACT: note_on channel=6 note=65 velocity=55 time=0
EXTRACT: note_on channel=4 note=53 velocity=60 time=0.0057471250000000005
EXTRACT: note_on channel=4 note=62 velocity=64 time=0
EXTRACT: note_on channel=4 note=58 velocity=59 time=0
EXTRACT: note_on channel=4 note=65 velocity=59 time=0
EXTRACT: note_on channel=3 note=63 velocity=0 time=0.10919537500000001
EXTRACT: note_on channel=1 note=67 velocity=0 time=0.011494250000000001
EXTRACT: note_on channel=3 note=63 velocity=110 time=0
EXTRACT: note_on channel=4 note=46 velocity=0 time=0.0057471250000000005
EXTRACT: note_on channel=5 note=65 velocity=0 time=0
EXTRACT: note_on channel=5 note=70 velocity=0 time=0
EXTRACT: note_on channel=1 note=67 velocity=93 time=0.0057471250000000005
EXTRACT: note_on channel=9 note=39 velocity=108 time=0
EXTRACT: note_on channel=4 note=58 velocity=0 time=0.0057471250000000005
EXTRACT: note_on channel=4 note=53 velocity=0 time=0
EXTRACT: note_on channel=4 note=62 velocity=0 time=0
EXTRACT: note_on channel=4 note=65 velocity=0 time=0
EXTRACT: note_on channel=4 note=46 velocity=55 time=0
EXTRACT: note_on channel=5 note=70 velocity=65 time=0
EXTRACT: note_on channel=5 note=65 velocity=72 time=0
EXTRACT: note_on channel=9 note=39 velocity=0 time=0
EXTRACT: note_on channel=4 note=58 velocity=67 time=0.011494250000000001
EXTRACT: note_on channel=4 note=53 velocity=63 time=0
EXTRACT: note_on channel=4 note=65 velocity=60 time=0
EXTRACT: note_on channel=4 note=62 velocity=66 time=0
EXTRACT: note_on channel=0 note=70 velocity=0 time=0.086206875
EXTRACT: note_on channel=6 note=67 velocity=0 time=0.011494250000000001
EXTRACT: note_on channel=9 note=42 velocity=61 time=0.05747125
EXTRACT: note_on channel=9 note=42 velocity=0 time=0.0057471250000000005
EXTRACT: note_on channel=0 note=70 velocity=87 time=0.0057471250000000005
EXTRACT: note_on channel=6 note=67 velocity=62 time=0
EXTRACT: note_on channel=4 note=46 velocity=0 time=0.155172375
EXTRACT: note_on channel=5 note=65 velocity=0 time=0
EXTRACT: note_on channel=5 note=70 velocity=0 time=0
EXTRACT: note_on channel=9 note=35 velocity=61 time=0.0057471250000000005
EXTRACT: note_on channel=9 note=37 velocity=59 time=0
EXTRACT: note_on channel=4 note=65 velocity=0 time=0.0057471250000000005
EXTRACT: note_on channel=4 note=58 velocity=0 time=0
EXTRACT: note_on channel=4 note=53 velocity=0 time=0
EXTRACT: note_on channel=4 note=62 velocity=0 time=0
EXTRACT: note_on channel=4 note=46 velocity=55 time=0
EXTRACT: note_on channel=5 note=70 velocity=60 time=0
EXTRACT: note_on channel=5 note=65 velocity=64 time=0
EXTRACT: note_on channel=9 note=37 velocity=0 time=0
EXTRACT: note_on channel=9 note=35 velocity=0 time=0
EXTRACT: note_on channel=4 note=58 velocity=65 time=0.011494250000000001
EXTRACT: note_on channel=4 note=53 velocity=63 time=0
EXTRACT: note_on channel=4 note=62 velocity=65 time=0
EXTRACT: note_on channel=4 note=65 velocity=59 time=0
EXTRACT: note_on channel=3 note=63 velocity=0 time=0.06896550000000001
EXTRACT: note_on channel=0 note=53 velocity=0 time=0.0057471250000000005
EXTRACT: note_on channel=1 note=67 velocity=0 time=0.0057471250000000005
EXTRACT: note_on channel=6 note=62 velocity=0 time=0.034482750000000006
EXTRACT: note_on channel=3 note=62 velocity=86 time=0
EXTRACT: note_on channel=4 note=46 velocity=0 time=0.0057471250000000005
EXTRACT: note_on channel=5 note=65 velocity=0 time=0
EXTRACT: note_on channel=5 note=70 velocity=0 time=0
EXTRACT: note_on channel=1 note=65 velocity=84 time=0.0057471250000000005
EXTRACT: note_on channel=9 note=35 velocity=67 time=0
EXTRACT: note_on channel=9 note=37 velocity=64 time=0
EXTRACT: note_on channel=9 note=42 velocity=53 time=0
EXTRACT: note_on channel=4 note=62 velocity=0 time=0.0057471250000000005
EXTRACT: note_on channel=4 note=58 velocity=0 time=0
EXTRACT: note_on channel=4 note=53 velocity=0 time=0
EXTRACT: note_on channel=4 note=65 velocity=0 time=0
EXTRACT: note_on channel=4 note=46 velocity=55 time=0
EXTRACT: note_on channel=5 note=65 velocity=70 time=0
EXTRACT: note_on channel=5 note=70 velocity=65 time=0
EXTRACT: note_on channel=9 note=42 velocity=0 time=0
EXTRACT: note_on channel=9 note=37 velocity=0 time=0
EXTRACT: note_on channel=9 note=35 velocity=0 time=0
EXTRACT: note_on channel=0 note=53 velocity=74 time=0.0057471250000000005
EXTRACT: note_on channel=6 note=62 velocity=53 time=0
EXTRACT: note_on channel=4 note=58 velocity=64 time=0.0057471250000000005
EXTRACT: note_on channel=4 note=53 velocity=64 time=0
EXTRACT: note_on channel=4 note=62 velocity=64 time=0
EXTRACT: note_on channel=4 note=65 velocity=59 time=0
EXTRACT: note_on channel=3 note=62 velocity=0 time=0.1149425
EXTRACT: note_on channel=1 note=65 velocity=0 time=0.011494250000000001
EXTRACT: note_on channel=3 note=62 velocity=107 time=0
EXTRACT: note_on channel=1 note=65 velocity=93 time=0.0057471250000000005
EXTRACT: note_on channel=6 note=67 velocity=0 time=0.13793100000000003
EXTRACT: note_on channel=4 note=46 velocity=0 time=0.022988500000000002
EXTRACT: note_on channel=5 note=70 velocity=0 time=0
EXTRACT: note_on channel=5 note=65 velocity=0 time=0
EXTRACT: note_on channel=9 note=40 velocity=81 time=0.0057471250000000005
EXTRACT: note_on channel=9 note=39 velocity=114 time=0
EXTRACT: note_on channel=9 note=42 velocity=67 time=0
EXTRACT: note_on channel=4 note=62 velocity=0 time=0.0057471250000000005
EXTRACT: note_on channel=4 note=58 velocity=0 time=0
EXTRACT: note_on channel=4 note=53 velocity=0 time=0
EXTRACT: note_on channel=4 note=65 velocity=0 time=0
EXTRACT: note_on channel=4 note=46 velocity=55 time=0
EXTRACT: note_on channel=9 note=42 velocity=0 time=0
EXTRACT: note_on channel=9 note=39 velocity=0 time=0
EXTRACT: note_on channel=9 note=40 velocity=0 time=0
EXTRACT: note_on channel=0 note=58 velocity=74 time=0.0057471250000000005
EXTRACT: note_on channel=6 note=67 velocity=64 time=0
EXTRACT: note_on channel=4 note=58 velocity=75 time=0.0057471250000000005
EXTRACT: note_on channel=4 note=53 velocity=66 time=0
EXTRACT: note_on channel=4 note=62 velocity=69 time=0
EXTRACT: note_on channel=4 note=65 velocity=63 time=0
EXTRACT: note_on channel=5 note=70 velocity=72 time=0
EXTRACT: note_on channel=5 note=65 velocity=72 time=0
EXTRACT: note_on channel=6 note=65 velocity=0 time=0
EXTRACT: note_on channel=0 note=70 velocity=0 time=0.034482750000000006
EXTRACT: note_on channel=4 note=46 velocity=0 time=0.1149425
EXTRACT: note_on channel=9 note=35 velocity=61 time=0.0057471250000000005
EXTRACT: note_on channel=4 note=62 velocity=0 time=0.0057471250000000005
EXTRACT: note_on channel=4 note=58 velocity=0 time=0
EXTRACT: note_on channel=4 note=53 velocity=0 time=0
EXTRACT: note_on channel=4 note=65 velocity=0 time=0
EXTRACT: note_on channel=4 note=46 velocity=55 time=0
EXTRACT: note_on channel=5 note=65 velocity=0 time=0
EXTRACT: note_on channel=5 note=70 velocity=0 time=0
EXTRACT: note_on channel=9 note=35 velocity=0 time=0
EXTRACT: note_on channel=0 note=70 velocity=100 time=0.0057471250000000005
EXTRACT: note_on channel=4 note=58 velocity=66 time=0.0057471250000000005
EXTRACT: note_on channel=4 note=53 velocity=64 time=0
EXTRACT: note_on channel=4 note=65 velocity=59 time=0
EXTRACT: note_on channel=4 note=62 velocity=66 time=0
EXTRACT: note_on channel=5 note=65 velocity=65 time=0
EXTRACT: note_on channel=5 note=70 velocity=63 time=0
EXTRACT: note_on channel=3 note=62 velocity=0 time=0.086206875
EXTRACT: note_on channel=0 note=62 velocity=0 time=0
EXTRACT: note_on channel=1 note=65 velocity=0 time=0.0057471250000000005
EXTRACT: note_on channel=3 note=60 velocity=85 time=0
EXTRACT: note_on channel=4 note=46 velocity=0 time=0.0057471250000000005
EXTRACT: note_on channel=1 note=63 velocity=83 time=0.0057471250000000005
EXTRACT: note_on channel=9 note=40 velocity=65 time=0
EXTRACT: note_on channel=9 note=42 velocity=51 time=0
EXTRACT: note_on channel=9 note=28 velocity=51 time=0
EXTRACT: note_on channel=4 note=65 velocity=0 time=0.0057471250000000005
EXTRACT: note_on channel=4 note=58 velocity=0 time=0
EXTRACT: note_on channel=4 note=53 velocity=0 time=0
EXTRACT: note_on channel=4 note=62 velocity=0 time=0
EXTRACT: note_on channel=4 note=46 velocity=55 time=0
EXTRACT: note_on channel=5 note=70 velocity=0 time=0
EXTRACT: note_on channel=5 note=65 velocity=0 time=0
EXTRACT: note_on channel=9 note=28 velocity=0 time=0
EXTRACT: note_on channel=9 note=42 velocity=0 time=0
EXTRACT: note_on channel=9 note=40 velocity=0 time=0
EXTRACT: note_on channel=0 note=62 velocity=84 time=0.0057471250000000005
EXTRACT: note_on channel=6 note=65 velocity=58 time=0
EXTRACT: note_on channel=4 note=53 velocity=60 time=0.0057471250000000005
EXTRACT: note_on channel=4 note=58 velocity=63 time=0
EXTRACT: note_on channel=4 note=62 velocity=66 time=0
EXTRACT: note_on channel=4 note=65 velocity=58 time=0
EXTRACT: note_on channel=5 note=65 velocity=65 time=0
EXTRACT: note_on channel=5 note=70 velocity=61 time=0
EXTRACT: note_on channel=3 note=60 velocity=0 time=0.12068962500000001
EXTRACT: note_on channel=1 note=63 velocity=0 time=0.011494250000000001
EXTRACT: note_on channel=3 note=60 velocity=109 time=0
EXTRACT: note_on channel=4 note=46 velocity=0 time=0.0057471250000000005
EXTRACT: note_on channel=1 note=63 velocity=93 time=0.0057471250000000005
EXTRACT: note_on channel=4 note=62 velocity=0 time=0.0057471250000000005
EXTRACT: note_on channel=4 note=53 velocity=0 time=0
EXTRACT: note_on channel=4 note=58 velocity=0 time=0
EXTRACT: note_on channel=4 note=65 velocity=0 time=0
EXTRACT: note_on channel=4 note=46 velocity=55 time=0
EXTRACT: note_on channel=5 note=70 velocity=0 time=0
EXTRACT: note_on channel=5 note=65 velocity=0 time=0
EXTRACT: note_on channel=4 note=58 velocity=57 time=0.011494250000000001
EXTRACT: note_on channel=4 note=62 velocity=57 time=0
EXTRACT: note_on channel=4 note=65 velocity=57 time=0
EXTRACT: note_on channel=4 note=53 velocity=57 time=0
EXTRACT: note_on channel=5 note=65 velocity=63 time=0
EXTRACT: note_on channel=5 note=70 velocity=60 time=0
EXTRACT: note_on channel=2 note=34 velocity=0 time=0.09195400000000001
EXTRACT: note_on channel=0 note=65 velocity=0 time=0
EXTRACT: note_on channel=6 note=62 velocity=0 time=0
EXTRACT: note_on channel=6 note=67 velocity=0 time=0.022988500000000002
EXTRACT: note_on channel=6 note=65 velocity=0 time=0.017241375000000003
EXTRACT: note_on channel=0 note=62 velocity=0 time=0.011494250000000001
EXTRACT: note_on channel=8 note=74 velocity=0 time=0
EXTRACT: note_on channel=4 note=46 velocity=0 time=0.0057471250000000005
EXTRACT: note_on channel=8 note=77 velocity=0 time=0
EXTRACT: note_on channel=2 note=33 velocity=96 time=0.0057471250000000005
EXTRACT: note_on channel=0 note=46 velocity=0 time=0
EXTRACT: note_on channel=6 note=65 velocity=62 time=0
EXTRACT: note_on channel=8 note=70 velocity=0 time=0
EXTRACT: note_on channel=9 note=36 velocity=114 time=0
EXTRACT: note_on channel=9 note=41 velocity=110 time=0
EXTRACT: note_on channel=9 note=46 velocity=81 time=0
EXTRACT: note_on channel=0 note=58 velocity=0 time=0.0057471250000000005
EXTRACT: note_on channel=4 note=65 velocity=0 time=0
EXTRACT: note_on channel=4 note=58 velocity=0 time=0
EXTRACT: note_on channel=4 note=62 velocity=0 time=0
EXTRACT: note_on channel=4 note=53 velocity=0 time=0
EXTRACT: note_on channel=4 note=45 velocity=55 time=0
EXTRACT: note_on channel=5 note=70 velocity=0 time=0
EXTRACT: note_on channel=5 note=65 velocity=0 time=0
EXTRACT: note_on channel=10 note=69 velocity=96 time=0
EXTRACT: note_on channel=10 note=81 velocity=96 time=0
EXTRACT: note_on channel=9 note=46 velocity=0 time=0
EXTRACT: note_on channel=9 note=41 velocity=0 time=0
EXTRACT: note_on channel=9 note=36 velocity=0 time=0
EXTRACT: note_on channel=0 note=65 velocity=80 time=0.0057471250000000005
EXTRACT: note_on channel=0 note=45 velocity=72 time=0
EXTRACT: note_on channel=8 note=69 velocity=93 time=0
EXTRACT: note_on channel=8 note=81 velocity=93 time=0
EXTRACT: note_on channel=0 note=60 velocity=70 time=0.0057471250000000005
EXTRACT: note_on channel=4 note=60 velocity=69 time=0
EXTRACT: note_on channel=4 note=57 velocity=69 time=0
EXTRACT: note_on channel=4 note=65 velocity=69 time=0
EXTRACT: note_on channel=5 note=65 velocity=76 time=0
EXTRACT: note_on channel=5 note=70 velocity=69 time=0
EXTRACT: note_on channel=0 note=53 velocity=0 time=0.0057471250000000005
EXTRACT: note_on channel=0 note=70 velocity=0 time=0.16091950000000002
EXTRACT: note_on channel=4 note=45 velocity=0 time=0.155172375
EXTRACT: note_on channel=9 note=35 velocity=68 time=0.0057471250000000005
EXTRACT: note_on channel=9 note=38 velocity=68 time=0
EXTRACT: note_on channel=9 note=42 velocity=54 time=0
EXTRACT: note_on channel=4 note=60 velocity=0 time=0.0057471250000000005
EXTRACT: note_on channel=4 note=57 velocity=0 time=0
EXTRACT: note_on channel=4 note=65 velocity=0 time=0
EXTRACT: note_on channel=4 note=45 velocity=55 time=0
EXTRACT: note_on channel=5 note=70 velocity=0 time=0
EXTRACT: note_on channel=5 note=65 velocity=0 time=0
EXTRACT: note_on channel=9 note=42 velocity=0 time=0
EXTRACT: note_on channel=9 note=38 velocity=0 time=0
EXTRACT: note_on channel=9 note=35 velocity=0 time=0
EXTRACT: note_on channel=0 note=53 velocity=79 time=0.0057471250000000005
EXTRACT: note_on channel=6 note=60 velocity=56 time=0
EXTRACT: note_on channel=4 note=57 velocity=59 time=0.0057471250000000005
EXTRACT: note_on channel=4 note=60 velocity=70 time=0
EXTRACT: note_on channel=4 note=65 velocity=66 time=0
EXTRACT: note_on channel=5 note=70 velocity=67 time=0
EXTRACT: note_on channel=5 note=65 velocity=71 time=0
EXTRACT: note_on channel=3 note=60 velocity=0 time=0.028735625
EXTRACT: note_on channel=1 note=63 velocity=0 time=0.011494250000000001
EXTRACT: note_on channel=9 note=35 velocity=63 time=0.1149425
EXTRACT: note_on channel=9 note=35 velocity=0 time=0.0057471250000000005
EXTRACT: note_on channel=0 note=60 velocity=0 time=0.14367812500000002
EXTRACT: note_on channel=6 note=65 velocity=0 time=0.0057471250000000005
EXTRACT: note_on channel=4 note=45 velocity=0 time=0.011494250000000001
EXTRACT: note_on channel=9 note=40 velocity=77 time=0.0057471250000000005
EXTRACT: note_on channel=9 note=39 velocity=110 time=0
EXTRACT: note_on channel=9 note=42 velocity=64 time=0
EXTRACT: note_on channel=4 note=57 velocity=0 time=0.0057471250000000005
EXTRACT: note_on channel=4 note=60 velocity=0 time=0
EXTRACT: note_on channel=4 note=65 velocity=0 time=0
EXTRACT: note_on channel=4 note=45 velocity=55 time=0
EXTRACT: note_on channel=5 note=65 velocity=0 time=0
EXTRACT: note_on channel=5 note=70 velocity=0 time=0
EXTRACT: note_on channel=9 note=42 velocity=0 time=0
EXTRACT: note_on channel=9 note=39 velocity=0 time=0
EXTRACT: note_on channel=9 note=40 velocity=0 time=0
EXTRACT: note_on channel=6 note=65 velocity=64 time=0.0057471250000000005
EXTRACT: note_on channel=0 note=60 velocity=70 time=0.0057471250000000005
EXTRACT: note_on channel=4 note=60 velocity=75 time=0
EXTRACT: note_on channel=4 note=65 velocity=75 time=0
EXTRACT: note_on channel=4 note=57 velocity=75 time=0
EXTRACT: note_on channel=5 note=70 velocity=65 time=0
EXTRACT: note_on channel=5 note=65 velocity=71 time=0
EXTRACT: note_on channel=9 note=37 velocity=57 time=0.155172375
EXTRACT: note_on channel=9 note=37 velocity=0 time=0.0057471250000000005
EXTRACT: note_on channel=10 note=81 velocity=0 time=0.040229875000000005
EXTRACT: note_on channel=10 note=69 velocity=0 time=0.011494250000000001
EXTRACT: note_on channel=6 note=60 velocity=0 time=0.06321837500000001
EXTRACT: note_on channel=0 note=65 velocity=0 time=0.0057471250000000005
EXTRACT: note_on channel=4 note=45 velocity=0 time=0.040229875000000005
EXTRACT: note_on channel=9 note=40 velocity=65 time=0.0057471250000000005
EXTRACT: note_on channel=9 note=42 velocity=51 time=0
EXTRACT: note_on channel=4 note=60 velocity=0 time=0.0057471250000000005
EXTRACT: note_on channel=4 note=65 velocity=0 time=0
EXTRACT: note_on channel=4 note=57 velocity=0 time=0
EXTRACT: note_on channel=4 note=45 velocity=55 time=0
EXTRACT: note_on channel=5 note=65 velocity=0 time=0
EXTRACT: note_on channel=5 note=70 velocity=0 time=0
EXTRACT: note_on channel=9 note=42 velocity=0 time=0
EXTRACT: note_on channel=9 note=40 velocity=0 time=0
EXTRACT: note_on channel=0 note=65 velocity=81 time=0.0057471250000000005
EXTRACT: note_on channel=6 note=60 velocity=55 time=0
EXTRACT: note_on channel=4 note=57 velocity=60 time=0.0057471250000000005
EXTRACT: note_on channel=4 note=65 velocity=60 time=0
EXTRACT: note_on channel=4 note=60 velocity=59 time=0
EXTRACT: note_on channel=5 note=65 velocity=64 time=0
EXTRACT: note_on channel=5 note=70 velocity=59 time=0
EXTRACT: note_on channel=8 note=81 velocity=0 time=0.022988500000000002
EXTRACT: note_on channel=8 note=69 velocity=0 time=0
EXTRACT: note_on channel=3 note=58 velocity=84 time=0
EXTRACT: note_on channel=4 note=45 velocity=0 time=0.0057471250000000005
EXTRACT: note_on channel=9 note=39 velocity=110 time=0.0057471250000000005
EXTRACT: note_on channel=4 note=57 velocity=0 time=0.0057471250000000005
EXTRACT: note_on channel=4 note=65 velocity=0 time=0
EXTRACT: note_on channel=4 note=60 velocity=0 time=0
EXTRACT: note_on channel=4 note=45 velocity=55 time=0
EXTRACT: note_on channel=5 note=70 velocity=0 time=0
EXTRACT: note_on channel=5 note=65 velocity=0 time=0
EXTRACT: note_on channel=9 note=39 velocity=0 time=0
EXTRACT: note_on channel=4 note=60 velocity=74 time=0.011494250000000001
EXTRACT: note_on channel=4 note=57 velocity=74 time=0
EXTRACT: note_on channel=4 note=65 velocity=74 time=0
EXTRACT: note_on channel=5 note=65 velocity=69 time=0
EXTRACT: note_on channel=5 note=70 velocity=65 time=0
EXTRACT: note_on channel=6 note=65 velocity=0 time=0.09770112500000001
EXTRACT: note_on channel=3 note=58 velocity=0 time=0.022988500000000002
EXTRACT: note_on channel=0 note=60 velocity=0 time=0.011494250000000001
EXTRACT: note_on channel=3 note=63 velocity=109 time=0
EXTRACT: note_on channel=9 note=42 velocity=64 time=0.011494250000000001
EXTRACT: note_on channel=0 note=60 velocity=71 time=0.0057471250000000005
EXTRACT: note_on channel=10 note=67 velocity=95 time=0
EXTRACT: note_on channel=10 note=79 velocity=95 time=0
EXTRACT: note_on channel=9 note=42 velocity=0 time=0
EXTRACT: note_on channel=0 note=79 velocity=112 time=0.0057471250000000005
EXTRACT: note_on channel=0 note=67 velocity=104 time=0
EXTRACT: note_on channel=6 note=65 velocity=62 time=0
EXTRACT: note_on channel=8 note=79 velocity=96 time=0
EXTRACT: note_on channel=8 note=67 velocity=96 time=0
EXTRACT: note_on channel=4 note=45 velocity=0 time=0.155172375
EXTRACT: note_on channel=9 note=35 velocity=62 time=0.0057471250000000005
EXTRACT: note_on channel=9 note=37 velocity=59 time=0
EXTRACT: note_on channel=4 note=60 velocity=0 time=0.0057471250000000005
EXTRACT: note_on channel=4 note=57 velocity=0 time=0
EXTRACT: note_on channel=4 note=65 velocity=0 time=0
EXTRACT: note_on channel=4 note=45 velocity=55 time=0
EXTRACT: note_on channel=5 note=70 velocity=0 time=0
EXTRACT: note_on channel=5 note=65 velocity=0 time=0
EXTRACT: note_on channel=9 note=37 velocity=0 time=0
EXTRACT: note_on channel=9 note=35 velocity=0 time=0
EXTRACT: note_on channel=4 note=60 velocity=70 time=0.011494250000000001
EXTRACT: note_on channel=4 note=57 velocity=63 time=0
EXTRACT: note_on channel=4 note=65 velocity=69 time=0
EXTRACT: note_on channel=5 note=65 velocity=72 time=0
EXTRACT: note_on channel=5 note=70 velocity=67 time=0
EXTRACT: note_on channel=3 note=63 velocity=0 time=0.09195400000000001
EXTRACT: note_on channel=0 note=53 velocity=0 time=0.017241375000000003
EXTRACT: note_on channel=6 note=60 velocity=0 time=0.0057471250000000005
EXTRACT: note_on channel=3 note=62 velocity=84 time=0
EXTRACT: note_on channel=4 note=45 velocity=0 time=0.0057471250000000005
EXTRACT: note_on channel=9 note=35 velocity=65 time=0.0057471250000000005
EXTRACT: note_on channel=9 note=37 velocity=63 time=0
EXTRACT: note_on channel=9 note=42 velocity=52 time=0
EXTRACT: note_on channel=4 note=60 velocity=0 time=0.0057471250000000005
EXTRACT: note_on channel=4 note=57 velocity=0 time=0
EXTRACT: note_on channel=4 note=65 velocity=0 time=0
EXTRACT: note_on channel=4 note=45 velocity=55 time=0
EXTRACT: note_on channel=5 note=70 velocity=0 time=0
EXTRACT: note_on channel=5 note=65 velocity=0 time=0
EXTRACT: note_on channel=9 note=42 velocity=0 time=0
EXTRACT: note_on channel=9 note=37 velocity=0 time=0
EXTRACT: note_on channel=9 note=35 velocity=0 time=0
EXTRACT: note_on channel=0 note=53 velocity=58 time=0.0057471250000000005
EXTRACT: note_on channel=6 note=60 velocity=53 time=0
EXTRACT: note_on channel=4 note=60 velocity=75 time=0.0057471250000000005
EXTRACT: note_on channel=4 note=57 velocity=64 time=0
EXTRACT: note_on channel=4 note=65 velocity=71 time=0
EXTRACT: note_on channel=5 note=65 velocity=69 time=0
EXTRACT: note_on channel=5 note=70 velocity=64 time=0
EXTRACT: note_on channel=8 note=67 velocity=0 time=0.09770112500000001
EXTRACT: note_on channel=10 note=79 velocity=0 time=0.011494250000000001
EXTRACT: note_on channel=3 note=62 velocity=0 time=0.0057471250000000005
EXTRACT: note_on channel=8 note=79 velocity=0 time=0.0057471250000000005
EXTRACT: note_on channel=0 note=79 velocity=0 time=0.011494250000000001
EXTRACT: note_on channel=3 note=62 velocity=107 time=0
EXTRACT: note_on channel=10 note=67 velocity=0 time=0
EXTRACT: note_on channel=10 note=70 velocity=95 time=0.017241375000000003
EXTRACT: note_on channel=10 note=82 velocity=95 time=0
EXTRACT: note_on channel=0 note=82 velocity=117 time=0.0057471250000000005
EXTRACT: note_on channel=0 note=70 velocity=117 time=0
EXTRACT: note_on channel=8 note=82 velocity=94 time=0
EXTRACT: note_on channel=8 note=70 velocity=94 time=0
EXTRACT: note_on channel=0 note=67 velocity=0 time=0.022988500000000002
EXTRACT: note_on channel=0 note=65 velocity=0 time=0.06896550000000001
EXTRACT: note_on channel=6 note=65 velocity=0 time=0.040229875000000005
EXTRACT: note_on channel=4 note=45 velocity=0 time=0.022988500000000002
EXTRACT: note_on channel=9 note=40 velocity=75 time=0.0057471250000000005
EXTRACT: note_on channel=9 note=39 velocity=109 time=0
EXTRACT: note_on channel=9 note=42 velocity=62 time=0
EXTRACT: note_on channel=4 note=60 velocity=0 time=0.0057471250000000005
EXTRACT: note_on channel=4 note=57 velocity=0 time=0
EXTRACT: note_on channel=4 note=65 velocity=0 time=0
EXTRACT: note_on channel=4 note=45 velocity=55 time=0
EXTRACT: note_on channel=5 note=70 velocity=0 time=0
EXTRACT: note_on channel=5 note=65 velocity=0 time=0
EXTRACT: note_on channel=9 note=42 velocity=0 time=0
EXTRACT: note_on channel=9 note=39 velocity=0 time=0
EXTRACT: note_on channel=9 note=40 velocity=0 time=0
EXTRACT: note_on channel=6 note=65 velocity=64 time=0.0057471250000000005
EXTRACT: note_on channel=0 note=65 velocity=60 time=0.0057471250000000005
EXTRACT: note_on channel=4 note=60 velocity=74 time=0
EXTRACT: note_on channel=4 note=57 velocity=74 time=0
EXTRACT: note_on channel=4 note=65 velocity=74 time=0
EXTRACT: note_on channel=5 note=65 velocity=76 time=0
EXTRACT: note_on channel=5 note=70 velocity=69 time=0
EXTRACT: note_on channel=4 note=45 velocity=0 time=0.14942525
EXTRACT: note_on channel=9 note=35 velocity=62 time=0.0057471250000000005
EXTRACT: note_on channel=4 note=60 velocity=0 time=0.0057471250000000005
EXTRACT: note_on channel=4 note=57 velocity=0 time=0
EXTRACT: note_on channel=4 note=65 velocity=0 time=0
EXTRACT: note_on channel=4 note=45 velocity=55 time=0
EXTRACT: note_on channel=5 note=70 velocity=0 time=0
EXTRACT: note_on channel=5 note=65 velocity=0 time=0
EXTRACT: note_on channel=9 note=35 velocity=0 time=0
EXTRACT: note_on channel=4 note=60 velocity=77 time=0.011494250000000001
EXTRACT: note_on channel=4 note=57 velocity=65 time=0
EXTRACT: note_on channel=4 note=65 velocity=69 time=0
EXTRACT: note_on channel=5 note=65 velocity=69 time=0
EXTRACT: note_on channel=5 note=70 velocity=67 time=0
EXTRACT: note_on channel=3 note=62 velocity=0 time=0.06896550000000001
EXTRACT: note_on channel=8 note=70 velocity=0 time=0.028735625
EXTRACT: note_on channel=0 note=60 velocity=0 time=0.011494250000000001
EXTRACT: note_on channel=6 note=60 velocity=0 time=0.0057471250000000005
EXTRACT: note_on channel=10 note=82 velocity=0 time=0
EXTRACT: note_on channel=8 note=82 velocity=0 time=0.011494250000000001
EXTRACT: note_on channel=3 note=58 velocity=85 time=0
EXTRACT: note_on channel=4 note=45 velocity=0 time=0.0057471250000000005
EXTRACT: note_on channel=0 note=82 velocity=0 time=0.0057471250000000005
EXTRACT: note_on channel=9 note=40 velocity=66 time=0
EXTRACT: note_on channel=9 note=42 velocity=52 time=0
EXTRACT: note_on channel=9 note=28 velocity=52 time=0
EXTRACT: note_on channel=4 note=60 velocity=0 time=0.0057471250000000005
EXTRACT: note_on channel=4 note=57 velocity=0 time=0
EXTRACT: note_on channel=4 note=65 velocity=0 time=0
EXTRACT: note_on channel=4 note=45 velocity=55 time=0
EXTRACT: note_on channel=5 note=70 velocity=0 time=0
EXTRACT: note_on channel=5 note=65 velocity=0 time=0
EXTRACT: note_on channel=10 note=72 velocity=95 time=0
EXTRACT: note_on channel=10 note=84 velocity=95 time=0
EXTRACT: note_on channel=9 note=28 velocity=0 time=0
EXTRACT: note_on channel=9 note=42 velocity=0 time=0
EXTRACT: note_on channel=9 note=40 velocity=0 time=0
EXTRACT: note_on channel=0 note=84 velocity=111 time=0.0057471250000000005
EXTRACT: note_on channel=0 note=72 velocity=117 time=0
EXTRACT: note_on channel=6 note=60 velocity=58 time=0
EXTRACT: note_on channel=8 note=84 velocity=94 time=0
EXTRACT: note_on channel=8 note=72 velocity=94 time=0
EXTRACT: note_on channel=10 note=70 velocity=0 time=0
EXTRACT: note_on channel=0 note=70 velocity=0 time=0.0057471250000000005
EXTRACT: note_on channel=0 note=60 velocity=45 time=0
EXTRACT: note_on channel=4 note=60 velocity=79 time=0
EXTRACT: note_on channel=4 note=57 velocity=65 time=0
EXTRACT: note_on channel=4 note=65 velocity=72 time=0
EXTRACT: note_on channel=5 note=65 velocity=64 time=0
EXTRACT: note_on channel=5 note=70 velocity=63 time=0
EXTRACT: note_on channel=3 note=58 velocity=0 time=0.12068962500000001
EXTRACT: note_on channel=3 note=58 velocity=109 time=0
EXTRACT: note_on channel=4 note=45 velocity=0 time=0
EXTRACT: note_on channel=9 note=36 velocity=110 time=0.0057471250000000005
EXTRACT: note_on channel=9 note=41 velocity=110 time=0
EXTRACT: note_on channel=4 note=60 velocity=0 time=0.0057471250000000005
EXTRACT: note_on channel=4 note=57 velocity=0 time=0
EXTRACT: note_on channel=4 note=65 velocity=0 time=0
EXTRACT: note_on channel=4 note=45 velocity=55 time=0
EXTRACT: note_on channel=5 note=70 velocity=0 time=0
EXTRACT: note_on channel=5 note=65 velocity=0 time=0
EXTRACT: note_on channel=9 note=41 velocity=0 time=0
EXTRACT: note_on channel=9 note=36 velocity=0 time=0
EXTRACT: note_on channel=4 note=60 velocity=65 time=0.011494250000000001
EXTRACT: note_on channel=4 note=57 velocity=65 time=0
EXTRACT: note_on channel=4 note=65 velocity=65 time=0
EXTRACT: note_on channel=5 note=65 velocity=64 time=0
EXTRACT: note_on channel=5 note=70 velocity=64 time=0
EXTRACT: note_on channel=10 note=84 velocity=0 time=0.06896550000000001
EXTRACT: note_on channel=0 note=53 velocity=0 time=0.028735625
EXTRACT: note_on channel=10 note=72 velocity=0 time=0.011494250000000001
EXTRACT: note_on channel=6 note=60 velocity=0 time=0.022988500000000002
EXTRACT: note_on channel=6 note=65 velocity=0 time=0
EXTRACT: note_on channel=2 note=33 velocity=0 time=0.017241375000000003
EXTRACT: note_on channel=0 note=45 velocity=0 time=0
EXTRACT: note_on channel=0 note=65 velocity=0 time=0
EXTRACT: note_on channel=4 note=45 velocity=0 time=0
EXTRACT: note_on channel=2 note=31 velocity=86 time=0.0057471250000000005
EXTRACT: note_on channel=6 note=67 velocity=62 time=0
EXTRACT: note_on channel=7 note=43 velocity=71 time=0
EXTRACT: note_on channel=8 note=72 velocity=0 time=0
EXTRACT: note_on channel=9 note=36 velocity=113 time=0
EXTRACT: note_on channel=9 note=46 velocity=80 time=0
EXTRACT: note_on channel=0 note=84 velocity=0 time=0.0057471250000000005
EXTRACT: note_on channel=4 note=60 velocity=0 time=0
EXTRACT: note_on channel=4 note=57 velocity=0 time=0
EXTRACT: note_on channel=4 note=65 velocity=0 time=0
EXTRACT: note_on channel=4 note=43 velocity=55 time=0
EXTRACT: note_on channel=5 note=70 velocity=0 time=0
EXTRACT: note_on channel=5 note=65 velocity=0 time=0
EXTRACT: note_on channel=9 note=46 velocity=0 time=0
EXTRACT: note_on channel=9 note=36 velocity=0 time=0
EXTRACT: note_on channel=0 note=60 velocity=0 time=0.0057471250000000005
EXTRACT: note_on channel=0 note=70 velocity=109 time=0
EXTRACT: note_on channel=0 note=82 velocity=109 time=0
EXTRACT: note_on channel=5 note=62 velocity=65 time=0
EXTRACT: note_on channel=0 note=72 velocity=0 time=0.0057471250000000005
EXTRACT: note_on channel=5 note=67 velocity=74 time=0
EXTRACT: note_on channel=5 note=70 velocity=65 time=0
EXTRACT: note_on channel=4 note=58 velocity=68 time=0.0057471250000000005
EXTRACT: note_on channel=4 note=62 velocity=68 time=0
EXTRACT: note_on channel=4 note=67 velocity=63 time=0
EXTRACT: note_on channel=4 note=55 velocity=62 time=0
EXTRACT: note_on channel=8 note=84 velocity=0 time=0
EXTRACT: note_on channel=4 note=43 velocity=0 time=0.316091875
EXTRACT: note_on channel=5 note=62 velocity=0 time=0.0057471250000000005
EXTRACT: note_on channel=9 note=28 velocity=73 time=0
EXTRACT: note_on channel=4 note=43 velocity=55 time=0.0057471250000000005
EXTRACT: note_on channel=5 note=70 velocity=0 time=0
EXTRACT: note_on channel=5 note=67 velocity=0 time=0
EXTRACT: note_on channel=9 note=28 velocity=0 time=0
EXTRACT: note_on channel=4 note=67 velocity=0 time=0.0057471250000000005
EXTRACT: note_on channel=4 note=55 velocity=0 time=0
EXTRACT: note_on channel=4 note=58 velocity=0 time=0
EXTRACT: note_on channel=4 note=62 velocity=0 time=0
EXTRACT: note_on channel=6 note=62 velocity=56 time=0
EXTRACT: note_on channel=4 note=58 velocity=62 time=0.011494250000000001
EXTRACT: note_on channel=4 note=55 velocity=59 time=0
EXTRACT: note_on channel=4 note=67 velocity=58 time=0
EXTRACT: note_on channel=4 note=62 velocity=64 time=0
EXTRACT: note_on channel=5 note=67 velocity=59 time=0
EXTRACT: note_on channel=5 note=62 velocity=58 time=0
EXTRACT: note_on channel=5 note=70 velocity=58 time=0
EXTRACT: note_on channel=6 note=67 velocity=0 time=0.30459762500000004
EXTRACT: note_on channel=4 note=43 velocity=0 time=0.011494250000000001
EXTRACT: note_on channel=3 note=58 velocity=0 time=0.0057471250000000005
EXTRACT: note_on channel=4 note=43 velocity=55 time=0.0057471250000000005
EXTRACT: note_on channel=4 note=67 velocity=0 time=0.0057471250000000005
EXTRACT: note_on channel=4 note=62 velocity=0 time=0
EXTRACT: note_on channel=4 note=58 velocity=0 time=0
EXTRACT: note_on channel=4 note=55 velocity=0 time=0
EXTRACT: note_on channel=5 note=70 velocity=0 time=0
EXTRACT: note_on channel=5 note=62 velocity=0 time=0
EXTRACT: note_on channel=5 note=67 velocity=0 time=0
EXTRACT: note_on channel=6 note=67 velocity=64 time=0
EXTRACT: note_on channel=4 note=58 velocity=67 time=0.011494250000000001
EXTRACT: note_on channel=4 note=55 velocity=65 time=0
EXTRACT: note_on channel=4 note=62 velocity=69 time=0
EXTRACT: note_on channel=4 note=67 velocity=61 time=0
EXTRACT: note_on channel=5 note=62 velocity=63 time=0
EXTRACT: note_on channel=5 note=67 velocity=70 time=0
EXTRACT: note_on channel=5 note=70 velocity=63 time=0
EXTRACT: note_on channel=9 note=28 velocity=68 time=0.14942525
EXTRACT: note_on channel=9 note=28 velocity=0 time=0.0057471250000000005
EXTRACT: note_on channel=4 note=43 velocity=0 time=0.16091950000000002
EXTRACT: note_on channel=4 note=43 velocity=55 time=0.011494250000000001
EXTRACT: note_on channel=4 note=62 velocity=0 time=0.0057471250000000005
EXTRACT: note_on channel=4 note=67 velocity=0 time=0
EXTRACT: note_on channel=4 note=58 velocity=0 time=0
EXTRACT: note_on channel=4 note=55 velocity=0 time=0
EXTRACT: note_on channel=5 note=70 velocity=0 time=0
EXTRACT: note_on channel=5 note=67 velocity=0 time=0
EXTRACT: note_on channel=5 note=62 velocity=0 time=0
EXTRACT: note_on channel=6 note=65 velocity=55 time=0
EXTRACT: note_on channel=4 note=58 velocity=60 time=0.011494250000000001
EXTRACT: note_on channel=4 note=62 velocity=63 time=0
EXTRACT: note_on channel=4 note=55 velocity=58 time=0
EXTRACT: note_on channel=4 note=67 velocity=54 time=0
EXTRACT: note_on channel=5 note=67 velocity=59 time=0
EXTRACT: note_on channel=5 note=62 velocity=58 time=0
EXTRACT: note_on channel=5 note=70 velocity=57 time=0
EXTRACT: note_on channel=4 note=43 velocity=0 time=0.14367812500000002
EXTRACT: note_on channel=4 note=43 velocity=55 time=0.011494250000000001
EXTRACT: note_on channel=4 note=55 velocity=0 time=0.0057471250000000005
EXTRACT: note_on channel=4 note=67 velocity=0 time=0
EXTRACT: note_on channel=4 note=58 velocity=0 time=0
EXTRACT: note_on channel=4 note=62 velocity=0 time=0
EXTRACT: note_on channel=5 note=70 velocity=0 time=0
EXTRACT: note_on channel=5 note=62 velocity=0 time=0
EXTRACT: note_on channel=5 note=67 velocity=0 time=0
EXTRACT: note_on channel=4 note=58 velocity=71 time=0.011494250000000001
EXTRACT: note_on channel=4 note=55 velocity=63 time=0
EXTRACT: note_on channel=4 note=62 velocity=71 time=0
EXTRACT: note_on channel=4 note=67 velocity=63 time=0
EXTRACT: note_on channel=5 note=62 velocity=63 time=0
EXTRACT: note_on channel=5 note=67 velocity=69 time=0
EXTRACT: note_on channel=5 note=70 velocity=63 time=0
EXTRACT: note_on channel=6 note=67 velocity=0 time=0.09195400000000001
EXTRACT: note_on channel=9 note=28 velocity=83 time=0.05747125
EXTRACT: note_on channel=9 note=28 velocity=0 time=0.0057471250000000005
EXTRACT: note_on channel=6 note=67 velocity=62 time=0.0057471250000000005
EXTRACT: note_on channel=4 note=43 velocity=0 time=0.155172375
EXTRACT: note_on channel=9 note=28 velocity=64 time=0.0057471250000000005
EXTRACT: note_on channel=4 note=43 velocity=55 time=0.0057471250000000005
EXTRACT: note_on channel=9 note=28 velocity=0 time=0
EXTRACT: note_on channel=4 note=62 velocity=0 time=0.0057471250000000005
EXTRACT: note_on channel=4 note=67 velocity=0 time=0
EXTRACT: note_on channel=4 note=58 velocity=0 time=0
EXTRACT: note_on channel=4 note=55 velocity=0 time=0
EXTRACT: note_on channel=5 note=70 velocity=0 time=0
EXTRACT: note_on channel=5 note=67 velocity=0 time=0
EXTRACT: note_on channel=5 note=62 velocity=0 time=0
EXTRACT: note_on channel=4 note=58 velocity=63 time=0.011494250000000001
EXTRACT: note_on channel=4 note=62 velocity=64 time=0
EXTRACT: note_on channel=4 note=55 velocity=60 time=0
EXTRACT: note_on channel=4 note=67 velocity=58 time=0
EXTRACT: note_on channel=5 note=62 velocity=57 time=0
EXTRACT: note_on channel=5 note=67 velocity=59 time=0
EXTRACT: note_on channel=5 note=70 velocity=58 time=0
EXTRACT: note_on channel=6 note=62 velocity=0 time=0.10919537500000001
EXTRACT: note_on channel=4 note=43 velocity=0 time=0.034482750000000006
EXTRACT: note_on channel=9 note=28 velocity=64 time=0.0057471250000000005
EXTRACT: note_on channel=4 note=43 velocity=55 time=0.0057471250000000005
EXTRACT: note_on channel=9 note=28 velocity=0 time=0
EXTRACT: note_on channel=0 note=62 velocity=95 time=0.0057471250000000005
EXTRACT: note_on channel=4 note=55 velocity=0 time=0
EXTRACT: note_on channel=4 note=67 velocity=0 time=0
EXTRACT: note_on channel=4 note=58 velocity=0 time=0
EXTRACT: note_on channel=4 note=62 velocity=0 time=0
EXTRACT: note_on channel=5 note=70 velocity=0 time=0
EXTRACT: note_on channel=5 note=67 velocity=0 time=0
EXTRACT: note_on channel=5 note=62 velocity=0 time=0
EXTRACT: note_on channel=6 note=62 velocity=53 time=0
EXTRACT: note_on channel=4 note=58 velocity=65 time=0.011494250000000001
EXTRACT: note_on channel=4 note=55 velocity=58 time=0
EXTRACT: note_on channel=4 note=62 velocity=71 time=0
EXTRACT: note_on channel=4 note=67 velocity=60 time=0
EXTRACT: note_on channel=5 note=62 velocity=59 time=0
EXTRACT: note_on channel=5 note=67 velocity=67 time=0
EXTRACT: note_on channel=5 note=70 velocity=65 time=0
EXTRACT: note_on channel=6 note=67 velocity=0 time=0.293103375
EXTRACT: note_on channel=4 note=43 velocity=0 time=0.022988500000000002
EXTRACT: note_on channel=4 note=43 velocity=55 time=0.011494250000000001
EXTRACT: note_on channel=0 note=67 velocity=104 time=0.0057471250000000005
EXTRACT: note_on channel=4 note=62 velocity=0 time=0
EXTRACT: note_on channel=4 note=67 velocity=0 time=0
EXTRACT: note_on channel=4 note=58 velocity=0 time=0
EXTRACT: note_on channel=4 note=55 velocity=0 time=0
EXTRACT: note_on channel=5 note=70 velocity=0 time=0
EXTRACT: note_on channel=5 note=67 velocity=0 time=0
EXTRACT: note_on channel=5 note=62 velocity=0 time=0
EXTRACT: note_on channel=6 note=67 velocity=64 time=0
EXTRACT: note_on channel=6 note=65 velocity=0 time=0.0057471250000000005
EXTRACT: note_on channel=4 note=58 velocity=70 time=0.0057471250000000005
EXTRACT: note_on channel=4 note=55 velocity=63 time=0
EXTRACT: note_on channel=4 note=62 velocity=69 time=0
EXTRACT: note_on channel=4 note=67 velocity=63 time=0
EXTRACT: note_on channel=5 note=67 velocity=69 time=0
EXTRACT: note_on channel=5 note=62 velocity=65 time=0
EXTRACT: note_on channel=5 note=70 velocity=66 time=0
EXTRACT: note_on channel=4 note=43 velocity=0 time=0.14367812500000002
EXTRACT: note_on channel=4 note=43 velocity=55 time=0.011494250000000001
EXTRACT: note_on channel=4 note=62 velocity=0 time=0.0057471250000000005
EXTRACT: note_on channel=4 note=67 velocity=0 time=0
EXTRACT: note_on channel=4 note=58 velocity=0 time=0
EXTRACT: note_on channel=4 note=55 velocity=0 time=0
EXTRACT: note_on channel=5 note=70 velocity=0 time=0
EXTRACT: note_on channel=5 note=62 velocity=0 time=0
EXTRACT: note_on channel=5 note=67 velocity=0 time=0
EXTRACT: note_on channel=4 note=58 velocity=65 time=0.011494250000000001
EXTRACT: note_on channel=4 note=62 velocity=67 time=0
EXTRACT: note_on channel=4 note=55 velocity=57 time=0
EXTRACT: note_on channel=4 note=67 velocity=58 time=0
EXTRACT: note_on channel=5 note=62 velocity=48 time=0
EXTRACT: note_on channel=5 note=67 velocity=66 time=0
EXTRACT: note_on channel=5 note=70 velocity=63 time=0
EXTRACT: note_on channel=0 note=62 velocity=0 time=0.06321837500000001
EXTRACT: note_on channel=4 note=43 velocity=0 time=0.08045975000000001
EXTRACT: note_on channel=4 note=43 velocity=55 time=0.011494250000000001
EXTRACT: note_on channel=0 note=62 velocity=97 time=0.0057471250000000005
EXTRACT: note_on channel=4 note=55 velocity=0 time=0
EXTRACT: note_on channel=4 note=67 velocity=0 time=0
EXTRACT: note_on channel=4 note=58 velocity=0 time=0
EXTRACT: note_on channel=4 note=62 velocity=0 time=0
EXTRACT: note_on channel=5 note=70 velocity=0 time=0
EXTRACT: note_on channel=5 note=67 velocity=0 time=0
EXTRACT: note_on channel=5 note=62 velocity=0 time=0
EXTRACT: note_on channel=6 note=65 velocity=58 time=0
EXTRACT: note_on channel=4 note=58 velocity=68 time=0.011494250000000001
EXTRACT: note_on channel=4 note=55 velocity=63 time=0
EXTRACT: note_on channel=4 note=62 velocity=69 time=0
EXTRACT: note_on channel=4 note=67 velocity=61 time=0
EXTRACT: note_on channel=5 note=62 velocity=55 time=0
EXTRACT: note_on channel=5 note=67 velocity=67 time=0
EXTRACT: note_on channel=5 note=70 velocity=63 time=0
EXTRACT: pitchwheel channel=7 pitch=-128 time=0.10919537500000001
EXTRACT: pitchwheel channel=7 pitch=-256 time=0.0057471250000000005
EXTRACT: pitchwheel channel=7 pitch=-384 time=0.0057471250000000005
EXTRACT: pitchwheel channel=7 pitch=-512 time=0.0057471250000000005
EXTRACT: pitchwheel channel=7 pitch=-640 time=0.0057471250000000005
EXTRACT: pitchwheel channel=7 pitch=-768 time=0.0057471250000000005
EXTRACT: note_on channel=4 note=43 velocity=0 time=0.0057471250000000005
EXTRACT: pitchwheel channel=7 pitch=-896 time=0
EXTRACT: pitchwheel channel=7 pitch=-1152 time=0.0057471250000000005
EXTRACT: note_on channel=4 note=43 velocity=55 time=0.0057471250000000005
EXTRACT: pitchwheel channel=7 pitch=-1408 time=0
EXTRACT: note_on channel=4 note=62 velocity=0 time=0.0057471250000000005
EXTRACT: note_on channel=4 note=67 velocity=0 time=0
EXTRACT: note_on channel=4 note=58 velocity=0 time=0
EXTRACT: note_on channel=4 note=55 velocity=0 time=0
EXTRACT: note_on channel=5 note=70 velocity=0 time=0
EXTRACT: note_on channel=5 note=67 velocity=0 time=0
EXTRACT: note_on channel=5 note=62 velocity=0 time=0
EXTRACT: pitchwheel channel=7 pitch=-1664 time=0
EXTRACT: pitchwheel channel=7 pitch=-1792 time=0.0057471250000000005
EXTRACT: note_on channel=4 note=58 velocity=59 time=0.0057471250000000005
EXTRACT: note_on channel=4 note=67 velocity=59 time=0
EXTRACT: note_on channel=4 note=55 velocity=59 time=0
EXTRACT: note_on channel=4 note=62 velocity=59 time=0
EXTRACT: note_on channel=5 note=62 velocity=63 time=0
EXTRACT: note_on channel=5 note=67 velocity=63 time=0
EXTRACT: note_on channel=5 note=70 velocity=63 time=0
EXTRACT: pitchwheel channel=7 pitch=-2048 time=0
EXTRACT: pitchwheel channel=7 pitch=-2304 time=0.0057471250000000005
EXTRACT: pitchwheel channel=7 pitch=-2432 time=0.0057471250000000005
EXTRACT: pitchwheel channel=7 pitch=-2688 time=0.0057471250000000005
EXTRACT: pitchwheel channel=7 pitch=-3072 time=0.0057471250000000005
EXTRACT: pitchwheel channel=7 pitch=-3200 time=0.0057471250000000005
EXTRACT: pitchwheel channel=7 pitch=-3328 time=0.0057471250000000005
EXTRACT: pitchwheel channel=7 pitch=-3584 time=0.0057471250000000005
EXTRACT: pitchwheel channel=7 pitch=-3840 time=0.0057471250000000005
EXTRACT: pitchwheel channel=7 pitch=-4096 time=0.0057471250000000005
EXTRACT: note_on channel=2 note=31 velocity=0 time=0.0057471250000000005
EXTRACT: pitchwheel channel=7 pitch=-4224 time=0
EXTRACT: pitchwheel channel=7 pitch=-4480 time=0.0057471250000000005
EXTRACT: pitchwheel channel=7 pitch=-4608 time=0.0057471250000000005
EXTRACT: pitchwheel channel=7 pitch=-4864 time=0.0057471250000000005
EXTRACT: pitchwheel channel=7 pitch=-4992 time=0.0057471250000000005
EXTRACT: note_on channel=6 note=62 velocity=0 time=0.0057471250000000005
EXTRACT: pitchwheel channel=7 pitch=-5120 time=0
EXTRACT: pitchwheel channel=7 pitch=-5248 time=0.0057471250000000005
EXTRACT: pitchwheel channel=7 pitch=-5504 time=0.0057471250000000005
EXTRACT: note_on channel=0 note=82 velocity=0 time=0.0057471250000000005
EXTRACT: pitchwheel channel=7 pitch=-5632 time=0
EXTRACT: note_on channel=0 note=70 velocity=0 time=0.0057471250000000005
EXTRACT: pitchwheel channel=7 pitch=-5760 time=0
EXTRACT: pitchwheel channel=7 pitch=-5888 time=0.0057471250000000005
EXTRACT: note_on channel=6 note=67 velocity=0 time=0.011494250000000001
EXTRACT: pitchwheel channel=7 pitch=-6016 time=0
EXTRACT: pitchwheel channel=7 pitch=-5888 time=0.011494250000000001
EXTRACT: note_on channel=4 note=43 velocity=0 time=0.0057471250000000005
EXTRACT: pitchwheel channel=7 pitch=-5760 time=0
EXTRACT: note_on channel=2 note=27 velocity=92 time=0.0057471250000000005
EXTRACT: note_on channel=6 note=67 velocity=62 time=0
EXTRACT: note_on channel=7 note=43 velocity=0 time=0
EXTRACT: pitchwheel channel=7 pitch=-4736 time=0
EXTRACT: note_on channel=9 note=36 velocity=114 time=0
EXTRACT: note_on channel=9 note=46 velocity=81 time=0
EXTRACT: note_on channel=4 note=39 velocity=55 time=0.0057471250000000005
EXTRACT: note_on channel=6 note=65 velocity=0 time=0
EXTRACT: pitchwheel channel=7 pitch=-3968 time=0
EXTRACT: note_on channel=9 note=46 velocity=0 time=0
EXTRACT: note_on channel=9 note=36 velocity=0 time=0
EXTRACT: note_on channel=0 note=63 velocity=104 time=0.0057471250000000005
EXTRACT: note_on channel=4 note=55 velocity=0 time=0
EXTRACT: note_on channel=4 note=62 velocity=0 time=0
EXTRACT: note_on channel=4 note=58 velocity=0 time=0
EXTRACT: note_on channel=4 note=67 velocity=0 time=0
EXTRACT: note_on channel=5 note=70 velocity=0 time=0
EXTRACT: note_on channel=5 note=67 velocity=0 time=0
EXTRACT: note_on channel=5 note=62 velocity=0 time=0
EXTRACT: pitchwheel channel=7 pitch=-2432 time=0
EXTRACT: note_on channel=7 note=39 velocity=72 time=0
EXTRACT: note_on channel=5 note=70 velocity=65 time=0.0057471250000000005
EXTRACT: pitchwheel channel=7 pitch=-384 time=0
EXTRACT: pitchwheel channel=7 pitch=-896 time=0
EXTRACT: note_on channel=0 note=62 velocity=0 time=0.0057471250000000005
EXTRACT: note_on channel=4 note=63 velocity=64 time=0
EXTRACT: note_on channel=4 note=67 velocity=63 time=0
EXTRACT: note_on channel=4 note=58 velocity=65 time=0
EXTRACT: note_on channel=4 note=55 velocity=64 time=0
EXTRACT: note_on channel=5 note=67 velocity=74 time=0
EXTRACT: pitchwheel channel=7 pitch=0 time=0
EXTRACT: note_on channel=4 note=39 velocity=0 time=0.316091875
EXTRACT: note_on channel=9 note=28 velocity=72 time=0.0057471250000000005
EXTRACT: note_on channel=4 note=39 velocity=55 time=0.0057471250000000005
EXTRACT: note_on channel=5 note=70 velocity=0 time=0
EXTRACT: note_on channel=9 note=28 velocity=0 time=0
EXTRACT: note_on channel=4 note=58 velocity=0 time=0.0057471250000000005
EXTRACT: note_on channel=4 note=55 velocity=0 time=0
EXTRACT: note_on channel=4 note=63 velocity=0 time=0
EXTRACT: note_on channel=4 note=67 velocity=0 time=0
EXTRACT: note_on channel=5 note=67 velocity=0 time=0
EXTRACT: note_on channel=6 note=63 velocity=56 time=0
EXTRACT: note_on channel=4 note=58 velocity=61 time=0.011494250000000001
EXTRACT: note_on channel=4 note=63 velocity=63 time=0
EXTRACT: note_on channel=4 note=55 velocity=58 time=0
EXTRACT: note_on channel=4 note=67 velocity=56 time=0
EXTRACT: note_on channel=5 note=67 velocity=73 time=0
EXTRACT: note_on channel=5 note=70 velocity=63 time=0
EXTRACT: note_on channel=0 note=67 velocity=0 time=0.12068962500000001
EXTRACT: note_on channel=2 note=27 velocity=0 time=0.09195400000000001
EXTRACT: note_on channel=6 note=67 velocity=0 time=0.09195400000000001
EXTRACT: note_on channel=4 note=39 velocity=0 time=0.011494250000000001
EXTRACT: note_on channel=4 note=39 velocity=55 time=0.011494250000000001
EXTRACT: note_on channel=4 note=55 velocity=0 time=0.0057471250000000005
EXTRACT: note_on channel=4 note=67 velocity=0 time=0
EXTRACT: note_on channel=4 note=58 velocity=0 time=0
EXTRACT: note_on channel=4 note=63 velocity=0 time=0
EXTRACT: note_on channel=5 note=70 velocity=0 time=0
EXTRACT: note_on channel=5 note=67 velocity=0 time=0
EXTRACT: note_on channel=6 note=67 velocity=64 time=0
EXTRACT: note_on channel=4 note=58 velocity=65 time=0.011494250000000001
EXTRACT: note_on channel=4 note=67 velocity=65 time=0
EXTRACT: note_on channel=4 note=63 velocity=67 time=0
EXTRACT: note_on channel=4 note=55 velocity=62 time=0
EXTRACT: note_on channel=5 note=67 velocity=74 time=0
EXTRACT: note_on channel=5 note=70 velocity=76 time=0
EXTRACT: note_on channel=9 note=28 velocity=65 time=0.14942525
EXTRACT: note_on channel=9 note=28 velocity=0 time=0.0057471250000000005
EXTRACT: note_on channel=4 note=39 velocity=0 time=0.16091950000000002
EXTRACT: note_on channel=5 note=67 velocity=0 time=0.0057471250000000005
EXTRACT: note_on channel=4 note=39 velocity=55 time=0.0057471250000000005
EXTRACT: note_on channel=4 note=63 velocity=0 time=0.0057471250000000005
EXTRACT: note_on channel=4 note=55 velocity=0 time=0
EXTRACT: note_on channel=4 note=58 velocity=0 time=0
EXTRACT: note_on channel=4 note=67 velocity=0 time=0
EXTRACT: note_on channel=5 note=70 velocity=0 time=0
EXTRACT: note_on channel=6 note=65 velocity=55 time=0
EXTRACT: note_on channel=4 note=58 velocity=59 time=0.011494250000000001
EXTRACT: note_on channel=4 note=63 velocity=61 time=0
EXTRACT: note_on channel=4 note=67 velocity=58 time=0
EXTRACT: note_on channel=4 note=55 velocity=57 time=0
EXTRACT: note_on channel=5 note=67 velocity=67 time=0
EXTRACT: note_on channel=5 note=70 velocity=67 time=0
EXTRACT: note_on channel=4 note=39 velocity=0 time=0.14367812500000002
EXTRACT: note_on channel=3 note=58 velocity=95 time=0
EXTRACT: note_on channel=4 note=39 velocity=55 time=0.0057471250000000005
EXTRACT: note_on channel=4 note=67 velocity=0 time=0.0057471250000000005
EXTRACT: note_on channel=4 note=55 velocity=0 time=0
EXTRACT: note_on channel=4 note=58 velocity=0 time=0
EXTRACT: note_on channel=4 note=63 velocity=0 time=0
EXTRACT: note_on channel=5 note=70 velocity=0 time=0
EXTRACT: note_on channel=5 note=67 velocity=0 time=0
EXTRACT: note_on channel=4 note=58 velocity=67 time=0.011494250000000001
EXTRACT: note_on channel=4 note=55 velocity=61 time=0
EXTRACT: note_on channel=4 note=63 velocity=65 time=0
EXTRACT: note_on channel=4 note=67 velocity=59 time=0
EXTRACT: note_on channel=5 note=70 velocity=75 time=0
EXTRACT: note_on channel=5 note=67 velocity=75 time=0
EXTRACT: note_on channel=6 note=67 velocity=0 time=0.09195400000000001
EXTRACT: note_on channel=3 note=58 velocity=0 time=0.034482750000000006
EXTRACT: note_on channel=3 note=63 velocity=109 time=0
EXTRACT: note_on channel=9 note=28 velocity=81 time=0
EXTRACT: note_on channel=9 note=28 velocity=0 time=0.0057471250000000005
EXTRACT: note_on channel=0 note=67 velocity=98 time=0.0057471250000000005
EXTRACT: note_on channel=6 note=67 velocity=62 time=0
EXTRACT: note_on channel=4 note=39 velocity=0 time=0.155172375
EXTRACT: note_on channel=9 note=28 velocity=60 time=0.0057471250000000005
EXTRACT: note_on channel=4 note=39 velocity=55 time=0.0057471250000000005
EXTRACT: note_on channel=9 note=28 velocity=0 time=0
EXTRACT: note_on channel=4 note=63 velocity=0 time=0.0057471250000000005
EXTRACT: note_on channel=4 note=67 velocity=0 time=0
EXTRACT: note_on channel=4 note=58 velocity=0 time=0
EXTRACT: note_on channel=4 note=55 velocity=0 time=0
EXTRACT: note_on channel=5 note=67 velocity=0 time=0
EXTRACT: note_on channel=5 note=70 velocity=0 time=0
EXTRACT: note_on channel=4 note=58 velocity=61 time=0.011494250000000001
EXTRACT: note_on channel=4 note=67 velocity=59 time=0
EXTRACT: note_on channel=4 note=63 velocity=61 time=0
EXTRACT: note_on channel=4 note=55 velocity=58 time=0
EXTRACT: note_on channel=5 note=67 velocity=70 time=0
EXTRACT: note_on channel=5 note=70 velocity=67 time=0
EXTRACT: note_on channel=0 note=63 velocity=0 time=0.028735625
EXTRACT: note_on channel=3 note=63 velocity=0 time=0.06896550000000001
EXTRACT: note_on channel=6 note=63 velocity=0 time=0.011494250000000001
EXTRACT: note_on channel=4 note=39 velocity=0 time=0.034482750000000006
EXTRACT: note_on channel=3 note=62 velocity=95 time=0
EXTRACT: note_on channel=9 note=28 velocity=58 time=0
EXTRACT: note_on channel=4 note=39 velocity=55 time=0.0057471250000000005
EXTRACT: note_on channel=9 note=28 velocity=0 time=0
EXTRACT: note_on channel=4 note=63 velocity=0 time=0.0057471250000000005
EXTRACT: note_on channel=4 note=55 velocity=0 time=0
EXTRACT: note_on channel=4 note=58 velocity=0 time=0
EXTRACT: note_on channel=4 note=67 velocity=0 time=0
EXTRACT: note_on channel=5 note=70 velocity=0 time=0
EXTRACT: note_on channel=5 note=67 velocity=0 time=0
EXTRACT: note_on channel=6 note=63 velocity=53 time=0
EXTRACT: note_on channel=4 note=58 velocity=68 time=0.011494250000000001
EXTRACT: note_on channel=4 note=67 velocity=65 time=0
EXTRACT: note_on channel=4 note=63 velocity=68 time=0
EXTRACT: note_on channel=4 note=55 velocity=60 time=0
EXTRACT: note_on channel=5 note=67 velocity=81 time=0
EXTRACT: note_on channel=5 note=70 velocity=74 time=0
EXTRACT: note_on channel=3 note=62 velocity=0 time=0.12068962500000001
EXTRACT: note_on channel=3 note=62 velocity=107 time=0
EXTRACT: note_on channel=6 note=67 velocity=0 time=0.14367812500000002
EXTRACT: note_on channel=4 note=39 velocity=0 time=0.022988500000000002
EXTRACT: note_on channel=0 note=63 velocity=104 time=0.0057471250000000005
EXTRACT: note_on channel=4 note=39 velocity=55 time=0.0057471250000000005
EXTRACT: note_on channel=4 note=63 velocity=0 time=0.0057471250000000005
EXTRACT: note_on channel=4 note=55 velocity=0 time=0
EXTRACT: note_on channel=4 note=58 velocity=0 time=0
EXTRACT: note_on channel=4 note=67 velocity=0 time=0
EXTRACT: note_on channel=5 note=70 velocity=0 time=0
EXTRACT: note_on channel=5 note=67 velocity=0 time=0
EXTRACT: note_on channel=6 note=67 velocity=64 time=0
EXTRACT: note_on channel=6 note=65 velocity=0 time=0.0057471250000000005
EXTRACT: note_on channel=4 note=67 velocity=65 time=0.0057471250000000005
EXTRACT: note_on channel=4 note=58 velocity=69 time=0
EXTRACT: note_on channel=4 note=63 velocity=69 time=0
EXTRACT: note_on channel=4 note=55 velocity=63 time=0
EXTRACT: note_on channel=5 note=70 velocity=66 time=0
EXTRACT: note_on channel=5 note=67 velocity=66 time=0
EXTRACT: note_on channel=4 note=39 velocity=0 time=0.14367812500000002
EXTRACT: note_on channel=4 note=39 velocity=55 time=0.011494250000000001
EXTRACT: note_on channel=4 note=63 velocity=0 time=0.0057471250000000005
EXTRACT: note_on channel=4 note=55 velocity=0 time=0
EXTRACT: note_on channel=4 note=67 velocity=0 time=0
EXTRACT: note_on channel=4 note=58 velocity=0 time=0
EXTRACT: note_on channel=5 note=67 velocity=0 time=0
EXTRACT: note_on channel=5 note=70 velocity=0 time=0
EXTRACT: note_on channel=4 note=58 velocity=67 time=0.011494250000000001
EXTRACT: note_on channel=4 note=63 velocity=67 time=0
EXTRACT: note_on channel=4 note=67 velocity=60 time=0
EXTRACT: note_on channel=4 note=55 velocity=61 time=0
EXTRACT: note_on channel=5 note=67 velocity=64 time=0
EXTRACT: note_on channel=5 note=70 velocity=69 time=0
EXTRACT: note_on channel=3 note=62 velocity=0 time=0.074712625
EXTRACT: pitchwheel channel=7 pitch=-128 time=0.011494250000000001
EXTRACT: pitchwheel channel=7 pitch=-256 time=0.017241375000000003
EXTRACT: pitchwheel channel=7 pitch=-384 time=0.011494250000000001
EXTRACT: pitchwheel channel=7 pitch=-512 time=0.017241375000000003
EXTRACT: note_on channel=4 note=39 velocity=0 time=0.011494250000000001
EXTRACT: pitchwheel channel=7 pitch=-640 time=0
EXTRACT: note_on channel=3 note=58 velocity=97 time=0
EXTRACT: note_on channel=0 note=62 velocity=95 time=0
EXTRACT: note_on channel=4 note=39 velocity=55 time=0.0057471250000000005
EXTRACT: note_on channel=4 note=67 velocity=0 time=0.0057471250000000005
EXTRACT: note_on channel=4 note=55 velocity=0 time=0
EXTRACT: note_on channel=4 note=58 velocity=0 time=0
EXTRACT: note_on channel=4 note=63 velocity=0 time=0
EXTRACT: note_on channel=5 note=70 velocity=0 time=0
EXTRACT: note_on channel=5 note=67 velocity=0 time=0
EXTRACT: note_on channel=6 note=65 velocity=58 time=0
EXTRACT: pitchwheel channel=7 pitch=-768 time=0
EXTRACT: note_on channel=4 note=58 velocity=66 time=0.011494250000000001
EXTRACT: note_on channel=4 note=67 velocity=60 time=0
EXTRACT: note_on channel=4 note=63 velocity=69 time=0
EXTRACT: note_on channel=4 note=55 velocity=60 time=0
EXTRACT: note_on channel=5 note=67 velocity=70 time=0
EXTRACT: note_on channel=5 note=70 velocity=68 time=0
EXTRACT: pitchwheel channel=7 pitch=-896 time=0
EXTRACT: pitchwheel channel=7 pitch=-1024 time=0.011494250000000001
EXTRACT: pitchwheel channel=7 pitch=-1152 time=0.011494250000000001
EXTRACT: pitchwheel channel=7 pitch=-1280 time=0.0057471250000000005
EXTRACT: pitchwheel channel=7 pitch=-1408 time=0.017241375000000003
EXTRACT: pitchwheel channel=7 pitch=-1536 time=0.0057471250000000005
EXTRACT: pitchwheel channel=7 pitch=-1664 time=0.011494250000000001
EXTRACT: pitchwheel channel=7 pitch=-1792 time=0.011494250000000001
EXTRACT: pitchwheel channel=7 pitch=-1920 time=0.0057471250000000005
EXTRACT: pitchwheel channel=7 pitch=-2048 time=0.011494250000000001
EXTRACT: pitchwheel channel=7 pitch=-2176 time=0.011494250000000001
EXTRACT: pitchwheel channel=7 pitch=-2304 time=0.0057471250000000005
EXTRACT: pitchwheel channel=7 pitch=-2432 time=0.011494250000000001
EXTRACT: note_on channel=3 note=58 velocity=0 time=0.0057471250000000005
EXTRACT: pitchwheel channel=7 pitch=-2560 time=0
EXTRACT: pitchwheel channel=7 pitch=-2688 time=0.011494250000000001
EXTRACT: note_on channel=4 note=39 velocity=0 time=0.0057471250000000005
EXTRACT: pitchwheel channel=7 pitch=-2816 time=0
EXTRACT: note_on channel=3 note=58 velocity=109 time=0
EXTRACT: note_on channel=4 note=39 velocity=55 time=0
EXTRACT: pitchwheel channel=7 pitch=-3072 time=0
EXTRACT: note_on channel=4 note=63 velocity=0 time=0.0057471250000000005
EXTRACT: note_on channel=4 note=55 velocity=0 time=0
EXTRACT: note_on channel=4 note=58 velocity=0 time=0
EXTRACT: note_on channel=4 note=67 velocity=0 time=0
EXTRACT: note_on channel=5 note=70 velocity=0 time=0
EXTRACT: note_on channel=5 note=67 velocity=0 time=0
EXTRACT: pitchwheel channel=7 pitch=-3200 time=0.0057471250000000005
EXTRACT: note_on channel=4 note=67 velocity=57 time=0.0057471250000000005
EXTRACT: note_on channel=4 note=58 velocity=57 time=0
EXTRACT: note_on channel=4 note=55 velocity=57 time=0
EXTRACT: note_on channel=4 note=63 velocity=57 time=0
EXTRACT: note_on channel=5 note=67 velocity=63 time=0
EXTRACT: note_on channel=5 note=70 velocity=63 time=0
EXTRACT: pitchwheel channel=7 pitch=-3328 time=0
EXTRACT: pitchwheel channel=7 pitch=-3456 time=0.011494250000000001
EXTRACT: pitchwheel channel=7 pitch=-3584 time=0.0057471250000000005
EXTRACT: pitchwheel channel=7 pitch=-3712 time=0.0057471250000000005
EXTRACT: pitchwheel channel=7 pitch=-3840 time=0.0057471250000000005
EXTRACT: pitchwheel channel=7 pitch=-3840 time=0.017241375000000003
EXTRACT: pitchwheel channel=7 pitch=-3584 time=0.0057471250000000005
EXTRACT: pitchwheel channel=7 pitch=-2816 time=0.0057471250000000005
EXTRACT: pitchwheel channel=7 pitch=-1792 time=0.0057471250000000005
EXTRACT: pitchwheel channel=7 pitch=-1024 time=0.0057471250000000005
EXTRACT: pitchwheel channel=7 pitch=0 time=0.0057471250000000005
EXTRACT: note_on channel=6 note=63 velocity=0 time=0.011494250000000001
EXTRACT: note_on channel=0 note=62 velocity=0 time=0.0057471250000000005
EXTRACT: note_on channel=6 note=67 velocity=0 time=0.034482750000000006
EXTRACT: note_on channel=6 note=65 velocity=0 time=0.0057471250000000005
EXTRACT: note_on channel=7 note=39 velocity=0 time=0
EXTRACT: note_on channel=4 note=39 velocity=0 time=0.011494250000000001
EXTRACT: note_on channel=2 note=34 velocity=93 time=0.0057471250000000005
EXTRACT: note_on channel=6 note=67 velocity=62 time=0
EXTRACT: note_on channel=9 note=36 velocity=113 time=0
EXTRACT: note_on channel=9 note=46 velocity=80 time=0
EXTRACT: note_on channel=4 note=46 velocity=55 time=0.0057471250000000005
EXTRACT: note_on channel=7 note=46 velocity=73 time=0
EXTRACT: note_on channel=9 note=46 velocity=0 time=0
EXTRACT: note_on channel=9 note=36 velocity=0 time=0
EXTRACT: note_on channel=0 note=62 velocity=108 time=0.0057471250000000005
EXTRACT: note_on channel=4 note=55 velocity=0 time=0
EXTRACT: note_on channel=4 note=63 velocity=0 time=0
EXTRACT: note_on channel=4 note=67 velocity=0 time=0
EXTRACT: note_on channel=4 note=58 velocity=0 time=0
EXTRACT: note_on channel=5 note=70 velocity=0 time=0
EXTRACT: note_on channel=5 note=67 velocity=0 time=0
EXTRACT: note_on channel=0 note=67 velocity=0 time=0.0057471250000000005
EXTRACT: note_on channel=4 note=58 velocity=74 time=0.0057471250000000005
EXTRACT: note_on channel=4 note=62 velocity=69 time=0
EXTRACT: note_on channel=4 note=65 velocity=66 time=0
EXTRACT: note_on channel=4 note=53 velocity=66 time=0
EXTRACT: note_on channel=5 note=65 velocity=74 time=0
EXTRACT: note_on channel=5 note=70 velocity=63 time=0
EXTRACT: note_on channel=0 note=63 velocity=0 time=0.017241375000000003
EXTRACT: note_on channel=4 note=46 velocity=0 time=0.2988505
EXTRACT: note_on channel=9 note=28 velocity=71 time=0.0057471250000000005
EXTRACT: note_on channel=4 note=46 velocity=55 time=0.0057471250000000005
EXTRACT: note_on channel=9 note=28 velocity=0 time=0
EXTRACT: note_on channel=4 note=65 velocity=0 time=0.0057471250000000005
EXTRACT: note_on channel=4 note=53 velocity=0 time=0
EXTRACT: note_on channel=4 note=58 velocity=0 time=0
EXTRACT: note_on channel=4 note=62 velocity=0 time=0
EXTRACT: note_on channel=5 note=70 velocity=0 time=0
EXTRACT: note_on channel=5 note=65 velocity=0 time=0
EXTRACT: note_on channel=6 note=62 velocity=56 time=0
EXTRACT: note_on channel=4 note=53 velocity=60 time=0.011494250000000001
EXTRACT: note_on channel=4 note=58 velocity=61 time=0
EXTRACT: note_on channel=4 note=62 velocity=61 time=0
EXTRACT: note_on channel=4 note=65 velocity=59 time=0
EXTRACT: note_on channel=5 note=70 velocity=62 time=0
EXTRACT: note_on channel=5 note=65 velocity=64 time=0
EXTRACT: note_on channel=2 note=34 velocity=0 time=0.19540225000000003
EXTRACT: note_on channel=6 note=67 velocity=0 time=0.10919537500000001
EXTRACT: note_on channel=4 note=46 velocity=0 time=0.011494250000000001
EXTRACT: note_on channel=4 note=46 velocity=55 time=0.011494250000000001
EXTRACT: note_on channel=3 note=58 velocity=0 time=0.0057471250000000005
EXTRACT: note_on channel=4 note=62 velocity=0 time=0
EXTRACT: note_on channel=4 note=65 velocity=0 time=0
EXTRACT: note_on channel=4 note=53 velocity=0 time=0
EXTRACT: note_on channel=4 note=58 velocity=0 time=0
EXTRACT: note_on channel=5 note=65 velocity=0 time=0
EXTRACT: note_on channel=5 note=70 velocity=0 time=0
EXTRACT: note_on channel=6 note=67 velocity=64 time=0
EXTRACT: note_on channel=5 note=65 velocity=74 time=0.0057471250000000005
EXTRACT: note_on channel=4 note=58 velocity=65 time=0.0057471250000000005
EXTRACT: note_on channel=4 note=53 velocity=64 time=0
EXTRACT: note_on channel=4 note=62 velocity=67 time=0
EXTRACT: note_on channel=4 note=65 velocity=63 time=0
EXTRACT: note_on channel=5 note=70 velocity=65 time=0
EXTRACT: note_on channel=9 note=28 velocity=65 time=0.14942525
EXTRACT: note_on channel=9 note=28 velocity=0 time=0.0057471250000000005
EXTRACT: note_on channel=4 note=46 velocity=0 time=0.16091950000000002
EXTRACT: note_on channel=4 note=46 velocity=55 time=0.011494250000000001
EXTRACT: note_on channel=5 note=65 velocity=0 time=0
EXTRACT: note_on channel=4 note=62 velocity=0 time=0.0057471250000000005
EXTRACT: note_on channel=4 note=65 velocity=0 time=0
EXTRACT: note_on channel=4 note=58 velocity=0 time=0
EXTRACT: note_on channel=4 note=53 velocity=0 time=0
EXTRACT: note_on channel=5 note=70 velocity=0 time=0
EXTRACT: note_on channel=5 note=70 velocity=61 time=0
EXTRACT: note_on channel=5 note=65 velocity=64 time=0
EXTRACT: note_on channel=6 note=65 velocity=55 time=0
EXTRACT: note_on channel=4 note=53 velocity=60 time=0.011494250000000001
EXTRACT: note_on channel=4 note=62 velocity=64 time=0
EXTRACT: note_on channel=4 note=58 velocity=59 time=0
EXTRACT: note_on channel=4 note=65 velocity=59 time=0
EXTRACT: note_on channel=4 note=46 velocity=0 time=0.14367812500000002
EXTRACT: note_on channel=5 note=65 velocity=0 time=0.0057471250000000005
EXTRACT: note_on channel=5 note=70 velocity=0 time=0
EXTRACT: note_on channel=4 note=46 velocity=55 time=0.0057471250000000005
EXTRACT: note_on channel=4 note=58 velocity=0 time=0.0057471250000000005
EXTRACT: note_on channel=4 note=65 velocity=0 time=0
EXTRACT: note_on channel=4 note=53 velocity=0 time=0
EXTRACT: note_on channel=4 note=62 velocity=0 time=0
EXTRACT: note_on channel=5 note=70 velocity=65 time=0
EXTRACT: note_on channel=5 note=65 velocity=72 time=0
EXTRACT: note_on channel=4 note=58 velocity=67 time=0.011494250000000001
EXTRACT: note_on channel=4 note=53 velocity=63 time=0
EXTRACT: note_on channel=4 note=65 velocity=60 time=0
EXTRACT: note_on channel=4 note=62 velocity=66 time=0
EXTRACT: note_on channel=6 note=67 velocity=0 time=0.09195400000000001
EXTRACT: note_on channel=9 note=84 velocity=80 time=0.05747125
EXTRACT: note_on channel=9 note=28 velocity=80 time=0
EXTRACT: note_on channel=9 note=28 velocity=0 time=0.0057471250000000005
EXTRACT: note_on channel=9 note=84 velocity=0 time=0
EXTRACT: note_on channel=6 note=67 velocity=62 time=0.0057471250000000005
EXTRACT: note_on channel=4 note=46 velocity=0 time=0.155172375
EXTRACT: note_on channel=5 note=65 velocity=0 time=0.0057471250000000005
EXTRACT: note_on channel=5 note=70 velocity=0 time=0
EXTRACT: note_on channel=9 note=28 velocity=61 time=0
EXTRACT: note_on channel=4 note=46 velocity=55 time=0.0057471250000000005
EXTRACT: note_on channel=9 note=28 velocity=0 time=0
EXTRACT: note_on channel=4 note=65 velocity=0 time=0.0057471250000000005
EXTRACT: note_on channel=4 note=62 velocity=0 time=0
EXTRACT: note_on channel=4 note=58 velocity=0 time=0
EXTRACT: note_on channel=4 note=53 velocity=0 time=0
EXTRACT: note_on channel=5 note=70 velocity=60 time=0
EXTRACT: note_on channel=5 note=65 velocity=64 time=0
EXTRACT: note_on channel=4 note=58 velocity=65 time=0.011494250000000001
EXTRACT: note_on channel=4 note=53 velocity=63 time=0
EXTRACT: note_on channel=4 note=62 velocity=65 time=0
EXTRACT: note_on channel=4 note=65 velocity=59 time=0
EXTRACT: note_on channel=0 note=62 velocity=0 time=0.086206875
EXTRACT: note_on channel=6 note=62 velocity=0 time=0.022988500000000002
EXTRACT: note_on channel=4 note=46 velocity=0 time=0.034482750000000006
EXTRACT: note_on channel=5 note=65 velocity=0 time=0.0057471250000000005
EXTRACT: note_on channel=5 note=70 velocity=0 time=0
EXTRACT: note_on channel=9 note=28 velocity=60 time=0
EXTRACT: note_on channel=4 note=46 velocity=55 time=0.0057471250000000005
EXTRACT: note_on channel=9 note=28 velocity=0 time=0
EXTRACT: note_on channel=0 note=58 velocity=104 time=0.0057471250000000005
EXTRACT: note_on channel=4 note=62 velocity=0 time=0
EXTRACT: note_on channel=4 note=65 velocity=0 time=0
EXTRACT: note_on channel=4 note=58 velocity=0 time=0
EXTRACT: note_on channel=4 note=53 velocity=0 time=0
EXTRACT: note_on channel=5 note=65 velocity=70 time=0
EXTRACT: note_on channel=5 note=70 velocity=65 time=0
EXTRACT: note_on channel=6 note=62 velocity=53 time=0
EXTRACT: note_on channel=4 note=58 velocity=64 time=0.011494250000000001
EXTRACT: note_on channel=4 note=53 velocity=64 time=0
EXTRACT: note_on channel=4 note=62 velocity=64 time=0
EXTRACT: note_on channel=4 note=65 velocity=59 time=0
EXTRACT: note_on channel=6 note=67 velocity=0 time=0.293103375
EXTRACT: note_on channel=4 note=46 velocity=0 time=0.022988500000000002
EXTRACT: note_on channel=5 note=70 velocity=0 time=0.0057471250000000005
EXTRACT: note_on channel=5 note=65 velocity=0 time=0
EXTRACT: note_on channel=9 note=84 velocity=87 time=0
EXTRACT: note_on channel=4 note=46 velocity=55 time=0.0057471250000000005
EXTRACT: note_on channel=9 note=84 velocity=0 time=0
EXTRACT: note_on channel=0 note=65 velocity=86 time=0.0057471250000000005
EXTRACT: note_on channel=4 note=62 velocity=0 time=0
EXTRACT: note_on channel=4 note=65 velocity=0 time=0
EXTRACT: note_on channel=4 note=58 velocity=0 time=0
EXTRACT: note_on channel=4 note=53 velocity=0 time=0
EXTRACT: note_on channel=6 note=67 velocity=64 time=0
EXTRACT: note_on channel=6 note=65 velocity=0 time=0.0057471250000000005
EXTRACT: note_on channel=4 note=58 velocity=75 time=0.0057471250000000005
EXTRACT: note_on channel=4 note=53 velocity=66 time=0
EXTRACT: note_on channel=4 note=62 velocity=69 time=0
EXTRACT: note_on channel=4 note=65 velocity=63 time=0
EXTRACT: note_on channel=5 note=70 velocity=72 time=0
EXTRACT: note_on channel=5 note=65 velocity=72 time=0
EXTRACT: note_on channel=4 note=46 velocity=0 time=0.14367812500000002
EXTRACT: note_on channel=4 note=46 velocity=55 time=0.011494250000000001
EXTRACT: note_on channel=4 note=62 velocity=0 time=0.0057471250000000005
EXTRACT: note_on channel=4 note=65 velocity=0 time=0
EXTRACT: note_on channel=4 note=58 velocity=0 time=0
EXTRACT: note_on channel=4 note=53 velocity=0 time=0
EXTRACT: note_on channel=5 note=65 velocity=0 time=0
EXTRACT: note_on channel=5 note=70 velocity=0 time=0
EXTRACT: note_on channel=4 note=58 velocity=66 time=0.011494250000000001
EXTRACT: note_on channel=4 note=53 velocity=64 time=0
EXTRACT: note_on channel=4 note=65 velocity=59 time=0
EXTRACT: note_on channel=4 note=62 velocity=66 time=0
EXTRACT: note_on channel=5 note=65 velocity=65 time=0
EXTRACT: note_on channel=5 note=70 velocity=63 time=0
EXTRACT: note_on channel=0 note=65 velocity=0 time=0.09195400000000001
EXTRACT: note_on channel=4 note=46 velocity=0 time=0.051724125
EXTRACT: note_on channel=4 note=46 velocity=55 time=0.011494250000000001
EXTRACT: note_on channel=0 note=65 velocity=108 time=0.0057471250000000005
EXTRACT: note_on channel=4 note=65 velocity=0 time=0
EXTRACT: note_on channel=4 note=62 velocity=0 time=0
EXTRACT: note_on channel=4 note=58 velocity=0 time=0
EXTRACT: note_on channel=4 note=53 velocity=0 time=0
EXTRACT: note_on channel=5 note=70 velocity=0 time=0
EXTRACT: note_on channel=5 note=65 velocity=0 time=0
EXTRACT: note_on channel=6 note=65 velocity=58 time=0
EXTRACT: note_on channel=4 note=53 velocity=60 time=0.011494250000000001
EXTRACT: note_on channel=4 note=58 velocity=63 time=0
EXTRACT: note_on channel=4 note=62 velocity=66 time=0
EXTRACT: note_on channel=4 note=65 velocity=58 time=0
EXTRACT: note_on channel=5 note=65 velocity=65 time=0
EXTRACT: note_on channel=5 note=70 velocity=61 time=0
EXTRACT: note_on channel=4 note=46 velocity=0 time=0.14367812500000002
EXTRACT: note_on channel=4 note=46 velocity=55 time=0.011494250000000001
EXTRACT: note_on channel=4 note=62 velocity=0 time=0.0057471250000000005
EXTRACT: note_on channel=4 note=65 velocity=0 time=0
EXTRACT: note_on channel=4 note=53 velocity=0 time=0
EXTRACT: note_on channel=4 note=58 velocity=0 time=0
EXTRACT: note_on channel=5 note=70 velocity=0 time=0
EXTRACT: note_on channel=5 note=65 velocity=0 time=0
EXTRACT: note_on channel=4 note=58 velocity=57 time=0.011494250000000001
EXTRACT: note_on channel=4 note=62 velocity=57 time=0
EXTRACT: note_on channel=4 note=65 velocity=57 time=0
EXTRACT: note_on channel=4 note=53 velocity=57 time=0
EXTRACT: note_on channel=5 note=65 velocity=63 time=0
EXTRACT: note_on channel=5 note=70 velocity=60 time=0
EXTRACT: note_on channel=0 note=65 velocity=0 time=0.074712625
EXTRACT: note_on channel=6 note=62 velocity=0 time=0.011494250000000001
EXTRACT: note_on channel=6 note=67 velocity=0 time=0.022988500000000002
EXTRACT: note_on channel=6 note=65 velocity=0 time=0.017241375000000003
EXTRACT: note_on channel=7 note=46 velocity=0 time=0
EXTRACT: note_on channel=4 note=46 velocity=0 time=0.017241375000000003
EXTRACT: note_on channel=2 note=33 velocity=93 time=0.0057471250000000005
EXTRACT: note_on channel=6 note=65 velocity=62 time=0
EXTRACT: note_on channel=7 note=45 velocity=71 time=0
EXTRACT: note_on channel=9 note=36 velocity=114 time=0
EXTRACT: note_on channel=9 note=46 velocity=81 time=0
EXTRACT: note_on channel=9 note=84 velocity=88 time=0
EXTRACT: note_on channel=0 note=65 velocity=108 time=0.0057471250000000005
EXTRACT: note_on channel=4 note=45 velocity=55 time=0
EXTRACT: note_on channel=9 note=84 velocity=0 time=0
EXTRACT: note_on channel=9 note=46 velocity=0 time=0
EXTRACT: note_on channel=9 note=36 velocity=0 time=0
EXTRACT: note_on channel=4 note=65 velocity=0 time=0.0057471250000000005
EXTRACT: note_on channel=4 note=53 velocity=0 time=0
EXTRACT: note_on channel=4 note=58 velocity=0 time=0
EXTRACT: note_on channel=4 note=62 velocity=0 time=0
EXTRACT: note_on channel=5 note=70 velocity=0 time=0
EXTRACT: note_on channel=5 note=65 velocity=0 time=0
EXTRACT: note_on channel=0 note=58 velocity=0 time=0.0057471250000000005
EXTRACT: note_on channel=4 note=60 velocity=33 time=0.0057471250000000005
EXTRACT: note_on channel=4 note=57 velocity=69 time=0
EXTRACT: note_on channel=4 note=65 velocity=33 time=0
EXTRACT: note_on channel=5 note=65 velocity=33 time=0
EXTRACT: note_on channel=5 note=70 velocity=45 time=0
EXTRACT: note_on channel=4 note=45 velocity=0 time=0.316091875
EXTRACT: note_on channel=9 note=28 velocity=54 time=0.0057471250000000005
EXTRACT: note_on channel=4 note=45 velocity=55 time=0.0057471250000000005
EXTRACT: note_on channel=9 note=28 velocity=0 time=0
EXTRACT: note_on channel=4 note=60 velocity=0 time=0.0057471250000000005
EXTRACT: note_on channel=4 note=65 velocity=0 time=0
EXTRACT: note_on channel=4 note=57 velocity=0 time=0
EXTRACT: note_on channel=5 note=70 velocity=0 time=0
EXTRACT: note_on channel=5 note=65 velocity=0 time=0
EXTRACT: note_on channel=6 note=60 velocity=56 time=0
EXTRACT: note_on channel=4 note=57 velocity=59 time=0.011494250000000001
EXTRACT: note_on channel=4 note=60 velocity=39 time=0
EXTRACT: note_on channel=4 note=65 velocity=39 time=0
EXTRACT: note_on channel=5 note=70 velocity=45 time=0
EXTRACT: note_on channel=5 note=65 velocity=39 time=0
EXTRACT: note_on channel=6 note=65 velocity=0 time=0.30459762500000004
EXTRACT: note_on channel=4 note=45 velocity=0 time=0.011494250000000001
EXTRACT: note_on channel=9 note=84 velocity=84 time=0.0057471250000000005
EXTRACT: note_on channel=4 note=45 velocity=55 time=0.0057471250000000005
EXTRACT: note_on channel=9 note=84 velocity=0 time=0
EXTRACT: note_on channel=4 note=57 velocity=0 time=0.0057471250000000005
EXTRACT: note_on channel=4 note=65 velocity=0 time=0
EXTRACT: note_on channel=4 note=60 velocity=0 time=0
EXTRACT: note_on channel=5 note=65 velocity=0 time=0
EXTRACT: note_on channel=5 note=70 velocity=0 time=0
EXTRACT: note_on channel=6 note=65 velocity=64 time=0
EXTRACT: note_on channel=4 note=60 velocity=45 time=0.011494250000000001
EXTRACT: note_on channel=4 note=65 velocity=45 time=0
EXTRACT: note_on channel=4 note=57 velocity=75 time=0
EXTRACT: note_on channel=5 note=70 velocity=45 time=0
EXTRACT: note_on channel=5 note=65 velocity=45 time=0
EXTRACT: note_on channel=2 note=33 velocity=0 time=0.011494250000000001
EXTRACT: note_on channel=9 note=28 velocity=53 time=0.13793100000000003
EXTRACT: note_on channel=9 note=28 velocity=0 time=0.0057471250000000005
EXTRACT: note_on channel=6 note=60 velocity=0 time=0.1149425
EXTRACT: note_on channel=4 note=45 velocity=0 time=0.045977000000000004
EXTRACT: note_on channel=9 note=40 velocity=52 time=0.0057471250000000005
EXTRACT: note_on channel=4 note=45 velocity=55 time=0.0057471250000000005
EXTRACT: note_on channel=9 note=40 velocity=0 time=0
EXTRACT: note_on channel=4 note=60 velocity=0 time=0.0057471250000000005
EXTRACT: note_on channel=4 note=57 velocity=0 time=0
EXTRACT: note_on channel=4 note=65 velocity=0 time=0
EXTRACT: note_on channel=5 note=65 velocity=0 time=0
EXTRACT: note_on channel=5 note=70 velocity=0 time=0
EXTRACT: note_on channel=4 note=57 velocity=60 time=0.011494250000000001
EXTRACT: note_on channel=4 note=65 velocity=51 time=0
EXTRACT: note_on channel=4 note=60 velocity=51 time=0
EXTRACT: note_on channel=5 note=65 velocity=51 time=0
EXTRACT: note_on channel=5 note=70 velocity=45 time=0
EXTRACT: note_on channel=4 note=45 velocity=0 time=0.14367812500000002
EXTRACT: note_on channel=9 note=40 velocity=58 time=0.0057471250000000005
EXTRACT: note_on channel=4 note=45 velocity=55 time=0.0057471250000000005
EXTRACT: note_on channel=9 note=40 velocity=0 time=0
EXTRACT: note_on channel=4 note=57 velocity=0 time=0.0057471250000000005
EXTRACT: note_on channel=4 note=60 velocity=0 time=0
EXTRACT: note_on channel=4 note=65 velocity=0 time=0
EXTRACT: note_on channel=5 note=70 velocity=0 time=0
EXTRACT: note_on channel=5 note=65 velocity=0 time=0
EXTRACT: note_on channel=4 note=60 velocity=55 time=0.011494250000000001
EXTRACT: note_on channel=4 note=57 velocity=74 time=0
EXTRACT: note_on channel=4 note=65 velocity=55 time=0
EXTRACT: note_on channel=5 note=65 velocity=55 time=0
EXTRACT: note_on channel=5 note=70 velocity=45 time=0
EXTRACT: note_on channel=6 note=65 velocity=0 time=0.09195400000000001
EXTRACT: note_on channel=4 note=45 velocity=0 time=0.051724125
EXTRACT: note_on channel=9 note=40 velocity=103 time=0.0057471250000000005
EXTRACT: note_on channel=0 note=65 velocity=0 time=0.0057471250000000005
EXTRACT: note_on channel=9 note=40 velocity=0 time=0
EXTRACT: note_on channel=4 note=60 velocity=0 time=0.0057471250000000005
EXTRACT: note_on channel=4 note=57 velocity=0 time=0
EXTRACT: note_on channel=7 note=45 velocity=0 time=0.011494250000000001
EXTRACT: note_on channel=9 note=40 velocity=81 time=0.14942525
EXTRACT: note_on channel=9 note=40 velocity=0 time=0.0057471250000000005
EXTRACT: note_on channel=4 note=65 velocity=0 time=0.0057471250000000005
EXTRACT: note_on channel=5 note=70 velocity=0 time=0
EXTRACT: note_on channel=5 note=65 velocity=0 time=0
EXTRACT: note_on channel=9 note=40 velocity=79 time=0.16091950000000002
EXTRACT: note_on channel=9 note=40 velocity=0 time=0.0057471250000000005
EXTRACT: note_on channel=9 note=40 velocity=72 time=0.166666625
EXTRACT: note_on channel=9 note=40 velocity=0 time=0.0057471250000000005
EXTRACT: note_on channel=3 note=58 velocity=102 time=0
EXTRACT: note_on channel=9 note=40 velocity=74 time=0.0057471250000000005
EXTRACT: note_on channel=9 note=40 velocity=0 time=0.0057471250000000005
EXTRACT: note_on channel=3 note=58 velocity=0 time=0.12643675000000001
EXTRACT: note_on channel=3 note=58 velocity=99 time=0
EXTRACT: note_on channel=9 note=40 velocity=53 time=0.0057471250000000005
EXTRACT: note_on channel=9 note=40 velocity=0 time=0.0057471250000000005
EXTRACT: note_on channel=3 note=58 velocity=0 time=0.10919537500000001
EXTRACT: note_on channel=3 note=62 velocity=100 time=0
EXTRACT: note_on channel=9 note=40 velocity=51 time=0.0057471250000000005
EXTRACT: note_on channel=9 note=40 velocity=0 time=0.0057471250000000005
EXTRACT: note_on channel=3 note=62 velocity=0 time=0.10919537500000001
EXTRACT: note_on channel=3 note=62 velocity=100 time=0
EXTRACT: note_on channel=9 note=40 velocity=33 time=0.0057471250000000005
EXTRACT: note_on channel=9 note=40 velocity=0 time=0.0057471250000000005
EXTRACT: note_on channel=3 note=62 velocity=0 time=0.12068962500000001
EXTRACT: note_on channel=6 note=67 velocity=78 time=0.040229875000000005
EXTRACT: note_on channel=3 note=60 velocity=100 time=0
EXTRACT: note_on channel=2 note=31 velocity=95 time=0
EXTRACT: note_on channel=5 note=62 velocity=65 time=0
EXTRACT: note_on channel=9 note=36 velocity=113 time=0
EXTRACT: note_on channel=9 note=41 velocity=110 time=0
EXTRACT: note_on channel=9 note=46 velocity=80 time=0
EXTRACT: note_on channel=5 note=67 velocity=74 time=0.0057471250000000005
EXTRACT: note_on channel=5 note=70 velocity=65 time=0
EXTRACT: note_on channel=9 note=46 velocity=0 time=0
EXTRACT: note_on channel=9 note=41 velocity=0 time=0
EXTRACT: note_on channel=9 note=36 velocity=0 time=0
EXTRACT: note_on channel=4 note=58 velocity=68 time=0.0057471250000000005
EXTRACT: note_on channel=4 note=62 velocity=68 time=0
EXTRACT: note_on channel=4 note=67 velocity=63 time=0
EXTRACT: note_on channel=4 note=55 velocity=62 time=0
EXTRACT: note_on channel=4 note=43 velocity=55 time=0
EXTRACT: note_on channel=3 note=60 velocity=0 time=0.281609125
EXTRACT: note_on channel=5 note=62 velocity=0 time=0.040229875000000005
EXTRACT: note_on channel=3 note=58 velocity=98 time=0
EXTRACT: note_on channel=5 note=70 velocity=0 time=0
EXTRACT: note_on channel=5 note=67 velocity=0 time=0
EXTRACT: note_on channel=4 note=43 velocity=0 time=0.0057471250000000005
EXTRACT: note_on channel=4 note=67 velocity=0 time=0
EXTRACT: note_on channel=4 note=58 velocity=0 time=0
EXTRACT: note_on channel=4 note=62 velocity=0 time=0
EXTRACT: note_on channel=4 note=55 velocity=0 time=0
EXTRACT: note_on channel=9 note=35 velocity=64 time=0
EXTRACT: note_on channel=9 note=38 velocity=64 time=0
EXTRACT: note_on channel=6 note=62 velocity=79 time=0.0057471250000000005
EXTRACT: note_on channel=9 note=38 velocity=0 time=0
EXTRACT: note_on channel=9 note=35 velocity=0 time=0
EXTRACT: note_on channel=4 note=55 velocity=59 time=0.0057471250000000005
EXTRACT: note_on channel=4 note=67 velocity=58 time=0
EXTRACT: note_on channel=4 note=62 velocity=64 time=0
EXTRACT: note_on channel=4 note=58 velocity=62 time=0
EXTRACT: note_on channel=4 note=43 velocity=55 time=0
EXTRACT: note_on channel=5 note=67 velocity=59 time=0
EXTRACT: note_on channel=5 note=62 velocity=58 time=0
EXTRACT: note_on channel=5 note=70 velocity=58 time=0
EXTRACT: note_on channel=6 note=67 velocity=0 time=0.05747125
EXTRACT: note_on channel=9 note=35 velocity=64 time=0.10344825
EXTRACT: note_on channel=9 note=35 velocity=0 time=0.0057471250000000005
EXTRACT: note_on channel=3 note=58 velocity=0 time=0.12068962500000001
EXTRACT: note_on channel=2 note=31 velocity=0 time=0.045977000000000004
EXTRACT: note_on channel=4 note=43 velocity=0 time=0
EXTRACT: note_on channel=4 note=62 velocity=0 time=0
EXTRACT: note_on channel=4 note=55 velocity=0 time=0
EXTRACT: note_on channel=4 note=67 velocity=0 time=0
EXTRACT: note_on channel=4 note=58 velocity=0 time=0
EXTRACT: note_on channel=5 note=70 velocity=0 time=0
EXTRACT: note_on channel=5 note=62 velocity=0 time=0
EXTRACT: note_on channel=5 note=67 velocity=0 time=0
EXTRACT: note_on channel=9 note=39 velocity=111 time=0
EXTRACT: note_on channel=3 note=60 velocity=98 time=0
EXTRACT: note_on channel=6 note=67 velocity=77 time=0
EXTRACT: note_on channel=9 note=39 velocity=0 time=0
EXTRACT: note_on channel=4 note=62 velocity=69 time=0.0057471250000000005
EXTRACT: note_on channel=4 note=58 velocity=67 time=0
EXTRACT: note_on channel=4 note=55 velocity=65 time=0
EXTRACT: note_on channel=4 note=43 velocity=55 time=0
EXTRACT: note_on channel=4 note=67 velocity=61 time=0
EXTRACT: note_on channel=5 note=62 velocity=63 time=0
EXTRACT: note_on channel=5 note=67 velocity=70 time=0
EXTRACT: note_on channel=5 note=70 velocity=63 time=0
EXTRACT: note_on channel=6 note=62 velocity=0 time=0.011494250000000001
EXTRACT: note_on channel=9 note=37 velocity=57 time=0.14942525
EXTRACT: note_on channel=9 note=37 velocity=0 time=0.0057471250000000005
EXTRACT: note_on channel=3 note=60 velocity=0 time=0.12068962500000001
EXTRACT: note_on channel=3 note=58 velocity=101 time=0
EXTRACT: note_on channel=4 note=67 velocity=0 time=0.011494250000000001
EXTRACT: note_on channel=4 note=55 velocity=0 time=0
EXTRACT: note_on channel=4 note=62 velocity=0 time=0
EXTRACT: note_on channel=4 note=58 velocity=0 time=0
EXTRACT: note_on channel=4 note=43 velocity=0 time=0
EXTRACT: note_on channel=5 note=70 velocity=0 time=0
EXTRACT: note_on channel=5 note=67 velocity=0 time=0
EXTRACT: note_on channel=5 note=62 velocity=0 time=0
EXTRACT: note_on channel=6 note=62 velocity=77 time=0.0057471250000000005
EXTRACT: note_on channel=4 note=67 velocity=54 time=0.0057471250000000005
EXTRACT: note_on channel=4 note=62 velocity=63 time=0
EXTRACT: note_on channel=4 note=55 velocity=58 time=0
EXTRACT: note_on channel=4 note=58 velocity=60 time=0
EXTRACT: note_on channel=4 note=43 velocity=55 time=0
EXTRACT: note_on channel=5 note=67 velocity=59 time=0
EXTRACT: note_on channel=5 note=62 velocity=58 time=0
EXTRACT: note_on channel=5 note=70 velocity=57 time=0
EXTRACT: note_on channel=6 note=67 velocity=0 time=0.040229875000000005
EXTRACT: note_on channel=4 note=43 velocity=0 time=0.12068962500000001
EXTRACT: note_on channel=4 note=55 velocity=0 time=0
EXTRACT: note_on channel=4 note=67 velocity=0 time=0
EXTRACT: note_on channel=4 note=62 velocity=0 time=0
EXTRACT: note_on channel=4 note=58 velocity=0 time=0
EXTRACT: note_on channel=5 note=70 velocity=0 time=0
EXTRACT: note_on channel=5 note=62 velocity=0 time=0
EXTRACT: note_on channel=5 note=67 velocity=0 time=0
EXTRACT: note_on channel=9 note=39 velocity=108 time=0
EXTRACT: note_on channel=9 note=39 velocity=0 time=0.0057471250000000005
EXTRACT: note_on channel=4 note=58 velocity=71 time=0.0057471250000000005
EXTRACT: note_on channel=4 note=43 velocity=55 time=0
EXTRACT: note_on channel=4 note=55 velocity=63 time=0
EXTRACT: note_on channel=4 note=62 velocity=71 time=0
EXTRACT: note_on channel=4 note=67 velocity=63 time=0
EXTRACT: note_on channel=5 note=62 velocity=63 time=0
EXTRACT: note_on channel=5 note=67 velocity=69 time=0
EXTRACT: note_on channel=5 note=70 velocity=63 time=0
EXTRACT: note_on channel=3 note=58 velocity=0 time=0.12643675000000001
EXTRACT: note_on channel=3 note=58 velocity=100 time=0
EXTRACT: note_on channel=6 note=67 velocity=75 time=0.011494250000000001
EXTRACT: note_on channel=6 note=62 velocity=0 time=0.028735625
EXTRACT: note_on channel=3 note=58 velocity=0 time=0.10344825
EXTRACT: note_on channel=4 note=67 velocity=0 time=0.034482750000000006
EXTRACT: note_on channel=4 note=55 velocity=0 time=0
EXTRACT: note_on channel=4 note=58 velocity=0 time=0
EXTRACT: note_on channel=4 note=43 velocity=0 time=0
EXTRACT: note_on channel=4 note=62 velocity=0 time=0
EXTRACT: note_on channel=5 note=70 velocity=0 time=0
EXTRACT: note_on channel=5 note=67 velocity=0 time=0
EXTRACT: note_on channel=5 note=62 velocity=0 time=0
EXTRACT: note_on channel=9 note=35 velocity=61 time=0
EXTRACT: note_on channel=9 note=37 velocity=59 time=0
EXTRACT: note_on channel=3 note=58 velocity=100 time=0
EXTRACT: note_on channel=9 note=37 velocity=0 time=0
EXTRACT: note_on channel=9 note=35 velocity=0 time=0
EXTRACT: note_on channel=4 note=55 velocity=60 time=0.0057471250000000005
EXTRACT: note_on channel=4 note=67 velocity=58 time=0
EXTRACT: note_on channel=4 note=43 velocity=55 time=0
EXTRACT: note_on channel=4 note=58 velocity=63 time=0
EXTRACT: note_on channel=4 note=62 velocity=64 time=0
EXTRACT: note_on channel=5 note=62 velocity=57 time=0
EXTRACT: note_on channel=5 note=67 velocity=59 time=0
EXTRACT: note_on channel=5 note=70 velocity=58 time=0
EXTRACT: note_on channel=3 note=58 velocity=0 time=0.13793100000000003
EXTRACT: note_on channel=3 note=62 velocity=100 time=0
EXTRACT: note_on channel=4 note=62 velocity=0 time=0
EXTRACT: note_on channel=4 note=43 velocity=0 time=0
EXTRACT: note_on channel=4 note=55 velocity=0 time=0
EXTRACT: note_on channel=4 note=67 velocity=0 time=0
EXTRACT: note_on channel=4 note=58 velocity=0 time=0
EXTRACT: note_on channel=5 note=70 velocity=0 time=0
EXTRACT: note_on channel=5 note=67 velocity=0 time=0
EXTRACT: note_on channel=5 note=62 velocity=0 time=0
EXTRACT: note_on channel=9 note=35 velocity=67 time=0
EXTRACT: note_on channel=9 note=37 velocity=64 time=0
EXTRACT: note_on channel=6 note=62 velocity=76 time=0.0057471250000000005
EXTRACT: note_on channel=9 note=37 velocity=0 time=0
EXTRACT: note_on channel=9 note=35 velocity=0 time=0
EXTRACT: note_on channel=4 note=58 velocity=65 time=0.0057471250000000005
EXTRACT: note_on channel=4 note=55 velocity=58 time=0
EXTRACT: note_on channel=4 note=62 velocity=71 time=0
EXTRACT: note_on channel=4 note=67 velocity=60 time=0
EXTRACT: note_on channel=4 note=43 velocity=55 time=0
EXTRACT: note_on channel=5 note=62 velocity=59 time=0
EXTRACT: note_on channel=5 note=67 velocity=67 time=0
EXTRACT: note_on channel=5 note=70 velocity=65 time=0
EXTRACT: note_on channel=6 note=67 velocity=0 time=0.045977000000000004
EXTRACT: note_on channel=3 note=62 velocity=0 time=0.086206875
EXTRACT: note_on channel=3 note=62 velocity=100 time=0
EXTRACT: note_on channel=3 note=62 velocity=0 time=0.155172375
EXTRACT: note_on channel=3 note=62 velocity=100 time=0
EXTRACT: note_on channel=4 note=43 velocity=0 time=0
EXTRACT: note_on channel=4 note=62 velocity=0 time=0
EXTRACT: note_on channel=4 note=58 velocity=0 time=0
EXTRACT: note_on channel=4 note=55 velocity=0 time=0
EXTRACT: note_on channel=4 note=67 velocity=0 time=0
EXTRACT: note_on channel=5 note=70 velocity=0 time=0
EXTRACT: note_on channel=5 note=67 velocity=0 time=0
EXTRACT: note_on channel=5 note=62 velocity=0 time=0
EXTRACT: note_on channel=6 note=62 velocity=0 time=0
EXTRACT: note_on channel=9 note=39 velocity=114 time=0
EXTRACT: note_on channel=6 note=67 velocity=74 time=0.0057471250000000005
EXTRACT: note_on channel=9 note=39 velocity=0 time=0
EXTRACT: note_on channel=4 note=55 velocity=63 time=0.0057471250000000005
EXTRACT: note_on channel=4 note=62 velocity=69 time=0
EXTRACT: note_on channel=4 note=58 velocity=70 time=0
EXTRACT: note_on channel=4 note=43 velocity=55 time=0
EXTRACT: note_on channel=4 note=67 velocity=63 time=0
EXTRACT: note_on channel=5 note=67 velocity=69 time=0
EXTRACT: note_on channel=5 note=62 velocity=65 time=0
EXTRACT: note_on channel=5 note=70 velocity=66 time=0
EXTRACT: note_on channel=4 note=67 velocity=0 time=0.16091950000000002
EXTRACT: note_on channel=4 note=58 velocity=0 time=0
EXTRACT: note_on channel=4 note=55 velocity=0 time=0
EXTRACT: note_on channel=4 note=62 velocity=0 time=0
EXTRACT: note_on channel=4 note=43 velocity=0 time=0
EXTRACT: note_on channel=5 note=70 velocity=0 time=0
EXTRACT: note_on channel=5 note=62 velocity=0 time=0
EXTRACT: note_on channel=5 note=67 velocity=0 time=0
EXTRACT: note_on channel=9 note=35 velocity=61 time=0
EXTRACT: note_on channel=9 note=35 velocity=0 time=0.0057471250000000005
EXTRACT: note_on channel=4 note=43 velocity=55 time=0.0057471250000000005
EXTRACT: note_on channel=4 note=62 velocity=67 time=0
EXTRACT: note_on channel=4 note=67 velocity=58 time=0
EXTRACT: note_on channel=4 note=55 velocity=57 time=0
EXTRACT: note_on channel=4 note=58 velocity=65 time=0
EXTRACT: note_on channel=5 note=62 velocity=48 time=0
EXTRACT: note_on channel=5 note=67 velocity=66 time=0
EXTRACT: note_on channel=5 note=70 velocity=63 time=0
EXTRACT: note_on channel=3 note=62 velocity=0 time=0.086206875
EXTRACT: note_on channel=3 note=58 velocity=100 time=0
EXTRACT: note_on channel=4 note=58 velocity=0 time=0
EXTRACT: note_on channel=4 note=67 velocity=0 time=0
EXTRACT: note_on channel=4 note=43 velocity=0 time=0
EXTRACT: note_on channel=4 note=62 velocity=0 time=0
EXTRACT: note_on channel=4 note=55 velocity=0 time=0
EXTRACT: note_on channel=5 note=70 velocity=0 time=0
EXTRACT: note_on channel=5 note=67 velocity=0 time=0
EXTRACT: note_on channel=5 note=62 velocity=0 time=0
EXTRACT: note_on channel=9 note=28 velocity=51 time=0
EXTRACT: note_on channel=6 note=65 velocity=78 time=0.0057471250000000005
EXTRACT: note_on channel=9 note=28 velocity=0 time=0
EXTRACT: note_on channel=4 note=58 velocity=68 time=0.0057471250000000005
EXTRACT: note_on channel=4 note=43 velocity=55 time=0
EXTRACT: note_on channel=4 note=55 velocity=63 time=0
EXTRACT: note_on channel=4 note=62 velocity=69 time=0
EXTRACT: note_on channel=4 note=67 velocity=61 time=0
EXTRACT: note_on channel=5 note=62 velocity=55 time=0
EXTRACT: note_on channel=5 note=67 velocity=67 time=0
EXTRACT: note_on channel=5 note=70 velocity=63 time=0
EXTRACT: note_on channel=6 note=67 velocity=0 time=0.022988500000000002
EXTRACT: note_on channel=3 note=58 velocity=0 time=0.10919537500000001
EXTRACT: note_on channel=3 note=58 velocity=100 time=0
EXTRACT: note_on channel=4 note=67 velocity=0 time=0
EXTRACT: note_on channel=4 note=55 velocity=0 time=0
EXTRACT: note_on channel=4 note=58 velocity=0 time=0
EXTRACT: note_on channel=4 note=43 velocity=0 time=0
EXTRACT: note_on channel=4 note=62 velocity=0 time=0
EXTRACT: note_on channel=5 note=70 velocity=0 time=0
EXTRACT: note_on channel=5 note=67 velocity=0 time=0
EXTRACT: note_on channel=5 note=62 velocity=0 time=0
EXTRACT: note_on channel=4 note=67 velocity=59 time=0.011494250000000001
EXTRACT: note_on channel=4 note=55 velocity=59 time=0
EXTRACT: note_on channel=4 note=62 velocity=59 time=0
EXTRACT: note_on channel=4 note=58 velocity=59 time=0
EXTRACT: note_on channel=4 note=43 velocity=55 time=0
EXTRACT: note_on channel=5 note=62 velocity=63 time=0
EXTRACT: note_on channel=5 note=67 velocity=63 time=0
EXTRACT: note_on channel=5 note=70 velocity=63 time=0
EXTRACT: note_on channel=3 note=58 velocity=0 time=0.132183875
EXTRACT: note_on channel=6 note=65 velocity=0 time=0
EXTRACT: note_on channel=3 note=58 velocity=104 time=0
EXTRACT: note_on channel=2 note=27 velocity=97 time=0
EXTRACT: note_on channel=4 note=43 velocity=0 time=0
EXTRACT: note_on channel=4 note=62 velocity=0 time=0
EXTRACT: note_on channel=4 note=67 velocity=0 time=0
EXTRACT: note_on channel=4 note=55 velocity=0 time=0
EXTRACT: note_on channel=4 note=58 velocity=0 time=0
EXTRACT: note_on channel=5 note=70 velocity=0 time=0
EXTRACT: note_on channel=5 note=67 velocity=0 time=0
EXTRACT: note_on channel=5 note=62 velocity=0 time=0
EXTRACT: note_on channel=6 note=67 velocity=74 time=0
EXTRACT: note_on channel=9 note=36 velocity=114 time=0
EXTRACT: note_on channel=9 note=41 velocity=110 time=0
EXTRACT: note_on channel=9 note=46 velocity=81 time=0
EXTRACT: note_on channel=5 note=70 velocity=65 time=0.0057471250000000005
EXTRACT: note_on channel=9 note=46 velocity=0 time=0
EXTRACT: note_on channel=9 note=41 velocity=0 time=0
EXTRACT: note_on channel=9 note=36 velocity=0 time=0
EXTRACT: note_on channel=4 note=63 velocity=64 time=0.0057471250000000005
EXTRACT: note_on channel=4 note=67 velocity=63 time=0
EXTRACT: note_on channel=4 note=58 velocity=65 time=0
EXTRACT: note_on channel=4 note=55 velocity=64 time=0
EXTRACT: note_on channel=4 note=39 velocity=55 time=0
EXTRACT: note_on channel=5 note=65 velocity=74 time=0
EXTRACT: note_on channel=3 note=58 velocity=0 time=0.27586200000000005
EXTRACT: note_on channel=3 note=60 velocity=104 time=0
EXTRACT: note_on channel=5 note=70 velocity=0 time=0
EXTRACT: note_on channel=4 note=39 velocity=0 time=0.0057471250000000005
EXTRACT: note_on channel=4 note=58 velocity=0 time=0
EXTRACT: note_on channel=4 note=63 velocity=0 time=0
EXTRACT: note_on channel=4 note=67 velocity=0 time=0
EXTRACT: note_on channel=4 note=55 velocity=0 time=0
EXTRACT: note_on channel=5 note=65 velocity=0 time=0
EXTRACT: note_on channel=9 note=35 velocity=68 time=0
EXTRACT: note_on channel=9 note=38 velocity=68 time=0
EXTRACT: note_on channel=6 note=65 velocity=76 time=0.0057471250000000005
EXTRACT: note_on channel=9 note=38 velocity=0 time=0
EXTRACT: note_on channel=9 note=35 velocity=0 time=0
EXTRACT: note_on channel=4 note=63 velocity=63 time=0.0057471250000000005
EXTRACT: note_on channel=4 note=55 velocity=58 time=0
EXTRACT: note_on channel=4 note=67 velocity=56 time=0
EXTRACT: note_on channel=4 note=58 velocity=61 time=0
EXTRACT: note_on channel=4 note=39 velocity=55 time=0
EXTRACT: note_on channel=5 note=65 velocity=73 time=0
EXTRACT: note_on channel=5 note=70 velocity=63 time=0
EXTRACT: note_on channel=6 note=67 velocity=0 time=0.045977000000000004
EXTRACT: note_on channel=3 note=60 velocity=0 time=0.09770112500000001
EXTRACT: note_on channel=3 note=60 velocity=101 time=0
EXTRACT: note_on channel=9 note=35 velocity=63 time=0.011494250000000001
EXTRACT: note_on channel=9 note=35 velocity=0 time=0.0057471250000000005
EXTRACT: note_on channel=6 note=65 velocity=0 time=0.132183875
EXTRACT: note_on channel=3 note=60 velocity=0 time=0.011494250000000001
EXTRACT: note_on channel=6 note=67 velocity=77 time=0.017241375000000003
EXTRACT: note_on channel=3 note=58 velocity=100 time=0
EXTRACT: note_on channel=4 note=39 velocity=0 time=0
EXTRACT: note_on channel=4 note=67 velocity=0 time=0
EXTRACT: note_on channel=4 note=63 velocity=0 time=0
EXTRACT: note_on channel=4 note=55 velocity=0 time=0
EXTRACT: note_on channel=4 note=58 velocity=0 time=0
EXTRACT: note_on channel=5 note=70 velocity=0 time=0
EXTRACT: note_on channel=5 note=65 velocity=0 time=0
EXTRACT: note_on channel=9 note=39 velocity=110 time=0
EXTRACT: note_on channel=2 note=27 velocity=0 time=0.0057471250000000005
EXTRACT: note_on channel=9 note=39 velocity=0 time=0
EXTRACT: note_on channel=4 note=63 velocity=67 time=0.0057471250000000005
EXTRACT: note_on channel=4 note=58 velocity=65 time=0
EXTRACT: note_on channel=4 note=67 velocity=65 time=0
EXTRACT: note_on channel=4 note=39 velocity=55 time=0
EXTRACT: note_on channel=4 note=55 velocity=62 time=0
EXTRACT: note_on channel=5 note=67 velocity=74 time=0
EXTRACT: note_on channel=5 note=70 velocity=76 time=0
EXTRACT: note_on channel=3 note=58 velocity=0 time=0.14367812500000002
EXTRACT: note_on channel=3 note=58 velocity=100 time=0
EXTRACT: note_on channel=9 note=37 velocity=57 time=0.011494250000000001
EXTRACT: note_on channel=9 note=37 velocity=0 time=0.0057471250000000005
EXTRACT: note_on channel=3 note=58 velocity=0 time=0.13793100000000003
EXTRACT: note_on channel=3 note=62 velocity=103 time=0
EXTRACT: note_on channel=5 note=67 velocity=0 time=0
EXTRACT: note_on channel=4 note=55 velocity=0 time=0.011494250000000001
EXTRACT: note_on channel=4 note=67 velocity=0 time=0
EXTRACT: note_on channel=4 note=63 velocity=0 time=0
EXTRACT: note_on channel=4 note=58 velocity=0 time=0
EXTRACT: note_on channel=4 note=39 velocity=0 time=0
EXTRACT: note_on channel=5 note=70 velocity=0 time=0
EXTRACT: note_on channel=6 note=65 velocity=76 time=0.0057471250000000005
EXTRACT: note_on channel=4 note=55 velocity=57 time=0.0057471250000000005
EXTRACT: note_on channel=4 note=63 velocity=61 time=0
EXTRACT: note_on channel=4 note=67 velocity=58 time=0
EXTRACT: note_on channel=4 note=58 velocity=59 time=0
EXTRACT: note_on channel=4 note=39 velocity=55 time=0
EXTRACT: note_on channel=5 note=65 velocity=67 time=0
EXTRACT: note_on channel=5 note=70 velocity=67 time=0
EXTRACT: note_on channel=6 note=67 velocity=0 time=0.040229875000000005
EXTRACT: note_on channel=4 note=39 velocity=0 time=0.12068962500000001
EXTRACT: note_on channel=4 note=67 velocity=0 time=0
EXTRACT: note_on channel=4 note=55 velocity=0 time=0
EXTRACT: note_on channel=4 note=63 velocity=0 time=0
EXTRACT: note_on channel=4 note=58 velocity=0 time=0
EXTRACT: note_on channel=5 note=70 velocity=0 time=0
EXTRACT: note_on channel=5 note=65 velocity=0 time=0
EXTRACT: note_on channel=9 note=39 velocity=110 time=0
EXTRACT: note_on channel=9 note=39 velocity=0 time=0.0057471250000000005
EXTRACT: note_on channel=4 note=58 velocity=67 time=0.0057471250000000005
EXTRACT: note_on channel=4 note=39 velocity=55 time=0
EXTRACT: note_on channel=4 note=55 velocity=61 time=0
EXTRACT: note_on channel=4 note=63 velocity=65 time=0
EXTRACT: note_on channel=4 note=67 velocity=59 time=0
EXTRACT: note_on channel=5 note=70 velocity=75 time=0
EXTRACT: note_on channel=5 note=67 velocity=75 time=0
EXTRACT: note_on channel=3 note=62 velocity=0 time=0.10919537500000001
EXTRACT: note_on channel=3 note=60 velocity=102 time=0
EXTRACT: note_on channel=6 note=65 velocity=0 time=0
EXTRACT: note_on channel=6 note=67 velocity=79 time=0.011494250000000001
EXTRACT: note_on channel=3 note=60 velocity=0 time=0.14942525
EXTRACT: note_on channel=3 note=58 velocity=98 time=0
EXTRACT: note_on channel=4 note=67 velocity=0 time=0
EXTRACT: note_on channel=4 note=55 velocity=0 time=0
EXTRACT: note_on channel=4 note=58 velocity=0 time=0
EXTRACT: note_on channel=4 note=39 velocity=0 time=0
EXTRACT: note_on channel=4 note=63 velocity=0 time=0
EXTRACT: note_on channel=5 note=67 velocity=0 time=0
EXTRACT: note_on channel=5 note=70 velocity=0 time=0
EXTRACT: note_on channel=9 note=35 velocity=62 time=0
EXTRACT: note_on channel=9 note=37 velocity=59 time=0
EXTRACT: note_on channel=9 note=37 velocity=0 time=0.0057471250000000005
EXTRACT: note_on channel=9 note=35 velocity=0 time=0
EXTRACT: note_on channel=4 note=63 velocity=61 time=0.0057471250000000005
EXTRACT: note_on channel=4 note=55 velocity=58 time=0
EXTRACT: note_on channel=4 note=39 velocity=55 time=0
EXTRACT: note_on channel=4 note=58 velocity=61 time=0
EXTRACT: note_on channel=4 note=67 velocity=59 time=0
EXTRACT: note_on channel=5 note=65 velocity=70 time=0
EXTRACT: note_on channel=5 note=70 velocity=67 time=0
EXTRACT: note_on channel=3 note=58 velocity=0 time=0.132183875
EXTRACT: note_on channel=4 note=67 velocity=0 time=0.028735625
EXTRACT: note_on channel=4 note=39 velocity=0 time=0
EXTRACT: note_on channel=4 note=63 velocity=0 time=0
EXTRACT: note_on channel=4 note=55 velocity=0 time=0
EXTRACT: note_on channel=4 note=58 velocity=0 time=0
EXTRACT: note_on channel=5 note=70 velocity=0 time=0
EXTRACT: note_on channel=5 note=65 velocity=0 time=0
EXTRACT: note_on channel=9 note=35 velocity=65 time=0
EXTRACT: note_on channel=9 note=37 velocity=63 time=0
EXTRACT: note_on channel=6 note=65 velocity=76 time=0.0057471250000000005
EXTRACT: note_on channel=9 note=37 velocity=0 time=0
EXTRACT: note_on channel=9 note=35 velocity=0 time=0
EXTRACT: note_on channel=4 note=58 velocity=68 time=0.0057471250000000005
EXTRACT: note_on channel=4 note=67 velocity=65 time=0
EXTRACT: note_on channel=4 note=63 velocity=68 time=0
EXTRACT: note_on channel=4 note=55 velocity=60 time=0
EXTRACT: note_on channel=4 note=39 velocity=55 time=0
EXTRACT: note_on channel=5 note=65 velocity=81 time=0
EXTRACT: note_on channel=5 note=70 velocity=74 time=0
EXTRACT: note_on channel=6 note=67 velocity=0 time=0.040229875000000005
EXTRACT: note_on channel=3 note=58 velocity=102 time=0
EXTRACT: note_on channel=6 note=65 velocity=0 time=0
EXTRACT: note_on channel=4 note=39 velocity=0 time=0.0057471250000000005
EXTRACT: note_on channel=4 note=63 velocity=0 time=0
EXTRACT: note_on channel=4 note=58 velocity=0 time=0
EXTRACT: note_on channel=4 note=67 velocity=0 time=0
EXTRACT: note_on channel=4 note=55 velocity=0 time=0
EXTRACT: note_on channel=5 note=70 velocity=0 time=0
EXTRACT: note_on channel=5 note=65 velocity=0 time=0
EXTRACT: note_on channel=9 note=39 velocity=109 time=0
EXTRACT: note_on channel=6 note=67 velocity=78 time=0.0057471250000000005
EXTRACT: note_on channel=9 note=39 velocity=0 time=0
EXTRACT: note_on channel=4 note=58 velocity=69 time=0.0057471250000000005
EXTRACT: note_on channel=4 note=63 velocity=69 time=0
EXTRACT: note_on channel=4 note=67 velocity=65 time=0
EXTRACT: note_on channel=4 note=39 velocity=55 time=0
EXTRACT: note_on channel=4 note=55 velocity=63 time=0
EXTRACT: note_on channel=5 note=70 velocity=66 time=0
EXTRACT: note_on channel=5 note=65 velocity=66 time=0
EXTRACT: note_on channel=3 note=58 velocity=0 time=0.14367812500000002
EXTRACT: note_on channel=3 note=58 velocity=98 time=0
EXTRACT: note_on channel=4 note=55 velocity=0 time=0.0057471250000000005
EXTRACT: note_on channel=4 note=67 velocity=0 time=0
EXTRACT: note_on channel=4 note=58 velocity=0 time=0
EXTRACT: note_on channel=4 note=63 velocity=0 time=0
EXTRACT: note_on channel=4 note=39 velocity=0 time=0
EXTRACT: note_on channel=5 note=65 velocity=0 time=0
EXTRACT: note_on channel=5 note=70 velocity=0 time=0
EXTRACT: note_on channel=9 note=35 velocity=62 time=0
EXTRACT: note_on channel=9 note=35 velocity=0 time=0.0057471250000000005
EXTRACT: note_on channel=4 note=39 velocity=55 time=0.0057471250000000005
EXTRACT: note_on channel=4 note=63 velocity=67 time=0
EXTRACT: note_on channel=4 note=55 velocity=61 time=0
EXTRACT: note_on channel=4 note=67 velocity=60 time=0
EXTRACT: note_on channel=4 note=58 velocity=67 time=0
EXTRACT: note_on channel=5 note=65 velocity=64 time=0
EXTRACT: note_on channel=5 note=70 velocity=69 time=0
EXTRACT: note_on channel=3 note=58 velocity=0 time=0.12643675000000001
EXTRACT: note_on channel=3 note=62 velocity=98 time=0
EXTRACT: note_on channel=4 note=58 velocity=0 time=0.0057471250000000005
EXTRACT: note_on channel=4 note=55 velocity=0 time=0
EXTRACT: note_on channel=4 note=39 velocity=0 time=0
EXTRACT: note_on channel=4 note=63 velocity=0 time=0
EXTRACT: note_on channel=4 note=67 velocity=0 time=0
EXTRACT: note_on channel=5 note=70 velocity=0 time=0
EXTRACT: note_on channel=5 note=65 velocity=0 time=0
EXTRACT: note_on channel=9 note=38 velocity=66 time=0
EXTRACT: note_on channel=9 note=28 velocity=52 time=0
EXTRACT: note_on channel=6 note=65 velocity=76 time=0.0057471250000000005
EXTRACT: note_on channel=9 note=28 velocity=0 time=0
EXTRACT: note_on channel=9 note=38 velocity=0 time=0
EXTRACT: note_on channel=4 note=58 velocity=66 time=0.0057471250000000005
EXTRACT: note_on channel=4 note=39 velocity=55 time=0
EXTRACT: note_on channel=4 note=67 velocity=60 time=0
EXTRACT: note_on channel=4 note=63 velocity=69 time=0
EXTRACT: note_on channel=4 note=55 velocity=60 time=0
EXTRACT: note_on channel=5 note=65 velocity=70 time=0
EXTRACT: note_on channel=5 note=70 velocity=68 time=0
EXTRACT: note_on channel=6 note=67 velocity=0 time=0.028735625
EXTRACT: note_on channel=4 note=55 velocity=0 time=0.132183875
EXTRACT: note_on channel=4 note=67 velocity=0 time=0
EXTRACT: note_on channel=4 note=58 velocity=0 time=0
EXTRACT: note_on channel=4 note=39 velocity=0 time=0
EXTRACT: note_on channel=4 note=63 velocity=0 time=0
EXTRACT: note_on channel=5 note=70 velocity=0 time=0
EXTRACT: note_on channel=5 note=65 velocity=0 time=0
EXTRACT: note_on channel=9 note=36 velocity=110 time=0
EXTRACT: note_on channel=9 note=36 velocity=0 time=0.0057471250000000005
EXTRACT: note_on channel=4 note=58 velocity=57 time=0.0057471250000000005
EXTRACT: note_on channel=4 note=55 velocity=57 time=0
EXTRACT: note_on channel=4 note=63 velocity=57 time=0
EXTRACT: note_on channel=4 note=67 velocity=57 time=0
EXTRACT: note_on channel=4 note=39 velocity=55 time=0
EXTRACT: note_on channel=5 note=65 velocity=63 time=0
EXTRACT: note_on channel=5 note=70 velocity=63 time=0
EXTRACT: note_on channel=6 note=65 velocity=0 time=0.09770112500000001
EXTRACT: note_on channel=3 note=62 velocity=0 time=0.011494250000000001
EXTRACT: note_on channel=2 note=34 velocity=96 time=0.040229875000000005
EXTRACT: note_on channel=6 note=65 velocity=83 time=0.0057471250000000005
EXTRACT: note_on channel=4 note=39 velocity=0 time=0.0057471250000000005
EXTRACT: note_on channel=4 note=63 velocity=0 time=0
EXTRACT: note_on channel=4 note=58 velocity=0 time=0
EXTRACT: note_on channel=4 note=55 velocity=0 time=0
EXTRACT: note_on channel=4 note=67 velocity=0 time=0
EXTRACT: note_on channel=5 note=70 velocity=0 time=0
EXTRACT: note_on channel=5 note=65 velocity=0 time=0
EXTRACT: note_on channel=9 note=36 velocity=113 time=0
EXTRACT: note_on channel=9 note=41 velocity=110 time=0
EXTRACT: note_on channel=9 note=46 velocity=80 time=0
EXTRACT: note_on channel=3 note=58 velocity=104 time=0
EXTRACT: note_on channel=9 note=46 velocity=0 time=0
EXTRACT: note_on channel=9 note=41 velocity=0 time=0
EXTRACT: note_on channel=9 note=36 velocity=0 time=0
EXTRACT: note_on channel=4 note=58 velocity=74 time=0.0057471250000000005
EXTRACT: note_on channel=4 note=62 velocity=69 time=0
EXTRACT: note_on channel=4 note=65 velocity=66 time=0
EXTRACT: note_on channel=4 note=53 velocity=66 time=0
EXTRACT: note_on channel=4 note=46 velocity=55 time=0
EXTRACT: note_on channel=5 note=65 velocity=74 time=0
EXTRACT: note_on channel=5 note=70 velocity=63 time=0
EXTRACT: note_on channel=3 note=58 velocity=0 time=0.14942525
EXTRACT: note_on channel=3 note=58 velocity=104 time=0
EXTRACT: note_on channel=3 note=58 velocity=0 time=0.155172375
EXTRACT: note_on channel=3 note=62 velocity=104 time=0
EXTRACT: note_on channel=4 note=46 velocity=0 time=0.011494250000000001
EXTRACT: note_on channel=4 note=65 velocity=0 time=0
EXTRACT: note_on channel=4 note=58 velocity=0 time=0
EXTRACT: note_on channel=4 note=62 velocity=0 time=0
EXTRACT: note_on channel=4 note=53 velocity=0 time=0
EXTRACT: note_on channel=5 note=70 velocity=0 time=0
EXTRACT: note_on channel=5 note=65 velocity=0 time=0
EXTRACT: note_on channel=9 note=35 velocity=64 time=0
EXTRACT: note_on channel=9 note=38 velocity=64 time=0
EXTRACT: note_on channel=6 note=62 velocity=82 time=0.0057471250000000005
EXTRACT: note_on channel=9 note=38 velocity=0 time=0
EXTRACT: note_on channel=9 note=35 velocity=0 time=0
EXTRACT: note_on channel=4 note=58 velocity=61 time=0.0057471250000000005
EXTRACT: note_on channel=4 note=62 velocity=61 time=0
EXTRACT: note_on channel=4 note=65 velocity=59 time=0
EXTRACT: note_on channel=4 note=53 velocity=60 time=0
EXTRACT: note_on channel=4 note=46 velocity=55 time=0
EXTRACT: note_on channel=5 note=70 velocity=62 time=0
EXTRACT: note_on channel=5 note=65 velocity=64 time=0
EXTRACT: note_on channel=6 note=65 velocity=0 time=0.05747125
EXTRACT: note_on channel=3 note=62 velocity=0 time=0.074712625
EXTRACT: note_on channel=3 note=60 velocity=104 time=0
EXTRACT: note_on channel=9 note=35 velocity=64 time=0.011494250000000001
EXTRACT: note_on channel=9 note=35 velocity=0 time=0.0057471250000000005
EXTRACT: note_on channel=3 note=60 velocity=0 time=0.13793100000000003
EXTRACT: note_on channel=3 note=60 velocity=102 time=0
EXTRACT: note_on channel=4 note=46 velocity=0 time=0.0057471250000000005
EXTRACT: note_on channel=4 note=65 velocity=0 time=0
EXTRACT: note_on channel=4 note=58 velocity=0 time=0
EXTRACT: note_on channel=4 note=62 velocity=0 time=0
EXTRACT: note_on channel=4 note=53 velocity=0 time=0
EXTRACT: note_on channel=5 note=65 velocity=0 time=0
EXTRACT: note_on channel=5 note=70 velocity=0 time=0
EXTRACT: note_on channel=6 note=62 velocity=0 time=0
EXTRACT: note_on channel=6 note=65 velocity=82 time=0
EXTRACT: note_on channel=9 note=39 velocity=111 time=0
EXTRACT: note_on channel=2 note=34 velocity=0 time=0.0057471250000000005
EXTRACT: note_on channel=5 note=65 velocity=74 time=0
EXTRACT: note_on channel=9 note=39 velocity=0 time=0
EXTRACT: note_on channel=4 note=62 velocity=67 time=0.0057471250000000005
EXTRACT: note_on channel=4 note=58 velocity=65 time=0
EXTRACT: note_on channel=4 note=53 velocity=64 time=0
EXTRACT: note_on channel=4 note=65 velocity=63 time=0
EXTRACT: note_on channel=4 note=46 velocity=55 time=0
EXTRACT: note_on channel=5 note=70 velocity=65 time=0
EXTRACT: note_on channel=3 note=60 velocity=0 time=0.14367812500000002
EXTRACT: note_on channel=3 note=58 velocity=98 time=0
EXTRACT: note_on channel=9 note=37 velocity=57 time=0
EXTRACT: note_on channel=9 note=37 velocity=0 time=0.0057471250000000005
EXTRACT: note_on channel=3 note=58 velocity=0 time=0.13793100000000003
EXTRACT: note_on channel=5 note=65 velocity=0 time=0.022988500000000002
EXTRACT: note_on channel=3 note=60 velocity=98 time=0
EXTRACT: note_on channel=4 note=46 velocity=0 time=0
EXTRACT: note_on channel=4 note=53 velocity=0 time=0
EXTRACT: note_on channel=4 note=62 velocity=0 time=0
EXTRACT: note_on channel=4 note=58 velocity=0 time=0
EXTRACT: note_on channel=4 note=65 velocity=0 time=0
EXTRACT: note_on channel=5 note=70 velocity=0 time=0
EXTRACT: note_on channel=5 note=70 velocity=61 time=0
EXTRACT: note_on channel=5 note=65 velocity=64 time=0
EXTRACT: note_on channel=6 note=62 velocity=78 time=0.0057471250000000005
EXTRACT: note_on channel=4 note=65 velocity=59 time=0.0057471250000000005
EXTRACT: note_on channel=4 note=62 velocity=64 time=0
EXTRACT: note_on channel=4 note=58 velocity=59 time=0
EXTRACT: note_on channel=4 note=53 velocity=60 time=0
EXTRACT: note_on channel=4 note=46 velocity=55 time=0
EXTRACT: note_on channel=6 note=65 velocity=0 time=0.040229875000000005
EXTRACT: note_on channel=3 note=60 velocity=0 time=0.09195400000000001
EXTRACT: note_on channel=5 note=65 velocity=0 time=0.017241375000000003
EXTRACT: note_on channel=5 note=70 velocity=0 time=0
EXTRACT: note_on channel=3 note=60 velocity=86 time=0
EXTRACT: note_on channel=4 note=46 velocity=0 time=0.0057471250000000005
EXTRACT: note_on channel=4 note=58 velocity=0 time=0
EXTRACT: note_on channel=4 note=65 velocity=0 time=0
EXTRACT: note_on channel=4 note=62 velocity=0 time=0
EXTRACT: note_on channel=4 note=53 velocity=0 time=0
EXTRACT: note_on channel=5 note=70 velocity=65 time=0
EXTRACT: note_on channel=5 note=65 velocity=72 time=0
EXTRACT: note_on channel=9 note=39 velocity=108 time=0
EXTRACT: note_on channel=9 note=39 velocity=0 time=0.0057471250000000005
EXTRACT: note_on channel=4 note=58 velocity=67 time=0.0057471250000000005
EXTRACT: note_on channel=4 note=62 velocity=66 time=0
EXTRACT: note_on channel=4 note=53 velocity=63 time=0
EXTRACT: note_on channel=4 note=65 velocity=60 time=0
EXTRACT: note_on channel=4 note=46 velocity=55 time=0
EXTRACT: note_on channel=3 note=60 velocity=0 time=0.12643675000000001
EXTRACT: note_on channel=3 note=60 velocity=102 time=0
EXTRACT: note_on channel=6 note=62 velocity=0 time=0.0057471250000000005
EXTRACT: note_on channel=6 note=65 velocity=76 time=0
EXTRACT: note_on channel=3 note=60 velocity=0 time=0.13793100000000003
EXTRACT: note_on channel=5 note=65 velocity=0 time=0.017241375000000003
EXTRACT: note_on channel=5 note=70 velocity=0 time=0
EXTRACT: note_on channel=3 note=58 velocity=102 time=0
EXTRACT: note_on channel=4 note=46 velocity=0 time=0.0057471250000000005
EXTRACT: note_on channel=4 note=53 velocity=0 time=0
EXTRACT: note_on channel=4 note=58 velocity=0 time=0
EXTRACT: note_on channel=4 note=62 velocity=0 time=0
EXTRACT: note_on channel=4 note=65 velocity=0 time=0
EXTRACT: note_on channel=5 note=70 velocity=60 time=0
EXTRACT: note_on channel=5 note=65 velocity=64 time=0
EXTRACT: note_on channel=9 note=35 velocity=61 time=0
EXTRACT: note_on channel=9 note=37 velocity=59 time=0
EXTRACT: note_on channel=9 note=37 velocity=0 time=0.0057471250000000005
EXTRACT: note_on channel=9 note=35 velocity=0 time=0
EXTRACT: note_on channel=4 note=62 velocity=65 time=0.0057471250000000005
EXTRACT: note_on channel=4 note=65 velocity=59 time=0
EXTRACT: note_on channel=4 note=58 velocity=65 time=0
EXTRACT: note_on channel=4 note=53 velocity=63 time=0
EXTRACT: note_on channel=4 note=46 velocity=55 time=0
EXTRACT: note_on channel=3 note=58 velocity=0 time=0.12643675000000001
EXTRACT: note_on channel=5 note=65 velocity=0 time=0.022988500000000002
EXTRACT: note_on channel=5 note=70 velocity=0 time=0
EXTRACT: note_on channel=4 note=46 velocity=0 time=0.011494250000000001
EXTRACT: note_on channel=4 note=58 velocity=0 time=0
EXTRACT: note_on channel=4 note=62 velocity=0 time=0
EXTRACT: note_on channel=4 note=65 velocity=0 time=0
EXTRACT: note_on channel=4 note=53 velocity=0 time=0
EXTRACT: note_on channel=5 note=65 velocity=70 time=0
EXTRACT: note_on channel=5 note=70 velocity=65 time=0
EXTRACT: note_on channel=9 note=35 velocity=67 time=0
EXTRACT: note_on channel=9 note=37 velocity=64 time=0
EXTRACT: note_on channel=6 note=62 velocity=83 time=0.0057471250000000005
EXTRACT: note_on channel=9 note=37 velocity=0 time=0
EXTRACT: note_on channel=9 note=35 velocity=0 time=0
EXTRACT: note_on channel=4 note=58 velocity=64 time=0.0057471250000000005
EXTRACT: note_on channel=4 note=53 velocity=64 time=0
EXTRACT: note_on channel=4 note=62 velocity=64 time=0
EXTRACT: note_on channel=4 note=65 velocity=59 time=0
EXTRACT: note_on channel=4 note=46 velocity=55 time=0
EXTRACT: note_on channel=6 note=65 velocity=0 time=0.05747125
EXTRACT: note_on channel=3 note=60 velocity=101 time=0
EXTRACT: note_on channel=3 note=60 velocity=0 time=0.06896550000000001
EXTRACT: note_on channel=3 note=60 velocity=101 time=0
EXTRACT: note_on channel=3 note=60 velocity=0 time=0.06896550000000001
EXTRACT: note_on channel=5 note=70 velocity=0 time=0.0057471250000000005
EXTRACT: note_on channel=5 note=65 velocity=0 time=0
EXTRACT: note_on channel=3 note=60 velocity=101 time=0
EXTRACT: note_on channel=4 note=46 velocity=0 time=0
EXTRACT: note_on channel=4 note=62 velocity=0 time=0
EXTRACT: note_on channel=4 note=58 velocity=0 time=0
EXTRACT: note_on channel=4 note=53 velocity=0 time=0
EXTRACT: note_on channel=4 note=65 velocity=0 time=0
EXTRACT: note_on channel=9 note=39 velocity=114 time=0
EXTRACT: note_on channel=6 note=65 velocity=79 time=0.0057471250000000005
EXTRACT: note_on channel=9 note=39 velocity=0 time=0
EXTRACT: note_on channel=4 note=53 velocity=66 time=0.0057471250000000005
EXTRACT: note_on channel=4 note=62 velocity=69 time=0
EXTRACT: note_on channel=4 note=58 velocity=75 time=0
EXTRACT: note_on channel=4 note=65 velocity=63 time=0
EXTRACT: note_on channel=4 note=46 velocity=55 time=0
EXTRACT: note_on channel=5 note=70 velocity=72 time=0
EXTRACT: note_on channel=5 note=65 velocity=72 time=0
EXTRACT: note_on channel=6 note=62 velocity=0 time=0.017241375000000003
EXTRACT: note_on channel=3 note=60 velocity=0 time=0.13793100000000003
EXTRACT: note_on channel=3 note=58 velocity=101 time=0
EXTRACT: note_on channel=4 note=46 velocity=0 time=0
EXTRACT: note_on channel=4 note=58 velocity=0 time=0
EXTRACT: note_on channel=4 note=53 velocity=0 time=0
EXTRACT: note_on channel=4 note=62 velocity=0 time=0
EXTRACT: note_on channel=4 note=65 velocity=0 time=0
EXTRACT: note_on channel=5 note=65 velocity=0 time=0
EXTRACT: note_on channel=5 note=70 velocity=0 time=0
EXTRACT: note_on channel=9 note=35 velocity=61 time=0
EXTRACT: note_on channel=9 note=35 velocity=0 time=0.0057471250000000005
EXTRACT: note_on channel=4 note=58 velocity=66 time=0.0057471250000000005
EXTRACT: note_on channel=4 note=53 velocity=64 time=0
EXTRACT: note_on channel=4 note=62 velocity=66 time=0
EXTRACT: note_on channel=4 note=65 velocity=59 time=0
EXTRACT: note_on channel=4 note=46 velocity=55 time=0
EXTRACT: note_on channel=5 note=65 velocity=65 time=0
EXTRACT: note_on channel=5 note=70 velocity=63 time=0
EXTRACT: note_on channel=3 note=63 velocity=101 time=0
EXTRACT: note_on channel=3 note=58 velocity=0 time=0.0057471250000000005
EXTRACT: note_on channel=4 note=46 velocity=0 time=0.0057471250000000005
EXTRACT: note_on channel=4 note=62 velocity=0 time=0
EXTRACT: note_on channel=4 note=58 velocity=0 time=0
EXTRACT: note_on channel=4 note=53 velocity=0 time=0
EXTRACT: note_on channel=4 note=65 velocity=0 time=0
EXTRACT: note_on channel=5 note=70 velocity=0 time=0
EXTRACT: note_on channel=5 note=65 velocity=0 time=0
EXTRACT: note_on channel=9 note=28 velocity=51 time=0
EXTRACT: note_on channel=6 note=62 velocity=75 time=0.0057471250000000005
EXTRACT: note_on channel=9 note=28 velocity=0 time=0
EXTRACT: note_on channel=4 note=53 velocity=60 time=0.0057471250000000005
EXTRACT: note_on channel=4 note=65 velocity=58 time=0
EXTRACT: note_on channel=4 note=58 velocity=63 time=0
EXTRACT: note_on channel=4 note=62 velocity=66 time=0
EXTRACT: note_on channel=4 note=46 velocity=55 time=0
EXTRACT: note_on channel=5 note=65 velocity=65 time=0
EXTRACT: note_on channel=5 note=70 velocity=61 time=0
EXTRACT: note_on channel=6 note=65 velocity=0 time=0.022988500000000002
EXTRACT: note_on channel=3 note=63 velocity=0 time=0.1149425
EXTRACT: note_on channel=4 note=46 velocity=0 time=0.022988500000000002
EXTRACT: note_on channel=4 note=58 velocity=0 time=0
EXTRACT: note_on channel=4 note=53 velocity=0 time=0
EXTRACT: note_on channel=4 note=65 velocity=0 time=0
EXTRACT: note_on channel=4 note=62 velocity=0 time=0
EXTRACT: note_on channel=5 note=70 velocity=0 time=0
EXTRACT: note_on channel=5 note=65 velocity=0 time=0
EXTRACT: note_on channel=3 note=60 velocity=104 time=0
EXTRACT: note_on channel=4 note=62 velocity=57 time=0.0057471250000000005
EXTRACT: note_on channel=4 note=65 velocity=57 time=0
EXTRACT: note_on channel=4 note=53 velocity=57 time=0
EXTRACT: note_on channel=4 note=58 velocity=57 time=0
EXTRACT: note_on channel=4 note=46 velocity=55 time=0
EXTRACT: note_on channel=5 note=65 velocity=63 time=0
EXTRACT: note_on channel=5 note=70 velocity=60 time=0
EXTRACT: note_on channel=3 note=60 velocity=0 time=0.132183875
EXTRACT: note_on channel=6 note=62 velocity=0 time=0.017241375000000003
EXTRACT: note_on channel=6 note=65 velocity=83 time=0.0057471250000000005
EXTRACT: note_on channel=2 note=33 velocity=97 time=0.0057471250000000005
EXTRACT: note_on channel=4 note=46 velocity=0 time=0
EXTRACT: note_on channel=4 note=53 velocity=0 time=0
EXTRACT: note_on channel=4 note=62 velocity=0 time=0
EXTRACT: note_on channel=4 note=65 velocity=0 time=0
EXTRACT: note_on channel=4 note=58 velocity=0 time=0
EXTRACT: note_on channel=5 note=70 velocity=0 time=0
EXTRACT: note_on channel=5 note=65 velocity=0 time=0
EXTRACT: note_on channel=9 note=36 velocity=114 time=0
EXTRACT: note_on channel=9 note=41 velocity=110 time=0
EXTRACT: note_on channel=9 note=46 velocity=81 time=0
EXTRACT: note_on channel=3 note=60 velocity=104 time=0
EXTRACT: note_on channel=9 note=46 velocity=0 time=0
EXTRACT: note_on channel=9 note=41 velocity=0 time=0
EXTRACT: note_on channel=9 note=36 velocity=0 time=0
EXTRACT: note_on channel=4 note=60 velocity=69 time=0.0057471250000000005
EXTRACT: note_on channel=4 note=57 velocity=69 time=0
EXTRACT: note_on channel=4 note=65 velocity=69 time=0
EXTRACT: note_on channel=4 note=45 velocity=55 time=0
EXTRACT: note_on channel=5 note=65 velocity=76 time=0
EXTRACT: note_on channel=5 note=70 velocity=69 time=0
EXTRACT: note_on channel=3 note=60 velocity=0 time=0.132183875
EXTRACT: note_on channel=3 note=60 velocity=104 time=0
EXTRACT: note_on channel=3 note=60 velocity=0 time=0.13793100000000003
EXTRACT: note_on channel=3 note=60 velocity=104 time=0
EXTRACT: note_on channel=4 note=45 velocity=0 time=0.0057471250000000005
EXTRACT: note_on channel=4 note=60 velocity=0 time=0
EXTRACT: note_on channel=4 note=57 velocity=0 time=0
EXTRACT: note_on channel=4 note=65 velocity=0 time=0
EXTRACT: note_on channel=5 note=70 velocity=0 time=0
EXTRACT: note_on channel=5 note=65 velocity=0 time=0
EXTRACT: note_on channel=9 note=35 velocity=68 time=0
EXTRACT: note_on channel=9 note=38 velocity=68 time=0
EXTRACT: note_on channel=6 note=60 velocity=83 time=0.0057471250000000005
EXTRACT: note_on channel=9 note=38 velocity=0 time=0
EXTRACT: note_on channel=9 note=35 velocity=0 time=0
EXTRACT: note_on channel=4 note=57 velocity=59 time=0.0057471250000000005
EXTRACT: note_on channel=4 note=65 velocity=66 time=0
EXTRACT: note_on channel=4 note=60 velocity=70 time=0
EXTRACT: note_on channel=4 note=45 velocity=55 time=0
EXTRACT: note_on channel=5 note=70 velocity=67 time=0
EXTRACT: note_on channel=5 note=65 velocity=71 time=0
EXTRACT: note_on channel=6 note=65 velocity=0 time=0.022988500000000002
EXTRACT: note_on channel=3 note=60 velocity=0 time=0.09770112500000001
EXTRACT: note_on channel=3 note=60 velocity=104 time=0
EXTRACT: note_on channel=9 note=35 velocity=63 time=0.0057471250000000005
EXTRACT: note_on channel=9 note=35 velocity=0 time=0.0057471250000000005
EXTRACT: note_on channel=3 note=60 velocity=0 time=0.12643675000000001
EXTRACT: note_on channel=2 note=33 velocity=0 time=0.034482750000000006
EXTRACT: note_on channel=3 note=63 velocity=104 time=0
EXTRACT: note_on channel=4 note=45 velocity=0 time=0
EXTRACT: note_on channel=4 note=57 velocity=0 time=0
EXTRACT: note_on channel=4 note=65 velocity=0 time=0
EXTRACT: note_on channel=4 note=60 velocity=0 time=0
EXTRACT: note_on channel=5 note=65 velocity=0 time=0
EXTRACT: note_on channel=5 note=70 velocity=0 time=0
EXTRACT: note_on channel=9 note=39 velocity=110 time=0
EXTRACT: note_on channel=6 note=65 velocity=76 time=0.0057471250000000005
EXTRACT: note_on channel=9 note=39 velocity=0 time=0
EXTRACT: note_on channel=4 note=57 velocity=75 time=0.0057471250000000005
EXTRACT: note_on channel=4 note=60 velocity=75 time=0
EXTRACT: note_on channel=4 note=65 velocity=75 time=0
EXTRACT: note_on channel=4 note=45 velocity=55 time=0
EXTRACT: note_on channel=5 note=70 velocity=65 time=0
EXTRACT: note_on channel=5 note=65 velocity=71 time=0
EXTRACT: note_on channel=6 note=60 velocity=0 time=0
EXTRACT: note_on channel=3 note=63 velocity=0 time=0.12643675000000001
EXTRACT: note_on channel=3 note=60 velocity=104 time=0
EXTRACT: note_on channel=9 note=37 velocity=57 time=0.0057471250000000005
EXTRACT: note_on channel=9 note=37 velocity=0 time=0.0057471250000000005
EXTRACT: note_on channel=3 note=60 velocity=0 time=0.12643675000000001
EXTRACT: note_on channel=3 note=60 velocity=104 time=0
EXTRACT: note_on channel=4 note=45 velocity=0 time=0.0057471250000000005
EXTRACT: note_on channel=4 note=57 velocity=0 time=0
EXTRACT: note_on channel=4 note=60 velocity=0 time=0
EXTRACT: note_on channel=4 note=65 velocity=0 time=0
EXTRACT: note_on channel=5 note=65 velocity=0 time=0
EXTRACT: note_on channel=5 note=70 velocity=0 time=0
EXTRACT: note_on channel=6 note=60 velocity=77 time=0.0057471250000000005
EXTRACT: note_on channel=4 note=65 velocity=60 time=0.0057471250000000005
EXTRACT: note_on channel=4 note=57 velocity=60 time=0
EXTRACT: note_on channel=4 note=60 velocity=59 time=0
EXTRACT: note_on channel=4 note=45 velocity=55 time=0
EXTRACT: note_on channel=5 note=65 velocity=64 time=0
EXTRACT: note_on channel=5 note=70 velocity=59 time=0
EXTRACT: note_on channel=6 note=65 velocity=0 time=0.028735625
EXTRACT: note_on channel=3 note=60 velocity=0 time=0.09195400000000001
EXTRACT: note_on channel=3 note=60 velocity=104 time=0
EXTRACT: note_on channel=4 note=45 velocity=0 time=0.0057471250000000005
EXTRACT: note_on channel=4 note=65 velocity=0 time=0
EXTRACT: note_on channel=4 note=57 velocity=0 time=0
EXTRACT: note_on channel=4 note=60 velocity=0 time=0
EXTRACT: note_on channel=5 note=70 velocity=0 time=0
EXTRACT: note_on channel=5 note=65 velocity=0 time=0
EXTRACT: note_on channel=9 note=39 velocity=110 time=0
EXTRACT: note_on channel=9 note=39 velocity=0 time=0.0057471250000000005
EXTRACT: note_on channel=4 note=60 velocity=74 time=0.0057471250000000005
EXTRACT: note_on channel=4 note=65 velocity=74 time=0
EXTRACT: note_on channel=4 note=57 velocity=74 time=0
EXTRACT: note_on channel=4 note=45 velocity=55 time=0
EXTRACT: note_on channel=5 note=65 velocity=69 time=0
EXTRACT: note_on channel=5 note=70 velocity=65 time=0
EXTRACT: note_on channel=3 note=60 velocity=0 time=0.12068962500000001
EXTRACT: note_on channel=3 note=63 velocity=102 time=0
EXTRACT: note_on channel=6 note=65 velocity=72 time=0.011494250000000001
EXTRACT: note_on channel=6 note=60 velocity=0 time=0.040229875000000005
EXTRACT: note_on channel=3 note=63 velocity=0 time=0.08045975000000001
EXTRACT: note_on channel=3 note=60 velocity=100 time=0
EXTRACT: note_on channel=4 note=45 velocity=0 time=0.0057471250000000005
EXTRACT: note_on channel=4 note=60 velocity=0 time=0
EXTRACT: note_on channel=4 note=65 velocity=0 time=0
EXTRACT: note_on channel=4 note=57 velocity=0 time=0
EXTRACT: note_on channel=5 note=70 velocity=0 time=0
EXTRACT: note_on channel=5 note=65 velocity=0 time=0
EXTRACT: note_on channel=9 note=35 velocity=62 time=0
EXTRACT: note_on channel=9 note=37 velocity=59 time=0
EXTRACT: note_on channel=9 note=37 velocity=0 time=0.0057471250000000005
EXTRACT: note_on channel=9 note=35 velocity=0 time=0
EXTRACT: note_on channel=4 note=57 velocity=63 time=0.0057471250000000005
EXTRACT: note_on channel=4 note=60 velocity=70 time=0
EXTRACT: note_on channel=4 note=65 velocity=69 time=0
EXTRACT: note_on channel=4 note=45 velocity=55 time=0
EXTRACT: note_on channel=5 note=65 velocity=72 time=0
EXTRACT: note_on channel=5 note=70 velocity=67 time=0
EXTRACT: note_on channel=3 note=60 velocity=0 time=0.12068962500000001
EXTRACT: note_on channel=4 note=45 velocity=0 time=0.040229875000000005
EXTRACT: note_on channel=4 note=57 velocity=0 time=0
EXTRACT: note_on channel=4 note=60 velocity=0 time=0
EXTRACT: note_on channel=4 note=65 velocity=0 time=0
EXTRACT: note_on channel=5 note=70 velocity=0 time=0
EXTRACT: note_on channel=5 note=65 velocity=0 time=0
EXTRACT: note_on channel=9 note=35 velocity=65 time=0
EXTRACT: note_on channel=9 note=37 velocity=63 time=0
EXTRACT: note_on channel=6 note=60 velocity=78 time=0.0057471250000000005
EXTRACT: note_on channel=9 note=37 velocity=0 time=0
EXTRACT: note_on channel=9 note=35 velocity=0 time=0
EXTRACT: note_on channel=4 note=57 velocity=64 time=0.0057471250000000005
EXTRACT: note_on channel=4 note=60 velocity=75 time=0
EXTRACT: note_on channel=4 note=65 velocity=71 time=0
EXTRACT: note_on channel=4 note=45 velocity=55 time=0
EXTRACT: note_on channel=5 note=65 velocity=69 time=0
EXTRACT: note_on channel=5 note=70 velocity=64 time=0
EXTRACT: note_on channel=6 note=65 velocity=0 time=0.017241375000000003
EXTRACT: note_on channel=3 note=63 velocity=101 time=0
EXTRACT: note_on channel=4 note=45 velocity=0 time=0.0057471250000000005
EXTRACT: note_on channel=4 note=57 velocity=0 time=0
EXTRACT: note_on channel=4 note=60 velocity=0 time=0
EXTRACT: note_on channel=4 note=65 velocity=0 time=0
EXTRACT: note_on channel=5 note=70 velocity=0 time=0
EXTRACT: note_on channel=5 note=65 velocity=0 time=0
EXTRACT: note_on channel=9 note=39 velocity=109 time=0
EXTRACT: note_on channel=6 note=65 velocity=74 time=0.0057471250000000005
EXTRACT: note_on channel=9 note=39 velocity=0 time=0
EXTRACT: note_on channel=4 note=60 velocity=74 time=0.0057471250000000005
EXTRACT: note_on channel=4 note=65 velocity=74 time=0
EXTRACT: note_on channel=4 note=57 velocity=74 time=0
EXTRACT: note_on channel=4 note=45 velocity=55 time=0
EXTRACT: note_on channel=5 note=65 velocity=76 time=0
EXTRACT: note_on channel=5 note=70 velocity=69 time=0
EXTRACT: note_on channel=6 note=60 velocity=0 time=0.0057471250000000005
EXTRACT: note_on channel=3 note=63 velocity=0 time=0.13793100000000003
EXTRACT: note_on channel=3 note=63 velocity=101 time=0
EXTRACT: note_on channel=4 note=45 velocity=0 time=0
EXTRACT: note_on channel=4 note=60 velocity=0 time=0
EXTRACT: note_on channel=4 note=65 velocity=0 time=0
EXTRACT: note_on channel=4 note=57 velocity=0 time=0
EXTRACT: note_on channel=5 note=70 velocity=0 time=0
EXTRACT: note_on channel=5 note=65 velocity=0 time=0
EXTRACT: note_on channel=9 note=35 velocity=62 time=0
EXTRACT: note_on channel=9 note=35 velocity=0 time=0.0057471250000000005
EXTRACT: note_on channel=4 note=60 velocity=77 time=0.0057471250000000005
EXTRACT: note_on channel=4 note=57 velocity=65 time=0
EXTRACT: note_on channel=4 note=65 velocity=69 time=0
EXTRACT: note_on channel=4 note=45 velocity=55 time=0
EXTRACT: note_on channel=5 note=65 velocity=69 time=0
EXTRACT: note_on channel=5 note=70 velocity=67 time=0
EXTRACT: note_on channel=3 note=63 velocity=0 time=0.14942525
EXTRACT: note_on channel=3 note=67 velocity=101 time=0
EXTRACT: note_on channel=4 note=45 velocity=0 time=0.0057471250000000005
EXTRACT: note_on channel=4 note=60 velocity=0 time=0
EXTRACT: note_on channel=4 note=57 velocity=0 time=0
EXTRACT: note_on channel=4 note=65 velocity=0 time=0
EXTRACT: note_on channel=5 note=70 velocity=0 time=0
EXTRACT: note_on channel=5 note=65 velocity=0 time=0
EXTRACT: note_on channel=9 note=28 velocity=52 time=0
EXTRACT: note_on channel=6 note=60 velocity=75 time=0.0057471250000000005
EXTRACT: note_on channel=9 note=28 velocity=0 time=0
EXTRACT: note_on channel=4 note=60 velocity=79 time=0.0057471250000000005
EXTRACT: note_on channel=4 note=57 velocity=65 time=0
EXTRACT: note_on channel=4 note=65 velocity=72 time=0
EXTRACT: note_on channel=4 note=45 velocity=55 time=0
EXTRACT: note_on channel=5 note=65 velocity=64 time=0
EXTRACT: note_on channel=5 note=70 velocity=63 time=0
EXTRACT: note_on channel=2 note=33 velocity=80 time=0.16091950000000002
EXTRACT: note_on channel=4 note=45 velocity=0 time=0
EXTRACT: note_on channel=4 note=60 velocity=0 time=0
EXTRACT: note_on channel=4 note=57 velocity=0 time=0
EXTRACT: note_on channel=4 note=65 velocity=0 time=0
EXTRACT: note_on channel=5 note=70 velocity=0 time=0
EXTRACT: note_on channel=5 note=65 velocity=0 time=0
EXTRACT: note_on channel=9 note=36 velocity=110 time=0
EXTRACT: note_on channel=9 note=41 velocity=110 time=0
EXTRACT: note_on channel=9 note=41 velocity=0 time=0.0057471250000000005
EXTRACT: note_on channel=9 note=36 velocity=0 time=0
EXTRACT: note_on channel=4 note=65 velocity=65 time=0.0057471250000000005
EXTRACT: note_on channel=4 note=60 velocity=65 time=0
EXTRACT: note_on channel=4 note=57 velocity=65 time=0
EXTRACT: note_on channel=4 note=45 velocity=55 time=0
EXTRACT: note_on channel=5 note=65 velocity=64 time=0
EXTRACT: note_on channel=5 note=70 velocity=64 time=0
EXTRACT: note_on channel=6 note=65 velocity=0 time=0.10919537500000001
EXTRACT: note_on channel=6 note=60 velocity=0 time=0.011494250000000001
EXTRACT: note_on channel=3 note=67 velocity=0 time=0.0057471250000000005
EXTRACT: note_on channel=2 note=33 velocity=0 time=0.017241375000000003
EXTRACT: note_on channel=3 note=62 velocity=98 time=0
EXTRACT: note_on channel=2 note=31 velocity=95 time=0
EXTRACT: note_on channel=4 note=45 velocity=0 time=0.0057471250000000005
EXTRACT: note_on channel=4 note=65 velocity=0 time=0
EXTRACT: note_on channel=4 note=60 velocity=0 time=0
EXTRACT: note_on channel=4 note=57 velocity=0 time=0
EXTRACT: note_on channel=5 note=70 velocity=0 time=0
EXTRACT: note_on channel=5 note=65 velocity=0 time=0
EXTRACT: note_on channel=6 note=67 velocity=78 time=0
EXTRACT: note_on channel=9 note=36 velocity=113 time=0
EXTRACT: note_on channel=9 note=41 velocity=110 time=0
EXTRACT: note_on channel=9 note=46 velocity=80 time=0
EXTRACT: note_on channel=4 note=43 velocity=55 time=0.0057471250000000005
EXTRACT: note_on channel=5 note=62 velocity=65 time=0
EXTRACT: note_on channel=9 note=46 velocity=0 time=0
EXTRACT: note_on channel=9 note=41 velocity=0 time=0
EXTRACT: note_on channel=9 note=36 velocity=0 time=0
EXTRACT: note_on channel=5 note=67 velocity=74 time=0.0057471250000000005
EXTRACT: note_on channel=5 note=70 velocity=65 time=0
EXTRACT: note_on channel=4 note=58 velocity=68 time=0.0057471250000000005
EXTRACT: note_on channel=4 note=62 velocity=68 time=0
EXTRACT: note_on channel=4 note=67 velocity=63 time=0
EXTRACT: note_on channel=4 note=55 velocity=62 time=0
EXTRACT: note_on channel=3 note=62 velocity=0 time=0.1149425
EXTRACT: note_on channel=3 note=62 velocity=98 time=0
EXTRACT: note_on channel=4 note=43 velocity=0 time=0.17241375
EXTRACT: note_on channel=5 note=62 velocity=0 time=0
EXTRACT: note_on channel=5 note=70 velocity=0 time=0.0057471250000000005
EXTRACT: note_on channel=5 note=67 velocity=0 time=0
EXTRACT: note_on channel=9 note=35 velocity=64 time=0
EXTRACT: note_on channel=9 note=38 velocity=64 time=0
EXTRACT: note_on channel=4 note=67 velocity=0 time=0.0057471250000000005
EXTRACT: note_on channel=4 note=58 velocity=0 time=0
EXTRACT: note_on channel=4 note=62 velocity=0 time=0
EXTRACT: note_on channel=4 note=55 velocity=0 time=0
EXTRACT: note_on channel=4 note=43 velocity=55 time=0
EXTRACT: note_on channel=9 note=38 velocity=0 time=0
EXTRACT: note_on channel=9 note=35 velocity=0 time=0
EXTRACT: note_on channel=6 note=62 velocity=79 time=0.0057471250000000005
EXTRACT: note_on channel=4 note=58 velocity=62 time=0.0057471250000000005
EXTRACT: note_on channel=4 note=55 velocity=59 time=0
EXTRACT: note_on channel=4 note=67 velocity=58 time=0
EXTRACT: note_on channel=4 note=62 velocity=64 time=0
EXTRACT: note_on channel=5 note=67 velocity=59 time=0
EXTRACT: note_on channel=5 note=62 velocity=58 time=0
EXTRACT: note_on channel=5 note=70 velocity=58 time=0
EXTRACT: note_on channel=6 note=67 velocity=0 time=0.05747125
EXTRACT: note_on channel=3 note=62 velocity=0 time=0.022988500000000002
EXTRACT: note_on channel=3 note=62 velocity=90 time=0
EXTRACT: note_on channel=9 note=35 velocity=64 time=0.0057471250000000005
EXTRACT: note_on channel=9 note=35 velocity=0 time=0.0057471250000000005
EXTRACT: note_on channel=3 note=62 velocity=0 time=0.1149425
EXTRACT: note_on channel=2 note=31 velocity=0 time=0.045977000000000004
EXTRACT: note_on channel=4 note=43 velocity=0 time=0
EXTRACT: note_on channel=9 note=39 velocity=111 time=0.0057471250000000005
EXTRACT: note_on channel=3 note=65 velocity=101 time=0
EXTRACT: note_on channel=4 note=67 velocity=0 time=0
EXTRACT: note_on channel=4 note=58 velocity=0 time=0
EXTRACT: note_on channel=4 note=55 velocity=0 time=0
EXTRACT: note_on channel=4 note=62 velocity=0 time=0
EXTRACT: note_on channel=4 note=43 velocity=55 time=0
EXTRACT: note_on channel=5 note=70 velocity=0 time=0
EXTRACT: note_on channel=5 note=62 velocity=0 time=0
EXTRACT: note_on channel=5 note=67 velocity=0 time=0
EXTRACT: note_on channel=9 note=39 velocity=0 time=0
EXTRACT: note_on channel=6 note=67 velocity=77 time=0.0057471250000000005
EXTRACT: note_on channel=4 note=58 velocity=67 time=0.0057471250000000005
EXTRACT: note_on channel=4 note=55 velocity=65 time=0
EXTRACT: note_on channel=4 note=62 velocity=69 time=0
EXTRACT: note_on channel=4 note=67 velocity=61 time=0
EXTRACT: note_on channel=5 note=62 velocity=63 time=0
EXTRACT: note_on channel=5 note=67 velocity=70 time=0
EXTRACT: note_on channel=5 note=70 velocity=63 time=0
EXTRACT: note_on channel=6 note=62 velocity=0 time=0.011494250000000001
EXTRACT: note_on channel=3 note=65 velocity=0 time=0.10344825
EXTRACT: note_on channel=9 note=37 velocity=57 time=0.040229875000000005
EXTRACT: note_on channel=3 note=63 velocity=101 time=0
EXTRACT: note_on channel=9 note=37 velocity=0 time=0
EXTRACT: note_on channel=3 note=63 velocity=0 time=0.12643675000000001
EXTRACT: note_on channel=4 note=43 velocity=0 time=0.034482750000000006
EXTRACT: note_on channel=3 note=62 velocity=101 time=0
EXTRACT: note_on channel=4 note=62 velocity=0 time=0
EXTRACT: note_on channel=4 note=58 velocity=0 time=0
EXTRACT: note_on channel=4 note=55 velocity=0 time=0
EXTRACT: note_on channel=4 note=67 velocity=0 time=0
EXTRACT: note_on channel=4 note=43 velocity=55 time=0
EXTRACT: note_on channel=5 note=70 velocity=0 time=0
EXTRACT: note_on channel=5 note=67 velocity=0 time=0
EXTRACT: note_on channel=5 note=62 velocity=0 time=0
EXTRACT: note_on channel=6 note=62 velocity=77 time=0.0057471250000000005
EXTRACT: note_on channel=4 note=58 velocity=60 time=0.0057471250000000005
EXTRACT: note_on channel=4 note=62 velocity=63 time=0
EXTRACT: note_on channel=4 note=55 velocity=58 time=0
EXTRACT: note_on channel=4 note=67 velocity=54 time=0
EXTRACT: note_on channel=5 note=67 velocity=59 time=0
EXTRACT: note_on channel=5 note=62 velocity=58 time=0
EXTRACT: note_on channel=5 note=70 velocity=57 time=0
EXTRACT: note_on channel=6 note=67 velocity=0 time=0.040229875000000005
EXTRACT: note_on channel=4 note=43 velocity=0 time=0.10919537500000001
EXTRACT: note_on channel=9 note=39 velocity=108 time=0.0057471250000000005
EXTRACT: note_on channel=4 note=55 velocity=0 time=0.0057471250000000005
EXTRACT: note_on channel=4 note=58 velocity=0 time=0
EXTRACT: note_on channel=4 note=62 velocity=0 time=0
EXTRACT: note_on channel=4 note=67 velocity=0 time=0
EXTRACT: note_on channel=4 note=43 velocity=55 time=0
EXTRACT: note_on channel=5 note=70 velocity=0 time=0
EXTRACT: note_on channel=5 note=62 velocity=0 time=0
EXTRACT: note_on channel=5 note=67 velocity=0 time=0
EXTRACT: note_on channel=9 note=39 velocity=0 time=0
EXTRACT: note_on channel=4 note=58 velocity=71 time=0.011494250000000001
EXTRACT: note_on channel=4 note=55 velocity=63 time=0
EXTRACT: note_on channel=4 note=62 velocity=71 time=0
EXTRACT: note_on channel=4 note=67 velocity=63 time=0
EXTRACT: note_on channel=5 note=62 velocity=63 time=0
EXTRACT: note_on channel=5 note=67 velocity=69 time=0
EXTRACT: note_on channel=5 note=70 velocity=63 time=0
EXTRACT: note_on channel=3 note=62 velocity=0 time=0.06896550000000001
EXTRACT: note_on channel=3 note=65 velocity=98 time=0
EXTRACT: note_on channel=6 note=67 velocity=75 time=0.017241375000000003
EXTRACT: note_on channel=6 note=62 velocity=0 time=0.028735625
EXTRACT: note_on channel=3 note=65 velocity=0 time=0.08045975000000001
EXTRACT: note_on channel=3 note=65 velocity=98 time=0
EXTRACT: note_on channel=4 note=43 velocity=0 time=0
EXTRACT: note_on channel=9 note=35 velocity=61 time=0.0057471250000000005
EXTRACT: note_on channel=9 note=37 velocity=59 time=0
EXTRACT: note_on channel=4 note=62 velocity=0 time=0.0057471250000000005
EXTRACT: note_on channel=4 note=58 velocity=0 time=0
EXTRACT: note_on channel=4 note=55 velocity=0 time=0
EXTRACT: note_on channel=4 note=67 velocity=0 time=0
EXTRACT: note_on channel=4 note=43 velocity=55 time=0
EXTRACT: note_on channel=5 note=70 velocity=0 time=0
EXTRACT: note_on channel=5 note=67 velocity=0 time=0
EXTRACT: note_on channel=5 note=62 velocity=0 time=0
EXTRACT: note_on channel=9 note=37 velocity=0 time=0
EXTRACT: note_on channel=9 note=35 velocity=0 time=0
EXTRACT: note_on channel=4 note=58 velocity=63 time=0.011494250000000001
EXTRACT: note_on channel=4 note=62 velocity=64 time=0
EXTRACT: note_on channel=4 note=55 velocity=60 time=0
EXTRACT: note_on channel=4 note=67 velocity=58 time=0
EXTRACT: note_on channel=5 note=62 velocity=57 time=0
EXTRACT: note_on channel=5 note=67 velocity=59 time=0
EXTRACT: note_on channel=5 note=70 velocity=58 time=0
EXTRACT: note_on channel=3 note=65 velocity=0 time=0.10344825
EXTRACT: note_on channel=3 note=62 velocity=98 time=0
EXTRACT: note_on channel=4 note=43 velocity=0 time=0.0057471250000000005
EXTRACT: note_on channel=9 note=35 velocity=67 time=0.0057471250000000005
EXTRACT: note_on channel=9 note=37 velocity=64 time=0
EXTRACT: note_on channel=4 note=55 velocity=0 time=0.0057471250000000005
EXTRACT: note_on channel=4 note=58 velocity=0 time=0
EXTRACT: note_on channel=4 note=62 velocity=0 time=0
EXTRACT: note_on channel=4 note=67 velocity=0 time=0
EXTRACT: note_on channel=4 note=43 velocity=55 time=0
EXTRACT: note_on channel=5 note=70 velocity=0 time=0
EXTRACT: note_on channel=5 note=67 velocity=0 time=0
EXTRACT: note_on channel=5 note=62 velocity=0 time=0
EXTRACT: note_on channel=9 note=37 velocity=0 time=0
EXTRACT: note_on channel=9 note=35 velocity=0 time=0
EXTRACT: note_on channel=6 note=62 velocity=76 time=0.0057471250000000005
EXTRACT: note_on channel=4 note=58 velocity=65 time=0.0057471250000000005
EXTRACT: note_on channel=4 note=55 velocity=58 time=0
EXTRACT: note_on channel=4 note=62 velocity=71 time=0
EXTRACT: note_on channel=4 note=67 velocity=60 time=0
EXTRACT: note_on channel=5 note=62 velocity=59 time=0
EXTRACT: note_on channel=5 note=67 velocity=67 time=0
EXTRACT: note_on channel=5 note=70 velocity=65 time=0
EXTRACT: note_on channel=6 note=67 velocity=0 time=0.045977000000000004
EXTRACT: note_on channel=3 note=62 velocity=0 time=0.051724125
EXTRACT: note_on channel=3 note=62 velocity=104 time=0
EXTRACT: note_on channel=3 note=62 velocity=0 time=0.14367812500000002
EXTRACT: note_on channel=4 note=43 velocity=0 time=0.034482750000000006
EXTRACT: note_on channel=3 note=65 velocity=93 time=0
EXTRACT: note_on channel=9 note=39 velocity=114 time=0
EXTRACT: note_on channel=4 note=62 velocity=0 time=0.0057471250000000005
EXTRACT: note_on channel=4 note=58 velocity=0 time=0
EXTRACT: note_on channel=4 note=55 velocity=0 time=0
EXTRACT: note_on channel=4 note=67 velocity=0 time=0
EXTRACT: note_on channel=4 note=43 velocity=55 time=0
EXTRACT: note_on channel=5 note=70 velocity=0 time=0
EXTRACT: note_on channel=5 note=67 velocity=0 time=0
EXTRACT: note_on channel=5 note=62 velocity=0 time=0
EXTRACT: note_on channel=6 note=62 velocity=0 time=0
EXTRACT: note_on channel=9 note=39 velocity=0 time=0
EXTRACT: note_on channel=6 note=67 velocity=74 time=0.0057471250000000005
EXTRACT: note_on channel=4 note=58 velocity=70 time=0.0057471250000000005
EXTRACT: note_on channel=4 note=55 velocity=63 time=0
EXTRACT: note_on channel=4 note=62 velocity=69 time=0
EXTRACT: note_on channel=4 note=67 velocity=63 time=0
EXTRACT: note_on channel=5 note=67 velocity=69 time=0
EXTRACT: note_on channel=5 note=62 velocity=65 time=0
EXTRACT: note_on channel=5 note=70 velocity=66 time=0
EXTRACT: note_on channel=4 note=43 velocity=0 time=0.14942525
EXTRACT: note_on channel=9 note=35 velocity=61 time=0.0057471250000000005
EXTRACT: note_on channel=4 note=62 velocity=0 time=0.0057471250000000005
EXTRACT: note_on channel=4 note=58 velocity=0 time=0
EXTRACT: note_on channel=4 note=55 velocity=0 time=0
EXTRACT: note_on channel=4 note=67 velocity=0 time=0
EXTRACT: note_on channel=4 note=43 velocity=55 time=0
EXTRACT: note_on channel=5 note=70 velocity=0 time=0
EXTRACT: note_on channel=5 note=62 velocity=0 time=0
EXTRACT: note_on channel=5 note=67 velocity=0 time=0
EXTRACT: note_on channel=9 note=35 velocity=0 time=0
EXTRACT: note_on channel=4 note=58 velocity=65 time=0.011494250000000001
EXTRACT: note_on channel=4 note=62 velocity=67 time=0
EXTRACT: note_on channel=4 note=55 velocity=57 time=0
EXTRACT: note_on channel=4 note=67 velocity=58 time=0
EXTRACT: note_on channel=5 note=62 velocity=48 time=0
EXTRACT: note_on channel=5 note=67 velocity=66 time=0
EXTRACT: note_on channel=5 note=70 velocity=63 time=0
EXTRACT: note_on channel=3 note=65 velocity=0 time=0.1149425
EXTRACT: note_on channel=3 note=65 velocity=104 time=0
EXTRACT: note_on channel=4 note=43 velocity=0 time=0.0057471250000000005
EXTRACT: note_on channel=9 note=28 velocity=51 time=0.0057471250000000005
EXTRACT: note_on channel=4 note=55 velocity=0 time=0.0057471250000000005
EXTRACT: note_on channel=4 note=58 velocity=0 time=0
EXTRACT: note_on channel=4 note=62 velocity=0 time=0
EXTRACT: note_on channel=4 note=67 velocity=0 time=0
EXTRACT: note_on channel=4 note=43 velocity=55 time=0
EXTRACT: note_on channel=5 note=70 velocity=0 time=0
EXTRACT: note_on channel=5 note=67 velocity=0 time=0
EXTRACT: note_on channel=5 note=62 velocity=0 time=0
EXTRACT: note_on channel=9 note=28 velocity=0 time=0
EXTRACT: note_on channel=6 note=65 velocity=78 time=0.0057471250000000005
EXTRACT: note_on channel=4 note=58 velocity=68 time=0.0057471250000000005
EXTRACT: note_on channel=4 note=55 velocity=63 time=0
EXTRACT: note_on channel=4 note=62 velocity=69 time=0
EXTRACT: note_on channel=4 note=67 velocity=61 time=0
EXTRACT: note_on channel=5 note=62 velocity=55 time=0
EXTRACT: note_on channel=5 note=67 velocity=67 time=0
EXTRACT: note_on channel=5 note=70 velocity=63 time=0
EXTRACT: note_on channel=6 note=67 velocity=0 time=0.022988500000000002
EXTRACT: note_on channel=3 note=65 velocity=0 time=0.086206875
EXTRACT: note_on channel=3 note=65 velocity=104 time=0
EXTRACT: note_on channel=4 note=43 velocity=0 time=0
EXTRACT: note_on channel=4 note=62 velocity=0 time=0.011494250000000001
EXTRACT: note_on channel=4 note=58 velocity=0 time=0
EXTRACT: note_on channel=4 note=55 velocity=0 time=0
EXTRACT: note_on channel=4 note=67 velocity=0 time=0
EXTRACT: note_on channel=4 note=43 velocity=55 time=0
EXTRACT: note_on channel=5 note=70 velocity=0 time=0
EXTRACT: note_on channel=5 note=67 velocity=0 time=0
EXTRACT: note_on channel=5 note=62 velocity=0 time=0
EXTRACT: note_on channel=4 note=58 velocity=59 time=0.011494250000000001
EXTRACT: note_on channel=4 note=67 velocity=59 time=0
EXTRACT: note_on channel=4 note=55 velocity=59 time=0
EXTRACT: note_on channel=4 note=62 velocity=59 time=0
EXTRACT: note_on channel=5 note=62 velocity=63 time=0
EXTRACT: note_on channel=5 note=67 velocity=63 time=0
EXTRACT: note_on channel=5 note=70 velocity=63 time=0
EXTRACT: note_on channel=3 note=65 velocity=0 time=0.12068962500000001
EXTRACT: note_on channel=6 note=65 velocity=0 time=0.011494250000000001
EXTRACT: note_on channel=3 note=62 velocity=103 time=0
EXTRACT: note_on channel=2 note=27 velocity=97 time=0
EXTRACT: note_on channel=4 note=43 velocity=0 time=0
EXTRACT: note_on channel=9 note=36 velocity=114 time=0.0057471250000000005
EXTRACT: note_on channel=9 note=41 velocity=110 time=0
EXTRACT: note_on channel=9 note=46 velocity=81 time=0
EXTRACT: note_on channel=4 note=55 velocity=0 time=0.0057471250000000005
EXTRACT: note_on channel=4 note=58 velocity=0 time=0
EXTRACT: note_on channel=4 note=67 velocity=0 time=0
EXTRACT: note_on channel=4 note=62 velocity=0 time=0
EXTRACT: note_on channel=4 note=39 velocity=55 time=0
EXTRACT: note_on channel=5 note=70 velocity=0 time=0
EXTRACT: note_on channel=5 note=67 velocity=0 time=0
EXTRACT: note_on channel=5 note=62 velocity=0 time=0
EXTRACT: note_on channel=6 note=67 velocity=74 time=0
EXTRACT: note_on channel=9 note=46 velocity=0 time=0
EXTRACT: note_on channel=9 note=41 velocity=0 time=0
EXTRACT: note_on channel=9 note=36 velocity=0 time=0
EXTRACT: note_on channel=5 note=70 velocity=65 time=0.0057471250000000005
EXTRACT: note_on channel=4 note=63 velocity=64 time=0.0057471250000000005
EXTRACT: note_on channel=4 note=67 velocity=63 time=0
EXTRACT: note_on channel=4 note=58 velocity=65 time=0
EXTRACT: note_on channel=4 note=55 velocity=64 time=0
EXTRACT: note_on channel=5 note=65 velocity=74 time=0
EXTRACT: note_on channel=3 note=62 velocity=0 time=0.12068962500000001
EXTRACT: note_on channel=3 note=62 velocity=103 time=0
EXTRACT: note_on channel=3 note=62 velocity=0 time=0.14367812500000002
EXTRACT: note_on channel=3 note=65 velocity=83 time=0
EXTRACT: note_on channel=4 note=39 velocity=0 time=0
EXTRACT: note_on channel=5 note=70 velocity=0 time=0.0057471250000000005
EXTRACT: note_on channel=9 note=35 velocity=68 time=0
EXTRACT: note_on channel=9 note=38 velocity=68 time=0
EXTRACT: note_on channel=4 note=58 velocity=0 time=0.0057471250000000005
EXTRACT: note_on channel=4 note=63 velocity=0 time=0
EXTRACT: note_on channel=4 note=67 velocity=0 time=0
EXTRACT: note_on channel=4 note=55 velocity=0 time=0
EXTRACT: note_on channel=4 note=39 velocity=55 time=0
EXTRACT: note_on channel=5 note=65 velocity=0 time=0
EXTRACT: note_on channel=9 note=38 velocity=0 time=0
EXTRACT: note_on channel=9 note=35 velocity=0 time=0
EXTRACT: note_on channel=6 note=65 velocity=76 time=0.0057471250000000005
EXTRACT: note_on channel=4 note=58 velocity=61 time=0.0057471250000000005
EXTRACT: note_on channel=4 note=63 velocity=63 time=0
EXTRACT: note_on channel=4 note=55 velocity=58 time=0
EXTRACT: note_on channel=4 note=67 velocity=56 time=0
EXTRACT: note_on channel=5 note=65 velocity=73 time=0
EXTRACT: note_on channel=5 note=70 velocity=63 time=0
EXTRACT: note_on channel=6 note=67 velocity=0 time=0.045977000000000004
EXTRACT: note_on channel=3 note=65 velocity=0 time=0.06321837500000001
EXTRACT: note_on channel=3 note=62 velocity=98 time=0
EXTRACT: note_on channel=9 note=35 velocity=63 time=0
EXTRACT: note_on channel=9 note=35 velocity=0 time=0.0057471250000000005
EXTRACT: note_on channel=3 note=62 velocity=0 time=0.1149425
EXTRACT: note_on channel=6 note=65 velocity=0 time=0.022988500000000002
EXTRACT: note_on channel=4 note=39 velocity=0 time=0.022988500000000002
EXTRACT: note_on channel=3 note=62 velocity=93 time=0
EXTRACT: note_on channel=2 note=27 velocity=0 time=0
EXTRACT: note_on channel=6 note=67 velocity=77 time=0
EXTRACT: note_on channel=9 note=39 velocity=110 time=0
EXTRACT: note_on channel=4 note=55 velocity=0 time=0.0057471250000000005
EXTRACT: note_on channel=4 note=58 velocity=0 time=0
EXTRACT: note_on channel=4 note=63 velocity=0 time=0
EXTRACT: note_on channel=4 note=67 velocity=0 time=0
EXTRACT: note_on channel=4 note=39 velocity=55 time=0
EXTRACT: note_on channel=5 note=70 velocity=0 time=0
EXTRACT: note_on channel=5 note=65 velocity=0 time=0
EXTRACT: note_on channel=9 note=39 velocity=0 time=0
EXTRACT: note_on channel=4 note=58 velocity=65 time=0.011494250000000001
EXTRACT: note_on channel=4 note=67 velocity=65 time=0
EXTRACT: note_on channel=4 note=63 velocity=67 time=0
EXTRACT: note_on channel=4 note=55 velocity=62 time=0
EXTRACT: note_on channel=5 note=67 velocity=74 time=0
EXTRACT: note_on channel=5 note=70 velocity=76 time=0
EXTRACT: note_on channel=3 note=62 velocity=0 time=0.12643675000000001
EXTRACT: note_on channel=3 note=65 velocity=81 time=0
EXTRACT: note_on channel=9 note=37 velocity=57 time=0.0057471250000000005
EXTRACT: note_on channel=9 note=37 velocity=0 time=0.0057471250000000005
EXTRACT: note_on channel=3 note=65 velocity=0 time=0.12643675000000001
EXTRACT: note_on channel=3 note=63 velocity=93 time=0
EXTRACT: note_on channel=4 note=39 velocity=0 time=0
EXTRACT: note_on channel=5 note=67 velocity=0 time=0
EXTRACT: note_on channel=4 note=63 velocity=0 time=0.011494250000000001
EXTRACT: note_on channel=4 note=58 velocity=0 time=0
EXTRACT: note_on channel=4 note=67 velocity=0 time=0
EXTRACT: note_on channel=4 note=55 velocity=0 time=0
EXTRACT: note_on channel=4 note=39 velocity=55 time=0
EXTRACT: note_on channel=5 note=70 velocity=0 time=0
EXTRACT: note_on channel=6 note=65 velocity=76 time=0.0057471250000000005
EXTRACT: note_on channel=4 note=58 velocity=59 time=0.0057471250000000005
EXTRACT: note_on channel=4 note=63 velocity=61 time=0
EXTRACT: note_on channel=4 note=67 velocity=58 time=0
EXTRACT: note_on channel=4 note=55 velocity=57 time=0
EXTRACT: note_on channel=5 note=65 velocity=67 time=0
EXTRACT: note_on channel=5 note=70 velocity=67 time=0
EXTRACT: note_on channel=6 note=67 velocity=0 time=0.040229875000000005
EXTRACT: note_on channel=3 note=63 velocity=0 time=0.08045975000000001
EXTRACT: note_on channel=3 note=62 velocity=81 time=0
EXTRACT: note_on channel=4 note=39 velocity=0 time=0
EXTRACT: note_on channel=9 note=39 velocity=110 time=0.0057471250000000005
EXTRACT: note_on channel=4 note=67 velocity=0 time=0.0057471250000000005
EXTRACT: note_on channel=4 note=58 velocity=0 time=0
EXTRACT: note_on channel=4 note=63 velocity=0 time=0
EXTRACT: note_on channel=4 note=55 velocity=0 time=0
EXTRACT: note_on channel=4 note=39 velocity=55 time=0
EXTRACT: note_on channel=5 note=70 velocity=0 time=0
EXTRACT: note_on channel=5 note=65 velocity=0 time=0
EXTRACT: note_on channel=9 note=39 velocity=0 time=0
EXTRACT: note_on channel=4 note=58 velocity=67 time=0.011494250000000001
EXTRACT: note_on channel=4 note=55 velocity=61 time=0
EXTRACT: note_on channel=4 note=63 velocity=65 time=0
EXTRACT: note_on channel=4 note=67 velocity=59 time=0
EXTRACT: note_on channel=5 note=70 velocity=75 time=0
EXTRACT: note_on channel=5 note=67 velocity=75 time=0
EXTRACT: note_on channel=3 note=62 velocity=0 time=0.1149425
EXTRACT: note_on channel=3 note=65 velocity=93 time=0
EXTRACT: note_on channel=6 note=65 velocity=0 time=0.0057471250000000005
EXTRACT: note_on channel=6 note=67 velocity=79 time=0.011494250000000001
EXTRACT: note_on channel=3 note=65 velocity=0 time=0.12643675000000001
EXTRACT: note_on channel=3 note=63 velocity=81 time=0
EXTRACT: note_on channel=4 note=39 velocity=0 time=0
EXTRACT: note_on channel=9 note=35 velocity=62 time=0.0057471250000000005
EXTRACT: note_on channel=9 note=37 velocity=59 time=0
EXTRACT: note_on channel=4 note=63 velocity=0 time=0.0057471250000000005
EXTRACT: note_on channel=4 note=58 velocity=0 time=0
EXTRACT: note_on channel=4 note=55 velocity=0 time=0
EXTRACT: note_on channel=4 note=67 velocity=0 time=0
EXTRACT: note_on channel=4 note=39 velocity=55 time=0
EXTRACT: note_on channel=5 note=67 velocity=0 time=0
EXTRACT: note_on channel=5 note=70 velocity=0 time=0
EXTRACT: note_on channel=9 note=37 velocity=0 time=0
EXTRACT: note_on channel=9 note=35 velocity=0 time=0
EXTRACT: note_on channel=4 note=58 velocity=61 time=0.011494250000000001
EXTRACT: note_on channel=4 note=67 velocity=59 time=0
EXTRACT: note_on channel=4 note=63 velocity=61 time=0
EXTRACT: note_on channel=4 note=55 velocity=58 time=0
EXTRACT: note_on channel=5 note=65 velocity=70 time=0
EXTRACT: note_on channel=5 note=70 velocity=67 time=0
EXTRACT: note_on channel=3 note=63 velocity=0 time=0.1149425
EXTRACT: note_on channel=3 note=62 velocity=93 time=0
EXTRACT: note_on channel=4 note=39 velocity=0 time=0
EXTRACT: note_on channel=9 note=35 velocity=65 time=0.0057471250000000005
EXTRACT: note_on channel=9 note=37 velocity=63 time=0
EXTRACT: note_on channel=4 note=63 velocity=0 time=0.0057471250000000005
EXTRACT: note_on channel=4 note=58 velocity=0 time=0
EXTRACT: note_on channel=4 note=67 velocity=0 time=0
EXTRACT: note_on channel=4 note=55 velocity=0 time=0
EXTRACT: note_on channel=4 note=39 velocity=55 time=0
EXTRACT: note_on channel=5 note=70 velocity=0 time=0
EXTRACT: note_on channel=5 note=65 velocity=0 time=0
EXTRACT: note_on channel=9 note=37 velocity=0 time=0
EXTRACT: note_on channel=9 note=35 velocity=0 time=0
EXTRACT: note_on channel=6 note=65 velocity=76 time=0.0057471250000000005
EXTRACT: note_on channel=4 note=58 velocity=68 time=0.0057471250000000005
EXTRACT: note_on channel=4 note=67 velocity=65 time=0
EXTRACT: note_on channel=4 note=63 velocity=68 time=0
EXTRACT: note_on channel=4 note=55 velocity=60 time=0
EXTRACT: note_on channel=5 note=65 velocity=81 time=0
EXTRACT: note_on channel=5 note=70 velocity=74 time=0
EXTRACT: note_on channel=6 note=67 velocity=0 time=0.040229875000000005
EXTRACT: note_on channel=3 note=62 velocity=0 time=0.08045975000000001
EXTRACT: note_on channel=3 note=62 velocity=81 time=0
EXTRACT: note_on channel=3 note=62 velocity=0 time=0.13793100000000003
EXTRACT: note_on channel=3 note=65 velocity=98 time=0
EXTRACT: note_on channel=4 note=39 velocity=0 time=0
EXTRACT: note_on channel=6 note=65 velocity=0 time=0.0057471250000000005
EXTRACT: note_on channel=9 note=39 velocity=109 time=0
EXTRACT: note_on channel=4 note=63 velocity=0 time=0.0057471250000000005
EXTRACT: note_on channel=4 note=58 velocity=0 time=0
EXTRACT: note_on channel=4 note=67 velocity=0 time=0
EXTRACT: note_on channel=4 note=55 velocity=0 time=0
EXTRACT: note_on channel=4 note=39 velocity=55 time=0
EXTRACT: note_on channel=5 note=70 velocity=0 time=0
EXTRACT: note_on channel=5 note=65 velocity=0 time=0
EXTRACT: note_on channel=9 note=39 velocity=0 time=0
EXTRACT: note_on channel=6 note=67 velocity=78 time=0.0057471250000000005
EXTRACT: note_on channel=4 note=67 velocity=65 time=0.0057471250000000005
EXTRACT: note_on channel=4 note=58 velocity=69 time=0
EXTRACT: note_on channel=4 note=63 velocity=69 time=0
EXTRACT: note_on channel=4 note=55 velocity=63 time=0
EXTRACT: note_on channel=5 note=70 velocity=66 time=0
EXTRACT: note_on channel=5 note=65 velocity=66 time=0
EXTRACT: note_on channel=3 note=65 velocity=0 time=0.12643675000000001
EXTRACT: note_on channel=4 note=39 velocity=0 time=0.022988500000000002
EXTRACT: note_on channel=9 note=35 velocity=62 time=0.0057471250000000005
EXTRACT: note_on channel=4 note=63 velocity=0 time=0.0057471250000000005
EXTRACT: note_on channel=4 note=67 velocity=0 time=0
EXTRACT: note_on channel=4 note=58 velocity=0 time=0
EXTRACT: note_on channel=4 note=55 velocity=0 time=0
EXTRACT: note_on channel=4 note=39 velocity=55 time=0
EXTRACT: note_on channel=5 note=65 velocity=0 time=0
EXTRACT: note_on channel=5 note=70 velocity=0 time=0
EXTRACT: note_on channel=9 note=35 velocity=0 time=0
EXTRACT: note_on channel=4 note=58 velocity=67 time=0.011494250000000001
EXTRACT: note_on channel=4 note=63 velocity=67 time=0
EXTRACT: note_on channel=4 note=67 velocity=60 time=0
EXTRACT: note_on channel=4 note=55 velocity=61 time=0
EXTRACT: note_on channel=5 note=65 velocity=64 time=0
EXTRACT: note_on channel=5 note=70 velocity=69 time=0
EXTRACT: note_on channel=3 note=65 velocity=86 time=0
EXTRACT: note_on channel=4 note=39 velocity=0 time=0
EXTRACT: note_on channel=9 note=38 velocity=66 time=0.0057471250000000005
EXTRACT: note_on channel=9 note=28 velocity=52 time=0
EXTRACT: note_on channel=4 note=67 velocity=0 time=0.0057471250000000005
EXTRACT: note_on channel=4 note=58 velocity=0 time=0
EXTRACT: note_on channel=4 note=63 velocity=0 time=0
EXTRACT: note_on channel=4 note=55 velocity=0 time=0
EXTRACT: note_on channel=4 note=39 velocity=55 time=0
EXTRACT: note_on channel=5 note=70 velocity=0 time=0
EXTRACT: note_on channel=5 note=65 velocity=0 time=0
EXTRACT: note_on channel=9 note=28 velocity=0 time=0
EXTRACT: note_on channel=9 note=38 velocity=0 time=0
EXTRACT: note_on channel=6 note=65 velocity=76 time=0.0057471250000000005
EXTRACT: note_on channel=4 note=58 velocity=66 time=0.0057471250000000005
EXTRACT: note_on channel=4 note=67 velocity=60 time=0
EXTRACT: note_on channel=4 note=63 velocity=69 time=0
EXTRACT: note_on channel=4 note=55 velocity=60 time=0
EXTRACT: note_on channel=5 note=65 velocity=70 time=0
EXTRACT: note_on channel=5 note=70 velocity=68 time=0
EXTRACT: note_on channel=6 note=67 velocity=0 time=0.028735625
EXTRACT: note_on channel=3 note=65 velocity=0 time=0.09195400000000001
EXTRACT: note_on channel=3 note=65 velocity=86 time=0
EXTRACT: note_on channel=4 note=39 velocity=0 time=0.0057471250000000005
EXTRACT: note_on channel=9 note=36 velocity=110 time=0.0057471250000000005
EXTRACT: note_on channel=4 note=63 velocity=0 time=0.0057471250000000005
EXTRACT: note_on channel=4 note=58 velocity=0 time=0
EXTRACT: note_on channel=4 note=67 velocity=0 time=0
EXTRACT: note_on channel=4 note=55 velocity=0 time=0
EXTRACT: note_on channel=4 note=39 velocity=55 time=0
EXTRACT: note_on channel=5 note=70 velocity=0 time=0
EXTRACT: note_on channel=5 note=65 velocity=0 time=0
EXTRACT: note_on channel=9 note=36 velocity=0 time=0
EXTRACT: note_on channel=4 note=67 velocity=57 time=0.011494250000000001
EXTRACT: note_on channel=4 note=58 velocity=57 time=0
EXTRACT: note_on channel=4 note=55 velocity=57 time=0
EXTRACT: note_on channel=4 note=63 velocity=57 time=0
EXTRACT: note_on channel=5 note=65 velocity=63 time=0
EXTRACT: note_on channel=5 note=70 velocity=63 time=0
EXTRACT: note_on channel=6 note=65 velocity=0 time=0.09770112500000001
EXTRACT: note_on channel=3 note=65 velocity=0 time=0.017241375000000003
EXTRACT: note_on channel=2 note=34 velocity=96 time=0.022988500000000002
EXTRACT: note_on channel=4 note=39 velocity=0 time=0.011494250000000001
EXTRACT: note_on channel=3 note=62 velocity=98 time=0
EXTRACT: note_on channel=6 note=65 velocity=83 time=0
EXTRACT: note_on channel=9 note=36 velocity=113 time=0
EXTRACT: note_on channel=9 note=41 velocity=110 time=0
EXTRACT: note_on channel=9 note=46 velocity=80 time=0
EXTRACT: note_on channel=4 note=55 velocity=0 time=0.0057471250000000005
EXTRACT: note_on channel=4 note=67 velocity=0 time=0
EXTRACT: note_on channel=4 note=58 velocity=0 time=0
EXTRACT: note_on channel=4 note=63 velocity=0 time=0
EXTRACT: note_on channel=4 note=46 velocity=55 time=0
EXTRACT: note_on channel=5 note=70 velocity=0 time=0
EXTRACT: note_on channel=5 note=65 velocity=0 time=0
EXTRACT: note_on channel=9 note=46 velocity=0 time=0
EXTRACT: note_on channel=9 note=41 velocity=0 time=0
EXTRACT: note_on channel=9 note=36 velocity=0 time=0
EXTRACT: note_on channel=4 note=58 velocity=74 time=0.011494250000000001
EXTRACT: note_on channel=4 note=62 velocity=69 time=0
EXTRACT: note_on channel=4 note=65 velocity=66 time=0
EXTRACT: note_on channel=4 note=53 velocity=66 time=0
EXTRACT: note_on channel=5 note=65 velocity=74 time=0
EXTRACT: note_on channel=5 note=70 velocity=63 time=0
EXTRACT: note_on channel=3 note=62 velocity=0 time=0.12643675000000001
EXTRACT: note_on channel=3 note=62 velocity=98 time=0
EXTRACT: note_on channel=3 note=62 velocity=0 time=0.14367812500000002
EXTRACT: note_on channel=3 note=65 velocity=100 time=0
EXTRACT: note_on channel=4 note=46 velocity=0 time=0.0057471250000000005
EXTRACT: note_on channel=9 note=35 velocity=64 time=0.0057471250000000005
EXTRACT: note_on channel=9 note=38 velocity=64 time=0
EXTRACT: note_on channel=4 note=65 velocity=0 time=0.0057471250000000005
EXTRACT: note_on channel=4 note=58 velocity=0 time=0
EXTRACT: note_on channel=4 note=62 velocity=0 time=0
EXTRACT: note_on channel=4 note=53 velocity=0 time=0
EXTRACT: note_on channel=4 note=46 velocity=55 time=0
EXTRACT: note_on channel=5 note=70 velocity=0 time=0
EXTRACT: note_on channel=5 note=65 velocity=0 time=0
EXTRACT: note_on channel=9 note=38 velocity=0 time=0
EXTRACT: note_on channel=9 note=35 velocity=0 time=0
EXTRACT: note_on channel=6 note=62 velocity=82 time=0.0057471250000000005
EXTRACT: note_on channel=4 note=53 velocity=60 time=0.0057471250000000005
EXTRACT: note_on channel=4 note=58 velocity=61 time=0
EXTRACT: note_on channel=4 note=62 velocity=61 time=0
EXTRACT: note_on channel=4 note=65 velocity=59 time=0
EXTRACT: note_on channel=5 note=70 velocity=62 time=0
EXTRACT: note_on channel=5 note=65 velocity=64 time=0
EXTRACT: note_on channel=6 note=65 velocity=0 time=0.05747125
EXTRACT: note_on channel=3 note=65 velocity=0 time=0.045977000000000004
EXTRACT: note_on channel=3 note=65 velocity=100 time=0
EXTRACT: note_on channel=9 note=35 velocity=64 time=0.0057471250000000005
EXTRACT: note_on channel=9 note=35 velocity=0 time=0.0057471250000000005
EXTRACT: note_on channel=3 note=65 velocity=0 time=0.12068962500000001
EXTRACT: note_on channel=4 note=46 velocity=0 time=0.040229875000000005
EXTRACT: note_on channel=3 note=62 velocity=101 time=0
EXTRACT: note_on channel=2 note=34 velocity=0 time=0
EXTRACT: note_on channel=9 note=39 velocity=111 time=0
EXTRACT: note_on channel=4 note=62 velocity=0 time=0.0057471250000000005
EXTRACT: note_on channel=4 note=53 velocity=0 time=0
EXTRACT: note_on channel=4 note=58 velocity=0 time=0
EXTRACT: note_on channel=4 note=65 velocity=0 time=0
EXTRACT: note_on channel=4 note=46 velocity=55 time=0
EXTRACT: note_on channel=5 note=65 velocity=0 time=0
EXTRACT: note_on channel=5 note=70 velocity=0 time=0
EXTRACT: note_on channel=6 note=62 velocity=0 time=0
EXTRACT: note_on channel=6 note=65 velocity=82 time=0
EXTRACT: note_on channel=9 note=39 velocity=0 time=0
EXTRACT: note_on channel=5 note=65 velocity=74 time=0.0057471250000000005
EXTRACT: note_on channel=4 note=58 velocity=65 time=0.0057471250000000005
EXTRACT: note_on channel=4 note=53 velocity=64 time=0
EXTRACT: note_on channel=4 note=62 velocity=67 time=0
EXTRACT: note_on channel=4 note=65 velocity=63 time=0
EXTRACT: note_on channel=5 note=70 velocity=65 time=0
EXTRACT: note_on channel=3 note=62 velocity=0 time=0.132183875
EXTRACT: note_on channel=3 note=62 velocity=101 time=0
EXTRACT: note_on channel=9 note=37 velocity=57 time=0.0057471250000000005
EXTRACT: note_on channel=9 note=37 velocity=0 time=0.0057471250000000005
EXTRACT: note_on channel=3 note=62 velocity=0 time=0.13793100000000003
EXTRACT: note_on channel=3 note=65 velocity=104 time=0
EXTRACT: note_on channel=4 note=46 velocity=0 time=0
EXTRACT: note_on channel=5 note=65 velocity=0 time=0.0057471250000000005
EXTRACT: note_on channel=4 note=62 velocity=0 time=0.0057471250000000005
EXTRACT: note_on channel=4 note=58 velocity=0 time=0
EXTRACT: note_on channel=4 note=53 velocity=0 time=0
EXTRACT: note_on channel=4 note=65 velocity=0 time=0
EXTRACT: note_on channel=4 note=46 velocity=55 time=0
EXTRACT: note_on channel=5 note=70 velocity=0 time=0
EXTRACT: note_on channel=5 note=70 velocity=61 time=0
EXTRACT: note_on channel=5 note=65 velocity=64 time=0
EXTRACT: note_on channel=6 note=62 velocity=78 time=0.0057471250000000005
EXTRACT: note_on channel=4 note=53 velocity=60 time=0.0057471250000000005
EXTRACT: note_on channel=4 note=62 velocity=64 time=0
EXTRACT: note_on channel=4 note=58 velocity=59 time=0
EXTRACT: note_on channel=4 note=65 velocity=59 time=0
EXTRACT: note_on channel=6 note=65 velocity=0 time=0.040229875000000005
EXTRACT: note_on channel=4 note=46 velocity=0 time=0.10919537500000001
EXTRACT: note_on channel=5 note=65 velocity=0 time=0
EXTRACT: note_on channel=5 note=70 velocity=0 time=0
EXTRACT: note_on channel=9 note=39 velocity=108 time=0.0057471250000000005
EXTRACT: note_on channel=4 note=58 velocity=0 time=0.0057471250000000005
EXTRACT: note_on channel=4 note=53 velocity=0 time=0
EXTRACT: note_on channel=4 note=62 velocity=0 time=0
EXTRACT: note_on channel=4 note=65 velocity=0 time=0
EXTRACT: note_on channel=4 note=46 velocity=55 time=0
EXTRACT: note_on channel=5 note=70 velocity=65 time=0
EXTRACT: note_on channel=5 note=65 velocity=72 time=0
EXTRACT: note_on channel=9 note=39 velocity=0 time=0
EXTRACT: note_on channel=4 note=58 velocity=67 time=0.011494250000000001
EXTRACT: note_on channel=4 note=53 velocity=63 time=0
EXTRACT: note_on channel=4 note=65 velocity=60 time=0
EXTRACT: note_on channel=4 note=62 velocity=66 time=0
EXTRACT: note_on channel=3 note=65 velocity=0 time=0.086206875
EXTRACT: note_on channel=3 note=65 velocity=104 time=0
EXTRACT: note_on channel=6 note=62 velocity=0 time=0.0057471250000000005
EXTRACT: note_on channel=6 note=65 velocity=76 time=0
EXTRACT: note_on channel=3 note=65 velocity=0 time=0.12643675000000001
EXTRACT: note_on channel=4 note=46 velocity=0 time=0.028735625
EXTRACT: note_on channel=5 note=65 velocity=0 time=0
EXTRACT: note_on channel=5 note=70 velocity=0 time=0
EXTRACT: note_on channel=9 note=35 velocity=61 time=0.0057471250000000005
EXTRACT: note_on channel=9 note=37 velocity=59 time=0
EXTRACT: note_on channel=3 note=65 velocity=108 time=0
EXTRACT: note_on channel=4 note=65 velocity=0 time=0
EXTRACT: note_on channel=4 note=58 velocity=0 time=0
EXTRACT: note_on channel=4 note=53 velocity=0 time=0
EXTRACT: note_on channel=4 note=62 velocity=0 time=0
EXTRACT: note_on channel=4 note=46 velocity=55 time=0
EXTRACT: note_on channel=5 note=70 velocity=60 time=0
EXTRACT: note_on channel=5 note=65 velocity=64 time=0
EXTRACT: note_on channel=9 note=37 velocity=0 time=0
EXTRACT: note_on channel=9 note=35 velocity=0 time=0
EXTRACT: note_on channel=4 note=58 velocity=65 time=0.011494250000000001
EXTRACT: note_on channel=4 note=53 velocity=63 time=0
EXTRACT: note_on channel=4 note=62 velocity=65 time=0
EXTRACT: note_on channel=4 note=65 velocity=59 time=0
EXTRACT: note_on channel=3 note=65 velocity=0 time=0.10344825
EXTRACT: note_on channel=3 note=62 velocity=104 time=0
EXTRACT: note_on channel=4 note=46 velocity=0 time=0.0057471250000000005
EXTRACT: note_on channel=5 note=65 velocity=0 time=0
EXTRACT: note_on channel=5 note=70 velocity=0 time=0
EXTRACT: note_on channel=9 note=35 velocity=67 time=0.0057471250000000005
EXTRACT: note_on channel=9 note=37 velocity=64 time=0
EXTRACT: note_on channel=4 note=62 velocity=0 time=0.0057471250000000005
EXTRACT: note_on channel=4 note=58 velocity=0 time=0
EXTRACT: note_on channel=4 note=53 velocity=0 time=0
EXTRACT: note_on channel=4 note=65 velocity=0 time=0
EXTRACT: note_on channel=4 note=46 velocity=55 time=0
EXTRACT: note_on channel=5 note=65 velocity=70 time=0
EXTRACT: note_on channel=5 note=70 velocity=65 time=0
EXTRACT: note_on channel=9 note=37 velocity=0 time=0
EXTRACT: note_on channel=9 note=35 velocity=0 time=0
EXTRACT: note_on channel=6 note=62 velocity=83 time=0.0057471250000000005
EXTRACT: note_on channel=4 note=58 velocity=64 time=0.0057471250000000005
EXTRACT: note_on channel=4 note=53 velocity=64 time=0
EXTRACT: note_on channel=4 note=62 velocity=64 time=0
EXTRACT: note_on channel=4 note=65 velocity=59 time=0
EXTRACT: note_on channel=6 note=65 velocity=0 time=0.05747125
EXTRACT: note_on channel=3 note=62 velocity=0 time=0.045977000000000004
EXTRACT: note_on channel=3 note=62 velocity=108 time=0
EXTRACT: note_on channel=3 note=62 velocity=0 time=0.1149425
EXTRACT: note_on channel=4 note=46 velocity=0 time=0.06321837500000001
EXTRACT: note_on channel=5 note=70 velocity=0 time=0
EXTRACT: note_on channel=5 note=65 velocity=0 time=0
EXTRACT: note_on channel=9 note=39 velocity=114 time=0.0057471250000000005
EXTRACT: note_on channel=3 note=65 velocity=103 time=0
EXTRACT: note_on channel=4 note=62 velocity=0 time=0
EXTRACT: note_on channel=4 note=58 velocity=0 time=0
EXTRACT: note_on channel=4 note=53 velocity=0 time=0
EXTRACT: note_on channel=4 note=65 velocity=0 time=0
EXTRACT: note_on channel=4 note=46 velocity=55 time=0
EXTRACT: note_on channel=9 note=39 velocity=0 time=0
EXTRACT: note_on channel=6 note=65 velocity=79 time=0.0057471250000000005
EXTRACT: note_on channel=4 note=58 velocity=75 time=0.0057471250000000005
EXTRACT: note_on channel=4 note=53 velocity=66 time=0
EXTRACT: note_on channel=4 note=62 velocity=69 time=0
EXTRACT: note_on channel=4 note=65 velocity=63 time=0
EXTRACT: note_on channel=5 note=70 velocity=72 time=0
EXTRACT: note_on channel=5 note=65 velocity=72 time=0
EXTRACT: note_on channel=6 note=62 velocity=0 time=0.017241375000000003
EXTRACT: note_on channel=4 note=46 velocity=0 time=0.132183875
EXTRACT: note_on channel=9 note=35 velocity=61 time=0.0057471250000000005
EXTRACT: note_on channel=4 note=62 velocity=0 time=0.0057471250000000005
EXTRACT: note_on channel=4 note=58 velocity=0 time=0
EXTRACT: note_on channel=4 note=53 velocity=0 time=0
EXTRACT: note_on channel=4 note=65 velocity=0 time=0
EXTRACT: note_on channel=4 note=46 velocity=55 time=0
EXTRACT: note_on channel=5 note=65 velocity=0 time=0
EXTRACT: note_on channel=5 note=70 velocity=0 time=0
EXTRACT: note_on channel=9 note=35 velocity=0 time=0
EXTRACT: note_on channel=4 note=58 velocity=66 time=0.011494250000000001
EXTRACT: note_on channel=4 note=53 velocity=64 time=0
EXTRACT: note_on channel=4 note=65 velocity=59 time=0
EXTRACT: note_on channel=4 note=62 velocity=66 time=0
EXTRACT: note_on channel=5 note=65 velocity=65 time=0
EXTRACT: note_on channel=5 note=70 velocity=63 time=0
EXTRACT: note_on channel=3 note=65 velocity=0 time=0.1149425
EXTRACT: note_on channel=4 note=46 velocity=0 time=0.034482750000000006
EXTRACT: note_on channel=9 note=28 velocity=51 time=0.0057471250000000005
EXTRACT: note_on channel=3 note=65 velocity=103 time=0
EXTRACT: note_on channel=4 note=65 velocity=0 time=0
EXTRACT: note_on channel=4 note=58 velocity=0 time=0
EXTRACT: note_on channel=4 note=53 velocity=0 time=0
EXTRACT: note_on channel=4 note=62 velocity=0 time=0
EXTRACT: note_on channel=4 note=46 velocity=55 time=0
EXTRACT: note_on channel=5 note=70 velocity=0 time=0
EXTRACT: note_on channel=5 note=65 velocity=0 time=0
EXTRACT: note_on channel=9 note=28 velocity=0 time=0
EXTRACT: note_on channel=6 note=62 velocity=75 time=0.0057471250000000005
EXTRACT: note_on channel=4 note=53 velocity=60 time=0.0057471250000000005
EXTRACT: note_on channel=4 note=58 velocity=63 time=0
EXTRACT: note_on channel=4 note=62 velocity=66 time=0
EXTRACT: note_on channel=4 note=65 velocity=58 time=0
EXTRACT: note_on channel=5 note=65 velocity=65 time=0
EXTRACT: note_on channel=5 note=70 velocity=61 time=0
EXTRACT: note_on channel=6 note=65 velocity=0 time=0.022988500000000002
EXTRACT: note_on channel=3 note=65 velocity=0 time=0.10344825
EXTRACT: note_on channel=4 note=46 velocity=0 time=0.022988500000000002
EXTRACT: note_on channel=3 note=65 velocity=108 time=0
EXTRACT: note_on channel=4 note=62 velocity=0 time=0
EXTRACT: note_on channel=4 note=53 velocity=0 time=0
EXTRACT: note_on channel=4 note=58 velocity=0 time=0
EXTRACT: note_on channel=4 note=65 velocity=0 time=0
EXTRACT: note_on channel=4 note=46 velocity=55 time=0
EXTRACT: note_on channel=5 note=70 velocity=0 time=0
EXTRACT: note_on channel=5 note=65 velocity=0 time=0
EXTRACT: note_on channel=4 note=58 velocity=57 time=0.011494250000000001
EXTRACT: note_on channel=4 note=62 velocity=57 time=0
EXTRACT: note_on channel=4 note=65 velocity=57 time=0
EXTRACT: note_on channel=4 note=53 velocity=57 time=0
EXTRACT: note_on channel=5 note=65 velocity=63 time=0
EXTRACT: note_on channel=5 note=70 velocity=60 time=0
EXTRACT: note_on channel=3 note=65 velocity=0 time=0.12068962500000001
EXTRACT: note_on channel=2 note=33 velocity=97 time=0.028735625
EXTRACT: note_on channel=4 note=46 velocity=0 time=0
EXTRACT: note_on channel=6 note=62 velocity=0 time=0
EXTRACT: note_on channel=6 note=65 velocity=83 time=0.0057471250000000005
EXTRACT: note_on channel=9 note=36 velocity=114 time=0
EXTRACT: note_on channel=9 note=41 velocity=110 time=0
EXTRACT: note_on channel=9 note=46 velocity=81 time=0
EXTRACT: note_on channel=3 note=62 velocity=100 time=0
EXTRACT: note_on channel=4 note=65 velocity=0 time=0
EXTRACT: note_on channel=4 note=58 velocity=0 time=0
EXTRACT: note_on channel=4 note=62 velocity=0 time=0
EXTRACT: note_on channel=4 note=53 velocity=0 time=0
EXTRACT: note_on channel=4 note=45 velocity=55 time=0
EXTRACT: note_on channel=5 note=70 velocity=0 time=0
EXTRACT: note_on channel=5 note=65 velocity=0 time=0
EXTRACT: note_on channel=9 note=46 velocity=0 time=0
EXTRACT: note_on channel=9 note=41 velocity=0 time=0
EXTRACT: note_on channel=9 note=36 velocity=0 time=0
EXTRACT: note_on channel=4 note=60 velocity=69 time=0.011494250000000001
EXTRACT: note_on channel=4 note=57 velocity=69 time=0
EXTRACT: note_on channel=4 note=65 velocity=69 time=0
EXTRACT: note_on channel=5 note=65 velocity=76 time=0
EXTRACT: note_on channel=5 note=70 velocity=69 time=0
EXTRACT: note_on channel=3 note=62 velocity=0 time=0.12643675000000001
EXTRACT: note_on channel=3 note=62 velocity=100 time=0
EXTRACT: note_on channel=3 note=62 velocity=0 time=0.13793100000000003
EXTRACT: note_on channel=3 note=65 velocity=100 time=0
EXTRACT: note_on channel=4 note=45 velocity=0 time=0
EXTRACT: note_on channel=9 note=35 velocity=68 time=0.0057471250000000005
EXTRACT: note_on channel=9 note=38 velocity=68 time=0
EXTRACT: note_on channel=4 note=60 velocity=0 time=0.0057471250000000005
EXTRACT: note_on channel=4 note=57 velocity=0 time=0
EXTRACT: note_on channel=4 note=65 velocity=0 time=0
EXTRACT: note_on channel=4 note=45 velocity=55 time=0
EXTRACT: note_on channel=5 note=70 velocity=0 time=0
EXTRACT: note_on channel=5 note=65 velocity=0 time=0
EXTRACT: note_on channel=9 note=38 velocity=0 time=0
EXTRACT: note_on channel=9 note=35 velocity=0 time=0
EXTRACT: note_on channel=6 note=60 velocity=83 time=0.0057471250000000005
EXTRACT: note_on channel=4 note=57 velocity=59 time=0.0057471250000000005
EXTRACT: note_on channel=4 note=60 velocity=70 time=0
EXTRACT: note_on channel=4 note=65 velocity=66 time=0
EXTRACT: note_on channel=5 note=70 velocity=67 time=0
EXTRACT: note_on channel=5 note=65 velocity=71 time=0
EXTRACT: note_on channel=6 note=65 velocity=0 time=0.022988500000000002
EXTRACT: note_on channel=3 note=65 velocity=0 time=0.09195400000000001
EXTRACT: note_on channel=3 note=65 velocity=100 time=0
EXTRACT: note_on channel=9 note=35 velocity=63 time=0.0057471250000000005
EXTRACT: note_on channel=9 note=35 velocity=0 time=0.0057471250000000005
EXTRACT: note_on channel=3 note=65 velocity=0 time=0.12643675000000001
EXTRACT: note_on channel=2 note=33 velocity=0 time=0.028735625
EXTRACT: note_on channel=4 note=45 velocity=0 time=0.0057471250000000005
EXTRACT: note_on channel=3 note=62 velocity=95 time=0
EXTRACT: note_on channel=9 note=39 velocity=110 time=0
EXTRACT: note_on channel=4 note=57 velocity=0 time=0.0057471250000000005
EXTRACT: note_on channel=4 note=60 velocity=0 time=0
EXTRACT: note_on channel=4 note=65 velocity=0 time=0
EXTRACT: note_on channel=4 note=45 velocity=55 time=0
EXTRACT: note_on channel=5 note=65 velocity=0 time=0
EXTRACT: note_on channel=5 note=70 velocity=0 time=0
EXTRACT: note_on channel=9 note=39 velocity=0 time=0
EXTRACT: note_on channel=6 note=65 velocity=76 time=0.0057471250000000005
EXTRACT: note_on channel=4 note=60 velocity=75 time=0.0057471250000000005
EXTRACT: note_on channel=4 note=65 velocity=75 time=0
EXTRACT: note_on channel=4 note=57 velocity=75 time=0
EXTRACT: note_on channel=5 note=70 velocity=65 time=0
EXTRACT: note_on channel=5 note=65 velocity=71 time=0
EXTRACT: note_on channel=6 note=60 velocity=0 time=0
EXTRACT: note_on channel=3 note=62 velocity=0 time=0.13793100000000003
EXTRACT: note_on channel=9 note=37 velocity=57 time=0.017241375000000003
EXTRACT: note_on channel=3 note=65 velocity=93 time=0
EXTRACT: note_on channel=9 note=37 velocity=0 time=0
EXTRACT: note_on channel=3 note=65 velocity=0 time=0.13793100000000003
EXTRACT: note_on channel=4 note=45 velocity=0 time=0.022988500000000002
EXTRACT: note_on channel=3 note=65 velocity=93 time=0
EXTRACT: note_on channel=4 note=60 velocity=0 time=0
EXTRACT: note_on channel=4 note=65 velocity=0 time=0
EXTRACT: note_on channel=4 note=57 velocity=0 time=0
EXTRACT: note_on channel=4 note=45 velocity=55 time=0
EXTRACT: note_on channel=5 note=65 velocity=0 time=0
EXTRACT: note_on channel=5 note=70 velocity=0 time=0
EXTRACT: note_on channel=6 note=60 velocity=77 time=0.0057471250000000005
EXTRACT: note_on channel=4 note=57 velocity=60 time=0.0057471250000000005
EXTRACT: note_on channel=4 note=65 velocity=60 time=0
EXTRACT: note_on channel=4 note=60 velocity=59 time=0
EXTRACT: note_on channel=5 note=65 velocity=64 time=0
EXTRACT: note_on channel=5 note=70 velocity=59 time=0
EXTRACT: note_on channel=6 note=65 velocity=0 time=0.028735625
EXTRACT: note_on channel=3 note=65 velocity=0 time=0.09770112500000001
EXTRACT: note_on channel=3 note=62 velocity=93 time=0
EXTRACT: note_on channel=4 note=45 velocity=0 time=0
EXTRACT: note_on channel=9 note=39 velocity=110 time=0.0057471250000000005
EXTRACT: note_on channel=4 note=57 velocity=0 time=0.0057471250000000005
EXTRACT: note_on channel=4 note=65 velocity=0 time=0
EXTRACT: note_on channel=4 note=60 velocity=0 time=0
EXTRACT: note_on channel=4 note=45 velocity=55 time=0
EXTRACT: note_on channel=5 note=70 velocity=0 time=0
EXTRACT: note_on channel=5 note=65 velocity=0 time=0
EXTRACT: note_on channel=9 note=39 velocity=0 time=0
EXTRACT: note_on channel=4 note=60 velocity=74 time=0.011494250000000001
EXTRACT: note_on channel=4 note=57 velocity=74 time=0
EXTRACT: note_on channel=4 note=65 velocity=74 time=0
EXTRACT: note_on channel=5 note=65 velocity=69 time=0
EXTRACT: note_on channel=5 note=70 velocity=65 time=0
EXTRACT: note_on channel=3 note=62 velocity=0 time=0.1149425
EXTRACT: note_on channel=3 note=65 velocity=101 time=0
EXTRACT: note_on channel=6 note=65 velocity=72 time=0.017241375000000003
EXTRACT: note_on channel=6 note=60 velocity=0 time=0.040229875000000005
EXTRACT: note_on channel=4 note=45 velocity=0 time=0.1149425
EXTRACT: note_on channel=9 note=35 velocity=62 time=0.0057471250000000005
EXTRACT: note_on channel=9 note=37 velocity=59 time=0
EXTRACT: note_on channel=4 note=60 velocity=0 time=0.0057471250000000005
EXTRACT: note_on channel=4 note=57 velocity=0 time=0
EXTRACT: note_on channel=4 note=65 velocity=0 time=0
EXTRACT: note_on channel=4 note=45 velocity=55 time=0
EXTRACT: note_on channel=5 note=70 velocity=0 time=0
EXTRACT: note_on channel=5 note=65 velocity=0 time=0
EXTRACT: note_on channel=9 note=37 velocity=0 time=0
EXTRACT: note_on channel=9 note=35 velocity=0 time=0
EXTRACT: note_on channel=4 note=60 velocity=70 time=0.011494250000000001
EXTRACT: note_on channel=4 note=57 velocity=63 time=0
EXTRACT: note_on channel=4 note=65 velocity=69 time=0
EXTRACT: note_on channel=5 note=65 velocity=72 time=0
EXTRACT: note_on channel=5 note=70 velocity=67 time=0
EXTRACT: note_on channel=3 note=65 velocity=0 time=0.09195400000000001
EXTRACT: note_on channel=4 note=45 velocity=0 time=0.05747125
EXTRACT: note_on channel=9 note=35 velocity=65 time=0.0057471250000000005
EXTRACT: note_on channel=9 note=37 velocity=63 time=0
EXTRACT: note_on channel=4 note=60 velocity=0 time=0.0057471250000000005
EXTRACT: note_on channel=4 note=57 velocity=0 time=0
EXTRACT: note_on channel=4 note=65 velocity=0 time=0
EXTRACT: note_on channel=4 note=45 velocity=55 time=0
EXTRACT: note_on channel=5 note=70 velocity=0 time=0
EXTRACT: note_on channel=5 note=65 velocity=0 time=0
EXTRACT: note_on channel=9 note=37 velocity=0 time=0
EXTRACT: note_on channel=9 note=35 velocity=0 time=0
EXTRACT: note_on channel=6 note=60 velocity=78 time=0.0057471250000000005
EXTRACT: note_on channel=4 note=60 velocity=75 time=0.0057471250000000005
EXTRACT: note_on channel=4 note=57 velocity=64 time=0
EXTRACT: note_on channel=4 note=65 velocity=71 time=0
EXTRACT: note_on channel=5 note=65 velocity=69 time=0
EXTRACT: note_on channel=5 note=70 velocity=64 time=0
EXTRACT: note_on channel=6 note=65 velocity=0 time=0.017241375000000003
EXTRACT: note_on channel=3 note=65 velocity=104 time=0
EXTRACT: note_on channel=3 note=65 velocity=0 time=0.12643675000000001
EXTRACT: note_on channel=4 note=45 velocity=0 time=0.045977000000000004
EXTRACT: note_on channel=3 note=65 velocity=108 time=0
EXTRACT: note_on channel=9 note=39 velocity=109 time=0
EXTRACT: note_on channel=4 note=60 velocity=0 time=0.0057471250000000005
EXTRACT: note_on channel=4 note=57 velocity=0 time=0
EXTRACT: note_on channel=4 note=65 velocity=0 time=0
EXTRACT: note_on channel=4 note=45 velocity=55 time=0
EXTRACT: note_on channel=5 note=70 velocity=0 time=0
EXTRACT: note_on channel=5 note=65 velocity=0 time=0
EXTRACT: note_on channel=9 note=39 velocity=0 time=0
EXTRACT: note_on channel=6 note=65 velocity=74 time=0.0057471250000000005
EXTRACT: note_on channel=4 note=60 velocity=74 time=0.0057471250000000005
EXTRACT: note_on channel=4 note=57 velocity=74 time=0
EXTRACT: note_on channel=4 note=65 velocity=74 time=0
EXTRACT: note_on channel=5 note=65 velocity=76 time=0
EXTRACT: note_on channel=5 note=70 velocity=69 time=0
EXTRACT: note_on channel=6 note=60 velocity=0 time=0.0057471250000000005
EXTRACT: note_on channel=3 note=65 velocity=0 time=0.1149425
EXTRACT: note_on channel=3 note=62 velocity=104 time=0
EXTRACT: note_on channel=4 note=45 velocity=0 time=0.0057471250000000005
EXTRACT: note_on channel=9 note=35 velocity=62 time=0.0057471250000000005
EXTRACT: note_on channel=4 note=60 velocity=0 time=0.0057471250000000005
EXTRACT: note_on channel=4 note=57 velocity=0 time=0
EXTRACT: note_on channel=4 note=65 velocity=0 time=0
EXTRACT: note_on channel=4 note=45 velocity=55 time=0
EXTRACT: note_on channel=5 note=70 velocity=0 time=0
EXTRACT: note_on channel=5 note=65 velocity=0 time=0
EXTRACT: note_on channel=9 note=35 velocity=0 time=0
EXTRACT: note_on channel=4 note=60 velocity=77 time=0.011494250000000001
EXTRACT: note_on channel=4 note=57 velocity=65 time=0
EXTRACT: note_on channel=4 note=65 velocity=69 time=0
EXTRACT: note_on channel=5 note=65 velocity=69 time=0
EXTRACT: note_on channel=5 note=70 velocity=67 time=0
EXTRACT: note_on channel=3 note=62 velocity=0 time=0.10919537500000001
EXTRACT: note_on channel=4 note=45 velocity=0 time=0.040229875000000005
EXTRACT: note_on channel=3 note=68 velocity=108 time=0
EXTRACT: note_on channel=9 note=28 velocity=52 time=0
EXTRACT: note_on channel=4 note=60 velocity=0 time=0.0057471250000000005
EXTRACT: note_on channel=4 note=57 velocity=0 time=0
EXTRACT: note_on channel=4 note=65 velocity=0 time=0
EXTRACT: note_on channel=4 note=45 velocity=55 time=0
EXTRACT: note_on channel=5 note=70 velocity=0 time=0
EXTRACT: note_on channel=5 note=65 velocity=0 time=0
EXTRACT: note_on channel=9 note=28 velocity=0 time=0
EXTRACT: note_on channel=6 note=60 velocity=75 time=0.0057471250000000005
EXTRACT: note_on channel=4 note=60 velocity=79 time=0.0057471250000000005
EXTRACT: note_on channel=4 note=57 velocity=65 time=0
EXTRACT: note_on channel=4 note=65 velocity=72 time=0
EXTRACT: note_on channel=5 note=65 velocity=64 time=0
EXTRACT: note_on channel=5 note=70 velocity=63 time=0
EXTRACT: note_on channel=3 note=68 velocity=0 time=0.12068962500000001
EXTRACT: note_on channel=2 note=33 velocity=80 time=0.028735625
EXTRACT: note_on channel=4 note=45 velocity=0 time=0
EXTRACT: note_on channel=3 note=67 velocity=104 time=0
EXTRACT: note_on channel=9 note=36 velocity=110 time=0
EXTRACT: note_on channel=9 note=41 velocity=110 time=0
EXTRACT: note_on channel=4 note=60 velocity=0 time=0.0057471250000000005
EXTRACT: note_on channel=4 note=57 velocity=0 time=0
EXTRACT: note_on channel=4 note=65 velocity=0 time=0
EXTRACT: note_on channel=4 note=45 velocity=55 time=0
EXTRACT: note_on channel=5 note=70 velocity=0 time=0
EXTRACT: note_on channel=5 note=65 velocity=0 time=0
EXTRACT: note_on channel=9 note=41 velocity=0 time=0
EXTRACT: note_on channel=9 note=36 velocity=0 time=0
EXTRACT: note_on channel=4 note=60 velocity=65 time=0.011494250000000001
EXTRACT: note_on channel=4 note=57 velocity=65 time=0
EXTRACT: note_on channel=4 note=65 velocity=65 time=0
EXTRACT: note_on channel=5 note=65 velocity=64 time=0
EXTRACT: note_on channel=5 note=70 velocity=64 time=0
EXTRACT: note_on channel=6 note=65 velocity=0 time=0.10919537500000001
EXTRACT: note_on channel=3 note=67 velocity=0 time=0.011494250000000001
EXTRACT: note_on channel=6 note=60 velocity=0 time=0
EXTRACT: note_on channel=2 note=33 velocity=0 time=0.011494250000000001
EXTRACT: note_on channel=2 note=31 velocity=95 time=0.017241375000000003
EXTRACT: note_on channel=4 note=45 velocity=0 time=0
EXTRACT: note_on channel=6 note=67 velocity=78 time=0.0057471250000000005
EXTRACT: note_on channel=9 note=36 velocity=113 time=0
EXTRACT: note_on channel=9 note=41 velocity=110 time=0
EXTRACT: note_on channel=9 note=49 velocity=90 time=0
EXTRACT: note_on channel=4 note=60 velocity=0 time=0.0057471250000000005
EXTRACT: note_on channel=4 note=57 velocity=0 time=0
EXTRACT: note_on channel=4 note=65 velocity=0 time=0
EXTRACT: note_on channel=4 note=43 velocity=55 time=0
EXTRACT: note_on channel=5 note=70 velocity=0 time=0
EXTRACT: note_on channel=5 note=65 velocity=0 time=0
EXTRACT: note_on channel=5 note=62 velocity=65 time=0
EXTRACT: note_on channel=9 note=49 velocity=0 time=0
EXTRACT: note_on channel=9 note=41 velocity=0 time=0
EXTRACT: note_on channel=9 note=36 velocity=0 time=0
EXTRACT: note_on channel=5 note=67 velocity=74 time=0.0057471250000000005
EXTRACT: note_on channel=5 note=70 velocity=65 time=0
EXTRACT: note_on channel=4 note=58 velocity=68 time=0.0057471250000000005
EXTRACT: note_on channel=4 note=62 velocity=68 time=0
EXTRACT: note_on channel=4 note=67 velocity=63 time=0
EXTRACT: note_on channel=4 note=55 velocity=62 time=0
EXTRACT: note_on channel=3 note=68 velocity=86 time=0
EXTRACT: note_on channel=3 note=68 velocity=0 time=0.14942525
EXTRACT: note_on channel=4 note=43 velocity=0 time=0.017241375000000003
EXTRACT: note_on channel=5 note=62 velocity=0 time=0
EXTRACT: note_on channel=3 note=67 velocity=86 time=0
EXTRACT: note_on channel=5 note=70 velocity=0 time=0
EXTRACT: note_on channel=5 note=67 velocity=0 time=0
EXTRACT: note_on channel=9 note=35 velocity=64 time=0
EXTRACT: note_on channel=9 note=38 velocity=64 time=0
EXTRACT: note_on channel=4 note=67 velocity=0 time=0.0057471250000000005
EXTRACT: note_on channel=4 note=58 velocity=0 time=0
EXTRACT: note_on channel=4 note=62 velocity=0 time=0
EXTRACT: note_on channel=4 note=55 velocity=0 time=0
EXTRACT: note_on channel=4 note=43 velocity=55 time=0
EXTRACT: note_on channel=9 note=38 velocity=0 time=0
EXTRACT: note_on channel=9 note=35 velocity=0 time=0
EXTRACT: note_on channel=6 note=62 velocity=79 time=0.0057471250000000005
EXTRACT: note_on channel=4 note=58 velocity=62 time=0.0057471250000000005
EXTRACT: note_on channel=4 note=55 velocity=59 time=0
EXTRACT: note_on channel=4 note=67 velocity=58 time=0
EXTRACT: note_on channel=4 note=62 velocity=64 time=0
EXTRACT: note_on channel=5 note=67 velocity=59 time=0
EXTRACT: note_on channel=5 note=62 velocity=58 time=0
EXTRACT: note_on channel=5 note=70 velocity=58 time=0
EXTRACT: note_on channel=6 note=67 velocity=0 time=0.05747125
EXTRACT: note_on channel=3 note=67 velocity=0 time=0.074712625
EXTRACT: note_on channel=3 note=62 velocity=86 time=0
EXTRACT: note_on channel=9 note=35 velocity=64 time=0.0057471250000000005
EXTRACT: note_on channel=9 note=35 velocity=0 time=0.0057471250000000005
EXTRACT: note_on channel=2 note=31 velocity=0 time=0.16091950000000002
EXTRACT: note_on channel=4 note=43 velocity=0 time=0
EXTRACT: note_on channel=9 note=39 velocity=111 time=0.0057471250000000005
EXTRACT: note_on channel=4 note=67 velocity=0 time=0.0057471250000000005
EXTRACT: note_on channel=4 note=58 velocity=0 time=0
EXTRACT: note_on channel=4 note=55 velocity=0 time=0
EXTRACT: note_on channel=4 note=62 velocity=0 time=0
EXTRACT: note_on channel=4 note=43 velocity=55 time=0
EXTRACT: note_on channel=5 note=70 velocity=0 time=0
EXTRACT: note_on channel=5 note=62 velocity=0 time=0
EXTRACT: note_on channel=5 note=67 velocity=0 time=0
EXTRACT: note_on channel=9 note=39 velocity=0 time=0
EXTRACT: note_on channel=6 note=67 velocity=77 time=0.0057471250000000005
EXTRACT: note_on channel=4 note=58 velocity=67 time=0.0057471250000000005
EXTRACT: note_on channel=4 note=55 velocity=65 time=0
EXTRACT: note_on channel=4 note=62 velocity=69 time=0
EXTRACT: note_on channel=4 note=67 velocity=61 time=0
EXTRACT: note_on channel=5 note=62 velocity=63 time=0
EXTRACT: note_on channel=5 note=67 velocity=70 time=0
EXTRACT: note_on channel=5 note=70 velocity=63 time=0
EXTRACT: note_on channel=6 note=62 velocity=0 time=0.011494250000000001
EXTRACT: note_on channel=3 note=62 velocity=0 time=0.10919537500000001
EXTRACT: note_on channel=9 note=37 velocity=57 time=0.034482750000000006
EXTRACT: note_on channel=3 note=68 velocity=98 time=0
EXTRACT: note_on channel=9 note=37 velocity=0 time=0
EXTRACT: note_on channel=3 note=68 velocity=0 time=0.13793100000000003
EXTRACT: note_on channel=3 note=68 velocity=98 time=0
EXTRACT: note_on channel=4 note=43 velocity=0 time=0.0057471250000000005
EXTRACT: note_on channel=4 note=62 velocity=0 time=0.011494250000000001
EXTRACT: note_on channel=4 note=58 velocity=0 time=0
EXTRACT: note_on channel=4 note=55 velocity=0 time=0
EXTRACT: note_on channel=4 note=67 velocity=0 time=0
EXTRACT: note_on channel=4 note=43 velocity=55 time=0
EXTRACT: note_on channel=5 note=70 velocity=0 time=0
EXTRACT: note_on channel=5 note=67 velocity=0 time=0
EXTRACT: note_on channel=5 note=62 velocity=0 time=0
EXTRACT: note_on channel=6 note=62 velocity=77 time=0.0057471250000000005
EXTRACT: note_on channel=4 note=58 velocity=60 time=0.0057471250000000005
EXTRACT: note_on channel=4 note=62 velocity=63 time=0
EXTRACT: note_on channel=4 note=55 velocity=58 time=0
EXTRACT: note_on channel=4 note=67 velocity=54 time=0
EXTRACT: note_on channel=5 note=67 velocity=59 time=0
EXTRACT: note_on channel=5 note=62 velocity=58 time=0
EXTRACT: note_on channel=5 note=70 velocity=57 time=0
EXTRACT: note_on channel=6 note=67 velocity=0 time=0.040229875000000005
EXTRACT: note_on channel=3 note=68 velocity=0 time=0.06896550000000001
EXTRACT: note_on channel=3 note=67 velocity=100 time=0
EXTRACT: note_on channel=4 note=43 velocity=0 time=0.0057471250000000005
EXTRACT: note_on channel=9 note=39 velocity=108 time=0.0057471250000000005
EXTRACT: note_on channel=4 note=55 velocity=0 time=0.0057471250000000005
EXTRACT: note_on channel=4 note=58 velocity=0 time=0
EXTRACT: note_on channel=4 note=62 velocity=0 time=0
EXTRACT: note_on channel=4 note=67 velocity=0 time=0
EXTRACT: note_on channel=4 note=43 velocity=55 time=0
EXTRACT: note_on channel=5 note=70 velocity=0 time=0
EXTRACT: note_on channel=5 note=62 velocity=0 time=0
EXTRACT: note_on channel=5 note=67 velocity=0 time=0
EXTRACT: note_on channel=9 note=39 velocity=0 time=0
EXTRACT: note_on channel=4 note=58 velocity=71 time=0.011494250000000001
EXTRACT: note_on channel=4 note=55 velocity=63 time=0
EXTRACT: note_on channel=4 note=62 velocity=71 time=0
EXTRACT: note_on channel=4 note=67 velocity=63 time=0
EXTRACT: note_on channel=5 note=62 velocity=63 time=0
EXTRACT: note_on channel=5 note=67 velocity=69 time=0
EXTRACT: note_on channel=5 note=70 velocity=63 time=0
EXTRACT: note_on channel=3 note=67 velocity=0 time=0.12643675000000001
EXTRACT: note_on channel=3 note=62 velocity=100 time=0
EXTRACT: note_on channel=6 note=67 velocity=75 time=0.017241375000000003
EXTRACT: note_on channel=6 note=62 velocity=0 time=0.028735625
EXTRACT: note_on channel=4 note=43 velocity=0 time=0.12643675000000001
EXTRACT: note_on channel=9 note=35 velocity=61 time=0.0057471250000000005
EXTRACT: note_on channel=9 note=37 velocity=59 time=0
EXTRACT: note_on channel=4 note=62 velocity=0 time=0.0057471250000000005
EXTRACT: note_on channel=4 note=58 velocity=0 time=0
EXTRACT: note_on channel=4 note=55 velocity=0 time=0
EXTRACT: note_on channel=4 note=67 velocity=0 time=0
EXTRACT: note_on channel=4 note=43 velocity=55 time=0
EXTRACT: note_on channel=5 note=70 velocity=0 time=0
EXTRACT: note_on channel=5 note=67 velocity=0 time=0
EXTRACT: note_on channel=5 note=62 velocity=0 time=0
EXTRACT: note_on channel=9 note=37 velocity=0 time=0
EXTRACT: note_on channel=9 note=35 velocity=0 time=0
EXTRACT: note_on channel=4 note=58 velocity=63 time=0.011494250000000001
EXTRACT: note_on channel=4 note=62 velocity=64 time=0
EXTRACT: note_on channel=4 note=55 velocity=60 time=0
EXTRACT: note_on channel=4 note=67 velocity=58 time=0
EXTRACT: note_on channel=5 note=62 velocity=57 time=0
EXTRACT: note_on channel=5 note=67 velocity=59 time=0
EXTRACT: note_on channel=5 note=70 velocity=58 time=0
EXTRACT: note_on channel=3 note=62 velocity=0 time=0.074712625
EXTRACT: note_on channel=3 note=62 velocity=100 time=0
EXTRACT: note_on channel=4 note=43 velocity=0 time=0
EXTRACT: note_on channel=9 note=35 velocity=67 time=0.0057471250000000005
EXTRACT: note_on channel=9 note=37 velocity=64 time=0
EXTRACT: note_on channel=4 note=55 velocity=0 time=0.0057471250000000005
EXTRACT: note_on channel=4 note=58 velocity=0 time=0
EXTRACT: note_on channel=4 note=62 velocity=0 time=0
EXTRACT: note_on channel=4 note=67 velocity=0 time=0
EXTRACT: note_on channel=4 note=43 velocity=55 time=0
EXTRACT: note_on channel=5 note=70 velocity=0 time=0
EXTRACT: note_on channel=5 note=67 velocity=0 time=0
EXTRACT: note_on channel=5 note=62 velocity=0 time=0
EXTRACT: note_on channel=9 note=37 velocity=0 time=0
EXTRACT: note_on channel=9 note=35 velocity=0 time=0
EXTRACT: note_on channel=6 note=62 velocity=76 time=0.0057471250000000005
EXTRACT: note_on channel=4 note=58 velocity=65 time=0.0057471250000000005
EXTRACT: note_on channel=4 note=55 velocity=58 time=0
EXTRACT: note_on channel=4 note=62 velocity=71 time=0
EXTRACT: note_on channel=4 note=67 velocity=60 time=0
EXTRACT: note_on channel=5 note=62 velocity=59 time=0
EXTRACT: note_on channel=5 note=67 velocity=67 time=0
EXTRACT: note_on channel=5 note=70 velocity=65 time=0
EXTRACT: note_on channel=6 note=67 velocity=0 time=0.045977000000000004
EXTRACT: note_on channel=3 note=62 velocity=0 time=0.086206875
EXTRACT: note_on channel=3 note=62 velocity=100 time=0
EXTRACT: note_on channel=3 note=62 velocity=0 time=0.155172375
EXTRACT: note_on channel=4 note=43 velocity=0 time=0.017241375000000003
EXTRACT: note_on channel=3 note=62 velocity=104 time=0
EXTRACT: note_on channel=9 note=39 velocity=114 time=0
EXTRACT: note_on channel=4 note=62 velocity=0 time=0.0057471250000000005
EXTRACT: note_on channel=4 note=58 velocity=0 time=0
EXTRACT: note_on channel=4 note=55 velocity=0 time=0
EXTRACT: note_on channel=4 note=67 velocity=0 time=0
EXTRACT: note_on channel=4 note=43 velocity=55 time=0
EXTRACT: note_on channel=5 note=70 velocity=0 time=0
EXTRACT: note_on channel=5 note=67 velocity=0 time=0
EXTRACT: note_on channel=5 note=62 velocity=0 time=0
EXTRACT: note_on channel=6 note=62 velocity=0 time=0
EXTRACT: note_on channel=9 note=39 velocity=0 time=0
EXTRACT: note_on channel=6 note=67 velocity=74 time=0.0057471250000000005
EXTRACT: note_on channel=4 note=58 velocity=70 time=0.0057471250000000005
EXTRACT: note_on channel=4 note=55 velocity=63 time=0
EXTRACT: note_on channel=4 note=62 velocity=69 time=0
EXTRACT: note_on channel=4 note=67 velocity=63 time=0
EXTRACT: note_on channel=5 note=67 velocity=69 time=0
EXTRACT: note_on channel=5 note=62 velocity=65 time=0
EXTRACT: note_on channel=5 note=70 velocity=66 time=0
EXTRACT: note_on channel=4 note=43 velocity=0 time=0.14942525
EXTRACT: note_on channel=9 note=35 velocity=61 time=0.0057471250000000005
EXTRACT: note_on channel=4 note=62 velocity=0 time=0.0057471250000000005
EXTRACT: note_on channel=4 note=58 velocity=0 time=0
EXTRACT: note_on channel=4 note=55 velocity=0 time=0
EXTRACT: note_on channel=4 note=67 velocity=0 time=0
EXTRACT: note_on channel=4 note=43 velocity=55 time=0
EXTRACT: note_on channel=5 note=70 velocity=0 time=0
EXTRACT: note_on channel=5 note=62 velocity=0 time=0
EXTRACT: note_on channel=5 note=67 velocity=0 time=0
EXTRACT: note_on channel=9 note=35 velocity=0 time=0
EXTRACT: note_on channel=4 note=58 velocity=65 time=0.011494250000000001
EXTRACT: note_on channel=4 note=62 velocity=67 time=0
EXTRACT: note_on channel=4 note=55 velocity=57 time=0
EXTRACT: note_on channel=4 note=67 velocity=58 time=0
EXTRACT: note_on channel=5 note=62 velocity=48 time=0
EXTRACT: note_on channel=5 note=67 velocity=66 time=0
EXTRACT: note_on channel=5 note=70 velocity=63 time=0
EXTRACT: note_on channel=3 note=62 velocity=0 time=0.074712625
EXTRACT: note_on channel=4 note=43 velocity=0 time=0.074712625
EXTRACT: note_on channel=3 note=62 velocity=104 time=0
EXTRACT: note_on channel=9 note=28 velocity=51 time=0
EXTRACT: note_on channel=4 note=55 velocity=0 time=0.0057471250000000005
EXTRACT: note_on channel=4 note=58 velocity=0 time=0
EXTRACT: note_on channel=4 note=62 velocity=0 time=0
EXTRACT: note_on channel=4 note=67 velocity=0 time=0
EXTRACT: note_on channel=4 note=43 velocity=55 time=0
EXTRACT: note_on channel=5 note=70 velocity=0 time=0
EXTRACT: note_on channel=5 note=67 velocity=0 time=0
EXTRACT: note_on channel=5 note=62 velocity=0 time=0
EXTRACT: note_on channel=9 note=28 velocity=0 time=0
EXTRACT: note_on channel=6 note=65 velocity=78 time=0.0057471250000000005
EXTRACT: note_on channel=4 note=58 velocity=68 time=0.0057471250000000005
EXTRACT: note_on channel=4 note=55 velocity=63 time=0
EXTRACT: note_on channel=4 note=62 velocity=69 time=0
EXTRACT: note_on channel=4 note=67 velocity=61 time=0
EXTRACT: note_on channel=5 note=62 velocity=55 time=0
EXTRACT: note_on channel=5 note=67 velocity=67 time=0
EXTRACT: note_on channel=5 note=70 velocity=63 time=0
EXTRACT: note_on channel=6 note=67 velocity=0 time=0.022988500000000002
EXTRACT: note_on channel=4 note=43 velocity=0 time=0.12643675000000001
EXTRACT: note_on channel=4 note=62 velocity=0 time=0.011494250000000001
EXTRACT: note_on channel=4 note=58 velocity=0 time=0
EXTRACT: note_on channel=4 note=55 velocity=0 time=0
EXTRACT: note_on channel=4 note=67 velocity=0 time=0
EXTRACT: note_on channel=4 note=43 velocity=55 time=0
EXTRACT: note_on channel=5 note=70 velocity=0 time=0
EXTRACT: note_on channel=5 note=67 velocity=0 time=0
EXTRACT: note_on channel=5 note=62 velocity=0 time=0
EXTRACT: note_on channel=4 note=58 velocity=59 time=0.011494250000000001
EXTRACT: note_on channel=4 note=67 velocity=59 time=0
EXTRACT: note_on channel=4 note=55 velocity=59 time=0
EXTRACT: note_on channel=4 note=62 velocity=59 time=0
EXTRACT: note_on channel=5 note=62 velocity=63 time=0
EXTRACT: note_on channel=5 note=67 velocity=63 time=0
EXTRACT: note_on channel=5 note=70 velocity=63 time=0
EXTRACT: note_on channel=3 note=62 velocity=0 time=0.06321837500000001
EXTRACT: note_on channel=6 note=65 velocity=0 time=0.06896550000000001
EXTRACT: note_on channel=3 note=65 velocity=104 time=0
EXTRACT: note_on channel=2 note=27 velocity=97 time=0
EXTRACT: note_on channel=4 note=43 velocity=0 time=0
EXTRACT: note_on channel=9 note=36 velocity=114 time=0.0057471250000000005
EXTRACT: note_on channel=9 note=41 velocity=110 time=0
EXTRACT: note_on channel=9 note=46 velocity=81 time=0
EXTRACT: note_on channel=4 note=55 velocity=0 time=0.0057471250000000005
EXTRACT: note_on channel=4 note=58 velocity=0 time=0
EXTRACT: note_on channel=4 note=67 velocity=0 time=0
EXTRACT: note_on channel=4 note=62 velocity=0 time=0
EXTRACT: note_on channel=4 note=39 velocity=55 time=0
EXTRACT: note_on channel=5 note=70 velocity=0 time=0
EXTRACT: note_on channel=5 note=67 velocity=0 time=0
EXTRACT: note_on channel=5 note=62 velocity=0 time=0
EXTRACT: note_on channel=6 note=67 velocity=74 time=0
EXTRACT: note_on channel=9 note=46 velocity=0 time=0
EXTRACT: note_on channel=9 note=41 velocity=0 time=0
EXTRACT: note_on channel=9 note=36 velocity=0 time=0
EXTRACT: note_on channel=5 note=70 velocity=65 time=0.0057471250000000005
EXTRACT: note_on channel=4 note=63 velocity=64 time=0.0057471250000000005
EXTRACT: note_on channel=4 note=67 velocity=63 time=0
EXTRACT: note_on channel=4 note=58 velocity=65 time=0
EXTRACT: note_on channel=4 note=55 velocity=64 time=0
EXTRACT: note_on channel=5 note=65 velocity=74 time=0
EXTRACT: note_on channel=3 note=65 velocity=0 time=0.12643675000000001
EXTRACT: note_on channel=3 note=65 velocity=104 time=0
EXTRACT: note_on channel=3 note=65 velocity=0 time=0.14942525
EXTRACT: note_on channel=4 note=39 velocity=0 time=0.017241375000000003
EXTRACT: note_on channel=3 note=65 velocity=104 time=0
EXTRACT: note_on channel=5 note=70 velocity=0 time=0
EXTRACT: note_on channel=9 note=35 velocity=68 time=0
EXTRACT: note_on channel=9 note=38 velocity=68 time=0
EXTRACT: note_on channel=4 note=58 velocity=0 time=0.0057471250000000005
EXTRACT: note_on channel=4 note=63 velocity=0 time=0
EXTRACT: note_on channel=4 note=67 velocity=0 time=0
EXTRACT: note_on channel=4 note=55 velocity=0 time=0
EXTRACT: note_on channel=4 note=39 velocity=55 time=0
EXTRACT: note_on channel=5 note=65 velocity=0 time=0
EXTRACT: note_on channel=9 note=38 velocity=0 time=0
EXTRACT: note_on channel=9 note=35 velocity=0 time=0
EXTRACT: note_on channel=6 note=65 velocity=76 time=0.0057471250000000005
EXTRACT: note_on channel=4 note=58 velocity=61 time=0.0057471250000000005
EXTRACT: note_on channel=4 note=63 velocity=63 time=0
EXTRACT: note_on channel=4 note=55 velocity=58 time=0
EXTRACT: note_on channel=4 note=67 velocity=56 time=0
EXTRACT: note_on channel=5 note=65 velocity=73 time=0
EXTRACT: note_on channel=5 note=70 velocity=63 time=0
EXTRACT: note_on channel=6 note=67 velocity=0 time=0.045977000000000004
EXTRACT: note_on channel=3 note=65 velocity=0 time=0.086206875
EXTRACT: note_on channel=3 note=63 velocity=104 time=0
EXTRACT: note_on channel=9 note=35 velocity=63 time=0
EXTRACT: note_on channel=9 note=35 velocity=0 time=0.0057471250000000005
EXTRACT: note_on channel=6 note=65 velocity=0 time=0.13793100000000003
EXTRACT: note_on channel=3 note=63 velocity=0 time=0.0057471250000000005
EXTRACT: note_on channel=4 note=39 velocity=0 time=0.017241375000000003
EXTRACT: note_on channel=3 note=65 velocity=104 time=0
EXTRACT: note_on channel=2 note=27 velocity=0 time=0
EXTRACT: note_on channel=6 note=67 velocity=77 time=0
EXTRACT: note_on channel=9 note=39 velocity=110 time=0
EXTRACT: note_on channel=4 note=55 velocity=0 time=0.0057471250000000005
EXTRACT: note_on channel=4 note=58 velocity=0 time=0
EXTRACT: note_on channel=4 note=63 velocity=0 time=0
EXTRACT: note_on channel=4 note=67 velocity=0 time=0
EXTRACT: note_on channel=4 note=39 velocity=55 time=0
EXTRACT: note_on channel=5 note=70 velocity=0 time=0
EXTRACT: note_on channel=5 note=65 velocity=0 time=0
EXTRACT: note_on channel=9 note=39 velocity=0 time=0
EXTRACT: note_on channel=4 note=58 velocity=65 time=0.011494250000000001
EXTRACT: note_on channel=4 note=67 velocity=65 time=0
EXTRACT: note_on channel=4 note=63 velocity=67 time=0
EXTRACT: note_on channel=4 note=55 velocity=62 time=0
EXTRACT: note_on channel=5 note=67 velocity=74 time=0
EXTRACT: note_on channel=5 note=70 velocity=76 time=0
EXTRACT: note_on channel=9 note=37 velocity=57 time=0.155172375
EXTRACT: note_on channel=9 note=37 velocity=0 time=0.0057471250000000005
EXTRACT: note_on channel=3 note=65 velocity=0 time=0.12643675000000001
EXTRACT: note_on channel=4 note=39 velocity=0 time=0.034482750000000006
EXTRACT: note_on channel=5 note=67 velocity=0 time=0
EXTRACT: note_on channel=3 note=67 velocity=103 time=0
EXTRACT: note_on channel=4 note=63 velocity=0 time=0.0057471250000000005
EXTRACT: note_on channel=4 note=58 velocity=0 time=0
EXTRACT: note_on channel=4 note=67 velocity=0 time=0
EXTRACT: note_on channel=4 note=55 velocity=0 time=0
EXTRACT: note_on channel=4 note=39 velocity=55 time=0
EXTRACT: note_on channel=5 note=70 velocity=0 time=0
EXTRACT: note_on channel=6 note=65 velocity=76 time=0.0057471250000000005
EXTRACT: note_on channel=4 note=58 velocity=59 time=0.0057471250000000005
EXTRACT: note_on channel=4 note=63 velocity=61 time=0
EXTRACT: note_on channel=4 note=67 velocity=58 time=0
EXTRACT: note_on channel=4 note=55 velocity=57 time=0
EXTRACT: note_on channel=5 note=65 velocity=67 time=0
EXTRACT: note_on channel=5 note=70 velocity=67 time=0
EXTRACT: note_on channel=6 note=67 velocity=0 time=0.040229875000000005
EXTRACT: note_on channel=3 note=67 velocity=0 time=0.09195400000000001
EXTRACT: note_on channel=3 note=62 velocity=100 time=0
EXTRACT: note_on channel=4 note=39 velocity=0 time=0
EXTRACT: note_on channel=9 note=39 velocity=110 time=0.0057471250000000005
EXTRACT: note_on channel=4 note=67 velocity=0 time=0.0057471250000000005
EXTRACT: note_on channel=4 note=58 velocity=0 time=0
EXTRACT: note_on channel=4 note=63 velocity=0 time=0
EXTRACT: note_on channel=4 note=55 velocity=0 time=0
EXTRACT: note_on channel=4 note=39 velocity=55 time=0
EXTRACT: note_on channel=5 note=70 velocity=0 time=0
EXTRACT: note_on channel=5 note=65 velocity=0 time=0
EXTRACT: note_on channel=9 note=39 velocity=0 time=0
EXTRACT: note_on channel=4 note=58 velocity=67 time=0.011494250000000001
EXTRACT: note_on channel=4 note=55 velocity=61 time=0
EXTRACT: note_on channel=4 note=63 velocity=65 time=0
EXTRACT: note_on channel=4 note=67 velocity=59 time=0
EXTRACT: note_on channel=5 note=70 velocity=75 time=0
EXTRACT: note_on channel=5 note=67 velocity=75 time=0
EXTRACT: note_on channel=3 note=62 velocity=0 time=0.12643675000000001
EXTRACT: note_on channel=3 note=65 velocity=100 time=0
EXTRACT: note_on channel=6 note=65 velocity=0 time=0
EXTRACT: note_on channel=6 note=67 velocity=79 time=0.011494250000000001
EXTRACT: note_on channel=3 note=65 velocity=0 time=0.13793100000000003
EXTRACT: note_on channel=4 note=39 velocity=0 time=0.017241375000000003
EXTRACT: note_on channel=9 note=35 velocity=62 time=0.0057471250000000005
EXTRACT: note_on channel=9 note=37 velocity=59 time=0
EXTRACT: note_on channel=4 note=63 velocity=0 time=0.0057471250000000005
EXTRACT: note_on channel=4 note=58 velocity=0 time=0
EXTRACT: note_on channel=4 note=55 velocity=0 time=0
EXTRACT: note_on channel=4 note=67 velocity=0 time=0
EXTRACT: note_on channel=4 note=39 velocity=55 time=0
EXTRACT: note_on channel=5 note=67 velocity=0 time=0
EXTRACT: note_on channel=5 note=70 velocity=0 time=0
EXTRACT: note_on channel=9 note=37 velocity=0 time=0
EXTRACT: note_on channel=9 note=35 velocity=0 time=0
EXTRACT: note_on channel=4 note=58 velocity=61 time=0.011494250000000001
EXTRACT: note_on channel=4 note=67 velocity=59 time=0
EXTRACT: note_on channel=4 note=63 velocity=61 time=0
EXTRACT: note_on channel=4 note=55 velocity=58 time=0
EXTRACT: note_on channel=5 note=65 velocity=70 time=0
EXTRACT: note_on channel=5 note=70 velocity=67 time=0
EXTRACT: note_on channel=4 note=39 velocity=0 time=0.14942525
EXTRACT: note_on channel=3 note=65 velocity=100 time=0
EXTRACT: note_on channel=9 note=35 velocity=65 time=0
EXTRACT: note_on channel=9 note=37 velocity=63 time=0
EXTRACT: note_on channel=4 note=63 velocity=0 time=0.0057471250000000005
EXTRACT: note_on channel=4 note=58 velocity=0 time=0
EXTRACT: note_on channel=4 note=67 velocity=0 time=0
EXTRACT: note_on channel=4 note=55 velocity=0 time=0
EXTRACT: note_on channel=4 note=39 velocity=55 time=0
EXTRACT: note_on channel=5 note=70 velocity=0 time=0
EXTRACT: note_on channel=5 note=65 velocity=0 time=0
EXTRACT: note_on channel=9 note=37 velocity=0 time=0
EXTRACT: note_on channel=9 note=35 velocity=0 time=0
EXTRACT: note_on channel=6 note=65 velocity=76 time=0.0057471250000000005
EXTRACT: note_on channel=4 note=58 velocity=68 time=0.0057471250000000005
EXTRACT: note_on channel=4 note=67 velocity=65 time=0
EXTRACT: note_on channel=4 note=63 velocity=68 time=0
EXTRACT: note_on channel=4 note=55 velocity=60 time=0
EXTRACT: note_on channel=5 note=65 velocity=81 time=0
EXTRACT: note_on channel=5 note=70 velocity=74 time=0
EXTRACT: note_on channel=6 note=67 velocity=0 time=0.040229875000000005
EXTRACT: note_on channel=3 note=65 velocity=0 time=0.09195400000000001
EXTRACT: note_on channel=3 note=62 velocity=100 time=0
EXTRACT: note_on channel=3 note=62 velocity=0 time=0.16091950000000002
EXTRACT: note_on channel=3 note=65 velocity=101 time=0
EXTRACT: note_on channel=4 note=39 velocity=0 time=0
EXTRACT: note_on channel=6 note=65 velocity=0 time=0.0057471250000000005
EXTRACT: note_on channel=9 note=39 velocity=109 time=0
EXTRACT: note_on channel=4 note=63 velocity=0 time=0.0057471250000000005
EXTRACT: note_on channel=4 note=58 velocity=0 time=0
EXTRACT: note_on channel=4 note=67 velocity=0 time=0
EXTRACT: note_on channel=4 note=55 velocity=0 time=0
EXTRACT: note_on channel=4 note=39 velocity=55 time=0
EXTRACT: note_on channel=5 note=70 velocity=0 time=0
EXTRACT: note_on channel=5 note=65 velocity=0 time=0
EXTRACT: note_on channel=9 note=39 velocity=0 time=0
EXTRACT: note_on channel=6 note=67 velocity=78 time=0.0057471250000000005
EXTRACT: note_on channel=4 note=67 velocity=65 time=0.0057471250000000005
EXTRACT: note_on channel=4 note=58 velocity=69 time=0
EXTRACT: note_on channel=4 note=63 velocity=69 time=0
EXTRACT: note_on channel=4 note=55 velocity=63 time=0
EXTRACT: note_on channel=5 note=70 velocity=66 time=0
EXTRACT: note_on channel=5 note=65 velocity=66 time=0
EXTRACT: note_on channel=4 note=39 velocity=0 time=0.14942525
EXTRACT: note_on channel=9 note=35 velocity=62 time=0.0057471250000000005
EXTRACT: note_on channel=4 note=63 velocity=0 time=0.0057471250000000005
EXTRACT: note_on channel=4 note=67 velocity=0 time=0
EXTRACT: note_on channel=4 note=58 velocity=0 time=0
EXTRACT: note_on channel=4 note=55 velocity=0 time=0
EXTRACT: note_on channel=4 note=39 velocity=55 time=0
EXTRACT: note_on channel=5 note=65 velocity=0 time=0
EXTRACT: note_on channel=5 note=70 velocity=0 time=0
EXTRACT: note_on channel=9 note=35 velocity=0 time=0
EXTRACT: note_on channel=4 note=58 velocity=67 time=0.011494250000000001
EXTRACT: note_on channel=4 note=63 velocity=67 time=0
EXTRACT: note_on channel=4 note=67 velocity=60 time=0
EXTRACT: note_on channel=4 note=55 velocity=61 time=0
EXTRACT: note_on channel=5 note=65 velocity=64 time=0
EXTRACT: note_on channel=5 note=70 velocity=69 time=0
EXTRACT: note_on channel=3 note=65 velocity=0 time=0.06896550000000001
EXTRACT: note_on channel=3 note=67 velocity=101 time=0
EXTRACT: note_on channel=4 note=39 velocity=0 time=0
EXTRACT: note_on channel=9 note=38 velocity=66 time=0.0057471250000000005
EXTRACT: note_on channel=9 note=28 velocity=52 time=0
EXTRACT: note_on channel=4 note=67 velocity=0 time=0.0057471250000000005
EXTRACT: note_on channel=4 note=58 velocity=0 time=0
EXTRACT: note_on channel=4 note=63 velocity=0 time=0
EXTRACT: note_on channel=4 note=55 velocity=0 time=0
EXTRACT: note_on channel=4 note=39 velocity=55 time=0
EXTRACT: note_on channel=5 note=70 velocity=0 time=0
EXTRACT: note_on channel=5 note=65 velocity=0 time=0
EXTRACT: note_on channel=9 note=28 velocity=0 time=0
EXTRACT: note_on channel=9 note=38 velocity=0 time=0
EXTRACT: note_on channel=6 note=65 velocity=76 time=0.0057471250000000005
EXTRACT: note_on channel=4 note=58 velocity=66 time=0.0057471250000000005
EXTRACT: note_on channel=4 note=67 velocity=60 time=0
EXTRACT: note_on channel=4 note=63 velocity=69 time=0
EXTRACT: note_on channel=4 note=55 velocity=60 time=0
EXTRACT: note_on channel=5 note=65 velocity=70 time=0
EXTRACT: note_on channel=5 note=70 velocity=68 time=0
EXTRACT: note_on channel=6 note=67 velocity=0 time=0.028735625
EXTRACT: note_on channel=4 note=39 velocity=0 time=0.12068962500000001
EXTRACT: note_on channel=9 note=36 velocity=110 time=0.0057471250000000005
EXTRACT: note_on channel=4 note=63 velocity=0 time=0.0057471250000000005
EXTRACT: note_on channel=4 note=58 velocity=0 time=0
EXTRACT: note_on channel=4 note=67 velocity=0 time=0
EXTRACT: note_on channel=4 note=55 velocity=0 time=0
EXTRACT: note_on channel=4 note=39 velocity=55 time=0
EXTRACT: note_on channel=5 note=70 velocity=0 time=0
EXTRACT: note_on channel=5 note=65 velocity=0 time=0
EXTRACT: note_on channel=9 note=36 velocity=0 time=0
EXTRACT: note_on channel=4 note=67 velocity=57 time=0.011494250000000001
EXTRACT: note_on channel=4 note=58 velocity=57 time=0
EXTRACT: note_on channel=4 note=55 velocity=57 time=0
EXTRACT: note_on channel=4 note=63 velocity=57 time=0
EXTRACT: note_on channel=5 note=65 velocity=63 time=0
EXTRACT: note_on channel=5 note=70 velocity=63 time=0
EXTRACT: note_on channel=3 note=67 velocity=0 time=0.06896550000000001
EXTRACT: note_on channel=6 note=65 velocity=0 time=0.028735625
EXTRACT: note_on channel=2 note=34 velocity=96 time=0.040229875000000005
EXTRACT: note_on channel=3 note=67 velocity=102 time=0
EXTRACT: note_on channel=4 note=39 velocity=0 time=0
EXTRACT: note_on channel=6 note=65 velocity=83 time=0.0057471250000000005
EXTRACT: note_on channel=9 note=36 velocity=113 time=0
EXTRACT: note_on channel=9 note=41 velocity=110 time=0
EXTRACT: note_on channel=9 note=46 velocity=80 time=0
EXTRACT: note_on channel=4 note=55 velocity=0 time=0.0057471250000000005
EXTRACT: note_on channel=4 note=67 velocity=0 time=0
EXTRACT: note_on channel=4 note=58 velocity=0 time=0
EXTRACT: note_on channel=4 note=63 velocity=0 time=0
EXTRACT: note_on channel=4 note=46 velocity=55 time=0
EXTRACT: note_on channel=5 note=70 velocity=0 time=0
EXTRACT: note_on channel=5 note=65 velocity=0 time=0
EXTRACT: note_on channel=9 note=46 velocity=0 time=0
EXTRACT: note_on channel=9 note=41 velocity=0 time=0
EXTRACT: note_on channel=9 note=36 velocity=0 time=0
EXTRACT: note_on channel=4 note=58 velocity=74 time=0.011494250000000001
EXTRACT: note_on channel=4 note=62 velocity=69 time=0
EXTRACT: note_on channel=4 note=65 velocity=66 time=0
EXTRACT: note_on channel=4 note=53 velocity=66 time=0
EXTRACT: note_on channel=5 note=65 velocity=74 time=0
EXTRACT: note_on channel=5 note=70 velocity=63 time=0
EXTRACT: note_on channel=3 note=67 velocity=0 time=0.1149425
EXTRACT: note_on channel=3 note=65 velocity=102 time=0
EXTRACT: note_on channel=3 note=65 velocity=0 time=0.13793100000000003
EXTRACT: note_on channel=4 note=46 velocity=0 time=0.022988500000000002
EXTRACT: note_on channel=9 note=35 velocity=64 time=0.0057471250000000005
EXTRACT: note_on channel=9 note=38 velocity=64 time=0
EXTRACT: note_on channel=3 note=65 velocity=104 time=0
EXTRACT: note_on channel=4 note=65 velocity=0 time=0
EXTRACT: note_on channel=4 note=58 velocity=0 time=0
EXTRACT: note_on channel=4 note=62 velocity=0 time=0
EXTRACT: note_on channel=4 note=53 velocity=0 time=0
EXTRACT: note_on channel=4 note=46 velocity=55 time=0
EXTRACT: note_on channel=5 note=70 velocity=0 time=0
EXTRACT: note_on channel=5 note=65 velocity=0 time=0
EXTRACT: note_on channel=9 note=38 velocity=0 time=0
EXTRACT: note_on channel=9 note=35 velocity=0 time=0
EXTRACT: note_on channel=6 note=62 velocity=82 time=0.0057471250000000005
EXTRACT: note_on channel=4 note=53 velocity=60 time=0.0057471250000000005
EXTRACT: note_on channel=4 note=58 velocity=61 time=0
EXTRACT: note_on channel=4 note=62 velocity=61 time=0
EXTRACT: note_on channel=4 note=65 velocity=59 time=0
EXTRACT: note_on channel=5 note=70 velocity=62 time=0
EXTRACT: note_on channel=5 note=65 velocity=64 time=0
EXTRACT: note_on channel=6 note=65 velocity=0 time=0.05747125
EXTRACT: note_on channel=3 note=65 velocity=0 time=0.09195400000000001
EXTRACT: note_on channel=9 note=35 velocity=64 time=0.0057471250000000005
EXTRACT: note_on channel=3 note=65 velocity=104 time=0
EXTRACT: note_on channel=9 note=35 velocity=0 time=0
EXTRACT: note_on channel=3 note=65 velocity=0 time=0.16091950000000002
EXTRACT: note_on channel=3 note=65 velocity=104 time=0
EXTRACT: note_on channel=4 note=46 velocity=0 time=0
EXTRACT: note_on channel=2 note=34 velocity=0 time=0.0057471250000000005
EXTRACT: note_on channel=9 note=39 velocity=111 time=0
EXTRACT: note_on channel=4 note=62 velocity=0 time=0.0057471250000000005
EXTRACT: note_on channel=4 note=53 velocity=0 time=0
EXTRACT: note_on channel=4 note=58 velocity=0 time=0
EXTRACT: note_on channel=4 note=65 velocity=0 time=0
EXTRACT: note_on channel=4 note=46 velocity=55 time=0
EXTRACT: note_on channel=5 note=65 velocity=0 time=0
EXTRACT: note_on channel=5 note=70 velocity=0 time=0
EXTRACT: note_on channel=6 note=62 velocity=0 time=0
EXTRACT: note_on channel=6 note=65 velocity=82 time=0
EXTRACT: note_on channel=9 note=39 velocity=0 time=0
EXTRACT: note_on channel=5 note=65 velocity=74 time=0.0057471250000000005
EXTRACT: note_on channel=4 note=58 velocity=65 time=0.0057471250000000005
EXTRACT: note_on channel=4 note=53 velocity=64 time=0
EXTRACT: note_on channel=4 note=62 velocity=67 time=0
EXTRACT: note_on channel=4 note=65 velocity=63 time=0
EXTRACT: note_on channel=5 note=70 velocity=65 time=0
EXTRACT: note_on channel=9 note=37 velocity=57 time=0.155172375
EXTRACT: note_on channel=9 note=37 velocity=0 time=0.0057471250000000005
EXTRACT: note_on channel=3 note=65 velocity=0 time=0.09195400000000001
EXTRACT: note_on channel=3 note=62 velocity=104 time=0
EXTRACT: note_on channel=4 note=46 velocity=0 time=0.0057471250000000005
EXTRACT: note_on channel=5 note=65 velocity=0 time=0.0057471250000000005
EXTRACT: note_on channel=4 note=62 velocity=0 time=0.0057471250000000005
EXTRACT: note_on channel=4 note=58 velocity=0 time=0
EXTRACT: note_on channel=4 note=53 velocity=0 time=0
EXTRACT: note_on channel=4 note=65 velocity=0 time=0
EXTRACT: note_on channel=4 note=46 velocity=55 time=0
EXTRACT: note_on channel=5 note=70 velocity=0 time=0
EXTRACT: note_on channel=5 note=70 velocity=61 time=0
EXTRACT: note_on channel=5 note=65 velocity=64 time=0
EXTRACT: note_on channel=6 note=62 velocity=78 time=0.0057471250000000005
EXTRACT: note_on channel=4 note=53 velocity=60 time=0.0057471250000000005
EXTRACT: note_on channel=4 note=62 velocity=64 time=0
EXTRACT: note_on channel=4 note=58 velocity=59 time=0
EXTRACT: note_on channel=4 note=65 velocity=59 time=0
EXTRACT: note_on channel=6 note=65 velocity=0 time=0.040229875000000005
EXTRACT: note_on channel=4 note=46 velocity=0 time=0.10919537500000001
EXTRACT: note_on channel=5 note=65 velocity=0 time=0
EXTRACT: note_on channel=5 note=70 velocity=0 time=0
EXTRACT: note_on channel=9 note=39 velocity=108 time=0.0057471250000000005
EXTRACT: note_on channel=4 note=58 velocity=0 time=0.0057471250000000005
EXTRACT: note_on channel=4 note=53 velocity=0 time=0
EXTRACT: note_on channel=4 note=62 velocity=0 time=0
EXTRACT: note_on channel=4 note=65 velocity=0 time=0
EXTRACT: note_on channel=4 note=46 velocity=55 time=0
EXTRACT: note_on channel=5 note=70 velocity=65 time=0
EXTRACT: note_on channel=5 note=65 velocity=72 time=0
EXTRACT: note_on channel=9 note=39 velocity=0 time=0
EXTRACT: note_on channel=4 note=58 velocity=67 time=0.011494250000000001
EXTRACT: note_on channel=4 note=53 velocity=63 time=0
EXTRACT: note_on channel=4 note=65 velocity=60 time=0
EXTRACT: note_on channel=4 note=62 velocity=66 time=0
EXTRACT: note_on channel=3 note=62 velocity=0 time=0.045977000000000004
EXTRACT: note_on channel=3 note=70 velocity=107 time=0
EXTRACT: note_on channel=6 note=62 velocity=0 time=0.017241375000000003
EXTRACT: note_on channel=6 note=65 velocity=76 time=0
EXTRACT: note_on channel=3 note=70 velocity=0 time=0.1149425
EXTRACT: note_on channel=4 note=46 velocity=0 time=0.040229875000000005
EXTRACT: note_on channel=5 note=65 velocity=0 time=0
EXTRACT: note_on channel=5 note=70 velocity=0 time=0
EXTRACT: note_on channel=3 note=65 velocity=95 time=0
EXTRACT: note_on channel=9 note=35 velocity=61 time=0
EXTRACT: note_on channel=9 note=37 velocity=59 time=0
EXTRACT: note_on channel=4 note=65 velocity=0 time=0.0057471250000000005
EXTRACT: note_on channel=4 note=58 velocity=0 time=0
EXTRACT: note_on channel=4 note=53 velocity=0 time=0
EXTRACT: note_on channel=4 note=62 velocity=0 time=0
EXTRACT: note_on channel=4 note=46 velocity=55 time=0
EXTRACT: note_on channel=5 note=70 velocity=60 time=0
EXTRACT: note_on channel=5 note=65 velocity=64 time=0
EXTRACT: note_on channel=9 note=37 velocity=0 time=0
EXTRACT: note_on channel=9 note=35 velocity=0 time=0
EXTRACT: note_on channel=4 note=58 velocity=65 time=0.011494250000000001
EXTRACT: note_on channel=4 note=53 velocity=63 time=0
EXTRACT: note_on channel=4 note=62 velocity=65 time=0
EXTRACT: note_on channel=4 note=65 velocity=59 time=0
EXTRACT: note_on channel=3 note=65 velocity=0 time=0.12643675000000001
EXTRACT: note_on channel=4 note=46 velocity=0 time=0.022988500000000002
EXTRACT: note_on channel=5 note=65 velocity=0 time=0
EXTRACT: note_on channel=5 note=70 velocity=0 time=0
EXTRACT: note_on channel=3 note=65 velocity=99 time=0
EXTRACT: note_on channel=9 note=35 velocity=67 time=0
EXTRACT: note_on channel=9 note=37 velocity=64 time=0
EXTRACT: note_on channel=4 note=62 velocity=0 time=0.0057471250000000005
EXTRACT: note_on channel=4 note=58 velocity=0 time=0
EXTRACT: note_on channel=4 note=53 velocity=0 time=0
EXTRACT: note_on channel=4 note=65 velocity=0 time=0
EXTRACT: note_on channel=4 note=46 velocity=55 time=0
EXTRACT: note_on channel=5 note=65 velocity=70 time=0
EXTRACT: note_on channel=5 note=70 velocity=65 time=0
EXTRACT: note_on channel=9 note=37 velocity=0 time=0
EXTRACT: note_on channel=9 note=35 velocity=0 time=0
EXTRACT: note_on channel=6 note=62 velocity=83 time=0.0057471250000000005
EXTRACT: note_on channel=4 note=58 velocity=64 time=0.0057471250000000005
EXTRACT: note_on channel=4 note=53 velocity=64 time=0
EXTRACT: note_on channel=4 note=62 velocity=64 time=0
EXTRACT: note_on channel=4 note=65 velocity=59 time=0
EXTRACT: note_on channel=6 note=65 velocity=0 time=0.05747125
EXTRACT: note_on channel=3 note=65 velocity=0 time=0.06896550000000001
EXTRACT: note_on channel=3 note=65 velocity=102 time=0
EXTRACT: note_on channel=3 note=65 velocity=0 time=0.14367812500000002
EXTRACT: note_on channel=4 note=46 velocity=0 time=0.017241375000000003
EXTRACT: note_on channel=5 note=70 velocity=0 time=0
EXTRACT: note_on channel=5 note=65 velocity=0 time=0
EXTRACT: note_on channel=3 note=65 velocity=102 time=0
EXTRACT: note_on channel=9 note=39 velocity=114 time=0
EXTRACT: note_on channel=4 note=62 velocity=0 time=0.0057471250000000005
EXTRACT: note_on channel=4 note=58 velocity=0 time=0
EXTRACT: note_on channel=4 note=53 velocity=0 time=0
EXTRACT: note_on channel=4 note=65 velocity=0 time=0
EXTRACT: note_on channel=4 note=46 velocity=55 time=0
EXTRACT: note_on channel=9 note=39 velocity=0 time=0
EXTRACT: note_on channel=6 note=65 velocity=79 time=0.0057471250000000005
EXTRACT: note_on channel=4 note=58 velocity=75 time=0.0057471250000000005
EXTRACT: note_on channel=4 note=53 velocity=66 time=0
EXTRACT: note_on channel=4 note=62 velocity=69 time=0
EXTRACT: note_on channel=4 note=65 velocity=63 time=0
EXTRACT: note_on channel=5 note=70 velocity=72 time=0
EXTRACT: note_on channel=5 note=65 velocity=72 time=0
EXTRACT: note_on channel=6 note=62 velocity=0 time=0.017241375000000003
EXTRACT: note_on channel=4 note=46 velocity=0 time=0.132183875
EXTRACT: note_on channel=9 note=35 velocity=61 time=0.0057471250000000005
EXTRACT: note_on channel=4 note=62 velocity=0 time=0.0057471250000000005
EXTRACT: note_on channel=4 note=58 velocity=0 time=0
EXTRACT: note_on channel=4 note=53 velocity=0 time=0
EXTRACT: note_on channel=4 note=65 velocity=0 time=0
EXTRACT: note_on channel=4 note=46 velocity=55 time=0
EXTRACT: note_on channel=5 note=65 velocity=0 time=0
EXTRACT: note_on channel=5 note=70 velocity=0 time=0
EXTRACT: note_on channel=9 note=35 velocity=0 time=0
EXTRACT: note_on channel=4 note=58 velocity=66 time=0.011494250000000001
EXTRACT: note_on channel=4 note=53 velocity=64 time=0
EXTRACT: note_on channel=4 note=65 velocity=59 time=0
EXTRACT: note_on channel=4 note=62 velocity=66 time=0
EXTRACT: note_on channel=5 note=65 velocity=65 time=0
EXTRACT: note_on channel=5 note=70 velocity=63 time=0
EXTRACT: note_on channel=3 note=65 velocity=0 time=0.09195400000000001
EXTRACT: note_on channel=4 note=46 velocity=0 time=0.05747125
EXTRACT: note_on channel=3 note=62 velocity=104 time=0
EXTRACT: note_on channel=9 note=28 velocity=51 time=0
EXTRACT: note_on channel=4 note=65 velocity=0 time=0.0057471250000000005
EXTRACT: note_on channel=4 note=58 velocity=0 time=0
EXTRACT: note_on channel=4 note=53 velocity=0 time=0
EXTRACT: note_on channel=4 note=62 velocity=0 time=0
EXTRACT: note_on channel=4 note=46 velocity=55 time=0
EXTRACT: note_on channel=5 note=70 velocity=0 time=0
EXTRACT: note_on channel=5 note=65 velocity=0 time=0
EXTRACT: note_on channel=9 note=28 velocity=0 time=0
EXTRACT: note_on channel=6 note=62 velocity=75 time=0.0057471250000000005
EXTRACT: note_on channel=4 note=53 velocity=60 time=0.0057471250000000005
EXTRACT: note_on channel=4 note=58 velocity=63 time=0
EXTRACT: note_on channel=4 note=62 velocity=66 time=0
EXTRACT: note_on channel=4 note=65 velocity=58 time=0
EXTRACT: note_on channel=5 note=65 velocity=65 time=0
EXTRACT: note_on channel=5 note=70 velocity=61 time=0
EXTRACT: note_on channel=6 note=65 velocity=0 time=0.022988500000000002
EXTRACT: note_on channel=4 note=46 velocity=0 time=0.12643675000000001
EXTRACT: note_on channel=4 note=62 velocity=0 time=0.011494250000000001
EXTRACT: note_on channel=4 note=53 velocity=0 time=0
EXTRACT: note_on channel=4 note=58 velocity=0 time=0
EXTRACT: note_on channel=4 note=65 velocity=0 time=0
EXTRACT: note_on channel=4 note=46 velocity=55 time=0
EXTRACT: note_on channel=5 note=70 velocity=0 time=0
EXTRACT: note_on channel=5 note=65 velocity=0 time=0
EXTRACT: note_on channel=4 note=58 velocity=57 time=0.011494250000000001
EXTRACT: note_on channel=4 note=62 velocity=57 time=0
EXTRACT: note_on channel=4 note=65 velocity=57 time=0
EXTRACT: note_on channel=4 note=53 velocity=57 time=0
EXTRACT: note_on channel=5 note=65 velocity=63 time=0
EXTRACT: note_on channel=5 note=70 velocity=60 time=0
EXTRACT: note_on channel=3 note=62 velocity=0 time=0.086206875
EXTRACT: note_on channel=3 note=69 velocity=105 time=0
EXTRACT: note_on channel=2 note=33 velocity=97 time=0
EXTRACT: note_on channel=4 note=46 velocity=0 time=0
EXTRACT: note_on channel=6 note=62 velocity=0 time=0
EXTRACT: note_on channel=6 note=65 velocity=83 time=0.0057471250000000005
EXTRACT: note_on channel=9 note=36 velocity=114 time=0
EXTRACT: note_on channel=9 note=41 velocity=110 time=0
EXTRACT: note_on channel=9 note=46 velocity=81 time=0
EXTRACT: note_on channel=4 note=65 velocity=0 time=0.0057471250000000005
EXTRACT: note_on channel=4 note=58 velocity=0 time=0
EXTRACT: note_on channel=4 note=62 velocity=0 time=0
EXTRACT: note_on channel=4 note=53 velocity=0 time=0
EXTRACT: note_on channel=4 note=45 velocity=55 time=0
EXTRACT: note_on channel=5 note=70 velocity=0 time=0
EXTRACT: note_on channel=5 note=65 velocity=0 time=0
EXTRACT: note_on channel=9 note=46 velocity=0 time=0
EXTRACT: note_on channel=9 note=41 velocity=0 time=0
EXTRACT: note_on channel=9 note=36 velocity=0 time=0
EXTRACT: note_on channel=4 note=60 velocity=69 time=0.011494250000000001
EXTRACT: note_on channel=4 note=57 velocity=69 time=0
EXTRACT: note_on channel=4 note=65 velocity=69 time=0
EXTRACT: note_on channel=5 note=65 velocity=76 time=0
EXTRACT: note_on channel=5 note=70 velocity=69 time=0
EXTRACT: note_on channel=3 note=69 velocity=0 time=0.27586200000000005
EXTRACT: note_on channel=3 note=65 velocity=105 time=0
EXTRACT: note_on channel=4 note=45 velocity=0 time=0
EXTRACT: note_on channel=9 note=35 velocity=68 time=0.0057471250000000005
EXTRACT: note_on channel=9 note=38 velocity=68 time=0
EXTRACT: note_on channel=4 note=60 velocity=0 time=0.0057471250000000005
EXTRACT: note_on channel=4 note=57 velocity=0 time=0
EXTRACT: note_on channel=4 note=65 velocity=0 time=0
EXTRACT: note_on channel=4 note=45 velocity=55 time=0
EXTRACT: note_on channel=5 note=70 velocity=0 time=0
EXTRACT: note_on channel=5 note=65 velocity=0 time=0
EXTRACT: note_on channel=9 note=38 velocity=0 time=0
EXTRACT: note_on channel=9 note=35 velocity=0 time=0
EXTRACT: note_on channel=6 note=60 velocity=83 time=0.0057471250000000005
EXTRACT: note_on channel=4 note=57 velocity=59 time=0.0057471250000000005
EXTRACT: note_on channel=4 note=60 velocity=70 time=0
EXTRACT: note_on channel=4 note=65 velocity=66 time=0
EXTRACT: note_on channel=5 note=70 velocity=67 time=0
EXTRACT: note_on channel=5 note=65 velocity=71 time=0
EXTRACT: note_on channel=6 note=65 velocity=0 time=0.022988500000000002
EXTRACT: note_on channel=3 note=65 velocity=0 time=0.10919537500000001
EXTRACT: note_on channel=9 note=35 velocity=63 time=0.022988500000000002
EXTRACT: note_on channel=3 note=65 velocity=104 time=0
EXTRACT: note_on channel=9 note=35 velocity=0 time=0
EXTRACT: note_on channel=3 note=65 velocity=0 time=0.12643675000000001
EXTRACT: note_on channel=2 note=33 velocity=0 time=0.028735625
EXTRACT: note_on channel=4 note=45 velocity=0 time=0.0057471250000000005
EXTRACT: note_on channel=9 note=39 velocity=110 time=0.0057471250000000005
EXTRACT: note_on channel=3 note=65 velocity=104 time=0
EXTRACT: note_on channel=4 note=57 velocity=0 time=0
EXTRACT: note_on channel=4 note=60 velocity=0 time=0
EXTRACT: note_on channel=4 note=65 velocity=0 time=0
EXTRACT: note_on channel=4 note=45 velocity=55 time=0
EXTRACT: note_on channel=5 note=65 velocity=0 time=0
EXTRACT: note_on channel=5 note=70 velocity=0 time=0
EXTRACT: note_on channel=9 note=39 velocity=0 time=0
EXTRACT: note_on channel=6 note=65 velocity=76 time=0.0057471250000000005
EXTRACT: note_on channel=4 note=60 velocity=75 time=0.0057471250000000005
EXTRACT: note_on channel=4 note=65 velocity=75 time=0
EXTRACT: note_on channel=4 note=57 velocity=75 time=0
EXTRACT: note_on channel=5 note=70 velocity=65 time=0
EXTRACT: note_on channel=5 note=65 velocity=71 time=0
EXTRACT: note_on channel=6 note=60 velocity=0 time=0
EXTRACT: note_on channel=3 note=65 velocity=0 time=0.1149425
EXTRACT: note_on channel=9 note=37 velocity=57 time=0.040229875000000005
EXTRACT: note_on channel=3 note=65 velocity=95 time=0
EXTRACT: note_on channel=9 note=37 velocity=0 time=0
EXTRACT: note_on channel=3 note=65 velocity=0 time=0.12068962500000001
EXTRACT: note_on channel=4 note=45 velocity=0 time=0.040229875000000005
EXTRACT: note_on channel=3 note=65 velocity=95 time=0
EXTRACT: note_on channel=4 note=60 velocity=0 time=0
EXTRACT: note_on channel=4 note=65 velocity=0 time=0
EXTRACT: note_on channel=4 note=57 velocity=0 time=0
EXTRACT: note_on channel=4 note=45 velocity=55 time=0
EXTRACT: note_on channel=5 note=65 velocity=0 time=0
EXTRACT: note_on channel=5 note=70 velocity=0 time=0
EXTRACT: note_on channel=6 note=60 velocity=77 time=0.0057471250000000005
EXTRACT: note_on channel=4 note=57 velocity=60 time=0.0057471250000000005
EXTRACT: note_on channel=4 note=65 velocity=60 time=0
EXTRACT: note_on channel=4 note=60 velocity=59 time=0
EXTRACT: note_on channel=5 note=65 velocity=64 time=0
EXTRACT: note_on channel=5 note=70 velocity=59 time=0
EXTRACT: note_on channel=6 note=65 velocity=0 time=0.028735625
EXTRACT: note_on channel=3 note=65 velocity=0 time=0.08045975000000001
EXTRACT: note_on channel=4 note=45 velocity=0 time=0.040229875000000005
EXTRACT: note_on channel=9 note=39 velocity=110 time=0.0057471250000000005
EXTRACT: note_on channel=3 note=65 velocity=95 time=0
EXTRACT: note_on channel=4 note=57 velocity=0 time=0
EXTRACT: note_on channel=4 note=65 velocity=0 time=0
EXTRACT: note_on channel=4 note=60 velocity=0 time=0
EXTRACT: note_on channel=4 note=45 velocity=55 time=0
EXTRACT: note_on channel=5 note=70 velocity=0 time=0
EXTRACT: note_on channel=5 note=65 velocity=0 time=0
EXTRACT: note_on channel=9 note=39 velocity=0 time=0
EXTRACT: note_on channel=4 note=60 velocity=74 time=0.011494250000000001
EXTRACT: note_on channel=4 note=57 velocity=74 time=0
EXTRACT: note_on channel=4 note=65 velocity=74 time=0
EXTRACT: note_on channel=5 note=65 velocity=69 time=0
EXTRACT: note_on channel=5 note=70 velocity=65 time=0
EXTRACT: note_on channel=3 note=65 velocity=0 time=0.10919537500000001
EXTRACT: note_on channel=3 note=69 velocity=104 time=0
EXTRACT: note_on channel=6 note=65 velocity=72 time=0.017241375000000003
EXTRACT: note_on channel=6 note=60 velocity=0 time=0.040229875000000005
EXTRACT: note_on channel=3 note=69 velocity=0 time=0.08045975000000001
EXTRACT: note_on channel=4 note=45 velocity=0 time=0.034482750000000006
EXTRACT: note_on channel=9 note=35 velocity=62 time=0.0057471250000000005
EXTRACT: note_on channel=9 note=37 velocity=59 time=0
EXTRACT: note_on channel=4 note=60 velocity=0 time=0.0057471250000000005
EXTRACT: note_on channel=4 note=57 velocity=0 time=0
EXTRACT: note_on channel=4 note=65 velocity=0 time=0
EXTRACT: note_on channel=4 note=45 velocity=55 time=0
EXTRACT: note_on channel=5 note=70 velocity=0 time=0
EXTRACT: note_on channel=5 note=65 velocity=0 time=0
EXTRACT: note_on channel=9 note=37 velocity=0 time=0
EXTRACT: note_on channel=9 note=35 velocity=0 time=0
EXTRACT: note_on channel=4 note=60 velocity=70 time=0.011494250000000001
EXTRACT: note_on channel=4 note=57 velocity=63 time=0
EXTRACT: note_on channel=4 note=65 velocity=69 time=0
EXTRACT: note_on channel=5 note=65 velocity=72 time=0
EXTRACT: note_on channel=5 note=70 velocity=67 time=0
EXTRACT: note_on channel=3 note=65 velocity=105 time=0
EXTRACT: note_on channel=4 note=45 velocity=0 time=0
EXTRACT: note_on channel=9 note=35 velocity=65 time=0.0057471250000000005
EXTRACT: note_on channel=9 note=37 velocity=63 time=0
EXTRACT: note_on channel=4 note=60 velocity=0 time=0.0057471250000000005
EXTRACT: note_on channel=4 note=57 velocity=0 time=0
EXTRACT: note_on channel=4 note=65 velocity=0 time=0
EXTRACT: note_on channel=4 note=45 velocity=55 time=0
EXTRACT: note_on channel=5 note=70 velocity=0 time=0
EXTRACT: note_on channel=5 note=65 velocity=0 time=0
EXTRACT: note_on channel=9 note=37 velocity=0 time=0
EXTRACT: note_on channel=9 note=35 velocity=0 time=0
EXTRACT: note_on channel=6 note=60 velocity=78 time=0.0057471250000000005
EXTRACT: note_on channel=4 note=60 velocity=75 time=0.0057471250000000005
EXTRACT: note_on channel=4 note=57 velocity=64 time=0
EXTRACT: note_on channel=4 note=65 velocity=71 time=0
EXTRACT: note_on channel=5 note=65 velocity=69 time=0
EXTRACT: note_on channel=5 note=70 velocity=64 time=0
EXTRACT: note_on channel=6 note=65 velocity=0 time=0.017241375000000003
EXTRACT: note_on channel=3 note=65 velocity=0 time=0.10344825
EXTRACT: note_on channel=3 note=65 velocity=90 time=0
EXTRACT: note_on channel=3 note=65 velocity=0 time=0.14367812500000002
EXTRACT: note_on channel=3 note=65 velocity=100 time=0
EXTRACT: note_on channel=4 note=45 velocity=0 time=0
EXTRACT: note_on channel=9 note=39 velocity=109 time=0.0057471250000000005
EXTRACT: note_on channel=9 note=54 velocity=83 time=0
EXTRACT: note_on channel=4 note=60 velocity=0 time=0.0057471250000000005
EXTRACT: note_on channel=4 note=57 velocity=0 time=0
EXTRACT: note_on channel=4 note=65 velocity=0 time=0
EXTRACT: note_on channel=4 note=45 velocity=55 time=0
EXTRACT: note_on channel=5 note=70 velocity=0 time=0
EXTRACT: note_on channel=5 note=65 velocity=0 time=0
EXTRACT: note_on channel=9 note=54 velocity=0 time=0
EXTRACT: note_on channel=9 note=39 velocity=0 time=0
EXTRACT: note_on channel=6 note=65 velocity=74 time=0.0057471250000000005
EXTRACT: note_on channel=4 note=60 velocity=74 time=0.0057471250000000005
EXTRACT: note_on channel=4 note=57 velocity=74 time=0
EXTRACT: note_on channel=4 note=65 velocity=74 time=0
EXTRACT: note_on channel=5 note=65 velocity=76 time=0
EXTRACT: note_on channel=5 note=70 velocity=69 time=0
EXTRACT: note_on channel=6 note=60 velocity=0 time=0.0057471250000000005
EXTRACT: note_on channel=9 note=54 velocity=81 time=0.06321837500000001
EXTRACT: note_on channel=9 note=54 velocity=0 time=0.0057471250000000005
EXTRACT: note_on channel=4 note=45 velocity=0 time=0.074712625
EXTRACT: note_on channel=9 note=35 velocity=62 time=0.0057471250000000005
EXTRACT: note_on channel=9 note=54 velocity=78 time=0
EXTRACT: note_on channel=4 note=60 velocity=0 time=0.0057471250000000005
EXTRACT: note_on channel=4 note=57 velocity=0 time=0
EXTRACT: note_on channel=4 note=65 velocity=0 time=0
EXTRACT: note_on channel=4 note=45 velocity=55 time=0
EXTRACT: note_on channel=5 note=70 velocity=0 time=0
EXTRACT: note_on channel=5 note=65 velocity=0 time=0
EXTRACT: note_on channel=9 note=54 velocity=0 time=0
EXTRACT: note_on channel=9 note=35 velocity=0 time=0
EXTRACT: note_on channel=4 note=60 velocity=77 time=0.011494250000000001
EXTRACT: note_on channel=4 note=57 velocity=65 time=0
EXTRACT: note_on channel=4 note=65 velocity=69 time=0
EXTRACT: note_on channel=5 note=65 velocity=69 time=0
EXTRACT: note_on channel=5 note=70 velocity=67 time=0
EXTRACT: note_on channel=9 note=54 velocity=75 time=0.06896550000000001
EXTRACT: note_on channel=9 note=54 velocity=0 time=0.0057471250000000005
EXTRACT: note_on channel=3 note=65 velocity=0 time=0.045977000000000004
EXTRACT: note_on channel=3 note=62 velocity=95 time=0
EXTRACT: note_on channel=4 note=45 velocity=0 time=0
EXTRACT: note_on channel=9 note=54 velocity=73 time=0.0057471250000000005
EXTRACT: note_on channel=9 note=28 velocity=52 time=0
EXTRACT: note_on channel=4 note=60 velocity=0 time=0.0057471250000000005
EXTRACT: note_on channel=4 note=57 velocity=0 time=0
EXTRACT: note_on channel=4 note=65 velocity=0 time=0
EXTRACT: note_on channel=4 note=45 velocity=55 time=0
EXTRACT: note_on channel=5 note=70 velocity=0 time=0
EXTRACT: note_on channel=5 note=65 velocity=0 time=0
EXTRACT: note_on channel=9 note=28 velocity=0 time=0
EXTRACT: note_on channel=9 note=54 velocity=0 time=0
EXTRACT: note_on channel=6 note=60 velocity=75 time=0.0057471250000000005
EXTRACT: note_on channel=4 note=60 velocity=79 time=0.0057471250000000005
EXTRACT: note_on channel=4 note=57 velocity=65 time=0
EXTRACT: note_on channel=4 note=65 velocity=72 time=0
EXTRACT: note_on channel=5 note=65 velocity=64 time=0
EXTRACT: note_on channel=5 note=70 velocity=63 time=0
EXTRACT: note_on channel=9 note=54 velocity=70 time=0.06896550000000001
EXTRACT: note_on channel=9 note=54 velocity=0 time=0.0057471250000000005
EXTRACT: note_on channel=2 note=33 velocity=80 time=0.074712625
EXTRACT: note_on channel=4 note=45 velocity=0 time=0
EXTRACT: note_on channel=9 note=36 velocity=110 time=0.0057471250000000005
EXTRACT: note_on channel=9 note=41 velocity=110 time=0
EXTRACT: note_on channel=9 note=54 velocity=67 time=0
EXTRACT: note_on channel=4 note=60 velocity=0 time=0.0057471250000000005
EXTRACT: note_on channel=4 note=57 velocity=0 time=0
EXTRACT: note_on channel=4 note=65 velocity=0 time=0
EXTRACT: note_on channel=4 note=45 velocity=55 time=0
EXTRACT: note_on channel=5 note=70 velocity=0 time=0
EXTRACT: note_on channel=5 note=65 velocity=0 time=0
EXTRACT: note_on channel=9 note=54 velocity=0 time=0
EXTRACT: note_on channel=9 note=41 velocity=0 time=0
EXTRACT: note_on channel=9 note=36 velocity=0 time=0
EXTRACT: note_on channel=4 note=60 velocity=65 time=0.011494250000000001
EXTRACT: note_on channel=4 note=57 velocity=65 time=0
EXTRACT: note_on channel=4 note=65 velocity=65 time=0
EXTRACT: note_on channel=5 note=65 velocity=64 time=0
EXTRACT: note_on channel=5 note=70 velocity=64 time=0
EXTRACT: note_on channel=9 note=54 velocity=64 time=0.06896550000000001
EXTRACT: note_on channel=9 note=54 velocity=0 time=0.0057471250000000005
EXTRACT: note_on channel=3 note=62 velocity=0 time=0.022988500000000002
EXTRACT: note_on channel=6 note=65 velocity=0 time=0.011494250000000001
EXTRACT: note_on channel=6 note=60 velocity=0 time=0.011494250000000001
EXTRACT: note_on channel=2 note=33 velocity=0 time=0.011494250000000001
EXTRACT: note_on channel=2 note=31 velocity=95 time=0.011494250000000001
EXTRACT: note_on channel=3 note=69 velocity=100 time=0
EXTRACT: note_on channel=4 note=45 velocity=0 time=0
EXTRACT: note_on channel=6 note=67 velocity=78 time=0.0057471250000000005
EXTRACT: note_on channel=9 note=36 velocity=113 time=0
EXTRACT: note_on channel=9 note=41 velocity=110 time=0
EXTRACT: note_on channel=9 note=46 velocity=80 time=0
EXTRACT: note_on channel=4 note=60 velocity=0 time=0.0057471250000000005
EXTRACT: note_on channel=4 note=57 velocity=0 time=0
EXTRACT: note_on channel=4 note=65 velocity=0 time=0
EXTRACT: note_on channel=4 note=43 velocity=55 time=0
EXTRACT: note_on channel=5 note=70 velocity=0 time=0
EXTRACT: note_on channel=5 note=65 velocity=0 time=0
EXTRACT: note_on channel=9 note=46 velocity=0 time=0
EXTRACT: note_on channel=9 note=41 velocity=0 time=0
EXTRACT: note_on channel=9 note=36 velocity=0 time=0
EXTRACT: note_on channel=5 note=62 velocity=65 time=0.0057471250000000005
EXTRACT: note_on channel=5 note=67 velocity=74 time=0.0057471250000000005
EXTRACT: note_on channel=5 note=70 velocity=65 time=0
EXTRACT: note_on channel=4 note=58 velocity=68 time=0.0057471250000000005
EXTRACT: note_on channel=4 note=62 velocity=68 time=0
EXTRACT: note_on channel=4 note=67 velocity=63 time=0
EXTRACT: note_on channel=4 note=55 velocity=62 time=0
EXTRACT: note_on channel=3 note=69 velocity=0 time=0.1149425
EXTRACT: note_on channel=3 note=65 velocity=93 time=0
EXTRACT: note_on channel=4 note=43 velocity=0 time=0
EXTRACT: note_on channel=5 note=62 velocity=0 time=0.0057471250000000005
EXTRACT: note_on channel=9 note=35 velocity=64 time=0
EXTRACT: note_on channel=9 note=38 velocity=64 time=0
EXTRACT: note_on channel=4 note=43 velocity=55 time=0.0057471250000000005
EXTRACT: note_on channel=5 note=70 velocity=0 time=0
EXTRACT: note_on channel=5 note=67 velocity=0 time=0
EXTRACT: note_on channel=9 note=38 velocity=0 time=0
EXTRACT: note_on channel=9 note=35 velocity=0 time=0
EXTRACT: note_on channel=4 note=67 velocity=0 time=0.0057471250000000005
EXTRACT: note_on channel=4 note=55 velocity=0 time=0
EXTRACT: note_on channel=4 note=58 velocity=0 time=0
EXTRACT: note_on channel=4 note=62 velocity=0 time=0
EXTRACT: note_on channel=6 note=62 velocity=79 time=0
EXTRACT: note_on channel=4 note=58 velocity=62 time=0.011494250000000001
EXTRACT: note_on channel=4 note=55 velocity=59 time=0
EXTRACT: note_on channel=4 note=67 velocity=58 time=0
EXTRACT: note_on channel=4 note=62 velocity=64 time=0
EXTRACT: note_on channel=5 note=67 velocity=59 time=0
EXTRACT: note_on channel=5 note=62 velocity=58 time=0
EXTRACT: note_on channel=5 note=70 velocity=58 time=0
EXTRACT: note_on channel=6 note=67 velocity=0 time=0.051724125
EXTRACT: note_on channel=9 note=35 velocity=64 time=0.09770112500000001
EXTRACT: note_on channel=9 note=35 velocity=0 time=0.0057471250000000005
EXTRACT: note_on channel=3 note=65 velocity=0 time=0.10344825
EXTRACT: note_on channel=2 note=31 velocity=0 time=0.051724125
EXTRACT: note_on channel=4 note=43 velocity=0 time=0.0057471250000000005
EXTRACT: note_on channel=3 note=65 velocity=93 time=0
EXTRACT: note_on channel=9 note=39 velocity=111 time=0
EXTRACT: note_on channel=4 note=43 velocity=55 time=0.0057471250000000005
EXTRACT: note_on channel=9 note=39 velocity=0 time=0
EXTRACT: note_on channel=4 note=67 velocity=0 time=0.0057471250000000005
EXTRACT: note_on channel=4 note=62 velocity=0 time=0
EXTRACT: note_on channel=4 note=58 velocity=0 time=0
EXTRACT: note_on channel=4 note=55 velocity=0 time=0
EXTRACT: note_on channel=5 note=70 velocity=0 time=0
EXTRACT: note_on channel=5 note=62 velocity=0 time=0
EXTRACT: note_on channel=5 note=67 velocity=0 time=0
EXTRACT: note_on channel=6 note=67 velocity=77 time=0
EXTRACT: note_on channel=4 note=58 velocity=67 time=0.011494250000000001
EXTRACT: note_on channel=4 note=55 velocity=65 time=0
EXTRACT: note_on channel=4 note=62 velocity=69 time=0
EXTRACT: note_on channel=4 note=67 velocity=61 time=0
EXTRACT: note_on channel=5 note=62 velocity=63 time=0
EXTRACT: note_on channel=5 note=67 velocity=70 time=0
EXTRACT: note_on channel=5 note=70 velocity=63 time=0
EXTRACT: note_on channel=6 note=62 velocity=0 time=0.0057471250000000005
EXTRACT: note_on channel=3 note=65 velocity=0 time=0.09770112500000001
EXTRACT: note_on channel=3 note=65 velocity=93 time=0
EXTRACT: note_on channel=9 note=37 velocity=57 time=0.0057471250000000005
EXTRACT: note_on channel=9 note=37 velocity=0 time=0.0057471250000000005
EXTRACT: note_on channel=3 note=65 velocity=0 time=0.1149425
EXTRACT: note_on channel=3 note=68 velocity=93 time=0
EXTRACT: note_on channel=4 note=43 velocity=0 time=0
EXTRACT: note_on channel=4 note=43 velocity=55 time=0.011494250000000001
EXTRACT: note_on channel=4 note=62 velocity=0 time=0.0057471250000000005
EXTRACT: note_on channel=4 note=67 velocity=0 time=0
EXTRACT: note_on channel=4 note=58 velocity=0 time=0
EXTRACT: note_on channel=4 note=55 velocity=0 time=0
EXTRACT: note_on channel=5 note=70 velocity=0 time=0
EXTRACT: note_on channel=5 note=67 velocity=0 time=0
EXTRACT: note_on channel=5 note=62 velocity=0 time=0
EXTRACT: note_on channel=6 note=62 velocity=77 time=0
EXTRACT: note_on channel=4 note=58 velocity=60 time=0.011494250000000001
EXTRACT: note_on channel=4 note=62 velocity=63 time=0
EXTRACT: note_on channel=4 note=55 velocity=58 time=0
EXTRACT: note_on channel=4 note=67 velocity=54 time=0
EXTRACT: note_on channel=5 note=67 velocity=59 time=0
EXTRACT: note_on channel=5 note=62 velocity=58 time=0
EXTRACT: note_on channel=5 note=70 velocity=57 time=0
EXTRACT: note_on channel=6 note=67 velocity=0 time=0.034482750000000006
EXTRACT: note_on channel=3 note=68 velocity=0 time=0.06321837500000001
EXTRACT: note_on channel=3 note=67 velocity=93 time=0
EXTRACT: note_on channel=4 note=43 velocity=0 time=0.0057471250000000005
EXTRACT: note_on channel=9 note=39 velocity=108 time=0.0057471250000000005
EXTRACT: note_on channel=4 note=43 velocity=55 time=0.0057471250000000005
EXTRACT: note_on channel=9 note=39 velocity=0 time=0
EXTRACT: note_on channel=4 note=55 velocity=0 time=0.0057471250000000005
EXTRACT: note_on channel=4 note=67 velocity=0 time=0
EXTRACT: note_on channel=4 note=58 velocity=0 time=0
EXTRACT: note_on channel=4 note=62 velocity=0 time=0
EXTRACT: note_on channel=5 note=70 velocity=0 time=0
EXTRACT: note_on channel=5 note=62 velocity=0 time=0
EXTRACT: note_on channel=5 note=67 velocity=0 time=0
EXTRACT: note_on channel=4 note=58 velocity=71 time=0.011494250000000001
EXTRACT: note_on channel=4 note=55 velocity=63 time=0
EXTRACT: note_on channel=4 note=62 velocity=71 time=0
EXTRACT: note_on channel=4 note=67 velocity=63 time=0
EXTRACT: note_on channel=5 note=62 velocity=63 time=0
EXTRACT: note_on channel=5 note=67 velocity=69 time=0
EXTRACT: note_on channel=5 note=70 velocity=63 time=0
EXTRACT: note_on channel=3 note=67 velocity=0 time=0.09195400000000001
EXTRACT: note_on channel=3 note=65 velocity=93 time=0
EXTRACT: note_on channel=6 note=67 velocity=75 time=0.017241375000000003
EXTRACT: note_on channel=6 note=62 velocity=0 time=0.028735625
EXTRACT: note_on channel=4 note=43 velocity=0 time=0.12643675000000001
EXTRACT: note_on channel=9 note=35 velocity=61 time=0.0057471250000000005
EXTRACT: note_on channel=9 note=37 velocity=59 time=0
EXTRACT: note_on channel=4 note=43 velocity=55 time=0.0057471250000000005
EXTRACT: note_on channel=9 note=37 velocity=0 time=0
EXTRACT: note_on channel=9 note=35 velocity=0 time=0
EXTRACT: note_on channel=4 note=62 velocity=0 time=0.0057471250000000005
EXTRACT: note_on channel=4 note=67 velocity=0 time=0
EXTRACT: note_on channel=4 note=58 velocity=0 time=0
EXTRACT: note_on channel=4 note=55 velocity=0 time=0
EXTRACT: note_on channel=5 note=70 velocity=0 time=0
EXTRACT: note_on channel=5 note=67 velocity=0 time=0
EXTRACT: note_on channel=5 note=62 velocity=0 time=0
EXTRACT: note_on channel=4 note=58 velocity=63 time=0.011494250000000001
EXTRACT: note_on channel=4 note=62 velocity=64 time=0
EXTRACT: note_on channel=4 note=55 velocity=60 time=0
EXTRACT: note_on channel=4 note=67 velocity=58 time=0
EXTRACT: note_on channel=5 note=62 velocity=57 time=0
EXTRACT: note_on channel=5 note=67 velocity=59 time=0
EXTRACT: note_on channel=5 note=70 velocity=58 time=0
EXTRACT: note_on channel=3 note=65 velocity=0 time=0.09195400000000001
EXTRACT: note_on channel=3 note=62 velocity=97 time=0
EXTRACT: note_on channel=4 note=43 velocity=0 time=0.0057471250000000005
EXTRACT: note_on channel=9 note=35 velocity=67 time=0.0057471250000000005
EXTRACT: note_on channel=9 note=37 velocity=64 time=0
EXTRACT: note_on channel=4 note=43 velocity=55 time=0.0057471250000000005
EXTRACT: note_on channel=9 note=37 velocity=0 time=0
EXTRACT: note_on channel=9 note=35 velocity=0 time=0
EXTRACT: note_on channel=4 note=55 velocity=0 time=0.0057471250000000005
EXTRACT: note_on channel=4 note=67 velocity=0 time=0
EXTRACT: note_on channel=4 note=58 velocity=0 time=0
EXTRACT: note_on channel=4 note=62 velocity=0 time=0
EXTRACT: note_on channel=5 note=70 velocity=0 time=0
EXTRACT: note_on channel=5 note=67 velocity=0 time=0
EXTRACT: note_on channel=5 note=62 velocity=0 time=0
EXTRACT: note_on channel=6 note=62 velocity=76 time=0
EXTRACT: note_on channel=4 note=58 velocity=65 time=0.011494250000000001
EXTRACT: note_on channel=4 note=55 velocity=58 time=0
EXTRACT: note_on channel=4 note=62 velocity=71 time=0
EXTRACT: note_on channel=4 note=67 velocity=60 time=0
EXTRACT: note_on channel=5 note=62 velocity=59 time=0
EXTRACT: note_on channel=5 note=67 velocity=67 time=0
EXTRACT: note_on channel=5 note=70 velocity=65 time=0
EXTRACT: note_on channel=6 note=67 velocity=0 time=0.040229875000000005
EXTRACT: note_on channel=3 note=62 velocity=0 time=0.2068965
EXTRACT: note_on channel=3 note=65 velocity=98 time=0
EXTRACT: note_on channel=4 note=43 velocity=0 time=0
EXTRACT: note_on channel=9 note=39 velocity=114 time=0.0057471250000000005
EXTRACT: note_on channel=4 note=43 velocity=55 time=0.0057471250000000005
EXTRACT: note_on channel=6 note=62 velocity=0 time=0
EXTRACT: note_on channel=9 note=39 velocity=0 time=0
EXTRACT: note_on channel=4 note=62 velocity=0 time=0.0057471250000000005
EXTRACT: note_on channel=4 note=67 velocity=0 time=0
EXTRACT: note_on channel=4 note=58 velocity=0 time=0
EXTRACT: note_on channel=4 note=55 velocity=0 time=0
EXTRACT: note_on channel=5 note=70 velocity=0 time=0
EXTRACT: note_on channel=5 note=67 velocity=0 time=0
EXTRACT: note_on channel=5 note=62 velocity=0 time=0
EXTRACT: note_on channel=6 note=67 velocity=74 time=0
EXTRACT: note_on channel=4 note=58 velocity=70 time=0.011494250000000001
EXTRACT: note_on channel=4 note=55 velocity=63 time=0
EXTRACT: note_on channel=4 note=62 velocity=69 time=0
EXTRACT: note_on channel=4 note=67 velocity=63 time=0
EXTRACT: note_on channel=5 note=67 velocity=69 time=0
EXTRACT: note_on channel=5 note=62 velocity=65 time=0
EXTRACT: note_on channel=5 note=70 velocity=66 time=0
EXTRACT: note_on channel=3 note=65 velocity=0 time=0.12068962500000001
EXTRACT: note_on channel=3 note=65 velocity=96 time=0
EXTRACT: note_on channel=4 note=43 velocity=0 time=0
EXTRACT: note_on channel=9 note=35 velocity=61 time=0.0057471250000000005
EXTRACT: note_on channel=4 note=43 velocity=55 time=0.0057471250000000005
EXTRACT: note_on channel=9 note=35 velocity=0 time=0
EXTRACT: note_on channel=4 note=62 velocity=0 time=0.0057471250000000005
EXTRACT: note_on channel=4 note=67 velocity=0 time=0
EXTRACT: note_on channel=4 note=58 velocity=0 time=0
EXTRACT: note_on channel=4 note=55 velocity=0 time=0
EXTRACT: note_on channel=5 note=70 velocity=0 time=0
EXTRACT: note_on channel=5 note=62 velocity=0 time=0
EXTRACT: note_on channel=5 note=67 velocity=0 time=0
EXTRACT: note_on channel=4 note=58 velocity=65 time=0.011494250000000001
EXTRACT: note_on channel=4 note=62 velocity=67 time=0
EXTRACT: note_on channel=4 note=55 velocity=57 time=0
EXTRACT: note_on channel=4 note=67 velocity=58 time=0
EXTRACT: note_on channel=5 note=62 velocity=48 time=0
EXTRACT: note_on channel=5 note=67 velocity=66 time=0
EXTRACT: note_on channel=5 note=70 velocity=63 time=0
EXTRACT: note_on channel=3 note=65 velocity=0 time=0.1149425
EXTRACT: note_on channel=3 note=62 velocity=96 time=0
EXTRACT: note_on channel=4 note=43 velocity=0 time=0
EXTRACT: note_on channel=9 note=28 velocity=51 time=0.0057471250000000005
EXTRACT: note_on channel=4 note=43 velocity=55 time=0.0057471250000000005
EXTRACT: note_on channel=9 note=28 velocity=0 time=0
EXTRACT: note_on channel=4 note=55 velocity=0 time=0.0057471250000000005
EXTRACT: note_on channel=4 note=67 velocity=0 time=0
EXTRACT: note_on channel=4 note=58 velocity=0 time=0
EXTRACT: note_on channel=4 note=62 velocity=0 time=0
EXTRACT: note_on channel=5 note=70 velocity=0 time=0
EXTRACT: note_on channel=5 note=67 velocity=0 time=0
EXTRACT: note_on channel=5 note=62 velocity=0 time=0
EXTRACT: note_on channel=6 note=65 velocity=78 time=0
EXTRACT: note_on channel=4 note=58 velocity=68 time=0.011494250000000001
EXTRACT: note_on channel=4 note=55 velocity=63 time=0
EXTRACT: note_on channel=4 note=62 velocity=69 time=0
EXTRACT: note_on channel=4 note=67 velocity=61 time=0
EXTRACT: note_on channel=5 note=62 velocity=55 time=0
EXTRACT: note_on channel=5 note=67 velocity=67 time=0
EXTRACT: note_on channel=5 note=70 velocity=63 time=0
EXTRACT: note_on channel=6 note=67 velocity=0 time=0.017241375000000003
EXTRACT: note_on channel=3 note=62 velocity=0 time=0.09770112500000001
EXTRACT: note_on channel=3 note=62 velocity=96 time=0
EXTRACT: note_on channel=4 note=43 velocity=0 time=0
EXTRACT: note_on channel=4 note=43 velocity=55 time=0.011494250000000001
EXTRACT: note_on channel=4 note=62 velocity=0 time=0.0057471250000000005
EXTRACT: note_on channel=4 note=67 velocity=0 time=0
EXTRACT: note_on channel=4 note=58 velocity=0 time=0
EXTRACT: note_on channel=4 note=55 velocity=0 time=0
EXTRACT: note_on channel=5 note=70 velocity=0 time=0
EXTRACT: note_on channel=5 note=67 velocity=0 time=0
EXTRACT: note_on channel=5 note=62 velocity=0 time=0
EXTRACT: note_on channel=4 note=58 velocity=59 time=0.011494250000000001
EXTRACT: note_on channel=4 note=67 velocity=59 time=0
EXTRACT: note_on channel=4 note=55 velocity=59 time=0
EXTRACT: note_on channel=4 note=62 velocity=59 time=0
EXTRACT: note_on channel=5 note=62 velocity=63 time=0
EXTRACT: note_on channel=5 note=67 velocity=63 time=0
EXTRACT: note_on channel=5 note=70 velocity=63 time=0
EXTRACT: note_on channel=3 note=62 velocity=0 time=0.1149425
EXTRACT: note_on channel=6 note=65 velocity=0 time=0.011494250000000001
EXTRACT: note_on channel=2 note=27 velocity=97 time=0.011494250000000001
EXTRACT: note_on channel=3 note=65 velocity=98 time=0
EXTRACT: note_on channel=4 note=43 velocity=0 time=0
EXTRACT: note_on channel=9 note=36 velocity=114 time=0.0057471250000000005
EXTRACT: note_on channel=9 note=41 velocity=110 time=0
EXTRACT: note_on channel=9 note=46 velocity=81 time=0
EXTRACT: note_on channel=4 note=39 velocity=55 time=0.0057471250000000005
EXTRACT: note_on channel=6 note=67 velocity=74 time=0
EXTRACT: note_on channel=9 note=46 velocity=0 time=0
EXTRACT: note_on channel=9 note=41 velocity=0 time=0
EXTRACT: note_on channel=9 note=36 velocity=0 time=0
EXTRACT: note_on channel=4 note=55 velocity=0 time=0.0057471250000000005
EXTRACT: note_on channel=4 note=62 velocity=0 time=0
EXTRACT: note_on channel=4 note=58 velocity=0 time=0
EXTRACT: note_on channel=4 note=67 velocity=0 time=0
EXTRACT: note_on channel=5 note=70 velocity=0 time=0
EXTRACT: note_on channel=5 note=67 velocity=0 time=0
EXTRACT: note_on channel=5 note=62 velocity=0 time=0
EXTRACT: note_on channel=5 note=70 velocity=65 time=0.0057471250000000005
EXTRACT: note_on channel=4 note=63 velocity=64 time=0.0057471250000000005
EXTRACT: note_on channel=4 note=67 velocity=63 time=0
EXTRACT: note_on channel=4 note=58 velocity=65 time=0
EXTRACT: note_on channel=4 note=55 velocity=64 time=0
EXTRACT: note_on channel=5 note=65 velocity=74 time=0
EXTRACT: note_on channel=3 note=65 velocity=0 time=0.27011487500000003
EXTRACT: note_on channel=3 note=63 velocity=98 time=0
EXTRACT: note_on channel=4 note=39 velocity=0 time=0
EXTRACT: note_on channel=9 note=35 velocity=68 time=0.0057471250000000005
EXTRACT: note_on channel=9 note=38 velocity=68 time=0
EXTRACT: note_on channel=4 note=39 velocity=55 time=0.0057471250000000005
EXTRACT: note_on channel=5 note=70 velocity=0 time=0
EXTRACT: note_on channel=9 note=38 velocity=0 time=0
EXTRACT: note_on channel=9 note=35 velocity=0 time=0
EXTRACT: note_on channel=4 note=58 velocity=0 time=0.0057471250000000005
EXTRACT: note_on channel=4 note=55 velocity=0 time=0
EXTRACT: note_on channel=4 note=63 velocity=0 time=0
EXTRACT: note_on channel=4 note=67 velocity=0 time=0
EXTRACT: note_on channel=5 note=65 velocity=0 time=0
EXTRACT: note_on channel=6 note=65 velocity=76 time=0
EXTRACT: note_on channel=4 note=58 velocity=61 time=0.011494250000000001
EXTRACT: note_on channel=4 note=63 velocity=63 time=0
EXTRACT: note_on channel=4 note=55 velocity=58 time=0
EXTRACT: note_on channel=4 note=67 velocity=56 time=0
EXTRACT: note_on channel=5 note=65 velocity=73 time=0
EXTRACT: note_on channel=5 note=70 velocity=63 time=0
EXTRACT: note_on channel=6 note=67 velocity=0 time=0.040229875000000005
EXTRACT: note_on channel=3 note=63 velocity=0 time=0.086206875
EXTRACT: note_on channel=3 note=63 velocity=98 time=0
EXTRACT: note_on channel=9 note=35 velocity=63 time=0.0057471250000000005
EXTRACT: note_on channel=9 note=35 velocity=0 time=0.0057471250000000005
EXTRACT: note_on channel=6 note=65 velocity=0 time=0.13793100000000003
EXTRACT: note_on channel=3 note=63 velocity=0 time=0.0057471250000000005
EXTRACT: note_on channel=2 note=27 velocity=0 time=0.017241375000000003
EXTRACT: note_on channel=4 note=39 velocity=0 time=0
EXTRACT: note_on channel=3 note=65 velocity=93 time=0
EXTRACT: note_on channel=6 note=67 velocity=77 time=0
EXTRACT: note_on channel=9 note=39 velocity=110 time=0
EXTRACT: note_on channel=4 note=39 velocity=55 time=0.0057471250000000005
EXTRACT: note_on channel=9 note=39 velocity=0 time=0
EXTRACT: note_on channel=4 note=55 velocity=0 time=0.0057471250000000005
EXTRACT: note_on channel=4 note=67 velocity=0 time=0
EXTRACT: note_on channel=4 note=58 velocity=0 time=0
EXTRACT: note_on channel=4 note=63 velocity=0 time=0
EXTRACT: note_on channel=5 note=70 velocity=0 time=0
EXTRACT: note_on channel=5 note=65 velocity=0 time=0
EXTRACT: note_on channel=4 note=58 velocity=65 time=0.011494250000000001
EXTRACT: note_on channel=4 note=67 velocity=65 time=0
EXTRACT: note_on channel=4 note=63 velocity=67 time=0
EXTRACT: note_on channel=4 note=55 velocity=62 time=0
EXTRACT: note_on channel=5 note=67 velocity=74 time=0
EXTRACT: note_on channel=5 note=70 velocity=76 time=0
EXTRACT: note_on channel=3 note=65 velocity=0 time=0.1149425
EXTRACT: note_on channel=9 note=37 velocity=57 time=0.034482750000000006
EXTRACT: note_on channel=3 note=65 velocity=95 time=0
EXTRACT: note_on channel=9 note=37 velocity=0 time=0
EXTRACT: note_on channel=3 note=65 velocity=0 time=0.132183875
EXTRACT: note_on channel=4 note=39 velocity=0 time=0.028735625
EXTRACT: note_on channel=5 note=67 velocity=0 time=0.0057471250000000005
EXTRACT: note_on channel=3 note=65 velocity=97 time=0
EXTRACT: note_on channel=4 note=39 velocity=55 time=0
EXTRACT: note_on channel=4 note=63 velocity=0 time=0.0057471250000000005
EXTRACT: note_on channel=4 note=55 velocity=0 time=0
EXTRACT: note_on channel=4 note=58 velocity=0 time=0
EXTRACT: note_on channel=4 note=67 velocity=0 time=0
EXTRACT: note_on channel=5 note=70 velocity=0 time=0
EXTRACT: note_on channel=6 note=65 velocity=76 time=0
EXTRACT: note_on channel=4 note=58 velocity=59 time=0.011494250000000001
EXTRACT: note_on channel=4 note=63 velocity=61 time=0
EXTRACT: note_on channel=4 note=67 velocity=58 time=0
EXTRACT: note_on channel=4 note=55 velocity=57 time=0
EXTRACT: note_on channel=5 note=65 velocity=67 time=0
EXTRACT: note_on channel=5 note=70 velocity=67 time=0
EXTRACT: note_on channel=6 note=67 velocity=0 time=0.034482750000000006
EXTRACT: note_on channel=3 note=65 velocity=0 time=0.086206875
EXTRACT: note_on channel=4 note=39 velocity=0 time=0.022988500000000002
EXTRACT: note_on channel=9 note=39 velocity=110 time=0.0057471250000000005
EXTRACT: note_on channel=3 note=65 velocity=104 time=0
EXTRACT: note_on channel=4 note=39 velocity=55 time=0
EXTRACT: note_on channel=9 note=39 velocity=0 time=0
EXTRACT: note_on channel=4 note=67 velocity=0 time=0.0057471250000000005
EXTRACT: note_on channel=4 note=55 velocity=0 time=0
EXTRACT: note_on channel=4 note=58 velocity=0 time=0
EXTRACT: note_on channel=4 note=63 velocity=0 time=0
EXTRACT: note_on channel=5 note=70 velocity=0 time=0
EXTRACT: note_on channel=5 note=65 velocity=0 time=0
EXTRACT: note_on channel=4 note=58 velocity=67 time=0.011494250000000001
EXTRACT: note_on channel=4 note=55 velocity=61 time=0
EXTRACT: note_on channel=4 note=63 velocity=65 time=0
EXTRACT: note_on channel=4 note=67 velocity=59 time=0
EXTRACT: note_on channel=5 note=70 velocity=75 time=0
EXTRACT: note_on channel=5 note=67 velocity=75 time=0
EXTRACT: note_on channel=3 note=65 velocity=0 time=0.132183875
EXTRACT: note_on channel=3 note=63 velocity=97 time=0
EXTRACT: note_on channel=6 note=65 velocity=0 time=0.0057471250000000005
EXTRACT: note_on channel=6 note=67 velocity=79 time=0.011494250000000001
EXTRACT: note_on channel=4 note=39 velocity=0 time=0.155172375
EXTRACT: note_on channel=9 note=35 velocity=62 time=0.0057471250000000005
EXTRACT: note_on channel=9 note=37 velocity=59 time=0
EXTRACT: note_on channel=4 note=39 velocity=55 time=0.0057471250000000005
EXTRACT: note_on channel=9 note=37 velocity=0 time=0
EXTRACT: note_on channel=9 note=35 velocity=0 time=0
EXTRACT: note_on channel=4 note=63 velocity=0 time=0.0057471250000000005
EXTRACT: note_on channel=4 note=67 velocity=0 time=0
EXTRACT: note_on channel=4 note=58 velocity=0 time=0
EXTRACT: note_on channel=4 note=55 velocity=0 time=0
EXTRACT: note_on channel=5 note=67 velocity=0 time=0
EXTRACT: note_on channel=5 note=70 velocity=0 time=0
EXTRACT: note_on channel=4 note=58 velocity=61 time=0.011494250000000001
EXTRACT: note_on channel=4 note=67 velocity=59 time=0
EXTRACT: note_on channel=4 note=63 velocity=61 time=0
EXTRACT: note_on channel=4 note=55 velocity=58 time=0
EXTRACT: note_on channel=5 note=65 velocity=70 time=0
EXTRACT: note_on channel=5 note=70 velocity=67 time=0
EXTRACT: note_on channel=3 note=63 velocity=0 time=0.12068962500000001
EXTRACT: note_on channel=4 note=39 velocity=0 time=0.022988500000000002
EXTRACT: note_on channel=9 note=35 velocity=65 time=0.0057471250000000005
EXTRACT: note_on channel=9 note=37 velocity=63 time=0
EXTRACT: note_on channel=4 note=39 velocity=55 time=0.0057471250000000005
EXTRACT: note_on channel=9 note=37 velocity=0 time=0
EXTRACT: note_on channel=9 note=35 velocity=0 time=0
EXTRACT: note_on channel=4 note=63 velocity=0 time=0.0057471250000000005
EXTRACT: note_on channel=4 note=55 velocity=0 time=0
EXTRACT: note_on channel=4 note=58 velocity=0 time=0
EXTRACT: note_on channel=4 note=67 velocity=0 time=0
EXTRACT: note_on channel=5 note=70 velocity=0 time=0
EXTRACT: note_on channel=5 note=65 velocity=0 time=0
EXTRACT: note_on channel=6 note=65 velocity=76 time=0
EXTRACT: note_on channel=4 note=58 velocity=68 time=0.011494250000000001
EXTRACT: note_on channel=4 note=67 velocity=65 time=0
EXTRACT: note_on channel=4 note=63 velocity=68 time=0
EXTRACT: note_on channel=4 note=55 velocity=60 time=0
EXTRACT: note_on channel=5 note=65 velocity=81 time=0
EXTRACT: note_on channel=5 note=70 velocity=74 time=0
EXTRACT: note_on channel=6 note=67 velocity=0 time=0.034482750000000006
EXTRACT: note_on channel=3 note=63 velocity=99 time=0
EXTRACT: note_on channel=3 note=63 velocity=0 time=0.132183875
EXTRACT: note_on channel=3 note=65 velocity=99 time=0
EXTRACT: note_on channel=4 note=39 velocity=0 time=0
EXTRACT: note_on channel=6 note=65 velocity=0 time=0.0057471250000000005
EXTRACT: note_on channel=9 note=39 velocity=109 time=0
EXTRACT: note_on channel=4 note=39 velocity=55 time=0.0057471250000000005
EXTRACT: note_on channel=9 note=39 velocity=0 time=0
EXTRACT: note_on channel=4 note=63 velocity=0 time=0.0057471250000000005
EXTRACT: note_on channel=4 note=55 velocity=0 time=0
EXTRACT: note_on channel=4 note=58 velocity=0 time=0
EXTRACT: note_on channel=4 note=67 velocity=0 time=0
EXTRACT: note_on channel=5 note=70 velocity=0 time=0
EXTRACT: note_on channel=5 note=65 velocity=0 time=0
EXTRACT: note_on channel=6 note=67 velocity=78 time=0
EXTRACT: note_on channel=4 note=67 velocity=65 time=0.011494250000000001
EXTRACT: note_on channel=4 note=58 velocity=69 time=0
EXTRACT: note_on channel=4 note=63 velocity=69 time=0
EXTRACT: note_on channel=4 note=55 velocity=63 time=0
EXTRACT: note_on channel=5 note=70 velocity=66 time=0
EXTRACT: note_on channel=5 note=65 velocity=66 time=0
EXTRACT: note_on channel=4 note=39 velocity=0 time=0.14367812500000002
EXTRACT: note_on channel=9 note=35 velocity=62 time=0.0057471250000000005
EXTRACT: note_on channel=4 note=39 velocity=55 time=0.0057471250000000005
EXTRACT: note_on channel=9 note=35 velocity=0 time=0
EXTRACT: note_on channel=4 note=63 velocity=0 time=0.0057471250000000005
EXTRACT: note_on channel=4 note=55 velocity=0 time=0
EXTRACT: note_on channel=4 note=67 velocity=0 time=0
EXTRACT: note_on channel=4 note=58 velocity=0 time=0
EXTRACT: note_on channel=5 note=65 velocity=0 time=0
EXTRACT: note_on channel=5 note=70 velocity=0 time=0
EXTRACT: note_on channel=4 note=58 velocity=67 time=0.011494250000000001
EXTRACT: note_on channel=4 note=63 velocity=67 time=0
EXTRACT: note_on channel=4 note=67 velocity=60 time=0
EXTRACT: note_on channel=4 note=55 velocity=61 time=0
EXTRACT: note_on channel=5 note=65 velocity=64 time=0
EXTRACT: note_on channel=5 note=70 velocity=69 time=0
EXTRACT: note_on channel=3 note=65 velocity=0 time=0.086206875
EXTRACT: note_on channel=3 note=65 velocity=99 time=0
EXTRACT: note_on channel=4 note=39 velocity=0 time=0
EXTRACT: note_on channel=9 note=38 velocity=66 time=0.0057471250000000005
EXTRACT: note_on channel=9 note=28 velocity=52 time=0
EXTRACT: note_on channel=4 note=39 velocity=55 time=0.0057471250000000005
EXTRACT: note_on channel=9 note=28 velocity=0 time=0
EXTRACT: note_on channel=9 note=38 velocity=0 time=0
EXTRACT: note_on channel=4 note=67 velocity=0 time=0.0057471250000000005
EXTRACT: note_on channel=4 note=55 velocity=0 time=0
EXTRACT: note_on channel=4 note=58 velocity=0 time=0
EXTRACT: note_on channel=4 note=63 velocity=0 time=0
EXTRACT: note_on channel=5 note=70 velocity=0 time=0
EXTRACT: note_on channel=5 note=65 velocity=0 time=0
EXTRACT: note_on channel=6 note=65 velocity=76 time=0
EXTRACT: note_on channel=4 note=58 velocity=66 time=0.011494250000000001
EXTRACT: note_on channel=4 note=67 velocity=60 time=0
EXTRACT: note_on channel=4 note=63 velocity=69 time=0
EXTRACT: note_on channel=4 note=55 velocity=60 time=0
EXTRACT: note_on channel=5 note=65 velocity=70 time=0
EXTRACT: note_on channel=5 note=70 velocity=68 time=0
EXTRACT: note_on channel=6 note=67 velocity=0 time=0.022988500000000002
EXTRACT: note_on channel=3 note=65 velocity=0 time=0.08045975000000001
EXTRACT: note_on channel=3 note=65 velocity=99 time=0
EXTRACT: note_on channel=4 note=39 velocity=0 time=0
EXTRACT: note_on channel=9 note=36 velocity=110 time=0.0057471250000000005
EXTRACT: note_on channel=4 note=39 velocity=55 time=0.0057471250000000005
EXTRACT: note_on channel=9 note=36 velocity=0 time=0
EXTRACT: note_on channel=4 note=63 velocity=0 time=0.0057471250000000005
EXTRACT: note_on channel=4 note=55 velocity=0 time=0
EXTRACT: note_on channel=4 note=58 velocity=0 time=0
EXTRACT: note_on channel=4 note=67 velocity=0 time=0
EXTRACT: note_on channel=5 note=70 velocity=0 time=0
EXTRACT: note_on channel=5 note=65 velocity=0 time=0
EXTRACT: note_on channel=4 note=67 velocity=57 time=0.011494250000000001
EXTRACT: note_on channel=4 note=58 velocity=57 time=0
EXTRACT: note_on channel=4 note=55 velocity=57 time=0
EXTRACT: note_on channel=4 note=63 velocity=57 time=0
EXTRACT: note_on channel=5 note=65 velocity=63 time=0
EXTRACT: note_on channel=5 note=70 velocity=63 time=0
EXTRACT: note_on channel=6 note=65 velocity=0 time=0.09195400000000001
EXTRACT: note_on channel=3 note=65 velocity=0 time=0.011494250000000001
EXTRACT: note_on channel=2 note=34 velocity=96 time=0.022988500000000002
EXTRACT: note_on channel=3 note=62 velocity=99 time=0
EXTRACT: note_on channel=4 note=39 velocity=0 time=0
EXTRACT: note_on channel=6 note=65 velocity=83 time=0.0057471250000000005
EXTRACT: note_on channel=9 note=36 velocity=113 time=0
EXTRACT: note_on channel=9 note=41 velocity=110 time=0
EXTRACT: note_on channel=9 note=46 velocity=80 time=0
EXTRACT: note_on channel=4 note=46 velocity=55 time=0.0057471250000000005
EXTRACT: note_on channel=9 note=46 velocity=0 time=0
EXTRACT: note_on channel=9 note=41 velocity=0 time=0
EXTRACT: note_on channel=9 note=36 velocity=0 time=0
EXTRACT: note_on channel=4 note=55 velocity=0 time=0.0057471250000000005
EXTRACT: note_on channel=4 note=63 velocity=0 time=0
EXTRACT: note_on channel=4 note=67 velocity=0 time=0
EXTRACT: note_on channel=4 note=58 velocity=0 time=0
EXTRACT: note_on channel=5 note=70 velocity=0 time=0
EXTRACT: note_on channel=5 note=65 velocity=0 time=0
EXTRACT: note_on channel=4 note=58 velocity=74 time=0.011494250000000001
EXTRACT: note_on channel=4 note=62 velocity=69 time=0
EXTRACT: note_on channel=4 note=65 velocity=66 time=0
EXTRACT: note_on channel=4 note=53 velocity=66 time=0
EXTRACT: note_on channel=5 note=65 velocity=74 time=0
EXTRACT: note_on channel=5 note=70 velocity=63 time=0
EXTRACT: note_on channel=3 note=62 velocity=0 time=0.25862062500000005
EXTRACT: note_on channel=3 note=65 velocity=99 time=0
EXTRACT: note_on channel=4 note=46 velocity=0 time=0
EXTRACT: note_on channel=9 note=35 velocity=64 time=0.0057471250000000005
EXTRACT: note_on channel=9 note=38 velocity=64 time=0
EXTRACT: note_on channel=4 note=46 velocity=55 time=0.0057471250000000005
EXTRACT: note_on channel=9 note=38 velocity=0 time=0
EXTRACT: note_on channel=9 note=35 velocity=0 time=0
EXTRACT: note_on channel=4 note=65 velocity=0 time=0.0057471250000000005
EXTRACT: note_on channel=4 note=53 velocity=0 time=0
EXTRACT: note_on channel=4 note=58 velocity=0 time=0
EXTRACT: note_on channel=4 note=62 velocity=0 time=0
EXTRACT: note_on channel=5 note=70 velocity=0 time=0
EXTRACT: note_on channel=5 note=65 velocity=0 time=0
EXTRACT: note_on channel=6 note=62 velocity=82 time=0
EXTRACT: note_on channel=4 note=53 velocity=60 time=0.011494250000000001
EXTRACT: note_on channel=4 note=58 velocity=61 time=0
EXTRACT: note_on channel=4 note=62 velocity=61 time=0
EXTRACT: note_on channel=4 note=65 velocity=59 time=0
EXTRACT: note_on channel=5 note=70 velocity=62 time=0
EXTRACT: note_on channel=5 note=65 velocity=64 time=0
EXTRACT: note_on channel=6 note=65 velocity=0 time=0.051724125
EXTRACT: note_on channel=3 note=65 velocity=0 time=0.051724125
EXTRACT: note_on channel=3 note=65 velocity=99 time=0
EXTRACT: note_on channel=9 note=35 velocity=64 time=0.0057471250000000005
EXTRACT: note_on channel=9 note=35 velocity=0 time=0.0057471250000000005
EXTRACT: note_on channel=3 note=65 velocity=0 time=0.12068962500000001
EXTRACT: note_on channel=3 note=62 velocity=99 time=0
EXTRACT: note_on channel=2 note=34 velocity=0 time=0
EXTRACT: note_on channel=4 note=46 velocity=0 time=0
EXTRACT: note_on channel=9 note=39 velocity=111 time=0.0057471250000000005
EXTRACT: note_on channel=4 note=46 velocity=55 time=0.0057471250000000005
EXTRACT: note_on channel=6 note=62 velocity=0 time=0
EXTRACT: note_on channel=6 note=65 velocity=82 time=0
EXTRACT: note_on channel=9 note=39 velocity=0 time=0
EXTRACT: note_on channel=4 note=62 velocity=0 time=0.0057471250000000005
EXTRACT: note_on channel=4 note=65 velocity=0 time=0
EXTRACT: note_on channel=4 note=53 velocity=0 time=0
EXTRACT: note_on channel=4 note=58 velocity=0 time=0
EXTRACT: note_on channel=5 note=65 velocity=0 time=0
EXTRACT: note_on channel=5 note=70 velocity=0 time=0
EXTRACT: note_on channel=5 note=65 velocity=74 time=0.0057471250000000005
EXTRACT: note_on channel=4 note=58 velocity=65 time=0.0057471250000000005
EXTRACT: note_on channel=4 note=53 velocity=64 time=0
EXTRACT: note_on channel=4 note=62 velocity=67 time=0
EXTRACT: note_on channel=4 note=65 velocity=63 time=0
EXTRACT: note_on channel=5 note=70 velocity=65 time=0
EXTRACT: note_on channel=3 note=62 velocity=0 time=0.10344825
EXTRACT: note_on channel=3 note=62 velocity=99 time=0
EXTRACT: note_on channel=9 note=37 velocity=57 time=0.0057471250000000005
EXTRACT: note_on channel=9 note=37 velocity=0 time=0.0057471250000000005
EXTRACT: note_on channel=3 note=62 velocity=0 time=0.12068962500000001
EXTRACT: note_on channel=4 note=46 velocity=0 time=0.040229875000000005
EXTRACT: note_on channel=3 note=65 velocity=99 time=0
EXTRACT: note_on channel=4 note=46 velocity=55 time=0.0057471250000000005
EXTRACT: note_on channel=5 note=65 velocity=0 time=0
EXTRACT: note_on channel=4 note=62 velocity=0 time=0.0057471250000000005
EXTRACT: note_on channel=4 note=65 velocity=0 time=0
EXTRACT: note_on channel=4 note=58 velocity=0 time=0
EXTRACT: note_on channel=4 note=53 velocity=0 time=0
EXTRACT: note_on channel=5 note=70 velocity=0 time=0
EXTRACT: note_on channel=5 note=70 velocity=61 time=0
EXTRACT: note_on channel=5 note=65 velocity=64 time=0
EXTRACT: note_on channel=6 note=62 velocity=78 time=0
EXTRACT: note_on channel=4 note=53 velocity=60 time=0.011494250000000001
EXTRACT: note_on channel=4 note=62 velocity=64 time=0
EXTRACT: note_on channel=4 note=58 velocity=59 time=0
EXTRACT: note_on channel=4 note=65 velocity=59 time=0
EXTRACT: note_on channel=6 note=65 velocity=0 time=0.034482750000000006
EXTRACT: note_on channel=4 note=46 velocity=0 time=0.10919537500000001
EXTRACT: note_on channel=5 note=65 velocity=0 time=0.0057471250000000005
EXTRACT: note_on channel=5 note=70 velocity=0 time=0
EXTRACT: note_on channel=9 note=39 velocity=108 time=0
EXTRACT: note_on channel=4 note=46 velocity=55 time=0.0057471250000000005
EXTRACT: note_on channel=9 note=39 velocity=0 time=0
EXTRACT: note_on channel=4 note=58 velocity=0 time=0.0057471250000000005
EXTRACT: note_on channel=4 note=65 velocity=0 time=0
EXTRACT: note_on channel=4 note=53 velocity=0 time=0
EXTRACT: note_on channel=4 note=62 velocity=0 time=0
EXTRACT: note_on channel=5 note=70 velocity=65 time=0
EXTRACT: note_on channel=5 note=65 velocity=72 time=0
EXTRACT: note_on channel=4 note=58 velocity=67 time=0.011494250000000001
EXTRACT: note_on channel=4 note=53 velocity=63 time=0
EXTRACT: note_on channel=4 note=65 velocity=60 time=0
EXTRACT: note_on channel=4 note=62 velocity=66 time=0
EXTRACT: note_on channel=3 note=65 velocity=0 time=0.08045975000000001
EXTRACT: note_on channel=3 note=67 velocity=99 time=0
EXTRACT: note_on channel=6 note=62 velocity=0 time=0.011494250000000001
EXTRACT: note_on channel=6 note=65 velocity=76 time=0
EXTRACT: note_on channel=3 note=67 velocity=0 time=0.12068962500000001
EXTRACT: note_on channel=4 note=46 velocity=0 time=0.034482750000000006
EXTRACT: note_on channel=5 note=65 velocity=0 time=0.0057471250000000005
EXTRACT: note_on channel=5 note=70 velocity=0 time=0
EXTRACT: note_on channel=9 note=35 velocity=61 time=0
EXTRACT: note_on channel=9 note=37 velocity=59 time=0
EXTRACT: note_on channel=3 note=65 velocity=98 time=0
EXTRACT: note_on channel=4 note=46 velocity=55 time=0
EXTRACT: note_on channel=9 note=37 velocity=0 time=0
EXTRACT: note_on channel=9 note=35 velocity=0 time=0
EXTRACT: note_on channel=4 note=65 velocity=0 time=0.0057471250000000005
EXTRACT: note_on channel=4 note=62 velocity=0 time=0
EXTRACT: note_on channel=4 note=58 velocity=0 time=0
EXTRACT: note_on channel=4 note=53 velocity=0 time=0
EXTRACT: note_on channel=5 note=70 velocity=60 time=0
EXTRACT: note_on channel=5 note=65 velocity=64 time=0
EXTRACT: note_on channel=4 note=58 velocity=65 time=0.011494250000000001
EXTRACT: note_on channel=4 note=53 velocity=63 time=0
EXTRACT: note_on channel=4 note=62 velocity=65 time=0
EXTRACT: note_on channel=4 note=65 velocity=59 time=0
EXTRACT: note_on channel=3 note=65 velocity=0 time=0.09770112500000001
EXTRACT: note_on channel=4 note=46 velocity=0 time=0.045977000000000004
EXTRACT: note_on channel=5 note=65 velocity=0 time=0.0057471250000000005
EXTRACT: note_on channel=5 note=70 velocity=0 time=0
EXTRACT: note_on channel=9 note=35 velocity=67 time=0
EXTRACT: note_on channel=9 note=37 velocity=64 time=0
EXTRACT: note_on channel=3 note=65 velocity=99 time=0
EXTRACT: note_on channel=4 note=46 velocity=55 time=0
EXTRACT: note_on channel=9 note=37 velocity=0 time=0
EXTRACT: note_on channel=9 note=35 velocity=0 time=0
EXTRACT: note_on channel=4 note=62 velocity=0 time=0.0057471250000000005
EXTRACT: note_on channel=4 note=65 velocity=0 time=0
EXTRACT: note_on channel=4 note=58 velocity=0 time=0
EXTRACT: note_on channel=4 note=53 velocity=0 time=0
EXTRACT: note_on channel=5 note=65 velocity=70 time=0
EXTRACT: note_on channel=5 note=70 velocity=65 time=0
EXTRACT: note_on channel=6 note=62 velocity=83 time=0
EXTRACT: note_on channel=4 note=58 velocity=64 time=0.011494250000000001
EXTRACT: note_on channel=4 note=53 velocity=64 time=0
EXTRACT: note_on channel=4 note=62 velocity=64 time=0
EXTRACT: note_on channel=4 note=65 velocity=59 time=0
EXTRACT: note_on channel=6 note=65 velocity=0 time=0.051724125
EXTRACT: note_on channel=3 note=65 velocity=0 time=0.06321837500000001
EXTRACT: note_on channel=3 note=65 velocity=98 time=0
EXTRACT: note_on channel=3 note=65 velocity=0 time=0.1149425
EXTRACT: note_on channel=3 note=65 velocity=99 time=0
EXTRACT: note_on channel=4 note=46 velocity=0 time=0
EXTRACT: note_on channel=5 note=70 velocity=0 time=0.0057471250000000005
EXTRACT: note_on channel=5 note=65 velocity=0 time=0
EXTRACT: note_on channel=9 note=39 velocity=114 time=0
EXTRACT: note_on channel=4 note=46 velocity=55 time=0.0057471250000000005
EXTRACT: note_on channel=9 note=39 velocity=0 time=0
EXTRACT: note_on channel=4 note=62 velocity=0 time=0.0057471250000000005
EXTRACT: note_on channel=4 note=65 velocity=0 time=0
EXTRACT: note_on channel=4 note=58 velocity=0 time=0
EXTRACT: note_on channel=4 note=53 velocity=0 time=0
EXTRACT: note_on channel=6 note=65 velocity=79 time=0
EXTRACT: note_on channel=4 note=58 velocity=75 time=0.011494250000000001
EXTRACT: note_on channel=4 note=53 velocity=66 time=0
EXTRACT: note_on channel=4 note=62 velocity=69 time=0
EXTRACT: note_on channel=4 note=65 velocity=63 time=0
EXTRACT: note_on channel=5 note=70 velocity=72 time=0
EXTRACT: note_on channel=5 note=65 velocity=72 time=0
EXTRACT: note_on channel=6 note=62 velocity=0 time=0.011494250000000001
EXTRACT: note_on channel=3 note=65 velocity=0 time=0.12068962500000001
EXTRACT: note_on channel=3 note=65 velocity=99 time=0
EXTRACT: note_on channel=4 note=46 velocity=0 time=0
EXTRACT: note_on channel=9 note=35 velocity=61 time=0.0057471250000000005
EXTRACT: note_on channel=4 note=46 velocity=55 time=0.0057471250000000005
EXTRACT: note_on channel=9 note=35 velocity=0 time=0
EXTRACT: note_on channel=4 note=62 velocity=0 time=0.0057471250000000005
EXTRACT: note_on channel=4 note=65 velocity=0 time=0
EXTRACT: note_on channel=4 note=58 velocity=0 time=0
EXTRACT: note_on channel=4 note=53 velocity=0 time=0
EXTRACT: note_on channel=5 note=65 velocity=0 time=0
EXTRACT: note_on channel=5 note=70 velocity=0 time=0
EXTRACT: note_on channel=4 note=58 velocity=66 time=0.011494250000000001
EXTRACT: note_on channel=4 note=53 velocity=64 time=0
EXTRACT: note_on channel=4 note=65 velocity=59 time=0
EXTRACT: note_on channel=4 note=62 velocity=66 time=0
EXTRACT: note_on channel=5 note=65 velocity=65 time=0
EXTRACT: note_on channel=5 note=70 velocity=63 time=0
EXTRACT: note_on channel=3 note=65 velocity=0 time=0.132183875
EXTRACT: note_on channel=3 note=65 velocity=99 time=0
EXTRACT: note_on channel=4 note=46 velocity=0 time=0
EXTRACT: note_on channel=4 note=46 velocity=55 time=0.011494250000000001
EXTRACT: note_on channel=4 note=65 velocity=0 time=0.0057471250000000005
EXTRACT: note_on channel=4 note=62 velocity=0 time=0
EXTRACT: note_on channel=4 note=58 velocity=0 time=0
EXTRACT: note_on channel=4 note=53 velocity=0 time=0
EXTRACT: note_on channel=5 note=70 velocity=0 time=0
EXTRACT: note_on channel=5 note=65 velocity=0 time=0
EXTRACT: note_on channel=6 note=62 velocity=75 time=0
EXTRACT: note_on channel=4 note=53 velocity=60 time=0.011494250000000001
EXTRACT: note_on channel=4 note=58 velocity=63 time=0
EXTRACT: note_on channel=4 note=62 velocity=66 time=0
EXTRACT: note_on channel=4 note=65 velocity=58 time=0
EXTRACT: note_on channel=5 note=65 velocity=65 time=0
EXTRACT: note_on channel=5 note=70 velocity=61 time=0
EXTRACT: note_on channel=6 note=65 velocity=0 time=0.017241375000000003
EXTRACT: note_on channel=3 note=65 velocity=0 time=0.09770112500000001
EXTRACT: note_on channel=3 note=65 velocity=98 time=0
EXTRACT: note_on channel=4 note=46 velocity=0 time=0
EXTRACT: note_on channel=4 note=46 velocity=55 time=0.011494250000000001
EXTRACT: note_on channel=4 note=62 velocity=0 time=0.0057471250000000005
EXTRACT: note_on channel=4 note=65 velocity=0 time=0
EXTRACT: note_on channel=4 note=53 velocity=0 time=0
EXTRACT: note_on channel=4 note=58 velocity=0 time=0
EXTRACT: note_on channel=5 note=70 velocity=0 time=0
EXTRACT: note_on channel=5 note=65 velocity=0 time=0
EXTRACT: note_on channel=4 note=58 velocity=57 time=0.011494250000000001
EXTRACT: note_on channel=4 note=62 velocity=57 time=0
EXTRACT: note_on channel=4 note=65 velocity=57 time=0
EXTRACT: note_on channel=4 note=53 velocity=57 time=0
EXTRACT: note_on channel=5 note=65 velocity=63 time=0
EXTRACT: note_on channel=5 note=70 velocity=60 time=0
EXTRACT: note_on channel=3 note=65 velocity=0 time=0.1149425
EXTRACT: note_on channel=3 note=65 velocity=97 time=0
EXTRACT: note_on channel=4 note=46 velocity=0 time=0
EXTRACT: note_on channel=6 note=62 velocity=0 time=0
EXTRACT: note_on channel=6 note=65 velocity=62 time=0.0057471250000000005
EXTRACT: note_on channel=4 note=45 velocity=55 time=0.0057471250000000005
EXTRACT: note_on channel=4 note=65 velocity=0 time=0.0057471250000000005
EXTRACT: note_on channel=4 note=53 velocity=0 time=0
EXTRACT: note_on channel=4 note=58 velocity=0 time=0
EXTRACT: note_on channel=4 note=62 velocity=0 time=0
EXTRACT: note_on channel=5 note=70 velocity=0 time=0
EXTRACT: note_on channel=5 note=65 velocity=0 time=0
EXTRACT: note_on channel=4 note=60 velocity=33 time=0.011494250000000001
EXTRACT: note_on channel=4 note=57 velocity=69 time=0
EXTRACT: note_on channel=4 note=65 velocity=33 time=0
EXTRACT: note_on channel=5 note=65 velocity=33 time=0
EXTRACT: note_on channel=5 note=70 velocity=45 time=0
EXTRACT: note_on channel=3 note=65 velocity=0 time=0.132183875
EXTRACT: note_on channel=3 note=65 velocity=98 time=0
EXTRACT: note_on channel=3 note=65 velocity=0 time=0.16091950000000002
EXTRACT: note_on channel=3 note=62 velocity=97 time=0
EXTRACT: note_on channel=4 note=45 velocity=0 time=0
EXTRACT: note_on channel=4 note=45 velocity=55 time=0.011494250000000001
EXTRACT: note_on channel=4 note=60 velocity=0 time=0.0057471250000000005
EXTRACT: note_on channel=4 note=65 velocity=0 time=0
EXTRACT: note_on channel=4 note=57 velocity=0 time=0
EXTRACT: note_on channel=5 note=70 velocity=0 time=0
EXTRACT: note_on channel=5 note=65 velocity=0 time=0
EXTRACT: note_on channel=6 note=60 velocity=56 time=0
EXTRACT: note_on channel=4 note=57 velocity=59 time=0.011494250000000001
EXTRACT: note_on channel=4 note=60 velocity=39 time=0
EXTRACT: note_on channel=4 note=65 velocity=39 time=0
EXTRACT: note_on channel=5 note=70 velocity=45 time=0
EXTRACT: note_on channel=5 note=65 velocity=39 time=0
EXTRACT: note_on channel=3 note=62 velocity=0 time=0.132183875
EXTRACT: note_on channel=3 note=62 velocity=98 time=0
EXTRACT: note_on channel=3 note=62 velocity=0 time=0.16091950000000002
EXTRACT: note_on channel=6 note=65 velocity=0 time=0
EXTRACT: note_on channel=4 note=45 velocity=0 time=0.011494250000000001
EXTRACT: note_on channel=3 note=62 velocity=97 time=0
EXTRACT: note_on channel=4 note=45 velocity=55 time=0
EXTRACT: note_on channel=4 note=57 velocity=0 time=0.0057471250000000005
EXTRACT: note_on channel=4 note=65 velocity=0 time=0
EXTRACT: note_on channel=4 note=60 velocity=0 time=0
EXTRACT: note_on channel=5 note=65 velocity=0 time=0
EXTRACT: note_on channel=5 note=70 velocity=0 time=0
EXTRACT: note_on channel=6 note=65 velocity=64 time=0
EXTRACT: note_on channel=4 note=60 velocity=45 time=0.011494250000000001
EXTRACT: note_on channel=4 note=65 velocity=45 time=0
EXTRACT: note_on channel=4 note=57 velocity=75 time=0
EXTRACT: note_on channel=5 note=70 velocity=45 time=0
EXTRACT: note_on channel=5 note=65 velocity=45 time=0
EXTRACT: note_on channel=3 note=62 velocity=0 time=0.14367812500000002
EXTRACT: note_on channel=9 note=28 velocity=68 time=0.0057471250000000005
EXTRACT: note_on channel=3 note=62 velocity=97 time=0
EXTRACT: note_on channel=9 note=28 velocity=0 time=0
EXTRACT: note_on channel=6 note=60 velocity=0 time=0.1149425
EXTRACT: note_on channel=3 note=62 velocity=0 time=0.045977000000000004
EXTRACT: note_on channel=4 note=45 velocity=0 time=0
EXTRACT: note_on channel=3 note=62 velocity=97 time=0
EXTRACT: note_on channel=4 note=45 velocity=55 time=0
EXTRACT: note_on channel=4 note=60 velocity=0 time=0.0057471250000000005
EXTRACT: note_on channel=4 note=57 velocity=0 time=0
EXTRACT: note_on channel=4 note=65 velocity=0 time=0
EXTRACT: note_on channel=5 note=65 velocity=0 time=0
EXTRACT: note_on channel=5 note=70 velocity=0 time=0
EXTRACT: note_on channel=6 note=60 velocity=55 time=0
EXTRACT: note_on channel=4 note=57 velocity=60 time=0.011494250000000001
EXTRACT: note_on channel=4 note=65 velocity=51 time=0
EXTRACT: note_on channel=4 note=60 velocity=51 time=0
EXTRACT: note_on channel=5 note=65 velocity=51 time=0
EXTRACT: note_on channel=5 note=70 velocity=45 time=0
EXTRACT: note_on channel=3 note=62 velocity=0 time=0.14367812500000002
EXTRACT: note_on channel=3 note=62 velocity=97 time=0
EXTRACT: note_on channel=4 note=45 velocity=0 time=0
EXTRACT: note_on channel=4 note=45 velocity=55 time=0.011494250000000001
EXTRACT: note_on channel=4 note=57 velocity=0 time=0.0057471250000000005
EXTRACT: note_on channel=4 note=60 velocity=0 time=0
EXTRACT: note_on channel=4 note=65 velocity=0 time=0
EXTRACT: note_on channel=5 note=70 velocity=0 time=0
EXTRACT: note_on channel=5 note=65 velocity=0 time=0
EXTRACT: note_on channel=4 note=60 velocity=55 time=0.011494250000000001
EXTRACT: note_on channel=4 note=57 velocity=74 time=0
EXTRACT: note_on channel=4 note=65 velocity=55 time=0
EXTRACT: note_on channel=5 note=65 velocity=55 time=0
EXTRACT: note_on channel=5 note=70 velocity=45 time=0
EXTRACT: note_on channel=6 note=65 velocity=0 time=0.09195400000000001
EXTRACT: note_on channel=3 note=62 velocity=0 time=0.040229875000000005
EXTRACT: note_on channel=4 note=45 velocity=0 time=0.011494250000000001
EXTRACT: note_on channel=3 note=65 velocity=106 time=0
EXTRACT: note_on channel=4 note=60 velocity=0 time=0.0057471250000000005
EXTRACT: note_on channel=4 note=57 velocity=0 time=0
EXTRACT: note_on channel=6 note=65 velocity=62 time=0
EXTRACT: note_on channel=4 note=65 velocity=0 time=0.17241375
EXTRACT: note_on channel=5 note=70 velocity=0 time=0
EXTRACT: note_on channel=5 note=65 velocity=0 time=0
EXTRACT: note_on channel=3 note=65 velocity=0 time=0.12068962500000001
EXTRACT: note_on channel=6 note=60 velocity=0 time=0
EXTRACT: note_on channel=3 note=62 velocity=97 time=0
EXTRACT: note_on channel=6 note=60 velocity=53 time=0.0057471250000000005
EXTRACT: note_on channel=3 note=62 velocity=0 time=0.155172375
EXTRACT: note_on channel=3 note=62 velocity=97 time=0
EXTRACT: note_on channel=6 note=65 velocity=0 time=0.13793100000000003
EXTRACT: note_on channel=3 note=62 velocity=0 time=0.022988500000000002
EXTRACT: note_on channel=3 note=65 velocity=106 time=0
EXTRACT: note_on channel=6 note=65 velocity=64 time=0.0057471250000000005
EXTRACT: note_on channel=3 note=65 velocity=0 time=0.13793100000000003
EXTRACT: note_on channel=3 note=65 velocity=106 time=0
EXTRACT: note_on channel=6 note=60 velocity=0 time=0.12643675000000001
EXTRACT: note_on channel=3 note=65 velocity=0 time=0.017241375000000003
EXTRACT: note_on channel=3 note=62 velocity=97 time=0
EXTRACT: note_on channel=6 note=60 velocity=58 time=0.0057471250000000005
EXTRACT: note_on channel=3 note=62 velocity=0 time=0.155172375
EXTRACT: note_on channel=3 note=62 velocity=97 time=0
EXTRACT: note_on channel=6 note=60 velocity=0 time=0.14367812500000002
EXTRACT: note_on channel=6 note=65 velocity=0 time=0
EXTRACT: note_on channel=3 note=62 velocity=0 time=0.017241375000000003
EXTRACT: note_on channel=6 note=67 velocity=62 time=0
EXTRACT: note_on channel=9 note=84 velocity=85 time=0.0057471250000000005
EXTRACT: note_on channel=3 note=65 velocity=97 time=0
EXTRACT: note_on channel=9 note=84 velocity=0 time=0
EXTRACT: note_on channel=3 note=65 velocity=0 time=0.16091950000000002
EXTRACT: note_on channel=3 note=65 velocity=97 time=0
EXTRACT: note_on channel=3 note=65 velocity=0 time=0.16091950000000002
EXTRACT: note_on channel=3 note=62 velocity=97 time=0
EXTRACT: note_on channel=6 note=62 velocity=56 time=0
EXTRACT: note_on channel=3 note=62 velocity=0 time=0.16091950000000002
EXTRACT: note_on channel=3 note=65 velocity=97 time=0
EXTRACT: note_on channel=6 note=67 velocity=0 time=0.14367812500000002
EXTRACT: note_on channel=3 note=65 velocity=0 time=0.017241375000000003
EXTRACT: note_on channel=9 note=39 velocity=111 time=0.0057471250000000005
EXTRACT: note_on channel=9 note=84 velocity=84 time=0
EXTRACT: note_on channel=3 note=62 velocity=97 time=0
EXTRACT: note_on channel=6 note=67 velocity=64 time=0
EXTRACT: note_on channel=9 note=84 velocity=0 time=0
EXTRACT: note_on channel=9 note=39 velocity=0 time=0
EXTRACT: note_on channel=3 note=62 velocity=0 time=0.293103375
EXTRACT: note_on channel=3 note=62 velocity=97 time=0
EXTRACT: note_on channel=6 note=65 velocity=55 time=0.011494250000000001
EXTRACT: note_on channel=3 note=62 velocity=0 time=0.14942525
EXTRACT: note_on channel=9 note=39 velocity=108 time=0.017241375000000003
EXTRACT: note_on channel=9 note=39 velocity=0 time=0.0057471250000000005
EXTRACT: note_on channel=6 note=67 velocity=0 time=0.10344825
EXTRACT: note_on channel=3 note=62 velocity=97 time=0
EXTRACT: note_on channel=7 note=55 velocity=59 time=0
EXTRACT: note_on channel=9 note=84 velocity=81 time=0.0057471250000000005
EXTRACT: note_on channel=6 note=67 velocity=62 time=0.0057471250000000005
EXTRACT: note_on channel=9 note=84 velocity=0 time=0
EXTRACT: note_on channel=3 note=62 velocity=0 time=0.281609125
EXTRACT: note_on channel=6 note=62 velocity=0 time=0.011494250000000001
EXTRACT: note_on channel=1 note=55 velocity=93 time=0.040229875000000005
EXTRACT: note_on channel=3 note=67 velocity=102 time=0
EXTRACT: note_on channel=6 note=62 velocity=53 time=0.0057471250000000005
EXTRACT: note_on channel=1 note=55 velocity=0 time=0.22413787500000001
EXTRACT: pitchwheel channel=7 pitch=-128 time=0.011494250000000001
EXTRACT: pitchwheel channel=7 pitch=-256 time=0.034482750000000006
EXTRACT: pitchwheel channel=7 pitch=-384 time=0.028735625
EXTRACT: note_on channel=6 note=67 velocity=0 time=0.0057471250000000005
EXTRACT: note_on channel=3 note=67 velocity=0 time=0.0057471250000000005
EXTRACT: pitchwheel channel=7 pitch=-512 time=0.017241375000000003
EXTRACT: note_on channel=3 note=67 velocity=102 time=0
EXTRACT: note_on channel=1 note=55 velocity=93 time=0
EXTRACT: note_on channel=6 note=67 velocity=64 time=0.011494250000000001
EXTRACT: note_on channel=6 note=65 velocity=0 time=0.0057471250000000005
EXTRACT: pitchwheel channel=7 pitch=-640 time=0.0057471250000000005
EXTRACT: pitchwheel channel=7 pitch=-768 time=0.034482750000000006
EXTRACT: pitchwheel channel=7 pitch=-896 time=0.022988500000000002
EXTRACT: pitchwheel channel=7 pitch=-1024 time=0.022988500000000002
EXTRACT: pitchwheel channel=7 pitch=-1152 time=0.022988500000000002
EXTRACT: pitchwheel channel=7 pitch=-1280 time=0.022988500000000002
EXTRACT: pitchwheel channel=7 pitch=-1408 time=0.022988500000000002
EXTRACT: pitchwheel channel=7 pitch=-1536 time=0.022988500000000002
EXTRACT: pitchwheel channel=7 pitch=-1664 time=0.028735625
EXTRACT: pitchwheel channel=7 pitch=-1792 time=0.022988500000000002
EXTRACT: pitchwheel channel=7 pitch=-1920 time=0.022988500000000002
EXTRACT: pitchwheel channel=7 pitch=-2048 time=0.034482750000000006
EXTRACT: note_on channel=3 note=67 velocity=0 time=0.011494250000000001
EXTRACT: note_on channel=1 note=55 velocity=0 time=0.017241375000000003
EXTRACT: pitchwheel channel=7 pitch=-2176 time=0
EXTRACT: note_on channel=3 note=65 velocity=102 time=0
EXTRACT: note_on channel=1 note=53 velocity=93 time=0
EXTRACT: note_on channel=6 note=65 velocity=58 time=0.011494250000000001
EXTRACT: pitchwheel channel=7 pitch=-2304 time=0
EXTRACT: pitchwheel channel=7 pitch=-2432 time=0.017241375000000003
EXTRACT: pitchwheel channel=7 pitch=-2560 time=0.017241375000000003
EXTRACT: pitchwheel channel=7 pitch=-2688 time=0.011494250000000001
EXTRACT: pitchwheel channel=7 pitch=-2816 time=0.017241375000000003
EXTRACT: pitchwheel channel=7 pitch=-3072 time=0.017241375000000003
EXTRACT: pitchwheel channel=7 pitch=-3200 time=0.022988500000000002
EXTRACT: pitchwheel channel=7 pitch=-3328 time=0.011494250000000001
EXTRACT: pitchwheel channel=7 pitch=-3456 time=0.011494250000000001
EXTRACT: pitchwheel channel=7 pitch=-3584 time=0.0057471250000000005
EXTRACT: pitchwheel channel=7 pitch=-3712 time=0.011494250000000001
EXTRACT: pitchwheel channel=7 pitch=-3840 time=0.0057471250000000005
EXTRACT: pitchwheel channel=7 pitch=-3968 time=0.011494250000000001
EXTRACT: pitchwheel channel=7 pitch=-4096 time=0.0057471250000000005
EXTRACT: pitchwheel channel=7 pitch=-4224 time=0.0057471250000000005
EXTRACT: pitchwheel channel=7 pitch=-4352 time=0.0057471250000000005
EXTRACT: pitchwheel channel=7 pitch=-4480 time=0.0057471250000000005
EXTRACT: pitchwheel channel=7 pitch=-4608 time=0.0057471250000000005
EXTRACT: pitchwheel channel=7 pitch=-4736 time=0.011494250000000001
EXTRACT: note_on channel=7 note=55 velocity=0 time=0.017241375000000003
EXTRACT: pitchwheel channel=7 pitch=-4864 time=0
EXTRACT: pitchwheel channel=7 pitch=-4736 time=0.022988500000000002
EXTRACT: pitchwheel channel=7 pitch=-4608 time=0.0057471250000000005
EXTRACT: pitchwheel channel=7 pitch=-4480 time=0.0057471250000000005
EXTRACT: pitchwheel channel=7 pitch=-3584 time=0.0057471250000000005
EXTRACT: pitchwheel channel=7 pitch=-2816 time=0.0057471250000000005
EXTRACT: note_on channel=6 note=62 velocity=0 time=0.0057471250000000005
EXTRACT: pitchwheel channel=7 pitch=-1536 time=0
EXTRACT: pitchwheel channel=7 pitch=0 time=0.0057471250000000005
EXTRACT: note_on channel=1 note=53 velocity=0 time=0.017241375000000003
EXTRACT: note_on channel=6 note=67 velocity=0 time=0.0057471250000000005
EXTRACT: note_on channel=3 note=65 velocity=0 time=0.0057471250000000005
EXTRACT: note_on channel=3 note=74 velocity=106 time=0
EXTRACT: note_on channel=1 note=67 velocity=93 time=0
EXTRACT: note_on channel=2 note=31 velocity=96 time=0
EXTRACT: note_on channel=0 note=62 velocity=75 time=0
EXTRACT: note_on channel=0 note=55 velocity=74 time=0
EXTRACT: note_on channel=0 note=43 velocity=64 time=0
EXTRACT: note_on channel=0 note=67 velocity=69 time=0
EXTRACT: note_on channel=4 note=43 velocity=55 time=0
EXTRACT: note_on channel=5 note=62 velocity=65 time=0
EXTRACT: note_on channel=6 note=65 velocity=0 time=0
EXTRACT: note_on channel=6 note=67 velocity=62 time=0
EXTRACT: note_on channel=8 note=70 velocity=59 time=0
EXTRACT: note_on channel=8 note=79 velocity=61 time=0
EXTRACT: note_on channel=8 note=74 velocity=74 time=0
EXTRACT: note_on channel=10 note=67 velocity=85 time=0
EXTRACT: note_on channel=9 note=36 velocity=114 time=0
EXTRACT: note_on channel=9 note=41 velocity=110 time=0
EXTRACT: note_on channel=9 note=49 velocity=90 time=0
EXTRACT: note_on channel=5 note=67 velocity=74 time=0.0057471250000000005
EXTRACT: note_on channel=5 note=70 velocity=65 time=0
EXTRACT: note_on channel=10 note=79 velocity=77 time=0
EXTRACT: note_on channel=9 note=49 velocity=0 time=0
EXTRACT: note_on channel=9 note=41 velocity=0 time=0
EXTRACT: note_on channel=9 note=36 velocity=0 time=0
EXTRACT: note_on channel=4 note=58 velocity=68 time=0.0057471250000000005
EXTRACT: note_on channel=4 note=62 velocity=68 time=0
EXTRACT: note_on channel=4 note=67 velocity=63 time=0
EXTRACT: note_on channel=4 note=55 velocity=62 time=0
EXTRACT: note_on channel=4 note=43 velocity=0 time=0.32183900000000004
EXTRACT: note_on channel=5 note=62 velocity=0 time=0
EXTRACT: note_on channel=5 note=70 velocity=0 time=0.0057471250000000005
EXTRACT: note_on channel=5 note=67 velocity=0 time=0
EXTRACT: note_on channel=0 note=50 velocity=72 time=0.0057471250000000005
EXTRACT: note_on channel=4 note=67 velocity=0 time=0
EXTRACT: note_on channel=4 note=58 velocity=0 time=0
EXTRACT: note_on channel=4 note=62 velocity=0 time=0
EXTRACT: note_on channel=4 note=55 velocity=0 time=0
EXTRACT: note_on channel=4 note=43 velocity=55 time=0
EXTRACT: note_on channel=9 note=35 velocity=68 time=0
EXTRACT: note_on channel=9 note=38 velocity=68 time=0
EXTRACT: note_on channel=9 note=42 velocity=54 time=0
EXTRACT: note_on channel=9 note=42 velocity=0 time=0.0057471250000000005
EXTRACT: note_on channel=9 note=38 velocity=0 time=0
EXTRACT: note_on channel=9 note=35 velocity=0 time=0
EXTRACT: note_on channel=4 note=58 velocity=62 time=0.0057471250000000005
EXTRACT: note_on channel=4 note=55 velocity=59 time=0
EXTRACT: note_on channel=4 note=67 velocity=58 time=0
EXTRACT: note_on channel=4 note=62 velocity=64 time=0
EXTRACT: note_on channel=5 note=67 velocity=59 time=0
EXTRACT: note_on channel=5 note=62 velocity=58 time=0
EXTRACT: note_on channel=5 note=70 velocity=58 time=0
EXTRACT: note_on channel=6 note=62 velocity=56 time=0
EXTRACT: note_on channel=9 note=35 velocity=63 time=0.16091950000000002
EXTRACT: note_on channel=9 note=35 velocity=0 time=0.0057471250000000005
EXTRACT: note_on channel=3 note=74 velocity=0 time=0.05747125
EXTRACT: note_on channel=1 note=67 velocity=0 time=0
EXTRACT: note_on channel=0 note=55 velocity=0 time=0.051724125
EXTRACT: note_on channel=6 note=67 velocity=0 time=0.040229875000000005
EXTRACT: note_on channel=4 note=43 velocity=0 time=0.0057471250000000005
EXTRACT: note_on channel=3 note=67 velocity=102 time=0
EXTRACT: note_on channel=0 note=55 velocity=72 time=0
EXTRACT: note_on channel=4 note=67 velocity=0 time=0
EXTRACT: note_on channel=4 note=58 velocity=0 time=0
EXTRACT: note_on channel=4 note=55 velocity=0 time=0
EXTRACT: note_on channel=4 note=62 velocity=0 time=0
EXTRACT: note_on channel=4 note=43 velocity=55 time=0
EXTRACT: note_on channel=5 note=70 velocity=0 time=0
EXTRACT: note_on channel=5 note=62 velocity=0 time=0
EXTRACT: note_on channel=5 note=67 velocity=0 time=0
EXTRACT: note_on channel=9 note=40 velocity=77 time=0
EXTRACT: note_on channel=9 note=39 velocity=110 time=0
EXTRACT: note_on channel=9 note=42 velocity=64 time=0
EXTRACT: note_on channel=9 note=42 velocity=0 time=0.0057471250000000005
EXTRACT: note_on channel=9 note=39 velocity=0 time=0
EXTRACT: note_on channel=9 note=40 velocity=0 time=0
EXTRACT: note_on channel=4 note=58 velocity=67 time=0.0057471250000000005
EXTRACT: note_on channel=4 note=55 velocity=65 time=0
EXTRACT: note_on channel=4 note=62 velocity=69 time=0
EXTRACT: note_on channel=4 note=67 velocity=61 time=0
EXTRACT: note_on channel=5 note=62 velocity=63 time=0
EXTRACT: note_on channel=5 note=67 velocity=70 time=0
EXTRACT: note_on channel=5 note=70 velocity=63 time=0
EXTRACT: note_on channel=6 note=67 velocity=64 time=0
EXTRACT: note_on channel=9 note=37 velocity=57 time=0.16091950000000002
EXTRACT: note_on channel=9 note=37 velocity=0 time=0.0057471250000000005
EXTRACT: note_on channel=3 note=67 velocity=0 time=0.13793100000000003
EXTRACT: note_on channel=4 note=43 velocity=0 time=0.017241375000000003
EXTRACT: note_on channel=3 note=65 velocity=101 time=0
EXTRACT: note_on channel=0 note=58 velocity=79 time=0
EXTRACT: note_on channel=4 note=62 velocity=0 time=0
EXTRACT: note_on channel=4 note=58 velocity=0 time=0
EXTRACT: note_on channel=4 note=55 velocity=0 time=0
EXTRACT: note_on channel=4 note=67 velocity=0 time=0
EXTRACT: note_on channel=4 note=43 velocity=55 time=0
EXTRACT: note_on channel=5 note=70 velocity=0 time=0
EXTRACT: note_on channel=5 note=67 velocity=0 time=0
EXTRACT: note_on channel=5 note=62 velocity=0 time=0
EXTRACT: note_on channel=9 note=40 velocity=65 time=0
EXTRACT: note_on channel=9 note=42 velocity=51 time=0
EXTRACT: note_on channel=9 note=42 velocity=0 time=0.0057471250000000005
EXTRACT: note_on channel=9 note=40 velocity=0 time=0
EXTRACT: note_on channel=4 note=58 velocity=60 time=0.0057471250000000005
EXTRACT: note_on channel=4 note=62 velocity=63 time=0
EXTRACT: note_on channel=4 note=55 velocity=58 time=0
EXTRACT: note_on channel=4 note=67 velocity=54 time=0
EXTRACT: note_on channel=5 note=67 velocity=59 time=0
EXTRACT: note_on channel=5 note=62 velocity=58 time=0
EXTRACT: note_on channel=5 note=70 velocity=57 time=0
EXTRACT: note_on channel=6 note=65 velocity=55 time=0
EXTRACT: note_on channel=4 note=43 velocity=0 time=0.14942525
EXTRACT: note_on channel=4 note=55 velocity=0 time=0.011494250000000001
EXTRACT: note_on channel=4 note=58 velocity=0 time=0
EXTRACT: note_on channel=4 note=62 velocity=0 time=0
EXTRACT: note_on channel=4 note=67 velocity=0 time=0
EXTRACT: note_on channel=4 note=43 velocity=55 time=0
EXTRACT: note_on channel=5 note=70 velocity=0 time=0
EXTRACT: note_on channel=5 note=62 velocity=0 time=0
EXTRACT: note_on channel=5 note=67 velocity=0 time=0
EXTRACT: note_on channel=9 note=39 velocity=110 time=0
EXTRACT: note_on channel=9 note=39 velocity=0 time=0.0057471250000000005
EXTRACT: note_on channel=4 note=58 velocity=71 time=0.0057471250000000005
EXTRACT: note_on channel=4 note=55 velocity=63 time=0
EXTRACT: note_on channel=4 note=62 velocity=71 time=0
EXTRACT: note_on channel=4 note=67 velocity=63 time=0
EXTRACT: note_on channel=5 note=62 velocity=63 time=0
EXTRACT: note_on channel=5 note=67 velocity=69 time=0
EXTRACT: note_on channel=5 note=70 velocity=63 time=0
EXTRACT: note_on channel=0 note=62 velocity=0 time=0.10344825
EXTRACT: note_on channel=6 note=67 velocity=0 time=0
EXTRACT: note_on channel=10 note=79 velocity=0 time=0
EXTRACT: note_on channel=10 note=67 velocity=0 time=0.0057471250000000005
EXTRACT: note_on channel=0 note=55 velocity=0 time=0.011494250000000001
EXTRACT: note_on channel=0 note=58 velocity=0 time=0
EXTRACT: note_on channel=3 note=65 velocity=0 time=0.0057471250000000005
EXTRACT: note_on channel=0 note=50 velocity=0 time=0.0057471250000000005
EXTRACT: note_on channel=0 note=67 velocity=0 time=0.017241375000000003
EXTRACT: note_on channel=3 note=74 velocity=104 time=0
EXTRACT: note_on channel=1 note=67 velocity=93 time=0
EXTRACT: note_on channel=0 note=62 velocity=81 time=0
EXTRACT: note_on channel=0 note=67 velocity=81 time=0
EXTRACT: note_on channel=0 note=55 velocity=81 time=0
EXTRACT: note_on channel=9 note=42 velocity=64 time=0
EXTRACT: note_on channel=9 note=42 velocity=0 time=0.0057471250000000005
EXTRACT: note_on channel=0 note=43 velocity=0 time=0.0057471250000000005
EXTRACT: note_on channel=6 note=67 velocity=62 time=0
EXTRACT: note_on channel=4 note=43 velocity=0 time=0.14942525
EXTRACT: note_on channel=4 note=62 velocity=0 time=0.011494250000000001
EXTRACT: note_on channel=4 note=58 velocity=0 time=0
EXTRACT: note_on channel=4 note=55 velocity=0 time=0
EXTRACT: note_on channel=4 note=67 velocity=0 time=0
EXTRACT: note_on channel=4 note=43 velocity=55 time=0
EXTRACT: note_on channel=5 note=70 velocity=0 time=0
EXTRACT: note_on channel=5 note=67 velocity=0 time=0
EXTRACT: note_on channel=5 note=62 velocity=0 time=0
EXTRACT: note_on channel=9 note=35 velocity=62 time=0
EXTRACT: note_on channel=9 note=37 velocity=59 time=0
EXTRACT: note_on channel=9 note=37 velocity=0 time=0.0057471250000000005
EXTRACT: note_on channel=9 note=35 velocity=0 time=0
EXTRACT: note_on channel=4 note=58 velocity=63 time=0.0057471250000000005
EXTRACT: note_on channel=4 note=62 velocity=64 time=0
EXTRACT: note_on channel=4 note=55 velocity=60 time=0
EXTRACT: note_on channel=4 note=67 velocity=58 time=0
EXTRACT: note_on channel=5 note=62 velocity=57 time=0
EXTRACT: note_on channel=5 note=67 velocity=59 time=0
EXTRACT: note_on channel=5 note=70 velocity=58 time=0
EXTRACT: note_on channel=6 note=62 velocity=0 time=0.12068962500000001
EXTRACT: note_on channel=4 note=43 velocity=0 time=0.028735625
EXTRACT: note_on channel=0 note=43 velocity=64 time=0.011494250000000001
EXTRACT: note_on channel=4 note=55 velocity=0 time=0
EXTRACT: note_on channel=4 note=58 velocity=0 time=0
EXTRACT: note_on channel=4 note=62 velocity=0 time=0
EXTRACT: note_on channel=4 note=67 velocity=0 time=0
EXTRACT: note_on channel=4 note=43 velocity=55 time=0
EXTRACT: note_on channel=5 note=70 velocity=0 time=0
EXTRACT: note_on channel=5 note=67 velocity=0 time=0
EXTRACT: note_on channel=5 note=62 velocity=0 time=0
EXTRACT: note_on channel=9 note=35 velocity=65 time=0
EXTRACT: note_on channel=9 note=37 velocity=63 time=0
EXTRACT: note_on channel=9 note=42 velocity=52 time=0
EXTRACT: note_on channel=9 note=42 velocity=0 time=0.0057471250000000005
EXTRACT: note_on channel=9 note=37 velocity=0 time=0
EXTRACT: note_on channel=9 note=35 velocity=0 time=0
EXTRACT: note_on channel=4 note=58 velocity=65 time=0.0057471250000000005
EXTRACT: note_on channel=4 note=55 velocity=58 time=0
EXTRACT: note_on channel=4 note=62 velocity=71 time=0
EXTRACT: note_on channel=4 note=67 velocity=60 time=0
EXTRACT: note_on channel=5 note=62 velocity=59 time=0
EXTRACT: note_on channel=5 note=67 velocity=67 time=0
EXTRACT: note_on channel=5 note=70 velocity=65 time=0
EXTRACT: note_on channel=6 note=62 velocity=53 time=0
EXTRACT: note_on channel=3 note=74 velocity=0 time=0.086206875
EXTRACT: note_on channel=1 note=67 velocity=0 time=0
EXTRACT: note_on channel=3 note=67 velocity=100 time=0
EXTRACT: note_on channel=6 note=67 velocity=0 time=0.14367812500000002
EXTRACT: note_on channel=4 note=43 velocity=0 time=0.017241375000000003
EXTRACT: note_on channel=0 note=50 velocity=75 time=0.011494250000000001
EXTRACT: note_on channel=4 note=62 velocity=0 time=0
EXTRACT: note_on channel=4 note=58 velocity=0 time=0
EXTRACT: note_on channel=4 note=55 velocity=0 time=0
EXTRACT: note_on channel=4 note=67 velocity=0 time=0
EXTRACT: note_on channel=4 note=43 velocity=55 time=0
EXTRACT: note_on channel=5 note=70 velocity=0 time=0
EXTRACT: note_on channel=5 note=67 velocity=0 time=0
EXTRACT: note_on channel=5 note=62 velocity=0 time=0
EXTRACT: note_on channel=9 note=40 velocity=75 time=0
EXTRACT: note_on channel=9 note=39 velocity=109 time=0
EXTRACT: note_on channel=9 note=42 velocity=62 time=0
EXTRACT: note_on channel=9 note=42 velocity=0 time=0.0057471250000000005
EXTRACT: note_on channel=9 note=39 velocity=0 time=0
EXTRACT: note_on channel=9 note=40 velocity=0 time=0
EXTRACT: note_on channel=4 note=58 velocity=70 time=0.0057471250000000005
EXTRACT: note_on channel=4 note=55 velocity=63 time=0
EXTRACT: note_on channel=4 note=62 velocity=69 time=0
EXTRACT: note_on channel=4 note=67 velocity=63 time=0
EXTRACT: note_on channel=5 note=67 velocity=69 time=0
EXTRACT: note_on channel=5 note=62 velocity=65 time=0
EXTRACT: note_on channel=5 note=70 velocity=66 time=0
EXTRACT: note_on channel=6 note=67 velocity=64 time=0
EXTRACT: note_on channel=6 note=65 velocity=0 time=0.0057471250000000005
EXTRACT: note_on channel=4 note=43 velocity=0 time=0.14367812500000002
EXTRACT: note_on channel=4 note=62 velocity=0 time=0.011494250000000001
EXTRACT: note_on channel=4 note=58 velocity=0 time=0
EXTRACT: note_on channel=4 note=55 velocity=0 time=0
EXTRACT: note_on channel=4 note=67 velocity=0 time=0
EXTRACT: note_on channel=4 note=43 velocity=55 time=0
EXTRACT: note_on channel=5 note=70 velocity=0 time=0
EXTRACT: note_on channel=5 note=62 velocity=0 time=0
EXTRACT: note_on channel=5 note=67 velocity=0 time=0
EXTRACT: note_on channel=9 note=35 velocity=62 time=0
EXTRACT: note_on channel=9 note=35 velocity=0 time=0.0057471250000000005
EXTRACT: note_on channel=4 note=58 velocity=65 time=0.0057471250000000005
EXTRACT: note_on channel=4 note=62 velocity=67 time=0
EXTRACT: note_on channel=4 note=55 velocity=57 time=0
EXTRACT: note_on channel=4 note=67 velocity=58 time=0
EXTRACT: note_on channel=5 note=62 velocity=48 time=0
EXTRACT: note_on channel=5 note=67 velocity=66 time=0
EXTRACT: note_on channel=5 note=70 velocity=63 time=0
EXTRACT: note_on channel=0 note=55 velocity=0 time=0.086206875
EXTRACT: note_on channel=3 note=67 velocity=0 time=0.0057471250000000005
EXTRACT: note_on channel=4 note=43 velocity=0 time=0.05747125
EXTRACT: note_on channel=3 note=65 velocity=106 time=0
EXTRACT: note_on channel=0 note=55 velocity=78 time=0
EXTRACT: note_on channel=4 note=55 velocity=0 time=0
EXTRACT: note_on channel=4 note=58 velocity=0 time=0
EXTRACT: note_on channel=4 note=62 velocity=0 time=0
EXTRACT: note_on channel=4 note=67 velocity=0 time=0
EXTRACT: note_on channel=4 note=43 velocity=55 time=0
EXTRACT: note_on channel=5 note=70 velocity=0 time=0
EXTRACT: note_on channel=5 note=67 velocity=0 time=0
EXTRACT: note_on channel=5 note=62 velocity=0 time=0
EXTRACT: note_on channel=9 note=40 velocity=66 time=0
EXTRACT: note_on channel=9 note=42 velocity=52 time=0
EXTRACT: note_on channel=9 note=28 velocity=52 time=0
EXTRACT: note_on channel=9 note=28 velocity=0 time=0.0057471250000000005
EXTRACT: note_on channel=9 note=42 velocity=0 time=0
EXTRACT: note_on channel=9 note=40 velocity=0 time=0
EXTRACT: note_on channel=4 note=58 velocity=68 time=0.0057471250000000005
EXTRACT: note_on channel=4 note=55 velocity=63 time=0
EXTRACT: note_on channel=4 note=62 velocity=69 time=0
EXTRACT: note_on channel=4 note=67 velocity=61 time=0
EXTRACT: note_on channel=5 note=62 velocity=55 time=0
EXTRACT: note_on channel=5 note=67 velocity=67 time=0
EXTRACT: note_on channel=5 note=70 velocity=63 time=0
EXTRACT: note_on channel=6 note=65 velocity=58 time=0
EXTRACT: note_on channel=4 note=43 velocity=0 time=0.14942525
EXTRACT: note_on channel=4 note=62 velocity=0 time=0.011494250000000001
EXTRACT: note_on channel=4 note=58 velocity=0 time=0
EXTRACT: note_on channel=4 note=55 velocity=0 time=0
EXTRACT: note_on channel=4 note=67 velocity=0 time=0
EXTRACT: note_on channel=4 note=43 velocity=55 time=0
EXTRACT: note_on channel=5 note=70 velocity=0 time=0
EXTRACT: note_on channel=5 note=67 velocity=0 time=0
EXTRACT: note_on channel=5 note=62 velocity=0 time=0
EXTRACT: note_on channel=4 note=58 velocity=59 time=0.011494250000000001
EXTRACT: note_on channel=4 note=67 velocity=59 time=0
EXTRACT: note_on channel=4 note=55 velocity=59 time=0
EXTRACT: note_on channel=4 note=62 velocity=59 time=0
EXTRACT: note_on channel=5 note=62 velocity=63 time=0
EXTRACT: note_on channel=5 note=67 velocity=63 time=0
EXTRACT: note_on channel=5 note=70 velocity=63 time=0
EXTRACT: note_on channel=6 note=62 velocity=0 time=0.09770112500000001
EXTRACT: note_on channel=8 note=70 velocity=0 time=0
EXTRACT: note_on channel=2 note=31 velocity=0 time=0.011494250000000001
EXTRACT: note_on channel=8 note=79 velocity=0 time=0
EXTRACT: note_on channel=6 note=67 velocity=0 time=0.028735625
EXTRACT: note_on channel=8 note=74 velocity=0 time=0
EXTRACT: note_on channel=0 note=55 velocity=0 time=0.0057471250000000005
EXTRACT: note_on channel=0 note=50 velocity=0 time=0.0057471250000000005
EXTRACT: note_on channel=4 note=43 velocity=0 time=0
EXTRACT: note_on channel=2 note=27 velocity=96 time=0.011494250000000001
EXTRACT: note_on channel=0 note=58 velocity=74 time=0
EXTRACT: note_on channel=0 note=63 velocity=67 time=0
EXTRACT: note_on channel=0 note=51 velocity=81 time=0
EXTRACT: note_on channel=4 note=55 velocity=0 time=0
EXTRACT: note_on channel=4 note=58 velocity=0 time=0
EXTRACT: note_on channel=4 note=67 velocity=0 time=0
EXTRACT: note_on channel=4 note=62 velocity=0 time=0
EXTRACT: note_on channel=4 note=39 velocity=55 time=0
EXTRACT: note_on channel=5 note=70 velocity=0 time=0
EXTRACT: note_on channel=5 note=67 velocity=0 time=0
EXTRACT: note_on channel=5 note=62 velocity=0 time=0
EXTRACT: note_on channel=6 note=67 velocity=62 time=0
EXTRACT: note_on channel=8 note=70 velocity=60 time=0
EXTRACT: note_on channel=8 note=79 velocity=62 time=0
EXTRACT: note_on channel=8 note=75 velocity=63 time=0
EXTRACT: note_on channel=9 note=36 velocity=113 time=0
EXTRACT: note_on channel=9 note=41 velocity=110 time=0
EXTRACT: note_on channel=9 note=46 velocity=80 time=0
EXTRACT: note_on channel=5 note=70 velocity=65 time=0.0057471250000000005
EXTRACT: note_on channel=6 note=65 velocity=0 time=0
EXTRACT: note_on channel=9 note=46 velocity=0 time=0
EXTRACT: note_on channel=9 note=41 velocity=0 time=0
EXTRACT: note_on channel=9 note=36 velocity=0 time=0
EXTRACT: note_on channel=0 note=43 velocity=0 time=0.0057471250000000005
EXTRACT: note_on channel=0 note=67 velocity=0 time=0
EXTRACT: note_on channel=4 note=63 velocity=64 time=0
EXTRACT: note_on channel=4 note=67 velocity=63 time=0
EXTRACT: note_on channel=4 note=58 velocity=65 time=0
EXTRACT: note_on channel=4 note=55 velocity=64 time=0
EXTRACT: note_on channel=5 note=65 velocity=74 time=0
EXTRACT: note_on channel=0 note=62 velocity=0 time=0.0057471250000000005
EXTRACT: note_on channel=3 note=65 velocity=0 time=0.281609125
EXTRACT: note_on channel=4 note=39 velocity=0 time=0.034482750000000006
EXTRACT: note_on channel=5 note=70 velocity=0 time=0.0057471250000000005
EXTRACT: note_on channel=0 note=46 velocity=72 time=0.0057471250000000005
EXTRACT: note_on channel=4 note=58 velocity=0 time=0
EXTRACT: note_on channel=4 note=63 velocity=0 time=0
EXTRACT: note_on channel=4 note=67 velocity=0 time=0
EXTRACT: note_on channel=4 note=55 velocity=0 time=0
EXTRACT: note_on channel=4 note=39 velocity=55 time=0
EXTRACT: note_on channel=5 note=65 velocity=0 time=0
EXTRACT: note_on channel=9 note=35 velocity=64 time=0
EXTRACT: note_on channel=9 note=38 velocity=64 time=0
EXTRACT: note_on channel=9 note=42 velocity=50 time=0
EXTRACT: note_on channel=9 note=42 velocity=0 time=0.0057471250000000005
EXTRACT: note_on channel=9 note=38 velocity=0 time=0
EXTRACT: note_on channel=9 note=35 velocity=0 time=0
EXTRACT: note_on channel=4 note=58 velocity=61 time=0.0057471250000000005
EXTRACT: note_on channel=4 note=63 velocity=63 time=0
EXTRACT: note_on channel=4 note=55 velocity=58 time=0
EXTRACT: note_on channel=4 note=67 velocity=56 time=0
EXTRACT: note_on channel=5 note=65 velocity=73 time=0
EXTRACT: note_on channel=5 note=70 velocity=63 time=0
EXTRACT: note_on channel=6 note=63 velocity=56 time=0
EXTRACT: note_on channel=9 note=35 velocity=64 time=0.16091950000000002
EXTRACT: note_on channel=9 note=35 velocity=0 time=0.0057471250000000005
EXTRACT: note_on channel=0 note=51 velocity=0 time=0.09195400000000001
EXTRACT: note_on channel=6 note=67 velocity=0 time=0.05747125
EXTRACT: note_on channel=4 note=39 velocity=0 time=0.0057471250000000005
EXTRACT: note_on channel=0 note=51 velocity=74 time=0.011494250000000001
EXTRACT: note_on channel=4 note=55 velocity=0 time=0
EXTRACT: note_on channel=4 note=58 velocity=0 time=0
EXTRACT: note_on channel=4 note=63 velocity=0 time=0
EXTRACT: note_on channel=4 note=67 velocity=0 time=0
EXTRACT: note_on channel=4 note=39 velocity=55 time=0
EXTRACT: note_on channel=5 note=70 velocity=0 time=0
EXTRACT: note_on channel=5 note=65 velocity=0 time=0
EXTRACT: note_on channel=9 note=40 velocity=78 time=0
EXTRACT: note_on channel=9 note=39 velocity=111 time=0
EXTRACT: note_on channel=9 note=42 velocity=64 time=0
EXTRACT: note_on channel=9 note=42 velocity=0 time=0.0057471250000000005
EXTRACT: note_on channel=9 note=39 velocity=0 time=0
EXTRACT: note_on channel=9 note=40 velocity=0 time=0
EXTRACT: note_on channel=4 note=58 velocity=65 time=0.0057471250000000005
EXTRACT: note_on channel=4 note=67 velocity=65 time=0
EXTRACT: note_on channel=4 note=63 velocity=67 time=0
EXTRACT: note_on channel=4 note=55 velocity=62 time=0
EXTRACT: note_on channel=5 note=67 velocity=74 time=0
EXTRACT: note_on channel=5 note=70 velocity=76 time=0
EXTRACT: note_on channel=6 note=67 velocity=64 time=0
EXTRACT: note_on channel=9 note=37 velocity=57 time=0.16091950000000002
EXTRACT: note_on channel=9 note=37 velocity=0 time=0.0057471250000000005
EXTRACT: note_on channel=0 note=63 velocity=0 time=0.09195400000000001
EXTRACT: note_on channel=0 note=58 velocity=0 time=0.0057471250000000005
EXTRACT: note_on channel=0 note=51 velocity=0 time=0.051724125
EXTRACT: note_on channel=4 note=39 velocity=0 time=0.0057471250000000005
EXTRACT: note_on channel=5 note=67 velocity=0 time=0
EXTRACT: note_on channel=0 note=63 velocity=73 time=0.011494250000000001
EXTRACT: note_on channel=0 note=58 velocity=79 time=0
EXTRACT: note_on channel=0 note=51 velocity=66 time=0
EXTRACT: note_on channel=4 note=63 velocity=0 time=0
EXTRACT: note_on channel=4 note=58 velocity=0 time=0
EXTRACT: note_on channel=4 note=67 velocity=0 time=0
EXTRACT: note_on channel=4 note=55 velocity=0 time=0
EXTRACT: note_on channel=4 note=39 velocity=55 time=0
EXTRACT: note_on channel=5 note=70 velocity=0 time=0
EXTRACT: note_on channel=9 note=40 velocity=67 time=0
EXTRACT: note_on channel=9 note=42 velocity=53 time=0
EXTRACT: note_on channel=9 note=42 velocity=0 time=0.0057471250000000005
EXTRACT: note_on channel=9 note=40 velocity=0 time=0
EXTRACT: note_on channel=4 note=58 velocity=59 time=0.0057471250000000005
EXTRACT: note_on channel=4 note=63 velocity=61 time=0
EXTRACT: note_on channel=4 note=67 velocity=58 time=0
EXTRACT: note_on channel=4 note=55 velocity=57 time=0
EXTRACT: note_on channel=5 note=65 velocity=67 time=0
EXTRACT: note_on channel=5 note=70 velocity=67 time=0
EXTRACT: note_on channel=6 note=65 velocity=55 time=0
EXTRACT: note_on channel=4 note=39 velocity=0 time=0.14942525
EXTRACT: note_on channel=4 note=67 velocity=0 time=0.011494250000000001
EXTRACT: note_on channel=4 note=58 velocity=0 time=0
EXTRACT: note_on channel=4 note=63 velocity=0 time=0
EXTRACT: note_on channel=4 note=55 velocity=0 time=0
EXTRACT: note_on channel=4 note=39 velocity=55 time=0
EXTRACT: note_on channel=5 note=70 velocity=0 time=0
EXTRACT: note_on channel=5 note=65 velocity=0 time=0
EXTRACT: note_on channel=9 note=39 velocity=108 time=0
EXTRACT: note_on channel=9 note=39 velocity=0 time=0.0057471250000000005
EXTRACT: note_on channel=3 note=58 velocity=82 time=0
EXTRACT: note_on channel=4 note=58 velocity=67 time=0
EXTRACT: note_on channel=4 note=55 velocity=61 time=0
EXTRACT: note_on channel=4 note=63 velocity=65 time=0
EXTRACT: note_on channel=4 note=67 velocity=59 time=0
EXTRACT: note_on channel=5 note=70 velocity=75 time=0
EXTRACT: note_on channel=5 note=67 velocity=75 time=0
EXTRACT: note_on channel=6 note=67 velocity=0 time=0.10344825
EXTRACT: note_on channel=3 note=58 velocity=0 time=0.040229875000000005
EXTRACT: note_on channel=1 note=67 velocity=93 time=0.011494250000000001
EXTRACT: note_on channel=3 note=63 velocity=106 time=0
EXTRACT: note_on channel=9 note=42 velocity=61 time=0
EXTRACT: note_on channel=9 note=42 velocity=0 time=0.0057471250000000005
EXTRACT: note_on channel=6 note=67 velocity=62 time=0.0057471250000000005
EXTRACT: note_on channel=4 note=39 velocity=0 time=0.14942525
EXTRACT: note_on channel=4 note=63 velocity=0 time=0.011494250000000001
EXTRACT: note_on channel=4 note=58 velocity=0 time=0
EXTRACT: note_on channel=4 note=55 velocity=0 time=0
EXTRACT: note_on channel=4 note=67 velocity=0 time=0
EXTRACT: note_on channel=4 note=39 velocity=55 time=0
EXTRACT: note_on channel=5 note=67 velocity=0 time=0
EXTRACT: note_on channel=5 note=70 velocity=0 time=0
EXTRACT: note_on channel=9 note=35 velocity=61 time=0
EXTRACT: note_on channel=9 note=37 velocity=59 time=0
EXTRACT: note_on channel=9 note=37 velocity=0 time=0.0057471250000000005
EXTRACT: note_on channel=9 note=35 velocity=0 time=0
EXTRACT: note_on channel=4 note=58 velocity=61 time=0.0057471250000000005
EXTRACT: note_on channel=4 note=67 velocity=59 time=0
EXTRACT: note_on channel=4 note=63 velocity=61 time=0
EXTRACT: note_on channel=4 note=55 velocity=58 time=0
EXTRACT: note_on channel=5 note=65 velocity=70 time=0
EXTRACT: note_on channel=5 note=70 velocity=67 time=0
EXTRACT: note_on channel=0 note=46 velocity=0 time=0.10344825
EXTRACT: note_on channel=1 note=67 velocity=0 time=0.011494250000000001
EXTRACT: note_on channel=3 note=63 velocity=0 time=0.0057471250000000005
EXTRACT: note_on channel=6 note=63 velocity=0 time=0
EXTRACT: note_on channel=4 note=39 velocity=0 time=0.028735625
EXTRACT: note_on channel=1 note=67 velocity=93 time=0.0057471250000000005
EXTRACT: note_on channel=10 note=67 velocity=87 time=0
EXTRACT: note_on channel=10 note=79 velocity=85 time=0
EXTRACT: note_on channel=3 note=63 velocity=106 time=0
EXTRACT: note_on channel=0 note=46 velocity=62 time=0
EXTRACT: note_on channel=4 note=63 velocity=0 time=0
EXTRACT: note_on channel=4 note=58 velocity=0 time=0
EXTRACT: note_on channel=4 note=67 velocity=0 time=0
EXTRACT: note_on channel=4 note=55 velocity=0 time=0
EXTRACT: note_on channel=4 note=39 velocity=55 time=0
EXTRACT: note_on channel=5 note=70 velocity=0 time=0
EXTRACT: note_on channel=5 note=65 velocity=0 time=0
EXTRACT: note_on channel=9 note=35 velocity=67 time=0
EXTRACT: note_on channel=9 note=37 velocity=64 time=0
EXTRACT: note_on channel=9 note=42 velocity=53 time=0
EXTRACT: note_on channel=9 note=42 velocity=0 time=0.0057471250000000005
EXTRACT: note_on channel=9 note=37 velocity=0 time=0
EXTRACT: note_on channel=9 note=35 velocity=0 time=0
EXTRACT: note_on channel=4 note=58 velocity=68 time=0.0057471250000000005
EXTRACT: note_on channel=4 note=67 velocity=65 time=0
EXTRACT: note_on channel=4 note=63 velocity=68 time=0
EXTRACT: note_on channel=4 note=55 velocity=60 time=0
EXTRACT: note_on channel=5 note=65 velocity=81 time=0
EXTRACT: note_on channel=5 note=70 velocity=74 time=0
EXTRACT: note_on channel=6 note=63 velocity=53 time=0
EXTRACT: note_on channel=10 note=79 velocity=0 time=0.26436775
EXTRACT: note_on channel=10 note=67 velocity=0 time=0.0057471250000000005
EXTRACT: note_on channel=0 note=51 velocity=0 time=0.034482750000000006
EXTRACT: note_on channel=6 note=67 velocity=0 time=0
EXTRACT: note_on channel=4 note=39 velocity=0 time=0.017241375000000003
EXTRACT: note_on channel=0 note=51 velocity=69 time=0.011494250000000001
EXTRACT: note_on channel=4 note=63 velocity=0 time=0
EXTRACT: note_on channel=4 note=58 velocity=0 time=0
EXTRACT: note_on channel=4 note=67 velocity=0 time=0
EXTRACT: note_on channel=4 note=55 velocity=0 time=0
EXTRACT: note_on channel=4 note=39 velocity=55 time=0
EXTRACT: note_on channel=5 note=70 velocity=0 time=0
EXTRACT: note_on channel=5 note=65 velocity=0 time=0
EXTRACT: note_on channel=9 note=40 velocity=81 time=0
EXTRACT: note_on channel=9 note=39 velocity=114 time=0
EXTRACT: note_on channel=9 note=42 velocity=67 time=0
EXTRACT: note_on channel=10 note=67 velocity=79 time=0.0057471250000000005
EXTRACT: note_on channel=10 note=79 velocity=85 time=0
EXTRACT: note_on channel=9 note=42 velocity=0 time=0
EXTRACT: note_on channel=9 note=39 velocity=0 time=0
EXTRACT: note_on channel=9 note=40 velocity=0 time=0
EXTRACT: note_on channel=4 note=67 velocity=65 time=0.0057471250000000005
EXTRACT: note_on channel=4 note=58 velocity=69 time=0
EXTRACT: note_on channel=4 note=63 velocity=69 time=0
EXTRACT: note_on channel=4 note=55 velocity=63 time=0
EXTRACT: note_on channel=5 note=70 velocity=66 time=0
EXTRACT: note_on channel=5 note=65 velocity=66 time=0
EXTRACT: note_on channel=6 note=67 velocity=64 time=0
EXTRACT: note_on channel=6 note=65 velocity=0 time=0.0057471250000000005
EXTRACT: note_on channel=4 note=39 velocity=0 time=0.14367812500000002
EXTRACT: note_on channel=4 note=63 velocity=0 time=0.011494250000000001
EXTRACT: note_on channel=4 note=67 velocity=0 time=0
EXTRACT: note_on channel=4 note=58 velocity=0 time=0
EXTRACT: note_on channel=4 note=55 velocity=0 time=0
EXTRACT: note_on channel=4 note=39 velocity=55 time=0
EXTRACT: note_on channel=5 note=65 velocity=0 time=0
EXTRACT: note_on channel=5 note=70 velocity=0 time=0
EXTRACT: note_on channel=9 note=35 velocity=61 time=0
EXTRACT: note_on channel=9 note=35 velocity=0 time=0.0057471250000000005
EXTRACT: note_on channel=4 note=58 velocity=67 time=0.0057471250000000005
EXTRACT: note_on channel=4 note=63 velocity=67 time=0
EXTRACT: note_on channel=4 note=67 velocity=60 time=0
EXTRACT: note_on channel=4 note=55 velocity=61 time=0
EXTRACT: note_on channel=5 note=65 velocity=64 time=0
EXTRACT: note_on channel=5 note=70 velocity=69 time=0
EXTRACT: note_on channel=10 note=79 velocity=0 time=0.06321837500000001
EXTRACT: note_on channel=10 note=67 velocity=0 time=0.011494250000000001
EXTRACT: note_on channel=1 note=67 velocity=0 time=0.040229875000000005
EXTRACT: note_on channel=0 note=58 velocity=0 time=0
EXTRACT: note_on channel=3 note=63 velocity=0 time=0.0057471250000000005
EXTRACT: note_on channel=4 note=39 velocity=0 time=0.028735625
EXTRACT: note_on channel=1 note=67 velocity=93 time=0.0057471250000000005
EXTRACT: note_on channel=3 note=63 velocity=104 time=0
EXTRACT: note_on channel=0 note=58 velocity=70 time=0
EXTRACT: note_on channel=4 note=67 velocity=0 time=0
EXTRACT: note_on channel=4 note=58 velocity=0 time=0
EXTRACT: note_on channel=4 note=63 velocity=0 time=0
EXTRACT: note_on channel=4 note=55 velocity=0 time=0
EXTRACT: note_on channel=4 note=39 velocity=55 time=0
EXTRACT: note_on channel=5 note=70 velocity=0 time=0
EXTRACT: note_on channel=5 note=65 velocity=0 time=0
EXTRACT: note_on channel=9 note=38 velocity=65 time=0
EXTRACT: note_on channel=9 note=40 velocity=65 time=0
EXTRACT: note_on channel=9 note=42 velocity=51 time=0
EXTRACT: note_on channel=9 note=28 velocity=51 time=0
EXTRACT: note_on channel=10 note=79 velocity=89 time=0.0057471250000000005
EXTRACT: note_on channel=10 note=67 velocity=89 time=0
EXTRACT: note_on channel=9 note=28 velocity=0 time=0
EXTRACT: note_on channel=9 note=38 velocity=0 time=0
EXTRACT: note_on channel=9 note=40 velocity=0 time=0
EXTRACT: note_on channel=9 note=42 velocity=0 time=0
EXTRACT: note_on channel=4 note=58 velocity=66 time=0.0057471250000000005
EXTRACT: note_on channel=4 note=67 velocity=60 time=0
EXTRACT: note_on channel=4 note=63 velocity=69 time=0
EXTRACT: note_on channel=4 note=55 velocity=60 time=0
EXTRACT: note_on channel=5 note=65 velocity=70 time=0
EXTRACT: note_on channel=5 note=70 velocity=68 time=0
EXTRACT: note_on channel=6 note=65 velocity=58 time=0
EXTRACT: note_on channel=4 note=39 velocity=0 time=0.14942525
EXTRACT: note_on channel=4 note=63 velocity=0 time=0.011494250000000001
EXTRACT: note_on channel=4 note=58 velocity=0 time=0
EXTRACT: note_on channel=4 note=67 velocity=0 time=0
EXTRACT: note_on channel=4 note=55 velocity=0 time=0
EXTRACT: note_on channel=4 note=39 velocity=55 time=0
EXTRACT: note_on channel=5 note=70 velocity=0 time=0
EXTRACT: note_on channel=5 note=65 velocity=0 time=0
EXTRACT: note_on channel=9 note=36 velocity=97 time=0
EXTRACT: note_on channel=9 note=36 velocity=0 time=0.0057471250000000005
EXTRACT: note_on channel=4 note=67 velocity=57 time=0.0057471250000000005
EXTRACT: note_on channel=4 note=58 velocity=57 time=0
EXTRACT: note_on channel=4 note=55 velocity=57 time=0
EXTRACT: note_on channel=4 note=63 velocity=57 time=0
EXTRACT: note_on channel=5 note=65 velocity=63 time=0
EXTRACT: note_on channel=5 note=70 velocity=63 time=0
EXTRACT: note_on channel=2 note=27 velocity=0 time=0.086206875
EXTRACT: note_on channel=0 note=51 velocity=0 time=0.0057471250000000005
EXTRACT: note_on channel=0 note=46 velocity=0 time=0.0057471250000000005
EXTRACT: note_on channel=6 note=63 velocity=0 time=0
EXTRACT: note_on channel=10 note=67 velocity=0 time=0
EXTRACT: note_on channel=10 note=79 velocity=0 time=0.011494250000000001
EXTRACT: note_on channel=8 note=70 velocity=0 time=0.011494250000000001
EXTRACT: note_on channel=0 note=63 velocity=0 time=0.0057471250000000005
EXTRACT: note_on channel=8 note=79 velocity=0 time=0
EXTRACT: note_on channel=0 note=58 velocity=0 time=0.011494250000000001
EXTRACT: note_on channel=6 note=67 velocity=0 time=0
EXTRACT: note_on channel=8 note=75 velocity=0 time=0
EXTRACT: note_on channel=6 note=65 velocity=0 time=0.0057471250000000005
EXTRACT: note_on channel=4 note=39 velocity=0 time=0.0057471250000000005
EXTRACT: note_on channel=2 note=34 velocity=96 time=0.011494250000000001
EXTRACT: note_on channel=0 note=46 velocity=79 time=0
EXTRACT: note_on channel=0 note=53 velocity=76 time=0
EXTRACT: note_on channel=0 note=62 velocity=76 time=0
EXTRACT: note_on channel=4 note=55 velocity=0 time=0
EXTRACT: note_on channel=4 note=67 velocity=0 time=0
EXTRACT: note_on channel=4 note=58 velocity=0 time=0
EXTRACT: note_on channel=4 note=63 velocity=0 time=0
EXTRACT: note_on channel=4 note=46 velocity=55 time=0
EXTRACT: note_on channel=5 note=70 velocity=0 time=0
EXTRACT: note_on channel=5 note=65 velocity=0 time=0
EXTRACT: note_on channel=6 note=67 velocity=62 time=0
EXTRACT: note_on channel=8 note=70 velocity=49 time=0
EXTRACT: note_on channel=8 note=74 velocity=72 time=0
EXTRACT: note_on channel=8 note=77 velocity=53 time=0
EXTRACT: note_on channel=9 note=36 velocity=114 time=0
EXTRACT: note_on channel=9 note=41 velocity=110 time=0
EXTRACT: note_on channel=9 note=46 velocity=81 time=0
EXTRACT: note_on channel=10 note=70 velocity=83 time=0.0057471250000000005
EXTRACT: note_on channel=10 note=58 velocity=86 time=0
EXTRACT: note_on channel=9 note=46 velocity=0 time=0
EXTRACT: note_on channel=9 note=41 velocity=0 time=0
EXTRACT: note_on channel=9 note=36 velocity=0 time=0
EXTRACT: note_on channel=4 note=58 velocity=74 time=0.0057471250000000005
EXTRACT: note_on channel=4 note=62 velocity=69 time=0
EXTRACT: note_on channel=4 note=65 velocity=66 time=0
EXTRACT: note_on channel=4 note=53 velocity=66 time=0
EXTRACT: note_on channel=5 note=65 velocity=74 time=0
EXTRACT: note_on channel=5 note=70 velocity=63 time=0
EXTRACT: note_on channel=1 note=67 velocity=0 time=0.21264362500000003
EXTRACT: note_on channel=3 note=63 velocity=0 time=0.0057471250000000005
EXTRACT: note_on channel=0 note=53 velocity=0 time=0.08045975000000001
EXTRACT: note_on channel=4 note=46 velocity=0 time=0.022988500000000002
EXTRACT: note_on channel=3 note=62 velocity=81 time=0
EXTRACT: note_on channel=1 note=65 velocity=83 time=0
EXTRACT: note_on channel=0 note=53 velocity=79 time=0
EXTRACT: note_on channel=4 note=65 velocity=0 time=0
EXTRACT: note_on channel=4 note=58 velocity=0 time=0
EXTRACT: note_on channel=4 note=62 velocity=0 time=0
EXTRACT: note_on channel=4 note=53 velocity=0 time=0
EXTRACT: note_on channel=4 note=46 velocity=55 time=0
EXTRACT: note_on channel=5 note=70 velocity=0 time=0
EXTRACT: note_on channel=5 note=65 velocity=0 time=0
EXTRACT: note_on channel=9 note=35 velocity=68 time=0
EXTRACT: note_on channel=9 note=38 velocity=68 time=0
EXTRACT: note_on channel=9 note=42 velocity=54 time=0
EXTRACT: note_on channel=9 note=42 velocity=0 time=0.0057471250000000005
EXTRACT: note_on channel=9 note=38 velocity=0 time=0
EXTRACT: note_on channel=9 note=35 velocity=0 time=0
EXTRACT: note_on channel=4 note=53 velocity=60 time=0.0057471250000000005
EXTRACT: note_on channel=4 note=58 velocity=61 time=0
EXTRACT: note_on channel=4 note=62 velocity=61 time=0
EXTRACT: note_on channel=4 note=65 velocity=59 time=0
EXTRACT: note_on channel=5 note=70 velocity=62 time=0
EXTRACT: note_on channel=5 note=65 velocity=64 time=0
EXTRACT: note_on channel=6 note=62 velocity=56 time=0
EXTRACT: note_on channel=3 note=62 velocity=0 time=0.1149425
EXTRACT: note_on channel=1 note=65 velocity=0 time=0
EXTRACT: note_on channel=3 note=62 velocity=105 time=0
EXTRACT: note_on channel=1 note=65 velocity=93 time=0
EXTRACT: note_on channel=9 note=35 velocity=63 time=0
EXTRACT: note_on channel=9 note=35 velocity=0 time=0.0057471250000000005
EXTRACT: note_on channel=6 note=67 velocity=0 time=0.14942525
EXTRACT: note_on channel=4 note=46 velocity=0 time=0.0057471250000000005
EXTRACT: note_on channel=0 note=58 velocity=55 time=0.011494250000000001
EXTRACT: note_on channel=4 note=62 velocity=0 time=0
EXTRACT: note_on channel=4 note=53 velocity=0 time=0
EXTRACT: note_on channel=4 note=58 velocity=0 time=0
EXTRACT: note_on channel=4 note=65 velocity=0 time=0
EXTRACT: note_on channel=4 note=46 velocity=55 time=0
EXTRACT: note_on channel=5 note=65 velocity=0 time=0
EXTRACT: note_on channel=5 note=70 velocity=0 time=0
EXTRACT: note_on channel=9 note=40 velocity=77 time=0
EXTRACT: note_on channel=9 note=39 velocity=110 time=0
EXTRACT: note_on channel=9 note=42 velocity=64 time=0
EXTRACT: note_on channel=5 note=65 velocity=74 time=0.0057471250000000005
EXTRACT: note_on channel=9 note=42 velocity=0 time=0
EXTRACT: note_on channel=9 note=39 velocity=0 time=0
EXTRACT: note_on channel=9 note=40 velocity=0 time=0
EXTRACT: note_on channel=4 note=58 velocity=65 time=0.0057471250000000005
EXTRACT: note_on channel=4 note=53 velocity=64 time=0
EXTRACT: note_on channel=4 note=62 velocity=67 time=0
EXTRACT: note_on channel=4 note=65 velocity=63 time=0
EXTRACT: note_on channel=5 note=70 velocity=65 time=0
EXTRACT: note_on channel=6 note=67 velocity=64 time=0
EXTRACT: note_on channel=9 note=37 velocity=57 time=0.16091950000000002
EXTRACT: note_on channel=9 note=37 velocity=0 time=0.0057471250000000005
EXTRACT: note_on channel=3 note=62 velocity=0 time=0.10919537500000001
EXTRACT: note_on channel=1 note=65 velocity=0 time=0
EXTRACT: note_on channel=0 note=58 velocity=0 time=0
EXTRACT: note_on channel=4 note=46 velocity=0 time=0.045977000000000004
EXTRACT: note_on channel=5 note=65 velocity=0 time=0.0057471250000000005
EXTRACT: note_on channel=3 note=63 velocity=88 time=0
EXTRACT: note_on channel=1 note=67 velocity=86 time=0
EXTRACT: note_on channel=0 note=58 velocity=64 time=0
EXTRACT: note_on channel=4 note=62 velocity=0 time=0
EXTRACT: note_on channel=4 note=58 velocity=0 time=0
EXTRACT: note_on channel=4 note=53 velocity=0 time=0
EXTRACT: note_on channel=4 note=65 velocity=0 time=0
EXTRACT: note_on channel=4 note=46 velocity=55 time=0
EXTRACT: note_on channel=5 note=70 velocity=0 time=0
EXTRACT: note_on channel=5 note=70 velocity=61 time=0
EXTRACT: note_on channel=5 note=65 velocity=64 time=0
EXTRACT: note_on channel=9 note=40 velocity=65 time=0
EXTRACT: note_on channel=9 note=42 velocity=51 time=0
EXTRACT: note_on channel=9 note=42 velocity=0 time=0.0057471250000000005
EXTRACT: note_on channel=9 note=40 velocity=0 time=0
EXTRACT: note_on channel=4 note=53 velocity=60 time=0.0057471250000000005
EXTRACT: note_on channel=4 note=62 velocity=64 time=0
EXTRACT: note_on channel=4 note=58 velocity=59 time=0
EXTRACT: note_on channel=4 note=65 velocity=59 time=0
EXTRACT: note_on channel=6 note=65 velocity=55 time=0
EXTRACT: note_on channel=3 note=63 velocity=0 time=0.14367812500000002
EXTRACT: note_on channel=1 note=67 velocity=0 time=0
EXTRACT: note_on channel=4 note=46 velocity=0 time=0.0057471250000000005
EXTRACT: note_on channel=5 note=65 velocity=0 time=0
EXTRACT: note_on channel=5 note=70 velocity=0 time=0
EXTRACT: note_on channel=10 note=58 velocity=0 time=0.0057471250000000005
EXTRACT: note_on channel=3 note=63 velocity=110 time=0
EXTRACT: note_on channel=1 note=67 velocity=93 time=0
EXTRACT: note_on channel=4 note=58 velocity=0 time=0
EXTRACT: note_on channel=4 note=53 velocity=0 time=0
EXTRACT: note_on channel=4 note=62 velocity=0 time=0
EXTRACT: note_on channel=4 note=65 velocity=0 time=0
EXTRACT: note_on channel=4 note=46 velocity=55 time=0
EXTRACT: note_on channel=5 note=70 velocity=65 time=0
EXTRACT: note_on channel=5 note=65 velocity=72 time=0
EXTRACT: note_on channel=9 note=39 velocity=110 time=0
EXTRACT: note_on channel=9 note=39 velocity=0 time=0.0057471250000000005
EXTRACT: note_on channel=4 note=58 velocity=67 time=0.0057471250000000005
EXTRACT: note_on channel=4 note=53 velocity=63 time=0
EXTRACT: note_on channel=4 note=65 velocity=60 time=0
EXTRACT: note_on channel=4 note=62 velocity=66 time=0
EXTRACT: note_on channel=10 note=70 velocity=0 time=0
EXTRACT: note_on channel=0 note=53 velocity=0 time=0.086206875
EXTRACT: note_on channel=6 note=67 velocity=0 time=0.017241375000000003
EXTRACT: note_on channel=0 note=62 velocity=0 time=0.0057471250000000005
EXTRACT: note_on channel=0 note=53 velocity=83 time=0.051724125
EXTRACT: note_on channel=0 note=62 velocity=87 time=0
EXTRACT: note_on channel=9 note=42 velocity=64 time=0
EXTRACT: note_on channel=9 note=42 velocity=0 time=0.0057471250000000005
EXTRACT: note_on channel=6 note=67 velocity=62 time=0.0057471250000000005
EXTRACT: note_on channel=4 note=46 velocity=0 time=0.14942525
EXTRACT: note_on channel=5 note=65 velocity=0 time=0
EXTRACT: note_on channel=5 note=70 velocity=0 time=0
EXTRACT: note_on channel=4 note=65 velocity=0 time=0.011494250000000001
EXTRACT: note_on channel=4 note=58 velocity=0 time=0
EXTRACT: note_on channel=4 note=53 velocity=0 time=0
EXTRACT: note_on channel=4 note=62 velocity=0 time=0
EXTRACT: note_on channel=4 note=46 velocity=55 time=0
EXTRACT: note_on channel=5 note=70 velocity=60 time=0
EXTRACT: note_on channel=5 note=65 velocity=64 time=0
EXTRACT: note_on channel=9 note=35 velocity=62 time=0
EXTRACT: note_on channel=9 note=37 velocity=59 time=0
EXTRACT: note_on channel=9 note=37 velocity=0 time=0.0057471250000000005
EXTRACT: note_on channel=9 note=35 velocity=0 time=0
EXTRACT: note_on channel=4 note=58 velocity=65 time=0.0057471250000000005
EXTRACT: note_on channel=4 note=53 velocity=63 time=0
EXTRACT: note_on channel=4 note=62 velocity=65 time=0
EXTRACT: note_on channel=4 note=65 velocity=59 time=0
EXTRACT: note_on channel=0 note=53 velocity=0 time=0.074712625
EXTRACT: note_on channel=3 note=63 velocity=0 time=0.028735625
EXTRACT: note_on channel=1 note=67 velocity=0 time=0
EXTRACT: note_on channel=6 note=62 velocity=0 time=0.017241375000000003
EXTRACT: note_on channel=4 note=46 velocity=0 time=0.028735625
EXTRACT: note_on channel=5 note=65 velocity=0 time=0
EXTRACT: note_on channel=5 note=70 velocity=0 time=0
EXTRACT: note_on channel=3 note=62 velocity=85 time=0
EXTRACT: note_on channel=1 note=65 velocity=85 time=0
EXTRACT: note_on channel=0 note=53 velocity=74 time=0
EXTRACT: note_on channel=4 note=62 velocity=0 time=0
EXTRACT: note_on channel=4 note=58 velocity=0 time=0
EXTRACT: note_on channel=4 note=53 velocity=0 time=0
EXTRACT: note_on channel=4 note=65 velocity=0 time=0
EXTRACT: note_on channel=4 note=46 velocity=55 time=0
EXTRACT: note_on channel=5 note=65 velocity=70 time=0
EXTRACT: note_on channel=5 note=70 velocity=65 time=0
EXTRACT: note_on channel=9 note=35 velocity=65 time=0
EXTRACT: note_on channel=9 note=37 velocity=63 time=0
EXTRACT: note_on channel=9 note=42 velocity=52 time=0
EXTRACT: note_on channel=9 note=42 velocity=0 time=0.0057471250000000005
EXTRACT: note_on channel=9 note=37 velocity=0 time=0
EXTRACT: note_on channel=9 note=35 velocity=0 time=0
EXTRACT: note_on channel=4 note=58 velocity=64 time=0.0057471250000000005
EXTRACT: note_on channel=4 note=53 velocity=64 time=0
EXTRACT: note_on channel=4 note=62 velocity=64 time=0
EXTRACT: note_on channel=4 note=65 velocity=59 time=0
EXTRACT: note_on channel=6 note=62 velocity=53 time=0
EXTRACT: note_on channel=3 note=62 velocity=0 time=0.13793100000000003
EXTRACT: note_on channel=1 note=65 velocity=0 time=0
EXTRACT: note_on channel=3 note=62 velocity=107 time=0
EXTRACT: note_on channel=1 note=65 velocity=93 time=0
EXTRACT: note_on channel=0 note=58 velocity=0 time=0.1149425
EXTRACT: note_on channel=6 note=67 velocity=0 time=0.028735625
EXTRACT: note_on channel=4 note=46 velocity=0 time=0.017241375000000003
EXTRACT: note_on channel=5 note=70 velocity=0 time=0
EXTRACT: note_on channel=5 note=65 velocity=0 time=0
EXTRACT: note_on channel=0 note=58 velocity=74 time=0.011494250000000001
EXTRACT: note_on channel=4 note=62 velocity=0 time=0
EXTRACT: note_on channel=4 note=58 velocity=0 time=0
EXTRACT: note_on channel=4 note=53 velocity=0 time=0
EXTRACT: note_on channel=4 note=65 velocity=0 time=0
EXTRACT: note_on channel=4 note=46 velocity=55 time=0
EXTRACT: note_on channel=9 note=40 velocity=75 time=0
EXTRACT: note_on channel=9 note=39 velocity=109 time=0
EXTRACT: note_on channel=9 note=42 velocity=62 time=0
EXTRACT: note_on channel=9 note=42 velocity=0 time=0.0057471250000000005
EXTRACT: note_on channel=9 note=39 velocity=0 time=0
EXTRACT: note_on channel=9 note=40 velocity=0 time=0
EXTRACT: note_on channel=4 note=58 velocity=75 time=0.0057471250000000005
EXTRACT: note_on channel=4 note=53 velocity=66 time=0
EXTRACT: note_on channel=4 note=62 velocity=69 time=0
EXTRACT: note_on channel=4 note=65 velocity=63 time=0
EXTRACT: note_on channel=5 note=70 velocity=72 time=0
EXTRACT: note_on channel=5 note=65 velocity=72 time=0
EXTRACT: note_on channel=6 note=67 velocity=64 time=0
EXTRACT: note_on channel=6 note=65 velocity=0 time=0.0057471250000000005
EXTRACT: note_on channel=4 note=46 velocity=0 time=0.14367812500000002
EXTRACT: note_on channel=4 note=62 velocity=0 time=0.011494250000000001
EXTRACT: note_on channel=4 note=58 velocity=0 time=0
EXTRACT: note_on channel=4 note=53 velocity=0 time=0
EXTRACT: note_on channel=4 note=65 velocity=0 time=0
EXTRACT: note_on channel=4 note=46 velocity=55 time=0
EXTRACT: note_on channel=5 note=65 velocity=0 time=0
EXTRACT: note_on channel=5 note=70 velocity=0 time=0
EXTRACT: note_on channel=9 note=35 velocity=62 time=0
EXTRACT: note_on channel=9 note=35 velocity=0 time=0.0057471250000000005
EXTRACT: note_on channel=4 note=58 velocity=66 time=0.0057471250000000005
EXTRACT: note_on channel=4 note=53 velocity=64 time=0
EXTRACT: note_on channel=4 note=65 velocity=59 time=0
EXTRACT: note_on channel=4 note=62 velocity=66 time=0
EXTRACT: note_on channel=5 note=65 velocity=65 time=0
EXTRACT: note_on channel=5 note=70 velocity=63 time=0
EXTRACT: note_on channel=3 note=62 velocity=0 time=0.10919537500000001
EXTRACT: note_on channel=1 note=65 velocity=0 time=0
EXTRACT: note_on channel=4 note=46 velocity=0 time=0.040229875000000005
EXTRACT: note_on channel=3 note=60 velocity=87 time=0
EXTRACT: note_on channel=1 note=63 velocity=87 time=0
EXTRACT: note_on channel=0 note=65 velocity=84 time=0
EXTRACT: note_on channel=4 note=65 velocity=0 time=0
EXTRACT: note_on channel=4 note=58 velocity=0 time=0
EXTRACT: note_on channel=4 note=53 velocity=0 time=0
EXTRACT: note_on channel=4 note=62 velocity=0 time=0
EXTRACT: note_on channel=4 note=46 velocity=55 time=0
EXTRACT: note_on channel=5 note=70 velocity=0 time=0
EXTRACT: note_on channel=5 note=65 velocity=0 time=0
EXTRACT: note_on channel=9 note=40 velocity=66 time=0
EXTRACT: note_on channel=9 note=42 velocity=52 time=0
EXTRACT: note_on channel=9 note=28 velocity=52 time=0
EXTRACT: note_on channel=9 note=28 velocity=0 time=0.0057471250000000005
EXTRACT: note_on channel=9 note=42 velocity=0 time=0
EXTRACT: note_on channel=9 note=40 velocity=0 time=0
EXTRACT: note_on channel=4 note=53 velocity=60 time=0.0057471250000000005
EXTRACT: note_on channel=4 note=58 velocity=63 time=0
EXTRACT: note_on channel=4 note=62 velocity=66 time=0
EXTRACT: note_on channel=4 note=65 velocity=58 time=0
EXTRACT: note_on channel=5 note=65 velocity=65 time=0
EXTRACT: note_on channel=5 note=70 velocity=61 time=0
EXTRACT: note_on channel=6 note=65 velocity=58 time=0
EXTRACT: note_on channel=3 note=60 velocity=0 time=0.14367812500000002
EXTRACT: note_on channel=1 note=63 velocity=0 time=0
EXTRACT: note_on channel=4 note=46 velocity=0 time=0.0057471250000000005
EXTRACT: note_on channel=3 note=60 velocity=108 time=0
EXTRACT: note_on channel=1 note=63 velocity=93 time=0
EXTRACT: note_on channel=4 note=62 velocity=0 time=0
EXTRACT: note_on channel=4 note=53 velocity=0 time=0
EXTRACT: note_on channel=4 note=58 velocity=0 time=0
EXTRACT: note_on channel=4 note=65 velocity=0 time=0
EXTRACT: note_on channel=4 note=46 velocity=55 time=0
EXTRACT: note_on channel=5 note=70 velocity=0 time=0
EXTRACT: note_on channel=5 note=65 velocity=0 time=0
EXTRACT: note_on channel=4 note=58 velocity=57 time=0.011494250000000001
EXTRACT: note_on channel=4 note=62 velocity=57 time=0
EXTRACT: note_on channel=4 note=65 velocity=57 time=0
EXTRACT: note_on channel=4 note=53 velocity=57 time=0
EXTRACT: note_on channel=5 note=65 velocity=63 time=0
EXTRACT: note_on channel=5 note=70 velocity=60 time=0
EXTRACT: note_on channel=2 note=34 velocity=0 time=0.09770112500000001
EXTRACT: note_on channel=6 note=62 velocity=0 time=0
EXTRACT: note_on channel=8 note=74 velocity=0 time=0.011494250000000001
EXTRACT: note_on channel=6 note=67 velocity=0 time=0.011494250000000001
EXTRACT: note_on channel=0 note=65 velocity=0 time=0.017241375000000003
EXTRACT: note_on channel=6 note=65 velocity=0 time=0
EXTRACT: note_on channel=0 note=46 velocity=0 time=0.011494250000000001
EXTRACT: note_on channel=4 note=46 velocity=0 time=0
EXTRACT: note_on channel=0 note=58 velocity=0 time=0.0057471250000000005
EXTRACT: note_on channel=2 note=33 velocity=96 time=0.0057471250000000005
EXTRACT: note_on channel=0 note=45 velocity=72 time=0
EXTRACT: note_on channel=0 note=65 velocity=80 time=0
EXTRACT: note_on channel=4 note=65 velocity=0 time=0
EXTRACT: note_on channel=4 note=58 velocity=0 time=0
EXTRACT: note_on channel=4 note=62 velocity=0 time=0
EXTRACT: note_on channel=4 note=53 velocity=0 time=0
EXTRACT: note_on channel=4 note=45 velocity=55 time=0
EXTRACT: note_on channel=5 note=70 velocity=0 time=0
EXTRACT: note_on channel=5 note=65 velocity=0 time=0
EXTRACT: note_on channel=6 note=65 velocity=62 time=0
EXTRACT: note_on channel=8 note=77 velocity=0 time=0
EXTRACT: note_on channel=8 note=70 velocity=0 time=0
EXTRACT: note_on channel=9 note=36 velocity=113 time=0
EXTRACT: note_on channel=9 note=41 velocity=110 time=0
EXTRACT: note_on channel=9 note=46 velocity=80 time=0
EXTRACT: note_on channel=0 note=62 velocity=0 time=0.0057471250000000005
EXTRACT: note_on channel=8 note=77 velocity=63 time=0
EXTRACT: note_on channel=8 note=72 velocity=67 time=0
EXTRACT: note_on channel=8 note=69 velocity=61 time=0
EXTRACT: note_on channel=10 note=69 velocity=87 time=0
EXTRACT: note_on channel=10 note=57 velocity=62 time=0
EXTRACT: note_on channel=9 note=46 velocity=0 time=0
EXTRACT: note_on channel=9 note=41 velocity=0 time=0
EXTRACT: note_on channel=9 note=36 velocity=0 time=0
EXTRACT: note_on channel=0 note=53 velocity=0 time=0.0057471250000000005
EXTRACT: note_on channel=4 note=60 velocity=69 time=0
EXTRACT: note_on channel=4 note=57 velocity=69 time=0
EXTRACT: note_on channel=4 note=65 velocity=69 time=0
EXTRACT: note_on channel=5 note=65 velocity=76 time=0
EXTRACT: note_on channel=5 note=70 velocity=69 time=0
EXTRACT: note_on channel=4 note=45 velocity=0 time=0.32183900000000004
EXTRACT: note_on channel=0 note=53 velocity=79 time=0.011494250000000001
EXTRACT: note_on channel=4 note=60 velocity=0 time=0
EXTRACT: note_on channel=4 note=57 velocity=0 time=0
EXTRACT: note_on channel=4 note=65 velocity=0 time=0
EXTRACT: note_on channel=4 note=45 velocity=55 time=0
EXTRACT: note_on channel=5 note=70 velocity=0 time=0
EXTRACT: note_on channel=5 note=65 velocity=0 time=0
EXTRACT: note_on channel=9 note=35 velocity=64 time=0
EXTRACT: note_on channel=9 note=38 velocity=64 time=0
EXTRACT: note_on channel=9 note=42 velocity=50 time=0
EXTRACT: note_on channel=9 note=42 velocity=0 time=0.0057471250000000005
EXTRACT: note_on channel=9 note=38 velocity=0 time=0
EXTRACT: note_on channel=9 note=35 velocity=0 time=0
EXTRACT: note_on channel=4 note=57 velocity=59 time=0.0057471250000000005
EXTRACT: note_on channel=4 note=60 velocity=70 time=0
EXTRACT: note_on channel=4 note=65 velocity=66 time=0
EXTRACT: note_on channel=5 note=70 velocity=67 time=0
EXTRACT: note_on channel=5 note=65 velocity=71 time=0
EXTRACT: note_on channel=6 note=60 velocity=56 time=0
EXTRACT: note_on channel=9 note=35 velocity=64 time=0.16091950000000002
EXTRACT: note_on channel=9 note=35 velocity=0 time=0.0057471250000000005
EXTRACT: note_on channel=10 note=69 velocity=0 time=0.10344825
EXTRACT: note_on channel=10 note=57 velocity=0 time=0.022988500000000002
EXTRACT: note_on channel=6 note=65 velocity=0 time=0.022988500000000002
EXTRACT: note_on channel=4 note=45 velocity=0 time=0.0057471250000000005
EXTRACT: note_on channel=4 note=57 velocity=0 time=0.011494250000000001
EXTRACT: note_on channel=4 note=60 velocity=0 time=0
EXTRACT: note_on channel=4 note=65 velocity=0 time=0
EXTRACT: note_on channel=4 note=45 velocity=55 time=0
EXTRACT: note_on channel=5 note=65 velocity=0 time=0
EXTRACT: note_on channel=5 note=70 velocity=0 time=0
EXTRACT: note_on channel=9 note=40 velocity=78 time=0
EXTRACT: note_on channel=9 note=39 velocity=111 time=0
EXTRACT: note_on channel=9 note=42 velocity=64 time=0
EXTRACT: note_on channel=10 note=70 velocity=86 time=0.0057471250000000005
EXTRACT: note_on channel=10 note=58 velocity=86 time=0
EXTRACT: note_on channel=9 note=42 velocity=0 time=0
EXTRACT: note_on channel=9 note=39 velocity=0 time=0
EXTRACT: note_on channel=9 note=40 velocity=0 time=0
EXTRACT: note_on channel=3 note=60 velocity=0 time=0.0057471250000000005
EXTRACT: note_on channel=1 note=63 velocity=0 time=0
EXTRACT: note_on channel=0 note=60 velocity=70 time=0
EXTRACT: note_on channel=4 note=60 velocity=75 time=0
EXTRACT: note_on channel=4 note=65 velocity=75 time=0
EXTRACT: note_on channel=4 note=57 velocity=75 time=0
EXTRACT: note_on channel=5 note=70 velocity=65 time=0
EXTRACT: note_on channel=5 note=65 velocity=71 time=0
EXTRACT: note_on channel=6 note=65 velocity=64 time=0
EXTRACT: note_on channel=9 note=37 velocity=57 time=0.16091950000000002
EXTRACT: note_on channel=9 note=37 velocity=0 time=0.0057471250000000005
EXTRACT: note_on channel=0 note=65 velocity=0 time=0.10919537500000001
EXTRACT: note_on channel=6 note=60 velocity=0 time=0.0057471250000000005
EXTRACT: note_on channel=4 note=45 velocity=0 time=0.040229875000000005
EXTRACT: note_on channel=0 note=65 velocity=81 time=0.011494250000000001
EXTRACT: note_on channel=0 note=69 velocity=72 time=0
EXTRACT: note_on channel=4 note=60 velocity=0 time=0
EXTRACT: note_on channel=4 note=65 velocity=0 time=0
EXTRACT: note_on channel=4 note=57 velocity=0 time=0
EXTRACT: note_on channel=4 note=45 velocity=55 time=0
EXTRACT: note_on channel=5 note=65 velocity=0 time=0
EXTRACT: note_on channel=5 note=70 velocity=0 time=0
EXTRACT: note_on channel=9 note=40 velocity=67 time=0
EXTRACT: note_on channel=9 note=42 velocity=53 time=0
EXTRACT: note_on channel=9 note=42 velocity=0 time=0.0057471250000000005
EXTRACT: note_on channel=9 note=40 velocity=0 time=0
EXTRACT: note_on channel=0 note=72 velocity=55 time=0.0057471250000000005
EXTRACT: note_on channel=4 note=57 velocity=60 time=0
EXTRACT: note_on channel=4 note=65 velocity=60 time=0
EXTRACT: note_on channel=4 note=60 velocity=59 time=0
EXTRACT: note_on channel=5 note=65 velocity=64 time=0
EXTRACT: note_on channel=5 note=70 velocity=59 time=0
EXTRACT: note_on channel=6 note=60 velocity=55 time=0
EXTRACT: note_on channel=10 note=70 velocity=0 time=0.132183875
EXTRACT: note_on channel=10 note=58 velocity=0 time=0.0057471250000000005
EXTRACT: note_on channel=4 note=45 velocity=0 time=0.011494250000000001
EXTRACT: note_on channel=4 note=57 velocity=0 time=0.011494250000000001
EXTRACT: note_on channel=4 note=65 velocity=0 time=0
EXTRACT: note_on channel=4 note=60 velocity=0 time=0
EXTRACT: note_on channel=4 note=45 velocity=55 time=0
EXTRACT: note_on channel=5 note=70 velocity=0 time=0
EXTRACT: note_on channel=5 note=65 velocity=0 time=0
EXTRACT: note_on channel=9 note=39 velocity=108 time=0
EXTRACT: note_on channel=9 note=39 velocity=0 time=0.0057471250000000005
EXTRACT: note_on channel=4 note=60 velocity=74 time=0.0057471250000000005
EXTRACT: note_on channel=4 note=57 velocity=74 time=0
EXTRACT: note_on channel=4 note=65 velocity=74 time=0
EXTRACT: note_on channel=5 note=65 velocity=69 time=0
EXTRACT: note_on channel=5 note=70 velocity=65 time=0
EXTRACT: note_on channel=6 note=65 velocity=0 time=0.10344825
EXTRACT: note_on channel=9 note=42 velocity=61 time=0.05747125
EXTRACT: note_on channel=9 note=42 velocity=0 time=0.0057471250000000005
EXTRACT: note_on channel=6 note=65 velocity=62 time=0.0057471250000000005
EXTRACT: note_on channel=4 note=45 velocity=0 time=0.14942525
EXTRACT: note_on channel=4 note=60 velocity=0 time=0.011494250000000001
EXTRACT: note_on channel=4 note=57 velocity=0 time=0
EXTRACT: note_on channel=4 note=65 velocity=0 time=0
EXTRACT: note_on channel=4 note=45 velocity=55 time=0
EXTRACT: note_on channel=5 note=70 velocity=0 time=0
EXTRACT: note_on channel=5 note=65 velocity=0 time=0
EXTRACT: note_on channel=9 note=35 velocity=61 time=0
EXTRACT: note_on channel=9 note=37 velocity=59 time=0
EXTRACT: note_on channel=9 note=37 velocity=0 time=0.0057471250000000005
EXTRACT: note_on channel=9 note=35 velocity=0 time=0
EXTRACT: note_on channel=4 note=60 velocity=70 time=0.0057471250000000005
EXTRACT: note_on channel=4 note=57 velocity=63 time=0
EXTRACT: note_on channel=4 note=65 velocity=69 time=0
EXTRACT: note_on channel=5 note=65 velocity=72 time=0
EXTRACT: note_on channel=5 note=70 velocity=67 time=0
EXTRACT: note_on channel=0 note=53 velocity=0 time=0.10344825
EXTRACT: note_on channel=6 note=60 velocity=0 time=0.017241375000000003
EXTRACT: note_on channel=4 note=45 velocity=0 time=0.028735625
EXTRACT: note_on channel=3 note=67 velocity=105 time=0
EXTRACT: note_on channel=0 note=53 velocity=58 time=0
EXTRACT: note_on channel=4 note=60 velocity=0 time=0
EXTRACT: note_on channel=4 note=57 velocity=0 time=0
EXTRACT: note_on channel=4 note=65 velocity=0 time=0
EXTRACT: note_on channel=4 note=45 velocity=55 time=0
EXTRACT: note_on channel=5 note=70 velocity=0 time=0
EXTRACT: note_on channel=5 note=65 velocity=0 time=0
EXTRACT: note_on channel=9 note=35 velocity=67 time=0
EXTRACT: note_on channel=9 note=37 velocity=64 time=0
EXTRACT: note_on channel=9 note=42 velocity=53 time=0
EXTRACT: note_on channel=9 note=42 velocity=0 time=0.0057471250000000005
EXTRACT: note_on channel=9 note=37 velocity=0 time=0
EXTRACT: note_on channel=9 note=35 velocity=0 time=0
EXTRACT: note_on channel=4 note=60 velocity=75 time=0.0057471250000000005
EXTRACT: note_on channel=4 note=57 velocity=64 time=0
EXTRACT: note_on channel=4 note=65 velocity=71 time=0
EXTRACT: note_on channel=5 note=65 velocity=69 time=0
EXTRACT: note_on channel=5 note=70 velocity=64 time=0
EXTRACT: note_on channel=6 note=60 velocity=53 time=0
EXTRACT: note_on channel=0 note=60 velocity=0 time=0.27011487500000003
EXTRACT: note_on channel=3 note=67 velocity=0 time=0.0057471250000000005
EXTRACT: note_on channel=6 note=65 velocity=0 time=0.028735625
EXTRACT: note_on channel=0 note=69 velocity=0 time=0.017241375000000003
EXTRACT: note_on channel=4 note=45 velocity=0 time=0
EXTRACT: note_on channel=3 note=67 velocity=109 time=0
EXTRACT: note_on channel=0 note=60 velocity=71 time=0
EXTRACT: note_on channel=4 note=60 velocity=0 time=0
EXTRACT: note_on channel=4 note=57 velocity=0 time=0
EXTRACT: note_on channel=4 note=65 velocity=0 time=0
EXTRACT: note_on channel=4 note=45 velocity=55 time=0
EXTRACT: note_on channel=5 note=70 velocity=0 time=0
EXTRACT: note_on channel=5 note=65 velocity=0 time=0
EXTRACT: note_on channel=9 note=40 velocity=81 time=0
EXTRACT: note_on channel=9 note=39 velocity=114 time=0
EXTRACT: note_on channel=9 note=42 velocity=67 time=0
EXTRACT: note_on channel=9 note=42 velocity=0 time=0.0057471250000000005
EXTRACT: note_on channel=9 note=39 velocity=0 time=0
EXTRACT: note_on channel=9 note=40 velocity=0 time=0
EXTRACT: note_on channel=4 note=60 velocity=74 time=0.0057471250000000005
EXTRACT: note_on channel=4 note=57 velocity=74 time=0
EXTRACT: note_on channel=4 note=65 velocity=74 time=0
EXTRACT: note_on channel=5 note=65 velocity=76 time=0
EXTRACT: note_on channel=5 note=70 velocity=69 time=0
EXTRACT: note_on channel=6 note=65 velocity=64 time=0
EXTRACT: note_on channel=0 note=72 velocity=0 time=0.011494250000000001
EXTRACT: note_on channel=4 note=45 velocity=0 time=0.13793100000000003
EXTRACT: note_on channel=4 note=60 velocity=0 time=0.011494250000000001
EXTRACT: note_on channel=4 note=57 velocity=0 time=0
EXTRACT: note_on channel=4 note=65 velocity=0 time=0
EXTRACT: note_on channel=4 note=45 velocity=55 time=0
EXTRACT: note_on channel=5 note=70 velocity=0 time=0
EXTRACT: note_on channel=5 note=65 velocity=0 time=0
EXTRACT: note_on channel=9 note=35 velocity=61 time=0
EXTRACT: note_on channel=0 note=74 velocity=100 time=0.0057471250000000005
EXTRACT: note_on channel=9 note=35 velocity=0 time=0
EXTRACT: note_on channel=4 note=60 velocity=77 time=0.0057471250000000005
EXTRACT: note_on channel=4 note=57 velocity=65 time=0
EXTRACT: note_on channel=4 note=65 velocity=69 time=0
EXTRACT: note_on channel=5 note=65 velocity=69 time=0
EXTRACT: note_on channel=5 note=70 velocity=67 time=0
EXTRACT: note_on channel=3 note=67 velocity=0 time=0.12068962500000001
EXTRACT: note_on channel=6 note=60 velocity=0 time=0
EXTRACT: note_on channel=0 note=65 velocity=0 time=0.0057471250000000005
EXTRACT: note_on channel=4 note=45 velocity=0 time=0.022988500000000002
EXTRACT: note_on channel=3 note=65 velocity=103 time=0
EXTRACT: note_on channel=0 note=65 velocity=60 time=0
EXTRACT: note_on channel=4 note=60 velocity=0 time=0
EXTRACT: note_on channel=4 note=57 velocity=0 time=0
EXTRACT: note_on channel=4 note=65 velocity=0 time=0
EXTRACT: note_on channel=4 note=45 velocity=55 time=0
EXTRACT: note_on channel=5 note=70 velocity=0 time=0
EXTRACT: note_on channel=5 note=65 velocity=0 time=0
EXTRACT: note_on channel=9 note=40 velocity=65 time=0
EXTRACT: note_on channel=9 note=42 velocity=51 time=0
EXTRACT: note_on channel=9 note=28 velocity=51 time=0
EXTRACT: note_on channel=9 note=28 velocity=0 time=0.0057471250000000005
EXTRACT: note_on channel=9 note=42 velocity=0 time=0
EXTRACT: note_on channel=9 note=40 velocity=0 time=0
EXTRACT: note_on channel=4 note=60 velocity=79 time=0.0057471250000000005
EXTRACT: note_on channel=4 note=57 velocity=65 time=0
EXTRACT: note_on channel=4 note=65 velocity=72 time=0
EXTRACT: note_on channel=5 note=65 velocity=64 time=0
EXTRACT: note_on channel=5 note=70 velocity=63 time=0
EXTRACT: note_on channel=6 note=60 velocity=58 time=0
EXTRACT: note_on channel=4 note=45 velocity=0 time=0.14942525
EXTRACT: note_on channel=4 note=60 velocity=0 time=0.011494250000000001
EXTRACT: note_on channel=4 note=57 velocity=0 time=0
EXTRACT: note_on channel=4 note=65 velocity=0 time=0
EXTRACT: note_on channel=4 note=45 velocity=55 time=0
EXTRACT: note_on channel=5 note=70 velocity=0 time=0
EXTRACT: note_on channel=5 note=65 velocity=0 time=0
EXTRACT: note_on channel=9 note=36 velocity=97 time=0
EXTRACT: note_on channel=9 note=41 velocity=110 time=0
EXTRACT: note_on channel=9 note=41 velocity=0 time=0.0057471250000000005
EXTRACT: note_on channel=9 note=36 velocity=0 time=0
EXTRACT: note_on channel=4 note=60 velocity=65 time=0.0057471250000000005
EXTRACT: note_on channel=4 note=57 velocity=65 time=0
EXTRACT: note_on channel=4 note=65 velocity=65 time=0
EXTRACT: note_on channel=5 note=65 velocity=64 time=0
EXTRACT: note_on channel=5 note=70 velocity=64 time=0
EXTRACT: note_on channel=0 note=53 velocity=0 time=0.09195400000000001
EXTRACT: note_on channel=0 note=60 velocity=0 time=0.034482750000000006
EXTRACT: note_on channel=3 note=65 velocity=0 time=0.011494250000000001
EXTRACT: note_on channel=6 note=60 velocity=0 time=0
EXTRACT: note_on channel=6 note=65 velocity=0 time=0
EXTRACT: note_on channel=0 note=45 velocity=0 time=0.0057471250000000005
EXTRACT: note_on channel=4 note=45 velocity=0 time=0.0057471250000000005
EXTRACT: note_on channel=2 note=33 velocity=0 time=0.0057471250000000005
EXTRACT: note_on channel=0 note=65 velocity=0 time=0
EXTRACT: note_on channel=8 note=69 velocity=0 time=0
EXTRACT: note_on channel=8 note=77 velocity=0 time=0
EXTRACT: note_on channel=10 note=67 velocity=85 time=0
EXTRACT: note_on channel=3 note=74 velocity=111 time=0
EXTRACT: note_on channel=1 note=67 velocity=93 time=0
EXTRACT: note_on channel=2 note=31 velocity=96 time=0
EXTRACT: note_on channel=4 note=60 velocity=0 time=0
EXTRACT: note_on channel=4 note=57 velocity=0 time=0
EXTRACT: note_on channel=4 note=65 velocity=0 time=0
EXTRACT: note_on channel=4 note=43 velocity=55 time=0
EXTRACT: note_on channel=5 note=70 velocity=0 time=0
EXTRACT: note_on channel=5 note=65 velocity=0 time=0
EXTRACT: note_on channel=5 note=62 velocity=65 time=0
EXTRACT: note_on channel=6 note=67 velocity=62 time=0
EXTRACT: note_on channel=8 note=72 velocity=0 time=0
EXTRACT: note_on channel=9 note=36 velocity=114 time=0
EXTRACT: note_on channel=9 note=41 velocity=110 time=0
EXTRACT: note_on channel=9 note=46 velocity=81 time=0
EXTRACT: note_on channel=0 note=55 velocity=74 time=0.0057471250000000005
EXTRACT: note_on channel=0 note=43 velocity=64 time=0
EXTRACT: note_on channel=0 note=67 velocity=69 time=0
EXTRACT: note_on channel=0 note=62 velocity=75 time=0
EXTRACT: note_on channel=5 note=67 velocity=74 time=0
EXTRACT: note_on channel=5 note=70 velocity=65 time=0
EXTRACT: note_on channel=10 note=79 velocity=83 time=0
EXTRACT: note_on channel=9 note=46 velocity=0 time=0
EXTRACT: note_on channel=9 note=41 velocity=0 time=0
EXTRACT: note_on channel=9 note=36 velocity=0 time=0
EXTRACT: note_on channel=4 note=58 velocity=68 time=0.0057471250000000005
EXTRACT: note_on channel=4 note=62 velocity=68 time=0
EXTRACT: note_on channel=4 note=67 velocity=63 time=0
EXTRACT: note_on channel=4 note=55 velocity=62 time=0
EXTRACT: note_on channel=8 note=70 velocity=58 time=0
EXTRACT: note_on channel=8 note=74 velocity=72 time=0
EXTRACT: note_on channel=8 note=79 velocity=62 time=0
EXTRACT: note_on channel=4 note=43 velocity=0 time=0.32183900000000004
EXTRACT: note_on channel=5 note=62 velocity=0 time=0
EXTRACT: note_on channel=5 note=70 velocity=0 time=0.0057471250000000005
EXTRACT: note_on channel=5 note=67 velocity=0 time=0
EXTRACT: note_on channel=4 note=67 velocity=0 time=0.0057471250000000005
EXTRACT: note_on channel=4 note=58 velocity=0 time=0
EXTRACT: note_on channel=4 note=62 velocity=0 time=0
EXTRACT: note_on channel=4 note=55 velocity=0 time=0
EXTRACT: note_on channel=4 note=43 velocity=55 time=0
EXTRACT: note_on channel=9 note=35 velocity=68 time=0
EXTRACT: note_on channel=9 note=38 velocity=68 time=0
EXTRACT: note_on channel=9 note=42 velocity=54 time=0
EXTRACT: note_on channel=0 note=50 velocity=72 time=0.0057471250000000005
EXTRACT: note_on channel=9 note=42 velocity=0 time=0
EXTRACT: note_on channel=9 note=38 velocity=0 time=0
EXTRACT: note_on channel=9 note=35 velocity=0 time=0
EXTRACT: note_on channel=4 note=58 velocity=62 time=0.0057471250000000005
EXTRACT: note_on channel=4 note=55 velocity=59 time=0
EXTRACT: note_on channel=4 note=67 velocity=58 time=0
EXTRACT: note_on channel=4 note=62 velocity=64 time=0
EXTRACT: note_on channel=5 note=67 velocity=59 time=0
EXTRACT: note_on channel=5 note=62 velocity=58 time=0
EXTRACT: note_on channel=5 note=70 velocity=58 time=0
EXTRACT: note_on channel=6 note=62 velocity=56 time=0
EXTRACT: note_on channel=9 note=35 velocity=63 time=0.16091950000000002
EXTRACT: note_on channel=9 note=35 velocity=0 time=0.0057471250000000005
EXTRACT: note_on channel=3 note=74 velocity=0 time=0.0057471250000000005
EXTRACT: note_on channel=1 note=67 velocity=0 time=0
EXTRACT: note_on channel=0 note=55 velocity=0 time=0.10919537500000001
EXTRACT: note_on channel=6 note=67 velocity=0 time=0.034482750000000006
EXTRACT: note_on channel=4 note=43 velocity=0 time=0.0057471250000000005
EXTRACT: note_on channel=0 note=74 velocity=0 time=0.0057471250000000005
EXTRACT: note_on channel=3 note=67 velocity=106 time=0
EXTRACT: note_on channel=4 note=67 velocity=0 time=0
EXTRACT: note_on channel=4 note=58 velocity=0 time=0
EXTRACT: note_on channel=4 note=55 velocity=0 time=0
EXTRACT: note_on channel=4 note=62 velocity=0 time=0
EXTRACT: note_on channel=4 note=43 velocity=55 time=0
EXTRACT: note_on channel=5 note=70 velocity=0 time=0
EXTRACT: note_on channel=5 note=62 velocity=0 time=0
EXTRACT: note_on channel=5 note=67 velocity=0 time=0
EXTRACT: note_on channel=9 note=40 velocity=77 time=0
EXTRACT: note_on channel=9 note=39 velocity=110 time=0
EXTRACT: note_on channel=9 note=42 velocity=64 time=0
EXTRACT: note_on channel=0 note=55 velocity=72 time=0.0057471250000000005
EXTRACT: note_on channel=9 note=42 velocity=0 time=0
EXTRACT: note_on channel=9 note=39 velocity=0 time=0
EXTRACT: note_on channel=9 note=40 velocity=0 time=0
EXTRACT: note_on channel=4 note=58 velocity=67 time=0.0057471250000000005
EXTRACT: note_on channel=4 note=55 velocity=65 time=0
EXTRACT: note_on channel=4 note=62 velocity=69 time=0
EXTRACT: note_on channel=4 note=67 velocity=61 time=0
EXTRACT: note_on channel=5 note=62 velocity=63 time=0
EXTRACT: note_on channel=5 note=67 velocity=70 time=0
EXTRACT: note_on channel=5 note=70 velocity=63 time=0
EXTRACT: note_on channel=6 note=67 velocity=64 time=0
EXTRACT: note_on channel=9 note=37 velocity=57 time=0.16091950000000002
EXTRACT: note_on channel=9 note=37 velocity=0 time=0.0057471250000000005
EXTRACT: note_on channel=3 note=67 velocity=0 time=0.132183875
EXTRACT: note_on channel=4 note=43 velocity=0 time=0.022988500000000002
EXTRACT: note_on channel=3 note=65 velocity=101 time=0
EXTRACT: note_on channel=4 note=62 velocity=0 time=0
EXTRACT: note_on channel=4 note=58 velocity=0 time=0
EXTRACT: note_on channel=4 note=55 velocity=0 time=0
EXTRACT: note_on channel=4 note=67 velocity=0 time=0
EXTRACT: note_on channel=4 note=43 velocity=55 time=0
EXTRACT: note_on channel=5 note=70 velocity=0 time=0
EXTRACT: note_on channel=5 note=67 velocity=0 time=0
EXTRACT: note_on channel=5 note=62 velocity=0 time=0
EXTRACT: note_on channel=9 note=40 velocity=65 time=0
EXTRACT: note_on channel=9 note=42 velocity=51 time=0
EXTRACT: note_on channel=0 note=58 velocity=79 time=0.0057471250000000005
EXTRACT: note_on channel=9 note=42 velocity=0 time=0
EXTRACT: note_on channel=9 note=40 velocity=0 time=0
EXTRACT: note_on channel=4 note=58 velocity=60 time=0.0057471250000000005
EXTRACT: note_on channel=4 note=62 velocity=63 time=0
EXTRACT: note_on channel=4 note=55 velocity=58 time=0
EXTRACT: note_on channel=4 note=67 velocity=54 time=0
EXTRACT: note_on channel=5 note=67 velocity=59 time=0
EXTRACT: note_on channel=5 note=62 velocity=58 time=0
EXTRACT: note_on channel=5 note=70 velocity=57 time=0
EXTRACT: note_on channel=6 note=65 velocity=55 time=0
EXTRACT: note_on channel=10 note=79 velocity=0 time=0.034482750000000006
EXTRACT: note_on channel=10 note=67 velocity=0 time=0
EXTRACT: note_on channel=4 note=43 velocity=0 time=0.1149425
EXTRACT: note_on channel=4 note=55 velocity=0 time=0.011494250000000001
EXTRACT: note_on channel=4 note=58 velocity=0 time=0
EXTRACT: note_on channel=4 note=62 velocity=0 time=0
EXTRACT: note_on channel=4 note=67 velocity=0 time=0
EXTRACT: note_on channel=4 note=43 velocity=55 time=0
EXTRACT: note_on channel=5 note=70 velocity=0 time=0
EXTRACT: note_on channel=5 note=62 velocity=0 time=0
EXTRACT: note_on channel=5 note=67 velocity=0 time=0
EXTRACT: note_on channel=9 note=39 velocity=110 time=0
EXTRACT: note_on channel=9 note=39 velocity=0 time=0.0057471250000000005
EXTRACT: note_on channel=4 note=58 velocity=71 time=0.0057471250000000005
EXTRACT: note_on channel=4 note=55 velocity=63 time=0
EXTRACT: note_on channel=4 note=62 velocity=71 time=0
EXTRACT: note_on channel=4 note=67 velocity=63 time=0
EXTRACT: note_on channel=5 note=62 velocity=63 time=0
EXTRACT: note_on channel=5 note=67 velocity=69 time=0
EXTRACT: note_on channel=5 note=70 velocity=63 time=0
EXTRACT: note_on channel=6 note=67 velocity=0 time=0.10344825
EXTRACT: note_on channel=0 note=62 velocity=0 time=0.0057471250000000005
EXTRACT: note_on channel=3 note=65 velocity=0 time=0.017241375000000003
EXTRACT: note_on channel=0 note=55 velocity=0 time=0
EXTRACT: note_on channel=0 note=67 velocity=0 time=0.028735625
EXTRACT: note_on channel=3 note=74 velocity=109 time=0
EXTRACT: note_on channel=1 note=67 velocity=93 time=0
EXTRACT: note_on channel=9 note=42 velocity=64 time=0
EXTRACT: note_on channel=0 note=67 velocity=81 time=0.0057471250000000005
EXTRACT: note_on channel=0 note=55 velocity=81 time=0
EXTRACT: note_on channel=0 note=70 velocity=81 time=0
EXTRACT: note_on channel=0 note=62 velocity=81 time=0
EXTRACT: note_on channel=9 note=42 velocity=0 time=0
EXTRACT: note_on channel=6 note=67 velocity=62 time=0.0057471250000000005
EXTRACT: note_on channel=4 note=43 velocity=0 time=0.14942525
EXTRACT: note_on channel=4 note=62 velocity=0 time=0.011494250000000001
EXTRACT: note_on channel=4 note=58 velocity=0 time=0
EXTRACT: note_on channel=4 note=55 velocity=0 time=0
EXTRACT: note_on channel=4 note=67 velocity=0 time=0
EXTRACT: note_on channel=4 note=43 velocity=55 time=0
EXTRACT: note_on channel=5 note=70 velocity=0 time=0
EXTRACT: note_on channel=5 note=67 velocity=0 time=0
EXTRACT: note_on channel=5 note=62 velocity=0 time=0
EXTRACT: note_on channel=9 note=35 velocity=62 time=0
EXTRACT: note_on channel=9 note=37 velocity=59 time=0
EXTRACT: note_on channel=9 note=37 velocity=0 time=0.0057471250000000005
EXTRACT: note_on channel=9 note=35 velocity=0 time=0
EXTRACT: note_on channel=4 note=58 velocity=63 time=0.0057471250000000005
EXTRACT: note_on channel=4 note=62 velocity=64 time=0
EXTRACT: note_on channel=4 note=55 velocity=60 time=0
EXTRACT: note_on channel=4 note=67 velocity=58 time=0
EXTRACT: note_on channel=5 note=62 velocity=57 time=0
EXTRACT: note_on channel=5 note=67 velocity=59 time=0
EXTRACT: note_on channel=5 note=70 velocity=58 time=0
EXTRACT: note_on channel=0 note=43 velocity=0 time=0.09770112500000001
EXTRACT: note_on channel=0 note=50 velocity=0 time=0.011494250000000001
EXTRACT: note_on channel=6 note=62 velocity=0 time=0.011494250000000001
EXTRACT: note_on channel=4 note=43 velocity=0 time=0.028735625
EXTRACT: note_on channel=4 note=55 velocity=0 time=0.011494250000000001
EXTRACT: note_on channel=4 note=58 velocity=0 time=0
EXTRACT: note_on channel=4 note=62 velocity=0 time=0
EXTRACT: note_on channel=4 note=67 velocity=0 time=0
EXTRACT: note_on channel=4 note=43 velocity=55 time=0
EXTRACT: note_on channel=5 note=70 velocity=0 time=0
EXTRACT: note_on channel=5 note=67 velocity=0 time=0
EXTRACT: note_on channel=5 note=62 velocity=0 time=0
EXTRACT: note_on channel=9 note=35 velocity=65 time=0
EXTRACT: note_on channel=9 note=37 velocity=63 time=0
EXTRACT: note_on channel=9 note=42 velocity=52 time=0
EXTRACT: note_on channel=0 note=43 velocity=64 time=0.0057471250000000005
EXTRACT: note_on channel=9 note=42 velocity=0 time=0
EXTRACT: note_on channel=9 note=37 velocity=0 time=0
EXTRACT: note_on channel=9 note=35 velocity=0 time=0
EXTRACT: note_on channel=0 note=50 velocity=45 time=0.0057471250000000005
EXTRACT: note_on channel=4 note=58 velocity=65 time=0
EXTRACT: note_on channel=4 note=55 velocity=58 time=0
EXTRACT: note_on channel=4 note=62 velocity=71 time=0
EXTRACT: note_on channel=4 note=67 velocity=60 time=0
EXTRACT: note_on channel=5 note=62 velocity=59 time=0
EXTRACT: note_on channel=5 note=67 velocity=67 time=0
EXTRACT: note_on channel=5 note=70 velocity=65 time=0
EXTRACT: note_on channel=6 note=62 velocity=53 time=0
EXTRACT: note_on channel=3 note=74 velocity=0 time=0.086206875
EXTRACT: note_on channel=1 note=67 velocity=0 time=0
EXTRACT: note_on channel=3 note=67 velocity=106 time=0
EXTRACT: note_on channel=0 note=55 velocity=0 time=0.09195400000000001
EXTRACT: note_on channel=0 note=58 velocity=0 time=0.045977000000000004
EXTRACT: note_on channel=6 note=67 velocity=0 time=0
EXTRACT: note_on channel=4 note=43 velocity=0 time=0.017241375000000003
EXTRACT: note_on channel=4 note=62 velocity=0 time=0.011494250000000001
EXTRACT: note_on channel=4 note=58 velocity=0 time=0
EXTRACT: note_on channel=4 note=55 velocity=0 time=0
EXTRACT: note_on channel=4 note=67 velocity=0 time=0
EXTRACT: note_on channel=4 note=43 velocity=55 time=0
EXTRACT: note_on channel=5 note=70 velocity=0 time=0
EXTRACT: note_on channel=5 note=67 velocity=0 time=0
EXTRACT: note_on channel=5 note=62 velocity=0 time=0
EXTRACT: note_on channel=9 note=40 velocity=75 time=0
EXTRACT: note_on channel=9 note=39 velocity=109 time=0
EXTRACT: note_on channel=9 note=42 velocity=62 time=0
EXTRACT: note_on channel=0 note=70 velocity=0 time=0.0057471250000000005
EXTRACT: note_on channel=0 note=55 velocity=78 time=0
EXTRACT: note_on channel=9 note=42 velocity=0 time=0
EXTRACT: note_on channel=9 note=39 velocity=0 time=0
EXTRACT: note_on channel=9 note=40 velocity=0 time=0
EXTRACT: note_on channel=4 note=58 velocity=70 time=0.0057471250000000005
EXTRACT: note_on channel=4 note=55 velocity=63 time=0
EXTRACT: note_on channel=4 note=62 velocity=69 time=0
EXTRACT: note_on channel=4 note=67 velocity=63 time=0
EXTRACT: note_on channel=5 note=67 velocity=69 time=0
EXTRACT: note_on channel=5 note=62 velocity=65 time=0
EXTRACT: note_on channel=5 note=70 velocity=66 time=0
EXTRACT: note_on channel=6 note=67 velocity=64 time=0
EXTRACT: note_on channel=6 note=65 velocity=0 time=0.0057471250000000005
EXTRACT: note_on channel=4 note=43 velocity=0 time=0.14367812500000002
EXTRACT: note_on channel=4 note=62 velocity=0 time=0.011494250000000001
EXTRACT: note_on channel=4 note=58 velocity=0 time=0
EXTRACT: note_on channel=4 note=55 velocity=0 time=0
EXTRACT: note_on channel=4 note=67 velocity=0 time=0
EXTRACT: note_on channel=4 note=43 velocity=55 time=0
EXTRACT: note_on channel=5 note=70 velocity=0 time=0
EXTRACT: note_on channel=5 note=62 velocity=0 time=0
EXTRACT: note_on channel=5 note=67 velocity=0 time=0
EXTRACT: note_on channel=9 note=35 velocity=62 time=0
EXTRACT: note_on channel=0 note=70 velocity=100 time=0.0057471250000000005
EXTRACT: note_on channel=9 note=35 velocity=0 time=0
EXTRACT: note_on channel=4 note=58 velocity=65 time=0.0057471250000000005
EXTRACT: note_on channel=4 note=62 velocity=67 time=0
EXTRACT: note_on channel=4 note=55 velocity=57 time=0
EXTRACT: note_on channel=4 note=67 velocity=58 time=0
EXTRACT: note_on channel=5 note=62 velocity=48 time=0
EXTRACT: note_on channel=5 note=67 velocity=66 time=0
EXTRACT: note_on channel=5 note=70 velocity=63 time=0
EXTRACT: note_on channel=3 note=67 velocity=0 time=0.086206875
EXTRACT: note_on channel=0 note=62 velocity=0 time=0.028735625
EXTRACT: note_on channel=4 note=43 velocity=0 time=0.034482750000000006
EXTRACT: note_on channel=3 note=65 velocity=109 time=0
EXTRACT: note_on channel=4 note=55 velocity=0 time=0
EXTRACT: note_on channel=4 note=58 velocity=0 time=0
EXTRACT: note_on channel=4 note=62 velocity=0 time=0
EXTRACT: note_on channel=4 note=67 velocity=0 time=0
EXTRACT: note_on channel=4 note=43 velocity=55 time=0
EXTRACT: note_on channel=5 note=70 velocity=0 time=0
EXTRACT: note_on channel=5 note=67 velocity=0 time=0
EXTRACT: note_on channel=5 note=62 velocity=0 time=0
EXTRACT: note_on channel=9 note=40 velocity=66 time=0
EXTRACT: note_on channel=9 note=42 velocity=52 time=0
EXTRACT: note_on channel=9 note=28 velocity=52 time=0
EXTRACT: note_on channel=0 note=62 velocity=78 time=0.0057471250000000005
EXTRACT: note_on channel=9 note=28 velocity=0 time=0
EXTRACT: note_on channel=9 note=42 velocity=0 time=0
EXTRACT: note_on channel=9 note=40 velocity=0 time=0
EXTRACT: note_on channel=4 note=58 velocity=68 time=0.0057471250000000005
EXTRACT: note_on channel=4 note=55 velocity=63 time=0
EXTRACT: note_on channel=4 note=62 velocity=69 time=0
EXTRACT: note_on channel=4 note=67 velocity=61 time=0
EXTRACT: note_on channel=5 note=62 velocity=55 time=0
EXTRACT: note_on channel=5 note=67 velocity=67 time=0
EXTRACT: note_on channel=5 note=70 velocity=63 time=0
EXTRACT: note_on channel=6 note=65 velocity=58 time=0
EXTRACT: note_on channel=4 note=43 velocity=0 time=0.14942525
EXTRACT: note_on channel=4 note=62 velocity=0 time=0.011494250000000001
EXTRACT: note_on channel=4 note=58 velocity=0 time=0
EXTRACT: note_on channel=4 note=55 velocity=0 time=0
EXTRACT: note_on channel=4 note=67 velocity=0 time=0
EXTRACT: note_on channel=4 note=43 velocity=55 time=0
EXTRACT: note_on channel=5 note=70 velocity=0 time=0
EXTRACT: note_on channel=5 note=67 velocity=0 time=0
EXTRACT: note_on channel=5 note=62 velocity=0 time=0
EXTRACT: note_on channel=4 note=58 velocity=59 time=0.011494250000000001
EXTRACT: note_on channel=4 note=67 velocity=59 time=0
EXTRACT: note_on channel=4 note=55 velocity=59 time=0
EXTRACT: note_on channel=4 note=62 velocity=59 time=0
EXTRACT: note_on channel=5 note=62 velocity=63 time=0
EXTRACT: note_on channel=5 note=67 velocity=63 time=0
EXTRACT: note_on channel=5 note=70 velocity=63 time=0
EXTRACT: note_on channel=6 note=62 velocity=0 time=0.09770112500000001
EXTRACT: note_on channel=2 note=31 velocity=0 time=0.011494250000000001
EXTRACT: note_on channel=8 note=79 velocity=0 time=0.011494250000000001
EXTRACT: note_on channel=8 note=70 velocity=0 time=0
EXTRACT: note_on channel=0 note=55 velocity=0 time=0.011494250000000001
EXTRACT: note_on channel=6 note=67 velocity=0 time=0.0057471250000000005
EXTRACT: note_on channel=0 note=50 velocity=0 time=0.0057471250000000005
EXTRACT: note_on channel=0 note=62 velocity=0 time=0.0057471250000000005
EXTRACT: note_on channel=4 note=43 velocity=0 time=0
EXTRACT: note_on channel=2 note=27 velocity=96 time=0.011494250000000001
EXTRACT: note_on channel=4 note=55 velocity=0 time=0
EXTRACT: note_on channel=4 note=58 velocity=0 time=0
EXTRACT: note_on channel=4 note=67 velocity=0 time=0
EXTRACT: note_on channel=4 note=62 velocity=0 time=0
EXTRACT: note_on channel=4 note=39 velocity=55 time=0
EXTRACT: note_on channel=5 note=70 velocity=0 time=0
EXTRACT: note_on channel=5 note=67 velocity=0 time=0
EXTRACT: note_on channel=5 note=62 velocity=0 time=0
EXTRACT: note_on channel=6 note=67 velocity=62 time=0
EXTRACT: note_on channel=9 note=36 velocity=113 time=0
EXTRACT: note_on channel=9 note=41 velocity=110 time=0
EXTRACT: note_on channel=9 note=46 velocity=80 time=0
EXTRACT: note_on channel=0 note=58 velocity=74 time=0.0057471250000000005
EXTRACT: note_on channel=0 note=63 velocity=67 time=0
EXTRACT: note_on channel=0 note=51 velocity=81 time=0
EXTRACT: note_on channel=5 note=70 velocity=65 time=0
EXTRACT: note_on channel=6 note=65 velocity=0 time=0
EXTRACT: note_on channel=9 note=46 velocity=0 time=0
EXTRACT: note_on channel=9 note=41 velocity=0 time=0
EXTRACT: note_on channel=9 note=36 velocity=0 time=0
EXTRACT: note_on channel=0 note=39 velocity=72 time=0.0057471250000000005
EXTRACT: note_on channel=4 note=63 velocity=64 time=0
EXTRACT: note_on channel=4 note=67 velocity=63 time=0
EXTRACT: note_on channel=4 note=58 velocity=65 time=0
EXTRACT: note_on channel=4 note=55 velocity=64 time=0
EXTRACT: note_on channel=5 note=65 velocity=74 time=0
EXTRACT: note_on channel=8 note=74 velocity=0 time=0
EXTRACT: note_on channel=8 note=70 velocity=62 time=0
EXTRACT: note_on channel=8 note=79 velocity=65 time=0
EXTRACT: note_on channel=8 note=75 velocity=63 time=0
EXTRACT: note_on channel=0 note=67 velocity=0 time=0.0057471250000000005
EXTRACT: note_on channel=0 note=43 velocity=0 time=0
EXTRACT: note_on channel=3 note=65 velocity=0 time=0.22413787500000001
EXTRACT: note_on channel=4 note=39 velocity=0 time=0.09195400000000001
EXTRACT: note_on channel=5 note=70 velocity=0 time=0.0057471250000000005
EXTRACT: note_on channel=4 note=58 velocity=0 time=0.0057471250000000005
EXTRACT: note_on channel=4 note=63 velocity=0 time=0
EXTRACT: note_on channel=4 note=67 velocity=0 time=0
EXTRACT: note_on channel=4 note=55 velocity=0 time=0
EXTRACT: note_on channel=4 note=39 velocity=55 time=0
EXTRACT: note_on channel=5 note=65 velocity=0 time=0
EXTRACT: note_on channel=9 note=35 velocity=64 time=0
EXTRACT: note_on channel=9 note=38 velocity=64 time=0
EXTRACT: note_on channel=9 note=42 velocity=50 time=0
EXTRACT: note_on channel=0 note=46 velocity=72 time=0.0057471250000000005
EXTRACT: note_on channel=9 note=42 velocity=0 time=0
EXTRACT: note_on channel=9 note=38 velocity=0 time=0
EXTRACT: note_on channel=9 note=35 velocity=0 time=0
EXTRACT: note_on channel=4 note=58 velocity=61 time=0.0057471250000000005
EXTRACT: note_on channel=4 note=63 velocity=63 time=0
EXTRACT: note_on channel=4 note=55 velocity=58 time=0
EXTRACT: note_on channel=4 note=67 velocity=56 time=0
EXTRACT: note_on channel=5 note=65 velocity=73 time=0
EXTRACT: note_on channel=5 note=70 velocity=63 time=0
EXTRACT: note_on channel=6 note=63 velocity=56 time=0
EXTRACT: note_on channel=9 note=35 velocity=64 time=0.16091950000000002
EXTRACT: note_on channel=9 note=35 velocity=0 time=0.0057471250000000005
EXTRACT: note_on channel=0 note=51 velocity=0 time=0.09770112500000001
EXTRACT: note_on channel=6 note=67 velocity=0 time=0.051724125
EXTRACT: note_on channel=4 note=39 velocity=0 time=0.0057471250000000005
EXTRACT: note_on channel=4 note=55 velocity=0 time=0.011494250000000001
EXTRACT: note_on channel=4 note=58 velocity=0 time=0
EXTRACT: note_on channel=4 note=63 velocity=0 time=0
EXTRACT: note_on channel=4 note=67 velocity=0 time=0
EXTRACT: note_on channel=4 note=39 velocity=55 time=0
EXTRACT: note_on channel=5 note=70 velocity=0 time=0
EXTRACT: note_on channel=5 note=65 velocity=0 time=0
EXTRACT: note_on channel=9 note=40 velocity=78 time=0
EXTRACT: note_on channel=9 note=39 velocity=111 time=0
EXTRACT: note_on channel=9 note=42 velocity=64 time=0
EXTRACT: note_on channel=0 note=70 velocity=0 time=0.0057471250000000005
EXTRACT: note_on channel=0 note=51 velocity=74 time=0
EXTRACT: note_on channel=9 note=42 velocity=0 time=0
EXTRACT: note_on channel=9 note=39 velocity=0 time=0
EXTRACT: note_on channel=9 note=40 velocity=0 time=0
EXTRACT: note_on channel=4 note=58 velocity=65 time=0.0057471250000000005
EXTRACT: note_on channel=4 note=67 velocity=65 time=0
EXTRACT: note_on channel=4 note=63 velocity=67 time=0
EXTRACT: note_on channel=4 note=55 velocity=62 time=0
EXTRACT: note_on channel=5 note=67 velocity=74 time=0
EXTRACT: note_on channel=5 note=70 velocity=76 time=0
EXTRACT: note_on channel=6 note=67 velocity=64 time=0
EXTRACT: note_on channel=9 note=37 velocity=57 time=0.16091950000000002
EXTRACT: note_on channel=9 note=37 velocity=0 time=0.0057471250000000005
EXTRACT: note_on channel=0 note=63 velocity=0 time=0.09770112500000001
EXTRACT: note_on channel=0 note=58 velocity=0 time=0.0057471250000000005
EXTRACT: note_on channel=4 note=39 velocity=0 time=0.051724125
EXTRACT: note_on channel=5 note=67 velocity=0 time=0
EXTRACT: note_on channel=4 note=63 velocity=0 time=0.011494250000000001
EXTRACT: note_on channel=4 note=58 velocity=0 time=0
EXTRACT: note_on channel=4 note=67 velocity=0 time=0
EXTRACT: note_on channel=4 note=55 velocity=0 time=0
EXTRACT: note_on channel=4 note=39 velocity=55 time=0
EXTRACT: note_on channel=5 note=70 velocity=0 time=0
EXTRACT: note_on channel=9 note=40 velocity=67 time=0
EXTRACT: note_on channel=9 note=42 velocity=53 time=0
EXTRACT: note_on channel=0 note=63 velocity=73 time=0.0057471250000000005
EXTRACT: note_on channel=0 note=58 velocity=79 time=0
EXTRACT: note_on channel=0 note=67 velocity=73 time=0
EXTRACT: note_on channel=9 note=42 velocity=0 time=0
EXTRACT: note_on channel=9 note=40 velocity=0 time=0
EXTRACT: note_on channel=4 note=58 velocity=59 time=0.0057471250000000005
EXTRACT: note_on channel=4 note=63 velocity=61 time=0
EXTRACT: note_on channel=4 note=67 velocity=58 time=0
EXTRACT: note_on channel=4 note=55 velocity=57 time=0
EXTRACT: note_on channel=5 note=65 velocity=67 time=0
EXTRACT: note_on channel=5 note=70 velocity=67 time=0
EXTRACT: note_on channel=6 note=65 velocity=55 time=0
EXTRACT: note_on channel=4 note=39 velocity=0 time=0.14942525
EXTRACT: note_on channel=3 note=58 velocity=83 time=0
EXTRACT: note_on channel=4 note=67 velocity=0 time=0
EXTRACT: note_on channel=4 note=58 velocity=0 time=0
EXTRACT: note_on channel=4 note=63 velocity=0 time=0
EXTRACT: note_on channel=4 note=55 velocity=0 time=0
EXTRACT: note_on channel=4 note=39 velocity=55 time=0
EXTRACT: note_on channel=5 note=70 velocity=0 time=0
EXTRACT: note_on channel=5 note=65 velocity=0 time=0
EXTRACT: note_on channel=9 note=39 velocity=108 time=0
EXTRACT: note_on channel=9 note=39 velocity=0 time=0.0057471250000000005
EXTRACT: note_on channel=4 note=58 velocity=67 time=0.0057471250000000005
EXTRACT: note_on channel=4 note=55 velocity=61 time=0
EXTRACT: note_on channel=4 note=63 velocity=65 time=0
EXTRACT: note_on channel=4 note=67 velocity=59 time=0
EXTRACT: note_on channel=5 note=70 velocity=75 time=0
EXTRACT: note_on channel=5 note=67 velocity=75 time=0
EXTRACT: note_on channel=6 note=67 velocity=0 time=0.10344825
EXTRACT: note_on channel=3 note=58 velocity=0 time=0.022988500000000002
EXTRACT: note_on channel=3 note=63 velocity=108 time=0
EXTRACT: note_on channel=1 note=67 velocity=93 time=0
EXTRACT: note_on channel=9 note=42 velocity=61 time=0
EXTRACT: note_on channel=9 note=42 velocity=0 time=0.0057471250000000005
EXTRACT: note_on channel=6 note=67 velocity=62 time=0.0057471250000000005
EXTRACT: note_on channel=4 note=39 velocity=0 time=0.14942525
EXTRACT: note_on channel=4 note=63 velocity=0 time=0.011494250000000001
EXTRACT: note_on channel=4 note=58 velocity=0 time=0
EXTRACT: note_on channel=4 note=55 velocity=0 time=0
EXTRACT: note_on channel=4 note=67 velocity=0 time=0
EXTRACT: note_on channel=4 note=39 velocity=55 time=0
EXTRACT: note_on channel=5 note=67 velocity=0 time=0
EXTRACT: note_on channel=5 note=70 velocity=0 time=0
EXTRACT: note_on channel=9 note=35 velocity=61 time=0
EXTRACT: note_on channel=9 note=37 velocity=59 time=0
EXTRACT: note_on channel=9 note=37 velocity=0 time=0.0057471250000000005
EXTRACT: note_on channel=9 note=35 velocity=0 time=0
EXTRACT: note_on channel=4 note=58 velocity=61 time=0.0057471250000000005
EXTRACT: note_on channel=4 note=67 velocity=59 time=0
EXTRACT: note_on channel=4 note=63 velocity=61 time=0
EXTRACT: note_on channel=4 note=55 velocity=58 time=0
EXTRACT: note_on channel=5 note=65 velocity=70 time=0
EXTRACT: note_on channel=5 note=70 velocity=67 time=0
EXTRACT: note_on channel=0 note=51 velocity=0 time=0.08045975000000001
EXTRACT: note_on channel=3 note=63 velocity=0 time=0.022988500000000002
EXTRACT: note_on channel=1 note=67 velocity=0 time=0
EXTRACT: note_on channel=6 note=63 velocity=0 time=0.017241375000000003
EXTRACT: note_on channel=4 note=39 velocity=0 time=0.028735625
EXTRACT: note_on channel=10 note=67 velocity=85 time=0.0057471250000000005
EXTRACT: note_on channel=10 note=79 velocity=83 time=0
EXTRACT: note_on channel=3 note=63 velocity=109 time=0
EXTRACT: note_on channel=1 note=67 velocity=93 time=0
EXTRACT: note_on channel=0 note=51 velocity=62 time=0
EXTRACT: note_on channel=4 note=63 velocity=0 time=0
EXTRACT: note_on channel=4 note=58 velocity=0 time=0
EXTRACT: note_on channel=4 note=67 velocity=0 time=0
EXTRACT: note_on channel=4 note=55 velocity=0 time=0
EXTRACT: note_on channel=4 note=39 velocity=55 time=0
EXTRACT: note_on channel=5 note=70 velocity=0 time=0
EXTRACT: note_on channel=5 note=65 velocity=0 time=0
EXTRACT: note_on channel=9 note=35 velocity=67 time=0
EXTRACT: note_on channel=9 note=37 velocity=64 time=0
EXTRACT: note_on channel=9 note=42 velocity=53 time=0
EXTRACT: note_on channel=9 note=42 velocity=0 time=0.0057471250000000005
EXTRACT: note_on channel=9 note=37 velocity=0 time=0
EXTRACT: note_on channel=9 note=35 velocity=0 time=0
EXTRACT: note_on channel=4 note=58 velocity=68 time=0.0057471250000000005
EXTRACT: note_on channel=4 note=67 velocity=65 time=0
EXTRACT: note_on channel=4 note=63 velocity=68 time=0
EXTRACT: note_on channel=4 note=55 velocity=60 time=0
EXTRACT: note_on channel=5 note=65 velocity=81 time=0
EXTRACT: note_on channel=5 note=70 velocity=74 time=0
EXTRACT: note_on channel=6 note=63 velocity=53 time=0
EXTRACT: note_on channel=10 note=79 velocity=0 time=0.189655125
EXTRACT: note_on channel=10 note=67 velocity=0 time=0.011494250000000001
EXTRACT: note_on channel=0 note=58 velocity=0 time=0.028735625
EXTRACT: note_on channel=6 note=67 velocity=0 time=0.074712625
EXTRACT: note_on channel=4 note=39 velocity=0 time=0.017241375000000003
EXTRACT: note_on channel=10 note=67 velocity=77 time=0.0057471250000000005
EXTRACT: note_on channel=10 note=79 velocity=81 time=0
EXTRACT: note_on channel=4 note=63 velocity=0 time=0.0057471250000000005
EXTRACT: note_on channel=4 note=58 velocity=0 time=0
EXTRACT: note_on channel=4 note=67 velocity=0 time=0
EXTRACT: note_on channel=4 note=55 velocity=0 time=0
EXTRACT: note_on channel=4 note=39 velocity=55 time=0
EXTRACT: note_on channel=5 note=70 velocity=0 time=0
EXTRACT: note_on channel=5 note=65 velocity=0 time=0
EXTRACT: note_on channel=9 note=40 velocity=81 time=0
EXTRACT: note_on channel=9 note=39 velocity=114 time=0
EXTRACT: note_on channel=9 note=42 velocity=67 time=0
EXTRACT: note_on channel=9 note=42 velocity=0 time=0.0057471250000000005
EXTRACT: note_on channel=9 note=39 velocity=0 time=0
EXTRACT: note_on channel=9 note=40 velocity=0 time=0
EXTRACT: note_on channel=0 note=58 velocity=69 time=0.0057471250000000005
EXTRACT: note_on channel=4 note=67 velocity=65 time=0
EXTRACT: note_on channel=4 note=58 velocity=69 time=0
EXTRACT: note_on channel=4 note=63 velocity=69 time=0
EXTRACT: note_on channel=4 note=55 velocity=63 time=0
EXTRACT: note_on channel=5 note=70 velocity=66 time=0
EXTRACT: note_on channel=5 note=65 velocity=66 time=0
EXTRACT: note_on channel=6 note=67 velocity=64 time=0
EXTRACT: note_on channel=6 note=65 velocity=0 time=0.0057471250000000005
EXTRACT: note_on channel=4 note=39 velocity=0 time=0.14367812500000002
EXTRACT: note_on channel=4 note=63 velocity=0 time=0.011494250000000001
EXTRACT: note_on channel=4 note=67 velocity=0 time=0
EXTRACT: note_on channel=4 note=58 velocity=0 time=0
EXTRACT: note_on channel=4 note=55 velocity=0 time=0
EXTRACT: note_on channel=4 note=39 velocity=55 time=0
EXTRACT: note_on channel=5 note=65 velocity=0 time=0
EXTRACT: note_on channel=5 note=70 velocity=0 time=0
EXTRACT: note_on channel=9 note=35 velocity=61 time=0
EXTRACT: note_on channel=9 note=35 velocity=0 time=0.0057471250000000005
EXTRACT: note_on channel=4 note=58 velocity=67 time=0.0057471250000000005
EXTRACT: note_on channel=4 note=63 velocity=67 time=0
EXTRACT: note_on channel=4 note=67 velocity=60 time=0
EXTRACT: note_on channel=4 note=55 velocity=61 time=0
EXTRACT: note_on channel=5 note=65 velocity=64 time=0
EXTRACT: note_on channel=5 note=70 velocity=69 time=0
EXTRACT: note_on channel=10 note=79 velocity=0 time=0
EXTRACT: note_on channel=10 note=67 velocity=0 time=0.0057471250000000005
EXTRACT: note_on channel=3 note=63 velocity=0 time=0.06896550000000001
EXTRACT: note_on channel=1 note=67 velocity=0 time=0
EXTRACT: note_on channel=4 note=39 velocity=0 time=0.074712625
EXTRACT: note_on channel=3 note=63 velocity=107 time=0
EXTRACT: note_on channel=1 note=67 velocity=93 time=0
EXTRACT: note_on channel=4 note=67 velocity=0 time=0
EXTRACT: note_on channel=4 note=58 velocity=0 time=0
EXTRACT: note_on channel=4 note=63 velocity=0 time=0
EXTRACT: note_on channel=4 note=55 velocity=0 time=0
EXTRACT: note_on channel=4 note=39 velocity=55 time=0
EXTRACT: note_on channel=5 note=70 velocity=0 time=0
EXTRACT: note_on channel=5 note=65 velocity=0 time=0
EXTRACT: note_on channel=9 note=38 velocity=65 time=0
EXTRACT: note_on channel=9 note=40 velocity=65 time=0
EXTRACT: note_on channel=9 note=42 velocity=51 time=0
EXTRACT: note_on channel=9 note=28 velocity=51 time=0
EXTRACT: note_on channel=10 note=79 velocity=86 time=0.0057471250000000005
EXTRACT: note_on channel=10 note=67 velocity=85 time=0
EXTRACT: note_on channel=9 note=28 velocity=0 time=0
EXTRACT: note_on channel=9 note=38 velocity=0 time=0
EXTRACT: note_on channel=9 note=40 velocity=0 time=0
EXTRACT: note_on channel=9 note=42 velocity=0 time=0
EXTRACT: note_on channel=4 note=58 velocity=66 time=0.0057471250000000005
EXTRACT: note_on channel=4 note=67 velocity=60 time=0
EXTRACT: note_on channel=4 note=63 velocity=69 time=0
EXTRACT: note_on channel=4 note=55 velocity=60 time=0
EXTRACT: note_on channel=5 note=65 velocity=70 time=0
EXTRACT: note_on channel=5 note=70 velocity=68 time=0
EXTRACT: note_on channel=6 note=65 velocity=58 time=0
EXTRACT: note_on channel=4 note=39 velocity=0 time=0.14942525
EXTRACT: note_on channel=4 note=63 velocity=0 time=0.011494250000000001
EXTRACT: note_on channel=4 note=58 velocity=0 time=0
EXTRACT: note_on channel=4 note=67 velocity=0 time=0
EXTRACT: note_on channel=4 note=55 velocity=0 time=0
EXTRACT: note_on channel=4 note=39 velocity=55 time=0
EXTRACT: note_on channel=5 note=70 velocity=0 time=0
EXTRACT: note_on channel=5 note=65 velocity=0 time=0
EXTRACT: note_on channel=9 note=36 velocity=97 time=0
EXTRACT: note_on channel=9 note=36 velocity=0 time=0.0057471250000000005
EXTRACT: note_on channel=4 note=67 velocity=57 time=0.0057471250000000005
EXTRACT: note_on channel=4 note=58 velocity=57 time=0
EXTRACT: note_on channel=4 note=55 velocity=57 time=0
EXTRACT: note_on channel=4 note=63 velocity=57 time=0
EXTRACT: note_on channel=5 note=65 velocity=63 time=0
EXTRACT: note_on channel=5 note=70 velocity=63 time=0
EXTRACT: note_on channel=10 note=79 velocity=0 time=0.045977000000000004
EXTRACT: note_on channel=10 note=67 velocity=0 time=0.017241375000000003
EXTRACT: note_on channel=2 note=27 velocity=0 time=0.022988500000000002
EXTRACT: note_on channel=0 note=46 velocity=0 time=0.011494250000000001
EXTRACT: note_on channel=0 note=51 velocity=0 time=0
EXTRACT: note_on channel=6 note=63 velocity=0 time=0
EXTRACT: note_on channel=0 note=58 velocity=0 time=0.0057471250000000005
EXTRACT: note_on channel=0 note=39 velocity=0 time=0.017241375000000003
EXTRACT: note_on channel=8 note=70 velocity=0 time=0
EXTRACT: note_on channel=0 note=67 velocity=0 time=0.011494250000000001
EXTRACT: note_on channel=0 note=63 velocity=0 time=0
EXTRACT: note_on channel=6 note=67 velocity=0 time=0.0057471250000000005
EXTRACT: note_on channel=8 note=79 velocity=0 time=0
EXTRACT: note_on channel=6 note=65 velocity=0 time=0.0057471250000000005
EXTRACT: note_on channel=4 note=39 velocity=0 time=0.0057471250000000005
EXTRACT: note_on channel=8 note=75 velocity=0 time=0.0057471250000000005
EXTRACT: note_on channel=2 note=34 velocity=96 time=0.0057471250000000005
EXTRACT: note_on channel=4 note=55 velocity=0 time=0
EXTRACT: note_on channel=4 note=67 velocity=0 time=0
EXTRACT: note_on channel=4 note=58 velocity=0 time=0
EXTRACT: note_on channel=4 note=63 velocity=0 time=0
EXTRACT: note_on channel=4 note=46 velocity=55 time=0
EXTRACT: note_on channel=5 note=70 velocity=0 time=0
EXTRACT: note_on channel=5 note=65 velocity=0 time=0
EXTRACT: note_on channel=6 note=67 velocity=62 time=0
EXTRACT: note_on channel=8 note=77 velocity=59 time=0
EXTRACT: note_on channel=8 note=74 velocity=73 time=0
EXTRACT: note_on channel=8 note=70 velocity=59 time=0
EXTRACT: note_on channel=9 note=36 velocity=114 time=0
EXTRACT: note_on channel=9 note=41 velocity=110 time=0
EXTRACT: note_on channel=9 note=46 velocity=81 time=0
EXTRACT: note_on channel=0 note=46 velocity=79 time=0.0057471250000000005
EXTRACT: note_on channel=0 note=70 velocity=76 time=0
EXTRACT: note_on channel=10 note=77 velocity=92 time=0
EXTRACT: note_on channel=10 note=65 velocity=92 time=0
EXTRACT: note_on channel=9 note=46 velocity=0 time=0
EXTRACT: note_on channel=9 note=41 velocity=0 time=0
EXTRACT: note_on channel=9 note=36 velocity=0 time=0
EXTRACT: note_on channel=0 note=65 velocity=76 time=0.0057471250000000005
EXTRACT: note_on channel=4 note=58 velocity=74 time=0
EXTRACT: note_on channel=4 note=62 velocity=69 time=0
EXTRACT: note_on channel=4 note=65 velocity=66 time=0
EXTRACT: note_on channel=4 note=53 velocity=66 time=0
EXTRACT: note_on channel=5 note=65 velocity=74 time=0
EXTRACT: note_on channel=5 note=70 velocity=63 time=0
EXTRACT: note_on channel=3 note=63 velocity=0 time=0.27011487500000003
EXTRACT: note_on channel=1 note=67 velocity=0 time=0
EXTRACT: note_on channel=4 note=46 velocity=0 time=0.051724125
EXTRACT: note_on channel=3 note=62 velocity=83 time=0
EXTRACT: note_on channel=1 note=65 velocity=83 time=0
EXTRACT: note_on channel=4 note=65 velocity=0 time=0
EXTRACT: note_on channel=4 note=58 velocity=0 time=0
EXTRACT: note_on channel=4 note=62 velocity=0 time=0
EXTRACT: note_on channel=4 note=53 velocity=0 time=0
EXTRACT: note_on channel=4 note=46 velocity=55 time=0
EXTRACT: note_on channel=5 note=70 velocity=0 time=0
EXTRACT: note_on channel=5 note=65 velocity=0 time=0
EXTRACT: note_on channel=9 note=35 velocity=68 time=0
EXTRACT: note_on channel=9 note=38 velocity=68 time=0
EXTRACT: note_on channel=9 note=42 velocity=54 time=0
EXTRACT: note_on channel=9 note=42 velocity=0 time=0.0057471250000000005
EXTRACT: note_on channel=9 note=38 velocity=0 time=0
EXTRACT: note_on channel=9 note=35 velocity=0 time=0
EXTRACT: note_on channel=0 note=53 velocity=76 time=0.0057471250000000005
EXTRACT: note_on channel=4 note=53 velocity=60 time=0
EXTRACT: note_on channel=4 note=58 velocity=61 time=0
EXTRACT: note_on channel=4 note=62 velocity=61 time=0
EXTRACT: note_on channel=4 note=65 velocity=59 time=0
EXTRACT: note_on channel=5 note=70 velocity=62 time=0
EXTRACT: note_on channel=5 note=65 velocity=64 time=0
EXTRACT: note_on channel=6 note=62 velocity=56 time=0
EXTRACT: note_on channel=3 note=62 velocity=0 time=0.13793100000000003
EXTRACT: note_on channel=1 note=65 velocity=0 time=0
EXTRACT: note_on channel=9 note=35 velocity=63 time=0.022988500000000002
EXTRACT: note_on channel=1 note=65 velocity=93 time=0.0057471250000000005
EXTRACT: note_on channel=9 note=35 velocity=0 time=0
EXTRACT: note_on channel=3 note=62 velocity=105 time=0
EXTRACT: note_on channel=6 note=67 velocity=0 time=0.14367812500000002
EXTRACT: note_on channel=4 note=46 velocity=0 time=0.0057471250000000005
EXTRACT: note_on channel=4 note=62 velocity=0 time=0.011494250000000001
EXTRACT: note_on channel=4 note=53 velocity=0 time=0
EXTRACT: note_on channel=4 note=58 velocity=0 time=0
EXTRACT: note_on channel=4 note=65 velocity=0 time=0
EXTRACT: note_on channel=4 note=46 velocity=55 time=0
EXTRACT: note_on channel=5 note=65 velocity=0 time=0
EXTRACT: note_on channel=5 note=70 velocity=0 time=0
EXTRACT: note_on channel=9 note=40 velocity=77 time=0
EXTRACT: note_on channel=9 note=39 velocity=110 time=0
EXTRACT: note_on channel=9 note=42 velocity=64 time=0
EXTRACT: note_on channel=0 note=62 velocity=55 time=0.0057471250000000005
EXTRACT: note_on channel=5 note=65 velocity=74 time=0
EXTRACT: note_on channel=9 note=42 velocity=0 time=0
EXTRACT: note_on channel=9 note=39 velocity=0 time=0
EXTRACT: note_on channel=9 note=40 velocity=0 time=0
EXTRACT: note_on channel=4 note=58 velocity=65 time=0.0057471250000000005
EXTRACT: note_on channel=4 note=53 velocity=64 time=0
EXTRACT: note_on channel=4 note=62 velocity=67 time=0
EXTRACT: note_on channel=4 note=65 velocity=63 time=0
EXTRACT: note_on channel=5 note=70 velocity=65 time=0
EXTRACT: note_on channel=6 note=67 velocity=64 time=0
EXTRACT: note_on channel=10 note=65 velocity=0 time=0.051724125
EXTRACT: note_on channel=10 note=77 velocity=0 time=0
EXTRACT: note_on channel=9 note=37 velocity=57 time=0.10919537500000001
EXTRACT: note_on channel=9 note=37 velocity=0 time=0.0057471250000000005
EXTRACT: note_on channel=0 note=65 velocity=0 time=0.09770112500000001
EXTRACT: note_on channel=1 note=65 velocity=0 time=0.022988500000000002
EXTRACT: note_on channel=3 note=62 velocity=0 time=0.0057471250000000005
EXTRACT: note_on channel=4 note=46 velocity=0 time=0.028735625
EXTRACT: note_on channel=5 note=65 velocity=0 time=0.0057471250000000005
EXTRACT: note_on channel=3 note=63 velocity=84 time=0
EXTRACT: note_on channel=1 note=67 velocity=85 time=0
EXTRACT: note_on channel=4 note=62 velocity=0 time=0
EXTRACT: note_on channel=4 note=58 velocity=0 time=0
EXTRACT: note_on channel=4 note=53 velocity=0 time=0
EXTRACT: note_on channel=4 note=65 velocity=0 time=0
EXTRACT: note_on channel=4 note=46 velocity=55 time=0
EXTRACT: note_on channel=5 note=70 velocity=0 time=0
EXTRACT: note_on channel=5 note=70 velocity=61 time=0
EXTRACT: note_on channel=5 note=65 velocity=64 time=0
EXTRACT: note_on channel=9 note=40 velocity=65 time=0
EXTRACT: note_on channel=9 note=42 velocity=51 time=0
EXTRACT: note_on channel=0 note=65 velocity=64 time=0.0057471250000000005
EXTRACT: note_on channel=9 note=42 velocity=0 time=0
EXTRACT: note_on channel=9 note=40 velocity=0 time=0
EXTRACT: note_on channel=4 note=53 velocity=60 time=0.0057471250000000005
EXTRACT: note_on channel=4 note=62 velocity=64 time=0
EXTRACT: note_on channel=4 note=58 velocity=59 time=0
EXTRACT: note_on channel=4 note=65 velocity=59 time=0
EXTRACT: note_on channel=6 note=65 velocity=55 time=0
EXTRACT: note_on channel=3 note=63 velocity=0 time=0.12643675000000001
EXTRACT: note_on channel=1 note=67 velocity=0 time=0
EXTRACT: note_on channel=4 note=46 velocity=0 time=0.022988500000000002
EXTRACT: note_on channel=5 note=65 velocity=0 time=0
EXTRACT: note_on channel=5 note=70 velocity=0 time=0
EXTRACT: note_on channel=3 note=63 velocity=110 time=0
EXTRACT: note_on channel=1 note=67 velocity=93 time=0
EXTRACT: note_on channel=4 note=58 velocity=0 time=0
EXTRACT: note_on channel=4 note=53 velocity=0 time=0
EXTRACT: note_on channel=4 note=62 velocity=0 time=0
EXTRACT: note_on channel=4 note=65 velocity=0 time=0
EXTRACT: note_on channel=4 note=46 velocity=55 time=0
EXTRACT: note_on channel=5 note=70 velocity=65 time=0
EXTRACT: note_on channel=5 note=65 velocity=72 time=0
EXTRACT: note_on channel=9 note=39 velocity=110 time=0
EXTRACT: note_on channel=9 note=39 velocity=0 time=0.0057471250000000005
EXTRACT: note_on channel=4 note=58 velocity=67 time=0.0057471250000000005
EXTRACT: note_on channel=4 note=53 velocity=63 time=0
EXTRACT: note_on channel=4 note=65 velocity=60 time=0
EXTRACT: note_on channel=4 note=62 velocity=66 time=0
EXTRACT: note_on channel=0 note=70 velocity=0 time=0.086206875
EXTRACT: note_on channel=6 note=67 velocity=0 time=0.017241375000000003
EXTRACT: note_on channel=9 note=42 velocity=64 time=0.05747125
EXTRACT: note_on channel=0 note=70 velocity=87 time=0.0057471250000000005
EXTRACT: note_on channel=9 note=42 velocity=0 time=0
EXTRACT: note_on channel=6 note=67 velocity=62 time=0.0057471250000000005
EXTRACT: note_on channel=4 note=46 velocity=0 time=0.14942525
EXTRACT: note_on channel=5 note=65 velocity=0 time=0
EXTRACT: note_on channel=5 note=70 velocity=0 time=0
EXTRACT: note_on channel=4 note=65 velocity=0 time=0.011494250000000001
EXTRACT: note_on channel=4 note=58 velocity=0 time=0
EXTRACT: note_on channel=4 note=53 velocity=0 time=0
EXTRACT: note_on channel=4 note=62 velocity=0 time=0
EXTRACT: note_on channel=4 note=46 velocity=55 time=0
EXTRACT: note_on channel=5 note=70 velocity=60 time=0
EXTRACT: note_on channel=5 note=65 velocity=64 time=0
EXTRACT: note_on channel=9 note=35 velocity=62 time=0
EXTRACT: note_on channel=9 note=37 velocity=59 time=0
EXTRACT: note_on channel=9 note=37 velocity=0 time=0.0057471250000000005
EXTRACT: note_on channel=9 note=35 velocity=0 time=0
EXTRACT: note_on channel=4 note=58 velocity=65 time=0.0057471250000000005
EXTRACT: note_on channel=4 note=53 velocity=63 time=0
EXTRACT: note_on channel=4 note=62 velocity=65 time=0
EXTRACT: note_on channel=4 note=65 velocity=59 time=0
EXTRACT: note_on channel=0 note=53 velocity=0 time=0.074712625
EXTRACT: note_on channel=3 note=63 velocity=0 time=0.011494250000000001
EXTRACT: note_on channel=1 note=67 velocity=0 time=0
EXTRACT: note_on channel=6 note=62 velocity=0 time=0.034482750000000006
EXTRACT: note_on channel=4 note=46 velocity=0 time=0.028735625
EXTRACT: note_on channel=5 note=65 velocity=0 time=0
EXTRACT: note_on channel=5 note=70 velocity=0 time=0
EXTRACT: note_on channel=3 note=62 velocity=86 time=0
EXTRACT: note_on channel=1 note=65 velocity=84 time=0
EXTRACT: note_on channel=4 note=62 velocity=0 time=0
EXTRACT: note_on channel=4 note=58 velocity=0 time=0
EXTRACT: note_on channel=4 note=53 velocity=0 time=0
EXTRACT: note_on channel=4 note=65 velocity=0 time=0
EXTRACT: note_on channel=4 note=46 velocity=55 time=0
EXTRACT: note_on channel=5 note=65 velocity=70 time=0
EXTRACT: note_on channel=5 note=70 velocity=65 time=0
EXTRACT: note_on channel=9 note=35 velocity=65 time=0
EXTRACT: note_on channel=9 note=37 velocity=63 time=0
EXTRACT: note_on channel=9 note=42 velocity=52 time=0
EXTRACT: note_on channel=0 note=53 velocity=74 time=0.0057471250000000005
EXTRACT: note_on channel=9 note=42 velocity=0 time=0
EXTRACT: note_on channel=9 note=37 velocity=0 time=0
EXTRACT: note_on channel=9 note=35 velocity=0 time=0
EXTRACT: note_on channel=4 note=58 velocity=64 time=0.0057471250000000005
EXTRACT: note_on channel=4 note=53 velocity=64 time=0
EXTRACT: note_on channel=4 note=62 velocity=64 time=0
EXTRACT: note_on channel=4 note=65 velocity=59 time=0
EXTRACT: note_on channel=6 note=62 velocity=53 time=0
EXTRACT: note_on channel=3 note=62 velocity=0 time=0.132183875
EXTRACT: note_on channel=1 note=65 velocity=0 time=0
EXTRACT: note_on channel=1 note=65 velocity=93 time=0.034482750000000006
EXTRACT: note_on channel=3 note=62 velocity=107 time=0
EXTRACT: note_on channel=6 note=67 velocity=0 time=0.132183875
EXTRACT: note_on channel=4 note=46 velocity=0 time=0.017241375000000003
EXTRACT: note_on channel=5 note=70 velocity=0 time=0
EXTRACT: note_on channel=5 note=65 velocity=0 time=0
EXTRACT: note_on channel=4 note=62 velocity=0 time=0.011494250000000001
EXTRACT: note_on channel=4 note=58 velocity=0 time=0
EXTRACT: note_on channel=4 note=53 velocity=0 time=0
EXTRACT: note_on channel=4 note=65 velocity=0 time=0
EXTRACT: note_on channel=4 note=46 velocity=55 time=0
EXTRACT: note_on channel=9 note=40 velocity=75 time=0
EXTRACT: note_on channel=9 note=39 velocity=109 time=0
EXTRACT: note_on channel=9 note=42 velocity=62 time=0
EXTRACT: note_on channel=0 note=58 velocity=74 time=0.0057471250000000005
EXTRACT: note_on channel=9 note=42 velocity=0 time=0
EXTRACT: note_on channel=9 note=39 velocity=0 time=0
EXTRACT: note_on channel=9 note=40 velocity=0 time=0
EXTRACT: note_on channel=4 note=58 velocity=75 time=0.0057471250000000005
EXTRACT: note_on channel=4 note=53 velocity=66 time=0
EXTRACT: note_on channel=4 note=62 velocity=69 time=0
EXTRACT: note_on channel=4 note=65 velocity=63 time=0
EXTRACT: note_on channel=5 note=70 velocity=72 time=0
EXTRACT: note_on channel=5 note=65 velocity=72 time=0
EXTRACT: note_on channel=6 note=67 velocity=64 time=0
EXTRACT: note_on channel=6 note=65 velocity=0 time=0.0057471250000000005
EXTRACT: note_on channel=0 note=70 velocity=0 time=0.028735625
EXTRACT: note_on channel=4 note=46 velocity=0 time=0.1149425
EXTRACT: note_on channel=4 note=62 velocity=0 time=0.011494250000000001
EXTRACT: note_on channel=4 note=58 velocity=0 time=0
EXTRACT: note_on channel=4 note=53 velocity=0 time=0
EXTRACT: note_on channel=4 note=65 velocity=0 time=0
EXTRACT: note_on channel=4 note=46 velocity=55 time=0
EXTRACT: note_on channel=5 note=65 velocity=0 time=0
EXTRACT: note_on channel=5 note=70 velocity=0 time=0
EXTRACT: note_on channel=9 note=35 velocity=62 time=0
EXTRACT: note_on channel=0 note=70 velocity=100 time=0.0057471250000000005
EXTRACT: note_on channel=9 note=35 velocity=0 time=0
EXTRACT: note_on channel=4 note=58 velocity=66 time=0.0057471250000000005
EXTRACT: note_on channel=4 note=53 velocity=64 time=0
EXTRACT: note_on channel=4 note=65 velocity=59 time=0
EXTRACT: note_on channel=4 note=62 velocity=66 time=0
EXTRACT: note_on channel=5 note=65 velocity=65 time=0
EXTRACT: note_on channel=5 note=70 velocity=63 time=0
EXTRACT: note_on channel=0 note=62 velocity=0 time=0.086206875
EXTRACT: note_on channel=1 note=65 velocity=0 time=0.011494250000000001
EXTRACT: note_on channel=3 note=62 velocity=0 time=0.0057471250000000005
EXTRACT: note_on channel=4 note=46 velocity=0 time=0.045977000000000004
EXTRACT: note_on channel=3 note=60 velocity=85 time=0
EXTRACT: note_on channel=1 note=63 velocity=83 time=0
EXTRACT: note_on channel=4 note=65 velocity=0 time=0
EXTRACT: note_on channel=4 note=58 velocity=0 time=0
EXTRACT: note_on channel=4 note=53 velocity=0 time=0
EXTRACT: note_on channel=4 note=62 velocity=0 time=0
EXTRACT: note_on channel=4 note=46 velocity=55 time=0
EXTRACT: note_on channel=5 note=70 velocity=0 time=0
EXTRACT: note_on channel=5 note=65 velocity=0 time=0
EXTRACT: note_on channel=9 note=40 velocity=66 time=0
EXTRACT: note_on channel=9 note=42 velocity=52 time=0
EXTRACT: note_on channel=9 note=28 velocity=52 time=0
EXTRACT: note_on channel=0 note=62 velocity=84 time=0.0057471250000000005
EXTRACT: note_on channel=9 note=28 velocity=0 time=0
EXTRACT: note_on channel=9 note=42 velocity=0 time=0
EXTRACT: note_on channel=9 note=40 velocity=0 time=0
EXTRACT: note_on channel=4 note=53 velocity=60 time=0.0057471250000000005
EXTRACT: note_on channel=4 note=58 velocity=63 time=0
EXTRACT: note_on channel=4 note=62 velocity=66 time=0
EXTRACT: note_on channel=4 note=65 velocity=58 time=0
EXTRACT: note_on channel=5 note=65 velocity=65 time=0
EXTRACT: note_on channel=5 note=70 velocity=61 time=0
EXTRACT: note_on channel=6 note=65 velocity=58 time=0
EXTRACT: note_on channel=3 note=60 velocity=0 time=0.13793100000000003
EXTRACT: note_on channel=1 note=63 velocity=0 time=0
EXTRACT: note_on channel=4 note=46 velocity=0 time=0.011494250000000001
EXTRACT: note_on channel=3 note=60 velocity=109 time=0
EXTRACT: note_on channel=1 note=63 velocity=93 time=0
EXTRACT: note_on channel=4 note=62 velocity=0 time=0
EXTRACT: note_on channel=4 note=53 velocity=0 time=0
EXTRACT: note_on channel=4 note=58 velocity=0 time=0
EXTRACT: note_on channel=4 note=65 velocity=0 time=0
EXTRACT: note_on channel=4 note=46 velocity=55 time=0
EXTRACT: note_on channel=5 note=70 velocity=0 time=0
EXTRACT: note_on channel=5 note=65 velocity=0 time=0
EXTRACT: note_on channel=4 note=58 velocity=57 time=0.011494250000000001
EXTRACT: note_on channel=4 note=62 velocity=57 time=0
EXTRACT: note_on channel=4 note=65 velocity=57 time=0
EXTRACT: note_on channel=4 note=53 velocity=57 time=0
EXTRACT: note_on channel=5 note=65 velocity=63 time=0
EXTRACT: note_on channel=5 note=70 velocity=60 time=0
EXTRACT: note_on channel=0 note=65 velocity=0 time=0.09195400000000001
EXTRACT: note_on channel=2 note=34 velocity=0 time=0.0057471250000000005
EXTRACT: note_on channel=6 note=62 velocity=0 time=0
EXTRACT: note_on channel=6 note=67 velocity=0 time=0.022988500000000002
EXTRACT: note_on channel=6 note=65 velocity=0 time=0.017241375000000003
EXTRACT: note_on channel=0 note=62 velocity=0 time=0.0057471250000000005
EXTRACT: note_on channel=4 note=46 velocity=0 time=0.0057471250000000005
EXTRACT: note_on channel=8 note=74 velocity=0 time=0
EXTRACT: note_on channel=0 note=46 velocity=0 time=0.0057471250000000005
EXTRACT: note_on channel=8 note=77 velocity=0 time=0
EXTRACT: note_on channel=2 note=33 velocity=96 time=0.0057471250000000005
EXTRACT: note_on channel=0 note=58 velocity=0 time=0
EXTRACT: note_on channel=4 note=65 velocity=0 time=0
EXTRACT: note_on channel=4 note=58 velocity=0 time=0
EXTRACT: note_on channel=4 note=62 velocity=0 time=0
EXTRACT: note_on channel=4 note=53 velocity=0 time=0
EXTRACT: note_on channel=4 note=45 velocity=55 time=0
EXTRACT: note_on channel=5 note=70 velocity=0 time=0
EXTRACT: note_on channel=5 note=65 velocity=0 time=0
EXTRACT: note_on channel=6 note=65 velocity=62 time=0
EXTRACT: note_on channel=8 note=70 velocity=0 time=0
EXTRACT: note_on channel=9 note=36 velocity=113 time=0
EXTRACT: note_on channel=9 note=41 velocity=110 time=0
EXTRACT: note_on channel=9 note=46 velocity=80 time=0
EXTRACT: note_on channel=0 note=65 velocity=80 time=0.0057471250000000005
EXTRACT: note_on channel=0 note=45 velocity=72 time=0
EXTRACT: note_on channel=10 note=69 velocity=96 time=0
EXTRACT: note_on channel=10 note=81 velocity=96 time=0
EXTRACT: note_on channel=9 note=46 velocity=0 time=0
EXTRACT: note_on channel=9 note=41 velocity=0 time=0
EXTRACT: note_on channel=9 note=36 velocity=0 time=0
EXTRACT: note_on channel=0 note=60 velocity=70 time=0.0057471250000000005
EXTRACT: note_on channel=4 note=60 velocity=69 time=0
EXTRACT: note_on channel=4 note=57 velocity=69 time=0
EXTRACT: note_on channel=4 note=65 velocity=69 time=0
EXTRACT: note_on channel=5 note=65 velocity=76 time=0
EXTRACT: note_on channel=5 note=70 velocity=69 time=0
EXTRACT: note_on channel=8 note=69 velocity=93 time=0
EXTRACT: note_on channel=8 note=81 velocity=93 time=0
EXTRACT: note_on channel=0 note=53 velocity=0 time=0.0057471250000000005
EXTRACT: note_on channel=0 note=70 velocity=0 time=0.16091950000000002
EXTRACT: note_on channel=4 note=45 velocity=0 time=0.155172375
EXTRACT: note_on channel=4 note=60 velocity=0 time=0.011494250000000001
EXTRACT: note_on channel=4 note=57 velocity=0 time=0
EXTRACT: note_on channel=4 note=65 velocity=0 time=0
EXTRACT: note_on channel=4 note=45 velocity=55 time=0
EXTRACT: note_on channel=5 note=70 velocity=0 time=0
EXTRACT: note_on channel=5 note=65 velocity=0 time=0
EXTRACT: note_on channel=9 note=35 velocity=64 time=0
EXTRACT: note_on channel=9 note=38 velocity=64 time=0
EXTRACT: note_on channel=9 note=42 velocity=50 time=0
EXTRACT: note_on channel=0 note=53 velocity=79 time=0.0057471250000000005
EXTRACT: note_on channel=9 note=42 velocity=0 time=0
EXTRACT: note_on channel=9 note=38 velocity=0 time=0
EXTRACT: note_on channel=9 note=35 velocity=0 time=0
EXTRACT: note_on channel=4 note=57 velocity=59 time=0.0057471250000000005
EXTRACT: note_on channel=4 note=60 velocity=70 time=0
EXTRACT: note_on channel=4 note=65 velocity=66 time=0
EXTRACT: note_on channel=5 note=70 velocity=67 time=0
EXTRACT: note_on channel=5 note=65 velocity=71 time=0
EXTRACT: note_on channel=6 note=60 velocity=56 time=0
EXTRACT: note_on channel=3 note=60 velocity=0 time=0.045977000000000004
EXTRACT: note_on channel=1 note=63 velocity=0 time=0
EXTRACT: note_on channel=9 note=35 velocity=64 time=0.1149425
EXTRACT: note_on channel=9 note=35 velocity=0 time=0.0057471250000000005
EXTRACT: note_on channel=0 note=60 velocity=0 time=0.13793100000000003
EXTRACT: note_on channel=6 note=65 velocity=0 time=0.011494250000000001
EXTRACT: note_on channel=4 note=45 velocity=0 time=0.0057471250000000005
EXTRACT: note_on channel=4 note=57 velocity=0 time=0.011494250000000001
EXTRACT: note_on channel=4 note=60 velocity=0 time=0
EXTRACT: note_on channel=4 note=65 velocity=0 time=0
EXTRACT: note_on channel=4 note=45 velocity=55 time=0
EXTRACT: note_on channel=5 note=65 velocity=0 time=0
EXTRACT: note_on channel=5 note=70 velocity=0 time=0
EXTRACT: note_on channel=9 note=40 velocity=78 time=0
EXTRACT: note_on channel=9 note=39 velocity=111 time=0
EXTRACT: note_on channel=9 note=42 velocity=64 time=0
EXTRACT: note_on channel=9 note=42 velocity=0 time=0.0057471250000000005
EXTRACT: note_on channel=9 note=39 velocity=0 time=0
EXTRACT: note_on channel=9 note=40 velocity=0 time=0
EXTRACT: note_on channel=0 note=60 velocity=70 time=0.0057471250000000005
EXTRACT: note_on channel=4 note=60 velocity=75 time=0
EXTRACT: note_on channel=4 note=65 velocity=75 time=0
EXTRACT: note_on channel=4 note=57 velocity=75 time=0
EXTRACT: note_on channel=5 note=70 velocity=65 time=0
EXTRACT: note_on channel=5 note=65 velocity=71 time=0
EXTRACT: note_on channel=6 note=65 velocity=64 time=0
EXTRACT: note_on channel=9 note=37 velocity=57 time=0.16091950000000002
EXTRACT: note_on channel=9 note=37 velocity=0 time=0.0057471250000000005
EXTRACT: note_on channel=10 note=81 velocity=0 time=0.040229875000000005
EXTRACT: note_on channel=10 note=69 velocity=0 time=0.011494250000000001
EXTRACT: note_on channel=0 note=65 velocity=0 time=0.06321837500000001
EXTRACT: note_on channel=6 note=60 velocity=0 time=0
EXTRACT: note_on channel=4 note=45 velocity=0 time=0.040229875000000005
EXTRACT: note_on channel=4 note=60 velocity=0 time=0.011494250000000001
EXTRACT: note_on channel=4 note=65 velocity=0 time=0
EXTRACT: note_on channel=4 note=57 velocity=0 time=0
EXTRACT: note_on channel=4 note=45 velocity=55 time=0
EXTRACT: note_on channel=5 note=65 velocity=0 time=0
EXTRACT: note_on channel=5 note=70 velocity=0 time=0
EXTRACT: note_on channel=9 note=40 velocity=67 time=0
EXTRACT: note_on channel=9 note=42 velocity=53 time=0
EXTRACT: note_on channel=0 note=65 velocity=81 time=0.0057471250000000005
EXTRACT: note_on channel=9 note=42 velocity=0 time=0
EXTRACT: note_on channel=9 note=40 velocity=0 time=0
EXTRACT: note_on channel=4 note=57 velocity=60 time=0.0057471250000000005
EXTRACT: note_on channel=4 note=65 velocity=60 time=0
EXTRACT: note_on channel=4 note=60 velocity=59 time=0
EXTRACT: note_on channel=5 note=65 velocity=64 time=0
EXTRACT: note_on channel=5 note=70 velocity=59 time=0
EXTRACT: note_on channel=6 note=60 velocity=55 time=0
EXTRACT: note_on channel=8 note=81 velocity=0 time=0.028735625
EXTRACT: note_on channel=8 note=69 velocity=0 time=0
EXTRACT: note_on channel=4 note=45 velocity=0 time=0.12068962500000001
EXTRACT: note_on channel=3 note=58 velocity=84 time=0
EXTRACT: note_on channel=4 note=57 velocity=0 time=0
EXTRACT: note_on channel=4 note=65 velocity=0 time=0
EXTRACT: note_on channel=4 note=60 velocity=0 time=0
EXTRACT: note_on channel=4 note=45 velocity=55 time=0
EXTRACT: note_on channel=5 note=70 velocity=0 time=0
EXTRACT: note_on channel=5 note=65 velocity=0 time=0
EXTRACT: note_on channel=9 note=39 velocity=108 time=0
EXTRACT: note_on channel=9 note=39 velocity=0 time=0.0057471250000000005
EXTRACT: note_on channel=4 note=60 velocity=74 time=0.0057471250000000005
EXTRACT: note_on channel=4 note=57 velocity=74 time=0
EXTRACT: note_on channel=4 note=65 velocity=74 time=0
EXTRACT: note_on channel=5 note=65 velocity=69 time=0
EXTRACT: note_on channel=5 note=70 velocity=65 time=0
EXTRACT: note_on channel=6 note=65 velocity=0 time=0.10344825
EXTRACT: note_on channel=0 note=60 velocity=0 time=0.028735625
EXTRACT: note_on channel=3 note=58 velocity=0 time=0.0057471250000000005
EXTRACT: note_on channel=3 note=63 velocity=109 time=0
EXTRACT: note_on channel=0 note=60 velocity=71 time=0
EXTRACT: note_on channel=9 note=42 velocity=61 time=0
EXTRACT: note_on channel=0 note=79 velocity=112 time=0.0057471250000000005
EXTRACT: note_on channel=0 note=67 velocity=104 time=0
EXTRACT: note_on channel=10 note=67 velocity=95 time=0
EXTRACT: note_on channel=10 note=79 velocity=95 time=0
EXTRACT: note_on channel=9 note=42 velocity=0 time=0
EXTRACT: note_on channel=6 note=65 velocity=62 time=0.0057471250000000005
EXTRACT: note_on channel=8 note=79 velocity=96 time=0
EXTRACT: note_on channel=8 note=67 velocity=96 time=0
EXTRACT: note_on channel=4 note=45 velocity=0 time=0.14942525
EXTRACT: note_on channel=4 note=60 velocity=0 time=0.011494250000000001
EXTRACT: note_on channel=4 note=57 velocity=0 time=0
EXTRACT: note_on channel=4 note=65 velocity=0 time=0
EXTRACT: note_on channel=4 note=45 velocity=55 time=0
EXTRACT: note_on channel=5 note=70 velocity=0 time=0
EXTRACT: note_on channel=5 note=65 velocity=0 time=0
EXTRACT: note_on channel=9 note=35 velocity=61 time=0
EXTRACT: note_on channel=9 note=37 velocity=59 time=0
EXTRACT: note_on channel=9 note=37 velocity=0 time=0.0057471250000000005
EXTRACT: note_on channel=9 note=35 velocity=0 time=0
EXTRACT: note_on channel=4 note=60 velocity=70 time=0.0057471250000000005
EXTRACT: note_on channel=4 note=57 velocity=63 time=0
EXTRACT: note_on channel=4 note=65 velocity=69 time=0
EXTRACT: note_on channel=5 note=65 velocity=72 time=0
EXTRACT: note_on channel=5 note=70 velocity=67 time=0
EXTRACT: note_on channel=3 note=63 velocity=0 time=0.10919537500000001
EXTRACT: note_on channel=0 note=53 velocity=0 time=0
EXTRACT: note_on channel=6 note=60 velocity=0 time=0.011494250000000001
EXTRACT: note_on channel=4 note=45 velocity=0 time=0.028735625
EXTRACT: note_on channel=3 note=62 velocity=84 time=0
EXTRACT: note_on channel=4 note=60 velocity=0 time=0
EXTRACT: note_on channel=4 note=57 velocity=0 time=0
EXTRACT: note_on channel=4 note=65 velocity=0 time=0
EXTRACT: note_on channel=4 note=45 velocity=55 time=0
EXTRACT: note_on channel=5 note=70 velocity=0 time=0
EXTRACT: note_on channel=5 note=65 velocity=0 time=0
EXTRACT: note_on channel=9 note=35 velocity=67 time=0
EXTRACT: note_on channel=9 note=37 velocity=64 time=0
EXTRACT: note_on channel=9 note=42 velocity=53 time=0
EXTRACT: note_on channel=0 note=53 velocity=58 time=0.0057471250000000005
EXTRACT: note_on channel=9 note=42 velocity=0 time=0
EXTRACT: note_on channel=9 note=37 velocity=0 time=0
EXTRACT: note_on channel=9 note=35 velocity=0 time=0
EXTRACT: note_on channel=4 note=60 velocity=75 time=0.0057471250000000005
EXTRACT: note_on channel=4 note=57 velocity=64 time=0
EXTRACT: note_on channel=4 note=65 velocity=71 time=0
EXTRACT: note_on channel=5 note=65 velocity=69 time=0
EXTRACT: note_on channel=5 note=70 velocity=64 time=0
EXTRACT: note_on channel=6 note=60 velocity=53 time=0
EXTRACT: note_on channel=8 note=67 velocity=0 time=0.10344825
EXTRACT: note_on channel=10 note=79 velocity=0 time=0.011494250000000001
EXTRACT: note_on channel=8 note=79 velocity=0 time=0.011494250000000001
EXTRACT: note_on channel=3 note=62 velocity=0 time=0.0057471250000000005
EXTRACT: note_on channel=0 note=79 velocity=0 time=0
EXTRACT: note_on channel=10 note=67 velocity=0 time=0.017241375000000003
EXTRACT: note_on channel=3 note=62 velocity=107 time=0
EXTRACT: note_on channel=0 note=82 velocity=117 time=0.0057471250000000005
EXTRACT: note_on channel=0 note=70 velocity=117 time=0
EXTRACT: note_on channel=10 note=70 velocity=95 time=0
EXTRACT: note_on channel=10 note=82 velocity=95 time=0
EXTRACT: note_on channel=8 note=82 velocity=94 time=0.0057471250000000005
EXTRACT: note_on channel=8 note=70 velocity=94 time=0
EXTRACT: note_on channel=0 note=67 velocity=0 time=0.017241375000000003
EXTRACT: note_on channel=0 note=65 velocity=0 time=0.06896550000000001
EXTRACT: note_on channel=6 note=65 velocity=0 time=0.045977000000000004
EXTRACT: note_on channel=4 note=45 velocity=0 time=0.017241375000000003
EXTRACT: note_on channel=4 note=60 velocity=0 time=0.011494250000000001
EXTRACT: note_on channel=4 note=57 velocity=0 time=0
EXTRACT: note_on channel=4 note=65 velocity=0 time=0
EXTRACT: note_on channel=4 note=45 velocity=55 time=0
EXTRACT: note_on channel=5 note=70 velocity=0 time=0
EXTRACT: note_on channel=5 note=65 velocity=0 time=0
EXTRACT: note_on channel=9 note=40 velocity=81 time=0
EXTRACT: note_on channel=9 note=39 velocity=114 time=0
EXTRACT: note_on channel=9 note=42 velocity=67 time=0
EXTRACT: note_on channel=9 note=42 velocity=0 time=0.0057471250000000005
EXTRACT: note_on channel=9 note=39 velocity=0 time=0
EXTRACT: note_on channel=9 note=40 velocity=0 time=0
EXTRACT: note_on channel=0 note=65 velocity=60 time=0.0057471250000000005
EXTRACT: note_on channel=4 note=60 velocity=74 time=0
EXTRACT: note_on channel=4 note=57 velocity=74 time=0
EXTRACT: note_on channel=4 note=65 velocity=74 time=0
EXTRACT: note_on channel=5 note=65 velocity=76 time=0
EXTRACT: note_on channel=5 note=70 velocity=69 time=0
EXTRACT: note_on channel=6 note=65 velocity=64 time=0
EXTRACT: note_on channel=4 note=45 velocity=0 time=0.14942525
EXTRACT: note_on channel=4 note=60 velocity=0 time=0.011494250000000001
EXTRACT: note_on channel=4 note=57 velocity=0 time=0
EXTRACT: note_on channel=4 note=65 velocity=0 time=0
EXTRACT: note_on channel=4 note=45 velocity=55 time=0
EXTRACT: note_on channel=5 note=70 velocity=0 time=0
EXTRACT: note_on channel=5 note=65 velocity=0 time=0
EXTRACT: note_on channel=9 note=35 velocity=61 time=0
EXTRACT: note_on channel=9 note=35 velocity=0 time=0.0057471250000000005
EXTRACT: note_on channel=4 note=60 velocity=77 time=0.0057471250000000005
EXTRACT: note_on channel=4 note=57 velocity=65 time=0
EXTRACT: note_on channel=4 note=65 velocity=69 time=0
EXTRACT: note_on channel=5 note=65 velocity=69 time=0
EXTRACT: note_on channel=5 note=70 velocity=67 time=0
EXTRACT: note_on channel=3 note=62 velocity=0 time=0.086206875
EXTRACT: note_on channel=8 note=70 velocity=0 time=0.017241375000000003
EXTRACT: note_on channel=0 note=60 velocity=0 time=0.0057471250000000005
EXTRACT: note_on channel=6 note=60 velocity=0 time=0.011494250000000001
EXTRACT: note_on channel=10 note=82 velocity=0 time=0
EXTRACT: note_on channel=8 note=82 velocity=0 time=0.011494250000000001
EXTRACT: note_on channel=4 note=45 velocity=0 time=0.017241375000000003
EXTRACT: note_on channel=0 note=82 velocity=0 time=0.0057471250000000005
EXTRACT: note_on channel=3 note=58 velocity=85 time=0
EXTRACT: note_on channel=4 note=60 velocity=0 time=0
EXTRACT: note_on channel=4 note=57 velocity=0 time=0
EXTRACT: note_on channel=4 note=65 velocity=0 time=0
EXTRACT: note_on channel=4 note=45 velocity=55 time=0
EXTRACT: note_on channel=5 note=70 velocity=0 time=0
EXTRACT: note_on channel=5 note=65 velocity=0 time=0
EXTRACT: note_on channel=9 note=40 velocity=65 time=0
EXTRACT: note_on channel=9 note=42 velocity=51 time=0
EXTRACT: note_on channel=9 note=28 velocity=51 time=0
EXTRACT: note_on channel=0 note=84 velocity=111 time=0.0057471250000000005
EXTRACT: note_on channel=0 note=72 velocity=117 time=0
EXTRACT: note_on channel=10 note=72 velocity=95 time=0
EXTRACT: note_on channel=10 note=84 velocity=95 time=0
EXTRACT: note_on channel=9 note=28 velocity=0 time=0
EXTRACT: note_on channel=9 note=42 velocity=0 time=0
EXTRACT: note_on channel=9 note=40 velocity=0 time=0
EXTRACT: note_on channel=0 note=70 velocity=0 time=0.0057471250000000005
EXTRACT: note_on channel=0 note=60 velocity=45 time=0
EXTRACT: note_on channel=4 note=60 velocity=79 time=0
EXTRACT: note_on channel=4 note=57 velocity=65 time=0
EXTRACT: note_on channel=4 note=65 velocity=72 time=0
EXTRACT: note_on channel=5 note=65 velocity=64 time=0
EXTRACT: note_on channel=5 note=70 velocity=63 time=0
EXTRACT: note_on channel=6 note=60 velocity=58 time=0
EXTRACT: note_on channel=8 note=84 velocity=94 time=0
EXTRACT: note_on channel=8 note=72 velocity=94 time=0
EXTRACT: note_on channel=10 note=70 velocity=0 time=0
EXTRACT: note_on channel=3 note=58 velocity=0 time=0.13793100000000003
EXTRACT: note_on channel=4 note=45 velocity=0 time=0.011494250000000001
EXTRACT: note_on channel=4 note=60 velocity=0 time=0.011494250000000001
EXTRACT: note_on channel=4 note=57 velocity=0 time=0
EXTRACT: note_on channel=4 note=65 velocity=0 time=0
EXTRACT: note_on channel=4 note=45 velocity=55 time=0
EXTRACT: note_on channel=5 note=70 velocity=0 time=0
EXTRACT: note_on channel=5 note=65 velocity=0 time=0
EXTRACT: note_on channel=9 note=36 velocity=97 time=0
EXTRACT: note_on channel=9 note=41 velocity=110 time=0
EXTRACT: note_on channel=3 note=58 velocity=109 time=0
EXTRACT: note_on channel=9 note=41 velocity=0 time=0
EXTRACT: note_on channel=9 note=36 velocity=0 time=0
EXTRACT: note_on channel=4 note=60 velocity=65 time=0.0057471250000000005
EXTRACT: note_on channel=4 note=57 velocity=65 time=0
EXTRACT: note_on channel=4 note=65 velocity=65 time=0
EXTRACT: note_on channel=5 note=65 velocity=64 time=0
EXTRACT: note_on channel=5 note=70 velocity=64 time=0
EXTRACT: note_on channel=10 note=84 velocity=0 time=0.074712625
EXTRACT: note_on channel=0 note=53 velocity=0 time=0.022988500000000002
EXTRACT: note_on channel=10 note=72 velocity=0 time=0.017241375000000003
EXTRACT: note_on channel=6 note=60 velocity=0 time=0.022988500000000002
EXTRACT: note_on channel=6 note=65 velocity=0 time=0
EXTRACT: note_on channel=0 note=45 velocity=0 time=0.011494250000000001
EXTRACT: note_on channel=0 note=65 velocity=0 time=0
EXTRACT: note_on channel=4 note=45 velocity=0 time=0
EXTRACT: note_on channel=2 note=33 velocity=0 time=0.0057471250000000005
EXTRACT: note_on channel=7 note=43 velocity=71 time=0
EXTRACT: note_on channel=2 note=31 velocity=86 time=0.0057471250000000005
EXTRACT: note_on channel=0 note=84 velocity=0 time=0
EXTRACT: note_on channel=4 note=60 velocity=0 time=0
EXTRACT: note_on channel=4 note=57 velocity=0 time=0
EXTRACT: note_on channel=4 note=65 velocity=0 time=0
EXTRACT: note_on channel=4 note=43 velocity=55 time=0
EXTRACT: note_on channel=5 note=70 velocity=0 time=0
EXTRACT: note_on channel=5 note=65 velocity=0 time=0
EXTRACT: note_on channel=6 note=67 velocity=62 time=0
EXTRACT: note_on channel=8 note=72 velocity=0 time=0
EXTRACT: note_on channel=9 note=36 velocity=114 time=0
EXTRACT: note_on channel=9 note=46 velocity=81 time=0
EXTRACT: note_on channel=0 note=60 velocity=0 time=0.0057471250000000005
EXTRACT: note_on channel=0 note=70 velocity=109 time=0
EXTRACT: note_on channel=0 note=82 velocity=109 time=0
EXTRACT: note_on channel=5 note=62 velocity=65 time=0
EXTRACT: note_on channel=9 note=46 velocity=0 time=0
EXTRACT: note_on channel=9 note=36 velocity=0 time=0
EXTRACT: note_on channel=0 note=72 velocity=0 time=0.0057471250000000005
EXTRACT: note_on channel=5 note=67 velocity=74 time=0
EXTRACT: note_on channel=5 note=70 velocity=65 time=0
EXTRACT: note_on channel=4 note=58 velocity=68 time=0.0057471250000000005
EXTRACT: note_on channel=4 note=62 velocity=68 time=0
EXTRACT: note_on channel=4 note=67 velocity=63 time=0
EXTRACT: note_on channel=4 note=55 velocity=62 time=0
EXTRACT: note_on channel=8 note=84 velocity=0 time=0.0057471250000000005
EXTRACT: note_on channel=4 note=43 velocity=0 time=0.31034475
EXTRACT: note_on channel=5 note=62 velocity=0 time=0.0057471250000000005
EXTRACT: note_on channel=4 note=43 velocity=55 time=0.0057471250000000005
EXTRACT: note_on channel=5 note=70 velocity=0 time=0
EXTRACT: note_on channel=5 note=67 velocity=0 time=0
EXTRACT: note_on channel=9 note=28 velocity=76 time=0
EXTRACT: note_on channel=4 note=67 velocity=0 time=0.0057471250000000005
EXTRACT: note_on channel=4 note=55 velocity=0 time=0
EXTRACT: note_on channel=4 note=58 velocity=0 time=0
EXTRACT: note_on channel=4 note=62 velocity=0 time=0
EXTRACT: note_on channel=9 note=28 velocity=0 time=0
EXTRACT: note_on channel=6 note=62 velocity=56 time=0.0057471250000000005
EXTRACT: note_on channel=4 note=58 velocity=62 time=0.0057471250000000005
EXTRACT: note_on channel=4 note=55 velocity=59 time=0
EXTRACT: note_on channel=4 note=67 velocity=58 time=0
EXTRACT: note_on channel=4 note=62 velocity=64 time=0
EXTRACT: note_on channel=5 note=67 velocity=59 time=0
EXTRACT: note_on channel=5 note=62 velocity=58 time=0
EXTRACT: note_on channel=5 note=70 velocity=58 time=0
EXTRACT: note_on channel=6 note=67 velocity=0 time=0.31034475
EXTRACT: note_on channel=4 note=43 velocity=0 time=0.0057471250000000005
EXTRACT: note_on channel=4 note=43 velocity=55 time=0.011494250000000001
EXTRACT: note_on channel=4 note=67 velocity=0 time=0.0057471250000000005
EXTRACT: note_on channel=4 note=62 velocity=0 time=0
EXTRACT: note_on channel=4 note=58 velocity=0 time=0
EXTRACT: note_on channel=4 note=55 velocity=0 time=0
EXTRACT: note_on channel=5 note=70 velocity=0 time=0
EXTRACT: note_on channel=5 note=62 velocity=0 time=0
EXTRACT: note_on channel=5 note=67 velocity=0 time=0
EXTRACT: note_on channel=3 note=58 velocity=0 time=0.0057471250000000005
EXTRACT: note_on channel=6 note=67 velocity=64 time=0
EXTRACT: note_on channel=4 note=58 velocity=67 time=0.0057471250000000005
EXTRACT: note_on channel=4 note=55 velocity=65 time=0
EXTRACT: note_on channel=4 note=62 velocity=69 time=0
EXTRACT: note_on channel=4 note=67 velocity=61 time=0
EXTRACT: note_on channel=5 note=62 velocity=63 time=0
EXTRACT: note_on channel=5 note=67 velocity=70 time=0
EXTRACT: note_on channel=5 note=70 velocity=63 time=0
EXTRACT: note_on channel=9 note=28 velocity=68 time=0.155172375
EXTRACT: note_on channel=9 note=28 velocity=0 time=0.0057471250000000005
EXTRACT: note_on channel=4 note=43 velocity=0 time=0.155172375
EXTRACT: note_on channel=4 note=43 velocity=55 time=0.011494250000000001
EXTRACT: note_on channel=4 note=62 velocity=0 time=0.0057471250000000005
EXTRACT: note_on channel=4 note=67 velocity=0 time=0
EXTRACT: note_on channel=4 note=58 velocity=0 time=0
EXTRACT: note_on channel=4 note=55 velocity=0 time=0
EXTRACT: note_on channel=5 note=70 velocity=0 time=0
EXTRACT: note_on channel=5 note=67 velocity=0 time=0
EXTRACT: note_on channel=5 note=62 velocity=0 time=0
EXTRACT: note_on channel=6 note=65 velocity=55 time=0.0057471250000000005
EXTRACT: note_on channel=4 note=58 velocity=60 time=0.0057471250000000005
EXTRACT: note_on channel=4 note=62 velocity=63 time=0
EXTRACT: note_on channel=4 note=55 velocity=58 time=0
EXTRACT: note_on channel=4 note=67 velocity=54 time=0
EXTRACT: note_on channel=5 note=67 velocity=59 time=0
EXTRACT: note_on channel=5 note=62 velocity=58 time=0
EXTRACT: note_on channel=5 note=70 velocity=57 time=0
EXTRACT: note_on channel=4 note=43 velocity=0 time=0.14367812500000002
EXTRACT: note_on channel=4 note=43 velocity=55 time=0.011494250000000001
EXTRACT: note_on channel=4 note=55 velocity=0 time=0.0057471250000000005
EXTRACT: note_on channel=4 note=67 velocity=0 time=0
EXTRACT: note_on channel=4 note=58 velocity=0 time=0
EXTRACT: note_on channel=4 note=62 velocity=0 time=0
EXTRACT: note_on channel=5 note=70 velocity=0 time=0
EXTRACT: note_on channel=5 note=62 velocity=0 time=0
EXTRACT: note_on channel=5 note=67 velocity=0 time=0
EXTRACT: note_on channel=4 note=58 velocity=71 time=0.011494250000000001
EXTRACT: note_on channel=4 note=55 velocity=63 time=0
EXTRACT: note_on channel=4 note=62 velocity=71 time=0
EXTRACT: note_on channel=4 note=67 velocity=63 time=0
EXTRACT: note_on channel=5 note=62 velocity=63 time=0
EXTRACT: note_on channel=5 note=67 velocity=69 time=0
EXTRACT: note_on channel=5 note=70 velocity=63 time=0
EXTRACT: note_on channel=6 note=67 velocity=0 time=0.09770112500000001
EXTRACT: note_on channel=9 note=28 velocity=86 time=0.05747125
EXTRACT: note_on channel=9 note=28 velocity=0 time=0.0057471250000000005
EXTRACT: note_on channel=6 note=67 velocity=62 time=0.0057471250000000005
EXTRACT: note_on channel=4 note=43 velocity=0 time=0.14942525
EXTRACT: note_on channel=4 note=43 velocity=55 time=0.011494250000000001
EXTRACT: note_on channel=9 note=28 velocity=65 time=0
EXTRACT: note_on channel=4 note=62 velocity=0 time=0.0057471250000000005
EXTRACT: note_on channel=4 note=67 velocity=0 time=0
EXTRACT: note_on channel=4 note=58 velocity=0 time=0
EXTRACT: note_on channel=4 note=55 velocity=0 time=0
EXTRACT: note_on channel=5 note=70 velocity=0 time=0
EXTRACT: note_on channel=5 note=67 velocity=0 time=0
EXTRACT: note_on channel=5 note=62 velocity=0 time=0
EXTRACT: note_on channel=9 note=28 velocity=0 time=0
EXTRACT: note_on channel=4 note=58 velocity=63 time=0.011494250000000001
EXTRACT: note_on channel=4 note=62 velocity=64 time=0
EXTRACT: note_on channel=4 note=55 velocity=60 time=0
EXTRACT: note_on channel=4 note=67 velocity=58 time=0
EXTRACT: note_on channel=5 note=62 velocity=57 time=0
EXTRACT: note_on channel=5 note=67 velocity=59 time=0
EXTRACT: note_on channel=5 note=70 velocity=58 time=0
EXTRACT: note_on channel=6 note=62 velocity=0 time=0.1149425
EXTRACT: note_on channel=4 note=43 velocity=0 time=0.028735625
EXTRACT: note_on channel=4 note=43 velocity=55 time=0.011494250000000001
EXTRACT: note_on channel=9 note=28 velocity=63 time=0
EXTRACT: note_on channel=0 note=62 velocity=95 time=0.0057471250000000005
EXTRACT: note_on channel=4 note=55 velocity=0 time=0
EXTRACT: note_on channel=4 note=67 velocity=0 time=0
EXTRACT: note_on channel=4 note=58 velocity=0 time=0
EXTRACT: note_on channel=4 note=62 velocity=0 time=0
EXTRACT: note_on channel=5 note=70 velocity=0 time=0
EXTRACT: note_on channel=5 note=67 velocity=0 time=0
EXTRACT: note_on channel=5 note=62 velocity=0 time=0
EXTRACT: note_on channel=9 note=28 velocity=0 time=0
EXTRACT: note_on channel=6 note=62 velocity=53 time=0.0057471250000000005
EXTRACT: note_on channel=4 note=58 velocity=65 time=0.0057471250000000005
EXTRACT: note_on channel=4 note=55 velocity=58 time=0
EXTRACT: note_on channel=4 note=62 velocity=71 time=0
EXTRACT: note_on channel=4 note=67 velocity=60 time=0
EXTRACT: note_on channel=5 note=62 velocity=59 time=0
EXTRACT: note_on channel=5 note=67 velocity=67 time=0
EXTRACT: note_on channel=5 note=70 velocity=65 time=0
EXTRACT: note_on channel=6 note=67 velocity=0 time=0.2988505
EXTRACT: note_on channel=4 note=43 velocity=0 time=0.017241375000000003
EXTRACT: note_on channel=4 note=43 velocity=55 time=0.011494250000000001
EXTRACT: note_on channel=0 note=67 velocity=104 time=0.0057471250000000005
EXTRACT: note_on channel=4 note=62 velocity=0 time=0
EXTRACT: note_on channel=4 note=67 velocity=0 time=0
EXTRACT: note_on channel=4 note=58 velocity=0 time=0
EXTRACT: note_on channel=4 note=55 velocity=0 time=0
EXTRACT: note_on channel=5 note=70 velocity=0 time=0
EXTRACT: note_on channel=5 note=67 velocity=0 time=0
EXTRACT: note_on channel=5 note=62 velocity=0 time=0
EXTRACT: note_on channel=6 note=67 velocity=64 time=0.0057471250000000005
EXTRACT: note_on channel=4 note=58 velocity=70 time=0.0057471250000000005
EXTRACT: note_on channel=4 note=55 velocity=63 time=0
EXTRACT: note_on channel=4 note=62 velocity=69 time=0
EXTRACT: note_on channel=4 note=67 velocity=63 time=0
EXTRACT: note_on channel=5 note=67 velocity=69 time=0
EXTRACT: note_on channel=5 note=62 velocity=65 time=0
EXTRACT: note_on channel=5 note=70 velocity=66 time=0
EXTRACT: note_on channel=6 note=65 velocity=0 time=0
EXTRACT: note_on channel=4 note=43 velocity=0 time=0.14367812500000002
EXTRACT: note_on channel=4 note=43 velocity=55 time=0.011494250000000001
EXTRACT: note_on channel=4 note=62 velocity=0 time=0.0057471250000000005
EXTRACT: note_on channel=4 note=67 velocity=0 time=0
EXTRACT: note_on channel=4 note=58 velocity=0 time=0
EXTRACT: note_on channel=4 note=55 velocity=0 time=0
EXTRACT: note_on channel=5 note=70 velocity=0 time=0
EXTRACT: note_on channel=5 note=62 velocity=0 time=0
EXTRACT: note_on channel=5 note=67 velocity=0 time=0
EXTRACT: note_on channel=4 note=58 velocity=65 time=0.011494250000000001
EXTRACT: note_on channel=4 note=62 velocity=67 time=0
EXTRACT: note_on channel=4 note=55 velocity=57 time=0
EXTRACT: note_on channel=4 note=67 velocity=58 time=0
EXTRACT: note_on channel=5 note=62 velocity=48 time=0
EXTRACT: note_on channel=5 note=67 velocity=66 time=0
EXTRACT: note_on channel=5 note=70 velocity=63 time=0
EXTRACT: note_on channel=0 note=62 velocity=0 time=0.06321837500000001
EXTRACT: note_on channel=4 note=43 velocity=0 time=0.08045975000000001
EXTRACT: note_on channel=4 note=43 velocity=55 time=0.011494250000000001
EXTRACT: note_on channel=0 note=62 velocity=97 time=0.0057471250000000005
EXTRACT: note_on channel=4 note=55 velocity=0 time=0
EXTRACT: note_on channel=4 note=67 velocity=0 time=0
EXTRACT: note_on channel=4 note=58 velocity=0 time=0
EXTRACT: note_on channel=4 note=62 velocity=0 time=0
EXTRACT: note_on channel=5 note=70 velocity=0 time=0
EXTRACT: note_on channel=5 note=67 velocity=0 time=0
EXTRACT: note_on channel=5 note=62 velocity=0 time=0
EXTRACT: note_on channel=6 note=65 velocity=58 time=0.0057471250000000005
EXTRACT: note_on channel=4 note=58 velocity=68 time=0.0057471250000000005
EXTRACT: note_on channel=4 note=55 velocity=63 time=0
EXTRACT: note_on channel=4 note=62 velocity=69 time=0
EXTRACT: note_on channel=4 note=67 velocity=61 time=0
EXTRACT: note_on channel=5 note=62 velocity=55 time=0
EXTRACT: note_on channel=5 note=67 velocity=67 time=0
EXTRACT: note_on channel=5 note=70 velocity=63 time=0
EXTRACT: pitchwheel channel=7 pitch=-128 time=0.10919537500000001
EXTRACT: pitchwheel channel=7 pitch=-256 time=0.0057471250000000005
EXTRACT: pitchwheel channel=7 pitch=-384 time=0.0057471250000000005
EXTRACT: pitchwheel channel=7 pitch=-512 time=0.0057471250000000005
EXTRACT: pitchwheel channel=7 pitch=-640 time=0.0057471250000000005
EXTRACT: pitchwheel channel=7 pitch=-768 time=0.0057471250000000005
EXTRACT: note_on channel=4 note=43 velocity=0 time=0.0057471250000000005
EXTRACT: pitchwheel channel=7 pitch=-896 time=0
EXTRACT: pitchwheel channel=7 pitch=-1152 time=0.0057471250000000005
EXTRACT: note_on channel=4 note=43 velocity=55 time=0.0057471250000000005
EXTRACT: pitchwheel channel=7 pitch=-1408 time=0
EXTRACT: note_on channel=4 note=62 velocity=0 time=0.0057471250000000005
EXTRACT: note_on channel=4 note=67 velocity=0 time=0
EXTRACT: note_on channel=4 note=58 velocity=0 time=0
EXTRACT: note_on channel=4 note=55 velocity=0 time=0
EXTRACT: note_on channel=5 note=70 velocity=0 time=0
EXTRACT: note_on channel=5 note=67 velocity=0 time=0
EXTRACT: note_on channel=5 note=62 velocity=0 time=0
EXTRACT: pitchwheel channel=7 pitch=-1664 time=0
EXTRACT: pitchwheel channel=7 pitch=-1792 time=0.0057471250000000005
EXTRACT: note_on channel=4 note=58 velocity=59 time=0.0057471250000000005
EXTRACT: note_on channel=4 note=67 velocity=59 time=0
EXTRACT: note_on channel=4 note=55 velocity=59 time=0
EXTRACT: note_on channel=4 note=62 velocity=59 time=0
EXTRACT: note_on channel=5 note=62 velocity=63 time=0
EXTRACT: note_on channel=5 note=67 velocity=63 time=0
EXTRACT: note_on channel=5 note=70 velocity=63 time=0
EXTRACT: pitchwheel channel=7 pitch=-2048 time=0
EXTRACT: pitchwheel channel=7 pitch=-2304 time=0.0057471250000000005
EXTRACT: pitchwheel channel=7 pitch=-2432 time=0.0057471250000000005
EXTRACT: pitchwheel channel=7 pitch=-2688 time=0.0057471250000000005
EXTRACT: pitchwheel channel=7 pitch=-3072 time=0.0057471250000000005
EXTRACT: pitchwheel channel=7 pitch=-3200 time=0.0057471250000000005
EXTRACT: pitchwheel channel=7 pitch=-3328 time=0.0057471250000000005
EXTRACT: pitchwheel channel=7 pitch=-3584 time=0.0057471250000000005
EXTRACT: pitchwheel channel=7 pitch=-3840 time=0.0057471250000000005
EXTRACT: pitchwheel channel=7 pitch=-4096 time=0.0057471250000000005
EXTRACT: pitchwheel channel=7 pitch=-4224 time=0.0057471250000000005
EXTRACT: note_on channel=2 note=31 velocity=0 time=0.0057471250000000005
EXTRACT: pitchwheel channel=7 pitch=-4480 time=0
EXTRACT: pitchwheel channel=7 pitch=-4608 time=0.0057471250000000005
EXTRACT: pitchwheel channel=7 pitch=-4864 time=0.0057471250000000005
EXTRACT: pitchwheel channel=7 pitch=-4992 time=0.0057471250000000005
EXTRACT: pitchwheel channel=7 pitch=-5120 time=0.0057471250000000005
EXTRACT: note_on channel=6 note=62 velocity=0 time=0.0057471250000000005
EXTRACT: pitchwheel channel=7 pitch=-5248 time=0
EXTRACT: pitchwheel channel=7 pitch=-5504 time=0.0057471250000000005
EXTRACT: note_on channel=0 note=82 velocity=0 time=0.0057471250000000005
EXTRACT: pitchwheel channel=7 pitch=-5632 time=0
EXTRACT: note_on channel=0 note=70 velocity=0 time=0.0057471250000000005
EXTRACT: pitchwheel channel=7 pitch=-5760 time=0
EXTRACT: pitchwheel channel=7 pitch=-5888 time=0.0057471250000000005
EXTRACT: pitchwheel channel=7 pitch=-6016 time=0.011494250000000001
EXTRACT: note_on channel=6 note=67 velocity=0 time=0.0057471250000000005
EXTRACT: pitchwheel channel=7 pitch=-5888 time=0.0057471250000000005
EXTRACT: note_on channel=4 note=43 velocity=0 time=0.0057471250000000005
EXTRACT: pitchwheel channel=7 pitch=-5760 time=0
EXTRACT: note_on channel=7 note=43 velocity=0 time=0.0057471250000000005
EXTRACT: pitchwheel channel=7 pitch=-4736 time=0
EXTRACT: note_on channel=2 note=27 velocity=92 time=0.0057471250000000005
EXTRACT: note_on channel=4 note=39 velocity=55 time=0
EXTRACT: note_on channel=6 note=67 velocity=62 time=0
EXTRACT: pitchwheel channel=7 pitch=-3968 time=0
EXTRACT: note_on channel=9 note=36 velocity=113 time=0
EXTRACT: note_on channel=9 note=46 velocity=80 time=0
EXTRACT: note_on channel=0 note=63 velocity=104 time=0.0057471250000000005
EXTRACT: note_on channel=4 note=55 velocity=0 time=0
EXTRACT: note_on channel=4 note=62 velocity=0 time=0
EXTRACT: note_on channel=4 note=58 velocity=0 time=0
EXTRACT: note_on channel=4 note=67 velocity=0 time=0
EXTRACT: note_on channel=5 note=70 velocity=0 time=0
EXTRACT: note_on channel=5 note=67 velocity=0 time=0
EXTRACT: note_on channel=5 note=62 velocity=0 time=0
EXTRACT: note_on channel=6 note=65 velocity=0 time=0
EXTRACT: pitchwheel channel=7 pitch=-2432 time=0
EXTRACT: note_on channel=7 note=39 velocity=72 time=0
EXTRACT: note_on channel=9 note=46 velocity=0 time=0
EXTRACT: note_on channel=9 note=36 velocity=0 time=0
EXTRACT: note_on channel=5 note=70 velocity=65 time=0.0057471250000000005
EXTRACT: pitchwheel channel=7 pitch=-384 time=0
EXTRACT: pitchwheel channel=7 pitch=-896 time=0
EXTRACT: note_on channel=0 note=62 velocity=0 time=0.0057471250000000005
EXTRACT: note_on channel=4 note=63 velocity=64 time=0
EXTRACT: note_on channel=4 note=67 velocity=63 time=0
EXTRACT: note_on channel=4 note=58 velocity=65 time=0
EXTRACT: note_on channel=4 note=55 velocity=64 time=0
EXTRACT: note_on channel=5 note=67 velocity=74 time=0
EXTRACT: pitchwheel channel=7 pitch=0 time=0
EXTRACT: note_on channel=4 note=39 velocity=0 time=0.316091875
EXTRACT: note_on channel=4 note=39 velocity=55 time=0.011494250000000001
EXTRACT: note_on channel=5 note=70 velocity=0 time=0
EXTRACT: note_on channel=9 note=28 velocity=69 time=0
EXTRACT: note_on channel=4 note=58 velocity=0 time=0.0057471250000000005
EXTRACT: note_on channel=4 note=55 velocity=0 time=0
EXTRACT: note_on channel=4 note=63 velocity=0 time=0
EXTRACT: note_on channel=4 note=67 velocity=0 time=0
EXTRACT: note_on channel=5 note=67 velocity=0 time=0
EXTRACT: note_on channel=9 note=28 velocity=0 time=0
EXTRACT: note_on channel=6 note=63 velocity=56 time=0.0057471250000000005
EXTRACT: note_on channel=4 note=58 velocity=61 time=0.0057471250000000005
EXTRACT: note_on channel=4 note=63 velocity=63 time=0
EXTRACT: note_on channel=4 note=55 velocity=58 time=0
EXTRACT: note_on channel=4 note=67 velocity=56 time=0
EXTRACT: note_on channel=5 note=67 velocity=73 time=0
EXTRACT: note_on channel=5 note=70 velocity=63 time=0
EXTRACT: note_on channel=0 note=67 velocity=0 time=0.12068962500000001
EXTRACT: note_on channel=2 note=27 velocity=0 time=0.09770112500000001
EXTRACT: note_on channel=6 note=67 velocity=0 time=0.09195400000000001
EXTRACT: note_on channel=4 note=39 velocity=0 time=0.0057471250000000005
EXTRACT: note_on channel=4 note=39 velocity=55 time=0.011494250000000001
EXTRACT: note_on channel=4 note=55 velocity=0 time=0.0057471250000000005
EXTRACT: note_on channel=4 note=67 velocity=0 time=0
EXTRACT: note_on channel=4 note=58 velocity=0 time=0
EXTRACT: note_on channel=4 note=63 velocity=0 time=0
EXTRACT: note_on channel=5 note=70 velocity=0 time=0
EXTRACT: note_on channel=5 note=67 velocity=0 time=0
EXTRACT: note_on channel=6 note=67 velocity=64 time=0.0057471250000000005
EXTRACT: note_on channel=4 note=58 velocity=65 time=0.0057471250000000005
EXTRACT: note_on channel=4 note=67 velocity=65 time=0
EXTRACT: note_on channel=4 note=63 velocity=67 time=0
EXTRACT: note_on channel=4 note=55 velocity=62 time=0
EXTRACT: note_on channel=5 note=67 velocity=74 time=0
EXTRACT: note_on channel=5 note=70 velocity=76 time=0
EXTRACT: note_on channel=9 note=28 velocity=65 time=0.155172375
EXTRACT: note_on channel=9 note=28 velocity=0 time=0.0057471250000000005
EXTRACT: note_on channel=4 note=39 velocity=0 time=0.155172375
EXTRACT: note_on channel=5 note=67 velocity=0 time=0.0057471250000000005
EXTRACT: note_on channel=4 note=39 velocity=55 time=0.0057471250000000005
EXTRACT: note_on channel=4 note=63 velocity=0 time=0.0057471250000000005
EXTRACT: note_on channel=4 note=55 velocity=0 time=0
EXTRACT: note_on channel=4 note=58 velocity=0 time=0
EXTRACT: note_on channel=4 note=67 velocity=0 time=0
EXTRACT: note_on channel=5 note=70 velocity=0 time=0
EXTRACT: note_on channel=6 note=65 velocity=55 time=0.0057471250000000005
EXTRACT: note_on channel=4 note=58 velocity=59 time=0.0057471250000000005
EXTRACT: note_on channel=4 note=63 velocity=61 time=0
EXTRACT: note_on channel=4 note=67 velocity=58 time=0
EXTRACT: note_on channel=4 note=55 velocity=57 time=0
EXTRACT: note_on channel=5 note=67 velocity=67 time=0
EXTRACT: note_on channel=5 note=70 velocity=67 time=0
EXTRACT: note_on channel=4 note=39 velocity=0 time=0.14367812500000002
EXTRACT: note_on channel=4 note=39 velocity=55 time=0.011494250000000001
EXTRACT: note_on channel=4 note=67 velocity=0 time=0.0057471250000000005
EXTRACT: note_on channel=4 note=55 velocity=0 time=0
EXTRACT: note_on channel=4 note=58 velocity=0 time=0
EXTRACT: note_on channel=4 note=63 velocity=0 time=0
EXTRACT: note_on channel=5 note=70 velocity=0 time=0
EXTRACT: note_on channel=5 note=67 velocity=0 time=0
EXTRACT: note_on channel=3 note=58 velocity=95 time=0
EXTRACT: note_on channel=4 note=58 velocity=67 time=0.0057471250000000005
EXTRACT: note_on channel=4 note=55 velocity=61 time=0
EXTRACT: note_on channel=4 note=63 velocity=65 time=0
EXTRACT: note_on channel=4 note=67 velocity=59 time=0
EXTRACT: note_on channel=5 note=70 velocity=75 time=0
EXTRACT: note_on channel=5 note=67 velocity=75 time=0
EXTRACT: note_on channel=6 note=67 velocity=0 time=0.09770112500000001
EXTRACT: note_on channel=3 note=58 velocity=0 time=0.045977000000000004
EXTRACT: note_on channel=9 note=28 velocity=78 time=0.011494250000000001
EXTRACT: note_on channel=0 note=67 velocity=98 time=0.0057471250000000005
EXTRACT: note_on channel=9 note=28 velocity=0 time=0
EXTRACT: note_on channel=3 note=63 velocity=109 time=0
EXTRACT: note_on channel=6 note=67 velocity=62 time=0
EXTRACT: note_on channel=4 note=39 velocity=0 time=0.14942525
EXTRACT: note_on channel=4 note=39 velocity=55 time=0.011494250000000001
EXTRACT: note_on channel=9 note=28 velocity=59 time=0
EXTRACT: note_on channel=4 note=63 velocity=0 time=0.0057471250000000005
EXTRACT: note_on channel=4 note=67 velocity=0 time=0
EXTRACT: note_on channel=4 note=58 velocity=0 time=0
EXTRACT: note_on channel=4 note=55 velocity=0 time=0
EXTRACT: note_on channel=5 note=67 velocity=0 time=0
EXTRACT: note_on channel=5 note=70 velocity=0 time=0
EXTRACT: note_on channel=9 note=28 velocity=0 time=0
EXTRACT: note_on channel=4 note=58 velocity=61 time=0.011494250000000001
EXTRACT: note_on channel=4 note=67 velocity=59 time=0
EXTRACT: note_on channel=4 note=63 velocity=61 time=0
EXTRACT: note_on channel=4 note=55 velocity=58 time=0
EXTRACT: note_on channel=5 note=67 velocity=70 time=0
EXTRACT: note_on channel=5 note=70 velocity=67 time=0
EXTRACT: note_on channel=0 note=63 velocity=0 time=0.028735625
EXTRACT: note_on channel=3 note=63 velocity=0 time=0.086206875
EXTRACT: note_on channel=6 note=63 velocity=0 time=0
EXTRACT: note_on channel=4 note=39 velocity=0 time=0.028735625
EXTRACT: note_on channel=4 note=39 velocity=55 time=0.011494250000000001
EXTRACT: note_on channel=9 note=28 velocity=60 time=0
EXTRACT: note_on channel=4 note=63 velocity=0 time=0.0057471250000000005
EXTRACT: note_on channel=4 note=55 velocity=0 time=0
EXTRACT: note_on channel=4 note=58 velocity=0 time=0
EXTRACT: note_on channel=4 note=67 velocity=0 time=0
EXTRACT: note_on channel=5 note=70 velocity=0 time=0
EXTRACT: note_on channel=5 note=67 velocity=0 time=0
EXTRACT: note_on channel=9 note=28 velocity=0 time=0
EXTRACT: note_on channel=3 note=62 velocity=95 time=0
EXTRACT: note_on channel=6 note=63 velocity=53 time=0
EXTRACT: note_on channel=4 note=58 velocity=68 time=0.0057471250000000005
EXTRACT: note_on channel=4 note=67 velocity=65 time=0
EXTRACT: note_on channel=4 note=63 velocity=68 time=0
EXTRACT: note_on channel=4 note=55 velocity=60 time=0
EXTRACT: note_on channel=5 note=67 velocity=81 time=0
EXTRACT: note_on channel=5 note=70 velocity=74 time=0
EXTRACT: note_on channel=3 note=62 velocity=0 time=0.13793100000000003
EXTRACT: note_on channel=3 note=62 velocity=107 time=0
EXTRACT: note_on channel=6 note=67 velocity=0 time=0.132183875
EXTRACT: note_on channel=4 note=39 velocity=0 time=0.017241375000000003
EXTRACT: note_on channel=0 note=63 velocity=104 time=0.0057471250000000005
EXTRACT: note_on channel=4 note=39 velocity=55 time=0.0057471250000000005
EXTRACT: note_on channel=4 note=63 velocity=0 time=0.0057471250000000005
EXTRACT: note_on channel=4 note=55 velocity=0 time=0
EXTRACT: note_on channel=4 note=58 velocity=0 time=0
EXTRACT: note_on channel=4 note=67 velocity=0 time=0
EXTRACT: note_on channel=5 note=70 velocity=0 time=0
EXTRACT: note_on channel=5 note=67 velocity=0 time=0
EXTRACT: note_on channel=6 note=67 velocity=64 time=0.0057471250000000005
EXTRACT: note_on channel=4 note=67 velocity=65 time=0.0057471250000000005
EXTRACT: note_on channel=4 note=58 velocity=69 time=0
EXTRACT: note_on channel=4 note=63 velocity=69 time=0
EXTRACT: note_on channel=4 note=55 velocity=63 time=0
EXTRACT: note_on channel=5 note=70 velocity=66 time=0
EXTRACT: note_on channel=5 note=67 velocity=66 time=0
EXTRACT: note_on channel=6 note=65 velocity=0 time=0
EXTRACT: note_on channel=4 note=39 velocity=0 time=0.14367812500000002
EXTRACT: note_on channel=4 note=39 velocity=55 time=0.011494250000000001
EXTRACT: note_on channel=4 note=63 velocity=0 time=0.0057471250000000005
EXTRACT: note_on channel=4 note=55 velocity=0 time=0
EXTRACT: note_on channel=4 note=67 velocity=0 time=0
EXTRACT: note_on channel=4 note=58 velocity=0 time=0
EXTRACT: note_on channel=5 note=67 velocity=0 time=0
EXTRACT: note_on channel=5 note=70 velocity=0 time=0
EXTRACT: note_on channel=4 note=58 velocity=67 time=0.011494250000000001
EXTRACT: note_on channel=4 note=63 velocity=67 time=0
EXTRACT: note_on channel=4 note=67 velocity=60 time=0
EXTRACT: note_on channel=4 note=55 velocity=61 time=0
EXTRACT: note_on channel=5 note=67 velocity=64 time=0
EXTRACT: note_on channel=5 note=70 velocity=69 time=0
EXTRACT: pitchwheel channel=7 pitch=-128 time=0.086206875
EXTRACT: note_on channel=3 note=62 velocity=0 time=0.0057471250000000005
EXTRACT: pitchwheel channel=7 pitch=-256 time=0.011494250000000001
EXTRACT: pitchwheel channel=7 pitch=-384 time=0.011494250000000001
EXTRACT: pitchwheel channel=7 pitch=-512 time=0.017241375000000003
EXTRACT: note_on channel=4 note=39 velocity=0 time=0.011494250000000001
EXTRACT: pitchwheel channel=7 pitch=-640 time=0
EXTRACT: note_on channel=0 note=62 velocity=95 time=0.0057471250000000005
EXTRACT: note_on channel=4 note=39 velocity=55 time=0.0057471250000000005
EXTRACT: note_on channel=4 note=67 velocity=0 time=0.0057471250000000005
EXTRACT: note_on channel=4 note=55 velocity=0 time=0
EXTRACT: note_on channel=4 note=58 velocity=0 time=0
EXTRACT: note_on channel=4 note=63 velocity=0 time=0
EXTRACT: note_on channel=5 note=70 velocity=0 time=0
EXTRACT: note_on channel=5 note=67 velocity=0 time=0
EXTRACT: pitchwheel channel=7 pitch=-768 time=0
EXTRACT: note_on channel=3 note=58 velocity=97 time=0
EXTRACT: note_on channel=6 note=65 velocity=58 time=0
EXTRACT: note_on channel=4 note=58 velocity=66 time=0.0057471250000000005
EXTRACT: note_on channel=4 note=67 velocity=60 time=0
EXTRACT: note_on channel=4 note=63 velocity=69 time=0
EXTRACT: note_on channel=4 note=55 velocity=60 time=0
EXTRACT: note_on channel=5 note=67 velocity=70 time=0
EXTRACT: note_on channel=5 note=70 velocity=68 time=0
EXTRACT: pitchwheel channel=7 pitch=-896 time=0
EXTRACT: pitchwheel channel=7 pitch=-1024 time=0.011494250000000001
EXTRACT: pitchwheel channel=7 pitch=-1152 time=0.011494250000000001
EXTRACT: pitchwheel channel=7 pitch=-1280 time=0.0057471250000000005
EXTRACT: pitchwheel channel=7 pitch=-1408 time=0.017241375000000003
EXTRACT: pitchwheel channel=7 pitch=-1536 time=0.0057471250000000005
EXTRACT: pitchwheel channel=7 pitch=-1664 time=0.011494250000000001
EXTRACT: pitchwheel channel=7 pitch=-1792 time=0.011494250000000001
EXTRACT: pitchwheel channel=7 pitch=-1920 time=0.0057471250000000005
EXTRACT: pitchwheel channel=7 pitch=-2048 time=0.011494250000000001
EXTRACT: pitchwheel channel=7 pitch=-2176 time=0.011494250000000001
EXTRACT: pitchwheel channel=7 pitch=-2304 time=0.0057471250000000005
EXTRACT: pitchwheel channel=7 pitch=-2432 time=0.011494250000000001
EXTRACT: pitchwheel channel=7 pitch=-2560 time=0.0057471250000000005
EXTRACT: pitchwheel channel=7 pitch=-2688 time=0.011494250000000001
EXTRACT: note_on channel=3 note=58 velocity=0 time=0.0057471250000000005
EXTRACT: note_on channel=4 note=39 velocity=0 time=0
EXTRACT: pitchwheel channel=7 pitch=-2816 time=0
EXTRACT: note_on channel=4 note=39 velocity=55 time=0.011494250000000001
EXTRACT: pitchwheel channel=7 pitch=-3072 time=0
EXTRACT: note_on channel=4 note=63 velocity=0 time=0.0057471250000000005
EXTRACT: note_on channel=4 note=55 velocity=0 time=0
EXTRACT: note_on channel=4 note=58 velocity=0 time=0
EXTRACT: note_on channel=4 note=67 velocity=0 time=0
EXTRACT: note_on channel=5 note=70 velocity=0 time=0
EXTRACT: note_on channel=5 note=67 velocity=0 time=0
EXTRACT: pitchwheel channel=7 pitch=-3200 time=0.0057471250000000005
EXTRACT: note_on channel=3 note=58 velocity=109 time=0
EXTRACT: note_on channel=4 note=67 velocity=57 time=0
EXTRACT: note_on channel=4 note=58 velocity=57 time=0
EXTRACT: note_on channel=4 note=55 velocity=57 time=0
EXTRACT: note_on channel=4 note=63 velocity=57 time=0
EXTRACT: note_on channel=5 note=67 velocity=63 time=0
EXTRACT: note_on channel=5 note=70 velocity=63 time=0
EXTRACT: pitchwheel channel=7 pitch=-3328 time=0
EXTRACT: pitchwheel channel=7 pitch=-3456 time=0.011494250000000001
EXTRACT: pitchwheel channel=7 pitch=-3584 time=0.0057471250000000005
EXTRACT: pitchwheel channel=7 pitch=-3712 time=0.0057471250000000005
EXTRACT: pitchwheel channel=7 pitch=-3840 time=0.0057471250000000005
EXTRACT: pitchwheel channel=7 pitch=-3840 time=0.017241375000000003
EXTRACT: pitchwheel channel=7 pitch=-3584 time=0.0057471250000000005
EXTRACT: pitchwheel channel=7 pitch=-2816 time=0.0057471250000000005
EXTRACT: pitchwheel channel=7 pitch=-1792 time=0.0057471250000000005
EXTRACT: pitchwheel channel=7 pitch=-1024 time=0.0057471250000000005
EXTRACT: pitchwheel channel=7 pitch=0 time=0.0057471250000000005
EXTRACT: note_on channel=0 note=62 velocity=0 time=0.017241375000000003
EXTRACT: note_on channel=6 note=63 velocity=0 time=0
EXTRACT: note_on channel=6 note=67 velocity=0 time=0.040229875000000005
EXTRACT: note_on channel=7 note=39 velocity=0 time=0
EXTRACT: note_on channel=6 note=65 velocity=0 time=0.0057471250000000005
EXTRACT: note_on channel=4 note=39 velocity=0 time=0.0057471250000000005
EXTRACT: note_on channel=2 note=34 velocity=93 time=0.011494250000000001
EXTRACT: note_on channel=4 note=46 velocity=55 time=0
EXTRACT: note_on channel=6 note=67 velocity=62 time=0
EXTRACT: note_on channel=7 note=46 velocity=73 time=0
EXTRACT: note_on channel=9 note=36 velocity=114 time=0
EXTRACT: note_on channel=9 note=46 velocity=81 time=0
EXTRACT: note_on channel=0 note=62 velocity=108 time=0.0057471250000000005
EXTRACT: note_on channel=4 note=55 velocity=0 time=0
EXTRACT: note_on channel=4 note=63 velocity=0 time=0
EXTRACT: note_on channel=4 note=67 velocity=0 time=0
EXTRACT: note_on channel=4 note=58 velocity=0 time=0
EXTRACT: note_on channel=5 note=70 velocity=0 time=0
EXTRACT: note_on channel=5 note=67 velocity=0 time=0
EXTRACT: note_on channel=9 note=46 velocity=0 time=0
EXTRACT: note_on channel=9 note=36 velocity=0 time=0
EXTRACT: note_on channel=0 note=67 velocity=0 time=0.0057471250000000005
EXTRACT: note_on channel=4 note=58 velocity=74 time=0.0057471250000000005
EXTRACT: note_on channel=4 note=62 velocity=69 time=0
EXTRACT: note_on channel=4 note=65 velocity=66 time=0
EXTRACT: note_on channel=4 note=53 velocity=66 time=0
EXTRACT: note_on channel=5 note=65 velocity=74 time=0
EXTRACT: note_on channel=5 note=70 velocity=63 time=0
EXTRACT: note_on channel=0 note=63 velocity=0 time=0.017241375000000003
EXTRACT: note_on channel=4 note=46 velocity=0 time=0.2988505
EXTRACT: note_on channel=4 note=46 velocity=55 time=0.011494250000000001
EXTRACT: note_on channel=9 note=28 velocity=73 time=0
EXTRACT: note_on channel=4 note=65 velocity=0 time=0.0057471250000000005
EXTRACT: note_on channel=4 note=53 velocity=0 time=0
EXTRACT: note_on channel=4 note=58 velocity=0 time=0
EXTRACT: note_on channel=4 note=62 velocity=0 time=0
EXTRACT: note_on channel=5 note=70 velocity=0 time=0
EXTRACT: note_on channel=5 note=65 velocity=0 time=0
EXTRACT: note_on channel=9 note=28 velocity=0 time=0
EXTRACT: note_on channel=6 note=62 velocity=56 time=0.0057471250000000005
EXTRACT: note_on channel=4 note=53 velocity=60 time=0.0057471250000000005
EXTRACT: note_on channel=4 note=58 velocity=61 time=0
EXTRACT: note_on channel=4 note=62 velocity=61 time=0
EXTRACT: note_on channel=4 note=65 velocity=59 time=0
EXTRACT: note_on channel=5 note=70 velocity=62 time=0
EXTRACT: note_on channel=5 note=65 velocity=64 time=0
EXTRACT: note_on channel=2 note=34 velocity=0 time=0.20114937500000002
EXTRACT: note_on channel=6 note=67 velocity=0 time=0.10919537500000001
EXTRACT: note_on channel=4 note=46 velocity=0 time=0.0057471250000000005
EXTRACT: note_on channel=4 note=46 velocity=55 time=0.011494250000000001
EXTRACT: note_on channel=4 note=62 velocity=0 time=0.0057471250000000005
EXTRACT: note_on channel=4 note=65 velocity=0 time=0
EXTRACT: note_on channel=4 note=53 velocity=0 time=0
EXTRACT: note_on channel=4 note=58 velocity=0 time=0
EXTRACT: note_on channel=5 note=65 velocity=0 time=0
EXTRACT: note_on channel=5 note=70 velocity=0 time=0
EXTRACT: note_on channel=5 note=65 velocity=74 time=0.0057471250000000005
EXTRACT: note_on channel=6 note=67 velocity=64 time=0
EXTRACT: note_on channel=4 note=58 velocity=65 time=0.0057471250000000005
EXTRACT: note_on channel=4 note=53 velocity=64 time=0
EXTRACT: note_on channel=4 note=62 velocity=67 time=0
EXTRACT: note_on channel=4 note=65 velocity=63 time=0
EXTRACT: note_on channel=5 note=70 velocity=65 time=0
EXTRACT: note_on channel=3 note=58 velocity=0 time=0.0057471250000000005
EXTRACT: note_on channel=9 note=28 velocity=65 time=0.14942525
EXTRACT: note_on channel=9 note=28 velocity=0 time=0.0057471250000000005
EXTRACT: note_on channel=4 note=46 velocity=0 time=0.155172375
EXTRACT: note_on channel=4 note=46 velocity=55 time=0.011494250000000001
EXTRACT: note_on channel=5 note=65 velocity=0 time=0
EXTRACT: note_on channel=4 note=62 velocity=0 time=0.0057471250000000005
EXTRACT: note_on channel=4 note=65 velocity=0 time=0
EXTRACT: note_on channel=4 note=58 velocity=0 time=0
EXTRACT: note_on channel=4 note=53 velocity=0 time=0
EXTRACT: note_on channel=5 note=70 velocity=0 time=0
EXTRACT: note_on channel=5 note=70 velocity=61 time=0
EXTRACT: note_on channel=5 note=65 velocity=64 time=0
EXTRACT: note_on channel=6 note=65 velocity=55 time=0.0057471250000000005
EXTRACT: note_on channel=4 note=53 velocity=60 time=0.0057471250000000005
EXTRACT: note_on channel=4 note=62 velocity=64 time=0
EXTRACT: note_on channel=4 note=58 velocity=59 time=0
EXTRACT: note_on channel=4 note=65 velocity=59 time=0
EXTRACT: note_on channel=4 note=46 velocity=0 time=0.14367812500000002
EXTRACT: note_on channel=5 note=65 velocity=0 time=0.0057471250000000005
EXTRACT: note_on channel=5 note=70 velocity=0 time=0
EXTRACT: note_on channel=4 note=46 velocity=55 time=0.0057471250000000005
EXTRACT: note_on channel=4 note=58 velocity=0 time=0.0057471250000000005
EXTRACT: note_on channel=4 note=65 velocity=0 time=0
EXTRACT: note_on channel=4 note=53 velocity=0 time=0
EXTRACT: note_on channel=4 note=62 velocity=0 time=0
EXTRACT: note_on channel=5 note=70 velocity=65 time=0
EXTRACT: note_on channel=5 note=65 velocity=72 time=0
EXTRACT: note_on channel=4 note=58 velocity=67 time=0.011494250000000001
EXTRACT: note_on channel=4 note=53 velocity=63 time=0
EXTRACT: note_on channel=4 note=65 velocity=60 time=0
EXTRACT: note_on channel=4 note=62 velocity=66 time=0
EXTRACT: note_on channel=6 note=67 velocity=0 time=0.09770112500000001
EXTRACT: note_on channel=9 note=28 velocity=82 time=0.05747125
EXTRACT: note_on channel=9 note=28 velocity=0 time=0.0057471250000000005
EXTRACT: note_on channel=6 note=67 velocity=62 time=0.0057471250000000005
EXTRACT: note_on channel=4 note=46 velocity=0 time=0.14942525
EXTRACT: note_on channel=5 note=65 velocity=0 time=0.0057471250000000005
EXTRACT: note_on channel=5 note=70 velocity=0 time=0
EXTRACT: note_on channel=4 note=46 velocity=55 time=0.0057471250000000005
EXTRACT: note_on channel=9 note=28 velocity=61 time=0
EXTRACT: note_on channel=4 note=65 velocity=0 time=0.0057471250000000005
EXTRACT: note_on channel=4 note=62 velocity=0 time=0
EXTRACT: note_on channel=4 note=58 velocity=0 time=0
EXTRACT: note_on channel=4 note=53 velocity=0 time=0
EXTRACT: note_on channel=5 note=70 velocity=60 time=0
EXTRACT: note_on channel=5 note=65 velocity=64 time=0
EXTRACT: note_on channel=9 note=28 velocity=0 time=0
EXTRACT: note_on channel=4 note=58 velocity=65 time=0.011494250000000001
EXTRACT: note_on channel=4 note=53 velocity=63 time=0
EXTRACT: note_on channel=4 note=62 velocity=65 time=0
EXTRACT: note_on channel=4 note=65 velocity=59 time=0
EXTRACT: note_on channel=0 note=62 velocity=0 time=0.086206875
EXTRACT: note_on channel=6 note=62 velocity=0 time=0.028735625
EXTRACT: note_on channel=4 note=46 velocity=0 time=0.028735625
EXTRACT: note_on channel=5 note=65 velocity=0 time=0.0057471250000000005
EXTRACT: note_on channel=5 note=70 velocity=0 time=0
EXTRACT: note_on channel=4 note=46 velocity=55 time=0.0057471250000000005
EXTRACT: note_on channel=9 note=28 velocity=59 time=0
EXTRACT: note_on channel=0 note=58 velocity=104 time=0.0057471250000000005
EXTRACT: note_on channel=4 note=62 velocity=0 time=0
EXTRACT: note_on channel=4 note=65 velocity=0 time=0
EXTRACT: note_on channel=4 note=58 velocity=0 time=0
EXTRACT: note_on channel=4 note=53 velocity=0 time=0
EXTRACT: note_on channel=5 note=65 velocity=70 time=0
EXTRACT: note_on channel=5 note=70 velocity=65 time=0
EXTRACT: note_on channel=9 note=28 velocity=0 time=0
EXTRACT: note_on channel=6 note=62 velocity=53 time=0.0057471250000000005
EXTRACT: note_on channel=4 note=58 velocity=64 time=0.0057471250000000005
EXTRACT: note_on channel=4 note=53 velocity=64 time=0
EXTRACT: note_on channel=4 note=62 velocity=64 time=0
EXTRACT: note_on channel=4 note=65 velocity=59 time=0
EXTRACT: note_on channel=6 note=67 velocity=0 time=0.2988505
EXTRACT: note_on channel=4 note=46 velocity=0 time=0.017241375000000003
EXTRACT: note_on channel=5 note=70 velocity=0 time=0.0057471250000000005
EXTRACT: note_on channel=5 note=65 velocity=0 time=0
EXTRACT: note_on channel=4 note=46 velocity=55 time=0.0057471250000000005
EXTRACT: note_on channel=0 note=65 velocity=86 time=0.0057471250000000005
EXTRACT: note_on channel=4 note=62 velocity=0 time=0
EXTRACT: note_on channel=4 note=65 velocity=0 time=0
EXTRACT: note_on channel=4 note=58 velocity=0 time=0
EXTRACT: note_on channel=4 note=53 velocity=0 time=0
EXTRACT: note_on channel=6 note=67 velocity=64 time=0.0057471250000000005
EXTRACT: note_on channel=4 note=58 velocity=75 time=0.0057471250000000005
EXTRACT: note_on channel=4 note=53 velocity=66 time=0
EXTRACT: note_on channel=4 note=62 velocity=69 time=0
EXTRACT: note_on channel=4 note=65 velocity=63 time=0
EXTRACT: note_on channel=5 note=70 velocity=72 time=0
EXTRACT: note_on channel=5 note=65 velocity=72 time=0
EXTRACT: note_on channel=6 note=65 velocity=0 time=0
EXTRACT: note_on channel=4 note=46 velocity=0 time=0.14367812500000002
EXTRACT: note_on channel=4 note=46 velocity=55 time=0.011494250000000001
EXTRACT: note_on channel=4 note=62 velocity=0 time=0.0057471250000000005
EXTRACT: note_on channel=4 note=65 velocity=0 time=0
EXTRACT: note_on channel=4 note=58 velocity=0 time=0
EXTRACT: note_on channel=4 note=53 velocity=0 time=0
EXTRACT: note_on channel=5 note=65 velocity=0 time=0
EXTRACT: note_on channel=5 note=70 velocity=0 time=0
EXTRACT: note_on channel=4 note=58 velocity=66 time=0.011494250000000001
EXTRACT: note_on channel=4 note=53 velocity=64 time=0
EXTRACT: note_on channel=4 note=65 velocity=59 time=0
EXTRACT: note_on channel=4 note=62 velocity=66 time=0
EXTRACT: note_on channel=5 note=65 velocity=65 time=0
EXTRACT: note_on channel=5 note=70 velocity=63 time=0
EXTRACT: note_on channel=0 note=65 velocity=0 time=0.09195400000000001
EXTRACT: note_on channel=4 note=46 velocity=0 time=0.051724125
EXTRACT: note_on channel=4 note=46 velocity=55 time=0.011494250000000001
EXTRACT: note_on channel=0 note=65 velocity=108 time=0.0057471250000000005
EXTRACT: note_on channel=4 note=65 velocity=0 time=0
EXTRACT: note_on channel=4 note=62 velocity=0 time=0
EXTRACT: note_on channel=4 note=58 velocity=0 time=0
EXTRACT: note_on channel=4 note=53 velocity=0 time=0
EXTRACT: note_on channel=5 note=70 velocity=0 time=0
EXTRACT: note_on channel=5 note=65 velocity=0 time=0
EXTRACT: note_on channel=6 note=65 velocity=58 time=0.0057471250000000005
EXTRACT: note_on channel=4 note=53 velocity=60 time=0.0057471250000000005
EXTRACT: note_on channel=4 note=58 velocity=63 time=0
EXTRACT: note_on channel=4 note=62 velocity=66 time=0
EXTRACT: note_on channel=4 note=65 velocity=58 time=0
EXTRACT: note_on channel=5 note=65 velocity=65 time=0
EXTRACT: note_on channel=5 note=70 velocity=61 time=0
EXTRACT: note_on channel=4 note=46 velocity=0 time=0.14367812500000002
EXTRACT: note_on channel=4 note=46 velocity=55 time=0.011494250000000001
EXTRACT: note_on channel=4 note=62 velocity=0 time=0.0057471250000000005
EXTRACT: note_on channel=4 note=65 velocity=0 time=0
EXTRACT: note_on channel=4 note=53 velocity=0 time=0
EXTRACT: note_on channel=4 note=58 velocity=0 time=0
EXTRACT: note_on channel=5 note=70 velocity=0 time=0
EXTRACT: note_on channel=5 note=65 velocity=0 time=0
EXTRACT: note_on channel=4 note=58 velocity=57 time=0.011494250000000001
EXTRACT: note_on channel=4 note=62 velocity=57 time=0
EXTRACT: note_on channel=4 note=65 velocity=57 time=0
EXTRACT: note_on channel=4 note=53 velocity=57 time=0
EXTRACT: note_on channel=5 note=65 velocity=63 time=0
EXTRACT: note_on channel=5 note=70 velocity=60 time=0
EXTRACT: note_on channel=0 note=65 velocity=0 time=0.074712625
EXTRACT: note_on channel=6 note=62 velocity=0 time=0.017241375000000003
EXTRACT: note_on channel=6 note=67 velocity=0 time=0.022988500000000002
EXTRACT: note_on channel=7 note=46 velocity=0 time=0.011494250000000001
EXTRACT: note_on channel=6 note=65 velocity=0 time=0.0057471250000000005
EXTRACT: note_on channel=4 note=46 velocity=0 time=0.011494250000000001
EXTRACT: note_on channel=7 note=45 velocity=71 time=0.0057471250000000005
EXTRACT: note_on channel=2 note=33 velocity=93 time=0.0057471250000000005
EXTRACT: note_on channel=0 note=65 velocity=108 time=0
EXTRACT: note_on channel=4 note=45 velocity=55 time=0
EXTRACT: note_on channel=6 note=65 velocity=62 time=0
EXTRACT: note_on channel=9 note=36 velocity=113 time=0
EXTRACT: note_on channel=9 note=46 velocity=80 time=0
EXTRACT: note_on channel=4 note=65 velocity=0 time=0.0057471250000000005
EXTRACT: note_on channel=4 note=53 velocity=0 time=0
EXTRACT: note_on channel=4 note=58 velocity=0 time=0
EXTRACT: note_on channel=4 note=62 velocity=0 time=0
EXTRACT: note_on channel=5 note=70 velocity=0 time=0
EXTRACT: note_on channel=5 note=65 velocity=0 time=0
EXTRACT: note_on channel=9 note=46 velocity=0 time=0
EXTRACT: note_on channel=9 note=36 velocity=0 time=0
EXTRACT: note_on channel=0 note=58 velocity=0 time=0.0057471250000000005
EXTRACT: note_on channel=4 note=60 velocity=33 time=0.0057471250000000005
EXTRACT: note_on channel=4 note=57 velocity=69 time=0
EXTRACT: note_on channel=4 note=65 velocity=33 time=0
EXTRACT: note_on channel=5 note=65 velocity=33 time=0
EXTRACT: note_on channel=5 note=70 velocity=45 time=0
EXTRACT: note_on channel=4 note=45 velocity=0 time=0.316091875
EXTRACT: note_on channel=4 note=45 velocity=55 time=0.011494250000000001
EXTRACT: note_on channel=9 note=28 velocity=50 time=0
EXTRACT: note_on channel=4 note=60 velocity=0 time=0.0057471250000000005
EXTRACT: note_on channel=4 note=65 velocity=0 time=0
EXTRACT: note_on channel=4 note=57 velocity=0 time=0
EXTRACT: note_on channel=5 note=70 velocity=0 time=0
EXTRACT: note_on channel=5 note=65 velocity=0 time=0
EXTRACT: note_on channel=9 note=28 velocity=0 time=0
EXTRACT: note_on channel=6 note=60 velocity=56 time=0.0057471250000000005
EXTRACT: note_on channel=4 note=57 velocity=59 time=0.0057471250000000005
EXTRACT: note_on channel=4 note=60 velocity=39 time=0
EXTRACT: note_on channel=4 note=65 velocity=39 time=0
EXTRACT: note_on channel=5 note=70 velocity=45 time=0
EXTRACT: note_on channel=5 note=65 velocity=39 time=0
EXTRACT: note_on channel=6 note=65 velocity=0 time=0.31034475
EXTRACT: note_on channel=4 note=45 velocity=0 time=0.0057471250000000005
EXTRACT: note_on channel=4 note=45 velocity=55 time=0.011494250000000001
EXTRACT: note_on channel=4 note=57 velocity=0 time=0.0057471250000000005
EXTRACT: note_on channel=4 note=65 velocity=0 time=0
EXTRACT: note_on channel=4 note=60 velocity=0 time=0
EXTRACT: note_on channel=5 note=65 velocity=0 time=0
EXTRACT: note_on channel=5 note=70 velocity=0 time=0
EXTRACT: note_on channel=6 note=65 velocity=64 time=0.0057471250000000005
EXTRACT: note_on channel=4 note=60 velocity=45 time=0.0057471250000000005
EXTRACT: note_on channel=4 note=65 velocity=45 time=0
EXTRACT: note_on channel=4 note=57 velocity=75 time=0
EXTRACT: note_on channel=5 note=70 velocity=45 time=0
EXTRACT: note_on channel=5 note=65 velocity=45 time=0
EXTRACT: note_on channel=2 note=33 velocity=0 time=0.017241375000000003
EXTRACT: note_on channel=9 note=28 velocity=53 time=0.13793100000000003
EXTRACT: note_on channel=9 note=28 velocity=0 time=0.0057471250000000005
EXTRACT: note_on channel=6 note=60 velocity=0 time=0.1149425
EXTRACT: note_on channel=4 note=45 velocity=0 time=0.040229875000000005
EXTRACT: note_on channel=4 note=45 velocity=55 time=0.011494250000000001
EXTRACT: note_on channel=4 note=60 velocity=0 time=0.0057471250000000005
EXTRACT: note_on channel=4 note=57 velocity=0 time=0
EXTRACT: note_on channel=4 note=65 velocity=0 time=0
EXTRACT: note_on channel=5 note=65 velocity=0 time=0
EXTRACT: note_on channel=5 note=70 velocity=0 time=0
EXTRACT: note_on channel=4 note=57 velocity=60 time=0.011494250000000001
EXTRACT: note_on channel=4 note=65 velocity=51 time=0
EXTRACT: note_on channel=4 note=60 velocity=51 time=0
EXTRACT: note_on channel=5 note=65 velocity=51 time=0
EXTRACT: note_on channel=5 note=70 velocity=45 time=0
EXTRACT: note_on channel=4 note=45 velocity=0 time=0.14367812500000002
EXTRACT: note_on channel=4 note=45 velocity=55 time=0.011494250000000001
EXTRACT: note_on channel=4 note=57 velocity=0 time=0.0057471250000000005
EXTRACT: note_on channel=4 note=60 velocity=0 time=0
EXTRACT: note_on channel=4 note=65 velocity=0 time=0
EXTRACT: note_on channel=5 note=70 velocity=0 time=0
EXTRACT: note_on channel=5 note=65 velocity=0 time=0
EXTRACT: note_on channel=4 note=60 velocity=55 time=0.011494250000000001
EXTRACT: note_on channel=4 note=57 velocity=74 time=0
EXTRACT: note_on channel=4 note=65 velocity=55 time=0
EXTRACT: note_on channel=5 note=65 velocity=55 time=0
EXTRACT: note_on channel=5 note=70 velocity=45 time=0
EXTRACT: note_on channel=6 note=65 velocity=0 time=0.09770112500000001
EXTRACT: note_on channel=4 note=45 velocity=0 time=0.045977000000000004
EXTRACT: note_on channel=0 note=65 velocity=0 time=0.011494250000000001
EXTRACT: note_on channel=9 note=58 velocity=100 time=0
EXTRACT: note_on channel=4 note=60 velocity=0 time=0.0057471250000000005
EXTRACT: note_on channel=4 note=57 velocity=0 time=0
EXTRACT: note_on channel=9 note=58 velocity=0 time=0
EXTRACT: note_on channel=7 note=45 velocity=0 time=0.011494250000000001
EXTRACT: note_on channel=4 note=65 velocity=0 time=0.16091950000000002
EXTRACT: note_on channel=5 note=70 velocity=0 time=0
EXTRACT: note_on channel=5 note=65 velocity=0 time=0
