EXTRACT: control_change channel=0 control=121 value=0 time=0
EXTRACT: program_change channel=0 program=0 time=0
EXTRACT: control_change channel=0 control=7 value=100 time=0
EXTRACT: control_change channel=0 control=10 value=64 time=0
EXTRACT: control_change channel=0 control=91 value=0 time=0
EXTRACT: control_change channel=0 control=93 value=0 time=0
EXTRACT: note_on channel=0 note=74 velocity=80 time=0
EXTRACT: note_on channel=0 note=26 velocity=80 time=0
EXTRACT: note_on channel=0 note=38 velocity=80 time=0
EXTRACT: note_on channel=0 note=74 velocity=0 time=0.23645833333333333
EXTRACT: note_on channel=0 note=74 velocity=80 time=0.013541666666666667
EXTRACT: note_on channel=0 note=74 velocity=0 time=0.23645833333333333
EXTRACT: note_on channel=0 note=74 velocity=80 time=0.013541666666666667
EXTRACT: note_on channel=0 note=74 velocity=0 time=0.23645833333333333
EXTRACT: note_on channel=0 note=74 velocity=80 time=0.013541666666666667
EXTRACT: note_on channel=0 note=26 velocity=0 time=0.19895833333333332
EXTRACT: note_on channel=0 note=38 velocity=0 time=0
EXTRACT: note_on channel=0 note=74 velocity=0 time=0.0375
EXTRACT: note_on channel=0 note=74 velocity=80 time=0.013541666666666667
EXTRACT: note_on channel=0 note=53 velocity=80 time=0
EXTRACT: note_on channel=0 note=57 velocity=80 time=0
EXTRACT: note_on channel=0 note=62 velocity=80 time=0
EXTRACT: note_on channel=0 note=74 velocity=0 time=0.23645833333333333
EXTRACT: note_on channel=0 note=72 velocity=80 time=0.013541666666666667
EXTRACT: note_on channel=0 note=72 velocity=0 time=0.23645833333333333
EXTRACT: note_on channel=0 note=72 velocity=80 time=0.013541666666666667
EXTRACT: note_on channel=0 note=72 velocity=0 time=0.23645833333333333
EXTRACT: note_on channel=0 note=72 velocity=80 time=0.013541666666666667
EXTRACT: note_on channel=0 note=53 velocity=0 time=0.19895833333333332
EXTRACT: note_on channel=0 note=57 velocity=0 time=0
EXTRACT: note_on channel=0 note=62 velocity=0 time=0
EXTRACT: note_on channel=0 note=72 velocity=0 time=0.0375
EXTRACT: note_on channel=0 note=72 velocity=80 time=0.013541666666666667
EXTRACT: note_on channel=0 note=50 velocity=80 time=0
EXTRACT: note_on channel=0 note=53 velocity=80 time=0
EXTRACT: note_on channel=0 note=57 velocity=80 time=0
EXTRACT: note_on channel=0 note=72 velocity=0 time=0.23645833333333333
EXTRACT: note_on channel=0 note=69 velocity=80 time=0.013541666666666667
EXTRACT: note_on channel=0 note=69 velocity=0 time=0.4739583333333333
EXTRACT: note_on channel=0 note=69 velocity=80 time=0.026041666666666668
EXTRACT: note_on channel=0 note=50 velocity=0 time=0.19895833333333332
EXTRACT: note_on channel=0 note=53 velocity=0 time=0
EXTRACT: note_on channel=0 note=57 velocity=0 time=0
EXTRACT: note_on channel=0 note=53 velocity=80 time=0.051041666666666666
EXTRACT: note_on channel=0 note=57 velocity=80 time=0
EXTRACT: note_on channel=0 note=62 velocity=80 time=0
EXTRACT: note_on channel=0 note=69 velocity=0 time=0.4614583333333333
EXTRACT: note_on channel=0 note=72 velocity=80 time=0.03854166666666667
EXTRACT: note_on channel=0 note=72 velocity=0 time=0.23645833333333333
EXTRACT: note_on channel=0 note=74 velocity=80 time=0.013541666666666667
EXTRACT: note_on channel=0 note=53 velocity=0 time=0.19895833333333332
EXTRACT: note_on channel=0 note=57 velocity=0 time=0
EXTRACT: note_on channel=0 note=62 velocity=0 time=0
EXTRACT: note_on channel=0 note=34 velocity=80 time=0.051041666666666666
EXTRACT: note_on channel=0 note=46 velocity=80 time=0
EXTRACT: note_on channel=0 note=74 velocity=0 time=0.22395833333333334
EXTRACT: note_on channel=0 note=74 velocity=80 time=0.026041666666666668
EXTRACT: note_on channel=0 note=74 velocity=0 time=0.23645833333333333
EXTRACT: note_on channel=0 note=74 velocity=80 time=0.013541666666666667
EXTRACT: note_on channel=0 note=74 velocity=0 time=0.23645833333333333
EXTRACT: note_on channel=0 note=74 velocity=80 time=0.013541666666666667
EXTRACT: note_on channel=0 note=34 velocity=0 time=0.19895833333333332
EXTRACT: note_on channel=0 note=46 velocity=0 time=0
EXTRACT: note_on channel=0 note=74 velocity=0 time=0.0375
EXTRACT: note_on channel=0 note=74 velocity=80 time=0.013541666666666667
EXTRACT: note_on channel=0 note=53 velocity=80 time=0
EXTRACT: note_on channel=0 note=58 velocity=80 time=0
EXTRACT: note_on channel=0 note=62 velocity=80 time=0
EXTRACT: note_on channel=0 note=74 velocity=0 time=0.23645833333333333
EXTRACT: note_on channel=0 note=72 velocity=80 time=0.013541666666666667
EXTRACT: note_on channel=0 note=72 velocity=0 time=0.23645833333333333
EXTRACT: note_on channel=0 note=72 velocity=80 time=0.013541666666666667
EXTRACT: note_on channel=0 note=72 velocity=0 time=0.23645833333333333
EXTRACT: note_on channel=0 note=72 velocity=80 time=0.013541666666666667
EXTRACT: note_on channel=0 note=53 velocity=0 time=0.19895833333333332
EXTRACT: note_on channel=0 note=58 velocity=0 time=0
EXTRACT: note_on channel=0 note=62 velocity=0 time=0
EXTRACT: note_on channel=0 note=72 velocity=0 time=0.0375
EXTRACT: note_on channel=0 note=72 velocity=80 time=0.013541666666666667
EXTRACT: note_on channel=0 note=50 velocity=80 time=0
EXTRACT: note_on channel=0 note=53 velocity=80 time=0
EXTRACT: note_on channel=0 note=58 velocity=80 time=0
EXTRACT: note_on channel=0 note=72 velocity=0 time=0.4739583333333333
EXTRACT: note_on channel=0 note=50 velocity=0 time=0.475
EXTRACT: note_on channel=0 note=53 velocity=0 time=0
EXTRACT: note_on channel=0 note=58 velocity=0 time=0
EXTRACT: note_on channel=0 note=69 velocity=80 time=0.051041666666666666
EXTRACT: note_on channel=0 note=53 velocity=80 time=0
EXTRACT: note_on channel=0 note=58 velocity=80 time=0
EXTRACT: note_on channel=0 note=62 velocity=80 time=0
EXTRACT: note_on channel=0 note=69 velocity=0 time=0.23645833333333333
EXTRACT: note_on channel=0 note=72 velocity=80 time=0.013541666666666667
EXTRACT: note_on channel=0 note=72 velocity=0 time=0.4739583333333333
EXTRACT: note_on channel=0 note=69 velocity=80 time=0.026041666666666668
EXTRACT: note_on channel=0 note=53 velocity=0 time=0.19895833333333332
EXTRACT: note_on channel=0 note=58 velocity=0 time=0
EXTRACT: note_on channel=0 note=62 velocity=0 time=0
EXTRACT: note_on channel=0 note=29 velocity=80 time=0.051041666666666666
EXTRACT: note_on channel=0 note=41 velocity=80 time=0
EXTRACT: note_on channel=0 note=29 velocity=0 time=0.9489583333333333
EXTRACT: note_on channel=0 note=41 velocity=0 time=0
EXTRACT: note_on channel=0 note=53 velocity=80 time=0.051041666666666666
EXTRACT: note_on channel=0 note=57 velocity=80 time=0
EXTRACT: note_on channel=0 note=60 velocity=80 time=0
EXTRACT: note_on channel=0 note=69 velocity=0 time=0.8864583333333333
EXTRACT: note_on channel=0 note=53 velocity=0 time=0.0625
EXTRACT: note_on channel=0 note=57 velocity=0 time=0
EXTRACT: note_on channel=0 note=60 velocity=0 time=0
EXTRACT: note_on channel=0 note=48 velocity=80 time=0.051041666666666666
EXTRACT: note_on channel=0 note=53 velocity=80 time=0
EXTRACT: note_on channel=0 note=57 velocity=80 time=0
EXTRACT: note_on channel=0 note=48 velocity=0 time=0.9489583333333333
EXTRACT: note_on channel=0 note=53 velocity=0 time=0
EXTRACT: note_on channel=0 note=57 velocity=0 time=0
EXTRACT: note_on channel=0 note=69 velocity=80 time=0.051041666666666666
EXTRACT: note_on channel=0 note=53 velocity=80 time=0
EXTRACT: note_on channel=0 note=57 velocity=80 time=0
EXTRACT: note_on channel=0 note=60 velocity=80 time=0
EXTRACT: note_on channel=0 note=69 velocity=0 time=0.23645833333333333
EXTRACT: note_on channel=0 note=72 velocity=80 time=0.013541666666666667
EXTRACT: note_on channel=0 note=72 velocity=0 time=0.4739583333333333
EXTRACT: note_on channel=0 note=67 velocity=80 time=0.026041666666666668
EXTRACT: note_on channel=0 note=53 velocity=0 time=0.19895833333333332
EXTRACT: note_on channel=0 note=57 velocity=0 time=0
EXTRACT: note_on channel=0 note=60 velocity=0 time=0
EXTRACT: note_on channel=0 note=24 velocity=80 time=0.051041666666666666
EXTRACT: note_on channel=0 note=36 velocity=80 time=0
EXTRACT: note_on channel=0 note=67 velocity=0 time=0.9364583333333333
EXTRACT: note_on channel=0 note=24 velocity=0 time=0.0125
EXTRACT: note_on channel=0 note=36 velocity=0 time=0
EXTRACT: note_on channel=0 note=52 velocity=80 time=0.051041666666666666
EXTRACT: note_on channel=0 note=55 velocity=80 time=0
EXTRACT: note_on channel=0 note=60 velocity=80 time=0
EXTRACT: note_on channel=0 note=52 velocity=0 time=0.9489583333333333
EXTRACT: note_on channel=0 note=55 velocity=0 time=0
EXTRACT: note_on channel=0 note=60 velocity=0 time=0
EXTRACT: note_on channel=0 note=48 velocity=80 time=0.051041666666666666
EXTRACT: note_on channel=0 note=52 velocity=80 time=0
EXTRACT: note_on channel=0 note=55 velocity=80 time=0
EXTRACT: note_on channel=0 note=48 velocity=0 time=0.9489583333333333
EXTRACT: note_on channel=0 note=52 velocity=0 time=0
EXTRACT: note_on channel=0 note=55 velocity=0 time=0
EXTRACT: note_on channel=0 note=52 velocity=80 time=0.051041666666666666
EXTRACT: note_on channel=0 note=55 velocity=80 time=0
EXTRACT: note_on channel=0 note=60 velocity=80 time=0
EXTRACT: note_on channel=0 note=74 velocity=80 time=0.75
EXTRACT: note_on channel=0 note=52 velocity=0 time=0.19895833333333332
EXTRACT: note_on channel=0 note=55 velocity=0 time=0
EXTRACT: note_on channel=0 note=60 velocity=0 time=0
EXTRACT: note_on channel=0 note=26 velocity=80 time=0.051041666666666666
EXTRACT: note_on channel=0 note=38 velocity=80 time=0
EXTRACT: note_on channel=0 note=74 velocity=0 time=0.22395833333333334
EXTRACT: note_on channel=0 note=74 velocity=80 time=0.026041666666666668
EXTRACT: note_on channel=0 note=74 velocity=0 time=0.23645833333333333
EXTRACT: note_on channel=0 note=74 velocity=80 time=0.013541666666666667
EXTRACT: note_on channel=0 note=74 velocity=0 time=0.23645833333333333
EXTRACT: note_on channel=0 note=74 velocity=80 time=0.013541666666666667
EXTRACT: note_on channel=0 note=26 velocity=0 time=0.19895833333333332
EXTRACT: note_on channel=0 note=38 velocity=0 time=0
EXTRACT: note_on channel=0 note=74 velocity=0 time=0.0375
EXTRACT: note_on channel=0 note=74 velocity=80 time=0.013541666666666667
EXTRACT: note_on channel=0 note=53 velocity=80 time=0
EXTRACT: note_on channel=0 note=57 velocity=80 time=0
EXTRACT: note_on channel=0 note=62 velocity=80 time=0
EXTRACT: note_on channel=0 note=74 velocity=0 time=0.23645833333333333
EXTRACT: note_on channel=0 note=72 velocity=80 time=0.013541666666666667
EXTRACT: note_on channel=0 note=72 velocity=0 time=0.23645833333333333
EXTRACT: note_on channel=0 note=72 velocity=80 time=0.013541666666666667
EXTRACT: note_on channel=0 note=72 velocity=0 time=0.23645833333333333
EXTRACT: note_on channel=0 note=72 velocity=80 time=0.013541666666666667
EXTRACT: note_on channel=0 note=53 velocity=0 time=0.19895833333333332
EXTRACT: note_on channel=0 note=57 velocity=0 time=0
EXTRACT: note_on channel=0 note=62 velocity=0 time=0
EXTRACT: note_on channel=0 note=72 velocity=0 time=0.0375
EXTRACT: note_on channel=0 note=72 velocity=80 time=0.013541666666666667
EXTRACT: note_on channel=0 note=50 velocity=80 time=0
EXTRACT: note_on channel=0 note=53 velocity=80 time=0
EXTRACT: note_on channel=0 note=57 velocity=80 time=0
EXTRACT: note_on channel=0 note=72 velocity=0 time=0.23645833333333333
EXTRACT: note_on channel=0 note=69 velocity=80 time=0.013541666666666667
EXTRACT: note_on channel=0 note=69 velocity=0 time=0.4739583333333333
EXTRACT: note_on channel=0 note=69 velocity=80 time=0.026041666666666668
EXTRACT: note_on channel=0 note=50 velocity=0 time=0.19895833333333332
EXTRACT: note_on channel=0 note=53 velocity=0 time=0
EXTRACT: note_on channel=0 note=57 velocity=0 time=0
EXTRACT: note_on channel=0 note=53 velocity=80 time=0.051041666666666666
EXTRACT: note_on channel=0 note=57 velocity=80 time=0
EXTRACT: note_on channel=0 note=62 velocity=80 time=0
EXTRACT: note_on channel=0 note=69 velocity=0 time=0.22395833333333334
EXTRACT: note_on channel=0 note=69 velocity=80 time=0.026041666666666668
EXTRACT: note_on channel=0 note=69 velocity=0 time=0.23645833333333333
EXTRACT: note_on channel=0 note=72 velocity=80 time=0.013541666666666667
EXTRACT: note_on channel=0 note=72 velocity=0 time=0.23645833333333333
EXTRACT: note_on channel=0 note=74 velocity=80 time=0.013541666666666667
EXTRACT: note_on channel=0 note=53 velocity=0 time=0.19895833333333332
EXTRACT: note_on channel=0 note=57 velocity=0 time=0
EXTRACT: note_on channel=0 note=62 velocity=0 time=0
EXTRACT: note_on channel=0 note=34 velocity=80 time=0.051041666666666666
EXTRACT: note_on channel=0 note=46 velocity=80 time=0
EXTRACT: note_on channel=0 note=74 velocity=0 time=0.22395833333333334
EXTRACT: note_on channel=0 note=74 velocity=80 time=0.026041666666666668
EXTRACT: note_on channel=0 note=74 velocity=0 time=0.23645833333333333
EXTRACT: note_on channel=0 note=74 velocity=80 time=0.013541666666666667
EXTRACT: note_on channel=0 note=74 velocity=0 time=0.23645833333333333
EXTRACT: note_on channel=0 note=74 velocity=80 time=0.013541666666666667
EXTRACT: note_on channel=0 note=34 velocity=0 time=0.19895833333333332
EXTRACT: note_on channel=0 note=46 velocity=0 time=0
EXTRACT: note_on channel=0 note=74 velocity=0 time=0.0375
EXTRACT: note_on channel=0 note=74 velocity=80 time=0.013541666666666667
EXTRACT: note_on channel=0 note=53 velocity=80 time=0
EXTRACT: note_on channel=0 note=58 velocity=80 time=0
EXTRACT: note_on channel=0 note=62 velocity=80 time=0
EXTRACT: note_on channel=0 note=74 velocity=0 time=0.23645833333333333
EXTRACT: note_on channel=0 note=72 velocity=80 time=0.013541666666666667
EXTRACT: note_on channel=0 note=72 velocity=0 time=0.23645833333333333
EXTRACT: note_on channel=0 note=72 velocity=80 time=0.013541666666666667
EXTRACT: note_on channel=0 note=72 velocity=0 time=0.23645833333333333
EXTRACT: note_on channel=0 note=72 velocity=80 time=0.013541666666666667
EXTRACT: note_on channel=0 note=53 velocity=0 time=0.19895833333333332
EXTRACT: note_on channel=0 note=58 velocity=0 time=0
EXTRACT: note_on channel=0 note=62 velocity=0 time=0
EXTRACT: note_on channel=0 note=72 velocity=0 time=0.0375
EXTRACT: note_on channel=0 note=72 velocity=80 time=0.013541666666666667
EXTRACT: note_on channel=0 note=50 velocity=80 time=0
EXTRACT: note_on channel=0 note=53 velocity=80 time=0
EXTRACT: note_on channel=0 note=58 velocity=80 time=0
EXTRACT: note_on channel=0 note=72 velocity=0 time=0.23645833333333333
EXTRACT: note_on channel=0 note=69 velocity=80 time=0.013541666666666667
EXTRACT: note_on channel=0 note=69 velocity=0 time=0.23645833333333333
EXTRACT: note_on channel=0 note=69 velocity=80 time=0.013541666666666667
EXTRACT: note_on channel=0 note=69 velocity=0 time=0.23645833333333333
EXTRACT: note_on channel=0 note=69 velocity=80 time=0.013541666666666667
EXTRACT: note_on channel=0 note=50 velocity=0 time=0.19895833333333332
EXTRACT: note_on channel=0 note=53 velocity=0 time=0
EXTRACT: note_on channel=0 note=58 velocity=0 time=0
EXTRACT: note_on channel=0 note=53 velocity=80 time=0.051041666666666666
EXTRACT: note_on channel=0 note=58 velocity=80 time=0
EXTRACT: note_on channel=0 note=62 velocity=80 time=0
EXTRACT: note_on channel=0 note=69 velocity=0 time=0.22395833333333334
EXTRACT: note_on channel=0 note=69 velocity=80 time=0.026041666666666668
EXTRACT: note_on channel=0 note=69 velocity=0 time=0.23645833333333333
EXTRACT: note_on channel=0 note=72 velocity=80 time=0.013541666666666667
EXTRACT: note_on channel=0 note=72 velocity=0 time=0.23645833333333333
EXTRACT: note_on channel=0 note=69 velocity=80 time=0.013541666666666667
EXTRACT: note_on channel=0 note=53 velocity=0 time=0.19895833333333332
EXTRACT: note_on channel=0 note=58 velocity=0 time=0
EXTRACT: note_on channel=0 note=62 velocity=0 time=0
EXTRACT: note_on channel=0 note=29 velocity=80 time=0.051041666666666666
EXTRACT: note_on channel=0 note=41 velocity=80 time=0
EXTRACT: note_on channel=0 note=29 velocity=0 time=0.9489583333333333
EXTRACT: note_on channel=0 note=41 velocity=0 time=0
EXTRACT: note_on channel=0 note=53 velocity=80 time=0.051041666666666666
EXTRACT: note_on channel=0 note=57 velocity=80 time=0
EXTRACT: note_on channel=0 note=60 velocity=80 time=0
EXTRACT: note_on channel=0 note=69 velocity=0 time=0.8864583333333333
EXTRACT: note_on channel=0 note=53 velocity=0 time=0.0625
EXTRACT: note_on channel=0 note=57 velocity=0 time=0
EXTRACT: note_on channel=0 note=60 velocity=0 time=0
EXTRACT: note_on channel=0 note=48 velocity=80 time=0.051041666666666666
EXTRACT: note_on channel=0 note=53 velocity=80 time=0
EXTRACT: note_on channel=0 note=57 velocity=80 time=0
EXTRACT: note_on channel=0 note=48 velocity=0 time=0.9489583333333333
EXTRACT: note_on channel=0 note=53 velocity=0 time=0
EXTRACT: note_on channel=0 note=57 velocity=0 time=0
EXTRACT: note_on channel=0 note=53 velocity=80 time=0.051041666666666666
EXTRACT: note_on channel=0 note=57 velocity=80 time=0
EXTRACT: note_on channel=0 note=60 velocity=80 time=0
EXTRACT: note_on channel=0 note=69 velocity=80 time=0.25
EXTRACT: note_on channel=0 note=69 velocity=0 time=0.23645833333333333
EXTRACT: note_on channel=0 note=72 velocity=80 time=0.013541666666666667
EXTRACT: note_on channel=0 note=72 velocity=0 time=0.23645833333333333
EXTRACT: note_on channel=0 note=67 velocity=80 time=0.013541666666666667
EXTRACT: note_on channel=0 note=53 velocity=0 time=0.19895833333333332
EXTRACT: note_on channel=0 note=57 velocity=0 time=0
EXTRACT: note_on channel=0 note=60 velocity=0 time=0
EXTRACT: note_on channel=0 note=24 velocity=80 time=0.051041666666666666
EXTRACT: note_on channel=0 note=36 velocity=80 time=0
EXTRACT: note_on channel=0 note=24 velocity=0 time=0.9489583333333333
EXTRACT: note_on channel=0 note=36 velocity=0 time=0
EXTRACT: note_on channel=0 note=52 velocity=80 time=0.051041666666666666
EXTRACT: note_on channel=0 note=67 velocity=0 time=0.8864583333333333
EXTRACT: note_on channel=0 note=52 velocity=0 time=0.0625
EXTRACT: note_on channel=0 note=52 velocity=80 time=0.051041666666666666
EXTRACT: note_on channel=0 note=52 velocity=0 time=0.9489583333333333
EXTRACT: note_on channel=0 note=52 velocity=80 time=0.051041666666666666
EXTRACT: note_on channel=0 note=62 velocity=80 time=0.25
EXTRACT: note_on channel=0 note=62 velocity=0 time=0.23645833333333333
EXTRACT: note_on channel=0 note=62 velocity=80 time=0.013541666666666667
EXTRACT: note_on channel=0 note=62 velocity=0 time=0.23645833333333333
EXTRACT: note_on channel=0 note=67 velocity=80 time=0.013541666666666667
EXTRACT: note_on channel=0 note=52 velocity=0 time=0.19895833333333332
EXTRACT: note_on channel=0 note=26 velocity=80 time=0.051041666666666666
EXTRACT: note_on channel=0 note=38 velocity=80 time=0
EXTRACT: note_on channel=0 note=67 velocity=0 time=0.22395833333333334
EXTRACT: note_on channel=0 note=67 velocity=80 time=0.026041666666666668
EXTRACT: note_on channel=0 note=67 velocity=0 time=0.23645833333333333
EXTRACT: note_on channel=0 note=67 velocity=80 time=0.013541666666666667
EXTRACT: note_on channel=0 note=67 velocity=0 time=0.23645833333333333
EXTRACT: note_on channel=0 note=67 velocity=80 time=0.013541666666666667
EXTRACT: note_on channel=0 note=26 velocity=0 time=0.19895833333333332
EXTRACT: note_on channel=0 note=38 velocity=0 time=0
EXTRACT: note_on channel=0 note=67 velocity=0 time=0.0375
EXTRACT: note_on channel=0 note=67 velocity=80 time=0.013541666666666667
EXTRACT: note_on channel=0 note=53 velocity=80 time=0
EXTRACT: note_on channel=0 note=57 velocity=80 time=0
EXTRACT: note_on channel=0 note=62 velocity=80 time=0
EXTRACT: note_on channel=0 note=67 velocity=0 time=0.23645833333333333
EXTRACT: note_on channel=0 note=65 velocity=80 time=0.013541666666666667
EXTRACT: note_on channel=0 note=65 velocity=0 time=0.4739583333333333
EXTRACT: note_on channel=0 note=62 velocity=80 time=0.026041666666666668
EXTRACT: note_on channel=0 note=53 velocity=0 time=0.19895833333333332
EXTRACT: note_on channel=0 note=57 velocity=0 time=0
EXTRACT: note_on channel=0 note=62 velocity=0 time=0
EXTRACT: note_on channel=0 note=62 velocity=0 time=0.0375
EXTRACT: note_on channel=0 note=67 velocity=80 time=0.013541666666666667
EXTRACT: note_on channel=0 note=50 velocity=80 time=0
EXTRACT: note_on channel=0 note=53 velocity=80 time=0
EXTRACT: note_on channel=0 note=57 velocity=80 time=0
EXTRACT: note_on channel=0 note=67 velocity=0 time=0.23645833333333333
EXTRACT: note_on channel=0 note=67 velocity=80 time=0.013541666666666667
EXTRACT: note_on channel=0 note=67 velocity=0 time=0.23645833333333333
EXTRACT: note_on channel=0 note=67 velocity=80 time=0.013541666666666667
EXTRACT: note_on channel=0 note=67 velocity=0 time=0.23645833333333333
EXTRACT: note_on channel=0 note=65 velocity=80 time=0.013541666666666667
EXTRACT: note_on channel=0 note=50 velocity=0 time=0.19895833333333332
EXTRACT: note_on channel=0 note=53 velocity=0 time=0
EXTRACT: note_on channel=0 note=57 velocity=0 time=0
EXTRACT: note_on channel=0 note=65 velocity=0 time=0.0375
EXTRACT: note_on channel=0 note=65 velocity=80 time=0.013541666666666667
EXTRACT: note_on channel=0 note=53 velocity=80 time=0
EXTRACT: note_on channel=0 note=57 velocity=80 time=0
EXTRACT: note_on channel=0 note=62 velocity=80 time=0
EXTRACT: note_on channel=0 note=65 velocity=0 time=0.7114583333333333
EXTRACT: note_on channel=0 note=67 velocity=80 time=0.03854166666666667
EXTRACT: note_on channel=0 note=53 velocity=0 time=0.19895833333333332
EXTRACT: note_on channel=0 note=57 velocity=0 time=0
EXTRACT: note_on channel=0 note=62 velocity=0 time=0
EXTRACT: note_on channel=0 note=34 velocity=80 time=0.051041666666666666
EXTRACT: note_on channel=0 note=46 velocity=80 time=0
EXTRACT: note_on channel=0 note=67 velocity=0 time=0.22395833333333334
EXTRACT: note_on channel=0 note=67 velocity=80 time=0.026041666666666668
EXTRACT: note_on channel=0 note=67 velocity=0 time=0.23645833333333333
EXTRACT: note_on channel=0 note=67 velocity=80 time=0.013541666666666667
EXTRACT: note_on channel=0 note=67 velocity=0 time=0.23645833333333333
EXTRACT: note_on channel=0 note=67 velocity=80 time=0.013541666666666667
EXTRACT: note_on channel=0 note=34 velocity=0 time=0.19895833333333332
EXTRACT: note_on channel=0 note=46 velocity=0 time=0
EXTRACT: note_on channel=0 note=67 velocity=0 time=0.0375
EXTRACT: note_on channel=0 note=67 velocity=80 time=0.013541666666666667
EXTRACT: note_on channel=0 note=53 velocity=80 time=0
EXTRACT: note_on channel=0 note=58 velocity=80 time=0
EXTRACT: note_on channel=0 note=62 velocity=80 time=0
EXTRACT: note_on channel=0 note=67 velocity=0 time=0.23645833333333333
EXTRACT: note_on channel=0 note=65 velocity=80 time=0.013541666666666667
EXTRACT: note_on channel=0 note=65 velocity=0 time=0.4739583333333333
EXTRACT: note_on channel=0 note=67 velocity=80 time=0.026041666666666668
EXTRACT: note_on channel=0 note=53 velocity=0 time=0.19895833333333332
EXTRACT: note_on channel=0 note=58 velocity=0 time=0
EXTRACT: note_on channel=0 note=62 velocity=0 time=0
EXTRACT: note_on channel=0 note=50 velocity=80 time=0.051041666666666666
EXTRACT: note_on channel=0 note=53 velocity=80 time=0
EXTRACT: note_on channel=0 note=58 velocity=80 time=0
EXTRACT: note_on channel=0 note=67 velocity=0 time=0.22395833333333334
EXTRACT: note_on channel=0 note=67 velocity=80 time=0.026041666666666668
EXTRACT: note_on channel=0 note=67 velocity=0 time=0.23645833333333333
EXTRACT: note_on channel=0 note=67 velocity=80 time=0.013541666666666667
EXTRACT: note_on channel=0 note=67 velocity=0 time=0.23645833333333333
EXTRACT: note_on channel=0 note=67 velocity=80 time=0.013541666666666667
EXTRACT: note_on channel=0 note=50 velocity=0 time=0.19895833333333332
EXTRACT: note_on channel=0 note=53 velocity=0 time=0
EXTRACT: note_on channel=0 note=58 velocity=0 time=0
EXTRACT: note_on channel=0 note=67 velocity=0 time=0.0375
EXTRACT: note_on channel=0 note=67 velocity=80 time=0.013541666666666667
EXTRACT: note_on channel=0 note=53 velocity=80 time=0
EXTRACT: note_on channel=0 note=58 velocity=80 time=0
EXTRACT: note_on channel=0 note=62 velocity=80 time=0
EXTRACT: note_on channel=0 note=67 velocity=0 time=0.23645833333333333
EXTRACT: note_on channel=0 note=67 velocity=80 time=0.013541666666666667
EXTRACT: note_on channel=0 note=67 velocity=0 time=0.23645833333333333
EXTRACT: note_on channel=0 note=67 velocity=80 time=0.013541666666666667
EXTRACT: note_on channel=0 note=67 velocity=0 time=0.23645833333333333
EXTRACT: note_on channel=0 note=67 velocity=80 time=0.013541666666666667
EXTRACT: note_on channel=0 note=53 velocity=0 time=0.19895833333333332
EXTRACT: note_on channel=0 note=58 velocity=0 time=0
EXTRACT: note_on channel=0 note=62 velocity=0 time=0
EXTRACT: note_on channel=0 note=67 velocity=0 time=0.0375
EXTRACT: note_on channel=0 note=67 velocity=80 time=0.013541666666666667
EXTRACT: note_on channel=0 note=29 velocity=80 time=0
EXTRACT: note_on channel=0 note=41 velocity=80 time=0
EXTRACT: note_on channel=0 note=67 velocity=0 time=0.23645833333333333
EXTRACT: note_on channel=0 note=65 velocity=80 time=0.013541666666666667
EXTRACT: note_on channel=0 note=65 velocity=0 time=0.23645833333333333
EXTRACT: note_on channel=0 note=65 velocity=80 time=0.013541666666666667
EXTRACT: note_on channel=0 note=29 velocity=0 time=0.44895833333333335
EXTRACT: note_on channel=0 note=41 velocity=0 time=0
EXTRACT: note_on channel=0 note=53 velocity=80 time=0.051041666666666666
EXTRACT: note_on channel=0 note=57 velocity=80 time=0
EXTRACT: note_on channel=0 note=60 velocity=80 time=0
EXTRACT: note_on channel=0 note=65 velocity=0 time=0.9239583333333333
EXTRACT: note_on channel=0 note=53 velocity=0 time=0.025
EXTRACT: note_on channel=0 note=57 velocity=0 time=0
EXTRACT: note_on channel=0 note=60 velocity=0 time=0
EXTRACT: note_on channel=0 note=48 velocity=80 time=0.051041666666666666
EXTRACT: note_on channel=0 note=53 velocity=80 time=0
EXTRACT: note_on channel=0 note=57 velocity=80 time=0
EXTRACT: note_on channel=0 note=65 velocity=80 time=0.25
EXTRACT: note_on channel=0 note=65 velocity=0 time=0.23645833333333333
EXTRACT: note_on channel=0 note=67 velocity=80 time=0.013541666666666667
EXTRACT: note_on channel=0 note=67 velocity=0 time=0.23645833333333333
EXTRACT: note_on channel=0 note=67 velocity=80 time=0.013541666666666667
EXTRACT: note_on channel=0 note=48 velocity=0 time=0.19895833333333332
EXTRACT: note_on channel=0 note=53 velocity=0 time=0
EXTRACT: note_on channel=0 note=57 velocity=0 time=0
EXTRACT: note_on channel=0 note=67 velocity=0 time=0.0375
EXTRACT: note_on channel=0 note=67 velocity=80 time=0.013541666666666667
EXTRACT: note_on channel=0 note=53 velocity=80 time=0
EXTRACT: note_on channel=0 note=57 velocity=80 time=0
EXTRACT: note_on channel=0 note=60 velocity=80 time=0
EXTRACT: note_on channel=0 note=67 velocity=0 time=0.23645833333333333
EXTRACT: note_on channel=0 note=65 velocity=80 time=0.013541666666666667
EXTRACT: note_on channel=0 note=65 velocity=0 time=0.4739583333333333
EXTRACT: note_on channel=0 note=69 velocity=80 time=0.026041666666666668
EXTRACT: note_on channel=0 note=53 velocity=0 time=0.19895833333333332
EXTRACT: note_on channel=0 note=57 velocity=0 time=0
EXTRACT: note_on channel=0 note=60 velocity=0 time=0
EXTRACT: note_on channel=0 note=24 velocity=80 time=0.051041666666666666
EXTRACT: note_on channel=0 note=36 velocity=80 time=0
EXTRACT: note_on channel=0 note=69 velocity=0 time=0.9364583333333333
EXTRACT: note_on channel=0 note=74 velocity=80 time=0.8135416666666666
EXTRACT: note_on channel=0 note=74 velocity=0 time=0.23645833333333333
EXTRACT: note_on channel=0 note=79 velocity=80 time=0.013541666666666667
EXTRACT: note_on channel=0 note=79 velocity=0 time=0.23645833333333333
EXTRACT: note_on channel=0 note=79 velocity=80 time=0.013541666666666667
EXTRACT: note_on channel=0 note=79 velocity=0 time=0.23645833333333333
EXTRACT: note_on channel=0 note=79 velocity=80 time=0.013541666666666667
EXTRACT: note_on channel=0 note=79 velocity=0 time=0.23645833333333333
EXTRACT: note_on channel=0 note=79 velocity=80 time=0.013541666666666667
EXTRACT: note_on channel=0 note=79 velocity=0 time=0.23645833333333333
EXTRACT: note_on channel=0 note=79 velocity=80 time=0.013541666666666667
EXTRACT: note_on channel=0 note=79 velocity=0 time=0.23645833333333333
EXTRACT: note_on channel=0 note=77 velocity=80 time=0.013541666666666667
EXTRACT: note_on channel=0 note=24 velocity=0 time=0.5489583333333333
EXTRACT: note_on channel=0 note=36 velocity=0 time=0
EXTRACT: note_on channel=0 note=77 velocity=0 time=0.1625
EXTRACT: note_on channel=0 note=74 velocity=80 time=0.03854166666666667
EXTRACT: note_on channel=0 note=38 velocity=80 time=0
EXTRACT: note_on channel=0 note=50 velocity=80 time=0
EXTRACT: note_on channel=0 note=74 velocity=0 time=0.7114583333333333
EXTRACT: note_on channel=0 note=74 velocity=80 time=0.03854166666666667
EXTRACT: note_on channel=0 note=38 velocity=0 time=0.19895833333333332
EXTRACT: note_on channel=0 note=50 velocity=0 time=0
EXTRACT: note_on channel=0 note=74 velocity=0 time=0.0375
EXTRACT: note_on channel=0 note=77 velocity=80 time=0.013541666666666667
EXTRACT: note_on channel=0 note=38 velocity=80 time=0
EXTRACT: note_on channel=0 note=50 velocity=80 time=0
EXTRACT: note_on channel=0 note=77 velocity=0 time=0.4739583333333333
EXTRACT: note_on channel=0 note=81 velocity=80 time=0.026041666666666668
EXTRACT: note_on channel=0 note=38 velocity=0 time=0.44895833333333335
EXTRACT: note_on channel=0 note=50 velocity=0 time=0
EXTRACT: note_on channel=0 note=81 velocity=0 time=0.025
EXTRACT: note_on channel=0 note=86 velocity=80 time=0.026041666666666668
EXTRACT: note_on channel=0 note=38 velocity=80 time=0
EXTRACT: note_on channel=0 note=50 velocity=80 time=0
EXTRACT: note_on channel=0 note=86 velocity=0 time=0.7114583333333333
EXTRACT: note_on channel=0 note=86 velocity=80 time=0.03854166666666667
EXTRACT: note_on channel=0 note=38 velocity=0 time=0.19895833333333332
EXTRACT: note_on channel=0 note=50 velocity=0 time=0
EXTRACT: note_on channel=0 note=86 velocity=0 time=0.0375
EXTRACT: note_on channel=0 note=84 velocity=80 time=0.013541666666666667
EXTRACT: note_on channel=0 note=38 velocity=80 time=0
EXTRACT: note_on channel=0 note=50 velocity=80 time=0
EXTRACT: note_on channel=0 note=84 velocity=0 time=0.4739583333333333
EXTRACT: note_on channel=0 note=89 velocity=80 time=0.026041666666666668
EXTRACT: note_on channel=0 note=38 velocity=0 time=0.44895833333333335
EXTRACT: note_on channel=0 note=50 velocity=0 time=0
EXTRACT: note_on channel=0 note=89 velocity=0 time=0.025
EXTRACT: note_on channel=0 note=86 velocity=80 time=0.026041666666666668
EXTRACT: note_on channel=0 note=34 velocity=80 time=0
EXTRACT: note_on channel=0 note=46 velocity=80 time=0
EXTRACT: note_on channel=0 note=86 velocity=0 time=0.7114583333333333
EXTRACT: note_on channel=0 note=86 velocity=80 time=0.03854166666666667
EXTRACT: note_on channel=0 note=34 velocity=0 time=0.19895833333333332
EXTRACT: note_on channel=0 note=46 velocity=0 time=0
EXTRACT: note_on channel=0 note=86 velocity=0 time=0.0375
EXTRACT: note_on channel=0 note=84 velocity=80 time=0.013541666666666667
EXTRACT: note_on channel=0 note=34 velocity=80 time=0
EXTRACT: note_on channel=0 note=46 velocity=80 time=0
EXTRACT: note_on channel=0 note=84 velocity=0 time=0.4739583333333333
EXTRACT: note_on channel=0 note=89 velocity=80 time=0.026041666666666668
EXTRACT: note_on channel=0 note=34 velocity=0 time=0.44895833333333335
EXTRACT: note_on channel=0 note=46 velocity=0 time=0
EXTRACT: note_on channel=0 note=89 velocity=0 time=0.025
EXTRACT: note_on channel=0 note=86 velocity=80 time=0.026041666666666668
EXTRACT: note_on channel=0 note=34 velocity=80 time=0
EXTRACT: note_on channel=0 note=46 velocity=80 time=0
EXTRACT: note_on channel=0 note=86 velocity=0 time=0.7114583333333333
EXTRACT: note_on channel=0 note=86 velocity=80 time=0.03854166666666667
EXTRACT: note_on channel=0 note=34 velocity=0 time=0.19895833333333332
EXTRACT: note_on channel=0 note=46 velocity=0 time=0
EXTRACT: note_on channel=0 note=86 velocity=0 time=0.0375
EXTRACT: note_on channel=0 note=84 velocity=80 time=0.013541666666666667
EXTRACT: note_on channel=0 note=34 velocity=80 time=0
EXTRACT: note_on channel=0 note=46 velocity=80 time=0
EXTRACT: note_on channel=0 note=84 velocity=0 time=0.4739583333333333
EXTRACT: note_on channel=0 note=81 velocity=80 time=0.026041666666666668
EXTRACT: note_on channel=0 note=34 velocity=0 time=0.44895833333333335
EXTRACT: note_on channel=0 note=46 velocity=0 time=0
EXTRACT: note_on channel=0 note=81 velocity=0 time=0.025
EXTRACT: note_on channel=0 note=81 velocity=80 time=0.026041666666666668
EXTRACT: note_on channel=0 note=29 velocity=80 time=0
EXTRACT: note_on channel=0 note=41 velocity=80 time=0
EXTRACT: note_on channel=0 note=81 velocity=0 time=0.7114583333333333
EXTRACT: note_on channel=0 note=81 velocity=80 time=0.03854166666666667
EXTRACT: note_on channel=0 note=29 velocity=0 time=0.19895833333333332
EXTRACT: note_on channel=0 note=41 velocity=0 time=0
EXTRACT: note_on channel=0 note=81 velocity=0 time=0.0375
EXTRACT: note_on channel=0 note=79 velocity=80 time=0.013541666666666667
EXTRACT: note_on channel=0 note=29 velocity=80 time=0
EXTRACT: note_on channel=0 note=41 velocity=80 time=0
EXTRACT: note_on channel=0 note=79 velocity=0 time=0.4739583333333333
EXTRACT: note_on channel=0 note=84 velocity=80 time=0.026041666666666668
EXTRACT: note_on channel=0 note=29 velocity=0 time=0.44895833333333335
EXTRACT: note_on channel=0 note=41 velocity=0 time=0
EXTRACT: note_on channel=0 note=84 velocity=0 time=0.025
EXTRACT: note_on channel=0 note=81 velocity=80 time=0.026041666666666668
EXTRACT: note_on channel=0 note=29 velocity=80 time=0
EXTRACT: note_on channel=0 note=41 velocity=80 time=0
EXTRACT: note_on channel=0 note=81 velocity=0 time=0.7114583333333333
EXTRACT: note_on channel=0 note=81 velocity=80 time=0.03854166666666667
EXTRACT: note_on channel=0 note=29 velocity=0 time=0.19895833333333332
EXTRACT: note_on channel=0 note=41 velocity=0 time=0
EXTRACT: note_on channel=0 note=81 velocity=0 time=0.0375
EXTRACT: note_on channel=0 note=79 velocity=80 time=0.013541666666666667
EXTRACT: note_on channel=0 note=29 velocity=80 time=0
EXTRACT: note_on channel=0 note=41 velocity=80 time=0
EXTRACT: note_on channel=0 note=79 velocity=0 time=0.4739583333333333
EXTRACT: note_on channel=0 note=77 velocity=80 time=0.026041666666666668
EXTRACT: note_on channel=0 note=29 velocity=0 time=0.44895833333333335
EXTRACT: note_on channel=0 note=41 velocity=0 time=0
EXTRACT: note_on channel=0 note=77 velocity=0 time=0.025
EXTRACT: note_on channel=0 note=76 velocity=80 time=0.026041666666666668
EXTRACT: note_on channel=0 note=24 velocity=80 time=0
EXTRACT: note_on channel=0 note=36 velocity=80 time=0
EXTRACT: note_on channel=0 note=76 velocity=0 time=0.9489583333333333
EXTRACT: note_on channel=0 note=24 velocity=0 time=0
EXTRACT: note_on channel=0 note=36 velocity=0 time=0
EXTRACT: note_on channel=0 note=24 velocity=80 time=0.051041666666666666
EXTRACT: note_on channel=0 note=36 velocity=80 time=0
EXTRACT: note_on channel=0 note=24 velocity=0 time=0.9489583333333333
EXTRACT: note_on channel=0 note=36 velocity=0 time=0
EXTRACT: note_on channel=0 note=79 velocity=80 time=0.051041666666666666
EXTRACT: note_on channel=0 note=24 velocity=80 time=0
EXTRACT: note_on channel=0 note=36 velocity=80 time=0
EXTRACT: note_on channel=0 note=79 velocity=0 time=0.23645833333333333
EXTRACT: note_on channel=0 note=79 velocity=80 time=0.013541666666666667
EXTRACT: note_on channel=0 note=79 velocity=0 time=0.23645833333333333
EXTRACT: note_on channel=0 note=79 velocity=80 time=0.013541666666666667
EXTRACT: note_on channel=0 note=79 velocity=0 time=0.23645833333333333
EXTRACT: note_on channel=0 note=79 velocity=80 time=0.013541666666666667
EXTRACT: note_on channel=0 note=24 velocity=0 time=0.19895833333333332
EXTRACT: note_on channel=0 note=36 velocity=0 time=0
EXTRACT: note_on channel=0 note=79 velocity=0 time=0.0375
EXTRACT: note_on channel=0 note=79 velocity=80 time=0.013541666666666667
EXTRACT: note_on channel=0 note=24 velocity=80 time=0
EXTRACT: note_on channel=0 note=36 velocity=80 time=0
EXTRACT: note_on channel=0 note=79 velocity=0 time=0.23645833333333333
EXTRACT: note_on channel=0 note=77 velocity=80 time=0.013541666666666667
EXTRACT: note_on channel=0 note=24 velocity=0 time=0.6989583333333333
EXTRACT: note_on channel=0 note=36 velocity=0 time=0
EXTRACT: note_on channel=0 note=77 velocity=0 time=0.0125
EXTRACT: note_on channel=0 note=74 velocity=80 time=0.03854166666666667
EXTRACT: note_on channel=0 note=38 velocity=80 time=0
EXTRACT: note_on channel=0 note=50 velocity=80 time=0
EXTRACT: note_on channel=0 note=74 velocity=0 time=0.7114583333333333
EXTRACT: note_on channel=0 note=74 velocity=80 time=0.03854166666666667
EXTRACT: note_on channel=0 note=38 velocity=0 time=0.19895833333333332
EXTRACT: note_on channel=0 note=50 velocity=0 time=0
EXTRACT: note_on channel=0 note=74 velocity=0 time=0.0375
EXTRACT: note_on channel=0 note=77 velocity=80 time=0.013541666666666667
EXTRACT: note_on channel=0 note=38 velocity=80 time=0
EXTRACT: note_on channel=0 note=50 velocity=80 time=0
EXTRACT: note_on channel=0 note=77 velocity=0 time=0.4739583333333333
EXTRACT: note_on channel=0 note=81 velocity=80 time=0.026041666666666668
EXTRACT: note_on channel=0 note=38 velocity=0 time=0.44895833333333335
EXTRACT: note_on channel=0 note=50 velocity=0 time=0
EXTRACT: note_on channel=0 note=81 velocity=0 time=0.025
EXTRACT: note_on channel=0 note=86 velocity=80 time=0.026041666666666668
EXTRACT: note_on channel=0 note=38 velocity=80 time=0
EXTRACT: note_on channel=0 note=50 velocity=80 time=0
EXTRACT: note_on channel=0 note=86 velocity=0 time=0.7114583333333333
EXTRACT: note_on channel=0 note=86 velocity=80 time=0.03854166666666667
EXTRACT: note_on channel=0 note=38 velocity=0 time=0.19895833333333332
EXTRACT: note_on channel=0 note=50 velocity=0 time=0
EXTRACT: note_on channel=0 note=86 velocity=0 time=0.0375
EXTRACT: note_on channel=0 note=84 velocity=80 time=0.013541666666666667
EXTRACT: note_on channel=0 note=38 velocity=80 time=0
EXTRACT: note_on channel=0 note=50 velocity=80 time=0
EXTRACT: note_on channel=0 note=84 velocity=0 time=0.4739583333333333
EXTRACT: note_on channel=0 note=89 velocity=80 time=0.026041666666666668
EXTRACT: note_on channel=0 note=38 velocity=0 time=0.44895833333333335
EXTRACT: note_on channel=0 note=50 velocity=0 time=0
EXTRACT: note_on channel=0 note=89 velocity=0 time=0.025
EXTRACT: note_on channel=0 note=86 velocity=80 time=0.026041666666666668
EXTRACT: note_on channel=0 note=34 velocity=80 time=0
EXTRACT: note_on channel=0 note=46 velocity=80 time=0
EXTRACT: note_on channel=0 note=86 velocity=0 time=0.7114583333333333
EXTRACT: note_on channel=0 note=86 velocity=80 time=0.03854166666666667
EXTRACT: note_on channel=0 note=34 velocity=0 time=0.19895833333333332
EXTRACT: note_on channel=0 note=46 velocity=0 time=0
EXTRACT: note_on channel=0 note=86 velocity=0 time=0.0375
EXTRACT: note_on channel=0 note=84 velocity=80 time=0.013541666666666667
EXTRACT: note_on channel=0 note=34 velocity=80 time=0
EXTRACT: note_on channel=0 note=46 velocity=80 time=0
EXTRACT: note_on channel=0 note=84 velocity=0 time=0.4739583333333333
EXTRACT: note_on channel=0 note=89 velocity=80 time=0.026041666666666668
EXTRACT: note_on channel=0 note=34 velocity=0 time=0.44895833333333335
EXTRACT: note_on channel=0 note=46 velocity=0 time=0
EXTRACT: note_on channel=0 note=89 velocity=0 time=0.025
EXTRACT: note_on channel=0 note=86 velocity=80 time=0.026041666666666668
EXTRACT: note_on channel=0 note=34 velocity=80 time=0
EXTRACT: note_on channel=0 note=46 velocity=80 time=0
EXTRACT: note_on channel=0 note=86 velocity=0 time=0.7114583333333333
EXTRACT: note_on channel=0 note=86 velocity=80 time=0.03854166666666667
EXTRACT: note_on channel=0 note=34 velocity=0 time=0.19895833333333332
EXTRACT: note_on channel=0 note=46 velocity=0 time=0
EXTRACT: note_on channel=0 note=86 velocity=0 time=0.0375
EXTRACT: note_on channel=0 note=84 velocity=80 time=0.013541666666666667
EXTRACT: note_on channel=0 note=34 velocity=80 time=0
EXTRACT: note_on channel=0 note=46 velocity=80 time=0
EXTRACT: note_on channel=0 note=84 velocity=0 time=0.4739583333333333
EXTRACT: note_on channel=0 note=81 velocity=80 time=0.026041666666666668
EXTRACT: note_on channel=0 note=34 velocity=0 time=0.44895833333333335
EXTRACT: note_on channel=0 note=46 velocity=0 time=0
EXTRACT: note_on channel=0 note=81 velocity=0 time=0.025
EXTRACT: note_on channel=0 note=81 velocity=80 time=0.026041666666666668
EXTRACT: note_on channel=0 note=29 velocity=80 time=0
EXTRACT: note_on channel=0 note=41 velocity=80 time=0
EXTRACT: note_on channel=0 note=81 velocity=0 time=0.7114583333333333
EXTRACT: note_on channel=0 note=81 velocity=80 time=0.03854166666666667
EXTRACT: note_on channel=0 note=29 velocity=0 time=0.19895833333333332
EXTRACT: note_on channel=0 note=41 velocity=0 time=0
EXTRACT: note_on channel=0 note=81 velocity=0 time=0.0375
EXTRACT: note_on channel=0 note=79 velocity=80 time=0.013541666666666667
EXTRACT: note_on channel=0 note=29 velocity=80 time=0
EXTRACT: note_on channel=0 note=41 velocity=80 time=0
EXTRACT: note_on channel=0 note=79 velocity=0 time=0.23645833333333333
EXTRACT: note_on channel=0 note=84 velocity=80 time=0.2635416666666667
EXTRACT: note_on channel=0 note=29 velocity=0 time=0.44895833333333335
EXTRACT: note_on channel=0 note=41 velocity=0 time=0
EXTRACT: note_on channel=0 note=84 velocity=0 time=0.025
EXTRACT: note_on channel=0 note=81 velocity=80 time=0.026041666666666668
EXTRACT: note_on channel=0 note=29 velocity=80 time=0
EXTRACT: note_on channel=0 note=41 velocity=80 time=0
EXTRACT: note_on channel=0 note=81 velocity=0 time=0.7114583333333333
EXTRACT: note_on channel=0 note=81 velocity=80 time=0.03854166666666667
EXTRACT: note_on channel=0 note=29 velocity=0 time=0.19895833333333332
EXTRACT: note_on channel=0 note=41 velocity=0 time=0
EXTRACT: note_on channel=0 note=81 velocity=0 time=0.0375
EXTRACT: note_on channel=0 note=79 velocity=80 time=0.013541666666666667
EXTRACT: note_on channel=0 note=29 velocity=80 time=0
EXTRACT: note_on channel=0 note=41 velocity=80 time=0
EXTRACT: note_on channel=0 note=79 velocity=0 time=0.4739583333333333
EXTRACT: note_on channel=0 note=77 velocity=80 time=0.026041666666666668
EXTRACT: note_on channel=0 note=29 velocity=0 time=0.44895833333333335
EXTRACT: note_on channel=0 note=41 velocity=0 time=0
EXTRACT: note_on channel=0 note=77 velocity=0 time=0.025
EXTRACT: note_on channel=0 note=76 velocity=80 time=0.026041666666666668
EXTRACT: note_on channel=0 note=24 velocity=80 time=0
EXTRACT: note_on channel=0 note=36 velocity=80 time=0
EXTRACT: note_on channel=0 note=76 velocity=0 time=0.9489583333333333
EXTRACT: note_on channel=0 note=24 velocity=0 time=0
EXTRACT: note_on channel=0 note=36 velocity=0 time=0
EXTRACT: note_on channel=0 note=24 velocity=80 time=0.051041666666666666
EXTRACT: note_on channel=0 note=36 velocity=80 time=0
EXTRACT: note_on channel=0 note=24 velocity=0 time=0.9489583333333333
EXTRACT: note_on channel=0 note=36 velocity=0 time=0
EXTRACT: note_on channel=0 note=24 velocity=80 time=0.051041666666666666
EXTRACT: note_on channel=0 note=36 velocity=80 time=0
EXTRACT: note_on channel=0 note=24 velocity=0 time=0.9489583333333333
EXTRACT: note_on channel=0 note=36 velocity=0 time=0
EXTRACT: note_on channel=0 note=24 velocity=80 time=0.051041666666666666
EXTRACT: note_on channel=0 note=36 velocity=80 time=0
EXTRACT: note_on channel=0 note=24 velocity=0 time=0.9489583333333333
EXTRACT: note_on channel=0 note=36 velocity=0 time=0
EXTRACT: note_on channel=0 note=74 velocity=80 time=0
EXTRACT: note_on channel=0 note=26 velocity=80 time=0
EXTRACT: note_on channel=0 note=38 velocity=80 time=0
EXTRACT: note_on channel=0 note=74 velocity=0 time=0.23645833333333333
EXTRACT: note_on channel=0 note=74 velocity=80 time=0.013541666666666667
EXTRACT: note_on channel=0 note=74 velocity=0 time=0.23645833333333333
EXTRACT: note_on channel=0 note=74 velocity=80 time=0.013541666666666667
EXTRACT: note_on channel=0 note=74 velocity=0 time=0.23645833333333333
EXTRACT: note_on channel=0 note=74 velocity=80 time=0.013541666666666667
EXTRACT: note_on channel=0 note=26 velocity=0 time=0.19895833333333332
EXTRACT: note_on channel=0 note=38 velocity=0 time=0
EXTRACT: note_on channel=0 note=74 velocity=0 time=0.0375
EXTRACT: note_on channel=0 note=74 velocity=80 time=0.013541666666666667
EXTRACT: note_on channel=0 note=53 velocity=80 time=0
EXTRACT: note_on channel=0 note=57 velocity=80 time=0
EXTRACT: note_on channel=0 note=62 velocity=80 time=0
EXTRACT: note_on channel=0 note=74 velocity=0 time=0.23645833333333333
EXTRACT: note_on channel=0 note=72 velocity=80 time=0.013541666666666667
EXTRACT: note_on channel=0 note=72 velocity=0 time=0.23645833333333333
EXTRACT: note_on channel=0 note=72 velocity=80 time=0.013541666666666667
EXTRACT: note_on channel=0 note=72 velocity=0 time=0.23645833333333333
EXTRACT: note_on channel=0 note=72 velocity=80 time=0.013541666666666667
EXTRACT: note_on channel=0 note=53 velocity=0 time=0.19895833333333332
EXTRACT: note_on channel=0 note=57 velocity=0 time=0
EXTRACT: note_on channel=0 note=62 velocity=0 time=0
EXTRACT: note_on channel=0 note=72 velocity=0 time=0.0375
EXTRACT: note_on channel=0 note=72 velocity=80 time=0.013541666666666667
EXTRACT: note_on channel=0 note=50 velocity=80 time=0
EXTRACT: note_on channel=0 note=53 velocity=80 time=0
EXTRACT: note_on channel=0 note=57 velocity=80 time=0
EXTRACT: note_on channel=0 note=72 velocity=0 time=0.23645833333333333
EXTRACT: note_on channel=0 note=69 velocity=80 time=0.013541666666666667
EXTRACT: note_on channel=0 note=69 velocity=0 time=0.4739583333333333
EXTRACT: note_on channel=0 note=69 velocity=80 time=0.026041666666666668
EXTRACT: note_on channel=0 note=50 velocity=0 time=0.19895833333333332
EXTRACT: note_on channel=0 note=53 velocity=0 time=0
EXTRACT: note_on channel=0 note=57 velocity=0 time=0
EXTRACT: note_on channel=0 note=53 velocity=80 time=0.051041666666666666
EXTRACT: note_on channel=0 note=57 velocity=80 time=0
EXTRACT: note_on channel=0 note=62 velocity=80 time=0
EXTRACT: note_on channel=0 note=69 velocity=0 time=0.4614583333333333
EXTRACT: note_on channel=0 note=72 velocity=80 time=0.03854166666666667
EXTRACT: note_on channel=0 note=72 velocity=0 time=0.23645833333333333
EXTRACT: note_on channel=0 note=74 velocity=80 time=0.013541666666666667
EXTRACT: note_on channel=0 note=53 velocity=0 time=0.19895833333333332
EXTRACT: note_on channel=0 note=57 velocity=0 time=0
EXTRACT: note_on channel=0 note=62 velocity=0 time=0
EXTRACT: note_on channel=0 note=34 velocity=80 time=0.051041666666666666
EXTRACT: note_on channel=0 note=46 velocity=80 time=0
EXTRACT: note_on channel=0 note=74 velocity=0 time=0.22395833333333334
EXTRACT: note_on channel=0 note=74 velocity=80 time=0.026041666666666668
EXTRACT: note_on channel=0 note=74 velocity=0 time=0.23645833333333333
EXTRACT: note_on channel=0 note=74 velocity=80 time=0.013541666666666667
EXTRACT: note_on channel=0 note=74 velocity=0 time=0.23645833333333333
EXTRACT: note_on channel=0 note=74 velocity=80 time=0.013541666666666667
EXTRACT: note_on channel=0 note=34 velocity=0 time=0.19895833333333332
EXTRACT: note_on channel=0 note=46 velocity=0 time=0
EXTRACT: note_on channel=0 note=74 velocity=0 time=0.0375
EXTRACT: note_on channel=0 note=74 velocity=80 time=0.013541666666666667
EXTRACT: note_on channel=0 note=53 velocity=80 time=0
EXTRACT: note_on channel=0 note=58 velocity=80 time=0
EXTRACT: note_on channel=0 note=62 velocity=80 time=0
EXTRACT: note_on channel=0 note=74 velocity=0 time=0.23645833333333333
EXTRACT: note_on channel=0 note=72 velocity=80 time=0.013541666666666667
EXTRACT: note_on channel=0 note=72 velocity=0 time=0.23645833333333333
EXTRACT: note_on channel=0 note=72 velocity=80 time=0.013541666666666667
EXTRACT: note_on channel=0 note=72 velocity=0 time=0.23645833333333333
EXTRACT: note_on channel=0 note=72 velocity=80 time=0.013541666666666667
EXTRACT: note_on channel=0 note=53 velocity=0 time=0.19895833333333332
EXTRACT: note_on channel=0 note=58 velocity=0 time=0
EXTRACT: note_on channel=0 note=62 velocity=0 time=0
EXTRACT: note_on channel=0 note=72 velocity=0 time=0.0375
EXTRACT: note_on channel=0 note=72 velocity=80 time=0.013541666666666667
EXTRACT: note_on channel=0 note=50 velocity=80 time=0
EXTRACT: note_on channel=0 note=53 velocity=80 time=0
EXTRACT: note_on channel=0 note=58 velocity=80 time=0
EXTRACT: note_on channel=0 note=72 velocity=0 time=0.4739583333333333
EXTRACT: note_on channel=0 note=50 velocity=0 time=0.475
EXTRACT: note_on channel=0 note=53 velocity=0 time=0
EXTRACT: note_on channel=0 note=58 velocity=0 time=0
EXTRACT: note_on channel=0 note=69 velocity=80 time=0.051041666666666666
EXTRACT: note_on channel=0 note=53 velocity=80 time=0
EXTRACT: note_on channel=0 note=58 velocity=80 time=0
EXTRACT: note_on channel=0 note=62 velocity=80 time=0
EXTRACT: note_on channel=0 note=69 velocity=0 time=0.23645833333333333
EXTRACT: note_on channel=0 note=72 velocity=80 time=0.013541666666666667
EXTRACT: note_on channel=0 note=72 velocity=0 time=0.4739583333333333
EXTRACT: note_on channel=0 note=69 velocity=80 time=0.026041666666666668
EXTRACT: note_on channel=0 note=53 velocity=0 time=0.19895833333333332
EXTRACT: note_on channel=0 note=58 velocity=0 time=0
EXTRACT: note_on channel=0 note=62 velocity=0 time=0
EXTRACT: note_on channel=0 note=29 velocity=80 time=0.051041666666666666
EXTRACT: note_on channel=0 note=41 velocity=80 time=0
EXTRACT: note_on channel=0 note=29 velocity=0 time=0.9489583333333333
EXTRACT: note_on channel=0 note=41 velocity=0 time=0
EXTRACT: note_on channel=0 note=53 velocity=80 time=0.051041666666666666
EXTRACT: note_on channel=0 note=57 velocity=80 time=0
EXTRACT: note_on channel=0 note=60 velocity=80 time=0
EXTRACT: note_on channel=0 note=69 velocity=0 time=0.8864583333333333
EXTRACT: note_on channel=0 note=53 velocity=0 time=0.0625
EXTRACT: note_on channel=0 note=57 velocity=0 time=0
EXTRACT: note_on channel=0 note=60 velocity=0 time=0
EXTRACT: note_on channel=0 note=48 velocity=80 time=0.051041666666666666
EXTRACT: note_on channel=0 note=53 velocity=80 time=0
EXTRACT: note_on channel=0 note=57 velocity=80 time=0
EXTRACT: note_on channel=0 note=48 velocity=0 time=0.9489583333333333
EXTRACT: note_on channel=0 note=53 velocity=0 time=0
EXTRACT: note_on channel=0 note=57 velocity=0 time=0
EXTRACT: note_on channel=0 note=69 velocity=80 time=0.051041666666666666
EXTRACT: note_on channel=0 note=53 velocity=80 time=0
EXTRACT: note_on channel=0 note=57 velocity=80 time=0
EXTRACT: note_on channel=0 note=60 velocity=80 time=0
EXTRACT: note_on channel=0 note=69 velocity=0 time=0.23645833333333333
EXTRACT: note_on channel=0 note=72 velocity=80 time=0.013541666666666667
EXTRACT: note_on channel=0 note=72 velocity=0 time=0.4739583333333333
EXTRACT: note_on channel=0 note=67 velocity=80 time=0.026041666666666668
EXTRACT: note_on channel=0 note=53 velocity=0 time=0.19895833333333332
EXTRACT: note_on channel=0 note=57 velocity=0 time=0
EXTRACT: note_on channel=0 note=60 velocity=0 time=0
EXTRACT: note_on channel=0 note=24 velocity=80 time=0.051041666666666666
EXTRACT: note_on channel=0 note=36 velocity=80 time=0
EXTRACT: note_on channel=0 note=67 velocity=0 time=0.9364583333333333
EXTRACT: note_on channel=0 note=24 velocity=0 time=0.0125
EXTRACT: note_on channel=0 note=36 velocity=0 time=0
EXTRACT: note_on channel=0 note=52 velocity=80 time=0.051041666666666666
EXTRACT: note_on channel=0 note=55 velocity=80 time=0
EXTRACT: note_on channel=0 note=60 velocity=80 time=0
EXTRACT: note_on channel=0 note=52 velocity=0 time=0.9489583333333333
EXTRACT: note_on channel=0 note=55 velocity=0 time=0
EXTRACT: note_on channel=0 note=60 velocity=0 time=0
EXTRACT: note_on channel=0 note=48 velocity=80 time=0.051041666666666666
EXTRACT: note_on channel=0 note=52 velocity=80 time=0
EXTRACT: note_on channel=0 note=55 velocity=80 time=0
EXTRACT: note_on channel=0 note=48 velocity=0 time=0.9489583333333333
EXTRACT: note_on channel=0 note=52 velocity=0 time=0
EXTRACT: note_on channel=0 note=55 velocity=0 time=0
EXTRACT: note_on channel=0 note=52 velocity=80 time=0.051041666666666666
EXTRACT: note_on channel=0 note=55 velocity=80 time=0
EXTRACT: note_on channel=0 note=60 velocity=80 time=0
EXTRACT: note_on channel=0 note=74 velocity=80 time=0.75
EXTRACT: note_on channel=0 note=52 velocity=0 time=0.19895833333333332
EXTRACT: note_on channel=0 note=55 velocity=0 time=0
EXTRACT: note_on channel=0 note=60 velocity=0 time=0
EXTRACT: note_on channel=0 note=26 velocity=80 time=0.051041666666666666
EXTRACT: note_on channel=0 note=38 velocity=80 time=0
EXTRACT: note_on channel=0 note=74 velocity=0 time=0.22395833333333334
EXTRACT: note_on channel=0 note=74 velocity=80 time=0.026041666666666668
EXTRACT: note_on channel=0 note=74 velocity=0 time=0.23645833333333333
EXTRACT: note_on channel=0 note=74 velocity=80 time=0.013541666666666667
EXTRACT: note_on channel=0 note=74 velocity=0 time=0.23645833333333333
EXTRACT: note_on channel=0 note=74 velocity=80 time=0.013541666666666667
EXTRACT: note_on channel=0 note=26 velocity=0 time=0.19895833333333332
EXTRACT: note_on channel=0 note=38 velocity=0 time=0
EXTRACT: note_on channel=0 note=74 velocity=0 time=0.0375
EXTRACT: note_on channel=0 note=74 velocity=80 time=0.013541666666666667
EXTRACT: note_on channel=0 note=53 velocity=80 time=0
EXTRACT: note_on channel=0 note=57 velocity=80 time=0
EXTRACT: note_on channel=0 note=62 velocity=80 time=0
EXTRACT: note_on channel=0 note=74 velocity=0 time=0.23645833333333333
EXTRACT: note_on channel=0 note=72 velocity=80 time=0.013541666666666667
EXTRACT: note_on channel=0 note=72 velocity=0 time=0.23645833333333333
EXTRACT: note_on channel=0 note=72 velocity=80 time=0.013541666666666667
EXTRACT: note_on channel=0 note=72 velocity=0 time=0.23645833333333333
EXTRACT: note_on channel=0 note=72 velocity=80 time=0.013541666666666667
EXTRACT: note_on channel=0 note=53 velocity=0 time=0.19895833333333332
EXTRACT: note_on channel=0 note=57 velocity=0 time=0
EXTRACT: note_on channel=0 note=62 velocity=0 time=0
EXTRACT: note_on channel=0 note=72 velocity=0 time=0.0375
EXTRACT: note_on channel=0 note=72 velocity=80 time=0.013541666666666667
EXTRACT: note_on channel=0 note=50 velocity=80 time=0
EXTRACT: note_on channel=0 note=53 velocity=80 time=0
EXTRACT: note_on channel=0 note=57 velocity=80 time=0
EXTRACT: note_on channel=0 note=72 velocity=0 time=0.23645833333333333
EXTRACT: note_on channel=0 note=69 velocity=80 time=0.013541666666666667
EXTRACT: note_on channel=0 note=69 velocity=0 time=0.4739583333333333
EXTRACT: note_on channel=0 note=69 velocity=80 time=0.026041666666666668
EXTRACT: note_on channel=0 note=50 velocity=0 time=0.19895833333333332
EXTRACT: note_on channel=0 note=53 velocity=0 time=0
EXTRACT: note_on channel=0 note=57 velocity=0 time=0
EXTRACT: note_on channel=0 note=53 velocity=80 time=0.051041666666666666
EXTRACT: note_on channel=0 note=57 velocity=80 time=0
EXTRACT: note_on channel=0 note=62 velocity=80 time=0
EXTRACT: note_on channel=0 note=69 velocity=0 time=0.22395833333333334
EXTRACT: note_on channel=0 note=69 velocity=80 time=0.026041666666666668
EXTRACT: note_on channel=0 note=69 velocity=0 time=0.23645833333333333
EXTRACT: note_on channel=0 note=72 velocity=80 time=0.013541666666666667
EXTRACT: note_on channel=0 note=72 velocity=0 time=0.23645833333333333
EXTRACT: note_on channel=0 note=74 velocity=80 time=0.013541666666666667
EXTRACT: note_on channel=0 note=53 velocity=0 time=0.19895833333333332
EXTRACT: note_on channel=0 note=57 velocity=0 time=0
EXTRACT: note_on channel=0 note=62 velocity=0 time=0
EXTRACT: note_on channel=0 note=34 velocity=80 time=0.051041666666666666
EXTRACT: note_on channel=0 note=46 velocity=80 time=0
EXTRACT: note_on channel=0 note=74 velocity=0 time=0.22395833333333334
EXTRACT: note_on channel=0 note=74 velocity=80 time=0.026041666666666668
EXTRACT: note_on channel=0 note=74 velocity=0 time=0.23645833333333333
EXTRACT: note_on channel=0 note=74 velocity=80 time=0.013541666666666667
EXTRACT: note_on channel=0 note=74 velocity=0 time=0.23645833333333333
EXTRACT: note_on channel=0 note=74 velocity=80 time=0.013541666666666667
EXTRACT: note_on channel=0 note=34 velocity=0 time=0.19895833333333332
EXTRACT: note_on channel=0 note=46 velocity=0 time=0
EXTRACT: note_on channel=0 note=74 velocity=0 time=0.0375
EXTRACT: note_on channel=0 note=74 velocity=80 time=0.013541666666666667
EXTRACT: note_on channel=0 note=53 velocity=80 time=0
EXTRACT: note_on channel=0 note=58 velocity=80 time=0
EXTRACT: note_on channel=0 note=62 velocity=80 time=0
EXTRACT: note_on channel=0 note=74 velocity=0 time=0.23645833333333333
EXTRACT: note_on channel=0 note=72 velocity=80 time=0.013541666666666667
EXTRACT: note_on channel=0 note=72 velocity=0 time=0.23645833333333333
EXTRACT: note_on channel=0 note=72 velocity=80 time=0.013541666666666667
EXTRACT: note_on channel=0 note=72 velocity=0 time=0.23645833333333333
EXTRACT: note_on channel=0 note=72 velocity=80 time=0.013541666666666667
EXTRACT: note_on channel=0 note=53 velocity=0 time=0.19895833333333332
EXTRACT: note_on channel=0 note=58 velocity=0 time=0
EXTRACT: note_on channel=0 note=62 velocity=0 time=0
EXTRACT: note_on channel=0 note=72 velocity=0 time=0.0375
EXTRACT: note_on channel=0 note=72 velocity=80 time=0.013541666666666667
EXTRACT: note_on channel=0 note=50 velocity=80 time=0
EXTRACT: note_on channel=0 note=53 velocity=80 time=0
EXTRACT: note_on channel=0 note=58 velocity=80 time=0
EXTRACT: note_on channel=0 note=72 velocity=0 time=0.23645833333333333
EXTRACT: note_on channel=0 note=69 velocity=80 time=0.013541666666666667
EXTRACT: note_on channel=0 note=69 velocity=0 time=0.23645833333333333
EXTRACT: note_on channel=0 note=69 velocity=80 time=0.013541666666666667
EXTRACT: note_on channel=0 note=69 velocity=0 time=0.23645833333333333
EXTRACT: note_on channel=0 note=69 velocity=80 time=0.013541666666666667
EXTRACT: note_on channel=0 note=50 velocity=0 time=0.19895833333333332
EXTRACT: note_on channel=0 note=53 velocity=0 time=0
EXTRACT: note_on channel=0 note=58 velocity=0 time=0
EXTRACT: note_on channel=0 note=53 velocity=80 time=0.051041666666666666
EXTRACT: note_on channel=0 note=58 velocity=80 time=0
EXTRACT: note_on channel=0 note=62 velocity=80 time=0
EXTRACT: note_on channel=0 note=69 velocity=0 time=0.22395833333333334
EXTRACT: note_on channel=0 note=69 velocity=80 time=0.026041666666666668
EXTRACT: note_on channel=0 note=69 velocity=0 time=0.23645833333333333
EXTRACT: note_on channel=0 note=72 velocity=80 time=0.013541666666666667
EXTRACT: note_on channel=0 note=72 velocity=0 time=0.23645833333333333
EXTRACT: note_on channel=0 note=69 velocity=80 time=0.013541666666666667
EXTRACT: note_on channel=0 note=53 velocity=0 time=0.19895833333333332
EXTRACT: note_on channel=0 note=58 velocity=0 time=0
EXTRACT: note_on channel=0 note=62 velocity=0 time=0
EXTRACT: note_on channel=0 note=29 velocity=80 time=0.051041666666666666
EXTRACT: note_on channel=0 note=41 velocity=80 time=0
EXTRACT: note_on channel=0 note=29 velocity=0 time=0.9489583333333333
EXTRACT: note_on channel=0 note=41 velocity=0 time=0
EXTRACT: note_on channel=0 note=53 velocity=80 time=0.051041666666666666
EXTRACT: note_on channel=0 note=57 velocity=80 time=0
EXTRACT: note_on channel=0 note=60 velocity=80 time=0
EXTRACT: note_on channel=0 note=69 velocity=0 time=0.8864583333333333
EXTRACT: note_on channel=0 note=53 velocity=0 time=0.0625
EXTRACT: note_on channel=0 note=57 velocity=0 time=0
EXTRACT: note_on channel=0 note=60 velocity=0 time=0
EXTRACT: note_on channel=0 note=48 velocity=80 time=0.051041666666666666
EXTRACT: note_on channel=0 note=53 velocity=80 time=0
EXTRACT: note_on channel=0 note=57 velocity=80 time=0
EXTRACT: note_on channel=0 note=48 velocity=0 time=0.9489583333333333
EXTRACT: note_on channel=0 note=53 velocity=0 time=0
EXTRACT: note_on channel=0 note=57 velocity=0 time=0
EXTRACT: note_on channel=0 note=53 velocity=80 time=0.051041666666666666
EXTRACT: note_on channel=0 note=57 velocity=80 time=0
EXTRACT: note_on channel=0 note=60 velocity=80 time=0
EXTRACT: note_on channel=0 note=69 velocity=80 time=0.25
EXTRACT: note_on channel=0 note=69 velocity=0 time=0.23645833333333333
EXTRACT: note_on channel=0 note=72 velocity=80 time=0.013541666666666667
EXTRACT: note_on channel=0 note=72 velocity=0 time=0.23645833333333333
EXTRACT: note_on channel=0 note=67 velocity=80 time=0.013541666666666667
EXTRACT: note_on channel=0 note=53 velocity=0 time=0.19895833333333332
EXTRACT: note_on channel=0 note=57 velocity=0 time=0
EXTRACT: note_on channel=0 note=60 velocity=0 time=0
EXTRACT: note_on channel=0 note=24 velocity=80 time=0.051041666666666666
EXTRACT: note_on channel=0 note=36 velocity=80 time=0
EXTRACT: note_on channel=0 note=24 velocity=0 time=0.9489583333333333
EXTRACT: note_on channel=0 note=36 velocity=0 time=0
EXTRACT: note_on channel=0 note=52 velocity=80 time=0.051041666666666666
EXTRACT: note_on channel=0 note=67 velocity=0 time=0.8864583333333333
EXTRACT: note_on channel=0 note=52 velocity=0 time=0.0625
EXTRACT: note_on channel=0 note=52 velocity=80 time=0.051041666666666666
EXTRACT: note_on channel=0 note=52 velocity=0 time=0.9489583333333333
EXTRACT: note_on channel=0 note=52 velocity=80 time=0.051041666666666666
EXTRACT: note_on channel=0 note=62 velocity=80 time=0.25
EXTRACT: note_on channel=0 note=62 velocity=0 time=0.23645833333333333
EXTRACT: note_on channel=0 note=62 velocity=80 time=0.013541666666666667
EXTRACT: note_on channel=0 note=62 velocity=0 time=0.23645833333333333
EXTRACT: note_on channel=0 note=67 velocity=80 time=0.013541666666666667
EXTRACT: note_on channel=0 note=52 velocity=0 time=0.19895833333333332
EXTRACT: note_on channel=0 note=26 velocity=80 time=0.051041666666666666
EXTRACT: note_on channel=0 note=38 velocity=80 time=0
EXTRACT: note_on channel=0 note=67 velocity=0 time=0.22395833333333334
EXTRACT: note_on channel=0 note=67 velocity=80 time=0.026041666666666668
EXTRACT: note_on channel=0 note=67 velocity=0 time=0.23645833333333333
EXTRACT: note_on channel=0 note=67 velocity=80 time=0.013541666666666667
EXTRACT: note_on channel=0 note=67 velocity=0 time=0.23645833333333333
EXTRACT: note_on channel=0 note=67 velocity=80 time=0.013541666666666667
EXTRACT: note_on channel=0 note=26 velocity=0 time=0.19895833333333332
EXTRACT: note_on channel=0 note=38 velocity=0 time=0
EXTRACT: note_on channel=0 note=67 velocity=0 time=0.0375
EXTRACT: note_on channel=0 note=67 velocity=80 time=0.013541666666666667
EXTRACT: note_on channel=0 note=53 velocity=80 time=0
EXTRACT: note_on channel=0 note=57 velocity=80 time=0
EXTRACT: note_on channel=0 note=62 velocity=80 time=0
EXTRACT: note_on channel=0 note=67 velocity=0 time=0.23645833333333333
EXTRACT: note_on channel=0 note=65 velocity=80 time=0.013541666666666667
EXTRACT: note_on channel=0 note=65 velocity=0 time=0.4739583333333333
EXTRACT: note_on channel=0 note=62 velocity=80 time=0.026041666666666668
EXTRACT: note_on channel=0 note=53 velocity=0 time=0.19895833333333332
EXTRACT: note_on channel=0 note=57 velocity=0 time=0
EXTRACT: note_on channel=0 note=62 velocity=0 time=0
EXTRACT: note_on channel=0 note=62 velocity=0 time=0.0375
EXTRACT: note_on channel=0 note=67 velocity=80 time=0.013541666666666667
EXTRACT: note_on channel=0 note=50 velocity=80 time=0
EXTRACT: note_on channel=0 note=53 velocity=80 time=0
EXTRACT: note_on channel=0 note=57 velocity=80 time=0
EXTRACT: note_on channel=0 note=67 velocity=0 time=0.23645833333333333
EXTRACT: note_on channel=0 note=67 velocity=80 time=0.013541666666666667
EXTRACT: note_on channel=0 note=67 velocity=0 time=0.23645833333333333
EXTRACT: note_on channel=0 note=67 velocity=80 time=0.013541666666666667
EXTRACT: note_on channel=0 note=67 velocity=0 time=0.23645833333333333
EXTRACT: note_on channel=0 note=65 velocity=80 time=0.013541666666666667
EXTRACT: note_on channel=0 note=50 velocity=0 time=0.19895833333333332
EXTRACT: note_on channel=0 note=53 velocity=0 time=0
EXTRACT: note_on channel=0 note=57 velocity=0 time=0
EXTRACT: note_on channel=0 note=65 velocity=0 time=0.0375
EXTRACT: note_on channel=0 note=65 velocity=80 time=0.013541666666666667
EXTRACT: note_on channel=0 note=53 velocity=80 time=0
EXTRACT: note_on channel=0 note=57 velocity=80 time=0
EXTRACT: note_on channel=0 note=62 velocity=80 time=0
EXTRACT: note_on channel=0 note=65 velocity=0 time=0.7114583333333333
EXTRACT: note_on channel=0 note=67 velocity=80 time=0.03854166666666667
EXTRACT: note_on channel=0 note=53 velocity=0 time=0.19895833333333332
EXTRACT: note_on channel=0 note=57 velocity=0 time=0
EXTRACT: note_on channel=0 note=62 velocity=0 time=0
EXTRACT: note_on channel=0 note=34 velocity=80 time=0.051041666666666666
EXTRACT: note_on channel=0 note=46 velocity=80 time=0
EXTRACT: note_on channel=0 note=67 velocity=0 time=0.22395833333333334
EXTRACT: note_on channel=0 note=67 velocity=80 time=0.026041666666666668
EXTRACT: note_on channel=0 note=67 velocity=0 time=0.23645833333333333
EXTRACT: note_on channel=0 note=67 velocity=80 time=0.013541666666666667
EXTRACT: note_on channel=0 note=67 velocity=0 time=0.23645833333333333
EXTRACT: note_on channel=0 note=67 velocity=80 time=0.013541666666666667
EXTRACT: note_on channel=0 note=34 velocity=0 time=0.19895833333333332
EXTRACT: note_on channel=0 note=46 velocity=0 time=0
EXTRACT: note_on channel=0 note=67 velocity=0 time=0.0375
EXTRACT: note_on channel=0 note=67 velocity=80 time=0.013541666666666667
EXTRACT: note_on channel=0 note=53 velocity=80 time=0
EXTRACT: note_on channel=0 note=58 velocity=80 time=0
EXTRACT: note_on channel=0 note=62 velocity=80 time=0
EXTRACT: note_on channel=0 note=67 velocity=0 time=0.23645833333333333
EXTRACT: note_on channel=0 note=65 velocity=80 time=0.013541666666666667
EXTRACT: note_on channel=0 note=65 velocity=0 time=0.4739583333333333
EXTRACT: note_on channel=0 note=67 velocity=80 time=0.026041666666666668
EXTRACT: note_on channel=0 note=53 velocity=0 time=0.19895833333333332
EXTRACT: note_on channel=0 note=58 velocity=0 time=0
EXTRACT: note_on channel=0 note=62 velocity=0 time=0
EXTRACT: note_on channel=0 note=50 velocity=80 time=0.051041666666666666
EXTRACT: note_on channel=0 note=53 velocity=80 time=0
EXTRACT: note_on channel=0 note=58 velocity=80 time=0
EXTRACT: note_on channel=0 note=67 velocity=0 time=0.22395833333333334
EXTRACT: note_on channel=0 note=67 velocity=80 time=0.026041666666666668
EXTRACT: note_on channel=0 note=67 velocity=0 time=0.23645833333333333
EXTRACT: note_on channel=0 note=67 velocity=80 time=0.013541666666666667
EXTRACT: note_on channel=0 note=67 velocity=0 time=0.23645833333333333
EXTRACT: note_on channel=0 note=67 velocity=80 time=0.013541666666666667
EXTRACT: note_on channel=0 note=50 velocity=0 time=0.19895833333333332
EXTRACT: note_on channel=0 note=53 velocity=0 time=0
EXTRACT: note_on channel=0 note=58 velocity=0 time=0
EXTRACT: note_on channel=0 note=67 velocity=0 time=0.0375
EXTRACT: note_on channel=0 note=67 velocity=80 time=0.013541666666666667
EXTRACT: note_on channel=0 note=53 velocity=80 time=0
EXTRACT: note_on channel=0 note=58 velocity=80 time=0
EXTRACT: note_on channel=0 note=62 velocity=80 time=0
EXTRACT: note_on channel=0 note=67 velocity=0 time=0.23645833333333333
EXTRACT: note_on channel=0 note=67 velocity=80 time=0.013541666666666667
EXTRACT: note_on channel=0 note=67 velocity=0 time=0.23645833333333333
EXTRACT: note_on channel=0 note=67 velocity=80 time=0.013541666666666667
EXTRACT: note_on channel=0 note=67 velocity=0 time=0.23645833333333333
EXTRACT: note_on channel=0 note=67 velocity=80 time=0.013541666666666667
EXTRACT: note_on channel=0 note=53 velocity=0 time=0.19895833333333332
EXTRACT: note_on channel=0 note=58 velocity=0 time=0
EXTRACT: note_on channel=0 note=62 velocity=0 time=0
EXTRACT: note_on channel=0 note=67 velocity=0 time=0.0375
EXTRACT: note_on channel=0 note=67 velocity=80 time=0.013541666666666667
EXTRACT: note_on channel=0 note=29 velocity=80 time=0
EXTRACT: note_on channel=0 note=41 velocity=80 time=0
EXTRACT: note_on channel=0 note=67 velocity=0 time=0.23645833333333333
EXTRACT: note_on channel=0 note=65 velocity=80 time=0.013541666666666667
EXTRACT: note_on channel=0 note=65 velocity=0 time=0.23645833333333333
EXTRACT: note_on channel=0 note=65 velocity=80 time=0.013541666666666667
EXTRACT: note_on channel=0 note=29 velocity=0 time=0.44895833333333335
EXTRACT: note_on channel=0 note=41 velocity=0 time=0
EXTRACT: note_on channel=0 note=53 velocity=80 time=0.051041666666666666
EXTRACT: note_on channel=0 note=57 velocity=80 time=0
EXTRACT: note_on channel=0 note=60 velocity=80 time=0
EXTRACT: note_on channel=0 note=65 velocity=0 time=0.9239583333333333
EXTRACT: note_on channel=0 note=53 velocity=0 time=0.025
EXTRACT: note_on channel=0 note=57 velocity=0 time=0
EXTRACT: note_on channel=0 note=60 velocity=0 time=0
EXTRACT: note_on channel=0 note=48 velocity=80 time=0.051041666666666666
EXTRACT: note_on channel=0 note=53 velocity=80 time=0
EXTRACT: note_on channel=0 note=57 velocity=80 time=0
EXTRACT: note_on channel=0 note=65 velocity=80 time=0.25
EXTRACT: note_on channel=0 note=65 velocity=0 time=0.23645833333333333
EXTRACT: note_on channel=0 note=67 velocity=80 time=0.013541666666666667
EXTRACT: note_on channel=0 note=67 velocity=0 time=0.23645833333333333
EXTRACT: note_on channel=0 note=67 velocity=80 time=0.013541666666666667
EXTRACT: note_on channel=0 note=48 velocity=0 time=0.19895833333333332
EXTRACT: note_on channel=0 note=53 velocity=0 time=0
EXTRACT: note_on channel=0 note=57 velocity=0 time=0
EXTRACT: note_on channel=0 note=67 velocity=0 time=0.0375
EXTRACT: note_on channel=0 note=67 velocity=80 time=0.013541666666666667
EXTRACT: note_on channel=0 note=53 velocity=80 time=0
EXTRACT: note_on channel=0 note=57 velocity=80 time=0
EXTRACT: note_on channel=0 note=60 velocity=80 time=0
EXTRACT: note_on channel=0 note=67 velocity=0 time=0.23645833333333333
EXTRACT: note_on channel=0 note=65 velocity=80 time=0.013541666666666667
EXTRACT: note_on channel=0 note=65 velocity=0 time=0.4739583333333333
EXTRACT: note_on channel=0 note=69 velocity=80 time=0.026041666666666668
EXTRACT: note_on channel=0 note=53 velocity=0 time=0.19895833333333332
EXTRACT: note_on channel=0 note=57 velocity=0 time=0
EXTRACT: note_on channel=0 note=60 velocity=0 time=0
EXTRACT: note_on channel=0 note=24 velocity=80 time=0.051041666666666666
EXTRACT: note_on channel=0 note=36 velocity=80 time=0
EXTRACT: note_on channel=0 note=69 velocity=0 time=0.9364583333333333
EXTRACT: note_on channel=0 note=74 velocity=80 time=0.8135416666666666
EXTRACT: note_on channel=0 note=74 velocity=0 time=0.23645833333333333
EXTRACT: note_on channel=0 note=79 velocity=80 time=0.013541666666666667
EXTRACT: note_on channel=0 note=79 velocity=0 time=0.23645833333333333
EXTRACT: note_on channel=0 note=79 velocity=80 time=0.013541666666666667
EXTRACT: note_on channel=0 note=79 velocity=0 time=0.23645833333333333
EXTRACT: note_on channel=0 note=79 velocity=80 time=0.013541666666666667
EXTRACT: note_on channel=0 note=79 velocity=0 time=0.23645833333333333
EXTRACT: note_on channel=0 note=79 velocity=80 time=0.013541666666666667
EXTRACT: note_on channel=0 note=79 velocity=0 time=0.23645833333333333
EXTRACT: note_on channel=0 note=79 velocity=80 time=0.013541666666666667
EXTRACT: note_on channel=0 note=79 velocity=0 time=0.23645833333333333
EXTRACT: note_on channel=0 note=77 velocity=80 time=0.013541666666666667
EXTRACT: note_on channel=0 note=24 velocity=0 time=0.5489583333333333
EXTRACT: note_on channel=0 note=36 velocity=0 time=0
EXTRACT: note_on channel=0 note=77 velocity=0 time=0.1625
EXTRACT: note_on channel=0 note=74 velocity=80 time=0.03854166666666667
EXTRACT: note_on channel=0 note=38 velocity=80 time=0
EXTRACT: note_on channel=0 note=50 velocity=80 time=0
EXTRACT: note_on channel=0 note=74 velocity=0 time=0.7114583333333333
EXTRACT: note_on channel=0 note=74 velocity=80 time=0.03854166666666667
EXTRACT: note_on channel=0 note=38 velocity=0 time=0.19895833333333332
EXTRACT: note_on channel=0 note=50 velocity=0 time=0
EXTRACT: note_on channel=0 note=74 velocity=0 time=0.0375
EXTRACT: note_on channel=0 note=77 velocity=80 time=0.013541666666666667
EXTRACT: note_on channel=0 note=38 velocity=80 time=0
EXTRACT: note_on channel=0 note=50 velocity=80 time=0
EXTRACT: note_on channel=0 note=77 velocity=0 time=0.4739583333333333
EXTRACT: note_on channel=0 note=81 velocity=80 time=0.026041666666666668
EXTRACT: note_on channel=0 note=38 velocity=0 time=0.44895833333333335
EXTRACT: note_on channel=0 note=50 velocity=0 time=0
EXTRACT: note_on channel=0 note=81 velocity=0 time=0.025
EXTRACT: note_on channel=0 note=86 velocity=80 time=0.026041666666666668
EXTRACT: note_on channel=0 note=38 velocity=80 time=0
EXTRACT: note_on channel=0 note=50 velocity=80 time=0
EXTRACT: note_on channel=0 note=86 velocity=0 time=0.7114583333333333
EXTRACT: note_on channel=0 note=86 velocity=80 time=0.03854166666666667
EXTRACT: note_on channel=0 note=38 velocity=0 time=0.19895833333333332
EXTRACT: note_on channel=0 note=50 velocity=0 time=0
EXTRACT: note_on channel=0 note=86 velocity=0 time=0.0375
EXTRACT: note_on channel=0 note=84 velocity=80 time=0.013541666666666667
EXTRACT: note_on channel=0 note=38 velocity=80 time=0
EXTRACT: note_on channel=0 note=50 velocity=80 time=0
EXTRACT: note_on channel=0 note=84 velocity=0 time=0.4739583333333333
EXTRACT: note_on channel=0 note=89 velocity=80 time=0.026041666666666668
EXTRACT: note_on channel=0 note=38 velocity=0 time=0.44895833333333335
EXTRACT: note_on channel=0 note=50 velocity=0 time=0
EXTRACT: note_on channel=0 note=89 velocity=0 time=0.025
EXTRACT: note_on channel=0 note=86 velocity=80 time=0.026041666666666668
EXTRACT: note_on channel=0 note=34 velocity=80 time=0
EXTRACT: note_on channel=0 note=46 velocity=80 time=0
EXTRACT: note_on channel=0 note=86 velocity=0 time=0.7114583333333333
EXTRACT: note_on channel=0 note=86 velocity=80 time=0.03854166666666667
EXTRACT: note_on channel=0 note=34 velocity=0 time=0.19895833333333332
EXTRACT: note_on channel=0 note=46 velocity=0 time=0
EXTRACT: note_on channel=0 note=86 velocity=0 time=0.0375
EXTRACT: note_on channel=0 note=84 velocity=80 time=0.013541666666666667
EXTRACT: note_on channel=0 note=34 velocity=80 time=0
EXTRACT: note_on channel=0 note=46 velocity=80 time=0
EXTRACT: note_on channel=0 note=84 velocity=0 time=0.4739583333333333
EXTRACT: note_on channel=0 note=89 velocity=80 time=0.026041666666666668
EXTRACT: note_on channel=0 note=34 velocity=0 time=0.44895833333333335
EXTRACT: note_on channel=0 note=46 velocity=0 time=0
EXTRACT: note_on channel=0 note=89 velocity=0 time=0.025
EXTRACT: note_on channel=0 note=86 velocity=80 time=0.026041666666666668
EXTRACT: note_on channel=0 note=34 velocity=80 time=0
EXTRACT: note_on channel=0 note=46 velocity=80 time=0
EXTRACT: note_on channel=0 note=86 velocity=0 time=0.7114583333333333
EXTRACT: note_on channel=0 note=86 velocity=80 time=0.03854166666666667
EXTRACT: note_on channel=0 note=34 velocity=0 time=0.19895833333333332
EXTRACT: note_on channel=0 note=46 velocity=0 time=0
EXTRACT: note_on channel=0 note=86 velocity=0 time=0.0375
EXTRACT: note_on channel=0 note=84 velocity=80 time=0.013541666666666667
EXTRACT: note_on channel=0 note=34 velocity=80 time=0
EXTRACT: note_on channel=0 note=46 velocity=80 time=0
EXTRACT: note_on channel=0 note=84 velocity=0 time=0.4739583333333333
EXTRACT: note_on channel=0 note=81 velocity=80 time=0.026041666666666668
EXTRACT: note_on channel=0 note=34 velocity=0 time=0.44895833333333335
EXTRACT: note_on channel=0 note=46 velocity=0 time=0
EXTRACT: note_on channel=0 note=81 velocity=0 time=0.025
EXTRACT: note_on channel=0 note=81 velocity=80 time=0.026041666666666668
EXTRACT: note_on channel=0 note=29 velocity=80 time=0
EXTRACT: note_on channel=0 note=41 velocity=80 time=0
EXTRACT: note_on channel=0 note=81 velocity=0 time=0.7114583333333333
EXTRACT: note_on channel=0 note=81 velocity=80 time=0.03854166666666667
EXTRACT: note_on channel=0 note=29 velocity=0 time=0.19895833333333332
EXTRACT: note_on channel=0 note=41 velocity=0 time=0
EXTRACT: note_on channel=0 note=81 velocity=0 time=0.0375
EXTRACT: note_on channel=0 note=79 velocity=80 time=0.013541666666666667
EXTRACT: note_on channel=0 note=29 velocity=80 time=0
EXTRACT: note_on channel=0 note=41 velocity=80 time=0
EXTRACT: note_on channel=0 note=79 velocity=0 time=0.4739583333333333
EXTRACT: note_on channel=0 note=84 velocity=80 time=0.026041666666666668
EXTRACT: note_on channel=0 note=29 velocity=0 time=0.44895833333333335
EXTRACT: note_on channel=0 note=41 velocity=0 time=0
EXTRACT: note_on channel=0 note=84 velocity=0 time=0.025
EXTRACT: note_on channel=0 note=81 velocity=80 time=0.026041666666666668
EXTRACT: note_on channel=0 note=29 velocity=80 time=0
EXTRACT: note_on channel=0 note=41 velocity=80 time=0
EXTRACT: note_on channel=0 note=81 velocity=0 time=0.7114583333333333
EXTRACT: note_on channel=0 note=81 velocity=80 time=0.03854166666666667
EXTRACT: note_on channel=0 note=29 velocity=0 time=0.19895833333333332
EXTRACT: note_on channel=0 note=41 velocity=0 time=0
EXTRACT: note_on channel=0 note=81 velocity=0 time=0.0375
EXTRACT: note_on channel=0 note=79 velocity=80 time=0.013541666666666667
EXTRACT: note_on channel=0 note=29 velocity=80 time=0
EXTRACT: note_on channel=0 note=41 velocity=80 time=0
EXTRACT: note_on channel=0 note=79 velocity=0 time=0.4739583333333333
EXTRACT: note_on channel=0 note=77 velocity=80 time=0.026041666666666668
EXTRACT: note_on channel=0 note=29 velocity=0 time=0.44895833333333335
EXTRACT: note_on channel=0 note=41 velocity=0 time=0
EXTRACT: note_on channel=0 note=77 velocity=0 time=0.025
EXTRACT: note_on channel=0 note=76 velocity=80 time=0.026041666666666668
EXTRACT: note_on channel=0 note=24 velocity=80 time=0
EXTRACT: note_on channel=0 note=36 velocity=80 time=0
EXTRACT: note_on channel=0 note=76 velocity=0 time=0.9489583333333333
EXTRACT: note_on channel=0 note=24 velocity=0 time=0
EXTRACT: note_on channel=0 note=36 velocity=0 time=0
EXTRACT: note_on channel=0 note=24 velocity=80 time=0.051041666666666666
EXTRACT: note_on channel=0 note=36 velocity=80 time=0
EXTRACT: note_on channel=0 note=24 velocity=0 time=0.9489583333333333
EXTRACT: note_on channel=0 note=36 velocity=0 time=0
EXTRACT: note_on channel=0 note=79 velocity=80 time=0.051041666666666666
EXTRACT: note_on channel=0 note=24 velocity=80 time=0
EXTRACT: note_on channel=0 note=36 velocity=80 time=0
EXTRACT: note_on channel=0 note=79 velocity=0 time=0.23645833333333333
EXTRACT: note_on channel=0 note=79 velocity=80 time=0.013541666666666667
EXTRACT: note_on channel=0 note=79 velocity=0 time=0.23645833333333333
EXTRACT: note_on channel=0 note=79 velocity=80 time=0.013541666666666667
EXTRACT: note_on channel=0 note=79 velocity=0 time=0.23645833333333333
EXTRACT: note_on channel=0 note=79 velocity=80 time=0.013541666666666667
EXTRACT: note_on channel=0 note=24 velocity=0 time=0.19895833333333332
EXTRACT: note_on channel=0 note=36 velocity=0 time=0
EXTRACT: note_on channel=0 note=79 velocity=0 time=0.0375
EXTRACT: note_on channel=0 note=79 velocity=80 time=0.013541666666666667
EXTRACT: note_on channel=0 note=24 velocity=80 time=0
EXTRACT: note_on channel=0 note=36 velocity=80 time=0
EXTRACT: note_on channel=0 note=79 velocity=0 time=0.23645833333333333
EXTRACT: note_on channel=0 note=77 velocity=80 time=0.013541666666666667
EXTRACT: note_on channel=0 note=24 velocity=0 time=0.6989583333333333
EXTRACT: note_on channel=0 note=36 velocity=0 time=0
EXTRACT: note_on channel=0 note=77 velocity=0 time=0.0125
EXTRACT: note_on channel=0 note=74 velocity=80 time=0.03854166666666667
EXTRACT: note_on channel=0 note=38 velocity=80 time=0
EXTRACT: note_on channel=0 note=50 velocity=80 time=0
EXTRACT: note_on channel=0 note=74 velocity=0 time=0.7114583333333333
EXTRACT: note_on channel=0 note=74 velocity=80 time=0.03854166666666667
EXTRACT: note_on channel=0 note=38 velocity=0 time=0.19895833333333332
EXTRACT: note_on channel=0 note=50 velocity=0 time=0
EXTRACT: note_on channel=0 note=74 velocity=0 time=0.0375
EXTRACT: note_on channel=0 note=77 velocity=80 time=0.013541666666666667
EXTRACT: note_on channel=0 note=38 velocity=80 time=0
EXTRACT: note_on channel=0 note=50 velocity=80 time=0
EXTRACT: note_on channel=0 note=77 velocity=0 time=0.4739583333333333
EXTRACT: note_on channel=0 note=81 velocity=80 time=0.026041666666666668
EXTRACT: note_on channel=0 note=38 velocity=0 time=0.44895833333333335
EXTRACT: note_on channel=0 note=50 velocity=0 time=0
EXTRACT: note_on channel=0 note=81 velocity=0 time=0.025
EXTRACT: note_on channel=0 note=86 velocity=80 time=0.026041666666666668
EXTRACT: note_on channel=0 note=38 velocity=80 time=0
EXTRACT: note_on channel=0 note=50 velocity=80 time=0
EXTRACT: note_on channel=0 note=86 velocity=0 time=0.7114583333333333
EXTRACT: note_on channel=0 note=86 velocity=80 time=0.03854166666666667
EXTRACT: note_on channel=0 note=38 velocity=0 time=0.19895833333333332
EXTRACT: note_on channel=0 note=50 velocity=0 time=0
EXTRACT: note_on channel=0 note=86 velocity=0 time=0.0375
EXTRACT: note_on channel=0 note=84 velocity=80 time=0.013541666666666667
EXTRACT: note_on channel=0 note=38 velocity=80 time=0
EXTRACT: note_on channel=0 note=50 velocity=80 time=0
EXTRACT: note_on channel=0 note=84 velocity=0 time=0.4739583333333333
EXTRACT: note_on channel=0 note=89 velocity=80 time=0.026041666666666668
EXTRACT: note_on channel=0 note=38 velocity=0 time=0.44895833333333335
EXTRACT: note_on channel=0 note=50 velocity=0 time=0
EXTRACT: note_on channel=0 note=89 velocity=0 time=0.025
EXTRACT: note_on channel=0 note=86 velocity=80 time=0.026041666666666668
EXTRACT: note_on channel=0 note=34 velocity=80 time=0
EXTRACT: note_on channel=0 note=46 velocity=80 time=0
EXTRACT: note_on channel=0 note=86 velocity=0 time=0.7114583333333333
EXTRACT: note_on channel=0 note=86 velocity=80 time=0.03854166666666667
EXTRACT: note_on channel=0 note=34 velocity=0 time=0.19895833333333332
EXTRACT: note_on channel=0 note=46 velocity=0 time=0
EXTRACT: note_on channel=0 note=86 velocity=0 time=0.0375
EXTRACT: note_on channel=0 note=84 velocity=80 time=0.013541666666666667
EXTRACT: note_on channel=0 note=34 velocity=80 time=0
EXTRACT: note_on channel=0 note=46 velocity=80 time=0
EXTRACT: note_on channel=0 note=84 velocity=0 time=0.4739583333333333
EXTRACT: note_on channel=0 note=89 velocity=80 time=0.026041666666666668
EXTRACT: note_on channel=0 note=34 velocity=0 time=0.44895833333333335
EXTRACT: note_on channel=0 note=46 velocity=0 time=0
EXTRACT: note_on channel=0 note=89 velocity=0 time=0.025
EXTRACT: note_on channel=0 note=86 velocity=80 time=0.026041666666666668
EXTRACT: note_on channel=0 note=34 velocity=80 time=0
EXTRACT: note_on channel=0 note=46 velocity=80 time=0
EXTRACT: note_on channel=0 note=86 velocity=0 time=0.7114583333333333
EXTRACT: note_on channel=0 note=86 velocity=80 time=0.03854166666666667
EXTRACT: note_on channel=0 note=34 velocity=0 time=0.19895833333333332
EXTRACT: note_on channel=0 note=46 velocity=0 time=0
EXTRACT: note_on channel=0 note=86 velocity=0 time=0.0375
EXTRACT: note_on channel=0 note=84 velocity=80 time=0.013541666666666667
EXTRACT: note_on channel=0 note=34 velocity=80 time=0
EXTRACT: note_on channel=0 note=46 velocity=80 time=0
EXTRACT: note_on channel=0 note=84 velocity=0 time=0.4739583333333333
EXTRACT: note_on channel=0 note=81 velocity=80 time=0.026041666666666668
EXTRACT: note_on channel=0 note=34 velocity=0 time=0.44895833333333335
EXTRACT: note_on channel=0 note=46 velocity=0 time=0
EXTRACT: note_on channel=0 note=81 velocity=0 time=0.025
EXTRACT: note_on channel=0 note=81 velocity=80 time=0.026041666666666668
EXTRACT: note_on channel=0 note=29 velocity=80 time=0
EXTRACT: note_on channel=0 note=41 velocity=80 time=0
EXTRACT: note_on channel=0 note=81 velocity=0 time=0.7114583333333333
EXTRACT: note_on channel=0 note=81 velocity=80 time=0.03854166666666667
EXTRACT: note_on channel=0 note=29 velocity=0 time=0.19895833333333332
EXTRACT: note_on channel=0 note=41 velocity=0 time=0
EXTRACT: note_on channel=0 note=81 velocity=0 time=0.0375
EXTRACT: note_on channel=0 note=79 velocity=80 time=0.013541666666666667
EXTRACT: note_on channel=0 note=29 velocity=80 time=0
EXTRACT: note_on channel=0 note=41 velocity=80 time=0
EXTRACT: note_on channel=0 note=79 velocity=0 time=0.23645833333333333
EXTRACT: note_on channel=0 note=84 velocity=80 time=0.2635416666666667
EXTRACT: note_on channel=0 note=29 velocity=0 time=0.44895833333333335
EXTRACT: note_on channel=0 note=41 velocity=0 time=0
EXTRACT: note_on channel=0 note=84 velocity=0 time=0.025
EXTRACT: note_on channel=0 note=81 velocity=80 time=0.026041666666666668
EXTRACT: note_on channel=0 note=29 velocity=80 time=0
EXTRACT: note_on channel=0 note=41 velocity=80 time=0
EXTRACT: note_on channel=0 note=81 velocity=0 time=0.7114583333333333
EXTRACT: note_on channel=0 note=81 velocity=80 time=0.03854166666666667
EXTRACT: note_on channel=0 note=29 velocity=0 time=0.19895833333333332
EXTRACT: note_on channel=0 note=41 velocity=0 time=0
EXTRACT: note_on channel=0 note=81 velocity=0 time=0.0375
EXTRACT: note_on channel=0 note=79 velocity=80 time=0.013541666666666667
EXTRACT: note_on channel=0 note=29 velocity=80 time=0
EXTRACT: note_on channel=0 note=41 velocity=80 time=0
EXTRACT: note_on channel=0 note=79 velocity=0 time=0.4739583333333333
EXTRACT: note_on channel=0 note=77 velocity=80 time=0.026041666666666668
EXTRACT: note_on channel=0 note=29 velocity=0 time=0.44895833333333335
EXTRACT: note_on channel=0 note=41 velocity=0 time=0
EXTRACT: note_on channel=0 note=77 velocity=0 time=0.025
EXTRACT: note_on channel=0 note=76 velocity=80 time=0.026041666666666668
EXTRACT: note_on channel=0 note=24 velocity=80 time=0
EXTRACT: note_on channel=0 note=36 velocity=80 time=0
EXTRACT: note_on channel=0 note=76 velocity=0 time=0.9489583333333333
EXTRACT: note_on channel=0 note=24 velocity=0 time=0
EXTRACT: note_on channel=0 note=36 velocity=0 time=0
EXTRACT: note_on channel=0 note=24 velocity=80 time=0.051041666666666666
EXTRACT: note_on channel=0 note=36 velocity=80 time=0
EXTRACT: note_on channel=0 note=24 velocity=0 time=0.9489583333333333
EXTRACT: note_on channel=0 note=36 velocity=0 time=0
EXTRACT: note_on channel=0 note=24 velocity=80 time=0.051041666666666666
EXTRACT: note_on channel=0 note=36 velocity=80 time=0
EXTRACT: note_on channel=0 note=24 velocity=0 time=0.9489583333333333
EXTRACT: note_on channel=0 note=36 velocity=0 time=0
EXTRACT: note_on channel=0 note=24 velocity=80 time=0.051041666666666666
EXTRACT: note_on channel=0 note=36 velocity=80 time=0
EXTRACT: note_on channel=0 note=74 velocity=80 time=0.25
EXTRACT: note_on channel=0 note=74 velocity=0 time=0.23645833333333333
EXTRACT: note_on channel=0 note=74 velocity=80 time=0.013541666666666667
EXTRACT: note_on channel=0 note=74 velocity=0 time=0.23645833333333333
EXTRACT: note_on channel=0 note=74 velocity=80 time=0.013541666666666667
EXTRACT: note_on channel=0 note=24 velocity=0 time=0.19895833333333332
EXTRACT: note_on channel=0 note=36 velocity=0 time=0
EXTRACT: note_on channel=0 note=74 velocity=0 time=0.0375
EXTRACT: note_on channel=0 note=69 velocity=80 time=0.013541666666666667
EXTRACT: note_on channel=0 note=74 velocity=80 time=0
EXTRACT: note_on channel=0 note=79 velocity=80 time=0
EXTRACT: note_on channel=0 note=38 velocity=80 time=0
EXTRACT: note_on channel=0 note=50 velocity=80 time=0
EXTRACT: note_on channel=0 note=69 velocity=0 time=0.23645833333333333
EXTRACT: note_on channel=0 note=74 velocity=0 time=0
EXTRACT: note_on channel=0 note=79 velocity=0 time=0
EXTRACT: note_on channel=0 note=69 velocity=80 time=0.013541666666666667
EXTRACT: note_on channel=0 note=74 velocity=80 time=0
EXTRACT: note_on channel=0 note=79 velocity=80 time=0
EXTRACT: note_on channel=0 note=69 velocity=0 time=0.23645833333333333
EXTRACT: note_on channel=0 note=74 velocity=0 time=0
EXTRACT: note_on channel=0 note=79 velocity=0 time=0
EXTRACT: note_on channel=0 note=69 velocity=80 time=0.013541666666666667
EXTRACT: note_on channel=0 note=74 velocity=80 time=0
EXTRACT: note_on channel=0 note=79 velocity=80 time=0
EXTRACT: note_on channel=0 note=69 velocity=0 time=0.23645833333333333
EXTRACT: note_on channel=0 note=74 velocity=0 time=0
EXTRACT: note_on channel=0 note=79 velocity=0 time=0
EXTRACT: note_on channel=0 note=69 velocity=80 time=0.013541666666666667
EXTRACT: note_on channel=0 note=74 velocity=80 time=0
EXTRACT: note_on channel=0 note=79 velocity=80 time=0
EXTRACT: note_on channel=0 note=38 velocity=0 time=0.19895833333333332
EXTRACT: note_on channel=0 note=50 velocity=0 time=0
EXTRACT: note_on channel=0 note=69 velocity=0 time=0.0375
EXTRACT: note_on channel=0 note=74 velocity=0 time=0
EXTRACT: note_on channel=0 note=79 velocity=0 time=0
EXTRACT: note_on channel=0 note=69 velocity=80 time=0.013541666666666667
EXTRACT: note_on channel=0 note=74 velocity=80 time=0
EXTRACT: note_on channel=0 note=79 velocity=80 time=0
EXTRACT: note_on channel=0 note=38 velocity=80 time=0
EXTRACT: note_on channel=0 note=50 velocity=80 time=0
EXTRACT: note_on channel=0 note=69 velocity=0 time=0.23645833333333333
EXTRACT: note_on channel=0 note=74 velocity=0 time=0
EXTRACT: note_on channel=0 note=79 velocity=0 time=0
EXTRACT: note_on channel=0 note=69 velocity=80 time=0.013541666666666667
EXTRACT: note_on channel=0 note=74 velocity=80 time=0
EXTRACT: note_on channel=0 note=77 velocity=80 time=0
EXTRACT: note_on channel=0 note=38 velocity=0 time=0.6989583333333333
EXTRACT: note_on channel=0 note=50 velocity=0 time=0
EXTRACT: note_on channel=0 note=69 velocity=0 time=0.0125
EXTRACT: note_on channel=0 note=74 velocity=0 time=0
EXTRACT: note_on channel=0 note=77 velocity=0 time=0
EXTRACT: note_on channel=0 note=69 velocity=80 time=0.03854166666666667
EXTRACT: note_on channel=0 note=74 velocity=80 time=0
EXTRACT: note_on channel=0 note=79 velocity=80 time=0
EXTRACT: note_on channel=0 note=38 velocity=80 time=0
EXTRACT: note_on channel=0 note=50 velocity=80 time=0
EXTRACT: note_on channel=0 note=69 velocity=0 time=0.23645833333333333
EXTRACT: note_on channel=0 note=74 velocity=0 time=0
EXTRACT: note_on channel=0 note=79 velocity=0 time=0
EXTRACT: note_on channel=0 note=69 velocity=80 time=0.013541666666666667
EXTRACT: note_on channel=0 note=74 velocity=80 time=0
EXTRACT: note_on channel=0 note=79 velocity=80 time=0
EXTRACT: note_on channel=0 note=69 velocity=0 time=0.23645833333333333
EXTRACT: note_on channel=0 note=74 velocity=0 time=0
EXTRACT: note_on channel=0 note=79 velocity=0 time=0
EXTRACT: note_on channel=0 note=69 velocity=80 time=0.013541666666666667
EXTRACT: note_on channel=0 note=74 velocity=80 time=0
EXTRACT: note_on channel=0 note=79 velocity=80 time=0
EXTRACT: note_on channel=0 note=69 velocity=0 time=0.23645833333333333
EXTRACT: note_on channel=0 note=74 velocity=0 time=0
EXTRACT: note_on channel=0 note=79 velocity=0 time=0
EXTRACT: note_on channel=0 note=69 velocity=80 time=0.013541666666666667
EXTRACT: note_on channel=0 note=74 velocity=80 time=0
EXTRACT: note_on channel=0 note=77 velocity=80 time=0
EXTRACT: note_on channel=0 note=38 velocity=0 time=0.19895833333333332
EXTRACT: note_on channel=0 note=50 velocity=0 time=0
EXTRACT: note_on channel=0 note=69 velocity=0 time=0.0375
EXTRACT: note_on channel=0 note=74 velocity=0 time=0
EXTRACT: note_on channel=0 note=77 velocity=0 time=0
EXTRACT: note_on channel=0 note=69 velocity=80 time=0.013541666666666667
EXTRACT: note_on channel=0 note=74 velocity=80 time=0
EXTRACT: note_on channel=0 note=77 velocity=80 time=0
EXTRACT: note_on channel=0 note=38 velocity=80 time=0
EXTRACT: note_on channel=0 note=50 velocity=80 time=0
EXTRACT: note_on channel=0 note=69 velocity=0 time=0.9489583333333333
EXTRACT: note_on channel=0 note=74 velocity=0 time=0
EXTRACT: note_on channel=0 note=77 velocity=0 time=0
EXTRACT: note_on channel=0 note=38 velocity=0 time=0
EXTRACT: note_on channel=0 note=50 velocity=0 time=0
EXTRACT: note_on channel=0 note=70 velocity=80 time=0.051041666666666666
EXTRACT: note_on channel=0 note=74 velocity=80 time=0
EXTRACT: note_on channel=0 note=79 velocity=80 time=0
EXTRACT: note_on channel=0 note=34 velocity=80 time=0
EXTRACT: note_on channel=0 note=46 velocity=80 time=0
EXTRACT: note_on channel=0 note=70 velocity=0 time=0.23645833333333333
EXTRACT: note_on channel=0 note=74 velocity=0 time=0
EXTRACT: note_on channel=0 note=79 velocity=0 time=0
EXTRACT: note_on channel=0 note=70 velocity=80 time=0.013541666666666667
EXTRACT: note_on channel=0 note=74 velocity=80 time=0
EXTRACT: note_on channel=0 note=79 velocity=80 time=0
EXTRACT: note_on channel=0 note=70 velocity=0 time=0.23645833333333333
EXTRACT: note_on channel=0 note=74 velocity=0 time=0
EXTRACT: note_on channel=0 note=79 velocity=0 time=0
EXTRACT: note_on channel=0 note=70 velocity=80 time=0.013541666666666667
EXTRACT: note_on channel=0 note=74 velocity=80 time=0
EXTRACT: note_on channel=0 note=79 velocity=80 time=0
EXTRACT: note_on channel=0 note=70 velocity=0 time=0.23645833333333333
EXTRACT: note_on channel=0 note=74 velocity=0 time=0
EXTRACT: note_on channel=0 note=79 velocity=0 time=0
EXTRACT: note_on channel=0 note=70 velocity=80 time=0.013541666666666667
EXTRACT: note_on channel=0 note=74 velocity=80 time=0
EXTRACT: note_on channel=0 note=79 velocity=80 time=0
EXTRACT: note_on channel=0 note=34 velocity=0 time=0.19895833333333332
EXTRACT: note_on channel=0 note=46 velocity=0 time=0
EXTRACT: note_on channel=0 note=70 velocity=0 time=0.0375
EXTRACT: note_on channel=0 note=74 velocity=0 time=0
EXTRACT: note_on channel=0 note=79 velocity=0 time=0
EXTRACT: note_on channel=0 note=70 velocity=80 time=0.013541666666666667
EXTRACT: note_on channel=0 note=74 velocity=80 time=0
EXTRACT: note_on channel=0 note=79 velocity=80 time=0
EXTRACT: note_on channel=0 note=34 velocity=80 time=0
EXTRACT: note_on channel=0 note=46 velocity=80 time=0
EXTRACT: note_on channel=0 note=70 velocity=0 time=0.23645833333333333
EXTRACT: note_on channel=0 note=74 velocity=0 time=0
EXTRACT: note_on channel=0 note=79 velocity=0 time=0
EXTRACT: note_on channel=0 note=70 velocity=80 time=0.013541666666666667
EXTRACT: note_on channel=0 note=74 velocity=80 time=0
EXTRACT: note_on channel=0 note=77 velocity=80 time=0
EXTRACT: note_on channel=0 note=34 velocity=0 time=0.6989583333333333
EXTRACT: note_on channel=0 note=46 velocity=0 time=0
EXTRACT: note_on channel=0 note=70 velocity=0 time=0.0125
EXTRACT: note_on channel=0 note=74 velocity=0 time=0
EXTRACT: note_on channel=0 note=77 velocity=0 time=0
EXTRACT: note_on channel=0 note=70 velocity=80 time=0.03854166666666667
EXTRACT: note_on channel=0 note=74 velocity=80 time=0
EXTRACT: note_on channel=0 note=79 velocity=80 time=0
EXTRACT: note_on channel=0 note=34 velocity=80 time=0
EXTRACT: note_on channel=0 note=46 velocity=80 time=0
EXTRACT: note_on channel=0 note=70 velocity=0 time=0.23645833333333333
EXTRACT: note_on channel=0 note=74 velocity=0 time=0
EXTRACT: note_on channel=0 note=79 velocity=0 time=0
EXTRACT: note_on channel=0 note=70 velocity=80 time=0.013541666666666667
EXTRACT: note_on channel=0 note=74 velocity=80 time=0
EXTRACT: note_on channel=0 note=79 velocity=80 time=0
EXTRACT: note_on channel=0 note=70 velocity=0 time=0.23645833333333333
EXTRACT: note_on channel=0 note=74 velocity=0 time=0
EXTRACT: note_on channel=0 note=79 velocity=0 time=0
EXTRACT: note_on channel=0 note=70 velocity=80 time=0.013541666666666667
EXTRACT: note_on channel=0 note=74 velocity=80 time=0
EXTRACT: note_on channel=0 note=79 velocity=80 time=0
EXTRACT: note_on channel=0 note=70 velocity=0 time=0.23645833333333333
EXTRACT: note_on channel=0 note=74 velocity=0 time=0
EXTRACT: note_on channel=0 note=79 velocity=0 time=0
EXTRACT: note_on channel=0 note=70 velocity=80 time=0.013541666666666667
EXTRACT: note_on channel=0 note=74 velocity=80 time=0
EXTRACT: note_on channel=0 note=79 velocity=80 time=0
EXTRACT: note_on channel=0 note=34 velocity=0 time=0.19895833333333332
EXTRACT: note_on channel=0 note=46 velocity=0 time=0
EXTRACT: note_on channel=0 note=70 velocity=0 time=0.0375
EXTRACT: note_on channel=0 note=74 velocity=0 time=0
EXTRACT: note_on channel=0 note=79 velocity=0 time=0
EXTRACT: note_on channel=0 note=70 velocity=80 time=0.013541666666666667
EXTRACT: note_on channel=0 note=74 velocity=80 time=0
EXTRACT: note_on channel=0 note=79 velocity=80 time=0
EXTRACT: note_on channel=0 note=34 velocity=80 time=0
EXTRACT: note_on channel=0 note=46 velocity=80 time=0
EXTRACT: note_on channel=0 note=70 velocity=0 time=0.23645833333333333
EXTRACT: note_on channel=0 note=74 velocity=0 time=0
EXTRACT: note_on channel=0 note=79 velocity=0 time=0
EXTRACT: note_on channel=0 note=70 velocity=80 time=0.013541666666666667
EXTRACT: note_on channel=0 note=74 velocity=80 time=0
EXTRACT: note_on channel=0 note=79 velocity=80 time=0
EXTRACT: note_on channel=0 note=70 velocity=0 time=0.23645833333333333
EXTRACT: note_on channel=0 note=74 velocity=0 time=0
EXTRACT: note_on channel=0 note=79 velocity=0 time=0
EXTRACT: note_on channel=0 note=70 velocity=80 time=0.013541666666666667
EXTRACT: note_on channel=0 note=74 velocity=80 time=0
EXTRACT: note_on channel=0 note=79 velocity=80 time=0
EXTRACT: note_on channel=0 note=70 velocity=0 time=0.23645833333333333
EXTRACT: note_on channel=0 note=74 velocity=0 time=0
EXTRACT: note_on channel=0 note=79 velocity=0 time=0
EXTRACT: note_on channel=0 note=70 velocity=80 time=0.013541666666666667
EXTRACT: note_on channel=0 note=74 velocity=80 time=0
EXTRACT: note_on channel=0 note=79 velocity=80 time=0
EXTRACT: note_on channel=0 note=34 velocity=0 time=0.19895833333333332
EXTRACT: note_on channel=0 note=46 velocity=0 time=0
EXTRACT: note_on channel=0 note=70 velocity=0 time=0.0375
EXTRACT: note_on channel=0 note=74 velocity=0 time=0
EXTRACT: note_on channel=0 note=79 velocity=0 time=0
EXTRACT: note_on channel=0 note=69 velocity=80 time=0.013541666666666667
EXTRACT: note_on channel=0 note=72 velocity=80 time=0
EXTRACT: note_on channel=0 note=79 velocity=80 time=0
EXTRACT: note_on channel=0 note=29 velocity=80 time=0
EXTRACT: note_on channel=0 note=41 velocity=80 time=0
EXTRACT: note_on channel=0 note=69 velocity=0 time=0.23645833333333333
EXTRACT: note_on channel=0 note=72 velocity=0 time=0
EXTRACT: note_on channel=0 note=79 velocity=0 time=0
EXTRACT: note_on channel=0 note=69 velocity=80 time=0.013541666666666667
EXTRACT: note_on channel=0 note=72 velocity=80 time=0
EXTRACT: note_on channel=0 note=79 velocity=80 time=0
EXTRACT: note_on channel=0 note=69 velocity=0 time=0.23645833333333333
EXTRACT: note_on channel=0 note=72 velocity=0 time=0
EXTRACT: note_on channel=0 note=79 velocity=0 time=0
EXTRACT: note_on channel=0 note=69 velocity=80 time=0.013541666666666667
EXTRACT: note_on channel=0 note=72 velocity=80 time=0
EXTRACT: note_on channel=0 note=79 velocity=80 time=0
EXTRACT: note_on channel=0 note=69 velocity=0 time=0.23645833333333333
EXTRACT: note_on channel=0 note=72 velocity=0 time=0
EXTRACT: note_on channel=0 note=79 velocity=0 time=0
EXTRACT: note_on channel=0 note=69 velocity=80 time=0.013541666666666667
EXTRACT: note_on channel=0 note=72 velocity=80 time=0
EXTRACT: note_on channel=0 note=79 velocity=80 time=0
EXTRACT: note_on channel=0 note=29 velocity=0 time=0.19895833333333332
EXTRACT: note_on channel=0 note=41 velocity=0 time=0
EXTRACT: note_on channel=0 note=69 velocity=0 time=0.0375
EXTRACT: note_on channel=0 note=72 velocity=0 time=0
EXTRACT: note_on channel=0 note=79 velocity=0 time=0
EXTRACT: note_on channel=0 note=69 velocity=80 time=0.013541666666666667
EXTRACT: note_on channel=0 note=72 velocity=80 time=0
EXTRACT: note_on channel=0 note=79 velocity=80 time=0
EXTRACT: note_on channel=0 note=29 velocity=80 time=0
EXTRACT: note_on channel=0 note=41 velocity=80 time=0
EXTRACT: note_on channel=0 note=69 velocity=0 time=0.23645833333333333
EXTRACT: note_on channel=0 note=72 velocity=0 time=0
EXTRACT: note_on channel=0 note=79 velocity=0 time=0
EXTRACT: note_on channel=0 note=69 velocity=80 time=0.013541666666666667
EXTRACT: note_on channel=0 note=72 velocity=80 time=0
EXTRACT: note_on channel=0 note=77 velocity=80 time=0
EXTRACT: note_on channel=0 note=29 velocity=0 time=0.6989583333333333
EXTRACT: note_on channel=0 note=41 velocity=0 time=0
EXTRACT: note_on channel=0 note=69 velocity=0 time=0.0125
EXTRACT: note_on channel=0 note=72 velocity=0 time=0
EXTRACT: note_on channel=0 note=77 velocity=0 time=0
EXTRACT: note_on channel=0 note=29 velocity=80 time=0.03854166666666667
EXTRACT: note_on channel=0 note=41 velocity=80 time=0
EXTRACT: note_on channel=0 note=69 velocity=80 time=0.25
EXTRACT: note_on channel=0 note=72 velocity=80 time=0
EXTRACT: note_on channel=0 note=77 velocity=80 time=0
EXTRACT: note_on channel=0 note=69 velocity=0 time=0.23645833333333333
EXTRACT: note_on channel=0 note=72 velocity=0 time=0
EXTRACT: note_on channel=0 note=77 velocity=0 time=0
EXTRACT: note_on channel=0 note=69 velocity=80 time=0.013541666666666667
EXTRACT: note_on channel=0 note=72 velocity=80 time=0
EXTRACT: note_on channel=0 note=77 velocity=80 time=0
EXTRACT: note_on channel=0 note=69 velocity=0 time=0.23645833333333333
EXTRACT: note_on channel=0 note=72 velocity=0 time=0
EXTRACT: note_on channel=0 note=77 velocity=0 time=0
EXTRACT: note_on channel=0 note=69 velocity=80 time=0.013541666666666667
EXTRACT: note_on channel=0 note=72 velocity=80 time=0
EXTRACT: note_on channel=0 note=77 velocity=80 time=0
EXTRACT: note_on channel=0 note=29 velocity=0 time=0.19895833333333332
EXTRACT: note_on channel=0 note=41 velocity=0 time=0
EXTRACT: note_on channel=0 note=69 velocity=0 time=0.0375
EXTRACT: note_on channel=0 note=72 velocity=0 time=0
EXTRACT: note_on channel=0 note=77 velocity=0 time=0
EXTRACT: note_on channel=0 note=69 velocity=80 time=0.013541666666666667
EXTRACT: note_on channel=0 note=72 velocity=80 time=0
EXTRACT: note_on channel=0 note=77 velocity=80 time=0
EXTRACT: note_on channel=0 note=29 velocity=80 time=0
EXTRACT: note_on channel=0 note=41 velocity=80 time=0
EXTRACT: note_on channel=0 note=69 velocity=0 time=0.23645833333333333
EXTRACT: note_on channel=0 note=72 velocity=0 time=0
EXTRACT: note_on channel=0 note=77 velocity=0 time=0
EXTRACT: note_on channel=0 note=69 velocity=80 time=0.013541666666666667
EXTRACT: note_on channel=0 note=72 velocity=80 time=0
EXTRACT: note_on channel=0 note=77 velocity=80 time=0
EXTRACT: note_on channel=0 note=69 velocity=0 time=0.4739583333333333
EXTRACT: note_on channel=0 note=72 velocity=0 time=0
EXTRACT: note_on channel=0 note=77 velocity=0 time=0
EXTRACT: note_on channel=0 note=67 velocity=80 time=0.026041666666666668
EXTRACT: note_on channel=0 note=72 velocity=80 time=0
EXTRACT: note_on channel=0 note=76 velocity=80 time=0
EXTRACT: note_on channel=0 note=29 velocity=0 time=0.19895833333333332
EXTRACT: note_on channel=0 note=41 velocity=0 time=0
EXTRACT: note_on channel=0 note=24 velocity=80 time=0.051041666666666666
EXTRACT: note_on channel=0 note=36 velocity=80 time=0
EXTRACT: note_on channel=0 note=24 velocity=0 time=0.9489583333333333
EXTRACT: note_on channel=0 note=36 velocity=0 time=0
EXTRACT: note_on channel=0 note=24 velocity=80 time=0.051041666666666666
EXTRACT: note_on channel=0 note=36 velocity=80 time=0
EXTRACT: note_on channel=0 note=67 velocity=0 time=0.8864583333333333
EXTRACT: note_on channel=0 note=72 velocity=0 time=0
EXTRACT: note_on channel=0 note=76 velocity=0 time=0
EXTRACT: note_on channel=0 note=24 velocity=0 time=0.0625
EXTRACT: note_on channel=0 note=36 velocity=0 time=0
EXTRACT: note_on channel=0 note=79 velocity=80 time=0.051041666666666666
EXTRACT: note_on channel=0 note=24 velocity=80 time=0
EXTRACT: note_on channel=0 note=36 velocity=80 time=0
EXTRACT: note_on channel=0 note=79 velocity=0 time=0.23645833333333333
EXTRACT: note_on channel=0 note=79 velocity=80 time=0.013541666666666667
EXTRACT: note_on channel=0 note=79 velocity=0 time=0.23645833333333333
EXTRACT: note_on channel=0 note=79 velocity=80 time=0.013541666666666667
EXTRACT: note_on channel=0 note=79 velocity=0 time=0.23645833333333333
EXTRACT: note_on channel=0 note=79 velocity=80 time=0.013541666666666667
EXTRACT: note_on channel=0 note=24 velocity=0 time=0.19895833333333332
EXTRACT: note_on channel=0 note=36 velocity=0 time=0
EXTRACT: note_on channel=0 note=79 velocity=0 time=0.0375
EXTRACT: note_on channel=0 note=79 velocity=80 time=0.013541666666666667
EXTRACT: note_on channel=0 note=24 velocity=80 time=0
EXTRACT: note_on channel=0 note=36 velocity=80 time=0
EXTRACT: note_on channel=0 note=79 velocity=0 time=0.23645833333333333
EXTRACT: note_on channel=0 note=77 velocity=80 time=0.013541666666666667
EXTRACT: note_on channel=0 note=77 velocity=0 time=0.23645833333333333
EXTRACT: note_on channel=0 note=74 velocity=80 time=0.013541666666666667
EXTRACT: note_on channel=0 note=74 velocity=0 time=0.23645833333333333
EXTRACT: note_on channel=0 note=74 velocity=80 time=0.013541666666666667
EXTRACT: note_on channel=0 note=24 velocity=0 time=0.19895833333333332
EXTRACT: note_on channel=0 note=36 velocity=0 time=0
EXTRACT: note_on channel=0 note=74 velocity=0 time=0.0375
EXTRACT: note_on channel=0 note=69 velocity=80 time=0.013541666666666667
EXTRACT: note_on channel=0 note=74 velocity=80 time=0
EXTRACT: note_on channel=0 note=79 velocity=80 time=0
EXTRACT: note_on channel=0 note=38 velocity=80 time=0
EXTRACT: note_on channel=0 note=50 velocity=80 time=0
EXTRACT: note_on channel=0 note=69 velocity=0 time=0.23645833333333333
EXTRACT: note_on channel=0 note=74 velocity=0 time=0
EXTRACT: note_on channel=0 note=79 velocity=0 time=0
EXTRACT: note_on channel=0 note=69 velocity=80 time=0.013541666666666667
EXTRACT: note_on channel=0 note=74 velocity=80 time=0
EXTRACT: note_on channel=0 note=79 velocity=80 time=0
EXTRACT: note_on channel=0 note=69 velocity=0 time=0.23645833333333333
EXTRACT: note_on channel=0 note=74 velocity=0 time=0
EXTRACT: note_on channel=0 note=79 velocity=0 time=0
EXTRACT: note_on channel=0 note=69 velocity=80 time=0.013541666666666667
EXTRACT: note_on channel=0 note=74 velocity=80 time=0
EXTRACT: note_on channel=0 note=79 velocity=80 time=0
EXTRACT: note_on channel=0 note=69 velocity=0 time=0.23645833333333333
EXTRACT: note_on channel=0 note=74 velocity=0 time=0
EXTRACT: note_on channel=0 note=79 velocity=0 time=0
EXTRACT: note_on channel=0 note=69 velocity=80 time=0.013541666666666667
EXTRACT: note_on channel=0 note=74 velocity=80 time=0
EXTRACT: note_on channel=0 note=79 velocity=80 time=0
EXTRACT: note_on channel=0 note=38 velocity=0 time=0.19895833333333332
EXTRACT: note_on channel=0 note=50 velocity=0 time=0
EXTRACT: note_on channel=0 note=69 velocity=0 time=0.0375
EXTRACT: note_on channel=0 note=74 velocity=0 time=0
EXTRACT: note_on channel=0 note=79 velocity=0 time=0
EXTRACT: note_on channel=0 note=69 velocity=80 time=0.013541666666666667
EXTRACT: note_on channel=0 note=74 velocity=80 time=0
EXTRACT: note_on channel=0 note=79 velocity=80 time=0
EXTRACT: note_on channel=0 note=38 velocity=80 time=0
EXTRACT: note_on channel=0 note=50 velocity=80 time=0
EXTRACT: note_on channel=0 note=69 velocity=0 time=0.23645833333333333
EXTRACT: note_on channel=0 note=74 velocity=0 time=0
EXTRACT: note_on channel=0 note=79 velocity=0 time=0
EXTRACT: note_on channel=0 note=69 velocity=80 time=0.013541666666666667
EXTRACT: note_on channel=0 note=74 velocity=80 time=0
EXTRACT: note_on channel=0 note=77 velocity=80 time=0
EXTRACT: note_on channel=0 note=38 velocity=0 time=0.6989583333333333
EXTRACT: note_on channel=0 note=50 velocity=0 time=0
EXTRACT: note_on channel=0 note=69 velocity=0 time=0.0125
EXTRACT: note_on channel=0 note=74 velocity=0 time=0
EXTRACT: note_on channel=0 note=77 velocity=0 time=0
EXTRACT: note_on channel=0 note=69 velocity=80 time=0.03854166666666667
EXTRACT: note_on channel=0 note=74 velocity=80 time=0
EXTRACT: note_on channel=0 note=79 velocity=80 time=0
EXTRACT: note_on channel=0 note=38 velocity=80 time=0
EXTRACT: note_on channel=0 note=50 velocity=80 time=0
EXTRACT: note_on channel=0 note=69 velocity=0 time=0.23645833333333333
EXTRACT: note_on channel=0 note=74 velocity=0 time=0
EXTRACT: note_on channel=0 note=79 velocity=0 time=0
EXTRACT: note_on channel=0 note=69 velocity=80 time=0.013541666666666667
EXTRACT: note_on channel=0 note=74 velocity=80 time=0
EXTRACT: note_on channel=0 note=79 velocity=80 time=0
EXTRACT: note_on channel=0 note=69 velocity=0 time=0.23645833333333333
EXTRACT: note_on channel=0 note=74 velocity=0 time=0
EXTRACT: note_on channel=0 note=79 velocity=0 time=0
EXTRACT: note_on channel=0 note=69 velocity=80 time=0.013541666666666667
EXTRACT: note_on channel=0 note=74 velocity=80 time=0
EXTRACT: note_on channel=0 note=79 velocity=80 time=0
EXTRACT: note_on channel=0 note=69 velocity=0 time=0.23645833333333333
EXTRACT: note_on channel=0 note=74 velocity=0 time=0
EXTRACT: note_on channel=0 note=79 velocity=0 time=0
EXTRACT: note_on channel=0 note=69 velocity=80 time=0.013541666666666667
EXTRACT: note_on channel=0 note=74 velocity=80 time=0
EXTRACT: note_on channel=0 note=77 velocity=80 time=0
EXTRACT: note_on channel=0 note=38 velocity=0 time=0.19895833333333332
EXTRACT: note_on channel=0 note=50 velocity=0 time=0
EXTRACT: note_on channel=0 note=69 velocity=0 time=0.0375
EXTRACT: note_on channel=0 note=74 velocity=0 time=0
EXTRACT: note_on channel=0 note=77 velocity=0 time=0
EXTRACT: note_on channel=0 note=69 velocity=80 time=0.013541666666666667
EXTRACT: note_on channel=0 note=74 velocity=80 time=0
EXTRACT: note_on channel=0 note=77 velocity=80 time=0
EXTRACT: note_on channel=0 note=38 velocity=80 time=0
EXTRACT: note_on channel=0 note=50 velocity=80 time=0
EXTRACT: note_on channel=0 note=69 velocity=0 time=0.9489583333333333
EXTRACT: note_on channel=0 note=74 velocity=0 time=0
EXTRACT: note_on channel=0 note=77 velocity=0 time=0
EXTRACT: note_on channel=0 note=38 velocity=0 time=0
EXTRACT: note_on channel=0 note=50 velocity=0 time=0
EXTRACT: note_on channel=0 note=70 velocity=80 time=0.051041666666666666
EXTRACT: note_on channel=0 note=74 velocity=80 time=0
EXTRACT: note_on channel=0 note=79 velocity=80 time=0
EXTRACT: note_on channel=0 note=34 velocity=80 time=0
EXTRACT: note_on channel=0 note=46 velocity=80 time=0
EXTRACT: note_on channel=0 note=70 velocity=0 time=0.23645833333333333
EXTRACT: note_on channel=0 note=74 velocity=0 time=0
EXTRACT: note_on channel=0 note=79 velocity=0 time=0
EXTRACT: note_on channel=0 note=70 velocity=80 time=0.013541666666666667
EXTRACT: note_on channel=0 note=74 velocity=80 time=0
EXTRACT: note_on channel=0 note=79 velocity=80 time=0
EXTRACT: note_on channel=0 note=70 velocity=0 time=0.23645833333333333
EXTRACT: note_on channel=0 note=74 velocity=0 time=0
EXTRACT: note_on channel=0 note=79 velocity=0 time=0
EXTRACT: note_on channel=0 note=70 velocity=80 time=0.013541666666666667
EXTRACT: note_on channel=0 note=74 velocity=80 time=0
EXTRACT: note_on channel=0 note=79 velocity=80 time=0
EXTRACT: note_on channel=0 note=70 velocity=0 time=0.23645833333333333
EXTRACT: note_on channel=0 note=74 velocity=0 time=0
EXTRACT: note_on channel=0 note=79 velocity=0 time=0
EXTRACT: note_on channel=0 note=70 velocity=80 time=0.013541666666666667
EXTRACT: note_on channel=0 note=74 velocity=80 time=0
EXTRACT: note_on channel=0 note=79 velocity=80 time=0
EXTRACT: note_on channel=0 note=34 velocity=0 time=0.19895833333333332
EXTRACT: note_on channel=0 note=46 velocity=0 time=0
EXTRACT: note_on channel=0 note=70 velocity=0 time=0.0375
EXTRACT: note_on channel=0 note=74 velocity=0 time=0
EXTRACT: note_on channel=0 note=79 velocity=0 time=0
EXTRACT: note_on channel=0 note=70 velocity=80 time=0.013541666666666667
EXTRACT: note_on channel=0 note=74 velocity=80 time=0
EXTRACT: note_on channel=0 note=79 velocity=80 time=0
EXTRACT: note_on channel=0 note=34 velocity=80 time=0
EXTRACT: note_on channel=0 note=46 velocity=80 time=0
EXTRACT: note_on channel=0 note=70 velocity=0 time=0.23645833333333333
EXTRACT: note_on channel=0 note=74 velocity=0 time=0
EXTRACT: note_on channel=0 note=79 velocity=0 time=0
EXTRACT: note_on channel=0 note=70 velocity=80 time=0.013541666666666667
EXTRACT: note_on channel=0 note=74 velocity=80 time=0
EXTRACT: note_on channel=0 note=77 velocity=80 time=0
EXTRACT: note_on channel=0 note=34 velocity=0 time=0.6989583333333333
EXTRACT: note_on channel=0 note=46 velocity=0 time=0
EXTRACT: note_on channel=0 note=70 velocity=0 time=0.0125
EXTRACT: note_on channel=0 note=74 velocity=0 time=0
EXTRACT: note_on channel=0 note=77 velocity=0 time=0
EXTRACT: note_on channel=0 note=70 velocity=80 time=0.03854166666666667
EXTRACT: note_on channel=0 note=74 velocity=80 time=0
EXTRACT: note_on channel=0 note=79 velocity=80 time=0
EXTRACT: note_on channel=0 note=34 velocity=80 time=0
EXTRACT: note_on channel=0 note=46 velocity=80 time=0
EXTRACT: note_on channel=0 note=70 velocity=0 time=0.23645833333333333
EXTRACT: note_on channel=0 note=74 velocity=0 time=0
EXTRACT: note_on channel=0 note=79 velocity=0 time=0
EXTRACT: note_on channel=0 note=70 velocity=80 time=0.013541666666666667
EXTRACT: note_on channel=0 note=74 velocity=80 time=0
EXTRACT: note_on channel=0 note=79 velocity=80 time=0
EXTRACT: note_on channel=0 note=70 velocity=0 time=0.23645833333333333
EXTRACT: note_on channel=0 note=74 velocity=0 time=0
EXTRACT: note_on channel=0 note=79 velocity=0 time=0
EXTRACT: note_on channel=0 note=70 velocity=80 time=0.013541666666666667
EXTRACT: note_on channel=0 note=74 velocity=80 time=0
EXTRACT: note_on channel=0 note=79 velocity=80 time=0
EXTRACT: note_on channel=0 note=70 velocity=0 time=0.23645833333333333
EXTRACT: note_on channel=0 note=74 velocity=0 time=0
EXTRACT: note_on channel=0 note=79 velocity=0 time=0
EXTRACT: note_on channel=0 note=70 velocity=80 time=0.013541666666666667
EXTRACT: note_on channel=0 note=74 velocity=80 time=0
EXTRACT: note_on channel=0 note=79 velocity=80 time=0
EXTRACT: note_on channel=0 note=34 velocity=0 time=0.19895833333333332
EXTRACT: note_on channel=0 note=46 velocity=0 time=0
EXTRACT: note_on channel=0 note=70 velocity=0 time=0.0375
EXTRACT: note_on channel=0 note=74 velocity=0 time=0
EXTRACT: note_on channel=0 note=79 velocity=0 time=0
EXTRACT: note_on channel=0 note=70 velocity=80 time=0.013541666666666667
EXTRACT: note_on channel=0 note=74 velocity=80 time=0
EXTRACT: note_on channel=0 note=79 velocity=80 time=0
EXTRACT: note_on channel=0 note=34 velocity=80 time=0
EXTRACT: note_on channel=0 note=46 velocity=80 time=0
EXTRACT: note_on channel=0 note=70 velocity=0 time=0.23645833333333333
EXTRACT: note_on channel=0 note=74 velocity=0 time=0
EXTRACT: note_on channel=0 note=79 velocity=0 time=0
EXTRACT: note_on channel=0 note=70 velocity=80 time=0.013541666666666667
EXTRACT: note_on channel=0 note=74 velocity=80 time=0
EXTRACT: note_on channel=0 note=79 velocity=80 time=0
EXTRACT: note_on channel=0 note=70 velocity=0 time=0.23645833333333333
EXTRACT: note_on channel=0 note=74 velocity=0 time=0
EXTRACT: note_on channel=0 note=79 velocity=0 time=0
EXTRACT: note_on channel=0 note=70 velocity=80 time=0.013541666666666667
EXTRACT: note_on channel=0 note=74 velocity=80 time=0
EXTRACT: note_on channel=0 note=79 velocity=80 time=0
EXTRACT: note_on channel=0 note=70 velocity=0 time=0.23645833333333333
EXTRACT: note_on channel=0 note=74 velocity=0 time=0
EXTRACT: note_on channel=0 note=79 velocity=0 time=0
EXTRACT: note_on channel=0 note=70 velocity=80 time=0.013541666666666667
EXTRACT: note_on channel=0 note=74 velocity=80 time=0
EXTRACT: note_on channel=0 note=79 velocity=80 time=0
EXTRACT: note_on channel=0 note=34 velocity=0 time=0.19895833333333332
EXTRACT: note_on channel=0 note=46 velocity=0 time=0
EXTRACT: note_on channel=0 note=70 velocity=0 time=0.0375
EXTRACT: note_on channel=0 note=74 velocity=0 time=0
EXTRACT: note_on channel=0 note=79 velocity=0 time=0
EXTRACT: note_on channel=0 note=69 velocity=80 time=0.013541666666666667
EXTRACT: note_on channel=0 note=72 velocity=80 time=0
EXTRACT: note_on channel=0 note=79 velocity=80 time=0
EXTRACT: note_on channel=0 note=29 velocity=80 time=0
EXTRACT: note_on channel=0 note=41 velocity=80 time=0
EXTRACT: note_on channel=0 note=69 velocity=0 time=0.23645833333333333
EXTRACT: note_on channel=0 note=72 velocity=0 time=0
EXTRACT: note_on channel=0 note=79 velocity=0 time=0
EXTRACT: note_on channel=0 note=69 velocity=80 time=0.013541666666666667
EXTRACT: note_on channel=0 note=72 velocity=80 time=0
EXTRACT: note_on channel=0 note=79 velocity=80 time=0
EXTRACT: note_on channel=0 note=69 velocity=0 time=0.23645833333333333
EXTRACT: note_on channel=0 note=72 velocity=0 time=0
EXTRACT: note_on channel=0 note=79 velocity=0 time=0
EXTRACT: note_on channel=0 note=69 velocity=80 time=0.013541666666666667
EXTRACT: note_on channel=0 note=72 velocity=80 time=0
EXTRACT: note_on channel=0 note=79 velocity=80 time=0
EXTRACT: note_on channel=0 note=69 velocity=0 time=0.23645833333333333
EXTRACT: note_on channel=0 note=72 velocity=0 time=0
EXTRACT: note_on channel=0 note=79 velocity=0 time=0
EXTRACT: note_on channel=0 note=69 velocity=80 time=0.013541666666666667
EXTRACT: note_on channel=0 note=72 velocity=80 time=0
EXTRACT: note_on channel=0 note=79 velocity=80 time=0
EXTRACT: note_on channel=0 note=29 velocity=0 time=0.19895833333333332
EXTRACT: note_on channel=0 note=41 velocity=0 time=0
EXTRACT: note_on channel=0 note=69 velocity=0 time=0.0375
EXTRACT: note_on channel=0 note=72 velocity=0 time=0
EXTRACT: note_on channel=0 note=79 velocity=0 time=0
EXTRACT: note_on channel=0 note=69 velocity=80 time=0.013541666666666667
EXTRACT: note_on channel=0 note=72 velocity=80 time=0
EXTRACT: note_on channel=0 note=79 velocity=80 time=0
EXTRACT: note_on channel=0 note=29 velocity=80 time=0
EXTRACT: note_on channel=0 note=41 velocity=80 time=0
EXTRACT: note_on channel=0 note=69 velocity=0 time=0.23645833333333333
EXTRACT: note_on channel=0 note=72 velocity=0 time=0
EXTRACT: note_on channel=0 note=79 velocity=0 time=0
EXTRACT: note_on channel=0 note=69 velocity=80 time=0.013541666666666667
EXTRACT: note_on channel=0 note=72 velocity=80 time=0
EXTRACT: note_on channel=0 note=77 velocity=80 time=0
EXTRACT: note_on channel=0 note=29 velocity=0 time=0.6989583333333333
EXTRACT: note_on channel=0 note=41 velocity=0 time=0
EXTRACT: note_on channel=0 note=69 velocity=0 time=0.0125
EXTRACT: note_on channel=0 note=72 velocity=0 time=0
EXTRACT: note_on channel=0 note=77 velocity=0 time=0
EXTRACT: note_on channel=0 note=29 velocity=80 time=0.03854166666666667
EXTRACT: note_on channel=0 note=41 velocity=80 time=0
EXTRACT: note_on channel=0 note=69 velocity=80 time=0.25
EXTRACT: note_on channel=0 note=72 velocity=80 time=0
EXTRACT: note_on channel=0 note=77 velocity=80 time=0
EXTRACT: note_on channel=0 note=69 velocity=0 time=0.23645833333333333
EXTRACT: note_on channel=0 note=72 velocity=0 time=0
EXTRACT: note_on channel=0 note=77 velocity=0 time=0
EXTRACT: note_on channel=0 note=69 velocity=80 time=0.013541666666666667
EXTRACT: note_on channel=0 note=72 velocity=80 time=0
EXTRACT: note_on channel=0 note=77 velocity=80 time=0
EXTRACT: note_on channel=0 note=69 velocity=0 time=0.23645833333333333
EXTRACT: note_on channel=0 note=72 velocity=0 time=0
EXTRACT: note_on channel=0 note=77 velocity=0 time=0
EXTRACT: note_on channel=0 note=69 velocity=80 time=0.013541666666666667
EXTRACT: note_on channel=0 note=72 velocity=80 time=0
EXTRACT: note_on channel=0 note=77 velocity=80 time=0
EXTRACT: note_on channel=0 note=29 velocity=0 time=0.19895833333333332
EXTRACT: note_on channel=0 note=41 velocity=0 time=0
EXTRACT: note_on channel=0 note=69 velocity=0 time=0.0375
EXTRACT: note_on channel=0 note=72 velocity=0 time=0
EXTRACT: note_on channel=0 note=77 velocity=0 time=0
EXTRACT: note_on channel=0 note=69 velocity=80 time=0.013541666666666667
EXTRACT: note_on channel=0 note=72 velocity=80 time=0
EXTRACT: note_on channel=0 note=77 velocity=80 time=0
EXTRACT: note_on channel=0 note=29 velocity=80 time=0
EXTRACT: note_on channel=0 note=41 velocity=80 time=0
EXTRACT: note_on channel=0 note=69 velocity=0 time=0.23645833333333333
EXTRACT: note_on channel=0 note=72 velocity=0 time=0
EXTRACT: note_on channel=0 note=77 velocity=0 time=0
EXTRACT: note_on channel=0 note=69 velocity=80 time=0.013541666666666667
EXTRACT: note_on channel=0 note=72 velocity=80 time=0
EXTRACT: note_on channel=0 note=77 velocity=80 time=0
EXTRACT: note_on channel=0 note=69 velocity=0 time=0.4739583333333333
EXTRACT: note_on channel=0 note=72 velocity=0 time=0
EXTRACT: note_on channel=0 note=77 velocity=0 time=0
EXTRACT: note_on channel=0 note=67 velocity=80 time=0.026041666666666668
EXTRACT: note_on channel=0 note=72 velocity=80 time=0
EXTRACT: note_on channel=0 note=76 velocity=80 time=0
EXTRACT: note_on channel=0 note=29 velocity=0 time=0.19895833333333332
EXTRACT: note_on channel=0 note=41 velocity=0 time=0
EXTRACT: note_on channel=0 note=24 velocity=80 time=0.051041666666666666
EXTRACT: note_on channel=0 note=36 velocity=80 time=0
EXTRACT: note_on channel=0 note=24 velocity=0 time=0.9489583333333333
EXTRACT: note_on channel=0 note=36 velocity=0 time=0
EXTRACT: note_on channel=0 note=24 velocity=80 time=0.051041666666666666
EXTRACT: note_on channel=0 note=36 velocity=80 time=0
EXTRACT: note_on channel=0 note=67 velocity=0 time=0.8864583333333333
EXTRACT: note_on channel=0 note=72 velocity=0 time=0
EXTRACT: note_on channel=0 note=76 velocity=0 time=0
EXTRACT: note_on channel=0 note=24 velocity=0 time=0.0625
EXTRACT: note_on channel=0 note=36 velocity=0 time=0
EXTRACT: note_on channel=0 note=67 velocity=80 time=0.051041666666666666
EXTRACT: note_on channel=0 note=24 velocity=80 time=0
EXTRACT: note_on channel=0 note=36 velocity=80 time=0
EXTRACT: note_on channel=0 note=67 velocity=0 time=0.23645833333333333
EXTRACT: note_on channel=0 note=67 velocity=80 time=0.013541666666666667
EXTRACT: note_on channel=0 note=67 velocity=0 time=0.23645833333333333
EXTRACT: note_on channel=0 note=67 velocity=80 time=0.013541666666666667
EXTRACT: note_on channel=0 note=67 velocity=0 time=0.23645833333333333
EXTRACT: note_on channel=0 note=67 velocity=80 time=0.013541666666666667
EXTRACT: note_on channel=0 note=24 velocity=0 time=0.19895833333333332
EXTRACT: note_on channel=0 note=36 velocity=0 time=0
EXTRACT: note_on channel=0 note=67 velocity=0 time=0.0375
EXTRACT: note_on channel=0 note=67 velocity=80 time=0.013541666666666667
EXTRACT: note_on channel=0 note=24 velocity=80 time=0
EXTRACT: note_on channel=0 note=36 velocity=80 time=0
EXTRACT: note_on channel=0 note=67 velocity=0 time=0.23645833333333333
EXTRACT: note_on channel=0 note=65 velocity=80 time=0.013541666666666667
EXTRACT: note_on channel=0 note=24 velocity=0 time=0.6989583333333333
EXTRACT: note_on channel=0 note=36 velocity=0 time=0
EXTRACT: note_on channel=0 note=65 velocity=0 time=0.0125
EXTRACT: note_on channel=0 note=86 velocity=80 time=0.03854166666666667
EXTRACT: note_on channel=0 note=50 velocity=80 time=0
EXTRACT: note_on channel=0 note=62 velocity=80 time=0
EXTRACT: note_on channel=0 note=86 velocity=0 time=0.7114583333333333
EXTRACT: note_on channel=0 note=86 velocity=80 time=0.03854166666666667
EXTRACT: note_on channel=0 note=86 velocity=0 time=0.23645833333333333
EXTRACT: note_on channel=0 note=89 velocity=80 time=0.013541666666666667
EXTRACT: note_on channel=0 note=89 velocity=0 time=0.4739583333333333
EXTRACT: note_on channel=0 note=93 velocity=80 time=0.026041666666666668
EXTRACT: note_on channel=0 note=93 velocity=0 time=0.4739583333333333
EXTRACT: note_on channel=0 note=98 velocity=80 time=0.026041666666666668
EXTRACT: note_on channel=0 note=98 velocity=0 time=0.7114583333333333
EXTRACT: note_on channel=0 note=98 velocity=80 time=0.03854166666666667
EXTRACT: note_on channel=0 note=98 velocity=0 time=0.23645833333333333
EXTRACT: note_on channel=0 note=96 velocity=80 time=0.013541666666666667
EXTRACT: note_on channel=0 note=96 velocity=0 time=0.4739583333333333
EXTRACT: note_on channel=0 note=101 velocity=80 time=0.026041666666666668
EXTRACT: note_on channel=0 note=50 velocity=0 time=0.2989583333333333
EXTRACT: note_on channel=0 note=62 velocity=0 time=0
EXTRACT: note_on channel=0 note=101 velocity=0 time=0.175
EXTRACT: note_on channel=0 note=98 velocity=80 time=0.026041666666666668
EXTRACT: note_on channel=0 note=58 velocity=80 time=0
EXTRACT: note_on channel=0 note=65 velocity=80 time=0
EXTRACT: note_on channel=0 note=98 velocity=0 time=0.9489583333333333
EXTRACT: note_on channel=0 note=98 velocity=80 time=0.051041666666666666
EXTRACT: note_on channel=0 note=98 velocity=0 time=0.9489583333333333
EXTRACT: note_on channel=0 note=98 velocity=80 time=0.051041666666666666
EXTRACT: note_on channel=0 note=98 velocity=0 time=0.9489583333333333
EXTRACT: note_on channel=0 note=98 velocity=80 time=0.051041666666666666
EXTRACT: note_on channel=0 note=58 velocity=0 time=0.7989583333333333
EXTRACT: note_on channel=0 note=65 velocity=0 time=0
EXTRACT: note_on channel=0 note=98 velocity=0 time=0.15
EXTRACT: note_on channel=0 note=93 velocity=80 time=0.051041666666666666
EXTRACT: note_on channel=0 note=53 velocity=80 time=0
EXTRACT: note_on channel=0 note=60 velocity=80 time=0
EXTRACT: note_on channel=0 note=93 velocity=0 time=0.9489583333333333
EXTRACT: note_on channel=0 note=89 velocity=80 time=0.051041666666666666
EXTRACT: note_on channel=0 note=91 velocity=80 time=0
EXTRACT: note_on channel=0 note=89 velocity=0 time=0.4739583333333333
EXTRACT: note_on channel=0 note=91 velocity=0 time=0
EXTRACT: note_on channel=0 note=96 velocity=80 time=0.026041666666666668
EXTRACT: note_on channel=0 note=53 velocity=0 time=0.3989583333333333
EXTRACT: note_on channel=0 note=60 velocity=0 time=0
EXTRACT: note_on channel=0 note=96 velocity=0 time=0.075
EXTRACT: note_on channel=0 note=93 velocity=80 time=0.026041666666666668
EXTRACT: note_on channel=0 note=53 velocity=80 time=0
EXTRACT: note_on channel=0 note=60 velocity=80 time=0
EXTRACT: note_on channel=0 note=93 velocity=0 time=0.9489583333333333
EXTRACT: note_on channel=0 note=89 velocity=80 time=0.051041666666666666
EXTRACT: note_on channel=0 note=91 velocity=80 time=0
EXTRACT: note_on channel=0 note=89 velocity=0 time=0.4739583333333333
EXTRACT: note_on channel=0 note=91 velocity=0 time=0
EXTRACT: note_on channel=0 note=96 velocity=80 time=0.026041666666666668
EXTRACT: note_on channel=0 note=53 velocity=0 time=0.3989583333333333
EXTRACT: note_on channel=0 note=60 velocity=0 time=0
EXTRACT: note_on channel=0 note=96 velocity=0 time=0.075
EXTRACT: note_on channel=0 note=91 velocity=80 time=0.026041666666666668
EXTRACT: note_on channel=0 note=48 velocity=80 time=0
EXTRACT: note_on channel=0 note=55 velocity=80 time=0
EXTRACT: note_on channel=0 note=91 velocity=0 time=3.798958333333333
EXTRACT: note_on channel=0 note=48 velocity=0 time=0
EXTRACT: note_on channel=0 note=55 velocity=0 time=0
